<?xml version="1.0" encoding="utf-8"?>
<!-- Generator: Adobe Illustrator 22.0.1, SVG Export Plug-In . SVG Version: 6.00 Build 0)  -->
<svg version="1.1" id="Capa_1" xmlns="http://www.w3.org/2000/svg" xmlns:xlink="http://www.w3.org/1999/xlink" x="0px" y="0px"
	 viewBox="0 0 350 280" style="enable-background:new 0 0 350 280;" xml:space="preserve">
<style type="text/css">
	.st0{clip-path:url(#SVGID_2_);fill-rule:evenodd;clip-rule:evenodd;fill:#8AA1FE;}
	.st1{clip-path:url(#SVGID_2_);}
	.st2{fill-rule:evenodd;clip-rule:evenodd;fill:#FFFFFF;}
	.st3{fill:#1A2E35;}
	.st4{fill:#455A64;}
	.st5{fill:#E8505B;}
	.st6{fill:#FAFAFA;}
	.st7{fill:#FFBF9D;}
	.st8{opacity:0.6;}
	.st9{fill:#FFFFFF;}
	.st10{opacity:0.3;}
	.st11{fill:#FF9A6C;}
	.st12{fill:#E0E0E0;}
</style>
<g>
	<defs>
		<rect id="SVGID_1_" transform="matrix(-1 -1.224647e-16 1.224647e-16 -1 350 280)" width="350" height="280"/>
	</defs>
	<clipPath id="SVGID_2_">
		<use xlink:href="#SVGID_1_"  style="overflow:visible;"/>
	</clipPath>
	<rect x="-56.4" y="-60.9" class="st0" width="461.7" height="461.7"/>
	<g class="st1">
		<g>
			<path class="st2" d="M63.9,293.8c-28.8,0-52.4-23.6-52.4-52.4l0,0c0-28.8,23.6-52.4,52.4-52.4l0,0c12.2,0,22.1-10,22.1-22.1l0,0
				c0-12.2-10-22.1-22.1-22.1h-2.6c-12.7,0-23-10.4-23-23l0,0c0-12.7,10.4-23,23-23h8.1c4.9,0,9-4,9-9l0,0c0-4.9-4-9-9-9h-5.9
				c-3.4,0-6.2-2.8-6.2-6.2l0,0c0-3.4,2.8-6.2,6.2-6.2h39.9c5.3,0,9.7-4.4,9.7-9.7l0,0c0-5.3-4.4-9.7-9.7-9.7H91.4
				c-3.4,0-6.2-2.8-6.2-6.2v0c0-3.4,2.8-6.2,6.2-6.2h170c4.4,0,8.1,3.6,8.1,8.1v0c0,4.4-3.6,8.1-8.1,8.1h-12.5
				c-7,0-12.7,5.7-12.7,12.7v0c0,7,5.7,12.7,12.7,12.7h52.5c4.4,0,8.1,3.6,8.1,8.1l0,0c0,4.4-3.6,8.1-8.1,8.1h-7.8
				c-6.4,0-11.7,5.3-11.7,11.7l0,0c0,6.4,5.3,11.7,11.7,11.7h10.5c16.5,0,30,13.5,30,30l0,0c0,16.5-13.5,30-30,30h-3.4
				c-15.9,0-28.9,13-28.9,28.9l0,0c0,15.9,13,28.9,28.9,28.9h7.4c16,0,29.1,13.1,29.1,29.1l0,0c0,16-13.1,29.1-29.1,29.1
				C225.3,293.8,146.8,293.8,63.9,293.8L63.9,293.8z M282,52.7c4.5,0,8.1-3.6,8.1-8.1c0-4.5-3.6-8.1-8.1-8.1c-4.5,0-8.1,3.6-8.1,8.1
				C273.9,49.1,277.5,52.7,282,52.7L282,52.7z M46,80.7c3.4,0,6.2-2.8,6.2-6.2c0-3.4-2.8-6.2-6.2-6.2c-3.4,0-6.2,2.8-6.2,6.2
				C39.8,78,42.6,80.7,46,80.7z"/>
		</g>
		<g>
			<g>
				<g>
					<g>
						<g>
							<g>
								<g>
									<path class="st4" d="M78.5,209.2l31.1,104.9c1.4,4.7,5.7,7.9,10.5,7.9l125.8,0.3c6.7,0,12.1-5.6,11.7-12.3l0,0
										c-0.3-6.2-5.5-11.1-11.7-11.1h-48.1l-38.6-107.6H91.8C82.6,191.3,75.9,200.3,78.5,209.2z"/>
								</g>
							</g>
						</g>
						<g>
							<g>
								<g>
									<g>
										<path class="st3" d="M87.8,194.7c0.2-0.1,8.8,25,19.1,56c10.3,31,18.5,56.2,18.3,56.3c-0.2,0.1-8.8-25-19.1-56
											C95.8,220,87.6,194.8,87.8,194.7z"/>
									</g>
								</g>
							</g>
						</g>
					</g>
				</g>
				<g>
					<g>
						<g>
							<g>
								<g>
									<g>
										<g>
											<g>
												<path class="st5" d="M122.4,167.3l11.8,59l-2.1,44.3l79.4-13.2l-3.1-38.8l-0.1-32.1l19.5,37.8l15.2-29.3l-27.8-50.3l0,0
													c-5.1-5.3-11-9.2-18.2-11.8c-3.5-1.3-7.1-2-11.4-2.2v0c-9.2,2.8-18.3,2.8-27.5,0c-1.1,0.1-2.7,0.3-4.6,0.5
													c-0.1,0-0.2,0-0.4,0c-16.9,2.1-29.7,16.1-30.7,33L122.4,167.3z"/>
											</g>
										</g>
									</g>
								</g>
							</g>
							<g>
								<g>
									<g>
										<path class="st5" d="M153.4,131.3c0,0-32.6,0.2-36.7,34.7l-0.5,25.3l28.1-0.2L153.4,131.3z"/>
									</g>
								</g>
							</g>
						</g>
					</g>
					<g>
						<g>
							<g>
								<g>
									<path class="st6" d="M231.4,175.7c0,0.2-25.7,0.4-57.4,0.4c-31.7,0-57.4-0.2-57.4-0.4c0-0.2,25.7-0.4,57.4-0.4
										C205.7,175.3,231.4,175.5,231.4,175.7z"/>
								</g>
							</g>
						</g>
					</g>
					<g>
						<g>
							<g>
								<g>
									<path class="st6" d="M231.4,181.2c0,0.2-25.7,0.4-57.4,0.4c-31.7,0-57.4-0.2-57.4-0.4c0-0.2,25.7-0.4,57.4-0.4
										C205.7,180.7,231.4,180.9,231.4,181.2z"/>
								</g>
							</g>
						</g>
					</g>
					<g>
						<g>
							<g>
								<g>
									<path class="st6" d="M229.6,171.2c0,0.2-25.3,0.4-56.4,0.4c-31.2,0-56.5-0.2-56.5-0.4c0-0.2,25.3-0.4,56.5-0.4
										C204.3,170.7,229.6,170.9,229.6,171.2z"/>
								</g>
							</g>
						</g>
					</g>
					<g>
						<g>
							<g>
								<g>
									<path class="st3" d="M207.8,224.4c-0.2,0-0.1-14,0.2-31.2c0.4-17.2,0.9-31.2,1.1-31.2c0.2,0,0.1,14-0.2,31.2
										C208.6,210.4,208.1,224.4,207.8,224.4z"/>
								</g>
							</g>
						</g>
					</g>
					<g>
						<g>
							<g>
								<path class="st7" d="M196.7,201.7c0,0,15.4,1.1,18.2,5.2c2.8,4.1,7,15.7,5.4,15.8c-1.6,0.1-2.8-0.9-2.8-0.9l-4.2-7.5
									c0,0,0.7,7.2-1.9,7.4c-2.5,0.1-15.1,2.7-15.1,2.7L196.7,201.7z"/>
							</g>
						</g>
					</g>
					<g>
						<g>
							<g>
								<path class="st5" d="M116.2,184.7l-0.1,39.7c0.5,9.3,9.2,15.9,18.3,13.9l62-12.8l-0.1-25.4l-53.5,10.3l-0.7-26.9
									L116.2,184.7z"/>
							</g>
						</g>
					</g>
					<g>
						<g>
							<g>
								<g>
									<path class="st3" d="M151.7,235.2c0,0,0.3-0.1,0.8-0.2c0.6-0.1,1.4-0.3,2.4-0.5c2.2-0.5,5.3-1.1,9.1-1.9
										c7.9-1.6,19.1-3.9,32.4-6.6l-0.3,0.4c0-8,0-16.9,0-26.2l0.5,0.4c-3.5,0.7-7.2,1.4-10.9,2.1c-15.7,3-30.4,5.8-42.8,8.1
										l-0.5,0.1l0-0.5c0.4-11.8,0.7-21.7,1-28.7c0.1-3.4,0.3-6.1,0.3-8c0-0.9,0.1-1.6,0.1-2.1c0-0.5,0.1-0.7,0.1-0.7
										c0,0,0,0.2,0,0.7c0,0.5,0,1.2,0,2.1c0,1.9-0.1,4.6-0.1,8c-0.2,7-0.4,16.9-0.7,28.7l-0.4-0.4c12.3-2.4,27-5.2,42.8-8.3
										c3.7-0.7,7.4-1.4,10.9-2.1l-0.1-0.1v0.5c0.6,9.4,0.6,18.2,0.9,26.2v0.3l-0.6,0.1c-13.3,2.6-24.5,4.8-32.5,6.3
										c-3.9,0.7-7,1.3-9.2,1.7c-1,0.2-1.8,0.3-2.4,0.4C152,235.2,151.7,235.2,151.7,235.2z"/>
								</g>
							</g>
						</g>
					</g>
					<g>
						<g>
							<g>
								<g>
									<path class="st3" d="M187.4,131.3c0,0,0.1,0.2,0.3,0.6c0.2,0.4,0.3,1,0.5,1.8c0.3,1.5,0.5,3.9-0.3,6.7
										c-0.7,2.8-2.6,5.8-5.4,8.3c-2.8,2.6-6.9,4.3-11.3,4.3c-4.4,0-8.6-1.8-11.2-4.5c-2.7-2.8-3.8-6.2-4.2-9
										c-0.3-2.9,0.2-5.2,0.8-6.7c0.3-0.7,0.6-1.3,0.8-1.6c0.2-0.4,0.3-0.5,0.4-0.5c0.1,0-0.4,0.8-0.8,2.3
										c-0.5,1.5-0.9,3.7-0.5,6.5c0.4,2.7,1.6,5.9,4.1,8.5c2.5,2.6,6.4,4.3,10.6,4.2c4.2,0,8.1-1.6,10.8-4
										c2.8-2.4,4.5-5.3,5.3-7.9c0.8-2.6,0.8-4.9,0.6-6.5C187.6,132.2,187.4,131.4,187.4,131.3z"/>
								</g>
							</g>
						</g>
					</g>
					<g>
						<g>
							<g>
								<g>
									<path class="st6" d="M190.4,227.7c-0.1,0-0.1-1.5,0-3.9c0.1-2.4,0.2-5.8,0.2-9.4c0-3.7-0.1-7-0.1-9.4
										c-0.1-2.4-0.1-3.9,0-3.9c0.1,0,0.4,1.5,0.6,3.9c0.2,2.4,0.4,5.8,0.4,9.5c0,3.7-0.2,7.1-0.5,9.5
										C190.8,226.2,190.6,227.7,190.4,227.7z"/>
								</g>
							</g>
						</g>
					</g>
					<g>
						<g>
							<g>
								<g>
									<path class="st6" d="M187.2,228.3c-0.1,0-0.1-1.5-0.1-3.9c0-2.7,0.1-5.9,0.1-9.4c0-3.5,0-6.6,0-9.4c0-2.4,0-3.9,0.2-3.9
										c0.1,0,0.3,1.5,0.5,3.9c0.2,2.4,0.3,5.7,0.3,9.4c0,3.7-0.2,7-0.4,9.4C187.6,226.9,187.4,228.3,187.2,228.3z"/>
								</g>
							</g>
						</g>
					</g>
				</g>
				<g>
					<g>
						<g>
							<g>
								<g>
									<path class="st3" d="M273.9,252.1c-30.2,3.1-70.2,7.2-70.2,7.2l5.5,49.2c0,0,58.8-15.5,58.4-14.3
										c-0.4,1.3,2.7,104.6,2.7,104.6h35.4l0.7-117C306.6,264.1,291.4,250.3,273.9,252.1z"/>
								</g>
							</g>
						</g>
						<g>
							<g>
								<g>
									<path class="st3" d="M131.6,271.7v15.2c0,11.8,9.6,21.4,21.4,21.4h4.6c7.8,0,19.3-3.8,25.5-8.3l3.1-2.2L223.1,412
										c0,0,42.2-7.6,42.2-8.9c0-1.3-28.6-93.6-41.8-136.4c-5.4-17.5-24.1-27.7-41.4-21.7c-0.6,0.2-1.2,0.4-1.8,0.7
										C161.4,253.2,131.6,271.7,131.6,271.7z"/>
								</g>
							</g>
						</g>
						<g>
							<g>
								<g>
									<g>
										<path class="st4" d="M265,403c0,0-0.1-0.1-0.2-0.4c-0.1-0.3-0.3-0.7-0.5-1.2c-0.4-1.1-1-2.7-1.7-4.7
											c-1.4-4.1-3.4-10.1-5.7-17.6c-4.7-14.9-11-35.5-17.9-58.3c-3.4-11.4-6.7-22.3-9.6-32.2c-1.5-4.9-2.9-9.6-4.2-14.1
											c-0.7-2.2-1.3-4.3-1.9-6.4c-0.6-2-1.2-4-1.9-5.8c-1.4-3.6-3.7-6.3-6-8.4c-2.3-2.1-4.4-3.7-6.2-4.9
											c-1.8-1.2-3.2-2.1-4.2-2.7c-0.5-0.3-0.8-0.5-1.1-0.7c-0.2-0.2-0.4-0.2-0.4-0.3c0,0,0.1,0,0.4,0.2c0.3,0.2,0.7,0.4,1.2,0.6
											c1,0.5,2.5,1.4,4.3,2.6c1.8,1.2,4.1,2.7,6.4,4.8c2.3,2.1,4.7,4.9,6.2,8.6c0.8,1.8,1.4,3.8,2,5.8c0.6,2,1.3,4.2,1.9,6.4
											c1.3,4.4,2.8,9.1,4.3,14c3,9.9,6.3,20.8,9.7,32.2c6.9,22.8,13.1,43.4,17.6,58.4c2.3,7.4,4.1,13.4,5.4,17.7
											c0.6,2,1.1,3.6,1.5,4.8c0.2,0.5,0.3,0.9,0.4,1.3C264.9,402.9,265,403,265,403z"/>
									</g>
								</g>
							</g>
						</g>
						<g>
							<g>
								<g>
									<g>
										<path class="st4" d="M273.9,279.1c0.2,0.2-1.8,3.2-3.5,7.3c-1.7,4.1-2.4,7.6-2.7,7.6c-0.2,0,0.1-3.7,1.9-7.9
											C271.3,281.8,273.7,279,273.9,279.1z"/>
									</g>
								</g>
							</g>
						</g>
						<g>
							<g>
								<g>
									<g>
										<path class="st4" d="M223.2,411.9c-0.2,0.1-10.2-30.5-22.3-68.3c-12.1-37.8-21.6-68.5-21.4-68.6
											c0.2-0.1,10.2,30.5,22.3,68.3C213.8,381.2,223.4,411.9,223.2,411.9z"/>
									</g>
								</g>
							</g>
						</g>
					</g>
				</g>
				<g>
					<g>
						<g>
							<polygon class="st4" points="177.7,233.2 298.1,234.3 320.5,170.9 233.3,171.5 212.8,228.9 177.7,229.4 							"/>
						</g>
					</g>
					<g>
						<path class="st9" d="M269.4,208.5c-2.7-0.4-4.5-2.9-4.2-5.5c0.4-2.7,2.9-4.5,5.5-4.2c2.7,0.4,4.5,2.9,4.2,5.5
							C274.6,207,272.1,208.9,269.4,208.5z"/>
					</g>
				</g>
				<g>
					<g>
						<g>
							<path class="st3" d="M168,61.4c1.1-4.2,4.3-6.3,8.5-7.7c4.2-1.4,9-0.6,12.5,2c2.3,1.8,4.2,4.4,6.9,5.3
								c4.6,1.6,9.9-1.8,14.3,0.2c2.6,1.2,4.1,4.4,3.4,7.1s-3.5,4.9-6.4,4.7c3,1.1,3.9,5.3,2.2,8c-1.7,2.6-5.3,3.7-8.4,3.1
								c-3.1-0.6-5.8-2.5-8.2-4.6c-2.4-2.1-4.5-4.5-7-6.4c-2.5-1.9-5.6-3.4-8.7-3.2c-4.3,0.2-8,3.5-9.9,7.3
								c-1.9,3.8-2.4,8.2-2.6,12.5c-0.2,4.3-0.3,8.6-1.6,12.7c-0.1,0.5-0.4,1-0.9,1.2c-0.7,0.2-1.3-0.5-1.6-1.2
								c-3.9-7.2-6.4-15.2-7.2-23.4c-0.5-4.7-0.4-9.2,2.3-13.2C158.2,61.8,164.8,58.9,168,61.4"/>
						</g>
					</g>
					<g>
						<g>
							<g>
								<g>
									<g>
										<g>
											<g>
												<g>
													<g>
														<g>
															<g>
																<g>
																	<g>
																		<g>
																			<g>
																				<path class="st7" d="M159.7,81.3l-2.2,48.1c-0.4,8.2,0.7,20.3,13.7,20.3l0,0c11.2-0.8,14.6-11.3,14.9-19
																					c0.2-3.6,0.3-6.6,0.3-7c0,0,12.3-0.6,13.7-12.7c0.7-5.8,1.1-18,1.4-28.9c0.3-11.8-8.5-21.8-20.2-23.1l-1.2-0.1
																					C167.6,58.2,160,68.6,159.7,81.3z"/>
																			</g>
																		</g>
																	</g>
																</g>
															</g>
														</g>
													</g>
												</g>
											</g>
											<g>
												<g>
													<g>
														<g>
															<g>
																<g>
																	<g>
																		<g>
																			<g>
																				<path class="st11" d="M186.5,123.4c0,0-7.7-0.2-15.3-6.2c0,0,2.8,9.1,15,9.3L186.5,123.4z"/>
																			</g>
																		</g>
																	</g>
																</g>
															</g>
														</g>
													</g>
												</g>
											</g>
										</g>
									</g>
								</g>
								<g>
									<g>
										<g>
											<g>
												<g>
													<g>
														<g>
															<g>
																<g>
																	<g>
																		<g>
																			<g>
																				<g>
																					<g>
																						<g>
																							<path class="st3" d="M197.3,89.7c-0.1,0.9-0.9,1.6-1.8,1.6c-1-0.1-1.7-0.8-1.6-1.7c0.1-0.9,0.9-1.6,1.8-1.6
																								C196.6,88,197.3,88.8,197.3,89.7z"/>
																						</g>
																					</g>
																				</g>
																			</g>
																		</g>
																	</g>
																</g>
															</g>
														</g>
														<g>
															<g>
																<g>
																	<g>
																		<g>
																			<g>
																				<g>
																					<g>
																						<g>
																							<g>
																								<path class="st3" d="M198.4,87.6c-0.2,0.2-1.4-0.9-3.3-1.1c-1.9-0.2-3.3,0.6-3.5,0.3
																									c-0.1-0.1,0.2-0.5,0.8-0.9c0.6-0.4,1.7-0.7,2.8-0.6c1.2,0.1,2.1,0.7,2.6,1.2
																									C198.4,87.1,198.5,87.6,198.4,87.6z"/>
																							</g>
																						</g>
																					</g>
																				</g>
																			</g>
																		</g>
																	</g>
																</g>
															</g>
														</g>
													</g>
													<g>
														<g>
															<g>
																<g>
																	<g>
																		<g>
																			<g>
																				<g>
																					<g>
																						<g>
																							<path class="st3" d="M179,88.4c-0.1,0.9-0.9,1.6-1.8,1.6c-1-0.1-1.7-0.8-1.6-1.7c0.1-0.9,0.9-1.6,1.8-1.6
																								C178.3,86.7,179,87.5,179,88.4z"/>
																						</g>
																					</g>
																				</g>
																			</g>
																		</g>
																	</g>
																</g>
															</g>
														</g>
														<g>
															<g>
																<g>
																	<g>
																		<g>
																			<g>
																				<g>
																					<g>
																						<g>
																							<g>
																								<path class="st3" d="M180.1,86.1c-0.2,0.2-1.4-0.9-3.3-1.1c-1.9-0.2-3.3,0.6-3.5,0.3
																									c-0.1-0.1,0.2-0.5,0.8-0.9c0.6-0.4,1.7-0.7,2.8-0.6c1.2,0.1,2.1,0.7,2.6,1.2
																									C180.1,85.5,180.2,86,180.1,86.1z"/>
																							</g>
																						</g>
																					</g>
																				</g>
																			</g>
																		</g>
																	</g>
																</g>
															</g>
														</g>
													</g>
													<g>
														<g>
															<g>
																<g>
																	<g>
																		<g>
																			<g>
																				<g>
																					<g>
																						<g>
																							<path class="st3" d="M185.4,100.5c0-0.1,1.2-0.2,3.1-0.2c0.5,0,0.9,0,1.1-0.4c0.1-0.3,0-0.9-0.2-1.4
																								c-0.3-1.2-0.7-2.4-1-3.8c-1.4-5.3-2.4-9.7-2.1-9.8c0.2-0.1,1.5,4.2,2.9,9.6c0.3,1.3,0.7,2.6,1,3.8
																								c0.1,0.6,0.4,1.2,0,1.9c-0.2,0.3-0.5,0.6-0.9,0.6c-0.3,0.1-0.6,0-0.8,0C186.6,100.8,185.4,100.6,185.4,100.5
																								z"/>
																						</g>
																					</g>
																				</g>
																			</g>
																		</g>
																	</g>
																</g>
															</g>
														</g>
													</g>
													<g>
														<g>
															<g>
																<g>
																	<g>
																		<g>
																			<g>
																				<g>
																					<g>
																						<g>
																							<path class="st3" d="M179.8,101.2c0.3,0,0.1,2,1.7,3.6c1.6,1.6,3.7,1.6,3.7,1.9c0,0.1-0.5,0.3-1.4,0.3
																								c-0.9-0.1-2.2-0.5-3.1-1.5c-1-1-1.3-2.2-1.3-3C179.4,101.7,179.6,101.2,179.8,101.2z"/>
																						</g>
																					</g>
																				</g>
																			</g>
																		</g>
																	</g>
																</g>
															</g>
														</g>
													</g>
												</g>
											</g>
										</g>
										<g>
											<g>
												<g>
													<g>
														<g>
															<g>
																<g>
																	<g>
																		<g>
																			<path class="st3" d="M181.4,78.8c-0.2,0.5-2.1,0-4.3,0.1c-2.2,0-4,0.4-4.3,0c-0.1-0.2,0.3-0.7,1-1.1
																				c0.8-0.4,1.9-0.8,3.3-0.8c1.3,0,2.5,0.3,3.3,0.7C181.1,78.2,181.5,78.6,181.4,78.8z"/>
																		</g>
																	</g>
																</g>
															</g>
														</g>
													</g>
												</g>
											</g>
										</g>
										<g>
											<g>
												<g>
													<g>
														<g>
															<g>
																<g>
																	<g>
																		<g>
																			<path class="st3" d="M198.3,82.2c-0.4,0.4-1.6-0.2-3.1-0.4c-1.5-0.2-2.9,0-3.1-0.5c-0.1-0.2,0.1-0.6,0.8-1
																				c0.6-0.3,1.6-0.6,2.6-0.4c1.1,0.1,1.9,0.6,2.4,1.1C198.3,81.6,198.5,82,198.3,82.2z"/>
																		</g>
																	</g>
																</g>
															</g>
														</g>
													</g>
												</g>
											</g>
										</g>
									</g>
								</g>
							</g>
						</g>
					</g>
					<g>
						<g>
							<g>
								<g>
									<g>
										<g>
											<g>
												<g>
													<g>
														<g>
															<path class="st7" d="M159.8,90.3c-0.2-0.1-8-3.3-8.7,5c-0.6,8.3,7.8,7.2,7.9,7C159,102,159.8,90.3,159.8,90.3z"/>
														</g>
													</g>
												</g>
											</g>
										</g>
									</g>
								</g>
							</g>
						</g>
						<g>
							<g>
								<g>
									<g>
										<g>
											<g>
												<g>
													<g>
														<g>
															<g>
																<path class="st11" d="M156.7,98.9c0,0-0.2,0.1-0.4,0.2c-0.2,0.1-0.7,0.1-1.1-0.1c-0.9-0.4-1.5-1.8-1.4-3.3
																	c0-0.8,0.2-1.5,0.6-2c0.3-0.6,0.7-1,1.2-1c0.4-0.1,0.7,0.2,0.8,0.5c0.1,0.2,0,0.4,0.1,0.4c0,0,0.2-0.1,0.1-0.5
																	c0-0.2-0.1-0.4-0.3-0.5c-0.2-0.2-0.5-0.3-0.8-0.3c-0.6,0-1.3,0.5-1.6,1.2c-0.4,0.6-0.6,1.4-0.7,2.3
																	c-0.1,1.7,0.7,3.3,1.8,3.7c0.6,0.2,1.1,0.1,1.3-0.1C156.7,99.1,156.7,98.9,156.7,98.9z"/>
															</g>
														</g>
													</g>
												</g>
											</g>
										</g>
									</g>
								</g>
							</g>
						</g>
					</g>
					<g>
						<g>
							<path class="st3" d="M204.5,79.8c-5.5,0.9-11.3-1.1-15.1-5.1c-2.7-2.8-4.6-6.6-8.1-8.2c-2.4-1-5.2-0.8-7.6,0.2
								c-2.4,1-4.4,2.7-6.2,4.6c1.7,6.4-0.6,13.1-2.9,19.3c-0.3,0.7-0.5,1.4-1.2,1.8c-1.1,0.6-2.5-0.1-3.2-1.1
								c-1.2-1.6-1.5-3.6-1.7-5.6c-0.3-4.5,0.1-9.1,1.5-13.4c1.5-4.3,4-8.2,7.6-11c4.5-3.5,10.4-4.9,16-4.2c5.6,0.7,10.9,3.4,15,7.2
								c1.9,1.8,3.6,3.9,4.5,6.4"/>
						</g>
					</g>
				</g>
			</g>
			<g>
				<g>
					<polygon class="st3" points="368.2,117.9 345.6,212.7 351.9,212.7 374.2,117.9 					"/>
				</g>
			</g>
			<g>
				<g>
					<rect x="316" y="225.5" class="st12" width="39.3" height="7.7"/>
				</g>
			</g>
			<g>
				<g>
					<polygon class="st3" points="14.6,234.2 14.6,245.1 77.8,245.1 77.8,414.2 83.8,414.2 83.8,245.1 346.7,246.4 346.7,415 
						352.7,415 352.7,246.8 392.8,247.2 392.8,233.2 					"/>
				</g>
				<g>
					<polygon class="st3" points="55.4,243.2 80.2,261 78,263.1 53,244.3 					"/>
				</g>
				<g>
					<polygon class="st3" points="375.5,244.9 346.7,265.3 348.9,267.4 377.8,245.9 					"/>
				</g>
				<g>
					<rect x="106.8" y="229.8" class="st3" width="64.9" height="5.1"/>
				</g>
			</g>
			<g>
				<g>
					<g>
						<g>
							<path class="st5" d="M58,316.5c2.6,3.7,7.6,2.5,10,0.2c2.3-2.3,3.3-5.5,4.2-8.6c2.1-7.1,4.1-14.6,2.6-21.9
								c-0.5-2.2-1.3-4.3-2.8-5.9c-1.5-1.6-3.9-2.6-6-2c-2.5,0.7-4.1,3.2-5.3,5.5c-3.4,6.9-5.1,14.7-5.2,22.4
								C55.6,309.7,56,313.5,58,316.5"/>
						</g>
					</g>
				</g>
			</g>
		</g>
	</g>
</g>
</svg>
