<?xml version="1.0" encoding="utf-8"?>
<!-- Generator: Adobe Illustrator 22.0.1, SVG Export Plug-In . SVG Version: 6.00 Build 0)  -->
<svg version="1.1" id="Capa_1" xmlns="http://www.w3.org/2000/svg" xmlns:xlink="http://www.w3.org/1999/xlink" x="0px" y="0px"
	 viewBox="0 0 900 1080" style="enable-background:new 0 0 900 1080;" xml:space="preserve">
<style type="text/css">
	.st0{clip-path:url(#SVGID_2_);fill-rule:evenodd;clip-rule:evenodd;fill:#8AA1FE;}
	.st1{clip-path:url(#SVGID_2_);}
	.st2{fill-rule:evenodd;clip-rule:evenodd;fill:#FFFFFF;}
	.st3{opacity:0.41;clip-path:url(#SVGID_2_);fill:url(#SVGID_3_);}
	.st4{fill:#1A2E35;}
	.st5{fill:#455A64;}
	.st6{fill:#E8505B;}
	.st7{fill:#FAFAFA;}
	.st8{fill:#FFBF9D;}
	.st9{opacity:0.6;}
	.st10{fill:#FFFFFF;}
	.st11{opacity:0.3;}
	.st12{fill:#FF9A6C;}
	.st13{fill:#E0E0E0;}
</style>
<g>
	<defs>
		<rect id="SVGID_1_" transform="matrix(-1 -1.224647e-16 1.224647e-16 -1 900 1080)" width="900" height="1080"/>
	</defs>
	<clipPath id="SVGID_2_">
		<use xlink:href="#SVGID_1_"  style="overflow:visible;"/>
	</clipPath>
	<rect x="-137.8" y="-71.2" class="st0" width="1166.6" height="1166.6"/>
	<g class="st1">
		<path class="st2" d="M166.3,824.9c-72.8,0-132.3-59.5-132.3-132.3l0,0c0-72.8,59.5-132.3,132.3-132.3l0,0
			c30.8,0,55.9-25.2,55.9-55.9l0,0c0-30.8-25.2-56-55.9-56h-6.7c-32,0-58.2-26.2-58.2-58.2l0,0c0-32,26.2-58.2,58.2-58.2H180
			c12.5,0,22.6-10.2,22.6-22.6l0,0c0-12.5-10.2-22.6-22.6-22.6h-15c-8.6,0-15.6-7-15.6-15.6l0,0c0-8.6,7-15.6,15.6-15.6h100.9
			c13.5,0,24.6-11.1,24.6-24.6l0,0c0-13.5-11.1-24.6-24.6-24.6h-30.2c-8.6,0-15.6-7-15.6-15.6v0c0-8.6,7-15.6,15.6-15.6h429.4
			c11.2,0,20.4,9.2,20.4,20.4v0c0,11.2-9.2,20.4-20.4,20.4h-31.5c-17.6,0-32,14.4-32,32v0c0,17.6,14.4,32,32,32h132.7
			c11.2,0,20.4,9.2,20.4,20.4l0,0c0,11.2-9.2,20.4-20.4,20.4h-19.6c-16.3,0-29.6,13.3-29.6,29.6l0,0c0,16.3,13.3,29.6,29.6,29.6
			h26.7c41.7,0,75.9,34.2,75.9,75.9l0,0c0,41.7-34.2,75.9-75.9,75.9h-8.7c-40.2,0-73,32.9-73,73l0,0c0,40.2,32.9,73,73,73h18.8
			c40.5,0,73.6,33.1,73.6,73.6l0,0c0,40.5-33.1,73.6-73.6,73.6C574.1,824.9,375.7,824.9,166.3,824.9L166.3,824.9z M717.4,215.9
			c11.3,0,20.4-9.1,20.4-20.4c0-11.3-9.1-20.4-20.4-20.4c-11.3,0-20.4,9.1-20.4,20.4C697,206.7,706.1,215.9,717.4,215.9L717.4,215.9
			z M121.2,286.7c8.6,0,15.6-7,15.6-15.6c0-8.6-7-15.6-15.6-15.6c-8.6,0-15.6,7-15.6,15.6C105.5,279.7,112.5,286.7,121.2,286.7z"/>
	</g>
	<g class="st1">
		<g>
			<g>
				<g>
					<g>
						<g>
							<g>
								<path class="st5" d="M202.5,617.5l82.7,279.1c3.7,12.4,15.1,20.9,28,20.9l335.4,0.9c17.8,0,32-14.9,31.1-32.7l0,0
									c-0.9-16.5-14.5-29.4-31-29.4H520.4L417.7,570.1H237.9C213.2,570.1,195.5,593.8,202.5,617.5z"/>
							</g>
						</g>
					</g>
					<g>
						<g>
							<g>
								<g>
									<path class="st4" d="M486.3,879.3c0,0.7-34.2,1.2-76.4,1.2c-42.2,0-76.4-0.5-76.4-1.2c0-0.7,34.2-1.2,76.4-1.2
										C452.1,878.1,486.3,878.6,486.3,879.3z"/>
								</g>
							</g>
						</g>
					</g>
					<g>
						<g>
							<g>
								<g>
									<path class="st4" d="M227.2,579c0.6-0.2,23.5,66.6,51,149.2c27.6,82.6,49.4,149.8,48.8,150c-0.6,0.2-23.5-66.6-51-149.2
										C248.4,646.3,226.6,579.2,227.2,579z"/>
								</g>
							</g>
						</g>
					</g>
				</g>
				<g>
					<polygon class="st5" points="472.3,1165.4 451.9,1164.9 451.9,917.4 472.3,917.4 					"/>
				</g>
			</g>
			<g>
				<g>
					<g>
						<g>
							<g>
								<g>
									<g>
										<g>
											<path class="st6" d="M318.9,506.1l31.5,157.3l-5.6,117.9l211.6-35.2l-8.3-103.2l-0.2-85.4L599.8,658l40.4-78l-74-134l0,0
												c-13.6-14.1-29.4-24.5-48.4-31.3c-9.2-3.3-19-5.3-30.3-5.8v0c-24.4,7.5-48.8,7.6-73.3,0c-3,0.4-7.1,0.8-12.3,1.4
												c-0.3,0-0.6,0.1-1,0.1c-44.9,5.5-79.2,42.8-81.7,88L318.9,506.1z"/>
										</g>
									</g>
								</g>
							</g>
						</g>
						<g>
							<g>
								<g>
									<path class="st6" d="M401.9,410.3c0,0-87,0.7-97.7,92.5l-1.5,67.3l74.9-0.6L401.9,410.3z"/>
								</g>
							</g>
						</g>
					</g>
				</g>
				<g>
					<g>
						<g>
							<g>
								<path class="st7" d="M609.7,528.4c0,0.7-68.4,1.2-152.8,1.2c-84.4,0-152.8-0.5-152.8-1.2s68.4-1.2,152.8-1.2
									C541.2,527.2,609.7,527.8,609.7,528.4z"/>
							</g>
						</g>
					</g>
				</g>
				<g>
					<g>
						<g>
							<g>
								<path class="st7" d="M609.7,543c0,0.7-68.4,1.2-152.8,1.2c-84.4,0-152.8-0.5-152.8-1.2c0-0.7,68.4-1.2,152.8-1.2
									C541.2,541.8,609.7,542.3,609.7,543z"/>
							</g>
						</g>
					</g>
				</g>
				<g>
					<g>
						<g>
							<g>
								<path class="st7" d="M604.8,516.3c0,0.7-67.3,1.2-150.4,1.2c-83.1,0-150.4-0.5-150.4-1.2c0-0.7,67.3-1.2,150.4-1.2
									C537.4,515.2,604.8,515.7,604.8,516.3z"/>
							</g>
						</g>
					</g>
				</g>
				<g>
					<g>
						<g>
							<g>
								<path class="st4" d="M546.8,658c-0.7,0-0.4-37.2,0.6-83.1c1-45.9,2.4-83.1,3-83.1c0.7,0,0.4,37.2-0.6,83.1
									C548.8,620.9,547.4,658.1,546.8,658z"/>
							</g>
						</g>
					</g>
				</g>
				<g>
					<g>
						<g>
							<path class="st8" d="M517,597.7c0,0,41.1,2.9,48.5,13.8c7.4,10.9,18.7,41.9,14.4,42.1c-4.3,0.2-7.4-2.3-7.4-2.3l-11.3-20
								c0,0,1.8,19.3-4.9,19.7c-6.7,0.4-40.1,7.1-40.1,7.1L517,597.7z"/>
						</g>
					</g>
				</g>
				<g>
					<g>
						<g>
							<path class="st6" d="M302.7,552.2l-0.2,106c1.3,24.8,24.6,42.5,48.8,37.2l165.9-34.2l-0.4-68l-143.1,27.5l-1.9-72
								L302.7,552.2z"/>
						</g>
					</g>
				</g>
				<g>
					<g>
						<g>
							<g>
								<path class="st4" d="M397.4,686.9c0-0.1,0.7-0.3,2.2-0.6c1.6-0.4,3.8-0.8,6.4-1.4c5.8-1.2,14-3,24.4-5.2
									c21.2-4.3,51-10.4,86.3-17.6l-0.8,1c0-21.4-0.1-44.9-0.1-69.8l1.4,1.1c-9.3,1.8-19.2,3.7-29.2,5.6
									c-41.9,8-81.1,15.4-114,21.7l-1.2,0.2l0-1.2c1.1-31.6,2-57.9,2.6-76.5c0.4-9.1,0.7-16.2,0.9-21.4c0.1-2.3,0.2-4.2,0.3-5.6
									c0.1-1.3,0.2-1.9,0.2-1.9c0.1,0,0.1,0.7,0.1,1.9c0,1.4,0,3.3,0,5.6c-0.1,5.1-0.2,12.3-0.3,21.4c-0.4,18.6-1,44.9-1.8,76.5
									l-1.2-1c32.9-6.4,72-13.9,113.9-22c10-1.9,19.8-3.8,29.2-5.6l1.4-0.3l0,1.4c0,24.9-0.1,48.5-0.1,69.8l0,0.9l-0.8,0.2
									c-35.4,6.9-65.3,12.7-86.5,16.8c-10.4,1.9-18.6,3.5-24.5,4.6c-2.7,0.5-4.9,0.8-6.5,1.1C398.1,686.9,397.4,687,397.4,686.9z"
									/>
							</g>
						</g>
					</g>
				</g>
				<g>
					<g>
						<g>
							<g>
								<path class="st4" d="M492.5,410.3c0.1,0,0.3,0.5,0.7,1.6c0.4,1,0.8,2.6,1.3,4.7c0.8,4.1,1.3,10.5-0.8,17.8
									c-2,7.4-6.8,15.5-14.4,22.2c-7.4,6.8-18.4,11.5-30.2,11.4c-11.7,0.1-22.8-4.7-29.8-12.1c-7.1-7.4-10.2-16.5-11.1-24
									c-0.8-7.6,0.5-13.8,2.1-17.7c0.8-2,1.5-3.4,2.1-4.4c0.6-1,0.9-1.4,1-1.4c0.2,0.1-1,2.1-2.2,6.1c-1.3,3.9-2.3,9.9-1.3,17.2
									c1.1,7.2,4.2,15.8,11,22.7c6.7,6.9,17.1,11.4,28.3,11.3c11.2,0.1,21.6-4.2,28.7-10.7c7.4-6.4,12.1-14,14.2-21.1
									c2.2-7,2-13.2,1.5-17.2C493,412.5,492.3,410.3,492.5,410.3z"/>
							</g>
						</g>
					</g>
				</g>
				<g>
					<g>
						<g>
							<g>
								<path class="st7" d="M500.5,666.9c-0.3,0-0.2-4,0-10.5c0.2-6.4,0.6-15.3,0.6-25.1c0.1-9.8-0.2-18.7-0.3-25.1
									c-0.2-6.4-0.2-10.4,0.1-10.5c0.3,0,1,3.9,1.6,10.4c0.6,6.4,1.1,15.4,1,25.3c-0.1,9.9-0.6,18.8-1.3,25.2
									C501.5,663,500.8,666.9,500.5,666.9z"/>
							</g>
						</g>
					</g>
				</g>
				<g>
					<g>
						<g>
							<g>
								<path class="st7" d="M491.9,668.6c-0.3,0-0.4-4-0.3-10.4c0.1-7.3,0.2-15.7,0.3-25c0-9.3,0-17.7,0-25
									c0-6.4,0.1-10.4,0.4-10.4c0.3,0,0.8,3.9,1.3,10.3c0.4,6.4,0.8,15.3,0.7,25.1c-0.1,9.8-0.5,18.6-1,25
									C492.8,664.7,492.3,668.6,491.9,668.6z"/>
							</g>
						</g>
					</g>
				</g>
			</g>
			<g>
				<g>
					<g>
						<path class="st6" d="M790.4,1067.4l-2.7,70.2c0,0,70.4,26.3,71.2,39.3l-136.2-0.4l-0.3-109.5L790.4,1067.4z"/>
					</g>
				</g>
			</g>
			<g>
				<g>
					<g>
						<g>
							<g>
								<path class="st4" d="M722.5,731.1c-80.5,8.3-187.1,19.3-187.1,19.3l14.6,131c0,0,156.7-41.4,155.6-38.1
									c-1.1,3.4,7.3,278.7,7.3,278.7h94.4l1.8-311.8C809.5,763.2,769.1,726.2,722.5,731.1z"/>
							</g>
						</g>
					</g>
					<g>
						<g>
							<g>
								<path class="st4" d="M342.8,783.9v40.6c0,27.6,31.5,57,59.1,57h21.4c16.8,0,43.2-12.3,56.8-22.2l8.2-6l98.3,304.5
									c0,0,112.5-20.2,112.5-23.7c0-3.5-76.2-249.4-111.3-363.5c-14.4-46.6-64.3-73.7-110.4-57.9c-1.6,0.5-3.1,1.1-4.7,1.8
									C422.2,734.6,342.8,783.9,342.8,783.9z"/>
							</g>
						</g>
					</g>
					<g>
						<g>
							<g>
								<g>
									<path class="st5" d="M699,1134.1c0,0-0.2-0.4-0.5-1.1c-0.3-0.9-0.7-1.9-1.2-3.3c-1.1-2.9-2.6-7.1-4.5-12.6
										c-3.8-11-8.9-27-15.2-46.9c-12.5-39.7-29.3-94.6-47.6-155.4c-9.1-30.4-17.8-59.4-25.7-85.7c-3.9-13.2-7.6-25.7-11.1-37.4
										c-1.7-5.9-3.4-11.5-5.1-17c-1.6-5.4-3.1-10.7-5.1-15.4c-3.8-9.6-9.9-16.9-15.9-22.5c-6-5.6-11.8-9.7-16.6-12.9
										c-4.8-3.2-8.7-5.6-11.3-7.2c-1.2-0.8-2.2-1.4-3-1.8c-0.7-0.4-1-0.7-1-0.7c0,0,0.4,0.1,1.1,0.5c0.8,0.4,1.8,1,3.1,1.6
										c2.7,1.5,6.6,3.7,11.5,6.8c4.9,3.1,10.8,7.2,17,12.7c6.1,5.6,12.5,13,16.5,22.8c2.1,4.8,3.7,10.1,5.3,15.5
										c1.7,5.4,3.4,11.1,5.2,16.9c3.6,11.7,7.3,24.2,11.3,37.4c7.9,26.4,16.7,55.3,25.8,85.7c18.3,60.7,34.9,115.6,47,155.6
										c6.1,19.7,11,35.8,14.5,47.1c1.7,5.4,3.1,9.7,4,12.8c0.4,1.4,0.7,2.5,1,3.3C699,1133.7,699.1,1134.1,699,1134.1z"/>
								</g>
							</g>
						</g>
					</g>
					<g>
						<g>
							<g>
								<g>
									<path class="st5" d="M722.7,804c0.6,0.4-4.8,8.4-9.2,19.3c-4.6,10.9-6.5,20.3-7.2,20.2c-0.6-0.1,0.3-9.9,5-21.1
										C715.9,811.2,722.3,803.6,722.7,804z"/>
								</g>
							</g>
						</g>
					</g>
					<g>
						<g>
							<g>
								<g>
									<path class="st5" d="M740.8,816.6c0.3,0.7-7.8,4.2-16.3,10.9c-8.5,6.6-13.9,13.7-14.5,13.2c-0.5-0.3,4.2-8.2,13-15.1
										C731.8,818.7,740.6,816,740.8,816.6z"/>
								</g>
							</g>
						</g>
					</g>
					<g>
						<g>
							<g>
								<g>
									<path class="st5" d="M587.6,1157.8c-0.6,0.2-27.2-81.3-59.3-182c-32.1-100.7-57.7-182.5-57-182.7
										c0.6-0.2,27.2,81.3,59.3,182C562.7,1075.8,588.3,1157.6,587.6,1157.8z"/>
								</g>
							</g>
						</g>
					</g>
				</g>
			</g>
			<g>
				<g>
					<g>
						<polygon class="st5" points="467,682.8 788.7,685.9 848.7,516.3 614.7,517.9 560.4,670.4 467,671.8 						"/>
					</g>
				</g>
				<g>
					<path class="st10" d="M710.9,615.7c-7.1-1-12.1-7.6-11.1-14.7c1-7.1,7.6-12.1,14.7-11.1c7.1,1,12.1,7.6,11.1,14.7
						C724.6,611.8,718,616.7,710.9,615.7z"/>
				</g>
			</g>
			<g>
				<g>
					<g>
						<path class="st4" d="M440.8,223.9c3-11.3,11.5-16.8,22.6-20.6c11.1-3.8,23.9-1.7,33.2,5.4c6.2,4.7,11.1,11.6,18.5,14.2
							c12.2,4.2,26.4-4.9,38,0.6c6.9,3.2,10.9,11.6,9.1,19c-1.8,7.4-9.3,12.9-16.9,12.6c7.9,2.9,10.4,14.2,5.8,21.3
							c-4.6,7.1-14.2,9.7-22.5,8.2c-8.3-1.5-15.5-6.6-21.8-12.2c-6.3-5.6-11.9-12-18.6-17.2c-6.7-5.1-14.8-9-23.3-8.6
							c-11.4,0.6-21.2,9.2-26.3,19.5c-5.1,10.2-6.3,21.9-6.9,33.3c-0.6,11.4-0.8,23-4.2,33.9c-0.4,1.3-1,2.7-2.3,3.1
							c-1.9,0.6-3.4-1.4-4.3-3.1c-10.4-19.3-16.9-40.6-19.2-62.4c-1.3-12.6-1-24.6,6-35.3C414.6,225,432.1,217.1,440.8,223.9"/>
					</g>
				</g>
				<g>
					<g>
						<g>
							<g>
								<g>
									<g>
										<g>
											<g>
												<g>
													<g>
														<g>
															<g>
																<g>
																	<g>
																		<g>
																			<path class="st8" d="M418.7,276.8l-5.8,128c-1,21.8,2,54,36.5,54l0,0c29.9-2.3,38.8-30.2,39.7-50.5
																				c0.4-9.6,0.8-17.7,0.9-18.7c0,0,32.7-1.6,36.6-33.7c1.8-15.5,3-47.9,3.8-77.1c0.8-31.4-22.7-58.2-53.9-61.5
																				l-3.1-0.3C439.6,215.4,419.4,243.1,418.7,276.8z"/>
																		</g>
																	</g>
																</g>
															</g>
														</g>
													</g>
												</g>
											</g>
										</g>
										<g>
											<g>
												<g>
													<g>
														<g>
															<g>
																<g>
																	<g>
																		<g>
																			<path class="st12" d="M490.1,389.2c0,0-20.5-0.5-40.7-16.4c0,0,7.5,24.2,39.9,24.7L490.1,389.2z"/>
																		</g>
																	</g>
																</g>
															</g>
														</g>
													</g>
												</g>
											</g>
										</g>
									</g>
								</g>
							</g>
							<g>
								<g>
									<g>
										<g>
											<g>
												<g>
													<g>
														<g>
															<g>
																<g>
																	<g>
																		<g>
																			<g>
																				<g>
																					<g>
																						<path class="st4" d="M518.6,299.3c-0.2,2.4-2.4,4.3-4.9,4.2c-2.5-0.1-4.5-2.2-4.3-4.7
																							c0.2-2.4,2.4-4.3,4.9-4.2C516.9,294.8,518.8,296.9,518.6,299.3z"/>
																					</g>
																				</g>
																			</g>
																		</g>
																	</g>
																</g>
															</g>
														</g>
													</g>
													<g>
														<g>
															<g>
																<g>
																	<g>
																		<g>
																			<g>
																				<g>
																					<g>
																						<g>
																							<path class="st4" d="M521.7,293.8c-0.6,0.5-3.8-2.4-8.8-2.9c-4.9-0.6-8.8,1.6-9.3,0.9
																								c-0.2-0.3,0.5-1.3,2.2-2.3c1.7-1,4.5-1.8,7.5-1.5c3.1,0.3,5.6,1.8,6.9,3.1
																								C521.6,292.5,522,293.6,521.7,293.8z"/>
																						</g>
																					</g>
																				</g>
																			</g>
																		</g>
																	</g>
																</g>
															</g>
														</g>
													</g>
												</g>
												<g>
													<g>
														<g>
															<g>
																<g>
																	<g>
																		<g>
																			<g>
																				<g>
																					<g>
																						<path class="st4" d="M469.9,295.9c-0.2,2.4-2.4,4.3-4.9,4.2c-2.5-0.1-4.5-2.2-4.3-4.7
																							c0.2-2.4,2.4-4.3,4.9-4.2C468.2,291.3,470.1,293.4,469.9,295.9z"/>
																					</g>
																				</g>
																			</g>
																		</g>
																	</g>
																</g>
															</g>
														</g>
													</g>
													<g>
														<g>
															<g>
																<g>
																	<g>
																		<g>
																			<g>
																				<g>
																					<g>
																						<g>
																							<path class="st4" d="M473,289.6c-0.6,0.5-3.8-2.4-8.8-2.9c-4.9-0.6-8.8,1.6-9.3,0.9
																								c-0.2-0.3,0.5-1.3,2.2-2.3c1.7-1,4.5-1.8,7.5-1.5c3.1,0.3,5.6,1.8,6.9,3.1
																								C472.9,288.2,473.3,289.4,473,289.6z"/>
																						</g>
																					</g>
																				</g>
																			</g>
																		</g>
																	</g>
																</g>
															</g>
														</g>
													</g>
												</g>
												<g>
													<g>
														<g>
															<g>
																<g>
																	<g>
																		<g>
																			<g>
																				<g>
																					<g>
																						<path class="st4" d="M487,328.2c0-0.3,3.1-0.5,8.2-0.6c1.3,0,2.5-0.1,2.8-1c0.4-0.9,0-2.3-0.4-3.8
																							c-0.9-3.2-1.8-6.5-2.7-10c-3.7-14.2-6.3-25.9-5.7-26.1c0.6-0.1,4.1,11.3,7.8,25.5c0.9,3.5,1.7,6.9,2.5,10.1
																							c0.3,1.5,1,3.2,0.1,5c-0.4,0.9-1.4,1.5-2.3,1.6c-0.8,0.2-1.5,0.1-2.2,0.1C490.1,328.8,487,328.5,487,328.2z"
																							/>
																					</g>
																				</g>
																			</g>
																		</g>
																	</g>
																</g>
															</g>
														</g>
													</g>
												</g>
												<g>
													<g>
														<g>
															<g>
																<g>
																	<g>
																		<g>
																			<g>
																				<g>
																					<g>
																						<path class="st4" d="M472.1,330.1c0.8,0,0.2,5.4,4.4,9.7c4.2,4.3,10,4.3,9.9,5.1c0,0.3-1.4,0.9-3.8,0.7
																							c-2.4-0.2-5.8-1.3-8.3-3.9c-2.6-2.6-3.4-5.9-3.4-8.1C471,331.3,471.7,330,472.1,330.1z"/>
																					</g>
																				</g>
																			</g>
																		</g>
																	</g>
																</g>
															</g>
														</g>
													</g>
												</g>
											</g>
										</g>
									</g>
									<g>
										<g>
											<g>
												<g>
													<g>
														<g>
															<g>
																<g>
																	<g>
																		<path class="st4" d="M476.3,270.3c-0.6,1.3-5.5,0.1-11.4,0.2c-5.9,0-10.7,1.2-11.4-0.1c-0.3-0.6,0.7-1.8,2.7-2.9
																			c2-1.1,5.1-2,8.7-2c3.5,0,6.7,0.9,8.7,2C475.6,268.5,476.6,269.7,476.3,270.3z"/>
																	</g>
																</g>
															</g>
														</g>
													</g>
												</g>
											</g>
										</g>
									</g>
									<g>
										<g>
											<g>
												<g>
													<g>
														<g>
															<g>
																<g>
																	<g>
																		<path class="st4" d="M521.4,279.3c-1,1-4.3-0.5-8.4-1c-4.1-0.6-7.6-0.1-8.3-1.3c-0.3-0.6,0.4-1.7,2-2.6
																			c1.6-0.9,4.2-1.5,7-1.1c2.8,0.4,5.1,1.7,6.4,3C521.5,277.6,521.9,278.8,521.4,279.3z"/>
																	</g>
																</g>
															</g>
														</g>
													</g>
												</g>
											</g>
										</g>
									</g>
								</g>
							</g>
						</g>
					</g>
				</g>
				<g>
					<g>
						<g>
							<g>
								<g>
									<g>
										<g>
											<g>
												<g>
													<g>
														<path class="st8" d="M418.8,300.9c-0.5-0.3-21.4-8.9-23.1,13.2c-1.6,22.1,20.9,19.2,21,18.5
															C416.8,332,418.8,300.9,418.8,300.9z"/>
													</g>
												</g>
											</g>
										</g>
									</g>
								</g>
							</g>
						</g>
					</g>
					<g>
						<g>
							<g>
								<g>
									<g>
										<g>
											<g>
												<g>
													<g>
														<g>
															<path class="st12" d="M410.6,323.8c-0.1-0.1-0.4,0.2-1.1,0.5c-0.7,0.2-1.8,0.4-2.9-0.2c-2.3-1-4-4.9-3.8-8.9
																c0.1-2,0.7-3.9,1.5-5.4c0.8-1.6,1.9-2.6,3.1-2.7c1.2-0.2,2,0.6,2.2,1.2c0.3,0.6,0.1,1.1,0.2,1.1
																c0.1,0.1,0.5-0.3,0.4-1.3c-0.1-0.4-0.3-1-0.8-1.4c-0.5-0.5-1.3-0.7-2.1-0.7c-1.7,0-3.4,1.4-4.3,3.1
																c-1,1.7-1.7,3.8-1.8,6.1c-0.2,4.5,1.8,8.8,4.9,10c1.5,0.5,2.9,0.1,3.6-0.3C410.5,324.3,410.6,323.9,410.6,323.8z"/>
														</g>
													</g>
												</g>
											</g>
										</g>
									</g>
								</g>
							</g>
						</g>
					</g>
				</g>
				<g>
					<g>
						<path class="st4" d="M537.8,272.8c-14.6,2.3-30.1-3-40.3-13.7c-7.1-7.5-12.2-17.7-21.6-21.7c-6.4-2.7-13.9-2.1-20.3,0.6
							c-6.4,2.7-11.9,7.3-16.6,12.3c4.5,17-1.6,34.8-7.7,51.4c-0.7,1.8-1.4,3.8-3.1,4.8c-2.8,1.7-6.5-0.3-8.6-2.9
							c-3.2-4.2-4.1-9.7-4.4-15c-0.9-12,0.1-24.3,4-35.7c3.9-11.4,10.7-22,20.3-29.3c11.9-9.2,27.7-12.9,42.6-11.1s29,9,40,19.3
							c5.1,4.8,9.7,10.4,11.9,17"/>
					</g>
				</g>
			</g>
		</g>
		<g>
			<g>
				<rect x="834" y="661.2" class="st13" width="105.1" height="20"/>
			</g>
		</g>
		<g>
			<g>
				<polygon class="st4" points="33.4,683.8 33.4,714.1 201,714.1 201,1164.9 216.4,1164.9 216.4,714.1 916.1,717.6 916.1,1164.9 
					931.2,1164.9 931.2,716.7 1039.1,717.6 1039.1,681.2 				"/>
			</g>
			<g>
				<polygon class="st4" points="140.6,708.2 206.7,755.8 201,761.3 134.4,711.1 				"/>
			</g>
			<g>
				<rect x="277.1" y="672.7" class="st4" width="173.2" height="12.7"/>
			</g>
		</g>
		<g>
			<g>
				<g>
					<g>
						<path class="st6" d="M173.6,953.3c11.3-5.8,24.6-6.6,37.1-4.5c6.7,1.1,13.7,3.1,18.3,8.2c4.6,5.1,5.4,13.9,0.2,18.3
							c-3.1,2.6-7.5,3-11.6,2.9c-9.8-0.1-20.7-1.8-28.5,4.1c-4.5,3.4-7.4,9-12.8,10.6c-5.2,1.6-11.1-1.5-13.9-6.2
							c-2.8-4.7-2.9-10.6-1.6-15.9C160.9,970.8,162.2,959.2,173.6,953.3z"/>
					</g>
				</g>
				<g>
					<g>
						<path class="st6" d="M147.7,903.4c6.9,9.9,20.3,6.6,26.5,0.6c6.2-6,8.8-14.7,11.2-23c5.5-19,11-38.9,6.9-58.3
							c-1.2-5.8-3.4-11.5-7.4-15.8c-4.1-4.3-10.3-6.8-16-5.3c-6.8,1.8-11,8.4-14,14.7c-8.9,18.5-13.7,39-13.7,59.6
							C141.2,885.4,142.3,895.5,147.7,903.4"/>
					</g>
				</g>
				<g>
					<g>
						<path class="st6" d="M128.8,917.6c7.5-8.9,8.9-21.9,5.6-33c-3.3-11.1-10.9-20.6-19.5-28.3c-10.2-9.1-22.1-16.1-35-20.6
							c-5.1-1.8-10.4-3.2-15.7-2.7c-5.3,0.5-10.7,3.2-13.2,8c-3.7,7-0.2,15.5,3.7,22.5c6.7,12.2,14.4,24,23,35
							c6.9,8.9,14.8,17.6,25.3,21.7c10.5,4,21.4,3.5,27-3.7"/>
					</g>
				</g>
				<g>
					<g>
						<g>
							<path class="st4" d="M147.3,1052.1c0.1,0,0.3-1.6,0.6-4.5c0.3-3.3,0.7-7.4,1.2-12.2c0.6-5.1,1.3-11.3,2.7-17.9
								c1.4-6.6,3.7-13.8,6.5-21.2c3-7.3,6.6-13.9,10.8-19.1c4.2-5.3,9.1-9.1,13.7-11.4c4.6-2.3,8.7-3.2,11.5-3.6
								c2.9-0.3,4.5-0.5,4.5-0.6c0-0.1-1.6-0.1-4.5-0.1c-2.9,0.2-7.2,0.9-12,3.1c-4.8,2.1-10,6-14.4,11.5
								c-4.4,5.4-8.2,12.1-11.2,19.5c-2.9,7.4-5.1,14.7-6.5,21.5c-1.4,6.8-2,13-2.4,18.1c-0.4,5.2-0.5,9.4-0.6,12.3
								C147.1,1050.4,147.2,1052.1,147.3,1052.1z"/>
						</g>
					</g>
				</g>
				<g>
					<g>
						<g>
							<path class="st4" d="M148.1,1042.7c0.1,0,0.1-0.7,0.1-2.1c0-1.6,0-3.5,0-5.9c0-5.2,0-12.6,0.3-21.8c0.5-18.4,2-38.3,5.1-66.2
								c2.9-26.3,6.8-56.9,10.9-76.8c0.9-4.5,1.8-8.6,2.6-12.2c0.8-3.6,1.5-6.7,2.1-9.1c0.6-2.3,1-4.3,1.4-5.8c0.3-1.3,0.4-2,0.4-2
								c-0.1,0-0.3,0.7-0.7,1.9c-0.5,1.5-1,3.4-1.7,5.7c-0.8,2.5-1.5,5.5-2.4,9.1c-0.9,3.5-1.9,7.6-2.9,12.1
								c-4.1,18-8.4,43.2-11.5,71.2c-3.1,28-4.5,53.5-4.6,72c-0.1,9.2,0.1,16.7,0.3,21.9c0.1,2.4,0.3,4.4,0.4,5.9
								C148,1041.9,148.1,1042.7,148.1,1042.7z"/>
						</g>
					</g>
				</g>
				<g>
					<g>
						<g>
							<path class="st4" d="M148.2,993.5c0.1,0,0.1-2.2,0-6.2c-0.2-4-0.8-9.8-1.9-16.8c-1.2-7-2.9-15.4-5.5-24.5
								c-1.1-4.2-3.8-14.1-10.2-29c-8.5-20.2-20-36.6-30.1-46.8c-2.4-2.7-5-4.7-7.1-6.6c-1.1-0.9-2-1.8-3-2.6
								c-1-0.7-1.9-1.3-2.7-1.9c-3.3-2.3-5.2-3.5-5.2-3.3c-0.3,0.4,7.4,4.9,17.1,15.3c9.7,10.3,20.9,26.7,29.3,46.7
								c4.7,10.8,8,20.5,10.3,28.7c2.7,9,4.5,17.3,5.8,24.3c1.3,7,2,12.7,2.5,16.6C147.8,991.3,148.1,993.5,148.2,993.5z"/>
						</g>
					</g>
				</g>
			</g>
			<g>
				<g>
					<rect x="92.3" y="1053.6" class="st4" width="115.4" height="26.6"/>
				</g>
			</g>
			<g>
				<g>
					<g>
						<path class="st5" d="M198.5,1079.8c0,0.3-21.7,0.5-48.6,0.5c-26.8,0-48.6-0.2-48.6-0.5c0-0.3,21.7-0.5,48.6-0.5
							C176.8,1079.3,198.5,1079.5,198.5,1079.8z"/>
					</g>
				</g>
			</g>
		</g>
	</g>
</g>
</svg>
