<?xml version="1.0" encoding="utf-8"?>
<!-- Generator: Adobe Illustrator 22.0.1, SVG Export Plug-In . SVG Version: 6.00 Build 0)  -->
<svg version="1.1" id="Capa_1" xmlns="http://www.w3.org/2000/svg" xmlns:xlink="http://www.w3.org/1999/xlink" x="0px" y="0px"
	 viewBox="0 0 900 1080" style="enable-background:new 0 0 900 1080;" xml:space="preserve">
<style type="text/css">
	.st0{clip-path:url(#SVGID_2_);}
	.st1{fill:#84EEF4;}
	.st2{fill:#F24646;}
	.st3{clip-path:url(#SVGID_2_);fill-rule:evenodd;clip-rule:evenodd;fill:#E3FFFF;}
	.st4{fill-rule:evenodd;clip-rule:evenodd;fill:#FFFFFF;}
	.st5{fill:#C0FFFD;}
	.st6{fill:#F75F46;}
	.st7{fill:#E8A787;}
	.st8{fill:#FFC8A9;}
	.st9{fill:none;}
	.st10{fill:#FF795A;}
	.st11{fill:#C99077;}
	.st12{fill:#D8A387;}
	.st13{fill:#266DAE;}
	.st14{fill:#BF3636;}
	.st15{fill:#D34444;}
	.st16{fill:#FFFFFF;}
	.st17{fill:#1E669B;}
	.st18{fill:#687272;}
	.st19{fill:#566363;}
	.st20{fill:#959E9E;}
	.st21{fill:#F4D345;}
	.st22{fill:#EDA574;}
	.st23{fill:#F9BB91;}
	.st24{fill:#D5E1E2;}
	.st25{fill:#FFE669;}
	.st26{fill:#424051;}
	.st27{fill:#E5EAEA;}
	.st28{fill:#78777F;}
</style>
<g>
	<defs>
		<rect id="SVGID_1_" transform="matrix(-1 -1.224647e-16 1.224647e-16 -1 900 1080)" width="900" height="1080"/>
	</defs>
	<clipPath id="SVGID_2_">
		<use xlink:href="#SVGID_1_"  style="overflow:visible;"/>
	</clipPath>
	<g id="XMLID_1_" class="st0">
		<path id="XMLID_748_" class="st1" d="M472.7,495.3c0,0,19-60.7,64.6-50.1c45.6,10.6,16,142.4-62.5,177.3
			c0,0-111.2-65.8-87.5-143.7C402.5,428.9,467.9,463.2,472.7,495.3z"/>
		<path id="XMLID_286_" class="st2" d="M472.6,505.8c0,0,15.5-49.4,52.7-40.8c37.2,8.6,13.1,116.1-51,144.5
			c0,0-90.7-53.6-71.3-117.1C415.4,451.7,468.7,479.7,472.6,505.8z"/>
	</g>
	<rect x="-137.8" y="-71.2" class="st3" width="1166.6" height="1166.6"/>
	<g class="st0">
		<path class="st4" d="M166.3,824.9c-72.8,0-132.3-59.5-132.3-132.3l0,0c0-72.8,59.5-132.3,132.3-132.3l0,0
			c30.8,0,55.9-25.2,55.9-55.9l0,0c0-30.8-25.2-56-55.9-56h-6.7c-32,0-58.2-26.2-58.2-58.2l0,0c0-32,26.2-58.2,58.2-58.2H180
			c12.5,0,22.6-10.2,22.6-22.6l0,0c0-12.5-10.2-22.6-22.6-22.6h-15c-8.6,0-15.6-7-15.6-15.6l0,0c0-8.6,7-15.6,15.6-15.6h100.9
			c13.5,0,24.6-11.1,24.6-24.6l0,0c0-13.5-11.1-24.6-24.6-24.6h-30.2c-8.6,0-15.6-7-15.6-15.6v0c0-8.6,7-15.6,15.6-15.6h429.4
			c11.2,0,20.4,9.2,20.4,20.4v0c0,11.2-9.2,20.4-20.4,20.4h-31.5c-17.6,0-32,14.4-32,32v0c0,17.6,14.4,32,32,32h132.7
			c11.2,0,20.4,9.2,20.4,20.4l0,0c0,11.2-9.2,20.4-20.4,20.4h-19.6c-16.3,0-29.6,13.3-29.6,29.6l0,0c0,16.3,13.3,29.6,29.6,29.6
			h26.7c41.7,0,75.9,34.2,75.9,75.9l0,0c0,41.7-34.2,75.9-75.9,75.9h-8.7c-40.2,0-73,32.9-73,73l0,0c0,40.2,32.9,73,73,73h18.8
			c40.5,0,73.6,33.1,73.6,73.6l0,0c0,40.5-33.1,73.6-73.6,73.6C574.1,824.9,375.7,824.9,166.3,824.9L166.3,824.9z M717.4,215.9
			c11.3,0,20.4-9.1,20.4-20.4c0-11.3-9.1-20.4-20.4-20.4c-11.3,0-20.4,9.1-20.4,20.4C697,206.7,706.1,215.9,717.4,215.9L717.4,215.9
			z M121.2,286.7c8.6,0,15.6-7,15.6-15.6c0-8.6-7-15.6-15.6-15.6c-8.6,0-15.6,7-15.6,15.6C105.5,279.7,112.5,286.7,121.2,286.7z"/>
	</g>
	<g class="st0">
		<g id="XMLID_343_">
			<g id="XMLID_814_">
				<path id="XMLID_844_" class="st5" d="M246.4,301.3c0,0,0.3,6.7-1.2,14.8c0,0-15.5,32-24.2,47.9c-8.7,16-29.3,40.6-29.3,40.6
					s-7.1,6.1-10.9,8.9c0,0-3.7-36.7,10.2-67C205,316.2,246.4,301.3,246.4,301.3z"/>
				<g id="XMLID_834_">
					<path id="XMLID_843_" class="st5" d="M348.5,450.1c-2.6-0.7-13.9-5.3-18.5-7.1c-4.6-1.8-21-6.5-21-6.5s6.6,5.1,10.7,7.5
						c4.1,2.4,24.3,13.8,24.3,13.8s12.6-1.6,17-5.1c4.4-3.6,7.4-22.4,7.4-22.4s-8.5,13.3-10.4,15.4
						C356.1,447.9,351.1,450.8,348.5,450.1z"/>
					<path id="XMLID_842_" class="st5" d="M321.8,474.3c-4.7-0.8-22.6-7.1-22.6-7.1c-5-1.2-20.9-5.3-20.9-5.3s8,5.9,12.6,8.7
						c4.7,2.8,24.7,11.9,24.7,11.9s12.2-2,17.9-5.7c5.7-3.7,10.6-19,10.6-19C336,466.4,326.5,475.1,321.8,474.3z"/>
					<path id="XMLID_841_" class="st5" d="M287.3,496.2c12.1,7.1,17.1,4.1,21,2.5c0.6-0.2,1.1-0.8,1.6-1.5
						c-5.2-1.2-11.6-2.8-15.1-4.3c-6.6-2.7-45.5-30.5-54.9-37.2c-9.4-6.7-23.2-38.4-26.7-45.6c-3.4-7.1-18.2-25.9-24.8-34.4
						c-4.7-6-23.8-23.8-36.5-35.3c-8.9,20-10.5,37.1-10.5,37.1s42.8,21.9,52.1,27.9c9.3,5.9,25.3,42.1,30.9,50.2
						C229.8,463.9,275.1,489.1,287.3,496.2z"/>
					<path id="XMLID_840_" class="st5" d="M380.1,418.2c-3.1,2.1-10.5,4.2-16.2,2.6c-5.6-1.6-27.8-9.3-27.8-9.3s7.8,7.3,11.2,8.8
						c3.5,1.6,21,10,21,10s16-3.6,20.3-10.2c4-6.3,4.8-16.1,4.2-20.5C389.9,409.7,383.2,416,380.1,418.2z"/>
					<path id="XMLID_839_" class="st5" d="M309.5,338.4c0,0,16.5,7.7,23.4,13c6.9,5.3,29.8,20.8,29.8,20.8s-0.5-9-1.7-18.4
						c-8.4-4.7-18.4-10.2-21.6-11.1C333.6,341.1,309.5,338.4,309.5,338.4z"/>
					<g id="XMLID_835_">
						<path id="XMLID_838_" class="st5" d="M208,297.6c0.2-0.3,2.9-2.2,6.5-4.8c-8.1-6.4-14.3-11.5-14.3-11.5s-23.3,17.3-39.9,43.2
							c-3.4,5.4-6.2,10.8-8.6,16c6.3,5.7,14.2,12.9,21.1,19.5C189.5,330.5,207.6,298.3,208,297.6z"/>
						<path id="XMLID_837_" class="st5" d="M199.3,390.1c5.9,7.8,11.8,15.9,13.8,20.1c3.4,7.1,17.2,38.8,26.7,45.6
							c9.4,6.7,48.3,34.4,54.9,37.2c3.5,1.5,9.9,3.1,15.1,4.3c3.2-4.1,5.8-14.7,5.8-14.7s-20.1-9.1-24.7-11.9
							c-4.7-2.8-12.6-8.7-12.6-8.7s15.9,4.1,20.9,5.3c0,0,17.8,6.3,22.6,7.1c4.7,0.8,14.3-8,22.3-16.5c0,0-20.2-11.3-24.3-13.8
							c-4.1-2.4-10.7-7.5-10.7-7.5s16.4,4.8,21,6.5c4.6,1.8,15.9,6.4,18.5,7.1c2.6,0.7,7.5-2.2,9.5-4.4c1.9-2.1,10.4-15.4,10.4-15.4
							s-17.6-8.4-21-10c-3.5-1.6-11.2-8.8-11.2-8.8s22.1,7.8,27.8,9.3c5.6,1.6,13-0.5,16.2-2.6c3.1-2.1,9.8-8.4,12.8-18.6
							c0-0.2,0-0.5-0.1-0.7c-0.8-4.1-30.1-26.7-30.1-26.7s-22.9-15.5-29.8-20.8c-6.9-5.3-23.4-13-23.4-13s24.1,2.7,29.9,4.3
							c3.2,0.9,13.2,6.4,21.6,11.1c-0.9-6.6-2.1-13.5-3.8-17.5c-4.1-9.8-41.6-19.5-53.5-22.6c-12-3.1-45.7,7.7-52.4,5.9
							c-1.1-0.3-3.3-1.6-6.2-3.5c-10.3,12.2-27.7,33.3-34.9,44.5C206.4,366.7,202.6,378.2,199.3,390.1z"/>
						<path id="XMLID_836_" class="st5" d="M172.9,360.1c7,6.7,13,12.7,15.4,15.7c2.7,3.5,6.9,8.8,11,14.3
							c3.3-11.9,7.1-23.4,11.1-29.6c7.2-11.2,24.6-32.3,34.9-44.5c-7.8-5.3-20.7-15.3-30.7-23.2c-3.7,2.6-6.3,4.4-6.5,4.8
							C207.6,298.3,189.5,330.5,172.9,360.1z"/>
					</g>
				</g>
				<g id="XMLID_815_">
					<g id="XMLID_820_">
						<path id="XMLID_833_" class="st5" d="M184,283l-3.8,5.9c0,0,2.5,1.3,6,3.1c1.7-1.9,3.3-3.7,4.8-5.4
							C186.9,284.5,184,283,184,283z"/>
						<path id="XMLID_832_" class="st5" d="M159.5,308.6l-4.1,6.3c0,0,3.5,1.6,8.2,3.7c1.5-1.9,3.1-3.9,4.8-5.9
							C163.3,310.3,159.5,308.6,159.5,308.6z"/>
						<path id="XMLID_831_" class="st5" d="M144.7,334.8l-3.2,8.7c0,0,2.3,1.6,5.7,3.9c1.1-2.9,2.3-5.7,3.5-8.4
							C147.2,336.6,144.7,334.8,144.7,334.8z"/>
						<path id="XMLID_830_" class="st5" d="M133.1,361.2l-0.6,7c0,0,2.7,2,6.4,4.7c0.6-2,1.2-4.1,1.9-6.3
							C136.3,363.4,133.1,361.2,133.1,361.2z"/>
						<path id="XMLID_829_" class="st5" d="M216.6,301c3.4,2.4,11,9.5,16.3,14.5c7.7-8.4,13.6-14.2,13.6-14.2s-11-10.4-16.7-15.5
							c-5.7-5.1-25.1-14-25.1-14s-5.9,6.3-13.6,14.9C199.4,291.1,212.8,298.3,216.6,301z"/>
						<path id="XMLID_828_" class="st5" d="M153.5,401.4c7.9,3.3,27.3,12.1,27.3,12.1s1.7-6.9,4.6-16.4c-8.9-2.6-21.1-6.5-25.6-9.4
							c-4.6-3-14.5-10.1-21.1-14.9c-2.6,8.9-4.2,15.4-4.2,15.4S145.6,398.1,153.5,401.4z"/>
						<path id="XMLID_827_" class="st5" d="M169.9,361.7c3.9,1.9,15.4,5.5,25,8.4c1.1-2.6,2.2-5.2,3.4-7.7
							c-8.2-2.8-19.9-6.9-24.2-8.7c-4.6-2-16.2-9.7-23.4-14.7c-1.2,2.6-2.4,5.5-3.5,8.4C154.1,352,165.2,359.4,169.9,361.7z"/>
						<path id="XMLID_826_" class="st5" d="M163.3,380.6c5.4,2.6,16.5,6.6,24.3,9.4c2.1-6.3,4.5-13.2,7.3-19.8
							c-9.5-2.9-21-6.5-25-8.4c-4.8-2.3-15.9-9.7-22.7-14.3c-2.4,6.3-4.7,13-6.6,19.1C147.7,371.3,157.9,378,163.3,380.6z"/>
						<path id="XMLID_825_" class="st5" d="M227.3,321.6c1.9-2.2,3.8-4.2,5.5-6.2c-5.3-5-12.9-12.1-16.3-14.5
							c-3.7-2.7-17.2-9.9-25.6-14.3c-1.5,1.7-3.1,3.5-4.8,5.4c7.2,3.7,18.9,9.8,22.6,12.2C212.2,306.5,221.1,315.3,227.3,321.6z"/>
						<path id="XMLID_824_" class="st5" d="M185.4,397.1c0.7-2.2,1.4-4.6,2.2-7.1c-7.8-2.8-18.9-6.8-24.3-9.4
							c-5.4-2.6-15.6-9.3-22.6-14.1c-0.7,2.2-1.3,4.3-1.9,6.3c6.5,4.8,16.4,11.9,21.1,14.9C164.2,390.5,176.4,394.4,185.4,397.1z"/>
						<path id="XMLID_823_" class="st5" d="M212.4,339.7c4.7-6.2,10-12.5,14.9-18.1c-6.2-6.3-15.1-15.2-18.5-17.4
							c-3.7-2.4-15.4-8.5-22.6-12.2c-5.8,6.6-12.2,13.9-17.8,20.6c9.6,4.4,24,11.2,27.5,13.4C199.3,328.2,207.2,335.1,212.4,339.7z"
							/>
						<path id="XMLID_822_" class="st5" d="M174.1,353.7c4.3,1.8,16,5.9,24.2,8.7c1.4-2.9,2.8-5.6,4.2-8.2c1.6-2.8,3.6-5.8,5.7-8.9
							c-6.3-5.8-15.2-13.7-19-15.3c-4-1.7-17-7.5-25.6-11.5c-2.9,3.7-5.4,7-7.2,9.7c-1.9,2.9-3.8,6.6-5.7,10.7
							C157.9,344,169.5,351.7,174.1,353.7z"/>
						<path id="XMLID_821_" class="st5" d="M208.2,345.4c1.3-1.9,2.7-3.8,4.2-5.7c-5.2-4.6-13.1-11.5-16.5-13.7
							c-3.4-2.2-17.8-8.9-27.5-13.4c-1.7,2-3.3,4-4.8,5.9c8.7,3.9,21.7,9.8,25.6,11.5C193,331.7,201.9,339.6,208.2,345.4z"/>
					</g>
					<path id="XMLID_819_" class="st5" d="M118.4,333.5c-6.4,13.4-13.8,49.1-17.8,70.2c0.4,0,0.9-0.1,1.2-0.2
						c14.2-4.1,32.8-15.3,32.8-15.3s10.5-42.8,21.8-59.8c11.3-17.1,48.2-56.6,48.2-56.6s1.4-19.5-0.7-27.5
						c-8.4,2.8-17.3,6.6-24.2,11.6C161.7,269.1,127.7,314,118.4,333.5z"/>
					<g id="XMLID_816_">
						<path id="XMLID_818_" class="st5" d="M53.8,342.3c17.1,7.9,40.9,15.9,55.4,20.6c3-12.2,6.1-23.2,9.1-29.4
							c9.3-19.5,43.3-64.4,61.4-77.7c6.9-5,15.8-8.8,24.2-11.6c0-0.1-0.1-0.3-0.1-0.4c-2.2-7.8-87.7-66.2-105.7-77.2
							c-18.1-11-78-53-100-71.9c0,0-59,77.1-73.3,102.1c-3.6,6.3-6.2,14.1-8.1,22.1c12.5,18.9,30.3,44.7,40.4,54
							C-26.2,288.4,27.5,330.3,53.8,342.3z"/>
						<path id="XMLID_817_" class="st5" d="M-15.1,339.3c18,13.1,98.5,65.5,115.7,64.4c2.1-11.3,5.3-26.7,8.7-40.7
							c-14.5-4.7-38.3-12.7-55.4-20.6c-26.3-12.1-80-53.9-96.7-69.4c-10.1-9.3-27.8-35.1-40.4-54c-5.6,23.8-5,50.3-5,50.3
							S-33.6,325.8-15.1,339.3z"/>
					</g>
				</g>
			</g>
			<g id="XMLID_783_">
				<g id="XMLID_805_">
					<path id="XMLID_813_" class="st5" d="M623.7,476.5c2.5-0.6,13.6-4.8,18.1-6.3c4.5-1.6,20.4-5.9,20.4-5.9s-6.8,4.5-11,6.6
						c-4.1,2.1-24.4,12.1-24.4,12.1s-11.5-1.1-15.1-4c-3.6-2.9-3.9-18.9-3.9-18.9s6.2,11.1,7.7,12.9
						C617,474.7,621.2,477.1,623.7,476.5z"/>
					<path id="XMLID_812_" class="st5" d="M645.4,496.6c4.5-0.7,21.9-6.4,21.9-6.4c4.8-1.1,20.1-4.8,20.1-4.8s-8.2,5.1-12.9,7.6
						c-4.7,2.4-24.5,10.5-24.5,10.5S639,502,634.2,499c-4.8-3.1-7.3-16-7.3-16C633.2,490.1,640.9,497.3,645.4,496.6z"/>
					<g id="XMLID_809_">
						<polygon id="XMLID_811_" class="st5" points="777.3,415.7 777.3,415.7 777.3,415.7 						"/>
						<path id="XMLID_810_" class="st5" d="M654.9,517.1c3.3,1.3,7.6,3.8,19.8-2.5c12.2-6.3,57.6-28.4,63.8-35.5
							c6.2-7,25.9-38,35.3-43.2c3.7-2.1,12.6-6.4,22.1-10.8c14.4-6.8,30-13.8,30-13.8c16.2-7.4,198.1-82.4,198.1-82.4
							s-2-8.9-5.2-20.7c-45.8,15.4-114.9,39.5-139.7,53.1c-16.2,8.9-36.7,19.9-55.1,29.7c-6.2,3.3-12.2,6.5-17.7,9.4
							c-16.8,8.9-28.9,15.2-28.9,15.2l0,0c-8,8.1-19.1,19.6-22.5,24.5c-4.1,6.1-21.1,33.3-30.7,39.2c-9.6,5.9-49.4,30.1-55.9,32.6
							c-3.4,1.3-9.6,2.8-14.6,3.9C653.9,516.5,654.4,516.9,654.9,517.1z"/>
					</g>
					<path id="XMLID_808_" class="st5" d="M598.5,450c2.6,1.8,9.2,3.3,14.7,1.9c5.5-1.4,27.1-8.4,27.1-8.4s-8.2,6.3-11.6,7.7
						c-3.4,1.4-20.9,8.9-20.9,8.9s-14.4-2.8-17.5-8.3c-2.9-5.3-2.4-13.6-1.2-17.4C590.5,443,595.9,448.2,598.5,450z"/>
					<path id="XMLID_807_" class="st5" d="M674.6,380.9c0,0-16.3,6.9-23.4,11.4c-7.1,4.6-30.4,18.2-30.4,18.2s1.6-7.6,4-15.7
						c8.4-4.2,18.4-9,21.5-9.8C651.8,383.6,674.6,380.9,674.6,380.9z"/>
					<path id="XMLID_806_" class="st5" d="M754.8,440.2c-4.1,6.1-21.1,33.3-30.7,39.2c-9.6,5.9-49.4,30.1-55.9,32.6
						c-3.4,1.3-9.6,2.8-14.6,3.9c-2.4-3.4-3.5-12.4-3.5-12.4s19.9-8.1,24.5-10.5c4.7-2.4,12.9-7.6,12.9-7.6s-15.3,3.8-20.1,4.8
						c0,0-17.4,5.7-21.9,6.4c-4.5,0.7-12.2-6.5-18.6-13.6c0,0,20.3-10,24.4-12.1c4.1-2.1,11-6.6,11-6.6s-15.9,4.3-20.4,5.9
						c-4.5,1.6-15.6,5.7-18.1,6.3c-2.5,0.6-6.7-1.8-8.2-3.6c-1.5-1.8-7.7-12.9-7.7-12.9s17.4-7.5,20.9-8.9
						c3.4-1.4,11.6-7.7,11.6-7.7s-21.6,7-27.1,8.4c-5.5,1.4-12.1-0.2-14.7-1.9c-2.6-1.8-8-7-9.5-15.6c0.1-0.2,0.1-0.4,0.2-0.6
						c1.3-3.5,31.5-23.2,31.5-23.2s23.3-13.6,30.4-18.2c7.1-4.6,23.4-11.4,23.4-11.4s-22.8,2.7-28.4,4.2c-3.1,0.8-13.1,5.6-21.5,9.8
						c1.7-5.6,3.7-11.5,5.8-15c5.1-8.4,41.2-17.3,52.7-20.1c11.5-2.8,41.5,5.7,47.9,4c1.1-0.3,3.3-1.4,6.2-3.1
						c8-4.6,21.2-13.4,31.6-20.3c8.4-5.6,14.7-10,14.7-10c79.6-52.6,177.6-122.9,177.6-122.9s33.6,37.3,43.5,58.7
						c5.3,11.4,10.4,28.5,14.1,42c-45.8,15.4-114.9,39.5-139.7,53.1c-16.2,8.9-36.7,19.9-55.1,29.7c-6.2,3.3-12.2,6.5-17.7,9.4
						c-16.8,8.9-28.9,15.2-28.9,15.2c-2.2,2.2-4.6,4.7-7,7.2C763.8,429.6,757.2,436.6,754.8,440.2z"/>
				</g>
				<g id="XMLID_784_">
					<g id="XMLID_798_">
						<path id="XMLID_802_" class="st5" d="M782,379.7c5.8,11.1,22,34.7,29.2,45c0.6-0.3,1.1-0.5,1.5-0.8c3.2-1.9,9.6-10.2,9.6-10.2
							s-16.6-35.2-21.9-44.8c-5.3-9.6-21.7-36.7-21.7-36.7s-8.7,0.9-11.1,2.1c-0.7,0.4-2.6,1.7-4,2.6
							C767.9,348,776.4,368.9,782,379.7z"/>
						<path id="XMLID_799_" class="st5" d="M773.6,384c5.6,10.4,26.4,43.8,26.4,43.8s7.5-1.2,11.3-3.1c-7.2-10.3-23.4-33.9-29.2-45
							c-5.6-10.8-14.1-31.7-18.6-42.7c-3.6,2.3-7.3,8.1-7.3,8.1S767.9,373.6,773.6,384z"/>
					</g>
					<g id="XMLID_785_">
						<path id="XMLID_797_" class="st5" d="M778.5,349.4l0.2-3.5c0,0-4.4,0.6-6.9,1.7c-2.5,1.2-5.3,4.2-5.3,4.2l3.4,2.8L778.5,349.4
							z"/>
						<g id="XMLID_786_">
							<path id="XMLID_796_" class="st5" d="M793.1,346.8c3.6,0.8,12,5.2,16.7,9.2c4.7,3.9,9.3,17.3,9.5,23.3
								c0.2,6-11.7,20.3-17.3,24.1c-5.6,3.8-21.7,1-28.8-3.6c-7.1-4.6-15.1-23.8-15.3-30.2c-0.2-6.4,11.9-17,14.4-18.8
								C774.8,348.9,789.5,346,793.1,346.8z"/>
							<g id="XMLID_793_">
								<path id="XMLID_795_" class="st5" d="M794.8,362.1c4.6,3.5,9,17,8.8,21.4c-0.1,1.3-0.9,2.9-2.2,4.4c1-0.8,1.9-1.6,2.4-2.1
									c1.5-1.8,4.3-11.1,4-13.1c-0.3-2-2.7-12.1-6.4-13.9c-3.2-1.6-13.3-2.6-19.3-1.3C786.6,358,791.9,359.9,794.8,362.1z"/>
								<path id="XMLID_794_" class="st5" d="M768.7,373.9c0.5,4.3,5.1,15.5,8.6,17.2c3.5,1.7,12.6,3.1,16.3,1.6
									c2.5-1,5.6-3,7.9-4.7c1.2-1.5,2.1-3.1,2.2-4.4c0.2-4.4-4.2-17.9-8.8-21.4c-2.9-2.2-8.1-4.1-12.7-4.7c-1,0.2-2,0.5-2.7,0.9
									C774.6,361.1,768.2,369.5,768.7,373.9z"/>
							</g>
							<path id="XMLID_790_" class="st5" d="M787.1,372.3c1.4-0.1,2.8,0.3,3.4,1.7c0.6,1.4,0.1,3.7-1.2,4.3
								c-1.3,0.7-3.9-0.5-4.6-1.3c-0.6-0.8-0.7-3.1,0-3.8C785.4,372.6,786.4,372.3,787.1,372.3z"/>
							<path id="XMLID_787_" class="st5" d="M788.4,374.1l5.8-4.4c0,0,2,0.1,2.4,0.7c0.4,0.5-0.1,2.7-0.1,2.7l-7.9,2.6l-1.6,13.8
								c0,0-1.5,0.7-2.4,0.8c-1,0.1-2.5-1.3-2.5-1.3l5.3-14.5L788.4,374.1z"/>
						</g>
					</g>
				</g>
			</g>
			<g id="XMLID_746_">
				<path id="XMLID_782_" class="st5" d="M810.9,788.1c0,0-3.5-54.4,61-109.8l35.6,32.7L810.9,788.1z"/>
				<g id="XMLID_750_">
					<g id="XMLID_768_">
						<path id="XMLID_781_" class="st5" d="M583.6,582.7c2.5,0.7,13.6,5,18,6.6s20.3,6.2,20.3,6.2s-6.8-4.6-10.9-6.8
							c-4.1-2.2-24.2-12.5-24.2-12.5s-11.5,0.9-15.2,3.8c-3.7,2.9-4.2,18.9-4.2,18.9s6.3-11,7.9-12.8
							C576.9,584.4,581.1,582.1,583.6,582.7z"/>
						<path id="XMLID_780_" class="st5" d="M605.7,563c4.5,0.8,21.8,6.7,21.8,6.7c4.8,1.1,20.1,5.1,20.1,5.1s-8.1-5.3-12.8-7.8
							c-4.7-2.5-24.4-10.9-24.4-10.9s-11.1,1.3-15.9,4.3c-4.8,3-7.6,15.9-7.6,15.9C593.3,569.3,601.2,562.2,605.7,563z"/>
						<g id="XMLID_774_">
							<polygon id="XMLID_779_" class="st5" points="736.3,645.8 736.3,645.8 736.3,645.8 							"/>
							<path id="XMLID_778_" class="st5" d="M784.8,650.9c0,0,0.3,8.6-2.2,20.2c18.2,10,38.6,21.4,54.6,30.5
								c24.6,14.1,93.3,39.2,138.9,55.2c3.3-11.7,5.5-20.6,5.5-20.6S800.9,658.6,784.8,650.9z"/>
							<path id="XMLID_777_" class="st5" d="M733.1,625.6c-9.3-5.4-28.5-36.6-34.6-43.7c-6.1-7.1-51.2-30-63.3-36.4
								c-12.1-6.4-16.4-4.1-19.8-2.8c-0.5,0.2-0.9,0.6-1.3,1.2c5,1.2,11.1,2.8,14.6,4.1c6.4,2.5,45.9,27.4,55.4,33.4
								c9.6,6,26.1,33.5,30.2,39.6c3.3,5,14.2,16.6,22.1,24.8l18.7-9.2C745.6,632.1,736.8,627.7,733.1,625.6z"/>
							<path id="XMLID_776_" class="st5" d="M784.8,650.9c0,0-15.5-7.3-29.8-14.3l-18.7,9.2l0,0c0,0,12,6.5,28.7,15.6L784.8,650.9z"
								/>
							<path id="XMLID_775_" class="st5" d="M782.6,671.1c2.5-11.6,2.2-20.2,2.2-20.2L765,661.4
								C770.4,664.4,776.4,667.7,782.6,671.1z"/>
						</g>
						<path id="XMLID_773_" class="st5" d="M558.1,608.9c2.6-1.7,9.3-3.2,14.7-1.7c5.4,1.5,26.9,8.8,26.9,8.8s-8.1-6.4-11.5-7.9
							c-3.4-1.4-20.7-9.2-20.7-9.2s-14.5,2.6-17.6,8c-3,5.2-2.6,13.5-1.5,17.3C549.9,615.8,555.4,610.7,558.1,608.9z"/>
						<path id="XMLID_772_" class="st5" d="M633.1,679.1c0,0-16.2-7.1-23.3-11.8c-7.1-4.7-30.2-18.6-30.2-18.6s1.5,7.7,3.7,15.7
							c8.3,4.3,18.3,9.3,21.4,10.1C610.4,676,633.1,679.1,633.1,679.1z"/>
						<g id="XMLID_769_">
							<path id="XMLID_771_" class="st5" d="M558.1,608.9c-2.6,1.7-8.1,6.9-9.7,15.4c0.1,0.2,0.1,0.4,0.2,0.6
								c1.2,3.5,31.1,23.7,31.1,23.7s23.1,13.9,30.2,18.6c7.1,4.7,23.3,11.8,23.3,11.8s-22.7-3-28.3-4.6
								c-3.1-0.9-13.1-5.8-21.4-10.1c1.6,5.7,3.5,11.5,5.6,15c5,8.5,40.9,17.9,52.4,20.9c11.5,3,41.6-5.1,48-3.3
								c1.1,0.3,3.3,1.5,6.1,3.2c7.9,4.7,21,13.7,31.3,20.7c8.3,5.7,14.6,10.2,14.6,10.2c20,13.7,41.2,28.5,61.6,43
								c9.2-11.5,30.5-39.3,44.3-67.3c-3.8-1.8-7.2-3.6-10-5.2c-16-9.2-36.4-20.5-54.6-30.5c-6.2-3.4-12.1-6.7-17.6-9.7
								c-16.7-9.1-28.6-15.6-28.7-15.6c-2.2-2.2-4.5-4.7-6.9-7.3c-6.4-6.8-12.8-13.9-15.2-17.6c-4-6.2-20.6-33.6-30.2-39.6
								c-9.6-6-49-30.9-55.4-33.4c-3.4-1.4-9.6-2.9-14.6-4.1c-2.5,3.4-3.6,12.3-3.6,12.3s19.7,8.4,24.4,10.9
								c4.7,2.5,12.8,7.8,12.8,7.8s-15.3-4-20.1-5.1c0,0-17.3-6-21.8-6.7c-4.5-0.8-12.3,6.3-18.8,13.4c0,0,20.1,10.3,24.2,12.5
								c4.1,2.2,10.9,6.8,10.9,6.8s-15.8-4.6-20.3-6.2c-4.5-1.6-15.5-5.9-18-6.6c-2.5-0.7-6.7,1.7-8.3,3.4
								c-1.5,1.8-7.9,12.8-7.9,12.8s17.3,7.7,20.7,9.2c3.4,1.4,11.5,7.9,11.5,7.9s-21.5-7.3-26.9-8.8
								C567.3,605.7,560.7,607.2,558.1,608.9z"/>
							<path id="XMLID_770_" class="st5" d="M802.9,774.1c60.1,42.6,114.1,82.6,114.1,82.6s34.1-36.8,44.4-58.1
								c5.5-11.4,10.9-28.4,14.7-41.8c-40.4-14.2-99-35.6-128.9-50C833.5,734.8,812.2,762.6,802.9,774.1z"/>
						</g>
					</g>
					<g id="XMLID_755_">
						<path id="XMLID_767_" class="st5" d="M760.2,671.8c-2.3,0.1-4.6,0.8-4.6,0.8s-0.2-1.5-0.6-3.4c-0.9,2.5-1.8,4.8-3,6.7
							c-6.8,11.7-29.9,41.7-29.9,41.7s26.4-19.9,33.7-33.3C757.6,681.1,759.1,676.6,760.2,671.8z"/>
						<g id="XMLID_762_">
							<path id="XMLID_766_" class="st5" d="M723.3,649.6l-3.4,6.1c0,0,1.4,0.2,3.1,0.6c1-2.1,2-4.4,3-6.7
								C724.5,649.6,723.3,649.6,723.3,649.6z"/>
							<path id="XMLID_765_" class="st5" d="M715.6,664.2l-5.8,9.2c0,0,0.4,1.8,1,3.8c2.1-2.9,4-5.8,5.7-8.4
								C715.9,666.4,715.6,664.2,715.6,664.2z"/>
							<path id="XMLID_764_" class="st5" d="M706.8,676.9l-5.3,8c0,0,0.6,1.4,1.5,3.1c1.7-2.3,3.5-4.8,5.4-7.4
								C707.5,678.7,706.8,676.9,706.8,676.9z"/>
							<path id="XMLID_763_" class="st5" d="M719.9,663.1c0.5-1,1.1-2.2,1.7-3.6c-1.2-0.3-2.1-0.5-2.1-0.5l-1.8,3.6
								c0,0,0.3,1.3,0.8,3C719,664.6,719.5,663.8,719.9,663.1z"/>
						</g>
						<g id="XMLID_760_">
							<path id="XMLID_761_" class="st5" d="M733.7,631.9c-0.7-0.1-1.1-0.2-1.1-0.2l-2.1,2.9l-1.2,3.6c0.4,0.1,1,0.2,1.6,0.3
								C732,636.1,732.9,633.8,733.7,631.9z"/>
						</g>
						<path id="XMLID_759_" class="st5" d="M755,669.3c-0.6-2.7-1.8-6.2-3.9-7.2c-1.7-0.8-3.3-1.2-4.6-1.3c-0.8,3.5-1.9,7-3.2,10.2
							c-4.1,10.2-29.9,40.8-29.9,40.8s2.5,3.2,4.1,4.4c1.6,1.2,4.5,1.5,4.5,1.5s23.1-30.1,29.9-41.7
							C753.1,674.1,754.1,671.8,755,669.3z"/>
						<path id="XMLID_758_" class="st5" d="M755,669.3c4.4-12.5,5.6-30,5.6-30s-4.1-3.8-5.9-4.7c-1.8-0.9-4.8-0.5-4.8-0.5
							s-0.1,13.3-3.3,26.7c1.2,0.2,2.9,0.5,4.6,1.3C753.2,663.1,754.4,666.6,755,669.3z"/>
						<path id="XMLID_757_" class="st5" d="M768.2,641.7c-1.7-0.6-4-0.6-4-0.6s-0.6,16.7-4,30.7c0.8,0,1.6,0,2.3,0.3
							c1.3,0.4,2.8,3.4,3.9,6.3c2.9-13.1,6.5-33.2,6.5-33.2S769.9,642.4,768.2,641.7z"/>
						<path id="XMLID_756_" class="st5" d="M762.5,672.1c-0.7-0.2-1.5-0.3-2.3-0.3c-1.1,4.8-2.6,9.2-4.4,12.6
							c-7.3,13.4-33.7,33.3-33.7,33.3s2,3.4,3.1,4c1.1,0.6,5,1.6,5,1.6s31.4-26.8,34.1-36.7c0.6-2,1.2-4.9,2-8.2
							C765.3,675.5,763.8,672.5,762.5,672.1z"/>
					</g>
					<path id="XMLID_754_" class="st5" d="M610.9,588.7c0,0,5.6-9.7,8.5-12.6c2.9-2.9,15.4-9,15.4-9s-1.9-1.7-2.9-2.3
						c-1-0.5-2.5-0.3-2.5-0.3s-10.8,5.5-13.6,7.5c-2.8,2-9.4,14.4-9.4,14.4S608.2,588.2,610.9,588.7z"/>
					<g id="XMLID_751_">
						<path id="XMLID_753_" class="st5" d="M610.3,574.5c0.2-0.2,0.9-0.6,0.9-0.6s2.1,1.1,4.1,1.4c0,0,1.4-0.8,1.8-1.1
							c0,0-1.6-1-2.1-1.3c-0.4-0.3-1.2-1.2-1.2-1.2s0.5-0.7,0.8-0.9c0.3-0.2,1.3-0.6,1.3-0.6s0.6,1,0.8,1.4c0.2,0.4,0.8,2.2,0.8,2.2
							s0.8-1,1.1-1.5c0.4-0.5,0.6-1,0.6-1s0.1-2.2,0-3c0,0,0.4-0.6,0.5-0.8c0.1-0.2,0.6-0.6,0.6-0.6l-2.4-1.1c0,0-4.3,0.8-5.7,2.2
							c-1.4,1.4-2.9,4.1-2.9,4.1c0,1,0.3,3.1,0.3,3.1S610.1,574.7,610.3,574.5z"/>
						<path id="XMLID_752_" class="st5" d="M618.5,574.4c0.4-0.5,1.4-2,1.4-2c0.6-3,0.6-5.3,0.6-5.3s-0.5,0.4-0.6,0.6
							c-0.1,0.2-0.5,0.8-0.5,0.8c0.1,0.8,0,3,0,3s-0.3,0.5-0.6,1c-0.3,0.5-1.1,1.5-1.1,1.5s-0.6-1.8-0.8-2.2
							c-0.2-0.4-0.8-1.4-0.8-1.4s-1,0.4-1.3,0.6c-0.3,0.2-0.8,0.9-0.8,0.9s0.7,0.8,1.2,1.2c0.4,0.3,2.1,1.3,2.1,1.3
							c-0.4,0.3-1.8,1.1-1.8,1.1c-2-0.3-4.1-1.4-4.1-1.4s-0.7,0.4-0.9,0.6c-0.2,0.2-0.5,0.9-0.5,0.9c2.2,0.7,6.7,0.5,6.7,0.5
							S618.1,574.9,618.5,574.4z"/>
					</g>
				</g>
				<path id="XMLID_747_" class="st5" d="M1066.6,759.2l-194.7-80.9c-4.7,43.5-61,109.8-61,109.8l89.1,77l80.2,43.9L1066.6,759.2z"
					/>
			</g>
			<g id="XMLID_719_">
				<path id="XMLID_745_" class="st5" d="M56.2,778.2c0,0,38.4-57.5-44.9-124.4l-25.9,61L56.2,778.2z"/>
				<g id="XMLID_721_">
					<g id="XMLID_730_">
						<path id="XMLID_744_" class="st5" d="M366.2,589.8c-2.6,0.2-14.2,2.6-18.9,3.5c-4.7,0.9-21.1,2.7-21.1,2.7s7.4-3.4,11.9-4.8
							c4.4-1.5,26-8.3,26-8.3s11.2,2.8,14.3,6.3c3.1,3.5,1,19.3,1,19.3s-4.4-11.9-5.6-13.9C372.6,592.5,368.8,589.5,366.2,589.8z"/>
						<path id="XMLID_743_" class="st5" d="M347.9,566.6c-4.6,0-22.6,3-22.6,3c-4.9,0.3-20.6,1.7-20.6,1.7s8.9-3.8,13.9-5.5
							c5-1.7,25.9-6.7,25.9-6.7s10.7,3.1,15,6.9s4.8,16.9,4.8,16.9C358.9,574.9,352.4,566.5,347.9,566.6z"/>
						<g id="XMLID_737_">
							<polygon id="XMLID_742_" class="st5" points="205.2,626.3 205.2,626.3 205.2,626.3 							"/>
							<path id="XMLID_741_" class="st5" d="M156.5,623.3c0,0-1.8,8.4-1.2,20.3c-19.7,6.8-41.7,14.6-59,20.9
								c-26.6,9.7-98.6,23-146.2,31.1c-1.3-12.1-2-21.2-2-21.2S139.4,628.1,156.5,623.3z"/>
							<path id="XMLID_740_" class="st5" d="M211.7,606.9c10.1-3.7,34.2-31.3,41.5-37.3c7.2-6,55.5-21,68.5-25.3
								c13-4.3,16.9-1.2,20,0.6c0.4,0.3,0.8,0.8,1.1,1.4c-5.1,0.3-11.4,0.8-15,1.6c-6.8,1.4-49.8,19.3-60.2,23.6
								c-10.4,4.3-31.4,28.6-36.4,34c-4,4.3-16.8,14-26,20.8l-16.9-12.2C198.3,611.3,207.8,608.4,211.7,606.9z"/>
							<path id="XMLID_739_" class="st5" d="M156.5,623.3c0,0,16.5-4.6,31.7-9.1l16.9,12.2l0,0c0,0-12.9,4.4-30.9,10.6L156.5,623.3z
								"/>
							<path id="XMLID_738_" class="st5" d="M155.3,643.5c-0.6-11.8,1.2-20.3,1.2-20.3l17.8,13.7C168.4,639,162,641.2,155.3,643.5z"
								/>
						</g>
						<path id="XMLID_736_" class="st5" d="M387.1,619.9c-2.3-2.1-8.6-4.7-14.2-4.1c-5.6,0.6-28,4.2-28,4.2s9-5,12.6-5.8
							c3.6-0.9,22-5.6,22-5.6s13.8,5,16,10.9c2.1,5.7,0.3,13.8-1.4,17.4C393.9,628,389.4,622,387.1,619.9z"/>
						<path id="XMLID_735_" class="st5" d="M301.3,676.4c0,0,17.2-4.3,24.9-7.7c7.7-3.4,32.9-13.3,32.9-13.3s-2.8,7.3-6.3,14.9
							c-8.9,2.8-19.6,6.1-22.8,6.4C324.2,677.2,301.3,676.4,301.3,676.4z"/>
						<g id="XMLID_731_">
							<path id="XMLID_734_" class="st5" d="M-42.4,739.2c1.3,4.5,3.4,9.7,5.9,15.2l-7.2-19.8C-43.2,736.2-42.8,737.8-42.4,739.2z"
								/>
							<path id="XMLID_733_" class="st5" d="M67.7,766.1c35.8-17.6,79.1-38.5,118.2-56.5c0,0,7-3.4,16.1-7.6
								c11.3-5.3,25.7-11.9,34.3-15.2c3.1-1.2,5.5-2,6.6-2.1c6.6-0.7,34.9,12.4,46.7,11.3c11.8-1,48.8-4.3,55.2-11.8
								c2.6-3.1,5.5-8.6,8-13.9c-8.9,2.8-19.6,6.1-22.8,6.4c-5.8,0.6-28.7-0.2-28.7-0.2s17.2-4.3,24.9-7.7
								c7.7-3.4,32.9-13.3,32.9-13.3s32.9-14.8,34.7-18.1c0.1-0.2,0.2-0.4,0.3-0.6c-0.1-8.7-4.6-14.7-7-16.9
								c-2.3-2.1-8.6-4.7-14.2-4.1c-5.6,0.6-28,4.2-28,4.2s9-5,12.6-5.8c3.6-0.9,22-5.6,22-5.6s-4.4-11.9-5.6-13.9
								c-1.2-2-5-5-7.6-4.8c-2.6,0.2-14.2,2.6-18.9,3.5c-4.7,0.9-21.1,2.7-21.1,2.7s7.4-3.4,11.9-4.8c4.4-1.5,26-8.3,26-8.3
								c-5.2-8-11.7-16.4-16.3-16.3c-4.6,0-22.6,3-22.6,3c-4.9,0.3-20.6,1.7-20.6,1.7s8.9-3.8,13.9-5.5c5-1.7,25.9-6.7,25.9-6.7
								s0.3-9-1.5-12.8c-5.1,0.3-11.4,0.8-15,1.6c-6.8,1.4-49.8,19.3-60.2,23.6c-10.4,4.3-31.4,28.6-36.4,34
								c-2.9,3.2-10.5,9.1-17.9,14.8c-2.8,2.1-5.5,4.2-8,6c0,0-12.9,4.4-30.9,10.6c-5.9,2-12.3,4.3-19,6.6
								c-19.7,6.8-41.7,14.6-59,20.9c-14.1,5.2-41,11.3-70.2,17.2C31.7,722.6,57.6,754.9,67.7,766.1z"/>
							<path id="XMLID_732_" class="st5" d="M-43.6,734.6l7.2,19.8c10.4,22.4,28.1,49.5,28.1,49.5s32.5-16.4,76.1-37.8
								c-10.1-11.2-36-43.5-41.6-84.5c-25.9,5.2-53.6,10.1-76,14C-48.5,707.7-46.5,722.9-43.6,734.6z"/>
						</g>
					</g>
					<g id="XMLID_722_">
						<path id="XMLID_729_" class="st5" d="M231.3,669.4c0,0,2.4,7.5,3.1,9.7c0.7,2.3,1.9,7.6,1.9,7.6s1.2,0.2,2,0
							c0.8-0.2,1.5-1.3,1.5-1.3s-1.2-5.4-1.8-7.7c-0.5-2.2-2.9-9.8-2.9-9.8L231.3,669.4z"/>
						<path id="XMLID_728_" class="st5" d="M214.6,621.6l3.7-0.5c0,0-1.9-4.3-3.6-8.1c-0.8-1.6-3.9-5.8-3.9-5.8s-1.3,0-1.8,0.1
							c-0.5,0.1-1.6,1.1-1.6,1.1s2.6,4.1,3.7,5.8C212.1,615.9,214.6,621.6,214.6,621.6z"/>
						<g id="XMLID_725_">
							<path id="XMLID_727_" class="st5" d="M211.5,624c0,0,3.9,13.6,7.7,22.8c3.3,8,9.7,21.1,11.4,24.6c1-0.1,2.1-0.2,3-0.5
								c2.4-0.7,5.6-2.9,5.6-2.9s-2.6-16-6.7-26.4c-2.8-7.1-7.7-15.6-10.5-20.3c-2.4,0-5.3,0.2-6.3,0.5
								C214.1,622.4,211.5,624,211.5,624z"/>
							<path id="XMLID_726_" class="st5" d="M214.1,618.2c-2.4,0.6-6.6,3.4-6.6,3.4s6.5,18.6,9.4,25.1c2.9,6.5,10.9,24.9,10.9,24.9
								s1.2,0,2.7-0.1c-1.7-3.5-8.1-16.7-11.4-24.6c-3.8-9.3-7.7-22.8-7.7-22.8s2.5-1.7,4.3-2.2c1-0.3,3.9-0.4,6.3-0.5
								c-1.3-2.2-2.2-3.5-2.2-3.5S216.5,617.6,214.1,618.2z"/>
						</g>
						<path id="XMLID_724_" class="st5" d="M230.8,667.8c0.5,0.7,1.7,1.1,2.6,0.6c0.8-0.5,1.4-1.6,1.1-2.8c-0.4-1.2-1.9-1.4-2.8-1.3
							C230.9,664.4,230,666.6,230.8,667.8z"/>
						<path id="XMLID_723_" class="st5" d="M216.2,620.5c-0.9,0-1.9,0.8-1.9,1.8c0,1,0.5,2.1,1.7,2.5c1.2,0.4,2.2-0.8,2.6-1.5
							C219,622.5,217.7,620.5,216.2,620.5z"/>
					</g>
				</g>
				<path id="XMLID_720_" class="st5" d="M56.2,778.2c0,0-57.6-56.1-44.9-124.4l-40.8,0.5l-53.7,21.5l51.2,141.9l55.4-20.6
					L56.2,778.2z"/>
			</g>
			<g id="XMLID_344_">
				<path id="XMLID_718_" class="st5" d="M507.9,865.5c0,0-40.1-49.1-123-4.1l62.1,48.4L507.9,865.5z"/>
				<path id="XMLID_717_" class="st5" d="M500,829.8c0,0-36.3-59.6-105.7-3.5l40.4,51.3L500,829.8z"/>
				<g id="XMLID_690_">
					<g id="XMLID_700_">
						<path id="XMLID_716_" class="st5" d="M461.9,654.8c-0.9,2.5-4,14.6-5.3,19.4c-1.3,4.8-7,21.1-7,21.1s0.2-8.5,0.8-13.4
							c0.6-4.8,4.1-28.2,4.1-28.2s7.8-9.3,12.5-10.6c4.7-1.4,18.6,7.9,18.6,7.9s-13.3-1.3-15.7-1.1
							C467.4,650.1,462.8,652.3,461.9,654.8z"/>
						<path id="XMLID_715_" class="st5" d="M431.6,661.5c-2.1,4.3-7.5,22.7-7.5,22.7c-1.9,4.8-7.8,20.2-7.8,20.2s0.4-10.1,1.1-15.6
							c0.7-5.5,5.5-27.4,5.5-27.4s7.9-8.7,13.3-11c5.5-2.3,18.1,3.2,18.1,3.2C444.5,654.9,433.7,657.2,431.6,661.5z"/>
						<g id="XMLID_709_">
							<polygon id="XMLID_714_" class="st5" points="422.8,823.1 422.8,823.1 422.8,823.1 							"/>
							<path id="XMLID_713_" class="st5" d="M397.7,867.5c0,0,7.1,5.5,18.5,10.4c-2.5,21.6-5.3,45.9-7.2,65.1
								c-3,29.5-23.3,103.2-37.4,151.8c-12-4.2-20.9-7.8-20.9-7.8S394.5,885.8,397.7,867.5z"/>
							<path id="XMLID_712_" class="st5" d="M407.5,808.1c1.1-11.2-13.9-46.5-16.2-56c-2.3-9.5,5.6-61.8,7.5-76
								c1.9-14.2,6.5-16.4,9.6-18.5c0.5-0.3,1.1-0.4,1.8-0.4c-2,5-4.4,11.2-5.3,14.9c-1.7,7-4.5,55.7-5.2,67.5
								c-0.7,11.8,12.6,42.6,15.4,49.8c2.3,5.8,5.5,22.2,7.7,33.9l-19.2,10.4C405.5,822.7,407.1,812.5,407.5,808.1z"/>
							<path id="XMLID_711_" class="st5" d="M397.7,867.5c0,0,3.2-17.6,5.9-34l19.2-10.4l0,0c0,0-1.7,14.2-4.1,33.9L397.7,867.5z"/>
							<path id="XMLID_710_" class="st5" d="M416.2,877.9c-11.4-4.9-18.5-10.4-18.5-10.4l21-10.5
								C417.9,863.5,417.1,870.5,416.2,877.9z"/>
						</g>
						<path id="XMLID_708_" class="st5" d="M499.7,648.9c-3.1,1.2-8.4,5.9-10.4,11.5c-2,5.5-8.8,28.3-8.8,28.3s-0.6-10.8,0.3-14.6
							c0.8-3.8,4.8-23.2,4.8-23.2s11-10.8,17.6-10.1c6.3,0.6,13.1,6,15.7,9.3C510.5,646.2,502.8,647.7,499.7,648.9z"/>
						<path id="XMLID_707_" class="st5" d="M513.8,755.4c0,0,3.8-18.1,4.1-27c0.3-8.9,2.5-37,2.5-37s5.6,5.9,11.1,12.7
							c-1.4,9.7-3.2,21.2-4.4,24.3C525,734.2,513.8,755.4,513.8,755.4z"/>
						<g id="XMLID_701_">
							<path id="XMLID_706_" class="st5" d="M416.1,1107.6c4.8,0.8,10.7,1.2,17,1.3l-21.9-2.3C412.9,1107,414.5,1107.3,416.1,1107.6
								z"/>
							<g id="XMLID_703_">
								<path id="XMLID_705_" class="st5" d="M494.1,819.5c0.2-2.6,0.5-4.5,0.8-5.4c2.4-6.5,27.6-27.2,32-38.8
									c4.4-11.6,18.2-47.9,14-57.3c-1.7-3.9-5.5-9.1-9.4-13.9c-1.4,9.7-3.2,21.2-4.4,24.3c-2.1,5.7-13.3,26.9-13.3,26.9
									s3.8-18.1,4.1-27c0.3-8.9,2.5-37,2.5-37s1-37.7-1.2-40.9c-0.1-0.1-0.3-0.3-0.4-0.5c-8.3-3.9-16-2.3-19-1.1
									c-3.1,1.2-8.4,6-10.4,11.5c-2,5.5-8.8,28.3-8.8,28.3s-0.6-10.8,0.3-14.6c0.8-3.8,4.8-23.2,4.8-23.2s-13.3-1.3-15.7-1.1
									c-2.4,0.2-7,2.4-8,5c-0.9,2.5-4,14.6-5.3,19.4c-1.3,4.8-7,21.1-7,21.1s0.2-8.5,0.8-13.4c0.6-4.8,4.1-28.2,4.1-28.2
									c-9.9,1.2-20.7,3.6-22.8,7.9c-2.1,4.3-7.5,22.7-7.5,22.7c-1.9,4.8-7.8,20.2-7.8,20.2s0.4-10.1,1.1-15.6
									c0.7-5.5,5.5-27.4,5.5-27.4s-8.4-4.4-12.7-4.4c-2,5-4.4,11.2-5.3,14.9c-1.7,7-4.5,55.7-5.2,67.5
									c-0.7,11.8,12.6,42.6,15.4,49.8c1.6,4.2,3.8,14,5.7,23.6c0.7,3.5,1.4,6.9,1.9,10C455.7,829.4,482.7,823.1,494.1,819.5z"/>
								<path id="XMLID_704_" class="st5" d="M418.7,857c-0.8,6.4-1.6,13.5-2.5,20.9c-2.5,21.6-5.3,45.9-7.2,65.1
									c-1.6,15.7-8.1,43.7-15.9,73.9c41.2,13.4,83.3,3.8,98.5-0.6c-0.2-41.7-0.1-92,0.8-137c0,0,0-8.1,0.2-18.6
									c0.2-13,0.6-29.6,1.3-39.2c0.1-0.6,0.1-1.2,0.2-1.8c-11.4,3.5-38.4,9.8-71.3,3.2c0,0.1,0,0.2,0.1,0.3
									C422.8,823.1,421.1,837.3,418.7,857z"/>
							</g>
							<path id="XMLID_702_" class="st5" d="M411.2,1106.6l21.9,2.3c25.8,0.5,59.4-3.8,59.4-3.8s-0.7-38.1-0.9-88.9
								c-15.1,4.4-57.3,14-98.5,0.6c-6.9,26.7-14.9,55.1-21.5,77.9C383.7,1099,398.9,1104,411.2,1106.6z"/>
						</g>
					</g>
				</g>
				<g id="XMLID_347_">
					<path id="XMLID_688_" class="st5" d="M501.1,857.8l-1.1-28c0,0-48.8,20.5-105.7-3.5l-4.8,27C440.4,873,484.9,862.9,501.1,857.8
						z"/>
					<path id="XMLID_687_" class="st5" d="M498.1,1129.7l4.6-235.2l-1.5-36.7c-16.3,5.1-60.8,15.2-111.6-4.5l-45.1,252L498.1,1129.7
						z"/>
				</g>
				<path id="XMLID_346_" class="st5" d="M507.9,865.5c0,0-56.8,23.8-123-4.1l-58.2,324.9l178.9,28.4l5.3-273.9L507.9,865.5z"/>
			</g>
		</g>
		<g id="XMLID_317_">
			<g id="XMLID_234_">
				<path id="XMLID_264_" class="st6" d="M222.6,316c0,0,0.7,6.7-0.2,14.8c0,0-13.4,32.9-21.1,49.4c-7.7,16.5-26.6,42.4-26.6,42.4
					s-6.7,6.5-10.3,9.6c0,0-6.1-36.4,5.9-67.5C182.3,333.6,222.6,316,222.6,316z"/>
				<g id="XMLID_254_">
					<path id="XMLID_263_" class="st7" d="M334.1,458c-2.6-0.5-14.2-4.4-18.9-5.9c-4.7-1.5-21.4-5.2-21.4-5.2s6.9,4.7,11.2,6.8
						c4.3,2.2,25.2,12.2,25.2,12.2s12.5-2.4,16.6-6.2c4.2-3.8,5.9-22.8,5.9-22.8s-7.6,13.8-9.4,16.1
						C341.5,455.3,336.7,458.5,334.1,458z"/>
					<path id="XMLID_262_" class="st7" d="M308.9,483.9c-4.8-0.4-23-5.6-23-5.6c-5.1-0.8-21.2-3.9-21.2-3.9s8.4,5.4,13.2,7.8
						c4.8,2.5,25.4,10.3,25.4,10.3s12.1-2.8,17.5-6.8c5.4-4.1,9.3-19.7,9.3-19.7C322.7,475,313.7,484.3,308.9,483.9z"/>
					<path id="XMLID_261_" class="st7" d="M275.9,507.9c12.5,6.3,17.4,3,21.1,1.1c0.5-0.3,1-0.8,1.5-1.6c-5.3-0.9-11.8-2-15.4-3.3
						c-6.7-2.3-47.4-27.5-57.2-33.6c-9.8-6.1-25.7-36.9-29.6-43.7c-3.9-6.9-19.8-24.7-27-32.7c-5-5.7-25.3-22.3-38.7-32.8
						c-7.6,20.6-8.1,37.7-8.1,37.7s44.1,19.1,53.8,24.4c9.6,5.3,28,40.3,34,48.1C216.5,479.4,263.4,501.6,275.9,507.9z"/>
					<path id="XMLID_260_" class="st7" d="M363.6,424.1c-3,2.3-10.2,4.8-16,3.6c-5.7-1.2-28.3-7.5-28.3-7.5s8.2,6.8,11.8,8.1
						s21.6,8.6,21.6,8.6s15.8-4.6,19.6-11.5c3.6-6.5,3.8-16.3,2.9-20.8C372.8,415,366.5,421.8,363.6,424.1z"/>
					<path id="XMLID_259_" class="st7" d="M288,349.1c0,0,16.9,6.6,24.2,11.5c7.2,4.8,31.1,18.8,31.1,18.8s-1-8.9-2.8-18.3
						c-8.6-4.2-19-9-22.3-9.7C312.2,350.2,288,349.1,288,349.1z"/>
					<g id="XMLID_255_">
						<path id="XMLID_258_" class="st8" d="M184.1,314.8c0.2-0.4,2.7-2.4,6.2-5.2c-8.5-5.9-15-10.5-15-10.5s-22.1,18.8-37.1,45.7
							c-3.1,5.6-5.5,11.2-7.5,16.5c6.7,5.3,15,12,22.3,18.1C167.7,348.9,183.6,315.5,184.1,314.8z"/>
						<path id="XMLID_257_" class="st8" d="M181.3,407.7c6.4,7.4,12.8,15.2,15.1,19.2c3.9,6.9,19.7,37.7,29.6,43.7
							c9.8,6.1,50.5,31.3,57.2,33.6c3.6,1.2,10.1,2.4,15.4,3.3c2.9-4.3,4.8-15,4.8-15s-20.6-7.8-25.4-10.3
							c-4.8-2.5-13.2-7.8-13.2-7.8s16.1,3.1,21.2,3.9c0,0,18.2,5.2,23,5.6c4.8,0.4,13.7-8.9,21.2-17.9c0,0-20.9-10-25.2-12.2
							c-4.3-2.2-11.2-6.8-11.2-6.8s16.7,3.7,21.4,5.2c4.7,1.5,16.3,5.3,18.9,5.9c2.6,0.5,7.4-2.7,9.2-5c1.8-2.3,9.4-16.1,9.4-16.1
							s-18.1-7.3-21.6-8.6c-3.6-1.3-11.8-8.1-11.8-8.1s22.6,6.3,28.3,7.5c5.7,1.2,13-1.3,16-3.6c3-2.3,9.2-9.1,11.6-19.4
							c0-0.2-0.1-0.5-0.1-0.7c-1.1-4-31.8-24.7-31.8-24.7s-23.9-14-31.1-18.8c-7.2-4.8-24.2-11.5-24.2-11.5s24.2,1.1,30.2,2.3
							c3.3,0.7,13.6,5.5,22.3,9.7c-1.3-6.6-2.9-13.3-4.9-17.2c-4.8-9.6-42.7-16.8-54.9-19.1c-12.1-2.3-45.1,10.6-51.9,9.2
							c-1.1-0.2-3.4-1.4-6.4-3.1c-9.5,12.9-25.5,35-31.9,46.7C186.9,383.9,183.8,395.6,181.3,407.7z"/>
						<path id="XMLID_256_" class="st7" d="M153,379.5c7.4,6.2,13.8,11.8,16.3,14.7c3,3.3,7.4,8.3,11.9,13.6
							c2.5-12.1,5.6-23.8,9.1-30.2c6.5-11.7,22.5-33.8,31.9-46.7c-8.1-4.7-21.6-13.9-32.1-21.2c-3.5,2.8-6,4.8-6.2,5.2
							C183.6,315.5,167.7,348.9,153,379.5z"/>
					</g>
				</g>
				<g id="XMLID_235_">
					<g id="XMLID_240_">
						<path id="XMLID_253_" class="st9" d="M159.2,301.8l-3.4,6.2c0,0,2.5,1.1,6.1,2.7c1.5-2,3-3.9,4.4-5.7
							C162.2,303.2,159.2,301.8,159.2,301.8z"/>
						<path id="XMLID_252_" class="st9" d="M136.4,328.9l-3.6,6.6c0,0,3.5,1.3,8.4,3.2c1.4-2,2.9-4.1,4.4-6.2
							C140.2,330.4,136.4,328.9,136.4,328.9z"/>
						<path id="XMLID_251_" class="st9" d="M123.3,356.1l-2.6,8.8c0,0,2.4,1.5,5.9,3.5c0.9-3,1.9-5.8,2.9-8.6
							C125.8,357.7,123.3,356.1,123.3,356.1z"/>
						<path id="XMLID_250_" class="st9" d="M113.3,383.1l-0.2,7c0,0,2.8,1.8,6.6,4.2c0.5-2,1-4.2,1.5-6.5
							C116.7,385.1,113.3,383.1,113.3,383.1z"/>
						<path id="XMLID_249_" class="st10" d="M192.8,317.6c3.6,2.2,11.6,8.8,17.2,13.4c7.1-8.9,12.6-15,12.6-15s-11.7-9.6-17.7-14.4
							c-6-4.8-26-12.4-26-12.4s-5.4,6.6-12.6,15.8C175,308.9,188.9,315.2,192.8,317.6z"/>
						<path id="XMLID_248_" class="st10" d="M136.4,421.9c8.1,2.8,28,10.3,28,10.3s1.2-6.9,3.5-16.7c-9.1-2.1-21.5-5.2-26.1-7.7
							c-4.8-2.7-15.1-9.2-22-13.5c-2,9.1-3.2,15.6-3.2,15.6S128.2,419.1,136.4,421.9z"/>
						<path id="XMLID_247_" class="st6" d="M150.2,381.3c4,1.7,15.7,4.5,25.5,6.8c0.9-2.7,1.9-5.3,2.9-7.9
							c-8.3-2.3-20.3-5.6-24.7-7.2c-4.8-1.7-16.8-8.7-24.3-13.1c-1,2.7-2,5.6-2.9,8.6C133.7,372.6,145.3,379.3,150.2,381.3z"/>
						<path id="XMLID_246_" class="st10" d="M144.8,400.5c5.6,2.2,16.9,5.5,24.9,7.8c1.6-6.4,3.7-13.4,6-20.3
							c-9.7-2.2-21.4-5.1-25.5-6.8c-4.9-2-16.5-8.7-23.6-12.8c-2,6.5-3.8,13.2-5.3,19.5C128.6,392.2,139.2,398.3,144.8,400.5z"/>
						<path id="XMLID_245_" class="st6" d="M204.9,337.6c1.8-2.3,3.5-4.5,5.1-6.5c-5.6-4.7-13.6-11.2-17.2-13.4
							c-3.9-2.4-17.8-8.8-26.4-12.6c-1.4,1.8-2.9,3.7-4.4,5.7c7.4,3.3,19.4,8.6,23.3,10.7C188.8,323.4,198.3,331.7,204.9,337.6z"/>
						<path id="XMLID_244_" class="st6" d="M167.9,415.5c0.5-2.3,1.1-4.7,1.8-7.3c-7.9-2.3-19.3-5.6-24.9-7.8
							c-5.6-2.2-16.2-8.3-23.5-12.6c-0.5,2.2-1,4.4-1.5,6.5c6.8,4.3,17.2,10.8,22,13.5C146.3,410.4,158.8,413.5,167.9,415.5z"/>
						<path id="XMLID_243_" class="st10" d="M191.1,356.6c4.3-6.5,9.1-13.1,13.7-19c-6.6-5.9-16-14.2-19.6-16.2
							c-3.9-2.2-15.9-7.5-23.3-10.7c-5.4,6.9-11.3,14.6-16.4,21.7c9.9,3.8,24.7,9.6,28.3,11.6C177.3,346,185.6,352.3,191.1,356.6z"
							/>
						<path id="XMLID_242_" class="st10" d="M153.8,373c4.4,1.5,16.4,4.9,24.7,7.2c1.2-2.9,2.4-5.8,3.7-8.4c1.4-2.9,3.2-6,5.1-9.2
							c-6.7-5.4-16.1-12.7-19.9-14.1c-4.1-1.4-17.4-6.4-26.3-9.8c-2.6,3.8-4.9,7.3-6.6,10.2c-1.7,3-3.4,6.8-5,11
							C137,364.3,149.1,371.4,153.8,373z"/>
						<path id="XMLID_241_" class="st6" d="M187.3,362.5c1.2-2,2.5-4,3.8-6c-5.5-4.3-13.9-10.6-17.4-12.6c-3.6-2-18.4-7.8-28.3-11.6
							c-1.6,2.1-3,4.2-4.4,6.2c8.9,3.3,22.3,8.4,26.3,9.8C171.3,349.8,180.7,357.1,187.3,362.5z"/>
					</g>
					<path id="XMLID_239_" class="st6" d="M96.9,356.4c-5.5,13.8-10.6,49.9-13.2,71.2c0.4-0.1,0.9-0.1,1.2-0.2
						c13.9-5,31.7-17.4,31.7-17.4s7.7-43.4,17.9-61.1c10.2-17.8,44.4-59.6,44.4-59.6s0.1-19.5-2.4-27.4c-8.2,3.3-16.8,7.7-23.4,13.1
						C136,289.4,105,336.3,96.9,356.4z"/>
					<g id="XMLID_236_">
						<path id="XMLID_238_" class="st10" d="M33,369.4c17.6,6.8,41.9,13.3,56.6,17c2.2-12.3,4.6-23.6,7.2-30
							c8.1-20.1,39.1-67.1,56.3-81.5c6.5-5.5,15.2-9.8,23.4-13.1c0-0.1-0.1-0.3-0.1-0.4c-2.7-7.6-91.7-60.4-110.5-70.3
							c-18.8-9.8-81.2-47.9-104.4-65.3c0,0-54,80.7-66.6,106.6c-3.2,6.5-5.3,14.4-6.7,22.6c13.7,18.1,33.1,42.6,43.8,51.3
							C-50.3,320.7,6.1,359.1,33,369.4z"/>
						<path id="XMLID_237_" class="st6" d="M-35.9,370.8c18.8,11.9,102.5,59.1,119.6,56.8c1.4-11.4,3.5-27,6-41.2
							c-14.8-3.7-39-10.2-56.6-17c-27-10.3-83.3-48.7-100.9-63.1c-10.6-8.7-30-33.2-43.8-51.3c-4.1,24.1-1.8,50.5-1.8,50.5
							S-55.2,358.6-35.9,370.8z"/>
					</g>
				</g>
			</g>
			<g id="XMLID_205_">
				<g id="XMLID_277_">
					<path id="XMLID_292_" class="st11" d="M610.4,466.6c2.5-0.8,13.3-5.6,17.7-7.5c4.4-1.9,20-7.2,20-7.2s-6.5,4.9-10.5,7.3
						c-4,2.4-23.6,13.7-23.6,13.7s-11.6-0.4-15.4-3.1c-3.8-2.7-5.1-18.6-5.1-18.6s6.9,10.7,8.5,12.4
						C603.6,465.3,607.9,467.4,610.4,466.6z"/>
					<path id="XMLID_291_" class="st11" d="M633.4,485.3c4.5-1,21.5-7.8,21.5-7.8c4.7-1.4,19.8-6.1,19.8-6.1s-7.8,5.7-12.4,8.4
						c-4.5,2.7-23.8,12.1-23.8,12.1s-11.2-0.7-16.1-3.5c-5-2.8-8.4-15.5-8.4-15.5C620.8,479.6,628.9,486.3,633.4,485.3z"/>
					<g id="XMLID_284_">
						<polygon id="XMLID_290_" class="st11" points="759.7,396.1 759.7,396.1 759.7,396.1 						"/>
						<path id="XMLID_223_" class="st11" d="M644.1,505.1c3.4,1.1,7.8,3.3,19.6-3.8c11.8-7,55.6-32.1,61.4-39.5
							c5.8-7.4,23.4-39.6,32.4-45.4c3.6-2.3,12.2-7.2,21.3-12.2c13.9-7.7,29-15.7,29-15.7c15.7-8.4,192.4-95,192.4-95
							s-2.6-8.8-6.5-20.3c-44.7,18.3-112.1,46.8-136,62c-15.6,9.9-35.3,22.2-53.1,33.2c-6,3.7-11.8,7.3-17.1,10.5
							c-16.2,9.9-27.9,17-27.9,17l0,0c-7.5,8.6-17.8,20.8-20.8,25.9c-3.7,6.4-18.9,34.6-28.2,41.1s-47.4,33.3-53.7,36.1
							c-3.4,1.5-9.4,3.4-14.3,4.8C643.1,504.6,643.6,505,644.1,505.1z"/>
					</g>
					<path id="XMLID_283_" class="st11" d="M583.5,441.8c2.7,1.6,9.4,2.7,14.8,1c5.4-1.8,26.5-10.1,26.5-10.1s-7.7,6.8-11.1,8.4
						c-3.3,1.6-20.2,10.2-20.2,10.2s-14.6-1.8-18-7.2c-3.3-5.1-3.3-13.4-2.3-17.3C575.1,435.3,580.8,440.2,583.5,441.8z"/>
					<path id="XMLID_280_" class="st11" d="M655,368c0,0-15.8,7.9-22.6,12.9c-6.8,5-29.2,20.1-29.2,20.1s1.1-7.7,2.9-15.9
						c8.1-4.7,17.8-10.1,20.8-11.2C632.5,372.1,655,368,655,368z"/>
					<path id="XMLID_279_" class="st12" d="M738.9,422c-3.7,6.4-18.9,34.6-28.2,41.1c-9.2,6.5-47.4,33.3-53.7,36.1
						c-3.4,1.5-9.4,3.4-14.3,4.8c-2.6-3.3-4.3-12.1-4.3-12.1s19.3-9.4,23.8-12.1c4.5-2.7,12.4-8.4,12.4-8.4s-15,4.7-19.8,6.1
						c0,0-17,6.8-21.5,7.8c-4.5,1-12.6-5.7-19.4-12.4c0,0,19.6-11.3,23.6-13.7c4-2.4,10.5-7.3,10.5-7.3s-15.6,5.4-20,7.2
						c-4.4,1.9-15.2,6.7-17.7,7.5c-2.5,0.8-6.8-1.3-8.4-3c-1.6-1.7-8.5-12.4-8.5-12.4s16.9-8.6,20.2-10.2c3.3-1.6,11.1-8.4,11.1-8.4
						s-21.1,8.4-26.5,10.1c-5.4,1.8-12,0.6-14.8-1c-2.7-1.6-8.4-6.5-10.4-14.9c0-0.2,0.1-0.4,0.1-0.6c1.1-3.6,29.9-25.2,29.9-25.2
						s22.4-15.1,29.2-20.1c6.8-5,22.6-12.9,22.6-12.9s-22.5,4.2-28.1,6c-3,1-12.8,6.5-20.8,11.2c1.3-5.7,2.9-11.7,4.8-15.3
						c4.6-8.8,40-19.9,51.3-23.5c11.3-3.6,41.8,3.1,48.1,0.9c1.1-0.4,3.2-1.6,6-3.5c7.6-5.1,20.3-14.7,30.2-22.3
						c8-6.1,14.1-10.9,14.1-10.9c76-57.6,169.3-134.1,169.3-134.1s35.9,35.1,47.2,55.8c6,11.1,12.3,27.8,16.7,41
						c-44.7,18.3-112.1,46.8-136,62c-15.6,9.9-35.3,22.2-53.1,33.2c-6,3.7-11.8,7.3-17.1,10.5c-16.2,9.9-27.8,17-27.9,17
						c-2,2.3-4.3,5-6.5,7.6C747.2,410.8,741.1,418.3,738.9,422z"/>
				</g>
				<g id="XMLID_152_">
					<g id="XMLID_294_">
						<path id="XMLID_300_" class="st13" d="M762.1,359.9c6.5,10.8,24.2,33.2,32.1,43c0.5-0.3,1-0.6,1.4-0.9
							c3.1-2.1,8.9-10.8,8.9-10.8s-18.8-34-24.7-43.3c-5.9-9.2-24-35.2-24-35.2s-8.6,1.4-11,2.8c-0.7,0.4-2.5,1.9-3.9,2.9
							C746,329.2,755.8,349.4,762.1,359.9z"/>
						<path id="XMLID_295_" class="st13" d="M754,364.7c6.3,10,29.1,42,29.1,42s7.4-1.7,11.1-3.8c-7.9-9.9-25.6-32.3-32.1-43
							c-6.3-10.4-16.1-30.7-21.3-41.4c-3.5,2.5-6.7,8.6-6.7,8.6S747.7,354.7,754,364.7z"/>
					</g>
					<g id="XMLID_265_">
						<path id="XMLID_293_" class="st14" d="M756.7,329.8l0-3.5c0,0-4.4,0.8-6.7,2.2c-2.4,1.3-5,4.5-5,4.5l3.6,2.5L756.7,329.8z"/>
						<g id="XMLID_266_">
							<path id="XMLID_276_" class="st15" d="M771.1,326.3c3.6,0.6,12.3,4.4,17.3,8.1c4.9,3.6,10.4,16.7,11,22.7
								c0.6,6-10.4,21-15.7,25.2c-5.3,4.1-21.6,2.4-29-1.7c-7.4-4.2-16.6-22.7-17.2-29.1c-0.6-6.4,10.8-17.7,13.2-19.7
								C753,329.6,767.5,325.7,771.1,326.3z"/>
							<g id="XMLID_273_">
								<path id="XMLID_275_" class="st14" d="M773.7,341.5c4.8,3.2,10.1,16.4,10.2,20.8c0,1.3-0.8,2.9-1.9,4.5
									c1-0.9,1.8-1.7,2.3-2.3c1.4-1.9,3.5-11.4,3.1-13.3c-0.4-2-3.5-11.9-7.3-13.5c-3.3-1.3-13.5-1.8-19.3,0
									C765.4,337.9,770.7,339.5,773.7,341.5z"/>
								<path id="XMLID_274_" class="st16" d="M748.5,354.9c0.8,4.3,6.1,15.1,9.7,16.6c3.6,1.5,12.7,2.3,16.3,0.5
									c2.4-1.2,5.4-3.3,7.6-5.2c1.1-1.6,1.9-3.2,1.9-4.5c-0.1-4.4-5.3-17.6-10.2-20.8c-3-2-8.4-3.5-12.9-3.8
									c-1,0.3-1.9,0.7-2.6,1.1C753.6,341.8,747.7,350.6,748.5,354.9z"/>
							</g>
							<path id="XMLID_270_" class="st13" d="M766.8,352.1c1.4-0.1,2.8,0.1,3.5,1.5c0.7,1.4,0.3,3.6-0.9,4.4c-1.2,0.8-4-0.2-4.6-1
								c-0.7-0.7-0.9-3.1-0.3-3.8C765,352.5,766.1,352.2,766.8,352.1z"/>
							<path id="XMLID_267_" class="st13" d="M768.2,353.9l5.5-4.7c0,0,2,0,2.4,0.5c0.5,0.5,0.1,2.7,0.1,2.7l-7.7,3.1l-0.7,13.9
								c0,0-1.4,0.7-2.4,0.9c-1,0.2-2.6-1.1-2.6-1.1l4.3-14.8L768.2,353.9z"/>
						</g>
					</g>
				</g>
			</g>
			<g id="XMLID_201_">
				<path id="XMLID_268_" class="st17" d="M817.2,765.5c0,0-7-54.1,53.8-113.5l37.6,30.4L817.2,765.5z"/>
				<g id="XMLID_190_">
					<g id="XMLID_222_">
						<path id="XMLID_233_" class="st7" d="M577.2,575.2c2.5,0.5,13.8,4.1,18.4,5.4c4.6,1.3,20.7,4.9,20.7,4.9s-7-4.1-11.3-6.1
							c-4.2-1.9-25-10.9-25-10.9s-11.4,1.7-14.9,4.8c-3.5,3.1-3,19.1-3,19.1s5.6-11.4,7-13.3C570.6,577.3,574.7,574.7,577.2,575.2z"
							/>
						<path id="XMLID_232_" class="st7" d="M597.9,554.1c4.5,0.5,22.2,5.3,22.2,5.3c4.9,0.8,20.4,3.8,20.4,3.8s-8.4-4.7-13.2-6.9
							c-4.8-2.2-25-9.3-25-9.3s-11,2-15.6,5.3c-4.6,3.3-6.5,16.3-6.5,16.3C586.1,561.2,593.4,553.6,597.9,554.1z"/>
						<path class="st7" d="M782.3,630.3c0,0-15.9-6.3-30.6-12.3c-9.6-4-18.8-7.8-22.6-9.7c-9.6-4.7-30.8-34.7-37.4-41.4
							c-6.6-6.7-53-26.6-65.5-32.3c-12.5-5.6-16.6-3-19.9-1.5c-0.5,0.2-0.9,0.7-1.3,1.3c5.1,0.9,11.3,2,14.8,3.2
							c6.6,2.1,47.5,24.4,57.5,29.8c9.9,5.4,28.2,31.7,32.7,37.6c3.6,4.7,15.3,15.7,23.7,23.4l0,0l0,0c0,0,12.4,5.7,29.6,13.8
							c5.6,2.6,11.8,5.5,18.2,8.5c18.9,8.9,39.9,18.8,56.5,26.9c25.5,12.4,95.6,33.1,142.2,46.1c2.6-11.9,4.2-20.9,4.2-20.9
							S798.9,636.9,782.3,630.3z"/>
						<path id="XMLID_225_" class="st7" d="M553.4,603c2.5-1.9,9.1-3.8,14.6-2.6c5.5,1.1,27.4,7.1,27.4,7.1s-8.5-5.9-12-7.1
							c-3.5-1.2-21.3-7.8-21.3-7.8s-14.3,3.5-17.1,9.2c-2.7,5.4-1.7,13.7-0.4,17.4C545.7,610.4,550.9,604.9,553.4,603z"/>
						<path id="XMLID_224_" class="st7" d="M632.8,668.2c0,0-16.6-6-24-10.3c-7.3-4.2-31.3-16.6-31.3-16.6s2,7.6,4.7,15.4
							c8.6,3.7,18.8,8.1,22,8.7C609.9,666.6,632.8,668.2,632.8,668.2z"/>
						<g id="XMLID_271_">
							<path id="XMLID_299_" class="st8" d="M553.4,603c-2.5,1.9-7.7,7.4-8.7,16c0.1,0.2,0.1,0.4,0.2,0.6
								c1.5,3.4,32.6,21.6,32.6,21.6s24,12.4,31.3,16.6c7.3,4.2,24,10.3,24,10.3s-22.9-1.6-28.6-2.8c-3.1-0.7-13.4-5-22-8.7
								c1.9,5.6,4.2,11.3,6.5,14.6c5.5,8.2,42,15.2,53.6,17.5c11.6,2.3,41.1-7.8,47.6-6.4c1.1,0.2,3.4,1.3,6.3,2.8
								c8.2,4.2,21.9,12.3,32.5,18.7c8.6,5.2,15.2,9.3,15.2,9.3c20.8,12.3,42.9,25.8,64.3,38.9c8.5-12.1,27.9-41.2,39.8-70
								c-3.9-1.6-7.4-3.1-10.3-4.5c-16.6-8.1-37.6-18.1-56.5-26.9c-6.4-3-12.6-5.9-18.2-8.5c-17.2-8-29.6-13.7-29.6-13.8
								c-2.3-2.1-4.8-4.4-7.4-6.8c-6.8-6.4-13.7-13.1-16.3-16.5c-4.4-5.9-22.7-32.2-32.7-37.6c-9.9-5.4-50.9-27.6-57.5-29.8
								c-3.5-1.1-9.7-2.3-14.8-3.2c-2.2,3.5-2.8,12.5-2.8,12.5s20.2,7.1,25,9.3c4.8,2.2,13.2,6.9,13.2,6.9s-15.5-3-20.4-3.8
								c0,0-17.7-4.8-22.2-5.3c-4.5-0.5-11.9,7.1-17.9,14.5c0,0,20.8,9,25,10.9c4.2,1.9,11.3,6.1,11.3,6.1s-16.1-3.6-20.7-4.9
								c-4.6-1.3-15.9-4.9-18.4-5.4c-2.5-0.5-6.6,2.1-8,4c-1.4,1.9-7,13.3-7,13.3s17.8,6.6,21.3,7.8c3.5,1.2,12,7.1,12,7.1
								s-21.9-5.9-27.4-7.1C562.4,599.2,555.9,601.1,553.4,603z"/>
							<path id="XMLID_301_" class="st7" d="M808.4,752.1c62.8,38.7,119.2,75,119.2,75s31.7-38.9,40.5-60.8c4.7-11.7,9-29,12-42.6
								c-41.3-11.6-101.1-29.1-131.9-41.6C836.3,710.9,816.9,740,808.4,752.1z"/>
						</g>
					</g>
					<g id="XMLID_195_">
						<path id="XMLID_221_" class="st9" d="M759.2,652.8c-2.3,0.2-4.5,1.1-4.5,1.1s-0.3-1.5-0.8-3.3c-0.7,2.5-1.5,4.9-2.5,6.9
							c-6.1,12.1-27.2,43.6-27.2,43.6s25.1-21.6,31.5-35.4C757.2,662.2,758.3,657.6,759.2,652.8z"/>
						<g id="XMLID_207_">
							<path id="XMLID_220_" class="st9" d="M721,633l-3,6.3c0,0,1.4,0.1,3.1,0.4c0.8-2.1,1.7-4.5,2.6-6.9
								C722.1,632.9,721,633,721,633z"/>
							<path id="XMLID_219_" class="st9" d="M714.2,648l-5.2,9.5c0,0,0.5,1.7,1.2,3.7c1.9-3.1,3.6-6.1,5.1-8.7
								C714.6,650.2,714.2,648,714.2,648z"/>
							<path id="XMLID_218_" class="st9" d="M706.2,661.3l-4.8,8.3c0,0,0.7,1.4,1.7,3c1.6-2.4,3.2-5,4.9-7.7
								C707,663,706.2,661.3,706.2,661.3z"/>
							<path id="XMLID_217_" class="st9" d="M718.3,646.6c0.4-1.1,1-2.3,1.5-3.7c-1.2-0.2-2.2-0.4-2.2-0.4l-1.5,3.7
								c0,0,0.4,1.3,1,2.9C717.6,648.2,718,647.4,718.3,646.6z"/>
						</g>
						<g id="XMLID_200_">
							<path id="XMLID_206_" class="st9" d="M730.2,614.7c-0.7-0.1-1.1-0.1-1.1-0.1l-1.9,3l-1,3.6c0.4,0.1,1,0.1,1.6,0.2
								C728.7,618.9,729.5,616.6,730.2,614.7z"/>
						</g>
						<path id="XMLID_199_" class="st18" d="M753.8,650.6c-0.8-2.6-2.2-6-4.3-6.9c-1.7-0.7-3.4-1-4.7-1c-0.6,3.5-1.4,7.1-2.5,10.4
							c-3.5,10.5-27.2,42.6-27.2,42.6s2.7,3,4.4,4.1c1.7,1.1,4.6,1.2,4.6,1.2s21.1-31.5,27.2-43.6
							C752.3,655.5,753.1,653.1,753.8,650.6z"/>
						<path id="XMLID_198_" class="st19" d="M753.8,650.6c3.6-12.8,3.7-30.2,3.7-30.2s-4.3-3.5-6.2-4.3c-1.9-0.8-4.8-0.2-4.8-0.2
							s0.8,13.2-1.6,26.8c1.3,0.1,2.9,0.3,4.7,1C751.6,644.6,753,648,753.8,650.6z"/>
						<path id="XMLID_197_" class="st19" d="M765.2,622.2c-1.8-0.5-4-0.4-4-0.4s0.4,16.7-2,30.9c0.8-0.1,1.6-0.1,2.3,0.1
							c1.4,0.3,3,3.3,4.3,6.1c2-13.3,4.3-33.5,4.3-33.5S767,622.7,765.2,622.2z"/>
						<path id="XMLID_196_" class="st18" d="M761.5,652.9c-0.7-0.2-1.5-0.2-2.3-0.1c-0.8,4.8-2,9.4-3.6,12.9
							c-6.4,13.8-31.5,35.4-31.5,35.4s2.2,3.3,3.4,3.8c1.1,0.5,5.1,1.3,5.1,1.3s29.6-28.8,31.7-38.8c0.4-2,0.9-5,1.4-8.4
							C764.5,656.1,762.8,653.2,761.5,652.9z"/>
					</g>
					<path id="XMLID_194_" class="st18" d="M604.8,579.4c0,0,4.9-10.1,7.7-13.1c2.7-3,14.8-10,14.8-10s-2-1.6-3-2.1
						c-1-0.5-2.5-0.2-2.5-0.2s-10.4,6.2-13,8.4c-2.6,2.2-8.5,15-8.5,15S602.1,579.1,604.8,579.4z"/>
					<g id="XMLID_191_">
						<path id="XMLID_193_" class="st16" d="M603.3,565.3c0.2-0.2,0.9-0.7,0.9-0.7s2.2,1,4.2,1.2c0,0,1.4-0.9,1.7-1.2
							c0,0-1.7-0.9-2.1-1.2c-0.5-0.3-1.2-1.1-1.2-1.1s0.4-0.7,0.7-0.9c0.3-0.2,1.3-0.7,1.3-0.7s0.6,0.9,0.9,1.3c0.2,0.4,1,2.2,1,2.2
							s0.7-1,1-1.5c0.3-0.5,0.6-1,0.6-1s0-2.2-0.2-2.9c0,0,0.3-0.6,0.4-0.8c0.1-0.2,0.5-0.6,0.5-0.6l-2.5-0.9c0,0-4.2,1-5.5,2.6
							c-1.3,1.5-2.6,4.3-2.6,4.3c0.1,1,0.5,3.1,0.5,3.1S603.2,565.5,603.3,565.3z"/>
						<path id="XMLID_192_" class="st20" d="M611.5,564.6c0.3-0.5,1.2-2.1,1.2-2.1c0.4-3,0.3-5.3,0.3-5.3s-0.4,0.4-0.5,0.6
							c-0.1,0.2-0.4,0.8-0.4,0.8c0.2,0.8,0.2,2.9,0.2,2.9s-0.3,0.5-0.6,1c-0.3,0.5-1,1.5-1,1.5s-0.7-1.7-1-2.2
							c-0.2-0.4-0.9-1.3-0.9-1.3s-1,0.5-1.3,0.7c-0.3,0.2-0.7,0.9-0.7,0.9s0.8,0.8,1.2,1.1c0.5,0.3,2.1,1.2,2.1,1.2
							c-0.4,0.3-1.7,1.2-1.7,1.2c-2-0.2-4.2-1.2-4.2-1.2s-0.7,0.5-0.9,0.7c-0.2,0.2-0.4,0.9-0.4,0.9c2.3,0.6,6.7,0,6.7,0
							S611.2,565.2,611.5,564.6z"/>
					</g>
				</g>
				<path id="XMLID_269_" class="st13" d="M1070.6,720.3L871.1,652c-1.9,43.8-53.8,113.5-53.8,113.5l93.9,71.1l82.8,38.6
					L1070.6,720.3z"/>
			</g>
			<g id="XMLID_179_">
				<path id="XMLID_202_" class="st21" d="M63.4,804.2c0,0,34.6-59.8-52.8-121.3l-21.9,62.5L63.4,804.2z"/>
				<g id="XMLID_153_">
					<g id="XMLID_177_">
						<path id="XMLID_189_" class="st22" d="M360.7,596.2c-2.6,0.4-14,3.5-18.6,4.7c-4.6,1.2-20.9,4.1-20.9,4.1s7.2-3.8,11.5-5.6
							c4.3-1.8,25.4-9.9,25.4-9.9s11.4,2.1,14.7,5.4c3.4,3.2,2.2,19.2,2.2,19.2s-5.2-11.6-6.5-13.6
							C367.3,598.6,363.3,595.8,360.7,596.2z"/>
						<path id="XMLID_188_" class="st22" d="M340.9,574.2c-4.6,0.3-22.4,4.4-22.4,4.4c-4.9,0.6-20.5,3-20.5,3s8.6-4.4,13.5-6.4
							c4.9-2,25.4-8.3,25.4-8.3s10.9,2.4,15.4,5.9c4.5,3.5,5.9,16.6,5.9,16.6C352.5,581.8,345.5,573.9,340.9,574.2z"/>
						<path class="st22" d="M333.3,553c-3.2-1.6-7.3-4.4-19.9,0.7c-12.7,5.1-59.9,23.2-66.7,29.6c-6.8,6.4-29.2,35.5-39,39.9
							c-3.9,1.7-13.2,5.2-23,8.8c-14.9,5.4-31.1,11.1-31.1,11.1C136.8,649.1-51,707.5-51,707.5s1.2,9.1,3.3,21
							c47-11.2,118-29,143.9-40.5c16.9-7.4,38.3-16.6,57.5-24.7c6.5-2.7,12.8-5.4,18.5-7.8c17.5-7.4,30.1-12.6,30.1-12.6h0l0,0
							c8.7-7.4,20.8-17.8,24.6-22.4c4.7-5.7,24-31.3,34.1-36.3c10.1-5,51.9-25.6,58.6-27.5c3.5-1,9.8-1.9,14.9-2.6
							C334.2,553.7,333.8,553.3,333.3,553z"/>
						<path id="XMLID_181_" class="st22" d="M383.5,624.9c-2.4-2-8.9-4.2-14.5-3.2c-5.6,0.9-27.7,6-27.7,6s8.7-5.6,12.2-6.6
							c3.5-1.1,21.6-7,21.6-7s14.1,4.1,16.7,9.8c2.4,5.5,1.2,13.7-0.3,17.4C390.8,632.6,385.9,626.9,383.5,624.9z"/>
						<path id="XMLID_180_" class="st22" d="M301.6,686.9c0,0,16.9-5.4,24.4-9.3c7.5-3.9,31.9-15.4,31.9-15.4s-2.3,7.5-5.3,15.2
							c-8.7,3.4-19.1,7.3-22.3,7.8C324.5,686.2,301.6,686.9,301.6,686.9z"/>
						<g id="XMLID_204_">
							<path id="XMLID_210_" class="st8" d="M-37.4,771.7c1.6,4.4,4,9.5,6.9,14.8l-8.4-19.3C-38.4,768.7-37.9,770.2-37.4,771.7z"/>
							<path id="XMLID_211_" class="st23" d="M74.2,791.4c34.6-19.8,76.5-43.5,114.3-63.9c0,0,6.8-3.8,15.6-8.6
								c10.9-6,24.9-13.5,33.2-17.4c3-1.4,5.3-2.4,6.4-2.5c6.5-1.1,35.6,10.1,47.4,8.3c11.7-1.8,48.4-7.4,54.3-15.4
								c2.4-3.3,5-8.9,7.1-14.4c-8.7,3.4-19.1,7.3-22.3,7.8c-5.7,1-28.7,1.6-28.7,1.6s16.9-5.4,24.4-9.3
								c7.5-3.9,31.9-15.4,31.9-15.4s31.8-16.9,33.4-20.3c0.1-0.2,0.1-0.4,0.2-0.6c-0.7-8.7-5.6-14.4-8-16.4
								c-2.4-2-8.9-4.2-14.5-3.2c-5.6,0.9-27.7,6-27.7,6s8.7-5.6,12.2-6.6c3.5-1.1,21.6-7,21.6-7s-5.2-11.6-6.5-13.6
								c-1.3-1.9-5.3-4.7-7.9-4.3c-2.6,0.4-14,3.5-18.6,4.7c-4.6,1.2-20.9,4.1-20.9,4.1s7.2-3.8,11.5-5.6c4.3-1.8,25.4-9.9,25.4-9.9
								c-5.7-7.7-12.7-15.6-17.3-15.2c-4.6,0.3-22.4,4.4-22.4,4.4c-4.9,0.6-20.5,3-20.5,3s8.6-4.4,13.5-6.4c4.9-2,25.4-8.3,25.4-8.3
								s-0.3-9-2.3-12.7c-5.1,0.7-11.4,1.6-14.9,2.6c-6.7,1.9-48.5,22.5-58.6,27.5c-10.1,5-29.5,30.6-34.1,36.3
								c-2.7,3.3-9.9,9.8-16.9,15.9c-2.6,2.3-5.3,4.5-7.6,6.5c0,0-12.6,5.2-30.1,12.6c-5.7,2.4-12,5-18.5,7.8
								c-19.2,8.1-40.6,17.2-57.5,24.7c-13.8,6.1-40.2,13.9-69,21.6C35.5,750.3,63.4,780.8,74.2,791.4z"/>
							<path id="XMLID_212_" class="st22" d="M-38.9,767.1l8.4,19.3C-18.8,808.1,0.7,834,0.7,834s31.3-18.5,73.5-42.7
								c-10.8-10.5-38.7-41.1-46.9-81.6c-25.5,6.8-52.8,13.6-74.9,18.8C-45.6,740.6-42.5,755.6-38.9,767.1z"/>
						</g>
					</g>
					<g id="XMLID_154_">
						<path id="XMLID_176_" class="st18" d="M231.2,684.4c0,0,2.9,7.3,3.8,9.5c0.9,2.2,2.4,7.5,2.4,7.5s1.2,0.1,2-0.1
							c0.8-0.3,1.4-1.4,1.4-1.4s-1.6-5.4-2.3-7.6c-0.7-2.2-3.6-9.5-3.6-9.5L231.2,684.4z"/>
						<path id="XMLID_173_" class="st18" d="M211.4,637.8l3.7-0.8c0,0-2.2-4.2-4.1-7.8c-0.9-1.6-4.3-5.5-4.3-5.5s-1.3,0.1-1.8,0.2
							c-0.5,0.1-1.6,1.2-1.6,1.2s2.9,3.9,4.1,5.6C208.6,632.3,211.4,637.8,211.4,637.8z"/>
						<g id="XMLID_170_">
							<path id="XMLID_172_" class="st16" d="M208.5,640.4c0,0,4.7,13.3,9.1,22.3c3.8,7.7,11,20.4,12.9,23.9c1-0.1,2.1-0.4,3-0.7
								c2.3-0.9,5.4-3.3,5.4-3.3s-3.6-15.8-8.3-25.9c-3.2-6.9-8.7-15.1-11.8-19.6c-2.3,0.2-5.3,0.5-6.2,0.9
								C211,638.6,208.5,640.4,208.5,640.4z"/>
							<path id="XMLID_171_" class="st24" d="M210.8,634.3c-2.4,0.7-6.3,3.8-6.3,3.8s7.7,18.1,11,24.4c3.3,6.3,12.5,24.2,12.5,24.2
								s1.2,0,2.7-0.2c-2-3.4-9.1-16.1-12.9-23.9c-4.4-9-9.1-22.3-9.1-22.3s2.4-1.8,4.1-2.4c1-0.3,3.9-0.7,6.2-0.9
								c-1.5-2.1-2.4-3.4-2.4-3.4S213.1,633.6,210.8,634.3z"/>
						</g>
						<path id="XMLID_156_" class="st18" d="M230.7,682.8c0.6,0.7,1.8,1,2.6,0.4c0.8-0.6,1.3-1.7,0.9-2.9c-0.4-1.1-1.9-1.2-2.8-1.1
							C230.5,679.4,229.7,681.7,230.7,682.8z"/>
						<path id="XMLID_155_" class="st18" d="M213,636.6c-0.9,0.1-1.8,0.9-1.8,1.9c0,1,0.7,2.1,1.8,2.4c1.2,0.3,2.1-0.9,2.5-1.7
							C215.9,638.3,214.5,636.4,213,636.6z"/>
					</g>
				</g>
				<path id="XMLID_203_" class="st25" d="M63.4,804.2c0,0-61.1-52.2-52.8-121.3l-40.7,3.1l-52.2,24.9l60.2,138.3l54-24.1
					L63.4,804.2z"/>
			</g>
			<g id="XMLID_157_">
				<path id="XMLID_208_" class="st26" d="M519.8,862.3c0,0-43.2-46.4-123,3.8l65.1,44.3L519.8,862.3z"/>
				<path id="XMLID_168_" class="st27" d="M509.7,827.1c0,0-40.1-57.2-105.7,3.3l43.7,48.6L509.7,827.1z"/>
				<g id="XMLID_214_">
					<g id="XMLID_319_">
						<path id="XMLID_333_" class="st7" d="M460.4,655c-0.8,2.6-3.1,14.8-4.1,19.7c-1,4.9-5.7,21.5-5.7,21.5s-0.3-8.5,0-13.4
							c0.3-4.9,2.3-28.4,2.3-28.4s7.2-9.7,11.8-11.4c4.6-1.7,19.1,6.7,19.1,6.7s-13.3-0.4-15.7-0.1
							C465.6,649.9,461.1,652.4,460.4,655z"/>
						<path id="XMLID_332_" class="st7" d="M430.6,663.6c-1.8,4.4-6,23.1-6,23.1c-1.6,4.9-6.5,20.7-6.5,20.7s-0.2-10.1,0.1-15.6
							c0.3-5.5,3.8-27.7,3.8-27.7s7.3-9.2,12.6-11.8c5.3-2.6,18.3,2,18.3,2C443,656.2,432.4,659.2,430.6,663.6z"/>
						<path class="st7" d="M432.2,825.4c-3-11.6-7.3-27.7-9.9-33.3c-3.3-7-18.5-36.9-18.6-48.7c-0.1-11.8-0.4-60.6,0.9-67.7
							c0.7-3.8,2.7-10.1,4.4-15.2c-0.7,0.1-1.4,0.2-1.8,0.5c-3,2.3-7.5,4.8-8.4,19.1c-0.9,14.3-5.5,67-2.6,76.3
							c2.9,9.4,20.1,43.7,19.8,54.9c-0.1,4.4-1.1,14.8-2.2,25.6c-1.7,16.5-3.7,34.3-3.7,34.3c-2.1,18.5-32.7,222-32.7,222
							s9.1,3,21.3,6.5c10.9-49.4,26.5-124.3,27.6-153.9c0.7-19.3,1.9-43.6,3-65.4c0.4-7.4,0.8-14.5,1.1-21
							C431.4,839.7,432.2,825.4,432.2,825.4L432.2,825.4L432.2,825.4z"/>
						<path id="XMLID_325_" class="st7" d="M497.7,646.7c-3,1.4-8,6.5-9.6,12.1c-1.7,5.7-7,28.8-7,28.8s-1.3-10.7-0.7-14.5
							c0.6-3.8,3.3-23.5,3.3-23.5s10.3-11.5,16.9-11.2c6.3,0.2,13.5,5.2,16.2,8.2C508.3,643.3,500.7,645.3,497.7,646.7z"/>
						<path id="XMLID_324_" class="st7" d="M518.7,752c0,0,2.6-18.3,2.3-27.2c-0.3-8.9,0.1-37.1,0.1-37.1s6,5.5,11.9,12
							c-0.8,9.8-1.9,21.3-2.8,24.6C528.5,730.2,518.7,752,518.7,752z"/>
						<g id="XMLID_320_">
							<path id="XMLID_323_" class="st8" d="M443.8,1109.8c4.8,0.5,10.7,0.5,17.1,0.3l-22-0.9
								C440.6,1109.4,442.2,1109.6,443.8,1109.8z"/>
							<g id="XMLID_169_">
								<path id="XMLID_215_" class="st8" d="M503.1,817.3c0.1-2.6,0.2-4.5,0.5-5.4c1.9-6.7,25.8-28.9,29.4-40.8
									c3.7-11.9,15.1-48.9,10.3-58.1c-2-3.8-6.1-8.7-10.3-13.3c-0.8,9.8-1.9,21.3-2.8,24.6c-1.7,5.8-11.5,27.7-11.5,27.7
									s2.6-18.3,2.3-27.2c-0.3-8.9,0.1-37.1,0.1-37.1s-1.4-37.7-3.9-40.7c-0.1-0.1-0.3-0.3-0.4-0.5c-8.5-3.3-16.1-1.3-19.1,0.1
									c-3,1.4-8,6.5-9.6,12.1c-1.7,5.7-7,28.8-7,28.8s-1.3-10.7-0.7-14.5c0.6-3.8,3.3-23.5,3.3-23.5s-13.3-0.4-15.7-0.1
									c-2.4,0.4-6.8,2.9-7.6,5.5c-0.8,2.6-3.1,14.8-4.1,19.7c-1,4.9-5.7,21.5-5.7,21.5s-0.3-8.5,0-13.4c0.3-4.9,2.3-28.4,2.3-28.4
									c-9.8,1.9-20.5,4.9-22.2,9.3c-1.8,4.4-6,23.1-6,23.1c-1.6,4.9-6.5,20.7-6.5,20.7s-0.2-10.1,0.1-15.6
									c0.3-5.5,3.8-27.7,3.8-27.7s-8.6-3.9-13-3.6c-1.7,5.1-3.7,11.4-4.4,15.2c-1.3,7.1-0.9,55.9-0.9,67.7
									c0.1,11.8,15.3,41.7,18.6,48.7c1.9,4.1,4.7,13.8,7.2,23.2c0.9,3.4,1.8,6.8,2.6,9.9C465.4,829.6,492,821.5,503.1,817.3z"/>
								<path id="XMLID_216_" class="st7" d="M430.3,859.5c-0.4,6.5-0.7,13.6-1.1,21c-1.1,21.8-2.3,46.1-3,65.4
									c-0.6,15.7-5.2,44.2-11.1,74.8c41.9,10.7,83.4-1.6,98.2-7c-2.9-41.6-6.1-91.8-8-136.8c0,0-0.5-8.1-1-18.6
									c-0.7-13-1.4-29.6-1.2-39.2c0-0.7,0-1.2,0-1.8c-11.1,4.2-37.7,12.3-70.9,7.8c0,0.1,0.1,0.2,0.1,0.3
									C432.2,825.5,431.4,839.7,430.3,859.5z"/>
							</g>
							<path id="XMLID_321_" class="st8" d="M438.9,1109.1l22,0.9c25.8-1.2,59-7.7,59-7.7s-3.1-37.9-6.6-88.6
								c-14.8,5.3-56.3,17.7-98.2,7c-5.2,27.1-11.3,55.9-16.5,79.1C410.9,1103.3,426.4,1107.3,438.9,1109.1z"/>
						</g>
					</g>
				</g>
				<g id="XMLID_213_">
					<path id="XMLID_296_" class="st16" d="M512.6,855l-2.9-27.9c0,0-47.4,23.6-105.7,3.3l-3.1,27.3
						C453,874.1,496.7,861.1,512.6,855z"/>
					<path id="XMLID_302_" class="st27" d="M527,1126.6l-10.6-235l-3.8-36.5c-15.9,6.1-59.7,19.1-111.7,2.7l-28.8,254.4L527,1126.6z
						"/>
				</g>
				<path id="XMLID_209_" class="st28" d="M519.8,862.3c0,0-55.1,27.4-123,3.8l-37.1,328l180.4,16.8l-12.3-273.6L519.8,862.3z"/>
			</g>
		</g>
	</g>
</g>
</svg>
