<?xml version="1.0" encoding="utf-8"?>
<!-- Generator: Adobe Illustrator 22.0.1, SVG Export Plug-In . SVG Version: 6.00 Build 0)  -->
<svg version="1.1" id="Capa_1" xmlns="http://www.w3.org/2000/svg" xmlns:xlink="http://www.w3.org/1999/xlink" x="0px" y="0px"
	 viewBox="0 0 279.1 96.4" style="enable-background:new 0 0 279.1 96.4;" xml:space="preserve">
<style type="text/css">
	.st0{fill:#3A0026;}
	.st1{fill-rule:evenodd;clip-rule:evenodd;fill:#FF132A;}
	.st2{fill:#FFFFFF;}
</style>
<g>
	<g>
		<g>
			<path class="st0" d="M224.9,19.5v4.9c-1.1,0.4-2,1.2-2.4,2.2l-2.1,4.5c-1.4,2.9-0.7,6.3,1.6,8.6l6.1,5.8v9.8
				c0,0.6,0.5,1.1,1.1,1.1h4.8c0.6,0,1.1-0.5,1.1-1.1c0-0.6-0.5-1.1-1.1-1.1h-3.7V45c0-0.3-0.1-0.6-0.3-0.8l-6.4-6.1
				c-1.7-1.6-2.1-4-1.2-6.1l2.1-4.5c0.5-1.1,1.8-1.5,2.8-1l10.5,4.9c-1.5,2-4.2,2.7-6.5,1.7l-2.9-1.3c-0.5-0.2-1.2,0-1.4,0.5
				c-0.2,0.5,0,1.2,0.5,1.4l2.9,1.3c1.2,0.6,2.5,0.8,3.9,0.7c2.2,2.4,3.5,5.6,3.5,8.9c0,0.6,0.5,1.1,1.1,1.1c0.6,0,1.1-0.5,1.1-1.1
				c0-3.5-1.2-6.8-3.3-9.5c1.6-0.7,2.9-2,3.7-3.7c0,0,0,0,0,0c0.5,0.2,1.1,0.4,1.7,0.4c0.9,0,1.8-0.3,2.5-0.8
				c0.7,1.4,2.2,2.4,3.8,2.4c0.7,0,1.3-0.1,1.8-0.4c-0.3,1.9-0.8,3.7-1.3,5.5c-0.8,2.9-1.6,6-1.6,9.9v6h-3.7c-0.6,0-1.1,0.5-1.1,1.1
				c0,0.6,0.5,1.1,1.1,1.1h4.8c0.6,0,1.1-0.5,1.1-1.1v-7c0-3.6,0.8-6.4,1.6-9.3c0.8-2.9,1.6-6,1.6-9.9v-6.4c0-2.3-1.9-4.3-4.3-4.3
				c-0.9,0-1.8,0.3-2.5,0.8c-0.7-1.4-2.2-2.4-3.8-2.4c-0.9,0-1.8,0.3-2.5,0.8c-0.7-1.4-2.2-2.4-3.8-2.4c-1.3,0-2.4,0.6-3.2,1.4
				c-0.8-0.9-1.9-1.4-3.2-1.4C226.8,15.2,224.9,17.1,224.9,19.5L224.9,19.5z M246.1,22.6c0-1.2,1-2.1,2.1-2.1c1.2,0,2.1,1,2.1,2.1
				V29c0,1.2-1,2.1-2.1,2.1c-1.2,0-2.1-1-2.1-2.1V22.6z M239.8,21c0-1.2,1-2.1,2.1-2.1c1.2,0,2.1,1,2.1,2.1v6.4c0,1.2-1,2.1-2.1,2.1
				c-1.2,0-2.1-1-2.1-2.1V21z M233.4,19.5c0-1.2,1-2.1,2.1-2.1c1.2,0,2.1,1,2.1,2.1v8c0,0.6,0.1,1.2,0.4,1.7l-4.6-2.2V19.5z
				 M227,19.5c0-1.2,1-2.1,2.1-2.1c1.2,0,2.1,1,2.1,2.1V26l-3.2-1.5c-0.3-0.2-0.7-0.3-1.1-0.3V19.5z M227,19.5"/>
			<path class="st0" d="M239.8,6.7V2.9c0-0.6-0.5-1.1-1.1-1.1c-0.6,0-1.1,0.5-1.1,1.1v3.8c0,0.6,0.5,1.1,1.1,1.1
				C239.3,7.7,239.8,7.3,239.8,6.7L239.8,6.7z M239.8,6.7"/>
			<path class="st0" d="M229.6,10.2c0.5-0.3,0.7-0.9,0.4-1.5L228.4,6c-0.3-0.5-0.9-0.7-1.5-0.4c-0.5,0.3-0.7,0.9-0.4,1.5l1.6,2.8
				C228.5,10.3,229.1,10.5,229.6,10.2L229.6,10.2z M229.6,10.2"/>
			<path class="st0" d="M221,15.3l-2.8-1.6c-0.5-0.3-1.2-0.1-1.5,0.4c-0.3,0.5-0.1,1.2,0.4,1.5l2.8,1.6c0.5,0.3,1.2,0.1,1.5-0.4
				C221.7,16.3,221.5,15.6,221,15.3L221,15.3z M221,15.3"/>
			<path class="st0" d="M249.2,9.8l1.6-2.8c0.3-0.5,0.1-1.2-0.4-1.5c-0.5-0.3-1.2-0.1-1.5,0.4l-1.6,2.8c-0.3,0.5-0.1,1.2,0.4,1.5
				C248.2,10.5,248.9,10.3,249.2,9.8L249.2,9.8z M249.2,9.8"/>
			<path class="st0" d="M257.4,17.2l2.8-1.6c0.5-0.3,0.7-0.9,0.4-1.5c-0.3-0.5-0.9-0.7-1.5-0.4l-2.8,1.6c-0.5,0.3-0.7,0.9-0.4,1.5
				C256.2,17.3,256.9,17.5,257.4,17.2L257.4,17.2z M257.4,17.2"/>
			<path class="st0" d="M239.8,55.2c0,0.6-0.5,1.1-1.1,1.1c-0.6,0-1.1-0.5-1.1-1.1c0-0.6,0.5-1.1,1.1-1.1
				C239.3,54.1,239.8,54.6,239.8,55.2L239.8,55.2z M239.8,55.2"/>
		</g>
	</g>
	<g>
		<g>
			<path class="st0" d="M35.6,47.8l0.8-5.9l2.3-9.1h3.6L42,41.9l-0.8,5.9H35.6z M38.5,27.4c0.2-1.7,1.6-2.9,3.3-2.9s2.7,1.2,2.4,2.9
				c-0.2,1.7-1.6,2.8-3.2,2.8S38.3,29.1,38.5,27.4z"/>
			<path class="st0" d="M66.2,19.5l-0.7,4.8H54.2l-0.7,5.1h10.5l-0.7,4.8H52.8l-1.2,8.3h-6.1l3.3-23.1H66.2z"/>
			<path class="st0" d="M87.5,19.5l-0.7,4.8H74.4l-0.6,4.3H85l-0.7,4.8l-11.2,0l-0.6,4.4h12.7l-0.7,4.8H65.8L69,19.5H87.5z"/>
			<path class="st0" d="M97.7,19.5l-2.5,18h9.9l-0.7,5.1h-16l3.3-23.1H97.7z"/>
			<path class="st0" d="M116.5,19.5l-3.3,23.1h-6.1l3.3-23.1H116.5z"/>
			<path class="st0" d="M140.2,19.5l-0.6,4l-14.4,14.3h12.6l-0.7,4.9h-20.7l0.6-3.9l14.4-14.4h-11.9l0.7-4.9H140.2z"/>
			<path class="st0" d="M174.5,31.1c-1,6.9-6.7,11.6-14.3,11.6h-9.9l3.3-23.1h10.1C171.1,19.5,175.5,24.2,174.5,31.1z M168.3,31.1
				c0.6-4-1.7-6.7-5.4-6.7H159l-1.9,13.3h4.1C164.9,37.8,167.7,35.1,168.3,31.1z"/>
			<path class="st0" d="M185.3,19.5l-3.3,23.1H176l3.3-23.1H185.3z M189,13.8l-4.9,3.8h-4.5l4.4-5.6L189,13.8z"/>
			<path class="st0" d="M202.8,38.5h-10.1l-2.2,4.1h-6.3l13.3-23.1h6.3l6.6,23.1h-6.5L202.8,38.5z M201.6,33.9l-2-8.3l-4.4,8.3
				H201.6z"/>
		</g>
	</g>
	<polygon class="st1" points="271.1,92.6 2,92.6 8,50.7 277.1,50.7 	"/>
	<g>
		<path class="st2" d="M37.7,61.3l-0.7,5h-7l-2.6,18.2h-6.1l2.6-18.2H17l0.7-5H37.7z"/>
		<path class="st2" d="M51,84.4L48.5,78h-0.1H44l-0.9,6.4H37l3.3-23.1h10.5c6.2,0,9.3,3,8.6,8.1c-0.5,3.5-2.3,6.1-5.2,7.5l3.8,7.6
			H51z M44.7,73.2h4.4c2.5,0,4.1-1.3,4.4-3.6c0.3-2.3-0.9-3.5-3.4-3.5h-4.4L44.7,73.2z"/>
		<path class="st2" d="M77.3,80.3H67.2L65,84.4h-6.3L72,61.3h6.3l6.6,23.1h-6.5L77.3,80.3z M76.2,75.7l-2-8.2l-4.4,8.2H76.2z"/>
		<path class="st2" d="M109.2,67.1c-0.3,2.4-2.2,4.4-4.7,5c2.9,0.6,4.4,2.9,4,5.8c-0.6,4-4.4,6.4-9.9,6.4H87l3.3-23.1h11.1
			C106.7,61.3,109.7,63.6,109.2,67.1z M102.2,77.2c0.2-1.5-1-2.4-3.1-2.3h-4.7l-0.7,4.9h4.7C100.6,79.7,102,78.8,102.2,77.2z
			 M102.8,68.2c0.2-1.4-0.7-2.2-2.4-2.2h-4.7L95,70.5h4.7C101.4,70.5,102.6,69.6,102.8,68.2z"/>
		<path class="st2" d="M127.1,80.3h-10.1l-2.2,4.1h-6.3l13.3-23.1h6.3l6.6,23.1h-6.5L127.1,80.3z M125.9,75.7l-2-8.2l-4.4,8.2H125.9
			z"/>
		<path class="st2" d="M142.4,84.7c-3.4,0-5.9-1.4-7.6-3.7l3.4-4.1c1.5,1.8,3.2,2.6,4.5,2.6c1.5,0,2.6-0.9,2.8-2.7l1.5-10.5h-8
			l0.7-5h14.2l-2.2,15.6C150.9,81.8,147.4,84.7,142.4,84.7z"/>
		<path class="st2" d="M170.2,80.3h-10.1l-2.2,4.1h-6.3l13.3-23.1h6.3l6.6,23.1h-6.5L170.2,80.3z M169.1,75.7l-2-8.2l-4.4,8.2H169.1
			z"/>
		<path class="st2" d="M204,72.8c-1,6.9-6.7,11.6-14.3,11.6h-9.9l3.3-23.1h10.1C200.6,61.3,205,66,204,72.8z M197.8,72.9
			c0.6-4-1.7-6.7-5.4-6.7h-3.8l-1.9,13.3h4.1C194.3,79.5,197.2,76.9,197.8,72.9z"/>
		<path class="st2" d="M230.5,72.8c-1,6.8-7.1,11.8-14.3,11.8s-11.9-5.1-11-11.8c0.9-6.7,7.1-11.7,14.3-11.7S231.4,66.1,230.5,72.8z
			 M211.5,72.9c-0.5,3.8,2,6.7,5.5,6.7c3.5,0,6.7-2.9,7.2-6.7c0.5-3.8-1.9-6.6-5.4-6.6S212,69.1,211.5,72.9z"/>
		<path class="st2" d="M246,84.4l-2.5-6.4h-0.1h-4.4l-0.9,6.4h-6.1l3.3-23.1h10.5c6.2,0,9.3,3,8.6,8.1c-0.5,3.5-2.3,6.1-5.2,7.5
			l3.8,7.6H246z M239.6,73.2h4.4c2.5,0,4.1-1.3,4.4-3.6c0.3-2.3-0.9-3.5-3.4-3.5h-4.4L239.6,73.2z"/>
		<path class="st2" d="M261.5,81.8c-0.2,1.7-1.6,2.9-3.3,2.9s-2.7-1.2-2.4-2.9c0.2-1.7,1.6-2.8,3.2-2.8S261.7,80.1,261.5,81.8z
			 M264.4,61.4l-0.8,5.9l-2.3,9.1h-3.6l0.2-9.1l0.8-5.9H264.4z"/>
	</g>
</g>
</svg>
