<?xml version="1.0" encoding="utf-8"?>
<!-- Generator: Adobe Illustrator 18.0.0, SVG Export Plug-In . SVG Version: 6.00 Build 0)  -->
<!DOCTYPE svg PUBLIC "-//W3C//DTD SVG 1.1//EN" "http://www.w3.org/Graphics/SVG/1.1/DTD/svg11.dtd">
<svg version="1.1" id="Capa_1" xmlns="http://www.w3.org/2000/svg" xmlns:xlink="http://www.w3.org/1999/xlink" x="0px" y="0px"
	 viewBox="0 0 175.8 175.8" enable-background="new 0 0 175.8 175.8" xml:space="preserve">
<g>
	<path fill="#FF6334" stroke="#FFFFFF" stroke-width="2" stroke-miterlimit="10" d="M54.6,40.2h53.6c1.4,0,2.6-1.1,2.6-2.5
		c0-1.4-1.1-2.5-2.6-2.5H54.6c-1.4,0-2.5,1.1-2.5,2.5C52.1,39.1,53.2,40.2,54.6,40.2"/>
	<path fill="#FF6334" stroke="#FFFFFF" stroke-width="2" stroke-miterlimit="10" d="M6.7,65.1h53.6c1.4,0,2.5-1.1,2.5-2.5
		c0-1.4-1.1-2.5-2.5-2.5H6.7c-1.4,0-2.6,1.1-2.6,2.5C4.2,63.9,5.3,65.1,6.7,65.1"/>
	<path fill="#FF6334" stroke="#FFFFFF" stroke-width="2" stroke-miterlimit="10" d="M21.1,91.2c0,1.4,1.1,2.5,2.5,2.5h53.6
		c1.4,0,2.5-1.1,2.5-2.5c0-1.4-1.1-2.5-2.5-2.5H23.6C22.2,88.6,21.1,89.8,21.1,91.2"/>
	<path fill="#FF6334" stroke="#FFFFFF" stroke-width="2" stroke-miterlimit="10" d="M51.7,120.7H3.6c-1.4,0-2.5,1.1-2.5,2.5
		c0,1.4,1.1,2.5,2.5,2.5h48.1c1.4,0,2.5-1.1,2.5-2.5C54.3,121.8,53.2,120.7,51.7,120.7"/>
	<path fill="#FF6334" stroke="#FFFFFF" stroke-width="2" stroke-miterlimit="10" d="M138.4,56.2c7.7,0,13.9-6.2,13.9-13.9
		c0-7.7-6.2-13.9-13.9-13.9c-7.7,0-13.9,6.2-13.9,13.9C124.4,50,130.7,56.2,138.4,56.2"/>
	<path fill="#FF6334" stroke="#FFFFFF" stroke-width="2" stroke-miterlimit="10" d="M161.3,52.2c-8,11.1-18.7,12.4-30.2,5.6
		c-0.8-0.5-4.3-2.4-5-2.8c-18.5-11-37-6.7-49.5,10.6C71.3,73,83.5,80,88.7,72.7c6.4-8.9,14.6-11.5,23.5-8.7
		c-4.6,7.9-8.6,15.7-14.2,26.9c-5.6,11.1-18.1,20-30,13.1c-8.6-5-16.4,7.3-7.8,12.3c16.3,9.5,35.5,3.7,45.2-8.7
		c0.3,0.2,0.7,0.3,1.1,0.5c8,2.8,18.4,10.1,21.6,12.8c3.2,2.6,8.7,15.9,11.9,22.6c3.9,8.1,16.7,2.2,12.7-5.9
		c-3.7-7.6-9.9-22.7-14.7-26.6c-3.9-3.1-11.4-8.8-17.8-12c4.3-8.3,8.8-16.5,13.5-24.6c15.1,4.6,29.4-0.8,39.6-15
		C178.7,51.9,166.5,44.9,161.3,52.2"/>
</g>
</svg>
