<?xml version="1.0" encoding="utf-8"?>
<!-- Generator: Adobe Illustrator 18.0.0, SVG Export Plug-In . SVG Version: 6.00 Build 0)  -->
<!DOCTYPE svg PUBLIC "-//W3C//DTD SVG 1.1//EN" "http://www.w3.org/Graphics/SVG/1.1/DTD/svg11.dtd">
<svg version="1.1" id="Capa_1" xmlns="http://www.w3.org/2000/svg" xmlns:xlink="http://www.w3.org/1999/xlink" x="0px" y="0px"
	 viewBox="0 0 175.8 175.8" enable-background="new 0 0 175.8 175.8" xml:space="preserve">
<path fill="#FF6336" stroke="#FFFFFF" stroke-miterlimit="10" d="M132.7,73.2c-4.4,6.4-9.9,10.4-15.8,11.3c0.1-0.7,0.2-1.4,0.2-2.1
	l2.8-36h20.9C140.4,56.6,137.6,66,132.7,73.2 M87.9,104.5c-12.6,0-23.3-9.9-24.3-22.4l-4-51.5h56.6l-4,51.5
	C111.2,94.6,100.5,104.5,87.9,104.5 M43.1,73.2c-4.9-7.2-7.7-16.6-8.1-26.7h20.9l2.8,36c0.1,0.7,0.1,1.4,0.2,2.1
	C53,83.6,47.4,79.6,43.1,73.2 M102.6,131.6H73.1v-6.7h29.6V131.6z M117.4,145.2H58.3v-8.6h59.1V145.2z M143.3,41.5h-23.1l1-13.2
	c0.1-0.7-0.2-1.4-0.7-1.9c-0.5-0.5-1.1-0.8-1.8-0.8H56.9c-0.7,0-1.4,0.3-1.8,0.8c-0.5,0.5-0.7,1.2-0.7,1.9l1,13.2H32.4
	c-1.4,0-2.5,1.1-2.5,2.5c0,12.1,3.2,23.4,9,32c5.6,8.3,13.1,13.1,21.2,13.7c1.6,4.5,4.2,8.7,7.8,12c4.8,4.5,10.9,7.1,17.4,7.7v10.6
	H70.6c-1.4,0-2.5,1.1-2.5,2.5v9.2H55.8c-1.4,0-2.5,1.1-2.5,2.5v13.6c0,1.4,1.1,2.5,2.5,2.5h64.1c1.4,0,2.5-1.1,2.5-2.5v-13.6
	c0-1.4-1.1-2.5-2.5-2.5h-12.3v-9.2c0-1.4-1.1-2.5-2.5-2.5H90.4v-10.6c6.5-0.5,12.6-3.2,17.4-7.7c3.6-3.3,6.3-7.4,7.8-12
	c8.1-0.6,15.5-5.4,21.2-13.7c5.8-8.6,9-20,9-32C145.8,42.6,144.7,41.5,143.3,41.5"/>
<path fill="#FF6336" stroke="#FF6336" stroke-width="1.9529" stroke-miterlimit="10" d="M91.1,52.1c-0.9-0.4-2-0.2-2.7,0.5l-9.7,9.7
	c-1,1-1,2.5,0,3.5c1,1,2.5,1,3.5,0l5.4-5.4v22c0,1.4,1.1,2.5,2.5,2.5c1.4,0,2.5-1.1,2.5-2.5v-28C92.6,53.4,92,52.5,91.1,52.1"/>
<path fill="#FF6336" stroke="#FFFFFF" stroke-miterlimit="10" d="M90.6,36.5c0-1.4-1.1-2.5-2.5-2.5H66c-1.4,0-2.5,1.1-2.5,2.5
	c0,1.4,1.1,2.5,2.5,2.5h22.1C89.5,39,90.6,37.9,90.6,36.5"/>
<path fill="#FF6336" stroke="#FFFFFF" stroke-miterlimit="10" d="M98.5,34.1h-2.7c-1.4,0-2.5,1.1-2.5,2.5c0,1.4,1.1,2.5,2.5,2.5h2.7
	c1.4,0,2.5-1.1,2.5-2.5C101,35.2,99.9,34.1,98.5,34.1"/>
</svg>
