<?xml version="1.0" encoding="utf-8"?>
<!-- Generator: Adobe Illustrator 18.0.0, SVG Export Plug-In . SVG Version: 6.00 Build 0)  -->
<!DOCTYPE svg PUBLIC "-//W3C//DTD SVG 1.1//EN" "http://www.w3.org/Graphics/SVG/1.1/DTD/svg11.dtd">
<svg version="1.1" id="Capa_1" xmlns="http://www.w3.org/2000/svg" xmlns:xlink="http://www.w3.org/1999/xlink" x="0px" y="0px"
	 viewBox="0 0 175.8 175.8" enable-background="new 0 0 175.8 175.8" xml:space="preserve">
<g>
	<polygon fill="#FF6336" points="68.6,131.5 68.6,142.6 68.6,148.3 123,148.3 123,131.9 117.7,131.9 117.7,142.4 74,142.4 74,131.5 
			"/>
	<rect x="123.2" y="115.4" fill="#FF6336" width="5.4" height="16.2"/>
	<polygon fill="#FF6336" points="57.8,109.9 57.8,120.7 63.1,120.7 63.1,131.5 68.5,131.5 68.5,120.6 63.2,120.6 63.2,109.9 	"/>
	<polygon fill="#FF6336" points="47.1,93.7 47.1,99.1 52.4,99.1 52.4,109.8 57.7,109.8 57.7,98.9 52.5,98.9 52.5,93.7 	"/>
	<rect x="128.8" y="77.4" fill="#FF6336" width="5.4" height="37.7"/>
	<polygon fill="#FF6336" points="41.6,77.3 41.6,93.6 47,93.6 47,82.7 58,82.7 58,77.3 47,77.3 47,77.3 	"/>
	<rect x="123.4" y="71.9" fill="#FF6336" width="5.4" height="5.4"/>
	<polygon fill="#FF6336" points="117.8,66.3 117.8,66.3 112.4,66.3 112.4,87.7 117.8,87.7 117.8,71.7 123.2,71.7 123.2,66.3 	"/>
	<polygon fill="#FF6336" points="101.4,60.6 101.4,60.7 96,60.7 96,82.1 101.4,82.1 101.4,66 112.5,66 112.5,60.6 	"/>
	<polygon fill="#FF6336" points="79.6,32.9 79.6,82.5 85,82.5 85,60.5 95.9,60.5 95.9,55.1 85,55.1 85,32.9 	"/>
	<polygon fill="#FF6336" points="63.1,32.8 63.1,82.8 57.8,82.8 57.8,88.2 63.1,88.2 63.1,104.2 68.5,104.2 68.5,32.8 	"/>
	<rect x="68.5" y="27.4" fill="#FF6336" width="10.9" height="5.4"/>
</g>
</svg>
