<?xml version="1.0" encoding="utf-8"?>
<!-- Generator: Adobe Illustrator 18.0.0, SVG Export Plug-In . SVG Version: 6.00 Build 0)  -->
<!DOCTYPE svg PUBLIC "-//W3C//DTD SVG 1.1//EN" "http://www.w3.org/Graphics/SVG/1.1/DTD/svg11.dtd">
<svg version="1.1" id="Capa_1" xmlns="http://www.w3.org/2000/svg" xmlns:xlink="http://www.w3.org/1999/xlink" x="0px" y="0px"
	 viewBox="0 0 175.8 175.8" enable-background="new 0 0 175.8 175.8" xml:space="preserve">
<g>
	<path fill="#FF6334" stroke="#FFFFFF" stroke-width="0.9811" stroke-miterlimit="10" d="M95.4,66.1l-7.1,7.1h0l3,20h26.6
		c-1.6-7-5.5-16.3-5.5-16.3c-0.6-1.4-2-2.3-3.4-2.9l-9.2-4.2L95.4,66.1z"/>
	<path fill="#FF6334" stroke="#FFFFFF" stroke-width="0.9811" stroke-miterlimit="10" d="M87.5,73.2L87.5,73.2l-7.1-7.1l-4.4,3.7
		l-9.2,4.2c-1.4,0.6-2.7,1.4-3.4,2.9c0,0-3.9,9.3-5.5,16.3h26.6L87.5,73.2z"/>
	<path fill="#FF6334" stroke="#FFFFFF" stroke-width="0.9811" stroke-miterlimit="10" d="M84.3,46.6c8.6,0.9,16.1-11.1,15.9-0.3
		c-0.1,6.4-6,16.1-12.6,16.1c-6.9,0-11.6-8.1-12.6-16.1C73.9,37.5,90,39.5,84.3,46.6 M87.6,66c7,0,16.4-8.8,16.6-23.5
		c0.1-10.2-4.8-16.3-16.6-16.3S70.9,32.3,71,42.5C71.2,57.2,79.4,66,87.6,66"/>
	<path fill="#FF6334" stroke="#FFFFFF" stroke-width="0.9811" stroke-miterlimit="10" d="M126.1,98.6c-0.6-0.6-1.4-1-2.3-1H51.9
		c-0.9,0-1.7,0.4-2.3,1c-0.6,0.6-0.9,1.5-0.8,2.4l6.1,45.8c0.2,1.6,1.5,2.8,3.1,2.8h59.6c1.6,0,2.9-1.2,3.1-2.8l6.1-45.8
		C126.9,100.1,126.7,99.3,126.1,98.6"/>
</g>
</svg>
