<?xml version="1.0" encoding="utf-8"?>
<!-- Generator: Adobe Illustrator 18.0.0, SVG Export Plug-In . SVG Version: 6.00 Build 0)  -->
<!DOCTYPE svg PUBLIC "-//W3C//DTD SVG 1.1//EN" "http://www.w3.org/Graphics/SVG/1.1/DTD/svg11.dtd">
<svg version="1.1" id="Capa_1" xmlns="http://www.w3.org/2000/svg" xmlns:xlink="http://www.w3.org/1999/xlink" x="0px" y="0px"
	 viewBox="0 0 175.8 175.8" enable-background="new 0 0 175.8 175.8" xml:space="preserve">
<g>
	<path fill="#FF6334" stroke="#FFFFFF" stroke-width="2.4896" stroke-miterlimit="10" d="M148.7,126.8h-15.5l-0.5-1.4
		c7.5-3,12.9-10.3,12.9-18.9c0-5.7-2.4-10.9-6.2-14.6V64.1l-15.2-15.2H51.6L36.4,64.1v38.2l15.2,15.2h56.6c2,3.2,4.9,5.7,8.3,7.4
		l-0.6,2H27.1V39.5h121.6V126.8z M125.3,95.6c6,0,10.9,4.9,10.9,10.9c0,6-4.9,10.9-10.9,10.9c-6,0-10.9-4.9-10.9-10.9
		C114.4,100.5,119.3,95.6,125.3,95.6 M105.1,108.1H55.5l-9.7-9.7V67.9l9.7-9.7h64.7l9.7,9.7v18.9c-1.5-0.4-3.1-0.5-4.7-0.5
		c-11.2,0-20.3,9.1-20.3,20.3C105,107.1,105.1,107.6,105.1,108.1 M158,30.1H17.7v106h95.6l-1.9,6.5l9,2.6l2.6-9.1h3.7l3.5,9.4
		l8.8-3.3l-2.3-6.2H158V30.1z"/>
	
		<rect x="56.7" y="67.6" fill="#FF6334" stroke="#FFFFFF" stroke-width="2.4896" stroke-miterlimit="10" width="59.3" height="9.4"/>
	
		<rect x="56.7" y="86.3" fill="#FF6334" stroke="#FFFFFF" stroke-width="2.4896" stroke-miterlimit="10" width="43.7" height="9.4"/>
</g>
</svg>
