<?xml version="1.0" encoding="utf-8"?>
<!-- Generator: Adobe Illustrator 18.0.0, SVG Export Plug-In . SVG Version: 6.00 Build 0)  -->
<!DOCTYPE svg PUBLIC "-//W3C//DTD SVG 1.1//EN" "http://www.w3.org/Graphics/SVG/1.1/DTD/svg11.dtd">
<svg version="1.1" id="Capa_1" xmlns="http://www.w3.org/2000/svg" xmlns:xlink="http://www.w3.org/1999/xlink" x="0px" y="0px"
	 viewBox="0 0 175.8 175.8" enable-background="new 0 0 175.8 175.8" xml:space="preserve">
<path fill="#FF6334" stroke="#FFFFFF" stroke-width="2" stroke-miterlimit="10" d="M87.9,43.9c1.7,0,3-1.4,3-3c0-1.7-1.4-3-3-3
	c-15.7,0-28.4,13.6-28.4,30.2c0,1.7,1.4,3,3,3s3-1.4,3-3C65.5,54.7,75.5,43.9,87.9,43.9"/>
<path fill="#FF6334" stroke="#FFFFFF" stroke-width="2" stroke-miterlimit="10" d="M89.2,90.2l0.8-5.6c0.1-0.8-0.1-1.6-0.6-2.2
	c-0.5-0.6-1.3-0.9-2.1-0.9h-8.1l7.3-11.4l-0.7,5.6c-0.1,0.8,0.1,1.6,0.6,2.2c0.5,0.6,1.2,0.9,2,0.9h8.1L89.2,90.2z"/>
<path fill="#FF6334" stroke="#FFFFFF" stroke-width="2" stroke-miterlimit="10" d="M103.9,74.8c-0.5-0.9-1.4-1.4-2.4-1.4h-9.9
	l2-14.7c0.2-1.3-0.6-2.5-1.8-2.9c-1.2-0.4-2.5,0-3.2,1.1L72,82.8c-0.5,0.8-0.6,1.9-0.1,2.8c0.5,0.9,1.4,1.4,2.4,1.4h9.9l-2,14.7
	c-0.2,1.3,0.6,2.5,1.8,2.9c0.3,0.1,0.6,0.2,0.9,0.2c0.9,0,1.8-0.4,2.3-1.3l16.6-25.9C104.3,76.8,104.4,75.7,103.9,74.8"/>
<path fill="#FF6334" stroke="#FFFFFF" stroke-width="2" stroke-miterlimit="10" d="M111.7,95.5c-5.6,7.8-8.6,16.6-8.8,25.4h-30
	c-0.2-8.8-3.2-17.5-8.8-25.4c-5.7-8-9.2-18.3-9.2-27.4c0-19.2,14.8-34.8,33-34.8c18.2,0,33,15.6,33,34.8
	C120.9,77.2,117.4,87.4,111.7,95.5 M102.8,131.6h-15c-1.7,0-3,1.4-3,3c0,1.7,1.4,3,3,3h15v3.2c0,0.8-0.7,1.5-1.5,1.5H74.4
	c-0.8,0-1.5-0.7-1.5-1.5v-14h29.9V131.6z M115.7,39.5c-0.6-0.6-1.2-1.2-1.8-1.8c-6.9-6.5-16.1-10.4-26-10.4c-21.5,0-39,18.3-39,40.8
	c0,10.5,3.8,21.7,10.3,30.9c5,7.1,7.7,15,7.7,22.8v19.2c0,2.1,0.8,4,2.2,5.3c1.4,1.4,3.3,2.2,5.3,2.2h26.9c4.2,0,7.6-3.4,7.6-7.6
	v-19.2c0-7.8,2.7-15.7,7.7-22.8c6.6-9.2,10.3-20.4,10.3-30.9C126.9,56.9,122.6,46.8,115.7,39.5"/>
</svg>
