<?xml version="1.0" encoding="utf-8"?>
<!-- Generator: Adobe Illustrator 18.0.0, SVG Export Plug-In . SVG Version: 6.00 Build 0)  -->
<!DOCTYPE svg PUBLIC "-//W3C//DTD SVG 1.1//EN" "http://www.w3.org/Graphics/SVG/1.1/DTD/svg11.dtd">
<svg version="1.1" id="Capa_1" xmlns="http://www.w3.org/2000/svg" xmlns:xlink="http://www.w3.org/1999/xlink" x="0px" y="0px"
	 viewBox="0 0 175.8 175.8" enable-background="new 0 0 175.8 175.8" xml:space="preserve">
<path fill="#FF6336" d="M76,95.2L70.9,96v-3.6H54.6v3.8h-2.9v-3.8H35.4v3.5L29.1,95c0.1-0.5,0.1-0.9,0.2-1.4
	c6.5-0.4,14-5.6,14.5-12.8c8.3,6.9,20,7.2,29.8,8.1C74.9,89.4,75.7,91.9,76,95.2 M69,100.6H56.4v-6.4H69V100.6z M49.9,100.6H37.2
	v-6.4h12.7V100.6z M52.2,68.1c-3.1,0-6.8,0.4-8.4,1.1c-1.6,0.7-1.9,2.3-2.9,2.7c-1.1,0.4-2.6,0.2-3.6,0.7C22.7,79.7,23.2,97,23.2,97
	l2.2,35.5L24,147.9h27.6l0.1-4L43.3,128l2.3-0.6v-8.9c-9.1-2.9-15.7-10.9-16.5-20.7l6.2,0.9v3.8h16.3v-2.7h2.9v2.7h16.3v-3.7
	l5.2-0.8c-0.3,8.2-4.6,19.2-17.1,20.8v8.4h0l3,1.4l-8.2,14.8v4.6h26.4l-1.8-19.4c0.5-3.9,2.3-9.9,2.5-16
	C81.4,102.2,82,68.1,52.2,68.1"/>
<path fill="#FF6336" d="M126.7,79.8c-11.6,3.5-27.3,6.3-34.1,7.4l6.1-10.7l-1.6-0.8c-9.8-4.6-15.7-12.1-15.7-20
	c0-13.6,16.7-24.6,37.3-24.6c20.6,0,37.3,11,37.3,24.6C156.1,69.6,135.6,77.2,126.7,79.8 M118.8,27.8c-22.4,0-40.6,12.5-40.6,27.9
	c0,8.7,5.9,16.9,15.9,22.2l-7.8,13.6l3.4-0.5c0.2,0,22.6-3.5,37.9-8.1c20.1-5.9,31.7-15.9,31.7-27.2
	C159.4,40.4,141.2,27.8,118.8,27.8"/>
</svg>
