<svg width="264" height="150" viewBox="0 0 264 150" fill="none" xmlns="http://www.w3.org/2000/svg">
<g clip-path="url(#clip0)">
<path d="M263.901 135.761C263.802 137.146 263.703 138.53 263.505 139.914C263.306 141.2 263.207 142.485 262.91 143.771C262.613 144.858 261.82 145.748 261.126 146.638C260.333 147.627 255.973 149.11 254.784 149.209C253.099 149.407 175.505 150 114.261 150C75.8109 150 43.0091 149.11 42.0181 149.209C36.3694 149.604 30.7208 149.308 25.0721 149.209C21.1081 149.11 16.7478 149.11 12.982 147.726C11.3964 147.825 9.71175 147.231 8.42346 146.243C6.54058 144.759 5.45049 142.584 4.7568 140.409C4.4595 139.42 4.1622 138.431 3.8649 137.343C3.76581 137.047 3.66671 136.75 3.66671 136.454C3.36941 135.168 3.07211 133.982 2.97301 132.696C2.47752 130.026 2.08112 127.258 1.68472 124.588C1.48653 123.105 1.38743 121.721 1.18923 120.237C-0.297258 117.864 -0.198159 114.7 1.48653 112.525C1.78382 112.129 2.47752 112.129 2.77481 112.624C4.5586 116.579 8.52256 119.051 12.5856 120.237C17.5406 121.721 22.8919 121.325 27.946 121.226C30.2253 121.226 68.8739 119.249 112.874 119.249C175.108 119.347 248.64 121.622 251.91 122.017C254.288 122.314 256.865 122.709 259.144 123.698C260.135 124.094 261.126 124.687 261.919 125.478C262.712 126.368 263.306 127.456 263.604 128.543C264.198 130.817 264 133.388 263.901 135.761Z" fill="white"/>
<path d="M228.225 4.8451C228.126 4.54846 228.027 4.3507 227.829 4.05406C228.126 3.8563 228.126 3.46079 227.73 3.36191C227.631 3.36191 227.532 3.26303 227.333 3.26303C227.234 3.16415 227.135 3.06527 227.036 2.96639C226.838 2.66975 226.541 2.57087 226.243 2.66975C224.46 1.28544 221.586 1.08768 219.505 0.791044C216.036 0.395526 212.469 0.197767 208.901 0.098888C201.865 -0.0988708 194.829 0.296647 187.892 1.18656C187.694 1.18656 187.496 1.28544 187.198 1.28544C186.703 1.28544 186.108 1.38432 185.613 1.38432C182.442 1.68096 179.072 1.87872 176 2.86751C173.225 3.75742 170.946 5.53725 169.36 7.91036C167.874 10.1846 166.982 12.8543 166.387 15.5241C165.595 18.886 165 22.2479 164.604 25.6098C163.811 32.4324 163.91 39.354 164.901 46.1767C165 47.0666 165.198 47.8576 165.297 48.7475C165.397 49.2419 165.991 49.3408 166.387 49.1431C168.369 48.0554 169.36 45.88 170.153 43.9024C170.946 42.0237 171.838 39.6506 173.919 39.0574C175.505 38.563 177.387 38.8596 179.072 38.9585C180.955 39.0574 182.838 39.1562 184.721 39.2551C188.487 39.4529 192.252 39.7495 196.117 39.8484C203.054 40.145 210.288 39.8484 216.433 36.2887C221.685 33.2235 224.856 27.9829 226.541 22.2479C227.433 19.4792 227.928 16.6117 228.424 13.6454C228.919 10.8767 229.315 7.61372 228.225 4.8451Z" fill="white"/>
<path d="M31.0181 34.1134L30.4235 48.1543L3.86495 51.615C3.56765 44.298 3.36945 36.9809 3.17125 29.6638C2.87396 22.4456 2.67576 15.1286 2.57666 7.81148L19.0271 6.92157C18.8289 11.5689 18.5316 16.2162 18.3334 20.7647C18.1352 25.412 18.0361 30.0593 18.1352 34.7067C19.1262 34.7067 20.1172 34.7067 21.1082 34.6078C22.0992 34.5089 23.0902 34.5089 24.0812 34.41C25.2704 34.3112 26.4595 34.3112 27.5496 34.2123C28.6397 34.2123 29.8289 34.1134 31.0181 34.1134Z" fill="white"/>
<path d="M48.1623 6.62494L46.9731 49.8352L33.6938 51.2195L31.4146 8.40477L48.1623 6.62494Z" fill="white"/>
<path d="M84.2344 32.4324C84.4326 35.2999 84.0362 37.8708 83.1443 40.0462C82.2524 42.2215 80.9641 44.1002 79.2795 45.6823C77.5948 47.1655 75.6128 48.352 73.3335 49.2419C71.0542 50.033 68.5768 50.5274 65.9011 50.7251C64.9101 50.824 63.7209 50.7251 62.4326 50.5274C61.1443 50.3296 59.9551 50.033 58.6668 49.7363C57.3786 49.4397 56.0903 49.0442 54.9011 48.6487C53.7119 48.2531 52.6218 47.8576 51.7299 47.4621L52.4236 34.41C54.3065 35.3988 56.2885 36.091 58.5677 36.5854C60.7479 36.9809 62.9281 37.1786 65.0092 37.0798C65.4056 37.0798 65.9011 36.9809 66.4957 36.9809C67.0903 36.882 67.5858 36.7831 68.0813 36.5854C68.5768 36.3876 68.9732 36.1899 69.3696 35.7943C69.6668 35.4977 69.865 35.0033 69.865 34.41C69.865 34.0145 69.6668 33.7179 69.4686 33.4212C69.1714 33.1246 68.8741 32.9268 68.4777 32.7291C68.0813 32.5313 67.5858 32.4324 67.0903 32.4324C66.5948 32.3336 66.0993 32.3336 65.6038 32.3336C65.1083 32.3336 64.6128 32.3336 64.2164 32.3336C63.82 32.3336 63.4236 32.3336 63.2254 32.4324C61.4416 32.5313 59.7569 32.3336 58.2705 31.7403C56.784 31.147 55.3966 30.356 54.3065 29.2683C53.2164 28.1806 52.3245 26.8952 51.6308 25.412C50.9371 23.9288 50.5407 22.2479 50.4416 20.468C50.3425 17.9961 50.7389 15.7218 51.6308 13.7442C52.5227 11.7667 53.811 9.98682 55.3966 8.50363C56.9822 7.02044 58.865 5.83389 61.0452 5.04285C63.2254 4.15294 65.4056 3.65854 67.6849 3.55966C68.6759 3.46078 69.7659 3.46078 70.856 3.46078C71.9461 3.46078 73.0362 3.55966 74.1263 3.65854C75.2164 3.75742 76.3065 3.95518 77.2975 4.25182C78.3876 4.44958 79.3786 4.8451 80.2705 5.24061L79.775 18.0949C78.2885 17.6994 76.802 17.4028 75.2164 17.1061C73.6308 16.9084 72.0452 16.8095 70.5587 16.9084C70.2614 16.9084 69.9641 16.9084 69.4686 17.0073C69.0723 17.0073 68.5768 17.1061 68.0813 17.205C67.5858 17.3039 67.0903 17.4028 66.6939 17.5017C66.2975 17.6005 65.802 17.7983 65.4056 17.9961C65.0092 18.1938 64.7119 18.4904 64.5137 18.7871C64.3155 19.0837 64.2164 19.4792 64.2164 19.8748C64.2164 20.3692 64.4146 20.6658 64.811 20.9624C65.1083 21.2591 65.6038 21.4568 66.0993 21.5557C66.5948 21.6546 67.1894 21.7535 67.784 21.7535C68.3786 21.7535 69.0723 21.7535 69.6669 21.7535C70.2614 21.7535 70.856 21.6546 71.3515 21.6546C71.847 21.6546 72.3425 21.6546 72.6398 21.6546C74.3245 21.6546 75.9101 21.9512 77.2975 22.4456C78.6849 22.94 79.8741 23.7311 80.865 24.7199C81.856 25.7086 82.6488 26.8952 83.2434 28.1806C83.7389 29.2683 84.1353 30.7515 84.2344 32.4324Z" fill="white"/>
<path d="M117.432 2.27423L117.829 15.7218L108.414 16.6117L107.621 46.6711L94.3422 48.0554L92.8557 18.0949L83.4413 19.0837L82.9458 4.15294L117.432 2.27423Z" fill="white"/>
<path d="M156.973 42.7159L141.414 45.5834L139.135 38.563L131.901 38.9585L130.712 46.1767L114.459 45.4845L124.865 2.76863L142.405 0.9888L156.973 42.7159ZM137.45 28.9717L134.477 18.0949L132.694 29.1694L137.45 28.9717Z" fill="white"/>
<path d="M197.802 19.3804C197.901 21.0613 197.802 22.5445 197.405 23.9288C197.009 25.3131 196.513 26.4997 195.82 27.5874C195.126 28.675 194.234 29.565 193.243 30.356C192.252 31.147 191.063 31.8392 189.874 32.3336C188.685 32.828 187.297 33.3224 185.91 33.619C184.522 33.9156 183.036 34.1134 181.549 34.2123C180.955 34.2123 180.459 34.2123 179.964 34.2123C179.468 34.2123 178.874 34.2123 178.279 34.2123L177.486 10.3824C178.775 9.88796 180.063 9.49244 181.45 9.29468C182.838 9.09692 184.225 8.89916 185.513 8.80028C187.198 8.7014 188.784 8.89916 190.171 9.29468C191.657 9.6902 192.847 10.3824 193.937 11.2723C195.027 12.1622 195.919 13.3487 196.513 14.6342C197.306 16.1174 197.703 17.6005 197.802 19.3804ZM190.567 20.8636C190.567 20.2703 190.468 19.5781 190.27 18.9849C190.072 18.3916 189.775 17.8972 189.477 17.5017C189.081 17.1062 188.685 16.7106 188.09 16.5129C187.594 16.2162 186.901 16.1174 186.207 16.1174L186.108 27.093C186.802 26.9941 187.396 26.6975 187.991 26.3019C188.585 25.9064 188.982 25.412 189.378 24.9176C189.775 24.3243 190.072 23.7311 190.27 23.1378C190.468 22.4456 190.567 21.8524 190.567 21.1602V20.8636Z" fill="#FF4729"/>
<path d="M215.045 6.92157C215.045 8.00924 215.045 9.09692 215.045 10.1846C215.045 11.2723 215.045 12.3599 214.946 13.4476L207.414 14.2386L207.315 16.5129L212.567 16.2162L212.468 21.7535L207.117 22.2479V24.8187L211.477 24.621L214.648 24.4232C214.648 25.7086 214.648 26.9941 214.648 28.2795C214.648 29.5649 214.648 30.8504 214.648 32.1358L199.387 33.3224L198.594 7.7126L215.045 6.92157Z" fill="#FF4729"/>
<path d="M38.6488 56.9545C38.4506 59.3276 38.3515 61.6019 38.2524 63.975C38.1533 66.2492 37.9551 68.6223 37.7569 70.9954L21.8019 71.6876L21.4055 76.4338H32.6037L31.8109 88.1015L20.5136 88.497L20.1172 93.9354H29.4326H36.0722C35.874 96.704 35.7749 99.3738 35.5767 102.142C35.3785 104.812 35.2794 107.581 35.1803 110.349L2.7749 111.14L3.96409 56.9545H38.6488Z" fill="white"/>
<path d="M78.3877 91.0679C78.3877 94.5287 77.7931 97.4951 76.604 100.066C75.4148 102.637 73.8292 104.812 71.7481 106.493C69.667 108.174 67.2886 109.459 64.5139 110.349C61.7391 111.239 58.7661 111.635 55.5949 111.635C54.4057 111.635 53.0184 111.437 51.5319 111.14C50.0454 110.844 48.5589 110.448 47.0724 109.954C45.5859 109.459 44.0994 108.965 42.7121 108.372C41.3247 107.779 40.0364 107.284 39.0454 106.79L40.631 91.2657C42.8112 92.5511 45.0904 93.5399 47.7661 94.1332C50.3427 94.8253 52.9193 95.122 55.3967 95.122C55.8922 95.122 56.4868 95.122 57.0814 95.0231C57.7751 95.0231 58.3697 94.8253 59.0634 94.7265C59.658 94.5287 60.1535 94.2321 60.649 93.8365C61.0454 93.441 61.2436 92.9466 61.2436 92.2545C61.2436 91.7601 61.0454 91.3645 60.7481 91.0679C60.4508 90.7713 60.0544 90.4746 59.5589 90.2769C59.0634 90.0791 58.5679 89.8814 57.9733 89.7825C57.3787 89.6836 56.7841 89.5847 56.1895 89.5847C55.5949 89.4858 55.0994 89.4858 54.6039 89.4858C54.1085 89.4858 53.7121 89.4858 53.4148 89.4858C51.2346 89.4858 49.2526 89.0903 47.5679 88.3982C45.7841 87.6071 44.2976 86.6183 43.0094 85.234C41.7211 83.8497 40.7301 82.2676 40.0364 80.4878C39.3427 78.6091 38.9463 76.6315 38.9463 74.4562C38.9463 71.4898 39.5409 68.8201 40.7301 66.5458C41.9193 64.1727 43.5048 62.1951 45.4868 60.6131C47.4688 58.9321 49.7481 57.7456 52.3247 56.8557C54.9012 55.9657 57.5769 55.5702 60.3517 55.5702C61.5409 55.5702 62.8292 55.5702 64.1175 55.6691C65.4057 55.768 66.694 55.8669 67.9823 56.1635C69.2706 56.4601 70.5589 56.6579 71.7481 57.0534C72.9373 57.4489 74.1265 57.8444 75.2166 58.3388L73.8292 73.5663C72.1445 72.973 70.3607 72.4786 68.4778 72.0831C66.5949 71.6876 64.8112 71.4898 63.0274 71.4898C62.7301 71.4898 62.2346 71.4898 61.7391 71.4898C61.2436 71.4898 60.649 71.5887 60.1535 71.5887C59.5589 71.6876 59.0634 71.7864 58.4688 71.8853C57.8742 71.9842 57.3787 72.1819 56.8832 72.3797C56.3877 72.5775 56.0904 72.8741 55.7931 73.2696C55.4958 73.6651 55.3967 74.0607 55.3967 74.5551C55.3967 75.1483 55.5949 75.5438 55.9913 75.8405C56.3877 76.1371 56.8832 76.4338 57.4778 76.6315C58.0724 76.8293 58.7661 76.9282 59.4598 77.027C60.1535 77.1259 60.9463 77.1259 61.64 77.1259C62.3337 77.1259 63.0274 77.1259 63.622 77.1259C64.2166 77.1259 64.8112 77.1259 65.2076 77.2248C67.1895 77.3237 68.9733 77.8181 70.658 78.5102C72.2436 79.2024 73.631 80.1912 74.7211 81.3777C75.8112 82.5643 76.703 84.0475 77.2976 85.6295C78.0904 87.3105 78.3877 89.0903 78.3877 91.0679Z" fill="white"/>
<path d="M124.667 74.9506C124.667 77.4226 124.271 79.499 123.577 81.3777C122.883 83.2564 121.892 84.9374 120.604 86.3217C119.316 87.706 117.829 88.8926 116.145 89.8814C114.46 90.8701 112.577 91.6612 110.694 92.2545C108.712 92.8477 106.73 93.3421 104.649 93.6388C102.568 93.9354 100.487 94.0343 98.5049 94.1332V111.635H80.8652C80.8652 105.9 80.8652 100.165 80.8652 94.5287C80.8652 88.8926 80.9643 83.1576 80.9643 77.3237C81.0634 74.2584 81.0634 71.1932 80.9643 68.1279C80.9643 65.0626 80.9643 61.9974 81.1625 58.9321C84.3337 57.9433 87.604 57.2512 90.7751 56.7568C93.9463 56.2624 97.3157 56.0646 100.685 56.0646C102.568 56.0646 104.55 56.2624 106.433 56.559C108.316 56.8556 110.199 57.35 111.982 58.0422C113.766 58.7343 115.352 59.5254 116.937 60.6131C118.424 61.6018 119.811 62.7884 120.901 64.2716C121.991 65.6559 122.883 67.238 123.478 69.0178C124.271 70.6988 124.667 72.7752 124.667 74.9506ZM107.919 76.236C107.919 74.6539 107.424 73.3685 106.433 72.3797C105.442 71.4898 104.154 70.9954 102.568 70.9954C102.072 70.9954 101.478 70.9954 100.883 71.0943C100.289 71.1932 99.7932 71.292 99.2977 71.3909L98.8022 82.3665C99.1986 82.4654 99.4959 82.4654 99.7932 82.4654C100.09 82.4654 100.487 82.4654 100.784 82.4654C101.676 82.4654 102.568 82.2676 103.361 81.971C104.154 81.6744 104.946 81.2788 105.64 80.6856C106.334 80.0923 106.829 79.499 107.226 78.708C107.721 78.0158 107.919 77.2248 107.919 76.236Z" fill="white"/>
<path d="M162.325 56.9545C162.126 59.3276 162.027 61.6019 161.928 63.975C161.829 66.2492 161.631 68.6223 161.433 70.9954L145.478 71.7864L145.081 76.5326H156.28L155.487 88.2004L144.189 88.5959L143.793 94.0343H153.108H159.748C159.55 96.8029 159.451 99.4727 159.252 102.241C159.054 104.911 158.955 107.68 158.856 110.448L126.451 111.239L127.64 57.1523H162.325V56.9545Z" fill="white"/>
<path d="M207.712 74.8517C207.712 76.8293 207.514 78.6091 207.216 80.1912C206.919 81.7732 206.324 83.2564 205.631 84.5419C204.937 85.8273 203.946 87.1127 202.856 88.2004C201.667 89.2881 200.279 90.3757 198.694 91.4634L207.613 107.383L190.667 110.646L184.919 94.6276L180.261 94.8253L179.568 110.448H163.415C163.514 104.713 163.613 99.0771 163.811 93.441C163.91 87.8049 164.009 82.0699 164.207 76.4338C164.306 73.5663 164.306 70.6988 164.406 67.8312C164.406 64.9637 164.604 62.1951 164.703 59.2287C166.487 58.5366 168.171 58.0422 169.856 57.6467C171.541 57.2512 173.225 56.8556 175.009 56.6579C176.694 56.4601 178.478 56.2624 180.261 56.1635C182.045 56.0646 183.829 56.0646 185.712 56.0646C188.586 56.0646 191.361 56.4601 194.036 57.2512C196.712 58.0422 199.09 59.2287 201.171 60.8108C203.252 62.3929 204.838 64.3705 206.126 66.7436C207.018 69.0178 207.712 71.7864 207.712 74.8517ZM190.865 76.0382C190.865 74.9506 190.766 74.0607 190.469 73.1707C190.171 72.2808 189.775 71.4898 189.18 70.8965C188.586 70.3032 187.892 69.71 187.099 69.4133C186.306 69.0178 185.315 68.9189 184.126 68.9189C183.631 68.9189 183.135 68.9189 182.64 69.0178C182.144 69.1167 181.748 69.2156 181.252 69.3144L180.658 83.2564H181.55C182.64 83.2564 183.73 83.1576 184.82 82.8609C185.91 82.5643 186.901 82.1688 187.793 81.5755C188.685 80.9822 189.379 80.2901 189.973 79.4001C190.568 78.4113 190.865 77.3237 190.865 76.0382Z" fill="white"/>
<path d="M257.757 107.877L239.126 110.251L236.847 101.747H228.225L226.342 110.251L207.117 108.372L222.18 58.3389L243.09 57.2512L257.757 107.877ZM235.46 90.2769L232.586 77.2248L229.811 90.2769H235.46Z" fill="white"/>
<path d="M29.5317 143.375C31.1173 138.926 32.4056 133.883 33.1984 128.247L37.8561 127.456L39.2434 135.366L40.4326 127.752L44.793 127.456C45.4867 132.399 46.775 137.739 48.757 143.276L43.9011 144.067L42.1173 135.959L41.0272 143.573L36.9642 143.87L35.8741 135.465L34.3876 144.067L29.5317 143.375Z" fill="#FF4729"/>
<path d="M49.5498 143.078C51.3336 138.036 52.6219 133.092 53.5138 128.049L60.0543 127.159C60.8471 131.707 62.2345 136.849 64.2165 142.683L59.2615 143.672L58.5678 140.903L55.2976 141.2L54.703 143.968L49.5498 143.078ZM57.8741 138.036L56.5858 132.202L55.5948 138.036H57.8741Z" fill="#FF4729"/>
<path d="M78.6851 131.51C76.5049 131.608 75.0184 131.707 74.1265 131.806C73.9283 133.586 74.1265 137.442 74.8202 143.375L69.4688 144.364V132.202C69.1715 132.202 68.5769 132.301 67.5859 132.399C66.694 132.498 66.0004 132.597 65.4058 132.597L65.7031 128.345L77.8923 127.357L78.6851 131.51Z" fill="#FF4729"/>
<path d="M88.0994 127.159C90.8742 127.159 92.4597 128.148 92.8561 130.026C93.0543 132.301 91.9642 134.179 89.2886 135.662C89.685 136.157 91.1715 137.838 93.748 140.705C92.6579 141.595 91.3697 142.584 89.685 143.869L84.9282 137.739C84.9282 139.717 84.9282 141.496 85.1264 143.078L80.5679 144.067C80.8652 136.256 80.8651 130.916 80.4688 128.148C83.5408 127.554 86.0183 127.159 88.0994 127.159ZM85.0273 132.597L84.9282 134.179C85.6219 133.883 86.2165 133.586 86.8111 133.191C87.8021 132.498 88.1985 131.905 88.0994 131.411C88.0003 131.015 87.703 130.817 87.1084 130.817C86.6129 130.817 86.0183 130.916 85.1264 131.114C85.0273 131.608 85.0273 132.103 85.0273 132.597Z" fill="#FF4729"/>
<path d="M95.73 128.247L98.3066 127.95L100.883 127.554C100.487 130.521 100.289 133.191 100.189 135.761C100.09 138.233 100.189 140.606 100.388 142.683L98.1084 143.276L95.73 143.672V128.247Z" fill="#FF4729"/>
<path d="M104.154 139.914C103.361 138.53 103.063 136.948 103.063 135.366C103.063 133.883 103.46 132.498 104.054 131.213C104.649 129.829 105.541 128.84 106.631 128.148C107.82 127.357 109.109 127.06 110.496 127.258C111.982 127.456 113.568 128.148 115.154 129.532L113.964 131.015L112.676 132.498C111.09 131.51 109.802 131.51 108.811 132.301C107.919 132.993 107.523 134.08 107.622 135.564C107.622 137.047 108.118 138.134 109.009 138.827C110 139.618 111.19 139.519 112.676 138.53L115.054 141.2C113.766 142.683 112.379 143.573 110.892 143.869C109.604 144.067 108.316 143.771 106.928 143.078C105.838 142.386 104.847 141.299 104.154 139.914Z" fill="#FF4729"/>
<path d="M118.226 127.653L123.379 128.049L122.586 131.905L121.694 135.761C121.694 135.959 121.595 136.355 121.496 137.047C121.397 137.64 121.298 138.134 121.298 138.431C121.298 139.618 121.892 140.211 123.081 140.211C123.973 140.211 124.667 139.914 125.063 139.42C125.559 138.926 125.757 138.332 125.757 137.541L124.568 127.357L129.622 127.653L130.117 133.092L130.613 138.629C130.712 140.409 130.018 141.694 128.433 142.584C127.244 143.276 125.262 143.771 122.586 143.968C120.009 144.265 118.325 143.771 117.334 142.386C116.442 141.299 116.145 139.717 116.541 137.64L118.226 127.653Z" fill="#FF4729"/>
<path d="M132.694 128.247L137.649 127.554C137.252 131.608 137.054 135.366 137.054 138.728L142.306 138.134L142.802 142.189C140.027 142.386 136.658 142.881 132.595 143.672V128.247H132.694Z" fill="#FF4729"/>
<path d="M143.991 143.078C145.775 138.036 147.063 133.092 147.955 128.049L154.496 127.159C155.289 131.707 156.676 136.849 158.658 142.683L153.703 143.672L153.009 140.903L149.739 141.2L149.144 143.968L143.991 143.078ZM152.316 138.036L151.027 132.202L150.036 138.036H152.316Z" fill="#FF4729"/>
<path d="M168.072 133.982C168.171 130.719 169.46 128.741 171.937 127.851C172.631 127.653 173.324 127.456 174.018 127.456C175.604 127.456 177.09 127.851 178.478 128.642C180.261 129.631 181.252 130.817 181.649 132.202C181.946 133.487 181.55 134.674 180.261 135.959C179.27 136.849 177.784 137.739 175.703 138.431C174.117 138.926 173.126 139.519 172.829 140.013L180.658 139.618L181.054 143.672L167.775 144.166C167.676 143.869 167.577 143.474 167.478 143.276C167.081 141.793 167.18 140.606 167.775 139.519C168.469 138.233 170.351 137.047 173.424 135.761C175.108 135.069 176 134.377 176.198 133.685C176.297 133.289 176.297 132.993 176.198 132.795C176.099 132.498 175.901 132.301 175.703 132.004C175.406 131.806 175.108 131.707 174.613 131.707C173.721 131.707 173.424 132.202 173.622 133.191L168.072 133.982Z" fill="#FF4729"/>
<path d="M192.054 126.961C194.235 126.961 196.018 127.851 197.307 129.631C198 130.521 198.496 131.411 198.694 132.498C198.991 133.487 198.991 134.674 198.892 135.86C198.595 137.937 197.703 139.717 196.316 141.397C194.532 143.474 192.451 144.562 189.973 144.562C187.793 144.562 186.009 143.672 184.721 141.991C184.126 141.2 183.631 140.211 183.433 139.222C183.135 138.233 183.135 137.047 183.235 135.86C183.433 133.784 184.325 131.905 185.712 130.125C187.397 127.95 189.577 126.961 192.054 126.961ZM191.856 131.51C190.766 131.51 189.775 132.202 188.883 133.487C188.289 134.575 187.892 135.564 187.694 136.454C187.595 136.948 187.694 137.442 187.793 137.937C187.991 138.53 188.289 139.024 188.784 139.42C189.379 139.815 190.072 140.013 190.865 140.013C192.054 140.013 192.946 139.618 193.64 138.728C194.235 138.036 194.532 137.146 194.631 136.256C194.73 135.168 194.532 134.08 194.036 133.092C193.541 132.004 192.748 131.51 191.856 131.51Z" fill="#FF4729"/>
<path d="M201.171 133.982C201.27 130.719 202.559 128.741 205.036 127.851C205.73 127.653 206.424 127.456 207.117 127.456C208.703 127.456 210.189 127.851 211.577 128.642C213.36 129.631 214.351 130.817 214.748 132.202C215.045 133.487 214.649 134.674 213.36 135.959C212.37 136.849 210.883 137.739 208.802 138.431C207.216 138.926 206.225 139.519 205.928 140.013L213.757 139.618L214.153 143.672L200.874 144.166C200.775 143.869 200.676 143.474 200.577 143.276C200.18 141.793 200.279 140.606 200.874 139.519C201.568 138.233 203.451 137.047 206.523 135.761C208.207 135.069 209.099 134.377 209.297 133.685C209.397 133.289 209.397 132.993 209.297 132.795C209.198 132.498 209 132.301 208.802 132.004C208.505 131.806 208.207 131.707 207.712 131.707C206.82 131.707 206.523 132.202 206.721 133.191L201.171 133.982Z" fill="#FF4729"/>
<path d="M217.523 133.982C217.622 130.719 218.91 128.741 221.388 127.851C222.081 127.653 222.775 127.456 223.469 127.456C225.054 127.456 226.541 127.851 227.928 128.642C229.712 129.631 230.703 130.817 231.099 132.202C231.397 133.487 231 134.674 229.712 135.959C228.721 136.849 227.235 137.739 225.154 138.431C223.568 138.926 222.577 139.519 222.28 140.013L230.108 139.618L230.505 143.672L217.226 144.166C217.126 143.869 217.027 143.474 216.928 143.276C216.532 141.793 216.631 140.606 217.226 139.519C217.919 138.233 219.802 137.047 222.874 135.761C224.559 135.069 225.451 134.377 225.649 133.685C225.748 133.289 225.748 132.993 225.649 132.795C225.55 132.498 225.352 132.301 225.154 132.004C224.856 131.806 224.559 131.707 224.063 131.707C223.172 131.707 222.874 132.202 223.072 133.191L217.523 133.982Z" fill="#FF4729"/>
<path d="M102.072 122.709C101.082 124.192 100.586 125.28 100.19 126.467L96.5229 127.06L97.8112 123.105L102.072 122.709Z" fill="#FF4729"/>
</g>
<defs>
<clipPath id="clip0">
<rect width="264" height="150" fill="white"/>
</clipPath>
</defs>
</svg>
