<svg width="316" height="175" viewBox="0 0 316 175" fill="none" xmlns="http://www.w3.org/2000/svg">
<g clip-path="url(#clip0_145_769)">
<path d="M10.2998 85.1997L21.8998 114C22.3998 115.2 22.4998 116.1 22.7998 117.1H22.8998C23.2998 115.2 23.6998 114.2 24.1998 113.1L35.4998 85.1997H45.7998V88.4997H40.9998L41.2998 119H45.7998V122.3H32.8998V119H36.8998L36.9998 91.7997H36.8998C36.5998 92.8997 36.2998 93.8997 35.9998 94.6997L24.6998 122.4H20.6998L9.5998 95.0997C9.19981 94.2997 8.8998 93.2997 8.4998 92.0997H8.3998L8.2998 119H12.7998V122.3H0.299805V119H4.5998L4.8998 88.4997H0.299805V85.1997H10.2998Z" fill="white"/>
<path d="M72.3998 104.3C72.3998 104.5 72.0998 116.6 72.0998 119.1H75.9998V122.4H68.0998V121.9C68.0998 119.7 68.3998 117.9 68.5998 116.4H68.4998C66.8998 120.9 64.0998 123 59.3998 123C53.9998 123 50.7998 120.2 50.7998 115.1C50.7998 109.4 55.0998 106.7 67.0998 106.7H68.1998V104.8C68.1998 99.5997 66.2998 97.5997 61.8998 97.5997C59.7998 97.5997 57.4998 97.9997 55.7998 98.6997V102.9H51.9998V96.2997C54.9998 95.0997 58.2998 94.1997 61.6998 94.1997C69.2998 94.2997 72.3998 97.4997 72.3998 104.3ZM60.3998 119.7C64.9998 119.7 68.2998 116.4 68.2998 109.8H65.9998C56.1998 109.8 55.2998 112.6 55.2998 115.1C55.2998 117.8 57.3998 119.7 60.3998 119.7Z" fill="white"/>
<path d="M88.8999 95H97.4999V98.3H88.7999L88.5999 105C88.4999 109.5 88.4999 111.5 88.4999 113.1C88.4999 115.9 88.7999 119.4 92.3999 119.4C94.7999 119.4 96.5999 118.8 98.0999 118.3L97.8999 121.8C96.3999 122.5 93.8999 123.1 91.6999 123.1C88.2999 123.1 84.0999 122.3 84.0999 115.1C84.0999 110.8 84.2999 101.6 84.2999 98.4H79.8999V95H84.2999L84.4999 88.3L88.8999 88V95Z" fill="white"/>
<path d="M121.3 94.9L120.9 98.8C120.1 98.5 118.9 98.4 117.9 98.4C112.9 98.4 109.8 103.2 109.7 108.6L109.5 119H114.1V122.3H101.2V119H105.1L105.3 98.3H100.6V95H109.6V95.5C109.6 98.3 109.2 101.4 109 103.5H109.2C110.8 96.5 114 94.5 118.4 94.5C118.8 94.5 121.1 94.7 121.3 94.9Z" fill="white"/>
<path d="M132.3 94.9998L132.1 119.1H136.5V122.4H123.4V119H127.8L128 98.2998H123V94.9998H132.3ZM135.1 79.7998L137.9 82.0998L128 90.3998L125.4 88.1998L135.1 79.7998Z" fill="white"/>
<path d="M163.1 95.6997V102.9H159.2V98.5997C158.1 98.1997 156.1 97.9997 154.6 97.9997C148.4 97.9997 145.1 102.1 145.1 108.7C145.1 114.9 148.6 119.5 155.5 119.5C158.2 119.5 160.4 118.8 162.9 118L162.7 121.8C160.6 122.4 157.8 123.1 154.8 123.1C145.5 123.1 140.5 117.6 140.5 108.8C140.5 99.5997 146.7 94.4997 154.3 94.4997C157.2 94.2997 160.3 94.6997 163.1 95.6997Z" fill="white"/>
<path d="M176 95C176 98 175.8 106.8 175.8 110.8C175.8 116.5 177.2 119.5 181.9 119.5C187.2 119.5 190 116 190 107.3V98.4H185.7V95H194.5L194.3 119.1H198.1V122.4H190C190 120.8 190.1 119.3 190.2 118.7L190.6 116.4H190.5C189 120.4 185.2 123.1 181.3 123.1C175 123.1 171.6 120.3 171.6 111.5C171.6 109.6 171.7 105.3 171.8 98.4H167.4V95H176Z" fill="white"/>
<path d="M211 81.5L210.8 119H215.2V122.3H202.6V119H206.5L206.7 84.8H201.4V81.5H211Z" fill="white"/>
<path d="M241.6 104.3C241.6 104.5 241.3 116.6 241.3 119.1H245.2V122.4H237.3V121.9C237.3 119.7 237.6 117.9 237.8 116.4H237.7C236.1 120.9 233.3 123 228.6 123C223.2 123 220 120.2 220 115.1C220 109.4 224.3 106.7 236.3 106.7H237.4V104.8C237.4 99.5997 235.5 97.5997 231.1 97.5997C229 97.5997 226.7 97.9997 225 98.6997V102.9H221.1V96.2997C224.1 95.0997 227.4 94.1997 230.8 94.1997C238.4 94.2997 241.6 97.4997 241.6 104.3ZM229.6 119.7C234.2 119.7 237.5 116.4 237.5 109.8H235.2C225.4 109.8 224.5 112.6 224.5 115.1C224.5 117.8 226.6 119.7 229.6 119.7Z" fill="white"/>
<path d="M18.6002 174.5C6.9002 174.5 0.200195 167.2 0.200195 155.3C0.200195 144.6 7.4002 136.1 18.6002 136.1C30.1002 136.1 37.0002 143.2 37.0002 155.3C37.0002 167.2 30.3002 174.5 18.6002 174.5ZM28.6002 155.3C28.6002 147.2 24.9002 142.1 18.6002 142.1C12.5002 142.1 8.7002 147 8.7002 155.3C8.7002 163.8 12.4002 168.5 18.7002 168.5C24.9002 168.5 28.6002 163.8 28.6002 155.3Z" fill="white"/>
<path d="M70.1003 168.5H73.3003V173.9H59.6003V168.5H62.6003V156.9C62.6003 153.4 60.7003 151.9 57.8003 151.9C53.6003 151.9 51.3003 154.8 51.3003 159.1V168.6H54.5003V174H41.2003V168.6H43.9003V151.7H40.3003V146.3H51.2003C51.2003 148.4 51.2003 150 50.8003 152H50.9003C52.3003 148.3 55.6003 145.6 60.5003 145.6C67.1003 145.6 70.1003 150 70.1003 156.2V168.5Z" fill="white"/>
<path d="M87.2001 133V168.4H90.4001V173.8H76.8001V168.4H79.8001V138.4H75.6001V133H87.2001Z" fill="white"/>
<path d="M104.4 146.1V168.5H107.6V173.9H93.9003V168.5H96.9003V151.6H93.3003V146.2H104.4V146.1ZM100.4 141.5C97.3003 141.5 95.4003 139.6 95.4003 136.9C95.4003 134.1 97.3003 132.3 100.4 132.3C103.5 132.3 105.4 134.2 105.4 136.9C105.4 139.6 103.5 141.5 100.4 141.5Z" fill="white"/>
<path d="M140.8 168.5H144V173.9H130.3V168.5H133.3V156.9C133.3 153.4 131.4 151.9 128.5 151.9C124.3 151.9 122 154.8 122 159.1V168.6H125.2V174H111.9V168.6H114.6V151.7H111V146.3H121.9C121.9 148.4 121.9 150 121.5 152H121.6C123 148.3 126.3 145.6 131.2 145.6C137.8 145.6 140.8 150 140.8 156.2V168.5Z" fill="white"/>
<path d="M155.6 161.7C155.8 166.2 159.2 168.8 164.5 168.8C167.9 168.8 170.2 168.3 173.4 166.9L173 172.8C169.5 174.1 166.6 174.6 162.8 174.6C153.1 174.6 147.5 169 147.5 160.2C147.5 151.3 153 145.5 161.5 145.5C169.7 145.5 174.9 151 174.9 161.7H155.6ZM166.8 156.6C166.8 152.8 164.7 150.6 161.1 150.6C157.9 150.6 155.8 152.7 155.5 156.6H166.8Z" fill="white"/>
<path d="M203.9 168V168.1C206.1 167.8 206.8 167.8 207.5 167.8H221.4V173.9H193.3V168.8C205 160.3 212.5 152 212.5 147C212.5 143.8 210.1 141.9 207.3 141.9C203.5 141.9 201.3 144.6 200.9 148.2H193.5C193.9 140.5 199.4 135.9 207.6 135.9C214.9 135.9 220.3 139.8 220.3 146.7C220.3 152.5 216 158.6 203.9 168Z" fill="white"/>
<path d="M238.7 174.8C229.8 174.8 225 168.6 225 156.3C225 143 230.5 135.8 239.9 135.8C248.3 135.8 253.4 142.9 253.4 155.3C253.4 167.4 247.4 174.8 238.7 174.8ZM245.3 155.3C245.3 146.6 243.5 141.9 239.3 141.9C235.5 141.9 233.1 146.1 233.1 155.7C233.1 165 234.8 168.8 239.3 168.8C243.3 168.7 245.3 164.1 245.3 155.3Z" fill="white"/>
<path d="M266.8 168V168.1C269 167.8 269.7 167.8 270.4 167.8H284.3V173.9H256.2V168.8C267.9 160.3 275.4 152 275.4 147C275.4 143.8 273 141.9 270.2 141.9C266.4 141.9 264.2 144.6 263.8 148.2H256.4C256.8 140.5 262.3 135.9 270.5 135.9C277.8 135.9 283.2 139.8 283.2 146.7C283.2 152.5 278.9 158.6 266.8 168Z" fill="white"/>
<path d="M298.2 168V168.1C300.4 167.8 301.1 167.8 301.8 167.8H315.7V173.9H287.6V168.8C299.3 160.3 306.8 152 306.8 147C306.8 143.8 304.4 141.9 301.6 141.9C297.8 141.9 295.6 144.6 295.2 148.2H287.8C288.2 140.5 293.7 135.9 301.9 135.9C309.2 135.9 314.6 139.8 314.6 146.7C314.6 152.5 310.3 158.6 298.2 168Z" fill="white"/>
<path d="M4.6 4.5L47.4 47.4L28.6 49.7L33.5 59.3L34.7 61.7L21.8 68.3L20.5 66L15.1 55.3L0 67.9V0L4.6 4.5ZM5.3 56.4L16.8 46.8L18.4 49.8L24.1 61.3L27.6 59.5L20.4 45.5L24.1 45L36.1 43.6L5.3 12.9V56.4Z" fill="white"/>
</g>
<defs>
<clipPath id="clip0_145_769">
<rect width="315.8" height="174.8" fill="white"/>
</clipPath>
</defs>
</svg>
