<svg width="368" height="229" viewBox="0 0 368 229" fill="none" xmlns="http://www.w3.org/2000/svg">
<path d="M37.4641 112.004H30.1995V105.452C28.124 104.724 26.5673 104.516 24.4917 104.516C15.9818 104.516 11.208 110.132 11.208 119.076C11.208 128.124 16.1894 133.739 24.9068 133.739C26.1522 133.739 28.2277 133.635 29.6806 133.115L29.992 125.732H37.2565L36.9452 138.315C32.4827 139.875 28.5391 140.395 23.7652 140.395C10.0664 140.395 1.97168 132.387 1.97168 119.596C1.97168 107.22 10.3778 98.2766 24.0766 98.2766C29.2655 98.2766 33.5205 99.3165 37.4641 100.668V112.004Z" fill="#FEFEFE"/>
<path d="M53.3422 94.9487V109.82C53.3422 111.692 53.2384 113.668 52.9271 115.54C54.4837 111.484 58.116 108.572 63.4087 108.572C70.6733 108.572 73.8904 113.356 73.8904 120.22V133.739H77.4189V139.667H62.5785V133.739H65.8994V121.052C65.8994 117.308 63.8239 115.54 60.6067 115.54C56.0404 115.54 53.5497 118.764 53.5497 123.444V133.843H57.0782V139.771H42.0303V133.843H45.3512V100.876H40.6812V94.9487H53.3422Z" fill="#FEFEFE"/>
<path d="M108.553 133.843H111.977V139.771H101.807C101.807 136.755 101.807 135.195 102.222 133.739H102.118C100.043 138.419 97.3446 140.499 92.1557 140.499C85.929 140.499 81.9854 136.963 81.9854 131.659C81.9854 128.747 83.3345 125.94 86.1365 124.172C89.0423 122.404 93.7124 121.988 97.656 121.884L101.184 121.78V120.74C101.184 115.644 99.4202 114.5 95.4766 114.5C94.2313 114.5 91.7406 114.812 90.3914 115.332V119.388H83.4383V111.692C86.9667 109.82 91.6368 108.572 95.5804 108.572C104.609 108.572 108.864 112.004 108.864 120.636C108.864 125.524 108.76 129.371 108.553 133.843ZM101.081 126.772H98.59C93.1935 126.772 90.0801 127.812 90.0801 130.827C90.0801 132.595 91.3254 134.467 94.5426 134.467C98.59 134.467 101.081 131.659 101.081 126.772Z" fill="#FEFEFE"/>
<path d="M138.337 116.268C137.403 116.06 136.469 115.956 135.743 115.956C131.176 115.956 128.167 119.18 128.167 123.86V133.843H132.007V139.771H116.751V133.843H120.072V115.228H116.128V109.3H127.959C127.959 111.484 127.855 113.46 127.44 116.268H127.544C128.789 111.172 131.695 108.572 136.262 108.572C137.299 108.572 138.026 108.78 138.96 108.884L138.337 116.268Z" fill="#FEFEFE"/>
<path d="M151.932 94.9487V133.739H155.461V139.667H140.517V133.739H143.838V100.876H139.167V94.9487H151.932Z" fill="#FEFEFE"/>
<path d="M185.972 133.843H189.396V139.771H179.226C179.226 136.755 179.226 135.195 179.641 133.739H179.537C177.462 138.419 174.764 140.499 169.575 140.499C163.348 140.499 159.404 136.963 159.404 131.659C159.404 128.747 160.753 125.94 163.555 124.172C166.461 122.404 171.131 121.988 175.075 121.884L178.603 121.78V120.74C178.603 115.644 176.839 114.5 172.896 114.5C171.65 114.5 169.16 114.812 167.81 115.332V119.388H160.857V111.692C164.386 109.82 169.056 108.572 172.999 108.572C182.028 108.572 186.283 112.004 186.283 120.636C186.283 125.524 186.179 129.371 185.972 133.843ZM178.5 126.772H176.009C170.612 126.772 167.499 127.812 167.499 130.827C167.499 132.595 168.744 134.467 171.962 134.467C175.905 134.467 178.5 131.659 178.5 126.772Z" fill="#FEFEFE"/>
<path d="M218.766 118.14H211.398V115.02C209.737 114.5 208.284 114.188 206.727 114.188C202.991 114.188 201.227 115.748 201.227 117.412C201.227 119.596 201.954 119.596 210.152 120.74C217.313 121.78 220.219 124.276 220.219 129.891C220.219 136.339 215.134 140.395 205.897 140.395C202.473 140.395 196.765 139.563 193.963 138.523V129.995H201.331V133.531C202.68 133.947 205.067 134.571 206.727 134.571C209.737 134.571 212.643 133.323 212.643 130.827C212.643 128.54 210.982 128.124 201.642 126.772C196.038 125.94 193.651 123.132 193.651 118.66C193.651 112.42 198.84 108.676 207.039 108.676C210.256 108.676 214.2 109.092 218.87 110.756V118.14H218.766Z" fill="#FEFEFE"/>
<path d="M13.699 163.482V188.025H17.2275V193.953H2.28332V188.025H5.60424V169.41H1.66064V163.482H13.699ZM9.34028 158.386C5.91558 158.386 3.84 156.307 3.84 153.291C3.84 150.275 5.91558 148.195 9.34028 148.195C12.765 148.195 14.8406 150.275 14.8406 153.291C14.8406 156.307 12.765 158.386 9.34028 158.386Z" fill="#FEFEFE"/>
<path d="M53.4464 187.921H56.9749V193.849H42.0307V187.921H45.3517V175.234C45.3517 171.49 43.2761 169.722 40.0589 169.722C35.4927 169.722 33.002 172.946 33.002 177.626V188.025H36.5304V193.953H22.0014V188.025H25.011V169.41H21.0674V163.482H33.002C33.002 165.77 33.002 167.538 32.5868 169.722H32.6906C34.2473 165.666 37.8796 162.754 43.1723 162.754C50.4368 162.754 53.654 167.538 53.654 174.402V187.921H53.4464Z" fill="#FEFEFE"/>
<path d="M83.4386 154.851C82.0895 154.435 80.8442 154.227 79.5988 154.227C74.6174 154.227 72.3343 155.891 72.3343 160.674V163.482H78.7686V169.41H72.3343V188.025H76.693V193.953H60.7111V188.025H64.2395V169.41H60.0884V163.482H64.2395V160.05C64.2395 152.355 68.4945 148.299 77.627 148.299C79.2875 148.299 80.9479 148.403 83.4386 148.923V154.851Z" fill="#FEFEFE"/>
<path d="M97.2412 194.577C87.0709 194.577 81.2593 188.857 81.2593 178.978C81.2593 169.93 87.6936 162.754 97.2412 162.754C107.619 162.754 113.223 168.474 113.223 178.978C113.223 188.129 106.893 194.577 97.2412 194.577ZM104.402 179.186C104.402 172.634 102.326 169.41 97.2412 169.41C93.0901 169.41 90.1843 172.634 90.1843 179.186C90.1843 184.698 92.2598 188.025 97.345 188.025C102.326 187.921 104.402 184.698 104.402 179.186Z" fill="#FEFEFE"/>
<path d="M139.375 170.346C138.441 170.138 137.507 170.034 136.781 170.034C132.214 170.034 129.205 173.258 129.205 177.938V187.921H133.045V193.849H117.789V187.921H121.11V169.306H117.167V163.378H128.997C128.997 165.562 128.894 167.538 128.478 170.346H128.582C129.828 165.25 132.733 162.65 137.3 162.65C138.337 162.65 139.064 162.858 139.998 162.962L139.375 170.346Z" fill="#FEFEFE"/>
<path d="M172.585 169.618C174.037 165.354 177.358 162.754 182.755 162.754C190.019 162.754 193.237 167.538 193.237 174.402V187.921H196.765V193.849H182.236V187.921H185.246V175.234C185.246 171.49 183.17 169.722 179.953 169.722C175.905 169.722 173.519 173.05 173.519 177.626V188.025H177.047V193.953H162.518V188.025H165.528V175.338C165.528 171.594 163.452 169.826 160.235 169.826C156.084 169.826 153.801 173.258 153.801 177.73V188.129H157.329V194.057H142.385V188.129H145.706V169.514H141.762V163.586H153.697C153.697 165.77 153.697 167.642 153.282 169.722H153.385C155.046 165.25 158.782 162.858 163.867 162.858C168.952 162.858 171.962 165.146 172.792 169.722H172.585V169.618Z" fill="#FEFEFE"/>
<path d="M227.898 187.921H231.323V193.849H221.153C221.153 190.833 221.153 189.273 221.568 187.817H221.464C219.389 192.497 216.69 194.577 211.501 194.577C205.275 194.577 201.331 191.041 201.331 185.738C201.331 182.826 202.68 180.018 205.482 178.25C208.388 176.482 213.058 176.066 217.002 175.962L220.53 175.858V174.818C220.53 169.722 218.766 168.578 214.822 168.578C213.577 168.578 211.086 168.89 209.737 169.41V173.466H202.784V165.77C206.312 163.898 210.983 162.65 214.926 162.65C223.955 162.65 228.21 166.082 228.21 174.714C228.21 179.602 228.106 183.554 227.898 187.921ZM220.426 180.954H217.936C212.539 180.954 209.426 181.994 209.426 185.01C209.426 186.777 210.671 188.649 213.888 188.649C217.832 188.649 220.426 185.842 220.426 180.954Z" fill="#FEFEFE"/>
<path d="M245.956 163.482H254.051V169.41H245.956V183.242C245.956 186.777 246.786 188.337 250.419 188.337C251.664 188.337 253.013 187.921 254.466 187.401L254.155 193.121C251.145 194.265 249.069 194.577 247.098 194.577C240.871 194.577 237.965 191.561 237.965 186.569V169.306H233.814V163.378H237.965V157.139L246.06 156.723V163.482H245.956Z" fill="#FEFEFE"/>
<path d="M267.438 163.482V188.025H270.967V193.953H256.023V188.025H259.343V169.41H255.4V163.482H267.438ZM263.08 158.386C259.655 158.386 257.579 156.307 257.579 153.291C257.579 150.275 259.655 148.195 263.08 148.195C266.504 148.195 268.58 150.275 268.58 153.291C268.58 156.307 266.504 158.386 263.08 158.386Z" fill="#FEFEFE"/>
<path d="M285.807 163.482V169.41H283.005L288.506 184.386C288.817 185.218 288.817 185.218 289.128 186.881H289.232C289.543 185.218 289.543 185.114 289.855 184.386L295.148 169.41H291.723V163.482H306.252V169.41H303.45L293.072 193.953H284.251L273.665 169.41H270.863V163.482H285.807Z" fill="#FEFEFE"/>
<path d="M333.753 187.921H337.178V193.849H326.904C326.904 190.833 326.904 189.273 327.319 187.817H327.215C325.14 192.497 322.441 194.577 317.252 194.577C311.026 194.577 307.082 191.041 307.082 185.738C307.082 182.826 308.431 180.018 311.233 178.25C314.139 176.482 318.809 176.066 322.753 175.962L326.281 175.858V174.818C326.281 169.722 324.517 168.578 320.573 168.578C319.328 168.578 316.837 168.89 315.488 169.41V173.466H308.535V165.77C312.063 163.898 316.733 162.65 320.677 162.65C329.706 162.65 333.961 166.082 333.961 174.714C334.065 179.602 333.857 183.554 333.753 187.921ZM326.281 180.954H323.79C318.394 180.954 315.281 181.994 315.281 185.01C315.281 186.777 316.526 188.649 319.743 188.649C323.687 188.649 326.281 185.842 326.281 180.954Z" fill="#FEFEFE"/>
<path d="M366.547 172.322H359.179V169.202C357.518 168.682 356.065 168.37 354.509 168.37C350.773 168.37 349.008 169.93 349.008 171.594C349.008 173.778 349.735 173.778 357.933 174.922C365.094 175.962 368 178.458 368 184.074C368 190.521 362.915 194.577 353.679 194.577C350.254 194.577 344.546 193.745 341.744 192.705V184.074H349.112V187.609C350.461 188.025 352.848 188.649 354.509 188.649C357.518 188.649 360.424 187.401 360.424 184.906C360.424 182.618 358.764 182.202 349.424 180.85C343.82 180.018 341.433 177.21 341.433 172.738C341.433 166.498 346.622 162.754 354.82 162.754C358.037 162.754 361.981 163.17 366.651 164.834V172.322H366.547Z" fill="#FEFEFE"/>
<path d="M1.0376 26.6231H9.33991V32.1349H1.0376V26.6231ZM14.3213 0L20.0291 5.92779L16.1893 9.77566L10.3777 3.95186L14.3213 0ZM16.2931 49.1903L20.1329 53.0381L14.4251 58.9659L10.3777 54.8061L16.2931 49.1903ZM39.7471 1.76794C46.4928 1.76794 52.4082 4.26385 57.2858 9.15168C62.1634 14.0395 64.6541 19.8633 64.6541 26.7271C64.6541 33.7988 61.9558 40.0386 56.6631 45.4464C52.927 48.7743 51.1628 52.5182 51.1628 56.678V57.198V60.0059H50.8515V68.3256V71.1335H48.0494H44.6247C43.4832 73.0054 41.8227 73.9414 39.7471 73.9414C37.6715 73.9414 36.0111 73.0054 34.8695 71.1335H31.4448H28.6428V68.3256V57.094V54.2861C28.0201 50.9582 26.4634 48.1503 23.7652 45.9664C20.548 43.1585 18.1611 39.8306 16.6044 35.8787C15.0477 31.9269 14.5289 27.767 15.1515 23.3992C15.9818 17.7834 18.3687 12.8955 22.4161 8.83969C26.4634 4.78383 31.2373 2.49591 36.9451 1.87193C37.8791 1.97593 38.8131 1.87193 39.7471 1.76794ZM39.7471 7.27975C39.1245 7.38374 38.5018 7.48774 37.6715 7.59173C33.3128 8.00772 29.5768 9.87965 26.3596 12.9995C23.1425 16.1194 21.2745 19.8633 20.7556 24.2312C19.7178 31.1989 22.0009 37.0227 27.5012 41.7025C31.1335 44.8224 33.3128 48.9823 33.9355 54.2861H45.9739C46.7003 49.1903 48.9834 44.9264 52.927 41.2866L52.7195 41.0786C56.9744 36.9187 59.1538 32.0309 59.1538 26.5191C59.1538 21.2153 57.2858 16.6394 53.4459 12.8955C49.6061 9.15168 45.0398 7.27975 39.7471 7.27975ZM34.2468 59.9019V65.4137H45.2474V59.9019H34.2468ZM65.173 0L69.1166 3.95186L63.2012 9.67166L59.3613 5.8238L65.173 0ZM63.2012 49.1903L69.1166 54.9101L65.173 58.8619L59.4651 52.9342L63.2012 49.1903ZM70.1543 26.6231H78.4567V32.1349H70.1543V26.6231Z" fill="white"/>
<path d="M48.3608 219.744L51.1628 228.688C51.1628 228.792 51.1628 228.896 50.9553 228.896H50.3326C50.2288 228.896 50.125 228.792 50.125 228.688L49.3986 226.192H46.2852L45.5588 228.688C45.5588 228.792 45.455 228.896 45.3512 228.896H44.8323C44.7285 228.896 44.6248 228.792 44.7285 228.688L47.4268 219.744C47.4268 219.64 47.5306 219.536 47.7381 219.536H48.3608C48.257 219.536 48.3608 219.536 48.3608 219.744ZM48.1532 222.24C48.0495 221.824 47.8419 220.68 47.8419 220.576C47.8419 220.68 47.6343 221.72 47.5306 222.24L46.4928 225.464H49.191L48.1532 222.24Z" fill="#FEFEFE"/>
<path d="M52.9273 228.896C52.8235 228.896 52.7197 228.792 52.7197 228.688V219.744C52.7197 219.64 52.8235 219.536 52.9273 219.536H55.7293C58.0124 219.536 58.7389 220.472 58.7389 221.512V226.92C58.7389 228.064 58.0124 228.896 55.7293 228.896H52.9273ZM53.6537 220.368V228.064H55.6255C57.0784 228.064 57.5973 227.544 57.5973 226.712V221.616C57.5973 220.784 57.0784 220.264 55.6255 220.264H53.6537V220.368Z" fill="#FEFEFE"/>
<path d="M68.4941 228.688C68.4941 228.792 68.3903 228.896 68.2865 228.896H67.7676C67.6638 228.896 67.56 228.792 67.56 228.688V221.512C67.4563 221.72 67.3525 222.136 67.2487 222.344L65.2769 227.232C65.1731 227.336 65.1731 227.44 64.9656 227.44H64.4467C64.3429 227.44 64.2391 227.336 64.1353 227.232L62.0598 222.24C61.956 222.136 61.956 221.824 61.8522 221.512V228.584C61.8522 228.688 61.7484 228.792 61.6446 228.792H61.2295C61.1258 228.792 61.022 228.688 61.022 228.584V219.64C61.022 219.536 61.1258 219.432 61.2295 219.432H61.7484C61.8522 219.432 61.8522 219.432 61.956 219.536L64.5505 225.672C64.6542 225.984 64.758 226.296 64.758 226.4C64.758 226.4 64.8618 225.984 65.0694 225.672L67.6638 219.536C67.6638 219.432 67.7676 219.432 67.8714 219.432H68.3903C68.4941 219.432 68.5978 219.536 68.5978 219.64V228.688H68.4941Z" fill="#FEFEFE"/>
<path d="M72.0222 228.688C72.0222 228.792 72.0222 228.896 71.8146 228.896H71.1919C71.0882 228.896 70.9844 228.792 70.9844 228.688V219.744C70.9844 219.64 71.0882 219.536 71.1919 219.536H71.8146C71.9184 219.536 72.0222 219.64 72.0222 219.744V228.688Z" fill="#FEFEFE"/>
<path d="M77.2112 220.264C75.7583 220.264 75.3432 220.784 75.3432 221.616V222.032C75.3432 222.76 75.7583 222.968 76.1734 223.072L78.7679 224.008C79.4943 224.32 80.2208 224.84 80.2208 225.776V226.92C80.2208 228.064 79.4943 228.896 77.315 228.896C75.0319 228.896 74.4092 227.96 74.4092 226.92V226.192C74.4092 226.088 74.513 225.984 74.6167 225.984H75.1356C75.2394 225.984 75.3432 226.088 75.3432 226.192V226.816C75.3432 227.648 75.8621 228.168 77.315 228.168C78.7679 228.168 79.2868 227.648 79.2868 226.816V225.984C79.2868 225.256 78.6641 224.944 78.1452 224.736L75.6545 223.8C75.0319 223.592 74.4092 222.968 74.4092 222.136V221.408C74.4092 220.264 75.0319 219.432 77.2112 219.432C79.3906 219.432 80.117 220.368 80.117 221.408V222.032C80.117 222.136 80.0132 222.24 79.9095 222.24H79.3906C79.2868 222.24 79.183 222.136 79.183 222.032V221.512C79.0792 220.784 78.6641 220.264 77.2112 220.264Z" fill="#FEFEFE"/>
<path d="M83.2307 228.688C83.2307 228.792 83.2307 228.896 83.0231 228.896H82.4004C82.2967 228.896 82.1929 228.792 82.1929 228.688V219.744C82.1929 219.64 82.2967 219.536 82.4004 219.536H83.0231C83.1269 219.536 83.2307 219.64 83.2307 219.744V228.688Z" fill="#FEFEFE"/>
<path d="M85.6172 221.408C85.6172 220.264 86.3436 219.432 88.6268 219.432C90.9099 219.432 91.6364 220.368 91.6364 221.408V227.024C91.6364 228.168 90.9099 229 88.6268 229C86.3436 229 85.6172 228.064 85.6172 227.024V221.408ZM90.5986 221.616C90.5986 220.784 90.0797 220.264 88.6268 220.264C87.1739 220.264 86.655 220.784 86.655 221.616V226.92C86.655 227.752 87.1739 228.272 88.6268 228.272C90.0797 228.272 90.5986 227.752 90.5986 226.92V221.616ZM88.9381 218.6C88.9381 218.704 88.8343 218.704 88.6268 218.704H88.2117C88.1079 218.704 88.0041 218.6 88.1079 218.496L89.0419 216.936C89.1457 216.832 89.1457 216.728 89.3532 216.728H89.9759C90.0797 216.728 90.1835 216.832 90.0797 216.936L88.9381 218.6Z" fill="#FEFEFE"/>
<path d="M99.8351 228.688C99.8351 228.792 99.8351 228.896 99.6275 228.896H99.1086C99.0049 228.896 99.0049 228.896 98.9011 228.792L95.2688 222.344C94.9575 221.824 94.8537 221.512 94.7499 221.408V228.688C94.7499 228.792 94.6461 228.896 94.5424 228.896H94.0235C93.9197 228.896 93.8159 228.792 93.8159 228.688V219.744C93.8159 219.64 93.9197 219.536 94.0235 219.536H94.5424C94.6461 219.536 94.6461 219.536 94.7499 219.64L98.486 226.192C98.5897 226.4 98.9011 227.024 98.9011 227.024V219.744C98.9011 219.64 99.0049 219.536 99.1086 219.536H99.6275C99.7313 219.536 99.8351 219.64 99.8351 219.744V228.688Z" fill="#FEFEFE"/>
<path d="M110.628 228.064C110.732 228.064 110.836 228.168 110.836 228.272V228.688C110.836 228.792 110.732 228.896 110.628 228.896H105.543C105.439 228.896 105.335 228.792 105.335 228.688V225.984C105.335 225.152 106.062 224.84 106.477 224.736L109.071 223.904C109.383 223.8 109.901 223.592 109.901 222.968V221.616C109.901 220.784 109.486 220.264 108.033 220.264C106.581 220.264 106.165 220.784 106.165 221.616V222.24C106.165 222.344 106.062 222.448 105.958 222.448H105.439C105.335 222.448 105.231 222.344 105.231 222.24V221.408C105.231 220.264 105.75 219.432 108.033 219.432C110.317 219.432 110.836 220.368 110.836 221.408V222.968C110.836 224.112 110.005 224.528 109.59 224.632L107.203 225.36C106.892 225.464 106.269 225.672 106.269 226.296V228.064H110.628Z" fill="#FEFEFE"/>
<path d="M112.6 221.408C112.6 220.264 113.223 219.432 115.402 219.432C117.685 219.432 118.308 220.368 118.308 221.408V227.024C118.308 228.168 117.685 229 115.402 229C113.119 229 112.6 228.064 112.6 227.024V221.408ZM117.27 221.616C117.27 220.784 116.855 220.264 115.402 220.264C113.949 220.264 113.534 220.784 113.534 221.616V226.92C113.534 227.752 113.949 228.272 115.402 228.272C116.855 228.272 117.27 227.752 117.27 226.92V221.616Z" fill="#FEFEFE"/>
<path d="M125.572 228.064C125.676 228.064 125.78 228.168 125.78 228.272V228.688C125.78 228.792 125.676 228.896 125.572 228.896H120.487C120.383 228.896 120.28 228.792 120.28 228.688V225.984C120.28 225.152 121.006 224.84 121.421 224.736L124.016 223.904C124.327 223.8 124.846 223.592 124.846 222.968V221.616C124.846 220.784 124.431 220.264 122.978 220.264C121.525 220.264 121.11 220.784 121.11 221.616V222.24C121.11 222.344 121.006 222.448 120.902 222.448H120.383C120.28 222.448 120.176 222.344 120.176 222.24V221.408C120.176 220.264 120.695 219.432 122.978 219.432C125.261 219.432 125.78 220.368 125.78 221.408V222.968C125.78 224.112 124.95 224.528 124.534 224.632L122.148 225.36C121.836 225.464 121.214 225.672 121.214 226.296V228.064H125.572Z" fill="#FEFEFE"/>
<path d="M133.044 228.064C133.148 228.064 133.252 228.168 133.252 228.272V228.688C133.252 228.792 133.148 228.896 133.044 228.896H127.959C127.856 228.896 127.752 228.792 127.752 228.688V225.984C127.752 225.152 128.478 224.84 128.893 224.736L131.488 223.904C131.799 223.8 132.318 223.592 132.318 222.968V221.616C132.318 220.784 131.903 220.264 130.45 220.264C128.997 220.264 128.582 220.784 128.582 221.616V222.24C128.582 222.344 128.478 222.448 128.374 222.448H127.856C127.752 222.448 127.648 222.344 127.648 222.24V221.408C127.648 220.264 128.167 219.432 130.45 219.432C132.733 219.432 133.252 220.368 133.252 221.408V222.968C133.252 224.112 132.422 224.528 132.007 224.632L129.62 225.36C129.308 225.464 128.686 225.672 128.686 226.296V228.064H133.044Z" fill="#FEFEFE"/>
<path d="M32.379 220.056H0V228.896H32.379V220.056Z" fill="#FEFEFE"/>
</svg>
