<?xml version="1.0" encoding="utf-8"?>
<!-- Generator: Adobe Illustrator 24.1.1, SVG Export Plug-In . SVG Version: 6.00 Build 0)  -->
<svg version="1.1" id="Capa_1" xmlns="http://www.w3.org/2000/svg" xmlns:xlink="http://www.w3.org/1999/xlink" x="0px" y="0px"
	 viewBox="0 0 60 60" style="enable-background:new 0 0 60 60;" xml:space="preserve">
<style type="text/css">
	.st0{fill:#F3744A;}
</style>
<path class="st0" d="M34.2,6c-1.1,0-2,0.4-2.7,1.1c-0.7,0.7-1.1,1.6-1.1,2.7v1.9H1.8v36.5h6c0.4,1.7,1.3,3.1,2.7,4.1
	c1.3,1.1,2.9,1.6,4.6,1.6s3.3-0.5,4.6-1.6s2.2-2.5,2.7-4.1h15.8c0.4,1.7,1.3,3.1,2.7,4.1c1.3,1.1,2.9,1.6,4.6,1.6
	c1.7,0,3.3-0.5,4.6-1.6c1.3-1.1,2.2-2.5,2.7-4.1h6V26.4l-11.9-14l-0.5-0.7H38V9.8c0-1.1-0.4-2-1.1-2.7C36.2,6.4,35.3,6,34.2,6z
	 M5.6,15.6h39.1l10.4,12.2v16.6H53c-0.4-1.7-1.3-3.1-2.7-4.1c-1.3-1.1-2.9-1.6-4.6-1.6c-1.7,0-3.3,0.5-4.6,1.6
	c-1.3,1.1-2.2,2.5-2.7,4.1H22.5c-0.4-1.7-1.3-3.1-2.7-4.1s-2.9-1.6-4.6-1.6s-3.3,0.5-4.6,1.6c-1.3,1.1-2.2,2.5-2.7,4.1H5.6V15.6z
	 M26.6,21.4v5.8h-5.7V31h5.7v5.8h3.8V31h5.7v-3.8h-5.7v-5.8H26.6z M15.2,42.5c1.1,0,2,0.4,2.7,1.1c0.8,0.7,1.1,1.6,1.1,2.7
	s-0.4,2-1.1,2.8c-0.7,0.7-1.6,1.1-2.7,1.1s-2-0.4-2.7-1.1c-0.7-0.8-1.1-1.7-1.1-2.8s0.4-2,1.1-2.7C13.2,42.9,14.1,42.5,15.2,42.5z
	 M45.7,42.5c1.1,0,2,0.4,2.7,1.1c0.8,0.7,1.1,1.6,1.1,2.7s-0.4,2-1.1,2.8c-0.7,0.7-1.6,1.1-2.7,1.1s-2-0.4-2.7-1.1
	c-0.7-0.8-1.1-1.7-1.1-2.8s0.4-2,1.1-2.7C43.7,42.9,44.6,42.5,45.7,42.5z"/>
</svg>
