<?xml version="1.0" encoding="utf-8"?>
<!-- Generator: Adobe Illustrator 24.1.1, SVG Export Plug-In . SVG Version: 6.00 Build 0)  -->
<svg version="1.1" id="Capa_1" xmlns="http://www.w3.org/2000/svg" xmlns:xlink="http://www.w3.org/1999/xlink" x="0px" y="0px"
	 viewBox="0 0 60 60" style="enable-background:new 0 0 60 60;" xml:space="preserve">
<style type="text/css">
	.st0{fill:#F3744A;}
</style>
<path class="st0" d="M29.7,6c-1.5,0-2.8,0.4-4,1.1c-1.2,0.7-2.2,1.7-2.9,2.9c-0.7,1.2-1.1,2.5-1.1,4c0,1.1,0.2,2.1,0.6,3.1
	c0.5,1,1.1,1.8,1.8,2.6c-1.4,0.9-2.5,2.1-3.3,3.6c-0.8,1.5-1.2,3-1.2,4.8v9.3l4,2V48h12v-8.8l4-2V28c0-1.7-0.4-3.3-1.2-4.8
	c-0.8-1.5-1.9-2.6-3.3-3.6c0.8-0.8,1.3-1.6,1.8-2.6c0.5-1,0.7-2,0.7-3.1c0-1.5-0.4-2.8-1.1-4c-0.7-1.2-1.7-2.2-2.9-2.9
	C32.5,6.3,31.2,6,29.7,6z M29.7,10c1.1,0,2.1,0.4,2.8,1.2c0.8,0.8,1.2,1.7,1.2,2.8s-0.4,2.1-1.2,2.9c-0.7,0.8-1.7,1.1-2.8,1.1
	s-2.1-0.4-2.9-1.1c-0.8-0.8-1.1-1.8-1.1-2.9s0.4-2.1,1.1-2.8C27.6,10.4,28.6,10,29.7,10z M29.7,22c1.7,0,3.1,0.6,4.2,1.8
	c1.2,1.2,1.8,2.6,1.8,4.3v6.8l-4,2V44h-4v-7.3l-4-2V28c0-1.7,0.6-3.1,1.8-4.3C26.6,22.6,28,22,29.7,22z M15.7,35.7
	c-3.1,0.9-5.5,2-7.2,3.3c-1.9,1.5-2.8,3.1-2.8,4.9c0,2.1,1.2,3.9,3.6,5.5c2.2,1.5,5.1,2.6,8.9,3.4c3.5,0.8,7.4,1.1,11.5,1.1
	s8-0.4,11.5-1.1c3.8-0.8,6.8-1.9,8.9-3.4c2.4-1.6,3.6-3.4,3.6-5.5c0-1.8-0.9-3.5-2.8-4.9c-1.7-1.3-4.1-2.4-7.2-3.3v4.2
	c1.9,0.6,3.3,1.3,4.4,2c1.1,0.8,1.6,1.4,1.6,2.1c0,0.8-0.8,1.7-2.5,2.6c-1.8,1-4.1,1.8-7,2.4c-3.2,0.7-6.7,1-10.5,1s-7.3-0.3-10.5-1
	c-2.9-0.6-5.2-1.4-7-2.4c-1.7-0.9-2.5-1.8-2.5-2.6c0-0.6,0.5-1.3,1.6-2.1c1.1-0.8,2.6-1.4,4.4-2V35.7z"/>
</svg>
