<?xml version="1.0" encoding="utf-8"?>
<!-- Generator: Adobe Illustrator 24.1.1, SVG Export Plug-In . SVG Version: 6.00 Build 0)  -->
<svg version="1.1" id="Capa_1" xmlns="http://www.w3.org/2000/svg" xmlns:xlink="http://www.w3.org/1999/xlink" x="0px" y="0px"
	 viewBox="0 0 360 279" style="enable-background:new 0 0 360 279;" xml:space="preserve">
<style type="text/css">
	.st0{clip-path:url(#SVGID_5_);}
	.st1{fill:#FCEE21;}
	.st2{fill:#FBC4AC;}
	.st3{fill:#E3B098;}
	.st4{fill:#F98084;}
	.st5{fill:#C86D5C;}
	.st6{fill:#AD4F3D;}
	.st7{fill:#3A484A;}
	.st8{fill:#323E40;}
	.st9{fill:#5EE2C5;}
	.st10{fill:#FADC60;}
	.st11{clip-path:url(#SVGID_6_);}
	.st12{fill:#4783CE;}
	.st13{fill:#E29E7A;}
	.st14{fill:#CE8A6B;}
	.st15{fill:#0BDDAB;}
	.st16{clip-path:url(#SVGID_7_);}
	.st17{fill:#F3744A;}
	.st18{fill:#FDBF5E;}
	.st19{fill:#FFFFFF;}
	.st20{fill:#E1E6E9;}
	.st21{fill:#2EA2DB;}
	.st22{clip-path:url(#SVGID_8_);}
	.st23{fill:#D9D7D8;}
	.st24{fill:#BAB8B9;}
	.st25{fill:#CD5E3A;}
	.st26{fill:#E2CC03;}
	.st27{fill:#58B78C;}
	.st28{fill:#46926F;}
</style>
<g>
	<defs>
		<rect id="SVGID_3_" x="197.5" y="143" width="94" height="95"/>
	</defs>
	<clipPath id="SVGID_5_">
		<use xlink:href="#SVGID_3_"  style="overflow:visible;"/>
	</clipPath>
	<g class="st0">
		<path class="st1" d="M244.5,238c26,0,47-21.3,47-47.5s-21-47.5-47-47.5s-47,21.3-47,47.5S218.5,238,244.5,238z"/>
		<path class="st2" d="M256.9,168.3c-6.7,0-12.1,3.6-12.1,10.5s5.5,12.5,12.1,12.5c6.7,0,12.1-5.6,12.1-12.5
			C269.1,171.8,263.7,168.3,256.9,168.3z"/>
		<path class="st3" d="M247.2,178.7c0-6.5,4.8-11.8,11-12.4c-0.4-0.1-0.8-0.1-1.2-0.1c-6.7,0-12.1,5.6-12.1,12.5
			c0,6.9,5.5,12.5,12.1,12.5c0.4,0,0.8,0,1.2-0.1C252,190.6,247.2,185.3,247.2,178.7z"/>
		<path class="st4" d="M264.3,183.2h-1.8c-0.4,0-0.8-0.4-0.8-0.8s0.4-0.8,0.8-0.8h1.7c0.4,0,0.8,0.4,0.8,0.8
			S264.7,183.2,264.3,183.2z"/>
		<path class="st4" d="M251.3,183.2h-1.7c-0.4,0-0.8-0.4-0.8-0.8s0.4-0.8,0.8-0.8h1.7c0.4,0,0.8,0.4,0.8,0.8
			S251.8,183.2,251.3,183.2z"/>
		<path class="st5" d="M268.5,174.9c-0.8-10.2-4.9-8.7-11.5-8.7c-5,0-7.4-0.5-8.4-0.8c-0.4-0.1-0.9,0.1-1.1,0.5
			c-0.8,1.6-2.6,6-2.6,12.9c0,0,2.9-5.3,12.1-5.3C261.2,173.5,260.9,174.9,268.5,174.9z"/>
		<path class="st6" d="M249.8,165.8c0-0.1,0.1-0.1,0.1-0.1c-0.6-0.1-1.1-0.2-1.4-0.4c-0.4-0.1-0.9,0.1-1.1,0.5
			c-0.8,1.6-2.6,6-2.6,12.9c0,0,0.7-1.2,2.5-2.5C247.7,170.7,249.1,167.3,249.8,165.8z"/>
		<path class="st7" d="M219.8,202.6v8.1c0,2,1.5,3.7,3.5,3.9l5.7,0.7L219.8,202.6z"/>
		<path class="st7" d="M244.1,202.6v8.1c0,2-1.5,3.7-3.5,3.9l-5.7,0.7L244.1,202.6z"/>
		<path class="st2" d="M244.1,202.5l-12.4-9.5l-11.9,9.5c0,0.2,0,0.3,0,0.5c0,6.9,5.5,12.5,12.1,12.5s12.1-5.6,12.1-12.5
			C244.1,202.9,244.1,202.7,244.1,202.5z"/>
		<path class="st3" d="M221.9,202.2c-0.6,0.2-1.3,0.3-2,0.4c0,0.2,0,0.3,0,0.5c0,6.9,5.5,12.5,12.1,12.5c0.4,0,0.7,0,1.1-0.1
			C227,215,222.2,209.2,221.9,202.2z"/>
		<path class="st4" d="M226.4,207.5h-1.7c-0.4,0-0.8-0.4-0.8-0.8s0.4-0.8,0.8-0.8h1.7c0.4,0,0.8,0.4,0.8,0.8
			C227.1,207.2,226.8,207.5,226.4,207.5z"/>
		<path class="st4" d="M239.3,207.5h-1.7c-0.4,0-0.8-0.4-0.8-0.8s0.4-0.8,0.8-0.8h1.7c0.4,0,0.8,0.4,0.8,0.8
			C240.1,207.2,239.7,207.5,239.3,207.5z"/>
		<path class="st7" d="M219.8,202.6c6.5-0.7,12.1-7.1,12.1-7.1s5.6,6.3,12.1,7.1c-0.2-6.7-5.6-12-12.1-12
			C225.4,190.5,220.1,195.9,219.8,202.6z"/>
		<path class="st8" d="M233.1,190.6c-0.4-0.1-0.7-0.1-1.1-0.1c-6.6,0-11.9,5.3-12.1,12c0.7-0.1,1.3-0.2,2-0.4
			C222.3,196,227.1,191.1,233.1,190.6z"/>
		<path class="st9" d="M239.5,182.4v-7.6c0-2.7-2.2-4.9-4.9-4.9h-10c-2.7,0-4.9,2.2-4.9,4.9v6.9c0,2.7,2.2,4.9,4.9,4.9h17.2
			L239.5,182.4z"/>
		<path class="st10" d="M249.4,207.2v-7.6c0-2.7,2.2-4.9,4.9-4.9h10c2.7,0,4.9,2.2,4.9,4.9v6.9c0,2.7-2.2,4.9-4.9,4.9h-17.2
			L249.4,207.2z"/>
		<path d="M263.4,181.3c0.4,0,0.8-0.4,0.8-0.8v-1.2c0-0.4-0.4-0.8-0.8-0.8c-0.4,0-0.8,0.4-0.8,0.8v1.2
			C262.7,181.1,263,181.3,263.4,181.3z"/>
		<path d="M250.5,181.3c0.4,0,0.8-0.4,0.8-0.8v-1.2c0-0.4-0.4-0.8-0.8-0.8c-0.4,0-0.8,0.4-0.8,0.8v1.2
			C249.7,181.1,250.1,181.3,250.5,181.3z"/>
		<path d="M258.6,181.3c-0.3-0.3-0.8-0.2-1.1,0.1c-0.1,0.2-0.4,0.2-0.6,0.2c-0.2,0-0.5-0.1-0.6-0.2c-0.3-0.3-0.8-0.4-1.1-0.1
			c-0.3,0.3-0.4,0.8-0.1,1.1c0.4,0.5,1.1,0.8,1.7,0.8c0.6,0,1.3-0.3,1.7-0.8C258.9,182.1,258.9,181.6,258.6,181.3z"/>
		<path d="M225.5,205.7c0.4,0,0.8-0.4,0.8-0.8v-1.2c0-0.4-0.4-0.8-0.8-0.8s-0.8,0.4-0.8,0.8v1.2
			C224.7,205.3,225.1,205.7,225.5,205.7z"/>
		<path d="M238.5,205.7c0.4,0,0.8-0.4,0.8-0.8v-1.2c0-0.4-0.4-0.8-0.8-0.8c-0.4,0-0.8,0.4-0.8,0.8v1.2
			C237.7,205.3,238,205.7,238.5,205.7z"/>
		<path d="M231.4,205.7c-0.3-0.3-0.8-0.4-1.1-0.1c-0.3,0.3-0.4,0.8-0.1,1.1c0.4,0.5,1.1,0.8,1.7,0.8c0.6,0,1.3-0.3,1.7-0.8
			c0.3-0.3,0.2-0.8-0.1-1.1c-0.3-0.3-0.8-0.2-1.1,0.1c-0.1,0.2-0.4,0.2-0.6,0.2C231.8,206,231.5,205.9,231.4,205.7z"/>
		<path d="M224.7,187.4h17.2c0.6,0,0.9-0.7,0.6-1.1l-2.2-4.1v-7.4c0-3.1-2.5-5.6-5.6-5.6h-10c-3.1,0-5.6,2.5-5.6,5.6v6.9
			C219.1,184.9,221.6,187.4,224.7,187.4z M220.6,174.8c0-2.3,1.8-4.1,4.1-4.1h10c2.3,0,4.1,1.8,4.1,4.1v7.6c0,0.1,0.1,0.2,0.1,0.4
			l1.7,3.1h-15.9c-2.3,0-4.1-1.8-4.1-4.1V174.8z"/>
		<path d="M224.4,175.6h10.5c0.4,0,0.8-0.4,0.8-0.8s-0.4-0.8-0.8-0.8h-10.5c-0.4,0-0.8,0.4-0.8,0.8S224,175.6,224.4,175.6z"/>
		<path d="M224.4,179.1h10.5c0.4,0,0.8-0.4,0.8-0.8c0-0.4-0.4-0.8-0.8-0.8h-10.5c-0.4,0-0.8,0.4-0.8,0.8
			C223.7,178.7,224,179.1,224.4,179.1z"/>
		<path d="M224.4,182.5h6.5c0.4,0,0.8-0.4,0.8-0.8c0-0.4-0.4-0.8-0.8-0.8h-6.5c-0.4,0-0.8,0.4-0.8,0.8
			C223.7,182.2,224,182.5,224.4,182.5z"/>
		<path d="M247.1,212.1h17.2c3.1,0,5.6-2.5,5.6-5.6v-6.9c0-3.1-2.5-5.6-5.6-5.6h-10c-3.1,0-5.6,2.5-5.6,5.6v7.4l-2.2,4.1
			C246.1,211.6,246.5,212.1,247.1,212.1z M250.1,207.5c0.1-0.1,0.1-0.2,0.1-0.4v-7.6c0-2.3,1.8-4.1,4.1-4.1h10
			c2.3,0,4.1,1.8,4.1,4.1v6.9c0,2.3-1.8,4.1-4.1,4.1h-15.9L250.1,207.5z"/>
		<path d="M254,200.4h10.5c0.4,0,0.8-0.4,0.8-0.8c0-0.4-0.4-0.8-0.8-0.8H254c-0.4,0-0.8,0.4-0.8,0.8
			C253.3,200,253.6,200.4,254,200.4z"/>
		<path d="M265.2,203c0-0.4-0.4-0.8-0.8-0.8H254c-0.4,0-0.8,0.4-0.8,0.8s0.4,0.8,0.8,0.8h10.5C264.9,203.8,265.2,203.5,265.2,203z"
			/>
		<path d="M265.2,206.5c0-0.4-0.4-0.8-0.8-0.8H258c-0.4,0-0.8,0.4-0.8,0.8c0,0.4,0.4,0.8,0.8,0.8h6.5
			C264.9,207.3,265.2,206.9,265.2,206.5z"/>
		<path d="M256.9,192c7.1,0,12.9-6,12.9-13.3c0-1.4-0.2-2.7-0.6-4c-0.4-4.4-1.3-7-3.2-8.3c-1.8-1.2-4.1-1.1-6.7-1.1
			c-0.8,0-1.5,0.1-2.3,0.1c-5,0-7.3-0.5-8.2-0.8c-0.8-0.2-1.6,0.1-1.9,0.8c-0.5,0.9-1.1,2.4-1.6,4.4c-0.1,0.4,0.1,0.8,0.5,0.9
			c0.4,0.1,0.8-0.1,0.9-0.5c0.5-2,1.1-3.4,1.5-4.1c0-0.1,0.1-0.1,0.2-0.1c1.2,0.4,3.8,0.9,8.7,0.9c0.8,0,1.6,0,2.3-0.1
			c2.5-0.1,4.5-0.1,5.9,0.8c1.3,0.9,2.2,3,2.5,6.4c-1.1,0-2.3-0.1-3.4-0.2c-1.1-0.1-2.2-0.4-3.2-0.7c-1.1-0.3-2.2-0.6-4.2-0.6
			c-1.8,0-3.5,0.2-5.2,0.6c-1.5,0.4-2.8,0.9-4.1,1.7c-0.8,0.5-1.5,0.9-2.1,1.5c0.1-1.1,0.2-2.3,0.4-3.4c0.1-0.4-0.2-0.8-0.6-0.9
			c-0.4-0.1-0.8,0.2-0.9,0.7c-0.3,1.8-0.5,3.8-0.5,5.7C244,186.1,249.8,192,256.9,192z M256.9,190.5c-6.2,0-11.3-5.2-11.4-11.5
			c0,0,0,0,0-0.1c0.7-1,1.7-1.8,2.8-2.5c2.9-1.8,6.7-2.5,10.2-2.1c1.7,0.2,3.3,0.8,5,1.1c1.5,0.2,2.9,0.3,4.4,0.3c0.1,0,0.1,0,0.1,0
			c0.2,1,0.4,2,0.4,3.1C268.3,185.3,263.2,190.5,256.9,190.5z"/>
		<path d="M219.1,210.7c0,2.4,1.8,4.4,4.2,4.7l5.7,0.7c1,0.2,2,0.4,3,0.4c1.1,0,2.1-0.1,3-0.4l5.7-0.7c2.3-0.2,4.2-2.3,4.2-4.7v-7.1
			c0-0.4,0-0.7,0-1c-0.1-3.4-1.5-6.6-3.9-9.1c-2.5-2.4-5.6-3.7-9-3.7c-4,0-7.8,1.9-10.3,5.2c-0.2,0.4-0.2,0.8,0.2,1.1
			c0.4,0.2,0.8,0.2,1.1-0.2c2.2-2.9,5.5-4.6,9-4.6c3,0,5.8,1.2,7.9,3.3c1.9,1.9,3.1,4.4,3.4,7.1c-0.2-0.1-0.4-0.1-0.5-0.1
			c-2.2-0.5-4.2-1.7-6-3c-1.2-0.8-2.3-1.8-3.3-2.7c-0.2-0.2-0.5-0.5-0.7-0.7c-0.1-0.2-0.3-0.3-0.5-0.4c-0.2-0.1-0.3-0.1-0.5,0
			c-0.2,0.1-0.4,0.3-0.5,0.5c-0.5,0.5-0.9,0.9-1.5,1.4c-0.8,0.7-1.6,1.4-2.5,2c-2,1.4-4.2,2.6-6.6,3.1c0.1-1.1,0.4-2.3,0.9-3.3
			c0.2-0.4,0-0.8-0.4-1c-0.4-0.2-0.8,0-1,0.4c-0.6,1.5-1,3.1-1.1,4.8c0,0.4,0,0.7,0,1L219.1,210.7L219.1,210.7z M224.6,213.9
			l-1.2-0.1c-1.6-0.2-2.8-1.5-2.8-3.2v-1.3c0.4,0.8,0.9,1.5,1.4,2.2c0.7,0.9,1.5,1.7,2.4,2.4C224.4,213.9,224.6,213.9,224.6,213.9z
			 M243.4,210.7c0,1.6-1.2,3-2.8,3.2l-1.2,0.1c0,0,0.1-0.1,0.2-0.1c0.9-0.7,1.7-1.5,2.4-2.4c0.5-0.7,1-1.4,1.4-2.2L243.4,210.7
			L243.4,210.7z M232.1,196.7c2.4,2.4,5.2,4.4,8.4,5.7c0.9,0.4,1.9,0.7,2.9,0.8c0,0.1,0,0.2,0,0.2c-0.1,3.4-1.7,6.6-4.2,8.6
			c-2.1,1.7-4.6,2.7-7.3,2.7c-2.6,0-5.2-0.9-7.3-2.7c-2.5-2.1-4-5.2-4.2-8.6c0-0.1,0-0.2,0-0.2c0.1,0,0.1,0,0.2-0.1
			c0.7-0.1,1.4-0.4,2.1-0.5c1.8-0.6,3.6-1.6,5.2-2.7c1.4-1,2.8-2.1,3.9-3.3C232.1,196.6,232.1,196.7,232.1,196.7z"/>
	</g>
</g>
<g>
	<defs>
		<rect id="SVGID_1_" x="62.1" y="28" width="94.9" height="94.9"/>
	</defs>
	<clipPath id="SVGID_6_">
		<use xlink:href="#SVGID_1_"  style="overflow:visible;"/>
	</clipPath>
	<g class="st11">
		<path class="st12" d="M109.5,122.9c26.2,0,47.4-21.2,47.4-47.4S135.7,28,109.5,28S62.1,49.3,62.1,75.5S83.3,122.9,109.5,122.9z"/>
		<path class="st13" d="M110.9,104.1h-3.8c-0.6,0-1.1-0.5-1.1-1.1V84.7h6V103C112,103.6,111.6,104.1,110.9,104.1z"/>
		<path class="st14" d="M112,84.7h-6v8.7h6V84.7z"/>
		<path class="st13" d="M102.6,48.8l-8.5,56.5c-0.1,0.8,0.5,1.4,1.2,1.4h3.1c0.6,0,1.1-0.5,1.2-1.1l8.5-56.5
			c0.1-0.8-0.5-1.4-1.2-1.4h-3.1C103.2,47.7,102.7,48.2,102.6,48.8z"/>
		<path class="st13" d="M115.2,47.7H112c-0.8,0-1.3,0.7-1.2,1.4l8.5,56.5c0.1,0.6,0.6,1.1,1.2,1.1h3.1c0.8,0,1.3-0.7,1.2-1.4
			l-8.5-56.5C116.3,48.2,115.8,47.7,115.2,47.7z"/>
		<path class="st14" d="M117.5,93.4h5.6l-1.7-11.1h-5.6L117.5,93.4z"/>
		<path class="st14" d="M95.9,93.4h5.6l1.7-11.1h-5.6L95.9,93.4z"/>
		<path class="st13" d="M130.5,87.5H88.4c-2.1,0-3.7-1.7-3.7-3.7V56.7c0-2.1,1.7-3.7,3.7-3.7h42.1c2.1,0,3.7,1.7,3.7,3.7v27.1
			C134.2,85.9,132.6,87.5,130.5,87.5z"/>
		<path class="st14" d="M99.8,60.7c2.4-3.2,5.3-5.7,8.5-7.6H88.4c-2.1,0-3.7,1.7-3.7,3.7v27.1c0,2.1,1.7,3.7,3.7,3.7H95
			C92.2,78.8,93.7,68.8,99.8,60.7z"/>
		<path class="st9" d="M88.4,84.4c-0.4,0-0.6-0.3-0.6-0.6V56.7c0-0.4,0.3-0.6,0.6-0.6h42.1c0.4,0,0.6,0.3,0.6,0.6v27.1
			c0,0.4-0.3,0.6-0.6,0.6H88.4z"/>
		<path class="st15" d="M99.8,60.7c1.3-1.7,2.7-3.3,4.3-4.6H88.4c-0.4,0-0.6,0.3-0.6,0.6v27.1c0,0.4,0.3,0.6,0.6,0.6h5.7
			C92.6,76.5,94.4,67.8,99.8,60.7z"/>
		<path class="st13" d="M119,88.9h-19c-0.7,0-1.2-0.5-1.2-1.2v-4.6c0-0.7,0.6-1.2,1.2-1.2h19c0.7,0,1.2,0.5,1.2,1.2v4.6
			C120.2,88.4,119.7,88.9,119,88.9z"/>
		<path class="st14" d="M104.2,87.7v-4.6c0-0.7,0.5-1.2,1.2-1.2H100c-0.7-0.1-1.3,0.5-1.3,1.2v4.6c0,0.7,0.5,1.2,1.2,1.2h5.4
			C104.7,88.9,104.2,88.4,104.2,87.7z"/>
		<path d="M130.5,52.2h-3.9c-0.5,0-0.9,0.4-0.9,0.9c0,0.5,0.4,0.9,0.9,0.9h3.9c1.5,0,2.8,1.2,2.8,2.8v27.1c0,1.5-1.2,2.8-2.8,2.8
			h-9.4v-1.3h9.4c0.8,0,1.5-0.7,1.5-1.5V56.7c0-0.8-0.7-1.5-1.5-1.5H88.4c-0.8,0-1.5,0.7-1.5,1.5v27.1c0,0.8,0.7,1.5,1.5,1.5h9.4
			v1.3h-9.4c-1.5,0-2.8-1.2-2.8-2.8V56.7c0-1.5,1.2-2.8,2.8-2.8h34.3c0.5,0,0.9-0.4,0.9-0.9c0-0.5-0.4-0.9-0.9-0.9h-5l-0.5-3.5
			c-0.2-1.1-1.1-1.8-2.1-1.8H112c-0.6,0-1.2,0.3-1.6,0.7c-0.4,0.5-0.6,1.1-0.5,1.7l0.4,2.8h-1.8l0.4-2.8c0.1-0.6-0.1-1.2-0.5-1.7
			c-0.4-0.5-1-0.7-1.6-0.7h-3.1c-1.1,0-2,0.8-2.1,1.8l-0.5,3.5H88.4c-2.5,0-4.6,2.1-4.6,4.6v27.1c0,2.5,2.1,4.6,4.6,4.6h7.3
			l-1.4,8.8c-0.1,0.5,0.2,0.9,0.8,1c0.1,0,0.9,0.2,1-0.8l1.4-9.1H98c0.3,0.8,1.1,1.4,2,1.4h1.2l-2.4,15.7c0,0.2-0.2,0.3-0.4,0.3
			h-3.1c-0.4,0-0.4-0.2-0.4-0.4l0.6-4c0.1-0.5-0.2-0.9-0.8-1c-0.5-0.1-0.9,0.2-1,0.8l-0.6,4c-0.1,0.6,0.1,1.2,0.5,1.7
			c0.4,0.5,1,0.7,1.6,0.7h3.1c1.1,0,2-0.8,2.1-1.8l2.4-16h2.2V103c0,1.1,0.9,2,2,2h3.8c1.1,0,2-0.9,2-2V89.7h3.1l2.4,16
			c0.2,1.1,1.1,1.8,2.1,1.8h3.1c0.6,0,1.2-0.3,1.6-0.7c0.4-0.5,0.6-1.1,0.5-1.7l-2.5-16.8h7.3c2.5,0,4.6-2.1,4.6-4.6v-27
			C135.1,54.2,133,52.2,130.5,52.2z M111.7,49c0-0.1-0.1-0.4,0.4-0.4h3.1c0.2,0,0.3,0.1,0.4,0.3l0.5,3.3h-3.8L111.7,49z M103.5,48.9
			c0-0.2,0.2-0.3,0.4-0.3h3.1c0.4,0,0.4,0.2,0.4,0.4l-0.5,3.1H103L103.5,48.9z M99.7,87.7v-4.6c0-0.2,0.2-0.4,0.4-0.4h12
			c0.5,0,0.9-0.4,0.9-0.9S112.5,81,112,81H100c-1.2,0-2.1,0.9-2.1,2.1v0.4h-9.1V57h41.5v26.6h-9.2v-0.4c0-1.2-0.9-2.1-2.1-2.1h-3.2
			c-0.5,0-0.9,0.4-0.9,0.9s0.4,0.9,0.9,0.9h3.2c0.2,0,0.4,0.2,0.4,0.4v4.6c0,0.2-0.2,0.4-0.4,0.4h-19C99.8,88,99.7,87.9,99.7,87.7z
			 M111.1,103c0,0.1-0.1,0.2-0.2,0.2h-3.8c-0.1,0-0.2-0.1-0.2-0.2V89.8h4.2V103z M124,105.5c0,0.1,0,0.4-0.4,0.4h-3.1
			c-0.2,0-0.3-0.1-0.4-0.3l-2.4-15.7h1.2c0.9,0,1.7-0.6,2-1.4h0.4L124,105.5z"/>
		<path d="M121.6,67.3h-0.9c-0.8,0-1.5,0.7-1.5,1.5c0,0.8,0.7,1.5,1.5,1.5h1.9c0.3,0,0.6-0.2,0.6-0.6c0-0.3-0.2-0.6-0.6-0.6h-1.9
			c-0.2,0-0.4-0.2-0.4-0.4c0-0.2,0.2-0.4,0.4-0.4h0.9c0.8,0,1.5-0.7,1.5-1.5c0-0.8-0.7-1.5-1.5-1.5h-1.8c-0.3,0-0.6,0.2-0.6,0.6
			c0,0.3,0.2,0.6,0.6,0.6h1.8c0.2,0,0.4,0.2,0.4,0.4C122,67.1,121.8,67.3,121.6,67.3z"/>
		<path d="M97.7,67.7h2.7c0.3,0,0.6-0.2,0.6-0.6c0-0.3-0.2-0.6-0.6-0.6h-2.7c-1,0-1.8,0.8-1.8,1.8v0.1c0,0.5,0.2,0.9,0.5,1.3
			c-0.3,0.4-0.5,0.8-0.5,1.3v0.1c0,1,0.8,1.8,1.8,1.8h2.7c0.3,0,0.6-0.2,0.6-0.6c0-0.3-0.2-0.6-0.6-0.6h-2.7c-0.4,0-0.7-0.3-0.7-0.7
			V71c0-0.4,0.3-0.7,0.7-0.7h1.5c0.3,0,0.6-0.2,0.6-0.6c0-0.3-0.2-0.6-0.6-0.6h-1.5c-0.4,0-0.7-0.3-0.7-0.7v-0.1
			C97,68.1,97.3,67.7,97.7,67.7z"/>
		<path d="M112.6,72.3c0.3,0,0.6-0.2,0.6-0.6v-2.7c0-1-0.8-1.8-1.8-1.8h-0.1c-0.5,0-0.9,0.2-1.3,0.5c-0.4-0.3-0.8-0.5-1.3-0.5h-0.1
			c-1,0-1.8,0.8-1.8,1.8v2.7c0,0.3,0.2,0.6,0.6,0.6c0.4,0,0.6-0.2,0.6-0.6v-2.7c0-0.4,0.3-0.7,0.7-0.7h0.1c0.4,0,0.7,0.3,0.7,0.7
			v1.5c0,0.3,0.2,0.6,0.6,0.6c0.4,0,0.6-0.2,0.6-0.6v-1.5c0-0.4,0.3-0.7,0.7-0.7h0.1c0.4,0,0.7,0.3,0.7,0.7v2.7
			C112.1,72.1,112.3,72.3,112.6,72.3z"/>
		<path d="M105.1,68.3h-2.7c-0.3,0-0.6,0.2-0.6,0.6c0,0.3,0.2,0.6,0.6,0.6h2.7c0.3,0,0.6-0.2,0.6-0.6
			C105.6,68.6,105.4,68.3,105.1,68.3z"/>
		<path d="M116.6,68.4h0.7c0.3,0,0.6-0.2,0.6-0.6c0-0.3-0.2-0.6-0.6-0.6h-0.7c-1.4,0-2.5,1.1-2.5,2.5c0,1.4,1.1,2.5,2.5,2.5h0.7
			c0.3,0,0.6-0.2,0.6-0.6c0-0.3-0.2-0.6-0.6-0.6h-0.7c-0.8,0-1.4-0.7-1.4-1.4C115.2,69.1,115.8,68.4,116.6,68.4z"/>
	</g>
</g>
<g>
	<defs>
		<rect id="SVGID_2_" x="196.1" y="28" width="94.9" height="94.9"/>
	</defs>
	<clipPath id="SVGID_7_">
		<use xlink:href="#SVGID_2_"  style="overflow:visible;"/>
	</clipPath>
	<g class="st16">
		<path class="st17" d="M243.5,122.9c26.2,0,47.4-21.2,47.4-47.4S269.7,28,243.5,28s-47.4,21.2-47.4,47.4S217.3,122.9,243.5,122.9z"
			/>
		<path class="st18" d="M268.9,66.5h-49.6v30.4h49.6V66.5z"/>
		<path d="M268.9,97.7h-49.6c-0.5,0-0.8-0.3-0.8-0.8V66.5c0-0.5,0.3-0.8,0.8-0.8h49.6c0.5,0,0.8,0.3,0.8,0.8v30.4
			C269.7,97.4,269.3,97.7,268.9,97.7z M220.1,96.1h48V67.3h-48V96.1z"/>
		<path class="st19" d="M247.7,63.2c-2,0-3.6,2.4-3.6,4.4v29.3c0-2,1.6-4.4,3.6-4.4H265V63.2H247.7z"/>
		<path d="M244.1,97.7c-0.5,0-0.8-0.3-0.8-0.8V67.6c0-2.4,1.9-5.2,4.4-5.2H265c0.5,0,0.8,0.3,0.8,0.8v29.3c0,0.5-0.3,0.8-0.8,0.8
			h-17.3c-1.5,0-2.8,2-2.8,3.6C244.8,97.4,244.6,97.7,244.1,97.7z M247.7,64c-1.5,0-2.8,2-2.8,3.6V93c0.7-0.8,1.8-1.4,2.8-1.4h16.6
			V64H247.7z"/>
		<path class="st20" d="M247.3,66.8c0-0.2,0.2-0.4,0.4-0.4h14.1v22.9h-14.1c-0.2,0-0.2,0-0.4,0V66.8z"/>
		<path class="st19" d="M240.5,63.2c2,0,3.6,2.4,3.6,4.4v29.3c0-2-1.6-4.4-3.6-4.4h-17.3V63.2H240.5z"/>
		<path d="M244.1,97.7c-0.5,0-0.8-0.3-0.8-0.8c0-1.6-1.4-3.6-2.8-3.6h-17.3c-0.5,0-0.8-0.3-0.8-0.8V63.2c0-0.5,0.3-0.8,0.8-0.8h17.3
			c2.5,0,4.4,2.8,4.4,5.2v29.3C244.8,97.4,244.6,97.7,244.1,97.7z M223.9,91.7h16.6c1.1,0,2.1,0.5,2.8,1.4V67.6
			c0-1.6-1.4-3.6-2.8-3.6h-16.6V91.7z"/>
		<path class="st20" d="M240.9,89.3c-0.2,0-0.2,0-0.4,0h-14.1V66.4h14.1c0.2,0,0.4,0.2,0.4,0.4V89.3z"/>
		<path d="M230.1,83.7h-1.6v1.6h1.6V83.7z"/>
		<path d="M234.4,83.7h-1.6v1.6h1.6V83.7z"/>
		<path d="M238.7,83.7h-1.6v1.6h1.6V83.7z"/>
		<path class="st19" d="M228.8,73l3.9,6.9c0.2,0.2,0.5,0.2,0.7,0l3.9-6.9V52.5h-8.5V73z"/>
		<path d="M233,80.9c-0.4,0-0.8-0.2-1.1-0.5l-4-7.1V51.7H238v21.5l-4,7C233.8,80.7,233.4,80.9,233,80.9z M229.6,72.8l3.4,6l3.4-6
			V53.3h-6.9V72.8z"/>
		<path class="st21" d="M234.5,53.2h-2.9V73h2.9V53.2z"/>
		<path class="st18" d="M228.8,73l3.9,6.8c0.2,0.2,0.5,0.2,0.7,0l3.9-6.8"/>
		<path d="M233,80.9c-0.4,0-0.8-0.2-1.1-0.5l-3.9-6.8l1.4-0.8l3.5,6.2l3.5-6.2l1.4,0.8l-4,6.7C233.8,80.7,233.4,80.9,233,80.9z"/>
		<path class="st17" d="M235.6,46.5h-5.1c-0.9,0-1.7,0.7-1.7,1.7v4.3h8.5v-4.3C237.3,47.2,236.5,46.5,235.6,46.5z"/>
		<path d="M238,53.3H228v-5.1c0-1.4,1.1-2.5,2.5-2.5h5c0.7,0,1.3,0.2,1.8,0.7c0.5,0.5,0.7,1.1,0.7,1.8L238,53.3z M229.6,51.7h6.9
			v-3.5c0-0.5-0.4-0.9-0.9-0.9h-5.1c-0.5,0-0.9,0.4-0.9,0.9L229.6,51.7L229.6,51.7z"/>
		<path d="M231.4,77.6l1.4,2.3c0.2,0.2,0.5,0.2,0.7,0l1.4-2.3H231.4z"/>
		<path d="M233,80.9c-0.4,0-0.8-0.2-1.1-0.5l-2-3.5h6.1l-2,3.5C233.8,80.7,233.4,80.9,233,80.9z M232.8,78.4l0.2,0.5l0.2-0.5H232.8z
			"/>
		<path d="M259.3,69h-9.5v1.6h9.5V69z"/>
		<path d="M259.3,72.8h-9.5v1.6h9.5V72.8z"/>
		<path d="M259.3,76.7h-9.5v1.6h9.5V76.7z"/>
		<path d="M259.3,80.5h-9.5v1.6h9.5V80.5z"/>
		<path d="M259.3,84.3h-9.5v1.6h9.5V84.3z"/>
	</g>
</g>
<g>
	<defs>
		<rect id="SVGID_4_" x="61.5" y="143" width="96" height="95"/>
	</defs>
	<clipPath id="SVGID_8_">
		<use xlink:href="#SVGID_4_"  style="overflow:visible;"/>
	</clipPath>
	<g class="st22">
		<path class="st9" d="M109.5,238c26.5,0,48-21.3,48-47.5S136,143,109.5,143c-26.5,0-48,21.3-48,47.5S83,238,109.5,238z"/>
		<path class="st23" d="M117.1,190.4c0,4.2-3.4,7.6-7.7,7.6s-7.7-3.4-7.7-7.6c0-4.2,3.4-7.6,7.7-7.6S117.1,186.2,117.1,190.4z"/>
		<path class="st24" d="M105.1,190.4c0-3.6,2.6-6.6,6-7.4c-0.5-0.1-1.1-0.2-1.7-0.2c-4.2,0-7.7,3.4-7.7,7.6c0,4.2,3.4,7.6,7.7,7.6
			c0.5,0,1.1-0.1,1.7-0.2C107.7,197.1,105.1,194,105.1,190.4z"/>
		<path class="st17" d="M106.2,168.6c0,2.1-1.7,3.8-3.9,3.8s-4-1.7-4-3.8c0-2.1,1.7-3.8,4-3.8C104.5,164.8,106.2,166.5,106.2,168.6z
			"/>
		<path class="st25" d="M100.6,168.6c0-1.8,1.2-3.3,2.8-3.7c-0.4-0.1-0.7-0.2-1.1-0.2c-2.2,0-4,1.7-4,3.8c0,2.1,1.7,3.8,4,3.8
			c0.4,0,0.8-0.1,1.1-0.2C101.8,171.9,100.6,170.4,100.6,168.6z"/>
		<path class="st1" d="M132.1,206.1c0,2.1-1.7,3.9-3.9,3.9c-2.2,0-3.9-1.7-3.9-3.9c0-2.1,1.7-3.8,3.9-3.8
			C130.4,202.3,132.1,204,132.1,206.1z"/>
		<path class="st26" d="M126.5,206.1c0-1.8,1.2-3.3,2.8-3.7c-0.4-0.1-0.7-0.2-1.1-0.2c-2.2,0-3.9,1.7-3.9,3.8s1.7,3.9,3.9,3.9
			c0.4,0,0.8-0.1,1.1-0.2C127.7,209.4,126.5,207.9,126.5,206.1z"/>
		<path class="st27" d="M96.7,206.4c0,2.1-1.7,3.8-3.9,3.8s-3.9-1.7-3.9-3.8s1.7-3.8,3.9-3.8S96.7,204.3,96.7,206.4z"/>
		<path class="st28" d="M91.1,206.4c0-1.8,1.2-3.3,2.8-3.7c-0.4-0.1-0.7-0.2-1.1-0.2c-2.2,0-3.9,1.7-3.9,3.8s1.7,3.8,3.9,3.8
			c0.4,0,0.8-0.1,1.1-0.2C92.3,209.7,91.1,208.2,91.1,206.4z"/>
		<path d="M117.2,191.1c-0.4-0.1-0.9,0.2-1,0.7c-0.7,3.1-3.5,5.4-6.7,5.4c-3.8,0-6.8-3-6.8-6.8c0-3.7,3.1-6.8,6.8-6.8
			c3.2,0,6,2.3,6.7,5.4c0.1,0.4,0.5,0.7,1,0.7c0.4-0.1,0.7-0.5,0.7-0.9c-0.8-3.9-4.3-6.7-8.3-6.7c-4.7,0-8.5,3.8-8.5,8.4
			s3.8,8.4,8.5,8.4c4,0,7.5-2.8,8.3-6.7C117.9,191.7,117.6,191.2,117.2,191.1z"/>
		<path d="M131,190.4c0.1-0.1,0.2-0.2,0.2-0.3c3.8-4.6,5.1-8.8,3.5-12c-1.3-2.7-4.4-4.2-8.9-4.6c-0.5-0.1-0.8,0.3-0.9,0.8
			c-0.1,0.5,0.3,0.8,0.8,0.9c2.7,0.2,6.2,1,7.5,3.6c1.3,2.5,0.1,6.3-3.3,10.2c-0.1,0.1-0.1,0.1-0.1,0.1c-2.2-2.3-4.8-4.4-8-6.5
			c-0.4-2.6-0.8-5-1.5-7.3c0.8-0.1,1.6-0.2,2.4-0.2c0.5,0,0.8-0.4,0.8-0.8c0-0.5-0.4-0.8-0.8-0.8c-0.9,0.1-1.9,0.1-2.8,0.2
			c-0.4-1-0.7-2-1.1-2.9c-2.5-5.4-5.7-8.4-9.3-8.4c-1.7,0-3.3,0.7-4.8,2c-0.7-0.4-1.5-0.6-2.3-0.6c-2.6,0-4.7,2.1-4.7,4.7
			c0,1.5,0.8,3,2,3.8c-0.2,0.5-0.4,0.9-0.5,1.4c-1.1-0.1-2.1-0.2-3.1-0.3c-6-0.2-10.2,1.4-11.7,4.6c-1.6,3.2-0.3,7.5,3.5,12
			c0.1,0.1,0.2,0.2,0.2,0.3c-0.1,0.1-0.2,0.2-0.2,0.3c-3.8,4.6-5.1,8.8-3.5,12c0.7,1.5,2,2.7,3.9,3.4c0,0.1,0,0.2,0,0.3
			c0,2.6,2.2,4.7,4.7,4.7c2.3,0,4.3-1.7,4.7-3.9c0.5-0.1,1-0.1,1.6-0.2c0.4,1,0.7,2,1.1,2.9c2.5,5.4,5.7,8.4,9.3,8.4
			c3.6,0,6.9-3,9.3-8.4c0.4-0.9,0.8-1.9,1.1-2.9c1.3,0.2,2.5,0.3,3.7,0.3c0.5,2,2.4,3.5,4.6,3.5c2.6,0,4.7-2.1,4.7-4.7
			c0-0.4-0.1-0.8-0.1-1.1c0.8-0.7,1.5-1.4,1.9-2.3c1.6-3.2,0.3-7.5-3.5-12C131.2,190.6,131,190.5,131,190.4z M122.1,184.9
			c2.5,1.8,4.8,3.6,6.6,5.6c-1.9,2-4.1,3.8-6.6,5.6c0.2-1.8,0.2-3.7,0.2-5.6C122.4,188.5,122.3,186.7,122.1,184.9z M120.1,181.6
			c-1.6-0.9-3.2-1.8-4.9-2.7c-1.1-0.5-2.2-1.1-3.4-1.5c2.4-0.8,4.7-1.4,6.9-1.8C119.3,177.5,119.7,179.5,120.1,181.6z M105.9,165.6
			c1.1-0.9,2.3-1.4,3.5-1.4c2.9,0,5.7,2.7,7.8,7.5c0.4,0.8,0.7,1.6,1,2.5c-2.8,0.5-5.8,1.3-8.8,2.4c-3-1.1-6-1.9-8.8-2.4
			c0.1-0.3,0.2-0.7,0.4-0.9c0.4,0.1,0.8,0.2,1.3,0.2c2.6,0,4.7-2.1,4.7-4.7C107,167.4,106.6,166.4,105.9,165.6z M99.2,168.6
			c0-1.7,1.4-3.1,3.1-3.1c1.7,0,3.1,1.4,3.1,3.1c0,1.7-1.4,3.1-3.1,3.1C100.6,171.7,99.2,170.3,99.2,168.6z M100.2,175.7
			c2.2,0.4,4.5,0.9,6.9,1.8c-1.1,0.5-2.3,0.9-3.4,1.5c-1.7,0.8-3.4,1.7-4.9,2.7C99.1,179.5,99.6,177.5,100.2,175.7z M85.7,178.9
			c1.3-2.5,5-3.8,10.2-3.7c0.8,0.1,1.7,0.1,2.7,0.2c-0.7,2.3-1.2,4.7-1.5,7.3c-3.1,2-5.7,4.2-8,6.5c-0.1-0.1-0.1-0.1-0.1-0.1
			C85.6,185.1,84.4,181.4,85.7,178.9z M96.7,196c-2.5-1.8-4.8-3.6-6.6-5.6c1.9-2,4.1-3.8,6.6-5.6c-0.2,1.8-0.2,3.7-0.2,5.6
			C96.5,192.3,96.6,194.1,96.7,196z M92.8,209.5c-1.7,0-3.1-1.4-3.1-3.1c0-1.7,1.4-3.1,3.1-3.1c1.7,0,3.1,1.4,3.1,3.1
			C95.9,208.1,94.5,209.5,92.8,209.5z M97.5,205.5c-0.4-2.2-2.3-3.8-4.7-3.8c-1.9,0-3.6,1.1-4.3,2.8c-1.3-0.6-2.3-1.5-2.8-2.5
			c-1.3-2.5-0.1-6.3,3.3-10.2c0.1-0.1,0.1-0.1,0.1-0.1c2.2,2.3,4.8,4.4,8,6.5c0.4,2.6,0.8,5,1.5,7.3
			C98.2,205.5,97.8,205.5,97.5,205.5z M98.8,199.2c1.6,0.9,3.2,1.8,4.9,2.7c1.1,0.5,2.2,1.1,3.4,1.5c-2.4,0.8-4.7,1.4-6.9,1.8
			C99.6,203.3,99.1,201.4,98.8,199.2z M117.3,209.2c-2.1,4.7-5,7.5-7.8,7.5s-5.7-2.7-7.8-7.5c-0.4-0.8-0.7-1.6-1-2.5
			c2.8-0.5,5.8-1.3,8.8-2.4c3,1.1,6,1.9,8.8,2.4C117.9,207.6,117.6,208.4,117.3,209.2z M118.8,205.2c-2.2-0.4-4.5-0.9-6.9-1.8
			c1.1-0.5,2.2-0.9,3.4-1.5c1.7-0.8,3.4-1.7,4.9-2.7C119.7,201.4,119.3,203.3,118.8,205.2z M114.4,200.5c-1.7,0.8-3.3,1.5-5,2.1
			c-1.7-0.7-3.4-1.4-5-2.1c-2.1-1-4.1-2.1-5.9-3.3c-0.2-2.2-0.4-4.4-0.4-6.8c0-2.3,0.1-4.6,0.4-6.8c1.9-1.2,3.8-2.3,5.9-3.3
			c1.7-0.8,3.3-1.5,5-2.1c1.7,0.7,3.3,1.4,5,2.1c2.1,1,4.1,2.1,5.9,3.3c0.2,2.2,0.4,4.4,0.4,6.8c0,2.3-0.1,4.6-0.4,6.8
			C118.5,198.3,116.5,199.4,114.4,200.5z M128.2,209.2c-1.7,0-3.1-1.4-3.1-3.1s1.4-3.1,3.1-3.1c1.7,0,3.1,1.4,3.1,3.1
			C131.3,207.8,129.9,209.2,128.2,209.2z M133.2,202c-0.3,0.5-0.7,1-1.1,1.5c-0.8-1.2-2.3-2-3.9-2c-2.5,0-4.5,1.8-4.7,4.3
			c-1,0-2-0.1-3.1-0.2c0.7-2.3,1.2-4.7,1.5-7.3c3.1-2,5.7-4.2,8-6.5c0.1,0.1,0.1,0.1,0.1,0.1C133.3,195.7,134.5,199.5,133.2,202z"/>
	</g>
</g>
</svg>
