<?xml version="1.0" encoding="utf-8"?>
<!-- Generator: Adobe Illustrator 24.1.1, SVG Export Plug-In . SVG Version: 6.00 Build 0)  -->
<svg version="1.1" id="Capa_1" xmlns="http://www.w3.org/2000/svg" xmlns:xlink="http://www.w3.org/1999/xlink" x="0px" y="0px"
	 viewBox="0 0 30 30" style="enable-background:new 0 0 30 30;" xml:space="preserve">
<style type="text/css">
	.st0{fill:#53565A;}
</style>
<path class="st0" d="M15.3,4.4L15,4.7L8.7,11H4.3v15h15.8c0.7,0,1.3-0.2,1.8-0.6c0.5-0.4,0.9-1,1-1.6l2-9.4c0.1-0.6,0.1-1.1-0.1-1.6
	c-0.2-0.5-0.6-0.9-1-1.3c-0.5-0.3-1-0.5-1.6-0.5h-5.4l0.2-0.7l0.1-0.1c0.2-0.1,0.3-0.3,0.5-0.5c0.6-0.8,0.9-1.7,0.9-2.8
	c0-0.7-0.3-1.3-0.8-1.8c-0.5-0.5-1.2-0.7-1.9-0.7H15.3z M16,6.4c0.4,0.1,0.6,0.3,0.6,0.5c0,0.7-0.2,1.2-0.5,1.7
	c-0.1,0.1-0.2,0.2-0.3,0.3L15.6,9l-0.3,0.2l-0.1,0.4l-0.6,2.1l-0.3,1.2h7.8c0.3,0,0.6,0.1,0.7,0.4c0.2,0.2,0.2,0.5,0.2,0.8l-2,9.4
	c0,0.2-0.1,0.4-0.3,0.5c-0.2,0.1-0.4,0.2-0.6,0.2H10V12.3L16,6.4z M6.2,12.9h1.9v11.2H6.2V12.9z"/>
</svg>
