<?xml version="1.0" encoding="utf-8"?>
<!-- Generator: Adobe Illustrator 24.1.1, SVG Export Plug-In . SVG Version: 6.00 Build 0)  -->
<svg version="1.1" id="Capa_1" xmlns="http://www.w3.org/2000/svg" xmlns:xlink="http://www.w3.org/1999/xlink" x="0px" y="0px"
	 viewBox="0 0 60 60" style="enable-background:new 0 0 60 60;" xml:space="preserve">
<style type="text/css">
	.st0{fill:#F3744A;}
</style>
<path class="st0" d="M29.7,4C25,4,20.6,5.2,16.6,7.5c-3.9,2.3-7,5.4-9.3,9.3c-2.4,4-3.6,8.4-3.6,13.1c0,4.7,1.2,9.1,3.6,13.1
	c2.3,3.9,5.4,7,9.3,9.3c4,2.4,8.4,3.6,13.1,3.6s9.1-1.2,13.1-3.6c3.9-2.3,7-5.4,9.3-9.3c2.4-4,3.6-8.4,3.6-13.1
	c0-4.7-1.2-9.1-3.6-13.1c-2.3-3.9-5.4-7-9.3-9.3C38.8,5.2,34.4,4,29.7,4z M29.7,8c4,0,7.7,1,11.1,3c3.3,2,5.9,4.6,7.9,7.9
	c2,3.5,3,7.2,3,11.1c0,4-1,7.7-3,11.1c-2,3.3-4.6,5.9-7.9,7.9c-3.5,2-7.2,3-11.1,3s-7.7-1-11.1-3c-3.3-2-5.9-4.6-7.9-7.9
	c-2-3.5-3-7.2-3-11.1c0-4,1-7.7,3-11.1c2-3.3,4.6-5.9,7.9-7.9C22,9,25.7,8,29.7,8z M19.7,22c-1.3,0-2.5,0.2-3.8,0.6
	c-0.9,0.3-1.7,0.7-2.5,1.2l-1,0.6l2.5,3.1l0.6-0.4c0.5-0.3,1.1-0.6,1.8-0.8c0.8-0.3,1.6-0.4,2.4-0.4s1.6,0.1,2.4,0.4
	c0.6,0.2,1.1,0.4,1.7,0.8l0.7,0.4l2.4-3.1h-0.1c-0.6-0.5-1.3-0.9-2.1-1.3C23.1,22.3,21.4,22,19.7,22z M39.7,22
	c-1.3,0-2.5,0.2-3.8,0.6c-0.9,0.3-1.7,0.7-2.5,1.2l-0.9,0.6l2.4,3.1l0.6-0.4c0.5-0.3,1.1-0.6,1.8-0.8c0.8-0.3,1.6-0.4,2.4-0.4
	s1.6,0.1,2.4,0.4c0.6,0.2,1.1,0.4,1.7,0.8l0.7,0.4l2.4-3.1h-0.1c-0.6-0.5-1.3-0.9-2.1-1.3C43.1,22.3,41.4,22,39.7,22z M15.7,36
	c0.1,0.3,0.3,0.7,0.4,1.1c0.4,0.8,0.8,1.6,1.4,2.4c0.8,1.1,1.6,2.1,2.6,3c1.2,1,2.5,1.9,3.9,2.4c1.8,0.7,3.6,1.1,5.6,1.1
	s3.9-0.4,5.6-1.1c1.4-0.6,2.7-1.4,3.9-2.4c1-0.9,1.9-1.9,2.6-3c0.5-0.8,1-1.6,1.4-2.4l0.4-1.1H15.7z"/>
</svg>
