<svg width="99" height="51" viewBox="0 0 99 51" fill="none" xmlns="http://www.w3.org/2000/svg">
<g clip-path="url(#clip0_1576_57)">
<path d="M45.1596 8.79897C46.917 8.79897 48.3016 7.37645 48.3016 5.6905C48.3016 3.95187 46.8637 2.58203 45.1596 2.58203C43.4022 2.58203 42.0176 4.00455 42.0176 5.6905C42.0176 7.37645 43.4022 8.79897 45.1596 8.79897Z" fill="#F3744A"/>
<path d="M57.7277 27.0806C57.2484 27.0806 56.8756 26.7118 56.8756 26.2376V0H51.7632V27.3967C51.7632 29.6095 53.5738 31.3481 55.7573 31.3481H59.6448V27.0806H57.7277Z" fill="#F3744A"/>
<path d="M0 1.89648V8.53491H4.31361V6.84896H10.9704V27.0804H8.94675V31.3479H18.3728V27.0804H16.3491V6.84896H23.0059V8.53491H27.2663V1.89648H0Z" fill="#F3744A"/>
<path d="M47.7693 27.0807V11.8545H36.7456V16.1747H42.6036V27.0807H36.7456V31.3483H49.8462V27.0807H47.7693Z" fill="#F3744A"/>
<path d="M23.0061 11.8545V27.0807H20.9292V31.3483H34.1895V27.0807H28.1185V16.1747H34.1895V11.8545H26.0949H23.0061Z" fill="#F3744A"/>
<path d="M84.8346 19.6518C84.8878 19.0195 85.0476 18.44 85.3671 17.9131C85.6866 17.3863 86.0594 16.9648 86.5387 16.596C87.018 16.2272 87.5505 15.9638 88.1363 15.8057C88.7221 15.6476 89.3612 15.5423 90.0002 15.5423C91.4381 15.5423 92.5032 15.9111 93.1955 16.6487C93.8878 17.3863 94.2606 18.3873 94.2606 19.6518H84.8346V19.6518ZM98.0416 15.753C97.5091 14.6993 96.7635 13.909 95.9115 13.2768C95.0594 12.6445 94.1008 12.2231 93.0357 11.9596C92.0239 11.6962 91.0121 11.5908 90.0535 11.5908C88.6156 11.5908 87.231 11.8016 86.0062 12.2231C84.7813 12.6445 83.663 13.2768 82.7576 14.1197C81.8523 14.9627 81.1068 16.0164 80.5742 17.2282C80.0417 18.4927 79.7754 19.9152 79.7754 21.6012C79.7754 22.1807 79.8286 22.7076 79.8819 23.2344C79.9884 24.1301 80.2014 24.9731 80.5209 25.816C80.6275 26.1321 81.586 28.503 84.1422 29.9782C85.8464 30.9793 88.2428 31.4007 91.4914 31.4007C94.7399 31.4007 96.3908 31.2427 96.3908 31.2427V27.0805V27.0278C96.3908 27.0278 94.1008 27.0805 91.2783 27.0805C87.1777 27.0805 85.7399 24.6043 85.4736 23.8666C85.3671 23.6559 85.3138 23.4452 85.2606 23.2344H98.7872C99.16 21.3377 99.0002 17.597 98.0416 15.753Z" fill="#F3744A"/>
<path d="M77.8582 19.7045V13.4348V13.3821C77.8582 13.1714 77.7517 13.0133 77.5387 12.908C76.8996 12.6445 76.0475 12.3811 74.9824 12.065C73.7043 11.7489 72.373 11.5908 70.9351 11.5908C69.3907 11.5908 68.0061 11.8016 66.6747 12.2757C65.3966 12.6972 64.225 13.3821 63.2665 14.2251C62.3079 15.0681 61.5623 16.1218 61.0298 17.3863C60.4972 18.5981 60.231 20.0206 60.231 21.6538C60.231 23.129 60.444 24.4989 60.9233 25.7633C61.4026 27.0278 61.9351 27.9235 62.7872 28.8191C64.1718 30.2943 66.941 31.3481 70.083 31.4534H76.4203V27.1859H71.5209C69.444 27.1859 67.4736 26.2375 66.941 25.7633C66.4085 25.2365 66.0357 24.6569 65.7694 23.972C65.5032 23.2871 65.3434 22.5495 65.3434 21.7592C65.3434 20.7582 65.5031 19.9152 65.8759 19.2303C66.1955 18.5454 66.6747 17.9131 67.2073 17.4916C67.7398 17.0175 68.3789 16.7014 69.0712 16.4906C69.7635 16.2799 70.4558 16.1745 71.2014 16.1745C72.0002 16.1745 72.799 16.2799 73.5978 16.4379V19.9152H77.8582V19.7045Z" fill="#F3744A"/>
<path d="M15.8166 48.6815C15.8166 49.8932 15.0178 50.9996 12.4083 50.9996C9.79882 50.9996 9 49.8405 9 48.6815V43.3602C9 42.1484 9.79882 41.042 12.4083 41.042C15.0178 41.042 15.8166 42.2011 15.8166 43.3602V44.0451C15.8166 44.3085 15.7101 44.4139 15.497 44.4139H14.2722C14.0059 44.4139 13.8994 44.3085 13.8994 44.0451V43.6763C13.8994 42.9387 13.3669 42.6226 12.4083 42.6226C11.4497 42.6226 10.9704 42.9914 10.9704 43.6763V48.3127C10.9704 49.0503 11.4497 49.3664 12.4083 49.3664C13.3669 49.3664 13.8994 48.9976 13.8994 48.3127V47.7858C13.8994 47.5224 14.0059 47.417 14.2722 47.417H15.4438C15.7101 47.417 15.7633 47.5224 15.7633 47.7858V48.6815H15.8166Z" fill="#F3744A"/>
<path d="M23.0592 43.6763C23.0592 42.9387 22.4734 42.6226 21.5148 42.6226C20.5562 42.6226 19.9704 42.9914 19.9704 43.6763V48.3127C19.9704 49.0503 20.5562 49.3664 21.5148 49.3664C22.4734 49.3664 23.0592 48.9976 23.0592 48.3127V43.6763ZM17.9468 43.3602C17.9468 42.1484 18.8521 41.042 21.4616 41.042C24.071 41.042 24.9764 42.2011 24.9764 43.3602V48.6815C24.9764 49.8932 24.071 50.9996 21.4616 50.9996C18.8521 50.9996 17.9468 49.8405 17.9468 48.6815V43.3602Z" fill="#F3744A"/>
<path d="M29.5564 49.2611H32.8049C33.0711 49.2611 33.1777 49.3665 33.1777 49.6299V50.5256C33.1777 50.789 33.0711 50.8944 32.8049 50.8944H27.9055C27.6924 50.8944 27.5859 50.789 27.5859 50.5256V41.5163C27.5859 41.2528 27.6924 41.1475 27.9587 41.1475H29.2368C29.5031 41.1475 29.6096 41.2528 29.6096 41.5163V49.2611H29.5564Z" fill="#F3744A"/>
<path d="M35.6272 50.8944C35.3609 50.8944 35.2544 50.789 35.2544 50.5256V41.5163C35.2544 41.2528 35.3609 41.1475 35.6272 41.1475H40.5798C40.8461 41.1475 40.9526 41.2528 40.9526 41.5163V42.4119C40.9526 42.6754 40.8461 42.7807 40.5798 42.7807H37.2248V45.0989H40.3136C40.5798 45.0989 40.6864 45.2043 40.6864 45.4677V46.3107C40.6864 46.5741 40.5798 46.6795 40.3136 46.6795H37.2248V49.3665H40.7396C41.0059 49.3665 41.1124 49.4718 41.1124 49.7353V50.6309C41.1124 50.8944 41.0059 50.9997 40.7396 50.9997H35.6272V50.8944Z" fill="#F3744A"/>
<path d="M49.7397 45.7837C50.006 45.7837 50.1125 45.8891 50.1125 46.1525V48.6815C50.1125 49.8932 49.3136 50.9996 46.7042 50.9996C44.0947 50.9996 43.2959 49.8405 43.2959 48.6815V43.3602C43.2959 42.1484 44.0947 41.042 46.7042 41.042C49.3136 41.042 50.1125 42.2011 50.1125 43.3602V43.9397C50.1125 44.2032 50.006 44.3085 49.7929 44.3085H48.5681C48.3018 44.3085 48.1953 44.2032 48.1953 43.9397V43.729C48.1953 42.9914 47.6628 42.6753 46.7042 42.6753C45.7456 42.6753 45.2131 43.0441 45.2131 43.729V48.3653C45.2131 49.1029 45.6923 49.4191 46.7042 49.4191C47.6628 49.4191 48.1953 49.0503 48.1953 48.3653V47.417H46.7574C46.4912 47.417 46.3847 47.3116 46.3847 47.0482V46.1525C46.3847 45.8891 46.4912 45.7837 46.7574 45.7837H49.7397V45.7837Z" fill="#F3744A"/>
<path d="M54.5325 50.5256C54.5325 50.789 54.4259 50.8944 54.1597 50.8944H52.8816C52.6153 50.8944 52.5088 50.789 52.5088 50.5256V41.5163C52.5088 41.2528 52.6153 41.1475 52.8816 41.1475H54.1597C54.4259 41.1475 54.5325 41.2528 54.5325 41.5163V50.5256Z" fill="#F3744A"/>
<path d="M62.2013 43.6763C62.2013 42.9387 61.6155 42.6226 60.6569 42.6226C59.6983 42.6226 59.1125 42.9914 59.1125 43.6763V48.3127C59.1125 49.0503 59.6983 49.3664 60.6569 49.3664C61.6155 49.3664 62.2013 48.9976 62.2013 48.3127V43.6763ZM57.1421 43.3602C57.1421 42.1484 58.0474 41.042 60.6569 41.042C63.2664 41.042 64.1717 42.2011 64.1717 43.3602V48.6815C64.1717 49.8932 63.2664 50.9996 60.6569 50.9996C58.0474 50.9996 57.1421 49.8405 57.1421 48.6815V43.3602Z" fill="#F3744A"/>
</g>
<defs>
<clipPath id="clip0_1576_57">
<rect width="99" height="51" fill="white"/>
</clipPath>
</defs>
</svg>
