<svg width="92" height="48" viewBox="0 0 92 48" fill="none" xmlns="http://www.w3.org/2000/svg">
<path d="M41.6177 8.10825C43.2373 8.10825 44.5133 6.79729 44.5133 5.24358C44.5133 3.6413 43.1882 2.37891 41.6177 2.37891C39.9982 2.37891 38.7222 3.68986 38.7222 5.24358C38.7222 6.79729 39.9982 8.10825 41.6177 8.10825Z" fill="white"/>
<path d="M53.2003 24.9566C52.7586 24.9566 52.4151 24.6167 52.4151 24.1798V0H47.7036V25.2479C47.7036 27.2872 49.3723 28.8895 51.3844 28.8895H54.9671V24.9566H53.2003Z" fill="white"/>
<path d="M0 1.74805V7.86581H3.97529V6.3121H10.11V24.9567H8.24504V28.8896H16.9318V24.9567H15.0668V6.3121H21.2015V7.86581H25.1277V1.74805H0Z" fill="white"/>
<path d="M44.0223 24.9559V10.9238H33.8633V14.9052H39.2618V24.9559H33.8633V28.8887H45.9364V24.9559H44.0223Z" fill="white"/>
<path d="M21.2011 10.9238V24.9559H19.2871V28.8887H31.5074V24.9559H25.9126V14.9052H31.5074V10.9238H24.0476H21.2011Z" fill="white"/>
<path d="M78.1809 18.1123C78.23 17.5297 78.3772 16.9956 78.6717 16.51C78.9662 16.0245 79.3097 15.6361 79.7514 15.2962C80.1931 14.9563 80.6839 14.7136 81.2237 14.5679C81.7636 14.4222 82.3525 14.3251 82.9414 14.3251C84.2665 14.3251 85.2481 14.665 85.8861 15.3448C86.5241 16.0245 86.8677 16.947 86.8677 18.1123H78.1809ZM90.3522 14.5193C89.8614 13.5483 89.1743 12.82 88.3891 12.2373C87.6038 11.6547 86.7204 11.2662 85.7389 11.0235C84.8064 10.7807 83.8739 10.6836 82.9905 10.6836C81.6654 10.6836 80.3894 10.8778 79.2606 11.2662C78.1318 11.6547 77.1012 12.2373 76.2669 13.0142C75.4326 13.791 74.7455 14.7621 74.2547 15.8788C73.7639 17.0441 73.5186 18.3551 73.5186 19.9088C73.5186 20.4429 73.5676 20.9284 73.6167 21.414C73.7149 22.2394 73.9112 23.0162 74.2056 23.7931C74.3038 24.0844 75.1872 26.2693 77.5429 27.6288C79.1134 28.5514 81.3219 28.9398 84.3156 28.9398C87.3094 28.9398 88.8308 28.7941 88.8308 28.7941V24.9584V24.9098C88.8308 24.9098 86.7204 24.9584 84.1193 24.9584C80.3403 24.9584 79.0152 22.6764 78.7699 21.9966C78.6717 21.8024 78.6226 21.6082 78.5735 21.414H91.0392C91.3828 19.666 91.2356 16.2187 90.3522 14.5193Z" fill="white"/>
<path d="M71.751 18.1609V12.383V12.3344C71.751 12.1402 71.6529 11.9945 71.4566 11.8974C70.8677 11.6547 70.0824 11.4119 69.1009 11.1206C67.923 10.8293 66.696 10.6836 65.371 10.6836C63.9477 10.6836 62.6717 10.8778 61.4447 11.3148C60.2669 11.7032 59.1872 12.3344 58.3038 13.1113C57.4204 13.8881 56.7333 14.8592 56.2425 16.0245C55.7517 17.1412 55.5063 18.4522 55.5063 19.9574C55.5063 21.3169 55.7027 22.5793 56.1444 23.7445C56.5861 24.9098 57.0768 25.7352 57.8621 26.5607C59.1381 27.9202 61.6901 28.8912 64.5857 28.9883H70.426V25.0555H65.9108C63.9968 25.0555 62.1809 24.1815 61.6901 23.7445C61.1994 23.259 60.8558 22.7249 60.6104 22.0937C60.365 21.4625 60.2178 20.7828 60.2178 20.0545C60.2178 19.1319 60.365 18.3551 60.7086 17.7239C61.003 17.0927 61.4447 16.51 61.9355 16.1216C62.4263 15.6846 63.0152 15.3933 63.6532 15.1991C64.2912 15.0049 64.9293 14.9078 65.6163 14.9078C66.3525 14.9078 67.0887 15.0049 67.8248 15.1505V18.3551H71.751V18.1609Z" fill="white"/>
<path d="M14.5759 44.8645C14.5759 45.9812 13.8397 47.0009 11.4349 47.0009C9.03011 47.0009 8.29395 45.9327 8.29395 44.8645V39.9606C8.29395 38.8438 9.03011 37.8242 11.4349 37.8242C13.8397 37.8242 14.5759 38.8924 14.5759 39.9606V40.5918C14.5759 40.8345 14.4777 40.9317 14.2814 40.9317H13.1526C12.9072 40.9317 12.8091 40.8345 12.8091 40.5918V40.2519C12.8091 39.5722 12.3183 39.2808 11.4349 39.2808C10.5515 39.2808 10.1098 39.6207 10.1098 40.2519V44.5246C10.1098 45.2044 10.5515 45.4957 11.4349 45.4957C12.3183 45.4957 12.8091 45.1558 12.8091 44.5246V44.0391C12.8091 43.7963 12.9072 43.6992 13.1526 43.6992H14.2323C14.4777 43.6992 14.5268 43.7963 14.5268 44.0391V44.8645H14.5759Z" fill="white"/>
<path d="M21.25 40.2519C21.25 39.5722 20.7102 39.2808 19.8268 39.2808C18.9434 39.2808 18.4035 39.6207 18.4035 40.2519V44.5246C18.4035 45.2044 18.9434 45.4957 19.8268 45.4957C20.7102 45.4957 21.25 45.1558 21.25 44.5246V40.2519ZM16.5386 39.9606C16.5386 38.8438 17.3729 37.8242 19.7777 37.8242C22.1825 37.8242 23.0168 38.8924 23.0168 39.9606V44.8645C23.0168 45.9812 22.1825 47.0009 19.7777 47.0009C17.3729 47.0009 16.5386 45.9327 16.5386 44.8645V39.9606Z" fill="white"/>
<path d="M27.2382 45.3991H30.232C30.4774 45.3991 30.5755 45.4962 30.5755 45.739V46.5644C30.5755 46.8072 30.4774 46.9043 30.232 46.9043H25.7168C25.5205 46.9043 25.4224 46.8072 25.4224 46.5644V38.2618C25.4224 38.019 25.5205 37.9219 25.7659 37.9219H26.9438C27.1892 37.9219 27.2873 38.019 27.2873 38.2618V45.3991H27.2382Z" fill="white"/>
<path d="M32.8333 46.9043C32.5879 46.9043 32.4897 46.8072 32.4897 46.5644V38.2618C32.4897 38.019 32.5879 37.9219 32.8333 37.9219H37.3975C37.6429 37.9219 37.7411 38.019 37.7411 38.2618V39.0872C37.7411 39.3299 37.6429 39.427 37.3975 39.427H34.3056V41.5634H37.1521C37.3975 41.5634 37.4957 41.6605 37.4957 41.9033V42.6801C37.4957 42.9229 37.3975 43.02 37.1521 43.02H34.3056V45.4963H37.5447C37.7901 45.4963 37.8883 45.5934 37.8883 45.8361V46.6615C37.8883 46.9043 37.7901 47.0014 37.5447 47.0014H32.8333V46.9043Z" fill="white"/>
<path d="M45.8383 42.1941C46.0837 42.1941 46.1818 42.2912 46.1818 42.5339V44.8645C46.1818 45.9812 45.4457 47.0009 43.0409 47.0009C40.6361 47.0009 39.8999 45.9327 39.8999 44.8645V39.9606C39.8999 38.8438 40.6361 37.8242 43.0409 37.8242C45.4457 37.8242 46.1818 38.8924 46.1818 39.9606V40.4947C46.1818 40.7374 46.0837 40.8345 45.8874 40.8345H44.7586C44.5132 40.8345 44.415 40.7374 44.415 40.4947V40.3005C44.415 39.6207 43.9243 39.3294 43.0409 39.3294C42.1575 39.3294 41.6667 39.6693 41.6667 40.3005V44.5732C41.6667 45.2529 42.1084 45.5443 43.0409 45.5443C43.9243 45.5443 44.415 45.2044 44.415 44.5732V43.6992H43.0899C42.8446 43.6992 42.7464 43.6021 42.7464 43.3593V42.5339C42.7464 42.2912 42.8446 42.1941 43.0899 42.1941H45.8383Z" fill="white"/>
<path d="M50.2556 46.5644C50.2556 46.8072 50.1574 46.9043 49.912 46.9043H48.7342C48.4888 46.9043 48.3906 46.8072 48.3906 46.5644V38.2618C48.3906 38.019 48.4888 37.9219 48.7342 37.9219H49.912C50.1574 37.9219 50.2556 38.019 50.2556 38.2618V46.5644Z" fill="white"/>
<path d="M57.322 40.2519C57.322 39.5722 56.7822 39.2808 55.8988 39.2808C55.0154 39.2808 54.4755 39.6207 54.4755 40.2519V44.5246C54.4755 45.2044 55.0154 45.4957 55.8988 45.4957C56.7822 45.4957 57.322 45.1558 57.322 44.5246V40.2519ZM52.6597 39.9606C52.6597 38.8438 53.494 37.8242 55.8988 37.8242C58.3036 37.8242 59.1379 38.8924 59.1379 39.9606V44.8645C59.1379 45.9812 58.3036 47.0009 55.8988 47.0009C53.494 47.0009 52.6597 45.9327 52.6597 44.8645V39.9606Z" fill="white"/>
</svg>
