<?xml version="1.0" encoding="utf-8"?>
<!-- Generator: Adobe Illustrator 24.1.1, SVG Export Plug-In . SVG Version: 6.00 Build 0)  -->
<svg version="1.1" id="Capa_1" xmlns="http://www.w3.org/2000/svg" xmlns:xlink="http://www.w3.org/1999/xlink" x="0px" y="0px"
	 viewBox="0 0 60 60" style="enable-background:new 0 0 60 60;" xml:space="preserve">
<style type="text/css">
	.st0{fill:#F3744A;}
</style>
<path class="st0" d="M36.3,8.8c-1.4,0-2.5,0.1-3.4,0.4c-1.2,0.3-2.4,0.9-3.6,1.6c-1.8-1.1-3.3-1.7-4.4-1.8c-1-0.1-2.4-0.1-4.2-0.1
	h-1.1c-0.7,0-1.4,0.1-2.1,0.4c-0.5,0.2-1.1,0.5-2,0.9c-0.8,0.4-1.5,0.7-2,0.9c-3.1,1.2-6.4,1.8-9.8,1.8h-2v19.3l4.8,2.4l13.2,14.7
	c1.3,1.3,3.1,1.9,5.3,1.8c1.8-0.1,3.4-0.6,4.8-1.4c1.3-0.8,3.5-2.2,6.6-4.4L41,42l0.1-0.1c0.8-0.8,1.4-1.9,1.8-3.3l7.7-3.9l5.8-1.9
	l1.4-0.4V12.9h-2c-3.3,0-6.6-0.6-9.8-1.9c-0.5-0.2-1.2-0.5-2.1-0.9c-0.8-0.4-1.5-0.7-1.9-0.9c-0.8-0.3-1.5-0.4-2.2-0.4L36.3,8.8z
	 M36.4,12.8c0.4,0,1,0,1.9,0l1.4,0.1c0.1,0,0.8,0.3,2.1,0.8l2.7,1.1c2.7,1,5.8,1.7,9.3,1.9v12.8L49.1,31h-0.1l-6.2,3.1
	c-0.4-1-0.9-1.8-1.5-2.5l-0.1-0.2l-9.7-12l-6.9,5.6c-0.8,0.6-1.7,0.9-2.5,0.8c-0.6,0-1.4-0.2-2.3-0.6c-0.2-0.1-0.3-0.2-0.5-0.3
	l-0.3-0.2l9.3-7.7c1.3-1.2,2.4-2.2,3.4-2.9c0.8-0.5,1.6-0.9,2.4-1.1C34.6,12.9,35.4,12.8,36.4,12.8z M22.4,12.9c0.8,0,1.5,0,2,0.1
	c0.2,0,0.5,0.2,1,0.4c0.3,0.2,0.5,0.3,0.6,0.3L12.8,24.7l1.9,2c0.4,0.4,0.9,0.7,1.3,1.1c0.6,0.4,1.3,0.8,1.9,1.1
	c1.3,0.6,2.7,0.9,4.1,0.9c1.8,0,3.3-0.4,4.8-1.4l4-3.3l7.4,9.1l0.1,0.2c0.7,0.7,1,1.5,1,2.4c0,0.9-0.3,1.6-1,2.3v0.1l-0.3,0.2
	l-2.6-3.6l-3.3,2.4l2.6,3.4L32,43.3l-2.7-3.6l-3.3,2.4l2.6,3.4l-0.9,0.6c-0.3,0.2-0.8,0.4-1.4,0.6c-0.5,0.2-1.1,0.3-1.6,0.3
	c-1,0-1.7-0.1-2.2-0.5L9.2,31.6l-0.3-0.3l-3.3-1.6V16.7c3.5-0.3,6.6-0.9,9.3-1.9l3.1-1.2c1.1-0.5,1.7-0.7,1.8-0.7L22.4,12.9z"/>
</svg>
