<?xml version="1.0" encoding="utf-8"?>
<!-- Generator: Adobe Illustrator 24.1.1, SVG Export Plug-In . SVG Version: 6.00 Build 0)  -->
<svg version="1.1" id="Capa_1" xmlns="http://www.w3.org/2000/svg" xmlns:xlink="http://www.w3.org/1999/xlink" x="0px" y="0px"
	 viewBox="0 0 60 60" style="enable-background:new 0 0 60 60;" xml:space="preserve">
<style type="text/css">
	.st0{fill:#FFFFFF;}
</style>
<path class="st0" d="M26.8,4.1c-1.3,0-2.4,0.3-3.5,0.9c-1.1,0.6-1.9,1.5-2.6,2.6c-0.6,1.1-0.9,2.3-0.9,3.5c0,1.6,0.6,3.3,1.9,5
	c1,1.4,2.4,2.8,4.1,4.1c1.3,1,2.6,1.9,4.1,2.8l1.9,1.1l1.9-1.1c1.5-0.9,2.9-1.8,4.1-2.8c1.8-1.4,3.1-2.8,4.1-4.1
	c1.3-1.8,1.9-3.4,1.9-5c0-1.3-0.3-2.4-0.9-3.5c-0.6-1.1-1.5-1.9-2.6-2.6c-1.1-0.6-2.3-0.9-3.5-0.9c-1,0-1.9,0.2-2.8,0.6
	c-0.8,0.4-1.6,0.9-2.2,1.6c-0.7-0.7-1.4-1.2-2.3-1.6C28.6,4.3,27.7,4.1,26.8,4.1z M26.8,8.1c0.8,0,1.5,0.3,2.1,0.9l1.1,1.1h3.6
	l1.1-1.1c0.6-0.6,1.3-0.9,2.1-0.9s1.5,0.3,2.1,0.9c0.6,0.6,0.9,1.3,0.9,2.1c0,1.2-0.9,2.6-2.6,4.3c-1.5,1.5-3.3,2.8-5.4,4.1
	c-2.1-1.3-3.9-2.7-5.4-4.1c-1.7-1.7-2.6-3.1-2.6-4.3c0-0.8,0.3-1.5,0.9-2.1C25.2,8.4,25.9,8.1,26.8,8.1z M36.2,26l-3.3,2.3l5.2,7.4
	l-7.2,5l-5.1-2.6l5.4-2.8c1-0.6,1.6-1.4,2.1-2.4c0.5-1.1,0.5-2.2,0.2-3.3c-0.4-1.3-1.2-2.3-2.4-3c-1.2-0.7-2.5-0.8-3.8-0.4l-14.3,4
	l-9.4,6.4l3.8,15.4l10.1-3.6l14.3,7.4l23.7-16.4l-2.3-3.3L31.6,51.3l-13.8-7.1l-7.6,2.8l-2.1-8.4l6.6-4.6l13.6-3.8
	c0.3-0.1,0.5-0.1,0.7,0.1c0.3,0.1,0.4,0.3,0.5,0.6s0.1,0.5,0,0.7c-0.1,0.2-0.2,0.4-0.4,0.5l-12.2,6.1l14.2,7.4l12.5-8.7L36.2,26z"/>
</svg>
