<?xml version="1.0" encoding="utf-8"?>
<!-- Generator: Adobe Illustrator 24.1.1, SVG Export Plug-In . SVG Version: 6.00 Build 0)  -->
<svg version="1.1" id="Capa_1" xmlns="http://www.w3.org/2000/svg" xmlns:xlink="http://www.w3.org/1999/xlink" x="0px" y="0px"
	 viewBox="0 0 60 60" style="enable-background:new 0 0 60 60;" xml:space="preserve">
<style type="text/css">
	.st0{fill:#FFFFFF;}
</style>
<path class="st0" d="M3.7,10v4h44v32h-28v4h36v-4h-4V10H3.7z M11.7,16c-1.5,0-2.8,0.4-4,1.1c-1.2,0.7-2.2,1.7-2.9,2.9
	c-0.7,1.2-1.1,2.5-1.1,4c0,1.5,0.4,2.8,1.1,4c0.8,1.2,1.7,2.2,2.9,2.9c1.2,0.7,2.5,1.1,4,1.1s2.8-0.4,4-1.1c1.2-0.8,2.2-1.7,2.9-2.9
	c0.8-1.2,1.1-2.5,1.1-4c0-1.5-0.4-2.8-1.1-4c-0.7-1.2-1.7-2.2-2.9-2.9C14.5,16.3,13.2,16,11.7,16z M23.7,18v4h10v-4H23.7z M37.7,18
	v4h6v-4H37.7z M11.7,20c1.1,0,2.1,0.4,2.8,1.2c0.8,0.8,1.2,1.7,1.2,2.8s-0.4,2.1-1.2,2.9c-0.8,0.8-1.7,1.1-2.8,1.1s-2.1-0.4-2.9-1.1
	c-0.8-0.8-1.1-1.8-1.1-2.9s0.4-2.1,1.1-2.8C9.6,20.4,10.6,20,11.7,20z M23.7,26v4h20v-4H23.7z M3.7,34v16h4V38h6v12h4V39.3l4.1,2.2
	c0.6,0.3,1.2,0.4,1.9,0.4s1.3-0.1,1.9-0.4l7.1-3.8l-1.9-3.5l-7.1,3.7l-6.2-3.3c-0.9-0.5-1.8-0.7-2.8-0.7H3.7z"/>
</svg>
