<?xml version="1.0" encoding="utf-8"?>
<!-- Generator: Adobe Illustrator 24.1.1, SVG Export Plug-In . SVG Version: 6.00 Build 0)  -->
<svg version="1.1" id="Capa_1" xmlns="http://www.w3.org/2000/svg" xmlns:xlink="http://www.w3.org/1999/xlink" x="0px" y="0px"
	 viewBox="0 0 24 24" style="enable-background:new 0 0 24 24;" xml:space="preserve">
<style type="text/css">
	.st0{fill:none;}
	.st1{fill-rule:evenodd;clip-rule:evenodd;fill:#F4633A;}
	.st2{opacity:0.3;fill:#F4633A;enable-background:new    ;}
</style>
<desc>Created with Sketch.</desc>
<g id="Stockholm-icons-_x2F_-Communication-_x2F_-Active-call">
	<rect id="bound" class="st0" width="24" height="24"/>
	<path id="Path-76" class="st1" d="M13.1,14.8l2.2-2.2c0.6-0.6,0.8-1.5,0.4-2.3L15.5,10c-0.4-0.8-0.2-1.7,0.4-2.3L18.6,5
		c0.2-0.2,0.5-0.2,0.7,0c0,0,0.1,0.1,0.1,0.1l1.1,2.2c0.8,1.7,0.5,3.7-0.8,5.1l-6,6c-1.5,1.5-3.6,2-5.6,1.3l-2.4-0.8
		c-0.3-0.1-0.4-0.4-0.3-0.6c0-0.1,0.1-0.1,0.1-0.2l2.7-2.7c0.6-0.6,1.5-0.8,2.3-0.4l0.2,0.1C11.5,15.5,12.5,15.4,13.1,14.8z"/>
	<path id="Combined-Shape" class="st2" d="M14.1,6L14,8c-1.5-0.1-2.9,0.4-4,1.4c-1.1,1.1-1.6,2.5-1.4,4l-2,0.2C6.3,11.6,7,9.5,8.5,8
		C10,6.5,12.1,5.8,14.1,6z M14.5,2l-0.2,2C11.7,3.8,9,4.7,7.1,6.6c-1.9,1.9-2.8,4.5-2.6,7.2l-2,0.2c-0.3-3.2,0.8-6.4,3.2-8.8
		C8,2.9,11.3,1.7,14.5,2z"/>
</g>
</svg>
