<?xml version="1.0" encoding="utf-8"?>
<!-- Generator: Adobe Illustrator 24.1.1, SVG Export Plug-In . SVG Version: 6.00 Build 0)  -->
<svg version="1.1" id="Capa_1" xmlns="http://www.w3.org/2000/svg" xmlns:xlink="http://www.w3.org/1999/xlink" x="0px" y="0px"
	 viewBox="0 0 24 24" style="enable-background:new 0 0 24 24;" xml:space="preserve">
<style type="text/css">
	.st0{fill:none;}
	.st1{opacity:0.3;fill-rule:evenodd;clip-rule:evenodd;fill:#F4633A;enable-background:new    ;}
	.st2{fill-rule:evenodd;clip-rule:evenodd;fill:#F4633A;}
</style>
<desc>Created with Sketch.</desc>
<g id="Stockholm-icons-_x2F_-Communication-_x2F_-Mail-opened">
	<rect id="bound" class="st0" width="24" height="24"/>
	<path id="Combined-Shape" class="st1" d="M6,2h12c0.6,0,1,0.4,1,1v9c0,0.6-0.4,1-1,1H6c-0.6,0-1-0.4-1-1V3C5,2.4,5.4,2,6,2z M7.5,5
		C7.2,5,7,5.2,7,5.5S7.2,6,7.5,6h6C13.8,6,14,5.8,14,5.5S13.8,5,13.5,5H7.5z M7.5,7C7.2,7,7,7.2,7,7.5S7.2,8,7.5,8h3
		C10.8,8,11,7.8,11,7.5S10.8,7,10.5,7H7.5z"/>
	<path id="Combined-Shape_1_" class="st2" d="M3.8,6.6l8.2,5.9l8.2-5.9c0.2-0.2,0.5-0.1,0.7,0.1C21,6.8,21,6.9,21,7v10
		c0,1.1-0.9,2-2,2H5c-1.1,0-2-0.9-2-2V7c0-0.3,0.2-0.5,0.5-0.5C3.6,6.5,3.7,6.5,3.8,6.6z"/>
</g>
</svg>
