<?xml version="1.0" encoding="utf-8"?>
<!-- Generator: Adobe Illustrator 24.1.1, SVG Export Plug-In . SVG Version: 6.00 Build 0)  -->
<svg version="1.1" id="Capa_1" xmlns="http://www.w3.org/2000/svg" xmlns:xlink="http://www.w3.org/1999/xlink" x="0px" y="0px"
	 viewBox="0 0 512 512" style="enable-background:new 0 0 512 512;" xml:space="preserve">
<style type="text/css">
	.st0{fill:#F4633A;}
</style>
<g transform="translate(0.000000,512.000000) scale(0.100000,-0.100000)">
	<path class="st0" d="M2360,5114c-694-65-1301-371-1738-878C298,3861,98,3426,24,2935c-25-167-26-524-1-685c42-274,118-519,237-764
		l51-104L160,695C77,317,10,6,12,5c2-2,21,0,43,5s335,77,695,159l655,149l95-43c253-114,527-188,798-216c168-17,526-7,675,20
		c456,81,846,256,1197,537c109,88,296,275,384,384c303,379,495,838,546,1304c14,129,14,424,0,551c-85,765-526,1458-1199,1885
		c-269,170-632,301-981,355C2818,5110,2456,5123,2360,5114z M2766,4709c470-46,911-243,1249-558c375-350,610-792,680-1283
		c21-152,21-426,0-574c-57-389-218-757-462-1056c-74-89-235-249-323-319c-301-241-684-404-1068-454c-131-17-425-20-539-5
		c-250,34-480,103-701,210l-143,70L998,635c-254-58-462-104-463-103c-1,2,42,201,96,443s98,450,98,462c1,12-15,50-35,84
		c-229,391-331,860-280,1297C549,3980,1598,4823,2766,4709z"/>
	<path class="st0" d="M1662,3679c-52-26-134-115-185-201c-105-176-114-403-26-627c107-270,430-682,719-917c223-182,488-310,820-396
		c147-39,297-42,400-9c120,38,267,143,314,224c50,87,78,283,46,322c-15,18-428,224-504,251c-77,28-88,23-169-78
		c-169-213-185-227-245-207c-48,15-223,102-287,142c-194,120-396,328-520,534c-51,85-48,98,41,193c46,49,86,104,102,138l25,56
		l-20,56c-11,30-58,147-104,259c-63,153-93,214-120,243l-36,38h-104C1723,3700,1697,3696,1662,3679z"/>
</g>
</svg>
