<?xml version="1.0" encoding="utf-8"?>
<!-- Generator: Adobe Illustrator 22.0.1, SVG Export Plug-In . SVG Version: 6.00 Build 0)  -->
<svg version="1.1" id="Capa_1" xmlns="http://www.w3.org/2000/svg" xmlns:xlink="http://www.w3.org/1999/xlink" x="0px" y="0px"
	 viewBox="0 0 118.4 62.1" style="enable-background:new 0 0 118.4 62.1;" xml:space="preserve">
<style type="text/css">
	.st0{fill:#FFFFFF;}
</style>
<g>
	<path class="st0" d="M54.1,10.9c2.1,0,3.7-1.7,3.7-3.7c0-2.1-1.7-3.7-3.7-3.7c-2.1,0-3.7,1.7-3.7,3.7C50.3,9.2,52,10.9,54.1,10.9"
		/>
	<path class="st0" d="M68.9,32.7c-0.5,0-1-0.4-1-1V0.4h-6.1v32.8c0,2.6,2.1,4.7,4.7,4.7h4.6v-5.1H68.9z"/>
	<polygon class="st0" points="0.7,2.7 0.7,10.6 5.8,10.6 5.8,8.5 13.6,8.5 13.6,32.7 11.3,32.7 11.3,37.9 22.4,37.9 22.4,32.7 
		20,32.7 20,8.5 27.9,8.5 27.9,10.6 32.9,10.6 32.9,2.7 	"/>
	<polygon class="st0" points="57.2,32.7 57.2,14.5 44.1,14.5 44.1,19.7 51.1,19.7 51.1,32.7 44.1,32.7 44.1,37.9 59.6,37.9 
		59.6,32.7 	"/>
	<polygon class="st0" points="27.9,14.5 27.9,32.7 25.4,32.7 25.4,37.9 41.1,37.9 41.1,32.7 33.9,32.7 33.9,19.7 41.1,19.7 
		41.1,14.5 31.6,14.6 	"/>
	<path class="st0" d="M101,23.8c0.1-0.8,0.3-1.5,0.6-2.1c0.4-0.6,0.8-1.1,1.4-1.5s1.2-0.7,1.9-0.9c0.7-0.2,1.4-0.3,2.2-0.3
		c1.7,0,2.9,0.4,3.8,1.3c0.8,0.9,1.2,2.1,1.2,3.6H101z M116.7,19.2c-0.6-1.2-1.5-2.2-2.5-3c-1-0.7-2.1-1.3-3.4-1.6
		c-1.2-0.3-2.4-0.5-3.6-0.5c-1.7,0-3.3,0.2-4.8,0.7c-1.5,0.5-2.8,1.2-3.9,2.2c-1.1,1-2,2.2-2.6,3.7c-0.6,1.5-0.9,3.2-0.9,5.2
		c0,0.7,0,1.3,0.1,1.9c0.1,1.1,0.4,2.1,0.7,3.1c0.1,0.4,1.3,3.2,4.3,5c2,1.2,4.8,1.7,8.7,1.7c3.9,0,5.8-0.2,5.8-0.2v-5v0
		c0,0-2.7,0-6,0c-4.9,0-6.5-3-6.9-3.8c-0.1-0.3-0.2-0.5-0.3-0.8h16C118,25.9,117.8,21.4,116.7,19.2"/>
	<path class="st0" d="M92.7,24v-7.5v-0.1c0-0.2-0.1-0.5-0.4-0.5c-0.8-0.3-1.8-0.6-3-1c-1.5-0.4-3.1-0.6-4.8-0.6
		c-1.8,0-3.5,0.3-5,0.8c-1.5,0.5-2.9,1.3-4,2.3c-1.1,1-2,2.3-2.7,3.8c-0.6,1.5-1,3.2-1,5.1c0,1.8,0.3,3.4,0.8,4.9
		c0.5,1.5,1.2,2.6,2.2,3.6c1.7,1.7,4.9,3,8.6,3.1l7.5,0v-5.1h-5.8c-2.4,0-4.8-1.1-5.4-1.7c-0.6-0.6-1.1-1.3-1.4-2.1
		c-0.3-0.8-0.5-1.7-0.5-2.7c0-1.2,0.2-2.2,0.6-3c0.4-0.8,0.9-1.5,1.6-2.1c0.6-0.6,1.4-1,2.2-1.2c0.8-0.3,1.7-0.4,2.5-0.4
		c0.9,0,1.9,0.1,2.8,0.3V24H92.7z"/>
	<path class="st0" d="M19.4,58.6c0,1.4-0.9,2.8-4,2.8c-3.1,0-4-1.4-4-2.8v-6.4c0-1.4,0.9-2.8,4-2.8c3.1,0,4,1.4,4,2.8V53
		c0,0.3-0.1,0.4-0.4,0.4h-1.4c-0.3,0-0.4-0.1-0.4-0.4v-0.4c0-0.9-0.6-1.3-1.8-1.3c-1.1,0-1.7,0.4-1.7,1.3v5.5c0,0.9,0.6,1.3,1.7,1.3
		c1.2,0,1.8-0.4,1.8-1.3v-0.7c0-0.3,0.1-0.4,0.4-0.4H19c0.3,0,0.4,0.1,0.4,0.4V58.6z"/>
	<path class="st0" d="M27.9,52.6c0-0.9-0.7-1.3-1.9-1.3s-1.8,0.4-1.8,1.3v5.5c0,0.9,0.7,1.3,1.8,1.3s1.9-0.4,1.9-1.3V52.6z
		 M21.9,52.2c0-1.4,1.1-2.8,4.2-2.8c3.1,0,4.2,1.4,4.2,2.8v6.4c0,1.4-1.1,2.8-4.2,2.8c-3.1,0-4.2-1.4-4.2-2.8V52.2z"/>
	<path class="st0" d="M35.7,59.3h3.8c0.3,0,0.4,0.1,0.4,0.4v1.1c0,0.3-0.1,0.4-0.4,0.4h-5.8c-0.3,0-0.4-0.2-0.4-0.4V50
		c0-0.3,0.1-0.4,0.4-0.4h1.5c0.3,0,0.4,0.1,0.4,0.4V59.3z"/>
	<path class="st0" d="M42.8,61.2c-0.3,0-0.4-0.1-0.4-0.4V50c0-0.3,0.1-0.4,0.4-0.4h5.9c0.3,0,0.4,0.1,0.4,0.4V51
		c0,0.3-0.1,0.4-0.4,0.4h-4v2.8h3.7c0.3,0,0.4,0.1,0.4,0.4v1c0,0.3-0.1,0.4-0.4,0.4h-3.7v3.2h4.1c0.3,0,0.4,0.1,0.4,0.4v1.1
		c0,0.3-0.1,0.4-0.4,0.4H42.8z"/>
	<path class="st0" d="M59.5,55.1c0.3,0,0.4,0.1,0.4,0.4v3.1c0,1.4-0.9,2.8-4,2.8c-3.1,0-4-1.4-4-2.8v-6.3c0-1.4,0.9-2.8,4-2.8
		c3.1,0,4,1.4,4,2.8v0.7c0,0.3-0.1,0.4-0.4,0.4h-1.4c-0.3,0-0.4-0.1-0.4-0.4v-0.3c0-0.9-0.6-1.3-1.8-1.3c-1.2,0-1.7,0.4-1.7,1.3v5.5
		c0,0.9,0.6,1.3,1.7,1.3c1.1,0,1.8-0.4,1.8-1.3V57H56c-0.3,0-0.4-0.1-0.4-0.4v-1.1c0-0.3,0.1-0.4,0.4-0.4H59.5z"/>
	<path class="st0" d="M65.2,60.8c0,0.3-0.1,0.4-0.4,0.4h-1.5c-0.3,0-0.4-0.1-0.4-0.4V50c0-0.3,0.1-0.4,0.4-0.4h1.5
		c0.3,0,0.4,0.1,0.4,0.4V60.8z"/>
	<path class="st0" d="M74.3,52.6c0-0.9-0.7-1.3-1.9-1.3s-1.8,0.4-1.8,1.3v5.5c0,0.9,0.7,1.3,1.8,1.3s1.9-0.4,1.9-1.3V52.6z
		 M68.2,52.2c0-1.4,1.1-2.8,4.2-2.8c3.1,0,4.2,1.4,4.2,2.8v6.4c0,1.4-1.1,2.8-4.2,2.8c-3.1,0-4.2-1.4-4.2-2.8V52.2z"/>
</g>
</svg>
