<?xml version="1.0" encoding="utf-8"?>
<!-- Generator: Adobe Illustrator 24.1.1, SVG Export Plug-In . SVG Version: 6.00 Build 0)  -->
<svg version="1.1" id="Capa_1" xmlns="http://www.w3.org/2000/svg" xmlns:xlink="http://www.w3.org/1999/xlink" x="0px" y="0px"
	 viewBox="0 0 98 51" style="enable-background:new 0 0 98 51;" xml:space="preserve">
<style type="text/css">
	.st0{clip-path:url(#SVGID_2_);}
	.st1{fill:#FFFFFF;}
</style>
<g>
	<defs>
		<rect id="SVGID_1_" width="98" height="51"/>
	</defs>
	<clipPath id="SVGID_2_">
		<use xlink:href="#SVGID_1_"  style="overflow:visible;"/>
	</clipPath>
	<g class="st0">
		<path class="st1" d="M44.7,8.8c1.7,0,3.1-1.4,3.1-3.1c0-1.7-1.4-3.2-3.1-3.2c-1.7,0-3.1,1.4-3.1,3.1C41.6,7.4,42.9,8.8,44.7,8.8z"
			/>
		<path class="st1" d="M57.1,27.1c-0.5,0-0.9-0.4-0.9-0.9V0h-5.1v27.4c0,2.2,1.7,4,4,4h3.8v-4.3H57.1z"/>
		<path class="st1" d="M0,1.9v6.7h4.3V6.8h6.5v20.2H8.9v4.3h9.2v-4.3h-1.9V6.8h6.5v1.7H27V1.9H0z"/>
		<path class="st1" d="M47.3,27.1V11.8H36.3v4.3h5.8v10.9h-5.8v4.3h12.9v-4.3H47.3z"/>
		<path class="st1" d="M22.7,11.8v15.3h-2v4.3h13.1v-4.3h-6.1V16.1h6.1v-4.3l-8.1,0.1L22.7,11.8z"/>
		<path class="st1" d="M84,19.6c0-0.6,0.2-1.2,0.5-1.7c0.2-0.5,0.7-1,1.1-1.2c0.4-0.2,1-0.6,1.6-0.7c0.6-0.1,1.2-0.2,1.9-0.2
			c1.4,0,2.5,0.4,3.1,1.1c0.7,0.7,1,1.7,1,3H84V19.6z M97,15.8c-0.5-1-1.2-1.9-2.1-2.5c-0.9-0.6-1.7-1-2.9-1.4c-1-0.2-2-0.4-3-0.4
			c-1.5,0-2.7,0.2-4,0.6c-1.2,0.4-2.4,1-3.2,1.9c-0.9,0.9-1.6,1.9-2.2,3.1c-0.5,1.2-0.7,2.7-0.7,4.3c0,0.6,0,1.1,0.1,1.6
			c0.1,0.9,0.4,1.7,0.6,2.6c0.1,0.4,1.1,2.7,3.6,4.2c1.7,1,4.1,1.4,7.3,1.4c3.2,0,4.8-0.1,4.8-0.1v-4.1c0,0-2.2,0-5.1,0
			c-4.1,0-5.5-2.5-5.7-3.2c-0.1-0.2-0.1-0.4-0.2-0.6h13.4C98.1,21.3,98,17.6,97,15.8z"/>
		<path class="st1" d="M77,19.7v-6.3v-0.1c0-0.2-0.1-0.4-0.2-0.5c-0.6-0.2-1.5-0.5-2.6-0.9c-1.2-0.4-2.6-0.5-4-0.5
			c-1.5,0-3,0.2-4.2,0.6c-1.2,0.5-2.4,1.1-3.3,2c-1,0.9-1.7,1.9-2.2,3.1s-0.7,2.6-0.7,4.2c0,1.5,0.2,2.9,0.7,4.1
			c0.5,1.2,1,2.1,1.9,3c1.4,1.5,4.1,2.5,7.2,2.6h6.2v-4.3h-4.8c-2,0-4-1-4.6-1.5c-0.5-0.5-0.9-1.1-1.1-1.7c-0.2-0.7-0.4-1.5-0.4-2.2
			c0-1,0.1-1.9,0.5-2.5c0.4-0.7,0.7-1.2,1.4-1.7c0.5-0.5,1.1-0.9,1.9-1c0.7-0.2,1.4-0.4,2.1-0.4s1.6,0.1,2.4,0.2v3.5H77V19.7z"/>
		<path class="st1" d="M15.6,48.6c0,1.2-0.7,2.4-3.3,2.4c-2.6,0-3.3-1.1-3.3-2.4v-5.2c0-1.2,0.7-2.4,3.3-2.4c2.6,0,3.3,1.1,3.3,2.4
			v0.7c0,0.2-0.1,0.4-0.4,0.4H14c-0.2,0-0.4-0.1-0.4-0.4v-0.4c0-0.7-0.5-1.1-1.5-1.1s-1.5,0.4-1.5,1.1v4.6c0,0.7,0.5,1.1,1.5,1.1
			s1.5-0.4,1.5-1.1v-0.5c0-0.2,0.1-0.4,0.4-0.4h1.2c0.2,0,0.4,0.1,0.4,0.4V48.6z"/>
		<path class="st1" d="M22.8,43.7c0-0.7-0.6-1.1-1.5-1.1c-1,0-1.5,0.4-1.5,1.1v4.7c0,0.7,0.6,1.1,1.5,1.1c1,0,1.5-0.4,1.5-1.1V43.7z
			 M17.7,43.4c0-1.2,0.9-2.4,3.5-2.4c2.6,0,3.5,1.1,3.5,2.4v5.3c0,1.2-0.9,2.4-3.5,2.4c-2.6,0-3.5-1.1-3.5-2.4V43.4z"/>
		<path class="st1" d="M29.3,49.3h3.2c0.2,0,0.4,0.1,0.4,0.4v0.9c0,0.2-0.1,0.4-0.4,0.4h-4.8c-0.2,0-0.2-0.1-0.2-0.4v-9.1
			c0-0.2,0.1-0.4,0.4-0.4H29c0.2,0,0.4,0.1,0.4,0.4v7.8H29.3z"/>
		<path class="st1" d="M35.2,50.9c-0.2,0-0.4-0.1-0.4-0.4v-9.1c0-0.2,0.1-0.4,0.4-0.4h5c0.2,0,0.4,0.1,0.4,0.4v0.9
			c0,0.2-0.1,0.4-0.4,0.4h-3.3V45h3.1c0.2,0,0.4,0.1,0.4,0.4v0.9c0,0.2-0.1,0.4-0.4,0.4h-3.1v2.7h3.5c0.2,0,0.4,0.1,0.4,0.4v0.9
			c0,0.2-0.1,0.4-0.4,0.4h-5.1V50.9z"/>
		<path class="st1" d="M49.2,45.8c0.2,0,0.4,0.1,0.4,0.4v2.6c0,1.2-0.7,2.4-3.3,2.4c-2.6,0-3.3-1.1-3.3-2.4v-5.3
			c0-1.2,0.7-2.4,3.3-2.4c2.6,0,3.3,1.1,3.3,2.4v0.6c0,0.2-0.1,0.4-0.4,0.4H48c-0.2,0-0.4-0.1-0.4-0.4v-0.2c0-0.7-0.5-1.1-1.5-1.1
			c-1,0-1.5,0.4-1.5,1.1v4.6c0,0.7,0.5,1.1,1.5,1.1c1,0,1.5-0.4,1.5-1.1v-1h-1.4c-0.2,0-0.4-0.1-0.4-0.4v-0.9c0-0.2,0.1-0.4,0.4-0.4
			H49.2z"/>
		<path class="st1" d="M54,50.5c0,0.2-0.1,0.4-0.4,0.4h-1.2c-0.2,0-0.4-0.1-0.4-0.4v-9.1c0-0.2,0.1-0.4,0.4-0.4h1.2
			c0.2,0,0.4,0.1,0.4,0.4V50.5z"/>
		<path class="st1" d="M61.5,43.7c0-0.7-0.6-1.1-1.5-1.1c-1,0-1.5,0.4-1.5,1.1v4.7c0,0.7,0.6,1.1,1.5,1.1c1,0,1.5-0.4,1.5-1.1V43.7z
			 M56.6,43.4c0-1.2,0.9-2.4,3.5-2.4c2.6,0,3.5,1.1,3.5,2.4v5.3c0,1.2-0.9,2.4-3.5,2.4c-2.6,0-3.5-1.1-3.5-2.4V43.4z"/>
	</g>
</g>
</svg>
