<svg width="98" height="51" viewBox="0 0 98 51" fill="none" xmlns="http://www.w3.org/2000/svg">
<path d="M44.6579 8.80991C46.3946 8.80991 47.7592 7.44495 47.7592 5.70772C47.7592 3.9705 46.3946 2.48145 44.6579 2.48145C42.9212 2.48145 41.5566 3.84641 41.5566 5.58364C41.5566 7.44495 42.9212 8.80991 44.6579 8.80991Z" fill="#FF6334"/>
<path d="M57.0628 27.0511C56.5666 27.0511 56.1945 26.6788 56.1945 26.1825V0H51.1084V27.4234C51.1084 29.6569 52.8451 31.3942 55.078 31.3942H58.9236V27.0511H57.0628Z" fill="#FF6334"/>
<path d="M0 1.86133V8.56206H4.34177V6.82483H10.7924V27.0511H8.93165V31.3942H18.1114V27.0511H16.2506V6.82483H22.7013V8.56206H27.043V1.86133H0Z" fill="#FF6334"/>
<path d="M47.2631 27.0509V11.7881H36.3467V16.1312H42.1771V27.0509H36.3467V31.3939H49.2479V27.0509H47.2631Z" fill="#FF6334"/>
<path d="M22.7016 11.7881V27.0509H20.7168V31.3939H33.8662V27.0509H27.7877V16.1312H33.8662V11.7881L25.8029 11.9122L22.7016 11.7881Z" fill="#FF6334"/>
<path d="M83.9826 19.6057C83.9826 18.9853 84.2307 18.3649 84.4788 17.8685C84.7269 17.3722 85.2231 16.8758 85.5952 16.6276C85.9674 16.3795 86.5876 16.0072 87.2079 15.8831C87.8281 15.759 88.4484 15.6349 89.0686 15.6349C90.4332 15.6349 91.5496 16.0072 92.1699 16.7517C92.9142 17.4962 93.1623 18.4889 93.1623 19.7298H83.9826V19.6057ZM97.0079 15.759C96.5117 14.7663 95.7674 13.8977 94.899 13.2773C94.0307 12.6568 93.1623 12.2846 92.0458 11.9123C91.0534 11.6641 90.061 11.54 89.0686 11.54C87.58 11.54 86.3395 11.7882 85.099 12.1605C83.8585 12.5327 82.7421 13.1532 81.8737 14.0218C81.0053 14.8904 80.261 15.8831 79.6408 17.124C79.1446 18.3649 78.8965 19.8539 78.8965 21.467C78.8965 22.0875 78.8965 22.5838 79.0205 23.0802C79.1446 23.9488 79.3927 24.8174 79.6408 25.686C79.7648 26.0583 80.7572 28.416 83.2383 29.905C84.975 30.8977 87.3319 31.27 90.5572 31.27C93.7826 31.27 95.3952 31.1459 95.3952 31.1459V27.051C95.3952 27.051 93.1623 27.051 90.3091 27.051C86.2155 27.051 84.8509 24.5692 84.6028 23.8247C84.4788 23.5765 84.4788 23.4524 84.3547 23.2043H97.7522C98.1243 21.343 98.0003 17.6203 97.0079 15.759Z" fill="#FF6334"/>
<path d="M77.0351 19.7299V13.4014V13.2773C77.0351 13.0292 76.911 12.9051 76.787 12.781C76.1667 12.5328 75.2983 12.2846 74.1819 11.9124C72.9414 11.5401 71.5768 11.416 70.2123 11.416C68.7237 11.416 67.2351 11.6642 65.9946 12.0365C64.754 12.5328 63.6376 13.1532 62.6452 14.0219C61.6528 14.8905 60.9085 15.8832 60.4123 17.124C59.9161 18.3649 59.668 19.7299 59.668 21.343C59.668 22.8321 59.9161 24.197 60.4123 25.4379C60.9085 26.6788 61.4047 27.5474 62.273 28.416C63.6376 29.9051 66.3667 30.8978 69.468 31.0219H75.6705V26.6788H70.8325C68.8477 26.6788 66.8629 25.6861 66.2427 25.1897C65.7465 24.6934 65.3743 24.073 65.1262 23.4525C64.8781 22.708 64.754 21.9635 64.754 21.2189C64.754 20.2262 64.8781 19.3576 65.2502 18.7372C65.6224 17.9927 65.9946 17.4963 66.6148 17C67.111 16.5036 67.7313 16.1313 68.4756 16.0073C69.2199 15.7591 69.8401 15.635 70.5844 15.635C71.3287 15.635 72.1971 15.7591 72.9414 15.8832V19.3576H77.0351V19.7299Z" fill="#FF6334"/>
<path d="M15.6304 48.6426C15.6304 49.8835 14.8861 51.0002 12.281 51.0002C9.67594 51.0002 8.93164 49.8835 8.93164 48.6426V43.4309C8.93164 42.19 9.67594 41.0732 12.281 41.0732C14.8861 41.0732 15.6304 42.19 15.6304 43.4309V44.1754C15.6304 44.4236 15.5063 44.5477 15.2582 44.5477H14.0177C13.7696 44.5477 13.6456 44.4236 13.6456 44.1754V43.8032C13.6456 43.0586 13.1494 42.6864 12.157 42.6864C11.1646 42.6864 10.6684 43.0586 10.6684 43.8032V48.3944C10.6684 49.1389 11.1646 49.5112 12.157 49.5112C13.1494 49.5112 13.6456 49.1389 13.6456 48.3944V47.8981C13.6456 47.6499 13.7696 47.5258 14.0177 47.5258H15.2582C15.5063 47.5258 15.6304 47.6499 15.6304 47.8981V48.6426Z" fill="#FF6334"/>
<path d="M22.8253 43.6791C22.8253 42.9346 22.2051 42.5623 21.3367 42.5623C20.3443 42.5623 19.8481 42.9346 19.8481 43.6791V48.3944C19.8481 49.1389 20.4684 49.5112 21.3367 49.5112C22.3291 49.5112 22.8253 49.1389 22.8253 48.3944V43.6791ZM17.7393 43.4309C17.7393 42.19 18.6076 41.0732 21.2127 41.0732C23.8177 41.0732 24.6861 42.19 24.6861 43.4309V48.7667C24.6861 50.0076 23.8177 51.1243 21.2127 51.1243C18.6076 51.1243 17.7393 50.0076 17.7393 48.7667V43.4309Z" fill="#FF6334"/>
<path d="M29.2758 49.263H32.5011C32.7492 49.263 32.8733 49.3871 32.8733 49.6353V50.5039C32.8733 50.7521 32.7492 50.8762 32.5011 50.8762H27.6631C27.415 50.8762 27.415 50.7521 27.415 50.5039V41.4455C27.415 41.1973 27.5391 41.0732 27.7872 41.0732H29.0277C29.2758 41.0732 29.3999 41.1973 29.3999 41.4455V49.263H29.2758Z" fill="#FF6334"/>
<path d="M35.2305 50.8762C34.9824 50.8762 34.8584 50.7521 34.8584 50.5039V41.4455C34.8584 41.1973 34.9824 41.0732 35.2305 41.0732H40.1926C40.4407 41.0732 40.5647 41.1973 40.5647 41.4455V42.3141C40.5647 42.5623 40.4407 42.6864 40.1926 42.6864H36.8432V45.044H39.9445C40.1926 45.044 40.3166 45.1681 40.3166 45.4163V46.2849C40.3166 46.5331 40.1926 46.6572 39.9445 46.6572H36.8432V49.3871H40.3166C40.5647 49.3871 40.6888 49.5112 40.6888 49.7594V50.628C40.6888 50.8762 40.5647 51.0002 40.3166 51.0002H35.2305V50.8762Z" fill="#FF6334"/>
<path d="M49.2485 45.7886C49.4966 45.7886 49.6206 45.9127 49.6206 46.1608V48.7667C49.6206 50.0076 48.8763 51.1243 46.2712 51.1243C43.6662 51.1243 42.9219 50.0076 42.9219 48.7667V43.4309C42.9219 42.19 43.6662 41.0732 46.2712 41.0732C48.8763 41.0732 49.6206 42.19 49.6206 43.4309V44.0513C49.6206 44.2995 49.4966 44.4236 49.2485 44.4236H48.008C47.7599 44.4236 47.6358 44.2995 47.6358 44.0513V43.8032C47.6358 43.0586 47.1396 42.6864 46.1472 42.6864C45.1548 42.6864 44.6586 43.0586 44.6586 43.8032V48.3944C44.6586 49.1389 45.1548 49.5112 46.1472 49.5112C47.1396 49.5112 47.6358 49.1389 47.6358 48.3944V47.4017H46.2712C46.0231 47.4017 45.8991 47.2776 45.8991 47.0295V46.1608C45.8991 45.9127 46.0231 45.7886 46.2712 45.7886H49.2485Z" fill="#FF6334"/>
<path d="M53.9624 50.5039C53.9624 50.7521 53.8383 50.8762 53.5902 50.8762H52.3497C52.1016 50.8762 51.9775 50.7521 51.9775 50.5039V41.4455C51.9775 41.1973 52.1016 41.0732 52.3497 41.0732H53.5902C53.8383 41.0732 53.9624 41.1973 53.9624 41.4455V50.5039Z" fill="#FF6334"/>
<path d="M61.5294 43.6791C61.5294 42.9346 60.9092 42.5623 60.0408 42.5623C59.0484 42.5623 58.5522 42.9346 58.5522 43.6791V48.3944C58.5522 49.1389 59.1724 49.5112 60.0408 49.5112C61.0332 49.5112 61.5294 49.1389 61.5294 48.3944V43.6791ZM56.5674 43.4309C56.5674 42.19 57.4357 41.0732 60.0408 41.0732C62.6459 41.0732 63.5142 42.19 63.5142 43.4309V48.7667C63.5142 50.0076 62.6459 51.1243 60.0408 51.1243C57.4357 51.1243 56.5674 50.0076 56.5674 48.7667V43.4309Z" fill="#FF6334"/>
</svg>
