<svg width="185" height="35" viewBox="0 0 185 35" fill="none" xmlns="http://www.w3.org/2000/svg">
<path d="M0.242 12.104V9.026C0.242 8.342 0.47 8.076 1.116 8.076H4.422C5.106 8.076 5.372 8.342 5.372 9.026V12.104C5.372 12.788 5.106 13.054 4.422 13.054H1.116C0.47 13.054 0.242 12.788 0.242 12.104ZM0.166 22.896L0.66 15.942C0.698 15.258 0.888 14.992 1.572 14.992H3.928C4.574 14.992 4.802 15.258 4.84 15.942L5.334 22.896V32.928C5.334 33.612 5.106 33.916 4.422 33.916H1.078C0.394 33.916 0.166 33.612 0.166 32.928V22.896ZM14.4151 27H11.1091C10.4251 27 10.1971 26.696 10.1971 26.012V2.148C10.1971 1.464 10.4251 1.16 11.1091 1.16H19.0891C25.9671 1.16 28.2851 4.162 28.2851 7.354V10.964C28.2851 13.206 27.1451 15.334 24.1431 16.398L28.2091 26.012C28.4751 26.62 28.0191 27 27.3351 27H23.7631C23.1551 27 22.9651 26.62 22.6991 26.012L19.0131 17.158H15.3271V26.012C15.3271 26.696 15.0991 27 14.4151 27ZM19.0891 5.416H15.3271V12.902H19.0891C21.6351 12.902 23.1931 11.952 23.1931 10.052V8.266C23.1931 6.366 21.6351 5.416 19.0891 5.416ZM47.3163 13.358V17.766C47.3163 18.374 47.0883 18.64 46.4803 18.64H36.7523V21.452C36.7523 22.782 37.4743 23.542 39.7163 23.542C41.9583 23.542 42.6803 22.782 42.6803 21.452V21.262C42.6803 20.616 42.9463 20.312 43.6303 20.312H46.2903C46.9363 20.312 47.2403 20.616 47.2403 21.262V21.68C47.2403 25.1 45.2643 27.304 39.6783 27.304C34.0923 27.304 31.8883 25.1 31.8883 21.68V13.358C31.8883 9.976 34.1303 7.772 39.7163 7.772C45.2643 7.772 47.3163 9.976 47.3163 13.358ZM36.7523 13.624V15.296H42.6803V13.624C42.6803 12.294 41.8443 11.534 39.7163 11.534C37.5503 11.534 36.7523 12.294 36.7523 13.624ZM56.5476 27.304C52.7856 27.304 51.0376 25.138 51.0376 21.756V13.32C51.0376 9.938 52.7856 7.772 56.5476 7.772C59.6256 7.772 61.5636 9.102 62.6276 9.976L62.7036 9.026C62.7416 8.342 62.9316 8.076 63.6536 8.076H66.5416C67.2256 8.076 67.4916 8.342 67.4916 9.026V29.052C67.4916 32.434 64.9076 34.638 59.3596 34.638H54.0016C53.3176 34.638 53.0136 34.41 53.0136 33.726V31.522C53.0136 30.838 53.3176 30.534 54.0016 30.534H59.3596C61.4876 30.534 62.5136 29.888 62.5136 28.482V25.29C61.3736 26.088 59.4736 27.304 56.5476 27.304ZM56.0536 14.08V20.958C56.0536 21.984 56.3576 22.972 58.1056 22.972C59.9676 22.972 61.6776 21.832 62.5136 21.224V13.852C61.6776 13.244 59.9676 12.104 58.1056 12.104C56.3576 12.104 56.0536 13.092 56.0536 14.08ZM79.3853 1.046L76.6493 5.074C76.4593 5.34 76.0793 5.682 75.4333 5.682H72.9633C72.3933 5.682 72.1273 5.454 72.4693 4.77L74.2933 1.046C74.5593 0.475999 74.9393 0.0959998 75.6233 0.0959998H78.9293C79.6133 0.0959998 79.7653 0.513999 79.3853 1.046ZM76.8773 9.026V26.05C76.8773 26.696 76.6493 27 75.9653 27H72.8113C72.1653 27 71.8993 26.696 71.8993 26.05V9.026C71.8993 8.342 72.1653 8.076 72.8113 8.076H75.9653C76.6493 8.076 76.8773 8.342 76.8773 9.026ZM90.902 13.548V12.826C90.902 11.648 89.762 11.268 88.128 11.268C86.494 11.268 85.392 11.648 85.392 12.826V13.32C85.392 14.08 86.038 14.498 86.57 14.688L92.042 16.474C94.398 17.234 95.69 18.602 95.69 20.388V22.402C95.69 24.834 93.524 27.304 88.014 27.304C82.504 27.304 80.414 24.834 80.414 22.402V21.528C80.414 20.92 80.642 20.654 81.288 20.654H84.1C84.746 20.654 84.974 20.92 84.974 21.528V22.174C84.974 23.352 86.304 23.77 88.014 23.77C89.724 23.77 91.092 23.352 91.092 22.174V21.49C91.092 20.806 90.598 20.464 89.382 20.046L83.872 18.184C82.466 17.69 80.87 16.056 80.87 14.156V12.826C80.87 10.394 82.656 7.772 88.166 7.772C93.638 7.772 95.424 10.394 95.424 12.826V13.548C95.424 14.194 95.234 14.422 94.55 14.422H91.738C91.13 14.422 90.902 14.194 90.902 13.548ZM105.554 8.152H109.012C109.696 8.152 109.962 8.38 109.962 9.026V11.154C109.962 11.838 109.696 12.104 109.012 12.104H105.554V20.844C105.554 22.326 106.466 22.896 108.594 22.896H109.468C110.114 22.896 110.418 23.162 110.418 23.846V26.05C110.418 26.734 110.114 27 109.468 27H107.834C102.286 27 100.576 25.1 100.576 21.376V12.104H98.7143C98.0303 12.104 97.7643 11.838 97.7643 11.154V9.254C97.7643 8.608 98.0303 8.418 98.7143 8.342L100.462 8.152H100.576V4.504C100.576 3.82 100.842 3.554 101.488 3.554H104.68C105.326 3.554 105.554 3.82 105.554 4.504V8.152ZM123.763 7.772C124.409 7.772 124.713 8.038 124.713 8.684V11.116C124.713 11.8 124.409 12.066 123.763 12.104C121.027 12.332 119.127 13.586 118.291 14.346V26.012C118.291 26.696 118.063 27 117.379 27H114.225C113.579 27 113.313 26.696 113.313 26.012V8.988C113.313 8.342 113.579 8.076 114.225 8.076H117.151C117.835 8.076 118.063 8.342 118.101 8.988L118.215 10.318C119.165 9.254 121.027 7.772 123.763 7.772ZM126.854 13.738V13.244C126.854 9.862 129.134 7.772 134.53 7.772C140.116 7.772 142.168 9.862 142.168 13.244V26.012C142.168 26.696 141.94 27 141.256 27H138.444C137.76 27 137.608 26.696 137.532 26.012L137.456 25.214C136.354 26.126 134.454 27.304 131.832 27.304C128.108 27.304 126.322 25.062 126.322 22.554V20.844C126.322 18.298 128.298 16.056 132.06 16.056H137.304V13.624C137.304 12.256 136.62 11.496 134.454 11.496C132.288 11.496 131.528 12.104 131.528 13.472V13.738C131.528 14.422 131.262 14.688 130.578 14.688H127.804C127.12 14.688 126.854 14.422 126.854 13.738ZM133.124 23.352C134.872 23.352 136.43 22.364 137.304 21.718V19.552H133.01C131.566 19.552 131.186 20.274 131.186 21.262V21.87C131.186 23.01 131.984 23.352 133.124 23.352ZM152.683 8.152H156.141C156.825 8.152 157.091 8.38 157.091 9.026V11.154C157.091 11.838 156.825 12.104 156.141 12.104H152.683V20.844C152.683 22.326 153.595 22.896 155.723 22.896H156.597C157.243 22.896 157.547 23.162 157.547 23.846V26.05C157.547 26.734 157.243 27 156.597 27H154.963C149.415 27 147.705 25.1 147.705 21.376V12.104H145.843C145.159 12.104 144.893 11.838 144.893 11.154V9.254C144.893 8.608 145.159 8.418 145.843 8.342L147.591 8.152H147.705V4.504C147.705 3.82 147.971 3.554 148.617 3.554H151.809C152.455 3.554 152.683 3.82 152.683 4.504V8.152ZM175.566 13.358V17.766C175.566 18.374 175.338 18.64 174.73 18.64H165.002V21.452C165.002 22.782 165.724 23.542 167.966 23.542C170.208 23.542 170.93 22.782 170.93 21.452V21.262C170.93 20.616 171.196 20.312 171.88 20.312H174.54C175.186 20.312 175.49 20.616 175.49 21.262V21.68C175.49 25.1 173.514 27.304 167.928 27.304C162.342 27.304 160.138 25.1 160.138 21.68V13.358C160.138 9.976 162.38 7.772 167.966 7.772C173.514 7.772 175.566 9.976 175.566 13.358ZM165.002 13.624V15.296H170.93V13.624C170.93 12.294 170.094 11.534 167.966 11.534C165.8 11.534 165.002 12.294 165.002 13.624ZM184.874 12.18L184.38 19.134C184.342 19.818 184.152 20.084 183.468 20.084H181.112C180.466 20.084 180.238 19.818 180.2 19.134L179.706 12.18V2.148C179.706 1.464 179.934 1.16 180.618 1.16H183.962C184.646 1.16 184.874 1.464 184.874 2.148V12.18ZM184.798 22.972V26.05C184.798 26.734 184.57 27 183.924 27H180.618C179.934 27 179.668 26.734 179.668 26.05V22.972C179.668 22.288 179.934 22.022 180.618 22.022H183.924C184.57 22.022 184.798 22.288 184.798 22.972Z" fill="#FF6334"/>
</svg>
