<?xml version="1.0" encoding="utf-8"?>
<!-- Generator: Adobe Illustrator 18.0.0, SVG Export Plug-In . SVG Version: 6.00 Build 0)  -->
<!DOCTYPE svg PUBLIC "-//W3C//DTD SVG 1.1//EN" "http://www.w3.org/Graphics/SVG/1.1/DTD/svg11.dtd">
<svg version="1.1" id="Capa_1" xmlns="http://www.w3.org/2000/svg" xmlns:xlink="http://www.w3.org/1999/xlink" x="0px" y="0px"
	 viewBox="0 0 253 100" enable-background="new 0 0 253 100" xml:space="preserve">
<g>
	<g>
		<g>
			<path fill="#009EE2" d="M117.2,55c-1.4-1.1-2.5-2.7-3.3-4.7c-0.7-2-1.2-4.5-1.2-7.3c0-3.3,0.4-6.3,1.2-9.2l6.4,1.6
				c-0.2,0.9-0.4,1.9-0.5,3c-0.1,1.1-0.2,2.5-0.4,4.2l-0.1,0.9c0,4.8,1,7.3,3,7.3s2.9-2.4,2.9-7.1c0-0.8-0.1-2-0.4-3.7
				c-0.2-1.7-0.6-3.2-1-4.7l6.3-1.8c1.1,2.9,1.6,6.3,1.6,10.2c0,2.7-0.4,5-1.2,6.9c-0.7,2-1.9,3.5-3.3,4.5c-1.4,1.1-3.1,1.6-5,1.6
				C120.4,56.6,118.7,56.1,117.2,55z M119.1,33.8l2.7-3.8l4.6,1.4l-3.2,2.9L119.1,33.8z"/>
			<path fill="#009EE2" d="M144.3,39.5l0.1,16.8l-5.9,0.2V39.6l-6.1,0.1l-0.4-5.9l18.6-0.4l0.5,5.9L144.3,39.5z"/>
			<path fill="#009EE2" d="M151.9,33.9h5.8l-0.2,22.5h-5.8L151.9,33.9z"/>
			<path fill="#009EE2" d="M172.6,50.5v5.9h-13.9V33.8h5.9v16.6L172.6,50.5L172.6,50.5z"/>
			<path fill="#009EE2" d="M189.6,50.1V56l-15.6,0.4l-0.7-22.5l15.6-0.5l0.4,5.9l-10,0.1l0.1,2.4l8.3-0.2l0.3,5.9l-8.2,0.2l0.1,2.8
				L189.6,50.1z"/>
			<path fill="#009EE2" d="M194,55.5c-1.6-0.7-2.9-1.6-3.9-2.8l4-4.4c0.6,0.7,1.4,1.2,2.2,1.7c0.9,0.4,1.7,0.6,2.6,0.6
				c0.8,0,1.4-0.1,1.9-0.4c0.5-0.3,0.7-0.6,0.7-1.1c0-0.4-0.2-0.7-0.7-0.9c-0.5-0.2-1.1-0.2-1.9-0.2c-1.5,0-2.8-0.3-4-0.9
				c-1.2-0.6-2.2-1.4-3-2.5c-0.7-1.1-1.1-2.3-1.1-3.6c0-1.4,0.4-2.6,1.2-3.7c0.7-1.1,1.8-2,3.1-2.6c1.3-0.6,2.7-0.9,4.3-0.9
				c1.6,0,3.1,0.3,4.6,0.9c1.5,0.6,2.8,1.5,3.9,2.6l-3.3,4.5c-1.9-1.4-3.6-2-5.3-2c-0.7,0-1.4,0.1-1.9,0.4c-0.6,0.2-0.8,0.6-0.8,0.9
				c0,0.4,0.3,0.7,0.9,0.9c0.6,0.2,1.4,0.3,2.2,0.3c1.6,0,3,0.2,4.2,0.7s2.2,1.2,2.9,2.2c0.7,1,1.1,2.2,1.1,3.5
				c0,1.5-0.4,2.9-1.2,4.1c-0.9,1.2-2,2.2-3.3,2.9c-1.4,0.7-2.9,1.1-4.6,1.1C197.2,56.6,195.6,56.3,194,55.5z"/>
			<path fill="#FF5920" d="M141.7,82.4h-16.9l-0.5-5.1c1.4-0.6,2.9-1.5,4.4-2.6c1.6-1.1,2.9-2.4,3.9-3.6c1.1-1.2,1.6-2.4,1.6-3.3
				c0-0.6-0.2-1.1-0.6-1.6c-0.4-0.5-0.8-0.7-1.3-0.7c-0.7,0-1.2,0.3-1.7,1c-0.5,0.6-0.8,1.4-0.9,2.2l-5.4-0.9c0.1-1.5,0.5-2.9,1.2-4
				c0.7-1.2,1.7-2.1,2.9-2.9c1.2-0.7,2.6-1.1,4.2-1.1c1.6,0,2.9,0.3,4,1s2,1.6,2.7,2.8c0.6,1.2,0.9,2.5,0.9,4.1c0,3-1.6,6.2-4.9,9.5
				l5.7-0.1L141.7,82.4z"/>
			<path fill="#FF5920" d="M145.7,81c-1.6-1.1-2.9-2.5-3.8-4.2c-0.9-1.7-1.4-3.7-1.4-5.6s0.5-3.8,1.4-5.6c0.9-1.7,2.2-3.2,3.8-4.3
				c1.6-1.1,3.2-1.6,5-1.6c1.7,0,3.3,0.5,4.9,1.6c1.5,1.1,2.7,2.4,3.6,4.2c0.9,1.7,1.3,3.7,1.3,5.6c0,2.1-0.4,4-1.3,5.8
				c-0.9,1.7-2,3.2-3.6,4.2c-1.5,1-3.2,1.6-4.9,1.6S147.3,82.1,145.7,81z M153.2,74.7c0.6-0.9,0.9-2,0.9-3.6c0-1.7-0.3-3-0.9-4
				c-0.6-1-1.4-1.4-2.5-1.4c-0.7,0-1.4,0.2-2,0.7c-0.6,0.4-1.1,1.1-1.4,1.9s-0.5,1.7-0.5,2.8c0,1.5,0.4,2.7,1.1,3.6
				c0.7,0.9,1.6,1.3,2.9,1.3C151.7,76,152.6,75.6,153.2,74.7z"/>
			<path fill="#FF5920" d="M177.8,82.4h-16.9l-0.5-5.1c1.4-0.6,2.9-1.5,4.4-2.6c1.6-1.1,2.9-2.4,3.9-3.6c1.1-1.2,1.6-2.4,1.6-3.3
				c0-0.6-0.2-1.1-0.6-1.6c-0.4-0.5-0.8-0.7-1.3-0.7c-0.7,0-1.2,0.3-1.7,1c-0.5,0.6-0.8,1.4-0.9,2.2l-5.4-0.9c0.1-1.5,0.5-2.9,1.2-4
				c0.7-1.2,1.7-2.1,2.9-2.9c1.2-0.7,2.6-1.1,4.2-1.1c1.6,0,2.9,0.3,4,1s2,1.6,2.7,2.8c0.6,1.2,0.9,2.5,0.9,4.1c0,3-1.6,6.2-4.9,9.5
				l5.7-0.1L177.8,82.4z"/>
			<path fill="#FF5920" d="M181.7,81c-1.6-1.1-2.9-2.5-3.8-4.2s-1.4-3.7-1.4-5.6s0.5-3.8,1.4-5.6c0.9-1.7,2.2-3.2,3.8-4.3
				c1.6-1.1,3.2-1.6,5-1.6c1.7,0,3.3,0.5,4.9,1.6c1.5,1.1,2.7,2.4,3.6,4.2c0.9,1.7,1.3,3.7,1.3,5.6c0,2.1-0.4,4-1.3,5.8
				c-0.9,1.7-2,3.2-3.6,4.2c-1.5,1-3.2,1.6-4.9,1.6S183.2,82.1,181.7,81z M189.2,74.7c0.6-0.9,0.9-2,0.9-3.6c0-1.7-0.3-3-0.9-4
				c-0.6-1-1.4-1.4-2.5-1.4c-0.7,0-1.4,0.2-2,0.7c-0.6,0.4-1.1,1.1-1.4,1.9c-0.3,0.8-0.5,1.7-0.5,2.8c0,1.5,0.4,2.7,1.1,3.6
				c0.7,0.9,1.6,1.3,2.9,1.3C187.8,76,188.6,75.6,189.2,74.7z"/>
		</g>
	</g>
	<g>
		<g>
			<path fill="#009EE2" d="M124.2,24.8l2.5-6.9c0.2-0.2,0.4-0.3,0.6-0.3l0,0c0.4,0,0.6,0.2,0.7,0.7l-3.2,8.4
				c-0.1,0.4-0.3,0.6-0.7,0.6l0,0c-0.4,0-0.7-0.4-0.9-1.1c-2-5.2-3-7.9-3-8v-0.1c0-0.4,0.2-0.6,0.7-0.7c0.4,0,0.7,0.4,0.9,1.2
				L124.2,24.8z"/>
			<path fill="#009EE2" d="M131.3,17.7c0.4,0,0.7,0.4,0.9,1.1c2,5.1,3,7.8,3,7.9v0.1c0,0.4-0.2,0.6-0.6,0.6h-0.1
				c-0.4,0-0.7-0.3-0.8-1l-1.1-2.7H130l-1.3,3.5c-0.2,0.1-0.4,0.2-0.5,0.2h-0.1c-0.4-0.1-0.6-0.3-0.6-0.7v-0.1l0.9-2.3
				c1.5-3.8,2.2-5.9,2.4-6.3C130.8,17.8,131.1,17.7,131.3,17.7z M132.1,22.3l-0.8-2l-0.7,2H132.1z"/>
			<path fill="#009EE2" d="M140.7,17.6c1,0,2,0.3,2.9,0.9c0.1,0.2,0.1,0.3,0.1,0.4v0.1c0,0.4-0.2,0.6-0.7,0.7h-0.1l-0.9-0.4
				c-0.6-0.2-1-0.2-1.4-0.2c-1.1,0-2,0.5-2.9,1.6c-0.4,0.7-0.6,1.4-0.6,2c0,1.3,0.6,2.4,1.8,3.1c0.6,0.2,1.1,0.4,1.6,0.4h0.1
				c0.7,0,1.4-0.2,2.1-0.7h0.2c0.4,0.1,0.6,0.3,0.6,0.6v0.1c0,0.4-0.6,0.9-1.8,1.2c-0.4,0.1-0.7,0.2-1.1,0.2h-0.1
				c-1.6,0-3-0.7-4-2.2c-0.5-0.9-0.7-1.7-0.7-2.7c0-1.7,0.7-3.1,2.3-4.2C139,17.9,139.8,17.6,140.7,17.6z"/>
			<path fill="#009EE2" d="M148.8,17.7c0.4,0,0.7,0.4,0.9,1.1c2,5.1,3,7.8,3,7.9v0.1c0,0.4-0.2,0.6-0.6,0.6H152
				c-0.4,0-0.7-0.3-0.8-1l-1.1-2.7h-2.5l-1.3,3.5c-0.2,0.1-0.4,0.2-0.5,0.2h-0.1c-0.4-0.1-0.6-0.3-0.6-0.7v-0.1l0.9-2.3
				c1.5-3.8,2.2-5.9,2.4-6.3C148.4,17.8,148.6,17.7,148.8,17.7z M149.6,22.3l-0.8-2l-0.7,2H149.6z"/>
			<path fill="#009EE2" d="M158.3,17.6c1,0,2,0.3,2.9,0.9c0.1,0.2,0.1,0.3,0.1,0.4v0.1c0,0.4-0.2,0.6-0.7,0.7h-0.1l-0.9-0.4
				c-0.6-0.2-1-0.2-1.4-0.2c-1.1,0-2,0.5-2.9,1.6c-0.4,0.7-0.6,1.4-0.6,2c0,1.3,0.6,2.4,1.8,3.1c0.6,0.2,1.1,0.4,1.6,0.4h0.1
				c0.7,0,1.4-0.2,2.1-0.7h0.2c0.4,0.1,0.6,0.3,0.6,0.6v0.1c0,0.4-0.6,0.9-1.8,1.2c-0.4,0.1-0.7,0.2-1.1,0.2h-0.1
				c-1.6,0-3-0.7-4-2.2c-0.5-0.9-0.7-1.7-0.7-2.7c0-1.7,0.7-3.1,2.3-4.2C156.6,17.9,157.4,17.6,158.3,17.6z"/>
			<path fill="#009EE2" d="M163.6,17.6h0.1h0.9h0.1c0.4,0.1,0.7,0.3,0.7,0.7c-0.1,0.4-0.3,0.7-0.7,0.7h0.2v7.1h-0.1
				c0.3,0,0.6,0.2,0.6,0.7v0.1c-0.1,0.4-0.3,0.6-0.7,0.6h-1.2c-0.4-0.1-0.6-0.3-0.6-0.7v-0.1c0.1-0.4,0.3-0.7,0.6-0.7h-0.1v-7.1h0.1
				c-0.4,0-0.6-0.2-0.7-0.7v-0.1C163,17.9,163.2,17.7,163.6,17.6z"/>
			<path fill="#009EE2" d="M171.7,17.6c1.7,0,3,0.7,4.2,2.3c0.5,0.9,0.7,1.7,0.7,2.6c0,1.6-0.7,3-2.2,4c-0.8,0.6-1.7,0.8-2.6,0.8
				h-0.1c-1.7,0-3-0.8-4.1-2.4c-0.5-0.8-0.7-1.7-0.7-2.5c0-1.6,0.7-2.9,2-3.9C169.7,17.9,170.7,17.6,171.7,17.6z M168.2,22.6
				c0,1.1,0.5,2.1,1.5,2.9c0.6,0.4,1.3,0.6,2,0.6h0.1c1.1,0,2-0.5,2.8-1.5c0.4-0.6,0.7-1.3,0.7-2c0-1.3-0.6-2.3-1.7-3
				c-0.6-0.3-1.2-0.5-1.8-0.5c-1.2,0-2.1,0.5-2.9,1.6C168.3,21.1,168.2,21.8,168.2,22.6z"/>
			<path fill="#009EE2" d="M184,24.8v-6.4c0.1-0.4,0.3-0.6,0.6-0.6h0.1c0.4,0,0.6,0.2,0.6,0.6v8.4c0,0.4-0.2,0.6-0.7,0.7
				c-0.2,0-0.6-0.3-1.1-0.9l-4.8-6.1v6.4c0,0.4-0.2,0.6-0.7,0.6h-0.1c-0.4,0-0.6-0.2-0.7-0.7v-8.3c0.1-0.5,0.2-0.7,0.6-0.7h0.1
				c0.3,0,0.5,0.2,0.7,0.6C179.1,18.5,180.8,20.7,184,24.8z"/>
			<path fill="#009EE2" d="M187,17.6l0.3,0.1h4.8h0.1c0.4,0,0.7,0.2,0.7,0.7c-0.1,0.4-0.3,0.6-0.7,0.6h-4.3v3h2.8h0.4
				c0.3,0,0.6,0.2,0.6,0.7c0,0.3-0.2,0.6-0.6,0.7h-0.6h-2.7v2.8h4.5c0.4,0,0.6,0.2,0.6,0.7c-0.1,0.4-0.4,0.6-0.6,0.6h-5.1
				c-0.4-0.1-0.6-0.3-0.6-0.7v-8.4c0.1-0.4,0.2-0.7,0.5-0.7L187,17.6L187,17.6z"/>
			<path fill="#009EE2" d="M196.9,17.6c0.9,0,1.6,0.4,2.2,1.2l0.1,0.2v0.2c0,0.3-0.2,0.5-0.7,0.6c-0.2,0-0.5-0.2-0.8-0.6
				c-0.2-0.1-0.5-0.2-0.7-0.2h-0.1c-0.5,0-0.8,0.2-1.1,0.7c-0.1,0.1-0.1,0.2-0.1,0.3v0.2c0,0.6,0.3,0.9,1,1.2c0.6,0,1.2,0.2,1.9,0.8
				c0.7,0.7,1,1.4,1,2.2c0,1-0.4,1.8-1.2,2.4c-0.5,0.4-1.1,0.6-1.7,0.6c-1,0-1.9-0.4-2.5-1.3l-0.1-0.3c0.1-0.4,0.3-0.7,0.7-0.7
				c0.2,0,0.5,0.2,0.8,0.6c0.4,0.2,0.7,0.4,1,0.4h0.2c0.6,0,1.1-0.3,1.4-1c0.1-0.2,0.1-0.4,0.1-0.5v-0.2c0-0.6-0.3-1.1-1-1.4
				l-1.3-0.4c-1.1-0.6-1.6-1.4-1.6-2.3V20c0-0.9,0.5-1.7,1.5-2.2C196.2,17.7,196.6,17.6,196.9,17.6z"/>
		</g>
	</g>
</g>
<g>
	<g>
		<g>
			<g>
				<g>
					<path fill="#FFE817" d="M92,50.6C92,61.3,83.4,70,72.7,70s-19.3-8.7-19.3-19.3S62,31.3,72.7,31.3S92,39.9,92,50.6L92,50.6z"/>
				</g>
			</g>
			<g>
				<rect x="71.8" y="23" fill="#FFE817" width="1.9" height="5.5"/>
			</g>
			<g>
				<rect x="71.8" y="72.7" fill="#FFE817" width="1.9" height="5.5"/>
			</g>
			<g>
				<g>
					<path fill="#FFE817" d="M52.5,31.7l1.3-1.3l3.9,3.9l-1.3,1.3L52.5,31.7z"/>
				</g>
			</g>
			<g>
				<g>
					<path fill="#FFE817" d="M87.6,66.9l1.3-1.3l3.9,3.9l-1.3,1.3L87.6,66.9z"/>
				</g>
			</g>
			<g>
				<rect x="45" y="49.7" fill="#FFE817" width="5.5" height="1.9"/>
			</g>
			<g>
				<rect x="94.8" y="49.7" fill="#FFE817" width="5.5" height="1.9"/>
			</g>
			<g>
				<g>
					<path fill="#FFE817" d="M52.5,69.5l3.9-3.9l1.3,1.3l-3.9,3.9L52.5,69.5z"/>
				</g>
			</g>
			<g>
				<g>
					<path fill="#FFE817" d="M87.6,34.3l3.9-3.9l1.3,1.3l-3.9,3.9L87.6,34.3z"/>
				</g>
			</g>
		</g>
	</g>
	<path fill="#FF5920" d="M72.7,59.8c-1.6,0-3-0.5-4.2-1.4l1.1-1.5c1.9,1.4,4.4,1.4,6.3,0l1.1,1.5C75.7,59.3,74.2,59.8,72.7,59.8
		L72.7,59.8z"/>
	<path fill="#FF5920" d="M91.7,46.9c-0.1-0.6-0.2-1.2-0.4-1.9h-6c-0.7-0.6-1.6-0.9-2.4-0.9H62.5c-0.9,0-1.7,0.3-2.4,0.9h-6
		c-0.2,0.6-0.3,1.2-0.4,1.9h5.3c-0.1,0.3-0.1,0.6-0.1,0.9v1.9c0,3,2.5,5.5,5.5,5.5h0.9c3,0,5.5-2.5,5.5-5.5h3.7c0,3,2.5,5.5,5.5,5.5
		h1c3,0,5.5-2.5,5.5-5.5v-1.9c0-0.3-0.1-0.6-0.1-0.9H91.7z M70.8,47.8V46h3.7v1.9H70.8z"/>
</g>
</svg>
