<?xml version="1.0" encoding="utf-8"?>
<!-- Generator: Adobe Illustrator 24.1.1, SVG Export Plug-In . SVG Version: 6.00 Build 0)  -->
<svg version="1.1" id="Capa_1" xmlns="http://www.w3.org/2000/svg" xmlns:xlink="http://www.w3.org/1999/xlink" x="0px" y="0px"
	 viewBox="0 0 60 60" style="enable-background:new 0 0 60 60;" xml:space="preserve">
<style type="text/css">
	.st0{fill:#FF5023;}
</style>
<path class="st0" d="M38,4.6l-1.4,1.9l-9.8,13.4c-2.7-0.5-5.3-0.3-7.9,0.4c-2.7,0.8-5,2.2-7,4.2l-1.4,1.4l10.6,10.6L5,52.6v2.8h2.8
	L24,39.2l10.6,10.6l1.4-1.4c2-2,3.4-4.3,4.2-7c0.8-2.5,0.9-5.2,0.4-7.9l15.3-11.2L38,4.6z M38.5,10.7l11.2,11.2l-13.6,9.9l0.4,1.3
	c0.5,1.8,0.5,3.6,0.1,5.5c-0.5,1.8-1.3,3.5-2.4,5.2L16.6,26.2c1.7-1.2,3.4-2,5.2-2.4c1.9-0.4,3.7-0.4,5.5,0.1l1.3,0.4l0.8-1.1
	L38.5,10.7z"/>
</svg>
