<svg width="99" height="51" viewBox="0 0 99 51" fill="none" xmlns="http://www.w3.org/2000/svg">
<g clip-path="url(#clip0_2534_269)">
<path d="M45.0135 8.81089C46.7448 8.81089 48.1051 7.44593 48.1051 5.7087C48.1051 3.97147 46.7448 2.48242 45.0135 2.48242C43.2822 2.48242 41.9219 3.84739 41.9219 5.58461C41.9219 7.44593 43.2822 8.81089 45.0135 8.81089Z" fill="#FF5023"/>
<path d="M57.3797 27.0511C56.8851 27.0511 56.5141 26.6788 56.5141 26.1825V0H51.4438V27.4234C51.4438 29.6569 53.1751 31.3942 55.4011 31.3942H59.2347V27.0511H57.3797Z" fill="#FF5023"/>
<path d="M0.494629 1.86133V8.56206H4.82286V6.82483H11.2534V27.0511H9.39842V31.3942H18.5495V27.0511H16.6946V6.82483H23.1251V8.56206H27.4533V1.86133H0.494629Z" fill="#FF5023"/>
<path d="M47.6104 27.0518V11.7891H36.728V16.1321H42.5402V27.0518H36.728V31.3949H49.5891V27.0518H47.6104Z" fill="#FF5023"/>
<path d="M23.1251 11.7891V27.0518H21.1465V31.3949H34.2548V27.0518H28.1953V16.1321H34.2548V11.7891L26.2167 11.9132L23.1251 11.7891Z" fill="#FF5023"/>
<path d="M84.2147 19.6067C84.2147 18.9863 84.4621 18.3658 84.7094 17.8695C84.9567 17.3731 85.4514 16.8768 85.8224 16.6286C86.1934 16.3804 86.8117 16.0082 87.43 15.8841C88.0483 15.76 88.6666 15.6359 89.285 15.6359C90.6453 15.6359 91.7582 16.0082 92.3766 16.7527C93.1185 17.4972 93.3659 18.4899 93.3659 19.7308H84.2147V19.6067ZM97.1994 15.76C96.7048 14.7673 95.9628 13.8987 95.0971 13.2782C94.2315 12.6578 93.3659 12.2855 92.2529 11.9133C91.2636 11.6651 90.2743 11.541 89.285 11.541C87.801 11.541 86.5644 11.7892 85.3277 12.1615C84.0911 12.5337 82.9781 13.1542 82.1125 14.0228C81.2468 14.8914 80.5048 15.8841 79.8865 17.125C79.3919 18.3658 79.1445 19.8549 79.1445 21.468C79.1445 22.0885 79.1445 22.5848 79.2682 23.0812C79.3919 23.9498 79.6392 24.8184 79.8865 25.687C80.0102 26.0593 80.9995 28.4169 83.4728 29.906C85.2041 30.8987 87.5537 31.2709 90.7689 31.2709C93.9842 31.2709 95.5918 31.1469 95.5918 31.1469V27.052C95.5918 27.052 93.3659 27.052 90.5216 27.052C86.4407 27.052 85.0804 24.5702 84.8331 23.8257C84.7094 23.5775 84.7094 23.4534 84.5857 23.2052H97.9414C98.3124 21.3439 98.1887 17.6213 97.1994 15.76Z" fill="#FF5023"/>
<path d="M77.29 19.7299V13.4014V13.2773C77.29 13.0292 77.1663 12.9051 77.0426 12.781C76.4243 12.5328 75.5587 12.2846 74.4457 11.9124C73.2091 11.5401 71.8488 11.416 70.4885 11.416C69.0045 11.416 67.5205 11.6642 66.2839 12.0365C65.0473 12.5328 63.9343 13.1532 62.945 14.0219C61.9557 14.8905 61.2137 15.8832 60.719 17.124C60.2244 18.3649 59.9771 19.7299 59.9771 21.343C59.9771 22.8321 60.2244 24.197 60.719 25.4379C61.2137 26.6788 61.7083 27.5474 62.574 28.416C63.9343 29.9051 66.6549 30.8978 69.7465 31.0219H75.9297V26.6788H71.1068C69.1282 26.6788 67.1496 25.6861 66.5312 25.1897C66.0366 24.6934 65.6656 24.073 65.4183 23.4525C65.1709 22.708 65.0473 21.9635 65.0473 21.2189C65.0473 20.2262 65.1709 19.3576 65.5419 18.7372C65.9129 17.9927 66.2839 17.4963 66.9022 17C67.3969 16.5036 68.0152 16.1313 68.7572 16.0073C69.4992 15.7591 70.1175 15.635 70.8595 15.635C71.6014 15.635 72.4671 15.7591 73.2091 15.8832V19.3576H77.29V19.7299Z" fill="#FF5023"/>
<path d="M16.0763 48.6416C16.0763 49.8825 15.3343 50.9993 12.7374 50.9993C10.1404 50.9993 9.39844 49.8825 9.39844 48.6416V43.4299C9.39844 42.1891 10.1404 41.0723 12.7374 41.0723C15.3343 41.0723 16.0763 42.1891 16.0763 43.4299V44.1745C16.0763 44.4226 15.9526 44.5467 15.7053 44.5467H14.4687C14.2213 44.5467 14.0977 44.4226 14.0977 44.1745V43.8022C14.0977 43.0577 13.603 42.6854 12.6137 42.6854C11.6244 42.6854 11.1297 43.0577 11.1297 43.8022V48.3934C11.1297 49.138 11.6244 49.5102 12.6137 49.5102C13.603 49.5102 14.0977 49.138 14.0977 48.3934V47.8971C14.0977 47.6489 14.2213 47.5248 14.4687 47.5248H15.7053C15.9526 47.5248 16.0763 47.6489 16.0763 47.8971V48.6416Z" fill="#FF5023"/>
<path d="M23.2489 43.6781C23.2489 42.9336 22.6306 42.5613 21.765 42.5613C20.7757 42.5613 20.281 42.9336 20.281 43.6781V48.3934C20.281 49.138 20.8993 49.5102 21.765 49.5102C22.7543 49.5102 23.2489 49.138 23.2489 48.3934V43.6781ZM18.1787 43.4299C18.1787 42.1891 19.0444 41.0723 21.6413 41.0723C24.2382 41.0723 25.1039 42.1891 25.1039 43.4299V48.7657C25.1039 50.0066 24.2382 51.1234 21.6413 51.1234C19.0444 51.1234 18.1787 50.0066 18.1787 48.7657V43.4299Z" fill="#FF5023"/>
<path d="M29.6792 49.262H32.8944C33.1418 49.262 33.2654 49.3861 33.2654 49.6343V50.5029C33.2654 50.7511 33.1418 50.8752 32.8944 50.8752H28.0715C27.8242 50.8752 27.8242 50.7511 27.8242 50.5029V41.4445C27.8242 41.1964 27.9479 41.0723 28.1952 41.0723H29.4318C29.6792 41.0723 29.8028 41.1964 29.8028 41.4445V49.262H29.6792Z" fill="#FF5023"/>
<path d="M35.6151 50.8752C35.3678 50.8752 35.2441 50.7511 35.2441 50.5029V41.4445C35.2441 41.1964 35.3678 41.0723 35.6151 41.0723H40.5617C40.809 41.0723 40.9327 41.1964 40.9327 41.4445V42.3131C40.9327 42.5613 40.809 42.6854 40.5617 42.6854H37.2228V45.0431H40.3144C40.5617 45.0431 40.6853 45.1672 40.6853 45.4153V46.2839C40.6853 46.5321 40.5617 46.6562 40.3144 46.6562H37.2228V49.3861H40.6853C40.9327 49.3861 41.0563 49.5102 41.0563 49.7584V50.627C41.0563 50.8752 40.9327 50.9993 40.6853 50.9993H35.6151V50.8752Z" fill="#FF5023"/>
<path d="M49.5891 45.7876C49.8364 45.7876 49.9601 45.9117 49.9601 46.1599V48.7657C49.9601 50.0066 49.2181 51.1234 46.6211 51.1234C44.0242 51.1234 43.2822 50.0066 43.2822 48.7657V43.4299C43.2822 42.1891 44.0242 41.0723 46.6211 41.0723C49.2181 41.0723 49.9601 42.1891 49.9601 43.4299V44.0504C49.9601 44.2985 49.8364 44.4226 49.5891 44.4226H48.3524C48.1051 44.4226 47.9815 44.2985 47.9815 44.0504V43.8022C47.9815 43.0577 47.4868 42.6854 46.4975 42.6854C45.5082 42.6854 45.0135 43.0577 45.0135 43.8022V48.3934C45.0135 49.138 45.5082 49.5102 46.4975 49.5102C47.4868 49.5102 47.9815 49.138 47.9815 48.3934V47.4007H46.6211C46.3738 47.4007 46.2502 47.2767 46.2502 47.0285V46.1599C46.2502 45.9117 46.3738 45.7876 46.6211 45.7876H49.5891Z" fill="#FF5023"/>
<path d="M54.2882 50.5029C54.2882 50.7511 54.1645 50.8752 53.9172 50.8752H52.6806C52.4332 50.8752 52.3096 50.7511 52.3096 50.5029V41.4445C52.3096 41.1964 52.4332 41.0723 52.6806 41.0723H53.9172C54.1645 41.0723 54.2882 41.1964 54.2882 41.4445V50.5029Z" fill="#FF5023"/>
<path d="M61.8318 43.6781C61.8318 42.9336 61.2135 42.5613 60.3478 42.5613C59.3585 42.5613 58.8639 42.9336 58.8639 43.6781V48.3934C58.8639 49.138 59.4822 49.5102 60.3478 49.5102C61.3372 49.5102 61.8318 49.138 61.8318 48.3934V43.6781ZM56.8853 43.4299C56.8853 42.1891 57.7509 41.0723 60.3478 41.0723C62.9448 41.0723 63.8104 42.1891 63.8104 43.4299V48.7657C63.8104 50.0066 62.9448 51.1234 60.3478 51.1234C57.7509 51.1234 56.8853 50.0066 56.8853 48.7657V43.4299Z" fill="#FF5023"/>
</g>
<defs>
<clipPath id="clip0_2534_269">
<rect width="97.6943" height="51" fill="white" transform="translate(0.494629)"/>
</clipPath>
</defs>
</svg>
