<?xml version="1.0" encoding="utf-8"?>
<!-- Generator: Adobe Illustrator 24.0.2, SVG Export Plug-In . SVG Version: 6.00 Build 0)  -->
<svg version="1.1" id="Capa_1" xmlns="http://www.w3.org/2000/svg" xmlns:xlink="http://www.w3.org/1999/xlink" x="0px" y="0px"
	 viewBox="0 0 547.3 499.9" style="enable-background:new 0 0 547.3 499.9;" xml:space="preserve">
<style type="text/css">
	.st0{fill:#03BDAA;}
	.st1{fill:#FFFFFF;}
	.st2{fill:#372B84;}
	.st3{fill:#534995;}
	.st4{fill:#AC2D85;}
	.st5{fill:#FFECC0;}
	.st6{fill:#B94995;}
	.st7{fill:#6960A3;}
	.st8{fill:#7E77B0;}
	.st9{fill:#42CEBF;}
	.st10{fill:#CB77B0;}
	.st11{fill:#C162A4;}
	.st12{fill:#9B95C2;}
	.st13{fill:#A9A4CA;}
	.st14{fill:#B4B0D1;}
	.st15{fill:#BFBBD8;}
	.st16{fill:#FF950C;}
	.st17{fill:#FFB80B;}
	.st18{fill:#D085B8;}
	.st19{fill:#FFA025;}
	.st20{fill:#FFBF24;}
	.st21{fill:#FFB657;}
	.st22{fill:#DBA1C8;}
	.st23{fill:#B6701B;}
	.st24{fill:#008CA8;}
	.st25{fill:#006B8E;}
	.st26{fill:#009EB5;}
	.st27{clip-path:url(#SVGID_2_);fill:#534995;}
	.st28{fill:#42AABF;}
	.st29{fill:#42B7C8;}
	.st30{fill:#8078B0;}
	.st31{fill:#FFB589;}
	.st32{fill:#FF9C61;}
	.st33{fill:#3F3228;}
	.st34{fill:#1E1E1C;}
	.st35{fill:#004961;}
	.st36{fill:#C25EA1;}
	.st37{fill:#004C6B;}
	.st38{fill:#315F65;}
	.st39{fill:#F7592C;}
	.st40{fill:#26555B;}
	.st41{fill:#D64C2B;}
	.st42{fill:#CFCFCF;}
	.st43{fill:#B0B0B0;}
	.st44{fill:#F3E2CD;}
	.st45{fill:#988676;}
	.st46{fill:#1C5C67;}
	.st47{fill:#B26808;}
	.st48{fill:#AA9E8F;}
	.st49{fill:#6A5E52;}
	.st50{fill:#144048;}
	.st51{fill:#463634;}
	.st52{fill:#B2B2B2;}
	.st53{fill:#312624;}
	.st54{fill:#AFABEE;}
	.st55{fill:#9A94E9;}
	.st56{fill:#79362B;}
	.st57{fill:#422B7F;}
	.st58{clip-path:url(#SVGID_4_);fill:#301E68;}
	.st59{fill:#E1D7FF;}
	.st60{fill:#1B0D4A;}
</style>
<g>
	<path class="st0" d="M419.1,475.6c0,9.5-74.6,17.1-166.6,17.1s-166.6-7.7-166.6-17.1c0-9.5,74.6-17.1,166.6-17.1
		S419.1,466.2,419.1,475.6"/>
	<path class="st1" d="M126.5,266.7l-0.5,3.2c0.3,0.3,0.5,0.8,0.3,1.3c-0.1,0.4-0.4,0.7-0.7,0.8l-0.7,4.3l1.7,0.3
		c0.3,0.1,0.6,0.1,0.9,0.1c2.3,0,4.3-1.6,4.8-4c0.5-2.6-1.2-5.2-3.9-5.7L126.5,266.7 M100.9,261.9c-2.3,0-4.3,1.6-4.8,4
		c-0.5,2.6,1.2,5.2,3.9,5.7l1.7,0.3v0l0.1,0l2-9.5l-1.9-0.4C101.5,261.9,101.2,261.9,100.9,261.9"/>
	<path class="st1" d="M103.3,372.7l1.6,6.7l1.9,0.4c2.1-0.8,4.2-1.5,6.4-2l0-3.2L103.3,372.7 M134.3,359.8l0,17.4
		c1.2-0.6,2.4-1.1,3.6-1.7c0-0.7-0.1-1.4-0.2-2.1L134.3,359.8 M118.9,275.1l-4.3,24.3c-0.4,2.4-0.3,4.7,0.2,7.1l5.1,20.8h0l0,0
		l2.3,9.6c0.3,0,0.7,0,1,0c0.1,0,0.2,0,0.3,0c0.1,0,0.1,0,0.2,0l0,0c0.2,0,0.4,0,0.7,0c1.3,0,2.7,0,3.9,0c0.1,0,0.3,0,0.4,0
		l-7.8-32.2c-0.3-1.3-0.4-2.6-0.1-4l4.1-24.5l-2.7-0.5L118.9,275.1 M101.6,271.9L98,289.2c0.4,1.2,0.8,2.5,1.2,3.7
		c0.2,0.5-0.1,1.1-0.6,1.3c-0.1,0-0.2,0.1-0.3,0.1c-0.4,0-0.8-0.3-0.9-0.7c0-0.1-0.1-0.3-0.1-0.4l-0.6,3c-0.3,1.3-0.8,2.5-1.6,3.6
		l-40.8,57.9c-2.3,3.3-1.9,7.4,0.4,10.2l10.2-2.5l-1.9-0.4c-2.4-0.5-3.6-3.2-2.3-5.3c0,0,0.1-0.1,0.1-0.1L76.5,337l11.1-15.8
		l12.3-17.5c0.2-0.3,0.5-0.7,0.7-1c-0.2-0.5-0.4-1-0.6-1.5c-0.2-0.5,0.1-1.1,0.6-1.3c0.1,0,0.2-0.1,0.4-0.1c0.3,0,0.7,0.2,0.9,0.5
		c0.4-1,0.7-2,0.9-3.1l4.9-24.2L101.6,271.9L101.6,271.9"/>
	<polyline class="st1" points="101.6,271.9 101.6,271.9 101.7,271.9 101.7,271.9 101.6,271.9 	"/>
	<polyline class="st1" points="113.2,264.1 120.6,265.6 120.6,265.6 113.2,264.1 	"/>
	<path class="st1" d="M76.5,337l-15.9,22.6c0,0-0.1,0.1-0.1,0.1c0,0,0.1-0.1,0.1-0.1L76.5,337 M119.9,327.3l2.3,9.6c0,0,0,0,0,0
		L119.9,327.3 M107.3,316.4c-0.4,0-0.7-0.2-0.9-0.6c-0.1-0.3-0.3-0.6-0.4-0.9c-0.4-0.9-0.9-1.8-1.3-2.7c-0.2-0.5,0-1.1,0.5-1.3
		c0.1-0.1,0.3-0.1,0.4-0.1c0.4,0,0.7,0.2,0.9,0.6c0.4,0.9,0.8,1.8,1.3,2.7c0.1,0.3,0.3,0.6,0.4,0.9c0.2,0.5,0,1.1-0.5,1.3
		C107.5,316.4,107.4,316.4,107.3,316.4 M107.6,273l-4.9,24.2c-0.2,1.1-0.5,2.1-0.9,3.1c0,0,0.1,0.1,0.1,0.2c0.5,1.2,1,2.5,1.5,3.7
		c0.2,0.5,0,1.1-0.6,1.3c-0.1,0-0.3,0.1-0.4,0.1c-0.4,0-0.8-0.2-0.9-0.6c-0.3-0.7-0.6-1.5-0.9-2.2c-0.2,0.4-0.4,0.7-0.7,1
		l-12.3,17.5l23.7,4.5c-0.5-0.9-1-1.8-1.4-2.7c-0.3-0.5-0.1-1.1,0.4-1.4c0.1-0.1,0.3-0.1,0.5-0.1c0.4,0,0.7,0.2,0.9,0.5
		c0.6,1.2,1.2,2.3,1.9,3.5v0c0.1,0.2,0.1,0.4,0.1,0.5l6.2,1.2l-5.1-20.8c-0.6-2.3-0.6-4.7-0.2-7.1l4.3-24.3L107.6,273"/>
	<path class="st2" d="M119.9,327.3l-32.3-6.1l-27,38.4c-1.5,2.1-0.3,5,2.2,5.4l64.1,12.2c2.5,0.5,4.6-1.8,4-4.3L119.9,327.3"/>
	<path class="st3" d="M103.8,342.6c-1,3.5-4.6,5.5-8,4.5c-3.5-1-5.5-4.6-4.5-8c1-3.5,4.6-5.5,8-4.5
		C102.7,335.6,104.7,339.2,103.8,342.6"/>
	<path class="st3" d="M112.2,354.5c-0.5,1.9-2.4,2.9-4.3,2.4c-1.9-0.5-2.9-2.4-2.4-4.3c0.5-1.9,2.4-2.9,4.3-2.4
		C111.7,350.7,112.8,352.6,112.2,354.5"/>
	<path class="st3" d="M101.1,356.7c-0.4,1.3-1.7,2.1-3.1,1.7c-1.3-0.4-2.1-1.7-1.7-3.1c0.4-1.3,1.7-2.1,3.1-1.7
		C100.7,354,101.4,355.3,101.1,356.7z"/>
	<path class="st3" d="M85.8,358.7c-0.5,1.9-2.5,3-4.4,2.5c-1.9-0.5-3-2.5-2.5-4.4c0.5-1.9,2.5-3,4.4-2.5
		C85.2,354.9,86.3,356.8,85.8,358.7z"/>
	<path class="st3" d="M112,364.7c-0.2,0.7-0.9,1.1-1.5,0.9c-0.7-0.2-1.1-0.9-0.9-1.5c0.2-0.7,0.9-1.1,1.5-0.9S112.2,364,112,364.7z"
		/>
	<path class="st1" d="M121.3,275.6l0.8,0.2l2.7,0.5L121.3,275.6 M120.6,265.6L120.6,265.6l5.8,1.1l0,0L120.6,265.6 M103.7,262.3
		L103.7,262.3l5.8,1.1l0,0l3.6,0.7L103.7,262.3"/>
	<path class="st1" d="M120.6,265.6l-0.5,2.6c0.1,0,0.1,0,0.2,0c1.1,0.3,1.8,1.5,1.5,2.6c-0.3,0.9-1.1,1.5-2,1.5c-0.1,0-0.2,0-0.4,0
		l-0.5,2.9l2.4,0.5l3.5,0.7l0.7-4.3c-0.2,0.1-0.4,0.1-0.6,0.1c-0.1,0-0.2,0-0.3,0c-0.7-0.2-1.1-0.9-0.9-1.6c0.2-0.6,0.7-1,1.3-1
		c0.1,0,0.2,0,0.3,0c0.2,0.1,0.4,0.2,0.6,0.3l0.5-3.2L120.6,265.6 M103.7,262.3l-2,9.5l5.9,1.1l1.9-9.5L103.7,262.3"/>
	<path class="st1" d="M118.9,275.1L118.9,275.1l3.2,0.6l-0.8-0.2L118.9,275.1 M101.7,271.9L101.7,271.9l5.9,1.1l0,0L101.7,271.9"/>
	<path class="st1" d="M118.9,275.1L118.9,275.1l2.4,0.5L118.9,275.1 M101.7,271.9L101.7,271.9l5.9,1.1l0,0L101.7,271.9"/>
	<polyline class="st1" points="109.5,263.5 109.5,263.5 120.6,265.6 120.6,265.6 113.2,264.1 109.5,263.5 	"/>
	<path class="st1" d="M109.5,263.5l-1.9,9.5l5.6,1.1l5.7,1.1l0.5-2.9c-0.1,0-0.1,0-0.2,0c-1.1-0.3-1.8-1.5-1.5-2.6
		c0.3-0.9,1.1-1.5,2-1.5c0.1,0,0.2,0,0.4,0l0.5-2.6L109.5,263.5"/>
	<polyline class="st1" points="107.6,273 107.6,273 118.9,275.1 118.9,275.1 107.6,273 	"/>
	<polyline class="st1" points="107.6,273 107.6,273 118.9,275.1 113.3,274.1 107.6,273 	"/>
	<path class="st1" d="M120.2,268.1l-0.7,4.1c0.1,0,0.2,0,0.4,0c0.9,0,1.8-0.6,2-1.5c0.3-1.1-0.3-2.3-1.5-2.6
		C120.3,268.2,120.2,268.1,120.2,268.1"/>
	<path class="st1" d="M119.8,268.1c-0.9,0-1.8,0.6-2,1.5c-0.3,1.1,0.3,2.3,1.5,2.6c0.1,0,0.1,0,0.2,0l0.7-4.1
		C120.1,268.1,119.9,268.1,119.8,268.1"/>
	<path class="st1" d="M125.9,269.9l-0.4,2.1c0.3-0.2,0.6-0.4,0.7-0.8C126.4,270.7,126.3,270.2,125.9,269.9"/>
	<path class="st1" d="M125,269.5c-0.6,0-1.1,0.4-1.3,1c-0.2,0.7,0.2,1.4,0.9,1.6c0.1,0,0.2,0,0.3,0c0.2,0,0.4,0,0.6-0.1l0.4-2.1
		c-0.2-0.2-0.3-0.3-0.6-0.3C125.2,269.5,125.1,269.5,125,269.5"/>
	<path class="st2" d="M335.7,38.2c0.6,0.2,1.3,0.3,1.9,0.5c0.5,0.1,1.1-0.2,1.2-0.7c0.1-0.5-0.2-1.1-0.7-1.2
		c-0.6-0.2-1.3-0.3-1.9-0.5c-0.5-0.1-1.1,0.2-1.2,0.7C334.8,37.5,335.1,38.1,335.7,38.2L335.7,38.2z"/>
	<path class="st2" d="M189.8,57.4c1.1-0.6,2.3-1.3,3.5-1.9c0.5-0.3,0.7-0.9,0.4-1.4c-0.3-0.5-0.9-0.7-1.4-0.4
		c-1.2,0.6-2.3,1.3-3.5,1.9c-0.5,0.3-0.7,0.9-0.4,1.4C188.7,57.5,189.3,57.7,189.8,57.4L189.8,57.4 M179.6,63.6
		c1.1-0.7,2.2-1.4,3.4-2.1c0.5-0.3,0.6-0.9,0.3-1.4c-0.3-0.5-0.9-0.6-1.4-0.3c-1.1,0.7-2.3,1.4-3.4,2.1c-0.5,0.3-0.6,0.9-0.3,1.4
		C178.5,63.7,179.1,63.9,179.6,63.6 M169.8,70.3c1.1-0.8,2.1-1.5,3.2-2.3c0.5-0.3,0.6-0.9,0.2-1.4c-0.3-0.5-0.9-0.6-1.4-0.2
		c-1.1,0.8-2.2,1.5-3.3,2.3c-0.4,0.3-0.5,1-0.2,1.4C168.7,70.5,169.4,70.6,169.8,70.3L169.8,70.3 M160.4,77.6c1-0.8,2-1.7,3.1-2.5
		c0.4-0.3,0.5-1,0.2-1.4c-0.3-0.4-1-0.5-1.4-0.2c-1,0.8-2.1,1.7-3.1,2.5c-0.4,0.4-0.5,1-0.1,1.4C159.4,77.9,160,77.9,160.4,77.6
		 M151.5,85.4c1-0.9,1.9-1.8,2.9-2.7c0.4-0.4,0.4-1,0.1-1.4c-0.4-0.4-1-0.4-1.4-0.1c-1,0.9-2,1.8-2.9,2.7c-0.4,0.4-0.4,1,0,1.4
		C150.5,85.8,151.1,85.8,151.5,85.4 M143.1,93.8c0.9-1,1.8-1.9,2.7-2.8c0.4-0.4,0.4-1,0-1.4c-0.4-0.4-1-0.4-1.4,0
		c-0.9,0.9-1.9,1.9-2.8,2.9c-0.4,0.4-0.4,1,0,1.4C142.1,94.2,142.7,94.2,143.1,93.8L143.1,93.8 M135.2,102.7c0.8-1,1.7-2,2.6-3
		c0.4-0.4,0.3-1-0.1-1.4c-0.4-0.4-1-0.3-1.4,0.1c-0.9,1-1.7,2-2.6,3c-0.4,0.4-0.3,1.1,0.1,1.4C134.2,103.2,134.8,103.1,135.2,102.7
		 M127.8,112c0.8-1.1,1.6-2.1,2.4-3.2c0.3-0.4,0.3-1.1-0.2-1.4c-0.4-0.3-1.1-0.3-1.4,0.2c-0.8,1.1-1.6,2.1-2.4,3.2
		c-0.3,0.4-0.2,1.1,0.2,1.4C126.9,112.6,127.5,112.5,127.8,112L127.8,112 M121.1,121.8c0.7-1.1,1.5-2.2,2.2-3.3
		c0.3-0.5,0.2-1.1-0.3-1.4c-0.5-0.3-1.1-0.2-1.4,0.3c-0.8,1.1-1.5,2.2-2.2,3.3c-0.3,0.5-0.2,1.1,0.3,1.4
		C120.1,122.4,120.8,122.2,121.1,121.8 M114.9,131.9c0.7-1.1,1.3-2.3,2-3.4c0.3-0.5,0.1-1.1-0.3-1.4c-0.5-0.3-1.1-0.1-1.4,0.3
		c-0.7,1.1-1.4,2.3-2,3.5c-0.3,0.5-0.1,1.1,0.4,1.4C114,132.6,114.6,132.4,114.9,131.9 M109.3,142.4c0.6-1.2,1.2-2.4,1.8-3.5
		c0.3-0.5,0.1-1.1-0.4-1.3c-0.5-0.3-1.1-0.1-1.3,0.4c-0.6,1.2-1.2,2.4-1.8,3.6c-0.2,0.5,0,1.1,0.5,1.3
		C108.5,143.1,109.1,142.9,109.3,142.4 M104.4,153.3c0.5-1.2,1-2.4,1.6-3.6c0.2-0.5,0-1.1-0.5-1.3c-0.5-0.2-1.1,0-1.3,0.5
		c-0.5,1.2-1.1,2.4-1.6,3.7c-0.2,0.5,0,1.1,0.5,1.3C103.6,154,104.2,153.8,104.4,153.3L104.4,153.3 M100.1,164.4
		c0.4-1.2,0.9-2.5,1.4-3.7c0.2-0.5-0.1-1.1-0.6-1.3c-0.5-0.2-1.1,0.1-1.3,0.6c-0.5,1.3-0.9,2.5-1.4,3.8c-0.2,0.5,0.1,1.1,0.6,1.3
		C99.3,165.2,99.9,164.9,100.1,164.4 M96.5,175.7c0.4-1.3,0.7-2.5,1.1-3.8c0.2-0.5-0.1-1.1-0.7-1.2c-0.5-0.2-1.1,0.1-1.2,0.7
		c-0.4,1.3-0.8,2.6-1.1,3.8c-0.2,0.5,0.2,1.1,0.7,1.2C95.8,176.5,96.3,176.2,96.5,175.7 M93.6,187.2c0.3-1.3,0.6-2.6,0.9-3.9
		c0.1-0.5-0.2-1.1-0.7-1.2c-0.5-0.1-1.1,0.2-1.2,0.7c-0.3,1.3-0.6,2.6-0.9,3.9c-0.1,0.5,0.2,1.1,0.8,1.2
		C92.9,188.1,93.5,187.8,93.6,187.2 M91.3,198.9c0.2-1.3,0.4-2.6,0.7-3.9c0.1-0.5-0.3-1.1-0.8-1.2c-0.5-0.1-1.1,0.3-1.2,0.8
		c-0.2,1.3-0.5,2.6-0.7,4c-0.1,0.5,0.3,1.1,0.8,1.1C90.7,199.8,91.3,199.5,91.3,198.9 M89.8,210.7c0.1-1.3,0.3-2.6,0.4-3.9
		c0.1-0.5-0.3-1-0.9-1.1c-0.5-0.1-1,0.3-1.1,0.9c-0.2,1.3-0.3,2.7-0.4,4c-0.1,0.5,0.3,1,0.9,1.1C89.3,211.7,89.8,211.3,89.8,210.7
		 M89,222.6c0-1.3,0.1-2.6,0.2-4c0-0.6-0.4-1-0.9-1.1c-0.6,0-1,0.4-1.1,0.9c-0.1,1.3-0.1,2.7-0.2,4c0,0.6,0.4,1,1,1
		C88.5,223.6,89,223.2,89,222.6L89,222.6 M88.9,234.5c0-1.3,0-2.6-0.1-4c0-0.6-0.5-1-1-1c-0.6,0-1,0.5-1,1c0,1.3,0,2.7,0.1,4
		c0,0.6,0.5,1,1,1C88.5,235.5,88.9,235.1,88.9,234.5 M89.6,246.4c-0.1-1.3-0.2-2.6-0.3-4c0-0.6-0.5-1-1.1-0.9c-0.6,0-1,0.5-0.9,1.1
		c0.1,1.3,0.2,2.7,0.3,4c0,0.6,0.5,1,1.1,0.9C89.2,247.4,89.6,247,89.6,246.4L89.6,246.4 M90.9,258.2c-0.2-1.3-0.4-2.6-0.5-3.9
		c-0.1-0.5-0.6-0.9-1.1-0.9c-0.5,0.1-0.9,0.6-0.9,1.1c0.2,1.3,0.3,2.6,0.5,4c0.1,0.5,0.6,0.9,1.1,0.8
		C90.6,259.3,91,258.8,90.9,258.2 M93,270c-0.3-1.3-0.5-2.6-0.8-3.9c-0.1-0.5-0.6-0.9-1.2-0.8s-0.9,0.6-0.8,1.2
		c0.2,1.3,0.5,2.6,0.8,3.9c0.1,0.5,0.6,0.9,1.2,0.8S93.1,270.5,93,270 M95.7,281.5c-0.3-1.3-0.7-2.6-1-3.8c-0.1-0.5-0.7-0.9-1.2-0.7
		c-0.5,0.1-0.9,0.7-0.7,1.2c0.3,1.3,0.7,2.6,1,3.9c0.1,0.5,0.7,0.8,1.2,0.7C95.6,282.6,95.9,282.1,95.7,281.5 M99.2,292.9
		c-0.4-1.3-0.8-2.5-1.2-3.8c-0.2-0.5-0.7-0.8-1.3-0.7c-0.5,0.2-0.8,0.7-0.7,1.3c0.4,1.3,0.8,2.5,1.2,3.8c0.2,0.5,0.7,0.8,1.3,0.6
		C99.1,294,99.4,293.4,99.2,292.9 M103.4,304.1c-0.5-1.2-1-2.5-1.5-3.7c-0.2-0.5-0.8-0.8-1.3-0.6c-0.5,0.2-0.8,0.8-0.6,1.3
		c0.5,1.2,1,2.5,1.5,3.7c0.2,0.5,0.8,0.8,1.3,0.6C103.3,305.2,103.6,304.6,103.4,304.1 M108.2,315c-0.1-0.3-0.3-0.6-0.4-0.9
		c-0.4-0.9-0.8-1.8-1.3-2.7c-0.2-0.5-0.8-0.7-1.3-0.5c-0.5,0.2-0.7,0.8-0.5,1.3c0.4,0.9,0.8,1.8,1.3,2.7c0.1,0.3,0.3,0.6,0.4,0.9
		c0.2,0.5,0.8,0.7,1.3,0.5C108.2,316.1,108.4,315.5,108.2,315 M113.6,325.6c-0.6-1.2-1.3-2.3-1.9-3.5c-0.3-0.5-0.9-0.7-1.4-0.4
		c-0.5,0.3-0.7,0.9-0.4,1.4c0.6,1.2,1.3,2.4,1.9,3.5c0.3,0.5,0.9,0.7,1.4,0.4S113.8,326,113.6,325.6L113.6,325.6 M119.6,335.8
		c-0.7-1.1-1.4-2.2-2.1-3.4c-0.3-0.5-0.9-0.6-1.4-0.3c-0.5,0.3-0.6,0.9-0.3,1.4c0.7,1.1,1.4,2.3,2.1,3.4c0.3,0.5,0.9,0.6,1.4,0.3
		C119.8,336.9,119.9,336.3,119.6,335.8 M126.3,345.7c-0.8-1.1-1.5-2.2-2.3-3.2c-0.3-0.5-0.9-0.6-1.4-0.3c-0.5,0.3-0.6,0.9-0.3,1.4
		c0.8,1.1,1.5,2.2,2.3,3.3c0.3,0.4,0.9,0.6,1.4,0.2C126.5,346.7,126.6,346.1,126.3,345.7 M133.5,355.1c-0.8-1-1.7-2.1-2.5-3.1
		c-0.3-0.4-1-0.5-1.4-0.2c-0.4,0.3-0.5,1-0.2,1.4c0.8,1.1,1.7,2.1,2.5,3.1c0.3,0.4,1,0.5,1.4,0.1
		C133.8,356.2,133.9,355.5,133.5,355.1 M141.3,364.1c-0.9-1-1.8-1.9-2.6-2.9c-0.4-0.4-1-0.5-1.4-0.1c-0.4,0.4-0.5,1-0.1,1.4
		c0.9,1,1.8,2,2.7,3c0.4,0.4,1,0.4,1.4,0.1S141.7,364.5,141.3,364.1 M149.6,372.5c-0.9-0.9-1.9-1.8-2.8-2.8c-0.4-0.4-1-0.4-1.4,0
		c-0.4,0.4-0.4,1,0,1.4c0.9,0.9,1.9,1.9,2.9,2.8c0.4,0.4,1,0.4,1.4,0C150,373.6,150,372.9,149.6,372.5 M158.4,380.5
		c-1-0.9-2-1.7-3-2.6c-0.4-0.4-1-0.3-1.4,0.1c-0.4,0.4-0.3,1,0.1,1.4c1,0.9,2,1.8,3,2.6c0.4,0.4,1.1,0.3,1.4-0.1
		C158.9,381.5,158.8,380.9,158.4,380.5 M167.7,387.9c-1.1-0.8-2.1-1.6-3.1-2.4c-0.4-0.3-1.1-0.3-1.4,0.2c-0.3,0.4-0.3,1.1,0.2,1.4
		c1,0.8,2.1,1.6,3.2,2.4c0.4,0.3,1.1,0.2,1.4-0.2C168.2,388.9,168.1,388.3,167.7,387.9 M177.4,394.8c-1.1-0.7-2.2-1.5-3.3-2.2
		c-0.5-0.3-1.1-0.2-1.4,0.3c-0.3,0.5-0.2,1.1,0.3,1.4c1.1,0.8,2.2,1.5,3.3,2.2c0.5,0.3,1.1,0.2,1.4-0.3
		C178,395.7,177.9,395.1,177.4,394.8 M187.5,401.1c-1.1-0.7-2.3-1.3-3.4-2c-0.5-0.3-1.1-0.1-1.4,0.3c-0.3,0.5-0.1,1.1,0.3,1.4
		c1.1,0.7,2.3,1.4,3.4,2c0.5,0.3,1.1,0.1,1.4-0.4C188.1,401.9,188,401.3,187.5,401.1 M198,406.7c-1.2-0.6-2.4-1.2-3.5-1.8
		c-0.5-0.3-1.1-0.1-1.4,0.4c-0.3,0.5-0.1,1.1,0.4,1.4c1.2,0.6,2.4,1.2,3.6,1.8c0.5,0.2,1.1,0,1.3-0.4
		C198.7,407.5,198.5,406.9,198,406.7 M208.8,411.7c-1.2-0.5-2.4-1.1-3.6-1.6c-0.5-0.2-1.1,0-1.3,0.5c-0.2,0.5,0,1.1,0.5,1.3
		c1.2,0.6,2.4,1.1,3.7,1.6c0.5,0.2,1.1,0,1.3-0.5C209.5,412.5,209.3,411.9,208.8,411.7L208.8,411.7 M219.8,416.1
		c-1.2-0.4-2.5-0.9-3.7-1.4c-0.5-0.2-1.1,0.1-1.3,0.6c-0.2,0.5,0.1,1.1,0.6,1.3c1.2,0.5,2.5,0.9,3.8,1.4c0.5,0.2,1.1-0.1,1.3-0.6
		C220.6,416.8,220.3,416.3,219.8,416.1 M231.1,419.8c-1.3-0.4-2.5-0.8-3.8-1.2c-0.5-0.2-1.1,0.1-1.3,0.7c-0.2,0.5,0.1,1.1,0.7,1.3
		c1.3,0.4,2.6,0.8,3.8,1.2c0.5,0.2,1.1-0.1,1.2-0.7C232,420.5,231.7,419.9,231.1,419.8 M242.6,422.8c-1.3-0.3-2.6-0.6-3.9-0.9
		c-0.5-0.1-1.1,0.2-1.2,0.7c-0.1,0.5,0.2,1.1,0.7,1.2c1.3,0.3,2.6,0.6,3.9,0.9c0.5,0.1,1.1-0.2,1.2-0.8
		C243.5,423.4,243.2,422.9,242.6,422.8 M254.3,425.1c-1.3-0.2-2.6-0.4-3.9-0.7c-0.5-0.1-1.1,0.3-1.2,0.8c-0.1,0.5,0.3,1.1,0.8,1.2
		c1.3,0.2,2.6,0.5,3.9,0.7c0.5,0.1,1.1-0.3,1.2-0.8C255.2,425.7,254.9,425.2,254.3,425.1 M266.1,426.7c-1.3-0.1-2.6-0.3-3.9-0.5
		c-0.5-0.1-1,0.3-1.1,0.9c-0.1,0.5,0.3,1,0.9,1.1c1.3,0.2,2.7,0.3,4,0.5c0.5,0.1,1-0.3,1.1-0.9C267.1,427.2,266.7,426.7,266.1,426.7
		 M278,427.6c-1.3-0.1-2.6-0.1-4-0.2c-0.6,0-1,0.4-1.1,0.9c0,0.6,0.4,1,0.9,1.1c1.3,0.1,2.7,0.2,4,0.2c0.6,0,1-0.4,1-1
		C279,428.1,278.5,427.6,278,427.6 M289.9,427.8c-1,0-2,0-3,0c-0.3,0-0.6,0-1,0c-0.6,0-1,0.4-1,1c0,0.6,0.4,1,1,1c0.3,0,0.7,0,1,0
		c1,0,2,0,3,0c0.6,0,1-0.5,1-1C290.9,428.2,290.5,427.8,289.9,427.8 M301.8,427.2c-1.3,0.1-2.6,0.2-4,0.3c-0.6,0-1,0.5-0.9,1.1
		c0,0.6,0.5,1,1.1,0.9c1.3-0.1,2.7-0.2,4-0.3c0.6,0,1-0.5,0.9-1.1C302.8,427.6,302.3,427.2,301.8,427.2 M313.6,426
		c-1.3,0.2-2.6,0.3-3.9,0.5c-0.5,0.1-0.9,0.6-0.9,1.1c0.1,0.5,0.6,0.9,1.1,0.9c1.3-0.2,2.7-0.3,4-0.5c0.5-0.1,0.9-0.6,0.9-1.1
		C314.7,426.3,314.2,425.9,313.6,426L313.6,426 M325.4,424c-1.3,0.3-2.6,0.5-3.9,0.7c-0.5,0.1-0.9,0.6-0.8,1.2
		c0.1,0.5,0.6,0.9,1.2,0.8c1.3-0.2,2.6-0.5,3.9-0.7c0.5-0.1,0.9-0.6,0.8-1.2C326.4,424.2,325.9,423.9,325.4,424 M337,421.3
		c-1.3,0.3-2.6,0.7-3.8,1c-0.5,0.1-0.9,0.7-0.7,1.2c0.1,0.5,0.7,0.9,1.2,0.7c1.3-0.3,2.6-0.6,3.9-1c0.5-0.1,0.9-0.7,0.7-1.2
		C338,421.5,337.5,421.2,337,421.3 M348.4,417.9c-1.3,0.4-2.5,0.8-3.8,1.2c-0.5,0.2-0.8,0.7-0.7,1.2c0.2,0.5,0.7,0.8,1.2,0.7
		c1.3-0.4,2.5-0.8,3.8-1.2c0.5-0.2,0.8-0.7,0.6-1.3C349.5,418,348.9,417.8,348.4,417.9 M359.6,413.9c-1.2,0.5-2.5,1-3.7,1.4
		c-0.5,0.2-0.8,0.8-0.6,1.3c0.2,0.5,0.8,0.8,1.3,0.6c1.2-0.5,2.5-0.9,3.7-1.4c0.5-0.2,0.8-0.8,0.6-1.3
		C360.7,413.9,360.1,413.7,359.6,413.9 M370.5,409.1c-1.2,0.6-2.4,1.1-3.6,1.6c-0.5,0.2-0.7,0.8-0.5,1.3c0.2,0.5,0.8,0.7,1.3,0.5
		c1.2-0.5,2.4-1.1,3.6-1.7c0.5-0.2,0.7-0.8,0.5-1.3C371.6,409.1,371,408.9,370.5,409.1 M381.1,403.8c-1.2,0.6-2.3,1.2-3.5,1.9
		c-0.5,0.3-0.7,0.9-0.4,1.3c0.3,0.5,0.9,0.7,1.3,0.4c1.2-0.6,2.4-1.2,3.5-1.9c0.5-0.3,0.7-0.9,0.4-1.4
		C382.2,403.7,381.6,403.5,381.1,403.8 M391.4,397.8c-1.1,0.7-2.3,1.4-3.4,2.1c-0.5,0.3-0.6,0.9-0.3,1.4c0.3,0.5,0.9,0.6,1.4,0.3
		c1.2-0.7,2.3-1.4,3.4-2.1c0.5-0.3,0.6-0.9,0.3-1.4C392.5,397.7,391.9,397.5,391.4,397.8 M401.3,391.2c-1.1,0.8-2.2,1.5-3.3,2.3
		c-0.5,0.3-0.6,0.9-0.3,1.4c0.3,0.5,0.9,0.6,1.4,0.3c1.1-0.8,2.2-1.5,3.3-2.3c0.5-0.3,0.6-0.9,0.2-1.4
		C402.4,391,401.8,390.9,401.3,391.2 M410.8,384.1c-1,0.8-2.1,1.6-3.1,2.5c-0.4,0.3-0.5,1-0.2,1.4c0.3,0.4,1,0.5,1.4,0.2
		c1.1-0.8,2.1-1.6,3.1-2.5c0.4-0.3,0.5-1,0.2-1.4C411.9,383.8,411.2,383.7,410.8,384.1 M419.8,376.4c-1,0.9-2,1.8-3,2.6
		c-0.4,0.4-0.5,1-0.1,1.4c0.4,0.4,1,0.5,1.4,0.1c1-0.9,2-1.8,3-2.7c0.4-0.4,0.4-1,0.1-1.4C420.9,376,420.2,376,419.8,376.4
		 M428.4,368.1c-0.9,0.9-1.9,1.9-2.8,2.8c-0.4,0.4-0.4,1,0,1.4c0.4,0.4,1,0.4,1.4,0c1-0.9,1.9-1.9,2.8-2.8c0.4-0.4,0.4-1,0-1.4
		C429.4,367.7,428.8,367.7,428.4,368.1 M436.4,359.4c-0.9,1-1.7,2-2.6,3c-0.4,0.4-0.3,1,0.1,1.4c0.4,0.4,1,0.3,1.4-0.1
		c0.9-1,1.8-2,2.6-3c0.4-0.4,0.3-1-0.1-1.4C437.4,358.9,436.8,359,436.4,359.4 M443.9,350.2c-0.8,1-1.6,2.1-2.4,3.1
		c-0.3,0.4-0.3,1.1,0.2,1.4c0.4,0.3,1.1,0.3,1.4-0.2c0.8-1,1.7-2.1,2.5-3.2c0.3-0.4,0.3-1.1-0.2-1.4
		C444.9,349.6,444.2,349.7,443.9,350.2 M450.8,340.5c-0.7,1.1-1.5,2.2-2.2,3.3c-0.3,0.5-0.2,1.1,0.2,1.4c0.5,0.3,1.1,0.2,1.4-0.2
		c0.8-1.1,1.5-2.2,2.3-3.3c0.3-0.5,0.2-1.1-0.3-1.4C451.8,339.9,451.1,340.1,450.8,340.5 M457.2,330.5c-0.7,1.1-1.4,2.3-2,3.4
		c-0.3,0.5-0.1,1.1,0.3,1.4s1.1,0.1,1.4-0.3c0.7-1.1,1.4-2.3,2.1-3.4c0.3-0.5,0.1-1.1-0.4-1.4C458.1,329.8,457.5,330,457.2,330.5
		 M462.9,320c-0.6,1.2-1.2,2.3-1.8,3.5c-0.3,0.5-0.1,1.1,0.4,1.4c0.5,0.3,1.1,0.1,1.4-0.4c0.6-1.2,1.2-2.4,1.9-3.5
		c0.3-0.5,0.1-1.1-0.4-1.3C463.7,319.3,463.1,319.5,462.9,320 M468,309.3c-0.5,1.2-1.1,2.4-1.6,3.6c-0.2,0.5,0,1.1,0.5,1.3
		c0.5,0.2,1.1,0,1.3-0.5c0.6-1.2,1.1-2.4,1.6-3.7c0.2-0.5,0-1.1-0.5-1.3C468.8,308.5,468.2,308.8,468,309.3 M472.4,298.2
		c-0.5,1.2-0.9,2.5-1.4,3.7c-0.2,0.5,0.1,1.1,0.6,1.3c0.5,0.2,1.1-0.1,1.3-0.6c0.5-1.2,1-2.5,1.4-3.7c0.2-0.5-0.1-1.1-0.6-1.3
		C473.2,297.5,472.6,297.7,472.4,298.2 M476.2,287c-0.4,1.3-0.8,2.5-1.2,3.8c-0.2,0.5,0.1,1.1,0.6,1.3c0.5,0.2,1.1-0.1,1.3-0.6
		c0.4-1.3,0.8-2.5,1.2-3.8c0.2-0.5-0.1-1.1-0.7-1.2C476.9,286.1,476.4,286.4,476.2,287 M479.3,275.5c-0.3,1.3-0.6,2.6-1,3.9
		c-0.1,0.5,0.2,1.1,0.7,1.2s1.1-0.2,1.2-0.7c0.3-1.3,0.7-2.6,1-3.9c0.1-0.5-0.2-1.1-0.7-1.2C480,274.6,479.4,274.9,479.3,275.5
		L479.3,275.5 M481.7,263.8c-0.2,1.3-0.5,2.6-0.7,3.9c-0.1,0.5,0.2,1.1,0.8,1.2c0.5,0.1,1.1-0.2,1.2-0.8c0.3-1.3,0.5-2.6,0.7-3.9
		c0.1-0.5-0.3-1.1-0.8-1.2C482.3,262.9,481.8,263.3,481.7,263.8 M483.4,252c-0.1,1.3-0.3,2.6-0.5,3.9c-0.1,0.5,0.3,1.1,0.9,1.1
		c0.5,0.1,1.1-0.3,1.1-0.9c0.2-1.3,0.3-2.7,0.5-4c0.1-0.5-0.3-1-0.9-1.1C484,251.1,483.5,251.5,483.4,252 M484.4,240.2
		c-0.1,1.3-0.2,2.6-0.2,4c0,0.6,0.4,1,0.9,1.1c0.6,0,1-0.4,1.1-0.9c0.1-1.3,0.2-2.7,0.3-4c0-0.6-0.4-1-0.9-1.1
		C484.9,239.2,484.4,239.6,484.4,240.2 M484.7,228.3c0,0.5,0,1,0,1.5c0,0.8,0,1.6,0,2.5c0,0.6,0.4,1,1,1c0.6,0,1-0.4,1-1
		c0-0.8,0-1.7,0-2.5c0-0.5,0-1,0-1.5c0-0.6-0.5-1-1-1C485.1,227.3,484.6,227.7,484.7,228.3 M484.2,216.4c0.1,1.3,0.2,2.6,0.2,4
		c0,0.6,0.5,1,1,1c0.6,0,1-0.5,1-1c-0.1-1.3-0.1-2.7-0.2-4c0-0.6-0.5-1-1.1-0.9C484.6,215.3,484.2,215.8,484.2,216.4L484.2,216.4
		 M483,204.5c0.2,1.3,0.3,2.6,0.5,3.9c0.1,0.5,0.6,0.9,1.1,0.9c0.5-0.1,0.9-0.6,0.9-1.1c-0.1-1.3-0.3-2.7-0.5-4
		c-0.1-0.5-0.6-0.9-1.1-0.9C483.3,203.5,483,204,483,204.5L483,204.5 M481.1,192.8c0.2,1.3,0.5,2.6,0.7,3.9c0.1,0.5,0.6,0.9,1.2,0.8
		c0.5-0.1,0.9-0.6,0.8-1.2c-0.2-1.3-0.5-2.6-0.7-3.9c-0.1-0.5-0.6-0.9-1.2-0.8C481.4,191.7,481,192.2,481.1,192.8L481.1,192.8
		 M478.5,181.2c0.3,1.3,0.6,2.6,0.9,3.9c0.1,0.5,0.7,0.9,1.2,0.7c0.5-0.1,0.9-0.7,0.7-1.2c-0.3-1.3-0.6-2.6-1-3.9
		c-0.1-0.5-0.7-0.9-1.2-0.7C478.7,180.1,478.4,180.6,478.5,181.2 M475.3,169.7c0.4,1.3,0.8,2.5,1.2,3.8c0.2,0.5,0.7,0.8,1.2,0.7
		c0.5-0.2,0.8-0.7,0.7-1.2c-0.4-1.3-0.8-2.6-1.2-3.8c-0.2-0.5-0.7-0.8-1.3-0.6C475.4,168.6,475.1,169.2,475.3,169.7 M471.3,158.5
		c0.5,1.2,0.9,2.5,1.4,3.7c0.2,0.5,0.8,0.8,1.3,0.6c0.5-0.2,0.8-0.8,0.6-1.3c-0.5-1.3-0.9-2.5-1.4-3.8c-0.2-0.5-0.8-0.8-1.3-0.6
		S471.1,158,471.3,158.5 M466.6,147.5c0.6,1.2,1.1,2.4,1.6,3.6c0.2,0.5,0.8,0.7,1.3,0.5c0.5-0.2,0.7-0.8,0.5-1.3
		c-0.5-1.2-1.1-2.4-1.6-3.7c-0.2-0.5-0.8-0.7-1.3-0.5C466.6,146.4,466.4,147,466.6,147.5 M461.4,136.9c0.6,1.2,1.2,2.3,1.8,3.5
		c0.2,0.5,0.9,0.7,1.3,0.4c0.5-0.2,0.7-0.9,0.4-1.3c-0.6-1.2-1.2-2.4-1.8-3.6c-0.3-0.5-0.9-0.7-1.4-0.4
		C461.3,135.8,461.1,136.4,461.4,136.9 M455.5,126.5c0.7,1.1,1.4,2.3,2,3.4c0.3,0.5,0.9,0.6,1.4,0.4c0.5-0.3,0.6-0.9,0.4-1.4
		c-0.7-1.2-1.4-2.3-2.1-3.4c-0.3-0.5-0.9-0.6-1.4-0.3C455.3,125.4,455.2,126.1,455.5,126.5L455.5,126.5 M449,116.6
		c0.8,1.1,1.5,2.2,2.2,3.3c0.3,0.5,0.9,0.6,1.4,0.3c0.5-0.3,0.6-0.9,0.3-1.4c-0.7-1.1-1.5-2.2-2.3-3.3c-0.3-0.5-0.9-0.6-1.4-0.2
		C448.8,115.5,448.7,116.1,449,116.6L449,116.6 M441.9,107c0.8,1,1.6,2.1,2.4,3.1c0.3,0.4,1,0.5,1.4,0.2c0.4-0.3,0.5-1,0.2-1.4
		c-0.8-1.1-1.6-2.1-2.4-3.2c-0.3-0.4-1-0.5-1.4-0.2C441.6,106,441.6,106.6,441.9,107 M434.3,98c0.9,1,1.7,2,2.6,3
		c0.4,0.4,1,0.5,1.4,0.1c0.4-0.4,0.5-1,0.1-1.4c-0.9-1-1.7-2-2.6-3c-0.4-0.4-1-0.4-1.4-0.1C433.9,96.9,433.9,97.5,434.3,98
		 M426.1,89.3c0.9,0.9,1.9,1.9,2.8,2.8c0.4,0.4,1,0.4,1.4,0c0.4-0.4,0.4-1,0-1.4c-0.9-1-1.9-1.9-2.8-2.8c-0.4-0.4-1-0.4-1.4,0
		C425.7,88.3,425.7,88.9,426.1,89.3 M417.4,81.2c1,0.9,2,1.8,3,2.6c0.4,0.4,1,0.3,1.4-0.1c0.4-0.4,0.3-1-0.1-1.4c-1-0.9-2-1.8-3-2.7
		c-0.4-0.4-1-0.3-1.4,0.1C416.9,80.2,417,80.9,417.4,81.2 M408.2,73.7c1,0.8,2.1,1.6,3.1,2.5c0.4,0.3,1.1,0.3,1.4-0.1
		c0.3-0.4,0.3-1.1-0.1-1.4c-1-0.8-2.1-1.7-3.1-2.5c-0.4-0.3-1.1-0.3-1.4,0.2C407.7,72.7,407.8,73.3,408.2,73.7 M398.6,66.7
		c1.1,0.7,2.2,1.5,3.2,2.3c0.4,0.3,1.1,0.2,1.4-0.2c0.3-0.4,0.2-1.1-0.2-1.4c-1.1-0.8-2.2-1.5-3.3-2.3c-0.5-0.3-1.1-0.2-1.4,0.3
		C398,65.7,398.1,66.3,398.6,66.7 M388.6,60.2c1.1,0.7,2.3,1.4,3.4,2.1c0.5,0.3,1.1,0.2,1.4-0.3c0.3-0.5,0.2-1.1-0.3-1.4
		c-1.1-0.7-2.3-1.4-3.4-2.1c-0.5-0.3-1.1-0.1-1.4,0.3C388,59.3,388.1,60,388.6,60.2L388.6,60.2 M378.2,54.4c1.2,0.6,2.3,1.2,3.5,1.9
		c0.5,0.3,1.1,0.1,1.4-0.4c0.3-0.5,0.1-1.1-0.4-1.4c-1.2-0.6-2.4-1.3-3.5-1.9c-0.5-0.3-1.1-0.1-1.3,0.4
		C377.5,53.6,377.7,54.2,378.2,54.4 M367.5,49.3c1.2,0.5,2.4,1.1,3.6,1.7c0.5,0.2,1.1,0,1.3-0.5c0.2-0.5,0-1.1-0.5-1.3
		c-1.2-0.6-2.4-1.1-3.6-1.7c-0.5-0.2-1.1,0-1.3,0.5C366.8,48.4,367,49,367.5,49.3 M356.5,44.7c1.2,0.5,2.5,0.9,3.7,1.4
		c0.5,0.2,1.1,0,1.3-0.6c0.2-0.5,0-1.1-0.6-1.3c-1.2-0.5-2.5-1-3.7-1.4c-0.5-0.2-1.1,0.1-1.3,0.6C355.7,44,356,44.5,356.5,44.7
		 M345.2,40.9c1.3,0.4,2.5,0.8,3.8,1.2c0.5,0.2,1.1-0.1,1.3-0.6c0.2-0.5-0.1-1.1-0.6-1.3c-1.3-0.4-2.5-0.8-3.8-1.2
		c-0.5-0.2-1.1,0.1-1.3,0.7C344.4,40.2,344.7,40.7,345.2,40.9"/>
	<path class="st2" d="M200.8,51.7c0.6-0.3,1.2-0.6,1.8-0.9c0.5-0.2,0.7-0.8,0.5-1.3c-0.2-0.5-0.8-0.7-1.3-0.5
		c-0.6,0.3-1.2,0.6-1.8,0.9c-0.5,0.2-0.7,0.8-0.5,1.3C199.7,51.8,200.3,52,200.8,51.7L200.8,51.7z"/>
	<path class="st4" d="M21.7,378.4c-5.9,1.5-11.9-2.2-13.4-8.1c-1.5-5.9,2.2-11.9,8.1-13.4l70.2-17.2l5.3,21.5L21.7,378.4z"/>
	<path class="st5" d="M97,357.5L21.1,376c-4.6,1.1-9.3-1.7-10.4-6.3c-1.1-4.6,1.7-9.3,6.3-10.4l67.8-16.6L97,357.5z"/>
	<path class="st6" d="M30.5,460.9c1.1,4.6,6.9,7.2,12.8,5.7l78.3-19.1l-22.2-90.6L21.1,376c-5.9,1.5-11.7-1.1-12.8-5.7L30.5,460.9"
		/>
	<path class="st4" d="M49.6,409.9l-0.9-3.4l2.5-0.6l-1-1.6l-5.4,1.4l-0.1,1.9l2-0.5l0.9,3.4l-8.3,2.1l-0.9-3.4l1.8-0.5l0.6-12.4
		l-1.1,0.3l-0.9-3.4l10.1-2.6l8.5,13.7l1.8-0.5l0.9,3.4L49.6,409.9z M48.4,401.3l-3.2-5.2l-0.2,6.1L48.4,401.3z"/>
	<path class="st4" d="M60.3,403.5l1.5-0.4l-3-11.5l-1.5,0.4l-0.9-3.4l9.8-2.5c4.4-1.1,6.8,0,7.6,2.8c0.6,2.2,0.2,3.4-1.5,4.7
		c2,0,4,1,4.6,3.6c1,3.7-0.7,5.9-5.8,7.2l-10,2.6L60.3,403.5z M65.3,394.2l1.6-0.4c1.4-0.4,1.6-1.2,1.3-2.5
		c-0.3-1.2-1.2-1.7-2.2-1.5l-1.7,0.4L65.3,394.2z M69.3,401.2c1.1-0.3,1.9-1.4,1.5-2.8c-0.3-1.3-1.4-2.1-2.8-1.7l-2,0.5l1.2,4.6
		L69.3,401.2z"/>
	<path class="st4" d="M95.3,394.7c-1.3,2.4-3.6,4.9-7,5.7c-5.6,1.4-10.2-1.2-11.7-7c-1.6-6,2.1-10.8,5.5-11.7
		c2.6-0.7,4.2,0.5,4.5,0.7l0.2-1.6l4.1-1.1l1.9,7.4l-4.7,1.2c-0.5-1.7-1.8-3.1-3.6-2.6c-1.9,0.5-2.5,3.1-1.8,6
		c0.7,2.6,2.6,4.6,5.1,3.9c2.2-0.6,3.3-3.3,3.5-3.6L95.3,394.7"/>
	<path class="st1" d="M123.5,336.9c0.1,0,0.1,0,0.2,0C123.7,336.9,123.6,336.9,123.5,336.9"/>
	<path class="st1" d="M121.4,395.2c-1,0.2-1.9,0.3-2.9,0.5c-3.1,0.6-6,1.8-8.7,3.2l4.4,18c2.9,0,5.9-0.1,8.9-0.1c0.2,0,0.5,0,0.7,0
		c1.7,0,3.3,0,4.9,0c-1.5-1.8-2.7-3.6-3.6-5.4c-1,0.7-2.2,1.1-3.4,1.1c0,0,0,0,0,0c-3.3,0-6-2.7-6-6c0-3.3,2.7-6,6-6c0,0,0,0,0,0
		c0,0,0.1,0,0.1,0C121.5,398.8,121.4,397,121.4,395.2 M106.8,379.8c-0.6,0.2-1.1,0.4-1.6,0.7l1.5,6.1c1.6-0.7,3.2-1.4,5-1.9
		c3.8-1.2,7.3-1.8,10.6-2L106.8,379.8 M143.9,338.4c-0.3,1.3-6,3.4-13.8,4.2l2.9,11.9c0.2,0.2,0.4,0.4,0.5,0.6c0.3,0.4,0.3,1,0,1.3
		l0.8,3.4l0-3.5C149.6,352.1,144.1,339.6,143.9,338.4"/>
	<path class="st1" d="M130.1,342.5c-1.8,0.2-3.8,0.3-5.8,0.3c0.7,0.9,1.3,1.9,2,2.8c0.3,0.4,0.2,1.1-0.2,1.4
		c-0.2,0.1-0.4,0.2-0.6,0.2c-0.3,0-0.6-0.1-0.8-0.4c0,0,0,0,0,0l6.4,26.1c0.3,1.3-0.1,2.5-0.9,3.3c-0.6,0.6-1.5,1.1-2.5,1.1
		c-0.2,0-0.4,0-0.7-0.1l-13.7-2.6l0,3.2c-2.2,0.5-4.3,1.2-6.4,2l15.5,2.9c0.8-0.1,1.7-0.1,2.5-0.1c0.6,0,1.1,0,1.7,0
		c2.2-2.2,4.9-4,7.8-5.5l0-17.4l-0.8-3.4c0,0-0.1,0.1-0.1,0.1c-0.2,0.2-0.4,0.2-0.6,0.2c-0.3,0-0.6-0.1-0.8-0.4
		c-0.8-1-1.7-2.1-2.5-3.1c-0.3-0.4-0.3-1.1,0.2-1.4c0.2-0.1,0.4-0.2,0.6-0.2c0.3,0,0.6,0.1,0.8,0.4c0.6,0.8,1.3,1.6,2,2.5
		L130.1,342.5"/>
	<path class="st1" d="M124.6,346.8l6.3,26.2c0.3,1.3-0.1,2.5-0.9,3.3c0.8-0.8,1.2-2,0.9-3.3L124.6,346.8
		C124.6,346.8,124.6,346.8,124.6,346.8"/>
	<path class="st7" d="M103.9,339.5c0.2,1,0.2,2.1-0.1,3.2c-0.3,1.1-0.8,2-1.6,2.7c0,2.5,0.8,5.3,3.2,7.6c0-0.1,0.1-0.3,0.1-0.4
		c0.4-1.5,1.8-2.5,3.3-2.5c0.3,0,0.6,0,0.9,0.1c1.9,0.5,2.9,2.4,2.4,4.3c-0.2,0.7-0.6,1.3-1.1,1.8c0.7,0.2,1.4,0.4,2.1,0.6l0,17.8
		l13.7,2.6c0.2,0,0.4,0.1,0.7,0.1c1,0,1.9-0.4,2.5-1.1c0.8-0.8,1.2-2,0.9-3.3l-6.3-26.2c-0.8-1.1-1.5-2.1-2.3-3.2
		c-0.2-0.2-0.2-0.5-0.2-0.7C112.9,342.7,105.4,341,103.9,339.5"/>
	<path class="st8" d="M103.6,338.9c0,0-1.4,2.9-1.3,6.5c0.7-0.7,1.3-1.7,1.6-2.7c0.3-1.1,0.3-2.2,0.1-3.2
		C103.7,339.3,103.6,339.1,103.6,338.9L103.6,338.9"/>
	<path class="st8" d="M108.9,350.1c-1.5,0-2.9,1-3.3,2.5c0,0.1-0.1,0.3-0.1,0.4c1.3,1.3,3.2,2.4,5.7,3.2c0.5-0.4,0.9-1,1.1-1.8
		c0.5-1.9-0.6-3.8-2.4-4.3C109.5,350.1,109.2,350.1,108.9,350.1"/>
	<path class="st7" d="M130.3,351.6c-0.2,0-0.4,0.1-0.6,0.2c-0.4,0.3-0.5,1-0.2,1.4c0.8,1.1,1.7,2.1,2.5,3.1c0.2,0.2,0.5,0.4,0.8,0.4
		c0.2,0,0.4-0.1,0.6-0.2c0,0,0.1-0.1,0.1-0.1c0.3-0.4,0.4-0.9,0-1.3c-0.2-0.2-0.4-0.4-0.5-0.6c-0.7-0.8-1.3-1.6-2-2.5
		C130.9,351.8,130.6,351.6,130.3,351.6 M122.2,342.8c0,0.2,0,0.5,0.2,0.7c0.7,1.1,1.5,2.1,2.3,3.2c0,0,0,0,0,0c0,0,0,0,0,0
		c0.2,0.3,0.5,0.4,0.8,0.4c0.2,0,0.4-0.1,0.6-0.2c0.4-0.3,0.6-0.9,0.2-1.4c-0.7-0.9-1.3-1.9-2-2.8c-0.2,0-0.3,0-0.5,0c0,0,0,0-0.1,0
		C123.2,342.9,122.7,342.8,122.2,342.8"/>
	<path class="st1" d="M137.8,463.2C137.8,463.2,137.7,463.2,137.8,463.2C137.7,463.2,137.8,463.2,137.8,463.2
		C137.8,463.2,137.8,463.2,137.8,463.2 M94.7,454.1l-3.9,1c5.2,5.3,11.8,9.4,19.1,11.7c2.9-0.5,6-1,9.4-1.4
		C109.8,464.4,101.2,460.3,94.7,454.1"/>
	<path class="st9" d="M137.8,463.2c0,0-0.1,0-0.1,0c-4.4,1.5-9.1,2.4-14,2.4c0,0,0,0,0,0c-1.5,0-3-0.1-4.4-0.2
		c-3.3,0.5-6.5,0.9-9.4,1.4c4.4,1.4,9,2.1,13.8,2.1c0,0,0,0,0,0c5.7,0,11.2-1,16.2-2.9C139.1,465.1,138.4,464.2,137.8,463.2"/>
	<path class="st10" d="M104.6,417.1C104.6,417.1,104.6,417.1,104.6,417.1c-2,0-3.6-1.6-3.6-3.6c0-2,1.6-3.6,3.6-3.6c0,0,0,0,0,0
		c2,0,3.6,1.6,3.6,3.6C108.2,415.5,106.6,417.1,104.6,417.1 M109.7,399c-8.8,4.7-15.7,12.8-20.2,19c5.9-0.5,14.5-0.9,24.6-1
		L109.7,399 M105.2,380.5c-7.6,3.3-14.2,8.7-19,15.3c0.2,0,0.4,0.1,0.7,0.1c0.3,0,0.6,0,0.9-0.1c2.2-0.6,3.3-3.3,3.5-3.6l3.9,2.6
		c-1.3,2.4-3.6,4.9-7,5.7c-1,0.3-2,0.4-2.9,0.4c-0.7,0-1.5-0.1-2.1-0.2c-3.6,6.6-5.7,14.1-5.7,22.1c0,12.6,5,24,13.2,32.4l3.9-1
		c-8.3-7.8-13.4-18.8-13.4-31c0-1.2,0.1-2.3,0.2-3.5l0,0l0,0c0-0.4,1.2-0.7,3.3-1.1c1.6-9.5,6.6-24.8,21.9-31.9L105.2,380.5"/>
	<path class="st11" d="M91.3,392.1c-0.2,0.3-1.3,3.1-3.5,3.6c-0.3,0.1-0.6,0.1-0.9,0.1c-0.2,0-0.4,0-0.7-0.1c-1.1,1.5-2.1,3.1-3,4.8
		c0.7,0.2,1.4,0.2,2.1,0.2c0.9,0,1.9-0.1,2.9-0.4c3.4-0.9,5.7-3.3,7-5.7L91.3,392.1"/>
	<path class="st1" d="M129,337.8l1,4.2c2.8-0.4,5.3-1,7.4-1.5c-0.4-1.7-4.3-2.1-5.5-2.3C130.9,338.1,129.9,338,129,337.8"/>
	<path class="st1" d="M122.3,337.1l1.2,5c0.2,0.1,0.4,0.2,0.5,0.4c0,0,0.1,0.1,0.1,0.1c2.1-0.1,4-0.3,5.9-0.5l-1-4.2
		C126.7,337.6,124.5,337.3,122.3,337.1 M123.2,336.9c-0.3,0-0.7,0-1,0l0,0C122.6,336.9,122.9,336.9,123.2,336.9c0.1,0,0.2,0,0.3,0
		C123.4,336.9,123.3,336.9,123.2,336.9"/>
	<path class="st1" d="M122.3,337.1l1.2,5c0,0,0,0,0,0L122.3,337.1C122.3,337.1,122.3,337.1,122.3,337.1 M122.2,336.9
		C122.2,336.9,122.2,336.9,122.2,336.9L122.2,336.9C122.2,336.9,122.2,336.9,122.2,336.9L122.2,336.9"/>
	<path class="st12" d="M122.2,336.9c-0.9,0-1.8,0-2.7,0c-0.1,0.1-0.2,0.2-0.2,0.2c-0.2,0.1-0.4,0.2-0.5,0.2c-0.3,0-0.6-0.1-0.8-0.4
		c-7.8,0.1-13.7,0.6-14.4,1.7c0,0.1,0.1,0.2,0.1,0.3c6,2.7,12.3,3.6,18,3.6c0.2,0,0.3,0,0.5,0c0.1-0.2,0.2-0.3,0.4-0.4
		c0.2-0.1,0.4-0.2,0.6-0.2c0.1,0,0.2,0,0.3,0l-1.2-5c-0.4,0-0.8-0.1-1.2-0.1C121.5,336.9,121.9,336.9,122.2,336.9L122.2,336.9"/>
	<path class="st13" d="M103.6,338.7c0,0.1-0.1,0.2-0.1,0.2l0,0c0.1,0,0.1,0.1,0.2,0.1C103.7,338.9,103.7,338.8,103.6,338.7"/>
	<path class="st12" d="M123.2,342c-0.2,0-0.4,0.1-0.6,0.2c-0.2,0.1-0.3,0.3-0.4,0.4c0.6,0,1.2,0,1.8,0c0,0-0.1-0.1-0.1-0.1
		c-0.1-0.2-0.3-0.3-0.5-0.4c0,0,0,0,0,0C123.4,342,123.3,342,123.2,342 M119.6,337c-0.5,0-1,0-1.5,0c0.2,0.2,0.5,0.4,0.8,0.4
		c0.2,0,0.4,0,0.5-0.2C119.4,337.1,119.5,337,119.6,337"/>
	<path class="st1" d="M143.9,338.3C143.9,338.3,143.9,338.3,143.9,338.3C143.9,338.3,143.9,338.3,143.9,338.3"/>
	<path class="st1" d="M132,336.9c-1,0-2.1,0-3.2,0l0.2,0.9c1,0.1,2,0.3,2.9,0.4c1.2,0.2,5.1,0.5,5.5,2.3c-2.1,0.6-4.6,1.1-7.4,1.5
		l0.1,0.5c7.8-0.8,13.5-2.8,13.8-4.2c0-0.1,0-0.1,0-0.1l0,0C143.9,337.1,139,336.9,132,336.9"/>
	<path class="st1" d="M130,342c-1.8,0.3-3.8,0.5-5.9,0.5c0.1,0.1,0.1,0.2,0.2,0.3c2,0,4-0.1,5.8-0.3L130,342 M128.7,336.9
		c-0.1,0-0.3,0-0.4,0c-1.3,0-2.6,0-3.9,0c-0.2,0-0.4,0-0.7,0l0,0c-0.1,0-0.1,0-0.2,0c-0.1,0-0.2,0-0.3,0c-0.3,0-0.7,0-1,0l0,0.1
		c2.2,0.2,4.5,0.5,6.7,0.8L128.7,336.9"/>
	<polyline class="st1" points="122.2,336.9 122.2,336.9 122.3,337.1 122.3,337.1 122.2,336.9 	"/>
	<path class="st14" d="M103.7,339c0,0.2,0.1,0.3,0.1,0.5c1.6,1.5,9.1,3.2,18.3,3.4c0-0.1,0-0.2,0.1-0.2c-0.2,0-0.3,0-0.5,0
		C116,342.6,109.8,341.7,103.7,339 M122.2,336.9c-0.4,0-0.8,0-1.1,0c0.4,0,0.8,0.1,1.2,0.1L122.2,336.9"/>
	<path class="st15" d="M103.6,338.9c0,0.2,0.1,0.4,0.3,0.5c0-0.2-0.1-0.3-0.1-0.5C103.7,339,103.6,339,103.6,338.9"/>
	<path class="st14" d="M124.1,342.5c-0.6,0-1.2,0-1.8,0c0,0.1-0.1,0.2-0.1,0.2c0.5,0,1,0,1.5,0c0,0,0,0,0.1,0c0.2,0,0.3,0,0.5,0
		C124.2,342.8,124.2,342.6,124.1,342.5"/>
	<path class="st16" d="M81.4,419.6c-0.1,1.2-0.2,2.3-0.2,3.5c0,23.4,19,42.5,42.4,42.5c23.4,0,42.4-19,42.5-42.4
		c0-1.2-0.1-2.3-0.2-3.5L81.4,419.6"/>
	<path class="st17" d="M166,419.7c0,1.5-18.9,2.7-42.3,2.7c-23.3,0-42.3-1.3-42.3-2.8c0-1.5,18.9-2.7,42.3-2.7
		C147.1,416.9,166,418.2,166,419.7"/>
	<path class="st1" d="M122.3,382.7c-3.3,0.2-6.9,0.8-10.6,2c-1.8,0.5-3.4,1.2-5,1.9l3,12.4c2.7-1.5,5.6-2.6,8.7-3.2
		c1-0.2,2-0.4,2.9-0.5c0-0.3,0-0.7,0-1l0,0l0,0l0,0c0,0,0,0,0,0c0,0,0,0,0,0c0,0,0,0,0,0c0,0,0,0,0,0c0,0,0,0,0,0c0,0,0,0,0,0
		c0,0,0,0,0,0c0,0,0,0,0,0c0,0,0,0,0,0c0,0,0,0,0,0c0-2,0.4-3.9,1.1-5.6c0-0.1,0-0.3,0-0.4c0-0.8,0.5-1.5,1.2-1.8
		c0.6-1,1.3-1.9,2.1-2.8L122.3,382.7"/>
	<path class="st1" d="M124.8,382.7c-0.8,0-1.6,0-2.5,0.1l3.5,0.7c0.2-0.2,0.4-0.5,0.7-0.7C125.9,382.7,125.3,382.7,124.8,382.7"/>
	<path class="st18" d="M106.7,386.6c-15.3,7.1-20.3,22.4-21.9,31.9c1.3-0.2,2.9-0.4,4.7-0.5c4.5-6.2,11.4-14.3,20.2-19L106.7,386.6"
		/>
	<path class="st19" d="M84.5,420.6c-0.5,3.7-0.5,6.1-0.5,6.1s1.2-2.3,3.4-5.7C86.3,420.9,85.3,420.8,84.5,420.6"/>
	<path class="st20" d="M89.5,418c-1.9,0.2-3.5,0.3-4.7,0.5c-0.1,0.7-0.2,1.4-0.3,2.1c0.8,0.1,1.8,0.3,3,0.4
		C88.1,420.1,88.8,419.1,89.5,418"/>
	<path class="st1" d="M121.6,400.6c-3.3,0-6,2.7-6,6c0,3.3,2.7,6,6,6c0,0,0,0,0,0c1.3,0,2.5-0.4,3.4-1.1c-1.9-3.6-2.9-7.3-3.3-11
		C121.7,400.6,121.6,400.6,121.6,400.6C121.6,400.6,121.6,400.6,121.6,400.6"/>
	<path class="st21" d="M129.5,426.8c-3.2,0-5.8,2.6-5.8,5.8c0,3.2,2.6,5.8,5.8,5.8c0,0,0,0,0,0c3.2,0,5.8-2.6,5.8-5.8
		C135.3,429.4,132.7,426.8,129.5,426.8C129.5,426.8,129.5,426.8,129.5,426.8"/>
	<path class="st21" d="M106.3,429.4c-3,0-5.4,2.4-5.4,5.4c0,3,2.4,5.4,5.4,5.4c0,0,0,0,0,0c3,0,5.4-2.4,5.4-5.4
		C111.8,431.8,109.3,429.4,106.3,429.4C106.3,429.4,106.3,429.4,106.3,429.4"/>
	<path class="st22" d="M104.6,409.9c-2,0-3.6,1.6-3.6,3.6c0,2,1.6,3.6,3.6,3.6c0,0,0,0,0,0c2,0,3.6-1.6,3.6-3.6
		C108.2,411.5,106.6,409.9,104.6,409.9C104.6,409.9,104.6,409.9,104.6,409.9"/>
	<path class="st1" d="M123.6,386.2c-0.7,0.3-1.2,1-1.2,1.8c0,0.1,0,0.3,0,0.4C122.8,387.6,123.2,386.9,123.6,386.2"/>
	<path class="st21" d="M141.8,428.2c-1.8,0-3.3,1.5-3.3,3.3c0,0.9,0.4,1.7,1,2.3c1.4-1.4,3.1-2.5,4.9-3.3c0.2-0.1,0.3-0.2,0.5-0.3
		C144.3,429.1,143.1,428.2,141.8,428.2C141.8,428.2,141.8,428.2,141.8,428.2"/>
	<path class="st21" d="M129.2,446.4c-1.6,0-2.8,1.3-2.8,2.8c0,1.6,1.3,2.8,2.8,2.8c0,0,0,0,0,0c1.6,0,2.8-1.3,2.8-2.8
		C132,447.6,130.7,446.4,129.2,446.4C129.2,446.4,129.2,446.4,129.2,446.4"/>
	<path class="st23" d="M433,445.5c0,2.4,16,4.1,35.7,3.9c19.7-0.2,35.7-2.3,35.6-4.7c0-2.4-16-4.1-35.7-3.9
		C449,441,433,443.1,433,445.5z"/>
	<path class="st2" d="M433.1,454.1c0,2.4,16,4.1,35.7,3.9s35.7-2.3,35.6-4.7c0-2.4-16-4.1-35.7-3.9
		C449.1,449.6,433.1,451.7,433.1,454.1z"/>
	
		<rect x="433.1" y="445.1" transform="matrix(0.9999 -1.052343e-02 1.052343e-02 0.9999 -4.7034 4.9579)" class="st3" width="71.4" height="8.6"/>
	<path class="st3" d="M433,445.5c0,2.4,16,4.1,35.7,3.9c19.7-0.2,35.7-2.3,35.6-4.7c0-2.4-16-4.1-35.7-3.9
		C449,441,433,443.1,433,445.5z"/>
	
		<rect x="462.6" y="420.2" transform="matrix(0.9999 -1.052097e-02 1.052097e-02 0.9999 -4.5271 4.9643)" class="st3" width="14" height="25.2"/>
	<path class="st2" d="M455.2,426.2c-0.1,0-0.2,0-0.2,0l0-7.2c0.4,0,35.7-0.3,58.3-23c12.7-12.9,19-30.5,18.8-52.5
		c-0.3-31.7-13.6-54-39.4-66.3c-19.5-9.3-39.1-9.2-39.3-9.2l-0.1-7.2c0.9,0,21.4-0.1,42.4,9.9c12.5,5.9,22.4,14.2,29.7,24.6
		c9,12.9,13.7,29.1,13.9,48.1c0.3,24-6.8,43.4-20.9,57.7c-12.9,13-29.5,19.2-41,22C465.6,426,456.7,426.2,455.2,426.2z"/>
	<polyline class="st3" points="459.6,429.7 450.6,429.8 448.7,256.7 457.8,256.6 459.6,429.7 	"/>
	<path class="st2" d="M459.5,421l-1.7-159.6c-3,0.2-6,0.6-9,1.1l1.7,160.2C453.5,422.4,456.6,421.9,459.5,421"/>
	<path class="st24" d="M525.7,342.5c0.4,39.5-31.3,71.9-70.8,72.3c-39.5,0.4-71.9-31.3-72.3-70.8c-0.4-39.5,31.3-71.9,70.8-72.3
		C492.9,271.3,525.3,303,525.7,342.5"/>
	<path class="st25" d="M516.3,307.8c-0.2,5-0.9,9.9-2.1,14.8c-4.3,16.9-16,31.2-28.8,42.7c-12.5,11.1-27,19.9-42.4,26.3
		c-9.9,4.2-20.3,7.3-30.9,9.5c12,8.7,26.8,13.8,42.7,13.6c39.5-0.4,71.2-32.8,70.8-72.3C525.6,329.9,522.2,318.1,516.3,307.8z"/>
	<path class="st26" d="M438,306.3c8-8.3,14.8-17.8,19.6-28.3c0.9-2,1.7-4,2.4-6.1c-2.2-0.2-4.4-0.3-6.6-0.2
		c-39.5,0.4-71.2,32.8-70.8,72.3c0,0.4,0,0.7,0,1.1C403.8,336.7,422.3,322.6,438,306.3"/>
	<g>
		<defs>
			<path id="SVGID_1_" d="M525.7,342.5c0.4,39.5-31.3,71.9-70.8,72.3c-39.5,0.4-71.9-31.3-72.3-70.8c-0.4-39.5,31.3-71.9,70.8-72.3
				C492.9,271.3,525.3,303,525.7,342.5"/>
		</defs>
		<clipPath id="SVGID_2_">
			<use xlink:href="#SVGID_1_"  style="overflow:visible;"/>
		</clipPath>
		<path class="st27" d="M513,296.8c-1.5-0.9-20.1,17-13.4,27.1c6.7,10.1-5.4,19.2-1.1,27.3c4.2,8.2,26.9,14.6,26.9,14.6
			S549.5,318.2,513,296.8z"/>
		<path class="st27" d="M410,280.2c0,0,43.2,9,43.8,25c0.6,16-14.9,24.2-11,30.4c4,6.2,9.8,24.6-1.9,28.6c-11.7,4-12.8,9.1-9.7,10.3
			c3.1,1.1,20.1,15,5.1,34.7c-15,19.7-3.2-1.3-7.9-7.1c-3.3-4-10.5-9.1-10.3-16.3c0.1-3.3,1.1-9.4,6.3-11.2
			c14.8-5.1-33.2-16.2-24.7-25.6c8.5-9.4,6.6-15.6-1.6-21.4C390.1,321.8,360.9,290.8,410,280.2"/>
	</g>
	<path class="st3" d="M462.7,445.4c0,1,3.2,1.9,7,1.8c3.9,0,7-0.9,7-2c0-1-3.2-1.9-7-1.8C465.8,443.5,462.7,444.4,462.7,445.4z"/>
	<path class="st28" d="M451.3,289.6c-1.2,1.9-2.5,3.7-3.8,5.6c3.7,2.9,6.1,6.3,6.2,10c0.6,16-14.9,24.2-11,30.4
		c2.2,3.4,4.9,10.5,5,16.8c15.7-2.2,27.8-15.8,27.6-32.1C475.2,305.5,465,293.1,451.3,289.6"/>
	<path class="st29" d="M443.4,288.6c-0.1,0-0.2,0-0.3,0c-1.9,0-3.8,0.2-5.6,0.5c3.7,1.8,7.3,3.8,10.1,6c1.3-1.8,2.6-3.7,3.8-5.6
		C448.8,288.9,446.1,288.6,443.4,288.6"/>
	<path class="st30" d="M437.5,289.1c-5.5,1-10.4,3.4-14.5,6.8c2.1,8.2,3.2,16.5,3,24.9c-0.2,7.8-1.8,15.6-4.8,22.8
		c5.8,5.6,13.6,9,22.3,9c0.1,0,0.2,0,0.3,0c1.4,0,2.8-0.1,4.1-0.3c-0.1-6.3-2.8-13.4-5-16.8c-4-6.2,11.5-14.4,11-30.4
		c-0.1-3.7-2.6-7.1-6.2-10C444.7,292.9,441.2,290.9,437.5,289.1"/>
	<path class="st28" d="M448.2,358.3c0,0-0.1,0-0.1,0c-0.4,0-0.8,0-1.2,0.1c-1,2.6-2.9,4.7-6,5.8c-1,0.3-1.9,0.7-2.7,1
		c-0.5,1.2-0.7,2.6-0.7,4c0.1,5.9,4.9,10.6,10.7,10.6c0,0,0.1,0,0.1,0c5.9-0.1,10.7-4.9,10.6-10.9
		C458.9,363,454.1,358.3,448.2,358.3"/>
	<path class="st30" d="M446.9,358.4c-4,0.5-7.3,3.2-8.7,6.8c0.8-0.4,1.8-0.7,2.7-1C444,363.1,445.9,361,446.9,358.4"/>
	<path class="st4" d="M481.5,206l10.8,13.8l-24.3,20.2l-10.8-13.8C457.1,226.3,461.9,213.6,481.5,206z"/>
	<polygon class="st16" points="473.3,196.2 394,96.2 369.4,115.7 449.6,216.8 	"/>
	<polygon class="st31" points="394,96.2 364.6,85.5 369.4,115.7 378.3,117.5 379.2,109.8 386.7,110.7 387.5,103.8 394.6,104.6 	"/>
	<path class="st32" d="M389.3,97.4c-3,3.2-6.2,6.2-9.8,8.7c-3.3,2.3-7,4-10.7,4.9l0.8,4.8l8.9,1.8l0.9-7.7l7.6,0.9l0.8-6.9l7.1,0.8
		l-0.6-8.4l-2.7-1C390.5,96.1,389.8,96.8,389.3,97.4z"/>
	<path class="st33" d="M379.4,90.9l-14.8-5.4l2.4,14.8l0.2,0C372.6,99.5,377.2,95.9,379.4,90.9z"/>
	<polygon class="st17" points="473.3,196.2 394,96.2 394.6,104.6 387.5,103.8 386.7,110.7 460.4,204.5 	"/>
	<path class="st34" d="M366.9,94.9c-0.3-0.2-0.6-0.4-0.9-0.7l1,6.1l0.2,0c4.9-0.7,9.1-3.7,11.5-7.9C375.1,95,370.9,97.4,366.9,94.9z
		"/>
	<path class="st25" d="M446.9,213.3l10.2,13.1c0,0,4.6-6.1,11.2-11.6c3.2-2.6,13.2-8.7,13.2-8.7l-10.8-13.2
		C470.7,192.9,454.4,197.1,446.9,213.3z"/>
	<path class="st35" d="M468.3,214.8c0.6-0.5,1.5-1.1,2.5-1.8c1-4.5,3.3-8.8,5.8-12.8l-2.2-2.6c-2.3,3.7-4.3,7.5-5.9,11.6
		c-1,2.5-1.7,5-2.5,7.6C466.8,216,467.6,215.4,468.3,214.8z"/>
	<path class="st35" d="M463.1,219.5L463.1,219.5c0.9-3.4,1.9-6.7,3-9.9c1.7-4.9,4.1-9.5,6.9-13.9l-2.4-2.9c0,0-2.3,0.6-5.6,2.2
		c-2,3.4-3.7,7-5,10.8c-1.7,4.9-2.7,9.9-3.1,15c-0.1,1.4-0.4,3.3-0.5,4.9l0.5,0.6C457.1,226.3,459.5,223.2,463.1,219.5z"/>
	<path class="st6" d="M492.2,219.9c-0.9-1.1-7.1,2.6-13.8,8.1c-6.7,5.6-11.4,11-10.5,12.1c0.9,1.1,7.1-2.6,13.8-8.1
		C488.4,226.4,493.1,221,492.2,219.9z"/>
	<path class="st6" d="M475.7,424.8c0,0,14.9-22.3,30.3-9.9c5.3,4.3,8.3,10.9,8.4,17.8c0.2,11.7-4.2,30.9-34.5,34
		c-44,4.4-45-24.4-42.8-38.6S460.6,405,475.7,424.8z"/>
	<path class="st36" d="M467.3,416.9c-13.6-8.6-28.4-0.5-30.2,11.2c-0.6,4.1-1,9.4-0.1,14.8C451.1,442.3,464.1,430.5,467.3,416.9z"/>
	<path class="st4" d="M506,414.9c-0.4-0.4-0.9-0.7-1.3-1c0.5,2.9,0.7,5.7,0.6,8.4c-0.3,9.7-5.7,18-12.3,24.7
		c-7.7,7.9-16.7,14.9-27,19.2c-0.4,0.2-0.8,0.3-1.2,0.5c4.4,0.5,9.4,0.4,15.1-0.1c30.3-3.1,34.7-22.3,34.5-34
		C514.3,425.8,511.3,419.2,506,414.9z"/>
	<path class="st24" d="M475.7,424.8c0,0-9.9-26.5,17.8-35.4C493.5,389.4,509.4,414.6,475.7,424.8z"/>
	<path class="st24" d="M484.5,408.9c-2.5,2.3-6.5,5.4-10.5,6.6c0.2,5.4,1.7,9.3,1.7,9.3c26.9-8.1,22.2-25.8,19.2-32.6
		C493.2,398.6,489.1,404.7,484.5,408.9z"/>
	<path class="st24" d="M475.7,424.8c0,0,6.7-30.2-13.9-41.2C461.8,383.6,476,393.7,475.7,424.8z"/>
	<path class="st37" d="M113.9,189.7l16.2,39c1.6,4,17.7,1.1,35.8-6.5c18.1-7.5,31.5-16.8,29.8-20.8l-16.2-39L113.9,189.7z"/>
	<polygon class="st25" points="135.2,148.2 75.6,205.6 158.3,203.9 217.9,146.5 	"/>
	<path class="st16" d="M192.6,190.3l-2.5,1.1l-4.9-11.8c-0.2-0.4-0.5-0.7-1-0.7l-37.5-1.3l0.1-2.8l37.5,1.3c1.5,0.1,2.8,1,3.4,2.4
		L192.6,190.3z"/>
	<path class="st17" d="M192.9,191.3l-1.1,0.5l-1.1,0.5c-0.6,1-0.8,2.3-0.3,3.4l2.6,6.2l2.6-1.1l2.6-1.1l-2.6-6.2
		C195,192.3,194,191.5,192.9,191.3z"/>
	<path class="st17" d="M190.6,192.2l2.3-0.9c0.8-0.3,1.2-1.2,0.8-2l-0.9-2.1c-0.3-0.8-1.2-1.2-2-0.8l-2.3,0.9
		c-0.8,0.3-1.2,1.2-0.8,2l0.9,2.1C188.9,192.2,189.8,192.6,190.6,192.2z"/>
	<path class="st17" d="M143.7,173.6L143.7,173.6c-3.7,2.5-2.6,5.3,1.8,4.4c1.2-0.3,2.5-0.8,3.5-1.5c3.7-2.5,2.6-5.3-1.8-4.4
		C145.9,172.4,144.7,172.9,143.7,173.6z"/>
	<path class="st17" d="M144.1,173.7L144.1,173.7c-3,1.8-2.4,3.4,1,2.5c0.9-0.2,1.9-0.7,2.8-1.2c3-1.8,2.4-3.4-1-2.5
		C146,172.8,145,173.2,144.1,173.7z"/>
	<path class="st38" d="M59.4,249.8L59.4,249.8c-1.9,0.5-4.5-3.5-5.9-8.9s-1-10.2,0.8-10.7l-1.1-4.1l-6.6,1.7l7.2,27.7l6.6-1.7
		L59.4,249.8z"/>
	
		<rect x="45.6" y="221.6" transform="matrix(0.9681 -0.2505 0.2505 0.9681 -54.3018 19.3758)" class="st38" width="6.8" height="2.9"/>
	
		<rect x="54.8" y="257.2" transform="matrix(0.9681 -0.2505 0.2505 0.9681 -62.9415 22.8249)" class="st38" width="6.8" height="2.9"/>
	<path class="st39" d="M49.9,213.1l-5.6,1.4c-0.6,0.1-0.9,0.7-0.8,1.3l1.7,6.6l6.6-1.7L49.9,213.1z"/>
	<polygon class="st39" points="55.2,260.9 56.1,264.1 64.5,275 65.8,274.7 61.8,259.2 	"/>
	
		<rect x="46.2" y="224.3" transform="matrix(0.9681 -0.2505 0.2505 0.9681 -54.9459 19.6325)" class="st1" width="6.8" height="2.7"/>
	
		<rect x="54.1" y="254.6" transform="matrix(0.9681 -0.2505 0.2505 0.9681 -62.2775 22.558)" class="st1" width="6.8" height="2.7"/>
	<path class="st40" d="M53.3,226.1l6.6-1.7l7.2,27.7l-6.6,1.7l-1.1-4.1c1.9-0.5,2.2-5.3,0.8-10.7c-1.4-5.4-4-9.4-5.9-8.9L53.3,226.1
		z M61.8,259.2l6.6-1.7l-0.7-2.8l-6.6,1.7L61.8,259.2z M51.9,220.7l0.7,2.8l6.6-1.7l-0.7-2.8L51.9,220.7z"/>
	<path class="st41" d="M58.5,219l-1.7-6.6c-0.1-0.6-0.7-0.9-1.3-0.8l-5.6,1.4l2,7.6L58.5,219z"/>
	<polygon class="st41" points="69.3,260.7 68.4,257.5 61.8,259.2 65.8,274.7 67.2,274.3 	"/>
	<path class="st1" d="M54.3,230.2c-1.9,0.5-2.2,5.3-0.8,10.7s4,9.4,5.9,8.9c1.9-0.5,2.2-5.3,0.8-10.7S56.2,229.7,54.3,230.2z"/>
	
		<rect x="52.8" y="222.6" transform="matrix(0.9681 -0.2505 0.2505 0.9681 -54.3119 21.2317)" class="st1" width="6.8" height="2.7"/>
	
		<rect x="60.7" y="252.9" transform="matrix(0.9681 -0.2505 0.2505 0.9681 -61.6561 24.1636)" class="st1" width="6.8" height="2.7"/>
	<path class="st2" d="M159.3,73.8c0,0-30.1-4.4-45.5,25.6c0,0,20.4-15.3,38.6-9.9L159.3,73.8z"/>
	<path class="st2" d="M179.2,97.1c0,0-0.3,30.4-32.4,41c0,0,18.3-17.7,15.8-36.5L179.2,97.1z"/>
	<path class="st24" d="M146.3,92.2c15.6-41.2,58.1-56.2,87.6-61.9c-10.3,28.3-31.7,67.9-74.9,76.8L146.3,92.2z"/>
	<path class="st25" d="M233.9,30.2l-81.3,69.4l6.4,7.5C202.2,98.1,223.6,58.5,233.9,30.2z"/>
	<polygon class="st2" points="152.7,99.6 146.3,92.2 141.3,101.6 145.1,106 148.9,110.5 159,107.1 	"/>
	<path class="st16" d="M208.2,65.1c-4.1,3.5-10.4,3.1-13.9-1.1c-3.5-4.1-3.1-10.4,1.1-13.9c4.1-3.5,10.4-3.1,13.9,1.1
		C212.9,55.4,212.4,61.6,208.2,65.1z"/>
	<path class="st17" d="M206.3,62.9c-2.9,2.5-7.3,2.2-9.8-0.8c-2.5-2.9-2.2-7.3,0.8-9.8c2.9-2.5,7.3-2.2,9.8,0.8
		C209.6,56,209.3,60.4,206.3,62.9z"/>
	<path class="st16" d="M206.2,60.3c-1,0.9-2.6,0.8-3.5-0.3s-0.8-2.6,0.3-3.5c1-0.9,2.6-0.8,3.5,0.3
		C207.3,57.9,207.2,59.4,206.2,60.3z"/>
	<polygon class="st42" points="503.4,80.9 503.4,113.1 413.5,25.8 	"/>
	<polygon class="st1" points="496.6,87.1 468.1,113.1 413.5,25.8 	"/>
	<polygon class="st1" points="503.4,80.9 413.5,25.8 529.3,57.4 	"/>
	<polygon class="st43" points="496.6,87.1 503.4,113.1 485.3,97.4 	"/>
	<path class="st1" d="M19.4,125.7c0.1,0.1,0.1,0.2,0.1,0.3c0,0.1,0,0.3-0.1,0.4c-0.1,0.1-0.2,0.2-0.2,0.2c-0.4,0-0.6-0.3-0.8-0.8
		c-0.2-0.5-0.3-1-0.5-1.3c-0.2,0-0.5,0.1-0.7,0.1c-0.3,0.1-0.5,0.2-0.6,0.3c-0.1,0.2-0.1,0.6-0.2,1.2c-0.1,0.5-0.1,0.9-0.2,1.2
		c0,0.1-0.2,0.2-0.4,0.1c-0.2-0.1-0.4-0.1-0.4-0.3c-0.1-0.3,0-0.6,0.1-1.1c0.2-0.5,0.2-0.9,0.2-1.2c0-0.1-0.1-0.1-0.2-0.2
		c-0.1-0.1-0.2-0.1-0.2-0.2l0-0.1c0,0,0.1-0.1,0.2-0.1c0.1,0,0.2-0.1,0.2-0.1c0.1-0.4,0.2-1.1,0.4-2.1c0.1-0.9,0.3-1.5,0.4-2
		c0-0.1,0.1-0.2,0.3-0.2c0.1,0,0.2,0,0.3,0.1c0.2,0.2,0.4,0.4,0.5,0.7c0.1,0.3,0.1,0.6,0.2,0.9C18.4,123.3,18.9,124.6,19.4,125.7z
		 M17.7,123.8c-0.1-0.3-0.1-0.6-0.2-0.9c-0.1-0.3-0.2-0.6-0.3-0.8c-0.2,0.6-0.3,1.2-0.4,1.8C16.9,123.9,17.2,123.9,17.7,123.8z"/>
	<path class="st1" d="M23,126c0,0.1-0.2,0.2-0.5,0.3c-0.2,0.1-0.5,0.1-0.9,0.1c-0.4,0-0.7,0.1-0.8,0.1c-0.2,0-0.3,0-0.4,0
		c-0.4,0-0.7-0.1-0.9-0.4c0.1-0.4,0.4-1,0.7-1.8c0.3-0.8,0.6-1.4,0.7-1.8c0.1-0.2,0.2-0.5,0.2-0.7c0.1-0.3,0.1-0.5,0.1-0.7
		c0-0.3-0.1-0.4-0.3-0.4c-0.1,0-0.2,0.1-0.3,0.3c-0.1,0.2-0.2,0.4-0.3,0.6l0,0.1c0,0,0,0.1,0.1,0.2c0.1,0.1,0.1,0.2,0.1,0.2
		l-0.1,0.2l-0.2,0.1c-0.1,0-0.3-0.1-0.6-0.3c-0.1-0.1-0.2-0.2-0.2-0.3c0-0.2,0-0.4,0.1-0.6c0.3-0.6,0.7-1,1.3-1.3l0.2-0.1
		c0.3,0,0.6,0.1,0.7,0.4c0.1,0.2,0.1,0.4,0.2,0.6c0,0.4,0,0.8-0.1,1.3c-0.1,0.4-0.3,0.8-0.4,1.2c-0.1,0.2-0.2,0.6-0.4,1.1
		c-0.2,0.5-0.3,0.8-0.4,1.1c0.1,0,0.4,0,1-0.1c0.4,0,0.7,0,1,0c0.2,0,0.3,0.2,0.3,0.4L23,126z"/>
	<path class="st1" d="M30.3,122.2c0,0.1,0,0.2,0,0.3c0,0.1,0,0.1-0.1,0.2c-0.2,0-0.5,0.1-0.9,0.1c-0.3,0.1-0.7,0.1-1.2,0.3
		c-0.2,0-0.8,0.2-1.6,0.4l-0.2-0.1c-0.2-0.2-0.2-0.4-0.1-0.7l0-0.1l0.1,0c0.5-0.2,1-0.3,1.5-0.5c0.4-0.1,0.9-0.2,1.5-0.3
		c0.1,0,0.2,0,0.3-0.1c0.1,0,0.2,0,0.3-0.1c0.2,0,0.3,0,0.4,0.1C30.3,121.9,30.3,122,30.3,122.2z"/>
	<path class="st1" d="M37.1,119.6c-0.1,0.4-0.3,0.8-0.6,1.1c-0.3,0.3-0.7,0.6-1,0.9c0,0.1,0.1,0.2,0.2,0.2s0.3,0.1,0.4,0.1
		c0.6,0.3,1,0.7,1,1.3c0,0.4-0.1,0.8-0.3,1.2c-0.2,0.3-0.5,0.6-0.9,0.9c-0.3,0.2-0.6,0.5-1,0.7c-0.1,0.1-0.2,0.1-0.3,0.1
		c-0.2,0-0.4-0.1-0.5-0.2c-0.1-0.6-0.1-1.2-0.2-1.8c-0.1-0.7-0.1-1.3-0.1-1.8c-0.2-0.1-0.3-0.2-0.3-0.3l0.1-0.2l0.2-0.2
		c0-1.1-0.1-2.1-0.3-3c-0.3,0-0.6-0.2-0.7-0.4l0-0.1l0-0.1c0.2-0.1,0.3-0.2,0.5-0.2c0.1,0,0.2,0,0.4,0c0.2,0,0.4,0,0.4,0
		c0.4,0,0.7,0.1,1.1,0.2c0.8,0.3,1.3,0.7,1.5,1C37.1,119.2,37.1,119.4,37.1,119.6z M36,119.2c-0.1-0.3-0.3-0.4-0.7-0.5
		c-0.1,0-0.2-0.1-0.3-0.1c-0.1,0-0.2-0.1-0.2-0.1l-0.1,0c0,0.1,0,0.3,0,0.4c0,0.2,0.1,0.5,0.1,0.9c0.1,0.4,0.1,0.7,0.1,1
		c0.1,0,0.1-0.1,0.2-0.1c0.1-0.1,0.1-0.1,0.2-0.1c0.2-0.1,0.4-0.3,0.5-0.6C36.1,119.7,36.1,119.4,36,119.2z M36.2,123.4l0-0.2
		c0-0.2-0.1-0.4-0.3-0.5c-0.4-0.1-0.6-0.2-0.7-0.2l-0.2,0l0,0.2c0,0.2,0,0.4,0,0.7c0,0.3,0,0.6,0,0.7c0,0.2,0.1,0.4,0.2,0.6
		c0.1-0.1,0.2-0.2,0.4-0.4c0.2-0.1,0.3-0.2,0.3-0.3C36.1,123.9,36.1,123.7,36.2,123.4z"/>
	<path class="st1" d="M41.2,124c0,0.1-0.2,0.2-0.5,0.3c-0.2,0.1-0.5,0.1-0.9,0.1c-0.4,0-0.7,0.1-0.8,0.1c-0.2,0-0.3,0-0.4,0
		c-0.4,0-0.7-0.1-0.9-0.4c0.1-0.4,0.4-1,0.7-1.8c0.3-0.8,0.6-1.4,0.7-1.8c0.1-0.2,0.2-0.5,0.2-0.7c0.1-0.3,0.1-0.5,0.1-0.7
		c0-0.3-0.1-0.4-0.3-0.4c-0.1,0-0.2,0.1-0.3,0.3c-0.1,0.2-0.2,0.4-0.3,0.6l0,0.1c0,0,0,0.1,0.1,0.2c0,0.1,0.1,0.2,0.1,0.2l-0.1,0.2
		l-0.2,0.1c-0.1,0-0.3-0.1-0.6-0.3c-0.1-0.1-0.2-0.2-0.2-0.3c0-0.2,0-0.4,0.1-0.6c0.3-0.6,0.7-1,1.3-1.3l0.2-0.1
		c0.3,0,0.6,0.1,0.7,0.4c0.1,0.2,0.1,0.4,0.2,0.6c0,0.4,0,0.8-0.1,1.3c-0.1,0.4-0.3,0.8-0.4,1.2c-0.1,0.2-0.2,0.6-0.4,1.1
		c-0.2,0.4-0.3,0.8-0.4,1.1c0.1,0,0.4,0,1-0.1c0.4,0,0.7,0,1,0c0.2,0,0.3,0.2,0.3,0.4L41.2,124z"/>
	<path class="st1" d="M48.3,119.3c0,0.1,0,0.2,0,0.3c0,0.1,0,0.2-0.1,0.2c-0.2,0-0.5,0.1-0.9,0.1c-0.3,0.1-0.7,0.1-1.2,0.3
		c-0.2,0-0.8,0.2-1.6,0.4l-0.2-0.1c-0.2-0.1-0.2-0.4-0.1-0.7l0-0.1l0.1,0c0.5-0.2,1-0.3,1.5-0.5c0.4-0.1,0.9-0.2,1.5-0.3
		c0.1,0,0.2,0,0.3-0.1c0.1,0,0.2,0,0.3-0.1c0.2,0,0.3,0,0.4,0.1C48.3,119,48.4,119.1,48.3,119.3z M48.6,121.3c0,0.1,0,0.2,0,0.3
		c0,0.1,0,0.1-0.1,0.2c-0.2,0-0.5,0.1-0.9,0.1c-0.3,0.1-0.7,0.1-1.2,0.3c-0.3,0.1-0.6,0.1-0.8,0.2c-0.2,0-0.5,0.1-0.8,0.2l-0.2-0.1
		c-0.1-0.1-0.2-0.4-0.1-0.6l0-0.1l0.1,0c0.5-0.2,1-0.3,1.5-0.5c0.4-0.1,0.9-0.2,1.5-0.3c0.1,0,0.2,0,0.3-0.1c0.1,0,0.2,0,0.3-0.1
		c0.2,0,0.3,0,0.4,0.1C48.5,121,48.6,121.1,48.6,121.3z"/>
	<path class="st1" d="M54.2,115.7c-0.8,2-1.2,3.6-1.2,4.8c0,0.5,0,0.9,0,1.2c0.1,1,0.4,1.6,0.9,2.1c0.1,0,0.2,0.1,0.4,0.1
		c0.2,0,0.3,0.1,0.3,0.2c0.1,0.2,0,0.2-0.1,0.3l-0.2,0c-0.4,0-0.7-0.1-1-0.3c-0.6-0.5-1-1.3-1.1-2.3c-0.1-0.7,0-1.6,0.1-2.6
		c0-0.1,0.2-0.7,0.4-1.7c0.1-0.3,0.2-0.7,0.3-1c0.1-0.4,0.3-0.6,0.5-0.8c0.1,0,0.1-0.1,0.2-0.1c0.1,0,0.2,0,0.3,0
		C54.2,115.5,54.2,115.6,54.2,115.7L54.2,115.7z"/>
	<path class="st1" d="M59.5,121.4c0.1,0.1,0.1,0.2,0.1,0.3c0,0.1,0,0.3-0.1,0.4c-0.1,0.1-0.2,0.2-0.2,0.2c-0.4,0-0.6-0.3-0.8-0.8
		c-0.2-0.5-0.3-1-0.5-1.3c-0.2,0-0.5,0.1-0.7,0.1c-0.3,0.1-0.5,0.2-0.6,0.3c-0.1,0.2-0.1,0.6-0.2,1.2c-0.1,0.5-0.1,0.9-0.2,1.2
		c0,0.1-0.2,0.2-0.4,0.1c-0.2-0.1-0.4-0.1-0.4-0.3c-0.1-0.3,0-0.6,0.1-1.1c0.2-0.5,0.2-0.9,0.2-1.2c0-0.1-0.1-0.1-0.2-0.2
		c-0.1-0.1-0.2-0.1-0.2-0.2l0-0.1c0,0,0.1-0.1,0.2-0.1c0.1,0,0.2-0.1,0.2-0.1c0.1-0.4,0.2-1.1,0.4-2.1c0.1-0.9,0.3-1.5,0.4-2
		c0-0.1,0.1-0.2,0.3-0.2c0.1,0,0.2,0,0.3,0.1c0.2,0.2,0.4,0.4,0.5,0.7c0.1,0.3,0.1,0.6,0.2,0.9C58.4,119,59,120.3,59.5,121.4z
		 M57.7,119.5c0-0.3-0.1-0.6-0.2-0.9c-0.1-0.3-0.2-0.6-0.3-0.8c-0.2,0.6-0.3,1.2-0.4,1.8C56.9,119.6,57.2,119.5,57.7,119.5z"/>
	<path class="st1" d="M66.5,118.2c0,0.1,0,0.2,0,0.3c0,0.1,0,0.1-0.1,0.2c-0.2,0-0.5,0.1-0.9,0.1c-0.3,0.1-0.7,0.1-1.2,0.3
		c-0.2,0-0.8,0.2-1.6,0.5l-0.2-0.1c-0.2-0.2-0.2-0.4-0.1-0.7l0-0.1l0.1,0c0.5-0.2,1-0.3,1.5-0.5c0.4-0.1,0.9-0.2,1.5-0.3
		c0.1,0,0.2,0,0.3-0.1c0.1,0,0.2,0,0.3-0.1c0.2,0,0.3,0,0.4,0.1C66.5,117.9,66.6,118,66.5,118.2z"/>
	<path class="st1" d="M73.4,115.6c-0.1,0.4-0.2,0.8-0.6,1.1c-0.3,0.3-0.7,0.6-1,0.9c0,0.1,0.1,0.2,0.2,0.2c0.1,0,0.3,0.1,0.4,0.1
		c0.6,0.3,1,0.7,1,1.3c0,0.4-0.1,0.8-0.3,1.2c-0.2,0.3-0.5,0.6-0.9,0.9c-0.3,0.2-0.6,0.5-1,0.7c-0.1,0.1-0.2,0.1-0.3,0.1
		c-0.2,0-0.4-0.1-0.5-0.2c-0.1-0.6-0.1-1.2-0.2-1.8c-0.1-0.7-0.1-1.3-0.1-1.8c-0.2-0.1-0.2-0.2-0.3-0.3l0.1-0.2l0.2-0.2
		c0-1.1-0.1-2.1-0.3-3c-0.3,0-0.6-0.2-0.7-0.4l0-0.1l0-0.1c0.2-0.1,0.3-0.2,0.5-0.2c0.1,0,0.2,0,0.4,0c0.2,0,0.4,0,0.4,0
		c0.4,0,0.7,0.1,1.1,0.2c0.8,0.3,1.3,0.7,1.5,1C73.4,115.2,73.4,115.5,73.4,115.6z M72.3,115.2c-0.1-0.3-0.3-0.4-0.7-0.5
		c-0.1,0-0.2-0.1-0.3-0.1c-0.1,0-0.2-0.1-0.2-0.1l-0.1,0c0,0.1,0,0.3,0,0.4c0,0.2,0.1,0.5,0.1,0.9c0.1,0.4,0.1,0.7,0.1,1
		c0.1,0,0.1-0.1,0.2-0.1c0.1-0.1,0.1-0.1,0.2-0.1c0.2-0.1,0.4-0.3,0.5-0.6C72.3,115.7,72.4,115.5,72.3,115.2z M72.5,119.5l0-0.2
		c0-0.2-0.1-0.4-0.3-0.6c-0.4-0.1-0.6-0.2-0.7-0.2l-0.2,0l0,0.2c0,0.2,0,0.4,0,0.7c0,0.3,0,0.6,0,0.7c0,0.2,0.1,0.4,0.2,0.6
		c0.1-0.1,0.2-0.2,0.4-0.4c0.2-0.1,0.3-0.2,0.4-0.3C72.4,119.9,72.4,119.7,72.5,119.5z"/>
	<path class="st1" d="M76.6,118.6c0,1.2-0.5,2.5-1.5,3.7l-0.2,0.1c-0.2,0-0.3,0-0.5-0.1l-0.1-0.1l0-0.2c1.1-1.4,1.5-3,1.3-4.7
		c-0.2-1.4-0.6-2.7-1.5-3.8l0-0.1c0-0.1,0-0.2,0.1-0.3c0.1-0.1,0.2-0.1,0.3-0.1c0.1,0,0.2,0,0.3,0.1c0.9,0.7,1.5,1.9,1.7,3.6
		C76.6,117.2,76.6,117.8,76.6,118.6z"/>
	<path class="st1" d="M79.9,112.9c-0.8,2-1.2,3.6-1.2,4.8c0,0.5,0,0.9,0,1.2c0.1,1,0.4,1.6,0.9,2.1c0.1,0,0.2,0.1,0.4,0.1
		c0.2,0,0.3,0.1,0.3,0.2c0.1,0.2,0,0.2-0.1,0.3l-0.2,0c-0.4,0-0.7-0.1-1-0.3c-0.6-0.5-1-1.3-1.1-2.3c-0.1-0.7,0-1.6,0.1-2.6
		c0-0.1,0.2-0.7,0.4-1.7c0.1-0.3,0.2-0.7,0.3-1c0.1-0.4,0.3-0.6,0.5-0.8c0.1,0,0.1-0.1,0.2-0.1c0.1,0,0.2,0,0.3,0
		C79.9,112.7,79.9,112.8,79.9,112.9L79.9,112.9z"/>
	<path class="st1" d="M85.1,118.6c0.1,0.1,0.1,0.2,0.1,0.3c0,0.1,0,0.3-0.1,0.4c-0.1,0.1-0.2,0.2-0.2,0.2c-0.4,0-0.6-0.3-0.8-0.8
		c-0.2-0.5-0.3-1-0.5-1.3c-0.2,0-0.5,0.1-0.7,0.1c-0.3,0.1-0.5,0.2-0.6,0.3c-0.1,0.2-0.1,0.6-0.2,1.2c-0.1,0.5-0.1,0.9-0.2,1.2
		c0,0.1-0.2,0.2-0.4,0.1c-0.2-0.1-0.4-0.1-0.4-0.3c-0.1-0.3,0-0.6,0.1-1.1c0.2-0.5,0.2-0.9,0.2-1.2c0-0.1-0.1-0.1-0.2-0.2
		c-0.1-0.1-0.2-0.1-0.2-0.2l0-0.1c0,0,0.1-0.1,0.2-0.1c0.1,0,0.2-0.1,0.2-0.1c0.1-0.4,0.2-1.1,0.4-2.1c0.1-0.9,0.3-1.5,0.4-2
		c0-0.1,0.1-0.2,0.3-0.2c0.1,0,0.2,0,0.3,0.1c0.2,0.2,0.4,0.4,0.5,0.7c0.1,0.3,0.1,0.6,0.2,0.9C84.1,116.2,84.6,117.5,85.1,118.6z
		 M83.4,116.7c-0.1-0.3-0.1-0.6-0.2-0.9c-0.1-0.3-0.2-0.6-0.3-0.8c-0.2,0.6-0.3,1.2-0.4,1.8C82.6,116.8,82.9,116.8,83.4,116.7z"/>
	<path class="st1" d="M96.8,113.1c-0.1,0.4-0.2,0.8-0.6,1.1c-0.3,0.3-0.7,0.6-1,0.9c0,0.1,0.1,0.2,0.2,0.2c0.1,0,0.3,0.1,0.4,0.1
		c0.6,0.3,1,0.7,1,1.3c0,0.4-0.1,0.8-0.3,1.2c-0.2,0.3-0.5,0.6-0.9,0.9c-0.3,0.2-0.6,0.5-1,0.7c-0.1,0.1-0.2,0.1-0.3,0.1
		c-0.2,0-0.4-0.1-0.5-0.2c-0.1-0.6-0.1-1.2-0.2-1.8c-0.1-0.7-0.1-1.3-0.1-1.8c-0.2-0.1-0.2-0.2-0.3-0.3l0.1-0.2l0.2-0.2
		c0-1.1-0.1-2.1-0.3-3c-0.3,0-0.6-0.2-0.7-0.4l0-0.1l0-0.1c0.2-0.1,0.3-0.2,0.5-0.2c0.1,0,0.2,0,0.4,0c0.2,0,0.4,0,0.4,0
		c0.3,0,0.7,0.1,1.1,0.2c0.8,0.3,1.3,0.7,1.5,1C96.8,112.7,96.9,112.9,96.8,113.1z M95.8,112.7c-0.1-0.3-0.3-0.4-0.7-0.5
		c-0.1,0-0.2-0.1-0.3-0.1c-0.1,0-0.2-0.1-0.2-0.1l-0.1,0c0,0.1,0,0.3,0,0.4c0,0.2,0.1,0.5,0.1,0.9c0.1,0.4,0.1,0.7,0.1,1
		c0.1,0,0.1-0.1,0.2-0.1c0.1-0.1,0.1-0.1,0.2-0.1c0.2-0.1,0.4-0.3,0.5-0.6C95.8,113.2,95.8,112.9,95.8,112.7z M95.9,116.9l0-0.2
		c0-0.2-0.1-0.4-0.3-0.5c-0.4-0.1-0.6-0.2-0.7-0.2l-0.2,0l0,0.2c0,0.2,0,0.4,0,0.7c0,0.3,0,0.6,0,0.7c0,0.2,0.1,0.4,0.2,0.6
		c0.1-0.1,0.2-0.2,0.4-0.4c0.2-0.1,0.3-0.2,0.4-0.3C95.8,117.4,95.9,117.2,95.9,116.9z"/>
	<path class="st1" d="M100.1,116c0,1.2-0.5,2.5-1.5,3.7l-0.2,0.1c-0.2,0-0.3,0-0.5-0.1l-0.1-0.1l0-0.2c1.1-1.4,1.5-3,1.3-4.7
		c-0.2-1.4-0.6-2.7-1.5-3.8l0-0.1c0-0.1,0-0.2,0.1-0.3c0.1-0.1,0.2-0.1,0.3-0.1c0.1,0,0.2,0,0.3,0.1c0.9,0.7,1.5,1.9,1.7,3.6
		C100.1,114.6,100.1,115.3,100.1,116z"/>
	<path class="st1" d="M499.7,141.2c0,0.3-0.1,0.5-0.2,0.7c-0.1,0.3-0.4,0.5-0.8,0.6c-0.4,0.1-0.6,0.1-0.7,0.1
		c-0.7-0.5-0.9-1.3-0.6-2.5c0.3-1.3,0.5-2.3,0.6-3.3c-0.5-0.2-1.1-0.4-1.6-0.6c-0.6-0.2-1.2-0.2-1.7-0.1c-0.4,0.4-1,1.1-1.9,2.2
		c-0.8,1-1.4,1.7-2,2.2c-0.3,0.2-0.5,0.2-0.9-0.1c-0.4-0.4-0.6-0.8-0.5-1.1c0.2-0.6,0.8-1.3,1.6-2.1c1-0.9,1.6-1.6,1.9-2
		c0.1-0.1,0.1-0.3-0.1-0.6c-0.1-0.3-0.2-0.4-0.1-0.5c0-0.1,0.1-0.1,0.2-0.2c0.1-0.1,0.3,0,0.6,0c0.3,0.1,0.5,0.1,0.5,0
		c0.6-0.6,1.7-1.8,3.3-3.6c1.4-1.6,2.5-2.7,3.3-3.5c0.2-0.2,0.4-0.2,0.7,0c0.2,0.1,0.4,0.3,0.5,0.5c0.3,0.6,0.3,1.2,0,2
		c-0.2,0.7-0.4,1.3-0.6,2C500.6,135.1,500,138.5,499.7,141.2z M498.5,135.2c0.2-0.6,0.4-1.3,0.6-2c0.1-0.7,0.3-1.4,0.4-2
		c-1.1,1-2.1,2.1-3,3.2C496.8,134.5,497.4,134.7,498.5,135.2z"/>
	<path class="st1" d="M512.6,136.5c-0.6,0.7-1.4,1.2-2.6,1.5c-1,0.2-2.1,0.3-3.1,0.5c-0.1,0.3,0,0.5,0.2,0.7
		c0.2,0.2,0.4,0.5,0.6,0.7c0.9,1.4,1,2.7,0.5,3.8c-0.4,0.9-1.1,1.5-2,2c-0.7,0.3-1.7,0.6-2.8,0.7c-0.9,0.1-1.9,0.2-2.8,0.2
		c-0.2,0-0.5,0-0.7-0.1c-0.5-0.2-0.8-0.6-0.8-1.1c0.6-1.3,1.3-2.5,1.9-3.8c0.8-1.5,1.4-2.7,2-3.7c-0.2-0.4-0.3-0.7-0.1-1
		c0.1-0.1,0.2-0.2,0.4-0.3c0.2-0.1,0.4-0.1,0.6-0.2c1.3-2.2,2.3-4.3,3.2-6.3c-0.6-0.5-1-1-1-1.6c0-0.1,0.1-0.1,0.2-0.2
		c0.1-0.1,0.2-0.2,0.2-0.2c0.5-0.1,0.9,0,1.4,0.2c0.2,0.1,0.4,0.2,0.7,0.5c0.4,0.3,0.7,0.5,0.8,0.6c0.7,0.4,1.3,1,1.9,1.7
		c1.2,1.6,1.8,2.9,1.7,3.9C513.1,135.6,512.9,136.1,512.6,136.5z M506,142.9c0.1-0.2,0.2-0.3,0.3-0.5c0.2-0.5,0.3-0.9,0.1-1.4
		c-0.6-0.8-1-1.2-1.2-1.3c-0.1-0.1-0.2-0.1-0.4-0.1c-0.1,0.2-0.1,0.3-0.2,0.5c-0.2,0.3-0.4,0.8-0.8,1.4c-0.4,0.6-0.7,1.1-0.8,1.4
		c-0.2,0.5-0.4,1-0.4,1.4c0.3-0.1,0.7-0.2,1.2-0.3c0.5-0.1,0.9-0.1,1.1-0.2C505.3,143.8,505.7,143.4,506,142.9z M511,134.3
		c0.2-0.6-0.1-1.3-0.8-2c-0.1-0.1-0.2-0.3-0.4-0.6c-0.1-0.2-0.2-0.3-0.4-0.4l-0.2-0.1c-0.1,0.3-0.3,0.5-0.4,0.8
		c-0.2,0.4-0.5,1.1-0.9,2.1c-0.4,0.9-0.7,1.6-0.9,2.1c0.1,0.1,0.3,0,0.6,0c0.3-0.1,0.5-0.1,0.5-0.1c0.6,0,1.1-0.2,1.7-0.5
		C510.4,135.3,510.8,134.9,511,134.3z"/>
	<path class="st1" d="M521.6,136c-0.2,0.4-0.6,0.5-1.2,0.4c-0.8-0.2-1.3-0.3-1.6-0.2c-2.6,1-4.5,2.9-5.9,5.8c-0.6,1.3-1,2.7-1.2,4.1
		c-0.1,1.1-0.2,1.9-0.2,2.3c0,0.9,0.2,1.7,0.6,2.3c0.2,0.2,0.4,0.4,0.5,0.6c0.2,0.3,0.2,0.5,0.1,0.7c-0.1,0.2-0.3,0.4-0.6,0.5
		c-0.3,0.1-0.5,0.1-0.6,0c-0.2-0.1-0.4-0.4-0.8-0.7c-0.5-0.8-0.9-2.1-1.1-3.9c0-0.5-0.1-0.9-0.1-1.4c0-0.5,0-0.9,0-1.3
		c0-0.3,0.4-1.3,1-3.1c0.2-0.6,0.4-1.1,0.6-1.6c1.3-2.7,3.2-4.6,5.6-5.8c1.4-0.7,2.6-0.8,3.6-0.3c0.4,0.2,0.8,0.5,1,0.9
		C521.8,135.6,521.7,135.8,521.6,136z"/>
	<path class="st1" d="M255.3,62.4c-0.5,0.2-1.1,0.3-2,0.5c-0.9,0.2-1.6,0.4-2,0.5c-0.1,0.3-0.3,1-0.4,2.1c0.2,0.1,0.4,0.1,0.7,0.2
		c0.2,0,0.5,0,0.9,0c0.4,0,0.7,0,0.9,0c0.3,0,0.6,0.1,0.9,0.3c0.2,0.3,0.2,0.4,0.2,0.5l-0.1,0.2c0,0-0.1,0.1-0.3,0.2
		c-0.1,0.1-0.2,0.1-0.4,0.1c-0.3,0-0.7,0-1.4,0c-0.6,0-1,0-1.4,0.1c-0.3,0.9-0.5,1.6-0.5,2.1c0,0.4,0,0.6,0.1,0.9
		c0.5,0.4,1.5,0.7,2.9,0.7c0.1,0,0.2,0,0.3-0.1c0.1-0.1,0.2-0.1,0.3-0.1c0.3-0.1,0.6,0.2,0.6,0.8c0,0.2,0,0.4-0.1,0.5
		s-0.3,0.2-0.5,0.2c-1.5-0.1-2.8-0.3-3.8-0.6c-0.3-0.1-0.6-0.3-0.9-0.6c-0.3-0.3-0.4-0.7-0.4-1c0-1.1,0-2,0.2-2.9
		c-0.3-0.3-0.5-0.5-0.4-0.7c0-0.1,0.1-0.2,0.3-0.3c0.2-0.1,0.3-0.2,0.3-0.3c0-0.1,0.1-0.7,0.3-1.7c-0.7-0.2-1-0.5-1-0.8
		c0-0.4,0.3-0.6,0.7-0.8c0.4-0.1,0.8-0.3,1.2-0.4c0.5-0.2,1.1-0.4,1.8-0.5c0.6-0.1,1.2-0.2,1.8-0.3l0.2,0c0.3,0,0.7,0.2,1.1,0.5
		c0,0.1,0,0.1,0.1,0.3c0,0.1,0.1,0.2,0.1,0.3C255.5,62.2,255.4,62.3,255.3,62.4z"/>
	<path class="st1" d="M262.6,69.1c0,0.1-0.1,0.3-0.1,0.5c0,0.2-0.1,0.2-0.2,0.2c-0.3,0-0.9,0-1.5,0c-0.5,0-1.2,0-2.1,0.1
		c-0.5,0.1-1,0.1-1.4,0.1c-0.3,0-0.8,0.1-1.4,0.2c-0.1,0-0.2,0-0.3-0.1c-0.2-0.3-0.2-0.7,0-1.1l0.1-0.2l0.1,0
		c0.9-0.1,1.8-0.2,2.6-0.3c0.7-0.1,1.6-0.1,2.7,0c0.1,0,0.3,0,0.5,0c0.2,0,0.4,0,0.5,0c0.3,0,0.5,0.1,0.6,0.2
		C262.6,68.6,262.7,68.8,262.6,69.1z M262.8,65.6c0,0.1-0.1,0.3-0.1,0.5c0,0.2-0.1,0.2-0.2,0.2c-0.3,0-0.9-0.1-1.5-0.1
		c-0.5,0-1.2,0-2.1,0.1c-0.4,0-1.3,0.1-2.9,0.3c-0.1,0-0.2,0-0.3-0.1c-0.2-0.3-0.2-0.7,0-1.1l0.1-0.2l0.1,0c0.9-0.1,1.8-0.2,2.6-0.3
		c0.7-0.1,1.6-0.1,2.7,0c0.1,0,0.3,0,0.5,0c0.2,0,0.4,0,0.5,0c0.3,0,0.5,0.1,0.6,0.2C262.9,65.1,262.9,65.3,262.8,65.6z"/>
	<path class="st1" d="M272.5,73c0,0.2-0.2,0.4-0.6,0.4c-0.3,0-0.5-0.1-0.8-0.4c-0.2-0.2-0.4-0.6-0.5-1c-0.1-0.4-0.1-1-0.1-1.8
		c0-0.9,0-1.5,0-1.8c-0.2,0.5-0.5,1.3-0.9,2.4c-0.3,0.6-0.4,0.9-0.5,1c-0.2,0.4-0.5,0.5-0.8,0.5c-0.6-0.2-1-0.5-1.3-1.1
		c-0.2-0.4-0.3-0.9-0.5-1.7c-0.1-0.8-0.3-1.4-0.4-1.7c-0.7,2.5-1.4,4.4-2.1,5.6c-0.1,0.2-0.4,0.1-0.8-0.1c-0.3-0.2-0.5-0.5-0.5-0.8
		c0-0.1,0.2-0.5,0.5-1.1c0.1-0.3,0.6-1.7,1.6-4.1c0.3-0.9,0.7-2.4,1.1-4.6c0,0,0.1-0.1,0.2-0.4c0.1-0.2,0.2-0.2,0.3-0.2
		c0.4,0,0.7,0.1,0.8,0.3c0,0.4,0,0.9,0.1,1.7c0.1,0.8,0.1,1.4,0.1,1.8c0.1,0.7,0.1,1.4,0.2,2.1c0.1,0.8,0.3,1.4,0.6,2
		c1.4-3.2,2.3-5.7,2.7-7.6c0.1-0.2,0.3-0.3,0.6-0.3c0.5,0,0.7,0.2,0.7,0.5c0.1,0.4,0.1,1,0,1.5c0,0.2-0.1,0.6-0.1,1.2
		c0,0.5-0.1,0.9-0.1,1.2C272.1,69.1,272.2,71.3,272.5,73z"/>
	<path class="st1" d="M279.2,62.1c0,0.3-0.3,0.5-0.7,0.6c-0.6,0.1-0.9,0.2-1.1,0.3c-1.5,1.3-2.3,3.2-2.4,5.4c-0.1,1.1,0,2.1,0.3,3.1
		c0.2,0.8,0.4,1.3,0.5,1.6c0.3,0.6,0.6,1.1,1,1.4c0.2,0.1,0.4,0.2,0.5,0.3c0.2,0.1,0.3,0.3,0.3,0.5c0,0.2-0.1,0.4-0.2,0.5
		c-0.1,0.1-0.3,0.2-0.4,0.2c-0.2,0-0.4-0.1-0.7-0.3c-0.6-0.4-1.2-1.1-1.8-2.3c-0.2-0.3-0.3-0.6-0.5-0.9c-0.2-0.3-0.3-0.6-0.3-0.9
		c0-0.2-0.1-1-0.2-2.4c0-0.4,0-0.8,0-1.2c0.1-2.2,0.9-4,2.3-5.4c0.8-0.8,1.6-1.2,2.4-1.2c0.3,0,0.6,0.1,0.9,0.4
		C279.1,61.7,279.2,61.9,279.2,62.1z"/>
	<path class="st1" d="M268.1,63.3c-0.1,0.1-0.2,0.1-0.4,0.1c-0.2,0-0.4,0-0.7-0.1c-0.3-0.1-0.5-0.1-0.6-0.1c-0.2,0-0.3,0-0.3-0.1
		c-0.3-0.1-0.5-0.2-0.6-0.5c0.2-0.3,0.5-0.7,0.9-1.2c0.4-0.5,0.7-0.9,0.9-1.2c0.1-0.2,0.2-0.3,0.3-0.5c0.1-0.2,0.2-0.4,0.2-0.5
		c0-0.2,0-0.4-0.1-0.4c-0.1,0-0.2,0.1-0.3,0.2c-0.1,0.1-0.2,0.3-0.3,0.4l0,0.1l0,0.2l0,0.2l-0.1,0.1l-0.2,0c-0.1,0-0.2-0.1-0.4-0.4
		c-0.1-0.1-0.1-0.2-0.1-0.3c0-0.1,0.1-0.3,0.2-0.4c0.3-0.4,0.7-0.6,1.2-0.7l0.2,0c0.3,0,0.4,0.2,0.4,0.4c0,0.2,0,0.3,0,0.5
		c0,0.3-0.2,0.6-0.4,0.9c-0.2,0.3-0.4,0.5-0.5,0.8c-0.1,0.2-0.3,0.4-0.6,0.7c-0.2,0.3-0.4,0.5-0.5,0.8c0.1,0,0.3,0.1,0.7,0.1
		c0.3,0.1,0.5,0.1,0.7,0.2c0.1,0.1,0.2,0.2,0.2,0.4L268.1,63.3z"/>
	<path class="st1" d="M478.6,28.9c0.1,0.2,0.1,0.4,0.1,0.5c0,0.2-0.1,0.5-0.4,0.6c-0.2,0.2-0.4,0.2-0.4,0.2c-0.6-0.1-0.9-0.7-1-1.5
		c-0.1-0.9-0.3-1.7-0.4-2.4c-0.4,0-0.8,0-1.3,0c-0.5,0-0.9,0.2-1.1,0.4c-0.2,0.4-0.4,1-0.7,2c-0.3,0.9-0.5,1.5-0.7,2
		c-0.1,0.2-0.3,0.3-0.6,0.1c-0.4-0.2-0.6-0.4-0.6-0.6c0-0.5,0.2-1.1,0.5-1.8c0.4-0.9,0.7-1.5,0.7-1.9c0-0.1-0.1-0.2-0.2-0.4
		c-0.2-0.1-0.2-0.3-0.2-0.3l0.1-0.2c0.1-0.1,0.2-0.1,0.4-0.1c0.2,0,0.3-0.1,0.4-0.2c0.3-0.6,0.7-1.7,1.3-3.3
		c0.5-1.4,0.9-2.5,1.3-3.2c0.1-0.2,0.2-0.2,0.5-0.2c0.2,0,0.3,0.1,0.4,0.2c0.3,0.3,0.5,0.8,0.6,1.4c0,0.5,0.1,1,0.1,1.5
		C477.5,24.6,478,27,478.6,28.9z M476.1,25.2c0-0.5-0.1-1-0.1-1.5c-0.1-0.5-0.2-1-0.3-1.5c-0.4,1-0.8,2-1.2,3
		C474.8,25.2,475.3,25.2,476.1,25.2z"/>
	<path class="st1" d="M490.5,22.6c-0.2,0.6-0.6,1.2-1.3,1.7c-0.6,0.4-1.3,0.8-2,1.2c0,0.2,0.1,0.3,0.3,0.4c0.2,0.1,0.4,0.2,0.6,0.3
		c1,0.7,1.4,1.5,1.4,2.4c0,0.7-0.3,1.3-0.8,1.9c-0.4,0.4-1,0.8-1.7,1.2c-0.6,0.3-1.2,0.6-1.8,0.9c-0.2,0.1-0.3,0.1-0.5,0.1
		c-0.4,0-0.7-0.2-0.8-0.5c0.1-1,0.2-2,0.3-3.1c0.1-1.2,0.2-2.2,0.4-3c-0.2-0.2-0.4-0.4-0.3-0.6c0-0.1,0.1-0.2,0.2-0.3
		c0.1-0.1,0.2-0.2,0.4-0.3c0.3-1.8,0.4-3.5,0.4-5.1c-0.6-0.1-0.9-0.4-1.1-0.8c0,0,0-0.1,0.1-0.2c0.1-0.1,0.1-0.2,0.1-0.2
		c0.3-0.2,0.6-0.3,1-0.2c0.2,0,0.4,0,0.6,0.1c0.4,0.1,0.6,0.1,0.7,0.2c0.6,0.1,1.2,0.3,1.7,0.7c1.3,0.8,2,1.5,2.2,2.2
		C490.6,21.9,490.6,22.3,490.5,22.6z M487.8,28.7c0-0.1,0.1-0.3,0.1-0.4c0-0.4-0.1-0.7-0.3-1c-0.6-0.3-1-0.5-1.2-0.5
		c-0.1,0-0.2,0-0.3,0c0,0.1,0,0.3,0,0.4c0,0.3-0.1,0.6-0.2,1.2c-0.1,0.5-0.2,0.9-0.2,1.2c0,0.4,0,0.7,0.1,1.1
		c0.2-0.2,0.4-0.3,0.7-0.5c0.3-0.2,0.6-0.3,0.7-0.5C487.5,29.5,487.7,29.1,487.8,28.7z M488.9,21.6c0-0.5-0.4-0.8-1-1.1
		c-0.1,0-0.2-0.1-0.4-0.3c-0.1-0.1-0.3-0.2-0.4-0.2l-0.2,0c0,0.2,0,0.4-0.1,0.7c0,0.3,0,0.9,0,1.6c0,0.7,0,1.2-0.1,1.6
		c0.1,0,0.2,0,0.4-0.2c0.2-0.1,0.3-0.2,0.3-0.2c0.4-0.1,0.7-0.4,1-0.8C488.8,22.4,488.9,22,488.9,21.6z"/>
	<path class="st1" d="M53.5,479.7c0.1,0.3-0.1,0.6-0.5,0.8c-0.5,0.3-0.8,0.5-0.9,0.7c-0.9,1.8-1.1,3.7-0.4,5.9c0.3,1,0.7,2,1.3,2.8
		c0.5,0.7,0.8,1.1,1,1.3c0.5,0.5,0.9,0.8,1.4,0.9c0.2,0,0.4,0.1,0.6,0.1c0.2,0.1,0.4,0.2,0.4,0.4c0.1,0.2,0,0.4,0,0.6
		c-0.1,0.2-0.2,0.3-0.3,0.3c-0.2,0-0.4,0-0.8,0c-0.7-0.2-1.5-0.7-2.4-1.6c-0.2-0.2-0.5-0.5-0.7-0.7c-0.3-0.2-0.5-0.5-0.6-0.7
		c-0.1-0.2-0.4-0.9-1-2.2c-0.2-0.4-0.3-0.8-0.4-1.2c-0.6-2.1-0.5-4,0.3-5.8c0.5-1,1.1-1.7,1.8-1.9c0.3-0.1,0.7-0.1,1,0
		C53.3,479.4,53.4,479.5,53.5,479.7z"/>
	<path class="st1" d="M59.8,479.8c-0.4,0.3-1,0.7-1.7,1.2c-0.8,0.5-1.4,0.9-1.7,1.2c0,0.3,0.1,1,0.4,2.1c0.2,0,0.4,0,0.7-0.1
		c0.2-0.1,0.4-0.2,0.8-0.3c0.4-0.2,0.6-0.3,0.8-0.3c0.3-0.1,0.6-0.1,0.9,0c0.2,0.2,0.4,0.3,0.4,0.4l-0.1,0.2c0,0-0.1,0.1-0.2,0.3
		c-0.1,0.1-0.2,0.2-0.3,0.2c-0.2,0.1-0.7,0.3-1.3,0.5c-0.5,0.2-1,0.4-1.3,0.6c0,0.9,0.1,1.7,0.3,2.2c0.1,0.3,0.2,0.6,0.4,0.8
		c0.7,0.2,1.7,0.1,3-0.3c0.1,0,0.2-0.1,0.3-0.2c0.1-0.1,0.2-0.2,0.2-0.2c0.3-0.2,0.6,0,0.9,0.5c0.1,0.2,0.1,0.4,0.1,0.5
		c-0.1,0.2-0.2,0.3-0.4,0.4c-1.4,0.5-2.7,0.7-3.8,0.7c-0.4,0-0.7-0.1-1.1-0.3c-0.4-0.2-0.6-0.5-0.7-0.8c-0.4-1-0.7-1.9-0.8-2.7
		c-0.4-0.1-0.6-0.3-0.6-0.5c0-0.1,0-0.2,0.2-0.4c0.1-0.1,0.2-0.3,0.2-0.4c0-0.1-0.1-0.7-0.3-1.7c-0.7,0.1-1.1-0.1-1.2-0.5
		c-0.1-0.3,0-0.7,0.4-1c0.3-0.3,0.7-0.5,1-0.8c0.4-0.4,0.9-0.7,1.5-1.1c0.5-0.3,1-0.6,1.6-0.9l0.2-0.1c0.3-0.1,0.7-0.1,1.2,0
		c0,0,0.1,0.1,0.2,0.2c0.1,0.1,0.1,0.2,0.2,0.3C59.9,479.6,59.9,479.7,59.8,479.8z"/>
	<path class="st1" d="M67.2,485c0,0-0.6,0.7-1.6,2.1c-0.6,0.8-1.2,1.4-1.7,1.9l-0.2,0.1c-0.2,0-0.3,0-0.5-0.2
		c-0.3-0.2-0.4-0.3-0.5-0.3c-0.3-1-0.7-2.5-1.1-4.4c-0.4-2-0.7-3.5-1-4.3c-0.2-0.6-0.4-1.2-0.6-1.7c0.1-0.2,0.3-0.3,0.5-0.4
		c0.4-0.1,0.8,0,0.9,0.3c0.3,1,0.7,2.4,1.1,4.4c0.4,2,0.8,3.4,1.1,4.4c0.3-0.2,0.6-0.6,1.1-1.1c0.5-0.6,0.8-1,1-1.2
		c0.1,0,0.2-0.1,0.3-0.1c0.1-0.1,0.2-0.1,0.3-0.1c0.2-0.1,0.4,0,0.6,0.1C67.2,484.6,67.3,484.8,67.2,485z"/>
	<path class="st1" d="M70.1,474.9c0.1,0.3-0.1,0.6-0.5,0.8c-0.5,0.3-0.8,0.5-0.9,0.7c-0.9,1.8-1.1,3.7-0.4,5.9c0.3,1,0.7,2,1.3,2.8
		c0.5,0.7,0.8,1.1,1,1.3c0.5,0.5,0.9,0.8,1.4,0.9c0.2,0,0.4,0.1,0.6,0.1c0.2,0,0.4,0.2,0.4,0.4s0,0.4,0,0.6
		c-0.1,0.2-0.2,0.3-0.3,0.3c-0.2,0-0.4,0-0.8,0c-0.7-0.2-1.5-0.7-2.4-1.6c-0.2-0.2-0.5-0.5-0.7-0.7c-0.3-0.2-0.5-0.5-0.6-0.7
		c-0.1-0.2-0.4-0.9-1-2.2c-0.2-0.4-0.3-0.8-0.4-1.2c-0.6-2.1-0.5-4,0.3-5.8c0.5-1,1.1-1.7,1.8-1.9c0.3-0.1,0.7-0.1,1,0
		C69.9,474.5,70,474.7,70.1,474.9z"/>
	<path class="st1" d="M72.3,476.1c0.1,0.3,0.2,0.7,0.3,1c0.2,0.8,0.5,2,0.8,3.7c0.3,1.7,0.6,2.9,0.8,3.7c0.1,0.3,0.2,0.6,0.3,0.9
		c0,0.4-0.2,0.6-0.5,0.7c-0.5,0.1-0.8,0-1-0.4c-0.2-0.4-0.3-0.8-0.4-1.3c-0.2-0.8-0.5-2-0.7-3.7c-0.3-1.6-0.5-2.9-0.7-3.6
		c-0.1-0.3-0.2-0.6-0.3-0.9c0.1-0.3,0.2-0.4,0.5-0.5c0.2-0.1,0.5-0.1,0.7,0l0.1-0.1c0,0,0.1,0,0.1,0.2
		C72.2,475.9,72.2,476,72.3,476.1L72.3,476.1z"/>
	<path class="st1" d="M79.4,473.3c0.2,0.8,0.2,2,0.3,3.5c0,2,0,3.2,0.1,3.6c0.1,1.3-0.1,2.5-0.5,3.7c-0.3,0.8-0.7,1.2-1.3,1.4
		c-0.5,0.1-1-0.1-1.5-0.7c-0.8-1-1.4-2.2-1.8-3.7c-0.2-0.9-0.5-2-0.7-3.4c0,0.1-0.1-0.2-0.3-1.1c-0.2-0.7,0-1.2,0.5-1.3
		c0.1,0,0.3,0,0.4,0c0.2,0,0.3,0.1,0.5,0.1c0.2,0.6,0.4,1.5,0.7,2.7c0.3,1.3,0.5,2.2,0.7,2.7c0.2,0.6,0.3,1.1,0.5,1.6
		c0.1,0.2,0.3,0.7,0.7,1.3c0.3-0.7,0.5-1.5,0.5-2.5c0-0.3,0-1.2-0.2-2.7c-0.1-1.1-0.1-2,0.1-2.6c0-0.2,0-0.5-0.1-1
		c-0.1-0.5-0.1-0.8-0.1-1c0-0.3,0.2-0.5,0.5-0.6C78.8,473,79.2,473,79.4,473.3z"/>
	<path class="st1" d="M83.4,471c0.1,0.2,0,0.5-0.3,0.8c-0.1,0.1-0.2,0.1-0.3,0.1c-0.2,0-0.3,0-0.3,0c-0.1,0-0.1,0.1-0.2,0.2
		c-0.4,0.8-0.5,1.7-0.3,2.6c0.1,0.3,0.2,0.6,0.4,0.9c0.1,0.1,0.8,0.9,2.1,2.3c0.9,1,1.5,1.8,1.7,2.6c0.2,0.6,0.2,1.3,0.1,2
		c0,0.2-0.2,0.6-0.6,1c-0.3,0.3-0.5,0.6-0.8,0.6c-0.1,0-0.2,0-0.3,0c-0.4-0.1-0.6-0.2-0.7-0.4c0-0.1,0-0.3,0.1-0.6
		c0-0.1,0.1-0.1,0.3-0.2c0.2-0.1,0.3-0.2,0.3-0.3c0.1-0.6,0.1-1.2-0.1-1.7c-0.2-0.8-0.9-1.8-2.1-3c-1.2-1.2-1.9-2.3-2.1-3.1
		c-0.2-0.7-0.3-1.4-0.1-2c0.1-0.7,0.4-1.3,1-1.8c0.2-0.2,0.5-0.3,0.7-0.4c0.5-0.1,0.9-0.1,1.2,0.1C83.3,470.7,83.3,470.8,83.4,471z"
		/>
	<path class="st1" d="M505.2,256.4c-0.1,0.2-0.4,0.3-0.9,0.3c-0.4,0-0.9,0-1.5-0.1c-0.7-0.1-1.2-0.1-1.4-0.2c-0.4,0-0.6-0.1-0.7-0.1
		c-0.7-0.1-1.2-0.4-1.3-0.9c0.4-0.7,1-1.6,1.8-2.8c0.9-1.2,1.5-2.2,1.8-2.8c0.2-0.4,0.4-0.7,0.7-1.1c0.2-0.5,0.4-0.8,0.4-1.1
		c0.1-0.5,0-0.8-0.3-0.8c-0.1,0-0.3,0.1-0.6,0.4c-0.2,0.3-0.5,0.6-0.7,0.9l-0.1,0.2c0,0.1,0,0.2,0.1,0.4c0,0.2,0.1,0.3,0.1,0.4
		c0,0.1-0.1,0.2-0.2,0.3c-0.1,0.1-0.2,0.1-0.4,0.1c-0.2,0-0.5-0.3-0.9-0.8c-0.1-0.2-0.2-0.4-0.2-0.6c0-0.3,0.2-0.6,0.4-1
		c0.6-0.9,1.5-1.5,2.6-1.6c0.1,0,0.3,0,0.4,0c0.6,0.1,0.9,0.4,1,0.9c0.1,0.4,0.1,0.7,0,1.1c-0.1,0.6-0.3,1.3-0.7,2
		c-0.4,0.6-0.7,1.2-1.1,1.9c-0.2,0.3-0.6,0.9-1.1,1.7c-0.5,0.7-0.8,1.2-1.1,1.7c0.2,0,0.7,0.1,1.6,0.2c0.7,0.1,1.2,0.2,1.6,0.3
		c0.3,0.1,0.5,0.4,0.4,0.8L505.2,256.4z"/>
	<path class="st1" d="M516.6,247.4c0,0.1,0,0.2,0,0.3c-0.1,0.6-0.4,1.2-1.1,1.8c-1,1-1.6,1.5-1.7,1.6c0.4,0.1,0.7,0.2,1.1,0.3
		c0.4,0.2,0.8,0.4,0.9,0.8c0.4,0.8,0.6,1.5,0.5,2.2c-0.1,0.5-0.3,1.1-0.6,1.7c-0.1,0.1-0.4,0.7-1.1,1.7c-0.5,0.8-1.3,1.7-2.5,2.7
		c-0.4,0.4-0.8,0.6-1.2,0.6c-0.1,0-0.2-0.1-0.3-0.1c-0.1-0.1-0.3-0.2-0.4-0.3c-0.1-0.1-0.2-0.2-0.2-0.4c0-0.4,0.3-0.7,0.7-0.9
		c0.7-0.3,1.1-0.5,1.2-0.6c1-1,1.6-1.7,2-2.2c0.5-0.8,0.8-1.6,0.9-2.6c0-0.2,0-0.5,0-0.8c0-0.4-0.2-0.7-0.5-0.7
		c-0.3-0.1-1.1,0-2.2,0.1c-0.1-0.1-0.2-0.3-0.5-0.5c-0.2-0.2-0.3-0.4-0.3-0.5c0-0.1,0.1-0.2,0.2-0.4c0.7-0.7,1.7-1.7,3-3.2
		c-0.2,0-0.5,0-0.9,0c-0.5,0.1-0.8,0.1-0.9,0.1c-0.4,0-0.6-0.2-0.8-0.5c-0.1-0.1-0.1-0.2-0.1-0.4c0-0.1,0-0.3,0-0.4
		c0.1,0,0.9-0.1,2.4-0.3c0.4,0,0.9-0.1,1.2,0C516.2,246.6,516.6,246.9,516.6,247.4z"/>
	<path class="st1" d="M524.5,255.3c0,0.1-0.1,0.3-0.1,0.4c0,0.2-0.1,0.2-0.2,0.2c-0.3,0-0.9-0.1-1.5-0.1c-0.5,0-1.2,0-2.1,0
		c-0.5,0-1,0-1.4,0c-0.3,0-0.8,0-1.5,0.1c-0.1,0-0.2,0-0.3-0.2c-0.2-0.3-0.2-0.7,0-1.1l0.1-0.2l0.1,0c0.9-0.1,1.8-0.2,2.7-0.2
		c0.7,0,1.6,0,2.7,0.1c0.1,0,0.3,0,0.5,0c0.2,0,0.4,0,0.5,0c0.3,0,0.5,0.1,0.6,0.2C524.5,254.8,524.6,255,524.5,255.3z M524.8,251.9
		c0,0.1-0.1,0.3-0.1,0.4c0,0.2-0.1,0.2-0.2,0.2c-0.3,0-0.8-0.1-1.5-0.1c-0.5,0-1.2,0-2.1,0c-0.4,0-1.3,0-2.9,0.1
		c-0.1,0-0.2,0-0.3-0.2c-0.2-0.3-0.2-0.7,0-1.1l0.1-0.2l0.1,0c0.9-0.1,1.8-0.2,2.7-0.2c0.7,0,1.6,0,2.7,0.1c0.1,0,0.3,0,0.5,0
		c0.2,0,0.4,0,0.5,0c0.3,0,0.5,0.1,0.6,0.2C524.9,251.3,524.9,251.6,524.8,251.9z"/>
	<path class="st1" d="M532.4,249.5c-0.4,0.3-1.1,0.5-2,0.6c-1,0.1-1.7,0.3-2.1,0.4c-0.6,1.1-1,2.1-1.1,2.8c1.8,0.7,2.7,1.7,2.7,2.8
		c0,0.5,0,1.1,0,1.6c-0.2,2.2-1.1,3.9-2.5,5.2c-0.2,0.2-0.5,0.3-0.7,0.3c-0.1,0-0.2-0.1-0.3-0.1c-0.2-0.1-0.3-0.2-0.5-0.3
		c-0.2-0.1-0.3-0.3-0.3-0.5c0-0.3,0.1-0.5,0.4-0.6c0.4-0.2,0.7-0.3,0.9-0.6c0.8-1.1,1.3-2.2,1.5-3.6c0.1-0.8,0-1.4-0.2-2.1
		c-0.1-0.3-0.4-0.5-0.8-0.6c-0.7-0.1-1-0.2-1.1-0.2c-0.5-0.3-0.7-0.5-0.7-0.8c0.2-1.4,0.9-3.2,2.2-5.5c0.1-0.2,0.3-0.2,0.6-0.2
		c0.4,0,0.6,0.2,0.6,0.5c0.1,0.1,0.3,0.1,0.4,0.1c0.2,0,0.6,0,1.1-0.1c0.5-0.1,0.9-0.2,1.1-0.1c0.3,0,0.6,0.2,0.8,0.4
		C532.4,249,532.4,249.3,532.4,249.5z"/>
	<path class="st1" d="M143.1,253.2c0,0.2-0.3,0.4-0.7,0.6c-0.4,0.1-0.9,0.3-1.4,0.4c-0.7,0.2-1.2,0.3-1.4,0.3
		c-0.4,0.1-0.6,0.1-0.7,0.1c-0.7,0.2-1.2,0-1.6-0.5c0.1-0.8,0.4-1.8,0.8-3.2c0.4-1.5,0.7-2.5,0.8-3.2c0.1-0.4,0.2-0.8,0.3-1.2
		c0.1-0.5,0.1-0.9,0-1.2c-0.1-0.5-0.3-0.7-0.5-0.7c-0.1,0-0.3,0.2-0.4,0.6c-0.1,0.4-0.2,0.7-0.3,1.1l0,0.2c0,0.1,0.1,0.2,0.2,0.3
		c0.1,0.2,0.2,0.3,0.2,0.4c0,0.1,0,0.2-0.1,0.4c-0.1,0.1-0.2,0.2-0.3,0.2c-0.2,0-0.5-0.1-1.1-0.5c-0.2-0.1-0.3-0.3-0.4-0.5
		c-0.1-0.3,0-0.7,0.1-1.1c0.3-1.1,1-1.9,1.9-2.4c0.1-0.1,0.2-0.1,0.4-0.1c0.5-0.1,1,0,1.2,0.5c0.2,0.3,0.3,0.7,0.4,1.1
		c0.1,0.6,0.1,1.3,0,2.1c-0.1,0.7-0.3,1.4-0.4,2.1c-0.1,0.4-0.2,1-0.5,2c-0.2,0.8-0.4,1.5-0.5,2c0.2,0,0.7-0.1,1.6-0.3
		c0.7-0.1,1.2-0.2,1.6-0.2c0.4,0,0.6,0.2,0.7,0.6V253.2z"/>
	<path class="st1" d="M153.8,250.8c0,0.2-0.3,0.4-0.7,0.6c-0.4,0.1-0.9,0.3-1.4,0.4c-0.7,0.2-1.2,0.3-1.4,0.3
		c-0.4,0.1-0.6,0.1-0.7,0.2c-0.7,0.2-1.2,0-1.6-0.5c0.1-0.8,0.4-1.8,0.8-3.2c0.4-1.5,0.7-2.5,0.8-3.2c0.1-0.4,0.2-0.8,0.3-1.2
		c0.1-0.5,0.1-0.9,0-1.2c-0.1-0.5-0.3-0.7-0.5-0.7c-0.1,0-0.3,0.2-0.4,0.6c-0.1,0.4-0.2,0.7-0.3,1.1l0,0.2c0,0.1,0.1,0.2,0.2,0.3
		c0.1,0.2,0.2,0.3,0.2,0.4c0,0.1,0,0.2-0.1,0.4c-0.1,0.1-0.2,0.2-0.3,0.2c-0.2,0-0.5-0.1-1.1-0.5c-0.2-0.1-0.3-0.3-0.4-0.5
		c-0.1-0.3,0-0.6,0.1-1.1c0.3-1.1,1-1.9,1.9-2.4c0.1-0.1,0.2-0.1,0.4-0.1c0.5-0.1,1,0,1.2,0.5c0.2,0.3,0.3,0.7,0.4,1.1
		c0.1,0.6,0.1,1.3,0,2.1c-0.1,0.7-0.3,1.4-0.4,2.1c-0.1,0.4-0.2,1-0.5,2c-0.2,0.8-0.4,1.5-0.5,2c0.2,0,0.7-0.1,1.6-0.3
		c0.7-0.1,1.2-0.2,1.6-0.2c0.4,0,0.6,0.2,0.7,0.6V250.8z"/>
	<path class="st1" d="M160.4,242.5c0,0.1,0,0.3,0,0.5c0,0.2,0,0.3-0.1,0.3c-0.3,0.1-0.8,0.2-1.5,0.4c-0.4,0.1-1.1,0.4-2,0.7
		c-0.3,0.1-1.2,0.4-2.7,1.1c-0.1,0-0.2,0-0.3-0.1c-0.3-0.2-0.4-0.6-0.3-1.1l0-0.2l0.1-0.1c0.8-0.4,1.6-0.7,2.4-1.1
		c0.6-0.3,1.5-0.5,2.6-0.7c0.1,0,0.3-0.1,0.4-0.1c0.2-0.1,0.3-0.1,0.4-0.1c0.3-0.1,0.5,0,0.6,0C160.3,242,160.4,242.2,160.4,242.5z
		 M161.2,245.9c0,0.1,0,0.3,0,0.5s0,0.3-0.1,0.3c-0.3,0.1-0.8,0.2-1.5,0.4c-0.4,0.1-1.1,0.4-2,0.7c-0.5,0.2-0.9,0.4-1.3,0.5
		c-0.3,0.1-0.8,0.3-1.3,0.6c-0.1,0-0.2,0-0.3-0.1c-0.3-0.2-0.4-0.6-0.3-1.1l0-0.2l0.1-0.1c0.8-0.4,1.6-0.7,2.4-1.1
		c0.7-0.3,1.5-0.5,2.6-0.8c0.1,0,0.3-0.1,0.4-0.1c0.2-0.1,0.3-0.1,0.4-0.1c0.3-0.1,0.5,0,0.6,0C161.1,245.4,161.2,245.6,161.2,245.9
		z"/>
	<path class="st1" d="M168.8,245.9c0,0.2-0.2,0.3-0.4,0.4c-0.2,0-0.4,0.1-0.6,0.2c-0.3,0.1-0.4,0.2-0.4,0.4c0,0.6,0.1,1.4,0.3,2.4
		c0.3,1.3,0.4,2.1,0.5,2.3c0,0.2-0.1,0.4-0.4,0.5c-0.5,0.1-0.7,0-0.9-0.2c-0.2-0.3-0.3-0.6-0.4-1c-0.1-0.3-0.1-0.7-0.2-1.3
		c0-0.6-0.1-1-0.2-1.3c-0.1-0.3-0.2-0.6-0.3-0.8c-0.1,0-0.2,0-0.3,0.1c-0.3,0.1-0.6,0.2-1.1,0.4c-0.5,0.2-0.9,0.4-1.1,0.4
		c-0.2,0.1-0.4,0.1-0.7,0c-0.3,0-0.5-0.2-0.5-0.4c0-0.1,0-0.4,0.2-0.9c0.3-0.9,0.6-2.2,0.9-4.1c0.4-1.8,0.7-3.2,0.9-4.1
		c0.1-0.3,0.1-0.6,0.2-1c0.1-0.3,0.3-0.5,0.6-0.6c0.4-0.1,0.6,0,0.7,0.3c0.1,0.3,0.2,0.5,0.2,0.8c0.2,0.7,0.3,1.7,0.4,3
		c0.1,1.3,0.2,2.3,0.4,3c0.1,0.3,0.1,0.6,0.2,0.8c0.8-0.2,1.3-0.1,1.5,0.1C168.8,245.5,168.9,245.7,168.8,245.9z M165,242.8
		c-0.2,0.6-0.3,1.2-0.5,1.9c-0.2,0.7-0.3,1.3-0.3,1.9c0.2-0.1,0.4-0.2,0.7-0.3c0.4-0.2,0.6-0.3,0.7-0.4c-0.1-0.3-0.2-0.9-0.3-1.6
		C165.2,243.5,165.1,243.1,165,242.8z"/>
	<path class="st1" d="M381.7,184.9c-0.9,1.8-1.5,3.6-2.1,5.2c0.2,0.4,0.8,1.2,1.7,2.3c0.8,0.9,1.3,1.7,1.5,2.4
		c-0.1,0-0.2,0.1-0.3,0.3c-0.1,0.2-0.2,0.3-0.3,0.3c-0.5,0-1-0.1-1.4-0.5c-0.2-0.2-0.5-0.6-0.9-1.3c-0.4-0.6-0.7-1-1-1.2
		c-0.4,0.8-0.8,2-1.1,3.7c-0.3,1.7-0.7,2.9-1.1,3.6c-0.8,0.2-1.2,0.1-1.4-0.2c-0.1-0.1-0.1-0.2-0.1-0.4c0-0.2,0-0.5,0.1-0.9
		c0.2-0.6,0.3-0.9,0.3-1c0.5-2.4,1.1-4.8,2-7c-0.6-0.9-1.5-1.8-2.7-2.7l-0.1-0.2c0-0.3,0.1-0.5,0.5-0.7c0.1-0.1,0.3-0.1,0.5-0.2
		c0.4-0.1,0.9,0.2,1.3,0.6c0.7,0.7,1,1.1,1.1,1.1c0.1-0.1,0.3-0.8,0.8-2c0.3-0.8,0.6-1.5,1-2c0.3-0.1,0.6-0.2,1.1-0.2
		c0.3,0.1,0.5,0.3,0.6,0.6C381.7,184.8,381.7,184.9,381.7,184.9z"/>
	<path class="st1" d="M389.2,190.1c0,0.1-0.2,0.2-0.5,0.3c-0.2,0.1-0.5,0.1-0.8,0.2c-0.4,0.1-0.7,0.1-0.8,0.1c-0.2,0-0.3,0-0.4,0.1
		c-0.4,0.1-0.7-0.1-0.9-0.3c0.1-0.4,0.3-1,0.6-1.8c0.3-0.8,0.5-1.4,0.6-1.8c0.1-0.2,0.1-0.5,0.2-0.7c0.1-0.3,0.1-0.5,0.1-0.7
		c0-0.3-0.1-0.4-0.3-0.4c-0.1,0-0.2,0.1-0.3,0.3c-0.1,0.2-0.2,0.4-0.2,0.6l0,0.1c0,0,0,0.1,0.1,0.2c0.1,0.1,0.1,0.2,0.1,0.2
		l-0.1,0.2l-0.2,0.1c-0.1,0-0.3-0.1-0.6-0.3c-0.1-0.1-0.2-0.2-0.2-0.3c0-0.2,0-0.4,0.1-0.6c0.2-0.6,0.6-1,1.2-1.3l0.2-0.1
		c0.3,0,0.5,0.1,0.7,0.4c0.1,0.2,0.2,0.4,0.2,0.6c0,0.3,0,0.8-0.1,1.2c-0.1,0.4-0.2,0.8-0.3,1.2c-0.1,0.2-0.2,0.6-0.4,1.1
		c-0.2,0.4-0.3,0.8-0.4,1.1c0.1,0,0.4-0.1,0.9-0.1c0.4-0.1,0.7-0.1,0.9,0c0.2,0,0.3,0.1,0.4,0.4L389.2,190.1z"/>
	<path class="st1" d="M26.6,303.3c0,0.3-0.2,0.5-0.7,0.6c-0.6,0.1-0.9,0.2-1.1,0.4c-1.4,1.4-2.1,3.3-2.1,5.6c0,1.1,0.2,2.1,0.5,3
		c0.3,0.8,0.5,1.3,0.6,1.5c0.3,0.6,0.7,1,1.1,1.3c0.2,0.1,0.4,0.2,0.5,0.2c0.2,0.1,0.3,0.3,0.3,0.5c0,0.2-0.1,0.4-0.2,0.5
		c-0.1,0.2-0.3,0.2-0.4,0.2c-0.2,0-0.4-0.1-0.7-0.2c-0.6-0.3-1.2-1.1-1.9-2.2c-0.2-0.3-0.3-0.6-0.5-0.9c-0.2-0.3-0.3-0.6-0.4-0.9
		c-0.1-0.2-0.2-1-0.3-2.4c0-0.4-0.1-0.8-0.1-1.2c0-2.2,0.6-4,1.9-5.5c0.7-0.9,1.5-1.3,2.3-1.3c0.3,0,0.7,0.1,0.9,0.3
		C26.5,303,26.6,303.1,26.6,303.3z"/>
	<path class="st1" d="M32.5,310.4c-0.7,1.6-1.7,2.6-3.1,2.9c-0.2,0-0.3,0.1-0.5,0.1c-0.7,0-1.4-0.4-2.1-1.1c-0.5-0.5-0.7-1.2-0.7-2
		c0-0.9,0.3-1.9,0.8-2.9c0.2-0.4,0.5-0.8,0.8-1.1c0.4-0.4,0.7-0.6,1.1-0.6c0.2,0,0.4,0.1,0.6,0.2c0.2,0.1,0.6,0.3,1.4,0.6
		c0.6,0.2,1,0.5,1.2,1c0.4,0.8,0.6,1.5,0.6,2.1C32.7,309.8,32.6,310.1,32.5,310.4z M31,309.3c-0.1-0.9-0.3-1.4-0.7-1.6l-0.2,0
		c-0.1,0-0.3,0.1-0.5,0.4c-0.2,0.3-0.4,0.4-0.6,0.5c-0.1,0-0.2,0-0.4-0.1c-0.2-0.1-0.3-0.2-0.3-0.2l-0.1,0c-0.4,0.4-0.6,0.9-0.6,1.7
		c0,0.5,0.1,1,0.4,1.3c0.3,0.5,0.6,0.8,0.9,0.8c0.5,0,1.1-0.3,1.6-1C30.9,310.4,31.1,309.8,31,309.3z"/>
	<path class="st1" d="M37.2,303.3c0,0.2-0.2,0.5-0.5,0.6c-0.1,0-0.2,0.1-0.3,0c-0.2,0-0.3-0.1-0.3-0.1l-0.2,0.1
		c-0.7,0.7-1,1.5-1,2.4c0,0.4,0.1,0.7,0.2,1c0,0.1,0.5,1.1,1.4,2.8c0.6,1.2,0.9,2.2,0.9,3c0,0.7-0.2,1.3-0.5,1.9
		c-0.1,0.2-0.4,0.5-0.8,0.8c-0.4,0.3-0.7,0.4-1,0.4c-0.1,0-0.2,0-0.3-0.1c-0.4-0.2-0.5-0.4-0.5-0.6c0-0.1,0.1-0.3,0.3-0.5
		c0-0.1,0.2-0.1,0.3-0.1c0.2,0,0.3-0.1,0.4-0.2c0.3-0.5,0.4-1.1,0.4-1.6c0-0.8-0.4-1.9-1.2-3.5c-0.8-1.5-1.2-2.7-1.2-3.6
		c0-0.7,0.1-1.4,0.4-2c0.3-0.7,0.8-1.2,1.4-1.4c0.3-0.1,0.6-0.2,0.8-0.2c0.5,0,0.9,0.1,1.2,0.4C37.2,303,37.2,303.1,37.2,303.3z"/>
	<path class="st1" d="M430.3,477.1c-0.2,0.4-0.5,0.6-0.8,0.5c-0.8-0.1-2.2-0.3-4.2-0.6c-1.2,2.8-2.1,5.2-2.8,7.1
		c-0.2,0.7-0.5,1.5-0.7,2.2c-0.1,0.2-0.1,0.4-0.2,0.5c-0.1,0.2-0.3,0.2-0.4,0.1c-0.3-0.1-0.6-0.4-0.7-0.7c-0.1-0.3-0.1-0.7-0.1-1
		c0.1-0.4,0.3-0.9,0.4-1.4c0.3-0.8,0.7-2,1.4-3.6c0.6-1.6,1.1-2.7,1.4-3.6c-0.3-0.1-0.7-0.2-1.3-0.4c-0.7-0.1-1.1-0.2-1.4-0.3
		c-0.6-0.2-1-0.5-1.2-0.9c0-0.4-0.1-0.5,0-0.5c0-0.1,0.1-0.2,0.2-0.2c0.4,0,1.2,0.1,2.4,0.4c1,0.2,1.9,0.3,2.4,0.2
		c0.4,0.3,0.8,0.5,1.3,0.7c0.5,0.2,1,0.3,1.6,0.3c0.1,0,0.5,0.1,1.1,0.1c0.5,0,0.8,0.1,1.1,0.2c0.2,0.1,0.3,0.2,0.2,0.3
		C430.2,476.7,430.3,476.9,430.3,477.1z"/>
	<path class="st1" d="M430.8,488.4c0,0.2,0,0.4-0.1,0.5c-0.1,0.2-0.2,0.4-0.5,0.5c-0.3,0.1-0.4,0.1-0.5,0.1
		c-0.5-0.3-0.7-0.9-0.6-1.7c0.1-0.9,0.2-1.7,0.2-2.4c-0.4-0.1-0.8-0.2-1.2-0.3c-0.5-0.1-0.9-0.1-1.2,0.1c-0.3,0.3-0.6,0.9-1.1,1.7
		c-0.5,0.8-0.9,1.4-1.2,1.7c-0.2,0.2-0.4,0.2-0.6,0c-0.3-0.3-0.5-0.5-0.4-0.7c0.1-0.5,0.4-1,1-1.6c0.6-0.7,1-1.3,1.2-1.6
		c0-0.1,0-0.2-0.1-0.4c-0.1-0.2-0.2-0.3-0.1-0.4l0.1-0.2c0.1,0,0.2-0.1,0.4,0c0.2,0,0.3,0,0.4-0.1c0.4-0.5,1.1-1.5,2.1-2.9
		c0.8-1.2,1.5-2.2,2.1-2.8c0.1-0.1,0.3-0.2,0.5-0.1c0.2,0.1,0.3,0.2,0.4,0.3c0.2,0.4,0.3,0.9,0.2,1.5c-0.1,0.5-0.2,1-0.3,1.5
		C431,484,430.8,486.4,430.8,488.4z M429.4,484.2c0.1-0.4,0.2-0.9,0.3-1.5c0-0.5,0.1-1,0.1-1.5c-0.7,0.8-1.3,1.7-1.9,2.6
		C428.1,483.8,428.6,484,429.4,484.2z"/>
	<path class="st1" d="M442.1,481.4c-0.7,1.5-1.4,3-2,4.5c-0.8,1.8-1.4,3.3-1.9,4.5c-0.1,0.4-0.3,0.8-0.4,1.2
		c-0.1,0.2-0.2,0.3-0.4,0.4c-0.2,0.1-0.4,0.1-0.6,0c-0.4-0.1-0.6-0.5-0.7-1c-0.3-1.7-0.4-4.3-0.5-7.7l-0.1-0.1c-0.1,0-0.2,0-0.2,0.2
		c-0.8,1.6-1.4,3.3-2.1,5.1c-0.3,0.9-0.6,1.8-0.8,2.7c-0.1,0.3-0.3,0.5-0.5,0.6c-0.1,0.1-0.2,0.1-0.3,0c-0.1,0-0.2-0.1-0.3-0.2
		c-0.1-0.1-0.2-0.2-0.3-0.3c-0.1-0.1-0.2-0.3-0.1-0.5c0.1-0.2,0.1-0.4,0.2-0.6c0.2-0.7,0.4-1.3,0.6-2.1c0.4-1.2,1-2.7,1.8-4.5
		c1.2-2.7,1.8-4.2,1.9-4.5c0.1-0.3,0.4-0.3,0.8-0.2c0.2,0,0.4,0.3,0.7,0.7c0.1,0.8,0.2,2.1,0.2,3.9c0,1.7,0.1,3,0.3,3.9
		c0.7-1.5,1.8-3.7,3.2-6.7c0.1-0.2,0.3-0.3,0.6-0.2c0.1,0,0.2,0.1,0.3,0.2c0.2,0.1,0.3,0.2,0.3,0.2
		C442,481.2,442.1,481.3,442.1,481.4z"/>
	<path class="st1" d="M72.6,20c1.1,1.8,1.7,4.1,1.8,6.9c0,0.6-0.1,1-0.3,1.2c-0.2,0.3-0.4,0.5-0.7,0.6c-0.3,0.2-0.7,0.3-1.1,0.3
		c-0.4,0-0.7-0.1-0.8-0.4c0-0.1,0-0.2,0.1-0.3c0,0,0.1-0.1,0.3-0.1c0.1,0,0.2-0.1,0.3-0.1c0.5-0.2,0.7-0.7,0.7-1.4
		c0-0.4,0-1-0.2-1.7c-0.2-1-0.3-1.7-0.4-1.9c-0.2-0.7-0.4-1.4-0.7-1.9c-0.1-0.2-0.3-0.5-0.4-0.7c-0.1,0.4-0.1,0.7,0,1
		c-0.1,0.1-0.2,0.2-0.4,0.5c-0.1,0.3-0.3,0.4-0.4,0.5c-0.7,0.4-1.3,0.4-1.8,0.2c-0.4-0.2-0.8-0.5-1.1-0.9c-0.3-0.6-0.5-1.4-0.5-2.4
		c0-1.1,0.4-1.9,1.1-2.3c0.1-0.1,0.2-0.1,0.3-0.1c0.2,0,0.4,0,0.6,0c0.2,0,0.4,0,0.6-0.1l0.2-0.1c0.6,0.2,1.1,0.7,1.6,1.3
		C71.9,18.8,72.2,19.4,72.6,20z M69.6,18.3l-0.1-0.2L69.4,18l-0.1,0.1c0,0-0.1,0.1-0.2,0.1c-0.1,0-0.2,0-0.2,0.1
		c-0.1,0-0.1,0.1,0,0.3c-0.2,0.4-0.3,1.1-0.2,2.1c0,0.2,0.1,0.3,0.2,0.5c0.2,0.3,0.3,0.5,0.6,0.6c0.2-0.2,0.4-0.5,0.5-1
		C70,19.8,70,18.9,69.6,18.3z"/>
	<path class="st1" d="M77.6,16.8c0.1,0.2,0.3,0.4,0.4,0.6c0.7,1.1,0.8,2.3,0.6,3.7c-0.2,1.1-0.6,1.8-1.2,2.1c-0.5,0.2-1,0.3-1.5,0.1
		c-0.8-0.3-1.4-0.9-1.9-1.8c-0.5-0.9-0.8-1.9-1-3c-0.1-0.7-0.1-1.3,0-1.7c0.2-0.6,0.6-1,1.1-1.3c0.4-0.2,0.7-0.3,1.1-0.2
		c0.5,0.1,0.9,0.2,1.2,0.4c0.3,0.2,0.5,0.4,0.7,0.6C77.2,16.3,77.4,16.5,77.6,16.8z M76.3,17.4c-0.2-0.2-0.4-0.4-0.6-0.6
		c-0.2-0.2-0.5-0.4-0.7-0.4c-0.2,0-0.3,0-0.4,0.1c-0.1,0-0.1,0.2-0.2,0.3c-0.3,1.2-0.1,2.4,0.6,3.6c0.4,0.7,0.9,1.2,1.6,1.5
		c0.1,0.1,0.2,0.1,0.3,0c0.1-0.1,0.2-0.3,0.3-0.7c0.3-1.3,0.2-2.3-0.3-3.2C76.7,17.8,76.5,17.6,76.3,17.4z"/>
	<path class="st1" d="M86.4,7.9h-0.1c0,0.7-0.6,1.3-1.3,1.3c-0.7,0-1.3-0.6-1.3-1.3c0-0.7,0.6-1.3,1.3-1.3c0.7,0,1.3,0.6,1.3,1.3
		H86.4h0.1c0-0.8-0.7-1.5-1.5-1.5c-0.8,0-1.5,0.7-1.5,1.5c0,0.8,0.7,1.5,1.5,1.5c0.8,0,1.5-0.7,1.5-1.5H86.4z"/>
	<path class="st4" d="M418.7,282.4c-3.8-10.3-8.7-20.3-16-28.6c-10.1-11.6-23.9-19-36.6-27.5c-12.7-8.5-25.2-19.2-29.9-33.7
		c-4.8-14.9-0.8-39.3-2.9-54.8c-3.8-27.8-28.8-48.4-67.3-46.3l-16.2,28.3c-1.5,7.8-6.6,14.3-11.4,20.6
		c-16.6,21.9-31.2,45.4-43.4,70.1c-5.8,11.7-11.1,23.7-13.9,36.4c-7.7,34.1,3.7,71.9,29,96.1c16.9,16.1,39,26.1,61.8,31.3
		c22.8,5.2,46.3,6,69.7,5.8c12.9-0.1,25.9-0.6,38.4-3.7c12.5-3.1,24.6-9.2,32.9-19c8.5-10,12.7-23.2,13.1-36.4
		C426.3,307.7,423.2,294.7,418.7,282.4"/>
	<path class="st44" d="M184.1,434.2c0,0-31.5-13.9-45.1,0c-7.4,7.5-6.8,33.6,8.2,35.2c15.1,1.7,52.7-5.5,52.7-5.5L184.1,434.2"/>
	<path class="st45" d="M187.7,430.3c0,0-38.3-6.6-44.9,1.6c-6.6,8.2-7,32,8.1,33.7c15.1,1.7,52.7-5.5,52.7-5.5L187.7,430.3"/>
	<path class="st44" d="M190.3,428.7c0,0-38.3-6.6-44.9,1.6c-6.6,8.2-7,32,8.1,33.7c15.1,1.7,52.7-5.5,52.7-5.5L190.3,428.7"/>
	<path class="st46" d="M172.2,448.3c0.1-8.7-3.1-16.4-8.5-22.1c12.6,0.1,26.7,2.5,26.7,2.5l15.8,29.7c0,0-21.4,4.1-38.4,5.4
		C170.4,459.1,172.1,453.8,172.2,448.3"/>
	<path class="st44" d="M184.1,434.2c0,0-31.5-13.9-45.1,0c-7.4,7.5-6.8,33.6,8.2,35.2c15.1,1.7,52.7-5.5,52.7-5.5L184.1,434.2"/>
	<path class="st45" d="M187.7,430.3c0,0-38.3-6.6-44.9,1.6c-6.6,8.2-7,32,8.1,33.7c15.1,1.7,52.7-5.5,52.7-5.5L187.7,430.3"/>
	<path class="st44" d="M190.3,428.7c0,0-38.3-6.6-44.9,1.6c-6.6,8.2-7,32,8.1,33.7c15.1,1.7,52.7-5.5,52.7-5.5L190.3,428.7"/>
	<path class="st46" d="M172.2,448.3c0.1-8.7-3.1-16.4-8.5-22.1c12.6,0.1,26.7,2.5,26.7,2.5l15.8,29.7c0,0-21.4,4.1-38.4,5.4
		C170.4,459.1,172.1,453.8,172.2,448.3"/>
	<path class="st44" d="M171.9,434c2.5,5.9,6.7,12.2,4.1,18.7c-1,2.5,3,3.5,4,1.1c3-7.6-1.6-15-4.5-21.9
		C174.4,429.5,170.9,431.6,171.9,434"/>
	<path class="st44" d="M178.3,431.1c1.2,3,3.6,5.2,4.5,8.4c1.2,4.1,0.5,8.5-0.4,12.5c-0.6,2.6,3.4,3.7,4,1.1c1-4.1,1.5-8.2,0.9-12.5
		c-0.2-1.6-0.6-3.2-1.3-4.7c-1-2.2-2.8-3.8-3.6-6C181.3,427.6,177.3,428.6,178.3,431.1"/>
	<path class="st47" d="M139.1,434.2C139.1,434.2,139.1,434.3,139.1,434.2C139.1,434.3,139.1,434.2,139.1,434.2 M139.1,434.2
		C139.1,434.2,139.1,434.2,139.1,434.2C139.1,434.2,139.1,434.2,139.1,434.2"/>
	<path class="st48" d="M144.2,430.6c-1.8,0.9-3.6,2.1-5.1,3.6c0,0,0,0,0,0c0,0,0,0,0,0c0,0,0,0,0,0c0,0,0,0,0,0l0,0
		c-2.9,3-4.6,9-4.6,15.1c0,9.3,3.8,19.1,12.9,20.1c1.6,0.2,3.4,0.3,5.4,0.3c10.6,0,26-2.2,36.4-3.9l-0.6-3.3
		c-10,1.6-23,3.2-32.2,3.2c-2,0-3.8-0.1-5.4-0.3c-15.1-1.7-14.7-25.5-8.1-33.7C143.1,431.4,143.6,431,144.2,430.6"/>
	<path class="st49" d="M145.7,429.8c-0.5,0.2-1,0.5-1.5,0.8c0,0,0,0-0.1,0c-0.6,0.4-1,0.8-1.4,1.2c-6.6,8.2-7,32,8.1,33.7
		c1.6,0.2,3.4,0.3,5.4,0.3c9.2,0,22.2-1.7,32.2-3.2l-0.2-1.2c-9.5,1.4-21,2.8-29.4,2.8c-2,0-3.8-0.1-5.4-0.3
		c-15.1-1.7-14.7-25.5-8.1-33.7C145.5,430.1,145.6,430,145.7,429.8C145.7,429.8,145.7,429.8,145.7,429.8"/>
	<path class="st48" d="M145.7,429.9c-0.1,0.1-0.2,0.2-0.3,0.4c-6.6,8.2-7,32,8.1,33.7c1.6,0.2,3.4,0.3,5.4,0.3
		c8.4,0,19.8-1.4,29.4-2.8l0,0c-6.5,1-13.9,1.9-20.6,2.4c2.7-4.7,4.4-10,4.4-15.6c0-2.8-0.3-5.6-0.9-8.2
		C160.7,436.8,152.3,433.3,145.7,429.9"/>
	<path class="st50" d="M171.3,440.1c0.6,2.6,1,5.3,0.9,8.2c-0.1,5.5-1.7,10.9-4.4,15.6c6.7-0.5,14.1-1.5,20.6-2.4l-1.7-9.5
		c-0.1,0.4-0.2,0.8-0.3,1.3c-0.2,1-1,1.5-1.8,1.5c-1.2,0-2.5-1-2.1-2.6c0.7-2.7,1.2-5.6,1.1-8.4c-1.2-0.3-2.3-0.6-3.5-0.9
		c1.1,3.6,1.5,7.4,0,11.2c-0.4,1-1.2,1.4-2.1,1.4c-1.3,0-2.5-1-1.9-2.5c1.6-3.9,0.7-7.7-0.8-11.5
		C173.8,440.9,172.5,440.5,171.3,440.1"/>
	<path class="st48" d="M175.1,441.3c1.5,3.7,2.4,7.6,0.8,11.5c-0.6,1.5,0.6,2.5,1.9,2.5c0.8,0,1.7-0.4,2.1-1.4
		c1.5-3.8,1.1-7.5,0-11.2C178.3,442.2,176.7,441.8,175.1,441.3"/>
	<path class="st48" d="M183.4,443.6c0.1,2.8-0.4,5.7-1.1,8.4c-0.4,1.6,0.9,2.6,2.1,2.6c0.8,0,1.6-0.4,1.8-1.5
		c0.1-0.4,0.2-0.8,0.3-1.3l-1.4-7.8C184.6,443.9,184,443.8,183.4,443.6"/>
	<path class="st16" d="M341,383c0,0,39.5,5.5,38.4,26.2c-1.1,20.7-10,41.4-110.3,53.6c-50.4,6.1-79.5,6.5-79.5,6.5l-8-45.4
		C181.7,423.9,304.1,381.9,341,383"/>
	<path class="st44" d="M315.1,429.2c0,0,32.2-12.3,45,2.4c7,7.9,5.1,33.9-10,34.8c-15.1,0.9-52.3-8.2-52.3-8.2L315.1,429.2"/>
	<path class="st45" d="M311.7,425.1c0,0,38.6-4.7,44.8,3.9c6.2,8.5,5.4,32.3-9.8,33.3c-15.1,0.9-52.3-8.2-52.3-8.2L311.7,425.1"/>
	<path class="st44" d="M309.2,423.3c0,0,38.6-4.7,44.8,3.9c6.2,8.5,5.3,32.3-9.8,33.3c-15.1,0.9-52.3-8.2-52.3-8.2L309.2,423.3"/>
	<path class="st46" d="M326.3,443.8c0.3-8.7,4-16.2,9.6-21.7c-12.6-0.6-26.8,1.2-26.8,1.2l-17.3,28.9c0,0,21.2,5.2,38.1,7.4
		C327.5,454.7,326.2,449.3,326.3,443.8"/>
	<path class="st44" d="M315.1,429.2c0,0,32.2-12.3,45,2.4c7,7.9,5.1,33.9-10,34.8c-15.1,0.9-52.3-8.2-52.3-8.2L315.1,429.2"/>
	<path class="st45" d="M311.7,425.1c0,0,38.6-4.7,44.8,3.9c6.2,8.5,5.4,32.3-9.8,33.3c-15.1,0.9-52.3-8.2-52.3-8.2L311.7,425.1"/>
	<path class="st44" d="M309.2,423.3c0,0,38.6-4.7,44.8,3.9c6.2,8.5,5.3,32.3-9.8,33.3c-15.1,0.9-52.3-8.2-52.3-8.2L309.2,423.3"/>
	<path class="st51" d="M326.3,443.8c0.3-8.7,4-16.2,9.6-21.7c-12.6-0.6-26.8,1.2-26.8,1.2l-17.3,28.9c0,0,21.2,5.2,38.1,7.4
		C327.5,454.7,326.2,449.3,326.3,443.8"/>
	<path class="st52" d="M363.2,438.1L363.2,438.1c0.5,2.2,0.8,4.6,0.8,7.1C364,442.7,363.8,440.3,363.2,438.1"/>
	<path class="st47" d="M359.8,431.2c0.1,0.1,0.2,0.2,0.3,0.3c1.4,1.6,2.4,3.9,3.1,6.5l0,0c-0.7-2.7-1.7-5-3.1-6.5
		C360,431.4,359.9,431.3,359.8,431.2"/>
	<path class="st48" d="M355.2,427.6c0.5,0.4,1,0.8,1.3,1.3c6.2,8.5,5.4,32.3-9.8,33.3c-0.7,0-1.5,0.1-2.3,0.1c-9.2,0-24-2.7-35.1-5
		l-0.7,3.2c1.7,0.4,3.6,0.8,5.6,1.2c0,0,0,0,0,0c0,0,0,0,0,0c10.9,2.2,24.7,4.6,33.5,4.6c0.8,0,1.6,0,2.3-0.1
		c9.7-0.6,13.9-11.4,13.9-21.1c0-2.5-0.3-4.9-0.8-7.1c-0.7-2.7-1.7-5-3.1-6.5c-0.1-0.1-0.2-0.2-0.3-0.3
		C358.5,429.7,356.9,428.6,355.2,427.6"/>
	<path class="st49" d="M353.6,426.7c0.1,0.2,0.3,0.3,0.4,0.5c6.2,8.5,5.3,32.3-9.8,33.3c-0.7,0-1.5,0.1-2.3,0.1
		c-8.5,0-21.6-2.2-32.3-4.4l-0.3,1.2c11.1,2.3,25.9,5,35.1,5c0.8,0,1.6,0,2.3-0.1c15.2-0.9,16-24.7,9.8-33.3
		c-0.3-0.5-0.8-0.9-1.3-1.3c0,0,0,0-0.1,0C354.7,427.3,354.2,427,353.6,426.7"/>
	<path class="st48" d="M349,424.1c3,10.7-0.5,28.3-12.9,29c-0.7,0-1.5,0.1-2.3,0.1c-1.9,0-4.1-0.1-6.4-0.3c0.6,2.3,1.5,4.6,2.6,6.7
		c-6.7-0.9-14-2.2-20.4-3.5l0,0c10.7,2.2,23.8,4.4,32.3,4.4c0.8,0,1.6,0,2.3-0.1c15.2-0.9,16-24.7,9.8-33.3
		c-0.1-0.2-0.2-0.3-0.4-0.5c0,0,0,0-0.1,0C352.6,425.6,351,424.7,349,424.1"/>
	<path class="st53" d="M310.9,450.6l-1.3,5.5c6.4,1.3,13.7,2.6,20.4,3.5c-1.1-2.1-2-4.4-2.6-6.7
		C322.3,452.4,316.5,451.6,310.9,450.6"/>
	<path class="st44" d="M323.9,427.4c-3.3,6.8-8.2,13.9-5.5,21.7c0.9,2.5,4.8,1.4,4-1.1c-2.2-6.6,2.3-12.8,5.1-18.5
		C328.6,427.1,325,425,323.9,427.4z"/>
	<path class="st44" d="M317.3,424.7c-1.7,3.7-4.6,6.1-5.5,10.3c-1,4.4-0.6,8.7,0.2,13.1c0.5,2.6,4.5,1.5,4-1.1c-0.7-4-1-8,0.1-12
		c0.9-3.2,3.5-5.2,4.8-8.2C322,424.4,318.4,422.3,317.3,424.7z"/>
	<path class="st16" d="M161.1,370c0,0-39.7,3.5-39.7,24.2c0,20.7,7.8,41.8,107.4,59.1c50.1,8.7,79,10.6,79,10.6l10.3-45
		C318.1,418.9,198,370.8,161.1,370"/>
	<path class="st17" d="M235,433.6c-88.6-15.4-104.6-33.8-107-52.3c-3.9,3.3-6.6,7.5-6.6,12.9c0,20.7,7.8,41.8,107.4,59.1
		c50.1,8.7,79,10.6,79,10.6l4.5-19.8C305.5,443.6,278.1,441.1,235,433.6"/>
	<path class="st32" d="M250.5,223v17.2l-16.1,4.5c0,0,0,20.2,25.8,20.2c28.3,0,25.7-22.6,25.7-22.6l-16.1-2.3L269,223H250.5z"/>
	<path class="st54" d="M193.5,255.9c0,0,14.1-14.7,40.8-14.6c0,0,8.8,19.5,27.8,16.7c0,0,23.8-4.3,23.7-16.7c0,0,37.7-1.8,46.7,40.7
		c8.9,42.6-61.1,78.2-103.3,69.3c-42.2-8.9-65.5-60.4-65.5-60.4L193.5,255.9"/>
	<path class="st55" d="M332.5,282c-8.9-42.6-46.7-40.7-46.7-40.7c0,6.7-6.9,11-13.3,13.6c-4,16.3-13.1,31.6-25,41.1
		c-10.8,8.6-22.1,15-34.9,20c-7.4,2.9-14.7,5.6-22.2,8.2c-1.2,0.4-2.3,0.8-3.5,1.2c10.7,11.5,24.8,22.4,42.2,26.1
		C271.4,360.2,341.4,324.5,332.5,282"/>
	<path class="st31" d="M227.8,125.2c0,0-38.3,57.6-20.9,85.1c16.2,25.7,90.7,43,104.2-19.1c0,0,15.3,5.6,16.2-11.1
		c0.9-16.8-12.6-15.9-12.6-15.9S320,130,295.7,121S249.4,97.3,227.8,125.2z"/>
	<path class="st32" d="M314.6,164.2c0,0,5.4-34.2-18.9-43.2c-16-5.9-31.1-14.3-45.7-11.3c10.3,2.5,19.2,8.8,25.1,19.1
		c4.6,8.1,5.6,16.7,8.1,25.4c3.5,12.3,6.3,27.6,1,39.9c-5.3,12.3-12.9,23.4-25.6,28.9c-9.3,4-19.4,5.9-29.3,4.5
		c28.5,12.2,71.8,9.7,81.7-36.3c0,0,15.3,5.6,16.2-11.1C328.1,163.3,314.6,164.2,314.6,164.2z"/>
	<path class="st6" d="M314,109c-81.1-52.4-118,28.2-118,28.2c17.8,19.9,52.2,17.2,52.2,17.2l-8.9,7.8c29.5,9.9,49.3-9.1,49.3-9.1
		v9.1c7.4-2.4,12-6.9,14.8-11.5c3.7,7.3,3.6,21.6,3.1,29.1c0,0,19-9.2,21.5-30.4C330.4,127.2,320.4,112.7,314,109z"/>
	<path class="st56" d="M257.9,123.1c-0.1-1.4-0.3-2.8-0.4-4.2c0.2,2,0.2,3.9,0.1,5.8C257.8,124.1,257.8,123.6,257.9,123.1z"/>
	<path class="st4" d="M314,109c-18.2-11.8-34.1-16.8-48-17.6c1.3,1,2.7,2.3,5,4.2c8,7,10,17.5,10.9,27.5c0.7,8.6-2.7,17.1-4.4,25.4
		c-1.2,5.7-5.3,11.2-10.1,15.1c13.2-3.1,21.1-10.7,21.1-10.7v9.1c7.4-2.4,12-6.9,14.8-11.5c3.7,7.3,3.6,21.6,3.1,29.1
		c0,0,19-9.2,21.5-30.4C330.4,127.2,320.4,112.7,314,109z"/>
	<path class="st33" d="M214,162.1c0,0,0,0.8,0.1,2.2c0.1,1.4,0.2,3.4,0.4,5.6c0.3,2.2,0.7,4.8,1.8,7c0.3,0.5,0.6,1,0.9,1.4
		c0.4,0.4,0.7,0.8,1.1,1.1c0.8,0.6,1.8,1,3,1.2l0.6,0.1c0.2,0,0.3,0,0.4,0c0.2,0,0.5,0,0.8,0c0.6,0,1.2-0.1,1.7-0.2
		c1.1-0.3,2.3-0.8,3.4-1.5c2.2-1.3,4.1-3.1,5.6-4.8c1.6-1.7,2.8-3.2,3.7-4.3c0.9-1.1,1.4-1.7,1.4-1.7s-0.1,0.8-0.4,2.2
		c-0.3,1.4-1,3.4-2.1,5.6c-1.1,2.2-2.8,4.7-5.4,6.9c-1.3,1.1-2.9,2-4.7,2.6c-0.9,0.3-1.9,0.5-2.9,0.6c-0.5,0-1,0.1-1.6,0
		c-0.3,0-0.6,0-0.8-0.1l-0.6-0.1c-2-0.3-4-1.1-5.5-2.5c-1.6-1.4-2.6-3.1-3.2-4.8c-0.6-1.7-0.8-3.3-0.8-4.8c0-1.5,0.1-2.9,0.3-4.1
		c0.4-2.5,1.1-4.4,1.7-5.7C213.5,162.8,214,162.1,214,162.1z"/>
	<path class="st33" d="M266.4,171c0,0,0.1,0.8,0.3,2.2c0.2,1.4,0.4,3.3,0.9,5.6c0.5,2.2,1.1,4.8,2.4,6.8c0.3,0.5,0.7,1,1,1.4
		c0.4,0.4,0.8,0.7,1.2,1c0.8,0.6,1.9,0.9,3.1,0.9l0.6,0c0.2,0,0.3,0,0.4,0c0.2,0,0.5,0,0.8-0.1c0.6-0.1,1.1-0.2,1.7-0.4
		c1.1-0.4,2.2-1,3.2-1.7c2.1-1.5,3.8-3.5,5.2-5.2c1.4-1.8,2.6-3.4,3.4-4.5c0.8-1.2,1.2-1.8,1.2-1.8s0,0.8-0.2,2.2
		c-0.2,1.4-0.7,3.4-1.6,5.7c-1,2.3-2.4,5-4.8,7.3c-1.2,1.2-2.7,2.3-4.5,3c-0.9,0.3-1.8,0.7-2.8,0.8c-0.5,0.1-1,0.1-1.5,0.1
		c-0.3,0-0.6,0-0.8,0l-0.6,0c-2-0.2-4.1-0.8-5.7-2.1c-1.7-1.2-2.8-2.9-3.5-4.5c-0.7-1.6-1-3.2-1.2-4.7c-0.2-1.5-0.1-2.9,0-4.1
		c0.2-2.5,0.7-4.5,1.2-5.8C266,171.7,266.4,171,266.4,171z"/>
	<path class="st32" d="M248.1,184.8c0,0-5.6-7.2-7.3-0.7c-0.9,3.5-5.2,5.6-7.4,5.5c-5.6-0.4-5.6,5.1,0,8.6
		C241.9,203.4,251.2,192.4,248.1,184.8z"/>
	<path class="st33" d="M238.6,207.1c0,0,0.6,0.1,1.5,0.3c0.5,0.1,1.1,0.2,1.7,0.3c0.7,0.1,1.4,0.2,2.2,0.3c0.4,0,0.8,0.1,1.3,0.1
		c0.4,0,0.9,0.1,1.3,0.1c0.9,0.1,1.9,0.1,2.8,0.1c1-0.1,2,0,3-0.1c0.5,0,1-0.1,1.5-0.1c0.5,0,1-0.2,1.5-0.2c1-0.1,2-0.4,3-0.6
		c1-0.2,1.9-0.6,2.8-0.9c0.5-0.1,0.9-0.3,1.3-0.5c0.4-0.2,0.9-0.4,1.3-0.6c0.9-0.3,1.6-0.8,2.3-1.1c0.4-0.2,0.7-0.4,1-0.5
		c0.4-0.2,0.7-0.3,0.9-0.5c0.6-0.4,1.1-0.7,1.5-0.9c0.9-0.5,1.4-0.8,1.4-0.8s-0.3,0.5-0.8,1.4c-0.3,0.4-0.6,0.9-1,1.5
		c-0.4,0.6-1,1.1-1.6,1.8c-0.6,0.6-1.3,1.3-2.1,1.9c-0.4,0.3-0.8,0.6-1.3,0.9c-0.4,0.3-0.9,0.6-1.4,0.8c-0.5,0.3-1,0.5-1.5,0.7
		l-0.8,0.4l-0.8,0.3c-1.1,0.4-2.3,0.7-3.5,0.9c-0.6,0.1-1.2,0.2-1.8,0.2c-0.6,0-1.2,0-1.8,0c-0.6,0-1.2,0-1.7-0.1
		c-0.6-0.1-1.1-0.1-1.7-0.2c-1.1-0.2-2.2-0.4-3.1-0.7c-0.5-0.2-1-0.3-1.4-0.5c-0.4-0.2-0.9-0.4-1.3-0.5c-0.8-0.3-1.5-0.8-2.1-1.1
		c-0.6-0.4-1.1-0.7-1.5-1C239,207.5,238.6,207.1,238.6,207.1z"/>
	<path class="st31" d="M151.7,293.6c0,0,0.5-6.7,5.6-6.7s18.4,6.7,15.4,8.8c-2.9,2.1-14.7-0.3-14.7-0.3s14.9,7.2,10.9,8.9
		c-4,1.7-13.1-0.7-13.1-0.7s28.5,14.1,0.2,7.8c0,0,19.3,16.1-2.4,5.4c0,0-6.1-5.6-2.9-10.9C150.7,305.8,146.1,300.3,151.7,293.6z"/>
	<path class="st31" d="M332.8,313.7c0,0,1.4-6.6-3.5-8c-5-1.4-19.5,1.3-17.3,4.2c2.2,2.8,14.2,3.8,14.2,3.8s-16.3,2.7-13,5.5
		c3.4,2.8,12.8,3,12.8,3s-31.3,5.6-2.4,7.4c0,0-23.1,10,0.8,5.9c0,0,7.4-3.6,5.8-9.7C330.3,325.6,336.3,321.7,332.8,313.7"/>
	<polyline class="st57" points="344.8,413.6 149.4,413.6 149.4,291.4 344.8,291.4 344.8,413.6 	"/>
	<g>
		<defs>
			<path id="SVGID_3_" d="M344.8,291.4h-11.6h-6.4c-3,32.6-15.4,63.9-42.3,84.8c-19.6,15.2-43.6,22-68.1,22c-0.8,0-1.6,0-2.4,0
				c-21.7-0.4-43-4.7-64.5-7.1v22.5h195.4L344.8,291.4"/>
		</defs>
		<clipPath id="SVGID_4_">
			<use xlink:href="#SVGID_3_"  style="overflow:visible;"/>
		</clipPath>
		<rect x="149.4" y="291.4" class="st58" width="195.4" height="122.2"/>
	</g>
	<polygon class="st59" points="231.9,339.9 231.9,346.4 236.1,346.4 236.1,344.7 242.6,344.7 242.6,364.7 240.6,364.7 240.6,368.9 
		249.8,368.9 249.8,364.7 247.8,364.7 247.8,344.7 254.3,344.7 254.3,346.4 258.5,346.4 258.5,339.9 	"/>
	<path class="st60" d="M347.9,426.1H149.2c-3.7,0-6.7-3-6.7-6.7c0-3.7,3-6.7,6.7-6.7h198.7c3.7,0,6.7,3,6.7,6.7
		C354.5,423.1,351.5,426.1,347.9,426.1z"/>
</g>
</svg>
