<?xml version="1.0" encoding="utf-8"?>
<!-- Generator: Adobe Illustrator 18.0.0, SVG Export Plug-In . SVG Version: 6.00 Build 0)  -->
<!DOCTYPE svg PUBLIC "-//W3C//DTD SVG 1.1//EN" "http://www.w3.org/Graphics/SVG/1.1/DTD/svg11.dtd">
<svg version="1.1" id="Capa_1" xmlns="http://www.w3.org/2000/svg" xmlns:xlink="http://www.w3.org/1999/xlink" x="0px" y="0px"
	 viewBox="0 0 175.7 175.7" enable-background="new 0 0 175.7 175.7" xml:space="preserve">
<g>
	<path fill="#51555A" stroke="#FFFFFF" stroke-width="2" stroke-miterlimit="10" d="M159.3,129.5h-44.7v-17.2
		c0-6.7,2.3-13.3,6.5-18.6l9.6-12.1c1.1-1.4,2.9-2.1,4.7-1.9c1.8,0.3,3.3,1.4,4,3.1c0.6,1.6,0.5,3.3-0.5,4.7l-10.3,15.5
		c-0.9,1.3-0.5,3.1,0.8,4s3.1,0.5,4-0.8l10.3-15.5c2-3,2.4-6.8,1-10.1c-1.5-3.6-4.7-6.1-8.5-6.7c-3.9-0.6-7.6,1-10.1,4l-9.6,12.1
		c-5,6.3-7.7,14.2-7.7,22.2v17.2c-1.6,0-2.9,1.3-2.9,2.9v21.1c0,1.6,1.3,2.9,2.9,2.9s2.9-1.3,2.9-2.9v-18.1h44.7v18.1
		c0,1.6,1.3,2.9,2.9,2.9s2.9-1.3,2.9-2.9v-21.1C162.2,130.8,160.9,129.5,159.3,129.5z"/>
	<path fill="#51555A" stroke="#FFFFFF" stroke-width="2" stroke-miterlimit="10" d="M156.4,117c-0.8,0-1.5,0.3-2.1,0.9
		c-0.5,0.5-0.9,1.3-0.9,2.1c0,0.8,0.3,1.5,0.9,2.1c0.5,0.5,1.3,0.9,2.1,0.9c0.8,0,1.5-0.3,2.1-0.9c0.5-0.5,0.9-1.3,0.9-2.1
		c0-0.8-0.3-1.5-0.9-2.1S157.1,117,156.4,117z"/>
	<path fill="#51555A" stroke="#FFFFFF" stroke-width="2" stroke-miterlimit="10" d="M130.8,69.5c0.6,1.5,2.3,2.2,3.8,1.5
		c1.5-0.6,2.2-2.3,1.5-3.8l-14-32.9c-1.3-3.2-0.1-6.8,2.9-8.4c1.7-0.9,3.6-1,5.3-0.4s3.2,1.9,3.9,3.7l13.2,31.9c4,9.6,6,19.7,6,30
		v16.8c0,1.6,1.3,2.9,2.9,2.9s2.9-1.3,2.9-2.9V91.1c0-11.1-2.2-22-6.4-32.2L139.6,27c-1.3-3.2-4-5.8-7.3-6.9
		c-3.3-1.2-6.9-0.9-10,0.8c-5.7,3.1-8.1,9.8-5.5,15.8L130.8,69.5z"/>
	<path fill="#51555A" stroke="#FFFFFF" stroke-width="2" stroke-miterlimit="10" d="M125.1,142.5c-1.1-1.2-2.9-1.3-4.1-0.2
		c-1.2,1.1-1.3,2.9-0.2,4.1l0,0c0.6,0.6,1.4,0.9,2.1,0.9c0.7,0,1.4-0.3,2-0.8C126.2,145.6,126.3,143.7,125.1,142.5L125.1,142.5z"/>
</g>
<g>
	<path fill="#51555A" stroke="#FFFFFF" stroke-width="2" stroke-miterlimit="10" d="M67,129.5v-17.2c0-8-2.7-15.9-7.7-22.2L49.6,78
		c-2.4-3.1-6.2-4.6-10.1-4c-3.9,0.6-7.1,3-8.5,6.7c-1.4,3.3-1,7.1,1,10.1l10.3,15.5c0.9,1.3,2.7,1.7,4,0.8c1.3-0.9,1.7-2.7,0.8-4
		L36.9,87.6c-0.9-1.4-1.1-3.2-0.5-4.7c0.7-1.7,2.2-2.8,4-3.1c1.8-0.3,3.6,0.4,4.7,1.9l9.6,12.1c4.2,5.3,6.5,11.9,6.5,18.6v17.2H22.3
		V91.1c0-10.4,2-20.5,6-30l13.2-31.9c0.7-1.7,2.1-3,3.9-3.7c1.8-0.6,3.7-0.5,5.3,0.4c3,1.6,4.3,5.2,2.9,8.4l-14,32.9
		c-0.6,1.5,0.1,3.2,1.5,3.8c1.5,0.6,3.2-0.1,3.8-1.5l14-32.9c2.5-5.9,0.2-12.7-5.5-15.8c-3.1-1.7-6.7-1.9-10-0.8
		c-3.3,1.2-6,3.7-7.3,6.9L22.9,58.9c-4.3,10.3-6.4,21.1-6.4,32.2v38.4h0c-1.6,0-2.9,1.3-2.9,2.9v21.1c0,1.6,1.3,2.9,2.9,2.9
		s2.9-1.3,2.9-2.9v-18.1h44.7v18.1c0,1.6,1.3,2.9,2.9,2.9c1.6,0,2.9-1.3,2.9-2.9v-21.1C69.9,130.8,68.6,129.5,67,129.5z"/>
	<path fill="#51555A" stroke="#FFFFFF" stroke-width="2" stroke-miterlimit="10" d="M50.6,142.5L50.6,142.5c-1.1,1.2-1,3,0.2,4.1
		c0.6,0.5,1.3,0.8,2,0.8c0.8,0,1.6-0.3,2.1-0.9l0,0c1.1-1.2,1-3-0.2-4.1C53.5,141.3,51.7,141.3,50.6,142.5z"/>
</g>
<path fill="#FF6334" d="M111,67.8c0-8.5-6.4-15.5-14.3-15.5c-3.2,0-6.3,1.2-8.8,3.3c-2.5-2.1-5.6-3.3-8.8-3.3
	c-7.9,0-14.3,6.9-14.3,15.5c0,4.9,3.8,10.8,11.2,17.7c5.3,4.9,10.5,8.4,10.7,8.6c0.4,0.3,0.8,0.4,1.2,0.4s0.9-0.1,1.2-0.4
	c0.2-0.1,5.4-3.7,10.7-8.6C107.2,78.6,111,72.7,111,67.8z"/>
</svg>
