<?xml version="1.0" encoding="utf-8"?>
<!-- Generator: Adobe Illustrator 18.0.0, SVG Export Plug-In . SVG Version: 6.00 Build 0)  -->
<!DOCTYPE svg PUBLIC "-//W3C//DTD SVG 1.1//EN" "http://www.w3.org/Graphics/SVG/1.1/DTD/svg11.dtd">
<svg version="1.1" id="Capa_1" xmlns="http://www.w3.org/2000/svg" xmlns:xlink="http://www.w3.org/1999/xlink" x="0px" y="0px"
	 viewBox="0 0 175.8 175.8" enable-background="new 0 0 175.8 175.8" xml:space="preserve">
<path fill="#FFFFFF" stroke="#51555A" stroke-width="1.9593" stroke-linecap="round" stroke-linejoin="round" stroke-miterlimit="10" d="
	M120.2,102.3c-0.7,0-1.5-0.1-2.2-0.2v25.6c0.6,0.2,1.2,0.4,1.9,0.4c3,0,5.4-2.4,5.4-5.4v-21.9c-0.6,0.4-1.3,0.8-2.1,1
	C122.2,102.1,121.2,102.3,120.2,102.3L120.2,102.3z M120.2,102.3"/>
<path fill="#FFFFFF" stroke="#51555A" stroke-width="1.9593" stroke-linecap="round" stroke-linejoin="round" stroke-miterlimit="10" d="
	M151.8,83.2l-9-27.6c-1.2-3.7-4.6-6.2-8.5-6.2h-13.9c-3.2,0-6,1.8-7.6,4.5c3.5,1.4,6.4,4.3,7.6,8.2l9,27.6c0.4,1.3,0.6,2.5,0.4,3.8
	c0,0.5-0.2,1-0.3,1.5v27.8c0,3,2.4,5.4,5.4,5.4c3,0,5.4-2.4,5.4-5.4V81.8l1.5,4.7c0.7,2.2,2.8,3.7,5,3.7c0.5,0,1.1-0.1,1.6-0.3
	c2.1-0.7,3.5-2.5,3.6-4.6C152.1,84.6,152,83.9,151.8,83.2L151.8,83.2z M151.8,83.2"/>
<path fill="#FFFFFF" stroke="#51555A" stroke-width="1.9593" stroke-linecap="round" stroke-linejoin="round" stroke-miterlimit="10" d="
	M123.6,45.1c1.2,0.4,2.4,0.7,3.8,0.7c1.3,0,2.6-0.3,3.8-0.7c4.6-1.6,7.9-5.9,7.9-11c0-6.4-5.2-11.7-11.7-11.7
	c-6.4,0-11.7,5.2-11.7,11.7C115.7,39.2,119,43.5,123.6,45.1L123.6,45.1z M123.6,45.1"/>
<path fill="#FFFFFF" stroke="#51555A" stroke-width="1.9593" stroke-linecap="round" stroke-linejoin="round" stroke-miterlimit="10" d="
	M94,111c-0.7,0-1.5-0.1-2.2-0.2v24.7c0.5,0.2,1,0.3,1.5,0.3c3,0,5.4-2.4,5.4-5.4v-20.8c-0.6,0.3-1.1,0.7-1.7,0.9
	C96,110.9,95,111,94,111L94,111z M94,111"/>
<path fill="#FFFFFF" stroke="#51555A" stroke-width="1.9593" stroke-linecap="round" stroke-linejoin="round" stroke-miterlimit="10" d="
	M116.2,63.4c-1.2-3.7-4.6-6.2-8.5-6.2H93.9c-2.5,0-4.8,1.1-6.4,2.9c-0.3,0.4-0.6,0.8-1,1.2c-0.2,0.3-0.4,0.7-0.5,1
	c3.8,1.3,7,4.4,8.3,8.4l9,27.6c0.4,1.2,0.6,2.5,0.4,3.8c-0.1,1-0.3,1.9-0.7,2.8v25.5c0,3,2.4,5.4,5.4,5.4c3,0,5.4-2.4,5.4-5.4V89.6
	l1.5,4.7c0.7,2.2,2.8,3.7,5,3.7c0.5,0,1.1-0.1,1.6-0.3c2.1-0.7,3.5-2.5,3.6-4.6c0.1-0.7,0-1.4-0.2-2.1L116.2,63.4z M116.2,63.4"/>
<path fill="#FFFFFF" stroke="#51555A" stroke-width="1.9593" stroke-linecap="round" stroke-linejoin="round" stroke-miterlimit="10" d="
	M97.1,52.8c1.2,0.4,2.4,0.7,3.8,0.7c1.3,0,2.6-0.3,3.8-0.7c4.6-1.6,7.9-5.9,7.9-11c0-6.4-5.2-11.7-11.7-11.7
	c-6.4,0-11.7,5.2-11.7,11.7C89.2,47,92.5,51.3,97.1,52.8L97.1,52.8z M97.1,52.8"/>
<path fill="#FFFFFF" stroke="#51555A" stroke-width="1.9593" stroke-linecap="round" stroke-linejoin="round" stroke-miterlimit="10" d="
	M90,72.1c-1.2-3.7-4.6-6.2-8.5-6.2H67.7c-2.5,0-4.8,1.1-6.4,2.9c-0.3,0.4-0.6,0.8-1,1.2c-0.2,0.3-0.4,0.7-0.5,1
	c3.8,1.3,7,4.4,8.3,8.4l9,27.6c0.4,1.3,0.6,2.5,0.4,3.8c-0.1,1-0.3,1.9-0.7,2.8v25.5c0,3,2.4,5.4,5.4,5.4c3,0,5.4-2.4,5.4-5.4V98.3
	L89,103c0.7,2.2,2.8,3.7,5,3.7c0.5,0,1.1-0.1,1.6-0.3c2.1-0.7,3.5-2.5,3.6-4.6c0.1-0.7,0-1.4-0.2-2.1L90,72.1z M90,72.1"/>
<path fill="#FFFFFF" stroke="#51555A" stroke-width="1.9593" stroke-linecap="round" stroke-linejoin="round" stroke-miterlimit="10" d="
	M67.8,119.8c-0.7,0-1.5-0.1-2.2-0.2v24.7c0.5,0.2,1,0.3,1.5,0.3c3,0,5.4-2.4,5.4-5.4v-20.8c-0.6,0.3-1.1,0.7-1.7,0.9
	C69.8,119.6,68.8,119.8,67.8,119.8L67.8,119.8z M67.8,119.8"/>
<path fill="#FFFFFF" stroke="#51555A" stroke-width="1.9593" stroke-linecap="round" stroke-linejoin="round" stroke-miterlimit="10" d="
	M70.9,61.6c1.2,0.4,2.4,0.7,3.8,0.7c1.3,0,2.6-0.3,3.8-0.7c4.6-1.6,7.9-5.9,7.9-11c0-6.4-5.2-11.7-11.7-11.7
	c-6.4,0-11.7,5.2-11.7,11.7C62.9,55.7,66.3,60,70.9,61.6L70.9,61.6z M70.9,61.6"/>
<path fill="#FF6334" d="M63.8,80.9c-1.2-3.7-4.6-6.2-8.5-6.2H41.5c-3.9,0-7.3,2.5-8.5,6.2l-9,27.6c-0.2,0.7-0.3,1.4-0.2,2.1
	c0.2,2.1,1.5,3.9,3.6,4.6c0.5,0.2,1.1,0.3,1.6,0.3c2.2,0,4.3-1.4,5-3.7l1.5-4.7V148c0,3,2.4,5.4,5.4,5.4s5.4-2.4,5.4-5.4v-32h4.2v32
	c0,3,2.4,5.4,5.4,5.4s5.4-2.4,5.4-5.4v-40.9l1.5,4.7c0.7,2.2,2.8,3.7,5,3.7c0.5,0,1.1-0.1,1.6-0.3c2.1-0.7,3.5-2.5,3.6-4.6
	c0.1-0.7,0-1.4-0.2-2.1L63.8,80.9z M63.8,80.9"/>
<path fill="#FF6334" d="M44.6,70.3c1.2,0.4,2.4,0.7,3.8,0.7c1.3,0,2.6-0.3,3.8-0.7c4.6-1.6,7.9-5.9,7.9-11c0-6.4-5.2-11.7-11.7-11.7
	c-6.4,0-11.7,5.2-11.7,11.7C36.7,64.5,40.1,68.8,44.6,70.3L44.6,70.3z M44.6,70.3"/>
</svg>
