<?xml version="1.0" encoding="utf-8"?>
<!-- Generator: Adobe Illustrator 18.0.0, SVG Export Plug-In . SVG Version: 6.00 Build 0)  -->
<!DOCTYPE svg PUBLIC "-//W3C//DTD SVG 1.1//EN" "http://www.w3.org/Graphics/SVG/1.1/DTD/svg11.dtd">
<svg version="1.1" id="Capa_1" xmlns="http://www.w3.org/2000/svg" xmlns:xlink="http://www.w3.org/1999/xlink" x="0px" y="0px"
	 viewBox="0 0 175.8 175.8" enable-background="new 0 0 175.8 175.8" xml:space="preserve">
<g>
	<g>
		<defs>
			<rect id="SVGID_1_" x="2.1" y="22.7" width="171.6" height="130.4"/>
		</defs>
		<clipPath id="SVGID_2_">
			<use xlink:href="#SVGID_1_"  overflow="visible"/>
		</clipPath>
		
			<circle clip-path="url(#SVGID_2_)" fill="#FFFFFF" stroke="#51555A" stroke-width="2.6673" stroke-linecap="square" stroke-linejoin="round" stroke-miterlimit="10" cx="32.6" cy="46.7" r="14.8"/>
		
			<circle clip-path="url(#SVGID_2_)" fill="#FFFFFF" stroke="#51555A" stroke-width="2.6673" stroke-linecap="square" stroke-linejoin="round" stroke-miterlimit="10" cx="143.4" cy="46.7" r="14.8"/>
		<path clip-path="url(#SVGID_2_)" fill="#FF6334" d="M97.9,83.1l-3.5-5c-1.2-1.7-3.5-2.1-5.2-0.9l-8.6,6.1
			c1.4,6.7-2.3,13.5-8.9,15.9l-1,0.4l5.9,8.3c1.2,1.7,3.5,2.1,5.2,0.9l14.5-10.3c-1.7-3.3-2.1-7.3-0.8-11.1
			C96,85.8,96.8,84.3,97.9,83.1z"/>
		
			<path clip-path="url(#SVGID_2_)" fill="#FFFFFF" stroke="#51555A" stroke-width="2.6673" stroke-linecap="square" stroke-linejoin="round" stroke-miterlimit="10" d="
			M167.7,77.4c0-5.5-4.4-9.9-9.9-9.9h-18.2c-5.5,0-9.9,4.4-9.9,9.9v8.5l3,1.1l9.2-7.3l-10,13.6l-23.5-8.4c-4-1.4-8.3,0.6-9.8,4.6
			c-1.4,4,0.6,8.3,4.6,9.8l28.9,10.4c3.2,1.1,6.7,0,8.7-2.7l13.3-18.2l-8.3,21.9c-2,5.2-7.7,7.8-12.9,6c-3.2-1.1-2.8-1-3.4-1.2v86.2
			c0,4.7,3.8,8.6,8.6,8.6c0,0,0,0,0,0c4.7,0,8.6-3.8,8.6-8.6l0-68.7h3.7v68.6c0,4.7,3.8,8.6,8.6,8.6c0,0,0,0,0,0
			c4.7,0,8.6-3.8,8.6-8.6L167.7,77.4L167.7,77.4z"/>
		
			<path clip-path="url(#SVGID_2_)" fill="#FFFFFF" stroke="#51555A" stroke-width="2.6673" stroke-linecap="square" stroke-linejoin="round" stroke-miterlimit="10" d="
			M76.7,83.5c-1.2-3.2-4.3-5.2-7.6-5C60.6,80.1,49,85.4,49,85.4L36.1,74l10,4.7v-1.2c0-5.5-4.4-9.9-9.9-9.9H18
			c-5.5,0-9.9,4.4-9.9,9.9v124c0,4.7,3.9,8.6,8.6,8.6c0,0,0,0,0,0c4.7,0,8.6-3.9,8.6-8.6c0,0,0-68.2,0-68.4h3.7l0,68.5
			c0,4.7,3.8,8.6,8.6,8.6c4.7,0,8.6-3.8,8.6-8.6l0-92.8c-3.2,0.1-6.2-1.5-7.9-4.2l-12.1-19l16.3,14.3c2.1,1.8,5,2.4,7.6,1.4
			l22.2-7.9C76.1,91.9,78.2,87.5,76.7,83.5z"/>
	</g>
</g>
</svg>
