<svg id="BACKGROUND2" xmlns="http://www.w3.org/2000/svg" viewBox="0 0 463.62 138.02"><title>img-menu-pe</title><path d="M360.8,43.09s-36-12.94-62.51,20.27c0,0,28.92-13.85,50-2.62Z" transform="translate(0 0)" style="fill:#008fc4"/><path d="M379.52,76.7s-7.94,37.44-50.12,42.49c0,0,27-17.31,28.54-41.15Z" transform="translate(0 0)" style="fill:#008fc4"/><path d="M340.2,62.47c29.49-47,85.58-54.92,123.42-54.64C443.94,40.14,407.68,83.67,352.21,84Z" transform="translate(0 0)" style="fill:#fafafa"/><polygon points="346.2 73.25 340.2 62.48 331.75 72.88 335.33 79.31 338.91 85.73 352.2 84.02 346.2 73.25" style="fill:#008fc4"/><path d="M423.28,44.52a12.42,12.42,0,1,1,4.81-16.9A12.43,12.43,0,0,1,423.28,44.52Z" transform="translate(0 0)" style="fill:#008fc4"/><path d="M421.51,41.34a8.78,8.78,0,1,1,3.4-12A8.78,8.78,0,0,1,421.51,41.34Z" transform="translate(0 0)" style="fill:#f4633a"/><path d="M421.93,38.09a3.14,3.14,0,1,1,1.22-4.27A3.14,3.14,0,0,1,421.93,38.09Z" transform="translate(0 0)" style="fill:#fafafa"/><path d="M272.34,133.24l66.58-47.51-7.17-12.86L256.49,105.2a45.71,45.71,0,0,0-83.8-20.35,50.61,50.61,0,0,0-47.53-22A70.35,70.35,0,0,0,125.22,0H19.92V138H277.69A47.26,47.26,0,0,0,272.34,133.24Z" transform="translate(0 0)" style="fill:#f0f0f0"/><path d="M22.74,138c25.75-17.29,20.85-44.37,1-52.15,15-2.3,23-32,14.4-45.53C65.49,43.79,78.74,16.71,75.28,0H0V138Z" transform="translate(0 0)" style="fill:#f4633a"/></svg>