<svg width="151" height="151" viewBox="0 0 151 151" fill="none" xmlns="http://www.w3.org/2000/svg">
<g clip-path="url(#clip0)">
<path d="M75.2 150.4C116.732 150.4 150.4 116.732 150.4 75.2C150.4 33.6682 116.732 0 75.2 0C33.6682 0 0 33.6682 0 75.2C0 116.732 33.6682 150.4 75.2 150.4Z" fill="#FC5A36"/>
<path d="M78.9 56.8H79.5C81 56.8 82.4 57.4001 83.4 58.4001C84.4 59.4001 85 60.8 85 62.3C85 65.4 82.5 67.9001 79.4 67.9001H78.6" fill="#F9572B"/>
<path d="M51.9 56.8H51.3C48.2 56.8 45.7 59.3001 45.7 62.4001C45.7 63.9001 46.3 65.3001 47.3 66.3001C48.3 67.3001 49.7 67.9001 51.2 67.9001H52" fill="#F9572B"/>
<path d="M47.4 84.3C50 76.9 57.1 71.5 65.4 71.5C70.7 71.5 75.4 73.6 78.9 77.1C80.9 79.1 82.5 81.6 83.4 84.3L73.8 89.7" fill="#45B8C4"/>
<path d="M65.4 71.5C60.4 71.5 56.2 76.8 54.7 84.3H47.4C50 76.9 57.1 71.5 65.4 71.5Z" fill="#239999"/>
<path d="M65.4 78.4C57.8 78.4 51.7 72.3 51.7 64.7V59.2C51.7 51.6 57.8 45.5 65.4 45.5C73 45.5 79.1 51.6 79.1 59.2V64.7C79.1 72.3 72.9 78.4 65.4 78.4Z" fill="#FFE2C5"/>
<path d="M65.4 78.4C57.8 78.4 51.7 72.3 51.7 64.7V59.2C51.7 51.6 57.8 45.5 65.4 45.5C61.6 45.5 58.5 51.6 58.5 59.2V64.7C58.5 72.3 61.6 78.4 65.4 78.4Z" fill="#E5C4A5"/>
<path d="M78.8 56.6001C77.2 57.7001 75.2 58.3001 73.1 58.3001C68.7 58.3001 64.9 55.5001 63.4 51.6001C62.5 54.0001 60.8 55.9001 58.5 57.1001C57.1 57.9001 55.4 58.3001 53.7 58.3001C53 58.3001 52.4 58.2001 51.8 58.1001C52.4 51.1001 58.3 45.6001 65.4 45.6001C69.2 45.6001 72.6 47.1001 75.1 49.6001C76.9 51.4001 78.3 53.9001 78.8 56.6001Z" fill="#424C59"/>
<path d="M65.4 45.6001C61.9 45.6001 59.1 50.6001 58.5 57.1001C57.1 57.9001 55.4 58.3001 53.7 58.3001C53 58.3001 52.4 58.2001 51.8 58.1001C52.4 51.1001 58.2 45.6001 65.4 45.6001Z" fill="#242C35"/>
<path d="M89.8 88V113.7C89.8 115.7 88.2 117.4 86.1 117.4H44.7C42.7 117.4 41 115.8 41 113.7V88C41 86 42.6 84.3 44.7 84.3H86.1C88.1 84.3 89.8 86 89.8 88Z" fill="#BCBCBC"/>
<path d="M89.8 88V113.7C89.8 115.7 88.2 117.4 86.1 117.4H50.1C48.1 117.4 46.4 115.8 46.4 113.7V88C46.4 86 48 84.3 50.1 84.3H86.1C88.1 84.3 89.8 86 89.8 88Z" fill="#D8D8D8"/>
<path d="M65.4 104.7C67.5539 104.7 69.3 102.954 69.3 100.8C69.3 98.6461 67.5539 96.9 65.4 96.9C63.2461 96.9 61.5 98.6461 61.5 100.8C61.5 102.954 63.2461 104.7 65.4 104.7Z" fill="#FCC63F"/>
<path d="M104.2 37.2001C95.8 37.2001 89 43.5001 89 51.4001C89 55.9001 91.2 59.9001 94.7 62.5001C94.2 64.4001 93.3 66.9001 91.5 68.7001C91.5 68.7001 98.2 68.3001 100.6 65.2001C101.8 65.5001 103 65.6001 104.2 65.6001C112.6 65.6001 119.4 59.3001 119.4 51.4001C119.4 43.5001 112.6 37.2001 104.2 37.2001Z" fill="#FCEE21"/>
<path d="M51.2 69.2C51.8 71 52.6 72.6 53.8 74C51.5 75.6 49.6 77.7 48.1 80.1C47.7 80.7 47.9 81.4001 48.5 81.8001C48.7 81.9001 48.9 82 49.1 82C49.5 82 49.9 81.8001 50.2 81.4001C51.5 79.2001 53.4 77.3001 55.5 75.8001C58.1 78.2001 61.6 79.6 65.5 79.6C69.3 79.6 72.8 78.1001 75.5 75.8001C76.4 76.4001 77.3 77.2001 78.1 78C79.1 79 80 80.2001 80.7 81.4001C80.9 81.8001 81.3 82 81.8 82C82 82 82.2 81.9001 82.4 81.8001C83 81.4001 83.2 80.7 82.8 80.1C82 78.7 80.9 77.4001 79.8 76.3001C79 75.5001 78.1 74.7 77.1 74.1C78.2 72.7 79.1 71.1001 79.7 69.3001C81.3 69.3001 82.7 68.7 83.9 67.7V69C83.9 70.4001 82.7 71.6 81.3 71.6C80.6 71.6 80.1 72.1001 80.1 72.8001C80.1 73.5001 80.6 74 81.3 74C84.1 74 86.4 71.7001 86.4 68.9001V56.7001C86.4 45.2001 77 35.8 65.5 35.8C54 35.8 44.6 45.2001 44.6 56.7001V62.4001C44.6 64.2001 45.3 65.9 46.6 67.2C47.8 68.5 49.4 69.2 51.2 69.2ZM48.3 65.5C47.5 64.7001 47 63.6001 47 62.4001C47 60.3001 48.5 58.5 50.5 58.1C50.5 58.5 50.5 58.8001 50.5 59.2001V64.7C50.5 65.4 50.5 66 50.6 66.6C49.7 66.5 48.9 66.1 48.3 65.5ZM65.4 46.8C71.1 46.8 76 50.7 77.4 56C76.1 56.7001 74.6 57.1 73.1 57.1C69.3 57.1 65.9 54.7001 64.6 51.2001C64.4 50.7001 64 50.4001 63.5 50.4001C63 50.4001 62.5 50.7001 62.4 51.2001C61.1 54.7001 57.6 57.1 53.9 57.1C53.7 57.1 53.5 57.1 53.3 57.1C54.2 51.2 59.3 46.8 65.4 46.8ZM52.9 64.7V59.4001C53.2 59.4001 53.4 59.4001 53.7 59.4001C57.6 59.4001 61.3 57.4001 63.4 54.2001C65.5 57.4001 69.2 59.4001 73.1 59.4001C74.7 59.4001 76.4 59.1001 77.8 58.4001C77.8 58.6001 77.8 58.9 77.8 59.1V64.6C77.8 71.5 72.2 77 65.4 77C58.6 77 52.9 71.6 52.9 64.7ZM80.2 66.7C80.3 66.1 80.3 65.4001 80.3 64.8001V59.3C80.3 58.9 80.3 58.6 80.3 58.2001C81.2 58.4001 81.9 58.8001 82.6 59.4001C83.4 60.2001 83.9 61.3 83.9 62.5C83.8 64.6 82.2 66.3 80.2 66.7ZM65.4 38.3C75.5 38.3 83.8 46.6 83.8 56.7001V57.2001C82.7 56.3001 81.3 55.7 79.9 55.6C78.3 49.1 72.4 44.3 65.4 44.3C58.4 44.3 52.6 49.1 50.9 55.6C49.4 55.7 48 56.3001 47 57.2001V56.7001C47 46.6 55.3 38.3 65.4 38.3Z" fill="black"/>
<path d="M70.9 62.1001C69.9 62.1001 69 62.5001 68.2 63.2001C67.7 63.7001 67.7 64.5001 68.2 64.9001C68.7 65.4001 69.5 65.4001 69.9 64.9001C70.1 64.7001 70.5 64.5001 70.8 64.5001C71.1 64.5001 71.5 64.6001 71.7 64.9001C71.9 65.1001 72.3 65.3001 72.6 65.3001C72.9 65.3001 73.2 65.2001 73.5 64.9001C74 64.4001 74 63.6001 73.5 63.2001C72.9 62.5001 71.9 62.1001 70.9 62.1001Z" fill="black"/>
<path d="M62.5 64.9001C63 64.4001 63 63.6001 62.5 63.2001C61.8 62.5001 60.8 62.1001 59.8 62.1001C58.8 62.1001 57.9 62.5001 57.1 63.2001C56.6 63.7001 56.6 64.5001 57.1 64.9001C57.6 65.4001 58.4 65.4001 58.8 64.9001C59 64.7001 59.4 64.5001 59.7 64.5001C60 64.5001 60.4 64.6001 60.6 64.9001C60.8 65.1001 61.2 65.3001 61.5 65.3001C62 65.3001 62.3 65.2001 62.5 64.9001Z" fill="black"/>
<path d="M67.5 69.7001C66.4 70.8001 64.5 70.8001 63.3 69.7001C62.8 69.2001 62 69.2001 61.6 69.7001C61.1 70.2001 61.1 71.0001 61.6 71.4001C62.7 72.5001 64 73.0001 65.4 73.0001C66.8 73.0001 68.2 72.5001 69.2 71.4001C69.7 70.9001 69.7 70.1001 69.2 69.7001C68.7 69.2001 68 69.2001 67.5 69.7001Z" fill="black"/>
<path d="M86.1 83.1001H44.7C42 83.1001 39.8 85.3001 39.8 88.0001V113.7C39.8 116.4 42 118.6 44.7 118.6H86.1C88.8 118.6 91 116.4 91 113.7V97.3001C91 96.6001 90.5 96.1001 89.8 96.1001C89.1 96.1001 88.6 96.6001 88.6 97.3001V113.6C88.6 114.9 87.5 116 86.2 116H44.7C43.4 116 42.3 114.9 42.3 113.6V88.0001C42.3 86.7001 43.4 85.6001 44.7 85.6001H86.1C87.4 85.6001 88.5 86.7001 88.5 88.0001V93.3001C88.5 94.0001 89 94.5001 89.7 94.5001C90.4 94.5001 90.9 94.0001 90.9 93.3001V88.0001C91 85.3001 88.8 83.1001 86.1 83.1001Z" fill="black"/>
<path d="M60.2 100.8C60.2 103.6 62.5 106 65.4 106C68.2 106 70.6 103.7 70.6 100.8C70.6 97.9001 68.3 95.6001 65.4 95.6001C62.6 95.7001 60.2 98.0001 60.2 100.8ZM68.1 100.8C68.1 102.3 66.9 103.5 65.4 103.5C63.9 103.5 62.7 102.3 62.7 100.8C62.7 99.3001 63.9 98.1001 65.4 98.1001C66.9 98.1001 68.1 99.3001 68.1 100.8Z" fill="black"/>
<path d="M104.2 36C100.5 36 97 37.1 94 39.3C93.5 39.7 93.3 40.5 93.7 41C94.1 41.5 94.9 41.7 95.4 41.3C97.9 39.5 100.9 38.5 104.1 38.5C111.8 38.5 118.1 44.3 118.1 51.4C118.1 58.5 111.8 64.3 104.1 64.3C103 64.3 101.8 64.2 100.7 63.9C100.2 63.8 99.7 64 99.5 64.3C98.4 65.7 96.1 66.5 94.1 66.9C95 65.4 95.5 63.8 95.8 62.6C95.9 62.1 95.7 61.6 95.3 61.3C92 58.8 90.1 55.2 90.1 51.2C90.1 48.4 91 45.8 92.8 43.5C93.2 43 93.1 42.2 92.6 41.8C92.1 41.4 91.3 41.5 90.9 42C88.8 44.7 87.6 47.9 87.6 51.2C87.6 55.6 89.6 59.8 93.1 62.7C92.6 64.2 91.8 66.1 90.4 67.6C90 68 89.9 68.5 90.1 69C90.3 69.4 90.7 69.7 91.2 69.7C91.2 69.7 91.2 69.7 91.3 69.7C91.6 69.7 97.8 69.3 100.8 66.3C101.9 66.5 102.9 66.6 104 66.6C113.1 66.6 120.5 59.7 120.5 51.2C120.6 42.9 113.2 36 104.2 36Z" fill="black"/>
<path d="M98.6 53.6C99.2 54.5 100.6 54.2 100.8 53.2C100.9 52.7 100.7 52.1 100.2 51.9C99.7 51.6 99.1 51.7 98.7 52C98.4 52.4 98.3 53.1 98.6 53.6Z" fill="black"/>
<path d="M107.7 53.6001C108.3 54.5001 109.7 54.2001 109.9 53.1001C110 52.6001 109.7 52.1001 109.3 51.8001C108.8 51.6001 108.3 51.6001 107.9 52.0001C107.4 52.4001 107.4 53.1001 107.7 53.6001Z" fill="black"/>
<path d="M104.3 54.1001C104.8 54.0001 105.2 53.6001 105.3 53.1001C105.4 52.6001 105.1 52.0001 104.6 51.8001C104.2 51.6001 103.6 51.6001 103.2 52.0001C102.8 52.3001 102.7 52.9001 102.9 53.4001C103.2 53.9001 103.7 54.2001 104.3 54.1001Z" fill="black"/>
</g>
<defs>
<clipPath id="clip0">
<rect width="150.4" height="150.4" fill="white"/>
</clipPath>
</defs>
</svg>
