<svg width="391" height="283" viewBox="0 0 391 283" fill="none" xmlns="http://www.w3.org/2000/svg">
<path d="M305.491 260.954H85.7944V141.422C85.7944 132.139 93.3583 124.575 102.641 124.575H288.644C297.927 124.575 305.491 132.139 305.491 141.422V260.954Z" fill="#D1CDBC"/>
<path d="M89.0033 260.954V139.015C89.0033 132.827 94.0459 127.784 100.235 127.784H291.166C297.354 127.784 302.397 132.827 302.397 139.015V261.069H89.0033V260.954Z" fill="#412C4A"/>
<path d="M292.845 251.499V137.238L98.4759 137.238L98.4759 251.499L292.845 251.499Z" fill="#5EA9FD"/>
<path d="M302.397 273.332H89.0033C83.5023 273.332 78.1159 271.613 73.6463 268.518H317.868C313.17 271.727 307.898 273.332 302.397 273.332Z" fill="#D1CDBC"/>
<path d="M317.754 260.954H73.5317V268.518H317.754V260.954Z" fill="#EDEDED"/>
<path d="M214.266 264.736H177.134C175.071 264.736 173.352 263.017 173.352 260.954H218.048C218.048 263.017 216.329 264.736 214.266 264.736Z" fill="#D1CDBC"/>
<path d="M186.417 235.054C208.887 235.054 227.102 216.839 227.102 194.369C227.102 171.9 208.887 153.685 186.417 153.685C163.948 153.685 145.733 171.9 145.733 194.369C145.733 216.839 163.948 235.054 186.417 235.054Z" fill="#BDDFFD"/>
<path d="M227.102 194.369C227.102 193.682 227.102 193.108 227.102 192.421L206.931 172.25L170.716 207.892L188.48 225.656L187.449 227.604L194.21 234.366C212.891 230.699 227.102 214.196 227.102 194.369Z" fill="#84C5FD"/>
<path d="M205.785 208.122C209.338 202.735 212.891 195.515 212.891 188.639C212.891 174.543 201.43 163.197 187.449 163.197C173.352 163.197 162.006 174.657 162.006 188.639C162.006 202.621 173.467 214.081 187.449 214.081V227.605C187.334 227.605 200.628 215.915 205.785 208.122Z" fill="#0EB06C"/>
<path d="M187.334 163.082C186.99 163.082 186.761 163.082 186.417 163.082V213.967C186.761 213.967 186.99 213.967 187.334 213.967V227.49C187.334 227.49 200.628 215.8 205.671 208.122C209.223 202.735 212.776 195.515 212.776 188.639C212.891 174.543 201.43 163.082 187.334 163.082Z" fill="#0C8F54"/>
<path d="M204.639 180.96L198.794 183.367V181.19C198.794 179.814 197.763 178.783 196.388 178.783H174.269C172.894 178.783 171.862 179.814 171.862 181.19V194.713C171.862 196.088 172.894 197.12 174.269 197.12H196.273C197.648 197.12 198.68 196.088 198.68 194.713V192.536L204.525 194.942L204.639 180.96Z" fill="white"/>
<path d="M198.794 183.367V181.19C198.794 179.814 197.763 178.783 196.388 178.783H186.532V197.12H196.388C197.763 197.12 198.794 196.088 198.794 194.713V192.536L204.639 194.942V181.075L198.794 183.367Z" fill="#E8EBF3"/>
<path d="M249.22 106.238V35.1836C249.22 28.995 254.263 23.8378 260.566 23.8378H368.065C374.254 23.8378 379.411 28.8804 379.411 35.1836V106.238C379.411 112.427 374.368 117.584 368.065 117.584H260.566C254.263 117.584 249.22 112.427 249.22 106.238Z" fill="#D1CDBC"/>
<path d="M258.618 26.359H370.013C373.795 26.359 376.775 29.4534 376.775 33.1207V108.187C376.775 111.969 373.681 114.948 370.013 114.948H258.618C254.836 114.948 251.856 111.854 251.856 108.187V33.1207C251.742 29.4534 254.836 26.359 258.618 26.359Z" fill="#412C4A"/>
<path d="M257.431 109.294L371.004 109.294V32.1657L257.431 32.1657V109.294Z" fill="#F3D694"/>
<path d="M390.528 273.332H0.872437V282.5H390.528V273.332Z" fill="#412C4A"/>
<path d="M103.902 200.329H23.4495C17.1463 200.329 11.9891 195.171 11.9891 188.868V79.8794C11.9891 73.5761 17.1463 68.4189 23.4495 68.4189H103.902C110.205 68.4189 115.362 73.5761 115.362 79.8794V188.868C115.362 195.171 110.205 200.329 103.902 200.329Z" fill="#A39993"/>
<path d="M14.5104 190.817V77.9312C14.5104 74.1493 17.6047 71.0549 21.3867 71.0549H105.85C109.632 71.0549 112.726 74.1493 112.726 77.9312V190.931C112.726 194.713 109.632 197.807 105.85 197.807H21.3867C17.6047 197.693 14.5104 194.599 14.5104 190.817Z" fill="#412C4A"/>
<path d="M106.914 191.936L106.914 76.873L20.3876 76.873L20.3876 191.936H106.914Z" fill="#9485F5"/>
<mask id="mask0" mask-type="alpha" maskUnits="userSpaceOnUse" x="20" y="76" width="87" height="116">
<path d="M106.914 191.936L106.914 76.8729L20.3876 76.8729L20.3876 191.936H106.914Z" fill="#9485F5"/>
</mask>
<g mask="url(#mask0)">
<path d="M20.3552 108.416C23.9079 109.791 27.6899 111.166 31.4718 110.479C36.2852 109.677 39.9526 105.665 42.5885 101.54C45.2244 97.4139 47.4019 92.8297 50.9546 89.5062C54.6219 86.1827 60.3522 84.4636 64.4779 87.3287C68.0307 89.7354 68.9475 94.5488 69.2913 98.9038C69.7497 103.259 70.2082 107.958 73.3025 110.937C75.9384 113.459 79.9495 114.032 83.6169 113.917C87.2842 113.802 90.9516 113.229 94.5043 114.032C98.057 114.834 101.61 117.355 102.068 120.908C102.641 125.95 97.484 129.732 96.1088 134.66C95.0773 138.672 96.7964 142.912 99.2031 146.35C101.61 149.788 104.704 152.653 106.996 156.091C111.351 162.968 112.039 171.448 112.497 179.471C112.956 187.264 113.07 196.088 107.34 201.36C102.297 206.059 94.5043 206.174 87.5134 205.83C72.6149 205.257 57.8309 204.569 42.9323 203.996C32.9617 203.538 22.4181 202.965 14.2812 197.234C7.2903 192.306 3.16454 184.055 1.33087 175.574C-0.388197 167.208 -0.0443837 158.498 0.29943 149.903C0.757848 138.901 0.757848 127.899 1.10166 116.897C1.56008 106.238 12.3329 105.092 20.3552 108.416Z" fill="#B698FD"/>
<path d="M22.9911 88.7039C21.6159 90.8814 21.5013 93.9757 23.2203 95.8094C24.5956 97.2992 27.0023 97.7577 28.9505 97.2992C31.0134 96.8408 32.8471 95.8094 34.5662 94.7779C35.9414 93.9757 37.4313 93.0589 38.5773 91.9128C39.7234 90.7668 40.6402 89.1623 40.7548 87.5579C40.984 85.0366 39.1503 82.5153 36.629 81.713C34.1077 80.7962 31.128 81.713 28.9505 83.3175C27.0023 84.8074 24.3664 86.5264 22.9911 88.7039Z" fill="#B698FD"/>
<path d="M78.0013 94.2049C77.5429 96.1532 78.0013 98.3307 79.3765 99.706C81.2102 101.769 84.3045 101.998 87.1696 102.113C90.3786 102.227 93.5875 102.342 96.7964 102.456C98.7447 102.571 101.037 102.456 102.412 101.081C104.131 99.2475 103.329 96.1532 101.954 94.0903C99.8907 90.996 96.5672 88.8185 92.8998 88.0163C87.7426 86.9849 79.3765 88.3601 78.0013 94.2049Z" fill="#B698FD"/>
<path d="M110.32 202.162L105.506 189.327L94.3897 196.317L98.9739 207.892L110.32 202.162Z" fill="#F0C7AB"/>
<path d="M55.768 160.905C57.6017 161.821 59.7791 162.509 61.9566 162.509C64.1341 162.509 66.3116 161.936 68.1453 160.905C69.9789 159.873 71.3542 158.613 72.271 157.237C71.0104 158.269 69.4059 159.186 67.6869 159.873C65.9678 160.561 63.9049 161.019 61.9566 161.019C60.0084 161.019 58.0601 160.675 56.2264 159.988C54.5073 159.3 52.9029 158.383 51.6422 157.467C52.5591 158.613 53.9343 159.873 55.768 160.905Z" fill="#E2E2DE"/>
<path d="M67.9161 189.326C72.0418 186.347 75.5946 182.794 78.4597 179.012C81.3248 175.23 83.3877 171.334 84.6483 167.781C82.3562 170.761 79.6057 174.084 76.3968 177.293C73.1879 180.502 69.6351 183.596 65.8532 186.461C61.9566 189.212 57.9455 191.619 53.8197 193.681C49.8086 195.744 45.7974 197.234 42.2447 198.495C46.0266 198.38 50.3816 197.693 54.8512 196.088C59.3207 194.598 63.9049 192.306 67.9161 189.326Z" fill="#E2E2DE"/>
<path d="M31.128 191.16L32.3887 207.319L38.4627 176.032L31.128 191.16Z" fill="#E2E2DE"/>
<path d="M107.913 187.837L98.2862 167.552C97.5986 166.176 96.7964 164.916 95.8796 163.655C95.1919 162.738 94.3897 161.936 93.5875 161.134C90.7224 158.613 87.2842 156.893 83.3877 156.206L61.6128 152.653L37.8897 156.664C31.9303 157.696 26.6585 161.248 23.6787 166.52L10.9576 188.41L27.6899 198.266L31.128 191.275L32.3887 207.434L31.128 191.275L38.4627 176.147L32.3887 207.549L29.982 241.815H91.7538L90.6077 207.319L91.5246 192.879L93.0144 197.12L94.3897 196.317L105.506 189.327L107.913 187.837ZM56.2264 159.873C57.9455 160.561 60.0084 160.905 61.9566 160.905C63.9049 160.905 65.8532 160.446 67.6869 159.759C69.4059 159.071 71.0104 158.154 72.271 157.123C71.3542 158.498 69.9789 159.759 68.1453 160.79C66.3116 161.821 64.1341 162.394 61.9566 162.394C59.7791 162.394 57.6017 161.821 55.768 160.79C53.9343 159.873 52.5591 158.498 51.6422 157.123C52.9029 158.269 54.5073 159.186 56.2264 159.873ZM53.9343 193.681C57.9455 191.733 62.0712 189.212 65.9678 186.461C69.8643 183.711 73.4171 180.502 76.5114 177.293C79.7203 174.084 82.4708 170.761 84.7629 167.781C83.5023 171.334 81.4394 175.23 78.5743 179.012C75.7092 182.794 72.1564 186.347 68.0307 189.327C63.9049 192.306 59.4353 194.598 54.9658 196.088C50.4962 197.578 46.1412 198.38 42.3593 198.495C45.912 197.234 49.8086 195.63 53.9343 193.681ZM83.0439 228.177C73.5317 230.928 57.8309 232.876 47.8603 232.532C57.3725 229.782 73.0733 227.834 83.0439 228.177ZM50.6108 203.767C53.7051 203.537 56.914 203.194 60.123 202.735C63.3319 202.162 66.5408 201.475 69.5205 200.672C72.5002 199.87 75.2508 198.953 77.7721 198.151C75.7092 199.641 73.0733 201.245 70.2082 202.391C67.2284 203.652 64.0195 204.569 60.5814 205.142C57.2579 205.715 53.8197 205.83 50.6108 205.6C47.4019 205.371 44.5368 204.798 42.0155 203.996C44.5368 203.996 47.5165 203.996 50.6108 203.767ZM34.5662 237.002C49.1209 235.627 72.7295 235.397 87.2842 236.314C72.8441 237.69 49.1209 238.033 34.5662 237.002Z" fill="white"/>
<path d="M105.506 189.327L94.3897 196.317L95.765 199.756L105.506 189.327Z" fill="#412C4A"/>
<path d="M91.5246 192.994L92.6706 174.084L96.2234 195.171L93.0144 197.234L91.5246 192.994Z" fill="#E2E2DE"/>
<path d="M55.6534 153.914C59.0915 158.612 66.0824 158.612 69.6351 153.914V136.608H55.6534V153.914Z" fill="#F0C7AB"/>
<path d="M69.6351 136.723V151.049C69.2913 151.049 68.8329 151.049 68.4891 151.049C63.1027 151.049 58.4039 148.298 55.6534 144.172V136.608H69.6351V136.723Z" fill="#412C4A"/>
<path d="M67.9161 101.081C77.8867 101.081 85.909 109.103 85.909 119.074V129.618C85.909 139.588 77.8867 147.61 67.9161 147.61C57.9455 147.61 49.9232 139.588 49.9232 129.618V119.074C49.9232 109.218 57.9455 101.081 67.9161 101.081Z" fill="#F0C7AB"/>
<path d="M44.8806 120.793C44.6514 120.105 44.4221 119.418 44.3075 118.73C43.6199 115.177 43.3907 111.395 44.3075 107.843C45.7974 101.883 50.4962 97.0699 56.2264 94.7778C67.1138 90.4229 80.6372 94.8924 85.909 105.551C87.5134 108.76 86.1382 109.906 83.3877 112.198C76.2822 118.157 66.197 114.719 58.4039 115.407L58.5185 129.961C58.5185 132.253 56.6848 134.087 54.3927 134.087C51.7568 134.087 49.0063 134.087 46.3704 134.087C46.3704 132.024 47.0581 129.847 46.9434 127.784C46.5996 125.377 45.6828 123.085 44.8806 120.793Z" fill="#E8A05D"/>
<path d="M49.9232 136.723C52.9613 136.723 55.4242 134.26 55.4242 131.222C55.4242 128.184 52.9613 125.721 49.9232 125.721C46.885 125.721 44.4221 128.184 44.4221 131.222C44.4221 134.26 46.885 136.723 49.9232 136.723Z" fill="#F0C7AB"/>
<path d="M47.0581 131.222C47.0581 132.712 48.3187 133.973 49.8086 133.973C51.2984 133.973 52.5591 132.712 52.5591 131.222C52.5591 129.732 51.2984 128.472 49.8086 128.472C48.3187 128.472 47.0581 129.618 47.0581 131.222Z" fill="#E9A286"/>
<path d="M81.0956 123.2C81.0956 124.117 81.554 124.804 82.2416 124.804C82.8146 124.804 83.3877 124.117 83.3877 123.2C83.3877 122.283 82.9293 121.595 82.2416 121.595C81.6686 121.595 81.0956 122.283 81.0956 123.2Z" fill="#34597F"/>
<path d="M69.2913 123.2C69.2913 124.117 69.7497 124.804 70.4374 124.804C71.125 124.804 71.5834 124.117 71.5834 123.2C71.5834 122.283 71.125 121.595 70.4374 121.595C69.7497 121.595 69.2913 122.283 69.2913 123.2Z" fill="#34597F"/>
<path d="M74.9069 131.222C76.7406 131.222 78.5743 131.107 80.5225 131.107C80.4079 131.566 80.1787 132.139 79.9495 132.597C79.7203 133.056 79.2619 133.399 78.8035 133.629C78.0013 133.858 77.199 133.629 76.5114 133.17C75.8238 132.597 75.3654 131.795 74.9069 131.222Z" fill="#E9A286"/>
<path d="M69.6351 135.577C73.1879 136.494 76.9698 136.838 80.6372 136.494C79.8349 138.9 77.3136 140.963 74.7923 140.734C72.271 140.62 70.0935 138.098 69.6351 135.577Z" fill="white"/>
<path d="M70.3228 117.24C68.7183 117.355 67.4576 118.272 66.77 119.532L74.3339 118.73C73.3025 117.699 71.8126 117.126 70.3228 117.24Z" fill="#E8A05D"/>
<path d="M82.4708 117.24C83.5023 117.355 84.3045 118.272 84.7629 119.532L79.6057 118.73C80.4079 117.699 81.4394 117.126 82.4708 117.24Z" fill="#E8A05D"/>
<path d="M72.844 125.606C72.271 125.263 71.3542 125.033 70.4374 125.033C69.5205 125.033 68.7183 125.148 68.0307 125.377C69.4059 125.721 71.4688 125.836 72.844 125.606Z" fill="#E9A286"/>
<path d="M80.7518 125.606C81.2102 125.263 81.7832 125.033 82.3562 125.033C82.9292 125.033 83.6169 125.148 83.9607 125.377C83.0438 125.721 81.6686 125.836 80.7518 125.606Z" fill="#E9A286"/>
<path d="M53.0175 110.02C55.5388 109.676 58.6331 107.957 60.8106 105.436C63.1027 103.029 64.4779 99.8204 64.5925 97.1844C62.7589 99.0181 60.8106 101.31 58.7477 103.602C56.7994 105.894 54.7365 108.072 53.0175 110.02Z" fill="#EEBD6C"/>
<path d="M68.4891 109.103C69.4059 107.728 69.8643 105.551 69.7497 103.373C69.6351 101.196 68.9475 99.1327 67.9161 97.8721C67.8015 99.5911 67.9161 101.539 68.0307 103.488C68.1453 105.436 68.2599 107.384 68.4891 109.103Z" fill="#EEBD6C"/>
<path d="M61.0398 97.0699C58.8623 96.8407 55.8826 97.5283 53.5905 99.1328C51.1838 100.737 49.4647 103.144 48.8917 105.321C50.7254 104.061 52.7883 102.456 54.9658 101.081C57.0286 99.7058 59.2061 98.3305 61.0398 97.0699Z" fill="#EEBD6C"/>
<path d="M78.3451 107.384C78.8035 105.894 78.4597 103.717 77.4282 101.998C76.3968 100.164 74.7923 98.9035 73.3025 98.4451C74.1047 99.7057 75.1361 101.196 76.053 102.8C76.8552 104.404 77.6574 106.009 78.3451 107.384Z" fill="#EEBD6C"/>
</g>
<path d="M201.316 110.479H163.382C158.912 110.479 155.359 106.926 155.359 102.456V29.2241C155.359 24.7546 158.912 21.2018 163.382 21.2018H201.316C205.785 21.2018 209.338 24.7546 209.338 29.2241V102.342C209.338 106.811 205.671 110.479 201.316 110.479Z" fill="#412C4A"/>
<path d="M157.881 104.405V27.2759C157.881 25.3276 159.37 23.8378 161.319 23.8378H203.264C205.212 23.8378 206.702 25.3276 206.702 27.2759V104.405C206.702 106.353 205.212 107.843 203.264 107.843H161.319C159.37 107.843 157.881 106.353 157.881 104.405Z" fill="#E2778E"/>
<path d="M205.212 61.428C205.212 59.2505 204.868 56.8438 203.493 55.1248C200.399 51.2282 193.523 51.6866 191.001 47.4463C188.938 43.8935 191.001 39.424 190.543 35.4128C190.199 32.2039 187.907 29.2242 184.927 27.9635C181.948 26.7029 178.28 27.1613 175.759 29.1096C170.372 33.2353 170.487 42.2891 164.757 45.9564C162.694 47.3317 160.058 47.7901 157.995 49.1653V105.78C157.995 106.811 158.912 107.728 159.943 107.728H204.868C205.9 107.728 206.817 106.811 206.817 105.78V73.2323C205.671 71.857 205.212 69.9087 205.098 68.0751C204.868 65.8976 205.212 63.6055 205.212 61.428Z" fill="#E9A4AA"/>
<path d="M196.961 35.642C194.096 36.1004 193.179 40.4553 193.752 42.7474C194.21 44.9249 196.273 46.8732 198.565 46.644C199.826 46.5294 200.857 45.8417 201.659 44.9249C202.347 44.0081 202.806 42.7474 202.806 41.4868C202.92 38.2779 200.399 35.1835 196.961 35.642Z" fill="#E9A4AA"/>
<mask id="mask1" mask-type="alpha" maskUnits="userSpaceOnUse" x="157" y="23" width="50" height="85">
<path d="M157.881 104.405V27.2759C157.881 25.3276 159.37 23.8378 161.319 23.8378H203.264C205.212 23.8378 206.702 25.3276 206.702 27.2759V104.405C206.702 106.353 205.212 107.843 203.264 107.843H161.319C159.37 107.843 157.881 106.353 157.881 104.405Z" fill="#E2778E"/>
</mask>
<g mask="url(#mask1)">
<path d="M188.709 65.8977L174.498 65.4393L172.55 67.273L178.968 72.0864H182.864L190.887 69.4505L188.709 65.8977Z" fill="#EEBD6C"/>
<path d="M168.195 126.867C178.051 129.045 188.595 128.357 198.107 124.919L191.001 69.565L185.844 69.1066V69.2212C183.552 72.8885 178.166 73.0031 175.644 69.565L170.029 69.9088L168.195 126.867Z" fill="#6DA6BA"/>
<path d="M170.372 97.5284C171.977 100.05 173.811 103.373 175.873 106.582C177.822 109.791 179.999 113 181.489 115.521C179.197 113.573 176.676 110.593 174.613 107.27C172.55 104.061 171.06 100.508 170.372 97.5284Z" fill="#5293A6"/>
<path d="M169.341 93.632C170.945 93.7466 172.665 93.5174 174.498 93.059C176.332 92.4859 178.166 91.7983 179.999 90.9961C183.781 89.3916 187.334 87.6726 190.199 86.2973C187.907 88.4748 184.354 90.7669 180.572 92.3713C178.624 93.1736 176.676 93.8612 174.727 94.205C172.779 94.4342 170.831 94.205 169.341 93.632Z" fill="#5293A6"/>
<path d="M167.737 89.5062C169.685 89.5062 172.206 89.3915 174.727 89.0477C177.249 88.7039 179.655 88.1309 181.604 87.6725C179.999 88.7039 177.478 89.7354 174.957 90.0792C172.206 90.423 169.57 90.0792 167.737 89.5062Z" fill="#5293A6"/>
<path d="M174.498 73.2323C176.561 73.6908 179.082 74.0346 181.718 73.8054C184.354 73.5762 186.876 72.8885 188.709 72.0863C187.907 72.7739 186.875 73.347 185.729 73.8054C184.583 74.2638 183.208 74.6076 181.833 74.7222C180.458 74.8368 179.082 74.7222 177.822 74.493C176.447 74.1492 175.3 73.6908 174.498 73.2323Z" fill="#5293A6"/>
<path d="M181.718 66.1269C182.864 65.6685 183.896 64.8663 184.583 63.8348C184.813 63.491 185.042 63.0326 185.271 62.6888L185.729 68.992V69.1066C183.437 72.774 178.051 72.8886 175.53 69.4504L175.186 64.2932C175.644 64.7517 176.103 65.0955 176.676 65.4393C178.166 66.3561 180.114 66.8145 181.718 66.1269Z" fill="#BA6C67"/>
<path d="M185.042 59.709L185.271 62.8034C185.042 63.1472 184.813 63.6056 184.583 63.9494C183.896 64.9809 182.864 65.7831 181.718 66.2415C179.999 66.8145 178.051 66.3561 176.561 65.4393C175.988 65.0955 175.53 64.7516 175.071 64.2932L174.842 60.7405L185.042 59.709Z" fill="#422C4F"/>
<path d="M170.602 55.8125C170.602 57.7607 169.112 59.2506 167.164 59.2506C165.215 59.2506 163.725 57.7607 163.725 55.8125C163.725 53.8642 165.215 52.3743 167.164 52.3743C169.112 52.3743 170.602 53.8642 170.602 55.8125Z" fill="#BA6C67"/>
<path d="M168.768 55.8125C168.768 56.7293 167.966 57.5316 167.049 57.5316C166.132 57.5316 165.33 56.7293 165.33 55.8125C165.33 54.8957 166.132 54.0934 167.049 54.0934C168.08 54.0934 168.768 54.7811 168.768 55.8125Z" fill="#A34F5A"/>
<path d="M190.428 56.0416C191.46 52.1451 191.803 48.1339 191.345 44.1228C191.116 42.1745 190.772 40.2262 189.855 38.3926C188.938 36.5589 187.678 35.069 185.844 34.1522C184.125 33.2354 182.177 33.1207 180.228 33.1207C177.363 33.0061 174.384 33.1208 171.633 34.0376C168.883 34.9544 166.247 36.6735 164.986 39.3094C163.725 41.8307 163.84 44.6958 164.528 47.4463C165.33 50.0822 166.705 52.6035 167.966 55.0102C175.186 56.5001 183.208 57.0731 190.428 56.0416Z" fill="#412C4A"/>
<path d="M182.979 43.3206C178.051 44.925 172.779 45.1542 167.622 44.1228C167.278 45.3834 167.049 46.6441 167.164 48.0193L167.507 54.781C167.851 60.7404 173.008 65.3246 178.968 64.9808C184.813 64.637 189.397 59.709 189.282 53.8642C185.729 51.6867 183.094 47.5609 182.979 43.3206Z" fill="#BA6C67"/>
<path d="M194.096 55.8125C194.096 57.7607 192.606 59.2506 190.657 59.2506C188.709 59.2506 187.219 57.7607 187.219 55.8125C187.219 53.8642 188.709 52.3743 190.657 52.3743C192.606 52.3743 194.096 53.8642 194.096 55.8125Z" fill="#BA6C67"/>
<path d="M192.377 55.8125C192.377 56.7293 191.574 57.5316 190.657 57.5316C189.741 57.5316 188.938 56.7293 188.938 55.8125C188.938 54.8957 189.741 54.0934 190.657 54.0934C191.574 54.0934 192.377 54.7811 192.377 55.8125Z" fill="#A34F5A"/>
<path d="M171.06 49.28C169.914 49.3946 168.997 49.9676 168.424 50.7699L173.811 50.5407C173.123 49.7384 172.092 49.1654 171.06 49.28Z" fill="#422C4F"/>
<path d="M180.916 48.5923C179.655 48.5923 178.624 49.1654 177.936 50.0822L183.896 49.9676C183.208 49.1654 182.177 48.5923 180.916 48.5923Z" fill="#422C4F"/>
<path d="M171.977 52.7181C171.977 53.1766 171.633 53.5204 171.175 53.5204C170.716 53.5204 170.372 53.1766 170.372 52.7181C170.372 52.2597 170.716 51.9159 171.175 51.9159C171.519 51.8013 171.977 52.1451 171.977 52.7181Z" fill="#422C4F"/>
<path d="M180.572 53.5204C181.015 53.5204 181.374 53.1612 181.374 52.7181C181.374 52.2751 181.015 51.9159 180.572 51.9159C180.129 51.9159 179.77 52.2751 179.77 52.7181C179.77 53.1612 180.129 53.5204 180.572 53.5204Z" fill="#422C4F"/>
<path d="M177.249 56.1562C176.217 55.927 175.071 55.8124 174.04 55.927C174.04 56.3854 174.384 56.9584 174.842 57.3022C175.3 57.5314 175.873 57.5314 176.332 57.3022C176.676 57.073 177.02 56.5 177.249 56.1562Z" fill="#A34F5A"/>
<path d="M181.489 58.1046C178.968 59.3652 175.988 59.709 173.123 59.2506C173.467 60.5113 174.613 61.6573 175.873 62.1157C177.134 62.5742 178.509 62.3449 179.655 61.6573C180.687 60.8551 181.374 59.3652 181.489 58.1046Z" fill="white"/>
<path d="M190.887 69.4504L196.388 69.7943C199.482 69.9089 202.347 71.3987 204.181 73.8054L213.922 86.1827L203.264 95.2364L199.94 91.4545V96.6117C199.94 105.207 201.086 113.688 203.493 121.939L207.504 136.036C198.565 138.901 189.397 136.952 189.397 136.952L186.073 123.315C183.896 114.375 183.208 105.207 184.125 96.0387C184.813 88.131 184.469 80.1087 182.864 72.3156V72.2009L190.887 69.4504Z" fill="#EEBD6C"/>
<path d="M172.55 67.273L156.62 57.417L151.463 70.3673L162.923 77.9312L163.152 89.8501C163.267 97.8724 162.923 105.895 162.236 113.802L160.402 134.546L160.746 134.66C164.757 136.036 168.883 136.379 173.008 135.692L175.415 105.436C175.53 103.373 175.644 101.311 175.644 99.2476V94.0904C175.644 86.5265 176.676 79.0772 178.853 71.8572L172.55 67.273Z" fill="#EEBD6C"/>
<path d="M190.887 69.4504L188.709 65.8977L182.864 72.0863L187.563 77.4728L190.887 69.4504Z" fill="#F3D694"/>
<path d="M178.968 72.0863L174.498 65.4393L172.55 67.2729L174.613 77.4727L178.968 72.0863Z" fill="#F3D694"/>
<path d="M200.055 91.4545L194.554 82.9738L194.783 84.8075C195.242 88.704 197.19 92.2568 200.055 94.8927V91.4545Z" fill="#E8A05D"/>
<path d="M195.929 75.5245C195.242 77.2436 194.783 79.3065 194.21 80.7963C193.981 79.9941 193.752 79.0772 193.752 78.0458C193.752 77.0144 193.866 75.8683 194.325 74.8369C194.783 73.8054 195.471 72.774 196.273 72.0864C197.075 71.3987 198.107 71.0549 198.909 71.0549C197.648 72.201 196.617 73.8054 195.929 75.5245Z" fill="#E8A05D"/>
<path d="M164.184 76.7852C164.184 76.6705 164.298 76.5559 164.298 76.4413C164.184 76.5559 164.184 76.5559 164.184 76.7852C163.955 74.3785 164.871 70.8257 166.247 68.9921C166.361 70.7111 165.903 73.1178 165.101 75.0661C165.674 74.1493 166.361 73.1178 167.049 72.201C168.195 70.7111 169.57 69.2213 170.716 68.1898C170.487 69.7943 169.57 71.628 168.31 73.2324C167.164 74.7223 165.559 76.0975 164.184 76.7852Z" fill="#E8A05D"/>
<path d="M198.565 126.409C196.044 124.231 193.293 120.793 191.23 117.011C189.053 113.229 187.563 109.104 186.99 105.78C188.595 108.645 190.543 112.542 192.606 116.209C194.669 119.991 196.846 123.544 198.565 126.409Z" fill="#E8A05D"/>
<path d="M203.722 141.307L203.149 137.067C202.92 135.463 202.92 133.858 203.264 132.254L209.338 101.31L204.066 94.3196L212.318 87.3287L217.475 95.8095C219.309 98.7892 219.767 102.457 218.736 105.895L210.14 134.431L211.63 138.442L204.868 143.943C204.295 143.37 203.952 142.339 203.722 141.307Z" fill="#E9A28C"/>
<path d="M212.432 87.4432L204.066 94.4341L206.587 97.8722L213.235 88.9331L212.432 87.4432Z" fill="#422C4F"/>
</g>
<path d="M189.626 27.3905H173.811C172.779 27.3905 171.862 26.9321 171.175 26.1299L168.997 23.2648H194.325L192.147 26.1299C191.574 26.8175 190.657 27.3905 189.626 27.3905Z" fill="#412C4A"/>
<mask id="mask2" mask-type="alpha" maskUnits="userSpaceOnUse" x="257" y="32" width="115" height="78">
<path d="M257.431 109.294L371.004 109.294V32.1657L257.431 32.1657V109.294Z" fill="#F3D694"/>
</mask>
<g mask="url(#mask2)">
<path d="M251.627 65.8975C253.002 63.0324 254.492 60.1673 256.67 57.8752C258.847 55.5831 261.712 53.7495 264.921 53.6349C268.13 53.6349 271.339 55.6977 272.027 58.7921C272.714 61.7718 270.881 64.8661 270.995 67.8458C271.224 73.2322 277.528 76.6703 282.685 75.7535C287.957 74.7221 291.968 70.5963 295.062 66.2413C298.042 61.7718 300.334 56.9584 303.887 52.9472C308.929 47.3316 316.493 44.1227 324.057 44.2373C331.621 44.3519 339.07 47.79 343.884 53.6349C347.207 57.4168 349.843 62.574 354.656 63.72C358.897 64.7515 363.137 62.4594 367.492 61.8864C374.025 61.0841 380.786 64.8661 383.422 70.8255V119.418H246.699L251.627 65.8975Z" fill="#F9ECCF"/>
<path d="M275.923 47.5608C275.923 49.2799 277.069 51.1136 278.788 51.572C280.164 51.9158 281.653 51.3428 283.029 50.999C284.633 50.6552 286.352 50.5406 287.957 50.3114C289.561 49.9675 291.28 49.3945 292.426 48.2485C294.375 46.3002 294.26 42.8621 292.541 40.6846C290.822 38.5071 287.727 37.7049 285.092 38.1633C282.685 38.6217 280.278 39.997 278.788 41.9452C277.413 43.2059 276.038 45.6126 275.923 47.5608Z" fill="#F9ECCF"/>
<path d="M309.388 95.58C306.293 96.6115 303.887 99.0181 302.855 101.998L293.916 126.867L298.5 153.684C303.314 150.705 306.866 145.891 308.127 140.39L312.367 122.627L309.388 95.58Z" fill="#E38597"/>
<path d="M290.363 104.29L301.365 90.652C299.646 89.0476 297.01 88.933 295.177 90.4228L291.624 93.2879L291.853 86.9847L274.777 89.0476L279.705 105.321L290.363 104.29Z" fill="#EEBD9A"/>
<path d="M291.509 93.4025C287.957 94.7777 285.206 97.7574 284.06 101.31L283.831 102.227L283.716 101.425C283.372 96.8406 287.04 93.1733 291.509 93.4025Z" fill="#E9A286"/>
<path d="M291.739 87.0993L292.312 74.722C292.312 73.8051 291.739 73.1175 290.822 73.0029C289.905 72.8883 289.103 73.5759 288.988 74.4928L287.498 87.6723L291.739 87.0993Z" fill="#E9A286"/>
<path d="M287.613 87.5577L285.779 73.3467C285.665 72.4299 284.862 71.7423 283.831 71.8569C282.914 71.9715 282.226 72.7737 282.226 73.6905L282.57 88.2453L287.613 87.5577Z" fill="#E9A286"/>
<path d="M282.57 88.2453L279.132 74.7219C278.903 73.9197 278.101 73.3467 277.298 73.5759C276.496 73.6905 275.923 74.4927 276.038 75.4096L277.871 88.9329L282.57 88.2453Z" fill="#E9A286"/>
<path d="M274.663 89.1622L271.797 79.7646C271.568 79.077 272.027 78.3894 272.714 78.2748C273.287 78.1602 273.86 78.504 274.09 78.9624L277.986 88.7038L274.663 89.1622Z" fill="#E9A286"/>
<path d="M292.77 102.342L277.871 103.488L279.132 114.031L295.177 111.854L292.77 102.342Z" fill="#E38597"/>
<path d="M321.192 106.811C325.662 109.676 331.277 110.822 336.549 109.676C341.821 108.53 346.52 105.321 350.301 101.425C351.333 100.279 352.364 99.1327 353.281 97.9867C352.364 95.58 351.562 93.0587 350.875 90.5374L340.102 84.3488L317.754 88.1307L313.513 97.6429C315.118 101.31 317.868 104.634 321.192 106.811Z" fill="#F0C7AB"/>
<path d="M353.396 97.9866C352.479 99.2473 351.448 100.393 350.416 101.425C346.634 105.321 341.935 108.53 336.664 109.676C331.506 110.708 325.776 109.676 321.307 106.811C317.868 104.634 315.233 101.31 313.628 97.6428L311.107 103.373L315.003 126.982C316.149 133.858 321.765 139.244 328.641 140.046L330.475 140.276C337.695 145.662 343.654 154.372 345.488 163.197C359.699 168.125 376.431 164.343 387.09 153.684C372.076 137.64 360.616 118.615 353.396 97.9866Z" fill="white"/>
<path d="M348.697 111.51C346.405 112.427 343.884 113.229 341.019 113.688C338.153 114.146 335.174 114.261 332.194 113.917C329.214 113.573 326.349 112.771 323.599 111.625C320.963 110.479 318.556 109.103 316.608 107.728C318.098 109.676 320.161 111.625 322.796 113.114C325.432 114.604 328.527 115.75 331.85 116.094C335.059 116.438 338.383 116.094 341.362 115.292C344.342 114.49 346.863 113.115 348.697 111.51Z" fill="#E2E2DE"/>
<path d="M319.587 86.1824C320.046 88.0161 320.619 89.9644 321.421 91.6834C322.338 93.4025 323.599 95.0069 325.318 95.9238C328.527 97.5282 332.652 96.3822 335.288 93.9755C338.039 91.5688 339.643 88.2453 341.019 84.9218C334.028 85.4948 326.578 85.6094 319.587 86.1824Z" fill="#422C4F"/>
<path d="M335.518 104.748L340.331 110.822L338.956 115.292C343.54 136.035 352.479 156.206 365.429 173.053C380.099 171.792 394.768 164.572 404.853 153.914C380.901 135.348 374.941 99.0181 367.034 94.0901C359.126 89.1621 340.216 84.3488 340.216 84.3488L341.362 96.153L335.518 104.748Z" fill="#E38597"/>
<path d="M340.102 84.3488C339.414 91.3396 337.81 98.1013 335.518 104.748C338.956 106.009 342.279 107.843 345.03 110.249C344.915 104.519 344.8 98.7889 344.686 93.1733C344.571 89.6206 342.967 86.297 340.102 84.3488Z" fill="#E9A4AA"/>
<path d="M334.83 170.875C322.682 150.361 315.462 126.179 313.743 102.456L307.21 98.4451C301.136 129.961 320.161 173.511 327.954 181.648L334.83 170.875Z" fill="#E38597"/>
<path d="M320.046 86.5262C317.066 91.4542 314.889 96.8406 313.628 102.456C311.451 101.196 309.273 99.7057 307.096 98.445C310.534 94.2047 313.743 89.9643 317.181 85.7239C317.983 85.9531 319.244 86.1824 320.046 86.5262Z" fill="#E9A4AA"/>
<path d="M307.096 98.4451L307.783 108.072L312.253 101.539L307.096 98.4451Z" fill="#E16B83"/>
<path d="M357.178 60.5109C357.407 53.9785 353.969 47.446 348.468 43.8933C345.144 41.7158 341.133 40.6844 337.122 40.799C336.32 41.8304 335.632 42.9765 335.059 44.2371C338.268 52.1448 340.56 61.5424 344.571 69.1063C346.634 73.0028 349.041 77.1286 352.823 79.3061C353.969 79.9937 355.344 80.4521 356.719 80.6813C356.146 79.6499 355.803 78.5038 355.573 77.4724C354.198 71.8568 356.949 66.2412 357.178 60.5109Z" fill="#422C4F"/>
<path d="M365.659 53.9785C366.69 48.8212 364.971 43.2056 361.304 39.4237C357.636 35.6417 352.021 33.9227 346.863 34.8395C342.967 35.5271 339.529 37.7046 337.007 40.7989C341.019 40.6843 345.03 41.7158 348.353 43.8933C353.854 47.446 357.178 53.9785 357.063 60.5109C356.949 66.2411 354.198 71.9714 355.344 77.587C355.573 78.733 356.032 79.7645 356.49 80.7959C358.897 81.2543 361.418 80.9105 363.825 80.1083C360.96 78.733 359.355 75.2949 359.47 72.086C359.47 68.877 360.731 65.7827 362.106 62.9176C363.596 59.9379 365.085 57.0728 365.659 53.9785Z" fill="#8B404C"/>
<path d="M311.909 78.6185C308.7 73.0028 307.439 66.1266 308.7 59.7087C309.961 53.2909 313.857 47.446 319.358 43.8933C324.859 40.3406 331.85 39.3091 338.153 41.372C342.623 42.8619 346.52 45.727 349.155 49.6235C351.791 53.4055 353.281 58.1043 353.396 62.803C353.51 66.9288 352.479 71.0546 350.416 74.6073C348.353 78.16 345.144 81.0252 341.362 82.515C331.506 82.2858 321.421 80.5667 311.909 78.6185Z" fill="#8B404C"/>
<path d="M319.473 60.0526C316.722 62.3447 314.201 64.866 311.909 67.5019L311.107 74.9512C310.19 83.7757 316.493 91.6834 325.318 92.6003C334.142 93.5171 342.05 87.2138 342.967 78.3893L343.884 69.4501C335.059 69.9086 326.005 66.1266 319.473 60.0526Z" fill="#F0C7AB"/>
<path d="M345.832 86.5261C348.617 86.5261 350.875 84.2685 350.875 81.4835C350.875 78.6986 348.617 76.4409 345.832 76.4409C343.047 76.4409 340.789 78.6986 340.789 81.4835C340.789 84.2685 343.047 86.5261 345.832 86.5261Z" fill="#F0C7AB"/>
<path d="M348.353 81.4834C348.353 82.8586 347.207 84.0047 345.832 84.0047C344.457 84.0047 343.311 82.8586 343.311 81.4834C343.311 80.1081 344.457 78.9621 345.832 78.9621C347.207 78.9621 348.353 80.1081 348.353 81.4834Z" fill="#E9A28C"/>
<path d="M343.311 60.7402C340.789 59.7087 337.924 58.5627 335.059 57.1874C332.194 55.9268 329.443 54.4369 327.037 53.2909C328.068 55.8122 330.704 58.3335 333.913 59.8233C337.122 61.1986 340.789 61.5424 343.311 60.7402Z" fill="#994B5A"/>
<path d="M343.884 54.8953C342.05 53.8638 339.643 53.0616 337.122 52.4886C334.601 51.9155 332.079 51.4571 330.016 51.5717C331.621 52.947 334.028 54.093 336.664 54.666C339.07 55.1245 341.821 55.2391 343.884 54.8953Z" fill="#994B5A"/>
<path d="M318.785 65.7827C317.066 65.4389 315.462 66.0119 314.201 67.0434L322.567 68.6478C321.765 67.158 320.504 66.0119 318.785 65.7827Z" fill="#8B404C"/>
<path d="M320.275 72.7735C320.275 72.3151 320.161 71.6275 319.817 71.169C319.473 70.596 318.785 70.2522 318.098 70.023C317.41 69.7938 316.608 69.9084 316.035 70.2522C315.462 70.4814 315.003 71.0544 314.774 71.5129C315.691 71.0544 316.722 70.8252 317.754 71.0544C318.9 71.2836 319.702 71.9713 320.275 72.7735Z" fill="#422C4F"/>
<path d="M331.85 66.3557C333.569 66.3557 335.174 67.1579 336.091 68.4185L327.61 68.6477C328.641 67.2725 330.131 66.3557 331.85 66.3557Z" fill="#8B404C"/>
<path d="M328.756 73.1174C328.756 72.5444 329.1 71.9713 329.558 71.5129C330.016 71.0545 330.819 70.7107 331.506 70.5961C332.309 70.4815 332.996 70.8253 333.569 71.1691C334.142 71.6275 334.486 72.0859 334.601 72.659C333.798 72.0859 332.652 71.6275 331.506 71.7421C330.59 71.8567 329.558 72.4298 328.756 73.1174Z" fill="#422C4F"/>
<path d="M326.12 78.2746C324.63 78.0454 323.14 77.8162 321.536 77.4724C321.765 78.3892 322.567 79.1914 323.484 79.4206C324.515 79.6498 325.547 79.0768 326.12 78.2746Z" fill="#E9A28C"/>
<path d="M330.59 81.1396C326.464 81.9419 322.109 82.0565 317.983 81.2543C318.441 82.7441 319.014 84.3486 320.046 85.4946C321.077 86.6407 322.453 87.4429 323.942 87.6721C325.547 87.7867 327.266 87.0991 328.412 85.953C329.558 84.6924 330.246 82.7441 330.59 81.1396Z" fill="white"/>
</g>
<mask id="mask3" mask-type="alpha" maskUnits="userSpaceOnUse" x="127" y="0" width="42" height="77">
<rect x="127.281" width="41.2576" height="76.785" fill="#C4C4C4"/>
</mask>
<g mask="url(#mask3)">
<path d="M168.195 126.867C178.051 129.045 188.595 128.357 198.107 124.919L191.001 69.565L185.844 69.1066V69.2212C183.552 72.8885 178.166 73.0031 175.644 69.565L170.029 69.9088L168.195 126.867Z" fill="#6DA6BA"/>
<path d="M156.62 57.4169L149.973 53.062L148.254 25.6715L154.442 21.2019C154.786 20.9727 155.015 20.6289 155.015 20.1705L155.13 17.993C155.13 17.3054 154.672 16.7323 153.984 16.5031L145.618 14.6695L145.847 16.0447C145.962 16.8469 145.389 17.5346 144.586 17.5346L138.627 17.7638L140.919 24.5254L139.315 53.635C139.2 56.7293 140.575 59.709 143.097 61.4281L152.38 67.9605L156.62 57.4169Z" fill="#BA6C67"/>
<path d="M145.732 14.6695L145.847 15.0133C146.191 17.1908 147.91 18.9098 150.202 19.139L151.692 19.2536L150.317 19.3682C148.368 19.4829 146.649 20.5143 145.389 22.0042L145.274 21.7749C144.586 19.9413 142.982 18.4514 141.034 18.1076L138.627 17.6492L145.732 14.6695Z" fill="#A34F5A"/>
<path d="M138.169 12.8358L144.013 12.2628C144.701 12.1482 145.389 12.7212 145.503 13.4088L145.847 16.0447C145.962 16.847 145.389 17.5346 144.586 17.5346L138.627 17.7638C137.939 17.7638 137.366 17.3054 137.252 16.6178L136.908 14.3257C136.908 13.638 137.366 12.9504 138.169 12.8358Z" fill="#BA6C67"/>
<path d="M152.036 16.0447L155.13 8.25162C155.474 7.33478 155.015 6.30334 154.099 5.95953C153.182 5.61571 152.15 6.07413 151.807 6.99097L149.171 13.9818L149.4 5.61572C149.4 4.58427 148.598 3.78204 147.681 3.78204C146.764 3.78204 145.962 4.58427 145.962 5.50111L145.618 13.638L145.847 14.8987L152.036 16.0447Z" fill="#BA6C67"/>
<path d="M156.62 57.4169L155.474 56.6147L148.827 65.4392L152.494 68.0751L156.62 57.4169Z" fill="#422C4F"/>
<path d="M170.602 55.8125C170.602 57.7607 169.112 59.2506 167.164 59.2506C165.215 59.2506 163.725 57.7607 163.725 55.8125C163.725 53.8642 165.215 52.3743 167.164 52.3743C169.112 52.3743 170.602 53.8642 170.602 55.8125Z" fill="#BA6C67"/>
<path d="M168.768 55.8125C168.768 56.7293 167.966 57.5316 167.049 57.5316C166.132 57.5316 165.33 56.7293 165.33 55.8125C165.33 54.8957 166.132 54.0934 167.049 54.0934C168.08 54.0934 168.768 54.7811 168.768 55.8125Z" fill="#A34F5A"/>
<path d="M190.428 56.0416C191.46 52.1451 191.803 48.1339 191.345 44.1228C191.116 42.1745 190.772 40.2262 189.855 38.3926C188.938 36.5589 187.678 35.069 185.844 34.1522C184.125 33.2354 182.177 33.1207 180.228 33.1207C177.363 33.0061 174.384 33.1208 171.633 34.0376C168.883 34.9544 166.247 36.6735 164.986 39.3094C163.725 41.8307 163.84 44.6958 164.528 47.4463C165.33 50.0822 166.705 52.6035 167.966 55.0102C175.186 56.5001 183.208 57.0731 190.428 56.0416Z" fill="#412C4A"/>
<path d="M182.979 43.3206C178.051 44.925 172.779 45.1542 167.622 44.1228C167.278 45.3834 167.049 46.6441 167.164 48.0193L167.507 54.781C167.851 60.7404 173.008 65.3246 178.968 64.9808C184.813 64.637 189.397 59.709 189.282 53.8642C185.729 51.6867 183.094 47.5609 182.979 43.3206Z" fill="#BA6C67"/>
<path d="M171.06 49.28C169.914 49.3946 168.997 49.9676 168.424 50.7699L173.811 50.5407C173.123 49.7384 172.092 49.1654 171.06 49.28Z" fill="#422C4F"/>
<path d="M172.55 67.273L156.62 57.417L151.463 70.3673L162.923 77.9312L163.152 89.8501C163.267 97.8724 162.923 105.895 162.236 113.802L160.402 134.546L160.746 134.66C164.757 136.036 168.883 136.379 173.008 135.692L175.415 105.436C175.53 103.373 175.644 101.311 175.644 99.2476V94.0904C175.644 86.5265 176.676 79.0772 178.853 71.8572L172.55 67.273Z" fill="#EEBD6C"/>
<path d="M164.184 76.7852C164.184 76.6705 164.298 76.5559 164.298 76.4413C164.184 76.5559 164.184 76.5559 164.184 76.7852C163.955 74.3785 164.871 70.8257 166.247 68.9921C166.361 70.7111 165.903 73.1178 165.101 75.0661C165.674 74.1493 166.361 73.1178 167.049 72.201C168.195 70.7111 169.57 69.2213 170.716 68.1898C170.487 69.7943 169.57 71.628 168.31 73.2324C167.164 74.7223 165.559 76.0975 164.184 76.7852Z" fill="#E8A05D"/>
</g>
</svg>
