<svg id="Capa_1" data-name="Capa 1" xmlns="http://www.w3.org/2000/svg" viewBox="0 0 16.77 20.8"><title>un</title><path d="M8.38,20.8C3.76,20.8,0,16.14,0,10.4S3.76,0,8.38,0s8.38,4.67,8.38,10.4S13,20.8,8.38,20.8Zm0-20.64C3.85,0.16.16,4.75,0.16,10.4S3.85,20.64,8.38,20.64,16.61,16,16.61,10.4,12.92,0.16,8.38.16Z" fill="#9e1f40"/><path d="M8.38,20.34c-4.42,0-8-4.46-8-9.94S4,0.47,8.38.47s8,4.46,8,9.94S12.8,20.34,8.38,20.34Zm0-19.71C4.06,0.63.54,5,.54,10.4s3.52,9.77,7.85,9.77,7.85-4.38,7.85-9.77S12.71,0.63,8.38.63Z" fill="#9e1f40"/><path d="M8.38,18.34c-3.3,0-6-3.56-6-7.93s2.69-7.93,6-7.93,6,3.56,6,7.93S11.69,18.34,8.38,18.34Zm0-15.74c-3.24,0-5.87,3.5-5.87,7.81s2.63,7.81,5.87,7.81,5.87-3.5,5.87-7.81S11.62,2.6,8.38,2.6Z" fill="#9e1f40"/><path d="M1.55,14l-0.06-.21,0.57-.16,0.17-.06a0.18,0.18,0,0,0,.09-0.09,0.24,0.24,0,0,0,0-.15,0.22,0.22,0,0,0-.08-0.13,0.15,0.15,0,0,0-.11,0L2,13.23l-0.59.16-0.06-.21L1.87,13,2.14,13a0.31,0.31,0,0,1,.15,0,0.34,0.34,0,0,1,.12.1,0.56,0.56,0,0,1,.09.19,0.61,0.61,0,0,1,0,.24,0.34,0.34,0,0,1-.06.15,0.3,0.3,0,0,1-.1.09,1.33,1.33,0,0,1-.26.1Z" fill="#9e1f40"/><path d="M2.33,12.68l-1.08.19,0-.21,0.65-.57-0.72.12,0-.2,1.08-.19,0,0.22-0.63.56,0.71-.12Z" fill="#9e1f40"/><path d="M2.16,11.61l-1.09.11,0-.22,1.09-.11Z" fill="#9e1f40"/><path d="M2.11,10.92L1,11.35V11.11l0.8-.31L1,10.56V10.33L2.1,10.68v0.24Z" fill="#9e1f40"/><path d="M2.09,10.2L1,10.14l0-.81H1.22l0,0.59H1.43l0-.55H1.65l0,0.55,0.3,0,0-.61H2.14Z" fill="#9e1f40"/><path d="M2.15,9.2L1.07,9l0.07-.46A0.8,0.8,0,0,1,1.2,8.33a0.25,0.25,0,0,1,.12-0.11,0.32,0.32,0,0,1,.18,0,0.29,0.29,0,0,1,.19.1,0.35,0.35,0,0,1,.07.23,0.52,0.52,0,0,1,.11-0.1l0.2-.1,0.23-.1,0,0.26L2,8.61,1.82,8.7l-0.06.06a0.37,0.37,0,0,0,0,.11v0L2.19,9ZM1.56,8.89l0-.16a0.84,0.84,0,0,0,0-.2,0.12,0.12,0,0,0,0-.07l-0.08,0a0.13,0.13,0,0,0-.09,0,0.14,0.14,0,0,0-.06.08s0,0.07,0,.16l0,0.17Z" fill="#9e1f40"/><path d="M2,8.1l0-.21a0.26,0.26,0,0,0,.17,0A0.24,0.24,0,0,0,2.26,7.7a0.25,0.25,0,0,0,0-.17,0.13,0.13,0,0,0-.09-0.08H2.1A0.18,0.18,0,0,0,2,7.53l-0.09.16a0.6,0.6,0,0,1-.17.22,0.29,0.29,0,0,1-.24,0A0.28,0.28,0,0,1,1.4,7.86,0.3,0.3,0,0,1,1.32,7.7a0.55,0.55,0,0,1,0-.22A0.46,0.46,0,0,1,1.5,7.21a0.32,0.32,0,0,1,.26,0l0,0.22a0.19,0.19,0,0,0-.13,0,0.22,0.22,0,0,0-.07.13,0.25,0.25,0,0,0,0,.16,0.08,0.08,0,0,0,.06.05,0.08,0.08,0,0,0,.07,0,0.58,0.58,0,0,0,.12-0.18A1.07,1.07,0,0,1,1.9,7.33,0.31,0.31,0,0,1,2,7.24a0.35,0.35,0,0,1,.34.1,0.31,0.31,0,0,1,.08.17,0.62,0.62,0,0,1,0,.24A0.48,0.48,0,0,1,2.27,8,0.42,0.42,0,0,1,2,8.1Z" fill="#9e1f40"/><path d="M2.59,7.17l-1-.35,0.07-.21L2.66,7Z" fill="#9e1f40"/><path d="M1.7,6.35L1.86,6A0.79,0.79,0,0,1,2,5.79a0.37,0.37,0,0,1,.16-0.11,0.48,0.48,0,0,1,.2,0,0.81,0.81,0,0,1,.25.07,0.72,0.72,0,0,1,.2.12A0.48,0.48,0,0,1,2.91,6a0.39,0.39,0,0,1,0,.18,0.67,0.67,0,0,1-.05.19l-0.16.38ZM2,6.22L2.63,6.5l0.06-.15a0.61,0.61,0,0,0,0-.13,0.2,0.2,0,0,0,0-.1A0.23,0.23,0,0,0,2.65,6a0.72,0.72,0,0,0-.18-0.1,0.66,0.66,0,0,0-.19-0.05,0.25,0.25,0,0,0-.12,0A0.21,0.21,0,0,0,2.08,6,1,1,0,0,0,2,6.13Z" fill="#9e1f40"/><path d="M3.63,4.93l-0.12.21-0.26,0L3,5.48,3.2,5.68l-0.12.2L2.34,5l0.12-.2ZM3,5.07L2.62,5,2.9,5.33Z" fill="#9e1f40"/><path d="M2.8,4.2L3,3.88a0.79,0.79,0,0,1,.14-0.15,0.37,0.37,0,0,1,.18-0.07,0.48,0.48,0,0,1,.21,0,0.81,0.81,0,0,1,.23.13A0.72,0.72,0,0,1,4,4a0.48,0.48,0,0,1,.08.21,0.39,0.39,0,0,1,0,.18,0.67,0.67,0,0,1-.1.17l-0.25.33Zm0.28-.06L3.66,4.57l0.1-.13,0.07-.11a0.21,0.21,0,0,0,0-.1,0.23,0.23,0,0,0,0-.11A0.72,0.72,0,0,0,3.66,4a0.66,0.66,0,0,0-.17-0.1,0.25,0.25,0,0,0-.12,0,0.21,0.21,0,0,0-.1.05l-0.12.14Z" fill="#9e1f40"/><path d="M4.62,3.72L3.9,2.89l0.16-.14L4.88,3,4.4,2.45l0.16-.13L5.28,3.15l-0.17.15L4.3,3,4.77,3.58Z" fill="#9e1f40"/><path d="M6.28,2.53l-0.21.12L5.86,2.48l-0.38.23L5.53,3l-0.2.12L5.14,1.93l0.2-.12ZM5.7,2.36L5.37,2.09,5.45,2.52Z" fill="#9e1f40"/><path d="M6.87,1.89H7.1A0.48,0.48,0,0,1,7,2.19a0.52,0.52,0,0,1-.63.16A0.57,0.57,0,0,1,6.13,2a0.6,0.6,0,0,1,0-.45,0.49,0.49,0,0,1,.3-0.27,0.46,0.46,0,0,1,.35,0,0.43,0.43,0,0,1,.17.15l-0.19.12a0.23,0.23,0,0,0-.28-0.1,0.25,0.25,0,0,0-.16.15,0.43,0.43,0,0,0,0,.29,0.46,0.46,0,0,0,.17.25,0.24,0.24,0,0,0,.21,0,0.22,0.22,0,0,0,.12-0.1A0.33,0.33,0,0,0,6.87,1.89Z" fill="#9e1f40"/><path d="M7.36,2.18L7.14,1.11l0.22,0L7.57,2.14Z" fill="#9e1f40"/><path d="M7.67,1.55a0.7,0.7,0,0,1,0-.28,0.52,0.52,0,0,1,.1-0.15A0.43,0.43,0,0,1,8,1,0.6,0.6,0,0,1,8.19,1a0.52,0.52,0,0,1,.39.14,0.58,0.58,0,0,1,.16.41,0.58,0.58,0,0,1-.13.42,0.58,0.58,0,0,1-.78,0A0.57,0.57,0,0,1,7.67,1.55Zm0.23,0a0.41,0.41,0,0,0,.1.28,0.3,0.3,0,0,0,.44,0,0.42,0.42,0,0,0,.08-0.29,0.41,0.41,0,0,0-.09-0.28,0.31,0.31,0,0,0-.44,0A0.41,0.41,0,0,0,7.9,1.54Z" fill="#9e1f40"/><path d="M8.87,2.08L9.08,1,9.3,1,9.6,1.85l0.14-.72,0.2,0L9.73,2.25l-0.22,0-0.3-.79-0.14.7Z" fill="#9e1f40"/><path d="M10.82,2.69L10.59,2.6V2.33l-0.4-.17L10,2.35,9.8,2.26l0.83-.84,0.22,0.09Zm-0.2-.56,0-.43L10.33,2Z" fill="#9e1f40"/><path d="M10.87,2.74l0.6-.91L11.66,2l-0.5.76L11.62,3l-0.1.15Z" fill="#9e1f40"/><path d="M12.69,2.72L13,3a0.8,0.8,0,0,1,.13.16,0.37,0.37,0,0,1,0,.19,0.48,0.48,0,0,1-.05.2,0.81,0.81,0,0,1-.16.21,0.72,0.72,0,0,1-.19.14,0.48,0.48,0,0,1-.22.05,0.39,0.39,0,0,1-.17-0.05,0.67,0.67,0,0,1-.15-0.12l-0.29-.3Zm0,0.29-0.52.51,0.12,0.12,0.1,0.09,0.1,0a0.23,0.23,0,0,0,.12,0,0.72,0.72,0,0,0,.16-0.12,0.66,0.66,0,0,0,.12-0.15,0.25,0.25,0,0,0,0-.12,0.21,0.21,0,0,0,0-.11l-0.12-.14Z" fill="#9e1f40"/><path d="M12.64,4.27l0.88-.65L14,4.27l-0.15.11L13.51,3.9,13.31,4l0.33,0.44-0.15.11-0.33-.44-0.24.18,0.36,0.49-0.15.11Z" fill="#9e1f40"/><path d="M13.43,5.43l1-.53L14.5,5.1l-1,.53Z" fill="#9e1f40"/><path d="M13.63,5.79l1-.45,0.09,0.2-0.49.71L14.9,6,15,6.14l-1,.45-0.09-.2,0.48-.7L13.71,6Z" fill="#9e1f40"/><path d="M14.59,7.15l0.18-.05,0.14,0.46-0.42.13a0.6,0.6,0,0,1-.17-0.16,0.74,0.74,0,0,1-.13-0.24,0.6,0.6,0,0,1,0-.31,0.46,0.46,0,0,1,.14-0.25,0.67,0.67,0,0,1,.26-0.15,0.63,0.63,0,0,1,.31,0,0.48,0.48,0,0,1,.26.14,0.57,0.57,0,0,1,.13.23,0.53,0.53,0,0,1,0,.33,0.39,0.39,0,0,1-.18.21L15,7.28a0.23,0.23,0,0,0,.1-0.12,0.26,0.26,0,0,0,0-.17,0.3,0.3,0,0,0-.16-0.19,0.39,0.39,0,0,0-.29,0A0.43,0.43,0,0,0,14.4,7a0.29,0.29,0,0,0,0,.25,0.38,0.38,0,0,0,.07.13l0.1,0.1,0.13,0Z" fill="#9e1f40"/><path d="M14.39,7.9l1.08-.21,0.16,0.8-0.18,0-0.11-.58L15.09,8,15.2,8.53,15,8.56,14.91,8l-0.29.06,0.12,0.6-0.18,0Z" fill="#9e1f40"/><path d="M14.57,8.88l1.09-.11,0,0.21L15,9.51l0.73-.07,0,0.21-1.09.11,0-.22L15.31,9l-0.71.07Z" fill="#9e1f40"/><path d="M14.66,10l1.1,0v0.22l-1.1,0V10Z" fill="#9e1f40"/><path d="M14.68,10.37l1.1,0,0,0.81H15.56l0-.59H15.34l0,0.55H15.14l0-.55h-0.3l0,0.61H14.65Z" fill="#9e1f40"/><path d="M14.64,11.37l1.09,0.14L15.67,12a0.8,0.8,0,0,1-.06.25,0.25,0.25,0,0,1-.12.11,0.32,0.32,0,0,1-.18,0,0.29,0.29,0,0,1-.19-0.1A0.35,0.35,0,0,1,15,12a0.52,0.52,0,0,1-.11.11l-0.19.1-0.23.11,0-.26L14.8,12l0.18-.1L15,11.8a0.37,0.37,0,0,0,0-.11v0l-0.45-.06Zm0.6,0.3,0,0.16a0.85,0.85,0,0,0,0,.2,0.12,0.12,0,0,0,0,.07l0.08,0a0.13,0.13,0,0,0,.09,0A0.14,0.14,0,0,0,15.47,12s0-.07,0-0.16l0-.17Z" fill="#9e1f40"/><path d="M14.48,12.44l1.08,0.22,0,0.22-1.08-.22Z" fill="#9e1f40"/><path d="M14.14,13.8l0.06-.23,0.27,0,0.12-.42L14.37,13l0.06-.23,0.94,0.71-0.06.23Zm0.53-.28,0.43,0-0.35-.25Z" fill="#9e1f40"/><path d="M3.19,17l0.68-.55L4,16.64l-0.56.46,0.34,0.42-0.11.09Z" fill="#9e1f40"/><path d="M3.82,17.75l0.62-.62L4.6,17.29,4,17.91Z" fill="#9e1f40"/><path d="M4.17,18.11l0.53-.7L5,17.61l-0.21.6,0.52-.36L5.53,18,5,18.74l-0.16-.12,0.42-.55-0.59.42L4.5,18.36l0.25-.68-0.42.55Z" fill="#9e1f40"/><path d="M6.16,19.33l-0.21-.1V19l-0.39-.19L5.39,19l-0.21-.1,0.76-.61,0.21,0.1v1Zm-0.21-.49V18.49l-0.27.23Z" fill="#9e1f40"/><path d="M7.21,19.62l-0.2,0L7.15,19a0.76,0.76,0,0,1-.29.07l0-.15,0.19,0a0.33,0.33,0,0,0,.16-0.11l0.16,0Z" fill="#9e1f40"/><path d="M7.81,19.23a0.24,0.24,0,0,1-.11-0.08,0.17,0.17,0,0,1,0-.11,0.2,0.2,0,0,1,.1-0.16,0.48,0.48,0,0,1,.48,0,0.2,0.2,0,0,1,.07.17,0.17,0.17,0,0,1,0,.11,0.24,0.24,0,0,1-.11.07,0.29,0.29,0,0,1,.13.09,0.2,0.2,0,0,1,0,.13,0.24,0.24,0,0,1-.11.19,0.39,0.39,0,0,1-.26.06,0.44,0.44,0,0,1-.24-0.08,0.23,0.23,0,0,1-.1-0.21,0.22,0.22,0,0,1,.05-0.13A0.27,0.27,0,0,1,7.81,19.23Zm0,0.21a0.14,0.14,0,0,0,0,.11,0.16,0.16,0,0,0,.11,0,0.15,0.15,0,0,0,.11,0,0.14,0.14,0,0,0,0-.11,0.13,0.13,0,0,0,0-.1,0.16,0.16,0,0,0-.11,0,0.14,0.14,0,0,0-.12,0A0.14,0.14,0,0,0,7.82,19.43Zm0-.37a0.1,0.1,0,0,0,0,.08,0.14,0.14,0,0,0,.09,0,0.15,0.15,0,0,0,.1,0,0.1,0.1,0,0,0,0-.08,0.09,0.09,0,0,0,0-.08A0.14,0.14,0,0,0,8,19a0.15,0.15,0,0,0-.1,0A0.09,0.09,0,0,0,7.87,19.06Z" fill="#9e1f40"/><path d="M8.47,19V18.87l0.7-.06v0.12a0.94,0.94,0,0,0-.16.21,1.06,1.06,0,0,0-.12.29,0.85,0.85,0,0,0,0,.27l-0.2,0a1,1,0,0,1,.06-0.38A1.2,1.2,0,0,1,8.93,19Z" fill="#9e1f40"/><path d="M10,18.84l-0.19.06a0.11,0.11,0,0,0-.05-0.06H9.64a0.15,0.15,0,0,0-.1.07,0.35,0.35,0,0,0,0,.21A0.27,0.27,0,0,1,9.71,19a0.33,0.33,0,0,1,.23,0,0.26,0.26,0,0,1,.14.18,0.27,0.27,0,0,1,0,.23,0.37,0.37,0,0,1-.22.14,0.37,0.37,0,0,1-.28,0,0.46,0.46,0,0,1-.18-0.31,0.47,0.47,0,0,1,0-.36,0.39,0.39,0,0,1,.25-0.17,0.35,0.35,0,0,1,.21,0A0.25,0.25,0,0,1,10,18.84ZM9.6,19.3a0.17,0.17,0,0,0,.07.11,0.15,0.15,0,0,0,.11,0,0.13,0.13,0,0,0,.08-0.06,0.16,0.16,0,0,0,0-.13,0.17,0.17,0,0,0-.07-0.11,0.15,0.15,0,0,0-.2,0A0.15,0.15,0,0,0,9.6,19.3Z" fill="#9e1f40"/><path d="M10.82,19.24l-0.39-.79,0.31-.16,0.24-.1a0.29,0.29,0,0,1,.18,0,0.24,0.24,0,0,1,.13.12,0.24,0.24,0,0,1,0,.14,0.26,0.26,0,0,1,0,.12,0.35,0.35,0,0,1-.08.09l-0.2.11-0.13.06L11,19.14Zm-0.13-.75,0.11,0.22,0.11-.05L11,18.57a0.14,0.14,0,0,0,0-.07,0.1,0.1,0,0,0,0-.07A0.1,0.1,0,0,0,11,18.37h-0.1l-0.14.06Z" fill="#9e1f40"/><path d="M11.79,18.72L11.26,18l0.64-.47L12,17.66,11.53,18l0.12,0.16,0.44-.32L12.17,18l-0.44.32,0.14,0.19,0.49-.36,0.09,0.12Z" fill="#9e1f40"/><path d="M12.66,18L12,17.44l0.32-.33a1,1,0,0,1,.19-0.16,0.24,0.24,0,0,1,.15,0,0.22,0.22,0,0,1,.13.06,0.21,0.21,0,0,1,.07.16,0.38,0.38,0,0,1-.09.21l0.13,0h0.19l0.21,0-0.18.19-0.25,0H12.73l-0.07,0-0.08.07,0,0,0.26,0.25Zm-0.21-.51,0.11-.12,0.13-.15a0.12,0.12,0,0,0,0-.07,0.1,0.1,0,0,0,0-.06,0.09,0.09,0,0,0-.07,0,0.15,0.15,0,0,0-.08,0l-0.11.11-0.12.12Z" fill="#9e1f40"/><path d="M12.73,16.68l0.12-.18,0.39,0.27,0.13,0.08a0.14,0.14,0,0,0,.11,0,0.27,0.27,0,0,0,.11-0.1,0.26,0.26,0,0,0,.05-0.13,0.12,0.12,0,0,0,0-.09l-0.12-.09-0.4-.27L13.22,16l0.38,0.26a1,1,0,0,1,.17.14,0.23,0.23,0,0,1,.05.12,0.34,0.34,0,0,1,0,.15,0.67,0.67,0,0,1-.1.19,0.72,0.72,0,0,1-.16.18,0.34,0.34,0,0,1-.13.06H13.32a0.88,0.88,0,0,1-.2-0.11Z" fill="#9e1f40"/><path d="M11.84,13.62h0l0.76-.09V13L11.84,13a3.64,3.64,0,0,0-.05-0.39h0l0.7-.32-0.15-.47L11.61,12a3.55,3.55,0,0,0-.19-0.41L12,11l-0.33-.44L11,11a3.55,3.55,0,0,0-.31-0.33L11.12,10l-0.38-.31-0.54.55A3.41,3.41,0,0,0,9.82,10L10,9.29,9.51,9.13l-0.3.68a3.35,3.35,0,0,0-.45-0.08l0-.73L8.23,9l-0.12.76a3.37,3.37,0,0,0-.44.07l-0.33-.7-0.47.16L7.05,10a3.4,3.4,0,0,0-.36.19L6.16,9.62l-0.39.3,0.4,0.64a3.52,3.52,0,0,0-.3.3l-0.08,0L5.1,10.45l-0.28.41,0.65,0.54a3.57,3.57,0,0,0-.2.38h0l-0.76-.09-0.11.48,0.7,0.24a3.62,3.62,0,0,0-.09.56H4.25l0,0.49L5,13.59A3.65,3.65,0,0,0,5,14H5l-0.69.34,0.17,0.46L5.2,14.6a3.58,3.58,0,0,0,.23.47l-0.55.42,0.25,0.42,0.67-.32a3.53,3.53,0,0,0,.31.32l-0.39.62,0.39,0.31,0.52-.54a3.4,3.4,0,0,0,.4.21l-0.22.73,0.45,0.19,0.38-.71,0.42,0.07v0.05l0.08,0.77H8.64l0.09-.83,0.37-.06,0,0.08,0.31,0.7,0.47-.15-0.18-.83a3.47,3.47,0,0,0,.43-0.22l0.41,0.52L11,16.57l-0.32-.64A3.52,3.52,0,0,0,11,15.6L11.6,16l0.3-.39-0.54-.5a3.56,3.56,0,0,0,.21-0.41l0.72,0.2,0.19-.46-0.7-.37A3.61,3.61,0,0,0,11.84,13.62ZM8.4,16.11a2.86,2.86,0,1,1,2.78-2.86A2.82,2.82,0,0,1,8.4,16.11Z" fill="#9e1f40"/><rect x="7.81" y="11.11" width="0.17" height="1.37" fill="#9e1f40"/><rect x="7.9" y="11.11" width="0.62" height="0.19" fill="#9e1f40"/><rect x="8.48" y="11.11" width="0.62" height="0.08" fill="#9e1f40"/><rect x="9.02" y="11.11" width="0.14" height="3.29" fill="#9e1f40"/><path d="M7.81,12.49v0.77H8.46V12.49H7.81ZM8.26,13H8V12.73H8.26V13Z" fill="#9e1f40"/><path d="M7.81,14v0.38H8.46V14H7.81Z" fill="#9e1f40"/><path d="M8.52,11.31v0.3h0a0.25,0.25,0,0,1,0,.5h0v0.38H8.87V11.31H8.52Z" fill="#9e1f40"/><path d="M8.52,11.61a0.25,0.25,0,1,0,0,.5v-0.5Z" fill="#9e1f40"/><rect x="8.59" y="12.71" width="0.29" height="0.11" fill="#9e1f40"/><rect x="8.59" y="12.9" width="0.29" height="0.11" fill="#9e1f40"/><rect x="7.81" y="14.35" width="1.34" height="0.11" fill="#9e1f40"/><path d="M10.11,13.24H6.81l-0.61.82h4.43Zm-1.65.69h-2l0.42-.61h1.6v0.61Z" fill="#9e1f40"/><polygon points="6.89 15.68 6.81 15.62 7.77 14.44 7.77 14.28 7.63 14.28 6.62 15.47 6.55 15.41 7.58 14.19 7.86 14.19 7.86 14.48 6.89 15.68" fill="#9e1f40"/><path d="M7.33,14.56a0.26,0.26,0,0,1,.2.25l0.31-.35,0-.23H7.6Z" fill="#9e1f40"/><polygon points="9.99 15.68 9.01 14.48 9.01 14.19 9.29 14.19 10.33 15.41 10.25 15.47 9.25 14.28 9.11 14.28 9.11 14.44 10.06 15.62 9.99 15.68" fill="#9e1f40"/><path d="M9.54,14.56a0.26,0.26,0,0,0-.2.25L9,14.46l0-.23H9.27Z" fill="#9e1f40"/><rect x="7.98" y="14.41" width="0.36" height="0.57" fill="#9e1f40"/><rect x="7.98" y="14.41" width="0.1" height="1.71" fill="#9e1f40"/><rect x="8.81" y="14.41" width="0.1" height="1.71" fill="#9e1f40"/><rect x="8.24" y="14.41" width="0.07" height="1.71" transform="translate(16.55 30.52) rotate(180)" fill="#9e1f40"/><rect x="8.6" y="14.41" width="0.07" height="1.71" transform="translate(17.26 30.52) rotate(180)" fill="#9e1f40"/><rect x="8.56" y="14.41" width="0.36" height="0.57" fill="#9e1f40"/><rect x="8.24" y="14.98" width="0.43" height="0.57" fill="#9e1f40"/><path d="M10,12.3h0a0.15,0.15,0,0,1-.1-0.06L9.8,12.15a0.15,0.15,0,0,1,0-.21l3-2.07a0.15,0.15,0,0,1,.21,0L13.08,10a0.15,0.15,0,0,1,0,.21l-3,2.07ZM12.9,9.94h0L9.89,12a0.06,0.06,0,0,0,0,.08l0.06,0.08,0,0h0l3-2.07A0.06,0.06,0,0,0,13,10L12.94,10A0.06,0.06,0,0,0,12.9,9.94Z" fill="#9e1f40"/><path d="M11.35,9.09a6.9,6.9,0,0,1,1.89,2.76,3.16,3.16,0,0,0-.86-2.16A1.89,1.89,0,0,0,11.35,9.09Z" fill="#9e1f40"/><path d="M6.74,12.27l-3-2.07a0.15,0.15,0,0,1,0-.21l0.06-.08a0.15,0.15,0,0,1,.21,0l3,2.07a0.15,0.15,0,0,1,0,.21L7,12.23a0.15,0.15,0,0,1-.1.06h0ZM3.86,10L3.81,10a0.06,0.06,0,0,0,0,.08l3,2.07h0l0,0,0.06-.08a0.06,0.06,0,0,0,0-.08l-3-2.07h0A0.06,0.06,0,0,0,3.86,10Z" fill="#9e1f40"/><path d="M5.46,9.09a6.9,6.9,0,0,0-1.89,2.76A3.16,3.16,0,0,1,4.43,9.7,1.89,1.89,0,0,1,5.46,9.09Z" fill="#9e1f40"/><path d="M6.79,8.48a4.17,4.17,0,0,1,1.81-.13A8.19,8.19,0,0,0,10,8.6a0.12,0.12,0,0,0,0-.13,0.54,0.54,0,0,0-.25-0.13,0.8,0.8,0,0,1-.68-0.45A1.4,1.4,0,0,1,8,7.24s-0.39-.39-0.4-0.41A14,14,0,0,0,6.79,8.48Z" fill="#9e1f40"/><path d="M8.91,3.35A1.35,1.35,0,0,0,7.8,4a4.61,4.61,0,0,0-.08,1.38s0,0.06.11,0a0.63,0.63,0,0,0,.29-0.12s0-.57,0-0.81a1.15,1.15,0,0,1,.37-0.85,1,1,0,0,1,.76-0.06,1.75,1.75,0,0,1,.69.56l0.23,0.24a0.36,0.36,0,0,1,.1.13s-0.38,0-.48,0a1.44,1.44,0,0,0-.86.32,0.89,0.89,0,0,0-.3.21,2.94,2.94,0,0,0,0,.46,0.54,0.54,0,0,1,0,.16,3.78,3.78,0,0,1,.33.64,1.78,1.78,0,0,1-1.17.33c-0.65,0-.6-0.1-0.6-0.1A2.06,2.06,0,0,1,7.21,6.1,1.71,1.71,0,0,0,7,5.28,1.54,1.54,0,0,1,7,4.15,1.63,1.63,0,0,1,8.91,3.35Z" fill="#9e1f40"/><path d="M7.66,7l-0.12,0A1.37,1.37,0,0,1,7.8,6.46L7.89,6.54A1.27,1.27,0,0,0,7.66,7Z" fill="#9e1f40"/><path d="M9.06,8.08a5,5,0,0,1,0-1.59v0h0a2,2,0,0,1,.64.07h0a1.7,1.7,0,0,0,.06-0.37,3,3,0,0,1,.06-0.4V5.69H10a0.28,0.28,0,0,0,.15,0,0.41,0.41,0,0,0-.06-0.12L10,5.46C10,5.35,9.73,4.49,9.7,4.39l0.12,0c0.1,0.36.26,1,.31,1l0,0.08a0.27,0.27,0,0,1,.07.24,0.25,0.25,0,0,1-.22.1,2.42,2.42,0,0,0,0,.32,1.19,1.19,0,0,1-.11.48l0,0H9.76a3.84,3.84,0,0,0-.54-0.08A4.68,4.68,0,0,0,9.18,8Z" fill="#9e1f40"/><path d="M9.41,5l0,0a0,0,0,0,1,0,0,1.28,1.28,0,0,1,.39-0.11,0,0,0,0,1,0,.06h0a1.21,1.21,0,0,0-.36.1h0Z" fill="#9e1f40"/><path d="M9.58,5.22a0,0,0,0,1,0-.06A0.27,0.27,0,0,0,9.76,5a0,0,0,0,1,.06,0,0.33,0.33,0,0,1-.24.17h0Z" fill="#9e1f40"/><path d="M13.12,7.4l0.08,0a0.3,0.3,0,0,1,.32.28,0.37,0.37,0,0,1-.19.35,0.45,0.45,0,0,1-.52,0,0.33,0.33,0,0,1,0-.47l0,0h0a0.36,0.36,0,0,1-.19,0,1.76,1.76,0,0,1-.16-0.3l-0.07-.11a0.13,0.13,0,0,1,0-.17s0.06-.07,0-0.11a0.25,0.25,0,0,0-.16-0.17c-0.07,0-.13,0-0.15-0.11a0.84,0.84,0,0,0-.18-0.27A0.16,0.16,0,0,1,12,6l0.43-.31a0.52,0.52,0,0,1,.12,0,0.13,0.13,0,0,1,0,.19L12.1,6.1a0.09,0.09,0,0,0,0,.08,2.84,2.84,0,0,0,.15.26,0.08,0.08,0,0,0,.07,0l0.58-.08a0.35,0.35,0,0,1,.11,0L12.55,7V7l0.32-.14,0.09,0c0.23-.11.18,0,0.26,0.12a0.75,0.75,0,0,1,0,.17A0.24,0.24,0,0,1,13.12,7.4ZM13.05,8l0.2-.08a0.16,0.16,0,0,0,.11-0.17,0.15,0.15,0,0,0-.15-0.16,0.75,0.75,0,0,0-.24.06,0.17,0.17,0,0,0-.12.2A0.19,0.19,0,0,0,13.05,8Zm0-.73a0.26,0.26,0,0,0,.07-0.11A0.78,0.78,0,0,0,13,7a0.34,0.34,0,0,0-.12.1A0.24,0.24,0,0,0,13.06,7.26ZM12.6,7.17c0.08,0.19.12,0.24,0.2,0.2a0.16,0.16,0,0,0,0-.22C12.71,7,12.67,7.17,12.6,7.17Zm0-.46,0.1-.16C12.48,6.6,12.48,6.6,12.56,6.72Z" fill="#9e1f40"/><path d="M12.05,5.06c-0.08.1-.08,0.1-0.24,0l-0.42.41a0.22,0.22,0,0,1-.09,0,0.45,0.45,0,0,1,0-.13,0.19,0.19,0,0,1,.06-0.07L11.67,5s0-.07,0-0.11a2.24,2.24,0,0,0-.32-0.3c-0.06-.06-0.1,0-0.13.05a0.16,0.16,0,0,0,0,.1l0,0a0.08,0.08,0,0,1,0,.13,0.09,0.09,0,0,1-.09,0c-0.05,0-.09-0.08-0.15,0S11,4.94,11,5l0.15,0.13a0.09,0.09,0,0,1,0,.13,0.11,0.11,0,0,1-.1,0L10.88,5a0.15,0.15,0,0,1,0-.22l0.37-.48s0.07-.05.11,0L11.72,4.7Z" fill="#9e1f40"/><path d="M4.42,6.41L4.6,6.52a0.39,0.39,0,0,1,.11.08,0.15,0.15,0,0,1,0,.12,0.1,0.1,0,0,1-.09,0L4.07,6.37a0.1,0.1,0,0,1,0-.08,0.13,0.13,0,0,1,.08-0.06H4.59L4.5,6.11,4.3,6s-0.09-.08,0-0.13a0.11,0.11,0,0,1,.11,0L4.92,6.2A0.3,0.3,0,0,1,5,6.27a0.2,0.2,0,0,1-.07.06l-0.37,0-0.11,0v0Z" fill="#9e1f40"/><path d="M13.46,8.71a0.55,0.55,0,0,1-.12-0.07,0.07,0.07,0,0,0-.11,0,0.65,0.65,0,0,1-.11.12,0.3,0.3,0,0,1-.11,0,0.31,0.31,0,0,1,0-.13c0.06-.07.13-0.13,0.19-0.2a0.23,0.23,0,0,0,0-.09H13.15a1.32,1.32,0,0,1-.15,0,0.35,0.35,0,0,1-.12,0A0.33,0.33,0,0,1,13,8.25a1,1,0,0,1,.21-0.07l0.33-.09c0.13,0,.16,0,0.18.12a0.9,0.9,0,0,0,0,.15A0.26,0.26,0,0,1,13.46,8.71Zm0.14-.24c0-.14-0.05-0.2-0.11-0.19a0.15,0.15,0,0,0-.1.08,0.17,0.17,0,0,0,.11.19A0.35,0.35,0,0,0,13.59,8.46Z" fill="#9e1f40"/><path d="M3.5,8.19a2.18,2.18,0,0,0-.18.23,0.68,0.68,0,0,0,0,.17l0,0,0.11-.09a0.67,0.67,0,0,1,.27-0.2,0.2,0.2,0,0,1,.26.2,0.37,0.37,0,0,1-.19.38,0.31,0.31,0,0,1-.11,0,0.31,0.31,0,0,1,0-.15A0.22,0.22,0,0,0,3.8,8.55c0-.09,0-0.1-0.1-0.06s-0.1.1-.16,0.14l-0.21.14a0.24,0.24,0,0,1-.19-0.14,0.44,0.44,0,0,1,.23-0.47A0.31,0.31,0,0,1,3.5,8.19Z" fill="#9e1f40"/><path d="M3.74,6.87a0.89,0.89,0,0,1,0-.11,2,2,0,0,1,.13-0.24,0.11,0.11,0,0,1,.1,0,0.06,0.06,0,0,1,0,.1l-0.09.16c0,0.05-.06.1,0,0.14s0.1,0.06.14,0a0.26,0.26,0,0,1,.12-0.06,0.33,0.33,0,0,1,0,.15c0,0.05,0,.09,0,0.11s0.1,0.09.15,0a1.41,1.41,0,0,1,.1-0.19,0.11,0.11,0,0,1,.1,0c0.06,0,.05.06,0,0.11l-0.17.32a0.08,0.08,0,0,1-.13,0L3.78,7A0.25,0.25,0,0,1,3.74,6.87Z" fill="#9e1f40"/><path d="M5.61,5.42a0.11,0.11,0,0,1-.16-0.09c-0.07-.2-0.15-0.4-0.21-0.6a0.43,0.43,0,0,1,0-.13,0.34,0.34,0,0,1,.12,0L5.9,4.94A0.15,0.15,0,0,1,6,5c0,0.06-.08.06-0.13,0a0.12,0.12,0,0,0-.16,0c0,0.06-.16.1-0.07,0.21A0.26,0.26,0,0,1,5.61,5.42ZM5.48,4.88l0,0L5.54,5l0-.07Z" fill="#9e1f40"/><path d="M3.85,8.23a0.49,0.49,0,0,1-.46-0.46,0.29,0.29,0,0,1,.34-0.27,0.1,0.1,0,0,1,.06.05,0.13,0.13,0,0,1,0,.07l-0.05,0a0.13,0.13,0,0,0-.14.13,0.32,0.32,0,0,0,.1.19,0.26,0.26,0,0,0,.25.09A0.2,0.2,0,0,0,4,8a0.23,0.23,0,0,0,0-.17C4,7.77,4,7.72,4,7.7a0.11,0.11,0,0,1,.1,0,0.34,0.34,0,0,1,0,.31,0.27,0.27,0,0,1-.23.19H3.85Z" fill="#9e1f40"/><path d="M4.45,5.7a0.63,0.63,0,0,1,0-.17,2.44,2.44,0,0,1,.2-0.27,0.09,0.09,0,0,1,.08,0,0.15,0.15,0,0,1,0,.1,0.53,0.53,0,0,0,0,.12,0.54,0.54,0,0,0,.14.14L5.22,5.85a0.13,0.13,0,0,1,0,.11,0.09,0.09,0,0,1-.09,0L4.72,5.64c-0.06-.05-0.09,0-0.14,0l-0.1.07Z" fill="#9e1f40"/><path d="M5.39,5.68a1.06,1.06,0,0,1-.12-0.11l-0.33-.4s-0.08-.1,0-0.15S5,5,5,5.05l0.42,0.5a0.08,0.08,0,0,1,0,.07A0.24,0.24,0,0,1,5.39,5.68Z" fill="#9e1f40"/><path d="M4.26,7.6L4,7.46l-0.3-.15a0.12,0.12,0,0,1-.05-0.06,0.13,0.13,0,0,1,0-.08,0.12,0.12,0,0,1,.09,0L4.16,7.38a0.79,0.79,0,0,1,.14.07,0.12,0.12,0,0,1,0,.09A0.16,0.16,0,0,1,4.26,7.6Z" fill="#9e1f40"/><polyline points="9.87 6.06 9.76 6.08 9.89 6.15 9.89 6.06" fill="#9e1f40"/></svg>