<svg id="Capa_1" data-name="Capa 1" xmlns="http://www.w3.org/2000/svg" viewBox="0 0 155.15 155.16"><title>pucp_logo_academia</title><path d="M78.31,18.89C46.42,18.89,20,45.31,20,77.38a57.28,57.28,0,0,0,2,14.9c7.6-1.46,9.39-4.47,15.6-5.67,3.19-.62,6.65.57,4.91,3.06,0,0-.68.49-.75.56a1.35,1.35,0,0,0,.07,1.87,4.21,4.21,0,0,0,2.28.77c11.53-1,12.79-4.85,20-6.26,3.26-.62,6.74.57,4.93,3.06,0,0-.62.49-.69.56a1.26,1.26,0,0,0,0,1.77l.12.1a4.07,4.07,0,0,0,2.09.77c11.45-1,12.7-4.85,19.91-6.26,3.19-.62,6.66.57,5,3.06,0,0-.62.49-.76.56-.42.49-.49,1.52.07,1.87a4.39,4.39,0,0,0,2.22.77c11.46-1,12.68-4.85,19.93-6.26,3.28-.62,6.74.57,4.93,3.06,0,0-.64.49-.7.56a1.25,1.25,0,0,0,0,1.78l.1.09a4.18,4.18,0,0,0,2.16.77,33.6,33.6,0,0,0,11.38-3,59.16,59.16,0,0,0,1.43-12.93,57.92,57.92,0,0,0-57.79-58h0m-19,30.92-8.28.62s2.38,2.58,3.5,3.85c.49.55.06,1.24-.65.73l-.25-.25L50.31,51.3s-.68,24.06-.89,26.82c-.07.82-.69.9-.85,0L47.83,51.3c-1.14,1.13-2.37,2.72-3.63,3.76-.56.51-1.11-.11-.61-.82l3.18-3.81-8.23-.64c-1.2-.07-1.34-1.12,0-1.34l8.32-.76s-2.4-2.46-3.55-3.72c-.59-.67-.19-1.19.39-.83l4,3.72v-.22c.13-2.74.34-5.48.56-8.22.07-1.14,1.12-1.35,1.32,0l.62,8.5s2.72-2.61,4-3.74c.68-.58,1.18.1.49.79L51,47.71s5.54.55,8.29.76c1.21.08,1.34,1.13,0,1.34M95.38,36.43a4.4,4.4,0,0,0,.23,4.22C94.42,40,91.3,38,88.54,37.57c2.67-.61,6.84-1.14,6.84-1.14m16,39.25c-4.87-4.21-9.58-3.22-13.81-2L97.15,73c.73,1.46,1.59,3,2.56,4.6L100,78a34.59,34.59,0,0,1-18.53-7.55l-3-3.14c-1,.35-2,1-3,1.4a25.26,25.26,0,0,0,0,3.48l-.76.85c-2.81-6.2-6.21-16.55.64-25.88h8.84a17.79,17.79,0,0,1,4.07-5.29h23.47c-2.88,3-7,9.72-7.15,15.75a24.76,24.76,0,0,0,6.82,18,11.32,11.32,0,0,1,1.08,1s-.41-.33-1.08-1" transform="translate(0.04 0.05)" style="fill:#124377"/><path d="M96.31,41.64H97.6L96.89,36v-.08h-.58a.3.3,0,0,0,0,.23Zm29,25.27c-12.1,16.67-33.75,12.42-43.85,3.61l-3-3.14c-1,.35-2,1-3,1.4a20.65,20.65,0,0,0,0,4.16c0-.33-.07-.66-.1-1a16.86,16.86,0,0,0-3,3.93,69.35,69.35,0,0,0,8.45,14.46s.67-.24,1.22-.5l.12-.12c-.56-.75-1.08-1.51-1.55-2.27.42.64.87,1.29,1.35,1.94l.1.17a27.73,27.73,0,0,1,7.92-3c3.21-.63,6.69.57,5,3.08-.26.2-.52.39-.78.56-.42.5-.49,1.54.07,1.88a4.46,4.46,0,0,0,2.24.77c11.51-1,12.77-4.88,20-6.29,3.08-.56,6.3.43,5.16,2.72,3.93-3.46,7.41-8.85,10.13-17.44-2.22-1.54-4.33-3.36-6.5-4.88" transform="translate(0.04 0.05)" style="fill:#bb8952"/><path d="M99.58,92.49l1.26-.35L92.46,81Zm3.75-.75,1.06-.36L96.63,81.09Zm3.91-1.49.75-.37-6.61-8.83Zm3.4-1.62.68-.31L105.78,81ZM109.82,81l4.08,6.39.58-.28Z" transform="translate(0.04 0.05)" style="fill:#7a4124"/><path d="M108.15,77.81s6-6.31,8-9.51c0,0,5.87-.06,9.11-1.39.5-.79-6.13,9.75-17.08,10.9" transform="translate(0.04 0.05)" style="fill:#f1cb76"/><path d="M128.52,69.06l-3.12-2.34h-.2v-.06c-3.17,1.33-9,1.39-9,1.39h-.12l-.06.11a64.57,64.57,0,0,1-5.21,6.44,24.58,24.58,0,0,1-6-16.13v-.81c.19-6.16,4.45-12.84,7.09-15.61l-.15-.36H88.16l-.06.06A17.92,17.92,0,0,0,84,47H75.21l-.07.08c-5.11,7-5.38,15.4-.83,25.72a16.5,16.5,0,0,0-2.13,3l-.07.11.65,1.36a60.38,60.38,0,0,0,7.55,12.89l.38.5,1.72-1-.1-.19h0l.34-.11h0a27.22,27.22,0,0,1,7.4-2.58c2.15-.41,4.34,0,5,1a1.3,1.3,0,0,1,.2.63,2,2,0,0,1-.42,1.1,5.52,5.52,0,0,1-.72.53h0a1.76,1.76,0,0,0-.38,1.14.66.66,0,0,0,0,.28,1,1,0,0,0,.47.78l.1.07a4.48,4.48,0,0,0,2.25.73,31.7,31.7,0,0,0,13.17-3.74,25.24,25.24,0,0,1,6.9-2.55c2.14-.39,4.2,0,4.9.9a1.45,1.45,0,0,1,0,1.53l.34.25c4.33-3.86,7.65-9.59,10.18-17.54l.05-.15Zm-12.29-.55a32.54,32.54,0,0,0,8.43-1.18,31.41,31.41,0,0,1-5.79,5.73,25.17,25.17,0,0,1-6.38,3.37l-.78-.71A8.76,8.76,0,0,1,111,75a60,60,0,0,0,5.21-6.45M112,76.6a25.26,25.26,0,0,1-3.28.89l1.91-2.06c.26.19.51.4.78.63s.43.42.58.56m-4,1-1.65.25a32.21,32.21,0,0,1-6.21.06l-.26-.4a38.24,38.24,0,0,1-2-3.62c4-1.17,8.13-1.92,12.48,1.22-1.19,1.32-2.11,2.29-2.3,2.49M88.31,42.16H111.2c-2.69,3-6.71,9.48-6.88,15.53v.84a24.77,24.77,0,0,0,5.54,15.78c-4.23-2.72-8.32-2-12.2-.8-.14-.24-.26-.46-.4-.67-5.1-10.21-4.41-17.13-1.38-25.55L95.67,47H84.54a17.19,17.19,0,0,1,3.77-4.84M71.52,59.43a19.8,19.8,0,0,1,3.92-12H95.37c-.15.38-.39,1.07-.67,2a31.36,31.36,0,0,0-1.62,9.46,27,27,0,0,0,1.23,7.77A26.32,26.32,0,0,0,97,73.09c.74,1.48,1.6,3,2.6,4.68h0a34.94,34.94,0,0,1-18-7.45l-3-3.13-.09-.1h-.12c-.27.1-.54.21-.8.33s-.57.27-.84.42l-1.39.75h-.09v.14a17.72,17.72,0,0,0,0,3.09l-.15.15-.42.44a32.7,32.7,0,0,1-3.11-13m9.21,30.74a64.36,64.36,0,0,1-7.57-13.08l-.55-1.18a16.41,16.41,0,0,1,2.58-3.46,8.79,8.79,0,0,0,.13,1.08,32.44,32.44,0,0,0,4,12.25,32.5,32.5,0,0,0,2.45,3.92l-1.1.46m-3.78-11.3v-.19c-.08-.25-.14-.49-.21-.72s-.13-.54-.21-.8a.49.49,0,0,0,0-.17,32.12,32.12,0,0,1-.75-4.78V68.93a9.39,9.39,0,0,0,1.4-.66c.39-.2.76-.38,1.16-.55-.81,8.79.58,12.59,3.88,21.47a33.88,33.88,0,0,1-5.27-10.35m5.67,10.42c-3.34-9-4.74-12.77-4-21.37l2.51,2.54c-.3,8.17.42,13.6,2.43,18.17v.12l-1,.5m39.5-.73v-.18a1.65,1.65,0,0,0-.34-1c-.79-1.06-3-1.5-5.31-1.08a25.35,25.35,0,0,0-7,2.6,31.24,31.24,0,0,1-13,3.7,4,4,0,0,1-2-.67l-.06,0a.61.61,0,0,1-.25-.46.81.81,0,0,1,0-.22,1.46,1.46,0,0,1,.27-.86l.78-.55h0a2.58,2.58,0,0,0,.5-1.39,1.68,1.68,0,0,0-.27-.86c-.73-1.14-3.08-1.64-5.43-1.19a20.6,20.6,0,0,0-6,2.28c-2-4.56-2.69-9.84-2.41-17.72l.19.16.46.37a34.2,34.2,0,0,0,24.24,6.92c.66-.09,1.33-.2,2-.33,6-.71,10.73-4.19,13.65-7.06a30.8,30.8,0,0,0,3.23-3.7c.35.21,3,2.21,3,2.21l3.26,2.46c-2.37,7.44-5.48,12.89-9.45,16.66" transform="translate(0.04 0.05)" style="fill:#262424"/><path d="M103.19,121.57a7.16,7.16,0,0,0-1.6.21c-6,1.6-8.47,5.22-19.92,6.17-4,0-6.12-3.4-4.87-6.38a6,6,0,0,0-1.59.21c-6.06,1.6-8.48,5.22-19.92,6.17-3.84,0-6-3.4-4.8-6.38a7.16,7.16,0,0,0-1.6.21A35,35,0,0,0,43,124.14a53.67,53.67,0,0,0,34.17,11.11A62.33,62.33,0,0,0,106,127.59a4.59,4.59,0,0,1-2.88-5.82,1.34,1.34,0,0,1,.07-.18M123.31,95.5a4.94,4.94,0,0,1-4.84-6.62,10.83,10.83,0,0,0-1.61.15c-6,1.72-8.46,5.37-19.92,6.47-4-.09-6.12-3.6-4.87-6.62a10.58,10.58,0,0,0-1.6.15c-6,1.72-8.47,5.37-19.91,6.47a4.92,4.92,0,0,1-4.8-6.62,10.83,10.83,0,0,0-1.61.15c-6,1.72-8.47,5.37-20,6.47A5.19,5.19,0,0,1,39,91.75a1.47,1.47,0,0,1-.14-.69,4.76,4.76,0,0,1,.3-2.18,9.66,9.66,0,0,0-1.52.15c-5.2,1.45-7.73,4.4-15.42,5.84a62.54,62.54,0,0,0,6.07,13c4.32-1.57,6.5-3.59,11.29-4.5,3.2-.63,6.67.5,4.94,3.06,0,0-.63.42-.77.54a1.4,1.4,0,0,0,.07,1.89,4.75,4.75,0,0,0,2.3.69c11.52-1,12.84-4.79,20-6.18,3.2-.63,6.67.5,5,3.06a5.4,5.4,0,0,0-.78.54,1.4,1.4,0,0,0,.08,1.89,4.21,4.21,0,0,0,2.15.69c11.39-1,12.63-4.79,19.86-6.18,3.18-.63,6.65.5,4.92,3.06a5.31,5.31,0,0,0-.71.54,1.38,1.38,0,0,0,0,1.89,4.75,4.75,0,0,0,2.24.69c11.46-1,12.77-4.79,20-6.18,3.2-.63,6.67.5,4.94,3.06a5.4,5.4,0,0,0-.78.54,1.4,1.4,0,0,0,.07,1.89,4.31,4.31,0,0,0,2.15.69h.3a56.44,56.44,0,0,0,7.29-16.2,61.2,61.2,0,0,1-9.54,2.15m-2.84,10.43a9.83,9.83,0,0,0-1.54.2c-6.06,1.61-8.54,5.21-20,6.19-4,0-6.11-3.41-4.86-6.39a11.91,11.91,0,0,0-1.59.2c-6.06,1.61-8.47,5.21-19.86,6.19-3.9,0-6.05-3.41-4.86-6.39a11.18,11.18,0,0,0-1.54.2c-6,1.61-8.53,5.21-20,6.19-4,0-6.2-3.41-4.94-6.39a12.06,12.06,0,0,0-1.6.2c-3.64.93-6,2.67-9.76,4.06a59.57,59.57,0,0,0,10.75,12c2.66-1.26,4.8-2.58,8.32-3.22,3.26-.67,6.72.49,4.92,3,0,0-.62.49-.68.56a1.28,1.28,0,0,0,0,1.81l.09.08a4.14,4.14,0,0,0,2.1.75c11.44-1,12.69-4.85,19.92-6.19,3.18-.67,6.65.49,4.93,3,0,0-.63.49-.76.56a1.37,1.37,0,0,0,.06,1.89,4.63,4.63,0,0,0,2.23.75c11.45-1,12.77-4.85,19.92-6.19,3.27-.67,6.73.49,4.94,3l-.71.56a1.25,1.25,0,0,0-.06,1.77l.14.12a4,4,0,0,0,2.14.75c.81-.07,1.55-.14,2.27-.23a56.27,56.27,0,0,0,13.41-12.81,4.66,4.66,0,0,1-3.49-5.59,3.41,3.41,0,0,1,.19-.62" transform="translate(0.04 0.05)" style="fill:#1e71b7"/><path d="M21.68,95c-.28-.93-.41-1.88-.62-2.81,8.4-1.42,10.07-4.74,16.53-6,3.19-.65,6.66.58,4.91,3.17,0,0-.67.5-.74.57a1.44,1.44,0,0,0,.07,1.94,4.2,4.2,0,0,0,2.27.79c11.53-1.07,12.78-5,20-6.47,3.27-.65,6.75.58,5,3.17,0,0-.63.5-.7.57a1.32,1.32,0,0,0,0,1.85l.09.09a4.09,4.09,0,0,0,2.09.79c11.44-1.07,12.69-5,19.91-6.47,3.19-.65,6.66.58,4.94,3.17a5.36,5.36,0,0,1-.69.74c-.42.5-.56,1.41,0,1.77a4.86,4.86,0,0,0,2.22.66c11.43-1.12,12.13-5,19.93-6.36,3.29-.6,6.88.69,5.07,3.26,0,0-.76.72-.81.79-.49.51-.59,1.27,0,1.63a4.39,4.39,0,0,0,2.16.79A30.64,30.64,0,0,0,135.71,89c-.16.1-1.07,4-1.11,4a61.85,61.85,0,0,1-11.29,2.62,4.94,4.94,0,0,1-4.84-6.6,10.81,10.81,0,0,0-1.61.13c-6,1.72-8.46,5.38-19.92,6.47-4-.09-6.12-3.61-4.87-6.6a10.57,10.57,0,0,0-1.6.13c-6,1.72-8.47,5.38-19.91,6.47a4.91,4.91,0,0,1-4.8-6.6,10.81,10.81,0,0,0-1.61.13c-6,1.72-8.47,5.38-20,6.47-4-.09-6.19-3.61-5-6.6a9.67,9.67,0,0,0-1.53.13c-5.27,1.49-7.78,4.52-15.91,6" transform="translate(0.04 0.05)" style="fill:#fff"/><path d="M75.59,68.94l2.63-1.25s-.46,7.59.28,10.3a61.4,61.4,0,0,0,2.12,7.29c.95,2.49,1.78,4.48,1.46,4,0,0-4-5.61-5.26-10.69a32.41,32.41,0,0,1-1.18-9.5Z" transform="translate(0.04 0.05)" style="fill:#cdaa7a"/><path d="M152.31,73.66l2.35-.2-.57-7-15.28,1.2.58,7.1,2.4-.2-.4-4.8,4-.33.26,3.41,2.42-.19-.26-3.43,4.07-.36ZM151.84,63a5.8,5.8,0,0,0,.92-4.45c-.75-3.72-4.53-5.74-9.15-4.8s-7.21,4.36-6.45,8.08a6.19,6.19,0,0,0,2.26,3.67l1.71-1.31a5.1,5.1,0,0,1-1.61-2.93c-.47-2.34,1.85-4.53,4.72-5.11s5.65.52,6.16,3a4.75,4.75,0,0,1-.67,3.27ZM139.9,53l8.67-4-.26-2.49L138.83,51c-1.83.81-3.09.31-3.78-1.1s-.24-2.54,1.48-3.48l9.26-4.88L144,39.86l-8.52,4.5c-3.19,1.74-3.92,3.82-2.6,6.5s3.44,3.76,7,2.12M129.31,39.7l10.6-7.37-1.35-1.9L126,39.2l4.24,6,2-1.4Zm.09-15,2.11-.84a6.43,6.43,0,0,0-1.8-3.38,4.19,4.19,0,0,0-5.92.19l-.21.24c-3.51,3.89,1.21,6.43-.83,8.71a2,2,0,0,1-2.8.43l-.2-.17a4.21,4.21,0,0,1-1-2.29l-2.16,1a6.11,6.11,0,0,0,1.77,3.19c1.84,1.67,4.46,1.35,6.24-.59,3.28-3.64-1.3-6.52.72-8.76a2,2,0,0,1,2.82-.23l.11.1a4.38,4.38,0,0,1,1.09,2.39m-14.75,3.57,9.11-12.37-1.9-1.38-9.11,12.36ZM116.31,16c1.19-2.13,1.06-4.49-1.63-6L111.17,8l-7.53,13.4,2.1,1.17,3-5.37.64.36a.93.93,0,0,1,.49.86l.22,6.92,2.56-.31-.42-6.77A4.12,4.12,0,0,0,116.31,16m-2.18-1.1A2.08,2.08,0,0,1,111.42,16a1.59,1.59,0,0,1-.29-.15l-1.28-.71,2.25-4,1.2.65a2.09,2.09,0,0,1,.91,2.81c0,.07-.07.13-.1.19m-11.45-2.25c1.24.25,2.6-.68,3.31-2.65A3.76,3.76,0,0,0,104,5a3.52,3.52,0,0,0-.42-.15l-4-1.41L94.22,17.88l4.37,1.55a3.87,3.87,0,0,0,5-2.13l.15-.45c.62-1.76.27-3.43-1.09-4.22Zm-2.71.26c1.63.58,2.14,1.61,1.63,3.07a2,2,0,0,1-2.46,1.4,1.57,1.57,0,0,1-.44-.18l-1.5-.53,1.58-4.14Zm3.8-3.33a2.16,2.16,0,0,1-2.69,1.44l-.31-.13-1.23-.36L101,6.33l1.4.5a2,2,0,0,1,1.51,2.39,2.29,2.29,0,0,1-.12.37M95.16,4.66l.46-2.31-7-1.41-3,15,7,1.42.5-2.37-4.81-.92.8-4,3.35.69L93,8.43,89.6,7.72l.8-4ZM83.54,15.3,83.92.43H81.58l-.07,11.4h0L75.75,0,73.54.71l-.37,14.88H75.5V4.23h0L81.08,16Zm-18.8,1.4,7-1.17-.39-2.39-4.75.8-.69-4,3.4-.51L68.91,7l-3.4.54-.7-4,4.77-.82L69.21.43l-7,1.18Zm-4.67,1.36L56.39,5.68l3.35-1-.69-2.34-9,2.77.68,2.32,3.41-1.06,3.68,12.4ZM47.18,23.73l1.59-1.93L41.07,9.07l-2,1.24L45.19,20h0L34,13.1,32.55,15l7.66,12.73,2-1.24-6.1-9.56v-.06ZM38.5,29.25l-9.69-11.9L27,18.86l9.7,11.91Zm-7.09,4.9-7.63-1.27-2.7-7-2.37.71,2.54,5.94-6.31-1.24-.24,2.56L22,35l2.83,7.31,2.32-.77-2.56-6.22,6.5,1.31Zm-11,7.37-8.25-4.79-1.85,1.61,9.08,5.2c1.71,1,2.11,2,1.36,3.42s-1.81,1.51-3.57.63L7.88,42.8l-.35,2.41,8.58,4.4c3.26,1.6,5.24,1.17,6.66-1.46s1-4.67-2.34-6.63M16.31,57.19,4.11,52.88l-.8,2.23,14.5,5.09,2.38-7-2.31-.77ZM3.49,64.88l-2.42-.26L.12,74l2.42.27.35-3.56,12.82,1.39.23-2.35L3.14,68.43ZM2.31,77.09,0,77.24l.44,7.1,15.3-1-.39-7.07-2.42.16.33,4.81-4,.28L9,78.09l-2.4.14.18,3.45L2.71,82Zm15.21,13H.66a78,78,0,0,0,153.82,0H137.56a61.27,61.27,0,0,1-120,0m97.27,53.79-6.39-11.25,1.82-1.06,6.39,11.26Zm-10.46-9.22,1.91-.91,5.61,11.68-1.9.91Zm-12,4.3,2-.63,5.13,6,.64-7.87,2-.64-.83,13.93Zm-7.06,7.55-4.76-5.91,2.1-.27,3.58,4.44,2.38-5.15,2.11-.2-3.23,6.88,4.76,6-2.1.22-3.58-4.37-2.38,5.08-2.08.26Zm-20.89,6.06,4.35-12.66,3.72,5.91,4.63-5.22,2.31,13.16-2.12-.13-1.69-8.2-3.43,3.81-2.8-4.3-2.89,7.82Zm-8.21-9c.91-3.44,3.52-5.79,5.75-5.21,1.48.42,2.39,2,2.59,4.07l-2.08-.63c-.21-.7-.58-1.26-1.06-1.33-1.12-.29-2.51,1.33-3.16,3.65s-.23,4.45.91,4.72a1.58,1.58,0,0,0,1.54-.7l2.18.62c-1.19,1.63-2.79,2.55-4.28,2.12-2.17-.56-3.29-3.86-2.39-7.31M38.9,143l8.49-10.35,1.45,6.82,6.1-3.24-2.48,13.19-1.86-.92,1.32-8.16-4.55,2.32-1.12-5-5.48,6.26ZM152.31,85.14l2.42.11.37-9.46-2.42-.11-.14,3.58-12.87-.59L139.56,81l12.89.6Z" transform="translate(0.04 0.05)" style="fill:#850b24"/></svg>