<svg xmlns="http://www.w3.org/2000/svg" viewBox="0 0 25.5 25.63"><defs><style>.cls-1{fill:#fff;}</style></defs><g id="Capa_2" data-name="Capa 2"><g id="Capa_1-2" data-name="Capa 1"><path class="cls-1" d="M12.82,0a12.22,12.22,0,0,1,9,3.72,12.22,12.22,0,0,1,3.72,9,12.22,12.22,0,0,1-3.72,9,12.22,12.22,0,0,1-9,3.72,12.73,12.73,0,0,1-6.11-1.53L0,25.63l1.79-6.57A13,13,0,0,1,.13,12.68a12.22,12.22,0,0,1,3.72-9A12.22,12.22,0,0,1,12.82,0Zm0,23.24a10.12,10.12,0,0,0,7.43-3,10.24,10.24,0,0,0,3.13-7.51,10,10,0,0,0-3.13-7.43,10,10,0,0,0-7.43-3.12A10.23,10.23,0,0,0,5.31,5.25a10.12,10.12,0,0,0-3,7.43,10.61,10.61,0,0,0,1.59,5.65l.27.4L3.05,22.58l4-1,.4.2A10.28,10.28,0,0,0,12.82,23.24Zm5.77-7.9c.36.18.56.31.6.4s.07.71-.2,1.46a1.79,1.79,0,0,1-.86,1,3.34,3.34,0,0,1-1.26.53,3.69,3.69,0,0,1-2-.14,8.64,8.64,0,0,1-1.8-.66,13.91,13.91,0,0,1-5.44-4.78A5.62,5.62,0,0,1,6.38,9.89,3.89,3.89,0,0,1,7.44,7.24a1.17,1.17,0,0,1,.86-.4h.6a.73.73,0,0,1,.73.53c0,.13.15.42.33.86a8.2,8.2,0,0,1,.4,1.07,2,2,0,0,0,.27.46.62.62,0,0,1,0,.53,2.09,2.09,0,0,1-.34.53l-.46.54A.49.49,0,0,0,9.7,12a7.19,7.19,0,0,0,1.79,2.19A9.49,9.49,0,0,0,14,15.8c.31.14.53.12.67-.06a14,14,0,0,0,1.06-1.26c.13-.22.35-.27.66-.14S17.4,14.76,18.59,15.34Z"/></g></g></svg>