<?xml version="1.0" encoding="utf-8"?>
<!-- Generator: Adobe Illustrator 22.0.1, SVG Export Plug-In . SVG Version: 6.00 Build 0)  -->
<svg version="1.1" id="Capa_1" xmlns="http://www.w3.org/2000/svg" xmlns:xlink="http://www.w3.org/1999/xlink" x="0px" y="0px"
	 viewBox="0 0 165 173" style="enable-background:new 0 0 165 173;" xml:space="preserve">
<style type="text/css">
	.st0{fill:#FD766D;stroke:#FD766D;stroke-width:0.99;stroke-miterlimit:10;}
	.st1{fill:#FD766D;}
	.st2{fill:none;stroke:#FD766D;stroke-width:2.97;stroke-linecap:round;stroke-linejoin:round;stroke-miterlimit:10;}
	.st3{fill:#D93857;}
	.st4{fill:#F7D619;}
</style>
<g>
	<g>
		<g>
			<path class="st0" d="M28.4,72.2c-0.2-0.3-0.3-0.6-0.1-0.9l9.5-28.5c0.2-0.5,0.5-0.8,1-0.8c0.3,0,0.5,0,0.7,0.2
				c0.2,0.2,0.3,0.4,0.3,0.6c0,0.2,0,0.3,0,0.4l-9.5,28.5c0,0.2-0.1,0.4-0.3,0.6c-0.2,0.1-0.4,0.2-0.6,0.3
				C28.9,72.5,28.6,72.4,28.4,72.2z M39.8,37.3c-0.3-0.3-0.5-0.7-0.5-1.1c0-0.5,0.2-0.9,0.5-1.3c0.3-0.4,0.7-0.6,1.2-0.7
				c0.5-0.1,0.8,0,1.2,0.3c0.3,0.3,0.5,0.6,0.5,1.1s-0.2,0.9-0.5,1.3c-0.3,0.4-0.7,0.6-1.2,0.7C40.5,37.7,40.1,37.6,39.8,37.3z"/>
			<path class="st0" d="M82.4,20.5c-1,0.8-2.3,1.3-3.7,1.5c-2.1,0.3-4.3,0.5-6.8,0.5c-1.2,2.2-2.9,6.5-4.9,12.9l-0.6,2l4.4-0.7
				c0.3,0,0.5,0,0.7,0.2s0.3,0.4,0.3,0.7c0,0.3-0.1,0.5-0.3,0.8c-0.2,0.2-0.4,0.4-0.7,0.4l-5,0.8c-1.8,5.2-3.1,9-4.1,11.2
				c-1,2.3-2.3,4.1-3.8,5.4s-3.6,2.2-6.3,2.7c-1.8,0.3-3.3,0.1-4.6-0.5c-1.3-0.6-2.3-1.5-2.9-2.7c-0.7-1.2-1-2.7-1-4.3
				c0.1-1.9,0.6-3.8,1.6-5.5c1-1.7,2.3-3.2,3.8-4.3c1.6-1.2,3.3-1.9,5.1-2.2c0.3,0,0.5,0,0.7,0.2c0.2,0.2,0.3,0.4,0.3,0.7
				c0,0.3-0.1,0.6-0.3,0.8c-0.2,0.2-0.4,0.4-0.7,0.4c-1.4,0.2-2.8,0.8-4.1,1.8c-1.3,1-2.4,2.2-3.2,3.6c-0.8,1.4-1.2,2.9-1.2,4.3
				c0,2,0.6,3.5,1.7,4.6c1.1,1.1,2.7,1.4,4.7,1.1c2.1-0.3,3.8-1,5-2.1c1.2-1.1,2.2-2.5,3.1-4.3c0.8-1.8,1.9-4.7,3.3-8.7
				c0.1-0.2,0.2-0.5,0.3-0.8c0.1-0.3,0.2-0.6,0.3-1l-2.8,0.4c-0.3,0-0.5,0-0.7-0.2c-0.2-0.2-0.3-0.4-0.3-0.7c0-0.3,0.1-0.6,0.3-0.8
				c0.2-0.2,0.4-0.4,0.7-0.4l3.5-0.6l0.8-2.7c1.9-6.4,3.5-10.6,4.7-12.6c-0.8,0-2.2-0.2-4.4-0.5l-1-0.1c-2.3-0.3-4.1-0.5-5.5-0.6
				c-1.4-0.1-2.9,0-4.4,0.2c-1.1,0.2-2.1,0.6-3.1,1.4c-1,0.8-1.8,1.7-2.4,2.9c-0.6,1.1-0.9,2.2-0.9,3.3c0,1.7,0.5,2.9,1.5,3.6
				c1,0.7,2.4,0.9,4.1,0.6c1.4-0.2,2.9-0.8,4.5-1.7c0.2-0.1,0.4-0.2,0.5-0.2c0.3-0.1,0.6,0,0.7,0.2c0.2,0.2,0.2,0.4,0.2,0.6
				c0,0.4-0.2,0.8-0.6,1c-1.8,1.1-3.6,1.8-5.4,2.1c-2.4,0.4-4.2,0-5.6-1.1c-1.4-1.1-2.1-2.7-2.1-4.9c0-1.5,0.4-3,1.2-4.5
				c0.8-1.5,1.9-2.7,3.2-3.7c1.3-1,2.7-1.6,4.1-1.8c1.6-0.3,3.2-0.3,4.8-0.3c1.6,0.1,3.5,0.3,5.7,0.6c2.7,0.4,4.8,0.6,6.2,0.6
				c1-1.3,2.3-2.3,3.7-3.2c1.4-0.8,3-1.4,4.6-1.7c1.3-0.2,2.4-0.1,3.2,0.3c0.8,0.4,1.3,1.1,1.3,2C84,18.8,83.5,19.7,82.4,20.5z
				 M81.1,17.5c-0.5-0.1-1.1-0.1-1.6,0c-1,0.2-2,0.5-2.9,1c-0.9,0.5-1.8,1.1-2.8,1.9c1.8-0.1,3.5-0.2,5-0.4c0.8-0.1,1.5-0.4,2.2-0.7
				c0.6-0.4,1-0.8,1-1.2C81.9,17.7,81.6,17.6,81.1,17.5z"/>
			<path class="st0" d="M92.5,39c0,0.1,0,0.2-0.1,0.4c-1.6,3.8-3.4,6.7-5.3,8.6c-1.9,2-4.1,3.1-6.6,3.5c-2,0.3-3.6,0-4.8-1.1
				c-1.2-1-1.7-2.6-1.6-4.6c0.1-2.2,0.7-4.6,1.8-7.4c1.1-2.8,2.5-5.2,4.1-7.3c1.7-2.1,3.4-3.3,5.3-3.6c1.2-0.2,2.2,0,3,0.5
				c0.8,0.5,1.2,1.3,1.2,2.5c0,2.4-1.3,4.6-3.8,6.6c-2.6,2-5.5,3.7-8.9,5.1c-0.4,1.3-0.5,2.5-0.5,3.6c0,1.4,0.4,2.4,1.2,3
				c0.8,0.6,1.9,0.8,3.4,0.6c2-0.3,3.7-1.3,5.3-3c1.6-1.7,3-4.2,4.4-7.6c0.1-0.3,0.3-0.5,0.6-0.6s0.5-0.2,0.8-0.1
				C92.3,38.3,92.5,38.6,92.5,39z M84.5,35.6c2-1.5,2.9-3.1,2.9-4.7c0-0.6-0.2-1-0.6-1.1c-0.4-0.2-0.9-0.2-1.5-0.1
				c-1.5,0.2-2.9,1.3-4.3,3.3c-1.4,2-2.5,4.2-3.5,6.8C80.2,38.5,82.5,37.1,84.5,35.6z"/>
			<path class="st0" d="M102.6,37.4c0,0.1,0,0.3-0.1,0.5c-1.6,3.7-3.2,6.5-4.7,8.5c-1.5,2-3.3,3.1-5.4,3.4c-1.1,0.2-2-0.1-2.7-0.7
				c-0.6-0.7-1-1.6-1-2.8c0-0.7,0.1-1.5,0.4-2.6s0.7-2.6,1.3-4.8l2.7-8.3l1.5-4.4l2.5-7.9c0.1-0.3,0.3-0.5,0.5-0.6s0.5-0.2,0.8-0.2
				c0.3,0.1,0.5,0.2,0.6,0.4c0.1,0.2,0.1,0.5,0,0.8l-2.5,7.9c-0.7,2-1.2,3.5-1.5,4.5l-2.7,8.2c-1.1,3.5-1.6,5.7-1.6,6.7
				c0,0.7,0.1,1.1,0.4,1.5c0.3,0.3,0.7,0.4,1.2,0.4c1.6-0.3,3-1.3,4.3-3c1.3-1.8,2.6-4.2,3.9-7.4c0.2-0.4,0.6-0.7,1-0.7
				c0.1,0,0.2,0,0.4,0C102.4,36.7,102.6,37,102.6,37.4z"/>
			<path class="st0" d="M111.5,35.4c0.1,0.2,0.2,0.3,0.2,0.5c0,0.1,0,0.3-0.1,0.5c-1.5,3.5-2.9,6.3-4.2,8.3c-1.3,2-2.9,3.1-4.8,3.4
				c-1.1,0.2-1.9-0.1-2.6-0.7c-0.6-0.6-1-1.5-1-2.6c0-1.6,0.5-4.1,1.6-7.4c1.1-3.3,2.5-7.4,4.2-12.2c0.1-0.2,0.2-0.4,0.4-0.6
				c0.2-0.1,0.4-0.2,0.6-0.3c0.3,0,0.5,0,0.8,0.1c0.2,0.1,0.3,0.3,0.3,0.6l-0.1,0.4l-1.3,3.8c-2,5.9-3.2,9.6-3.7,11.1
				c-0.5,1.6-0.7,2.8-0.7,3.7c0,0.7,0.1,1.2,0.3,1.5c0.2,0.3,0.6,0.4,1.1,0.3c1.3-0.2,2.5-1.2,3.6-2.9c1-1.8,2.2-4.2,3.5-7.3
				c0.2-0.5,0.6-0.7,1-0.8c0.1,0,0.2,0,0.4,0C111.2,35.1,111.4,35.2,111.5,35.4z M106.6,21.3c-0.3-0.3-0.5-0.6-0.5-1.1
				c0-0.5,0.2-0.9,0.5-1.3c0.3-0.4,0.7-0.6,1.2-0.7c0.5-0.1,0.8,0,1.2,0.3c0.3,0.3,0.5,0.6,0.5,1.1c0,0.5-0.2,0.9-0.5,1.3
				c-0.3,0.4-0.7,0.6-1.2,0.7C107.3,21.7,106.9,21.6,106.6,21.3z"/>
			<path class="st0" d="M131.1,32.3c0.1,0.2,0.2,0.3,0.2,0.5c0,0.1,0,0.2-0.1,0.4c-2.5,6.3-6.1,10.9-10.6,13.7
				c-2.7,7.8-6.3,12.1-10.8,12.8c-1.6,0.2-2.8,0-3.8-0.6c-0.9-0.7-1.4-1.8-1.4-3.3c0-1.7,0.6-3.1,1.8-4.3c1.2-1.2,3.1-2.2,5.8-3.1
				c1.5-0.5,2.8-0.9,3.8-1.3c1-0.4,2-0.9,3-1.5c0.5-1.8,0.7-3.3,0.7-4.4c0-1-0.2-1.8-0.5-2.4c-1.2,0.7-2.3,1.2-3.3,1.4
				c-0.8,0.1-1.5,0-2-0.3s-0.8-0.9-0.8-1.6c0-0.8,0.3-1.5,0.8-2c0.5-0.5,1.2-0.8,2-1c0.6-0.1,1.3-0.1,1.9,0c0.6,0.1,1.2,0.4,1.8,0.7
				c1.1-1,1.9-2.2,2.4-3.6c0.5-1.4,0.8-2.9,0.8-4.4c0-1.3-0.3-2.3-0.8-3c-0.6-0.7-1.4-0.9-2.5-0.7c-0.9,0.1-1.9,0.8-2.7,1.9
				s-1.7,2.5-2.4,4c-0.7,1.5-1.6,3.5-2.5,5.9l-0.6,1.6l-0.2,0.5c-0.2,0.5-0.5,0.7-0.9,0.8c-0.3,0-0.5,0-0.8-0.2
				c-0.2-0.2-0.3-0.4-0.3-0.7c0-0.1,0-0.3,0.1-0.5c1.3-3.2,2.4-5.8,3.3-7.8c0.9-1.9,1.9-3.6,3.1-5.1c1.2-1.4,2.5-2.3,4-2.5
				c1.7-0.3,3.1,0.1,4,1.1c0.9,1,1.4,2.5,1.4,4.4c0,1.7-0.3,3.4-1,5.2c-0.6,1.8-1.6,3.3-2.9,4.5c0.6,0.9,0.9,2,0.9,3.4
				c0,0.8-0.1,1.8-0.3,3c3.3-2.6,5.9-6.4,7.8-11.2c0.2-0.5,0.5-0.7,0.9-0.8c0.1,0,0.2,0,0.4,0S131,32.1,131.1,32.3z M112.5,50.4
				c-2.1,0.7-3.6,1.4-4.5,2.2c-0.9,0.8-1.4,1.8-1.4,2.8c0,0.7,0.3,1.3,0.9,1.8c0.6,0.5,1.3,0.6,2.2,0.5c1.6-0.2,3-1.2,4.4-2.7
				c1.3-1.6,2.6-3.8,3.9-6.6C116.7,48.9,114.9,49.6,112.5,50.4z M115.9,37.1c-0.5,0.1-0.8,0.4-0.8,0.8c0,0.3,0.3,0.4,0.8,0.3
				c0.6-0.1,1.2-0.3,1.8-0.7C117,37.2,116.4,37.1,115.9,37.1z"/>
		</g>
		<g>
			<path class="st0" d="M77.9,95c0,0.1,0,0.3-0.1,0.5c-1.6,3.7-3.2,6.5-4.7,8.5s-3.3,3.1-5.4,3.4c-1.1,0.2-2-0.1-2.7-0.7
				c-0.6-0.7-1-1.7-1-3c-2,3.2-4.1,5-6.2,5.3c-1.3,0.2-2.3-0.1-3-1c-0.7-0.9-1-2.1-1-3.7c0-2.2,0.5-4.8,1.5-7.8c1-3,2.4-5.6,4-7.9
				s3.4-3.6,5.3-3.9c2.1-0.3,3.6,0.3,4.4,1.8l0.9-2.7l2.6-7.9c0.1-0.2,0.2-0.4,0.4-0.5c0.2-0.1,0.4-0.2,0.6-0.3
				c0.4-0.1,0.7,0,0.9,0.3c0.2,0.3,0.2,0.6,0.1,0.9l-1.5,4.4c-3.5,10.5-5.2,15.9-5.3,16.1c-1.1,3.5-1.6,5.7-1.6,6.7
				c0,1.4,0.5,2,1.6,1.8c1.6-0.3,3-1.3,4.3-3c1.3-1.8,2.6-4.2,3.9-7.4c0.2-0.4,0.6-0.7,1-0.7l0.4,0C77.7,94.3,77.9,94.6,77.9,95z
				 M61.3,104.4c1.1-1.4,2-3,2.8-4.8c0.8-1.8,1.6-4,2.6-6.5c0.3-0.6,0.5-1.1,0.6-1.6l0.5-1.4c0-0.1,0-0.2,0-0.4
				c-0.1-1.1-0.4-2-0.9-2.5c-0.5-0.5-1.3-0.7-2.2-0.6c-1.4,0.3-2.8,1.4-4.1,3.4c-1.3,2-2.4,4.4-3.3,7c-0.9,2.6-1.3,4.8-1.3,6.5
				c0,1.1,0.1,2,0.4,2.6c0.3,0.6,0.8,0.8,1.5,0.7C59,106.6,60.2,105.8,61.3,104.4z"/>
			<path class="st0" d="M86.8,93c0.1,0.2,0.2,0.3,0.2,0.5c0,0.1,0,0.3-0.1,0.5c-1.5,3.5-2.9,6.3-4.2,8.3c-1.3,2-2.9,3.1-4.8,3.4
				c-1.1,0.2-1.9-0.1-2.6-0.7s-1-1.5-1-2.6c0-1.6,0.5-4.1,1.6-7.4c1.1-3.3,2.5-7.4,4.2-12.2c0.1-0.2,0.2-0.4,0.4-0.6
				c0.2-0.1,0.4-0.2,0.6-0.3c0.3,0,0.5,0,0.8,0.1c0.2,0.1,0.3,0.3,0.3,0.6L82,83.2L80.7,87c-2,5.9-3.2,9.6-3.7,11.1
				c-0.5,1.6-0.7,2.8-0.7,3.7c0,0.7,0.1,1.2,0.3,1.5c0.2,0.3,0.6,0.4,1.1,0.3c1.3-0.2,2.5-1.2,3.6-2.9c1-1.8,2.2-4.2,3.5-7.3
				c0.2-0.5,0.6-0.7,1-0.8c0.1,0,0.2,0,0.4,0C86.5,92.8,86.7,92.9,86.8,93z M87,71.6c0.2-0.2,0.4-0.3,0.5-0.3
				c0.4-0.1,0.7,0.1,0.9,0.4c0.1,0.2,0.1,0.4,0.1,0.6c0,0.4-0.2,0.8-0.5,1l-6.8,5.5C81.2,78.9,81,79,80.8,79
				c-0.3,0.1-0.6-0.1-0.8-0.4c-0.1-0.2-0.1-0.3-0.1-0.5c0-0.4,0.2-0.7,0.5-1L87,71.6z"/>
			<path class="st0" d="M106.7,90.4c0,0.1,0,0.3-0.1,0.5l0,0.2c-0.9,2.2-1.7,4-2.5,5.4c-0.7,1.5-1.7,2.8-2.8,4
				c-1.1,1.2-2.3,1.9-3.7,2.1c-1.1,0.2-2-0.1-2.6-0.7c-0.6-0.7-0.9-1.6-0.9-2.8c-2,3.1-4,4.8-6.1,5.1c-1.3,0.2-2.3-0.1-3-1
				c-0.7-0.9-1-2.1-1-3.7c0-2.2,0.5-4.8,1.5-7.8c1-3,2.4-5.6,4-7.9s3.4-3.6,5.2-3.8c2.1-0.3,3.6,0.3,4.5,1.9l0.8-2.3
				c0.1-0.2,0.2-0.4,0.4-0.5c0.2-0.1,0.4-0.2,0.6-0.3c0.4-0.1,0.7,0,0.9,0.3c0.2,0.3,0.2,0.6,0.1,0.9l-2.5,7L99,88.4
				c-1,2.9-1.7,5.2-2.2,6.7s-0.7,2.7-0.7,3.6c0,0.7,0.1,1.2,0.3,1.5c0.2,0.3,0.6,0.4,1.1,0.3c1.3-0.2,2.5-1.2,3.6-3
				c1.1-1.8,2.2-4.1,3.4-7l0-0.2c0.2-0.5,0.5-0.7,0.9-0.8c0.1,0,0.2,0,0.4,0C106.5,89.7,106.7,90,106.7,90.4z M91.4,99.6
				c1.1-1.4,2-3,2.8-4.8c0.8-1.8,1.6-4,2.6-6.5l1.2-3.3c0-1.1-0.3-1.9-0.9-2.5c-0.6-0.5-1.3-0.7-2.2-0.6c-1.4,0.3-2.8,1.4-4.1,3.4
				c-1.3,2-2.4,4.4-3.3,7c-0.9,2.6-1.3,4.8-1.3,6.5c0,1.1,0.1,2,0.4,2.6c0.3,0.6,0.8,0.8,1.5,0.7C89.1,101.9,90.3,101.1,91.4,99.6z"
				/>
		</g>
		<g>
			<path class="st0" d="M68.1,130.9c-0.5,1.7-1.2,4.2-2.4,7.4l-0.6,1.7c-4.4,12.6-6.6,20-6.6,22c0,1.1,0.3,1.9,1,2.4
				s1.5,0.7,2.5,0.5c0.3,0,0.5,0,0.7,0.2c0.2,0.1,0.3,0.4,0.3,0.6c0,0.3-0.1,0.5-0.3,0.7c-0.2,0.2-0.4,0.4-0.7,0.4
				c-1.7,0.3-3,0-3.9-0.9c-1-0.8-1.4-2.1-1.4-3.6c0-1.4,0.6-4,1.7-7.7c1.2-3.7,2.6-8.1,4.3-13.1c0.1-0.2,0.3-0.8,0.6-1.9l0.6-1.8
				c1-2.9,1.8-5.2,2.2-6.8c0.4-1.6,0.7-3.1,0.7-4.5c0-1.6-0.4-2.7-1.1-3.3c-0.7-0.6-1.8-0.8-3.3-0.6c-1.6,0.3-3.3,1.3-5,3.1
				c-1.7,1.8-3.3,3.9-4.7,6.3c-1.7,5.8-2.9,10-3.8,12.7c-0.8,2.7-2.3,7.4-4.5,14c-0.2,0.5-0.5,0.8-1,0.8c-0.4,0.1-0.7,0-0.9-0.3
				c-0.2-0.3-0.2-0.6-0.1-0.9c3-8.9,5.7-17.4,7.9-25.5c0.5-1.7,0.7-3.2,0.7-4.4c0-1.3-0.3-2.4-0.8-3.1c-0.5-0.8-1.3-1-2.3-0.9
				c-1.8,0.3-3.8,1.8-5.9,4.5c-2.1,2.7-4.5,6.2-7.2,10.5l-3.7,11.9c-0.9,3-1.7,5.3-2.4,6.9c-0.6,1.6-1.3,2.7-2.1,3.5
				c-0.7,0.8-1.6,1.2-2.7,1.4c-0.9,0.1-1.5,0-1.9-0.6c-0.4-0.5-0.7-1.2-0.7-2.1c0-1.3,0.6-3.1,1.8-5.4s2.9-5.1,5.2-8.4
				c0.6-0.9,1.3-2.3,2.4-4c1-1.7,1.8-3,2.3-3.9l3.8-12.3l-0.8,0.7c-1.8,1.6-3.4,3-4.7,4c-1.3,1-2.8,2-4.4,2.9
				c-1.6,0.9-3.2,1.4-4.9,1.7c-2.2,0.3-3.9,0-5.3-1c-1.4-1-2.1-2.6-2.1-4.7c0-0.4,0-0.7,0-0.9c0-0.2,0.1-0.5,0.3-0.7
				c0.2-0.2,0.4-0.3,0.7-0.4c0.3,0,0.5,0,0.7,0.2s0.3,0.4,0.3,0.7c0,1.8,0.5,3.1,1.4,3.9c0.9,0.8,2.2,1,3.9,0.8
				c2-0.3,4.1-1.2,6.2-2.7c2.2-1.5,4.7-3.5,7.5-6.1l2.5-2.1c0.2-0.2,0.4-0.3,0.6-0.3c0.4-0.1,0.7,0,0.9,0.3c0.2,0.3,0.2,0.6,0.1,0.9
				l-2.7,8.9c1.5-2.2,2.9-4,3.9-5.3c1.1-1.3,2.2-2.4,3.4-3.3c1.1-0.8,2.4-1.4,3.7-1.6c1.5-0.2,2.8,0.2,3.7,1.2
				c0.9,1.1,1.4,2.5,1.4,4.2c3.2-4.4,6.2-6.8,9.2-7.2c2.1-0.3,3.7,0,4.7,0.9c1.1,0.9,1.6,2.5,1.6,4.6
				C68.8,127.6,68.6,129.2,68.1,130.9z M30.6,147l-0.3,0.6c-1.3,2.2-2.3,3.7-2.9,4.6c-1.4,2.3-2.4,4-2.9,5c-0.5,1-0.8,2.1-0.8,3.1
				c0,0.5,0.2,0.8,0.5,0.7c0.7-0.1,1.2-0.5,1.7-1.2c0.5-0.7,1-1.7,1.5-3c0.5-1.3,1.2-3.3,1.9-5.9L30.6,147z"/>
			<path class="st0" d="M89.3,142c0,0.1,0,0.3-0.1,0.5c-1.6,3.9-3.1,6.8-4.4,8.6c-1.4,1.8-2.9,2.8-4.5,3.1c-2,0.3-3.2-0.7-3.5-2.9
				c-0.7,1.2-1.6,2.1-2.7,2.9c-1.1,0.8-2.1,1.3-3.2,1.5l0,0c-1.5,0.2-2.7,0-3.5-0.7c-0.8-0.7-1.2-1.9-1.2-3.6c0-1.1,0.3-2.6,0.9-4.4
				c0.6-1.9,2-5.8,4.1-11.8l0.8-2.2c0.1-0.2,0.2-0.4,0.4-0.5c0.2-0.1,0.4-0.2,0.6-0.3c0.4-0.1,0.7,0,0.9,0.3
				c0.2,0.3,0.2,0.6,0.1,0.9l-2.3,6.3c-1.6,4.6-2.6,7.5-3,8.6c-0.3,1.1-0.5,2-0.5,2.8c0,2,0.9,2.9,2.7,2.6c1-0.2,2-0.7,3-1.7
				s1.9-2.4,2.6-4.1c0.7-1.4,1.3-3,2-4.9s1.7-4.7,3-8.5l1.1-3.1c0.1-0.2,0.2-0.4,0.4-0.5c0.2-0.1,0.4-0.2,0.6-0.3
				c0.4-0.1,0.7,0,0.9,0.3c0.2,0.3,0.3,0.6,0.1,0.9c-0.6,1.8-1.2,3.4-1.7,5l-1,2.9c-0.9,2.6-1.6,4.9-2.2,6.9c-0.5,1.9-0.8,3.3-0.8,4
				c0,0.7,0.1,1.2,0.3,1.5c0.2,0.3,0.6,0.4,1.1,0.3c1.1-0.2,2.2-1.1,3.3-2.6c1.1-1.6,2.3-4.1,3.8-7.6c0.1-0.2,0.2-0.4,0.4-0.5
				c0.2-0.1,0.4-0.2,0.6-0.3c0.1,0,0.2,0,0.4,0C89.1,141.3,89.3,141.6,89.3,142z"/>
			<path class="st0" d="M98.7,140.5c0,0.1,0,0.3-0.1,0.5c-1.6,4-3.5,7.3-5.7,9.8c-2.2,2.6-5.1,4.7-8.6,6.2c-1.2,3.6-2.6,6.4-4.1,8.3
				c-1.5,2-3.2,3.1-4.9,3.4c-1.4,0.2-2.6,0-3.5-0.8c-0.9-0.7-1.3-1.8-1.3-3.3c0-3.3,2.8-5.8,8.3-7.7c1.5-0.5,2.8-0.9,3.9-1.4
				c3-9.1,5.1-15.4,6.4-18.9c0.5-1.2,1.3-3.4,2.4-6.8c0.1-0.2,0.2-0.5,0.4-0.6c0.2-0.2,0.4-0.3,0.6-0.3c0.3,0,0.5,0,0.7,0.2
				c0.2,0.2,0.3,0.4,0.3,0.7l-0.1,0.4c-1.2,3.4-2,5.7-2.5,7c-0.8,2.5-2.8,8.2-5.8,17.1c2.7-1.3,4.9-3.2,6.8-5.5
				c1.8-2.4,3.4-5.2,4.7-8.5c0.2-0.5,0.5-0.7,0.9-0.8c0.1,0,0.2,0,0.4,0C98.5,139.8,98.7,140.1,98.7,140.5z M79,164.2
				c1.1-1.5,2.1-3.5,2.9-6.1c-1.4,0.5-2.3,0.8-2.7,1c-2.3,0.7-3.9,1.5-4.9,2.4c-1,0.8-1.6,1.8-1.7,3c0,0.8,0.2,1.4,0.7,1.9
				c0.5,0.4,1.1,0.6,2,0.5C76.6,166.5,77.9,165.6,79,164.2z M93.3,125.9c-0.3-0.3-0.5-0.6-0.5-1.1c0-0.5,0.2-0.9,0.5-1.3
				c0.3-0.4,0.7-0.6,1.2-0.7c0.5-0.1,0.8,0,1.2,0.3c0.3,0.3,0.5,0.6,0.5,1.1c0,0.5-0.2,0.9-0.5,1.3c-0.3,0.4-0.7,0.6-1.2,0.7
				C94,126.3,93.6,126.2,93.3,125.9z"/>
			<path class="st0" d="M114.2,138.1c0,0.1,0,0.2-0.1,0.4c-1.6,3.8-3.4,6.7-5.3,8.6c-1.9,2-4.1,3.1-6.6,3.5c-2,0.3-3.6,0-4.8-1.1
				s-1.7-2.6-1.6-4.6c0.1-2.2,0.7-4.6,1.8-7.4c1.1-2.8,2.5-5.2,4.1-7.3c1.7-2.1,3.4-3.3,5.3-3.6c1.2-0.2,2.2,0,3,0.5
				c0.8,0.5,1.2,1.3,1.2,2.5c0,2.4-1.3,4.5-3.8,6.6c-2.6,2-5.5,3.7-8.9,5.1c-0.4,1.3-0.5,2.5-0.5,3.6c0,1.4,0.4,2.4,1.2,3
				c0.8,0.6,1.9,0.8,3.4,0.6c2-0.3,3.7-1.3,5.3-3c1.6-1.7,3-4.2,4.4-7.6c0.1-0.3,0.3-0.5,0.6-0.6c0.3-0.1,0.5-0.2,0.8-0.1
				C114,137.3,114.2,137.6,114.2,138.1z M106.2,134.7c2-1.5,2.9-3.1,2.9-4.7c0-0.6-0.2-1-0.6-1.1c-0.4-0.2-0.9-0.2-1.5-0.1
				c-1.5,0.2-2.9,1.3-4.3,3.3c-1.4,2-2.5,4.2-3.5,6.8C101.9,137.6,104.2,136.2,106.2,134.7z"/>
			<path class="st0" d="M132.3,135.2c0,0.1,0,0.3-0.1,0.5c-1.6,3.9-3.1,6.8-4.5,8.6c-1.4,1.8-2.9,2.8-4.5,3.1l0,0
				c-1.1,0.2-2-0.1-2.6-0.7c-0.6-0.7-0.9-1.6-0.9-2.8c0-0.9,0.2-2,0.5-3.3c0.2-0.8,0.7-2.4,1.5-4.9s1.3-4.1,1.5-4.7
				c-1.5-0.3-2.6-0.5-3.4-0.6c-0.8-0.2-1.4-0.3-1.9-0.5c-0.1,0.3-0.8,1.9-2,4.7l-2.5,5.9c-0.2,0.4-0.5,0.7-0.9,0.7
				c-0.1,0-0.3,0-0.5,0c-0.4-0.2-0.6-0.4-0.6-0.8c0-0.1,0-0.3,0.1-0.5l3.9-9.1l0.6-1.6c-1.7-0.9-2.5-2.2-2.5-3.7
				c0-1,0.3-1.8,0.9-2.5c0.6-0.7,1.3-1.1,2.1-1.2c0.9-0.1,1.6,0,2.1,0.6c0.5,0.5,0.8,1.3,0.8,2.2c0,0.3,0,0.6-0.1,1
				c-0.1,0.4-0.2,0.7-0.3,1.2c-0.1,0.4-0.2,0.8-0.3,1.1c0.8,0.3,2.2,0.6,4.5,1c0.8,0.1,1.4,0.2,1.9,0.3c0.4,0.1,0.6,0.4,0.6,0.9
				c0,0.2,0,0.3,0,0.4c-0.3,0.9-0.9,2.7-1.8,5.4s-1.4,4.4-1.5,5c-0.2,0.9-0.4,1.8-0.4,2.8c0,1.4,0.5,2,1.5,1.8
				c1.2-0.2,2.3-1.1,3.3-2.6c1-1.6,2.3-4.1,3.7-7.6c0.2-0.5,0.5-0.7,0.9-0.8c0.1,0,0.2,0,0.4,0C132.1,134.5,132.3,134.7,132.3,135.2
				z M117,123.9c-0.1-0.2-0.3-0.2-0.6-0.2c-0.6,0.1-0.9,0.5-0.9,1.1c0,0.4,0.1,0.8,0.3,1.2c0.2,0.4,0.5,0.7,0.9,0.9
				c0.4-1.1,0.5-1.8,0.5-2.1C117.3,124.3,117.2,124,117,123.9z"/>
			<path class="st0" d="M135,143c0.3,0.3,0.5,0.7,0.5,1.1s-0.2,0.9-0.5,1.3c-0.3,0.4-0.7,0.6-1.2,0.7c-0.5,0.1-0.8,0-1.2-0.3
				c-0.3-0.3-0.5-0.6-0.5-1.1s0.2-0.9,0.5-1.3c0.3-0.4,0.7-0.6,1.2-0.7C134.3,142.6,134.7,142.7,135,143z M146.5,108.1
				c0.2,0.3,0.3,0.6,0.1,0.9l-9.5,28.5c-0.2,0.5-0.5,0.8-1,0.8c-0.3,0-0.5,0-0.7-0.2c-0.2-0.2-0.3-0.4-0.3-0.6c0-0.2,0-0.3,0-0.4
				l9.5-28.5c0-0.2,0.1-0.4,0.3-0.6c0.2-0.1,0.4-0.2,0.6-0.3C146,107.8,146.3,107.9,146.5,108.1z"/>
		</g>
	</g>
	<g>
		<g>
			<g>
				<line class="st1" x1="54.7" y1="13.4" x2="129.7" y2="4.2"/>
				<line class="st2" x1="54.7" y1="13.4" x2="129.7" y2="4.2"/>
			</g>
			<g>
				<line class="st1" x1="64.2" y1="70" x2="130.2" y2="61.8"/>
				<line class="st2" x1="64.2" y1="70" x2="130.2" y2="61.8"/>
			</g>
			<g>
				<line class="st1" x1="102" y1="108" x2="133.9" y2="103.5"/>
				<line class="st2" x1="102" y1="108" x2="133.9" y2="103.5"/>
			</g>
			<g>
				<line class="st1" x1="15.9" y1="119.2" x2="62.7" y2="113.4"/>
				<line class="st2" x1="15.9" y1="119.2" x2="62.7" y2="113.4"/>
			</g>
		</g>
	</g>
	<g>
		<path class="st1" d="M150.3,84.1c0.9-2.5,1.8-5.8,0.8-8.1c-1.5-3.6-6.7-0.3-5.2,8.8c-0.9-2.6-2.5-6.3-4.9-7.5
			c-3.2-1.6-4.9,3.2,0.2,8.6c-2.1-1.3-4.8-2.5-6.8-2.1c-3.8,0.7-1.8,6.4,7.3,7.1c-2.7,0.3-6.7,1.1-8.4,3.1c-2.5,3,2.9,6.1,10.3,0.5
			c-1.6,2.2-4.1,6.1-3.5,9c0.7,3.7,6,1.9,7-6.3c0.4,2.6,1.3,5.8,3.2,7.3c2.7,2.1,5.3-1.9,1.9-7.8c1.7,1.7,3.8,3.4,5.8,3.6
			c3.5,0.3,3.5-4.6-3-7.8c2.4,0.5,5.2,0.7,7-0.4c3.3-1.9-0.4-6.5-8.9-4.3c2.3-1.4,5.6-3.8,6.2-6.3C160,77.9,154.6,77.2,150.3,84.1z"
			/>
		<path class="st3" d="M150.4,87.2c1.8,1.5,2,4.2,0.4,6c-1.5,1.8-4.2,2-6,0.4c-1.8-1.5-2-4.2-0.4-6
			C145.9,85.8,148.6,85.6,150.4,87.2z"/>
		<path class="st4" d="M149.8,87.8c1.4,1.2,1.6,3.3,0.3,4.7c-1.2,1.4-3.3,1.6-4.7,0.3c-1.4-1.2-1.6-3.3-0.3-4.7
			C146.3,86.7,148.4,86.6,149.8,87.8z"/>
	</g>
	<g>
		<g>
			<g>
				<g>
					<g>
						<path class="st1" d="M15,27.6C15,27.6,15,27.6,15,27.6c-1.4-0.4-2.9-1.1-4.3-1.9C4,21.7,2,10.4,2,10.4
							c1.3,0.7,2.5,1.2,3.6,1.7c1.7,0.7,3.3,1.3,4.8,1.7c0.3,0.1,0.6,0.2,0.8,0.2c0,0,0,0,0.1,0c2.3,0.6,4.7,1,7.7,1.6
							c8.5,1.7,6.7,9,6.7,9c0,0.1,0,0.1-0.1,0.2c0,0,0,0,0,0c-0.1,0.2-0.2,0.4-0.4,0.6c0,0,0,0,0,0C23.2,28.4,19.2,28.8,15,27.6z"/>
					</g>
				</g>
			</g>
		</g>
		<g>
			<g>
				<g>
					<g>
						<path class="st1" d="M35.8,14.4C35.8,14.4,35.8,14.4,35.8,14.4c-0.5-0.9-1.2-1.7-1.9-2.4c-3.7-3.7-11.2-3.1-11.2-3.1
							c0.7,0.7,1.2,1.4,1.7,2c0.8,1,1.3,1.9,1.9,2.8c0.1,0.2,0.2,0.3,0.3,0.5c0,0,0,0,0,0c0.8,1.4,1.4,2.8,2.3,4.7
							c2.5,5.2,6.9,2.8,6.9,2.8c0,0,0.1,0,0.1-0.1c0,0,0,0,0,0c0.1-0.1,0.2-0.2,0.3-0.3c0,0,0,0,0,0C37.7,19.5,37.3,16.8,35.8,14.4z
							"/>
					</g>
				</g>
			</g>
		</g>
		<g>
			<g>
				<g>
					<g>
						<path class="st1" d="M27.2,38.6C27.2,38.6,27.2,38.6,27.2,38.6c-0.8,0.5-1.8,1-2.8,1.3C19.5,41.5,13,37.6,13,37.6
							c0.9-0.4,1.7-0.7,2.4-1.1c1.1-0.5,2.1-1.1,2.9-1.6c0.2-0.1,0.3-0.2,0.5-0.3c0,0,0,0,0,0c1.3-0.9,2.5-1.9,4.1-3.1
							c4.6-3.5,7.4,0.6,7.4,0.6c0,0,0,0.1,0,0.1c0,0,0,0,0,0c0.1,0.1,0.1,0.3,0.2,0.4c0,0,0,0,0,0C31.2,34.9,29.7,37.1,27.2,38.6z"
							/>
					</g>
				</g>
			</g>
		</g>
	</g>
</g>
</svg>
