<?xml version="1.0" encoding="utf-8"?>
<!-- Generator: Adobe Illustrator 22.0.1, SVG Export Plug-In . SVG Version: 6.00 Build 0)  -->
<svg version="1.1" id="Capa_1" xmlns="http://www.w3.org/2000/svg" xmlns:xlink="http://www.w3.org/1999/xlink" x="0px" y="0px"
	 viewBox="0 0 242.7 238.3" style="enable-background:new 0 0 242.7 238.3;" xml:space="preserve">
<style type="text/css">
	.st0{fill:#B576A3;}
	.st1{fill:#FF7F7F;}
</style>
<g>
	<g>
		<g>
			<path class="st0" d="M13,13.4h1.6v3.6c-0.9,0.8-2.3,1.2-3.6,1.2c-2.8,0-4.9-2-4.9-4.7c0-2.7,2.1-4.7,4.9-4.7
				c1.5,0,2.8,0.5,3.7,1.5l-1.1,1c-0.7-0.7-1.5-1-2.5-1c-1.9,0-3.3,1.3-3.3,3.2c0,1.8,1.4,3.2,3.3,3.2c0.6,0,1.3-0.1,1.9-0.5V13.4z"
				/>
			<path class="st0" d="M20.6,11.1v1.5c-0.1,0-0.3,0-0.4,0c-1.2,0-2,0.7-2,2.1v3.4h-1.6v-6.9h1.5v1C18.6,11.4,19.4,11.1,20.6,11.1z"
				/>
			<path class="st0" d="M27.6,14v4.1h-1.5v-0.8c-0.4,0.6-1.1,0.9-2.2,0.9c-1.6,0-2.6-0.9-2.6-2.1c0-1.2,0.8-2.1,2.9-2.1H26v-0.1
				c0-0.9-0.6-1.5-1.7-1.5c-0.8,0-1.6,0.3-2.1,0.7l-0.6-1.2c0.7-0.6,1.8-0.9,2.9-0.9C26.4,11.1,27.6,12,27.6,14z M26,15.9v-0.8h-1.7
				c-1.1,0-1.4,0.4-1.4,0.9c0,0.6,0.5,1,1.3,1C25,17,25.7,16.6,26,15.9z"/>
			<path class="st0" d="M29,14.6c0-2.1,1.6-3.5,3.8-3.5c1.4,0,2.4,0.6,3,1.6l-1.2,0.7c-0.4-0.7-1-1-1.7-1c-1.2,0-2.1,0.8-2.1,2.2
				c0,1.4,0.9,2.2,2.1,2.2c0.7,0,1.3-0.3,1.7-1l1.2,0.7c-0.5,1-1.6,1.6-3,1.6C30.6,18.2,29,16.7,29,14.6z"/>
			<path class="st0" d="M36.8,9c0-0.5,0.4-1,1-1c0.6,0,1,0.4,1,0.9c0,0.6-0.4,1-1,1C37.3,10,36.8,9.6,36.8,9z M37,11.2h1.6v6.9H37
				V11.2z"/>
			<path class="st0" d="M46.5,14v4.1h-1.5v-0.8c-0.4,0.6-1.1,0.9-2.2,0.9c-1.6,0-2.6-0.9-2.6-2.1c0-1.2,0.8-2.1,2.9-2.1h1.8v-0.1
				c0-0.9-0.6-1.5-1.7-1.5c-0.8,0-1.6,0.3-2.1,0.7l-0.6-1.2c0.7-0.6,1.8-0.9,2.9-0.9C45.3,11.1,46.5,12,46.5,14z M44.9,15.9v-0.8
				h-1.7c-1.1,0-1.4,0.4-1.4,0.9c0,0.6,0.5,1,1.3,1C43.9,17,44.6,16.6,44.9,15.9z"/>
			<path class="st0" d="M47.6,17.4l0.6-1.2c0.6,0.4,1.5,0.7,2.4,0.7c1,0,1.5-0.3,1.5-0.8c0-1.3-4.3-0.1-4.3-2.8
				c0-1.3,1.2-2.2,3.1-2.2c0.9,0,2,0.2,2.6,0.6l-0.6,1.2c-0.7-0.4-1.3-0.5-2-0.5c-1,0-1.5,0.3-1.5,0.8c0,1.4,4.3,0.2,4.3,2.9
				c0,1.3-1.2,2.1-3.1,2.1C49.4,18.2,48.3,17.9,47.6,17.4z"/>
			<path class="st0" d="M69.7,14v4.1h-1.5v-0.8c-0.4,0.6-1.1,0.9-2.2,0.9c-1.6,0-2.6-0.9-2.6-2.1c0-1.2,0.8-2.1,2.9-2.1H68v-0.1
				c0-0.9-0.6-1.5-1.7-1.5c-0.8,0-1.6,0.3-2.1,0.7l-0.6-1.2c0.7-0.6,1.8-0.9,2.9-0.9C68.5,11.1,69.7,12,69.7,14z M68,15.9v-0.8h-1.7
				c-1.1,0-1.4,0.4-1.4,0.9c0,0.6,0.5,1,1.3,1C67.1,17,67.8,16.6,68,15.9z"/>
			<path class="st0" d="M84.6,17.7c-0.4,0.3-1,0.5-1.6,0.5c-1.5,0-2.4-0.8-2.4-2.3v-3.3h-1.1v-1.3h1.1V9.6h1.6v1.6h1.9v1.3h-1.9v3.3
				c0,0.7,0.3,1,1,1c0.3,0,0.7-0.1,0.9-0.3L84.6,17.7z"/>
			<path class="st0" d="M85.6,9c0-0.5,0.4-1,1-1c0.6,0,1,0.4,1,0.9c0,0.6-0.4,1-1,1C86.1,10,85.6,9.6,85.6,9z M85.8,11.2h1.6v6.9
				h-1.6V11.2z"/>
			<path class="st0" d="M105.1,11.2v9.5h-1.6v-3.4c-0.6,0.6-1.3,0.9-2.2,0.9c-2,0-3.5-1.4-3.5-3.6c0-2.1,1.5-3.5,3.5-3.5
				c0.9,0,1.8,0.3,2.3,1v-0.9H105.1z M103.5,14.6c0-1.3-0.9-2.2-2.1-2.2c-1.2,0-2.1,0.8-2.1,2.2c0,1.3,0.9,2.2,2.1,2.2
				C102.6,16.8,103.5,16,103.5,14.6z"/>
			<path class="st0" d="M113.8,11.2v6.9h-1.5v-0.9c-0.5,0.6-1.3,1-2.2,1c-1.8,0-3-1-3-3.1v-4h1.6v3.7c0,1.3,0.6,1.9,1.6,1.9
				c1.1,0,1.9-0.7,1.9-2.1v-3.5H113.8z"/>
			<path class="st0" d="M122.3,15.2h-5.4c0.2,1,1,1.7,2.2,1.7c0.8,0,1.4-0.2,1.9-0.8l0.9,1c-0.6,0.7-1.6,1.1-2.8,1.1
				c-2.3,0-3.8-1.5-3.8-3.6c0-2.1,1.5-3.5,3.6-3.5c2,0,3.5,1.4,3.5,3.6C122.4,14.8,122.3,15,122.3,15.2z M116.9,14.1h3.9
				c-0.1-1-0.9-1.7-2-1.7C117.8,12.4,117,13.1,116.9,14.1z"/>
			<path class="st0" d="M139.1,15.2h-5.4c0.2,1,1,1.7,2.2,1.7c0.8,0,1.4-0.2,1.9-0.8l0.9,1c-0.6,0.7-1.6,1.1-2.8,1.1
				c-2.3,0-3.8-1.5-3.8-3.6c0-2.1,1.5-3.5,3.6-3.5c2,0,3.5,1.4,3.5,3.6C139.2,14.8,139.2,15,139.1,15.2z M133.7,14.1h3.9
				c-0.1-1-0.9-1.7-2-1.7C134.6,12.4,133.8,13.1,133.7,14.1z"/>
			<path class="st0" d="M144.6,11.1v1.5c-0.1,0-0.3,0-0.4,0c-1.2,0-2,0.7-2,2.1v3.4h-1.6v-6.9h1.5v1
				C142.6,11.4,143.5,11.1,144.6,11.1z"/>
			<path class="st0" d="M152.3,15.2h-5.4c0.2,1,1,1.7,2.2,1.7c0.8,0,1.4-0.2,1.9-0.8l0.9,1c-0.6,0.7-1.6,1.1-2.8,1.1
				c-2.3,0-3.8-1.5-3.8-3.6c0-2.1,1.5-3.5,3.6-3.5c2,0,3.5,1.4,3.5,3.6C152.3,14.8,152.3,15,152.3,15.2z M146.8,14.1h3.9
				c-0.1-1-0.9-1.7-2-1.7C147.8,12.4,147,13.1,146.8,14.1z"/>
			<path class="st0" d="M153,17.4l0.6-1.2c0.6,0.4,1.5,0.7,2.4,0.7c1,0,1.5-0.3,1.5-0.8c0-1.3-4.3-0.1-4.3-2.8
				c0-1.3,1.2-2.2,3.1-2.2c0.9,0,2,0.2,2.6,0.6l-0.6,1.2c-0.7-0.4-1.3-0.5-2-0.5c-1,0-1.5,0.3-1.5,0.8c0,1.4,4.3,0.2,4.3,2.9
				c0,1.3-1.2,2.1-3.1,2.1C154.7,18.2,153.6,17.9,153,17.4z"/>
			<path class="st0" d="M171,10.8v0.4h1.9v1.3H171v5.6h-1.6v-5.6h-1.1v-1.3h1.1v-0.4c0-1.5,0.9-2.4,2.5-2.4c0.6,0,1.1,0.1,1.5,0.4
				l-0.5,1.2c-0.2-0.2-0.6-0.3-0.9-0.3C171.3,9.7,171,10.1,171,10.8z"/>
			<path class="st0" d="M180.6,11.2v6.9H179v-0.9c-0.5,0.6-1.3,1-2.2,1c-1.8,0-3-1-3-3.1v-4h1.6v3.7c0,1.3,0.6,1.9,1.6,1.9
				c1.1,0,1.9-0.7,1.9-2.1v-3.5H180.6z"/>
			<path class="st0" d="M189.1,15.2h-5.4c0.2,1,1,1.7,2.2,1.7c0.8,0,1.4-0.2,1.9-0.8l0.9,1c-0.6,0.7-1.6,1.1-2.8,1.1
				c-2.3,0-3.8-1.5-3.8-3.6c0-2.1,1.5-3.5,3.6-3.5c2,0,3.5,1.4,3.5,3.6C189.1,14.8,189.1,15,189.1,15.2z M183.6,14.1h3.9
				c-0.1-1-0.9-1.7-2-1.7C184.5,12.4,183.8,13.1,183.6,14.1z"/>
			<path class="st0" d="M197.4,14.1v4h-1.6v-3.8c0-1.2-0.6-1.8-1.7-1.8c-1.2,0-1.9,0.7-1.9,2.1v3.5h-1.6v-6.9h1.5v0.9
				c0.5-0.6,1.4-1,2.4-1C196.1,11.1,197.4,12,197.4,14.1z"/>
			<path class="st0" d="M203.5,17.7c-0.4,0.3-1,0.5-1.6,0.5c-1.5,0-2.4-0.8-2.4-2.3v-3.3h-1.1v-1.3h1.1V9.6h1.6v1.6h1.9v1.3h-1.9
				v3.3c0,0.7,0.3,1,1,1c0.3,0,0.7-0.1,0.9-0.3L203.5,17.7z"/>
			<path class="st0" d="M210.9,15.2h-5.4c0.2,1,1,1.7,2.2,1.7c0.8,0,1.4-0.2,1.9-0.8l0.9,1c-0.6,0.7-1.6,1.1-2.8,1.1
				c-2.3,0-3.8-1.5-3.8-3.6c0-2.1,1.5-3.5,3.6-3.5c2,0,3.5,1.4,3.5,3.6C211,14.8,211,15,210.9,15.2z M205.5,14.1h3.9
				c-0.1-1-0.9-1.7-2-1.7C206.4,12.4,205.6,13.1,205.5,14.1z"/>
			<path class="st0" d="M228,8.5v9.6h-1.6v-0.9c-0.5,0.7-1.4,1-2.3,1c-2,0-3.5-1.4-3.5-3.6c0-2.2,1.5-3.5,3.5-3.5
				c0.9,0,1.7,0.3,2.2,0.9V8.5H228z M226.5,14.6c0-1.3-0.9-2.2-2.1-2.2s-2.1,0.8-2.1,2.2c0,1.3,0.9,2.2,2.1,2.2S226.5,16,226.5,14.6
				z"/>
			<path class="st0" d="M236.6,15.2h-5.4c0.2,1,1,1.7,2.2,1.7c0.8,0,1.4-0.2,1.9-0.8l0.9,1c-0.6,0.7-1.6,1.1-2.8,1.1
				c-2.3,0-3.8-1.5-3.8-3.6c0-2.1,1.5-3.5,3.6-3.5c2,0,3.5,1.4,3.5,3.6C236.6,14.8,236.6,15,236.6,15.2z M231.1,14.1h3.9
				c-0.1-1-0.9-1.7-2-1.7C232,12.4,231.2,13.1,231.1,14.1z"/>
			<path class="st0" d="M12.5,32.7v4.1h-1.5v-0.8c-0.4,0.6-1.1,0.9-2.2,0.9c-1.6,0-2.6-0.9-2.6-2.1c0-1.2,0.8-2.1,2.9-2.1h1.8v-0.1
				c0-0.9-0.6-1.5-1.7-1.5c-0.8,0-1.6,0.3-2.1,0.7l-0.6-1.2c0.7-0.6,1.8-0.9,2.9-0.9C11.3,29.8,12.5,30.7,12.5,32.7z M10.8,34.6
				v-0.8H9.2c-1.1,0-1.4,0.4-1.4,0.9c0,0.6,0.5,1,1.3,1C9.9,35.7,10.6,35.3,10.8,34.6z"/>
			<path class="st0" d="M14.4,27.1H16v9.6h-1.6V27.1z"/>
			<path class="st0" d="M24.6,33.8h-5.4c0.2,1,1,1.7,2.2,1.7c0.8,0,1.4-0.2,1.9-0.8l0.9,1c-0.6,0.7-1.6,1.1-2.8,1.1
				c-2.3,0-3.8-1.5-3.8-3.6c0-2.1,1.5-3.5,3.6-3.5c2,0,3.5,1.4,3.5,3.6C24.6,33.5,24.6,33.7,24.6,33.8z M19.1,32.8H23
				c-0.1-1-0.9-1.7-2-1.7C20,31.1,19.2,31.7,19.1,32.8z"/>
			<path class="st0" d="M32.9,29.8v5.9c0,2.5-1.3,3.7-3.7,3.7c-1.3,0-2.6-0.3-3.4-1l0.7-1.2c0.6,0.5,1.6,0.8,2.6,0.8
				c1.5,0,2.2-0.7,2.2-2.1v-0.4c-0.6,0.6-1.4,0.9-2.3,0.9c-2,0-3.5-1.4-3.5-3.4c0-2,1.5-3.3,3.5-3.3c1,0,1.8,0.3,2.4,1v-0.9H32.9z
				 M31.3,33.1c0-1.2-0.9-2-2.1-2c-1.2,0-2.1,0.8-2.1,2c0,1.2,0.9,2,2.1,2C30.4,35.1,31.3,34.3,31.3,33.1z"/>
			<path class="st0" d="M38.9,29.8v1.5c-0.1,0-0.3,0-0.4,0c-1.2,0-2,0.7-2,2.1v3.4h-1.6v-6.9h1.5v1C36.9,30.1,37.8,29.8,38.9,29.8z"
				/>
			<path class="st0" d="M41.6,27.1h1.9l-2.3,1.8h-1.4L41.6,27.1z M40.2,29.8h1.6v6.9h-1.6V29.8z"/>
			<path class="st0" d="M49.6,32.7v4.1h-1.5v-0.8c-0.4,0.6-1.1,0.9-2.2,0.9c-1.6,0-2.6-0.9-2.6-2.1c0-1.2,0.8-2.1,2.9-2.1H48v-0.1
				c0-0.9-0.6-1.5-1.7-1.5c-0.8,0-1.6,0.3-2.1,0.7l-0.6-1.2c0.7-0.6,1.8-0.9,2.9-0.9C48.4,29.8,49.6,30.7,49.6,32.7z M48,34.6v-0.8
				h-1.7c-1.1,0-1.4,0.4-1.4,0.9c0,0.6,0.5,1,1.3,1C47,35.7,47.7,35.3,48,34.6z"/>
			<path class="st0" d="M53.1,35.8c0,0.3-0.1,0.5-0.3,1.1l-0.7,1.8h-1.1l0.5-2c-0.4-0.2-0.6-0.5-0.6-1c0-0.6,0.5-1.1,1.1-1.1
				C52.7,34.7,53.1,35.2,53.1,35.8z"/>
			<path class="st0" d="M68.7,29.8v9.5H67v-3.4c-0.6,0.6-1.3,0.9-2.2,0.9c-2,0-3.5-1.4-3.5-3.6c0-2.1,1.5-3.5,3.5-3.5
				c0.9,0,1.8,0.3,2.3,1v-0.9H68.7z M67.1,33.3c0-1.3-0.9-2.2-2.1-2.2c-1.2,0-2.1,0.8-2.1,2.2c0,1.3,0.9,2.2,2.1,2.2
				C66.2,35.5,67.1,34.6,67.1,33.3z"/>
			<path class="st0" d="M77.4,29.8v6.9h-1.5v-0.9c-0.5,0.6-1.3,1-2.2,1c-1.8,0-3-1-3-3.1v-4h1.6v3.7c0,1.3,0.6,1.9,1.6,1.9
				c1.1,0,1.9-0.7,1.9-2.1v-3.5H77.4z"/>
			<path class="st0" d="M85.9,33.8h-5.4c0.2,1,1,1.7,2.2,1.7c0.8,0,1.4-0.2,1.9-0.8l0.9,1c-0.6,0.7-1.6,1.1-2.8,1.1
				c-2.3,0-3.8-1.5-3.8-3.6c0-2.1,1.5-3.5,3.6-3.5c2,0,3.5,1.4,3.5,3.6C85.9,33.5,85.9,33.7,85.9,33.8z M80.4,32.8h3.9
				c-0.1-1-0.9-1.7-2-1.7C81.3,31.1,80.6,31.7,80.4,32.8z"/>
			<path class="st0" d="M94.4,27.7c0-0.5,0.4-1,1-1c0.6,0,1,0.4,1,0.9c0,0.6-0.4,1-1,1C94.8,28.7,94.4,28.3,94.4,27.7z M94.6,29.8
				h1.6v6.9h-1.6V29.8z"/>
			<path class="st0" d="M105.1,32.8v4h-1.6V33c0-1.2-0.6-1.8-1.7-1.8c-1.2,0-1.9,0.7-1.9,2.1v3.5h-1.6v-6.9h1.5v0.9
				c0.5-0.6,1.4-1,2.4-1C103.8,29.8,105.1,30.7,105.1,32.8z"/>
			<path class="st0" d="M106.2,36.1l0.6-1.2c0.6,0.4,1.5,0.7,2.4,0.7c1,0,1.5-0.3,1.5-0.8c0-1.3-4.3-0.1-4.3-2.8
				c0-1.3,1.2-2.2,3.1-2.2c0.9,0,2,0.2,2.6,0.6l-0.6,1.2c-0.7-0.4-1.3-0.5-2-0.5c-1,0-1.5,0.3-1.5,0.8c0,1.4,4.3,0.2,4.3,2.9
				c0,1.3-1.2,2.1-3.1,2.1C108,36.9,106.9,36.5,106.2,36.1z"/>
			<path class="st0" d="M121,33.3c0,2.2-1.5,3.6-3.5,3.6c-0.9,0-1.7-0.3-2.2-0.9v3.4h-1.6v-9.5h1.5v0.9c0.5-0.7,1.4-1,2.3-1
				C119.5,29.8,121,31.2,121,33.3z M119.3,33.3c0-1.3-0.9-2.2-2.1-2.2s-2.1,0.8-2.1,2.2c0,1.3,0.9,2.2,2.1,2.2
				S119.3,34.6,119.3,33.3z"/>
			<path class="st0" d="M122.2,27.7c0-0.5,0.4-1,1-1c0.6,0,1,0.4,1,0.9c0,0.6-0.4,1-1,1C122.6,28.7,122.2,28.3,122.2,27.7z
				 M122.4,29.8h1.6v6.9h-1.6V29.8z"/>
			<path class="st0" d="M130,29.8v1.5c-0.1,0-0.3,0-0.4,0c-1.2,0-2,0.7-2,2.1v3.4H126v-6.9h1.5v1C128,30.1,128.9,29.8,130,29.8z"/>
			<path class="st0" d="M137,32.7v4.1h-1.5v-0.8c-0.4,0.6-1.1,0.9-2.2,0.9c-1.6,0-2.6-0.9-2.6-2.1c0-1.2,0.8-2.1,2.9-2.1h1.8v-0.1
				c0-0.9-0.6-1.5-1.7-1.5c-0.8,0-1.6,0.3-2.1,0.7l-0.6-1.2c0.7-0.6,1.8-0.9,2.9-0.9C135.9,29.8,137,30.7,137,32.7z M135.4,34.6
				v-0.8h-1.7c-1.1,0-1.4,0.4-1.4,0.9c0,0.6,0.5,1,1.3,1C134.4,35.7,135.1,35.3,135.4,34.6z"/>
			<path class="st0" d="M138.2,36.1l0.6-1.2c0.6,0.4,1.5,0.7,2.4,0.7c1,0,1.5-0.3,1.5-0.8c0-1.3-4.3-0.1-4.3-2.8
				c0-1.3,1.2-2.2,3.1-2.2c0.9,0,2,0.2,2.6,0.6l-0.6,1.2c-0.7-0.4-1.3-0.5-2-0.5c-1,0-1.5,0.3-1.5,0.8c0,1.4,4.3,0.2,4.3,2.9
				c0,1.3-1.2,2.1-3.1,2.1C140,36.9,138.8,36.5,138.2,36.1z"/>
			<path class="st0" d="M147.1,35.8c0,0.3-0.1,0.5-0.3,1.1l-0.7,1.8h-1.1l0.5-2c-0.4-0.2-0.6-0.5-0.6-1c0-0.6,0.5-1.1,1.1-1.1
				C146.7,34.7,147.1,35.2,147.1,35.8z"/>
			<path class="st0" d="M162.7,29.8v9.5H161v-3.4c-0.6,0.6-1.3,0.9-2.2,0.9c-2,0-3.5-1.4-3.5-3.6c0-2.1,1.5-3.5,3.5-3.5
				c0.9,0,1.8,0.3,2.3,1v-0.9H162.7z M161.1,33.3c0-1.3-0.9-2.2-2.1-2.2c-1.2,0-2.1,0.8-2.1,2.2c0,1.3,0.9,2.2,2.1,2.2
				C160.2,35.5,161.1,34.6,161.1,33.3z"/>
			<path class="st0" d="M171.4,29.8v6.9h-1.5v-0.9c-0.5,0.6-1.3,1-2.2,1c-1.8,0-3-1-3-3.1v-4h1.6v3.7c0,1.3,0.6,1.9,1.6,1.9
				c1.1,0,1.9-0.7,1.9-2.1v-3.5H171.4z"/>
			<path class="st0" d="M179.9,33.8h-5.4c0.2,1,1,1.7,2.2,1.7c0.8,0,1.4-0.2,1.9-0.8l0.9,1c-0.6,0.7-1.6,1.1-2.8,1.1
				c-2.3,0-3.8-1.5-3.8-3.6c0-2.1,1.5-3.5,3.6-3.5c2,0,3.5,1.4,3.5,3.6C179.9,33.5,179.9,33.7,179.9,33.8z M174.4,32.8h3.9
				c-0.1-1-0.9-1.7-2-1.7C175.3,31.1,174.6,31.7,174.4,32.8z"/>
			<path class="st0" d="M187.8,36.1l0.6-1.2c0.6,0.4,1.5,0.7,2.4,0.7c1,0,1.5-0.3,1.5-0.8c0-1.3-4.3-0.1-4.3-2.8
				c0-1.3,1.2-2.2,3.1-2.2c0.9,0,2,0.2,2.6,0.6l-0.6,1.2c-0.7-0.4-1.3-0.5-2-0.5c-1,0-1.5,0.3-1.5,0.8c0,1.4,4.3,0.2,4.3,2.9
				c0,1.3-1.2,2.1-3.1,2.1C189.6,36.9,188.5,36.5,187.8,36.1z"/>
			<path class="st0" d="M201.9,29.8v6.9h-1.5v-0.9c-0.5,0.6-1.3,1-2.2,1c-1.8,0-3-1-3-3.1v-4h1.6v3.7c0,1.3,0.6,1.9,1.6,1.9
				c1.1,0,1.9-0.7,1.9-2.1v-3.5H201.9z"/>
			<path class="st0" d="M210.4,33.8H205c0.2,1,1,1.7,2.2,1.7c0.8,0,1.4-0.2,1.9-0.8l0.9,1c-0.6,0.7-1.6,1.1-2.8,1.1
				c-2.3,0-3.8-1.5-3.8-3.6c0-2.1,1.5-3.5,3.6-3.5c2,0,3.5,1.4,3.5,3.6C210.4,33.5,210.4,33.7,210.4,33.8z M204.9,32.8h3.9
				c-0.1-1-0.9-1.7-2-1.7C205.9,31.1,205.1,31.7,204.9,32.8z"/>
			<path class="st0" d="M218.7,32.8v4h-1.6V33c0-1.2-0.6-1.8-1.7-1.8c-1.2,0-1.9,0.7-1.9,2.1v3.5h-1.6v-6.9h1.5v0.9
				c0.5-0.6,1.4-1,2.4-1C217.5,29.8,218.7,30.7,218.7,32.8z M213.8,28.8h-0.9c0-1.1,0.6-1.7,1.4-1.7c0.9,0,1.3,0.9,1.8,0.9
				c0.4,0,0.6-0.3,0.6-0.7h0.9c0,1-0.6,1.7-1.4,1.7c-0.9,0-1.3-0.9-1.8-0.9C214.1,28,213.8,28.3,213.8,28.8z"/>
			<path class="st0" d="M226.4,32.7v4.1h-1.5v-0.8c-0.4,0.6-1.1,0.9-2.2,0.9c-1.6,0-2.6-0.9-2.6-2.1c0-1.2,0.8-2.1,2.9-2.1h1.8v-0.1
				c0-0.9-0.6-1.5-1.7-1.5c-0.8,0-1.6,0.3-2.1,0.7l-0.6-1.2c0.7-0.6,1.8-0.9,2.9-0.9C225.3,29.8,226.4,30.7,226.4,32.7z M224.8,34.6
				v-0.8h-1.7c-1.1,0-1.4,0.4-1.4,0.9c0,0.6,0.5,1,1.3,1C223.9,35.7,224.6,35.3,224.8,34.6z"/>
			<path class="st0" d="M227.6,36.1l0.6-1.2c0.6,0.4,1.5,0.7,2.4,0.7c1,0,1.5-0.3,1.5-0.8c0-1.3-4.3-0.1-4.3-2.8
				c0-1.3,1.2-2.2,3.1-2.2c0.9,0,2,0.2,2.6,0.6l-0.6,1.2c-0.7-0.4-1.3-0.5-2-0.5c-1,0-1.5,0.3-1.5,0.8c0,1.4,4.3,0.2,4.3,2.9
				c0,1.3-1.2,2.1-3.1,2.1C229.4,36.9,228.2,36.5,227.6,36.1z"/>
			<path class="st0" d="M236.6,35.8c0,0.3-0.1,0.5-0.3,1.1l-0.7,1.8h-1.1l0.5-2c-0.4-0.2-0.6-0.5-0.6-1c0-0.6,0.5-1.1,1.1-1.1
				C236.1,34.7,236.6,35.2,236.6,35.8z"/>
			<path class="st0" d="M13.4,48.5V58h-1.6v-3.4c-0.6,0.6-1.3,0.9-2.2,0.9c-2,0-3.5-1.4-3.5-3.6c0-2.1,1.5-3.5,3.5-3.5
				c0.9,0,1.8,0.3,2.3,1v-0.9H13.4z M11.8,52c0-1.3-0.9-2.2-2.1-2.2c-1.2,0-2.1,0.8-2.1,2.2c0,1.3,0.9,2.2,2.1,2.2
				C11,54.2,11.8,53.3,11.8,52z"/>
			<path class="st0" d="M22.2,48.5v6.9h-1.5v-0.9c-0.5,0.6-1.3,1-2.2,1c-1.8,0-3-1-3-3.1v-4H17v3.7c0,1.3,0.6,1.9,1.6,1.9
				c1.1,0,1.9-0.7,1.9-2.1v-3.5H22.2z"/>
			<path class="st0" d="M30.7,52.5h-5.4c0.2,1,1,1.7,2.2,1.7c0.8,0,1.4-0.2,1.9-0.8l0.9,1c-0.6,0.7-1.6,1.1-2.8,1.1
				c-2.3,0-3.8-1.5-3.8-3.6c0-2.1,1.5-3.5,3.6-3.5c2,0,3.5,1.4,3.5,3.6C30.7,52.2,30.7,52.4,30.7,52.5z M25.2,51.4h3.9
				c-0.1-1-0.9-1.7-2-1.7C26.1,49.7,25.4,50.4,25.2,51.4z"/>
			<path class="st0" d="M36.3,45.8h1.6v9.6h-1.6V45.8z"/>
			<path class="st0" d="M46.7,48.5v6.9h-1.5v-0.9c-0.5,0.6-1.3,1-2.2,1c-1.8,0-3-1-3-3.1v-4h1.6v3.7c0,1.3,0.6,1.9,1.6,1.9
				c1.1,0,1.9-0.7,1.9-2.1v-3.5H46.7z"/>
			<path class="st0" d="M48.1,52c0-2.1,1.6-3.5,3.8-3.5c1.4,0,2.4,0.6,3,1.6l-1.2,0.7c-0.4-0.7-1-1-1.7-1c-1.2,0-2.1,0.8-2.1,2.2
				c0,1.4,0.9,2.2,2.1,2.2c0.7,0,1.3-0.3,1.7-1l1.2,0.7c-0.5,1-1.6,1.6-3,1.6C49.6,55.6,48.1,54.1,48.1,52z"/>
			<path class="st0" d="M62.8,51.5v4h-1.6v-3.8c0-1.2-0.6-1.8-1.7-1.8c-1.2,0-1.9,0.7-1.9,2.1v3.5H56v-9.6h1.6v3.5
				c0.5-0.6,1.4-0.9,2.3-0.9C61.6,48.4,62.8,49.4,62.8,51.5z"/>
			<path class="st0" d="M70.6,51.4v4.1h-1.5v-0.8c-0.4,0.6-1.1,0.9-2.2,0.9c-1.6,0-2.6-0.9-2.6-2.1c0-1.2,0.8-2.1,2.9-2.1H69v-0.1
				c0-0.9-0.6-1.5-1.7-1.5c-0.8,0-1.6,0.3-2.1,0.7l-0.6-1.2c0.7-0.6,1.8-0.9,2.9-0.9C69.4,48.4,70.6,49.4,70.6,51.4z M69,53.3v-0.8
				h-1.7c-1.1,0-1.4,0.4-1.4,0.9c0,0.6,0.5,1,1.3,1C68,54.4,68.7,54,69,53.3z"/>
			<path class="st0" d="M71.8,54.8l0.6-1.2c0.6,0.4,1.5,0.7,2.4,0.7c1,0,1.5-0.3,1.5-0.8c0-1.3-4.3-0.1-4.3-2.8
				c0-1.3,1.2-2.2,3.1-2.2c0.9,0,2,0.2,2.6,0.6L77,50.3c-0.7-0.4-1.3-0.5-2-0.5c-1,0-1.5,0.3-1.5,0.8c0,1.4,4.3,0.2,4.3,2.9
				c0,1.3-1.2,2.1-3.1,2.1C73.5,55.6,72.4,55.2,71.8,54.8z"/>
			<path class="st0" d="M89.8,48.5L86.5,56c-0.6,1.6-1.5,2.1-2.7,2.1c-0.7,0-1.4-0.2-1.9-0.6l0.6-1.2c0.3,0.3,0.8,0.5,1.2,0.5
				c0.6,0,0.9-0.3,1.2-1l0.1-0.3l-3-7h1.7l2.2,5.1l2.2-5.1H89.8z"/>
			<path class="st0" d="M101.6,48.5V58H100v-3.4c-0.6,0.6-1.3,0.9-2.2,0.9c-2,0-3.5-1.4-3.5-3.6c0-2.1,1.5-3.5,3.5-3.5
				c0.9,0,1.8,0.3,2.3,1v-0.9H101.6z M100,52c0-1.3-0.9-2.2-2.1-2.2c-1.2,0-2.1,0.8-2.1,2.2c0,1.3,0.9,2.2,2.1,2.2
				C99.1,54.2,100,53.3,100,52z"/>
			<path class="st0" d="M110.4,48.5v6.9h-1.5v-0.9c-0.5,0.6-1.3,1-2.2,1c-1.8,0-3-1-3-3.1v-4h1.6v3.7c0,1.3,0.6,1.9,1.6,1.9
				c1.1,0,1.9-0.7,1.9-2.1v-3.5H110.4z"/>
			<path class="st0" d="M118.9,52.5h-5.4c0.2,1,1,1.7,2.2,1.7c0.8,0,1.4-0.2,1.9-0.8l0.9,1c-0.6,0.7-1.6,1.1-2.8,1.1
				c-2.3,0-3.8-1.5-3.8-3.6c0-2.1,1.5-3.5,3.6-3.5c2,0,3.5,1.4,3.5,3.6C118.9,52.2,118.9,52.4,118.9,52.5z M113.4,51.4h3.9
				c-0.1-1-0.9-1.7-2-1.7C114.3,49.7,113.6,50.4,113.4,51.4z"/>
			<path class="st0" d="M128.7,55.1c-0.4,0.3-1,0.5-1.6,0.5c-1.5,0-2.4-0.8-2.4-2.3v-3.3h-1.1v-1.3h1.1V47h1.6v1.6h1.9v1.3h-1.9v3.3
				c0,0.7,0.3,1,1,1c0.3,0,0.7-0.1,0.9-0.3L128.7,55.1z"/>
			<path class="st0" d="M133.9,48.4V50c-0.1,0-0.3,0-0.4,0c-1.2,0-2,0.7-2,2.1v3.4h-1.6v-6.9h1.5v1
				C131.9,48.8,132.7,48.4,133.9,48.4z"/>
			<path class="st0" d="M140.9,51.4v4.1h-1.5v-0.8c-0.4,0.6-1.1,0.9-2.2,0.9c-1.6,0-2.6-0.9-2.6-2.1c0-1.2,0.8-2.1,2.9-2.1h1.8v-0.1
				c0-0.9-0.6-1.5-1.7-1.5c-0.8,0-1.6,0.3-2.1,0.7l-0.6-1.2c0.7-0.6,1.8-0.9,2.9-0.9C139.7,48.4,140.9,49.4,140.9,51.4z M139.3,53.3
				v-0.8h-1.7c-1.1,0-1.4,0.4-1.4,0.9c0,0.6,0.5,1,1.3,1C138.3,54.4,139,54,139.3,53.3z"/>
			<path class="st0" d="M150.2,52c0,2.2-1.5,3.6-3.5,3.6c-0.9,0-1.8-0.3-2.3-1v0.9h-1.5v-9.6h1.6v3.5c0.6-0.6,1.3-0.9,2.2-0.9
				C148.7,48.4,150.2,49.8,150.2,52z M148.6,52c0-1.3-0.9-2.2-2.1-2.2s-2.1,0.8-2.1,2.2c0,1.3,0.9,2.2,2.1,2.2S148.6,53.3,148.6,52z
				"/>
			<path class="st0" d="M157.4,51.4v4.1h-1.5v-0.8c-0.4,0.6-1.1,0.9-2.2,0.9c-1.6,0-2.6-0.9-2.6-2.1c0-1.2,0.8-2.1,2.9-2.1h1.8v-0.1
				c0-0.9-0.6-1.5-1.7-1.5c-0.8,0-1.6,0.3-2.1,0.7l-0.6-1.2c0.7-0.6,1.8-0.9,2.9-0.9C156.2,48.4,157.4,49.4,157.4,51.4z M155.7,53.3
				v-0.8h-1.7c-1.1,0-1.4,0.4-1.4,0.9c0,0.6,0.5,1,1.3,1C154.8,54.4,155.5,54,155.7,53.3z"/>
			<path class="st0" d="M157,57.7l0.5-1.2c0.2,0.2,0.6,0.3,0.9,0.3c0.6,0,0.9-0.4,0.9-1.1v-7.1h1.6v7.1c0,1.5-0.9,2.5-2.4,2.5
				C158,58.1,157.4,58,157,57.7z M159.2,46.4c0-0.5,0.4-1,1-1s1,0.4,1,0.9c0,0.6-0.4,1-1,1C159.6,47.4,159.2,46.9,159.2,46.4z"/>
			<path class="st0" d="M168.8,51.4v4.1h-1.5v-0.8c-0.4,0.6-1.1,0.9-2.2,0.9c-1.6,0-2.6-0.9-2.6-2.1c0-1.2,0.8-2.1,2.9-2.1h1.8v-0.1
				c0-0.9-0.6-1.5-1.7-1.5c-0.8,0-1.6,0.3-2.1,0.7l-0.6-1.2c0.7-0.6,1.8-0.9,2.9-0.9C167.7,48.4,168.8,49.4,168.8,51.4z M167.2,53.3
				v-0.8h-1.7c-1.1,0-1.4,0.4-1.4,0.9c0,0.6,0.5,1,1.3,1C166.2,54.4,166.9,54,167.2,53.3z"/>
			<path class="st0" d="M170,54.8l0.6-1.2c0.6,0.4,1.5,0.7,2.4,0.7c1,0,1.5-0.3,1.5-0.8c0-1.3-4.3-0.1-4.3-2.8
				c0-1.3,1.2-2.2,3.1-2.2c0.9,0,2,0.2,2.6,0.6l-0.6,1.2c-0.7-0.4-1.3-0.5-2-0.5c-1,0-1.5,0.3-1.5,0.8c0,1.4,4.3,0.2,4.3,2.9
				c0,1.3-1.2,2.1-3.1,2.1C171.8,55.6,170.6,55.2,170,54.8z"/>
			<path class="st0" d="M188.3,45.8v9.6h-1.6v-0.9c-0.5,0.7-1.4,1-2.3,1c-2,0-3.5-1.4-3.5-3.6c0-2.2,1.5-3.5,3.5-3.5
				c0.9,0,1.7,0.3,2.2,0.9v-3.6H188.3z M186.7,52c0-1.3-0.9-2.2-2.1-2.2s-2.1,0.8-2.1,2.2c0,1.3,0.9,2.2,2.1,2.2
				S186.7,53.3,186.7,52z"/>
			<path class="st0" d="M191.8,45.8h1.9l-2.3,1.8H190L191.8,45.8z M190.3,48.5h1.6v6.9h-1.6V48.5z"/>
			<path class="st0" d="M199.8,51.4v4.1h-1.5v-0.8c-0.4,0.6-1.1,0.9-2.2,0.9c-1.6,0-2.6-0.9-2.6-2.1c0-1.2,0.8-2.1,2.9-2.1h1.8v-0.1
				c0-0.9-0.6-1.5-1.7-1.5c-0.8,0-1.6,0.3-2.1,0.7l-0.6-1.2c0.7-0.6,1.8-0.9,2.9-0.9C198.6,48.4,199.8,49.4,199.8,51.4z M198.1,53.3
				v-0.8h-1.7c-1.1,0-1.4,0.4-1.4,0.9c0,0.6,0.5,1,1.3,1C197.2,54.4,197.9,54,198.1,53.3z"/>
			<path class="st0" d="M211.7,51.4v4.1h-1.5v-0.8c-0.4,0.6-1.1,0.9-2.2,0.9c-1.6,0-2.6-0.9-2.6-2.1c0-1.2,0.8-2.1,2.9-2.1h1.8v-0.1
				c0-0.9-0.6-1.5-1.7-1.5c-0.8,0-1.6,0.3-2.1,0.7l-0.6-1.2c0.7-0.6,1.8-0.9,2.9-0.9C210.5,48.4,211.7,49.4,211.7,51.4z M210.1,53.3
				v-0.8h-1.7c-1.1,0-1.4,0.4-1.4,0.9c0,0.6,0.5,1,1.3,1C209.1,54.4,209.8,54,210.1,53.3z"/>
			<path class="st0" d="M224.6,45.8v9.6h-1.6v-0.9c-0.5,0.7-1.4,1-2.3,1c-2,0-3.5-1.4-3.5-3.6c0-2.2,1.5-3.5,3.5-3.5
				c0.9,0,1.7,0.3,2.2,0.9v-3.6H224.6z M223,52c0-1.3-0.9-2.2-2.1-2.2s-2.1,0.8-2.1,2.2c0,1.3,0.9,2.2,2.1,2.2S223,53.3,223,52z"/>
			<path class="st0" d="M228.1,45.8h1.9l-2.3,1.8h-1.4L228.1,45.8z M226.6,48.5h1.6v6.9h-1.6V48.5z"/>
			<path class="st0" d="M236.1,51.4v4.1h-1.5v-0.8c-0.4,0.6-1.1,0.9-2.2,0.9c-1.6,0-2.6-0.9-2.6-2.1c0-1.2,0.8-2.1,2.9-2.1h1.8v-0.1
				c0-0.9-0.6-1.5-1.7-1.5c-0.8,0-1.6,0.3-2.1,0.7l-0.6-1.2c0.7-0.6,1.8-0.9,2.9-0.9C234.9,48.4,236.1,49.4,236.1,51.4z M234.4,53.3
				v-0.8h-1.7c-1.1,0-1.4,0.4-1.4,0.9c0,0.6,0.5,1,1.3,1C233.5,54.4,234.2,54,234.4,53.3z"/>
			<path class="st0" d="M14,70.7c0,2.2-1.5,3.6-3.5,3.6c-0.9,0-1.7-0.3-2.2-0.9v3.4H6.7v-9.5h1.5v0.9c0.5-0.7,1.4-1,2.3-1
				C12.5,67.1,14,68.5,14,70.7z M12.4,70.7c0-1.3-0.9-2.2-2.1-2.2s-2.1,0.8-2.1,2.2c0,1.3,0.9,2.2,2.1,2.2S12.4,72,12.4,70.7z"/>
			<path class="st0" d="M14.9,70.7c0-2.1,1.6-3.5,3.7-3.5c2.2,0,3.7,1.5,3.7,3.5s-1.5,3.6-3.7,3.6C16.4,74.2,14.9,72.8,14.9,70.7z
				 M20.6,70.7c0-1.3-0.9-2.2-2.1-2.2c-1.2,0-2.1,0.8-2.1,2.2c0,1.3,0.9,2.2,2.1,2.2C19.8,72.8,20.6,72,20.6,70.7z"/>
			<path class="st0" d="M27.7,67.1v1.5c-0.1,0-0.3,0-0.4,0c-1.2,0-2,0.7-2,2.1v3.4h-1.6v-6.9h1.5v1C25.7,67.5,26.6,67.1,27.7,67.1z"
				/>
			<path class="st0" d="M31.9,70.7c0-2.1,1.6-3.5,3.8-3.5c1.4,0,2.4,0.6,3,1.6l-1.2,0.7c-0.4-0.7-1-1-1.7-1c-1.2,0-2.1,0.8-2.1,2.2
				c0,1.4,0.9,2.2,2.1,2.2c0.7,0,1.3-0.3,1.7-1l1.2,0.7c-0.5,1-1.6,1.6-3,1.6C33.5,74.2,31.9,72.8,31.9,70.7z"/>
			<path class="st0" d="M39.2,70.7c0-2.1,1.6-3.5,3.7-3.5c2.2,0,3.7,1.5,3.7,3.5s-1.5,3.6-3.7,3.6C40.8,74.2,39.2,72.8,39.2,70.7z
				 M45,70.7c0-1.3-0.9-2.2-2.1-2.2c-1.2,0-2.1,0.8-2.1,2.2c0,1.3,0.9,2.2,2.1,2.2C44.1,72.8,45,72,45,70.7z"/>
			<path class="st0" d="M54.9,70.2v4h-1.6v-3.8c0-1.2-0.6-1.8-1.7-1.8c-1.2,0-1.9,0.7-1.9,2.1v3.5h-1.6v-6.9h1.5v0.9
				c0.5-0.6,1.4-1,2.4-1C53.7,67.1,54.9,68.1,54.9,70.2z"/>
			<path class="st0" d="M56,73.5l0.6-1.2c0.6,0.4,1.5,0.7,2.4,0.7c1,0,1.5-0.3,1.5-0.8c0-1.3-4.3-0.1-4.3-2.8c0-1.3,1.2-2.2,3.1-2.2
				c0.9,0,2,0.2,2.6,0.6L61.3,69c-0.7-0.4-1.3-0.5-2-0.5c-1,0-1.5,0.3-1.5,0.8c0,1.4,4.3,0.2,4.3,2.9c0,1.3-1.2,2.1-3.1,2.1
				C57.8,74.2,56.7,73.9,56,73.5z"/>
			<path class="st0" d="M67.6,73.8c-0.4,0.3-1,0.5-1.6,0.5c-1.5,0-2.4-0.8-2.4-2.3v-3.3h-1.1v-1.3h1.1v-1.6h1.6v1.6h1.9v1.3h-1.9
				v3.3c0,0.7,0.3,1,1,1c0.3,0,0.7-0.1,0.9-0.3L67.6,73.8z"/>
			<path class="st0" d="M72.8,67.1v1.5c-0.1,0-0.3,0-0.4,0c-1.2,0-2,0.7-2,2.1v3.4h-1.6v-6.9h1.5v1C70.8,67.5,71.6,67.1,72.8,67.1z"
				/>
			<path class="st0" d="M80.8,67.2v6.9h-1.5v-0.9c-0.5,0.6-1.3,1-2.2,1c-1.8,0-3-1-3-3.1v-4h1.6v3.7c0,1.3,0.6,1.9,1.6,1.9
				c1.1,0,1.9-0.7,1.9-2.1v-3.5H80.8z"/>
			<path class="st0" d="M82.6,65.1c0-0.5,0.4-1,1-1c0.6,0,1,0.4,1,0.9c0,0.6-0.4,1-1,1C83.1,66.1,82.6,65.6,82.6,65.1z M82.8,67.2
				h1.6v6.9h-1.6V67.2z"/>
			<path class="st0" d="M90.5,67.1v1.5c-0.1,0-0.3,0-0.4,0c-1.2,0-2,0.7-2,2.1v3.4h-1.6v-6.9H88v1C88.5,67.5,89.3,67.1,90.5,67.1z"
				/>
			<path class="st0" d="M102,67.2v6.9h-1.5v-0.9c-0.5,0.6-1.3,1-2.2,1c-1.8,0-3-1-3-3.1v-4h1.6v3.7c0,1.3,0.6,1.9,1.6,1.9
				c1.1,0,1.9-0.7,1.9-2.1v-3.5H102z"/>
			<path class="st0" d="M110.8,70.2v4h-1.6v-3.8c0-1.2-0.6-1.8-1.7-1.8c-1.2,0-1.9,0.7-1.9,2.1v3.5H104v-6.9h1.5v0.9
				c0.5-0.6,1.4-1,2.4-1C109.6,67.1,110.8,68.1,110.8,70.2z"/>
			<path class="st0" d="M127.8,70.2v4h-1.6v-3.8c0-1.2-0.6-1.8-1.6-1.8c-1.1,0-1.8,0.7-1.8,2.1v3.5h-1.6v-3.8c0-1.2-0.6-1.8-1.6-1.8
				c-1.1,0-1.8,0.7-1.8,2.1v3.5h-1.6v-6.9h1.5v0.9c0.5-0.6,1.3-1,2.3-1c1,0,1.9,0.4,2.3,1.2c0.6-0.7,1.5-1.2,2.6-1.2
				C126.7,67.1,127.8,68.1,127.8,70.2z"/>
			<path class="st0" d="M136.5,67.2v6.9h-1.5v-0.9c-0.5,0.6-1.3,1-2.2,1c-1.8,0-3-1-3-3.1v-4h1.6v3.7c0,1.3,0.6,1.9,1.6,1.9
				c1.1,0,1.9-0.7,1.9-2.1v-3.5H136.5z"/>
			<path class="st0" d="M145.3,70.2v4h-1.6v-3.8c0-1.2-0.6-1.8-1.7-1.8c-1.2,0-1.9,0.7-1.9,2.1v3.5h-1.6v-6.9h1.5v0.9
				c0.5-0.6,1.4-1,2.4-1C144.1,67.1,145.3,68.1,145.3,70.2z"/>
			<path class="st0" d="M154.1,64.5v9.6h-1.6v-0.9c-0.5,0.7-1.4,1-2.3,1c-2,0-3.5-1.4-3.5-3.6c0-2.2,1.5-3.5,3.5-3.5
				c0.9,0,1.7,0.3,2.2,0.9v-3.6H154.1z M152.5,70.7c0-1.3-0.9-2.2-2.1-2.2s-2.1,0.8-2.1,2.2c0,1.3,0.9,2.2,2.1,2.2
				S152.5,72,152.5,70.7z"/>
			<path class="st0" d="M155.6,70.7c0-2.1,1.6-3.5,3.7-3.5c2.2,0,3.7,1.5,3.7,3.5s-1.5,3.6-3.7,3.6
				C157.1,74.2,155.6,72.8,155.6,70.7z M161.3,70.7c0-1.3-0.9-2.2-2.1-2.2c-1.2,0-2.1,0.8-2.1,2.2c0,1.3,0.9,2.2,2.1,2.2
				C160.4,72.8,161.3,72,161.3,70.7z"/>
			<path class="st0" d="M179.5,70.2v4h-1.6v-3.8c0-1.2-0.6-1.8-1.6-1.8c-1.1,0-1.8,0.7-1.8,2.1v3.5h-1.6v-3.8c0-1.2-0.6-1.8-1.6-1.8
				c-1.1,0-1.8,0.7-1.8,2.1v3.5h-1.6v-6.9h1.5v0.9c0.5-0.6,1.3-1,2.3-1c1,0,1.9,0.4,2.3,1.2c0.6-0.7,1.5-1.2,2.6-1.2
				C178.3,67.1,179.5,68.1,179.5,70.2z"/>
			<path class="st0" d="M188,71.2h-5.4c0.2,1,1,1.7,2.2,1.7c0.8,0,1.4-0.2,1.9-0.8l0.9,1c-0.6,0.7-1.6,1.1-2.8,1.1
				c-2.3,0-3.8-1.5-3.8-3.6c0-2.1,1.5-3.5,3.6-3.5c2,0,3.5,1.4,3.5,3.6C188,70.8,188,71,188,71.2z M182.5,70.1h3.9
				c-0.1-1-0.9-1.7-2-1.7C183.4,68.4,182.7,69.1,182.5,70.1z"/>
			<path class="st0" d="M187.1,76.4l0.5-1.2c0.2,0.2,0.6,0.3,0.9,0.3c0.6,0,0.9-0.4,0.9-1.1v-7.1h1.6v7.1c0,1.5-0.9,2.5-2.4,2.5
				C188.1,76.8,187.5,76.6,187.1,76.4z M189.3,65.1c0-0.5,0.4-1,1-1s1,0.4,1,0.9c0,0.6-0.4,1-1,1C189.7,66.1,189.3,65.6,189.3,65.1z
				"/>
			<path class="st0" d="M192.6,70.7c0-2.1,1.6-3.5,3.7-3.5c2.2,0,3.7,1.5,3.7,3.5s-1.5,3.6-3.7,3.6
				C194.1,74.2,192.6,72.8,192.6,70.7z M198.3,70.7c0-1.3-0.9-2.2-2.1-2.2c-1.2,0-2.1,0.8-2.1,2.2c0,1.3,0.9,2.2,2.1,2.2
				C197.4,72.8,198.3,72,198.3,70.7z"/>
			<path class="st0" d="M205.4,67.1v1.5c-0.1,0-0.3,0-0.4,0c-1.2,0-2,0.7-2,2.1v3.4h-1.6v-6.9h1.5v1
				C203.4,67.5,204.2,67.1,205.4,67.1z"/>
			<path class="st0" d="M206,73.2c0-0.6,0.5-1.1,1.1-1.1s1.1,0.4,1.1,1.1c0,0.6-0.5,1.1-1.1,1.1S206,73.8,206,73.2z"/>
			<path class="st0" d="M18.4,124.4c0,0.8-0.6,1.3-1.5,1.3s-1.5-0.6-1.5-1.3s0.6-1.4,1.5-1.4S18.4,123.6,18.4,124.4z M18.4,132.2
				h-2.9l0.5-5.7h2L18.4,132.2z"/>
			<path class="st0" d="M27.9,124.5c0,2.1-1.6,3.4-4,3.4h-1.6v2.4h-2.6v-9.1h4.2C26.3,121.1,27.9,122.4,27.9,124.5z M25.3,124.5
				c0-0.8-0.5-1.3-1.6-1.3h-1.4v2.7h1.4C24.8,125.8,25.3,125.3,25.3,124.5z"/>
			<path class="st0" d="M28.4,126.7c0-2.1,1.7-3.6,4-3.6c2.3,0,4,1.5,4,3.6c0,2.1-1.7,3.7-4,3.7C30.1,130.3,28.4,128.8,28.4,126.7z
				 M33.9,126.7c0-1.1-0.6-1.7-1.5-1.7c-0.8,0-1.5,0.6-1.5,1.7c0,1.1,0.7,1.7,1.5,1.7C33.3,128.3,33.9,127.7,33.9,126.7z"/>
			<path class="st0" d="M42.1,123v2.2c-0.2,0-0.4,0-0.6,0c-1,0-1.7,0.5-1.7,1.7v3.2h-2.5v-7h2.4v0.8C40.3,123.3,41.1,123,42.1,123z"
				/>
			<path class="st0" d="M51.6,129.9c-0.4,0.3-1.1,0.4-1.7,0.4c-1.8,0-2.9-0.9-2.9-2.7v-2.4h-1v-1.8h1v-1.8h2.5v1.8h1.6v1.8h-1.6v2.3
				c0,0.5,0.3,0.8,0.7,0.8c0.3,0,0.5-0.1,0.8-0.2L51.6,129.9z"/>
			<path class="st0" d="M51.7,126.7c0-2.1,1.7-3.6,4-3.6c2.3,0,4,1.5,4,3.6c0,2.1-1.7,3.7-4,3.7C53.4,130.3,51.7,128.8,51.7,126.7z
				 M57.2,126.7c0-1.1-0.6-1.7-1.5-1.7c-0.8,0-1.5,0.6-1.5,1.7c0,1.1,0.7,1.7,1.5,1.7C56.5,128.3,57.2,127.7,57.2,126.7z"/>
			<path class="st0" d="M68.2,120.5v9.6h-2.4v-0.7c-0.5,0.6-1.2,0.8-2.1,0.8c-1.9,0-3.5-1.4-3.5-3.7c0-2.2,1.5-3.6,3.5-3.6
				c0.8,0,1.5,0.2,2,0.7v-3.2H68.2z M65.8,126.7c0-1.1-0.6-1.7-1.5-1.7c-0.8,0-1.5,0.6-1.5,1.7c0,1.1,0.6,1.7,1.5,1.7
				C65.1,128.3,65.8,127.7,65.8,126.7z"/>
			<path class="st0" d="M69.2,126.7c0-2.1,1.7-3.6,4-3.6c2.3,0,4,1.5,4,3.6c0,2.1-1.7,3.7-4,3.7C70.9,130.3,69.2,128.8,69.2,126.7z
				 M74.7,126.7c0-1.1-0.6-1.7-1.5-1.7c-0.8,0-1.5,0.6-1.5,1.7c0,1.1,0.7,1.7,1.5,1.7C74,128.3,74.7,127.7,74.7,126.7z"/>
			<path class="st0" d="M89,127.3h-5.1c0.2,0.7,0.8,1.1,1.7,1.1c0.7,0,1.1-0.2,1.6-0.6l1.3,1.4c-0.7,0.8-1.7,1.1-3,1.1
				c-2.5,0-4.1-1.5-4.1-3.7c0-2.1,1.7-3.6,3.9-3.6c2.1,0,3.8,1.3,3.8,3.7C89,126.9,89,127.1,89,127.3z M83.8,126h2.9
				c-0.1-0.7-0.7-1.2-1.4-1.2C84.5,124.8,84,125.2,83.8,126z"/>
			<path class="st0" d="M89.5,129.6l0.7-1.7c0.7,0.4,1.6,0.6,2.5,0.6c0.8,0,1.1-0.2,1.1-0.5c0-0.9-4.2,0.1-4.2-2.7
				c0-1.3,1.2-2.3,3.4-2.3c1,0,2.1,0.2,2.8,0.6l-0.7,1.7c-0.7-0.4-1.4-0.5-2-0.5c-0.8,0-1.1,0.2-1.1,0.5c0,1,4.1-0.1,4.1,2.7
				c0,1.3-1.2,2.3-3.5,2.3C91.4,130.3,90.2,130,89.5,129.6z"/>
			<path class="st0" d="M101.9,129.9c-0.4,0.3-1.1,0.4-1.7,0.4c-1.8,0-2.9-0.9-2.9-2.7v-2.4h-1v-1.8h1v-1.8h2.5v1.8h1.6v1.8h-1.6
				v2.3c0,0.5,0.3,0.8,0.7,0.8c0.3,0,0.5-0.1,0.8-0.2L101.9,129.9z"/>
			<path class="st0" d="M102,126.7c0-2.1,1.7-3.6,4-3.6c2.3,0,4,1.5,4,3.6c0,2.1-1.7,3.7-4,3.7C103.7,130.3,102,128.8,102,126.7z
				 M107.5,126.7c0-1.1-0.6-1.7-1.5-1.7c-0.8,0-1.5,0.6-1.5,1.7c0,1.1,0.7,1.7,1.5,1.7C106.9,128.3,107.5,127.7,107.5,126.7z"/>
			<path class="st0" d="M122.1,123.1l-3,7.3c-0.7,1.8-1.8,2.4-3.2,2.4c-0.7,0-1.6-0.2-2-0.6l0.9-1.7c0.3,0.3,0.7,0.4,1.1,0.4
				c0.5,0,0.8-0.2,1-0.6l-3-7.1h2.5l1.7,4.3l1.7-4.3H122.1z"/>
			<path class="st0" d="M138.3,126.2v4h-2.5v-3.6c0-1-0.4-1.4-1.1-1.4c-0.7,0-1.2,0.5-1.2,1.6v3.5H131v-3.6c0-1-0.4-1.4-1.1-1.4
				c-0.7,0-1.2,0.5-1.2,1.6v3.5h-2.5v-7h2.4v0.7c0.5-0.6,1.3-0.9,2.1-0.9c1,0,1.8,0.4,2.3,1.1c0.6-0.7,1.4-1.1,2.4-1.1
				C137.1,123,138.3,124,138.3,126.2z"/>
			<path class="st0" d="M147.1,123.1v7h-2.4v-0.8c-0.5,0.6-1.3,0.9-2.1,0.9c-1.7,0-3-1-3-3.2v-3.9h2.5v3.5c0,1.1,0.4,1.5,1.2,1.5
				c0.7,0,1.3-0.5,1.3-1.7v-3.4H147.1z"/>
			<path class="st0" d="M148.1,126.7c0-2.1,1.7-3.6,4-3.6c1.6,0,2.8,0.7,3.3,1.9l-1.9,1c-0.3-0.7-0.8-0.9-1.4-0.9
				c-0.9,0-1.5,0.6-1.5,1.7c0,1.1,0.7,1.7,1.5,1.7c0.6,0,1.1-0.3,1.4-0.9l1.9,1c-0.5,1.2-1.7,1.9-3.3,1.9
				C149.8,130.3,148.1,128.8,148.1,126.7z"/>
			<path class="st0" d="M163.8,126.2v4h-2.5v-3.6c0-1-0.4-1.4-1.2-1.4c-0.8,0-1.4,0.5-1.4,1.7v3.4h-2.5v-9.6h2.5v3.3
				c0.5-0.5,1.3-0.8,2.1-0.8C162.5,123,163.8,124,163.8,126.2z"/>
			<path class="st0" d="M164.8,126.7c0-2.1,1.7-3.6,4-3.6c2.3,0,4,1.5,4,3.6c0,2.1-1.7,3.7-4,3.7
				C166.5,130.3,164.8,128.8,164.8,126.7z M170.3,126.7c0-1.1-0.6-1.7-1.5-1.7c-0.8,0-1.5,0.6-1.5,1.7c0,1.1,0.7,1.7,1.5,1.7
				C169.7,128.3,170.3,127.7,170.3,126.7z"/>
			<path class="st0" d="M189.5,126.2v4H187v-3.6c0-1-0.4-1.4-1.1-1.4c-0.7,0-1.2,0.5-1.2,1.6v3.5h-2.5v-3.6c0-1-0.4-1.4-1.1-1.4
				c-0.7,0-1.2,0.5-1.2,1.6v3.5h-2.5v-7h2.4v0.7c0.5-0.6,1.3-0.9,2.1-0.9c1,0,1.8,0.4,2.3,1.1c0.6-0.7,1.4-1.1,2.4-1.1
				C188.3,123,189.5,124,189.5,126.2z"/>
			<path class="st0" d="M197.5,126.3v3.9h-2.3v-0.9c-0.4,0.7-1.1,1-2.1,1c-1.7,0-2.6-0.9-2.6-2.2c0-1.3,0.9-2.1,3.1-2.1h1.4
				c0-0.7-0.5-1.1-1.5-1.1c-0.7,0-1.4,0.2-1.9,0.6l-0.8-1.7c0.8-0.5,2-0.8,3.1-0.8C196.2,123,197.5,124,197.5,126.3z M195.1,127.9
				v-0.6H194c-0.8,0-1.1,0.3-1.1,0.7c0,0.4,0.3,0.7,0.9,0.7C194.4,128.7,194.9,128.5,195.1,127.9z M194.7,122.3h-1.8l1.7-2h2.5
				L194.7,122.3z"/>
			<path class="st0" d="M198.4,129.6l0.7-1.7c0.7,0.4,1.6,0.6,2.5,0.6c0.8,0,1.1-0.2,1.1-0.5c0-0.9-4.2,0.1-4.2-2.7
				c0-1.3,1.2-2.3,3.4-2.3c1,0,2.1,0.2,2.8,0.6l-0.7,1.7c-0.7-0.4-1.4-0.5-2-0.5c-0.8,0-1.1,0.2-1.1,0.5c0,1,4.1-0.1,4.1,2.7
				c0,1.3-1.2,2.3-3.5,2.3C200.3,130.3,199.1,130,198.4,129.6z"/>
			<path class="st0" d="M208.5,128.8c0,0.4-0.1,0.7-0.4,1.5l-0.8,1.9h-1.5l0.6-2.1c-0.5-0.2-0.8-0.7-0.8-1.3c0-0.9,0.6-1.5,1.5-1.5
				C207.8,127.4,208.5,128,208.5,128.8z"/>
			<path class="st0" d="M212.6,129.6l0.7-1.7c0.7,0.4,1.6,0.6,2.5,0.6c0.8,0,1.1-0.2,1.1-0.5c0-0.9-4.2,0.1-4.2-2.7
				c0-1.3,1.2-2.3,3.4-2.3c1,0,2.1,0.2,2.8,0.6l-0.7,1.7c-0.7-0.4-1.4-0.5-2-0.5c-0.8,0-1.1,0.2-1.1,0.5c0,1,4.1-0.1,4.1,2.7
				c0,1.3-1.2,2.3-3.5,2.3C214.5,130.3,213.3,130,212.6,129.6z"/>
			<path class="st0" d="M227.3,127.3h-5.1c0.2,0.7,0.8,1.1,1.7,1.1c0.7,0,1.1-0.2,1.6-0.6l1.3,1.4c-0.7,0.8-1.7,1.1-3,1.1
				c-2.5,0-4.1-1.5-4.1-3.7c0-2.1,1.7-3.6,3.9-3.6c2.1,0,3.8,1.3,3.8,3.7C227.3,126.9,227.3,127.1,227.3,127.3z M222.1,126h2.9
				c-0.1-0.7-0.7-1.2-1.4-1.2C222.8,124.8,222.3,125.2,222.1,126z M224,122.3h-1.8l1.7-2h2.5L224,122.3z"/>
			<path class="st0" d="M59,142.1h1.7v1.8h-1.6v4.9h-2.5v-4.9h-1v-1.8h1v-0.2c0-1.7,1.1-2.8,2.9-2.8c0.6,0,1.2,0.1,1.6,0.4l-0.6,1.7
				c-0.2-0.1-0.5-0.2-0.7-0.2c-0.5,0-0.8,0.3-0.8,0.9V142.1z"/>
			<path class="st0" d="M68.6,146h-5.1c0.2,0.7,0.8,1.1,1.7,1.1c0.7,0,1.1-0.2,1.6-0.6l1.3,1.4c-0.7,0.8-1.7,1.1-3,1.1
				c-2.5,0-4.1-1.5-4.1-3.7c0-2.1,1.7-3.6,3.9-3.6c2.1,0,3.8,1.3,3.8,3.7C68.6,145.5,68.6,145.8,68.6,146z M63.4,144.7h2.9
				c-0.1-0.7-0.7-1.2-1.4-1.2C64.1,143.5,63.5,143.9,63.4,144.7z"/>
			<path class="st0" d="M69.6,139.2h2.5v9.6h-2.5V139.2z"/>
			<path class="st0" d="M73.3,139.7c0-0.7,0.6-1.3,1.5-1.3s1.5,0.5,1.5,1.3c0,0.8-0.6,1.4-1.5,1.4S73.3,140.5,73.3,139.7z
				 M73.6,141.8H76v7h-2.5V141.8z"/>
			<path class="st0" d="M83.6,147v1.8h-6.5v-1.5l3.3-3.8h-3.2v-1.8h6.3v1.4l-3.3,3.8H83.6z"/>
			<path class="st0" d="M95.7,144.8v4h-2.5v-3.6c0-1-0.4-1.4-1.2-1.4c-0.8,0-1.4,0.5-1.4,1.7v3.4h-2.5v-9.6h2.5v3.3
				c0.5-0.5,1.3-0.8,2.1-0.8C94.5,141.7,95.7,142.7,95.7,144.8z"/>
			<path class="st0" d="M96.8,145.3c0-2.1,1.7-3.6,4-3.6c2.3,0,4,1.5,4,3.6c0,2.1-1.7,3.7-4,3.7C98.5,149,96.8,147.5,96.8,145.3z
				 M102.3,145.3c0-1.1-0.6-1.7-1.5-1.7c-0.8,0-1.5,0.6-1.5,1.7c0,1.1,0.7,1.7,1.5,1.7C101.6,147,102.3,146.4,102.3,145.3z"/>
			<path class="st0" d="M113,141.8l-3,7.3c-0.7,1.8-1.8,2.4-3.2,2.4c-0.7,0-1.6-0.2-2-0.6l0.9-1.7c0.3,0.3,0.7,0.4,1.1,0.4
				c0.5,0,0.8-0.2,1-0.6l-3-7.1h2.5l1.7,4.3l1.7-4.3H113z"/>
			<path class="st0" d="M124.6,141.8l-3,7.3c-0.7,1.8-1.8,2.4-3.2,2.4c-0.7,0-1.6-0.2-2-0.6l0.9-1.7c0.3,0.3,0.7,0.4,1.1,0.4
				c0.5,0,0.8-0.2,1-0.6l-3-7.1h2.5l1.7,4.3l1.7-4.3H124.6z"/>
			<path class="st0" d="M128.2,148.3l0.7-1.7c0.7,0.4,1.6,0.6,2.5,0.6c0.8,0,1.1-0.2,1.1-0.5c0-0.9-4.2,0.1-4.2-2.7
				c0-1.3,1.2-2.3,3.4-2.3c1,0,2.1,0.2,2.8,0.6l-0.7,1.7c-0.7-0.4-1.4-0.5-2-0.5c-0.8,0-1.1,0.2-1.1,0.5c0,1,4.1-0.1,4.1,2.7
				c0,1.3-1.2,2.3-3.5,2.3C130.1,149,128.9,148.7,128.2,148.3z"/>
			<path class="st0" d="M135.5,139.7c0-0.7,0.6-1.3,1.5-1.3s1.5,0.5,1.5,1.3c0,0.8-0.6,1.4-1.5,1.4S135.5,140.5,135.5,139.7z
				 M135.7,141.8h2.5v7h-2.5V141.8z"/>
			<path class="st0" d="M146.8,146h-5.1c0.2,0.7,0.8,1.1,1.7,1.1c0.7,0,1.1-0.2,1.6-0.6l1.3,1.4c-0.7,0.8-1.7,1.1-3,1.1
				c-2.5,0-4.1-1.5-4.1-3.7c0-2.1,1.7-3.6,3.9-3.6c2.1,0,3.8,1.3,3.8,3.7C146.9,145.5,146.9,145.8,146.8,146z M141.7,144.7h2.9
				c-0.1-0.7-0.7-1.2-1.4-1.2C142.4,143.5,141.8,143.9,141.7,144.7z"/>
			<path class="st0" d="M159.9,144.8v4h-2.5v-3.6c0-1-0.4-1.4-1.1-1.4c-0.7,0-1.2,0.5-1.2,1.6v3.5h-2.5v-3.6c0-1-0.4-1.4-1.1-1.4
				c-0.7,0-1.2,0.5-1.2,1.6v3.5h-2.5v-7h2.4v0.7c0.5-0.6,1.3-0.9,2.1-0.9c1,0,1.8,0.4,2.3,1.1c0.6-0.7,1.4-1.1,2.4-1.1
				C158.7,141.7,159.9,142.7,159.9,144.8z"/>
			<path class="st0" d="M169.2,145.3c0,2.2-1.5,3.6-3.5,3.6c-0.8,0-1.5-0.2-2-0.7v3.1h-2.5v-9.6h2.4v0.7c0.5-0.6,1.2-0.8,2.1-0.8
				C167.7,141.7,169.2,143.1,169.2,145.3z M166.7,145.3c0-1.1-0.7-1.7-1.5-1.7s-1.5,0.6-1.5,1.7c0,1.1,0.6,1.7,1.5,1.7
				S166.7,146.4,166.7,145.3z"/>
			<path class="st0" d="M175,141.7v2.2c-0.2,0-0.4,0-0.6,0c-1,0-1.7,0.5-1.7,1.7v3.2h-2.5v-7h2.4v0.8
				C173.1,142,173.9,141.7,175,141.7z"/>
			<path class="st0" d="M183,146h-5.1c0.2,0.7,0.8,1.1,1.7,1.1c0.7,0,1.1-0.2,1.6-0.6l1.3,1.4c-0.7,0.8-1.7,1.1-3,1.1
				c-2.5,0-4.1-1.5-4.1-3.7c0-2.1,1.7-3.6,3.9-3.6c2.1,0,3.8,1.3,3.8,3.7C183,145.5,183,145.8,183,146z M177.8,144.7h2.9
				c-0.1-0.7-0.7-1.2-1.4-1.2C178.5,143.5,177.9,143.9,177.8,144.7z"/>
			<path class="st0" d="M183.7,147.6c0-0.8,0.6-1.3,1.5-1.3s1.5,0.6,1.5,1.3c0,0.8-0.6,1.4-1.5,1.4S183.7,148.4,183.7,147.6z
				 M183.7,139.8h2.9l-0.5,5.8h-2L183.7,139.8z"/>
		</g>
	</g>
	<g>
		<path class="st1" d="M117.8,211.5c1.4,0,2.6-1.2,2.6-2.6c0-1.4-1.2-2.6-2.6-2.6c-1.4,0-2.6,1.2-2.6,2.6
			C115.2,210.4,116.3,211.5,117.8,211.5"/>
		<path class="st1" d="M128.1,226.7c-0.4,0-0.7-0.3-0.7-0.7v-21.8h-4.2V227c0,1.8,1.5,3.3,3.3,3.3h3.2v-3.6H128.1z"/>
		<polygon class="st1" points="80.7,205.8 80.7,211.3 84.2,211.3 84.2,209.9 89.7,209.9 89.7,226.7 88,226.7 88,230.3 95.8,230.3 
			95.8,226.7 94.1,226.7 94.1,209.9 99.6,209.9 99.6,211.3 103.1,211.3 103.1,205.8 		"/>
		<polygon class="st1" points="119.9,226.7 119.9,214.1 110.8,214.1 110.8,217.6 115.7,217.6 115.7,226.7 110.8,226.7 110.8,230.3 
			121.6,230.3 121.6,226.7 		"/>
		<polygon class="st1" points="99.6,214.1 99.6,226.7 97.9,226.7 97.9,230.3 108.7,230.3 108.7,226.7 103.8,226.7 103.8,217.6 
			108.7,217.6 108.7,214.1 102.1,214.1 		"/>
		<path class="st1" d="M150.4,220.5c0-0.5,0.2-1,0.4-1.4c0.3-0.4,0.6-0.8,1-1.1s0.8-0.5,1.3-0.7c0.5-0.1,1-0.2,1.5-0.2
			c1.2,0,2,0.3,2.6,0.9c0.6,0.6,0.9,1.4,0.9,2.5H150.4z M161.2,217.3c-0.5-0.9-1-1.5-1.7-2.1c-0.7-0.5-1.5-0.9-2.3-1.1
			c-0.8-0.2-1.7-0.3-2.5-0.3c-1.2,0-2.3,0.2-3.3,0.5c-1,0.3-1.9,0.9-2.7,1.6c-0.8,0.7-1.4,1.6-1.8,2.6c-0.4,1-0.7,2.2-0.7,3.6
			c0,0.5,0,0.9,0.1,1.4c0.1,0.8,0.3,1.5,0.5,2.1c0.1,0.3,0.9,2.2,3,3.5c1.4,0.8,3.4,1.2,6,1.2c2.7,0,4-0.1,4-0.1v-3.4v0
			c0,0-1.9,0-4.2,0c-3.4,0-4.5-2.1-4.8-2.6c-0.1-0.2-0.1-0.4-0.2-0.5h11.1C162.2,221.9,162,218.8,161.2,217.3"/>
		<path class="st1" d="M144.6,220.6v-5.2v-0.1c0-0.2-0.1-0.3-0.2-0.4c-0.5-0.2-1.2-0.4-2.1-0.7c-1-0.3-2.1-0.4-3.3-0.4
			c-1.3,0-2.4,0.2-3.5,0.6c-1.1,0.4-2,0.9-2.8,1.6c-0.8,0.7-1.4,1.6-1.8,2.6c-0.4,1-0.7,2.2-0.7,3.5c0,1.2,0.2,2.4,0.6,3.4
			c0.4,1,0.8,1.8,1.5,2.5c1.2,1.2,3.4,2.1,6,2.2l5.2,0v-3.6h-4c-1.7,0-3.3-0.8-3.8-1.2c-0.4-0.4-0.7-0.9-1-1.5
			c-0.2-0.6-0.3-1.2-0.3-1.9c0-0.8,0.1-1.5,0.4-2.1c0.3-0.6,0.7-1.1,1.1-1.5c0.5-0.4,1-0.7,1.5-0.8c0.6-0.2,1.2-0.3,1.7-0.3
			c0.7,0,1.3,0.1,2,0.2v2.9H144.6z"/>
	</g>
</g>
</svg>
