<svg width="46" height="46" viewBox="0 0 46 46" fill="none" xmlns="http://www.w3.org/2000/svg">
<circle cx="23" cy="23" r="23" fill="#62348C"/>
<path d="M23 10.5625C25.207 10.5625 27.2578 11.1191 29.1523 12.2324C30.9883 13.3066 32.4434 14.7617 33.5176 16.5977C34.6309 18.4922 35.1875 20.543 35.1875 22.75C35.1875 24.957 34.6309 27.0078 33.5176 28.9023C32.4434 30.7383 30.9883 32.1934 29.1523 33.2676C27.2578 34.3809 25.207 34.9375 23 34.9375C20.793 34.9375 18.7422 34.3809 16.8477 33.2676C15.0117 32.1934 13.5566 30.7383 12.4824 28.9023C11.3691 27.0078 10.8125 24.957 10.8125 22.75C10.8125 20.543 11.3691 18.4922 12.4824 16.5977C13.5566 14.7617 15.0117 13.3066 16.8477 12.2324C18.7422 11.1191 20.793 10.5625 23 10.5625ZM23 12.4375C21.1445 12.4375 19.4062 12.9062 17.7852 13.8438C16.2422 14.7617 15.0117 15.9922 14.0938 17.5352C13.1562 19.1562 12.6875 20.8945 12.6875 22.75C12.6875 24.6055 13.1562 26.3438 14.0938 27.9648C15.0117 29.5078 16.2422 30.7383 17.7852 31.6562C19.4062 32.5938 21.1445 33.0625 23 33.0625C24.8555 33.0625 26.5938 32.5938 28.2148 31.6562C29.7578 30.7383 30.9883 29.5078 31.9062 27.9648C32.8438 26.3438 33.3125 24.6055 33.3125 22.75C33.3125 20.8945 32.8438 19.1562 31.9062 17.5352C30.9883 15.9922 29.7578 14.7617 28.2148 13.8438C26.5938 12.9062 24.8555 12.4375 23 12.4375ZM18.3125 19C19.1133 19 19.9043 19.1758 20.6855 19.5273C21.0762 19.7227 21.4082 19.9277 21.6816 20.1426H21.7109L20.5684 21.6074L20.2461 21.4316C19.9922 21.2754 19.7285 21.1582 19.4551 21.0801C19.0645 20.9434 18.6836 20.875 18.3125 20.875C17.9414 20.875 17.5703 20.9434 17.1992 21.0801C16.9062 21.1582 16.6328 21.2754 16.3789 21.4316L16.0859 21.6074L14.9141 20.1426L15.3828 19.8496C15.7539 19.6152 16.1445 19.4297 16.5547 19.293C17.1406 19.0977 17.7266 19 18.3125 19ZM27.6875 19C28.4883 19 29.2793 19.1758 30.0605 19.5273C30.4512 19.7227 30.7832 19.9277 31.0566 20.1426H31.0859L29.9434 21.6074L29.6211 21.4316C29.3672 21.2754 29.1035 21.1582 28.8301 21.0801C28.4395 20.9434 28.0586 20.875 27.6875 20.875C27.3164 20.875 26.9453 20.9434 26.5742 21.0801C26.2812 21.1582 26.0078 21.2754 25.7539 21.4316L25.4609 21.6074L24.3184 20.1426L24.7578 19.8496C25.1289 19.6152 25.5195 19.4297 25.9297 19.293C26.5156 19.0977 27.1016 19 27.6875 19ZM16.4375 25.5625H29.5625L29.3574 26.0605C29.1816 26.4512 28.9668 26.832 28.7129 27.2031C28.3613 27.7305 27.9512 28.1992 27.4824 28.6094C26.916 29.0977 26.3008 29.4785 25.6367 29.752C24.8164 30.084 23.9375 30.25 23 30.25C22.0625 30.25 21.1836 30.084 20.3633 29.752C19.6992 29.4785 19.084 29.0977 18.5176 28.6094C18.0488 28.1992 17.6387 27.7305 17.2871 27.2031C17.0332 26.832 16.8184 26.4512 16.6426 26.0605C16.5645 25.8848 16.4961 25.7188 16.4375 25.5625Z" fill="white"/>
</svg>
