<svg width="46" height="46" viewBox="0 0 46 46" fill="none" xmlns="http://www.w3.org/2000/svg">
<circle cx="23" cy="23" r="23" fill="#FA4C0E"/>
<path d="M24 12.3203L24.4395 12.5547L37.0957 19.1172L38.707 19.9375L33.375 22.6621V27.4375C33.375 27.8281 33.2383 28.1699 32.9648 28.4629C32.8086 28.6191 32.5547 28.7949 32.2031 28.9902C31.6953 29.2441 31.0215 29.4688 30.1816 29.6641C28.4238 30.0547 26.3633 30.25 24 30.25C21.6367 30.25 19.5762 30.0547 17.8184 29.6641C16.9785 29.4688 16.3047 29.2441 15.7969 28.9902C15.4453 28.7949 15.1914 28.6191 15.0352 28.4629C14.7617 28.1699 14.625 27.8281 14.625 27.4375V22.6621L12.75 21.6953V28.6387C13.043 28.8145 13.2676 29.0488 13.4238 29.3418C13.5996 29.6152 13.6875 29.918 13.6875 30.25C13.6875 30.7773 13.502 31.2266 13.1309 31.5977C12.7793 31.9492 12.3398 32.125 11.8125 32.125C11.2852 32.125 10.8359 31.9492 10.4648 31.5977C10.1133 31.2266 9.9375 30.7773 9.9375 30.25C9.9375 29.918 10.0156 29.6152 10.1719 29.3418C10.3477 29.0488 10.582 28.8145 10.875 28.6387V20.7285L9.29297 19.9375L10.9043 19.1172L23.5605 12.5547L24 12.3203ZM24 14.4297L13.3945 19.9375L15.0645 20.7871C15.2402 20.5918 15.4844 20.416 15.7969 20.2598C16.2852 20.0059 16.959 19.7812 17.8184 19.5859C19.5566 19.1953 21.6172 19 24 19C26.3828 19 28.4434 19.1953 30.1816 19.5859C31.041 19.7812 31.7148 20.0059 32.2031 20.2598C32.5156 20.416 32.7598 20.5918 32.9355 20.7871L34.6055 19.9375L24 14.4297ZM24 20.875C21.7148 20.875 19.791 21.0508 18.2285 21.4023C17.5059 21.5586 16.9785 21.7246 16.6465 21.9004C16.6074 21.9199 16.5684 21.9492 16.5293 21.9883L16.5 22.0176V25.5918C16.9102 25.4355 17.3496 25.3086 17.8184 25.2109C19.5762 24.8203 21.6367 24.625 24 24.625C26.3633 24.625 28.4238 24.8203 30.1816 25.2109C30.6504 25.3086 31.0898 25.4355 31.5 25.5918V22.0176L31.4707 21.9883C31.4316 21.9492 31.3926 21.9199 31.3535 21.9004C31.0215 21.7246 30.4941 21.5586 29.7715 21.4023C28.209 21.0508 26.2852 20.875 24 20.875ZM24 26.5C21.7344 26.5 19.8105 26.6758 18.2285 27.0273C17.7598 27.125 17.3301 27.2617 16.9395 27.4375C17.3301 27.6133 17.7598 27.75 18.2285 27.8477C19.8105 28.1992 21.7344 28.375 24 28.375C26.2656 28.375 28.1895 28.1992 29.7715 27.8477C30.2402 27.75 30.6699 27.6133 31.0605 27.4375C30.6699 27.2617 30.2402 27.125 29.7715 27.0273C28.1895 26.6758 26.2656 26.5 24 26.5Z" fill="white"/>
</svg>
