<svg width="392" height="262" viewBox="0 0 392 262" fill="none" xmlns="http://www.w3.org/2000/svg">
<path d="M392 0H0V262H392V0Z" fill="#F6F6F6"/>
<path d="M343.7 18.6992H48.1997V243.299H343.7V18.6992Z" fill="#F3F7F5"/>
<path d="M344.2 243.701H47.7998V18.3008H344.2V243.701ZM48.6998 242.901H343.4V19.1008H48.6998V242.901Z" fill="#DDEBEF"/>
<path d="M339.2 87.8008H55.2002V211.901H339.2V87.8008Z" fill="white"/>
<path d="M339.2 47.1992H55.2002V80.4992H339.2V47.1992Z" fill="white"/>
<path d="M326 66.1016H65.8999V69.3016H326V66.1016Z" fill="#D0DEE8"/>
<path d="M59.2998 37.8016V32.6016H61.5998C62.6998 32.6016 63.1998 33.1016 63.1998 34.1016C63.1998 35.2016 62.4998 35.8016 60.9998 36.0016L60.8998 35.1016C61.7998 34.9016 62.1998 34.6016 62.1998 34.1016C62.1998 33.7016 61.9998 33.5016 61.5998 33.5016H60.2998V37.8016H59.2998Z" fill="#0084D9"/>
<path d="M63.5 36.6C63.5 35.8 64 35.5 65.1 35.5C65.4 35.5 65.6 35.5 65.9 35.6V35.3C65.9 35 65.7 34.8 65.2 34.8C64.8 34.8 64.3 34.9 63.8 35V34.2C64.3 34.1 64.8 34 65.2 34C66.3 34 66.9 34.4 66.9 35.3V37.8H66.3L66 37.4C65.7 37.6 65.3 37.7 64.9 37.7C64 37.8 63.5 37.4 63.5 36.6ZM65.2 36.1C64.7 36.1 64.5 36.3 64.5 36.6C64.5 36.9 64.7 37.1 65.1 37.1C65.4 37.1 65.7 37 66 36.8V36.2C65.7 36.1 65.4 36.1 65.2 36.1Z" fill="#0084D9"/>
<path d="M71.1997 37.5C71.1997 38.6 70.4997 39.2 69.1997 39.2C68.6997 39.2 68.2997 39.1 67.9997 39V38.2C68.3997 38.3 68.7997 38.4 69.2997 38.4C69.9997 38.4 70.2997 38.1 70.2997 37.5C69.9997 37.6 69.6997 37.7 69.3997 37.7C68.2997 37.7 67.6997 37.1 67.6997 35.9C67.6997 34.6 68.3997 34 69.6997 34C70.0997 34 70.6997 34.1 71.2997 34.2V37.5H71.1997ZM70.1997 34.8C69.9997 34.7 69.7997 34.7 69.4997 34.7C68.7997 34.7 68.4997 35.1 68.4997 35.8C68.4997 36.5 68.7997 36.9 69.3997 36.9C69.6997 36.9 69.8997 36.8 70.1997 36.7V34.8Z" fill="#0084D9"/>
<path d="M71.8999 36.6C71.8999 35.8 72.3999 35.5 73.4999 35.5C73.7999 35.5 73.9999 35.5 74.2999 35.6V35.3C74.2999 35 74.0999 34.8 73.5999 34.8C73.1999 34.8 72.6999 34.9 72.1999 35V34.2C72.6999 34.1 73.1999 34 73.5999 34C74.6999 34 75.2999 34.4 75.2999 35.3V37.8H74.6999L74.3999 37.5C74.0999 37.7 73.6999 37.8 73.2999 37.8C72.3999 37.8 71.8999 37.4 71.8999 36.6ZM73.5999 36.1C73.0999 36.1 72.8999 36.3 72.8999 36.6C72.8999 36.9 73.0999 37.1 73.4999 37.1C73.7999 37.1 74.0999 37 74.3999 36.8V36.2C74.0999 36.1 73.7999 36.1 73.5999 36.1Z" fill="#0084D9"/>
<path d="M76.1997 37.8V34H76.8997L76.9997 34.5C77.2997 34.2 77.6997 34 78.0997 34V34.8C77.6997 34.8 77.3997 34.9 77.0997 35.2V37.8H76.1997Z" fill="#0084D9"/>
<path d="M80.2996 37.6V36.8C80.6996 37 81.1996 37.1 81.7996 37.1C82.1996 37.1 82.3996 37 82.3996 36.7C82.3996 36.4 82.2996 36.3 81.9996 36.3H81.2996C80.4996 36.3 80.0996 35.9 80.0996 35.2C80.0996 34.4 80.6996 34 81.7996 34C82.2996 34 82.6996 34.1 83.0996 34.2V35C82.6996 34.8 82.1996 34.7 81.6996 34.7C81.1996 34.7 80.8996 34.8 80.8996 35.1C80.8996 35.4 81.0996 35.5 81.3996 35.5H81.9996C82.7996 35.5 83.2996 35.9 83.2996 36.6C83.2996 37.4 82.7996 37.8 81.6996 37.8C81.1996 37.8 80.6996 37.7 80.2996 37.6Z" fill="#0084D9"/>
<path d="M85.5999 34C86.7999 34 87.2999 34.6 87.2999 35.8C87.2999 36 87.2999 36.1 87.2999 36.3H84.7999C84.7999 36.8 85.1999 37.1 85.9999 37.1C86.3999 37.1 86.7999 37.1 87.1999 37V37.8C86.8999 37.9 86.4999 37.9 85.9999 37.9C84.5999 37.9 83.8999 37.3 83.8999 36C83.7999 34.6 84.3999 34 85.5999 34ZM84.7999 35.6H86.3999C86.3999 35.1 86.0999 34.8 85.5999 34.8C85.0999 34.7 84.7999 35 84.7999 35.6Z" fill="#0084D9"/>
<path d="M88 37.8V34H88.7L88.8 34.5C89.1 34.2 89.5 34 89.9 34V34.8C89.5 34.8 89.2 34.9 88.9 35.2V37.8H88Z" fill="#0084D9"/>
<path d="M90.0996 34H91.0996L91.9996 36.7L92.9996 34H93.9996L92.4996 37.8H91.5996L90.0996 34Z" fill="#0084D9"/>
<path d="M95.3999 32.6016V33.4016H94.3999V32.6016H95.3999ZM95.3999 34.0016V37.8016H94.3999V34.0016H95.3999Z" fill="#0084D9"/>
<path d="M99.0996 37.7C98.7996 37.8 98.4996 37.8 98.0996 37.8C96.6996 37.8 96.0996 37.1 96.0996 35.8C96.0996 34.6 96.7996 34 98.0996 34C98.3996 34 98.7996 34 99.0996 34.1V34.9C98.7996 34.8 98.4996 34.8 98.1996 34.8C97.3996 34.8 97.0996 35.2 97.0996 35.9C97.0996 36.7 97.4996 37.1 98.1996 37.1C98.4996 37.1 98.7996 37.1 99.0996 37V37.7Z" fill="#0084D9"/>
<path d="M100.7 32.6016V33.4016H99.6997V32.6016H100.7ZM100.7 34.0016V37.8016H99.6997V34.0016H100.7Z" fill="#0084D9"/>
<path d="M101.4 35.9C101.4 34.6 102 34 103.3 34C104.6 34 105.2 34.6 105.2 35.9C105.2 37.2 104.6 37.8 103.3 37.8C102 37.8 101.4 37.2 101.4 35.9ZM103.3 37.1C103.9 37.1 104.2 36.7 104.2 35.9C104.2 35.1 103.9 34.7 103.3 34.7C102.7 34.7 102.4 35.1 102.4 35.9C102.4 36.7 102.7 37.1 103.3 37.1Z" fill="#0084D9"/>
<path d="M105.9 37.6V36.8C106.3 37 106.8 37.1 107.4 37.1C107.8 37.1 108 37 108 36.7C108 36.4 107.9 36.3 107.6 36.3H106.9C106.1 36.3 105.7 35.9 105.7 35.2C105.7 34.4 106.3 34 107.4 34C107.9 34 108.3 34.1 108.7 34.2V35C108.3 34.8 107.8 34.7 107.3 34.7C106.8 34.7 106.5 34.8 106.5 35.1C106.5 35.4 106.7 35.5 107 35.5H107.6C108.4 35.5 108.9 35.9 108.9 36.6C108.9 37.4 108.4 37.8 107.3 37.8C106.8 37.8 106.3 37.7 105.9 37.6Z" fill="#0084D9"/>
<path d="M64.5001 61.7016V58.3016H64.1001V58.0016L65.3001 57.6016V61.7016H64.5001Z" fill="#0084D9"/>
<path d="M66.8 61V61.7H66V61H66.8Z" fill="#0084D9"/>
<path d="M68.7001 61.6031V60.9031C69.1001 61.1031 69.6001 61.1031 70.1001 61.1031C70.7001 61.1031 71.0001 60.9031 71.0001 60.5031C71.0001 60.2031 70.8001 60.0031 70.4001 60.0031H69.8001C69.0001 60.0031 68.6001 59.6031 68.6001 58.9031C68.6001 58.1031 69.2001 57.7031 70.4001 57.7031C70.8001 57.7031 71.3001 57.8031 71.7001 57.9031V58.6031C71.3001 58.4031 70.9001 58.4031 70.4001 58.4031C69.7001 58.4031 69.4001 58.6031 69.4001 59.0031C69.4001 59.3031 69.6001 59.5031 69.9001 59.5031H70.5001C71.4001 59.5031 71.8001 59.9031 71.8001 60.6031C71.8001 61.4031 71.2001 61.9031 70.1001 61.9031C69.5001 61.8031 69.1001 61.7031 68.7001 61.6031Z" fill="#0084D9"/>
<path d="M73.5 58.8008C74.4 58.8008 74.8 59.3008 74.8 60.2008C74.8 60.3008 74.8 60.4008 74.8 60.6008H72.8C72.8 61.0008 73.1 61.2008 73.7 61.2008C74 61.2008 74.3 61.2008 74.6 61.1008V61.7008C74.3 61.8008 74 61.8008 73.6 61.8008C72.5 61.8008 72 61.3008 72 60.3008C72.1 59.3008 72.6 58.8008 73.5 58.8008ZM72.9 60.0008H74.2C74.2 59.6008 74 59.4008 73.6 59.4008C73.1 59.4008 72.9 59.6008 72.9 60.0008Z" fill="#0084D9"/>
<path d="M75.3999 61.7031V58.7031H75.9999L76.0999 59.1031C76.3999 58.8031 76.5999 58.7031 76.8999 58.7031V59.3031C76.5999 59.3031 76.3999 59.4031 76.1999 59.6031V61.6031H75.3999V61.7031Z" fill="#0084D9"/>
<path d="M77 58.8008H77.8L78.5 60.9008L79.2 58.8008H80L78.8 61.8008H78.1L77 58.8008Z" fill="#0084D9"/>
<path d="M81.0999 57.7031V58.3031H80.3999V57.7031H81.0999ZM81.0999 58.8031V61.8031H80.3999V58.8031H81.0999Z" fill="#0084D9"/>
<path d="M84.0001 61.6008C83.8001 61.7008 83.5001 61.7008 83.2001 61.7008C82.2001 61.7008 81.6001 61.2008 81.6001 60.2008C81.6001 59.3008 82.1001 58.8008 83.2001 58.8008C83.5001 58.8008 83.7001 58.8008 84.0001 58.9008V59.5008C83.8001 59.4008 83.5001 59.4008 83.3001 59.4008C82.7001 59.4008 82.4001 59.7008 82.4001 60.2008C82.4001 60.8008 82.7001 61.1008 83.3001 61.1008C83.5001 61.1008 83.8001 61.1008 84.0001 61.0008V61.6008Z" fill="#0084D9"/>
<path d="M85.2 57.7031V58.3031H84.5V57.7031H85.2ZM85.2 58.8031V61.8031H84.5V58.8031H85.2Z" fill="#0084D9"/>
<path d="M85.8003 60.2031C85.8003 59.2031 86.3003 58.7031 87.3003 58.7031C88.3003 58.7031 88.8003 59.2031 88.8003 60.2031C88.8003 61.2031 88.3003 61.7031 87.3003 61.7031C86.3003 61.7031 85.8003 61.2031 85.8003 60.2031ZM87.3003 61.2031C87.8003 61.2031 88.0003 60.9031 88.0003 60.3031C88.0003 59.7031 87.8003 59.4031 87.3003 59.4031C86.8003 59.4031 86.6003 59.7031 86.6003 60.3031C86.5003 60.9031 86.8003 61.2031 87.3003 61.2031Z" fill="#0084D9"/>
<path d="M89.3001 61.6008V61.0008C89.6001 61.1008 90.0001 61.2008 90.4001 61.2008C90.7001 61.2008 90.9001 61.1008 90.9001 60.9008C90.9001 60.7008 90.8001 60.6008 90.6001 60.6008H90.0001C89.4001 60.6008 89.1001 60.3008 89.1001 59.7008C89.1001 59.1008 89.5001 58.8008 90.4001 58.8008C90.8001 58.8008 91.1001 58.9008 91.4001 59.0008V59.6008C91.1001 59.5008 90.7001 59.4008 90.3001 59.4008C89.9001 59.4008 89.7001 59.5008 89.7001 59.7008C89.7001 59.9008 89.8001 60.0008 90.1001 60.0008H90.6001C91.3001 60.0008 91.6001 60.3008 91.6001 60.9008C91.6001 61.5008 91.2001 61.8008 90.3001 61.8008C90.0001 61.8008 89.6001 61.7008 89.3001 61.6008Z" fill="#0084D9"/>
<path d="M104.5 61.6992V61.0992C105.8 60.1992 106.5 59.3992 106.5 58.7992C106.5 58.3992 106.3 58.1992 105.8 58.1992C105.4 58.1992 105 58.2992 104.6 58.4992V57.9992C105 57.7992 105.4 57.6992 105.8 57.6992C106.8 57.6992 107.3 58.0992 107.3 58.8992C107.3 59.5992 106.8 60.2992 105.7 61.0992H107.3V61.6992H104.5Z" fill="#0084D9"/>
<path d="M108.5 61V61.7H107.8V61H108.5Z" fill="#0084D9"/>
<path d="M110.4 61.5992V60.8992C110.8 61.0992 111.3 61.0992 111.8 61.0992C112.4 61.0992 112.7 60.8992 112.7 60.4992C112.7 60.1992 112.5 59.9992 112.1 59.9992H111.5C110.7 59.9992 110.3 59.5992 110.3 58.8992C110.3 58.0992 110.9 57.6992 112.1 57.6992C112.5 57.6992 113 57.7992 113.4 57.8992V58.5992C113 58.3992 112.6 58.3992 112.1 58.3992C111.4 58.3992 111.1 58.5992 111.1 58.9992C111.1 59.2992 111.3 59.4992 111.6 59.4992H112.2C113.1 59.4992 113.5 59.8992 113.5 60.5992C113.5 61.3992 112.9 61.8992 111.8 61.8992C111.3 61.7992 110.8 61.6992 110.4 61.5992Z" fill="#0084D9"/>
<path d="M115.3 58.8008C116.2 58.8008 116.6 59.3008 116.6 60.2008C116.6 60.3008 116.6 60.4008 116.6 60.6008H114.6C114.6 61.0008 114.9 61.2008 115.5 61.2008C115.8 61.2008 116.1 61.2008 116.4 61.1008V61.7008C116.1 61.8008 115.8 61.8008 115.4 61.8008C114.3 61.8008 113.8 61.3008 113.8 60.3008C113.9 59.3008 114.4 58.8008 115.3 58.8008ZM114.6 60.0008H115.9C115.9 59.6008 115.7 59.4008 115.3 59.4008C114.9 59.4008 114.7 59.6008 114.6 60.0008Z" fill="#0084D9"/>
<path d="M117.9 57.6992V61.6992H117.2V57.6992H117.9Z" fill="#0084D9"/>
<path d="M119.9 58.8008C120.8 58.8008 121.2 59.3008 121.2 60.2008C121.2 60.3008 121.2 60.4008 121.2 60.6008H119.2C119.2 61.0008 119.5 61.2008 120.1 61.2008C120.4 61.2008 120.7 61.2008 121 61.1008V61.7008C120.7 61.8008 120.4 61.8008 120 61.8008C118.9 61.8008 118.4 61.3008 118.4 60.3008C118.5 59.3008 118.9 58.8008 119.9 58.8008ZM119.2 60.0008H120.5C120.5 59.6008 120.3 59.4008 119.9 59.4008C119.5 59.4008 119.3 59.6008 119.2 60.0008Z" fill="#0084D9"/>
<path d="M124 61.6008C123.8 61.7008 123.5 61.7008 123.2 61.7008C122.2 61.7008 121.6 61.2008 121.6 60.2008C121.6 59.3008 122.1 58.8008 123.2 58.8008C123.5 58.8008 123.7 58.8008 124 58.9008V59.5008C123.8 59.4008 123.5 59.4008 123.3 59.4008C122.7 59.4008 122.4 59.7008 122.4 60.2008C122.4 60.8008 122.7 61.1008 123.3 61.1008C123.5 61.1008 123.8 61.1008 124 61.0008V61.6008Z" fill="#0084D9"/>
<path d="M126.6 61.6008C126.4 61.7008 126.1 61.7008 125.8 61.7008C124.8 61.7008 124.2 61.2008 124.2 60.2008C124.2 59.3008 124.7 58.8008 125.8 58.8008C126.1 58.8008 126.3 58.8008 126.6 58.9008V59.5008C126.4 59.4008 126.1 59.4008 125.9 59.4008C125.3 59.4008 125 59.7008 125 60.2008C125 60.8008 125.3 61.1008 125.9 61.1008C126.1 61.1008 126.4 61.1008 126.6 61.0008V61.6008Z" fill="#0084D9"/>
<path d="M127.9 57.6992V58.2992H127.2V57.6992H127.9ZM127.9 58.7992V61.7992H127.2V58.7992H127.9Z" fill="#0084D9"/>
<path d="M128.4 60.1992C128.4 59.1992 128.9 58.6992 129.9 58.6992C130.9 58.6992 131.4 59.1992 131.4 60.1992C131.4 61.1992 130.9 61.6992 129.9 61.6992C128.9 61.6992 128.4 61.1992 128.4 60.1992ZM129.9 61.1992C130.4 61.1992 130.6 60.8992 130.6 60.2992C130.6 59.6992 130.4 59.3992 129.9 59.3992C129.4 59.3992 129.2 59.6992 129.2 60.2992C129.2 60.8992 129.4 61.1992 129.9 61.1992ZM129.9 57.6992H130.8L130.1 58.3992H129.5L129.9 57.6992Z" fill="#0084D9"/>
<path d="M131.9 61.6992V58.6992H132.5L132.6 59.0992C132.9 58.7992 133.2 58.6992 133.6 58.6992C134.3 58.6992 134.6 59.0992 134.6 59.7992V61.6992H133.9V59.7992C133.9 59.4992 133.7 59.2992 133.4 59.2992C133.2 59.2992 132.9 59.3992 132.7 59.5992V61.6992H131.9Z" fill="#0084D9"/>
<path d="M139.2 61.4992C138.7 61.5992 138.3 61.6992 137.9 61.6992C136.9 61.6992 136.5 61.1992 136.5 60.1992C136.5 59.2992 137 58.7992 137.9 58.7992C138.1 58.7992 138.3 58.7992 138.5 58.8992V57.6992H139.2V61.4992ZM138.4 59.4992C138.2 59.3992 138.1 59.2992 137.8 59.2992C137.3 59.2992 137.1 59.5992 137.1 60.0992C137.1 60.6992 137.3 60.9992 137.8 60.9992C138 60.9992 138.2 60.9992 138.4 60.8992V59.4992Z" fill="#0084D9"/>
<path d="M141.1 58.8008C142 58.8008 142.4 59.3008 142.4 60.2008C142.4 60.3008 142.4 60.4008 142.4 60.6008H140.4C140.4 61.0008 140.7 61.2008 141.3 61.2008C141.6 61.2008 141.9 61.2008 142.2 61.1008V61.7008C141.9 61.8008 141.6 61.8008 141.2 61.8008C140.1 61.8008 139.6 61.3008 139.6 60.3008C139.7 59.3008 140.2 58.8008 141.1 58.8008ZM140.5 60.0008H141.8C141.8 59.6008 141.6 59.4008 141.2 59.4008C140.7 59.4008 140.5 59.6008 140.5 60.0008Z" fill="#0084D9"/>
<path d="M144.3 61.6992V58.6992H144.9L145 59.0992C145.3 58.7992 145.5 58.6992 145.8 58.6992V59.2992C145.5 59.2992 145.3 59.3992 145.1 59.5992V61.5992H144.3V61.6992Z" fill="#0084D9"/>
<path d="M147.5 58.8008C148.4 58.8008 148.8 59.3008 148.8 60.2008C148.8 60.3008 148.8 60.4008 148.8 60.6008H146.8C146.8 61.0008 147.1 61.2008 147.7 61.2008C148 61.2008 148.3 61.2008 148.6 61.1008V61.7008C148.3 61.8008 148 61.8008 147.6 61.8008C146.5 61.8008 146 61.3008 146 60.3008C146.1 59.3008 146.5 58.8008 147.5 58.8008ZM146.8 60.0008H148.1C148.1 59.6008 147.9 59.4008 147.5 59.4008C147.1 59.4008 146.9 59.6008 146.8 60.0008Z" fill="#0084D9"/>
<path d="M151.5 61.6008C151.3 61.7008 151 61.7008 150.7 61.7008C149.7 61.7008 149.1 61.2008 149.1 60.2008C149.1 59.3008 149.6 58.8008 150.7 58.8008C151 58.8008 151.2 58.8008 151.5 58.9008V59.5008C151.3 59.4008 151 59.4008 150.8 59.4008C150.2 59.4008 149.9 59.7008 149.9 60.2008C149.9 60.8008 150.2 61.1008 150.8 61.1008C151 61.1008 151.3 61.1008 151.5 61.0008V61.6008Z" fill="#0084D9"/>
<path d="M152.8 57.6992V58.2992H152V57.6992H152.8ZM152.8 58.7992V61.7992H152V58.7992H152.8Z" fill="#0084D9"/>
<path d="M153.5 57.6992H154.2V58.9992C154.4 58.7992 154.7 58.7992 154.9 58.7992C155.7 58.7992 156.2 59.2992 156.2 60.1992C156.2 61.1992 155.7 61.6992 154.8 61.6992C154.4 61.6992 154 61.6992 153.5 61.5992V57.6992ZM154.2 60.9992C154.4 61.0992 154.6 61.0992 154.8 61.0992C155.3 61.0992 155.5 60.7992 155.5 60.0992C155.5 59.5992 155.3 59.2992 154.9 59.2992C154.6 59.2992 154.4 59.3992 154.2 59.4992V60.9992Z" fill="#0084D9"/>
<path d="M156.7 60.1992C156.7 59.1992 157.2 58.6992 158.2 58.6992C159.2 58.6992 159.7 59.1992 159.7 60.1992C159.7 61.1992 159.2 61.6992 158.2 61.6992C157.1 61.6992 156.7 61.1992 156.7 60.1992ZM158.1 61.1992C158.6 61.1992 158.8 60.8992 158.8 60.2992C158.8 59.6992 158.6 59.3992 158.1 59.3992C157.6 59.3992 157.4 59.6992 157.4 60.2992C157.4 60.8992 157.6 61.1992 158.1 61.1992Z" fill="#0084D9"/>
<path d="M160.1 61.6008V61.0008C160.4 61.1008 160.8 61.2008 161.2 61.2008C161.5 61.2008 161.7 61.1008 161.7 60.9008C161.7 60.7008 161.6 60.6008 161.4 60.6008H160.9C160.3 60.6008 160 60.3008 160 59.7008C160 59.1008 160.4 58.8008 161.3 58.8008C161.7 58.8008 162 58.9008 162.3 59.0008V59.6008C162 59.5008 161.6 59.4008 161.2 59.4008C160.8 59.4008 160.6 59.5008 160.6 59.7008C160.6 59.9008 160.7 60.0008 161 60.0008H161.5C162.2 60.0008 162.5 60.3008 162.5 60.9008C162.5 61.5008 162.1 61.8008 161.2 61.8008C160.8 61.8008 160.5 61.7008 160.1 61.6008Z" fill="#0084D9"/>
<path d="M175.8 57.8016C176.2 57.7016 176.6 57.6016 177 57.6016C178 57.6016 178.5 58.0016 178.5 58.7016C178.5 59.1016 178.3 59.4016 178 59.6016C178.4 59.8016 178.5 60.1016 178.5 60.5016C178.5 61.3016 178 61.7016 177 61.7016C176.6 61.7016 176.2 61.6016 175.8 61.5016V60.8016C176.2 60.9016 176.6 61.0016 177 61.0016C177.5 61.0016 177.8 60.8016 177.8 60.4016C177.8 60.1016 177.6 59.9016 177.3 59.9016H176.3V59.3016H177.3C177.7 59.3016 177.8 59.1016 177.8 58.8016C177.8 58.4016 177.5 58.3016 177 58.3016C176.6 58.3016 176.2 58.4016 175.8 58.5016V57.8016Z" fill="#0084D9"/>
<path d="M179.7 61V61.7H179V61H179.7Z" fill="#0084D9"/>
<path d="M181.7 61.7031V57.7031H182.5L183.9 60.8031L185.2 57.7031H185.9V61.7031H185.2V58.9031L184.1 61.7031H183.5L182.4 58.9031V61.7031H181.7Z" fill="#0084D9"/>
<path d="M187.9 58.8008C188.8 58.8008 189.2 59.3008 189.2 60.2008C189.2 60.3008 189.2 60.4008 189.2 60.6008H187.2C187.2 61.0008 187.5 61.2008 188.1 61.2008C188.4 61.2008 188.7 61.2008 189 61.1008V61.7008C188.7 61.8008 188.4 61.8008 188 61.8008C186.9 61.8008 186.4 61.3008 186.4 60.3008C186.5 59.3008 187 58.8008 187.9 58.8008ZM187.3 60.0008H188.6C188.6 59.6008 188.4 59.4008 188 59.4008C187.5 59.4008 187.3 59.6008 187.3 60.0008Z" fill="#0084D9"/>
<path d="M192.5 61.5031C192 61.6031 191.6 61.7031 191.2 61.7031C190.2 61.7031 189.8 61.2031 189.8 60.2031C189.8 59.3031 190.3 58.8031 191.2 58.8031C191.4 58.8031 191.6 58.8031 191.8 58.9031V57.7031H192.5V61.5031ZM191.7 59.5031C191.5 59.4031 191.4 59.3031 191.1 59.3031C190.6 59.3031 190.4 59.6031 190.4 60.1031C190.4 60.7031 190.6 61.0031 191.1 61.0031C191.3 61.0031 191.5 61.0031 191.7 60.9031V59.5031Z" fill="#0084D9"/>
<path d="M193.9 57.7031V58.3031H193.2V57.7031H193.9ZM193.9 58.8031V61.8031H193.2V58.8031H193.9Z" fill="#0084D9"/>
<path d="M194.5 60.2031C194.5 59.2031 195 58.7031 196 58.7031C197 58.7031 197.5 59.2031 197.5 60.2031C197.5 61.2031 197 61.7031 196 61.7031C195 61.7031 194.5 61.2031 194.5 60.2031ZM195.9 61.2031C196.4 61.2031 196.6 60.9031 196.6 60.3031C196.6 59.7031 196.4 59.4031 195.9 59.4031C195.4 59.4031 195.2 59.7031 195.2 60.3031C195.2 60.9031 195.4 61.2031 195.9 61.2031Z" fill="#0084D9"/>
<path d="M201.8 61.5031C201.3 61.6031 200.9 61.7031 200.5 61.7031C199.5 61.7031 199.1 61.2031 199.1 60.2031C199.1 59.3031 199.6 58.8031 200.5 58.8031C200.7 58.8031 200.9 58.8031 201.1 58.9031V57.7031H201.8V61.5031ZM201.1 59.5031C200.9 59.4031 200.8 59.3031 200.5 59.3031C200 59.3031 199.8 59.6031 199.8 60.1031C199.8 60.7031 200 61.0031 200.5 61.0031C200.7 61.0031 200.9 61.0031 201.1 60.9031V59.5031Z" fill="#0084D9"/>
<path d="M203.8 58.8008C204.7 58.8008 205.1 59.3008 205.1 60.2008C205.1 60.3008 205.1 60.4008 205.1 60.6008H203.1C203.1 61.0008 203.4 61.2008 204 61.2008C204.3 61.2008 204.6 61.2008 204.9 61.1008V61.7008C204.6 61.8008 204.3 61.8008 203.9 61.8008C202.8 61.8008 202.3 61.3008 202.3 60.3008C202.4 59.3008 202.9 58.8008 203.8 58.8008ZM203.1 60.0008H204.4C204.4 59.6008 204.2 59.4008 203.8 59.4008C203.4 59.4008 203.2 59.6008 203.1 60.0008Z" fill="#0084D9"/>
<path d="M207 58.9008C207.4 58.8008 207.8 58.8008 208.2 58.8008C209.2 58.8008 209.7 59.3008 209.7 60.2008C209.7 61.2008 209.2 61.7008 208.3 61.7008C208.1 61.7008 207.9 61.7008 207.7 61.6008V62.8008H207V58.9008ZM207.7 61.0008C207.9 61.1008 208.1 61.2008 208.3 61.2008C208.7 61.2008 209 60.9008 209 60.3008C209 59.8008 208.8 59.5008 208.3 59.5008C208.1 59.5008 207.9 59.5008 207.8 59.5008V61.0008H207.7Z" fill="#0084D9"/>
<path d="M210.1 60.8008C210.1 60.2008 210.5 59.9008 211.4 59.9008C211.6 59.9008 211.8 59.9008 212 60.0008V59.8008C212 59.5008 211.8 59.4008 211.4 59.4008C211.1 59.4008 210.7 59.4008 210.3 59.5008V58.9008C210.7 58.8008 211.1 58.8008 211.4 58.8008C212.3 58.8008 212.7 59.1008 212.7 59.8008V61.8008H212.3L212 61.5008C211.7 61.7008 211.5 61.8008 211.2 61.8008C210.5 61.7008 210.1 61.4008 210.1 60.8008ZM211.4 60.4008C211 60.4008 210.9 60.5008 210.9 60.8008C210.9 61.1008 211.1 61.2008 211.4 61.2008C211.6 61.2008 211.9 61.1008 212.1 61.0008V60.5008C211.8 60.5008 211.6 60.4008 211.4 60.4008Z" fill="#0084D9"/>
<path d="M216.1 61.5031C216.1 62.4031 215.6 62.8031 214.5 62.8031C214.1 62.8031 213.8 62.8031 213.5 62.7031V62.1031C213.8 62.2031 214.1 62.2031 214.5 62.2031C215 62.2031 215.3 62.0031 215.3 61.5031C215.1 61.6031 214.8 61.6031 214.6 61.6031C213.7 61.6031 213.3 61.1031 213.3 60.2031C213.3 59.2031 213.8 58.7031 214.8 58.7031C215.1 58.7031 215.6 58.7031 216 58.8031V61.5031H216.1ZM215.3 59.4031C215.2 59.4031 215 59.3031 214.8 59.3031C214.3 59.3031 214 59.6031 214 60.2031C214 60.7031 214.2 61.0031 214.7 61.0031C214.9 61.0031 215.1 60.9031 215.3 60.8031V59.4031Z" fill="#0084D9"/>
<path d="M216.7 60.2031C216.7 59.2031 217.2 58.7031 218.2 58.7031C219.2 58.7031 219.7 59.2031 219.7 60.2031C219.7 61.2031 219.2 61.7031 218.2 61.7031C217.1 61.7031 216.7 61.2031 216.7 60.2031ZM218.1 61.2031C218.6 61.2031 218.8 60.9031 218.8 60.3031C218.8 59.7031 218.6 59.4031 218.1 59.4031C217.6 59.4031 217.4 59.7031 217.4 60.3031C217.4 60.9031 217.6 61.2031 218.1 61.2031Z" fill="#0084D9"/>
<path d="M248.8 61.7016H248V60.8016H246V60.2016L247.6 57.6016H248.4L246.8 60.2016H248V58.9016H248.7V60.2016L249.1 60.6016V60.8016H248.7V61.7016H248.8Z" fill="#0084D9"/>
<path d="M250.3 61V61.7H249.6V61H250.3Z" fill="#0084D9"/>
<path d="M255.5 61.6031C255.2 61.7031 254.8 61.8031 254.3 61.8031C252.9 61.8031 252.1 61.1031 252.1 59.7031C252.1 58.4031 252.8 57.7031 254.3 57.7031C254.7 57.7031 255.1 57.8031 255.5 57.9031V58.6031C255.2 58.4031 254.8 58.4031 254.4 58.4031C253.4 58.4031 253 58.8031 253 59.7031C253 60.7031 253.5 61.1031 254.4 61.1031C254.8 61.1031 255.2 61.0031 255.5 60.9031V61.6031Z" fill="#0084D9"/>
<path d="M256 60.2031C256 59.2031 256.5 58.7031 257.5 58.7031C258.5 58.7031 259 59.2031 259 60.2031C259 61.2031 258.5 61.7031 257.5 61.7031C256.5 61.7031 256 61.2031 256 60.2031ZM257.4 61.2031C257.9 61.2031 258.1 60.9031 258.1 60.3031C258.1 59.7031 257.9 59.4031 257.4 59.4031C256.9 59.4031 256.7 59.7031 256.7 60.3031C256.7 60.9031 256.9 61.2031 257.4 61.2031Z" fill="#0084D9"/>
<path d="M259.5 61.7031V58.7031H260.1L260.2 59.1031C260.5 58.8031 260.8 58.7031 261.2 58.7031C261.9 58.7031 262.2 59.1031 262.2 59.8031V61.7031H261.5V59.8031C261.5 59.5031 261.3 59.3031 261 59.3031C260.8 59.3031 260.5 59.4031 260.3 59.6031V61.7031H259.5Z" fill="#0084D9"/>
<path d="M265.4 58.8016V61.8016H264.7V59.4016H263.6V61.8016H262.9V58.7016C262.9 57.9016 263.3 57.6016 264.2 57.6016C264.5 57.6016 264.8 57.7016 265.2 57.8016V58.4016C264.9 58.3016 264.6 58.2016 264.3 58.2016C263.9 58.2016 263.7 58.4016 263.7 58.7016V58.9016H265.4V58.8016Z" fill="#0084D9"/>
<path d="M266.1 61.7031V58.7031H266.7L266.8 59.1031C267.1 58.8031 267.3 58.7031 267.6 58.7031V59.3031C267.3 59.3031 267.1 59.4031 266.9 59.6031V61.6031H266.1V61.7031Z" fill="#0084D9"/>
<path d="M268 61.7031V58.7031H268.6L268.7 59.1031C269 58.8031 269.3 58.7031 269.7 58.7031C270.1 58.7031 270.3 58.8031 270.5 59.1031C270.8 58.8031 271.1 58.7031 271.4 58.7031C272.1 58.7031 272.4 59.1031 272.4 59.8031V61.6031H271.7V59.7031C271.7 59.4031 271.6 59.2031 271.3 59.2031C271.1 59.2031 270.9 59.3031 270.7 59.5031V61.6031H270V59.7031C270 59.4031 269.9 59.2031 269.6 59.2031C269.4 59.2031 269.2 59.3031 269 59.5031V61.6031H268V61.7031Z" fill="#0084D9"/>
<path d="M272.9 60.8008C272.9 60.2008 273.3 59.9008 274.2 59.9008C274.4 59.9008 274.6 59.9008 274.8 60.0008V59.8008C274.8 59.5008 274.6 59.4008 274.2 59.4008C273.9 59.4008 273.5 59.4008 273.1 59.5008V58.9008C273.5 58.8008 273.9 58.8008 274.2 58.8008C275.1 58.8008 275.5 59.1008 275.5 59.8008V61.8008H275.1L274.8 61.5008C274.5 61.7008 274.3 61.8008 274 61.8008C273.3 61.7008 272.9 61.4008 272.9 60.8008ZM274.2 60.4008C273.8 60.4008 273.7 60.5008 273.7 60.8008C273.7 61.1008 273.8 61.2008 274.2 61.2008C274.4 61.2008 274.7 61.1008 274.9 61.0008V60.5008C274.6 60.5008 274.4 60.4008 274.2 60.4008Z" fill="#0084D9"/>
<path d="M276.3 61.7031V58.7031H276.9L277 59.1031C277.3 58.8031 277.5 58.7031 277.8 58.7031V59.3031C277.5 59.3031 277.3 59.4031 277.1 59.6031V61.6031H276.3V61.7031Z" fill="#0084D9"/>
<path d="M296.6 57.6992H299V58.2992H297.2L297.1 59.2992C297.2 59.2992 297.4 59.1992 297.6 59.1992C298.6 59.1992 299.1 59.5992 299.1 60.3992C299.1 61.2992 298.6 61.6992 297.5 61.6992C297.1 61.6992 296.7 61.5992 296.4 61.4992V60.9992C296.8 61.0992 297.2 61.1992 297.6 61.1992C298.1 61.1992 298.4 60.9992 298.4 60.4992C298.4 60.0992 298.1 59.8992 297.6 59.8992C297.2 59.8992 296.8 59.8992 296.4 59.9992L296.6 57.6992Z" fill="#919CA3"/>
<path d="M300.4 61V61.7H299.7V61H300.4Z" fill="#919CA3"/>
<path d="M305.6 61.5992C305.3 61.6992 304.9 61.7992 304.4 61.7992C303 61.7992 302.2 61.0992 302.2 59.6992C302.2 58.3992 302.9 57.6992 304.4 57.6992C304.8 57.6992 305.2 57.7992 305.6 57.8992V58.5992C305.3 58.3992 304.9 58.3992 304.5 58.3992C303.5 58.3992 303.1 58.7992 303.1 59.6992C303.1 60.6992 303.6 61.0992 304.5 61.0992C304.9 61.0992 305.3 60.9992 305.6 60.8992V61.5992Z" fill="#919CA3"/>
<path d="M306.1 60.1992C306.1 59.1992 306.6 58.6992 307.6 58.6992C308.6 58.6992 309.1 59.1992 309.1 60.1992C309.1 61.1992 308.6 61.6992 307.6 61.6992C306.6 61.6992 306.1 61.1992 306.1 60.1992ZM307.5 61.1992C308 61.1992 308.2 60.8992 308.2 60.2992C308.2 59.6992 308 59.3992 307.5 59.3992C307 59.3992 306.8 59.6992 306.8 60.2992C306.8 60.8992 307.1 61.1992 307.5 61.1992Z" fill="#919CA3"/>
<path d="M309.6 61.6992V58.6992H310.2L310.3 59.0992C310.6 58.7992 310.9 58.6992 311.3 58.6992C312 58.6992 312.3 59.0992 312.3 59.7992V61.6992H311.6V59.7992C311.6 59.4992 311.4 59.2992 311.1 59.2992C310.9 59.2992 310.6 59.3992 310.4 59.5992V61.6992H309.6Z" fill="#919CA3"/>
<path d="M313 61.6008V61.0008C313.3 61.1008 313.7 61.2008 314.1 61.2008C314.4 61.2008 314.6 61.1008 314.6 60.9008C314.6 60.7008 314.5 60.6008 314.3 60.6008H313.8C313.2 60.6008 312.9 60.3008 312.9 59.7008C312.9 59.1008 313.3 58.8008 314.2 58.8008C314.6 58.8008 314.9 58.9008 315.2 59.0008V59.6008C314.9 59.5008 314.5 59.4008 314.1 59.4008C313.7 59.4008 313.5 59.5008 313.5 59.7008C313.5 59.9008 313.6 60.0008 313.9 60.0008H314.4C315.1 60.0008 315.4 60.3008 315.4 60.9008C315.4 61.5008 315 61.8008 314.1 61.8008C313.7 61.8008 313.3 61.7008 313 61.6008Z" fill="#919CA3"/>
<path d="M315.8 58.3008H316.4L316.5 58.8008H317.2V59.4008H316.5V60.8008C316.5 61.1008 316.6 61.2008 316.9 61.2008H317.2V61.8008H316.5C316 61.8008 315.8 61.5008 315.8 61.0008V58.3008Z" fill="#919CA3"/>
<path d="M317.6 60.8008C317.6 60.2008 318 59.9008 318.9 59.9008C319.1 59.9008 319.3 59.9008 319.5 60.0008V59.8008C319.5 59.5008 319.3 59.4008 318.9 59.4008C318.6 59.4008 318.2 59.4008 317.8 59.5008V58.9008C318.2 58.8008 318.6 58.8008 318.9 58.8008C319.8 58.8008 320.2 59.1008 320.2 59.8008V61.8008H319.8L319.5 61.5008C319.2 61.7008 319 61.8008 318.7 61.8008C317.9 61.7008 317.6 61.4008 317.6 60.8008ZM318.9 60.4008C318.5 60.4008 318.4 60.5008 318.4 60.8008C318.4 61.1008 318.5 61.2008 318.9 61.2008C319.1 61.2008 319.4 61.1008 319.6 61.0008V60.5008C319.3 60.5008 319.1 60.4008 318.9 60.4008Z" fill="#919CA3"/>
<path d="M320.9 61.6992V58.6992H321.5L321.6 59.0992C321.9 58.7992 322.2 58.6992 322.6 58.6992C323.3 58.6992 323.6 59.0992 323.6 59.7992V61.6992H322.9V59.7992C322.9 59.4992 322.7 59.2992 322.4 59.2992C322.2 59.2992 321.9 59.3992 321.7 59.5992V61.6992H320.9Z" fill="#919CA3"/>
<path d="M326.5 61.6008C326.3 61.7008 326 61.7008 325.7 61.7008C324.7 61.7008 324.1 61.2008 324.1 60.2008C324.1 59.3008 324.6 58.8008 325.7 58.8008C326 58.8008 326.2 58.8008 326.5 58.9008V59.5008C326.3 59.4008 326 59.4008 325.8 59.4008C325.2 59.4008 324.9 59.7008 324.9 60.2008C324.9 60.8008 325.2 61.1008 325.8 61.1008C326 61.1008 326.3 61.1008 326.5 61.0008V61.6008Z" fill="#919CA3"/>
<path d="M327.7 57.6992V58.2992H327V57.6992H327.7ZM327.7 58.7992V61.7992H327V58.7992H327.7Z" fill="#919CA3"/>
<path d="M328.3 60.8008C328.3 60.2008 328.7 59.9008 329.6 59.9008C329.8 59.9008 330 59.9008 330.2 60.0008V59.8008C330.2 59.5008 330 59.4008 329.6 59.4008C329.3 59.4008 328.9 59.4008 328.5 59.5008V58.9008C328.9 58.8008 329.3 58.8008 329.6 58.8008C330.5 58.8008 330.9 59.1008 330.9 59.8008V61.8008H330.5L330.2 61.5008C329.9 61.7008 329.7 61.8008 329.4 61.8008C328.6 61.7008 328.3 61.4008 328.3 60.8008ZM329.6 60.4008C329.2 60.4008 329.1 60.5008 329.1 60.8008C329.1 61.1008 329.3 61.2008 329.6 61.2008C329.8 61.2008 330.1 61.1008 330.3 61.0008V60.5008C330 60.5008 329.8 60.4008 329.6 60.4008Z" fill="#919CA3"/>
<path d="M67.3998 71.2C69.388 71.2 70.9998 69.5882 70.9998 67.6C70.9998 65.6118 69.388 64 67.3998 64C65.4116 64 63.7998 65.6118 63.7998 67.6C63.7998 69.5882 65.4116 71.2 67.3998 71.2Z" fill="#D0DEE8"/>
<path d="M67.3998 69.2C68.2835 69.2 68.9998 68.4837 68.9998 67.6C68.9998 66.7163 68.2835 66 67.3998 66C66.5161 66 65.7998 66.7163 65.7998 67.6C65.7998 68.4837 66.5161 69.2 67.3998 69.2Z" fill="#0084D9"/>
<path d="M131.7 71.2C133.688 71.2 135.3 69.5882 135.3 67.6C135.3 65.6118 133.688 64 131.7 64C129.712 64 128.1 65.6118 128.1 67.6C128.1 69.5882 129.712 71.2 131.7 71.2Z" fill="#D0DEE8"/>
<path d="M131.7 69.2C132.584 69.2 133.3 68.4837 133.3 67.6C133.3 66.7163 132.584 66 131.7 66C130.816 66 130.1 66.7163 130.1 67.6C130.1 68.4837 130.816 69.2 131.7 69.2Z" fill="#0084D9"/>
<path d="M195.9 71.2C197.888 71.2 199.5 69.5882 199.5 67.6C199.5 65.6118 197.888 64 195.9 64C193.912 64 192.3 65.6118 192.3 67.6C192.3 69.5882 193.912 71.2 195.9 71.2Z" fill="#D0DEE8"/>
<path d="M195.9 69.2C196.783 69.2 197.5 68.4837 197.5 67.6C197.5 66.7163 196.783 66 195.9 66C195.016 66 194.3 66.7163 194.3 67.6C194.3 68.4837 195.016 69.2 195.9 69.2Z" fill="#0084D9"/>
<path d="M260.1 71.2C262.088 71.2 263.7 69.5882 263.7 67.6C263.7 65.6118 262.088 64 260.1 64C258.112 64 256.5 65.6118 256.5 67.6C256.5 69.5882 258.112 71.2 260.1 71.2Z" fill="#D0DEE8"/>
<path d="M260.1 69.2C260.984 69.2 261.7 68.4837 261.7 67.6C261.7 66.7163 260.984 66 260.1 66C259.216 66 258.5 66.7163 258.5 67.6C258.5 68.4837 259.216 69.2 260.1 69.2Z" fill="#0084D9"/>
<path d="M324.3 71.2C326.288 71.2 327.9 69.5882 327.9 67.6C327.9 65.6118 326.288 64 324.3 64C322.312 64 320.7 65.6118 320.7 67.6C320.7 69.5882 322.312 71.2 324.3 71.2Z" fill="#D0DEE8"/>
<path d="M324.3 69.2C325.184 69.2 325.9 68.4837 325.9 67.6C325.9 66.7163 325.184 66 324.3 66C323.417 66 322.7 66.7163 322.7 67.6C322.7 68.4837 323.417 69.2 324.3 69.2Z" fill="#94BBD5"/>
<path d="M260.1 66.6992H67.2002V68.5992H260.1V66.6992Z" fill="#0084D9"/>
<path d="M186.8 141.199H63.7002C61.7002 141.199 60.2002 139.599 60.2002 137.699V99.1992C60.2002 97.1992 61.8002 95.6992 63.7002 95.6992H186.8C188.8 95.6992 190.3 97.2992 190.3 99.1992V137.699C190.3 139.699 188.7 141.199 186.8 141.199Z" fill="#D8F6FC"/>
<path d="M74.9999 109.5C74.4999 109.7 73.9999 109.7 73.3999 109.7C71.3999 109.7 70.3999 108.7 70.3999 106.8C70.3999 104.9 71.3999 104 73.3999 104C73.9999 104 74.4999 104.1 74.9999 104.2V104.8C74.4999 104.6 73.9999 104.5 73.4999 104.5C71.9999 104.5 71.1999 105.2 71.1999 106.7C71.1999 108.3 71.9999 109 73.4999 109C73.9999 109 74.4999 108.9 74.9999 108.7V109.5Z" fill="#0084D9"/>
<path d="M79.6997 105.5V109.6H79.1997L79.0997 109.1C78.5997 109.5 78.0997 109.6 77.5997 109.6C76.5997 109.6 76.1997 109.1 76.1997 108.1V105.5H76.8997V108.1C76.8997 108.7 77.1997 109 77.7997 109C78.1997 109 78.5997 108.8 78.9997 108.5V105.5H79.6997Z" fill="#0084D9"/>
<path d="M82.6 105.5C83.8 105.5 84.4 106.1 84.4 107.2C84.4 107.4 84.4 107.5 84.4 107.7H81.5C81.5 108.5 82 109 83 109C83.5 109 83.9 108.9 84.3 108.8V109.4C83.9 109.5 83.5 109.6 83 109.6C81.6 109.6 80.9 108.9 80.9 107.5C80.7 106.2 81.3 105.5 82.6 105.5ZM81.4 107.2H83.6C83.6 106.5 83.2 106.1 82.5 106.1C81.9 106.1 81.5 106.5 81.4 107.2Z" fill="#0084D9"/>
<path d="M85.3999 109.702V105.602H85.8999L85.9999 106.102C86.3999 105.702 86.8999 105.602 87.3999 105.602C88.3999 105.602 88.9999 106.102 88.9999 107.102V109.702H88.2999V107.102C88.2999 106.502 87.9999 106.202 87.3999 106.202C86.9999 106.202 86.5999 106.402 86.1999 106.702V109.702H85.3999Z" fill="#0084D9"/>
<path d="M90.1001 104.898H90.6001L90.8001 105.598H91.9001V106.198H90.9001V108.598C90.9001 108.998 91.1001 109.198 91.4001 109.198H91.9001V109.798H91.2001C90.5001 109.798 90.2001 109.398 90.2001 108.698V104.898H90.1001Z" fill="#0084D9"/>
<path d="M92.6001 108.4C92.6001 107.5 93.2001 107.1 94.3001 107.1C94.7001 107.1 95.0001 107.1 95.4001 107.2V106.8C95.4001 106.3 95.0001 106.1 94.3001 106.1C93.9001 106.1 93.4001 106.2 93.0001 106.3V105.7C93.4001 105.6 93.9001 105.5 94.3001 105.5C95.5001 105.5 96.1001 105.9 96.1001 106.8V109.7H95.7001L95.4001 109.3C95.0001 109.6 94.5001 109.7 94.1001 109.7C93.1001 109.7 92.6001 109.3 92.6001 108.4ZM94.3001 107.8C93.7001 107.8 93.3001 108 93.3001 108.5C93.3001 108.9 93.6001 109.2 94.1001 109.2C94.6001 109.2 95.0001 109.1 95.4001 108.8V107.9C95.0001 107.8 94.6001 107.8 94.3001 107.8Z" fill="#0084D9"/>
<path d="M102.4 109.6C102.1 109.7 101.7 109.7 101.3 109.7C99.8001 109.7 99.1001 109 99.1001 107.5C99.1001 106.2 99.8001 105.5 101.3 105.5C101.7 105.5 102.1 105.5 102.4 105.6V106.2C102.1 106.1 101.7 106.1 101.3 106.1C100.3 106.1 99.9001 106.6 99.9001 107.5C99.9001 108.5 100.4 109.1 101.3 109.1C101.7 109.1 102.1 109.1 102.4 109V109.6Z" fill="#0084D9"/>
<path d="M103.1 108.4C103.1 107.5 103.7 107.1 104.8 107.1C105.2 107.1 105.5 107.1 105.9 107.2V106.8C105.9 106.3 105.5 106.1 104.8 106.1C104.4 106.1 103.9 106.2 103.5 106.3V105.7C103.9 105.6 104.4 105.5 104.8 105.5C106 105.5 106.6 105.9 106.6 106.8V109.7H106.2L105.9 109.3C105.5 109.6 105 109.7 104.6 109.7C103.6 109.7 103.1 109.3 103.1 108.4ZM104.8 107.8C104.2 107.8 103.8 108 103.8 108.5C103.8 108.9 104.1 109.2 104.6 109.2C105.1 109.2 105.5 109.1 105.9 108.8V107.9C105.5 107.8 105.1 107.8 104.8 107.8Z" fill="#0084D9"/>
<path d="M107.8 109.702V105.602H108.3L108.4 106.102C108.8 105.702 109.2 105.602 109.7 105.602V106.202C109.2 106.202 108.8 106.402 108.5 106.702V109.702H107.8Z" fill="#0084D9"/>
<path d="M113.9 109.702C113.9 110.702 113.3 111.202 112 111.202C111.5 111.202 111 111.102 110.6 111.002V110.402C111 110.502 111.5 110.602 112 110.602C112.8 110.602 113.2 110.302 113.2 109.702V109.502C112.9 109.602 112.6 109.702 112.2 109.702C110.9 109.702 110.2 109.002 110.2 107.602C110.2 106.202 110.9 105.602 112.3 105.602C112.9 105.602 113.4 105.702 113.9 105.802V109.702ZM113.2 106.202C112.9 106.102 112.6 106.102 112.3 106.102C111.4 106.102 111 106.602 111 107.502C111 108.502 111.4 109.002 112.3 109.002C112.7 109.002 113 108.902 113.3 108.802V106.202H113.2Z" fill="#0084D9"/>
<path d="M114.9 107.6C114.9 106.2 115.6 105.5 116.9 105.5C118.2 105.5 118.9 106.2 118.9 107.6C118.9 109 118.2 109.7 116.9 109.7C115.6 109.7 114.9 109 114.9 107.6ZM116.9 109.1C117.7 109.1 118.1 108.6 118.1 107.6C118.1 106.6 117.7 106.1 116.9 106.1C116.1 106.1 115.7 106.6 115.7 107.6C115.7 108.6 116.1 109.1 116.9 109.1Z" fill="#0084D9"/>
<path d="M70.3999 117.501C70.3999 116.001 70.9999 115.301 72.2999 115.301C73.5999 115.301 74.1999 116.001 74.1999 117.501C74.1999 119.001 73.5999 119.701 72.2999 119.701C70.9999 119.701 70.3999 119.001 70.3999 117.501ZM72.2999 119.001C72.9999 119.001 73.3999 118.501 73.3999 117.501C73.3999 116.501 72.9999 116.001 72.2999 116.001C71.5999 116.001 71.1999 116.501 71.1999 117.501C71.1999 118.501 71.5999 119.001 72.2999 119.001Z" fill="#0084D9"/>
<path d="M74.6997 117.501C74.6997 116.001 75.2997 115.301 76.5997 115.301C77.8997 115.301 78.4997 116.001 78.4997 117.501C78.4997 119.001 77.8997 119.701 76.5997 119.701C75.3997 119.701 74.6997 119.001 74.6997 117.501ZM76.6997 119.001C77.3997 119.001 77.7997 118.501 77.7997 117.501C77.7997 116.501 77.3997 116.001 76.6997 116.001C75.9997 116.001 75.5997 116.501 75.5997 117.501C75.5997 118.501 75.8997 119.001 76.6997 119.001Z" fill="#0084D9"/>
<path d="M79.6001 119.701V116.001H79.1001V115.701L80.4001 115.301V119.701H79.6001Z" fill="#0084D9"/>
<path d="M81.6997 119.701V116.001H81.1997V115.701L82.4997 115.301V119.701H81.6997Z" fill="#0084D9"/>
<path d="M84.8999 117.801V118.401H83.3999V117.801H84.8999Z" fill="#0084D9"/>
<path d="M85.3999 117.501C85.3999 116.001 85.9999 115.301 87.2999 115.301C88.5999 115.301 89.1999 116.001 89.1999 117.501C89.1999 119.001 88.5999 119.701 87.2999 119.701C86.0999 119.701 85.3999 119.001 85.3999 117.501ZM87.3999 119.001C88.0999 119.001 88.4999 118.501 88.4999 117.501C88.4999 116.501 88.0999 116.001 87.3999 116.001C86.6999 116.001 86.2999 116.501 86.2999 117.501C86.2999 118.501 86.5999 119.001 87.3999 119.001Z" fill="#0084D9"/>
<path d="M89.7998 117.501C89.7998 116.001 90.3998 115.301 91.6998 115.301C92.9998 115.301 93.5998 116.001 93.5998 117.501C93.5998 119.001 92.9998 119.701 91.6998 119.701C90.4998 119.701 89.7998 119.001 89.7998 117.501ZM91.6998 119.001C92.3998 119.001 92.7998 118.501 92.7998 117.501C92.7998 116.501 92.3998 116.001 91.6998 116.001C90.9998 116.001 90.5998 116.501 90.5998 117.501C90.5998 118.501 90.9998 119.001 91.6998 119.001Z" fill="#0084D9"/>
<path d="M94.3997 115.301H96.9997V115.901H95.0997L94.9997 117.001C95.0997 117.001 95.2997 116.901 95.4997 116.901C96.5997 116.901 97.0997 117.301 97.0997 118.201C97.0997 119.101 96.4997 119.601 95.3997 119.601C94.9997 119.601 94.5997 119.501 94.1997 119.401V118.701C94.5997 118.801 94.9997 118.901 95.3997 118.901C95.9997 118.901 96.2997 118.601 96.2997 118.101C96.2997 117.601 95.9997 117.401 95.4997 117.401C94.9997 117.401 94.5997 117.501 94.1997 117.601L94.3997 115.301Z" fill="#0084D9"/>
<path d="M97.6997 115.301H100.8V115.901L98.8997 119.601H97.9997L99.9997 116.001H97.7997V115.301H97.6997Z" fill="#0084D9"/>
<path d="M102.8 117.801V118.401H101.3V117.801H102.8Z" fill="#0084D9"/>
<path d="M103.4 117.501C103.4 116.001 104 115.301 105.3 115.301C106.6 115.301 107.2 116.001 107.2 117.501C107.2 119.001 106.6 119.701 105.3 119.701C104 119.701 103.4 119.001 103.4 117.501ZM105.3 119.001C106 119.001 106.4 118.501 106.4 117.501C106.4 116.501 106 116.001 105.3 116.001C104.6 116.001 104.2 116.501 104.2 117.501C104.2 118.501 104.6 119.001 105.3 119.001Z" fill="#0084D9"/>
<path d="M107.8 119.702V119.102C109.2 118.102 110 117.302 110 116.702C110 116.302 109.7 116.102 109.2 116.102C108.8 116.102 108.3 116.202 107.9 116.402V115.702C108.3 115.502 108.7 115.402 109.2 115.402C110.3 115.402 110.8 115.802 110.8 116.702C110.8 117.402 110.2 118.202 109.1 119.102H110.8V119.802H107.8V119.702Z" fill="#0084D9"/>
<path d="M111.8 119.701V116.001H111.3V115.701L112.6 115.301V119.701H111.8Z" fill="#0084D9"/>
<path d="M113.4 118.401C113.4 117.901 113.6 117.601 114 117.401C113.7 117.201 113.5 116.901 113.5 116.401C113.5 115.701 114 115.301 115.1 115.301C116.2 115.301 116.7 115.701 116.7 116.401C116.7 116.901 116.5 117.201 116.2 117.401C116.6 117.601 116.9 118.001 116.9 118.401C116.9 119.301 116.3 119.701 115.2 119.701C114 119.701 113.4 119.301 113.4 118.401ZM116 118.401C116 118.001 115.7 117.801 115.1 117.801C114.5 117.801 114.2 118.001 114.2 118.401C114.2 118.801 114.5 119.001 115.1 119.001C115.7 119.001 116 118.801 116 118.401ZM115.9 116.501C115.9 116.201 115.6 116.001 115.1 116.001C114.6 116.001 114.3 116.201 114.3 116.501C114.3 116.901 114.6 117.101 115.1 117.101C115.6 117.101 115.9 116.901 115.9 116.501Z" fill="#0084D9"/>
<path d="M117.3 118.401C117.3 117.901 117.5 117.601 117.9 117.401C117.6 117.201 117.4 116.901 117.4 116.401C117.4 115.701 117.9 115.301 119 115.301C120.1 115.301 120.6 115.701 120.6 116.401C120.6 116.901 120.4 117.201 120.1 117.401C120.5 117.601 120.8 118.001 120.8 118.401C120.8 119.301 120.2 119.701 119.1 119.701C117.8 119.701 117.3 119.301 117.3 118.401ZM119.9 118.401C119.9 118.001 119.6 117.801 119 117.801C118.4 117.801 118.1 118.001 118.1 118.401C118.1 118.801 118.4 119.001 119 119.001C119.6 119.001 119.9 118.801 119.9 118.401ZM119.7 116.501C119.7 116.201 119.4 116.001 118.9 116.001C118.4 116.001 118.1 116.201 118.1 116.501C118.1 116.901 118.4 117.101 118.9 117.101C119.5 117.101 119.7 116.901 119.7 116.501Z" fill="#0084D9"/>
<path d="M121.2 117.501C121.2 116.001 121.8 115.301 123.1 115.301C124.4 115.301 125 116.001 125 117.501C125 119.001 124.4 119.701 123.1 119.701C121.8 119.701 121.2 119.001 121.2 117.501ZM123.1 119.001C123.8 119.001 124.2 118.501 124.2 117.501C124.2 116.501 123.8 116.001 123.1 116.001C122.4 116.001 122 116.501 122 117.501C122 118.501 122.4 119.001 123.1 119.001Z" fill="#0084D9"/>
<path d="M128.4 119.702H127.6V118.802H125.4V118.202L127.2 115.402H128.1L126.4 118.202H127.7V116.802H128.5V118.202L128.9 118.602V118.802H128.5V119.702H128.4Z" fill="#0084D9"/>
<path d="M129.3 119.702V119.102C130.7 118.102 131.5 117.302 131.5 116.702C131.5 116.302 131.2 116.102 130.7 116.102C130.3 116.102 129.8 116.202 129.4 116.402V115.702C129.8 115.502 130.2 115.402 130.7 115.402C131.8 115.402 132.3 115.802 132.3 116.702C132.3 117.402 131.7 118.202 130.6 119.102H132.3V119.802H129.3V119.702Z" fill="#0084D9"/>
<path d="M136.2 117.001C136.2 118.101 135.5 119.101 134.1 119.801L133.7 119.201C134.4 118.901 134.9 118.501 135.2 118.001C135 118.101 134.7 118.201 134.5 118.201C133.4 118.201 132.9 117.701 132.9 116.801C132.9 115.801 133.5 115.301 134.6 115.301C135.6 115.301 136.2 115.901 136.2 117.001ZM134.5 115.901C133.9 115.901 133.6 116.201 133.6 116.701C133.6 117.201 133.9 117.401 134.4 117.401C134.7 117.401 135 117.401 135.3 117.301C135.3 117.201 135.4 117.101 135.4 117.001C135.4 116.301 135.1 115.901 134.5 115.901Z" fill="#0084D9"/>
<path d="M140 117.001C140 118.101 139.3 119.101 137.9 119.801L137.5 119.201C138.2 118.901 138.7 118.501 139 118.001C138.8 118.101 138.5 118.201 138.3 118.201C137.2 118.201 136.7 117.701 136.7 116.801C136.7 115.801 137.3 115.301 138.4 115.301C139.5 115.301 140 115.901 140 117.001ZM138.4 115.901C137.8 115.901 137.5 116.201 137.5 116.701C137.5 117.201 137.8 117.401 138.3 117.401C138.6 117.401 138.9 117.401 139.2 117.301C139.2 117.201 139.3 117.101 139.3 117.001C139.2 116.301 139 115.901 138.4 115.901Z" fill="#0084D9"/>
<path d="M70.4999 129.501V128.801C70.8999 129.001 71.3999 129.001 71.9999 129.001C72.6999 129.001 72.9999 128.801 72.9999 128.301C72.9999 128.001 72.7999 127.801 72.3999 127.801H71.6999C70.7999 127.801 70.3999 127.401 70.3999 126.601C70.3999 125.701 70.9999 125.301 72.2999 125.301C72.7999 125.301 73.1999 125.401 73.6999 125.501V126.201C73.2999 126.001 72.7999 126.001 72.2999 126.001C71.5999 126.001 71.1999 126.201 71.1999 126.601C71.1999 126.901 71.3999 127.101 71.6999 127.101H72.3999C73.2999 127.101 73.7999 127.501 73.7999 128.301C73.7999 129.201 73.1999 129.701 71.9999 129.701C71.3999 129.701 70.8999 129.601 70.4999 129.501Z" fill="#0084D9"/>
<path d="M74.2998 127.501C74.2998 126.001 74.9998 125.301 76.4998 125.301C77.8998 125.301 78.5998 126.001 78.5998 127.501C78.5998 129.001 77.8998 129.701 76.4998 129.701C75.0998 129.701 74.2998 129.001 74.2998 127.501ZM76.4998 129.001C77.3998 129.001 77.7998 128.501 77.7998 127.501C77.7998 126.501 77.3998 126.001 76.4998 126.001C75.5998 126.001 75.1998 126.501 75.1998 127.501C75.0998 128.501 75.5998 129.001 76.4998 129.001Z" fill="#0084D9"/>
<path d="M80.1999 125.301V128.901H81.8999V129.601H79.3999V125.301H80.1999Z" fill="#0084D9"/>
<path d="M85.6001 125.301V126.001H83.4001V127.101H85.5001V127.801H83.4001V128.901H85.6001V129.601H82.6001V125.301H85.6001Z" fill="#0084D9"/>
<path d="M86.2997 129.501V128.801C86.6997 129.001 87.1997 129.001 87.7997 129.001C88.4997 129.001 88.7997 128.801 88.7997 128.301C88.7997 128.001 88.5997 127.801 88.1997 127.801H87.4997C86.5997 127.801 86.1997 127.401 86.1997 126.601C86.1997 125.701 86.7997 125.301 88.0997 125.301C88.5997 125.301 88.9997 125.401 89.4997 125.501V126.201C89.0997 126.001 88.5997 126.001 88.0997 126.001C87.3997 126.001 86.9997 126.201 86.9997 126.601C86.9997 126.901 87.1997 127.101 87.4997 127.101H88.1997C89.0997 127.101 89.5997 127.501 89.5997 128.301C89.5997 129.201 88.9997 129.701 87.7997 129.701C87.1997 129.701 86.6997 129.601 86.2997 129.501Z" fill="#0084D9"/>
<path d="M328.6 141.199H205.5C203.5 141.199 202 139.599 202 137.699V99.1992C202 97.1992 203.6 95.6992 205.5 95.6992H328.6C330.6 95.6992 332.1 97.2992 332.1 99.1992V137.699C332.1 139.699 330.5 141.199 328.6 141.199Z" fill="#D8F6FC"/>
<path d="M212.6 109.7V104H214.9C216.1 104 216.6 104.5 216.6 105.5C216.6 106.6 215.8 107.3 214.2 107.5L214 106.9C215.2 106.7 215.7 106.3 215.7 105.5C215.7 104.9 215.4 104.6 214.7 104.6H213.2V109.6H212.6V109.7Z" fill="#0084D9"/>
<path d="M217.3 108.4C217.3 107.5 217.9 107.1 219 107.1C219.4 107.1 219.7 107.1 220.1 107.2V106.8C220.1 106.3 219.7 106.1 219 106.1C218.6 106.1 218.1 106.2 217.7 106.3V105.7C218.1 105.6 218.6 105.5 219 105.5C220.2 105.5 220.8 105.9 220.8 106.8V109.7H220.4L220.1 109.3C219.7 109.6 219.2 109.7 218.7 109.7C217.8 109.7 217.3 109.3 217.3 108.4ZM219 107.8C218.4 107.8 218 108 218 108.5C218 108.9 218.3 109.2 218.8 109.2C219.3 109.2 219.7 109.1 220.1 108.8V107.9C219.7 107.8 219.3 107.8 219 107.8Z" fill="#0084D9"/>
<path d="M225.5 109.702C225.5 110.702 224.9 111.202 223.6 111.202C223.1 111.202 222.6 111.102 222.2 111.002V110.402C222.6 110.502 223.1 110.602 223.6 110.602C224.4 110.602 224.8 110.302 224.8 109.702V109.502C224.5 109.602 224.2 109.702 223.8 109.702C222.5 109.702 221.8 109.002 221.8 107.602C221.8 106.202 222.5 105.602 223.9 105.602C224.5 105.602 225 105.702 225.5 105.802V109.702ZM224.7 106.202C224.4 106.102 224.1 106.102 223.8 106.102C222.9 106.102 222.5 106.602 222.5 107.502C222.5 108.502 222.9 109.002 223.8 109.002C224.2 109.002 224.5 108.902 224.8 108.802V106.202H224.7Z" fill="#0084D9"/>
<path d="M226.4 107.6C226.4 106.2 227.1 105.5 228.4 105.5C229.7 105.5 230.4 106.2 230.4 107.6C230.4 109 229.7 109.7 228.4 109.7C227.1 109.7 226.4 109 226.4 107.6ZM228.4 109.1C229.2 109.1 229.6 108.6 229.6 107.6C229.6 106.6 229.2 106.1 228.4 106.1C227.6 106.1 227.2 106.6 227.2 107.6C227.2 108.6 227.6 109.1 228.4 109.1Z" fill="#0084D9"/>
<path d="M236.9 109.4C236.4 109.6 235.8 109.6 235 109.6C233.8 109.6 233.1 108.9 233.1 107.4C233.1 106.1 233.8 105.4 235.1 105.4C235.5 105.4 235.8 105.5 236.1 105.6V104H236.8V109.4H236.9ZM236.1 106.4C235.8 106.3 235.5 106.2 235.1 106.2C234.3 106.2 233.8 106.6 233.8 107.5C233.8 108.5 234.2 109.1 235.1 109.1C235.5 109.1 235.8 109 236.1 108.9V106.4Z" fill="#0084D9"/>
<path d="M239.8 105.5C241 105.5 241.6 106.1 241.6 107.2C241.6 107.4 241.6 107.5 241.6 107.7H238.7C238.7 108.5 239.2 109 240.2 109C240.7 109 241.1 108.9 241.5 108.8V109.4C241.1 109.5 240.7 109.6 240.2 109.6C238.8 109.6 238.1 108.9 238.1 107.5C237.9 106.2 238.5 105.5 239.8 105.5ZM238.6 107.2H240.8C240.8 106.5 240.4 106.1 239.7 106.1C239 106.1 238.6 106.5 238.6 107.2Z" fill="#0084D9"/>
<path d="M244.5 109.5V108.8C245.1 109 245.7 109.1 246.4 109.1C247.4 109.1 247.9 108.7 247.9 108C247.9 107.4 247.5 107.1 246.8 107.1H246.1C244.9 107.1 244.3 106.6 244.3 105.6C244.3 104.5 245.1 104 246.6 104C247.3 104 247.9 104.1 248.4 104.2V104.9C247.8 104.7 247.2 104.6 246.6 104.6C245.6 104.6 245.1 104.9 245.1 105.6C245.1 106.2 245.4 106.5 246.1 106.5H246.8C248 106.5 248.6 107 248.6 108C248.6 109.1 247.9 109.7 246.4 109.7C245.7 109.7 245.1 109.7 244.5 109.5Z" fill="#0084D9"/>
<path d="M251.3 105.5C252.5 105.5 253.1 106.1 253.1 107.2C253.1 107.4 253.1 107.5 253.1 107.7H250.2C250.2 108.5 250.7 109 251.7 109C252.2 109 252.6 108.9 253 108.8V109.4C252.6 109.5 252.2 109.6 251.7 109.6C250.3 109.6 249.6 108.9 249.6 107.5C249.4 106.2 250 105.5 251.3 105.5ZM250.1 107.2H252.3C252.3 106.5 251.9 106.1 251.2 106.1C250.5 106.1 250.2 106.5 250.1 107.2Z" fill="#0084D9"/>
<path d="M254 109.702V105.602H254.5L254.6 106.102C255 105.702 255.4 105.602 255.9 105.602V106.202C255.4 106.202 255 106.402 254.7 106.702V109.702H254Z" fill="#0084D9"/>
<path d="M256.1 105.5H256.9L258.1 108.7L259.3 105.5H260.1L258.4 109.6H257.7L256.1 105.5Z" fill="#0084D9"/>
<path d="M261.5 104V104.7H260.8V104H261.5ZM261.5 105.5V109.6H260.8V105.5H261.5Z" fill="#0084D9"/>
<path d="M265.8 109.6C265.5 109.7 265.1 109.7 264.7 109.7C263.2 109.7 262.5 109 262.5 107.5C262.5 106.2 263.2 105.5 264.7 105.5C265.1 105.5 265.5 105.5 265.8 105.6V106.2C265.5 106.1 265.1 106.1 264.7 106.1C263.7 106.1 263.3 106.6 263.3 107.5C263.3 108.5 263.8 109.1 264.7 109.1C265.1 109.1 265.5 109.1 265.8 109V109.6Z" fill="#0084D9"/>
<path d="M267.6 104V104.7H266.9V104H267.6ZM267.6 105.5V109.6H266.9V105.5H267.6Z" fill="#0084D9"/>
<path d="M268.6 107.6C268.6 106.2 269.3 105.5 270.6 105.5C271.9 105.5 272.6 106.2 272.6 107.6C272.6 109 271.9 109.7 270.6 109.7C269.3 109.7 268.6 109 268.6 107.6ZM270.6 109.1C271.4 109.1 271.8 108.6 271.8 107.6C271.8 106.6 271.4 106.1 270.6 106.1C269.8 106.1 269.4 106.6 269.4 107.6C269.4 108.6 269.8 109.1 270.6 109.1Z" fill="#0084D9"/>
<path d="M212.8 119.702H212L213.8 115.402H214.7L216.6 119.702H215.7L215.2 118.502H213.8L214.1 117.802H215L214.3 116.202L212.8 119.702Z" fill="#0084D9"/>
<path d="M220.5 119.501C220.1 119.601 219.7 119.701 219.2 119.701C217.6 119.701 216.9 118.901 216.9 117.401C216.9 116.001 217.7 115.301 219.2 115.301C219.7 115.301 220.1 115.401 220.5 115.501V116.201C220.1 116.001 219.7 116.001 219.3 116.001C218.3 116.001 217.7 116.501 217.7 117.401C217.7 118.401 218.2 119.001 219.3 119.001C219.7 119.001 220.1 118.901 220.5 118.801V119.501Z" fill="#0084D9"/>
<path d="M221.7 119.702H220.9L222.7 115.402H223.6L225.5 119.702H224.6L224.1 118.502H222.7L223 117.802H223.9L223.2 116.202L221.7 119.702Z" fill="#0084D9"/>
<path d="M226 119.702V115.402H227.7C229.1 115.402 229.9 116.102 229.9 117.402C229.9 118.902 229.2 119.702 227.7 119.702H226ZM227.7 119.002C228.6 119.002 229 118.502 229 117.402C229 116.502 228.5 116.002 227.7 116.002H226.8V118.902H227.7V119.002Z" fill="#0084D9"/>
<path d="M233.5 115.301V116.001H231.3V117.101H233.4V117.801H231.3V118.901H233.5V119.601H230.5V115.301H233.5Z" fill="#0084D9"/>
<path d="M234.3 119.702V115.402H235.1L236.6 118.702L238 115.402H238.8V119.702H238.1V116.702L236.9 119.702H236.2L235 116.702V119.702H234.3Z" fill="#0084D9"/>
<path d="M240.6 115.301V119.601H239.8V115.301H240.6Z" fill="#0084D9"/>
<path d="M241.9 119.702H241.1L242.9 115.402H243.8L245.7 119.702H244.8L244.3 118.502H242.9L243.2 117.802H244.1L243.4 116.202L241.9 119.702Z" fill="#0084D9"/>
<path d="M250.4 115.301V116.001H249.2V119.601H248.4V116.001H247.2V115.301H250.4Z" fill="#0084D9"/>
<path d="M250.9 119.702V115.402H252.9C253.8 115.402 254.2 115.802 254.2 116.602C254.2 117.102 253.9 117.602 253.2 117.902L254.6 119.802H253.6L252.3 117.902V117.502C253.1 117.402 253.5 117.102 253.5 116.602C253.5 116.302 253.3 116.102 253 116.102H251.9V119.702H250.9Z" fill="#0084D9"/>
<path d="M255.7 115.301V119.601H254.9V115.301H255.7Z" fill="#0084D9"/>
<path d="M257.4 115.301V118.901H259.1V119.601H256.6V115.301H257.4Z" fill="#0084D9"/>
<path d="M262.9 119.501C262.5 119.601 262.1 119.701 261.6 119.701C260 119.701 259.3 118.901 259.3 117.401C259.3 116.001 260.1 115.301 261.6 115.301C262.1 115.301 262.5 115.401 262.9 115.501V116.201C262.5 116.001 262.1 116.001 261.7 116.001C260.7 116.001 260.1 116.501 260.1 117.401C260.1 118.401 260.6 119.001 261.7 119.001C262.1 119.001 262.5 118.901 262.9 118.801V119.501Z" fill="#0084D9"/>
<path d="M266.6 115.301V116.001H264.4V117.101H266.5V117.801H264.4V118.901H266.6V119.601H263.6V115.301H266.6Z" fill="#0084D9"/>
<path d="M215.8 129.501C215.4 129.601 215 129.701 214.5 129.701C212.9 129.701 212.2 128.901 212.2 127.401C212.2 126.001 213 125.301 214.5 125.301C215 125.301 215.4 125.401 215.8 125.501V126.201C215.4 126.001 215 126.001 214.6 126.001C213.6 126.001 213 126.501 213 127.401C213 128.401 213.5 129.001 214.6 129.001C215 129.001 215.4 128.901 215.8 128.801V129.501Z" fill="#0084D9"/>
<path d="M216.4 127.501C216.4 126.001 217.1 125.301 218.6 125.301C220 125.301 220.7 126.001 220.7 127.501C220.7 129.001 220 129.701 218.6 129.701C217.2 129.701 216.5 129.001 216.4 127.501ZM218.6 129.001C219.5 129.001 219.9 128.501 219.9 127.501C219.9 126.501 219.5 126.001 218.6 126.001C217.7 126.001 217.3 126.501 217.3 127.501C217.2 128.501 217.7 129.001 218.6 129.001Z" fill="#0084D9"/>
<path d="M221.5 129.702V125.402H223.2C224.6 125.402 225.4 126.102 225.4 127.402C225.4 128.902 224.7 129.702 223.2 129.702H221.5ZM223.2 129.002C224.1 129.002 224.5 128.502 224.5 127.402C224.5 126.502 224.1 126.002 223.2 126.002H222.3V128.902H223.2V129.002Z" fill="#0084D9"/>
<path d="M226.8 125.301V129.601H226V125.301H226.8Z" fill="#0084D9"/>
<path d="M231.2 129.501C230.9 129.701 230.4 129.701 229.9 129.701C228.4 129.701 227.6 128.901 227.6 127.401C227.6 126.001 228.4 125.301 229.9 125.301C230.4 125.301 230.8 125.401 231.2 125.501V126.201C230.8 126.001 230.4 126.001 230 126.001C229 126.001 228.4 126.501 228.4 127.401C228.4 128.401 228.9 129.001 229.9 129.001C230 129.001 230.2 129.001 230.4 128.901V127.601H231.2V129.501Z" fill="#0084D9"/>
<path d="M231.8 127.501C231.8 126.001 232.5 125.301 234 125.301C235.4 125.301 236.1 126.001 236.1 127.501C236.1 129.001 235.4 129.701 234 129.701C232.6 129.701 231.9 129.001 231.8 127.501ZM234 129.001C234.9 129.001 235.3 128.501 235.3 127.501C235.3 126.501 234.9 126.001 234 126.001C233.1 126.001 232.7 126.501 232.7 127.501C232.6 128.501 233.1 129.001 234 129.001Z" fill="#0084D9"/>
<path d="M238.2 129.702V125.402H239.9C241.3 125.402 242.1 126.102 242.1 127.402C242.1 128.902 241.4 129.702 239.9 129.702H238.2ZM239.9 129.002C240.8 129.002 241.2 128.502 241.2 127.402C241.2 126.502 240.8 126.002 239.9 126.002H239V128.902H239.9V129.002Z" fill="#0084D9"/>
<path d="M245.7 125.301V126.001H243.5V127.101H245.6V127.801H243.5V128.901H245.7V129.601H242.7V125.301H245.7Z" fill="#0084D9"/>
<path d="M248.3 129.702H247.5L249.3 125.402H250.2L252.1 129.702H251.2L250.7 128.502H249.3L249.6 127.802H250.5L249.8 126.202L248.3 129.702Z" fill="#0084D9"/>
<path d="M253.4 125.301V128.901H255.1V129.601H252.6V125.301H253.4Z" fill="#0084D9"/>
<path d="M255.9 128.002V125.402H256.7V128.002C256.7 128.702 257.1 129.002 257.8 129.002C258.5 129.002 258.9 128.702 258.9 128.002V125.402H259.7V128.002C259.7 129.202 259.1 129.702 257.8 129.702C256.5 129.702 255.9 129.102 255.9 128.002Z" fill="#0084D9"/>
<path d="M260.5 129.702V125.402H261.3L262.8 128.702L264.2 125.402H265V129.702H264.3V126.702L263.1 129.702H262.4L261.2 126.702V129.702H260.5Z" fill="#0084D9"/>
<path d="M266 129.702V125.402H266.8L269.1 128.602V125.402H269.9V129.702H269L266.7 126.502V129.702H266Z" fill="#0084D9"/>
<path d="M270.6 127.501C270.6 126.001 271.3 125.301 272.8 125.301C274.2 125.301 274.9 126.001 274.9 127.501C274.9 129.001 274.2 129.701 272.8 129.701C271.4 129.701 270.7 129.001 270.6 127.501ZM272.8 129.001C273.7 129.001 274.1 128.501 274.1 127.501C274.1 126.501 273.7 126.001 272.8 126.001C271.9 126.001 271.5 126.501 271.5 127.501C271.4 128.501 271.9 129.001 272.8 129.001Z" fill="#0084D9"/>
<path d="M276.4 126.5V127.2H275.6V126.5H276.4ZM276.4 128.9V129.6H275.6V128.9H276.4Z" fill="#0084D9"/>
<path d="M278.4 125.301H281.5V125.901L279.6 129.601H278.7L280.7 126.001H278.5V125.301H278.4Z" fill="#0084D9"/>
<path d="M282.4 129.701V126.001H281.9V125.701L283.2 125.301V129.701H282.4Z" fill="#0084D9"/>
<path d="M284 125.301H287.1V125.901L285.2 129.601H284.3L286.3 126.001H284V125.301Z" fill="#0084D9"/>
<path d="M290 129.702H289.2V128.802H287V128.202L288.8 125.402H289.7L288 128.202H289.3V126.802H290.1V128.202L290.5 128.602V128.802H290V129.702Z" fill="#0084D9"/>
<path d="M291.3 129.701V126.001H290.8V125.701L292.1 125.301V129.701H291.3Z" fill="#0084D9"/>
<path d="M293.1 125.301H295.7V125.901H293.8L293.7 127.001C293.8 127.001 294 126.901 294.2 126.901C295.3 126.901 295.8 127.301 295.8 128.201C295.8 129.101 295.2 129.601 294.1 129.601C293.7 129.601 293.3 129.501 292.9 129.401V128.701C293.3 128.801 293.7 128.901 294.1 128.901C294.7 128.901 295 128.601 295 128.101C295 127.601 294.7 127.401 294.2 127.401C293.7 127.401 293.3 127.501 292.9 127.601L293.1 125.301Z" fill="#0084D9"/>
<path d="M299.7 127.001C299.7 128.101 299 129.101 297.6 129.801L297.2 129.201C297.9 128.901 298.4 128.501 298.7 128.001C298.5 128.101 298.2 128.201 298 128.201C296.9 128.201 296.4 127.701 296.4 126.801C296.4 125.801 297 125.301 298.1 125.301C299.2 125.301 299.7 125.901 299.7 127.001ZM298.1 125.901C297.5 125.901 297.2 126.201 297.2 126.701C297.2 127.201 297.5 127.401 298 127.401C298.3 127.401 298.6 127.401 298.9 127.301C298.9 127.201 299 127.101 299 127.001C299 126.301 298.7 125.901 298.1 125.901Z" fill="#0084D9"/>
<path d="M303.6 127.001C303.6 128.101 302.9 129.101 301.5 129.801L301.1 129.201C301.8 128.901 302.3 128.501 302.6 128.001C302.4 128.101 302.1 128.201 301.9 128.201C300.8 128.201 300.3 127.701 300.3 126.801C300.3 125.801 300.9 125.301 302 125.301C303 125.301 303.6 125.901 303.6 127.001ZM301.9 125.901C301.3 125.901 301 126.201 301 126.701C301 127.201 301.3 127.401 301.8 127.401C302.1 127.401 302.4 127.401 302.7 127.301C302.7 127.201 302.8 127.101 302.8 127.001C302.8 126.301 302.5 125.901 301.9 125.901Z" fill="#0084D9"/>
<path d="M198.2 118.4L193.9 114V122.8L198.2 118.4Z" fill="#0084D9"/>
<path d="M60.6001 154.599V150.699H61.3001L63.4001 153.499V150.699H64.1001V154.599H63.4001L61.3001 151.699V154.599H60.6001Z" fill="#828587"/>
<path d="M64.7002 153.201C64.7002 152.201 65.2002 151.801 66.1002 151.801C67.0002 151.801 67.5002 152.301 67.5002 153.201C67.5002 154.201 67.0002 154.601 66.1002 154.601C65.1002 154.601 64.7002 154.101 64.7002 153.201ZM66.1002 154.101C66.6002 154.101 66.8002 153.801 66.8002 153.201C66.8002 152.601 66.6002 152.301 66.1002 152.301C65.6002 152.301 65.4002 152.601 65.4002 153.201C65.4002 153.801 65.6002 154.101 66.1002 154.101Z" fill="#828587"/>
<path d="M68 154.599V151.699H68.6L68.7 152.099C69 151.799 69.3 151.699 69.6 151.699C69.9 151.699 70.2 151.799 70.3 152.099C70.6 151.799 70.9 151.699 71.2 151.699C71.9 151.699 72.2 152.099 72.2 152.799V154.599H71.5V152.799C71.5 152.499 71.4 152.299 71.1 152.299C70.9 152.299 70.7 152.399 70.5 152.599V154.599H69.8V152.799C69.8 152.499 69.7 152.299 69.4 152.299C69.2 152.299 69 152.399 68.8 152.599V154.599H68Z" fill="#828587"/>
<path d="M72.9003 150.699H73.6003V151.999C73.8003 151.899 74.1003 151.799 74.3003 151.799C75.1003 151.799 75.5003 152.299 75.5003 153.199C75.5003 154.199 75.0003 154.699 74.1003 154.699C73.7003 154.699 73.3003 154.699 72.8003 154.599V150.699H72.9003ZM73.7003 153.999C73.9003 154.099 74.1003 154.099 74.3003 154.099C74.7003 154.099 75.0003 153.799 75.0003 153.199C75.0003 152.699 74.8003 152.399 74.4003 152.399C74.2003 152.399 73.9003 152.399 73.7003 152.499V153.999Z" fill="#828587"/>
<path d="M76.1001 154.599V151.699H76.7001L76.8001 152.099C77.1001 151.899 77.3001 151.699 77.6001 151.699V152.299C77.3001 152.299 77.1001 152.399 76.9001 152.599V154.499H76.1001V154.599Z" fill="#828587"/>
<path d="M79.1999 151.801C80.0999 151.801 80.4999 152.201 80.4999 153.101C80.4999 153.201 80.4999 153.301 80.4999 153.501H78.5999C78.5999 153.901 78.8999 154.101 79.4999 154.101C79.7999 154.101 80.0999 154.101 80.3999 154.001V154.601C80.0999 154.701 79.7999 154.701 79.4999 154.701C78.4999 154.701 77.8999 154.201 77.8999 153.201C77.8999 152.201 78.2999 151.801 79.1999 151.801ZM78.5999 152.901H79.7999C79.7999 152.501 79.5999 152.301 79.1999 152.301C78.7999 152.301 78.5999 152.501 78.5999 152.901Z" fill="#828587"/>
<path d="M81.8 151.801V152.501H81V151.801H81.8ZM81.8 154.001V154.701H81V154.001H81.8Z" fill="#828587"/>
<path d="M177.2 150.699V153.499C177.2 154.199 176.7 154.599 175.7 154.599V153.999C176.2 153.999 176.5 153.799 176.5 153.499V150.699H177.2Z" fill="#1FB359"/>
<path d="M178 153.099V150.699H178.7V153.099C178.7 153.699 179 153.999 179.7 153.999C180.3 153.999 180.7 153.699 180.7 153.099V150.699H181.4V153.099C181.4 154.099 180.8 154.699 179.7 154.699C178.6 154.599 178 154.099 178 153.099Z" fill="#1FB359"/>
<path d="M182.6 154.599H181.9L183.6 150.699H184.4L186.1 154.599H185.3L184.9 153.499H183.6L183.8 152.899H184.6L184 151.399L182.6 154.599Z" fill="#1FB359"/>
<path d="M186.4 154.599V150.699H187.1L189.2 153.499V150.699H189.9V154.599H189.2L187.1 151.699V154.599H186.4Z" fill="#1FB359"/>
<path d="M205.5 150.699V154.599H204.8V150.699H205.5Z" fill="#828587"/>
<path d="M206.3 154.599V151.699H206.9L207 152.099C207.3 151.799 207.6 151.699 207.9 151.699C208.3 151.699 208.5 151.799 208.6 152.099C208.9 151.799 209.2 151.699 209.5 151.699C210.2 151.699 210.5 152.099 210.5 152.799V154.599H209.8V152.799C209.8 152.499 209.7 152.299 209.4 152.299C209.2 152.299 209 152.399 208.8 152.599V154.599H208V152.799C208 152.499 207.9 152.299 207.6 152.299C207.4 152.299 207.2 152.399 207 152.599V154.599H206.3Z" fill="#828587"/>
<path d="M211.2 151.901C211.6 151.801 212 151.801 212.4 151.801C213.4 151.801 213.9 152.301 213.9 153.201C213.9 154.201 213.4 154.701 212.5 154.701C212.3 154.701 212.1 154.701 211.9 154.601V155.801H211.2V151.901ZM211.9 153.901C212.1 154.001 212.3 154.001 212.5 154.001C212.9 154.001 213.1 153.701 213.1 153.101C213.1 152.601 212.9 152.301 212.4 152.301C212.2 152.301 212 152.301 211.9 152.301V153.901Z" fill="#828587"/>
<path d="M214.2 153.201C214.2 152.201 214.7 151.801 215.6 151.801C216.5 151.801 217 152.301 217 153.201C217 154.201 216.5 154.601 215.6 154.601C214.7 154.601 214.2 154.101 214.2 153.201ZM215.7 154.101C216.2 154.101 216.4 153.801 216.4 153.201C216.4 152.601 216.2 152.301 215.7 152.301C215.2 152.301 215 152.601 215 153.201C215 153.801 215.2 154.101 215.7 154.101Z" fill="#828587"/>
<path d="M217.6 154.599V151.699H218.2L218.3 152.099C218.6 151.899 218.8 151.699 219.1 151.699V152.299C218.8 152.299 218.6 152.399 218.4 152.599V154.499H217.6V154.599Z" fill="#828587"/>
<path d="M219.4 151.301H219.9L220 151.801H220.7V152.401H220.1V153.701C220.1 154.001 220.2 154.101 220.4 154.101H220.7V154.701H220.1C219.6 154.701 219.4 154.401 219.4 153.901V151.301Z" fill="#828587"/>
<path d="M222.5 151.801C223.4 151.801 223.8 152.201 223.8 153.101C223.8 153.201 223.8 153.301 223.8 153.501H221.9C221.9 153.901 222.2 154.101 222.8 154.101C223.1 154.101 223.4 154.101 223.7 154.001V154.601C223.4 154.701 223.1 154.701 222.8 154.701C221.8 154.701 221.2 154.201 221.2 153.201C221.1 152.201 221.6 151.801 222.5 151.801ZM221.9 152.901H223.1C223.1 152.501 222.9 152.301 222.5 152.301C222.1 152.301 221.9 152.501 221.9 152.901Z" fill="#828587"/>
<path d="M225.1 151.801V152.501H224.4V151.801H225.1ZM225.1 154.001V154.701H224.4V154.001H225.1Z" fill="#828587"/>
<path d="M303.1 154.503V153.803C303.5 153.903 303.9 154.003 304.4 154.003C305 154.003 305.3 153.803 305.3 153.403C305.3 153.103 305.1 153.003 304.8 153.003H304.2C303.4 153.003 303 152.603 303 151.903C303 151.103 303.6 150.703 304.7 150.703C305.1 150.703 305.5 150.803 305.9 150.903V151.603C305.5 151.503 305.1 151.403 304.7 151.403C304 151.403 303.7 151.603 303.7 152.003C303.7 152.303 303.9 152.403 304.2 152.403H304.8C305.6 152.403 306.1 152.803 306.1 153.503C306.1 154.303 305.6 154.703 304.5 154.703C303.9 154.603 303.5 154.603 303.1 154.503Z" fill="#1FB359"/>
<path d="M307.1 154.603H306.3L308.3 150.703H309.1L307.1 154.603Z" fill="#1FB359"/>
<path d="M311.1 154.602V151.302H310.7V151.002L311.8 150.602V154.602H311.1Z" fill="#1FB359"/>
<path d="M312.5 150.903C312.9 150.803 313.2 150.703 313.6 150.703C314.6 150.703 315.1 151.103 315.1 151.803C315.1 152.203 314.9 152.503 314.6 152.703C314.9 152.903 315.1 153.103 315.1 153.603C315.1 154.303 314.6 154.703 313.6 154.703C313.2 154.703 312.8 154.603 312.5 154.503V153.803C312.9 153.903 313.2 154.003 313.6 154.003C314.1 154.003 314.3 153.803 314.3 153.403C314.3 153.103 314.1 152.903 313.8 152.903H312.9V152.303H313.8C314.2 152.303 314.3 152.103 314.3 151.803C314.3 151.503 314.1 151.303 313.6 151.303C313.2 151.303 312.8 151.403 312.5 151.503V150.903Z" fill="#1FB359"/>
<path d="M315.5 152.703C315.5 151.403 316.1 150.703 317.2 150.703C318.3 150.703 318.9 151.403 318.9 152.703C318.9 154.003 318.3 154.703 317.2 154.703C316.1 154.603 315.5 154.003 315.5 152.703ZM317.3 154.003C317.9 154.003 318.3 153.503 318.3 152.603C318.3 151.703 318 151.303 317.3 151.303C316.6 151.303 316.3 151.703 316.3 152.603C316.3 153.603 316.6 154.003 317.3 154.003Z" fill="#1FB359"/>
<path d="M320.2 154V154.7H319.5V154H320.2Z" fill="#1FB359"/>
<path d="M320.7 152.703C320.7 151.403 321.3 150.703 322.4 150.703C323.5 150.703 324.1 151.403 324.1 152.703C324.1 154.003 323.5 154.703 322.4 154.703C321.3 154.603 320.7 154.003 320.7 152.703ZM322.5 154.003C323.1 154.003 323.5 153.503 323.5 152.603C323.5 151.703 323.2 151.303 322.5 151.303C321.8 151.303 321.5 151.703 321.5 152.603C321.5 153.603 321.8 154.003 322.5 154.003Z" fill="#1FB359"/>
<path d="M324.7 152.703C324.7 151.403 325.3 150.703 326.4 150.703C327.5 150.703 328.1 151.403 328.1 152.703C328.1 154.003 327.5 154.703 326.4 154.703C325.3 154.603 324.7 154.003 324.7 152.703ZM326.4 154.003C327 154.003 327.4 153.503 327.4 152.603C327.4 151.703 327.1 151.303 326.4 151.303C325.7 151.303 325.4 151.703 325.4 152.603C325.4 153.603 325.8 154.003 326.4 154.003Z" fill="#1FB359"/>
<path d="M298.5 168.301V165.001H298.1V164.701L299.2 164.301V168.301H298.5Z" fill="#1FB359"/>
<path d="M300.4 168.301V165.001H300V164.701L301.1 164.301V168.301H300.4Z" fill="#1FB359"/>
<path d="M302.4 168.302H301.6L303.6 164.402H304.4L302.4 168.302Z" fill="#1FB359"/>
<path d="M304.7 166.402C304.7 165.102 305.3 164.402 306.4 164.402C307.5 164.402 308.1 165.102 308.1 166.402C308.1 167.702 307.5 168.402 306.4 168.402C305.3 168.402 304.7 167.702 304.7 166.402ZM306.5 167.702C307.1 167.702 307.5 167.202 307.5 166.302C307.5 165.402 307.2 165.002 306.5 165.002C305.8 165.002 305.5 165.402 305.5 166.302C305.5 167.302 305.8 167.702 306.5 167.702Z" fill="#1FB359"/>
<path d="M308.6 167.202C308.6 166.802 308.8 166.502 309.2 166.302C308.9 166.102 308.7 165.802 308.7 165.402C308.7 164.702 309.2 164.402 310.1 164.402C311 164.402 311.5 164.702 311.5 165.402C311.5 165.802 311.3 166.102 311 166.302C311.4 166.502 311.6 166.802 311.6 167.202C311.6 168.002 311.1 168.402 310.1 168.402C309.2 168.402 308.6 168.002 308.6 167.202ZM311 167.202C311 166.802 310.7 166.602 310.2 166.602C309.7 166.602 309.4 166.802 309.4 167.202C309.4 167.602 309.7 167.702 310.2 167.702C310.7 167.702 311 167.602 311 167.202ZM310.9 165.502C310.9 165.202 310.7 165.102 310.2 165.102C309.7 165.102 309.5 165.202 309.5 165.502C309.5 165.802 309.7 166.002 310.2 166.002C310.6 166.002 310.9 165.802 310.9 165.502Z" fill="#1FB359"/>
<path d="M312.7 168.302H312L314 164.402H314.8L312.7 168.302Z" fill="#1FB359"/>
<path d="M315.1 168.301V167.801C316.4 166.901 317 166.201 317 165.601C317 165.201 316.8 165.001 316.3 165.001C315.9 165.001 315.5 165.101 315.2 165.301V164.601C315.6 164.401 315.9 164.301 316.3 164.301C317.3 164.301 317.7 164.701 317.7 165.401C317.7 166.101 317.2 166.801 316.1 167.601H317.7V168.201H315.1V168.301Z" fill="#1FB359"/>
<path d="M318.2 166.402C318.2 165.102 318.8 164.402 319.9 164.402C321 164.402 321.6 165.102 321.6 166.402C321.6 167.702 321 168.402 319.9 168.402C318.8 168.402 318.2 167.702 318.2 166.402ZM320 167.702C320.6 167.702 321 167.202 321 166.302C321 165.402 320.7 165.002 320 165.002C319.3 165.002 319 165.402 319 166.302C319 167.302 319.3 167.702 320 167.702Z" fill="#1FB359"/>
<path d="M322.2 168.301V167.801C323.5 166.901 324.1 166.201 324.1 165.601C324.1 165.201 323.9 165.001 323.4 165.001C323 165.001 322.6 165.101 322.3 165.301V164.601C322.7 164.401 323 164.301 323.4 164.301C324.4 164.301 324.8 164.701 324.8 165.401C324.8 166.101 324.3 166.801 323.2 167.601H324.8V168.201H322.2V168.301Z" fill="#1FB359"/>
<path d="M325.4 168.301V167.801C326.7 166.901 327.3 166.201 327.3 165.601C327.3 165.201 327.1 165.001 326.6 165.001C326.2 165.001 325.8 165.101 325.5 165.301V164.601C325.9 164.401 326.2 164.301 326.6 164.301C327.6 164.301 328 164.701 328 165.401C328 166.101 327.5 166.801 326.4 167.601H328V168.201H325.4V168.301Z" fill="#1FB359"/>
<path d="M207.4 164.401V165.001H205.6V166.001H207.3V166.601H205.5V168.201H204.8V164.301H207.4V164.401Z" fill="#828587"/>
<path d="M209.1 165.5C210 165.5 210.4 165.9 210.4 166.8C210.4 166.9 210.4 167 210.4 167.2H208.5C208.5 167.6 208.8 167.8 209.4 167.8C209.7 167.8 210 167.8 210.3 167.7V168.3C210 168.4 209.7 168.4 209.4 168.4C208.4 168.4 207.8 167.9 207.8 166.9C207.8 165.9 208.2 165.5 209.1 165.5ZM208.5 166.7H209.7C209.7 166.3 209.5 166.1 209.1 166.1C208.7 166 208.5 166.2 208.5 166.7Z" fill="#828587"/>
<path d="M213.1 168.3C212.9 168.4 212.6 168.4 212.4 168.4C211.4 168.4 210.9 167.9 210.9 166.9C210.9 166 211.4 165.5 212.4 165.5C212.7 165.5 212.9 165.5 213.1 165.6V166.2C212.9 166.1 212.6 166.1 212.4 166.1C211.8 166.1 211.5 166.4 211.5 166.9C211.5 167.5 211.8 167.8 212.4 167.8C212.6 167.8 212.8 167.8 213.1 167.7V168.3Z" fill="#828587"/>
<path d="M213.6 168.302V164.402H214.3V165.802C214.5 165.602 214.8 165.402 215.2 165.402C215.9 165.402 216.2 165.802 216.2 166.502V168.302H215.5V166.502C215.5 166.202 215.3 166.002 215 166.002C214.8 166.002 214.5 166.102 214.3 166.302V168.302H213.6Z" fill="#828587"/>
<path d="M216.7 167.402C216.7 166.802 217.1 166.502 217.9 166.502C218.1 166.502 218.3 166.502 218.5 166.602V166.402C218.5 166.102 218.3 166.002 217.9 166.002C217.6 166.002 217.2 166.002 216.9 166.102V165.502C217.3 165.402 217.6 165.402 217.9 165.402C218.7 165.402 219.2 165.702 219.2 166.302V168.202H218.8L218.5 167.902C218.3 168.102 218 168.202 217.7 168.202C217 168.302 216.7 168.002 216.7 167.402ZM217.9 167.102C217.6 167.102 217.4 167.202 217.4 167.502C217.4 167.802 217.5 167.902 217.8 167.902C218 167.902 218.3 167.802 218.5 167.702V167.202C218.3 167.102 218.1 167.102 217.9 167.102Z" fill="#828587"/>
<path d="M223.7 168.202C223.3 168.302 222.8 168.402 222.4 168.402C221.5 168.402 221 167.902 221 166.902C221 166.002 221.5 165.502 222.4 165.502C222.6 165.502 222.8 165.502 223 165.602V164.402H223.7V168.202ZM223 166.202C222.9 166.102 222.7 166.102 222.4 166.102C222 166.102 221.7 166.402 221.7 166.902C221.7 167.502 221.9 167.802 222.4 167.802C222.6 167.802 222.8 167.802 222.9 167.702V166.202H223Z" fill="#828587"/>
<path d="M225.6 165.5C226.5 165.5 226.9 165.9 226.9 166.8C226.9 166.9 226.9 167 226.9 167.2H225C225 167.6 225.3 167.8 225.9 167.8C226.2 167.8 226.5 167.8 226.8 167.7V168.3C226.5 168.4 226.2 168.4 225.9 168.4C224.9 168.4 224.3 167.9 224.3 166.9C224.2 165.9 224.7 165.5 225.6 165.5ZM225 166.7H226.2C226.2 166.3 226 166.1 225.6 166.1C225.2 166 225 166.2 225 166.7Z" fill="#828587"/>
<path d="M228.3 165.5H229.1L229.8 167.5L230.5 165.5H231.3L230.1 168.4H229.4L228.3 165.5Z" fill="#828587"/>
<path d="M232.8 165.5C233.7 165.5 234.1 165.9 234.1 166.8C234.1 166.9 234.1 167 234.1 167.2H232.2C232.2 167.6 232.5 167.8 233.1 167.8C233.4 167.8 233.7 167.8 234 167.7V168.3C233.7 168.4 233.4 168.4 233.1 168.4C232.1 168.4 231.5 167.9 231.5 166.9C231.4 165.9 231.9 165.5 232.8 165.5ZM232.2 166.7H233.4C233.4 166.3 233.2 166.1 232.8 166.1C232.4 166 232.2 166.2 232.2 166.7Z" fill="#828587"/>
<path d="M234.6 168.302V165.402H235.2L235.3 165.802C235.6 165.502 235.9 165.402 236.2 165.402C236.9 165.402 237.2 165.802 237.2 166.502V168.302H236.5V166.502C236.5 166.202 236.3 166.002 236 166.002C235.8 166.002 235.5 166.102 235.3 166.302V168.302H234.6Z" fill="#828587"/>
<path d="M240 168.3C239.8 168.4 239.5 168.4 239.3 168.4C238.3 168.4 237.8 167.9 237.8 166.9C237.8 166 238.3 165.5 239.3 165.5C239.6 165.5 239.8 165.5 240 165.6V166.2C239.8 166.1 239.5 166.1 239.3 166.1C238.7 166.1 238.4 166.4 238.4 166.9C238.4 167.5 238.7 167.8 239.3 167.8C239.5 167.8 239.7 167.8 240 167.7V168.3Z" fill="#828587"/>
<path d="M241.2 164.402V165.002H240.5V164.402H241.2ZM241.2 165.502V168.402H240.5V165.502H241.2Z" fill="#828587"/>
<path d="M241.9 168.302V165.402H242.5L242.6 165.802C242.9 165.502 243.2 165.402 243.5 165.402C243.8 165.402 244.1 165.502 244.2 165.802C244.5 165.502 244.8 165.402 245.1 165.402C245.8 165.402 246.1 165.802 246.1 166.502V168.302H245.4V166.502C245.4 166.202 245.3 166.002 245 166.002C244.8 166.002 244.6 166.102 244.4 166.302V168.302H243.7V166.502C243.7 166.202 243.6 166.002 243.3 166.002C243.1 166.002 242.9 166.102 242.7 166.302V168.302H241.9Z" fill="#828587"/>
<path d="M247.5 164.402V165.002H246.8V164.402H247.5ZM247.5 165.502V168.402H246.8V165.502H247.5Z" fill="#828587"/>
<path d="M249.4 165.5C250.3 165.5 250.7 165.9 250.7 166.8C250.7 166.9 250.7 167 250.7 167.2H248.8C248.8 167.6 249.1 167.8 249.7 167.8C250 167.8 250.3 167.8 250.6 167.7V168.3C250.3 168.4 250 168.4 249.7 168.4C248.7 168.4 248.1 167.9 248.1 166.9C248.1 165.9 248.5 165.5 249.4 165.5ZM248.8 166.7H250C250 166.3 249.8 166.1 249.4 166.1C249 166 248.8 166.2 248.8 166.7Z" fill="#828587"/>
<path d="M251.2 168.302V165.402H251.8L251.9 165.802C252.2 165.502 252.5 165.402 252.8 165.402C253.5 165.402 253.8 165.802 253.8 166.502V168.302H253.1V166.502C253.1 166.202 252.9 166.002 252.6 166.002C252.4 166.002 252.1 166.102 251.9 166.302V168.302H251.2Z" fill="#828587"/>
<path d="M254.5 165H255L255.1 165.5H255.8V166.1H255.2V167.4C255.2 167.7 255.3 167.8 255.5 167.8H255.8V168.4H255.2C254.7 168.4 254.5 168.1 254.5 167.6V165Z" fill="#828587"/>
<path d="M256.2 166.9C256.2 165.9 256.7 165.5 257.6 165.5C258.5 165.5 259 166 259 166.9C259 167.9 258.5 168.3 257.6 168.3C256.7 168.3 256.2 167.9 256.2 166.9ZM257.6 167.8C258.1 167.8 258.3 167.5 258.3 166.9C258.3 166.3 258.1 166 257.6 166C257.1 166 256.9 166.3 256.9 166.9C256.9 167.5 257.2 167.8 257.6 167.8Z" fill="#828587"/>
<path d="M260.3 165.5V166.2H259.6V165.5H260.3ZM260.3 167.7V168.4H259.6V167.7H260.3Z" fill="#828587"/>
<path d="M173.6 164.103V160.203H175.3C176.1 160.203 176.5 160.603 176.5 161.303C176.5 162.103 176 162.603 174.9 162.703L174.8 162.103C175.5 162.003 175.8 161.703 175.8 161.303C175.8 161.003 175.6 160.803 175.3 160.803H174.3V164.103H173.6Z" fill="#1FB359"/>
<path d="M179.6 160.202V160.802H177.7V161.802H179.6V162.402H177.7V163.402H179.7V164.002H177V160.102H179.6V160.202Z" fill="#1FB359"/>
<path d="M180.3 164.103V160.203H182.1C182.9 160.203 183.3 160.503 183.3 161.203C183.3 161.703 183 162.103 182.4 162.403L183.6 164.103H182.7L181.5 162.403V162.003C182.2 161.903 182.5 161.603 182.5 161.203C182.5 160.903 182.3 160.803 182 160.803H181V164.103H180.3Z" fill="#1FB359"/>
<path d="M186.6 160.202V160.802H184.6V161.802H186.5V162.402H184.6V163.402H186.6V164.002H184V160.102H186.6V160.202Z" fill="#1FB359"/>
<path d="M190.1 160.203V160.803L188 163.403H190.1V164.003H187.2V163.403L189.4 160.803H187.3V160.203H190.1Z" fill="#1FB359"/>
<path d="M168 175.198H167.3V174.398H165.3V173.898L166.9 171.398H167.7L166.2 173.898H167.3V172.598H168V173.898L168.4 174.298V174.498H168V175.198Z" fill="#1FB359"/>
<path d="M169.1 175.199V171.899H168.7V171.599L169.8 171.199V175.199H169.1Z" fill="#1FB359"/>
<path d="M172 173.5V174.1H170.6V173.5H172Z" fill="#1FB359"/>
<path d="M172.9 175.199V171.899H172.5V171.599L173.6 171.199V175.199H172.9Z" fill="#1FB359"/>
<path d="M177.4 172.799C177.4 173.799 176.8 174.599 175.5 175.299L175.2 174.699C175.8 174.399 176.3 173.999 176.5 173.599C176.3 173.699 176.1 173.699 175.8 173.699C174.8 173.699 174.4 173.299 174.4 172.499C174.4 171.599 174.9 171.199 175.9 171.199C176.9 171.199 177.4 171.699 177.4 172.799ZM175.9 171.799C175.4 171.799 175.1 171.999 175.1 172.499C175.1 172.899 175.3 173.199 175.8 173.199C176.1 173.199 176.3 173.199 176.6 173.099C176.6 172.999 176.6 172.899 176.6 172.799C176.7 172.099 176.4 171.799 175.9 171.799Z" fill="#1FB359"/>
<path d="M177.7 171.301H180.5V171.901L178.8 175.201H178L179.8 171.901H177.8V171.301H177.7Z" fill="#1FB359"/>
<path d="M180.9 171.399C181.3 171.299 181.6 171.199 182 171.199C183 171.199 183.5 171.599 183.5 172.299C183.5 172.699 183.3 172.999 183 173.199C183.3 173.399 183.5 173.599 183.5 174.099C183.5 174.799 183 175.199 182 175.199C181.6 175.199 181.2 175.099 180.9 174.999V174.299C181.3 174.399 181.6 174.499 182 174.499C182.5 174.499 182.7 174.299 182.7 173.899C182.7 173.599 182.5 173.399 182.2 173.399H181.3V172.799H182.2C182.6 172.799 182.7 172.599 182.7 172.299C182.7 171.999 182.5 171.799 182 171.799C181.6 171.799 181.2 171.899 180.9 171.999V171.399Z" fill="#1FB359"/>
<path d="M183.9 173.999C183.9 173.599 184.1 173.299 184.5 173.099C184.2 172.899 184 172.599 184 172.199C184 171.499 184.5 171.199 185.4 171.199C186.3 171.199 186.8 171.499 186.8 172.199C186.8 172.599 186.6 172.899 186.3 173.099C186.7 173.299 186.9 173.599 186.9 173.999C186.9 174.799 186.4 175.199 185.4 175.199C184.4 175.199 183.9 174.799 183.9 173.999ZM186.2 173.999C186.2 173.599 185.9 173.399 185.4 173.399C184.9 173.399 184.6 173.599 184.6 173.999C184.6 174.399 184.9 174.499 185.4 174.499C185.9 174.599 186.2 174.399 186.2 173.999ZM186.1 172.299C186.1 171.999 185.9 171.899 185.4 171.899C184.9 171.899 184.7 171.999 184.7 172.299C184.7 172.599 184.9 172.799 185.4 172.799C185.9 172.799 186.1 172.699 186.1 172.299Z" fill="#1FB359"/>
<path d="M187.4 171.301H190.2V171.901L188.5 175.201H187.7L189.5 171.901H187.5V171.301H187.4Z" fill="#1FB359"/>
<path d="M132.7 189.002V185.102H134.4C135.2 185.102 135.6 185.502 135.6 186.202C135.6 187.002 135.1 187.502 134 187.602L133.9 187.002C134.6 186.902 134.9 186.602 134.9 186.202C134.9 185.902 134.7 185.702 134.4 185.702H133.4V189.002H132.7Z" fill="#1FB359"/>
<path d="M138.7 185.1V185.7H136.7V186.7H138.6V187.3H136.7V188.3H138.7V188.9H136V185H138.7V185.1Z" fill="#1FB359"/>
<path d="M139.4 189.002V185.102H140.1L142.2 187.902V185.102H142.9V189.002H142.2L140.1 186.102V189.002H139.4Z" fill="#1FB359"/>
<path d="M143.7 188.902V188.202C144.1 188.302 144.5 188.402 145 188.402C145.6 188.402 145.9 188.202 145.9 187.802C145.9 187.502 145.7 187.402 145.4 187.402H144.8C144 187.402 143.6 187.002 143.6 186.302C143.6 185.502 144.2 185.102 145.3 185.102C145.7 185.102 146.1 185.202 146.5 185.302V186.002C146.1 185.902 145.7 185.802 145.3 185.802C144.6 185.802 144.3 186.002 144.3 186.402C144.3 186.702 144.5 186.802 144.8 186.802H145.4C146.2 186.802 146.7 187.202 146.7 187.902C146.7 188.702 146.2 189.102 145.1 189.102C144.5 189.102 144.1 189.002 143.7 188.902Z" fill="#1FB359"/>
<path d="M147.9 185.102V189.002H147.2V185.102H147.9Z" fill="#1FB359"/>
<path d="M148.6 187.102C148.6 185.802 149.3 185.102 150.6 185.102C151.9 185.102 152.5 185.802 152.5 187.102C152.5 188.402 151.9 189.102 150.6 189.102C149.3 189.102 148.7 188.402 148.6 187.102ZM150.6 188.402C151.4 188.402 151.8 187.902 151.8 187.002C151.8 186.102 151.4 185.702 150.6 185.702C149.8 185.702 149.4 186.102 149.4 187.002C149.4 188.002 149.8 188.402 150.6 188.402Z" fill="#1FB359"/>
<path d="M153.2 189.002V185.102H153.9L156 187.902V185.102H156.7V189.002H156L153.9 186.102V189.002H153.2Z" fill="#1FB359"/>
<path d="M159.1 189.002H158.4L160.1 185.102H160.9L162.6 189.002H161.8L161.4 187.902H160L160.2 187.302H161L160.4 185.802L159.1 189.002Z" fill="#1FB359"/>
<path d="M163 189.002V185.102H163.7L165.8 187.902V185.102H166.5V189.002H165.8L163.7 186.102V189.002H163Z" fill="#1FB359"/>
<path d="M168.3 189V188.5C169.6 187.6 170.2 186.9 170.2 186.3C170.2 185.9 170 185.7 169.5 185.7C169.1 185.7 168.7 185.8 168.4 186V185.3C168.8 185.1 169.1 185 169.5 185C170.5 185 170.9 185.4 170.9 186.1C170.9 186.8 170.4 187.5 169.3 188.3H170.9V188.9H168.3V189Z" fill="#1FB359"/>
<path d="M171.5 187.102C171.5 185.802 172.1 185.102 173.2 185.102C174.3 185.102 174.9 185.802 174.9 187.102C174.9 188.402 174.3 189.102 173.2 189.102C172.1 189.102 171.5 188.402 171.5 187.102ZM173.3 188.402C173.9 188.402 174.3 187.902 174.3 187.002C174.3 186.102 174 185.702 173.3 185.702C172.6 185.702 172.3 186.102 172.3 187.002C172.3 188.002 172.6 188.402 173.3 188.402Z" fill="#1FB359"/>
<path d="M175.5 189V188.5C176.8 187.6 177.4 186.9 177.4 186.3C177.4 185.9 177.2 185.7 176.7 185.7C176.3 185.7 175.9 185.8 175.6 186V185.3C176 185.1 176.3 185 176.7 185C177.7 185 178.1 185.4 178.1 186.1C178.1 186.8 177.6 187.5 176.5 188.3H178.1V188.9H175.5V189Z" fill="#1FB359"/>
<path d="M178.7 189V188.5C180 187.6 180.6 186.9 180.6 186.3C180.6 185.9 180.4 185.7 179.9 185.7C179.5 185.7 179.1 185.8 178.8 186V185.3C179.2 185.1 179.5 185 179.9 185C180.9 185 181.3 185.4 181.3 186.1C181.3 186.8 180.8 187.5 179.7 188.3H181.3V188.9H178.7V189Z" fill="#1FB359"/>
<path d="M182.6 188.398V189.098H181.9V188.398H182.6Z" fill="#1FB359"/>
<path d="M183.1 187.102C183.1 185.802 183.7 185.102 184.8 185.102C185.9 185.102 186.5 185.802 186.5 187.102C186.5 188.402 185.9 189.102 184.8 189.102C183.7 189.102 183.1 188.402 183.1 187.102ZM184.9 188.402C185.5 188.402 185.9 187.902 185.9 187.002C185.9 186.102 185.6 185.702 184.9 185.702C184.2 185.702 183.9 186.102 183.9 187.002C183.9 188.002 184.2 188.402 184.9 188.402Z" fill="#1FB359"/>
<path d="M187.1 187.902C187.1 187.502 187.3 187.202 187.7 187.002C187.4 186.802 187.2 186.502 187.2 186.102C187.2 185.402 187.7 185.102 188.6 185.102C189.5 185.102 190 185.402 190 186.102C190 186.502 189.8 186.802 189.5 187.002C189.9 187.202 190.1 187.502 190.1 187.902C190.1 188.702 189.6 189.102 188.6 189.102C187.6 189.102 187.1 188.702 187.1 187.902ZM189.4 187.902C189.4 187.502 189.1 187.302 188.6 187.302C188.1 187.302 187.8 187.502 187.8 187.902C187.8 188.302 188.1 188.402 188.6 188.402C189.1 188.402 189.4 188.302 189.4 187.902ZM189.3 186.202C189.3 185.902 189.1 185.802 188.6 185.802C188.1 185.802 187.9 185.902 187.9 186.202C187.9 186.502 188.1 186.702 188.6 186.702C189 186.702 189.3 186.502 189.3 186.202Z" fill="#1FB359"/>
<path d="M61.3001 171.301V175.201H60.6001V171.301H61.3001Z" fill="#828587"/>
<path d="M62.1001 175.201V171.301H63.6001C64.9001 171.301 65.5001 171.901 65.5001 173.101C65.5001 174.501 64.9001 175.201 63.6001 175.201H62.1001ZM63.6001 174.501C64.4001 174.501 64.8001 174.001 64.8001 173.101C64.8001 172.301 64.4001 171.901 63.6001 171.901H62.8001V174.501H63.6001Z" fill="#828587"/>
<path d="M67.3999 175.201V171.301H68.8999C70.1999 171.301 70.7999 171.901 70.7999 173.101C70.7999 174.501 70.1999 175.201 68.8999 175.201H67.3999ZM68.8999 174.501C69.6999 174.501 70.0999 174.001 70.0999 173.101C70.0999 172.301 69.6999 171.901 68.8999 171.901H68.0999V174.501H68.8999Z" fill="#828587"/>
<path d="M74.2001 171.299V171.899H72.3001V172.899H74.2001V173.499H72.3001V174.499H74.3001V175.099H71.6001V171.199H74.2001V171.299Z" fill="#828587"/>
<path d="M76.1001 175.201V171.301H76.8001L78.1001 174.301L79.4001 171.301H80.1001V175.201H79.4001V172.501L78.3001 175.201H77.7001L76.6001 172.501V175.201H76.1001Z" fill="#828587"/>
<path d="M80.8999 173.199C80.8999 171.899 81.5999 171.199 82.8999 171.199C84.1999 171.199 84.7999 171.899 84.7999 173.199C84.7999 174.499 84.1999 175.199 82.8999 175.199C81.5999 175.199 80.8999 174.499 80.8999 173.199ZM82.7999 174.599C83.5999 174.599 83.9999 174.099 83.9999 173.199C83.9999 172.299 83.5999 171.899 82.7999 171.899C81.9999 171.899 81.5999 172.299 81.5999 173.199C81.5999 174.099 81.9999 174.599 82.7999 174.599Z" fill="#828587"/>
<path d="M89.1 171.301L87.4 175.201H86.6L85 171.301H85.9L87.1 174.301L88.3 171.301H89.1Z" fill="#828587"/>
<path d="M90.3001 171.301V175.201H89.6001V171.301H90.3001Z" fill="#828587"/>
<path d="M91.1001 175.201V171.301H91.8001L93.1001 174.301L94.4001 171.301H95.1001V175.201H94.4001V172.501L93.3001 175.201H92.7001L91.6001 172.501V175.201H91.1001Z" fill="#828587"/>
<path d="M96.7 171.301V175.201H96V171.301H96.7Z" fill="#828587"/>
<path d="M100.2 171.299V171.899H98.2V172.899H100.1V173.499H98.2V174.499H100.2V175.099H97.5V171.199H100.2V171.299Z" fill="#828587"/>
<path d="M100.9 175.201V171.301H101.6L103.7 174.101V171.301H104.4V175.201H103.7L101.6 172.301V175.201H100.9Z" fill="#828587"/>
<path d="M107.7 171.301V171.901H106.6V175.201H105.9V171.901H104.8V171.301H107.7Z" fill="#828587"/>
<path d="M108 173.199C108 171.899 108.7 171.199 110 171.199C111.3 171.199 111.9 171.899 111.9 173.199C111.9 174.499 111.3 175.199 110 175.199C108.7 175.199 108 174.499 108 173.199ZM109.9 174.599C110.7 174.599 111.1 174.099 111.1 173.199C111.1 172.299 110.7 171.899 109.9 171.899C109.1 171.899 108.7 172.299 108.7 173.199C108.7 174.099 109.1 174.599 109.9 174.599Z" fill="#828587"/>
<path d="M113.2 172.301V173.001H112.5V172.301H113.2ZM113.2 174.501V175.201H112.5V174.501H113.2Z" fill="#828587"/>
<path d="M63.7 188.899C63.4 188.999 63 189.099 62.6 189.099C61.2 189.099 60.5 188.399 60.5 187.099C60.5 185.799 61.2 185.199 62.6 185.199C63 185.199 63.4 185.299 63.7 185.399V186.099C63.4 185.999 63 185.899 62.6 185.899C61.7 185.899 61.2 186.299 61.2 187.199C61.2 188.099 61.7 188.599 62.6 188.599C63 188.599 63.4 188.499 63.7 188.399V188.899Z" fill="#828587"/>
<path d="M64.2002 187.102C64.2002 185.802 64.9002 185.102 66.2002 185.102C67.5002 185.102 68.1002 185.802 68.1002 187.102C68.1002 188.402 67.5002 189.102 66.2002 189.102C64.9002 189.102 64.3002 188.402 64.2002 187.102ZM66.2002 188.402C67.0002 188.402 67.4002 187.902 67.4002 187.002C67.4002 186.102 67.0002 185.702 66.2002 185.702C65.4002 185.702 65.0002 186.102 65.0002 187.002C65.0002 188.002 65.4002 188.402 66.2002 188.402Z" fill="#828587"/>
<path d="M68.7998 189.002V185.102H69.4998L70.7998 188.102L72.0998 185.102H72.7998V189.002H72.0998V186.302L70.9998 189.002H70.3998L69.2998 186.302V189.002H68.7998Z" fill="#828587"/>
<path d="M76.3998 185.1V185.7H74.4998V186.7H76.3998V187.3H74.4998V188.3H76.4998V188.9H73.7998V185H76.3998V185.1Z" fill="#828587"/>
<path d="M77.1001 189.002V185.102H77.8001L79.9001 187.902V185.102H80.6001V189.002H79.9001L77.8001 186.102V189.002H77.1001Z" fill="#828587"/>
<path d="M83.9 185.102V185.702H82.8V189.002H82.1V185.702H81V185.102H83.9Z" fill="#828587"/>
<path d="M84.3001 189.002H83.6001L85.3001 185.102H86.0001L87.7001 189.002H86.9001L86.5001 187.902H85.2001L85.4001 187.302H86.2001L85.6001 185.802L84.3001 189.002Z" fill="#828587"/>
<path d="M88.2002 189.002V185.102H90.0002C90.8002 185.102 91.2002 185.402 91.2002 186.102C91.2002 186.602 90.9002 187.002 90.3002 187.302L91.5002 189.002H90.6002L89.4002 187.302V187.002C90.1002 186.902 90.4002 186.602 90.4002 186.202C90.4002 185.902 90.2002 185.802 89.9002 185.802H88.9002V189.102H88.2002V189.002Z" fill="#828587"/>
<path d="M92.4998 185.102V189.002H91.7998V185.102H92.4998Z" fill="#828587"/>
<path d="M93.2002 187.102C93.2002 185.802 93.9002 185.102 95.2002 185.102C96.5002 185.102 97.1002 185.802 97.1002 187.102C97.1002 188.402 96.5002 189.102 95.2002 189.102C93.9002 189.102 93.2002 188.402 93.2002 187.102ZM95.1002 188.402C95.9002 188.402 96.3002 187.902 96.3002 187.002C96.3002 186.102 95.9002 185.702 95.1002 185.702C94.3002 185.702 93.9002 186.102 93.9002 187.002C93.9002 188.002 94.3002 188.402 95.1002 188.402Z" fill="#828587"/>
<path d="M98.4002 186.199V186.899H97.7002V186.199H98.4002ZM98.4002 188.399V189.099H97.7002V188.399H98.4002Z" fill="#828587"/>
<path d="M101.1 221.301H55.2002V233.701H101.1V221.301Z" fill="#0074BC"/>
<path d="M69.3001 229.202H68.6001L70.1001 225.602H70.8001L72.4001 229.202H71.7001L71.3001 228.202H70.1001L70.3001 227.602H71.0001L70.4001 226.202L69.3001 229.202Z" fill="white"/>
<path d="M72.8003 229.202V226.602H73.3003L73.4003 227.002C73.7003 226.702 73.9003 226.602 74.3003 226.602C74.9003 226.602 75.2003 226.902 75.2003 227.602V229.302H74.5003V227.602C74.5003 227.302 74.4003 227.202 74.1003 227.202C73.9003 227.202 73.7003 227.302 73.5003 227.502V229.302H72.8003V229.202Z" fill="white"/>
<path d="M75.8002 226.102H76.3002L76.4002 226.502H77.0002V227.002H76.4002V228.202C76.4002 228.402 76.5002 228.602 76.7002 228.602H77.0002V229.102H76.4002C76.0002 229.102 75.7002 228.902 75.7002 228.402V226.102H75.8002Z" fill="white"/>
<path d="M78.6003 226.5C79.4003 226.5 79.8003 226.9 79.8003 227.7C79.8003 227.8 79.8003 227.9 79.8003 228H78.0003C78.0003 228.4 78.3003 228.6 78.8003 228.6C79.1003 228.6 79.3003 228.6 79.6003 228.5V229C79.4003 229 79.1003 229.1 78.7003 229.1C77.7003 229.1 77.3003 228.6 77.3003 227.7C77.3003 227 77.8003 226.5 78.6003 226.5ZM78.0003 227.6H79.1003C79.1003 227.2 78.9003 227.1 78.5003 227.1C78.2003 227 78.0003 227.2 78.0003 227.6Z" fill="white"/>
<path d="M80.3003 229.202V226.602H80.8003L80.9003 226.902C81.1003 226.702 81.4003 226.602 81.6003 226.602V227.102C81.4003 227.102 81.1003 227.202 80.9003 227.402V229.202H80.3003Z" fill="white"/>
<path d="M82.7 225.602V226.102H82V225.602H82.7ZM82.7 226.502V229.102H82V226.502H82.7Z" fill="white"/>
<path d="M83.2002 227.8C83.2002 226.9 83.6002 226.5 84.5002 226.5C85.4002 226.5 85.8002 226.9 85.8002 227.8C85.8002 228.7 85.4002 229.1 84.5002 229.1C83.6002 229.2 83.2002 228.7 83.2002 227.8ZM84.5002 228.7C84.9002 228.7 85.1002 228.4 85.1002 227.9C85.1002 227.4 84.9002 227.1 84.5002 227.1C84.1002 227.1 83.9002 227.4 83.9002 227.9C83.8002 228.4 84.0002 228.7 84.5002 228.7Z" fill="white"/>
<path d="M86.3003 229.202V226.602H86.8003L86.9003 226.902C87.1003 226.702 87.4003 226.602 87.6003 226.602V227.102C87.4003 227.102 87.1003 227.202 86.9003 227.402V229.202H86.3003Z" fill="white"/>
<path d="M339.2 221.301H293.3V233.701H339.2V221.301Z" fill="#0074BC"/>
<path d="M305.5 229V228.4C305.9 228.5 306.3 228.6 306.7 228.6C307.3 228.6 307.5 228.4 307.5 228C307.5 227.7 307.3 227.6 307 227.6H306.4C305.7 227.6 305.3 227.3 305.3 226.6C305.3 225.9 305.8 225.5 306.9 225.5C307.3 225.5 307.7 225.6 308 225.7V226.3C307.6 226.2 307.3 226.1 306.9 226.1C306.3 226.1 306 226.3 306 226.6C306 226.9 306.1 227 306.4 227H307C307.8 227 308.2 227.3 308.2 228C308.2 228.8 307.7 229.1 306.7 229.1C306.3 229.2 305.9 229.1 305.5 229Z" fill="white"/>
<path d="M309.4 225.602V226.102H308.7V225.602H309.4ZM309.4 226.502V229.102H308.7V226.502H309.4Z" fill="white"/>
<path d="M312.4 229.002C312.4 229.802 311.9 230.202 311 230.202C310.7 230.202 310.4 230.202 310.1 230.102V229.602C310.4 229.702 310.6 229.702 311 229.702C311.5 229.702 311.7 229.502 311.7 229.102C311.5 229.202 311.3 229.202 311.1 229.202C310.3 229.202 309.9 228.802 309.9 227.902C309.9 227.002 310.4 226.602 311.3 226.602C311.6 226.602 312 226.602 312.4 226.702V229.002ZM311.7 227.102C311.6 227.102 311.4 227.002 311.2 227.002C310.7 227.002 310.5 227.302 310.5 227.802C310.5 228.302 310.7 228.502 311.1 228.502C311.3 228.502 311.5 228.502 311.7 228.402V227.102Z" fill="white"/>
<path d="M315.4 226.498V229.098H314.9L314.8 228.798C314.5 228.998 314.2 229.098 313.8 229.098C313.3 229.098 313 228.798 313 228.098V226.398H313.7V228.098C313.7 228.398 313.8 228.498 314.1 228.498C314.3 228.498 314.5 228.398 314.8 228.198V226.398H315.4V226.498Z" fill="white"/>
<path d="M316.7 225.602V226.102H316V225.602H316.7ZM316.7 226.502V229.102H316V226.502H316.7Z" fill="white"/>
<path d="M318.4 226.5C319.2 226.5 319.6 226.9 319.6 227.7C319.6 227.8 319.6 227.9 319.6 228H317.8C317.8 228.4 318.1 228.6 318.6 228.6C318.9 228.6 319.1 228.6 319.4 228.5V229C319.2 229 318.9 229.1 318.6 229.1C317.6 229.1 317.2 228.6 317.2 227.7C317.2 227 317.6 226.5 318.4 226.5ZM317.8 227.6H318.9C318.9 227.2 318.7 227.1 318.3 227.1C318.1 227 317.9 227.2 317.8 227.6Z" fill="white"/>
<path d="M320.1 229.202V226.602H320.6L320.7 227.002C321 226.702 321.2 226.602 321.6 226.602C322.2 226.602 322.5 226.902 322.5 227.602V229.302H321.8V227.602C321.8 227.302 321.7 227.202 321.4 227.202C321.2 227.202 321 227.302 320.8 227.502V229.302H320.1V229.202Z" fill="white"/>
<path d="M323.1 226.102H323.6L323.7 226.502H324.4V227.002H323.8V228.202C323.8 228.402 323.9 228.602 324.1 228.602H324.4V229.102H323.8C323.4 229.102 323.1 228.902 323.1 228.402V226.102Z" fill="white"/>
<path d="M325.9 226.5C326.7 226.5 327.1 226.9 327.1 227.7C327.1 227.8 327.1 227.9 327.1 228H325.3C325.3 228.4 325.6 228.6 326.1 228.6C326.4 228.6 326.6 228.6 326.9 228.5V229C326.7 229 326.4 229.1 326 229.1C325 229.1 324.6 228.6 324.6 227.7C324.7 227 325.1 226.5 325.9 226.5ZM325.4 227.6H326.5C326.5 227.2 326.3 227.1 325.9 227.1C325.6 227 325.4 227.2 325.4 227.6Z" fill="white"/>
<path d="M343.7 238.701H288.4V216.301H343.7V238.701ZM290.4 236.801H341.7V218.401H290.4V236.801Z" fill="#FF4200"/>
</svg>
