<svg width="392" height="262" viewBox="0 0 392 262" fill="none" xmlns="http://www.w3.org/2000/svg">
<path d="M392 0H0V262H392V0Z" fill="#F6F6F6"/>
<path d="M344 9.89844H48V261.598H344V9.89844Z" fill="#F3F7F5"/>
<path d="M344.4 261.998H47.6001V9.39844H344.5V261.998H344.4ZM48.4001 261.098H343.5V10.2984H48.4001V261.098Z" fill="#DDEBEF"/>
<path d="M328.9 133.603H262.8L258.4 128.703L254 133.603H63.4998C61.9998 133.603 60.7998 134.803 60.7998 136.303V231.703C60.7998 233.203 61.9998 234.403 63.4998 234.403H328.8C330.3 234.403 331.5 233.203 331.5 231.703V136.303C331.5 134.803 330.3 133.603 328.9 133.603Z" fill="white"/>
<path d="M328.9 234.802H63.4999C61.7999 234.802 60.3999 233.402 60.3999 231.702V136.302C60.3999 134.602 61.7999 133.202 63.4999 133.202H253.8L258.4 128.102L263 133.202H328.9C330.6 133.202 332 134.602 332 136.302V231.702C332 233.402 330.6 234.802 328.9 234.802ZM63.4999 134.102C62.2999 134.102 61.2999 135.102 61.2999 136.302V231.702C61.2999 232.902 62.2999 233.902 63.4999 233.902H328.8C330 233.902 331 232.902 331 231.702V136.302C331 135.102 330 134.102 328.8 134.102H262.5L258.3 129.402L254.1 134.102H63.4999Z" fill="#EBEDEE"/>
<path d="M275.5 201.097H161.1C159.1 201.097 157.5 199.497 157.5 197.497V190.897C157.5 188.897 159.1 187.297 161.1 187.297H275.4C277.4 187.297 279 188.897 279 190.897V197.497C279 199.497 277.4 201.097 275.5 201.097Z" fill="#FFFFF5"/>
<path d="M275.5 201.498H161.1C158.9 201.498 157.1 199.698 157.1 197.498V190.898C157.1 188.698 158.9 186.898 161.1 186.898H275.4C277.6 186.898 279.4 188.698 279.4 190.898V197.498C279.5 199.698 277.7 201.498 275.5 201.498ZM161.1 187.798C159.4 187.798 158 189.198 158 190.898V197.498C158 199.198 159.4 200.598 161.1 200.598H275.4C277.1 200.598 278.5 199.198 278.5 197.498V190.898C278.5 189.198 277.1 187.798 275.4 187.798H161.1Z" fill="#F0F5F9"/>
<path d="M339.4 43H54.8999V76.4H339.4V43Z" fill="white"/>
<path d="M326.1 61.8984H65.7V65.0984H326.1V61.8984Z" fill="#D0DEE8"/>
<path d="M59 33.5984V28.3984H61.3C62.4 28.3984 62.9 28.8984 62.9 29.8984C62.9 30.9984 62.2 31.5984 60.7 31.7984L60.6 30.8984C61.5 30.6984 61.9 30.3984 61.9 29.8984C61.9 29.4984 61.7 29.2984 61.3 29.2984H60V33.5984H59Z" fill="#0084D9"/>
<path d="M63.3 32.3992C63.3 31.5992 63.9 31.2992 65 31.2992C65.3 31.2992 65.5001 31.2992 65.8001 31.3992V30.9992C65.8001 30.6992 65.6 30.4992 65.1 30.4992C64.7 30.4992 64.2001 30.5992 63.7001 30.6992V29.8992C64.2001 29.7992 64.7 29.6992 65.1 29.6992C66.2 29.6992 66.8001 30.0992 66.8001 30.9992V33.5992H66.2L65.9001 33.2992C65.6001 33.4992 65.2001 33.5992 64.8001 33.5992C63.8001 33.5992 63.3 33.1992 63.3 32.3992ZM65 31.8992C64.5 31.8992 64.3001 32.0992 64.3001 32.3992C64.3001 32.6992 64.5001 32.8992 64.9001 32.8992C65.2001 32.8992 65.5001 32.7992 65.8001 32.5992V31.9992C65.5001 31.8992 65.2 31.8992 65 31.8992Z" fill="#0084D9"/>
<path d="M71 33.2992C71 34.3992 70.3 34.9992 69 34.9992C68.5 34.9992 68.1 34.8992 67.8 34.7992V33.9992C68.2 34.0992 68.6 34.1992 69.1 34.1992C69.8 34.1992 70.1 33.8992 70.1 33.2992C69.8 33.3992 69.5 33.4992 69.2 33.4992C68.1 33.4992 67.5 32.8992 67.5 31.5992C67.5 30.2992 68.2 29.6992 69.5 29.6992C69.9 29.6992 70.5 29.7992 71.1 29.8992V33.2992H71ZM70 30.5992C69.8 30.4992 69.6 30.4992 69.3 30.4992C68.6 30.4992 68.3 30.8992 68.3 31.5992C68.3 32.2992 68.6 32.6992 69.2 32.6992C69.5 32.6992 69.7 32.5992 70 32.4992V30.5992Z" fill="#0084D9"/>
<path d="M71.7 32.3992C71.7 31.5992 72.3 31.2992 73.4 31.2992C73.7 31.2992 73.9 31.2992 74.2 31.3992V30.9992C74.2 30.6992 74 30.4992 73.5 30.4992C73.1 30.4992 72.6 30.5992 72.1 30.6992V29.8992C72.6 29.7992 73.1 29.6992 73.5 29.6992C74.6 29.6992 75.2 30.0992 75.2 30.9992V33.5992H74.6L74.3 33.2992C74 33.4992 73.6 33.5992 73.2 33.5992C72.2 33.5992 71.7 33.1992 71.7 32.3992ZM73.4 31.8992C72.9 31.8992 72.7 32.0992 72.7 32.3992C72.7 32.6992 72.9 32.8992 73.3 32.8992C73.6 32.8992 73.9 32.7992 74.2 32.5992V31.9992C73.9 31.8992 73.6 31.8992 73.4 31.8992Z" fill="#0084D9"/>
<path d="M76 33.5969V29.7969H76.7L76.8 30.2969C77.1 29.9969 77.5 29.7969 77.9 29.7969V30.5969C77.5 30.5969 77.2 30.6969 76.9 30.9969V33.5969H76Z" fill="#0084D9"/>
<path d="M80.0999 33.3969V32.5969C80.4999 32.7969 80.9999 32.8969 81.5999 32.8969C81.9999 32.8969 82.1999 32.7969 82.1999 32.4969C82.1999 32.1969 82.0999 32.0969 81.7999 32.0969H81.0999C80.2999 32.0969 79.8999 31.6969 79.8999 30.9969C79.8999 30.1969 80.4999 29.7969 81.5999 29.7969C82.0999 29.7969 82.4999 29.8969 82.9999 29.9969V30.7969C82.5999 30.5969 82.0999 30.4969 81.5999 30.4969C81.0999 30.4969 80.7999 30.5969 80.7999 30.8969C80.7999 31.1969 80.9999 31.2969 81.2999 31.2969H81.8999C82.6999 31.2969 83.1999 31.6969 83.1999 32.3969C83.1999 33.1969 82.6999 33.5969 81.5999 33.5969C80.9999 33.5969 80.4999 33.4969 80.0999 33.3969Z" fill="#0084D9"/>
<path d="M85.4 29.7969C86.6 29.7969 87.1 30.3969 87.1 31.5969C87.1 31.7969 87.1 31.8969 87.1 32.0969H84.6C84.6 32.5969 85 32.8969 85.8 32.8969C86.2 32.8969 86.6 32.8969 87 32.7969V33.5969C86.7 33.6969 86.3 33.6969 85.8 33.6969C84.4 33.6969 83.7 33.0969 83.7 31.7969C83.6 30.3969 84.2 29.7969 85.4 29.7969ZM84.6 31.2969H86.2C86.2 30.7969 85.9 30.4969 85.4 30.4969C84.9 30.4969 84.6 30.7969 84.6 31.2969Z" fill="#0084D9"/>
<path d="M87.8999 33.5969V29.7969H88.5999L88.6999 30.2969C88.9999 29.9969 89.3999 29.7969 89.7999 29.7969V30.5969C89.3999 30.5969 89.0999 30.6969 88.7999 30.9969V33.5969H87.8999Z" fill="#0084D9"/>
<path d="M89.8999 29.7969H90.8999L91.7999 32.4969L92.7999 29.7969H93.7999L92.2999 33.5969H91.3999L89.8999 29.7969Z" fill="#0084D9"/>
<path d="M95.2 28.3984V29.1984H94.2V28.3984H95.2ZM95.2 29.7984V33.5984H94.2V29.7984H95.2Z" fill="#0084D9"/>
<path d="M98.8999 33.3992C98.5999 33.4992 98.2999 33.4992 97.8999 33.4992C96.4999 33.4992 95.8999 32.7992 95.8999 31.4992C95.8999 30.2992 96.5999 29.6992 97.8999 29.6992C98.1999 29.6992 98.5999 29.6992 98.8999 29.7992V30.5992C98.5999 30.4992 98.2999 30.4992 97.9999 30.4992C97.1999 30.4992 96.8999 30.8992 96.8999 31.5992C96.8999 32.3992 97.2999 32.7992 97.9999 32.7992C98.2999 32.7992 98.5999 32.7992 98.8999 32.6992V33.3992Z" fill="#0084D9"/>
<path d="M100.5 28.3984V29.1984H99.5V28.3984H100.5ZM100.5 29.7984V33.5984H99.5V29.7984H100.5Z" fill="#0084D9"/>
<path d="M101.2 31.6969C101.2 30.3969 101.8 29.7969 103.1 29.7969C104.4 29.7969 105 30.3969 105 31.6969C105 32.9969 104.4 33.5969 103.1 33.5969C101.9 33.5969 101.3 32.8969 101.2 31.6969ZM103.1 32.7969C103.7 32.7969 104 32.3969 104 31.5969C104 30.7969 103.7 30.3969 103.1 30.3969C102.5 30.3969 102.2 30.7969 102.2 31.5969C102.2 32.3969 102.5 32.7969 103.1 32.7969Z" fill="#0084D9"/>
<path d="M105.7 33.3969V32.5969C106.1 32.7969 106.6 32.8969 107.2 32.8969C107.6 32.8969 107.8 32.7969 107.8 32.4969C107.8 32.1969 107.7 32.0969 107.4 32.0969H106.7C105.9 32.0969 105.5 31.6969 105.5 30.9969C105.5 30.1969 106.1 29.7969 107.2 29.7969C107.7 29.7969 108.1 29.8969 108.6 29.9969V30.7969C108.2 30.5969 107.7 30.4969 107.2 30.4969C106.7 30.4969 106.4 30.5969 106.4 30.8969C106.4 31.1969 106.6 31.2969 106.9 31.2969H107.5C108.3 31.2969 108.8 31.6969 108.8 32.3969C108.8 33.1969 108.3 33.5969 107.2 33.5969C106.6 33.5969 106.2 33.4969 105.7 33.3969Z" fill="#0084D9"/>
<path d="M124.8 93.1992V92.2992C125.3 92.4992 125.9 92.5992 126.6 92.5992C127.4 92.5992 127.8 92.2992 127.8 91.7992C127.8 91.3992 127.6 91.1992 127.1 91.1992H126.3C125.2 91.1992 124.7 90.6992 124.7 89.7992C124.7 88.6992 125.5 88.1992 127 88.1992C127.6 88.1992 128.1 88.2992 128.6 88.4992V89.3992C128.1 89.1992 127.5 89.0992 127 89.0992C126.1 89.0992 125.7 89.3992 125.7 89.8992C125.7 90.2992 125.9 90.4992 126.3 90.4992H127.1C128.2 90.4992 128.8 90.9992 128.8 91.8992C128.8 92.9992 128.1 93.4992 126.6 93.4992C125.9 93.3992 125.3 93.2992 124.8 93.1992Z" fill="#0084D9"/>
<path d="M131 89.5977C132.2 89.5977 132.7 90.1977 132.7 91.3977C132.7 91.5977 132.7 91.6977 132.7 91.8977H130.2C130.2 92.3977 130.6 92.6977 131.4 92.6977C131.8 92.6977 132.2 92.6977 132.6 92.5977V93.3977C132.3 93.4977 131.9 93.4977 131.4 93.4977C130 93.4977 129.3 92.8977 129.3 91.5977C129.2 90.1977 129.8 89.5977 131 89.5977ZM130.2 91.0977H131.8C131.8 90.5977 131.5 90.2977 131 90.2977C130.5 90.2977 130.2 90.5977 130.2 91.0977Z" fill="#0084D9"/>
<path d="M134.4 88.1992V93.3992H133.4V88.1992H134.4Z" fill="#0084D9"/>
<path d="M136.9 89.5977C138.1 89.5977 138.6 90.1977 138.6 91.3977C138.6 91.5977 138.6 91.6977 138.6 91.8977H136.1C136.1 92.3977 136.5 92.6977 137.3 92.6977C137.7 92.6977 138.1 92.6977 138.5 92.5977V93.3977C138.2 93.4977 137.8 93.4977 137.3 93.4977C135.9 93.4977 135.2 92.8977 135.2 91.5977C135.1 90.1977 135.7 89.5977 136.9 89.5977ZM136.1 91.0977H137.7C137.7 90.5977 137.4 90.2977 136.9 90.2977C136.4 90.2977 136.1 90.5977 136.1 91.0977Z" fill="#0084D9"/>
<path d="M142.2 93.2977C141.9 93.3977 141.6 93.3977 141.2 93.3977C139.8 93.3977 139.2 92.6977 139.2 91.3977C139.2 90.1977 139.9 89.5977 141.2 89.5977C141.5 89.5977 141.9 89.5977 142.2 89.6977V90.4977C141.9 90.3977 141.6 90.3977 141.3 90.3977C140.5 90.3977 140.2 90.7977 140.2 91.4977C140.2 92.2977 140.6 92.6977 141.3 92.6977C141.6 92.6977 141.9 92.6977 142.2 92.5977V93.2977Z" fill="#0084D9"/>
<path d="M145.6 93.2977C145.3 93.3977 145 93.3977 144.6 93.3977C143.2 93.3977 142.6 92.6977 142.6 91.3977C142.6 90.1977 143.3 89.5977 144.6 89.5977C144.9 89.5977 145.3 89.5977 145.6 89.6977V90.4977C145.3 90.3977 145 90.3977 144.7 90.3977C143.9 90.3977 143.6 90.7977 143.6 91.4977C143.6 92.2977 144 92.6977 144.7 92.6977C145 92.6977 145.3 92.6977 145.6 92.5977V93.2977Z" fill="#0084D9"/>
<path d="M147.2 88.1992V88.9992H146.2V88.1992H147.2ZM147.2 89.5992V93.3992H146.2V89.5992H147.2Z" fill="#0084D9"/>
<path d="M147.9 91.4977C147.9 90.1977 148.5 89.5977 149.8 89.5977C151.1 89.5977 151.7 90.1977 151.7 91.4977C151.7 92.7977 151.1 93.3977 149.8 93.3977C148.6 93.3977 147.9 92.6977 147.9 91.4977ZM149.8 92.5977C150.4 92.5977 150.7 92.1977 150.7 91.3977C150.7 90.5977 150.4 90.1977 149.8 90.1977C149.2 90.1977 148.9 90.5977 148.9 91.3977C148.9 92.2977 149.2 92.5977 149.8 92.5977Z" fill="#0084D9"/>
<path d="M152.4 93.3977V89.5977H153.1L153.2 90.1977C153.6 89.7977 154 89.5977 154.4 89.5977C155.3 89.5977 155.8 90.0977 155.8 90.9977V93.3977H154.8V90.9977C154.8 90.5977 154.6 90.3977 154.2 90.3977C153.9 90.3977 153.6 90.4977 153.3 90.7977V93.4977H152.4V93.3977Z" fill="#0084D9"/>
<path d="M158.4 89.5977C159.6 89.5977 160.1 90.1977 160.1 91.3977C160.1 91.5977 160.1 91.6977 160.1 91.8977H157.6C157.6 92.3977 158 92.6977 158.8 92.6977C159.2 92.6977 159.6 92.6977 160 92.5977V93.3977C159.7 93.4977 159.3 93.4977 158.8 93.4977C157.4 93.4977 156.7 92.8977 156.7 91.5977C156.6 90.1977 157.2 89.5977 158.4 89.5977ZM157.6 91.0977H159.2C159.2 90.5977 158.9 90.2977 158.4 90.2977C157.9 90.2977 157.6 90.5977 157.6 91.0977Z" fill="#0084D9"/>
<path d="M163.4 88.1992V93.3992H162.4V88.1992H163.4Z" fill="#0084D9"/>
<path d="M164.2 92.1977C164.2 91.3977 164.8 91.0977 165.9 91.0977C166.2 91.0977 166.4 91.0977 166.7 91.1977V90.8977C166.7 90.5977 166.5 90.3977 166 90.3977C165.6 90.3977 165.1 90.4977 164.6 90.5977V89.7977C165.1 89.6977 165.6 89.5977 166 89.5977C167.1 89.5977 167.7 89.9977 167.7 90.8977V93.4977H167L166.7 93.1977C166.4 93.3977 166 93.4977 165.6 93.4977C164.6 93.3977 164.2 92.9977 164.2 92.1977ZM165.8 91.6977C165.3 91.6977 165.1 91.8977 165.1 92.1977C165.1 92.4977 165.3 92.6977 165.7 92.6977C166 92.6977 166.3 92.5977 166.6 92.3977V91.7977C166.4 91.6977 166.1 91.6977 165.8 91.6977Z" fill="#0084D9"/>
<path d="M171.7 89.5977C172.9 89.5977 173.4 90.1977 173.4 91.3977C173.4 91.5977 173.4 91.6977 173.4 91.8977H170.9C170.9 92.3977 171.3 92.6977 172.1 92.6977C172.5 92.6977 172.9 92.6977 173.3 92.5977V93.3977C173 93.4977 172.6 93.4977 172.1 93.4977C170.7 93.4977 170 92.8977 170 91.5977C169.9 90.1977 170.5 89.5977 171.7 89.5977ZM170.9 91.0977H172.5C172.5 90.5977 172.2 90.2977 171.7 90.2977C171.2 90.2977 170.9 90.5977 170.9 91.0977Z" fill="#0084D9"/>
<path d="M174.2 93.3977V89.5977H174.9L175 90.1977C175.3 89.7977 175.8 89.5977 176.2 89.5977C176.7 89.5977 177 89.7977 177.2 90.0977C177.6 89.7977 178 89.5977 178.4 89.5977C179.3 89.5977 179.7 90.0977 179.7 90.9977V93.3977H178.7V90.9977C178.7 90.5977 178.5 90.3977 178.1 90.3977C177.8 90.3977 177.5 90.4977 177.3 90.7977V93.3977H176.3V90.9977C176.3 90.5977 176.1 90.3977 175.8 90.3977C175.5 90.3977 175.3 90.4977 175 90.7977V93.3977H174.2Z" fill="#0084D9"/>
<path d="M180.7 89.7C181.2 89.6 181.7 89.5 182.3 89.5C183.6 89.5 184.2 90.1 184.2 91.3C184.2 92.6 183.6 93.3 182.4 93.3C182.1 93.3 181.9 93.2 181.6 93.1V94.7H180.6V89.7H180.7ZM181.6 92.4C181.8 92.5 182.1 92.6 182.4 92.6C183 92.6 183.3 92.2 183.3 91.4C183.3 90.7 183 90.4 182.4 90.4C182.1 90.4 181.9 90.4 181.7 90.4V92.4H181.6Z" fill="#0084D9"/>
<path d="M184.9 93.3977V89.5977H185.6L185.7 90.0977C186 89.7977 186.4 89.5977 186.8 89.5977V90.3977C186.4 90.3977 186.1 90.4977 185.8 90.7977V93.3977H184.9Z" fill="#0084D9"/>
<path d="M189 89.5977C190.2 89.5977 190.7 90.1977 190.7 91.3977C190.7 91.5977 190.7 91.6977 190.7 91.8977H188.2C188.2 92.3977 188.6 92.6977 189.4 92.6977C189.8 92.6977 190.2 92.6977 190.6 92.5977V93.3977C190.3 93.4977 189.9 93.4977 189.4 93.4977C188 93.4977 187.3 92.8977 187.3 91.5977C187.2 90.1977 187.8 89.5977 189 89.5977ZM188.2 91.0977H189.8C189.8 90.5977 189.5 90.2977 189 90.2977C188.5 90.2977 188.2 90.5977 188.2 91.0977Z" fill="#0084D9"/>
<path d="M191.4 93.1977V92.3977C191.8 92.5977 192.3 92.6977 192.9 92.6977C193.3 92.6977 193.5 92.5977 193.5 92.2977C193.5 91.9977 193.4 91.8977 193.1 91.8977H192.4C191.6 91.8977 191.2 91.4977 191.2 90.7977C191.2 89.9977 191.8 89.5977 192.9 89.5977C193.4 89.5977 193.8 89.6977 194.3 89.7977V90.5977C193.9 90.3977 193.4 90.2977 192.9 90.2977C192.4 90.2977 192.1 90.3977 192.1 90.6977C192.1 90.9977 192.3 91.0977 192.6 91.0977H193.2C194 91.0977 194.5 91.4977 194.5 92.1977C194.5 92.9977 194 93.3977 192.9 93.3977C192.3 93.3977 191.9 93.2977 191.4 93.1977Z" fill="#0084D9"/>
<path d="M195 92.1977C195 91.3977 195.6 91.0977 196.7 91.0977C197 91.0977 197.2 91.0977 197.5 91.1977V90.8977C197.5 90.5977 197.3 90.3977 196.8 90.3977C196.4 90.3977 195.9 90.4977 195.4 90.5977V89.7977C195.9 89.6977 196.4 89.5977 196.8 89.5977C197.9 89.5977 198.5 89.9977 198.5 90.8977V93.4977H197.9L197.6 93.1977C197.3 93.3977 196.9 93.4977 196.5 93.4977C195.4 93.3977 195 92.9977 195 92.1977ZM196.6 91.6977C196.1 91.6977 195.9 91.8977 195.9 92.1977C195.9 92.4977 196.1 92.6977 196.5 92.6977C196.8 92.6977 197.1 92.5977 197.4 92.3977V91.7977C197.2 91.6977 196.9 91.6977 196.6 91.6977Z" fill="#0084D9"/>
<path d="M200.4 89.5977H201.4L202.4 92.2977L203.3 89.5977H204.3L202.7 93.4977C202.4 94.1977 202 94.6977 201.4 94.9977L200.9 94.2977C201.3 94.0977 201.6 93.7977 201.8 93.3977L200.4 89.5977Z" fill="#0084D9"/>
<path d="M208 89.5977C209.2 89.5977 209.7 90.1977 209.7 91.3977C209.7 91.5977 209.7 91.6977 209.7 91.8977H207.2C207.2 92.3977 207.6 92.6977 208.4 92.6977C208.8 92.6977 209.2 92.6977 209.6 92.5977V93.3977C209.3 93.4977 208.9 93.4977 208.4 93.4977C207 93.4977 206.3 92.8977 206.3 91.5977C206.3 90.1977 206.9 89.5977 208 89.5977ZM207.2 91.0977H208.8C208.8 90.5977 208.5 90.2977 208 90.2977C207.5 90.2977 207.3 90.5977 207.2 91.0977Z" fill="#0084D9"/>
<path d="M211.5 88.1992V93.3992H210.5V88.1992H211.5Z" fill="#0084D9"/>
<path d="M214 93.1977V92.3977C214.4 92.5977 214.9 92.6977 215.5 92.6977C215.9 92.6977 216.1 92.5977 216.1 92.2977C216.1 91.9977 216 91.8977 215.7 91.8977H215C214.2 91.8977 213.8 91.4977 213.8 90.7977C213.8 89.9977 214.4 89.5977 215.5 89.5977C216 89.5977 216.4 89.6977 216.9 89.7977V90.5977C216.5 90.3977 216 90.2977 215.5 90.2977C215 90.2977 214.7 90.3977 214.7 90.6977C214.7 90.9977 214.9 91.0977 215.2 91.0977H215.8C216.6 91.0977 217.1 91.4977 217.1 92.1977C217.1 92.9977 216.6 93.3977 215.5 93.3977C214.9 93.3977 214.4 93.2977 214 93.1977Z" fill="#0084D9"/>
<path d="M219.3 89.5977C220.5 89.5977 221 90.1977 221 91.3977C221 91.5977 221 91.6977 221 91.8977H218.5C218.5 92.3977 218.9 92.6977 219.7 92.6977C220.1 92.6977 220.5 92.6977 220.9 92.5977V93.3977C220.6 93.4977 220.2 93.4977 219.7 93.4977C218.3 93.4977 217.6 92.8977 217.6 91.5977C217.5 90.1977 218.1 89.5977 219.3 89.5977ZM218.5 91.0977H220.1C220.1 90.5977 219.8 90.2977 219.3 90.2977C218.8 90.2977 218.5 90.5977 218.5 91.0977Z" fill="#0084D9"/>
<path d="M221.8 93.3977V89.5977H222.5L222.6 90.0977C222.9 89.7977 223.3 89.5977 223.7 89.5977V90.3977C223.3 90.3977 223 90.4977 222.7 90.7977V93.3977H221.8Z" fill="#0084D9"/>
<path d="M223.8 89.5977H224.8L225.7 92.2977L226.7 89.5977H227.7L226.2 93.3977H225.3L223.8 89.5977Z" fill="#0084D9"/>
<path d="M229.1 88.1992V88.9992H228.1V88.1992H229.1ZM229.1 89.5992V93.3992H228.1V89.5992H229.1Z" fill="#0084D9"/>
<path d="M232.8 93.2977C232.5 93.3977 232.2 93.3977 231.8 93.3977C230.4 93.3977 229.8 92.6977 229.8 91.3977C229.8 90.1977 230.5 89.5977 231.8 89.5977C232.1 89.5977 232.5 89.5977 232.8 89.6977V90.4977C232.5 90.3977 232.2 90.3977 231.9 90.3977C231.1 90.3977 230.8 90.7977 230.8 91.4977C230.8 92.2977 231.2 92.6977 231.9 92.6977C232.2 92.6977 232.5 92.6977 232.8 92.5977V93.2977Z" fill="#0084D9"/>
<path d="M234.4 88.1992V88.9992H233.4V88.1992H234.4ZM234.4 89.5992V93.3992H233.4V89.5992H234.4Z" fill="#0084D9"/>
<path d="M235.1 91.4977C235.1 90.1977 235.7 89.5977 237 89.5977C238.3 89.5977 238.9 90.1977 238.9 91.4977C238.9 92.7977 238.3 93.3977 237 93.3977C235.8 93.3977 235.1 92.6977 235.1 91.4977ZM237 92.5977C237.6 92.5977 237.9 92.1977 237.9 91.3977C237.9 90.5977 237.6 90.1977 237 90.1977C236.4 90.1977 236.1 90.5977 236.1 91.3977C236.1 92.2977 236.4 92.5977 237 92.5977Z" fill="#0084D9"/>
<path d="M241.1 92.1977C241.1 91.3977 241.7 91.0977 242.8 91.0977C243.1 91.0977 243.3 91.0977 243.6 91.1977V90.8977C243.6 90.5977 243.4 90.3977 242.9 90.3977C242.5 90.3977 242 90.4977 241.5 90.5977V89.7977C242 89.6977 242.5 89.5977 242.9 89.5977C244 89.5977 244.6 89.9977 244.6 90.8977V93.4977H244L243.7 93.1977C243.4 93.3977 243 93.4977 242.6 93.4977C241.5 93.3977 241.1 92.9977 241.1 92.1977ZM242.7 91.6977C242.2 91.6977 242 91.8977 242 92.1977C242 92.4977 242.2 92.6977 242.6 92.6977C242.9 92.6977 243.2 92.5977 243.5 92.3977V91.7977C243.3 91.6977 243 91.6977 242.7 91.6977Z" fill="#0084D9"/>
<path d="M247 89.7C247.5 89.6 248 89.5 248.6 89.5C249.9 89.5 250.5 90.1 250.5 91.3C250.5 92.6 249.9 93.3 248.7 93.3C248.4 93.3 248.2 93.2 247.9 93.1V94.7H246.9V89.7H247ZM248 92.4C248.2 92.5 248.5 92.6 248.8 92.6C249.4 92.6 249.7 92.2 249.7 91.4C249.7 90.7 249.4 90.4 248.8 90.4C248.5 90.4 248.3 90.4 248.1 90.4V92.4H248Z" fill="#0084D9"/>
<path d="M251.1 92.1977C251.1 91.3977 251.7 91.0977 252.8 91.0977C253.1 91.0977 253.3 91.0977 253.6 91.1977V90.8977C253.6 90.5977 253.4 90.3977 252.9 90.3977C252.5 90.3977 252 90.4977 251.5 90.5977V89.7977C252 89.6977 252.5 89.5977 252.9 89.5977C254 89.5977 254.6 89.9977 254.6 90.8977V93.4977H254L253.7 93.1977C253.4 93.3977 253 93.4977 252.6 93.4977C251.6 93.3977 251.1 92.9977 251.1 92.1977ZM252.7 91.6977C252.2 91.6977 252 91.8977 252 92.1977C252 92.4977 252.2 92.6977 252.6 92.6977C252.9 92.6977 253.2 92.5977 253.5 92.3977V91.7977C253.3 91.6977 253 91.6977 252.7 91.6977Z" fill="#0084D9"/>
<path d="M258.8 93.1C258.8 94.2 258.1 94.8 256.8 94.8C256.3 94.8 255.9 94.7 255.6 94.6V93.8C256 93.9 256.4 94 256.9 94C257.6 94 257.9 93.7 257.9 93.1C257.6 93.2 257.3 93.3 257 93.3C255.9 93.3 255.3 92.7 255.3 91.4C255.3 90.1 256 89.5 257.3 89.5C257.7 89.5 258.3 89.6 258.9 89.7V93.1H258.8ZM257.8 90.4C257.6 90.3 257.4 90.3 257.1 90.3C256.4 90.3 256.1 90.7 256.1 91.4C256.1 92.1 256.4 92.5 257 92.5C257.3 92.5 257.5 92.4 257.8 92.3V90.4Z" fill="#0084D9"/>
<path d="M259.5 92.1977C259.5 91.3977 260.1 91.0977 261.2 91.0977C261.5 91.0977 261.7 91.0977 262 91.1977V90.8977C262 90.5977 261.8 90.3977 261.3 90.3977C260.9 90.3977 260.4 90.4977 259.9 90.5977V89.7977C260.4 89.6977 260.9 89.5977 261.3 89.5977C262.4 89.5977 263 89.9977 263 90.8977V93.4977H262.4L262 92.9977C261.7 93.1977 261.3 93.2977 260.9 93.2977C260 93.3977 259.5 92.9977 259.5 92.1977ZM261.1 91.6977C260.6 91.6977 260.4 91.8977 260.4 92.1977C260.4 92.4977 260.6 92.6977 261 92.6977C261.3 92.6977 261.6 92.5977 261.9 92.3977V91.7977C261.7 91.6977 261.4 91.6977 261.1 91.6977Z" fill="#0084D9"/>
<path d="M263.8 93.3977V89.5977H264.5L264.6 90.0977C264.9 89.7977 265.3 89.5977 265.7 89.5977V90.3977C265.3 90.3977 265 90.4977 264.7 90.7977V93.3977H263.8Z" fill="#0084D9"/>
<path d="M267.2 89.5977V90.4977H266.2V89.5977H267.2ZM267.2 92.4977V93.3977H266.2V92.4977H267.2Z" fill="#0084D9"/>
<path d="M71.1001 154.098V148.898H73.5001C74.5001 148.898 75.0001 149.298 75.0001 150.098C75.0001 150.698 74.7001 151.098 74.0001 151.398C74.7001 151.498 75.0001 151.898 75.0001 152.598C75.0001 153.598 74.5001 154.098 73.4001 154.098H71.1001ZM73.4001 153.198C73.8001 153.198 74.0001 152.998 74.0001 152.498C74.0001 151.998 73.7001 151.698 73.0001 151.698H72.7001V151.098C73.5001 150.998 73.9001 150.598 73.9001 150.098C73.9001 149.798 73.7001 149.698 73.4001 149.698H72.0001V153.198H73.4001Z" fill="#434344"/>
<path d="M79.2002 150.299V154.099H78.4002L78.3002 153.599C77.9002 153.899 77.4002 154.099 76.9002 154.099C76.1002 154.099 75.7002 153.599 75.7002 152.699V150.299H76.7002V152.699C76.7002 153.099 76.9002 153.299 77.3002 153.299C77.6002 153.299 77.9002 153.199 78.3002 152.899V150.199H79.2002V150.299Z" fill="#434344"/>
<path d="M80.1001 153.897V153.097C80.5001 153.297 81.0001 153.397 81.6001 153.397C82.0001 153.397 82.2001 153.297 82.2001 152.997C82.2001 152.697 82.1001 152.597 81.8001 152.597H81.1001C80.3001 152.597 79.9001 152.197 79.9001 151.497C79.9001 150.697 80.5001 150.297 81.6001 150.297C82.1001 150.297 82.5001 150.397 83.0001 150.497V151.297C82.6001 151.097 82.1001 150.997 81.6001 150.997C81.1001 150.997 80.8001 151.097 80.8001 151.397C80.8001 151.697 81.0001 151.797 81.3001 151.797H81.9001C82.7001 151.797 83.2001 152.197 83.2001 152.897C83.2001 153.697 82.7001 154.097 81.6001 154.097C81.0001 154.097 80.5001 153.997 80.1001 153.897Z" fill="#434344"/>
<path d="M86.6001 153.997C86.3001 154.097 86.0001 154.097 85.6001 154.097C84.2001 154.097 83.6001 153.397 83.6001 152.097C83.6001 150.897 84.3001 150.297 85.6001 150.297C85.9001 150.297 86.3001 150.297 86.6001 150.397V151.197C86.3001 151.097 86.0001 151.097 85.7001 151.097C84.9001 151.097 84.6001 151.497 84.6001 152.197C84.6001 152.997 85.0001 153.397 85.7001 153.397C86.0001 153.397 86.3001 153.397 86.6001 153.297V153.997Z" fill="#434344"/>
<path d="M87.1001 152.897C87.1001 152.097 87.7001 151.797 88.8001 151.797C89.1001 151.797 89.3001 151.797 89.6001 151.897V151.597C89.6001 151.297 89.4001 151.097 88.9001 151.097C88.5001 151.097 88.0001 151.197 87.5001 151.297V150.497C88.0001 150.397 88.5001 150.297 88.9001 150.297C90.0001 150.297 90.6001 150.697 90.6001 151.597V154.197H90.0001L89.7001 153.897C89.4001 154.097 89.0001 154.197 88.6001 154.197C87.5001 154.097 87.1001 153.697 87.1001 152.897ZM88.7001 152.397C88.2001 152.397 88.0001 152.597 88.0001 152.897C88.0001 153.197 88.2001 153.397 88.6001 153.397C88.9001 153.397 89.2001 153.297 89.5001 153.097V152.497C89.2001 152.397 89.0001 152.397 88.7001 152.397Z" fill="#434344"/>
<path d="M96.4001 150.299V154.099H95.6001L95.5001 153.599C95.1001 153.899 94.6001 154.099 94.1001 154.099C93.3001 154.099 92.9001 153.599 92.9001 152.699V150.299H93.9001V152.699C93.9001 153.099 94.1001 153.299 94.5001 153.299C94.8001 153.299 95.1001 153.199 95.5001 152.899V150.199H96.4001V150.299Z" fill="#434344"/>
<path d="M97.3 154.097V150.297H98L98.1 150.897C98.5 150.497 98.9 150.297 99.3 150.297C100.2 150.297 100.7 150.797 100.7 151.697V154.097H99.7V151.697C99.7 151.297 99.5 151.097 99.1 151.097C98.8 151.097 98.5 151.197 98.2 151.497V154.197H97.3V154.097Z" fill="#434344"/>
<path d="M101.5 152.897C101.5 152.097 102.1 151.797 103.2 151.797C103.5 151.797 103.7 151.797 104 151.897V151.597C104 151.297 103.8 151.097 103.3 151.097C102.9 151.097 102.4 151.197 101.9 151.297V150.497C102.4 150.397 102.9 150.297 103.3 150.297C104.4 150.297 105 150.697 105 151.597V154.197H104.4L104.1 153.897C103.8 154.097 103.4 154.197 103 154.197C102 154.097 101.5 153.697 101.5 152.897ZM103.1 152.397C102.6 152.397 102.4 152.597 102.4 152.897C102.4 153.197 102.6 153.397 103 153.397C103.3 153.397 103.6 153.297 103.9 153.097V152.497C103.7 152.397 103.4 152.397 103.1 152.397Z" fill="#434344"/>
<path d="M108.4 148.898V149.698H107.4V148.898H108.4ZM108.4 150.298V154.098H107.4V150.298H108.4Z" fill="#434344"/>
<path d="M109.3 154.097V150.297H110L110.1 150.897C110.5 150.497 110.9 150.297 111.3 150.297C112.2 150.297 112.7 150.797 112.7 151.697V154.097H111.7V151.697C111.7 151.297 111.5 151.097 111.1 151.097C110.8 151.097 110.5 151.197 110.2 151.497V154.197H109.3V154.097Z" fill="#434344"/>
<path d="M113.7 153.897V153.097C114.1 153.297 114.6 153.397 115.2 153.397C115.6 153.397 115.8 153.297 115.8 152.997C115.8 152.697 115.7 152.597 115.4 152.597H114.7C113.9 152.597 113.5 152.197 113.5 151.497C113.5 150.697 114.1 150.297 115.2 150.297C115.7 150.297 116.1 150.397 116.6 150.497V151.297C116.2 151.097 115.7 150.997 115.2 150.997C114.7 150.997 114.4 151.097 114.4 151.397C114.4 151.697 114.6 151.797 114.9 151.797H115.5C116.3 151.797 116.8 152.197 116.8 152.897C116.8 153.697 116.3 154.097 115.2 154.097C114.6 154.097 114.1 153.997 113.7 153.897Z" fill="#434344"/>
<path d="M117.3 149.699H118L118.1 150.299H119.1V151.099H118.2V152.899C118.2 153.299 118.4 153.399 118.7 153.399H119.1V154.199H118.2C117.6 154.199 117.2 153.899 117.2 153.199V149.699H117.3Z" fill="#434344"/>
<path d="M120.7 148.898V149.698H119.7V148.898H120.7ZM120.7 150.298V154.098H119.7V150.298H120.7Z" fill="#434344"/>
<path d="M121.6 149.699H122.3L122.4 150.299H123.4V151.099H122.5V152.899C122.5 153.299 122.7 153.399 123 153.399H123.4V154.199H122.5C121.9 154.199 121.5 153.899 121.5 153.199V149.699H121.6Z" fill="#434344"/>
<path d="M127.5 150.299V154.099H126.7L126.6 153.599C126.2 153.899 125.7 154.099 125.2 154.099C124.4 154.099 124 153.599 124 152.699V150.299H125V152.699C125 153.099 125.2 153.299 125.6 153.299C125.9 153.299 126.2 153.199 126.6 152.899V150.199H127.5V150.299Z" fill="#434344"/>
<path d="M131.2 153.997C130.9 154.097 130.6 154.097 130.2 154.097C128.8 154.097 128.2 153.397 128.2 152.097C128.2 150.897 128.9 150.297 130.2 150.297C130.5 150.297 130.9 150.297 131.2 150.397V151.197C130.9 151.097 130.6 151.097 130.3 151.097C129.5 151.097 129.2 151.497 129.2 152.197C129.2 152.997 129.6 153.397 130.3 153.397C130.6 153.397 130.9 153.397 131.2 153.297V153.997Z" fill="#434344"/>
<path d="M132.8 148.898V149.698H131.8V148.898H132.8ZM132.8 150.298V154.098H131.8V150.298H132.8Z" fill="#434344"/>
<path d="M133.5 152.198C133.5 150.898 134.1 150.298 135.4 150.298C136.7 150.298 137.3 150.898 137.3 152.198C137.3 153.498 136.7 154.098 135.4 154.098C134.1 154.098 133.5 153.498 133.5 152.198ZM135.4 153.398C136 153.398 136.3 152.998 136.3 152.198C136.3 151.398 136 150.998 135.4 150.998C134.8 150.998 134.5 151.398 134.5 152.198C134.5 152.998 134.8 153.398 135.4 153.398ZM135.4 148.898H136.6L135.7 149.798H134.9L135.4 148.898Z" fill="#434344"/>
<path d="M138 154.097V150.297H138.7L138.8 150.897C139.2 150.497 139.6 150.297 140 150.297C140.9 150.297 141.4 150.797 141.4 151.697V154.097H140.4V151.697C140.4 151.297 140.2 151.097 139.8 151.097C139.5 151.097 139.2 151.197 138.9 151.497V154.197H138V154.097Z" fill="#434344"/>
<path d="M143.8 152.197C143.8 150.897 144.4 150.297 145.7 150.297C147 150.297 147.6 150.897 147.6 152.197C147.6 153.497 147 154.097 145.7 154.097C144.4 154.097 143.8 153.497 143.8 152.197ZM145.7 153.397C146.3 153.397 146.6 152.997 146.6 152.197C146.6 151.397 146.3 150.997 145.7 150.997C145.1 150.997 144.8 151.397 144.8 152.197C144.8 152.997 145.1 153.397 145.7 153.397Z" fill="#434344"/>
<path d="M151.5 150.297C152.7 150.297 153.2 150.897 153.2 152.097C153.2 152.297 153.2 152.397 153.2 152.597H150.7C150.7 153.097 151.1 153.397 151.9 153.397C152.3 153.397 152.7 153.397 153.1 153.297V154.097C152.8 154.197 152.4 154.197 151.9 154.197C150.5 154.197 149.8 153.597 149.8 152.297C149.8 150.897 150.4 150.297 151.5 150.297ZM150.7 151.797H152.3C152.3 151.297 152 150.997 151.5 150.997C151 150.997 150.8 151.297 150.7 151.797Z" fill="#434344"/>
<path d="M154 154.097V150.297H154.7L154.8 150.897C155.1 150.497 155.5 150.297 156 150.297C156.5 150.297 156.8 150.497 157 150.797C157.4 150.497 157.8 150.297 158.2 150.297C159.1 150.297 159.5 150.797 159.5 151.697V154.097H158.5V151.697C158.5 151.297 158.3 151.097 157.9 151.097C157.6 151.097 157.3 151.197 157.1 151.497V154.097H156.1V151.697C156.1 151.297 155.9 151.097 155.6 151.097C155.3 151.097 155.1 151.197 154.8 151.497V154.097H154Z" fill="#434344"/>
<path d="M160.5 150.399C161 150.299 161.5 150.199 162.1 150.199C163.4 150.199 164 150.799 164 151.999C164 153.299 163.4 153.999 162.2 153.999C161.9 153.999 161.7 153.899 161.4 153.799V155.399H160.4V150.399H160.5ZM161.5 153.099C161.7 153.199 162 153.299 162.3 153.299C162.9 153.299 163.2 152.899 163.2 152.099C163.2 151.399 162.9 151.099 162.3 151.099C162 151.099 161.8 151.099 161.6 151.099V153.099H161.5Z" fill="#434344"/>
<path d="M164.8 154.097V150.297H165.5L165.6 150.797C165.9 150.497 166.3 150.297 166.7 150.297V151.097C166.3 151.097 166 151.197 165.7 151.497V154.097H164.8Z" fill="#434344"/>
<path d="M168.8 150.297C170 150.297 170.5 150.897 170.5 152.097C170.5 152.297 170.5 152.397 170.5 152.597H168C168 153.097 168.4 153.397 169.2 153.397C169.6 153.397 170 153.397 170.4 153.297V154.097C170.1 154.197 169.7 154.197 169.2 154.197C167.8 154.197 167.1 153.597 167.1 152.297C167 150.897 167.6 150.297 168.8 150.297ZM168 151.797H169.6C169.6 151.297 169.3 150.997 168.8 150.997C168.3 150.997 168 151.297 168 151.797Z" fill="#434344"/>
<path d="M171.3 153.897V153.097C171.7 153.297 172.2 153.397 172.8 153.397C173.2 153.397 173.4 153.297 173.4 152.997C173.4 152.697 173.3 152.597 173 152.597H172.3C171.5 152.597 171.1 152.197 171.1 151.497C171.1 150.697 171.7 150.297 172.8 150.297C173.3 150.297 173.7 150.397 174.2 150.497V151.297C173.8 151.097 173.3 150.997 172.8 150.997C172.3 150.997 172 151.097 172 151.397C172 151.697 172.2 151.797 172.5 151.797H173.1C173.9 151.797 174.4 152.197 174.4 152.897C174.4 153.697 173.9 154.097 172.8 154.097C172.2 154.097 171.7 153.997 171.3 153.897Z" fill="#434344"/>
<path d="M174.8 152.897C174.8 152.097 175.4 151.797 176.5 151.797C176.8 151.797 177 151.797 177.3 151.897V151.597C177.3 151.297 177.1 151.097 176.6 151.097C176.2 151.097 175.7 151.197 175.2 151.297V150.497C175.7 150.397 176.2 150.297 176.6 150.297C177.7 150.297 178.3 150.697 178.3 151.597V154.197H177.7L177.4 153.897C177.1 154.097 176.7 154.197 176.3 154.197C175.3 154.097 174.8 153.697 174.8 152.897ZM176.5 152.397C176 152.397 175.8 152.597 175.8 152.897C175.8 153.197 176 153.397 176.4 153.397C176.7 153.397 177 153.297 177.3 153.097V152.497C177 152.397 176.7 152.397 176.5 152.397Z" fill="#434344"/>
<path d="M180.1 150.297V151.197H179.1V150.297H180.1ZM180.1 153.197V154.097H179.1V153.197H180.1Z" fill="#434344"/>
<path d="M161.8 197.203H160.8L163.1 191.703H164.2L166.6 197.203H165.5L164.9 195.703H163L163.4 194.803H164.5L163.6 192.703L161.8 197.203Z" fill="#434344"/>
<path d="M171.6 196.902C171.1 197.102 170.6 197.202 170 197.202C168 197.202 167 196.202 167 194.302C167 192.502 168 191.602 170 191.602C170.6 191.602 171.1 191.702 171.6 191.902V192.802C171.1 192.602 170.6 192.502 170.1 192.502C168.8 192.502 168.1 193.102 168.1 194.302C168.1 195.602 168.8 196.302 170.1 196.302C170.7 196.302 171.2 196.202 171.6 196.002V196.902Z" fill="#434344"/>
<path d="M173.2 197.203H172.2L174.5 191.703H175.6L178 197.203H176.9L176.3 195.703H174.5L174.9 194.803H176L175.1 192.703L173.2 197.203Z" fill="#434344"/>
<path d="M178.6 197.203V191.703H180.8C182.6 191.703 183.5 192.603 183.5 194.303C183.5 196.203 182.6 197.203 180.8 197.203H178.6ZM180.8 196.303C181.9 196.303 182.5 195.603 182.5 194.303C182.5 193.203 181.9 192.603 180.8 192.603H179.7V196.303H180.8Z" fill="#434344"/>
<path d="M188.1 191.602V192.502H185.3V193.902H187.9V194.802H185.3V196.202H188.1V197.102H184.3V191.602H188.1Z" fill="#434344"/>
<path d="M189.1 197.203V191.703H190.2L192.1 195.903L193.9 191.703H194.9V197.203H194V193.403L192.5 197.203H191.6L190.1 193.403V197.203H189.1Z" fill="#434344"/>
<path d="M197.1 191.602V197.102H196.1V191.602H197.1Z" fill="#434344"/>
<path d="M198.8 197.203H197.8L200.1 191.703H201.2L203.6 197.203H202.5L201.9 195.703H200L200.4 194.803H201.5L200.6 192.703L198.8 197.203Z" fill="#434344"/>
<path d="M209.6 191.602V192.502H208V197.102H207V192.502H205.4V191.602H209.6Z" fill="#434344"/>
<path d="M210.2 197.102V191.602H212.7C213.8 191.602 214.4 192.102 214.4 193.102C214.4 193.802 214 194.302 213.1 194.802L214.8 197.202H213.5L211.8 194.802V194.302C212.8 194.102 213.3 193.802 213.3 193.202C213.3 192.802 213.1 192.602 212.6 192.602H211.2V197.202H210.2V197.102Z" fill="#434344"/>
<path d="M216.3 191.602V197.102H215.3V191.602H216.3Z" fill="#434344"/>
<path d="M218.5 191.602V196.202H220.7V197.102H217.5V191.602H218.5Z" fill="#434344"/>
<path d="M225.5 196.902C225 197.102 224.5 197.202 223.9 197.202C221.9 197.202 220.9 196.202 220.9 194.302C220.9 192.502 221.9 191.602 223.9 191.602C224.5 191.602 225 191.702 225.5 191.902V192.802C225 192.602 224.5 192.502 224 192.502C222.7 192.502 222 193.102 222 194.302C222 195.602 222.7 196.302 224 196.302C224.6 196.302 225.1 196.202 225.5 196.002V196.902Z" fill="#434344"/>
<path d="M230.2 191.602V192.502H227.4V193.902H230V194.802H227.4V196.202H230.2V197.102H226.4V191.602H230.2Z" fill="#434344"/>
<path d="M93.5 170.298C93.1 170.498 92.6 170.598 92 170.598C90.2 170.598 89.2 169.698 89.2 167.898C89.2 166.198 90.1 165.398 92 165.398C92.6 165.398 93.1 165.498 93.5 165.698V166.598C93.1 166.398 92.6 166.298 92.1 166.298C90.9 166.298 90.2 166.898 90.2 167.998C90.2 169.198 90.8 169.898 92.1 169.898C92.6 169.898 93.1 169.798 93.5 169.598V170.298Z" fill="#828587"/>
<path d="M94.0999 169.299C94.0999 168.499 94.5999 168.199 95.6999 168.199C95.9999 168.199 96.1999 168.199 96.4999 168.299V167.999C96.4999 167.699 96.2999 167.499 95.7999 167.499C95.3999 167.499 94.8999 167.599 94.3999 167.699V166.899C94.8999 166.799 95.3999 166.699 95.7999 166.699C96.8999 166.699 97.4999 167.099 97.4999 167.899V170.399H96.8999L96.5999 170.099C96.2999 170.299 95.8999 170.399 95.4999 170.399C94.5999 170.499 94.0999 170.099 94.0999 169.299ZM95.6999 168.799C95.1999 168.799 94.9999 168.999 94.9999 169.299C94.9999 169.599 95.1999 169.799 95.5999 169.799C95.8999 169.799 96.1999 169.699 96.4999 169.499V168.899C96.2999 168.899 95.9999 168.799 95.6999 168.799Z" fill="#828587"/>
<path d="M98.3 166.098H99L99.1 166.698H100V167.498H99.2V169.198C99.2 169.598 99.4 169.698 99.7 169.698H100.1V170.498H99.3C98.7 170.498 98.4 170.198 98.4 169.498V166.098H98.3Z" fill="#828587"/>
<path d="M102.3 166.699C103.4 166.699 104 167.299 104 168.499C104 168.699 104 168.799 104 168.999H101.5C101.5 169.499 101.9 169.799 102.7 169.799C103.1 169.799 103.5 169.799 103.8 169.699V170.499C103.5 170.599 103.1 170.599 102.6 170.599C101.2 170.599 100.5 169.999 100.5 168.699C100.6 167.299 101.2 166.699 102.3 166.699ZM101.5 168.299H103.1C103.1 167.799 102.8 167.499 102.3 167.499C101.8 167.499 101.6 167.699 101.5 168.299Z" fill="#828587"/>
<path d="M108.2 170.199C108.2 171.299 107.5 171.899 106.2 171.899C105.7 171.899 105.3 171.799 105 171.699V170.899C105.4 170.999 105.8 171.099 106.2 171.099C106.9 171.099 107.2 170.799 107.2 170.199C106.9 170.299 106.6 170.399 106.3 170.399C105.2 170.399 104.6 169.799 104.6 168.599C104.6 167.399 105.3 166.699 106.6 166.699C107 166.699 107.6 166.799 108.2 166.899V170.199ZM107.2 167.599C107 167.499 106.8 167.499 106.5 167.499C105.8 167.499 105.5 167.899 105.5 168.599C105.5 169.299 105.8 169.699 106.4 169.699C106.7 169.699 106.9 169.599 107.2 169.499V167.599Z" fill="#828587"/>
<path d="M108.9 168.599C108.9 167.299 109.5 166.699 110.8 166.699C112.1 166.699 112.7 167.299 112.7 168.599C112.7 169.899 112.1 170.499 110.8 170.499C109.5 170.499 108.9 169.899 108.9 168.599ZM110.7 169.799C111.3 169.799 111.6 169.399 111.6 168.599C111.6 167.799 111.3 167.399 110.7 167.399C110.1 167.399 109.8 167.799 109.8 168.599C109.8 169.399 110.1 169.799 110.7 169.799Z" fill="#828587"/>
<path d="M113.3 170.499V166.699H114L114.1 167.199C114.4 166.899 114.8 166.699 115.1 166.699V167.499C114.7 167.499 114.4 167.599 114.1 167.899V170.499H113.3Z" fill="#828587"/>
<path d="M116.2 165.398H117.3L116.4 166.298H115.6L116.2 165.398ZM116.7 166.698V170.498H115.7V166.698H116.7Z" fill="#828587"/>
<path d="M117.4 169.299C117.4 168.499 117.9 168.199 119 168.199C119.3 168.199 119.5 168.199 119.8 168.299V167.999C119.8 167.699 119.6 167.499 119.1 167.499C118.7 167.499 118.2 167.599 117.7 167.699V166.899C118.2 166.799 118.7 166.699 119.1 166.699C120.2 166.699 120.8 167.099 120.8 167.899V170.399H120.2L119.9 170.099C119.6 170.299 119.2 170.399 118.8 170.399C117.9 170.499 117.4 170.099 117.4 169.299ZM119.1 168.799C118.6 168.799 118.4 168.999 118.4 169.299C118.4 169.599 118.6 169.799 119 169.799C119.3 169.799 119.6 169.699 119.9 169.499V168.899C119.6 168.899 119.4 168.799 119.1 168.799Z" fill="#828587"/>
<path d="M89.3999 193.401V188.301H90.3999L92.9999 192.001V188.301H93.9999V193.401H92.9999L90.2999 189.601V193.401H89.3999Z" fill="#828587"/>
<path d="M94.7998 191.502C94.7998 190.202 95.3998 189.602 96.6998 189.602C97.8998 189.602 98.5998 190.202 98.5998 191.502C98.5998 192.802 97.9998 193.402 96.6998 193.402C95.3998 193.402 94.7998 192.802 94.7998 191.502ZM96.5998 192.702C97.1998 192.702 97.4998 192.302 97.4998 191.502C97.4998 190.702 97.1998 190.302 96.5998 190.302C95.9998 190.302 95.6998 190.702 95.6998 191.502C95.6998 192.302 95.9998 192.702 96.5998 192.702Z" fill="#828587"/>
<path d="M99.2 193.402V189.602H99.9L100 190.102C100.3 189.702 100.7 189.602 101.2 189.602C101.7 189.602 102 189.802 102.2 190.102C102.6 189.802 103 189.602 103.4 189.602C104.3 189.602 104.7 190.102 104.7 191.002V193.302H103.7V191.002C103.7 190.602 103.5 190.402 103.1 190.402C102.8 190.402 102.5 190.502 102.3 190.802V193.402H101.3V191.002C101.3 190.602 101.1 190.402 100.8 190.402C100.5 190.402 100.3 190.502 100 190.802V193.402H99.2Z" fill="#828587"/>
<path d="M105.7 188.301H106.7V190.001C107 189.801 107.3 189.701 107.7 189.701C108.8 189.701 109.3 190.301 109.3 191.501C109.3 192.801 108.7 193.501 107.5 193.501C107 193.501 106.4 193.401 105.8 193.301V188.301H105.7ZM106.6 192.501C106.8 192.601 107.1 192.601 107.4 192.601C108 192.601 108.3 192.201 108.3 191.401C108.3 190.701 108.1 190.401 107.6 190.401C107.3 190.401 107 190.501 106.7 190.601V192.501H106.6Z" fill="#828587"/>
<path d="M109.9 193.402V189.602H110.6L110.7 190.102C111 189.802 111.4 189.602 111.7 189.602V190.402C111.3 190.402 111 190.502 110.7 190.802V193.402H109.9Z" fill="#828587"/>
<path d="M114 189.602C115.1 189.602 115.7 190.202 115.7 191.402C115.7 191.602 115.7 191.702 115.7 191.902H113.2C113.2 192.402 113.6 192.702 114.4 192.702C114.8 192.702 115.2 192.702 115.5 192.602V193.402C115.2 193.502 114.8 193.502 114.3 193.502C112.9 193.502 112.2 192.902 112.2 191.602C112.2 190.202 112.8 189.602 114 189.602ZM113.1 191.202H114.7C114.7 190.702 114.4 190.402 113.9 190.402C113.5 190.402 113.2 190.602 113.1 191.202Z" fill="#828587"/>
<path d="M64.2999 57.4984V54.0984H63.8999V53.7984L65.0999 53.3984V57.4984H64.2999Z" fill="#0084D9"/>
<path d="M66.5999 56.7969V57.4969H65.8999V56.7969H66.5999Z" fill="#0084D9"/>
<path d="M68.4999 57.4V56.7C68.8999 56.9 69.3999 56.9 69.8999 56.9C70.4999 56.9 70.7999 56.7 70.7999 56.3C70.7999 56 70.5999 55.8 70.1999 55.8H69.5999C68.7999 55.8 68.3999 55.4 68.3999 54.7C68.3999 53.9 68.9999 53.5 70.1999 53.5C70.6999 53.5 71.0999 53.6 71.4999 53.7V54.4C71.0999 54.2 70.6999 54.2 70.1999 54.2C69.4999 54.2 69.1999 54.4 69.1999 54.8C69.1999 55.1 69.3999 55.3 69.6999 55.3H70.2999C71.1999 55.3 71.5999 55.7 71.5999 56.4C71.5999 57.2 70.9999 57.7 69.8999 57.7C69.2999 57.6 68.8999 57.5 68.4999 57.4Z" fill="#0084D9"/>
<path d="M73.2998 54.5977C74.1998 54.5977 74.5998 55.0977 74.5998 55.9977C74.5998 56.0977 74.5998 56.1977 74.5998 56.3977H72.5998C72.5998 56.7977 72.8998 56.9977 73.4998 56.9977C73.7998 56.9977 74.0998 56.9977 74.3998 56.8977V57.4977C74.0998 57.5977 73.7998 57.5977 73.3998 57.5977C72.2998 57.5977 71.7998 57.0977 71.7998 56.0977C71.8998 55.0977 72.3998 54.5977 73.2998 54.5977ZM72.6998 55.7977H73.9998C73.9998 55.3977 73.7998 55.1977 73.3998 55.1977C72.8998 55.1977 72.6998 55.3977 72.6998 55.7977Z" fill="#0084D9"/>
<path d="M75.2 57.5V54.5H75.8L75.9 54.9C76.2 54.6 76.4 54.5 76.7 54.5V55.1C76.4 55.1 76.2 55.2 76 55.4V57.4H75.2V57.5Z" fill="#0084D9"/>
<path d="M76.7998 54.5977H77.5998L78.2998 56.6977L78.9998 54.5977H79.7998L78.5998 57.5977H77.8998L76.7998 54.5977Z" fill="#0084D9"/>
<path d="M80.9 53.5V54.1H80.2V53.5H80.9ZM80.9 54.6V57.6H80.2V54.6H80.9Z" fill="#0084D9"/>
<path d="M83.7999 57.3977C83.5999 57.4977 83.2999 57.4977 82.9999 57.4977C81.8999 57.4977 81.3999 56.9977 81.3999 55.9977C81.3999 55.0977 81.8999 54.5977 82.9999 54.5977C83.2999 54.5977 83.4999 54.5977 83.7999 54.6977V55.2977C83.5999 55.1977 83.2999 55.1977 83.0999 55.1977C82.4999 55.1977 82.1999 55.4977 82.1999 55.9977C82.1999 56.5977 82.4999 56.8977 83.0999 56.8977C83.2999 56.8977 83.5999 56.8977 83.7999 56.7977V57.3977Z" fill="#0084D9"/>
<path d="M85.0999 53.5V54.1H84.3999V53.5H85.0999ZM85.0999 54.6V57.6H84.3999V54.6H85.0999Z" fill="#0084D9"/>
<path d="M85.5999 56.0977C85.5999 55.0977 86.0999 54.5977 87.0999 54.5977C88.0999 54.5977 88.5999 55.0977 88.5999 56.0977C88.5999 57.0977 88.0999 57.5977 87.0999 57.5977C86.0999 57.4977 85.5999 56.9977 85.5999 56.0977ZM87.0999 56.9977C87.5999 56.9977 87.7999 56.6977 87.7999 56.0977C87.7999 55.4977 87.5999 55.1977 87.0999 55.1977C86.5999 55.1977 86.3999 55.4977 86.3999 56.0977C86.3999 56.6977 86.5999 56.9977 87.0999 56.9977Z" fill="#0084D9"/>
<path d="M89.1 57.3977V56.7977C89.4 56.8977 89.8 56.9977 90.2 56.9977C90.5 56.9977 90.7 56.8977 90.7 56.6977C90.7 56.4977 90.6 56.3977 90.4 56.3977H89.9C89.3 56.3977 89 56.0977 89 55.4977C89 54.8977 89.4 54.5977 90.3 54.5977C90.7 54.5977 91 54.6977 91.4 54.7977V55.3977C91.1 55.2977 90.7 55.1977 90.3 55.1977C89.9 55.1977 89.7 55.2977 89.7 55.4977C89.7 55.6977 89.8 55.7977 90.1 55.7977H90.6C91.3 55.7977 91.6 56.0977 91.6 56.6977C91.6 57.2977 91.2 57.5977 90.3 57.5977C89.8 57.5977 89.4 57.4977 89.1 57.3977Z" fill="#0084D9"/>
<path d="M164.3 172.298V171.598C164.7 171.798 165.2 171.798 165.7 171.798C166.3 171.798 166.6 171.598 166.6 171.198C166.6 170.898 166.4 170.698 166 170.698H165.4C164.6 170.698 164.2 170.298 164.2 169.598C164.2 168.798 164.8 168.398 166 168.398C166.5 168.398 166.9 168.498 167.3 168.598V169.298C166.9 169.098 166.5 169.098 166 169.098C165.3 169.098 165 169.298 165 169.698C165 169.998 165.2 170.198 165.5 170.198H166.1C167 170.198 167.4 170.598 167.4 171.298C167.4 172.098 166.8 172.598 165.7 172.598C165.2 172.498 164.7 172.398 164.3 172.298Z" fill="#73C1E8"/>
<path d="M169.2 169.5C170.1 169.5 170.5 170 170.5 170.9C170.5 171 170.5 171.1 170.5 171.3H168.5C168.5 171.7 168.8 171.9 169.4 171.9C169.7 171.9 170 171.9 170.3 171.8V172.4C170 172.5 169.7 172.5 169.3 172.5C168.2 172.5 167.7 172 167.7 171C167.8 170 168.2 169.5 169.2 169.5ZM168.5 170.7H169.8C169.8 170.3 169.6 170.1 169.2 170.1C168.8 170.1 168.6 170.3 168.5 170.7Z" fill="#73C1E8"/>
<path d="M171.8 168.398V172.398H171.1V168.398H171.8Z" fill="#73C1E8"/>
<path d="M173.8 169.5C174.7 169.5 175.1 170 175.1 170.9C175.1 171 175.1 171.1 175.1 171.3H173.1C173.1 171.7 173.4 171.9 174 171.9C174.3 171.9 174.6 171.9 174.9 171.8V172.4C174.6 172.5 174.3 172.5 173.9 172.5C172.8 172.5 172.3 172 172.3 171C172.4 170 172.8 169.5 173.8 169.5ZM173.1 170.7H174.4C174.4 170.3 174.2 170.1 173.8 170.1C173.4 170.1 173.2 170.3 173.1 170.7Z" fill="#73C1E8"/>
<path d="M177.9 172.398C177.7 172.498 177.4 172.498 177.1 172.498C176 172.498 175.5 171.998 175.5 170.998C175.5 170.098 176 169.598 177.1 169.598C177.4 169.598 177.6 169.598 177.9 169.698V170.298C177.7 170.198 177.4 170.198 177.2 170.198C176.6 170.198 176.3 170.498 176.3 170.998C176.3 171.598 176.6 171.898 177.2 171.898C177.4 171.898 177.7 171.898 177.9 171.798V172.398Z" fill="#73C1E8"/>
<path d="M180.5 172.398C180.3 172.498 180 172.498 179.7 172.498C178.6 172.498 178.1 171.998 178.1 170.998C178.1 170.098 178.6 169.598 179.7 169.598C180 169.598 180.2 169.598 180.5 169.698V170.298C180.3 170.198 180 170.198 179.8 170.198C179.2 170.198 178.9 170.498 178.9 170.998C178.9 171.598 179.2 171.898 179.8 171.898C180 171.898 180.3 171.898 180.5 171.798V172.398Z" fill="#73C1E8"/>
<path d="M181.8 168.398V168.998H181V168.398H181.8ZM181.8 169.498V172.498H181V169.498H181.8Z" fill="#73C1E8"/>
<path d="M182.3 171C182.3 170 182.8 169.5 183.8 169.5C184.8 169.5 185.3 170 185.3 171C185.3 172 184.8 172.5 183.8 172.5C182.8 172.5 182.3 172 182.3 171ZM183.8 171.9C184.3 171.9 184.5 171.6 184.5 171C184.5 170.4 184.3 170.1 183.8 170.1C183.3 170.1 183.1 170.4 183.1 171C183.1 171.6 183.3 171.9 183.8 171.9Z" fill="#73C1E8"/>
<path d="M185.8 172.5V169.5H186.4L186.5 169.9C186.8 169.6 187.1 169.5 187.5 169.5C188.2 169.5 188.6 169.9 188.6 170.6V172.5H187.9V170.6C187.9 170.3 187.7 170.1 187.4 170.1C187.2 170.1 186.9 170.2 186.7 170.4V172.5H185.8Z" fill="#73C1E8"/>
<path d="M190.5 169.5C191.4 169.5 191.8 170 191.8 170.9C191.8 171 191.8 171.1 191.8 171.3H189.8C189.8 171.7 190.1 171.9 190.7 171.9C191 171.9 191.3 171.9 191.6 171.8V172.4C191.3 172.5 191 172.5 190.6 172.5C189.5 172.5 189 172 189 171C189.1 170 189.5 169.5 190.5 169.5ZM189.8 170.7H191.1C191.1 170.3 190.9 170.1 190.5 170.1C190.1 170.1 189.9 170.3 189.8 170.7Z" fill="#73C1E8"/>
<path d="M196.3 169.5V172.5H195.7L195.6 172.1C195.3 172.4 194.9 172.5 194.5 172.5C193.9 172.5 193.6 172.1 193.6 171.4V169.5H194.3V171.4C194.3 171.7 194.4 171.9 194.7 171.9C194.9 171.9 195.2 171.8 195.4 171.6V169.5H196.3Z" fill="#73C1E8"/>
<path d="M197 172.5V169.5H197.6L197.7 169.9C198 169.6 198.3 169.5 198.7 169.5C199.4 169.5 199.8 169.9 199.8 170.6V172.5H199V170.6C199 170.3 198.8 170.1 198.5 170.1C198.3 170.1 198 170.2 197.8 170.4V172.5H197Z" fill="#73C1E8"/>
<path d="M200.3 171.5C200.3 170.9 200.7 170.6 201.6 170.6C201.8 170.6 202 170.6 202.2 170.7V170.5C202.2 170.2 202 170.1 201.6 170.1C201.3 170.1 200.9 170.1 200.5 170.2V169.6C200.9 169.5 201.3 169.5 201.6 169.5C202.5 169.5 202.9 169.8 202.9 170.5V172.5H202.5L202.2 172.2C201.9 172.4 201.7 172.5 201.3 172.5C200.6 172.5 200.3 172.2 200.3 171.5ZM201.5 171.2C201.1 171.2 201 171.3 201 171.6C201 171.9 201.2 172 201.5 172C201.7 172 202 171.9 202.2 171.8V171.3C202 171.2 201.8 171.2 201.5 171.2Z" fill="#73C1E8"/>
<path d="M207.1 172.398C206.9 172.498 206.6 172.498 206.3 172.498C205.2 172.498 204.7 171.998 204.7 170.998C204.7 170.098 205.2 169.598 206.3 169.598C206.6 169.598 206.8 169.598 207.1 169.698V170.298C206.9 170.198 206.6 170.198 206.4 170.198C205.8 170.198 205.5 170.498 205.5 170.998C205.5 171.598 205.8 171.898 206.4 171.898C206.6 171.898 206.9 171.898 207.1 171.798V172.398Z" fill="#73C1E8"/>
<path d="M207.4 171.5C207.4 170.9 207.8 170.6 208.7 170.6C208.9 170.6 209.1 170.6 209.3 170.7V170.5C209.3 170.2 209.1 170.1 208.7 170.1C208.4 170.1 208 170.1 207.6 170.2V169.6C208 169.5 208.4 169.5 208.7 169.5C209.6 169.5 210 169.8 210 170.5V172.5H209.6L209.3 172.2C209 172.4 208.8 172.5 208.4 172.5C207.8 172.5 207.4 172.2 207.4 171.5ZM208.7 171.2C208.3 171.2 208.2 171.3 208.2 171.6C208.2 171.9 208.4 172 208.7 172C208.9 172 209.2 171.9 209.4 171.8V171.3C209.1 171.2 208.9 171.2 208.7 171.2Z" fill="#73C1E8"/>
<path d="M210.7 169H211.3L211.4 169.5H212.1V170.1H211.4V171.5C211.4 171.8 211.5 171.9 211.8 171.9H212.1V172.5H211.4C210.9 172.5 210.7 172.2 210.7 171.7V169Z" fill="#73C1E8"/>
<path d="M213.9 169.5C214.8 169.5 215.2 170 215.2 170.9C215.2 171 215.2 171.1 215.2 171.3H213.2C213.2 171.7 213.5 171.9 214.1 171.9C214.4 171.9 214.7 171.9 215 171.8V172.4C214.7 172.5 214.4 172.5 214 172.5C212.9 172.5 212.4 172 212.4 171C212.5 170 212.9 169.5 213.9 169.5ZM213.2 170.7H214.5C214.5 170.3 214.3 170.1 213.9 170.1C213.5 170.1 213.3 170.3 213.2 170.7Z" fill="#73C1E8"/>
<path d="M218.4 172.198C218.4 173.098 217.9 173.498 216.8 173.498C216.4 173.498 216.1 173.498 215.8 173.398V172.798C216.1 172.898 216.4 172.898 216.8 172.898C217.3 172.898 217.6 172.698 217.6 172.198C217.4 172.298 217.1 172.298 216.9 172.298C216 172.298 215.6 171.798 215.6 170.898C215.6 169.898 216.1 169.398 217.1 169.398C217.4 169.398 217.9 169.398 218.3 169.498V172.198H218.4ZM217.7 170.198C217.6 170.198 217.4 170.098 217.2 170.098C216.7 170.098 216.4 170.398 216.4 170.998C216.4 171.498 216.6 171.798 217.1 171.798C217.3 171.798 217.5 171.698 217.7 171.598V170.198Z" fill="#73C1E8"/>
<path d="M219 171C219 170 219.5 169.5 220.5 169.5C221.5 169.5 222 170 222 171C222 172 221.5 172.5 220.5 172.5C219.5 172.5 219 172 219 171ZM220.4 171.9C220.9 171.9 221.1 171.6 221.1 171C221.1 170.4 220.9 170.1 220.4 170.1C219.9 170.1 219.7 170.4 219.7 171C219.7 171.6 220 171.9 220.4 171.9Z" fill="#73C1E8"/>
<path d="M222.5 172.5V169.5H223.1L223.2 169.9C223.5 169.6 223.7 169.5 224 169.5V170.1C223.7 170.1 223.5 170.2 223.3 170.4V172.4H222.5V172.5Z" fill="#73C1E8"/>
<path d="M224.7 168.398H225.6L224.9 169.098H224.3L224.7 168.398ZM225.1 169.498V172.498H224.4V169.498H225.1Z" fill="#73C1E8"/>
<path d="M225.7 171.5C225.7 170.9 226.1 170.6 227 170.6C227.2 170.6 227.4 170.6 227.6 170.7V170.5C227.6 170.2 227.4 170.1 227 170.1C226.7 170.1 226.3 170.1 225.9 170.2V169.6C226.3 169.5 226.7 169.5 227 169.5C227.9 169.5 228.3 169.8 228.3 170.5V172.5H227.9L227.6 172.2C227.3 172.4 227.1 172.5 226.7 172.5C226.1 172.5 225.7 172.2 225.7 171.5ZM227 171.2C226.6 171.2 226.5 171.3 226.5 171.6C226.5 171.9 226.7 172 227 172C227.2 172 227.5 171.9 227.7 171.8V171.3C227.4 171.2 227.2 171.2 227 171.2Z" fill="#73C1E8"/>
<path d="M104.3 57.4984V56.9984C105.6 56.0984 106.3 55.2984 106.3 54.6984C106.3 54.2984 106.1 54.0984 105.6 54.0984C105.2 54.0984 104.8 54.1984 104.4 54.3984V53.6984C104.8 53.4984 105.2 53.3984 105.6 53.3984C106.6 53.3984 107.1 53.7984 107.1 54.5984C107.1 55.2984 106.6 55.9984 105.5 56.7984H107.1V57.3984H104.3V57.4984Z" fill="#919CA3"/>
<path d="M108.4 56.7969V57.4969H107.7V56.7969H108.4Z" fill="#919CA3"/>
<path d="M110.3 57.4V56.7C110.7 56.9 111.2 56.9 111.7 56.9C112.3 56.9 112.6 56.7 112.6 56.3C112.6 56 112.4 55.8 112 55.8H111.4C110.6 55.8 110.2 55.4 110.2 54.7C110.2 53.9 110.8 53.5 112 53.5C112.5 53.5 112.9 53.6 113.3 53.7V54.4C112.9 54.2 112.5 54.2 112 54.2C111.3 54.2 111 54.4 111 54.8C111 55.1 111.2 55.3 111.5 55.3H112.1C113 55.3 113.4 55.7 113.4 56.4C113.4 57.2 112.8 57.7 111.7 57.7C111.2 57.6 110.7 57.5 110.3 57.4Z" fill="#919CA3"/>
<path d="M115.2 54.5977C116.1 54.5977 116.5 55.0977 116.5 55.9977C116.5 56.0977 116.5 56.1977 116.5 56.3977H114.5C114.5 56.7977 114.8 56.9977 115.4 56.9977C115.7 56.9977 116 56.9977 116.3 56.8977V57.4977C116 57.5977 115.7 57.5977 115.3 57.5977C114.2 57.5977 113.7 57.0977 113.7 56.0977C113.8 55.0977 114.2 54.5977 115.2 54.5977ZM114.5 55.7977H115.8C115.8 55.3977 115.6 55.1977 115.2 55.1977C114.8 55.1977 114.5 55.3977 114.5 55.7977Z" fill="#919CA3"/>
<path d="M117.8 53.5V57.5H117.1V53.5H117.8Z" fill="#919CA3"/>
<path d="M119.8 54.5977C120.7 54.5977 121.1 55.0977 121.1 55.9977C121.1 56.0977 121.1 56.1977 121.1 56.3977H119.1C119.1 56.7977 119.4 56.9977 120 56.9977C120.3 56.9977 120.6 56.9977 120.9 56.8977V57.4977C120.6 57.5977 120.3 57.5977 119.9 57.5977C118.8 57.5977 118.3 57.0977 118.3 56.0977C118.4 55.0977 118.8 54.5977 119.8 54.5977ZM119.1 55.7977H120.4C120.4 55.3977 120.2 55.1977 119.8 55.1977C119.4 55.1977 119.1 55.3977 119.1 55.7977Z" fill="#919CA3"/>
<path d="M123.8 57.3977C123.6 57.4977 123.3 57.4977 123 57.4977C121.9 57.4977 121.4 56.9977 121.4 55.9977C121.4 55.0977 121.9 54.5977 123 54.5977C123.3 54.5977 123.5 54.5977 123.8 54.6977V55.2977C123.6 55.1977 123.3 55.1977 123.1 55.1977C122.5 55.1977 122.2 55.4977 122.2 55.9977C122.2 56.5977 122.5 56.8977 123.1 56.8977C123.3 56.8977 123.6 56.8977 123.8 56.7977V57.3977Z" fill="#919CA3"/>
<path d="M126.5 57.3977C126.3 57.4977 126 57.4977 125.7 57.4977C124.6 57.4977 124.1 56.9977 124.1 55.9977C124.1 55.0977 124.6 54.5977 125.7 54.5977C126 54.5977 126.2 54.5977 126.5 54.6977V55.2977C126.3 55.1977 126 55.1977 125.8 55.1977C125.2 55.1977 124.9 55.4977 124.9 55.9977C124.9 56.5977 125.2 56.8977 125.8 56.8977C126 56.8977 126.3 56.8977 126.5 56.7977V57.3977Z" fill="#919CA3"/>
<path d="M127.8 53.5V54.1H127V53.5H127.8ZM127.8 54.6V57.6H127V54.6H127.8Z" fill="#919CA3"/>
<path d="M128.3 56.1C128.3 55.1 128.8 54.6 129.8 54.6C130.8 54.6 131.3 55.1 131.3 56.1C131.3 57.1 130.8 57.6 129.8 57.6C128.8 57.5 128.3 57 128.3 56.1ZM129.8 57C130.3 57 130.5 56.7 130.5 56.1C130.5 55.5 130.3 55.2 129.8 55.2C129.3 55.2 129.1 55.5 129.1 56.1C129.1 56.7 129.3 57 129.8 57ZM129.8 53.5H130.7L130 54.2H129.4L129.8 53.5Z" fill="#919CA3"/>
<path d="M131.8 57.5V54.5H132.4L132.5 54.9C132.8 54.6 133.1 54.5 133.5 54.5C134.2 54.5 134.6 54.9 134.6 55.6V57.5H133.9V55.6C133.9 55.3 133.7 55.1 133.4 55.1C133.2 55.1 132.9 55.2 132.7 55.4V57.5H131.8Z" fill="#919CA3"/>
<path d="M139.1 57.3977C138.6 57.4977 138.2 57.5977 137.8 57.5977C136.8 57.5977 136.4 57.0977 136.4 56.0977C136.4 55.1977 136.9 54.6977 137.8 54.6977C138 54.6977 138.2 54.6977 138.4 54.7977V53.5977H139.1V57.3977ZM138.4 55.2977C138.2 55.1977 138.1 55.0977 137.8 55.0977C137.3 55.0977 137.1 55.3977 137.1 55.8977C137.1 56.4977 137.3 56.7977 137.8 56.7977C138 56.7977 138.2 56.7977 138.4 56.6977V55.2977Z" fill="#919CA3"/>
<path d="M141.1 54.5977C142 54.5977 142.4 55.0977 142.4 55.9977C142.4 56.0977 142.4 56.1977 142.4 56.3977H140.4C140.4 56.7977 140.7 56.9977 141.3 56.9977C141.6 56.9977 141.9 56.9977 142.2 56.8977V57.4977C141.9 57.5977 141.6 57.5977 141.2 57.5977C140.1 57.5977 139.6 57.0977 139.6 56.0977C139.7 55.0977 140.1 54.5977 141.1 54.5977ZM140.4 55.7977H141.7C141.7 55.3977 141.5 55.1977 141.1 55.1977C140.7 55.1977 140.4 55.3977 140.4 55.7977Z" fill="#919CA3"/>
<path d="M144.2 57.5V54.5H144.8L144.9 54.9C145.2 54.6 145.4 54.5 145.7 54.5V55.1C145.4 55.1 145.2 55.2 145 55.4V57.4H144.2V57.5Z" fill="#919CA3"/>
<path d="M147.4 54.5977C148.3 54.5977 148.7 55.0977 148.7 55.9977C148.7 56.0977 148.7 56.1977 148.7 56.3977H146.7C146.7 56.7977 147 56.9977 147.6 56.9977C147.9 56.9977 148.2 56.9977 148.5 56.8977V57.4977C148.2 57.5977 147.9 57.5977 147.5 57.5977C146.4 57.5977 145.9 57.0977 145.9 56.0977C146 55.0977 146.5 54.5977 147.4 54.5977ZM146.7 55.7977H148C148 55.3977 147.8 55.1977 147.4 55.1977C147 55.1977 146.8 55.3977 146.7 55.7977Z" fill="#919CA3"/>
<path d="M151.5 57.3977C151.3 57.4977 151 57.4977 150.7 57.4977C149.6 57.4977 149.1 56.9977 149.1 55.9977C149.1 55.0977 149.6 54.5977 150.7 54.5977C151 54.5977 151.2 54.5977 151.5 54.6977V55.2977C151.3 55.1977 151 55.1977 150.8 55.1977C150.2 55.1977 149.9 55.4977 149.9 55.9977C149.9 56.5977 150.2 56.8977 150.8 56.8977C151 56.8977 151.3 56.8977 151.5 56.7977V57.3977Z" fill="#919CA3"/>
<path d="M152.7 53.5V54.1H152V53.5H152.7ZM152.7 54.6V57.6H152V54.6H152.7Z" fill="#919CA3"/>
<path d="M153.4 53.5H154.1V54.8C154.3 54.7 154.6 54.6 154.8 54.6C155.6 54.6 156.1 55.1 156.1 56C156.1 57 155.6 57.5 154.7 57.5C154.3 57.5 153.9 57.5 153.4 57.4V53.5ZM154.2 56.8C154.4 56.9 154.6 56.9 154.8 56.9C155.3 56.9 155.5 56.6 155.5 55.9C155.5 55.4 155.3 55.1 154.9 55.1C154.6 55.1 154.4 55.2 154.2 55.3V56.8Z" fill="#919CA3"/>
<path d="M156.6 56.0977C156.6 55.0977 157.1 54.5977 158.1 54.5977C159.1 54.5977 159.6 55.0977 159.6 56.0977C159.6 57.0977 159.1 57.5977 158.1 57.5977C157.1 57.4977 156.6 56.9977 156.6 56.0977ZM158.1 56.9977C158.6 56.9977 158.8 56.6977 158.8 56.0977C158.8 55.4977 158.6 55.1977 158.1 55.1977C157.6 55.1977 157.4 55.4977 157.4 56.0977C157.3 56.6977 157.6 56.9977 158.1 56.9977Z" fill="#919CA3"/>
<path d="M160.1 57.3977V56.7977C160.4 56.8977 160.8 56.9977 161.2 56.9977C161.5 56.9977 161.7 56.8977 161.7 56.6977C161.7 56.4977 161.6 56.3977 161.4 56.3977H160.9C160.3 56.3977 160 56.0977 160 55.4977C160 54.8977 160.4 54.5977 161.3 54.5977C161.7 54.5977 162 54.6977 162.4 54.7977V55.3977C162.1 55.2977 161.7 55.1977 161.3 55.1977C160.9 55.1977 160.7 55.2977 160.7 55.4977C160.7 55.6977 160.8 55.7977 161.1 55.7977H161.6C162.3 55.7977 162.6 56.0977 162.6 56.6977C162.6 57.2977 162.2 57.5977 161.3 57.5977C160.8 57.5977 160.4 57.4977 160.1 57.3977Z" fill="#919CA3"/>
<path d="M175.8 53.5984C176.2 53.4984 176.6 53.3984 177 53.3984C178 53.3984 178.5 53.7984 178.5 54.4984C178.5 54.8984 178.3 55.1984 178 55.3984C178.4 55.5984 178.5 55.8984 178.5 56.2984C178.5 57.0984 178 57.4984 177 57.4984C176.6 57.4984 176.2 57.3984 175.8 57.2984V56.5984C176.2 56.6984 176.6 56.7984 177 56.7984C177.5 56.7984 177.8 56.5984 177.8 56.1984C177.8 55.8984 177.6 55.6984 177.3 55.6984H176.3V55.0984H177.3C177.7 55.0984 177.8 54.8984 177.8 54.5984C177.8 54.1984 177.5 54.0984 177 54.0984C176.6 54.0984 176.2 54.1984 175.8 54.2984V53.5984Z" fill="#919CA3"/>
<path d="M179.7 56.7969V57.4969H179V56.7969H179.7Z" fill="#919CA3"/>
<path d="M181.7 57.5V53.5H182.5L183.9 56.6L185.2 53.5H185.9V57.5H185.2V54.7L184.1 57.5H183.5L182.4 54.7V57.5H181.7Z" fill="#919CA3"/>
<path d="M187.9 54.5977C188.8 54.5977 189.2 55.0977 189.2 55.9977C189.2 56.0977 189.2 56.1977 189.2 56.3977H187.2C187.2 56.7977 187.5 56.9977 188.1 56.9977C188.4 56.9977 188.7 56.9977 189 56.8977V57.4977C188.7 57.5977 188.4 57.5977 188 57.5977C186.9 57.5977 186.4 57.0977 186.4 56.0977C186.5 55.0977 187 54.5977 187.9 54.5977ZM187.3 55.7977H188.6C188.6 55.3977 188.4 55.1977 188 55.1977C187.5 55.1977 187.3 55.3977 187.3 55.7977Z" fill="#919CA3"/>
<path d="M192.4 57.3977C191.9 57.4977 191.5 57.5977 191.1 57.5977C190.1 57.5977 189.7 57.0977 189.7 56.0977C189.7 55.1977 190.2 54.6977 191.1 54.6977C191.3 54.6977 191.5 54.6977 191.7 54.7977V53.5977H192.4V57.3977ZM191.7 55.2977C191.5 55.1977 191.4 55.0977 191.1 55.0977C190.6 55.0977 190.4 55.3977 190.4 55.8977C190.4 56.4977 190.6 56.7977 191.1 56.7977C191.3 56.7977 191.5 56.7977 191.7 56.6977V55.2977Z" fill="#919CA3"/>
<path d="M193.9 53.5V54.1H193.2V53.5H193.9ZM193.9 54.6V57.6H193.2V54.6H193.9Z" fill="#919CA3"/>
<path d="M194.5 56.0977C194.5 55.0977 195 54.5977 196 54.5977C197 54.5977 197.5 55.0977 197.5 56.0977C197.5 57.0977 197 57.5977 196 57.5977C195 57.4977 194.5 56.9977 194.5 56.0977ZM195.9 56.9977C196.4 56.9977 196.6 56.6977 196.6 56.0977C196.6 55.4977 196.4 55.1977 195.9 55.1977C195.4 55.1977 195.2 55.4977 195.2 56.0977C195.2 56.6977 195.4 56.9977 195.9 56.9977Z" fill="#919CA3"/>
<path d="M201.8 57.3977C201.3 57.4977 200.9 57.5977 200.5 57.5977C199.5 57.5977 199.1 57.0977 199.1 56.0977C199.1 55.1977 199.6 54.6977 200.5 54.6977C200.7 54.6977 200.9 54.6977 201.1 54.7977V53.5977H201.8V57.3977ZM201.1 55.2977C200.9 55.1977 200.8 55.0977 200.5 55.0977C200 55.0977 199.8 55.3977 199.8 55.8977C199.8 56.4977 200 56.7977 200.5 56.7977C200.7 56.7977 200.9 56.7977 201.1 56.6977V55.2977Z" fill="#919CA3"/>
<path d="M203.8 54.5977C204.7 54.5977 205.1 55.0977 205.1 55.9977C205.1 56.0977 205.1 56.1977 205.1 56.3977H203.1C203.1 56.7977 203.4 56.9977 204 56.9977C204.3 56.9977 204.6 56.9977 204.9 56.8977V57.4977C204.6 57.5977 204.3 57.5977 203.9 57.5977C202.8 57.5977 202.3 57.0977 202.3 56.0977C202.4 55.0977 202.9 54.5977 203.8 54.5977ZM203.2 55.7977H204.5C204.5 55.3977 204.3 55.1977 203.9 55.1977C203.4 55.1977 203.2 55.3977 203.2 55.7977Z" fill="#919CA3"/>
<path d="M207 54.6977C207.4 54.5977 207.8 54.5977 208.2 54.5977C209.2 54.5977 209.7 55.0977 209.7 55.9977C209.7 56.9977 209.2 57.5977 208.3 57.5977C208.1 57.5977 207.9 57.5977 207.7 57.4977V58.6977H207V54.6977ZM207.7 56.7977C207.9 56.8977 208.1 56.9977 208.3 56.9977C208.7 56.9977 209 56.6977 209 56.0977C209 55.5977 208.8 55.2977 208.3 55.2977C208.1 55.2977 207.9 55.2977 207.8 55.2977V56.7977H207.7Z" fill="#919CA3"/>
<path d="M210.1 56.5977C210.1 55.9977 210.5 55.6977 211.4 55.6977C211.6 55.6977 211.8 55.6977 212 55.7977V55.5977C212 55.2977 211.8 55.1977 211.4 55.1977C211.1 55.1977 210.7 55.1977 210.3 55.2977V54.6977C210.7 54.5977 211.1 54.5977 211.4 54.5977C212.3 54.5977 212.7 54.8977 212.7 55.5977V57.5977H212.3L212 57.2977C211.7 57.4977 211.5 57.5977 211.1 57.5977C210.5 57.4977 210.1 57.1977 210.1 56.5977ZM211.4 56.1977C211 56.1977 210.9 56.2977 210.9 56.5977C210.9 56.8977 211.1 56.9977 211.4 56.9977C211.6 56.9977 211.9 56.8977 212.1 56.7977V56.2977C211.8 56.2977 211.6 56.1977 211.4 56.1977Z" fill="#919CA3"/>
<path d="M216.1 57.3C216.1 58.2 215.6 58.6 214.5 58.6C214.1 58.6 213.8 58.6 213.5 58.5V57.9C213.8 58 214.1 58 214.5 58C215 58 215.3 57.8 215.3 57.3C215.1 57.4 214.8 57.4 214.6 57.4C213.7 57.4 213.3 56.9 213.3 56C213.3 55 213.8 54.5 214.8 54.5C215.1 54.5 215.6 54.5 216 54.6V57.3H216.1ZM215.4 55.2C215.3 55.2 215.1 55.1 214.9 55.1C214.4 55.1 214.1 55.4 214.1 56C214.1 56.5 214.3 56.8 214.8 56.8C215 56.8 215.2 56.7 215.4 56.6V55.2Z" fill="#919CA3"/>
<path d="M216.7 56.0977C216.7 55.0977 217.2 54.5977 218.2 54.5977C219.2 54.5977 219.7 55.0977 219.7 56.0977C219.7 57.0977 219.2 57.5977 218.2 57.5977C217.2 57.4977 216.7 56.9977 216.7 56.0977ZM218.1 56.9977C218.6 56.9977 218.8 56.6977 218.8 56.0977C218.8 55.4977 218.6 55.1977 218.1 55.1977C217.6 55.1977 217.4 55.4977 217.4 56.0977C217.4 56.6977 217.7 56.9977 218.1 56.9977Z" fill="#919CA3"/>
<path d="M248.9 57.5023H248.2V56.6023H246.2V56.0023L247.8 53.4023H248.6L247 56.0023H248.2V54.7023H248.9V56.0023L249.3 56.4023V56.6023H248.9V57.5023Z" fill="#919CA3"/>
<path d="M250.4 56.8008V57.5008H249.7V56.8008H250.4Z" fill="#919CA3"/>
<path d="M255.6 57.4C255.3 57.5 254.9 57.6 254.4 57.6C253 57.6 252.2 56.9 252.2 55.5C252.2 54.2 252.9 53.5 254.4 53.5C254.8 53.5 255.2 53.6 255.6 53.7V54.4C255.3 54.2 254.9 54.2 254.5 54.2C253.5 54.2 253 54.6 253 55.5C253 56.5 253.5 57 254.5 57C254.9 57 255.3 56.9 255.6 56.8V57.4Z" fill="#919CA3"/>
<path d="M256.1 56.1016C256.1 55.1016 256.6 54.6016 257.6 54.6016C258.6 54.6016 259.1 55.1016 259.1 56.1016C259.1 57.1016 258.6 57.6016 257.6 57.6016C256.5 57.5016 256.1 57.0016 256.1 56.1016ZM257.5 57.0016C258 57.0016 258.2 56.7016 258.2 56.1016C258.2 55.5016 258 55.2016 257.5 55.2016C257 55.2016 256.8 55.5016 256.8 56.1016C256.8 56.7016 257 57.0016 257.5 57.0016Z" fill="#919CA3"/>
<path d="M259.5 57.5V54.5H260.1L260.2 54.9C260.5 54.6 260.8 54.5 261.2 54.5C261.9 54.5 262.3 54.9 262.3 55.6V57.5H261.6V55.6C261.6 55.3 261.4 55.1 261.1 55.1C260.9 55.1 260.6 55.2 260.4 55.4V57.5H259.5Z" fill="#919CA3"/>
<path d="M262.9 57.5008V54.5008C262.9 53.7008 263.3 53.3008 264.2 53.3008C264.4 53.3008 264.7 53.3008 264.9 53.4008V54.0008C264.7 53.9008 264.5 53.9008 264.3 53.9008C263.9 53.9008 263.7 54.1008 263.7 54.5008H264.6V55.1008H263.7V57.5008H262.9Z" fill="#919CA3"/>
<path d="M265.6 53.5V54.1H264.9V53.5H265.6ZM265.6 54.6V57.6H264.9V54.6H265.6Z" fill="#919CA3"/>
<path d="M266.3 57.5V54.5H266.9L267 55C267.3 54.7 267.5 54.6 267.8 54.6V55.2C267.5 55.2 267.3 55.3 267.1 55.5V57.5H266.3Z" fill="#919CA3"/>
<path d="M268.2 57.5V54.5H268.8L268.9 54.9C269.2 54.6 269.5 54.5 269.9 54.5C270.3 54.5 270.5 54.6 270.7 54.9C271 54.6 271.3 54.5 271.6 54.5C272.3 54.5 272.6 54.9 272.6 55.6V57.4H271.9V55.5C271.9 55.2 271.8 55 271.5 55C271.3 55 271.1 55.1 270.9 55.3V57.4H270V55.5C270 55.2 269.9 55 269.6 55C269.4 55 269.2 55.1 269 55.3V57.4H268.2V57.5Z" fill="#919CA3"/>
<path d="M273.1 56.6016C273.1 56.0016 273.5 55.7016 274.4 55.7016C274.6 55.7016 274.8 55.7016 275 55.8016V55.6016C275 55.3016 274.8 55.2016 274.4 55.2016C274.1 55.2016 273.7 55.2016 273.3 55.3016V54.7016C273.7 54.6016 274.1 54.6016 274.4 54.6016C275.3 54.6016 275.7 54.9016 275.7 55.6016V57.6016H275.3L275 57.3016C274.7 57.5016 274.5 57.6016 274.1 57.6016C273.5 57.5016 273.1 57.2016 273.1 56.6016ZM274.4 56.2016C274 56.2016 273.9 56.3016 273.9 56.6016C273.9 56.9016 274.1 57.0016 274.4 57.0016C274.6 57.0016 274.9 56.9016 275.1 56.8016V56.3016C274.8 56.3016 274.6 56.2016 274.4 56.2016Z" fill="#919CA3"/>
<path d="M276.4 57.5V54.5H277L277.1 54.9C277.4 54.6 277.6 54.5 277.9 54.5V55.1C277.6 55.1 277.4 55.2 277.2 55.4V57.4H276.4V57.5Z" fill="#919CA3"/>
<path d="M296.8 53.5H299.2V54.1H297.4L297.3 55.1C297.4 55.1 297.6 55 297.8 55C298.8 55 299.3 55.4 299.3 56.2C299.3 57.1 298.8 57.5 297.7 57.5C297.3 57.5 296.9 57.4 296.6 57.3V56.7C297 56.8 297.4 56.9 297.8 56.9C298.3 56.9 298.6 56.7 298.6 56.2C298.6 55.8 298.3 55.6 297.8 55.6C297.4 55.6 297 55.6 296.6 55.7L296.8 53.5Z" fill="#919CA3"/>
<path d="M300.6 56.8008V57.5008H299.9V56.8008H300.6Z" fill="#919CA3"/>
<path d="M305.8 57.4C305.5 57.5 305.1 57.6 304.6 57.6C303.2 57.6 302.4 56.9 302.4 55.5C302.4 54.2 303.1 53.5 304.6 53.5C305 53.5 305.4 53.6 305.8 53.7V54.4C305.5 54.2 305.1 54.2 304.7 54.2C303.7 54.2 303.2 54.6 303.2 55.5C303.2 56.5 303.7 57 304.7 57C305.1 57 305.5 56.9 305.8 56.8V57.4Z" fill="#919CA3"/>
<path d="M306.3 56.1016C306.3 55.1016 306.8 54.6016 307.8 54.6016C308.8 54.6016 309.3 55.1016 309.3 56.1016C309.3 57.1016 308.8 57.6016 307.8 57.6016C306.7 57.5016 306.3 57.0016 306.3 56.1016ZM307.7 57.0016C308.2 57.0016 308.4 56.7016 308.4 56.1016C308.4 55.5016 308.2 55.2016 307.7 55.2016C307.2 55.2016 307 55.4016 307 56.0016C307 56.7016 307.2 57.0016 307.7 57.0016Z" fill="#919CA3"/>
<path d="M309.7 57.5V54.5H310.3L310.4 54.9C310.7 54.6 311 54.5 311.4 54.5C312.1 54.5 312.5 54.9 312.5 55.6V57.5H311.8V55.6C311.8 55.3 311.6 55.1 311.3 55.1C311.1 55.1 310.8 55.2 310.6 55.4V57.5H309.7Z" fill="#919CA3"/>
<path d="M313.1 57.4016V56.8016C313.4 56.9016 313.8 57.0016 314.2 57.0016C314.5 57.0016 314.7 56.9016 314.7 56.7016C314.7 56.5016 314.6 56.4016 314.4 56.4016H313.9C313.3 56.4016 313 56.1016 313 55.5016C313 54.9016 313.4 54.6016 314.3 54.6016C314.7 54.6016 315 54.7016 315.4 54.8016V55.4016C315.1 55.3016 314.7 55.2016 314.3 55.2016C313.9 55.2016 313.7 55.3016 313.7 55.5016C313.7 55.7016 313.8 55.8016 314.1 55.8016H314.6C315.3 55.8016 315.6 56.1016 315.6 56.7016C315.6 57.3016 315.2 57.6016 314.3 57.6016C313.8 57.6016 313.5 57.5016 313.1 57.4016Z" fill="#919CA3"/>
<path d="M316 54.1016H316.6L316.7 54.6016H317.4V55.2016H316.7V56.6016C316.7 56.9016 316.8 57.0016 317.1 57.0016H317.4V57.6016H316.7C316.2 57.6016 316 57.3016 316 56.8016V54.1016Z" fill="#919CA3"/>
<path d="M317.8 56.6016C317.8 56.0016 318.2 55.7016 319.1 55.7016C319.3 55.7016 319.5 55.7016 319.7 55.8016V55.6016C319.7 55.3016 319.5 55.2016 319.1 55.2016C318.8 55.2016 318.4 55.2016 318 55.3016V54.7016C318.4 54.6016 318.8 54.6016 319.1 54.6016C320 54.6016 320.4 54.9016 320.4 55.6016V57.6016H320L319.7 57.3016C319.4 57.5016 319.2 57.6016 318.8 57.6016C318.1 57.5016 317.8 57.2016 317.8 56.6016ZM319 56.2016C318.6 56.2016 318.5 56.3016 318.5 56.6016C318.5 56.9016 318.7 57.0016 319 57.0016C319.2 57.0016 319.5 56.9016 319.7 56.8016V56.3016C319.5 56.3016 319.3 56.2016 319 56.2016Z" fill="#919CA3"/>
<path d="M321.1 57.5V54.5H321.7L321.8 54.9C322.1 54.6 322.4 54.5 322.8 54.5C323.5 54.5 323.9 54.9 323.9 55.6V57.5H323V55.6C323 55.3 322.8 55.1 322.5 55.1C322.3 55.1 322 55.2 321.8 55.4V57.5H321.1Z" fill="#919CA3"/>
<path d="M326.7 57.4016C326.5 57.5016 326.2 57.5016 325.9 57.5016C324.8 57.5016 324.3 57.0016 324.3 56.0016C324.3 55.1016 324.8 54.6016 325.9 54.6016C326.2 54.6016 326.4 54.6016 326.7 54.7016V55.3016C326.5 55.2016 326.2 55.2016 326 55.2016C325.4 55.2016 325.1 55.5016 325.1 56.0016C325.1 56.6016 325.4 56.9016 326 56.9016C326.2 56.9016 326.5 56.9016 326.7 56.8016V57.4016Z" fill="#919CA3"/>
<path d="M327.9 53.5V54.1H327.2V53.5H327.9ZM327.9 54.6V57.6H327.2V54.6H327.9Z" fill="#919CA3"/>
<path d="M328.5 56.6016C328.5 56.0016 328.9 55.7016 329.8 55.7016C330 55.7016 330.2 55.7016 330.4 55.8016V55.6016C330.4 55.3016 330.2 55.2016 329.8 55.2016C329.5 55.2016 329.1 55.2016 328.7 55.3016V54.7016C329.1 54.6016 329.5 54.6016 329.8 54.6016C330.7 54.6016 331.1 54.9016 331.1 55.6016V57.6016H330.7L330.4 57.3016C330.1 57.5016 329.9 57.6016 329.5 57.6016C328.8 57.5016 328.5 57.2016 328.5 56.6016ZM329.8 56.2016C329.4 56.2016 329.3 56.3016 329.3 56.6016C329.3 56.9016 329.4 57.0016 329.8 57.0016C330 57.0016 330.3 56.9016 330.5 56.8016V56.3016C330.2 56.3016 330 56.2016 329.8 56.2016Z" fill="#919CA3"/>
<path d="M67.2 67.2008C69.2435 67.2008 70.9 65.5442 70.9 63.5008C70.9 61.4573 69.2435 59.8008 67.2 59.8008C65.1565 59.8008 63.5 61.4573 63.5 63.5008C63.5 65.5442 65.1565 67.2008 67.2 67.2008Z" fill="#D0DEE8"/>
<path d="M67.2001 65.0984C68.0838 65.0984 68.8001 64.3821 68.8001 63.4984C68.8001 62.6148 68.0838 61.8984 67.2001 61.8984C66.3164 61.8984 65.6001 62.6148 65.6001 63.4984C65.6001 64.3821 66.3164 65.0984 67.2001 65.0984Z" fill="#0084D9"/>
<path d="M131.6 67.2008C133.643 67.2008 135.3 65.5442 135.3 63.5008C135.3 61.4573 133.643 59.8008 131.6 59.8008C129.556 59.8008 127.9 61.4573 127.9 63.5008C127.9 65.5442 129.556 67.2008 131.6 67.2008Z" fill="#D0DEE8"/>
<path d="M131.6 65.0984C132.484 65.0984 133.2 64.3821 133.2 63.4984C133.2 62.6148 132.484 61.8984 131.6 61.8984C130.716 61.8984 130 62.6148 130 63.4984C130 64.3821 130.716 65.0984 131.6 65.0984Z" fill="#94BBD5"/>
<path d="M195.9 67.2008C197.943 67.2008 199.6 65.5442 199.6 63.5008C199.6 61.4573 197.943 59.8008 195.9 59.8008C193.856 59.8008 192.2 61.4573 192.2 63.5008C192.2 65.5442 193.856 67.2008 195.9 67.2008Z" fill="#D0DEE8"/>
<path d="M195.9 65.0984C196.784 65.0984 197.5 64.3821 197.5 63.4984C197.5 62.6148 196.784 61.8984 195.9 61.8984C195.016 61.8984 194.3 62.6148 194.3 63.4984C194.3 64.3821 195.016 65.0984 195.9 65.0984Z" fill="#94BBD5"/>
<path d="M260.2 67.2008C262.243 67.2008 263.9 65.5442 263.9 63.5008C263.9 61.4573 262.243 59.8008 260.2 59.8008C258.157 59.8008 256.5 61.4573 256.5 63.5008C256.5 65.5442 258.157 67.2008 260.2 67.2008Z" fill="#D0DEE8"/>
<path d="M260.2 65.0984C261.084 65.0984 261.8 64.3821 261.8 63.4984C261.8 62.6148 261.084 61.8984 260.2 61.8984C259.316 61.8984 258.6 62.6148 258.6 63.4984C258.6 64.3821 259.316 65.0984 260.2 65.0984Z" fill="#94BBD5"/>
<path d="M324.5 67.2008C326.544 67.2008 328.2 65.5442 328.2 63.5008C328.2 61.4573 326.544 59.8008 324.5 59.8008C322.457 59.8008 320.8 61.4573 320.8 63.5008C320.8 65.5442 322.457 67.2008 324.5 67.2008Z" fill="#D0DEE8"/>
<path d="M324.5 65.0984C325.384 65.0984 326.1 64.3821 326.1 63.4984C326.1 62.6148 325.384 61.8984 324.5 61.8984C323.616 61.8984 322.9 62.6148 322.9 63.4984C322.9 64.3821 323.616 65.0984 324.5 65.0984Z" fill="#94BBD5"/>
<path d="M331.5 105.398H196.2V123.598H331.5V105.398Z" fill="#0074BC"/>
<path d="M232.9 112.398V116.398H232.2V112.398H232.9Z" fill="white"/>
<path d="M233.7 116.4V113.5H234.3L234.4 113.9C234.7 113.6 235 113.5 235.4 113.5C236.1 113.5 236.4 113.9 236.4 114.6V116.5H235.7V114.6C235.7 114.3 235.5 114.1 235.2 114.1C235 114.1 234.7 114.2 234.5 114.4V116.5H233.7V116.4Z" fill="white"/>
<path d="M237.1 116.198V115.598C237.4 115.698 237.8 115.798 238.2 115.798C238.5 115.798 238.7 115.698 238.7 115.498C238.7 115.298 238.6 115.198 238.4 115.198H237.9C237.3 115.198 237 114.898 237 114.298C237 113.698 237.4 113.398 238.3 113.398C238.7 113.398 239 113.498 239.3 113.598V114.198C239 114.098 238.6 113.998 238.2 113.998C237.8 113.998 237.6 114.098 237.6 114.298C237.6 114.498 237.7 114.598 238 114.598H238.5C239.2 114.598 239.5 114.898 239.5 115.498C239.5 116.098 239.1 116.398 238.2 116.398C237.8 116.398 237.4 116.298 237.1 116.198Z" fill="white"/>
<path d="M239.9 112.898H240.4L240.5 113.398H241.2V113.998H240.5V115.398C240.5 115.698 240.6 115.798 240.9 115.798H241.2V116.398H240.5C240 116.398 239.8 116.098 239.8 115.598V112.898H239.9Z" fill="white"/>
<path d="M242.6 112.398V112.998H241.9V112.398H242.6ZM242.6 113.398V116.298H241.9V113.398H242.6Z" fill="white"/>
<path d="M243.2 112.898H243.7L243.8 113.398H244.5V113.998H244V115.398C244 115.698 244.1 115.798 244.4 115.798H244.7V116.398H244C243.5 116.398 243.3 116.098 243.3 115.598V112.898H243.2Z" fill="white"/>
<path d="M247.8 113.397V116.297H247.2L247.1 115.897C246.8 116.197 246.4 116.297 246 116.297C245.4 116.297 245.1 115.897 245.1 115.197V113.297H245.8V115.197C245.8 115.497 245.9 115.697 246.2 115.697C246.4 115.697 246.7 115.597 246.9 115.397V113.297H247.8V113.397Z" fill="white"/>
<path d="M250.6 116.3C250.4 116.4 250.1 116.4 249.8 116.4C248.8 116.4 248.2 115.9 248.2 114.9C248.2 114 248.7 113.5 249.8 113.5C250.1 113.5 250.3 113.5 250.6 113.6V114.2C250.4 114.1 250.1 114.1 249.9 114.1C249.3 114.1 249 114.4 249 114.9C249 115.5 249.3 115.8 249.9 115.8C250.1 115.8 250.4 115.8 250.6 115.7V116.3Z" fill="white"/>
<path d="M251.9 112.398V112.998H251.2V112.398H251.9ZM251.9 113.398V116.298H251.2V113.398H251.9Z" fill="white"/>
<path d="M252.4 114.898C252.4 113.898 252.9 113.398 253.9 113.398C254.9 113.398 255.4 113.898 255.4 114.898C255.4 115.898 254.9 116.398 253.9 116.398C252.9 116.398 252.4 115.898 252.4 114.898ZM253.9 115.798C254.4 115.798 254.6 115.498 254.6 114.898C254.6 114.298 254.4 113.998 253.9 113.998C253.4 113.998 253.2 114.298 253.2 114.898C253.2 115.498 253.4 115.798 253.9 115.798Z" fill="white"/>
<path d="M255.9 116.4V113.5H256.5L256.6 113.9C256.9 113.6 257.2 113.5 257.6 113.5C258.3 113.5 258.6 113.9 258.6 114.6V116.5H257.9V114.6C257.9 114.3 257.7 114.1 257.4 114.1C257.2 114.1 256.9 114.2 256.7 114.4V116.5H255.9V116.4Z" fill="white"/>
<path d="M260.5 113.398C261.4 113.398 261.8 113.898 261.8 114.798C261.8 114.898 261.8 114.998 261.8 115.198H259.8C259.8 115.598 260.1 115.798 260.7 115.798C261 115.798 261.3 115.798 261.6 115.698V116.298C261.3 116.398 261 116.398 260.7 116.398C259.6 116.398 259.1 115.898 259.1 114.898C259.1 113.898 259.6 113.398 260.5 113.398ZM259.9 114.598H261.2C261.2 114.198 261 113.998 260.6 113.998C260.1 113.998 259.9 114.198 259.9 114.598Z" fill="white"/>
<path d="M262.4 116.198V115.598C262.7 115.698 263.1 115.798 263.5 115.798C263.8 115.798 264 115.698 264 115.498C264 115.298 263.9 115.198 263.7 115.198H263.2C262.6 115.198 262.3 114.898 262.3 114.298C262.3 113.698 262.7 113.398 263.6 113.398C264 113.398 264.3 113.498 264.6 113.598V114.198C264.3 114.098 263.9 113.998 263.5 113.998C263.1 113.998 262.9 114.098 262.9 114.298C262.9 114.498 263 114.598 263.3 114.598H263.8C264.5 114.598 264.8 114.898 264.8 115.498C264.8 116.098 264.4 116.398 263.5 116.398C263.1 116.398 262.8 116.298 262.4 116.198Z" fill="white"/>
<path d="M266.2 113.398H267L267.7 115.498L268.4 113.398H269.2L268 116.398C267.8 116.898 267.4 117.298 267 117.498L266.6 116.998C266.9 116.898 267.2 116.598 267.3 116.298L266.2 113.398Z" fill="white"/>
<path d="M272.1 113.398C273 113.398 273.4 113.898 273.4 114.798C273.4 114.898 273.4 114.998 273.4 115.198H271.4C271.4 115.598 271.7 115.798 272.3 115.798C272.6 115.798 272.9 115.798 273.2 115.698V116.298C272.9 116.398 272.6 116.398 272.3 116.398C271.2 116.398 270.7 115.898 270.7 114.898C270.7 113.898 271.2 113.398 272.1 113.398ZM271.4 114.598H272.7C272.7 114.198 272.5 113.998 272.1 113.998C271.7 113.998 271.5 114.198 271.4 114.598Z" fill="white"/>
<path d="M274 116.4V113.5H274.6L274.7 113.9C275 113.6 275.3 113.5 275.7 113.5C276.1 113.5 276.3 113.6 276.5 113.9C276.8 113.6 277.1 113.5 277.4 113.5C278.1 113.5 278.4 113.9 278.4 114.6V116.4H277.7V114.5C277.7 114.2 277.6 114 277.3 114C277.1 114 276.9 114.1 276.7 114.3V116.3H276V114.5C276 114.2 275.9 114 275.6 114C275.4 114 275.2 114.1 275 114.3V116.3H274V116.4Z" fill="white"/>
<path d="M279 113.498C279.4 113.398 279.8 113.398 280.2 113.398C281.2 113.398 281.7 113.898 281.7 114.798C281.7 115.798 281.2 116.298 280.3 116.298C280.1 116.298 279.9 116.298 279.7 116.198V117.398H279V113.498ZM279.8 115.598C280 115.698 280.2 115.798 280.4 115.798C280.8 115.798 281.1 115.498 281.1 114.898C281.1 114.398 280.9 114.098 280.4 114.098C280.2 114.098 280 114.098 279.9 114.098V115.598H279.8Z" fill="white"/>
<path d="M282.3 116.4V113.5H282.9L283 113.9C283.3 113.6 283.5 113.5 283.8 113.5V114.1C283.5 114.1 283.3 114.2 283.1 114.4V116.4H282.3Z" fill="white"/>
<path d="M285.5 113.398C286.4 113.398 286.8 113.898 286.8 114.798C286.8 114.898 286.8 114.998 286.8 115.198H284.8C284.8 115.598 285.1 115.798 285.7 115.798C286 115.798 286.3 115.798 286.6 115.698V116.298C286.3 116.398 286 116.398 285.7 116.398C284.6 116.398 284.1 115.898 284.1 114.898C284.1 113.898 284.5 113.398 285.5 113.398ZM284.8 114.598H286.1C286.1 114.198 285.9 113.998 285.5 113.998C285.1 113.998 284.9 114.198 284.8 114.598Z" fill="white"/>
<path d="M287.4 116.198V115.598C287.7 115.698 288.1 115.798 288.5 115.798C288.8 115.798 289 115.698 289 115.498C289 115.298 288.9 115.198 288.7 115.198H288.2C287.6 115.198 287.3 114.898 287.3 114.298C287.3 113.698 287.7 113.398 288.6 113.398C289 113.398 289.3 113.498 289.6 113.598V114.198C289.3 114.098 288.9 113.998 288.5 113.998C288.1 113.998 287.9 114.098 287.9 114.298C287.9 114.498 288 114.598 288.3 114.598H288.8C289.5 114.598 289.8 114.898 289.8 115.498C289.8 116.098 289.4 116.398 288.5 116.398C288.1 116.398 287.7 116.298 287.4 116.198Z" fill="white"/>
<path d="M290.1 115.398C290.1 114.798 290.5 114.498 291.4 114.498C291.6 114.498 291.8 114.498 292 114.598V114.398C292 114.098 291.8 113.998 291.4 113.998C291.1 113.998 290.7 113.998 290.3 114.098V113.498C290.7 113.398 291 113.398 291.4 113.398C292.3 113.398 292.7 113.698 292.7 114.398V116.398H292.3L292 116.098C291.7 116.298 291.5 116.398 291.2 116.398C290.4 116.398 290.1 116.098 290.1 115.398ZM291.4 115.098C291 115.098 290.9 115.198 290.9 115.498C290.9 115.798 291 115.898 291.3 115.898C291.5 115.898 291.8 115.798 292 115.698V115.198C291.8 115.098 291.6 115.098 291.4 115.098Z" fill="white"/>
<path d="M293.4 116.198V115.598C293.7 115.698 294.1 115.798 294.5 115.798C294.8 115.798 295 115.698 295 115.498C295 115.298 294.9 115.198 294.7 115.198H294.2C293.6 115.198 293.3 114.898 293.3 114.298C293.3 113.698 293.7 113.398 294.6 113.398C295 113.398 295.3 113.498 295.6 113.598V114.198C295.3 114.098 294.9 113.998 294.5 113.998C294.1 113.998 293.9 114.098 293.9 114.298C293.9 114.498 294 114.598 294.3 114.598H294.8C295.5 114.598 295.8 114.898 295.8 115.498C295.8 116.098 295.4 116.398 294.5 116.398C294.1 116.398 293.7 116.298 293.4 116.198Z" fill="white"/>
<path d="M196.2 105.398H60.8999V123.598H196.2V105.398Z" fill="white"/>
<path d="M196.6 124.1H60.3999V105H196.6V124.1ZM61.2999 123.2H195.7V105.9H61.2999V123.2Z" fill="#E8F0F7"/>
<path d="M105.1 116.198V115.498C105.5 115.598 106 115.698 106.5 115.698C107.1 115.698 107.4 115.498 107.4 115.098C107.4 114.798 107.2 114.698 106.8 114.698H106.2C105.4 114.698 105 114.298 105 113.598C105 112.798 105.6 112.398 106.8 112.398C107.2 112.398 107.7 112.498 108.1 112.598V113.298C107.7 113.198 107.3 113.098 106.8 113.098C106.1 113.098 105.8 113.298 105.8 113.698C105.8 113.998 106 114.098 106.3 114.098H106.9C107.8 114.098 108.2 114.498 108.2 115.198C108.2 115.998 107.6 116.498 106.5 116.498C105.9 116.398 105.5 116.298 105.1 116.198Z" fill="#0084D9"/>
<path d="M109.9 113.398C110.8 113.398 111.2 113.898 111.2 114.798C111.2 114.898 111.2 114.998 111.2 115.198H109.2C109.2 115.598 109.5 115.798 110.1 115.798C110.4 115.798 110.7 115.798 111 115.698V116.298C110.7 116.398 110.4 116.398 110.1 116.398C109 116.398 108.5 115.898 108.5 114.898C108.5 113.898 109 113.398 109.9 113.398ZM109.3 114.598H110.6C110.6 114.198 110.4 113.998 110 113.998C109.5 113.998 109.3 114.198 109.3 114.598Z" fill="#0084D9"/>
<path d="M111.8 116.4V113.5H112.4L112.5 113.9C112.8 113.6 113 113.5 113.3 113.5V114.1C113 114.1 112.8 114.2 112.6 114.4V116.4H111.8Z" fill="#0084D9"/>
<path d="M113.3 113.398H114.1L114.8 115.498L115.5 113.398H116.3L115.1 116.298H114.4L113.3 113.398Z" fill="#0084D9"/>
<path d="M117.5 112.398V112.998H116.8V112.398H117.5ZM117.5 113.398V116.298H116.8V113.398H117.5Z" fill="#0084D9"/>
<path d="M120.3 116.3C120.1 116.4 119.8 116.4 119.5 116.4C118.5 116.4 117.9 115.9 117.9 114.9C117.9 114 118.4 113.5 119.5 113.5C119.8 113.5 120 113.5 120.3 113.6V114.2C120.1 114.1 119.8 114.1 119.6 114.1C119 114.1 118.7 114.4 118.7 114.9C118.7 115.5 119 115.8 119.6 115.8C119.8 115.8 120.1 115.8 120.3 115.7V116.3Z" fill="#0084D9"/>
<path d="M121.6 112.398V112.998H120.9V112.398H121.6ZM121.6 113.398V116.298H120.9V113.398H121.6Z" fill="#0084D9"/>
<path d="M122.1 114.898C122.1 113.898 122.6 113.398 123.6 113.398C124.6 113.398 125.1 113.898 125.1 114.898C125.1 115.898 124.6 116.398 123.6 116.398C122.6 116.398 122.1 115.898 122.1 114.898ZM123.6 115.798C124.1 115.798 124.3 115.498 124.3 114.898C124.3 114.298 124.1 113.998 123.6 113.998C123.1 113.998 122.9 114.298 122.9 114.898C122.9 115.498 123.1 115.798 123.6 115.798Z" fill="#0084D9"/>
<path d="M125.6 116.198V115.598C125.9 115.698 126.3 115.798 126.7 115.798C127 115.798 127.2 115.698 127.2 115.498C127.2 115.298 127.1 115.198 126.9 115.198H126.4C125.8 115.198 125.5 114.898 125.5 114.298C125.5 113.698 125.9 113.398 126.8 113.398C127.2 113.398 127.5 113.498 127.8 113.598V114.198C127.5 114.098 127.1 113.998 126.7 113.998C126.3 113.998 126.1 114.098 126.1 114.298C126.1 114.498 126.2 114.598 126.5 114.598H127C127.7 114.598 128 114.898 128 115.498C128 116.098 127.6 116.398 126.7 116.398C126.3 116.398 125.9 116.298 125.6 116.198Z" fill="#0084D9"/>
<path d="M131 113.498C131.4 113.398 131.8 113.398 132.2 113.398C133.2 113.398 133.7 113.898 133.7 114.798C133.7 115.798 133.2 116.298 132.3 116.298C132.1 116.298 131.9 116.298 131.7 116.198V117.398H131V113.498ZM131.7 115.598C131.9 115.698 132.1 115.798 132.3 115.798C132.7 115.798 133 115.498 133 114.898C133 114.398 132.8 114.098 132.3 114.098C132.1 114.098 131.9 114.098 131.8 114.098V115.598H131.7Z" fill="#0084D9"/>
<path d="M136.9 113.398V116.298H136.3L136.2 115.898C135.9 116.198 135.5 116.298 135.1 116.298C134.5 116.298 134.2 115.898 134.2 115.198V113.298H134.9V115.198C134.9 115.498 135 115.698 135.3 115.698C135.5 115.698 135.8 115.598 136 115.398V113.298H136.9V113.398ZM135.6 112.398H136.5L135.8 113.098H135.2L135.6 112.398Z" fill="#0084D9"/>
<path d="M137.6 112.398H138.3V113.698C138.5 113.598 138.8 113.498 139 113.498C139.8 113.498 140.3 113.998 140.3 114.898C140.3 115.898 139.8 116.398 138.9 116.398C138.5 116.398 138.1 116.398 137.6 116.298V112.398ZM138.4 115.698C138.6 115.798 138.8 115.798 139 115.798C139.4 115.798 139.7 115.498 139.7 114.798C139.7 114.298 139.5 113.998 139.1 113.998C138.8 113.998 138.6 114.098 138.4 114.198V115.698Z" fill="#0084D9"/>
<path d="M141.7 112.398V116.398H141V112.398H141.7Z" fill="#0084D9"/>
<path d="M143.1 112.398V112.998H142.4V112.398H143.1ZM143.1 113.398V116.298H142.4V113.398H143.1Z" fill="#0084D9"/>
<path d="M146 116.3C145.8 116.4 145.5 116.4 145.2 116.4C144.2 116.4 143.6 115.9 143.6 114.9C143.6 114 144.1 113.5 145.2 113.5C145.5 113.5 145.7 113.5 146 113.6V114.2C145.8 114.1 145.5 114.1 145.3 114.1C144.7 114.1 144.4 114.4 144.4 114.9C144.4 115.5 144.7 115.8 145.3 115.8C145.5 115.8 145.8 115.8 146 115.7V116.3Z" fill="#0084D9"/>
<path d="M146.4 114.898C146.4 113.898 146.9 113.398 147.9 113.398C148.9 113.398 149.4 113.898 149.4 114.898C149.4 115.898 148.9 116.398 147.9 116.398C146.8 116.398 146.4 115.898 146.4 114.898ZM147.8 115.798C148.3 115.798 148.5 115.498 148.5 114.898C148.5 114.298 148.3 113.998 147.8 113.998C147.3 113.998 147.1 114.298 147.1 114.898C147.1 115.498 147.3 115.798 147.8 115.798Z" fill="#0084D9"/>
<path d="M149.8 116.198V115.598C150.1 115.698 150.5 115.798 150.9 115.798C151.2 115.798 151.4 115.698 151.4 115.498C151.4 115.298 151.3 115.198 151.1 115.198H150.6C150 115.198 149.7 114.898 149.7 114.298C149.7 113.698 150.1 113.398 151 113.398C151.4 113.398 151.7 113.498 152 113.598V114.198C151.7 114.098 151.3 113.998 150.9 113.998C150.5 113.998 150.3 114.098 150.3 114.298C150.3 114.498 150.4 114.598 150.7 114.598H151.2C151.9 114.598 152.2 114.898 152.2 115.498C152.2 116.098 151.8 116.398 150.9 116.398C150.5 116.398 150.2 116.298 149.8 116.198Z" fill="#0084D9"/>
<path d="M74.7 172.199C72.5 172.199 70.7 170.399 70.7 168.199C70.7 165.999 72.5 164.199 74.7 164.199C76.9 164.199 78.7 165.999 78.7 168.199C78.7 170.399 76.9 172.199 74.7 172.199ZM74.7 164.899C72.9 164.899 71.4 166.399 71.4 168.199C71.4 169.999 72.9 171.499 74.7 171.499C76.5 171.499 78 169.999 78 168.199C78 166.399 76.5 164.899 74.7 164.899Z" fill="#0084D9"/>
<path d="M74.6999 192.901C75.4179 192.901 75.9999 192.319 75.9999 191.601C75.9999 190.883 75.4179 190.301 74.6999 190.301C73.9819 190.301 73.3999 190.883 73.3999 191.601C73.3999 192.319 73.9819 192.901 74.6999 192.901Z" fill="#009100"/>
<path d="M74.7 195.602C72.5 195.602 70.7 193.802 70.7 191.602C70.7 189.402 72.5 187.602 74.7 187.602C76.9 187.602 78.7 189.402 78.7 191.602C78.7 193.802 76.9 195.602 74.7 195.602ZM74.7 188.302C72.9 188.302 71.4 189.802 71.4 191.602C71.4 193.402 72.9 194.902 74.7 194.902C76.5 194.902 78 193.402 78 191.602C78 189.802 76.5 188.302 74.7 188.302Z" fill="#0084D9"/>
<path d="M275.5 177.702H161.1C158.9 177.702 157.1 175.902 157.1 173.702V167.102C157.1 164.902 158.9 163.102 161.1 163.102H275.4C277.6 163.102 279.4 164.902 279.4 167.102V173.702C279.5 175.902 277.7 177.702 275.5 177.702ZM161.1 164.002C159.4 164.002 158 165.402 158 167.102V173.702C158 175.402 159.4 176.802 161.1 176.802H275.4C277.1 176.802 278.5 175.402 278.5 173.702V167.102C278.5 165.402 277.1 164.002 275.4 164.002H161.1Z" fill="#F0F5F9"/>
<path d="M265.5 163.602H264.6V177.302H265.5V163.602Z" fill="#F0F5F9"/>
<path d="M272.3 171.498C272.2 171.498 272.2 171.498 272.1 171.398L270.6 169.898C270.5 169.798 270.5 169.598 270.6 169.598C270.7 169.498 270.9 169.498 270.9 169.598L272.2 170.898L273.5 169.598C273.6 169.498 273.8 169.498 273.8 169.598C273.9 169.698 273.9 169.898 273.8 169.898L272.3 171.398C272.5 171.498 272.4 171.498 272.3 171.498Z" fill="#C8DAE9"/>
<path d="M242.8 206.302H148.8V182.102H242.8V206.302ZM150.6 204.502H241V183.902H150.6V204.502Z" fill="#FF4200"/>
<path d="M209.4 209.898H183.9V222.298H209.4V209.898Z" fill="#0074BC"/>
<path d="M189 217.702V214.102H190.7C191.4 214.102 191.7 214.402 191.7 214.902C191.7 215.302 191.5 215.602 191 215.802C191.5 215.902 191.7 216.202 191.7 216.602C191.7 217.302 191.3 217.702 190.6 217.702H189ZM190.6 217.102C190.9 217.102 191 216.902 191 216.602C191 216.202 190.8 216.002 190.3 216.002H190.1V215.602C190.7 215.502 190.9 215.302 190.9 214.902C190.9 214.702 190.8 214.602 190.5 214.602H189.5V217.002H190.6V217.102Z" fill="white"/>
<path d="M194.7 215.1V217.7H194.2L194.1 217.4C193.8 217.6 193.5 217.7 193.1 217.7C192.6 217.7 192.3 217.4 192.3 216.7V215H193V216.7C193 217 193.1 217.1 193.4 217.1C193.6 217.1 193.8 217 194.1 216.8V215H194.7V215.1Z" fill="white"/>
<path d="M195.3 217.6V217C195.6 217.1 195.9 217.2 196.3 217.2C196.6 217.2 196.7 217.1 196.7 216.9C196.7 216.7 196.6 216.6 196.4 216.6H196C195.5 216.6 195.2 216.3 195.2 215.8C195.2 215.2 195.6 215 196.4 215C196.7 215 197 215 197.3 215.2V215.8C197 215.7 196.7 215.6 196.3 215.6C195.9 215.6 195.8 215.7 195.8 215.9C195.8 216.1 195.9 216.2 196.1 216.2H196.5C197.1 216.2 197.4 216.5 197.4 217C197.4 217.6 197 217.8 196.3 217.8C195.9 217.7 195.6 217.7 195.3 217.6Z" fill="white"/>
<path d="M199.8 217.6C199.6 217.6 199.4 217.7 199.1 217.7C198.2 217.7 197.7 217.2 197.7 216.3C197.7 215.5 198.2 215 199.1 215C199.3 215 199.6 215 199.8 215.1V215.6C199.6 215.5 199.4 215.5 199.2 215.5C198.7 215.5 198.4 215.7 198.4 216.2C198.4 216.8 198.7 217 199.2 217C199.4 217 199.6 217 199.8 216.9V217.6Z" fill="white"/>
<path d="M200.1 216.902C200.1 216.402 200.5 216.102 201.2 216.102C201.4 216.102 201.6 216.102 201.7 216.102V216.002C201.7 215.802 201.5 215.602 201.2 215.602C200.9 215.602 200.6 215.602 200.2 215.702V215.202C200.6 215.102 200.9 215.102 201.2 215.102C202 215.102 202.4 215.402 202.4 216.002V217.802H202L201.8 217.602C201.6 217.802 201.3 217.802 201 217.802C200.5 217.702 200.1 217.402 200.1 216.902ZM201.3 216.602C201 216.602 200.8 216.702 200.8 216.902C200.8 217.102 200.9 217.302 201.2 217.302C201.4 217.302 201.6 217.202 201.8 217.102V216.702C201.7 216.602 201.5 216.602 201.3 216.602Z" fill="white"/>
<path d="M203.1 217.702V215.102H203.6L203.7 215.402C203.9 215.202 204.2 215.102 204.4 215.102V215.602C204.2 215.602 203.9 215.702 203.7 215.902V217.702H203.1Z" fill="white"/>
</svg>
