<svg width="392" height="262" viewBox="0 0 392 262" fill="none" xmlns="http://www.w3.org/2000/svg">
<path d="M392 0H0V262H392V0Z" fill="#E3E3E3"/>
<path d="M310.5 131.898H81.5V216.098H310.5V131.898Z" fill="#F9F9F9"/>
<path d="M310.5 48.8984H81.5V74.9984H310.5V48.8984Z" fill="white"/>
<path d="M310.5 76.3008H81.5V91.5008H310.5V76.3008Z" fill="white"/>
<path d="M310.5 92.6992H81.5V130.299H310.5V92.6992Z" fill="white"/>
<path d="M310.5 45.8008H81.5V50.2008H310.5V45.8008Z" fill="#005FAB"/>
<path d="M288.4 61.1016H104.3V64.3016H288.4V61.1016Z" fill="#D0DEE8"/>
<path d="M104.3 67.6992C107.061 67.6992 109.3 65.4606 109.3 62.6992C109.3 59.9378 107.061 57.6992 104.3 57.6992C101.539 57.6992 99.3 59.9378 99.3 62.6992C99.3 65.4606 101.539 67.6992 104.3 67.6992Z" fill="#D0DEE8"/>
<path d="M104.3 66.1992C106.233 66.1992 107.8 64.6322 107.8 62.6992C107.8 60.7662 106.233 59.1992 104.3 59.1992C102.367 59.1992 100.8 60.7662 100.8 62.6992C100.8 64.6322 102.367 66.1992 104.3 66.1992Z" fill="#009611"/>
<path d="M150.3 67.6992C153.061 67.6992 155.3 65.4606 155.3 62.6992C155.3 59.9378 153.061 57.6992 150.3 57.6992C147.539 57.6992 145.3 59.9378 145.3 62.6992C145.3 65.4606 147.539 67.6992 150.3 67.6992Z" fill="#D0DEE8"/>
<path d="M150.3 66.1992C152.233 66.1992 153.8 64.6322 153.8 62.6992C153.8 60.7662 152.233 59.1992 150.3 59.1992C148.367 59.1992 146.8 60.7662 146.8 62.6992C146.8 64.6322 148.367 66.1992 150.3 66.1992Z" fill="#009611"/>
<path d="M196.3 67.6992C199.061 67.6992 201.3 65.4606 201.3 62.6992C201.3 59.9378 199.061 57.6992 196.3 57.6992C193.539 57.6992 191.3 59.9378 191.3 62.6992C191.3 65.4606 193.539 67.6992 196.3 67.6992Z" fill="#D0DEE8"/>
<path d="M196.3 66.1992C198.233 66.1992 199.8 64.6322 199.8 62.6992C199.8 60.7662 198.233 59.1992 196.3 59.1992C194.367 59.1992 192.8 60.7662 192.8 62.6992C192.8 64.6322 194.367 66.1992 196.3 66.1992Z" fill="#34B7CE"/>
<path d="M242.3 67.6992C245.061 67.6992 247.3 65.4606 247.3 62.6992C247.3 59.9378 245.061 57.6992 242.3 57.6992C239.539 57.6992 237.3 59.9378 237.3 62.6992C237.3 65.4606 239.539 67.6992 242.3 67.6992Z" fill="#D0DEE8"/>
<path d="M242.3 66.1992C244.233 66.1992 245.8 64.6322 245.8 62.6992C245.8 60.7662 244.233 59.1992 242.3 59.1992C240.367 59.1992 238.8 60.7662 238.8 62.6992C238.8 64.6322 240.367 66.1992 242.3 66.1992Z" fill="#34B7CE"/>
<path d="M288.3 67.6992C291.061 67.6992 293.3 65.4606 293.3 62.6992C293.3 59.9378 291.061 57.6992 288.3 57.6992C285.539 57.6992 283.3 59.9378 283.3 62.6992C283.3 65.4606 285.539 67.6992 288.3 67.6992Z" fill="#D0DEE8"/>
<path d="M288.3 66.1992C290.233 66.1992 291.8 64.6322 291.8 62.6992C291.8 60.7662 290.233 59.1992 288.3 59.1992C286.367 59.1992 284.8 60.7662 284.8 62.6992C284.8 64.6322 286.367 66.1992 288.3 66.1992Z" fill="#34B7CE"/>
<path d="M150.3 61.1016H104.3V64.3016H150.3V61.1016Z" fill="#009611"/>
<path d="M88.6001 81.5V87.2H87.6001V81.5H88.6001Z" fill="#00B7E6"/>
<path d="M89.7002 87.2V83H90.5002L90.6002 83.6C91.0002 83.2 91.5002 83 92.0002 83C93.0002 83 93.5002 83.5 93.5002 84.5V87.1H92.5002V84.5C92.5002 84 92.3002 83.8 91.8002 83.8C91.5002 83.8 91.1002 83.9 90.8002 84.2V87.1H89.7002V87.2Z" fill="#00B7E6"/>
<path d="M94.5002 87.0016V86.1016C95.0002 86.3016 95.5002 86.4016 96.1002 86.4016C96.6002 86.4016 96.8002 86.3016 96.8002 86.0016C96.8002 85.7016 96.6002 85.6016 96.3002 85.6016H95.5002C94.7002 85.6016 94.2002 85.2016 94.2002 84.4016C94.2002 83.5016 94.8002 83.1016 96.0002 83.1016C96.5002 83.1016 97.0002 83.2016 97.5002 83.3016V84.2016C97.0002 84.0016 96.5002 83.9016 96.0002 83.9016C95.4002 83.9016 95.1002 84.0016 95.1002 84.3016C95.1002 84.6016 95.3002 84.7016 95.6002 84.7016H96.3002C97.2002 84.7016 97.7002 85.1016 97.7002 85.9016C97.7002 86.8016 97.1002 87.2016 95.9002 87.2016C95.5002 87.2016 94.9002 87.1016 94.5002 87.0016Z" fill="#00B7E6"/>
<path d="M98.5 82.3008H99.3L99.5 83.0008H100.5V83.8008H99.6V85.7008C99.6 86.1008 99.8 86.3008 100.1 86.3008H100.5V87.1008H99.6C98.9 87.1008 98.6 86.7008 98.6 86.0008V82.3008H98.5Z" fill="#00B7E6"/>
<path d="M102.2 81.5V82.3H101.2V81.5H102.2ZM102.2 83V87.2H101.2V83H102.2Z" fill="#00B7E6"/>
<path d="M103.1 82.3008H103.9L104.1 83.0008H105.1V83.8008H104.2V85.7008C104.2 86.1008 104.4 86.3008 104.7 86.3008H105.1V87.1008H104.2C103.5 87.1008 103.2 86.7008 103.2 86.0008V82.3008H103.1Z" fill="#00B7E6"/>
<path d="M109.6 83V87.2H108.8L108.7 86.7C108.2 87.1 107.7 87.2 107.2 87.2C106.4 87.2 105.9 86.7 105.9 85.7V83H106.9V85.6C106.9 86.1 107.1 86.3 107.5 86.3C107.8 86.3 108.2 86.2 108.5 85.9V83H109.6Z" fill="#00B7E6"/>
<path d="M113.6 87.1C113.3 87.2 112.9 87.2 112.5 87.2C111 87.2 110.3 86.5 110.3 85C110.3 83.7 111 83 112.5 83C112.9 83 113.2 83 113.6 83.1V84C113.3 83.9 112.9 83.9 112.6 83.9C111.8 83.9 111.4 84.3 111.4 85.1C111.4 86 111.8 86.4 112.6 86.4C112.9 86.4 113.2 86.4 113.6 86.3V87.1Z" fill="#00B7E6"/>
<path d="M115.4 81.5V82.3H114.4V81.5H115.4ZM115.4 83V87.2H114.4V83H115.4Z" fill="#00B7E6"/>
<path d="M116.1 85.1C116.1 83.7 116.8 83 118.2 83C119.6 83 120.3 83.7 120.3 85.1C120.3 86.5 119.6 87.2 118.2 87.2C116.8 87.2 116.2 86.5 116.1 85.1ZM118.2 86.4C118.9 86.4 119.2 86 119.2 85.1C119.2 84.3 118.9 83.8 118.2 83.8C117.5 83.8 117.2 84.2 117.2 85.1C117.2 85.9 117.5 86.4 118.2 86.4Z" fill="#00B7E6"/>
<path d="M121.1 87.2V83H121.9L122 83.6C122.4 83.2 122.9 83 123.4 83C124.4 83 124.9 83.5 124.9 84.5V87.1H123.9V84.5C123.9 84 123.7 83.8 123.2 83.8C122.9 83.8 122.5 83.9 122.2 84.2V87.1H121.1V87.2Z" fill="#00B7E6"/>
<path d="M127.6 83C128.9 83 129.5 83.6 129.5 84.9C129.5 85.1 129.5 85.2 129.5 85.4H126.7C126.7 86 127.1 86.3 128 86.3C128.4 86.3 128.8 86.3 129.3 86.2V87C128.9 87.1 128.5 87.1 128 87.1C126.5 87.1 125.7 86.4 125.7 85C125.6 83.7 126.3 83 127.6 83ZM126.7 84.7H128.5C128.5 84.1 128.2 83.8 127.6 83.8C127 83.8 126.7 84.1 126.7 84.7Z" fill="#00B7E6"/>
<path d="M130.2 87.0016V86.1016C130.7 86.3016 131.2 86.4016 131.8 86.4016C132.3 86.4016 132.5 86.3016 132.5 86.0016C132.5 85.7016 132.3 85.6016 132 85.6016H131.2C130.4 85.6016 129.9 85.2016 129.9 84.4016C129.9 83.5016 130.5 83.1016 131.7 83.1016C132.2 83.1016 132.7 83.2016 133.2 83.3016V84.2016C132.7 84.0016 132.2 83.9016 131.7 83.9016C131.1 83.9016 130.8 84.0016 130.8 84.3016C130.8 84.6016 131 84.7016 131.3 84.7016H132C132.9 84.7016 133.4 85.1016 133.4 85.9016C133.4 86.8016 132.8 87.2016 131.6 87.2016C131.2 87.2016 130.7 87.1016 130.2 87.0016Z" fill="#00B7E6"/>
<path d="M135.6 83H136.7L137.7 86L138.7 83H139.8L138.1 87.3C137.8 88.1 137.3 88.6 136.6 88.9L136.1 88.2C136.6 88 136.9 87.7 137.1 87.2L135.6 83Z" fill="#00B7E6"/>
<path d="M143.9 83C145.2 83 145.8 83.6 145.8 84.9C145.8 85.1 145.8 85.2 145.8 85.4H143C143 86 143.4 86.3 144.3 86.3C144.7 86.3 145.1 86.3 145.6 86.2V87C145.2 87.1 144.8 87.1 144.3 87.1C142.8 87.1 142 86.4 142 85C141.9 83.7 142.6 83 143.9 83ZM143 84.7H144.8C144.8 84.1 144.5 83.8 143.9 83.8C143.3 83.8 143 84.1 143 84.7Z" fill="#00B7E6"/>
<path d="M146.6 87.2V83H147.4L147.5 83.6C147.9 83.2 148.3 83 148.8 83C149.3 83 149.7 83.2 149.9 83.6C150.3 83.2 150.8 83 151.2 83C152.2 83 152.6 83.5 152.6 84.6V87.2H151.6V84.6C151.6 84.1 151.4 83.9 151 83.9C150.7 83.9 150.4 84 150.1 84.3V87.2H149.1V84.6C149.1 84.1 148.9 83.9 148.5 83.9C148.2 83.9 147.9 84 147.6 84.3V87.2H146.6Z" fill="#00B7E6"/>
<path d="M153.7 83.2C154.3 83.1 154.8 83 155.4 83C156.8 83 157.5 83.7 157.5 85C157.5 86.5 156.8 87.2 155.5 87.2C155.2 87.2 154.9 87.1 154.7 87V88.7H153.7V83.2ZM154.7 86.1C155 86.2 155.2 86.3 155.5 86.3C156.1 86.3 156.4 85.9 156.4 85C156.4 84.3 156.1 83.9 155.4 83.9C155.1 83.9 154.9 83.9 154.7 84V86.1Z" fill="#00B7E6"/>
<path d="M158.3 87.2V83H159.1L159.2 83.5C159.6 83.1 159.9 83 160.4 83V83.8C160 83.8 159.7 84 159.4 84.3V87.1H158.3V87.2Z" fill="#00B7E6"/>
<path d="M162.8 83C164.1 83 164.7 83.6 164.7 84.9C164.7 85.1 164.7 85.2 164.7 85.4H161.9C161.9 86 162.3 86.3 163.2 86.3C163.6 86.3 164 86.3 164.5 86.2V87C164.1 87.1 163.7 87.1 163.2 87.1C161.7 87.1 160.9 86.4 160.9 85C160.8 83.7 161.5 83 162.8 83ZM161.9 84.7H163.7C163.7 84.1 163.4 83.8 162.8 83.8C162.2 83.8 161.9 84.1 161.9 84.7Z" fill="#00B7E6"/>
<path d="M165.4 87.0016V86.1016C165.9 86.3016 166.4 86.4016 167 86.4016C167.5 86.4016 167.7 86.3016 167.7 86.0016C167.7 85.7016 167.5 85.6016 167.2 85.6016H166.4C165.6 85.6016 165.1 85.2016 165.1 84.4016C165.1 83.5016 165.7 83.1016 166.9 83.1016C167.4 83.1016 167.9 83.2016 168.4 83.3016V84.2016C167.9 84.0016 167.4 83.9016 166.9 83.9016C166.3 83.9016 166 84.0016 166 84.3016C166 84.6016 166.2 84.7016 166.5 84.7016H167.2C168.1 84.7016 168.6 85.1016 168.6 85.9016C168.6 86.8016 168 87.2016 166.8 87.2016C166.4 87.2016 165.9 87.1016 165.4 87.0016Z" fill="#00B7E6"/>
<path d="M169.3 85.9016C169.3 85.1016 169.9 84.7016 171.1 84.7016C171.4 84.7016 171.7 84.7016 171.9 84.8016V84.5016C171.9 84.1016 171.6 83.9016 171.1 83.9016C170.6 83.9016 170.1 84.0016 169.6 84.1016V83.3016C170.2 83.2016 170.7 83.1016 171.1 83.1016C172.3 83.1016 173 83.6016 173 84.5016V87.3016H172.4L172 86.9016C171.6 87.1016 171.2 87.3016 170.8 87.3016C169.8 87.2016 169.3 86.7016 169.3 85.9016ZM171.1 85.4016C170.6 85.4016 170.3 85.6016 170.3 85.9016C170.3 86.3016 170.5 86.5016 170.9 86.5016C171.2 86.5016 171.6 86.4016 171.9 86.2016V85.5016C171.7 85.4016 171.4 85.4016 171.1 85.4016Z" fill="#00B7E6"/>
<path d="M174 87.0016V86.1016C174.5 86.3016 175 86.4016 175.6 86.4016C176.1 86.4016 176.3 86.3016 176.3 86.0016C176.3 85.7016 176.1 85.6016 175.8 85.6016H175C174.2 85.6016 173.7 85.2016 173.7 84.4016C173.7 83.5016 174.3 83.1016 175.5 83.1016C176 83.1016 176.5 83.2016 177 83.3016V84.2016C176.5 84.0016 176 83.9016 175.5 83.9016C174.9 83.9016 174.6 84.0016 174.6 84.3016C174.6 84.6016 174.8 84.7016 175.1 84.7016H175.8C176.7 84.7016 177.2 85.1016 177.2 85.9016C177.2 86.8016 176.6 87.2016 175.4 87.2016C175 87.2016 174.4 87.1016 174 87.0016Z" fill="#00B7E6"/>
<path d="M87.6001 120.402H86.6001L88.9001 114.902H90.0001L92.4001 120.402H91.3001L90.7001 118.902H88.9001L89.2001 118.002H90.3001L89.4001 115.902L87.6001 120.402Z" fill="#232323"/>
<path d="M95.9 120.201C95.6 120.301 95.2 120.301 94.9 120.301C93.5 120.301 92.8 119.601 92.8 118.201C92.8 116.901 93.5 116.301 94.9 116.301C95.3 116.301 95.6 116.301 95.9 116.401V117.201C95.6 117.101 95.2 117.101 94.9 117.101C94.1 117.101 93.7 117.501 93.7 118.201C93.7 119.101 94.1 119.501 94.9 119.501C95.2 119.501 95.5 119.501 95.9 119.401V120.201Z" fill="#232323"/>
<path d="M96.4001 119.102C96.4001 118.302 97.0001 117.902 98.2001 117.902C98.5001 117.902 98.7001 117.902 99.0001 118.002V117.702C99.0001 117.302 98.7001 117.202 98.2001 117.202C97.8001 117.202 97.3001 117.302 96.7001 117.402V116.602C97.2001 116.502 97.7001 116.402 98.2001 116.402C99.4001 116.402 100 116.802 100 117.702V120.402H99.4001L99.0001 120.002C98.6001 120.202 98.3001 120.402 97.8001 120.402C96.9001 120.402 96.4001 119.902 96.4001 119.102ZM98.1001 118.602C97.6001 118.602 97.4001 118.802 97.4001 119.102C97.4001 119.502 97.6001 119.602 98.0001 119.602C98.3001 119.602 98.7001 119.502 98.9001 119.302V118.702C98.7001 118.602 98.4001 118.602 98.1001 118.602Z" fill="#232323"/>
<path d="M104.5 120.101C103.9 120.301 103.3 120.301 102.7 120.301C101.4 120.301 100.7 119.601 100.7 118.201C100.7 116.901 101.3 116.301 102.6 116.301C102.9 116.301 103.1 116.401 103.4 116.501V114.801H104.4V120.101H104.5ZM103.5 117.401C103.3 117.301 103 117.201 102.7 117.201C102.1 117.201 101.8 117.601 101.8 118.301C101.8 119.101 102.1 119.601 102.8 119.601C103.1 119.601 103.3 119.601 103.6 119.501V117.401H103.5Z" fill="#232323"/>
<path d="M107.2 116.301C108.4 116.301 109 116.901 109 118.201C109 118.401 109 118.501 109 118.701H106.3C106.3 119.301 106.7 119.601 107.6 119.601C108 119.601 108.4 119.601 108.8 119.501V120.301C108.4 120.401 108 120.401 107.5 120.401C106 120.401 105.3 119.701 105.3 118.301C105.3 117.001 105.9 116.301 107.2 116.301ZM106.3 118.001H108C108 117.401 107.7 117.201 107.2 117.201C106.6 117.101 106.3 117.401 106.3 118.001Z" fill="#232323"/>
<path d="M109.8 120.402V116.402H110.6L110.7 117.002C111.1 116.602 111.5 116.402 112 116.402C112.5 116.402 112.9 116.602 113 117.002C113.4 116.602 113.8 116.402 114.3 116.402C115.2 116.402 115.7 116.902 115.7 117.902V120.402H114.7V117.902C114.7 117.502 114.5 117.202 114.1 117.202C113.8 117.202 113.5 117.302 113.2 117.602V120.402H112.2V117.902C112.2 117.402 112 117.202 111.6 117.202C111.3 117.202 111 117.302 110.8 117.602V120.402H109.8Z" fill="#232323"/>
<path d="M117.7 114.902V115.702H116.7V114.902H117.7ZM117.7 116.302V120.302H116.7V116.302H117.7Z" fill="#232323"/>
<path d="M118.4 119.102C118.4 118.302 119 117.902 120.2 117.902C120.5 117.902 120.7 117.902 121 118.002V117.702C121 117.302 120.7 117.202 120.2 117.202C119.8 117.202 119.3 117.302 118.7 117.402V116.602C119.2 116.502 119.7 116.402 120.2 116.402C121.4 116.402 122 116.802 122 117.702V120.402H121.4L121 120.002C120.6 120.202 120.3 120.402 119.8 120.402C118.9 120.402 118.4 119.902 118.4 119.102ZM120.2 118.602C119.7 118.602 119.5 118.802 119.5 119.102C119.5 119.502 119.7 119.602 120.1 119.602C120.4 119.602 120.8 119.502 121 119.302V118.702C120.7 118.602 120.5 118.602 120.2 118.602Z" fill="#232323"/>
<path d="M128.4 114.902V115.802H126.8V120.402H125.8V115.802H124.2V114.902H128.4Z" fill="#232323"/>
<path d="M128.3 120.402V116.402H129.1L129.2 116.902C129.6 116.602 129.9 116.402 130.3 116.402V117.202C129.9 117.202 129.6 117.402 129.3 117.702V120.402H128.3Z" fill="#232323"/>
<path d="M131.9 114.902V115.702H130.9V114.902H131.9ZM131.9 116.302V120.302H130.9V116.302H131.9Z" fill="#232323"/>
<path d="M133.9 114.902V120.402H132.9V114.902H133.9Z" fill="#232323"/>
<path d="M137.8 120.201C137.5 120.301 137.1 120.301 136.8 120.301C135.4 120.301 134.7 119.601 134.7 118.201C134.7 116.901 135.4 116.301 136.8 116.301C137.2 116.301 137.5 116.301 137.8 116.401V117.201C137.5 117.101 137.1 117.101 136.8 117.101C136 117.101 135.6 117.501 135.6 118.201C135.6 119.101 136 119.501 136.8 119.501C137.1 119.501 137.4 119.501 137.8 119.401V120.201Z" fill="#232323"/>
<path d="M140.2 116.301C141.4 116.301 142 116.901 142 118.201C142 118.401 142 118.501 142 118.701H139.3C139.3 119.301 139.7 119.601 140.6 119.601C141 119.601 141.4 119.601 141.8 119.501V120.301C141.4 120.401 141 120.401 140.5 120.401C139 120.401 138.3 119.701 138.3 118.301C138.3 117.001 138.9 116.301 140.2 116.301ZM139.3 118.001H141C141 117.401 140.7 117.201 140.2 117.201C139.7 117.101 139.4 117.401 139.3 118.001Z" fill="#232323"/>
<path d="M90.8 103.801V104.701H88V106.101H90.6V107.001H88V108.401H90.8V109.301H87V103.801H90.8Z" fill="#232323"/>
<path d="M91.7 109.301V105.301H92.5L92.6 105.901C93 105.501 93.4 105.301 93.9 105.301C94.4 105.301 94.8 105.501 94.9 105.901C95.3 105.501 95.7 105.301 96.2 105.301C97.1 105.301 97.6 105.801 97.6 106.801V109.301H96.6V106.801C96.6 106.401 96.4 106.101 96 106.101C95.7 106.101 95.4 106.201 95.1 106.501V109.301H94.1V106.801C94.1 106.301 93.9 106.101 93.5 106.101C93.2 106.101 92.9 106.201 92.7 106.501V109.301H91.7Z" fill="#232323"/>
<path d="M98.6001 105.501C99.1001 105.401 99.7001 105.301 100.3 105.301C101.7 105.301 102.4 105.901 102.4 107.201C102.4 108.601 101.8 109.301 100.5 109.301C100.2 109.301 100 109.201 99.7001 109.101V110.801H98.7001V105.501H98.6001ZM99.6001 108.301C99.9001 108.401 100.1 108.501 100.4 108.501C101 108.501 101.3 108.101 101.3 107.201C101.3 106.501 101 106.101 100.3 106.101C100 106.101 99.8001 106.101 99.6001 106.201V108.301Z" fill="#232323"/>
<path d="M103.1 109.301V105.301H103.9L104 105.801C104.4 105.501 104.7 105.301 105.1 105.301V106.101C104.7 106.101 104.4 106.301 104.1 106.601V109.301H103.1Z" fill="#232323"/>
<path d="M107.4 105.301C108.6 105.301 109.2 105.901 109.2 107.201C109.2 107.401 109.2 107.501 109.2 107.701H106.5C106.5 108.301 106.9 108.601 107.8 108.601C108.2 108.601 108.6 108.601 109 108.501V109.301C108.6 109.401 108.2 109.401 107.7 109.401C106.2 109.401 105.5 108.701 105.5 107.301C105.5 106.001 106.1 105.301 107.4 105.301ZM106.5 107.001H108.2C108.2 106.401 107.9 106.201 107.4 106.201C106.9 106.101 106.6 106.401 106.5 107.001Z" fill="#232323"/>
<path d="M110 109.101V108.301C110.4 108.501 111 108.601 111.6 108.601C112 108.601 112.3 108.501 112.3 108.201C112.3 107.901 112.2 107.801 111.9 107.801H111C110.2 107.801 109.8 107.401 109.8 106.601C109.8 105.801 110.4 105.301 111.6 105.301C112.1 105.301 112.6 105.401 113 105.501V106.301C112.6 106.101 112.1 106.001 111.5 106.001C110.9 106.001 110.7 106.101 110.7 106.401C110.7 106.701 110.9 106.801 111.2 106.801H111.9C112.8 106.801 113.2 107.201 113.2 108.001C113.2 108.801 112.6 109.301 111.5 109.301C110.9 109.401 110.4 109.301 110 109.101Z" fill="#232323"/>
<path d="M113.7 108.102C113.7 107.302 114.3 106.902 115.5 106.902C115.8 106.902 116 106.902 116.3 107.002V106.702C116.3 106.302 116 106.202 115.5 106.202C115.1 106.202 114.6 106.302 114 106.402V105.602C114.5 105.502 115 105.402 115.5 105.402C116.7 105.402 117.3 105.802 117.3 106.702V109.402H116.7L116.3 109.002C115.9 109.202 115.6 109.402 115.1 109.402C114.2 109.302 113.7 108.902 113.7 108.102ZM115.5 107.602C115 107.602 114.8 107.802 114.8 108.102C114.8 108.502 115 108.602 115.4 108.602C115.7 108.602 116.1 108.502 116.3 108.302V107.702C116.1 107.602 115.8 107.602 115.5 107.602Z" fill="#232323"/>
<path d="M300.3 169.299H90.5C88.3 169.299 86.5 167.499 86.5 165.299V150.699C86.5 148.499 88.3 146.699 90.5 146.699H300.3C302.5 146.699 304.3 148.499 304.3 150.699V165.299C304.3 167.499 302.5 169.299 300.3 169.299ZM90.5 147.599C88.8 147.599 87.4 148.999 87.4 150.699V165.299C87.4 166.999 88.8 168.399 90.5 168.399H300.3C302 168.399 303.4 166.999 303.4 165.299V150.699C303.4 148.999 302 147.599 300.3 147.599H90.5Z" fill="#90908F"/>
<path d="M91.8999 155.203H96.7999V156.203L93.6999 162.003H92.2999L95.3999 156.303H91.8999V155.203Z" fill="#232323"/>
<path d="M98.2 162.102V156.302H97.5V155.802L99.5 155.102V162.102H98.2Z" fill="#232323"/>
<path d="M100.8 155.203H105.7V156.203L102.6 162.003H101.2L104.3 156.303H100.8V155.203Z" fill="#232323"/>
<path d="M110.2 162.103H109V160.603H105.5V159.603L108.3 155.203H109.7L107 159.603H109V157.303H110.3V159.603L111 160.303V160.703H110.3V162.103H110.2Z" fill="#232323"/>
<path d="M112.3 162.102V156.302H111.6V155.802L113.6 155.102V162.102H112.3Z" fill="#232323"/>
<path d="M114.7 160.002C114.7 159.302 115 158.802 115.7 158.402C115.2 158.102 114.9 157.602 114.9 156.902C114.9 155.702 115.7 155.102 117.4 155.102C119.1 155.102 119.9 155.702 119.9 156.902C119.9 157.602 119.6 158.102 119.1 158.402C119.8 158.702 120.1 159.302 120.1 160.002C120.1 161.402 119.2 162.102 117.5 162.102C115.6 162.102 114.7 161.402 114.7 160.002ZM118.8 160.102C118.8 159.402 118.3 159.102 117.4 159.102C116.5 159.102 116 159.402 116 160.102C116 160.702 116.5 161.002 117.5 161.002C118.4 161.002 118.8 160.702 118.8 160.102ZM118.6 157.102C118.6 156.602 118.2 156.302 117.4 156.302C116.6 156.302 116.2 156.602 116.2 157.102C116.2 157.702 116.6 158.002 117.4 158.002C118.2 158.002 118.6 157.702 118.6 157.102Z" fill="#232323"/>
<path d="M121 155.503C121.6 155.303 122.3 155.203 123 155.203C124.7 155.203 125.6 155.803 125.6 157.103C125.6 157.903 125.3 158.403 124.7 158.703C125.3 159.003 125.6 159.503 125.6 160.303C125.6 161.603 124.7 162.303 123 162.303C122.3 162.303 121.6 162.203 121 162.003V160.903C121.6 161.103 122.3 161.203 123 161.203C123.9 161.203 124.3 160.903 124.3 160.203C124.3 159.603 124 159.303 123.4 159.303H121.7V158.203H123.3C123.9 158.203 124.2 157.903 124.2 157.303C124.2 156.703 123.8 156.403 122.9 156.403C122.2 156.403 121.5 156.503 120.9 156.703V155.503H121Z" fill="#232323"/>
<path d="M126.2 158.703C126.2 156.403 127.2 155.203 129.3 155.203C131.3 155.203 132.3 156.403 132.3 158.703C132.3 161.003 131.3 162.203 129.3 162.203C127.3 162.103 126.2 161.003 126.2 158.703ZM129.3 161.003C130.4 161.003 131 160.203 131 158.603C131 157.003 130.4 156.303 129.3 156.303C128.1 156.303 127.6 157.103 127.6 158.603C127.6 160.203 128.1 161.003 129.3 161.003Z" fill="#232323"/>
<path d="M143.4 170.302H81.2V145.602H143.4V170.302ZM84.2 167.302H140.4V148.602H84.2V167.302Z" fill="#FF4200"/>
<path d="M310.5 174.199H81.5V175.899H310.5V174.199Z" fill="#E7E7E7"/>
<path d="M310.5 129.398H81.5V131.098H310.5V129.398Z" fill="#E7E7E7"/>
<path d="M299.6 204.098H91.2C89.2 204.098 87.7 202.498 87.7 200.598V184.898C87.7 182.898 89.3 181.398 91.2 181.398H299.5C301.5 181.398 303 182.998 303 184.898V200.598C303.1 202.498 301.5 204.098 299.6 204.098Z" fill="#0084D9"/>
<path d="M189.1 189.699V190.599H186.4V191.999H189V192.899H186.4V194.299H189.2V195.199H185.4V189.799H189.1V189.699Z" fill="white"/>
<path d="M190 195.199V191.199H190.8L190.9 191.799C191.3 191.399 191.7 191.199 192.2 191.199C193.1 191.199 193.6 191.699 193.6 192.699V195.199H192.6V192.699C192.6 192.299 192.4 191.999 191.9 191.999C191.6 191.999 191.3 192.099 190.9 192.399V195.199H190Z" fill="white"/>
<path d="M194.5 190.5H195.2L195.4 191.1H196.4V191.9H195.5V193.7C195.5 194.1 195.7 194.3 196 194.3H196.4V195.1H195.5C194.8 195.1 194.5 194.7 194.5 194V190.5Z" fill="white"/>
<path d="M197 195.199V191.199H197.8L197.9 191.699C198.2 191.399 198.6 191.199 199 191.199V191.999C198.6 191.999 198.3 192.199 198 192.499V195.199H197Z" fill="white"/>
<path d="M199.4 193.899C199.4 193.099 200 192.699 201.1 192.699C201.4 192.699 201.6 192.699 201.9 192.799V192.499C201.9 192.099 201.6 191.999 201.1 191.999C200.7 191.999 200.2 192.099 199.7 192.199V191.399C200.2 191.299 200.7 191.199 201.1 191.199C202.3 191.199 202.9 191.599 202.9 192.499V195.199H202.3L201.9 194.799C201.6 194.999 201.2 195.199 200.8 195.199C199.9 195.199 199.4 194.799 199.4 193.899ZM201.2 193.399C200.7 193.399 200.5 193.599 200.5 193.899C200.5 194.299 200.7 194.399 201.1 194.399C201.4 194.399 201.7 194.299 202 194.099V193.499C201.7 193.399 201.4 193.399 201.2 193.399Z" fill="white"/>
<path d="M203.9 195.199V191.199H204.7L204.8 191.699C205.1 191.399 205.5 191.199 205.9 191.199V191.999C205.5 191.999 205.2 192.199 204.9 192.499V195.199H203.9Z" fill="white"/>
<path d="M90.9 142.902C90.5 143.102 90 143.102 89.4 143.102C87.6 143.102 86.7 142.202 86.7 140.502C86.7 138.902 87.6 138.102 89.4 138.102C89.9 138.102 90.4 138.202 90.9 138.302V139.102C90.5 138.902 90 138.802 89.5 138.802C88.3 138.802 87.7 139.302 87.7 140.402C87.7 141.602 88.3 142.202 89.5 142.202C90 142.202 90.5 142.102 90.9 141.902V142.902Z" fill="#232323"/>
<path d="M91.5 141.302C91.5 140.102 92.1 139.502 93.3 139.502C94.5 139.502 95.1 140.102 95.1 141.302C95.1 142.502 94.5 143.102 93.3 143.102C92.1 143.102 91.5 142.502 91.5 141.302ZM93.3 142.402C93.9 142.402 94.2 142.002 94.2 141.302C94.2 140.602 93.9 140.202 93.3 140.202C92.7 140.202 92.4 140.602 92.4 141.302C92.4 142.002 92.7 142.402 93.3 142.402ZM93.3 138.102H94.4L93.6 139.002H92.8L93.3 138.102Z" fill="#232323"/>
<path d="M98.9999 142.903C98.3999 143.003 97.8999 143.103 97.3999 143.103C96.1999 143.103 95.5999 142.503 95.5999 141.203C95.5999 140.003 96.1999 139.503 97.2999 139.503C97.4999 139.503 97.7999 139.603 98.0999 139.703V138.203H98.9999V142.903ZM98.0999 140.403C97.8999 140.303 97.6999 140.203 97.3999 140.203C96.7999 140.203 96.4999 140.503 96.4999 141.203C96.4999 142.003 96.7999 142.303 97.3999 142.303C97.5999 142.303 97.8999 142.303 98.0999 142.203V140.403Z" fill="#232323"/>
<path d="M100.8 138.102V138.802H99.8999V138.102H100.8ZM100.8 139.502V143.102H99.8999V139.502H100.8Z" fill="#232323"/>
<path d="M104.9 142.8C104.9 143.9 104.3 144.4 103 144.4C102.6 144.4 102.2 144.3 101.8 144.2V143.5C102.2 143.6 102.6 143.7 103 143.7C103.7 143.7 104 143.4 104 142.9C103.7 143 103.4 143.1 103.1 143.1C102 143.1 101.5 142.5 101.5 141.3C101.5 140.1 102.1 139.5 103.4 139.5C103.8 139.5 104.3 139.5 104.9 139.6V142.8ZM104 140.3C103.9 140.2 103.6 140.2 103.4 140.2C102.8 140.2 102.4 140.5 102.4 141.2C102.4 141.9 102.7 142.2 103.2 142.2C103.5 142.2 103.7 142.1 104 142V140.3Z" fill="#232323"/>
<path d="M105.6 141.3C105.6 140.1 106.2 139.5 107.4 139.5C108.6 139.5 109.2 140.1 109.2 141.3C109.2 142.5 108.6 143.1 107.4 143.1C106.2 143.1 105.6 142.5 105.6 141.3ZM107.4 142.4C108 142.4 108.3 142 108.3 141.3C108.3 140.6 108 140.2 107.4 140.2C106.8 140.2 106.5 140.6 106.5 141.3C106.5 142 106.8 142.4 107.4 142.4Z" fill="#232323"/>
<path d="M114.6 142.903C114 143.003 113.5 143.103 113 143.103C111.8 143.103 111.2 142.503 111.2 141.203C111.2 140.003 111.8 139.503 112.9 139.503C113.1 139.503 113.4 139.603 113.7 139.703V138.203H114.6V142.903ZM113.7 140.403C113.5 140.303 113.3 140.203 113 140.203C112.4 140.203 112.1 140.503 112.1 141.203C112.1 142.003 112.4 142.303 113 142.303C113.2 142.303 113.5 142.303 113.7 142.203V140.403Z" fill="#232323"/>
<path d="M117 139.5C118.1 139.5 118.7 140.1 118.7 141.2C118.7 141.3 118.7 141.5 118.7 141.6H116.3C116.3 142.1 116.7 142.4 117.4 142.4C117.8 142.4 118.1 142.4 118.5 142.3V143C118.2 143.1 117.8 143.1 117.3 143.1C116 143.1 115.3 142.5 115.3 141.2C115.3 140 115.9 139.5 117 139.5ZM116.3 141H117.8C117.8 140.5 117.5 140.2 117 140.2C116.6 140.2 116.3 140.4 116.3 141Z" fill="#232323"/>
<path d="M120.8 142C120.8 141.3 121.3 140.9 122.4 140.9C122.6 140.9 122.9 140.9 123.1 141V140.7C123.1 140.4 122.9 140.2 122.4 140.2C122 140.2 121.6 140.3 121.1 140.4V139.7C121.6 139.6 122 139.5 122.4 139.5C123.5 139.5 124 139.9 124 140.7V143.1H123.5L123.2 142.8C122.9 143 122.5 143.1 122.2 143.1C121.2 143.1 120.8 142.7 120.8 142ZM122.3 141.5C121.9 141.5 121.6 141.6 121.6 141.9C121.6 142.2 121.8 142.4 122.2 142.4C122.5 142.4 122.8 142.3 123 142.1V141.5C122.8 141.5 122.6 141.5 122.3 141.5Z" fill="#232323"/>
<path d="M125.8 138.102V143.002H124.9V138.102H125.8Z" fill="#232323"/>
<path d="M129.9 139.5V143.1H129.2L129.1 142.6C128.7 142.9 128.2 143.1 127.8 143.1C127.1 143.1 126.7 142.7 126.7 141.8V139.5H127.6V141.8C127.6 142.2 127.8 142.4 128.1 142.4C128.4 142.4 128.7 142.3 129 142V139.5H129.9Z" fill="#232323"/>
<path d="M130.8 143.1V139.5H131.5L131.6 140C131.9 139.6 132.3 139.5 132.8 139.5C133.3 139.5 133.6 139.7 133.7 140C134.1 139.7 134.5 139.5 134.9 139.5C135.7 139.5 136.2 140 136.2 140.9V143.2H135.3V140.9C135.3 140.5 135.1 140.3 134.8 140.3C134.5 140.3 134.3 140.4 134 140.7V143.2H133.1V140.9C133.1 140.5 132.9 140.3 132.6 140.3C132.3 140.3 132.1 140.4 131.8 140.7V143.2H130.8V143.1Z" fill="#232323"/>
<path d="M137 143.1V139.5H137.7L137.8 140C138.1 139.6 138.5 139.5 139 139.5C139.9 139.5 140.3 139.9 140.3 140.8V143.1H139.4V140.8C139.4 140.4 139.2 140.2 138.8 140.2C138.5 140.2 138.2 140.3 137.9 140.6V143.1H137Z" fill="#232323"/>
<path d="M141 141.3C141 140.1 141.6 139.5 142.8 139.5C144 139.5 144.6 140.1 144.6 141.3C144.6 142.5 144 143.1 142.8 143.1C141.6 143.1 141 142.5 141 141.3ZM142.8 142.4C143.4 142.4 143.7 142 143.7 141.3C143.7 140.6 143.4 140.2 142.8 140.2C142.2 140.2 141.9 140.6 141.9 141.3C141.9 142 142.2 142.4 142.8 142.4Z" fill="#232323"/>
</svg>
