<svg width="392" height="262" viewBox="0 0 392 262" fill="none" xmlns="http://www.w3.org/2000/svg">
<path d="M392 0H0V262H392V0Z" fill="#F6F6F6"/>
<path d="M343.7 0.398438H48.1997V261.498H343.7V0.398438Z" fill="#F3F7F5"/>
<path d="M344.2 262H47.7998V0H344.2V262ZM48.6998 261.1H343.4V0.9H48.6998V261.1Z" fill="#DDEBEF"/>
<path d="M339.2 69.5H55.2002V256.1H339.2V69.5Z" fill="white"/>
<path d="M339.2 29H55.2002V62.3H339.2V29Z" fill="white"/>
<path d="M326 47.8008H65.8999V51.0008H326V47.8008Z" fill="#D0DEE8"/>
<path d="M59.2998 19.5008V14.3008H61.5998C62.6998 14.3008 63.1998 14.8008 63.1998 15.8008C63.1998 16.9008 62.4998 17.5008 60.9998 17.7008L60.8998 16.8008C61.7998 16.6008 62.1998 16.3008 62.1998 15.8008C62.1998 15.4008 61.9998 15.2008 61.5998 15.2008H60.2998V19.5008H59.2998Z" fill="#0084D9"/>
<path d="M63.5 18.2992C63.5 17.4992 64 17.1992 65.1 17.1992C65.4 17.1992 65.6 17.1992 65.9 17.2992V16.9992C65.9 16.6992 65.7 16.4992 65.2 16.4992C64.8 16.4992 64.3 16.5992 63.8 16.6992V15.8992C64.3 15.7992 64.8 15.6992 65.2 15.6992C66.3 15.6992 66.9 16.0992 66.9 16.9992V19.4992H66.3L66 19.1992C65.7 19.3992 65.3 19.4992 64.9 19.4992C64 19.4992 63.5 19.0992 63.5 18.2992ZM65.2 17.8992C64.7 17.8992 64.5 18.0992 64.5 18.3992C64.5 18.6992 64.7 18.8992 65.1 18.8992C65.4 18.8992 65.7 18.7992 66 18.5992V17.9992C65.7 17.8992 65.4 17.8992 65.2 17.8992Z" fill="#0084D9"/>
<path d="M71.1997 19.2008C71.1997 20.3008 70.4997 20.9008 69.1997 20.9008C68.6997 20.9008 68.2997 20.8008 67.9997 20.7008V20.0008C68.3997 20.1008 68.7997 20.2008 69.2997 20.2008C69.9997 20.2008 70.2997 19.9008 70.2997 19.3008C69.9997 19.4008 69.6997 19.5008 69.3997 19.5008C68.2997 19.5008 67.6997 18.9008 67.6997 17.7008C67.6997 16.4008 68.3997 15.8008 69.6997 15.8008C70.0997 15.8008 70.6997 15.9008 71.2997 16.0008V19.2008H71.1997ZM70.1997 16.6008C69.9997 16.5008 69.7997 16.5008 69.4997 16.5008C68.7997 16.5008 68.4997 16.9008 68.4997 17.6008C68.4997 18.3008 68.7997 18.7008 69.3997 18.7008C69.6997 18.7008 69.8997 18.6008 70.1997 18.5008V16.6008Z" fill="#0084D9"/>
<path d="M71.8999 18.2992C71.8999 17.4992 72.4999 17.1992 73.5999 17.1992C73.8999 17.1992 74.0999 17.1992 74.3999 17.2992V16.9992C74.3999 16.6992 74.1999 16.4992 73.6999 16.4992C73.2999 16.4992 72.7999 16.5992 72.2999 16.6992V15.8992C72.7999 15.7992 73.2999 15.6992 73.6999 15.6992C74.7999 15.6992 75.3999 16.0992 75.3999 16.9992V19.4992H74.7999L74.4999 19.1992C74.1999 19.3992 73.7999 19.4992 73.3999 19.4992C72.3999 19.4992 71.8999 19.0992 71.8999 18.2992ZM73.5999 17.8992C73.0999 17.8992 72.8999 18.0992 72.8999 18.3992C72.8999 18.6992 73.0999 18.8992 73.4999 18.8992C73.7999 18.8992 74.0999 18.7992 74.3999 18.5992V17.9992C74.0999 17.8992 73.7999 17.8992 73.5999 17.8992Z" fill="#0084D9"/>
<path d="M76.1997 19.4992V15.6992H76.8997L76.9997 16.1992C77.2997 15.8992 77.6997 15.6992 78.0997 15.6992V16.4992C77.6997 16.4992 77.3997 16.5992 77.0997 16.8992V19.4992H76.1997Z" fill="#0084D9"/>
<path d="M80.2996 19.4008V18.6008C80.6996 18.8008 81.1996 18.9008 81.7996 18.9008C82.1996 18.9008 82.3996 18.8008 82.3996 18.5008C82.3996 18.2008 82.2996 18.1008 81.9996 18.1008H81.2996C80.4996 18.1008 80.0996 17.7008 80.0996 17.0008C80.0996 16.2008 80.6996 15.8008 81.7996 15.8008C82.2996 15.8008 82.6996 15.9008 83.0996 16.0008V16.8008C82.6996 16.6008 82.1996 16.5008 81.6996 16.5008C81.1996 16.5008 80.8996 16.6008 80.8996 16.9008C80.8996 17.2008 81.0996 17.3008 81.3996 17.3008H81.9996C82.7996 17.3008 83.2996 17.7008 83.2996 18.4008C83.2996 19.2008 82.7996 19.6008 81.6996 19.6008C81.1996 19.6008 80.6996 19.5008 80.2996 19.4008Z" fill="#0084D9"/>
<path d="M85.5999 15.6992C86.7999 15.6992 87.2999 16.2992 87.2999 17.4992C87.2999 17.6992 87.2999 17.7992 87.2999 17.9992H84.7999C84.7999 18.4992 85.1999 18.7992 85.9999 18.7992C86.3999 18.7992 86.7999 18.7992 87.1999 18.6992V19.4992C86.8999 19.5992 86.4999 19.5992 85.9999 19.5992C84.5999 19.5992 83.8999 18.9992 83.8999 17.6992C83.7999 16.3992 84.3999 15.6992 85.5999 15.6992ZM84.7999 17.2992H86.3999C86.3999 16.7992 86.0999 16.4992 85.5999 16.4992C85.0999 16.4992 84.7999 16.7992 84.7999 17.2992Z" fill="#0084D9"/>
<path d="M88 19.4992V15.6992H88.7L88.8 16.1992C89.1 15.8992 89.5 15.6992 89.9 15.6992V16.4992C89.5 16.4992 89.2 16.5992 88.9 16.8992V19.4992H88Z" fill="#0084D9"/>
<path d="M90.0996 15.6992H91.0996L91.9996 18.3992L92.9996 15.6992H93.9996L92.4996 19.4992H91.5996L90.0996 15.6992Z" fill="#0084D9"/>
<path d="M95.3999 14.4023V15.2023H94.3999V14.4023H95.3999ZM95.3999 15.7023V19.5023H94.3999V15.7023H95.3999Z" fill="#0084D9"/>
<path d="M99.0996 19.3992C98.7996 19.4992 98.4996 19.4992 98.0996 19.4992C96.6996 19.4992 96.0996 18.7992 96.0996 17.4992C96.0996 16.2992 96.7996 15.6992 98.0996 15.6992C98.3996 15.6992 98.7996 15.6992 99.0996 15.7992V16.5992C98.7996 16.4992 98.4996 16.4992 98.1996 16.4992C97.3996 16.4992 97.0996 16.8992 97.0996 17.5992C97.0996 18.3992 97.4996 18.7992 98.1996 18.7992C98.4996 18.7992 98.7996 18.7992 99.0996 18.6992V19.3992Z" fill="#0084D9"/>
<path d="M100.7 14.4023V15.2023H99.6997V14.4023H100.7ZM100.7 15.7023V19.5023H99.6997V15.7023H100.7Z" fill="#0084D9"/>
<path d="M101.4 17.5992C101.4 16.2992 102 15.6992 103.3 15.6992C104.6 15.6992 105.2 16.2992 105.2 17.5992C105.2 18.8992 104.6 19.4992 103.3 19.4992C102 19.4992 101.4 18.8992 101.4 17.5992ZM103.3 18.7992C103.9 18.7992 104.2 18.3992 104.2 17.5992C104.2 16.7992 103.9 16.3992 103.3 16.3992C102.7 16.3992 102.4 16.7992 102.4 17.5992C102.4 18.3992 102.7 18.7992 103.3 18.7992Z" fill="#0084D9"/>
<path d="M105.9 19.4008V18.6008C106.3 18.8008 106.8 18.9008 107.4 18.9008C107.8 18.9008 108 18.8008 108 18.5008C108 18.2008 107.9 18.1008 107.6 18.1008H106.9C106.1 18.1008 105.7 17.7008 105.7 17.0008C105.7 16.2008 106.3 15.8008 107.4 15.8008C107.9 15.8008 108.3 15.9008 108.7 16.0008V16.8008C108.3 16.6008 107.8 16.5008 107.3 16.5008C106.8 16.5008 106.5 16.6008 106.5 16.9008C106.5 17.2008 106.7 17.3008 107 17.3008H107.6C108.4 17.3008 108.9 17.7008 108.9 18.4008C108.9 19.2008 108.4 19.6008 107.3 19.6008C106.8 19.6008 106.3 19.5008 105.9 19.4008Z" fill="#0084D9"/>
<path d="M64.5001 43.4984V40.0984H64.1001V39.7984L65.3001 39.3984V43.4984H64.5001Z" fill="#0084D9"/>
<path d="M66.8 42.7969V43.4969H66V42.7969H66.8Z" fill="#0084D9"/>
<path d="M68.7001 43.2984V42.5984C69.1001 42.7984 69.6001 42.7984 70.1001 42.7984C70.7001 42.7984 71.0001 42.5984 71.0001 42.1984C71.0001 41.8984 70.8001 41.6984 70.4001 41.6984H69.8001C69.0001 41.6984 68.6001 41.2984 68.6001 40.5984C68.6001 39.7984 69.2001 39.3984 70.4001 39.3984C70.8001 39.3984 71.3001 39.4984 71.7001 39.5984V40.2984C71.3001 40.0984 70.9001 40.0984 70.4001 40.0984C69.7001 40.0984 69.4001 40.2984 69.4001 40.6984C69.4001 40.9984 69.6001 41.1984 69.9001 41.1984H70.5001C71.4001 41.1984 71.8001 41.5984 71.8001 42.2984C71.8001 43.0984 71.2001 43.5984 70.1001 43.5984C69.5001 43.4984 69.1001 43.3984 68.7001 43.2984Z" fill="#0084D9"/>
<path d="M73.5 40.5C74.4 40.5 74.8 41 74.8 41.9C74.8 42 74.8 42.1 74.8 42.3H72.8C72.8 42.7 73.1 42.9 73.7 42.9C74 42.9 74.3 42.9 74.6 42.8V43.4C74.3 43.5 74 43.5 73.6 43.5C72.5 43.5 72 43 72 42C72.1 41 72.6 40.5 73.5 40.5ZM72.9 41.7H74.2C74.2 41.3 74 41.1 73.6 41.1C73.1 41.1 72.9 41.3 72.9 41.7Z" fill="#0084D9"/>
<path d="M75.3999 43.5V40.5H75.9999L76.0999 40.9C76.3999 40.6 76.5999 40.5 76.8999 40.5V41.1C76.5999 41.1 76.3999 41.2 76.1999 41.4V43.4H75.3999V43.5Z" fill="#0084D9"/>
<path d="M77 40.5H77.8L78.5 42.6L79.2 40.5H80L78.8 43.5H78.1L77 40.5Z" fill="#0084D9"/>
<path d="M81.0999 39.4984V39.9984H80.3999V39.3984H81.0999V39.4984ZM81.0999 40.4984V43.4984H80.3999V40.4984H81.0999Z" fill="#0084D9"/>
<path d="M84.0001 43.3977C83.8001 43.4977 83.5001 43.4977 83.2001 43.4977C82.2001 43.4977 81.6001 42.9977 81.6001 41.9977C81.6001 41.0977 82.1001 40.5977 83.2001 40.5977C83.5001 40.5977 83.7001 40.5977 84.0001 40.6977V41.2977C83.8001 41.1977 83.5001 41.1977 83.3001 41.1977C82.7001 41.1977 82.4001 41.4977 82.4001 41.9977C82.4001 42.5977 82.7001 42.8977 83.3001 42.8977C83.5001 42.8977 83.8001 42.8977 84.0001 42.7977V43.3977Z" fill="#0084D9"/>
<path d="M85.2 39.4984V39.9984H84.5V39.3984H85.2V39.4984ZM85.2 40.4984V43.4984H84.5V40.4984H85.2Z" fill="#0084D9"/>
<path d="M85.8003 42C85.8003 41 86.3003 40.5 87.3003 40.5C88.3003 40.5 88.8003 41 88.8003 42C88.8003 43 88.3003 43.5 87.3003 43.5C86.3003 43.5 85.8003 43 85.8003 42ZM87.2003 42.9C87.7003 42.9 87.9003 42.6 87.9003 42C87.9003 41.4 87.7003 41.1 87.2003 41.1C86.7003 41.1 86.5003 41.4 86.5003 42C86.5003 42.6 86.8003 42.9 87.2003 42.9Z" fill="#0084D9"/>
<path d="M89.3001 43.3V42.7C89.6001 42.8 90.0001 42.9 90.4001 42.9C90.7001 42.9 90.9001 42.8 90.9001 42.6C90.9001 42.4 90.8001 42.3 90.6001 42.3H90.0001C89.4001 42.3 89.1001 42 89.1001 41.4C89.1001 40.8 89.5001 40.5 90.4001 40.5C90.8001 40.5 91.1001 40.6 91.4001 40.7V41.3C91.1001 41.2 90.7001 41.1 90.3001 41.1C89.9001 41.1 89.7001 41.2 89.7001 41.4C89.7001 41.6 89.8001 41.7 90.1001 41.7H90.6001C91.3001 41.7 91.6001 42 91.6001 42.6C91.6001 43.2 91.2001 43.5 90.3001 43.5C90.0001 43.5 89.6001 43.4 89.3001 43.3Z" fill="#0084D9"/>
<path d="M104.5 43.5008V42.9008C105.8 42.0008 106.5 41.2008 106.5 40.6008C106.5 40.2008 106.3 40.0008 105.8 40.0008C105.4 40.0008 105 40.1008 104.6 40.3008V39.6008C105 39.4008 105.4 39.3008 105.8 39.3008C106.8 39.3008 107.3 39.7008 107.3 40.5008C107.3 41.2008 106.8 41.9008 105.7 42.7008H107.3V43.3008H104.5V43.5008Z" fill="#0084D9"/>
<path d="M108.5 42.8008V43.5008H107.8V42.8008H108.5Z" fill="#0084D9"/>
<path d="M110.4 43.3023V42.6023C110.8 42.8023 111.3 42.8023 111.8 42.8023C112.4 42.8023 112.7 42.6023 112.7 42.2023C112.7 41.9023 112.5 41.7023 112.1 41.7023H111.5C110.7 41.7023 110.3 41.3023 110.3 40.6023C110.3 39.8023 110.9 39.4023 112.1 39.4023C112.5 39.4023 113 39.5023 113.4 39.6023V40.3023C113 40.1023 112.6 40.1023 112.1 40.1023C111.4 40.1023 111.1 40.3023 111.1 40.7023C111.1 41.0023 111.3 41.2023 111.6 41.2023H112.2C113.1 41.2023 113.5 41.6023 113.5 42.3023C113.5 43.1023 112.9 43.6023 111.8 43.6023C111.3 43.5023 110.8 43.4023 110.4 43.3023Z" fill="#0084D9"/>
<path d="M115.3 40.5C116.2 40.5 116.6 41 116.6 41.9C116.6 42 116.6 42.1 116.6 42.3H114.6C114.6 42.7 114.9 42.9 115.5 42.9C115.8 42.9 116.1 42.9 116.4 42.8V43.4C116.1 43.5 115.8 43.5 115.4 43.5C114.3 43.5 113.8 43 113.8 42C113.9 41 114.4 40.5 115.3 40.5ZM114.6 41.7H115.9C115.9 41.3 115.7 41.1 115.3 41.1C114.9 41.1 114.7 41.3 114.6 41.7Z" fill="#0084D9"/>
<path d="M117.9 39.5V43.5H117.2V39.5H117.9Z" fill="#0084D9"/>
<path d="M119.9 40.5C120.8 40.5 121.2 41 121.2 41.9C121.2 42 121.2 42.1 121.2 42.3H119.2C119.2 42.7 119.5 42.9 120.1 42.9C120.4 42.9 120.7 42.9 121 42.8V43.4C120.7 43.5 120.4 43.5 120 43.5C118.9 43.5 118.4 43 118.4 42C118.5 41 118.9 40.5 119.9 40.5ZM119.2 41.7H120.5C120.5 41.3 120.3 41.1 119.9 41.1C119.5 41.1 119.3 41.3 119.2 41.7Z" fill="#0084D9"/>
<path d="M124 43.4016C123.8 43.5016 123.5 43.5016 123.2 43.5016C122.1 43.5016 121.6 43.0016 121.6 42.0016C121.6 41.1016 122.1 40.6016 123.2 40.6016C123.5 40.6016 123.7 40.6016 124 40.7016V41.3016C123.8 41.2016 123.5 41.2016 123.3 41.2016C122.7 41.2016 122.4 41.5016 122.4 42.0016C122.4 42.6016 122.7 42.9016 123.3 42.9016C123.5 42.9016 123.8 42.9016 124 42.8016V43.4016Z" fill="#0084D9"/>
<path d="M126.6 43.4016C126.4 43.5016 126.1 43.5016 125.8 43.5016C124.8 43.5016 124.2 43.0016 124.2 42.0016C124.2 41.1016 124.7 40.6016 125.8 40.6016C126.1 40.6016 126.3 40.6016 126.6 40.7016V41.3016C126.4 41.2016 126.1 41.2016 125.9 41.2016C125.3 41.2016 125 41.5016 125 42.0016C125 42.6016 125.3 42.9016 125.9 42.9016C126.1 42.9016 126.4 42.9016 126.6 42.8016V43.4016Z" fill="#0084D9"/>
<path d="M127.9 39.5023V40.0023H127.2V39.4023H127.9V39.5023ZM127.9 40.5023V43.5023H127.2V40.5023H127.9Z" fill="#0084D9"/>
<path d="M128.4 42C128.4 41 128.9 40.5 129.9 40.5C130.9 40.5 131.4 41 131.4 42C131.4 43 130.9 43.5 129.9 43.5C128.9 43.5 128.4 43 128.4 42ZM129.9 42.9C130.4 42.9 130.6 42.6 130.6 42C130.6 41.4 130.4 41.1 129.9 41.1C129.4 41.1 129.2 41.4 129.2 42C129.2 42.6 129.4 42.9 129.9 42.9ZM129.9 39.5H130.8L130.1 40.2H129.5L129.9 39.5Z" fill="#0084D9"/>
<path d="M131.9 43.5V40.5H132.5L132.6 40.9C132.9 40.6 133.2 40.5 133.6 40.5C134.3 40.5 134.6 40.9 134.6 41.6V43.5H133.9V41.6C133.9 41.3 133.7 41.1 133.4 41.1C133.2 41.1 132.9 41.2 132.7 41.4V43.5H131.9Z" fill="#0084D9"/>
<path d="M139.2 43.3C138.7 43.4 138.3 43.5 137.9 43.5C136.9 43.5 136.5 43 136.5 42C136.5 41.1 137 40.6 137.9 40.6C138.1 40.6 138.3 40.6 138.5 40.7V39.5H139.2V43.3ZM138.4 41.3C138.2 41.2 138.1 41.1 137.8 41.1C137.3 41.1 137.1 41.4 137.1 41.9C137.1 42.5 137.3 42.8 137.8 42.8C138 42.8 138.2 42.8 138.4 42.7V41.3Z" fill="#0084D9"/>
<path d="M141.1 40.5C142 40.5 142.4 41 142.4 41.9C142.4 42 142.4 42.1 142.4 42.3H140.4C140.4 42.7 140.7 42.9 141.3 42.9C141.6 42.9 141.9 42.9 142.2 42.8V43.4C141.9 43.5 141.6 43.5 141.3 43.5C140.2 43.5 139.7 43 139.7 42C139.7 41 140.2 40.5 141.1 40.5ZM140.5 41.7H141.8C141.8 41.3 141.6 41.1 141.2 41.1C140.7 41.1 140.5 41.3 140.5 41.7Z" fill="#0084D9"/>
<path d="M144.3 43.5V40.5H144.9L145 40.9C145.3 40.6 145.5 40.5 145.8 40.5V41.1C145.5 41.1 145.3 41.2 145.1 41.4V43.4H144.3V43.5Z" fill="#0084D9"/>
<path d="M147.5 40.5C148.4 40.5 148.8 41 148.8 41.9C148.8 42 148.8 42.1 148.8 42.3H146.8C146.8 42.7 147.1 42.9 147.7 42.9C148 42.9 148.3 42.9 148.6 42.8V43.4C148.3 43.5 148 43.5 147.6 43.5C146.5 43.5 146 43 146 42C146.1 41 146.5 40.5 147.5 40.5ZM146.8 41.7H148.1C148.1 41.3 147.9 41.1 147.5 41.1C147.1 41.1 146.9 41.3 146.8 41.7Z" fill="#0084D9"/>
<path d="M151.5 43.4016C151.3 43.5016 151 43.5016 150.7 43.5016C149.6 43.5016 149.1 43.0016 149.1 42.0016C149.1 41.1016 149.6 40.6016 150.7 40.6016C151 40.6016 151.2 40.6016 151.5 40.7016V41.3016C151.3 41.2016 151 41.2016 150.8 41.2016C150.2 41.2016 149.9 41.5016 149.9 42.0016C149.9 42.6016 150.2 42.9016 150.8 42.9016C151 42.9016 151.3 42.9016 151.5 42.8016V43.4016Z" fill="#0084D9"/>
<path d="M152.8 39.5023V40.0023H152V39.4023H152.8V39.5023ZM152.8 40.5023V43.5023H152V40.5023H152.8Z" fill="#0084D9"/>
<path d="M153.5 39.5H154.2V40.8C154.4 40.6 154.7 40.6 154.9 40.6C155.7 40.6 156.2 41.1 156.2 42C156.2 43 155.7 43.5 154.8 43.5C154.4 43.5 154 43.5 153.5 43.4V39.5ZM154.2 42.8C154.4 42.9 154.6 42.9 154.8 42.9C155.3 42.9 155.5 42.6 155.5 41.9C155.5 41.4 155.3 41.1 154.9 41.1C154.6 41.1 154.4 41.2 154.2 41.3V42.8Z" fill="#0084D9"/>
<path d="M156.7 42C156.7 41 157.2 40.5 158.2 40.5C159.2 40.5 159.7 41 159.7 42C159.7 43 159.2 43.5 158.2 43.5C157.1 43.5 156.7 43 156.7 42ZM158.1 42.9C158.6 42.9 158.8 42.6 158.8 42C158.8 41.4 158.6 41.1 158.1 41.1C157.6 41.1 157.4 41.4 157.4 42C157.4 42.6 157.6 42.9 158.1 42.9Z" fill="#0084D9"/>
<path d="M160.1 43.3V42.7C160.4 42.8 160.8 42.9 161.2 42.9C161.5 42.9 161.7 42.8 161.7 42.6C161.7 42.4 161.6 42.3 161.4 42.3H160.9C160.3 42.3 160 42 160 41.4C160 40.8 160.4 40.5 161.3 40.5C161.7 40.5 162 40.6 162.3 40.7V41.3C162 41.2 161.6 41.1 161.2 41.1C160.8 41.1 160.6 41.2 160.6 41.4C160.6 41.6 160.7 41.7 161 41.7H161.5C162.2 41.7 162.5 42 162.5 42.6C162.5 43.2 162.1 43.5 161.2 43.5C160.8 43.5 160.5 43.4 160.1 43.3Z" fill="#0084D9"/>
<path d="M175.8 39.5984C176.2 39.4984 176.6 39.3984 177 39.3984C178 39.3984 178.5 39.7984 178.5 40.4984C178.5 40.8984 178.3 41.1984 178 41.3984C178.4 41.5984 178.5 41.8984 178.5 42.2984C178.5 43.0984 178 43.4984 177 43.4984C176.6 43.4984 176.2 43.3984 175.8 43.2984V42.5984C176.2 42.6984 176.6 42.7984 177 42.7984C177.5 42.7984 177.8 42.5984 177.8 42.1984C177.8 41.8984 177.6 41.6984 177.3 41.6984H176.3V41.0984H177.3C177.7 41.0984 177.8 40.8984 177.8 40.5984C177.8 40.1984 177.5 40.0984 177 40.0984C176.6 40.0984 176.2 40.1984 175.8 40.2984V39.5984Z" fill="#919CA3"/>
<path d="M179.7 42.7969V43.4969H179V42.7969H179.7Z" fill="#919CA3"/>
<path d="M181.7 43.5V39.5H182.5L183.9 42.6L185.2 39.5H185.9V43.5H185.2V40.7L184.1 43.5H183.5L182.4 40.7V43.5H181.7Z" fill="#919CA3"/>
<path d="M187.9 40.5C188.8 40.5 189.2 41 189.2 41.9C189.2 42 189.2 42.1 189.2 42.3H187.2C187.2 42.7 187.5 42.9 188.1 42.9C188.4 42.9 188.7 42.9 189 42.8V43.4C188.7 43.5 188.4 43.5 188 43.5C186.9 43.5 186.4 43 186.4 42C186.5 41 187 40.5 187.9 40.5ZM187.3 41.7H188.6C188.6 41.3 188.4 41.1 188 41.1C187.5 41.1 187.3 41.3 187.3 41.7Z" fill="#919CA3"/>
<path d="M192.5 43.3C192 43.4 191.6 43.5 191.2 43.5C190.2 43.5 189.8 43 189.8 42C189.8 41.1 190.3 40.6 191.2 40.6C191.4 40.6 191.6 40.6 191.8 40.7V39.5H192.5V43.3ZM191.7 41.3C191.5 41.2 191.4 41.1 191.1 41.1C190.6 41.1 190.4 41.4 190.4 41.9C190.4 42.5 190.6 42.8 191.1 42.8C191.3 42.8 191.5 42.8 191.7 42.7V41.3Z" fill="#919CA3"/>
<path d="M193.9 39.4984V39.9984H193.2V39.3984H193.9V39.4984ZM193.9 40.4984V43.4984H193.2V40.4984H193.9Z" fill="#919CA3"/>
<path d="M194.5 42C194.5 41 195 40.5 196 40.5C197 40.5 197.5 41 197.5 42C197.5 43 197 43.5 196 43.5C195 43.5 194.5 43 194.5 42ZM195.9 42.9C196.4 42.9 196.6 42.6 196.6 42C196.6 41.4 196.4 41.1 195.9 41.1C195.4 41.1 195.2 41.4 195.2 42C195.2 42.6 195.4 42.9 195.9 42.9Z" fill="#919CA3"/>
<path d="M201.8 43.3C201.3 43.4 200.9 43.5 200.5 43.5C199.5 43.5 199.1 43 199.1 42C199.1 41.1 199.6 40.6 200.5 40.6C200.7 40.6 200.9 40.6 201.1 40.7V39.5H201.8V43.3ZM201.1 41.3C200.9 41.2 200.8 41.1 200.5 41.1C200 41.1 199.8 41.4 199.8 41.9C199.8 42.5 200 42.8 200.5 42.8C200.7 42.8 200.9 42.8 201.1 42.7V41.3Z" fill="#919CA3"/>
<path d="M203.8 40.5C204.7 40.5 205.1 41 205.1 41.9C205.1 42 205.1 42.1 205.1 42.3H203.1C203.1 42.7 203.4 42.9 204 42.9C204.3 42.9 204.6 42.9 204.9 42.8V43.4C204.6 43.5 204.3 43.5 203.9 43.5C202.8 43.5 202.3 43 202.3 42C202.4 41 202.9 40.5 203.8 40.5ZM203.1 41.7H204.4C204.4 41.3 204.2 41.1 203.8 41.1C203.4 41.1 203.2 41.3 203.1 41.7Z" fill="#919CA3"/>
<path d="M207 40.6C207.4 40.5 207.8 40.5 208.2 40.5C209.2 40.5 209.7 41 209.7 41.9C209.7 42.9 209.2 43.4 208.3 43.4C208.1 43.4 207.9 43.4 207.7 43.3V44.5H207V40.6ZM207.7 42.7C207.9 42.8 208.1 42.9 208.3 42.9C208.7 42.9 209 42.6 209 42C209 41.5 208.8 41.2 208.3 41.2C208.1 41.2 207.9 41.2 207.8 41.2V42.7H207.7Z" fill="#919CA3"/>
<path d="M210.1 42.5977C210.1 41.9977 210.5 41.6977 211.4 41.6977C211.6 41.6977 211.8 41.6977 212 41.7977V41.5977C212 41.2977 211.8 41.1977 211.4 41.1977C211.1 41.1977 210.7 41.1977 210.3 41.2977V40.6977C210.7 40.5977 211.1 40.5977 211.4 40.5977C212.3 40.5977 212.7 40.8977 212.7 41.5977V43.5977H212.3L212 43.2977C211.7 43.4977 211.5 43.5977 211.2 43.5977C210.5 43.4977 210.1 43.1977 210.1 42.5977ZM211.4 42.1977C211 42.1977 210.9 42.2977 210.9 42.5977C210.9 42.8977 211 42.9977 211.4 42.9977C211.6 42.9977 211.9 42.8977 212.1 42.7977V42.2977C211.8 42.1977 211.6 42.1977 211.4 42.1977Z" fill="#919CA3"/>
<path d="M216.1 43.1984C216.1 44.0984 215.6 44.4984 214.5 44.4984C214.1 44.4984 213.8 44.4984 213.5 44.3984V43.7984C213.8 43.8984 214.1 43.8984 214.5 43.8984C215 43.8984 215.3 43.6984 215.3 43.1984C215.1 43.2984 214.8 43.2984 214.6 43.2984C213.7 43.2984 213.3 42.7984 213.3 41.8984C213.3 40.8984 213.8 40.3984 214.8 40.3984C215.1 40.3984 215.6 40.3984 216 40.4984V43.1984H216.1ZM215.3 41.1984C215.2 41.1984 215 41.0984 214.8 41.0984C214.3 41.0984 214 41.3984 214 41.9984C214 42.4984 214.2 42.7984 214.7 42.7984C214.9 42.7984 215.1 42.6984 215.3 42.5984V41.1984Z" fill="#919CA3"/>
<path d="M216.6 42C216.6 41 217.1 40.5 218.1 40.5C219.1 40.5 219.6 41 219.6 42C219.6 43 219.1 43.5 218.1 43.5C217.1 43.5 216.7 43 216.6 42ZM218.1 42.9C218.6 42.9 218.8 42.6 218.8 42C218.8 41.4 218.6 41.1 218.1 41.1C217.6 41.1 217.4 41.4 217.4 42C217.4 42.6 217.6 42.9 218.1 42.9Z" fill="#919CA3"/>
<path d="M248.8 43.5023H248V42.6023H246V42.0023L247.6 39.4023H248.4L246.8 42.0023H248V40.7023H248.7V42.0023L249.1 42.4023V42.6023H248.7V43.5023H248.8Z" fill="#919CA3"/>
<path d="M250.3 42.8008V43.5008H249.6V42.8008H250.3Z" fill="#919CA3"/>
<path d="M255.5 43.3023C255.2 43.4023 254.8 43.5023 254.3 43.5023C252.9 43.5023 252.1 42.8023 252.1 41.4023C252.1 40.1023 252.8 39.4023 254.3 39.4023C254.7 39.4023 255.1 39.5023 255.5 39.6023V40.3023C255.2 40.1023 254.8 40.1023 254.4 40.1023C253.4 40.1023 253 40.5023 253 41.4023C253 42.4023 253.5 42.8023 254.4 42.8023C254.8 42.8023 255.2 42.7023 255.5 42.6023V43.3023Z" fill="#919CA3"/>
<path d="M256 42C256 41 256.5 40.5 257.5 40.5C258.5 40.5 259 41 259 42C259 43 258.5 43.5 257.5 43.5C256.5 43.5 256 43 256 42ZM257.4 42.9C257.9 42.9 258.1 42.6 258.1 42C258.1 41.4 257.9 41.1 257.4 41.1C256.9 41.1 256.7 41.4 256.7 42C256.7 42.6 256.9 42.9 257.4 42.9Z" fill="#919CA3"/>
<path d="M259.5 43.5V40.5H260.1L260.2 40.9C260.5 40.6 260.8 40.5 261.2 40.5C261.9 40.5 262.2 40.9 262.2 41.6V43.5H261.5V41.6C261.5 41.3 261.3 41.1 261 41.1C260.8 41.1 260.5 41.2 260.3 41.4V43.5H259.5Z" fill="#919CA3"/>
<path d="M262.8 43.5008V40.5008C262.8 39.7008 263.2 39.3008 264.1 39.3008C264.3 39.3008 264.6 39.3008 264.8 39.4008V40.0008C264.6 39.9008 264.4 39.9008 264.2 39.9008C263.8 39.9008 263.6 40.1008 263.6 40.5008H264.5V41.1008H263.6V43.5008H262.8Z" fill="#919CA3"/>
<path d="M265.5 39.5023V40.0023H264.8V39.4023H265.5V39.5023ZM265.5 40.5023V43.5023H264.8V40.5023H265.5Z" fill="#919CA3"/>
<path d="M266.2 43.5V40.5H266.8L266.9 40.9C267.2 40.6 267.4 40.5 267.7 40.5V41.1C267.4 41.1 267.2 41.2 267 41.4V43.4H266.2V43.5Z" fill="#919CA3"/>
<path d="M268.1 43.5V40.5H268.7L268.8 40.9C269.1 40.6 269.4 40.5 269.8 40.5C270.2 40.5 270.4 40.6 270.6 40.9C270.9 40.6 271.2 40.5 271.5 40.5C272.2 40.5 272.5 40.9 272.5 41.6V43.4H271.8V41.5C271.8 41.2 271.7 41 271.4 41C271.2 41 271 41.1 270.8 41.3V43.4H270.1V41.5C270.1 41.2 270 41 269.7 41C269.5 41 269.3 41.1 269.1 41.3V43.4H268.1V43.5Z" fill="#919CA3"/>
<path d="M273 42.6016C273 42.0016 273.4 41.7016 274.3 41.7016C274.5 41.7016 274.7 41.7016 274.9 41.8016V41.6016C274.9 41.3016 274.7 41.2016 274.3 41.2016C274 41.2016 273.6 41.2016 273.2 41.3016V40.7016C273.6 40.6016 274 40.6016 274.3 40.6016C275.2 40.6016 275.6 40.9016 275.6 41.6016V43.6016H275.2L274.9 43.3016C274.6 43.5016 274.4 43.6016 274.1 43.6016C273.4 43.5016 273 43.2016 273 42.6016ZM274.3 42.2016C273.9 42.2016 273.8 42.3016 273.8 42.6016C273.8 42.9016 273.9 43.0016 274.2 43.0016C274.4 43.0016 274.7 42.9016 274.9 42.8016V42.3016C274.7 42.2016 274.5 42.2016 274.3 42.2016Z" fill="#919CA3"/>
<path d="M276.3 43.5V40.5H276.9L277 40.9C277.3 40.6 277.5 40.5 277.8 40.5V41.1C277.5 41.1 277.3 41.2 277.1 41.4V43.4H276.3V43.5Z" fill="#919CA3"/>
<path d="M296.6 39.5H299V40H297.2L297.1 41C297.2 41 297.4 40.9 297.6 40.9C298.6 40.9 299.1 41.3 299.1 42.1C299.1 43 298.6 43.4 297.5 43.4C297.1 43.4 296.7 43.3 296.4 43.2V42.6C296.8 42.7 297.2 42.8 297.6 42.8C298.1 42.8 298.4 42.6 298.4 42.1C298.4 41.7 298.1 41.5 297.6 41.5C297.2 41.5 296.8 41.5 296.4 41.6L296.6 39.5Z" fill="#919CA3"/>
<path d="M300.4 42.7969V43.4969H299.7V42.7969H300.4Z" fill="#919CA3"/>
<path d="M305.6 43.2984C305.3 43.3984 304.9 43.4984 304.4 43.4984C303 43.4984 302.2 42.7984 302.2 41.3984C302.2 40.0984 302.9 39.3984 304.4 39.3984C304.8 39.3984 305.2 39.4984 305.6 39.5984V40.2984C305.3 40.0984 304.9 40.0984 304.5 40.0984C303.5 40.0984 303.1 40.4984 303.1 41.3984C303.1 42.3984 303.6 42.7984 304.5 42.7984C304.9 42.7984 305.3 42.6984 305.6 42.5984V43.2984Z" fill="#919CA3"/>
<path d="M306.1 42C306.1 41 306.6 40.5 307.6 40.5C308.6 40.5 309.1 41 309.1 42C309.1 43 308.6 43.5 307.6 43.5C306.6 43.5 306.1 43 306.1 42ZM307.5 42.9C308 42.9 308.2 42.6 308.2 42C308.2 41.4 308 41.1 307.5 41.1C307 41.1 306.8 41.4 306.8 42C306.8 42.6 307.1 42.9 307.5 42.9Z" fill="#919CA3"/>
<path d="M309.6 43.5V40.5H310.2L310.3 40.9C310.6 40.6 310.9 40.5 311.3 40.5C312 40.5 312.3 40.9 312.3 41.6V43.5H311.6V41.6C311.6 41.3 311.4 41.1 311.1 41.1C310.9 41.1 310.6 41.2 310.4 41.4V43.5H309.6Z" fill="#919CA3"/>
<path d="M313 43.3V42.7C313.3 42.8 313.7 42.9 314.1 42.9C314.4 42.9 314.6 42.8 314.6 42.6C314.6 42.4 314.5 42.3 314.3 42.3H313.8C313.2 42.3 312.9 42 312.9 41.4C312.9 40.8 313.3 40.5 314.2 40.5C314.6 40.5 314.9 40.6 315.2 40.7V41.3C314.9 41.2 314.5 41.1 314.1 41.1C313.7 41.1 313.5 41.2 313.5 41.4C313.5 41.6 313.6 41.7 313.9 41.7H314.4C315.1 41.7 315.4 42 315.4 42.6C315.4 43.2 315 43.5 314.1 43.5C313.7 43.5 313.3 43.4 313 43.3Z" fill="#919CA3"/>
<path d="M315.8 40H316.4L316.5 40.5H317.2V41.1H316.5V42.5C316.5 42.8 316.6 42.9 316.9 42.9H317.2V43.5H316.5C316 43.5 315.8 43.2 315.8 42.7V40Z" fill="#919CA3"/>
<path d="M317.6 42.5977C317.6 41.9977 318 41.6977 318.9 41.6977C319.1 41.6977 319.3 41.6977 319.5 41.7977V41.5977C319.5 41.2977 319.3 41.1977 318.9 41.1977C318.6 41.1977 318.2 41.1977 317.8 41.2977V40.6977C318.2 40.5977 318.6 40.5977 318.9 40.5977C319.8 40.5977 320.2 40.8977 320.2 41.5977V43.5977H319.8L319.5 43.2977C319.2 43.4977 319 43.5977 318.7 43.5977C317.9 43.4977 317.6 43.1977 317.6 42.5977ZM318.9 42.1977C318.5 42.1977 318.4 42.2977 318.4 42.5977C318.4 42.8977 318.6 42.9977 318.9 42.9977C319.1 42.9977 319.4 42.8977 319.6 42.7977V42.2977C319.3 42.1977 319.1 42.1977 318.9 42.1977Z" fill="#919CA3"/>
<path d="M320.9 43.5V40.5H321.5L321.6 40.9C321.9 40.6 322.2 40.5 322.6 40.5C323.3 40.5 323.6 40.9 323.6 41.6V43.5H322.9V41.6C322.9 41.3 322.7 41.1 322.4 41.1C322.2 41.1 321.9 41.2 321.7 41.4V43.5H320.9Z" fill="#919CA3"/>
<path d="M326.5 43.3977C326.3 43.4977 326 43.4977 325.7 43.4977C324.7 43.4977 324.1 42.9977 324.1 41.9977C324.1 41.0977 324.6 40.5977 325.7 40.5977C326 40.5977 326.2 40.5977 326.5 40.6977V41.2977C326.3 41.1977 326 41.1977 325.8 41.1977C325.2 41.1977 324.9 41.4977 324.9 41.9977C324.9 42.5977 325.2 42.8977 325.8 42.8977C326 42.8977 326.3 42.8977 326.5 42.7977V43.3977Z" fill="#919CA3"/>
<path d="M327.7 39.4984V39.9984H327V39.3984H327.7V39.4984ZM327.7 40.4984V43.4984H327V40.4984H327.7Z" fill="#919CA3"/>
<path d="M328.3 42.5977C328.3 41.9977 328.7 41.6977 329.6 41.6977C329.8 41.6977 330 41.6977 330.2 41.7977V41.5977C330.2 41.2977 330 41.1977 329.6 41.1977C329.3 41.1977 328.9 41.1977 328.5 41.2977V40.6977C328.9 40.5977 329.3 40.5977 329.6 40.5977C330.5 40.5977 330.9 40.8977 330.9 41.5977V43.5977H330.5L330.2 43.2977C329.9 43.4977 329.7 43.5977 329.4 43.5977C328.6 43.4977 328.3 43.1977 328.3 42.5977ZM329.6 42.1977C329.2 42.1977 329.1 42.2977 329.1 42.5977C329.1 42.8977 329.3 42.9977 329.5 42.9977C329.7 42.9977 330 42.8977 330.2 42.7977V42.2977C330 42.1977 329.8 42.1977 329.6 42.1977Z" fill="#919CA3"/>
<path d="M67.3998 53.0008C69.388 53.0008 70.9998 51.389 70.9998 49.4008C70.9998 47.4126 69.388 45.8008 67.3998 45.8008C65.4116 45.8008 63.7998 47.4126 63.7998 49.4008C63.7998 51.389 65.4116 53.0008 67.3998 53.0008Z" fill="#D0DEE8"/>
<path d="M67.3998 51.0008C68.2835 51.0008 68.9998 50.2844 68.9998 49.4008C68.9998 48.5171 68.2835 47.8008 67.3998 47.8008C66.5161 47.8008 65.7998 48.5171 65.7998 49.4008C65.7998 50.2844 66.5161 51.0008 67.3998 51.0008Z" fill="#0084D9"/>
<path d="M131.7 53.0008C133.688 53.0008 135.3 51.389 135.3 49.4008C135.3 47.4126 133.688 45.8008 131.7 45.8008C129.712 45.8008 128.1 47.4126 128.1 49.4008C128.1 51.389 129.712 53.0008 131.7 53.0008Z" fill="#D0DEE8"/>
<path d="M131.7 51.0008C132.584 51.0008 133.3 50.2844 133.3 49.4008C133.3 48.5171 132.584 47.8008 131.7 47.8008C130.816 47.8008 130.1 48.5171 130.1 49.4008C130.1 50.2844 130.816 51.0008 131.7 51.0008Z" fill="#0084D9"/>
<path d="M195.9 53.0008C197.888 53.0008 199.5 51.389 199.5 49.4008C199.5 47.4126 197.888 45.8008 195.9 45.8008C193.912 45.8008 192.3 47.4126 192.3 49.4008C192.3 51.389 193.912 53.0008 195.9 53.0008Z" fill="#D0DEE8"/>
<path d="M195.9 51.0008C196.783 51.0008 197.5 50.2844 197.5 49.4008C197.5 48.5171 196.783 47.8008 195.9 47.8008C195.016 47.8008 194.3 48.5171 194.3 49.4008C194.3 50.2844 195.016 51.0008 195.9 51.0008Z" fill="#94BBD5"/>
<path d="M260.1 53.0008C262.088 53.0008 263.7 51.389 263.7 49.4008C263.7 47.4126 262.088 45.8008 260.1 45.8008C258.112 45.8008 256.5 47.4126 256.5 49.4008C256.5 51.389 258.112 53.0008 260.1 53.0008Z" fill="#D0DEE8"/>
<path d="M260.1 51.0008C260.984 51.0008 261.7 50.2844 261.7 49.4008C261.7 48.5171 260.984 47.8008 260.1 47.8008C259.216 47.8008 258.5 48.5171 258.5 49.4008C258.5 50.2844 259.216 51.0008 260.1 51.0008Z" fill="#94BBD5"/>
<path d="M324.3 53.0008C326.288 53.0008 327.9 51.389 327.9 49.4008C327.9 47.4126 326.288 45.8008 324.3 45.8008C322.312 45.8008 320.7 47.4126 320.7 49.4008C320.7 51.389 322.312 53.0008 324.3 53.0008Z" fill="#D0DEE8"/>
<path d="M324.3 51.0008C325.184 51.0008 325.9 50.2844 325.9 49.4008C325.9 48.5171 325.184 47.8008 324.3 47.8008C323.417 47.8008 322.7 48.5171 322.7 49.4008C322.7 50.2844 323.417 51.0008 324.3 51.0008Z" fill="#94BBD5"/>
<path d="M131.7 48.5H67.2002V50.4H131.7V48.5Z" fill="#0084D9"/>
<path d="M318.7 127.901H182.4C180.4 127.901 178.9 126.301 178.9 124.401V117.801C178.9 115.801 180.5 114.301 182.4 114.301H318.7C320.7 114.301 322.2 115.901 322.2 117.801V124.401C322.3 126.301 320.7 127.901 318.7 127.901Z" fill="white"/>
<path d="M318.7 128.299H182.4C180.2 128.299 178.4 126.499 178.4 124.299V117.699C178.4 115.499 180.2 113.699 182.4 113.699H318.7C320.9 113.699 322.7 115.499 322.7 117.699V124.299C322.7 126.499 320.9 128.299 318.7 128.299ZM182.4 114.599C180.7 114.599 179.3 115.999 179.3 117.699V124.299C179.3 125.999 180.7 127.399 182.4 127.399H318.7C320.4 127.399 321.8 125.999 321.8 124.299V117.699C321.8 115.999 320.4 114.599 318.7 114.599H182.4Z" fill="#EFEFEE"/>
<path d="M94 202.5H69.5V220.2H94V202.5Z" fill="#F8F8F5"/>
<path d="M94.3002 220.502H69.2002V202.102H94.3002V220.502ZM69.8002 219.802H93.6002V202.802H69.8002V219.802Z" fill="#ECECEB"/>
<path d="M71.1001 82.2031V87.8031H70.1001V82.2031H71.1001Z" fill="#0084D9"/>
<path d="M72.2002 87.8031V83.7031H73.0002L73.1002 84.3031C73.5002 83.9031 73.9002 83.7031 74.5002 83.7031C75.5002 83.7031 76.0002 84.2031 76.0002 85.2031V87.8031H75.0002V85.2031C75.0002 84.7031 74.8002 84.5031 74.3002 84.5031C74.0002 84.5031 73.6002 84.6031 73.3002 84.9031V87.8031H72.2002Z" fill="#0084D9"/>
<path d="M80.7003 87.5008C80.7003 88.7008 80.0003 89.3008 78.5003 89.3008C78.0003 89.3008 77.5003 89.2008 77.1003 89.1008V88.3008C77.5003 88.4008 78.0003 88.5008 78.5003 88.5008C79.3003 88.5008 79.6003 88.2008 79.6003 87.6008C79.3003 87.7008 79.0003 87.8008 78.6003 87.8008C77.4003 87.8008 76.8003 87.1008 76.8003 85.8008C76.8003 84.4008 77.5003 83.8008 79.0003 83.8008C79.5003 83.8008 80.1003 83.9008 80.7003 84.0008V87.5008ZM79.6003 84.6008C79.4003 84.5008 79.2003 84.5008 78.9003 84.5008C78.2003 84.5008 77.8003 84.9008 77.8003 85.7008C77.8003 86.5008 78.1003 86.9008 78.7003 86.9008C79.0003 86.9008 79.3003 86.8008 79.6003 86.7008V84.6008Z" fill="#0084D9"/>
<path d="M81.7002 87.8031V83.7031H82.5002L82.6002 84.2031C83.0002 83.8031 83.3002 83.7031 83.8002 83.7031V84.5031C83.4002 84.5031 83.1002 84.7031 82.8002 85.0031V87.8031H81.7002Z" fill="#0084D9"/>
<path d="M86.1002 83.7031C87.4002 83.7031 88.0002 84.3031 88.0002 85.6031C88.0002 85.8031 88.0002 85.9031 88.0002 86.1031H85.2002C85.2002 86.7031 85.6002 87.0031 86.5002 87.0031C86.9002 87.0031 87.3002 87.0031 87.8002 86.9031V87.7031C87.4002 87.8031 87.0002 87.8031 86.5002 87.8031C85.0002 87.8031 84.2002 87.1031 84.2002 85.7031C84.2002 84.4031 84.8002 83.7031 86.1002 83.7031ZM85.2002 85.4031H87.0002C87.0002 84.8031 86.7002 84.5031 86.1002 84.5031C85.6002 84.5031 85.3002 84.8031 85.2002 85.4031Z" fill="#0084D9"/>
<path d="M88.8 87.6031V86.7031C89.3 86.9031 89.8 87.0031 90.4 87.0031C90.9 87.0031 91.1 86.9031 91.1 86.6031C91.1 86.3031 90.9 86.2031 90.6 86.2031H89.8C89 86.2031 88.5 85.8031 88.5 85.0031C88.5 84.1031 89.1 83.7031 90.3 83.7031C90.8 83.7031 91.3 83.8031 91.8 83.9031V84.8031C91.3 84.6031 90.8 84.5031 90.3 84.5031C89.7 84.5031 89.5 84.6031 89.5 84.9031C89.5 85.2031 89.7 85.3031 90 85.3031H90.7C91.6 85.3031 92.1 85.7031 92.1 86.5031C92.1 87.4031 91.5 87.8031 90.3 87.8031C89.8 87.9031 89.2 87.8031 88.8 87.6031Z" fill="#0084D9"/>
<path d="M92.6001 86.5031C92.6001 85.7031 93.2001 85.3031 94.4001 85.3031C94.7001 85.3031 95.0001 85.3031 95.2001 85.4031V85.1031C95.2001 84.7031 94.9001 84.5031 94.4001 84.5031C93.9001 84.5031 93.4001 84.6031 92.9001 84.7031V83.9031C93.5001 83.8031 94.0001 83.7031 94.4001 83.7031C95.6001 83.7031 96.2001 84.2031 96.2001 85.1031V87.9031H95.6001L95.2001 87.5031C94.8001 87.7031 94.4001 87.9031 94.0001 87.9031C93.1001 87.8031 92.6001 87.4031 92.6001 86.5031ZM94.4001 86.0031C93.9001 86.0031 93.6001 86.2031 93.6001 86.5031C93.6001 86.9031 93.8001 87.1031 94.2001 87.1031C94.5001 87.1031 94.9001 87.0031 95.2001 86.8031V86.1031C95.0001 86.0031 94.7001 86.0031 94.4001 86.0031Z" fill="#0084D9"/>
<path d="M97.3003 87.8031V83.7031H98.1003L98.2003 84.2031C98.6003 83.8031 98.9003 83.7031 99.4003 83.7031V84.5031C99.0003 84.5031 98.7003 84.7031 98.4003 85.0031V87.8031H97.3003Z" fill="#0084D9"/>
<path d="M105.4 87.6016C104.8 87.8016 104.1 87.8016 103.5 87.8016C102.2 87.8016 101.5 87.1016 101.5 85.6016C101.5 84.3016 102.2 83.6016 103.5 83.6016C103.8 83.6016 104.1 83.7016 104.4 83.8016V82.1016H105.4V87.6016ZM104.4 84.8016C104.2 84.7016 103.9 84.6016 103.6 84.6016C102.9 84.6016 102.6 85.0016 102.6 85.7016C102.6 86.6016 102.9 87.0016 103.6 87.0016C103.9 87.0016 104.1 87.0016 104.4 86.9016V84.8016Z" fill="#0084D9"/>
<path d="M106.2 86.5031C106.2 85.7031 106.8 85.3031 108 85.3031C108.3 85.3031 108.6 85.3031 108.8 85.4031V85.1031C108.8 84.7031 108.5 84.5031 108 84.5031C107.5 84.5031 107 84.6031 106.5 84.7031V83.9031C107.1 83.8031 107.6 83.7031 108 83.7031C109.2 83.7031 109.8 84.2031 109.8 85.1031V87.9031H109.2L108.8 87.5031C108.4 87.7031 108 87.9031 107.6 87.9031C106.7 87.8031 106.2 87.4031 106.2 86.5031ZM108 86.0031C107.5 86.0031 107.2 86.2031 107.2 86.5031C107.2 86.9031 107.4 87.1031 107.8 87.1031C108.1 87.1031 108.5 87.0031 108.8 86.8031V86.1031C108.6 86.0031 108.3 86.0031 108 86.0031Z" fill="#0084D9"/>
<path d="M110.8 83H111.6L111.8 83.7H112.8V84.5H111.9V86.4C111.9 86.8 112.1 87 112.4 87H112.8V87.8H111.9C111.2 87.8 110.9 87.4 110.9 86.7V83H110.8Z" fill="#0084D9"/>
<path d="M113.3 85.8031C113.3 84.4031 114 83.7031 115.4 83.7031C116.8 83.7031 117.5 84.4031 117.5 85.8031C117.5 87.2031 116.8 87.9031 115.4 87.9031C114 87.8031 113.3 87.1031 113.3 85.8031ZM115.4 87.0031C116.1 87.0031 116.4 86.6031 116.4 85.7031C116.4 84.9031 116.1 84.4031 115.4 84.4031C114.7 84.4031 114.4 84.8031 114.4 85.7031C114.4 86.6031 114.7 87.0031 115.4 87.0031Z" fill="#0084D9"/>
<path d="M118.2 87.6031V86.7031C118.7 86.9031 119.2 87.0031 119.8 87.0031C120.3 87.0031 120.5 86.9031 120.5 86.6031C120.5 86.3031 120.3 86.2031 120 86.2031H119.2C118.4 86.2031 117.9 85.8031 117.9 85.0031C117.9 84.1031 118.5 83.7031 119.7 83.7031C120.2 83.7031 120.7 83.8031 121.2 83.9031V84.8031C120.7 84.6031 120.2 84.5031 119.7 84.5031C119.1 84.5031 118.9 84.6031 118.9 84.9031C118.9 85.2031 119.1 85.3031 119.4 85.3031H120.1C121 85.3031 121.5 85.7031 121.5 86.5031C121.5 87.4031 120.9 87.8031 119.7 87.8031C119.2 87.9031 118.7 87.8031 118.2 87.6031Z" fill="#0084D9"/>
<path d="M127.7 87.6016C127.1 87.8016 126.4 87.8016 125.8 87.8016C124.5 87.8016 123.8 87.1016 123.8 85.6016C123.8 84.3016 124.5 83.6016 125.8 83.6016C126.1 83.6016 126.4 83.7016 126.7 83.8016V82.1016H127.7V87.6016ZM126.7 84.8016C126.5 84.7016 126.2 84.6016 125.9 84.6016C125.2 84.6016 124.9 85.0016 124.9 85.7016C124.9 86.6016 125.2 87.0016 125.9 87.0016C126.2 87.0016 126.4 87.0016 126.7 86.9016V84.8016Z" fill="#0084D9"/>
<path d="M130.5 83.7031C131.8 83.7031 132.4 84.3031 132.4 85.6031C132.4 85.8031 132.4 85.9031 132.4 86.1031H129.6C129.6 86.7031 130 87.0031 130.9 87.0031C131.3 87.0031 131.7 87.0031 132.2 86.9031V87.7031C131.8 87.8031 131.4 87.8031 130.9 87.8031C129.4 87.8031 128.6 87.1031 128.6 85.7031C128.5 84.4031 129.2 83.7031 130.5 83.7031ZM129.6 85.4031H131.4C131.4 84.8031 131.1 84.5031 130.5 84.5031C129.9 84.5031 129.6 84.8031 129.6 85.4031Z" fill="#0084D9"/>
<path d="M136 82.2031V87.8031H135V82.2031H136Z" fill="#0084D9"/>
<path d="M137.1 87.8031V83.7031H137.9L138 84.3031C138.4 83.9031 138.8 83.7031 139.4 83.7031C140.4 83.7031 140.9 84.2031 140.9 85.2031V87.8031H139.9V85.2031C139.9 84.7031 139.7 84.5031 139.2 84.5031C138.9 84.5031 138.5 84.6031 138.2 84.9031V87.8031H137.1Z" fill="#0084D9"/>
<path d="M141.9 87.6031V86.7031C142.4 86.9031 142.9 87.0031 143.5 87.0031C143.9 87.0031 144.2 86.9031 144.2 86.6031C144.2 86.3031 144 86.2031 143.7 86.2031H143C142.2 86.2031 141.7 85.8031 141.7 85.0031C141.7 84.1031 142.3 83.7031 143.5 83.7031C144 83.7031 144.5 83.8031 145 83.9031V84.8031C144.5 84.6031 144 84.5031 143.5 84.5031C142.9 84.5031 142.7 84.6031 142.7 84.9031C142.7 85.2031 142.9 85.3031 143.2 85.3031H143.9C144.8 85.3031 145.3 85.7031 145.3 86.5031C145.3 87.4031 144.7 87.8031 143.5 87.8031C142.9 87.9031 142.3 87.8031 141.9 87.6031Z" fill="#0084D9"/>
<path d="M145.9 83H146.7L146.9 83.7H147.9V84.5H147V86.4C147 86.8 147.2 87 147.5 87H147.9V87.8H147C146.3 87.8 146 87.4 146 86.7V83H145.9Z" fill="#0084D9"/>
<path d="M149.6 82.2031V83.0031H148.6V82.2031H149.6ZM149.6 83.7031V87.8031H148.6V83.7031H149.6Z" fill="#0084D9"/>
<path d="M150.5 83H151.3L151.5 83.7H152.5V84.5H151.6V86.4C151.6 86.8 151.8 87 152.1 87H152.5V87.8H151.6C150.9 87.8 150.6 87.4 150.6 86.7V83H150.5Z" fill="#0084D9"/>
<path d="M156.9 83.7031V87.8031H156.1L156 87.3031C155.5 87.7031 155 87.8031 154.5 87.8031C153.7 87.8031 153.2 87.3031 153.2 86.3031V83.7031H154.2V86.3031C154.2 86.8031 154.4 87.0031 154.8 87.0031C155.1 87.0031 155.5 86.9031 155.8 86.6031V83.7031H156.9Z" fill="#0084D9"/>
<path d="M161 87.7016C160.7 87.8016 160.3 87.8016 159.9 87.8016C158.4 87.8016 157.7 87.1016 157.7 85.6016C157.7 84.3016 158.4 83.6016 159.9 83.6016C160.3 83.6016 160.6 83.6016 161 83.7016V84.5016C160.7 84.4016 160.3 84.4016 160 84.4016C159.2 84.4016 158.8 84.8016 158.8 85.6016C158.8 86.5016 159.2 86.9016 160 86.9016C160.3 86.9016 160.6 86.9016 161 86.8016V87.7016Z" fill="#0084D9"/>
<path d="M162.7 82.2031V83.0031H161.7V82.2031H162.7ZM162.7 83.7031V87.8031H161.7V83.7031H162.7Z" fill="#0084D9"/>
<path d="M163.5 85.8031C163.5 84.4031 164.2 83.7031 165.6 83.7031C167 83.7031 167.7 84.4031 167.7 85.8031C167.7 87.2031 167 87.9031 165.6 87.9031C164.2 87.8031 163.5 87.1031 163.5 85.8031ZM165.6 87.0031C166.3 87.0031 166.6 86.6031 166.6 85.7031C166.6 84.9031 166.3 84.4031 165.6 84.4031C164.9 84.4031 164.6 84.8031 164.6 85.7031C164.6 86.6031 164.9 87.0031 165.6 87.0031Z" fill="#0084D9"/>
<path d="M168.4 87.8031V83.7031H169.2L169.3 84.3031C169.7 83.9031 170.1 83.7031 170.7 83.7031C171.7 83.7031 172.2 84.2031 172.2 85.2031V87.8031H171.2V85.2031C171.2 84.7031 171 84.5031 170.5 84.5031C170.2 84.5031 169.8 84.6031 169.5 84.9031V87.8031H168.4Z" fill="#0084D9"/>
<path d="M174.9 83.7031C176.2 83.7031 176.8 84.3031 176.8 85.6031C176.8 85.8031 176.8 85.9031 176.8 86.1031H174C174 86.7031 174.4 87.0031 175.3 87.0031C175.7 87.0031 176.1 87.0031 176.6 86.9031V87.7031C176.2 87.8031 175.8 87.8031 175.3 87.8031C173.8 87.8031 173 87.1031 173 85.7031C173 84.4031 173.6 83.7031 174.9 83.7031ZM174 85.4031H175.8C175.8 84.8031 175.5 84.5031 174.9 84.5031C174.4 84.5031 174.1 84.8031 174 85.4031Z" fill="#0084D9"/>
<path d="M177.6 87.6031V86.7031C178.1 86.9031 178.6 87.0031 179.2 87.0031C179.7 87.0031 179.9 86.9031 179.9 86.6031C179.9 86.3031 179.7 86.2031 179.4 86.2031H178.6C177.8 86.2031 177.3 85.8031 177.3 85.0031C177.3 84.1031 177.9 83.7031 179.1 83.7031C179.6 83.7031 180.1 83.8031 180.6 83.9031V84.8031C180.1 84.6031 179.6 84.5031 179.1 84.5031C178.5 84.5031 178.3 84.6031 178.3 84.9031C178.3 85.2031 178.5 85.3031 178.8 85.3031H179.5C180.4 85.3031 180.9 85.7031 180.9 86.5031C180.9 87.4031 180.3 87.8031 179.1 87.8031C178.6 87.9031 178.1 87.8031 177.6 87.6031Z" fill="#0084D9"/>
<path d="M182.9 83.7031H184L185 86.7031L186 83.7031H187.1L185.4 88.0031C185.1 88.8031 184.6 89.3031 183.9 89.6031L183.4 88.9031C183.9 88.7031 184.2 88.4031 184.4 87.9031L182.9 83.7031Z" fill="#0084D9"/>
<path d="M193.4 82.2031V83.1031H190.6V84.5031H193.3V85.4031H190.6V86.9031H193.5V87.8031H189.6V82.2031H193.4Z" fill="#0084D9"/>
<path d="M194.3 87.8031V83.7031H195.1L195.2 84.3031C195.6 83.9031 196 83.7031 196.5 83.7031C197 83.7031 197.4 83.9031 197.6 84.3031C198 83.9031 198.5 83.7031 198.9 83.7031C199.9 83.7031 200.3 84.2031 200.3 85.3031V87.9031H199.3V85.3031C199.3 84.8031 199.1 84.6031 198.7 84.6031C198.4 84.6031 198.1 84.7031 197.8 85.0031V87.9031H196.8V85.3031C196.8 84.8031 196.6 84.6031 196.2 84.6031C195.9 84.6031 195.6 84.7031 195.3 85.0031V87.9031H194.3V87.8031Z" fill="#0084D9"/>
<path d="M201.4 83.9031C202 83.8031 202.5 83.7031 203.1 83.7031C204.5 83.7031 205.2 84.4031 205.2 85.7031C205.2 87.2031 204.5 87.9031 203.2 87.9031C202.9 87.9031 202.6 87.8031 202.4 87.7031V89.4031H201.4V83.9031ZM202.5 86.8031C202.8 86.9031 203 87.0031 203.3 87.0031C203.9 87.0031 204.2 86.6031 204.2 85.7031C204.2 85.0031 203.9 84.6031 203.2 84.6031C202.9 84.6031 202.7 84.6031 202.5 84.7031V86.8031Z" fill="#0084D9"/>
<path d="M206.1 87.8031V83.7031H206.9L207 84.2031C207.4 83.8031 207.7 83.7031 208.2 83.7031V84.5031C207.8 84.5031 207.5 84.7031 207.2 85.0031V87.8031H206.1Z" fill="#0084D9"/>
<path d="M210.5 83.7031C211.8 83.7031 212.4 84.3031 212.4 85.6031C212.4 85.8031 212.4 85.9031 212.4 86.1031H209.6C209.6 86.7031 210 87.0031 210.9 87.0031C211.3 87.0031 211.7 87.0031 212.2 86.9031V87.7031C211.8 87.8031 211.4 87.8031 210.9 87.8031C209.4 87.8031 208.6 87.1031 208.6 85.7031C208.6 84.4031 209.2 83.7031 210.5 83.7031ZM209.6 85.4031H211.4C211.4 84.8031 211.1 84.5031 210.5 84.5031C210 84.5031 209.7 84.8031 209.6 85.4031Z" fill="#0084D9"/>
<path d="M213.2 87.6031V86.7031C213.7 86.9031 214.2 87.0031 214.8 87.0031C215.3 87.0031 215.5 86.9031 215.5 86.6031C215.5 86.3031 215.3 86.2031 215 86.2031H214.2C213.4 86.2031 212.9 85.8031 212.9 85.0031C212.9 84.1031 213.5 83.7031 214.7 83.7031C215.2 83.7031 215.7 83.8031 216.2 83.9031V84.8031C215.7 84.6031 215.2 84.5031 214.7 84.5031C214.1 84.5031 213.9 84.6031 213.9 84.9031C213.9 85.2031 214.1 85.3031 214.4 85.3031H215.1C216 85.3031 216.5 85.7031 216.5 86.5031C216.5 87.4031 215.9 87.8031 214.7 87.8031C214.2 87.9031 213.6 87.8031 213.2 87.6031Z" fill="#0084D9"/>
<path d="M217 86.5031C217 85.7031 217.6 85.3031 218.8 85.3031C219.1 85.3031 219.4 85.3031 219.6 85.4031V85.1031C219.6 84.7031 219.3 84.5031 218.8 84.5031C218.3 84.5031 217.8 84.6031 217.3 84.7031V83.9031C217.9 83.8031 218.4 83.7031 218.8 83.7031C220 83.7031 220.6 84.2031 220.6 85.1031V87.9031H220L219.6 87.5031C219.2 87.7031 218.8 87.9031 218.4 87.9031C217.5 87.8031 217 87.4031 217 86.5031ZM218.8 86.0031C218.3 86.0031 218 86.2031 218 86.5031C218 86.9031 218.2 87.1031 218.6 87.1031C218.9 87.1031 219.3 87.0031 219.6 86.8031V86.1031C219.4 86.0031 219.1 86.0031 218.8 86.0031Z" fill="#0084D9"/>
<path d="M221.7 87.6031V86.7031C222.2 86.9031 222.7 87.0031 223.3 87.0031C223.8 87.0031 224 86.9031 224 86.6031C224 86.3031 223.8 86.2031 223.5 86.2031H222.7C221.9 86.2031 221.4 85.8031 221.4 85.0031C221.4 84.1031 222 83.7031 223.2 83.7031C223.7 83.7031 224.2 83.8031 224.7 83.9031V84.8031C224.2 84.6031 223.7 84.5031 223.2 84.5031C222.6 84.5031 222.4 84.6031 222.4 84.9031C222.4 85.2031 222.6 85.3031 222.9 85.3031H223.6C224.5 85.3031 225 85.7031 225 86.5031C225 87.4031 224.4 87.8031 223.2 87.8031C222.7 87.9031 222.2 87.8031 221.7 87.6031Z" fill="#0084D9"/>
<path d="M226.8 83.7031V84.7031H225.8V83.7031H226.8ZM226.8 86.9031V87.9031H225.8V86.9031H226.8Z" fill="#0084D9"/>
<path d="M69.9998 176.201V175.301C70.5998 175.501 71.1998 175.601 71.8998 175.601C72.7998 175.601 73.1998 175.301 73.1998 174.701C73.1998 174.301 72.8998 174.101 72.3998 174.101H71.4998C70.2998 174.101 69.7998 173.601 69.7998 172.501C69.7998 171.301 70.5998 170.801 72.2998 170.801C72.8998 170.801 73.4998 170.901 74.0998 171.101V172.001C73.4998 171.801 72.8998 171.701 72.2998 171.701C71.3998 171.701 70.8998 172.001 70.8998 172.501C70.8998 172.901 71.0998 173.101 71.5998 173.101H72.4998C73.6998 173.101 74.2998 173.601 74.2998 174.701C74.2998 175.901 73.4998 176.501 71.9998 176.501C71.1998 176.501 70.5998 176.401 69.9998 176.201Z" fill="#0084D9"/>
<path d="M76.7999 172.301C78.0999 172.301 78.6999 172.901 78.6999 174.201C78.6999 174.401 78.6999 174.501 78.6999 174.701H75.8999C75.8999 175.301 76.2999 175.601 77.1999 175.601C77.5999 175.601 77.9999 175.601 78.4999 175.501V176.301C78.0999 176.401 77.6999 176.401 77.1999 176.401C75.6999 176.401 74.8999 175.701 74.8999 174.301C74.8999 173.001 75.4999 172.301 76.7999 172.301ZM75.8999 174.001H77.6999C77.6999 173.401 77.3999 173.101 76.7999 173.101C76.1999 173.101 75.8999 173.401 75.8999 174.001Z" fill="#0084D9"/>
<path d="M80.5 170.801V176.401H79.5V170.801H80.5Z" fill="#0084D9"/>
<path d="M83.3001 172.301C84.6001 172.301 85.2 172.901 85.2 174.201C85.2 174.401 85.2 174.501 85.2 174.701H82.4C82.4 175.301 82.8 175.601 83.7 175.601C84.1 175.601 84.5 175.601 85 175.501V176.301C84.6 176.401 84.2 176.401 83.7 176.401C82.2 176.401 81.4 175.701 81.4 174.301C81.3 173.001 82.0001 172.301 83.3001 172.301ZM82.4 174.001H84.2C84.2 173.401 83.9001 173.101 83.3001 173.101C82.7001 173.101 82.4 173.401 82.4 174.001Z" fill="#0084D9"/>
<path d="M88.9997 176.299C88.6997 176.399 88.2997 176.399 87.8997 176.399C86.3997 176.399 85.6997 175.699 85.6997 174.199C85.6997 172.899 86.3997 172.199 87.8997 172.199C88.2997 172.199 88.5997 172.199 88.9997 172.299V173.099C88.6997 172.999 88.2997 172.999 87.9997 172.999C87.1997 172.999 86.7997 173.399 86.7997 174.199C86.7997 175.099 87.1997 175.499 87.9997 175.499C88.2997 175.499 88.5997 175.499 88.9997 175.399V176.299Z" fill="#0084D9"/>
<path d="M92.6999 176.299C92.3999 176.399 91.9999 176.399 91.5999 176.399C90.0999 176.399 89.3999 175.699 89.3999 174.199C89.3999 172.899 90.0999 172.199 91.5999 172.199C91.9999 172.199 92.2999 172.199 92.6999 172.299V173.099C92.3999 172.999 91.9999 172.999 91.6999 172.999C90.8999 172.999 90.4999 173.399 90.4999 174.199C90.4999 175.099 90.8999 175.499 91.6999 175.499C91.9999 175.499 92.2999 175.499 92.6999 175.399V176.299Z" fill="#0084D9"/>
<path d="M94.5 170.801V171.601H93.5V170.801H94.5ZM94.5 172.301V176.401H93.5V172.301H94.5Z" fill="#0084D9"/>
<path d="M95.2998 174.401C95.2998 173.001 95.9998 172.301 97.3998 172.301C98.7998 172.301 99.4998 173.001 99.4998 174.401C99.4998 175.801 98.7998 176.501 97.3998 176.501C95.9998 176.501 95.2998 175.801 95.2998 174.401ZM97.2998 175.701C97.9998 175.701 98.2998 175.301 98.2998 174.401C98.2998 173.601 97.9998 173.101 97.2998 173.101C96.5998 173.101 96.2998 173.501 96.2998 174.401C96.2998 175.201 96.5998 175.701 97.2998 175.701Z" fill="#0084D9"/>
<path d="M100.2 176.498V172.398H101L101.1 172.998C101.5 172.598 101.9 172.398 102.5 172.398C103.5 172.398 104 172.898 104 173.898V176.498H103V173.898C103 173.398 102.8 173.198 102.3 173.198C102 173.198 101.6 173.298 101.3 173.598V176.498H100.2Z" fill="#0084D9"/>
<path d="M106.7 172.301C108 172.301 108.6 172.901 108.6 174.201C108.6 174.401 108.6 174.501 108.6 174.701H105.8C105.8 175.301 106.2 175.601 107.1 175.601C107.5 175.601 107.9 175.601 108.4 175.501V176.301C108 176.401 107.6 176.401 107.1 176.401C105.6 176.401 104.8 175.701 104.8 174.301C104.7 173.001 105.4 172.301 106.7 172.301ZM105.8 174.001H107.6C107.6 173.401 107.3 173.101 106.7 173.101C106.1 173.101 105.8 173.401 105.8 174.001Z" fill="#0084D9"/>
<path d="M112.2 170.801V176.401H111.2V170.801H112.2Z" fill="#0084D9"/>
<path d="M112.9 174.401C112.9 173.001 113.6 172.301 115 172.301C116.4 172.301 117.1 173.001 117.1 174.401C117.1 175.801 116.4 176.501 115 176.501C113.6 176.501 113 175.801 112.9 174.401ZM115 175.701C115.7 175.701 116 175.301 116 174.401C116 173.601 115.7 173.101 115 173.101C114.3 173.101 114 173.501 114 174.401C114 175.201 114.3 175.701 115 175.701Z" fill="#0084D9"/>
<path d="M117.8 176.298V175.398C118.3 175.598 118.8 175.698 119.4 175.698C119.9 175.698 120.1 175.598 120.1 175.298C120.1 174.998 119.9 174.898 119.6 174.898H118.8C118 174.898 117.5 174.498 117.5 173.698C117.5 172.798 118.1 172.398 119.3 172.398C119.8 172.398 120.3 172.498 120.8 172.598V173.498C120.3 173.298 119.8 173.198 119.3 173.198C118.7 173.198 118.5 173.298 118.5 173.598C118.5 173.898 118.7 173.998 119 173.998H119.7C120.6 173.998 121.1 174.398 121.1 175.198C121.1 176.098 120.5 176.498 119.3 176.498C118.8 176.498 118.3 176.398 117.8 176.298Z" fill="#0084D9"/>
<path d="M123.7 176.498V172.398H124.5L124.6 172.898C125 172.498 125.3 172.398 125.8 172.398V173.198C125.4 173.198 125.1 173.398 124.8 173.698V176.498H123.7Z" fill="#0084D9"/>
<path d="M128.1 172.301C129.4 172.301 130 172.901 130 174.201C130 174.401 130 174.501 130 174.701H127.2C127.2 175.301 127.6 175.601 128.5 175.601C128.9 175.601 129.3 175.601 129.8 175.501V176.301C129.4 176.401 129 176.401 128.5 176.401C127 176.401 126.2 175.701 126.2 174.301C126.1 173.001 126.8 172.301 128.1 172.301ZM127.2 174.001H129C129 173.401 128.7 173.101 128.1 173.101C127.5 173.101 127.2 173.401 127.2 174.001Z" fill="#0084D9"/>
<path d="M133.8 176.299C133.5 176.399 133.1 176.399 132.7 176.399C131.2 176.399 130.5 175.699 130.5 174.199C130.5 172.899 131.2 172.199 132.7 172.199C133.1 172.199 133.4 172.199 133.8 172.299V173.099C133.5 172.999 133.1 172.999 132.8 172.999C132 172.999 131.6 173.399 131.6 174.199C131.6 175.099 132 175.499 132.8 175.499C133.1 175.499 133.4 175.499 133.8 175.399V176.299Z" fill="#0084D9"/>
<path d="M135.6 170.801V171.601H134.6V170.801H135.6ZM135.6 172.301V176.401H134.6V172.301H135.6Z" fill="#0084D9"/>
<path d="M136.6 170.801H137.6V172.601C137.9 172.401 138.3 172.301 138.6 172.301C139.8 172.301 140.4 173.001 140.4 174.301C140.4 175.701 139.7 176.501 138.4 176.501C137.8 176.501 137.2 176.401 136.6 176.301V170.801ZM137.6 175.501C137.8 175.601 138.1 175.601 138.4 175.601C139 175.601 139.3 175.201 139.3 174.301C139.3 173.601 139 173.201 138.5 173.201C138.1 173.201 137.8 173.301 137.5 173.401V175.501H137.6Z" fill="#0084D9"/>
<path d="M141 174.401C141 173.001 141.7 172.301 143.1 172.301C144.5 172.301 145.2 173.001 145.2 174.401C145.2 175.801 144.5 176.501 143.1 176.501C141.7 176.501 141 175.801 141 174.401ZM143.1 175.701C143.8 175.701 144.1 175.301 144.1 174.401C144.1 173.601 143.8 173.101 143.1 173.101C142.4 173.101 142.1 173.501 142.1 174.401C142 175.201 142.4 175.701 143.1 175.701Z" fill="#0084D9"/>
<path d="M145.9 176.298V175.398C146.4 175.598 146.9 175.698 147.5 175.698C148 175.698 148.2 175.598 148.2 175.298C148.2 174.998 148 174.898 147.7 174.898H147C146.2 174.898 145.7 174.498 145.7 173.698C145.7 172.798 146.3 172.398 147.5 172.398C148 172.398 148.5 172.498 149 172.598V173.498C148.5 173.298 148 173.198 147.5 173.198C146.9 173.198 146.7 173.298 146.7 173.598C146.7 173.898 146.9 173.998 147.2 173.998H147.9C148.8 173.998 149.3 174.398 149.3 175.198C149.3 176.098 148.7 176.498 147.5 176.498C146.9 176.498 146.4 176.398 145.9 176.298Z" fill="#0084D9"/>
<path d="M151.7 172.501C152.2 172.401 152.8 172.301 153.4 172.301C154.8 172.301 155.5 173.001 155.5 174.301C155.5 175.801 154.8 176.501 153.5 176.501C153.2 176.501 152.9 176.401 152.7 176.301V178.001H151.7V172.501ZM152.8 175.401C153.1 175.501 153.3 175.601 153.6 175.601C154.2 175.601 154.5 175.201 154.5 174.301C154.5 173.601 154.2 173.201 153.5 173.201C153.2 173.201 153 173.201 152.8 173.301V175.401Z" fill="#0084D9"/>
<path d="M158.1 172.301C159.4 172.301 160 172.901 160 174.201C160 174.401 160 174.501 160 174.701H157.2C157.2 175.301 157.6 175.601 158.5 175.601C158.9 175.601 159.3 175.601 159.8 175.501V176.301C159.4 176.401 159 176.401 158.5 176.401C157 176.401 156.2 175.701 156.2 174.301C156.2 173.001 156.8 172.301 158.1 172.301ZM157.2 174.001H159C159 173.401 158.7 173.101 158.1 173.101C157.6 173.101 157.3 173.401 157.2 174.001Z" fill="#0084D9"/>
<path d="M160.8 176.498V172.398H161.6L161.7 172.998C162.1 172.598 162.5 172.398 163.1 172.398C164.1 172.398 164.6 172.898 164.6 173.898V176.498H163.6V173.898C163.6 173.398 163.4 173.198 162.9 173.198C162.6 173.198 162.2 173.298 161.9 173.598V176.498H160.8Z" fill="#0084D9"/>
<path d="M169.2 176.199C168.6 176.399 167.9 176.399 167.3 176.399C166 176.399 165.3 175.699 165.3 174.199C165.3 172.899 166 172.199 167.3 172.199C167.6 172.199 167.9 172.299 168.2 172.399V170.699H169.2V176.199ZM168.2 173.399C168 173.299 167.7 173.199 167.4 173.199C166.8 173.199 166.4 173.599 166.4 174.299C166.4 175.199 166.7 175.599 167.4 175.599C167.7 175.599 167.9 175.599 168.2 175.499V173.399Z" fill="#0084D9"/>
<path d="M171.2 170.801V171.601H170.2V170.801H171.2ZM171.2 172.301V176.401H170.2V172.301H171.2Z" fill="#0084D9"/>
<path d="M174 172.301C175.3 172.301 175.9 172.901 175.9 174.201C175.9 174.401 175.9 174.501 175.9 174.701H173.1C173.1 175.301 173.5 175.601 174.4 175.601C174.8 175.601 175.2 175.601 175.7 175.501V176.301C175.3 176.401 174.9 176.401 174.4 176.401C172.9 176.401 172.1 175.701 172.1 174.301C172 173.001 172.7 172.301 174 172.301ZM173.1 174.001H174.9C174.9 173.401 174.6 173.101 174 173.101C173.4 173.101 173.1 173.401 173.1 174.001Z" fill="#0084D9"/>
<path d="M176.7 176.498V172.398H177.5L177.6 172.998C178 172.598 178.4 172.398 179 172.398C180 172.398 180.5 172.898 180.5 173.898V176.498H179.5V173.898C179.5 173.398 179.3 173.198 178.8 173.198C178.5 173.198 178.1 173.298 177.8 173.598V176.498H176.7Z" fill="#0084D9"/>
<path d="M181.4 171.699H182.2L182.4 172.399H183.4V173.199H182.5V175.099C182.5 175.499 182.7 175.699 183 175.699H183.4V176.499H182.5C181.8 176.499 181.5 176.099 181.5 175.399V171.699H181.4Z" fill="#0084D9"/>
<path d="M185.8 172.301C187.1 172.301 187.7 172.901 187.7 174.201C187.7 174.401 187.7 174.501 187.7 174.701H184.9C184.9 175.301 185.3 175.601 186.2 175.601C186.6 175.601 187 175.601 187.5 175.501V176.301C187.1 176.401 186.7 176.401 186.2 176.401C184.7 176.401 183.9 175.701 183.9 174.301C183.8 173.001 184.5 172.301 185.8 172.301ZM184.9 174.001H186.7C186.7 173.401 186.4 173.101 185.8 173.101C185.2 173.101 184.9 173.401 184.9 174.001Z" fill="#0084D9"/>
<path d="M188.5 176.298V175.398C189 175.598 189.5 175.698 190.1 175.698C190.6 175.698 190.8 175.598 190.8 175.298C190.8 174.998 190.6 174.898 190.3 174.898H189.5C188.7 174.898 188.2 174.498 188.2 173.698C188.2 172.798 188.8 172.398 190 172.398C190.5 172.398 191 172.498 191.5 172.598V173.498C191 173.298 190.5 173.198 190 173.198C189.4 173.198 189.2 173.298 189.2 173.598C189.2 173.898 189.4 173.998 189.7 173.998H190.4C191.3 173.998 191.8 174.398 191.8 175.198C191.8 176.098 191.2 176.498 190 176.498C189.4 176.498 188.9 176.398 188.5 176.298Z" fill="#0084D9"/>
<path d="M198 177.998H197V176.298C196.7 176.398 196.4 176.498 196 176.498C194.7 176.498 194.1 175.798 194.1 174.398C194.1 172.998 194.8 172.398 196.3 172.398C196.8 172.398 197.4 172.498 198 172.598V177.998ZM196.9 173.298C196.6 173.198 196.4 173.198 196.2 173.198C195.4 173.198 195.1 173.598 195.1 174.398C195.1 175.198 195.4 175.598 196.1 175.598C196.4 175.598 196.7 175.498 196.9 175.398V173.298Z" fill="#0084D9"/>
<path d="M202.7 172.301V176.401H201.9L201.8 175.901C201.3 176.301 200.8 176.401 200.3 176.401C199.5 176.401 199 175.901 199 174.901V172.301H200V174.901C200 175.401 200.2 175.601 200.6 175.601C200.9 175.601 201.3 175.501 201.6 175.201V172.301H202.7Z" fill="#0084D9"/>
<path d="M205.4 172.301C206.7 172.301 207.3 172.901 207.3 174.201C207.3 174.401 207.3 174.501 207.3 174.701H204.5C204.5 175.301 204.9 175.601 205.8 175.601C206.2 175.601 206.6 175.601 207.1 175.501V176.301C206.7 176.401 206.3 176.401 205.8 176.401C204.3 176.401 203.5 175.701 203.5 174.301C203.5 173.001 204.1 172.301 205.4 172.301ZM204.5 174.001H206.3C206.3 173.401 206 173.101 205.4 173.101C204.9 173.101 204.6 173.401 204.5 174.001Z" fill="#0084D9"/>
<path d="M213.6 176.199C213 176.399 212.3 176.399 211.7 176.399C210.4 176.399 209.7 175.699 209.7 174.199C209.7 172.899 210.4 172.199 211.7 172.199C212 172.199 212.3 172.299 212.6 172.399V170.699H213.6V176.199ZM212.5 173.399C212.3 173.299 212 173.199 211.7 173.199C211 173.199 210.7 173.599 210.7 174.299C210.7 175.199 211 175.599 211.7 175.599C212 175.599 212.2 175.599 212.5 175.499V173.399Z" fill="#0084D9"/>
<path d="M216.3 172.301C217.6 172.301 218.2 172.901 218.2 174.201C218.2 174.401 218.2 174.501 218.2 174.701H215.4C215.4 175.301 215.8 175.601 216.7 175.601C217.1 175.601 217.5 175.601 218 175.501V176.301C217.6 176.401 217.2 176.401 216.7 176.401C215.2 176.401 214.4 175.701 214.4 174.301C214.3 173.001 215 172.301 216.3 172.301ZM215.4 174.001H217.2C217.2 173.401 216.9 173.101 216.3 173.101C215.7 173.101 215.4 173.401 215.4 174.001Z" fill="#0084D9"/>
<path d="M219 176.298V175.398C219.5 175.598 220 175.698 220.6 175.698C221.1 175.698 221.3 175.598 221.3 175.298C221.3 174.998 221.1 174.898 220.8 174.898H220C219.2 174.898 218.7 174.498 218.7 173.698C218.7 172.798 219.3 172.398 220.5 172.398C221 172.398 221.5 172.498 222 172.598V173.498C221.5 173.298 221 173.198 220.5 173.198C219.9 173.198 219.7 173.298 219.7 173.598C219.7 173.898 219.9 173.998 220.2 173.998H220.9C221.8 173.998 222.3 174.398 222.3 175.198C222.3 176.098 221.7 176.498 220.5 176.498C219.9 176.498 219.4 176.398 219 176.298Z" fill="#0084D9"/>
<path d="M224.8 172.301C226.1 172.301 226.7 172.901 226.7 174.201C226.7 174.401 226.7 174.501 226.7 174.701H223.9C223.9 175.301 224.3 175.601 225.2 175.601C225.6 175.601 226 175.601 226.5 175.501V176.301C226.1 176.401 225.7 176.401 225.2 176.401C223.7 176.401 222.9 175.701 222.9 174.301C222.8 173.001 223.5 172.301 224.8 172.301ZM223.9 174.001H225.7C225.7 173.401 225.4 173.101 224.8 173.101C224.2 173.101 223.9 173.401 223.9 174.001Z" fill="#0084D9"/>
<path d="M227.2 175.198C227.2 174.398 227.8 173.998 229 173.998C229.3 173.998 229.6 173.998 229.8 174.098V173.798C229.8 173.398 229.5 173.198 229 173.198C228.5 173.198 228 173.298 227.5 173.398V172.598C228.1 172.498 228.6 172.398 229 172.398C230.2 172.398 230.8 172.898 230.8 173.798V176.598H230.2L229.8 176.198C229.4 176.398 229 176.598 228.6 176.598C227.7 176.498 227.2 175.998 227.2 175.198ZM229 174.698C228.5 174.698 228.2 174.898 228.2 175.198C228.2 175.598 228.4 175.798 228.8 175.798C229.1 175.798 229.5 175.698 229.8 175.498V174.798C229.6 174.698 229.3 174.698 229 174.698Z" fill="#0084D9"/>
<path d="M233.7 172.501C234.2 172.401 234.8 172.301 235.4 172.301C236.8 172.301 237.5 173.001 237.5 174.301C237.5 175.801 236.8 176.501 235.5 176.501C235.2 176.501 234.9 176.401 234.7 176.301V178.001H233.7V172.501ZM234.7 175.401C235 175.501 235.2 175.601 235.5 175.601C236.1 175.601 236.4 175.201 236.4 174.301C236.4 173.601 236.1 173.201 235.4 173.201C235.1 173.201 234.9 173.201 234.7 173.301V175.401Z" fill="#0084D9"/>
<path d="M238.1 175.198C238.1 174.398 238.7 173.998 239.9 173.998C240.2 173.998 240.5 173.998 240.7 174.098V173.798C240.7 173.398 240.4 173.198 239.9 173.198C239.4 173.198 238.9 173.298 238.4 173.398V172.598C239 172.498 239.5 172.398 239.9 172.398C241.1 172.398 241.7 172.898 241.7 173.798V176.598H241.1L240.7 176.198C240.3 176.398 239.9 176.598 239.5 176.598C238.6 176.498 238.1 175.998 238.1 175.198ZM239.9 174.698C239.4 174.698 239.1 174.898 239.1 175.198C239.1 175.598 239.3 175.798 239.7 175.798C240 175.798 240.4 175.698 240.7 175.498V174.798C240.5 174.698 240.2 174.698 239.9 174.698Z" fill="#0084D9"/>
<path d="M246.5 176.2C246.5 177.4 245.8 178 244.3 178C243.8 178 243.3 177.9 242.9 177.8V177C243.3 177.1 243.8 177.2 244.3 177.2C245.1 177.2 245.4 176.9 245.4 176.3C245.1 176.4 244.8 176.5 244.4 176.5C243.2 176.5 242.6 175.8 242.6 174.5C242.6 173.1 243.3 172.5 244.8 172.5C245.3 172.5 245.9 172.6 246.5 172.7V176.2ZM245.5 173.3C245.3 173.2 245.1 173.2 244.8 173.2C244.1 173.2 243.7 173.6 243.7 174.4C243.7 175.2 244 175.6 244.6 175.6C244.9 175.6 245.2 175.5 245.5 175.4V173.3Z" fill="#0084D9"/>
<path d="M247.3 175.198C247.3 174.398 247.9 173.998 249.1 173.998C249.4 173.998 249.7 173.998 249.9 174.098V173.798C249.9 173.398 249.6 173.198 249.1 173.198C248.6 173.198 248.1 173.298 247.6 173.398V172.598C248.2 172.498 248.7 172.398 249.1 172.398C250.3 172.398 250.9 172.898 250.9 173.798V176.598H250.3L249.9 176.198C249.5 176.398 249.1 176.598 248.7 176.598C247.8 176.498 247.3 175.998 247.3 175.198ZM249.1 174.698C248.6 174.698 248.3 174.898 248.3 175.198C248.3 175.598 248.5 175.798 248.9 175.798C249.2 175.798 249.6 175.698 249.9 175.498V174.798C249.7 174.698 249.4 174.698 249.1 174.698Z" fill="#0084D9"/>
<path d="M252 176.498V172.398H252.8L252.9 172.898C253.3 172.498 253.6 172.398 254.1 172.398V173.198C253.7 173.198 253.4 173.398 253.1 173.698V176.498H252Z" fill="#0084D9"/>
<path d="M255.7 172.301V173.301H254.7V172.301H255.7ZM255.7 175.501V176.501H254.7V175.501H255.7Z" fill="#0084D9"/>
<path d="M70.7001 106.401H69.6001L72.0001 100.801H73.1001L75.5001 106.401H74.4001L73.8001 104.901H71.9001L72.3001 104.001H73.4001L72.5001 101.901L70.7001 106.401Z" fill="#828587"/>
<path d="M79.1999 106.299C78.8999 106.399 78.4999 106.399 78.0999 106.399C76.5999 106.399 75.8999 105.699 75.8999 104.199C75.8999 102.899 76.5999 102.199 78.0999 102.199C78.4999 102.199 78.7999 102.199 79.1999 102.299V103.099C78.8999 102.999 78.4999 102.999 78.1999 102.999C77.3999 102.999 76.9999 103.399 76.9999 104.199C76.9999 105.099 77.3999 105.499 78.1999 105.499C78.4999 105.499 78.7999 105.499 79.1999 105.399V106.299Z" fill="#828587"/>
<path d="M79.7002 105.101C79.7002 104.301 80.3002 103.901 81.5002 103.901C81.8002 103.901 82.1002 103.901 82.3002 104.001V103.701C82.3002 103.301 82.0002 103.101 81.5002 103.101C81.0002 103.101 80.5002 103.201 80.0002 103.301V102.501C80.6002 102.401 81.1002 102.301 81.5002 102.301C82.7002 102.301 83.3002 102.801 83.3002 103.701V106.501H82.7002L82.3002 106.101C81.9002 106.301 81.5002 106.501 81.1002 106.501C80.2002 106.401 79.7002 106.001 79.7002 105.101ZM81.5002 104.601C81.0002 104.601 80.7002 104.801 80.7002 105.101C80.7002 105.501 80.9002 105.701 81.3002 105.701C81.6002 105.701 82.0002 105.601 82.3002 105.401V104.701C82.1002 104.601 81.8002 104.601 81.5002 104.601Z" fill="#828587"/>
<path d="M88.1002 106.199C87.5002 106.399 86.8002 106.399 86.2002 106.399C84.9002 106.399 84.2002 105.699 84.2002 104.199C84.2002 102.899 84.9002 102.199 86.2002 102.199C86.5002 102.199 86.8002 102.299 87.1002 102.399V100.699H88.1002V106.199ZM87.0002 103.299C86.8002 103.199 86.5002 103.099 86.2002 103.099C85.5002 103.099 85.2002 103.499 85.2002 104.199C85.2002 105.099 85.5002 105.499 86.2002 105.499C86.5002 105.499 86.7002 105.499 87.0002 105.399V103.299Z" fill="#828587"/>
<path d="M90.7999 102.301C92.0999 102.301 92.6999 102.901 92.6999 104.201C92.6999 104.401 92.6999 104.501 92.6999 104.701H89.8999C89.8999 105.301 90.2999 105.601 91.1999 105.601C91.5999 105.601 91.9999 105.601 92.4999 105.501V106.301C92.0999 106.401 91.6999 106.401 91.1999 106.401C89.6999 106.401 88.8999 105.701 88.8999 104.301C88.8999 102.901 89.4999 102.301 90.7999 102.301ZM89.8999 104.001H91.6999C91.6999 103.401 91.3999 103.101 90.7999 103.101C90.1999 103.101 89.8999 103.401 89.8999 104.001Z" fill="#828587"/>
<path d="M93.5 106.401V102.301H94.3L94.4 102.901C94.8 102.501 95.2 102.301 95.7 102.301C96.2 102.301 96.6 102.501 96.8 102.901C97.2 102.501 97.7 102.301 98.1 102.301C99.1 102.301 99.5 102.801 99.5 103.901V106.501H98.5V103.901C98.5 103.401 98.3 103.201 97.9 103.201C97.6 103.201 97.3 103.301 97 103.601V106.501H96V103.901C96 103.401 95.8 103.201 95.4 103.201C95.1 103.201 94.8 103.301 94.5 103.601V106.501H93.5V106.401Z" fill="#828587"/>
<path d="M101.6 100.801V101.601H100.6V100.801H101.6ZM101.6 102.301V106.401H100.6V102.301H101.6Z" fill="#828587"/>
<path d="M102.4 105.101C102.4 104.301 103 103.901 104.2 103.901C104.5 103.901 104.8 103.901 105 104.001V103.701C105 103.301 104.7 103.101 104.2 103.101C103.7 103.101 103.2 103.201 102.7 103.301V102.501C103.3 102.401 103.8 102.301 104.2 102.301C105.4 102.301 106 102.801 106 103.701V106.501H105.4L105 106.101C104.6 106.301 104.2 106.501 103.8 106.501C102.9 106.401 102.4 106.001 102.4 105.101ZM104.2 104.601C103.7 104.601 103.4 104.801 103.4 105.101C103.4 105.501 103.6 105.701 104 105.701C104.3 105.701 104.7 105.601 105 105.401V104.701C104.8 104.601 104.5 104.601 104.2 104.601Z" fill="#828587"/>
<path d="M112.6 100.801V101.701H111V106.401H110V101.701H108.4V100.801H112.6Z" fill="#828587"/>
<path d="M112.5 106.401V102.301H113.3L113.4 102.801C113.8 102.401 114.1 102.301 114.6 102.301V103.101C114.2 103.101 113.9 103.301 113.6 103.601V106.401H112.5Z" fill="#828587"/>
<path d="M116.3 100.801V101.601H115.3V100.801H116.3ZM116.3 102.301V106.401H115.3V102.301H116.3Z" fill="#828587"/>
<path d="M118.3 100.801V106.401H117.3V100.801H118.3Z" fill="#828587"/>
<path d="M122.3 106.299C122 106.399 121.6 106.399 121.2 106.399C119.7 106.399 119 105.699 119 104.199C119 102.899 119.7 102.199 121.2 102.199C121.6 102.199 121.9 102.199 122.3 102.299V103.099C122 102.999 121.6 102.999 121.3 102.999C120.5 102.999 120.1 103.399 120.1 104.199C120.1 105.099 120.5 105.499 121.3 105.499C121.6 105.499 121.9 105.499 122.3 105.399V106.299Z" fill="#828587"/>
<path d="M124.8 102.301C126.1 102.301 126.7 102.901 126.7 104.201C126.7 104.401 126.7 104.501 126.7 104.701H123.9C123.9 105.301 124.3 105.601 125.2 105.601C125.6 105.601 126 105.601 126.5 105.501V106.301C126.1 106.401 125.7 106.401 125.2 106.401C123.7 106.401 122.9 105.701 122.9 104.301C122.8 102.901 123.5 102.301 124.8 102.301ZM123.9 104.001H125.7C125.7 103.401 125.4 103.101 124.8 103.101C124.2 103.101 123.9 103.401 123.9 104.001Z" fill="#828587"/>
<path d="M70.7001 192.7H69.6001L72.0001 187H73.1001L75.5001 192.6H74.4001L73.8001 191.1H71.9001L72.3001 190.2H73.4001L72.5001 188.1L70.7001 192.7Z" fill="#828587"/>
<path d="M79.1999 192.6C78.8999 192.7 78.4999 192.7 78.0999 192.7C76.5999 192.7 75.8999 192 75.8999 190.5C75.8999 189.2 76.5999 188.5 78.0999 188.5C78.4999 188.5 78.7999 188.5 79.1999 188.6V189.4C78.8999 189.3 78.4999 189.3 78.1999 189.3C77.3999 189.3 76.9999 189.7 76.9999 190.5C76.9999 191.4 77.3999 191.8 78.1999 191.8C78.4999 191.8 78.7999 191.8 79.1999 191.7V192.6Z" fill="#828587"/>
<path d="M79.7002 191.402C79.7002 190.602 80.3002 190.202 81.5002 190.202C81.8002 190.202 82.1002 190.202 82.3002 190.302V190.002C82.3002 189.602 82.0002 189.402 81.5002 189.402C81.0002 189.402 80.5002 189.502 80.0002 189.602V188.802C80.6002 188.702 81.1002 188.602 81.5002 188.602C82.7002 188.602 83.3002 189.102 83.3002 190.002V192.802H82.7002L82.3002 192.402C81.9002 192.602 81.5002 192.802 81.1002 192.802C80.2002 192.702 79.7002 192.302 79.7002 191.402ZM81.5002 190.902C81.0002 190.902 80.7002 191.102 80.7002 191.402C80.7002 191.802 80.9002 192.002 81.3002 192.002C81.6002 192.002 82.0002 191.902 82.3002 191.702V191.002C82.1002 190.902 81.8002 190.902 81.5002 190.902Z" fill="#828587"/>
<path d="M88.1002 192.4C87.5002 192.6 86.8002 192.6 86.2002 192.6C84.9002 192.6 84.2002 191.9 84.2002 190.4C84.2002 189.1 84.9002 188.4 86.2002 188.4C86.5002 188.4 86.8002 188.5 87.1002 188.6V187H88.1002V192.4ZM87.0002 189.6C86.8002 189.5 86.5002 189.4 86.2002 189.4C85.5002 189.4 85.2002 189.8 85.2002 190.5C85.2002 191.4 85.5002 191.8 86.2002 191.8C86.5002 191.8 86.7002 191.8 87.0002 191.7V189.6Z" fill="#828587"/>
<path d="M90.7999 188.5C92.0999 188.5 92.6999 189.1 92.6999 190.4C92.6999 190.6 92.6999 190.7 92.6999 190.9H89.8999C89.8999 191.5 90.2999 191.8 91.1999 191.8C91.5999 191.8 91.9999 191.8 92.4999 191.7V192.5C92.0999 192.6 91.6999 192.6 91.1999 192.6C89.6999 192.6 88.8999 191.9 88.8999 190.5C88.8999 189.2 89.4999 188.5 90.7999 188.5ZM89.8999 190.3H91.6999C91.6999 189.7 91.3999 189.4 90.7999 189.4C90.1999 189.4 89.8999 189.7 89.8999 190.3Z" fill="#828587"/>
<path d="M93.5 192.702V188.602H94.3L94.4 189.202C94.8 188.802 95.2 188.602 95.7 188.602C96.2 188.602 96.6 188.802 96.8 189.202C97.2 188.802 97.7 188.602 98.1 188.602C99.1 188.602 99.5 189.102 99.5 190.202V192.802H98.5V190.202C98.5 189.702 98.3 189.502 97.9 189.502C97.6 189.502 97.3 189.602 97 189.902V192.802H96V190.202C96 189.702 95.8 189.502 95.4 189.502C95.1 189.502 94.8 189.602 94.5 189.902V192.802H93.5V192.702Z" fill="#828587"/>
<path d="M101.6 187V187.8H100.6V187H101.6ZM101.6 188.5V192.6H100.6V188.5H101.6Z" fill="#828587"/>
<path d="M102.4 191.402C102.4 190.602 103 190.202 104.2 190.202C104.5 190.202 104.8 190.202 105 190.302V190.002C105 189.602 104.7 189.402 104.2 189.402C103.7 189.402 103.2 189.502 102.7 189.602V188.802C103.3 188.702 103.8 188.602 104.2 188.602C105.4 188.602 106 189.102 106 190.002V192.802H105.4L105 192.402C104.6 192.602 104.2 192.802 103.8 192.802C102.9 192.702 102.4 192.302 102.4 191.402ZM104.2 190.902C103.7 190.902 103.4 191.102 103.4 191.402C103.4 191.802 103.6 192.002 104 192.002C104.3 192.002 104.7 191.902 105 191.702V191.002C104.8 190.902 104.5 190.902 104.2 190.902Z" fill="#828587"/>
<path d="M112.6 187V187.9H111V192.6H110V187.9H108.4V187H112.6Z" fill="#828587"/>
<path d="M112.5 192.702V188.602H113.3L113.4 189.102C113.8 188.702 114.1 188.602 114.6 188.602V189.402C114.2 189.402 113.9 189.602 113.6 189.902V192.702H112.5Z" fill="#828587"/>
<path d="M116.3 187V187.8H115.3V187H116.3ZM116.3 188.5V192.6H115.3V188.5H116.3Z" fill="#828587"/>
<path d="M118.3 187V192.6H117.3V187H118.3Z" fill="#828587"/>
<path d="M122.3 192.6C122 192.7 121.6 192.7 121.2 192.7C119.7 192.7 119 192 119 190.5C119 189.2 119.7 188.5 121.2 188.5C121.6 188.5 121.9 188.5 122.3 188.6V189.4C122 189.3 121.6 189.3 121.3 189.3C120.5 189.3 120.1 189.7 120.1 190.5C120.1 191.4 120.5 191.8 121.3 191.8C121.6 191.8 121.9 191.8 122.3 191.7V192.6Z" fill="#828587"/>
<path d="M124.8 188.5C126.1 188.5 126.7 189.1 126.7 190.4C126.7 190.6 126.7 190.7 126.7 190.9H123.9C123.9 191.5 124.3 191.8 125.2 191.8C125.6 191.8 126 191.8 126.5 191.7V192.5C126.1 192.6 125.7 192.6 125.2 192.6C123.7 192.6 122.9 191.9 122.9 190.5C122.8 189.2 123.5 188.5 124.8 188.5ZM123.9 190.3H125.7C125.7 189.7 125.4 189.4 124.8 189.4C124.2 189.4 123.9 189.7 123.9 190.3Z" fill="#828587"/>
<path d="M183.4 119.098H186.8V119.798L184.6 123.898H183.6L185.8 119.898H183.3V119.098H183.4Z" fill="#434344"/>
<path d="M187.8 123.898V119.798H187.3V119.398L188.7 118.898V123.798H187.8V123.898Z" fill="#434344"/>
<path d="M189.7 119.098H193.1V119.798L190.9 123.898H189.9L192.1 119.898H189.6V119.098H189.7Z" fill="#434344"/>
<path d="M196.3 123.898H195.4V122.898H193V122.198L195 119.098H196L194.1 122.198H195.5V120.598H196.4V122.198L196.9 122.698V122.898H196.4V123.898H196.3Z" fill="#434344"/>
<path d="M197.7 123.898V119.798H197.2V119.398L198.6 118.898V123.798H197.7V123.898Z" fill="#434344"/>
<path d="M199.8 119.098H202.7V119.798H200.6L200.5 120.998C200.6 120.998 200.8 120.898 201.1 120.898C202.3 120.898 202.9 121.398 202.9 122.398C202.9 123.398 202.3 123.898 201 123.898C200.6 123.898 200.1 123.798 199.7 123.698V122.998C200.1 123.198 200.6 123.198 201.1 123.198C201.7 123.198 202.1 122.898 202.1 122.398C202.1 121.898 201.8 121.598 201.2 121.598C200.7 121.598 200.2 121.698 199.8 121.798V119.098Z" fill="#434344"/>
<path d="M207.1 120.998C207.1 122.198 206.3 123.298 204.8 124.098L204.4 123.398C205.2 122.998 205.7 122.598 206 122.098C205.7 122.198 205.5 122.298 205.2 122.298C204 122.298 203.4 121.798 203.4 120.798C203.4 119.698 204 119.198 205.3 119.198C206.5 119.098 207.1 119.698 207.1 120.998ZM205.3 119.798C204.6 119.798 204.3 120.098 204.3 120.698C204.3 121.198 204.6 121.498 205.2 121.498C205.5 121.498 205.9 121.398 206.2 121.298C206.2 121.198 206.3 121.098 206.3 120.898C206.2 120.198 205.9 119.798 205.3 119.798Z" fill="#434344"/>
<path d="M211.3 120.998C211.3 122.198 210.5 123.298 209 124.098L208.6 123.398C209.4 122.998 209.9 122.598 210.2 122.098C209.9 122.198 209.7 122.298 209.4 122.298C208.2 122.298 207.6 121.798 207.6 120.798C207.6 119.698 208.2 119.198 209.5 119.198C210.7 119.098 211.3 119.698 211.3 120.998ZM209.5 119.798C208.8 119.798 208.5 120.098 208.5 120.698C208.5 121.198 208.8 121.498 209.4 121.498C209.7 121.498 210.1 121.398 210.4 121.298C210.4 121.198 210.5 121.098 210.5 120.898C210.5 120.198 210.2 119.798 209.5 119.798Z" fill="#434344"/>
<path d="M266.1 240.5V239.7C266.6 239.9 267.1 240 267.7 240C268.4 240 268.8 239.8 268.8 239.3C268.8 238.9 268.6 238.8 268.1 238.8H267.3C266.3 238.8 265.8 238.4 265.8 237.5C265.8 236.5 266.5 236 267.9 236C268.4 236 268.9 236.1 269.4 236.2V237C268.9 236.8 268.4 236.7 267.9 236.7C267.1 236.7 266.7 236.9 266.7 237.4C266.7 237.8 266.9 237.9 267.3 237.9H268.1C269.1 237.9 269.7 238.3 269.7 239.2C269.7 240.2 269 240.7 267.7 240.7C267.1 240.8 266.6 240.7 266.1 240.5Z" fill="#434344"/>
<path d="M271 240.698H270L272.4 235.898H273.4L271 240.698Z" fill="#434344"/>
<path d="M275.9 240.699V236.599H275.4V236.199L276.8 235.699V240.599H275.9V240.699Z" fill="#434344"/>
<path d="M277.7 236.098C278.1 235.998 278.6 235.898 279.1 235.898C280.3 235.898 280.9 236.298 280.9 237.198C280.9 237.698 280.7 238.098 280.3 238.298C280.7 238.498 280.9 238.898 280.9 239.398C280.9 240.298 280.3 240.798 279.1 240.798C278.6 240.798 278.1 240.698 277.7 240.598V239.798C278.1 239.998 278.6 239.998 279.1 239.998C279.7 239.998 280 239.798 280 239.298C280 238.898 279.8 238.698 279.4 238.698H278.2V237.898H279.4C279.8 237.898 280.1 237.698 280.1 237.298C280.1 236.898 279.8 236.698 279.2 236.698C278.7 236.698 278.2 236.798 277.8 236.898V236.098H277.7Z" fill="#434344"/>
<path d="M281.4 238.298C281.4 236.698 282.1 235.898 283.5 235.898C284.9 235.898 285.6 236.698 285.6 238.298C285.6 239.898 284.9 240.698 283.5 240.698C282.1 240.798 281.4 239.998 281.4 238.298ZM283.5 239.998C284.3 239.998 284.7 239.398 284.7 238.298C284.7 237.198 284.3 236.598 283.5 236.598C282.7 236.598 282.3 237.098 282.3 238.298C282.3 239.398 282.7 239.998 283.5 239.998Z" fill="#434344"/>
<path d="M287.2 239.898V240.698H286.3V239.898H287.2Z" fill="#434344"/>
<path d="M287.8 238.298C287.8 236.698 288.5 235.898 289.9 235.898C291.3 235.898 292 236.698 292 238.298C292 239.898 291.3 240.698 289.9 240.698C288.5 240.798 287.8 239.998 287.8 238.298ZM290 239.998C290.8 239.998 291.2 239.398 291.2 238.298C291.2 237.198 290.8 236.598 290 236.598C289.2 236.598 288.8 237.098 288.8 238.298C288.7 239.398 289.1 239.998 290 239.998Z" fill="#434344"/>
<path d="M292.7 238.298C292.7 236.698 293.4 235.898 294.8 235.898C296.2 235.898 296.9 236.698 296.9 238.298C296.9 239.898 296.2 240.698 294.8 240.698C293.4 240.798 292.7 239.998 292.7 238.298ZM294.8 239.998C295.6 239.998 296 239.398 296 238.298C296 237.198 295.6 236.598 294.8 236.598C294 236.598 293.6 237.098 293.6 238.298C293.6 239.398 294 239.998 294.8 239.998Z" fill="#434344"/>
<path d="M74.5999 124.298C74.0999 124.498 73.5999 124.598 72.8999 124.598C70.8999 124.598 69.8999 123.598 69.8999 121.698C69.8999 119.798 70.8999 118.898 72.8999 118.898C73.4999 118.898 74.0999 118.998 74.5999 119.198V120.098C74.0999 119.898 73.5999 119.798 72.9999 119.798C71.5999 119.798 70.9999 120.398 70.9999 121.698C70.9999 123.098 71.6999 123.698 72.9999 123.698C73.5999 123.698 74.0999 123.598 74.5999 123.398V124.298Z" fill="#0084D9"/>
<path d="M75.3999 121.698C75.3999 119.798 76.2999 118.798 78.1999 118.798C80.0999 118.798 80.9999 119.798 80.9999 121.698C80.9999 123.598 80.0999 124.598 78.1999 124.598C76.3999 124.598 75.4999 123.598 75.3999 121.698ZM78.1999 123.698C79.2999 123.698 79.8999 122.998 79.8999 121.698C79.8999 120.398 79.2999 119.798 78.1999 119.798C76.9999 119.798 76.4999 120.398 76.4999 121.698C76.4999 122.998 77.0999 123.698 78.1999 123.698ZM78.1999 117.398H79.4999L78.5999 118.398H77.6999L78.1999 117.398Z" fill="#0084D9"/>
<path d="M82 124.498V118.898H84.2C86.1 118.898 87 119.798 87 121.598C87 123.598 86.1 124.598 84.2 124.598H82V124.498ZM84.2 123.598C85.4 123.598 86 122.898 86 121.498C86 120.298 85.4 119.698 84.2 119.698H83V123.498H84.2V123.598Z" fill="#0084D9"/>
<path d="M88.8999 118.898V124.498H87.8999V118.898H88.8999Z" fill="#0084D9"/>
<path d="M94.5999 124.298C94.0999 124.498 93.5999 124.598 92.8999 124.598C90.8999 124.598 89.8999 123.598 89.8999 121.698C89.8999 119.798 90.8999 118.898 92.8999 118.898C93.4999 118.898 94.0999 118.998 94.5999 119.198V120.098C94.0999 119.898 93.5999 119.798 92.9999 119.798C91.5999 119.798 90.9999 120.398 90.9999 121.698C90.9999 123.098 91.5999 123.698 92.8999 123.698C93.0999 123.698 93.2999 123.698 93.4999 123.598V121.998H94.4999V124.298H94.5999Z" fill="#0084D9"/>
<path d="M95.3999 121.697C95.3999 119.797 96.2999 118.797 98.1999 118.797C100.1 118.797 101 119.797 101 121.697C101 123.597 100.1 124.597 98.1999 124.597C96.3999 124.597 95.4999 123.597 95.3999 121.697ZM98.2999 123.697C99.3999 123.697 99.9999 122.997 99.9999 121.697C99.9999 120.397 99.3999 119.797 98.2999 119.797C97.0999 119.797 96.5999 120.397 96.5999 121.697C96.4999 122.997 97.0999 123.697 98.2999 123.697Z" fill="#0084D9"/>
<path d="M103.8 124.498V118.898H106C107.9 118.898 108.8 119.798 108.8 121.598C108.8 123.598 107.9 124.598 106 124.598H103.8V124.498ZM106 123.598C107.2 123.598 107.8 122.898 107.8 121.498C107.8 120.298 107.2 119.698 106 119.698H104.8V123.498H106V123.598Z" fill="#0084D9"/>
<path d="M113.6 118.898V119.798H110.8V121.198H113.5V122.098H110.8V123.598H113.7V124.498H109.8V118.898H113.6Z" fill="#0084D9"/>
<path d="M117 124.498H115.9L118.3 118.898H119.4L121.8 124.498H120.7L120.1 122.998H118.2L118.6 122.098H119.7L118.8 119.998L117 124.498Z" fill="#0084D9"/>
<path d="M123.6 118.898V123.598H125.8V124.498H122.5V118.898H123.6Z" fill="#0084D9"/>
<path d="M126.8 122.298V118.898H127.8V122.298C127.8 123.198 128.3 123.698 129.2 123.698C130.1 123.698 130.6 123.198 130.6 122.298V118.898H131.6V122.298C131.6 123.798 130.8 124.598 129.2 124.598C127.6 124.598 126.8 123.798 126.8 122.298Z" fill="#0084D9"/>
<path d="M132.9 124.498V118.898H134L135.9 123.198L137.8 118.898H138.8V124.498H137.8V120.598L136.3 124.498H135.4L133.8 120.598V124.498H132.9Z" fill="#0084D9"/>
<path d="M140 124.498V118.898H141L144 122.998V118.898H145V124.498H144L141 120.298V124.498H140Z" fill="#0084D9"/>
<path d="M146 121.697C146 119.797 146.9 118.797 148.8 118.797C150.7 118.797 151.6 119.797 151.6 121.697C151.6 123.597 150.7 124.597 148.8 124.597C147 124.597 146.1 123.597 146 121.697ZM148.8 123.697C149.9 123.697 150.5 122.997 150.5 121.697C150.5 120.397 149.9 119.797 148.8 119.797C147.6 119.797 147.1 120.397 147.1 121.697C147.1 122.997 147.6 123.697 148.8 123.697Z" fill="#0084D9"/>
<path d="M219.9 132.098H175.4V109.898H219.9V132.098ZM177.1 130.298H218.1V111.598H177.1V130.298Z" fill="#FF4200"/>
<path d="M91.0999 250.302H66.8999V228.102H91.0999V250.302ZM68.6999 248.502H89.2999V229.802H68.6999V248.502Z" fill="#FF4200"/>
<path d="M208.5 139.5H183.1V151.9H208.5V139.5Z" fill="#0074BC"/>
<path d="M188.2 147.299V143.699H189.9C190.6 143.699 190.9 143.999 190.9 144.499C190.9 144.899 190.7 145.199 190.2 145.399C190.7 145.499 190.9 145.799 190.9 146.199C190.9 146.899 190.5 147.299 189.8 147.299H188.2ZM189.8 146.799C190.1 146.799 190.2 146.599 190.2 146.299C190.2 145.899 190 145.699 189.5 145.699H189.3V145.299C189.9 145.199 190.1 144.999 190.1 144.599C190.1 144.399 190 144.299 189.7 144.299H188.7V146.699H189.8V146.799Z" fill="white"/>
<path d="M193.9 144.698V147.298H193.4L193.3 146.998C193 147.198 192.7 147.298 192.3 147.298C191.8 147.298 191.5 146.998 191.5 146.298V144.598H192.2V146.298C192.2 146.598 192.3 146.698 192.6 146.698C192.8 146.698 193 146.598 193.3 146.398V144.598H193.9V144.698Z" fill="white"/>
<path d="M194.5 147.198V146.598C194.8 146.698 195.1 146.798 195.5 146.798C195.8 146.798 195.9 146.698 195.9 146.498C195.9 146.298 195.8 146.198 195.6 146.198H195.1C194.6 146.198 194.3 145.898 194.3 145.398C194.3 144.798 194.7 144.598 195.5 144.598C195.8 144.598 196.1 144.698 196.4 144.798V145.398C196.1 145.298 195.8 145.198 195.4 145.198C195 145.198 194.9 145.298 194.9 145.498C194.9 145.698 195 145.798 195.2 145.798H195.6C196.2 145.798 196.5 146.098 196.5 146.598C196.5 147.198 196.1 147.398 195.4 147.398C195.1 147.398 194.8 147.298 194.5 147.198Z" fill="white"/>
<path d="M199 147.299C198.8 147.299 198.6 147.399 198.3 147.399C197.4 147.399 196.9 146.899 196.9 145.999C196.9 145.199 197.4 144.699 198.3 144.699C198.5 144.699 198.8 144.699 199 144.799V145.299C198.8 145.299 198.6 145.199 198.4 145.199C197.9 145.199 197.6 145.399 197.6 145.899C197.6 146.499 197.9 146.699 198.4 146.699C198.6 146.699 198.8 146.699 199 146.599V147.299Z" fill="white"/>
<path d="M199.3 146.499C199.3 145.999 199.7 145.699 200.4 145.699C200.6 145.699 200.8 145.699 200.9 145.799V145.599C200.9 145.399 200.7 145.199 200.4 145.199C200.1 145.199 199.8 145.199 199.4 145.299V144.799C199.8 144.699 200.1 144.699 200.4 144.699C201.2 144.699 201.6 144.999 201.6 145.599V147.399H201.2L201 147.199C200.8 147.399 200.5 147.399 200.2 147.399C199.6 147.299 199.3 147.099 199.3 146.499ZM200.5 146.199C200.2 146.199 200 146.299 200 146.499C200 146.699 200.1 146.899 200.4 146.899C200.6 146.899 200.8 146.799 201 146.699V146.299C200.8 146.199 200.7 146.199 200.5 146.199Z" fill="white"/>
<path d="M202.3 147.299V144.699H202.8L202.9 144.999C203.1 144.799 203.4 144.699 203.6 144.699V145.199C203.4 145.199 203.1 145.299 202.9 145.499V147.299H202.3Z" fill="white"/>
<path d="M98.4 240.699V237.399H98V237.099L99.1 236.699V240.599H98.4V240.699Z" fill="#0084D9"/>
<path d="M100.2 240.699V237.399H99.7998V237.099L100.9 236.699V240.599H100.2V240.699Z" fill="#0084D9"/>
<path d="M102.2 240.701H101.4L103.4 236.801H104.2L102.2 240.701Z" fill="#0084D9"/>
<path d="M104.5 238.801C104.5 237.501 105.1 236.801 106.2 236.801C107.3 236.801 107.9 237.501 107.9 238.801C107.9 240.101 107.3 240.701 106.2 240.701C105.1 240.801 104.5 240.101 104.5 238.801ZM106.2 240.101C106.8 240.101 107.1 239.701 107.1 238.801C107.1 237.901 106.8 237.501 106.2 237.501C105.5 237.501 105.2 237.901 105.2 238.801C105.2 239.701 105.6 240.101 106.2 240.101Z" fill="#0084D9"/>
<path d="M108.4 239.601C108.4 239.201 108.6 238.901 109 238.701C108.7 238.501 108.5 238.201 108.5 237.801C108.5 237.101 109 236.801 109.9 236.801C110.8 236.801 111.3 237.101 111.3 237.801C111.3 238.201 111.1 238.501 110.8 238.701C111.2 238.901 111.4 239.201 111.4 239.601C111.4 240.401 110.9 240.801 109.9 240.801C108.9 240.801 108.4 240.401 108.4 239.601ZM110.7 239.601C110.7 239.201 110.4 239.001 109.9 239.001C109.4 239.001 109.1 239.201 109.1 239.601C109.1 240.001 109.4 240.101 109.9 240.101C110.4 240.101 110.7 240.001 110.7 239.601ZM110.6 237.901C110.6 237.601 110.4 237.501 109.9 237.501C109.4 237.501 109.2 237.601 109.2 237.901C109.2 238.201 109.4 238.401 109.9 238.401C110.3 238.401 110.6 238.201 110.6 237.901Z" fill="#0084D9"/>
<path d="M112.4 240.701H111.6L113.6 236.801H114.4L112.4 240.701Z" fill="#0084D9"/>
<path d="M114.7 240.701V240.201C116 239.301 116.6 238.601 116.6 238.001C116.6 237.601 116.4 237.401 115.9 237.401C115.5 237.401 115.1 237.501 114.8 237.701V237.101C115.1 236.901 115.5 236.801 115.9 236.801C116.8 236.801 117.3 237.201 117.3 237.901C117.3 238.601 116.8 239.301 115.8 240.001H117.3V240.601H114.7V240.701Z" fill="#0084D9"/>
<path d="M117.9 238.801C117.9 237.501 118.5 236.801 119.6 236.801C120.7 236.801 121.3 237.501 121.3 238.801C121.3 240.101 120.7 240.701 119.6 240.701C118.5 240.801 117.9 240.101 117.9 238.801ZM119.6 240.101C120.2 240.101 120.5 239.701 120.5 238.801C120.5 237.901 120.2 237.501 119.6 237.501C118.9 237.501 118.6 237.901 118.6 238.801C118.6 239.701 119 240.101 119.6 240.101Z" fill="#0084D9"/>
<path d="M121.8 240.701V240.201C123.1 239.301 123.7 238.601 123.7 238.001C123.7 237.601 123.5 237.401 123 237.401C122.6 237.401 122.2 237.501 121.9 237.701V237.101C122.2 236.901 122.6 236.801 123 236.801C123.9 236.801 124.4 237.201 124.4 237.901C124.4 238.601 123.9 239.301 122.9 240.001H124.4V240.601H121.8V240.701Z" fill="#0084D9"/>
<path d="M125 240.701V240.201C126.3 239.301 126.9 238.601 126.9 238.001C126.9 237.601 126.7 237.401 126.2 237.401C125.8 237.401 125.4 237.501 125.1 237.701V237.101C125.5 236.901 125.8 236.801 126.2 236.801C127.1 236.801 127.6 237.201 127.6 237.901C127.6 238.601 127.1 239.301 126.1 240.001H127.6V240.601H125V240.701Z" fill="#0084D9"/>
<path d="M174.7 236.101H174V235.301H172.1V234.801L173.7 232.301H174.5L173 234.801H174.1V233.501H174.8V234.801L175.2 235.201V235.401H174.8V236.101H174.7Z" fill="#828587"/>
<path d="M175.9 236.102V232.802H175.5V232.502L176.6 232.102V236.002H175.9V236.102Z" fill="#828587"/>
<path d="M178.7 234.402V235.002H177.4V234.402H178.7Z" fill="#828587"/>
<path d="M179.6 236.102V232.802H179.2V232.502L180.3 232.102V236.002H179.6V236.102Z" fill="#828587"/>
<path d="M184 233.702C184 234.702 183.4 235.502 182.1 236.202L181.8 235.602C182.4 235.302 182.8 235.002 183.1 234.502C182.9 234.602 182.7 234.602 182.4 234.602C181.5 234.602 181 234.202 181 233.402C181 232.502 181.5 232.102 182.5 232.102C183.6 232.202 184 232.702 184 233.702ZM182.6 232.802C182.1 232.802 181.8 233.002 181.8 233.502C181.8 233.902 182 234.102 182.5 234.102C182.8 234.102 183 234.102 183.3 234.002C183.3 233.902 183.3 233.802 183.3 233.702C183.3 233.102 183.1 232.802 182.6 232.802Z" fill="#828587"/>
<path d="M184.3 232.203H187V232.803L185.3 236.103H184.5L186.3 232.903H184.3V232.203Z" fill="#828587"/>
<path d="M187.5 232.403C187.9 232.303 188.2 232.203 188.6 232.203C189.6 232.203 190 232.603 190 233.303C190 233.703 189.8 234.003 189.5 234.203C189.8 234.403 190 234.603 190 235.103C190 235.803 189.5 236.203 188.6 236.203C188.2 236.203 187.8 236.103 187.5 236.003V235.403C187.9 235.503 188.2 235.603 188.6 235.603C189.1 235.603 189.3 235.403 189.3 235.003C189.3 234.703 189.1 234.503 188.8 234.503H187.9V233.903H188.8C189.1 233.903 189.3 233.703 189.3 233.403C189.3 233.103 189.1 232.903 188.6 232.903C188.2 232.903 187.8 233.003 187.5 233.103V232.403Z" fill="#828587"/>
<path d="M190.4 234.902C190.4 234.502 190.6 234.202 191 234.002C190.7 233.802 190.5 233.502 190.5 233.102C190.5 232.402 191 232.102 191.9 232.102C192.8 232.102 193.3 232.402 193.3 233.102C193.3 233.502 193.1 233.802 192.8 234.002C193.2 234.202 193.4 234.502 193.4 234.902C193.4 235.702 192.9 236.102 191.9 236.102C191 236.102 190.4 235.702 190.4 234.902ZM192.8 235.002C192.8 234.602 192.5 234.402 192 234.402C191.5 234.402 191.2 234.602 191.2 235.002C191.2 235.402 191.5 235.502 192 235.502C192.5 235.502 192.8 235.302 192.8 235.002ZM192.6 233.302C192.6 233.002 192.4 232.902 191.9 232.902C191.4 232.902 191.2 233.002 191.2 233.302C191.2 233.602 191.4 233.802 191.9 233.802C192.4 233.802 192.6 233.602 192.6 233.302Z" fill="#828587"/>
<path d="M194 232.203H196.7V232.803L195 236.103H194.2L196 232.903H194V232.203Z" fill="#828587"/>
<path d="M198.4 233.401C198.8 233.301 199.2 233.301 199.6 233.301C200.6 233.301 201 233.701 201 234.601C201 235.601 200.6 236.101 199.7 236.101C199.5 236.101 199.3 236.101 199.1 236.001V237.201H198.4V233.401ZM199.1 235.301C199.3 235.401 199.5 235.401 199.7 235.401C200.1 235.401 200.3 235.101 200.3 234.501C200.3 234.001 200.1 233.701 199.6 233.701C199.4 233.701 199.2 233.701 199.1 233.701V235.301Z" fill="#828587"/>
<path d="M202.7 233.301C203.6 233.301 204 233.701 204 234.601C204 234.701 204 234.801 204 234.901H202.1C202.1 235.301 202.4 235.501 203 235.501C203.3 235.501 203.6 235.501 203.9 235.401V236.001C203.7 236.101 203.3 236.101 203 236.101C202 236.101 201.5 235.601 201.5 234.701C201.4 233.701 201.9 233.301 202.7 233.301ZM202.1 234.401H203.3C203.3 234.001 203.1 233.801 202.7 233.801C202.4 233.801 202.2 234.001 202.1 234.401Z" fill="#828587"/>
<path d="M204.6 236.101V233.301H205.2L205.3 233.701C205.6 233.401 205.9 233.301 206.2 233.301C206.9 233.301 207.2 233.601 207.2 234.301V236.101H206.5V234.301C206.5 234.001 206.3 233.801 206 233.801C205.8 233.801 205.5 233.901 205.3 234.101V236.101H204.6Z" fill="#828587"/>
<path d="M207.8 235.903V235.303C208.1 235.403 208.5 235.503 208.9 235.503C209.2 235.503 209.4 235.403 209.4 235.203C209.4 235.003 209.3 234.903 209.1 234.903H208.6C208 234.903 207.7 234.603 207.7 234.103C207.7 233.503 208.1 233.203 209 233.203C209.4 233.203 209.7 233.303 210 233.403V234.003C209.7 233.903 209.3 233.803 209 233.803C208.6 233.803 208.4 233.903 208.4 234.103C208.4 234.303 208.5 234.403 208.7 234.403H209.2C209.8 234.403 210.1 234.703 210.1 235.203C210.1 235.803 209.7 236.103 208.9 236.103C208.5 236.103 208.1 236.103 207.8 235.903Z" fill="#828587"/>
<path d="M211.3 232.203V232.803H210.6V232.203H211.3ZM211.3 233.303V236.103H210.6V233.303H211.3Z" fill="#828587"/>
<path d="M211.8 234.701C211.8 233.801 212.3 233.301 213.2 233.301C214.1 233.301 214.6 233.801 214.6 234.701C214.6 235.601 214.1 236.101 213.2 236.101C212.3 236.101 211.8 235.601 211.8 234.701ZM213.2 235.501C213.7 235.501 213.9 235.201 213.9 234.601C213.9 234.001 213.7 233.701 213.2 233.701C212.7 233.701 212.5 234.001 212.5 234.601C212.5 235.201 212.8 235.501 213.2 235.501Z" fill="#828587"/>
<path d="M215.2 236.101V233.301H215.8L215.9 233.701C216.2 233.401 216.5 233.301 216.8 233.301C217.5 233.301 217.8 233.601 217.8 234.301V236.101H217V234.301C217 234.001 216.8 233.801 216.5 233.801C216.3 233.801 216 233.901 215.8 234.101V236.101H215.2Z" fill="#828587"/>
<path d="M219.5 235.201C219.5 234.601 219.9 234.401 220.7 234.401C220.9 234.401 221.1 234.401 221.3 234.501V234.301C221.3 234.001 221.1 233.901 220.8 233.901C220.5 233.901 220.1 233.901 219.8 234.001V233.401C220.2 233.301 220.5 233.301 220.8 233.301C221.6 233.301 222.1 233.601 222.1 234.201V236.101H221.7L221.4 235.801C221.2 236.001 220.9 236.101 220.6 236.101C219.8 236.101 219.5 235.801 219.5 235.201ZM220.7 234.801C220.4 234.801 220.2 234.901 220.2 235.201C220.2 235.501 220.3 235.601 220.6 235.601C220.8 235.601 221.1 235.501 221.3 235.401V234.901C221.1 234.901 220.9 234.801 220.7 234.801Z" fill="#828587"/>
<path d="M222.7 236.101V233.301H223.3L223.4 233.701C223.7 233.401 224 233.301 224.3 233.301C225 233.301 225.3 233.601 225.3 234.301V236.101H224.6V234.301C224.6 234.001 224.4 233.801 224.1 233.801C223.9 233.801 223.6 233.901 223.4 234.101V236.101H222.7Z" fill="#828587"/>
<path d="M172.2 244.9V244.4C173.5 243.5 174.1 242.8 174.1 242.2C174.1 241.8 173.9 241.6 173.4 241.6C173 241.6 172.6 241.7 172.3 241.9V241.3C172.7 241.1 173 241 173.4 241C174.3 241 174.8 241.4 174.8 242.1C174.8 242.8 174.3 243.5 173.3 244.2H174.8V244.8H172.2V244.9Z" fill="#828587"/>
<path d="M175.3 242.898C175.3 241.598 175.9 240.898 177 240.898C178.1 240.898 178.7 241.598 178.7 242.898C178.7 244.198 178.1 244.798 177 244.798C175.9 244.898 175.3 244.198 175.3 242.898ZM177.1 244.298C177.7 244.298 178 243.898 178 242.998C178 242.098 177.7 241.698 177.1 241.698C176.4 241.698 176.1 242.098 176.1 242.998C176.1 243.798 176.4 244.298 177.1 244.298Z" fill="#828587"/>
<path d="M179.3 244.9V244.4C180.6 243.5 181.2 242.8 181.2 242.2C181.2 241.8 181 241.6 180.5 241.6C180.1 241.6 179.7 241.7 179.4 241.9V241.3C179.8 241.1 180.1 241 180.5 241C181.4 241 181.9 241.4 181.9 242.1C181.9 242.8 181.4 243.5 180.4 244.2H181.9V244.8H179.3V244.9Z" fill="#828587"/>
<path d="M182.4 244.9V244.4C183.7 243.5 184.3 242.8 184.3 242.2C184.3 241.8 184.1 241.6 183.6 241.6C183.2 241.6 182.8 241.7 182.5 241.9V241.3C182.9 241.1 183.2 241 183.6 241C184.5 241 185 241.4 185 242.1C185 242.8 184.5 243.5 183.5 244.2H185V244.8H182.4V244.9Z" fill="#828587"/>
<path d="M186.3 244.199V244.899H185.6V244.199H186.3Z" fill="#828587"/>
<path d="M186.8 242.898C186.8 241.598 187.4 240.898 188.5 240.898C189.6 240.898 190.2 241.598 190.2 242.898C190.2 244.198 189.6 244.798 188.5 244.798C187.4 244.898 186.8 244.198 186.8 242.898ZM188.6 244.298C189.2 244.298 189.5 243.898 189.5 242.998C189.5 242.098 189.2 241.698 188.6 241.698C187.9 241.698 187.6 242.098 187.6 242.998C187.6 243.798 187.9 244.298 188.6 244.298Z" fill="#828587"/>
<path d="M190.7 243.698C190.7 243.298 190.9 242.998 191.3 242.798C191 242.598 190.8 242.298 190.8 241.898C190.8 241.198 191.3 240.898 192.2 240.898C193.1 240.898 193.6 241.198 193.6 241.898C193.6 242.298 193.4 242.598 193.1 242.798C193.5 242.998 193.7 243.298 193.7 243.698C193.7 244.498 193.2 244.898 192.2 244.898C191.2 244.898 190.7 244.498 190.7 243.698ZM193 243.698C193 243.298 192.7 243.098 192.2 243.098C191.7 243.098 191.4 243.298 191.4 243.698C191.4 244.098 191.7 244.198 192.2 244.198C192.8 244.298 193 244.098 193 243.698ZM192.9 241.998C192.9 241.698 192.7 241.598 192.2 241.598C191.7 241.598 191.5 241.698 191.5 241.998C191.5 242.298 191.7 242.498 192.2 242.498C192.7 242.498 192.9 242.398 192.9 241.998Z" fill="#828587"/>
<path d="M78.9999 240.302C79.6074 240.302 80.0999 239.809 80.0999 239.202C80.0999 238.594 79.6074 238.102 78.9999 238.102C78.3924 238.102 77.8999 238.594 77.8999 239.202C77.8999 239.809 78.3924 240.302 78.9999 240.302Z" fill="#009100"/>
<path d="M79 242.699C77.1 242.699 75.5 241.099 75.5 239.199C75.5 237.299 77.1 235.699 79 235.699C80.9 235.699 82.5 237.299 82.5 239.199C82.5 241.099 81 242.699 79 242.699ZM79 236.399C77.4 236.399 76.2 237.699 76.2 239.199C76.2 240.699 77.5 241.999 79 241.999C80.5 241.999 81.8 240.699 81.8 239.199C81.8 237.699 80.6 236.399 79 236.399Z" fill="#0084D9"/>
<path d="M315.4 236.801C315.3 236.701 315.3 236.701 315.2 236.701L309.8 236.501C309.6 236.501 309.5 236.601 309.5 236.801C309.5 237.001 309.6 237.101 309.8 237.101L314.9 237.301L313.9 240.401H309.5L308.7 236.001C308.7 235.901 308.6 235.801 308.5 235.801L307.2 235.301C307.1 235.201 306.9 235.301 306.8 235.501C306.7 235.601 306.8 235.801 307 235.901L308.2 236.401L309 240.801C309 240.901 309.1 241.001 309.3 241.001H309.4L309.1 241.901C309.1 242.001 309.1 242.101 309.1 242.101C309.1 242.201 309.2 242.201 309.3 242.201H309.5C309.4 242.301 309.3 242.501 309.3 242.801C309.3 243.301 309.7 243.601 310.1 243.601C310.6 243.601 310.9 243.201 310.9 242.801C310.9 242.601 310.8 242.401 310.7 242.201H312.5C312.4 242.301 312.3 242.501 312.3 242.801C312.3 243.301 312.7 243.601 313.1 243.601C313.5 243.601 313.9 243.201 313.9 242.801C313.9 242.601 313.8 242.401 313.7 242.201H314C314.1 242.201 314.2 242.101 314.2 242.001C314.2 241.901 314.1 241.801 314 241.801H309.5L309.8 241.101H314C314.1 241.101 314.2 241.001 314.3 240.901L315.5 237.201C315.4 237.001 315.4 236.901 315.4 236.801ZM310 243.101C309.8 243.101 309.6 242.901 309.6 242.701C309.6 242.501 309.8 242.301 310 242.301C310.2 242.301 310.4 242.501 310.4 242.701C310.4 242.901 310.2 243.101 310 243.101ZM313.1 243.101C312.9 243.101 312.7 242.901 312.7 242.701C312.7 242.501 312.9 242.301 313.1 242.301C313.3 242.301 313.5 242.501 313.5 242.701C313.5 242.901 313.3 243.101 313.1 243.101Z" fill="#0070BB"/>
<path d="M314.6 246.602H307.5C305.3 246.602 303.5 244.802 303.5 242.602V236.102C303.5 233.902 305.3 232.102 307.5 232.102H314.6C316.8 232.102 318.6 233.902 318.6 236.102V242.602C318.6 244.802 316.8 246.602 314.6 246.602ZM307.5 233.102C305.8 233.102 304.4 234.502 304.4 236.202V242.702C304.4 244.402 305.8 245.802 307.5 245.802H314.6C316.3 245.802 317.7 244.402 317.7 242.702V236.202C317.7 234.502 316.3 233.102 314.6 233.102H307.5Z" fill="#E9F1F7"/>
<path d="M167 202.5H94V220.2H167V202.5Z" fill="#F8F8F5"/>
<path d="M167.3 220.502H93.6001V202.102H167.3V220.502ZM94.3001 219.802H166.6V202.802H94.3001V219.802Z" fill="#ECECEB"/>
<path d="M108.1 209.498V209.998H106.5V210.798H108V211.298H106.5V212.698H105.9V209.398H108.1V209.498Z" fill="#434344"/>
<path d="M110.9 209.498V209.998H109.2V210.798H110.8V211.298H109.2V212.198H110.9V212.698H108.6V209.398H110.9V209.498Z" fill="#434344"/>
<path d="M114.1 212.698C113.8 212.798 113.5 212.898 113.1 212.898C111.9 212.898 111.3 212.298 111.3 211.198C111.3 210.098 111.9 209.598 113.1 209.598C113.5 209.598 113.8 209.698 114.1 209.798V210.398C113.8 210.298 113.5 210.198 113.2 210.198C112.4 210.198 112 210.598 112 211.298C112 212.098 112.4 212.498 113.2 212.498C113.5 212.498 113.8 212.398 114.1 212.298V212.698Z" fill="#434344"/>
<path d="M114.7 212.8V209.5H115.3V210.9H116.9V209.5H117.5V212.8H117V211.4H115.4V212.8H114.7Z" fill="#434344"/>
<path d="M118.6 212.8H118L119.4 209.5H120.1L121.5 212.8H120.8L120.4 211.9H119.3L119.5 211.4H120.2L119.7 210.2L118.6 212.8Z" fill="#434344"/>
<path d="M126.1 209.5L124.6 212.8H124L122.6 209.5H123.3L124.3 212L125.3 209.5H126.1Z" fill="#434344"/>
<path d="M128.7 209.498V209.998H127V210.798H128.6V211.298H127V212.198H128.7V212.698H126.4V209.398H128.7V209.498Z" fill="#434344"/>
<path d="M129.3 212.8V209.5H129.9L131.6 211.9V209.5H132.2V212.8H131.6L129.9 210.3V212.8H129.3Z" fill="#434344"/>
<path d="M135.6 212.698C135.3 212.798 135 212.898 134.6 212.898C133.4 212.898 132.8 212.298 132.8 211.198C132.8 210.098 133.4 209.598 134.6 209.598C135 209.598 135.3 209.698 135.6 209.798V210.398C135.3 210.298 135 210.198 134.7 210.198C133.9 210.198 133.5 210.598 133.5 211.298C133.5 212.098 133.9 212.498 134.7 212.498C135 212.498 135.3 212.398 135.6 212.298V212.698Z" fill="#434344"/>
<path d="M136.8 209.5V212.8H136.2V209.5H136.8Z" fill="#434344"/>
<path d="M137.5 212.8V209.5H138.1L139.2 212L140.3 209.5H140.9V212.8H140.3V210.5L139.4 212.8H138.9L138 210.5V212.8H137.5Z" fill="#434344"/>
<path d="M142.2 209.5V212.8H141.6V209.5H142.2Z" fill="#434344"/>
<path d="M145.2 209.498V209.998H143.5V210.798H145.1V211.298H143.5V212.198H145.2V212.698H142.9V209.398H145.2V209.498Z" fill="#434344"/>
<path d="M145.8 212.8V209.5H146.4L148.1 211.9V209.5H148.7V212.8H148.1L146.4 210.3V212.8H145.8Z" fill="#434344"/>
<path d="M151.6 209.5V210H150.7V212.8H150V210H149.1V209.5H151.6Z" fill="#434344"/>
<path d="M151.8 211.2C151.8 210.1 152.4 209.5 153.5 209.5C154.6 209.5 155.1 210.1 155.1 211.2C155.1 212.3 154.6 212.9 153.5 212.9C152.4 212.8 151.9 212.3 151.8 211.2ZM153.5 212.3C154.2 212.3 154.5 211.9 154.5 211.1C154.5 210.3 154.2 210 153.5 210C152.8 210 152.5 210.4 152.5 211.1C152.5 211.9 152.8 212.3 153.5 212.3Z" fill="#434344"/>
<path d="M234.7 202.5H167V220.2H234.7V202.5Z" fill="#F8F8F5"/>
<path d="M235 220.502H166.6V202.102H235V220.502ZM167.3 219.802H234.3V202.802H167.3V219.802Z" fill="#ECECEB"/>
<path d="M185.7 212.8V209.5H187C188.1 209.5 188.6 210 188.6 211.1C188.6 212.3 188.1 212.8 187 212.8H185.7ZM187 212.3C187.7 212.3 188 211.9 188 211.1C188 210.4 187.7 210.1 187 210.1H186.3V212.3H187Z" fill="#434344"/>
<path d="M189.1 211.2C189.1 210.1 189.7 209.5 190.8 209.5C191.9 209.5 192.4 210.1 192.4 211.2C192.4 212.3 191.9 212.9 190.8 212.9C189.7 212.8 189.1 212.3 189.1 211.2ZM190.7 212.3C191.4 212.3 191.7 211.9 191.7 211.1C191.7 210.3 191.4 210 190.7 210C190 210 189.7 210.4 189.7 211.1C189.7 211.9 190 212.3 190.7 212.3Z" fill="#434344"/>
<path d="M195.6 212.698C195.3 212.798 195 212.898 194.6 212.898C193.4 212.898 192.8 212.298 192.8 211.198C192.8 210.098 193.4 209.598 194.6 209.598C195 209.598 195.3 209.698 195.6 209.798V210.398C195.3 210.298 195 210.198 194.7 210.198C193.9 210.198 193.5 210.598 193.5 211.298C193.5 212.098 193.9 212.498 194.7 212.498C195 212.498 195.3 212.398 195.6 212.298V212.698Z" fill="#434344"/>
<path d="M196.1 211.5V209.5H196.7V211.5C196.7 212 197 212.3 197.5 212.3C198 212.3 198.3 212 198.3 211.5V209.5H198.9V211.5C198.9 212.4 198.4 212.8 197.5 212.8C196.6 212.8 196.1 212.4 196.1 211.5Z" fill="#434344"/>
<path d="M199.7 212.8V209.5H200.3L201.4 212L202.5 209.5H203.1V212.8H202.5V210.5L201.6 212.8H201.1L200.2 210.5V212.8H199.7Z" fill="#434344"/>
<path d="M206.1 209.498V209.998H204.4V210.798H206V211.298H204.4V212.198H206.1V212.698H203.8V209.398H206.1V209.498Z" fill="#434344"/>
<path d="M206.7 212.8V209.5H207.3L209 211.9V209.5H209.6V212.8H209L207.3 210.3V212.8H206.7Z" fill="#434344"/>
<path d="M212.5 209.5V210H211.6V212.8H211V210H210V209.5H212.5Z" fill="#434344"/>
<path d="M212.8 211.2C212.8 210.1 213.4 209.5 214.5 209.5C215.6 209.5 216.1 210.1 216.1 211.2C216.1 212.3 215.6 212.9 214.5 212.9C213.4 212.8 212.8 212.3 212.8 211.2ZM214.4 212.3C215.1 212.3 215.4 211.9 215.4 211.1C215.4 210.3 215.1 210 214.4 210C213.7 210 213.4 210.4 213.4 211.1C213.4 211.9 213.7 212.3 214.4 212.3Z" fill="#434344"/>
<path d="M322.5 202.5H234.7V220.2H322.5V202.5Z" fill="#F8F8F5"/>
<path d="M322.8 220.502H234.3V202.102H322.8V220.502ZM235 219.802H322.2V202.802H235V219.802Z" fill="#ECECEB"/>
<path d="M269.3 209.5V212.8H268.7V209.5H269.3Z" fill="#434344"/>
<path d="M270 212.8V209.5H270.6L271.7 212L272.8 209.5H273.4V212.8H272.8V210.5L271.9 212.8H271.4L270.5 210.5V212.8H270Z" fill="#434344"/>
<path d="M274.1 212.8V209.5H275.6C276.3 209.5 276.6 209.8 276.6 210.4C276.6 211.1 276.1 211.5 275.2 211.6L275.1 211.1C275.7 211 275.9 210.8 275.9 210.4C275.9 210.1 275.8 210 275.5 210H274.7V212.8H274.1Z" fill="#434344"/>
<path d="M276.9 211.2C276.9 210.1 277.5 209.5 278.6 209.5C279.7 209.5 280.2 210.1 280.2 211.2C280.2 212.3 279.7 212.9 278.6 212.9C277.5 212.8 276.9 212.3 276.9 211.2ZM278.6 212.3C279.3 212.3 279.6 211.9 279.6 211.1C279.6 210.3 279.3 210 278.6 210C277.9 210 277.6 210.4 277.6 211.1C277.5 211.9 277.9 212.3 278.6 212.3Z" fill="#434344"/>
<path d="M280.8 212.8V209.5H282.3C283 209.5 283.3 209.8 283.3 210.4C283.3 210.8 283 211.1 282.5 211.4L283.5 212.8H282.7L281.7 211.4V211.1C282.3 211 282.6 210.8 282.6 210.4C282.6 210.2 282.5 210 282.2 210H281.4V212.8H280.8Z" fill="#434344"/>
<path d="M286 209.5V210H285.1V212.8H284.5V210H283.6V209.5H286Z" fill="#434344"/>
<path d="M288.6 209.498V209.998H287V210.798H288.6V211.298H287V212.198H288.7V212.698H286.4V209.398H288.6V209.498Z" fill="#434344"/>
</svg>
