<svg width="392" height="262" viewBox="0 0 392 262" fill="none" xmlns="http://www.w3.org/2000/svg">
<path d="M392 0H0V262H392V0Z" fill="#E3E3E3"/>
<path d="M311.7 25.6992H82.7V261.999H311.7V25.6992Z" fill="#F9F9F9"/>
<path d="M311.7 3.10156H82.7V29.2016H311.7V3.10156Z" fill="white"/>
<path d="M311.7 0H82.7V4.4H311.7V0Z" fill="#005FAB"/>
<path d="M311.7 121.199H82.7V122.899H311.7V121.199Z" fill="#E7E7E7"/>
<path d="M311.7 153.699H82.7V155.399H311.7V153.699Z" fill="#E7E7E7"/>
<path d="M311.7 186.102H82.7V187.802H311.7V186.102Z" fill="#E7E7E7"/>
<path d="M311.7 218.5H82.7V220.2H311.7V218.5Z" fill="#E7E7E7"/>
<path d="M311.7 251H82.7V252.7H311.7V251Z" fill="#E7E7E7"/>
<path d="M289.5 15.3008H105.4V18.5008H289.5V15.3008Z" fill="#D0DEE8"/>
<path d="M105.4 21.8984C108.161 21.8984 110.4 19.6599 110.4 16.8984C110.4 14.137 108.161 11.8984 105.4 11.8984C102.639 11.8984 100.4 14.137 100.4 16.8984C100.4 19.6599 102.639 21.8984 105.4 21.8984Z" fill="#D0DEE8"/>
<path d="M105.4 20.3984C107.333 20.3984 108.9 18.8314 108.9 16.8984C108.9 14.9654 107.333 13.3984 105.4 13.3984C103.467 13.3984 101.9 14.9654 101.9 16.8984C101.9 18.8314 103.467 20.3984 105.4 20.3984Z" fill="#009611"/>
<path d="M151.4 21.8984C154.161 21.8984 156.4 19.6599 156.4 16.8984C156.4 14.137 154.161 11.8984 151.4 11.8984C148.639 11.8984 146.4 14.137 146.4 16.8984C146.4 19.6599 148.639 21.8984 151.4 21.8984Z" fill="#D0DEE8"/>
<path d="M151.4 20.3984C153.333 20.3984 154.9 18.8314 154.9 16.8984C154.9 14.9654 153.333 13.3984 151.4 13.3984C149.467 13.3984 147.9 14.9654 147.9 16.8984C147.9 18.8314 149.467 20.3984 151.4 20.3984Z" fill="#34B7CE"/>
<path d="M197.5 21.8984C200.261 21.8984 202.5 19.6599 202.5 16.8984C202.5 14.137 200.261 11.8984 197.5 11.8984C194.739 11.8984 192.5 14.137 192.5 16.8984C192.5 19.6599 194.739 21.8984 197.5 21.8984Z" fill="#D0DEE8"/>
<path d="M197.5 20.3984C199.433 20.3984 201 18.8314 201 16.8984C201 14.9654 199.433 13.3984 197.5 13.3984C195.567 13.3984 194 14.9654 194 16.8984C194 18.8314 195.567 20.3984 197.5 20.3984Z" fill="#34B7CE"/>
<path d="M243.5 21.8984C246.261 21.8984 248.5 19.6599 248.5 16.8984C248.5 14.137 246.261 11.8984 243.5 11.8984C240.739 11.8984 238.5 14.137 238.5 16.8984C238.5 19.6599 240.739 21.8984 243.5 21.8984Z" fill="#D0DEE8"/>
<path d="M243.5 20.3984C245.433 20.3984 247 18.8314 247 16.8984C247 14.9654 245.433 13.3984 243.5 13.3984C241.567 13.3984 240 14.9654 240 16.8984C240 18.8314 241.567 20.3984 243.5 20.3984Z" fill="#34B7CE"/>
<path d="M289.5 21.8984C292.261 21.8984 294.5 19.6599 294.5 16.8984C294.5 14.137 292.261 11.8984 289.5 11.8984C286.739 11.8984 284.5 14.137 284.5 16.8984C284.5 19.6599 286.739 21.8984 289.5 21.8984Z" fill="#D0DEE8"/>
<path d="M289.5 20.3984C291.433 20.3984 293 18.8314 293 16.8984C293 14.9654 291.433 13.3984 289.5 13.3984C287.567 13.3984 286 14.9654 286 16.8984C286 18.8314 287.567 20.3984 289.5 20.3984Z" fill="#34B7CE"/>
<path d="M88.9 41.7023V36.4023H91.4C92.4 36.4023 92.9 36.8023 92.9 37.6023C92.9 38.2023 92.6 38.6023 91.9 38.9023C92.6 39.0023 93 39.4023 93 40.1023C93 41.2023 92.4 41.7023 91.3 41.7023H88.9ZM91.3 40.8023C91.7 40.8023 92 40.6023 92 40.1023C92 39.5023 91.7 39.3023 91 39.3023H90.7V38.7023C91.5 38.6023 91.9 38.2023 91.9 37.7023C91.9 37.4023 91.7 37.3023 91.3 37.3023H89.8V40.9023H91.3V40.8023Z" fill="#232323"/>
<path d="M97.3 37.8008V41.7008H96.5L96.4 41.2008C95.9 41.5008 95.5 41.7008 95 41.7008C94.2 41.7008 93.8 41.2008 93.8 40.3008V37.8008H94.8V40.3008C94.8 40.7008 95 41.0008 95.4 41.0008C95.7 41.0008 96 40.9008 96.4 40.6008V37.9008H97.3V37.8008ZM95.5 36.3008H96.7L95.8 37.3008H95L95.5 36.3008Z" fill="#232323"/>
<path d="M98.2 41.5008V40.7008C98.6 40.9008 99.1 41.0008 99.7 41.0008C100.1 41.0008 100.3 40.9008 100.3 40.6008C100.3 40.3008 100.2 40.2008 99.9 40.2008H99.2C98.4 40.2008 98 39.8008 98 39.0008C98 38.2008 98.6 37.8008 99.7 37.8008C100.2 37.8008 100.7 37.9008 101.1 38.0008V38.8008C100.7 38.6008 100.2 38.5008 99.7 38.5008C99.2 38.5008 98.9 38.6008 98.9 38.9008C98.9 39.2008 99.1 39.3008 99.4 39.3008H100C100.9 39.3008 101.3 39.7008 101.3 40.5008C101.3 41.3008 100.7 41.7008 99.6 41.7008C99.1 41.7008 98.6 41.6008 98.2 41.5008Z" fill="#232323"/>
<path d="M105.6 43.1008H104.6V41.5008C104.3 41.6008 104 41.7008 103.7 41.7008C102.5 41.7008 101.9 41.0008 101.9 39.7008C101.9 38.4008 102.6 37.8008 103.9 37.8008C104.4 37.8008 105 37.9008 105.6 38.0008V43.1008ZM104.6 38.6008C104.4 38.5008 104.1 38.5008 103.9 38.5008C103.2 38.5008 102.8 38.9008 102.8 39.6008C102.8 40.4008 103.1 40.8008 103.7 40.8008C104 40.8008 104.3 40.7008 104.5 40.6008V38.6008H104.6Z" fill="#232323"/>
<path d="M110 37.8008V41.7008H109.2L109.1 41.2008C108.6 41.5008 108.2 41.7008 107.7 41.7008C106.9 41.7008 106.5 41.2008 106.5 40.3008V37.8008H107.5V40.3008C107.5 40.7008 107.7 41.0008 108.1 41.0008C108.4 41.0008 108.7 40.9008 109.1 40.6008V37.9008H110V37.8008Z" fill="#232323"/>
<path d="M112.6 37.8008C113.8 37.8008 114.4 38.4008 114.4 39.6008C114.4 39.8008 114.4 39.9008 114.4 40.1008H111.8C111.8 40.7008 112.2 40.9008 113 40.9008C113.4 40.9008 113.8 40.9008 114.2 40.8008V41.6008C113.9 41.7008 113.4 41.7008 112.9 41.7008C111.5 41.7008 110.8 41.0008 110.8 39.7008C110.8 38.4008 111.4 37.8008 112.6 37.8008ZM111.8 39.4008H113.5C113.5 38.9008 113.2 38.6008 112.7 38.6008C112.1 38.5008 111.8 38.8008 111.8 39.4008Z" fill="#232323"/>
<path d="M118.6 41.4008C118 41.6008 117.4 41.6008 116.8 41.6008C115.5 41.6008 114.9 40.9008 114.9 39.6008C114.9 38.3008 115.5 37.7008 116.8 37.7008C117.1 37.7008 117.3 37.8008 117.6 37.9008V36.3008H118.6V41.4008ZM117.6 38.8008C117.4 38.7008 117.1 38.6008 116.8 38.6008C116.2 38.6008 115.9 38.9008 115.9 39.6008C115.9 40.4008 116.2 40.8008 116.9 40.8008C117.2 40.8008 117.4 40.8008 117.6 40.7008V38.8008Z" fill="#232323"/>
<path d="M119.4 40.5008C119.4 39.7008 120 39.3008 121.1 39.3008C121.4 39.3008 121.6 39.3008 121.9 39.4008V39.1008C121.9 38.7008 121.6 38.6008 121.1 38.6008C120.7 38.6008 120.2 38.7008 119.7 38.8008V38.0008C120.2 37.9008 120.7 37.8008 121.1 37.8008C122.3 37.8008 122.9 38.2008 122.9 39.1008V41.7008H122.3L121.9 41.3008C121.6 41.5008 121.2 41.7008 120.8 41.7008C119.8 41.7008 119.4 41.3008 119.4 40.5008ZM121.1 40.0008C120.6 40.0008 120.4 40.2008 120.4 40.5008C120.4 40.8008 120.6 41.0008 121 41.0008C121.3 41.0008 121.6 40.9008 121.9 40.7008V40.0008C121.6 40.0008 121.4 40.0008 121.1 40.0008Z" fill="#232323"/>
<path d="M129 41.4008C128.4 41.6008 127.8 41.6008 127.2 41.6008C125.9 41.6008 125.3 40.9008 125.3 39.6008C125.3 38.3008 125.9 37.7008 127.2 37.7008C127.5 37.7008 127.7 37.8008 128 37.9008V36.3008H129V41.4008ZM128 38.8008C127.8 38.7008 127.5 38.6008 127.2 38.6008C126.6 38.6008 126.3 38.9008 126.3 39.6008C126.3 40.4008 126.6 40.8008 127.3 40.8008C127.6 40.8008 127.8 40.8008 128 40.7008V38.8008Z" fill="#232323"/>
<path d="M131.6 37.8008C132.8 37.8008 133.4 38.4008 133.4 39.6008C133.4 39.8008 133.4 39.9008 133.4 40.1008H130.8C130.8 40.7008 131.2 40.9008 132 40.9008C132.4 40.9008 132.8 40.9008 133.2 40.8008V41.6008C132.9 41.7008 132.4 41.7008 131.9 41.7008C130.5 41.7008 129.8 41.0008 129.8 39.7008C129.7 38.4008 130.3 37.8008 131.6 37.8008ZM130.7 39.4008H132.4C132.4 38.9008 132.1 38.6008 131.6 38.6008C131 38.5008 130.7 38.8008 130.7 39.4008Z" fill="#232323"/>
<path d="M136.8 36.3008V37.1008H135.8V36.3008H136.8ZM136.8 37.8008V41.7008H135.8V37.8008H136.8Z" fill="#232323"/>
<path d="M137.7 41.7008V37.8008H138.5L138.6 38.4008C139 38.0008 139.4 37.8008 139.9 37.8008C140.8 37.8008 141.3 38.3008 141.3 39.3008V41.8008H140.3V39.3008C140.3 38.9008 140.1 38.6008 139.7 38.6008C139.4 38.6008 139.1 38.7008 138.8 39.0008V41.7008H137.7Z" fill="#232323"/>
<path d="M142.2 41.5008V40.7008C142.6 40.9008 143.1 41.0008 143.7 41.0008C144.1 41.0008 144.3 40.9008 144.3 40.6008C144.3 40.3008 144.2 40.2008 143.9 40.2008H143.2C142.4 40.2008 142 39.8008 142 39.0008C142 38.2008 142.6 37.8008 143.7 37.8008C144.2 37.8008 144.7 37.9008 145.1 38.0008V38.8008C144.7 38.6008 144.2 38.5008 143.7 38.5008C143.2 38.5008 142.9 38.6008 142.9 38.9008C142.9 39.2008 143.1 39.3008 143.4 39.3008H144C144.9 39.3008 145.3 39.7008 145.3 40.5008C145.3 41.3008 144.7 41.7008 143.6 41.7008C143.1 41.7008 142.6 41.6008 142.2 41.5008Z" fill="#232323"/>
<path d="M146 37.1016H146.7L146.8 37.7016H147.8V38.5016H147V40.3016C147 40.7016 147.2 40.8016 147.5 40.8016H147.9V41.6016H147C146.3 41.6016 146 41.2016 146 40.5016V37.1016Z" fill="#232323"/>
<path d="M149.5 36.3008V37.1008H148.5V36.3008H149.5ZM149.5 37.8008V41.7008H148.5V37.8008H149.5Z" fill="#232323"/>
<path d="M150.4 37.1016H151.1L151.2 37.7016H152.2V38.5016H151.3V40.3016C151.3 40.7016 151.5 40.8016 151.8 40.8016H152.2V41.6016H151.3C150.6 41.6016 150.3 41.2016 150.3 40.5016V37.1016H150.4Z" fill="#232323"/>
<path d="M156.5 37.8008V41.7008H155.7L155.6 41.2008C155.1 41.5008 154.7 41.7008 154.2 41.7008C153.4 41.7008 153 41.2008 153 40.3008V37.8008H154V40.3008C154 40.7008 154.2 41.0008 154.6 41.0008C154.9 41.0008 155.2 40.9008 155.6 40.6008V37.9008H156.5V37.8008Z" fill="#232323"/>
<path d="M160.3 41.6008C160 41.7008 159.6 41.7008 159.3 41.7008C157.9 41.7008 157.2 41.0008 157.2 39.7008C157.2 38.4008 157.9 37.8008 159.3 37.8008C159.6 37.8008 160 37.8008 160.3 37.9008V38.7008C160 38.6008 159.7 38.6008 159.4 38.6008C158.6 38.6008 158.2 39.0008 158.2 39.7008C158.2 40.5008 158.6 41.0008 159.4 41.0008C159.7 41.0008 160 41.0008 160.3 40.9008V41.6008Z" fill="#232323"/>
<path d="M161.9 36.3008V37.1008H160.9V36.3008H161.9ZM161.9 37.8008V41.7008H160.9V37.8008H161.9Z" fill="#232323"/>
<path d="M162.7 39.6992C162.7 38.3992 163.3 37.6992 164.6 37.6992C165.9 37.6992 166.5 38.3992 166.5 39.6992C166.5 40.9992 165.9 41.6992 164.6 41.6992C163.3 41.6992 162.7 40.9992 162.7 39.6992ZM164.6 40.8992C165.2 40.8992 165.6 40.4992 165.6 39.6992C165.6 38.8992 165.3 38.4992 164.6 38.4992C163.9 38.4992 163.6 38.8992 163.6 39.6992C163.7 40.4992 164 40.8992 164.6 40.8992Z" fill="#232323"/>
<path d="M167.3 41.7008V37.8008H168.1L168.2 38.4008C168.6 38.0008 169 37.8008 169.5 37.8008C170.4 37.8008 170.9 38.3008 170.9 39.3008V41.8008H169.9V39.3008C169.9 38.9008 169.7 38.6008 169.3 38.6008C169 38.6008 168.7 38.7008 168.4 39.0008V41.7008H167.3Z" fill="#232323"/>
<path d="M173.5 37.8008C174.7 37.8008 175.3 38.4008 175.3 39.6008C175.3 39.8008 175.3 39.9008 175.3 40.1008H172.7C172.7 40.7008 173.1 40.9008 173.9 40.9008C174.3 40.9008 174.7 40.9008 175.1 40.8008V41.6008C174.8 41.7008 174.3 41.7008 173.8 41.7008C172.4 41.7008 171.7 41.0008 171.7 39.7008C171.6 38.4008 172.3 37.8008 173.5 37.8008ZM172.6 39.4008H174.3C174.3 38.9008 174 38.6008 173.5 38.6008C173 38.5008 172.7 38.8008 172.6 39.4008Z" fill="#232323"/>
<path d="M176 41.5008V40.7008C176.4 40.9008 176.9 41.0008 177.5 41.0008C177.9 41.0008 178.1 40.9008 178.1 40.6008C178.1 40.3008 178 40.2008 177.7 40.2008H177C176.2 40.2008 175.8 39.8008 175.8 39.0008C175.8 38.2008 176.4 37.8008 177.5 37.8008C178 37.8008 178.5 37.9008 178.9 38.0008V38.8008C178.5 38.6008 178 38.5008 177.5 38.5008C177 38.5008 176.7 38.6008 176.7 38.9008C176.7 39.2008 176.9 39.3008 177.2 39.3008H177.8C178.7 39.3008 179.1 39.7008 179.1 40.5008C179.1 41.3008 178.5 41.7008 177.4 41.7008C176.9 41.7008 176.5 41.6008 176 41.5008Z" fill="#232323"/>
<path d="M182.2 41.7023H181.1L183.8 36.4023H184.9L182.2 41.7023Z" fill="#232323"/>
<path d="M188.8 37.8008C190 37.8008 190.6 38.4008 190.6 39.6008C190.6 39.8008 190.6 39.9008 190.6 40.1008H188C188 40.7008 188.4 40.9008 189.2 40.9008C189.6 40.9008 190 40.9008 190.4 40.8008V41.6008C190.1 41.7008 189.6 41.7008 189.1 41.7008C187.7 41.7008 187 41.0008 187 39.7008C187 38.4008 187.6 37.8008 188.8 37.8008ZM188 39.4008H189.7C189.7 38.9008 189.4 38.6008 188.9 38.6008C188.3 38.5008 188 38.8008 188 39.4008Z" fill="#232323"/>
<path d="M191.4 41.7008V37.8008H192.2L192.3 38.4008C192.7 38.0008 193.1 37.8008 193.6 37.8008C194.1 37.8008 194.4 38.0008 194.6 38.3008C195 37.9008 195.4 37.8008 195.9 37.8008C196.8 37.8008 197.3 38.3008 197.3 39.3008V41.7008H196.3V39.2008C196.3 38.8008 196.1 38.5008 195.7 38.5008C195.4 38.5008 195.1 38.6008 194.9 38.9008V41.6008H193.9V39.1008C193.9 38.7008 193.7 38.4008 193.4 38.4008C193.1 38.4008 192.8 38.5008 192.6 38.8008V41.5008H191.4V41.7008Z" fill="#232323"/>
<path d="M198.1 37.8992C198.6 37.7992 199.2 37.6992 199.8 37.6992C201.1 37.6992 201.8 38.2992 201.8 39.5992C201.8 40.9992 201.2 41.6992 199.9 41.6992C199.6 41.6992 199.4 41.5992 199.1 41.4992V43.0992H198.1V37.8992ZM199.1 40.6992C199.3 40.7992 199.6 40.8992 199.9 40.8992C200.5 40.8992 200.8 40.4992 200.8 39.6992C200.8 38.9992 200.5 38.5992 199.8 38.5992C199.5 38.5992 199.3 38.5992 199.1 38.6992V40.6992Z" fill="#232323"/>
<path d="M202.5 41.7008V37.8008H203.3L203.4 38.3008C203.7 38.0008 204.1 37.8008 204.5 37.8008V38.6008C204.1 38.6008 203.8 38.8008 203.5 39.1008V41.8008H202.5V41.7008Z" fill="#232323"/>
<path d="M206.7 37.8008C207.9 37.8008 208.5 38.4008 208.5 39.6008C208.5 39.8008 208.5 39.9008 208.5 40.1008H205.9C205.9 40.7008 206.3 40.9008 207.1 40.9008C207.5 40.9008 207.9 40.9008 208.3 40.8008V41.6008C208 41.7008 207.5 41.7008 207 41.7008C205.6 41.7008 204.9 41.0008 204.9 39.7008C204.8 38.4008 205.5 37.8008 206.7 37.8008ZM205.8 39.4008H207.5C207.5 38.9008 207.2 38.6008 206.7 38.6008C206.2 38.5008 205.9 38.8008 205.8 39.4008Z" fill="#232323"/>
<path d="M209.2 41.5008V40.7008C209.6 40.9008 210.1 41.0008 210.7 41.0008C211.1 41.0008 211.3 40.9008 211.3 40.6008C211.3 40.3008 211.2 40.2008 210.9 40.2008H210.2C209.4 40.2008 209 39.8008 209 39.0008C209 38.2008 209.6 37.8008 210.7 37.8008C211.2 37.8008 211.7 37.9008 212.1 38.0008V38.8008C211.7 38.6008 211.2 38.5008 210.7 38.5008C210.2 38.5008 209.9 38.6008 209.9 38.9008C209.9 39.2008 210.1 39.3008 210.4 39.3008H211C211.9 39.3008 212.3 39.7008 212.3 40.5008C212.3 41.3008 211.7 41.7008 210.6 41.7008C210.1 41.7008 209.7 41.6008 209.2 41.5008Z" fill="#232323"/>
<path d="M212.9 40.5008C212.9 39.7008 213.5 39.3008 214.6 39.3008C214.9 39.3008 215.1 39.3008 215.4 39.4008V39.1008C215.4 38.7008 215.1 38.6008 214.6 38.6008C214.2 38.6008 213.7 38.7008 213.2 38.8008V38.0008C213.7 37.9008 214.2 37.8008 214.6 37.8008C215.8 37.8008 216.4 38.2008 216.4 39.1008V41.7008H215.8L215.4 41.3008C215.1 41.5008 214.7 41.7008 214.3 41.7008C213.3 41.7008 212.9 41.3008 212.9 40.5008ZM214.6 40.0008C214.1 40.0008 213.9 40.2008 213.9 40.5008C213.9 40.8008 214.1 41.0008 214.5 41.0008C214.8 41.0008 215.1 40.9008 215.4 40.7008V40.0008C215.1 40.0008 214.9 40.0008 214.6 40.0008Z" fill="#232323"/>
<path d="M217.3 41.5008V40.7008C217.7 40.9008 218.2 41.0008 218.8 41.0008C219.2 41.0008 219.4 40.9008 219.4 40.6008C219.4 40.3008 219.3 40.2008 219 40.2008H218.3C217.5 40.2008 217.1 39.8008 217.1 39.0008C217.1 38.2008 217.7 37.8008 218.8 37.8008C219.3 37.8008 219.8 37.9008 220.2 38.0008V38.8008C219.8 38.6008 219.3 38.5008 218.8 38.5008C218.3 38.5008 218 38.6008 218 38.9008C218 39.2008 218.2 39.3008 218.5 39.3008H219.1C220 39.3008 220.4 39.7008 220.4 40.5008C220.4 41.3008 219.8 41.7008 218.7 41.7008C218.2 41.7008 217.7 41.6008 217.3 41.5008Z" fill="#232323"/>
<path d="M94.6 140.802H93.6L95.8 135.602H96.8L99.1 140.802H98.1L97.5 139.402H95.8L96.1 138.602H97.2L96.4 136.602L94.6 140.802Z" fill="#232323"/>
<path d="M104 140.602C103.5 140.802 103 140.902 102.5 140.902C100.6 140.902 99.7 140.002 99.7 138.202C99.7 136.502 100.6 135.602 102.5 135.602C103.1 135.602 103.6 135.702 104 135.902V136.802C103.5 136.602 103.1 136.502 102.5 136.502C101.2 136.502 100.6 137.102 100.6 138.202C100.6 139.502 101.2 140.102 102.5 140.102C103 140.102 103.5 140.002 104 139.802V140.602Z" fill="#232323"/>
<path d="M105.4 140.802H104.4L106.6 135.602H107.6L109.9 140.802H108.9L108.3 139.402H106.6L106.9 138.602H108L107.2 136.602L105.4 140.802Z" fill="#232323"/>
<path d="M110.6 140.802V135.602H112.7C114.4 135.602 115.3 136.402 115.3 138.102C115.3 139.902 114.4 140.902 112.7 140.902H110.6V140.802ZM112.7 140.002C113.8 140.002 114.3 139.402 114.3 138.102C114.3 137.002 113.8 136.502 112.7 136.502H111.6V140.102H112.7V140.002Z" fill="#232323"/>
<path d="M119.7 135.602V136.402H117.1V137.702H119.6V138.602H117V140.002H119.7V140.802H116.1V135.602H119.7Z" fill="#232323"/>
<path d="M120.6 140.802V135.602H121.6L123.4 139.602L125.1 135.602H126.1V140.802H125.2V137.202L123.8 140.802H123L121.5 137.202V140.802H120.6Z" fill="#232323"/>
<path d="M128.2 135.602V140.802H127.2V135.602H128.2Z" fill="#232323"/>
<path d="M129.8 140.802H128.8L131 135.602H132L134.3 140.802H133.3L132.7 139.402H131L131.3 138.602H132.4L131.6 136.602L129.8 140.802Z" fill="#232323"/>
<path d="M140.1 135.602V136.402H138.6V140.802H137.6V136.402H136.1V135.602H140.1Z" fill="#232323"/>
<path d="M140.6 140.802V135.602H143C144.1 135.602 144.6 136.102 144.6 137.002C144.6 137.602 144.2 138.202 143.4 138.602L145.1 140.902H143.9L142.3 138.602V138.202C143.2 138.002 143.7 137.702 143.7 137.102C143.7 136.702 143.5 136.502 143 136.502H141.7V140.902H140.6V140.802Z" fill="#232323"/>
<path d="M146.5 135.602V140.802H145.5V135.602H146.5Z" fill="#232323"/>
<path d="M148.5 135.602V140.002H150.6V140.802H147.6V135.602H148.5Z" fill="#232323"/>
<path d="M155.1 140.602C154.6 140.802 154.1 140.902 153.6 140.902C151.7 140.902 150.8 140.002 150.8 138.202C150.8 136.502 151.7 135.602 153.6 135.602C154.2 135.602 154.7 135.702 155.1 135.902V136.802C154.6 136.602 154.2 136.502 153.6 136.502C152.3 136.502 151.7 137.102 151.7 138.202C151.7 139.502 152.3 140.102 153.6 140.102C154.1 140.102 154.6 140.002 155.1 139.802V140.602Z" fill="#232323"/>
<path d="M159.6 135.602V136.402H157V137.702H159.5V138.602H157V140.002H159.7V140.802H156.1V135.602H159.6Z" fill="#232323"/>
<path d="M88.8 117.299V116.399C89.3 116.599 89.9 116.699 90.6 116.699C91.4 116.699 91.8 116.399 91.8 115.899C91.8 115.499 91.5 115.299 91 115.299H90.2C89.1 115.299 88.6 114.799 88.6 113.799C88.6 112.699 89.4 112.199 90.9 112.199C91.5 112.199 92.1 112.299 92.6 112.499V113.399C92.1 113.199 91.5 113.099 90.9 113.099C90 113.099 89.6 113.399 89.6 113.899C89.6 114.299 89.8 114.499 90.3 114.499H91.1C92.3 114.499 92.8 114.999 92.8 115.999C92.8 117.099 92.1 117.699 90.6 117.699C89.9 117.599 89.3 117.499 88.8 117.299Z" fill="#00B7E6"/>
<path d="M95.2 113.598C96.4 113.598 97 114.198 97 115.398C97 115.598 97 115.698 97 115.898H94.4C94.4 116.498 94.8 116.698 95.6 116.698C96 116.698 96.4 116.698 96.8 116.598V117.398C96.5 117.498 96 117.498 95.5 117.498C94.1 117.498 93.4 116.798 93.4 115.498C93.4 114.198 94 113.598 95.2 113.598ZM94.4 115.198H96.1C96.1 114.698 95.8 114.398 95.3 114.398C94.7 114.398 94.4 114.698 94.4 115.198Z" fill="#00B7E6"/>
<path d="M98.7999 112.199V117.499H97.7999V112.199H98.7999Z" fill="#00B7E6"/>
<path d="M101.4 113.598C102.6 113.598 103.2 114.198 103.2 115.398C103.2 115.598 103.2 115.698 103.2 115.898H100.6C100.6 116.498 101 116.698 101.8 116.698C102.2 116.698 102.6 116.698 103 116.598V117.398C102.7 117.498 102.2 117.498 101.7 117.498C100.3 117.498 99.5999 116.798 99.5999 115.498C99.4999 114.198 100.1 113.598 101.4 113.598ZM100.5 115.198H102.2C102.2 114.698 101.9 114.398 101.4 114.398C100.8 114.398 100.6 114.698 100.5 115.198Z" fill="#00B7E6"/>
<path d="M106.8 117.398C106.5 117.498 106.1 117.498 105.8 117.498C104.4 117.498 103.7 116.798 103.7 115.498C103.7 114.198 104.4 113.598 105.8 113.598C106.1 113.598 106.5 113.598 106.8 113.698V114.498C106.5 114.398 106.2 114.398 105.9 114.398C105.1 114.398 104.7 114.798 104.7 115.498C104.7 116.298 105.1 116.798 105.9 116.798C106.2 116.798 106.5 116.798 106.8 116.698V117.398Z" fill="#00B7E6"/>
<path d="M110.3 117.398C110 117.498 109.6 117.498 109.3 117.498C107.9 117.498 107.2 116.798 107.2 115.498C107.2 114.198 107.9 113.598 109.3 113.598C109.6 113.598 110 113.598 110.3 113.698V114.498C110 114.398 109.7 114.398 109.4 114.398C108.6 114.398 108.2 114.798 108.2 115.498C108.2 116.298 108.6 116.798 109.4 116.798C109.7 116.798 110 116.798 110.3 116.698V117.398Z" fill="#00B7E6"/>
<path d="M112 112.199V112.999H111V112.199H112ZM112 113.599V117.499H111V113.599H112Z" fill="#00B7E6"/>
<path d="M112.7 115.598C112.7 114.298 113.3 113.598 114.6 113.598C115.9 113.598 116.5 114.298 116.5 115.598C116.5 116.898 115.9 117.598 114.6 117.598C113.4 117.498 112.7 116.898 112.7 115.598ZM114.7 116.798C115.3 116.798 115.7 116.398 115.7 115.598C115.7 114.798 115.4 114.398 114.7 114.398C114 114.398 113.7 114.798 113.7 115.598C113.7 116.398 114 116.798 114.7 116.798Z" fill="#00B7E6"/>
<path d="M117.4 117.498V113.598H118.2L118.3 114.198C118.7 113.798 119.1 113.598 119.6 113.598C120.5 113.598 121 114.098 121 115.098V117.598H120V115.098C120 114.698 119.8 114.398 119.4 114.398C119.1 114.398 118.8 114.498 118.5 114.798V117.498H117.4Z" fill="#00B7E6"/>
<path d="M121.7 116.298C121.7 115.498 122.3 115.098 123.4 115.098C123.7 115.098 123.9 115.098 124.2 115.198V114.898C124.2 114.498 123.9 114.398 123.4 114.398C123 114.398 122.5 114.498 122 114.598V113.798C122.5 113.698 123 113.598 123.4 113.598C124.6 113.598 125.2 113.998 125.2 114.898V117.498H124.6L124.2 117.098C123.9 117.298 123.5 117.498 123.1 117.498C122.2 117.498 121.7 117.098 121.7 116.298ZM123.4 115.798C122.9 115.798 122.7 115.998 122.7 116.298C122.7 116.598 122.9 116.798 123.3 116.798C123.6 116.798 123.9 116.698 124.2 116.498V115.898C124 115.798 123.7 115.798 123.4 115.798Z" fill="#00B7E6"/>
<path d="M128.8 112.199V117.499H127.8V112.199H128.8Z" fill="#00B7E6"/>
<path d="M129.5 116.298C129.5 115.498 130.1 115.098 131.2 115.098C131.5 115.098 131.7 115.098 132 115.198V114.898C132 114.498 131.7 114.398 131.2 114.398C130.8 114.398 130.3 114.498 129.8 114.598V113.798C130.3 113.698 130.8 113.598 131.2 113.598C132.4 113.598 133 113.998 133 114.898V117.498H132.4L132 117.098C131.7 117.298 131.3 117.498 130.9 117.498C130 117.498 129.5 117.098 129.5 116.298ZM131.3 115.798C130.8 115.798 130.6 115.998 130.6 116.298C130.6 116.598 130.8 116.798 131.2 116.798C131.5 116.798 131.8 116.698 132.1 116.498V115.898C131.8 115.798 131.5 115.798 131.3 115.798Z" fill="#00B7E6"/>
<path d="M136.7 112.199V112.999H135.7V112.199H136.7ZM136.7 113.599V117.499H135.7V113.599H136.7Z" fill="#00B7E6"/>
<path d="M137.6 117.498V113.598H138.4L138.5 114.198C138.9 113.798 139.3 113.598 139.8 113.598C140.7 113.598 141.2 114.098 141.2 115.098V117.598H140.2V115.098C140.2 114.698 140 114.398 139.6 114.398C139.3 114.398 139 114.498 138.7 114.798V117.498H137.6Z" fill="#00B7E6"/>
<path d="M142.1 117.298V116.498C142.5 116.698 143 116.798 143.6 116.798C144 116.798 144.2 116.698 144.2 116.398C144.2 116.098 144.1 115.998 143.8 115.998H143.1C142.3 115.998 141.9 115.598 141.9 114.798C141.9 113.998 142.5 113.598 143.6 113.598C144.1 113.598 144.6 113.698 145 113.798V114.598C144.6 114.398 144.1 114.298 143.6 114.298C143.1 114.298 142.8 114.398 142.8 114.698C142.8 114.998 143 115.098 143.3 115.098H143.9C144.8 115.098 145.2 115.498 145.2 116.298C145.2 117.098 144.6 117.498 143.5 117.498C143 117.598 142.5 117.498 142.1 117.298Z" fill="#00B7E6"/>
<path d="M145.9 113H146.6L146.7 113.6H147.7V114.4H146.8V116.2C146.8 116.6 147 116.7 147.3 116.7H147.7V117.5H146.8C146.1 117.5 145.8 117.1 145.8 116.4V113H145.9Z" fill="#00B7E6"/>
<path d="M149.4 112.199V112.999H148.4V112.199H149.4ZM149.4 113.599V117.499H148.4V113.599H149.4Z" fill="#00B7E6"/>
<path d="M150.3 113H151L151.1 113.6H152.1V114.4H151.2V116.2C151.2 116.6 151.4 116.7 151.7 116.7H152.1V117.5H151.2C150.5 117.5 150.2 117.1 150.2 116.4V113H150.3Z" fill="#00B7E6"/>
<path d="M156.4 113.598V117.498H155.6L155.5 116.998C155 117.298 154.6 117.498 154.1 117.498C153.3 117.498 152.9 116.998 152.9 116.098V113.598H153.9V116.098C153.9 116.498 154.1 116.798 154.5 116.798C154.8 116.798 155.1 116.698 155.5 116.398V113.698H156.4V113.598Z" fill="#00B7E6"/>
<path d="M160.2 117.398C159.9 117.498 159.5 117.498 159.2 117.498C157.8 117.498 157.1 116.798 157.1 115.498C157.1 114.198 157.8 113.598 159.2 113.598C159.5 113.598 159.9 113.598 160.2 113.698V114.498C159.9 114.398 159.6 114.398 159.3 114.398C158.5 114.398 158.1 114.798 158.1 115.498C158.1 116.298 158.5 116.798 159.3 116.798C159.6 116.798 159.9 116.798 160.2 116.698V117.398Z" fill="#00B7E6"/>
<path d="M161.8 112.199V112.999H160.8V112.199H161.8ZM161.8 113.599V117.499H160.8V113.599H161.8Z" fill="#00B7E6"/>
<path d="M162.6 115.599C162.6 114.299 163.2 113.599 164.5 113.599C165.8 113.599 166.4 114.299 166.4 115.599C166.4 116.899 165.8 117.599 164.5 117.599C163.2 117.499 162.6 116.899 162.6 115.599ZM164.5 116.799C165.1 116.799 165.5 116.399 165.5 115.599C165.5 114.799 165.2 114.399 164.5 114.399C163.8 114.399 163.5 114.799 163.5 115.599C163.6 116.399 163.9 116.799 164.5 116.799ZM164.5 112.199H165.7L164.8 113.199H164L164.5 112.199Z" fill="#00B7E6"/>
<path d="M167.2 117.498V113.598H168L168.1 114.198C168.5 113.798 168.9 113.598 169.4 113.598C170.3 113.598 170.8 114.098 170.8 115.098V117.598H169.8V115.098C169.8 114.698 169.6 114.398 169.2 114.398C168.9 114.398 168.6 114.498 168.3 114.798V117.498H167.2Z" fill="#00B7E6"/>
<path d="M174.1 117.499H173L175.7 112.199H176.8L174.1 117.499Z" fill="#00B7E6"/>
<path d="M180.7 113.598C181.9 113.598 182.5 114.198 182.5 115.398C182.5 115.598 182.5 115.698 182.5 115.898H179.9C179.9 116.498 180.3 116.698 181.1 116.698C181.5 116.698 181.9 116.698 182.3 116.598V117.398C182 117.498 181.5 117.498 181 117.498C179.6 117.498 178.9 116.798 178.9 115.498C178.9 114.198 179.5 113.598 180.7 113.598ZM179.9 115.198H181.6C181.6 114.698 181.3 114.398 180.8 114.398C180.2 114.398 179.9 114.698 179.9 115.198Z" fill="#00B7E6"/>
<path d="M183.2 117.498V113.598H184L184.1 114.198C184.5 113.798 184.9 113.598 185.4 113.598C185.9 113.598 186.2 113.798 186.4 114.098C186.8 113.698 187.2 113.598 187.7 113.598C188.6 113.598 189.1 114.098 189.1 115.098V117.498H188.1V114.998C188.1 114.598 187.9 114.298 187.5 114.298C187.2 114.298 186.9 114.398 186.7 114.698V117.398H185.7V114.898C185.7 114.498 185.5 114.198 185.2 114.198C184.9 114.198 184.6 114.298 184.4 114.598V117.298H183.2V117.498Z" fill="#00B7E6"/>
<path d="M190 113.798C190.5 113.698 191.1 113.598 191.7 113.598C193 113.598 193.7 114.198 193.7 115.498C193.7 116.898 193.1 117.598 191.8 117.598C191.5 117.598 191.3 117.498 191 117.398V118.998H190V113.798ZM191 116.498C191.2 116.598 191.5 116.698 191.8 116.698C192.4 116.698 192.7 116.298 192.7 115.498C192.7 114.798 192.4 114.398 191.7 114.398C191.4 114.398 191.2 114.398 191 114.498V116.498Z" fill="#00B7E6"/>
<path d="M194.4 117.498V113.598H195.2L195.3 114.098C195.6 113.798 196 113.598 196.4 113.598V114.398C196 114.398 195.7 114.598 195.4 114.898V117.598H194.4V117.498Z" fill="#00B7E6"/>
<path d="M198.6 113.598C199.8 113.598 200.4 114.198 200.4 115.398C200.4 115.598 200.4 115.698 200.4 115.898H197.8C197.8 116.498 198.2 116.698 199 116.698C199.4 116.698 199.8 116.698 200.2 116.598V117.398C199.9 117.498 199.4 117.498 198.9 117.498C197.5 117.498 196.8 116.798 196.8 115.498C196.7 114.198 197.3 113.598 198.6 113.598ZM197.7 115.198H199.4C199.4 114.698 199.1 114.398 198.6 114.398C198 114.398 197.8 114.698 197.7 115.198Z" fill="#00B7E6"/>
<path d="M201.1 117.298V116.498C201.5 116.698 202 116.798 202.6 116.798C203 116.798 203.2 116.698 203.2 116.398C203.2 116.098 203.1 115.998 202.8 115.998H202.1C201.3 115.998 200.9 115.598 200.9 114.798C200.9 113.998 201.5 113.598 202.6 113.598C203.1 113.598 203.6 113.698 204 113.798V114.598C203.6 114.398 203.1 114.298 202.6 114.298C202.1 114.298 201.8 114.398 201.8 114.698C201.8 114.998 202 115.098 202.3 115.098H202.9C203.8 115.098 204.2 115.498 204.2 116.298C204.2 117.098 203.6 117.498 202.5 117.498C202 117.598 201.5 117.498 201.1 117.298Z" fill="#00B7E6"/>
<path d="M204.7 116.298C204.7 115.498 205.3 115.098 206.4 115.098C206.7 115.098 206.9 115.098 207.2 115.198V114.898C207.2 114.498 206.9 114.398 206.4 114.398C206 114.398 205.5 114.498 205 114.598V113.798C205.5 113.698 206 113.598 206.4 113.598C207.6 113.598 208.2 113.998 208.2 114.898V117.498H207.6L207.2 117.098C206.9 117.298 206.5 117.498 206.1 117.498C205.2 117.498 204.7 117.098 204.7 116.298ZM206.4 115.798C205.9 115.798 205.7 115.998 205.7 116.298C205.7 116.598 205.9 116.798 206.3 116.798C206.6 116.798 206.9 116.698 207.2 116.498V115.898C207 115.798 206.7 115.798 206.4 115.798Z" fill="#00B7E6"/>
<path d="M210.7 116.298C210.7 115.498 211.3 115.098 212.4 115.098C212.7 115.098 212.9 115.098 213.2 115.198V114.898C213.2 114.498 212.9 114.398 212.4 114.398C212 114.398 211.5 114.498 211 114.598V113.798C211.5 113.698 212 113.598 212.4 113.598C213.6 113.598 214.2 113.998 214.2 114.898V117.498H213.6L213.2 117.098C212.9 117.298 212.5 117.498 212.1 117.498C211.1 117.498 210.7 117.098 210.7 116.298ZM212.4 115.798C211.9 115.798 211.7 115.998 211.7 116.298C211.7 116.598 211.9 116.798 212.3 116.798C212.6 116.798 212.9 116.698 213.2 116.498V115.898C212.9 115.798 212.7 115.798 212.4 115.798Z" fill="#00B7E6"/>
<path d="M216.8 113.798C217.3 113.698 217.9 113.598 218.5 113.598C219.8 113.598 220.5 114.198 220.5 115.498C220.5 116.898 219.9 117.598 218.6 117.598C218.3 117.598 218.1 117.498 217.8 117.398V118.998H216.8V113.798ZM217.8 116.498C218 116.598 218.3 116.698 218.6 116.698C219.2 116.698 219.5 116.298 219.5 115.498C219.5 114.798 219.2 114.398 218.5 114.398C218.2 114.398 218 114.398 217.8 114.498V116.498Z" fill="#00B7E6"/>
<path d="M221 116.298C221 115.498 221.6 115.098 222.7 115.098C223 115.098 223.2 115.098 223.5 115.198V114.898C223.5 114.498 223.2 114.398 222.7 114.398C222.3 114.398 221.8 114.498 221.3 114.598V113.798C221.8 113.698 222.3 113.598 222.7 113.598C223.9 113.598 224.5 113.998 224.5 114.898V117.498H223.9L223.5 117.098C223.2 117.298 222.8 117.498 222.4 117.498C221.5 117.498 221 117.098 221 116.298ZM222.7 115.798C222.2 115.798 222 115.998 222 116.298C222 116.598 222.2 116.798 222.6 116.798C222.9 116.798 223.2 116.698 223.5 116.498V115.898C223.3 115.798 223 115.798 222.7 115.798Z" fill="#00B7E6"/>
<path d="M228.9 117.199C228.9 118.299 228.2 118.899 226.8 118.899C226.3 118.899 225.9 118.799 225.5 118.699V117.999C225.9 118.099 226.3 118.199 226.8 118.199C227.5 118.199 227.9 117.899 227.9 117.299C227.6 117.399 227.3 117.499 226.9 117.499C225.7 117.499 225.1 116.899 225.1 115.599C225.1 114.299 225.8 113.699 227.1 113.699C227.6 113.699 228.1 113.799 228.8 113.899V117.199H228.9ZM227.9 114.499C227.7 114.399 227.5 114.399 227.2 114.399C226.5 114.399 226.2 114.799 226.2 115.499C226.2 116.199 226.5 116.599 227.1 116.599C227.4 116.599 227.7 116.499 227.9 116.399V114.499Z" fill="#00B7E6"/>
<path d="M229.7 116.298C229.7 115.498 230.3 115.098 231.4 115.098C231.7 115.098 231.9 115.098 232.2 115.198V114.898C232.2 114.498 231.9 114.398 231.4 114.398C231 114.398 230.5 114.498 230 114.598V113.798C230.5 113.698 231 113.598 231.4 113.598C232.6 113.598 233.2 113.998 233.2 114.898V117.498H232.6L232.2 117.098C231.9 117.298 231.5 117.498 231.1 117.498C230.2 117.498 229.7 117.098 229.7 116.298ZM231.4 115.798C230.9 115.798 230.7 115.998 230.7 116.298C230.7 116.598 230.9 116.798 231.3 116.798C231.6 116.798 231.9 116.698 232.2 116.498V115.898C231.9 115.798 231.7 115.798 231.4 115.798Z" fill="#00B7E6"/>
<path d="M234.1 117.498V113.598H234.9L235 114.098C235.3 113.798 235.7 113.598 236.1 113.598V114.398C235.7 114.398 235.4 114.598 235.1 114.898V117.598H234.1V117.498Z" fill="#00B7E6"/>
<path d="M88.8 55.8V51H91C92 51 92.5 51.5 92.5 52.4C92.5 53.4 91.8 54 90.5 54.2L90.4 53.4C91.2 53.3 91.6 52.9 91.6 52.4C91.6 52 91.4 51.8 91 51.8H89.8V55.8H88.8Z" fill="#A0A0A0"/>
<path d="M92.8 53.9992C92.8 52.7992 93.4 52.1992 94.5 52.1992C95.7 52.1992 96.2 52.7992 96.2 53.9992C96.2 55.1992 95.6 55.7992 94.5 55.7992C93.4 55.7992 92.8 55.1992 92.8 53.9992ZM94.5 55.0992C95.1 55.0992 95.4 54.6992 95.4 53.9992C95.4 53.2992 95.1 52.8992 94.5 52.8992C93.9 52.8992 93.6 53.2992 93.6 53.9992C93.7 54.6992 94 55.0992 94.5 55.0992Z" fill="#A0A0A0"/>
<path d="M97 55.8008V52.3008H97.7L97.8 52.8008C98.1 52.5008 98.4 52.3008 98.8 52.3008V53.0008C98.5 53.0008 98.2 53.1008 97.9 53.4008V55.8008H97Z" fill="#A0A0A0"/>
<path d="M100.8 55.8008V52.3008H101.5L101.6 52.8008C101.9 52.5008 102.3 52.3008 102.8 52.3008C103.6 52.3008 104.1 52.7008 104.1 53.6008V55.8008H103.2V53.6008C103.2 53.2008 103 53.0008 102.6 53.0008C102.3 53.0008 102 53.1008 101.8 53.3008V55.8008H100.8Z" fill="#A0A0A0"/>
<path d="M104.6 53.9992C104.6 52.7992 105.2 52.1992 106.3 52.1992C107.5 52.1992 108 52.7992 108 53.9992C108 55.1992 107.4 55.7992 106.3 55.7992C105.2 55.7992 104.6 55.1992 104.6 53.9992ZM106.4 55.0992C107 55.0992 107.3 54.6992 107.3 53.9992C107.3 53.2992 107 52.8992 106.4 52.8992C105.8 52.8992 105.5 53.2992 105.5 53.9992C105.5 54.6992 105.8 55.0992 106.4 55.0992Z" fill="#A0A0A0"/>
<path d="M108.8 55.8008V52.3008H109.5L109.6 52.8008C109.9 52.5008 110.3 52.3008 110.7 52.3008C111.1 52.3008 111.4 52.5008 111.6 52.8008C112 52.5008 112.3 52.3008 112.7 52.3008C113.5 52.3008 113.9 52.7008 113.9 53.6008V55.8008H113V53.6008C113 53.2008 112.8 53.0008 112.5 53.0008C112.2 53.0008 112 53.1008 111.7 53.4008V55.9008H110.8V53.7008C110.8 53.3008 110.6 53.1008 110.3 53.1008C110 53.1008 109.8 53.2008 109.6 53.5008V56.0008H108.8V55.8008Z" fill="#A0A0A0"/>
<path d="M114.8 51H115.7V52.5C116 52.3 116.3 52.2 116.6 52.2C117.6 52.2 118.1 52.8 118.1 53.9C118.1 55.1 117.5 55.7 116.4 55.7C115.9 55.7 115.4 55.7 114.8 55.6V51ZM115.7 55C115.9 55.1 116.1 55.1 116.4 55.1C116.9 55.1 117.2 54.7 117.2 54C117.2 53.4 117 53.1 116.5 53.1C116.2 53.1 115.9 53.2 115.7 53.3V55Z" fill="#A0A0A0"/>
<path d="M118.8 55.8008V52.3008H119.5L119.6 52.8008C119.9 52.5008 120.2 52.3008 120.6 52.3008V53.0008C120.3 53.0008 120 53.1008 119.7 53.4008V55.8008H118.8Z" fill="#A0A0A0"/>
<path d="M122.6 52.1992C123.7 52.1992 124.2 52.6992 124.2 53.7992C124.2 53.8992 124.2 54.0992 124.2 54.1992H121.9C121.9 54.6992 122.3 54.8992 123 54.8992C123.4 54.8992 123.7 54.8992 124.1 54.7992V55.4992C123.8 55.5992 123.4 55.5992 123 55.5992C121.7 55.5992 121.1 54.9992 121.1 53.7992C120.9 52.7992 121.5 52.1992 122.6 52.1992ZM121.8 53.6992H123.3C123.3 53.1992 123.1 52.9992 122.6 52.9992C122.1 52.8992 121.8 53.1992 121.8 53.6992Z" fill="#A0A0A0"/>
<path d="M88.8 73.4992V68.6992H91C92 68.6992 92.5 69.1992 92.5 70.0992C92.5 71.0992 91.8 71.6992 90.5 71.8992L90.3 70.9992C91.1 70.8992 91.5 70.4992 91.5 69.9992C91.5 69.5992 91.3 69.3992 90.9 69.3992H89.7V73.3992H88.8V73.4992Z" fill="#A0A0A0"/>
<path d="M92.8 71.6984C92.8 70.4984 93.4 69.8984 94.5 69.8984C95.7 69.8984 96.2 70.4984 96.2 71.6984C96.2 72.8984 95.6 73.4984 94.5 73.4984C93.4 73.4984 92.8 72.8984 92.8 71.6984ZM94.5 72.7984C95.1 72.7984 95.4 72.3984 95.4 71.6984C95.4 70.9984 95.1 70.5984 94.5 70.5984C93.9 70.5984 93.6 70.9984 93.6 71.6984C93.7 72.3984 94 72.7984 94.5 72.7984Z" fill="#A0A0A0"/>
<path d="M97 73.5V70H97.7L97.8 70.5C98.1 70.2 98.4 70 98.8 70V70.7C98.5 70.7 98.2 70.8 97.9 71.1V73.5H97Z" fill="#A0A0A0"/>
<path d="M103.9 73.2C103.9 74.2 103.3 74.7 102 74.7C101.6 74.7 101.2 74.6 100.8 74.5V73.8C101.1 73.9 101.5 74 102 74C102.6 74 103 73.7 103 73.2C102.7 73.3 102.5 73.4 102.1 73.4C101.1 73.4 100.5 72.8 100.5 71.7C100.5 70.5 101.1 70 102.3 70C102.7 70 103.2 70 103.8 70.1V73.2H103.9ZM103 70.7C102.9 70.6 102.6 70.6 102.4 70.6C101.8 70.6 101.5 70.9 101.5 71.6C101.5 72.3 101.8 72.6 102.3 72.6C102.6 72.6 102.8 72.5 103.1 72.4V70.7H103Z" fill="#A0A0A0"/>
<path d="M104.8 73.5V70H105.5L105.6 70.5C105.9 70.2 106.2 70 106.6 70V70.7C106.3 70.7 106 70.8 105.7 71.1V73.5H104.8Z" fill="#A0A0A0"/>
<path d="M110.2 69.8984V73.3984H109.5L109.4 72.8984C109 73.1984 108.6 73.3984 108.1 73.3984C107.4 73.3984 107 72.9984 107 72.0984V69.8984H107.9V72.0984C107.9 72.4984 108.1 72.6984 108.4 72.6984C108.7 72.6984 109 72.5984 109.3 72.3984V69.8984H110.2Z" fill="#A0A0A0"/>
<path d="M111.1 70.1C111.6 70 112.1 70 112.6 70C113.8 70 114.4 70.6 114.4 71.7C114.4 72.9 113.8 73.6 112.7 73.6C112.5 73.6 112.2 73.5 112 73.4V74.8H111.1V70.1ZM111.9 72.5C112.1 72.6 112.4 72.7 112.6 72.7C113.1 72.7 113.4 72.3 113.4 71.6C113.4 71 113.1 70.6 112.5 70.6C112.2 70.6 112 70.6 111.9 70.6V72.5Z" fill="#A0A0A0"/>
<path d="M114.8 71.6984C114.8 70.4984 115.4 69.8984 116.5 69.8984C117.7 69.8984 118.2 70.4984 118.2 71.6984C118.2 72.8984 117.6 73.4984 116.5 73.4984C115.4 73.4984 114.8 72.8984 114.8 71.6984ZM116.6 72.7984C117.2 72.7984 117.5 72.3984 117.5 71.6984C117.5 70.9984 117.2 70.5984 116.6 70.5984C116 70.5984 115.7 70.9984 115.7 71.6984C115.7 72.3984 116 72.7984 116.6 72.7984Z" fill="#A0A0A0"/>
<path d="M261.9 102.401H91.9C89.7 102.401 87.9 100.601 87.9 98.4008V83.8008C87.9 81.6008 89.7 79.8008 91.9 79.8008H261.9C264.1 79.8008 265.9 81.6008 265.9 83.8008V98.4008C265.9 100.601 264.1 102.401 261.9 102.401ZM91.9 80.7008C90.2 80.7008 88.8 82.1008 88.8 83.8008V98.4008C88.8 100.101 90.2 101.501 91.9 101.501H261.9C263.6 101.501 265 100.101 265 98.4008V83.8008C265 82.1008 263.6 80.7008 261.9 80.7008H91.9Z" fill="#90908F"/>
<path d="M306.4 100.199V81.9992C306.4 80.9992 305.6 80.1992 304.6 80.1992H269.5C268.5 80.1992 267.7 80.9992 267.7 81.9992V100.099C267.7 101.099 268.5 101.899 269.5 101.899H304.6C305.6 101.899 306.4 101.199 306.4 100.199Z" fill="#005FAB"/>
<path d="M253.7 90.9023C253.6 90.9023 253.5 91.0023 253.5 91.1023V92.4023C253.5 94.1023 252.1 95.4023 250.5 95.4023C248.8 95.4023 247.5 94.0023 247.5 92.4023V91.1023C247.5 91.0023 247.4 90.9023 247.3 90.9023C247.2 90.9023 247.1 91.0023 247.1 91.1023V92.4023C247.1 94.2023 248.5 95.7023 250.3 95.8023V96.9023H249.2C249.1 96.9023 249 97.0023 249 97.1023C249 97.2023 249.1 97.3023 249.2 97.3023H251.8C251.9 97.3023 252 97.2023 252 97.1023C252 97.0023 251.9 96.9023 251.8 96.9023H250.7V95.8023C252.5 95.7023 253.9 94.2023 253.9 92.4023V91.1023C253.9 91.0023 253.8 90.9023 253.7 90.9023Z" fill="#636363"/>
<path d="M250.5 94.8008C251.8 94.8008 252.9 93.7008 252.9 92.4008V87.2008C252.9 85.9008 251.8 84.8008 250.5 84.8008C249.2 84.8008 248.1 85.9008 248.1 87.2008V92.4008C248.1 93.7008 249.2 94.8008 250.5 94.8008Z" fill="#636363"/>
<path d="M284.8 86.4987C283.2 88.0987 283 90.6987 284.3 92.4987C284.1 92.4987 283.9 92.5987 283.8 92.7987L281.1 95.4987C280.7 95.8987 280.7 96.4987 281.1 96.8987C281.5 97.2987 282.1 97.2987 282.5 96.8987L285.2 94.1987C285.3 94.0987 285.4 93.8987 285.5 93.6987C287.3 94.9987 289.9 94.7987 291.5 93.1987C293.3 91.3987 293.3 88.3987 291.5 86.5987C289.6 84.5987 286.6 84.5987 284.8 86.4987ZM285.6 92.2987C284.2 90.8987 284.2 88.6987 285.6 87.2987C287 85.8987 289.2 85.8987 290.6 87.2987C292 88.6987 292 90.8987 290.6 92.2987C289.2 93.5987 287 93.5987 285.6 92.2987Z" fill="white"/>
<path d="M94.9 95.1984H93.6L96.5 88.3984H97.9L100.9 95.1984H99.5L98.7 93.2984H96.4L96.8 92.1984H98.2L97.1 89.5984L94.9 95.1984Z" fill="#232323"/>
<path d="M107.1 94.8992C106.5 95.0992 105.8 95.1992 105.1 95.1992C102.6 95.1992 101.4 93.9992 101.4 91.5992C101.4 89.3992 102.6 88.1992 105.1 88.1992C105.9 88.1992 106.5 88.2992 107.1 88.4992V89.5992C106.5 89.2992 105.9 89.1992 105.2 89.1992C103.6 89.1992 102.7 89.9992 102.7 91.4992C102.7 93.0992 103.5 93.9992 105.2 93.9992C105.9 93.9992 106.5 93.8992 107.1 93.5992V94.8992Z" fill="#232323"/>
<path d="M109 95.1984H107.7L110.6 88.3984H112L115 95.1984H113.6L112.8 93.2984H110.5L110.9 92.1984H112.3L111.2 89.5984L109 95.1984Z" fill="#232323"/>
<path d="M115.8 95.1984V88.3984H118.5C120.8 88.3984 121.9 89.4984 121.9 91.5984C121.9 93.9984 120.8 95.1984 118.5 95.1984H115.8ZM118.5 94.0984C119.9 94.0984 120.6 93.2984 120.6 91.5984C120.6 90.1984 119.9 89.4984 118.5 89.4984H117.1V94.0984H118.5Z" fill="#232323"/>
<path d="M127.6 88.3008V89.4008H124.2V91.1008H127.5V92.2008H124.2V94.0008H127.7V95.1008H123V88.3008H127.6Z" fill="#232323"/>
<path d="M128.9 95.1984V88.3984H130.2L132.5 93.5984L134.8 88.3984H136.1V95.1984H134.9V90.3984L133 95.1984H131.9L130 90.3984V95.1984H128.9Z" fill="#232323"/>
<path d="M138.8 88.3008V95.1008H137.5V88.3008H138.8Z" fill="#232323"/>
<path d="M140.9 95.1984H139.6L142.5 88.3984H143.9L146.9 95.1984H145.5L144.7 93.2984H142.4L142.8 92.1984H144.2L143.1 89.5984L140.9 95.1984Z" fill="#232323"/>
<path d="M154.3 88.3008V89.4008H152.3V95.1008H151V89.4008H149V88.3008H154.3Z" fill="#232323"/>
<path d="M155 95.1984V88.3984H158.1C159.5 88.3984 160.2 88.9984 160.2 90.1984C160.2 90.9984 159.7 91.6984 158.6 92.2984L160.8 95.2984H159.2L157.1 92.2984V91.6984C158.3 91.4984 158.9 90.9984 158.9 90.2984C158.9 89.7984 158.6 89.4984 158 89.4984H156.3V95.1984H155Z" fill="#232323"/>
<path d="M162.6 88.3008V95.1008H161.3V88.3008H162.6Z" fill="#232323"/>
<path d="M165.3 88.3008V94.0008H168V95.1008H164V88.3008H165.3Z" fill="#232323"/>
<path d="M174 94.8992C173.4 95.0992 172.7 95.1992 172 95.1992C169.5 95.1992 168.3 93.9992 168.3 91.5992C168.3 89.3992 169.5 88.1992 172 88.1992C172.8 88.1992 173.4 88.2992 174 88.4992V89.5992C173.4 89.2992 172.8 89.1992 172.1 89.1992C170.5 89.1992 169.6 89.9992 169.6 91.4992C169.6 93.0992 170.4 93.9992 172.1 93.9992C172.8 93.9992 173.4 93.8992 174 93.5992V94.8992Z" fill="#232323"/>
<path d="M179.8 88.3008V89.4008H176.4V91.1008H179.7V92.2008H176.4V94.0008H179.9V95.1008H175.1V88.3008H179.8Z" fill="#232323"/>
<path d="M297.8 56.1992C299.457 56.1992 300.8 54.8561 300.8 53.1992C300.8 51.5424 299.457 50.1992 297.8 50.1992C296.143 50.1992 294.8 51.5424 294.8 53.1992C294.8 54.8561 296.143 56.1992 297.8 56.1992Z" fill="#04BAA4"/>
<path d="M297.8 58.6008C294.8 58.6008 292.4 56.2008 292.4 53.2008C292.4 50.2008 294.8 47.8008 297.8 47.8008C300.8 47.8008 303.2 50.2008 303.2 53.2008C303.2 56.2008 300.8 58.6008 297.8 58.6008ZM297.8 48.7008C295.3 48.7008 293.3 50.7008 293.3 53.2008C293.3 55.7008 295.3 57.7008 297.8 57.7008C300.3 57.7008 302.3 55.7008 302.3 53.2008C302.3 50.7008 300.3 48.7008 297.8 48.7008Z" fill="#04BAA4"/>
<path d="M297.8 75.4992C294.8 75.4992 292.4 73.0992 292.4 70.0992C292.4 67.0992 294.8 64.6992 297.8 64.6992C300.8 64.6992 303.2 67.0992 303.2 70.0992C303.2 73.0992 300.8 75.4992 297.8 75.4992ZM297.8 65.4992C295.3 65.4992 293.3 67.4992 293.3 69.9992C293.3 72.4992 295.3 74.4992 297.8 74.4992C300.3 74.4992 302.3 72.4992 302.3 69.9992C302.3 67.4992 300.3 65.4992 297.8 65.4992Z" fill="#5F5F5F"/>
<path d="M303.3 138.3C303.3 138.5 303.2 138.6 303.1 138.7L299.3 142.5C299.1 142.7 298.7 142.7 298.4 142.5C298.2 142.3 298.2 141.9 298.4 141.6L301.8 138.2L298.4 134.8C298.2 134.6 298.2 134.2 298.4 133.9C298.6 133.7 299 133.7 299.3 133.9L303.1 137.7C303.2 138 303.3 138.1 303.3 138.3Z" fill="#C8C5C6"/>
<path d="M195 103.501H78.9V78.8008H195V103.501ZM81.9 100.401H192V81.8008H81.9V100.401Z" fill="#FF4200"/>
</svg>
