<svg width="392" height="262" viewBox="0 0 392 262" fill="none" xmlns="http://www.w3.org/2000/svg">
<path d="M392 0H0V262H392V0Z" fill="#F6F6F6"/>
<path d="M392 0H0V261.9H392V0Z" fill="#F6F6F6"/>
<path d="M244.9 62.6984C249 63.1984 253 64.1984 256.8 65.4984H303.4C296.6 60.0984 291 53.3984 287 45.6984L342.4 37.8984L65.6001 40.9984C73.0001 50.6984 82.2001 58.9984 92.6001 65.4984H218.3C227 62.9984 235.8 61.5984 244.9 62.6984Z" fill="#F3F1F7"/>
<path d="M94.4 245.798C80.6 241.898 65.5 236.098 59.6 223.398C50.4 203.798 68.6 180.898 63.5 159.898C57.6 135.798 25.2 126.798 14.5 104.298C8.8 92.2984 10.3 78.5984 9.4 65.3984H0V261.998H128.7C120.2 252.998 106.7 249.398 94.4 245.798Z" fill="#F3F1F7"/>
<path d="M178 79.3C191.6 75.7 204.8 69.3 218.3 65.5H92.5C117.6 81.3 149.3 87 178 79.3Z" fill="#F3F1F7"/>
<path d="M374.6 81.3016C365.3 76.9016 354.4 79.5016 344.1 79.7016C329.4 80.0016 314.9 74.7016 303.4 65.6016H256.8C268.7 69.7016 279.6 77.3016 290.6 83.8016C320 101.402 354.9 113.302 388.6 106.802C389.7 106.602 390.9 106.302 392 106.102V99.5016C386.9 92.5016 382.2 84.9016 374.6 81.3016Z" fill="#F3F1F7"/>
<path d="M344.1 79.6C354.4 79.4 365.3 76.8 374.6 81.2C382.2 84.9 386.9 92.5 392 99.3V65.5H303.4C314.9 74.6 329.4 79.9 344.1 79.6Z" fill="url(#paint0_linear)"/>
<path d="M392 221.602C386.5 223.402 380.8 225.102 375.9 228.002C364.4 234.902 358.3 248.402 357.6 261.902H392V221.602Z" fill="#EBEDF2"/>
<path d="M214.1 210.399C214.1 210.399 214.1 210.299 214.1 210.399C214.1 210.299 214.1 210.299 214.1 210.399C214.1 210.299 214 210.299 214.1 210.399C214 210.399 214 210.399 214.1 210.399Z" fill="#F0F0F0"/>
<path d="M214.5 211.298C214.4 211.198 214.4 211.298 214.5 211.298C214.4 211.298 214.4 211.298 214.5 211.298Z" fill="#F0F0F0"/>
<path d="M213.3 209.699C213.4 209.799 213.4 209.799 213.3 209.699C213.4 209.699 213.4 209.699 213.3 209.699C213.4 209.699 213.4 209.699 213.3 209.699Z" fill="#F0F0F0"/>
<path d="M213.6 209.302C213.6 209.202 213.6 209.202 213.6 209.302C213.6 209.202 213.5 209.202 213.6 209.302C213.5 209.202 213.5 209.302 213.6 209.302Z" fill="#F0F0F0"/>
<path d="M214.5 209.501C214.4 209.501 214.4 209.401 214.5 209.501C214.4 209.501 214.4 209.501 214.5 209.501Z" fill="#F0F0F0"/>
<path d="M213.7 211.5C213.7 211.5 213.6 211.5 213.7 211.5C213.6 211.6 213.6 211.6 213.7 211.5C213.8 211.5 213.7 211.5 213.7 211.5Z" fill="#F0F0F0"/>
<path d="M213.1 211.5C213.1 211.6 213.1 211.6 213.1 211.5C213.2 211.5 213.1 211.5 213.1 211.5Z" fill="#F0F0F0"/>
<path d="M213.5 211.398V211.498C213.6 211.498 213.6 211.398 213.5 211.398C213.6 211.398 213.6 211.398 213.5 211.398C213.6 211.398 213.6 211.398 213.5 211.398Z" fill="#F0F0F0"/>
<path d="M213.6 210.898C213.6 210.898 213.6 210.998 213.6 210.898C213.7 210.898 213.6 210.898 213.6 210.898Z" fill="#F0F0F0"/>
<path d="M214 211C213.9 211 213.9 211 214 211C213.9 211.1 213.9 211.1 214 211C214 211.1 214 211.1 214 211C214 211.1 214 211.1 214 211Z" fill="#F0F0F0"/>
<path d="M214.2 211.602C214.2 211.702 214.2 211.702 214.2 211.602C214.3 211.602 214.3 211.602 214.2 211.602Z" fill="#F0F0F0"/>
<path d="M214.1 210.699C214 210.799 214 210.799 214.1 210.699C214.1 210.799 214.1 210.799 214.1 210.699C214.1 210.799 214.1 210.799 214.1 210.699Z" fill="#F0F0F0"/>
<path d="M213.7 210.102C213.6 210.202 213.7 210.202 213.7 210.102V210.202C213.7 210.202 213.7 210.202 213.7 210.102C213.7 210.202 213.8 210.202 213.7 210.102Z" fill="#F0F0F0"/>
<path opacity="0.45" d="M274.1 173.598L244 172.898V218.198H256.9V232.398L265.5 218.198H313.6L315.2 199.898H276.4L274.1 173.598Z" fill="#946CCF"/>
<path d="M274.1 173.599L317.5 174.599L315.3 199.999H324.6L333.2 214.099V199.999H346V154.699L272.6 156.299L274.1 173.599ZM325.2 176.499C326.4 176.499 327.4 177.499 327.4 178.699C327.4 179.899 326.4 180.899 325.2 180.899C324 180.899 323 179.899 323 178.699C323 177.499 324 176.499 325.2 176.499Z" fill="#946CCF"/>
<path d="M274.1 173.602L276.4 199.902H315.3L317.5 174.502L274.1 173.602ZM298 180.902C296.8 180.902 295.8 179.902 295.8 178.702C295.8 177.502 296.8 176.502 298 176.502C299.2 176.502 300.2 177.502 300.2 178.702C300.2 179.902 299.3 180.902 298 180.902ZM311.6 180.902C310.4 180.902 309.4 179.902 309.4 178.702C309.4 177.502 310.4 176.502 311.6 176.502C312.8 176.502 313.8 177.502 313.8 178.702C313.8 179.902 312.9 180.902 311.6 180.902Z" fill="#946CCF"/>
<path d="M298 176.5C296.8 176.5 295.8 177.5 295.8 178.7C295.8 179.9 296.8 180.9 298 180.9C299.2 180.9 300.2 179.9 300.2 178.7C300.2 177.5 299.3 176.5 298 176.5Z" fill="#EBEBEA"/>
<path d="M311.6 176.5C310.4 176.5 309.4 177.5 309.4 178.7C309.4 179.9 310.4 180.9 311.6 180.9C312.8 180.9 313.8 179.9 313.8 178.7C313.8 177.5 312.9 176.5 311.6 176.5Z" fill="#EBEBEA"/>
<path d="M325.2 180.9C326.4 180.9 327.4 179.9 327.4 178.7C327.4 177.5 326.4 176.5 325.2 176.5C324 176.5 323 177.5 323 178.7C323 179.9 324 180.9 325.2 180.9Z" fill="#EBEBEA"/>
<path d="M259.5 166.998L260.8 164.698L263.1 163.398L260.8 162.198L259.5 159.898L258.3 162.198L256 163.398L258.3 164.698L259.5 166.998Z" fill="#E1BF3F"/>
<path d="M392 29.5H0V70.2H392V29.5Z" fill="#001B45"/>
<path d="M129.8 42.9969L124.5 53.0969C124.4 53.2969 124.1 53.2969 123.9 53.0969L118.7 42.9969C118.6 42.8969 118.5 42.7969 118.4 42.7969H115.8C115.6 42.7969 115.5 42.9969 115.6 43.0969L123.9 58.6969C124 58.8969 124.3 58.8969 124.4 58.6969L132.7 43.0969C132.8 42.8969 132.7 42.7969 132.5 42.7969H129.9C130 42.8969 129.9 42.8969 129.8 42.9969Z" fill="white"/>
<path d="M132.8 56.4984L138.1 46.3984C138.2 46.1984 138.5 46.1984 138.7 46.3984L144 56.4984C144.1 56.5984 144.2 56.6984 144.3 56.6984H146.9C147.1 56.6984 147.2 56.4984 147.1 56.3984L138.8 40.7984C138.7 40.5984 138.4 40.5984 138.3 40.7984L130 56.3984C129.9 56.5984 130 56.6984 130.2 56.6984H132.8C132.7 56.5984 132.8 56.5984 132.8 56.4984Z" fill="white"/>
<path d="M96.7001 50.2984C97.8001 49.6984 98.5001 48.4984 98.5001 47.0984C98.5001 44.5984 96.5001 42.8984 93.8001 42.8984H85.9001C85.7001 42.8984 85.6001 42.9984 85.6001 43.1984V58.6984C85.6001 58.8984 85.7001 58.9984 85.9001 58.9984H93.5001C97.3001 58.9984 99.3001 57.3984 99.3001 54.1984C99.2001 50.9984 96.7001 50.2984 96.7001 50.2984ZM88.5001 45.1984H93.2001C94.9001 45.1984 95.8001 45.8984 95.8001 47.2984C95.8001 48.6984 94.9001 49.3984 93.2001 49.3984H88.5001C88.3001 49.3984 88.2001 49.2984 88.2001 49.0984V45.4984C88.2001 45.2984 88.4001 45.1984 88.5001 45.1984ZM93.3001 56.5984H88.5001C88.3001 56.5984 88.2001 56.4984 88.2001 56.2984V51.9984C88.2001 51.7984 88.3001 51.6984 88.5001 51.6984H93.3001C95.6001 51.6984 96.6001 52.2984 96.6001 54.0984C96.6001 55.9984 95.6001 56.5984 93.3001 56.5984Z" fill="white"/>
<path d="M113 50.2984C114.1 49.6984 114.8 48.4984 114.8 47.0984C114.8 44.5984 112.8 42.8984 110.1 42.8984H102.2C102 42.8984 101.9 42.9984 101.9 43.1984V58.6984C101.9 58.8984 102 58.9984 102.2 58.9984H109.8C113.6 58.9984 115.6 57.3984 115.6 54.1984C115.5 50.9984 113 50.2984 113 50.2984ZM104.8 45.1984H109.5C111.2 45.1984 112.1 45.8984 112.1 47.2984C112.1 48.6984 111.2 49.3984 109.5 49.3984H104.8C104.6 49.3984 104.5 49.2984 104.5 49.0984V45.4984C104.5 45.2984 104.6 45.1984 104.8 45.1984ZM109.5 56.5984H104.7C104.5 56.5984 104.4 56.4984 104.4 56.2984V51.9984C104.4 51.7984 104.5 51.6984 104.7 51.6984H109.5C111.8 51.6984 112.8 52.2984 112.8 54.0984C112.8 55.9984 111.8 56.5984 109.5 56.5984Z" fill="white"/>
<path d="M392 21.1992H0V31.7992H392V21.1992Z" fill="#003177"/>
<path d="M273.6 37.1992H187.6V61.2992H273.6V37.1992Z" fill="#02C1BC"/>
<path d="M199 51.6992V46.1992H201.6C202.6 46.1992 203.2 46.5992 203.2 47.4992C203.2 48.0992 202.9 48.5992 202.2 48.7992C202.9 48.8992 203.3 49.2992 203.3 49.9992C203.3 51.0992 202.7 51.5992 201.6 51.5992H199V51.6992ZM201.4 50.7992C201.8 50.7992 202.1 50.5992 202.1 50.0992C202.1 49.4992 201.8 49.1992 201.1 49.1992H200.8V48.4992C201.6 48.3992 202.1 47.9992 202.1 47.3992C202.1 47.0992 201.9 46.8992 201.5 46.8992H200V50.5992H201.4V50.7992Z" fill="white"/>
<path d="M203.7 50.4992C203.7 49.6992 204.3 49.2992 205.4 49.2992C205.7 49.2992 205.9 49.2992 206.2 49.3992V48.9992C206.2 48.5992 205.9 48.4992 205.4 48.4992C205 48.4992 204.5 48.5992 203.9 48.6992V47.8992C204.4 47.7992 204.9 47.6992 205.4 47.6992C206.6 47.6992 207.2 48.0992 207.2 48.9992V51.6992H206.6L206.2 51.2992C205.9 51.4992 205.5 51.6992 205 51.6992C204.2 51.6992 203.7 51.2992 203.7 50.4992ZM205.4 49.8992C204.9 49.8992 204.7 50.0992 204.7 50.3992C204.7 50.7992 204.9 50.8992 205.3 50.8992C205.6 50.8992 205.9 50.7992 206.2 50.5992V49.9992C206 49.9992 205.7 49.8992 205.4 49.8992Z" fill="white"/>
<path d="M208.2 51.6992V47.6992H209L209.1 48.2992C209.5 47.8992 209.9 47.6992 210.4 47.6992C211.3 47.6992 211.8 48.1992 211.8 49.1992V51.6992H210.8V49.1992C210.8 48.7992 210.6 48.4992 210.1 48.4992C209.8 48.4992 209.5 48.5992 209.1 48.8992V51.6992H208.2Z" fill="white"/>
<path d="M215.8 51.5992C215.5 51.6992 215.1 51.6992 214.8 51.6992C213.4 51.6992 212.7 50.9992 212.7 49.5992C212.7 48.2992 213.4 47.6992 214.8 47.6992C215.2 47.6992 215.5 47.6992 215.8 47.7992V48.5992C215.5 48.4992 215.2 48.4992 214.8 48.4992C214 48.4992 213.6 48.8992 213.6 49.5992C213.6 50.4992 214 50.8992 214.8 50.8992C215.1 50.8992 215.4 50.8992 215.8 50.7992V51.5992Z" fill="white"/>
<path d="M216.2 50.4992C216.2 49.6992 216.8 49.2992 217.9 49.2992C218.2 49.2992 218.4 49.2992 218.7 49.3992V48.9992C218.7 48.5992 218.4 48.4992 217.9 48.4992C217.5 48.4992 217 48.5992 216.4 48.6992V47.8992C216.9 47.7992 217.4 47.6992 217.9 47.6992C219.1 47.6992 219.7 48.0992 219.7 48.9992V51.6992H219.1L218.7 51.2992C218.4 51.4992 218 51.6992 217.5 51.6992C216.7 51.6992 216.2 51.2992 216.2 50.4992ZM218 49.8992C217.5 49.8992 217.3 50.0992 217.3 50.3992C217.3 50.7992 217.5 50.8992 217.9 50.8992C218.2 50.8992 218.5 50.7992 218.8 50.5992V49.9992C218.5 49.9992 218.3 49.8992 218 49.8992Z" fill="white"/>
<path d="M222.5 47.8992C223 47.7992 223.6 47.6992 224.2 47.6992C225.6 47.6992 226.2 48.2992 226.2 49.5992C226.2 50.9992 225.6 51.6992 224.3 51.6992C224 51.6992 223.8 51.5992 223.5 51.4992V53.0992H222.5V47.8992ZM223.5 50.6992C223.8 50.7992 224 50.8992 224.3 50.8992C224.9 50.8992 225.2 50.4992 225.2 49.5992C225.2 48.8992 224.9 48.4992 224.2 48.4992C223.9 48.4992 223.7 48.4992 223.5 48.5992V50.6992Z" fill="white"/>
<path d="M226.8 49.6992C226.8 48.3992 227.5 47.6992 228.8 47.6992C230.1 47.6992 230.8 48.3992 230.8 49.6992C230.8 50.9992 230.1 51.6992 228.8 51.6992C227.4 51.6992 226.8 50.9992 226.8 49.6992ZM228.7 50.8992C229.3 50.8992 229.7 50.4992 229.7 49.5992C229.7 48.7992 229.4 48.3992 228.7 48.3992C228 48.3992 227.7 48.7992 227.7 49.5992C227.8 50.4992 228.1 50.8992 228.7 50.8992Z" fill="white"/>
<path d="M231.5 51.6992V47.6992H232.3L232.4 48.1992C232.7 47.8992 233.1 47.6992 233.5 47.6992V48.4992C233.1 48.4992 232.8 48.6992 232.5 48.9992V51.6992H231.5Z" fill="white"/>
<path d="M236.9 46.3008V51.8008H235.9V46.3008H236.9Z" fill="white"/>
<path d="M238 51.6992V47.6992H238.8L238.9 48.2992C239.3 47.8992 239.7 47.6992 240.2 47.6992C241.1 47.6992 241.6 48.1992 241.6 49.1992V51.6992H240.6V49.1992C240.6 48.7992 240.4 48.4992 239.9 48.4992C239.6 48.4992 239.3 48.5992 238.9 48.8992V51.6992H238Z" fill="white"/>
<path d="M242.5 47.0977H243.2L243.4 47.6977H244.4V48.4977H243.5V50.2977C243.5 50.6977 243.7 50.8977 244 50.8977H244.4V51.6977H243.5C242.8 51.6977 242.5 51.2977 242.5 50.5977V47.0977Z" fill="white"/>
<path d="M246.8 47.6992C248 47.6992 248.6 48.2992 248.6 49.5992C248.6 49.7992 248.6 49.8992 248.6 50.0992H245.9C245.9 50.6992 246.3 50.8992 247.1 50.8992C247.5 50.8992 247.9 50.8992 248.3 50.7992V51.5992C247.9 51.6992 247.5 51.6992 247 51.6992C245.5 51.6992 244.8 50.9992 244.8 49.6992C244.9 48.3992 245.5 47.6992 246.8 47.6992ZM245.9 49.3992H247.6C247.6 48.7992 247.3 48.5992 246.8 48.5992C246.2 48.4992 245.9 48.7992 245.9 49.3992Z" fill="white"/>
<path d="M249.4 51.6992V47.6992H250.2L250.3 48.1992C250.7 47.8992 251 47.6992 251.4 47.6992V48.4992C251 48.4992 250.7 48.6992 250.4 48.9992V51.6992H249.4Z" fill="white"/>
<path d="M251.9 51.6992V47.6992H252.7L252.8 48.2992C253.2 47.8992 253.6 47.6992 254.1 47.6992C255 47.6992 255.5 48.1992 255.5 49.1992V51.6992H254.5V49.1992C254.5 48.7992 254.3 48.4992 253.8 48.4992C253.5 48.4992 253.2 48.5992 252.8 48.8992V51.6992H251.9Z" fill="white"/>
<path d="M258.2 47.6992C259.4 47.6992 260 48.2992 260 49.5992C260 49.7992 260 49.8992 260 50.0992H257.3C257.3 50.6992 257.7 50.8992 258.5 50.8992C258.9 50.8992 259.3 50.8992 259.7 50.7992V51.5992C259.3 51.6992 258.9 51.6992 258.4 51.6992C256.9 51.6992 256.2 50.9992 256.2 49.6992C256.3 48.3992 257 47.6992 258.2 47.6992ZM257.4 49.3992H259.1C259.1 48.7992 258.8 48.5992 258.3 48.5992C257.7 48.4992 257.4 48.7992 257.4 49.3992Z" fill="white"/>
<path d="M260.7 47.0977H261.4L261.6 47.6977H262.6V48.4977H261.7V50.2977C261.7 50.6977 261.9 50.8977 262.2 50.8977H262.6V51.6977H261.7C261 51.6977 260.7 51.2977 260.7 50.5977V47.0977Z" fill="white"/>
<path d="M309.9 51.1016V46.6016H310.8L312.3 50.0016L313.8 46.6016H314.6V51.1016H313.8V47.9016L312.6 51.1016H311.9L310.6 47.9016V51.1016H309.9Z" fill="white"/>
<path d="M316.9 47.8008C317.9 47.8008 318.4 48.3008 318.4 49.3008C318.4 49.4008 318.4 49.6008 318.4 49.7008H316.2C316.2 50.2008 316.5 50.4008 317.2 50.4008C317.5 50.4008 317.9 50.4008 318.2 50.3008V51.0008C317.9 51.1008 317.5 51.1008 317.1 51.1008C315.9 51.1008 315.3 50.5008 315.3 49.4008C315.4 48.3008 315.9 47.8008 316.9 47.8008ZM316.2 49.1008H317.6C317.6 48.6008 317.4 48.4008 316.9 48.4008C316.5 48.4008 316.3 48.7008 316.2 49.1008Z" fill="white"/>
<path d="M319.1 51.1008V47.8008H319.8L319.9 48.3008C320.2 48.0008 320.6 47.8008 321 47.8008C321.8 47.8008 322.2 48.2008 322.2 49.0008V51.1008H321.4V49.0008C321.4 48.6008 321.2 48.4008 320.9 48.4008C320.6 48.4008 320.4 48.5008 320.1 48.7008V51.0008H319.1V51.1008Z" fill="white"/>
<path d="M325.9 47.8016V51.1016H325.2L325.1 50.7016C324.7 51.0016 324.3 51.1016 323.9 51.1016C323.2 51.1016 322.9 50.7016 322.9 49.9016V47.8016H323.7V49.9016C323.7 50.3016 323.9 50.5016 324.2 50.5016C324.5 50.5016 324.7 50.4016 325 50.2016V47.9016H325.9V47.8016ZM324.4 46.6016H325.4L324.6 47.4016H323.9L324.4 46.6016Z" fill="white"/>
<path d="M266.4 83.8008H115.4V126.201H266.4V83.8008Z" fill="#02C1BC"/>
<path d="M135.3 109.299V99.6992H139.8C141.6 99.6992 142.5 100.399 142.5 101.899C142.5 102.999 141.9 103.799 140.7 104.199C142 104.399 142.6 105.199 142.6 106.399C142.6 108.299 141.6 109.199 139.6 109.199H135.3V109.299ZM139.6 107.799C140.4 107.799 140.8 107.399 140.8 106.599C140.8 105.599 140.2 105.099 139 105.099H138.5V103.999C140 103.799 140.7 103.099 140.7 102.199C140.7 101.699 140.4 101.399 139.7 101.399H137.1V107.899H139.6V107.799Z" fill="white"/>
<path d="M143.6 107.198C143.6 105.798 144.6 105.098 146.7 105.098C147.2 105.098 147.7 105.098 148.1 105.198V104.698C148.1 104.098 147.6 103.798 146.7 103.798C145.9 103.798 145.1 103.898 144.1 104.098V102.698C145 102.498 145.9 102.398 146.7 102.398C148.8 102.398 149.8 103.198 149.8 104.698V109.398H148.8L148.2 108.798C147.6 109.198 146.9 109.398 146.2 109.398C144.5 109.298 143.6 108.598 143.6 107.198ZM146.7 106.298C145.8 106.298 145.4 106.598 145.4 107.198C145.4 107.798 145.8 108.098 146.5 108.098C147.1 108.098 147.6 107.898 148.1 107.598V106.498C147.7 106.298 147.2 106.298 146.7 106.298Z" fill="white"/>
<path d="M151.6 109.301V102.301H153L153.2 103.301C153.9 102.601 154.6 102.301 155.5 102.301C157.2 102.301 158 103.201 158 104.901V109.301H156.2V104.901C156.2 104.101 155.8 103.701 155 103.701C154.4 103.701 153.9 103.901 153.3 104.401V109.301H151.6Z" fill="white"/>
<path d="M164.8 109.101C164.2 109.201 163.6 109.301 163 109.301C160.5 109.301 159.2 108.101 159.2 105.701C159.2 103.401 160.5 102.301 163 102.301C163.6 102.301 164.2 102.401 164.8 102.501V103.901C164.2 103.801 163.7 103.701 163.1 103.701C161.7 103.701 161 104.401 161 105.701C161 107.201 161.7 107.901 163.1 107.901C163.6 107.901 164.2 107.801 164.8 107.701V109.101Z" fill="white"/>
<path d="M165.7 107.198C165.7 105.798 166.7 105.098 168.8 105.098C169.3 105.098 169.8 105.098 170.2 105.198V104.698C170.2 104.098 169.7 103.798 168.8 103.798C168 103.798 167.2 103.898 166.2 104.098V102.698C167.1 102.498 168 102.398 168.8 102.398C170.9 102.398 171.9 103.198 171.9 104.698V109.398H170.9L170.3 108.798C169.7 109.198 169 109.398 168.3 109.398C166.5 109.298 165.7 108.598 165.7 107.198ZM168.7 106.298C167.8 106.298 167.4 106.598 167.4 107.198C167.4 107.798 167.8 108.098 168.5 108.098C169.1 108.098 169.6 107.898 170.1 107.598V106.498C169.7 106.298 169.2 106.298 168.7 106.298Z" fill="white"/>
<path d="M176.6 102.601C177.5 102.401 178.5 102.301 179.6 102.301C182 102.301 183.2 103.401 183.2 105.601C183.2 108.101 182.1 109.301 179.9 109.301C179.4 109.301 178.9 109.201 178.5 109.001V111.901H176.7V102.601H176.6ZM178.4 107.501C178.8 107.701 179.3 107.901 179.8 107.901C180.9 107.901 181.4 107.201 181.4 105.701C181.4 104.401 180.8 103.801 179.6 103.801C179.1 103.801 178.7 103.801 178.3 103.901V107.501H178.4Z" fill="white"/>
<path d="M184.1 105.801C184.1 103.401 185.3 102.301 187.6 102.301C189.9 102.301 191.1 103.501 191.1 105.801C191.1 108.201 189.9 109.301 187.6 109.301C185.3 109.401 184.2 108.201 184.1 105.801ZM187.6 108.001C188.7 108.001 189.3 107.301 189.3 105.801C189.3 104.401 188.7 103.701 187.6 103.701C186.5 103.701 185.9 104.401 185.9 105.801C185.9 107.301 186.5 108.001 187.6 108.001Z" fill="white"/>
<path d="M192.4 109.301V102.301H193.8L194 103.201C194.6 102.601 195.3 102.301 196 102.301V103.701C195.3 103.701 194.7 104.001 194.2 104.501V109.301H192.4Z" fill="white"/>
<path d="M201.9 99.8008V109.401H200.1V99.8008H201.9Z" fill="white"/>
<path d="M203.8 109.301V102.301H205.2L205.4 103.301C206.1 102.601 206.8 102.301 207.7 102.301C209.4 102.301 210.2 103.201 210.2 104.901V109.301H208.4V104.901C208.4 104.101 208 103.701 207.2 103.701C206.6 103.701 206.1 103.901 205.5 104.401V109.301H203.8Z" fill="white"/>
<path d="M211.8 101.199H213.1L213.4 102.299H215.2V103.699H213.6V106.899C213.6 107.599 213.9 107.899 214.5 107.899H215.2V109.299H213.6C212.4 109.299 211.8 108.699 211.8 107.399V101.199Z" fill="white"/>
<path d="M219.3 102.301C221.4 102.301 222.5 103.401 222.5 105.601C222.5 105.901 222.5 106.201 222.4 106.501H217.7C217.7 107.501 218.4 108.001 219.9 108.001C220.6 108.001 221.3 107.901 222 107.801V109.201C221.4 109.301 220.6 109.401 219.7 109.401C217.2 109.401 215.9 108.201 215.9 105.801C216 103.501 217.1 102.301 219.3 102.301ZM217.7 105.201H220.7V105.101C220.7 104.101 220.2 103.601 219.2 103.601C218.3 103.701 217.8 104.201 217.7 105.201Z" fill="white"/>
<path d="M223.8 109.301V102.301H225.2L225.4 103.201C226 102.601 226.7 102.301 227.4 102.301V103.701C226.7 103.701 226.1 104.001 225.6 104.501V109.301H223.8Z" fill="white"/>
<path d="M228.4 109.301V102.301H229.8L230 103.301C230.7 102.601 231.4 102.301 232.3 102.301C234 102.301 234.8 103.201 234.8 104.901V109.301H233V104.901C233 104.101 232.6 103.701 231.8 103.701C231.2 103.701 230.7 103.901 230.1 104.401V109.301H228.4Z" fill="white"/>
<path d="M239.4 102.301C241.5 102.301 242.6 103.401 242.6 105.601C242.6 105.901 242.6 106.201 242.5 106.501H237.8C237.8 107.501 238.5 108.001 240 108.001C240.7 108.001 241.4 107.901 242.1 107.801V109.201C241.5 109.301 240.7 109.401 239.8 109.401C237.3 109.401 236 108.201 236 105.801C236.1 103.501 237.2 102.301 239.4 102.301ZM237.9 105.201H240.9V105.101C240.9 104.101 240.4 103.601 239.4 103.601C238.5 103.701 237.9 104.201 237.9 105.201Z" fill="white"/>
<path d="M243.8 101.199H245.1L245.4 102.299H247.2V103.699H245.6V106.899C245.6 107.599 245.9 107.899 246.5 107.899H247.2V109.299H245.6C244.4 109.299 243.8 108.699 243.8 107.399V101.199Z" fill="white"/>
<path d="M339.1 50.3984H332.7V52.2984H339.1V50.3984Z" fill="white"/>
<path d="M340.7 47.6992H332.7V49.5992H340.7V47.6992Z" fill="white"/>
<path d="M342.8 45H332.7V46.9H342.8V45Z" fill="white"/>
<path d="M294.8 52.1016L293.3 50.6016C293.7 50.0016 294 49.2016 294 48.4016C294 46.3016 292.3 44.6016 290.2 44.6016C288.1 44.6016 286.4 46.3016 286.4 48.4016C286.4 50.5016 288.1 52.2016 290.2 52.2016C291.1 52.2016 291.9 51.9016 292.5 51.4016L294 52.9016C294.1 53.0016 294.3 53.1016 294.4 53.1016C294.5 53.1016 294.7 53.0016 294.8 52.9016C295.1 52.7016 295.1 52.3016 294.8 52.1016Z" fill="white"/>
<path d="M290 45.9023C289.8 45.9023 289.5 46.1023 289.5 46.4023C289.5 46.7023 289.7 46.9023 290 46.9023C290.6 46.9023 291 47.2023 291.3 47.7023C291.4 47.9023 291.5 48.0023 291.7 48.0023C291.8 48.0023 291.8 48.0023 291.9 48.0023C292.1 47.9023 292.2 47.6023 292.1 47.4023C291.7 46.4023 290.9 45.9023 290 45.9023Z" fill="#001B45"/>
<defs>
<linearGradient id="paint0_linear" x1="313.91" y1="42.7919" x2="406.615" y2="105.349" gradientUnits="userSpaceOnUse">
<stop stop-color="#EC4289"/>
<stop offset="1" stop-color="#F3963E"/>
</linearGradient>
</defs>
</svg>
