<svg width="392" height="262" viewBox="0 0 392 262" fill="none" xmlns="http://www.w3.org/2000/svg">
<path d="M392 0H0V262H392V0Z" fill="#E3E3E3"/>
<path d="M310.5 48.1992H81.5V261.999H310.5V48.1992Z" fill="#F9F9F9"/>
<path d="M300.2 100.001H91.8999C89.8999 100.001 88.3999 98.4008 88.3999 96.5008V80.8008C88.3999 78.8008 89.9999 77.3008 91.8999 77.3008H300.2C302.2 77.3008 303.7 78.9008 303.7 80.8008V96.5008C303.8 98.4008 302.2 100.001 300.2 100.001Z" fill="white"/>
<path d="M300.2 100.501H91.8999C89.6999 100.501 87.8999 98.7008 87.8999 96.5008V80.8008C87.8999 78.6008 89.6999 76.8008 91.8999 76.8008H300.2C302.4 76.8008 304.2 78.6008 304.2 80.8008V96.5008C304.2 98.7008 302.4 100.501 300.2 100.501ZM91.8999 77.7008C90.1999 77.7008 88.7999 79.1008 88.7999 80.8008V96.5008C88.7999 98.2008 90.1999 99.6008 91.8999 99.6008H300.2C301.9 99.6008 303.3 98.2008 303.3 96.5008V80.8008C303.3 79.1008 301.9 77.7008 300.2 77.7008H91.8999Z" fill="#D6D6D6"/>
<path d="M300.2 139.802H91.8999C89.8999 139.802 88.3999 138.202 88.3999 136.302V120.602C88.3999 118.602 89.9999 117.102 91.8999 117.102H300.2C302.2 117.102 303.7 118.702 303.7 120.602V136.302C303.8 138.302 302.2 139.802 300.2 139.802Z" fill="white"/>
<path d="M300.2 140.302H91.8999C89.6999 140.302 87.8999 138.502 87.8999 136.302V120.602C87.8999 118.402 89.6999 116.602 91.8999 116.602H300.2C302.4 116.602 304.2 118.402 304.2 120.602V136.302C304.2 138.502 302.4 140.302 300.2 140.302ZM91.8999 117.502C90.1999 117.502 88.7999 118.902 88.7999 120.602V136.302C88.7999 138.002 90.1999 139.402 91.8999 139.402H300.2C301.9 139.402 303.3 138.002 303.3 136.302V120.602C303.3 118.902 301.9 117.502 300.2 117.502H91.8999Z" fill="#D6D6D6"/>
<path d="M300.2 203.802H91.8999C89.8999 203.802 88.3999 202.202 88.3999 200.302V184.602C88.3999 182.602 89.9999 181.102 91.8999 181.102H300.2C302.2 181.102 303.7 182.702 303.7 184.602V200.302C303.8 202.202 302.2 203.802 300.2 203.802Z" fill="white"/>
<path d="M300.2 204.2H91.8999C89.6999 204.2 87.8999 202.4 87.8999 200.2V184.5C87.8999 182.3 89.6999 180.5 91.8999 180.5H300.2C302.4 180.5 304.2 182.3 304.2 184.5V200.2C304.2 202.4 302.4 204.2 300.2 204.2ZM91.8999 181.4C90.1999 181.4 88.7999 182.8 88.7999 184.5V200.2C88.7999 201.9 90.1999 203.3 91.8999 203.3H300.2C301.9 203.3 303.3 201.9 303.3 200.2V184.5C303.3 182.8 301.9 181.4 300.2 181.4H91.8999Z" fill="#D6D6D6"/>
<path d="M310.5 0H81.5V25.3H310.5V0Z" fill="#004383"/>
<path d="M310.5 25.3008H81.5V59.1008H310.5V25.3008Z" fill="white"/>
<path d="M310.5 25.3008H81.5V59.1008H310.5V25.3008Z" fill="white"/>
<path d="M118.3 8.40078L115 14.8008C114.9 14.9008 114.7 14.9008 114.7 14.8008L111.4 8.40078C111.4 8.30078 111.3 8.30078 111.2 8.30078H109.6C109.5 8.30078 109.4 8.40078 109.5 8.50078L114.8 18.4008C114.9 18.5008 115.1 18.5008 115.1 18.4008L120.4 8.50078C120.5 8.40078 120.4 8.30078 120.3 8.30078H118.7C118.4 8.30078 118.3 8.30078 118.3 8.40078Z" fill="white"/>
<path d="M120.2 16.8992L123.5 10.4992C123.6 10.3992 123.8 10.3992 123.8 10.4992L127.1 16.8992C127.1 16.9992 127.2 16.9992 127.3 16.9992H128.9C129 16.9992 129.1 16.8992 129 16.7992L123.7 6.89922C123.6 6.79922 123.4 6.79922 123.4 6.89922L118.1 16.7992C118 16.8992 118.1 16.9992 118.2 16.9992H119.8C120.1 16.9992 120.2 16.9992 120.2 16.8992Z" fill="white"/>
<path d="M97.3 13.0008C98 12.7008 98.4 11.9008 98.4 11.0008C98.4 9.40078 97.2 8.30078 95.4 8.30078H90.4C90.3 8.30078 90.2 8.40078 90.2 8.50078V18.3008C90.2 18.4008 90.3 18.5008 90.4 18.5008H95.2C97.6 18.5008 98.9 17.5008 98.9 15.4008C98.9 13.5008 97.3 13.0008 97.3 13.0008ZM92.2 9.80078H95.2C96.3 9.80078 96.9 10.3008 96.9 11.1008C96.9 12.0008 96.3 12.4008 95.2 12.4008H92.2C92.1 12.4008 92 12.3008 92 12.2008V10.0008C92 9.90078 92 9.80078 92.2 9.80078ZM95.2 17.0008H92.2C92 17.0008 92 16.9008 92 16.8008V14.1008C92 14.0008 92.1 13.9008 92.2 13.9008H95.2C96.6 13.9008 97.3 14.3008 97.3 15.4008C97.2 16.6008 96.6 17.0008 95.2 17.0008Z" fill="white"/>
<path d="M107.6 13.0008C108.3 12.7008 108.7 11.9008 108.7 11.0008C108.7 9.40078 107.5 8.30078 105.7 8.30078H100.7C100.6 8.30078 100.5 8.40078 100.5 8.50078V18.3008C100.5 18.4008 100.6 18.5008 100.7 18.5008H105.5C107.9 18.5008 109.2 17.5008 109.2 15.4008C109.2 13.5008 107.6 13.0008 107.6 13.0008ZM102.4 9.80078H105.4C106.5 9.80078 107.1 10.3008 107.1 11.1008C107.1 12.0008 106.5 12.4008 105.4 12.4008H102.4C102.3 12.4008 102.2 12.3008 102.2 12.2008V10.0008C102.2 9.90078 102.3 9.80078 102.4 9.80078ZM105.4 17.0008H102.4C102.3 17.0008 102.2 16.9008 102.2 16.8008V14.1008C102.2 14.0008 102.3 13.9008 102.4 13.9008H105.4C106.8 13.9008 107.5 14.3008 107.5 15.4008C107.5 16.6008 106.9 17.0008 105.4 17.0008Z" fill="white"/>
<path d="M108.1 46.0016V40.6016H110.6C111.6 40.6016 112.1 41.0016 112.1 41.9016C112.1 42.5016 111.8 43.0016 111.1 43.2016C111.8 43.3016 112.2 43.7016 112.2 44.4016C112.2 45.5016 111.6 46.0016 110.5 46.0016H108.1ZM110.5 45.2016C110.9 45.2016 111.2 45.0016 111.2 44.5016C111.2 43.9016 110.9 43.7016 110.2 43.7016H109.9V43.0016C110.7 42.9016 111.2 42.5016 111.2 42.0016C111.2 41.7016 111 41.5016 110.6 41.5016H109.1V45.2016H110.5Z" fill="#232323"/>
<path d="M112.8 44.8016C112.8 44.0016 113.4 43.6016 114.5 43.6016C114.8 43.6016 115 43.6016 115.3 43.7016V43.4016C115.3 43.0016 115 42.9016 114.5 42.9016C114.1 42.9016 113.6 43.0016 113.1 43.1016V42.3016C113.6 42.2016 114.1 42.1016 114.5 42.1016C115.7 42.1016 116.3 42.5016 116.3 43.4016V46.0016H115.7L115.3 45.6016C115 45.8016 114.6 46.0016 114.2 46.0016C113.3 46.0016 112.8 45.6016 112.8 44.8016ZM114.5 44.3016C114 44.3016 113.8 44.5016 113.8 44.8016C113.8 45.2016 114 45.3016 114.4 45.3016C114.7 45.3016 115 45.2016 115.3 45.0016V44.4016C115.1 44.3016 114.8 44.3016 114.5 44.3016Z" fill="#232323"/>
<path d="M117.3 46V42H118.1L118.2 42.6C118.6 42.2 119 42 119.5 42C120.4 42 120.9 42.5 120.9 43.5V46H119.9V43.5C119.9 43.1 119.7 42.8 119.2 42.8C118.9 42.8 118.6 42.9 118.2 43.2V46H117.3Z" fill="#232323"/>
<path d="M124.8 45.9C124.5 46 124.1 46 123.8 46C122.4 46 121.7 45.3 121.7 43.9C121.7 42.6 122.4 42 123.8 42C124.2 42 124.5 42 124.8 42.1V43C124.5 42.9 124.2 42.9 123.9 42.9C123.1 42.9 122.7 43.3 122.7 44C122.7 44.8 123.1 45.3 123.9 45.3C124.2 45.3 124.5 45.3 124.8 45.2V45.9Z" fill="#232323"/>
<path d="M125.3 44.8016C125.3 44.0016 125.9 43.6016 127 43.6016C127.3 43.6016 127.5 43.6016 127.8 43.7016V43.4016C127.8 43.0016 127.5 42.9016 127 42.9016C126.6 42.9016 126.1 43.0016 125.6 43.1016V42.3016C126.1 42.2016 126.6 42.1016 127 42.1016C128.2 42.1016 128.8 42.5016 128.8 43.4016V46.0016H128.2L127.8 45.6016C127.5 45.8016 127.1 46.0016 126.7 46.0016C125.8 46.0016 125.3 45.6016 125.3 44.8016ZM127 44.3016C126.5 44.3016 126.3 44.5016 126.3 44.8016C126.3 45.2016 126.5 45.3016 126.9 45.3016C127.2 45.3016 127.5 45.2016 127.8 45.0016V44.4016C127.6 44.3016 127.3 44.3016 127 44.3016Z" fill="#232323"/>
<path d="M131.5 46V42H132.3L132.4 42.6C132.8 42.2 133.2 42 133.7 42C134.2 42 134.5 42.2 134.7 42.5C135.1 42.1 135.5 42 136 42C136.9 42 137.4 42.5 137.4 43.5V46H136.4V43.5C136.4 43.1 136.2 42.8 135.8 42.8C135.5 42.8 135.2 42.9 134.9 43.2V46H133.9V43.5C133.9 43.1 133.7 42.8 133.3 42.8C133 42.8 132.7 42.9 132.5 43.2V46H131.5Z" fill="#232323"/>
<path d="M138.1 44.1016C138.1 42.8016 138.8 42.1016 140.1 42.1016C141.4 42.1016 142.1 42.8016 142.1 44.1016C142.1 45.4016 141.4 46.1016 140.1 46.1016C138.7 46.0016 138.1 45.4016 138.1 44.1016ZM140.1 45.3016C140.7 45.3016 141.1 44.9016 141.1 44.1016C141.1 43.3016 140.8 42.9016 140.1 42.9016C139.5 42.9016 139.1 43.3016 139.1 44.1016C139.1 44.9016 139.4 45.3016 140.1 45.3016ZM140 40.6016H141.2L140.3 41.6016H139.5L140 40.6016Z" fill="#232323"/>
<path d="M142.3 42.1016H143.4L144.4 44.9016L145.4 42.1016H146.5L144.9 46.1016H143.9L142.3 42.1016Z" fill="#232323"/>
<path d="M147.9 40.6016V41.4016H146.9V40.6016H147.9ZM147.9 42.1016V46.1016H146.9V42.1016H147.9Z" fill="#232323"/>
<path d="M149.8 40.6016V46.0016H148.8V40.6016H149.8Z" fill="#232323"/>
<path d="M91.3001 68.1016V69.0016H89.7001V73.5016H88.7001V69.0016H87.1001V68.1016H91.3001Z" fill="#232323"/>
<path d="M92.8 68.1016V68.9016H91.8V68.1016H92.8ZM92.8 69.5016V73.5016H91.8V69.5016H92.8Z" fill="#232323"/>
<path d="M93.8 69.7C94.3 69.6 94.9 69.5 95.5 69.5C96.9 69.5 97.5 70.1 97.5 71.4C97.5 72.8 96.9 73.5 95.6 73.5C95.3 73.5 95.1 73.4 94.8 73.3V74.9H93.8V69.7ZM94.8 72.4C95.1 72.5 95.3 72.6 95.6 72.6C96.2 72.6 96.5 72.2 96.5 71.3C96.5 70.6 96.2 70.2 95.5 70.2C95.2 70.2 95 70.2 94.8 70.3V72.4Z" fill="#232323"/>
<path d="M98 71.5C98 70.2 98.7 69.5 100 69.5C101.3 69.5 102 70.2 102 71.5C102 72.8 101.3 73.5 100 73.5C98.7 73.5 98 72.8 98 71.5ZM100 72.7C100.6 72.7 101 72.3 101 71.5C101 70.7 100.7 70.3 100 70.3C99.4 70.3 99 70.7 99 71.5C99 72.3 99.4 72.7 100 72.7Z" fill="#232323"/>
<path d="M108 73.2C107.4 73.4 106.8 73.4 106.2 73.4C104.9 73.4 104.3 72.7 104.3 71.3C104.3 70 104.9 69.4 106.2 69.4C106.5 69.4 106.7 69.5 107 69.6V68H108V73.2ZM107 70.5C106.8 70.4 106.5 70.3 106.2 70.3C105.6 70.3 105.3 70.7 105.3 71.3C105.3 72.1 105.6 72.5 106.3 72.5C106.6 72.5 106.8 72.5 107 72.4V70.5Z" fill="#232323"/>
<path d="M110.6 69.5C111.8 69.5 112.4 70.1 112.4 71.3C112.4 71.5 112.4 71.6 112.4 71.8H109.8C109.8 72.4 110.2 72.6 111 72.6C111.4 72.6 111.8 72.6 112.2 72.5V73.3C111.8 73.4 111.4 73.4 110.9 73.4C109.5 73.4 108.7 72.7 108.7 71.4C108.7 70.1 109.3 69.5 110.6 69.5ZM109.7 71.1H111.4C111.4 70.5 111.1 70.3 110.6 70.3C110.1 70.3 109.8 70.6 109.7 71.1Z" fill="#232323"/>
<path d="M118.4 73.2C117.8 73.4 117.2 73.4 116.6 73.4C115.3 73.4 114.7 72.7 114.7 71.3C114.7 70 115.3 69.4 116.6 69.4C116.9 69.4 117.1 69.5 117.4 69.6V68H118.4V73.2ZM117.4 70.5C117.2 70.4 116.9 70.3 116.6 70.3C116 70.3 115.7 70.7 115.7 71.3C115.7 72.1 116 72.5 116.7 72.5C117 72.5 117.2 72.5 117.4 72.4V70.5Z" fill="#232323"/>
<path d="M119.1 71.5C119.1 70.2 119.8 69.5 121.1 69.5C122.4 69.5 123.1 70.2 123.1 71.5C123.1 72.8 122.4 73.5 121.1 73.5C119.8 73.5 119.1 72.8 119.1 71.5ZM121.1 72.7C121.7 72.7 122.1 72.3 122.1 71.5C122.1 70.7 121.8 70.3 121.1 70.3C120.5 70.3 120.1 70.7 120.1 71.5C120.1 72.3 120.5 72.7 121.1 72.7Z" fill="#232323"/>
<path d="M126.8 73.4C126.5 73.5 126.1 73.5 125.8 73.5C124.4 73.5 123.7 72.8 123.7 71.4C123.7 70.1 124.4 69.5 125.8 69.5C126.2 69.5 126.5 69.5 126.8 69.6V70.4C126.5 70.3 126.2 70.3 125.9 70.3C125.1 70.3 124.7 70.7 124.7 71.4C124.7 72.2 125.1 72.7 125.9 72.7C126.2 72.7 126.5 72.7 126.8 72.6V73.4Z" fill="#232323"/>
<path d="M131 69.5V73.5H130.2L130.1 73C129.6 73.3 129.2 73.5 128.6 73.5C127.8 73.5 127.4 73 127.4 72.1V69.6H128.4V72C128.4 72.4 128.6 72.7 129 72.7C129.3 72.7 129.7 72.6 130 72.3V69.5H131Z" fill="#232323"/>
<path d="M132 73.5V69.5H132.8L132.9 70.1C133.3 69.7 133.7 69.5 134.2 69.5C134.7 69.5 135 69.7 135.2 70C135.6 69.6 136 69.5 136.5 69.5C137.4 69.5 137.9 70 137.9 71V73.5H136.9V71C136.9 70.6 136.7 70.3 136.3 70.3C136 70.3 135.7 70.4 135.4 70.7V73.5H134.4V71C134.4 70.6 134.2 70.3 133.8 70.3C133.5 70.3 133.2 70.4 133 70.7V73.5H132Z" fill="#232323"/>
<path d="M140.4 69.5C141.6 69.5 142.2 70.1 142.2 71.3C142.2 71.5 142.2 71.6 142.2 71.8H139.6C139.6 72.4 140 72.6 140.8 72.6C141.2 72.6 141.6 72.6 142 72.5V73.3C141.6 73.4 141.2 73.4 140.7 73.4C139.3 73.4 138.5 72.7 138.5 71.4C138.6 70.1 139.2 69.5 140.4 69.5ZM139.6 71.1H141.3C141.3 70.5 141 70.3 140.5 70.3C139.9 70.3 139.6 70.6 139.6 71.1Z" fill="#232323"/>
<path d="M143 73.5V69.5H143.8L143.9 70.1C144.3 69.7 144.7 69.5 145.2 69.5C146.1 69.5 146.6 70 146.6 71V73.5H145.6V71C145.6 70.6 145.4 70.3 144.9 70.3C144.6 70.3 144.3 70.4 143.9 70.7V73.5H143Z" fill="#232323"/>
<path d="M147.5 68.8008H148.2L148.4 69.4008H149.4V70.2008H148.5V72.0008C148.5 72.4008 148.7 72.6008 149 72.6008H149.4V73.4008H148.5C147.8 73.4008 147.5 73.0008 147.5 72.3008V68.8008Z" fill="#232323"/>
<path d="M149.9 71.5C149.9 70.2 150.6 69.5 151.9 69.5C153.2 69.5 153.9 70.2 153.9 71.5C153.9 72.8 153.2 73.5 151.9 73.5C150.6 73.5 149.9 72.8 149.9 71.5ZM151.9 72.7C152.5 72.7 152.9 72.3 152.9 71.5C152.9 70.7 152.6 70.3 151.9 70.3C151.3 70.3 150.9 70.7 150.9 71.5C150.9 72.3 151.2 72.7 151.9 72.7Z" fill="#232323"/>
<path d="M94.3999 91.4V86H96.4999C98.2999 86 99.1999 86.9 99.1999 88.6C99.1999 90.5 98.2999 91.5 96.4999 91.5H94.3999V91.4ZM96.4999 90.5C97.5999 90.5 98.1999 89.8 98.1999 88.5C98.1999 87.4 97.5999 86.8 96.4999 86.8H95.3999V90.5H96.4999Z" fill="#828587"/>
<path d="M100.1 91.4V86H101.1L104 89.9V86H105V91.4H104L101.1 87.4V91.4H100.1Z" fill="#828587"/>
<path d="M107.1 86V91.4H106.1V86H107.1Z" fill="#828587"/>
<path d="M97.9 35.5H90.9C90.3 35.5 89.8 36 89.8 36.6V50.1C89.8 50.7 90.3 51.2 90.9 51.2H97.9C98.5 51.2 99 50.7 99 50.1V36.6C98.9 36 98.4 35.5 97.9 35.5ZM93.3 36.3H95.5C95.6 36.3 95.6 36.4 95.6 36.4C95.6 36.5 95.5 36.5 95.5 36.5H93.3C93.2 36.5 93.2 36.4 93.2 36.4C93.1 36.3 93.2 36.3 93.3 36.3ZM94.4 50.6C94.1 50.6 93.9 50.4 93.9 50.1C93.9 49.8 94.1 49.6 94.4 49.6C94.7 49.6 94.9 49.8 94.9 50.1C94.9 50.4 94.7 50.6 94.4 50.6ZM98.2 49.2H90.6V37.2H98.2V49.2Z" fill="#00B5F1"/>
<path d="M305.6 41.6992H297.7V42.5992H305.6V41.6992Z" fill="#E7E6E6"/>
<path d="M292 91.3992L295.8 87.6992H288.1L292 91.3992Z" fill="#232323"/>
<path d="M87.8 113.298V107.898H88.8L91.7 111.798V107.898H92.7V113.298H91.7L88.8 109.298V113.298H87.8Z" fill="#232323"/>
<path d="M97.3 109.298V113.298H96.5L96.4 112.798C95.9 113.098 95.5 113.298 94.9 113.298C94.1 113.298 93.7 112.798 93.7 111.898V109.398H94.7V111.898C94.7 112.298 94.9 112.598 95.3 112.598C95.6 112.598 96 112.498 96.3 112.198V109.398H97.3V109.298ZM95.4 107.898H96.6L95.7 108.898H94.9L95.4 107.898Z" fill="#232323"/>
<path d="M98.2 113.297V109.297H99L99.1 109.897C99.5 109.497 99.9 109.297 100.4 109.297C100.9 109.297 101.2 109.497 101.4 109.797C101.8 109.397 102.2 109.297 102.7 109.297C103.6 109.297 104.1 109.797 104.1 110.797V113.297H103.1V110.797C103.1 110.397 102.9 110.097 102.5 110.097C102.2 110.097 101.9 110.197 101.6 110.497V113.297H100.6V110.797C100.6 110.397 100.4 110.097 100 110.097C99.7 110.097 99.4 110.197 99.2 110.497V113.297H98.2Z" fill="#232323"/>
<path d="M106.7 109.297C107.9 109.297 108.5 109.897 108.5 111.097C108.5 111.297 108.5 111.397 108.5 111.597H105.9C105.9 112.197 106.3 112.397 107.1 112.397C107.5 112.397 107.9 112.397 108.3 112.297V113.097C107.9 113.197 107.5 113.197 107 113.197C105.6 113.197 104.8 112.497 104.8 111.197C104.8 109.997 105.4 109.297 106.7 109.297ZM105.8 110.997H107.5C107.5 110.397 107.2 110.197 106.7 110.197C106.1 110.097 105.9 110.397 105.8 110.997Z" fill="#232323"/>
<path d="M109.2 113.297V109.297H110L110.1 109.797C110.4 109.497 110.8 109.297 111.2 109.297V110.097C110.8 110.097 110.5 110.297 110.2 110.597V113.297H109.2Z" fill="#232323"/>
<path d="M111.6 111.297C111.6 109.997 112.3 109.297 113.6 109.297C114.9 109.297 115.6 109.997 115.6 111.297C115.6 112.597 114.9 113.297 113.6 113.297C112.3 113.297 111.6 112.597 111.6 111.297ZM113.6 112.497C114.2 112.497 114.6 112.097 114.6 111.297C114.6 110.497 114.3 110.097 113.6 110.097C113 110.097 112.6 110.497 112.6 111.297C112.6 112.097 113 112.497 113.6 112.497Z" fill="#232323"/>
<path d="M121.6 113.098C121 113.298 120.4 113.298 119.8 113.298C118.5 113.298 117.9 112.598 117.9 111.198C117.9 109.898 118.5 109.298 119.8 109.298C120.1 109.298 120.3 109.398 120.6 109.498V107.898H121.6V113.098ZM120.5 110.398C120.3 110.298 120 110.198 119.7 110.198C119.1 110.198 118.8 110.598 118.8 111.198C118.8 111.998 119.1 112.398 119.8 112.398C120.1 112.398 120.3 112.398 120.5 112.298V110.398Z" fill="#232323"/>
<path d="M124.2 109.297C125.4 109.297 126 109.897 126 111.097C126 111.297 126 111.397 126 111.597H123.4C123.4 112.197 123.8 112.397 124.6 112.397C125 112.397 125.4 112.397 125.8 112.297V113.097C125.4 113.197 125 113.197 124.5 113.197C123.1 113.197 122.3 112.497 122.3 111.197C122.3 109.997 122.9 109.297 124.2 109.297ZM123.3 110.997H125C125 110.397 124.7 110.197 124.2 110.197C123.6 110.097 123.4 110.397 123.3 110.997Z" fill="#232323"/>
<path d="M132 113.098C131.4 113.298 130.8 113.298 130.2 113.298C128.9 113.298 128.3 112.598 128.3 111.198C128.3 109.898 128.9 109.298 130.2 109.298C130.5 109.298 130.7 109.398 131 109.498V107.898H132V113.098ZM131 110.398C130.8 110.298 130.5 110.198 130.2 110.198C129.6 110.198 129.3 110.598 129.3 111.198C129.3 111.998 129.6 112.398 130.3 112.398C130.6 112.398 130.8 112.398 131 112.298V110.398Z" fill="#232323"/>
<path d="M132.7 111.297C132.7 109.997 133.4 109.297 134.7 109.297C136 109.297 136.7 109.997 136.7 111.297C136.7 112.597 136 113.297 134.7 113.297C133.4 113.297 132.7 112.597 132.7 111.297ZM134.7 112.497C135.3 112.497 135.7 112.097 135.7 111.297C135.7 110.497 135.4 110.097 134.7 110.097C134.1 110.097 133.7 110.497 133.7 111.297C133.7 112.097 134.1 112.497 134.7 112.497Z" fill="#232323"/>
<path d="M140.4 113.197C140.1 113.297 139.7 113.297 139.4 113.297C138 113.297 137.3 112.597 137.3 111.197C137.3 109.897 138 109.297 139.4 109.297C139.8 109.297 140.1 109.297 140.4 109.397V110.197C140.1 110.097 139.8 110.097 139.5 110.097C138.7 110.097 138.3 110.497 138.3 111.197C138.3 111.997 138.7 112.497 139.5 112.497C139.8 112.497 140.1 112.497 140.4 112.397V113.197Z" fill="#232323"/>
<path d="M144.6 109.297V113.297H143.8L143.7 112.797C143.2 113.097 142.8 113.297 142.2 113.297C141.4 113.297 141 112.797 141 111.897V109.397H142V111.897C142 112.297 142.2 112.597 142.6 112.597C142.9 112.597 143.3 112.497 143.6 112.197V109.397H144.6V109.297Z" fill="#232323"/>
<path d="M145.5 113.297V109.297H146.3L146.4 109.897C146.8 109.497 147.2 109.297 147.7 109.297C148.2 109.297 148.5 109.497 148.7 109.797C149.1 109.397 149.5 109.297 150 109.297C150.9 109.297 151.4 109.797 151.4 110.797V113.297H150.4V110.797C150.4 110.397 150.2 110.097 149.8 110.097C149.5 110.097 149.2 110.197 148.9 110.497V113.297H147.9V110.797C147.9 110.397 147.7 110.097 147.3 110.097C147 110.097 146.7 110.197 146.5 110.497V113.297H145.5Z" fill="#232323"/>
<path d="M154 109.297C155.2 109.297 155.8 109.897 155.8 111.097C155.8 111.297 155.8 111.397 155.8 111.597H153.2C153.2 112.197 153.6 112.397 154.4 112.397C154.8 112.397 155.2 112.397 155.6 112.297V113.097C155.2 113.197 154.8 113.197 154.3 113.197C152.9 113.197 152.1 112.497 152.1 111.197C152.2 109.997 152.8 109.297 154 109.297ZM153.2 110.997H154.9C154.9 110.397 154.6 110.197 154.1 110.197C153.5 110.097 153.2 110.397 153.2 110.997Z" fill="#232323"/>
<path d="M156.6 113.297V109.297H157.4L157.5 109.897C157.9 109.497 158.3 109.297 158.8 109.297C159.7 109.297 160.2 109.797 160.2 110.797V113.297H159.2V110.797C159.2 110.397 159 110.097 158.5 110.097C158.2 110.097 157.9 110.197 157.5 110.497V113.297H156.6Z" fill="#232323"/>
<path d="M161.1 108.699H161.8L162 109.299H163V110.099H162.1V111.899C162.1 112.299 162.3 112.499 162.6 112.499H163V113.299H162.1C161.4 113.299 161.1 112.899 161.1 112.199V108.699Z" fill="#232323"/>
<path d="M163.5 111.297C163.5 109.997 164.2 109.297 165.5 109.297C166.8 109.297 167.5 109.997 167.5 111.297C167.5 112.597 166.8 113.297 165.5 113.297C164.1 113.297 163.5 112.597 163.5 111.297ZM165.5 112.497C166.1 112.497 166.5 112.097 166.5 111.297C166.5 110.497 166.2 110.097 165.5 110.097C164.9 110.097 164.5 110.497 164.5 111.297C164.5 112.097 164.8 112.497 165.5 112.497Z" fill="#232323"/>
<path d="M95.3999 125.801V131.201H94.3999V125.801H95.3999Z" fill="#828587"/>
<path d="M96.5 131.199V127.199H97.3L97.4 127.799C97.8 127.399 98.2 127.199 98.7 127.199C99.6 127.199 100.1 127.699 100.1 128.699V131.199H99.1V128.699C99.1 128.299 98.9 127.999 98.4 127.999C98.1 127.999 97.8 128.099 97.4 128.399V131.199H96.5Z" fill="#828587"/>
<path d="M104.6 130.899C104.6 132.099 103.9 132.599 102.5 132.599C102 132.599 101.6 132.499 101.2 132.399V131.599C101.6 131.699 102 131.799 102.5 131.799C103.2 131.799 103.6 131.499 103.6 130.899C103.3 130.999 103 131.099 102.6 131.099C101.4 131.099 100.8 130.499 100.8 129.199C100.8 127.899 101.5 127.199 102.9 127.199C103.4 127.199 103.9 127.299 104.6 127.399V130.899ZM103.6 128.099C103.4 127.999 103.2 127.999 102.9 127.999C102.2 127.999 101.9 128.399 101.9 129.099C101.9 129.799 102.2 130.199 102.8 130.199C103.1 130.199 103.4 130.099 103.6 129.999V128.099Z" fill="#828587"/>
<path d="M105.5 131.199V127.199H106.3L106.4 127.699C106.7 127.399 107.1 127.199 107.5 127.199V127.999C107.1 127.999 106.8 128.199 106.5 128.499V131.199H105.5Z" fill="#828587"/>
<path d="M109.8 127.199C111 127.199 111.6 127.799 111.6 128.999C111.6 129.199 111.6 129.299 111.6 129.499H109C109 130.099 109.4 130.299 110.2 130.299C110.6 130.299 111 130.299 111.4 130.199V130.999C111 131.099 110.6 131.099 110.1 131.099C108.7 131.099 107.9 130.399 107.9 129.099C107.9 127.899 108.5 127.199 109.8 127.199ZM108.9 128.899H110.6C110.6 128.299 110.3 128.099 109.8 128.099C109.2 127.999 109 128.299 108.9 128.899Z" fill="#828587"/>
<path d="M112.3 130.999V130.199C112.7 130.399 113.3 130.499 113.8 130.499C114.2 130.499 114.4 130.399 114.4 130.099C114.4 129.799 114.3 129.699 114 129.699H113.3C112.5 129.699 112.1 129.299 112.1 128.499C112.1 127.699 112.7 127.199 113.9 127.199C114.4 127.199 114.9 127.299 115.3 127.399V128.199C114.9 127.999 114.4 127.899 113.9 127.899C113.4 127.899 113.1 127.999 113.1 128.299C113.1 128.599 113.3 128.699 113.6 128.699H114.2C115.1 128.699 115.5 129.099 115.5 129.899C115.5 130.699 114.9 131.199 113.8 131.199C113.3 131.199 112.8 131.199 112.3 130.999Z" fill="#828587"/>
<path d="M116 130.001C116 129.201 116.6 128.801 117.7 128.801C118 128.801 118.2 128.801 118.5 128.901V128.601C118.5 128.201 118.2 128.101 117.7 128.101C117.3 128.101 116.8 128.201 116.3 128.301V127.501C116.8 127.401 117.3 127.301 117.7 127.301C118.9 127.301 119.5 127.701 119.5 128.601V131.301H119L118.6 130.901C118.3 131.101 117.9 131.301 117.5 131.301C116.5 131.201 116 130.801 116 130.001ZM117.8 129.501C117.3 129.501 117.1 129.701 117.1 130.001C117.1 130.401 117.3 130.501 117.7 130.501C118 130.501 118.3 130.401 118.6 130.201V129.601C118.3 129.501 118 129.501 117.8 129.501Z" fill="#828587"/>
<path d="M122.2 131.199V127.199H123L123.1 127.799C123.5 127.399 123.9 127.199 124.4 127.199C125.3 127.199 125.8 127.699 125.8 128.699V131.199H124.8V128.699C124.8 128.299 124.6 127.999 124.1 127.999C123.8 127.999 123.5 128.099 123.1 128.399V131.199H122.2Z" fill="#828587"/>
<path d="M130.4 127.201V131.201H129.6L129.5 130.701C129 131.001 128.6 131.201 128 131.201C127.2 131.201 126.8 130.701 126.8 129.801V127.301H127.8V129.801C127.8 130.201 128 130.501 128.4 130.501C128.7 130.501 129.1 130.401 129.4 130.101V127.301H130.4V127.201ZM128.5 125.801H129.7L128.8 126.801H128L128.5 125.801Z" fill="#828587"/>
<path d="M131.3 131.199V127.199H132.1L132.2 127.799C132.6 127.399 133 127.199 133.5 127.199C134 127.199 134.3 127.399 134.5 127.699C134.9 127.299 135.3 127.199 135.8 127.199C136.7 127.199 137.2 127.699 137.2 128.699V131.199H136.2V128.699C136.2 128.299 136 127.999 135.6 127.999C135.3 127.999 135 128.099 134.7 128.399V131.199H133.7V128.699C133.7 128.299 133.5 127.999 133.1 127.999C132.8 127.999 132.5 128.099 132.3 128.399V131.199H131.3Z" fill="#828587"/>
<path d="M139.8 127.199C141 127.199 141.6 127.799 141.6 128.999C141.6 129.199 141.6 129.299 141.6 129.499H139C139 130.099 139.4 130.299 140.2 130.299C140.6 130.299 141 130.299 141.4 130.199V130.999C141 131.099 140.6 131.099 140.1 131.099C138.7 131.099 137.9 130.399 137.9 129.099C137.9 127.899 138.6 127.199 139.8 127.199ZM138.9 128.899H140.6C140.6 128.299 140.3 128.099 139.8 128.099C139.3 127.999 139 128.299 138.9 128.899Z" fill="#828587"/>
<path d="M142.4 131.199V127.199H143.2L143.3 127.699C143.6 127.399 144 127.199 144.4 127.199V127.999C144 127.999 143.7 128.199 143.4 128.499V131.199H142.4Z" fill="#828587"/>
<path d="M144.7 129.199C144.7 127.899 145.4 127.199 146.7 127.199C148 127.199 148.7 127.899 148.7 129.199C148.7 130.499 148 131.199 146.7 131.199C145.4 131.199 144.8 130.599 144.7 129.199ZM146.7 130.499C147.3 130.499 147.7 130.099 147.7 129.299C147.7 128.499 147.4 128.099 146.7 128.099C146.1 128.099 145.7 128.499 145.7 129.299C145.8 129.999 146.1 130.499 146.7 130.499Z" fill="#828587"/>
<path d="M154.7 131.001C154.1 131.201 153.5 131.201 152.9 131.201C151.6 131.201 151 130.501 151 129.101C151 127.801 151.6 127.201 152.9 127.201C153.2 127.201 153.4 127.301 153.7 127.401V125.801H154.7V131.001ZM153.7 128.301C153.5 128.201 153.2 128.101 152.9 128.101C152.3 128.101 152 128.501 152 129.101C152 129.901 152.3 130.301 153 130.301C153.3 130.301 153.5 130.301 153.7 130.201V128.301Z" fill="#828587"/>
<path d="M157.3 127.199C158.5 127.199 159.1 127.799 159.1 128.999C159.1 129.199 159.1 129.299 159.1 129.499H156.5C156.5 130.099 156.9 130.299 157.7 130.299C158.1 130.299 158.5 130.299 158.9 130.199V130.999C158.5 131.099 158.1 131.099 157.6 131.099C156.2 131.099 155.4 130.399 155.4 129.099C155.4 127.899 156.1 127.199 157.3 127.199ZM156.4 128.899H158.1C158.1 128.299 157.8 128.099 157.3 128.099C156.8 127.999 156.5 128.299 156.4 128.899Z" fill="#828587"/>
<path d="M165.1 131.001C164.5 131.201 163.9 131.201 163.3 131.201C162 131.201 161.4 130.501 161.4 129.101C161.4 127.801 162 127.201 163.3 127.201C163.6 127.201 163.8 127.301 164.1 127.401V125.801H165.1V131.001ZM164.1 128.301C163.9 128.201 163.6 128.101 163.3 128.101C162.7 128.101 162.4 128.501 162.4 129.101C162.4 129.901 162.7 130.301 163.4 130.301C163.7 130.301 163.9 130.301 164.1 130.201V128.301Z" fill="#828587"/>
<path d="M165.8 129.199C165.8 127.899 166.5 127.199 167.8 127.199C169.1 127.199 169.8 127.899 169.8 129.199C169.8 130.499 169.1 131.199 167.8 131.199C166.5 131.199 165.8 130.599 165.8 129.199ZM167.8 130.499C168.4 130.499 168.8 130.099 168.8 129.299C168.8 128.499 168.5 128.099 167.8 128.099C167.2 128.099 166.8 128.499 166.8 129.299C166.8 129.999 167.2 130.499 167.8 130.499Z" fill="#828587"/>
<path d="M173.5 131.099C173.2 131.199 172.8 131.199 172.5 131.199C171.1 131.199 170.4 130.499 170.4 129.099C170.4 127.799 171.1 127.199 172.5 127.199C172.9 127.199 173.2 127.199 173.5 127.299V128.099C173.2 127.999 172.9 127.999 172.6 127.999C171.8 127.999 171.4 128.399 171.4 129.099C171.4 129.899 171.8 130.399 172.6 130.399C172.9 130.399 173.2 130.399 173.5 130.299V131.099Z" fill="#828587"/>
<path d="M177.7 127.199V131.199H176.9L176.8 130.699C176.3 130.999 175.9 131.199 175.3 131.199C174.5 131.199 174.1 130.699 174.1 129.799V127.299H175.1V129.799C175.1 130.199 175.3 130.499 175.7 130.499C176 130.499 176.4 130.399 176.7 130.099V127.299H177.7V127.199Z" fill="#828587"/>
<path d="M178.7 131.199V127.199H179.5L179.6 127.799C180 127.399 180.4 127.199 180.9 127.199C181.4 127.199 181.7 127.399 181.9 127.699C182.3 127.299 182.7 127.199 183.2 127.199C184.1 127.199 184.6 127.699 184.6 128.699V131.199H183.6V128.699C183.6 128.299 183.4 127.999 183 127.999C182.7 127.999 182.4 128.099 182.1 128.399V131.199H181.1V128.699C181.1 128.299 180.9 127.999 180.5 127.999C180.2 127.999 179.9 128.099 179.7 128.399V131.199H178.7Z" fill="#828587"/>
<path d="M187.1 127.199C188.3 127.199 188.9 127.799 188.9 128.999C188.9 129.199 188.9 129.299 188.9 129.499H186.3C186.3 130.099 186.7 130.299 187.5 130.299C187.9 130.299 188.3 130.299 188.7 130.199V130.999C188.3 131.099 187.9 131.099 187.4 131.099C186 131.099 185.2 130.399 185.2 129.099C185.3 127.899 185.9 127.199 187.1 127.199ZM186.3 128.899H188C188 128.299 187.7 128.099 187.2 128.099C186.6 127.999 186.3 128.299 186.3 128.899Z" fill="#828587"/>
<path d="M189.7 131.199V127.199H190.5L190.6 127.799C191 127.399 191.4 127.199 191.9 127.199C192.8 127.199 193.3 127.699 193.3 128.699V131.199H192.3V128.699C192.3 128.299 192.1 127.999 191.6 127.999C191.3 127.999 191 128.099 190.6 128.399V131.199H189.7Z" fill="#828587"/>
<path d="M194.2 126.602H194.9L195.1 127.202H196.1V128.002H195.2V129.802C195.2 130.202 195.4 130.402 195.7 130.402H196.1V131.202H195.2C194.5 131.202 194.2 130.802 194.2 130.102V126.602Z" fill="#828587"/>
<path d="M196.6 129.199C196.6 127.899 197.3 127.199 198.6 127.199C199.9 127.199 200.6 127.899 200.6 129.199C200.6 130.499 199.9 131.199 198.6 131.199C197.3 131.199 196.6 130.599 196.6 129.199ZM198.6 130.499C199.2 130.499 199.6 130.099 199.6 129.299C199.6 128.499 199.3 128.099 198.6 128.099C198 128.099 197.6 128.499 197.6 129.299C197.6 129.999 197.9 130.499 198.6 130.499Z" fill="#828587"/>
<path d="M108.7 154.1C108.4 154.3 107.9 154.3 107.4 154.3C105.9 154.3 105.1 153.6 105.1 152.1C105.1 150.7 105.9 150 107.4 150C107.9 150 108.3 150.1 108.7 150.2V150.9C108.3 150.7 107.9 150.7 107.5 150.7C106.5 150.7 105.9 151.2 105.9 152.1C105.9 153.1 106.4 153.7 107.4 153.7C107.5 153.7 107.7 153.7 107.9 153.6V152.3H108.7V154.1Z" fill="#828587"/>
<path d="M112.3 151.199V154.399H111.7L111.6 153.999C111.2 154.299 110.8 154.399 110.4 154.399C109.8 154.399 109.4 153.999 109.4 153.299V151.299H110.2V153.299C110.2 153.699 110.4 153.799 110.7 153.799C111 153.799 111.2 153.699 111.5 153.499V151.299H112.3V151.199Z" fill="#828587"/>
<path d="M112.9 153.301C112.9 152.701 113.4 152.401 114.3 152.401C114.5 152.401 114.7 152.401 114.9 152.501V152.301C114.9 152.001 114.7 151.901 114.3 151.901C114 151.901 113.6 152.001 113.1 152.101V151.501C113.5 151.401 113.9 151.301 114.3 151.301C115.2 151.301 115.7 151.601 115.7 152.301V154.401H115.2L114.9 154.101C114.6 154.301 114.3 154.401 114 154.401C113.3 154.301 112.9 154.001 112.9 153.301ZM114.2 152.901C113.8 152.901 113.6 153.001 113.6 153.301C113.6 153.601 113.8 153.701 114.1 153.701C114.4 153.701 114.6 153.601 114.8 153.501V153.001C114.7 153.001 114.5 152.901 114.2 152.901Z" fill="#828587"/>
<path d="M116.4 154.302V151.102H117L117.1 151.502C117.4 151.202 117.7 151.102 118 151.102V151.702C117.7 151.702 117.4 151.802 117.2 152.102V154.302H116.4Z" fill="#828587"/>
<path d="M121.3 154.1C120.8 154.2 120.3 154.3 119.9 154.3C118.9 154.3 118.4 153.8 118.4 152.7C118.4 151.7 118.9 151.2 119.9 151.2C120.1 151.2 120.3 151.3 120.6 151.4V150H121.4V154.1H121.3ZM120.5 152C120.3 151.9 120.1 151.8 119.9 151.8C119.4 151.8 119.2 152.1 119.2 152.6C119.2 153.3 119.5 153.6 120 153.6C120.2 153.6 120.4 153.6 120.6 153.5V152H120.5Z" fill="#828587"/>
<path d="M121.9 153.301C121.9 152.701 122.4 152.401 123.3 152.401C123.5 152.401 123.7 152.401 123.9 152.501V152.301C123.9 152.001 123.7 151.901 123.3 151.901C123 151.901 122.6 152.001 122.1 152.101V151.501C122.5 151.401 122.9 151.301 123.3 151.301C124.2 151.301 124.7 151.601 124.7 152.301V154.401H124.2L124 154.001C123.7 154.201 123.4 154.301 123.1 154.301C122.3 154.301 121.9 154.001 121.9 153.301ZM123.3 152.901C122.9 152.901 122.7 153.001 122.7 153.301C122.7 153.601 122.9 153.701 123.2 153.701C123.5 153.701 123.7 153.601 123.9 153.501V153.001C123.7 153.001 123.5 152.901 123.3 152.901Z" fill="#828587"/>
<path d="M125.5 154.302V151.102H126.1L126.2 151.502C126.5 151.202 126.8 151.102 127.1 151.102V151.702C126.8 151.702 126.5 151.802 126.3 152.102V154.302H125.5Z" fill="#828587"/>
<path d="M131.7 154.1C131.2 154.2 130.7 154.3 130.3 154.3C129.3 154.3 128.8 153.8 128.8 152.7C128.8 151.7 129.3 151.2 130.3 151.2C130.5 151.2 130.7 151.3 131 151.4V150H131.8V154.1H131.7ZM130.9 152C130.7 151.9 130.5 151.8 130.3 151.8C129.8 151.8 129.6 152.1 129.6 152.6C129.6 153.3 129.9 153.6 130.4 153.6C130.6 153.6 130.8 153.6 131 153.5V152H130.9Z" fill="#828587"/>
<path d="M132.3 152.702C132.3 151.602 132.8 151.102 133.9 151.102C134.9 151.102 135.5 151.602 135.5 152.702C135.5 153.802 135 154.302 133.9 154.302C132.8 154.302 132.3 153.802 132.3 152.702ZM133.9 153.702C134.4 153.702 134.7 153.402 134.7 152.702C134.7 152.102 134.4 151.702 133.9 151.702C133.4 151.702 133.1 152.002 133.1 152.702C133.1 153.402 133.4 153.702 133.9 153.702Z" fill="#828587"/>
<path d="M138.4 154.199C138.1 154.299 137.9 154.299 137.6 154.299C136.5 154.299 135.9 153.799 135.9 152.699C135.9 151.699 136.5 151.199 137.6 151.199C137.9 151.199 138.2 151.199 138.4 151.299V151.899C138.1 151.799 137.9 151.799 137.6 151.799C137 151.799 136.6 152.099 136.6 152.699C136.6 153.399 136.9 153.699 137.6 153.699C137.8 153.699 138.1 153.699 138.4 153.599V154.199Z" fill="#828587"/>
<path d="M141.8 151.199V154.399H141.2L141.1 153.999C140.7 154.299 140.3 154.399 139.9 154.399C139.3 154.399 138.9 153.999 138.9 153.299V151.299H139.7V153.299C139.7 153.699 139.9 153.799 140.2 153.799C140.5 153.799 140.7 153.699 141 153.499V151.299H141.8V151.199Z" fill="#828587"/>
<path d="M142.5 154.302V151.102H143.1L143.2 151.602C143.5 151.302 143.8 151.102 144.2 151.102C144.6 151.102 144.9 151.202 145 151.502C145.3 151.202 145.7 151.102 146 151.102C146.7 151.102 147.1 151.502 147.1 152.302V154.302H146.3V152.302C146.3 151.902 146.1 151.802 145.8 151.802C145.6 151.802 145.3 151.902 145.1 152.102V154.302H144.3V152.302C144.3 151.902 144.2 151.802 143.9 151.802C143.7 151.802 143.4 151.902 143.2 152.102V154.302H142.5Z" fill="#828587"/>
<path d="M149.3 151.199C150.3 151.199 150.7 151.699 150.7 152.699C150.7 152.799 150.7 152.999 150.7 153.099H148.6C148.6 153.499 148.9 153.799 149.6 153.799C149.9 153.799 150.2 153.799 150.6 153.699V154.299C150.3 154.399 150 154.399 149.6 154.399C148.5 154.399 147.9 153.899 147.9 152.799C147.8 151.699 148.3 151.199 149.3 151.199ZM148.6 152.499H150C150 152.099 149.8 151.799 149.3 151.799C148.8 151.799 148.6 151.999 148.6 152.499Z" fill="#828587"/>
<path d="M151.3 154.302V151.102H151.9L152 151.602C152.3 151.302 152.6 151.102 153 151.102C153.8 151.102 154.1 151.502 154.1 152.302V154.302H153.3V152.302C153.3 151.902 153.1 151.802 152.8 151.802C152.5 151.802 152.3 151.902 152 152.102V154.302H151.3Z" fill="#828587"/>
<path d="M154.9 150.699H155.5L155.6 151.199H156.4V151.799H155.7V153.299C155.7 153.599 155.8 153.699 156.1 153.699H156.4V154.299H155.7C155.2 154.299 154.9 153.999 154.9 153.399V150.699Z" fill="#828587"/>
<path d="M156.8 152.702C156.8 151.602 157.3 151.102 158.4 151.102C159.4 151.102 160 151.602 160 152.702C160 153.802 159.5 154.302 158.4 154.302C157.3 154.302 156.8 153.802 156.8 152.702ZM158.4 153.702C158.9 153.702 159.2 153.402 159.2 152.702C159.2 152.102 158.9 151.702 158.4 151.702C157.9 151.702 157.6 152.002 157.6 152.702C157.6 153.402 157.9 153.702 158.4 153.702Z" fill="#828587"/>
<path d="M92.1001 177.001C91.6001 177.201 91.1001 177.301 90.5001 177.301C88.6001 177.301 87.6001 176.401 87.6001 174.501C87.6001 172.701 88.6001 171.801 90.5001 171.801C91.1001 171.801 91.6001 171.901 92.1001 172.101V173.001C91.6001 172.801 91.1001 172.701 90.6001 172.701C89.3001 172.701 88.6001 173.301 88.6001 174.501C88.6001 175.801 89.2001 176.501 90.6001 176.501C91.1001 176.501 91.6001 176.401 92.1001 176.201V177.001Z" fill="#232323"/>
<path d="M92.8 175.199C92.8 173.899 93.5 173.199 94.8 173.199C96.1 173.199 96.8 173.899 96.8 175.199C96.8 176.499 96.1 177.199 94.8 177.199C93.4 177.199 92.8 176.599 92.8 175.199ZM94.8 176.499C95.4 176.499 95.8 176.099 95.8 175.299C95.8 174.499 95.5 174.099 94.8 174.099C94.2 174.099 93.8 174.499 93.8 175.299C93.8 175.999 94.1 176.499 94.8 176.499Z" fill="#232323"/>
<path d="M97.5 177.199V173.199H98.3L98.4 173.799C98.8 173.399 99.2 173.199 99.7 173.199C100.6 173.199 101.1 173.699 101.1 174.699V177.199H100.1V174.699C100.1 174.299 99.9 173.999 99.4 173.999C99.1 173.999 98.8 174.099 98.4 174.399V177.199H97.5Z" fill="#232323"/>
<path d="M102 172.602H102.7L102.9 173.202H103.9V174.002H103V175.802C103 176.202 103.2 176.402 103.5 176.402H103.9V177.202H103C102.3 177.202 102 176.802 102 176.102V172.602Z" fill="#232323"/>
<path d="M104.6 177.199V173.199H105.4L105.5 173.699C105.8 173.399 106.2 173.199 106.6 173.199V173.999C106.2 173.999 105.9 174.199 105.6 174.499V177.199H104.6Z" fill="#232323"/>
<path d="M107 176.001C107 175.201 107.6 174.801 108.7 174.801C109 174.801 109.2 174.801 109.5 174.901V174.601C109.5 174.201 109.2 174.101 108.7 174.101C108.3 174.101 107.8 174.201 107.3 174.301V173.501C107.8 173.401 108.3 173.301 108.7 173.301C109.9 173.301 110.5 173.701 110.5 174.601V177.301H109.9L109.5 176.901C109.2 177.101 108.8 177.301 108.4 177.301C107.4 177.201 107 176.801 107 176.001ZM108.7 175.501C108.2 175.501 108 175.701 108 176.001C108 176.401 108.2 176.501 108.6 176.501C108.9 176.501 109.2 176.401 109.5 176.201V175.601C109.2 175.501 109 175.501 108.7 175.501Z" fill="#232323"/>
<path d="M111.4 176.999V176.199C111.8 176.399 112.4 176.499 112.9 176.499C113.3 176.499 113.5 176.399 113.5 176.099C113.5 175.799 113.4 175.699 113.1 175.699H112.4C111.6 175.699 111.2 175.299 111.2 174.499C111.2 173.699 111.8 173.199 113 173.199C113.5 173.199 114 173.299 114.4 173.399V174.199C114 173.999 113.5 173.899 113 173.899C112.5 173.899 112.2 173.999 112.2 174.299C112.2 174.599 112.4 174.699 112.7 174.699H113.3C114.2 174.699 114.6 175.099 114.6 175.899C114.6 176.699 114 177.199 112.9 177.199C112.4 177.299 111.9 177.199 111.4 176.999Z" fill="#232323"/>
<path d="M117 173.199C118.2 173.199 118.8 173.799 118.8 174.999C118.8 175.199 118.8 175.299 118.8 175.499H116.2C116.2 176.099 116.6 176.299 117.4 176.299C117.8 176.299 118.2 176.299 118.6 176.199V176.999C118.2 177.099 117.8 177.099 117.3 177.099C115.9 177.099 115.1 176.399 115.1 175.099C115.1 173.899 115.8 173.199 117 173.199ZM116.1 174.899H117.8C117.8 174.299 117.5 174.099 117 174.099C116.5 173.999 116.2 174.299 116.1 174.899Z" fill="#232323"/>
<path d="M119.6 177.201V173.201H120.4L120.5 173.801C120.9 173.401 121.3 173.201 121.8 173.201C122.7 173.201 123.2 173.701 123.2 174.701V177.201H122.2V174.701C122.2 174.301 122 174.001 121.5 174.001C121.2 174.001 120.9 174.101 120.5 174.401V177.201H119.6ZM120.5 172.001C120.7 171.901 120.8 171.801 121 171.801C121.1 171.801 121.3 171.801 121.4 171.901C121.5 172.001 121.7 172.001 121.8 172.001C122 172.001 122.2 171.901 122.4 171.801V172.601C122.2 172.701 122.1 172.801 121.9 172.801C121.8 172.801 121.6 172.801 121.5 172.701C121.4 172.601 121.2 172.601 121.1 172.601C120.9 172.601 120.7 172.701 120.5 172.801V172.001Z" fill="#232323"/>
<path d="M123.9 176.001C123.9 175.201 124.5 174.801 125.6 174.801C125.9 174.801 126.1 174.801 126.4 174.901V174.601C126.4 174.201 126.1 174.101 125.6 174.101C125.2 174.101 124.7 174.201 124.2 174.301V173.501C124.7 173.401 125.2 173.301 125.6 173.301C126.8 173.301 127.4 173.701 127.4 174.601V177.301H126.8L126.4 176.901C126.1 177.101 125.7 177.301 125.3 177.301C124.4 177.201 123.9 176.801 123.9 176.001ZM125.7 175.501C125.2 175.501 125 175.701 125 176.001C125 176.401 125.2 176.501 125.6 176.501C125.9 176.501 126.2 176.401 126.5 176.201V175.601C126.2 175.501 126 175.501 125.7 175.501Z" fill="#232323"/>
<path d="M133.7 177.001C133.1 177.201 132.5 177.201 131.9 177.201C130.6 177.201 130 176.501 130 175.101C130 173.801 130.6 173.201 131.9 173.201C132.2 173.201 132.4 173.301 132.7 173.401V171.801H133.7V177.001ZM132.7 174.301C132.5 174.201 132.2 174.101 131.9 174.101C131.3 174.101 131 174.501 131 175.101C131 175.901 131.3 176.301 132 176.301C132.3 176.301 132.5 176.301 132.7 176.201V174.301Z" fill="#232323"/>
<path d="M136.3 173.199C137.5 173.199 138.1 173.799 138.1 174.999C138.1 175.199 138.1 175.299 138.1 175.499H135.5C135.5 176.099 135.9 176.299 136.7 176.299C137.1 176.299 137.5 176.299 137.9 176.199V176.999C137.5 177.099 137.1 177.099 136.6 177.099C135.2 177.099 134.4 176.399 134.4 175.099C134.4 173.899 135 173.199 136.3 173.199ZM135.4 174.899H137.1C137.1 174.299 136.8 174.099 136.3 174.099C135.7 173.999 135.5 174.299 135.4 174.899Z" fill="#232323"/>
<path d="M140.6 177.201V171.801H143.1C144.1 171.801 144.6 172.201 144.6 173.101C144.6 173.701 144.3 174.201 143.6 174.401C144.3 174.501 144.7 174.901 144.7 175.601C144.7 176.701 144.1 177.201 143 177.201H140.6ZM143.1 176.401C143.5 176.401 143.8 176.201 143.8 175.701C143.8 175.101 143.5 174.901 142.8 174.901H142.5V174.301C143.3 174.201 143.8 173.801 143.8 173.301C143.8 173.001 143.6 172.801 143.2 172.801H141.7V176.501H143.1V176.401Z" fill="#232323"/>
<path d="M145.4 176.001C145.4 175.201 146 174.801 147.1 174.801C147.4 174.801 147.6 174.801 147.9 174.901V174.601C147.9 174.201 147.6 174.101 147.1 174.101C146.7 174.101 146.2 174.201 145.7 174.301V173.501C146.2 173.401 146.7 173.301 147.1 173.301C148.3 173.301 148.9 173.701 148.9 174.601V177.301H148.3L147.9 176.901C147.6 177.101 147.2 177.301 146.8 177.301C145.8 177.201 145.4 176.801 145.4 176.001ZM147.1 175.501C146.6 175.501 146.4 175.701 146.4 176.001C146.4 176.401 146.6 176.501 147 176.501C147.3 176.501 147.6 176.401 147.9 176.201V175.601C147.6 175.501 147.4 175.501 147.1 175.501Z" fill="#232323"/>
<path d="M149.9 177.199V173.199H150.7L150.8 173.799C151.2 173.399 151.6 173.199 152.1 173.199C153 173.199 153.5 173.699 153.5 174.699V177.199H152.5V174.699C152.5 174.299 152.3 173.999 151.8 173.999C151.5 173.999 151.2 174.099 150.8 174.399V177.199H149.9Z" fill="#232323"/>
<path d="M157.4 177.099C157.1 177.199 156.7 177.199 156.4 177.199C155 177.199 154.3 176.499 154.3 175.099C154.3 173.799 155 173.199 156.4 173.199C156.8 173.199 157.1 173.199 157.4 173.299V174.099C157.1 173.999 156.8 173.999 156.5 173.999C155.7 173.999 155.3 174.399 155.3 175.099C155.3 175.899 155.7 176.399 156.5 176.399C156.8 176.399 157.1 176.399 157.4 176.299V177.099Z" fill="#232323"/>
<path d="M157.8 176.001C157.8 175.201 158.4 174.801 159.5 174.801C159.8 174.801 160 174.801 160.3 174.901V174.601C160.3 174.201 160 174.101 159.5 174.101C159.1 174.101 158.6 174.201 158.1 174.301V173.501C158.6 173.401 159.1 173.301 159.5 173.301C160.7 173.301 161.3 173.701 161.3 174.601V177.301H160.7L160.3 176.901C160 177.101 159.6 177.301 159.2 177.301C158.3 177.201 157.8 176.801 157.8 176.001ZM159.6 175.501C159.1 175.501 158.9 175.701 158.9 176.001C158.9 176.401 159.1 176.501 159.5 176.501C159.8 176.501 160.1 176.401 160.4 176.201V175.601C160.1 175.501 159.8 175.501 159.6 175.501Z" fill="#232323"/>
<path d="M164 173.399C164.5 173.299 165.1 173.199 165.7 173.199C167.1 173.199 167.7 173.799 167.7 175.099C167.7 176.499 167.1 177.199 165.8 177.199C165.5 177.199 165.3 177.099 165 176.999V178.599H164V173.399ZM165 176.199C165.3 176.299 165.5 176.399 165.8 176.399C166.4 176.399 166.7 175.999 166.7 175.099C166.7 174.399 166.4 173.999 165.7 173.999C165.4 173.999 165.2 173.999 165 174.099V176.199Z" fill="#232323"/>
<path d="M168.3 175.199C168.3 173.899 169 173.199 170.3 173.199C171.6 173.199 172.3 173.899 172.3 175.199C172.3 176.499 171.6 177.199 170.3 177.199C168.9 177.199 168.3 176.599 168.3 175.199ZM170.3 176.499C170.9 176.499 171.3 176.099 171.3 175.299C171.3 174.499 171 174.099 170.3 174.099C169.7 174.099 169.3 174.499 169.3 175.299C169.3 175.999 169.6 176.499 170.3 176.499Z" fill="#232323"/>
<path d="M173 177.199V173.199H173.8L173.9 173.699C174.2 173.399 174.6 173.199 175 173.199V173.999C174.6 173.999 174.3 174.199 174 174.499V177.199H173Z" fill="#232323"/>
<path d="M178.4 171.801V177.201H177.4V171.801H178.4Z" fill="#232323"/>
<path d="M179.4 177.199V173.199H180.2L180.3 173.799C180.7 173.399 181.1 173.199 181.6 173.199C182.5 173.199 183 173.699 183 174.699V177.199H182V174.699C182 174.299 181.8 173.999 181.3 173.999C181 173.999 180.7 174.099 180.3 174.399V177.199H179.4Z" fill="#232323"/>
<path d="M183.9 172.602H184.6L184.8 173.202H185.8V174.002H184.9V175.802C184.9 176.202 185.1 176.402 185.4 176.402H185.8V177.202H184.9C184.2 177.202 183.9 176.802 183.9 176.102V172.602Z" fill="#232323"/>
<path d="M188.2 173.199C189.4 173.199 190 173.799 190 174.999C190 175.199 190 175.299 190 175.499H187.4C187.4 176.099 187.8 176.299 188.6 176.299C189 176.299 189.4 176.299 189.8 176.199V176.999C189.4 177.099 189 177.099 188.5 177.099C187.1 177.099 186.3 176.399 186.3 175.099C186.3 173.899 186.9 173.199 188.2 173.199ZM187.3 174.899H189C189 174.299 188.7 174.099 188.2 174.099C187.6 173.999 187.3 174.299 187.3 174.899Z" fill="#232323"/>
<path d="M190.7 177.199V173.199H191.5L191.6 173.699C191.9 173.399 192.3 173.199 192.7 173.199V173.999C192.3 173.999 192 174.199 191.7 174.499V177.199H190.7Z" fill="#232323"/>
<path d="M193.3 177.199V173.199H194.1L194.2 173.799C194.6 173.399 195 173.199 195.5 173.199C196.4 173.199 196.9 173.699 196.9 174.699V177.199H195.9V174.699C195.9 174.299 195.7 173.999 195.2 173.999C194.9 173.999 194.6 174.099 194.2 174.399V177.199H193.3Z" fill="#232323"/>
<path d="M199.5 173.199C200.7 173.199 201.3 173.799 201.3 174.999C201.3 175.199 201.3 175.299 201.3 175.499H198.7C198.7 176.099 199.1 176.299 199.9 176.299C200.3 176.299 200.7 176.299 201.1 176.199V176.999C200.7 177.099 200.3 177.099 199.8 177.099C198.4 177.099 197.6 176.399 197.6 175.099C197.7 173.899 198.3 173.199 199.5 173.199ZM198.7 174.899H200.4C200.4 174.299 200.1 174.099 199.6 174.099C199 173.999 198.7 174.299 198.7 174.899Z" fill="#232323"/>
<path d="M202.1 172.602H202.8L203 173.202H204V174.002H203.1V175.802C203.1 176.202 203.3 176.402 203.6 176.402H204V177.202H203.1C202.4 177.202 202.1 176.802 202.1 176.102V172.602Z" fill="#232323"/>
<path d="M95.3999 189.699V195.099H94.3999V189.699H95.3999Z" fill="#828587"/>
<path d="M96.5 195.098V191.098H97.3L97.4 191.698C97.8 191.298 98.2 191.098 98.7 191.098C99.6 191.098 100.1 191.598 100.1 192.598V195.098H99.1V192.598C99.1 192.198 98.9 191.898 98.4 191.898C98.1 191.898 97.8 191.998 97.4 192.298V195.098H96.5Z" fill="#828587"/>
<path d="M104.6 194.798C104.6 195.998 103.9 196.498 102.5 196.498C102 196.498 101.6 196.398 101.2 196.298V195.498C101.6 195.598 102 195.698 102.5 195.698C103.2 195.698 103.6 195.398 103.6 194.798C103.3 194.898 103 194.998 102.6 194.998C101.4 194.998 100.8 194.398 100.8 193.098C100.8 191.798 101.5 191.098 102.9 191.098C103.4 191.098 103.9 191.198 104.6 191.298V194.798ZM103.6 192.098C103.4 191.998 103.2 191.998 102.9 191.998C102.2 191.998 101.9 192.398 101.9 193.098C101.9 193.798 102.2 194.198 102.8 194.198C103.1 194.198 103.4 194.098 103.6 193.998V192.098Z" fill="#828587"/>
<path d="M105.5 195.098V191.098H106.3L106.4 191.598C106.7 191.298 107.1 191.098 107.5 191.098V191.898C107.1 191.898 106.8 192.098 106.5 192.398V195.098H105.5Z" fill="#828587"/>
<path d="M109.8 191.199C111 191.199 111.6 191.799 111.6 192.999C111.6 193.199 111.6 193.299 111.6 193.499H109C109 194.099 109.4 194.299 110.2 194.299C110.6 194.299 111 194.299 111.4 194.199V194.999C111 195.099 110.6 195.099 110.1 195.099C108.7 195.099 107.9 194.399 107.9 193.099C107.9 191.799 108.5 191.199 109.8 191.199ZM108.9 192.799H110.6C110.6 192.199 110.3 191.999 109.8 191.999C109.2 191.999 109 192.199 108.9 192.799Z" fill="#828587"/>
<path d="M112.3 194.999V194.199C112.7 194.399 113.3 194.499 113.8 194.499C114.2 194.499 114.4 194.399 114.4 194.099C114.4 193.799 114.3 193.699 114 193.699H113.3C112.5 193.699 112.1 193.299 112.1 192.499C112.1 191.699 112.7 191.199 113.9 191.199C114.4 191.199 114.9 191.299 115.3 191.399V192.199C114.9 191.999 114.4 191.899 113.9 191.899C113.4 191.899 113.1 191.999 113.1 192.299C113.1 192.599 113.3 192.699 113.6 192.699H114.2C115.1 192.699 115.5 193.099 115.5 193.899C115.5 194.699 114.9 195.199 113.8 195.199C113.3 195.199 112.8 195.099 112.3 194.999Z" fill="#828587"/>
<path d="M116 193.899C116 193.099 116.6 192.699 117.7 192.699C118 192.699 118.2 192.699 118.5 192.799V192.499C118.5 192.099 118.2 191.999 117.7 191.999C117.3 191.999 116.8 192.099 116.3 192.199V191.399C116.8 191.299 117.3 191.199 117.7 191.199C118.9 191.199 119.5 191.599 119.5 192.499V195.199H119L118.6 194.799C118.3 194.999 117.9 195.199 117.5 195.199C116.5 195.099 116 194.699 116 193.899ZM117.8 193.399C117.3 193.399 117.1 193.599 117.1 193.899C117.1 194.299 117.3 194.399 117.7 194.399C118 194.399 118.3 194.299 118.6 194.099V193.499C118.3 193.399 118 193.399 117.8 193.399Z" fill="#828587"/>
<path d="M125.2 194.998C124.9 195.098 124.5 195.098 124.2 195.098C122.8 195.098 122.1 194.398 122.1 192.998C122.1 191.698 122.8 191.098 124.2 191.098C124.6 191.098 124.9 191.098 125.2 191.198V191.998C124.9 191.898 124.6 191.898 124.3 191.898C123.5 191.898 123.1 192.298 123.1 192.998C123.1 193.798 123.5 194.298 124.3 194.298C124.6 194.298 124.9 194.298 125.2 194.198V194.998Z" fill="#828587"/>
<path d="M125.6 193.199C125.6 191.899 126.3 191.199 127.6 191.199C128.9 191.199 129.6 191.899 129.6 193.199C129.6 194.499 128.9 195.199 127.6 195.199C126.3 195.099 125.6 194.499 125.6 193.199ZM127.6 194.399C128.2 194.399 128.6 193.999 128.6 193.199C128.6 192.399 128.3 191.999 127.6 191.999C127 191.999 126.6 192.399 126.6 193.199C126.6 193.999 127 194.399 127.6 194.399Z" fill="#828587"/>
<path d="M130.3 195.098V191.098H131.1L131.2 191.698C131.6 191.298 132 191.098 132.5 191.098C133.4 191.098 133.9 191.598 133.9 192.598V195.098H132.9V192.598C132.9 192.198 132.7 191.898 132.2 191.898C131.9 191.898 131.6 191.998 131.2 192.298V195.098H130.3Z" fill="#828587"/>
<path d="M134.8 190.5H135.5L135.7 191.1H136.7V191.9H135.8V193.7C135.8 194.1 136 194.3 136.3 194.3H136.7V195.1H135.8C135.1 195.1 134.8 194.7 134.8 194V190.5Z" fill="#828587"/>
<path d="M137.4 195.098V191.098H138.2L138.3 191.598C138.6 191.298 139 191.098 139.4 191.098V191.898C139 191.898 138.7 192.098 138.4 192.398V195.098H137.4Z" fill="#828587"/>
<path d="M139.8 193.899C139.8 193.099 140.4 192.699 141.5 192.699C141.8 192.699 142 192.699 142.3 192.799V192.499C142.3 192.099 142 191.999 141.5 191.999C141.1 191.999 140.6 192.099 140.1 192.199V191.399C140.6 191.299 141.1 191.199 141.5 191.199C142.7 191.199 143.3 191.599 143.3 192.499V195.199H142.7L142.3 194.799C142 194.999 141.6 195.199 141.2 195.199C140.3 195.099 139.8 194.699 139.8 193.899ZM141.5 193.399C141 193.399 140.8 193.599 140.8 193.899C140.8 194.299 141 194.399 141.4 194.399C141.7 194.399 142 194.299 142.3 194.099V193.499C142.1 193.399 141.8 193.399 141.5 193.399Z" fill="#828587"/>
<path d="M144.3 194.999V194.199C144.7 194.399 145.3 194.499 145.8 194.499C146.2 194.499 146.4 194.399 146.4 194.099C146.4 193.799 146.3 193.699 146 193.699H145.3C144.5 193.699 144.1 193.299 144.1 192.499C144.1 191.699 144.7 191.199 145.9 191.199C146.4 191.199 146.9 191.299 147.3 191.399V192.199C146.9 191.999 146.4 191.899 145.9 191.899C145.4 191.899 145.1 191.999 145.1 192.299C145.1 192.599 145.3 192.699 145.6 192.699H146.2C147.1 192.699 147.5 193.099 147.5 193.899C147.5 194.699 146.9 195.199 145.8 195.199C145.2 195.199 144.7 195.099 144.3 194.999Z" fill="#828587"/>
<path d="M149.9 191.199C151.1 191.199 151.7 191.799 151.7 192.999C151.7 193.199 151.7 193.299 151.7 193.499H149C149 194.099 149.4 194.299 150.2 194.299C150.6 194.299 151 194.299 151.4 194.199V194.999C151 195.099 150.6 195.099 150.1 195.099C148.7 195.099 147.9 194.399 147.9 193.099C148 191.799 148.6 191.199 149.9 191.199ZM149 192.799H150.7C150.7 192.199 150.4 191.999 149.9 191.999C149.3 191.999 149 192.199 149 192.799Z" fill="#828587"/>
<path d="M152.4 195.099V191.099H153.2L153.3 191.699C153.7 191.299 154.1 191.099 154.6 191.099C155.5 191.099 156 191.599 156 192.599V195.099H155V192.599C155 192.199 154.8 191.899 154.3 191.899C154 191.899 153.7 191.999 153.3 192.299V195.099H152.4ZM153.4 189.899C153.6 189.799 153.7 189.699 153.9 189.699C154 189.699 154.2 189.699 154.3 189.799C154.4 189.899 154.6 189.899 154.7 189.899C154.9 189.899 155.1 189.799 155.3 189.699V190.499C155.1 190.599 155 190.699 154.8 190.699C154.7 190.699 154.5 190.699 154.4 190.599C154.3 190.499 154.1 190.499 154 190.499C153.8 190.499 153.6 190.599 153.4 190.699V189.899Z" fill="#828587"/>
<path d="M156.8 193.899C156.8 193.099 157.4 192.699 158.5 192.699C158.8 192.699 159 192.699 159.3 192.799V192.499C159.3 192.099 159 191.999 158.5 191.999C158.1 191.999 157.6 192.099 157.1 192.199V191.399C157.6 191.299 158.1 191.199 158.5 191.199C159.7 191.199 160.3 191.599 160.3 192.499V195.199H159.7L159.3 194.799C159 194.999 158.6 195.199 158.2 195.199C157.3 195.099 156.8 194.699 156.8 193.899ZM158.5 193.399C158 193.399 157.8 193.599 157.8 193.899C157.8 194.299 158 194.399 158.4 194.399C158.7 194.399 159 194.299 159.3 194.099V193.499C159.1 193.399 158.8 193.399 158.5 193.399Z" fill="#828587"/>
<path d="M99.1 156.401H92.9C91.7 156.401 90.7 155.401 90.7 154.201V148.501C90.7 147.301 91.7 146.301 92.9 146.301H99.1C100.3 146.301 101.3 147.301 101.3 148.501V154.201C101.3 155.401 100.3 156.401 99.1 156.401ZM92.9 147.201C92.2 147.201 91.6 147.801 91.6 148.501V154.201C91.6 154.901 92.2 155.501 92.9 155.501H99.1C99.8 155.501 100.4 154.901 100.4 154.201V148.501C100.4 147.801 99.8 147.201 99.1 147.201H92.9Z" fill="#828587"/>
<path d="M294.6 152.802C295.1 152.702 295.6 152.602 296.1 152.602C297.4 152.602 298.1 153.102 298.1 154.102C298.1 155.202 297.5 155.802 296.2 155.802V156.702H295.2V155.002H296.2C296.8 155.002 297.2 154.702 297.2 154.102C297.2 153.602 296.9 153.402 296.2 153.402C295.7 153.402 295.2 153.502 294.7 153.602V152.802H294.6ZM296.1 157.102V158.002H295.1V157.102H296.1Z" fill="#0084D9"/>
<path d="M296 162.202C292.3 162.202 289.2 159.202 289.2 155.402C289.2 151.602 292.2 148.602 296 148.602C299.8 148.602 302.8 151.602 302.8 155.402C302.8 159.202 299.7 162.202 296 162.202ZM296 149.202C292.6 149.202 289.9 151.902 289.9 155.302C289.9 158.702 292.6 161.402 296 161.402C299.4 161.402 302.1 158.702 302.1 155.302C302.1 151.902 299.3 149.202 296 149.202Z" fill="#0084D9"/>
<path d="M300.2 231.098H91.8999C89.8999 231.098 88.3999 229.498 88.3999 227.598V211.898C88.3999 209.898 89.9999 208.398 91.8999 208.398H300.2C302.2 208.398 303.7 209.998 303.7 211.898V227.598C303.8 229.498 302.2 231.098 300.2 231.098Z" fill="#0084D9"/>
<path d="M189.7 216.699V217.599H187V218.999H189.6V219.899H187V221.299H189.8V222.199H186V216.799H189.7V216.699Z" fill="white"/>
<path d="M190.6 222.199V218.199H191.4L191.5 218.799C191.9 218.399 192.3 218.199 192.8 218.199C193.7 218.199 194.2 218.699 194.2 219.699V222.199H193.2V219.699C193.2 219.299 193 218.999 192.5 218.999C192.2 218.999 191.9 219.099 191.5 219.399V222.199H190.6Z" fill="white"/>
<path d="M195.1 217.5H195.8L196 218.1H197V218.9H196.1V220.7C196.1 221.1 196.3 221.3 196.6 221.3H197V222.1H196.1C195.4 222.1 195.1 221.7 195.1 221V217.5Z" fill="white"/>
<path d="M197.7 222.199V218.199H198.5L198.6 218.699C198.9 218.399 199.3 218.199 199.7 218.199V218.999C199.3 218.999 199 219.199 198.7 219.499V222.199H197.7Z" fill="white"/>
<path d="M200.1 220.899C200.1 220.099 200.7 219.699 201.8 219.699C202.1 219.699 202.3 219.699 202.6 219.799V219.499C202.6 219.099 202.3 218.999 201.8 218.999C201.4 218.999 200.9 219.099 200.4 219.199V218.399C200.9 218.299 201.4 218.199 201.8 218.199C203 218.199 203.6 218.599 203.6 219.499V222.199H203L202.6 221.799C202.3 221.999 201.9 222.199 201.5 222.199C200.6 222.199 200.1 221.699 200.1 220.899ZM201.8 220.399C201.3 220.399 201.1 220.599 201.1 220.899C201.1 221.299 201.3 221.399 201.7 221.399C202 221.399 202.3 221.299 202.6 221.099V220.499C202.4 220.399 202.1 220.399 201.8 220.399Z" fill="white"/>
<path d="M204.6 222.199V218.199H205.4L205.5 218.699C205.8 218.399 206.2 218.199 206.6 218.199V218.999C206.2 218.999 205.9 219.199 205.6 219.499V222.199H204.6Z" fill="white"/>
<path d="M299.1 259.899H90.8C88.8 259.899 87.3 258.299 87.3 256.399V240.699C87.3 238.699 88.9 237.199 90.8 237.199H299.1C301.1 237.199 302.6 238.799 302.6 240.699V256.399C302.6 258.299 301.1 259.899 299.1 259.899Z" fill="#009B00"/>
<path d="M151.7 252.2C151.2 252.3 150.7 252.4 150.2 252.4C148.9 252.4 148.2 251.9 148.2 250.9C148.2 249.8 148.8 249.2 150.1 249.2V248.3H151.1V250H150.1C149.5 250 149.1 250.3 149.1 250.9C149.1 251.4 149.4 251.6 150.1 251.6C150.6 251.6 151.1 251.5 151.6 251.4V252.2H151.7ZM150.1 247.9V247H151.1V247.9H150.1Z" fill="white"/>
<path d="M153.7 245.5V250.9H152.7V245.5H153.7Z" fill="white"/>
<path d="M154.7 250.898V246.898H155.5L155.6 247.498C156 247.098 156.4 246.898 156.9 246.898C157.8 246.898 158.3 247.398 158.3 248.398V250.898H157.3V248.398C157.3 247.998 157.1 247.698 156.6 247.698C156.3 247.698 156 247.798 155.6 248.098V250.898H154.7Z" fill="white"/>
<path d="M162.8 250.598C162.8 251.798 162.1 252.298 160.7 252.298C160.2 252.298 159.8 252.198 159.4 252.098V251.298C159.8 251.398 160.2 251.498 160.7 251.498C161.4 251.498 161.8 251.198 161.8 250.598C161.5 250.698 161.2 250.798 160.8 250.798C159.6 250.798 159 250.198 159 248.898C159 247.598 159.7 246.898 161.1 246.898C161.6 246.898 162.1 246.998 162.8 247.098V250.598ZM161.8 247.898C161.6 247.798 161.4 247.798 161.1 247.798C160.4 247.798 160.1 248.198 160.1 248.898C160.1 249.598 160.4 249.998 161 249.998C161.3 249.998 161.6 249.898 161.8 249.798V247.898Z" fill="white"/>
<path d="M163.8 250.898V246.898H164.6L164.7 247.398C165 247.098 165.4 246.898 165.8 246.898V247.698C165.4 247.698 165.1 247.898 164.8 248.198V250.898H163.8Z" fill="white"/>
<path d="M168 247C169.2 247 169.8 247.6 169.8 248.8C169.8 249 169.8 249.1 169.8 249.3H167.2C167.2 249.9 167.6 250.1 168.4 250.1C168.8 250.1 169.2 250.1 169.6 250V250.8C169.2 250.9 168.8 250.9 168.3 250.9C166.9 250.9 166.1 250.2 166.1 248.9C166.1 247.6 166.8 247 168 247ZM167.1 248.6H168.8C168.8 248 168.5 247.8 168 247.8C167.5 247.7 167.2 248 167.1 248.6Z" fill="white"/>
<path d="M170.6 250.698V249.898C171 250.098 171.6 250.198 172.1 250.198C172.5 250.198 172.7 250.098 172.7 249.798C172.7 249.498 172.6 249.398 172.3 249.398H171.6C170.8 249.398 170.4 248.998 170.4 248.198C170.4 247.398 171 246.898 172.2 246.898C172.7 246.898 173.2 246.998 173.6 247.098V247.898C173.2 247.698 172.7 247.598 172.2 247.598C171.7 247.598 171.4 247.698 171.4 247.998C171.4 248.298 171.6 248.398 171.9 248.398H172.5C173.4 248.398 173.8 248.798 173.8 249.598C173.8 250.398 173.2 250.898 172.1 250.898C171.5 250.998 171 250.898 170.6 250.698Z" fill="white"/>
<path d="M174.3 249.7C174.3 248.9 174.9 248.5 176 248.5C176.3 248.5 176.5 248.5 176.8 248.6V248.3C176.8 247.9 176.5 247.8 176 247.8C175.6 247.8 175.1 247.9 174.6 248V247.2C175.1 247.1 175.6 247 176 247C177.2 247 177.8 247.4 177.8 248.3V251H177.2L176.8 250.6C176.5 250.8 176.1 251 175.7 251C174.8 250.9 174.3 250.5 174.3 249.7ZM176 249.2C175.5 249.2 175.3 249.4 175.3 249.7C175.3 250.1 175.5 250.2 175.9 250.2C176.2 250.2 176.5 250.1 176.8 249.9V249.3C176.6 249.2 176.3 249.2 176 249.2Z" fill="white"/>
<path d="M178.8 250.698V249.898C179.2 250.098 179.8 250.198 180.3 250.198C180.7 250.198 180.9 250.098 180.9 249.798C180.9 249.498 180.8 249.398 180.5 249.398H179.8C179 249.398 178.6 248.998 178.6 248.198C178.6 247.398 179.2 246.898 180.4 246.898C180.9 246.898 181.4 246.998 181.8 247.098V247.898C181.4 247.698 180.9 247.598 180.4 247.598C179.9 247.598 179.6 247.698 179.6 247.998C179.6 248.298 179.8 248.398 180.1 248.398H180.7C181.6 248.398 182 248.798 182 249.598C182 250.398 181.4 250.898 180.3 250.898C179.7 250.998 179.2 250.898 178.8 250.698Z" fill="white"/>
<path d="M184.3 247.098C184.8 246.998 185.4 246.898 186 246.898C187.4 246.898 188 247.498 188 248.798C188 250.198 187.4 250.898 186.1 250.898C185.8 250.898 185.6 250.798 185.3 250.698V252.298H184.3V247.098ZM185.3 249.898C185.6 249.998 185.8 250.098 186.1 250.098C186.7 250.098 187 249.698 187 248.798C187 248.098 186.7 247.698 186 247.698C185.7 247.698 185.5 247.698 185.3 247.798V249.898Z" fill="white"/>
<path d="M188.6 248.898C188.6 247.598 189.3 246.898 190.6 246.898C191.9 246.898 192.6 247.598 192.6 248.898C192.6 250.198 191.9 250.898 190.6 250.898C189.3 250.898 188.6 250.298 188.6 248.898ZM190.6 250.198C191.2 250.198 191.6 249.798 191.6 248.998C191.6 248.198 191.3 247.798 190.6 247.798C190 247.798 189.6 248.198 189.6 248.998C189.6 249.798 189.9 250.198 190.6 250.198Z" fill="white"/>
<path d="M193.3 250.898V246.898H194.1L194.2 247.398C194.5 247.098 194.9 246.898 195.3 246.898V247.698C194.9 247.698 194.6 247.898 194.3 248.198V250.898H193.3Z" fill="white"/>
<path d="M197.6 247.098C198.1 246.998 198.7 246.898 199.3 246.898C200.7 246.898 201.3 247.498 201.3 248.798C201.3 250.198 200.7 250.898 199.4 250.898C199.1 250.898 198.9 250.798 198.6 250.698V252.298H197.6V247.098ZM198.6 249.898C198.9 249.998 199.1 250.098 199.4 250.098C200 250.098 200.3 249.698 200.3 248.798C200.3 248.098 200 247.698 199.3 247.698C199 247.698 198.8 247.698 198.6 247.798V249.898Z" fill="white"/>
<path d="M202 250.898V246.898H202.8L202.9 247.398C203.2 247.098 203.6 246.898 204 246.898V247.698C203.6 247.698 203.3 247.898 203 248.198V250.898H202Z" fill="white"/>
<path d="M205.6 245.5V246.3H204.6V245.5H205.6ZM205.6 247V251H204.6V247H205.6Z" fill="white"/>
<path d="M206.6 250.898V246.898H207.4L207.5 247.498C207.9 247.098 208.3 246.898 208.8 246.898C209.3 246.898 209.6 247.098 209.8 247.398C210.2 246.998 210.6 246.898 211.1 246.898C212 246.898 212.5 247.398 212.5 248.398V250.898H211.5V248.398C211.5 247.998 211.3 247.698 210.9 247.698C210.6 247.698 210.3 247.798 210 248.098V250.898H209V248.398C209 247.998 208.8 247.698 208.4 247.698C208.1 247.698 207.8 247.798 207.6 248.098V250.898H206.6Z" fill="white"/>
<path d="M215 247C216.2 247 216.8 247.6 216.8 248.8C216.8 249 216.8 249.1 216.8 249.3H214.2C214.2 249.9 214.6 250.1 215.4 250.1C215.8 250.1 216.2 250.1 216.6 250V250.8C216.2 250.9 215.8 250.9 215.3 250.9C213.9 250.9 213.1 250.2 213.1 248.9C213.2 247.6 213.8 247 215 247ZM214.2 248.6H215.9C215.9 248 215.6 247.8 215.1 247.8C214.5 247.7 214.2 248 214.2 248.6Z" fill="white"/>
<path d="M217.6 250.898V246.898H218.4L218.5 247.398C218.8 247.098 219.2 246.898 219.6 246.898V247.698C219.2 247.698 218.9 247.898 218.6 248.198V250.898H217.6Z" fill="white"/>
<path d="M220 249.7C220 248.9 220.6 248.5 221.7 248.5C222 248.5 222.2 248.5 222.5 248.6V248.3C222.5 247.9 222.2 247.8 221.7 247.8C221.3 247.8 220.8 247.9 220.3 248V247.2C220.8 247.1 221.3 247 221.7 247C222.9 247 223.5 247.4 223.5 248.3V251H223L222.6 250.6C222.3 250.8 221.9 251 221.5 251C220.5 250.9 220 250.5 220 249.7ZM221.7 249.2C221.2 249.2 221 249.4 221 249.7C221 250.1 221.2 250.2 221.6 250.2C221.9 250.2 222.2 250.1 222.5 249.9V249.3C222.3 249.2 222 249.2 221.7 249.2Z" fill="white"/>
<path d="M225.7 247H226.8L227.8 249.8L228.8 247H229.9L228.3 251H227.3L225.7 247Z" fill="white"/>
<path d="M232 247C233.2 247 233.8 247.6 233.8 248.8C233.8 249 233.8 249.1 233.8 249.3H231.2C231.2 249.9 231.6 250.1 232.4 250.1C232.8 250.1 233.2 250.1 233.6 250V250.8C233.2 250.9 232.8 250.9 232.3 250.9C230.9 250.9 230.1 250.2 230.1 248.9C230.1 247.6 230.7 247 232 247ZM231.1 248.6H232.8C232.8 248 232.5 247.8 232 247.8C231.4 247.7 231.1 248 231.1 248.6Z" fill="white"/>
<path d="M234.5 247H237.6V247.8L235.6 250.2H237.6V251H234.5V250.2L236.6 247.8H234.6V247H234.5Z" fill="white"/>
<path d="M238.2 245.7C238.7 245.6 239.2 245.5 239.7 245.5C241 245.5 241.7 246 241.7 247C241.7 248.1 241.1 248.7 239.8 248.7V249.6H238.8V247.9H239.8C240.4 247.9 240.8 247.6 240.8 247C240.8 246.5 240.5 246.3 239.8 246.3C239.3 246.3 238.8 246.4 238.3 246.5V245.7H238.2ZM239.8 250V250.9H238.8V250H239.8Z" fill="white"/>
</svg>
