<svg width="392" height="262" viewBox="0 0 392 262" fill="none" xmlns="http://www.w3.org/2000/svg">
<path d="M392 0H0V262H392V0Z" fill="#E3E3E3"/>
<path d="M297.9 213.298H94.1C90.2 213.298 87 210.098 87 206.198V21.9984C87 18.0984 90.2 14.8984 94.1 14.8984H297.9C301.8 14.8984 305 18.0984 305 21.9984V206.298C305 210.198 301.8 213.298 297.9 213.298Z" fill="white"/>
<path d="M297.9 213.8H94.1001C89.9001 213.8 86.6001 210.4 86.6001 206.3V22C86.6001 17.8 90.0001 14.5 94.1001 14.5H297.9C302.1 14.5 305.4 17.9 305.4 22V206.3C305.4 210.4 302.1 213.8 297.9 213.8ZM94.1001 15.3C90.4001 15.3 87.5001 18.3 87.5001 21.9V206.2C87.5001 209.9 90.5001 212.8 94.1001 212.8H297.9C301.6 212.8 304.5 209.8 304.5 206.2V22C304.5 18.3 301.5 15.4 297.9 15.4H94.1001V15.3Z" fill="#DEDEE1"/>
<path d="M91.8999 28.8V23.5H92.8999L94.6999 27.6L96.4999 23.5H97.4999V28.8H96.5999V25.1L95.0999 28.8H94.2999L92.7999 25.1V28.8H91.8999Z" fill="#232323"/>
<path d="M98.3999 26.8984C98.3999 25.5984 98.9999 24.8984 100.3 24.8984C101.6 24.8984 102.2 25.5984 102.2 26.8984C102.2 28.1984 101.6 28.8984 100.3 28.8984C99.0999 28.7984 98.3999 28.1984 98.3999 26.8984ZM100.3 28.0984C100.9 28.0984 101.3 27.6984 101.3 26.8984C101.3 26.0984 101 25.6984 100.3 25.6984C99.5999 25.6984 99.2999 26.0984 99.2999 26.8984C99.3999 27.6984 99.6999 28.0984 100.3 28.0984Z" fill="#232323"/>
<path d="M103 28.7984V24.8984H103.8L103.9 25.4984C104.3 25.0984 104.7 24.8984 105.2 24.8984C106.1 24.8984 106.6 25.3984 106.6 26.3984V28.8984H105.6V26.3984C105.6 25.9984 105.4 25.6984 105 25.6984C104.7 25.6984 104.4 25.7984 104.1 26.0984V28.7984H103Z" fill="#232323"/>
<path d="M107.5 24.3008H108.2L108.3 24.9008H109.3V25.7008H108.4V27.5008C108.4 27.9008 108.6 28.0008 108.9 28.0008H109.3V28.8008H108.4C107.7 28.8008 107.4 28.4008 107.4 27.7008V24.3008H107.5Z" fill="#232323"/>
<path d="M109.8 26.8984C109.8 25.5984 110.4 24.8984 111.7 24.8984C113 24.8984 113.6 25.5984 113.6 26.8984C113.6 28.1984 113 28.8984 111.7 28.8984C110.5 28.7984 109.8 28.1984 109.8 26.8984ZM111.8 28.0984C112.4 28.0984 112.8 27.6984 112.8 26.8984C112.8 26.0984 112.5 25.6984 111.8 25.6984C111.1 25.6984 110.8 26.0984 110.8 26.8984C110.8 27.6984 111.1 28.0984 111.8 28.0984Z" fill="#232323"/>
<path d="M116 27.5984C116 26.7984 116.6 26.3984 117.7 26.3984C118 26.3984 118.2 26.3984 118.5 26.4984V26.1984C118.5 25.7984 118.2 25.6984 117.7 25.6984C117.3 25.6984 116.8 25.7984 116.3 25.8984V25.0984C116.8 24.9984 117.3 24.8984 117.7 24.8984C118.9 24.8984 119.5 25.2984 119.5 26.1984V28.7984H118.9L118.5 28.3984C118.2 28.5984 117.8 28.7984 117.4 28.7984C116.5 28.7984 116 28.3984 116 27.5984ZM117.7 27.0984C117.2 27.0984 117 27.2984 117 27.5984C117 27.8984 117.2 28.0984 117.6 28.0984C117.9 28.0984 118.2 27.9984 118.5 27.7984V27.1984C118.2 27.0984 118 27.0984 117.7 27.0984Z" fill="#232323"/>
<path d="M122.1 25.0984C122.6 24.9984 123.2 24.8984 123.8 24.8984C125.1 24.8984 125.8 25.4984 125.8 26.7984C125.8 28.1984 125.2 28.8984 123.9 28.8984C123.6 28.8984 123.4 28.7984 123.1 28.6984V30.2984H122.1V25.0984ZM123.1 27.7984C123.3 27.8984 123.6 27.9984 123.9 27.9984C124.5 27.9984 124.8 27.5984 124.8 26.7984C124.8 26.0984 124.5 25.6984 123.8 25.6984C123.5 25.6984 123.3 25.6984 123.1 25.7984V27.7984Z" fill="#232323"/>
<path d="M126.3 27.5984C126.3 26.7984 126.9 26.3984 128 26.3984C128.3 26.3984 128.5 26.3984 128.8 26.4984V26.1984C128.8 25.7984 128.5 25.6984 128 25.6984C127.6 25.6984 127.1 25.7984 126.6 25.8984V25.0984C127.1 24.9984 127.6 24.8984 128 24.8984C129.2 24.8984 129.8 25.2984 129.8 26.1984V28.7984H129.2L128.8 28.3984C128.5 28.5984 128.1 28.7984 127.7 28.7984C126.8 28.7984 126.3 28.3984 126.3 27.5984ZM128 27.0984C127.5 27.0984 127.3 27.2984 127.3 27.5984C127.3 27.8984 127.5 28.0984 127.9 28.0984C128.2 28.0984 128.5 27.9984 128.8 27.7984V27.1984C128.6 27.0984 128.3 27.0984 128 27.0984Z" fill="#232323"/>
<path d="M134.2 28.4984C134.2 29.5984 133.5 30.1984 132.1 30.1984C131.6 30.1984 131.2 30.0984 130.8 29.9984V29.1984C131.2 29.2984 131.6 29.3984 132.1 29.3984C132.8 29.3984 133.2 29.0984 133.2 28.4984C132.9 28.5984 132.6 28.6984 132.2 28.6984C131 28.6984 130.4 28.0984 130.4 26.7984C130.4 25.4984 131.1 24.8984 132.4 24.8984C132.9 24.8984 133.4 24.9984 134.1 25.0984V28.4984H134.2ZM133.2 25.7984C133 25.6984 132.8 25.6984 132.5 25.6984C131.8 25.6984 131.5 26.0984 131.5 26.7984C131.5 27.4984 131.8 27.8984 132.4 27.8984C132.7 27.8984 133 27.7984 133.2 27.6984V25.7984Z" fill="#232323"/>
<path d="M135 27.5984C135 26.7984 135.6 26.3984 136.7 26.3984C137 26.3984 137.2 26.3984 137.5 26.4984V26.1984C137.5 25.7984 137.2 25.6984 136.7 25.6984C136.3 25.6984 135.8 25.7984 135.3 25.8984V25.0984C135.8 24.9984 136.3 24.8984 136.7 24.8984C137.9 24.8984 138.5 25.2984 138.5 26.1984V28.7984H137.9L137.5 28.3984C137.2 28.5984 136.8 28.7984 136.4 28.7984C135.5 28.7984 135 28.3984 135 27.5984ZM136.7 27.0984C136.2 27.0984 136 27.2984 136 27.5984C136 27.8984 136.2 28.0984 136.6 28.0984C136.9 28.0984 137.2 27.9984 137.5 27.7984V27.1984C137.2 27.0984 137 27.0984 136.7 27.0984Z" fill="#232323"/>
<path d="M139.4 28.7984V24.8984H140.2L140.3 25.3984C140.6 25.0984 141 24.8984 141.4 24.8984V25.6984C141 25.6984 140.7 25.8984 140.4 26.1984V28.8984H139.4V28.7984Z" fill="#232323"/>
<path d="M93.7002 57.3008V62.9008H92.7002V57.3008H93.7002Z" fill="#A0A0A0"/>
<path d="M94.7002 62.7992V58.6992H95.5002L95.6002 59.2992C96.0002 58.8992 96.4002 58.6992 96.9002 58.6992C97.9002 58.6992 98.4002 59.1992 98.4002 60.1992V62.7992H97.4002V60.1992C97.4002 59.6992 97.2002 59.4992 96.7002 59.4992C96.4002 59.4992 96.0002 59.5992 95.7002 59.8992V62.7992H94.7002Z" fill="#A0A0A0"/>
<path d="M99.4004 62.5992V61.6992C99.9004 61.8992 100.4 61.9992 101 61.9992C101.4 61.9992 101.7 61.8992 101.7 61.5992C101.7 61.2992 101.6 61.1992 101.3 61.1992H100.6C99.8004 61.1992 99.4004 60.7992 99.4004 59.9992C99.4004 59.0992 100 58.6992 101.2 58.6992C101.7 58.6992 102.2 58.7992 102.7 58.8992V59.7992C102.2 59.5992 101.8 59.4992 101.2 59.4992C100.6 59.4992 100.4 59.5992 100.4 59.8992C100.4 60.1992 100.6 60.2992 100.9 60.2992H101.6C102.5 60.2992 103 60.6992 103 61.4992C103 62.3992 102.4 62.7992 101.3 62.7992C100.4 62.8992 99.9004 62.7992 99.4004 62.5992Z" fill="#A0A0A0"/>
<path d="M103.3 58.1016H104.1L104.3 58.8016H105.3V59.6016H104.4V61.5016C104.4 61.9016 104.6 62.1016 104.9 62.1016H105.3V62.9016H104.4C103.7 62.9016 103.4 62.5016 103.4 61.8016V58.1016H103.3Z" fill="#A0A0A0"/>
<path d="M107 57.3008V58.1008H106V57.3008H107ZM107 58.8008V62.9008H106V58.8008H107Z" fill="#A0A0A0"/>
<path d="M107.9 58.1016H108.7L108.9 58.8016H109.9V59.6016H109V61.5016C109 61.9016 109.2 62.1016 109.5 62.1016H109.9V62.9016H109C108.3 62.9016 108 62.5016 108 61.8016V58.1016H107.9Z" fill="#A0A0A0"/>
<path d="M114.2 58.8008V62.9008H113.4L113.3 62.4008C112.8 62.7008 112.3 62.9008 111.8 62.9008C111 62.9008 110.5 62.4008 110.5 61.4008V58.8008H111.5V61.4008C111.5 61.9008 111.7 62.1008 112.1 62.1008C112.4 62.1008 112.8 62.0008 113.1 61.7008V58.8008H114.2Z" fill="#A0A0A0"/>
<path d="M118.2 62.6992C117.9 62.7992 117.5 62.7992 117.2 62.7992C115.7 62.7992 115 62.0992 115 60.6992C115 59.3992 115.7 58.6992 117.2 58.6992C117.6 58.6992 117.9 58.6992 118.2 58.7992V59.5992C117.9 59.4992 117.5 59.4992 117.2 59.4992C116.4 59.4992 116 59.8992 116 60.5992C116 61.4992 116.4 61.8992 117.2 61.8992C117.5 61.8992 117.8 61.8992 118.2 61.7992V62.6992Z" fill="#A0A0A0"/>
<path d="M119.9 57.3008V58.1008H118.9V57.3008H119.9ZM119.9 58.8008V62.9008H118.9V58.8008H119.9Z" fill="#A0A0A0"/>
<path d="M120.7 60.7992C120.7 59.3992 121.4 58.6992 122.7 58.6992C124 58.6992 124.7 59.3992 124.7 60.7992C124.7 62.1992 124 62.7992 122.7 62.7992C121.4 62.7992 120.7 62.1992 120.7 60.7992ZM122.7 62.0992C123.4 62.0992 123.7 61.6992 123.7 60.7992C123.7 59.9992 123.4 59.5992 122.7 59.5992C122 59.5992 121.7 59.9992 121.7 60.7992C121.7 61.5992 122.1 62.0992 122.7 62.0992Z" fill="#A0A0A0"/>
<path d="M125.5 62.7992V58.6992H126.3L126.4 59.2992C126.8 58.8992 127.2 58.6992 127.7 58.6992C128.7 58.6992 129.2 59.1992 129.2 60.1992V62.7992H128.2V60.1992C128.2 59.6992 128 59.4992 127.5 59.4992C127.2 59.4992 126.8 59.5992 126.5 59.8992V62.7992H125.5Z" fill="#A0A0A0"/>
<path d="M131.9 58.8008C133.1 58.8008 133.8 59.4008 133.8 60.7008C133.8 60.9008 133.8 61.0008 133.8 61.2008H131.1C131.1 61.8008 131.5 62.1008 132.4 62.1008C132.8 62.1008 133.2 62.1008 133.6 62.0008V62.8008C133.2 62.9008 132.8 62.9008 132.3 62.9008C130.8 62.9008 130.1 62.2008 130.1 60.8008C130 59.4008 130.7 58.8008 131.9 58.8008ZM131.1 60.4008H132.8C132.8 59.8008 132.5 59.6008 131.9 59.6008C131.4 59.6008 131.1 59.9008 131.1 60.4008Z" fill="#A0A0A0"/>
<path d="M134.6 62.5992V61.6992C135.1 61.8992 135.6 61.9992 136.2 61.9992C136.6 61.9992 136.9 61.8992 136.9 61.5992C136.9 61.2992 136.8 61.1992 136.5 61.1992H135.8C135 61.1992 134.6 60.7992 134.6 59.9992C134.6 59.0992 135.2 58.6992 136.4 58.6992C136.9 58.6992 137.4 58.7992 137.9 58.8992V59.7992C137.4 59.5992 137 59.4992 136.4 59.4992C135.8 59.4992 135.6 59.5992 135.6 59.8992C135.6 60.1992 135.8 60.2992 136.1 60.2992H136.8C137.7 60.2992 138.2 60.6992 138.2 61.4992C138.2 62.3992 137.6 62.7992 136.5 62.7992C135.5 62.8992 135 62.7992 134.6 62.5992Z" fill="#A0A0A0"/>
<path d="M139.8 58.8008H140.9L141.9 61.7008L142.9 58.8008H144L142.3 63.0008C142 63.7008 141.5 64.3008 140.9 64.6008L140.4 63.9008C140.9 63.7008 141.2 63.4008 141.4 62.9008L139.8 58.8008Z" fill="#A0A0A0"/>
<path d="M148 58.8008C149.2 58.8008 149.9 59.4008 149.9 60.7008C149.9 60.9008 149.9 61.0008 149.9 61.2008H147.2C147.2 61.8008 147.6 62.1008 148.5 62.1008C148.9 62.1008 149.3 62.1008 149.7 62.0008V62.8008C149.3 62.9008 148.9 62.9008 148.4 62.9008C146.9 62.9008 146.2 62.2008 146.2 60.8008C146.1 59.4008 146.7 58.8008 148 58.8008ZM147.1 60.4008H148.8C148.8 59.8008 148.5 59.6008 147.9 59.6008C147.4 59.6008 147.2 59.9008 147.1 60.4008Z" fill="#A0A0A0"/>
<path d="M150.6 62.7992V58.6992H151.4L151.5 59.2992C151.9 58.8992 152.3 58.6992 152.8 58.6992C153.3 58.6992 153.7 58.8992 153.9 59.2992C154.3 58.8992 154.8 58.6992 155.2 58.6992C156.1 58.6992 156.6 59.1992 156.6 60.2992V62.7992H155.6V60.1992C155.6 59.6992 155.4 59.4992 155 59.4992C154.7 59.4992 154.4 59.5992 154.1 59.8992V62.6992H153.1V60.0992C153.1 59.5992 152.9 59.3992 152.5 59.3992C152.2 59.3992 151.9 59.4992 151.6 59.7992V62.5992H150.6V62.7992Z" fill="#A0A0A0"/>
<path d="M157.6 58.8992C158.1 58.7992 158.7 58.6992 159.3 58.6992C160.7 58.6992 161.4 59.2992 161.4 60.5992C161.4 61.9992 160.8 62.6992 159.5 62.6992C159.2 62.6992 158.9 62.5992 158.7 62.4992V64.1992H157.7V58.8992H157.6ZM158.6 61.7992C158.9 61.8992 159.1 61.9992 159.4 61.9992C160 61.9992 160.3 61.5992 160.3 60.6992C160.3 59.9992 160 59.5992 159.3 59.5992C159 59.5992 158.8 59.5992 158.6 59.6992V61.7992Z" fill="#A0A0A0"/>
<path d="M162.2 62.7992V58.6992H163L163.1 59.1992C163.5 58.8992 163.8 58.6992 164.2 58.6992V59.4992C163.8 59.4992 163.5 59.6992 163.2 59.9992V62.7992H162.2Z" fill="#A0A0A0"/>
<path d="M166.5 58.8008C167.7 58.8008 168.4 59.4008 168.4 60.7008C168.4 60.9008 168.4 61.0008 168.4 61.2008H165.7C165.7 61.8008 166.1 62.1008 167 62.1008C167.4 62.1008 167.8 62.1008 168.2 62.0008V62.8008C167.8 62.9008 167.4 62.9008 166.9 62.9008C165.4 62.9008 164.7 62.2008 164.7 60.8008C164.6 59.4008 165.3 58.8008 166.5 58.8008ZM165.7 60.4008H167.4C167.4 59.8008 167.1 59.6008 166.5 59.6008C166 59.6008 165.7 59.9008 165.7 60.4008Z" fill="#A0A0A0"/>
<path d="M169.2 62.5992V61.6992C169.7 61.8992 170.2 61.9992 170.8 61.9992C171.2 61.9992 171.5 61.8992 171.5 61.5992C171.5 61.2992 171.4 61.1992 171.1 61.1992H170.4C169.6 61.1992 169.2 60.7992 169.2 59.9992C169.2 59.0992 169.8 58.6992 171 58.6992C171.5 58.6992 172 58.7992 172.5 58.8992V59.7992C172 59.5992 171.6 59.4992 171 59.4992C170.4 59.4992 170.2 59.5992 170.2 59.8992C170.2 60.1992 170.4 60.2992 170.7 60.2992H171.4C172.3 60.2992 172.8 60.6992 172.8 61.4992C172.8 62.3992 172.2 62.7992 171.1 62.7992C170.1 62.8992 169.6 62.7992 169.2 62.5992Z" fill="#A0A0A0"/>
<path d="M173 61.6023C173 60.8023 173.6 60.4023 174.8 60.4023C175.1 60.4023 175.4 60.4023 175.6 60.5023V60.2023C175.6 59.8023 175.3 59.7023 174.8 59.7023C174.4 59.7023 173.9 59.8023 173.3 59.9023V59.1023C173.8 59.0023 174.3 58.9023 174.8 58.9023C176 58.9023 176.6 59.3023 176.6 60.2023V62.9023H176L175.6 62.5023C175.2 62.7023 174.9 62.9023 174.4 62.9023C173.5 62.8023 173 62.4023 173 61.6023ZM174.7 61.0023C174.2 61.0023 174 61.2023 174 61.5023C174 61.9023 174.2 62.0023 174.6 62.0023C174.9 62.0023 175.3 61.9023 175.6 61.7023V61.0023C175.3 61.1023 175 61.0023 174.7 61.0023Z" fill="#A0A0A0"/>
<path d="M177.6 62.5992V61.6992C178.1 61.8992 178.6 61.9992 179.2 61.9992C179.6 61.9992 179.9 61.8992 179.9 61.5992C179.9 61.2992 179.8 61.1992 179.5 61.1992H178.8C178 61.1992 177.6 60.7992 177.6 59.9992C177.6 59.0992 178.2 58.6992 179.4 58.6992C179.9 58.6992 180.4 58.7992 180.9 58.8992V59.7992C180.4 59.5992 180 59.4992 179.4 59.4992C178.8 59.4992 178.6 59.5992 178.6 59.8992C178.6 60.1992 178.8 60.2992 179.1 60.2992H179.8C180.7 60.2992 181.2 60.6992 181.2 61.4992C181.2 62.3992 180.6 62.7992 179.5 62.7992C178.5 62.8992 178 62.7992 177.6 62.5992Z" fill="#A0A0A0"/>
<path d="M93.6001 90.1992V95.4992H92.6001V90.1992H93.6001Z" fill="#232323"/>
<path d="M94.6001 95.4977V91.5977H95.4001L95.5001 92.1977C95.9001 91.7977 96.3001 91.5977 96.8001 91.5977C97.7001 91.5977 98.2001 92.0977 98.2001 93.0977V95.5977H97.2001V93.0977C97.2001 92.6977 97.0001 92.3977 96.6001 92.3977C96.3001 92.3977 96.0001 92.4977 95.7001 92.7977V95.4977H94.6001Z" fill="#232323"/>
<path d="M99.0999 95.2977V94.4977C99.4999 94.6977 99.9999 94.7977 100.6 94.7977C101 94.7977 101.2 94.6977 101.2 94.3977C101.2 94.0977 101.1 93.9977 100.8 93.9977H100.1C99.2999 93.9977 98.8999 93.5977 98.8999 92.7977C98.8999 91.9977 99.4999 91.5977 100.6 91.5977C101.1 91.5977 101.6 91.6977 102 91.7977V92.5977C101.6 92.3977 101.1 92.2977 100.6 92.2977C100.1 92.2977 99.7999 92.3977 99.7999 92.6977C99.7999 92.9977 99.9999 93.0977 100.3 93.0977H100.9C101.8 93.0977 102.2 93.4977 102.2 94.2977C102.2 95.0977 101.6 95.4977 100.5 95.4977C100.1 95.5977 99.5999 95.4977 99.0999 95.2977Z" fill="#232323"/>
<path d="M102.9 91H103.6L103.7 91.6H104.7V92.4H103.8V94.2C103.8 94.6 104 94.7 104.3 94.7H104.7V95.5H103.8C103.1 95.5 102.8 95.1 102.8 94.4V91H102.9Z" fill="#232323"/>
<path d="M106.4 90.1992V90.9992H105.4V90.1992H106.4ZM106.4 91.5992V95.4992H105.4V91.5992H106.4Z" fill="#232323"/>
<path d="M107.3 91H108L108.1 91.6H109.1V92.4H108.2V94.2C108.2 94.6 108.4 94.7 108.7 94.7H109.1V95.5H108.2C107.5 95.5 107.2 95.1 107.2 94.4V91H107.3Z" fill="#232323"/>
<path d="M113.4 91.5977V95.4977H112.6L112.5 94.9977C112 95.2977 111.6 95.4977 111.1 95.4977C110.3 95.4977 109.9 94.9977 109.9 94.0977V91.5977H110.9V94.0977C110.9 94.4977 111.1 94.7977 111.5 94.7977C111.8 94.7977 112.1 94.6977 112.5 94.3977V91.6977H113.4V91.5977Z" fill="#232323"/>
<path d="M117.2 95.3977C116.9 95.4977 116.5 95.4977 116.2 95.4977C114.8 95.4977 114.1 94.7977 114.1 93.4977C114.1 92.1977 114.8 91.5977 116.2 91.5977C116.5 91.5977 116.9 91.5977 117.2 91.6977V92.4977C116.9 92.3977 116.6 92.3977 116.3 92.3977C115.5 92.3977 115.1 92.7977 115.1 93.4977C115.1 94.2977 115.5 94.7977 116.3 94.7977C116.6 94.7977 116.9 94.7977 117.2 94.6977V95.3977Z" fill="#232323"/>
<path d="M118.9 90.1992V90.9992H117.9V90.1992H118.9ZM118.9 91.5992V95.4992H117.9V91.5992H118.9Z" fill="#232323"/>
<path d="M119.6 93.5992C119.6 92.2992 120.2 91.5992 121.5 91.5992C122.8 91.5992 123.4 92.2992 123.4 93.5992C123.4 94.8992 122.8 95.5992 121.5 95.5992C120.3 95.4992 119.6 94.8992 119.6 93.5992ZM121.6 94.7992C122.2 94.7992 122.6 94.3992 122.6 93.5992C122.6 92.7992 122.3 92.3992 121.6 92.3992C120.9 92.3992 120.6 92.7992 120.6 93.5992C120.6 94.3992 120.9 94.7992 121.6 94.7992ZM121.5 90.1992H122.7L121.8 91.1992H121L121.5 90.1992Z" fill="#232323"/>
<path d="M124.3 95.4977V91.5977H125.1L125.2 92.1977C125.6 91.7977 126 91.5977 126.5 91.5977C127.4 91.5977 127.9 92.0977 127.9 93.0977V95.5977H126.9V93.0977C126.9 92.6977 126.7 92.3977 126.3 92.3977C126 92.3977 125.7 92.4977 125.4 92.7977V95.4977H124.3Z" fill="#232323"/>
<path d="M131.1 95.4992H130L132.7 90.1992H133.8L131.1 95.4992Z" fill="#232323"/>
<path d="M139.8 90.1992V90.9992H137.1V92.2992H139.6V93.1992H137V94.5992H139.7V95.4992H136V90.1992H139.8Z" fill="#232323"/>
<path d="M140.7 95.4977V91.5977H141.5L141.6 92.1977C142 91.7977 142.4 91.5977 142.9 91.5977C143.4 91.5977 143.7 91.7977 143.9 92.0977C144.3 91.6977 144.7 91.5977 145.2 91.5977C146.1 91.5977 146.6 92.0977 146.6 93.0977V95.4977H145.6V92.9977C145.6 92.5977 145.4 92.2977 145 92.2977C144.7 92.2977 144.4 92.3977 144.2 92.6977V95.3977H143.2V92.8977C143.2 92.4977 143 92.1977 142.7 92.1977C142.4 92.1977 142.1 92.2977 141.9 92.5977V95.2977H140.7V95.4977Z" fill="#232323"/>
<path d="M147.4 91.7977C147.9 91.6977 148.5 91.5977 149.1 91.5977C150.4 91.5977 151.1 92.1977 151.1 93.4977C151.1 94.8977 150.5 95.5977 149.2 95.5977C148.9 95.5977 148.7 95.4977 148.4 95.3977V96.9977H147.4V91.7977ZM148.4 94.4977C148.6 94.5977 148.9 94.6977 149.2 94.6977C149.8 94.6977 150.1 94.2977 150.1 93.4977C150.1 92.7977 149.8 92.3977 149.1 92.3977C148.8 92.3977 148.6 92.3977 148.4 92.4977V94.4977Z" fill="#232323"/>
<path d="M151.8 95.4977V91.5977H152.6L152.7 92.0977C153 91.7977 153.4 91.5977 153.8 91.5977V92.3977C153.4 92.3977 153.1 92.5977 152.8 92.8977V95.5977H151.8V95.4977Z" fill="#232323"/>
<path d="M156 91.5977C157.2 91.5977 157.8 92.1977 157.8 93.3977C157.8 93.5977 157.8 93.6977 157.8 93.8977H155.2C155.2 94.4977 155.6 94.6977 156.4 94.6977C156.8 94.6977 157.2 94.6977 157.6 94.5977V95.3977C157.3 95.4977 156.8 95.4977 156.3 95.4977C154.9 95.4977 154.2 94.7977 154.2 93.4977C154.2 92.1977 154.8 91.5977 156 91.5977ZM155.2 93.1977H156.9C156.9 92.6977 156.6 92.3977 156.1 92.3977C155.5 92.3977 155.2 92.6977 155.2 93.1977Z" fill="#232323"/>
<path d="M158.6 95.2977V94.4977C159 94.6977 159.5 94.7977 160.1 94.7977C160.5 94.7977 160.7 94.6977 160.7 94.3977C160.7 94.0977 160.6 93.9977 160.3 93.9977H159.6C158.8 93.9977 158.4 93.5977 158.4 92.7977C158.4 91.9977 159 91.5977 160.1 91.5977C160.6 91.5977 161.1 91.6977 161.5 91.7977V92.5977C161.1 92.3977 160.6 92.2977 160.1 92.2977C159.6 92.2977 159.3 92.3977 159.3 92.6977C159.3 92.9977 159.5 93.0977 159.8 93.0977H160.4C161.3 93.0977 161.7 93.4977 161.7 94.2977C161.7 95.0977 161.1 95.4977 160 95.4977C159.5 95.5977 159 95.4977 158.6 95.2977Z" fill="#232323"/>
<path d="M162.2 94.2977C162.2 93.4977 162.8 93.0977 163.9 93.0977C164.2 93.0977 164.4 93.0977 164.7 93.1977V92.8977C164.7 92.4977 164.4 92.3977 163.9 92.3977C163.5 92.3977 163 92.4977 162.5 92.5977V91.7977C163 91.6977 163.5 91.5977 163.9 91.5977C165.1 91.5977 165.7 91.9977 165.7 92.8977V95.4977H165.1L164.7 95.0977C164.4 95.2977 164 95.4977 163.6 95.4977C162.7 95.4977 162.2 95.0977 162.2 94.2977ZM163.9 93.7977C163.4 93.7977 163.2 93.9977 163.2 94.2977C163.2 94.5977 163.4 94.7977 163.8 94.7977C164.1 94.7977 164.4 94.6977 164.7 94.4977V93.8977C164.5 93.7977 164.2 93.7977 163.9 93.7977Z" fill="#232323"/>
<path d="M97.1 84.7023C96.6 84.9023 96.1 85.0023 95.5 85.0023C93.5 85.0023 92.5 84.0023 92.5 82.1023C92.5 80.3023 93.5 79.4023 95.5 79.4023C96.1 79.4023 96.7 79.5023 97.1 79.7023V80.6023C96.6 80.4023 96.1 80.3023 95.5 80.3023C94.2 80.3023 93.5 80.9023 93.5 82.1023C93.5 83.4023 94.2 84.1023 95.5 84.1023C96.1 84.1023 96.6 84.0023 97.1 83.8023V84.7023Z" fill="#A0A0A0"/>
<path d="M98 82.8023V79.4023H99V82.8023C99 83.7023 99.5 84.1023 100.4 84.1023C101.3 84.1023 101.8 83.7023 101.8 82.8023V79.4023H102.8V82.8023C102.8 84.3023 102 85.0023 100.4 85.0023C98.8 85.0023 98 84.3023 98 82.8023Z" fill="#A0A0A0"/>
<path d="M107.8 79.4023V80.3023H105V81.7023H107.7V82.6023H105V84.1023H107.8V85.0023H104V79.4023H107.8Z" fill="#A0A0A0"/>
<path d="M108.8 85.0023V79.4023H109.8L112.7 83.5023V79.4023H113.7V85.0023H112.7L109.8 80.9023V85.0023H108.8Z" fill="#A0A0A0"/>
<path d="M118.5 79.4023V80.3023H117V85.0023H116V80.3023H114.4V79.4023H118.5Z" fill="#A0A0A0"/>
<path d="M119.1 85.0023H118L120.4 79.4023H121.5L123.9 85.0023H122.8L122.2 83.5023H120.4L120.8 82.6023H121.9L121 80.5023L119.1 85.0023Z" fill="#A0A0A0"/>
<path d="M126.3 84.7008V83.8008C126.9 84.0008 127.5 84.1008 128.2 84.1008C129.1 84.1008 129.5 83.8008 129.5 83.2008C129.5 82.8008 129.2 82.6008 128.7 82.6008H127.8C126.7 82.6008 126.1 82.1008 126.1 81.0008C126.1 79.9008 126.9 79.3008 128.5 79.3008C129.1 79.3008 129.7 79.4008 130.3 79.6008V80.5008C129.7 80.3008 129.2 80.2008 128.5 80.2008C127.6 80.2008 127.1 80.5008 127.1 81.0008C127.1 81.4008 127.3 81.6008 127.8 81.6008H128.7C129.9 81.6008 130.5 82.1008 130.5 83.2008C130.5 84.4008 129.7 85.0008 128.2 85.0008C127.5 85.0008 126.8 84.9008 126.3 84.7008Z" fill="#A0A0A0"/>
<path d="M131.4 82.8023V79.4023H132.4V82.8023C132.4 83.7023 132.9 84.1023 133.8 84.1023C134.7 84.1023 135.2 83.7023 135.2 82.8023V79.4023H136.2V82.8023C136.2 84.3023 135.4 85.0023 133.8 85.0023C132.1 85.0023 131.4 84.3023 131.4 82.8023Z" fill="#A0A0A0"/>
<path d="M141.1 79.4023V80.3023H138.3V81.7023H141V82.6023H138.3V84.1023H141.1V85.0023H137.2V79.4023H141.1Z" fill="#A0A0A0"/>
<path d="M143.1 79.4023V84.1023H145.3V85.0023H142.1V79.4023H143.1Z" fill="#A0A0A0"/>
<path d="M146.3 85.0023V79.4023H148.5C150.3 79.4023 151.3 80.3023 151.3 82.0023C151.3 84.0023 150.4 84.9023 148.5 84.9023H146.3V85.0023ZM148.5 84.1023C149.7 84.1023 150.2 83.4023 150.2 82.1023C150.2 80.9023 149.6 80.4023 148.5 80.4023H147.4V84.2023H148.5V84.1023Z" fill="#A0A0A0"/>
<path d="M151.9 82.2023C151.9 80.3023 152.8 79.4023 154.7 79.4023C156.5 79.4023 157.4 80.3023 157.4 82.2023C157.4 84.1023 156.5 85.0023 154.7 85.0023C153 85.0023 152 84.1023 151.9 82.2023ZM154.7 84.1023C155.8 84.1023 156.4 83.5023 156.4 82.2023C156.4 80.9023 155.8 80.3023 154.7 80.3023C153.6 80.3023 153 80.9023 153 82.2023C153 83.5023 153.6 84.1023 154.7 84.1023Z" fill="#A0A0A0"/>
<path d="M161.2 79.4023V86.4023H160.2V79.4023H161.2Z" fill="#A0A0A0"/>
<path d="M164.1 84.7008V83.8008C164.7 84.0008 165.3 84.1008 166 84.1008C166.9 84.1008 167.3 83.8008 167.3 83.2008C167.3 82.8008 167 82.6008 166.5 82.6008H165.6C164.5 82.6008 163.9 82.1008 163.9 81.0008C163.9 79.9008 164.7 79.3008 166.3 79.3008C166.9 79.3008 167.5 79.4008 168.1 79.6008V80.5008C167.5 80.3008 167 80.2008 166.3 80.2008C165.4 80.2008 164.9 80.5008 164.9 81.0008C164.9 81.4008 165.1 81.6008 165.6 81.6008H166.5C167.7 81.6008 168.3 82.1008 168.3 83.2008C168.3 84.4008 167.5 85.0008 166 85.0008C165.2 85.0008 164.6 84.9008 164.1 84.7008Z" fill="#A0A0A0"/>
<path d="M168.8 82.9008C168.8 81.5008 169.5 80.8008 170.8 80.8008C172.1 80.8008 172.8 81.5008 172.8 82.9008C172.8 84.3008 172.1 84.9008 170.8 84.9008C169.5 85.0008 168.8 84.3008 168.8 82.9008ZM170.9 84.2008C171.6 84.2008 171.9 83.8008 171.9 82.9008C171.9 82.1008 171.6 81.7008 170.9 81.7008C170.2 81.7008 169.9 82.1008 169.9 82.9008C169.9 83.8008 170.2 84.2008 170.9 84.2008Z" fill="#A0A0A0"/>
<path d="M174.7 79.4023V85.0023H173.7V79.4023H174.7Z" fill="#A0A0A0"/>
<path d="M177.4 80.9023C178.6 80.9023 179.3 81.5023 179.3 82.8023C179.3 83.0023 179.3 83.1023 179.3 83.3023H176.6C176.6 83.9023 177 84.2023 177.9 84.2023C178.3 84.2023 178.7 84.2023 179.1 84.1023V84.9023C178.7 85.0023 178.3 85.0023 177.8 85.0023C176.3 85.0023 175.6 84.3023 175.6 82.9023C175.5 81.6023 176.1 80.9023 177.4 80.9023ZM176.5 82.6023H178.2C178.2 82.0023 177.9 81.8023 177.3 81.8023C176.8 81.7023 176.5 82.0023 176.5 82.6023Z" fill="#A0A0A0"/>
<path d="M180 84.8023V83.9023C180.5 84.1023 181 84.2023 181.6 84.2023C182 84.2023 182.3 84.1023 182.3 83.8023C182.3 83.5023 182.2 83.4023 181.9 83.4023H181.2C180.4 83.4023 180 83.0023 180 82.2023C180 81.3023 180.6 80.9023 181.8 80.9023C182.3 80.9023 182.8 81.0023 183.3 81.1023V82.0023C182.8 81.8023 182.4 81.7023 181.8 81.7023C181.2 81.7023 181 81.8023 181 82.1023C181 82.4023 181.2 82.5023 181.5 82.5023H182.2C183.1 82.5023 183.6 82.9023 183.6 83.7023C183.6 84.6023 183 85.0023 181.9 85.0023C181 85.0023 180.5 84.9023 180 84.8023Z" fill="#A0A0A0"/>
<path d="M185.6 82.2023C185.6 80.3023 186.4 79.4023 188.1 79.4023C189.7 79.4023 190.5 80.3023 190.5 82.2023C190.5 84.1023 189.7 85.0023 188.1 85.0023C186.4 85.0023 185.6 84.1023 185.6 82.2023ZM188.1 84.1023C189 84.1023 189.5 83.5023 189.5 82.2023C189.5 80.9023 189 80.3023 188.1 80.3023C187.2 80.3023 186.7 80.9023 186.7 82.2023C186.7 83.5023 187.2 84.1023 188.1 84.1023Z" fill="#A0A0A0"/>
<path d="M191.2 82.2023C191.2 80.3023 192 79.4023 193.7 79.4023C195.3 79.4023 196.1 80.3023 196.1 82.2023C196.1 84.1023 195.3 85.0023 193.7 85.0023C192.1 85.0023 191.2 84.1023 191.2 82.2023ZM193.7 84.1023C194.6 84.1023 195.1 83.5023 195.1 82.2023C195.1 80.9023 194.6 80.3023 193.7 80.3023C192.8 80.3023 192.3 80.9023 192.3 82.2023C192.3 83.5023 192.8 84.1023 193.7 84.1023Z" fill="#A0A0A0"/>
<path d="M197.5 85.0023V80.3023H196.9V79.9023L198.5 79.4023V85.0023H197.5Z" fill="#A0A0A0"/>
<path d="M200.2 85.0023V80.3023H199.6V79.9023L201.2 79.4023V85.0023H200.2Z" fill="#A0A0A0"/>
<path d="M204.2 82.5V83.3H202.3V82.5H204.2Z" fill="#A0A0A0"/>
<path d="M204.9 82.2023C204.9 80.3023 205.7 79.4023 207.4 79.4023C209 79.4023 209.8 80.3023 209.8 82.2023C209.8 84.1023 209 85.0023 207.4 85.0023C205.8 85.0023 204.9 84.1023 204.9 82.2023ZM207.4 84.1023C208.3 84.1023 208.8 83.5023 208.8 82.2023C208.8 80.9023 208.3 80.3023 207.4 80.3023C206.5 80.3023 206 80.9023 206 82.2023C206 83.5023 206.5 84.1023 207.4 84.1023Z" fill="#A0A0A0"/>
<path d="M210.6 82.2023C210.6 80.3023 211.4 79.4023 213.1 79.4023C214.7 79.4023 215.5 80.3023 215.5 82.2023C215.5 84.1023 214.7 85.0023 213.1 85.0023C211.4 85.0023 210.6 84.1023 210.6 82.2023ZM213 84.1023C213.9 84.1023 214.4 83.5023 214.4 82.2023C214.4 80.9023 213.9 80.3023 213 80.3023C212.1 80.3023 211.6 80.9023 211.6 82.2023C211.6 83.5023 212.1 84.1023 213 84.1023Z" fill="#A0A0A0"/>
<path d="M216.5 79.4023H219.8V80.2023H217.4L217.3 81.6023C217.4 81.5023 217.7 81.5023 217.9 81.5023C219.3 81.5023 220 82.1023 220 83.2023C220 84.4023 219.3 85.0023 217.8 85.0023C217.3 85.0023 216.8 84.9023 216.2 84.8023V83.9023C216.7 84.1023 217.2 84.2023 217.8 84.2023C218.5 84.2023 218.9 83.9023 218.9 83.2023C218.9 82.6023 218.5 82.3023 217.8 82.3023C217.2 82.3023 216.7 82.4023 216.2 82.5023L216.5 79.4023Z" fill="#A0A0A0"/>
<path d="M220.7 79.4023H224.7V80.2023L222.2 84.9023H221.1L223.6 80.2023H220.7V79.4023Z" fill="#A0A0A0"/>
<path d="M227.2 82.5V83.3H225.3V82.5H227.2Z" fill="#A0A0A0"/>
<path d="M228 82.2023C228 80.3023 228.8 79.4023 230.5 79.4023C232.1 79.4023 232.9 80.3023 232.9 82.2023C232.9 84.1023 232.1 85.0023 230.5 85.0023C228.8 85.0023 228 84.1023 228 82.2023ZM230.4 84.1023C231.3 84.1023 231.8 83.5023 231.8 82.2023C231.8 80.9023 231.3 80.3023 230.4 80.3023C229.5 80.3023 229 80.9023 229 82.2023C229 83.5023 229.5 84.1023 230.4 84.1023Z" fill="#A0A0A0"/>
<path d="M233.6 85.0023V84.2023C235.5 82.9023 236.4 81.9023 236.4 81.1023C236.4 80.6023 236.1 80.3023 235.4 80.3023C234.8 80.3023 234.3 80.4023 233.8 80.7023V79.8023C234.3 79.5023 234.8 79.4023 235.4 79.4023C236.8 79.4023 237.4 79.9023 237.4 81.0023C237.4 82.0023 236.7 83.0023 235.2 84.1023H237.4V85.0023H233.6Z" fill="#A0A0A0"/>
<path d="M238.2 79.6023C238.7 79.4023 239.3 79.4023 239.8 79.4023C241.2 79.4023 241.9 79.9023 241.9 80.9023C241.9 81.5023 241.7 81.9023 241.2 82.2023C241.7 82.4023 241.9 82.8023 241.9 83.5023C241.9 84.6023 241.2 85.1023 239.8 85.1023C239.2 85.1023 238.7 85.0023 238.2 84.9023V84.0023C238.7 84.2023 239.3 84.3023 239.8 84.3023C240.5 84.3023 240.8 84.0023 240.8 83.5023C240.8 83.0023 240.6 82.8023 240.1 82.8023H238.7V81.9023H240C240.5 81.9023 240.8 81.7023 240.8 81.2023C240.8 80.7023 240.4 80.5023 239.8 80.5023C239.2 80.5023 238.7 80.6023 238.2 80.8023V79.6023Z" fill="#A0A0A0"/>
<path d="M242.5 83.3008C242.5 82.7008 242.8 82.3008 243.3 82.0008C242.9 81.8008 242.6 81.3008 242.6 80.7008C242.6 79.8008 243.3 79.3008 244.6 79.3008C245.9 79.3008 246.6 79.8008 246.6 80.7008C246.6 81.3008 246.4 81.7008 245.9 82.0008C246.5 82.3008 246.7 82.7008 246.7 83.3008C246.7 84.4008 246 85.0008 244.6 85.0008C243.2 85.0008 242.5 84.5008 242.5 83.3008ZM245.8 83.4008C245.8 82.9008 245.4 82.6008 244.7 82.6008C243.9 82.6008 243.5 82.9008 243.5 83.4008C243.5 83.9008 243.9 84.2008 244.7 84.2008C245.4 84.1008 245.8 83.9008 245.8 83.4008ZM245.6 80.9008C245.6 80.5008 245.3 80.3008 244.6 80.3008C243.9 80.3008 243.6 80.5008 243.6 80.9008C243.6 81.4008 243.9 81.6008 244.6 81.6008C245.3 81.6008 245.6 81.4008 245.6 80.9008Z" fill="#A0A0A0"/>
<path d="M247.5 83.3008C247.5 82.7008 247.8 82.3008 248.3 82.0008C247.9 81.8008 247.6 81.3008 247.6 80.7008C247.6 79.8008 248.3 79.3008 249.6 79.3008C250.9 79.3008 251.6 79.8008 251.6 80.7008C251.6 81.3008 251.4 81.7008 250.9 82.0008C251.5 82.3008 251.7 82.7008 251.7 83.3008C251.7 84.4008 251 85.0008 249.6 85.0008C248.2 85.0008 247.5 84.5008 247.5 83.3008ZM250.8 83.4008C250.8 82.9008 250.4 82.6008 249.7 82.6008C248.9 82.6008 248.5 82.9008 248.5 83.4008C248.5 83.9008 248.9 84.2008 249.7 84.2008C250.4 84.1008 250.8 83.9008 250.8 83.4008ZM250.6 80.9008C250.6 80.5008 250.3 80.3008 249.6 80.3008C248.9 80.3008 248.6 80.5008 248.6 80.9008C248.6 81.4008 248.9 81.6008 249.6 81.6008C250.3 81.6008 250.6 81.4008 250.6 80.9008Z" fill="#A0A0A0"/>
<path d="M252.5 82.2023C252.5 80.3023 253.3 79.4023 255 79.4023C256.6 79.4023 257.4 80.3023 257.4 82.2023C257.4 84.1023 256.6 85.0023 255 85.0023C253.3 85.0023 252.5 84.1023 252.5 82.2023ZM254.9 84.1023C255.8 84.1023 256.3 83.5023 256.3 82.2023C256.3 80.9023 255.8 80.3023 254.9 80.3023C254 80.3023 253.5 80.9023 253.5 82.2023C253.5 83.5023 254 84.1023 254.9 84.1023Z" fill="#A0A0A0"/>
<path d="M261.8 85.0023H260.8V83.8023H258V83.0023L260.3 79.4023H261.4L259.2 82.9023H260.8V81.0023H261.8V83.0023L262.4 83.5023V83.8023H261.8V85.0023Z" fill="#A0A0A0"/>
<path d="M262.9 85.0023V84.2023C264.8 82.9023 265.7 81.9023 265.7 81.1023C265.7 80.6023 265.4 80.3023 264.7 80.3023C264.1 80.3023 263.6 80.4023 263.1 80.7023V79.8023C263.6 79.5023 264.1 79.4023 264.7 79.4023C266.1 79.4023 266.7 79.9023 266.7 81.0023C266.7 82.0023 266 83.0023 264.5 84.1023H266.7V85.0023H262.9Z" fill="#A0A0A0"/>
<path d="M271.1 85.0023H270.1V83.8023H267.3V83.0023L269.6 79.4023H270.7L268.5 82.9023H270.1V81.0023H271.1V83.0023L271.7 83.5023V83.8023H271.1V85.0023Z" fill="#A0A0A0"/>
<path d="M272.2 85.0023V84.2023C274.1 82.9023 275 81.9023 275 81.1023C275 80.6023 274.7 80.3023 274 80.3023C273.4 80.3023 272.9 80.4023 272.4 80.7023V79.8023C272.9 79.5023 273.4 79.4023 274 79.4023C275.4 79.4023 276 79.9023 276 81.0023C276 82.0023 275.3 83.0023 273.8 84.1023H276V85.0023H272.2Z" fill="#A0A0A0"/>
<path d="M93.2001 106.1H92.1001L94.5001 100.5H95.6001L98.0001 106.1H96.9001L96.3001 104.6H94.5001L94.9001 103.7H96.0001L95.1001 101.6L93.2001 106.1Z" fill="#A0A0A0"/>
<path d="M103.1 105.8C102.6 106 102.1 106.1 101.5 106.1C99.5 106.1 98.5 105.1 98.5 103.2C98.5 101.4 99.5 100.5 101.5 100.5C102.1 100.5 102.7 100.6 103.1 100.8V101.7C102.6 101.5 102.1 101.4 101.5 101.4C100.2 101.4 99.5 102 99.5 103.2C99.5 104.5 100.2 105.2 101.5 105.2C102.1 105.2 102.6 105.1 103.1 104.9V105.8Z" fill="#A0A0A0"/>
<path d="M104.7 106.1H103.6L106 100.5H107.1L109.5 106.1H108.4L107.8 104.6H106L106.4 103.7H107.5L106.6 101.6L104.7 106.1Z" fill="#A0A0A0"/>
<path d="M110.2 106.1V100.5H112.4C114.2 100.5 115.2 101.4 115.2 103.1C115.2 105.1 114.3 106 112.4 106H110.2V106.1ZM112.4 105.2C113.6 105.2 114.1 104.5 114.1 103.2C114.1 102 113.5 101.5 112.4 101.5H111.3V105.3H112.4V105.2Z" fill="#A0A0A0"/>
<path d="M119.8 100.5V101.4H117V102.8H119.7V103.7H117V105.2H119.8V106.1H116V100.5H119.8Z" fill="#A0A0A0"/>
<path d="M120.8 106.1V100.5H121.9L123.8 104.7L125.6 100.5H126.6V106.1H125.6V102.2L124.1 106.1H123.2L121.7 102.2V106.1H120.8Z" fill="#A0A0A0"/>
<path d="M128.8 100.5V106.1H127.8V100.5H128.8Z" fill="#A0A0A0"/>
<path d="M130.6 106.1H129.5L131.9 100.5H133L135.4 106.1H134.3L133.7 104.6H131.9L132.3 103.7H133.4L132.5 101.6L130.6 106.1Z" fill="#A0A0A0"/>
<path d="M141.5 100.5V101.4H139.9V106.1H138.9V101.4H137.3V100.5H141.5Z" fill="#A0A0A0"/>
<path d="M142 106.1V100.5H144.5C145.6 100.5 146.2 101 146.2 102C146.2 102.7 145.8 103.2 144.9 103.7L146.7 106.1H145.4L143.7 103.7V103.2C144.7 103 145.2 102.6 145.2 102.1C145.2 101.7 145 101.5 144.5 101.5H143.1V106.1H142Z" fill="#A0A0A0"/>
<path d="M148.2 100.5V106.1H147.2V100.5H148.2Z" fill="#A0A0A0"/>
<path d="M150.4 100.5V105.2H152.6V106.1H149.4V100.5H150.4Z" fill="#A0A0A0"/>
<path d="M157.5 105.8C157 106 156.5 106.1 155.9 106.1C153.9 106.1 152.9 105.1 152.9 103.2C152.9 101.4 153.9 100.5 155.9 100.5C156.5 100.5 157.1 100.6 157.5 100.8V101.7C157 101.5 156.5 101.4 155.9 101.4C154.6 101.4 153.9 102 153.9 103.2C153.9 104.5 154.6 105.2 155.9 105.2C156.5 105.2 157 105.1 157.5 104.9V105.8Z" fill="#A0A0A0"/>
<path d="M162.2 100.5V101.4H159.4V102.8H162.1V103.7H159.4V105.2H162.2V106.1H158.3V100.5H162.2Z" fill="#A0A0A0"/>
<path d="M94.3001 143.301V147.301C94.3001 148.401 93.6001 148.901 92.1001 148.901V148.001C92.9001 148.001 93.3001 147.801 93.3001 147.301V143.301H94.3001Z" fill="#A0A0A0"/>
<path d="M95.5 146.701V143.301H96.5V146.701C96.5 147.601 97 148.001 97.9 148.001C98.8 148.001 99.3 147.601 99.3 146.701V143.301H100.3V146.701C100.3 148.201 99.5 148.901 97.9 148.901C96.3 148.901 95.5 148.101 95.5 146.701Z" fill="#A0A0A0"/>
<path d="M102 148.799H101L103.4 143.199H104.5L106.9 148.799H105.8L105.2 147.299H103.4L103.8 146.399H104.9L104 144.299L102 148.799Z" fill="#A0A0A0"/>
<path d="M107.5 148.799V143.199H108.5L111.4 147.299V143.199H112.4V148.799H111.4L108.5 144.699V148.799H107.5Z" fill="#A0A0A0"/>
<path d="M115.4 148.799V143.199H117.9C119 143.199 119.6 143.699 119.6 144.799C119.6 145.899 118.8 146.599 117.3 146.899L117.2 145.999C118.1 145.799 118.6 145.499 118.6 144.899C118.6 144.399 118.4 144.199 117.9 144.199H116.5V148.899H115.4V148.799Z" fill="#A0A0A0"/>
<path d="M124.1 143.301V144.201H121.3V145.601H124V146.501H121.3V148.001H124.1V148.901H120.2V143.301H124.1Z" fill="#A0A0A0"/>
<path d="M125.1 148.799V143.199H127.6C128.7 143.199 129.3 143.699 129.3 144.699C129.3 145.399 128.9 145.899 128 146.399L129.8 148.799H128.5L126.8 146.399V145.999C127.8 145.799 128.3 145.399 128.3 144.899C128.3 144.499 128.1 144.299 127.6 144.299H126.2V148.899H125.1V148.799Z" fill="#A0A0A0"/>
<path d="M134 143.301V144.201H131.2V145.601H133.9V146.501H131.2V148.001H134V148.901H130.1V143.301H134Z" fill="#A0A0A0"/>
<path d="M139.1 143.301V144.201L136.1 148.001H139.1V148.901H135V148.001L138.1 144.201H135.1V143.301H139.1Z" fill="#A0A0A0"/>
<path d="M92.4998 189.902V189.102C92.9998 189.302 93.5998 189.402 94.1998 189.402C94.9998 189.402 95.2998 189.102 95.2998 188.602C95.2998 188.202 95.0998 188.002 94.5998 188.002H93.7998C92.7998 188.002 92.2998 187.502 92.2998 186.602C92.2998 185.602 92.9998 185.102 94.4998 185.102C95.0998 185.102 95.5998 185.202 96.0998 185.302V186.102C95.5998 185.902 95.0998 185.802 94.4998 185.802C93.6998 185.802 93.2998 186.002 93.2998 186.502C93.2998 186.902 93.4998 187.102 93.8998 187.102H94.6998C95.7998 187.102 96.2998 187.602 96.2998 188.502C96.2998 189.502 95.5998 190.102 94.1998 190.102C93.4998 190.202 92.9998 190.102 92.4998 189.902Z" fill="#A0A0A0"/>
<path d="M97.5 190.103H96.5L99 185.203H100L97.5 190.103Z" fill="#A0A0A0"/>
<path d="M102.5 190.102V186.002H102V185.602L103.4 185.102V190.102H102.5Z" fill="#A0A0A0"/>
<path d="M104.4 185.403C104.9 185.303 105.3 185.203 105.9 185.203C107.1 185.203 107.7 185.603 107.7 186.503C107.7 187.003 107.5 187.403 107.1 187.603C107.5 187.803 107.7 188.203 107.7 188.703C107.7 189.603 107.1 190.103 105.9 190.103C105.4 190.103 104.9 190.003 104.4 189.903V189.103C104.9 189.303 105.3 189.303 105.9 189.303C106.5 189.303 106.8 189.103 106.8 188.603C106.8 188.203 106.6 188.003 106.1 188.003H104.9V187.203H106.1C106.5 187.203 106.8 187.003 106.8 186.603C106.8 186.203 106.5 185.903 105.9 185.903C105.4 185.903 104.9 186.003 104.4 186.103V185.403Z" fill="#A0A0A0"/>
<path d="M108.2 187.703C108.2 186.003 108.9 185.203 110.4 185.203C111.8 185.203 112.6 186.003 112.6 187.703C112.6 189.403 111.9 190.203 110.4 190.203C109 190.203 108.2 189.303 108.2 187.703ZM110.4 189.403C111.2 189.403 111.6 188.803 111.6 187.703C111.6 186.603 111.2 186.003 110.4 186.003C109.6 186.003 109.1 186.603 109.1 187.703C109.2 188.803 109.6 189.403 110.4 189.403Z" fill="#A0A0A0"/>
<path d="M114.2 189.301V190.101H113.3V189.301H114.2Z" fill="#A0A0A0"/>
<path d="M114.8 187.703C114.8 186.003 115.5 185.203 117 185.203C118.4 185.203 119.2 186.003 119.2 187.703C119.2 189.403 118.5 190.203 117 190.203C115.6 190.203 114.8 189.303 114.8 187.703ZM117 189.403C117.8 189.403 118.2 188.803 118.2 187.703C118.2 186.603 117.8 186.003 117 186.003C116.2 186.003 115.7 186.603 115.7 187.703C115.8 188.803 116.2 189.403 117 189.403Z" fill="#A0A0A0"/>
<path d="M119.8 187.703C119.8 186.003 120.5 185.203 122 185.203C123.4 185.203 124.2 186.003 124.2 187.703C124.2 189.403 123.5 190.203 122 190.203C120.6 190.203 119.8 189.303 119.8 187.703ZM122 189.403C122.8 189.403 123.2 188.803 123.2 187.703C123.2 186.603 122.8 186.003 122 186.003C121.2 186.003 120.7 186.603 120.7 187.703C120.8 188.803 121.2 189.403 122 189.403Z" fill="#A0A0A0"/>
<path d="M92.9999 171.202V166.502H92.3999V166.102L93.9999 165.602V171.302H92.9999V171.202Z" fill="#A0A0A0"/>
<path d="M92.3999 120.402H96.3999V121.202L93.8999 125.902H92.7999L95.2999 121.202H92.3999V120.402Z" fill="#A0A0A0"/>
<path d="M97.6 125.901V121.201H97V120.801L98.6 120.301V126.001H97.6V125.901Z" fill="#A0A0A0"/>
<path d="M99.7001 120.402H103.7V121.202L101.2 125.902H100L102.5 121.202H99.6001V120.402H99.7001Z" fill="#A0A0A0"/>
<path d="M107.3 125.902H106.3V124.702H103.5V124.002L105.8 120.402H106.9L104.7 123.902H106.3V122.002H107.3V123.902L107.9 124.402V124.702H107.3V125.902Z" fill="#A0A0A0"/>
<path d="M109 125.901V121.201H108.4V120.801L110 120.301V126.001H109V125.901Z" fill="#A0A0A0"/>
<path d="M111 124.301C111 123.701 111.3 123.301 111.8 123.001C111.4 122.801 111.1 122.301 111.1 121.701C111.1 120.801 111.8 120.301 113.1 120.301C114.4 120.301 115.1 120.801 115.1 121.701C115.1 122.301 114.9 122.701 114.4 123.001C115 123.301 115.2 123.701 115.2 124.301C115.2 125.401 114.5 126.001 113.1 126.001C111.7 126.001 111 125.401 111 124.301ZM114.3 124.301C114.3 123.801 113.9 123.501 113.2 123.501C112.4 123.501 112 123.801 112 124.301C112 124.801 112.4 125.101 113.2 125.101C113.9 125.101 114.3 124.801 114.3 124.301ZM114.1 121.901C114.1 121.501 113.8 121.301 113.1 121.301C112.4 121.301 112.1 121.501 112.1 121.901C112.1 122.401 112.4 122.601 113.1 122.601C113.8 122.601 114.1 122.401 114.1 121.901Z" fill="#A0A0A0"/>
<path d="M116 120.602C116.5 120.402 117.1 120.402 117.6 120.402C119 120.402 119.7 120.902 119.7 121.902C119.7 122.502 119.5 122.902 119 123.202C119.5 123.402 119.7 123.802 119.7 124.502C119.7 125.602 119 126.102 117.6 126.102C117 126.102 116.5 126.002 116 125.902V125.002C116.5 125.202 117.1 125.302 117.6 125.302C118.3 125.302 118.6 125.002 118.6 124.502C118.6 124.002 118.4 123.802 117.9 123.802H116.5V122.902H117.8C118.3 122.902 118.6 122.702 118.6 122.202C118.6 121.702 118.2 121.502 117.6 121.502C117 121.502 116.5 121.602 116 121.802V120.602Z" fill="#A0A0A0"/>
<path d="M120.3 123.202C120.3 121.302 121.1 120.402 122.8 120.402C124.4 120.402 125.2 121.302 125.2 123.202C125.2 125.102 124.4 126.002 122.8 126.002C121.2 126.002 120.3 125.002 120.3 123.202ZM122.8 125.102C123.7 125.102 124.2 124.502 124.2 123.202C124.2 121.902 123.7 121.302 122.8 121.302C121.9 121.302 121.4 121.902 121.4 123.202C121.4 124.402 121.9 125.102 122.8 125.102Z" fill="#A0A0A0"/>
<path d="M92.3999 48.8016C92.3999 47.0016 93.2999 46.1016 95.0999 46.1016C96.8999 46.1016 97.6999 47.0016 97.6999 48.8016C97.6999 50.6016 96.7999 51.5016 95.0999 51.5016C93.3999 51.5016 92.4999 50.6016 92.3999 48.8016ZM95.0999 50.7016C96.1999 50.7016 96.6999 50.1016 96.6999 48.8016C96.6999 47.6016 96.1999 47.0016 95.0999 47.0016C93.9999 47.0016 93.3999 47.6016 93.3999 48.8016C93.3999 50.0016 93.9999 50.7016 95.0999 50.7016Z" fill="#232323"/>
<path d="M98.6001 47.7C99.1001 47.6 99.7001 47.5 100.3 47.5C101.6 47.5 102.3 48.1 102.3 49.4C102.3 50.8 101.7 51.5 100.4 51.5C100.1 51.5 99.9001 51.4 99.6001 51.3V52.9H98.6001V47.7ZM99.6001 50.5C99.8001 50.6 100.1 50.7 100.4 50.7C101 50.7 101.3 50.3 101.3 49.5C101.3 48.8 101 48.4 100.3 48.4C100 48.4 99.8001 48.4 99.6001 48.5V50.5Z" fill="#232323"/>
<path d="M104.6 47.6016C105.8 47.6016 106.4 48.2016 106.4 49.4016C106.4 49.6016 106.4 49.7016 106.4 49.9016H103.8C103.8 50.5016 104.2 50.7016 105 50.7016C105.4 50.7016 105.8 50.7016 106.2 50.6016V51.4016C105.9 51.5016 105.4 51.5016 104.9 51.5016C103.5 51.5016 102.8 50.8016 102.8 49.5016C102.8 48.2016 103.4 47.6016 104.6 47.6016ZM103.8 49.2016H105.5C105.5 48.7016 105.2 48.4016 104.7 48.4016C104.1 48.3016 103.8 48.6016 103.8 49.2016Z" fill="#232323"/>
<path d="M107.2 51.5016V47.6016H108L108.1 48.1016C108.4 47.8016 108.8 47.6016 109.2 47.6016V48.4016C108.8 48.4016 108.5 48.6016 108.2 48.9016V51.6016H107.2V51.5016Z" fill="#232323"/>
<path d="M109.5 50.3016C109.5 49.5016 110.1 49.1016 111.2 49.1016C111.5 49.1016 111.7 49.1016 112 49.2016V48.9016C112 48.5016 111.7 48.4016 111.2 48.4016C110.8 48.4016 110.3 48.5016 109.8 48.6016V47.8016C110.3 47.7016 110.8 47.6016 111.2 47.6016C112.4 47.6016 113 48.0016 113 48.9016V51.5016H112.4L112 51.1016C111.7 51.3016 111.3 51.5016 110.9 51.5016C110 51.5016 109.5 51.1016 109.5 50.3016ZM111.2 49.8016C110.7 49.8016 110.5 50.0016 110.5 50.3016C110.5 50.6016 110.7 50.8016 111.1 50.8016C111.4 50.8016 111.7 50.7016 112 50.5016V49.9016C111.8 49.8016 111.5 49.8016 111.2 49.8016Z" fill="#232323"/>
<path d="M116.9 51.4016C116.6 51.5016 116.2 51.5016 115.9 51.5016C114.5 51.5016 113.8 50.8016 113.8 49.5016C113.8 48.2016 114.5 47.6016 115.9 47.6016C116.2 47.6016 116.6 47.6016 116.9 47.7016V48.5016C116.6 48.4016 116.3 48.4016 116 48.4016C115.2 48.4016 114.8 48.8016 114.8 49.5016C114.8 50.3016 115.2 50.8016 116 50.8016C116.3 50.8016 116.6 50.8016 116.9 50.7016V51.4016Z" fill="#232323"/>
<path d="M118.5 46.1016V46.9016H117.5V46.1016H118.5ZM118.5 47.6016V51.5016H117.5V47.6016H118.5Z" fill="#232323"/>
<path d="M119.3 49.5016C119.3 48.2016 119.9 47.5016 121.2 47.5016C122.5 47.5016 123.1 48.2016 123.1 49.5016C123.1 50.8016 122.5 51.5016 121.2 51.5016C119.9 51.5016 119.3 50.8016 119.3 49.5016ZM121.2 50.7016C121.8 50.7016 122.2 50.3016 122.2 49.5016C122.2 48.7016 121.9 48.3016 121.2 48.3016C120.5 48.3016 120.2 48.7016 120.2 49.5016C120.2 50.3016 120.6 50.7016 121.2 50.7016ZM121.2 46.1016H122.4L121.5 47.1016H120.7L121.2 46.1016Z" fill="#232323"/>
<path d="M123.9 51.5016V47.6016H124.7L124.8 48.2016C125.2 47.8016 125.6 47.6016 126.1 47.6016C127 47.6016 127.5 48.1016 127.5 49.1016V51.6016H126.5V49.0016C126.5 48.6016 126.3 48.3016 125.9 48.3016C125.6 48.3016 125.3 48.4016 125 48.7016V51.4016H123.9V51.5016Z" fill="#232323"/>
<path d="M96.8999 73.6C96.3999 73.8 95.8999 73.9 95.2999 73.9C93.3999 73.9 92.3999 73 92.3999 71.1C92.3999 69.3 93.3999 68.5 95.2999 68.5C95.8999 68.5 96.3999 68.6 96.8999 68.8V69.7C96.3999 69.5 95.8999 69.4 95.3999 69.4C94.0999 69.4 93.4999 70 93.4999 71.2C93.4999 72.5 94.0999 73.1 95.3999 73.1C95.8999 73.1 96.3999 73 96.8999 72.8V73.6Z" fill="#232323"/>
<path d="M101.2 69.8984V73.7984H100.4L100.3 73.2984C99.7997 73.5984 99.3997 73.7984 98.8997 73.7984C98.0997 73.7984 97.6997 73.2984 97.6997 72.3984V69.8984H98.6997V72.3984C98.6997 72.7984 98.8997 73.0984 99.2997 73.0984C99.5997 73.0984 99.8997 72.9984 100.3 72.6984V69.9984H101.2V69.8984Z" fill="#232323"/>
<path d="M103.8 69.8984C105 69.8984 105.6 70.4984 105.6 71.6984C105.6 71.8984 105.6 71.9984 105.6 72.1984H103C103 72.7984 103.4 72.9984 104.2 72.9984C104.6 72.9984 105 72.9984 105.4 72.8984V73.6984C105.1 73.7984 104.6 73.7984 104.1 73.7984C102.7 73.7984 102 73.0984 102 71.7984C102 70.4984 102.6 69.8984 103.8 69.8984ZM103 71.4984H104.7C104.7 70.9984 104.4 70.6984 103.9 70.6984C103.3 70.6984 103 70.8984 103 71.4984Z" fill="#232323"/>
<path d="M106.4 73.7984V69.8984H107.2L107.3 70.4984C107.7 70.0984 108.1 69.8984 108.6 69.8984C109.5 69.8984 110 70.3984 110 71.3984V73.8984H109V71.3984C109 70.9984 108.8 70.6984 108.4 70.6984C108.1 70.6984 107.8 70.7984 107.5 71.0984V73.7984H106.4Z" fill="#232323"/>
<path d="M110.8 69.1992H111.5L111.6 69.7992H112.6V70.5992H111.7V72.3992C111.7 72.7992 111.9 72.8992 112.2 72.8992H112.6V73.6992H111.7C111 73.6992 110.7 73.2992 110.7 72.5992V69.1992H110.8Z" fill="#232323"/>
<path d="M113.2 72.5984C113.2 71.7984 113.8 71.3984 114.9 71.3984C115.2 71.3984 115.4 71.3984 115.7 71.4984V71.1984C115.7 70.7984 115.4 70.6984 114.9 70.6984C114.5 70.6984 114 70.7984 113.5 70.8984V70.0984C114 69.9984 114.5 69.8984 114.9 69.8984C116.1 69.8984 116.7 70.2984 116.7 71.1984V73.7984H116.1L115.7 73.3984C115.4 73.5984 115 73.7984 114.6 73.7984C113.6 73.7984 113.2 73.3984 113.2 72.5984ZM114.9 72.0984C114.4 72.0984 114.2 72.2984 114.2 72.5984C114.2 72.8984 114.4 73.0984 114.8 73.0984C115.1 73.0984 115.4 72.9984 115.7 72.7984V72.1984C115.4 72.0984 115.2 72.0984 114.9 72.0984Z" fill="#232323"/>
<path d="M122.8 73.6C122.2 73.8 121.6 73.8 121 73.8C119.7 73.8 119.1 73.1 119.1 71.8C119.1 70.5 119.7 69.9 121 69.9C121.3 69.9 121.5 70 121.8 70.1V68.5H122.8V73.6ZM121.8 70.9C121.6 70.8 121.3 70.7 121 70.7C120.4 70.7 120.1 71 120.1 71.7C120.1 72.5 120.4 72.9 121.1 72.9C121.4 72.9 121.6 72.9 121.8 72.8V70.9Z" fill="#232323"/>
<path d="M125.3 69.8984C126.5 69.8984 127.1 70.4984 127.1 71.6984C127.1 71.8984 127.1 71.9984 127.1 72.1984H124.5C124.5 72.7984 124.9 72.9984 125.7 72.9984C126.1 72.9984 126.5 72.9984 126.9 72.8984V73.6984C126.6 73.7984 126.1 73.7984 125.6 73.7984C124.2 73.7984 123.5 73.0984 123.5 71.7984C123.5 70.4984 124.1 69.8984 125.3 69.8984ZM124.5 71.4984H126.2C126.2 70.9984 125.9 70.6984 125.4 70.6984C124.8 70.6984 124.5 70.8984 124.5 71.4984Z" fill="#232323"/>
<path d="M132.5 73.6984C132.2 73.7984 131.8 73.7984 131.5 73.7984C130.1 73.7984 129.4 73.0984 129.4 71.7984C129.4 70.4984 130.1 69.8984 131.5 69.8984C131.8 69.8984 132.2 69.8984 132.5 69.9984V70.7984C132.2 70.6984 131.9 70.6984 131.6 70.6984C130.8 70.6984 130.4 71.0984 130.4 71.7984C130.4 72.5984 130.8 73.0984 131.6 73.0984C131.9 73.0984 132.2 73.0984 132.5 72.9984V73.6984Z" fill="#232323"/>
<path d="M132.9 72.5984C132.9 71.7984 133.5 71.3984 134.6 71.3984C134.9 71.3984 135.1 71.3984 135.4 71.4984V71.1984C135.4 70.7984 135.1 70.6984 134.6 70.6984C134.2 70.6984 133.7 70.7984 133.2 70.8984V70.0984C133.7 69.9984 134.2 69.8984 134.6 69.8984C135.8 69.8984 136.4 70.2984 136.4 71.1984V73.7984H135.8L135.4 73.3984C135.1 73.5984 134.7 73.7984 134.3 73.7984C133.4 73.7984 132.9 73.3984 132.9 72.5984ZM134.6 72.0984C134.1 72.0984 133.9 72.2984 133.9 72.5984C133.9 72.8984 134.1 73.0984 134.5 73.0984C134.8 73.0984 135.1 72.9984 135.4 72.7984V72.1984C135.2 72.0984 134.9 72.0984 134.6 72.0984Z" fill="#232323"/>
<path d="M137.4 73.7984V69.8984H138.2L138.3 70.3984C138.6 70.0984 139 69.8984 139.4 69.8984V70.6984C139 70.6984 138.7 70.8984 138.4 71.1984V73.8984H137.4V73.7984Z" fill="#232323"/>
<path d="M143.4 73.4984C143.4 74.5984 142.7 75.1984 141.3 75.1984C140.8 75.1984 140.4 75.0984 140 74.9984V74.1984C140.4 74.2984 140.8 74.3984 141.3 74.3984C142 74.3984 142.4 74.0984 142.4 73.4984C142.1 73.5984 141.8 73.6984 141.4 73.6984C140.2 73.6984 139.6 73.0984 139.6 71.7984C139.6 70.4984 140.3 69.8984 141.6 69.8984C142.1 69.8984 142.6 69.9984 143.3 70.0984V73.4984H143.4ZM142.4 70.7984C142.2 70.6984 142 70.6984 141.7 70.6984C141 70.6984 140.7 71.0984 140.7 71.7984C140.7 72.4984 141 72.8984 141.6 72.8984C141.9 72.8984 142.2 72.7984 142.4 72.6984V70.7984Z" fill="#232323"/>
<path d="M144.2 71.8008C144.2 70.5008 144.8 69.8008 146.1 69.8008C147.4 69.8008 148 70.5008 148 71.8008C148 73.1008 147.4 73.8008 146.1 73.8008C144.8 73.8008 144.2 73.2008 144.2 71.8008ZM146.1 73.1008C146.7 73.1008 147.1 72.7008 147.1 71.9008C147.1 71.1008 146.8 70.7008 146.1 70.7008C145.4 70.7008 145.1 71.1008 145.1 71.9008C145.1 72.7008 145.5 73.1008 146.1 73.1008Z" fill="#232323"/>
<path d="M96.4998 115.198C96.0998 115.398 95.5998 115.398 94.9998 115.398C93.1998 115.398 92.2998 114.498 92.2998 112.798C92.2998 111.198 93.1998 110.398 94.9998 110.398C95.4998 110.398 95.9998 110.498 96.4998 110.598V111.398C96.0998 111.198 95.5998 111.098 95.0998 111.098C93.8998 111.098 93.2998 111.598 93.2998 112.698C93.2998 113.898 93.8998 114.498 95.0998 114.498C95.5998 114.498 96.0998 114.398 96.4998 114.198V115.198Z" fill="#232323"/>
<path d="M97.0996 113.6C97.0996 112.4 97.6996 111.8 98.8996 111.8C100.1 111.8 100.7 112.4 100.7 113.6C100.7 114.8 100.1 115.4 98.8996 115.4C97.6996 115.4 97.0996 114.8 97.0996 113.6ZM98.8996 114.7C99.4996 114.7 99.7996 114.3 99.7996 113.6C99.7996 112.9 99.4996 112.5 98.8996 112.5C98.2996 112.5 97.9996 112.9 97.9996 113.6C97.9996 114.3 98.2996 114.7 98.8996 114.7ZM98.8996 110.5H99.9996L99.1996 111.4H98.3996L98.8996 110.5Z" fill="#232323"/>
<path d="M104.6 115.2C104 115.3 103.5 115.4 103 115.4C101.8 115.4 101.2 114.8 101.2 113.5C101.2 112.3 101.8 111.8 102.9 111.8C103.1 111.8 103.4 111.9 103.7 112V110.5H104.6V115.2ZM103.7 112.7C103.5 112.6 103.3 112.5 103 112.5C102.4 112.5 102.1 112.8 102.1 113.5C102.1 114.3 102.4 114.6 103 114.6C103.2 114.6 103.5 114.6 103.7 114.5V112.7Z" fill="#232323"/>
<path d="M106.4 110.5V111.2H105.5V110.5H106.4ZM106.4 111.8V115.4H105.5V111.8H106.4Z" fill="#232323"/>
<path d="M110.5 115.097C110.5 116.197 109.9 116.697 108.6 116.697C108.2 116.697 107.8 116.597 107.4 116.497V115.797C107.8 115.897 108.2 115.997 108.6 115.997C109.3 115.997 109.6 115.697 109.6 115.197C109.3 115.297 109 115.397 108.7 115.397C107.6 115.397 107.1 114.797 107.1 113.597C107.1 112.397 107.7 111.797 109 111.797C109.4 111.797 109.9 111.797 110.5 111.897V115.097ZM109.6 112.597C109.5 112.497 109.2 112.497 109 112.497C108.4 112.497 108 112.797 108 113.497C108 114.197 108.3 114.497 108.8 114.497C109.1 114.497 109.3 114.397 109.6 114.297V112.597Z" fill="#232323"/>
<path d="M111.2 113.597C111.2 112.397 111.8 111.797 113 111.797C114.2 111.797 114.8 112.397 114.8 113.597C114.8 114.797 114.2 115.397 113 115.397C111.8 115.397 111.2 114.797 111.2 113.597ZM113 114.697C113.6 114.697 113.9 114.297 113.9 113.597C113.9 112.897 113.6 112.497 113 112.497C112.4 112.497 112.1 112.897 112.1 113.597C112.1 114.297 112.4 114.697 113 114.697Z" fill="#232323"/>
<path d="M120.2 115.2C119.6 115.3 119.1 115.4 118.6 115.4C117.4 115.4 116.8 114.8 116.8 113.5C116.8 112.3 117.4 111.8 118.5 111.8C118.7 111.8 119 111.9 119.3 112V110.5H120.2V115.2ZM119.3 112.7C119.1 112.6 118.9 112.5 118.6 112.5C118 112.5 117.7 112.8 117.7 113.5C117.7 114.3 118 114.6 118.6 114.6C118.8 114.6 119.1 114.6 119.3 114.5V112.7Z" fill="#232323"/>
<path d="M122.6 111.797C123.7 111.797 124.3 112.397 124.3 113.497C124.3 113.597 124.3 113.797 124.3 113.897H121.9C121.9 114.397 122.3 114.697 123 114.697C123.4 114.697 123.7 114.697 124.1 114.597V115.297C123.8 115.397 123.4 115.397 122.9 115.397C121.6 115.397 120.9 114.797 120.9 113.497C120.9 112.397 121.5 111.797 122.6 111.797ZM121.8 113.297H123.3C123.3 112.797 123 112.497 122.5 112.497C122.1 112.497 121.9 112.797 121.8 113.297Z" fill="#232323"/>
<path d="M126.4 114.297C126.4 113.597 126.9 113.197 128 113.197C128.2 113.197 128.5 113.197 128.7 113.297V112.997C128.7 112.697 128.5 112.497 128 112.497C127.6 112.497 127.2 112.597 126.7 112.697V111.997C127.2 111.897 127.6 111.797 128 111.797C129.1 111.797 129.6 112.197 129.6 112.997V115.397H129.1L128.8 115.097C128.5 115.297 128.1 115.397 127.8 115.397C126.8 115.397 126.4 114.997 126.4 114.297ZM127.9 113.797C127.5 113.797 127.2 113.897 127.2 114.197C127.2 114.497 127.4 114.697 127.8 114.697C128.1 114.697 128.4 114.597 128.6 114.397V113.797C128.4 113.797 128.2 113.797 127.9 113.797Z" fill="#232323"/>
<path d="M131.4 110.5V115.4H130.5V110.5H131.4Z" fill="#232323"/>
<path d="M135.5 111.797V115.397H134.8L134.7 114.897C134.3 115.197 133.8 115.397 133.4 115.397C132.7 115.397 132.3 114.997 132.3 114.097V111.797H133.2V114.097C133.2 114.497 133.4 114.697 133.7 114.697C134 114.697 134.3 114.597 134.6 114.297V111.797H135.5Z" fill="#232323"/>
<path d="M136.4 115.397V111.797H137.1L137.2 112.297C137.5 111.897 137.9 111.797 138.4 111.797C138.9 111.797 139.2 111.997 139.3 112.297C139.7 111.997 140.1 111.797 140.5 111.797C141.3 111.797 141.8 112.297 141.8 113.197V115.497H140.9V113.197C140.9 112.797 140.7 112.597 140.4 112.597C140.1 112.597 139.9 112.697 139.6 112.997V115.497H138.7V113.197C138.7 112.797 138.5 112.597 138.2 112.597C137.9 112.597 137.7 112.697 137.4 112.997V115.497H136.4V115.397Z" fill="#232323"/>
<path d="M142.6 115.397V111.797H143.3L143.4 112.297C143.7 111.897 144.1 111.797 144.6 111.797C145.5 111.797 145.9 112.197 145.9 113.097V115.397H145V113.097C145 112.697 144.8 112.497 144.4 112.497C144.1 112.497 143.8 112.597 143.5 112.897V115.397H142.6Z" fill="#232323"/>
<path d="M146.6 113.597C146.6 112.397 147.2 111.797 148.4 111.797C149.6 111.797 150.2 112.397 150.2 113.597C150.2 114.797 149.6 115.397 148.4 115.397C147.2 115.397 146.6 114.797 146.6 113.597ZM148.4 114.697C149 114.697 149.3 114.297 149.3 113.597C149.3 112.897 149 112.497 148.4 112.497C147.8 112.497 147.5 112.897 147.5 113.597C147.5 114.297 147.8 114.697 148.4 114.697Z" fill="#232323"/>
<path d="M92.6001 138.003V132.703H93.6001L96.4001 136.603V132.703H97.4001V138.003H96.4001L93.6001 134.003V138.003H92.6001Z" fill="#232323"/>
<path d="M98.2002 136C98.2002 134.7 98.8002 134 100.1 134C101.4 134 102 134.7 102 136C102 137.3 101.4 138 100.1 138C98.9002 138 98.2002 137.3 98.2002 136ZM100.2 137.2C100.8 137.2 101.2 136.8 101.2 136C101.2 135.2 100.9 134.8 100.2 134.8C99.5002 134.8 99.2002 135.2 99.2002 136C99.2002 136.8 99.5002 137.2 100.2 137.2Z" fill="#232323"/>
<path d="M102.8 138.002V134.102H103.6L103.7 134.702C104.1 134.302 104.5 134.102 105 134.102C105.5 134.102 105.8 134.302 106 134.602C106.4 134.202 106.8 134.102 107.3 134.102C108.2 134.102 108.7 134.602 108.7 135.602V138.002H107.7V135.502C107.7 135.102 107.5 134.802 107.1 134.802C106.8 134.802 106.5 134.902 106.3 135.202V137.902H105.3V135.402C105.3 135.002 105.1 134.702 104.8 134.702C104.5 134.702 104.2 134.802 104 135.102V137.802H102.8V138.002Z" fill="#232323"/>
<path d="M109.6 132.602H110.6V134.302C110.9 134.102 111.2 134.002 111.6 134.002C112.7 134.002 113.3 134.602 113.3 135.902C113.3 137.302 112.7 137.902 111.4 137.902C110.9 137.902 110.3 137.802 109.7 137.702V132.602H109.6ZM110.5 137.102C110.7 137.202 111 137.202 111.3 137.202C111.9 137.202 112.2 136.802 112.2 135.902C112.2 135.202 111.9 134.902 111.4 134.902C111.1 134.902 110.8 135.002 110.5 135.102V137.102Z" fill="#232323"/>
<path d="M114 138.002V134.102H114.8L114.9 134.602C115.2 134.302 115.6 134.102 116 134.102V134.902C115.6 134.902 115.3 135.102 115 135.402V138.102H114V138.002Z" fill="#232323"/>
<path d="M118.2 134.102C119.4 134.102 120 134.702 120 135.902C120 136.102 120 136.202 120 136.402H117.4C117.4 137.002 117.8 137.202 118.6 137.202C119 137.202 119.4 137.202 119.8 137.102V137.902C119.5 138.002 119 138.002 118.5 138.002C117.1 138.002 116.4 137.302 116.4 136.002C116.3 134.702 116.9 134.102 118.2 134.102ZM117.3 135.702H119C119 135.202 118.7 134.902 118.2 134.902C117.6 134.802 117.4 135.102 117.3 135.702Z" fill="#232323"/>
<path d="M125.9 137.702C125.3 137.902 124.7 137.902 124.1 137.902C122.8 137.902 122.2 137.202 122.2 135.902C122.2 134.602 122.8 134.002 124.1 134.002C124.4 134.002 124.6 134.102 124.9 134.202V132.602H125.9V137.702ZM124.9 135.102C124.7 135.002 124.4 134.902 124.1 134.902C123.5 134.902 123.2 135.202 123.2 135.902C123.2 136.702 123.5 137.102 124.2 137.102C124.5 137.102 124.7 137.102 124.9 137.002V135.102Z" fill="#232323"/>
<path d="M128.4 134.102C129.6 134.102 130.2 134.702 130.2 135.902C130.2 136.102 130.2 136.202 130.2 136.402H127.6C127.6 137.002 128 137.202 128.8 137.202C129.2 137.202 129.6 137.202 130 137.102V137.902C129.7 138.002 129.2 138.002 128.7 138.002C127.3 138.002 126.6 137.302 126.6 136.002C126.6 134.702 127.2 134.102 128.4 134.102ZM127.6 135.702H129.3C129.3 135.202 129 134.902 128.5 134.902C127.9 134.802 127.6 135.102 127.6 135.702Z" fill="#232323"/>
<path d="M132 132.602V137.902H131V132.602H132Z" fill="#232323"/>
<path d="M134.5 133.402H135.2L135.3 134.002H136.3V134.802H135.4V136.602C135.4 137.002 135.6 137.102 135.9 137.102H136.3V137.902H135.4C134.7 137.902 134.4 137.502 134.4 136.802V133.402H134.5Z" fill="#232323"/>
<path d="M138.1 132.602V133.402H137.1V132.602H138.1ZM138.1 134.102V138.002H137.1V134.102H138.1Z" fill="#232323"/>
<path d="M138.9 133.402H139.6L139.7 134.002H140.7V134.802H139.8V136.602C139.8 137.002 140 137.102 140.3 137.102H140.7V137.902H139.8C139.1 137.902 138.8 137.502 138.8 136.802V133.402H138.9Z" fill="#232323"/>
<path d="M145 134.102V138.002H144.2L144.1 137.502C143.6 137.802 143.2 138.002 142.7 138.002C141.9 138.002 141.5 137.502 141.5 136.602V134.102H142.5V136.602C142.5 137.002 142.7 137.302 143.1 137.302C143.4 137.302 143.7 137.202 144.1 136.902V134.202H145V134.102Z" fill="#232323"/>
<path d="M146.9 132.602V137.902H145.9V132.602H146.9Z" fill="#232323"/>
<path d="M147.7 136.802C147.7 136.002 148.3 135.602 149.4 135.602C149.7 135.602 149.9 135.602 150.2 135.702V135.402C150.2 135.002 149.9 134.902 149.4 134.902C149 134.902 148.5 135.002 148 135.102V134.302C148.5 134.202 149 134.102 149.4 134.102C150.6 134.102 151.2 134.502 151.2 135.402V138.002H150.6L150.2 137.602C149.9 137.802 149.5 138.002 149.1 138.002C148.2 138.002 147.7 137.602 147.7 136.802ZM149.4 136.302C148.9 136.302 148.7 136.502 148.7 136.802C148.7 137.102 148.9 137.302 149.3 137.302C149.6 137.302 149.9 137.202 150.2 137.002V136.402C150 136.302 149.7 136.302 149.4 136.302Z" fill="#232323"/>
<path d="M152.1 138.002V134.102H152.9L153 134.602C153.3 134.302 153.7 134.102 154.1 134.102V134.902C153.7 134.902 153.4 135.102 153.1 135.402V138.102H152.1V138.002Z" fill="#232323"/>
<path d="M96.8999 160.1C96.3999 160.3 95.8999 160.4 95.2999 160.4C93.3999 160.4 92.3999 159.5 92.3999 157.6C92.3999 155.8 93.3999 155 95.2999 155C95.8999 155 96.3999 155.1 96.8999 155.3V156.2C96.3999 156 95.8999 155.9 95.3999 155.9C94.0999 155.9 93.4999 156.5 93.4999 157.7C93.4999 159 94.0999 159.6 95.3999 159.6C95.8999 159.6 96.3999 159.5 96.8999 159.3V160.1Z" fill="#232323"/>
<path d="M97.5 159.098C97.5 158.298 98.1 157.898 99.2 157.898C99.5 157.898 99.7 157.898 100 157.998V157.698C100 157.298 99.7 157.198 99.2 157.198C98.8 157.198 98.3 157.298 97.8 157.398V156.598C98.3 156.498 98.8 156.398 99.2 156.398C100.4 156.398 101 156.798 101 157.698V160.298H100.4L100 159.898C99.7 160.098 99.3 160.298 98.9 160.298C98 160.298 97.5 159.898 97.5 159.098ZM99.2 158.598C98.7 158.598 98.5 158.798 98.5 159.098C98.5 159.398 98.7 159.598 99.1 159.598C99.4 159.598 99.7 159.498 100 159.298V158.698C99.8 158.598 99.5 158.598 99.2 158.598Z" fill="#232323"/>
<path d="M101.9 160.298V156.398H102.7L102.8 156.998C103.2 156.598 103.6 156.398 104.1 156.398C105 156.398 105.5 156.898 105.5 157.898V160.398H104.5V157.898C104.5 157.498 104.3 157.198 103.9 157.198C103.6 157.198 103.3 157.298 103 157.598V160.298H101.9Z" fill="#232323"/>
<path d="M106.4 155.801H107.1L107.2 156.401H108.2V157.201H107.3V159.001C107.3 159.401 107.5 159.501 107.8 159.501H108.2V160.301H107.3C106.6 160.301 106.3 159.901 106.3 159.201V155.801H106.4Z" fill="#232323"/>
<path d="M109.9 155V155.8H108.9V155H109.9ZM109.9 156.4V160.3H108.9V156.4H109.9Z" fill="#232323"/>
<path d="M114.3 160.1C113.7 160.3 113.1 160.3 112.5 160.3C111.2 160.3 110.6 159.6 110.6 158.3C110.6 157 111.2 156.4 112.5 156.4C112.8 156.4 113 156.5 113.3 156.6V155H114.3V160.1ZM113.4 157.4C113.2 157.3 112.9 157.2 112.6 157.2C112 157.2 111.7 157.5 111.7 158.2C111.7 159 112 159.4 112.7 159.4C113 159.4 113.2 159.4 113.4 159.3V157.4Z" fill="#232323"/>
<path d="M115.1 159.098C115.1 158.298 115.7 157.898 116.8 157.898C117.1 157.898 117.3 157.898 117.6 157.998V157.698C117.6 157.298 117.3 157.198 116.8 157.198C116.4 157.198 115.9 157.298 115.4 157.398V156.598C115.9 156.498 116.4 156.398 116.8 156.398C118 156.398 118.6 156.798 118.6 157.698V160.298H118L117.6 159.898C117.3 160.098 116.9 160.298 116.5 160.298C115.6 160.298 115.1 159.898 115.1 159.098ZM116.8 158.598C116.3 158.598 116.1 158.798 116.1 159.098C116.1 159.398 116.3 159.598 116.7 159.598C117 159.598 117.3 159.498 117.6 159.298V158.698C117.3 158.598 117.1 158.598 116.8 158.598Z" fill="#232323"/>
<path d="M123 160.1C122.4 160.3 121.8 160.3 121.2 160.3C119.9 160.3 119.3 159.6 119.3 158.3C119.3 157 119.9 156.4 121.2 156.4C121.5 156.4 121.7 156.5 122 156.6V155H123V160.1ZM122 157.4C121.8 157.3 121.5 157.2 121.2 157.2C120.6 157.2 120.3 157.5 120.3 158.2C120.3 159 120.6 159.4 121.3 159.4C121.6 159.4 121.8 159.4 122 159.3V157.4Z" fill="#232323"/>
<path d="M129.1 160.1C128.5 160.3 127.9 160.3 127.3 160.3C126 160.3 125.4 159.6 125.4 158.3C125.4 157 126 156.4 127.3 156.4C127.6 156.4 127.8 156.5 128.1 156.6V155H129.1V160.1ZM128.1 157.4C127.9 157.3 127.6 157.2 127.3 157.2C126.7 157.2 126.4 157.5 126.4 158.2C126.4 159 126.7 159.4 127.4 159.4C127.7 159.4 127.9 159.4 128.1 159.3V157.4Z" fill="#232323"/>
<path d="M131.7 156.398C132.9 156.398 133.5 156.998 133.5 158.198C133.5 158.398 133.5 158.498 133.5 158.698H130.9C130.9 159.298 131.3 159.498 132.1 159.498C132.5 159.498 132.9 159.498 133.3 159.398V160.198C133 160.298 132.5 160.298 132 160.298C130.6 160.298 129.9 159.598 129.9 158.298C129.8 156.998 130.5 156.398 131.7 156.398ZM130.8 157.998H132.5C132.5 157.498 132.2 157.198 131.7 157.198C131.2 157.198 130.9 157.498 130.8 157.998Z" fill="#232323"/>
<path d="M139.4 160.1C138.8 160.3 138.2 160.3 137.6 160.3C136.3 160.3 135.7 159.6 135.7 158.3C135.7 157 136.3 156.4 137.6 156.4C137.9 156.4 138.1 156.5 138.4 156.6V155H139.4V160.1ZM138.4 157.4C138.2 157.3 137.9 157.2 137.6 157.2C137 157.2 136.7 157.5 136.7 158.2C136.7 159 137 159.4 137.7 159.4C138 159.4 138.2 159.4 138.4 159.3V157.4Z" fill="#232323"/>
<path d="M140.1 158.398C140.1 157.098 140.7 156.398 142 156.398C143.3 156.398 143.9 157.098 143.9 158.398C143.9 159.698 143.3 160.398 142 160.398C140.8 160.298 140.1 159.698 140.1 158.398ZM142.1 159.598C142.7 159.598 143.1 159.198 143.1 158.398C143.1 157.598 142.8 157.198 142.1 157.198C141.4 157.198 141.1 157.598 141.1 158.398C141.1 159.198 141.4 159.598 142.1 159.598Z" fill="#232323"/>
<path d="M147.7 160.198C147.4 160.298 147 160.298 146.7 160.298C145.3 160.298 144.6 159.598 144.6 158.298C144.6 156.998 145.3 156.398 146.7 156.398C147 156.398 147.4 156.398 147.7 156.498V157.298C147.4 157.198 147.1 157.198 146.8 157.198C146 157.198 145.6 157.598 145.6 158.298C145.6 159.098 146 159.598 146.8 159.598C147.1 159.598 147.4 159.598 147.7 159.498V160.198Z" fill="#232323"/>
<path d="M151.9 156.398V160.298H151.1L151 159.798C150.5 160.098 150.1 160.298 149.6 160.298C148.8 160.298 148.4 159.798 148.4 158.898V156.398H149.4V158.898C149.4 159.298 149.6 159.598 150 159.598C150.3 159.598 150.6 159.498 151 159.198V156.498H151.9V156.398Z" fill="#232323"/>
<path d="M152.8 160.298V156.398H153.6L153.7 156.998C154.1 156.598 154.5 156.398 155 156.398C155.5 156.398 155.8 156.598 156 156.898C156.4 156.498 156.8 156.398 157.3 156.398C158.2 156.398 158.7 156.898 158.7 157.898V160.298H157.7V157.798C157.7 157.398 157.5 157.098 157.1 157.098C156.8 157.098 156.5 157.198 156.3 157.498V160.198H155.3V157.698C155.3 157.298 155.1 156.998 154.8 156.998C154.5 156.998 154.2 157.098 154 157.398V160.098H152.8V160.298Z" fill="#232323"/>
<path d="M161.2 156.398C162.4 156.398 163 156.998 163 158.198C163 158.398 163 158.498 163 158.698H160.4C160.4 159.298 160.8 159.498 161.6 159.498C162 159.498 162.4 159.498 162.8 159.398V160.198C162.5 160.298 162 160.298 161.5 160.298C160.1 160.298 159.4 159.598 159.4 158.298C159.3 156.998 159.9 156.398 161.2 156.398ZM160.3 157.998H162C162 157.498 161.7 157.198 161.2 157.198C160.6 157.198 160.3 157.498 160.3 157.998Z" fill="#232323"/>
<path d="M163.7 160.298V156.398H164.5L164.6 156.998C165 156.598 165.4 156.398 165.9 156.398C166.8 156.398 167.3 156.898 167.3 157.898V160.398H166.3V157.898C166.3 157.498 166.1 157.198 165.7 157.198C165.4 157.198 165.1 157.298 164.8 157.598V160.298H163.7Z" fill="#232323"/>
<path d="M168.1 155.801H168.8L168.9 156.401H169.9V157.201H169V159.001C169 159.401 169.2 159.501 169.5 159.501H169.9V160.301H169C168.3 160.301 168 159.901 168 159.201V155.801H168.1Z" fill="#232323"/>
<path d="M170.5 158.398C170.5 157.098 171.1 156.398 172.4 156.398C173.7 156.398 174.3 157.098 174.3 158.398C174.3 159.698 173.7 160.398 172.4 160.398C171.1 160.298 170.5 159.698 170.5 158.398ZM172.4 159.598C173 159.598 173.4 159.198 173.4 158.398C173.4 157.598 173.1 157.198 172.4 157.198C171.7 157.198 171.4 157.598 171.4 158.398C171.5 159.198 171.8 159.598 172.4 159.598Z" fill="#232323"/>
<path d="M175.1 160.098V159.298C175.5 159.498 176 159.598 176.6 159.598C177 159.598 177.2 159.498 177.2 159.198C177.2 158.898 177.1 158.798 176.8 158.798H176.1C175.3 158.798 174.9 158.398 174.9 157.598C174.9 156.798 175.5 156.398 176.6 156.398C177.1 156.398 177.6 156.498 178 156.598V157.398C177.6 157.198 177.1 157.098 176.6 157.098C176.1 157.098 175.8 157.198 175.8 157.498C175.8 157.798 176 157.898 176.3 157.898H176.9C177.8 157.898 178.2 158.298 178.2 159.098C178.2 159.898 177.6 160.298 176.5 160.298C176.1 160.398 175.6 160.298 175.1 160.098Z" fill="#232323"/>
<path d="M91.9002 40.2984V39.3984C92.5002 39.5984 93.1002 39.6984 93.8002 39.6984C94.7002 39.6984 95.1002 39.3984 95.1002 38.7984C95.1002 38.3984 94.8002 38.1984 94.3002 38.1984H93.4002C92.3002 38.1984 91.7002 37.6984 91.7002 36.5984C91.7002 35.4984 92.5002 34.8984 94.1002 34.8984C94.7002 34.8984 95.3002 34.9984 95.9002 35.1984V36.0984C95.3002 35.8984 94.8002 35.7984 94.1002 35.7984C93.2002 35.7984 92.7002 36.0984 92.7002 36.5984C92.7002 36.9984 92.9002 37.1984 93.4002 37.1984H94.3002C95.5002 37.1984 96.1002 37.6984 96.1002 38.7984C96.1002 39.9984 95.3002 40.5984 93.8002 40.5984C93.1002 40.5984 92.4002 40.4984 91.9002 40.2984Z" fill="#EB4782"/>
<path d="M97.6 40.4984H96.5L99.3 34.8984H100.4L97.6 40.4984Z" fill="#EB4782"/>
<path d="M103.2 40.4984V35.7984H102.6V35.3984L104.2 34.8984V40.5984H103.2V40.4984Z" fill="#EB4782"/>
<path d="M105.3 35.0984C105.8 34.8984 106.4 34.8984 106.9 34.8984C108.3 34.8984 109 35.3984 109 36.3984C109 36.9984 108.8 37.3984 108.3 37.6984C108.8 37.8984 109 38.2984 109 38.9984C109 40.0984 108.3 40.5984 106.9 40.5984C106.3 40.5984 105.8 40.4984 105.3 40.3984V39.4984C105.8 39.6984 106.4 39.7984 106.9 39.7984C107.6 39.7984 107.9 39.4984 107.9 38.9984C107.9 38.4984 107.7 38.2984 107.2 38.2984H105.8V37.3984H107.1C107.6 37.3984 107.9 37.1984 107.9 36.6984C107.9 36.1984 107.5 35.9984 106.9 35.9984C106.3 35.9984 105.8 36.0984 105.3 36.2984V35.0984Z" fill="#EB4782"/>
<path d="M109.6 37.6984C109.6 35.7984 110.4 34.8984 112.1 34.8984C113.7 34.8984 114.5 35.7984 114.5 37.6984C114.5 39.5984 113.7 40.4984 112.1 40.4984C110.4 40.5984 109.6 39.5984 109.6 37.6984ZM112.1 39.6984C113 39.6984 113.5 39.0984 113.5 37.7984C113.5 36.4984 113 35.8984 112.1 35.8984C111.2 35.8984 110.7 36.4984 110.7 37.7984C110.7 38.9984 111.1 39.6984 112.1 39.6984Z" fill="#EB4782"/>
<path d="M116.3 39.5977V40.5977H115.3V39.5977H116.3Z" fill="#EB4782"/>
<path d="M117 37.6984C117 35.7984 117.8 34.8984 119.5 34.8984C121.1 34.8984 121.9 35.7984 121.9 37.6984C121.9 39.5984 121.1 40.4984 119.5 40.4984C117.9 40.5984 117 39.5984 117 37.6984ZM119.5 39.6984C120.4 39.6984 120.9 39.0984 120.9 37.7984C120.9 36.4984 120.4 35.8984 119.5 35.8984C118.6 35.8984 118.1 36.4984 118.1 37.7984C118.1 38.9984 118.6 39.6984 119.5 39.6984Z" fill="#EB4782"/>
<path d="M122.7 37.6984C122.7 35.7984 123.5 34.8984 125.2 34.8984C126.8 34.8984 127.6 35.7984 127.6 37.6984C127.6 39.5984 126.8 40.4984 125.2 40.4984C123.5 40.5984 122.7 39.5984 122.7 37.6984ZM125.1 39.6984C126 39.6984 126.5 39.0984 126.5 37.7984C126.5 36.4984 126 35.8984 125.1 35.8984C124.2 35.8984 123.7 36.4984 123.7 37.7984C123.7 38.9984 124.2 39.6984 125.1 39.6984Z" fill="#EB4782"/>
<path d="M95.9998 180.902H94.9998V179.702H92.2998V179.002L94.4998 175.602H95.5998L93.4998 179.002H94.9998V177.202H95.9998V179.002L96.5998 179.502V179.802H95.9998V180.902Z" fill="#232323"/>
<path d="M97.5 180.9V176.4H97V176L98.6 175.5V181H97.5V180.9Z" fill="#232323"/>
<path d="M101.4 178.5V179.3H99.5V178.5H101.4Z" fill="#232323"/>
<path d="M102.7 180.9V176.4H102.1V176L103.7 175.5V181H102.7V180.9Z" fill="#232323"/>
<path d="M108.9 177.6C108.9 179 108 180.1 106.3 181.1L105.8 180.3C106.7 179.9 107.3 179.4 107.6 178.8C107.3 178.9 107 179 106.7 179C105.4 179 104.7 178.4 104.7 177.3C104.7 176.1 105.4 175.5 106.8 175.5C108.2 175.5 108.9 176.2 108.9 177.6ZM106.8 176.2C106.1 176.2 105.7 176.5 105.7 177.2C105.7 177.8 106 178.1 106.7 178.1C107.1 178.1 107.5 178 107.8 177.9C107.8 177.8 107.9 177.7 107.9 177.5C107.9 176.7 107.5 176.2 106.8 176.2Z" fill="#232323"/>
<path d="M109.3 175.5H113.1V176.3L110.7 180.9H109.6L112 176.4H109.2V175.5H109.3Z" fill="#232323"/>
<path d="M113.7 175.7C114.2 175.5 114.7 175.5 115.3 175.5C116.6 175.5 117.3 176 117.3 177C117.3 177.6 117.1 178 116.6 178.2C117.1 178.4 117.3 178.8 117.3 179.4C117.3 180.4 116.6 180.9 115.3 180.9C114.8 180.9 114.2 180.8 113.7 180.7V179.8C114.2 180 114.7 180.1 115.3 180.1C116 180.1 116.3 179.8 116.3 179.3C116.3 178.9 116.1 178.6 115.6 178.6H114.3V177.7H115.6C116.1 177.7 116.3 177.5 116.3 177C116.3 176.5 116 176.3 115.3 176.3C114.8 176.3 114.2 176.4 113.7 176.6V175.7Z" fill="#232323"/>
<path d="M117.8 175.5H121.6V176.3L119.2 180.9H118.1L120.5 176.4H117.7V175.5H117.8Z" fill="#232323"/>
<path d="M122.1 179.3C122.1 178.7 122.4 178.3 122.9 178.1C122.5 177.9 122.3 177.5 122.3 176.9C122.3 176 122.9 175.5 124.2 175.5C125.5 175.5 126.1 176 126.1 176.9C126.1 177.5 125.9 177.9 125.4 178.1C125.9 178.4 126.2 178.8 126.2 179.3C126.2 180.4 125.5 180.9 124.1 180.9C122.9 180.9 122.1 180.3 122.1 179.3ZM125.3 179.3C125.3 178.8 124.9 178.5 124.2 178.5C123.5 178.5 123.1 178.8 123.1 179.3C123.1 179.8 123.5 180 124.3 180C125 180 125.3 179.8 125.3 179.3ZM125.2 176.9C125.2 176.5 124.9 176.3 124.3 176.3C123.7 176.3 123.3 176.5 123.3 176.9C123.3 177.4 123.6 177.6 124.3 177.6C124.9 177.6 125.2 177.4 125.2 176.9Z" fill="#232323"/>
<path d="M128.8 177.098C129.3 176.998 129.9 176.898 130.5 176.898C131.8 176.898 132.5 177.498 132.5 178.798C132.5 180.198 131.9 180.898 130.6 180.898C130.3 180.898 130.1 180.798 129.8 180.698V182.298H128.8V177.098ZM129.8 179.798C130 179.898 130.3 179.998 130.6 179.998C131.2 179.998 131.5 179.598 131.5 178.798C131.5 178.098 131.2 177.698 130.5 177.698C130.2 177.698 130 177.698 129.8 177.798V179.798Z" fill="#232323"/>
<path d="M134.8 176.898C136 176.898 136.6 177.498 136.6 178.698C136.6 178.898 136.6 178.998 136.6 179.198H134C134 179.798 134.4 179.998 135.2 179.998C135.6 179.998 136 179.998 136.4 179.898V180.698C136.1 180.798 135.6 180.798 135.1 180.798C133.7 180.798 133 180.098 133 178.798C133 177.598 133.6 176.898 134.8 176.898ZM134 178.498H135.7C135.7 177.998 135.4 177.698 134.9 177.698C134.3 177.698 134 177.998 134 178.498Z" fill="#232323"/>
<path d="M137.4 180.9V177H138.2L138.3 177.6C138.7 177.2 139.1 177 139.6 177C140.5 177 141 177.5 141 178.5V181H140V178.5C140 178.1 139.8 177.8 139.4 177.8C139.1 177.8 138.8 177.9 138.5 178.2V180.9H137.4Z" fill="#232323"/>
<path d="M141.9 180.7V179.9C142.3 180.1 142.8 180.2 143.4 180.2C143.8 180.2 144 180.1 144 179.8C144 179.5 143.9 179.4 143.6 179.4H142.9C142.1 179.4 141.7 179 141.7 178.2C141.7 177.4 142.3 177 143.4 177C143.9 177 144.4 177.1 144.8 177.2V178C144.4 177.8 143.9 177.7 143.4 177.7C142.9 177.7 142.6 177.8 142.6 178.1C142.6 178.4 142.8 178.5 143.1 178.5H143.7C144.6 178.5 145 178.9 145 179.7C145 180.5 144.4 180.9 143.3 180.9C142.8 180.9 142.3 180.8 141.9 180.7Z" fill="#232323"/>
<path d="M146.7 175.5V176.3H145.7V175.5H146.7ZM146.7 176.9V180.8H145.7V176.9H146.7Z" fill="#232323"/>
<path d="M147.4 178.898C147.4 177.598 148 176.898 149.3 176.898C150.6 176.898 151.2 177.598 151.2 178.898C151.2 180.198 150.6 180.898 149.3 180.898C148.1 180.898 147.5 180.198 147.4 178.898ZM149.4 180.098C150 180.098 150.4 179.698 150.4 178.898C150.4 178.098 150.1 177.698 149.4 177.698C148.7 177.698 148.4 178.098 148.4 178.898C148.4 179.698 148.8 180.098 149.4 180.098Z" fill="#232323"/>
<path d="M152.1 180.9V177H152.9L153 177.6C153.4 177.2 153.8 177 154.3 177C155.2 177 155.7 177.5 155.7 178.5V181H154.7V178.5C154.7 178.1 154.5 177.8 154.1 177.8C153.8 177.8 153.5 177.9 153.2 178.2V180.9H152.1Z" fill="#232323"/>
<path d="M158.1 179.598C158.1 178.798 158.7 178.398 159.8 178.398C160.1 178.398 160.3 178.398 160.6 178.498V178.198C160.6 177.798 160.3 177.698 159.8 177.698C159.4 177.698 158.9 177.798 158.4 177.898V177.098C158.9 176.998 159.4 176.898 159.8 176.898C161 176.898 161.6 177.298 161.6 178.198V180.798H161L160.6 180.398C160.3 180.598 159.9 180.798 159.5 180.798C158.6 180.898 158.1 180.398 158.1 179.598ZM159.8 179.098C159.3 179.098 159.1 179.298 159.1 179.598C159.1 179.898 159.3 180.098 159.7 180.098C160 180.098 160.3 179.998 160.6 179.798V179.198C160.3 179.198 160.1 179.098 159.8 179.098Z" fill="#232323"/>
<path d="M162.5 180.9V177H163.3L163.4 177.6C163.8 177.2 164.2 177 164.7 177C165.6 177 166.1 177.5 166.1 178.5V181H165.1V178.5C165.1 178.1 164.9 177.8 164.5 177.8C164.2 177.8 163.9 177.9 163.6 178.2V180.9H162.5Z" fill="#232323"/>
<path d="M168.6 180.9V180.2C170.4 179 171.3 178 171.3 177.2C171.3 176.7 171 176.4 170.3 176.4C169.8 176.4 169.2 176.5 168.7 176.8V175.9C169.2 175.6 169.7 175.5 170.3 175.5C171.6 175.5 172.3 176 172.3 177.1C172.3 178 171.6 179 170.2 180.1H172.3V181H168.6V180.9Z" fill="#232323"/>
<path d="M173 178.2C173 176.4 173.8 175.5 175.4 175.5C177 175.5 177.7 176.4 177.7 178.2C177.7 180 176.9 180.9 175.4 180.9C173.8 180.9 173 180 173 178.2ZM175.4 180C176.3 180 176.7 179.4 176.7 178.1C176.7 176.9 176.3 176.3 175.4 176.3C174.5 176.3 174 176.9 174 178.1C174 179.4 174.5 180 175.4 180Z" fill="#232323"/>
<path d="M178.4 180.9V180.2C180.2 179 181.1 178 181.1 177.2C181.1 176.7 180.8 176.4 180.1 176.4C179.6 176.4 179 176.5 178.5 176.8V175.9C179 175.6 179.5 175.5 180.1 175.5C181.4 175.5 182.1 176 182.1 177.1C182.1 178 181.4 179 180 180.1H182.1V181H178.4V180.9Z" fill="#232323"/>
<path d="M182.8 180.9V180.2C184.6 179 185.5 178 185.5 177.2C185.5 176.7 185.2 176.4 184.5 176.4C184 176.4 183.4 176.5 182.9 176.8V175.9C183.4 175.6 183.9 175.5 184.5 175.5C185.8 175.5 186.5 176 186.5 177.1C186.5 178 185.8 179 184.4 180.1H186.5V181H182.8V180.9Z" fill="#232323"/>
<path d="M188.2 179.898V180.798H187.2V179.898H188.2Z" fill="#232323"/>
<path d="M189 178.2C189 176.4 189.8 175.5 191.4 175.5C193 175.5 193.7 176.4 193.7 178.2C193.7 180 192.9 180.9 191.4 180.9C189.8 180.9 189 180 189 178.2ZM191.3 180C192.2 180 192.6 179.4 192.6 178.1C192.6 176.9 192.2 176.3 191.3 176.3C190.4 176.3 189.9 176.9 189.9 178.1C190 179.4 190.4 180 191.3 180Z" fill="#232323"/>
<path d="M194.3 179.3C194.3 178.7 194.6 178.3 195.1 178.1C194.7 177.9 194.5 177.5 194.5 176.9C194.5 176 195.1 175.5 196.4 175.5C197.7 175.5 198.3 176 198.3 176.9C198.3 177.5 198.1 177.9 197.6 178.1C198.1 178.4 198.4 178.8 198.4 179.3C198.4 180.4 197.7 180.9 196.3 180.9C195 180.9 194.3 180.3 194.3 179.3ZM197.5 179.3C197.5 178.8 197.1 178.5 196.4 178.5C195.7 178.5 195.3 178.8 195.3 179.3C195.3 179.8 195.7 180 196.5 180C197.2 180 197.5 179.8 197.5 179.3ZM197.4 176.9C197.4 176.5 197.1 176.3 196.5 176.3C195.9 176.3 195.5 176.5 195.5 176.9C195.5 177.4 195.8 177.6 196.5 177.6C197.1 177.6 197.4 177.4 197.4 176.9Z" fill="#232323"/>
<path d="M300 247.098H91.6001C89.6001 247.098 88.1001 245.498 88.1001 243.598V227.898C88.1001 225.898 89.7001 224.398 91.6001 224.398H300C302 224.398 303.5 225.998 303.5 227.898V243.598C303.5 245.498 301.9 247.098 300 247.098Z" fill="#0084D9"/>
<path d="M183.1 237.903C182.6 238.103 182.1 238.203 181.5 238.203C179.6 238.203 178.6 237.303 178.6 235.403C178.6 233.603 179.6 232.703 181.5 232.703C182.1 232.703 182.6 232.803 183.1 233.003V233.903C182.6 233.703 182.1 233.603 181.6 233.603C180.3 233.603 179.6 234.203 179.6 235.403C179.6 236.703 180.2 237.403 181.6 237.403C182.1 237.403 182.6 237.303 183.1 237.103V237.903Z" fill="white"/>
<path d="M183.8 236.203C183.8 234.903 184.5 234.203 185.8 234.203C187.1 234.203 187.8 234.903 187.8 236.203C187.8 237.503 187.1 238.203 185.8 238.203C184.5 238.203 183.8 237.503 183.8 236.203ZM185.8 237.403C186.4 237.403 186.8 237.003 186.8 236.203C186.8 235.403 186.5 235.003 185.8 235.003C185.2 235.003 184.8 235.403 184.8 236.203C184.8 237.003 185.1 237.403 185.8 237.403Z" fill="white"/>
<path d="M188.5 238.203V234.203H189.3L189.4 234.803C189.8 234.403 190.2 234.203 190.7 234.203C191.6 234.203 192.1 234.703 192.1 235.703V238.203H191.1V235.703C191.1 235.303 190.9 235.003 190.4 235.003C190.1 235.003 189.8 235.103 189.4 235.403V238.203H188.5Z" fill="white"/>
<path d="M193.1 238.202V234.202C193.1 233.102 193.7 232.602 194.9 232.602C195.2 232.602 195.5 232.602 195.8 232.802V233.602C195.5 233.502 195.3 233.402 195 233.402C194.4 233.402 194.1 233.702 194.1 234.202H195.3V235.002H194.1V238.202H193.1Z" fill="white"/>
<path d="M196.6 232.703V233.503H195.6V232.703H196.6ZM196.6 234.203V238.203H195.6V234.203H196.6Z" fill="white"/>
<path d="M197.6 238.203V234.203H198.4L198.5 234.703C198.8 234.403 199.2 234.203 199.6 234.203V235.003C199.2 235.003 198.9 235.203 198.6 235.503V238.203H197.6Z" fill="white"/>
<path d="M200.1 238.203V234.203H200.9L201 234.803C201.4 234.403 201.8 234.203 202.3 234.203C202.8 234.203 203.1 234.403 203.3 234.703C203.7 234.303 204.1 234.203 204.6 234.203C205.5 234.203 206 234.703 206 235.703V238.203H205V235.703C205 235.303 204.8 235.003 204.4 235.003C204.1 235.003 203.8 235.103 203.5 235.403V238.203H202.5V235.703C202.5 235.303 202.3 235.003 201.9 235.003C201.6 235.003 201.3 235.103 201.1 235.403V238.203H200.1Z" fill="white"/>
<path d="M206.7 236.903C206.7 236.103 207.3 235.703 208.4 235.703C208.7 235.703 208.9 235.703 209.2 235.803V235.503C209.2 235.103 208.9 235.003 208.4 235.003C208 235.003 207.5 235.103 207 235.203V234.403C207.5 234.303 208 234.203 208.4 234.203C209.6 234.203 210.2 234.603 210.2 235.503V238.203H209.6L209.2 237.803C208.9 238.003 208.5 238.203 208.1 238.203C207.2 238.203 206.7 237.803 206.7 236.903ZM208.5 236.403C208 236.403 207.8 236.603 207.8 236.903C207.8 237.303 208 237.403 208.4 237.403C208.7 237.403 209 237.303 209.3 237.103V236.503C209 236.403 208.8 236.403 208.5 236.403Z" fill="white"/>
<path d="M211.2 238.203V234.203H212L212.1 234.703C212.4 234.403 212.8 234.203 213.2 234.203V235.003C212.8 235.003 212.5 235.203 212.2 235.503V238.203H211.2Z" fill="white"/>
</svg>
