<svg width="392" height="262" viewBox="0 0 392 262" fill="none" xmlns="http://www.w3.org/2000/svg">
<path d="M392 0H0V262H392V0Z" fill="#E3E3E3"/>
<path d="M310.5 38.5H81.5V261.9H310.5V38.5Z" fill="#F9F9F9"/>
<path d="M310.5 17.6016H81.5V44.0016H310.5V17.6016Z" fill="#005FAB"/>
<path d="M104.1 55.9008C104 55.8008 103.9 55.7008 103.7 55.7008L93.5 55.3008C93.2 55.3008 93 55.5008 93 55.8008C93 56.1008 93.2 56.3008 93.5 56.3008L103 56.7008L101.1 62.5008H92.8L91.3 54.3008C91.3 54.1008 91.1 54.0008 91 53.9008L88.5 52.9008C88.2 52.8008 87.9 52.9008 87.8 53.2008C87.7 53.5008 87.8 53.8008 88.1 53.9008L90.3 54.8008L91.8 63.1008C91.8 63.3008 92.1 63.5008 92.3 63.5008H92.6L92 65.1008C92 65.2008 92 65.4008 92.1 65.5008C92.2 65.6008 92.3 65.7008 92.5 65.7008H92.9C92.6 66.0008 92.5 66.3008 92.5 66.8008C92.5 67.7008 93.2 68.4008 94.1 68.4008C95 68.4008 95.7 67.7008 95.7 66.8008C95.7 66.4008 95.5 66.0008 95.3 65.7008H98.7C98.4 66.0008 98.3 66.3008 98.3 66.8008C98.3 67.7008 99 68.4008 99.9 68.4008C100.8 68.4008 101.5 67.7008 101.5 66.8008C101.5 66.4008 101.3 66.0008 101.1 65.7008H101.6C101.8 65.7008 102 65.5008 102 65.3008C102 65.1008 101.8 64.9008 101.6 64.9008H93.2L93.7 63.6008H101.6C101.8 63.6008 102 63.5008 102.1 63.2008L104.3 56.4008C104.2 56.2008 104.2 56.0008 104.1 55.9008ZM94.1 67.5008C93.7 67.5008 93.4 67.2008 93.4 66.8008C93.4 66.4008 93.7 66.1008 94.1 66.1008C94.5 66.1008 94.8 66.4008 94.8 66.8008C94.8 67.2008 94.4 67.5008 94.1 67.5008ZM99.8 67.5008C99.4 67.5008 99.1 67.2008 99.1 66.8008C99.1 66.4008 99.4 66.1008 99.8 66.1008C100.2 66.1008 100.5 66.4008 100.5 66.8008C100.5 67.2008 100.2 67.5008 99.8 67.5008Z" fill="#38CEF0"/>
<path d="M115.1 63.1008C114.6 63.3008 114.1 63.4008 113.5 63.4008C111.5 63.4008 110.5 62.4008 110.5 60.5008C110.5 58.7008 111.5 57.8008 113.5 57.8008C114.1 57.8008 114.7 57.9008 115.1 58.1008V59.0008C114.6 58.8008 114.1 58.7008 113.5 58.7008C112.2 58.7008 111.5 59.3008 111.5 60.5008C111.5 61.8008 112.2 62.5008 113.5 62.5008C114.1 62.5008 114.6 62.4008 115.1 62.2008V63.1008Z" fill="#232323"/>
<path d="M115.8 61.2992C115.8 59.8992 116.5 59.1992 117.8 59.1992C119.1 59.1992 119.8 59.8992 119.8 61.2992C119.8 62.6992 119.1 63.2992 117.8 63.2992C116.5 63.3992 115.8 62.6992 115.8 61.2992ZM117.9 62.5992C118.6 62.5992 118.9 62.1992 118.9 61.2992C118.9 60.4992 118.6 60.0992 117.9 60.0992C117.2 60.0992 116.9 60.4992 116.9 61.2992C116.9 62.1992 117.2 62.5992 117.9 62.5992Z" fill="#232323"/>
<path d="M120.7 63.4008V59.3008H121.5L121.6 59.9008C122 59.5008 122.4 59.3008 122.9 59.3008C123.4 59.3008 123.8 59.5008 124 59.9008C124.4 59.5008 124.9 59.3008 125.3 59.3008C126.2 59.3008 126.7 59.8008 126.7 60.9008V63.4008H125.7V60.8008C125.7 60.3008 125.5 60.1008 125.1 60.1008C124.8 60.1008 124.5 60.2008 124.2 60.5008V63.3008H123.2V60.7008C123.2 60.2008 123 60.0008 122.6 60.0008C122.3 60.0008 122 60.1008 121.7 60.4008V63.2008H120.7V63.4008Z" fill="#232323"/>
<path d="M127.6 59.5008C128.1 59.4008 128.7 59.3008 129.3 59.3008C130.7 59.3008 131.4 59.9008 131.4 61.2008C131.4 62.6008 130.8 63.3008 129.5 63.3008C129.2 63.3008 128.9 63.2008 128.7 63.1008V64.8008H127.7V59.5008H127.6ZM128.7 62.3008C129 62.4008 129.2 62.5008 129.5 62.5008C130.1 62.5008 130.4 62.1008 130.4 61.2008C130.4 60.5008 130.1 60.1008 129.4 60.1008C129.1 60.1008 128.9 60.1008 128.7 60.2008V62.3008Z" fill="#232323"/>
<path d="M132.2 63.4008V59.3008H133L133.1 59.8008C133.5 59.5008 133.8 59.3008 134.2 59.3008V60.1008C133.8 60.1008 133.5 60.3008 133.2 60.6008V63.4008H132.2Z" fill="#232323"/>
<path d="M134.7 62.1023C134.7 61.3023 135.3 60.9023 136.5 60.9023C136.8 60.9023 137.1 60.9023 137.3 61.0023V60.7023C137.3 60.3023 137 60.2023 136.5 60.2023C136.1 60.2023 135.6 60.3023 135 60.4023V59.6023C135.5 59.5023 136 59.4023 136.5 59.4023C137.7 59.4023 138.3 59.8023 138.3 60.7023V63.4023H137.7L137.3 63.0023C136.9 63.2023 136.6 63.4023 136.1 63.4023C135.2 63.4023 134.7 62.9023 134.7 62.1023ZM136.4 61.6023C135.9 61.6023 135.7 61.8023 135.7 62.1023C135.7 62.5023 135.9 62.6023 136.3 62.6023C136.6 62.6023 137 62.5023 137.3 62.3023V61.6023C137 61.6023 136.7 61.6023 136.4 61.6023Z" fill="#232323"/>
<path d="M139.3 63.2008V62.3008C139.8 62.5008 140.3 62.6008 140.9 62.6008C141.3 62.6008 141.6 62.5008 141.6 62.2008C141.6 61.9008 141.5 61.8008 141.2 61.8008H140.5C139.7 61.8008 139.3 61.4008 139.3 60.6008C139.3 59.7008 139.9 59.3008 141.1 59.3008C141.6 59.3008 142.1 59.4008 142.6 59.5008V60.4008C142.1 60.2008 141.7 60.1008 141.1 60.1008C140.5 60.1008 140.3 60.2008 140.3 60.5008C140.3 60.8008 140.5 60.9008 140.8 60.9008H141.5C142.4 60.9008 142.9 61.3008 142.9 62.1008C142.9 63.0008 142.3 63.4008 141.2 63.4008C140.2 63.4008 139.7 63.3008 139.3 63.2008Z" fill="#232323"/>
<path d="M145 59.5008C145.5 59.4008 146.1 59.3008 146.7 59.3008C148.1 59.3008 148.8 59.9008 148.8 61.2008C148.8 62.6008 148.2 63.3008 146.9 63.3008C146.6 63.3008 146.3 63.2008 146.1 63.1008V64.8008H145.1V59.5008H145ZM146 62.3008C146.3 62.4008 146.5 62.5008 146.8 62.5008C147.4 62.5008 147.7 62.1008 147.7 61.2008C147.7 60.5008 147.4 60.1008 146.7 60.1008C146.4 60.1008 146.2 60.1008 146 60.2008V62.3008Z" fill="#232323"/>
<path d="M149.4 61.2992C149.4 59.8992 150.1 59.1992 151.4 59.1992C152.7 59.1992 153.4 59.8992 153.4 61.2992C153.4 62.6992 152.7 63.2992 151.4 63.2992C150.1 63.3992 149.4 62.6992 149.4 61.2992ZM151.4 62.5992C152.1 62.5992 152.4 62.1992 152.4 61.2992C152.4 60.4992 152.1 60.0992 151.4 60.0992C150.7 60.0992 150.4 60.4992 150.4 61.2992C150.4 62.1992 150.7 62.5992 151.4 62.5992Z" fill="#232323"/>
<path d="M154.2 63.4008V59.3008H155L155.1 59.8008C155.5 59.5008 155.8 59.3008 156.2 59.3008V60.1008C155.8 60.1008 155.5 60.3008 155.2 60.6008V63.4008H154.2Z" fill="#232323"/>
<path d="M159.6 57.8008V58.6008H158.6V57.8008H159.6ZM159.6 59.3008V63.4008H158.6V59.3008H159.6Z" fill="#232323"/>
<path d="M160.6 63.4008V59.3008H161.4L161.5 59.9008C161.9 59.5008 162.3 59.3008 162.8 59.3008C163.8 59.3008 164.3 59.8008 164.3 60.8008V63.4008H163.3V60.8008C163.3 60.3008 163.1 60.1008 162.6 60.1008C162.3 60.1008 161.9 60.2008 161.6 60.5008V63.4008H160.6Z" fill="#232323"/>
<path d="M165.2 58.6016H166L166.2 59.3016H167.2V60.1016H166.3V62.0016C166.3 62.4016 166.5 62.6016 166.8 62.6016H167.2V63.4016H166.3C165.6 63.4016 165.3 63.0016 165.3 62.3016V58.6016H165.2Z" fill="#232323"/>
<path d="M169.6 59.3008C170.8 59.3008 171.5 59.9008 171.5 61.2008C171.5 61.4008 171.5 61.5008 171.5 61.7008H168.8C168.8 62.3008 169.2 62.6008 170.1 62.6008C170.5 62.6008 170.9 62.6008 171.3 62.5008V63.3008C170.9 63.4008 170.5 63.4008 170 63.4008C168.5 63.4008 167.8 62.7008 167.8 61.3008C167.7 59.9008 168.3 59.3008 169.6 59.3008ZM168.7 61.0008H170.4C170.4 60.4008 170.1 60.2008 169.5 60.2008C169.1 60.1008 168.8 60.4008 168.7 61.0008Z" fill="#232323"/>
<path d="M172.2 63.4008V59.3008H173L173.1 59.8008C173.5 59.5008 173.8 59.3008 174.2 59.3008V60.1008C173.8 60.1008 173.5 60.3008 173.2 60.6008V63.4008H172.2Z" fill="#232323"/>
<path d="M174.9 63.4008V59.3008H175.7L175.8 59.9008C176.2 59.5008 176.6 59.3008 177.1 59.3008C178.1 59.3008 178.6 59.8008 178.6 60.8008V63.4008H177.6V60.8008C177.6 60.3008 177.4 60.1008 176.9 60.1008C176.6 60.1008 176.2 60.2008 175.9 60.5008V63.4008H174.9Z" fill="#232323"/>
<path d="M181.3 59.3008C182.5 59.3008 183.2 59.9008 183.2 61.2008C183.2 61.4008 183.2 61.5008 183.2 61.7008H180.5C180.5 62.3008 180.9 62.6008 181.8 62.6008C182.2 62.6008 182.6 62.6008 183 62.5008V63.3008C182.6 63.4008 182.2 63.4008 181.7 63.4008C180.2 63.4008 179.5 62.7008 179.5 61.3008C179.4 59.9008 180 59.3008 181.3 59.3008ZM180.4 61.0008H182.1C182.1 60.4008 181.8 60.2008 181.2 60.2008C180.7 60.1008 180.4 60.4008 180.4 61.0008Z" fill="#232323"/>
<path d="M183.9 58.6016H184.7L184.9 59.3016H185.9V60.1016H185V62.0016C185 62.4016 185.2 62.6016 185.5 62.6016H185.9V63.4016H185C184.3 63.4016 184 63.0016 184 62.3016V58.6016H183.9Z" fill="#232323"/>
<path d="M89.5 33.8V27.5H92.3C93.6 27.5 94.2 28.1 94.2 29.3C94.2 30.6 93.3 31.4 91.6 31.6L91.4 30.6C92.5 30.4 93 30 93 29.3C93 28.8 92.7 28.5 92.2 28.5H90.6V33.8H89.5Z" fill="white"/>
<path d="M94.8 32.2992C94.8 31.3992 95.5 30.8992 96.8 30.8992C97.1 30.8992 97.4 30.8992 97.7 30.9992V30.6992C97.7 30.2992 97.4 30.0992 96.8 30.0992C96.3 30.0992 95.7 30.1992 95.1 30.2992V29.3992C95.7 29.2992 96.3 29.1992 96.8 29.1992C98.2 29.1992 98.9 29.6992 98.9 30.6992V33.7992H98.2L97.8 33.3992C97.4 33.6992 97 33.7992 96.5 33.7992C95.3 33.7992 94.8 33.2992 94.8 32.2992ZM96.8 31.7992C96.2 31.7992 96 31.9992 96 32.3992C96 32.7992 96.2 32.9992 96.7 32.9992C97.1 32.9992 97.5 32.8992 97.8 32.5992V31.8992C97.4 31.7992 97.1 31.7992 96.8 31.7992Z" fill="white"/>
<path d="M104.1 33.4C104.1 34.8 103.3 35.4 101.7 35.4C101.1 35.4 100.6 35.3 100.2 35.2V34.3C100.7 34.4 101.2 34.5 101.7 34.5C102.5 34.5 103 34.1 103 33.4C102.7 33.5 102.3 33.6 101.9 33.6C100.5 33.6 99.8 32.8 99.8 31.3C99.8 29.8 100.6 29 102.2 29C102.7 29 103.4 29.1 104.2 29.2V33.4H104.1ZM103 30.2C102.8 30.1 102.5 30.1 102.2 30.1C101.4 30.1 101 30.5 101 31.4C101 32.3 101.3 32.7 102 32.7C102.3 32.7 102.7 32.6 103 32.5V30.2Z" fill="white"/>
<path d="M105 31.4992C105 29.8992 105.8 29.1992 107.3 29.1992C108.8 29.1992 109.6 29.9992 109.6 31.4992C109.6 33.0992 108.8 33.7992 107.3 33.7992C105.8 33.7992 105 32.9992 105 31.4992ZM107.3 32.8992C108.1 32.8992 108.4 32.3992 108.4 31.3992C108.4 30.4992 108 29.9992 107.3 29.9992C106.6 29.9992 106.2 30.4992 106.2 31.3992C106.2 32.3992 106.6 32.8992 107.3 32.8992Z" fill="white"/>
<path d="M110.5 33.6V32.6C111 32.8 111.6 32.9 112.3 32.9C112.8 32.9 113.1 32.7 113.1 32.4C113.1 32.1 112.9 31.9 112.6 31.9H111.8C110.9 31.9 110.4 31.4 110.4 30.5C110.4 29.5 111.1 29 112.5 29C113.1 29 113.6 29.1 114.1 29.3V30.3C113.6 30.1 113 30 112.4 30C111.8 30 111.4 30.2 111.4 30.5C111.4 30.8 111.6 31 112 31H112.8C113.8 31 114.3 31.5 114.3 32.4C114.3 33.4 113.6 33.9 112.3 33.9C111.6 33.8 111 33.7 110.5 33.6Z" fill="white"/>
<path d="M303.9 60.7008C303.9 60.8008 303.9 61.0008 303.8 61.1008L300.7 64.2008C300.5 64.4008 300.2 64.4008 300 64.2008C299.8 64.0008 299.8 63.7008 300 63.5008L302.8 60.7008L300 57.9008C299.8 57.7008 299.8 57.4008 300 57.2008C300.2 57.0008 300.5 57.0008 300.7 57.2008L303.8 60.3008C303.8 60.5008 303.9 60.6008 303.9 60.7008Z" fill="#C8C5C6"/>
<path d="M310.5 76.2031H81.5V77.9031H310.5V76.2031Z" fill="#E7E7E7"/>
<path d="M111.7 91.4023V97.0023H110.7V91.4023H111.7Z" fill="#232323"/>
<path d="M112.8 97.0023V92.9023H113.6L113.7 93.5023C114.1 93.1023 114.5 92.9023 115 92.9023C116 92.9023 116.5 93.4023 116.5 94.4023V97.0023H115.5V94.4023C115.5 93.9023 115.3 93.7023 114.8 93.7023C114.5 93.7023 114.1 93.8023 113.8 94.1023V97.0023H112.8Z" fill="#232323"/>
<path d="M117.5 96.8023V95.9023C118 96.1023 118.5 96.2023 119.1 96.2023C119.5 96.2023 119.8 96.1023 119.8 95.8023C119.8 95.5023 119.7 95.4023 119.4 95.4023H118.7C117.9 95.4023 117.5 95.0023 117.5 94.2023C117.5 93.3023 118.1 92.9023 119.3 92.9023C119.8 92.9023 120.3 93.0023 120.8 93.1023V94.0023C120.3 93.8023 119.9 93.7023 119.3 93.7023C118.7 93.7023 118.5 93.8023 118.5 94.1023C118.5 94.4023 118.7 94.5023 119 94.5023H119.7C120.6 94.5023 121.1 94.9023 121.1 95.7023C121.1 96.6023 120.5 97.0023 119.4 97.0023C118.5 97.0023 118 97.0023 117.5 96.8023Z" fill="#232323"/>
<path d="M121.4 92.2031H122.2L122.4 92.9031H123.4V93.7031H122.5V95.6031C122.5 96.0031 122.7 96.2031 123 96.2031H123.4V97.0031H122.5C121.8 97.0031 121.5 96.6031 121.5 95.9031V92.2031H121.4Z" fill="#232323"/>
<path d="M125.1 91.4023V92.2023H124.1V91.4023H125.1ZM125.1 92.9023V97.0023H124.1V92.9023H125.1Z" fill="#232323"/>
<path d="M126 92.2031H126.8L127 92.9031H128V93.7031H127V95.6031C127 96.0031 127.2 96.2031 127.5 96.2031H127.9V97.0031H127C126.3 97.0031 126 96.6031 126 95.9031V92.2031Z" fill="#232323"/>
<path d="M132.3 92.9023V97.0023H131.5L131.4 96.5023C130.9 96.8023 130.4 97.0023 129.9 97.0023C129.1 97.0023 128.6 96.5023 128.6 95.5023V92.9023H129.6V95.5023C129.6 96.0023 129.8 96.2023 130.2 96.2023C130.5 96.2023 130.9 96.1023 131.2 95.8023V92.9023H132.3Z" fill="#232323"/>
<path d="M136.3 96.9023C136 97.0023 135.6 97.0023 135.3 97.0023C133.8 97.0023 133.1 96.3023 133.1 94.9023C133.1 93.6023 133.8 92.9023 135.3 92.9023C135.7 92.9023 136 92.9023 136.3 93.0023V93.8023C136 93.7023 135.6 93.7023 135.3 93.7023C134.5 93.7023 134.1 94.1023 134.1 94.8023C134.1 95.7023 134.5 96.1023 135.3 96.1023C135.6 96.1023 135.9 96.1023 136.3 96.0023V96.9023Z" fill="#232323"/>
<path d="M138 91.4023V92.2023H137V91.4023H138ZM138 92.9023V97.0023H137V92.9023H138Z" fill="#232323"/>
<path d="M138.8 95.0023C138.8 93.6023 139.5 92.9023 140.8 92.9023C142.1 92.9023 142.8 93.6023 142.8 95.0023C142.8 96.4023 142.1 97.0023 140.8 97.0023C139.5 97.0023 138.8 96.3023 138.8 95.0023ZM140.8 96.2023C141.5 96.2023 141.8 95.8023 141.8 94.9023C141.8 94.1023 141.5 93.7023 140.8 93.7023C140.1 93.7023 139.8 94.1023 139.8 94.9023C139.8 95.8023 140.2 96.2023 140.8 96.2023Z" fill="#232323"/>
<path d="M143.6 97.0023V92.9023H144.4L144.5 93.5023C144.9 93.1023 145.3 92.9023 145.8 92.9023C146.8 92.9023 147.3 93.4023 147.3 94.4023V97.0023H146.3V94.4023C146.3 93.9023 146.1 93.7023 145.6 93.7023C145.3 93.7023 144.9 93.8023 144.6 94.1023V97.0023H143.6Z" fill="#232323"/>
<path d="M150 92.9023C151.2 92.9023 151.9 93.5023 151.9 94.8023C151.9 95.0023 151.9 95.1023 151.9 95.3023H149.2C149.2 95.9023 149.6 96.2023 150.5 96.2023C150.9 96.2023 151.3 96.2023 151.7 96.1023V96.9023C151.3 97.0023 150.9 97.0023 150.4 97.0023C148.9 97.0023 148.2 96.3023 148.2 94.9023C148.1 93.6023 148.8 92.9023 150 92.9023ZM149.2 94.6023H150.9C150.9 94.0023 150.6 93.8023 150 93.8023C149.5 93.7023 149.2 94.0023 149.2 94.6023Z" fill="#232323"/>
<path d="M152.7 96.8023V95.9023C153.2 96.1023 153.7 96.2023 154.3 96.2023C154.7 96.2023 155 96.1023 155 95.8023C155 95.5023 154.9 95.4023 154.6 95.4023H153.9C153.1 95.4023 152.7 95.0023 152.7 94.2023C152.7 93.3023 153.3 92.9023 154.5 92.9023C155 92.9023 155.5 93.0023 156 93.1023V94.0023C155.5 93.8023 155.1 93.7023 154.5 93.7023C153.9 93.7023 153.7 93.8023 153.7 94.1023C153.7 94.4023 153.9 94.5023 154.2 94.5023H154.9C155.8 94.5023 156.3 94.9023 156.3 95.7023C156.3 96.6023 155.7 97.0023 154.6 97.0023C153.6 97.0023 153.1 97.0023 152.7 96.8023Z" fill="#232323"/>
<path d="M157.9 92.9023H159L160 95.8023L161 92.9023H162.1L160.4 97.1023C160.1 97.8023 159.6 98.4023 159 98.7023L158.5 98.0023C159 97.8023 159.3 97.5023 159.5 97.0023L157.9 92.9023Z" fill="#232323"/>
<path d="M166.1 92.9023C167.3 92.9023 168 93.5023 168 94.8023C168 95.0023 168 95.1023 168 95.3023H165.3C165.3 95.9023 165.7 96.2023 166.6 96.2023C167 96.2023 167.4 96.2023 167.8 96.1023V96.9023C167.4 97.0023 167 97.0023 166.5 97.0023C165 97.0023 164.3 96.3023 164.3 94.9023C164.2 93.6023 164.8 92.9023 166.1 92.9023ZM165.2 94.6023H166.9C166.9 94.0023 166.6 93.8023 166 93.8023C165.5 93.7023 165.2 94.0023 165.2 94.6023Z" fill="#232323"/>
<path d="M168.7 97.0023V92.9023H169.5L169.6 93.5023C170 93.1023 170.4 92.9023 170.9 92.9023C171.4 92.9023 171.8 93.1023 172 93.5023C172.4 93.1023 172.9 92.9023 173.3 92.9023C174.2 92.9023 174.7 93.4023 174.7 94.5023V97.0023H173.7V94.4023C173.7 93.9023 173.5 93.7023 173.1 93.7023C172.8 93.7023 172.5 93.8023 172.2 94.1023V97.0023H171.2V94.4023C171.2 93.9023 171 93.7023 170.6 93.7023C170.3 93.7023 170 93.8023 169.7 94.1023V97.0023H168.7Z" fill="#232323"/>
<path d="M175.7 93.1023C176.2 93.0023 176.8 92.9023 177.4 92.9023C178.8 92.9023 179.5 93.5023 179.5 94.8023C179.5 96.2023 178.9 96.9023 177.6 96.9023C177.3 96.9023 177 96.8023 176.8 96.7023V98.4023H175.8V93.1023H175.7ZM176.7 95.9023C177 96.0023 177.2 96.1023 177.5 96.1023C178.1 96.1023 178.4 95.7023 178.4 94.8023C178.4 94.1023 178.1 93.7023 177.4 93.7023C177.1 93.7023 176.9 93.7023 176.7 93.8023V95.9023Z" fill="#232323"/>
<path d="M180.3 97.0023V92.9023H181.1L181.2 93.4023C181.6 93.1023 181.9 92.9023 182.3 92.9023V93.7023C181.9 93.7023 181.6 93.9023 181.3 94.2023V97.0023H180.3Z" fill="#232323"/>
<path d="M184.6 92.9023C185.8 92.9023 186.5 93.5023 186.5 94.8023C186.5 95.0023 186.5 95.1023 186.5 95.3023H183.8C183.8 95.9023 184.2 96.2023 185.1 96.2023C185.5 96.2023 185.9 96.2023 186.3 96.1023V96.9023C185.9 97.0023 185.5 97.0023 185 97.0023C183.5 97.0023 182.8 96.3023 182.8 94.9023C182.7 93.6023 183.4 92.9023 184.6 92.9023ZM183.8 94.6023H185.5C185.5 94.0023 185.2 93.8023 184.6 93.8023C184.1 93.7023 183.8 94.0023 183.8 94.6023Z" fill="#232323"/>
<path d="M187.3 96.8023V95.9023C187.8 96.1023 188.3 96.2023 188.9 96.2023C189.3 96.2023 189.6 96.1023 189.6 95.8023C189.6 95.5023 189.5 95.4023 189.2 95.4023H188.5C187.7 95.4023 187.3 95.0023 187.3 94.2023C187.3 93.3023 187.9 92.9023 189.1 92.9023C189.6 92.9023 190.1 93.0023 190.6 93.1023V94.0023C190.1 93.8023 189.7 93.7023 189.1 93.7023C188.5 93.7023 188.3 93.8023 188.3 94.1023C188.3 94.4023 188.5 94.5023 188.8 94.5023H189.5C190.4 94.5023 190.9 94.9023 190.9 95.7023C190.9 96.6023 190.3 97.0023 189.2 97.0023C188.2 97.0023 187.7 97.0023 187.3 96.8023Z" fill="#232323"/>
<path d="M191.1 95.7039C191.1 94.9039 191.7 94.5039 192.9 94.5039C193.2 94.5039 193.5 94.5039 193.7 94.6039V94.3039C193.7 93.9039 193.4 93.8039 192.9 93.8039C192.5 93.8039 192 93.9039 191.4 94.0039V93.2039C191.9 93.1039 192.4 93.0039 192.9 93.0039C194.1 93.0039 194.7 93.4039 194.7 94.3039V97.0039H194.1L193.7 96.6039C193.3 96.8039 193 97.0039 192.5 97.0039C191.6 97.0039 191.1 96.6039 191.1 95.7039ZM192.8 95.2039C192.3 95.2039 192.1 95.4039 192.1 95.7039C192.1 96.1039 192.3 96.2039 192.7 96.2039C193 96.2039 193.4 96.1039 193.7 95.9039V95.2039C193.4 95.2039 193.1 95.2039 192.8 95.2039Z" fill="#232323"/>
<path d="M195.7 96.8023V95.9023C196.2 96.1023 196.7 96.2023 197.3 96.2023C197.7 96.2023 198 96.1023 198 95.8023C198 95.5023 197.9 95.4023 197.6 95.4023H196.9C196.1 95.4023 195.7 95.0023 195.7 94.2023C195.7 93.3023 196.3 92.9023 197.5 92.9023C198 92.9023 198.5 93.0023 199 93.1023V94.0023C198.5 93.8023 198.1 93.7023 197.5 93.7023C196.9 93.7023 196.7 93.8023 196.7 94.1023C196.7 94.4023 196.9 94.5023 197.2 94.5023H197.9C198.8 94.5023 199.3 94.9023 199.3 95.7023C199.3 96.6023 198.7 97.0023 197.6 97.0023C196.6 97.0023 196.1 97.0023 195.7 96.8023Z" fill="#232323"/>
<path d="M303.9 94.3023C303.9 94.4023 303.9 94.6023 303.8 94.7023L300.7 97.8023C300.5 98.0023 300.2 98.0023 300 97.8023C299.8 97.6023 299.8 97.3023 300 97.1023L302.8 94.3023L300 91.5023C299.8 91.3023 299.8 91.0023 300 90.8023C300.2 90.6023 300.5 90.6023 300.7 90.8023L303.8 93.9023C303.8 94.1023 303.9 94.2023 303.9 94.3023Z" fill="#C8C5C6"/>
<path d="M310.5 109.801H81.5V111.501H310.5V109.801Z" fill="#E7E7E7"/>
<path d="M110.7 130.6V125H113.2C114.3 125 114.9 125.5 114.9 126.5C114.9 127.2 114.5 127.7 113.6 128.2L115.4 130.6H114.1L112.4 128.2V127.7C113.4 127.5 113.9 127.1 113.9 126.6C113.9 126.2 113.7 126 113.2 126H111.8V130.6H110.7Z" fill="#232323"/>
<path d="M117.5 126.5C118.7 126.5 119.4 127.1 119.4 128.4C119.4 128.6 119.4 128.7 119.4 128.9H116.7C116.7 129.5 117.1 129.8 118 129.8C118.4 129.8 118.8 129.8 119.2 129.7V130.5C118.8 130.6 118.4 130.6 117.9 130.6C116.4 130.6 115.7 129.9 115.7 128.5C115.6 127.2 116.2 126.5 117.5 126.5ZM116.6 128.2H118.3C118.3 127.6 118 127.4 117.4 127.4C116.9 127.3 116.7 127.6 116.6 128.2Z" fill="#232323"/>
<path d="M123.1 130.5C122.8 130.6 122.4 130.6 122.1 130.6C120.6 130.6 119.9 129.9 119.9 128.5C119.9 127.2 120.6 126.5 122.1 126.5C122.5 126.5 122.8 126.5 123.1 126.6V127.4C122.8 127.3 122.4 127.3 122.1 127.3C121.3 127.3 120.9 127.7 120.9 128.4C120.9 129.3 121.3 129.7 122.1 129.7C122.4 129.7 122.7 129.7 123.1 129.6V130.5Z" fill="#232323"/>
<path d="M123.6 129.302C123.6 128.502 124.2 128.102 125.4 128.102C125.7 128.102 126 128.102 126.2 128.202V127.902C126.2 127.502 125.9 127.402 125.4 127.402C125 127.402 124.5 127.502 123.9 127.602V126.802C124.4 126.702 124.9 126.602 125.4 126.602C126.6 126.602 127.2 127.002 127.2 127.902V130.602H126.6L126.2 130.202C125.8 130.402 125.5 130.602 125 130.602C124.1 130.602 123.6 130.202 123.6 129.302ZM125.4 128.802C124.9 128.802 124.7 129.002 124.7 129.302C124.7 129.702 124.9 129.802 125.3 129.802C125.6 129.802 126 129.702 126.3 129.502V128.802C126 128.902 125.7 128.802 125.4 128.802Z" fill="#232323"/>
<path d="M128.2 130.6V126.5H129L129.1 127C129.5 126.7 129.8 126.5 130.2 126.5V127.3C129.8 127.3 129.5 127.5 129.2 127.8V130.6H128.2Z" fill="#232323"/>
<path d="M134.5 130.302C134.5 131.502 133.8 132.102 132.3 132.102C131.8 132.102 131.4 132.002 131 131.902V131.102C131.4 131.202 131.8 131.302 132.3 131.302C133 131.302 133.4 131.002 133.4 130.402C133.1 130.502 132.8 130.602 132.4 130.602C131.2 130.602 130.6 129.902 130.6 128.602C130.6 127.302 131.3 126.602 132.7 126.602C133.2 126.602 133.7 126.702 134.4 126.802V130.302H134.5ZM133.5 127.502C133.3 127.402 133.1 127.402 132.8 127.402C132.1 127.402 131.7 127.802 131.7 128.602C131.7 129.402 132 129.702 132.6 129.702C132.9 129.702 133.2 129.602 133.5 129.502V127.502Z" fill="#232323"/>
<path d="M135.3 129.302C135.3 128.502 135.9 128.102 137.1 128.102C137.4 128.102 137.7 128.102 137.9 128.202V127.902C137.9 127.502 137.6 127.402 137.1 127.402C136.7 127.402 136.2 127.502 135.6 127.602V126.802C136.1 126.702 136.6 126.602 137.1 126.602C138.3 126.602 138.9 127.002 138.9 127.902V130.602H138.3L137.9 130.202C137.5 130.402 137.2 130.602 136.7 130.602C135.8 130.602 135.3 130.202 135.3 129.302ZM137.1 128.802C136.6 128.802 136.4 129.002 136.4 129.302C136.4 129.702 136.6 129.802 137 129.802C137.3 129.802 137.7 129.702 138 129.502V128.802C137.6 128.902 137.4 128.802 137.1 128.802Z" fill="#232323"/>
<path d="M139.9 130.4V129.5C140.4 129.7 140.9 129.8 141.5 129.8C141.9 129.8 142.2 129.7 142.2 129.4C142.2 129.1 142.1 129 141.8 129H141C140.2 129 139.8 128.6 139.8 127.8C139.8 126.9 140.4 126.5 141.6 126.5C142.1 126.5 142.6 126.6 143.1 126.7V127.6C142.6 127.4 142.2 127.3 141.6 127.3C141 127.3 140.8 127.4 140.8 127.7C140.8 128 141 128.1 141.3 128.1H142C142.9 128.1 143.4 128.5 143.4 129.3C143.4 130.2 142.8 130.6 141.7 130.6C140.9 130.7 140.4 130.6 139.9 130.4Z" fill="#232323"/>
<path d="M303.9 128.002C303.9 128.102 303.9 128.302 303.8 128.402L300.7 131.502C300.5 131.702 300.2 131.702 300 131.502C299.8 131.302 299.8 131.002 300 130.802L302.8 128.002L300 125.202C299.8 125.002 299.8 124.702 300 124.502C300.2 124.302 300.5 124.302 300.7 124.502L303.8 127.602C303.8 127.702 303.9 127.802 303.9 128.002Z" fill="#C8C5C6"/>
<path d="M310.5 143.402H81.5V145.102H310.5V143.402Z" fill="#E7E7E7"/>
<path d="M110.6 164.002V163.102C111.2 163.302 111.8 163.402 112.5 163.402C113.4 163.402 113.8 163.102 113.8 162.502C113.8 162.102 113.5 161.902 113 161.902H112.1C111 161.902 110.4 161.402 110.4 160.302C110.4 159.202 111.2 158.602 112.8 158.602C113.4 158.602 114 158.702 114.6 158.902V159.802C114 159.602 113.5 159.502 112.8 159.502C111.9 159.502 111.4 159.802 111.4 160.302C111.4 160.702 111.6 160.902 112.1 160.902H113C114.2 160.902 114.8 161.402 114.8 162.502C114.8 163.702 114 164.302 112.5 164.302C111.8 164.302 111.2 164.202 110.6 164.002Z" fill="#232323"/>
<path d="M117.3 160.203C118.5 160.203 119.2 160.803 119.2 162.103C119.2 162.303 119.2 162.403 119.2 162.603H116.5C116.5 163.203 116.9 163.503 117.8 163.503C118.2 163.503 118.6 163.503 119 163.403V164.203C118.6 164.303 118.2 164.303 117.7 164.303C116.2 164.303 115.5 163.603 115.5 162.203C115.4 160.803 116 160.203 117.3 160.203ZM116.4 161.803H118.1C118.1 161.203 117.8 161.003 117.2 161.003C116.8 161.003 116.5 161.303 116.4 161.803Z" fill="#232323"/>
<path d="M120 164.202V160.102H120.8L120.9 160.602C121.3 160.302 121.6 160.102 122 160.102V160.902C121.6 160.902 121.3 161.102 121 161.402V164.202H120Z" fill="#232323"/>
<path d="M122.1 160.203H123.2L124.2 163.103L125.2 160.203H126.3L124.6 164.303H123.6L122.1 160.203Z" fill="#232323"/>
<path d="M127.8 158.703V159.503H126.8V158.703H127.8ZM127.8 160.203V164.303H126.8V160.203H127.8Z" fill="#232323"/>
<path d="M131.8 164.102C131.5 164.202 131.1 164.202 130.8 164.202C129.3 164.202 128.6 163.502 128.6 162.102C128.6 160.802 129.3 160.102 130.8 160.102C131.2 160.102 131.5 160.102 131.8 160.202V161.002C131.5 160.902 131.1 160.902 130.8 160.902C130 160.902 129.6 161.302 129.6 162.002C129.6 162.902 130 163.302 130.8 163.302C131.1 163.302 131.4 163.302 131.8 163.202V164.102Z" fill="#232323"/>
<path d="M133.5 158.703V159.503H132.5V158.703H133.5ZM133.5 160.203V164.303H132.5V160.203H133.5Z" fill="#232323"/>
<path d="M134.3 162.202C134.3 160.802 135 160.102 136.3 160.102C137.6 160.102 138.3 160.802 138.3 162.202C138.3 163.602 137.6 164.202 136.3 164.202C135 164.302 134.3 163.602 134.3 162.202ZM136.3 163.502C137 163.502 137.3 163.102 137.3 162.202C137.3 161.402 137 161.002 136.3 161.002C135.6 161.002 135.3 161.402 135.3 162.202C135.3 163.002 135.7 163.502 136.3 163.502Z" fill="#232323"/>
<path d="M139.1 164.002V163.102C139.6 163.302 140.1 163.402 140.7 163.402C141.1 163.402 141.4 163.302 141.4 163.002C141.4 162.702 141.3 162.602 141 162.602H140.3C139.5 162.602 139.1 162.202 139.1 161.402C139.1 160.502 139.7 160.102 140.9 160.102C141.4 160.102 141.9 160.202 142.4 160.302V161.202C141.9 161.002 141.5 160.902 140.9 160.902C140.3 160.902 140.1 161.002 140.1 161.302C140.1 161.602 140.3 161.702 140.6 161.702H141.3C142.2 161.702 142.7 162.102 142.7 162.902C142.7 163.802 142.1 164.202 141 164.202C140.1 164.302 139.6 164.202 139.1 164.002Z" fill="#232323"/>
<path d="M144.9 160.302C145.4 160.202 146 160.102 146.6 160.102C148 160.102 148.7 160.702 148.7 162.002C148.7 163.402 148.1 164.102 146.8 164.102C146.5 164.102 146.2 164.002 146 163.902V165.602H145V160.302H144.9ZM145.9 163.202C146.2 163.302 146.4 163.402 146.7 163.402C147.3 163.402 147.6 163.002 147.6 162.102C147.6 161.402 147.3 161.002 146.6 161.002C146.3 161.002 146.1 161.002 145.9 161.102V163.202Z" fill="#232323"/>
<path d="M153.1 160.203V164.303H152.3L152.2 163.803C151.7 164.103 151.2 164.303 150.7 164.303C149.9 164.303 149.4 163.803 149.4 162.803V160.203H150.4V162.803C150.4 163.303 150.6 163.503 151 163.503C151.3 163.503 151.7 163.403 152 163.103V160.203H153.1ZM151.2 158.703H152.4L151.5 159.703H150.6L151.2 158.703Z" fill="#232323"/>
<path d="M154.1 158.703H155.1V160.503C155.4 160.303 155.8 160.203 156.1 160.203C157.3 160.203 157.8 160.903 157.8 162.203C157.8 163.603 157.1 164.303 155.8 164.303C155.2 164.303 154.6 164.203 154 164.103V158.703H154.1ZM155.1 163.303C155.3 163.403 155.6 163.403 155.9 163.403C156.5 163.403 156.8 163.003 156.8 162.103C156.8 161.403 156.5 161.003 156 161.003C155.7 161.003 155.3 161.103 155.1 161.203V163.303Z" fill="#232323"/>
<path d="M159.7 158.703V164.303H158.7V158.703H159.7Z" fill="#232323"/>
<path d="M161.7 158.703V159.503H160.7V158.703H161.7ZM161.7 160.203V164.303H160.7V160.203H161.7Z" fill="#232323"/>
<path d="M165.7 164.102C165.4 164.202 165 164.202 164.7 164.202C163.2 164.202 162.5 163.502 162.5 162.102C162.5 160.802 163.2 160.102 164.7 160.102C165.1 160.102 165.4 160.102 165.7 160.202V161.002C165.4 160.902 165 160.902 164.7 160.902C163.9 160.902 163.5 161.302 163.5 162.002C163.5 162.902 163.9 163.302 164.7 163.302C165 163.302 165.3 163.302 165.7 163.202V164.102Z" fill="#232323"/>
<path d="M166.2 162.202C166.2 160.802 166.9 160.102 168.2 160.102C169.5 160.102 170.2 160.802 170.2 162.202C170.2 163.602 169.5 164.202 168.2 164.202C166.8 164.302 166.2 163.602 166.2 162.202ZM168.2 163.502C168.9 163.502 169.2 163.102 169.2 162.202C169.2 161.402 168.9 161.002 168.2 161.002C167.5 161.002 167.2 161.402 167.2 162.202C167.2 163.002 167.5 163.502 168.2 163.502Z" fill="#232323"/>
<path d="M171 164.002V163.102C171.5 163.302 172 163.402 172.6 163.402C173 163.402 173.3 163.302 173.3 163.002C173.3 162.702 173.2 162.602 172.9 162.602H172C171.2 162.602 170.8 162.202 170.8 161.402C170.8 160.502 171.4 160.102 172.6 160.102C173.1 160.102 173.6 160.202 174.1 160.302V161.202C173.6 161.002 173.2 160.902 172.6 160.902C172 160.902 171.8 161.002 171.8 161.302C171.8 161.602 172 161.702 172.3 161.702H173C173.9 161.702 174.4 162.102 174.4 162.902C174.4 163.802 173.8 164.202 172.7 164.202C172 164.302 171.4 164.202 171 164.002Z" fill="#232323"/>
<path d="M303.9 161.603C303.9 161.703 303.9 161.903 303.8 162.003L300.7 165.103C300.5 165.303 300.2 165.303 300 165.103C299.8 164.903 299.8 164.603 300 164.403L302.8 161.603L300 158.803C299.8 158.603 299.8 158.303 300 158.103C300.2 157.903 300.5 157.903 300.7 158.103L303.8 161.203C303.8 161.303 303.9 161.503 303.9 161.603Z" fill="#C8C5C6"/>
<path d="M310.5 177H81.5V178.7H310.5V177Z" fill="#E7E7E7"/>
<path d="M114.4 192.301V193.201H112.8V197.901H111.8V193.201H110.2V192.301H114.4Z" fill="#232323"/>
<path d="M114.1 196.601C114.1 195.801 114.7 195.401 115.9 195.401C116.2 195.401 116.5 195.401 116.7 195.501V195.201C116.7 194.801 116.4 194.701 115.9 194.701C115.5 194.701 115 194.801 114.4 194.901V194.001C114.9 193.901 115.4 193.801 115.9 193.801C117.1 193.801 117.7 194.201 117.7 195.101V197.801H117.1L116.7 197.401C116.3 197.601 116 197.801 115.5 197.801C114.6 197.901 114.1 197.401 114.1 196.601ZM115.8 196.101C115.3 196.101 115.1 196.301 115.1 196.601C115.1 197.001 115.3 197.101 115.7 197.101C116 197.101 116.4 197.001 116.7 196.801V196.101C116.4 196.101 116.1 196.101 115.8 196.101Z" fill="#232323"/>
<path d="M118.7 197.901V193.801H119.5L119.6 194.301C120 194.001 120.3 193.801 120.7 193.801V194.601C120.3 194.601 120 194.801 119.7 195.101V197.901H118.7Z" fill="#232323"/>
<path d="M122.3 193.801V197.601C122.3 198.401 122.1 199.101 121.6 199.601L120.8 199.001C121.1 198.701 121.3 198.201 121.3 197.501V193.701H122.3V193.801ZM122.3 192.301V193.101H121.3V192.301H122.3Z" fill="#232323"/>
<path d="M125 193.801C126.2 193.801 126.9 194.401 126.9 195.701C126.9 195.901 126.9 196.001 126.9 196.201H124.2C124.2 196.801 124.6 197.101 125.5 197.101C125.9 197.101 126.3 197.101 126.7 197.001V197.801C126.3 197.901 125.9 197.901 125.4 197.901C123.9 197.901 123.2 197.201 123.2 195.801C123.1 194.401 123.8 193.801 125 193.801ZM124.2 195.501H125.9C125.9 194.901 125.6 194.701 125 194.701C124.5 194.601 124.2 194.901 124.2 195.501Z" fill="#232323"/>
<path d="M127.6 193.102H128.4L128.6 193.802H129.6V194.602H128.7V196.502C128.7 196.902 128.9 197.102 129.2 197.102H129.6V197.902H128.7C128 197.902 127.7 197.502 127.7 196.802V193.102H127.6Z" fill="#232323"/>
<path d="M130.1 196.601C130.1 195.801 130.7 195.401 131.9 195.401C132.2 195.401 132.5 195.401 132.7 195.501V195.201C132.7 194.801 132.4 194.701 131.9 194.701C131.5 194.701 131 194.801 130.4 194.901V194.001C130.9 193.901 131.4 193.801 131.9 193.801C133.1 193.801 133.7 194.201 133.7 195.101V197.801H133.1L132.7 197.401C132.3 197.601 132 197.801 131.5 197.801C130.6 197.901 130.1 197.401 130.1 196.601ZM131.8 196.101C131.3 196.101 131.1 196.301 131.1 196.601C131.1 197.001 131.3 197.101 131.7 197.101C132 197.101 132.4 197.001 132.7 196.801V196.101C132.4 196.101 132.1 196.101 131.8 196.101Z" fill="#232323"/>
<path d="M134.7 197.701V196.801C135.2 197.001 135.7 197.101 136.3 197.101C136.7 197.101 137 197.001 137 196.701C137 196.401 136.9 196.301 136.6 196.301H135.9C135.1 196.301 134.7 195.901 134.7 195.101C134.7 194.201 135.3 193.801 136.5 193.801C137 193.801 137.5 193.901 138 194.001V194.901C137.5 194.701 137.1 194.601 136.5 194.601C135.9 194.601 135.7 194.701 135.7 195.001C135.7 195.301 135.9 195.401 136.2 195.401H136.9C137.8 195.401 138.3 195.801 138.3 196.601C138.3 197.501 137.7 197.901 136.6 197.901C135.6 197.901 135.1 197.801 134.7 197.701Z" fill="#232323"/>
<path d="M303.9 195.201C303.9 195.301 303.9 195.501 303.8 195.601L300.7 198.701C300.5 198.901 300.2 198.901 300 198.701C299.8 198.501 299.8 198.201 300 198.001L302.8 195.201L300 192.401C299.8 192.201 299.8 191.901 300 191.701C300.2 191.501 300.5 191.501 300.7 191.701L303.8 194.801C303.8 195.001 303.9 195.101 303.9 195.201Z" fill="#C8C5C6"/>
<path d="M310.5 210.703H81.5V212.403H310.5V210.703Z" fill="#E7E7E7"/>
<path d="M110.7 231.502V225.902H113.2C114.3 225.902 114.9 226.402 114.9 227.502C114.9 228.602 114.1 229.302 112.6 229.602L112.5 228.702C113.4 228.502 113.9 228.202 113.9 227.602C113.9 227.102 113.7 226.902 113.2 226.902H111.8V231.602H110.7V231.502Z" fill="#232323"/>
<path d="M115.5 231.502V227.402H116.3L116.4 227.902C116.8 227.602 117.1 227.402 117.5 227.402V228.202C117.1 228.202 116.8 228.402 116.5 228.702V231.502H115.5Z" fill="#232323"/>
<path d="M119.9 227.402C121.1 227.402 121.8 228.002 121.8 229.302C121.8 229.502 121.8 229.602 121.8 229.802H119C119 230.402 119.4 230.702 120.3 230.702C120.7 230.702 121.1 230.702 121.5 230.602V231.402C121.1 231.502 120.7 231.502 120.2 231.502C118.7 231.502 118 230.802 118 229.402C117.9 228.102 118.6 227.402 119.9 227.402ZM119 229.102H120.7C120.7 228.502 120.4 228.302 119.8 228.302C119.3 228.202 119 228.502 119 229.102ZM119.8 225.902H121L120.1 226.902H119.2L119.8 225.902Z" fill="#232323"/>
<path d="M122.5 231.302V230.402C123 230.602 123.5 230.702 124.1 230.702C124.5 230.702 124.8 230.602 124.8 230.302C124.8 230.002 124.7 229.902 124.4 229.902H123.7C122.9 229.902 122.5 229.502 122.5 228.702C122.5 227.802 123.1 227.402 124.3 227.402C124.8 227.402 125.3 227.502 125.8 227.602V228.502C125.3 228.302 124.9 228.202 124.3 228.202C123.7 228.202 123.5 228.302 123.5 228.602C123.5 228.902 123.7 229.002 124 229.002H124.7C125.6 229.002 126.1 229.402 126.1 230.202C126.1 231.102 125.5 231.502 124.4 231.502C123.5 231.502 122.9 231.502 122.5 231.302Z" fill="#232323"/>
<path d="M126.4 226.703H127.2L127.4 227.403H128.4V228.203H127.5V230.103C127.5 230.503 127.7 230.703 128 230.703H128.4V231.503H127.5C126.8 231.503 126.5 231.103 126.5 230.403V226.703H126.4Z" fill="#232323"/>
<path d="M128.9 230.204C128.9 229.404 129.5 229.004 130.7 229.004C131 229.004 131.3 229.004 131.5 229.104V228.804C131.5 228.404 131.2 228.304 130.7 228.304C130.3 228.304 129.8 228.404 129.2 228.504V227.704C129.7 227.604 130.2 227.504 130.7 227.504C131.9 227.504 132.5 227.904 132.5 228.804V231.504H131.9L131.5 231.104C131.1 231.304 130.8 231.504 130.3 231.504C129.4 231.504 128.9 231.104 128.9 230.204ZM130.6 229.704C130.1 229.704 129.9 229.904 129.9 230.204C129.9 230.604 130.1 230.704 130.5 230.704C130.8 230.704 131.2 230.604 131.5 230.404V229.704C131.2 229.704 130.9 229.704 130.6 229.704Z" fill="#232323"/>
<path d="M133.5 231.502V227.402H134.3L134.4 228.002C134.8 227.602 135.2 227.402 135.7 227.402C136.2 227.402 136.6 227.602 136.8 228.002C137.2 227.602 137.7 227.402 138.1 227.402C139 227.402 139.5 227.902 139.5 229.002V231.502H138.5V228.902C138.5 228.402 138.3 228.202 137.9 228.202C137.6 228.202 137.3 228.302 137 228.602V231.402H136V228.802C136 228.302 135.8 228.102 135.4 228.102C135.1 228.102 134.8 228.202 134.5 228.502V231.302H133.5V231.502Z" fill="#232323"/>
<path d="M140.3 229.502C140.3 228.102 141 227.402 142.3 227.402C143.6 227.402 144.3 228.102 144.3 229.502C144.3 230.902 143.6 231.502 142.3 231.502C140.9 231.502 140.3 230.802 140.3 229.502ZM142.3 230.702C143 230.702 143.3 230.302 143.3 229.402C143.3 228.602 143 228.202 142.3 228.202C141.6 228.202 141.3 228.602 141.3 229.402C141.3 230.302 141.6 230.702 142.3 230.702Z" fill="#232323"/>
<path d="M145.1 231.302V230.402C145.6 230.602 146.1 230.702 146.7 230.702C147.1 230.702 147.4 230.602 147.4 230.302C147.4 230.002 147.3 229.902 147 229.902H146.3C145.5 229.902 145.1 229.502 145.1 228.702C145.1 227.802 145.7 227.402 146.9 227.402C147.4 227.402 147.9 227.502 148.4 227.602V228.502C147.9 228.302 147.5 228.202 146.9 228.202C146.3 228.202 146.1 228.302 146.1 228.602C146.1 228.902 146.3 229.002 146.6 229.002H147.3C148.2 229.002 148.7 229.402 148.7 230.202C148.7 231.102 148.1 231.502 147 231.502C146 231.502 145.5 231.502 145.1 231.302Z" fill="#232323"/>
<path d="M303.9 228.802C303.9 228.902 303.9 229.102 303.8 229.202L300.7 232.302C300.5 232.502 300.2 232.502 300 232.302C299.8 232.102 299.8 231.802 300 231.602L302.8 228.802L300 226.002C299.8 225.802 299.8 225.502 300 225.302C300.2 225.102 300.5 225.102 300.7 225.302L303.8 228.402C303.8 228.602 303.9 228.702 303.9 228.802Z" fill="#C8C5C6"/>
<path d="M310.5 244.301H81.5V246.001H310.5V244.301Z" fill="#E7E7E7"/>
<path d="M277.4 236.602H254C251.6 236.602 249.6 234.602 249.6 232.202V225.002C249.6 222.602 251.6 220.602 254 220.602H277.4C279.8 220.602 281.8 222.602 281.8 225.002V232.202C281.8 234.602 279.8 236.602 277.4 236.602Z" fill="#009B00"/>
<path d="M254.5 231.002V225.602H255.5L258.4 229.502V225.602H259.4V231.002H258.4L255.5 227.002V231.002H254.5Z" fill="white"/>
<path d="M264 227V231H263.2L263.1 230.5C262.6 230.8 262.2 231 261.6 231C260.8 231 260.4 230.5 260.4 229.6V227H261.4V229.5C261.4 229.9 261.6 230.2 262 230.2C262.3 230.2 262.7 230.1 263 229.8V227H264Z" fill="white"/>
<path d="M266.6 227C267.8 227 268.4 227.6 268.4 228.8C268.4 229 268.4 229.1 268.4 229.3H265.8C265.8 229.9 266.2 230.1 267 230.1C267.4 230.1 267.8 230.1 268.2 230V230.8C267.8 230.9 267.4 230.9 266.9 230.9C265.5 230.9 264.7 230.2 264.7 228.9C264.8 227.6 265.4 227 266.6 227ZM265.8 228.6H267.5C267.5 228 267.2 227.8 266.7 227.8C266.1 227.8 265.8 228.1 265.8 228.6Z" fill="white"/>
<path d="M268.7 227H269.8L270.8 229.8L271.8 227H272.9L271.3 231H270.3L268.7 227Z" fill="white"/>
<path d="M273.1 229C273.1 227.7 273.8 227 275.1 227C276.4 227 277.1 227.7 277.1 229C277.1 230.3 276.4 231 275.1 231C273.8 231 273.1 230.3 273.1 229ZM275.1 230.2C275.7 230.2 276.1 229.8 276.1 229C276.1 228.2 275.8 227.8 275.1 227.8C274.5 227.8 274.1 228.2 274.1 229C274.1 229.8 274.4 230.2 275.1 230.2Z" fill="white"/>
<path d="M100 119H92C91.3 119 90.8 119.5 90.8 120.2V135.6C90.8 136.3 91.3 136.8 92 136.8H100C100.7 136.8 101.2 136.3 101.2 135.6V120.2C101.2 119.6 100.7 119 100 119ZM94.8 119.9H97.3C97.4 119.9 97.4 120 97.4 120C97.4 120.1 97.3 120.1 97.3 120.1H94.8C94.7 120.1 94.7 120 94.7 120C94.6 119.9 94.7 119.9 94.8 119.9ZM96 136.3C95.7 136.3 95.4 136 95.4 135.7C95.4 135.4 95.7 135.1 96 135.1C96.3 135.1 96.6 135.4 96.6 135.7C96.6 136 96.4 136.3 96 136.3ZM100.4 134.6H91.7V120.9H100.4V134.6Z" fill="#38CEF0"/>
<path d="M105 102.9H103.1V92.7C103.1 92.5 103 92.4 102.8 92.4H98.5V85.3C98.5 85.1 98.4 85 98.2 85H90.2C90 85 89.9 85.1 89.9 85.3V102.9H87.1C86.9 102.9 86.8 103 86.8 103.2C86.8 103.4 86.9 103.5 87.1 103.5H105C105.2 103.5 105.3 103.4 105.3 103.2C105.3 103 105.1 102.9 105 102.9ZM90.5 85.6H97.9V92.4H94.8C94.6 92.4 94.5 92.5 94.5 92.7V102.9H93.9V100.1C93.9 99.6 93.5 99.2 93 99.2H92.4C91.9 99.2 91.5 99.6 91.5 100.1V102.9H90.6V85.6H90.5ZM92 102.9V100.1C92 99.9 92.1 99.8 92.3 99.8H92.9C93.1 99.8 93.2 99.9 93.2 100.1V102.9H92ZM95.1 102.9V93H102.5V102.9H95.1Z" fill="#38CEF0"/>
<path d="M91.9 88.4016H93.3C93.4 88.4016 93.5 88.3016 93.5 88.2016V86.8016C93.5 86.7016 93.4 86.6016 93.3 86.6016H91.9C91.8 86.6016 91.7 86.7016 91.7 86.8016V88.2016C91.7 88.3016 91.8 88.4016 91.9 88.4016ZM92.2 87.0016H93.1V87.9016H92.2V87.0016Z" fill="#38CEF0"/>
<path d="M91.9 91.4016H93.3C93.4 91.4016 93.5 91.3016 93.5 91.2016V89.8016C93.5 89.7016 93.4 89.6016 93.3 89.6016H91.9C91.8 89.6016 91.7 89.7016 91.7 89.8016V91.2016C91.7 91.3016 91.8 91.4016 91.9 91.4016ZM92.2 90.1016H93.1V91.0016H92.2V90.1016Z" fill="#38CEF0"/>
<path d="M95 88.4016H96.4C96.5 88.4016 96.6 88.3016 96.6 88.2016V86.8016C96.6 86.7016 96.5 86.6016 96.4 86.6016H95C94.9 86.6016 94.8 86.7016 94.8 86.8016V88.2016C94.8 88.3016 94.9 88.4016 95 88.4016ZM95.2 87.0016H96.1V87.9016H95.2V87.0016Z" fill="#38CEF0"/>
<path d="M96.5 96.1008H97.9C98 96.1008 98.1 96.0008 98.1 95.9008V94.5008C98.1 94.4008 98 94.3008 97.9 94.3008H96.5C96.4 94.3008 96.3 94.4008 96.3 94.5008V95.9008C96.3 96.0008 96.4 96.1008 96.5 96.1008ZM96.8 94.7008H97.7V95.6008H96.8V94.7008Z" fill="#38CEF0"/>
<path d="M99.6 96.1008H101C101.1 96.1008 101.2 96.0008 101.2 95.9008V94.5008C101.2 94.4008 101.1 94.3008 101 94.3008H99.6C99.5 94.3008 99.4 94.4008 99.4 94.5008V95.9008C99.4 96.0008 99.5 96.1008 99.6 96.1008ZM99.9 94.7008H100.8V95.6008H99.9V94.7008Z" fill="#38CEF0"/>
<path d="M96.5 98.9016H97.9C98 98.9016 98.1 98.8016 98.1 98.7016V97.3016C98.1 97.2016 98 97.1016 97.9 97.1016H96.5C96.4 97.1016 96.3 97.2016 96.3 97.3016V98.7016C96.3 98.8016 96.4 98.9016 96.5 98.9016ZM96.8 97.6016H97.7V98.5016H96.8V97.6016Z" fill="#38CEF0"/>
<path d="M99.6 98.9016H101C101.1 98.9016 101.2 98.8016 101.2 98.7016V97.3016C101.2 97.2016 101.1 97.1016 101 97.1016H99.6C99.5 97.1016 99.4 97.2016 99.4 97.3016V98.7016C99.4 98.8016 99.5 98.9016 99.6 98.9016ZM99.9 97.6016H100.8V98.5016H99.9V97.6016Z" fill="#38CEF0"/>
<path d="M96.5 101.8H97.9C98 101.8 98.1 101.7 98.1 101.6V100.2C98.1 100.1 98 100 97.9 100H96.5C96.4 100 96.3 100.1 96.3 100.2V101.6C96.3 101.7 96.4 101.8 96.5 101.8ZM96.8 100.4H97.7V101.3H96.8V100.4Z" fill="#38CEF0"/>
<path d="M99.6 101.8H101C101.1 101.8 101.2 101.7 101.2 101.6V100.2C101.2 100.1 101.1 100 101 100H99.6C99.5 100 99.4 100.1 99.4 100.2V101.6C99.4 101.7 99.5 101.8 99.6 101.8ZM99.9 100.4H100.8V101.3H99.9V100.4Z" fill="#38CEF0"/>
<path d="M95 91.4016H96.4C96.5 91.4016 96.6 91.3016 96.6 91.2016V89.8016C96.6 89.7016 96.5 89.6016 96.4 89.6016H95C94.9 89.6016 94.8 89.7016 94.8 89.8016V91.2016C94.8 91.3016 94.9 91.4016 95 91.4016ZM95.2 90.1016H96.1V91.0016H95.2V90.1016Z" fill="#38CEF0"/>
<path d="M91.9 94.4992H93.3C93.4 94.4992 93.5 94.3992 93.5 94.2992V92.8992C93.5 92.7992 93.4 92.6992 93.3 92.6992H91.9C91.8 92.6992 91.7 92.7992 91.7 92.8992V94.2992C91.7 94.3992 91.8 94.4992 91.9 94.4992ZM92.2 93.0992H93.1V93.9992H92.2V93.0992Z" fill="#38CEF0"/>
<path d="M91.9 97.4992H93.3C93.4 97.4992 93.5 97.3992 93.5 97.2992V95.8992C93.5 95.7992 93.4 95.6992 93.3 95.6992H91.9C91.8 95.6992 91.7 95.7992 91.7 95.8992V97.2992C91.7 97.3992 91.8 97.4992 91.9 97.4992ZM92.2 96.0992H93.1V96.9992H92.2V96.0992Z" fill="#38CEF0"/>
<path d="M87.9 158.502V163.802C87.9 163.902 88 164.102 88.2 164.102H90.1C90.2 164.102 90.4 164.002 90.4 163.802V163.002H92.8V163.302C92.8 163.402 92.9 163.602 93.1 163.602H98.9C99 163.602 99.2 163.502 99.2 163.302V162.802H100.5C100.6 162.802 100.8 162.902 100.8 163.102V164.702C100.8 164.802 100.9 165.002 101.1 165.002H103.8C103.9 165.002 104.1 164.902 104.1 164.702V163.002C104.1 161.102 102.6 159.502 100.6 159.502H99.3V159.002C99.3 158.902 99.2 158.702 99 158.702H97.9V157.402C97.9 157.302 97.8 157.102 97.6 157.102H96.8V155.502H97.6L99.2 155.802C99.3 155.802 99.3 155.802 99.4 155.802C99.5 155.802 99.5 155.802 99.6 155.802C100.2 155.702 100.6 155.102 100.5 154.502C100.4 153.902 99.8 153.502 99.2 153.602L97.6 153.902H96.8V153.402C96.8 153.302 96.7 153.102 96.5 153.102H95.4C95.3 153.102 95.1 153.202 95.1 153.402V153.902H94.3L92.7 153.602C92.6 153.602 92.4 153.602 92.3 153.602C91.7 153.702 91.3 154.302 91.4 154.902C91.5 155.502 92.1 155.902 92.7 155.802L94.3 155.502H95.1V157.102H94.3C94.2 157.102 94 157.202 94 157.402V158.702H93C92.9 158.702 92.7 158.802 92.7 159.002V159.302H90.3V158.502C90.3 158.402 90.2 158.202 90 158.202H88.1C88.1 158.202 87.9 158.402 87.9 158.502ZM95.1 154.502V155.002H94.3C94.3 155.002 94.3 155.002 94.2 155.002L92.6 155.302C92.5 155.302 92.4 155.302 92.4 155.302C92.1 155.202 91.9 154.902 91.9 154.602C92 154.302 92.3 154.102 92.6 154.102L94.2 154.402C94.2 154.402 94.2 154.402 94.3 154.402H95.1V154.502ZM95.6 154.502H96.1V155.002H95.6V154.502ZM96.2 154.002H95.7V153.702H96.2V154.002ZM96.7 155.002V154.502H97.5C97.5 154.502 97.5 154.502 97.6 154.502L99.2 154.202C99.3 154.202 99.4 154.202 99.4 154.202C99.7 154.302 99.9 154.602 99.9 154.902C99.9 155.202 99.5 155.402 99.2 155.402L97.6 155.102C97.6 155.102 97.6 155.102 97.5 155.102H96.7V155.002ZM96.2 157.202H95.7V155.602H96.2V157.202ZM97.2 158.802H94.5V157.702H97.2V158.802ZM99.1 162.202V160.102H100.4C102 160.102 103.3 161.402 103.3 163.002V164.302H101.2V163.002C101.2 162.602 100.8 162.202 100.4 162.202H99.1ZM93.2 159.302H98.5V163.002H93.2V159.302ZM90.3 162.502V159.802H92.7V162.502H90.3ZM88.5 158.802H89.8V163.602H88.5V158.802Z" fill="#38CEF0"/>
<path d="M103.4 168.501C103.6 168.101 103.6 167.701 103.4 167.301L102.5 165.501L102.4 165.401C102.3 165.301 102.1 165.401 102 165.501L101.1 167.301C100.9 167.701 100.9 168.101 101.1 168.501C101.3 168.901 101.8 169.101 102.3 169.101C102.7 169.101 103.2 168.901 103.4 168.501ZM103 168.201C102.9 168.401 102.6 168.601 102.3 168.601C102 168.601 101.7 168.501 101.6 168.201C101.5 168.001 101.5 167.701 101.6 167.501L102.3 166.201L103 167.501C103.1 167.801 103.1 168.001 103 168.201Z" fill="#38CEF0"/>
<path d="M102.4 190.101L101.8 187.401C101.6 186.601 100.8 186.1 100 186.401L89.6 189.201C88.8 189.401 88.3 190.201 88.6 191.001L89.5 194.401V192.4C89.5 191.2 90.5 190.201 91.7 190.201L102.4 190.101Z" fill="#38CEF0"/>
<path d="M102.4 190.801H91.6C90.8 190.801 90.1 191.501 90.1 192.301V199.101C90.1 199.901 90.8 200.601 91.6 200.601H102.4C103.2 200.601 103.9 199.901 103.9 199.101V192.301C103.8 191.501 103.2 190.801 102.4 190.801ZM102.9 199.101C102.9 199.401 102.7 199.601 102.4 199.601H91.6C91.3 199.601 91.1 199.401 91.1 199.101V197.401H102.9V199.101ZM102.9 194.001H91.1V192.301C91.1 192.001 91.3 191.801 91.6 191.801H102.4C102.7 191.801 102.9 192.001 102.9 192.301V194.001Z" fill="#38CEF0"/>
<path d="M92.2 225.402C91.9 225.402 91.7 225.602 91.7 225.902V233.302C91.7 233.602 91.9 233.802 92.2 233.802H105.1C105.4 233.802 105.6 233.602 105.6 233.302V225.902C105.6 225.602 105.4 225.402 105.1 225.402H92.2ZM104.6 228.102V231.002C103.7 231.202 103 231.902 102.8 232.802H94.4C94.2 231.902 93.5 231.202 92.6 231.002V228.102C93.5 227.902 94.2 227.202 94.4 226.302H102.8C103 227.202 103.7 227.902 104.6 228.102ZM93.5 226.302C93.4 226.702 93 227.002 92.7 227.102V226.302H93.5ZM92.6 231.902C93 232.002 93.3 232.402 93.4 232.702H92.6V231.902ZM103.8 232.702C103.9 232.302 104.3 232.002 104.6 231.902V232.702H103.8ZM104.6 227.102C104.2 227.002 103.9 226.602 103.8 226.302H104.6V227.102Z" fill="#38CEF0"/>
<path d="M98.6 231.803C99.9 231.803 100.9 230.803 100.9 229.503C100.9 228.203 99.9 227.203 98.6 227.203C97.3 227.203 96.3 228.203 96.3 229.503C96.3 230.803 97.3 231.803 98.6 231.803ZM98.6 228.103C99.4 228.103 100 228.703 100 229.503C100 230.303 99.4 230.903 98.6 230.903C97.8 230.903 97.2 230.303 97.2 229.503C97.2 228.703 97.8 228.103 98.6 228.103Z" fill="#38CEF0"/>
<path d="M103.7 223.504H90.3C90 223.504 89.8 223.704 89.8 224.004V231.804C89.8 232.104 90 232.304 90.3 232.304C90.6 232.304 90.8 232.104 90.8 231.804V224.404H103.7C104 224.404 104.2 224.204 104.2 223.904C104.2 223.604 104 223.504 103.7 223.504Z" fill="#38CEF0"/>
<path d="M101.9 221.703H88.5C88.2 221.703 88 221.903 88 222.203V230.003C88 230.303 88.2 230.503 88.5 230.503C88.8 230.503 89 230.303 89 230.003V222.603H101.9C102.2 222.603 102.4 222.403 102.4 222.103C102.3 221.803 102.1 221.703 101.9 221.703Z" fill="#38CEF0"/>
<path d="M217.7 109.499H70.2V78.6992H217.7V109.499ZM73.2 106.499H214.7V81.6992H73.2V106.499Z" fill="#FF4200"/>
</svg>
