<svg width="392" height="262" viewBox="0 0 392 262" fill="none" xmlns="http://www.w3.org/2000/svg">
<path d="M392 0H0V262H392V0Z" fill="#F6F6F6"/>
<path d="M162.5 41.7008C162.5 42.2008 162.2 42.6008 161.7 42.6008C161.2 42.6008 160.9 42.2008 160.9 41.7008C160.9 41.2008 161.2 40.8008 161.7 40.8008C162.2 40.8008 162.5 41.2008 162.5 41.7008ZM161 50.4008L161.2 43.8008H162.1L162.3 50.4008H161Z" fill="#4B4B4B"/>
<path d="M164.4 38.3992C164.9 38.2992 165.8 38.1992 166.6 38.1992C167.8 38.1992 168.6 38.3992 169.2 38.8992C169.7 39.2992 170 39.7992 170 40.5992C170 41.4992 169.4 42.2992 168.4 42.6992C169.3 42.8992 170.3 43.6992 170.3 45.0992C170.3 45.8992 170 46.4992 169.5 46.9992C168.8 47.5992 167.8 47.8992 166.3 47.8992C165.5 47.8992 164.8 47.7992 164.4 47.7992V38.3992ZM165.6 42.2992H166.7C168 42.2992 168.7 41.5992 168.7 40.6992C168.7 39.5992 167.9 39.1992 166.6 39.1992C166 39.1992 165.7 39.1992 165.5 39.2992V42.2992H165.6ZM165.6 46.7992C165.8 46.7992 166.2 46.8992 166.6 46.8992C167.9 46.8992 169 46.3992 169 45.0992C169 43.7992 167.9 43.2992 166.6 43.2992H165.6V46.7992Z" fill="#4B4B4B"/>
<path d="M173.2 38.9992C173.2 39.3992 172.9 39.7992 172.4 39.7992C172 39.7992 171.7 39.4992 171.7 38.9992C171.7 38.5992 172 38.1992 172.5 38.1992C172.9 38.2992 173.2 38.5992 173.2 38.9992ZM171.9 47.6992V40.9992H173.1V47.6992H171.9Z" fill="#4B4B4B"/>
<path d="M175.8 44.5008C175.8 46.2008 176.9 46.8008 178.1 46.8008C179 46.8008 179.5 46.6008 180 46.5008L180.2 47.4008C179.8 47.6008 179 47.8008 178 47.8008C175.9 47.8008 174.7 46.4008 174.7 44.4008C174.7 42.4008 175.9 40.8008 177.9 40.8008C180.1 40.8008 180.7 42.7008 180.7 44.0008C180.7 44.3008 180.7 44.4008 180.7 44.6008H175.8V44.5008ZM179.4 43.7008C179.4 42.9008 179.1 41.7008 177.7 41.7008C176.5 41.7008 175.9 42.8008 175.8 43.7008H179.4Z" fill="#4B4B4B"/>
<path d="M182.1 42.8008C182.1 42.1008 182.1 41.5008 182 41.0008H183.1L183.2 42.1008C183.5 41.5008 184.3 40.8008 185.4 40.8008C186.3 40.8008 187.8 41.4008 187.8 43.7008V47.7008H186.6V43.8008C186.6 42.7008 186.2 41.8008 185 41.8008C184.2 41.8008 183.6 42.4008 183.4 43.1008C183.3 43.3008 183.3 43.5008 183.3 43.7008V47.8008H182.1V42.8008Z" fill="#4B4B4B"/>
<path d="M190.1 40.8984L191.4 44.6984C191.6 45.2984 191.8 45.8984 191.9 46.3984C192.1 45.7984 192.2 45.2984 192.5 44.6984L193.8 40.8984H195.1L192.5 47.5984H191.3L188.7 40.8984H190.1Z" fill="#4B4B4B"/>
<path d="M196.9 44.5008C196.9 46.2008 198 46.8008 199.2 46.8008C200.1 46.8008 200.6 46.6008 201.1 46.5008L201.3 47.4008C200.9 47.6008 200.1 47.8008 199.1 47.8008C197 47.8008 195.8 46.4008 195.8 44.4008C195.8 42.4008 197 40.8008 199 40.8008C201.2 40.8008 201.8 42.7008 201.8 44.0008C201.8 44.3008 201.8 44.4008 201.8 44.6008H196.9V44.5008ZM200.5 43.7008C200.5 42.9008 200.2 41.7008 198.8 41.7008C197.6 41.7008 197 42.8008 196.9 43.7008H200.5Z" fill="#4B4B4B"/>
<path d="M203.2 42.8008C203.2 42.1008 203.2 41.5008 203.1 41.0008H204.2L204.3 42.1008C204.6 41.5008 205.4 40.8008 206.5 40.8008C207.4 40.8008 208.9 41.4008 208.9 43.7008V47.7008H207.7V43.8008C207.7 42.7008 207.3 41.8008 206.1 41.8008C205.3 41.8008 204.7 42.4008 204.5 43.1008C204.4 43.3008 204.4 43.5008 204.4 43.7008V47.8008H203.2V42.8008Z" fill="#4B4B4B"/>
<path d="M212.3 38.9992C212.3 39.3992 212 39.7992 211.5 39.7992C211.1 39.7992 210.8 39.4992 210.8 38.9992C210.8 38.5992 211.1 38.1992 211.6 38.1992C212 38.2992 212.3 38.5992 212.3 38.9992ZM210.9 47.6992V40.9992H212.1V47.6992H210.9Z" fill="#4B4B4B"/>
<path d="M220 37.7992V45.8992C220 46.4992 220 47.1992 220.1 47.5992H219L218.9 46.3992C218.5 47.1992 217.7 47.6992 216.6 47.6992C215 47.6992 213.7 46.2992 213.7 44.2992C213.7 42.0992 215.1 40.6992 216.7 40.6992C217.7 40.6992 218.4 41.1992 218.7 41.6992V37.6992H220V37.7992ZM218.8 43.6992C218.8 43.4992 218.8 43.2992 218.7 43.1992C218.5 42.3992 217.9 41.7992 216.9 41.7992C215.6 41.7992 214.9 42.8992 214.9 44.3992C214.9 45.7992 215.6 46.8992 216.9 46.8992C217.7 46.8992 218.5 46.3992 218.7 45.3992C218.7 45.1992 218.8 45.0992 218.8 44.8992V43.6992Z" fill="#4B4B4B"/>
<path d="M228.2 44.3008C228.2 46.8008 226.5 47.9008 224.8 47.9008C223 47.9008 221.6 46.6008 221.6 44.4008C221.6 42.1008 223.1 40.8008 224.9 40.8008C226.9 40.8008 228.2 42.2008 228.2 44.3008ZM222.8 44.3008C222.8 45.8008 223.6 46.9008 224.8 46.9008C226 46.9008 226.8 45.8008 226.8 44.3008C226.8 43.2008 226.2 41.7008 224.8 41.7008C223.4 41.7008 222.8 43.0008 222.8 44.3008Z" fill="#4B4B4B"/>
<path d="M229.5 47.0008C229.5 46.5008 229.8 46.1008 230.3 46.1008C230.8 46.1008 231.1 46.5008 231.1 47.0008C231.1 47.5008 230.8 47.9008 230.3 47.9008C229.8 47.8008 229.5 47.5008 229.5 47.0008ZM229.8 45.0008L229.6 38.3008H230.9L230.7 45.0008H229.8Z" fill="#4B4B4B"/>
<path d="M265.4 95.5977H126.6V120.198H265.4V95.5977Z" fill="white"/>
<path d="M265.4 120.199H126.6V121.199H265.4V120.199Z" fill="#929292"/>
<path d="M134.1 104.098V99.8984H134.7L136 101.998C136.3 102.498 136.6 102.898 136.8 103.398C136.8 102.798 136.7 102.298 136.7 101.698V99.9984H137.2V104.198H136.7L135.4 102.098C135.1 101.598 134.8 101.198 134.6 100.698C134.6 101.198 134.6 101.698 134.6 102.398V104.198H134.1V104.098Z" fill="#726E6E"/>
<path d="M140.7 103.301C140.7 103.601 140.7 103.901 140.7 104.101H140.2V103.601C140.1 103.801 139.7 104.201 139.2 104.201C138.7 104.201 138.2 103.901 138.2 102.901V101.101H138.7V102.801C138.7 103.401 138.9 103.801 139.4 103.801C139.8 103.801 140 103.501 140.1 103.301C140.1 103.201 140.1 103.101 140.1 103.001V101.201H140.6V103.301H140.7ZM140.3 99.8008L139.5 100.701H139.1L139.6 99.8008H140.3Z" fill="#726E6E"/>
<path d="M141.6 101.9C141.6 101.6 141.6 101.3 141.6 101.1H142.1V101.6C142.3 101.3 142.5 101 143 101C143.4 101 143.7 101.2 143.8 101.6C143.9 101.4 144 101.3 144.1 101.2C144.3 101.1 144.5 101 144.8 101C145.2 101 145.8 101.3 145.8 102.3V104.1H145.3V102.4C145.3 101.8 145.1 101.5 144.6 101.5C144.3 101.5 144 101.7 144 102C144 102.1 144 102.2 144 102.3V104.2H143.5V102.4C143.5 101.9 143.3 101.6 142.9 101.6C142.6 101.6 142.3 101.9 142.2 102.1C142.2 102.2 142.2 102.3 142.2 102.4V104.2H141.7V101.9H141.6Z" fill="#726E6E"/>
<path d="M147.1 102.7C147.1 103.4 147.6 103.7 148.1 103.7C148.5 103.7 148.7 103.6 148.9 103.5L149 103.9C148.8 104 148.5 104.1 148 104.1C147.1 104.1 146.5 103.5 146.5 102.6C146.5 101.7 147 101 147.9 101C148.9 101 149.1 101.9 149.1 102.4C149.1 102.5 149.1 102.6 149.1 102.7H147.1ZM148.7 102.3C148.7 102 148.6 101.4 147.9 101.4C147.3 101.4 147.1 101.9 147.1 102.3H148.7Z" fill="#726E6E"/>
<path d="M149.9 102C149.9 101.6 149.9 101.3 149.9 101.1H150.4V101.7C150.5 101.3 150.9 101 151.2 101C151.3 101 151.3 101 151.4 101V101.5C151.3 101.5 151.3 101.5 151.2 101.5C150.8 101.5 150.5 101.8 150.5 102.2C150.5 102.3 150.5 102.4 150.5 102.5V104.1H150V102H149.9Z" fill="#726E6E"/>
<path d="M154.6 102.601C154.6 103.701 153.8 104.201 153.1 104.201C152.3 104.201 151.7 103.601 151.7 102.701C151.7 101.701 152.4 101.101 153.2 101.101C154 101.001 154.6 101.601 154.6 102.601ZM152.2 102.601C152.2 103.301 152.6 103.801 153.1 103.801C153.6 103.801 154 103.301 154 102.601C154 102.101 153.7 101.401 153.1 101.401C152.5 101.401 152.2 102.001 152.2 102.601Z" fill="#726E6E"/>
<path d="M159.1 99.6992V103.299C159.1 103.599 159.1 103.899 159.1 104.099H158.6V103.599C158.4 103.899 158.1 104.199 157.6 104.199C156.9 104.199 156.3 103.599 156.3 102.699C156.3 101.699 156.9 101.099 157.6 101.099C158.1 101.099 158.4 101.299 158.5 101.599V99.7992H159.1V99.6992ZM158.6 102.299C158.6 102.199 158.6 102.099 158.6 102.099C158.5 101.799 158.2 101.499 157.8 101.499C157.2 101.499 156.9 101.999 156.9 102.699C156.9 103.299 157.2 103.799 157.8 103.799C158.2 103.799 158.5 103.599 158.6 103.099C158.6 102.999 158.6 102.999 158.6 102.899V102.299Z" fill="#726E6E"/>
<path d="M160.4 102.7C160.4 103.4 160.9 103.7 161.4 103.7C161.8 103.7 162 103.6 162.2 103.5L162.3 103.9C162.1 104 161.8 104.1 161.3 104.1C160.4 104.1 159.8 103.5 159.8 102.6C159.8 101.7 160.3 101 161.2 101C162.2 101 162.4 101.9 162.4 102.4C162.4 102.5 162.4 102.6 162.4 102.7H160.4ZM162 102.3C162 102 161.9 101.4 161.2 101.4C160.6 101.4 160.4 101.9 160.4 102.3H162Z" fill="#726E6E"/>
<path d="M167.1 99.6992V103.299C167.1 103.599 167.1 103.899 167.1 104.099H166.6V103.599C166.4 103.899 166.1 104.199 165.6 104.199C164.9 104.199 164.3 103.599 164.3 102.699C164.3 101.699 164.9 101.099 165.6 101.099C166.1 101.099 166.4 101.299 166.5 101.599V99.7992H167.1V99.6992ZM166.5 102.299C166.5 102.199 166.5 102.099 166.5 102.099C166.4 101.799 166.1 101.499 165.7 101.499C165.1 101.499 164.8 101.999 164.8 102.699C164.8 103.299 165.1 103.799 165.7 103.799C166.1 103.799 166.4 103.599 166.5 103.099C166.5 102.999 166.5 102.999 166.5 102.899V102.299Z" fill="#726E6E"/>
<path d="M170.7 102.601C170.7 103.701 169.9 104.201 169.2 104.201C168.4 104.201 167.8 103.601 167.8 102.701C167.8 101.701 168.5 101.101 169.3 101.101C170.1 101.001 170.7 101.601 170.7 102.601ZM168.3 102.601C168.3 103.301 168.7 103.801 169.2 103.801C169.7 103.801 170.1 103.301 170.1 102.601C170.1 102.101 169.8 101.401 169.2 101.401C168.6 101.401 168.3 102.001 168.3 102.601Z" fill="#726E6E"/>
<path d="M173.5 103.998C173.4 104.098 173 104.198 172.6 104.198C171.7 104.198 171.1 103.598 171.1 102.698C171.1 101.798 171.7 101.098 172.7 101.098C173 101.098 173.3 101.198 173.5 101.298L173.4 101.698C173.3 101.598 173.1 101.598 172.8 101.598C172.1 101.598 171.7 102.098 171.7 102.698C171.7 103.398 172.1 103.798 172.7 103.798C173 103.798 173.2 103.698 173.4 103.698L173.5 103.998Z" fill="#726E6E"/>
<path d="M176.6 103.298C176.6 103.598 176.6 103.898 176.6 104.098H176.1V103.598C176 103.798 175.6 104.198 175.1 104.198C174.6 104.198 174.1 103.898 174.1 102.898V101.098H174.6V102.798C174.6 103.398 174.8 103.798 175.3 103.798C175.7 103.798 175.9 103.498 176 103.298C176 103.198 176 103.098 176 102.998V101.198H176.5V103.298H176.6Z" fill="#726E6E"/>
<path d="M177.5 101.9C177.5 101.6 177.5 101.3 177.5 101.1H178V101.6C178.2 101.3 178.4 101 178.9 101C179.3 101 179.6 101.2 179.7 101.6C179.8 101.4 179.9 101.3 180 101.2C180.2 101.1 180.4 101 180.7 101C181.1 101 181.7 101.3 181.7 102.3V104.1H181.2V102.4C181.2 101.8 181 101.5 180.5 101.5C180.2 101.5 179.9 101.7 179.9 102C179.9 102.1 179.9 102.2 179.9 102.3V104.2H179.4V102.4C179.4 101.9 179.2 101.6 178.8 101.6C178.5 101.6 178.2 101.9 178.1 102.1C178.1 102.2 178.1 102.3 178.1 102.4V104.2H177.6V101.9H177.5Z" fill="#726E6E"/>
<path d="M183 102.7C183 103.4 183.5 103.7 184 103.7C184.4 103.7 184.6 103.6 184.8 103.5L184.9 103.9C184.7 104 184.4 104.1 183.9 104.1C183 104.1 182.4 103.5 182.4 102.6C182.4 101.7 182.9 101 183.8 101C184.8 101 185 101.9 185 102.4C185 102.5 185 102.6 185 102.7H183ZM184.6 102.3C184.6 102 184.5 101.4 183.8 101.4C183.2 101.4 183 101.9 183 102.3H184.6Z" fill="#726E6E"/>
<path d="M185.8 101.9C185.8 101.6 185.8 101.3 185.8 101.1H186.3V101.6C186.4 101.3 186.8 101 187.3 101C187.7 101 188.4 101.2 188.4 102.3V104.1H187.9V102.4C187.9 101.9 187.7 101.5 187.2 101.5C186.8 101.5 186.6 101.8 186.5 102.1C186.5 102.2 186.5 102.3 186.5 102.4V104.2H186V101.9H185.8Z" fill="#726E6E"/>
<path d="M189.9 100.199V101.099H190.7V101.499H189.9V103.099C189.9 103.499 190 103.699 190.3 103.699C190.4 103.699 190.5 103.699 190.6 103.699V104.099C190.5 104.099 190.3 104.199 190.1 104.199C189.8 104.199 189.6 104.099 189.5 103.999C189.3 103.799 189.3 103.599 189.3 103.199V101.599H188.8V101.199H189.3V100.499L189.9 100.199Z" fill="#726E6E"/>
<path d="M194 102.601C194 103.701 193.2 104.201 192.5 104.201C191.7 104.201 191.1 103.601 191.1 102.701C191.1 101.701 191.8 101.101 192.6 101.101C193.4 101.001 194 101.601 194 102.601ZM191.6 102.601C191.6 103.301 192 103.801 192.5 103.801C193 103.801 193.4 103.301 193.4 102.601C193.4 102.101 193.1 101.401 192.5 101.401C191.9 101.401 191.6 102.001 191.6 102.601Z" fill="#726E6E"/>
<path d="M141.2 199.502V199.702C141.2 200.102 141.1 200.502 140.8 200.902C140.5 201.302 140.3 201.502 140.3 201.802C140.3 202.202 140.5 202.402 141 202.402C141.2 202.402 141.5 202.302 141.7 202.202L141.9 202.602C141.7 202.802 141.3 202.902 140.9 202.902C140.1 202.902 139.7 202.402 139.7 201.902C139.7 201.402 140 201.102 140.3 200.702C140.6 200.302 140.7 200.002 140.7 199.702V199.502H141.2ZM141.3 198.602C141.3 198.802 141.1 199.002 140.9 199.002C140.7 199.002 140.5 198.802 140.5 198.602C140.5 198.302 140.7 198.202 140.9 198.202C141.2 198.102 141.3 198.302 141.3 198.602Z" fill="#0074BC"/>
<path d="M146.7 199.099C146.7 200.699 145.7 201.599 144.5 201.599C143.3 201.599 142.4 200.599 142.4 199.199C142.4 197.699 143.3 196.699 144.6 196.699C145.8 196.799 146.7 197.699 146.7 199.099ZM143 199.199C143 200.199 143.5 201.099 144.5 201.099C145.5 201.099 146 200.199 146 199.099C146 198.199 145.5 197.199 144.5 197.199C143.5 197.299 143 198.199 143 199.199Z" fill="#0074BC"/>
<path d="M147.4 196.602H148V201.602H147.4V196.602Z" fill="#0074BC"/>
<path d="M149.3 198.199L150 200.099C150.1 200.399 150.2 200.699 150.3 200.999C150.4 200.699 150.5 200.399 150.6 200.099L151.3 198.199H151.9L150.6 201.599H150L148.7 198.199H149.3Z" fill="#0074BC"/>
<path d="M153.1 197.201C153.1 197.401 153 197.601 152.7 197.601C152.5 197.601 152.3 197.401 152.3 197.201C152.3 197.001 152.5 196.801 152.7 196.801C152.9 196.801 153.1 197.001 153.1 197.201ZM152.4 201.501V198.101H153V201.501H152.4Z" fill="#0074BC"/>
<path d="M157 196.602V200.702C157 201.002 157 201.302 157 201.602H156.4V201.002C156.2 201.402 155.8 201.702 155.2 201.702C154.4 201.702 153.8 201.002 153.8 200.002C153.8 198.902 154.5 198.202 155.3 198.202C155.8 198.202 156.2 198.402 156.3 198.702V196.702H157V196.602ZM156.3 199.502C156.3 199.402 156.3 199.302 156.3 199.202C156.2 198.802 155.9 198.502 155.4 198.502C154.8 198.502 154.4 199.102 154.4 199.802C154.4 200.502 154.7 201.002 155.4 201.002C155.8 201.002 156.2 200.702 156.3 200.302C156.3 200.202 156.3 200.102 156.3 200.002V199.502Z" fill="#0074BC"/>
<path d="M159.8 201.5V201.1C159.6 201.4 159.2 201.6 158.8 201.6C158.1 201.6 157.8 201.1 157.8 200.6C157.8 199.8 158.5 199.3 159.8 199.3V199.2C159.8 198.9 159.7 198.4 159 198.4C158.7 198.4 158.4 198.5 158.1 198.7L158 198.3C158.3 198.1 158.7 198 159.1 198C160.1 198 160.4 198.7 160.4 199.4V200.7C160.4 201 160.4 201.3 160.5 201.5H159.8ZM159.7 199.8C159 199.8 158.3 199.9 158.3 200.6C158.3 201 158.6 201.2 158.9 201.2C159.3 201.2 159.6 200.9 159.7 200.6C159.7 200.5 159.7 200.5 159.7 200.4V199.8Z" fill="#0074BC"/>
<path d="M161.2 200.9C161.4 201 161.7 201.1 162 201.1C162.4 201.1 162.7 200.9 162.7 200.6C162.7 200.3 162.5 200.1 162.1 200C161.5 199.8 161.2 199.4 161.2 199C161.2 198.5 161.6 198 162.4 198C162.7 198 163 198.1 163.2 198.2L163 198.6C162.9 198.5 162.6 198.4 162.3 198.4C161.9 198.4 161.7 198.6 161.7 198.9C161.7 199.2 161.9 199.3 162.3 199.5C162.9 199.7 163.2 200 163.2 200.5C163.2 201.1 162.7 201.5 161.9 201.5C161.5 201.5 161.2 201.4 161 201.3L161.2 200.9Z" fill="#0074BC"/>
<path d="M164.8 197.199V198.199H165.7V198.699H164.8V200.499C164.8 200.899 164.9 201.199 165.3 201.199C165.5 201.199 165.6 201.199 165.7 201.199V201.699C165.6 201.699 165.4 201.799 165.2 201.799C164.9 201.799 164.7 201.699 164.5 201.499C164.3 201.299 164.3 200.999 164.3 200.599V198.799H163.8V198.299H164.3V197.499L164.8 197.199Z" fill="#0074BC"/>
<path d="M166.7 200.002C166.7 200.802 167.2 201.202 167.9 201.202C168.3 201.202 168.6 201.102 168.8 201.002L168.9 201.402C168.7 201.502 168.3 201.602 167.8 201.602C166.8 201.602 166.1 200.902 166.1 199.902C166.1 198.902 166.7 198.102 167.7 198.102C168.8 198.102 169.1 199.102 169.1 199.702C169.1 199.802 169.1 199.902 169.1 200.002H166.7ZM168.5 199.502C168.5 199.102 168.3 198.502 167.6 198.502C167 198.502 166.7 199.102 166.7 199.502H168.5Z" fill="#0074BC"/>
<path d="M174.4 199.802C174.4 201.002 173.5 201.602 172.7 201.602C171.8 201.602 171.1 200.902 171.1 199.902C171.1 198.802 171.8 198.102 172.8 198.102C173.7 198.102 174.4 198.802 174.4 199.802ZM171.7 199.902C171.7 200.602 172.1 201.202 172.7 201.202C173.3 201.202 173.7 200.602 173.7 199.902C173.7 199.302 173.4 198.602 172.7 198.602C172 198.502 171.7 199.202 171.7 199.902Z" fill="#0074BC"/>
<path d="M176.6 201.5C176.6 201.3 176.6 200.9 176.6 200.6V196.5H177.2V198.6C177.4 198.2 177.8 198 178.4 198C179.2 198 179.8 198.7 179.8 199.7C179.8 200.9 179 201.5 178.3 201.5C177.8 201.5 177.4 201.3 177.2 200.9V201.5H176.6ZM177.2 200.2C177.2 200.3 177.2 200.4 177.2 200.4C177.3 200.8 177.7 201.1 178.1 201.1C178.7 201.1 179.1 200.6 179.1 199.8C179.1 199.1 178.8 198.5 178.1 198.5C177.7 198.5 177.3 198.8 177.2 199.3C177.2 199.4 177.2 199.5 177.2 199.6V200.2Z" fill="#0074BC"/>
<path d="M180.6 196.602H181.2V201.602H180.6V196.602Z" fill="#0074BC"/>
<path d="M185.3 199.802C185.3 201.002 184.4 201.602 183.6 201.602C182.7 201.602 182 200.902 182 199.902C182 198.802 182.7 198.102 183.7 198.102C184.6 198.102 185.3 198.802 185.3 199.802ZM182.6 199.902C182.6 200.602 183 201.202 183.6 201.202C184.2 201.202 184.6 200.602 184.6 199.902C184.6 199.302 184.3 198.602 183.6 198.602C182.9 198.602 182.6 199.202 182.6 199.902Z" fill="#0074BC"/>
<path d="M188.4 201.002C188.2 201.302 187.8 201.602 187.3 201.602C186.5 201.602 185.9 200.902 185.9 199.902C185.9 198.602 186.7 198.102 187.4 198.102C187.9 198.102 188.3 198.402 188.4 198.702V198.202H189C189 198.502 189 198.802 189 199.102V202.902H188.4V201.002ZM188.4 199.502C188.4 199.402 188.4 199.302 188.4 199.202C188.3 198.802 188 198.502 187.5 198.502C186.9 198.502 186.5 199.002 186.5 199.802C186.5 200.502 186.8 201.102 187.5 201.102C187.9 201.102 188.2 200.902 188.4 200.402C188.4 200.302 188.4 200.202 188.4 200.102V199.502Z" fill="#0074BC"/>
<path d="M192.8 200.6C192.8 200.9 192.8 201.3 192.8 201.5H192.3V200.9C192.1 201.2 191.8 201.5 191.2 201.5C190.7 201.5 190 201.2 190 200V198H190.6V199.9C190.6 200.5 190.8 201 191.4 201C191.8 201 192.1 200.7 192.2 200.4C192.2 200.3 192.3 200.2 192.3 200.1V198H192.9V200.6H192.8Z" fill="#0074BC"/>
<path d="M194.2 200.002C194.2 200.802 194.7 201.202 195.4 201.202C195.8 201.202 196.1 201.102 196.3 201.002L196.4 201.402C196.2 201.502 195.8 201.602 195.3 201.602C194.3 201.602 193.6 200.902 193.6 199.902C193.6 198.902 194.2 198.102 195.2 198.102C196.3 198.102 196.6 199.102 196.6 199.702C196.6 199.802 196.6 199.902 196.6 200.002H194.2ZM196 199.502C196 199.102 195.8 198.502 195.1 198.502C194.5 198.502 194.2 199.102 194.2 199.502H196Z" fill="#0074BC"/>
<path d="M199.2 201.5V201.1C199 201.4 198.6 201.6 198.2 201.6C197.5 201.6 197.2 201.1 197.2 200.6C197.2 199.8 197.9 199.3 199.2 199.3V199.2C199.2 198.9 199.1 198.4 198.4 198.4C198.1 198.4 197.8 198.5 197.5 198.7L197.4 198.3C197.7 198.1 198.1 198 198.5 198C199.5 198 199.8 198.7 199.8 199.4V200.7C199.8 201 199.8 201.3 199.9 201.5H199.2ZM199.1 199.8C198.4 199.8 197.7 199.9 197.7 200.6C197.7 201 198 201.2 198.3 201.2C198.7 201.2 199 200.9 199.1 200.6C199.1 200.5 199.1 200.5 199.1 200.4V199.8Z" fill="#0074BC"/>
<path d="M200.6 200.9C200.8 201 201.1 201.1 201.4 201.1C201.8 201.1 202.1 200.9 202.1 200.6C202.1 200.3 201.9 200.1 201.5 200C200.9 199.8 200.6 199.4 200.6 199C200.6 198.5 201 198 201.8 198C202.1 198 202.4 198.1 202.6 198.2L202.4 198.6C202.3 198.5 202 198.4 201.7 198.4C201.3 198.4 201.1 198.6 201.1 198.9C201.1 199.2 201.3 199.3 201.7 199.5C202.3 199.7 202.6 200 202.6 200.5C202.6 201.1 202.1 201.5 201.3 201.5C200.9 201.5 200.6 201.4 200.4 201.3L200.6 200.9Z" fill="#0074BC"/>
<path d="M204.2 197.199V198.199H205.1V198.699H204.2V200.499C204.2 200.899 204.3 201.199 204.7 201.199C204.9 201.199 205 201.199 205.1 201.199V201.699C205 201.699 204.8 201.799 204.6 201.799C204.3 201.799 204.1 201.699 203.9 201.499C203.7 201.299 203.7 200.999 203.7 200.599V198.799H203V198.299H203.5V197.499L204.2 197.199Z" fill="#0074BC"/>
<path d="M206 200.002C206 200.802 206.5 201.202 207.2 201.202C207.6 201.202 207.9 201.102 208.1 201.002L208.2 201.402C208 201.502 207.6 201.602 207.1 201.602C206.1 201.602 205.4 200.902 205.4 199.902C205.4 198.902 206 198.102 207 198.102C208.1 198.102 208.4 199.102 208.4 199.702C208.4 199.802 208.4 199.902 208.4 200.002H206ZM207.8 199.502C207.8 199.102 207.6 198.502 206.9 198.502C206.3 198.502 206 199.102 206 199.502H207.8Z" fill="#0074BC"/>
<path d="M211.4 197.199V198.199H212.3V198.699H211.4V200.499C211.4 200.899 211.5 201.199 211.9 201.199C212.1 201.199 212.2 201.199 212.3 201.199V201.699C212.2 201.699 212 201.799 211.8 201.799C211.5 201.799 211.3 201.699 211.1 201.499C210.9 201.299 210.9 200.999 210.9 200.599V198.799H210.4V198.299H210.9V197.499L211.4 197.199Z" fill="#0074BC"/>
<path d="M215.8 200.6C215.8 200.9 215.8 201.3 215.8 201.5H215.3V200.9C215.1 201.2 214.8 201.5 214.2 201.5C213.7 201.5 213 201.2 213 200V198H213.6V199.9C213.6 200.5 213.8 201 214.4 201C214.8 201 215.1 200.7 215.2 200.4C215.2 200.3 215.3 200.2 215.3 200.1V198H215.9V200.6H215.8Z" fill="#0074BC"/>
<path d="M220.7 201.402C220.5 201.502 220.2 201.602 219.7 201.602C218.7 201.602 218 200.902 218 199.902C218 198.902 218.7 198.102 219.8 198.102C220.2 198.102 220.5 198.202 220.7 198.302L220.6 198.802C220.5 198.702 220.2 198.602 219.9 198.602C219.1 198.602 218.7 199.202 218.7 199.902C218.7 200.702 219.2 201.202 219.9 201.202C220.2 201.202 220.5 201.102 220.7 201.002V201.402Z" fill="#0074BC"/>
<path d="M224.4 199.802C224.4 201.002 223.5 201.602 222.7 201.602C221.8 201.602 221.1 200.902 221.1 199.902C221.1 198.802 221.8 198.102 222.8 198.102C223.8 198.102 224.4 198.802 224.4 199.802ZM221.7 199.902C221.7 200.602 222.1 201.202 222.7 201.202C223.3 201.202 223.7 200.602 223.7 199.902C223.7 199.302 223.4 198.602 222.7 198.602C222 198.602 221.7 199.202 221.7 199.902Z" fill="#0074BC"/>
<path d="M225.2 199.099C225.2 198.799 225.2 198.499 225.2 198.199H225.7V198.799C225.9 198.499 226.3 198.199 226.8 198.199C227.3 198.199 228 198.499 228 199.599V201.599H227.4V199.699C227.4 199.199 227.2 198.699 226.6 198.699C226.2 198.699 225.9 198.999 225.8 199.299C225.8 199.399 225.8 199.499 225.8 199.599V201.599H225.2V199.099Z" fill="#0074BC"/>
<path d="M229.8 197.199V198.199H230.7V198.699H229.8V200.499C229.8 200.899 229.9 201.199 230.3 201.199C230.5 201.199 230.6 201.199 230.7 201.199V201.699C230.6 201.699 230.4 201.799 230.2 201.799C229.9 201.799 229.7 201.699 229.5 201.499C229.3 201.299 229.3 200.999 229.3 200.599V198.799H228.8V198.299H229.3V197.499L229.8 197.199Z" fill="#0074BC"/>
<path d="M231.3 199.202C231.3 198.802 231.3 198.502 231.3 198.102H231.8V198.802C232 198.302 232.3 198.102 232.7 198.102C232.8 198.102 232.8 198.102 232.9 198.102V198.702C232.8 198.702 232.8 198.702 232.7 198.702C232.3 198.702 232 199.002 231.9 199.502C231.9 199.602 231.9 199.702 231.9 199.802V201.602H231.3V199.202Z" fill="#0074BC"/>
<path d="M235.4 201.5V201.1C235.2 201.4 234.8 201.6 234.4 201.6C233.7 201.6 233.4 201.1 233.4 200.6C233.4 199.8 234.1 199.3 235.4 199.3V199.2C235.4 198.9 235.3 198.4 234.6 198.4C234.3 198.4 234 198.5 233.7 198.7L233.6 198.3C233.9 198.1 234.3 198 234.7 198C235.7 198 236 198.7 236 199.4V200.7C236 201 236 201.3 236.1 201.5H235.4ZM235.3 199.8C234.6 199.8 233.9 199.9 233.9 200.6C233.9 201 234.2 201.2 234.5 201.2C234.9 201.2 235.2 200.9 235.3 200.6C235.3 200.5 235.3 200.5 235.3 200.4V199.8Z" fill="#0074BC"/>
<path d="M236.8 200.9C237 201 237.3 201.1 237.6 201.1C238 201.1 238.3 200.9 238.3 200.6C238.3 200.3 238.1 200.1 237.7 200C237.1 199.8 236.8 199.4 236.8 199C236.8 198.5 237.2 198 238 198C238.3 198 238.6 198.1 238.8 198.2L238.6 198.6C238.5 198.5 238.2 198.4 237.9 198.4C237.5 198.4 237.3 198.6 237.3 198.9C237.3 199.2 237.5 199.3 237.9 199.5C238.5 199.7 238.8 200 238.8 200.5C238.8 201.1 238.3 201.5 237.5 201.5C237.1 201.5 236.8 201.4 236.6 201.3L236.8 200.9Z" fill="#0074BC"/>
<path d="M240 200.002C240 200.802 240.5 201.202 241.2 201.202C241.6 201.202 241.9 201.102 242.1 201.002L242.2 201.402C242 201.502 241.6 201.602 241.1 201.602C240.1 201.602 239.4 200.902 239.4 199.902C239.4 198.902 240 198.102 241 198.102C242.1 198.102 242.4 199.102 242.4 199.702C242.4 199.802 242.4 199.902 242.4 200.002H240ZM241.8 199.502C241.8 199.102 241.6 198.502 240.9 198.502C240.3 198.502 240 199.102 240 199.502H241.8Z" fill="#0074BC"/>
<path d="M243.2 199.098C243.2 198.798 243.2 198.498 243.2 198.198H243.7V198.798C243.9 198.498 244.3 198.198 244.8 198.198C245.3 198.198 246 198.498 246 199.598V201.598H245.4V199.698C245.4 199.198 245.2 198.698 244.6 198.698C244.2 198.698 243.9 198.998 243.8 199.298C243.8 199.398 243.8 199.498 243.8 199.598V201.598H243.2V199.098ZM243.8 197.598C243.8 197.098 244 196.898 244.3 196.898C244.5 196.898 244.6 196.998 244.7 197.098C244.8 197.198 244.9 197.198 245 197.198C245.1 197.198 245.2 197.098 245.2 196.898H245.5C245.5 197.398 245.3 197.598 245 197.598C244.9 197.598 244.7 197.498 244.6 197.498C244.5 197.398 244.4 197.398 244.3 197.398C244.2 197.398 244.1 197.498 244.1 197.698H243.8V197.598Z" fill="#0074BC"/>
<path d="M248.9 201.5V201.1C248.7 201.4 248.3 201.6 247.9 201.6C247.2 201.6 246.9 201.1 246.9 200.6C246.9 199.8 247.6 199.3 248.9 199.3V199.2C248.9 198.9 248.8 198.4 248.1 198.4C247.8 198.4 247.5 198.5 247.2 198.7L247.1 198.3C247.4 198.1 247.8 198 248.2 198C249.2 198 249.5 198.7 249.5 199.4V200.7C249.5 201 249.5 201.3 249.6 201.5H248.9ZM248.8 199.8C248.1 199.8 247.4 199.9 247.4 200.6C247.4 201 247.7 201.2 248 201.2C248.4 201.2 248.7 200.9 248.8 200.6C248.8 200.5 248.8 200.5 248.8 200.4V199.8Z" fill="#0074BC"/>
<path d="M250.9 200.199V199.999C250.9 199.599 251 199.199 251.3 198.799C251.6 198.399 251.8 198.199 251.8 197.799C251.8 197.399 251.6 197.199 251.1 197.199C250.8 197.199 250.6 197.299 250.4 197.399L250.2 196.999C250.4 196.799 250.8 196.699 251.2 196.699C252 196.699 252.4 197.199 252.4 197.699C252.4 198.199 252.1 198.499 251.8 198.899C251.5 199.299 251.4 199.599 251.4 199.899V200.099H250.9V200.199ZM250.7 201.199C250.7 200.899 250.9 200.799 251.1 200.799C251.3 200.799 251.5 200.999 251.5 201.199C251.5 201.399 251.3 201.599 251.1 201.599C250.9 201.599 250.7 201.399 250.7 201.199Z" fill="#0074BC"/>
<path d="M265.4 61.0977H126.6V85.6977H265.4V61.0977Z" fill="white"/>
<path d="M265.4 85.6992H126.6V86.6992H265.4V85.6992Z" fill="#929292"/>
<path d="M134.9 65.8984H133.6V65.3984H136.7V65.8984H135.4V69.5984H134.9V65.8984Z" fill="#726E6E"/>
<path d="M137.7 65.6984C137.7 65.8984 137.6 65.9984 137.4 65.9984C137.2 65.9984 137.1 65.8984 137.1 65.6984C137.1 65.4984 137.2 65.3984 137.4 65.3984C137.6 65.3984 137.7 65.4984 137.7 65.6984ZM137.1 69.5984V66.5984H137.6V69.5984H137.1Z" fill="#726E6E"/>
<path d="M138.6 67.4984C138.6 67.0984 138.6 66.7984 138.6 66.4984H139.1V66.9984C139.3 66.5984 139.7 66.3984 140.2 66.3984C140.9 66.3984 141.5 66.9984 141.5 67.8984C141.5 68.9984 140.8 69.4984 140.1 69.4984C139.7 69.4984 139.4 69.2984 139.2 68.9984V70.5984H138.7V67.4984H138.6ZM139.1 68.2984C139.1 68.3984 139.1 68.4984 139.1 68.4984C139.2 68.8984 139.5 69.0984 139.9 69.0984C140.5 69.0984 140.8 68.5984 140.8 67.8984C140.8 67.2984 140.5 66.7984 139.9 66.7984C139.5 66.7984 139.2 67.0984 139.1 67.4984C139.1 67.5984 139.1 67.5984 139.1 67.6984V68.2984Z" fill="#726E6E"/>
<path d="M144.8 68C144.8 69.1 144 69.6 143.3 69.6C142.5 69.6 141.9 69 141.9 68.1C141.9 67.1 142.6 66.5 143.4 66.5C144.2 66.5 144.8 67.1 144.8 68ZM142.4 68.1C142.4 68.8 142.8 69.3 143.3 69.3C143.8 69.3 144.2 68.8 144.2 68.1C144.2 67.6 143.9 66.9 143.3 66.9C142.7 66.9 142.4 67.5 142.4 68.1Z" fill="#726E6E"/>
<path d="M149.4 65.1992V68.7992C149.4 69.0992 149.4 69.3992 149.4 69.5992H148.9V69.0992C148.7 69.3992 148.4 69.6992 147.9 69.6992C147.2 69.6992 146.6 69.0992 146.6 68.1992C146.6 67.1992 147.2 66.5992 147.9 66.5992C148.4 66.5992 148.7 66.7992 148.8 67.0992V65.2992H149.4V65.1992ZM148.9 67.7992C148.9 67.6992 148.9 67.5992 148.9 67.5992C148.8 67.2992 148.5 66.9992 148.1 66.9992C147.5 66.9992 147.2 67.4992 147.2 68.1992C147.2 68.7992 147.5 69.2992 148.1 69.2992C148.5 69.2992 148.8 69.0992 148.9 68.5992C148.9 68.4992 148.9 68.4992 148.9 68.3992V67.7992Z" fill="#726E6E"/>
<path d="M150.6 68.2C150.6 68.9 151.1 69.2 151.6 69.2C152 69.2 152.2 69.1 152.4 69L152.5 69.4C152.3 69.5 152 69.6 151.5 69.6C150.6 69.6 150 69 150 68.1C150 67.2 150.5 66.5 151.4 66.5C152.4 66.5 152.6 67.4 152.6 67.9C152.6 68 152.6 68.1 152.6 68.2H150.6ZM152.2 67.8C152.2 67.5 152.1 66.9 151.4 66.9C150.8 66.9 150.6 67.4 150.6 67.8H152.2Z" fill="#726E6E"/>
<path d="M157.3 65.1992V68.7992C157.3 69.0992 157.3 69.3992 157.3 69.5992H156.8V69.0992C156.6 69.3992 156.3 69.6992 155.8 69.6992C155.1 69.6992 154.5 69.0992 154.5 68.1992C154.5 67.1992 155.1 66.5992 155.8 66.5992C156.3 66.5992 156.6 66.7992 156.7 67.0992V65.2992H157.3V65.1992ZM156.8 67.7992C156.8 67.6992 156.8 67.5992 156.8 67.5992C156.7 67.2992 156.4 66.9992 156 66.9992C155.4 66.9992 155.1 67.4992 155.1 68.1992C155.1 68.7992 155.4 69.2992 156 69.2992C156.4 69.2992 156.7 69.0992 156.8 68.5992C156.8 68.4992 156.8 68.4992 156.8 68.3992V67.7992Z" fill="#726E6E"/>
<path d="M160.9 68C160.9 69.1 160.1 69.6 159.4 69.6C158.6 69.6 158 69 158 68.1C158 67.1 158.7 66.5 159.5 66.5C160.3 66.5 160.9 67.1 160.9 68ZM158.6 68.1C158.6 68.8 159 69.3 159.5 69.3C160 69.3 160.4 68.8 160.4 68.1C160.4 67.6 160.1 66.9 159.5 66.9C158.9 66.9 158.6 67.5 158.6 68.1Z" fill="#726E6E"/>
<path d="M163.8 69.4977C163.7 69.5977 163.3 69.6977 162.9 69.6977C162 69.6977 161.4 69.0977 161.4 68.1977C161.4 67.2977 162 66.5977 163 66.5977C163.3 66.5977 163.6 66.6977 163.8 66.7977L163.7 67.1977C163.6 67.0977 163.4 67.0977 163.1 67.0977C162.4 67.0977 162 67.5977 162 68.1977C162 68.8977 162.4 69.2977 163 69.2977C163.3 69.2977 163.5 69.1977 163.7 69.1977L163.8 69.4977Z" fill="#726E6E"/>
<path d="M166.9 68.7977C166.9 69.0977 166.9 69.3977 166.9 69.5977H166.4V69.0977C166.3 69.2977 165.9 69.6977 165.4 69.6977C164.9 69.6977 164.4 69.3977 164.4 68.3977V66.5977H164.9V68.2977C164.9 68.8977 165.1 69.2977 165.6 69.2977C166 69.2977 166.2 68.9977 166.3 68.7977C166.3 68.6977 166.3 68.5977 166.3 68.4977V66.6977H166.8V68.7977H166.9Z" fill="#726E6E"/>
<path d="M167.8 67.4C167.8 67.1 167.8 66.8 167.8 66.6H168.3V67.1C168.5 66.8 168.7 66.5 169.2 66.5C169.6 66.5 169.9 66.7 170 67.1C170.1 66.9 170.2 66.8 170.3 66.7C170.5 66.6 170.7 66.5 171 66.5C171.4 66.5 172 66.8 172 67.8V69.6H171.5V67.9C171.5 67.3 171.3 67 170.8 67C170.5 67 170.2 67.2 170.2 67.5C170.2 67.6 170.2 67.7 170.2 67.8V69.7H169.7V67.9C169.7 67.4 169.5 67.1 169.1 67.1C168.8 67.1 168.5 67.4 168.4 67.6C168.4 67.7 168.4 67.8 168.4 67.9V69.7H167.9V67.4H167.8Z" fill="#726E6E"/>
<path d="M173.3 68.2C173.3 68.9 173.8 69.2 174.3 69.2C174.7 69.2 174.9 69.1 175.1 69L175.2 69.4C175 69.5 174.7 69.6 174.2 69.6C173.3 69.6 172.7 69 172.7 68.1C172.7 67.2 173.2 66.5 174.1 66.5C175.1 66.5 175.3 67.4 175.3 67.9C175.3 68 175.3 68.1 175.3 68.2H173.3ZM174.9 67.8C174.9 67.5 174.8 66.9 174.1 66.9C173.5 66.9 173.3 67.4 173.3 67.8H174.9Z" fill="#726E6E"/>
<path d="M176.1 67.4C176.1 67.1 176.1 66.8 176.1 66.6H176.6V67.1C176.7 66.8 177.1 66.5 177.6 66.5C178 66.5 178.7 66.7 178.7 67.8V69.6H178.2V67.9C178.2 67.4 178 67 177.5 67C177.1 67 176.9 67.3 176.8 67.6C176.8 67.7 176.8 67.8 176.8 67.9V69.7H176.3V67.4H176.1Z" fill="#726E6E"/>
<path d="M180.1 65.6992V66.5992H180.9V66.9992H180.1V68.5992C180.1 68.9992 180.2 69.1992 180.5 69.1992C180.6 69.1992 180.7 69.1992 180.8 69.1992V69.5992C180.7 69.5992 180.5 69.6992 180.3 69.6992C180 69.6992 179.8 69.5992 179.7 69.4992C179.5 69.2992 179.5 69.0992 179.5 68.6992V66.9992H179V66.5992H179.5V65.8992L180.1 65.6992Z" fill="#726E6E"/>
<path d="M184.2 68C184.2 69.1 183.4 69.6 182.7 69.6C181.9 69.6 181.3 69 181.3 68.1C181.3 67.1 182 66.5 182.8 66.5C183.6 66.5 184.2 67.1 184.2 68ZM181.8 68.1C181.8 68.8 182.2 69.3 182.7 69.3C183.2 69.3 183.6 68.8 183.6 68.1C183.6 67.6 183.3 66.9 182.7 66.9C182.1 66.9 181.8 67.5 181.8 68.1Z" fill="#726E6E"/>
<path d="M134.1 75.9984C134.4 75.9984 134.8 75.8984 135.2 75.8984C136 75.8984 136.5 76.0984 136.9 76.3984C137.3 76.6984 137.5 77.1984 137.5 77.8984C137.5 78.5984 137.3 79.0984 136.9 79.4984C136.5 79.8984 135.9 80.0984 135.1 80.0984C134.7 80.0984 134.4 80.0984 134.1 80.0984V75.9984ZM134.7 79.6984C134.8 79.6984 135 79.6984 135.2 79.6984C136.4 79.6984 137 79.0984 137 77.8984C137 76.8984 136.4 76.2984 135.3 76.2984C135 76.2984 134.8 76.2984 134.7 76.3984V79.6984Z" fill="#726E6E"/>
<path d="M138.3 80.0984V75.8984H138.9L140.2 77.9984C140.5 78.4984 140.8 78.8984 141 79.3984C141 78.7984 140.9 78.2984 140.9 77.6984V75.9984H141.4V80.1984H140.9L139.6 78.0984C139.3 77.5984 139 77.1984 138.8 76.6984C138.8 77.1984 138.8 77.6984 138.8 78.3984V80.1984H138.3V80.0984Z" fill="#726E6E"/>
<path d="M142.9 75.8984V80.0984H142.4V75.8984H142.9Z" fill="#726E6E"/>
<path d="M251.7 75.0961C251.6 75.0961 251.5 75.0961 251.4 74.9961L248.9 72.4961C248.7 72.2961 248.7 72.0961 248.9 71.8961C249.1 71.6961 249.3 71.6961 249.5 71.8961L251.7 74.0961L253.9 71.8961C254.1 71.6961 254.3 71.6961 254.5 71.8961C254.7 72.0961 254.7 72.2961 254.5 72.4961L252 74.9961C251.9 75.0961 251.8 75.0961 251.7 75.0961Z" fill="#0074BC"/>
<path d="M265.4 155.098H126.6V179.698H265.4V155.098Z" fill="white"/>
<path d="M265.4 179.699H126.6V180.699H265.4V179.699Z" fill="#929292"/>
<path d="M137.8 169.799C137.6 169.899 137.1 169.999 136.5 169.999C135.1 169.999 134 169.099 134 167.399C134 165.799 135.1 164.699 136.7 164.699C137.3 164.699 137.7 164.799 137.9 164.899L137.7 165.399C137.5 165.299 137.1 165.199 136.7 165.199C135.5 165.199 134.7 165.999 134.7 167.299C134.7 168.499 135.4 169.399 136.7 169.399C137.1 169.399 137.5 169.299 137.8 169.199V169.799Z" fill="#726E6E"/>
<path d="M141.8 168.099C141.8 169.499 140.9 169.999 140 169.999C139 169.999 138.2 169.299 138.2 168.099C138.2 166.899 139 166.199 140 166.199C141.1 166.199 141.8 166.999 141.8 168.099ZM138.9 168.099C138.9 168.899 139.4 169.499 140 169.499C140.6 169.499 141.1 168.899 141.1 168.099C141.1 167.499 140.8 166.699 140 166.699C139.2 166.699 138.9 167.499 138.9 168.099Z" fill="#726E6E"/>
<path d="M142.7 167.299C142.7 166.899 142.7 166.599 142.7 166.299H143.3V166.899C143.5 166.599 143.9 166.199 144.5 166.199C145 166.199 145.8 166.499 145.8 167.799V169.999H145.1V167.899C145.1 167.299 144.9 166.799 144.3 166.799C143.9 166.799 143.5 167.099 143.4 167.499C143.4 167.599 143.4 167.699 143.4 167.799V169.999H142.7V167.299Z" fill="#726E6E"/>
<path d="M147.7 165.301V166.401H148.7V166.901H147.7V168.901C147.7 169.401 147.8 169.601 148.2 169.601C148.4 169.601 148.5 169.601 148.6 169.601V170.101C148.5 170.201 148.3 170.201 148 170.201C147.7 170.201 147.4 170.101 147.3 169.901C147.1 169.701 147 169.401 147 168.901V166.901H146.4V166.401H147V165.501L147.7 165.301Z" fill="#726E6E"/>
<path d="M149.4 167.501C149.4 167.101 149.4 166.701 149.4 166.401H150V167.101C150.2 166.601 150.6 166.301 151 166.301C151.1 166.301 151.1 166.301 151.2 166.301V166.901C151.1 166.901 151.1 166.901 151 166.901C150.5 166.901 150.2 167.301 150.1 167.801C150.1 167.901 150.1 168.001 150.1 168.101V170.101H149.4V167.501Z" fill="#726E6E"/>
<path d="M153.8 169.999L153.7 169.499C153.5 169.799 153.1 169.999 152.6 169.999C151.9 169.999 151.5 169.499 151.5 168.899C151.5 167.999 152.3 167.499 153.7 167.499V167.399C153.7 167.099 153.6 166.599 152.9 166.599C152.6 166.599 152.2 166.699 151.9 166.899L151.7 166.499C152 166.299 152.4 166.199 152.9 166.199C154 166.199 154.3 166.999 154.3 167.699V169.099C154.3 169.399 154.3 169.699 154.4 169.999H153.8ZM153.7 168.099C153 168.099 152.1 168.199 152.1 168.899C152.1 169.299 152.4 169.499 152.7 169.499C153.2 169.499 153.5 169.199 153.6 168.899C153.6 168.799 153.6 168.799 153.6 168.699V168.099H153.7Z" fill="#726E6E"/>
<path d="M155.4 169.301C155.6 169.401 155.9 169.601 156.3 169.601C156.8 169.601 157 169.401 157 169.101C157 168.801 156.8 168.601 156.3 168.401C155.6 168.201 155.3 167.801 155.3 167.401C155.3 166.801 155.8 166.301 156.6 166.301C157 166.301 157.3 166.401 157.5 166.501L157.3 167.001C157.2 166.901 156.9 166.801 156.6 166.801C156.2 166.801 156 167.001 156 167.301C156 167.601 156.2 167.701 156.7 167.901C157.3 168.101 157.7 168.501 157.7 169.001C157.7 169.601 157.2 170.101 156.3 170.101C155.9 170.101 155.5 170.001 155.3 169.801L155.4 169.301Z" fill="#726E6E"/>
<path d="M158.8 168.301C158.8 169.201 159.4 169.601 160.1 169.601C160.6 169.601 160.9 169.501 161.1 169.401L161.2 169.901C161 170.001 160.6 170.101 160 170.101C158.9 170.101 158.2 169.401 158.2 168.301C158.2 167.201 158.9 166.301 159.9 166.301C161.1 166.301 161.4 167.401 161.4 168.001C161.4 168.101 161.4 168.201 161.4 168.301H158.8ZM160.8 167.801C160.8 167.401 160.6 166.701 159.9 166.701C159.2 166.701 158.9 167.301 158.9 167.801H160.8Z" fill="#726E6E"/>
<path d="M162.2 167.298C162.2 166.898 162.2 166.598 162.2 166.298H162.8V166.898C163 166.598 163.4 166.198 164 166.198C164.5 166.198 165.3 166.498 165.3 167.798V169.998H164.6V167.898C164.6 167.298 164.4 166.798 163.8 166.798C163.4 166.798 163 167.098 162.9 167.498C162.9 167.598 162.9 167.698 162.9 167.798V169.998H162.2V167.298ZM162.9 165.698C162.9 165.198 163.1 164.898 163.4 164.898C163.6 164.898 163.7 164.998 163.9 165.098C164 165.198 164.1 165.198 164.2 165.198C164.3 165.198 164.4 165.098 164.4 164.898H164.8C164.8 165.398 164.6 165.698 164.3 165.698C164.1 165.698 164 165.598 163.8 165.498C163.6 165.398 163.6 165.398 163.5 165.398C163.4 165.398 163.3 165.498 163.3 165.698H162.9Z" fill="#726E6E"/>
<path d="M168.5 169.999L168.4 169.499C168.2 169.799 167.8 169.999 167.3 169.999C166.6 169.999 166.2 169.499 166.2 168.899C166.2 167.999 167 167.499 168.4 167.499V167.399C168.4 167.099 168.3 166.599 167.6 166.599C167.3 166.599 166.9 166.699 166.6 166.899L166.4 166.499C166.7 166.299 167.1 166.199 167.6 166.199C168.7 166.199 169 166.999 169 167.699V169.099C169 169.399 169 169.699 169.1 169.999H168.5ZM168.4 168.099C167.7 168.099 166.8 168.199 166.8 168.899C166.8 169.299 167.1 169.499 167.4 169.499C167.9 169.499 168.2 169.199 168.3 168.899C168.3 168.799 168.3 168.799 168.3 168.699V168.099H168.4Z" fill="#726E6E"/>
<path d="M174.9 164.6V169C174.9 169.3 174.9 169.7 174.9 169.9H174.3V169.3C174.1 169.7 173.6 170 173.1 170C172.2 170 171.5 169.3 171.5 168.1C171.5 166.9 172.2 166.1 173.1 166.1C173.7 166.1 174 166.4 174.2 166.7V164.5H174.9V164.6ZM174.2 167.8C174.2 167.7 174.2 167.6 174.2 167.5C174.1 167.1 173.7 166.7 173.2 166.7C172.5 166.7 172.1 167.3 172.1 168.1C172.1 168.8 172.5 169.5 173.2 169.5C173.6 169.5 174.1 169.2 174.2 168.7C174.2 168.6 174.2 168.5 174.2 168.4V167.8Z" fill="#726E6E"/>
<path d="M176.3 168.301C176.3 169.201 176.9 169.601 177.6 169.601C178.1 169.601 178.4 169.501 178.6 169.401L178.7 169.901C178.5 170.001 178.1 170.101 177.5 170.101C176.4 170.101 175.7 169.401 175.7 168.301C175.7 167.201 176.4 166.301 177.4 166.301C178.6 166.301 178.9 167.401 178.9 168.001C178.9 168.101 178.9 168.201 178.9 168.301H176.3ZM178.3 167.801C178.3 167.401 178.1 166.701 177.4 166.701C176.7 166.701 176.4 167.301 176.4 167.801H178.3Z" fill="#726E6E"/>
<path d="M181.4 164.901C181.7 164.801 182.1 164.801 182.6 164.801C183.3 164.801 183.7 164.901 184 165.201C184.3 165.401 184.4 165.701 184.4 166.101C184.4 166.601 184.1 167.001 183.5 167.201C184 167.301 184.6 167.701 184.6 168.501C184.6 168.901 184.4 169.301 184.2 169.501C183.8 169.801 183.3 170.001 182.4 170.001C181.9 170.001 181.6 170.001 181.4 169.901V164.901ZM182 167.001H182.6C183.3 167.001 183.7 166.601 183.7 166.101C183.7 165.501 183.2 165.301 182.6 165.301C182.3 165.301 182.1 165.301 182 165.301V167.001ZM182 169.501C182.1 169.501 182.3 169.501 182.6 169.501C183.3 169.501 183.9 169.201 183.9 168.501C183.9 167.801 183.3 167.501 182.6 167.501H182V169.501Z" fill="#726E6E"/>
<path d="M187.5 169.999L187.4 169.499C187.2 169.799 186.8 169.999 186.3 169.999C185.6 169.999 185.2 169.499 185.2 168.899C185.2 167.999 186 167.499 187.4 167.499V167.399C187.4 167.099 187.3 166.599 186.6 166.599C186.3 166.599 185.9 166.699 185.6 166.899L185.4 166.499C185.7 166.299 186.1 166.199 186.6 166.199C187.7 166.199 188 166.999 188 167.699V169.099C188 169.399 188 169.699 188.1 169.999H187.5ZM187.4 168.099C186.7 168.099 185.8 168.199 185.8 168.899C185.8 169.299 186.1 169.499 186.4 169.499C186.9 169.499 187.2 169.199 187.3 168.899C187.3 168.799 187.3 168.799 187.3 168.699V168.099H187.4Z" fill="#726E6E"/>
<path d="M189.1 167.299C189.1 166.899 189.1 166.599 189.1 166.299H189.7V166.899C189.9 166.599 190.3 166.199 190.9 166.199C191.4 166.199 192.2 166.499 192.2 167.799V169.999H191.5V167.899C191.5 167.299 191.3 166.799 190.7 166.799C190.3 166.799 189.9 167.099 189.8 167.499C189.8 167.599 189.8 167.699 189.8 167.799V169.999H189.1V167.299Z" fill="#726E6E"/>
<path d="M195.9 169.799C195.7 169.899 195.3 169.999 194.8 169.999C193.7 169.999 193 169.299 193 168.099C193 166.999 193.8 166.199 195 166.199C195.4 166.199 195.7 166.299 195.9 166.399L195.7 166.899C195.5 166.799 195.3 166.699 194.9 166.699C194.1 166.699 193.6 167.299 193.6 168.099C193.6 168.899 194.1 169.499 194.9 169.499C195.3 169.499 195.5 169.399 195.7 169.299L195.9 169.799Z" fill="#726E6E"/>
<path d="M198.7 169.999L198.6 169.499C198.4 169.799 198 169.999 197.5 169.999C196.8 169.999 196.4 169.499 196.4 168.899C196.4 167.999 197.2 167.499 198.6 167.499V167.399C198.6 167.099 198.5 166.599 197.8 166.599C197.5 166.599 197.1 166.699 196.8 166.899L196.6 166.499C196.9 166.299 197.3 166.199 197.8 166.199C198.9 166.199 199.2 166.999 199.2 167.699V169.099C199.2 169.399 199.2 169.699 199.3 169.999H198.7ZM198.6 168.099C197.9 168.099 197 168.199 197 168.899C197 169.299 197.3 169.499 197.6 169.499C198.1 169.499 198.4 169.199 198.5 168.899C198.5 168.799 198.5 168.799 198.5 168.699V168.099H198.6Z" fill="#726E6E"/>
<path d="M202 167.499C202 166.999 202 166.699 202 166.299H202.6V166.899C202.9 166.499 203.3 166.199 203.9 166.199C204.8 166.199 205.5 166.899 205.5 168.099C205.5 169.399 204.7 170.099 203.8 170.099C203.3 170.099 202.9 169.899 202.7 169.499V171.499H202V167.499ZM202.6 168.499C202.6 168.599 202.6 168.699 202.6 168.799C202.7 169.299 203.1 169.599 203.6 169.599C204.3 169.599 204.7 168.999 204.7 168.199C204.7 167.499 204.3 166.799 203.6 166.799C203.1 166.799 202.7 167.099 202.6 167.599C202.6 167.699 202.6 167.799 202.6 167.899V168.499Z" fill="#726E6E"/>
<path d="M209.6 168.099C209.6 169.499 208.7 169.999 207.8 169.999C206.8 169.999 206 169.299 206 168.099C206 166.899 206.8 166.199 207.8 166.199C208.9 166.199 209.6 166.999 209.6 168.099ZM206.7 168.099C206.7 168.899 207.2 169.499 207.8 169.499C208.4 169.499 208.9 168.899 208.9 168.099C208.9 167.499 208.6 166.699 207.8 166.699C207 166.699 206.7 167.499 206.7 168.099Z" fill="#726E6E"/>
<path d="M210.4 167.299C210.4 166.899 210.4 166.599 210.4 166.299H211V166.899C211.2 166.599 211.6 166.199 212.2 166.199C212.7 166.199 213.5 166.499 213.5 167.799V169.999H212.8V167.899C212.8 167.299 212.6 166.799 212 166.799C211.6 166.799 211.2 167.099 211.1 167.499C211.1 167.599 211.1 167.699 211.1 167.799V169.999H210.4V167.299Z" fill="#726E6E"/>
<path d="M216.9 164.898V169.998H216.2V164.898H216.9Z" fill="#726E6E"/>
<path d="M218.1 167.299C218.1 166.899 218.1 166.599 218.1 166.299H218.7V166.899C218.9 166.599 219.3 166.199 219.9 166.199C220.4 166.199 221.2 166.499 221.2 167.799V169.999H220.5V167.899C220.5 167.299 220.3 166.799 219.7 166.799C219.3 166.799 218.9 167.099 218.8 167.499C218.8 167.599 218.8 167.699 218.8 167.799V169.999H218.1V167.299Z" fill="#726E6E"/>
<path d="M223.1 165.301V166.401H224.1V166.901H223.1V168.901C223.1 169.401 223.2 169.601 223.6 169.601C223.8 169.601 223.9 169.601 224 169.601V170.101C223.9 170.201 223.7 170.201 223.4 170.201C223.1 170.201 222.8 170.101 222.7 169.901C222.5 169.701 222.4 169.401 222.4 168.901V166.901H221.8V166.401H222.4V165.501L223.1 165.301Z" fill="#726E6E"/>
<path d="M225.1 168.301C225.1 169.201 225.7 169.601 226.4 169.601C226.9 169.601 227.2 169.501 227.4 169.401L227.5 169.901C227.3 170.001 226.9 170.101 226.3 170.101C225.2 170.101 224.5 169.401 224.5 168.301C224.5 167.201 225.2 166.301 226.2 166.301C227.4 166.301 227.7 167.401 227.7 168.001C227.7 168.101 227.7 168.201 227.7 168.301H225.1ZM227.1 167.801C227.1 167.401 226.9 166.701 226.2 166.701C225.5 166.701 225.2 167.301 225.2 167.801H227.1Z" fill="#726E6E"/>
<path d="M228.5 167.501C228.5 167.101 228.5 166.701 228.5 166.401H229.1V167.101C229.3 166.601 229.7 166.301 230.1 166.301C230.2 166.301 230.2 166.301 230.3 166.301V166.901C230.2 166.901 230.2 166.901 230.1 166.901C229.6 166.901 229.3 167.301 229.2 167.801C229.2 167.901 229.2 168.001 229.2 168.101V170.101H228.5V167.501Z" fill="#726E6E"/>
<path d="M231 167.299C231 166.899 231 166.599 231 166.299H231.6V166.899C231.8 166.599 232.2 166.199 232.8 166.199C233.3 166.199 234.1 166.499 234.1 167.799V169.999H233.4V167.899C233.4 167.299 233.2 166.799 232.6 166.799C232.2 166.799 231.8 167.099 231.7 167.499C231.7 167.599 231.7 167.699 231.7 167.799V169.999H231V167.299Z" fill="#726E6E"/>
<path d="M235.6 168.301C235.6 169.201 236.2 169.601 236.9 169.601C237.4 169.601 237.7 169.501 237.9 169.401L238 169.901C237.8 170.001 237.4 170.101 236.8 170.101C235.7 170.101 235 169.401 235 168.301C235 167.201 235.7 166.301 236.7 166.301C237.9 166.301 238.2 167.401 238.2 168.001C238.2 168.101 238.2 168.201 238.2 168.301H235.6ZM237.6 167.801C237.6 167.401 237.4 166.701 236.7 166.701C236 166.701 235.7 167.301 235.7 167.801H237.6Z" fill="#726E6E"/>
<path d="M239.8 165.301V166.401H240.8V166.901H239.8V168.901C239.8 169.401 239.9 169.601 240.3 169.601C240.5 169.601 240.6 169.601 240.7 169.601V170.101C240.6 170.201 240.4 170.201 240.1 170.201C239.8 170.201 239.5 170.101 239.4 169.901C239.2 169.701 239.1 169.401 239.1 168.901V166.901H238.5V166.401H239.1V165.501L239.8 165.301Z" fill="#726E6E"/>
<path d="M141.8 132.6C142.1 132.5 142.6 132.5 143 132.5C143.7 132.5 144.1 132.6 144.4 132.9C144.6 133.1 144.8 133.4 144.8 133.8C144.8 134.4 144.4 134.8 143.9 135C144.3 135.1 144.5 135.5 144.6 136C144.8 136.7 144.9 137.1 145 137.3H144.4C144.3 137.2 144.2 136.8 144.1 136.2C144 135.5 143.7 135.3 143.1 135.3H142.5V137.4H141.9V132.6H141.8ZM142.4 134.8H143C143.7 134.8 144.1 134.4 144.1 133.9C144.1 133.3 143.7 133 143 133C142.7 133 142.5 133 142.4 133.1V134.8Z" fill="#726E6E"/>
<path d="M146 135.699C146 136.499 146.6 136.899 147.2 136.899C147.6 136.899 147.9 136.799 148.2 136.699L148.3 137.099C148.1 137.199 147.7 137.299 147.2 137.299C146.1 137.299 145.5 136.599 145.5 135.599C145.5 134.599 146.1 133.699 147.1 133.699C148.2 133.699 148.5 134.699 148.5 135.299C148.5 135.399 148.5 135.499 148.5 135.599H146V135.699ZM147.8 135.299C147.8 134.899 147.6 134.299 146.9 134.299C146.3 134.299 146 134.899 145.9 135.299H147.8Z" fill="#726E6E"/>
<path d="M151.6 137.201C151.4 137.301 151.1 137.401 150.6 137.401C149.6 137.401 148.9 136.701 148.9 135.601C148.9 134.501 149.6 133.801 150.7 133.801C151.1 133.801 151.4 133.901 151.6 134.001L151.5 134.501C151.4 134.401 151.1 134.301 150.8 134.301C150 134.301 149.6 134.901 149.6 135.601C149.6 136.401 150.1 136.901 150.8 136.901C151.2 136.901 151.4 136.801 151.6 136.701V137.201Z" fill="#726E6E"/>
<path d="M155.4 135.601C155.4 136.901 154.5 137.401 153.7 137.401C152.8 137.401 152.1 136.701 152.1 135.601C152.1 134.501 152.9 133.801 153.8 133.801C154.7 133.801 155.4 134.601 155.4 135.601ZM152.7 135.601C152.7 136.401 153.1 136.901 153.7 136.901C154.3 136.901 154.7 136.301 154.7 135.601C154.7 135.001 154.4 134.301 153.7 134.301C153 134.301 152.7 135.001 152.7 135.601Z" fill="#726E6E"/>
<path d="M156.2 135.001C156.2 134.601 156.2 134.201 156.2 133.901H156.7V134.601C156.9 134.101 157.2 133.801 157.7 133.801C157.8 133.801 157.8 133.801 157.9 133.801V134.401C157.8 134.401 157.8 134.401 157.7 134.401C157.3 134.401 156.9 134.701 156.9 135.201C156.9 135.301 156.9 135.401 156.9 135.501V137.301H156.3V135.001H156.2Z" fill="#726E6E"/>
<path d="M161.4 132.301V136.501C161.4 136.801 161.4 137.201 161.4 137.401H160.8V136.801C160.6 137.201 160.2 137.501 159.6 137.501C158.8 137.501 158.1 136.801 158.1 135.801C158.1 134.701 158.8 134.001 159.6 134.001C160.1 134.001 160.5 134.201 160.6 134.501V132.401H161.4V132.301ZM160.8 135.301C160.8 135.201 160.8 135.101 160.8 135.001C160.7 134.601 160.4 134.301 159.9 134.301C159.3 134.301 158.9 134.901 158.9 135.601C158.9 136.301 159.2 136.901 159.9 136.901C160.3 136.901 160.7 136.601 160.8 136.201C160.8 136.101 160.8 136.001 160.8 135.901V135.301Z" fill="#726E6E"/>
<path d="M164.3 137.301V136.901C164.1 137.201 163.7 137.401 163.3 137.401C162.6 137.401 162.3 136.901 162.3 136.401C162.3 135.601 163 135.101 164.4 135.101V135.001C164.4 134.701 164.3 134.201 163.6 134.201C163.3 134.201 162.9 134.301 162.7 134.501L162.6 134.101C162.9 133.901 163.3 133.801 163.7 133.801C164.7 133.801 165 134.501 165 135.201V136.501C165 136.801 165 137.101 165.1 137.301H164.3ZM164.2 135.601C163.5 135.601 162.7 135.701 162.7 136.401C162.7 136.801 163 137.001 163.3 137.001C163.7 137.001 164 136.701 164.1 136.401C164.1 136.301 164.1 136.301 164.1 136.201V135.601H164.2Z" fill="#726E6E"/>
<path d="M165.8 135.001C165.8 134.601 165.8 134.201 165.8 133.901H166.3V134.601C166.5 134.101 166.8 133.801 167.3 133.801C167.4 133.801 167.4 133.801 167.5 133.801V134.401C167.4 134.401 167.4 134.401 167.3 134.401C166.9 134.401 166.5 134.701 166.5 135.201C166.5 135.301 166.5 135.401 166.5 135.501V137.301H165.9V135.001H165.8Z" fill="#726E6E"/>
<path d="M172.6 132.301V136.501C172.6 136.801 172.6 137.201 172.6 137.401H172V136.801C171.8 137.201 171.4 137.501 170.8 137.501C170 137.501 169.3 136.801 169.3 135.801C169.3 134.701 170 134.001 170.8 134.001C171.3 134.001 171.7 134.201 171.8 134.501V132.401H172.6V132.301ZM172 135.301C172 135.201 172 135.101 172 135.001C171.9 134.601 171.6 134.301 171.1 134.301C170.5 134.301 170.1 134.901 170.1 135.601C170.1 136.301 170.4 136.901 171.1 136.901C171.5 136.901 171.9 136.601 172 136.201C172 136.101 172 136.001 172 135.901V135.301Z" fill="#726E6E"/>
<path d="M176.8 135.601C176.8 136.901 175.9 137.401 175.1 137.401C174.2 137.401 173.5 136.701 173.5 135.601C173.5 134.501 174.3 133.801 175.2 133.801C176.1 133.801 176.8 134.601 176.8 135.601ZM174 135.601C174 136.401 174.4 136.901 175 136.901C175.6 136.901 176 136.301 176 135.601C176 135.001 175.7 134.301 175 134.301C174.3 134.301 174 135.001 174 135.601Z" fill="#726E6E"/>
<path d="M180 137.201C179.8 137.301 179.5 137.401 179 137.401C178 137.401 177.3 136.701 177.3 135.601C177.3 134.501 178 133.801 179.1 133.801C179.5 133.801 179.8 133.901 180 134.001L179.9 134.501C179.8 134.401 179.5 134.301 179.2 134.301C178.4 134.301 178 134.901 178 135.601C178 136.401 178.5 136.901 179.2 136.901C179.6 136.901 179.8 136.801 180 136.701V137.201Z" fill="#726E6E"/>
<path d="M183.6 136.401C183.6 136.801 183.6 137.101 183.6 137.301H183V136.701C182.8 137.001 182.5 137.301 181.9 137.301C181.4 137.301 180.7 137.001 180.7 135.801V133.801H181.3V135.701C181.3 136.401 181.5 136.801 182.1 136.801C182.5 136.801 182.8 136.501 182.9 136.201C182.9 136.101 183 136.001 183 135.901V133.801H183.6V136.401Z" fill="#726E6E"/>
<path d="M184.6 134.802C184.6 134.402 184.6 134.202 184.6 133.902H185.1V134.502C185.3 134.202 185.6 133.902 186.2 133.902C186.7 133.902 187 134.202 187.2 134.602C187.3 134.402 187.4 134.302 187.6 134.202C187.8 134.002 188 134.002 188.4 134.002C188.9 134.002 189.5 134.302 189.5 135.502V137.502H188.9V135.602C188.9 134.902 188.7 134.502 188.2 134.502C187.8 134.502 187.6 134.802 187.5 135.102C187.5 135.202 187.5 135.302 187.5 135.402V137.502H186.9V135.402C186.9 134.902 186.7 134.502 186.2 134.502C185.8 134.502 185.5 134.802 185.4 135.102C185.4 135.202 185.4 135.302 185.4 135.402V137.502H184.8V134.802H184.6Z" fill="#726E6E"/>
<path d="M190.9 135.699C190.9 136.499 191.5 136.899 192.1 136.899C192.5 136.899 192.8 136.799 193.1 136.699L193.2 137.099C193 137.199 192.6 137.299 192.1 137.299C191 137.299 190.4 136.599 190.4 135.599C190.4 134.599 191 133.699 192 133.699C193.1 133.699 193.4 134.699 193.4 135.299C193.4 135.399 193.4 135.499 193.4 135.599H190.9V135.699ZM192.7 135.299C192.7 134.899 192.5 134.299 191.8 134.299C191.2 134.299 190.9 134.899 190.8 135.299H192.7Z" fill="#726E6E"/>
<path d="M194.1 134.802C194.1 134.402 194.1 134.202 194.1 133.902H194.7V134.502C194.9 134.202 195.3 133.902 195.8 133.902C196.3 133.902 197 134.202 197 135.402V137.502H196.4V135.502C196.4 134.902 196.2 134.502 195.6 134.502C195.2 134.502 194.9 134.802 194.8 135.102C194.8 135.202 194.8 135.302 194.8 135.402V137.502H194.2V134.802H194.1Z" fill="#726E6E"/>
<path d="M198.8 132.902V133.902H199.7V134.402H198.8V136.302C198.8 136.702 198.9 137.002 199.3 137.002C199.5 137.002 199.6 137.002 199.7 137.002V137.502C199.6 137.502 199.4 137.602 199.1 137.602C198.8 137.602 198.6 137.502 198.4 137.302C198.2 137.102 198.2 136.802 198.2 136.402V134.502H197.7V134.002H198.2V133.202L198.8 132.902Z" fill="#726E6E"/>
<path d="M203.4 135.601C203.4 136.901 202.5 137.401 201.7 137.401C200.8 137.401 200.1 136.701 200.1 135.601C200.1 134.501 200.9 133.801 201.8 133.801C202.8 133.801 203.4 134.601 203.4 135.601ZM200.7 135.601C200.7 136.401 201.1 136.901 201.7 136.901C202.3 136.901 202.7 136.301 202.7 135.601C202.7 135.001 202.4 134.301 201.7 134.301C201 134.301 200.7 135.001 200.7 135.601Z" fill="#726E6E"/>
<path d="M138.3 141.898H126.3V129.898H138.3V141.898ZM126.9 141.198H137.6V130.498H126.9V141.198Z" fill="#726E6E"/>
<path d="M211.8 139.898C214.285 139.898 216.3 137.884 216.3 135.398C216.3 132.913 214.285 130.898 211.8 130.898C209.315 130.898 207.3 132.913 207.3 135.398C207.3 137.884 209.315 139.898 211.8 139.898Z" fill="#0074BC"/>
<path d="M211.4 136.2C211.4 136 211.4 135.8 211.5 135.6C211.6 135.5 211.7 135.3 211.8 135.2C212 135.1 212.1 134.9 212.1 134.9C212.1 134.9 212.2 134.7 212.2 134.6C212.2 134.3 212.1 134.2 211.8 134.2C211.7 134.2 211.6 134.2 211.5 134.3C211.4 134.4 211.4 134.5 211.4 134.6H210.6C210.6 134.3 210.7 134 210.9 133.8C211.1 133.6 211.4 133.5 211.8 133.5C212.2 133.5 212.5 133.6 212.7 133.8C212.9 134 213 134.2 213 134.6C213 134.7 213 134.9 212.9 135C212.8 135.1 212.7 135.3 212.6 135.4L212.4 135.6C212.3 135.7 212.2 135.9 212.2 136.1V136.3H211.4V136.2ZM211.3 137C211.3 136.9 211.3 136.8 211.4 136.7C211.5 136.6 211.6 136.6 211.7 136.6C211.8 136.6 211.9 136.6 212 136.7C212.1 136.8 212.1 136.9 212.1 137C212.1 137.1 212.1 137.2 212 137.3C211.9 137.4 211.8 137.4 211.7 137.4C211.6 137.4 211.5 137.4 211.4 137.3C211.3 137.2 211.3 137.1 211.3 137Z" fill="white"/>
<path d="M254.5 175.701C251.7 175.701 249.6 172.801 249.5 172.701C249.4 172.601 249.4 172.401 249.5 172.301C249.6 172.201 251.8 169.301 254.5 169.301C257.2 169.301 259.4 172.201 259.5 172.301C259.6 172.401 259.6 172.601 259.5 172.701C259.4 172.801 257.3 175.701 254.5 175.701ZM250.2 172.501C250.7 173.101 252.5 175.101 254.5 175.101C256.5 175.101 258.3 173.201 258.8 172.501C258.3 171.901 256.5 169.901 254.5 169.901C252.5 169.901 250.7 171.901 250.2 172.501Z" fill="#726E6E"/>
<path d="M254.5 174.5C253.4 174.5 252.5 173.6 252.5 172.5C252.5 171.4 253.4 170.5 254.5 170.5C255.6 170.5 256.5 171.4 256.5 172.5C256.5 173.6 255.6 174.5 254.5 174.5ZM254.5 171.2C253.8 171.2 253.2 171.8 253.2 172.5C253.2 173.2 253.8 173.8 254.5 173.8C255.2 173.8 255.8 173.2 255.8 172.5C255.8 171.8 255.3 171.2 254.5 171.2Z" fill="#726E6E"/>
<path d="M249.7 211.598H142.4V231.998H249.7V211.598Z" fill="#0074BC"/>
<path d="M184.4 218.898V223.998H183.7V218.898H184.4Z" fill="white"/>
<path d="M185.6 221.397C185.6 220.997 185.6 220.697 185.6 220.397H186.2V220.997C186.4 220.697 186.8 220.297 187.4 220.297C187.9 220.297 188.7 220.597 188.7 221.897V224.097H188V221.997C188 221.397 187.8 220.897 187.2 220.897C186.8 220.897 186.4 221.197 186.3 221.597C186.3 221.697 186.3 221.797 186.3 221.897V224.097H185.6V221.397Z" fill="white"/>
<path d="M193 220.397C193 220.697 193 220.997 193 221.397V223.497C193 224.297 192.8 224.897 192.5 225.197C192.1 225.497 191.6 225.597 191.2 225.597C190.8 225.597 190.3 225.497 190 225.297L190.2 224.797C190.4 224.997 190.8 225.097 191.3 225.097C192 225.097 192.5 224.697 192.5 223.797V223.397C192.3 223.697 191.9 223.997 191.3 223.997C190.4 223.997 189.7 223.197 189.7 222.197C189.7 220.997 190.5 220.297 191.3 220.297C191.9 220.297 192.3 220.597 192.4 220.897V220.297H193V220.397ZM192.3 221.797C192.3 221.697 192.3 221.597 192.3 221.497C192.2 221.097 191.9 220.797 191.4 220.797C190.8 220.797 190.3 221.297 190.3 222.197C190.3 222.897 190.7 223.497 191.4 223.497C191.8 223.497 192.2 223.197 192.3 222.797C192.3 222.697 192.4 222.597 192.4 222.397V221.797H192.3Z" fill="white"/>
<path d="M194 221.497C194 221.097 194 220.697 194 220.397H194.6V221.097C194.8 220.597 195.2 220.297 195.6 220.297C195.7 220.297 195.7 220.297 195.8 220.297V220.897C195.7 220.897 195.7 220.897 195.6 220.897C195.1 220.897 194.8 221.297 194.7 221.797C194.7 221.897 194.7 221.997 194.7 222.097V224.097H194V221.497Z" fill="white"/>
<path d="M196.8 222.297C196.8 223.197 197.4 223.597 198.1 223.597C198.6 223.597 198.9 223.497 199.1 223.397L199.2 223.897C199 223.997 198.6 224.097 198 224.097C196.9 224.097 196.2 223.397 196.2 222.297C196.2 221.197 196.9 220.297 197.9 220.297C199.1 220.297 199.4 221.397 199.4 221.997C199.4 222.097 199.4 222.197 199.4 222.297H196.8ZM198.8 221.797C198.8 221.397 198.6 220.697 197.9 220.697C197.2 220.697 196.9 221.297 196.9 221.797H198.8Z" fill="white"/>
<path d="M200.1 223.297C200.3 223.397 200.6 223.597 201 223.597C201.5 223.597 201.7 223.397 201.7 223.097C201.7 222.797 201.5 222.597 201 222.397C200.3 222.197 200 221.797 200 221.397C200 220.797 200.5 220.297 201.3 220.297C201.7 220.297 202 220.397 202.2 220.497L202 220.997C201.9 220.897 201.6 220.797 201.3 220.797C200.9 220.797 200.7 220.997 200.7 221.297C200.7 221.597 200.9 221.697 201.4 221.897C202 222.097 202.4 222.497 202.4 222.997C202.4 223.597 201.9 224.097 201 224.097C200.6 224.097 200.2 223.997 200 223.797L200.1 223.297Z" fill="white"/>
<path d="M205.2 223.999L205.1 223.499C204.9 223.799 204.5 223.999 204 223.999C203.3 223.999 202.9 223.499 202.9 222.899C202.9 221.999 203.7 221.499 205.1 221.499V221.399C205.1 221.099 205 220.599 204.3 220.599C204 220.599 203.6 220.699 203.3 220.899L203.1 220.499C203.4 220.299 203.8 220.199 204.3 220.199C205.4 220.199 205.7 220.999 205.7 221.699V223.099C205.7 223.399 205.7 223.699 205.8 223.999H205.2ZM205.2 222.199C204.5 222.199 203.6 222.299 203.6 222.999C203.6 223.399 203.9 223.599 204.2 223.599C204.7 223.599 205 223.299 205.1 222.999C205.1 222.899 205.1 222.899 205.1 222.799V222.199H205.2Z" fill="white"/>
<path d="M206.9 221.497C206.9 221.097 206.9 220.697 206.9 220.397H207.5V221.097C207.7 220.597 208.1 220.297 208.5 220.297C208.6 220.297 208.6 220.297 208.7 220.297V220.897C208.6 220.897 208.6 220.897 208.5 220.897C208 220.897 207.7 221.297 207.6 221.797C207.6 221.897 207.6 221.997 207.6 222.097V224.097H206.9V221.497Z" fill="white"/>
</svg>
