<svg width="392" height="262" viewBox="0 0 392 262" fill="none" xmlns="http://www.w3.org/2000/svg">
<path d="M392 0H0V262H392V0Z" fill="#E3E3E3"/>
<path d="M310.5 30.1016H81.5V113.102H310.5V30.1016Z" fill="white"/>
<path d="M310.5 115.898H81.5V130.898H310.5V115.898Z" fill="white"/>
<path d="M310.5 134.301H81.5V207.101H310.5V134.301Z" fill="white"/>
<path d="M89.0002 39.1016V45.9016H87.7002V39.1016H89.0002Z" fill="#00B7E6"/>
<path d="M90.3003 45.9023V40.9023H91.3003L91.5003 41.6023C92.0003 41.1023 92.5003 40.9023 93.1003 40.9023C94.3003 40.9023 94.9003 41.5023 94.9003 42.7023V45.8023H93.6003V42.7023C93.6003 42.1023 93.3003 41.9023 92.8003 41.9023C92.4003 41.9023 92.0003 42.1023 91.6003 42.4023V45.9023H90.3003Z" fill="#00B7E6"/>
<path d="M96.0003 45.6008V44.6008C96.6003 44.8008 97.2003 44.9008 97.9003 44.9008C98.4003 44.9008 98.7003 44.7008 98.7003 44.4008C98.7003 44.1008 98.5003 43.9008 98.2003 43.9008H97.3003C96.3003 43.9008 95.8003 43.4008 95.8003 42.4008C95.8003 41.4008 96.5003 40.8008 98.0003 40.8008C98.6003 40.8008 99.2003 40.9008 99.8003 41.1008V42.1008C99.2003 41.9008 98.6003 41.8008 98.0003 41.8008C97.3003 41.8008 97.0003 42.0008 97.0003 42.3008C97.0003 42.6008 97.2003 42.8008 97.6003 42.8008H98.4003C99.5003 42.8008 100.1 43.3008 100.1 44.3008C100.1 45.3008 99.4003 45.9008 98.0003 45.9008C97.2003 45.9008 96.6003 45.8008 96.0003 45.6008Z" fill="#00B7E6"/>
<path d="M100.8 40.1016H101.7L101.9 40.9016H103.2V41.9016H102.1V44.2016C102.1 44.7016 102.3 44.9016 102.7 44.9016H103.2V45.9016H102.1C101.3 45.9016 100.8 45.5016 100.8 44.6016V40.1016Z" fill="#00B7E6"/>
<path d="M105.3 39.1016V40.1016H104V39.1016H105.3ZM105.3 40.9016V45.9016H104V40.9016H105.3Z" fill="#00B7E6"/>
<path d="M106.4 40.1016H107.3L107.5 40.9016H108.8V41.9016H107.7V44.2016C107.7 44.7016 107.9 44.9016 108.3 44.9016H108.8V45.9016H107.7C106.9 45.9016 106.4 45.5016 106.4 44.6016V40.1016Z" fill="#00B7E6"/>
<path d="M114.2 40.9008V45.9008H113.2L113 45.3008C112.4 45.7008 111.8 45.9008 111.2 45.9008C110.2 45.9008 109.7 45.3008 109.7 44.1008V40.9008H111V44.0008C111 44.6008 111.2 44.8008 111.7 44.8008C112.1 44.8008 112.5 44.6008 113 44.3008V40.8008H114.2V40.9008Z" fill="#00B7E6"/>
<path d="M119 45.7008C118.6 45.8008 118.2 45.8008 117.7 45.8008C115.9 45.8008 115 44.9008 115 43.2008C115 41.6008 115.9 40.8008 117.7 40.8008C118.1 40.8008 118.6 40.8008 119 40.9008V41.9008C118.6 41.8008 118.2 41.8008 117.8 41.8008C116.8 41.8008 116.3 42.3008 116.3 43.2008C116.3 44.3008 116.8 44.8008 117.8 44.8008C118.2 44.8008 118.6 44.8008 119 44.7008V45.7008Z" fill="#00B7E6"/>
<path d="M121.1 39.1016V40.1016H119.8V39.1016H121.1ZM121.1 40.9016V45.9016H119.8V40.9016H121.1Z" fill="#00B7E6"/>
<path d="M122.1 43.4023C122.1 41.7023 122.9 40.9023 124.6 40.9023C126.3 40.9023 127.1 41.7023 127.1 43.4023C127.1 45.1023 126.3 45.9023 124.6 45.9023C122.9 45.9023 122.1 45.0023 122.1 43.4023ZM124.5 44.9023C125.3 44.9023 125.7 44.4023 125.7 43.3023C125.7 42.3023 125.3 41.8023 124.5 41.8023C123.7 41.8023 123.3 42.3023 123.3 43.3023C123.3 44.4023 123.7 44.9023 124.5 44.9023Z" fill="#00B7E6"/>
<path d="M128 45.9023V40.9023H129L129.2 41.6023C129.7 41.1023 130.2 40.9023 130.8 40.9023C132 40.9023 132.6 41.5023 132.6 42.7023V45.8023H131.3V42.7023C131.3 42.1023 131 41.9023 130.5 41.9023C130.1 41.9023 129.7 42.1023 129.3 42.4023V45.9023H128Z" fill="#00B7E6"/>
<path d="M135.8 40.9023C137.3 40.9023 138.1 41.7023 138.1 43.2023C138.1 43.4023 138.1 43.6023 138.1 43.8023H134.8C134.8 44.5023 135.3 44.9023 136.3 44.9023C136.8 44.9023 137.3 44.9023 137.8 44.8023V45.8023C137.4 45.9023 136.8 45.9023 136.2 45.9023C134.4 45.9023 133.5 45.0023 133.5 43.3023C133.5 41.7023 134.2 40.9023 135.8 40.9023ZM134.7 42.9023H136.8C136.8 42.2023 136.5 41.9023 135.8 41.9023C135.1 41.8023 134.8 42.2023 134.7 42.9023Z" fill="#00B7E6"/>
<path d="M139 45.6008V44.6008C139.6 44.8008 140.2 44.9008 140.9 44.9008C141.4 44.9008 141.7 44.7008 141.7 44.4008C141.7 44.1008 141.5 43.9008 141.2 43.9008H140.3C139.3 43.9008 138.8 43.4008 138.8 42.4008C138.8 41.4008 139.5 40.8008 141 40.8008C141.6 40.8008 142.2 40.9008 142.8 41.1008V42.1008C142.2 41.9008 141.6 41.8008 141 41.8008C140.3 41.8008 140 42.0008 140 42.3008C140 42.6008 140.2 42.8008 140.6 42.8008H141.4C142.5 42.8008 143.1 43.3008 143.1 44.3008C143.1 45.3008 142.4 45.9008 141 45.9008C140.2 45.9008 139.6 45.8008 139 45.6008Z" fill="#00B7E6"/>
<path d="M145.4 40.9023H146.7L148 44.5023L149.2 40.9023H150.5L148.4 46.0023C148 46.9023 147.4 47.6023 146.6 47.9023L146 47.0023C146.6 46.8023 147 46.4023 147.2 45.8023L145.4 40.9023Z" fill="#00B7E6"/>
<path d="M155.4 40.9023C156.9 40.9023 157.7 41.7023 157.7 43.2023C157.7 43.4023 157.7 43.6023 157.7 43.8023H154.4C154.4 44.5023 154.9 44.9023 155.9 44.9023C156.4 44.9023 156.9 44.9023 157.4 44.8023V45.8023C157 45.9023 156.4 45.9023 155.8 45.9023C154 45.9023 153.1 45.0023 153.1 43.3023C153.1 41.7023 153.8 40.9023 155.4 40.9023ZM154.3 42.9023H156.4C156.4 42.2023 156.1 41.9023 155.4 41.9023C154.7 41.8023 154.4 42.2023 154.3 42.9023Z" fill="#00B7E6"/>
<path d="M158.6 45.9023V40.9023H159.6L159.7 41.6023C160.1 41.1023 160.7 40.9023 161.3 40.9023C161.9 40.9023 162.4 41.1023 162.6 41.6023C163.1 41.1023 163.6 40.9023 164.2 40.9023C165.3 40.9023 165.9 41.5023 165.9 42.8023V45.9023H164.6V42.8023C164.6 42.2023 164.3 42.0023 163.8 42.0023C163.4 42.0023 163.1 42.2023 162.7 42.5023V46.0023H161.4V42.9023C161.4 42.3023 161.2 42.1023 160.7 42.1023C160.3 42.1023 160 42.3023 159.7 42.6023V46.1023H158.6V45.9023Z" fill="#00B7E6"/>
<path d="M167.2 41.1023C167.9 41.0023 168.6 40.9023 169.3 40.9023C171 40.9023 171.8 41.7023 171.8 43.3023C171.8 45.0023 171 45.9023 169.4 45.9023C169.1 45.9023 168.7 45.8023 168.4 45.7023V47.7023H167.1V41.1023H167.2ZM168.4 44.5023C168.7 44.7023 169.1 44.8023 169.4 44.8023C170.2 44.8023 170.5 44.3023 170.5 43.2023C170.5 42.3023 170.1 41.9023 169.3 41.9023C168.9 41.9023 168.6 41.9023 168.4 42.0023V44.5023Z" fill="#00B7E6"/>
<path d="M172.8 45.9023V40.9023H173.8L174 41.5023C174.4 41.1023 174.9 40.9023 175.4 40.9023V41.9023C174.9 41.9023 174.5 42.1023 174.1 42.5023V45.9023H172.8Z" fill="#00B7E6"/>
<path d="M178.1 40.9023C179.6 40.9023 180.4 41.7023 180.4 43.2023C180.4 43.4023 180.4 43.6023 180.4 43.8023H177C177 44.5023 177.5 44.9023 178.5 44.9023C179 44.9023 179.5 44.9023 180 44.8023V45.8023C179.6 45.9023 179 45.9023 178.4 45.9023C176.6 45.9023 175.7 45.0023 175.7 43.3023C175.7 41.7023 176.5 40.9023 178.1 40.9023ZM177 42.9023H179.1C179.1 42.2023 178.8 41.9023 178.1 41.9023C177.4 41.8023 177.1 42.2023 177 42.9023Z" fill="#00B7E6"/>
<path d="M181.3 45.6008V44.6008C181.9 44.8008 182.5 44.9008 183.2 44.9008C183.7 44.9008 184 44.7008 184 44.4008C184 44.1008 183.8 43.9008 183.5 43.9008H182.6C181.6 43.9008 181.1 43.4008 181.1 42.4008C181.1 41.4008 181.8 40.8008 183.3 40.8008C183.9 40.8008 184.5 40.9008 185.1 41.1008V42.1008C184.5 41.9008 183.9 41.8008 183.3 41.8008C182.6 41.8008 182.3 42.0008 182.3 42.3008C182.3 42.6008 182.5 42.8008 182.9 42.8008H183.7C184.8 42.8008 185.4 43.3008 185.4 44.3008C185.4 45.3008 184.7 45.9008 183.3 45.9008C182.5 45.9008 181.9 45.8008 181.3 45.6008Z" fill="#00B7E6"/>
<path d="M185.9 44.3008C185.9 43.3008 186.6 42.8008 188.1 42.8008C188.4 42.8008 188.8 42.8008 189.1 42.9008V42.5008C189.1 42.1008 188.8 41.8008 188.1 41.8008C187.6 41.8008 186.9 41.9008 186.3 42.0008V41.0008C187 40.8008 187.6 40.8008 188.1 40.8008C189.6 40.8008 190.3 41.3008 190.3 42.4008V45.7008H189.6L189.2 45.3008C188.8 45.6008 188.3 45.7008 187.8 45.7008C186.6 45.9008 185.9 45.3008 185.9 44.3008ZM188.1 43.7008C187.5 43.7008 187.2 43.9008 187.2 44.3008C187.2 44.7008 187.5 45.0008 188 45.0008C188.4 45.0008 188.8 44.9008 189.2 44.6008V43.8008C188.8 43.7008 188.5 43.7008 188.1 43.7008Z" fill="#00B7E6"/>
<path d="M191.6 45.6008V44.6008C192.2 44.8008 192.8 44.9008 193.5 44.9008C194 44.9008 194.3 44.7008 194.3 44.4008C194.3 44.1008 194.1 43.9008 193.8 43.9008H192.9C191.9 43.9008 191.4 43.4008 191.4 42.4008C191.4 41.4008 192.1 40.8008 193.6 40.8008C194.2 40.8008 194.8 40.9008 195.4 41.1008V42.1008C194.8 41.9008 194.2 41.8008 193.6 41.8008C192.9 41.8008 192.6 42.0008 192.6 42.3008C192.6 42.6008 192.8 42.8008 193.2 42.8008H194C195.1 42.8008 195.7 43.3008 195.7 44.3008C195.7 45.3008 195 45.9008 193.6 45.9008C192.8 45.9008 192.1 45.8008 191.6 45.6008Z" fill="#00B7E6"/>
<path d="M87.4998 126.701V125.801C88.0998 126.001 88.6998 126.101 89.3998 126.101C90.2998 126.101 90.6998 125.801 90.6998 125.201C90.6998 124.801 90.3998 124.601 89.8998 124.601H88.9998C87.8998 124.601 87.2998 124.101 87.2998 123.001C87.2998 121.901 88.0998 121.301 89.6998 121.301C90.2998 121.301 90.8998 121.401 91.4998 121.601V122.501C90.8998 122.301 90.3998 122.201 89.6998 122.201C88.7998 122.201 88.2998 122.501 88.2998 123.001C88.2998 123.401 88.4998 123.601 88.9998 123.601H89.8998C91.0998 123.601 91.6998 124.101 91.6998 125.201C91.6998 126.401 90.8998 127.001 89.3998 127.001C88.6998 127.001 88.0998 126.901 87.4998 126.701Z" fill="#00B7E6"/>
<path d="M94.1999 122.902C95.3999 122.902 96.0999 123.502 96.0999 124.802C96.0999 125.002 96.0999 125.102 96.0999 125.302H93.3999C93.3999 125.902 93.7999 126.202 94.6999 126.202C95.0999 126.202 95.4999 126.202 95.8999 126.102V126.902C95.4999 127.002 95.0999 127.002 94.5999 127.002C93.0999 127.002 92.3999 126.302 92.3999 124.902C92.2999 123.502 92.8999 122.902 94.1999 122.902ZM93.2999 124.602H94.9999C94.9999 124.002 94.6999 123.802 94.0999 123.802C93.6999 123.702 93.3999 124.002 93.2999 124.602Z" fill="#00B7E6"/>
<path d="M97.8999 121.402V127.002H96.8999V121.402H97.8999Z" fill="#00B7E6"/>
<path d="M100.6 122.902C101.8 122.902 102.5 123.502 102.5 124.802C102.5 125.002 102.5 125.102 102.5 125.302H99.7998C99.7998 125.902 100.2 126.202 101.1 126.202C101.5 126.202 101.9 126.202 102.3 126.102V126.902C101.9 127.002 101.5 127.002 101 127.002C99.4998 127.002 98.7998 126.302 98.7998 124.902C98.6998 123.502 99.2998 122.902 100.6 122.902ZM99.6998 124.602H101.4C101.4 124.002 101.1 123.802 100.5 123.802C99.9998 123.702 99.6998 124.002 99.6998 124.602Z" fill="#00B7E6"/>
<path d="M106.2 126.801C105.9 126.901 105.5 126.901 105.2 126.901C103.7 126.901 103 126.201 103 124.801C103 123.501 103.7 122.801 105.2 122.801C105.6 122.801 105.9 122.801 106.2 122.901V123.701C105.9 123.601 105.5 123.601 105.2 123.601C104.4 123.601 104 124.001 104 124.701C104 125.601 104.4 126.001 105.2 126.001C105.5 126.001 105.8 126.001 106.2 125.901V126.801Z" fill="#00B7E6"/>
<path d="M109.9 126.801C109.6 126.901 109.2 126.901 108.9 126.901C107.4 126.901 106.7 126.201 106.7 124.801C106.7 123.501 107.4 122.801 108.9 122.801C109.3 122.801 109.6 122.801 109.9 122.901V123.701C109.6 123.601 109.2 123.601 108.9 123.601C108.1 123.601 107.7 124.001 107.7 124.701C107.7 125.601 108.1 126.001 108.9 126.001C109.2 126.001 109.5 126.001 109.9 125.901V126.801Z" fill="#00B7E6"/>
<path d="M111.6 121.402V122.202H110.6V121.402H111.6ZM111.6 122.902V127.002H110.6V122.902H111.6Z" fill="#00B7E6"/>
<path d="M112.4 124.901C112.4 123.501 113.1 122.801 114.4 122.801C115.7 122.801 116.4 123.501 116.4 124.901C116.4 126.301 115.7 126.901 114.4 126.901C113.1 127.001 112.4 126.301 112.4 124.901ZM114.4 126.201C115.1 126.201 115.4 125.801 115.4 124.901C115.4 124.101 115.1 123.701 114.4 123.701C113.7 123.701 113.4 124.101 113.4 124.901C113.4 125.801 113.8 126.201 114.4 126.201Z" fill="#00B7E6"/>
<path d="M117.2 127.002V122.902H118L118.1 123.502C118.5 123.102 118.9 122.902 119.4 122.902C120.4 122.902 120.9 123.402 120.9 124.402V127.002H119.9V124.402C119.9 123.902 119.7 123.702 119.2 123.702C118.9 123.702 118.5 123.802 118.2 124.102V127.002H117.2Z" fill="#00B7E6"/>
<path d="M121.7 125.7C121.7 124.9 122.3 124.5 123.5 124.5C123.8 124.5 124.1 124.5 124.3 124.6V124.3C124.3 123.9 124 123.8 123.5 123.8C123.1 123.8 122.6 123.9 122 124V123.2C122.5 123.1 123 123 123.5 123C124.7 123 125.3 123.4 125.3 124.3V127H124.7L124.3 126.6C123.9 126.8 123.6 127 123.1 127C122.2 127 121.7 126.5 121.7 125.7ZM123.5 125.2C123 125.2 122.8 125.4 122.8 125.7C122.8 126.1 123 126.2 123.4 126.2C123.7 126.2 124.1 126.1 124.4 125.9V125.2C124.1 125.2 123.8 125.2 123.5 125.2Z" fill="#00B7E6"/>
<path d="M129.8 122.902C131 122.902 131.7 123.502 131.7 124.802C131.7 125.002 131.7 125.102 131.7 125.302H129C129 125.902 129.4 126.202 130.3 126.202C130.7 126.202 131.1 126.202 131.5 126.102V126.902C131.1 127.002 130.7 127.002 130.2 127.002C128.7 127.002 128 126.302 128 124.902C127.9 123.502 128.5 122.902 129.8 122.902ZM128.9 124.602H130.6C130.6 124.002 130.3 123.802 129.7 123.802C129.2 123.702 129 124.002 128.9 124.602Z" fill="#00B7E6"/>
<path d="M133.5 121.402V127.002H132.5V121.402H133.5Z" fill="#00B7E6"/>
<path d="M136.2 127.002V122.902H137L137.1 123.402C137.5 123.102 137.8 122.902 138.2 122.902V123.702C137.8 123.702 137.5 123.902 137.2 124.202V127.002H136.2Z" fill="#00B7E6"/>
<path d="M140.5 122.902C141.7 122.902 142.4 123.502 142.4 124.802C142.4 125.002 142.4 125.102 142.4 125.302H139.7C139.7 125.902 140.1 126.202 141 126.202C141.4 126.202 141.8 126.202 142.2 126.102V126.902C141.8 127.002 141.4 127.002 140.9 127.002C139.4 127.002 138.7 126.302 138.7 124.902C138.6 123.502 139.3 122.902 140.5 122.902ZM139.7 124.602H141.4C141.4 124.002 141.1 123.802 140.5 123.802C140 123.702 139.7 124.002 139.7 124.602Z" fill="#00B7E6"/>
<path d="M146.2 126.801C145.9 126.901 145.5 126.901 145.2 126.901C143.7 126.901 143 126.201 143 124.801C143 123.501 143.7 122.801 145.2 122.801C145.6 122.801 145.9 122.801 146.2 122.901V123.701C145.9 123.601 145.5 123.601 145.2 123.601C144.4 123.601 144 124.001 144 124.701C144 125.601 144.4 126.001 145.2 126.001C145.5 126.001 145.8 126.001 146.2 125.901V126.801Z" fill="#00B7E6"/>
<path d="M147.9 121.402V122.202H146.9V121.402H147.9ZM147.9 122.902V127.002H146.9V122.902H147.9Z" fill="#00B7E6"/>
<path d="M148.9 121.402H149.9V123.202C150.2 123.002 150.6 122.902 150.9 122.902C152.1 122.902 152.6 123.602 152.6 124.902C152.6 126.302 151.9 127.002 150.6 127.002C150 127.002 149.4 126.902 148.8 126.802V121.402H148.9ZM149.9 126.002C150.1 126.102 150.4 126.102 150.7 126.102C151.3 126.102 151.6 125.702 151.6 124.802C151.6 124.102 151.3 123.702 150.8 123.702C150.5 123.702 150.1 123.802 149.9 123.902V126.002Z" fill="#00B7E6"/>
<path d="M153.3 124.901C153.3 123.501 154 122.801 155.3 122.801C156.6 122.801 157.3 123.501 157.3 124.901C157.3 126.301 156.6 126.901 155.3 126.901C153.9 127.001 153.3 126.301 153.3 124.901ZM155.3 126.201C156 126.201 156.3 125.801 156.3 124.901C156.3 124.101 156 123.701 155.3 123.701C154.6 123.701 154.3 124.101 154.3 124.901C154.3 125.801 154.6 126.201 155.3 126.201Z" fill="#00B7E6"/>
<path d="M163.5 128.401H162.5V126.701C162.2 126.801 161.9 126.901 161.6 126.901C160.4 126.901 159.7 126.201 159.7 124.801C159.7 123.501 160.4 122.801 161.8 122.801C162.3 122.801 162.9 122.901 163.5 123.001V128.401ZM162.4 123.801C162.2 123.701 161.9 123.701 161.7 123.701C161 123.701 160.6 124.101 160.6 124.901C160.6 125.701 160.9 126.101 161.6 126.101C161.9 126.101 162.2 126.001 162.4 125.901V123.801Z" fill="#00B7E6"/>
<path d="M168.1 122.902V127.002H167.3L167.2 126.502C166.7 126.802 166.2 127.002 165.7 127.002C164.9 127.002 164.4 126.502 164.4 125.502V122.902H165.4V125.502C165.4 126.002 165.6 126.202 166 126.202C166.3 126.202 166.7 126.102 167 125.802V122.902H168.1Z" fill="#00B7E6"/>
<path d="M170.8 122.902C172 122.902 172.7 123.502 172.7 124.802C172.7 125.002 172.7 125.102 172.7 125.302H170C170 125.902 170.4 126.202 171.3 126.202C171.7 126.202 172.1 126.202 172.5 126.102V126.902C172.1 127.002 171.7 127.002 171.2 127.002C169.7 127.002 169 126.302 169 124.902C168.9 123.502 169.5 122.902 170.8 122.902ZM169.9 124.602H171.6C171.6 124.002 171.3 123.802 170.7 123.802C170.3 123.702 170 124.002 169.9 124.602Z" fill="#00B7E6"/>
<path d="M178.8 126.701C178.2 126.901 177.6 126.901 177 126.901C175.7 126.901 175 126.201 175 124.801C175 123.501 175.6 122.801 176.9 122.801C177.2 122.801 177.5 122.901 177.7 123.001V121.301H178.7V126.701H178.8ZM177.8 123.901C177.6 123.801 177.3 123.701 177 123.701C176.4 123.701 176 124.101 176 124.801C176 125.701 176.3 126.101 177 126.101C177.3 126.101 177.5 126.101 177.8 126.001V123.901Z" fill="#00B7E6"/>
<path d="M181.5 122.902C182.7 122.902 183.4 123.502 183.4 124.802C183.4 125.002 183.4 125.102 183.4 125.302H180.7C180.7 125.902 181.1 126.202 182 126.202C182.4 126.202 182.8 126.202 183.2 126.102V126.902C182.8 127.002 182.4 127.002 181.9 127.002C180.4 127.002 179.7 126.302 179.7 124.902C179.6 123.502 180.2 122.902 181.5 122.902ZM180.6 124.602H182.3C182.3 124.002 182 123.802 181.4 123.802C181 123.702 180.7 124.002 180.6 124.602Z" fill="#00B7E6"/>
<path d="M184.1 126.802V125.902C184.6 126.102 185.1 126.202 185.7 126.202C186.1 126.202 186.4 126.102 186.4 125.802C186.4 125.502 186.3 125.402 186 125.402H185.3C184.5 125.402 184.1 125.002 184.1 124.202C184.1 123.302 184.7 122.902 185.9 122.902C186.4 122.902 186.9 123.002 187.4 123.102V124.002C186.9 123.802 186.5 123.702 185.9 123.702C185.3 123.702 185.1 123.802 185.1 124.102C185.1 124.402 185.3 124.502 185.6 124.502H186.3C187.2 124.502 187.7 124.902 187.7 125.702C187.7 126.602 187.1 127.002 186 127.002C185.1 127.002 184.6 126.902 184.1 126.802Z" fill="#00B7E6"/>
<path d="M189.9 122.902C191.1 122.902 191.8 123.502 191.8 124.802C191.8 125.002 191.8 125.102 191.8 125.302H189C189 125.902 189.4 126.202 190.3 126.202C190.7 126.202 191.1 126.202 191.5 126.102V126.902C191.1 127.002 190.7 127.002 190.2 127.002C188.7 127.002 188 126.302 188 124.902C187.9 123.502 188.6 122.902 189.9 122.902ZM189 124.602H190.7C190.7 124.002 190.4 123.802 189.8 123.802C189.3 123.702 189 124.002 189 124.602Z" fill="#00B7E6"/>
<path d="M192.3 125.7C192.3 124.9 192.9 124.5 194.1 124.5C194.4 124.5 194.7 124.5 194.9 124.6V124.3C194.9 123.9 194.6 123.8 194.1 123.8C193.7 123.8 193.2 123.9 192.6 124V123.2C193.1 123.1 193.6 123 194.1 123C195.3 123 195.9 123.4 195.9 124.3V127H195.3L194.9 126.6C194.5 126.8 194.2 127 193.7 127C192.8 127 192.3 126.5 192.3 125.7ZM194.1 125.2C193.6 125.2 193.4 125.4 193.4 125.7C193.4 126.1 193.6 126.2 194 126.2C194.3 126.2 194.7 126.1 195 125.9V125.2C194.6 125.2 194.4 125.2 194.1 125.2Z" fill="#00B7E6"/>
<path d="M196.9 126.802V125.902C197.4 126.102 197.9 126.202 198.5 126.202C198.9 126.202 199.2 126.102 199.2 125.802C199.2 125.502 199.1 125.402 198.8 125.402H198.1C197.3 125.402 196.9 125.002 196.9 124.202C196.9 123.302 197.5 122.902 198.7 122.902C199.2 122.902 199.7 123.002 200.2 123.102V124.002C199.7 123.802 199.3 123.702 198.7 123.702C198.1 123.702 197.9 123.802 197.9 124.102C197.9 124.402 198.1 124.502 198.4 124.502H199.1C200 124.502 200.5 124.902 200.5 125.702C200.5 126.602 199.9 127.002 198.8 127.002C197.9 127.002 197.4 126.902 196.9 126.802Z" fill="#00B7E6"/>
<path d="M205.6 126.801C205.3 126.901 204.9 126.901 204.6 126.901C203.1 126.901 202.4 126.201 202.4 124.801C202.4 123.501 203.1 122.801 204.6 122.801C205 122.801 205.3 122.801 205.6 122.901V123.701C205.3 123.601 204.9 123.601 204.6 123.601C203.8 123.601 203.4 124.001 203.4 124.701C203.4 125.601 203.8 126.001 204.6 126.001C204.9 126.001 205.2 126.001 205.6 125.901V126.801Z" fill="#00B7E6"/>
<path d="M206.1 125.7C206.1 124.9 206.7 124.5 207.9 124.5C208.2 124.5 208.5 124.5 208.7 124.6V124.3C208.7 123.9 208.4 123.8 207.9 123.8C207.5 123.8 207 123.9 206.4 124V123.2C206.9 123.1 207.4 123 207.9 123C209.1 123 209.7 123.4 209.7 124.3V127H209.1L208.7 126.6C208.3 126.8 208 127 207.5 127C206.6 127 206.1 126.5 206.1 125.7ZM207.9 125.2C207.4 125.2 207.2 125.4 207.2 125.7C207.2 126.1 207.4 126.2 207.8 126.2C208.1 126.2 208.5 126.1 208.8 125.9V125.2C208.5 125.2 208.2 125.2 207.9 125.2Z" fill="#00B7E6"/>
<path d="M210.7 127.002V122.902H211.5L211.6 123.502C212 123.102 212.4 122.902 212.9 122.902C213.9 122.902 214.4 123.402 214.4 124.402V127.002H213.4V124.402C213.4 123.902 213.2 123.702 212.7 123.702C212.4 123.702 212 123.802 211.7 124.102V127.002H210.7Z" fill="#00B7E6"/>
<path d="M218.4 126.801C218.1 126.901 217.7 126.901 217.4 126.901C215.9 126.901 215.2 126.201 215.2 124.801C215.2 123.501 215.9 122.801 217.4 122.801C217.8 122.801 218.1 122.801 218.4 122.901V123.701C218.1 123.601 217.7 123.601 217.4 123.601C216.6 123.601 216.2 124.001 216.2 124.701C216.2 125.601 216.6 126.001 217.4 126.001C217.7 126.001 218 126.001 218.4 125.901V126.801Z" fill="#00B7E6"/>
<path d="M220.8 122.902C222 122.902 222.7 123.502 222.7 124.802C222.7 125.002 222.7 125.102 222.7 125.302H220C220 125.902 220.4 126.202 221.3 126.202C221.7 126.202 222.1 126.202 222.5 126.102V126.902C222.1 127.002 221.7 127.002 221.2 127.002C219.7 127.002 219 126.302 219 124.902C218.9 123.502 219.6 122.902 220.8 122.902ZM220 124.602H221.7C221.7 124.002 221.4 123.802 220.8 123.802C220.3 123.702 220 124.002 220 124.602Z" fill="#00B7E6"/>
<path d="M224.5 121.402V127.002H223.5V121.402H224.5Z" fill="#00B7E6"/>
<path d="M225.3 125.7C225.3 124.9 225.9 124.5 227.1 124.5C227.4 124.5 227.7 124.5 227.9 124.6V124.3C227.9 123.9 227.6 123.8 227.1 123.8C226.7 123.8 226.2 123.9 225.6 124V123.2C226.1 123.1 226.6 123 227.1 123C228.3 123 228.9 123.4 228.9 124.3V127H228.3L227.9 126.6C227.5 126.8 227.2 127 226.7 127C225.8 127 225.3 126.5 225.3 125.7ZM227.1 125.2C226.6 125.2 226.4 125.4 226.4 125.7C226.4 126.1 226.6 126.2 227 126.2C227.3 126.2 227.7 126.1 228 125.9V125.2C227.6 125.2 227.4 125.2 227.1 125.2Z" fill="#00B7E6"/>
<path d="M229.9 127.002V122.902H230.7L230.8 123.402C231.2 123.102 231.5 122.902 231.9 122.902V123.702C231.5 123.702 231.2 123.902 230.9 124.202V127.002H229.9Z" fill="#00B7E6"/>
<path d="M310.5 211.398H81.5V226.398H310.5V211.398Z" fill="white"/>
<path d="M87.4998 222.201V221.301C88.0998 221.501 88.6998 221.601 89.3998 221.601C90.2998 221.601 90.6998 221.301 90.6998 220.701C90.6998 220.301 90.3998 220.101 89.8998 220.101H88.9998C87.8998 220.101 87.2998 219.601 87.2998 218.501C87.2998 217.401 88.0998 216.801 89.6998 216.801C90.2998 216.801 90.8998 216.901 91.4998 217.101V218.001C90.8998 217.801 90.3998 217.701 89.6998 217.701C88.7998 217.701 88.2998 218.001 88.2998 218.501C88.2998 218.901 88.4998 219.101 88.9998 219.101H89.8998C91.0998 219.101 91.6998 219.601 91.6998 220.701C91.6998 221.901 90.8998 222.501 89.3998 222.501C88.6998 222.501 88.0998 222.401 87.4998 222.201Z" fill="#00B7E6"/>
<path d="M94.1999 218.402C95.3999 218.402 96.0999 219.002 96.0999 220.302C96.0999 220.502 96.0999 220.602 96.0999 220.802H93.3999C93.3999 221.402 93.7999 221.702 94.6999 221.702C95.0999 221.702 95.4999 221.702 95.8999 221.602V222.402C95.4999 222.502 95.0999 222.502 94.5999 222.502C93.0999 222.502 92.3999 221.802 92.3999 220.402C92.2999 219.002 92.8999 218.402 94.1999 218.402ZM93.2999 220.002H94.9999C94.9999 219.402 94.6999 219.202 94.0999 219.202C93.6999 219.202 93.3999 219.502 93.2999 220.002Z" fill="#00B7E6"/>
<path d="M97.8999 216.902V222.502H96.8999V216.902H97.8999Z" fill="#00B7E6"/>
<path d="M100.6 218.402C101.8 218.402 102.5 219.002 102.5 220.302C102.5 220.502 102.5 220.602 102.5 220.802H99.7998C99.7998 221.402 100.2 221.702 101.1 221.702C101.5 221.702 101.9 221.702 102.3 221.602V222.402C101.9 222.502 101.5 222.502 101 222.502C99.4998 222.502 98.7998 221.802 98.7998 220.402C98.6998 219.002 99.2998 218.402 100.6 218.402ZM99.6998 220.002H101.4C101.4 219.402 101.1 219.202 100.5 219.202C99.9998 219.202 99.6998 219.502 99.6998 220.002Z" fill="#00B7E6"/>
<path d="M106.2 222.301C105.9 222.401 105.5 222.401 105.2 222.401C103.7 222.401 103 221.701 103 220.301C103 219.001 103.7 218.301 105.2 218.301C105.6 218.301 105.9 218.301 106.2 218.401V219.201C105.9 219.101 105.5 219.101 105.2 219.101C104.4 219.101 104 219.501 104 220.201C104 221.101 104.4 221.501 105.2 221.501C105.5 221.501 105.8 221.501 106.2 221.401V222.301Z" fill="#00B7E6"/>
<path d="M109.9 222.301C109.6 222.401 109.2 222.401 108.9 222.401C107.4 222.401 106.7 221.701 106.7 220.301C106.7 219.001 107.4 218.301 108.9 218.301C109.3 218.301 109.6 218.301 109.9 218.401V219.201C109.6 219.101 109.2 219.101 108.9 219.101C108.1 219.101 107.7 219.501 107.7 220.201C107.7 221.101 108.1 221.501 108.9 221.501C109.2 221.501 109.5 221.501 109.9 221.401V222.301Z" fill="#00B7E6"/>
<path d="M111.6 216.902V217.702H110.6V216.902H111.6ZM111.6 218.402V222.502H110.6V218.402H111.6Z" fill="#00B7E6"/>
<path d="M112.4 220.401C112.4 219.001 113.1 218.301 114.4 218.301C115.7 218.301 116.4 219.001 116.4 220.401C116.4 221.801 115.7 222.401 114.4 222.401C113.1 222.501 112.4 221.801 112.4 220.401ZM114.4 221.701C115.1 221.701 115.4 221.301 115.4 220.401C115.4 219.601 115.1 219.201 114.4 219.201C113.7 219.201 113.4 219.601 113.4 220.401C113.4 221.201 113.8 221.701 114.4 221.701Z" fill="#00B7E6"/>
<path d="M117.2 222.401V218.301H118L118.1 218.901C118.5 218.501 118.9 218.301 119.4 218.301C120.4 218.301 120.9 218.801 120.9 219.801V222.401H119.9V219.801C119.9 219.301 119.7 219.101 119.2 219.101C118.9 219.101 118.5 219.201 118.2 219.501V222.401H117.2Z" fill="#00B7E6"/>
<path d="M121.7 221.2C121.7 220.4 122.3 220 123.5 220C123.8 220 124.1 220 124.3 220.1V219.8C124.3 219.4 124 219.3 123.5 219.3C123.1 219.3 122.6 219.4 122 219.5V218.7C122.5 218.6 123 218.5 123.5 218.5C124.7 218.5 125.3 218.9 125.3 219.8V222.5H124.7L124.3 222.1C123.9 222.3 123.6 222.5 123.1 222.5C122.2 222.4 121.7 222 121.7 221.2ZM123.5 220.7C123 220.7 122.8 220.9 122.8 221.2C122.8 221.6 123 221.7 123.4 221.7C123.7 221.7 124.1 221.6 124.4 221.4V220.7C124.1 220.7 123.8 220.7 123.5 220.7Z" fill="#00B7E6"/>
<path d="M131.7 218.402V222.502H130.9L130.8 222.002C130.3 222.302 129.8 222.502 129.3 222.502C128.5 222.502 128 222.002 128 221.002V218.402H129V221.002C129 221.502 129.2 221.702 129.6 221.702C129.9 221.702 130.3 221.602 130.6 221.302V218.402H131.7Z" fill="#00B7E6"/>
<path d="M132.7 222.401V218.301H133.5L133.6 218.901C134 218.501 134.4 218.301 134.9 218.301C135.9 218.301 136.4 218.801 136.4 219.801V222.401H135.4V219.801C135.4 219.301 135.2 219.101 134.7 219.101C134.4 219.101 134 219.201 133.7 219.501V222.401H132.7Z" fill="#00B7E6"/>
<path d="M139.2 222.401V218.301H140L140.1 218.901C140.5 218.501 140.9 218.301 141.4 218.301C141.9 218.301 142.3 218.501 142.5 218.901C142.9 218.501 143.4 218.301 143.8 218.301C144.7 218.301 145.2 218.801 145.2 219.901V222.401H144.2V219.801C144.2 219.301 144 219.101 143.6 219.101C143.3 219.101 143 219.201 142.7 219.501V222.301H141.7V219.701C141.7 219.201 141.5 219.001 141.1 219.001C140.8 219.001 140.5 219.101 140.2 219.401V222.201H139.2V222.401Z" fill="#00B7E6"/>
<path d="M147.9 218.402C149.1 218.402 149.8 219.002 149.8 220.302C149.8 220.502 149.8 220.602 149.8 220.802H147C147 221.402 147.4 221.702 148.3 221.702C148.7 221.702 149.1 221.702 149.5 221.602V222.402C149.1 222.502 148.7 222.502 148.2 222.502C146.7 222.502 146 221.802 146 220.402C145.9 219.002 146.6 218.402 147.9 218.402ZM147 220.002H148.7C148.7 219.402 148.4 219.202 147.8 219.202C147.3 219.202 147 219.502 147 220.002Z" fill="#00B7E6"/>
<path d="M154.1 222.201C153.5 222.401 152.9 222.401 152.3 222.401C151 222.401 150.3 221.701 150.3 220.301C150.3 219.001 150.9 218.301 152.2 218.301C152.5 218.301 152.8 218.401 153 218.501V216.801H154V222.201H154.1ZM153.1 219.401C152.9 219.301 152.6 219.201 152.3 219.201C151.7 219.201 151.3 219.601 151.3 220.301C151.3 221.201 151.6 221.601 152.3 221.601C152.6 221.601 152.8 221.601 153.1 221.501V219.401Z" fill="#00B7E6"/>
<path d="M156.1 216.902V217.702H155.1V216.902H156.1ZM156.1 218.402V222.502H155.1V218.402H156.1Z" fill="#00B7E6"/>
<path d="M156.9 220.401C156.9 219.001 157.6 218.301 158.9 218.301C160.2 218.301 160.9 219.001 160.9 220.401C160.9 221.801 160.2 222.401 158.9 222.401C157.6 222.501 156.9 221.801 156.9 220.401ZM158.9 221.701C159.6 221.701 159.9 221.301 159.9 220.401C159.9 219.601 159.6 219.201 158.9 219.201C158.2 219.201 157.9 219.601 157.9 220.401C157.9 221.201 158.2 221.701 158.9 221.701Z" fill="#00B7E6"/>
<path d="M167.1 222.201C166.5 222.401 165.9 222.401 165.3 222.401C164 222.401 163.3 221.701 163.3 220.301C163.3 219.001 163.9 218.301 165.2 218.301C165.5 218.301 165.8 218.401 166 218.501V216.801H167V222.201H167.1ZM166 219.401C165.8 219.301 165.5 219.201 165.2 219.201C164.6 219.201 164.2 219.601 164.2 220.301C164.2 221.201 164.5 221.601 165.2 221.601C165.5 221.601 165.7 221.601 166 221.501V219.401Z" fill="#00B7E6"/>
<path d="M169.8 218.402C171 218.402 171.7 219.002 171.7 220.302C171.7 220.502 171.7 220.602 171.7 220.802H169C169 221.402 169.4 221.702 170.3 221.702C170.7 221.702 171.1 221.702 171.5 221.602V222.402C171.1 222.502 170.7 222.502 170.2 222.502C168.7 222.502 168 221.802 168 220.402C167.8 219.002 168.5 218.402 169.8 218.402ZM168.9 220.002H170.6C170.6 219.402 170.3 219.202 169.7 219.202C169.2 219.202 168.9 219.502 168.9 220.002Z" fill="#00B7E6"/>
<path d="M174.1 218.501C174.6 218.401 175.2 218.301 175.8 218.301C177.2 218.301 177.9 218.901 177.9 220.201C177.9 221.601 177.3 222.301 176 222.301C175.7 222.301 175.4 222.201 175.2 222.101V223.801H174.2V218.501H174.1ZM175.2 221.401C175.5 221.501 175.7 221.601 176 221.601C176.6 221.601 176.9 221.201 176.9 220.301C176.9 219.601 176.6 219.201 175.9 219.201C175.6 219.201 175.4 219.201 175.2 219.301V221.401Z" fill="#00B7E6"/>
<path d="M178.5 221.2C178.5 220.4 179.1 220 180.3 220C180.6 220 180.9 220 181.1 220.1V219.8C181.1 219.4 180.8 219.3 180.3 219.3C179.9 219.3 179.4 219.4 178.8 219.5V218.7C179.3 218.6 179.8 218.5 180.3 218.5C181.5 218.5 182.1 218.9 182.1 219.8V222.5H181.5L181.1 222.1C180.7 222.3 180.4 222.5 179.9 222.5C179 222.4 178.5 222 178.5 221.2ZM180.3 220.7C179.8 220.7 179.6 220.9 179.6 221.2C179.6 221.6 179.8 221.7 180.2 221.7C180.5 221.7 180.9 221.6 181.2 221.4V220.7C180.9 220.7 180.6 220.7 180.3 220.7Z" fill="#00B7E6"/>
<path d="M186.8 222.102C186.8 223.302 186.1 223.902 184.6 223.902C184.1 223.902 183.7 223.802 183.3 223.702V222.902C183.7 223.002 184.1 223.102 184.6 223.102C185.3 223.102 185.7 222.802 185.7 222.202C185.4 222.302 185.1 222.402 184.7 222.402C183.5 222.402 182.9 221.702 182.9 220.402C182.9 219.102 183.6 218.402 185 218.402C185.5 218.402 186 218.502 186.7 218.602V222.102H186.8ZM185.8 219.302C185.6 219.202 185.4 219.202 185.1 219.202C184.4 219.202 184 219.602 184 220.402C184 221.202 184.3 221.502 184.9 221.502C185.2 221.502 185.5 221.402 185.8 221.302V219.302Z" fill="#00B7E6"/>
<path d="M187.6 220.401C187.6 219.001 188.3 218.301 189.6 218.301C190.9 218.301 191.6 219.001 191.6 220.401C191.6 221.801 190.9 222.401 189.6 222.401C188.2 222.501 187.6 221.801 187.6 220.401ZM189.6 221.701C190.3 221.701 190.6 221.301 190.6 220.401C190.6 219.601 190.3 219.201 189.6 219.201C188.9 219.201 188.6 219.601 188.6 220.401C188.6 221.201 188.9 221.701 189.6 221.701Z" fill="#00B7E6"/>
<path d="M88.2002 67.0008H87.2002L89.4002 61.8008H90.4002L92.7002 67.0008H91.7002L91.1002 65.6008H89.4002L89.7002 64.8008H90.8002L90.0002 62.8008L88.2002 67.0008Z" fill="#A0A0A0"/>
<path d="M97.5002 66.6992C97.0002 66.8992 96.5002 66.9992 96.0002 66.9992C94.1002 66.9992 93.2002 66.0992 93.2002 64.2992C93.2002 62.5992 94.1002 61.6992 96.0002 61.6992C96.6002 61.6992 97.1002 61.7992 97.5002 61.9992V62.8992C97.0002 62.6992 96.6002 62.5992 96.0002 62.5992C94.7002 62.5992 94.1002 63.1992 94.1002 64.2992C94.1002 65.5992 94.7002 66.1992 96.0002 66.1992C96.5002 66.1992 97.0002 66.0992 97.5002 65.8992V66.6992Z" fill="#A0A0A0"/>
<path d="M99 67.0008H98L100.2 61.8008H101.2L103.5 67.0008H102.5L101.9 65.6008H100.2L100.5 64.8008H101.6L100.8 62.8008L99 67.0008Z" fill="#A0A0A0"/>
<path d="M104.2 67.0008V61.8008H106.3C108 61.8008 108.9 62.6008 108.9 64.3008C108.9 66.1008 108 67.1008 106.3 67.1008H104.2V67.0008ZM106.2 66.1008C107.3 66.1008 107.8 65.5008 107.8 64.2008C107.8 63.1008 107.3 62.6008 106.2 62.6008H105.1V66.2008H106.2V66.1008Z" fill="#A0A0A0"/>
<path d="M113.3 61.6992V62.4992H110.7V63.7992H113.2V64.6992H110.7V66.0992H113.4V66.9992H109.8V61.7992H113.3V61.6992Z" fill="#A0A0A0"/>
<path d="M114.2 67.0008V61.8008H115.2L117 65.8008L118.7 61.8008H119.7V67.0008H118.8V63.3008L117.4 67.0008H116.6L115.1 63.3008V67.0008H114.2Z" fill="#A0A0A0"/>
<path d="M121.8 61.6992V66.9992H120.8V61.7992H121.8V61.6992Z" fill="#A0A0A0"/>
<path d="M123.4 67.0008H122.4L124.6 61.8008H125.6L128 67.0008H127L126.4 65.6008H124.7L125 64.8008H126.1L125.3 62.8008L123.4 67.0008Z" fill="#A0A0A0"/>
<path d="M133.7 61.6992V62.4992H132.2V66.9992H131.2V62.5992H129.7V61.7992H133.7V61.6992Z" fill="#A0A0A0"/>
<path d="M134.3 67.0008V61.8008H136.7C137.8 61.8008 138.3 62.3008 138.3 63.2008C138.3 63.8008 137.9 64.4008 137 64.8008L138.7 67.1008H137.5L135.9 64.8008V64.4008C136.8 64.2008 137.3 63.9008 137.3 63.3008C137.3 62.9008 137.1 62.7008 136.6 62.7008H135.3V67.0008H134.3Z" fill="#A0A0A0"/>
<path d="M140.1 61.6992V66.9992H139.1V61.7992H140.1V61.6992Z" fill="#A0A0A0"/>
<path d="M142.2 61.6992V66.0992H144.3V66.9992H141.2V61.7992H142.2V61.6992Z" fill="#A0A0A0"/>
<path d="M148.8 66.6992C148.3 66.8992 147.8 66.9992 147.3 66.9992C145.4 66.9992 144.5 66.0992 144.5 64.2992C144.5 62.5992 145.4 61.6992 147.3 61.6992C147.9 61.6992 148.4 61.7992 148.8 61.9992V62.8992C148.3 62.6992 147.9 62.5992 147.3 62.5992C146 62.5992 145.4 63.1992 145.4 64.2992C145.4 65.5992 146 66.1992 147.3 66.1992C147.8 66.1992 148.3 66.0992 148.8 65.8992V66.6992Z" fill="#A0A0A0"/>
<path d="M153.3 61.6992V62.4992H150.7V63.7992H153.2V64.6992H150.7V66.0992H153.4V66.9992H149.8V61.7992H153.3V61.6992Z" fill="#A0A0A0"/>
<path d="M89.2001 100.398V104.098C89.2001 105.098 88.5001 105.598 87.1001 105.598V104.798C87.8001 104.798 88.2001 104.598 88.2001 104.098V100.398H89.2001Z" fill="#A0A0A0"/>
<path d="M90.3003 103.598V100.398H91.3003V103.598C91.3003 104.398 91.7003 104.898 92.6003 104.898C93.5003 104.898 93.9003 104.498 93.9003 103.598V100.398H94.9003V103.598C94.9003 104.998 94.1003 105.698 92.6003 105.698C91.1003 105.698 90.3003 104.998 90.3003 103.598Z" fill="#A0A0A0"/>
<path d="M96.5 105.7H95.5L97.7 100.5H98.7L101 105.7H100L99.4 104.3H97.7L98 103.5H99L98.2 101.5L96.5 105.7Z" fill="#A0A0A0"/>
<path d="M101.7 105.7V100.5H102.7L105.5 104.3V100.5H106.4V105.7H105.4L102.6 101.8V105.7H101.7Z" fill="#A0A0A0"/>
<path d="M109.1 105.7V100.5H111.4C112.5 100.5 113 101 113 102C113 103.1 112.3 103.7 110.8 103.9L110.7 103C111.6 102.8 112 102.5 112 102C112 101.6 111.8 101.3 111.3 101.3H110V105.7H109.1Z" fill="#A0A0A0"/>
<path d="M117.3 100.398V101.198H114.7V102.498H117.2V103.398H114.7V104.798H117.4V105.598H113.8V100.398H117.3Z" fill="#A0A0A0"/>
<path d="M118.3 105.7V100.5H120.7C121.8 100.5 122.3 101 122.3 101.9C122.3 102.5 121.9 103.1 121 103.5L122.7 105.8H121.5L119.9 103.5V103C120.8 102.8 121.3 102.5 121.3 101.9C121.3 101.5 121.1 101.3 120.6 101.3H119.3V105.7H118.3Z" fill="#A0A0A0"/>
<path d="M126.7 100.398V101.198H124.1V102.498H126.6V103.398H124.1V104.798H126.8V105.598H123.2V100.398H126.7Z" fill="#A0A0A0"/>
<path d="M131.5 100.398V101.198L128.7 104.798H131.5V105.598H127.6V104.798L130.5 101.198H127.7V100.398H131.5Z" fill="#A0A0A0"/>
<path d="M91.4998 75.8C91.0998 76 90.5998 76 89.9998 76C88.1998 76 87.2998 75.1 87.2998 73.4C87.2998 71.8 88.1998 71 89.9998 71C90.4998 71 90.9998 71.1 91.4998 71.2V72C91.0998 71.8 90.5998 71.7 90.0998 71.7C88.8998 71.7 88.2998 72.2 88.2998 73.3C88.2998 74.5 88.8998 75.1 90.0998 75.1C90.5998 75.1 91.0998 75 91.4998 74.8V75.8Z" fill="#A0A0A0"/>
<path d="M92.0996 74.2C92.0996 73 92.6996 72.4 93.8996 72.4C95.0996 72.4 95.6996 73 95.6996 74.2C95.6996 75.4 95.0996 76 93.8996 76C92.6996 76 92.0996 75.4 92.0996 74.2ZM93.8996 75.3C94.4996 75.3 94.7996 74.9 94.7996 74.2C94.7996 73.5 94.4996 73.1 93.8996 73.1C93.2996 73.1 92.9996 73.4 92.9996 74.1C92.9996 74.9 93.2996 75.3 93.8996 75.3ZM93.8996 71H94.9996L94.1996 71.9H93.3996L93.8996 71Z" fill="#A0A0A0"/>
<path d="M99.5997 75.7C99.0997 75.9 98.4997 76 97.9997 76C96.7997 76 96.1997 75.4 96.1997 74.1C96.1997 72.9 96.7997 72.4 97.8997 72.4C98.0997 72.4 98.3997 72.5 98.6997 72.6V71H99.5997V75.7ZM98.6997 73.3C98.4997 73.2 98.2997 73.1 97.9997 73.1C97.3997 73.1 97.0997 73.4 97.0997 74.1C97.0997 74.9 97.3997 75.2 97.9997 75.2C98.1997 75.2 98.4997 75.2 98.6997 75.1V73.3Z" fill="#A0A0A0"/>
<path d="M101.4 71V71.7H100.5V71H101.4ZM101.4 72.3V76H100.5V72.4H101.4V72.3Z" fill="#A0A0A0"/>
<path d="M105.5 75.6984C105.5 76.7984 104.9 77.2984 103.6 77.2984C103.2 77.2984 102.8 77.1984 102.4 77.0984V76.3984C102.8 76.4984 103.2 76.5984 103.6 76.5984C104.3 76.5984 104.6 76.2984 104.6 75.7984C104.3 75.8984 104 75.9984 103.7 75.9984C102.6 75.9984 102.1 75.3984 102.1 74.1984C102.1 72.9984 102.7 72.3984 104 72.3984C104.4 72.3984 104.9 72.3984 105.5 72.4984V75.6984ZM104.6 73.1984C104.5 73.0984 104.2 73.0984 104 73.0984C103.4 73.0984 103 73.3984 103 74.0984C103 74.7984 103.3 75.0984 103.8 75.0984C104.1 75.0984 104.3 74.9984 104.6 74.8984V73.1984Z" fill="#A0A0A0"/>
<path d="M106.2 74.1984C106.2 72.9984 106.8 72.3984 108 72.3984C109.2 72.3984 109.8 72.9984 109.8 74.1984C109.8 75.3984 109.2 75.9984 108 75.9984C106.8 75.9984 106.2 75.3984 106.2 74.1984ZM108 75.2984C108.6 75.2984 108.9 74.8984 108.9 74.1984C108.9 73.4984 108.6 73.0984 108 73.0984C107.4 73.0984 107.1 73.4984 107.1 74.1984C107.1 74.8984 107.4 75.2984 108 75.2984Z" fill="#A0A0A0"/>
<path d="M115.3 75.7C114.7 75.8 114.2 75.9 113.7 75.9C112.5 75.9 111.9 75.3 111.9 74C111.9 72.8 112.5 72.3 113.6 72.3C113.8 72.3 114.1 72.4 114.4 72.5V71H115.3V75.7ZM114.3 73.3C114.1 73.2 113.9 73.1 113.6 73.1C113 73.1 112.7 73.4 112.7 74.1C112.7 74.9 113 75.2 113.6 75.2C113.8 75.2 114.1 75.2 114.3 75.1V73.3Z" fill="#A0A0A0"/>
<path d="M117.7 72.3008C118.8 72.3008 119.4 72.9008 119.4 74.0008C119.4 74.1008 119.4 74.3008 119.4 74.4008H117C117 74.9008 117.4 75.2008 118.1 75.2008C118.5 75.2008 118.8 75.2008 119.2 75.1008V75.8008C118.9 75.9008 118.5 75.9008 118 75.9008C116.7 75.9008 116 75.3008 116 74.0008C116 72.9008 116.5 72.3008 117.7 72.3008ZM116.9 73.8008H118.4C118.4 73.3008 118.1 73.0008 117.6 73.0008C117.2 73.1008 116.9 73.3008 116.9 73.8008Z" fill="#A0A0A0"/>
<path d="M121.4 74.8008C121.4 74.1008 121.9 73.7008 123 73.7008C123.2 73.7008 123.5 73.7008 123.7 73.8008V73.5008C123.7 73.2008 123.5 73.0008 123 73.0008C122.6 73.0008 122.2 73.1008 121.7 73.2008V72.5008C122.2 72.4008 122.6 72.3008 123 72.3008C124.1 72.3008 124.6 72.7008 124.6 73.5008V76.0008H124.1L123.8 75.7008C123.5 75.9008 123.1 76.0008 122.8 76.0008C121.8 76.0008 121.4 75.6008 121.4 74.8008ZM123 74.4008C122.6 74.4008 122.3 74.5008 122.3 74.8008C122.3 75.1008 122.5 75.3008 122.9 75.3008C123.2 75.3008 123.5 75.2008 123.7 75.0008V74.4008C123.5 74.4008 123.2 74.4008 123 74.4008Z" fill="#A0A0A0"/>
<path d="M126.4 71V76H125.5V71H126.4Z" fill="#A0A0A0"/>
<path d="M130.5 72.3008V76.0008H129.8L129.7 75.5008C129.3 75.8008 128.8 76.0008 128.4 76.0008C127.7 76.0008 127.3 75.6008 127.3 74.7008V72.4008H128.2V74.7008C128.2 75.1008 128.4 75.3008 128.7 75.3008C129 75.3008 129.3 75.2008 129.6 74.9008V72.4008H130.5V72.3008Z" fill="#A0A0A0"/>
<path d="M131.4 75.9984V72.3984H132.1L132.2 72.8984C132.5 72.4984 132.9 72.3984 133.4 72.3984C133.9 72.3984 134.2 72.5984 134.3 72.8984C134.7 72.5984 135.1 72.3984 135.5 72.3984C136.3 72.3984 136.8 72.8984 136.8 73.7984V75.9984H135.9V73.6984C135.9 73.2984 135.7 73.0984 135.4 73.0984C135.1 73.0984 134.9 73.1984 134.6 73.4984V75.9984H133.7V73.6984C133.7 73.2984 133.5 73.0984 133.2 73.0984C132.9 73.0984 132.7 73.1984 132.4 73.4984V75.9984H131.4Z" fill="#A0A0A0"/>
<path d="M137.6 75.9984V72.3984H138.3L138.4 72.8984C138.7 72.4984 139.1 72.3984 139.6 72.3984C140.5 72.3984 140.9 72.7984 140.9 73.6984V75.9984H140V73.6984C140 73.2984 139.8 73.0984 139.4 73.0984C139.1 73.0984 138.8 73.1984 138.5 73.4984V75.9984H137.6Z" fill="#A0A0A0"/>
<path d="M141.6 74.1984C141.6 72.9984 142.2 72.3984 143.4 72.3984C144.6 72.3984 145.2 72.9984 145.2 74.1984C145.2 75.3984 144.6 75.9984 143.4 75.9984C142.2 75.9984 141.6 75.3984 141.6 74.1984ZM143.4 75.2984C144 75.2984 144.3 74.8984 144.3 74.1984C144.3 73.4984 144 73.0984 143.4 73.0984C142.8 73.0984 142.5 73.4984 142.5 74.1984C142.5 74.8984 142.8 75.2984 143.4 75.2984Z" fill="#A0A0A0"/>
<path d="M87.3999 80.5H90.8999V81.2L88.6999 85.4H87.6999L89.9999 81.3H87.3999V80.5Z" fill="#A0A0A0"/>
<path d="M92 85.4008V81.2008H91.5V80.8008L92.9 80.3008V85.3008H92V85.4008Z" fill="#A0A0A0"/>
<path d="M93.7998 80.5H97.2998V81.2L95.0998 85.4H94.0998L96.3998 81.3H93.7998V80.5Z" fill="#A0A0A0"/>
<path d="M100.6 85.4023H99.6997V84.3023H97.1997V83.6023L99.1997 80.4023H100.2L98.1997 83.5023H99.5997V82.0023H100.5V83.7023L101 84.2023V84.5023H100.5V85.4023H100.6Z" fill="#A0A0A0"/>
<path d="M102.1 85.4008V81.2008H101.6V80.8008L103 80.3008V85.3008H102.1V85.4008Z" fill="#A0A0A0"/>
<path d="M103.9 84C103.9 83.5 104.1 83.1 104.6 82.9C104.2 82.7 104 82.3 104 81.8C104 81 104.6 80.5 105.8 80.5C107 80.5 107.6 80.9 107.6 81.8C107.6 82.3 107.4 82.7 107 82.9C107.5 83.1 107.8 83.5 107.8 84C107.8 85 107.2 85.5 105.9 85.5C104.6 85.5 103.9 85 103.9 84ZM106.9 84C106.9 83.5 106.6 83.3 105.9 83.3C105.2 83.3 104.9 83.5 104.9 84C104.9 84.5 105.3 84.7 106 84.7C106.5 84.7 106.9 84.4 106.9 84ZM106.7 81.8C106.7 81.4 106.4 81.2 105.8 81.2C105.2 81.2 104.9 81.4 104.9 81.8C104.9 82.2 105.2 82.4 105.8 82.4C106.4 82.4 106.7 82.2 106.7 81.8Z" fill="#A0A0A0"/>
<path d="M108.4 80.7C108.9 80.6 109.3 80.5 109.9 80.5C111.1 80.5 111.7 80.9 111.7 81.8C111.7 82.3 111.5 82.7 111.1 82.9C111.5 83.1 111.7 83.5 111.7 84C111.7 84.9 111.1 85.4 109.9 85.4C109.4 85.4 108.9 85.3 108.4 85.2V84.4C108.9 84.6 109.3 84.6 109.9 84.6C110.5 84.6 110.8 84.4 110.8 83.9C110.8 83.5 110.6 83.3 110.1 83.3H108.9V82.5H110.1C110.5 82.5 110.8 82.3 110.8 81.9C110.8 81.5 110.5 81.2 109.9 81.2C109.4 81.2 108.9 81.3 108.4 81.4V80.7Z" fill="#A0A0A0"/>
<path d="M112.2 83C112.2 81.3 112.9 80.5 114.4 80.5C115.8 80.5 116.6 81.3 116.6 83C116.6 84.7 115.9 85.5 114.4 85.5C112.9 85.5 112.2 84.6 112.2 83ZM114.4 84.7C115.2 84.7 115.6 84.1 115.6 83C115.6 81.9 115.2 81.3 114.4 81.3C113.6 81.3 113.1 81.9 113.1 83C113.2 84.1 113.6 84.7 114.4 84.7Z" fill="#A0A0A0"/>
<path d="M310.5 3.10156H81.5V29.2016H310.5V3.10156Z" fill="white"/>
<path d="M310.5 0H81.5V4.4H310.5V0Z" fill="#005FAB"/>
<path d="M288.4 15.1992H104.3V18.3992H288.4V15.1992Z" fill="#D0DEE8"/>
<path d="M104.3 21.8008C107.061 21.8008 109.3 19.5622 109.3 16.8008C109.3 14.0394 107.061 11.8008 104.3 11.8008C101.538 11.8008 99.2998 14.0394 99.2998 16.8008C99.2998 19.5622 101.538 21.8008 104.3 21.8008Z" fill="#D0DEE8"/>
<path d="M104.3 20.3008C106.233 20.3008 107.8 18.7338 107.8 16.8008C107.8 14.8678 106.233 13.3008 104.3 13.3008C102.367 13.3008 100.8 14.8678 100.8 16.8008C100.8 18.7338 102.367 20.3008 104.3 20.3008Z" fill="#009611"/>
<path d="M150.3 21.8008C153.061 21.8008 155.3 19.5622 155.3 16.8008C155.3 14.0394 153.061 11.8008 150.3 11.8008C147.538 11.8008 145.3 14.0394 145.3 16.8008C145.3 19.5622 147.538 21.8008 150.3 21.8008Z" fill="#D0DEE8"/>
<path d="M150.3 20.3008C152.233 20.3008 153.8 18.7338 153.8 16.8008C153.8 14.8678 152.233 13.3008 150.3 13.3008C148.367 13.3008 146.8 14.8678 146.8 16.8008C146.8 18.7338 148.367 20.3008 150.3 20.3008Z" fill="#009611"/>
<path d="M196.3 21.8008C199.061 21.8008 201.3 19.5622 201.3 16.8008C201.3 14.0394 199.061 11.8008 196.3 11.8008C193.538 11.8008 191.3 14.0394 191.3 16.8008C191.3 19.5622 193.538 21.8008 196.3 21.8008Z" fill="#D0DEE8"/>
<path d="M196.3 20.3008C198.233 20.3008 199.8 18.7338 199.8 16.8008C199.8 14.8678 198.233 13.3008 196.3 13.3008C194.367 13.3008 192.8 14.8678 192.8 16.8008C192.8 18.7338 194.367 20.3008 196.3 20.3008Z" fill="#009611"/>
<path d="M242.3 21.8008C245.061 21.8008 247.3 19.5622 247.3 16.8008C247.3 14.0394 245.061 11.8008 242.3 11.8008C239.538 11.8008 237.3 14.0394 237.3 16.8008C237.3 19.5622 239.538 21.8008 242.3 21.8008Z" fill="#D0DEE8"/>
<path d="M242.3 20.3008C244.233 20.3008 245.8 18.7338 245.8 16.8008C245.8 14.8678 244.233 13.3008 242.3 13.3008C240.367 13.3008 238.8 14.8678 238.8 16.8008C238.8 18.7338 240.367 20.3008 242.3 20.3008Z" fill="#34B7CE"/>
<path d="M288.3 21.8008C291.061 21.8008 293.3 19.5622 293.3 16.8008C293.3 14.0394 291.061 11.8008 288.3 11.8008C285.538 11.8008 283.3 14.0394 283.3 16.8008C283.3 19.5622 285.538 21.8008 288.3 21.8008Z" fill="#D0DEE8"/>
<path d="M288.3 20.3008C290.233 20.3008 291.8 18.7338 291.8 16.8008C291.8 14.8678 290.233 13.3008 288.3 13.3008C286.367 13.3008 284.8 14.8678 284.8 16.8008C284.8 18.7338 286.367 20.3008 288.3 20.3008Z" fill="#34B7CE"/>
<path d="M196.3 15.1992H104.3V18.3992H196.3V15.1992Z" fill="#009611"/>
<path d="M91.1999 51.3008V52.2008H88.4999V53.5008H90.9999V54.4008H88.3999V55.8008H91.0999V56.7008H87.3999V51.4008H91.1999V51.3008Z" fill="#232323"/>
<path d="M92.1001 56.7008V52.8008H92.9001L93.0001 53.4008C93.4001 53.0008 93.8001 52.8008 94.3001 52.8008C94.8001 52.8008 95.1001 53.0008 95.3001 53.3008C95.7001 52.9008 96.1001 52.8008 96.6001 52.8008C97.5001 52.8008 98.0001 53.3008 98.0001 54.3008V56.7008H97.0001V54.2008C97.0001 53.8008 96.8001 53.5008 96.4001 53.5008C96.1001 53.5008 95.8001 53.6008 95.6001 53.9008V56.6008H94.6001V54.1008C94.6001 53.7008 94.4001 53.4008 94.1001 53.4008C93.8001 53.4008 93.5001 53.5008 93.3001 53.8008V56.5008H92.1001V56.7008Z" fill="#232323"/>
<path d="M98.7998 52.8992C99.2998 52.7992 99.8998 52.6992 100.5 52.6992C101.8 52.6992 102.5 53.2992 102.5 54.5992C102.5 55.9992 101.9 56.6992 100.6 56.6992C100.3 56.6992 100.1 56.5992 99.7998 56.4992V58.0992H98.7998V52.8992ZM99.7998 55.5992C99.9998 55.6992 100.3 55.7992 100.6 55.7992C101.2 55.7992 101.5 55.3992 101.5 54.5992C101.5 53.8992 101.2 53.4992 100.5 53.4992C100.2 53.4992 99.9998 53.4992 99.7998 53.5992V55.5992Z" fill="#232323"/>
<path d="M103.2 56.7008V52.8008H104L104.1 53.3008C104.4 53.0008 104.8 52.8008 105.2 52.8008V53.6008C104.8 53.6008 104.5 53.8008 104.2 54.1008V56.8008H103.2V56.7008Z" fill="#232323"/>
<path d="M107.4 52.6992C108.6 52.6992 109.2 53.2992 109.2 54.4992C109.2 54.6992 109.2 54.7992 109.2 54.9992H106.6C106.6 55.5992 107 55.7992 107.8 55.7992C108.2 55.7992 108.6 55.7992 109 55.6992V56.4992C108.7 56.5992 108.2 56.5992 107.7 56.5992C106.3 56.5992 105.6 55.8992 105.6 54.5992C105.6 53.3992 106.2 52.6992 107.4 52.6992ZM106.6 54.2992H108.3C108.3 53.7992 108 53.4992 107.5 53.4992C106.9 53.4992 106.6 53.7992 106.6 54.2992Z" fill="#232323"/>
<path d="M110 56.5008V55.7008C110.4 55.9008 110.9 56.0008 111.5 56.0008C111.9 56.0008 112.1 55.9008 112.1 55.6008C112.1 55.3008 112 55.2008 111.7 55.2008H111C110.2 55.2008 109.8 54.8008 109.8 54.0008C109.8 53.2008 110.4 52.8008 111.5 52.8008C112 52.8008 112.5 52.9008 112.9 53.0008V53.8008C112.5 53.6008 112 53.5008 111.5 53.5008C111 53.5008 110.7 53.6008 110.7 53.9008C110.7 54.2008 110.9 54.3008 111.2 54.3008H111.8C112.7 54.3008 113.1 54.7008 113.1 55.5008C113.1 56.3008 112.5 56.7008 111.4 56.7008C110.9 56.7008 110.4 56.6008 110 56.5008Z" fill="#232323"/>
<path d="M113.6 55.3992C113.6 54.5992 114.2 54.1992 115.3 54.1992C115.6 54.1992 115.8 54.1992 116.1 54.2992V53.9992C116.1 53.5992 115.8 53.4992 115.3 53.4992C114.9 53.4992 114.4 53.5992 113.9 53.6992V52.8992C114.4 52.7992 114.9 52.6992 115.3 52.6992C116.5 52.6992 117.1 53.0992 117.1 53.9992V56.5992H116.5L116.1 56.1992C115.8 56.3992 115.4 56.5992 115 56.5992C114.1 56.6992 113.6 56.1992 113.6 55.3992ZM115.3 54.8992C114.8 54.8992 114.6 55.0992 114.6 55.3992C114.6 55.6992 114.8 55.8992 115.2 55.8992C115.5 55.8992 115.8 55.7992 116.1 55.5992V54.9992C115.9 54.9992 115.6 54.8992 115.3 54.8992Z" fill="#232323"/>
<path d="M87.6001 95.1008V89.8008H88.6001L91.4001 93.7008V89.8008H92.4001V95.1008H91.4001L88.6001 91.1008V95.1008H87.6001Z" fill="#232323"/>
<path d="M93.2002 93.1992C93.2002 91.8992 93.8002 91.1992 95.1002 91.1992C96.4002 91.1992 97.0002 91.8992 97.0002 93.1992C97.0002 94.4992 96.4002 95.1992 95.1002 95.1992C93.8002 95.1992 93.2002 94.4992 93.2002 93.1992ZM95.1002 94.3992C95.7002 94.3992 96.1002 93.9992 96.1002 93.1992C96.1002 92.3992 95.8002 91.9992 95.1002 91.9992C94.4002 91.9992 94.1002 92.3992 94.1002 93.1992C94.2002 93.9992 94.5002 94.3992 95.1002 94.3992Z" fill="#232323"/>
<path d="M97.8003 95.0992V91.1992H98.6003L98.7003 91.7992C99.1003 91.3992 99.5003 91.1992 100 91.1992C100.5 91.1992 100.8 91.3992 101 91.6992C101.4 91.2992 101.8 91.1992 102.3 91.1992C103.2 91.1992 103.7 91.6992 103.7 92.6992V95.0992H102.7V92.5992C102.7 92.1992 102.5 91.8992 102.1 91.8992C101.8 91.8992 101.5 91.9992 101.3 92.2992V94.9992H100.3V92.4992C100.3 92.0992 100.1 91.7992 99.8003 91.7992C99.5003 91.7992 99.2003 91.8992 99.0003 92.1992V94.8992H97.8003V95.0992Z" fill="#232323"/>
<path d="M104.5 89.8008H105.5V91.5008C105.8 91.3008 106.1 91.2008 106.5 91.2008C107.6 91.2008 108.2 91.8008 108.2 93.1008C108.2 94.5008 107.6 95.1008 106.3 95.1008C105.8 95.1008 105.2 95.0008 104.6 94.9008V89.8008H104.5ZM105.5 94.2008C105.7 94.3008 106 94.3008 106.3 94.3008C106.9 94.3008 107.2 93.9008 107.2 93.0008C107.2 92.3008 106.9 92.0008 106.4 92.0008C106.1 92.0008 105.8 92.1008 105.5 92.2008V94.2008Z" fill="#232323"/>
<path d="M109 95.0992V91.1992H109.8L109.9 91.6992C110.2 91.3992 110.6 91.1992 111 91.1992V91.9992C110.6 91.9992 110.3 92.1992 110 92.4992V95.1992H109V95.0992Z" fill="#232323"/>
<path d="M113.1 91.1992C114.3 91.1992 114.9 91.7992 114.9 92.9992C114.9 93.1992 114.9 93.2992 114.9 93.4992H112.3C112.3 94.0992 112.7 94.2992 113.5 94.2992C113.9 94.2992 114.3 94.2992 114.7 94.1992V94.9992C114.4 95.0992 113.9 95.0992 113.4 95.0992C112 95.0992 111.3 94.3992 111.3 93.0992C111.3 91.8992 111.9 91.1992 113.1 91.1992ZM112.3 92.7992H114C114 92.2992 113.7 91.9992 113.2 91.9992C112.6 91.9992 112.3 92.2992 112.3 92.7992Z" fill="#232323"/>
<path d="M120.8 94.9008C120.2 95.1008 119.6 95.1008 119 95.1008C117.7 95.1008 117.1 94.4008 117.1 93.1008C117.1 91.8008 117.7 91.2008 119 91.2008C119.3 91.2008 119.5 91.3008 119.8 91.4008V89.8008H120.8V94.9008ZM119.9 92.2008C119.7 92.1008 119.4 92.0008 119.1 92.0008C118.5 92.0008 118.2 92.3008 118.2 93.0008C118.2 93.8008 118.5 94.2008 119.2 94.2008C119.5 94.2008 119.7 94.2008 119.9 94.1008V92.2008Z" fill="#232323"/>
<path d="M123.4 91.1992C124.6 91.1992 125.2 91.7992 125.2 92.9992C125.2 93.1992 125.2 93.2992 125.2 93.4992H122.6C122.6 94.0992 123 94.2992 123.8 94.2992C124.2 94.2992 124.6 94.2992 125 94.1992V94.9992C124.7 95.0992 124.2 95.0992 123.7 95.0992C122.3 95.0992 121.6 94.3992 121.6 93.0992C121.6 91.8992 122.2 91.1992 123.4 91.1992ZM122.6 92.7992H124.3C124.3 92.2992 124 91.9992 123.5 91.9992C122.9 91.9992 122.6 92.2992 122.6 92.7992Z" fill="#232323"/>
<path d="M127 89.8008V95.1008H126V89.8008H127Z" fill="#232323"/>
<path d="M129.5 90.6016H130.2L130.3 91.2016H131.3V92.0016H130.4V93.8016C130.4 94.2016 130.6 94.3016 130.9 94.3016H131.3V95.1016H130.4C129.7 95.1016 129.4 94.7016 129.4 94.0016V90.6016H129.5Z" fill="#232323"/>
<path d="M133.1 89.8008V90.6008H132.1V89.8008H133.1ZM133.1 91.2008V95.1008H132.1V91.2008H133.1Z" fill="#232323"/>
<path d="M133.9 90.6016H134.6L134.7 91.2016H135.7V92.0016H134.8V93.8016C134.8 94.2016 135 94.3016 135.3 94.3016H135.7V95.1016H134.8C134.1 95.1016 133.8 94.7016 133.8 94.0016V90.6016H133.9Z" fill="#232323"/>
<path d="M140 91.1992V95.0992H139.2L139.1 94.5992C138.6 94.8992 138.2 95.0992 137.7 95.0992C136.9 95.0992 136.5 94.5992 136.5 93.6992V91.1992H137.5V93.6992C137.5 94.0992 137.7 94.3992 138.1 94.3992C138.4 94.3992 138.7 94.2992 139.1 93.9992V91.2992H140V91.1992Z" fill="#232323"/>
<path d="M141.9 89.8008V95.1008H140.9V89.8008H141.9Z" fill="#232323"/>
<path d="M142.7 93.8992C142.7 93.0992 143.3 92.6992 144.4 92.6992C144.7 92.6992 144.9 92.6992 145.2 92.7992V92.4992C145.2 92.0992 144.9 91.9992 144.4 91.9992C144 91.9992 143.5 92.0992 143 92.1992V91.3992C143.5 91.2992 144 91.1992 144.4 91.1992C145.6 91.1992 146.2 91.5992 146.2 92.4992V95.0992H145.6L145.2 94.6992C144.9 94.8992 144.5 95.0992 144.1 95.0992C143.2 95.0992 142.7 94.6992 142.7 93.8992ZM144.4 93.3992C143.9 93.3992 143.7 93.5992 143.7 93.8992C143.7 94.1992 143.9 94.3992 144.3 94.3992C144.6 94.3992 144.9 94.2992 145.2 94.0992V93.4992C144.9 93.4992 144.7 93.3992 144.4 93.3992Z" fill="#232323"/>
<path d="M147.1 95.0992V91.1992H147.9L148 91.6992C148.3 91.3992 148.7 91.1992 149.1 91.1992V91.9992C148.7 91.9992 148.4 92.1992 148.1 92.4992V95.1992H147.1V95.0992Z" fill="#232323"/>
<path d="M118.1 173.199V173.999H115.8V175.199H118V175.999H115.8V178.099H114.9V173.199H118.1Z" fill="#A0A0A0"/>
<path d="M120.3 174.5C121.4 174.5 122 175.1 122 176.2C122 176.3 122 176.5 122 176.6H119.6C119.6 177.1 120 177.4 120.7 177.4C121.1 177.4 121.4 177.4 121.8 177.3V178C121.5 178.1 121.1 178.1 120.6 178.1C119.3 178.1 118.6 177.5 118.6 176.2C118.6 175.1 119.1 174.5 120.3 174.5ZM119.5 176H121C121 175.5 120.7 175.2 120.2 175.2C119.8 175.2 119.5 175.5 119.5 176Z" fill="#A0A0A0"/>
<path d="M125.3 178.098C125 178.198 124.7 178.198 124.4 178.198C123.1 178.198 122.5 177.598 122.5 176.298C122.5 175.098 123.1 174.598 124.4 174.598C124.7 174.598 125 174.598 125.3 174.698V175.398C125 175.298 124.7 175.298 124.4 175.298C123.7 175.298 123.3 175.598 123.3 176.298C123.3 177.098 123.7 177.498 124.4 177.498C124.7 177.498 125 177.498 125.3 177.398V178.098Z" fill="#A0A0A0"/>
<path d="M125.9 178.201V173.301H126.8V175.101C127.1 174.801 127.5 174.601 127.9 174.601C128.8 174.601 129.2 175.001 129.2 175.901V178.201H128.3V175.901C128.3 175.501 128.1 175.301 127.7 175.301C127.4 175.301 127.1 175.401 126.8 175.701V178.201H125.9Z" fill="#A0A0A0"/>
<path d="M129.9 177C129.9 176.3 130.4 175.9 131.5 175.9C131.7 175.9 132 175.9 132.2 176V175.7C132.2 175.4 132 175.2 131.5 175.2C131.1 175.2 130.7 175.3 130.2 175.4V174.7C130.7 174.6 131.1 174.5 131.5 174.5C132.6 174.5 133.1 174.9 133.1 175.7V178.1H132.6L132.3 177.8C132 178 131.6 178.1 131.3 178.1C130.3 178.2 129.9 177.8 129.9 177ZM131.5 176.6C131.1 176.6 130.8 176.7 130.8 177C130.8 177.3 131 177.5 131.4 177.5C131.7 177.5 132 177.4 132.2 177.2V176.6C132 176.6 131.7 176.6 131.5 176.6Z" fill="#A0A0A0"/>
<path d="M138.8 177.899C138.2 177.999 137.7 178.099 137.2 178.099C136 178.099 135.4 177.499 135.4 176.199C135.4 174.999 136 174.499 137.1 174.499C137.3 174.499 137.6 174.599 137.9 174.699V173.199H138.8V177.899ZM137.8 175.499C137.6 175.399 137.4 175.299 137.1 175.299C136.5 175.299 136.2 175.599 136.2 176.299C136.2 177.099 136.5 177.399 137.1 177.399C137.3 177.399 137.6 177.399 137.8 177.299V175.499Z" fill="#A0A0A0"/>
<path d="M141.2 174.5C142.3 174.5 142.9 175.1 142.9 176.2C142.9 176.3 142.9 176.5 142.9 176.6H140.5C140.5 177.1 140.9 177.4 141.6 177.4C142 177.4 142.3 177.4 142.7 177.3V178C142.4 178.1 142 178.1 141.5 178.1C140.2 178.1 139.5 177.5 139.5 176.2C139.4 175.1 140 174.5 141.2 174.5ZM140.4 176H141.9C141.9 175.5 141.6 175.2 141.1 175.2C140.7 175.2 140.4 175.5 140.4 176Z" fill="#A0A0A0"/>
<path d="M144.6 174.5H145.6L146.5 177L147.4 174.5H148.4L146.9 178.1H146L144.6 174.5Z" fill="#A0A0A0"/>
<path d="M150.3 174.5C151.4 174.5 152 175.1 152 176.2C152 176.3 152 176.5 152 176.6H149.6C149.6 177.1 150 177.4 150.7 177.4C151.1 177.4 151.4 177.4 151.8 177.3V178C151.5 178.1 151.1 178.1 150.6 178.1C149.3 178.1 148.6 177.5 148.6 176.2C148.6 175.1 149.2 174.5 150.3 174.5ZM149.5 176H151C151 175.5 150.7 175.2 150.2 175.2C149.8 175.2 149.6 175.5 149.5 176Z" fill="#A0A0A0"/>
<path d="M152.7 178.198V174.598H153.4L153.5 175.098C153.8 174.698 154.2 174.598 154.7 174.598C155.6 174.598 156 174.998 156 175.898V178.198H155V175.898C155 175.498 154.8 175.298 154.4 175.298C154.1 175.298 153.8 175.398 153.5 175.698V178.198H152.7Z" fill="#A0A0A0"/>
<path d="M159.5 178.098C159.2 178.198 158.9 178.198 158.6 178.198C157.3 178.198 156.7 177.598 156.7 176.298C156.7 175.098 157.3 174.598 158.6 174.598C158.9 174.598 159.2 174.598 159.5 174.698V175.398C159.2 175.298 158.9 175.298 158.6 175.298C157.9 175.298 157.5 175.598 157.5 176.298C157.5 177.098 157.9 177.498 158.6 177.498C158.9 177.498 159.2 177.498 159.5 177.398V178.098Z" fill="#A0A0A0"/>
<path d="M161 173.199V173.899H160.1V173.199H161ZM161 174.499V178.099H160.1V174.499H161Z" fill="#A0A0A0"/>
<path d="M161.9 178.198V174.598H162.6L162.7 175.098C163 174.698 163.4 174.598 163.9 174.598C164.4 174.598 164.7 174.798 164.8 175.098C165.2 174.798 165.6 174.598 166 174.598C166.8 174.598 167.3 175.098 167.3 175.998V178.298H166.4V175.998C166.4 175.598 166.2 175.398 165.9 175.398C165.6 175.398 165.4 175.498 165.1 175.798V178.298H164.2V175.998C164.2 175.598 164 175.398 163.7 175.398C163.4 175.398 163.2 175.498 162.9 175.798V178.298H161.9V178.198Z" fill="#A0A0A0"/>
<path d="M169 173.199V173.899H168.1V173.199H169ZM169 174.499V178.099H168.1V174.499H169Z" fill="#A0A0A0"/>
<path d="M171.4 174.5C172.5 174.5 173.1 175.1 173.1 176.2C173.1 176.3 173.1 176.5 173.1 176.6H170.7C170.7 177.1 171.1 177.4 171.8 177.4C172.2 177.4 172.5 177.4 172.9 177.3V178C172.6 178.1 172.2 178.1 171.7 178.1C170.4 178.1 169.7 177.5 169.7 176.2C169.7 175.1 170.3 174.5 171.4 174.5ZM170.6 176H172.1C172.1 175.5 171.8 175.2 171.3 175.2C170.9 175.2 170.6 175.5 170.6 176Z" fill="#A0A0A0"/>
<path d="M173.7 178.198V174.598H174.4L174.5 175.098C174.8 174.698 175.2 174.598 175.7 174.598C176.6 174.598 177 174.998 177 175.898V178.198H176.1V175.898C176.1 175.498 175.9 175.298 175.5 175.298C175.2 175.298 174.9 175.398 174.6 175.698V178.198H173.7Z" fill="#A0A0A0"/>
<path d="M177.8 173.898H178.5L178.6 174.498H179.5V175.198H178.7V176.898C178.7 177.198 178.8 177.398 179.1 177.398H179.5V178.098H178.7C178.1 178.098 177.8 177.798 177.8 177.098V173.898Z" fill="#A0A0A0"/>
<path d="M180 176.3C180 175.1 180.6 174.5 181.8 174.5C183 174.5 183.6 175.1 183.6 176.3C183.6 177.5 183 178.1 181.8 178.1C180.6 178.2 180 177.6 180 176.3ZM181.8 177.5C182.4 177.5 182.7 177.1 182.7 176.4C182.7 175.7 182.4 175.3 181.8 175.3C181.2 175.3 180.9 175.7 180.9 176.4C180.9 177.1 181.2 177.5 181.8 177.5Z" fill="#A0A0A0"/>
<path d="M185.2 174.5V175.3H184.3V174.5H185.2ZM185.2 177.3V178.1H184.3V177.3H185.2Z" fill="#A0A0A0"/>
<path d="M242.3 178.202V174.002H241.8V173.602L243.2 173.102V178.102H242.3V178.202Z" fill="#A0A0A0"/>
<path d="M244.7 178.202V174.002H244.2V173.602L245.6 173.102V178.102H244.7V178.202Z" fill="#A0A0A0"/>
<path d="M247.3 178.201H246.3L248.8 173.301H249.8L247.3 178.201Z" fill="#A0A0A0"/>
<path d="M250.2 175.703C250.2 174.003 250.9 173.203 252.4 173.203C253.8 173.203 254.6 174.003 254.6 175.703C254.6 177.403 253.9 178.203 252.4 178.203C250.9 178.203 250.2 177.403 250.2 175.703ZM252.4 177.403C253.2 177.403 253.6 176.803 253.6 175.703C253.6 174.603 253.2 174.003 252.4 174.003C251.6 174.003 251.1 174.603 251.1 175.703C251.2 176.803 251.6 177.403 252.4 177.403Z" fill="#A0A0A0"/>
<path d="M255.2 176.703C255.2 176.203 255.4 175.803 255.9 175.603C255.5 175.403 255.3 175.003 255.3 174.503C255.3 173.703 255.9 173.203 257.1 173.203C258.3 173.203 258.9 173.603 258.9 174.503C258.9 175.003 258.7 175.403 258.3 175.603C258.8 175.803 259.1 176.203 259.1 176.703C259.1 177.703 258.5 178.203 257.2 178.203C255.8 178.203 255.2 177.703 255.2 176.703ZM258.1 176.703C258.1 176.203 257.8 176.003 257.1 176.003C256.4 176.003 256.1 176.203 256.1 176.703C256.1 177.203 256.5 177.403 257.2 177.403C257.8 177.403 258.1 177.203 258.1 176.703ZM258 174.503C258 174.103 257.7 173.903 257.1 173.903C256.5 173.903 256.2 174.103 256.2 174.503C256.2 174.903 256.5 175.103 257.1 175.103C257.7 175.203 258 175.003 258 174.503Z" fill="#A0A0A0"/>
<path d="M260.4 178.201H259.4L261.9 173.301H262.9L260.4 178.201Z" fill="#A0A0A0"/>
<path d="M263.3 178.201V177.501C264.9 176.401 265.8 175.401 265.8 174.701C265.8 174.201 265.5 174.001 264.9 174.001C264.4 174.001 263.9 174.101 263.5 174.401V173.601C263.9 173.401 264.4 173.301 264.9 173.301C266.1 173.301 266.7 173.801 266.7 174.801C266.7 175.701 266 176.601 264.7 177.501H266.7V178.301H263.3V178.201Z" fill="#A0A0A0"/>
<path d="M267.4 175.703C267.4 174.003 268.1 173.203 269.6 173.203C271 173.203 271.8 174.003 271.8 175.703C271.8 177.403 271.1 178.203 269.6 178.203C268.1 178.203 267.4 177.403 267.4 175.703ZM269.6 177.403C270.4 177.403 270.8 176.803 270.8 175.703C270.8 174.603 270.4 174.003 269.6 174.003C268.8 174.003 268.3 174.603 268.3 175.703C268.3 176.803 268.7 177.403 269.6 177.403Z" fill="#A0A0A0"/>
<path d="M272.4 178.201V177.501C274 176.401 274.9 175.401 274.9 174.701C274.9 174.201 274.6 174.001 274 174.001C273.5 174.001 273 174.101 272.6 174.401V173.601C273 173.401 273.5 173.301 274 173.301C275.2 173.301 275.8 173.801 275.8 174.801C275.8 175.701 275.1 176.601 273.8 177.501H275.8V178.301H272.4V178.201Z" fill="#A0A0A0"/>
<path d="M276.5 178.201V177.501C278.1 176.401 279 175.401 279 174.701C279 174.201 278.7 174.001 278.1 174.001C277.6 174.001 277.1 174.101 276.7 174.401V173.601C277.1 173.401 277.6 173.301 278.1 173.301C279.3 173.301 279.9 173.801 279.9 174.801C279.9 175.701 279.2 176.601 277.9 177.501H279.9V178.301H276.5V178.201Z" fill="#A0A0A0"/>
<path d="M248.2 151.202V150.402C248.7 150.602 249.3 150.702 249.9 150.702C250.7 150.702 251 150.402 251 149.902C251 149.502 250.8 149.302 250.3 149.302H249.5C248.5 149.302 248 148.802 248 147.902C248 146.902 248.7 146.402 250.2 146.402C250.8 146.402 251.3 146.502 251.8 146.602V147.402C251.3 147.202 250.8 147.102 250.2 147.102C249.4 147.102 249 147.302 249 147.802C249 148.202 249.2 148.402 249.6 148.402H250.4C251.5 148.402 252 148.902 252 149.802C252 150.802 251.3 151.402 249.9 151.402C249.2 151.502 248.7 151.402 248.2 151.202Z" fill="#00B7E6"/>
<path d="M253.2 151.4H252.2L254.7 146.5H255.7L253.2 151.4Z" fill="#00B7E6"/>
<path d="M258.2 151.401V147.201H257.7V146.801L259.1 146.301V151.301H258.2V151.401Z" fill="#00B7E6"/>
<path d="M260.1 146.7C260.6 146.6 261 146.5 261.6 146.5C262.8 146.5 263.4 146.9 263.4 147.8C263.4 148.3 263.2 148.7 262.8 148.9C263.2 149.1 263.4 149.5 263.4 150C263.4 150.9 262.8 151.4 261.6 151.4C261.1 151.4 260.6 151.3 260.1 151.2V150.4C260.6 150.6 261 150.6 261.6 150.6C262.2 150.6 262.5 150.4 262.5 149.9C262.5 149.5 262.3 149.3 261.8 149.3H260.6V148.5H261.8C262.2 148.5 262.5 148.3 262.5 147.9C262.5 147.5 262.2 147.2 261.6 147.2C261.1 147.2 260.6 147.3 260.1 147.4V146.7Z" fill="#00B7E6"/>
<path d="M263.9 149C263.9 147.3 264.6 146.5 266.1 146.5C267.5 146.5 268.3 147.3 268.3 149C268.3 150.7 267.6 151.5 266.1 151.5C264.7 151.5 263.9 150.6 263.9 149ZM266.1 150.7C266.9 150.7 267.3 150.1 267.3 149C267.3 147.9 266.9 147.3 266.1 147.3C265.3 147.3 264.8 147.9 264.8 149C264.9 150.1 265.3 150.7 266.1 150.7Z" fill="#00B7E6"/>
<path d="M269.9 150.602V151.402H269V150.602H269.9Z" fill="#00B7E6"/>
<path d="M270.5 149C270.5 147.3 271.2 146.5 272.7 146.5C274.1 146.5 274.9 147.3 274.9 149C274.9 150.7 274.2 151.5 272.7 151.5C271.3 151.5 270.5 150.6 270.5 149ZM272.7 150.7C273.5 150.7 273.9 150.1 273.9 149C273.9 147.9 273.5 147.3 272.7 147.3C271.9 147.3 271.4 147.9 271.4 149C271.5 150.1 271.9 150.7 272.7 150.7Z" fill="#00B7E6"/>
<path d="M275.5 149C275.5 147.3 276.2 146.5 277.7 146.5C279.1 146.5 279.9 147.3 279.9 149C279.9 150.7 279.2 151.5 277.7 151.5C276.3 151.5 275.5 150.6 275.5 149ZM277.7 150.7C278.5 150.7 278.9 150.1 278.9 149C278.9 147.9 278.5 147.3 277.7 147.3C276.9 147.3 276.4 147.9 276.4 149C276.5 150.1 276.9 150.7 277.7 150.7Z" fill="#00B7E6"/>
<path d="M300.2 254.802H91.7998C89.7998 254.802 88.2998 253.202 88.2998 251.302V235.602C88.2998 233.602 89.8998 232.102 91.7998 232.102H300.1C302.1 232.102 303.6 233.702 303.6 235.602V251.302C303.7 253.302 302.1 254.802 300.2 254.802Z" fill="#F9F9F9"/>
<path d="M291.9 246.2L295.7 242.5H288.1L291.9 246.2Z" fill="#232323"/>
<path d="M98 246.002C97.5 246.202 97 246.302 96.4 246.302C94.5 246.302 93.5 245.402 93.5 243.502C93.5 241.702 94.5 240.902 96.4 240.902C97 240.902 97.5 241.002 98 241.202V242.102C97.5 241.902 97 241.802 96.5 241.802C95.2 241.802 94.6 242.402 94.6 243.602C94.6 244.902 95.2 245.502 96.5 245.502C97 245.502 97.5 245.402 98 245.202V246.002Z" fill="#232323"/>
<path d="M98.8999 244.102V240.902H99.8999V244.102C99.8999 245.002 100.3 245.402 101.2 245.402C102.1 245.402 102.5 245.002 102.5 244.102V240.902H103.5V244.102C103.5 245.502 102.7 246.202 101.2 246.202C99.6999 246.202 98.8999 245.602 98.8999 244.102Z" fill="#232323"/>
<path d="M108.3 240.902V241.802H105.6V243.102H108.1V244.002H105.5V245.402H108.2V246.302H104.5V241.002H108.3V240.902Z" fill="#232323"/>
<path d="M109.3 246.202V240.902H110.3L113.1 244.802V240.902H114.1V246.202H113.1L110.3 242.202V246.202H109.3Z" fill="#232323"/>
<path d="M118.7 240.902V241.802H117.2V246.302H116.2V241.802H114.7V240.902H118.7Z" fill="#232323"/>
<path d="M119.2 246.202H118.2L120.5 240.902H121.6L123.9 246.202H122.8L122.2 244.702H120.4L120.7 243.802H121.8L121 241.802L119.2 246.202Z" fill="#232323"/>
<path d="M126.1 246.002V245.102C126.6 245.302 127.2 245.402 127.9 245.402C128.7 245.402 129.1 245.102 129.1 244.602C129.1 244.202 128.8 244.002 128.3 244.002H127.5C126.4 244.002 125.9 243.502 125.9 242.502C125.9 241.402 126.7 240.902 128.2 240.902C128.8 240.902 129.4 241.002 129.9 241.202V242.102C129.4 241.902 128.8 241.802 128.2 241.802C127.3 241.802 126.9 242.102 126.9 242.602C126.9 243.002 127.1 243.202 127.6 243.202H128.4C129.6 243.202 130.1 243.702 130.1 244.702C130.1 245.802 129.4 246.402 127.9 246.402C127.2 246.302 126.6 246.202 126.1 246.002Z" fill="#232323"/>
<path d="M131 244.102V240.902H132V244.102C132 245.002 132.4 245.402 133.3 245.402C134.2 245.402 134.6 245.002 134.6 244.102V240.902H135.6V244.102C135.6 245.502 134.8 246.202 133.3 246.202C131.8 246.202 131 245.602 131 244.102Z" fill="#232323"/>
<path d="M140.4 240.902V241.802H137.7V243.102H140.2V244.002H137.6V245.402H140.3V246.302H136.6V241.002H140.4V240.902Z" fill="#232323"/>
<path d="M142.3 240.902V245.402H144.4V246.302H141.3V241.002H142.3V240.902Z" fill="#232323"/>
<path d="M145.4 246.202V240.902H147.5C149.3 240.902 150.2 241.702 150.2 243.402C150.2 245.302 149.3 246.202 147.5 246.202H145.4ZM147.5 245.402C148.6 245.402 149.2 244.702 149.2 243.402C149.2 242.302 148.6 241.702 147.5 241.702H146.4V245.302H147.5V245.402Z" fill="#232323"/>
<path d="M150.8 243.602C150.8 241.802 151.7 240.902 153.5 240.902C155.3 240.902 156.1 241.802 156.1 243.602C156.1 245.402 155.2 246.302 153.5 246.302C151.8 246.302 150.9 245.402 150.8 243.602ZM153.5 245.402C154.6 245.402 155.1 244.802 155.1 243.502C155.1 242.302 154.6 241.702 153.5 241.702C152.4 241.702 151.8 242.302 151.8 243.502C151.8 244.802 152.4 245.402 153.5 245.402Z" fill="#232323"/>
<path d="M159.4 240.902H160L159.9 241.802L160.7 241.402L160.9 241.902L160 242.102L160.6 242.702L160.1 243.002L159.7 242.202L159.3 243.002L158.8 242.702L159.4 242.102L158.5 241.902L158.7 241.302L159.5 241.702L159.4 240.902Z" fill="#232323"/>
<path d="M165.1 246.202H164.1V245.002H161.4V244.302L163.6 240.902H164.7L162.6 244.302H164.2V242.502H165.2V244.302L165.8 244.802V245.102H165.2V246.202H165.1Z" fill="#232323"/>
<path d="M166.1 246.201V245.501C167.9 244.301 168.8 243.301 168.8 242.501C168.8 242.001 168.5 241.701 167.8 241.701C167.3 241.701 166.7 241.801 166.2 242.101V241.201C166.7 240.901 167.2 240.801 167.8 240.801C169.1 240.801 169.8 241.301 169.8 242.401C169.8 243.301 169.1 244.301 167.7 245.401H169.8V246.301H166.1V246.201Z" fill="#232323"/>
<path d="M174.1 246.202H173.1V245.002H170.4V244.302L172.6 240.902H173.7L171.6 244.302H173.2V242.502H174.2V244.302L174.8 244.802V245.102H174.2V246.202H174.1Z" fill="#232323"/>
<path d="M175.1 246.201V245.501C176.9 244.301 177.8 243.301 177.8 242.501C177.8 242.001 177.5 241.701 176.8 241.701C176.3 241.701 175.7 241.801 175.2 242.101V241.201C175.7 240.901 176.2 240.801 176.8 240.801C178.1 240.801 178.8 241.301 178.8 242.401C178.8 243.301 178.1 244.301 176.7 245.401H178.8V246.301H175.1V246.201Z" fill="#232323"/>
<path d="M184.1 240.902V247.702H183.1V240.902H184.1Z" fill="#232323"/>
<path d="M188.5 246.202V240.902H190.6C192.4 240.902 193.3 241.702 193.3 243.402C193.3 245.302 192.4 246.202 190.6 246.202H188.5ZM190.6 245.402C191.7 245.402 192.3 244.702 192.3 243.402C192.3 242.302 191.7 241.702 190.6 241.702H189.5V245.302H190.6V245.402Z" fill="#232323"/>
<path d="M195 240.902V241.702H194V240.902H195ZM195 242.302V246.202H194V242.302H195Z" fill="#232323"/>
<path d="M196 246.102V245.302C196.4 245.502 196.9 245.602 197.5 245.602C197.9 245.602 198.1 245.502 198.1 245.202C198.1 244.902 198 244.802 197.7 244.802H197C196.2 244.802 195.8 244.402 195.8 243.602C195.8 242.802 196.4 242.402 197.5 242.402C198 242.402 198.5 242.502 198.9 242.602V243.402C198.5 243.202 198 243.102 197.5 243.102C197 243.102 196.7 243.202 196.7 243.502C196.7 243.802 196.9 243.902 197.2 243.902H197.8C198.7 243.902 199.1 244.302 199.1 245.102C199.1 245.902 198.5 246.302 197.4 246.302C196.9 246.302 196.4 246.202 196 246.102Z" fill="#232323"/>
<path d="M199.8 242.501C200.3 242.401 200.9 242.301 201.5 242.301C202.8 242.301 203.5 242.901 203.5 244.201C203.5 245.601 202.9 246.301 201.6 246.301C201.3 246.301 201.1 246.201 200.8 246.101V247.701H199.8V242.501ZM200.8 245.201C201 245.301 201.3 245.401 201.6 245.401C202.2 245.401 202.5 245.001 202.5 244.201C202.5 243.501 202.2 243.101 201.5 243.101C201.2 243.101 201 243.101 200.8 243.201V245.201Z" fill="#232323"/>
<path d="M205.1 245.301V246.201H204.1V245.301H205.1Z" fill="#232323"/>
<path d="M207.6 246.002V245.102C208.1 245.302 208.7 245.402 209.4 245.402C210.2 245.402 210.6 245.102 210.6 244.602C210.6 244.202 210.3 244.002 209.8 244.002H209C207.9 244.002 207.4 243.502 207.4 242.502C207.4 241.402 208.2 240.902 209.7 240.902C210.3 240.902 210.9 241.002 211.4 241.202V242.102C210.9 241.902 210.3 241.802 209.7 241.802C208.8 241.802 208.4 242.102 208.4 242.602C208.4 243.002 208.6 243.202 209.1 243.202H209.9C211.1 243.202 211.6 243.702 211.6 244.702C211.6 245.802 210.9 246.402 209.4 246.402C208.8 246.302 208.2 246.202 207.6 246.002Z" fill="#232323"/>
<path d="M213.1 246.202H212L214.7 240.902H215.8L213.1 246.202Z" fill="#232323"/>
<path d="M218 246.201V245.501C219.8 244.301 220.7 243.301 220.7 242.501C220.7 242.001 220.4 241.701 219.7 241.701C219.2 241.701 218.6 241.801 218.1 242.101V241.201C218.6 240.901 219.1 240.801 219.7 240.801C221 240.801 221.7 241.301 221.7 242.401C221.7 243.301 221 244.301 219.6 245.401H221.7V246.301H218V246.201Z" fill="#232323"/>
<path d="M222.9 246.201V241.701H222.3V241.301L223.9 240.801V246.301H222.9V246.201Z" fill="#232323"/>
<path d="M228.5 246.202H227.5V245.002H224.8V244.302L227 240.902H228.1L226 244.302H227.6V242.502H228.6V244.302L229.2 244.802V245.102H228.6V246.202H228.5Z" fill="#232323"/>
<path d="M230.5 245.301V246.201H229.5V245.301H230.5Z" fill="#232323"/>
<path d="M231.3 246.201V245.501C233.1 244.301 234 243.301 234 242.501C234 242.001 233.7 241.701 233 241.701C232.5 241.701 231.9 241.801 231.4 242.101V241.201C231.9 240.901 232.4 240.801 233 240.801C234.3 240.801 235 241.301 235 242.401C235 243.301 234.3 244.301 232.9 245.401H235V246.301H231.3V246.201Z" fill="#232323"/>
<path d="M235.6 244.702C235.6 244.102 235.9 243.702 236.4 243.502C236 243.302 235.8 242.902 235.8 242.302C235.8 241.402 236.4 240.902 237.7 240.902C239 240.902 239.6 241.402 239.6 242.302C239.6 242.902 239.4 243.302 238.9 243.502C239.4 243.802 239.7 244.202 239.7 244.702C239.7 245.802 239 246.302 237.6 246.302C236.3 246.302 235.6 245.702 235.6 244.702ZM238.8 244.702C238.8 244.202 238.4 243.902 237.7 243.902C237 243.902 236.6 244.202 236.6 244.702C236.6 245.202 237 245.402 237.8 245.402C238.4 245.402 238.8 245.202 238.8 244.702ZM238.6 242.302C238.6 241.902 238.3 241.702 237.7 241.702C237.1 241.702 236.7 241.902 236.7 242.302C236.7 242.802 237 243.002 237.7 243.002C238.3 243.002 238.6 242.802 238.6 242.302Z" fill="#232323"/>
<path d="M93.8002 158.001C97.4453 158.001 100.4 155.046 100.4 151.401C100.4 147.756 97.4453 144.801 93.8002 144.801C90.1551 144.801 87.2002 147.756 87.2002 151.401C87.2002 155.046 90.1551 158.001 93.8002 158.001Z" fill="#00B7A1"/>
<path d="M97.7001 149.898L93.3001 154.298C93.2001 154.398 93.1001 154.498 92.9001 154.498C92.7001 154.498 92.6001 154.398 92.5001 154.298L89.8001 151.598C89.7001 151.498 89.6001 151.398 89.6001 151.198C89.6001 151.098 89.7001 150.898 89.8001 150.798L90.3001 150.298C90.5001 150.098 90.8001 150.098 91.0001 150.298L92.8001 152.098L96.3001 148.598C96.4001 148.498 96.5001 148.398 96.7001 148.398C96.8001 148.398 97.0001 148.498 97.1001 148.598L97.6001 149.098C97.9001 149.298 97.9001 149.698 97.7001 149.898Z" fill="white"/>
<path d="M118.2 149.402H117.2V148.202H114.5V147.502L116.7 144.102H117.8L115.7 147.502H117.3V145.702H118.3V147.502L118.9 148.002V148.302H118.3V149.402H118.2Z" fill="#232323"/>
<path d="M119.8 149.4V144.9H119.2V144.5L120.8 144V149.5H119.8V149.4Z" fill="#232323"/>
<path d="M123.7 147.102V147.902H121.8V147.102H123.7Z" fill="#232323"/>
<path d="M125 149.4V144.9H124.4V144.5L126 144V149.5H125V149.4Z" fill="#232323"/>
<path d="M131.1 146.1C131.1 147.5 130.2 148.6 128.5 149.6L128 148.8C128.9 148.4 129.5 147.9 129.8 147.3C129.5 147.4 129.2 147.5 128.9 147.5C127.6 147.5 126.9 146.9 126.9 145.8C126.9 144.6 127.6 144 129 144C130.4 144 131.1 144.7 131.1 146.1ZM129.1 144.8C128.4 144.8 128 145.1 128 145.8C128 146.4 128.3 146.7 129 146.7C129.4 146.7 129.8 146.6 130.1 146.5C130.1 146.4 130.2 146.3 130.2 146.1C130.2 145.2 129.8 144.8 129.1 144.8Z" fill="#232323"/>
<path d="M131.5 144.102H135.3V144.902L132.9 149.502H131.8L134.2 145.002H131.4V144.102H131.5Z" fill="#232323"/>
<path d="M135.9 144.302C136.4 144.102 136.9 144.102 137.5 144.102C138.8 144.102 139.5 144.602 139.5 145.602C139.5 146.202 139.3 146.602 138.8 146.802C139.3 147.002 139.5 147.402 139.5 148.002C139.5 149.002 138.8 149.502 137.5 149.502C137 149.502 136.4 149.402 135.9 149.302V148.402C136.4 148.602 136.9 148.702 137.5 148.702C138.2 148.702 138.5 148.402 138.5 147.902C138.5 147.502 138.3 147.202 137.8 147.202H136.5V146.302H137.8C138.3 146.302 138.5 146.102 138.5 145.602C138.5 145.102 138.2 144.902 137.5 144.902C137 144.902 136.4 145.002 135.9 145.202V144.302Z" fill="#232323"/>
<path d="M140.1 144.102H143.9V144.902L141.5 149.502H140.4L142.8 145.002H140V144.102H140.1Z" fill="#232323"/>
<path d="M144.4 147.8C144.4 147.2 144.7 146.8 145.2 146.6C144.8 146.4 144.6 146 144.6 145.4C144.6 144.5 145.2 144 146.5 144C147.8 144 148.4 144.5 148.4 145.4C148.4 146 148.2 146.4 147.7 146.6C148.2 146.9 148.5 147.3 148.5 147.8C148.5 148.9 147.8 149.4 146.4 149.4C145.1 149.5 144.4 148.9 144.4 147.8ZM147.6 147.9C147.6 147.4 147.2 147.1 146.5 147.1C145.8 147.1 145.4 147.4 145.4 147.9C145.4 148.4 145.8 148.6 146.6 148.6C147.2 148.6 147.6 148.3 147.6 147.9ZM147.4 145.5C147.4 145.1 147.1 144.9 146.5 144.9C145.9 144.9 145.5 145.1 145.5 145.5C145.5 146 145.8 146.2 146.5 146.2C147.1 146.2 147.4 146 147.4 145.5Z" fill="#232323"/>
<path d="M151 145.598C151.5 145.498 152.1 145.398 152.7 145.398C154 145.398 154.7 145.998 154.7 147.298C154.7 148.698 154.1 149.398 152.8 149.398C152.5 149.398 152.3 149.298 152 149.198V150.798H151V145.598ZM152 148.398C152.2 148.498 152.5 148.598 152.8 148.598C153.4 148.598 153.7 148.198 153.7 147.398C153.7 146.698 153.4 146.298 152.7 146.298C152.4 146.298 152.2 146.298 152 146.398V148.398Z" fill="#232323"/>
<path d="M157.1 145.5C158.3 145.5 158.9 146.1 158.9 147.3C158.9 147.5 158.9 147.6 158.9 147.8H156.3C156.3 148.4 156.7 148.6 157.5 148.6C157.9 148.6 158.3 148.6 158.7 148.5V149.3C158.4 149.4 157.9 149.4 157.4 149.4C156 149.4 155.3 148.7 155.3 147.4C155.2 146.1 155.9 145.5 157.1 145.5ZM156.2 147.1H157.9C157.9 146.6 157.6 146.3 157.1 146.3C156.6 146.3 156.3 146.5 156.2 147.1Z" fill="#232323"/>
<path d="M159.6 149.4V145.5H160.4L160.5 146.1C160.9 145.7 161.3 145.5 161.8 145.5C162.7 145.5 163.2 146 163.2 147V149.5H162.2V147C162.2 146.6 162 146.3 161.6 146.3C161.3 146.3 161 146.4 160.7 146.7V149.4H159.6Z" fill="#232323"/>
<path d="M164.1 149.2V148.4C164.5 148.6 165 148.7 165.6 148.7C166 148.7 166.2 148.6 166.2 148.3C166.2 148 166.1 147.9 165.8 147.9H165.1C164.3 147.9 163.9 147.5 163.9 146.7C163.9 145.9 164.5 145.5 165.6 145.5C166.1 145.5 166.6 145.6 167 145.7V146.5C166.6 146.3 166.1 146.2 165.6 146.2C165.1 146.2 164.8 146.3 164.8 146.6C164.8 146.9 165 147 165.3 147H165.9C166.8 147 167.2 147.4 167.2 148.2C167.2 149 166.6 149.4 165.5 149.4C165.1 149.5 164.6 149.4 164.1 149.2Z" fill="#232323"/>
<path d="M168.9 144.102V144.902H167.9V144.102H168.9ZM168.9 145.502V149.402H167.9V145.502H168.9Z" fill="#232323"/>
<path d="M169.7 147.5C169.7 146.2 170.3 145.5 171.6 145.5C172.9 145.5 173.5 146.2 173.5 147.5C173.5 148.8 172.9 149.5 171.6 149.5C170.4 149.4 169.7 148.8 169.7 147.5ZM171.6 148.7C172.2 148.7 172.6 148.3 172.6 147.5C172.6 146.7 172.3 146.3 171.6 146.3C170.9 146.3 170.6 146.7 170.6 147.5C170.7 148.3 171 148.7 171.6 148.7Z" fill="#232323"/>
<path d="M174.3 149.4V145.5H175.1L175.2 146.1C175.6 145.7 176 145.5 176.5 145.5C177.4 145.5 177.9 146 177.9 147V149.5H176.9V147C176.9 146.6 176.7 146.3 176.3 146.3C176 146.3 175.7 146.4 175.4 146.7V149.4H174.3Z" fill="#232323"/>
<path d="M180.3 148.2C180.3 147.4 180.9 147 182 147C182.3 147 182.5 147 182.8 147.1V146.8C182.8 146.4 182.5 146.3 182 146.3C181.6 146.3 181.1 146.4 180.6 146.5V145.7C181.1 145.6 181.6 145.5 182 145.5C183.2 145.5 183.8 145.9 183.8 146.8V149.4H183.2L182.8 149C182.5 149.2 182.1 149.4 181.7 149.4C180.8 149.4 180.3 149 180.3 148.2ZM182 147.7C181.5 147.7 181.3 147.9 181.3 148.2C181.3 148.5 181.5 148.7 181.9 148.7C182.2 148.7 182.5 148.6 182.8 148.4V147.8C182.6 147.7 182.3 147.7 182 147.7Z" fill="#232323"/>
<path d="M184.8 149.4V145.5H185.6L185.7 146.1C186.1 145.7 186.5 145.5 187 145.5C187.9 145.5 188.4 146 188.4 147V149.5H187.4V147C187.4 146.6 187.2 146.3 186.8 146.3C186.5 146.3 186.2 146.4 185.9 146.7V149.4H184.8Z" fill="#232323"/>
<path d="M114.7 158.201V157.501C116.5 156.301 117.4 155.301 117.4 154.501C117.4 154.001 117.1 153.701 116.4 153.701C115.9 153.701 115.3 153.801 114.8 154.101V153.201C115.3 152.901 115.8 152.801 116.4 152.801C117.7 152.801 118.4 153.301 118.4 154.401C118.4 155.301 117.7 156.301 116.3 157.401H118.4V158.301H114.7V158.201Z" fill="#232323"/>
<path d="M119 155.501C119 153.701 119.8 152.801 121.4 152.801C123 152.801 123.7 153.701 123.7 155.501C123.7 157.301 122.9 158.201 121.4 158.201C119.8 158.201 119 157.301 119 155.501ZM121.4 157.401C122.3 157.401 122.7 156.801 122.7 155.501C122.7 154.301 122.3 153.701 121.4 153.701C120.5 153.701 120 154.301 120 155.501C120.1 156.701 120.5 157.401 121.4 157.401Z" fill="#232323"/>
<path d="M124.5 158.201V157.501C126.3 156.301 127.2 155.301 127.2 154.501C127.2 154.001 126.9 153.701 126.2 153.701C125.7 153.701 125.1 153.801 124.6 154.101V153.201C125.1 152.901 125.6 152.801 126.2 152.801C127.5 152.801 128.2 153.301 128.2 154.401C128.2 155.301 127.5 156.301 126.1 157.401H128.2V158.301H124.5V158.201Z" fill="#232323"/>
<path d="M128.9 158.201V157.501C130.7 156.301 131.6 155.301 131.6 154.501C131.6 154.001 131.3 153.701 130.6 153.701C130.1 153.701 129.5 153.801 129 154.101V153.201C129.5 152.901 130 152.801 130.6 152.801C131.9 152.801 132.6 153.301 132.6 154.401C132.6 155.301 131.9 156.301 130.5 157.401H132.6V158.301H128.9V158.201Z" fill="#232323"/>
<path d="M134.3 157.301V158.201H133.3V157.301H134.3Z" fill="#232323"/>
<path d="M135 155.501C135 153.701 135.8 152.801 137.4 152.801C139 152.801 139.7 153.701 139.7 155.501C139.7 157.301 138.9 158.201 137.4 158.201C135.8 158.201 135 157.301 135 155.501ZM137.4 157.401C138.3 157.401 138.7 156.801 138.7 155.501C138.7 154.301 138.3 153.701 137.4 153.701C136.5 153.701 136 154.301 136 155.501C136 156.701 136.5 157.401 137.4 157.401Z" fill="#232323"/>
<path d="M140.4 156.601C140.4 156.001 140.7 155.601 141.2 155.401C140.8 155.201 140.6 154.801 140.6 154.201C140.6 153.301 141.2 152.801 142.5 152.801C143.8 152.801 144.4 153.301 144.4 154.201C144.4 154.801 144.2 155.201 143.7 155.401C144.2 155.701 144.5 156.101 144.5 156.601C144.5 157.701 143.8 158.201 142.4 158.201C141.1 158.201 140.4 157.701 140.4 156.601ZM143.6 156.601C143.6 156.101 143.2 155.801 142.5 155.801C141.8 155.801 141.4 156.101 141.4 156.601C141.4 157.101 141.8 157.301 142.6 157.301C143.2 157.401 143.6 157.101 143.6 156.601ZM143.4 154.301C143.4 153.901 143.1 153.701 142.5 153.701C141.9 153.701 141.5 153.901 141.5 154.301C141.5 154.801 141.8 155.001 142.5 155.001C143.1 155.001 143.4 154.701 143.4 154.301Z" fill="#232323"/>
<path d="M288.3 165.8H80V137H288.3V165.8ZM83 162.8H285.3V140H83V162.8Z" fill="#FF4200"/>
</svg>
