<svg width="392" height="262" viewBox="0 0 392 262" fill="none" xmlns="http://www.w3.org/2000/svg">
<path d="M392 0H0V262H392V0Z" fill="#E3E3E3"/>
<path d="M314.1 0H77.9V261.9H314.1V0Z" fill="#F5F5F5"/>
<path d="M283 1.19922H77.9V261.899H283V1.19922Z" fill="white"/>
<path d="M314.2 0H283V35.2H314.2V0Z" fill="#002878"/>
<path d="M283 1.19922H77.9V41.4992H283V1.19922Z" fill="#F5F5F5"/>
<path d="M304.4 16H293.2V17.3H304.4V16Z" fill="white"/>
<path d="M304.4 19.5H293.2V20.8H304.4V19.5Z" fill="white"/>
<path d="M304.4 23H293.2V24.3H304.4V23Z" fill="white"/>
<path d="M260.7 56.6992H257.7V63.7992H260.7V56.6992Z" stroke="#FF4200" stroke-width="0.4424" stroke-miterlimit="10"/>
<path d="M265.2 54.3008H262.2V63.8008H265.2V54.3008Z" stroke="#FF4200" stroke-width="0.4424" stroke-miterlimit="10"/>
<path d="M269.7 51.0996H266.7V63.7996H269.7V51.0996Z" stroke="#FF4200" stroke-width="0.4424" stroke-miterlimit="10"/>
<path d="M94.3 61.1992C93.6 61.3992 92.9 61.4992 92.2 61.4992C89.5 61.4992 88.2 60.1992 88.2 57.4992C88.2 54.9992 89.5 53.6992 92.2 53.6992C93 53.6992 93.7 53.7992 94.3 53.9992V54.8992C93.6 54.5992 93 54.4992 92.3 54.4992C90.2 54.4992 89.2 55.4992 89.2 57.4992C89.2 59.5992 90.2 60.6992 92.3 60.6992C93 60.6992 93.7 60.5992 94.3 60.2992V61.1992Z" fill="#838383"/>
<path d="M95.6 58.5988C95.6 56.6988 96.5 55.7988 98.3 55.7988C100.1 55.7988 101 56.6988 101 58.5988C101 60.4988 100.1 61.3988 98.3 61.3988C96.5 61.3988 95.6 60.4988 95.6 58.5988ZM98.3 60.5988C99.4 60.5988 100 59.8988 100 58.5988C100 57.2988 99.4 56.5988 98.3 56.5988C97.2 56.5988 96.6 57.2988 96.6 58.5988C96.6 59.9988 97.1 60.5988 98.3 60.5988Z" fill="#838383"/>
<path d="M102.3 61.3988V55.7988H103L103.2 56.4988C103.8 55.9988 104.4 55.7988 105.1 55.7988C106.5 55.7988 107.2 56.4988 107.2 57.8988V61.3988H106.2V57.8988C106.2 57.0988 105.8 56.5988 105 56.5988C104.4 56.5988 103.9 56.7988 103.4 57.2988V61.3988H102.3Z" fill="#838383"/>
<path d="M108.7 61.1988V60.2988C109.4 60.4988 110 60.5988 110.7 60.5988C111.6 60.5988 112 60.2988 112 59.7988C112 59.2988 111.7 59.0988 111.1 59.0988H110.3C109.1 59.0988 108.5 58.4988 108.5 57.3988C108.5 56.2988 109.3 55.7988 110.8 55.7988C111.5 55.7988 112.1 55.8988 112.8 56.0988V56.9988C112.1 56.7988 111.5 56.6988 110.8 56.6988C109.9 56.6988 109.4 56.9988 109.4 57.4988C109.4 57.9988 109.7 58.1988 110.3 58.1988H111.1C112.4 58.1988 113 58.7988 113 59.8988C113 60.9988 112.2 61.4988 110.7 61.4988C110 61.3988 109.3 61.3988 108.7 61.1988Z" fill="#838383"/>
<path d="M119.2 55.7988V61.3988H118.5L118.3 60.6988C117.6 61.1988 116.9 61.3988 116.2 61.3988C114.9 61.3988 114.3 60.6988 114.3 59.2988V55.7988H115.3V59.2988C115.3 60.0988 115.7 60.5988 116.5 60.5988C117.1 60.5988 117.6 60.3988 118.1 59.8988V55.7988H119.2Z" fill="#838383"/>
<path d="M121.8 53.7988V61.4988H120.8V53.7988H121.8Z" fill="#838383"/>
<path d="M123.5 54.8984H124.1L124.3 55.7984H125.8V56.5984H124.4V59.7984C124.4 60.2984 124.6 60.5984 125.1 60.5984H125.8V61.3984H124.9C124 61.3984 123.5 60.8984 123.5 59.8984V54.8984Z" fill="#838383"/>
<path d="M126.9 59.6988C126.9 58.4988 127.7 57.9988 129.2 57.9988C129.7 57.9988 130.2 57.9988 130.7 58.0988V57.5988C130.7 56.9988 130.2 56.5988 129.2 56.5988C128.6 56.5988 128 56.6988 127.4 56.8988V56.0988C128 55.8988 128.6 55.7988 129.2 55.7988C130.9 55.7988 131.7 56.3988 131.7 57.4988V61.3988H131L130.7 60.7988C130.1 61.1988 129.5 61.3988 128.9 61.3988C127.5 61.3988 126.9 60.8988 126.9 59.6988ZM129.1 58.7988C128.2 58.7988 127.8 59.0988 127.8 59.6988C127.8 60.2988 128.1 60.5988 128.8 60.5988C129.5 60.5988 130.1 60.3988 130.5 60.0988V58.8988C130.1 58.8988 129.6 58.7988 129.1 58.7988Z" fill="#838383"/>
<path d="M133.1 61.1988V60.2988C133.8 60.4988 134.4 60.5988 135.1 60.5988C136 60.5988 136.4 60.2988 136.4 59.7988C136.4 59.2988 136.1 59.0988 135.5 59.0988H134.7C133.5 59.0988 132.9 58.4988 132.9 57.3988C132.9 56.2988 133.7 55.7988 135.2 55.7988C135.9 55.7988 136.5 55.8988 137.2 56.0988V56.9988C136.5 56.7988 135.9 56.6988 135.2 56.6988C134.3 56.6988 133.8 56.9988 133.8 57.4988C133.8 57.9988 134.1 58.1988 134.7 58.1988H135.5C136.8 58.1988 137.4 58.7988 137.4 59.8988C137.4 60.9988 136.6 61.4988 135.1 61.4988C134.5 61.3988 133.8 61.3988 133.1 61.1988Z" fill="#838383"/>
<path d="M90 22.8008H90.7L90.6 23.9008L91.6 23.4008L91.8 24.1008L90.7 24.3008L91.5 25.1008L90.9 25.5008L90.4 24.5008L89.9 25.5008L89.3 25.1008L90.1 24.3008L89 24.1008L89.2 23.4008L90.2 23.9008L90 22.8008Z" fill="#838383"/>
<path d="M93.8 22.8008H94.5L94.4 23.9008L95.4 23.4008L95.6 24.1008L94.5 24.3008L95.3 25.1008L94.7 25.5008L94.2 24.5008L93.7 25.5008L93.1 25.1008L93.9 24.3008L92.8 24.1008L93 23.4008L94 23.9008L93.8 22.8008Z" fill="#838383"/>
<path d="M97.7 22.8008H98.4L98.3 23.9008L99.3 23.4008L99.5 24.1008L98.4 24.3008L99.2 25.1008L98.6 25.5008L98.1 24.5008L97.6 25.5008L97 25.1008L97.8 24.3008L96.7 24.1008L96.9 23.4008L97.9 23.9008L97.7 22.8008Z" fill="#838383"/>
<path d="M101.6 22.8008H102.3L102.2 23.9008L103.2 23.4008L103.4 24.1008L102.3 24.3008L103.1 25.1008L102.5 25.5008L102 24.5008L101.5 25.5008L100.9 25.1008L101.7 24.3008L100.6 24.1008L100.8 23.4008L101.8 23.9008L101.6 22.8008Z" fill="#838383"/>
<path d="M105.5 22.8008H106.2L106.1 23.9008L107.1 23.4008L107.3 24.1008L106.2 24.3008L107 25.1008L106.4 25.5008L105.9 24.5008L105.4 25.5008L104.8 25.1008L105.6 24.3008L104.5 24.1008L104.7 23.4008L105.7 23.9008L105.5 22.8008Z" fill="#838383"/>
<path d="M109.4 22.8008H110.1L110 23.9008L111 23.4008L111.2 24.1008L110.1 24.3008L110.9 25.1008L110.3 25.5008L109.8 24.5008L109.3 25.5008L108.7 25.1008L109.5 24.3008L108.4 24.1008L108.6 23.4008L109.6 23.9008L109.4 22.8008Z" fill="#838383"/>
<path d="M113.3 22.8008H114L113.9 23.9008L114.9 23.4008L115.1 24.1008L114 24.3008L114.8 25.1008L114.2 25.5008L113.7 24.5008L113.2 25.5008L112.6 25.1008L113.4 24.3008L112.3 24.1008L112.5 23.4008L113.5 23.9008L113.3 22.8008Z" fill="#838383"/>
<path d="M117.1 22.8008H117.8L117.7 23.9008L118.7 23.4008L118.9 24.1008L117.8 24.3008L118.6 25.1008L118 25.5008L117.5 24.5008L117 25.5008L116.4 25.1008L117.2 24.3008L116.1 24.1008L116.3 23.4008L117.3 23.9008L117.1 22.8008Z" fill="#838383"/>
<path d="M121 22.8008H121.7L121.6 23.9008L122.6 23.4008L122.8 24.1008L121.7 24.3008L122.5 25.1008L121.9 25.5008L121.4 24.5008L120.9 25.5008L120.3 25.1008L121.1 24.3008L120 24.1008L120.2 23.4008L121.2 23.9008L121 22.8008Z" fill="#838383"/>
<path d="M124.9 22.8008H125.6L125.5 23.9008L126.5 23.4008L126.7 24.1008L125.6 24.3008L126.4 25.1008L125.8 25.5008L125.3 24.5008L124.8 25.5008L124.2 25.1008L125 24.3008L123.9 24.1008L124.1 23.4008L125.1 23.9008L124.9 22.8008Z" fill="#838383"/>
<path d="M128.8 22.8008H129.5L129.4 23.9008L130.4 23.4008L130.6 24.1008L129.5 24.3008L130.3 25.1008L129.7 25.5008L129.2 24.5008L128.7 25.5008L128.1 25.1008L128.9 24.3008L127.8 24.1008L128 23.4008L129 23.9008L128.8 22.8008Z" fill="#838383"/>
<path d="M132.7 22.8008H133.4L133.3 23.9008L134.3 23.4008L134.5 24.1008L133.4 24.3008L134.2 25.1008L133.6 25.5008L133.1 24.5008L132.6 25.5008L132 25.1008L132.8 24.3008L131.7 24.1008L131.9 23.4008L132.9 23.9008L132.7 22.8008Z" fill="#838383"/>
<path d="M136.6 22.8008H137.3L137.2 23.9008L138.2 23.4008L138.4 24.1008L137.3 24.3008L138.1 25.1008L137.5 25.5008L137 24.5008L136.5 25.5008L135.9 25.1008L136.7 24.3008L135.6 24.1008L135.8 23.4008L136.8 23.9008L136.6 22.8008Z" fill="#838383"/>
<path d="M260.7 121H257.7V128.1H260.7V121Z" stroke="#FF4200" stroke-width="0.4424" stroke-miterlimit="10"/>
<path d="M265.2 118.6H262.2V128.1H265.2V118.6Z" stroke="#FF4200" stroke-width="0.4424" stroke-miterlimit="10"/>
<path d="M269.7 115.4H266.7V128.1H269.7V115.4Z" stroke="#FF4200" stroke-width="0.4424" stroke-miterlimit="10"/>
<path d="M94.3 125.4C93.6 125.6 92.9 125.7 92.2 125.7C89.5 125.7 88.2 124.4 88.2 121.7C88.2 119.2 89.5 117.9 92.2 117.9C93 117.9 93.7 118 94.3 118.2V119.1C93.6 118.8 93 118.7 92.3 118.7C90.2 118.7 89.2 119.7 89.2 121.7C89.2 123.8 90.2 124.9 92.3 124.9C93 124.9 93.7 124.8 94.3 124.5V125.4Z" fill="#838383"/>
<path d="M95.6 122.9C95.6 121 96.5 120.1 98.3 120.1C100.1 120.1 101 121 101 122.9C101 124.8 100.1 125.7 98.3 125.7C96.5 125.7 95.6 124.8 95.6 122.9ZM98.3 124.9C99.4 124.9 100 124.2 100 122.9C100 121.6 99.4 120.9 98.3 120.9C97.2 120.9 96.6 121.6 96.6 122.9C96.6 124.2 97.1 124.9 98.3 124.9Z" fill="#838383"/>
<path d="M102.3 125.7V120.1H103L103.2 120.8C103.8 120.3 104.4 120.1 105.1 120.1C106.5 120.1 107.2 120.8 107.2 122.2V125.7H106.2V122.2C106.2 121.4 105.8 120.9 105 120.9C104.4 120.9 103.9 121.1 103.4 121.6V125.7H102.3Z" fill="#838383"/>
<path d="M108.7 125.4V124.5C109.4 124.7 110 124.8 110.7 124.8C111.6 124.8 112 124.5 112 124C112 123.5 111.7 123.3 111.1 123.3H110.3C109.1 123.3 108.5 122.7 108.5 121.6C108.5 120.5 109.3 120 110.8 120C111.5 120 112.1 120.1 112.8 120.3V121.2C112.1 121 111.5 120.9 110.8 120.9C109.9 120.9 109.4 121.2 109.4 121.7C109.4 122.2 109.7 122.4 110.3 122.4H111.1C112.4 122.4 113 123 113 124.1C113 125.2 112.2 125.7 110.7 125.7C110 125.7 109.3 125.6 108.7 125.4Z" fill="#838383"/>
<path d="M119.2 120.1V125.7H118.5L118.3 125C117.6 125.5 116.9 125.7 116.2 125.7C114.9 125.7 114.3 125 114.3 123.6V120.1H115.3V123.6C115.3 124.4 115.7 124.9 116.5 124.9C117.1 124.9 117.6 124.7 118.1 124.2V120.1H119.2Z" fill="#838383"/>
<path d="M121.8 118.1V125.8H120.8V118.1H121.8Z" fill="#838383"/>
<path d="M123.5 119.201H124.1L124.3 120.101H125.8V120.901H124.4V124.101C124.4 124.601 124.6 124.901 125.1 124.901H125.8V125.701H124.9C124 125.701 123.5 125.201 123.5 124.201V119.201Z" fill="#838383"/>
<path d="M126.9 124C126.9 122.8 127.7 122.3 129.2 122.3C129.7 122.3 130.2 122.3 130.7 122.4V121.9C130.7 121.3 130.2 120.9 129.2 120.9C128.6 120.9 128 121 127.4 121.2V120.4C128 120.2 128.6 120.1 129.2 120.1C130.9 120.1 131.7 120.7 131.7 121.8V125.7H131L130.7 125.1C130.1 125.5 129.5 125.7 128.9 125.7C127.5 125.7 126.9 125.2 126.9 124ZM129.1 123.1C128.2 123.1 127.8 123.4 127.8 124C127.8 124.6 128.1 124.9 128.8 124.9C129.5 124.9 130.1 124.7 130.5 124.4V123.2C130.1 123.1 129.6 123.1 129.1 123.1Z" fill="#838383"/>
<path d="M133.1 125.4V124.5C133.8 124.7 134.4 124.8 135.1 124.8C136 124.8 136.4 124.5 136.4 124C136.4 123.5 136.1 123.3 135.5 123.3H134.7C133.5 123.3 132.9 122.7 132.9 121.6C132.9 120.5 133.7 120 135.2 120C135.9 120 136.5 120.1 137.2 120.3V121.2C136.5 121 135.9 120.9 135.2 120.9C134.3 120.9 133.8 121.2 133.8 121.7C133.8 122.2 134.1 122.4 134.7 122.4H135.5C136.8 122.4 137.4 123 137.4 124.1C137.4 125.2 136.6 125.7 135.1 125.7C134.5 125.7 133.8 125.6 133.1 125.4Z" fill="#838383"/>
<path d="M283 72.9004H77.9V74.4004H283V72.9004Z" fill="#F8F6F6"/>
<path d="M93.7 85.9004V86.7004H91.3V93.6004H90.3V86.7004H87.9V85.9004H93.7Z" fill="#838383"/>
<path d="M93.7 90.7004C93.7 88.8004 94.6 87.9004 96.4 87.9004C98.2 87.9004 99.1 88.8004 99.1 90.7004C99.1 92.6004 98.2 93.5004 96.4 93.5004C94.6 93.5004 93.7 92.6004 93.7 90.7004ZM96.4 92.7004C97.5 92.7004 98.1 92.0004 98.1 90.7004C98.1 89.4004 97.5 88.7004 96.4 88.7004C95.3 88.7004 94.7 89.4004 94.7 90.7004C94.7 92.0004 95.3 92.7004 96.4 92.7004Z" fill="#838383"/>
<path d="M100.4 93.5008V85.8008H101.4V88.3008C101.9 88.0008 102.6 87.9008 103.3 87.9008C104.7 87.9008 105.4 88.4008 105.4 89.5008C105.4 90.3008 104.9 90.8008 103.8 91.1008L105.6 93.5008H104.3L102.5 91.1008V90.7008C103.7 90.6008 104.4 90.2008 104.4 89.5008C104.4 89.0008 104 88.7008 103.2 88.7008C102.6 88.7008 102 88.9008 101.4 89.2008V93.5008H100.4Z" fill="#838383"/>
<path d="M109 87.9004C110.6 87.9004 111.4 88.7004 111.4 90.3004C111.4 90.5004 111.4 90.8004 111.4 91.0004H107.5C107.5 92.1004 108.2 92.7004 109.5 92.7004C110.1 92.7004 110.7 92.6004 111.2 92.5004V93.3004C110.7 93.4004 110.1 93.5004 109.4 93.5004C107.5 93.5004 106.5 92.5004 106.5 90.6004C106.5 88.8004 107.3 87.9004 109 87.9004ZM107.5 90.2004H110.5C110.5 89.2004 110 88.7004 109.1 88.7004C108 88.7004 107.5 89.2004 107.5 90.2004Z" fill="#838383"/>
<path d="M112.8 93.5004V87.9004H113.5L113.7 88.6004C114.3 88.1004 114.9 87.9004 115.6 87.9004C117 87.9004 117.7 88.6004 117.7 90.0004V93.5004H116.7V90.0004C116.7 89.2004 116.3 88.7004 115.5 88.7004C114.9 88.7004 114.4 88.9004 113.9 89.4004V93.5004H112.8Z" fill="#838383"/>
<path d="M122 93.5008V85.8008H124.8C127.3 85.8008 128.6 87.0008 128.6 89.4008C128.6 92.1008 127.3 93.4008 124.8 93.4008H122V93.5008ZM124.8 92.7008C126.7 92.7008 127.6 91.6008 127.6 89.5008C127.6 87.6008 126.7 86.7008 124.8 86.7008H123V92.7008H124.8Z" fill="#838383"/>
<path d="M131 85.9004V86.8004H130V85.9004H131ZM131 87.9004V93.5004H130V87.9004H131Z" fill="#838383"/>
<path d="M137.5 93.5004C137.5 94.9004 136.6 95.5004 134.9 95.5004C134.2 95.5004 133.6 95.4004 133.1 95.2004V94.4004C133.6 94.6004 134.3 94.7004 135 94.7004C136.1 94.7004 136.6 94.3004 136.6 93.5004V93.2004C136.2 93.4004 135.7 93.5004 135.2 93.5004C133.4 93.5004 132.5 92.6004 132.5 90.7004C132.5 88.8004 133.4 87.9004 135.3 87.9004C136.1 87.9004 136.8 88.0004 137.5 88.1004V93.5004ZM136.5 88.9004C136.2 88.8004 135.7 88.8004 135.2 88.8004C134 88.8004 133.4 89.4004 133.4 90.7004C133.4 92.0004 134 92.7004 135.1 92.7004C135.6 92.7004 136.1 92.6004 136.5 92.4004V88.9004Z" fill="#838383"/>
<path d="M140.2 85.9004V86.8004H139.2V85.9004H140.2ZM140.2 87.9004V93.5004H139.2V87.9004H140.2Z" fill="#838383"/>
<path d="M141.9 87H142.5L142.7 87.9H144.2V88.7H142.8V91.9C142.8 92.4 143 92.7 143.5 92.7H144.2V93.5H143.3C142.4 93.5 141.9 93 141.9 92V87Z" fill="#838383"/>
<path d="M145.3 91.8004C145.3 90.6004 146.1 90.1004 147.6 90.1004C148.1 90.1004 148.6 90.1004 149.1 90.2004V89.7004C149.1 89.1004 148.6 88.7004 147.6 88.7004C147 88.7004 146.4 88.8004 145.8 89.0004V88.2004C146.4 88.0004 147 87.9004 147.6 87.9004C149.3 87.9004 150.1 88.5004 150.1 89.6004V93.5004H149.5L149.2 92.9004C148.6 93.3004 148 93.5004 147.4 93.5004C145.9 93.5004 145.3 93.0004 145.3 91.8004ZM147.5 90.9004C146.6 90.9004 146.2 91.2004 146.2 91.8004C146.2 92.4004 146.5 92.7004 147.2 92.7004C147.9 92.7004 148.5 92.5004 148.9 92.2004V91.0004C148.5 90.9004 148 90.9004 147.5 90.9004Z" fill="#838383"/>
<path d="M152.6 85.9004V93.6004H151.6V85.9004H152.6Z" fill="#838383"/>
<path d="M283 105H77.9V106.5H283V105Z" fill="#F8F6F6"/>
<path d="M283 137H77.9V138.5H283V137Z" fill="#F8F6F6"/>
<path d="M93.7 150V150.8H91.3V157.7H90.3V150.8H87.9V150H93.7Z" fill="#838383"/>
<path d="M94 157.702V152.102H94.7L94.9 152.802C95.4 152.302 96 152.102 96.7 152.102V152.902C96 152.902 95.5 153.102 95.1 153.602V157.702H94Z" fill="#838383"/>
<path d="M97.3 156.002C97.3 154.802 98.1 154.302 99.6 154.302C100.1 154.302 100.6 154.302 101.1 154.402V153.902C101.1 153.302 100.6 152.902 99.6 152.902C99 152.902 98.4 153.002 97.8 153.202V152.402C98.4 152.202 99 152.102 99.6 152.102C101.3 152.102 102.1 152.702 102.1 153.802V157.702H101.5L101.2 157.102C100.6 157.502 100 157.702 99.4 157.702C98 157.702 97.3 157.102 97.3 156.002ZM99.6 155.102C98.7 155.102 98.3 155.402 98.3 156.002C98.3 156.602 98.6 156.902 99.3 156.902C100 156.902 100.6 156.702 101 156.402V155.202C100.6 155.102 100.1 155.102 99.6 155.102Z" fill="#838383"/>
<path d="M103.7 157.702V152.102H104.4L104.6 152.802C105.2 152.302 105.8 152.102 106.5 152.102C107.9 152.102 108.6 152.802 108.6 154.202V157.702H107.6V154.202C107.6 153.402 107.2 152.902 106.4 152.902C105.8 152.902 105.3 153.102 104.8 153.602V157.702H103.7Z" fill="#838383"/>
<path d="M110.1 157.4V156.5C110.8 156.7 111.4 156.8 112.1 156.8C113 156.8 113.4 156.5 113.4 156C113.4 155.5 113.1 155.3 112.5 155.3H111.7C110.5 155.3 109.9 154.7 109.9 153.6C109.9 152.5 110.7 152 112.2 152C112.9 152 113.5 152.1 114.2 152.3V153.2C113.5 153 112.9 152.9 112.2 152.9C111.3 152.9 110.8 153.2 110.8 153.7C110.8 154.2 111.1 154.4 111.7 154.4H112.5C113.8 154.4 114.4 155 114.4 156.1C114.4 157.2 113.6 157.7 112.1 157.7C111.4 157.7 110.7 157.6 110.1 157.4Z" fill="#838383"/>
<path d="M115.7 157.701V151.801C115.7 150.401 116.5 149.801 118 149.801C118.4 149.801 118.8 149.901 119.2 150.001V150.801C118.8 150.701 118.4 150.601 118 150.601C117.1 150.601 116.7 151.001 116.7 151.801V152.101H118.4V152.901H116.7V157.701H115.7Z" fill="#838383"/>
<path d="M121.6 152.102C123.2 152.102 124 152.902 124 154.502C124 154.702 124 155.002 124 155.202H120C120 156.302 120.7 156.902 122 156.902C122.6 156.902 123.2 156.802 123.7 156.702V157.502C123.2 157.602 122.6 157.702 121.9 157.702C120 157.702 119 156.702 119 154.802C119 153.002 119.9 152.102 121.6 152.102ZM120 154.302H123C123 153.302 122.5 152.802 121.6 152.802C120.6 152.802 120.1 153.302 120 154.302Z" fill="#838383"/>
<path d="M125.3 157.702V152.102H126L126.2 152.802C126.7 152.302 127.3 152.102 128 152.102V152.902C127.3 152.902 126.8 153.102 126.4 153.602V157.702H125.3Z" fill="#838383"/>
<path d="M131.3 152.102C132.9 152.102 133.7 152.902 133.7 154.502C133.7 154.702 133.7 155.002 133.7 155.202H129.8C129.8 156.302 130.5 156.902 131.8 156.902C132.4 156.902 133 156.802 133.5 156.702V157.502C133 157.602 132.4 157.702 131.7 157.702C129.8 157.702 128.8 156.702 128.8 154.802C128.7 153.002 129.5 152.102 131.3 152.102ZM129.7 154.302H132.7C132.7 153.302 132.2 152.802 131.3 152.802C130.3 152.802 129.7 153.302 129.7 154.302Z" fill="#838383"/>
<path d="M135 157.702V152.102H135.7L135.9 152.802C136.5 152.302 137.1 152.102 137.8 152.102C139.2 152.102 139.9 152.802 139.9 154.202V157.702H138.9V154.202C138.9 153.402 138.5 152.902 137.7 152.902C137.1 152.902 136.6 153.102 136.1 153.602V157.702H135Z" fill="#838383"/>
<path d="M145.7 157.502C145.2 157.602 144.7 157.702 144.2 157.702C142.2 157.702 141.2 156.702 141.2 154.802C141.2 153.002 142.2 152.102 144.2 152.102C144.7 152.102 145.2 152.202 145.7 152.302V153.102C145.2 153.002 144.7 152.902 144.1 152.902C142.8 152.902 142.1 153.502 142.1 154.802C142.1 156.202 142.8 156.902 144.1 156.902C144.7 156.902 145.2 156.802 145.7 156.702V157.502Z" fill="#838383"/>
<path d="M148 150V150.9H147V150H148ZM148 152.1V157.7H147V152.1H148Z" fill="#838383"/>
<path d="M149.5 156.002C149.5 154.802 150.3 154.302 151.8 154.302C152.3 154.302 152.8 154.302 153.3 154.402V153.902C153.3 153.302 152.8 152.902 151.8 152.902C151.2 152.902 150.6 153.002 150 153.202V152.402C150.6 152.202 151.2 152.102 151.8 152.102C153.5 152.102 154.3 152.702 154.3 153.802V157.702H153.7L153.4 157.102C152.8 157.502 152.2 157.702 151.6 157.702C150.1 157.702 149.5 157.102 149.5 156.002ZM151.8 155.102C150.9 155.102 150.5 155.402 150.5 156.002C150.5 156.602 150.8 156.902 151.5 156.902C152.2 156.902 152.8 156.702 153.2 156.402V155.202C152.7 155.102 152.2 155.102 151.8 155.102Z" fill="#838383"/>
<path d="M155.8 157.4V156.5C156.5 156.7 157.1 156.8 157.8 156.8C158.7 156.8 159.1 156.5 159.1 156C159.1 155.5 158.8 155.3 158.2 155.3H157.4C156.2 155.3 155.6 154.7 155.6 153.6C155.6 152.5 156.4 152 157.9 152C158.6 152 159.2 152.1 159.9 152.3V153.2C159.2 153 158.6 152.9 157.9 152.9C157 152.9 156.5 153.2 156.5 153.7C156.5 154.2 156.8 154.4 157.4 154.4H158.2C159.5 154.4 160.1 155 160.1 156.1C160.1 157.2 159.3 157.7 157.8 157.7C157.1 157.7 156.4 157.6 155.8 157.4Z" fill="#838383"/>
<path d="M283 169.1H77.9V170.6H283V169.1Z" fill="#F8F6F6"/>
<path d="M88.6 189.8V182.1H91.7C93.3 182.1 94 182.8 94 184.2C94 185.7 92.9 186.6 90.8 186.9L90.6 186.1C92.2 185.9 93 185.3 93 184.3C93 183.5 92.5 183 91.6 183H89.6V189.8H88.6Z" fill="#838383"/>
<path d="M94.9 188.099C94.9 186.899 95.7 186.399 97.2 186.399C97.7 186.399 98.2 186.399 98.7 186.499V185.999C98.7 185.399 98.2 184.999 97.2 184.999C96.6 184.999 96 185.099 95.4 185.299V184.499C96 184.299 96.6 184.199 97.2 184.199C98.9 184.199 99.7 184.799 99.7 185.899V189.799H99.1L98.8 189.199C98.2 189.599 97.6 189.799 97 189.799C95.6 189.799 94.9 189.199 94.9 188.099ZM97.2 187.099C96.3 187.099 95.9 187.399 95.9 187.999C95.9 188.599 96.2 188.899 96.9 188.899C97.6 188.899 98.2 188.699 98.6 188.399V187.199C98.2 187.199 97.7 187.099 97.2 187.099Z" fill="#838383"/>
<path d="M106 189.799C106 191.199 105.1 191.799 103.4 191.799C102.7 191.799 102.1 191.699 101.6 191.499V190.699C102.1 190.899 102.8 190.999 103.5 190.999C104.6 190.999 105.1 190.599 105.1 189.799V189.499C104.7 189.699 104.2 189.799 103.7 189.799C101.9 189.799 101 188.899 101 186.999C101 185.099 101.9 184.199 103.8 184.199C104.6 184.199 105.3 184.299 106 184.399V189.799ZM105 185.099C104.7 184.999 104.2 184.999 103.7 184.999C102.5 184.999 101.9 185.599 101.9 186.899C101.9 188.199 102.5 188.899 103.6 188.899C104.1 188.899 104.6 188.799 105 188.599V185.099Z" fill="#838383"/>
<path d="M107.4 186.9C107.4 185 108.3 184.1 110.1 184.1C111.9 184.1 112.8 185 112.8 186.9C112.8 188.8 111.9 189.7 110.1 189.7C108.3 189.7 107.4 188.8 107.4 186.9ZM110 189C111.1 189 111.7 188.3 111.7 187C111.7 185.7 111.1 185 110 185C108.9 185 108.3 185.7 108.3 187C108.4 188.3 108.9 189 110 189Z" fill="#838383"/>
<path d="M114 189.5V188.6C114.7 188.8 115.3 188.9 116 188.9C116.9 188.9 117.3 188.6 117.3 188.1C117.3 187.6 117 187.4 116.4 187.4H115.6C114.4 187.4 113.8 186.8 113.8 185.7C113.8 184.6 114.6 184.1 116.1 184.1C116.8 184.1 117.4 184.2 118.1 184.4V185.3C117.4 185.1 116.8 185 116.1 185C115.2 185 114.7 185.3 114.7 185.8C114.7 186.3 115 186.5 115.6 186.5H116.4C117.7 186.5 118.3 187.1 118.3 188.2C118.3 189.3 117.5 189.8 116 189.8C115.3 189.8 114.7 189.7 114 189.5Z" fill="#838383"/>
<path d="M127.1 189.4C126.4 189.6 125.6 189.7 124.6 189.7C122.9 189.7 122.1 188.7 122.1 186.8C122.1 185 123 184.1 124.8 184.1C125.3 184.1 125.7 184.2 126.2 184.4V182.1H127.2V189.4H127.1ZM126.1 185.3C125.7 185.1 125.2 185 124.7 185C123.6 185 123 185.6 123 186.8C123 188.2 123.6 188.9 124.7 188.9C125.2 188.9 125.7 188.8 126.1 188.7V185.3Z" fill="#838383"/>
<path d="M131 184.1C132.6 184.1 133.4 184.9 133.4 186.5C133.4 186.7 133.4 187 133.4 187.2H129.5C129.5 188.3 130.2 188.9 131.5 188.9C132.1 188.9 132.7 188.8 133.2 188.7V189.5C132.7 189.6 132.1 189.7 131.4 189.7C129.5 189.7 128.5 188.7 128.5 186.8C128.5 185 129.3 184.1 131 184.1ZM129.4 186.4H132.4C132.4 185.4 131.9 184.9 131 184.9C130 184.9 129.5 185.4 129.4 186.4Z" fill="#838383"/>
<path d="M137.5 183.199H138.1L138.3 184.099H139.8V184.899H138.4V188.099C138.4 188.599 138.6 188.899 139.1 188.899H139.8V189.699H138.9C138 189.699 137.5 189.199 137.5 188.199V183.199Z" fill="#838383"/>
<path d="M140.8 188.099C140.8 186.899 141.6 186.399 143.1 186.399C143.6 186.399 144.1 186.399 144.6 186.499V185.999C144.6 185.399 144.1 184.999 143.1 184.999C142.5 184.999 141.9 185.099 141.3 185.299V184.499C141.9 184.299 142.5 184.199 143.1 184.199C144.8 184.199 145.6 184.799 145.6 185.899V189.799H145L144.7 189.199C144.1 189.599 143.5 189.799 142.9 189.799C141.5 189.799 140.8 189.199 140.8 188.099ZM143.1 187.099C142.2 187.099 141.8 187.399 141.8 187.999C141.8 188.599 142.1 188.899 142.8 188.899C143.5 188.899 144.1 188.699 144.5 188.399V187.199C144.1 187.199 143.6 187.099 143.1 187.099Z" fill="#838383"/>
<path d="M147.1 189.799V184.199H147.8L148 184.899C148.5 184.399 149.1 184.199 149.8 184.199V184.999C149.1 184.999 148.6 185.199 148.2 185.699V189.799H147.1Z" fill="#838383"/>
<path d="M151.9 184.1V189.3C151.9 190.4 151.6 191.3 151.1 191.9L150.3 191.3C150.7 190.8 151 190.2 151 189.3V184.1H151.9ZM151.9 182.1V183H150.9V182.1H151.9Z" fill="#838383"/>
<path d="M155.9 184.1C157.5 184.1 158.3 184.9 158.3 186.5C158.3 186.7 158.3 187 158.3 187.2H154.4C154.4 188.3 155.1 188.9 156.4 188.9C157 188.9 157.6 188.8 158.1 188.7V189.5C157.6 189.6 157 189.7 156.3 189.7C154.4 189.7 153.4 188.7 153.4 186.8C153.3 185 154.2 184.1 155.9 184.1ZM154.3 186.4H157.3C157.3 185.4 156.8 184.9 155.9 184.9C154.9 184.9 154.3 185.4 154.3 186.4Z" fill="#838383"/>
<path d="M159.6 183.199H160.2L160.4 184.099H161.9V184.899H160.5V188.099C160.5 188.599 160.7 188.899 161.2 188.899H161.9V189.699H161C160.1 189.699 159.6 189.199 159.6 188.199V183.199Z" fill="#838383"/>
<path d="M163 188.099C163 186.899 163.8 186.399 165.3 186.399C165.8 186.399 166.3 186.399 166.8 186.499V185.999C166.8 185.399 166.3 184.999 165.3 184.999C164.7 184.999 164.1 185.099 163.5 185.299V184.499C164.1 184.299 164.7 184.199 165.3 184.199C167 184.199 167.8 184.799 167.8 185.899V189.799H167.2L166.9 189.199C166.3 189.599 165.7 189.799 165.1 189.799C163.6 189.799 163 189.199 163 188.099ZM165.2 187.099C164.3 187.099 163.9 187.399 163.9 187.999C163.9 188.599 164.2 188.899 164.9 188.899C165.6 188.899 166.2 188.699 166.6 188.399V187.199C166.2 187.199 165.7 187.099 165.2 187.099Z" fill="#838383"/>
<path d="M176.7 189.4C176 189.6 175.2 189.7 174.2 189.7C172.5 189.7 171.7 188.7 171.7 186.8C171.7 185 172.6 184.1 174.4 184.1C174.9 184.1 175.3 184.2 175.8 184.4V182.1H176.8V189.4H176.7ZM175.8 185.3C175.4 185.1 174.9 185 174.4 185C173.3 185 172.7 185.6 172.7 186.8C172.7 188.2 173.3 188.9 174.4 188.9C174.9 188.9 175.4 188.8 175.8 188.7V185.3Z" fill="#838383"/>
<path d="M180.7 184.1C182.3 184.1 183.1 184.9 183.1 186.5C183.1 186.7 183.1 187 183.1 187.2H179.2C179.2 188.3 179.9 188.9 181.2 188.9C181.8 188.9 182.4 188.8 182.9 188.7V189.5C182.4 189.6 181.8 189.7 181.1 189.7C179.2 189.7 178.2 188.7 178.2 186.8C178.1 185 178.9 184.1 180.7 184.1ZM179.1 186.4H182.1C182.1 185.4 181.6 184.9 180.7 184.9C179.7 184.9 179.1 185.4 179.1 186.4Z" fill="#838383"/>
<path d="M191.3 189.599C190.8 189.699 190.3 189.799 189.8 189.799C187.8 189.799 186.8 188.799 186.8 186.899C186.8 185.099 187.8 184.199 189.8 184.199C190.3 184.199 190.8 184.299 191.3 184.399V185.199C190.8 185.099 190.3 184.999 189.7 184.999C188.4 184.999 187.7 185.599 187.7 186.899C187.7 188.299 188.4 188.999 189.7 188.999C190.3 188.999 190.8 188.899 191.3 188.799V189.599Z" fill="#838383"/>
<path d="M192.6 189.799V184.199H193.3L193.5 184.899C194 184.399 194.6 184.199 195.3 184.199V184.999C194.6 184.999 194.1 185.199 193.7 185.699V189.799H192.6Z" fill="#838383"/>
<path d="M198.5 184.1C200.1 184.1 200.9 184.9 200.9 186.5C200.9 186.7 200.9 187 200.9 187.2H197C197 188.3 197.7 188.9 199 188.9C199.6 188.9 200.2 188.8 200.7 188.7V189.5C200.2 189.6 199.6 189.7 198.9 189.7C197 189.7 196 188.7 196 186.8C195.9 185 196.8 184.1 198.5 184.1ZM196.9 186.4H199.9C199.9 185.4 199.4 184.9 198.5 184.9C197.5 184.9 197 185.4 196.9 186.4ZM198.6 182.1H199.9L198.6 183.4H197.7L198.6 182.1Z" fill="#838383"/>
<path d="M207 189.4C206.3 189.6 205.5 189.7 204.5 189.7C202.8 189.7 202 188.7 202 186.8C202 185 202.9 184.1 204.7 184.1C205.2 184.1 205.6 184.2 206.1 184.4V182.1H207.1V189.4H207ZM206 185.3C205.6 185.1 205.1 185 204.6 185C203.5 185 202.9 185.6 202.9 186.8C202.9 188.2 203.5 188.9 204.6 188.9C205.1 188.9 205.6 188.8 206 188.7V185.3Z" fill="#838383"/>
<path d="M209.7 182.1V183H208.7V182.1H209.7ZM209.7 184.1V189.7H208.7V184.1H209.7Z" fill="#838383"/>
<path d="M211.4 183.199H212L212.2 184.099H213.7V184.899H212.3V188.099C212.3 188.599 212.5 188.899 213 188.899H213.7V189.699H212.8C211.9 189.699 211.4 189.199 211.4 188.199V183.199Z" fill="#838383"/>
<path d="M214.7 186.9C214.7 185 215.6 184.1 217.4 184.1C219.2 184.1 220.1 185 220.1 186.9C220.1 188.8 219.2 189.7 217.4 189.7C215.6 189.7 214.8 188.8 214.7 186.9ZM217.4 189C218.5 189 219.1 188.3 219.1 187C219.1 185.7 218.5 185 217.4 185C216.3 185 215.7 185.7 215.7 187C215.7 188.3 216.3 189 217.4 189Z" fill="#838383"/>
<path d="M283 202.5H77.9V233.2H283V202.5Z" fill="#FF4200"/>
<path d="M88.6 221.8V214.1H91.7C93.3 214.1 94 214.8 94 216.2C94 217.7 92.9 218.6 90.8 218.9L90.6 218.1C92.2 217.9 93 217.3 93 216.3C93 215.5 92.5 215 91.6 215H89.6V221.8H88.6Z" fill="white"/>
<path d="M94.9 220.099C94.9 218.899 95.7 218.399 97.2 218.399C97.7 218.399 98.2 218.399 98.7 218.499V217.999C98.7 217.399 98.2 216.999 97.2 216.999C96.6 216.999 96 217.099 95.4 217.299V216.499C96 216.299 96.6 216.199 97.2 216.199C98.9 216.199 99.7 216.799 99.7 217.899V221.799H99.1L98.8 221.199C98.2 221.599 97.6 221.799 97 221.799C95.6 221.799 94.9 221.299 94.9 220.099ZM97.2 219.199C96.3 219.199 95.9 219.499 95.9 220.099C95.9 220.699 96.2 220.999 96.9 220.999C97.6 220.999 98.2 220.799 98.6 220.499V219.299C98.2 219.199 97.7 219.199 97.2 219.199Z" fill="white"/>
<path d="M106 221.799C106 223.199 105.1 223.799 103.4 223.799C102.7 223.799 102.1 223.699 101.6 223.499V222.699C102.1 222.899 102.8 222.999 103.5 222.999C104.6 222.999 105.1 222.599 105.1 221.799V221.499C104.7 221.699 104.2 221.799 103.7 221.799C101.9 221.799 101 220.899 101 218.999C101 217.099 101.9 216.199 103.8 216.199C104.6 216.199 105.3 216.299 106 216.399V221.799ZM105 217.199C104.7 217.099 104.2 217.099 103.7 217.099C102.5 217.099 101.9 217.699 101.9 218.999C101.9 220.299 102.5 220.999 103.6 220.999C104.1 220.999 104.6 220.899 105 220.699V217.199Z" fill="white"/>
<path d="M107.4 218.999C107.4 217.099 108.3 216.199 110.1 216.199C111.9 216.199 112.8 217.099 112.8 218.999C112.8 220.899 111.9 221.799 110.1 221.799C108.3 221.799 107.4 220.899 107.4 218.999ZM110 220.999C111.1 220.999 111.7 220.299 111.7 218.999C111.7 217.699 111.1 216.999 110 216.999C108.9 216.999 108.3 217.699 108.3 218.999C108.4 220.399 108.9 220.999 110 220.999Z" fill="white"/>
<path d="M121.5 221.499C120.8 221.699 120 221.799 119 221.799C117.3 221.799 116.5 220.799 116.5 218.899C116.5 217.099 117.4 216.199 119.2 216.199C119.7 216.199 120.1 216.299 120.6 216.499V214.199H121.6V221.499H121.5ZM120.5 217.399C120.1 217.199 119.6 217.099 119.1 217.099C118 217.099 117.4 217.699 117.4 218.899C117.4 220.299 118 220.999 119.1 220.999C119.6 220.999 120.1 220.899 120.5 220.799V217.399Z" fill="white"/>
<path d="M125.4 216.199C127 216.199 127.8 216.999 127.8 218.599C127.8 218.799 127.8 219.099 127.8 219.299H123.9C123.9 220.399 124.6 220.999 125.9 220.999C126.5 220.999 127.1 220.899 127.6 220.799V221.599C127.1 221.699 126.5 221.799 125.8 221.799C123.9 221.799 122.9 220.799 122.9 218.899C122.8 217.099 123.7 216.199 125.4 216.199ZM123.8 218.499H126.8C126.8 217.499 126.3 216.999 125.4 216.999C124.4 216.999 123.9 217.499 123.8 218.499Z" fill="white"/>
<path d="M131.8 221.599V220.699C132.5 220.899 133.1 220.999 133.8 220.999C134.7 220.999 135.1 220.699 135.1 220.199C135.1 219.699 134.8 219.499 134.2 219.499H133.4C132.2 219.499 131.6 218.899 131.6 217.799C131.6 216.699 132.4 216.199 133.9 216.199C134.6 216.199 135.2 216.299 135.9 216.499V217.399C135.2 217.199 134.6 217.099 133.9 217.099C133 217.099 132.5 217.399 132.5 217.899C132.5 218.399 132.8 218.599 133.4 218.599H134.2C135.5 218.599 136.1 219.199 136.1 220.299C136.1 221.399 135.3 221.899 133.8 221.899C133.1 221.799 132.4 221.699 131.8 221.599Z" fill="white"/>
<path d="M139.8 216.199C141.4 216.199 142.2 216.999 142.2 218.599C142.2 218.799 142.2 219.099 142.2 219.299H138.3C138.3 220.399 139 220.999 140.3 220.999C140.9 220.999 141.5 220.899 142 220.799V221.599C141.5 221.699 140.9 221.799 140.2 221.799C138.3 221.799 137.3 220.799 137.3 218.899C137.2 217.099 138 216.199 139.8 216.199ZM138.2 218.499H141.2C141.2 217.499 140.7 216.999 139.8 216.999C138.8 216.999 138.2 217.499 138.2 218.499Z" fill="white"/>
<path d="M143.5 221.799V216.199H144.2L144.4 216.899C144.9 216.399 145.5 216.199 146.2 216.199V216.999C145.5 216.999 145 217.199 144.6 217.699V221.799H143.5Z" fill="white"/>
<path d="M146.3 216.199H147.4L149 220.599L150.6 216.199H151.7L149.4 221.799H148.5L146.3 216.199Z" fill="white"/>
<path d="M153.6 214.199V215.099H152.6V214.199H153.6ZM153.6 216.199V221.799H152.6V216.199H153.6Z" fill="white"/>
<path d="M159.5 221.699C159 221.799 158.5 221.899 158 221.899C156 221.899 155 220.899 155 218.999C155 217.199 156 216.299 158 216.299C158.5 216.299 159 216.399 159.5 216.499V217.299C159 217.199 158.5 217.099 157.9 217.099C156.6 217.099 155.9 217.699 155.9 218.999C155.9 220.399 156.6 221.099 157.9 221.099C158.5 221.099 159 220.999 159.5 220.899V221.699Z" fill="white"/>
<path d="M161.9 214.199V215.099H160.9V214.199H161.9ZM161.9 216.199V221.799H160.9V216.199H161.9Z" fill="white"/>
<path d="M163.3 218.999C163.3 217.099 164.2 216.199 166 216.199C167.8 216.199 168.7 217.099 168.7 218.999C168.7 220.899 167.8 221.799 166 221.799C164.2 221.799 163.3 220.899 163.3 218.999ZM166 220.999C167.1 220.999 167.7 220.299 167.7 218.999C167.7 217.699 167.1 216.999 166 216.999C164.9 216.999 164.3 217.699 164.3 218.999C164.3 220.399 164.9 220.999 166 220.999Z" fill="white"/>
<path d="M169.9 221.599V220.699C170.6 220.899 171.2 220.999 171.9 220.999C172.8 220.999 173.2 220.699 173.2 220.199C173.2 219.699 172.9 219.499 172.3 219.499H171.5C170.3 219.499 169.7 218.899 169.7 217.799C169.7 216.699 170.5 216.199 172 216.199C172.7 216.199 173.3 216.299 174 216.499V217.399C173.3 217.199 172.7 217.099 172 217.099C171.1 217.099 170.6 217.399 170.6 217.899C170.6 218.399 170.9 218.599 171.5 218.599H172.3C173.6 218.599 174.2 219.199 174.2 220.299C174.2 221.399 173.4 221.899 171.9 221.899C171.3 221.799 170.6 221.699 169.9 221.599Z" fill="white"/>
<path d="M283 233.301H77.9V234.801H283V233.301Z" fill="#F8F6F6"/>
<path d="M88.6 253.899V246.199H89.9L92.7 252.599L95.5 246.199H96.7V253.899H95.8V247.599L93.1 253.899H92.3L89.5 247.599V253.899H88.6Z" fill="#838383"/>
<path d="M99.4 246.301V247.201H98.4V246.301H99.4ZM99.4 248.301V253.901H98.4V248.301H99.4Z" fill="#838383"/>
<path d="M101 253.599V252.699C101.7 252.899 102.3 252.999 103 252.999C103.9 252.999 104.3 252.699 104.3 252.199C104.3 251.699 104 251.499 103.4 251.499H102.6C101.4 251.499 100.8 250.899 100.8 249.799C100.8 248.699 101.6 248.199 103.1 248.199C103.8 248.199 104.4 248.299 105.1 248.499V249.399C104.4 249.199 103.8 249.099 103.1 249.099C102.2 249.099 101.7 249.399 101.7 249.899C101.7 250.399 102 250.599 102.6 250.599H103.4C104.7 250.599 105.3 251.199 105.3 252.299C105.3 253.399 104.5 253.899 103 253.899C102.4 253.899 101.7 253.799 101 253.599Z" fill="#838383"/>
<path d="M109.1 251.101C109.1 249.201 110 248.301 111.8 248.301C113.6 248.301 114.5 249.201 114.5 251.101C114.5 253.001 113.6 253.901 111.8 253.901C110 253.901 109.1 253.001 109.1 251.101ZM111.8 253.101C112.9 253.101 113.5 252.401 113.5 251.101C113.5 249.801 112.9 249.101 111.8 249.101C110.7 249.101 110.1 249.801 110.1 251.101C110.1 252.401 110.7 253.101 111.8 253.101Z" fill="#838383"/>
<path d="M115.8 253.9V248C115.8 246.6 116.6 246 118.1 246C118.5 246 118.9 246.1 119.3 246.2V247C118.9 246.9 118.5 246.8 118.1 246.8C117.2 246.8 116.8 247.2 116.8 248V248.3H118.5V249.1H116.8V253.9H115.8Z" fill="#838383"/>
<path d="M121.7 248.301C123.3 248.301 124.1 249.101 124.1 250.701C124.1 250.901 124.1 251.201 124.1 251.401H120.2C120.2 252.501 120.9 253.101 122.2 253.101C122.8 253.101 123.4 253.001 123.9 252.901V253.701C123.4 253.801 122.8 253.901 122.1 253.901C120.2 253.901 119.2 252.901 119.2 251.001C119.1 249.201 120 248.301 121.7 248.301ZM120.1 250.601H123.1C123.1 249.601 122.6 249.101 121.7 249.101C120.7 249.101 120.1 249.601 120.1 250.601Z" fill="#838383"/>
<path d="M125.4 253.901V248.301H126.1L126.3 249.001C126.8 248.501 127.4 248.301 128.1 248.301V249.101C127.4 249.101 126.9 249.301 126.5 249.801V253.901H125.4Z" fill="#838383"/>
<path d="M129 247.4H129.6L129.8 248.3H131.3V249.1H130V252.3C130 252.8 130.2 253.1 130.7 253.1H131.4V253.9H130.5C129.6 253.9 129.1 253.4 129.1 252.4V247.4H129Z" fill="#838383"/>
<path d="M132.4 252.201C132.4 251.001 133.2 250.501 134.7 250.501C135.2 250.501 135.7 250.501 136.2 250.601V250.101C136.2 249.501 135.7 249.101 134.7 249.101C134.1 249.101 133.5 249.201 132.9 249.401V248.601C133.5 248.401 134.1 248.301 134.7 248.301C136.4 248.301 137.2 248.901 137.2 250.001V253.901H136.6L136.3 253.301C135.7 253.701 135.1 253.901 134.5 253.901C133 253.901 132.4 253.301 132.4 252.201ZM134.7 251.301C133.8 251.301 133.4 251.601 133.4 252.201C133.4 252.801 133.7 253.101 134.4 253.101C135.1 253.101 135.7 252.901 136.1 252.601V251.401C135.6 251.301 135.1 251.301 134.7 251.301Z" fill="#838383"/>
<path d="M138.7 253.599V252.699C139.4 252.899 140 252.999 140.7 252.999C141.6 252.999 142 252.699 142 252.199C142 251.699 141.7 251.499 141.1 251.499H140.3C139.1 251.499 138.5 250.899 138.5 249.799C138.5 248.699 139.3 248.199 140.8 248.199C141.5 248.199 142.1 248.299 142.8 248.499V249.399C142.1 249.199 141.5 249.099 140.8 249.099C139.9 249.099 139.4 249.399 139.4 249.899C139.4 250.399 139.7 250.599 140.3 250.599H141.1C142.4 250.599 143 251.199 143 252.299C143 253.399 142.2 253.899 140.7 253.899C140 253.899 139.3 253.799 138.7 253.599Z" fill="#838383"/>
<path d="M266.5 86.6008V83.4008C266.5 81.1008 264.7 79.3008 262.5 79.3008C260.3 79.3008 258.5 81.1008 258.5 83.4008V86.6008H259.3V83.4008C259.3 81.6008 260.7 80.1008 262.5 80.1008C264.3 80.1008 265.7 81.6008 265.7 83.4008V86.6008H266.5Z" fill="#FF4200"/>
<path d="M268.1 87H256.9V96.1H268.1V87Z" stroke="#FF4200" stroke-width="0.8849" stroke-miterlimit="10" stroke-linecap="round" stroke-linejoin="round"/>
<path d="M273.2 98.3004H263.9C262.5 98.3004 261.3 97.2004 261.3 95.7004V95.0004C261.3 93.6004 262.4 92.4004 263.9 92.4004H273.2C274.6 92.4004 275.8 93.5004 275.8 95.0004V95.7004C275.8 97.1004 274.6 98.3004 273.2 98.3004Z" fill="white" stroke="#FF4200" stroke-width="0.6637" stroke-miterlimit="10" stroke-linecap="round" stroke-linejoin="round"/>
<path d="M265.3 94.6992H263.7V95.9992H265.3V94.6992Z" fill="#FF4200"/>
<path d="M268 94.6992H266.4V95.9992H268V94.6992Z" fill="#FF4200"/>
<path d="M270.7 94.6992H269.1V95.9992H270.7V94.6992Z" fill="#FF4200"/>
<path d="M273.4 94.6992H271.8V95.9992H273.4V94.6992Z" fill="#FF4200"/>
<path d="M268 151.401C268.1 151.301 268.1 151.201 268.1 151.101C268.1 151.001 268 150.901 268 150.801L264.7 147.901C264.6 147.801 264.4 147.801 264.3 147.801C264.2 147.901 264.1 148.001 264.1 148.201V149.901H258.7C258.5 149.901 258.3 150.101 258.3 150.301V152.001C258.3 152.201 258.5 152.401 258.7 152.401H264.1V154.101C264.1 154.301 264.2 154.401 264.3 154.501C264.4 154.601 264.6 154.501 264.7 154.401L268 151.401Z" stroke="#FF4200" stroke-width="0.4424" stroke-miterlimit="10"/>
<path d="M258.4 157.799C258.3 157.699 258.3 157.599 258.3 157.499C258.3 157.399 258.4 157.299 258.4 157.199L261.7 154.299C261.8 154.199 262 154.199 262.1 154.199C262.2 154.299 262.3 154.399 262.3 154.599V156.299H267.7C267.9 156.299 268.1 156.499 268.1 156.699V158.399C268.1 158.599 267.9 158.799 267.7 158.799H262.3V160.499C262.3 160.699 262.2 160.799 262.1 160.899C262 160.999 261.8 160.899 261.7 160.799L258.4 157.799Z" stroke="#FF4200" stroke-width="0.4424" stroke-miterlimit="10"/>
<path d="M268.4 190.9H258C257.2 190.9 256.6 190.3 256.6 189.5V183.5C256.6 182.7 257.2 182.1 258 182.1H268.4C269.2 182.1 269.8 182.7 269.8 183.5V189.5C269.8 190.3 269.2 190.9 268.4 190.9ZM258.1 182.7C257.6 182.7 257.3 183.1 257.3 183.5V189.5C257.3 190 257.7 190.3 258.1 190.3H268.5C269 190.3 269.3 189.9 269.3 189.5V183.5C269.3 183 268.9 182.7 268.5 182.7H258.1Z" fill="#FF4200"/>
<path d="M269.5 185.999H257C256.8 185.999 256.7 185.899 256.7 185.699V184.099C256.7 183.899 256.8 183.799 257 183.799H269.6C269.8 183.799 269.9 183.899 269.9 184.099V185.699C269.8 185.899 269.7 185.999 269.5 185.999Z" fill="#FF4200"/>
<path d="M269.1 209.8C268.8 209.7 268.5 209.7 268.2 209.9L267.1 210.9L265.6 209.5C265.3 209.2 264.8 209.2 264.5 209.5L263 210.9L261.5 209.5C261.2 209.2 260.7 209.2 260.4 209.5L258.9 210.9L257.8 209.9C257.5 209.6 257 209.6 256.7 210C256.6 210.1 256.5 210.3 256.5 210.5V225.5C256.5 225.9 256.9 226.3 257.3 226.3C257.5 226.3 257.7 226.2 257.8 226.1L258.9 225.1L260.4 226.5C260.7 226.8 261.2 226.8 261.5 226.5L263 225.1L264.5 226.5C264.8 226.8 265.3 226.8 265.6 226.5L267.1 225.1L268.2 226.1C268.5 226.4 269 226.4 269.3 226C269.4 225.9 269.5 225.7 269.5 225.5V210.5C269.6 210.2 269.4 209.9 269.1 209.8ZM268.7 225.6L267.6 224.6C267.3 224.3 266.8 224.3 266.5 224.6L265 226L263.5 224.6C263.2 224.3 262.7 224.3 262.4 224.6L260.9 226L259.4 224.6C259.1 224.3 258.6 224.3 258.3 224.6L257.2 225.6V223.4V210.6L258.3 211.6C258.6 211.9 259.1 211.9 259.4 211.6L260.9 210.2L262.4 211.6C262.7 211.9 263.2 211.9 263.5 211.6L265 210.2L266.5 211.6C266.8 211.9 267.3 211.9 267.6 211.6L268.7 210.6V220.9V225.6Z" fill="#F5F5F5"/>
<path d="M266.8 217.6H259C258.8 217.6 258.6 217.8 258.6 218C258.6 218.2 258.8 218.4 259 218.4H266.7C266.9 218.4 267.1 218.2 267.1 218C267.1 217.8 267 217.6 266.8 217.6Z" fill="#F5F5F5"/>
<path d="M259 216.001H263.1C263.3 216.001 263.5 215.801 263.5 215.601C263.5 215.401 263.3 215.201 263.1 215.201H259C258.8 215.201 258.6 215.401 258.6 215.601C258.6 215.801 258.8 216.001 259 216.001Z" fill="#F5F5F5"/>
<path d="M266.8 220.1H259C258.8 220.1 258.6 220.3 258.6 220.5C258.6 220.7 258.8 220.9 259 220.9H266.7C266.9 220.9 267.1 220.7 267.1 220.5C267.1 220.3 267 220.1 266.8 220.1Z" fill="#F5F5F5"/>
<path d="M268.9 248.499C268.9 247.399 268.1 246.599 267.1 246.399V243.999C267.1 243.699 267 243.499 266.7 243.399C266.5 243.299 266.2 243.299 266 243.399C263.8 244.599 261.4 245.399 258.9 245.499H256.6C256 245.499 255.6 245.899 255.5 246.499H255C254.5 246.499 254.1 246.899 254.1 247.399V249.399C254.1 249.899 254.5 250.299 255 250.299H255.5C255.5 250.699 255.8 250.999 256.2 251.199L257.9 255.799C258 256.099 258.3 256.299 258.6 256.299H260.3C260.5 256.299 260.8 256.199 260.9 255.999C261 255.799 261.1 255.599 261 255.299L259.6 251.299C261.9 251.499 264.2 252.199 266.2 253.399C266.3 253.499 266.4 253.499 266.6 253.499C266.7 253.499 266.9 253.499 267 253.399C267.2 253.299 267.4 252.999 267.4 252.799V250.399C268.2 250.399 268.9 249.599 268.9 248.499Z" stroke="#FF4200" stroke-width="0.8849" stroke-miterlimit="10"/>
<path d="M270.3 250.799C270.4 250.899 270.5 250.899 270.7 250.899C270.8 250.899 271 250.799 271.1 250.699C271.7 250.099 272 249.299 272 248.399C272 247.599 271.7 246.799 271.1 246.099C270.9 245.899 270.6 245.899 270.4 246.099C270.2 246.299 270.2 246.599 270.4 246.799C270.8 247.199 271 247.799 271 248.299C271 248.799 270.8 249.399 270.4 249.799C270 250.299 270 250.599 270.3 250.799Z" fill="#FF4200"/>
<path d="M272 252.501C272.1 252.501 272.3 252.401 272.4 252.301C273.4 251.301 274 249.901 274 248.501C274 247.101 273.4 245.701 272.4 244.701C272.2 244.501 271.9 244.501 271.7 244.701C271.5 244.901 271.5 245.201 271.7 245.401C272.5 246.201 273 247.301 273 248.501C273 249.701 272.5 250.801 271.7 251.601C271.5 251.801 271.5 252.101 271.7 252.301C271.7 252.401 271.9 252.501 272 252.501Z" fill="#FF4200"/>
<path d="M314.1 0H77.9V4.2H314.1V0Z" fill="black"/>
</svg>
