<svg width="392" height="262" viewBox="0 0 392 262" fill="none" xmlns="http://www.w3.org/2000/svg">
<path d="M392 0H0V262H392V0Z" fill="#E3E3E3"/>
<path d="M314.1 0H77.8999V262H314.1V0Z" fill="#F1EFED"/>
<path d="M305.7 7.90039H87.1001V45.6004H305.7V7.90039Z" fill="white"/>
<path d="M305.7 75.6992H87.1001V261.999H305.7V75.6992Z" fill="white"/>
<path d="M101.5 16.5996V17.2996H99.3002V23.3996H98.4002V17.2996H96.2002V16.5996H101.5Z" fill="#838383"/>
<path d="M103.4 16.5996V17.3996H102.5V16.5996H103.4ZM103.4 18.3996V23.3996H102.5V18.3996H103.4Z" fill="#838383"/>
<path d="M105 17.5996H105.6L105.8 18.3996H107.2V19.0996H106V21.9996C106 22.4996 106.2 22.6996 106.6 22.6996H107.2V23.3996H106.4C105.6 23.3996 105.1 22.8996 105.1 21.9996V17.5996H105Z" fill="#838383"/>
<path d="M112.5 18.3988V23.3988H111.9L111.7 22.7988C111.1 23.1988 110.5 23.3988 109.9 23.3988C108.7 23.3988 108.2 22.7988 108.2 21.4988V18.2988H109.1V21.4988C109.1 22.1988 109.5 22.5988 110.2 22.5988C110.7 22.5988 111.2 22.3988 111.7 21.9988V18.2988H112.5V18.3988Z" fill="#838383"/>
<path d="M114.9 16.5996V23.4996H114V16.5996H114.9Z" fill="#838383"/>
<path d="M116.1 21.9004C116.1 20.9004 116.8 20.4004 118.1 20.4004C118.5 20.4004 119 20.4004 119.4 20.5004V20.0004C119.4 19.4004 118.9 19.1004 118 19.1004C117.5 19.1004 117 19.2004 116.4 19.3004V18.6004C116.9 18.4004 117.5 18.4004 118 18.4004C119.5 18.4004 120.2 18.9004 120.2 20.0004V23.5004H119.7L119.4 23.0004C118.9 23.3004 118.4 23.5004 117.8 23.5004C116.7 23.4004 116.1 22.9004 116.1 21.9004ZM118.2 21.1004C117.4 21.1004 117 21.4004 117 21.9004C117 22.4004 117.3 22.7004 117.9 22.7004C118.5 22.7004 119 22.5004 119.5 22.2004V21.2004C119.1 21.1004 118.6 21.1004 118.2 21.1004Z" fill="#838383"/>
<path d="M121.8 23.4004V18.4004H122.4L122.6 19.0004C123 18.6004 123.6 18.4004 124.2 18.4004V19.1004C123.6 19.1004 123.1 19.3004 122.7 19.7004V23.4004H121.8Z" fill="#838383"/>
<path d="M91.7002 67.9004V62.4004H93.7002C95.5002 62.4004 96.5002 63.3004 96.5002 65.0004C96.5002 66.9004 95.6002 67.9004 93.7002 67.9004H91.7002ZM93.7002 67.3004C95.1002 67.3004 95.7002 66.5004 95.7002 65.0004C95.7002 63.6004 95.0002 63.0004 93.7002 63.0004H92.4002V67.4004H93.7002V67.3004Z" fill="#838383"/>
<path d="M99.1002 63.9004C100.3 63.9004 100.8 64.5004 100.8 65.6004C100.8 65.8004 100.8 65.9004 100.8 66.1004H97.9002C97.9002 66.9004 98.4002 67.3004 99.4002 67.3004C99.9002 67.3004 100.3 67.2004 100.6 67.1004V67.7004C100.2 67.8004 99.8002 67.9004 99.3002 67.9004C97.9002 67.9004 97.2002 67.2004 97.2002 65.8004C97.2002 64.5004 97.8002 63.9004 99.1002 63.9004ZM97.9002 65.5004H100.1C100.1 64.8004 99.7002 64.4004 99.1002 64.4004C98.4002 64.4004 98.0002 64.8004 97.9002 65.5004Z" fill="#838383"/>
<path d="M101.8 62.4004H102.5V64.0004C102.8 63.9004 103.1 63.8004 103.5 63.8004C104.8 63.8004 105.4 64.5004 105.4 65.8004C105.4 67.2004 104.7 67.9004 103.4 67.9004C102.8 67.9004 102.3 67.8004 101.8 67.7004V62.4004ZM102.5 67.2004C102.7 67.3004 103 67.3004 103.4 67.3004C104.3 67.3004 104.8 66.8004 104.8 65.8004C104.8 64.9004 104.4 64.5004 103.6 64.5004C103.2 64.5004 102.9 64.6004 102.6 64.7004V67.2004H102.5Z" fill="#838383"/>
<path d="M108.1 63.9004C109.3 63.9004 109.8 64.5004 109.8 65.6004C109.8 65.8004 109.8 65.9004 109.8 66.1004H106.9C106.9 66.9004 107.4 67.3004 108.4 67.3004C108.9 67.3004 109.3 67.2004 109.6 67.1004V67.7004C109.2 67.8004 108.8 67.9004 108.3 67.9004C106.9 67.9004 106.2 67.2004 106.2 65.8004C106.2 64.5004 106.8 63.9004 108.1 63.9004ZM106.9 65.5004H109.1C109.1 64.8004 108.7 64.4004 108.1 64.4004C107.4 64.4004 107 64.8004 106.9 65.5004Z" fill="#838383"/>
<path d="M110.7 67.7008V67.1008C111.2 67.3008 111.7 67.3008 112.1 67.3008C112.7 67.3008 113.1 67.1008 113.1 66.7008C113.1 66.3008 112.9 66.2008 112.4 66.2008H111.8C110.9 66.2008 110.5 65.8008 110.5 65.0008C110.5 64.2008 111.1 63.8008 112.2 63.8008C112.7 63.8008 113.2 63.9008 113.6 64.0008V64.6008C113.1 64.4008 112.6 64.4008 112.2 64.4008C111.5 64.4008 111.2 64.6008 111.2 65.0008C111.2 65.4008 111.4 65.5008 111.8 65.5008H112.4C113.3 65.5008 113.8 65.9008 113.8 66.7008C113.8 67.5008 113.2 67.9008 112.1 67.9008C111.7 67.9008 111.2 67.9008 110.7 67.7008Z" fill="#838383"/>
<path d="M116.7 67.7008V67.1008C117.2 67.3008 117.7 67.3008 118.1 67.3008C118.7 67.3008 119.1 67.1008 119.1 66.7008C119.1 66.3008 118.9 66.2008 118.4 66.2008H117.8C116.9 66.2008 116.5 65.8008 116.5 65.0008C116.5 64.2008 117.1 63.8008 118.2 63.8008C118.7 63.8008 119.2 63.9008 119.6 64.0008V64.6008C119.1 64.4008 118.6 64.4008 118.2 64.4008C117.5 64.4008 117.2 64.6008 117.2 65.0008C117.2 65.4008 117.4 65.5008 117.8 65.5008H118.4C119.3 65.5008 119.8 65.9008 119.8 66.7008C119.8 67.5008 119.2 67.9008 118.1 67.9008C117.7 67.9008 117.2 67.9008 116.7 67.7008Z" fill="#838383"/>
<path d="M122.5 63.9004C123.7 63.9004 124.2 64.5004 124.2 65.6004C124.2 65.8004 124.2 65.9004 124.2 66.1004H121.3C121.3 66.9004 121.8 67.3004 122.8 67.3004C123.3 67.3004 123.7 67.2004 124 67.1004V67.7004C123.6 67.8004 123.2 67.9004 122.7 67.9004C121.3 67.9004 120.6 67.2004 120.6 65.8004C120.6 64.5004 121.3 63.9004 122.5 63.9004ZM121.4 65.5004H123.6C123.6 64.8004 123.2 64.4004 122.6 64.4004C121.8 64.4004 121.4 64.8004 121.4 65.5004Z" fill="#838383"/>
<path d="M126 62.4004V67.9004H125.3V62.4004H126Z" fill="#838383"/>
<path d="M128.8 63.9004C130 63.9004 130.5 64.5004 130.5 65.6004C130.5 65.8004 130.5 65.9004 130.5 66.1004H127.6C127.6 66.9004 128.1 67.3004 129.1 67.3004C129.6 67.3004 130 67.2004 130.3 67.1004V67.7004C129.9 67.8004 129.5 67.9004 129 67.9004C127.6 67.9004 126.9 67.2004 126.9 65.8004C127 64.5004 127.6 63.9004 128.8 63.9004ZM127.7 65.5004H129.9C129.9 64.8004 129.5 64.4004 128.9 64.4004C128.1 64.4004 127.7 64.8004 127.7 65.5004Z" fill="#838383"/>
<path d="M134.6 67.8008C134.3 67.9008 133.9 67.9008 133.5 67.9008C132.1 67.9008 131.3 67.2008 131.3 65.8008C131.3 64.5008 132 63.8008 133.5 63.8008C133.9 63.8008 134.2 63.8008 134.6 63.9008V64.5008C134.3 64.4008 133.9 64.4008 133.5 64.4008C132.6 64.4008 132.1 64.9008 132.1 65.8008C132.1 66.8008 132.6 67.3008 133.5 67.3008C133.9 67.3008 134.3 67.3008 134.6 67.2008V67.8008Z" fill="#838383"/>
<path d="M138.6 67.8008C138.3 67.9008 137.9 67.9008 137.5 67.9008C136.1 67.9008 135.3 67.2008 135.3 65.8008C135.3 64.5008 136 63.8008 137.5 63.8008C137.9 63.8008 138.2 63.8008 138.6 63.9008V64.5008C138.3 64.4008 137.9 64.4008 137.5 64.4008C136.6 64.4008 136.1 64.9008 136.1 65.8008C136.1 66.8008 136.6 67.3008 137.5 67.3008C137.9 67.3008 138.3 67.3008 138.6 67.2008V67.8008Z" fill="#838383"/>
<path d="M140.3 62.4004V63.1004H139.6V62.4004H140.3ZM140.3 63.9004V68.0004H139.6V63.9004H140.3Z" fill="#838383"/>
<path d="M141.3 65.9004C141.3 64.5004 141.9 63.9004 143.2 63.9004C144.5 63.9004 145.1 64.6004 145.1 65.9004C145.1 67.3004 144.5 67.9004 143.2 67.9004C142 67.9004 141.3 67.2004 141.3 65.9004ZM143.3 67.3004C144.1 67.3004 144.5 66.8004 144.5 65.8004C144.5 64.8004 144.1 64.4004 143.3 64.4004C142.5 64.4004 142.1 64.9004 142.1 65.8004C142 66.8004 142.4 67.3004 143.3 67.3004Z" fill="#838383"/>
<path d="M146.2 67.9008V63.8008H146.7L146.8 64.3008C147.2 64.0008 147.7 63.8008 148.2 63.8008C149.2 63.8008 149.7 64.3008 149.7 65.3008V67.9008H149V65.3008C149 64.7008 148.7 64.4008 148.1 64.4008C147.7 64.4008 147.3 64.6008 146.9 64.9008V67.9008H146.2Z" fill="#838383"/>
<path d="M150.6 66.7008C150.6 65.9008 151.1 65.4008 152.2 65.4008C152.6 65.4008 152.9 65.4008 153.3 65.5008V65.1008C153.3 64.6008 152.9 64.4008 152.2 64.4008C151.8 64.4008 151.4 64.5008 150.9 64.6008V64.0008C151.3 63.9008 151.8 63.8008 152.2 63.8008C153.4 63.8008 154 64.2008 154 65.1008V67.9008H153.6L153.4 67.5008C153 67.8008 152.6 67.9008 152.1 67.9008C151.1 67.9008 150.6 67.5008 150.6 66.7008ZM152.3 66.0008C151.7 66.0008 151.4 66.2008 151.4 66.7008C151.4 67.1008 151.6 67.4008 152.1 67.4008C152.6 67.4008 153 67.3008 153.4 67.0008V66.2008C153 66.0008 152.6 66.0008 152.3 66.0008Z" fill="#838383"/>
<path d="M155.2 67.9008V63.8008H155.7L155.8 64.3008C156.2 64.0008 156.6 63.8008 157.1 63.8008V64.4008C156.6 64.4008 156.2 64.6008 155.9 64.9008V67.9008H155.2Z" fill="#838383"/>
<path d="M160.5 62.4004V67.9004H159.8V62.4004H160.5Z" fill="#838383"/>
<path d="M161.5 65.9004C161.5 64.5004 162.1 63.9004 163.4 63.9004C164.7 63.9004 165.3 64.6004 165.3 65.9004C165.3 67.3004 164.7 67.9004 163.4 67.9004C162.2 67.9004 161.5 67.2004 161.5 65.9004ZM163.5 67.3004C164.3 67.3004 164.7 66.8004 164.7 65.8004C164.7 64.8004 164.3 64.4004 163.5 64.4004C162.7 64.4004 162.3 64.9004 162.3 65.8004C162.3 66.8004 162.7 67.3004 163.5 67.3004Z" fill="#838383"/>
<path d="M166.3 67.7008V67.1008C166.8 67.3008 167.3 67.3008 167.7 67.3008C168.3 67.3008 168.7 67.1008 168.7 66.7008C168.7 66.3008 168.5 66.2008 168 66.2008H167.4C166.5 66.2008 166.1 65.8008 166.1 65.0008C166.1 64.2008 166.7 63.8008 167.8 63.8008C168.3 63.8008 168.8 63.9008 169.2 64.0008V64.6008C168.7 64.4008 168.2 64.4008 167.8 64.4008C167.1 64.4008 166.8 64.6008 166.8 65.0008C166.8 65.4008 167 65.5008 167.4 65.5008H168C168.9 65.5008 169.4 65.9008 169.4 66.7008C169.4 67.5008 168.8 67.9008 167.7 67.9008C167.3 67.9008 166.8 67.9008 166.3 67.7008Z" fill="#838383"/>
<path d="M172.4 64.0008C172.9 63.9008 173.5 63.8008 174.1 63.8008C175.4 63.8008 176.1 64.4008 176.1 65.7008C176.1 67.1008 175.4 67.8008 174.1 67.8008C173.8 67.8008 173.5 67.7008 173.2 67.6008V69.3008H172.5V64.0008H172.4ZM173.1 67.1008C173.4 67.2008 173.7 67.3008 174 67.3008C174.8 67.3008 175.3 66.8008 175.3 65.8008C175.3 64.9008 174.9 64.5008 174 64.5008C173.6 64.5008 173.3 64.5008 173.1 64.6008V67.1008Z" fill="#838383"/>
<path d="M176.8 66.7008C176.8 65.9008 177.3 65.4008 178.4 65.4008C178.8 65.4008 179.1 65.4008 179.5 65.5008V65.1008C179.5 64.6008 179.1 64.4008 178.4 64.4008C178 64.4008 177.6 64.5008 177.1 64.6008V64.0008C177.5 63.9008 178 63.8008 178.4 63.8008C179.6 63.8008 180.2 64.2008 180.2 65.1008V67.9008H179.8L179.6 67.5008C179.2 67.8008 178.8 67.9008 178.3 67.9008C177.3 67.9008 176.8 67.5008 176.8 66.7008ZM178.4 66.0008C177.8 66.0008 177.5 66.2008 177.5 66.7008C177.5 67.1008 177.7 67.4008 178.2 67.4008C178.7 67.4008 179.1 67.3008 179.5 67.0008V66.2008C179.1 66.0008 178.8 66.0008 178.4 66.0008Z" fill="#838383"/>
<path d="M184.8 67.9008C184.8 68.9008 184.2 69.4008 182.9 69.4008C182.4 69.4008 182 69.3008 181.6 69.2008V68.6008C182 68.7008 182.4 68.8008 182.9 68.8008C183.7 68.8008 184 68.5008 184 67.9008V67.7008C183.7 67.8008 183.4 67.9008 183 67.9008C181.7 67.9008 181.1 67.2008 181.1 65.8008C181.1 64.5008 181.8 63.8008 183.1 63.8008C183.7 63.8008 184.2 63.9008 184.7 64.0008V67.9008H184.8ZM184.1 64.5008C183.9 64.4008 183.6 64.4008 183.2 64.4008C182.3 64.4008 181.9 64.9008 181.9 65.8008C181.9 66.8008 182.3 67.2008 183.1 67.2008C183.5 67.2008 183.8 67.1008 184.1 67.0008V64.5008Z" fill="#838383"/>
<path d="M185.8 65.9004C185.8 64.5004 186.4 63.9004 187.7 63.9004C189 63.9004 189.6 64.6004 189.6 65.9004C189.6 67.3004 189 67.9004 187.7 67.9004C186.4 67.9004 185.8 67.2004 185.8 65.9004ZM187.7 67.3004C188.5 67.3004 188.9 66.8004 188.9 65.8004C188.9 64.8004 188.5 64.4004 187.7 64.4004C186.9 64.4004 186.5 64.9004 186.5 65.8004C186.5 66.8004 186.9 67.3004 187.7 67.3004Z" fill="#838383"/>
<path d="M190.6 67.7008V67.1008C191.1 67.3008 191.6 67.3008 192 67.3008C192.6 67.3008 193 67.1008 193 66.7008C193 66.3008 192.8 66.2008 192.3 66.2008H191.7C190.8 66.2008 190.4 65.8008 190.4 65.0008C190.4 64.2008 191 63.8008 192.1 63.8008C192.6 63.8008 193.1 63.9008 193.5 64.0008V64.6008C193 64.4008 192.5 64.4008 192.1 64.4008C191.4 64.4008 191.1 64.6008 191.1 65.0008C191.1 65.4008 191.3 65.5008 191.7 65.5008H192.3C193.2 65.5008 193.7 65.9008 193.7 66.7008C193.7 67.5008 193.1 67.9008 192 67.9008C191.5 67.9008 191.1 67.9008 190.6 67.7008Z" fill="#838383"/>
<path d="M196.6 64.0008C197.1 63.9008 197.7 63.8008 198.3 63.8008C199.6 63.8008 200.3 64.4008 200.3 65.7008C200.3 67.1008 199.6 67.8008 198.3 67.8008C198 67.8008 197.7 67.7008 197.4 67.6008V69.3008H196.7V64.0008H196.6ZM197.3 67.1008C197.6 67.2008 197.9 67.3008 198.2 67.3008C199 67.3008 199.5 66.8008 199.5 65.8008C199.5 64.9008 199.1 64.5008 198.2 64.5008C197.8 64.5008 197.5 64.5008 197.3 64.6008V67.1008Z" fill="#838383"/>
<path d="M201 65.9004C201 64.5004 201.6 63.9004 202.9 63.9004C204.2 63.9004 204.8 64.6004 204.8 65.9004C204.8 67.3004 204.2 67.9004 202.9 67.9004C201.7 67.9004 201 67.2004 201 65.9004ZM203 67.3004C203.8 67.3004 204.2 66.8004 204.2 65.8004C204.2 64.8004 203.8 64.4004 203 64.4004C202.2 64.4004 201.8 64.9004 201.8 65.8004C201.7 66.8004 202.1 67.3004 203 67.3004Z" fill="#838383"/>
<path d="M205.9 67.9008V63.8008H206.4L206.5 64.3008C206.9 64.0008 207.3 63.8008 207.8 63.8008V64.4008C207.3 64.4008 206.9 64.6008 206.6 64.9008V67.9008H205.9Z" fill="#838383"/>
<path d="M210.2 65.9004C210.2 64.5004 210.8 63.9004 212.1 63.9004C213.4 63.9004 214 64.6004 214 65.9004C214 67.3004 213.4 67.9004 212.1 67.9004C210.9 67.9004 210.2 67.2004 210.2 65.9004ZM212.2 67.3004C213 67.3004 213.4 66.8004 213.4 65.8004C213.4 64.8004 213 64.4004 212.2 64.4004C211.4 64.4004 211 64.9004 211 65.8004C210.9 66.8004 211.3 67.3004 212.2 67.3004Z" fill="#838383"/>
<path d="M215.1 67.9008V63.8008H215.6L215.7 64.3008C216.1 64.0008 216.5 63.8008 217 63.8008V64.4008C216.5 64.4008 216.1 64.6008 215.8 64.9008V67.9008H215.1Z" fill="#838383"/>
<path d="M221.1 67.7008C220.6 67.9008 220 67.9008 219.3 67.9008C218.1 67.9008 217.5 67.2008 217.5 65.8008C217.5 64.5008 218.1 63.8008 219.4 63.8008C219.8 63.8008 220.1 63.9008 220.4 64.0008V62.3008H221.1V67.7008ZM220.4 64.7008C220.1 64.6008 219.8 64.5008 219.4 64.5008C218.6 64.5008 218.2 64.9008 218.2 65.8008C218.2 66.8008 218.6 67.3008 219.4 67.3008C219.8 67.3008 220.1 67.3008 220.4 67.1008V64.7008Z" fill="#838383"/>
<path d="M224 63.9004C225.2 63.9004 225.7 64.5004 225.7 65.6004C225.7 65.8004 225.7 65.9004 225.7 66.1004H222.8C222.8 66.9004 223.3 67.3004 224.3 67.3004C224.8 67.3004 225.2 67.2004 225.5 67.1004V67.7004C225.1 67.8004 224.7 67.9004 224.2 67.9004C222.8 67.9004 222.1 67.2004 222.1 65.8004C222.1 64.5004 222.7 63.9004 224 63.9004ZM222.8 65.5004H225C225 64.8004 224.6 64.4004 224 64.4004C223.2 64.4004 222.9 64.8004 222.8 65.5004Z" fill="#838383"/>
<path d="M226.7 67.9008V63.8008H227.2L227.3 64.3008C227.7 64.0008 228.2 63.8008 228.7 63.8008C229.7 63.8008 230.2 64.3008 230.2 65.3008V67.9008H229.5V65.3008C229.5 64.7008 229.2 64.4008 228.6 64.4008C228.2 64.4008 227.8 64.6008 227.4 64.9008V67.9008H226.7Z" fill="#838383"/>
<path d="M94.8999 90.9004V85.4004H95.5999L98.9999 89.9004V85.4004H99.6999V90.9004H98.9999L95.5999 86.4004V90.9004H94.8999Z" fill="#CCCCCC"/>
<path d="M100.7 86.4004C100.7 85.7004 101 85.4004 101.7 85.4004C102.4 85.4004 102.7 85.7004 102.7 86.4004C102.7 87.1004 102.4 87.4004 101.7 87.4004C101.1 87.4004 100.8 87.1004 100.7 86.4004ZM101.7 87.1004C102.1 87.1004 102.3 86.9004 102.3 86.4004C102.3 85.9004 102.1 85.7004 101.7 85.7004C101.3 85.7004 101.1 85.9004 101.1 86.4004C101.1 86.9004 101.3 87.1004 101.7 87.1004Z" fill="#CCCCCC"/>
<path d="M105.6 90.9008V86.8008H106.1L106.2 87.3008C106.6 87.0008 107 86.8008 107.5 86.8008V87.4008C107 87.4008 106.6 87.6008 106.3 87.9008V90.9008H105.6Z" fill="#CCCCCC"/>
<path d="M109.9 86.9004C111.1 86.9004 111.6 87.5004 111.6 88.6004C111.6 88.8004 111.6 88.9004 111.6 89.1004H108.7C108.7 89.9004 109.2 90.3004 110.2 90.3004C110.7 90.3004 111.1 90.2004 111.4 90.1004V90.7004C111 90.8004 110.6 90.9004 110.1 90.9004C108.7 90.9004 108 90.2004 108 88.8004C108 87.5004 108.6 86.9004 109.9 86.9004ZM108.7 88.5004H110.9C110.9 87.8004 110.5 87.4004 109.9 87.4004C109.2 87.4004 108.8 87.8004 108.7 88.5004Z" fill="#CCCCCC"/>
<path d="M115.6 90.8008C115.3 90.9008 114.9 90.9008 114.5 90.9008C113.1 90.9008 112.3 90.2008 112.3 88.8008C112.3 87.5008 113 86.8008 114.5 86.8008C114.9 86.8008 115.2 86.8008 115.6 86.9008V87.5008C115.3 87.4008 114.9 87.4008 114.5 87.4008C113.6 87.4008 113.1 87.9008 113.1 88.8008C113.1 89.8008 113.6 90.3008 114.5 90.3008C114.9 90.3008 115.3 90.3008 115.6 90.2008V90.8008Z" fill="#CCCCCC"/>
<path d="M117.3 85.4004V86.1004H116.6V85.4004H117.3ZM117.3 86.9004V91.0004H116.6V86.9004H117.3Z" fill="#CCCCCC"/>
<path d="M118.6 85.4004H119.3V87.0004C119.6 86.9004 119.9 86.8004 120.3 86.8004C121.6 86.8004 122.2 87.5004 122.2 88.8004C122.2 90.2004 121.5 90.9004 120.2 90.9004C119.6 90.9004 119.1 90.8004 118.6 90.7004V85.4004ZM119.3 90.2004C119.5 90.3004 119.8 90.3004 120.2 90.3004C121.1 90.3004 121.6 89.8004 121.6 88.8004C121.6 87.9004 121.2 87.5004 120.4 87.5004C120 87.5004 119.7 87.6004 119.4 87.7004V90.2004H119.3Z" fill="#CCCCCC"/>
<path d="M123 88.9004C123 87.5004 123.6 86.9004 124.9 86.9004C126.2 86.9004 126.8 87.6004 126.8 88.9004C126.8 90.3004 126.2 90.9004 124.9 90.9004C123.6 90.9004 123 90.2004 123 88.9004ZM124.9 90.3004C125.7 90.3004 126.1 89.8004 126.1 88.8004C126.1 87.8004 125.7 87.4004 124.9 87.4004C124.1 87.4004 123.7 87.9004 123.7 88.8004C123.7 89.9004 124.1 90.3004 124.9 90.3004Z" fill="#CCCCCC"/>
<path d="M128.5 86.9004V87.6004H127.8V86.9004H128.5ZM128.5 90.2004V90.9004H127.8V90.2004H128.5Z" fill="#CCCCCC"/>
<path d="M95.7 98.5996V104.1H95V98.5996H95.7Z" fill="#CCCCCC"/>
<path d="M97.1001 104.1V100H97.6001L97.7001 100.5C98.1001 100.2 98.5001 100 99.0001 100C99.6001 100 100 100.2 100.2 100.6C100.6 100.2 101.1 100 101.5 100C102.4 100 102.9 100.5 102.9 101.5V104H102.2V101.4C102.2 100.8 101.9 100.5 101.4 100.5C101 100.5 100.7 100.7 100.3 101V103.9H99.6001V101.4C99.6001 100.8 99.3001 100.5 98.8001 100.5C98.4001 100.5 98.0001 100.7 97.7001 101V103.9H97.1001V104.1Z" fill="#CCCCCC"/>
<path d="M104.1 100.2C104.6 100.1 105.2 100 105.8 100C107.1 100 107.8 100.6 107.8 101.9C107.8 103.3 107.1 104 105.8 104C105.5 104 105.2 103.9 104.9 103.8V105.5H104.2V100.2H104.1ZM104.8 103.3C105.1 103.4 105.4 103.5 105.7 103.5C106.5 103.5 107 103 107 102C107 101.1 106.6 100.7 105.7 100.7C105.3 100.7 105 100.7 104.8 100.8V103.3Z" fill="#CCCCCC"/>
<path d="M108.5 102.1C108.5 100.7 109.1 100.1 110.4 100.1C111.7 100.1 112.3 100.8 112.3 102.1C112.3 103.5 111.7 104.1 110.4 104.1C109.1 104.1 108.5 103.5 108.5 102.1ZM110.4 103.6C111.2 103.6 111.6 103.1 111.6 102.1C111.6 101.1 111.2 100.7 110.4 100.7C109.6 100.7 109.2 101.2 109.2 102.1C109.2 103.1 109.6 103.6 110.4 103.6Z" fill="#CCCCCC"/>
<path d="M113.3 104.1V100H113.8L113.9 100.5C114.3 100.2 114.7 100 115.2 100V100.6C114.7 100.6 114.3 100.8 114 101.1V104.1H113.3Z" fill="#CCCCCC"/>
<path d="M116 99.4004H116.4L116.6 100.1H117.7V100.7H116.7V103C116.7 103.4 116.9 103.6 117.2 103.6H117.7V104.2H117C116.3 104.2 116 103.8 116 103.1V99.4004Z" fill="#CCCCCC"/>
<path d="M120.2 100.1C121.4 100.1 121.9 100.7 121.9 101.8C121.9 102 121.9 102.1 121.9 102.3H119C119 103.1 119.5 103.5 120.5 103.5C121 103.5 121.4 103.4 121.7 103.3V103.9C121.3 104 120.9 104.1 120.4 104.1C119 104.1 118.3 103.4 118.3 102C118.4 100.7 119 100.1 120.2 100.1ZM119.1 101.7H121.3C121.3 101 120.9 100.6 120.3 100.6C119.5 100.6 119.1 101 119.1 101.7Z" fill="#CCCCCC"/>
<path d="M123.7 100.1V100.8H123V100.1H123.7ZM123.7 103.4V104.1H123V103.4H123.7Z" fill="#CCCCCC"/>
<path d="M99.8998 134L97.4998 139.5H96.6998L94.2998 134H95.0998L97.0998 138.8L99.0998 134H99.8998Z" fill="#CCCCCC"/>
<path d="M101.7 135.5C102.9 135.5 103.4 136.1 103.4 137.2C103.4 137.4 103.4 137.5 103.4 137.7H100.5C100.5 138.5 101 138.9 102 138.9C102.5 138.9 102.9 138.8 103.2 138.7V139.3C102.8 139.4 102.4 139.5 101.9 139.5C100.5 139.5 99.7998 138.8 99.7998 137.4C99.8998 136.1 100.5 135.5 101.7 135.5ZM100.6 137.1H102.8C102.8 136.4 102.4 136 101.8 136C101 136 100.6 136.4 100.6 137.1Z" fill="#CCCCCC"/>
<path d="M104.4 139.5V135.4H104.9L105 135.9C105.4 135.6 105.9 135.4 106.4 135.4C107.4 135.4 107.9 135.9 107.9 136.9V139.5H107.2V137C107.2 136.4 106.9 136.1 106.3 136.1C105.9 136.1 105.5 136.3 105.1 136.6V139.6H104.4V139.5Z" fill="#CCCCCC"/>
<path d="M112.2 139.4C111.9 139.5 111.5 139.5 111.1 139.5C109.7 139.5 108.9 138.8 108.9 137.4C108.9 136.1 109.6 135.4 111.1 135.4C111.5 135.4 111.8 135.4 112.2 135.5V136.1C111.9 136 111.5 136 111.1 136C110.2 136 109.7 136.5 109.7 137.4C109.7 138.4 110.2 138.9 111.1 138.9C111.5 138.9 111.9 138.9 112.2 138.8V139.4Z" fill="#CCCCCC"/>
<path d="M113.9 134V134.7H113.2V134H113.9ZM113.9 135.5V139.6H113.2V135.5H113.9Z" fill="#CCCCCC"/>
<path d="M115.1 139.5V135.4H115.6L115.7 135.9C116.1 135.6 116.5 135.4 117 135.4C117.6 135.4 118 135.6 118.2 136C118.6 135.6 119.1 135.4 119.5 135.4C120.4 135.4 120.9 135.9 120.9 136.9V139.4H120.2V137C120.2 136.4 119.9 136.1 119.4 136.1C119 136.1 118.7 136.3 118.3 136.6V139.5H117.6V137C117.6 136.4 117.3 136.1 116.8 136.1C116.4 136.1 116 136.3 115.7 136.6V139.5H115.1Z" fill="#CCCCCC"/>
<path d="M122.9 134V134.7H122.2V134H122.9ZM122.9 135.5V139.6H122.2V135.5H122.9Z" fill="#CCCCCC"/>
<path d="M125.8 135.5C127 135.5 127.5 136.1 127.5 137.2C127.5 137.4 127.5 137.5 127.5 137.7H124.6C124.6 138.5 125.1 138.9 126.1 138.9C126.6 138.9 127 138.8 127.3 138.7V139.3C126.9 139.4 126.5 139.5 126 139.5C124.6 139.5 123.9 138.8 123.9 137.4C123.9 136.1 124.6 135.5 125.8 135.5ZM124.6 137.1H126.8C126.8 136.4 126.4 136 125.8 136C125.1 136 124.7 136.4 124.6 137.1Z" fill="#CCCCCC"/>
<path d="M128.5 139.5V135.4H129L129.1 135.9C129.5 135.6 130 135.4 130.5 135.4C131.5 135.4 132 135.9 132 136.9V139.5H131.3V137C131.3 136.4 131 136.1 130.4 136.1C130 136.1 129.6 136.3 129.2 136.6V139.6H128.5V139.5Z" fill="#CCCCCC"/>
<path d="M133.2 134.801H133.6L133.8 135.501H134.9V136.101H133.9V138.401C133.9 138.801 134.1 139.001 134.4 139.001H134.9V139.601H134.2C133.5 139.601 133.2 139.201 133.2 138.501V134.801Z" fill="#CCCCCC"/>
<path d="M135.6 137.5C135.6 136.1 136.2 135.5 137.5 135.5C138.8 135.5 139.4 136.2 139.4 137.5C139.4 138.9 138.8 139.5 137.5 139.5C136.2 139.5 135.6 138.9 135.6 137.5ZM137.5 138.9C138.3 138.9 138.7 138.4 138.7 137.4C138.7 136.4 138.3 136 137.5 136C136.7 136 136.3 136.5 136.3 137.4C136.3 138.5 136.7 138.9 137.5 138.9Z" fill="#CCCCCC"/>
<path d="M141.1 135.5V136.2H140.4V135.5H141.1ZM141.1 138.8V139.5H140.4V138.8H141.1Z" fill="#CCCCCC"/>
<path d="M144.4 139.5V134.7H143.8V134.4L145.1 134V139.6H144.4V139.5Z" fill="#858588"/>
<path d="M146.9 139.5V134.7H146.3V134.4L147.6 134V139.6H146.9V139.5Z" fill="#858588"/>
<path d="M151.2 139.5H150.5L152.9 134H153.7L156.1 139.5H155.3L154.6 137.8H152.8L153 137.2H154.4L153.4 134.7L151.2 139.5Z" fill="#858588"/>
<path d="M160.1 139.5C160.1 140.5 159.5 141 158.2 141C157.7 141 157.3 140.9 156.9 140.8V140.2C157.3 140.3 157.7 140.4 158.2 140.4C159 140.4 159.3 140.1 159.3 139.5V139.3C159 139.4 158.7 139.5 158.3 139.5C157 139.5 156.4 138.8 156.4 137.4C156.4 136.1 157.1 135.4 158.4 135.4C159 135.4 159.5 135.5 160 135.6V139.5H160.1ZM159.4 136.2C159.2 136.1 158.9 136.1 158.5 136.1C157.6 136.1 157.2 136.6 157.2 137.5C157.2 138.5 157.6 138.9 158.4 138.9C158.8 138.9 159.1 138.8 159.4 138.7V136.2Z" fill="#858588"/>
<path d="M161.1 137.5C161.1 136.1 161.7 135.5 163 135.5C164.3 135.5 164.9 136.2 164.9 137.5C164.9 138.9 164.3 139.5 163 139.5C161.7 139.5 161.1 138.9 161.1 137.5ZM163 138.9C163.8 138.9 164.2 138.4 164.2 137.4C164.2 136.4 163.8 136 163 136C162.2 136 161.8 136.5 161.8 137.4C161.8 138.5 162.2 138.9 163 138.9Z" fill="#858588"/>
<path d="M167.5 139.5V138.9C169.6 137.5 170.6 136.4 170.6 135.5C170.6 134.8 170.2 134.5 169.3 134.5C168.7 134.5 168.2 134.6 167.7 134.9V134.3C168.2 134 168.7 133.9 169.3 133.9C170.7 133.9 171.3 134.4 171.3 135.5C171.3 136.5 170.4 137.6 168.5 138.9H171.3V139.5H167.5Z" fill="#858588"/>
<path d="M172.1 136.8C172.1 134.9 172.9 134 174.5 134C176.1 134 176.9 134.9 176.9 136.8C176.9 138.7 176.1 139.6 174.5 139.6C172.9 139.6 172.1 138.6 172.1 136.8ZM174.5 139C175.6 139 176.1 138.3 176.1 136.8C176.1 135.3 175.6 134.6 174.5 134.6C173.4 134.6 172.9 135.3 172.9 136.8C172.9 138.2 173.4 139 174.5 139Z" fill="#858588"/>
<path d="M177.5 139.5V138.9C179.6 137.5 180.6 136.4 180.6 135.5C180.6 134.8 180.2 134.5 179.3 134.5C178.7 134.5 178.2 134.6 177.7 134.9V134.3C178.2 134 178.7 133.9 179.3 133.9C180.7 133.9 181.3 134.4 181.3 135.5C181.3 136.5 180.4 137.6 178.5 138.9H181.3V139.5H177.5Z" fill="#858588"/>
<path d="M182 139.5V138.9C184.1 137.5 185.1 136.4 185.1 135.5C185.1 134.8 184.7 134.5 183.8 134.5C183.2 134.5 182.7 134.6 182.2 134.9V134.3C182.7 134 183.2 133.9 183.8 133.9C185.2 133.9 185.8 134.4 185.8 135.5C185.8 136.5 184.9 137.6 183 138.9H185.8V139.5H182Z" fill="#858588"/>
<path d="M247.4 139.5V134H248.3L250.3 138.6L252.3 134H253.2V139.5H252.6V135L250.6 139.5H250L248 135V139.5H247.4Z" fill="#CCCCCC"/>
<path d="M254.3 137.5C254.3 136.1 254.9 135.5 256.2 135.5C257.5 135.5 258.1 136.2 258.1 137.5C258.1 138.9 257.5 139.5 256.2 139.5C254.9 139.5 254.3 138.9 254.3 137.5ZM256.2 138.9C257 138.9 257.4 138.4 257.4 137.4C257.4 136.4 257 136 256.2 136C255.4 136 255 136.5 255 137.4C255 138.5 255.4 138.9 256.2 138.9Z" fill="#CCCCCC"/>
<path d="M259.1 139.5V135.4H259.6L259.7 135.9C260.1 135.6 260.5 135.4 261 135.4V136C260.5 136 260.1 136.2 259.8 136.5V139.5H259.1Z" fill="#CCCCCC"/>
<path d="M261.5 138.3C261.5 137.5 262 137 263.1 137C263.5 137 263.8 137 264.2 137.1V136.7C264.2 136.2 263.8 136 263.1 136C262.7 136 262.3 136.1 261.8 136.2V135.6C262.2 135.5 262.7 135.4 263.1 135.4C264.3 135.4 264.9 135.8 264.9 136.7V139.5H264.5L264.3 139.1C263.9 139.4 263.5 139.5 263 139.5C262 139.5 261.5 139.1 261.5 138.3ZM263.2 137.6C262.6 137.6 262.3 137.8 262.3 138.3C262.3 138.7 262.5 139 263 139C263.5 139 263.9 138.9 264.3 138.6V137.8C263.9 137.7 263.5 137.6 263.2 137.6Z" fill="#CCCCCC"/>
<path d="M266.8 135.5V136.2H266.1V135.5H266.8ZM266.8 138.8V139.5H266.1V138.8H266.8Z" fill="#CCCCCC"/>
<path d="M269.7 139.3V138.6C270.3 138.8 270.9 138.9 271.6 138.9C272.6 138.9 273 138.6 273 137.9C273 137.3 272.6 137 271.9 137H271.2C270 137 269.5 136.5 269.5 135.5C269.5 134.4 270.2 133.9 271.7 133.9C272.3 133.9 272.9 134 273.5 134.1V134.8C272.9 134.6 272.3 134.5 271.7 134.5C270.7 134.5 270.2 134.8 270.2 135.5C270.2 136.1 270.5 136.4 271.2 136.4H271.9C273.1 136.4 273.7 136.9 273.7 137.9C273.7 139 273 139.5 271.6 139.5C270.9 139.6 270.3 139.5 269.7 139.3Z" fill="#858588"/>
<path d="M275 139.5H274.2L277 134H277.8L275 139.5Z" fill="#858588"/>
<path d="M280.3 136.8C280.3 134.9 281.1 134 282.7 134C284.3 134 285.1 134.9 285.1 136.8C285.1 138.7 284.3 139.6 282.7 139.6C281.1 139.6 280.3 138.6 280.3 136.8ZM282.7 139C283.8 139 284.3 138.3 284.3 136.8C284.3 135.3 283.8 134.6 282.7 134.6C281.6 134.6 281.1 135.3 281.1 136.8C281 138.2 281.6 139 282.7 139Z" fill="#858588"/>
<path d="M286.6 138.801V139.501H285.9V138.801H286.6Z" fill="#858588"/>
<path d="M287.4 136.8C287.4 134.9 288.2 134 289.8 134C291.4 134 292.2 134.9 292.2 136.8C292.2 138.7 291.4 139.6 289.8 139.6C288.2 139.6 287.4 138.6 287.4 136.8ZM289.8 139C290.9 139 291.4 138.3 291.4 136.8C291.4 135.3 290.9 134.6 289.8 134.6C288.7 134.6 288.2 135.3 288.2 136.8C288.1 138.2 288.7 139 289.8 139Z" fill="#858588"/>
<path d="M293 136.8C293 134.9 293.8 134 295.4 134C297 134 297.8 134.9 297.8 136.8C297.8 138.7 297 139.6 295.4 139.6C293.8 139.6 293 138.6 293 136.8ZM295.4 139C296.5 139 297 138.3 297 136.8C297 135.3 296.5 134.6 295.4 134.6C294.3 134.6 293.8 135.3 293.8 136.8C293.7 138.2 294.3 139 295.4 139Z" fill="#858588"/>
<path d="M99.1002 152.502C98.6002 152.702 98.1002 152.702 97.6002 152.702C95.7002 152.702 94.7002 151.702 94.7002 149.802C94.7002 148.002 95.7002 147.102 97.6002 147.102C98.2002 147.102 98.7002 147.202 99.1002 147.302V147.902C98.6002 147.702 98.1002 147.602 97.6002 147.602C96.1002 147.602 95.3002 148.302 95.3002 149.702C95.3002 151.202 96.1002 152.002 97.6002 152.002C98.1002 152.002 98.6002 151.902 99.1002 151.702V152.502Z" fill="#CCCCCC"/>
<path d="M100 151.502C100 150.702 100.5 150.202 101.6 150.202C102 150.202 102.3 150.202 102.7 150.302V149.902C102.7 149.402 102.3 149.202 101.6 149.202C101.2 149.202 100.8 149.302 100.3 149.402V148.802C100.7 148.702 101.2 148.602 101.6 148.602C102.8 148.602 103.4 149.002 103.4 149.902V152.702H103L102.8 152.302C102.4 152.602 102 152.702 101.5 152.702C100.5 152.702 100 152.302 100 151.502ZM101.7 150.802C101.1 150.802 100.8 151.002 100.8 151.502C100.8 151.902 101 152.202 101.5 152.202C102 152.202 102.4 152.102 102.8 151.802V151.002C102.4 150.802 102 150.802 101.7 150.802Z" fill="#CCCCCC"/>
<path d="M104.6 152.702V148.602H105.1L105.2 149.102C105.6 148.802 106 148.602 106.5 148.602V149.202C106 149.202 105.6 149.402 105.3 149.702V152.702H104.6Z" fill="#CCCCCC"/>
<path d="M110.6 152.702C110.6 153.702 110 154.202 108.7 154.202C108.2 154.202 107.8 154.102 107.4 154.002V153.402C107.8 153.502 108.2 153.602 108.7 153.602C109.5 153.602 109.8 153.302 109.8 152.702V152.502C109.5 152.602 109.2 152.702 108.8 152.702C107.5 152.702 106.9 152.002 106.9 150.602C106.9 149.302 107.6 148.602 108.9 148.602C109.5 148.602 110 148.702 110.5 148.802V152.702H110.6ZM109.9 149.302C109.7 149.202 109.4 149.202 109 149.202C108.1 149.202 107.7 149.702 107.7 150.602C107.7 151.602 108.1 152.002 108.9 152.002C109.3 152.002 109.6 151.902 109.9 151.802V149.302Z" fill="#CCCCCC"/>
<path d="M111.6 150.701C111.6 149.301 112.2 148.701 113.5 148.701C114.8 148.701 115.4 149.401 115.4 150.701C115.4 152.101 114.8 152.701 113.5 152.701C112.3 152.701 111.6 152.001 111.6 150.701ZM113.6 152.101C114.4 152.101 114.8 151.601 114.8 150.601C114.8 149.601 114.4 149.201 113.6 149.201C112.8 149.201 112.4 149.701 112.4 150.601C112.3 151.601 112.7 152.101 113.6 152.101Z" fill="#CCCCCC"/>
<path d="M119.1 149.201V152.701H118.4V148.401C118.4 147.401 119 146.801 120.1 146.801C120.5 146.801 120.8 146.901 121.2 147.001V147.601C120.8 147.401 120.4 147.401 120.1 147.401C119.4 147.401 119.1 147.701 119.1 148.301V148.601H121.5V152.701H120.8V149.201H119.1Z" fill="#CCCCCC"/>
<path d="M123.6 148.601V152.401C123.6 153.201 123.4 153.801 123 154.301L122.4 153.901C122.7 153.601 122.9 153.101 122.9 152.501V148.701H123.6V148.601ZM123.6 147.201V147.901H122.9V147.201H123.6Z" fill="#CCCCCC"/>
<path d="M124.6 150.701C124.6 149.301 125.2 148.701 126.5 148.701C127.8 148.701 128.4 149.401 128.4 150.701C128.4 152.101 127.8 152.701 126.5 152.701C125.3 152.701 124.6 152.001 124.6 150.701ZM126.5 152.101C127.3 152.101 127.7 151.601 127.7 150.601C127.7 149.601 127.3 149.201 126.5 149.201C125.7 149.201 125.3 149.701 125.3 150.601C125.3 151.601 125.7 152.101 126.5 152.101Z" fill="#CCCCCC"/>
<path d="M130.2 148.602V149.302H129.5V148.602H130.2ZM130.2 152.002V152.702H129.5V152.002H130.2Z" fill="#CCCCCC"/>
<path d="M133.1 152.502V151.802C133.7 152.002 134.3 152.102 135 152.102C136 152.102 136.4 151.802 136.4 151.102C136.4 150.502 136 150.202 135.3 150.202H134.6C133.4 150.202 132.9 149.702 132.9 148.702C132.9 147.602 133.6 147.102 135.1 147.102C135.7 147.102 136.3 147.202 136.9 147.302V148.002C136.3 147.802 135.7 147.702 135.1 147.702C134.1 147.702 133.6 148.002 133.6 148.702C133.6 149.302 133.9 149.602 134.6 149.602H135.3C136.5 149.602 137.1 150.102 137.1 151.102C137.1 152.202 136.4 152.702 135 152.702C134.3 152.702 133.7 152.702 133.1 152.502Z" fill="#858588"/>
<path d="M138.4 152.701H137.6L140.4 147.201H141.2L138.4 152.701Z" fill="#858588"/>
<path d="M143.6 149.902C143.6 148.002 144.4 147.102 146 147.102C147.6 147.102 148.4 148.002 148.4 149.902C148.4 151.802 147.6 152.702 146 152.702C144.4 152.702 143.6 151.802 143.6 149.902ZM146 152.202C147.1 152.202 147.6 151.502 147.6 150.002C147.6 148.502 147.1 147.802 146 147.802C144.9 147.802 144.4 148.502 144.4 150.002C144.4 151.402 144.9 152.202 146 152.202Z" fill="#858588"/>
<path d="M149.9 152V152.7H149.2V152H149.9Z" fill="#858588"/>
<path d="M150.7 149.902C150.7 148.002 151.5 147.102 153.1 147.102C154.7 147.102 155.5 148.002 155.5 149.902C155.5 151.802 154.7 152.702 153.1 152.702C151.5 152.702 150.7 151.802 150.7 149.902ZM153.1 152.202C154.2 152.202 154.7 151.502 154.7 150.002C154.7 148.502 154.2 147.802 153.1 147.802C152 147.802 151.5 148.502 151.5 150.002C151.5 151.402 152 152.202 153.1 152.202Z" fill="#858588"/>
<path d="M156.3 149.902C156.3 148.002 157.1 147.102 158.7 147.102C160.3 147.102 161.1 148.002 161.1 149.902C161.1 151.802 160.3 152.702 158.7 152.702C157.1 152.702 156.3 151.802 156.3 149.902ZM158.7 152.202C159.8 152.202 160.3 151.502 160.3 150.002C160.3 148.502 159.8 147.802 158.7 147.802C157.6 147.802 157.1 148.502 157.1 150.002C157.1 151.402 157.6 152.202 158.7 152.202Z" fill="#858588"/>
<path d="M235.9 152.5C235.4 152.7 234.9 152.7 234.4 152.7C232.5 152.7 231.5 151.7 231.5 149.8C231.5 148 232.5 147.1 234.4 147.1C235 147.1 235.5 147.2 235.9 147.3V147.9C235.4 147.7 234.9 147.6 234.4 147.6C232.9 147.6 232.1 148.3 232.1 149.7C232.1 151.2 232.9 152 234.4 152C234.9 152 235.4 151.9 235.9 151.7V152.5Z" fill="#CCCCCC"/>
<path d="M236.8 150.699C236.8 149.299 237.4 148.699 238.7 148.699C240 148.699 240.6 149.399 240.6 150.699C240.6 152.099 240 152.699 238.7 152.699C237.5 152.699 236.8 151.999 236.8 150.699ZM238.8 152.099C239.6 152.099 240 151.599 240 150.599C240 149.599 239.6 149.199 238.8 149.199C238 149.199 237.6 149.699 237.6 150.599C237.5 151.599 237.9 152.099 238.8 152.099Z" fill="#CCCCCC"/>
<path d="M241.7 152.7V148.6H242.2L242.3 149.1C242.7 148.8 243.1 148.6 243.6 148.6C244.2 148.6 244.6 148.8 244.8 149.2C245.2 148.8 245.7 148.6 246.1 148.6C247 148.6 247.5 149.1 247.5 150.1V152.6H246.8V150C246.8 149.4 246.5 149.1 246 149.1C245.6 149.1 245.3 149.3 244.9 149.6V152.5H244.2V150C244.2 149.4 243.9 149.1 243.4 149.1C243 149.1 242.6 149.3 242.3 149.6V152.5H241.7V152.7Z" fill="#CCCCCC"/>
<path d="M249.4 147.199V147.899H248.7V147.199H249.4ZM249.4 148.599V152.699H248.7V148.599H249.4Z" fill="#CCCCCC"/>
<path d="M250.6 152.5V151.9C251.1 152.1 251.6 152.1 252 152.1C252.6 152.1 253 151.9 253 151.5C253 151.1 252.8 151 252.3 151H251.7C250.8 151 250.4 150.6 250.4 149.8C250.4 149 251 148.6 252.1 148.6C252.6 148.6 253.1 148.7 253.5 148.8V149.4C253 149.2 252.5 149.2 252.1 149.2C251.4 149.2 251.1 149.4 251.1 149.8C251.1 150.2 251.3 150.3 251.7 150.3H252.3C253.2 150.3 253.7 150.7 253.7 151.5C253.7 152.3 253.1 152.7 252 152.7C251.6 152.7 251.1 152.6 250.6 152.5Z" fill="#CCCCCC"/>
<path d="M255.5 147.199V147.899H254.8V147.199H255.5ZM255.5 148.599V152.699H254.8V148.599H255.5Z" fill="#CCCCCC"/>
<path d="M256.6 150.699C256.6 149.299 257.2 148.699 258.5 148.699C259.8 148.699 260.4 149.399 260.4 150.699C260.4 152.099 259.8 152.699 258.5 152.699C257.2 152.699 256.6 151.999 256.6 150.699ZM258.5 152.099C259.3 152.099 259.7 151.599 259.7 150.599C259.7 149.599 259.3 149.199 258.5 149.199C257.7 149.199 257.3 149.699 257.3 150.599C257.3 151.599 257.7 152.099 258.5 152.099ZM258.6 147.199H259.5L258.6 148.099H258L258.6 147.199Z" fill="#CCCCCC"/>
<path d="M261.4 152.7V148.6H261.9L262 149.1C262.4 148.8 262.9 148.6 263.4 148.6C264.4 148.6 264.9 149.1 264.9 150.1V152.7H264.2V150.1C264.2 149.5 263.9 149.2 263.3 149.2C262.9 149.2 262.5 149.4 262.1 149.7V152.7H261.4Z" fill="#CCCCCC"/>
<path d="M266.8 148.6V149.3H266.1V148.6H266.8ZM266.8 152V152.7H266.1V152H266.8Z" fill="#CCCCCC"/>
<path d="M269.7 152.5V151.8C270.3 152 270.9 152.1 271.6 152.1C272.6 152.1 273 151.8 273 151.1C273 150.5 272.6 150.2 271.9 150.2H271.2C270 150.2 269.5 149.7 269.5 148.7C269.5 147.6 270.2 147.1 271.7 147.1C272.3 147.1 272.9 147.2 273.5 147.3V148C272.9 147.8 272.3 147.7 271.7 147.7C270.7 147.7 270.2 148 270.2 148.7C270.2 149.3 270.5 149.6 271.2 149.6H271.9C273.1 149.6 273.7 150.1 273.7 151.1C273.7 152.2 273 152.7 271.6 152.7C270.9 152.7 270.3 152.7 269.7 152.5Z" fill="#858588"/>
<path d="M275 152.699H274.2L277 147.199H277.8L275 152.699Z" fill="#858588"/>
<path d="M280.3 149.9C280.3 148 281.1 147.1 282.7 147.1C284.3 147.1 285.1 148 285.1 149.9C285.1 151.8 284.3 152.7 282.7 152.7C281.1 152.7 280.3 151.8 280.3 149.9ZM282.7 152.2C283.8 152.2 284.3 151.5 284.3 150C284.3 148.5 283.8 147.8 282.7 147.8C281.6 147.8 281.1 148.5 281.1 150C281 151.4 281.6 152.2 282.7 152.2Z" fill="#858588"/>
<path d="M286.6 152V152.7H285.9V152H286.6Z" fill="#858588"/>
<path d="M287.4 149.9C287.4 148 288.2 147.1 289.8 147.1C291.4 147.1 292.2 148 292.2 149.9C292.2 151.8 291.4 152.7 289.8 152.7C288.2 152.7 287.4 151.8 287.4 149.9ZM289.8 152.2C290.9 152.2 291.4 151.5 291.4 150C291.4 148.5 290.9 147.8 289.8 147.8C288.7 147.8 288.2 148.5 288.2 150C288.1 151.4 288.7 152.2 289.8 152.2Z" fill="#858588"/>
<path d="M293 149.9C293 148 293.8 147.1 295.4 147.1C297 147.1 297.8 148 297.8 149.9C297.8 151.8 297 152.7 295.4 152.7C293.8 152.7 293 151.8 293 149.9ZM295.4 152.2C296.5 152.2 297 151.5 297 150C297 148.5 296.5 147.8 295.4 147.8C294.3 147.8 293.8 148.5 293.8 150C293.7 151.4 294.3 152.2 295.4 152.2Z" fill="#858588"/>
<path d="M95.4 124.101V122.801C96.5 123.201 97.7 123.401 99 123.401C100.8 123.401 101.7 122.701 101.7 121.401C101.7 120.301 101 119.701 99.7 119.701H98.3C96.1 119.701 95 118.701 95 116.801C95 114.801 96.4 113.801 99.2 113.801C100.4 113.801 101.6 113.901 102.6 114.201V115.501C101.5 115.101 100.4 114.901 99.2 114.901C97.3 114.901 96.3 115.501 96.3 116.801C96.3 117.901 96.9 118.501 98.2 118.501H99.6C101.8 118.501 103 119.501 103 121.401C103 123.501 101.6 124.501 98.9 124.501C97.7 124.501 96.5 124.401 95.4 124.101Z" fill="#FF4200"/>
<path d="M105.4 124.5H103.9L109.2 114H110.7L105.4 124.5Z" fill="#FF4200"/>
<path d="M116.5 124.5V115.3H115.4V114.6L117.9 113.9V124.5H116.5Z" fill="#FF4200"/>
<path d="M120.1 114.3C121.1 114 122.1 113.9 123 113.9C125.5 113.9 126.8 114.9 126.8 116.8C126.8 118 126.3 118.8 125.4 119.2C126.3 119.6 126.8 120.4 126.8 121.6C126.8 123.6 125.5 124.6 123 124.6C122 124.6 121 124.5 120.1 124.2V123C121.1 123.3 122.1 123.5 123 123.5C124.6 123.5 125.4 122.9 125.4 121.6C125.4 120.4 124.8 119.8 123.5 119.8H121.1V118.7H123.5C124.8 118.7 125.4 118.1 125.4 116.9C125.4 115.7 124.6 115.1 123 115.1C122 115.1 121 115.3 120.1 115.6V114.3Z" fill="#FF4200"/>
<path d="M128.7 119.201C128.7 115.601 130.2 113.801 133.3 113.801C136.3 113.801 137.8 115.601 137.8 119.201C137.8 122.701 136.3 124.501 133.3 124.501C130.2 124.501 128.7 122.801 128.7 119.201ZM133.2 123.401C135.2 123.401 136.2 122.001 136.2 119.101C136.2 116.301 135.2 114.901 133.2 114.901C131.1 114.901 130.1 116.301 130.1 119.101C130.1 122.001 131.2 123.401 133.2 123.401Z" fill="#FF4200"/>
<path d="M140.6 123.102V124.502H139.2V123.102H140.6Z" fill="#FF4200"/>
<path d="M142.2 119.201C142.2 115.601 143.7 113.801 146.8 113.801C149.8 113.801 151.3 115.601 151.3 119.201C151.3 122.701 149.8 124.501 146.8 124.501C143.7 124.501 142.2 122.801 142.2 119.201ZM146.7 123.401C148.7 123.401 149.7 122.001 149.7 119.101C149.7 116.301 148.7 114.901 146.7 114.901C144.6 114.901 143.6 116.301 143.6 119.101C143.6 122.001 144.6 123.401 146.7 123.401Z" fill="#FF4200"/>
<path d="M152.8 119.201C152.8 115.601 154.3 113.801 157.4 113.801C160.4 113.801 161.9 115.601 161.9 119.201C161.9 122.701 160.4 124.501 157.4 124.501C154.3 124.501 152.8 122.801 152.8 119.201ZM157.3 123.401C159.3 123.401 160.3 122.001 160.3 119.101C160.3 116.301 159.3 114.901 157.3 114.901C155.2 114.901 154.2 116.301 154.2 119.101C154.2 122.001 155.3 123.401 157.3 123.401Z" fill="#FF4200"/>
<path d="M98.8001 29.2988V34.0988C98.8001 35.3988 97.9001 36.0988 96.1001 36.0988V34.9988C97.1001 34.9988 97.5001 34.6988 97.5001 34.0988V29.2988H98.8001Z" fill="#242229"/>
<path d="M100.3 33.3988V29.2988H101.6V33.3988C101.6 34.4988 102.2 34.9988 103.3 34.9988C104.4 34.9988 105 34.4988 105 33.3988V29.2988H106.3V33.3988C106.3 35.1988 105.3 36.0988 103.4 36.0988C101.2 36.0988 100.3 35.1988 100.3 33.3988Z" fill="#242229"/>
<path d="M108.2 36.0988H107L109.9 29.2988H111.3L114.2 36.0988H112.8L112 34.1988H109.7L110.1 33.0988H111.5L110.4 30.4988L108.2 36.0988Z" fill="#242229"/>
<path d="M115 36.0988V29.2988H116.3L119.9 34.2988V29.2988H121.1V36.0988H119.8L116.2 30.9988V36.0988H115Z" fill="#242229"/>
<path d="M124.6 36.0988V29.2988H127.6C129 29.2988 129.7 29.8988 129.7 31.1988C129.7 32.5988 128.8 33.3988 126.9 33.6988L126.7 32.5988C127.8 32.3988 128.4 31.8988 128.4 31.1988C128.4 30.5988 128.1 30.3988 127.6 30.3988H125.9V36.0988H124.6Z" fill="#242229"/>
<path d="M135.2 29.2988V30.3988H131.8V32.0988H135V33.1988H131.7V34.9988H135.2V36.0988H130.5V29.2988H135.2Z" fill="#242229"/>
<path d="M136.4 35.9992V29.1992H139.5C140.9 29.1992 141.6 29.7992 141.6 30.9992C141.6 31.7992 141.1 32.4992 140 32.9992L142.2 35.8992H140.6L138.5 32.8992V32.2992C139.7 32.0992 140.3 31.5992 140.3 30.8992C140.3 30.3992 140 30.0992 139.5 30.0992H137.8V35.9992H136.4Z" fill="#242229"/>
<path d="M147.4 29.2988V30.3988H144V32.0988H147.2V33.1988H144V34.9988H147.5V36.0988H142.8V29.2988H147.4Z" fill="#242229"/>
<path d="M153.5 29.2988V30.3988L149.9 34.9988H153.5V36.0988H148.5V34.9988L152.3 30.3988H148.6V29.2988H153.5Z" fill="#242229"/>
<path d="M89.3998 7.90039H86.2998V45.6004H89.3998V7.90039Z" fill="#FF4200"/>
<path d="M298.2 96.0996H283.9V110.4H298.2V96.0996Z" fill="white" stroke="#EEEFEF" stroke-width="0.8849" stroke-miterlimit="10"/>
<path d="M94.8999 188.699V183.199H95.5999L98.9999 187.699V183.199H99.6999V188.699H98.9999L95.5999 184.199V188.699H94.8999Z" fill="#CCCCCC"/>
<path d="M100.7 184.199C100.7 183.499 101 183.199 101.7 183.199C102.4 183.199 102.7 183.499 102.7 184.199C102.7 184.899 102.4 185.199 101.7 185.199C101.1 185.199 100.8 184.899 100.7 184.199ZM101.7 184.899C102.1 184.899 102.3 184.699 102.3 184.199C102.3 183.699 102.1 183.499 101.7 183.499C101.3 183.499 101.1 183.699 101.1 184.199C101.1 184.699 101.3 184.899 101.7 184.899Z" fill="#CCCCCC"/>
<path d="M105.6 188.7V184.6H106.1L106.2 185.1C106.6 184.8 107 184.6 107.5 184.6V185.2C107 185.2 106.6 185.4 106.3 185.7V188.7H105.6Z" fill="#CCCCCC"/>
<path d="M109.9 184.6C111.1 184.6 111.6 185.2 111.6 186.3C111.6 186.5 111.6 186.6 111.6 186.8H108.7C108.7 187.6 109.2 188 110.2 188C110.7 188 111.1 187.9 111.4 187.8V188.4C111 188.5 110.6 188.6 110.1 188.6C108.7 188.6 108 187.9 108 186.5C108 185.3 108.6 184.6 109.9 184.6ZM108.7 186.3H110.9C110.9 185.6 110.5 185.2 109.9 185.2C109.2 185.2 108.8 185.6 108.7 186.3Z" fill="#CCCCCC"/>
<path d="M115.6 188.6C115.3 188.7 114.9 188.7 114.5 188.7C113.1 188.7 112.3 188 112.3 186.6C112.3 185.3 113 184.6 114.5 184.6C114.9 184.6 115.2 184.6 115.6 184.7V185.3C115.3 185.2 114.9 185.2 114.5 185.2C113.6 185.2 113.1 185.7 113.1 186.6C113.1 187.6 113.6 188.1 114.5 188.1C114.9 188.1 115.3 188.1 115.6 188V188.6Z" fill="#CCCCCC"/>
<path d="M117.3 183.199V183.899H116.6V183.199H117.3ZM117.3 184.599V188.699H116.6V184.599H117.3Z" fill="#CCCCCC"/>
<path d="M118.6 183.199H119.3V184.899C119.6 184.799 119.9 184.699 120.3 184.699C121.6 184.699 122.2 185.399 122.2 186.699C122.2 188.099 121.5 188.799 120.2 188.799C119.6 188.799 119.1 188.699 118.6 188.599V183.199ZM119.3 187.999C119.5 188.099 119.8 188.099 120.2 188.099C121.1 188.099 121.6 187.599 121.6 186.599C121.6 185.699 121.2 185.299 120.4 185.299C120 185.299 119.7 185.399 119.4 185.499V187.999H119.3Z" fill="#CCCCCC"/>
<path d="M123 186.699C123 185.299 123.6 184.699 124.9 184.699C126.2 184.699 126.8 185.399 126.8 186.699C126.8 188.099 126.2 188.699 124.9 188.699C123.6 188.699 123 187.999 123 186.699ZM124.9 188.099C125.7 188.099 126.1 187.599 126.1 186.599C126.1 185.599 125.7 185.199 124.9 185.199C124.1 185.199 123.7 185.699 123.7 186.599C123.7 187.599 124.1 188.099 124.9 188.099Z" fill="#CCCCCC"/>
<path d="M128.5 184.6V185.3H127.8V184.6H128.5ZM128.5 188V188.7H127.8V188H128.5Z" fill="#CCCCCC"/>
<path d="M95.7 196.4V201.9H95V196.4H95.7Z" fill="#CCCCCC"/>
<path d="M97.1001 201.901V197.801H97.6001L97.7001 198.301C98.1001 198.001 98.5001 197.801 99.0001 197.801C99.6001 197.801 100 198.001 100.2 198.401C100.6 198.001 101.1 197.801 101.5 197.801C102.4 197.801 102.9 198.301 102.9 199.301V201.801H102.2V199.201C102.2 198.601 101.9 198.301 101.4 198.301C101 198.301 100.7 198.501 100.3 198.801V201.701H99.6001V199.201C99.6001 198.601 99.3001 198.301 98.8001 198.301C98.4001 198.301 98.0001 198.501 97.7001 198.801V201.701H97.1001V201.901Z" fill="#CCCCCC"/>
<path d="M104.1 198.001C104.6 197.901 105.2 197.801 105.8 197.801C107.1 197.801 107.8 198.401 107.8 199.701C107.8 201.101 107.1 201.801 105.8 201.801C105.5 201.801 105.2 201.701 104.9 201.601V203.301H104.2V198.001H104.1ZM104.8 201.101C105.1 201.201 105.4 201.301 105.7 201.301C106.5 201.301 107 200.801 107 199.801C107 198.901 106.6 198.501 105.7 198.501C105.3 198.501 105 198.501 104.8 198.601V201.101Z" fill="#CCCCCC"/>
<path d="M108.5 199.9C108.5 198.5 109.1 197.9 110.4 197.9C111.7 197.9 112.3 198.6 112.3 199.9C112.3 201.3 111.7 201.9 110.4 201.9C109.1 201.9 108.5 201.2 108.5 199.9ZM110.4 201.3C111.2 201.3 111.6 200.8 111.6 199.8C111.6 198.8 111.2 198.4 110.4 198.4C109.6 198.4 109.2 198.9 109.2 199.8C109.2 200.8 109.6 201.3 110.4 201.3Z" fill="#CCCCCC"/>
<path d="M113.3 201.901V197.801H113.8L113.9 198.301C114.3 198.001 114.7 197.801 115.2 197.801V198.401C114.7 198.401 114.3 198.601 114 198.901V201.901H113.3Z" fill="#CCCCCC"/>
<path d="M116 197.201H116.4L116.6 197.901H117.7V198.501H116.7V200.801C116.7 201.201 116.9 201.401 117.2 201.401H117.7V202.001H117C116.3 202.001 116 201.601 116 200.901V197.201Z" fill="#CCCCCC"/>
<path d="M120.2 197.801C121.4 197.801 121.9 198.401 121.9 199.501C121.9 199.701 121.9 199.801 121.9 200.001H119C119 200.801 119.5 201.201 120.5 201.201C121 201.201 121.4 201.101 121.7 201.001V201.601C121.3 201.701 120.9 201.801 120.4 201.801C119 201.801 118.3 201.101 118.3 199.701C118.4 198.501 119 197.801 120.2 197.801ZM119.1 199.501H121.3C121.3 198.801 120.9 198.401 120.3 198.401C119.5 198.401 119.1 198.801 119.1 199.501Z" fill="#CCCCCC"/>
<path d="M123.7 197.801V198.501H123V197.801H123.7ZM123.7 201.201V201.901H123V201.201H123.7Z" fill="#CCCCCC"/>
<path d="M99.8998 231.799L97.4998 237.299H96.6998L94.2998 231.799H95.0998L97.0998 236.599L99.0998 231.799H99.8998Z" fill="#CCCCCC"/>
<path d="M101.7 233.199C102.9 233.199 103.4 233.799 103.4 234.899C103.4 235.099 103.4 235.199 103.4 235.399H100.5C100.5 236.199 101 236.599 102 236.599C102.5 236.599 102.9 236.499 103.2 236.399V236.999C102.8 237.099 102.4 237.199 101.9 237.199C100.5 237.199 99.7998 236.499 99.7998 235.099C99.8998 233.899 100.5 233.199 101.7 233.199ZM100.6 234.899H102.8C102.8 234.199 102.4 233.799 101.8 233.799C101 233.799 100.6 234.199 100.6 234.899Z" fill="#CCCCCC"/>
<path d="M104.4 237.299V233.199H104.9L105 233.699C105.4 233.399 105.9 233.199 106.4 233.199C107.4 233.199 107.9 233.699 107.9 234.699V237.299H107.2V234.699C107.2 234.099 106.9 233.799 106.3 233.799C105.9 233.799 105.5 233.999 105.1 234.299V237.299H104.4Z" fill="#CCCCCC"/>
<path d="M112.2 237.199C111.9 237.299 111.5 237.299 111.1 237.299C109.7 237.299 108.9 236.599 108.9 235.199C108.9 233.899 109.6 233.199 111.1 233.199C111.5 233.199 111.8 233.199 112.2 233.299V233.899C111.9 233.799 111.5 233.799 111.1 233.799C110.2 233.799 109.7 234.299 109.7 235.199C109.7 236.199 110.2 236.699 111.1 236.699C111.5 236.699 111.9 236.699 112.2 236.599V237.199Z" fill="#CCCCCC"/>
<path d="M113.9 231.799V232.499H113.2V231.799H113.9ZM113.9 233.199V237.299H113.2V233.199H113.9Z" fill="#CCCCCC"/>
<path d="M115.1 237.299V233.199H115.6L115.7 233.699C116.1 233.399 116.5 233.199 117 233.199C117.6 233.199 118 233.399 118.2 233.799C118.6 233.399 119.1 233.199 119.5 233.199C120.4 233.199 120.9 233.699 120.9 234.699V237.199H120.2V234.599C120.2 233.999 119.9 233.699 119.4 233.699C119 233.699 118.7 233.899 118.3 234.199V237.099H117.6V234.599C117.6 233.999 117.3 233.699 116.8 233.699C116.4 233.699 116 233.899 115.7 234.199V237.099H115.1V237.299Z" fill="#CCCCCC"/>
<path d="M122.9 231.799V232.499H122.2V231.799H122.9ZM122.9 233.199V237.299H122.2V233.199H122.9Z" fill="#CCCCCC"/>
<path d="M125.8 233.199C127 233.199 127.5 233.799 127.5 234.899C127.5 235.099 127.5 235.199 127.5 235.399H124.6C124.6 236.199 125.1 236.599 126.1 236.599C126.6 236.599 127 236.499 127.3 236.399V236.999C126.9 237.099 126.5 237.199 126 237.199C124.6 237.199 123.9 236.499 123.9 235.099C123.9 233.899 124.6 233.199 125.8 233.199ZM124.6 234.899H126.8C126.8 234.199 126.4 233.799 125.8 233.799C125.1 233.799 124.7 234.199 124.6 234.899Z" fill="#CCCCCC"/>
<path d="M128.5 237.299V233.199H129L129.1 233.699C129.5 233.399 130 233.199 130.5 233.199C131.5 233.199 132 233.699 132 234.699V237.299H131.3V234.699C131.3 234.099 131 233.799 130.4 233.799C130 233.799 129.6 233.999 129.2 234.299V237.299H128.5Z" fill="#CCCCCC"/>
<path d="M133.2 232.6H133.6L133.8 233.3H134.9V233.9H133.9V236.2C133.9 236.6 134.1 236.8 134.4 236.8H134.9V237.4H134.2C133.5 237.4 133.2 237 133.2 236.3V232.6Z" fill="#CCCCCC"/>
<path d="M135.6 235.299C135.6 233.899 136.2 233.299 137.5 233.299C138.8 233.299 139.4 233.999 139.4 235.299C139.4 236.699 138.8 237.299 137.5 237.299C136.2 237.299 135.6 236.599 135.6 235.299ZM137.5 236.699C138.3 236.699 138.7 236.199 138.7 235.199C138.7 234.199 138.3 233.799 137.5 233.799C136.7 233.799 136.3 234.299 136.3 235.199C136.3 236.199 136.7 236.699 137.5 236.699Z" fill="#CCCCCC"/>
<path d="M141.1 233.199V233.899H140.4V233.199H141.1ZM141.1 236.599V237.299H140.4V236.599H141.1Z" fill="#CCCCCC"/>
<path d="M144.4 237.299V232.499H143.8V232.199L145.1 231.799V237.399H144.4V237.299Z" fill="#858588"/>
<path d="M146.9 237.299V232.499H146.3V232.199L147.6 231.799V237.399H146.9V237.299Z" fill="#858588"/>
<path d="M151 237.099V236.399C151.6 236.599 152.2 236.699 152.9 236.699C153.9 236.699 154.3 236.399 154.3 235.699C154.3 235.099 153.9 234.799 153.2 234.799H152.5C151.3 234.799 150.8 234.299 150.8 233.299C150.8 232.199 151.5 231.699 153 231.699C153.6 231.699 154.2 231.799 154.8 231.899V232.599C154.2 232.399 153.6 232.299 153 232.299C152 232.299 151.5 232.599 151.5 233.299C151.5 233.899 151.8 234.199 152.5 234.199H153.2C154.4 234.199 155 234.699 155 235.699C155 236.799 154.3 237.299 152.9 237.299C152.2 237.299 151.6 237.299 151 237.099Z" fill="#858588"/>
<path d="M157.7 233.199C158.9 233.199 159.4 233.799 159.4 234.899C159.4 235.099 159.4 235.199 159.4 235.399H156.5C156.5 236.199 157 236.599 158 236.599C158.5 236.599 158.9 236.499 159.2 236.399V236.999C158.8 237.099 158.4 237.199 157.9 237.199C156.5 237.199 155.8 236.499 155.8 235.099C155.8 233.899 156.4 233.199 157.7 233.199ZM156.5 234.899H158.7C158.7 234.199 158.3 233.799 157.7 233.799C156.9 233.799 156.5 234.199 156.5 234.899Z" fill="#858588"/>
<path d="M160.4 232.6H160.8L161 233.3H162.1V233.9H161.1V236.2C161.1 236.6 161.3 236.8 161.6 236.8H162.1V237.4H161.4C160.7 237.4 160.4 237 160.4 236.3V232.6Z" fill="#858588"/>
<path d="M164.6 237.299V236.699C166.7 235.299 167.7 234.199 167.7 233.299C167.7 232.599 167.3 232.299 166.4 232.299C165.8 232.299 165.3 232.399 164.8 232.699V232.099C165.3 231.799 165.8 231.699 166.4 231.699C167.8 231.699 168.4 232.199 168.4 233.299C168.4 234.299 167.5 235.399 165.6 236.699H168.4V237.299H164.6Z" fill="#858588"/>
<path d="M169.2 234.499C169.2 232.599 170 231.699 171.6 231.699C173.2 231.699 174 232.599 174 234.499C174 236.399 173.2 237.299 171.6 237.299C170 237.299 169.2 236.399 169.2 234.499ZM171.6 236.799C172.7 236.799 173.2 236.099 173.2 234.599C173.2 233.099 172.7 232.399 171.6 232.399C170.5 232.399 170 233.099 170 234.599C169.9 235.999 170.5 236.799 171.6 236.799Z" fill="#858588"/>
<path d="M174.6 237.299V236.699C176.7 235.299 177.7 234.199 177.7 233.299C177.7 232.599 177.3 232.299 176.4 232.299C175.8 232.299 175.3 232.399 174.8 232.699V232.099C175.3 231.799 175.8 231.699 176.4 231.699C177.8 231.699 178.4 232.199 178.4 233.299C178.4 234.299 177.5 235.399 175.6 236.699H178.4V237.299H174.6Z" fill="#858588"/>
<path d="M179 237.299V236.699C181.1 235.299 182.1 234.199 182.1 233.299C182.1 232.599 181.7 232.299 180.8 232.299C180.2 232.299 179.7 232.399 179.2 232.699V232.099C179.7 231.799 180.2 231.699 180.8 231.699C182.2 231.699 182.8 232.199 182.8 233.299C182.8 234.299 181.9 235.399 180 236.699H182.8V237.299H179Z" fill="#858588"/>
<path d="M247.4 237.299V231.799H248.3L250.3 236.399L252.3 231.799H253.2V237.299H252.6V232.799L250.6 237.299H250L248 232.799V237.299H247.4Z" fill="#CCCCCC"/>
<path d="M254.3 235.299C254.3 233.899 254.9 233.299 256.2 233.299C257.5 233.299 258.1 233.999 258.1 235.299C258.1 236.699 257.5 237.299 256.2 237.299C254.9 237.299 254.3 236.599 254.3 235.299ZM256.2 236.699C257 236.699 257.4 236.199 257.4 235.199C257.4 234.199 257 233.799 256.2 233.799C255.4 233.799 255 234.299 255 235.199C255 236.199 255.4 236.699 256.2 236.699Z" fill="#CCCCCC"/>
<path d="M259.1 237.299V233.199H259.6L259.7 233.699C260.1 233.399 260.5 233.199 261 233.199V233.799C260.5 233.799 260.1 233.999 259.8 234.299V237.299H259.1Z" fill="#CCCCCC"/>
<path d="M261.5 236.099C261.5 235.299 262 234.799 263.1 234.799C263.5 234.799 263.8 234.799 264.2 234.899V234.499C264.2 233.999 263.8 233.799 263.1 233.799C262.7 233.799 262.3 233.899 261.8 233.999V233.399C262.2 233.299 262.7 233.199 263.1 233.199C264.3 233.199 264.9 233.599 264.9 234.499V237.299H264.5L264.3 236.899C263.9 237.199 263.5 237.299 263 237.299C262 237.299 261.5 236.899 261.5 236.099ZM263.2 235.399C262.6 235.399 262.3 235.599 262.3 236.099C262.3 236.499 262.5 236.799 263 236.799C263.5 236.799 263.9 236.699 264.3 236.399V235.599C263.9 235.399 263.5 235.399 263.2 235.399Z" fill="#CCCCCC"/>
<path d="M266.8 233.199V233.899H266.1V233.199H266.8ZM266.8 236.599V237.299H266.1V236.599H266.8Z" fill="#CCCCCC"/>
<path d="M269.7 237.099V236.399C270.3 236.599 270.9 236.699 271.6 236.699C272.6 236.699 273 236.399 273 235.699C273 235.099 272.6 234.799 271.9 234.799H271.2C270 234.799 269.5 234.299 269.5 233.299C269.5 232.199 270.2 231.699 271.7 231.699C272.3 231.699 272.9 231.799 273.5 231.899V232.599C272.9 232.399 272.3 232.299 271.7 232.299C270.7 232.299 270.2 232.599 270.2 233.299C270.2 233.899 270.5 234.199 271.2 234.199H271.9C273.1 234.199 273.7 234.699 273.7 235.699C273.7 236.799 273 237.299 271.6 237.299C270.9 237.299 270.3 237.299 269.7 237.099Z" fill="#858588"/>
<path d="M275 237.299H274.2L277 231.799H277.8L275 237.299Z" fill="#858588"/>
<path d="M280.3 234.499C280.3 232.599 281.1 231.699 282.7 231.699C284.3 231.699 285.1 232.599 285.1 234.499C285.1 236.399 284.3 237.299 282.7 237.299C281.1 237.299 280.3 236.399 280.3 234.499ZM282.7 236.799C283.8 236.799 284.3 236.099 284.3 234.599C284.3 233.099 283.8 232.399 282.7 232.399C281.6 232.399 281.1 233.099 281.1 234.599C281 235.999 281.6 236.799 282.7 236.799Z" fill="#858588"/>
<path d="M286.6 236.6V237.3H285.9V236.6H286.6Z" fill="#858588"/>
<path d="M287.4 234.499C287.4 232.599 288.2 231.699 289.8 231.699C291.4 231.699 292.2 232.599 292.2 234.499C292.2 236.399 291.4 237.299 289.8 237.299C288.2 237.299 287.4 236.399 287.4 234.499ZM289.8 236.799C290.9 236.799 291.4 236.099 291.4 234.599C291.4 233.099 290.9 232.399 289.8 232.399C288.7 232.399 288.2 233.099 288.2 234.599C288.1 235.999 288.7 236.799 289.8 236.799Z" fill="#858588"/>
<path d="M293 234.499C293 232.599 293.8 231.699 295.4 231.699C297 231.699 297.8 232.599 297.8 234.499C297.8 236.399 297 237.299 295.4 237.299C293.8 237.299 293 236.399 293 234.499ZM295.4 236.799C296.5 236.799 297 236.099 297 234.599C297 233.099 296.5 232.399 295.4 232.399C294.3 232.399 293.8 233.099 293.8 234.599C293.7 235.999 294.3 236.799 295.4 236.799Z" fill="#858588"/>
<path d="M99.1002 250.3C98.6002 250.5 98.1002 250.5 97.6002 250.5C95.7002 250.5 94.7002 249.5 94.7002 247.6C94.7002 245.8 95.7002 244.9 97.6002 244.9C98.2002 244.9 98.7002 245 99.1002 245.1V245.7C98.6002 245.5 98.1002 245.4 97.6002 245.4C96.1002 245.4 95.3002 246.1 95.3002 247.5C95.3002 249 96.1002 249.8 97.6002 249.8C98.1002 249.8 98.6002 249.7 99.1002 249.5V250.3Z" fill="#CCCCCC"/>
<path d="M100 249.201C100 248.401 100.5 247.901 101.6 247.901C102 247.901 102.3 247.901 102.7 248.001V247.601C102.7 247.101 102.3 246.901 101.6 246.901C101.2 246.901 100.8 247.001 100.3 247.101V246.501C100.7 246.401 101.2 246.301 101.6 246.301C102.8 246.301 103.4 246.701 103.4 247.601V250.401H103L102.8 250.001C102.4 250.301 102 250.401 101.5 250.401C100.5 250.501 100 250.101 100 249.201ZM101.7 248.601C101.1 248.601 100.8 248.801 100.8 249.301C100.8 249.701 101 250.001 101.5 250.001C102 250.001 102.4 249.901 102.8 249.601V248.801C102.4 248.601 102 248.601 101.7 248.601Z" fill="#CCCCCC"/>
<path d="M104.6 250.5V246.4H105.1L105.2 246.9C105.6 246.6 106 246.4 106.5 246.4V247C106 247 105.6 247.2 105.3 247.5V250.5H104.6Z" fill="#CCCCCC"/>
<path d="M110.6 250.5C110.6 251.5 110 252 108.7 252C108.2 252 107.8 251.9 107.4 251.8V251.2C107.8 251.3 108.2 251.4 108.7 251.4C109.5 251.4 109.8 251.1 109.8 250.5V250.3C109.5 250.4 109.2 250.5 108.8 250.5C107.5 250.5 106.9 249.8 106.9 248.4C106.9 247.1 107.6 246.4 108.9 246.4C109.5 246.4 110 246.5 110.5 246.6V250.5H110.6ZM109.9 247.1C109.7 247 109.4 247 109 247C108.1 247 107.7 247.5 107.7 248.4C107.7 249.4 108.1 249.8 108.9 249.8C109.3 249.8 109.6 249.7 109.9 249.6V247.1Z" fill="#CCCCCC"/>
<path d="M111.6 248.4C111.6 247 112.2 246.4 113.5 246.4C114.8 246.4 115.4 247.1 115.4 248.4C115.4 249.8 114.8 250.4 113.5 250.4C112.3 250.5 111.6 249.8 111.6 248.4ZM113.6 249.9C114.4 249.9 114.8 249.4 114.8 248.4C114.8 247.4 114.4 247 113.6 247C112.8 247 112.4 247.5 112.4 248.4C112.3 249.4 112.7 249.9 113.6 249.9Z" fill="#CCCCCC"/>
<path d="M119.1 246.9V250.4H118.4V246.1C118.4 245.1 119 244.5 120.1 244.5C120.5 244.5 120.8 244.6 121.2 244.7V245.3C120.8 245.1 120.4 245.1 120.1 245.1C119.4 245.1 119.1 245.4 119.1 246V246.3H121.5V250.4H120.8V246.9H119.1Z" fill="#CCCCCC"/>
<path d="M123.6 246.4V250.2C123.6 251 123.4 251.6 123 252.1L122.4 251.7C122.7 251.4 122.9 250.9 122.9 250.3V246.5H123.6V246.4ZM123.6 244.9V245.6H122.9V244.9H123.6Z" fill="#CCCCCC"/>
<path d="M124.6 248.4C124.6 247 125.2 246.4 126.5 246.4C127.8 246.4 128.4 247.1 128.4 248.4C128.4 249.8 127.8 250.4 126.5 250.4C125.3 250.5 124.6 249.8 124.6 248.4ZM126.5 249.9C127.3 249.9 127.7 249.4 127.7 248.4C127.7 247.4 127.3 247 126.5 247C125.7 247 125.3 247.5 125.3 248.4C125.3 249.4 125.7 249.9 126.5 249.9Z" fill="#CCCCCC"/>
<path d="M130.2 246.4V247.1H129.5V246.4H130.2ZM130.2 249.8V250.5H129.5V249.8H130.2Z" fill="#CCCCCC"/>
<path d="M133.1 250.3V249.6C133.7 249.8 134.3 249.9 135 249.9C136 249.9 136.4 249.6 136.4 248.9C136.4 248.3 136 248 135.3 248H134.6C133.4 248 132.9 247.5 132.9 246.5C132.9 245.4 133.6 244.9 135.1 244.9C135.7 244.9 136.3 245 136.9 245.1V245.8C136.3 245.6 135.7 245.5 135.1 245.5C134.1 245.5 133.6 245.8 133.6 246.5C133.6 247.1 133.9 247.4 134.6 247.4H135.3C136.5 247.4 137.1 247.9 137.1 248.9C137.1 250 136.4 250.5 135 250.5C134.3 250.5 133.7 250.4 133.1 250.3Z" fill="#858588"/>
<path d="M138.4 250.5H137.6L140.4 245H141.2L138.4 250.5Z" fill="#858588"/>
<path d="M143.6 247.7C143.6 245.8 144.4 244.9 146 244.9C147.6 244.9 148.4 245.8 148.4 247.7C148.4 249.6 147.6 250.5 146 250.5C144.4 250.5 143.6 249.6 143.6 247.7ZM146 249.9C147.1 249.9 147.6 249.2 147.6 247.7C147.6 246.2 147.1 245.5 146 245.5C144.9 245.5 144.4 246.2 144.4 247.7C144.4 249.2 144.9 249.9 146 249.9Z" fill="#858588"/>
<path d="M149.9 249.801V250.501H149.2V249.801H149.9Z" fill="#858588"/>
<path d="M150.7 247.7C150.7 245.8 151.5 244.9 153.1 244.9C154.7 244.9 155.5 245.8 155.5 247.7C155.5 249.6 154.7 250.5 153.1 250.5C151.5 250.5 150.7 249.6 150.7 247.7ZM153.1 249.9C154.2 249.9 154.7 249.2 154.7 247.7C154.7 246.2 154.2 245.5 153.1 245.5C152 245.5 151.5 246.2 151.5 247.7C151.5 249.2 152 249.9 153.1 249.9Z" fill="#858588"/>
<path d="M156.3 247.7C156.3 245.8 157.1 244.9 158.7 244.9C160.3 244.9 161.1 245.8 161.1 247.7C161.1 249.6 160.3 250.5 158.7 250.5C157.1 250.5 156.3 249.6 156.3 247.7ZM158.7 249.9C159.8 249.9 160.3 249.2 160.3 247.7C160.3 246.2 159.8 245.5 158.7 245.5C157.6 245.5 157.1 246.2 157.1 247.7C157.1 249.2 157.6 249.9 158.7 249.9Z" fill="#858588"/>
<path d="M235.9 250.3C235.4 250.5 234.9 250.5 234.4 250.5C232.5 250.5 231.5 249.5 231.5 247.6C231.5 245.8 232.5 244.9 234.4 244.9C235 244.9 235.5 245 235.9 245.1V245.7C235.4 245.5 234.9 245.4 234.4 245.4C232.9 245.4 232.1 246.1 232.1 247.5C232.1 249 232.9 249.8 234.4 249.8C234.9 249.8 235.4 249.7 235.9 249.5V250.3Z" fill="#CCCCCC"/>
<path d="M236.8 248.4C236.8 247 237.4 246.4 238.7 246.4C240 246.4 240.6 247.1 240.6 248.4C240.6 249.8 240 250.4 238.7 250.4C237.5 250.5 236.8 249.8 236.8 248.4ZM238.8 249.9C239.6 249.9 240 249.4 240 248.4C240 247.4 239.6 247 238.8 247C238 247 237.6 247.5 237.6 248.4C237.5 249.4 237.9 249.9 238.8 249.9Z" fill="#CCCCCC"/>
<path d="M241.7 250.5V246.4H242.2L242.3 246.9C242.7 246.6 243.1 246.4 243.6 246.4C244.2 246.4 244.6 246.6 244.8 247C245.2 246.6 245.7 246.4 246.1 246.4C247 246.4 247.5 246.9 247.5 247.9V250.4H246.8V247.8C246.8 247.2 246.5 246.9 246 246.9C245.6 246.9 245.3 247.1 244.9 247.4V250.3H244.2V247.8C244.2 247.2 243.9 246.9 243.4 246.9C243 246.9 242.6 247.1 242.3 247.4V250.3H241.7V250.5Z" fill="#CCCCCC"/>
<path d="M249.4 244.9V245.6H248.7V244.9H249.4ZM249.4 246.4V250.5H248.7V246.4H249.4Z" fill="#CCCCCC"/>
<path d="M250.6 250.3V249.7C251.1 249.9 251.6 249.9 252 249.9C252.6 249.9 253 249.7 253 249.3C253 248.9 252.8 248.8 252.3 248.8H251.7C250.8 248.8 250.4 248.4 250.4 247.6C250.4 246.8 251 246.4 252.1 246.4C252.6 246.4 253.1 246.5 253.5 246.6V247.2C253 247 252.5 247 252.1 247C251.4 247 251.1 247.2 251.1 247.6C251.1 248 251.3 248.1 251.7 248.1H252.3C253.2 248.1 253.7 248.5 253.7 249.3C253.7 250.1 253.1 250.5 252 250.5C251.6 250.5 251.1 250.4 250.6 250.3Z" fill="#CCCCCC"/>
<path d="M255.5 244.9V245.6H254.8V244.9H255.5ZM255.5 246.4V250.5H254.8V246.4H255.5Z" fill="#CCCCCC"/>
<path d="M256.6 248.4C256.6 247 257.2 246.4 258.5 246.4C259.8 246.4 260.4 247.1 260.4 248.4C260.4 249.8 259.8 250.4 258.5 250.4C257.2 250.5 256.6 249.8 256.6 248.4ZM258.5 249.9C259.3 249.9 259.7 249.4 259.7 248.4C259.7 247.4 259.3 247 258.5 247C257.7 247 257.3 247.5 257.3 248.4C257.3 249.4 257.7 249.9 258.5 249.9ZM258.6 244.9H259.5L258.6 245.8H258L258.6 244.9Z" fill="#CCCCCC"/>
<path d="M261.4 250.5V246.4H261.9L262 246.9C262.4 246.6 262.9 246.4 263.4 246.4C264.4 246.4 264.9 246.9 264.9 247.9V250.5H264.2V247.9C264.2 247.3 263.9 247 263.3 247C262.9 247 262.5 247.2 262.1 247.5V250.5H261.4Z" fill="#CCCCCC"/>
<path d="M266.8 246.4V247.1H266.1V246.4H266.8ZM266.8 249.8V250.5H266.1V249.8H266.8Z" fill="#CCCCCC"/>
<path d="M269.7 250.3V249.6C270.3 249.8 270.9 249.9 271.6 249.9C272.6 249.9 273 249.6 273 248.9C273 248.3 272.6 248 271.9 248H271.2C270 248 269.5 247.5 269.5 246.5C269.5 245.4 270.2 244.9 271.7 244.9C272.3 244.9 272.9 245 273.5 245.1V245.8C272.9 245.6 272.3 245.5 271.7 245.5C270.7 245.5 270.2 245.8 270.2 246.5C270.2 247.1 270.5 247.4 271.2 247.4H271.9C273.1 247.4 273.7 247.9 273.7 248.9C273.7 250 273 250.5 271.6 250.5C270.9 250.5 270.3 250.4 269.7 250.3Z" fill="#858588"/>
<path d="M275 250.5H274.2L277 245H277.8L275 250.5Z" fill="#858588"/>
<path d="M280.3 247.7C280.3 245.8 281.1 244.9 282.7 244.9C284.3 244.9 285.1 245.8 285.1 247.7C285.1 249.6 284.3 250.5 282.7 250.5C281.1 250.5 280.3 249.6 280.3 247.7ZM282.7 249.9C283.8 249.9 284.3 249.2 284.3 247.7C284.3 246.2 283.8 245.5 282.7 245.5C281.6 245.5 281.1 246.2 281.1 247.7C281 249.2 281.6 249.9 282.7 249.9Z" fill="#858588"/>
<path d="M286.6 249.801V250.501H285.9V249.801H286.6Z" fill="#858588"/>
<path d="M287.4 247.7C287.4 245.8 288.2 244.9 289.8 244.9C291.4 244.9 292.2 245.8 292.2 247.7C292.2 249.6 291.4 250.5 289.8 250.5C288.2 250.5 287.4 249.6 287.4 247.7ZM289.8 249.9C290.9 249.9 291.4 249.2 291.4 247.7C291.4 246.2 290.9 245.5 289.8 245.5C288.7 245.5 288.2 246.2 288.2 247.7C288.1 249.2 288.7 249.9 289.8 249.9Z" fill="#858588"/>
<path d="M293 247.7C293 245.8 293.8 244.9 295.4 244.9C297 244.9 297.8 245.8 297.8 247.7C297.8 249.6 297 250.5 295.4 250.5C293.8 250.5 293 249.6 293 247.7ZM295.4 249.9C296.5 249.9 297 249.2 297 247.7C297 246.2 296.5 245.5 295.4 245.5C294.3 245.5 293.8 246.2 293.8 247.7C293.7 249.2 294.3 249.9 295.4 249.9Z" fill="#858588"/>
<path d="M95.4 221.9V220.6C96.5 221 97.7 221.2 99 221.2C100.8 221.2 101.7 220.5 101.7 219.2C101.7 218.1 101 217.5 99.7 217.5H98.3C96.1 217.5 95 216.5 95 214.6C95 212.6 96.4 211.6 99.2 211.6C100.4 211.6 101.6 211.7 102.6 212V213.3C101.5 212.9 100.4 212.7 99.2 212.7C97.3 212.7 96.3 213.3 96.3 214.6C96.3 215.7 96.9 216.3 98.2 216.3H99.6C101.8 216.3 103 217.3 103 219.2C103 221.3 101.6 222.3 98.9 222.3C97.7 222.3 96.5 222.2 95.4 221.9Z" fill="#FF4200"/>
<path d="M105.4 222.299H103.9L109.2 211.799H110.7L105.4 222.299Z" fill="#FF4200"/>
<path d="M116.5 222.3V213H115.4V212.3L117.9 211.6V222.2H116.5V222.3Z" fill="#FF4200"/>
<path d="M120.1 212.099C121.1 211.799 122.1 211.699 123 211.699C125.5 211.699 126.8 212.699 126.8 214.599C126.8 215.799 126.3 216.599 125.4 216.999C126.3 217.399 126.8 218.199 126.8 219.399C126.8 221.399 125.5 222.399 123 222.399C122 222.399 121 222.299 120.1 221.999V220.799C121.1 221.099 122.1 221.299 123 221.299C124.6 221.299 125.4 220.699 125.4 219.399C125.4 218.199 124.8 217.599 123.5 217.599H121.1V216.499H123.5C124.8 216.499 125.4 215.899 125.4 214.699C125.4 213.499 124.6 212.899 123 212.899C122 212.899 121 213.099 120.1 213.399V212.099Z" fill="#FF4200"/>
<path d="M128.7 217C128.7 213.4 130.2 211.6 133.3 211.6C136.3 211.6 137.8 213.4 137.8 217C137.8 220.5 136.3 222.3 133.3 222.3C130.2 222.3 128.7 220.6 128.7 217ZM133.2 221.2C135.2 221.2 136.2 219.8 136.2 216.9C136.2 214.1 135.2 212.7 133.2 212.7C131.1 212.7 130.1 214.1 130.1 216.9C130.1 219.8 131.2 221.2 133.2 221.2Z" fill="#FF4200"/>
<path d="M140.6 220.9V222.3H139.2V220.9H140.6Z" fill="#FF4200"/>
<path d="M142.2 217C142.2 213.4 143.7 211.6 146.8 211.6C149.8 211.6 151.3 213.4 151.3 217C151.3 220.5 149.8 222.3 146.8 222.3C143.7 222.3 142.2 220.6 142.2 217ZM146.7 221.2C148.7 221.2 149.7 219.8 149.7 216.9C149.7 214.1 148.7 212.7 146.7 212.7C144.6 212.7 143.6 214.1 143.6 216.9C143.6 219.8 144.6 221.2 146.7 221.2Z" fill="#FF4200"/>
<path d="M152.8 217C152.8 213.4 154.3 211.6 157.4 211.6C160.4 211.6 161.9 213.4 161.9 217C161.9 220.5 160.4 222.3 157.4 222.3C154.3 222.3 152.8 220.6 152.8 217ZM157.3 221.2C159.3 221.2 160.3 219.8 160.3 216.9C160.3 214.1 159.3 212.7 157.3 212.7C155.2 212.7 154.2 214.1 154.2 216.9C154.2 219.8 155.3 221.2 157.3 221.2Z" fill="#FF4200"/>
<path d="M298.2 193.801H283.9V208.101H298.2V193.801Z" fill="white" stroke="#EEEFEF" stroke-width="0.8849" stroke-miterlimit="10"/>
<path d="M298.2 193.4H283.9V207.7H298.2V193.4Z" fill="white" stroke="#EEEFEF" stroke-width="0.8849" stroke-miterlimit="10"/>
<path d="M290 104.5L288.1 102.6L287.5 103.2L290.1 105.8L294.7 101.2L294.1 100.6L290 104.5Z" fill="#FF4200" stroke="#FF4200" stroke-width="0.8849" stroke-miterlimit="10"/>
<path d="M305.7 170.6H87.1001V172.1H305.7V170.6Z" fill="#F8F6F6"/>
<path d="M89.3998 75.6992H86.2998V261.999H89.3998V75.6992Z" fill="#FF4200"/>
</svg>
