<svg width="392" height="262" viewBox="0 0 392 262" fill="none" xmlns="http://www.w3.org/2000/svg">
<path d="M392 0H0V262H392V0Z" fill="#E3E3E3"/>
<path d="M314.1 4.5H77.9V262H314.1V4.5Z" fill="white"/>
<path d="M314.1 0H77.9V13.2H314.1V0Z" fill="#002878"/>
<path d="M314.1 88.5996H77.9V89.2996H314.1V88.5996Z" fill="#EBEBEB"/>
<path d="M314.1 126.6H77.9V127.3H314.1V126.6Z" fill="#EBEBEB"/>
<path d="M314.1 164.6H77.9V165.3H314.1V164.6Z" fill="#EBEBEB"/>
<path d="M314.1 202.6H77.9V203.3H314.1V202.6Z" fill="#EBEBEB"/>
<path d="M314.1 240.699H77.9V241.399H314.1V240.699Z" fill="#EBEBEB"/>
<path d="M302.2 43.4004H89.6C87.6 43.4004 86.1 41.8004 86.1 39.9004V25.4004C86.1 23.4004 87.7 21.9004 89.6 21.9004H302.2C304.2 21.9004 305.7 23.5004 305.7 25.4004V39.9004C305.7 41.9004 304.1 43.4004 302.2 43.4004Z" stroke="#EBEBEB" stroke-width="0.8849" stroke-miterlimit="10"/>
<path d="M95.2 29.3008V30.3008H93.4V35.5008H92.3V30.3008H90.5V29.3008H95.2Z" fill="#606060"/>
<path d="M95.8 35.5008V29.3008H98.6C99.9 29.3008 100.5 29.9008 100.5 31.0008C100.5 31.7008 100 32.4008 99 32.9008L101 35.6008H99.6L97.7 32.9008V32.4008C98.8 32.2008 99.3 31.8008 99.3 31.1008C99.3 30.6008 99 30.4008 98.5 30.4008H97V35.6008H95.8V35.5008Z" fill="#606060"/>
<path d="M102.7 29.3008V35.5008H101.6V29.3008H102.7Z" fill="#606060"/>
<path d="M105.2 29.3008V34.5008H107.7V35.5008H104V29.3008H105.2Z" fill="#606060"/>
<path d="M113 35.3008C112.5 35.5008 111.9 35.6008 111.2 35.6008C109 35.6008 107.9 34.5008 107.9 32.4008C107.9 30.4008 109 29.3008 111.2 29.3008C111.9 29.3008 112.5 29.4008 113 29.6008V30.6008C112.5 30.4008 111.9 30.3008 111.3 30.3008C109.8 30.3008 109.1 31.0008 109.1 32.4008C109.1 33.9008 109.8 34.6008 111.3 34.6008C111.9 34.6008 112.5 34.5008 113 34.3008V35.3008Z" fill="#606060"/>
<path d="M118.3 29.3008V30.3008H115.2V31.9008H118.2V32.9008H115.2V34.5008H118.4V35.5008H114.1V29.3008H118.3Z" fill="#606060"/>
<path d="M92.1 69.2H91.1L94.3 61.5H95.4L98.7 69.2H97.6L96.6 66.8H94.1L94.4 66H96.3L94.9 62.5L92.1 69.2Z" fill="#838383"/>
<path d="M105.5 68.9004C104.8 69.1004 104.1 69.2004 103.4 69.2004C100.7 69.2004 99.4 67.9004 99.4 65.2004C99.4 62.7004 100.7 61.4004 103.4 61.4004C104.2 61.4004 104.9 61.5004 105.5 61.7004V62.6004C104.8 62.4004 104.2 62.2004 103.5 62.2004C101.4 62.2004 100.4 63.2004 100.4 65.2004C100.4 67.3004 101.4 68.4004 103.5 68.4004C104.2 68.4004 104.9 68.3004 105.5 68.0004V68.9004Z" fill="#838383"/>
<path d="M107.4 69.2H106.4L109.6 61.5H110.7L114 69.2H112.9L111.9 66.8H109.4L109.7 66H111.6L110.2 62.5L107.4 69.2Z" fill="#838383"/>
<path d="M115 69.2V61.5H117.8C120.3 61.5 121.6 62.7 121.6 65.1C121.6 67.8 120.3 69.1 117.8 69.1H115V69.2ZM117.8 68.4C119.7 68.4 120.6 67.3 120.6 65.2C120.6 63.3 119.7 62.4 117.8 62.4H116V68.4H117.8Z" fill="#838383"/>
<path d="M128.1 61.5V62.3H124.1V64.9H127.9V65.7H124V68.4H128.1V69.2H123V61.5H128.1Z" fill="#838383"/>
<path d="M129.6 69.2V61.5H130.9L133.7 67.9L136.5 61.5H137.7V69.2H136.8V62.9L134.1 69.2H133.3L130.5 62.9V69.2H129.6Z" fill="#838383"/>
<path d="M140.6 61.5V69.2H139.6V61.5H140.6Z" fill="#838383"/>
<path d="M142.9 69.2H141.9L145.1 61.5H146.2L149.5 69.2H148.4L147.4 66.8H144.9L145.2 66H147.1L145.7 62.5L142.9 69.2Z" fill="#838383"/>
<path d="M150.4 68.9V68C151.2 68.3 152.1 68.4 153 68.4C154.3 68.4 155 67.9 155 67C155 66.2 154.5 65.8 153.5 65.8H152.5C150.9 65.8 150.1 65.1 150.1 63.7C150.1 62.2 151.1 61.5 153.2 61.5C154.1 61.5 154.9 61.6 155.7 61.8V62.7C154.9 62.4 154.1 62.3 153.2 62.3C151.8 62.3 151.1 62.8 151.1 63.7C151.1 64.5 151.6 64.9 152.5 64.9H153.5C155.1 64.9 155.9 65.6 155.9 67C155.9 68.5 154.9 69.2 152.9 69.2C152.1 69.2 151.2 69.1 150.4 68.9Z" fill="#838383"/>
<path d="M165.2 61.5V62.3H162.8V69.2H161.8V62.3H159.4V61.5H165.2Z" fill="#838383"/>
<path d="M166.4 69.2V61.5H169.7C171.2 61.5 171.9 62.1 171.9 63.3C171.9 64.3 171.2 65 169.8 65.5L172.4 69.1H171.1L168.7 65.7V65.1C170.2 64.9 170.9 64.3 170.9 63.4C170.9 62.7 170.5 62.3 169.7 62.3H167.5V69.1H166.4V69.2Z" fill="#838383"/>
<path d="M174.6 61.5V69.2H173.6V61.5H174.6Z" fill="#838383"/>
<path d="M177.5 61.5V68.4H181.5V69.2H176.5V61.5H177.5Z" fill="#838383"/>
<path d="M187.7 68.9004C187 69.1004 186.3 69.2004 185.6 69.2004C182.9 69.2004 181.6 67.9004 181.6 65.2004C181.6 62.7004 182.9 61.4004 185.6 61.4004C186.4 61.4004 187.1 61.5004 187.7 61.7004V62.6004C187 62.4004 186.4 62.2004 185.7 62.2004C183.6 62.2004 182.6 63.2004 182.6 65.2004C182.6 67.3004 183.6 68.4004 185.7 68.4004C186.4 68.4004 187.1 68.3004 187.7 68.0004V68.9004Z" fill="#838383"/>
<path d="M194.3 61.5V62.3H190.3V64.9H194.1V65.7H190.3V68.4H194.4V69.2H189.3V61.5H194.3Z" fill="#838383"/>
<path d="M95.3 79.8996C94.9 79.9996 94.4 80.0996 93.9 80.0996C92.2 80.0996 91.3 79.1996 91.3 77.4996C91.3 75.8996 92.2 75.0996 93.9 75.0996C94.4 75.0996 94.9 75.1996 95.3 75.2996V75.8996C94.9 75.6996 94.4 75.6996 94 75.6996C92.6 75.6996 92 76.2996 92 77.5996C92 78.9996 92.7 79.6996 94 79.6996C94.5 79.6996 94.9 79.5996 95.3 79.4996V79.8996Z" fill="#838383"/>
<path d="M96.4 78.0996V75.0996H97V78.0996C97 79.0996 97.5 79.4996 98.4 79.4996C99.3 79.4996 99.8 78.9996 99.8 78.0996V75.0996H100.4V78.0996C100.4 79.3996 99.7 80.0996 98.3 80.0996C97.1 80.0996 96.4 79.3996 96.4 78.0996Z" fill="#838383"/>
<path d="M101.5 77.5996C101.5 75.8996 102.3 75.0996 104 75.0996C105.6 75.0996 106.5 75.8996 106.5 77.5996C106.5 79.2996 105.7 80.0996 104 80.0996C102.3 80.0996 101.5 79.1996 101.5 77.5996ZM104 79.5996C105.2 79.5996 105.8 78.8996 105.8 77.5996C105.8 76.2996 105.2 75.5996 104 75.5996C102.8 75.5996 102.2 76.2996 102.2 77.5996C102.1 78.8996 102.8 79.5996 104 79.5996Z" fill="#838383"/>
<path d="M110.8 75.0996V75.5996H109.2V79.9996H108.6V75.5996H107V75.0996H110.8Z" fill="#838383"/>
<path d="M111.2 80H110.5L112.6 75H113.3L115.4 80H114.7L114.1 78.4H112.5L112.7 77.9H113.9L113 75.7L111.2 80Z" fill="#838383"/>
<path d="M97.6 107C96.9 107.2 96.2 107.3 95.5 107.3C92.8 107.3 91.5 106 91.5 103.3C91.5 100.8 92.8 99.5 95.5 99.5C96.3 99.5 97 99.6 97.6 99.8V100.7C96.9 100.5 96.3 100.3 95.6 100.3C93.5 100.3 92.5 101.3 92.5 103.3C92.5 105.4 93.5 106.5 95.6 106.5C96.3 106.5 97 106.4 97.6 106.1V107Z" fill="#838383"/>
<path d="M99 103.4C99 100.8 100.3 99.5 102.8 99.5C105.3 99.5 106.6 100.8 106.6 103.4C106.6 106 105.3 107.3 102.8 107.3C100.3 107.3 99 106 99 103.4ZM102.8 106.5C104.6 106.5 105.5 105.5 105.5 103.4C105.5 101.4 104.6 100.3 102.8 100.3C100.9 100.3 100 101.3 100 103.4C100 105.5 101 106.5 102.8 106.5Z" fill="#838383"/>
<path d="M109.2 99.5996V106.5H113.2V107.3H108.2V99.5996H109.2Z" fill="#838383"/>
<path d="M119.4 99.5996V100.4H115.4V103H119.2V103.8H115.4V106.5H119.5V107.3H114.4V99.5996H119.4Z" fill="#838383"/>
<path d="M126.7 107C126.1 107.2 125.4 107.4 124.7 107.4C121.9 107.4 120.5 106.1 120.5 103.4C120.5 100.9 121.8 99.5996 124.5 99.5996C125.3 99.5996 126 99.6996 126.6 99.8996V100.8C125.9 100.6 125.3 100.4 124.6 100.4C122.5 100.4 121.5 101.4 121.5 103.4C121.5 105.5 122.5 106.6 124.6 106.6C124.9 106.6 125.3 106.6 125.7 106.5V103.9H126.7V107Z" fill="#838383"/>
<path d="M129.5 99.5996V107.3H128.5V99.5996H129.5Z" fill="#838383"/>
<path d="M131.2 103.4C131.2 100.8 132.5 99.5 135 99.5C137.5 99.5 138.8 100.8 138.8 103.4C138.8 106 137.5 107.3 135 107.3C132.5 107.3 131.2 106 131.2 103.4ZM135.1 106.5C136.9 106.5 137.8 105.5 137.8 103.4C137.8 101.4 136.9 100.3 135.1 100.3C133.2 100.3 132.3 101.3 132.3 103.4C132.3 105.5 133.2 106.5 135.1 106.5Z" fill="#838383"/>
<path d="M148.2 99.5996V100.4H145.8V107.3H144.8V100.4H142.4V99.5996H148.2Z" fill="#838383"/>
<path d="M149.4 107.3V99.5996H152.7C154.2 99.5996 154.9 100.2 154.9 101.4C154.9 102.4 154.2 103.1 152.8 103.6L155.4 107.2H154L151.6 103.8V103.2C153.1 103 153.8 102.4 153.8 101.5C153.8 100.8 153.4 100.4 152.6 100.4H150.4V107.2H149.4V107.3Z" fill="#838383"/>
<path d="M157.5 99.5996V107.3H156.5V99.5996H157.5Z" fill="#838383"/>
<path d="M160.5 99.5996V106.5H164.5V107.3H159.5V99.5996H160.5Z" fill="#838383"/>
<path d="M170.7 107C170 107.2 169.3 107.3 168.6 107.3C165.9 107.3 164.6 106 164.6 103.3C164.6 100.8 165.9 99.5 168.6 99.5C169.4 99.5 170.1 99.6 170.7 99.8V100.7C170 100.5 169.4 100.3 168.7 100.3C166.6 100.3 165.6 101.3 165.6 103.3C165.6 105.4 166.6 106.5 168.7 106.5C169.4 106.5 170.1 106.4 170.7 106.1V107Z" fill="#838383"/>
<path d="M177.3 99.5996V100.4H173.3V103H177.1V103.8H173.3V106.5H177.4V107.3H172.3V99.5996H177.3Z" fill="#838383"/>
<path d="M181.5 107V106.1C182.3 106.4 183.2 106.5 184.1 106.5C185.4 106.5 186.1 106 186.1 105.1C186.1 104.3 185.6 103.9 184.6 103.9H183.6C182 103.9 181.2 103.2 181.2 101.8C181.2 100.3 182.2 99.5996 184.3 99.5996C185.2 99.5996 186 99.6996 186.8 99.8996V100.8C186 100.5 185.2 100.4 184.3 100.4C182.9 100.4 182.2 100.9 182.2 101.8C182.2 102.6 182.7 103 183.6 103H184.6C186.2 103 187 103.7 187 105.1C187 106.6 186 107.3 184 107.3C183.1 107.3 182.3 107.2 181.5 107Z" fill="#838383"/>
<path d="M188.7 107.3H187.7L190.9 99.5996H192L195.3 107.3H194.2L193.2 104.9H190.7L191 104.1H192.9L191.5 100.6L188.7 107.3Z" fill="#838383"/>
<path d="M196.4 107.3V99.5996H197.4L202.1 105.8V99.5996H203V107.3H202L197.3 101.1V107.3H196.4Z" fill="#838383"/>
<path d="M208.6 99.5996V107.3H207.6V99.5996H208.6Z" fill="#838383"/>
<path d="M210.5 107V106.1C211.3 106.4 212.2 106.5 213.1 106.5C214.4 106.5 215.1 106 215.1 105.1C215.1 104.3 214.6 103.9 213.6 103.9H212.6C211 103.9 210.2 103.2 210.2 101.8C210.2 100.3 211.2 99.5996 213.3 99.5996C214.2 99.5996 215 99.6996 215.8 99.8996V100.8C215 100.5 214.2 100.4 213.3 100.4C211.9 100.4 211.2 100.9 211.2 101.8C211.2 102.6 211.7 103 212.6 103H213.6C215.2 103 216 103.7 216 105.1C216 106.6 215 107.3 213 107.3C212.2 107.3 211.3 107.2 210.5 107Z" fill="#838383"/>
<path d="M218.7 99.5996V107.3H217.7V99.5996H218.7Z" fill="#838383"/>
<path d="M220.6 107.3V99.5996H223.4C225.9 99.5996 227.2 100.8 227.2 103.2C227.2 105.9 225.9 107.2 223.4 107.2H220.6V107.3ZM223.4 106.4C225.3 106.4 226.2 105.3 226.2 103.2C226.2 101.3 225.3 100.4 223.4 100.4H221.6V106.4H223.4Z" fill="#838383"/>
<path d="M91.6 118.1V113.1H93.6C94.6 113.1 95.1 113.5 95.1 114.4C95.1 115.4 94.4 116 93 116.2L92.9 115.7C93.9 115.5 94.4 115.2 94.4 114.5C94.4 113.9 94.1 113.7 93.5 113.7H92.2V118.1H91.6Z" fill="#838383"/>
<path d="M95.6 118.1H95L97.1 113.1H97.8L99.9 118.1H99.2L98.6 116.5H97L97.2 116H98.4L97.5 113.8L95.6 118.1Z" fill="#838383"/>
<path d="M104.3 117.9C103.9 118.1 103.5 118.1 103 118.1C101.2 118.1 100.3 117.2 100.3 115.5C100.3 113.9 101.2 113.1 102.9 113.1C103.4 113.1 103.9 113.2 104.3 113.3V113.9C103.9 113.7 103.4 113.7 103 113.7C101.6 113.7 101 114.3 101 115.6C101 117 101.7 117.7 103 117.7C103.2 117.7 103.4 117.7 103.7 117.6V115.9H104.3V117.9Z" fill="#838383"/>
<path d="M105.2 115.699C105.2 113.999 106 113.199 107.7 113.199C109.3 113.199 110.2 113.999 110.2 115.699C110.2 117.399 109.4 118.199 107.7 118.199C106 118.199 105.2 117.299 105.2 115.699ZM107.7 117.599C108.9 117.599 109.5 116.899 109.5 115.599C109.5 114.299 108.9 113.599 107.7 113.599C106.5 113.599 105.9 114.299 105.9 115.599C105.9 116.999 106.5 117.599 107.7 117.599Z" fill="#838383"/>
<path d="M112.9 118.1V113.1H114.7C116.3 113.1 117.2 113.9 117.2 115.4C117.2 117.1 116.4 118 114.7 118H112.9V118.1ZM114.7 117.6C115.9 117.6 116.5 116.9 116.5 115.5C116.5 114.3 115.9 113.7 114.7 113.7H113.5V117.6H114.7Z" fill="#838383"/>
<path d="M121.3 113.2V113.7H118.7V115.4H121.2V115.9H118.7V117.6H121.4V118.1H118.1V113.1H121.3V113.2Z" fill="#838383"/>
<path d="M124 117.999V117.399C124.5 117.599 125.1 117.699 125.7 117.699C126.6 117.699 127 117.399 127 116.799C127 116.299 126.7 115.999 126.1 115.999H125.5C124.5 115.999 123.9 115.499 123.9 114.599C123.9 113.699 124.6 113.199 125.9 113.199C126.5 113.199 127 113.299 127.5 113.399V113.999C127 113.799 126.5 113.699 125.9 113.699C125 113.699 124.5 113.999 124.5 114.599C124.5 115.099 124.8 115.399 125.4 115.399H126C127.1 115.399 127.6 115.899 127.6 116.799C127.6 117.799 127 118.299 125.7 118.299C125.1 118.199 124.5 118.099 124 117.999Z" fill="#838383"/>
<path d="M131.8 113.2V113.7H129.2V115.4H131.7V115.9H129.2V117.6H131.9V118.1H128.6V113.1H131.8V113.2Z" fill="#838383"/>
<path d="M132.8 118.1V113.1H134.9C135.8 113.1 136.3 113.5 136.3 114.3C136.3 114.9 135.8 115.4 134.9 115.7L136.6 118H135.8L134.2 115.8V115.4C135.1 115.3 135.6 114.9 135.6 114.3C135.6 113.8 135.3 113.6 134.8 113.6H133.4V118H132.8V118.1Z" fill="#838383"/>
<path d="M141.8 113.199L139.7 118.199H139L136.9 113.199H137.6L139.4 117.499L141.2 113.199H141.8Z" fill="#838383"/>
<path d="M143.2 113.199V118.199H142.6V113.199H143.2Z" fill="#838383"/>
<path d="M148.2 117.999C147.8 118.099 147.3 118.199 146.8 118.199C145.1 118.199 144.2 117.299 144.2 115.599C144.2 113.999 145.1 113.199 146.8 113.199C147.3 113.199 147.8 113.299 148.2 113.399V113.999C147.8 113.799 147.3 113.799 146.9 113.799C145.5 113.799 144.9 114.399 144.9 115.699C144.9 117.099 145.6 117.799 146.9 117.799C147.4 117.799 147.8 117.699 148.2 117.599V117.999Z" fill="#838383"/>
<path d="M150 113.199V118.199H149.4V113.199H150Z" fill="#838383"/>
<path d="M151.1 115.699C151.1 113.999 151.9 113.199 153.6 113.199C155.2 113.199 156.1 113.999 156.1 115.699C156.1 117.399 155.3 118.199 153.6 118.199C152 118.199 151.1 117.299 151.1 115.699ZM153.6 117.599C154.8 117.599 155.4 116.899 155.4 115.599C155.4 114.299 154.8 113.599 153.6 113.599C152.4 113.599 151.8 114.299 151.8 115.599C151.8 116.999 152.4 117.599 153.6 117.599Z" fill="#838383"/>
<path d="M162.1 113.2V113.7H159.5V115.4H162V115.9H159.5V117.6H162.2V118.1H158.9V113.1H162.1V113.2Z" fill="#838383"/>
<path d="M163.1 118.1V113.1H164.9C166.5 113.1 167.4 113.9 167.4 115.4C167.4 117.1 166.6 118 164.9 118H163.1V118.1ZM164.9 117.6C166.1 117.6 166.7 116.9 166.7 115.5C166.7 114.3 166.1 113.7 164.9 113.7H163.7V117.6H164.9Z" fill="#838383"/>
<path d="M168.3 116.199V113.199H168.9V116.199C168.9 117.199 169.4 117.599 170.3 117.599C171.2 117.599 171.7 117.099 171.7 116.199V113.199H172.3V116.199C172.3 117.499 171.6 118.199 170.2 118.199C169 118.199 168.3 117.499 168.3 116.199Z" fill="#838383"/>
<path d="M177.3 117.999C176.9 118.099 176.4 118.199 175.9 118.199C174.2 118.199 173.3 117.299 173.3 115.599C173.3 113.999 174.2 113.199 175.9 113.199C176.4 113.199 176.9 113.299 177.3 113.399V113.999C176.9 113.799 176.4 113.799 176 113.799C174.6 113.799 174 114.399 174 115.699C174 117.099 174.7 117.799 176 117.799C176.5 117.799 176.9 117.699 177.3 117.599V117.999Z" fill="#838383"/>
<path d="M178.5 118.1H177.8L179.9 113.1H180.6L182.7 118.1H182L181.4 116.5H179.8L180 116H181.2L180.3 113.8L178.5 118.1Z" fill="#838383"/>
<path d="M186.3 113.199V113.699H184.7V118.099H184.1V113.699H182.5V113.199H186.3Z" fill="#838383"/>
<path d="M97 137.699V138.499H94.6V145.399H93.6V138.499H91.2V137.699H97Z" fill="#838383"/>
<path d="M98.2 145.3V137.6H101.5C103 137.6 103.7 138.2 103.7 139.4C103.7 140.4 103 141.1 101.6 141.6L104.2 145.2H102.9L100.5 141.8V141.2C102 141 102.7 140.4 102.7 139.5C102.7 138.8 102.3 138.4 101.5 138.4H99.3V145.2H98.2V145.3Z" fill="#838383"/>
<path d="M106.3 137.699V145.399H105.3V137.699H106.3Z" fill="#838383"/>
<path d="M109.3 137.699V144.599H113.3V145.399H108.3V137.699H109.3Z" fill="#838383"/>
<path d="M119.5 145.1C118.8 145.3 118.1 145.4 117.4 145.4C114.7 145.4 113.4 144.1 113.4 141.4C113.4 138.9 114.7 137.6 117.4 137.6C118.2 137.6 118.9 137.7 119.5 137.9V138.8C118.8 138.6 118.2 138.4 117.5 138.4C115.4 138.4 114.4 139.4 114.4 141.4C114.4 143.5 115.4 144.6 117.5 144.6C118.2 144.6 118.9 144.5 119.5 144.2V145.1Z" fill="#838383"/>
<path d="M126.1 137.699V138.499H122.1V141.099H125.9V141.899H122.1V144.599H126.2V145.399H121.1V137.699H126.1Z" fill="#838383"/>
<path d="M130.2 145.099V144.199C131 144.499 131.9 144.599 132.8 144.599C134.1 144.599 134.8 144.099 134.8 143.199C134.8 142.399 134.3 141.999 133.3 141.999H132.3C130.7 141.999 129.9 141.299 129.9 139.899C129.9 138.399 130.9 137.699 133 137.699C133.9 137.699 134.7 137.799 135.5 137.999V138.899C134.7 138.599 133.9 138.499 133 138.499C131.6 138.499 130.9 138.999 130.9 139.899C130.9 140.699 131.4 141.099 132.3 141.099H133.3C134.9 141.099 135.7 141.799 135.7 143.199C135.7 144.699 134.7 145.399 132.7 145.399C131.9 145.399 131.1 145.299 130.2 145.099Z" fill="#838383"/>
<path d="M137.5 145.3H136.5L139.7 137.6H140.8L144.1 145.3H143L142 142.9H139.5L139.8 142.1H141.7L140.3 138.6L137.5 145.3Z" fill="#838383"/>
<path d="M146.1 137.699V144.599H150.1V145.399H145.1V137.699H146.1Z" fill="#838383"/>
<path d="M151.6 145.3H150.6L153.8 137.6H154.9L158.2 145.3H157.1L156.1 142.9H153.6L153.9 142.1H155.8L154.4 138.6L151.6 145.3Z" fill="#838383"/>
<path d="M159.2 145.3V137.6H160.5L163.3 144L166.1 137.6H167.3V145.3H166.4V139L163.7 145.3H162.9L160.1 139V145.3H159.2Z" fill="#838383"/>
<path d="M169.3 145.3H168.3L171.5 137.6H172.6L175.9 145.3H174.8L173.8 142.9H171.3L171.6 142.1H173.5L172.1 138.6L169.3 145.3Z" fill="#838383"/>
<path d="M176.9 145.3V137.6H177.9L182.6 143.8V137.6H183.5V145.3H182.5L177.8 139.1V145.3H176.9Z" fill="#838383"/>
<path d="M191.1 145.1C190.4 145.3 189.7 145.4 189 145.4C186.3 145.4 185 144.1 185 141.4C185 138.9 186.3 137.6 189 137.6C189.8 137.6 190.5 137.7 191.1 137.9V138.8C190.4 138.6 189.8 138.4 189.1 138.4C187 138.4 186 139.4 186 141.4C186 143.5 187 144.6 189.1 144.6C189.8 144.6 190.5 144.5 191.1 144.2V145.1Z" fill="#838383"/>
<path d="M193 145.3H192L195.2 137.6H196.3L199.6 145.3H198.5L197.5 142.9H195L195.3 142.1H197.2L195.8 138.6L193 145.3Z" fill="#838383"/>
<path d="M91.6 156.199V151.199H93.6C94.6 151.199 95.1 151.599 95.1 152.499C95.1 153.499 94.4 154.099 93 154.299L92.9 153.799C93.9 153.599 94.4 153.299 94.4 152.599C94.4 151.999 94.1 151.799 93.5 151.799H92.2V156.199H91.6Z" fill="#838383"/>
<path d="M99.2 151.299V151.799H96.6V153.499H99.1V153.999H96.6V155.699H99.3V156.199H96V151.199H99.2V151.299Z" fill="#838383"/>
<path d="M100.3 156.199V151.199H100.9L103.9 155.199V151.199H104.5V156.199H103.9L100.9 152.199V156.199H100.3Z" fill="#838383"/>
<path d="M105.6 156.099V155.499C106.1 155.699 106.7 155.799 107.3 155.799C108.2 155.799 108.6 155.499 108.6 154.899C108.6 154.399 108.3 154.099 107.7 154.099H107C106 154.099 105.4 153.599 105.4 152.699C105.4 151.799 106.1 151.299 107.4 151.299C108 151.299 108.5 151.399 109 151.499V152.099C108.5 151.899 108 151.799 107.4 151.799C106.5 151.799 106 152.099 106 152.699C106 153.199 106.3 153.499 106.9 153.499H107.5C108.6 153.499 109.1 153.999 109.1 154.899C109.1 155.899 108.5 156.399 107.2 156.399C106.7 156.299 106.2 156.199 105.6 156.099Z" fill="#838383"/>
<path d="M110.9 151.299V156.299H110.3V151.299H110.9Z" fill="#838383"/>
<path d="M112 153.799C112 152.099 112.8 151.299 114.5 151.299C116.1 151.299 117 152.099 117 153.799C117 155.499 116.2 156.299 114.5 156.299C112.9 156.299 112 155.399 112 153.799ZM114.5 155.699C115.7 155.699 116.3 154.999 116.3 153.699C116.3 152.399 115.7 151.699 114.5 151.699C113.3 151.699 112.7 152.399 112.7 153.699C112.7 155.099 113.3 155.699 114.5 155.699Z" fill="#838383"/>
<path d="M118 156.199V151.199H118.6L121.6 155.199V151.199H122.2V156.199H121.6L118.6 152.199V156.199H118Z" fill="#838383"/>
<path d="M126.7 151.299V151.799H124.1V153.499H126.6V153.999H124.1V155.699H126.8V156.199H123.5V151.199H126.7V151.299Z" fill="#838383"/>
<path d="M127.7 156.099V155.499C128.2 155.699 128.8 155.799 129.4 155.799C130.3 155.799 130.7 155.499 130.7 154.899C130.7 154.399 130.4 154.099 129.8 154.099H129C128 154.099 127.4 153.599 127.4 152.699C127.4 151.799 128.1 151.299 129.4 151.299C130 151.299 130.5 151.399 131 151.499V152.099C130.5 151.899 130 151.799 129.4 151.799C128.5 151.799 128 152.099 128 152.699C128 153.199 128.3 153.499 128.9 153.499H129.5C130.6 153.499 131.1 153.999 131.1 154.899C131.1 155.899 130.5 156.399 129.2 156.399C128.7 156.299 128.2 156.199 127.7 156.099Z" fill="#838383"/>
<path d="M97 175.799V176.599H94.6V183.499H93.6V176.599H91.2V175.799H97Z" fill="#838383"/>
<path d="M98.2 183.399V175.699H101.5C103 175.699 103.7 176.299 103.7 177.499C103.7 178.499 103 179.199 101.6 179.699L104.2 183.299H102.9L100.5 179.899V179.299C102 179.099 102.7 178.499 102.7 177.599C102.7 176.899 102.3 176.499 101.5 176.499H99.3V183.299H98.2V183.399Z" fill="#838383"/>
<path d="M106.3 175.799V183.499H105.3V175.799H106.3Z" fill="#838383"/>
<path d="M109.3 175.799V182.699H113.3V183.499H108.3V175.799H109.3Z" fill="#838383"/>
<path d="M119.5 183.199C118.8 183.399 118.1 183.499 117.4 183.499C114.7 183.499 113.4 182.199 113.4 179.499C113.4 176.999 114.7 175.699 117.4 175.699C118.2 175.699 118.9 175.799 119.5 175.999V176.899C118.8 176.699 118.2 176.499 117.5 176.499C115.4 176.499 114.4 177.499 114.4 179.499C114.4 181.599 115.4 182.699 117.5 182.699C118.2 182.699 118.9 182.599 119.5 182.299V183.199Z" fill="#838383"/>
<path d="M126.1 175.799V176.599H122.1V179.199H125.9V179.999H122.1V182.699H126.2V183.499H121.1V175.799H126.1Z" fill="#838383"/>
<path d="M130.4 183.399V175.699H133.5C135.1 175.699 135.8 176.399 135.8 177.799C135.8 179.299 134.7 180.199 132.6 180.499L132.4 179.699C134 179.499 134.8 178.899 134.8 177.899C134.8 177.099 134.3 176.599 133.4 176.599H131.4V183.399H130.4Z" fill="#838383"/>
<path d="M137.1 183.399V175.699H140.4C141.9 175.699 142.6 176.299 142.6 177.499C142.6 178.499 141.9 179.199 140.5 179.699L143.1 183.299H141.8L139.4 179.899V179.299C140.9 179.099 141.6 178.499 141.6 177.599C141.6 176.899 141.2 176.499 140.4 176.499H138.2V183.299H137.1V183.399Z" fill="#838383"/>
<path d="M145.3 175.799V183.499H144.3V175.799H145.3Z" fill="#838383"/>
<path d="M147.2 183.399V175.699H148.5L151.3 182.099L154.1 175.699H155.3V183.399H154.4V177.099L151.7 183.399H150.9L148.1 177.099V183.399H147.2Z" fill="#838383"/>
<path d="M157.3 183.399H156.3L159.5 175.699H160.6L163.9 183.399H162.8L161.8 180.999H159.3L159.6 180.199H161.5L160.1 176.699L157.3 183.399Z" fill="#838383"/>
<path d="M171 175.799L167.8 183.499H166.7L163.4 175.799H164.4L167.2 182.399L169.9 175.799H171Z" fill="#838383"/>
<path d="M177 175.799V176.599H173V179.199H176.8V179.999H173V182.699H177.1V183.499H172V175.799H177Z" fill="#838383"/>
<path d="M178.6 183.399V175.699H181.9C183.4 175.699 184.1 176.299 184.1 177.499C184.1 178.499 183.4 179.199 182 179.699L184.6 183.299H183.3L180.9 179.899V179.299C182.4 179.099 183.1 178.499 183.1 177.599C183.1 176.899 182.7 176.499 181.9 176.499H179.7V183.299H178.6V183.399Z" fill="#838383"/>
<path d="M185.9 183.399H184.9L188.1 175.699H189.2L192.5 183.399H191.4L190.4 180.999H187.9L188.2 180.199H190.1L188.7 176.699L185.9 183.399Z" fill="#838383"/>
<path d="M91.6 194.301V189.301H93.6C94.6 189.301 95.1 189.701 95.1 190.601C95.1 191.601 94.4 192.201 93 192.401L92.9 191.901C93.9 191.701 94.4 191.401 94.4 190.701C94.4 190.101 94.1 189.901 93.5 189.901H92.2V194.301H91.6Z" fill="#838383"/>
<path d="M99.2 189.401V189.901H96.6V191.601H99.1V192.101H96.6V193.801H99.3V194.301H96V189.301H99.2V189.401Z" fill="#838383"/>
<path d="M100.3 194.301V189.301H100.9L103.9 193.301V189.301H104.5V194.301H103.9L100.9 190.301V194.301H100.3Z" fill="#838383"/>
<path d="M105.6 194.2V193.6C106.1 193.8 106.7 193.9 107.3 193.9C108.2 193.9 108.6 193.6 108.6 193C108.6 192.5 108.3 192.2 107.7 192.2H107C106 192.2 105.4 191.7 105.4 190.8C105.4 189.9 106.1 189.4 107.4 189.4C108 189.4 108.5 189.5 109 189.6V190.2C108.5 190 108 189.9 107.4 189.9C106.5 189.9 106 190.2 106 190.8C106 191.3 106.3 191.6 106.9 191.6H107.5C108.6 191.6 109.1 192.1 109.1 193C109.1 194 108.5 194.5 107.2 194.5C106.7 194.4 106.2 194.3 105.6 194.2Z" fill="#838383"/>
<path d="M110.9 189.4V194.4H110.3V189.4H110.9Z" fill="#838383"/>
<path d="M112 191.9C112 190.2 112.8 189.4 114.5 189.4C116.1 189.4 117 190.2 117 191.9C117 193.6 116.2 194.4 114.5 194.4C112.9 194.4 112 193.5 112 191.9ZM114.5 193.8C115.7 193.8 116.3 193.1 116.3 191.8C116.3 190.5 115.7 189.8 114.5 189.8C113.3 189.8 112.7 190.5 112.7 191.8C112.7 193.2 113.3 193.8 114.5 193.8Z" fill="#838383"/>
<path d="M118 194.301V189.301H118.6L121.6 193.301V189.301H122.2V194.301H121.6L118.6 190.301V194.301H118Z" fill="#838383"/>
<path d="M126.7 189.401V189.901H124.1V191.601H126.6V192.101H124.1V193.801H126.8V194.301H123.5V189.301H126.7V189.401Z" fill="#838383"/>
<path d="M127.7 194.2V193.6C128.2 193.8 128.8 193.9 129.4 193.9C130.3 193.9 130.7 193.6 130.7 193C130.7 192.5 130.4 192.2 129.8 192.2H129C128 192.2 127.4 191.7 127.4 190.8C127.4 189.9 128.1 189.4 129.4 189.4C130 189.4 130.5 189.5 131 189.6V190.2C130.5 190 130 189.9 129.4 189.9C128.5 189.9 128 190.2 128 190.8C128 191.3 128.3 191.6 128.9 191.6H129.5C130.6 191.6 131.1 192.1 131.1 193C131.1 194 130.5 194.5 129.2 194.5C128.7 194.4 128.2 194.3 127.7 194.2Z" fill="#838383"/>
<path d="M97 213.9V214.7H94.6V221.6H93.6V214.7H91.2V213.9H97Z" fill="#838383"/>
<path d="M98.2 221.501V213.801H101.5C103 213.801 103.7 214.401 103.7 215.601C103.7 216.601 103 217.301 101.6 217.801L104.2 221.401H102.9L100.5 218.001V217.401C102 217.201 102.7 216.601 102.7 215.701C102.7 215.001 102.3 214.601 101.5 214.601H99.3V221.401H98.2V221.501Z" fill="#838383"/>
<path d="M106.3 213.9V221.6H105.3V213.9H106.3Z" fill="#838383"/>
<path d="M109.3 213.9V220.8H113.3V221.6H108.3V213.9H109.3Z" fill="#838383"/>
<path d="M119.5 221.301C118.8 221.501 118.1 221.601 117.4 221.601C114.7 221.601 113.4 220.301 113.4 217.601C113.4 215.101 114.7 213.801 117.4 213.801C118.2 213.801 118.9 213.901 119.5 214.101V215.001C118.8 214.801 118.2 214.601 117.5 214.601C115.4 214.601 114.4 215.601 114.4 217.601C114.4 219.701 115.4 220.801 117.5 220.801C118.2 220.801 118.9 220.701 119.5 220.401V221.301Z" fill="#838383"/>
<path d="M126.1 213.9V214.7H122.1V217.3H125.9V218.1H122.1V220.8H126.2V221.6H121.1V213.9H126.1Z" fill="#838383"/>
<path d="M130.4 221.501V213.801H133.5C135.1 213.801 135.8 214.501 135.8 215.901C135.8 217.401 134.7 218.301 132.6 218.601L132.4 217.801C134 217.601 134.8 217.001 134.8 216.001C134.8 215.201 134.3 214.701 133.4 214.701H131.4V221.501H130.4Z" fill="#838383"/>
<path d="M138.3 213.9V221.6H137.3V213.9H138.3Z" fill="#838383"/>
<path d="M140.2 218.6V213.9H141.2V218.6C141.2 220.1 141.9 220.8 143.4 220.8C144.9 220.8 145.6 220.1 145.6 218.6V213.9H146.6V218.6C146.6 220.6 145.5 221.6 143.4 221.6C141.3 221.6 140.2 220.6 140.2 218.6Z" fill="#838383"/>
<path d="M148.3 221.501V213.801H151.6C153.1 213.801 153.8 214.401 153.8 215.601C153.8 216.601 153.1 217.301 151.7 217.801L154.3 221.401H153L150.6 218.001V217.401C152.1 217.201 152.8 216.601 152.8 215.701C152.8 215.001 152.4 214.601 151.6 214.601H149.4V221.401H148.3V221.501Z" fill="#838383"/>
<path d="M155.6 221.501H154.6L157.8 213.801H158.9L162.2 221.501H161.1L160.1 219.101H157.6L157.9 218.301H159.8L158.4 214.801L155.6 221.501Z" fill="#838383"/>
<path d="M91.6 232.4V227.4H93.6C94.6 227.4 95.1 227.8 95.1 228.7C95.1 229.7 94.4 230.3 93 230.5L92.9 230C93.9 229.8 94.4 229.5 94.4 228.8C94.4 228.2 94.1 228 93.5 228H92.2V232.4H91.6Z" fill="#838383"/>
<path d="M99.2 227.5V228H96.6V229.7H99.1V230.2H96.6V231.9H99.3V232.4H96V227.4H99.2V227.5Z" fill="#838383"/>
<path d="M100.3 232.4V227.4H100.9L103.9 231.4V227.4H104.5V232.4H103.9L100.9 228.4V232.4H100.3Z" fill="#838383"/>
<path d="M105.6 232.3V231.7C106.1 231.9 106.7 232 107.3 232C108.2 232 108.6 231.7 108.6 231.1C108.6 230.6 108.3 230.3 107.7 230.3H107C106 230.3 105.4 229.8 105.4 228.9C105.4 228 106.1 227.5 107.4 227.5C108 227.5 108.5 227.6 109 227.7V228.3C108.5 228.1 108 228 107.4 228C106.5 228 106 228.3 106 228.9C106 229.4 106.3 229.7 106.9 229.7H107.5C108.6 229.7 109.1 230.2 109.1 231.1C109.1 232.1 108.5 232.6 107.2 232.6C106.7 232.5 106.2 232.4 105.6 232.3Z" fill="#838383"/>
<path d="M110.9 227.5V232.5H110.3V227.5H110.9Z" fill="#838383"/>
<path d="M112 230C112 228.3 112.8 227.5 114.5 227.5C116.1 227.5 117 228.3 117 230C117 231.7 116.2 232.5 114.5 232.5C112.9 232.5 112 231.6 112 230ZM114.5 231.9C115.7 231.9 116.3 231.2 116.3 229.9C116.3 228.6 115.7 227.9 114.5 227.9C113.3 227.9 112.7 228.6 112.7 229.9C112.7 231.3 113.3 231.9 114.5 231.9Z" fill="#838383"/>
<path d="M118 232.4V227.4H118.6L121.6 231.4V227.4H122.2V232.4H121.6L118.6 228.4V232.4H118Z" fill="#838383"/>
<path d="M126.7 227.5V228H124.1V229.7H126.6V230.2H124.1V231.9H126.8V232.4H123.5V227.4H126.7V227.5Z" fill="#838383"/>
<path d="M127.7 232.3V231.7C128.2 231.9 128.8 232 129.4 232C130.3 232 130.7 231.7 130.7 231.1C130.7 230.6 130.4 230.3 129.8 230.3H129C128 230.3 127.4 229.8 127.4 228.9C127.4 228 128.1 227.5 129.4 227.5C130 227.5 130.5 227.6 131 227.7V228.3C130.5 228.1 130 228 129.4 228C128.5 228 128 228.3 128 228.9C128 229.4 128.3 229.7 128.9 229.7H129.5C130.6 229.7 131.1 230.2 131.1 231.1C131.1 232.1 130.5 232.6 129.2 232.6C128.7 232.5 128.2 232.4 127.7 232.3Z" fill="#838383"/>
<path d="M97.6 258.199C96.9 258.399 96.2 258.499 95.5 258.499C92.8 258.499 91.5 257.199 91.5 254.499C91.5 251.999 92.8 250.699 95.5 250.699C96.3 250.699 97 250.799 97.6 250.999V251.899C96.9 251.699 96.3 251.499 95.6 251.499C93.5 251.499 92.5 252.499 92.5 254.499C92.5 256.599 93.5 257.699 95.6 257.699C96.3 257.699 97 257.599 97.6 257.299V258.199Z" fill="#838383"/>
<path d="M99 254.599C99 251.999 100.3 250.699 102.8 250.699C105.3 250.699 106.6 251.999 106.6 254.599C106.6 257.199 105.3 258.499 102.8 258.499C100.3 258.499 99 257.199 99 254.599ZM102.8 257.699C104.6 257.699 105.5 256.699 105.5 254.599C105.5 252.599 104.6 251.499 102.8 251.499C100.9 251.499 100 252.499 100 254.599C100 256.699 101 257.699 102.8 257.699Z" fill="#838383"/>
<path d="M109.2 250.799V257.699H113.2V258.499H108.2V250.799H109.2Z" fill="#838383"/>
<path d="M119.4 250.799V251.599H115.4V254.199H119.2V254.999H115.4V257.699H119.5V258.499H114.4V250.799H119.4Z" fill="#838383"/>
<path d="M126.7 258.199C126.1 258.399 125.4 258.599 124.7 258.599C121.9 258.599 120.5 257.299 120.5 254.599C120.5 252.099 121.8 250.799 124.5 250.799C125.3 250.799 126 250.899 126.6 251.099V251.999C125.9 251.799 125.3 251.599 124.6 251.599C122.5 251.599 121.5 252.599 121.5 254.599C121.5 256.699 122.5 257.799 124.6 257.799C124.9 257.799 125.3 257.799 125.7 257.699V254.999H126.7V258.199Z" fill="#838383"/>
<path d="M136.2 250.799V251.599H133.8V258.499H132.8V251.599H130.4V250.799H136.2Z" fill="#838383"/>
<path d="M137.4 258.499V250.799H140.7C142.2 250.799 142.9 251.399 142.9 252.599C142.9 253.599 142.2 254.299 140.8 254.799L143.4 258.399H142L139.6 254.999V254.399C141.1 254.199 141.8 253.599 141.8 252.699C141.8 251.999 141.4 251.599 140.6 251.599H138.4V258.399H137.4V258.499Z" fill="#838383"/>
<path d="M145.5 250.799V258.499H144.5V250.799H145.5Z" fill="#838383"/>
<path d="M148.5 250.799V257.699H152.5V258.499H147.5V250.799H148.5Z" fill="#838383"/>
<path d="M158.6 258.199C157.9 258.399 157.2 258.499 156.5 258.499C153.8 258.499 152.5 257.199 152.5 254.499C152.5 251.999 153.8 250.699 156.5 250.699C157.3 250.699 158 250.799 158.6 250.999V251.899C157.9 251.699 157.3 251.499 156.6 251.499C154.5 251.499 153.5 252.499 153.5 254.499C153.5 256.599 154.5 257.699 156.6 257.699C157.3 257.699 158 257.599 158.6 257.299V258.199Z" fill="#838383"/>
<path d="M165.3 250.799V251.599H161.3V254.199H165.1V254.999H161.3V257.699H165.4V258.499H160.3V250.799H165.3Z" fill="#838383"/>
<path d="M175.3 258.199C174.6 258.399 173.9 258.499 173.2 258.499C170.5 258.499 169.2 257.199 169.2 254.499C169.2 251.999 170.5 250.699 173.2 250.699C174 250.699 174.7 250.799 175.3 250.999V251.899C174.6 251.699 174 251.499 173.3 251.499C171.2 251.499 170.2 252.499 170.2 254.499C170.2 256.599 171.2 257.699 173.3 257.699C174 257.699 174.7 257.599 175.3 257.299V258.199Z" fill="#838383"/>
<path d="M176.9 258.499V250.799H177.9V254.199H182.4V250.799H183.4V258.499H182.4V254.999H177.9V258.499H176.9Z" fill="#838383"/>
<path d="M185.5 258.499H184.5L187.7 250.799H188.8L192.1 258.499H191L190 256.099H187.5L187.8 255.299H189.7L188.3 251.799L185.5 258.499Z" fill="#838383"/>
<path d="M193.1 258.499V250.799H194.1L198.8 256.999V250.799H199.7V258.499H198.7L194 252.299V258.499H193.1Z" fill="#838383"/>
<path d="M207.4 258.199C206.7 258.399 206 258.499 205.3 258.499C202.6 258.499 201.3 257.199 201.3 254.499C201.3 251.999 202.6 250.699 205.3 250.699C206.1 250.699 206.8 250.799 207.4 250.999V251.899C206.7 251.699 206.1 251.499 205.4 251.499C203.3 251.499 202.3 252.499 202.3 254.499C202.3 256.599 203.3 257.699 205.4 257.699C206.1 257.699 206.8 257.599 207.4 257.299V258.199Z" fill="#838383"/>
<path d="M209 258.499V250.799H210V254.199H214.5V250.799H215.5V258.499H214.5V254.999H210V258.499H209Z" fill="#838383"/>
<path d="M217.6 258.499H216.6L219.8 250.799H220.9L224.2 258.499H223.1L222.1 256.099H219.6L219.9 255.299H221.8L220.4 251.799L217.6 258.499Z" fill="#838383"/>
<path d="M225.2 258.499V250.799H226.5L229.3 257.199L232.1 250.799H233.3V258.499H232.4V252.199L229.7 258.499H228.9L226.1 252.199V258.499H225.2Z" fill="#838383"/>
<path d="M235.3 258.499H234.3L237.5 250.799H238.6L241.9 258.499H240.8L239.8 256.099H237.3L237.6 255.299H239.5L238.1 251.799L235.3 258.499Z" fill="#838383"/>
<path d="M241.2 250.799H242.3L244.5 254.799L246.7 250.799H247.9L245 255.799V258.499H244V255.799L241.2 250.799Z" fill="#838383"/>
<path d="M248.7 254.599C248.7 251.999 250 250.699 252.5 250.699C255 250.699 256.3 251.999 256.3 254.599C256.3 257.199 255 258.499 252.5 258.499C250 258.499 248.7 257.199 248.7 254.599ZM252.5 257.699C254.3 257.699 255.2 256.699 255.2 254.599C255.2 252.599 254.3 251.499 252.5 251.499C250.6 251.499 249.7 252.499 249.7 254.599C249.7 256.699 250.7 257.699 252.5 257.699Z" fill="#838383"/>
<path d="M126.6 21.4004H83.3V43.9004H126.6V21.4004Z" stroke="#FF4200" stroke-width="1.7698" stroke-miterlimit="10"/>
<path d="M209.4 52.5996H83.3V85.1996H209.4V52.5996Z" stroke="#FF4200" stroke-width="1.7226" stroke-miterlimit="10"/>
</svg>
