<svg width="392" height="262" viewBox="0 0 392 262" fill="none" xmlns="http://www.w3.org/2000/svg">
<path d="M392 0H0V262H392V0Z" fill="#E3E3E3"/>
<path d="M314.1 0H77.8999V262H314.1V0Z" fill="#F1EFED"/>
<path d="M301.4 255.101H90.6001C88.6001 255.101 87.1001 253.501 87.1001 251.601V221.801C87.1001 219.801 88.7001 218.301 90.6001 218.301H301.4C303.4 218.301 304.9 219.901 304.9 221.801V251.601C305 253.501 303.4 255.101 301.4 255.101Z" fill="white" stroke="#EBEDEE" stroke-width="0.8849" stroke-miterlimit="10"/>
<path d="M305.7 7.90039H87.1001V62.3004H305.7V7.90039Z" fill="white"/>
<path d="M299.2 15.8008V23.0008H292L299.2 15.8008Z" fill="#FF4200"/>
<path d="M305.8 33H87.6001V33.7H305.8V33Z" fill="#FAFAFA"/>
<path d="M101.6 15.5004V16.2004H98.0001V18.5004H101.5V19.2004H98.0001V21.6004H101.7V22.3004H97.1001V15.4004H101.6V15.5004Z" fill="#838383"/>
<path d="M102.9 22.5004V17.4004H103.5L103.7 18.0004C104.2 17.6004 104.7 17.4004 105.3 17.4004C106 17.4004 106.5 17.6004 106.8 18.1004C107.4 17.6004 107.9 17.4004 108.5 17.4004C109.7 17.4004 110.3 18.0004 110.3 19.3004V22.4004H109.4V19.2004C109.4 18.4004 109.1 18.1004 108.4 18.1004C107.9 18.1004 107.5 18.3004 107.1 18.8004V22.5004H106.2V19.3004C106.2 18.5004 105.9 18.1004 105.3 18.1004C104.8 18.1004 104.3 18.3004 104 18.8004V22.5004H102.9Z" fill="#838383"/>
<path d="M111.7 17.6004C112.4 17.5004 113.1 17.4004 113.8 17.4004C115.4 17.4004 116.2 18.2004 116.2 19.8004C116.2 21.6004 115.4 22.5004 113.7 22.5004C113.3 22.5004 112.9 22.4004 112.5 22.3004V24.4004H111.6V17.6004H111.7ZM112.6 21.4004C113 21.6004 113.3 21.7004 113.8 21.7004C114.9 21.7004 115.4 21.1004 115.4 19.8004C115.4 18.7004 114.9 18.1004 113.8 18.1004C113.3 18.1004 113 18.1004 112.6 18.2004V21.4004Z" fill="#838383"/>
<path d="M117.4 22.5004V17.4004H118L118.2 18.0004C118.6 17.6004 119.2 17.4004 119.8 17.4004V18.1004C119.2 18.1004 118.7 18.3004 118.3 18.7004V22.4004H117.4V22.5004Z" fill="#838383"/>
<path d="M122.8 17.4004C124.2 17.4004 125 18.1004 125 19.5004C125 19.7004 125 19.9004 125 20.2004H121.4C121.4 21.2004 122 21.8004 123.2 21.8004C123.8 21.8004 124.3 21.7004 124.7 21.6004V22.3004C124.3 22.4004 123.7 22.5004 123.1 22.5004C121.4 22.5004 120.5 21.6004 120.5 19.9004C120.4 18.2004 121.2 17.4004 122.8 17.4004ZM121.3 19.4004H124C124 18.5004 123.5 18.1004 122.7 18.1004C121.9 18.1004 121.4 18.5004 121.3 19.4004Z" fill="#838383"/>
<path d="M126.1 22.2008V21.4008C126.7 21.6008 127.3 21.7008 127.9 21.7008C128.7 21.7008 129.1 21.5008 129.1 21.0008C129.1 20.5008 128.8 20.3008 128.3 20.3008H127.6C126.5 20.3008 126 19.8008 126 18.8008C126 17.8008 126.7 17.3008 128.1 17.3008C128.7 17.3008 129.3 17.4008 129.9 17.5008V18.3008C129.3 18.1008 128.7 18.0008 128.1 18.0008C127.3 18.0008 126.8 18.2008 126.8 18.7008C126.8 19.2008 127.1 19.4008 127.6 19.4008H128.3C129.5 19.4008 130 19.9008 130 20.9008C130 21.9008 129.3 22.4008 127.9 22.4008C127.3 22.5008 126.7 22.4008 126.1 22.2008Z" fill="#838383"/>
<path d="M131 20.9004C131 19.9004 131.7 19.3004 133.1 19.3004C133.5 19.3004 134 19.3004 134.4 19.4004V19.0004C134.4 18.4004 133.9 18.1004 133 18.1004C132.5 18.1004 131.9 18.2004 131.4 18.3004V17.6004C131.9 17.4004 132.5 17.4004 133 17.4004C134.5 17.4004 135.3 17.9004 135.3 19.0004V22.5004H134.8L134.5 22.0004C134 22.3004 133.4 22.5004 132.8 22.5004C131.6 22.5004 131 21.9004 131 20.9004ZM133 20.1004C132.2 20.1004 131.8 20.4004 131.8 20.9004C131.8 21.4004 132.1 21.7004 132.7 21.7004C133.3 21.7004 133.8 21.5004 134.3 21.2004V20.1004C133.9 20.1004 133.5 20.1004 133 20.1004Z" fill="#838383"/>
<path d="M97.2999 49.6008H96.3999L99.2999 42.8008H100.3L103.2 49.6008H102.2L101.3 47.5008H98.9999L99.1999 46.8008H100.9L99.5999 43.7008L97.2999 49.6008Z" fill="#242229"/>
<path d="M109.2 49.4008C108.6 49.6008 108 49.7008 107.3 49.7008C104.9 49.7008 103.7 48.5008 103.7 46.2008C103.7 44.0008 104.9 42.8008 107.3 42.8008C108 42.8008 108.6 42.9008 109.2 43.1008V43.9008C108.6 43.7008 108 43.6008 107.4 43.6008C105.5 43.6008 104.6 44.5008 104.6 46.2008C104.6 48.1008 105.5 49.0008 107.4 49.0008C108 49.0008 108.6 48.9008 109.2 48.7008V49.4008Z" fill="#242229"/>
<path d="M110.9 49.6008H110L112.9 42.8008H113.9L116.8 49.6008H115.8L114.9 47.5008H112.7L112.9 46.8008H114.6L113.3 43.7008L110.9 49.6008Z" fill="#242229"/>
<path d="M117.6 49.6008V42.8008H120.1C122.4 42.8008 123.5 43.9008 123.5 46.0008C123.5 48.4008 122.4 49.6008 120.1 49.6008H117.6ZM120.1 48.9008C121.8 48.9008 122.6 47.9008 122.6 46.0008C122.6 44.3008 121.8 43.5008 120.1 43.5008H118.5V48.9008H120.1Z" fill="#242229"/>
<path d="M129.2 42.8008V43.5008H125.6V45.8008H129V46.5008H125.6V48.9008H129.2V49.6008H124.7V42.8008H129.2Z" fill="#242229"/>
<path d="M130.6 49.6008V42.8008H131.7L134.2 48.5008L136.6 42.8008H137.7V49.6008H137V44.0008L134.6 49.6008H133.9L131.4 44.0008V49.6008H130.6Z" fill="#242229"/>
<path d="M140.4 42.8008V49.6008H139.5V42.8008H140.4Z" fill="#242229"/>
<path d="M142.4 49.6008H141.5L144.4 42.8008H145.4L148.3 49.6008H147.3L146.4 47.5008H144.2L144.4 46.8008H146.1L144.8 43.7008L142.4 49.6008Z" fill="#242229"/>
<path d="M149 49.4008V48.6008C149.7 48.9008 150.5 49.0008 151.3 49.0008C152.5 49.0008 153.1 48.6008 153.1 47.7008C153.1 47.0008 152.7 46.6008 151.8 46.6008H150.9C149.5 46.6008 148.8 46.0008 148.8 44.7008C148.8 43.4008 149.7 42.8008 151.5 42.8008C152.3 42.8008 153 42.9008 153.7 43.1008V43.9008C153 43.6008 152.3 43.5008 151.5 43.5008C150.3 43.5008 149.6 43.9008 149.6 44.7008C149.6 45.4008 150 45.8008 150.9 45.8008H151.8C153.2 45.8008 154 46.4008 154 47.7008C154 49.0008 153.1 49.7008 151.4 49.7008C150.5 49.7008 149.7 49.6008 149 49.4008Z" fill="#242229"/>
<path d="M162.2 42.8008V43.5008H160.1V49.6008H159.2V43.5008H157.1V42.8008H162.2Z" fill="#242229"/>
<path d="M163.3 49.6008V42.8008H166.2C167.5 42.8008 168.1 43.3008 168.1 44.4008C168.1 45.3008 167.5 45.9008 166.2 46.4008L168.5 49.6008H167.3L165.1 46.5008V46.0008C166.4 45.8008 167 45.3008 167 44.5008C167 43.9008 166.6 43.6008 165.9 43.6008H164V49.7008H163.3V49.6008Z" fill="#242229"/>
<path d="M170.5 42.8008V49.6008H169.6V42.8008H170.5Z" fill="#242229"/>
<path d="M173.1 42.8008V48.9008H176.7V49.6008H172.3V42.8008H173.1Z" fill="#242229"/>
<path d="M182.1 49.4008C181.5 49.6008 180.9 49.7008 180.2 49.7008C177.8 49.7008 176.6 48.5008 176.6 46.2008C176.6 44.0008 177.8 42.8008 180.2 42.8008C180.9 42.8008 181.5 42.9008 182.1 43.1008V43.9008C181.5 43.7008 180.9 43.6008 180.3 43.6008C178.4 43.6008 177.5 44.5008 177.5 46.2008C177.5 48.1008 178.4 49.0008 180.3 49.0008C180.9 49.0008 181.5 48.9008 182.1 48.7008V49.4008Z" fill="#242229"/>
<path d="M188 42.8008V43.5008H184.4V45.8008H187.8V46.5008H184.4V48.9008H188V49.6008H183.5V42.8008H188Z" fill="#242229"/>
<path d="M89.4 7.90039H86.3V62.3004H89.4V7.90039Z" fill="#FF4200"/>
<path d="M305.7 79.3008H87.1001V133.701H305.7V79.3008Z" fill="white"/>
<path d="M299.2 87.1992V94.4992H292L299.2 87.1992Z" fill="#FF4200"/>
<path d="M305.8 104.4H87.6001V105.1H305.8V104.4Z" fill="#FAFAFA"/>
<path d="M97 93.7V92.9C97.7 93.2 98.5 93.3 99.4 93.3C100.6 93.3 101.2 92.9 101.2 92C101.2 91.3 100.8 90.9 99.9 90.9H99C97.6 90.9 96.8 90.3 96.8 89C96.8 87.7 97.7 87 99.6 87C100.4 87 101.2 87.1 101.8 87.3V88.1C101.1 87.8 100.4 87.7 99.6 87.7C98.3 87.7 97.7 88.1 97.7 89C97.7 89.7 98.1 90.1 99 90.1H99.9C101.4 90.1 102.1 90.7 102.1 92C102.1 93.4 101.2 94 99.4 94C98.5 94 97.7 93.9 97 93.7Z" fill="#838383"/>
<path d="M105.3 88.8008C106.7 88.8008 107.5 89.5008 107.5 90.9008C107.5 91.1008 107.5 91.3008 107.5 91.6008H103.9C103.9 92.6008 104.5 93.2008 105.7 93.2008C106.3 93.2008 106.8 93.1008 107.2 93.0008V93.7008C106.8 93.8008 106.2 93.9008 105.6 93.9008C103.9 93.9008 103 93.0008 103 91.3008C103 89.7008 103.8 88.8008 105.3 88.8008ZM103.9 90.9008H106.6C106.6 90.0008 106.1 89.6008 105.3 89.6008C104.4 89.5008 103.9 90.0008 103.9 90.9008Z" fill="#838383"/>
<path d="M108.7 93.9008V88.8008H109.3L109.5 89.4008C109.9 89.0008 110.5 88.8008 111.1 88.8008V89.5008C110.5 89.5008 110 89.7008 109.6 90.1008V93.8008H108.7V93.9008Z" fill="#838383"/>
<path d="M111.2 88.8008H112.2L113.7 92.8008L115.1 88.8008H116.1L114 93.9008H113.2L111.2 88.8008Z" fill="#838383"/>
<path d="M117.8 87V87.8H116.9V87H117.8ZM117.8 88.8V93.9H116.9V88.8H117.8Z" fill="#838383"/>
<path d="M123.1 93.8004C122.7 93.9004 122.2 93.9004 121.7 93.9004C119.9 93.9004 119 93.0004 119 91.3004C119 89.7004 119.9 88.9004 121.7 88.9004C122.2 88.9004 122.6 88.9004 123.1 89.0004V89.7004C122.7 89.6004 122.2 89.6004 121.7 89.6004C120.5 89.6004 119.9 90.2004 119.9 91.3004C119.9 92.6004 120.5 93.2004 121.7 93.2004C122.2 93.2004 122.7 93.2004 123.1 93.1004V93.8004Z" fill="#838383"/>
<path d="M125.3 87V87.8H124.4V87H125.3ZM125.3 88.8V93.9H124.4V88.8H125.3Z" fill="#838383"/>
<path d="M126.6 91.4004C126.6 89.7004 127.4 88.9004 129 88.9004C130.6 88.9004 131.4 89.7004 131.4 91.4004C131.4 93.1004 130.6 93.9004 129 93.9004C127.4 93.9004 126.6 93.1004 126.6 91.4004ZM129 93.2004C130 93.2004 130.5 92.6004 130.5 91.4004C130.5 90.2004 130 89.6004 129 89.6004C128 89.6004 127.5 90.2004 127.5 91.4004C127.5 92.6004 128 93.2004 129 93.2004Z" fill="#838383"/>
<path d="M102.2 120.799C101.6 120.999 101 121.099 100.3 121.099C97.9 121.099 96.7 119.899 96.7 117.599C96.7 115.399 97.9 114.199 100.3 114.199C101 114.199 101.6 114.299 102.2 114.499V115.299C101.6 115.099 101 114.999 100.4 114.999C98.5 114.999 97.6 115.899 97.6 117.599C97.6 119.499 98.5 120.399 100.4 120.399C101 120.399 101.6 120.299 102.2 120.099V120.799Z" fill="#242229"/>
<path d="M103.6 118.399V114.199H104.5V118.399C104.5 119.699 105.1 120.399 106.4 120.399C107.7 120.399 108.3 119.699 108.3 118.399V114.199H109.2V118.399C109.2 120.199 108.3 121.099 106.4 121.099C104.5 121.099 103.6 120.199 103.6 118.399Z" fill="#242229"/>
<path d="M110.6 117.699C110.6 115.399 111.7 114.199 114 114.199C116.2 114.199 117.4 115.399 117.4 117.699C117.4 119.999 116.3 121.099 114 121.099C111.7 121.099 110.6 119.999 110.6 117.699ZM114 120.399C115.6 120.399 116.4 119.499 116.4 117.599C116.4 115.799 115.6 114.899 114 114.899C112.3 114.899 111.5 115.799 111.5 117.599C111.5 119.499 112.3 120.399 114 120.399Z" fill="#242229"/>
<path d="M123.3 114.299V114.999H121.2V121.099H120.3V114.999H118.2V114.299H123.3Z" fill="#242229"/>
<path d="M123.9 121.099H123L125.9 114.299H126.9L129.8 121.099H128.8L127.9 118.999H125.7L125.9 118.299H127.6L126.3 115.199L123.9 121.099Z" fill="#242229"/>
<path d="M89.4 79.3008H86.3V133.701H89.4V79.3008Z" fill="#FF4200"/>
<path d="M305.7 150.801H87.1001V205.201H305.7V150.801Z" fill="white"/>
<path d="M299.2 158.699V165.899H292L299.2 158.699Z" fill="#FF4200"/>
<path d="M102.3 167.8C101.7 168 101.1 168.1 100.4 168.1C98 168.1 96.8 166.9 96.8 164.5C96.8 162.2 98 161.1 100.4 161.1C101.1 161.1 101.7 161.2 102.3 161.4V162.2C101.7 162 101.1 161.9 100.5 161.9C98.6 161.9 97.7 162.8 97.7 164.6C97.7 166.5 98.6 167.5 100.5 167.5C101.1 167.5 101.7 167.4 102.3 167.2V167.8Z" fill="#838383"/>
<path d="M103.5 164.6C103.5 162.3 104.7 161.1 107 161.1C109.3 161.1 110.4 162.3 110.4 164.6C110.4 166.9 109.3 168.1 107 168.1C104.7 168.1 103.5 166.9 103.5 164.6ZM107 167.3C108.7 167.3 109.5 166.4 109.5 164.5C109.5 162.7 108.7 161.7 107 161.7C105.3 161.7 104.5 162.6 104.5 164.5C104.5 166.4 105.3 167.3 107 167.3Z" fill="#838383"/>
<path d="M111.8 168V161.1H114.3C116.6 161.1 117.7 162.2 117.7 164.4C117.7 166.8 116.6 168 114.3 168H111.8ZM114.3 167.3C116 167.3 116.8 166.3 116.8 164.4C116.8 162.7 116 161.9 114.3 161.9H112.7V167.4H114.3V167.3Z" fill="#838383"/>
<path d="M120.1 161.1V168H119.2V161.1H120.1Z" fill="#838383"/>
<path d="M127.1 167.7C126.5 167.9 125.9 168 125.3 168C122.8 168 121.5 166.8 121.5 164.4C121.5 162.1 122.7 161 125.1 161C125.8 161 126.4 161.1 127 161.3V162.1C126.4 161.9 125.8 161.8 125.2 161.8C123.3 161.8 122.4 162.7 122.4 164.5C122.4 166.4 123.3 167.4 125.2 167.4C125.5 167.4 125.8 167.4 126.2 167.3V164.9H127.1V167.7Z" fill="#838383"/>
<path d="M128.4 164.6C128.4 162.3 129.6 161.1 131.9 161.1C134.2 161.1 135.3 162.3 135.3 164.6C135.3 166.9 134.2 168.1 131.9 168.1C129.5 168.1 128.4 166.9 128.4 164.6ZM131.8 167.3C133.5 167.3 134.3 166.4 134.3 164.5C134.3 162.7 133.5 161.7 131.8 161.7C130.1 161.7 129.3 162.6 129.3 164.5C129.3 166.4 130.2 167.3 131.8 167.3Z" fill="#838383"/>
<path d="M139.1 168V161.1H141.6C143.9 161.1 145 162.2 145 164.4C145 166.8 143.9 168 141.6 168H139.1ZM141.6 167.3C143.3 167.3 144.1 166.3 144.1 164.4C144.1 162.7 143.3 161.9 141.6 161.9H140V167.4H141.6V167.3Z" fill="#838383"/>
<path d="M150.9 161.1V161.8H147.3V164.1H150.8V164.8H147.3V167.2H151V167.9H146.4V161H150.9V161.1Z" fill="#838383"/>
<path d="M153.2 161.1V167.3H156.8V168H152.3V161.1H153.2Z" fill="#838383"/>
<path d="M160.5 168H159.6L162.5 161.1H163.5L166.5 168H165.5L164.6 165.8H162.3L162.5 165.1H164.2L163 162L160.5 168Z" fill="#838383"/>
<path d="M168.3 161.1V167.3H171.9V168H167.4V161.1H168.3Z" fill="#838383"/>
<path d="M172.9 165.3V161.1H173.8V165.3C173.8 166.6 174.5 167.3 175.8 167.3C177.1 167.3 177.8 166.6 177.8 165.3V161.1H178.7V165.3C178.7 167.1 177.7 168 175.8 168C173.9 168 172.9 167.2 172.9 165.3Z" fill="#838383"/>
<path d="M180.3 168V161.1H181.4L183.9 166.9L186.4 161.1H187.5V168H186.7V162.3L184.2 168H183.5L181 162.3V168H180.3Z" fill="#838383"/>
<path d="M189.2 168V161.1H190.1L194.3 166.7V161.1H195.1V168H194.2L190 162.4V168H189.2Z" fill="#838383"/>
<path d="M196.6 164.6C196.6 162.3 197.8 161.1 200.1 161.1C202.4 161.1 203.5 162.3 203.5 164.6C203.5 166.9 202.4 168.1 200.1 168.1C197.7 168.1 196.6 166.9 196.6 164.6ZM200 167.3C201.7 167.3 202.5 166.4 202.5 164.5C202.5 162.7 201.7 161.7 200 161.7C198.3 161.7 197.5 162.6 197.5 164.5C197.5 166.4 198.4 167.3 200 167.3Z" fill="#838383"/>
<path d="M103.4 185.9H108.4V186.7L105.2 193.4H104.1L107.4 186.7H103.4V185.9Z" fill="#242229"/>
<path d="M110.1 193.401V186.801H109.3V186.301L111.1 185.801V193.301H110.1V193.401Z" fill="#242229"/>
<path d="M112.5 185.9H117.5V186.7L114.3 193.4H113.2L116.5 186.7H112.5V185.9Z" fill="#242229"/>
<path d="M122.3 193.4H121.3V191.6H117.4V190.8L120.4 185.9H121.4L118.4 190.8H121.3V188.1H122.3V190.8L123.1 191.2V191.6H122.3V193.4Z" fill="#242229"/>
<path d="M124.7 193.401V186.801H124V186.301L125.8 185.801V193.301H124.7V193.401Z" fill="#242229"/>
<path d="M127.6 185.9H132.1V186.7H128.4L128.3 189C128.7 188.9 129.1 188.9 129.6 188.9C131.5 188.9 132.4 189.6 132.4 191C132.4 192.6 131.4 193.4 129.5 193.4C128.8 193.4 128.2 193.3 127.5 193.1V192.3C128.2 192.5 128.9 192.7 129.6 192.7C130.9 192.7 131.5 192.2 131.5 191.1C131.5 190.2 130.9 189.7 129.6 189.7C128.8 189.7 128.1 189.8 127.5 189.9L127.6 185.9Z" fill="#242229"/>
<path d="M133.5 186.101C134.2 185.901 134.9 185.801 135.6 185.801C137.4 185.801 138.3 186.501 138.3 187.801C138.3 188.601 138 189.201 137.3 189.501C138 189.801 138.3 190.401 138.3 191.201C138.3 192.601 137.4 193.301 135.6 193.301C134.9 193.301 134.2 193.201 133.5 193.001V192.201C134.2 192.401 134.9 192.601 135.6 192.601C136.8 192.601 137.3 192.101 137.3 191.201C137.3 190.301 136.9 189.901 136 189.901H134.3V189.101H136C136.9 189.101 137.3 188.701 137.3 187.801C137.3 187.001 136.7 186.501 135.6 186.501C134.9 186.501 134.2 186.601 133.5 186.901V186.101Z" fill="#242229"/>
<path d="M139.6 189.601C139.6 187.101 140.7 185.801 142.8 185.801C144.9 185.801 146 187.101 146 189.601C146 192.101 144.9 193.401 142.8 193.401C140.6 193.401 139.6 192.201 139.6 189.601ZM142.8 192.601C144.2 192.601 145 191.601 145 189.601C145 187.601 144.3 186.601 142.8 186.601C141.3 186.601 140.6 187.601 140.6 189.601C140.6 191.601 141.3 192.601 142.8 192.601Z" fill="#242229"/>
<path d="M89.4 150.801H86.3V205.201H89.4V150.801Z" fill="#FF4200"/>
<path d="M298.5 177.6H96.8999V199.7H298.5V177.6Z" stroke="#D1D1D4" stroke-width="0.8849" stroke-miterlimit="10"/>
<path d="M162.7 177.4H93.7V199.9H162.7V177.4Z" stroke="#FF4200" stroke-width="1.8394" stroke-miterlimit="10"/>
<path d="M117.8 239.5C117.3 239.7 116.7 239.8 116.1 239.8C113.8 239.8 112.6 238.7 112.6 236.5C112.6 234.4 113.7 233.4 115.9 233.4C116.5 233.4 117.1 233.5 117.7 233.7V234.4C117.1 234.2 116.6 234.1 116 234.1C114.3 234.1 113.4 234.9 113.4 236.6C113.4 238.4 114.3 239.3 116 239.3C116.3 239.3 116.6 239.3 116.9 239.2V237H117.7V239.5H117.8Z" fill="#C9C9C9"/>
<path d="M123.1 235V239.7H122.5L122.4 239.1C121.8 239.5 121.3 239.7 120.7 239.7C119.6 239.7 119.1 239.1 119.1 238V235H119.9V238C119.9 238.7 120.2 239 120.9 239C121.4 239 121.8 238.8 122.3 238.4V235H123.1Z" fill="#C9C9C9"/>
<path d="M124.2 238.302C124.2 237.302 124.8 236.902 126.1 236.902C126.5 236.902 126.9 236.902 127.3 237.002V236.602C127.3 236.102 126.9 235.802 126 235.802C125.5 235.802 125 235.902 124.5 236.002V235.302C125 235.202 125.5 235.102 126 235.102C127.4 235.102 128.1 235.602 128.1 236.602V239.802H127.6L127.3 239.302C126.8 239.602 126.3 239.802 125.8 239.802C124.7 239.702 124.2 239.202 124.2 238.302ZM126.1 237.502C125.4 237.502 125 237.802 125 238.302C125 238.802 125.3 239.102 125.8 239.102C126.4 239.102 126.9 238.902 127.3 238.602V237.602C126.9 237.502 126.5 237.502 126.1 237.502Z" fill="#C9C9C9"/>
<path d="M129.5 239.7V235H130.1L130.2 235.6C130.6 235.2 131.1 235 131.7 235V235.7C131.1 235.7 130.7 235.9 130.3 236.3V239.7H129.5Z" fill="#C9C9C9"/>
<path d="M136.5 239.401C135.9 239.601 135.2 239.701 134.4 239.701C133 239.701 132.3 238.901 132.3 237.301C132.3 235.801 133 235.001 134.5 235.001C134.9 235.001 135.3 235.101 135.6 235.201V233.301H136.4V239.401H136.5ZM135.6 236.001C135.3 235.801 134.9 235.801 134.5 235.801C133.6 235.801 133.1 236.301 133.1 237.301C133.1 238.501 133.6 239.101 134.5 239.101C134.9 239.101 135.3 239.001 135.6 238.901V236.001Z" fill="#C9C9C9"/>
<path d="M137.6 238.302C137.6 237.302 138.2 236.902 139.5 236.902C139.9 236.902 140.3 236.902 140.7 237.002V236.602C140.7 236.102 140.3 235.802 139.4 235.802C138.9 235.802 138.4 235.902 137.9 236.002V235.302C138.4 235.202 138.9 235.102 139.4 235.102C140.8 235.102 141.5 235.602 141.5 236.602V239.802H141L140.7 239.302C140.2 239.602 139.7 239.802 139.2 239.802C138.1 239.702 137.6 239.202 137.6 238.302ZM139.5 237.502C138.8 237.502 138.4 237.802 138.4 238.302C138.4 238.802 138.7 239.102 139.2 239.102C139.8 239.102 140.3 238.902 140.7 238.602V237.602C140.3 237.502 139.9 237.502 139.5 237.502Z" fill="#C9C9C9"/>
<path d="M142.9 239.7V235H143.5L143.6 235.6C144 235.2 144.5 235 145.1 235V235.7C144.5 235.7 144.1 235.9 143.7 236.3V239.7H142.9Z" fill="#C9C9C9"/>
<path d="M148.1 239.502V238.802C148.7 239.002 149.2 239.102 149.8 239.102C150.5 239.102 150.9 238.902 150.9 238.402C150.9 238.002 150.6 237.802 150.1 237.802H149.4C148.4 237.802 147.9 237.302 147.9 236.402C147.9 235.502 148.6 235.102 149.9 235.102C150.5 235.102 151 235.202 151.6 235.302V236.002C151 235.802 150.5 235.702 149.9 235.702C149.1 235.702 148.7 235.902 148.7 236.402C148.7 236.802 148.9 237.002 149.4 237.002H150.1C151.2 237.002 151.7 237.502 151.7 238.402C151.7 239.302 151.1 239.702 149.8 239.702C149.2 239.702 148.6 239.602 148.1 239.502Z" fill="#C9C9C9"/>
<path d="M154.7 235C156 235 156.7 235.7 156.7 237C156.7 237.2 156.7 237.4 156.7 237.6H153.4C153.4 238.6 154 239 155.1 239C155.6 239 156.1 238.9 156.5 238.8V239.5C156.1 239.6 155.6 239.7 155 239.7C153.4 239.7 152.6 238.9 152.6 237.3C152.6 235.8 153.3 235 154.7 235ZM153.4 236.9H155.9C155.9 236.1 155.5 235.7 154.7 235.7C153.9 235.7 153.5 236.1 153.4 236.9Z" fill="#C9C9C9"/>
<path d="M157.9 239.7V235H158.5L158.6 235.6C159 235.2 159.5 235 160.1 235V235.7C159.5 235.7 159.1 235.9 158.7 236.3V239.7H157.9Z" fill="#C9C9C9"/>
<path d="M160.2 235H161.1L162.4 238.7L163.7 235H164.6L162.7 239.7H162L160.2 235Z" fill="#C9C9C9"/>
<path d="M166.3 233.301V234.101H165.5V233.301H166.3ZM166.3 235.001V239.701H165.5V235.001H166.3Z" fill="#C9C9C9"/>
<path d="M171.2 239.6C170.8 239.7 170.4 239.7 169.9 239.7C168.2 239.7 167.4 238.9 167.4 237.3C167.4 235.8 168.2 235 169.9 235C170.3 235 170.8 235 171.2 235.1V235.8C170.8 235.7 170.4 235.7 169.9 235.7C168.8 235.7 168.3 236.2 168.3 237.3C168.3 238.5 168.8 239.1 169.9 239.1C170.4 239.1 170.8 239.1 171.2 239V239.6Z" fill="#C9C9C9"/>
<path d="M173.2 233.301V234.101H172.4V233.301H173.2ZM173.2 235.001V239.701H172.4V235.001H173.2Z" fill="#C9C9C9"/>
<path d="M174.4 237.402C174.4 235.802 175.1 235.102 176.6 235.102C178.1 235.102 178.8 235.902 178.8 237.402C178.8 239.002 178.1 239.702 176.6 239.702C175.1 239.702 174.4 238.902 174.4 237.402ZM176.6 239.002C177.5 239.002 178 238.402 178 237.302C178 236.202 177.5 235.602 176.6 235.602C175.7 235.602 175.2 236.202 175.2 237.302C175.2 238.502 175.7 239.002 176.6 239.002Z" fill="#C9C9C9"/>
<path d="M183.7 233.301C183.1 234.601 182.8 236.001 182.8 237.301C182.8 238.601 183.1 240.001 183.7 241.301H182.9C182.3 240.001 182 238.601 182 237.301C182 236.001 182.3 234.601 182.9 233.301H183.7Z" fill="#C9C9C9"/>
<path d="M184.6 237.402C184.6 235.802 185.3 235.102 186.8 235.102C188.3 235.102 189 235.902 189 237.402C189 239.002 188.3 239.702 186.8 239.702C185.3 239.702 184.6 238.902 184.6 237.402ZM186.8 239.002C187.7 239.002 188.2 238.402 188.2 237.302C188.2 236.202 187.7 235.602 186.8 235.602C185.9 235.602 185.4 236.202 185.4 237.302C185.4 238.502 185.9 239.002 186.8 239.002Z" fill="#C9C9C9"/>
<path d="M190.2 235.2C190.8 235.1 191.5 235 192.1 235C193.6 235 194.4 235.7 194.4 237.2C194.4 238.8 193.6 239.7 192.1 239.7C191.7 239.7 191.4 239.6 191 239.5V241.4H190.2V235.2ZM191 238.7C191.3 238.9 191.7 238.9 192.1 238.9C193.1 238.9 193.6 238.3 193.6 237.1C193.6 236.1 193.1 235.6 192.1 235.6C191.7 235.6 191.3 235.6 191 235.7V238.7Z" fill="#C9C9C9"/>
<path d="M199 239.6C198.6 239.7 198.2 239.7 197.7 239.7C196 239.7 195.2 238.9 195.2 237.3C195.2 235.8 196 235 197.7 235C198.1 235 198.6 235 199 235.1V235.8C198.6 235.7 198.2 235.7 197.7 235.7C196.6 235.7 196.1 236.2 196.1 237.3C196.1 238.5 196.6 239.1 197.7 239.1C198.2 239.1 198.6 239.1 199 239V239.6Z" fill="#C9C9C9"/>
<path d="M201 233.301V234.101H200.2V233.301H201ZM201 235.001V239.701H200.2V235.001H201Z" fill="#C9C9C9"/>
<path d="M202.2 237.402C202.2 235.802 202.9 235.102 204.4 235.102C205.9 235.102 206.6 235.902 206.6 237.402C206.6 239.002 205.9 239.702 204.4 239.702C202.9 239.702 202.2 238.902 202.2 237.402ZM204.4 239.002C205.3 239.002 205.8 238.402 205.8 237.302C205.8 236.202 205.3 235.602 204.4 235.602C203.5 235.602 203 236.202 203 237.302C203 238.502 203.5 239.002 204.4 239.002Z" fill="#C9C9C9"/>
<path d="M207.8 239.7V235H208.4L208.5 235.6C209 235.2 209.5 235 210.1 235C211.3 235 211.9 235.6 211.9 236.7V239.6H211V236.6C211 235.9 210.7 235.6 210 235.6C209.5 235.6 209.1 235.8 208.7 236.2V239.6H207.8V239.7Z" fill="#C9C9C9"/>
<path d="M212.9 238.302C212.9 237.302 213.5 236.902 214.8 236.902C215.2 236.902 215.6 236.902 216 237.002V236.602C216 236.102 215.6 235.802 214.7 235.802C214.2 235.802 213.7 235.902 213.2 236.002V235.302C213.7 235.202 214.2 235.102 214.7 235.102C216.1 235.102 216.8 235.602 216.8 236.602V239.802H216.3L216 239.302C215.5 239.602 215 239.802 214.5 239.802C213.5 239.702 212.9 239.202 212.9 238.302ZM214.8 237.502C214.1 237.502 213.7 237.802 213.7 238.302C213.7 238.802 214 239.102 214.5 239.102C215.1 239.102 215.6 238.902 216 238.602V237.602C215.6 237.502 215.2 237.502 214.8 237.502Z" fill="#C9C9C9"/>
<path d="M219.1 233.301V239.701H218.3V233.301H219.1Z" fill="#C9C9C9"/>
<path d="M221.1 233.301C221.7 234.601 222 236.001 222 237.301C222 238.601 221.7 240.001 221.1 241.301H220.3C220.9 240.001 221.2 238.601 221.2 237.301C221.2 236.001 220.9 234.601 220.3 233.301H221.1Z" fill="#C9C9C9"/>
<path d="M101.3 232.9L102.2 235.7H105.2L102.8 237.5L103.7 240.3L101.3 238.6L98.8999 240.3L99.7999 237.5L97.3999 235.7H100.4L101.3 232.9Z" stroke="#FF4200" stroke-width="0.4424" stroke-miterlimit="10" stroke-linecap="round" stroke-linejoin="round"/>
</svg>
