<svg width="392" height="262" viewBox="0 0 392 262" fill="none" xmlns="http://www.w3.org/2000/svg">
<path d="M392 0H0V262H392V0Z" fill="#E3E3E3"/>
<path d="M305.3 5.30078H87.1001V6.80078H305.3V5.30078Z" fill="#F8F6F6"/>
<path d="M314.1 0H77.8999V262H314.1V0Z" fill="#F1EFED"/>
<path d="M305.7 0.400391H87.1001V207.7H305.7V0.400391Z" fill="white"/>
<path d="M306.2 208.1H86.7002V0H306.2V208.1ZM87.5002 207.3H305.2V0.9H87.5002V207.3Z" fill="#DFDCDD"/>
<path d="M94.8999 23.4004V17.9004H95.5999L98.9999 22.4004V17.9004H99.6999V23.4004H98.9999L95.5999 18.9004V23.4004H94.8999Z" fill="#CCCCCC"/>
<path d="M100.7 18.9004C100.7 18.2004 101 17.9004 101.7 17.9004C102.4 17.9004 102.7 18.2004 102.7 18.9004C102.7 19.6004 102.4 19.9004 101.7 19.9004C101.1 19.9004 100.8 19.5004 100.7 18.9004ZM101.7 19.6004C102.1 19.6004 102.3 19.4004 102.3 18.9004C102.3 18.4004 102.1 18.2004 101.7 18.2004C101.3 18.2004 101.1 18.4004 101.1 18.9004C101.1 19.3004 101.3 19.6004 101.7 19.6004Z" fill="#CCCCCC"/>
<path d="M105.6 23.4008V19.3008H106.1L106.2 19.8008C106.6 19.5008 107 19.3008 107.5 19.3008V19.9008C107 19.9008 106.6 20.1008 106.3 20.4008V23.4008H105.6Z" fill="#CCCCCC"/>
<path d="M109.9 19.3008C111.1 19.3008 111.6 19.9008 111.6 21.0008C111.6 21.2008 111.6 21.3008 111.6 21.5008H108.7C108.7 22.3008 109.2 22.7008 110.2 22.7008C110.7 22.7008 111.1 22.6008 111.4 22.5008V23.1008C111 23.2008 110.6 23.3008 110.1 23.3008C108.7 23.3008 108 22.6008 108 21.2008C108 20.0008 108.6 19.3008 109.9 19.3008ZM108.7 21.0008H110.9C110.9 20.3008 110.5 19.9008 109.9 19.9008C109.2 19.9008 108.8 20.2008 108.7 21.0008Z" fill="#CCCCCC"/>
<path d="M115.6 23.3008C115.3 23.4008 114.9 23.4008 114.5 23.4008C113.1 23.4008 112.3 22.7008 112.3 21.3008C112.3 20.0008 113 19.3008 114.5 19.3008C114.9 19.3008 115.2 19.3008 115.6 19.4008V20.0008C115.3 19.9008 114.9 19.9008 114.5 19.9008C113.6 19.9008 113.1 20.4008 113.1 21.3008C113.1 22.3008 113.6 22.8008 114.5 22.8008C114.9 22.8008 115.3 22.8008 115.6 22.7008V23.3008Z" fill="#CCCCCC"/>
<path d="M117.3 17.8008V18.5008H116.6V17.8008H117.3ZM117.3 19.3008V23.4008H116.6V19.3008H117.3Z" fill="#CCCCCC"/>
<path d="M118.6 17.8008H119.3V19.5008C119.6 19.4008 119.9 19.3008 120.3 19.3008C121.6 19.3008 122.2 20.0008 122.2 21.3008C122.2 22.7008 121.5 23.4008 120.2 23.4008C119.6 23.4008 119.1 23.3008 118.6 23.2008V17.8008ZM119.3 22.7008C119.5 22.8008 119.8 22.8008 120.2 22.8008C121.1 22.8008 121.6 22.3008 121.6 21.3008C121.6 20.4008 121.2 20.0008 120.4 20.0008C120 20.0008 119.7 20.1008 119.4 20.2008V22.7008H119.3Z" fill="#CCCCCC"/>
<path d="M123 21.3008C123 19.9008 123.6 19.3008 124.9 19.3008C126.2 19.3008 126.8 20.0008 126.8 21.3008C126.8 22.7008 126.2 23.3008 124.9 23.3008C123.6 23.4008 123 22.7008 123 21.3008ZM124.9 22.8008C125.7 22.8008 126.1 22.3008 126.1 21.3008C126.1 20.3008 125.7 19.9008 124.9 19.9008C124.1 19.9008 123.7 20.4008 123.7 21.3008C123.7 22.3008 124.1 22.8008 124.9 22.8008Z" fill="#CCCCCC"/>
<path d="M128.5 19.3008V20.0008H127.8V19.3008H128.5ZM128.5 22.7008V23.4008H127.8V22.7008H128.5Z" fill="#CCCCCC"/>
<path d="M95.7 31.0996V36.5996H95V31.0996H95.7Z" fill="#CCCCCC"/>
<path d="M97.1001 36.6V32.5H97.6001L97.7001 33C98.1001 32.7 98.5001 32.5 99.0001 32.5C99.6001 32.5 100 32.7 100.2 33.1C100.6 32.7 101.1 32.5 101.5 32.5C102.4 32.5 102.9 33 102.9 34V36.5H102.2V34C102.2 33.4 101.9 33.1 101.4 33.1C101 33.1 100.7 33.3 100.3 33.6V36.5H99.6001V34C99.6001 33.4 99.3001 33.1 98.8001 33.1C98.4001 33.1 98.0001 33.3 97.7001 33.6V36.5H97.1001V36.6Z" fill="#CCCCCC"/>
<path d="M104.1 32.7C104.6 32.6 105.2 32.5 105.8 32.5C107.1 32.5 107.8 33.1 107.8 34.4C107.8 35.8 107.1 36.5 105.8 36.5C105.5 36.5 105.2 36.4 104.9 36.3V38H104.2V32.7H104.1ZM104.8 35.8C105.1 35.9 105.4 36 105.7 36C106.5 36 107 35.5 107 34.5C107 33.6 106.6 33.2 105.7 33.2C105.3 33.2 105 33.2 104.8 33.3V35.8Z" fill="#CCCCCC"/>
<path d="M108.5 34.5996C108.5 33.1996 109.1 32.5996 110.4 32.5996C111.7 32.5996 112.3 33.2996 112.3 34.5996C112.3 35.9996 111.7 36.5996 110.4 36.5996C109.1 36.5996 108.5 35.8996 108.5 34.5996ZM110.4 35.9996C111.2 35.9996 111.6 35.4996 111.6 34.4996C111.6 33.4996 111.2 33.0996 110.4 33.0996C109.6 33.0996 109.2 33.5996 109.2 34.4996C109.2 35.4996 109.6 35.9996 110.4 35.9996Z" fill="#CCCCCC"/>
<path d="M113.3 36.6V32.5H113.8L114 33C114.4 32.7 114.8 32.5 115.3 32.5V33.1C114.8 33.1 114.4 33.3 114.1 33.6V36.6H113.3Z" fill="#CCCCCC"/>
<path d="M116 31.9004H116.4L116.6 32.6004H117.7V33.2004H116.7V35.5004C116.7 35.9004 116.9 36.1004 117.2 36.1004H117.7V36.7004H117C116.3 36.7004 116 36.3004 116 35.6004V31.9004Z" fill="#CCCCCC"/>
<path d="M120.2 32.5C121.4 32.5 121.9 33.1 121.9 34.2C121.9 34.4 121.9 34.5 121.9 34.7H119C119 35.5 119.5 35.9 120.5 35.9C121 35.9 121.4 35.8 121.7 35.7V36.3C121.3 36.4 120.9 36.5 120.4 36.5C119 36.5 118.3 35.8 118.3 34.4C118.4 33.2 119 32.5 120.2 32.5ZM119.1 34.2H121.3C121.3 33.5 120.9 33.1 120.3 33.1C119.5 33.1 119.1 33.5 119.1 34.2Z" fill="#CCCCCC"/>
<path d="M123.7 32.5V33.2H123V32.5H123.7ZM123.7 35.9V36.6H123V35.9H123.7Z" fill="#CCCCCC"/>
<path d="M99.8998 66.5L97.4998 72H96.6998L94.2998 66.5H95.0998L97.0998 71.3L99.0998 66.5H99.8998Z" fill="#CCCCCC"/>
<path d="M101.7 67.9004C102.9 67.9004 103.4 68.5004 103.4 69.6004C103.4 69.8004 103.4 69.9004 103.4 70.1004H100.5C100.5 70.9004 101 71.3004 102 71.3004C102.5 71.3004 102.9 71.2004 103.2 71.1004V71.7004C102.8 71.8004 102.4 71.9004 101.9 71.9004C100.5 71.9004 99.7998 71.2004 99.7998 69.8004C99.8998 68.6004 100.5 67.9004 101.7 67.9004ZM100.6 69.6004H102.8C102.8 68.9004 102.4 68.5004 101.8 68.5004C101 68.5004 100.6 68.9004 100.6 69.6004Z" fill="#CCCCCC"/>
<path d="M104.4 72.0004V67.9004H104.9L105 68.4004C105.4 68.1004 105.9 67.9004 106.4 67.9004C107.4 67.9004 107.9 68.4004 107.9 69.4004V72.0004H107.2V69.4004C107.2 68.8004 106.9 68.5004 106.3 68.5004C105.9 68.5004 105.5 68.7004 105.1 69.0004V72.0004H104.4Z" fill="#CCCCCC"/>
<path d="M112.1 71.9004C111.8 72.0004 111.4 72.0004 111 72.0004C109.6 72.0004 108.8 71.3004 108.8 69.9004C108.8 68.6004 109.5 67.9004 111 67.9004C111.4 67.9004 111.7 67.9004 112.1 68.0004V68.6004C111.8 68.5004 111.4 68.5004 111 68.5004C110.1 68.5004 109.6 69.0004 109.6 69.9004C109.6 70.9004 110.1 71.4004 111 71.4004C111.4 71.4004 111.8 71.4004 112.1 71.3004V71.9004Z" fill="#CCCCCC"/>
<path d="M113.8 66.5V67.2H113.1V66.5H113.8ZM113.8 67.9V72H113.1V67.9H113.8Z" fill="#CCCCCC"/>
<path d="M115.1 72.0004V67.9004H115.6L115.7 68.4004C116.1 68.1004 116.5 67.9004 117 67.9004C117.6 67.9004 118 68.1004 118.2 68.5004C118.6 68.1004 119.1 67.9004 119.5 67.9004C120.4 67.9004 120.9 68.4004 120.9 69.4004V72.0004H120.2V69.4004C120.2 68.8004 119.9 68.5004 119.4 68.5004C119 68.5004 118.7 68.7004 118.3 69.0004V72.0004H117.6V69.5004C117.6 68.9004 117.3 68.6004 116.8 68.6004C116.4 68.6004 116 68.8004 115.7 69.1004V72.0004H115.1Z" fill="#CCCCCC"/>
<path d="M122.8 66.5V67.2H122.1V66.5H122.8ZM122.8 67.9V72H122.1V67.9H122.8Z" fill="#CCCCCC"/>
<path d="M125.8 67.9004C127 67.9004 127.5 68.5004 127.5 69.6004C127.5 69.8004 127.5 69.9004 127.5 70.1004H124.6C124.6 70.9004 125.1 71.3004 126.1 71.3004C126.6 71.3004 127 71.2004 127.3 71.1004V71.7004C126.9 71.8004 126.5 71.9004 126 71.9004C124.6 71.9004 123.9 71.2004 123.9 69.8004C123.9 68.6004 124.5 67.9004 125.8 67.9004ZM124.6 69.6004H126.8C126.8 68.9004 126.4 68.5004 125.8 68.5004C125 68.5004 124.6 68.9004 124.6 69.6004Z" fill="#CCCCCC"/>
<path d="M128.4 72.0004V67.9004H128.9L129 68.4004C129.4 68.1004 129.9 67.9004 130.4 67.9004C131.4 67.9004 131.9 68.4004 131.9 69.4004V72.0004H131.2V69.4004C131.2 68.8004 130.9 68.5004 130.3 68.5004C129.9 68.5004 129.5 68.7004 129.1 69.0004V72.0004H128.4Z" fill="#CCCCCC"/>
<path d="M133.1 67.3008H133.5L133.7 68.0008H134.8V68.6008H133.8V70.9008C133.8 71.3008 134 71.5008 134.3 71.5008H134.8V72.0008H134.1C133.4 72.0008 133.1 71.6008 133.1 70.9008V67.3008Z" fill="#CCCCCC"/>
<path d="M135.5 70C135.5 68.6 136.1 68 137.4 68C138.7 68 139.3 68.7 139.3 70C139.3 71.4 138.7 72 137.4 72C136.2 72 135.5 71.3 135.5 70ZM137.5 71.4C138.3 71.4 138.7 70.9 138.7 69.9C138.7 68.9 138.3 68.5 137.5 68.5C136.7 68.5 136.3 69 136.3 69.9C136.2 70.9 136.6 71.4 137.5 71.4Z" fill="#CCCCCC"/>
<path d="M141.1 67.9004V68.6004H140.4V67.9004H141.1ZM141.1 71.3004V72.0004H140.4V71.3004H141.1Z" fill="#CCCCCC"/>
<path d="M144.4 72V67.2H143.8V66.9L145.1 66.5V72H144.4Z" fill="#858588"/>
<path d="M146.9 72V67.2H146.3V66.9L147.6 66.5V72H146.9Z" fill="#858588"/>
<path d="M151.2 72H150.5L152.8 66.5H153.6L156 72H155.2L154.5 70.3H152.7L152.9 69.7H154.3L153.3 67.2L151.2 72Z" fill="#858588"/>
<path d="M160 72.0004C160 73.0004 159.4 73.5004 158.1 73.5004C157.6 73.5004 157.2 73.4004 156.8 73.3004V72.7004C157.2 72.8004 157.6 72.9004 158.1 72.9004C158.9 72.9004 159.2 72.6004 159.2 72.0004V71.8004C158.9 71.9004 158.6 72.0004 158.2 72.0004C156.9 72.0004 156.3 71.3004 156.3 69.9004C156.3 68.6004 157 67.9004 158.3 67.9004C158.8 67.9004 159.4 68.0004 159.9 68.1004V72.0004H160ZM159.3 68.6004C159.1 68.5004 158.8 68.5004 158.4 68.5004C157.5 68.5004 157.1 69.0004 157.1 69.9004C157.1 70.9004 157.5 71.3004 158.3 71.3004C158.7 71.3004 159 71.2004 159.3 71.1004V68.6004Z" fill="#858588"/>
<path d="M161 70C161 68.6 161.6 68 162.9 68C164.2 68 164.8 68.7 164.8 70C164.8 71.4 164.2 72 162.9 72C161.6 72 161 71.3 161 70ZM162.9 71.4C163.7 71.4 164.1 70.9 164.1 69.9C164.1 68.9 163.7 68.5 162.9 68.5C162.1 68.5 161.7 69 161.7 69.9C161.7 70.9 162.1 71.4 162.9 71.4Z" fill="#858588"/>
<path d="M167.4 72.0004V71.4004C169.4 70.0004 170.5 68.9004 170.5 68.0004C170.5 67.3004 170.1 67.0004 169.2 67.0004C168.6 67.0004 168.1 67.1004 167.6 67.4004V66.8004C168.1 66.5004 168.6 66.4004 169.2 66.4004C170.6 66.4004 171.2 66.9004 171.2 68.0004C171.2 69.0004 170.3 70.1004 168.4 71.4004H171.2V72.0004H167.4Z" fill="#858588"/>
<path d="M172 69.2004C172 67.3004 172.8 66.4004 174.4 66.4004C176 66.4004 176.7 67.3004 176.7 69.2004C176.7 71.1004 175.9 72.0004 174.4 72.0004C172.8 72.0004 172 71.1004 172 69.2004ZM174.4 71.4004C175.5 71.4004 176 70.7004 176 69.2004C176 67.7004 175.5 67.0004 174.4 67.0004C173.3 67.0004 172.8 67.7004 172.8 69.2004C172.8 70.7004 173.3 71.4004 174.4 71.4004Z" fill="#858588"/>
<path d="M177.4 72.0004V71.4004C179.4 70.0004 180.5 68.9004 180.5 68.0004C180.5 67.3004 180.1 67.0004 179.2 67.0004C178.6 67.0004 178.1 67.1004 177.6 67.4004V66.8004C178.1 66.5004 178.6 66.4004 179.2 66.4004C180.6 66.4004 181.2 66.9004 181.2 68.0004C181.2 69.0004 180.3 70.1004 178.4 71.4004H181.2V72.0004H177.4Z" fill="#858588"/>
<path d="M181.8 72.0004V71.4004C183.8 70.0004 184.9 68.9004 184.9 68.0004C184.9 67.3004 184.5 67.0004 183.6 67.0004C183 67.0004 182.5 67.1004 182 67.4004V66.8004C182.5 66.5004 183 66.4004 183.6 66.4004C185 66.4004 185.6 66.9004 185.6 68.0004C185.6 69.0004 184.7 70.1004 182.8 71.4004H185.6V72.0004H181.8Z" fill="#858588"/>
<path d="M101.1 123.1C100.6 123.3 100.1 123.3 99.5 123.3C97.5 123.3 96.5 122.3 96.5 120.3C96.5 118.4 97.5 117.5 99.5 117.5C100.1 117.5 100.6 117.6 101.1 117.7V118.3C100.6 118.1 100.1 118 99.6 118C98 118 97.3 118.7 97.3 120.2C97.3 121.8 98.1 122.6 99.6 122.6C100.1 122.6 100.6 122.5 101.1 122.3V123.1Z" fill="#858588"/>
<path d="M102.1 121.2C102.1 119.8 102.8 119.1 104.1 119.1C105.4 119.1 106.1 119.8 106.1 121.2C106.1 122.6 105.4 123.3 104.1 123.3C102.7 123.3 102.1 122.6 102.1 121.2ZM104.1 122.7C104.9 122.7 105.4 122.2 105.4 121.2C105.4 120.2 105 119.7 104.1 119.7C103.3 119.7 102.8 120.2 102.8 121.2C102.8 122.2 103.2 122.7 104.1 122.7Z" fill="#858588"/>
<path d="M107.1 123.3V119.1H107.6L107.7 119.6C108.1 119.2 108.6 119.1 109.1 119.1C110.1 119.1 110.7 119.6 110.7 120.7V123.3H110V120.7C110 120.1 109.7 119.8 109.1 119.8C108.7 119.8 108.3 120 107.9 120.3V123.3H107.1Z" fill="#858588"/>
<path d="M111.8 123.3V118.9C111.8 117.9 112.4 117.4 113.5 117.4C113.8 117.4 114.1 117.5 114.4 117.6V118.2C114.1 118.1 113.8 118 113.5 118C112.8 118 112.5 118.3 112.5 118.9V119.1H113.8V119.7H112.5V123.3H111.8Z" fill="#858588"/>
<path d="M115.3 117.6V118.3H114.6V117.6H115.3ZM115.3 119.1V123.3H114.6V119.1H115.3Z" fill="#858588"/>
<path d="M116.6 123.3V119.1H117.1L117.2 119.6C117.6 119.2 118 119.1 118.5 119.1V119.7C118 119.7 117.6 119.9 117.3 120.2V123.2H116.6V123.3Z" fill="#858588"/>
<path d="M119.2 123.3V119.1H119.7L119.8 119.6C120.2 119.3 120.6 119.1 121.1 119.1C121.7 119.1 122.1 119.3 122.3 119.7C122.8 119.3 123.2 119.1 123.7 119.1C124.7 119.1 125.1 119.6 125.1 120.7V123.3H124.4V120.7C124.4 120.1 124.1 119.8 123.6 119.8C123.2 119.8 122.8 120 122.5 120.3V123.3H121.8V120.7C121.8 120.1 121.5 119.8 121 119.8C120.6 119.8 120.2 120 119.9 120.3V123.3H119.2Z" fill="#858588"/>
<path d="M126.2 122C126.2 121.1 126.8 120.7 127.9 120.7C128.3 120.7 128.6 120.7 129 120.8V120.4C129 119.9 128.6 119.7 127.9 119.7C127.5 119.7 127 119.8 126.6 119.9V119.3C127.1 119.2 127.5 119.1 127.9 119.1C129.1 119.1 129.8 119.5 129.8 120.4V123.3H129.4L129.1 122.9C128.7 123.2 128.2 123.3 127.7 123.3C126.7 123.3 126.2 122.8 126.2 122ZM127.9 121.3C127.3 121.3 126.9 121.5 126.9 122C126.9 122.5 127.2 122.7 127.7 122.7C128.2 122.7 128.6 122.6 129 122.3V121.4C128.6 121.3 128.3 121.3 127.9 121.3Z" fill="#858588"/>
<path d="M136.5 124.8H135.8V123.1C135.5 123.2 135.2 123.3 134.8 123.3C133.5 123.3 132.8 122.6 132.8 121.2C132.8 119.8 133.5 119.1 134.9 119.1C135.5 119.1 136 119.2 136.5 119.3V124.8ZM135.7 119.8C135.4 119.7 135.1 119.7 134.8 119.7C133.9 119.7 133.5 120.2 133.5 121.1C133.5 122.1 133.9 122.6 134.8 122.6C135.2 122.6 135.5 122.5 135.8 122.4V119.8H135.7Z" fill="#858588"/>
<path d="M141.2 119.1V123.3H140.7L140.6 122.8C140.1 123.2 139.6 123.3 139.1 123.3C138.1 123.3 137.7 122.8 137.7 121.7V119.1H138.4V121.7C138.4 122.3 138.7 122.6 139.3 122.6C139.7 122.6 140.1 122.4 140.5 122.1V119.1H141.2Z" fill="#858588"/>
<path d="M144.2 119.1C145.4 119.1 146 119.7 146 120.9C146 121.1 146 121.2 146 121.4H143C143 122.3 143.5 122.7 144.5 122.7C145 122.7 145.4 122.6 145.8 122.5V123.1C145.4 123.2 145 123.3 144.5 123.3C143.1 123.3 142.3 122.6 142.3 121.2C142.2 119.8 142.9 119.1 144.2 119.1ZM143 120.8H145.3C145.3 120.1 144.9 119.7 144.2 119.7C143.4 119.7 143 120 143 120.8Z" fill="#858588"/>
<path d="M149.7 117.6V123.3H149V117.6H149.7Z" fill="#858588"/>
<path d="M150.7 121.2C150.7 119.8 151.4 119.1 152.7 119.1C154 119.1 154.7 119.8 154.7 121.2C154.7 122.6 154 123.3 152.7 123.3C151.4 123.3 150.7 122.6 150.7 121.2ZM152.7 122.7C153.5 122.7 154 122.2 154 121.2C154 120.2 153.6 119.7 152.7 119.7C151.9 119.7 151.4 120.2 151.4 121.2C151.5 122.2 151.9 122.7 152.7 122.7Z" fill="#858588"/>
<path d="M155.7 123.1V122.5C156.2 122.7 156.7 122.7 157.2 122.7C157.9 122.7 158.2 122.5 158.2 122.1C158.2 121.7 158 121.5 157.5 121.5H156.9C156 121.5 155.5 121.1 155.5 120.3C155.5 119.5 156.1 119.1 157.2 119.1C157.7 119.1 158.2 119.2 158.7 119.3V119.9C158.2 119.7 157.7 119.7 157.2 119.7C156.5 119.7 156.2 119.9 156.2 120.3C156.2 120.7 156.4 120.9 156.9 120.9H157.5C158.5 120.9 158.9 121.3 158.9 122.1C158.9 122.9 158.3 123.3 157.2 123.3C156.7 123.3 156.2 123.2 155.7 123.1Z" fill="#858588"/>
<path d="M165.4 123C164.9 123.2 164.3 123.3 163.5 123.3C162.3 123.3 161.6 122.6 161.6 121.1C161.6 119.8 162.3 119.1 163.6 119.1C164 119.1 164.3 119.2 164.6 119.3V117.6H165.3V123H165.4ZM164.7 119.9C164.4 119.8 164.1 119.7 163.7 119.7C162.9 119.7 162.4 120.1 162.4 121C162.4 122.1 162.8 122.6 163.7 122.6C164.1 122.6 164.4 122.5 164.7 122.4V119.9Z" fill="#858588"/>
<path d="M166.4 122C166.4 121.1 167 120.7 168.1 120.7C168.5 120.7 168.8 120.7 169.2 120.8V120.4C169.2 119.9 168.8 119.7 168.1 119.7C167.7 119.7 167.2 119.8 166.8 119.9V119.3C167.3 119.2 167.7 119.1 168.1 119.1C169.3 119.1 170 119.5 170 120.4V123.3H169.6L169.3 122.9C168.9 123.2 168.4 123.3 167.9 123.3C166.9 123.3 166.4 122.8 166.4 122ZM168.1 121.3C167.5 121.3 167.1 121.5 167.1 122C167.1 122.5 167.4 122.7 167.9 122.7C168.4 122.7 168.8 122.6 169.2 122.3V121.4C168.8 121.3 168.5 121.3 168.1 121.3Z" fill="#858588"/>
<path d="M171.1 118.4H171.6L171.8 119.1H172.9V119.7H171.9V122.1C171.9 122.5 172.1 122.7 172.4 122.7H172.9V123.3H172.2C171.5 123.3 171.2 122.9 171.2 122.2V118.4H171.1Z" fill="#858588"/>
<path d="M173.6 121.2C173.6 119.8 174.3 119.1 175.6 119.1C176.9 119.1 177.6 119.8 177.6 121.2C177.6 122.6 176.9 123.3 175.6 123.3C174.3 123.3 173.6 122.6 173.6 121.2ZM175.6 122.7C176.4 122.7 176.9 122.2 176.9 121.2C176.9 120.2 176.5 119.7 175.6 119.7C174.8 119.7 174.3 120.2 174.3 121.2C174.3 122.2 174.8 122.7 175.6 122.7Z" fill="#858588"/>
<path d="M178.5 123.1V122.5C179 122.7 179.5 122.7 180 122.7C180.7 122.7 181 122.5 181 122.1C181 121.7 180.8 121.5 180.3 121.5H179.7C178.8 121.5 178.3 121.1 178.3 120.3C178.3 119.5 178.9 119.1 180 119.1C180.5 119.1 181 119.2 181.5 119.3V119.9C181 119.7 180.5 119.7 180 119.7C179.3 119.7 179 119.9 179 120.3C179 120.7 179.2 120.9 179.7 120.9H180.3C181.3 120.9 181.7 121.3 181.7 122.1C181.7 122.9 181.1 123.3 180 123.3C179.5 123.3 179 123.2 178.5 123.1Z" fill="#858588"/>
<path d="M185.6 117.6V118.3H184.9V117.6H185.6ZM185.6 119.1V123.3H184.9V119.1H185.6Z" fill="#858588"/>
<path d="M186.8 123.3V119.1H187.3L187.4 119.6C187.8 119.2 188.3 119.1 188.8 119.1C189.8 119.1 190.4 119.6 190.4 120.7V123.3H189.7V120.7C189.7 120.1 189.4 119.8 188.8 119.8C188.4 119.8 188 120 187.6 120.3V123.3H186.8Z" fill="#858588"/>
<path d="M195.1 123.3C195.1 124.3 194.5 124.8 193.2 124.8C192.7 124.8 192.2 124.7 191.8 124.6V124C192.2 124.1 192.7 124.2 193.2 124.2C194 124.2 194.4 123.9 194.4 123.3V123.1C194.1 123.2 193.8 123.3 193.4 123.3C192.1 123.3 191.4 122.6 191.4 121.2C191.4 119.8 192.1 119.1 193.5 119.1C194.1 119.1 194.6 119.2 195.1 119.3V123.3ZM194.4 119.8C194.1 119.7 193.8 119.7 193.5 119.7C192.6 119.7 192.2 120.2 192.2 121.1C192.2 122.1 192.6 122.6 193.5 122.6C193.9 122.6 194.2 122.5 194.5 122.4V119.8H194.4Z" fill="#858588"/>
<path d="M196.3 123.3V119.1H196.8L196.9 119.6C197.3 119.2 197.7 119.1 198.2 119.1V119.7C197.7 119.7 197.3 119.9 197 120.2V123.2H196.3V123.3Z" fill="#858588"/>
<path d="M200.7 119.1C201.9 119.1 202.5 119.7 202.5 120.9C202.5 121.1 202.5 121.2 202.5 121.4H199.6C199.6 122.3 200.1 122.7 201.1 122.7C201.6 122.7 202 122.6 202.4 122.5V123.1C202 123.2 201.6 123.3 201.1 123.3C199.7 123.3 198.9 122.6 198.9 121.2C198.8 119.8 199.5 119.1 200.7 119.1ZM199.6 120.8H201.9C201.9 120.1 201.5 119.7 200.8 119.7C200 119.7 199.6 120 199.6 120.8Z" fill="#858588"/>
<path d="M203.5 123.1V122.5C204 122.7 204.5 122.7 205 122.7C205.7 122.7 206 122.5 206 122.1C206 121.7 205.8 121.5 205.3 121.5H204.7C203.8 121.5 203.3 121.1 203.3 120.3C203.3 119.5 203.9 119.1 205 119.1C205.5 119.1 206 119.2 206.5 119.3V119.9C206 119.7 205.5 119.7 205 119.7C204.3 119.7 204 119.9 204 120.3C204 120.7 204.2 120.9 204.7 120.9H205.3C206.3 120.9 206.7 121.3 206.7 122.1C206.7 122.9 206.1 123.3 205 123.3C204.5 123.3 204 123.2 203.5 123.1Z" fill="#858588"/>
<path d="M207.5 122C207.5 121.1 208.1 120.7 209.2 120.7C209.6 120.7 209.9 120.7 210.3 120.8V120.4C210.3 119.9 209.9 119.7 209.2 119.7C208.8 119.7 208.3 119.8 207.9 119.9V119.3C208.4 119.2 208.8 119.1 209.2 119.1C210.4 119.1 211.1 119.5 211.1 120.4V123.3H210.7L210.4 122.9C210 123.2 209.5 123.3 209 123.3C208 123.3 207.5 122.8 207.5 122ZM209.2 121.3C208.6 121.3 208.2 121.5 208.2 122C208.2 122.5 208.5 122.7 209 122.7C209.5 122.7 209.9 122.6 210.3 122.3V121.4C209.9 121.3 209.6 121.3 209.2 121.3Z" fill="#858588"/>
<path d="M215.7 123C215.2 123.2 214.6 123.3 213.8 123.3C212.6 123.3 211.9 122.6 211.9 121.1C211.9 119.8 212.6 119.1 213.9 119.1C214.3 119.1 214.6 119.2 214.9 119.3V117.6H215.6V123H215.7ZM215 119.9C214.7 119.8 214.4 119.7 214 119.7C213.2 119.7 212.7 120.1 212.7 121C212.7 122.1 213.1 122.6 214 122.6C214.4 122.6 214.7 122.5 215 122.4V119.9Z" fill="#858588"/>
<path d="M216.7 121.2C216.7 119.8 217.4 119.1 218.7 119.1C220 119.1 220.7 119.8 220.7 121.2C220.7 122.6 220 123.3 218.7 123.3C217.4 123.3 216.7 122.6 216.7 121.2ZM218.7 122.7C219.5 122.7 220 122.2 220 121.2C220 120.2 219.6 119.7 218.7 119.7C217.9 119.7 217.4 120.2 217.4 121.2C217.5 122.2 217.9 122.7 218.7 122.7Z" fill="#858588"/>
<path d="M221.7 123.1V122.5C222.2 122.7 222.7 122.7 223.2 122.7C223.9 122.7 224.2 122.5 224.2 122.1C224.2 121.7 224 121.5 223.5 121.5H222.9C222 121.5 221.5 121.1 221.5 120.3C221.5 119.5 222.1 119.1 223.2 119.1C223.7 119.1 224.2 119.2 224.7 119.3V119.9C224.2 119.7 223.7 119.7 223.2 119.7C222.5 119.7 222.2 119.9 222.2 120.3C222.2 120.7 222.4 120.9 222.9 120.9H223.5C224.5 120.9 224.9 121.3 224.9 122.1C224.9 122.9 224.3 123.3 223.2 123.3C222.7 123.3 222.2 123.2 221.7 123.1Z" fill="#858588"/>
<path d="M227.8 123.1V122.5C228.3 122.7 228.8 122.7 229.3 122.7C230 122.7 230.3 122.5 230.3 122.1C230.3 121.7 230.1 121.5 229.6 121.5H229C228.1 121.5 227.6 121.1 227.6 120.3C227.6 119.5 228.2 119.1 229.3 119.1C229.8 119.1 230.3 119.2 230.8 119.3V119.9C230.3 119.7 229.8 119.7 229.3 119.7C228.6 119.7 228.3 119.9 228.3 120.3C228.3 120.7 228.5 120.9 229 120.9H229.6C230.6 120.9 231 121.3 231 122.1C231 122.9 230.4 123.3 229.3 123.3C228.8 123.3 228.3 123.2 227.8 123.1Z" fill="#858588"/>
<path d="M231.9 121.2C231.9 119.8 232.6 119.1 233.9 119.1C235.2 119.1 235.9 119.8 235.9 121.2C235.9 122.6 235.2 123.3 233.9 123.3C232.5 123.3 231.9 122.6 231.9 121.2ZM233.8 122.7C234.6 122.7 235.1 122.2 235.1 121.2C235.1 120.2 234.7 119.7 233.8 119.7C233 119.7 232.5 120.2 232.5 121.2C232.6 122.2 233 122.7 233.8 122.7Z" fill="#858588"/>
<path d="M236.8 123.3V119.1H237.3L237.4 119.6C237.8 119.2 238.3 119.1 238.8 119.1C239.8 119.1 240.4 119.6 240.4 120.7V123.3H239.7V120.7C239.7 120.1 239.4 119.8 238.8 119.8C238.4 119.8 238 120 237.6 120.3V123.3H236.8Z" fill="#858588"/>
<path d="M246.8 123.1C246.5 123.2 246.1 123.2 245.7 123.2C244.2 123.2 243.5 122.5 243.5 121C243.5 119.7 244.2 119 245.7 119C246.1 119 246.5 119 246.8 119.1V119.7C246.5 119.6 246.1 119.6 245.6 119.6C244.6 119.6 244.1 120.1 244.1 121C244.1 122 244.6 122.6 245.6 122.6C246 122.6 246.4 122.6 246.8 122.5V123.1Z" fill="#858588"/>
<path d="M247.5 121.2C247.5 119.8 248.2 119.1 249.5 119.1C250.8 119.1 251.5 119.8 251.5 121.2C251.5 122.6 250.8 123.3 249.5 123.3C248.2 123.3 247.5 122.6 247.5 121.2ZM249.5 122.7C250.3 122.7 250.8 122.2 250.8 121.2C250.8 120.2 250.4 119.7 249.5 119.7C248.7 119.7 248.2 120.2 248.2 121.2C248.2 122.2 248.6 122.7 249.5 122.7Z" fill="#858588"/>
<path d="M252.5 123.3V119.1H253L253.1 119.6C253.5 119.2 253.9 119.1 254.4 119.1V119.7C253.9 119.7 253.5 119.9 253.2 120.2V123.2H252.5V123.3Z" fill="#858588"/>
<path d="M255.1 123.3V119.1H255.6L255.7 119.6C256.1 119.2 256.5 119.1 257 119.1V119.7C256.5 119.7 256.1 119.9 255.8 120.2V123.2H255.1V123.3Z" fill="#858588"/>
<path d="M259.5 119.1C260.7 119.1 261.3 119.7 261.3 120.9C261.3 121.1 261.3 121.2 261.3 121.4H258.4C258.4 122.3 258.9 122.7 259.9 122.7C260.4 122.7 260.8 122.6 261.2 122.5V123.1C260.8 123.2 260.4 123.3 259.9 123.3C258.5 123.3 257.7 122.6 257.7 121.2C257.6 119.8 258.3 119.1 259.5 119.1ZM258.4 120.8H260.7C260.7 120.1 260.3 119.7 259.6 119.7C258.8 119.7 258.4 120 258.4 120.8Z" fill="#858588"/>
<path d="M265.5 123.1C265.2 123.2 264.8 123.2 264.4 123.2C262.9 123.2 262.2 122.5 262.2 121C262.2 119.7 262.9 119 264.4 119C264.8 119 265.2 119 265.5 119.1V119.7C265.2 119.6 264.8 119.6 264.3 119.6C263.3 119.6 262.8 120.1 262.8 121C262.8 122 263.3 122.6 264.3 122.6C264.7 122.6 265.1 122.6 265.5 122.5V123.1Z" fill="#858588"/>
<path d="M266.4 118.4H266.9L267.1 119.1H268.2V119.7H267.2V122.1C267.2 122.5 267.4 122.7 267.7 122.7H268.2V123.3H267.5C266.8 123.3 266.5 122.9 266.5 122.2V118.4H266.4Z" fill="#858588"/>
<path d="M268.9 121.2C268.9 119.8 269.6 119.1 270.9 119.1C272.2 119.1 272.9 119.8 272.9 121.2C272.9 122.6 272.2 123.3 270.9 123.3C269.6 123.3 268.9 122.6 268.9 121.2ZM270.9 122.7C271.7 122.7 272.2 122.2 272.2 121.2C272.2 120.2 271.8 119.7 270.9 119.7C270.1 119.7 269.6 120.2 269.6 121.2C269.6 122.2 270 122.7 270.9 122.7Z" fill="#858588"/>
<path d="M273.8 123.1V122.5C274.3 122.7 274.8 122.7 275.3 122.7C276 122.7 276.3 122.5 276.3 122.1C276.3 121.7 276.1 121.5 275.6 121.5H275C274.1 121.5 273.6 121.1 273.6 120.3C273.6 119.5 274.2 119.1 275.3 119.1C275.8 119.1 276.3 119.2 276.8 119.3V119.9C276.3 119.7 275.8 119.7 275.3 119.7C274.6 119.7 274.3 119.9 274.3 120.3C274.3 120.7 274.5 120.9 275 120.9H275.6C276.6 120.9 277 121.3 277 122.1C277 122.9 276.4 123.3 275.3 123.3C274.8 123.3 274.3 123.2 273.8 123.1Z" fill="#858588"/>
<path d="M96.6001 131.8C96.6001 130.9 97.2001 130.5 98.3001 130.5C98.7001 130.5 99.0001 130.5 99.4001 130.6V130.2C99.4001 129.7 99.0001 129.5 98.3001 129.5C97.9001 129.5 97.4001 129.6 97.0001 129.7V129.1C97.5001 129 97.9001 128.9 98.3001 128.9C99.5001 128.9 100.2 129.3 100.2 130.2V133.1H99.8001L99.5001 132.7C99.1001 133 98.6001 133.1 98.1001 133.1C97.1001 133 96.6001 132.6 96.6001 131.8ZM98.3001 131.1C97.7001 131.1 97.3001 131.3 97.3001 131.8C97.3001 132.3 97.6001 132.5 98.1001 132.5C98.6001 132.5 99.0001 132.4 99.4001 132.1V131.2C99.0001 131.1 98.6001 131.1 98.3001 131.1Z" fill="#858588"/>
<path d="M101.3 133.001V128.801H101.8L101.9 129.301C102.3 128.901 102.8 128.801 103.3 128.801C104.3 128.801 104.9 129.301 104.9 130.401V133.001H104.2V130.401C104.2 129.801 103.9 129.501 103.3 129.501C102.9 129.501 102.5 129.701 102.1 130.001V133.001H101.3Z" fill="#858588"/>
<path d="M106.1 128.201H106.6L106.8 128.901H107.9V129.501H106.9V131.901C106.9 132.301 107.1 132.501 107.4 132.501H107.9V133.101H107.2C106.5 133.101 106.2 132.701 106.2 132.001V128.201H106.1Z" fill="#858588"/>
<path d="M110.5 128.9C111.7 128.9 112.3 129.5 112.3 130.7C112.3 130.9 112.3 131 112.3 131.2H109.4C109.4 132.1 109.9 132.5 110.9 132.5C111.4 132.5 111.8 132.4 112.2 132.3V132.9C111.8 133 111.4 133.1 110.9 133.1C109.5 133.1 108.7 132.4 108.7 131C108.6 129.5 109.2 128.9 110.5 128.9ZM109.3 130.5H111.6C111.6 129.8 111.2 129.4 110.5 129.4C109.7 129.4 109.3 129.8 109.3 130.5Z" fill="#858588"/>
<path d="M113.2 132.801V132.201C113.7 132.401 114.2 132.401 114.7 132.401C115.4 132.401 115.7 132.201 115.7 131.801C115.7 131.401 115.5 131.201 115 131.201H114.4C113.5 131.201 113 130.801 113 130.001C113 129.201 113.6 128.801 114.7 128.801C115.2 128.801 115.7 128.901 116.2 129.001V129.601C115.7 129.401 115.2 129.401 114.7 129.401C114 129.401 113.7 129.601 113.7 130.001C113.7 130.401 113.9 130.601 114.4 130.601H115C116 130.601 116.4 131.001 116.4 131.801C116.4 132.601 115.8 133.001 114.7 133.001C114.2 133.001 113.7 133.001 113.2 132.801Z" fill="#858588"/>
<path d="M123 132.8C122.5 133 121.9 133.1 121.1 133.1C119.9 133.1 119.2 132.4 119.2 130.9C119.2 129.6 119.9 128.9 121.2 128.9C121.6 128.9 121.9 129 122.2 129.1V127.4H122.9V132.8H123ZM122.2 129.7C121.9 129.6 121.6 129.5 121.2 129.5C120.4 129.5 119.9 129.9 119.9 130.8C119.9 131.9 120.3 132.4 121.2 132.4C121.6 132.4 121.9 132.3 122.2 132.2V129.7Z" fill="#858588"/>
<path d="M125.9 128.9C127.1 128.9 127.7 129.5 127.7 130.7C127.7 130.9 127.7 131 127.7 131.2H124.8C124.8 132.1 125.3 132.5 126.3 132.5C126.8 132.5 127.2 132.4 127.6 132.3V132.9C127.2 133 126.8 133.1 126.3 133.1C124.9 133.1 124.1 132.4 124.1 131C124 129.5 124.6 128.9 125.9 128.9ZM124.7 130.5H127C127 129.8 126.6 129.4 125.9 129.4C125.1 129.4 124.7 129.8 124.7 130.5Z" fill="#858588"/>
<path d="M131.5 127.301V128.001H130.8V127.301H131.5ZM131.5 128.901V133.101H130.8V128.901H131.5Z" fill="#858588"/>
<path d="M132.7 133.001V128.801H133.2L133.3 129.301C133.7 128.901 134.2 128.801 134.7 128.801C135.7 128.801 136.3 129.301 136.3 130.401V133.001H135.6V130.401C135.6 129.801 135.3 129.501 134.7 129.501C134.3 129.501 133.9 129.701 133.5 130.001V133.001H132.7Z" fill="#858588"/>
<path d="M141 133.001C141 134.001 140.4 134.501 139.1 134.501C138.6 134.501 138.1 134.401 137.7 134.301V133.701C138.1 133.801 138.6 133.901 139.1 133.901C139.9 133.901 140.3 133.601 140.3 133.001V132.801C140 132.901 139.7 133.001 139.3 133.001C138 133.001 137.3 132.301 137.3 130.901C137.3 129.501 138 128.801 139.4 128.801C140 128.801 140.5 128.901 141 129.001V133.001ZM140.3 129.601C140 129.501 139.7 129.501 139.4 129.501C138.5 129.501 138.1 130.001 138.1 130.901C138.1 131.901 138.5 132.401 139.4 132.401C139.8 132.401 140.1 132.301 140.4 132.201V129.601H140.3Z" fill="#858588"/>
<path d="M142.2 133.001V128.801H142.7L142.8 129.301C143.2 128.901 143.6 128.801 144.1 128.801V129.401C143.6 129.401 143.2 129.601 142.9 129.901V132.901H142.2V133.001Z" fill="#858588"/>
<path d="M146.6 128.9C147.8 128.9 148.4 129.5 148.4 130.7C148.4 130.9 148.4 131 148.4 131.2H145.5C145.5 132.1 146 132.5 147 132.5C147.5 132.5 147.9 132.4 148.3 132.3V132.9C147.9 133 147.5 133.1 147 133.1C145.6 133.1 144.8 132.4 144.8 131C144.7 129.5 145.4 128.9 146.6 128.9ZM145.5 130.5H147.8C147.8 129.8 147.4 129.4 146.7 129.4C145.9 129.4 145.5 129.8 145.5 130.5Z" fill="#858588"/>
<path d="M149.4 132.801V132.201C149.9 132.401 150.4 132.401 150.9 132.401C151.6 132.401 151.9 132.201 151.9 131.801C151.9 131.401 151.7 131.201 151.2 131.201H150.6C149.7 131.201 149.2 130.801 149.2 130.001C149.2 129.201 149.8 128.801 150.9 128.801C151.4 128.801 151.9 128.901 152.4 129.001V129.601C151.9 129.401 151.4 129.401 150.9 129.401C150.2 129.401 149.9 129.601 149.9 130.001C149.9 130.401 150.1 130.601 150.6 130.601H151.2C152.2 130.601 152.6 131.001 152.6 131.801C152.6 132.601 152 133.001 150.9 133.001C150.4 133.001 149.9 133.001 149.4 132.801Z" fill="#858588"/>
<path d="M153.4 131.8C153.4 130.9 154 130.5 155.1 130.5C155.5 130.5 155.8 130.5 156.2 130.6V130.2C156.2 129.7 155.8 129.5 155.1 129.5C154.7 129.5 154.2 129.6 153.8 129.7V129.1C154.3 129 154.7 128.9 155.1 128.9C156.3 128.9 157 129.3 157 130.2V133.1H156.6L156.3 132.7C155.9 133 155.4 133.1 154.9 133.1C153.9 133 153.4 132.6 153.4 131.8ZM155.1 131.1C154.5 131.1 154.1 131.3 154.1 131.8C154.1 132.3 154.4 132.5 154.9 132.5C155.4 132.5 155.8 132.4 156.2 132.1V131.2C155.8 131.1 155.5 131.1 155.1 131.1Z" fill="#858588"/>
<path d="M158.1 133.001V128.801H158.6L158.7 129.301C159.1 128.901 159.5 128.801 160 128.801V129.401C159.5 129.401 159.1 129.601 158.8 129.901V132.901H158.1V133.001Z" fill="#858588"/>
<path d="M162.8 128.201H163.3L163.5 128.901H164.6V129.501H163.6V131.901C163.6 132.301 163.8 132.501 164.1 132.501H164.6V133.101H163.9C163.2 133.101 162.9 132.701 162.9 132.001V128.201H162.8Z" fill="#858588"/>
<path d="M169.1 128.9V133.1H168.6L168.5 132.6C168 133 167.5 133.1 167 133.1C166 133.1 165.6 132.6 165.6 131.5V128.9H166.3V131.5C166.3 132.1 166.6 132.4 167.2 132.4C167.6 132.4 168 132.2 168.4 131.9V128.9H169.1Z" fill="#858588"/>
<path d="M176.6 132.801C176.1 133.001 175.6 133.001 175 133.001C173 133.001 172 132.001 172 130.001C172 128.101 173 127.201 175 127.201C175.6 127.201 176.1 127.301 176.6 127.401V128.001C176.1 127.801 175.6 127.701 175.1 127.701C173.5 127.701 172.8 128.401 172.8 129.901C172.8 131.501 173.6 132.301 175.1 132.301C175.6 132.301 176.1 132.201 176.6 132.001V132.801Z" fill="#858588"/>
<path d="M178.5 127.301V133.001H177.8V127.301H178.5Z" fill="#858588"/>
<path d="M179.6 131.8C179.6 130.9 180.2 130.5 181.3 130.5C181.7 130.5 182 130.5 182.4 130.6V130.2C182.4 129.7 182 129.5 181.3 129.5C180.9 129.5 180.4 129.6 180 129.7V129.1C180.5 129 180.9 128.9 181.3 128.9C182.5 128.9 183.2 129.3 183.2 130.2V133.1H182.8L182.5 132.7C182.1 133 181.6 133.1 181.1 133.1C180.1 133 179.6 132.6 179.6 131.8ZM181.3 131.1C180.7 131.1 180.3 131.3 180.3 131.8C180.3 132.3 180.6 132.5 181.1 132.5C181.6 132.5 182 132.4 182.4 132.1V131.2C182 131.1 181.6 131.1 181.3 131.1Z" fill="#858588"/>
<path d="M183.7 128.9H184.5L185.7 132.2L186.9 128.9H187.7L186 133H185.3L183.7 128.9Z" fill="#858588"/>
<path d="M190 128.9C191.2 128.9 191.8 129.5 191.8 130.7C191.8 130.9 191.8 131 191.8 131.2H188.9C188.9 132.1 189.4 132.5 190.4 132.5C190.9 132.5 191.3 132.4 191.7 132.3V132.9C191.3 133 190.9 133.1 190.4 133.1C189 133.1 188.2 132.4 188.2 131C188.1 129.5 188.7 128.9 190 128.9ZM188.8 130.5H191.1C191.1 129.8 190.7 129.4 190 129.4C189.2 129.4 188.8 129.8 188.8 130.5Z" fill="#858588"/>
<path d="M194.8 133.001V127.301H196.9C198.8 127.301 199.7 128.201 199.7 130.001C199.7 132.001 198.8 133.001 196.9 133.001H194.8ZM196.9 132.401C198.3 132.401 199 131.601 199 130.001C199 128.601 198.3 127.901 196.9 127.901H195.6V132.401H196.9Z" fill="#858588"/>
<path d="M201.5 127.301V128.001H200.8V127.301H201.5ZM201.5 128.901V133.101H200.8V128.901H201.5Z" fill="#858588"/>
<path d="M206.3 133.001C206.3 134.001 205.7 134.501 204.4 134.501C203.9 134.501 203.4 134.401 203 134.301V133.701C203.4 133.801 203.9 133.901 204.4 133.901C205.2 133.901 205.6 133.601 205.6 133.001V132.801C205.3 132.901 205 133.001 204.6 133.001C203.3 133.001 202.6 132.301 202.6 130.901C202.6 129.501 203.3 128.801 204.7 128.801C205.3 128.801 205.8 128.901 206.3 129.001V133.001ZM205.6 129.601C205.3 129.501 205 129.501 204.7 129.501C203.8 129.501 203.4 130.001 203.4 130.901C203.4 131.901 203.8 132.401 204.7 132.401C205.1 132.401 205.4 132.301 205.7 132.201V129.601H205.6Z" fill="#858588"/>
<path d="M208.3 127.301V128.001H207.6V127.301H208.3ZM208.3 128.901V133.101H207.6V128.901H208.3Z" fill="#858588"/>
<path d="M209.6 128.201H210.1L210.3 128.901H211.4V129.501H210.4V131.901C210.4 132.301 210.6 132.501 210.9 132.501H211.4V133.101H210.7C210 133.101 209.7 132.701 209.7 132.001V128.201H209.6Z" fill="#858588"/>
<path d="M212.1 131.8C212.1 130.9 212.7 130.5 213.8 130.5C214.2 130.5 214.5 130.5 214.9 130.6V130.2C214.9 129.7 214.5 129.5 213.8 129.5C213.4 129.5 212.9 129.6 212.5 129.7V129.1C213 129 213.4 128.9 213.8 128.9C215 128.9 215.7 129.3 215.7 130.2V133.1H215.3L215 132.7C214.6 133 214.1 133.1 213.6 133.1C212.6 133 212.1 132.6 212.1 131.8ZM213.8 131.1C213.2 131.1 212.8 131.3 212.8 131.8C212.8 132.3 213.1 132.5 213.6 132.5C214.1 132.5 214.5 132.4 214.9 132.1V131.2C214.5 131.1 214.1 131.1 213.8 131.1Z" fill="#858588"/>
<path d="M217.6 127.301V133.001H216.9V127.301H217.6Z" fill="#858588"/>
<path d="M224.7 127.301V127.901H222.9V133.001H222.2V127.901H220.4V127.301H224.7Z" fill="#858588"/>
<path d="M224.7 130.901C224.7 129.501 225.4 128.801 226.7 128.801C228 128.801 228.7 129.501 228.7 130.901C228.7 132.301 228 133.001 226.7 133.001C225.4 133.001 224.7 132.301 224.7 130.901ZM226.7 132.401C227.5 132.401 228 131.901 228 130.901C228 129.901 227.6 129.401 226.7 129.401C225.9 129.401 225.4 129.901 225.4 130.901C225.4 131.901 225.9 132.401 226.7 132.401Z" fill="#858588"/>
<path d="M229.7 133.001V127.301H230.4V129.101C230.8 128.901 231.3 128.801 231.8 128.801C232.8 128.801 233.4 129.201 233.4 130.001C233.4 130.601 233 131.001 232.2 131.201L233.5 133.001H232.6L231.3 131.201V130.901C232.2 130.801 232.7 130.501 232.7 130.001C232.7 129.601 232.4 129.401 231.8 129.401C231.3 129.401 230.9 129.501 230.4 129.801V133.001H229.7Z" fill="#858588"/>
<path d="M236.1 128.9C237.3 128.9 237.9 129.5 237.9 130.7C237.9 130.9 237.9 131 237.9 131.2H235C235 132.1 235.5 132.5 236.5 132.5C237 132.5 237.4 132.4 237.8 132.3V132.9C237.4 133 237 133.1 236.5 133.1C235.1 133.1 234.3 132.4 234.3 131C234.2 129.5 234.8 128.9 236.1 128.9ZM234.9 130.5H237.2C237.2 129.8 236.8 129.4 236.1 129.4C235.4 129.4 235 129.8 234.9 130.5Z" fill="#858588"/>
<path d="M238.9 133.001V128.801H239.4L239.5 129.301C239.9 128.901 240.4 128.801 240.9 128.801C241.9 128.801 242.5 129.301 242.5 130.401V133.001H241.8V130.401C241.8 129.801 241.5 129.501 240.9 129.501C240.5 129.501 240.1 129.701 239.7 130.001V133.001H238.9Z" fill="#858588"/>
<path d="M244.2 132.301V133.001H243.5V132.301H244.2Z" fill="#858588"/>
<path d="M247.4 72V66.5H248.3L250.3 71.1L252.3 66.5H253.2V72H252.6V67.5L250.6 72H250L248 67.5V72H247.4Z" fill="#CCCCCC"/>
<path d="M254.3 69.9004C254.3 68.5004 254.9 67.9004 256.2 67.9004C257.5 67.9004 258.1 68.6004 258.1 69.9004C258.1 71.3004 257.5 71.9004 256.2 71.9004C254.9 72.0004 254.3 71.3004 254.3 69.9004ZM256.2 71.4004C257 71.4004 257.4 70.9004 257.4 69.9004C257.4 68.9004 257 68.5004 256.2 68.5004C255.4 68.5004 255 69.0004 255 69.9004C255 70.9004 255.4 71.4004 256.2 71.4004Z" fill="#CCCCCC"/>
<path d="M259.1 72.0004V67.9004H259.6L259.7 68.4004C260.1 68.1004 260.5 67.9004 261 67.9004V68.5004C260.5 68.5004 260.1 68.7004 259.8 69.0004V72.0004H259.1Z" fill="#CCCCCC"/>
<path d="M261.5 70.8004C261.5 70.0004 262 69.5004 263.1 69.5004C263.5 69.5004 263.8 69.5004 264.2 69.6004V69.2004C264.2 68.7004 263.8 68.5004 263.1 68.5004C262.7 68.5004 262.3 68.6004 261.8 68.7004V68.1004C262.2 68.0004 262.7 67.9004 263.1 67.9004C264.3 67.9004 264.9 68.3004 264.9 69.2004V72.0004H264.5L264.3 71.6004C263.9 71.9004 263.5 72.0004 263 72.0004C262 72.0004 261.5 71.6004 261.5 70.8004ZM263.2 70.1004C262.6 70.1004 262.3 70.3004 262.3 70.8004C262.3 71.2004 262.5 71.5004 263 71.5004C263.5 71.5004 263.9 71.4004 264.3 71.1004V70.3004C263.9 70.1004 263.5 70.1004 263.2 70.1004Z" fill="#CCCCCC"/>
<path d="M266.8 67.9004V68.6004H266.1V67.9004H266.8ZM266.8 71.3004V72.0004H266.1V71.3004H266.8Z" fill="#CCCCCC"/>
<path d="M269.7 71.8004V71.1004C270.3 71.3004 270.9 71.4004 271.6 71.4004C272.6 71.4004 273 71.1004 273 70.4004C273 69.8004 272.6 69.5004 271.9 69.5004H271.2C270 69.5004 269.5 69.0004 269.5 68.0004C269.5 66.9004 270.2 66.4004 271.7 66.4004C272.3 66.4004 272.9 66.5004 273.5 66.6004V67.3004C272.9 67.1004 272.3 67.0004 271.7 67.0004C270.7 67.0004 270.2 67.3004 270.2 68.0004C270.2 68.6004 270.5 68.9004 271.2 68.9004H271.9C273.1 68.9004 273.7 69.4004 273.7 70.4004C273.7 71.5004 273 72.0004 271.6 72.0004C270.9 72.0004 270.3 71.9004 269.7 71.8004Z" fill="#858588"/>
<path d="M275 72H274.2L277 66.5H277.8L275 72Z" fill="#858588"/>
<path d="M280.3 69.2004C280.3 67.3004 281.1 66.4004 282.7 66.4004C284.3 66.4004 285.1 67.3004 285.1 69.2004C285.1 71.1004 284.3 72.0004 282.7 72.0004C281.1 72.0004 280.3 71.1004 280.3 69.2004ZM282.7 71.4004C283.8 71.4004 284.3 70.7004 284.3 69.2004C284.3 67.7004 283.8 67.0004 282.7 67.0004C281.6 67.0004 281.1 67.7004 281.1 69.2004C281 70.7004 281.6 71.4004 282.7 71.4004Z" fill="#858588"/>
<path d="M286.6 71.3008V72.0008H285.9V71.3008H286.6Z" fill="#858588"/>
<path d="M287.4 69.2004C287.4 67.3004 288.2 66.4004 289.8 66.4004C291.4 66.4004 292.2 67.3004 292.2 69.2004C292.2 71.1004 291.4 72.0004 289.8 72.0004C288.2 72.0004 287.4 71.1004 287.4 69.2004ZM289.8 71.4004C290.9 71.4004 291.4 70.7004 291.4 69.2004C291.4 67.7004 290.9 67.0004 289.8 67.0004C288.7 67.0004 288.2 67.7004 288.2 69.2004C288.1 70.7004 288.7 71.4004 289.8 71.4004Z" fill="#858588"/>
<path d="M293 69.2004C293 67.3004 293.8 66.4004 295.4 66.4004C297 66.4004 297.8 67.3004 297.8 69.2004C297.8 71.1004 297 72.0004 295.4 72.0004C293.8 72.0004 293 71.1004 293 69.2004ZM295.4 71.4004C296.5 71.4004 297 70.7004 297 69.2004C297 67.7004 296.5 67.0004 295.4 67.0004C294.3 67.0004 293.8 67.7004 293.8 69.2004C293.7 70.7004 294.3 71.4004 295.4 71.4004Z" fill="#858588"/>
<path d="M99.1002 84.9996C98.6002 85.1996 98.1002 85.1996 97.6002 85.1996C95.7002 85.1996 94.7002 84.1996 94.7002 82.2996C94.7002 80.4996 95.7002 79.5996 97.6002 79.5996C98.2002 79.5996 98.7002 79.6996 99.1002 79.7996V80.3996C98.6002 80.1996 98.1002 80.0996 97.6002 80.0996C96.1002 80.0996 95.3002 80.7996 95.3002 82.1996C95.3002 83.6996 96.1002 84.4996 97.6002 84.4996C98.1002 84.4996 98.6002 84.3996 99.1002 84.1996V84.9996Z" fill="#CCCCCC"/>
<path d="M100 83.9C100 83.1 100.5 82.6 101.6 82.6C102 82.6 102.3 82.6 102.7 82.7V82.3C102.7 81.8 102.3 81.6 101.6 81.6C101.2 81.6 100.8 81.7 100.3 81.8V81.2C100.7 81.1 101.2 81 101.6 81C102.8 81 103.4 81.4 103.4 82.3V85.1H103L102.8 84.7C102.4 85 102 85.1 101.5 85.1C100.5 85.1 100 84.7 100 83.9ZM101.7 83.2C101.1 83.2 100.8 83.4 100.8 83.9C100.8 84.3 101 84.6 101.5 84.6C102 84.6 102.4 84.5 102.8 84.2V83.4C102.4 83.3 102 83.2 101.7 83.2Z" fill="#CCCCCC"/>
<path d="M104.6 85.1V81H105.1L105.2 81.5C105.6 81.2 106 81 106.5 81V81.6C106 81.6 105.6 81.8 105.3 82.1V85.1H104.6Z" fill="#CCCCCC"/>
<path d="M110.6 85.0996C110.6 86.0996 110 86.5996 108.7 86.5996C108.2 86.5996 107.8 86.4996 107.4 86.3996V85.7996C107.8 85.8996 108.2 85.9996 108.7 85.9996C109.5 85.9996 109.8 85.6996 109.8 85.0996V84.9996C109.5 85.0996 109.2 85.1996 108.8 85.1996C107.5 85.1996 106.9 84.4996 106.9 83.0996C106.9 81.7996 107.6 81.0996 108.9 81.0996C109.5 81.0996 110 81.1996 110.5 81.2996V85.0996H110.6ZM109.9 81.7996C109.7 81.6996 109.4 81.6996 109 81.6996C108.1 81.6996 107.7 82.1996 107.7 83.0996C107.7 84.0996 108.1 84.4996 108.9 84.4996C109.3 84.4996 109.6 84.3996 109.9 84.2996V81.7996Z" fill="#CCCCCC"/>
<path d="M111.6 83.0996C111.6 81.6996 112.2 81.0996 113.5 81.0996C114.8 81.0996 115.4 81.7996 115.4 83.0996C115.4 84.4996 114.8 85.0996 113.5 85.0996C112.3 85.0996 111.6 84.4996 111.6 83.0996ZM113.6 84.5996C114.4 84.5996 114.8 84.0996 114.8 83.0996C114.8 82.0996 114.4 81.6996 113.6 81.6996C112.8 81.6996 112.4 82.1996 112.4 83.0996C112.3 84.0996 112.7 84.5996 113.6 84.5996Z" fill="#CCCCCC"/>
<path d="M119.1 81.5992V85.0992H118.4V80.7992C118.4 79.7992 119 79.1992 120.1 79.1992C120.5 79.1992 120.8 79.2992 121.2 79.3992V79.9992C120.8 79.7992 120.4 79.7992 120.1 79.7992C119.4 79.7992 119.1 80.0992 119.1 80.6992V80.9992H121.5V85.0992H120.8V81.5992H119.1Z" fill="#CCCCCC"/>
<path d="M123.6 81.0996V84.8996C123.6 85.6996 123.4 86.2996 123 86.7996L122.4 86.3996C122.7 86.0996 122.9 85.5996 122.9 84.9996V81.1996H123.6V81.0996ZM123.6 79.5996V80.2996H122.9V79.5996H123.6Z" fill="#CCCCCC"/>
<path d="M124.6 83.0996C124.6 81.6996 125.2 81.0996 126.5 81.0996C127.8 81.0996 128.4 81.7996 128.4 83.0996C128.4 84.4996 127.8 85.0996 126.5 85.0996C125.3 85.0996 124.6 84.4996 124.6 83.0996ZM126.5 84.5996C127.3 84.5996 127.7 84.0996 127.7 83.0996C127.7 82.0996 127.3 81.6996 126.5 81.6996C125.7 81.6996 125.3 82.1996 125.3 83.0996C125.3 84.0996 125.7 84.5996 126.5 84.5996Z" fill="#CCCCCC"/>
<path d="M130.2 81.0996V81.7996H129.5V81.0996H130.2ZM130.2 84.3996V85.0996H129.5V84.3996H130.2Z" fill="#CCCCCC"/>
<path d="M133.1 84.9996V84.2996C133.7 84.4996 134.3 84.5996 135 84.5996C136 84.5996 136.4 84.2996 136.4 83.5996C136.4 82.9996 136 82.6996 135.3 82.6996H134.6C133.4 82.6996 132.9 82.1996 132.9 81.1996C132.9 80.0996 133.6 79.5996 135.1 79.5996C135.7 79.5996 136.3 79.6996 136.9 79.7996V80.4996C136.3 80.2996 135.7 80.1996 135.1 80.1996C134.1 80.1996 133.6 80.4996 133.6 81.1996C133.6 81.7996 133.9 82.0996 134.6 82.0996H135.3C136.5 82.0996 137.1 82.5996 137.1 83.5996C137.1 84.6996 136.4 85.1996 135 85.1996C134.3 85.1996 133.7 85.0996 133.1 84.9996Z" fill="#858588"/>
<path d="M138.4 85.0996H137.6L140.4 79.5996H141.2L138.4 85.0996Z" fill="#858588"/>
<path d="M143.6 82.3996C143.6 80.4996 144.4 79.5996 146 79.5996C147.6 79.5996 148.4 80.4996 148.4 82.3996C148.4 84.2996 147.6 85.1996 146 85.1996C144.4 85.1996 143.6 84.2996 143.6 82.3996ZM146 84.5996C147.1 84.5996 147.6 83.8996 147.6 82.3996C147.6 80.8996 147.1 80.1996 146 80.1996C144.9 80.1996 144.4 80.8996 144.4 82.3996C144.4 83.8996 144.9 84.5996 146 84.5996Z" fill="#858588"/>
<path d="M149.9 84.3984V85.0984H149.2V84.3984H149.9Z" fill="#858588"/>
<path d="M150.7 82.3996C150.7 80.4996 151.5 79.5996 153.1 79.5996C154.7 79.5996 155.5 80.4996 155.5 82.3996C155.5 84.2996 154.7 85.1996 153.1 85.1996C151.5 85.1996 150.7 84.2996 150.7 82.3996ZM153.1 84.5996C154.2 84.5996 154.7 83.8996 154.7 82.3996C154.7 80.8996 154.2 80.1996 153.1 80.1996C152 80.1996 151.5 80.8996 151.5 82.3996C151.5 83.8996 152 84.5996 153.1 84.5996Z" fill="#858588"/>
<path d="M156.3 82.3996C156.3 80.4996 157.1 79.5996 158.7 79.5996C160.3 79.5996 161.1 80.4996 161.1 82.3996C161.1 84.2996 160.3 85.1996 158.7 85.1996C157.1 85.1996 156.3 84.2996 156.3 82.3996ZM158.7 84.5996C159.8 84.5996 160.3 83.8996 160.3 82.3996C160.3 80.8996 159.8 80.1996 158.7 80.1996C157.6 80.1996 157.1 80.8996 157.1 82.3996C157.1 83.8996 157.6 84.5996 158.7 84.5996Z" fill="#858588"/>
<path d="M235.9 84.9996C235.4 85.1996 234.9 85.1996 234.4 85.1996C232.5 85.1996 231.5 84.1996 231.5 82.2996C231.5 80.4996 232.5 79.5996 234.4 79.5996C235 79.5996 235.5 79.6996 235.9 79.7996V80.3996C235.4 80.1996 234.9 80.0996 234.4 80.0996C232.9 80.0996 232.1 80.7996 232.1 82.1996C232.1 83.6996 232.9 84.4996 234.4 84.4996C234.9 84.4996 235.4 84.3996 235.9 84.1996V84.9996Z" fill="#CCCCCC"/>
<path d="M236.8 83.0996C236.8 81.6996 237.4 81.0996 238.7 81.0996C240 81.0996 240.6 81.7996 240.6 83.0996C240.6 84.4996 240 85.0996 238.7 85.0996C237.5 85.0996 236.8 84.4996 236.8 83.0996ZM238.8 84.5996C239.6 84.5996 240 84.0996 240 83.0996C240 82.0996 239.6 81.6996 238.8 81.6996C238 81.6996 237.6 82.1996 237.6 83.0996C237.5 84.0996 237.9 84.5996 238.8 84.5996Z" fill="#CCCCCC"/>
<path d="M241.7 85.1V81H242.2L242.3 81.5C242.7 81.2 243.1 81 243.6 81C244.2 81 244.6 81.2 244.8 81.6C245.2 81.2 245.7 81 246.1 81C247 81 247.5 81.5 247.5 82.5V85H246.8V82.4C246.8 81.8 246.5 81.5 246 81.5C245.6 81.5 245.3 81.7 244.9 82V84.9H244.2V82.4C244.2 81.8 243.9 81.5 243.4 81.5C243 81.5 242.6 81.7 242.3 82V84.9H241.7V85.1Z" fill="#CCCCCC"/>
<path d="M249.5 79.5996V80.2996H248.8V79.5996H249.5ZM249.5 81.0996V85.1996H248.8V81.0996H249.5Z" fill="#CCCCCC"/>
<path d="M250.7 84.9996V84.3996C251.2 84.5996 251.7 84.5996 252.1 84.5996C252.7 84.5996 253.1 84.3996 253.1 83.9996C253.1 83.5996 252.9 83.4996 252.4 83.4996H251.8C250.9 83.4996 250.5 83.0996 250.5 82.2996C250.5 81.4996 251.1 81.0996 252.2 81.0996C252.7 81.0996 253.2 81.1996 253.6 81.2996V81.8996C253.1 81.6996 252.6 81.6996 252.2 81.6996C251.5 81.6996 251.2 81.8996 251.2 82.2996C251.2 82.6996 251.4 82.7996 251.8 82.7996H252.4C253.3 82.7996 253.8 83.1996 253.8 83.9996C253.8 84.7996 253.2 85.1996 252.1 85.1996C251.6 85.0996 251.1 85.0996 250.7 84.9996Z" fill="#CCCCCC"/>
<path d="M255.5 79.5996V80.2996H254.8V79.5996H255.5ZM255.5 81.0996V85.1996H254.8V81.0996H255.5Z" fill="#CCCCCC"/>
<path d="M256.6 83.0996C256.6 81.6996 257.2 81.0996 258.5 81.0996C259.8 81.0996 260.4 81.7996 260.4 83.0996C260.4 84.4996 259.8 85.0996 258.5 85.0996C257.2 85.0996 256.6 84.4996 256.6 83.0996ZM258.5 84.5996C259.3 84.5996 259.7 84.0996 259.7 83.0996C259.7 82.0996 259.3 81.6996 258.5 81.6996C257.7 81.6996 257.3 82.1996 257.3 83.0996C257.3 84.0996 257.7 84.5996 258.5 84.5996ZM258.6 79.5996H259.5L258.6 80.4996H258L258.6 79.5996Z" fill="#CCCCCC"/>
<path d="M261.4 85.1V81H261.9L262 81.5C262.4 81.2 262.9 81 263.4 81C264.4 81 264.9 81.5 264.9 82.5V85.1H264.2V82.5C264.2 81.9 263.9 81.6 263.3 81.6C262.9 81.6 262.5 81.8 262.1 82.1V85.1H261.4Z" fill="#CCCCCC"/>
<path d="M266.8 81.0996V81.7996H266.1V81.0996H266.8ZM266.8 84.3996V85.0996H266.1V84.3996H266.8Z" fill="#CCCCCC"/>
<path d="M269.7 84.9996V84.2996C270.3 84.4996 270.9 84.5996 271.6 84.5996C272.6 84.5996 273 84.2996 273 83.5996C273 82.9996 272.6 82.6996 271.9 82.6996H271.2C270 82.6996 269.5 82.1996 269.5 81.1996C269.5 80.0996 270.2 79.5996 271.7 79.5996C272.3 79.5996 272.9 79.6996 273.5 79.7996V80.4996C272.9 80.2996 272.3 80.1996 271.7 80.1996C270.7 80.1996 270.2 80.4996 270.2 81.1996C270.2 81.7996 270.5 82.0996 271.2 82.0996H271.9C273.1 82.0996 273.7 82.5996 273.7 83.5996C273.7 84.6996 273 85.1996 271.6 85.1996C270.9 85.1996 270.3 85.0996 269.7 84.9996Z" fill="#858588"/>
<path d="M275 85.0996H274.2L277 79.5996H277.8L275 85.0996Z" fill="#858588"/>
<path d="M280.3 82.3996C280.3 80.4996 281.1 79.5996 282.7 79.5996C284.3 79.5996 285.1 80.4996 285.1 82.3996C285.1 84.2996 284.3 85.1996 282.7 85.1996C281.1 85.1996 280.3 84.2996 280.3 82.3996ZM282.7 84.5996C283.8 84.5996 284.3 83.8996 284.3 82.3996C284.3 80.8996 283.8 80.1996 282.7 80.1996C281.6 80.1996 281.1 80.8996 281.1 82.3996C281 83.8996 281.6 84.5996 282.7 84.5996Z" fill="#858588"/>
<path d="M286.6 84.4004V85.1004H285.9V84.4004H286.6Z" fill="#858588"/>
<path d="M287.4 82.3996C287.4 80.4996 288.2 79.5996 289.8 79.5996C291.4 79.5996 292.2 80.4996 292.2 82.3996C292.2 84.2996 291.4 85.1996 289.8 85.1996C288.2 85.1996 287.4 84.2996 287.4 82.3996ZM289.8 84.5996C290.9 84.5996 291.4 83.8996 291.4 82.3996C291.4 80.8996 290.9 80.1996 289.8 80.1996C288.7 80.1996 288.2 80.8996 288.2 82.3996C288.1 83.8996 288.7 84.5996 289.8 84.5996Z" fill="#858588"/>
<path d="M293 82.3996C293 80.4996 293.8 79.5996 295.4 79.5996C297 79.5996 297.8 80.4996 297.8 82.3996C297.8 84.2996 297 85.1996 295.4 85.1996C293.8 85.1996 293 84.2996 293 82.3996ZM295.4 84.5996C296.5 84.5996 297 83.8996 297 82.3996C297 80.8996 296.5 80.1996 295.4 80.1996C294.3 80.1996 293.8 80.8996 293.8 82.3996C293.7 83.8996 294.3 84.5996 295.4 84.5996Z" fill="#858588"/>
<path d="M95.4 56.6008V55.3008C96.5 55.7008 97.7 55.9008 99 55.9008C100.8 55.9008 101.7 55.2008 101.7 53.9008C101.7 52.8008 101 52.2008 99.7 52.2008H98.3C96.1 52.2008 95 51.2008 95 49.3008C95 47.3008 96.4 46.3008 99.2 46.3008C100.4 46.3008 101.6 46.4008 102.6 46.7008V48.0008C101.5 47.6008 100.4 47.4008 99.2 47.4008C97.3 47.4008 96.3 48.0008 96.3 49.3008C96.3 50.4008 96.9 51.0008 98.2 51.0008H99.6C101.8 51.0008 103 52.0008 103 53.9008C103 56.0008 101.6 57.0008 98.9 57.0008C97.7 57.0008 96.5 56.9008 95.4 56.6008Z" fill="#FF4200"/>
<path d="M105.4 56.9004H103.9L109.2 46.4004H110.7L105.4 56.9004Z" fill="#FF4200"/>
<path d="M116.5 56.9008V47.7008H115.4V47.0008L117.9 46.3008V56.9008H116.5Z" fill="#FF4200"/>
<path d="M120.1 46.8004C121.1 46.5004 122.1 46.4004 123 46.4004C125.5 46.4004 126.8 47.4004 126.8 49.3004C126.8 50.5004 126.3 51.3004 125.4 51.7004C126.3 52.1004 126.8 52.9004 126.8 54.1004C126.8 56.1004 125.5 57.1004 123 57.1004C122 57.1004 121 57.0004 120.1 56.7004V55.5004C121.1 55.8004 122.1 56.0004 123 56.0004C124.6 56.0004 125.4 55.4004 125.4 54.1004C125.4 52.9004 124.8 52.3004 123.5 52.3004H121.1V51.0004H123.5C124.7 51.0004 125.4 50.4004 125.4 49.2004C125.4 48.0004 124.6 47.4004 123 47.4004C122 47.4004 121 47.6004 120.1 47.9004V46.8004Z" fill="#FF4200"/>
<path d="M128.6 51.7004C128.6 48.1004 130.1 46.4004 133.1 46.4004C136.1 46.4004 137.6 48.2004 137.6 51.7004C137.6 55.2004 136.1 57.0004 133.1 57.0004C130.1 57.0004 128.6 55.2004 128.6 51.7004ZM133.2 55.9004C135.2 55.9004 136.2 54.5004 136.2 51.6004C136.2 48.8004 135.2 47.4004 133.2 47.4004C131.1 47.4004 130.1 48.8004 130.1 51.6004C130.1 54.5004 131.1 55.9004 133.2 55.9004Z" fill="#FF4200"/>
<path d="M140.5 55.6016V57.0016H139.1V55.6016H140.5Z" fill="#FF4200"/>
<path d="M142.1 51.7004C142.1 48.1004 143.6 46.4004 146.6 46.4004C149.6 46.4004 151.1 48.2004 151.1 51.7004C151.1 55.2004 149.6 57.0004 146.6 57.0004C143.6 57.0004 142.1 55.2004 142.1 51.7004ZM146.6 55.9004C148.6 55.9004 149.6 54.5004 149.6 51.6004C149.6 48.8004 148.6 47.4004 146.6 47.4004C144.5 47.4004 143.5 48.8004 143.5 51.6004C143.5 54.5004 144.5 55.9004 146.6 55.9004Z" fill="#FF4200"/>
<path d="M152.7 51.7004C152.7 48.1004 154.2 46.4004 157.2 46.4004C160.2 46.4004 161.7 48.2004 161.7 51.7004C161.7 55.2004 160.2 57.0004 157.2 57.0004C154.2 57.0004 152.7 55.2004 152.7 51.7004ZM157.2 55.9004C159.2 55.9004 160.2 54.5004 160.2 51.6004C160.2 48.8004 159.2 47.4004 157.2 47.4004C155.1 47.4004 154.1 48.8004 154.1 51.6004C154.1 54.5004 155.2 55.9004 157.2 55.9004Z" fill="#FF4200"/>
<path d="M298.2 28.5H283.9V42.8H298.2V28.5Z" fill="white" stroke="#EEEFEF" stroke-width="0.8849" stroke-miterlimit="10"/>
<path d="M305.7 103.1H87.1001V104.6H305.7V103.1Z" fill="#F8F6F6"/>
<path d="M89.8002 0H86.7002V146.7H89.8002V0Z" fill="#FF4200"/>
<path d="M90.2998 146.5H91.6998" stroke="#A8A8A8" stroke-width="0.8849" stroke-miterlimit="10"/>
<path d="M94.2998 146.5H303.1" stroke="#A8A8A8" stroke-width="0.8849" stroke-miterlimit="10" stroke-dasharray="2.63 2.63"/>
<path d="M304.4 146.5H305.7" stroke="#A8A8A8" stroke-width="0.8849" stroke-miterlimit="10"/>
<path d="M112.1 155.1V162H110.8V155.1H112.1Z" fill="#242229"/>
<path d="M113.5 162V156.9H114.5L114.7 157.6C115.2 157.1 115.7 156.9 116.4 156.9C117.6 156.9 118.2 157.5 118.2 158.8V162H116.9V158.8C116.9 158.2 116.6 158 116.1 158C115.7 158 115.3 158.2 114.9 158.5V162.1H113.5V162Z" fill="#242229"/>
<path d="M123.9 161.7C123.9 163.2 123 163.9 121.2 163.9C120.6 163.9 120 163.8 119.5 163.7V162.7C120 162.9 120.6 162.9 121.2 162.9C122.1 162.9 122.6 162.5 122.6 161.7C122.2 161.9 121.8 161.9 121.4 161.9C119.9 161.9 119.1 161.1 119.1 159.4C119.1 157.7 120 156.9 121.7 156.9C122.3 156.9 123 157 123.8 157.1V161.7H123.9ZM122.6 158.1C122.4 158 122.1 158 121.7 158C120.8 158 120.4 158.5 120.4 159.5C120.4 160.4 120.8 160.9 121.6 160.9C122 160.9 122.3 160.8 122.7 160.6V158.1H122.6Z" fill="#242229"/>
<path d="M125.1 162V156.9H126.1L126.3 157.6C126.7 157.2 127.2 156.9 127.7 156.9V157.9C127.2 157.9 126.8 158.1 126.4 158.5V162H125.1Z" fill="#242229"/>
<path d="M130.5 156.9C132 156.9 132.8 157.7 132.8 159.3C132.8 159.5 132.8 159.7 132.8 159.9H129.4C129.4 160.6 129.9 161 131 161C131.5 161 132 161 132.5 160.9V161.9C132 162 131.5 162 130.9 162C129.1 162 128.1 161.1 128.1 159.4C128.1 157.8 128.9 156.9 130.5 156.9ZM129.4 159H131.6C131.6 158.3 131.2 157.9 130.5 157.9C129.9 158 129.5 158.3 129.4 159Z" fill="#242229"/>
<path d="M133.8 161.8V160.7C134.4 160.9 135 161 135.8 161C136.4 161 136.6 160.8 136.6 160.5C136.6 160.2 136.4 160 136 160H135.1C134.1 160 133.5 159.5 133.5 158.5C133.5 157.4 134.3 156.9 135.8 156.9C136.4 156.9 137 157 137.6 157.2V158.3C137 158.1 136.4 158 135.8 158C135.1 158 134.8 158.2 134.8 158.5C134.8 158.8 135 159 135.4 159H136.2C137.3 159 137.9 159.5 137.9 160.5C137.9 161.6 137.2 162.1 135.7 162.1C135 162.1 134.4 162 133.8 161.8Z" fill="#242229"/>
<path d="M138.6 160.5C138.6 159.5 139.3 159 140.8 159C141.1 159 141.5 159 141.8 159.1V158.7C141.8 158.2 141.5 158 140.8 158C140.2 158 139.6 158.1 138.9 158.2V157.2C139.6 157 140.2 157 140.8 157C142.3 157 143.1 157.6 143.1 158.7V162.1H142.4L141.9 161.6C141.5 161.9 141 162.1 140.4 162.1C139.2 162 138.6 161.5 138.6 160.5ZM140.8 159.8C140.2 159.8 139.9 160 139.9 160.4C139.9 160.9 140.2 161.1 140.7 161.1C141.1 161.1 141.5 161 141.9 160.7V159.9C141.5 159.8 141.1 159.8 140.8 159.8Z" fill="#242229"/>
<path d="M146.4 156.1H147.4L147.6 156.9H148.9V157.9H147.8V160.2C147.8 160.7 148 160.9 148.4 160.9H148.9V161.9H147.8C146.9 161.9 146.5 161.4 146.5 160.5V156.1H146.4Z" fill="#242229"/>
<path d="M154.3 156.9V162H153.3L153.1 161.3C152.5 161.7 151.9 162 151.2 162C150.2 162 149.6 161.4 149.6 160.2V157H150.9V160.2C150.9 160.8 151.1 161 151.6 161C152 161 152.4 160.8 152.9 160.5V156.9H154.3Z" fill="#242229"/>
<path d="M163.4 161.7C162.8 161.9 162.1 162 161.4 162C158.9 162 157.7 160.8 157.7 158.4C157.7 156.1 158.9 155 161.4 155C162.2 155 162.8 155.1 163.4 155.3V156.5C162.8 156.2 162.2 156.1 161.5 156.1C159.8 156.1 159 156.9 159 158.4C159 160.1 159.8 160.9 161.5 160.9C162.2 160.9 162.8 160.8 163.4 160.5V161.7Z" fill="#242229"/>
<path d="M165.7 155.1V162H164.4V155.1H165.7Z" fill="#242229"/>
<path d="M166.7 160.5C166.7 159.5 167.4 159 168.9 159C169.2 159 169.6 159 169.9 159.1V158.7C169.9 158.2 169.6 158 168.9 158C168.3 158 167.7 158.1 167 158.2V157.2C167.7 157 168.3 157 168.9 157C170.4 157 171.2 157.6 171.2 158.7V162.1H170.5L170 161.6C169.6 161.9 169.1 162.1 168.5 162.1C167.3 162 166.7 161.5 166.7 160.5ZM168.9 159.8C168.3 159.8 168 160 168 160.4C168 160.9 168.3 161.1 168.8 161.1C169.2 161.1 169.6 161 170 160.7V159.9C169.6 159.8 169.3 159.8 168.9 159.8Z" fill="#242229"/>
<path d="M171.9 156.9H173.3L174.5 160.5L175.8 156.9H177.2L175 162H173.8L171.9 156.9Z" fill="#242229"/>
<path d="M179.9 156.9C181.4 156.9 182.2 157.7 182.2 159.3C182.2 159.5 182.2 159.7 182.2 159.9H178.8C178.8 160.6 179.3 161 180.4 161C180.9 161 181.4 161 181.9 160.9V161.9C181.4 162 180.9 162 180.3 162C178.5 162 177.5 161.1 177.5 159.4C177.5 157.8 178.3 156.9 179.9 156.9ZM178.8 159H181C181 158.3 180.6 157.9 179.9 157.9C179.2 158 178.8 158.3 178.8 159Z" fill="#242229"/>
<path d="M185.5 162V155.1H188.2C190.5 155.1 191.6 156.2 191.6 158.4C191.6 160.8 190.5 162.1 188.2 162.1H185.5V162ZM188.2 160.9C189.6 160.9 190.4 160.1 190.4 158.4C190.4 157 189.7 156.2 188.2 156.2H186.8V160.9H188.2Z" fill="#242229"/>
<path d="M193.9 155.1V156.1H192.6V155.1H193.9ZM193.9 156.9V162H192.6V156.9H193.9Z" fill="#242229"/>
<path d="M199.6 161.7C199.6 163.2 198.7 163.9 196.9 163.9C196.3 163.9 195.7 163.8 195.2 163.7V162.7C195.7 162.9 196.3 162.9 196.9 162.9C197.8 162.9 198.3 162.5 198.3 161.7C197.9 161.9 197.5 161.9 197.1 161.9C195.6 161.9 194.8 161.1 194.8 159.4C194.8 157.7 195.7 156.9 197.4 156.9C198 156.9 198.7 157 199.5 157.1V161.7H199.6ZM198.4 158.1C198.2 158 197.9 158 197.5 158C196.6 158 196.2 158.5 196.2 159.5C196.2 160.4 196.6 160.9 197.4 160.9C197.8 160.9 198.1 160.8 198.5 160.6V158.1H198.4Z" fill="#242229"/>
<path d="M202.1 155.1V156.1H200.8V155.1H202.1ZM202.1 156.9V162H200.8V156.9H202.1Z" fill="#242229"/>
<path d="M203.3 156.1H204.3L204.5 156.9H205.8V157.9H204.7V160.2C204.7 160.7 204.9 160.9 205.3 160.9H205.8V161.9H204.7C203.8 161.9 203.4 161.4 203.4 160.5V156.1H203.3Z" fill="#242229"/>
<path d="M206.3 160.5C206.3 159.5 207 159 208.5 159C208.8 159 209.2 159 209.5 159.1V158.7C209.5 158.2 209.2 158 208.5 158C207.9 158 207.3 158.1 206.6 158.2V157.2C207.3 157 207.9 157 208.5 157C210 157 210.8 157.6 210.8 158.7V162.1H210.1L209.6 161.6C209.2 161.9 208.7 162.1 208.1 162.1C207 162 206.3 161.5 206.3 160.5ZM208.6 159.8C208 159.8 207.7 160 207.7 160.4C207.7 160.9 208 161.1 208.5 161.1C208.9 161.1 209.3 161 209.7 160.7V159.9C209.3 159.8 208.9 159.8 208.6 159.8Z" fill="#242229"/>
<path d="M213.4 155.1V162H212.1V155.1H213.4Z" fill="#242229"/>
<path d="M221.4 155.1V156.2H219.4V162H218.1V156.2H216.1V155.1H221.4Z" fill="#242229"/>
<path d="M221.1 159.5C221.1 157.8 221.9 156.9 223.6 156.9C225.3 156.9 226.1 157.8 226.1 159.5C226.1 161.2 225.3 162.1 223.6 162.1C221.9 162 221.1 161.2 221.1 159.5ZM223.6 161.1C224.4 161.1 224.8 160.6 224.8 159.5C224.8 158.5 224.4 157.9 223.6 157.9C222.8 157.9 222.4 158.4 222.4 159.5C222.4 160.5 222.8 161.1 223.6 161.1Z" fill="#242229"/>
<path d="M227.1 162V155.1H228.4V157.3C228.9 157 229.5 156.9 230.1 156.9C231.4 156.9 232.1 157.4 232.1 158.4C232.1 159.1 231.6 159.7 230.7 160.1L232.3 162.1H230.7L229.4 160.3V159.7C230.3 159.5 230.8 159.2 230.8 158.7C230.8 158.2 230.5 158 229.9 158C229.5 158 229 158.1 228.5 158.4V162.1H227.1V162Z" fill="#242229"/>
<path d="M235.1 156.9C236.6 156.9 237.4 157.7 237.4 159.3C237.4 159.5 237.4 159.7 237.4 159.9H234C234 160.6 234.5 161 235.6 161C236.1 161 236.6 161 237.1 160.9V161.9C236.6 162 236.1 162 235.5 162C233.7 162 232.7 161.1 232.7 159.4C232.7 157.8 233.5 156.9 235.1 156.9ZM234 159H236.2C236.2 158.3 235.8 157.9 235.1 157.9C234.4 158 234.1 158.3 234 159Z" fill="#242229"/>
<path d="M238.4 162V156.9H239.4L239.6 157.6C240.1 157.1 240.6 156.9 241.3 156.9C242.5 156.9 243.1 157.5 243.1 158.8V162H241.8V158.8C241.8 158.2 241.5 158 241 158C240.6 158 240.2 158.2 239.8 158.5V162.1H238.4V162Z" fill="#242229"/>
<path d="M141.7 172H122.4V195.4H141.7V172Z" fill="#F9F9F9" stroke="#E0E2E3" stroke-width="0.8849" stroke-miterlimit="10"/>
<path d="M167.3 172H148V195.4H167.3V172Z" fill="#F9F9F9" stroke="#E0E2E3" stroke-width="0.8849" stroke-miterlimit="10"/>
<path d="M193 172H173.7V195.4H193V172Z" fill="#F9F9F9" stroke="#E0E2E3" stroke-width="0.8849" stroke-miterlimit="10"/>
<path d="M218.6 172H199.3V195.4H218.6V172Z" fill="#F9F9F9" stroke="#E0E2E3" stroke-width="0.8849" stroke-miterlimit="10"/>
<path d="M244.2 172H224.9V195.4H244.2V172Z" fill="#F9F9F9" stroke="#E0E2E3" stroke-width="0.8849" stroke-miterlimit="10"/>
<path d="M269.8 172H250.5V195.4H269.8V172Z" fill="#F9F9F9" stroke="#E0E2E3" stroke-width="0.8849" stroke-miterlimit="10"/>
<path d="M103.7 153.1C101.6 153.1 99.7998 154.8 99.7998 157C99.7998 157.5 99.8998 157.9 100.1 158.4L96.3998 162.1C96.2998 162.2 96.2998 162.2 96.2998 162.3V164.3C96.2998 164.5 96.3998 164.6 96.5998 164.6H98.2998C98.3998 164.6 98.3998 164.6 98.4998 164.5L98.9998 164C99.0998 163.9 99.0998 163.9 99.0998 163.8V163.1H99.7998C99.9998 163.1 100.1 163 100.1 162.8V162.5H100.4C100.6 162.5 100.7 162.4 100.7 162.2V161.6H101.3C101.4 161.6 101.4 161.6 101.5 161.5L102.4 160.6C102.8 160.8 103.3 160.9 103.8 160.9C105.9 160.9 107.7 159.2 107.7 157C107.6 154.9 105.9 153.1 103.7 153.1ZM103.7 160.3C103.2 160.3 102.8 160.2 102.4 160C102.3 160 102.2 160 102.1 160.1L101.1 161.1H100.3C100.1 161.1 99.9998 161.2 99.9998 161.4V162H99.6998C99.4998 162 99.3998 162.1 99.3998 162.3V162.6H98.6998C98.4998 162.6 98.3998 162.7 98.3998 162.9V163.8L97.9998 164.2H96.6998V163.8L100.2 160.3C100.3 160.2 100.3 160 100.2 159.9C100.1 159.8 99.8998 159.8 99.7998 159.9L96.6998 163V162.5L100.5 158.7C100.6 158.6 100.6 158.5 100.6 158.4C100.4 158 100.3 157.5 100.3 157.1C100.3 155.3 101.8 153.8 103.6 153.8C105.4 153.8 106.9 155.3 106.9 157.1C107.1 158.8 105.6 160.3 103.7 160.3Z" fill="#FF4200"/>
<path d="M104.1 155.301C103.4 155.301 102.8 155.901 102.8 156.601C102.8 157.301 103.4 157.901 104.1 157.901C104.8 157.901 105.4 157.301 105.4 156.601C105.4 155.901 104.8 155.301 104.1 155.301ZM104.1 157.301C103.7 157.301 103.4 157.001 103.4 156.601C103.4 156.201 103.7 155.901 104.1 155.901C104.5 155.901 104.8 156.201 104.8 156.601C104.8 157.001 104.5 157.301 104.1 157.301Z" fill="#FF4200"/>
<path d="M192.1 223.699H89.3999V249.599H192.1V223.699Z" fill="#D8D9DD"/>
<path d="M125.8 239.8C125.1 240.1 124.4 240.2 123.5 240.2C120.7 240.2 119.4 238.9 119.4 236.2C119.4 233.7 120.8 232.4 123.5 232.4C124.3 232.4 125.1 232.5 125.8 232.8V234.1C125.1 233.8 124.4 233.7 123.7 233.7C121.9 233.7 120.9 234.6 120.9 236.3C120.9 238.1 121.8 239.1 123.7 239.1C124.5 239.1 125.2 239 125.8 238.7V239.8Z" fill="#77767B"/>
<path d="M126.7 238.4C126.7 237.3 127.5 236.7 129.1 236.7C129.5 236.7 129.9 236.7 130.2 236.8V236.4C130.2 235.9 129.8 235.6 129.1 235.6C128.5 235.6 127.8 235.7 127 235.9V234.8C127.8 234.6 128.4 234.5 129.1 234.5C130.8 234.5 131.6 235.1 131.6 236.4V240.2H130.8L130.3 239.7C129.8 240 129.3 240.2 128.7 240.2C127.4 240.1 126.7 239.6 126.7 238.4ZM129.2 237.7C128.5 237.7 128.2 237.9 128.2 238.4C128.2 238.9 128.5 239.2 129.1 239.2C129.6 239.2 130 239.1 130.4 238.8V237.9C130 237.7 129.6 237.7 129.2 237.7Z" fill="#77767B"/>
<path d="M133.1 240.1V234.5H134.2L134.4 235.3C134.9 234.7 135.6 234.5 136.2 234.5C137.5 234.5 138.2 235.2 138.2 236.6V240.2H136.8V236.6C136.8 236 136.5 235.7 135.9 235.7C135.4 235.7 135 235.9 134.5 236.3V240.2H133.1V240.1Z" fill="#77767B"/>
<path d="M143.7 240C143.2 240.1 142.8 240.2 142.3 240.2C140.3 240.2 139.3 239.2 139.3 237.3C139.3 235.5 140.3 234.6 142.3 234.6C142.8 234.6 143.3 234.7 143.7 234.8V235.9C143.2 235.8 142.8 235.7 142.4 235.7C141.3 235.7 140.7 236.2 140.7 237.3C140.7 238.5 141.3 239.1 142.4 239.1C142.8 239.1 143.3 239 143.7 238.9V240Z" fill="#77767B"/>
<path d="M147 234.5C148.7 234.5 149.6 235.4 149.6 237.1C149.6 237.3 149.6 237.6 149.6 237.8H145.9C145.9 238.6 146.5 239 147.7 239C148.3 239 148.8 238.9 149.4 238.8V239.9C148.9 240 148.3 240.1 147.6 240.1C145.6 240.1 144.5 239.1 144.5 237.2C144.4 235.4 145.3 234.5 147 234.5ZM145.8 236.8H148.2C148.2 236 147.8 235.6 147 235.6C146.3 235.6 145.9 236 145.8 236.8Z" fill="#77767B"/>
<path d="M152.1 232.5V240.2H150.7V232.5H152.1Z" fill="#77767B"/>
<path d="M153.2 238.4C153.2 237.3 154 236.7 155.6 236.7C156 236.7 156.4 236.7 156.7 236.8V236.4C156.7 235.9 156.3 235.6 155.6 235.6C155 235.6 154.3 235.7 153.5 235.9V234.8C154.3 234.6 154.9 234.5 155.6 234.5C157.3 234.5 158.1 235.1 158.1 236.4V240.2H157.3L156.8 239.7C156.3 240 155.8 240.2 155.2 240.2C153.9 240.1 153.2 239.6 153.2 238.4ZM155.6 237.7C154.9 237.7 154.6 237.9 154.6 238.4C154.6 238.9 154.9 239.2 155.5 239.2C156 239.2 156.4 239.1 156.8 238.8V237.9C156.4 237.7 156 237.7 155.6 237.7Z" fill="#77767B"/>
<path d="M159.5 240.1V234.5H160.6L160.8 235.2C161.3 234.7 161.8 234.5 162.4 234.5V235.6C161.9 235.6 161.4 235.8 161 236.3V240.1H159.5Z" fill="#77767B"/>
<path d="M303.1 223.699H200.4V249.599H303.1V223.699Z" fill="#FF7531"/>
<path d="M233.8 239.798C233.1 240.098 232.4 240.198 231.5 240.198C228.7 240.198 227.4 238.898 227.4 236.198C227.4 233.698 228.8 232.398 231.5 232.398C232.3 232.398 233.1 232.498 233.8 232.798V234.098C233.1 233.798 232.4 233.698 231.7 233.698C229.9 233.698 228.9 234.598 228.9 236.298C228.9 238.098 229.8 239.098 231.7 239.098C232.5 239.098 233.2 238.998 233.8 238.698V239.798Z" fill="white"/>
<path d="M234.7 237.3C234.7 235.4 235.6 234.5 237.5 234.5C239.4 234.5 240.3 235.4 240.3 237.3C240.3 239.2 239.4 240.1 237.5 240.1C235.7 240.2 234.8 239.2 234.7 237.3ZM237.5 239.1C238.4 239.1 238.9 238.5 238.9 237.3C238.9 236.2 238.4 235.6 237.5 235.6C236.6 235.6 236.1 236.2 236.1 237.3C236.2 238.5 236.6 239.1 237.5 239.1Z" fill="white"/>
<path d="M241.4 240.1V234.5H242.5L242.7 235.3C243.2 234.7 243.9 234.5 244.5 234.5C245.8 234.5 246.5 235.2 246.5 236.6V240.2H245.1V236.6C245.1 236 244.8 235.7 244.2 235.7C243.7 235.7 243.3 235.9 242.8 236.3V240.2H241.4V240.1Z" fill="white"/>
<path d="M247.9 240.099V234.499C247.9 232.999 248.7 232.199 250.4 232.199C250.9 232.199 251.3 232.299 251.7 232.399V233.499C251.3 233.399 251 233.299 250.5 233.299C249.7 233.299 249.3 233.699 249.3 234.499H251V235.599H249.3V240.099H247.9Z" fill="white"/>
<path d="M252.9 232.5V233.6H251.5V232.5H252.9ZM252.9 234.5V240.1H251.5V234.5H252.9Z" fill="white"/>
<path d="M254.2 240.1V234.5H255.3L255.5 235.2C256 234.7 256.5 234.5 257.1 234.5V235.6C256.6 235.6 256.1 235.8 255.7 236.3V240.1H254.2Z" fill="white"/>
<path d="M257.9 240.1V234.5H259L259.2 235.3C259.7 234.8 260.3 234.5 261 234.5C261.7 234.5 262.2 234.8 262.5 235.3C263.1 234.8 263.7 234.5 264.3 234.5C265.6 234.5 266.2 235.2 266.2 236.6V240.1H264.8V236.6C264.8 236 264.5 235.7 264 235.7C263.6 235.7 263.2 235.9 262.8 236.3V240.2H261.4V236.7C261.4 236.1 261.1 235.7 260.6 235.7C260.2 235.7 259.8 235.9 259.4 236.3V240.2H257.9V240.1Z" fill="white"/>
<path d="M267.3 238.4C267.3 237.3 268.1 236.7 269.7 236.7C270.1 236.7 270.5 236.7 270.8 236.8V236.4C270.8 235.9 270.4 235.6 269.7 235.6C269.1 235.6 268.4 235.7 267.6 235.9V234.8C268.4 234.6 269 234.5 269.7 234.5C271.4 234.5 272.2 235.1 272.2 236.4V240.2H271.4L270.9 239.7C270.4 240 269.9 240.2 269.3 240.2C268 240.1 267.3 239.6 267.3 238.4ZM269.7 237.7C269 237.7 268.7 237.9 268.7 238.4C268.7 238.9 269 239.2 269.6 239.2C270.1 239.2 270.5 239.1 270.9 238.8V237.9C270.5 237.7 270.1 237.7 269.7 237.7Z" fill="white"/>
<path d="M273.6 240.1V234.5H274.7L274.9 235.2C275.4 234.7 275.9 234.5 276.5 234.5V235.6C276 235.6 275.5 235.8 275.1 236.3V240.1H273.6Z" fill="white"/>
<path d="M298.2 28H283.9V42.3H298.2V28Z" fill="white" stroke="#EEEFEF" stroke-width="0.8836" stroke-miterlimit="10"/>
<path d="M290 36.4992L288.1 34.5992L287.5 35.1992L290.1 37.7992L294.6 33.2992L294 32.6992L290 36.4992Z" fill="#FF4200" stroke="#FF4200" stroke-width="0.8836" stroke-miterlimit="10"/>
</svg>
