<svg width="392" height="262" viewBox="0 0 392 262" fill="none" xmlns="http://www.w3.org/2000/svg">
<path d="M392 0H0V262H392V0Z" fill="#E3E3E3"/>
<path d="M313.9 0H78.1001V261.9H313.9V0Z" fill="white"/>
<path d="M164.9 30.5V40.3H163.6V30.5H164.9Z" fill="#002A90"/>
<path d="M167.7 40.2996V33.0996H168.6L168.8 33.9996C169.5 33.3996 170.3 33.0996 171.2 33.0996C173 33.0996 173.9 33.9996 173.9 35.7996V40.2996H172.6V35.7996C172.6 34.6996 172.1 34.1996 171 34.1996C170.3 34.1996 169.6 34.4996 168.9 35.0996V40.2996H167.7Z" fill="#002A90"/>
<path d="M182.3 40.2992C182.3 41.9992 181.2 42.8992 179 42.8992C178.1 42.8992 177.3 42.7992 176.7 42.5992V41.5992C177.4 41.7992 178.2 41.8992 179.1 41.8992C180.4 41.8992 181.1 41.3992 181.1 40.2992V39.9992C180.6 40.1992 180 40.2992 179.4 40.2992C177.1 40.2992 176 39.0992 176 36.6992C176 34.2992 177.2 33.1992 179.6 33.1992C180.6 33.1992 181.5 33.2992 182.4 33.4992V40.2992H182.3ZM181.1 34.2992C180.7 34.1992 180.1 34.0992 179.5 34.0992C178 34.0992 177.2 34.8992 177.2 36.5992C177.2 38.2992 177.9 39.0992 179.4 39.0992C180.1 39.0992 180.6 38.9992 181.1 38.6992V34.2992Z" fill="#002A90"/>
<path d="M184.7 40.2996V33.0996H185.6L185.8 33.9996C186.4 33.3996 187.2 33.0996 188.1 33.0996V34.1996C187.2 34.1996 186.6 34.4996 186 35.0996V40.2996H184.7Z" fill="#002A90"/>
<path d="M192.6 33.0996C194.6 33.0996 195.7 34.0996 195.7 36.0996C195.7 36.3996 195.7 36.6996 195.6 36.9996H190.6C190.6 38.4996 191.5 39.1996 193.2 39.1996C194 39.1996 194.7 39.0996 195.4 38.8996V39.8996C194.8 40.0996 194 40.1996 193.1 40.1996C190.6 40.1996 189.4 38.9996 189.4 36.4996C189.3 34.2996 190.4 33.0996 192.6 33.0996ZM190.6 35.9996H194.5C194.5 34.6996 193.9 34.0996 192.7 34.0996C191.4 34.0996 190.7 34.6996 190.6 35.9996Z" fill="#002A90"/>
<path d="M197.7 39.8996V38.7996C198.5 39.0996 199.4 39.1996 200.3 39.1996C201.4 39.1996 202 38.8996 202 38.1996C202 37.5996 201.6 37.1996 200.8 37.1996H199.8C198.3 37.1996 197.5 36.4996 197.5 35.0996C197.5 33.6996 198.5 33.0996 200.5 33.0996C201.4 33.0996 202.2 33.1996 203 33.3996V34.4996C202.2 34.1996 201.3 34.0996 200.5 34.0996C199.3 34.0996 198.7 34.3996 198.7 35.0996C198.7 35.6996 199.1 36.0996 199.8 36.0996H200.8C202.4 36.0996 203.3 36.7996 203.3 38.1996C203.3 39.5996 202.3 40.1996 200.3 40.1996C199.4 40.2996 198.5 40.1996 197.7 39.8996Z" fill="#002A90"/>
<path d="M204.9 38.0996C204.9 36.5996 205.9 35.8996 207.8 35.8996C208.4 35.8996 209 35.8996 209.7 35.9996V35.2996C209.7 34.4996 209.1 34.0996 207.8 34.0996C207.1 34.0996 206.3 34.1996 205.5 34.3996V33.3996C206.3 33.1996 207 33.0996 207.8 33.0996C209.9 33.0996 211 33.7996 211 35.2996V40.1996H210.3L209.9 39.4996C209.2 39.9996 208.4 40.1996 207.6 40.1996C205.8 40.2996 204.9 39.4996 204.9 38.0996ZM207.8 36.8996C206.7 36.8996 206.2 37.2996 206.2 38.0996C206.2 38.8996 206.6 39.2996 207.5 39.2996C208.4 39.2996 209.1 39.0996 209.7 38.5996V37.0996C209.1 36.9996 208.5 36.8996 207.8 36.8996Z" fill="#002A90"/>
<path d="M217.2 31.9004H218L218.3 33.1004H220.2V34.1004H218.5V38.2004C218.5 38.9004 218.8 39.2004 219.4 39.2004H220.3V40.2004H219C217.8 40.2004 217.2 39.6004 217.2 38.3004V31.9004Z" fill="#002A90"/>
<path d="M228.3 33.0996V40.2996H227.4L227.2 39.3996C226.3 39.9996 225.5 40.2996 224.6 40.2996C223 40.2996 222.1 39.3996 222.1 37.5996V33.0996H223.4V37.5996C223.4 38.6996 223.9 39.1996 225 39.1996C225.7 39.1996 226.4 38.8996 227.1 38.2996V33.0996H228.3Z" fill="#002A90"/>
<path d="M147 53.9996C146.4 54.0996 145.8 54.1996 145.1 54.1996C142.6 54.1996 141.3 52.9996 141.3 50.4996C141.3 48.1996 142.6 47.0996 145.1 47.0996C145.8 47.0996 146.4 47.1996 147 47.2996V48.2996C146.4 48.1996 145.8 48.0996 145 48.0996C143.3 48.0996 142.5 48.8996 142.5 50.4996C142.5 52.2996 143.3 53.1996 145 53.1996C145.7 53.1996 146.4 53.0996 147 52.9996V53.9996Z" fill="#002A90"/>
<path d="M150.3 44.4004V54.2004H149V44.4004H150.3Z" fill="#002A90"/>
<path d="M152.5 52C152.5 50.5 153.5 49.8 155.4 49.8C156 49.8 156.6 49.8 157.3 49.9V49.2C157.3 48.4 156.7 48 155.4 48C154.7 48 153.9 48.1 153.1 48.3V47.3C153.9 47.1 154.6 47 155.4 47C157.5 47 158.6 47.7 158.6 49.2V54.1H157.9L157.5 53.4C156.8 53.9 156 54.1 155.2 54.1C153.3 54.2 152.5 53.5 152.5 52ZM155.4 50.9C154.3 50.9 153.8 51.3 153.8 52.1C153.8 52.9 154.2 53.3 155.1 53.3C156 53.3 156.7 53.1 157.3 52.6V51C156.6 50.9 156 50.9 155.4 50.9Z" fill="#002A90"/>
<path d="M159.9 47H161.3L163.4 52.6L165.4 47H166.8L163.9 54.2H162.7L159.9 47Z" fill="#002A90"/>
<path d="M171 47C173 47 174.1 48 174.1 50C174.1 50.3 174.1 50.6 174 50.9H169C169 52.4 169.9 53.1 171.6 53.1C172.4 53.1 173.1 53 173.8 52.8V53.8C173.2 54 172.4 54.1 171.5 54.1C169 54.1 167.8 52.9 167.8 50.4C167.7 48.2 168.8 47 171 47ZM169 49.9H172.9C172.9 48.6 172.3 48 171.1 48C169.8 48 169.1 48.7 169 49.9Z" fill="#002A90"/>
<path d="M186 53.8C185.1 54.1 184.1 54.2 182.8 54.2C180.7 54.2 179.6 53 179.6 50.5C179.6 48.2 180.7 47.1 183 47.1C183.6 47.1 184.2 47.2 184.8 47.4V44.5H186.1V53.8H186ZM184.7 48.5C184.2 48.3 183.6 48.1 183 48.1C181.6 48.1 180.8 48.9 180.8 50.4C180.8 52.2 181.5 53.1 183 53.1C183.7 53.1 184.2 53 184.7 52.8V48.5Z" fill="#002A90"/>
<path d="M191.4 47C193.4 47 194.5 48 194.5 50C194.5 50.3 194.5 50.6 194.4 50.9H189.4C189.4 52.4 190.3 53.1 192 53.1C192.8 53.1 193.5 53 194.2 52.8V53.8C193.6 54 192.8 54.1 191.9 54.1C189.4 54.1 188.2 52.9 188.2 50.4C188.1 48.2 189.2 47 191.4 47ZM189.3 49.9H193.2C193.2 48.6 192.6 48 191.4 48C190.1 48 189.4 48.7 189.3 49.9Z" fill="#002A90"/>
<path d="M201.7 44.4004V45.6004H200.4V44.4004H201.7ZM201.7 47.0004V54.2004H200.4V47.0004H201.7Z" fill="#002A90"/>
<path d="M204.2 54.2V47H205.1L205.3 47.9C206 47.3 206.8 47 207.7 47C209.5 47 210.4 47.9 210.4 49.7V54.2H209.1V49.7C209.1 48.6 208.6 48.1 207.5 48.1C206.8 48.1 206.1 48.4 205.4 49V54.2H204.2Z" fill="#002A90"/>
<path d="M212.8 45.9004H213.6L213.9 47.1004H215.8V48.1004H214V52.2004C214 52.9004 214.3 53.2004 214.9 53.2004H215.8V54.2004H214.6C213.4 54.2004 212.8 53.6004 212.8 52.3004V45.9004Z" fill="#002A90"/>
<path d="M220.7 47C222.7 47 223.8 48 223.8 50C223.8 50.3 223.8 50.6 223.7 50.9H218.7C218.7 52.4 219.6 53.1 221.3 53.1C222.1 53.1 222.8 53 223.5 52.8V53.8C222.9 54 222.1 54.1 221.2 54.1C218.7 54.1 217.5 52.9 217.5 50.4C217.4 48.2 218.5 47 220.7 47ZM218.7 49.9H222.6C222.6 48.6 222 48 220.8 48C219.4 48 218.7 48.7 218.7 49.9Z" fill="#002A90"/>
<path d="M225.8 54.2V47H226.7L226.9 47.9C227.5 47.3 228.3 47 229.2 47V48C228.3 48 227.7 48.3 227.1 48.9V54.1H225.8V54.2Z" fill="#002A90"/>
<path d="M230.8 54.2V47H231.7L231.9 47.9C232.6 47.3 233.4 47 234.3 47C236.1 47 237 47.9 237 49.7V54.2H235.7V49.7C235.7 48.6 235.2 48.1 234.1 48.1C233.4 48.1 232.7 48.4 232 49V54.2H230.8Z" fill="#002A90"/>
<path d="M242.3 47C244.3 47 245.4 48 245.4 50C245.4 50.3 245.4 50.6 245.3 50.9H240.3C240.3 52.4 241.2 53.1 242.9 53.1C243.7 53.1 244.4 53 245.1 52.8V53.8C244.5 54 243.7 54.1 242.8 54.1C240.3 54.1 239.1 52.9 239.1 50.4C239 48.2 240.1 47 242.3 47ZM240.3 49.9H244.2C244.2 48.6 243.6 48 242.4 48C241 48 240.4 48.7 240.3 49.9Z" fill="#002A90"/>
<path d="M247.4 45.9004H248.2L248.5 47.1004H250.4V48.1004H248.7V52.2004C248.7 52.9004 249 53.2004 249.6 53.2004H250.5V54.2004H249.3C248.1 54.2004 247.5 53.6004 247.5 52.3004V45.9004H247.4Z" fill="#002A90"/>
<path d="M153.8 75.0996C153.1 75.2996 152.4 75.3996 151.8 75.3996C150.1 75.3996 149.2 74.6996 149.2 73.3996C149.2 72.0996 150 71.3996 151.7 71.3996H152.1V69.9996H153V72.1996H151.7C150.6 72.1996 150.1 72.5996 150.1 73.3996C150.1 74.1996 150.7 74.5996 151.8 74.5996C152.4 74.5996 153.1 74.4996 153.8 74.2996V75.0996ZM152.1 68.9996V68.0996H153V68.9996H152.1Z" fill="#FF7800"/>
<path d="M154.9 69.7996C154.9 67.3996 156.1 66.0996 158.5 66.0996C160.9 66.0996 162.1 67.2996 162.1 69.7996C162.1 72.1996 160.9 73.3996 158.5 73.3996C156.1 73.3996 154.9 72.1996 154.9 69.7996ZM158.5 72.6996C160.2 72.6996 161.1 71.6996 161.1 69.7996C161.1 67.8996 160.2 66.8996 158.5 66.8996C156.7 66.8996 155.9 67.8996 155.9 69.7996C155.9 71.6996 156.7 72.6996 158.5 72.6996Z" fill="#FF7800"/>
<path d="M164.4 66.1992V73.3992H163.5V66.1992H164.4Z" fill="#FF7800"/>
<path d="M165.2 68.0996H166.2L167.7 72.2996L169.2 68.0996H170.2L168 73.3996H167.1L165.2 68.0996Z" fill="#FF7800"/>
<path d="M172 66.1992V67.0992H171.1V66.1992H172ZM172 68.0992V73.3992H171.1V68.0992H172Z" fill="#FF7800"/>
<path d="M178.1 73.0992C177.5 73.2992 176.7 73.3992 175.7 73.3992C174.1 73.3992 173.3 72.4992 173.3 70.5992C173.3 68.8992 174.1 68.0992 175.8 68.0992C176.3 68.0992 176.7 68.1992 177.1 68.3992V66.1992H178V73.0992H178.1ZM177.2 69.1992C176.8 68.9992 176.4 68.8992 175.9 68.8992C174.8 68.8992 174.3 69.4992 174.3 70.5992C174.3 71.8992 174.8 72.5992 175.9 72.5992C176.4 72.5992 176.8 72.4992 177.2 72.3992V69.1992Z" fill="#FF7800"/>
<path d="M179.4 71.7996C179.4 70.6996 180.1 70.1996 181.5 70.1996C182 70.1996 182.4 70.1996 182.9 70.2996V69.7996C182.9 69.1996 182.4 68.8996 181.5 68.8996C181 68.8996 180.4 68.9996 179.8 69.1996V68.3996C180.4 68.1996 180.9 68.0996 181.5 68.0996C183.1 68.0996 183.9 68.5996 183.9 69.6996V73.3996H183.4L183.1 72.8996C182.6 73.1996 182 73.3996 181.4 73.3996C180 73.3996 179.4 72.8996 179.4 71.7996ZM181.6 70.8996C180.8 70.8996 180.4 71.1996 180.4 71.7996C180.4 72.3996 180.7 72.6996 181.4 72.6996C182 72.6996 182.6 72.4996 183 72.1996V70.9996C182.5 70.9996 182 70.8996 181.6 70.8996Z" fill="#FF7800"/>
<path d="M185.3 73.1V72.3C185.9 72.5 186.6 72.6 187.2 72.6C188 72.6 188.5 72.3 188.5 71.8C188.5 71.3 188.2 71.1 187.6 71.1H186.8C185.7 71.1 185.1 70.6 185.1 69.5C185.1 68.5 185.8 68 187.3 68C187.9 68 188.6 68.1 189.2 68.3V69.1C188.6 68.9 188 68.8 187.3 68.8C186.4 68.8 186 69.1 186 69.6C186 70.1 186.3 70.3 186.8 70.3H187.6C188.8 70.3 189.4 70.8 189.4 71.9C189.4 72.9 188.7 73.4 187.2 73.4C186.6 73.4 186 73.3 185.3 73.1Z" fill="#FF7800"/>
<path d="M190.7 67.1992H191.3L191.5 68.0992H192.9V68.8992H191.6V71.8992C191.6 72.3992 191.8 72.5992 192.2 72.5992H192.8V73.3992H192C191.1 73.3992 190.7 72.8992 190.7 71.9992V67.1992Z" fill="#FF7800"/>
<path d="M196.3 68.0996C197.8 68.0996 198.6 68.7996 198.6 70.2996C198.6 70.4996 198.6 70.6996 198.6 70.9996H194.9C194.9 72.0996 195.5 72.5996 196.8 72.5996C197.4 72.5996 197.9 72.4996 198.4 72.3996V73.1996C197.9 73.2996 197.4 73.3996 196.7 73.3996C194.9 73.3996 194 72.4996 194 70.6996C193.8 68.9996 194.6 68.0996 196.3 68.0996ZM194.8 70.1996H197.7C197.7 69.2996 197.2 68.7996 196.3 68.7996C195.3 68.7996 194.8 69.2996 194.8 70.1996Z" fill="#FF7800"/>
<path d="M202.3 67.1992H202.9L203.1 68.0992H204.5V68.8992H203.2V71.8992C203.2 72.3992 203.4 72.5992 203.8 72.5992H204.4V73.3992H203.5C202.6 73.3992 202.2 72.8992 202.2 71.9992V67.1992H202.3Z" fill="#FF7800"/>
<path d="M210.3 68.0996V73.3996H209.7L209.5 72.6996C208.9 73.1996 208.2 73.3996 207.6 73.3996C206.4 73.3996 205.8 72.6996 205.8 71.3996V68.0996H206.7V71.3996C206.7 72.1996 207.1 72.5996 207.9 72.5996C208.4 72.5996 208.9 72.3996 209.4 71.8996V68.0996H210.3Z" fill="#FF7800"/>
<path d="M218.3 73.1992C217.9 73.2992 217.4 73.3992 216.9 73.3992C215 73.3992 214.1 72.4992 214.1 70.6992C214.1 68.9992 215 68.1992 216.9 68.1992C217.4 68.1992 217.9 68.2992 218.3 68.3992V68.9992C217.9 68.8992 217.4 68.7992 216.8 68.7992C215.6 68.7992 215 69.3992 215 70.5992C215 71.8992 215.6 72.5992 216.8 72.5992C217.3 72.5992 217.8 72.4992 218.3 72.3992V73.1992Z" fill="#FF7800"/>
<path d="M220.5 66.1992V73.3992H219.6V66.1992H220.5Z" fill="#FF7800"/>
<path d="M221.8 71.7996C221.8 70.6996 222.5 70.1996 223.9 70.1996C224.4 70.1996 224.8 70.1996 225.3 70.2996V69.7996C225.3 69.1996 224.8 68.8996 223.9 68.8996C223.4 68.8996 222.8 68.9996 222.2 69.1996V68.3996C222.8 68.1996 223.3 68.0996 223.9 68.0996C225.5 68.0996 226.3 68.5996 226.3 69.6996V73.3996H225.8L225.5 72.8996C225 73.1996 224.4 73.3996 223.8 73.3996C222.4 73.3996 221.8 72.8996 221.8 71.7996ZM223.9 70.8996C223.1 70.8996 222.7 71.1996 222.7 71.7996C222.7 72.3996 223 72.6996 223.7 72.6996C224.3 72.6996 224.9 72.4996 225.3 72.1996V70.9996C224.8 70.9996 224.4 70.8996 223.9 70.8996Z" fill="#FF7800"/>
<path d="M227 68.0996H228L229.5 72.2996L231 68.0996H232L229.8 73.3996H229L227 68.0996Z" fill="#FF7800"/>
<path d="M235 68.0996C236.5 68.0996 237.3 68.7996 237.3 70.2996C237.3 70.4996 237.3 70.6996 237.3 70.9996H233.6C233.6 72.0996 234.2 72.5996 235.5 72.5996C236.1 72.5996 236.6 72.4996 237.1 72.3996V73.1996C236.6 73.2996 236.1 73.3996 235.4 73.3996C233.6 73.3996 232.7 72.4996 232.7 70.6996C232.5 68.9996 233.4 68.0996 235 68.0996ZM233.5 70.1996H236.4C236.4 69.2996 235.9 68.7996 235 68.7996C234 68.7996 233.5 69.2996 233.5 70.1996Z" fill="#FF7800"/>
<path d="M238.2 66.3996C238.9 66.1996 239.6 66.0996 240.2 66.0996C241.9 66.0996 242.8 66.7996 242.8 68.0996C242.8 69.3996 242 70.0996 240.3 70.0996H239.9V71.4996H239V69.2996H240.3C241.4 69.2996 241.9 68.8996 241.9 68.0996C241.9 67.2996 241.3 66.8996 240.2 66.8996C239.6 66.8996 238.9 66.9996 238.2 67.1996V66.3996ZM239.9 72.4996V73.3996H239V72.4996H239.9Z" fill="#FF7800"/>
<path d="M137.8 104.2C139.899 104.2 141.6 102.498 141.6 100.4C141.6 98.3009 139.899 96.5996 137.8 96.5996C135.701 96.5996 134 98.3009 134 100.4C134 102.498 135.701 104.2 137.8 104.2Z" stroke="#D2D5DA" stroke-width="0.4801" stroke-miterlimit="10"/>
<path d="M161.1 104.2C163.199 104.2 164.9 102.498 164.9 100.4C164.9 98.3009 163.199 96.5996 161.1 96.5996C159.001 96.5996 157.3 98.3009 157.3 100.4C157.3 102.498 159.001 104.2 161.1 104.2Z" stroke="#D2D5DA" stroke-width="0.4801" stroke-miterlimit="10"/>
<path d="M184.4 104.2C186.499 104.2 188.2 102.498 188.2 100.4C188.2 98.3009 186.499 96.5996 184.4 96.5996C182.301 96.5996 180.6 98.3009 180.6 100.4C180.6 102.498 182.301 104.2 184.4 104.2Z" stroke="#D2D5DA" stroke-width="0.4801" stroke-miterlimit="10"/>
<path d="M207.6 104.2C209.699 104.2 211.4 102.498 211.4 100.4C211.4 98.3009 209.699 96.5996 207.6 96.5996C205.501 96.5996 203.8 98.3009 203.8 100.4C203.8 102.498 205.501 104.2 207.6 104.2Z" stroke="#D2D5DA" stroke-width="0.4801" stroke-miterlimit="10"/>
<path d="M230.9 104.2C232.999 104.2 234.7 102.498 234.7 100.4C234.7 98.3009 232.999 96.5996 230.9 96.5996C228.801 96.5996 227.1 98.3009 227.1 100.4C227.1 102.498 228.801 104.2 230.9 104.2Z" stroke="#D2D5DA" stroke-width="0.4801" stroke-miterlimit="10"/>
<path d="M254.2 104.2C256.299 104.2 258 102.498 258 100.4C258 98.3009 256.299 96.5996 254.2 96.5996C252.101 96.5996 250.4 98.3009 250.4 100.4C250.4 102.498 252.101 104.2 254.2 104.2Z" stroke="#D2D5DA" stroke-width="0.4801" stroke-miterlimit="10"/>
<path d="M124.3 187.6C137.334 187.6 147.9 177.034 147.9 164C147.9 150.966 137.334 140.4 124.3 140.4C111.266 140.4 100.7 150.966 100.7 164C100.7 177.034 111.266 187.6 124.3 187.6Z" fill="#F5F6F8"/>
<path d="M119.5 165.8C119.5 164.6 120.1 163.7 121.2 163.1C120.3 162.6 119.8 161.7 119.8 160.5C119.8 158.5 121.2 157.5 124.1 157.5C127 157.5 128.4 158.5 128.4 160.5C128.4 161.7 127.9 162.6 127 163.1C128.2 163.7 128.8 164.6 128.8 165.8C128.8 168.2 127.3 169.4 124.3 169.4C121 169.4 119.5 168.2 119.5 165.8ZM126.5 165.9C126.5 164.7 125.7 164.2 124.1 164.2C122.5 164.2 121.7 164.8 121.7 165.9C121.7 167 122.5 167.5 124.2 167.5C125.7 167.5 126.5 167 126.5 165.9ZM126.2 160.7C126.2 159.8 125.5 159.4 124.1 159.4C122.7 159.4 122 159.8 122 160.7C122 161.7 122.7 162.2 124.1 162.2C125.5 162.3 126.2 161.8 126.2 160.7Z" fill="#1F2E43"/>
<path d="M196 187.6C209.034 187.6 219.6 177.034 219.6 164C219.6 150.966 209.034 140.4 196 140.4C182.966 140.4 172.4 150.966 172.4 164C172.4 177.034 182.966 187.6 196 187.6Z" fill="#F5F6F8"/>
<path d="M195 169.3V159.4H193.8V158.5L197.2 157.4V169.3H195Z" fill="#1F2E43"/>
<path d="M267.7 187.6C280.734 187.6 291.3 177.034 291.3 164C291.3 150.966 280.734 140.4 267.7 140.4C254.666 140.4 244.1 150.966 244.1 164C244.1 177.034 254.666 187.6 267.7 187.6Z" fill="#F5F6F8"/>
<path d="M272.1 162.1C272.1 165.1 270.2 167.6 266.5 169.7L265.5 168C267.4 167.1 268.7 166 269.5 164.7C268.8 165 268.2 165.1 267.5 165.1C264.6 165.1 263.2 163.9 263.2 161.4C263.2 158.8 264.7 157.5 267.8 157.5C270.7 157.5 272.1 159 272.1 162.1ZM267.7 159.2C266.1 159.2 265.3 159.9 265.3 161.4C265.3 162.7 266 163.4 267.5 163.4C268.3 163.4 269.1 163.3 269.9 163C270 162.8 270 162.5 270 162.1C270.1 160.2 269.3 159.2 267.7 159.2Z" fill="#1F2E43"/>
<path d="M124.3 245.001C137.334 245.001 147.9 234.435 147.9 221.401C147.9 208.367 137.334 197.801 124.3 197.801C111.266 197.801 100.7 208.367 100.7 221.401C100.7 234.435 111.266 245.001 124.3 245.001Z" fill="#F5F6F8"/>
<path d="M120.1 215H128.4V216.7L123.1 226.7H120.7L126 216.9H120V215H120.1Z" fill="#1F2E43"/>
<path d="M196 245.001C209.034 245.001 219.6 234.435 219.6 221.401C219.6 208.367 209.034 197.801 196 197.801C182.966 197.801 172.4 208.367 172.4 221.401C172.4 234.435 182.966 245.001 196 245.001Z" fill="#F5F6F8"/>
<path d="M199.4 226.7H197.2V224.2H191.3V222.6L196.1 215.1H198.4L193.8 222.5H197.2V218.6H199.4V222.5L200.6 223.6V224.2H199.4V226.7Z" fill="#1F2E43"/>
<path d="M267.7 245.001C280.734 245.001 291.3 234.435 291.3 221.401C291.3 208.367 280.734 197.801 267.7 197.801C254.666 197.801 244.1 208.367 244.1 221.401C244.1 234.435 254.666 245.001 267.7 245.001Z" fill="#F5F6F8"/>
<path d="M262.3 220.8C262.3 216.8 264 214.9 267.5 214.9C270.9 214.9 272.6 216.9 272.6 220.8C272.6 224.7 270.9 226.7 267.5 226.7C264.1 226.8 262.3 224.8 262.3 220.8ZM267.5 224.9C269.4 224.9 270.4 223.5 270.4 220.8C270.4 218.1 269.4 216.8 267.5 216.8C265.5 216.8 264.5 218.1 264.5 220.8C264.6 223.5 265.6 224.9 267.5 224.9Z" fill="#1F2E43"/>
<path d="M284.6 21.8992L284.3 21.5992C284.1 21.3992 284.1 21.1992 284.3 20.9992L292.2 13.0992C292.4 12.8992 292.6 12.8992 292.8 13.0992L293.1 13.3992C293.3 13.5992 293.3 13.7992 293.1 13.9992L285.2 21.8992C285 22.0992 284.7 22.0992 284.6 21.8992Z" fill="#606D80"/>
<path d="M293.1 21.5992L292.8 21.8992C292.6 22.0992 292.4 22.0992 292.2 21.8992L284.3 13.9992C284.1 13.7992 284.1 13.5992 284.3 13.3992L284.6 13.0992C284.8 12.8992 285 12.8992 285.2 13.0992L293.1 20.9992C293.2 21.1992 293.2 21.4992 293.1 21.5992Z" fill="#606D80"/>
</svg>
