<svg width="392" height="262" viewBox="0 0 392 262" fill="none" xmlns="http://www.w3.org/2000/svg">
<path d="M392 0H0V262H392V0Z" fill="#F6F6F6"/>
<path d="M313 125.899H79C77 125.899 75.5 124.299 75.5 122.399V106.199C75.5 104.199 77.1 102.699 79 102.699H313C315 102.699 316.5 104.299 316.5 106.199V122.399C316.5 124.299 314.9 125.899 313 125.899Z" fill="white"/>
<path d="M313 157.501H79C77 157.501 75.5 155.901 75.5 154.001V137.801C75.5 135.801 77.1 134.301 79 134.301H313C315 134.301 316.5 135.901 316.5 137.801V154.001C316.5 156.001 314.9 157.501 313 157.501Z" fill="white"/>
<path d="M313 189.2H79C77 189.2 75.5 187.6 75.5 185.7V169.5C75.5 167.5 77.1 166 79 166H313C315 166 316.5 167.6 316.5 169.5V185.7C316.5 187.6 314.9 189.2 313 189.2Z" fill="white"/>
<path d="M313 220.8H79C77 220.8 75.5 219.2 75.5 217.3V201C75.5 199 77.1 197.5 79 197.5H313C315 197.5 316.5 199.1 316.5 201V217.2C316.5 219.2 314.9 220.8 313 220.8Z" fill="white"/>
<path d="M313 252.399H79C77 252.399 75.5 250.799 75.5 248.899V232.699C75.5 230.699 77.1 229.199 79 229.199H313C315 229.199 316.5 230.799 316.5 232.699V248.899C316.5 250.799 314.9 252.399 313 252.399Z" fill="white"/>
<path d="M151.4 22.5008V13.8008H155.3C157.1 13.8008 157.9 14.6008 157.9 16.2008C157.9 18.0008 156.7 19.0008 154.3 19.4008L154.1 18.0008C155.6 17.7008 156.3 17.2008 156.3 16.3008C156.3 15.6008 155.9 15.2008 155.2 15.2008H153V22.4008H151.4V22.5008Z" fill="#0050B1"/>
<path d="M158.5 20.5C158.5 19.2 159.4 18.6 161.3 18.6C161.7 18.6 162.2 18.6 162.6 18.7V18.2C162.6 17.6 162.2 17.3 161.4 17.3C160.7 17.3 159.9 17.4 159.1 17.6V16.3C159.9 16.1 160.7 16 161.4 16C163.3 16 164.2 16.7 164.2 18.1V22.4H163.3L162.7 21.8C162.1 22.2 161.5 22.4 160.9 22.4C159.3 22.5 158.5 21.8 158.5 20.5ZM161.3 19.7C160.5 19.7 160.1 20 160.1 20.5C160.1 21.1 160.4 21.3 161.1 21.3C161.6 21.3 162.1 21.1 162.6 20.8V19.8C162.2 19.7 161.8 19.7 161.3 19.7Z" fill="#0050B1"/>
<path d="M171.4 22.0016C171.4 23.9016 170.3 24.8016 168.1 24.8016C167.3 24.8016 166.6 24.7016 166 24.5016V23.2016C166.6 23.4016 167.3 23.5016 168.1 23.5016C169.3 23.5016 169.8 23.0016 169.8 22.0016C169.3 22.2016 168.8 22.3016 168.3 22.3016C166.4 22.3016 165.5 21.3016 165.5 19.2016C165.5 17.1016 166.6 16.1016 168.8 16.1016C169.5 16.1016 170.4 16.2016 171.5 16.4016V22.0016H171.4ZM169.8 17.6016C169.5 17.5016 169.2 17.5016 168.7 17.5016C167.6 17.5016 167 18.1016 167 19.3016C167 20.5016 167.5 21.1016 168.4 21.1016C168.9 21.1016 169.3 21.0016 169.7 20.8016V17.6016H169.8Z" fill="#0050B1"/>
<path d="M172.6 19.3016C172.6 17.2016 173.6 16.1016 175.7 16.1016C177.8 16.1016 178.8 17.2016 178.8 19.3016C178.8 21.4016 177.8 22.5016 175.7 22.5016C173.6 22.5016 172.6 21.4016 172.6 19.3016ZM175.7 21.3016C176.7 21.3016 177.2 20.6016 177.2 19.3016C177.2 18.0016 176.7 17.4016 175.7 17.4016C174.7 17.4016 174.2 18.0016 174.2 19.3016C174.2 20.6016 174.7 21.3016 175.7 21.3016Z" fill="#0050B1"/>
<path d="M188.4 22.1004C187.4 22.4004 186.5 22.5004 185.6 22.5004C183.5 22.5004 182.5 21.4004 182.5 19.2004C182.5 17.2004 183.5 16.2004 185.5 16.2004C185.9 16.2004 186.4 16.3004 186.8 16.5004V13.9004H188.4V22.1004ZM186.8 17.8004C186.5 17.6004 186.1 17.5004 185.6 17.5004C184.6 17.5004 184.1 18.1004 184.1 19.2004C184.1 20.5004 184.6 21.2004 185.7 21.2004C186.1 21.2004 186.5 21.1004 186.9 21.0004V17.8004H186.8Z" fill="#0050B1"/>
<path d="M192.6 16.1016C194.5 16.1016 195.5 17.1016 195.5 19.1016C195.5 19.4016 195.5 19.6016 195.4 19.9016H191.2C191.2 20.8016 191.9 21.2016 193.2 21.2016C193.8 21.2016 194.5 21.1016 195.1 21.0016V22.3016C194.5 22.4016 193.9 22.5016 193.1 22.5016C190.8 22.5016 189.6 21.4016 189.6 19.3016C189.6 17.2016 190.6 16.1016 192.6 16.1016ZM191.2 18.8016H193.9C193.9 17.9016 193.5 17.5016 192.6 17.5016C191.8 17.4016 191.3 17.8016 191.2 18.8016Z" fill="#0050B1"/>
<path d="M199.4 22.2016V20.9016C200.1 21.2016 200.9 21.3016 201.8 21.3016C202.5 21.3016 202.8 21.1016 202.8 20.6016C202.8 20.2016 202.6 20.0016 202.1 20.0016H201C199.7 20.0016 199.1 19.4016 199.1 18.1016C199.1 16.8016 200 16.1016 201.9 16.1016C202.7 16.1016 203.5 16.2016 204.2 16.5016V17.8016C203.5 17.5016 202.7 17.4016 201.9 17.4016C201 17.4016 200.6 17.6016 200.6 18.1016C200.6 18.5016 200.9 18.7016 201.4 18.7016H202.4C203.8 18.7016 204.5 19.3016 204.5 20.6016C204.5 21.9016 203.6 22.6016 201.8 22.6016C200.9 22.5016 200.2 22.4016 199.4 22.2016Z" fill="#0050B1"/>
<path d="M208.3 16.1016C210.2 16.1016 211.2 17.1016 211.2 19.1016C211.2 19.4016 211.2 19.6016 211.1 19.9016H206.9C206.9 20.8016 207.6 21.2016 208.9 21.2016C209.5 21.2016 210.2 21.1016 210.8 21.0016V22.3016C210.2 22.4016 209.6 22.5016 208.8 22.5016C206.5 22.5016 205.3 21.4016 205.3 19.3016C205.3 17.2016 206.3 16.1016 208.3 16.1016ZM206.9 18.8016H209.6C209.6 17.9016 209.2 17.5016 208.3 17.5016C207.5 17.4016 207 17.8016 206.9 18.8016Z" fill="#0050B1"/>
<path d="M212.4 22.5016V16.1016H213.6L213.8 16.9016C214.4 16.4016 214.9 16.1016 215.6 16.1016V17.4016C215 17.4016 214.5 17.6016 214 18.1016V22.4016H212.4V22.5016Z" fill="#0050B1"/>
<path d="M215.8 16.1016H217.5L219 20.5016L220.6 16.1016H222.3L219.7 22.5016H218.2L215.8 16.1016Z" fill="#0050B1"/>
<path d="M224.7 13.8008V15.1008H223.1V13.8008H224.7ZM224.7 16.1008V22.5008H223.1V16.1008H224.7Z" fill="#0050B1"/>
<path d="M230.9 22.3016C230.4 22.4016 229.8 22.5016 229.3 22.5016C227 22.5016 225.9 21.4016 225.9 19.2016C225.9 17.2016 227 16.1016 229.3 16.1016C229.9 16.1016 230.4 16.2016 230.9 16.3016V17.6016C230.4 17.5016 229.9 17.4016 229.4 17.4016C228.1 17.4016 227.5 18.0016 227.5 19.2016C227.5 20.6016 228.1 21.2016 229.4 21.2016C229.9 21.2016 230.4 21.1016 230.9 21.0016V22.3016Z" fill="#0050B1"/>
<path d="M233.5 13.8008V15.1008H231.9V13.8008H233.5ZM233.5 16.1008V22.5008H231.9V16.1008H233.5Z" fill="#0050B1"/>
<path d="M234.7 19.3016C234.7 17.2016 235.7 16.1016 237.8 16.1016C239.9 16.1016 240.9 17.2016 240.9 19.3016C240.9 21.4016 239.9 22.5016 237.8 22.5016C235.8 22.5016 234.7 21.4016 234.7 19.3016ZM237.9 21.3016C238.9 21.3016 239.4 20.6016 239.4 19.3016C239.4 18.0016 238.9 17.4016 237.9 17.4016C236.9 17.4016 236.4 18.0016 236.4 19.3016C236.3 20.6016 236.9 21.3016 237.9 21.3016Z" fill="#0050B1"/>
<path d="M135.4 34.3V29H137.9C138.9 29 139.4 29.4 139.4 30.2C139.4 30.8 139.1 31.2 138.4 31.5C139.1 31.6 139.5 32 139.5 32.7C139.5 33.7 138.9 34.3 137.8 34.3H135.4ZM137.7 33.4C138.1 33.4 138.4 33.2 138.4 32.7C138.4 32.1 138.1 31.9 137.4 31.9H137.1V31.3C137.9 31.2 138.3 30.8 138.3 30.3C138.3 30 138.1 29.9 137.8 29.9H136.4V33.5H137.7V33.4Z" fill="#7CA2CB"/>
<path d="M143.7 30.4004V34.3004H142.9L142.8 33.8004C142.4 34.1004 141.9 34.3004 141.4 34.3004C140.6 34.3004 140.2 33.8004 140.2 32.9004V30.4004H141.2V32.9004C141.2 33.3004 141.4 33.5004 141.8 33.5004C142.1 33.5004 142.4 33.4004 142.8 33.1004V30.4004H143.7Z" fill="#7CA2CB"/>
<path d="M144.6 34.1004V33.3004C145 33.5004 145.5 33.6004 146.1 33.6004C146.5 33.6004 146.7 33.5004 146.7 33.2004C146.7 32.9004 146.6 32.8004 146.3 32.8004H145.6C144.8 32.8004 144.4 32.4004 144.4 31.6004C144.4 30.8004 145 30.4004 146.1 30.4004C146.6 30.4004 147.1 30.5004 147.5 30.6004V31.4004C147.1 31.2004 146.6 31.1004 146.1 31.1004C145.6 31.1004 145.3 31.2004 145.3 31.5004C145.3 31.8004 145.5 31.9004 145.8 31.9004H146.4C147.3 31.9004 147.7 32.3004 147.7 33.1004C147.7 33.9004 147.1 34.3004 146 34.3004C145.5 34.3004 145 34.2004 144.6 34.1004Z" fill="#7CA2CB"/>
<path d="M151.3 34.2004C151 34.3004 150.6 34.3004 150.3 34.3004C148.9 34.3004 148.2 33.6004 148.2 32.3004C148.2 31.1004 148.9 30.4004 150.3 30.4004C150.6 30.4004 151 30.4004 151.3 30.5004V31.3004C151 31.2004 150.7 31.2004 150.4 31.2004C149.6 31.2004 149.2 31.6004 149.2 32.3004C149.2 33.1004 149.6 33.5004 150.4 33.5004C150.7 33.5004 151 33.5004 151.3 33.4004V34.2004Z" fill="#7CA2CB"/>
<path d="M151.7 33.1004C151.7 32.3004 152.3 31.9004 153.4 31.9004C153.7 31.9004 153.9 31.9004 154.2 32.0004V31.7004C154.2 31.4004 153.9 31.2004 153.4 31.2004C153 31.2004 152.5 31.3004 152 31.4004V30.6004C152.5 30.5004 153 30.4004 153.4 30.4004C154.6 30.4004 155.1 30.8004 155.1 31.7004V34.3004H154.5L154.2 34.0004C153.9 34.2004 153.5 34.3004 153.1 34.3004C152.2 34.3004 151.7 33.9004 151.7 33.1004ZM153.4 32.6004C152.9 32.6004 152.7 32.8004 152.7 33.1004C152.7 33.4004 152.9 33.6004 153.3 33.6004C153.6 33.6004 153.9 33.5004 154.2 33.3004V32.7004C154 32.6004 153.7 32.6004 153.4 32.6004Z" fill="#7CA2CB"/>
<path d="M158.8 29V34.3H157.8V29H158.8Z" fill="#7CA2CB"/>
<path d="M159.5 33.1004C159.5 32.3004 160.1 31.9004 161.2 31.9004C161.5 31.9004 161.7 31.9004 162 32.0004V31.7004C162 31.4004 161.7 31.2004 161.2 31.2004C160.8 31.2004 160.3 31.3004 159.8 31.4004V30.6004C160.3 30.5004 160.8 30.4004 161.2 30.4004C162.4 30.4004 162.9 30.8004 162.9 31.7004V34.3004H162.3L162 34.0004C161.7 34.2004 161.3 34.3004 160.9 34.3004C160 34.3004 159.5 33.9004 159.5 33.1004ZM161.2 32.6004C160.7 32.6004 160.5 32.8004 160.5 33.1004C160.5 33.4004 160.7 33.6004 161.1 33.6004C161.4 33.6004 161.7 33.5004 162 33.3004V32.7004C161.8 32.6004 161.5 32.6004 161.2 32.6004Z" fill="#7CA2CB"/>
<path d="M167.2 30.4004C168.4 30.4004 169 31.0004 169 32.2004C169 32.4004 169 32.5004 169 32.7004H166.4C166.4 33.2004 166.8 33.5004 167.6 33.5004C168 33.5004 168.4 33.5004 168.8 33.4004V34.2004C168.5 34.3004 168 34.3004 167.5 34.3004C166.1 34.3004 165.4 33.6004 165.4 32.3004C165.4 31.0004 166 30.4004 167.2 30.4004ZM166.4 32.0004H168.1C168.1 31.5004 167.8 31.2004 167.3 31.2004C166.7 31.2004 166.4 31.4004 166.4 32.0004Z" fill="#7CA2CB"/>
<path d="M169.7 34.3004V30.4004H170.5L170.6 31.0004C170.9 30.6004 171.4 30.4004 171.9 30.4004C172.4 30.4004 172.7 30.6004 172.9 30.9004C173.3 30.5004 173.7 30.4004 174.2 30.4004C175.1 30.4004 175.5 30.9004 175.5 31.9004V34.3004H174.5V31.8004C174.5 31.4004 174.3 31.2004 173.9 31.2004C173.6 31.2004 173.3 31.3004 173.1 31.6004V34.3004H172.1V31.9004C172.1 31.5004 171.9 31.2004 171.6 31.2004C171.3 31.2004 171 31.3004 170.8 31.6004V34.3004H169.7Z" fill="#7CA2CB"/>
<path d="M176.4 30.5008C176.9 30.4008 177.5 30.3008 178 30.3008C179.3 30.3008 180 30.9008 180 32.2008C180 33.6008 179.4 34.2008 178.2 34.2008C177.9 34.2008 177.7 34.1008 177.4 34.0008V35.6008H176.4V30.5008ZM177.4 33.3008C177.6 33.4008 177.9 33.5008 178.2 33.5008C178.8 33.5008 179.1 33.1008 179.1 32.3008C179.1 31.6008 178.8 31.3008 178.1 31.3008C177.8 31.3008 177.6 31.3008 177.4 31.4008V33.3008Z" fill="#7CA2CB"/>
<path d="M180.8 34.3004V30.4004H181.6L181.7 30.9004C182 30.6004 182.4 30.4004 182.8 30.4004V31.2004C182.4 31.2004 182.1 31.4004 181.8 31.7004V34.3004H180.8Z" fill="#7CA2CB"/>
<path d="M184.9 30.4004C186.1 30.4004 186.7 31.0004 186.7 32.2004C186.7 32.4004 186.7 32.5004 186.7 32.7004H184.1C184.1 33.2004 184.5 33.5004 185.3 33.5004C185.7 33.5004 186.1 33.5004 186.5 33.4004V34.2004C186.2 34.3004 185.7 34.3004 185.2 34.3004C183.8 34.3004 183.1 33.6004 183.1 32.3004C183.1 31.0004 183.7 30.4004 184.9 30.4004ZM184.1 32.0004H185.8C185.8 31.5004 185.5 31.2004 185 31.2004C184.4 31.2004 184.1 31.4004 184.1 32.0004Z" fill="#7CA2CB"/>
<path d="M187.4 34.1004V33.3004C187.8 33.5004 188.3 33.6004 188.9 33.6004C189.3 33.6004 189.5 33.5004 189.5 33.2004C189.5 32.9004 189.4 32.8004 189.1 32.8004H188.4C187.6 32.8004 187.2 32.4004 187.2 31.6004C187.2 30.8004 187.8 30.4004 188.9 30.4004C189.4 30.4004 189.9 30.5004 190.3 30.6004V31.4004C189.9 31.2004 189.4 31.1004 188.9 31.1004C188.4 31.1004 188.1 31.2004 188.1 31.5004C188.1 31.8004 188.3 31.9004 188.6 31.9004H189.2C190.1 31.9004 190.5 32.3004 190.5 33.1004C190.5 33.9004 189.9 34.3004 188.8 34.3004C188.4 34.3004 187.9 34.2004 187.4 34.1004Z" fill="#7CA2CB"/>
<path d="M191.1 33.1004C191.1 32.3004 191.7 31.9004 192.8 31.9004C193.1 31.9004 193.3 31.9004 193.6 32.0004V31.7004C193.6 31.4004 193.3 31.2004 192.8 31.2004C192.4 31.2004 191.9 31.3004 191.4 31.4004V30.6004C191.9 30.5004 192.4 30.4004 192.8 30.4004C194 30.4004 194.5 30.8004 194.5 31.7004V34.3004H194L193.7 34.0004C193.4 34.2004 193 34.3004 192.6 34.3004C191.5 34.3004 191.1 33.9004 191.1 33.1004ZM192.8 32.6004C192.3 32.6004 192.1 32.8004 192.1 33.1004C192.1 33.4004 192.3 33.6004 192.7 33.6004C193 33.6004 193.3 33.5004 193.6 33.3004V32.7004C193.3 32.6004 193 32.6004 192.8 32.6004Z" fill="#7CA2CB"/>
<path d="M200.6 35.7004H199.6V34.1004C199.3 34.2004 199 34.3004 198.7 34.3004C197.5 34.3004 196.9 33.6004 196.9 32.3004C196.9 31.0004 197.6 30.4004 198.9 30.4004C199.4 30.4004 199.9 30.5004 200.5 30.6004V35.7004H200.6ZM199.6 31.3004C199.4 31.2004 199.1 31.2004 199 31.2004C198.3 31.2004 197.9 31.6004 197.9 32.3004C197.9 33.1004 198.2 33.5004 198.8 33.5004C199.1 33.5004 199.4 33.4004 199.6 33.3004V31.3004Z" fill="#7CA2CB"/>
<path d="M205 30.4004V34.3004H204.2L204.1 33.8004C203.7 34.1004 203.2 34.3004 202.7 34.3004C201.9 34.3004 201.5 33.8004 201.5 32.9004V30.4004H202.5V32.9004C202.5 33.3004 202.7 33.5004 203.1 33.5004C203.4 33.5004 203.7 33.4004 204.1 33.1004V30.4004H205Z" fill="#7CA2CB"/>
<path d="M207.6 30.4004C208.8 30.4004 209.4 31.0004 209.4 32.2004C209.4 32.4004 209.4 32.5004 209.4 32.7004H206.8C206.8 33.2004 207.2 33.5004 208 33.5004C208.4 33.5004 208.8 33.5004 209.2 33.4004V34.2004C208.9 34.3004 208.4 34.3004 207.9 34.3004C206.5 34.3004 205.8 33.6004 205.8 32.3004C205.8 31.0004 206.4 30.4004 207.6 30.4004ZM206.8 32.0004H208.5C208.5 31.5004 208.2 31.2004 207.7 31.2004C207.1 31.2004 206.8 31.4004 206.8 32.0004Z" fill="#7CA2CB"/>
<path d="M215.2 34C214.6 34.2 214 34.2 213.5 34.2C212.2 34.2 211.6 33.5 211.6 32.2C211.6 31 212.2 30.3 213.4 30.3C213.7 30.3 213.9 30.4 214.2 30.5V29H215.2V34ZM214.3 31.4C214.1 31.3 213.8 31.2 213.5 31.2C212.9 31.2 212.6 31.5 212.6 32.2C212.6 33 212.9 33.4 213.6 33.4C213.9 33.4 214.1 33.4 214.3 33.3V31.4Z" fill="#7CA2CB"/>
<path d="M217.8 30.4004C219 30.4004 219.6 31.0004 219.6 32.2004C219.6 32.4004 219.6 32.5004 219.6 32.7004H217C217 33.2004 217.4 33.5004 218.2 33.5004C218.6 33.5004 219 33.5004 219.4 33.4004V34.2004C219.1 34.3004 218.6 34.3004 218.1 34.3004C216.7 34.3004 216 33.6004 216 32.3004C216 31.0004 216.6 30.4004 217.8 30.4004ZM217 32.0004H218.7C218.7 31.5004 218.4 31.2004 217.9 31.2004C217.3 31.2004 217 31.4004 217 32.0004Z" fill="#7CA2CB"/>
<path d="M220.3 34.1004V33.3004C220.7 33.5004 221.2 33.6004 221.8 33.6004C222.2 33.6004 222.4 33.5004 222.4 33.2004C222.4 32.9004 222.3 32.8004 222 32.8004H221.3C220.5 32.8004 220.1 32.4004 220.1 31.6004C220.1 30.8004 220.7 30.4004 221.8 30.4004C222.3 30.4004 222.8 30.5004 223.2 30.6004V31.4004C222.8 31.2004 222.3 31.1004 221.8 31.1004C221.3 31.1004 221 31.2004 221 31.5004C221 31.8004 221.2 31.9004 221.5 31.9004H222.1C223 31.9004 223.4 32.3004 223.4 33.1004C223.4 33.9004 222.8 34.3004 221.7 34.3004C221.2 34.3004 220.7 34.2004 220.3 34.1004Z" fill="#7CA2CB"/>
<path d="M225.8 30.4004C227 30.4004 227.6 31.0004 227.6 32.2004C227.6 32.4004 227.6 32.5004 227.6 32.7004H225C225 33.2004 225.4 33.5004 226.2 33.5004C226.6 33.5004 227 33.5004 227.4 33.4004V34.2004C227.1 34.3004 226.6 34.3004 226.1 34.3004C224.7 34.3004 224 33.6004 224 32.3004C223.9 31.0004 224.5 30.4004 225.8 30.4004ZM224.9 32.0004H226.6C226.6 31.5004 226.3 31.2004 225.8 31.2004C225.2 31.2004 225 31.4004 224.9 32.0004Z" fill="#7CA2CB"/>
<path d="M228.1 33.1004C228.1 32.3004 228.7 31.9004 229.8 31.9004C230.1 31.9004 230.3 31.9004 230.6 32.0004V31.7004C230.6 31.4004 230.3 31.2004 229.8 31.2004C229.4 31.2004 228.9 31.3004 228.4 31.4004V30.6004C228.9 30.5004 229.4 30.4004 229.8 30.4004C231 30.4004 231.5 30.8004 231.5 31.7004V34.3004H231L230.7 34.0004C230.4 34.2004 230 34.3004 229.6 34.3004C228.6 34.3004 228.1 33.9004 228.1 33.1004ZM229.8 32.6004C229.3 32.6004 229.1 32.8004 229.1 33.1004C229.1 33.4004 229.3 33.6004 229.7 33.6004C230 33.6004 230.3 33.5004 230.6 33.3004V32.7004C230.3 32.6004 230.1 32.6004 229.8 32.6004Z" fill="#7CA2CB"/>
<path d="M232.5 34.1004V33.3004C232.9 33.5004 233.4 33.6004 234 33.6004C234.4 33.6004 234.6 33.5004 234.6 33.2004C234.6 32.9004 234.5 32.8004 234.2 32.8004H233.5C232.7 32.8004 232.3 32.4004 232.3 31.6004C232.3 30.8004 232.9 30.4004 234 30.4004C234.5 30.4004 235 30.5004 235.4 30.6004V31.4004C235 31.2004 234.5 31.1004 234 31.1004C233.5 31.1004 233.2 31.2004 233.2 31.5004C233.2 31.8004 233.4 31.9004 233.7 31.9004H234.3C235.2 31.9004 235.6 32.3004 235.6 33.1004C235.6 33.9004 235 34.3004 233.9 34.3004C233.4 34.3004 232.9 34.2004 232.5 34.1004Z" fill="#7CA2CB"/>
<path d="M238 30.5008C238.5 30.4008 239.1 30.3008 239.6 30.3008C240.9 30.3008 241.6 30.9008 241.6 32.2008C241.6 33.6008 241 34.2008 239.8 34.2008C239.5 34.2008 239.3 34.1008 239 34.0008V35.6008H238V30.5008ZM238.9 33.3008C239.1 33.4008 239.4 33.5008 239.7 33.5008C240.3 33.5008 240.6 33.1008 240.6 32.3008C240.6 31.6008 240.3 31.3008 239.6 31.3008C239.3 31.3008 239.1 31.3008 238.9 31.4008V33.3008Z" fill="#7CA2CB"/>
<path d="M242.1 33.1004C242.1 32.3004 242.7 31.9004 243.8 31.9004C244.1 31.9004 244.3 31.9004 244.6 32.0004V31.7004C244.6 31.4004 244.3 31.2004 243.8 31.2004C243.4 31.2004 242.9 31.3004 242.4 31.4004V30.6004C242.9 30.5004 243.4 30.4004 243.8 30.4004C245 30.4004 245.5 30.8004 245.5 31.7004V34.3004H245L244.7 34.0004C244.4 34.2004 244 34.3004 243.6 34.3004C242.6 34.3004 242.1 33.9004 242.1 33.1004ZM243.8 32.6004C243.3 32.6004 243.1 32.8004 243.1 33.1004C243.1 33.4004 243.3 33.6004 243.7 33.6004C244 33.6004 244.3 33.5004 244.6 33.3004V32.7004C244.4 32.6004 244.1 32.6004 243.8 32.6004Z" fill="#7CA2CB"/>
<path d="M250 34.0004C250 35.1004 249.3 35.7004 247.9 35.7004C247.4 35.7004 247 35.6004 246.6 35.5004V34.7004C247 34.8004 247.4 34.9004 247.9 34.9004C248.6 34.9004 249 34.6004 249 34.0004C248.7 34.1004 248.4 34.2004 248.1 34.2004C246.9 34.2004 246.4 33.6004 246.4 32.3004C246.4 31.0004 247.1 30.4004 248.4 30.4004C248.9 30.4004 249.4 30.5004 250 30.6004V34.0004ZM249 31.3004C248.8 31.2004 248.6 31.2004 248.3 31.2004C247.6 31.2004 247.3 31.6004 247.3 32.3004C247.3 33.0004 247.6 33.4004 248.2 33.4004C248.5 33.4004 248.8 33.3004 249 33.2004V31.3004Z" fill="#7CA2CB"/>
<path d="M250.7 33.1004C250.7 32.3004 251.3 31.9004 252.4 31.9004C252.7 31.9004 252.9 31.9004 253.2 32.0004V31.7004C253.2 31.4004 252.9 31.2004 252.4 31.2004C252 31.2004 251.5 31.3004 251 31.4004V30.6004C251.5 30.5004 252 30.4004 252.4 30.4004C253.6 30.4004 254.1 30.8004 254.1 31.7004V34.3004H253.5L253.2 34.0004C252.9 34.2004 252.5 34.3004 252.1 34.3004C251.2 34.3004 250.7 33.9004 250.7 33.1004ZM252.4 32.6004C251.9 32.6004 251.7 32.8004 251.7 33.1004C251.7 33.4004 251.9 33.6004 252.3 33.6004C252.6 33.6004 252.9 33.5004 253.2 33.3004V32.7004C253 32.6004 252.7 32.6004 252.4 32.6004Z" fill="#7CA2CB"/>
<path d="M255.1 34.3004V30.4004H255.9L256 30.9004C256.3 30.6004 256.7 30.4004 257.1 30.4004V31.2004C256.7 31.2004 256.4 31.4004 256.1 31.7004V34.3004H255.1Z" fill="#7CA2CB"/>
<path d="M313 72.7H79C77 72.7 75.5 71.1 75.5 69.2V54.5C75.5 52.5 77.1 51 79 51H313C315 51 316.5 52.6 316.5 54.5V69.2C316.5 71.2 314.9 72.7 313 72.7Z" fill="white" stroke="#B6CEE2" stroke-width="0.8849" stroke-miterlimit="10"/>
<path d="M308.3 58.3004C307.1 57.1004 305.1 57.1004 303.9 58.3004C302.7 59.5004 302.7 61.5004 303.9 62.7004C305 63.8004 306.7 63.9004 307.9 63.1004C307.9 63.2004 308 63.3004 308.1 63.4004L309.9 65.2004C310.2 65.5004 310.6 65.5004 310.8 65.2004C311.1 64.9004 311.1 64.5004 310.8 64.3004L309 62.5004C308.9 62.4004 308.8 62.3004 308.7 62.3004C309.5 61.0004 309.4 59.3004 308.3 58.3004ZM307.8 62.1004C306.9 63.0004 305.4 63.0004 304.5 62.1004C303.6 61.2004 303.6 59.7004 304.5 58.8004C305.4 57.9004 306.9 57.9004 307.8 58.8004C308.7 59.7004 308.7 61.2004 307.8 62.1004Z" fill="#FF7800"/>
<path d="M84.5 59.9004V60.7004H83V65.1004H82V60.7004H80.5V59.9004H84.5Z" fill="#1D1D1B"/>
<path d="M85 65.2V60H87.4C88.5 60 89 60.5 89 61.4C89 62 88.6 62.6 87.8 63L89.5 65.3H88.3L86.7 63V62.6C87.6 62.4 88.1 62.1 88.1 61.5C88.1 61.1 87.9 60.9 87.4 60.9H86V65.3H85V65.2Z" fill="#1D1D1B"/>
<path d="M90.8 59.9004V65.1004H89.8V59.9004H90.8Z" fill="#1D1D1B"/>
<path d="M92.9 59.9004V64.3004H95V65.1004H92V59.9004H92.9Z" fill="#1D1D1B"/>
<path d="M99.5 65C99 65.2 98.5 65.3 98 65.3C96.1 65.3 95.2 64.4 95.2 62.6C95.2 60.9 96.1 60 98 60C98.6 60 99.1 60.1 99.5 60.3V61C99 60.8 98.6 60.7 98 60.7C96.7 60.7 96.1 61.3 96.1 62.4C96.1 63.7 96.7 64.3 98 64.3C98.5 64.3 99 64.2 99.5 64V65Z" fill="#1D1D1B"/>
<path d="M104 59.9004V60.7004H101.4V62.0004H103.9V63.0004H101.4V64.4004H104.1V65.2004H100.5V60.0004H104V59.9004Z" fill="#1D1D1B"/>
<path d="M79.6001 86.9004V87.7004H77.0001V89.0004H79.5001V89.9004H77.0001V91.3004H79.7001V92.1004H76.1001V86.9004H79.6001Z" fill="#929292"/>
<path d="M80.5 92.2004V88.4004H81.3L81.4 89.0004C81.8 88.6004 82.2 88.4004 82.7 88.4004C83.6 88.4004 84.1 88.9004 84.1 89.8004V92.2004H83.1V89.8004C83.1 89.4004 82.9 89.2004 82.5 89.2004C82.2 89.2004 81.9 89.3004 81.6 89.6004V92.3004H80.5V92.2004Z" fill="#929292"/>
<path d="M87.7002 92.1004C87.4002 92.2004 87.1002 92.2004 86.7002 92.2004C85.3002 92.2004 84.7002 91.5004 84.7002 90.2004C84.7002 89.0004 85.4002 88.4004 86.7002 88.4004C87.0002 88.4004 87.4002 88.4004 87.7002 88.5004V89.3004C87.4002 89.2004 87.1002 89.2004 86.8002 89.2004C86.0002 89.2004 85.6002 89.6004 85.6002 90.3004C85.6002 91.1004 86.0002 91.5004 86.8002 91.5004C87.1002 91.5004 87.4002 91.5004 87.7002 91.4004V92.1004Z" fill="#929292"/>
<path d="M88.2002 90.2008C88.2002 88.9008 88.8002 88.3008 90.1002 88.3008C91.4002 88.3008 92.0002 88.9008 92.0002 90.2008C92.0002 91.5008 91.4002 92.1008 90.1002 92.1008C88.8002 92.2008 88.2002 91.5008 88.2002 90.2008ZM90.1002 91.4008C90.7002 91.4008 91.0002 91.0008 91.0002 90.2008C91.0002 89.4008 90.7002 89.0008 90.1002 89.0008C89.5002 89.0008 89.2002 89.4008 89.2002 90.2008C89.2002 91.0008 89.5002 91.4008 90.1002 91.4008Z" fill="#929292"/>
<path d="M92.7002 92.2004V88.4004H93.5002L93.6002 89.0004C94.0002 88.6004 94.4002 88.4004 94.9002 88.4004C95.8002 88.4004 96.3002 88.9004 96.3002 89.8004V92.2004H95.3002V89.8004C95.3002 89.4004 95.1002 89.2004 94.7002 89.2004C94.4002 89.2004 94.1002 89.3004 93.8002 89.6004V92.3004H92.7002V92.2004Z" fill="#929292"/>
<path d="M97.1 87.7012H97.8L97.9 88.3012H98.9V89.1012H98V90.9012C98 91.3012 98.2 91.4012 98.5 91.4012H98.9V92.2012H98C97.4 92.2012 97 91.9012 97 91.2012V87.7012H97.1Z" fill="#929292"/>
<path d="M99.6001 92.2004V88.4004H100.4L100.5 88.9004C100.8 88.6004 101.2 88.4004 101.6 88.4004V89.2004C101.2 89.2004 100.9 89.3004 100.6 89.7004V92.3004H99.6001V92.2004Z" fill="#929292"/>
<path d="M101.9 91.0004C101.9 90.2004 102.5 89.9004 103.6 89.9004C103.9 89.9004 104.1 89.9004 104.4 90.0004V89.7004C104.4 89.4004 104.2 89.2004 103.7 89.2004C103.3 89.2004 102.8 89.3004 102.3 89.4004V88.6004C102.8 88.5004 103.3 88.4004 103.7 88.4004C104.8 88.4004 105.4 88.8004 105.4 89.7004V92.3004H104.8L104.5 92.0004C104.2 92.2004 103.8 92.3004 103.4 92.3004C102.4 92.2004 101.9 91.8004 101.9 91.0004ZM103.6 90.5004C103.1 90.5004 102.9 90.7004 102.9 91.0004C102.9 91.3004 103.1 91.5004 103.5 91.5004C103.8 91.5004 104.1 91.4004 104.4 91.2004V90.6004C104.1 90.5004 103.8 90.5004 103.6 90.5004Z" fill="#929292"/>
<path d="M106.2 92.2004V88.4004H107L107.1 89.0004C107.4 88.6004 107.9 88.4004 108.3 88.4004C108.8 88.4004 109.1 88.6004 109.3 88.9004C109.7 88.5004 110.1 88.4004 110.5 88.4004C111.4 88.4004 111.8 88.9004 111.8 89.9004V92.3004H110.8V89.9004C110.8 89.5004 110.6 89.3004 110.2 89.3004C109.9 89.3004 109.6 89.4004 109.4 89.7004V92.4004H108.4V90.0004C108.4 89.6004 108.2 89.3004 107.9 89.3004C107.6 89.3004 107.3 89.4004 107.1 89.7004V92.4004H106.2V92.2004Z" fill="#929292"/>
<path d="M112.6 90.2008C112.6 88.9008 113.2 88.3008 114.5 88.3008C115.8 88.3008 116.4 88.9008 116.4 90.2008C116.4 91.5008 115.8 92.1008 114.5 92.1008C113.3 92.2008 112.6 91.5008 112.6 90.2008ZM114.5 91.4008C115.1 91.4008 115.4 91.0008 115.4 90.2008C115.4 89.4008 115.1 89.0008 114.5 89.0008C113.9 89.0008 113.6 89.4008 113.6 90.2008C113.6 91.0008 113.9 91.4008 114.5 91.4008Z" fill="#929292"/>
<path d="M117.1 92.0008V91.2008C117.5 91.4008 118 91.5008 118.6 91.5008C119 91.5008 119.2 91.4008 119.2 91.1008C119.2 90.8008 119.1 90.7008 118.8 90.7008H118.1C117.3 90.7008 116.9 90.3008 116.9 89.5008C116.9 88.7008 117.5 88.3008 118.6 88.3008C119.1 88.3008 119.5 88.4008 120 88.5008V89.3008C119.6 89.1008 119.1 89.0008 118.6 89.0008C118.1 89.0008 117.8 89.1008 117.8 89.4008C117.8 89.7008 118 89.8008 118.3 89.8008H118.9C119.8 89.8008 120.2 90.2008 120.2 91.0008C120.2 91.8008 119.7 92.2008 118.6 92.2008C118.1 92.2008 117.6 92.1008 117.1 92.0008Z" fill="#929292"/>
<path d="M122.7 86.9004H125.8V87.7004H123.5L123.4 89.0004C123.5 88.9004 123.7 88.9004 124 88.9004C125.3 88.9004 126 89.4004 126 90.5004C126 91.6004 125.3 92.2004 124 92.2004C123.5 92.2004 123 92.1004 122.5 92.0004V91.2004C123 91.4004 123.5 91.5004 124 91.5004C124.7 91.5004 125 91.2004 125 90.6004C125 90.0004 124.7 89.8004 124 89.8004C123.5 89.8004 122.9 89.9004 122.5 90.0004L122.7 86.9004Z" fill="#1D1D1B"/>
<path d="M128.4 92.2004V88.4004H129.2L129.3 88.9004C129.6 88.6004 130 88.4004 130.4 88.4004V89.2004C130 89.2004 129.7 89.3004 129.4 89.7004V92.3004H128.4V92.2004Z" fill="#929292"/>
<path d="M132.6 88.3008C133.8 88.3008 134.3 88.9008 134.3 90.1008C134.3 90.3008 134.3 90.4008 134.3 90.6008H131.7C131.7 91.1008 132.1 91.4008 132.9 91.4008C133.3 91.4008 133.7 91.4008 134.1 91.3008V92.1008C133.8 92.2008 133.3 92.2008 132.9 92.2008C131.5 92.2008 130.8 91.5008 130.8 90.2008C130.7 88.9008 131.3 88.3008 132.6 88.3008ZM131.7 89.9008H133.3C133.3 89.4008 133 89.1008 132.5 89.1008C132 89.1008 131.8 89.4008 131.7 89.9008Z" fill="#929292"/>
<path d="M135 92.0008V91.2008C135.4 91.4008 135.9 91.5008 136.5 91.5008C136.9 91.5008 137.1 91.4008 137.1 91.1008C137.1 90.8008 137 90.7008 136.7 90.7008H136C135.2 90.7008 134.8 90.3008 134.8 89.5008C134.8 88.7008 135.4 88.3008 136.5 88.3008C137 88.3008 137.4 88.4008 137.9 88.5008V89.3008C137.5 89.1008 137 89.0008 136.5 89.0008C136 89.0008 135.7 89.1008 135.7 89.4008C135.7 89.7008 135.9 89.8008 136.2 89.8008H136.8C137.7 89.8008 138.1 90.2008 138.1 91.0008C138.1 91.8008 137.6 92.2008 136.5 92.2008C135.9 92.2008 135.5 92.1008 135 92.0008Z" fill="#929292"/>
<path d="M142.2 88.3012V92.1012H141.4L141.3 91.6012C140.9 91.9012 140.4 92.1012 139.9 92.1012C139.1 92.1012 138.7 91.6012 138.7 90.7012V88.3012H139.7V90.7012C139.7 91.1012 139.9 91.3012 140.3 91.3012C140.6 91.3012 140.9 91.2012 141.3 90.9012V88.2012H142.2V88.3012Z" fill="#929292"/>
<path d="M144.1 86.9004V92.1004H143.1V86.9004H144.1Z" fill="#929292"/>
<path d="M145 87.7012H145.7L145.8 88.3012H146.8V89.1012H146V90.9012C146 91.3012 146.2 91.4012 146.5 91.4012H146.9V92.2012H146C145.4 92.2012 145 91.9012 145 91.2012V87.7012Z" fill="#929292"/>
<path d="M147.3 91.0004C147.3 90.2004 147.9 89.9004 149 89.9004C149.3 89.9004 149.5 89.9004 149.8 90.0004V89.7004C149.8 89.4004 149.6 89.2004 149.1 89.2004C148.7 89.2004 148.2 89.3004 147.7 89.4004V88.6004C148.2 88.5004 148.7 88.4004 149.1 88.4004C150.2 88.4004 150.8 88.8004 150.8 89.7004V92.3004H150.2L149.9 92.0004C149.6 92.2004 149.2 92.3004 148.8 92.3004C147.8 92.2004 147.3 91.8004 147.3 91.0004ZM149 90.5004C148.5 90.5004 148.3 90.7004 148.3 91.0004C148.3 91.3004 148.5 91.5004 148.9 91.5004C149.2 91.5004 149.5 91.4004 149.8 91.2004V90.6004C149.5 90.5004 149.2 90.5004 149 90.5004Z" fill="#929292"/>
<path d="M155 91.9004C154.4 92.1004 153.8 92.1004 153.3 92.1004C152.1 92.1004 151.4 91.4004 151.4 90.1004C151.4 88.9004 152 88.3004 153.2 88.3004C153.5 88.3004 153.7 88.4004 154 88.5004V86.9004H155V91.9004ZM154.1 89.3004C153.9 89.2004 153.6 89.1004 153.3 89.1004C152.7 89.1004 152.4 89.4004 152.4 90.1004C152.4 90.9004 152.7 91.3004 153.3 91.3004C153.6 91.3004 153.8 91.3004 154 91.2004V89.3004H154.1Z" fill="#929292"/>
<path d="M155.8 90.2008C155.8 88.9008 156.4 88.3008 157.7 88.3008C159 88.3008 159.6 88.9008 159.6 90.2008C159.6 91.5008 159 92.1008 157.7 92.1008C156.4 92.2008 155.8 91.5008 155.8 90.2008ZM157.7 91.4008C158.3 91.4008 158.6 91.0008 158.6 90.2008C158.6 89.4008 158.3 89.0008 157.7 89.0008C157.1 89.0008 156.8 89.4008 156.8 90.2008C156.7 91.0008 157 91.4008 157.7 91.4008Z" fill="#929292"/>
<path d="M160.3 92.0008V91.2008C160.7 91.4008 161.2 91.5008 161.8 91.5008C162.2 91.5008 162.4 91.4008 162.4 91.1008C162.4 90.8008 162.3 90.7008 162 90.7008H161.3C160.5 90.7008 160.1 90.3008 160.1 89.5008C160.1 88.7008 160.7 88.3008 161.8 88.3008C162.3 88.3008 162.7 88.4008 163.2 88.5008V89.3008C162.8 89.1008 162.3 89.0008 161.8 89.0008C161.3 89.0008 161 89.1008 161 89.4008C161 89.7008 161.2 89.8008 161.5 89.8008H162.1C163 89.8008 163.4 90.2008 163.4 91.0008C163.4 91.8008 162.9 92.2008 161.8 92.2008C161.2 92.2008 160.7 92.1008 160.3 92.0008Z" fill="#929292"/>
<path d="M165.7 88.5008C166.2 88.4008 166.7 88.3008 167.3 88.3008C168.6 88.3008 169.3 88.9008 169.3 90.1008C169.3 91.4008 168.7 92.1008 167.5 92.1008C167.2 92.1008 167 92.0008 166.7 91.9008V93.5008H165.7V88.5008ZM166.7 91.2008C166.9 91.3008 167.2 91.4008 167.5 91.4008C168.1 91.4008 168.4 91.0008 168.4 90.2008C168.4 89.5008 168.1 89.2008 167.4 89.2008C167.1 89.2008 166.9 89.2008 166.7 89.3008V91.2008Z" fill="#929292"/>
<path d="M169.8 91.0004C169.8 90.2004 170.4 89.9004 171.5 89.9004C171.8 89.9004 172 89.9004 172.3 90.0004V89.7004C172.3 89.4004 172.1 89.2004 171.6 89.2004C171.2 89.2004 170.7 89.3004 170.2 89.4004V88.6004C170.7 88.5004 171.2 88.4004 171.6 88.4004C172.7 88.4004 173.3 88.8004 173.3 89.7004V92.3004H172.7L172.4 92.0004C172.1 92.2004 171.7 92.3004 171.3 92.3004C170.3 92.2004 169.8 91.8004 169.8 91.0004ZM171.5 90.5004C171 90.5004 170.8 90.7004 170.8 91.0004C170.8 91.3004 171 91.5004 171.4 91.5004C171.7 91.5004 172 91.4004 172.3 91.2004V90.6004C172 90.5004 171.8 90.5004 171.5 90.5004Z" fill="#929292"/>
<path d="M174.2 92.2004V88.4004H175L175.1 88.9004C175.4 88.6004 175.8 88.4004 176.2 88.4004V89.2004C175.8 89.2004 175.5 89.3004 175.2 89.7004V92.3004H174.2V92.2004Z" fill="#929292"/>
<path d="M176.5 91.0004C176.5 90.2004 177.1 89.9004 178.2 89.9004C178.5 89.9004 178.7 89.9004 179 90.0004V89.7004C179 89.4004 178.8 89.2004 178.3 89.2004C177.9 89.2004 177.4 89.3004 176.9 89.4004V88.6004C177.4 88.5004 177.9 88.4004 178.3 88.4004C179.4 88.4004 180 88.8004 180 89.7004V92.3004H179.4L179.1 92.0004C178.8 92.2004 178.4 92.3004 178 92.3004C176.9 92.2004 176.5 91.8004 176.5 91.0004ZM178.1 90.5004C177.6 90.5004 177.4 90.7004 177.4 91.0004C177.4 91.3004 177.6 91.5004 178 91.5004C178.3 91.5004 178.6 91.4004 178.9 91.2004V90.6004C178.7 90.5004 178.4 90.5004 178.1 90.5004Z" fill="#929292"/>
<path d="M183.6 86.9004L183.1 88.5004H182.2L182.7 86.9004H183.6ZM185.2 86.9004L184.7 88.5004H183.8L184.3 86.9004H185.2Z" fill="#1D1D1B"/>
<path d="M189.4 86.9004V87.7004H187.9V92.1004H186.9V87.7004H185.4V86.9004H189.4Z" fill="#1D1D1B"/>
<path d="M189.9 92.2V87H192.3C193.4 87 193.9 87.5 193.9 88.4C193.9 89 193.5 89.6 192.7 90L194.4 92.3H193.2L191.6 90V89.6C192.5 89.4 193 89.1 193 88.5C193 88.1 192.8 87.9 192.3 87.9H191V92.3H189.9V92.2Z" fill="#1D1D1B"/>
<path d="M195.7 86.9004V92.1004H194.7V86.9004H195.7Z" fill="#1D1D1B"/>
<path d="M197.8 86.9004V91.3004H199.9V92.1004H196.9V86.9004H197.8Z" fill="#1D1D1B"/>
<path d="M204.4 91.9004C203.9 92.1004 203.4 92.2004 202.9 92.2004C201 92.2004 200.1 91.3004 200.1 89.5004C200.1 87.8004 201 86.9004 202.9 86.9004C203.5 86.9004 204 87.0004 204.4 87.2004V88.0004C203.9 87.8004 203.5 87.7004 202.9 87.7004C201.6 87.7004 201 88.3004 201 89.4004C201 90.7004 201.6 91.3004 202.9 91.3004C203.4 91.3004 203.9 91.2004 204.4 91.0004V91.9004Z" fill="#1D1D1B"/>
<path d="M208.9 86.9004V87.7004H206.3V89.0004H208.8V89.9004H206.3V91.3004H209V92.1004H205.4V86.9004H208.9Z" fill="#1D1D1B"/>
<path d="M210.9 86.9004L210.4 88.5004H209.5L210 86.9004H210.9ZM212.5 86.9004L212 88.5004H211.1L211.6 86.9004H212.5Z" fill="#1D1D1B"/>
<path d="M87.3001 117.1H86.1001L88.7001 110.9H90.0001L92.7001 117.1H91.5001L90.8001 115.4H88.7001L89.1001 114.4H90.3001L89.3001 112.1L87.3001 117.1Z" fill="#0050B1"/>
<path d="M98.3002 116.8C97.8002 117 97.2002 117.1 96.5002 117.1C94.3002 117.1 93.2002 116 93.2002 113.9C93.2002 111.9 94.3002 110.9 96.5002 110.9C97.2002 110.9 97.8002 111 98.3002 111.2V112.2C97.8002 112 97.2002 111.9 96.6002 111.9C95.1002 111.9 94.4002 112.6 94.4002 114C94.4002 115.5 95.1002 116.2 96.6002 116.2C97.2002 116.2 97.8002 116.1 98.3002 115.9V116.8Z" fill="#0050B1"/>
<path d="M100 117.1H98.8L101.4 110.9H102.6L105.3 117.1H104.1L103.4 115.4H101.3L101.7 114.4H102.9L101.9 112.1L100 117.1Z" fill="#0050B1"/>
<path d="M106.2 117.1V110.9H108.6C110.6 110.9 111.7 111.9 111.7 113.8C111.7 116 110.7 117.1 108.6 117.1H106.2ZM108.6 116.1C109.9 116.1 110.5 115.3 110.5 113.8C110.5 112.5 109.9 111.9 108.6 111.9H107.3V116.1H108.6Z" fill="#0050B1"/>
<path d="M116.8 110.9V111.9H113.7V113.5H116.6V114.5H113.6V116.1H116.8V117.1H112.5V110.9H116.8Z" fill="#0050B1"/>
<path d="M118 117.1V110.9H119.2L121.3 115.6L123.4 110.9H124.5V117.1H123.4V112.8L121.7 117.1H120.7L119 112.8V117.1H118Z" fill="#0050B1"/>
<path d="M126.9 110.9V117.1H125.8V110.9H126.9Z" fill="#0050B1"/>
<path d="M128.8 117.1H127.6L130.2 110.9H131.4L134.1 117.1H132.9L132.2 115.4H130.1L130.5 114.4H131.7L130.7 112.1L128.8 117.1Z" fill="#0050B1"/>
<path d="M134.8 116.801V115.801C135.4 116.001 136.1 116.101 136.9 116.101C137.8 116.101 138.3 115.801 138.3 115.101C138.3 114.601 138 114.401 137.4 114.401H136.4C135.1 114.401 134.5 113.801 134.5 112.701C134.5 111.401 135.4 110.801 137.2 110.801C137.9 110.801 138.5 110.901 139.2 111.101V112.101C138.6 111.901 137.9 111.801 137.2 111.801C136.2 111.801 135.6 112.101 135.6 112.701C135.6 113.201 135.9 113.401 136.4 113.401H137.4C138.7 113.401 139.4 114.001 139.4 115.101C139.4 116.401 138.5 117.001 136.8 117.001C136.1 117.101 135.4 117.001 134.8 116.801Z" fill="#0050B1"/>
<path d="M146.4 110.9V111.9H144.6V117.1H143.5V111.9H141.7V110.9H146.4Z" fill="#0050B1"/>
<path d="M147.1 117.1V110.9H149.9C151.2 110.9 151.8 111.5 151.8 112.6C151.8 113.3 151.3 114 150.3 114.5L152.3 117.2H150.9L149 114.5V114C150.1 113.8 150.6 113.4 150.6 112.7C150.6 112.2 150.3 112 149.8 112H148.2V117.2H147.1V117.1Z" fill="#0050B1"/>
<path d="M154 110.9V117.1H152.9V110.9H154Z" fill="#0050B1"/>
<path d="M156.4 110.9V116.1H158.9V117.1H155.3V110.9H156.4Z" fill="#0050B1"/>
<path d="M164.2 116.8C163.7 117 163.1 117.1 162.4 117.1C160.2 117.1 159.1 116 159.1 113.9C159.1 111.9 160.2 110.9 162.4 110.9C163.1 110.9 163.7 111 164.2 111.2V112.2C163.7 112 163.1 111.9 162.5 111.9C161 111.9 160.3 112.6 160.3 114C160.3 115.5 161 116.2 162.5 116.2C163.1 116.2 163.7 116.1 164.2 115.9V116.8Z" fill="#0050B1"/>
<path d="M169.5 110.9V111.9H166.4V113.5H169.3V114.5H166.3V116.1H169.5V117.1H165.2V110.9H169.5Z" fill="#0050B1"/>
<path d="M304.4 117.5C304.3 117.5 304.2 117.5 304.1 117.4L301.6 114.9C301.4 114.7 301.4 114.5 301.6 114.3C301.8 114.1 302 114.1 302.2 114.3L304.4 116.5L306.6 114.3C306.8 114.1 307 114.1 307.2 114.3C307.4 114.5 307.4 114.7 307.2 114.9L304.7 117.4C304.6 117.5 304.5 117.5 304.4 117.5Z" fill="#FF7800"/>
<path d="M91.6 148.4C91.1 148.6 90.5 148.7 89.8 148.7C87.6 148.7 86.5 147.6 86.5 145.5C86.5 143.5 87.6 142.5 89.8 142.5C90.5 142.5 91.1 142.6 91.6 142.8V143.8C91.1 143.6 90.5 143.5 89.9 143.5C88.4 143.5 87.7 144.2 87.7 145.6C87.7 147.1 88.4 147.8 89.9 147.8C90.5 147.8 91.1 147.7 91.6 147.5V148.4Z" fill="#0050B1"/>
<path d="M92.3999 145.6C92.3999 143.5 93.3999 142.5 95.4999 142.5C97.4999 142.5 98.5999 143.5 98.5999 145.6C98.5999 147.7 97.5999 148.7 95.4999 148.7C93.5999 148.7 92.4999 147.7 92.3999 145.6ZM95.4999 147.7C96.6999 147.7 97.3999 147 97.3999 145.5C97.3999 144.1 96.7999 143.4 95.4999 143.4C94.1999 143.4 93.5999 144.1 93.5999 145.5C93.5999 147 94.2999 147.7 95.4999 147.7Z" fill="#0050B1"/>
<path d="M100.8 142.5V147.7H103.3V148.7H99.7V142.5H100.8Z" fill="#0050B1"/>
<path d="M108.6 142.5V143.5H105.5V145.1H108.4V146.1H105.4V147.7H108.6V148.7H104.3V142.5H108.6Z" fill="#0050B1"/>
<path d="M114.6 148.4C114.1 148.6 113.5 148.7 112.7 148.7C110.5 148.7 109.4 147.6 109.4 145.5C109.4 143.5 110.5 142.5 112.7 142.5C113.4 142.5 114 142.6 114.5 142.8V143.8C114 143.6 113.4 143.5 112.8 143.5C111.3 143.5 110.6 144.2 110.6 145.6C110.6 147.1 111.3 147.8 112.7 147.8C112.9 147.8 113.1 147.8 113.4 147.7V145.9H114.5V148.4H114.6Z" fill="#0050B1"/>
<path d="M116.9 142.5V148.7H115.8V142.5H116.9Z" fill="#0050B1"/>
<path d="M117.9 145.6C117.9 143.5 118.9 142.5 121 142.5C123 142.5 124.1 143.5 124.1 145.6C124.1 147.7 123.1 148.7 121 148.7C119.1 148.7 118 147.7 117.9 145.6ZM121 147.7C122.2 147.7 122.9 147 122.9 145.5C122.9 144.1 122.3 143.4 121 143.4C119.7 143.4 119.1 144.1 119.1 145.5C119.1 147 119.8 147.7 121 147.7Z" fill="#0050B1"/>
<path d="M131.2 142.5V143.5H129.4V148.7H128.3V143.5H126.5V142.5H131.2Z" fill="#0050B1"/>
<path d="M131.8 148.7V142.5H134.6C135.9 142.5 136.5 143.1 136.5 144.2C136.5 144.9 136 145.6 135 146.1L137 148.8H135.6L133.7 146.1V145.6C134.8 145.4 135.3 145 135.3 144.3C135.3 143.8 135 143.6 134.5 143.6H133V148.8H131.8V148.7Z" fill="#0050B1"/>
<path d="M138.7 142.5V148.7H137.6V142.5H138.7Z" fill="#0050B1"/>
<path d="M141.1 142.5V147.7H143.6V148.7H140V142.5H141.1Z" fill="#0050B1"/>
<path d="M148.9 148.4C148.4 148.6 147.8 148.7 147.1 148.7C144.9 148.7 143.8 147.6 143.8 145.5C143.8 143.5 144.9 142.5 147.1 142.5C147.8 142.5 148.4 142.6 148.9 142.8V143.8C148.4 143.6 147.8 143.5 147.2 143.5C145.7 143.5 145 144.2 145 145.6C145 147.1 145.7 147.8 147.2 147.8C147.8 147.8 148.4 147.7 148.9 147.5V148.4Z" fill="#0050B1"/>
<path d="M154.2 142.5V143.5H151.1V145.1H154V146.1H151V147.7H154.2V148.7H150V142.5H154.2Z" fill="#0050B1"/>
<path d="M157.2 148.4V147.4C157.8 147.6 158.5 147.7 159.3 147.7C160.2 147.7 160.7 147.4 160.7 146.7C160.7 146.2 160.4 146 159.8 146H158.8C157.5 146 156.9 145.4 156.9 144.3C156.9 143 157.8 142.4 159.6 142.4C160.3 142.4 160.9 142.5 161.6 142.7V143.7C161 143.5 160.3 143.4 159.6 143.4C158.6 143.4 158 143.7 158 144.3C158 144.8 158.3 145 158.8 145H159.8C161.1 145 161.8 145.6 161.8 146.7C161.8 148 160.9 148.6 159.2 148.6C158.5 148.7 157.8 148.6 157.2 148.4Z" fill="#0050B1"/>
<path d="M163.5 148.7H162.3L164.9 142.5H166.1L168.8 148.7H167.6L166.9 147H164.8L165.2 146H166.4L165.4 143.7L163.5 148.7Z" fill="#0050B1"/>
<path d="M169.6 148.7V142.5H170.7L174 147V142.5H175.1V148.7H174L170.7 144.1V148.7H169.6Z" fill="#0050B1"/>
<path d="M179.5 142.5V148.7H178.4V142.5H179.5Z" fill="#0050B1"/>
<path d="M180.7 148.4V147.4C181.3 147.6 182 147.7 182.8 147.7C183.7 147.7 184.2 147.4 184.2 146.7C184.2 146.2 183.9 146 183.3 146H182.3C181 146 180.4 145.4 180.4 144.3C180.4 143 181.3 142.4 183.1 142.4C183.8 142.4 184.4 142.5 185.1 142.7V143.7C184.5 143.5 183.8 143.4 183.1 143.4C182.1 143.4 181.5 143.7 181.5 144.3C181.5 144.8 181.8 145 182.3 145H183.3C184.6 145 185.3 145.6 185.3 146.7C185.3 148 184.4 148.6 182.7 148.6C182 148.7 181.3 148.6 180.7 148.4Z" fill="#0050B1"/>
<path d="M187.4 142.5V148.7H186.3V142.5H187.4Z" fill="#0050B1"/>
<path d="M188.7 148.7V142.5H191.1C193.1 142.5 194.2 143.5 194.2 145.4C194.2 147.6 193.2 148.7 191.1 148.7H188.7ZM191.2 147.7C192.5 147.7 193.1 146.9 193.1 145.4C193.1 144.1 192.5 143.5 191.2 143.5H189.9V147.7H191.2Z" fill="#0050B1"/>
<path d="M304.4 149.1C304.3 149.1 304.2 149.1 304.1 149L301.6 146.5C301.4 146.3 301.4 146.1 301.6 145.9C301.8 145.7 302 145.7 302.2 145.9L304.4 148.1L306.6 145.9C306.8 145.7 307 145.7 307.2 145.9C307.4 146.1 307.4 146.3 307.2 146.5L304.7 149C304.6 149.1 304.5 149.1 304.4 149.1Z" fill="#FF7800"/>
<path d="M90.7 174.1V175.1H88.9V180.3H87.8V175.1H86V174.1H90.7Z" fill="#0050B1"/>
<path d="M91.3 180.3V174.1H94.1C95.4 174.1 96 174.7 96 175.8C96 176.5 95.5 177.2 94.5 177.7L96.5 180.4H95.1L93.2 177.7V177.2C94.3 177 94.8 176.6 94.8 175.9C94.8 175.4 94.5 175.2 94 175.2H92.4V180.4H91.3V180.3Z" fill="#0050B1"/>
<path d="M98.2001 174.1V180.3H97.1001V174.1H98.2001Z" fill="#0050B1"/>
<path d="M100.6 174.1V179.3H103.1V180.3H99.5V174.1H100.6Z" fill="#0050B1"/>
<path d="M108.5 180.099C108 180.299 107.4 180.399 106.7 180.399C104.5 180.399 103.4 179.299 103.4 177.199C103.4 175.199 104.5 174.199 106.7 174.199C107.4 174.199 108 174.299 108.5 174.499V175.499C108 175.299 107.4 175.199 106.8 175.199C105.3 175.199 104.6 175.899 104.6 177.299C104.6 178.799 105.3 179.499 106.8 179.499C107.4 179.499 108 179.399 108.5 179.199V180.099Z" fill="#0050B1"/>
<path d="M113.8 174.1V175.1H110.7V176.7H113.6V177.7H110.6V179.3H113.8V180.3H109.5V174.1H113.8Z" fill="#0050B1"/>
<path d="M116.7 180.1V179.1C117.3 179.3 118 179.4 118.8 179.4C119.7 179.4 120.2 179.1 120.2 178.4C120.2 177.9 119.9 177.7 119.3 177.7H118.3C117 177.7 116.4 177.1 116.4 176C116.4 174.7 117.3 174.1 119.1 174.1C119.8 174.1 120.4 174.2 121.1 174.4V175.4C120.5 175.2 119.8 175.1 119.1 175.1C118.1 175.1 117.5 175.4 117.5 176C117.5 176.5 117.8 176.7 118.3 176.7H119.3C120.6 176.7 121.3 177.3 121.3 178.4C121.3 179.7 120.4 180.3 118.7 180.3C118 180.4 117.3 180.3 116.7 180.1Z" fill="#0050B1"/>
<path d="M123 180.3H121.8L124.4 174.1H125.6L128.3 180.3H127.1L126.4 178.6H124.3L124.7 177.6H125.9L124.9 175.3L123 180.3Z" fill="#0050B1"/>
<path d="M130.3 174.1V179.3H132.8V180.3H129.2V174.1H130.3Z" fill="#0050B1"/>
<path d="M134.4 180.3H133.2L135.8 174.1H137L139.7 180.3H138.5L137.8 178.6H135.7L136.1 177.6H137.3L136.3 175.3L134.4 180.3Z" fill="#0050B1"/>
<path d="M140.5 180.3V174.1H141.7L143.8 178.8L145.9 174.1H147V180.3H146V176L144.3 180.3H143.3L141.6 176V180.3H140.5Z" fill="#0050B1"/>
<path d="M149 180.3H147.8L150.4 174.1H151.6L154.3 180.3H153.1L152.4 178.6H150.3L150.7 177.6H151.9L150.9 175.3L149 180.3Z" fill="#0050B1"/>
<path d="M155.1 180.3V174.1H156.2L159.5 178.6V174.1H160.6V180.3H159.5L156.2 175.7V180.3H155.1Z" fill="#0050B1"/>
<path d="M166.8 180.099C166.3 180.299 165.7 180.399 165 180.399C162.8 180.399 161.7 179.299 161.7 177.199C161.7 175.199 162.8 174.199 165 174.199C165.7 174.199 166.3 174.299 166.8 174.499V175.499C166.3 175.299 165.7 175.199 165.1 175.199C163.6 175.199 162.9 175.899 162.9 177.299C162.9 178.799 163.6 179.499 165.1 179.499C165.7 179.499 166.3 179.399 166.8 179.199V180.099Z" fill="#0050B1"/>
<path d="M168.5 180.3H167.3L169.9 174.1H171.1L173.8 180.3H172.6L171.9 178.6H169.8L170.2 177.6H171.4L170.4 175.3L168.5 180.3Z" fill="#0050B1"/>
<path d="M304.4 180.799C304.3 180.799 304.2 180.799 304.1 180.699L301.6 178.199C301.4 177.999 301.4 177.799 301.6 177.599C301.8 177.399 302 177.399 302.2 177.599L304.4 179.799L306.6 177.599C306.8 177.399 307 177.399 307.2 177.599C307.4 177.799 307.4 177.999 307.2 178.199L304.7 180.699C304.6 180.699 304.5 180.799 304.4 180.799Z" fill="#FF7800"/>
<path d="M90.7 205.799V206.799H88.9V211.999H87.8V206.799H86V205.799H90.7Z" fill="#0050B1"/>
<path d="M91.3 211.899V205.699H94.1C95.4 205.699 96 206.299 96 207.399C96 208.099 95.5 208.799 94.5 209.299L96.5 211.999H95.1L93.2 209.299V208.799C94.3 208.599 94.8 208.199 94.8 207.499C94.8 206.999 94.5 206.799 94 206.799H92.4V211.999H91.3V211.899Z" fill="#0050B1"/>
<path d="M98.2001 205.799V211.999H97.1001V205.799H98.2001Z" fill="#0050B1"/>
<path d="M100.6 205.799V210.999H103.1V211.999H99.5V205.799H100.6Z" fill="#0050B1"/>
<path d="M108.5 211.699C108 211.899 107.4 211.999 106.7 211.999C104.5 211.999 103.4 210.899 103.4 208.799C103.4 206.799 104.5 205.799 106.7 205.799C107.4 205.799 108 205.899 108.5 206.099V207.099C108 206.899 107.4 206.799 106.8 206.799C105.3 206.799 104.6 207.499 104.6 208.899C104.6 210.399 105.3 211.099 106.8 211.099C107.4 211.099 108 210.999 108.5 210.799V211.699Z" fill="#0050B1"/>
<path d="M113.8 205.799V206.799H110.7V208.399H113.6V209.399H110.6V210.999H113.8V211.999H109.5V205.799H113.8Z" fill="#0050B1"/>
<path d="M116.8 211.999V205.799H119.6C120.9 205.799 121.5 206.399 121.5 207.499C121.5 208.799 120.6 209.499 118.9 209.799L118.7 208.799C119.7 208.599 120.3 208.199 120.3 207.599C120.3 207.099 120 206.799 119.5 206.799H118V211.999H116.8Z" fill="#0050B1"/>
<path d="M122.2 211.899V205.699H125C126.3 205.699 126.9 206.299 126.9 207.399C126.9 208.099 126.4 208.799 125.4 209.299L127.4 211.999H126L124.1 209.299V208.799C125.2 208.599 125.7 208.199 125.7 207.499C125.7 206.999 125.4 206.799 124.9 206.799H123.3V211.999H122.2V211.899Z" fill="#0050B1"/>
<path d="M129.1 205.799V211.999H128V205.799H129.1Z" fill="#0050B1"/>
<path d="M130.4 211.999V205.799H131.6L133.7 210.499L135.8 205.799H136.9V211.999H135.8V207.699L134.1 211.999H133.1L131.4 207.699V211.999H130.4Z" fill="#0050B1"/>
<path d="M138.8 211.999H137.6L140.2 205.799H141.4L144.1 211.999H143L142.3 210.299H140.2L140.6 209.299H141.8L140.8 206.999L138.8 211.999Z" fill="#0050B1"/>
<path d="M150.2 205.799L147.5 211.999H146.3L143.7 205.799H145.1L147 210.499L148.9 205.799H150.2Z" fill="#0050B1"/>
<path d="M155.1 205.799V206.799H152V208.399H154.9V209.399H151.9V210.999H155.1V211.999H150.8V205.799H155.1Z" fill="#0050B1"/>
<path d="M156.2 211.899V205.699H159C160.3 205.699 160.9 206.299 160.9 207.399C160.9 208.099 160.4 208.799 159.4 209.299L161.4 211.999H160L158.1 209.299V208.799C159.2 208.599 159.7 208.199 159.7 207.499C159.7 206.999 159.4 206.799 158.9 206.799H157.3V211.999H156.2V211.899Z" fill="#0050B1"/>
<path d="M162.5 211.999H161.3L163.9 205.799H165.1L167.8 211.999H166.6L165.9 210.299H163.8L164.2 209.299H165.4L164.4 206.999L162.5 211.999Z" fill="#0050B1"/>
<path d="M304.4 212.401C304.3 212.401 304.2 212.401 304.1 212.301L301.6 209.801C301.4 209.601 301.4 209.401 301.6 209.201C301.8 209.001 302 209.001 302.2 209.201L304.4 211.401L306.6 209.201C306.8 209.001 307 209.001 307.2 209.201C307.4 209.401 307.4 209.601 307.2 209.801L304.7 212.301C304.6 212.401 304.5 212.401 304.4 212.401Z" fill="#FF7800"/>
<path d="M90.7 237.4V238.4H88.9V243.6H87.8V238.4H86V237.4H90.7Z" fill="#0050B1"/>
<path d="M91.3 243.6V237.4H94.1C95.4 237.4 96 238 96 239.1C96 239.8 95.5 240.5 94.5 241L96.5 243.7H95.1L93.2 241V240.5C94.3 240.3 94.8 239.9 94.8 239.2C94.8 238.7 94.5 238.5 94 238.5H92.4V243.7H91.3V243.6Z" fill="#0050B1"/>
<path d="M98.2001 237.4V243.6H97.1001V237.4H98.2001Z" fill="#0050B1"/>
<path d="M100.6 237.4V242.6H103.1V243.6H99.5V237.4H100.6Z" fill="#0050B1"/>
<path d="M108.5 243.3C108 243.5 107.4 243.6 106.7 243.6C104.5 243.6 103.4 242.5 103.4 240.4C103.4 238.4 104.5 237.4 106.7 237.4C107.4 237.4 108 237.5 108.5 237.7V238.7C108 238.5 107.4 238.4 106.8 238.4C105.3 238.4 104.6 239.1 104.6 240.5C104.6 242 105.3 242.7 106.8 242.7C107.4 242.7 108 242.6 108.5 242.4V243.3Z" fill="#0050B1"/>
<path d="M113.8 237.4V238.4H110.7V240H113.6V241H110.6V242.6H113.8V243.6H109.5V237.4H113.8Z" fill="#0050B1"/>
<path d="M116.8 243.6V237.4H119.6C120.9 237.4 121.5 238 121.5 239.1C121.5 240.4 120.6 241.1 118.9 241.4L118.7 240.4C119.7 240.2 120.3 239.8 120.3 239.2C120.3 238.7 120 238.4 119.5 238.4H118V243.6H116.8Z" fill="#0050B1"/>
<path d="M123.4 237.4V243.6H122.3V237.4H123.4Z" fill="#0050B1"/>
<path d="M124.7 241.2V237.4H125.8V241.2C125.8 242.2 126.3 242.7 127.3 242.7C128.3 242.7 128.8 242.2 128.8 241.2V237.4H129.9V241.2C129.9 242.8 129 243.7 127.2 243.7C125.4 243.7 124.7 242.8 124.7 241.2Z" fill="#0050B1"/>
<path d="M131.3 243.6V237.4H134.1C135.4 237.4 136 238 136 239.1C136 239.8 135.5 240.5 134.5 241L136.5 243.7H135L133.1 241V240.5C134.2 240.3 134.7 239.9 134.7 239.2C134.7 238.7 134.4 238.5 133.9 238.5H132.3V243.7H131.3V243.6Z" fill="#0050B1"/>
<path d="M137.7 243.6H136.5L139.1 237.4H140.3L143 243.6H141.8L141.1 241.9H139L139.4 240.9H140.6L139.6 238.6L137.7 243.6Z" fill="#0050B1"/>
<path d="M304.4 244C304.3 244 304.2 244 304.1 243.9L301.6 241.4C301.4 241.2 301.4 241 301.6 240.8C301.8 240.6 302 240.6 302.2 240.8L304.4 243L306.6 240.8C306.8 240.6 307 240.6 307.2 240.8C307.4 241 307.4 241.2 307.2 241.4L304.7 243.9C304.6 244 304.5 244 304.4 244Z" fill="#FF7800"/>
<path d="M116.1 51H67.8V72.8H116.1V51Z" stroke="#FF4200" stroke-width="1.7698" stroke-miterlimit="10"/>
<path d="M181.7 102.6H75.3999V125.9H181.7V102.6Z" stroke="#FF4200" stroke-width="1.7784" stroke-miterlimit="10"/>
</svg>
