<svg width="392" height="262" viewBox="0 0 392 262" fill="none" xmlns="http://www.w3.org/2000/svg">
<g clip-path="url(#clip0)">
<path d="M392 0H0V262H392V0Z" fill="#F6F6F6"/>
<path d="M392 7.69922H266.6V110.599H392V7.69922Z" fill="#001C68"/>
<path d="M392 0H0V29.4H392V0Z" fill="#00298B"/>
<path d="M163.2 17.2004H162.4V13.4004H163.2V17.2004Z" fill="white"/>
<path d="M167 17.2004H166.2L164.7 14.7004V17.2004H163.9V13.4004H164.7L166.2 15.9004V13.4004H167V17.2004Z" fill="white"/>
<path d="M168.5 17.2004H167.7V13.4004H168.5V17.2004Z" fill="white"/>
<path d="M172.2 15.9C172.2 16.3 172 16.6 171.7 16.9C171.4 17.1 171.1 17.3 170.6 17.3C170.1 17.3 169.7 17.1 169.5 16.8C169.2 16.5 169.1 16 169.1 15.5V15.3C169.1 14.9 169.2 14.6 169.3 14.3C169.4 14 169.6 13.8 169.9 13.7C170.1 13.6 170.4 13.5 170.7 13.5C171.1 13.5 171.5 13.6 171.8 13.9C172.1 14.1 172.2 14.5 172.3 14.9H171.5C171.5 14.7 171.4 14.5 171.3 14.4C171.2 14.3 171 14.2 170.8 14.2C170.5 14.2 170.3 14.3 170.2 14.5C170.1 14.7 170 15 170 15.4V15.7C170 16.1 170.1 16.4 170.2 16.6C170.3 16.8 170.5 16.9 170.8 16.9C171 16.9 171.2 16.8 171.3 16.7C171.4 16.6 171.5 16.4 171.5 16.2H172.2V15.9Z" fill="white"/>
<path d="M173.5 17.2004H172.7V13.4004H173.5V17.2004Z" fill="white"/>
<path d="M177.4 15.4004C177.4 15.8004 177.3 16.1004 177.2 16.4004C177.1 16.7004 176.9 16.9004 176.6 17.1004C176.4 17.3004 176.1 17.3004 175.8 17.3004C175.5 17.3004 175.2 17.2004 175 17.1004C174.8 16.9004 174.6 16.7004 174.4 16.5004C174.3 16.2004 174.2 15.9004 174.2 15.5004V15.3004C174.2 14.9004 174.3 14.6004 174.4 14.3004C174.5 14.0004 174.7 13.8004 175 13.6004C175.2 13.4004 175.5 13.4004 175.8 13.4004C176.1 13.4004 176.4 13.5004 176.6 13.6004C176.8 13.7004 177 14.0004 177.2 14.3004C177.3 14.6004 177.4 14.9004 177.4 15.3004V15.4004ZM176.6 15.2004C176.6 14.8004 176.5 14.5004 176.4 14.3004C176.3 14.1004 176.1 14.0004 175.8 14.0004C175.5 14.0004 175.3 14.1004 175.2 14.3004C175.1 14.5004 175 14.8004 175 15.2004V15.4004C175 15.8004 175.1 16.1004 175.2 16.3004C175.3 16.5004 175.5 16.6004 175.8 16.6004C176.1 16.6004 176.3 16.5004 176.4 16.3004C176.5 16.1004 176.6 15.8004 176.6 15.4004V15.2004Z" fill="white"/>
<path d="M199.2 14.1H198V17.3H197.2V14.1H196.1V13.5H199.2V14.1Z" fill="white"/>
<path d="M201 15.8004H200.4V17.2004H199.6V13.4004H201C201.4 13.4004 201.8 13.5004 202 13.7004C202.2 13.9004 202.4 14.2004 202.4 14.5004C202.4 14.8004 202.3 15.0004 202.2 15.1004C202.1 15.3004 201.9 15.4004 201.7 15.5004L202.5 17.0004H201.7L201 15.8004ZM200.4 15.2004H201C201.2 15.2004 201.3 15.2004 201.5 15.1004C201.6 15.0004 201.7 14.9004 201.7 14.7004C201.7 14.5004 201.6 14.4004 201.5 14.3004C201.4 14.2004 201.2 14.1004 201 14.1004H200.4V15.2004Z" fill="white"/>
<path d="M205.2 16.4004H203.8L203.5 17.2004H202.7L204.1 13.4004H204.8L206.2 17.2004H205.4L205.2 16.4004ZM204 15.8004H204.9L204.4 14.4004L204 15.8004Z" fill="white"/>
<path d="M209.7 17.2004H208.9L207.4 14.7004V17.2004H206.6V13.4004H207.4L208.9 15.9004V13.4004H209.7V17.2004Z" fill="white"/>
<path d="M212.4 16.2004C212.4 16.1004 212.3 15.9004 212.2 15.9004C212.1 15.8004 211.9 15.7004 211.6 15.6004C211.3 15.5004 211.1 15.4004 211 15.3004C210.6 15.1004 210.4 14.8004 210.4 14.4004C210.4 14.2004 210.5 14.0004 210.6 13.9004C210.7 13.7004 210.9 13.6004 211.1 13.5004C211.3 13.4004 211.6 13.4004 211.8 13.4004C212.1 13.4004 212.3 13.4004 212.5 13.5004C212.7 13.6004 212.9 13.7004 213 13.9004C213.1 14.1004 213.2 14.3004 213.2 14.5004H212.4C212.4 14.3004 212.3 14.2004 212.2 14.1004C212.1 14.0004 211.9 14.0004 211.7 14.0004C211.5 14.0004 211.4 14.0004 211.3 14.1004C211.2 14.2004 211.1 14.3004 211.1 14.4004C211.1 14.5004 211.2 14.6004 211.3 14.7004C211.4 14.8004 211.6 14.9004 211.8 14.9004C212.2 15.0004 212.6 15.2004 212.8 15.4004C213 15.6004 213.1 15.8004 213.1 16.1004C213.1 16.4004 213 16.7004 212.7 16.9004C212.5 17.1004 212.1 17.2004 211.7 17.2004C211.4 17.2004 211.1 17.1004 210.9 17.0004C210.7 16.9004 210.5 16.7004 210.4 16.6004C210.3 16.4004 210.2 16.2004 210.2 16.0004H211C211 16.4004 211.3 16.6004 211.8 16.6004C212 16.6004 212.1 16.6004 212.2 16.5004C212.3 16.5004 212.4 16.4004 212.4 16.2004Z" fill="white"/>
<path d="M216 15.7004H214.5V17.2004H213.7V13.4004H216.2V14.0004H214.5V15.0004H216V15.7004Z" fill="white"/>
<path d="M218.9 15.6004H217.4V16.6004H219.2V17.2004H216.7V13.4004H219.2V14.0004H217.4V15.0004H218.9V15.6004Z" fill="white"/>
<path d="M221 15.8004H220.4V17.2004H219.6V13.4004H221C221.4 13.4004 221.8 13.5004 222 13.7004C222.2 13.9004 222.4 14.2004 222.4 14.5004C222.4 14.8004 222.3 15.0004 222.2 15.1004C222.1 15.3004 221.9 15.4004 221.7 15.5004L222.5 17.0004H221.7L221 15.8004ZM220.4 15.2004H221C221.2 15.2004 221.3 15.2004 221.5 15.1004C221.6 15.0004 221.7 14.9004 221.7 14.7004C221.7 14.5004 221.6 14.4004 221.5 14.3004C221.4 14.2004 221.2 14.1004 221 14.1004H220.4V15.2004Z" fill="white"/>
<path d="M225.3 15.6004H223.8V16.6004H225.6V17.2004H223V13.4004H225.5V14.0004H223.7V15.0004H225.2V15.6004H225.3Z" fill="white"/>
<path d="M229.1 17.2004H228.3L226.8 14.7004V17.2004H226V13.4004H226.8L228.3 15.9004V13.4004H229.1V17.2004Z" fill="white"/>
<path d="M232.7 15.9C232.7 16.3 232.5 16.6 232.2 16.9C231.9 17.2 231.6 17.3 231.1 17.3C230.6 17.3 230.2 17.1 230 16.8C229.7 16.5 229.6 16 229.6 15.5V15.3C229.6 14.9 229.7 14.6 229.8 14.3C229.9 14 230.1 13.8 230.4 13.7C230.6 13.6 230.9 13.5 231.2 13.5C231.6 13.5 232 13.6 232.3 13.9C232.6 14.1 232.7 14.5 232.8 14.9H232C232 14.7 231.9 14.5 231.8 14.4C231.7 14.3 231.5 14.2 231.3 14.2C231 14.2 230.8 14.3 230.7 14.5C230.6 14.7 230.5 15 230.5 15.4V15.7C230.5 16.1 230.6 16.4 230.7 16.6C230.8 16.8 231 16.9 231.3 16.9C231.5 16.9 231.7 16.8 231.8 16.7C231.9 16.6 232 16.4 232 16.2H232.7V15.9Z" fill="white"/>
<path d="M234.1 17.2004H233.3V13.4004H234.1V17.2004Z" fill="white"/>
<path d="M237 16.4004H235.6L235.3 17.2004H234.5L235.9 13.4004H236.6L238 17.2004H237.2L237 16.4004ZM235.8 15.8004H236.7L236.2 14.4004L235.8 15.8004Z" fill="white"/>
<path d="M240.4 16.2004C240.4 16.1004 240.3 15.9004 240.2 15.9004C240.1 15.8004 239.9 15.7004 239.6 15.6004C239.3 15.5004 239.1 15.4004 239 15.3004C238.6 15.1004 238.4 14.8004 238.4 14.4004C238.4 14.2004 238.5 14.0004 238.6 13.9004C238.7 13.7004 238.9 13.6004 239.1 13.5004C239.3 13.4004 239.6 13.4004 239.8 13.4004C240.1 13.4004 240.3 13.4004 240.5 13.5004C240.7 13.6004 240.9 13.7004 241 13.9004C241.1 14.1004 241.2 14.3004 241.2 14.5004H240.4C240.4 14.3004 240.3 14.2004 240.2 14.1004C240.1 14.0004 240 14.0004 239.8 14.0004C239.6 14.0004 239.5 14.0004 239.4 14.1004C239.3 14.2004 239.2 14.3004 239.2 14.4004C239.2 14.5004 239.3 14.6004 239.4 14.7004C239.5 14.8004 239.7 14.9004 239.9 14.9004C240.3 15.0004 240.7 15.2004 240.9 15.4004C241.1 15.6004 241.2 15.8004 241.2 16.1004C241.2 16.4004 241.1 16.7004 240.8 16.9004C240.6 17.1004 240.2 17.2004 239.8 17.2004C239.5 17.2004 239.2 17.1004 239 17.0004C238.8 16.9004 238.6 16.7004 238.5 16.6004C238.4 16.4004 238.3 16.2004 238.3 16.0004H239.1C239.1 16.4004 239.4 16.6004 239.9 16.6004C240.1 16.6004 240.2 16.6004 240.3 16.5004C240.3 16.5004 240.4 16.4004 240.4 16.2004Z" fill="white"/>
<path d="M123.3 9.70041C124.7 8.60041 126.7 8.30041 128.5 8.70041C129.2 8.90041 129.9 9.20042 130.1 9.80042C130.1 10.3004 129.9 10.9004 129.8 11.4004C129 10.7004 127.7 10.5004 126.6 10.7004C125.4 10.9004 124.6 11.8004 124.1 12.7004C123.6 13.8004 123.4 15.1004 123.8 16.2004C124 16.8004 124.6 17.3004 125.3 17.5004C126.5 17.8004 127.7 17.4004 128.6 16.7004C128.4 17.4004 128.3 18.1004 128.1 18.7004C127.9 19.2004 127.2 19.4004 126.6 19.5004C125 19.7004 123.2 19.5004 122.1 18.4004C121 17.4004 120.8 15.9004 120.8 14.6004C121 12.9004 121.7 11.0004 123.3 9.70041Z" fill="white"/>
<path d="M114.1 14.7012C113.9 15.4012 113.8 16.1012 113.6 16.9012C113.5 17.2012 113.4 17.5012 113.6 17.8012C114.4 17.8012 115.3 17.9012 116 17.4012C116.9 17.0012 117.2 15.8012 116.4 15.1012C115.9 14.7012 115 14.8012 114.1 14.7012ZM115 10.6012C114.8 11.3012 114.7 12.1012 114.5 12.8012C114.5 13.0012 114.7 13.1012 114.9 13.1012C115.7 13.1012 116.6 13.0012 117.1 12.5012C117.6 12.0012 117.7 11.1012 117 10.7012C116.5 10.4012 115.7 10.5012 115 10.6012ZM112.9 9.00117C114.1 8.80117 115.2 8.70117 116.4 8.70117C117.5 8.80117 118.6 8.90117 119.4 9.60117C120.3 10.4012 120.4 11.8012 119.6 12.7012C119.1 13.2012 118.5 13.6012 117.7 13.8012C118.3 14.0012 118.9 14.3012 119.2 14.9012C119.9 16.1012 119.5 17.7012 118.3 18.6012C117.4 19.3012 116.1 19.6012 114.9 19.7012C114 19.7012 113 19.7012 112.2 19.5012C111.7 19.4012 111.4 19.0012 111.2 18.6012C111 18.0012 111.1 17.4012 111.2 16.8012C111.8 14.2012 112.3 11.5012 112.9 9.00117Z" fill="white"/>
<path d="M134.2 10.6012C134 11.6012 133.7 12.7012 133.5 13.7012C133.4 13.9012 133.6 14.1012 133.8 14.2012C134.4 14.3012 135.1 14.2012 135.7 13.9012C136.8 13.4012 137.2 12.1012 136.7 11.1012C136.2 10.4012 135.1 10.6012 134.2 10.6012ZM131.9 9.00117C132.7 8.80117 133.6 8.80117 134.4 8.70117C135.6 8.70117 136.8 8.70117 137.8 9.30117C138.6 9.70117 139.1 10.4012 139.2 11.2012C139.5 12.9012 138.5 14.7012 136.7 15.6012C135.5 16.2012 134.2 16.2012 132.9 16.1012C132.7 16.9012 132.5 17.8012 132.3 18.6012C132.2 19.0012 131.9 19.5012 131.3 19.6012C130.7 19.7012 130.1 19.6012 129.5 19.6012C130.3 16.1012 131 12.6012 131.9 9.00117Z" fill="white"/>
<path d="M140.4 11.4003C140.8 10.6003 141.3 9.8003 142.2 9.5003C142.7 9.3003 143.1 9.6003 143.4 9.9003C143.9 11.1003 143.8 12.4003 143.4 13.6003C142.5 12.7003 141.5 11.9003 140.4 11.4003Z" fill="white"/>
<path d="M143.4 9.90039C144.4 10.4004 145.2 11.2004 145.9 12.0004C146.4 12.6004 146.8 13.4004 146.7 14.1004C146.6 14.8004 146.3 15.3004 145.8 15.9004C144.9 16.9004 143.8 17.8004 142.6 18.5004C142.1 18.8004 141.5 19.0004 140.9 18.9004C140.1 18.7004 139.5 18.1004 139.2 17.4004C141 16.5004 142.6 15.3004 143.3 13.6004C143.8 12.4004 143.9 11.1004 143.4 9.90039Z" fill="#FF7800"/>
<path d="M103.8 11.4003C104.2 10.6003 104.7 9.8003 105.6 9.5003C106.1 9.3003 106.5 9.6003 106.8 9.9003C107.3 11.1003 107.2 12.4003 106.8 13.6003C106 12.7003 104.9 11.9003 103.8 11.4003Z" fill="white"/>
<path d="M106.8 9.90039C107.8 10.4004 108.6 11.2004 109.3 12.0004C109.8 12.6004 110.2 13.4004 110.1 14.1004C110 14.8004 109.7 15.3004 109.2 15.9004C108.3 16.9004 107.2 17.8004 106 18.5004C105.5 18.8004 104.9 19.0004 104.3 18.9004C103.5 18.7004 102.9 18.1004 102.6 17.4004C104.4 16.5004 106 15.3004 106.7 13.6004C107.2 12.4004 107.3 11.1004 106.8 9.90039Z" fill="#FF7800"/>
<path d="M246.4 17.0004C246.3 17.0004 246.2 17.0004 246.1 16.9004L243.6 14.4004C243.4 14.2004 243.4 14.0004 243.6 13.8004C243.8 13.6004 244 13.6004 244.2 13.8004L246.4 16.0004L248.6 13.8004C248.8 13.6004 249 13.6004 249.2 13.8004C249.4 14.0004 249.4 14.2004 249.2 14.4004L246.7 16.9004C246.6 16.9004 246.5 17.0004 246.4 17.0004Z" fill="white"/>
<path d="M306.6 0H266.6V29.4H306.6V0Z" fill="#001C68"/>
<path d="M306.6 27.8008H266.6V29.4008H306.6V27.8008Z" fill="#FF7800"/>
<path d="M274.8 15.9004V17.2004H274V13.4004H275.5C275.8 13.4004 276 13.5004 276.3 13.6004C276.5 13.7004 276.7 13.9004 276.8 14.0004C276.9 14.2004 277 14.4004 277 14.7004C277 15.1004 276.9 15.4004 276.6 15.6004C276.3 15.8004 276 15.9004 275.5 15.9004H274.8ZM274.8 15.2004H275.5C275.7 15.2004 275.9 15.2004 276 15.1004C276.1 15.0004 276.2 14.9004 276.2 14.7004C276.2 14.5004 276.1 14.4004 276 14.2004C275.9 14.1004 275.7 14.0004 275.5 14.0004H274.8V15.2004Z" fill="white"/>
<path d="M279.1 16.4004H277.7L277.4 17.2004H276.6L278 13.4004H278.7L280.1 17.2004H279.3L279.1 16.4004ZM277.9 15.8004H278.8L278.3 14.4004L277.9 15.8004Z" fill="white"/>
<path d="M283.5 16.7008C283.4 16.9008 283.2 17.0008 282.9 17.1008C282.6 17.2008 282.4 17.2008 282 17.2008C281.7 17.2008 281.4 17.1008 281.1 17.0008C280.9 16.9008 280.7 16.6008 280.5 16.4008C280.3 16.2008 280.3 15.8008 280.3 15.4008V15.1008C280.3 14.7008 280.4 14.4008 280.5 14.1008C280.6 13.8008 280.8 13.6008 281.1 13.5008C281.3 13.4008 281.6 13.3008 281.9 13.3008C282.4 13.3008 282.7 13.4008 283 13.6008C283.3 13.8008 283.4 14.1008 283.5 14.5008H282.7C282.7 14.3008 282.6 14.1008 282.5 14.0008C282.4 13.9008 282.2 13.8008 282 13.8008C281.7 13.8008 281.5 13.9008 281.4 14.1008C281.3 14.3008 281.2 14.6008 281.2 15.0008V15.2008C281.2 15.6008 281.3 15.9008 281.4 16.1008C281.5 16.3008 281.8 16.4008 282.1 16.4008C282.4 16.4008 282.6 16.3008 282.7 16.2008V15.5008H282V14.9008H283.5V16.7008Z" fill="white"/>
<path d="M287.2 15.4004C287.2 15.8004 287.1 16.1004 287 16.4004C286.9 16.7004 286.7 16.9004 286.4 17.1004C286.2 17.3004 285.9 17.3004 285.6 17.3004C285.3 17.3004 285 17.2004 284.8 17.1004C284.6 16.9004 284.4 16.7004 284.2 16.5004C284.1 16.2004 284 15.9004 284 15.5004V15.3004C284 14.9004 284.1 14.6004 284.2 14.3004C284.3 14.0004 284.5 13.8004 284.8 13.6004C285 13.4004 285.3 13.4004 285.6 13.4004C285.9 13.4004 286.2 13.5004 286.4 13.6004C286.6 13.7004 286.8 14.0004 287 14.3004C287.1 14.6004 287.2 14.9004 287.2 15.3004V15.4004ZM286.4 15.2004C286.4 14.8004 286.3 14.5004 286.2 14.3004C286.1 14.1004 285.9 14.0004 285.6 14.0004C285.3 14.0004 285.1 14.1004 285 14.3004C284.9 14.5004 284.8 14.8004 284.8 15.2004V15.4004C284.8 15.8004 284.9 16.1004 285 16.3004C285.1 16.5004 285.3 16.6004 285.6 16.6004C285.9 16.6004 286.1 16.5004 286.2 16.3004C286.3 16.1004 286.4 15.8004 286.4 15.4004V15.2004Z" fill="white"/>
<path d="M289.8 16.2004C289.8 16.1004 289.7 15.9004 289.6 15.9004C289.5 15.8004 289.3 15.7004 289 15.6004C288.7 15.5004 288.5 15.4004 288.4 15.3004C288 15.1004 287.8 14.8004 287.8 14.4004C287.8 14.2004 287.9 14.0004 288 13.9004C288.1 13.7004 288.3 13.6004 288.5 13.5004C288.7 13.4004 289 13.4004 289.2 13.4004C289.5 13.4004 289.7 13.4004 289.9 13.5004C290.1 13.6004 290.3 13.7004 290.4 13.9004C290.5 14.1004 290.6 14.3004 290.6 14.5004H289.8C289.8 14.3004 289.7 14.2004 289.6 14.1004C289.5 14.0004 289.3 14.0004 289.1 14.0004C288.9 14.0004 288.8 14.0004 288.7 14.1004C288.6 14.2004 288.5 14.3004 288.5 14.4004C288.5 14.5004 288.6 14.6004 288.7 14.7004C288.8 14.8004 289 14.9004 289.2 14.9004C289.6 15.0004 290 15.2004 290.2 15.4004C290.4 15.6004 290.5 15.8004 290.5 16.1004C290.5 16.4004 290.4 16.7004 290.1 16.9004C289.9 17.1004 289.5 17.2004 289.1 17.2004C288.8 17.2004 288.5 17.1004 288.3 17.0004C288.1 16.9004 287.9 16.7004 287.8 16.6004C287.7 16.4004 287.6 16.2004 287.6 16.0004H288.4C288.4 16.4004 288.7 16.6004 289.2 16.6004C289.4 16.6004 289.5 16.6004 289.6 16.5004C289.7 16.5004 289.8 16.4004 289.8 16.2004Z" fill="white"/>
<path d="M295.9 17.0004C295.8 17.0004 295.7 17.0004 295.6 16.9004L293.1 14.4004C292.9 14.2004 292.9 14.0004 293.1 13.8004C293.3 13.6004 293.5 13.6004 293.7 13.8004L295.9 16.0004L298.1 13.8004C298.3 13.6004 298.5 13.6004 298.7 13.8004C298.9 14.0004 298.9 14.2004 298.7 14.4004L296.2 16.9004C296.1 16.9004 296 17.0004 295.9 17.0004Z" fill="white"/>
<path d="M283.8 43.1996V37.5996H286.3C287.4 37.5996 288 38.0996 288 39.1996C288 40.2996 287.2 40.9996 285.7 41.2996L285.6 40.3996C286.5 40.1996 287 39.8996 287 39.2996C287 38.7996 286.8 38.5996 286.3 38.5996H284.9V43.2996H283.8V43.1996Z" fill="white"/>
<path d="M288.4 41.8996C288.4 41.0996 289 40.6996 290.2 40.6996C290.5 40.6996 290.8 40.6996 291 40.7996V40.4996C291 40.0996 290.7 39.8996 290.2 39.8996C289.8 39.8996 289.3 39.9996 288.7 40.0996V39.2996C289.2 39.1996 289.7 39.0996 290.2 39.0996C291.4 39.0996 292 39.5996 292 40.4996V43.2996H291.4L291 42.8996C290.6 43.0996 290.2 43.2996 289.8 43.2996C288.9 43.1996 288.4 42.6996 288.4 41.8996ZM290.2 41.3996C289.7 41.3996 289.5 41.5996 289.5 41.8996C289.5 42.2996 289.7 42.3996 290.1 42.3996C290.4 42.3996 290.8 42.2996 291.1 42.0996V41.3996C290.7 41.3996 290.5 41.3996 290.2 41.3996Z" fill="white"/>
<path d="M296.7 42.8992C296.7 44.0992 296 44.6992 294.5 44.6992C294 44.6992 293.5 44.5992 293.2 44.4992V43.6992C293.6 43.7992 294.1 43.8992 294.6 43.8992C295.3 43.8992 295.7 43.5992 295.7 42.9992C295.4 43.0992 295.1 43.1992 294.7 43.1992C293.5 43.1992 292.9 42.4992 292.9 41.1992C292.9 39.7992 293.6 39.1992 295 39.1992C295.5 39.1992 296.1 39.2992 296.7 39.3992V42.8992ZM295.7 39.9992C295.5 39.8992 295.3 39.8992 295 39.8992C294.3 39.8992 293.9 40.2992 293.9 41.0992C293.9 41.8992 294.2 42.1992 294.8 42.1992C295.1 42.1992 295.4 42.0992 295.7 41.9992V39.9992Z" fill="white"/>
<path d="M297.5 41.8996C297.5 41.0996 298.1 40.6996 299.3 40.6996C299.6 40.6996 299.9 40.6996 300.1 40.7996V40.4996C300.1 40.0996 299.8 39.8996 299.3 39.8996C298.9 39.8996 298.4 39.9996 297.8 40.0996V39.2996C298.3 39.1996 298.8 39.0996 299.3 39.0996C300.5 39.0996 301.1 39.5996 301.1 40.4996V43.2996H300.5L300.1 42.8996C299.7 43.0996 299.3 43.2996 298.9 43.2996C298 43.1996 297.5 42.6996 297.5 41.8996ZM299.3 41.3996C298.8 41.3996 298.6 41.5996 298.6 41.8996C298.6 42.2996 298.8 42.3996 299.2 42.3996C299.5 42.3996 299.9 42.2996 300.2 42.0996V41.3996C299.8 41.3996 299.6 41.3996 299.3 41.3996Z" fill="white"/>
<path d="M302.1 43.1996V39.0996H302.9L303 39.5996C303.4 39.1996 303.7 39.0996 304.1 39.0996V39.8996C303.7 39.8996 303.4 40.0996 303.1 40.3996V43.1996H302.1Z" fill="white"/>
<path d="M310.3 39.0996V43.1996H309.5L309.4 42.6996C308.9 43.0996 308.4 43.1996 307.9 43.1996C307.1 43.1996 306.6 42.6996 306.6 41.6996V39.0996H307.6V41.6996C307.6 42.1996 307.8 42.3996 308.2 42.3996C308.5 42.3996 308.9 42.2996 309.2 41.9996V39.0996H310.3Z" fill="white"/>
<path d="M311.2 43.1996V39.0996H312L312.1 39.6996C312.5 39.2996 312.9 39.0996 313.4 39.0996C314.4 39.0996 314.9 39.5996 314.9 40.5996V43.1996H313.9V40.5996C313.9 40.0996 313.7 39.8996 313.2 39.8996C312.9 39.8996 312.5 39.9996 312.2 40.2996V43.1996H311.2Z" fill="white"/>
<path d="M317.7 42.9996V42.0996C318.2 42.2996 318.7 42.3996 319.3 42.3996C319.7 42.3996 320 42.2996 320 41.9996C320 41.6996 319.8 41.5996 319.5 41.5996H318.8C318 41.5996 317.5 41.1996 317.5 40.3996C317.5 39.4996 318.1 39.0996 319.3 39.0996C319.8 39.0996 320.3 39.1996 320.8 39.2996V40.1996C320.3 39.9996 319.8 39.8996 319.3 39.8996C318.7 39.8996 318.5 39.9996 318.5 40.2996C318.5 40.5996 318.7 40.6996 319 40.6996H319.7C320.6 40.6996 321.1 41.0996 321.1 41.8996C321.1 42.7996 320.5 43.1996 319.4 43.1996C318.7 43.1996 318.2 43.0996 317.7 42.9996Z" fill="white"/>
<path d="M323.5 39.0996C324.7 39.0996 325.4 39.6996 325.4 40.9996C325.4 41.1996 325.4 41.2996 325.4 41.4996H322.7C322.7 42.0996 323.1 42.3996 324 42.3996C324.4 42.3996 324.8 42.3996 325.2 42.2996V43.0996C324.8 43.1996 324.4 43.1996 323.9 43.1996C322.4 43.1996 321.7 42.4996 321.7 41.0996C321.5 39.6996 322.2 39.0996 323.5 39.0996ZM322.6 40.7996H324.4C324.4 40.1996 324.1 39.8996 323.5 39.8996C322.9 39.8996 322.6 40.1996 322.6 40.7996Z" fill="white"/>
<path d="M326.1 43.1996V39.0996H326.9L327 39.5996C327.4 39.1996 327.7 39.0996 328.1 39.0996V39.8996C327.7 39.8996 327.4 40.0996 327.1 40.3996V43.1996H326.1Z" fill="white"/>
<path d="M328.3 39.0996H329.4L330.4 41.9996L331.4 39.0996H332.5L330.8 43.1996H329.8L328.3 39.0996Z" fill="white"/>
<path d="M334.1 37.5996V38.3996H333.1V37.5996H334.1ZM334.1 39.0996V43.1996H333.1V39.0996H334.1Z" fill="white"/>
<path d="M338.1 43.0996C337.8 43.1996 337.4 43.1996 337 43.1996C335.5 43.1996 334.8 42.4996 334.8 41.0996C334.8 39.7996 335.5 39.0996 337 39.0996C337.4 39.0996 337.7 39.0996 338.1 39.1996V39.9996C337.8 39.8996 337.4 39.8996 337.1 39.8996C336.3 39.8996 335.9 40.2996 335.9 41.0996C335.9 41.9996 336.3 42.3996 337.1 42.3996C337.4 42.3996 337.7 42.3996 338.1 42.2996V43.0996Z" fill="white"/>
<path d="M339.8 37.5996V38.3996H338.8V37.5996H339.8ZM339.8 39.0996V43.1996H338.8V39.0996H339.8Z" fill="white"/>
<path d="M340.6 41.1C340.6 39.7 341.3 39 342.6 39C343.9 39 344.6 39.7 344.6 41.1C344.6 42.5 343.9 43.2 342.6 43.2C341.3 43.2 340.6 42.5 340.6 41.1ZM342.6 42.4C343.3 42.4 343.6 42 343.6 41.1C343.6 40.3 343.3 39.8 342.6 39.8C341.9 39.8 341.6 40.2 341.6 41.1C341.6 42 342 42.4 342.6 42.4Z" fill="white"/>
<path d="M283.8 61.9008V56.3008H286.3C287.4 56.3008 288 56.8008 288 57.9008C288 59.0008 287.2 59.7008 285.7 60.0008L285.6 59.1008C286.5 58.9008 287 58.6008 287 58.0008C287 57.5008 286.8 57.3008 286.3 57.3008H284.9V62.0008H283.8V61.9008Z" fill="#6C77A0"/>
<path d="M288.4 60.6008C288.4 59.8008 289 59.4008 290.2 59.4008C290.5 59.4008 290.8 59.4008 291 59.5008V59.2008C291 58.8008 290.7 58.6008 290.2 58.6008C289.8 58.6008 289.3 58.7008 288.7 58.8008V58.0008C289.2 57.9008 289.7 57.8008 290.2 57.8008C291.4 57.8008 292 58.3008 292 59.2008V62.0008H291.4L291 61.6008C290.6 61.8008 290.2 62.0008 289.8 62.0008C288.9 61.9008 288.4 61.5008 288.4 60.6008ZM290.2 60.1008C289.7 60.1008 289.5 60.3008 289.5 60.6008C289.5 61.0008 289.7 61.1008 290.1 61.1008C290.4 61.1008 290.8 61.0008 291.1 60.8008V60.1008C290.7 60.1008 290.5 60.1008 290.2 60.1008Z" fill="#6C77A0"/>
<path d="M296.7 61.6004C296.7 62.8004 296 63.4004 294.5 63.4004C294 63.4004 293.5 63.3004 293.2 63.2004V62.4004C293.6 62.5004 294.1 62.6004 294.6 62.6004C295.3 62.6004 295.7 62.3004 295.7 61.7004C295.4 61.8004 295.1 61.9004 294.7 61.9004C293.5 61.9004 292.9 61.2004 292.9 59.9004C292.9 58.5004 293.6 57.9004 295 57.9004C295.5 57.9004 296.1 58.0004 296.7 58.1004V61.6004ZM295.7 58.7004C295.5 58.6004 295.3 58.6004 295 58.6004C294.3 58.6004 293.9 59.0004 293.9 59.8004C293.9 60.6004 294.2 60.9004 294.8 60.9004C295.1 60.9004 295.4 60.8004 295.7 60.7004V58.7004Z" fill="#6C77A0"/>
<path d="M297.5 60.6008C297.5 59.8008 298.1 59.4008 299.3 59.4008C299.6 59.4008 299.9 59.4008 300.1 59.5008V59.2008C300.1 58.8008 299.8 58.6008 299.3 58.6008C298.9 58.6008 298.4 58.7008 297.8 58.8008V58.0008C298.3 57.9008 298.8 57.8008 299.3 57.8008C300.5 57.8008 301.1 58.3008 301.1 59.2008V62.0008H300.5L300.1 61.6008C299.7 61.8008 299.3 62.0008 298.9 62.0008C298 61.9008 297.5 61.5008 297.5 60.6008ZM299.3 60.1008C298.8 60.1008 298.6 60.3008 298.6 60.6008C298.6 61.0008 298.8 61.1008 299.2 61.1008C299.5 61.1008 299.9 61.0008 300.2 60.8008V60.1008C299.8 60.1008 299.6 60.1008 299.3 60.1008Z" fill="#6C77A0"/>
<path d="M302.1 61.9008V57.8008H302.9L303 58.3008C303.4 57.9008 303.7 57.8008 304.1 57.8008V58.6008C303.7 58.6008 303.4 58.8008 303.1 59.1008V61.9008H302.1Z" fill="#6C77A0"/>
<path d="M306.5 57.1016H307.3L307.5 57.8016H308.5V58.6016H307.6V60.5016C307.6 60.9016 307.8 61.1016 308.1 61.1016H308.5V61.9016H307.6C306.9 61.9016 306.6 61.5016 306.6 60.8016V57.1016H306.5Z" fill="#6C77A0"/>
<path d="M309 60.6008C309 59.8008 309.6 59.4008 310.8 59.4008C311.1 59.4008 311.4 59.4008 311.6 59.5008V59.2008C311.6 58.8008 311.3 58.6008 310.8 58.6008C310.4 58.6008 309.9 58.7008 309.3 58.8008V58.0008C309.8 57.9008 310.3 57.8008 310.8 57.8008C312 57.8008 312.6 58.3008 312.6 59.2008V62.0008H312L311.6 61.6008C311.2 61.8008 310.8 62.0008 310.4 62.0008C309.5 61.9008 309 61.5008 309 60.6008ZM310.7 60.1008C310.2 60.1008 310 60.3008 310 60.6008C310 61.0008 310.2 61.1008 310.6 61.1008C310.9 61.1008 311.3 61.0008 311.6 60.8008V60.1008C311.3 60.1008 311 60.1008 310.7 60.1008Z" fill="#6C77A0"/>
<path d="M313.6 61.9008V57.8008H314.4L314.5 58.3008C314.9 57.9008 315.2 57.8008 315.6 57.8008V58.6008C315.2 58.6008 314.9 58.8008 314.6 59.1008V61.9008H313.6Z" fill="#6C77A0"/>
<path d="M317.3 57.8008V61.6008C317.3 62.4008 317.1 63.1008 316.6 63.6008L315.8 63.0008C316.1 62.6008 316.3 62.2008 316.3 61.5008V57.7008H317.3V57.8008ZM317.3 56.3008V57.1008H316.3V56.3008H317.3Z" fill="#6C77A0"/>
<path d="M320 57.8008C321.2 57.8008 321.9 58.4008 321.9 59.7008C321.9 59.9008 321.9 60.0008 321.9 60.2008H319.2C319.2 60.8008 319.6 61.1008 320.5 61.1008C320.9 61.1008 321.3 61.1008 321.7 61.0008V61.8008C321.3 61.9008 320.9 61.9008 320.4 61.9008C318.9 61.9008 318.2 61.2008 318.2 59.8008C318.1 58.5008 318.7 57.8008 320 57.8008ZM319.1 59.5008H320.9C320.9 58.9008 320.6 58.6008 320 58.6008C319.5 58.6008 319.2 58.9008 319.1 59.5008Z" fill="#6C77A0"/>
<path d="M322.6 57.1016H323.4L323.6 57.8016H324.6V58.6016H323.7V60.5016C323.7 60.9016 323.9 61.1016 324.2 61.1016H324.6V61.9016H323.7C323 61.9016 322.7 61.5016 322.7 60.8016V57.1016H322.6Z" fill="#6C77A0"/>
<path d="M325.1 60.6008C325.1 59.8008 325.7 59.4008 326.9 59.4008C327.2 59.4008 327.5 59.4008 327.7 59.5008V59.2008C327.7 58.8008 327.4 58.6008 326.9 58.6008C326.5 58.6008 326 58.7008 325.4 58.8008V58.0008C325.9 57.9008 326.4 57.8008 326.9 57.8008C328.1 57.8008 328.7 58.3008 328.7 59.2008V62.0008H328.1L327.7 61.6008C327.3 61.8008 326.9 62.0008 326.5 62.0008C325.6 61.9008 325.1 61.5008 325.1 60.6008ZM326.9 60.1008C326.4 60.1008 326.2 60.3008 326.2 60.6008C326.2 61.0008 326.4 61.1008 326.8 61.1008C327.1 61.1008 327.5 61.0008 327.8 60.8008V60.1008C327.4 60.1008 327.2 60.1008 326.9 60.1008Z" fill="#6C77A0"/>
<path d="M329.7 61.7008V60.8008C330.2 61.0008 330.7 61.1008 331.3 61.1008C331.7 61.1008 332 61.0008 332 60.7008C332 60.4008 331.8 60.3008 331.5 60.3008H330.8C330 60.3008 329.5 59.9008 329.5 59.1008C329.5 58.2008 330.1 57.8008 331.3 57.8008C331.8 57.8008 332.3 57.9008 332.8 58.0008V58.9008C332.3 58.7008 331.8 58.6008 331.3 58.6008C330.7 58.6008 330.5 58.7008 330.5 59.0008C330.5 59.3008 330.7 59.4008 331 59.4008H331.7C332.6 59.4008 333.1 59.8008 333.1 60.6008C333.1 61.5008 332.5 61.9008 331.4 61.9008C330.7 61.9008 330.2 61.9008 329.7 61.7008Z" fill="#6C77A0"/>
<path d="M339.2 61.7008C338.6 61.9008 338 61.9008 337.4 61.9008C336.1 61.9008 335.4 61.2008 335.4 59.8008C335.4 58.5008 336.1 57.8008 337.4 57.8008C337.7 57.8008 338 57.9008 338.2 58.0008V56.3008H339.2V61.7008ZM338.1 58.9008C337.9 58.8008 337.6 58.7008 337.3 58.7008C336.7 58.7008 336.3 59.1008 336.3 59.8008C336.3 60.7008 336.6 61.1008 337.3 61.1008C337.6 61.1008 337.8 61.1008 338.1 61.0008V58.9008Z" fill="#6C77A0"/>
<path d="M341.9 57.8008C343.1 57.8008 343.8 58.4008 343.8 59.7008C343.8 59.9008 343.8 60.0008 343.8 60.2008H341C341 60.8008 341.4 61.1008 342.3 61.1008C342.7 61.1008 343.1 61.1008 343.5 61.0008V61.8008C343.1 61.9008 342.7 61.9008 342.2 61.9008C340.7 61.9008 340 61.2008 340 59.8008C339.9 58.5008 340.6 57.8008 341.9 57.8008ZM341 59.5008H342.8C342.8 58.9008 342.5 58.6008 341.9 58.6008C341.3 58.6008 341 58.9008 341 59.5008Z" fill="#6C77A0"/>
<path d="M349.3 61.8008C349 61.9008 348.6 61.9008 348.2 61.9008C346.7 61.9008 346 61.2008 346 59.8008C346 58.5008 346.7 57.8008 348.2 57.8008C348.6 57.8008 348.9 57.8008 349.3 57.9008V58.7008C349 58.6008 348.6 58.6008 348.3 58.6008C347.5 58.6008 347.1 59.0008 347.1 59.8008C347.1 60.7008 347.5 61.1008 348.3 61.1008C348.6 61.1008 348.9 61.1008 349.3 61.0008V61.8008Z" fill="#6C77A0"/>
<path d="M350 61.9008V57.8008H350.8L350.9 58.3008C351.3 57.9008 351.6 57.8008 352 57.8008V58.6008C351.6 58.6008 351.3 58.8008 351 59.1008V61.9008H350Z" fill="#6C77A0"/>
<path d="M354.4 57.8008C355.6 57.8008 356.3 58.4008 356.3 59.7008C356.3 59.9008 356.3 60.0008 356.3 60.2008H353.6C353.6 60.8008 354 61.1008 354.9 61.1008C355.3 61.1008 355.7 61.1008 356.1 61.0008V61.8008C355.7 61.9008 355.3 61.9008 354.8 61.9008C353.3 61.9008 352.6 61.2008 352.6 59.8008C352.5 58.5008 353.1 57.8008 354.4 57.8008ZM353.5 59.5008H355.3C355.3 58.9008 355 58.6008 354.4 58.6008C353.9 58.6008 353.6 58.9008 353.5 59.5008ZM354.4 56.3008H355.7L354.8 57.3008H353.9L354.4 56.3008Z" fill="#6C77A0"/>
<path d="M360.7 61.7008C360.1 61.9008 359.5 61.9008 358.9 61.9008C357.6 61.9008 356.9 61.2008 356.9 59.8008C356.9 58.5008 357.6 57.8008 358.9 57.8008C359.2 57.8008 359.5 57.9008 359.7 58.0008V56.3008H360.7V61.7008ZM359.7 58.9008C359.5 58.8008 359.2 58.7008 358.9 58.7008C358.3 58.7008 357.9 59.1008 357.9 59.8008C357.9 60.7008 358.2 61.1008 358.9 61.1008C359.2 61.1008 359.4 61.1008 359.7 61.0008V58.9008Z" fill="#6C77A0"/>
<path d="M362.7 56.3008V57.1008H361.7V56.3008H362.7ZM362.7 57.8008V61.9008H361.7V57.8008H362.7Z" fill="#6C77A0"/>
<path d="M363.6 57.1016H364.4L364.6 57.8016H365.6V58.6016H364.7V60.5016C364.7 60.9016 364.9 61.1016 365.2 61.1016H365.6V61.9016H364.7C364 61.9016 363.7 61.5016 363.7 60.8016V57.1016H363.6Z" fill="#6C77A0"/>
<path d="M366.1 59.8012C366.1 58.4012 366.8 57.7012 368.1 57.7012C369.4 57.7012 370.1 58.4012 370.1 59.8012C370.1 61.2012 369.4 61.9012 368.1 61.9012C366.8 61.9012 366.1 61.2012 366.1 59.8012ZM368.2 61.1012C368.9 61.1012 369.2 60.7012 369.2 59.8012C369.2 59.0012 368.9 58.5012 368.2 58.5012C367.5 58.5012 367.2 58.9012 367.2 59.8012C367.2 60.7012 367.5 61.1012 368.2 61.1012Z" fill="#6C77A0"/>
<path d="M283.8 80.6V75H286.3C287.4 75 288 75.5 288 76.6C288 77.7 287.2 78.4 285.7 78.7L285.6 77.8C286.5 77.6 287 77.3 287 76.7C287 76.2 286.8 76 286.3 76H284.9V80.7H283.8V80.6Z" fill="#6C77A0"/>
<path d="M288.4 79.3C288.4 78.5 289 78.1 290.2 78.1C290.5 78.1 290.8 78.1 291 78.2V77.9C291 77.5 290.7 77.3 290.2 77.3C289.8 77.3 289.3 77.4 288.7 77.5V76.7C289.2 76.6 289.7 76.5 290.2 76.5C291.4 76.5 292 77 292 77.9V80.7H291.4L291 80.3C290.6 80.5 290.2 80.7 289.8 80.7C288.9 80.6 288.4 80.2 288.4 79.3ZM290.2 78.8C289.7 78.8 289.5 79 289.5 79.3C289.5 79.7 289.7 79.8 290.1 79.8C290.4 79.8 290.8 79.7 291.1 79.5V78.8C290.7 78.9 290.5 78.8 290.2 78.8Z" fill="#6C77A0"/>
<path d="M296.7 80.3016C296.7 81.5016 296 82.1016 294.5 82.1016C294 82.1016 293.5 82.0016 293.2 81.9016V81.1016C293.6 81.2016 294.1 81.3016 294.6 81.3016C295.3 81.3016 295.7 81.0016 295.7 80.4016C295.4 80.5016 295.1 80.6016 294.7 80.6016C293.5 80.6016 292.9 79.9016 292.9 78.6016C292.9 77.2016 293.6 76.6016 295 76.6016C295.5 76.6016 296.1 76.7016 296.7 76.8016V80.3016ZM295.7 77.4016C295.5 77.3016 295.3 77.3016 295 77.3016C294.3 77.3016 293.9 77.7016 293.9 78.5016C293.9 79.3016 294.2 79.6016 294.8 79.6016C295.1 79.6016 295.4 79.5016 295.7 79.4016V77.4016Z" fill="#6C77A0"/>
<path d="M297.5 79.3C297.5 78.5 298.1 78.1 299.3 78.1C299.6 78.1 299.9 78.1 300.1 78.2V77.9C300.1 77.5 299.8 77.3 299.3 77.3C298.9 77.3 298.4 77.4 297.8 77.5V76.7C298.3 76.6 298.8 76.5 299.3 76.5C300.5 76.5 301.1 77 301.1 77.9V80.7H300.5L300.1 80.3C299.7 80.5 299.3 80.7 298.9 80.7C298 80.6 297.5 80.2 297.5 79.3ZM299.3 78.8C298.8 78.8 298.6 79 298.6 79.3C298.6 79.7 298.8 79.8 299.2 79.8C299.5 79.8 299.9 79.7 300.2 79.5V78.8C299.8 78.9 299.6 78.8 299.3 78.8Z" fill="#6C77A0"/>
<path d="M302.1 80.6V76.5H302.9L303 77C303.4 76.6 303.7 76.5 304.1 76.5V77.3C303.7 77.3 303.4 77.5 303.1 77.8V80.6H302.1Z" fill="#6C77A0"/>
<path d="M307.6 75V80.6H306.6V75H307.6Z" fill="#6C77A0"/>
<path d="M310.3 76.5C311.5 76.5 312.2 77.1 312.2 78.4C312.2 78.6 312.2 78.7 312.2 78.9H309.5C309.5 79.5 309.9 79.8 310.8 79.8C311.2 79.8 311.6 79.8 312 79.7V80.5C311.6 80.6 311.2 80.6 310.7 80.6C309.2 80.6 308.5 79.9 308.5 78.5C308.4 77.2 309 76.5 310.3 76.5ZM309.4 78.2H311.2C311.2 77.6 310.9 77.3 310.3 77.3C309.8 77.3 309.5 77.6 309.4 78.2Z" fill="#6C77A0"/>
<path d="M312.9 75.8008H313.7L313.9 76.5008H314.9V77.3008H314V79.2008C314 79.6008 314.2 79.8008 314.5 79.8008H314.9V80.6008H314C313.3 80.6008 313 80.2008 313 79.5008V75.8008H312.9Z" fill="#6C77A0"/>
<path d="M315.6 80.6V76.5H316.4L316.5 77C316.9 76.6 317.2 76.5 317.6 76.5V77.3C317.2 77.3 316.9 77.5 316.6 77.8V80.6H315.6Z" fill="#6C77A0"/>
<path d="M318 79.3C318 78.5 318.6 78.1 319.8 78.1C320.1 78.1 320.4 78.1 320.6 78.2V77.9C320.6 77.5 320.3 77.3 319.8 77.3C319.4 77.3 318.9 77.4 318.3 77.5V76.7C318.8 76.6 319.3 76.5 319.8 76.5C321 76.5 321.6 77 321.6 77.9V80.7H321L320.6 80.3C320.2 80.5 319.8 80.7 319.4 80.7C318.5 80.6 318 80.2 318 79.3ZM319.8 78.8C319.3 78.8 319.1 79 319.1 79.3C319.1 79.7 319.3 79.8 319.7 79.8C320 79.8 320.4 79.7 320.7 79.5V78.8C320.4 78.9 320.1 78.8 319.8 78.8Z" fill="#6C77A0"/>
<path d="M322.7 80.4V79.5C323.2 79.7 323.7 79.8 324.3 79.8C324.7 79.8 325 79.7 325 79.4C325 79.1 324.8 79 324.5 79H323.8C323 79 322.5 78.6 322.5 77.8C322.5 76.9 323.1 76.5 324.3 76.5C324.8 76.5 325.3 76.6 325.8 76.7V77.6C325.3 77.4 324.8 77.3 324.3 77.3C323.7 77.3 323.5 77.4 323.5 77.7C323.5 78 323.7 78.1 324 78.1H324.7C325.6 78.1 326.1 78.5 326.1 79.3C326.1 80.2 325.5 80.6 324.4 80.6C323.6 80.7 323.1 80.6 322.7 80.4Z" fill="#6C77A0"/>
<path d="M328 76.5H329.1L330.1 79.5L331.1 76.5H332.2L330.5 80.7C330.2 81.4 329.7 82 329 82.3L328.5 81.6C329 81.4 329.3 81.1 329.5 80.6L328 76.5Z" fill="#6C77A0"/>
<path d="M334.5 80.6008V76.5008C334.5 75.4008 335.1 74.8008 336.3 74.8008C336.6 74.8008 336.9 74.9008 337.2 75.0008V75.8008C336.9 75.7008 336.7 75.6008 336.4 75.6008C335.8 75.6008 335.5 75.9008 335.5 76.5008H336.7V77.3008H335.5V80.6008H334.5Z" fill="#6C77A0"/>
<path d="M336.9 79.3C336.9 78.5 337.5 78.1 338.7 78.1C339 78.1 339.3 78.1 339.5 78.2V77.9C339.5 77.5 339.2 77.3 338.7 77.3C338.3 77.3 337.8 77.4 337.2 77.5V76.7C337.7 76.6 338.2 76.5 338.7 76.5C339.9 76.5 340.5 77 340.5 77.9V80.7H339.9L339.5 80.3C339.1 80.5 338.7 80.7 338.3 80.7C337.4 80.6 336.9 80.2 336.9 79.3ZM338.7 78.8C338.2 78.8 338 79 338 79.3C338 79.7 338.2 79.8 338.6 79.8C338.9 79.8 339.3 79.7 339.6 79.5V78.8C339.3 78.9 339 78.8 338.7 78.8Z" fill="#6C77A0"/>
<path d="M344.6 80.5C344.3 80.6 343.9 80.6 343.5 80.6C342 80.6 341.3 79.9 341.3 78.5C341.3 77.2 342 76.5 343.5 76.5C343.9 76.5 344.2 76.5 344.6 76.6V77.4C344.3 77.3 343.9 77.3 343.6 77.3C342.8 77.3 342.4 77.7 342.4 78.5C342.4 79.4 342.8 79.8 343.6 79.8C343.9 79.8 344.2 79.8 344.6 79.7V80.5Z" fill="#6C77A0"/>
<path d="M345.2 75.8008H346L346.2 76.5008H347.2V77.3008H346.3V79.2008C346.3 79.6008 346.5 79.8008 346.8 79.8008H347.2V80.6008H346.3C345.6 80.6008 345.3 80.2008 345.3 79.5008V75.8008H345.2Z" fill="#6C77A0"/>
<path d="M351.6 76.5V80.6H350.8L350.7 80.1C350.2 80.5 349.7 80.6 349.2 80.6C348.4 80.6 347.9 80.1 347.9 79.1V76.5H348.9V79.1C348.9 79.6 349.1 79.8 349.5 79.8C349.8 79.8 350.2 79.7 350.5 79.4V76.5H351.6Z" fill="#6C77A0"/>
<path d="M352.5 80.6V76.5H353.3L353.4 77C353.8 76.6 354.1 76.5 354.5 76.5V77.3C354.1 77.3 353.8 77.5 353.5 77.8V80.6H352.5Z" fill="#6C77A0"/>
<path d="M355 79.3C355 78.5 355.6 78.1 356.8 78.1C357.1 78.1 357.4 78.1 357.6 78.2V77.9C357.6 77.5 357.3 77.3 356.8 77.3C356.4 77.3 355.9 77.4 355.3 77.5V76.7C355.8 76.6 356.3 76.5 356.8 76.5C358 76.5 358.6 77 358.6 77.9V80.7H358L357.6 80.3C357.2 80.5 356.8 80.7 356.4 80.7C355.5 80.6 355 80.2 355 79.3ZM356.8 78.8C356.3 78.8 356.1 79 356.1 79.3C356.1 79.7 356.3 79.8 356.7 79.8C357 79.8 357.4 79.7 357.7 79.5V78.8C357.4 78.9 357.1 78.8 356.8 78.8Z" fill="#6C77A0"/>
<path d="M359.7 80.4V79.5C360.2 79.7 360.7 79.8 361.3 79.8C361.7 79.8 362 79.7 362 79.4C362 79.1 361.8 79 361.5 79H360.8C360 79 359.5 78.6 359.5 77.8C359.5 76.9 360.1 76.5 361.3 76.5C361.8 76.5 362.3 76.6 362.8 76.7V77.6C362.3 77.4 361.8 77.3 361.3 77.3C360.7 77.3 360.5 77.4 360.5 77.7C360.5 78 360.7 78.1 361 78.1H361.7C362.6 78.1 363.1 78.5 363.1 79.3C363.1 80.2 362.5 80.6 361.4 80.6C360.6 80.7 360.1 80.6 359.7 80.4Z" fill="#6C77A0"/>
<path d="M283.8 99.3988V93.7988H286.3C287.4 93.7988 288 94.2988 288 95.3988C288 96.4988 287.2 97.1988 285.7 97.4988L285.6 96.5988C286.5 96.3988 287 96.0988 287 95.4988C287 94.9988 286.8 94.7988 286.3 94.7988H284.9V99.4988H283.8V99.3988Z" fill="#6C77A0"/>
<path d="M288.4 98.0988C288.4 97.2988 289 96.8988 290.2 96.8988C290.5 96.8988 290.8 96.8988 291 96.9988V96.6988C291 96.2988 290.7 96.0988 290.2 96.0988C289.8 96.0988 289.3 96.1988 288.7 96.2988V95.4988C289.2 95.3988 289.7 95.2988 290.2 95.2988C291.4 95.2988 292 95.7988 292 96.6988V99.4988H291.4L291 99.0988C290.6 99.2988 290.2 99.4988 289.8 99.4988C288.9 99.3988 288.4 98.8988 288.4 98.0988ZM290.2 97.5988C289.7 97.5988 289.5 97.7988 289.5 98.0988C289.5 98.4988 289.7 98.5988 290.1 98.5988C290.4 98.5988 290.8 98.4988 291.1 98.2988V97.5988C290.7 97.5988 290.5 97.5988 290.2 97.5988Z" fill="#6C77A0"/>
<path d="M296.7 98.9988C296.7 100.199 296 100.799 294.5 100.799C294 100.799 293.5 100.699 293.2 100.599V99.7988C293.6 99.8988 294.1 99.9988 294.6 99.9988C295.3 99.9988 295.7 99.6988 295.7 99.0988C295.4 99.1988 295.1 99.2988 294.7 99.2988C293.5 99.2988 292.9 98.5988 292.9 97.2988C292.9 95.8988 293.6 95.2988 295 95.2988C295.5 95.2988 296.1 95.3988 296.7 95.4988V98.9988ZM295.7 96.1988C295.5 96.0988 295.3 96.0988 295 96.0988C294.3 96.0988 293.9 96.4988 293.9 97.2988C293.9 98.0988 294.2 98.3988 294.8 98.3988C295.1 98.3988 295.4 98.2988 295.7 98.1988V96.1988Z" fill="#6C77A0"/>
<path d="M297.5 98.0988C297.5 97.2988 298.1 96.8988 299.3 96.8988C299.6 96.8988 299.9 96.8988 300.1 96.9988V96.6988C300.1 96.2988 299.8 96.0988 299.3 96.0988C298.9 96.0988 298.4 96.1988 297.8 96.2988V95.4988C298.3 95.3988 298.8 95.2988 299.3 95.2988C300.5 95.2988 301.1 95.7988 301.1 96.6988V99.4988H300.5L300.1 99.0988C299.7 99.2988 299.3 99.4988 298.9 99.4988C298 99.3988 297.5 98.8988 297.5 98.0988ZM299.3 97.5988C298.8 97.5988 298.6 97.7988 298.6 98.0988C298.6 98.4988 298.8 98.5988 299.2 98.5988C299.5 98.5988 299.9 98.4988 300.2 98.2988V97.5988C299.8 97.5988 299.6 97.5988 299.3 97.5988Z" fill="#6C77A0"/>
<path d="M302.1 99.3988V95.2988H302.9L303 95.7988C303.4 95.3988 303.7 95.2988 304.1 95.2988V96.0988C303.7 96.0988 303.4 96.2988 303.1 96.5988V99.3988H302.1Z" fill="#6C77A0"/>
<path d="M309.6 99.1992C309.3 99.2992 308.9 99.2992 308.5 99.2992C307 99.2992 306.3 98.5992 306.3 97.1992C306.3 95.8992 307 95.1992 308.5 95.1992C308.9 95.1992 309.2 95.1992 309.6 95.2992V96.0992C309.3 95.9992 308.9 95.9992 308.6 95.9992C307.8 95.9992 307.4 96.3992 307.4 97.1992C307.4 98.0992 307.8 98.4992 308.6 98.4992C308.9 98.4992 309.2 98.4992 309.6 98.3992V99.1992Z" fill="#6C77A0"/>
<path d="M310.3 99.3988V95.2988H311.1L311.2 95.7988C311.6 95.3988 311.9 95.2988 312.3 95.2988V96.0988C311.9 96.0988 311.6 96.2988 311.3 96.5988V99.3988H310.3Z" fill="#6C77A0"/>
<path d="M314.7 95.1988C315.9 95.1988 316.6 95.7988 316.6 97.0988C316.6 97.2988 316.6 97.3988 316.6 97.5988H313.9C313.9 98.1988 314.3 98.4988 315.2 98.4988C315.6 98.4988 316 98.4988 316.4 98.3988V99.1988C316 99.2988 315.6 99.2988 315.1 99.2988C313.6 99.2988 312.9 98.5988 312.9 97.1988C312.7 95.8988 313.4 95.1988 314.7 95.1988ZM313.8 96.8988H315.6C315.6 96.2988 315.3 95.9988 314.7 95.9988C314.1 96.0988 313.8 96.3988 313.8 96.8988ZM314.6 93.7988H315.9L315 94.7988H314.1L314.6 93.7988Z" fill="#6C77A0"/>
<path d="M321 99.0992C320.4 99.2992 319.8 99.2992 319.2 99.2992C317.9 99.2992 317.2 98.5992 317.2 97.1992C317.2 95.8992 317.9 95.1992 319.2 95.1992C319.5 95.1992 319.8 95.2992 320 95.3992V93.6992H321V99.0992ZM319.9 96.2992C319.7 96.1992 319.4 96.0992 319.1 96.0992C318.5 96.0992 318.1 96.4992 318.1 97.1992C318.1 98.0992 318.4 98.4992 319.1 98.4992C319.4 98.4992 319.6 98.4992 319.9 98.3992V96.2992Z" fill="#6C77A0"/>
<path d="M323 93.7988V94.5988H322V93.7988H323ZM323 95.1988V99.2988H322V95.1988H323Z" fill="#6C77A0"/>
<path d="M323.9 94.5996H324.7L324.9 95.2996H325.9V96.0996H325V97.9996C325 98.3996 325.2 98.5996 325.5 98.5996H325.9V99.3996H325C324.3 99.3996 324 98.9996 324 98.2996V94.5996H323.9Z" fill="#6C77A0"/>
<path d="M326.4 97.2992C326.4 95.8992 327.1 95.1992 328.4 95.1992C329.7 95.1992 330.4 95.8992 330.4 97.2992C330.4 98.6992 329.7 99.3992 328.4 99.3992C327.1 99.3992 326.4 98.6992 326.4 97.2992ZM328.4 98.5992C329.1 98.5992 329.4 98.1992 329.4 97.2992C329.4 96.4992 329.1 95.9992 328.4 95.9992C327.7 95.9992 327.4 96.3992 327.4 97.2992C327.4 98.0992 327.7 98.5992 328.4 98.5992Z" fill="#6C77A0"/>
<path d="M331.2 99.1988V98.2988C331.7 98.4988 332.2 98.5988 332.8 98.5988C333.2 98.5988 333.5 98.4988 333.5 98.1988C333.5 97.8988 333.3 97.7988 333 97.7988H332.3C331.5 97.7988 331 97.3988 331 96.5988C331 95.6988 331.6 95.2988 332.8 95.2988C333.3 95.2988 333.8 95.3988 334.3 95.4988V96.3988C333.8 96.1988 333.3 96.0988 332.8 96.0988C332.2 96.0988 332 96.1988 332 96.4988C332 96.7988 332.2 96.8988 332.5 96.8988H333.2C334.1 96.8988 334.6 97.2988 334.6 98.0988C334.6 98.9988 334 99.3988 332.9 99.3988C332.2 99.3988 331.7 99.2988 331.2 99.1988Z" fill="#6C77A0"/>
<path d="M348.7 33.5H278.6V48H348.7V33.5Z" stroke="#FF4200" stroke-width="1.7698" stroke-miterlimit="10"/>
<path d="M118.7 80.6V72H122.6C124.4 72 125.2 72.8 125.2 74.4C125.2 76.2 124 77.2 121.6 77.6L121.4 76.2C122.9 75.9 123.6 75.4 123.6 74.5C123.6 73.8 123.2 73.4 122.5 73.4H120.3V80.6H118.7Z" fill="#0050B1"/>
<path d="M125.8 78.5996C125.8 77.2996 126.7 76.6996 128.6 76.6996C129 76.6996 129.5 76.6996 129.9 76.7996V76.2996C129.9 75.6996 129.5 75.3996 128.7 75.3996C128 75.3996 127.2 75.4996 126.4 75.6996V74.3996C127.2 74.1996 128 74.0996 128.7 74.0996C130.6 74.0996 131.5 74.7996 131.5 76.1996V80.4996H130.6L130 79.8996C129.4 80.2996 128.8 80.4996 128.2 80.4996C126.6 80.5996 125.8 79.9996 125.8 78.5996ZM128.6 77.7996C127.8 77.7996 127.4 78.0996 127.4 78.5996C127.4 79.1996 127.7 79.3996 128.4 79.3996C128.9 79.3996 129.4 79.1996 129.9 78.8996V77.8996C129.5 77.8996 129 77.7996 128.6 77.7996Z" fill="#0050B1"/>
<path d="M138.6 80.0992C138.6 81.9992 137.5 82.8992 135.3 82.8992C134.5 82.8992 133.8 82.7992 133.2 82.5992V81.2992C133.8 81.4992 134.5 81.5992 135.3 81.5992C136.5 81.5992 137 81.0992 137 80.0992C136.5 80.2992 136 80.3992 135.5 80.3992C133.6 80.3992 132.7 79.3992 132.7 77.2992C132.7 75.1992 133.8 74.1992 136 74.1992C136.7 74.1992 137.6 74.2992 138.7 74.4992V80.0992H138.6ZM137 75.6992C136.7 75.5992 136.4 75.5992 135.9 75.5992C134.8 75.5992 134.2 76.1992 134.2 77.3992C134.2 78.5992 134.7 79.1992 135.6 79.1992C136.1 79.1992 136.5 79.0992 136.9 78.8992V75.6992H137Z" fill="#0050B1"/>
<path d="M139.8 77.5008C139.8 75.4008 140.8 74.3008 142.9 74.3008C145 74.3008 146 75.4008 146 77.5008C146 79.6008 145 80.7008 142.9 80.7008C140.9 80.6008 139.9 79.6008 139.8 77.5008ZM143 79.4008C144 79.4008 144.5 78.7008 144.5 77.4008C144.5 76.1008 144 75.5008 143 75.5008C142 75.5008 141.5 76.1008 141.5 77.4008C141.5 78.8008 142 79.4008 143 79.4008Z" fill="#0050B1"/>
<path d="M155.7 80.2C154.7 80.5 153.8 80.6 152.9 80.6C150.8 80.6 149.8 79.5 149.8 77.3C149.8 75.3 150.8 74.3 152.8 74.3C153.2 74.3 153.7 74.4 154.1 74.6V72H155.7V80.2ZM154.1 75.9C153.8 75.7 153.4 75.6 152.9 75.6C151.9 75.6 151.4 76.2 151.4 77.3C151.4 78.6 151.9 79.3 153 79.3C153.4 79.3 153.8 79.2 154.2 79.1V75.9H154.1Z" fill="#0050B1"/>
<path d="M159.9 74.3008C161.8 74.3008 162.8 75.3008 162.8 77.3008C162.8 77.6008 162.8 77.8008 162.7 78.1008H158.5C158.5 79.0008 159.2 79.4008 160.5 79.4008C161.1 79.4008 161.8 79.3008 162.4 79.2008V80.5008C161.8 80.6008 161.2 80.7008 160.4 80.7008C158.1 80.7008 156.9 79.6008 156.9 77.5008C156.9 75.3008 157.9 74.3008 159.9 74.3008ZM158.5 76.9008H161.2C161.2 76.0008 160.8 75.6008 159.9 75.6008C159 75.5008 158.6 76.0008 158.5 76.9008Z" fill="#0050B1"/>
<path d="M166.7 80.2992V78.9992C167.4 79.2992 168.2 79.3992 169.1 79.3992C169.8 79.3992 170.1 79.1992 170.1 78.6992C170.1 78.2992 169.9 78.0992 169.4 78.0992H168.3C167 78.0992 166.4 77.4992 166.4 76.1992C166.4 74.8992 167.3 74.1992 169.2 74.1992C170 74.1992 170.8 74.2992 171.5 74.5992V75.8992C170.8 75.5992 170 75.4992 169.2 75.4992C168.3 75.4992 167.9 75.6992 167.9 76.1992C167.9 76.5992 168.2 76.7992 168.7 76.7992H169.7C171.1 76.7992 171.8 77.3992 171.8 78.6992C171.8 79.9992 170.9 80.6992 169.1 80.6992C168.2 80.6992 167.4 80.5992 166.7 80.2992Z" fill="#0050B1"/>
<path d="M175.6 74.3008C177.5 74.3008 178.5 75.3008 178.5 77.3008C178.5 77.6008 178.5 77.8008 178.4 78.1008H174.2C174.2 79.0008 174.9 79.4008 176.2 79.4008C176.8 79.4008 177.5 79.3008 178.1 79.2008V80.5008C177.5 80.6008 176.9 80.7008 176.1 80.7008C173.8 80.7008 172.6 79.6008 172.6 77.5008C172.6 75.3008 173.6 74.3008 175.6 74.3008ZM174.2 76.9008H176.9C176.9 76.0008 176.5 75.6008 175.6 75.6008C174.7 75.5008 174.3 76.0008 174.2 76.9008Z" fill="#0050B1"/>
<path d="M179.7 80.5992V74.1992H180.9L181.1 74.9992C181.7 74.4992 182.2 74.1992 182.9 74.1992V75.4992C182.3 75.4992 181.8 75.6992 181.3 76.1992V80.4992H179.7V80.5992Z" fill="#0050B1"/>
<path d="M183 74.3008H184.7L186.2 78.7008L187.8 74.3008H189.5L186.9 80.7008H185.4L183 74.3008Z" fill="#0050B1"/>
<path d="M191.9 72V73.3H190.3V72H191.9ZM191.9 74.3V80.7H190.3V74.3H191.9Z" fill="#0050B1"/>
<path d="M198.1 80.3992C197.6 80.4992 197 80.5992 196.5 80.5992C194.2 80.5992 193.1 79.4992 193.1 77.2992C193.1 75.2992 194.2 74.1992 196.5 74.1992C197.1 74.1992 197.6 74.2992 198.1 74.3992V75.6992C197.6 75.5992 197.1 75.4992 196.6 75.4992C195.3 75.4992 194.7 76.0992 194.7 77.2992C194.7 78.6992 195.3 79.2992 196.6 79.2992C197.1 79.2992 197.6 79.1992 198.1 79.0992V80.3992Z" fill="#0050B1"/>
<path d="M200.8 72V73.3H199.2V72H200.8ZM200.8 74.3V80.7H199.2V74.3H200.8Z" fill="#0050B1"/>
<path d="M202 77.5008C202 75.4008 203 74.3008 205.1 74.3008C207.2 74.3008 208.2 75.4008 208.2 77.5008C208.2 79.6008 207.2 80.7008 205.1 80.7008C203.1 80.6008 202 79.6008 202 77.5008ZM205.1 79.4008C206.1 79.4008 206.6 78.7008 206.6 77.4008C206.6 76.1008 206.1 75.5008 205.1 75.5008C204.1 75.5008 203.6 76.1008 203.6 77.4008C203.6 78.8008 204.1 79.4008 205.1 79.4008Z" fill="#0050B1"/>
<path d="M102.6 92.3996V87.0996H105.1C106.1 87.0996 106.6 87.4996 106.6 88.2996C106.6 88.8996 106.3 89.2996 105.6 89.5996C106.3 89.6996 106.7 90.0996 106.7 90.7996C106.7 91.7996 106.1 92.3996 105 92.3996H102.6ZM105 91.5996C105.4 91.5996 105.7 91.3996 105.7 90.8996C105.7 90.2996 105.4 90.0996 104.7 90.0996H104.4V89.4996C105.2 89.3996 105.6 88.9996 105.6 88.4996C105.6 88.1996 105.4 88.0996 105.1 88.0996H103.7V91.6996H105V91.5996Z" fill="#7CA2CB"/>
<path d="M110.9 88.5V92.4H110.1L110 91.9C109.6 92.2 109.1 92.4 108.6 92.4C107.8 92.4 107.4 91.9 107.4 91V88.5H108.4V91C108.4 91.4 108.6 91.6 109 91.6C109.3 91.6 109.6 91.5 110 91.2V88.5H110.9Z" fill="#7CA2CB"/>
<path d="M111.9 92.2V91.4C112.3 91.6 112.8 91.7 113.4 91.7C113.8 91.7 114 91.6 114 91.3C114 91 113.9 90.9 113.6 90.9H112.9C112.1 90.9 111.7 90.5 111.7 89.7C111.7 88.9 112.3 88.5 113.4 88.5C113.9 88.5 114.4 88.6 114.8 88.7V89.5C114.4 89.3 113.9 89.2 113.4 89.2C112.9 89.2 112.6 89.3 112.6 89.6C112.6 89.9 112.8 90 113.1 90H113.7C114.6 90 115 90.4 115 91.2C115 92 114.4 92.4 113.3 92.4C112.8 92.5 112.3 92.4 111.9 92.2Z" fill="#7CA2CB"/>
<path d="M118.5 92.3C118.2 92.4 117.8 92.4 117.5 92.4C116.1 92.4 115.4 91.7 115.4 90.4C115.4 89.2 116.1 88.5 117.5 88.5C117.8 88.5 118.2 88.5 118.5 88.6V89.4C118.2 89.3 117.9 89.3 117.6 89.3C116.8 89.3 116.4 89.7 116.4 90.4C116.4 91.2 116.8 91.6 117.6 91.6C117.9 91.6 118.2 91.6 118.5 91.5V92.3Z" fill="#7CA2CB"/>
<path d="M119 91.2C119 90.4 119.6 90 120.7 90C121 90 121.2 90 121.5 90.1V89.8C121.5 89.5 121.2 89.3 120.7 89.3C120.3 89.3 119.8 89.4 119.3 89.5V88.7C119.8 88.6 120.3 88.5 120.7 88.5C121.9 88.5 122.4 88.9 122.4 89.8V92.4H121.8L121.5 92.1C121.2 92.3 120.8 92.4 120.4 92.4C119.5 92.4 119 92 119 91.2ZM120.7 90.7C120.2 90.7 120 90.9 120 91.2C120 91.5 120.2 91.7 120.6 91.7C120.9 91.7 121.2 91.6 121.5 91.4V90.8C121.2 90.7 121 90.7 120.7 90.7Z" fill="#7CA2CB"/>
<path d="M126 87.0996V92.3996H125V87.0996H126Z" fill="#7CA2CB"/>
<path d="M126.8 91.2C126.8 90.4 127.4 90 128.5 90C128.8 90 129 90 129.3 90.1V89.8C129.3 89.5 129 89.3 128.5 89.3C128.1 89.3 127.6 89.4 127.1 89.5V88.7C127.6 88.6 128.1 88.5 128.5 88.5C129.7 88.5 130.2 88.9 130.2 89.8V92.4H129.6L129.3 92.1C129 92.3 128.6 92.4 128.2 92.4C127.3 92.4 126.8 92 126.8 91.2ZM128.5 90.7C128 90.7 127.8 90.9 127.8 91.2C127.8 91.5 128 91.7 128.4 91.7C128.7 91.7 129 91.6 129.3 91.4V90.8C129 90.7 128.8 90.7 128.5 90.7Z" fill="#7CA2CB"/>
<path d="M134.5 88.5C135.7 88.5 136.3 89.1 136.3 90.3C136.3 90.5 136.3 90.6 136.3 90.8H133.7C133.7 91.3 134.1 91.6 134.9 91.6C135.3 91.6 135.7 91.6 136.1 91.5V92.3C135.8 92.4 135.3 92.4 134.8 92.4C133.4 92.4 132.7 91.7 132.7 90.4C132.7 89.2 133.3 88.5 134.5 88.5ZM133.6 90.1H135.3C135.3 89.6 135 89.3 134.5 89.3C134 89.3 133.7 89.6 133.6 90.1Z" fill="#7CA2CB"/>
<path d="M137 92.4V88.5H137.8L137.9 89.1C138.2 88.7 138.7 88.5 139.2 88.5C139.7 88.5 140 88.7 140.2 89C140.6 88.6 141 88.5 141.5 88.5C142.4 88.5 142.8 89 142.8 90V92.4H141.8V90C141.8 89.6 141.6 89.4 141.2 89.4C140.9 89.4 140.6 89.5 140.4 89.8V92.5H139.4V90C139.4 89.6 139.2 89.3 138.9 89.3C138.6 89.3 138.3 89.4 138.1 89.7V92.4H137Z" fill="#7CA2CB"/>
<path d="M143.7 88.7C144.2 88.6 144.8 88.5 145.3 88.5C146.6 88.5 147.3 89.1 147.3 90.4C147.3 91.8 146.7 92.4 145.5 92.4C145.2 92.4 145 92.3 144.7 92.2V93.8H143.7V88.7ZM144.6 91.4C144.8 91.5 145.1 91.6 145.4 91.6C146 91.6 146.3 91.2 146.3 90.4C146.3 89.7 146 89.4 145.3 89.4C145 89.4 144.8 89.4 144.6 89.5V91.4Z" fill="#7CA2CB"/>
<path d="M148 92.4V88.5H148.8L148.9 89C149.2 88.7 149.6 88.5 150 88.5V89.3C149.6 89.3 149.3 89.5 149 89.8V92.4H148Z" fill="#7CA2CB"/>
<path d="M152.2 88.5C153.4 88.5 154 89.1 154 90.3C154 90.5 154 90.6 154 90.8H151.4C151.4 91.3 151.8 91.6 152.6 91.6C153 91.6 153.4 91.6 153.8 91.5V92.3C153.5 92.4 153 92.4 152.5 92.4C151.1 92.4 150.4 91.7 150.4 90.4C150.4 89.2 151 88.5 152.2 88.5ZM151.3 90.1H153C153 89.6 152.7 89.3 152.2 89.3C151.7 89.3 151.4 89.6 151.3 90.1Z" fill="#7CA2CB"/>
<path d="M154.7 92.2V91.4C155.1 91.6 155.6 91.7 156.2 91.7C156.6 91.7 156.8 91.6 156.8 91.3C156.8 91 156.7 90.9 156.4 90.9H155.7C154.9 90.9 154.5 90.5 154.5 89.7C154.5 88.9 155.1 88.5 156.2 88.5C156.7 88.5 157.2 88.6 157.6 88.7V89.5C157.2 89.3 156.7 89.2 156.2 89.2C155.7 89.2 155.4 89.3 155.4 89.6C155.4 89.9 155.6 90 155.9 90H156.5C157.4 90 157.8 90.4 157.8 91.2C157.8 92 157.2 92.4 156.1 92.4C155.6 92.5 155.1 92.4 154.7 92.2Z" fill="#7CA2CB"/>
<path d="M158.3 91.2C158.3 90.4 158.9 90 160 90C160.3 90 160.5 90 160.8 90.1V89.8C160.8 89.5 160.5 89.3 160 89.3C159.6 89.3 159.1 89.4 158.6 89.5V88.7C159.1 88.6 159.6 88.5 160 88.5C161.2 88.5 161.7 88.9 161.7 89.8V92.4H161.1L160.8 92.1C160.5 92.3 160.1 92.4 159.7 92.4C158.8 92.4 158.3 92 158.3 91.2ZM160 90.7C159.5 90.7 159.3 90.9 159.3 91.2C159.3 91.5 159.5 91.7 159.9 91.7C160.2 91.7 160.5 91.6 160.8 91.4V90.8C160.6 90.7 160.3 90.7 160 90.7Z" fill="#7CA2CB"/>
<path d="M167.9 93.8H166.9V92.2C166.6 92.3 166.3 92.4 166 92.4C164.8 92.4 164.2 91.7 164.2 90.4C164.2 89.1 164.9 88.5 166.2 88.5C166.7 88.5 167.2 88.6 167.8 88.7V93.8H167.9ZM166.9 89.4C166.7 89.3 166.4 89.3 166.3 89.3C165.6 89.3 165.2 89.7 165.2 90.4C165.2 91.2 165.5 91.6 166.1 91.6C166.4 91.6 166.7 91.5 166.9 91.4V89.4Z" fill="#7CA2CB"/>
<path d="M172.3 88.5V92.4H171.5L171.4 91.9C171 92.2 170.5 92.4 170 92.4C169.2 92.4 168.8 91.9 168.8 91V88.5H169.8V91C169.8 91.4 170 91.6 170.4 91.6C170.7 91.6 171 91.5 171.4 91.2V88.5H172.3Z" fill="#7CA2CB"/>
<path d="M174.9 88.5C176.1 88.5 176.7 89.1 176.7 90.3C176.7 90.5 176.7 90.6 176.7 90.8H174C174 91.3 174.4 91.6 175.2 91.6C175.6 91.6 176 91.6 176.4 91.5V92.3C176.1 92.4 175.6 92.4 175.1 92.4C173.7 92.4 173 91.7 173 90.4C173 89.2 173.6 88.5 174.9 88.5ZM174 90.1H175.7C175.7 89.6 175.4 89.3 174.9 89.3C174.3 89.3 174.1 89.6 174 90.1Z" fill="#7CA2CB"/>
<path d="M182.5 92.1996C181.9 92.3996 181.3 92.3996 180.8 92.3996C179.5 92.3996 178.9 91.6996 178.9 90.3996C178.9 89.1996 179.5 88.4996 180.7 88.4996C181 88.4996 181.2 88.5996 181.5 88.6996V87.0996H182.5V92.1996ZM181.5 89.4996C181.3 89.3996 181 89.2996 180.7 89.2996C180.1 89.2996 179.8 89.5996 179.8 90.2996C179.8 91.0996 180.1 91.4996 180.8 91.4996C181.1 91.4996 181.3 91.4996 181.5 91.3996V89.4996Z" fill="#7CA2CB"/>
<path d="M185.1 88.5C186.3 88.5 186.9 89.1 186.9 90.3C186.9 90.5 186.9 90.6 186.9 90.8H184.3C184.3 91.3 184.7 91.6 185.5 91.6C185.9 91.6 186.3 91.6 186.7 91.5V92.3C186.4 92.4 185.9 92.4 185.4 92.4C184 92.4 183.3 91.7 183.3 90.4C183.2 89.2 183.8 88.5 185.1 88.5ZM184.2 90.1H185.9C185.9 89.6 185.6 89.3 185.1 89.3C184.5 89.3 184.3 89.6 184.2 90.1Z" fill="#7CA2CB"/>
<path d="M187.6 92.2V91.4C188 91.6 188.5 91.7 189.1 91.7C189.5 91.7 189.7 91.6 189.7 91.3C189.7 91 189.6 90.9 189.3 90.9H188.6C187.8 90.9 187.4 90.5 187.4 89.7C187.4 88.9 188 88.5 189.1 88.5C189.6 88.5 190.1 88.6 190.5 88.7V89.5C190.1 89.3 189.6 89.2 189.1 89.2C188.6 89.2 188.3 89.3 188.3 89.6C188.3 89.9 188.5 90 188.8 90H189.4C190.3 90 190.7 90.4 190.7 91.2C190.7 92 190.1 92.4 189 92.4C188.5 92.5 188 92.4 187.6 92.2Z" fill="#7CA2CB"/>
<path d="M193 88.5C194.2 88.5 194.8 89.1 194.8 90.3C194.8 90.5 194.8 90.6 194.8 90.8H192.2C192.2 91.3 192.6 91.6 193.4 91.6C193.8 91.6 194.2 91.6 194.6 91.5V92.3C194.3 92.4 193.8 92.4 193.3 92.4C191.9 92.4 191.2 91.7 191.2 90.4C191.2 89.2 191.8 88.5 193 88.5ZM192.2 90.1H193.9C193.9 89.6 193.6 89.3 193.1 89.3C192.5 89.3 192.2 89.6 192.2 90.1Z" fill="#7CA2CB"/>
<path d="M195.3 91.2C195.3 90.4 195.9 90 197 90C197.3 90 197.5 90 197.8 90.1V89.8C197.8 89.5 197.5 89.3 197 89.3C196.6 89.3 196.1 89.4 195.6 89.5V88.7C196.1 88.6 196.6 88.5 197 88.5C198.2 88.5 198.7 88.9 198.7 89.8V92.4H198.1L197.8 92.1C197.5 92.3 197.1 92.4 196.7 92.4C195.8 92.4 195.3 92 195.3 91.2ZM197 90.7C196.5 90.7 196.3 90.9 196.3 91.2C196.3 91.5 196.5 91.7 196.9 91.7C197.2 91.7 197.5 91.6 197.8 91.4V90.8C197.6 90.7 197.3 90.7 197 90.7Z" fill="#7CA2CB"/>
<path d="M199.7 92.2V91.4C200.1 91.6 200.6 91.7 201.2 91.7C201.6 91.7 201.8 91.6 201.8 91.3C201.8 91 201.7 90.9 201.4 90.9H200.7C199.9 90.9 199.5 90.5 199.5 89.7C199.5 88.9 200.1 88.5 201.2 88.5C201.7 88.5 202.2 88.6 202.6 88.7V89.5C202.2 89.3 201.7 89.2 201.2 89.2C200.7 89.2 200.4 89.3 200.4 89.6C200.4 89.9 200.6 90 200.9 90H201.5C202.4 90 202.8 90.4 202.8 91.2C202.8 92 202.2 92.4 201.1 92.4C200.7 92.5 200.2 92.4 199.7 92.2Z" fill="#7CA2CB"/>
<path d="M205.2 88.7C205.7 88.6 206.3 88.5 206.8 88.5C208.1 88.5 208.8 89.1 208.8 90.4C208.8 91.8 208.2 92.4 207 92.4C206.7 92.4 206.5 92.3 206.2 92.2V93.8H205.2V88.7ZM206.2 91.4C206.4 91.5 206.7 91.6 207 91.6C207.6 91.6 207.9 91.2 207.9 90.4C207.9 89.7 207.6 89.4 206.9 89.4C206.6 89.4 206.4 89.4 206.2 89.5V91.4Z" fill="#7CA2CB"/>
<path d="M209.4 91.2C209.4 90.4 210 90 211.1 90C211.4 90 211.6 90 211.9 90.1V89.8C211.9 89.5 211.6 89.3 211.1 89.3C210.7 89.3 210.2 89.4 209.7 89.5V88.7C210.2 88.6 210.7 88.5 211.1 88.5C212.3 88.5 212.8 88.9 212.8 89.8V92.4H212.2L211.9 92.1C211.6 92.3 211.2 92.4 210.8 92.4C209.9 92.4 209.4 92 209.4 91.2ZM211.1 90.7C210.6 90.7 210.4 90.9 210.4 91.2C210.4 91.5 210.6 91.7 211 91.7C211.3 91.7 211.6 91.6 211.9 91.4V90.8C211.6 90.7 211.4 90.7 211.1 90.7Z" fill="#7CA2CB"/>
<path d="M217.3 92.1C217.3 93.2 216.6 93.8 215.2 93.8C214.7 93.8 214.3 93.7 213.9 93.6V92.8C214.3 92.9 214.7 93 215.2 93C215.9 93 216.3 92.7 216.3 92.1C216 92.2 215.7 92.3 215.4 92.3C214.2 92.3 213.7 91.7 213.7 90.4C213.7 89.1 214.4 88.5 215.7 88.5C216.2 88.5 216.7 88.6 217.3 88.7V92.1ZM216.3 89.4C216.1 89.3 215.9 89.3 215.6 89.3C214.9 89.3 214.6 89.7 214.6 90.4C214.6 91.1 214.9 91.5 215.5 91.5C215.8 91.5 216.1 91.4 216.3 91.3V89.4Z" fill="#7CA2CB"/>
<path d="M218 91.2C218 90.4 218.6 90 219.7 90C220 90 220.2 90 220.5 90.1V89.8C220.5 89.5 220.2 89.3 219.7 89.3C219.3 89.3 218.8 89.4 218.3 89.5V88.7C218.8 88.6 219.3 88.5 219.7 88.5C220.9 88.5 221.4 88.9 221.4 89.8V92.4H220.8L220.5 92.1C220.2 92.3 219.8 92.4 219.4 92.4C218.5 92.4 218 92 218 91.2ZM219.7 90.7C219.2 90.7 219 90.9 219 91.2C219 91.5 219.2 91.7 219.6 91.7C219.9 91.7 220.2 91.6 220.5 91.4V90.8C220.2 90.7 220 90.7 219.7 90.7Z" fill="#7CA2CB"/>
<path d="M222.4 92.4V88.5H223.2L223.3 89C223.6 88.7 224 88.5 224.4 88.5V89.3C224 89.3 223.7 89.5 223.4 89.8V92.4H222.4Z" fill="#7CA2CB"/>
<path d="M51 135.199V135.999H48.3V137.299H50.8V138.199H48.3V139.599H51V140.499H47.3V135.199H51Z" fill="#C9CACA"/>
<path d="M51.9001 140.3V139.5C52.3001 139.7 52.8001 139.8 53.4001 139.8C53.8001 139.8 54.0001 139.7 54.0001 139.4C54.0001 139.1 53.9001 139 53.6001 139H52.9001C52.1001 139 51.7001 138.6 51.7001 137.8C51.7001 137 52.3001 136.6 53.4001 136.6C53.9001 136.6 54.4001 136.7 54.8001 136.8V137.6C54.4001 137.4 53.9001 137.3 53.4001 137.3C52.9001 137.3 52.6001 137.4 52.6001 137.7C52.6001 138 52.8001 138.1 53.1001 138.1H53.7001C54.6001 138.1 55.0001 138.5 55.0001 139.3C55.0001 140.1 54.4001 140.5 53.3001 140.5C52.8001 140.6 52.4001 140.5 51.9001 140.3Z" fill="#C9CACA"/>
<path d="M58.6 140.4C58.3 140.5 57.9 140.5 57.6 140.5C56.2 140.5 55.5 139.8 55.5 138.5C55.5 137.3 56.2 136.6 57.6 136.6C57.9 136.6 58.3 136.6 58.6 136.7V137.5C58.3 137.4 58 137.4 57.7 137.4C56.9 137.4 56.5 137.8 56.5 138.5C56.5 139.3 56.9 139.7 57.7 139.7C58 139.7 58.3 139.7 58.6 139.6V140.4Z" fill="#C9CACA"/>
<path d="M59.2001 140.5V136.6H60.0001L60.1001 137.1C60.4001 136.8 60.8001 136.6 61.2001 136.6V137.4C60.8001 137.4 60.5001 137.6 60.2001 137.9V140.5H59.2001Z" fill="#C9CACA"/>
<path d="M62.7001 135.199V135.999H61.7001V135.199H62.7001ZM62.7001 136.599V140.499H61.7001V136.599H62.7001Z" fill="#C9CACA"/>
<path d="M63.7001 135.199H64.7001V136.899C65.0001 136.699 65.3001 136.599 65.7001 136.599C66.8001 136.599 67.4001 137.199 67.4001 138.499C67.4001 139.899 66.8001 140.499 65.5001 140.499C65.0001 140.499 64.4001 140.399 63.8001 140.299V135.199H63.7001ZM64.7001 139.599C64.9001 139.699 65.2001 139.699 65.5001 139.699C66.1001 139.699 66.4001 139.299 66.4001 138.399C66.4001 137.699 66.1001 137.399 65.6001 137.399C65.3001 137.399 65.0001 137.499 64.7001 137.599V139.599Z" fill="#C9CACA"/>
<path d="M69.7 136.6C70.9 136.6 71.5 137.2 71.5 138.4C71.5 138.6 71.5 138.7 71.5 138.9H68.9C68.9 139.4 69.3 139.7 70.1 139.7C70.5 139.7 70.9 139.7 71.3 139.6V140.4C71 140.5 70.5 140.5 70 140.5C68.6 140.5 67.9 139.8 67.9 138.5C67.9 137.3 68.5 136.6 69.7 136.6ZM68.8 138.2H70.5C70.5 137.7 70.2 137.4 69.7 137.4C69.2 137.4 68.9 137.7 68.8 138.2Z" fill="#C9CACA"/>
<path d="M75.5001 136.6C76.7001 136.6 77.3001 137.2 77.3001 138.4C77.3001 138.6 77.3001 138.7 77.3001 138.9H74.7001C74.7001 139.4 75.1001 139.7 75.9001 139.7C76.3001 139.7 76.7001 139.7 77.1001 139.6V140.4C76.8001 140.5 76.3001 140.5 75.8001 140.5C74.4001 140.5 73.7001 139.8 73.7001 138.5C73.7001 137.3 74.3001 136.6 75.5001 136.6ZM74.7001 138.2H76.4001C76.4001 137.7 76.1001 137.4 75.6001 137.4C75.0001 137.4 74.7001 137.7 74.7001 138.2Z" fill="#C9CACA"/>
<path d="M79 135.199V140.499H78V135.199H79Z" fill="#C9CACA"/>
<path d="M81.6001 140.5V136.6H82.4001L82.5001 137.2C82.9001 136.8 83.3001 136.6 83.8001 136.6C84.7001 136.6 85.2001 137.1 85.2001 138V140.5H84.2001V138C84.2001 137.6 84.0001 137.4 83.6001 137.4C83.3001 137.4 83.0001 137.5 82.7001 137.8V140.5H81.6001Z" fill="#C9CACA"/>
<path d="M85.9 138.6C85.9 137.3 86.5 136.6 87.8 136.6C89.1 136.6 89.7 137.3 89.7 138.6C89.7 139.9 89.1 140.6 87.8 140.6C86.5 140.5 85.9 139.9 85.9 138.6ZM87.8 139.8C88.4 139.8 88.7 139.4 88.7 138.6C88.7 137.8 88.4 137.4 87.8 137.4C87.2 137.4 86.9 137.8 86.9 138.6C86.9 139.4 87.2 139.8 87.8 139.8Z" fill="#C9CACA"/>
<path d="M90.5 140.5V136.6H91.3L91.4 137.2C91.7 136.8 92.2 136.6 92.7 136.6C93.2 136.6 93.5 136.8 93.7 137.1C94.1 136.7 94.5 136.6 95 136.6C95.9 136.6 96.3 137.1 96.3 138.1V140.5H95.3V138C95.3 137.6 95.1 137.4 94.7 137.4C94.4 137.4 94.1 137.5 93.9 137.8V140.5H92.9V138.1C92.9 137.7 92.7 137.4 92.4 137.4C92.1 137.4 91.8 137.5 91.6 137.8V140.5H90.5Z" fill="#C9CACA"/>
<path d="M97.1001 135.199H98.1001V136.899C98.4001 136.699 98.7001 136.599 99.1001 136.599C100.2 136.599 100.8 137.199 100.8 138.499C100.8 139.899 100.2 140.499 98.9001 140.499C98.4001 140.499 97.8001 140.399 97.2001 140.299V135.199H97.1001ZM98.1001 139.599C98.3001 139.699 98.6001 139.699 98.9001 139.699C99.5001 139.699 99.8001 139.299 99.8001 138.399C99.8001 137.699 99.5001 137.399 99.0001 137.399C98.7001 137.399 98.4001 137.499 98.1001 137.599V139.599Z" fill="#C9CACA"/>
<path d="M101.5 140.5V136.6H102.3L102.4 137.1C102.7 136.8 103.1 136.6 103.5 136.6V137.4C103.1 137.4 102.8 137.6 102.5 137.9V140.5H101.5Z" fill="#C9CACA"/>
<path d="M105.7 136.6C106.9 136.6 107.5 137.2 107.5 138.4C107.5 138.6 107.5 138.7 107.5 138.9H104.9C104.9 139.4 105.3 139.7 106.1 139.7C106.5 139.7 106.9 139.7 107.3 139.6V140.4C107 140.5 106.5 140.5 106 140.5C104.6 140.5 103.9 139.8 103.9 138.5C103.9 137.3 104.5 136.6 105.7 136.6ZM104.8 138.2H106.5C106.5 137.7 106.2 137.4 105.7 137.4C105.2 137.4 104.9 137.7 104.8 138.2Z" fill="#C9CACA"/>
<path d="M113.3 140.299C112.7 140.499 112.1 140.499 111.6 140.499C110.3 140.499 109.7 139.799 109.7 138.499C109.7 137.299 110.3 136.599 111.5 136.599C111.8 136.599 112 136.699 112.3 136.799V135.199H113.3V140.299ZM112.3 137.699C112.1 137.599 111.8 137.499 111.5 137.499C110.9 137.499 110.6 137.799 110.6 138.499C110.6 139.299 110.9 139.699 111.6 139.699C111.9 139.699 112.1 139.699 112.3 139.599V137.699Z" fill="#C9CACA"/>
<path d="M115.9 136.6C117.1 136.6 117.7 137.2 117.7 138.4C117.7 138.6 117.7 138.7 117.7 138.9H115C115 139.4 115.4 139.7 116.2 139.7C116.6 139.7 117 139.7 117.4 139.6V140.4C117.1 140.5 116.6 140.5 116.1 140.5C114.7 140.5 114 139.8 114 138.5C114.1 137.3 114.7 136.6 115.9 136.6ZM115 138.2H116.7C116.7 137.7 116.4 137.4 115.9 137.4C115.4 137.4 115.1 137.7 115 138.2Z" fill="#C9CACA"/>
<path d="M121 135.199V140.499H120V135.199H121Z" fill="#C9CACA"/>
<path d="M121.8 139.3C121.8 138.5 122.4 138.1 123.5 138.1C123.8 138.1 124 138.1 124.3 138.2V137.9C124.3 137.6 124 137.4 123.5 137.4C123.1 137.4 122.6 137.5 122.1 137.6V136.8C122.6 136.7 123.1 136.6 123.5 136.6C124.7 136.6 125.2 137 125.2 137.9V140.5H124.6L124.3 140.2C124 140.4 123.6 140.5 123.2 140.5C122.3 140.5 121.8 140.1 121.8 139.3ZM123.5 138.8C123 138.8 122.8 139 122.8 139.3C122.8 139.6 123 139.8 123.4 139.8C123.7 139.8 124 139.7 124.3 139.5V138.9C124 138.9 123.8 138.8 123.5 138.8Z" fill="#C9CACA"/>
<path d="M129.5 136.6C130.7 136.6 131.3 137.2 131.3 138.4C131.3 138.6 131.3 138.7 131.3 138.9H128.7C128.7 139.4 129.1 139.7 129.9 139.7C130.3 139.7 130.7 139.7 131.1 139.6V140.4C130.8 140.5 130.3 140.5 129.8 140.5C128.4 140.5 127.7 139.8 127.7 138.5C127.7 137.3 128.3 136.6 129.5 136.6ZM128.7 138.2H130.4C130.4 137.7 130.1 137.4 129.6 137.4C129 137.4 128.7 137.7 128.7 138.2Z" fill="#C9CACA"/>
<path d="M132 140.5V136.6H132.8L132.9 137.2C133.2 136.8 133.7 136.6 134.2 136.6C134.7 136.6 135 136.8 135.2 137.1C135.6 136.7 136 136.6 136.5 136.6C137.4 136.6 137.8 137.1 137.8 138.1V140.5H136.8V138C136.8 137.6 136.6 137.4 136.2 137.4C135.9 137.4 135.6 137.5 135.4 137.8V140.5H134.4V138.1C134.4 137.7 134.2 137.4 133.9 137.4C133.6 137.4 133.3 137.5 133.1 137.8V140.5H132Z" fill="#C9CACA"/>
<path d="M138.7 136.8C139.2 136.7 139.8 136.6 140.3 136.6C141.6 136.6 142.3 137.2 142.3 138.5C142.3 139.9 141.7 140.5 140.5 140.5C140.2 140.5 140 140.4 139.7 140.3V141.9H138.7V136.8ZM139.6 139.5C139.8 139.6 140.1 139.7 140.4 139.7C141 139.7 141.3 139.3 141.3 138.5C141.3 137.8 141 137.5 140.3 137.5C140 137.5 139.8 137.5 139.6 137.6V139.5Z" fill="#C9CACA"/>
<path d="M143 140.5V136.6H143.8L143.9 137.1C144.2 136.8 144.6 136.6 145 136.6V137.4C144.6 137.4 144.3 137.6 144 137.9V140.5H143Z" fill="#C9CACA"/>
<path d="M147.2 136.6C148.4 136.6 149 137.2 149 138.4C149 138.6 149 138.7 149 138.9H146.4C146.4 139.4 146.8 139.7 147.6 139.7C148 139.7 148.4 139.7 148.8 139.6V140.4C148.5 140.5 148 140.5 147.5 140.5C146.1 140.5 145.4 139.8 145.4 138.5C145.4 137.3 146 136.6 147.2 136.6ZM146.4 138.2H148.1C148.1 137.7 147.8 137.4 147.3 137.4C146.7 137.4 146.4 137.7 146.4 138.2Z" fill="#C9CACA"/>
<path d="M149.7 140.3V139.5C150.1 139.7 150.6 139.8 151.2 139.8C151.6 139.8 151.8 139.7 151.8 139.4C151.8 139.1 151.7 139 151.4 139H150.7C149.9 139 149.5 138.6 149.5 137.8C149.5 137 150.1 136.6 151.2 136.6C151.7 136.6 152.2 136.7 152.6 136.8V137.6C152.2 137.4 151.7 137.3 151.2 137.3C150.7 137.3 150.4 137.4 150.4 137.7C150.4 138 150.6 138.1 150.9 138.1H151.5C152.4 138.1 152.8 138.5 152.8 139.3C152.8 140.1 152.2 140.5 151.1 140.5C150.6 140.6 150.1 140.5 149.7 140.3Z" fill="#C9CACA"/>
<path d="M153.3 139.3C153.3 138.5 153.9 138.1 155 138.1C155.3 138.1 155.5 138.1 155.8 138.2V137.9C155.8 137.6 155.5 137.4 155 137.4C154.6 137.4 154.1 137.5 153.6 137.6V136.8C154.1 136.7 154.6 136.6 155 136.6C156.2 136.6 156.7 137 156.7 137.9V140.5H156.1L155.8 140.2C155.5 140.4 155.1 140.5 154.7 140.5C153.8 140.5 153.3 140.1 153.3 139.3ZM155 138.8C154.5 138.8 154.3 139 154.3 139.3C154.3 139.6 154.5 139.8 154.9 139.8C155.2 139.8 155.5 139.7 155.8 139.5V138.9C155.6 138.9 155.3 138.8 155 138.8Z" fill="#C9CACA"/>
<path d="M279.6 148.899H45.7C43.7 148.899 42.2 147.299 42.2 145.399V130.699C42.2 128.699 43.8 127.199 45.7 127.199H279.6C281.6 127.199 283.1 128.799 283.1 130.699V145.399C283.2 147.299 281.6 148.899 279.6 148.899Z" stroke="#B6CEE2" stroke-width="0.8849" stroke-miterlimit="10"/>
<path d="M275 134.4C273.8 133.2 271.8 133.2 270.6 134.4C269.4 135.6 269.4 137.6 270.6 138.8C271.7 139.9 273.4 140 274.6 139.2C274.6 139.3 274.7 139.4 274.8 139.5L276.6 141.3C276.9 141.6 277.3 141.6 277.5 141.3C277.8 141 277.8 140.6 277.5 140.4L275.7 138.6C275.6 138.5 275.5 138.4 275.4 138.4C276.2 137.2 276.1 135.5 275 134.4ZM274.4 138.2C273.5 139.1 272 139.1 271.1 138.2C270.2 137.3 270.2 135.8 271.1 134.9C272 134 273.5 134 274.4 134.9C275.3 135.9 275.3 137.3 274.4 138.2Z" fill="#FF7800"/>
<path d="M288.9 213.001C279.3 210.301 269.3 209.601 259.4 208.501C243.8 206.901 227.7 204.301 214.7 195.701C209.8 192.501 208.4 188.001 202.4 184.701C197.3 181.901 192.1 179.301 186.6 177.401C168.5 171.101 148.2 172.801 130.2 179.701C112.3 186.601 96.6 198.401 83 211.901C71.2 223.601 60.7 236.901 54.8 252.401C53.6 255.501 52.7 258.701 51.9 262.001H158.9C157.1 248.201 162.7 233.901 174.7 225.301C192.1 212.901 216.3 216.901 228.8 234.301C234.8 242.701 236.9 252.601 235.7 262.101H332.9C332.1 259.301 331.2 256.501 330.2 253.701C323 234.501 308.9 218.601 288.9 213.001ZM67.6 253.501C67.4 251.801 68.2 249.701 69.7 248.801C71.2 247.901 73.2 248.001 74.6 249.001C74.1 246.801 73.7 244.501 73.9 242.301C74.1 240.101 75.4 237.801 77.4 236.801C79.8 235.701 82.7 236.701 84.6 238.501C86.3 240.101 87.2 242.301 88 244.501C87.8 243.301 88.1 242.001 89 241.101C90.1 240.001 91.9 239.701 93.3 240.401C94.1 240.801 94.8 241.501 95.3 242.301C96.8 244.201 97.9 246.401 98.7 248.701C99.1 247.501 100.4 246.701 101.6 246.801C102.8 246.901 103.9 248.101 103.9 249.301C104.4 247.901 106 247.201 107.5 247.301C108.9 247.401 110.3 248.101 111.5 248.801C111.6 250.301 111.7 251.801 111.8 253.301H67.6V253.501Z" fill="#D7EFF9"/>
<path d="M107.6 247.4C106.2 247.3 104.5 248 104 249.4C103.9 248.2 102.9 247 101.7 246.9C100.5 246.8 99.2001 247.6 98.8001 248.8C98.0001 246.5 96.9001 244.3 95.4001 242.4C94.8001 241.7 94.2001 240.9 93.4001 240.5C92.0001 239.8 90.2001 240.1 89.1 241.2C88.2001 242.1 87.9 243.4 88.1 244.6C88.2001 244.9 88.3001 245.2 88.4001 245.5C88.3001 245.2 88.2001 244.9 88.1 244.6C87.3001 242.4 86.4 240.2 84.7 238.6C82.8 236.8 79.9001 235.8 77.5001 236.9C75.4001 237.9 74.3001 240.1 74.0001 242.4C73.7001 244.7 74.2 246.9 74.7 249.1C73.3 248.1 71.3001 248 69.8001 248.9C68.3001 249.8 67.6 251.9 67.7 253.6H112C111.9 252.1 111.8 250.6 111.7 249.1C110.3 248.2 109 247.5 107.6 247.4Z" fill="white"/>
<path d="M88 244.5C88.1 244.8 88.2 245.1 88.3 245.4C88.2 245.1 88.1 244.8 88 244.5Z" fill="white"/>
<path d="M98.1 177.301C97.1 177.201 95.9 177.701 95.5 178.701C95.5 177.801 94.7 177.001 93.8 176.901C92.9 176.801 92 177.401 91.7 178.201C91.2 176.501 90.3 175.001 89.2 173.601C88.8 173.101 88.3 172.501 87.7 172.201C86.7 171.701 85.4 171.901 84.6 172.701C84 173.301 83.7 174.301 83.9 175.201C84 175.401 84 175.601 84.1 175.901C84 175.701 83.9 175.501 83.9 175.201C83.4 173.601 82.6 172.101 81.4 170.901C80 169.601 77.9 168.901 76.2 169.701C74.7 170.401 73.9 172.001 73.6 173.601C73.4 175.201 73.7 176.901 74.1 178.501C73.1 177.801 71.6 177.701 70.6 178.401C69.5 179.001 69 180.601 69.1 181.801H101.1C101 180.701 101 179.601 100.9 178.501C100.1 177.901 99.2 177.301 98.1 177.301Z" fill="#D7EFF9"/>
<path d="M84 175.199C84 175.399 84.1 175.699 84.2 175.899C84.2 175.599 84.1 175.399 84 175.199Z" fill="#D7EFF9"/>
<path d="M261.9 186.4C261.9 186.6 262 186.9 262.1 187.1C262.1 186.9 262 186.6 261.9 186.4Z" fill="#D7EFF9"/>
<path d="M287.3 177.299C283.5 177.699 280.4 181.699 280.9 185.499C279.9 183.799 277.7 182.999 275.8 183.499C273.9 183.999 272.4 185.899 272.4 187.799C271.6 185.199 269.7 182.699 267 182.299C264.6 181.899 261.9 184.099 262.1 186.399C262.2 186.599 262.2 186.899 262.3 187.099C262.2 186.899 262.2 186.599 262.1 186.399C261.4 183.399 259.8 180.599 257.4 178.699C256.2 177.699 254.6 176.899 253.1 177.099C251.3 177.299 249.9 178.899 249.1 180.499C247.1 184.099 246.7 188.399 247.8 192.299C245.7 190.699 242.7 190.599 240.5 191.999C238.3 193.399 236.9 196.199 237.4 198.699H297.9C298.6 194.199 298.7 189.399 297.4 184.999C295.9 180.699 291.8 176.799 287.3 177.299Z" fill="#D7EFF9"/>
<path d="M229.4 262.001C230.7 253.801 229 245.101 223.8 237.901C214.7 225.201 198.1 221.001 184.3 227.001L217.9 262.101H229.4V262.001Z" fill="#D7EFF9"/>
<path opacity="0.4" d="M229.4 262.001C230.7 253.801 229 245.101 223.8 237.901C214.7 225.201 198.1 221.001 184.3 227.001L217.9 262.101H229.4V262.001Z" fill="white"/>
<path d="M194.2 262L171.2 237.1C170 238.6 169 240.3 168.2 242L185.8 262H194.2Z" fill="#D7EFF9"/>
<path opacity="0.4" d="M194.2 262L171.2 237.1C170 238.6 169 240.3 168.2 242L185.8 262H194.2Z" fill="white"/>
<path d="M166.1 247.301C164.7 252.001 164.3 257.101 165.1 262.001H179.3L166.1 247.301Z" fill="#D7EFF9"/>
<path opacity="0.4" d="M166.1 247.301C164.7 252.001 164.3 257.101 165.1 262.001H179.3L166.1 247.301Z" fill="white"/>
<path d="M217.9 262L184.3 226.9C182.2 227.8 180.2 228.9 178.3 230.3C175.6 232.3 173.2 234.6 171.3 237.1L194.3 262H217.9Z" fill="#D7EFF9"/>
<path opacity="0.4" d="M217.9 262L184.3 226.9C182.2 227.8 180.2 228.9 178.3 230.3C175.6 232.3 173.2 234.6 171.3 237.1L194.3 262H217.9Z" fill="white"/>
<path opacity="0.5" d="M217.9 262L184.3 226.9C182.2 227.8 180.2 228.9 178.3 230.3C175.6 232.3 173.2 234.6 171.3 237.1L194.3 262H217.9Z" fill="white"/>
<path d="M185.9 262L168.3 242C167.4 243.7 166.7 245.5 166.2 247.3L179.4 262H185.9Z" fill="#D7EFF9"/>
<path opacity="0.4" d="M185.9 262L168.3 242C167.4 243.7 166.7 245.5 166.2 247.3L179.4 262H185.9Z" fill="white"/>
<path opacity="0.5" d="M185.9 262L168.3 242C167.4 243.7 166.7 245.5 166.2 247.3L179.4 262H185.9Z" fill="white"/>
<path d="M164.7 242.201C164.7 242.101 164.8 242.001 164.8 241.901C165.9 239.401 167.4 237.001 169.1 234.801C169.6 234.201 170.1 233.501 170.7 232.901C171.3 232.301 171.8 231.701 172.4 231.101C172.4 231.101 172.5 231.101 172.5 231.001C173 230.501 173.6 230.001 174.1 229.501C174.2 229.401 174.4 229.301 174.5 229.201C175.1 228.701 175.7 228.201 176.4 227.801C176.9 227.501 177.3 227.201 177.8 226.901C178.1 226.701 178.4 226.501 178.7 226.301C178.8 226.201 179 226.101 179.1 226.001C179.5 225.801 179.9 225.501 180.3 225.301C180.3 225.301 180.4 225.301 180.4 225.201C195.9 217.001 215.5 221.301 226 236.001C231.6 243.801 233.6 253.101 232.3 262.001H235.4C236.7 252.501 234.5 242.601 228.5 234.201C216.1 216.801 191.8 212.801 174.4 225.201C162.3 233.801 156.7 248.201 158.6 261.901H161.7C161 255.301 161.9 248.401 164.7 242.201Z" fill="#B9E3FF"/>
<path d="M179.3 226.001C179.7 225.801 180.1 225.501 180.5 225.301C180.1 225.501 179.7 225.801 179.3 226.001Z" fill="#B9E3FF"/>
<path d="M169.1 234.8C169.6 234.2 170.1 233.5 170.7 232.9C170.2 233.6 169.7 234.2 169.1 234.8Z" fill="#B9E3FF"/>
<path d="M170.8 232.9C171.4 232.3 171.9 231.7 172.5 231.1C171.9 231.7 171.3 232.3 170.8 232.9Z" fill="#B9E3FF"/>
<path d="M172.6 231C173.1 230.5 173.7 230 174.2 229.5C173.7 230 173.1 230.5 172.6 231Z" fill="#B9E3FF"/>
<path d="M177.9 226.799C178.2 226.599 178.5 226.399 178.8 226.199C178.5 226.499 178.2 226.599 177.9 226.799Z" fill="#B9E3FF"/>
<path d="M174.6 229.201C175.2 228.701 175.8 228.201 176.5 227.801C175.9 228.201 175.2 228.701 174.6 229.201Z" fill="#B9E3FF"/>
<path d="M166.1 247.3L163.7 244.6C164 243.8 164.3 242.9 164.7 242.1C161.9 248.3 161 255.2 161.9 261.9H165C164.3 257.1 164.7 252 166.1 247.3Z" fill="#B9E3FF"/>
<path d="M168.2 242.001C169.1 240.301 170.1 238.701 171.2 237.101L169.1 234.801C167.4 237.001 165.9 239.401 164.8 241.901C165.2 241.101 165.6 240.301 166 239.501L168.2 242.001Z" fill="#B9E3FF"/>
<path d="M184.3 226.9C198.1 220.9 214.7 225.1 223.8 237.8C229 245.1 230.8 253.8 229.4 261.9H232.5C233.8 253.1 231.8 243.8 226.2 235.9C215.7 221.2 196.1 216.9 180.6 225.1C181.1 224.9 181.5 224.6 182 224.4L184.3 226.9Z" fill="#B9E3FF"/>
<path d="M178.8 226.3C178.9 226.2 179.1 226.1 179.2 226C179.1 226.1 179 226.2 178.8 226.3Z" fill="#B9E3FF"/>
<path d="M174.2 229.601C174.3 229.501 174.5 229.401 174.6 229.301C174.5 229.301 174.4 229.501 174.2 229.601Z" fill="#B9E3FF"/>
<path d="M176.5 227.8C177 227.5 177.4 227.2 177.9 226.9C177.4 227.1 177 227.5 176.5 227.8Z" fill="#B9E3FF"/>
<path d="M180.5 225.299C180.5 225.299 180.6 225.299 180.6 225.199C180.6 225.299 180.5 225.299 180.5 225.299Z" fill="#B9E3FF"/>
<path d="M178.3 230.3C180.2 228.9 182.2 227.8 184.3 226.9L182 224.5C181.5 224.7 181.1 224.9 180.6 225.2C180.6 225.2 180.5 225.2 180.5 225.3C180.1 225.5 179.7 225.7 179.3 226C179.2 226.1 179 226.2 178.9 226.3C178.6 226.5 178.3 226.7 178 226.9C177.5 227.2 177.1 227.5 176.6 227.8C176 228.3 175.3 228.7 174.7 229.2C174.6 229.3 174.4 229.4 174.3 229.5C173.7 230 173.2 230.5 172.7 231C172.7 231 172.6 231 172.6 231.1C172 231.7 171.4 232.3 170.9 232.9C170.3 233.5 169.8 234.1 169.3 234.8L171.4 237.1C173.2 234.6 175.6 232.3 178.3 230.3Z" fill="#B9E3FF"/>
<path d="M164.7 242.2C164.7 242.1 164.8 242 164.8 241.9C164.8 242 164.8 242.1 164.7 242.2Z" fill="#B9E3FF"/>
<path d="M166.1 247.3C166.7 245.5 167.4 243.7 168.2 242L166 239.5C165.6 240.3 165.2 241.1 164.8 241.9C164.8 242 164.7 242.1 164.7 242.2C164.3 243 164 243.8 163.7 244.7L166.1 247.3Z" fill="#B9E3FF"/>
</g>
<defs>
<clipPath id="clip0">
<rect width="392" height="262" fill="white"/>
</clipPath>
</defs>
</svg>
