<svg width="392" height="262" viewBox="0 0 392 262" fill="none" xmlns="http://www.w3.org/2000/svg">
<path d="M392 55.4004H0V262H392V55.4004Z" fill="#00A1D7"/>
<path d="M392 6.30078H0V35.7008H392V6.30078Z" fill="#001F5A"/>
<path d="M392 33.6992H0V62.7992H392V33.6992Z" fill="#00298B"/>
<path d="M57.6 162.401C57.6 123.301 73.9 88.0008 100 62.8008H19C10.9 77.2008 4.4 92.8008 0 109.101V215.701C4.4 232.001 10.9 247.601 19 262.001H100C73.8 236.801 57.6 201.501 57.6 162.401Z" fill="#0069A7"/>
<path d="M392 109.101C387.6 92.7008 381.1 77.2008 373 62.8008H292C318.1 88.0008 334.4 123.301 334.4 162.401C334.4 201.501 318.2 236.801 292 262.001H373C381.1 247.601 387.6 232.001 392 215.701V109.101Z" fill="#0069A7"/>
<path d="M57.6001 162.401C57.6001 201.501 73.9001 236.801 100 262.001H292C318.1 236.801 334.4 201.501 334.4 162.401C334.4 123.301 318.2 87.9008 292 62.8008H100C73.8001 87.9008 57.6001 123.201 57.6001 162.401ZM196 87.8008C237.2 87.8008 270.5 121.201 270.5 162.301C270.5 203.401 237.1 236.801 196 236.801C154.8 236.801 121.5 203.401 121.5 162.301C121.5 121.201 154.8 87.8008 196 87.8008Z" fill="#00A1D5"/>
<path d="M210.1 235.568C250.504 227.787 276.951 188.726 269.171 148.321C261.39 107.916 222.328 81.4694 181.924 89.2499C141.519 97.0305 115.072 136.092 122.853 176.497C130.633 216.901 169.695 243.348 210.1 235.568Z" fill="#0088BE"/>
<path d="M392 0H0V8.3H392V0Z" fill="#F1F3F4"/>
<path d="M329.5 22.2008C329.5 22.6008 329.3 22.9008 329 23.2008C328.7 23.4008 328.4 23.6008 327.9 23.6008C327.4 23.6008 327 23.4008 326.8 23.1008C326.5 22.8008 326.4 22.3008 326.4 21.8008V21.6008C326.4 21.2008 326.5 20.9008 326.6 20.6008C326.7 20.3008 326.9 20.1008 327.1 20.0008C327.3 19.9008 327.6 19.8008 327.9 19.8008C328.3 19.8008 328.7 19.9008 329 20.2008C329.3 20.4008 329.4 20.8008 329.5 21.2008H328.7C328.7 21.0008 328.6 20.8008 328.5 20.7008C328.4 20.6008 328.2 20.5008 328 20.5008C327.7 20.5008 327.5 20.6008 327.4 20.8008C327.3 21.0008 327.2 21.3008 327.2 21.7008V22.0008C327.2 22.4008 327.3 22.7008 327.4 22.9008C327.5 23.1008 327.7 23.2008 328 23.2008C328.2 23.2008 328.4 23.1008 328.5 23.0008C328.6 22.9008 328.7 22.7008 328.7 22.5008H329.5V22.2008Z" fill="white"/>
<path d="M331.6 23.4996C331.6 23.3996 331.5 23.2996 331.5 23.1996C331.3 23.3996 331.1 23.4996 330.8 23.4996C330.5 23.4996 330.3 23.3996 330.1 23.2996C329.9 23.1996 329.8 22.8996 329.8 22.6996C329.8 22.3996 329.9 22.1996 330.1 21.9996C330.3 21.7996 330.6 21.7996 331.1 21.7996H331.4V21.5996C331.4 21.4996 331.4 21.3996 331.3 21.2996C331.2 21.1996 331.1 21.1996 331 21.1996C330.9 21.1996 330.8 21.1996 330.7 21.2996C330.6 21.3996 330.6 21.3996 330.6 21.4996H329.8C329.8 21.2996 329.9 21.1996 330 20.9996C330.1 20.8996 330.2 20.7996 330.4 20.6996C330.6 20.5996 330.8 20.5996 331 20.5996C331.3 20.5996 331.6 20.6996 331.8 20.8996C332 21.0996 332.1 21.2996 332.1 21.5996V22.7996C332.1 23.0996 332.1 23.2996 332.2 23.3996H331.6V23.4996ZM331 22.9996C331.1 22.9996 331.2 22.9996 331.3 22.8996C331.4 22.8996 331.5 22.7996 331.5 22.6996V22.1996H331.2C330.8 22.1996 330.6 22.2996 330.6 22.5996C330.6 22.6996 330.6 22.7996 330.7 22.7996C330.8 22.8996 330.9 22.9996 331 22.9996Z" fill="white"/>
<path d="M333.5 20.6996V20.9996C333.7 20.6996 334 20.5996 334.3 20.5996C334.6 20.5996 334.8 20.6996 335 20.8996C335.1 21.0996 335.2 21.2996 335.2 21.6996V23.4996H334.4V21.6996C334.4 21.4996 334.4 21.3996 334.3 21.3996C334.2 21.2996 334.1 21.2996 334 21.2996C333.8 21.2996 333.6 21.3996 333.5 21.5996V23.5996H332.7V20.7996H333.5V20.6996Z" fill="white"/>
<path d="M337.4 23.4996C337.4 23.3996 337.3 23.2996 337.3 23.1996C337.1 23.3996 336.9 23.4996 336.6 23.4996C336.3 23.4996 336.1 23.3996 335.9 23.2996C335.7 23.1996 335.6 22.8996 335.6 22.6996C335.6 22.3996 335.7 22.1996 335.9 21.9996C336.1 21.7996 336.4 21.7996 336.9 21.7996H337.2V21.5996C337.2 21.4996 337.2 21.3996 337.1 21.2996C337 21.1996 336.9 21.1996 336.8 21.1996C336.7 21.1996 336.6 21.1996 336.5 21.2996C336.4 21.3996 336.4 21.3996 336.4 21.4996H335.6C335.6 21.2996 335.7 21.1996 335.8 20.9996C335.9 20.8996 336 20.7996 336.2 20.6996C336.4 20.5996 336.6 20.5996 336.8 20.5996C337.1 20.5996 337.4 20.6996 337.6 20.8996C337.8 21.0996 337.9 21.2996 337.9 21.5996V22.7996C337.9 23.0996 337.9 23.2996 338 23.3996H337.4V23.4996ZM336.8 22.9996C336.9 22.9996 337 22.9996 337.1 22.8996C337.2 22.8996 337.3 22.7996 337.3 22.6996V22.1996H337C336.6 22.1996 336.4 22.2996 336.4 22.5996C336.4 22.6996 336.4 22.7996 336.5 22.7996C336.6 22.8996 336.7 22.9996 336.8 22.9996Z" fill="white"/>
<path d="M339.5 23.5H338.7V19.5H339.5V23.5Z" fill="white"/>
<path d="M341.4 23.5C341 23.5 340.6 23.4 340.4 23.1C340.1 22.8 340 22.5 340 22.1V22C340 21.7 340.1 21.5 340.2 21.2C340.3 21 340.5 20.8 340.7 20.7C340.9 20.6 341.1 20.5 341.4 20.5C341.8 20.5 342.1 20.6 342.3 20.9C342.5 21.1 342.6 21.5 342.6 21.9V22.2H340.8C340.8 22.4 340.9 22.5 341 22.6C341.1 22.7 341.3 22.8 341.5 22.8C341.8 22.8 342 22.7 342.2 22.5L342.6 22.9C342.5 23.1 342.3 23.2 342.1 23.3C341.8 23.5 341.6 23.5 341.4 23.5ZM341.3 21.2C341.2 21.2 341 21.3 340.9 21.4C340.8 21.5 340.7 21.6 340.7 21.8H341.7V21.7C341.7 21.5 341.7 21.4 341.6 21.3C341.6 21.3 341.4 21.2 341.3 21.2Z" fill="white"/>
<path d="M344.5 22.6996C344.5 22.5996 344.5 22.4996 344.4 22.4996C344.3 22.3996 344.2 22.3996 344 22.3996C343.3 22.2996 343 21.9996 343 21.4996C343 21.2996 343.1 20.9996 343.3 20.8996C343.5 20.6996 343.8 20.5996 344.1 20.5996C344.5 20.5996 344.7 20.6996 345 20.8996C345.2 21.0996 345.3 21.2996 345.3 21.5996H344.5C344.5 21.4996 344.5 21.3996 344.4 21.2996C344.3 21.1996 344.2 21.1996 344.1 21.1996C344 21.1996 343.9 21.1996 343.8 21.2996C343.7 21.3996 343.7 21.3996 343.7 21.4996C343.7 21.5996 343.7 21.6996 343.8 21.6996C343.9 21.7996 344 21.7996 344.2 21.7996C344.4 21.7996 344.5 21.8996 344.7 21.8996C345.1 21.9996 345.3 22.2996 345.3 22.6996C345.3 22.9996 345.2 23.1996 345 23.2996C344.8 23.4996 344.5 23.4996 344.1 23.4996C343.9 23.4996 343.7 23.4996 343.5 23.3996C343.3 23.2996 343.2 23.1996 343.1 23.0996C343 22.9996 342.9 22.7996 342.9 22.5996H343.6C343.6 22.6996 343.7 22.7996 343.7 22.8996C343.8 22.9996 343.9 22.9996 344.1 22.9996C344.2 22.9996 344.4 22.9996 344.4 22.8996C344.4 22.8996 344.5 22.7996 344.5 22.6996Z" fill="white"/>
<path d="M346.9 22.0996C346.9 21.6996 347 21.2996 347.2 21.0996C347.4 20.7996 347.7 20.6996 348 20.6996C348.3 20.6996 348.5 20.7996 348.7 20.9996V19.5996H349.5V23.5996H348.8V23.2996C348.6 23.4996 348.4 23.6996 348.1 23.6996C347.8 23.6996 347.5 23.5996 347.3 23.2996C347 22.8996 346.9 22.4996 346.9 22.0996ZM347.7 22.0996C347.7 22.3996 347.7 22.5996 347.8 22.6996C347.9 22.7996 348 22.8996 348.2 22.8996C348.4 22.8996 348.6 22.7996 348.7 22.5996V21.4996C348.6 21.2996 348.4 21.1996 348.2 21.1996C347.8 21.1996 347.7 21.4996 347.7 22.0996Z" fill="white"/>
<path d="M351.3 23.5C350.9 23.5 350.5 23.4 350.3 23.1C350 22.8 349.9 22.5 349.9 22.1V22C349.9 21.7 350 21.5 350.1 21.2C350.2 21 350.4 20.8 350.6 20.7C350.8 20.6 351 20.5 351.3 20.5C351.7 20.5 352 20.6 352.2 20.9C352.4 21.1 352.5 21.5 352.5 21.9V22.2H350.7C350.7 22.4 350.8 22.5 350.9 22.6C351 22.7 351.2 22.8 351.4 22.8C351.7 22.8 351.9 22.7 352.1 22.5L352.5 22.9C352.4 23.1 352.2 23.2 352 23.3C351.8 23.5 351.6 23.5 351.3 23.5ZM351.2 21.2C351.1 21.2 350.9 21.3 350.8 21.4C350.7 21.5 350.6 21.6 350.6 21.8H351.6V21.7C351.6 21.5 351.6 21.4 351.5 21.3C351.5 21.3 351.4 21.2 351.2 21.2Z" fill="white"/>
<path d="M355.9 23.4996C355.9 23.3996 355.8 23.2996 355.8 23.1996C355.6 23.3996 355.4 23.4996 355.1 23.4996C354.8 23.4996 354.6 23.3996 354.4 23.2996C354.2 23.1996 354.1 22.8996 354.1 22.6996C354.1 22.3996 354.2 22.1996 354.4 21.9996C354.6 21.7996 354.9 21.7996 355.4 21.7996H355.7V21.5996C355.7 21.4996 355.7 21.3996 355.6 21.2996C355.5 21.1996 355.4 21.1996 355.3 21.1996C355.2 21.1996 355.1 21.1996 355 21.2996C354.9 21.3996 354.9 21.3996 354.9 21.4996H354.1C354.1 21.2996 354.2 21.1996 354.3 20.9996C354.4 20.8996 354.5 20.7996 354.7 20.6996C354.9 20.5996 355.1 20.5996 355.3 20.5996C355.6 20.5996 355.9 20.6996 356.1 20.8996C356.3 21.0996 356.4 21.2996 356.4 21.5996V22.7996C356.4 23.0996 356.4 23.2996 356.5 23.3996H355.9V23.4996ZM355.3 22.9996C355.4 22.9996 355.5 22.9996 355.6 22.8996C355.7 22.8996 355.8 22.7996 355.8 22.6996V22.1996H355.5C355.1 22.1996 354.9 22.2996 354.9 22.5996C354.9 22.6996 354.9 22.7996 355 22.7996C355 22.8996 355.1 22.9996 355.3 22.9996Z" fill="white"/>
<path d="M358 20V20.7H358.5V21.3H358V22.7C358 22.8 358 22.9 358.1 22.9C358.1 22.9 358.2 23 358.3 23C358.4 23 358.5 23 358.5 23V23.6C358.4 23.6 358.2 23.7 358 23.7C357.5 23.7 357.2 23.4 357.2 22.9V21.4H356.8V20.8H357.2V20H358Z" fill="white"/>
<path d="M360.2 23.5C359.8 23.5 359.4 23.4 359.2 23.1C358.9 22.8 358.8 22.5 358.8 22.1V22C358.8 21.7 358.9 21.5 359 21.2C359.1 21 359.3 20.8 359.5 20.7C359.7 20.6 359.9 20.5 360.2 20.5C360.6 20.5 360.9 20.6 361.1 20.9C361.3 21.1 361.4 21.5 361.4 21.9V22.2H359.6C359.6 22.4 359.7 22.5 359.8 22.6C359.9 22.7 360.1 22.8 360.3 22.8C360.6 22.8 360.8 22.7 361 22.5L361.4 22.9C361.3 23.1 361.1 23.2 360.9 23.3C360.6 23.5 360.4 23.5 360.2 23.5ZM360.1 21.2C360 21.2 359.8 21.3 359.7 21.4C359.6 21.5 359.5 21.6 359.5 21.8H360.5V21.7C360.5 21.5 360.5 21.4 360.4 21.3C360.4 21.3 360.3 21.2 360.1 21.2Z" fill="white"/>
<path d="M362.5 20.6996V20.9996C362.7 20.6996 363 20.5996 363.3 20.5996C363.6 20.5996 363.8 20.6996 364 20.8996C364.1 21.0996 364.2 21.2996 364.2 21.6996V23.4996H363.4V21.6996C363.4 21.4996 363.4 21.3996 363.3 21.3996C363.2 21.2996 363.1 21.2996 363 21.2996C362.8 21.2996 362.6 21.3996 362.5 21.5996V23.5996H361.7V20.7996H362.5V20.6996Z" fill="white"/>
<path d="M365.9 22.8996C366 22.8996 366.2 22.8996 366.2 22.7996C366.3 22.6996 366.3 22.5996 366.3 22.4996H367C367 22.6996 366.9 22.8996 366.8 22.9996C366.7 23.1996 366.6 23.2996 366.4 23.3996C366.2 23.4996 366 23.4996 365.8 23.4996C365.4 23.4996 365.1 23.3996 364.8 23.0996C364.6 22.7996 364.5 22.4996 364.5 21.9996C364.5 21.5996 364.6 21.1996 364.8 20.9996C365 20.6996 365.3 20.5996 365.8 20.5996C366.2 20.5996 366.4 20.6996 366.6 20.8996C366.8 21.0996 366.9 21.3996 366.9 21.6996H366.2C366.2 21.5996 366.2 21.3996 366.1 21.2996C366 21.1996 365.9 21.1996 365.8 21.1996C365.6 21.1996 365.5 21.2996 365.4 21.3996C365.3 21.4996 365.3 21.6996 365.3 21.9996V22.0996C365.3 22.3996 365.3 22.5996 365.4 22.6996C365.6 22.8996 365.8 22.8996 365.9 22.8996Z" fill="white"/>
<path d="M367.5 19.9C367.5 19.8 367.5 19.7 367.6 19.6C367.7 19.5 367.8 19.5 367.9 19.5C368 19.5 368.1 19.5 368.2 19.6C368.3 19.7 368.3 19.8 368.3 19.9C368.3 20 368.3 20.1 368.2 20.2C368.1 20.3 368 20.3 367.9 20.3C367.8 20.3 367.7 20.3 367.6 20.2C367.6 20.1 367.5 20.1 367.5 19.9ZM368.3 23.5H367.5V20.7H368.3V23.5Z" fill="white"/>
<path d="M368.9 22.1C368.9 21.8 369 21.6 369.1 21.4C369.2 21.2 369.4 21 369.6 20.9C369.8 20.8 370 20.7 370.3 20.7C370.7 20.7 371 20.8 371.2 21C371.4 21.2 371.6 21.5 371.6 21.9V22.1C371.6 22.5 371.5 22.9 371.2 23.1C371 23.4 370.6 23.5 370.2 23.5C369.8 23.5 369.5 23.4 369.2 23.1C369 22.9 368.9 22.5 368.9 22.1ZM369.6 22.1C369.6 22.4 369.7 22.6 369.8 22.7C369.9 22.8 370 22.9 370.2 22.9C370.4 22.9 370.5 22.8 370.6 22.7C370.7 22.6 370.8 22.3 370.8 22C370.8 21.7 370.7 21.5 370.6 21.4C370.5 21.3 370.4 21.2 370.2 21.2C370 21.2 369.9 21.3 369.8 21.4C369.7 21.6 369.6 21.8 369.6 22.1ZM370.3 19.5H371.1L370.4 20.3H369.8L370.3 19.5Z" fill="white"/>
<path d="M372.7 20.6996V20.9996C372.9 20.6996 373.2 20.5996 373.5 20.5996C373.8 20.5996 374 20.6996 374.2 20.8996C374.3 21.0996 374.4 21.2996 374.4 21.6996V23.4996H373.6V21.6996C373.6 21.4996 373.6 21.3996 373.5 21.3996C373.4 21.2996 373.3 21.2996 373.2 21.2996C373 21.2996 372.8 21.3996 372.7 21.5996V23.5996H372V20.7996H372.7V20.6996Z" fill="white"/>
<path d="M274.2 22.6992H272.8L272.5 23.4992H271.7L273.1 19.6992H273.8L275.2 23.4992H274.4L274.2 22.6992ZM273 22.0992H273.9L273.4 20.6992L273 22.0992Z" fill="white"/>
<path d="M276.5 22.3996L277 20.5996H277.8L276.7 23.8996L276.6 23.9996C276.4 24.3996 276.2 24.5996 275.8 24.5996C275.7 24.5996 275.6 24.5996 275.5 24.5996V23.9996H275.6C275.7 23.9996 275.8 23.9996 275.9 23.8996C276 23.8996 276 23.7996 276.1 23.6996L276.2 23.4996L275.2 20.6996H276L276.5 22.3996Z" fill="white"/>
<path d="M279.8 23.2C279.6 23.4 279.4 23.5 279 23.5C278.7 23.5 278.5 23.4 278.3 23.2C278.1 23 278.1 22.8 278.1 22.4V20.6H278.9V22.4C278.9 22.7 279 22.8 279.3 22.8C279.6 22.8 279.7 22.7 279.8 22.5V20.5H280.6V23.3H279.9L279.8 23.2Z" fill="white"/>
<path d="M281 22.0996C281 21.6996 281.1 21.2996 281.3 21.0996C281.5 20.7996 281.8 20.6996 282.1 20.6996C282.4 20.6996 282.6 20.7996 282.8 20.9996V19.5996H283.6V23.5996H282.9V23.2996C282.7 23.4996 282.5 23.6996 282.2 23.6996C281.9 23.6996 281.6 23.5996 281.4 23.2996C281.1 22.8996 281 22.4996 281 22.0996ZM281.7 22.0996C281.7 22.3996 281.7 22.5996 281.8 22.6996C281.9 22.7996 282 22.8996 282.2 22.8996C282.4 22.8996 282.6 22.7996 282.7 22.5996V21.4996C282.6 21.2996 282.4 21.1996 282.2 21.1996C281.9 21.1996 281.7 21.4996 281.7 22.0996Z" fill="white"/>
<path d="M285.7 23.4996C285.7 23.3996 285.6 23.2996 285.6 23.1996C285.4 23.3996 285.2 23.4996 284.9 23.4996C284.6 23.4996 284.4 23.3996 284.2 23.2996C284 23.1996 283.9 22.8996 283.9 22.6996C283.9 22.3996 284 22.1996 284.2 21.9996C284.4 21.7996 284.7 21.7996 285.2 21.7996H285.5V21.5996C285.5 21.4996 285.5 21.3996 285.4 21.2996C285.3 21.1996 285.2 21.1996 285.1 21.1996C285 21.1996 284.9 21.1996 284.8 21.2996C284.7 21.3996 284.7 21.3996 284.7 21.4996H284C284 21.2996 284.1 21.1996 284.2 20.9996C284.3 20.8996 284.4 20.7996 284.6 20.6996C284.8 20.5996 285 20.5996 285.2 20.5996C285.5 20.5996 285.8 20.6996 286 20.8996C286.2 21.0996 286.3 21.2996 286.3 21.5996V22.7996C286.3 23.0996 286.3 23.2996 286.4 23.3996H285.7V23.4996ZM285.1 22.9996C285.2 22.9996 285.3 22.9996 285.4 22.8996C285.5 22.8996 285.6 22.7996 285.6 22.6996V22.1996H285.3C284.9 22.1996 284.7 22.2996 284.7 22.5996C284.7 22.6996 284.7 22.7996 284.8 22.7996C284.9 22.8996 285 22.9996 285.1 22.9996Z" fill="white"/>
<path d="M288.3 23.4992V19.6992H289.6C290.1 19.6992 290.4 19.7992 290.6 19.9992C290.8 20.1992 291 20.3992 291 20.7992C291 20.9992 291 21.0992 290.9 21.2992C290.8 21.3992 290.7 21.4992 290.5 21.5992C290.7 21.5992 290.8 21.6992 291 21.8992C291.1 21.9992 291.2 22.1992 291.2 22.3992C291.2 22.7992 291.1 22.9992 290.9 23.1992C290.7 23.3992 290.3 23.4992 289.9 23.4992H288.3ZM289.1 21.2992H289.7C290.1 21.2992 290.3 21.0992 290.3 20.7992C290.3 20.5992 290.2 20.4992 290.1 20.3992C290 20.2992 289.8 20.2992 289.6 20.2992H289.1V21.2992ZM289.1 21.7992V22.7992H289.8C290 22.7992 290.1 22.7992 290.2 22.6992C290.3 22.5992 290.4 22.4992 290.4 22.2992C290.4 21.9992 290.2 21.7992 289.9 21.7992H289.1Z" fill="white"/>
<path d="M294.7 22.1988C294.7 22.5988 294.5 22.8988 294.2 23.1988C293.9 23.3988 293.6 23.5988 293.1 23.5988C292.6 23.5988 292.2 23.3988 292 23.0988C291.7 22.7988 291.6 22.2988 291.6 21.7988V21.5988C291.6 21.1988 291.7 20.8988 291.8 20.5988C291.9 20.2988 292.1 20.0988 292.4 19.9988C292.6 19.8988 292.9 19.7988 293.2 19.7988C293.6 19.7988 294 19.8988 294.3 20.1988C294.6 20.3988 294.7 20.7988 294.8 21.1988H294C294 20.9988 293.9 20.7988 293.8 20.6988C293.7 20.5988 293.5 20.4988 293.3 20.4988C293 20.4988 292.8 20.5988 292.7 20.7988C292.6 20.9988 292.5 21.2988 292.5 21.6988V21.9988C292.5 22.3988 292.6 22.6988 292.7 22.8988C292.8 23.0988 293 23.1988 293.3 23.1988C293.5 23.1988 293.7 23.0988 293.8 22.9988C293.9 22.8988 294 22.6988 294 22.4988H294.7V22.1988Z" fill="white"/>
<path d="M296 22.1992V23.4992H295.2V19.6992H296.7C297 19.6992 297.2 19.7992 297.5 19.8992C297.7 19.9992 297.9 20.1992 298 20.2992C298.1 20.4992 298.2 20.6992 298.2 20.9992C298.2 21.3992 298.1 21.6992 297.8 21.8992C297.5 22.0992 297.2 22.1992 296.7 22.1992H296ZM296 21.4992H296.7C296.9 21.4992 297.1 21.4992 297.2 21.3992C297.3 21.2992 297.4 21.1992 297.4 20.9992C297.4 20.7992 297.3 20.6992 297.2 20.4992C297.1 20.3992 296.9 20.2992 296.7 20.2992H296V21.4992Z" fill="white"/>
<path d="M321 20.8008L319 19.0008C318.9 18.9008 318.8 18.9008 318.8 19.0008L316.8 20.8008L316.7 20.9008V23.6008C316.7 23.7008 316.8 23.8008 316.9 23.8008H318.1V23.4008V22.0008C318.1 21.9008 318.2 21.8008 318.3 21.8008H319.5C319.6 21.8008 319.7 21.9008 319.7 22.0008V23.4008V23.8008H320.9C321 23.8008 321.1 23.7008 321.1 23.6008V21.0008C321 20.9008 321 20.9008 321 20.8008Z" fill="white"/>
<path d="M264.6 19.4004H268.8C269 19.4004 269.2 19.6004 269.2 19.8004V22.6004C269.2 22.8004 269 23.0004 268.8 23.0004H266.8L265.4 24.2004V23.0004H264.6C264.4 23.0004 264.2 22.8004 264.2 22.6004V19.8004C264.2 19.6004 264.4 19.4004 264.6 19.4004Z" fill="white"/>
<path d="M370.8 56.5996H296.7C294.7 56.5996 293.2 54.9996 293.2 53.0996V42.0996C293.2 40.0996 294.8 38.5996 296.7 38.5996H370.8C372.8 38.5996 374.3 40.1996 374.3 42.0996V53.0996C374.4 54.9996 372.8 56.5996 370.8 56.5996Z" stroke="white" stroke-width="0.3539" stroke-miterlimit="10"/>
<path d="M312.6 49.8992H311.7L313.7 45.1992H314.6L316.6 49.8992H315.7L315.2 48.5992H313.6L313.9 47.7992H314.8L314.1 45.9992L312.6 49.8992Z" fill="white"/>
<path d="M317.1 45.1992H318V46.6992C318.3 46.4992 318.5 46.3992 318.9 46.3992C319.9 46.3992 320.4 46.8992 320.4 47.9992C320.4 49.1992 319.8 49.7992 318.7 49.7992C318.2 49.7992 317.7 49.7992 317.2 49.6992V45.1992H317.1ZM318 49.0992C318.2 49.1992 318.4 49.1992 318.7 49.1992C319.2 49.1992 319.5 48.7992 319.5 48.0992C319.5 47.4992 319.3 47.1992 318.8 47.1992C318.5 47.1992 318.2 47.2992 318 47.3992V49.0992Z" fill="white"/>
<path d="M321 49.9V46.5H321.7L321.8 46.9C322.1 46.6 322.4 46.5 322.8 46.5V47.2C322.5 47.2 322.2 47.3 321.9 47.6V49.9H321Z" fill="white"/>
<path d="M324.7 46.3984C325.7 46.3984 326.3 46.8984 326.3 47.9984C326.3 48.0984 326.3 48.2984 326.3 48.3984H324C324 48.8984 324.4 49.0984 325.1 49.0984C325.4 49.0984 325.8 49.0984 326.1 48.9984V49.6984C325.8 49.7984 325.4 49.7984 325 49.7984C323.8 49.7984 323.1 49.1984 323.1 47.9984C323 46.9984 323.6 46.3984 324.7 46.3984ZM323.9 47.8984H325.4C325.4 47.3984 325.2 47.1984 324.7 47.1984C324.2 47.0984 323.9 47.3984 323.9 47.8984Z" fill="white"/>
<path d="M328.3 45.8984H328.9L329 46.4984H329.9V47.1984H329.1V48.7984C329.1 49.0984 329.2 49.2984 329.5 49.2984H329.9V49.9984H329.1C328.5 49.9984 328.2 49.6984 328.2 49.0984V45.8984H328.3Z" fill="white"/>
<path d="M333.6 46.3984V49.7984H332.9L332.8 49.3984C332.4 49.6984 332 49.7984 331.5 49.7984C330.8 49.7984 330.4 49.3984 330.4 48.5984V46.3984H331.3V48.5984C331.3 48.9984 331.5 49.1984 331.8 49.1984C332.1 49.1984 332.4 49.0984 332.7 48.8984V46.4984H333.6V46.3984Z" fill="white"/>
<path d="M338.4 49.8C338.1 49.9 337.8 49.9 337.5 49.9C336.3 49.9 335.7 49.3 335.7 48.1C335.7 47 336.3 46.5 337.5 46.5C337.8 46.5 338.1 46.5 338.4 46.6V47.3C338.1 47.2 337.8 47.2 337.6 47.2C336.9 47.2 336.6 47.5 336.6 48.2C336.6 48.9 336.9 49.3 337.6 49.3C337.9 49.3 338.1 49.3 338.4 49.2V49.8Z" fill="white"/>
<path d="M342.1 46.3984V49.7984H341.4L341.3 49.3984C340.9 49.6984 340.5 49.7984 340 49.7984C339.3 49.7984 338.9 49.3984 338.9 48.5984V46.3984H339.8V48.5984C339.8 48.9984 340 49.1984 340.3 49.1984C340.6 49.1984 340.9 49.0984 341.2 48.8984V46.4984H342.1V46.3984Z" fill="white"/>
<path d="M344.3 46.3984C345.3 46.3984 345.9 46.8984 345.9 47.9984C345.9 48.0984 345.9 48.2984 345.9 48.3984H343.6C343.6 48.8984 344 49.0984 344.7 49.0984C345 49.0984 345.4 49.0984 345.7 48.9984V49.6984C345.4 49.7984 345 49.7984 344.6 49.7984C343.4 49.7984 342.7 49.1984 342.7 47.9984C342.7 46.9984 343.3 46.3984 344.3 46.3984ZM343.6 47.8984H345.1C345.1 47.3984 344.9 47.1984 344.4 47.1984C343.9 47.0984 343.6 47.3984 343.6 47.8984Z" fill="white"/>
<path d="M346.5 49.9V46.5H347.2L347.3 47C347.6 46.7 348 46.5 348.4 46.5C349.2 46.5 349.6 46.9 349.6 47.8V50H348.7V47.8C348.7 47.4 348.5 47.2 348.1 47.2C347.8 47.2 347.5 47.3 347.3 47.5V49.9H346.5Z" fill="white"/>
<path d="M350.4 45.8984H351L351.1 46.4984H352V47.1984H351.2V48.7984C351.2 49.0984 351.3 49.2984 351.6 49.2984H352V49.9984H351.2C350.6 49.9984 350.3 49.6984 350.3 49.0984V45.8984H350.4Z" fill="white"/>
<path d="M352.5 48.7984C352.5 48.0984 353 47.7984 354 47.7984C354.2 47.7984 354.5 47.7984 354.7 47.8984V47.5984C354.7 47.2984 354.5 47.0984 354 47.0984C353.6 47.0984 353.2 47.1984 352.8 47.2984V46.5984C353.3 46.4984 353.7 46.3984 354 46.3984C355 46.3984 355.5 46.7984 355.5 47.4984V49.7984H355L354.7 49.4984C354.4 49.6984 354.1 49.7984 353.7 49.7984C352.9 49.8984 352.5 49.4984 352.5 48.7984ZM354 48.3984C353.6 48.3984 353.4 48.4984 353.4 48.7984C353.4 49.0984 353.6 49.2984 353.9 49.2984C354.2 49.2984 354.5 49.1984 354.7 48.9984V48.4984C354.5 48.3984 354.2 48.3984 354 48.3984Z" fill="white"/>
<path d="M277.4 56.5996H203.3C201.3 56.5996 199.8 54.9996 199.8 53.0996V42.0996C199.8 40.0996 201.4 38.5996 203.3 38.5996H277.4C279.4 38.5996 280.9 40.1996 280.9 42.0996V53.0996C280.9 54.9996 279.3 56.5996 277.4 56.5996Z" fill="#FF7800"/>
<path d="M217.3 49.8992V45.1992H219.5C220.4 45.1992 220.8 45.5992 220.8 46.2992C220.8 46.7992 220.5 47.1992 219.9 47.3992C220.5 47.4992 220.8 47.8992 220.8 48.4992C220.8 49.3992 220.3 49.8992 219.3 49.8992H217.3ZM219.4 49.0992C219.8 49.0992 220 48.8992 220 48.4992C220 47.9992 219.7 47.7992 219.1 47.7992H218.8V47.1992C219.5 47.0992 219.9 46.7992 219.9 46.2992C219.9 45.9992 219.7 45.8992 219.4 45.8992H218.1V49.0992H219.4Z" fill="white"/>
<path d="M221.4 48.7984C221.4 48.0984 221.9 47.7984 222.9 47.7984C223.1 47.7984 223.4 47.7984 223.6 47.8984V47.5984C223.6 47.2984 223.4 47.0984 222.9 47.0984C222.5 47.0984 222.1 47.1984 221.7 47.2984V46.5984C222.2 46.4984 222.6 46.3984 222.9 46.3984C223.9 46.3984 224.4 46.7984 224.4 47.4984V49.7984H223.9L223.6 49.4984C223.3 49.6984 223 49.7984 222.6 49.7984C221.8 49.8984 221.4 49.4984 221.4 48.7984ZM222.8 48.3984C222.4 48.3984 222.2 48.4984 222.2 48.7984C222.2 49.0984 222.4 49.2984 222.7 49.2984C223 49.2984 223.3 49.1984 223.5 48.9984V48.4984C223.3 48.3984 223.1 48.3984 222.8 48.3984Z" fill="white"/>
<path d="M225.2 49.9V46.5H225.9L226 47C226.3 46.7 226.7 46.5 227.1 46.5C227.9 46.5 228.3 46.9 228.3 47.8V50H227.4V47.8C227.4 47.4 227.2 47.2 226.8 47.2C226.5 47.2 226.2 47.3 226 47.5V49.9H225.2Z" fill="white"/>
<path d="M231.7 49.8C231.4 49.9 231.1 49.9 230.8 49.9C229.6 49.9 229 49.3 229 48.1C229 47 229.6 46.5 230.8 46.5C231.1 46.5 231.4 46.5 231.7 46.6V47.3C231.4 47.2 231.1 47.2 230.9 47.2C230.2 47.2 229.9 47.5 229.9 48.2C229.9 48.9 230.2 49.3 230.9 49.3C231.2 49.3 231.4 49.3 231.7 49.2V49.8Z" fill="white"/>
<path d="M232.1 48.7984C232.1 48.0984 232.6 47.7984 233.6 47.7984C233.8 47.7984 234.1 47.7984 234.3 47.8984V47.5984C234.3 47.2984 234.1 47.0984 233.6 47.0984C233.2 47.0984 232.8 47.1984 232.4 47.2984V46.5984C232.9 46.4984 233.3 46.3984 233.6 46.3984C234.6 46.3984 235.1 46.7984 235.1 47.4984V49.7984H234.6L234.3 49.4984C234 49.6984 233.7 49.7984 233.3 49.7984C232.5 49.8984 232.1 49.4984 232.1 48.7984ZM233.6 48.3984C233.2 48.3984 233 48.4984 233 48.7984C233 49.0984 233.2 49.2984 233.5 49.2984C233.8 49.2984 234.1 49.1984 234.3 48.9984V48.4984C234.1 48.3984 233.8 48.3984 233.6 48.3984Z" fill="white"/>
<path d="M237.4 46.6C237.9 46.5 238.3 46.5 238.8 46.5C240 46.5 240.5 47 240.5 48.1C240.5 49.3 240 49.9 238.9 49.9C238.7 49.9 238.4 49.8 238.2 49.7V51.1H237.3V46.6H237.4ZM238.3 49C238.5 49.1 238.7 49.2 239 49.2C239.5 49.2 239.8 48.8 239.8 48.1C239.8 47.5 239.5 47.2 238.9 47.2C238.7 47.2 238.5 47.2 238.3 47.2V49Z" fill="white"/>
<path d="M241.1 48.2C241.1 47 241.7 46.5 242.8 46.5C243.9 46.5 244.5 47.1 244.5 48.2C244.5 49.3 243.9 49.9 242.8 49.9C241.7 49.9 241.1 49.3 241.1 48.2ZM242.8 49.2C243.4 49.2 243.6 48.8 243.6 48.1C243.6 47.4 243.3 47.1 242.8 47.1C242.2 47.1 242 47.4 242 48.1C242 48.9 242.3 49.2 242.8 49.2Z" fill="white"/>
<path d="M245.2 49.9V46.5H245.9L246 46.9C246.3 46.6 246.6 46.5 247 46.5V47.2C246.7 47.2 246.4 47.3 246.1 47.6V49.9H245.2Z" fill="white"/>
<path d="M249.8 45.1992V49.8992H248.9V45.1992H249.8Z" fill="white"/>
<path d="M250.7 49.9V46.5H251.4L251.5 47C251.8 46.7 252.2 46.5 252.6 46.5C253.4 46.5 253.8 46.9 253.8 47.8V50H253V47.8C253 47.4 252.8 47.2 252.4 47.2C252.1 47.2 251.8 47.3 251.6 47.5V49.9H250.7Z" fill="white"/>
<path d="M254.6 45.8984H255.2L255.3 46.4984H256.2V47.1984H255.4V48.7984C255.4 49.0984 255.5 49.2984 255.8 49.2984H256.2V49.9984H255.4C254.8 49.9984 254.5 49.6984 254.5 49.0984V45.8984H254.6Z" fill="white"/>
<path d="M258.3 46.3984C259.3 46.3984 259.9 46.8984 259.9 47.9984C259.9 48.0984 259.9 48.2984 259.9 48.3984H257.6C257.6 48.8984 258 49.0984 258.7 49.0984C259 49.0984 259.4 49.0984 259.7 48.9984V49.6984C259.4 49.7984 259 49.7984 258.6 49.7984C257.4 49.7984 256.7 49.1984 256.7 47.9984C256.6 46.9984 257.2 46.3984 258.3 46.3984ZM257.5 47.8984H259C259 47.3984 258.8 47.1984 258.3 47.1984C257.8 47.0984 257.6 47.3984 257.5 47.8984Z" fill="white"/>
<path d="M260.5 49.9V46.5H261.2L261.3 46.9C261.6 46.6 261.9 46.5 262.3 46.5V47.2C262 47.2 261.7 47.3 261.4 47.6V49.9H260.5Z" fill="white"/>
<path d="M262.7 49.9V46.5H263.4L263.5 47C263.8 46.7 264.2 46.5 264.6 46.5C265.4 46.5 265.8 46.9 265.8 47.8V50H264.9V47.8C264.9 47.4 264.7 47.2 264.3 47.2C264 47.2 263.7 47.3 263.5 47.5V49.9H262.7Z" fill="white"/>
<path d="M268.1 46.3984C269.1 46.3984 269.7 46.8984 269.7 47.9984C269.7 48.0984 269.7 48.2984 269.7 48.3984H267.4C267.4 48.8984 267.8 49.0984 268.5 49.0984C268.8 49.0984 269.2 49.0984 269.5 48.9984V49.6984C269.2 49.7984 268.8 49.7984 268.4 49.7984C267.2 49.7984 266.5 49.1984 266.5 47.9984C266.5 46.9984 267 46.3984 268.1 46.3984ZM267.3 47.8984H268.8C268.8 47.3984 268.6 47.1984 268.1 47.1984C267.6 47.0984 267.4 47.3984 267.3 47.8984Z" fill="white"/>
<path d="M270.2 45.8984H270.8L270.9 46.4984H271.8V47.1984H271V48.7984C271 49.0984 271.1 49.2984 271.4 49.2984H271.8V49.9984H271C270.4 49.9984 270.1 49.6984 270.1 49.0984V45.8984H270.2Z" fill="white"/>
<path d="M212.6 46.2992H212.2V45.6992C212.2 44.5992 211.3 43.6992 210.2 43.6992C209.1 43.6992 208.3 44.5992 208.3 45.6992V46.2992H207.9C207.8 46.2992 207.8 46.3992 207.8 46.3992V49.9992C207.8 50.2992 208 50.5992 208.4 50.5992H212.3C212.6 50.5992 212.9 50.3992 212.9 49.9992V46.4992C212.7 46.3992 212.7 46.2992 212.6 46.2992ZM210.6 48.4992L210.7 49.2992V49.3992H210.6H210H209.9V49.2992L210 48.4992C209.9 48.3992 209.8 48.1992 209.8 48.0992C209.8 47.7992 210 47.4992 210.4 47.4992C210.7 47.4992 211 47.6992 211 48.0992C210.8 48.1992 210.7 48.2992 210.6 48.4992ZM211.3 46.2992H209.1V45.6992C209.1 45.0992 209.6 44.5992 210.2 44.5992C210.8 44.5992 211.3 45.0992 211.3 45.6992V46.2992Z" fill="white"/>
<path d="M42.5 43.1008C43.9 42.0008 45.9 41.7008 47.7 42.1008C48.4 42.3008 49.1 42.6008 49.3 43.2008C49.3 43.7008 49.1 44.3008 49 44.8008C48.2 44.1008 46.9 43.9008 45.8 44.1008C44.6 44.3008 43.8 45.2008 43.3 46.1008C42.8 47.2008 42.6 48.5008 43 49.6008C43.2 50.2008 43.8 50.7008 44.5 50.9008C45.7 51.2008 46.9 50.8008 47.8 50.1008C47.6 50.8008 47.5 51.5008 47.3 52.1008C47.1 52.6008 46.4 52.8008 45.8 52.9008C44.2 53.1008 42.4 52.9008 41.3 51.8008C40.2 50.8008 40 49.3008 40 48.0008C40.2 46.3008 40.9 44.4008 42.5 43.1008Z" fill="white"/>
<path d="M33.3001 48.1016C33.1001 48.8016 33.0001 49.5016 32.8001 50.3016C32.7001 50.6016 32.6001 50.9016 32.8001 51.2016C33.6001 51.2016 34.5001 51.3016 35.2001 50.8016C36.1001 50.4016 36.4001 49.2016 35.6001 48.5016C35.1001 48.1016 34.2001 48.2016 33.3001 48.1016ZM34.2001 44.0016C34.0001 44.7016 33.9001 45.5016 33.7001 46.2016C33.7001 46.4016 33.9001 46.5016 34.1001 46.5016C34.9001 46.5016 35.8001 46.4016 36.3001 45.9016C36.8001 45.4016 36.9001 44.5016 36.2001 44.1016C35.7001 43.8016 34.9001 43.9016 34.2001 44.0016ZM32.1001 42.4016C33.3001 42.2016 34.4001 42.1016 35.6001 42.1016C36.7001 42.2016 37.8001 42.3016 38.6001 43.0016C39.5001 43.8016 39.6001 45.2016 38.8001 46.1016C38.3001 46.6016 37.7001 47.0016 36.9001 47.2016C37.5001 47.4016 38.1001 47.7016 38.4001 48.3016C39.1001 49.5016 38.7001 51.1016 37.5001 52.0016C36.6001 52.7016 35.3001 53.0016 34.1001 53.1016C33.2001 53.1016 32.2001 53.1016 31.4001 52.9016C30.9001 52.8016 30.6001 52.4016 30.4001 52.0016C30.2001 51.4016 30.3001 50.8016 30.4001 50.2016C31.0001 47.6016 31.5001 45.0016 32.1001 42.4016Z" fill="white"/>
<path d="M53.4 44.0016C53.2 45.0016 52.9 46.1016 52.7 47.1016C52.6 47.3016 52.8 47.5016 53 47.6016C53.6 47.7016 54.3 47.6016 54.9 47.3016C56 46.8016 56.4 45.5016 55.9 44.5016C55.4 43.8016 54.3 44.0016 53.4 44.0016ZM51.0999 42.4016C51.8999 42.2016 52.7999 42.2016 53.5999 42.1016C54.7999 42.1016 56 42.1016 57 42.7016C57.8 43.1016 58.3 43.8016 58.4 44.6016C58.7 46.3016 57.7 48.1016 55.9 49.0016C54.7 49.6016 53.3999 49.6016 52.0999 49.5016C51.8999 50.3016 51.7 51.2016 51.5 52.0016C51.4 52.4016 51.1 52.9016 50.5 53.0016C49.9 53.1016 49.3 53.0016 48.7 53.0016C49.5 49.5016 50.2999 46.0016 51.0999 42.4016Z" fill="white"/>
<path d="M59.6001 44.8007C60.0001 44.0007 60.5001 43.2007 61.4001 42.9007C61.9001 42.7007 62.3001 43.0007 62.6001 43.3007C63.1001 44.5007 63.0001 45.8007 62.6001 47.0007C61.7001 46.1007 60.7001 45.3007 59.6001 44.8007Z" fill="white"/>
<path d="M62.6001 43.3008C63.6001 43.8008 64.4001 44.6008 65.1001 45.4008C65.6001 46.0008 66.0001 46.8008 65.9001 47.5008C65.8001 48.2008 65.5001 48.7008 65.0001 49.3008C64.1001 50.3008 63.0001 51.2008 61.8001 51.9008C61.3001 52.2008 60.7001 52.4008 60.1001 52.3008C59.3001 52.1008 58.7001 51.5008 58.4001 50.8008C60.2001 49.9008 61.8001 48.7008 62.5001 47.0008C63.0001 45.8008 63.1001 44.5008 62.6001 43.3008Z" fill="#FF7800"/>
<path d="M23 44.8007C23.4 44.0007 23.9 43.2007 24.8 42.9007C25.3 42.7007 25.7 43.0007 26 43.3007C26.5 44.5007 26.4 45.8007 26 47.0007C25.2 46.1007 24.1 45.3007 23 44.8007Z" fill="white"/>
<path d="M26 43.3008C27 43.8008 27.8 44.6008 28.5 45.4008C29 46.0008 29.4 46.8008 29.3 47.5008C29.2 48.2008 28.9 48.7008 28.4 49.3008C27.5 50.3008 26.4001 51.2008 25.2001 51.9008C24.7001 52.2008 24.1 52.4008 23.5 52.3008C22.7 52.1008 22.1 51.5008 21.8 50.8008C23.6 49.9008 25.2 48.7008 25.9 47.0008C26.4 45.8008 26.5 44.5008 26 43.3008Z" fill="#FF7800"/>
<path d="M296.1 108.101H146.9C143 108.101 139.8 104.901 139.8 101.001V78.9008C139.8 75.0008 143 71.8008 146.9 71.8008H296.1C300 71.8008 303.2 75.0008 303.2 78.9008V101.001C303.2 105.001 300 108.101 296.1 108.101Z" fill="#FF7800"/>
<path d="M175.2 94.7008V85.3008H179.6C181.4 85.3008 182.3 86.0008 182.3 87.5008C182.3 88.6008 181.7 89.3008 180.6 89.8008C181.8 90.0008 182.5 90.7008 182.5 91.9008C182.5 93.8008 181.5 94.7008 179.6 94.7008H175.2ZM179.4 93.2008C180.2 93.2008 180.6 92.8008 180.6 92.0008C180.6 91.0008 180 90.5008 178.9 90.5008H178.4V89.4008C179.8 89.2008 180.6 88.6008 180.6 87.6008C180.6 87.1008 180.3 86.8008 179.6 86.8008H177V93.2008H179.4Z" fill="white"/>
<path d="M183.4 92.5012C183.4 91.1012 184.4 90.4012 186.4 90.4012C186.9 90.4012 187.3 90.4012 187.8 90.5012V90.0012C187.8 89.4012 187.4 89.1012 186.5 89.1012C185.7 89.1012 184.9 89.2012 184 89.4012V88.0012C184.9 87.8012 185.8 87.7012 186.5 87.7012C188.6 87.7012 189.6 88.5012 189.6 90.0012V94.6012H188.6L188 94.0012C187.4 94.4012 186.7 94.6012 186 94.6012C184.3 94.7012 183.4 93.9012 183.4 92.5012ZM186.4 91.6012C185.6 91.6012 185.1 91.9012 185.1 92.5012C185.1 93.1012 185.5 93.4012 186.2 93.4012C186.8 93.4012 187.3 93.2012 187.8 92.9012V91.8012C187.4 91.7012 186.9 91.6012 186.4 91.6012Z" fill="white"/>
<path d="M191.2 94.7008V87.8008H192.5L192.7 88.8008C193.4 88.1008 194.1 87.8008 195 87.8008C196.6 87.8008 197.5 88.6008 197.5 90.3008V94.6008H195.8V90.3008C195.8 89.5008 195.4 89.2008 194.7 89.2008C194.1 89.2008 193.6 89.4008 193 89.9008V94.7008H191.2Z" fill="white"/>
<path d="M204.2 94.5008C203.6 94.6008 203 94.7008 202.4 94.7008C199.9 94.7008 198.7 93.5008 198.7 91.1008C198.7 88.9008 199.9 87.8008 202.4 87.8008C203 87.8008 203.6 87.9008 204.2 88.0008V89.4008C203.6 89.3008 203.1 89.2008 202.6 89.2008C201.2 89.2008 200.5 89.8008 200.5 91.1008C200.5 92.6008 201.2 93.3008 202.6 93.3008C203.1 93.3008 203.7 93.2008 204.2 93.1008V94.5008Z" fill="white"/>
<path d="M205 92.5012C205 91.1012 206 90.4012 208 90.4012C208.5 90.4012 208.9 90.4012 209.4 90.5012V90.0012C209.4 89.4012 209 89.1012 208.1 89.1012C207.3 89.1012 206.5 89.2012 205.6 89.4012V88.0012C206.5 87.8012 207.4 87.7012 208.1 87.7012C210.2 87.7012 211.2 88.5012 211.2 90.0012V94.6012H210.2L209.6 94.0012C209 94.4012 208.3 94.6012 207.6 94.6012C205.9 94.7012 205 93.9012 205 92.5012ZM208 91.6012C207.2 91.6012 206.7 91.9012 206.7 92.5012C206.7 93.1012 207.1 93.4012 207.8 93.4012C208.4 93.4012 208.9 93.2012 209.4 92.9012V91.8012C209 91.7012 208.5 91.6012 208 91.6012Z" fill="white"/>
<path d="M215.8 88.0012C216.7 87.8012 217.7 87.7012 218.7 87.7012C221 87.7012 222.2 88.8012 222.2 91.0012C222.2 93.4012 221.1 94.6012 218.9 94.6012C218.4 94.6012 218 94.5012 217.5 94.3012V97.1012H215.8V88.0012ZM217.5 92.9012C217.9 93.1012 218.4 93.3012 218.9 93.3012C219.9 93.3012 220.5 92.6012 220.5 91.1012C220.5 89.9012 219.9 89.2012 218.8 89.2012C218.3 89.2012 217.9 89.2012 217.6 89.3012V92.9012H217.5Z" fill="white"/>
<path d="M223.2 91.2012C223.2 88.9012 224.3 87.7012 226.6 87.7012C228.9 87.7012 230 88.9012 230 91.2012C230 93.5012 228.9 94.7012 226.6 94.7012C224.3 94.7012 223.2 93.5012 223.2 91.2012ZM226.6 93.3012C227.7 93.3012 228.3 92.6012 228.3 91.1012C228.3 89.7012 227.7 89.0012 226.6 89.0012C225.5 89.0012 224.9 89.7012 224.9 91.1012C224.9 92.6012 225.5 93.3012 226.6 93.3012Z" fill="white"/>
<path d="M231.3 94.7008V87.8008H232.6L232.8 88.7008C233.4 88.1008 234 87.8008 234.7 87.8008V89.2008C234.1 89.2008 233.5 89.5008 233 90.0008V94.7008H231.3Z" fill="white"/>
<path d="M240.7 85.3008V94.7008H239V85.3008H240.7Z" fill="white"/>
<path d="M242.5 94.7008V87.8008H243.8L244 88.8008C244.7 88.1008 245.4 87.8008 246.3 87.8008C247.9 87.8008 248.8 88.6008 248.8 90.3008V94.6008H247V90.3008C247 89.5008 246.6 89.2008 245.9 89.2008C245.3 89.2008 244.8 89.4008 244.2 89.9008V94.7008H242.5Z" fill="white"/>
<path d="M250.3 86.6016H251.6L251.9 87.7016H253.6V89.1016H252V92.3016C252 92.9016 252.3 93.3016 252.8 93.3016H253.5V94.7016H252C250.8 94.7016 250.3 94.1016 250.3 92.8016V86.6016Z" fill="white"/>
<path d="M257.7 87.8008C259.8 87.8008 260.8 88.9008 260.8 91.0008C260.8 91.3008 260.8 91.6008 260.7 91.9008H256.1C256.1 92.9008 256.8 93.4008 258.2 93.4008C258.9 93.4008 259.6 93.3008 260.3 93.2008V94.6008C259.7 94.7008 259 94.8008 258.1 94.8008C255.6 94.8008 254.3 93.6008 254.3 91.3008C254.4 88.9008 255.5 87.8008 257.7 87.8008ZM256.2 90.6008H259.1V90.5008C259.1 89.5008 258.6 89.1008 257.7 89.1008C256.7 89.1008 256.2 89.6008 256.2 90.6008Z" fill="white"/>
<path d="M262.1 94.7008V87.8008H263.4L263.6 88.7008C264.2 88.1008 264.8 87.8008 265.5 87.8008V89.2008C264.9 89.2008 264.3 89.5008 263.8 90.0008V94.7008H262.1Z" fill="white"/>
<path d="M266.6 94.7008V87.8008H267.9L268.1 88.8008C268.8 88.1008 269.5 87.8008 270.4 87.8008C272 87.8008 272.9 88.6008 272.9 90.3008V94.6008H271.2V90.3008C271.2 89.5008 270.8 89.2008 270.1 89.2008C269.5 89.2008 269 89.4008 268.4 89.9008V94.7008H266.6Z" fill="white"/>
<path d="M277.4 87.8008C279.5 87.8008 280.5 88.9008 280.5 91.0008C280.5 91.3008 280.5 91.6008 280.4 91.9008H275.8C275.8 92.9008 276.5 93.4008 277.9 93.4008C278.6 93.4008 279.3 93.3008 280 93.2008V94.6008C279.4 94.7008 278.7 94.8008 277.8 94.8008C275.3 94.8008 274 93.6008 274 91.3008C274.2 88.9008 275.3 87.8008 277.4 87.8008ZM275.9 90.6008H278.8V90.5008C278.8 89.5008 278.3 89.1008 277.4 89.1008C276.5 89.1008 276 89.6008 275.9 90.6008Z" fill="white"/>
<path d="M281.8 86.6016H283.1L283.4 87.7016H285.1V89.1016H283.6V92.3016C283.6 92.9016 283.9 93.3016 284.4 93.3016H285.1V94.7016H283.5C282.3 94.7016 281.8 94.1016 281.8 92.8016V86.6016Z" fill="white"/>
<path d="M165.8 87.5H165V86.4C165 84.2 163.2 82.5 161.1 82.5C158.9 82.5 157.2 84.3 157.2 86.4V87.5H156.4C156.2 87.5 156.1 87.6 156.1 87.8V94.8C156.1 95.4 156.6 95.9 157.2 95.9H165C165.6 95.9 166.1 95.4 166.1 94.8V87.8C166.1 87.7 166 87.5 165.8 87.5ZM161.7 91.8L161.9 93.4C161.9 93.5 161.9 93.6 161.8 93.6C161.7 93.7 161.7 93.7 161.6 93.7H160.5C160.4 93.7 160.3 93.7 160.3 93.6C160.2 93.5 160.2 93.5 160.2 93.4L160.4 91.8C160.1 91.6 159.9 91.3 159.9 90.9C159.9 90.3 160.4 89.8 161 89.8C161.6 89.8 162.1 90.3 162.1 90.9C162.2 91.3 162 91.6 161.7 91.8ZM163.3 87.5H158.8V86.4C158.8 85.2 159.8 84.2 161 84.2C162.2 84.2 163.2 85.2 163.2 86.4V87.5H163.3Z" fill="white"/>
</svg>
