<svg width="392" height="262" viewBox="0 0 392 262" fill="none" xmlns="http://www.w3.org/2000/svg">
<path d="M392 0H0V262H392V0Z" fill="#F6F6F6"/>
<path d="M392 0H0V29.4H392V0Z" fill="#00298B"/>
<path d="M163.2 17.2004H162.4V13.4004H163.2V17.2004Z" fill="white"/>
<path d="M167 17.2004H166.2L164.7 14.7004V17.2004H163.9V13.4004H164.7L166.2 15.9004V13.4004H167V17.2004Z" fill="white"/>
<path d="M168.5 17.2004H167.7V13.4004H168.5V17.2004Z" fill="white"/>
<path d="M172.2 15.9996C172.2 16.3996 172 16.6996 171.7 16.9996C171.4 17.2996 171.1 17.3996 170.6 17.3996C170.1 17.3996 169.7 17.1996 169.5 16.8996C169.3 16.5996 169.1 16.0996 169.1 15.5996V15.3996C169.1 14.9996 169.2 14.6996 169.3 14.3996C169.4 14.0996 169.6 13.8996 169.9 13.7996C170.1 13.6996 170.4 13.5996 170.7 13.5996C171.1 13.5996 171.5 13.6996 171.8 13.9996C172.1 14.1996 172.2 14.5996 172.3 14.9996H171.5C171.5 14.7996 171.4 14.5996 171.3 14.4996C171.2 14.3996 171 14.2996 170.8 14.2996C170.5 14.2996 170.3 14.3996 170.2 14.5996C170.1 14.7996 170 15.0996 170 15.4996V15.7996C170 16.1996 170.1 16.4996 170.2 16.6996C170.3 16.8996 170.5 16.9996 170.8 16.9996C171 16.9996 171.2 16.8996 171.3 16.7996C171.4 16.6996 171.5 16.4996 171.5 16.2996H172.2V15.9996Z" fill="white"/>
<path d="M173.5 17.2004H172.7V13.4004H173.5V17.2004Z" fill="white"/>
<path d="M177.4 15.4004C177.4 15.8004 177.3 16.1004 177.2 16.4004C177.1 16.7004 176.9 16.9004 176.6 17.1004C176.4 17.3004 176.1 17.3004 175.8 17.3004C175.5 17.3004 175.2 17.2004 175 17.1004C174.8 16.9004 174.6 16.7004 174.4 16.5004C174.3 16.2004 174.2 15.9004 174.2 15.5004V15.3004C174.2 14.9004 174.3 14.6004 174.4 14.3004C174.5 14.0004 174.7 13.8004 175 13.6004C175.2 13.4004 175.5 13.4004 175.8 13.4004C176.1 13.4004 176.4 13.5004 176.6 13.6004C176.8 13.8004 177 14.0004 177.2 14.3004C177.3 14.6004 177.4 14.9004 177.4 15.3004V15.4004ZM176.6 15.2004C176.6 14.8004 176.5 14.5004 176.4 14.3004C176.3 14.1004 176.1 14.0004 175.8 14.0004C175.5 14.0004 175.3 14.1004 175.2 14.3004C175.1 14.5004 175 14.8004 175 15.2004V15.4004C175 15.8004 175.1 16.1004 175.2 16.3004C175.3 16.5004 175.5 16.6004 175.8 16.6004C176.1 16.6004 176.3 16.5004 176.4 16.3004C176.5 16.1004 176.6 15.8004 176.6 15.4004V15.2004Z" fill="white"/>
<path d="M199.2 14.1H198V17.3H197.2V14.1H196.1V13.5H199.2V14.1Z" fill="white"/>
<path d="M201 15.8004H200.4V17.2004H199.6V13.4004H201C201.4 13.4004 201.8 13.5004 202 13.7004C202.2 13.9004 202.4 14.2004 202.4 14.5004C202.4 14.8004 202.3 15.0004 202.2 15.1004C202.1 15.3004 201.9 15.4004 201.7 15.5004L202.5 17.0004H201.7L201 15.8004ZM200.4 15.2004H201C201.2 15.2004 201.3 15.2004 201.5 15.1004C201.6 15.0004 201.7 14.9004 201.7 14.7004C201.7 14.5004 201.6 14.4004 201.5 14.3004C201.4 14.2004 201.2 14.1004 201 14.1004H200.4V15.2004Z" fill="white"/>
<path d="M205.2 16.4004H203.8L203.5 17.2004H202.7L204.1 13.4004H204.8L206.2 17.2004H205.4L205.2 16.4004ZM204 15.8004H204.9L204.4 14.4004L204 15.8004Z" fill="white"/>
<path d="M209.7 17.2004H208.9L207.4 14.7004V17.2004H206.6V13.4004H207.4L208.9 15.9004V13.4004H209.7V17.2004Z" fill="white"/>
<path d="M212.4 16.2004C212.4 16.1004 212.3 15.9004 212.2 15.9004C212.1 15.8004 211.9 15.7004 211.6 15.6004C211.3 15.5004 211.1 15.4004 211 15.3004C210.6 15.1004 210.4 14.8004 210.4 14.4004C210.4 14.2004 210.5 14.0004 210.6 13.9004C210.7 13.7004 210.9 13.6004 211.1 13.5004C211.3 13.4004 211.6 13.4004 211.8 13.4004C212.1 13.4004 212.3 13.4004 212.5 13.5004C212.7 13.6004 212.9 13.7004 213 13.9004C213.1 14.1004 213.2 14.3004 213.2 14.5004H212.4C212.4 14.3004 212.3 14.2004 212.2 14.1004C212.1 14.0004 211.9 14.0004 211.7 14.0004C211.5 14.0004 211.4 14.0004 211.3 14.1004C211.2 14.2004 211.1 14.3004 211.1 14.4004C211.1 14.5004 211.2 14.6004 211.3 14.7004C211.4 14.8004 211.6 14.9004 211.8 14.9004C212.2 15.0004 212.6 15.2004 212.8 15.4004C213 15.6004 213.1 15.8004 213.1 16.1004C213.1 16.4004 213 16.7004 212.7 16.9004C212.5 17.1004 212.1 17.2004 211.7 17.2004C211.4 17.2004 211.1 17.1004 210.9 17.0004C210.7 16.9004 210.5 16.7004 210.4 16.6004C210.3 16.5004 210.2 16.2004 210.2 16.0004H211C211 16.4004 211.3 16.6004 211.8 16.6004C212 16.6004 212.1 16.6004 212.2 16.5004C212.3 16.5004 212.4 16.4004 212.4 16.2004Z" fill="white"/>
<path d="M216 15.7004H214.5V17.2004H213.7V13.4004H216.2V14.0004H214.5V15.0004H216V15.7004Z" fill="white"/>
<path d="M218.9 15.6004H217.4V16.6004H219.2V17.2004H216.7V13.4004H219.2V14.0004H217.4V15.0004H218.9V15.6004Z" fill="white"/>
<path d="M221 15.8004H220.4V17.2004H219.6V13.4004H221C221.4 13.4004 221.8 13.5004 222 13.7004C222.2 13.9004 222.4 14.2004 222.4 14.5004C222.4 14.8004 222.3 15.0004 222.2 15.1004C222.1 15.3004 221.9 15.4004 221.7 15.5004L222.5 17.0004H221.7L221 15.8004ZM220.4 15.2004H221C221.2 15.2004 221.3 15.2004 221.5 15.1004C221.6 15.0004 221.7 14.9004 221.7 14.7004C221.7 14.5004 221.6 14.4004 221.5 14.3004C221.4 14.2004 221.2 14.1004 221 14.1004H220.4V15.2004Z" fill="white"/>
<path d="M225.3 15.6004H223.8V16.6004H225.6V17.2004H223V13.4004H225.5V14.0004H223.7V15.0004H225.2V15.6004H225.3Z" fill="white"/>
<path d="M229.1 17.2004H228.3L226.8 14.7004V17.2004H226V13.4004H226.8L228.3 15.9004V13.4004H229.1V17.2004Z" fill="white"/>
<path d="M232.7 15.9996C232.7 16.3996 232.5 16.6996 232.2 16.9996C231.9 17.1996 231.6 17.3996 231.1 17.3996C230.6 17.3996 230.2 17.1996 230 16.8996C229.7 16.5996 229.6 16.0996 229.6 15.5996V15.3996C229.6 14.9996 229.7 14.6996 229.8 14.3996C229.9 14.0996 230.1 13.8996 230.4 13.7996C230.6 13.6996 230.9 13.5996 231.2 13.5996C231.6 13.5996 232 13.6996 232.3 13.9996C232.6 14.2996 232.7 14.5996 232.8 14.9996H232C232 14.7996 231.9 14.5996 231.8 14.4996C231.7 14.3996 231.5 14.2996 231.3 14.2996C231 14.2996 230.8 14.3996 230.7 14.5996C230.6 14.7996 230.5 15.0996 230.5 15.4996V15.7996C230.5 16.1996 230.6 16.4996 230.7 16.6996C230.8 16.8996 231 16.9996 231.3 16.9996C231.5 16.9996 231.7 16.8996 231.8 16.7996C231.9 16.6996 232 16.4996 232 16.2996H232.7V15.9996Z" fill="white"/>
<path d="M234.1 17.2004H233.3V13.4004H234.1V17.2004Z" fill="white"/>
<path d="M237 16.4004H235.6L235.3 17.2004H234.5L235.9 13.4004H236.6L238 17.2004H237.2L237 16.4004ZM235.8 15.8004H236.7L236.2 14.4004L235.8 15.8004Z" fill="white"/>
<path d="M240.4 16.2004C240.4 16.1004 240.3 15.9004 240.2 15.9004C240.1 15.8004 239.9 15.7004 239.6 15.6004C239.3 15.5004 239.1 15.4004 239 15.3004C238.6 15.1004 238.4 14.8004 238.4 14.4004C238.4 14.2004 238.5 14.0004 238.6 13.9004C238.7 13.7004 238.9 13.6004 239.1 13.5004C239.3 13.4004 239.6 13.4004 239.8 13.4004C240.1 13.4004 240.3 13.4004 240.5 13.5004C240.7 13.6004 240.9 13.7004 241 13.9004C241.1 14.1004 241.2 14.3004 241.2 14.5004H240.4C240.4 14.3004 240.3 14.2004 240.2 14.1004C240.1 14.0004 240 14.0004 239.8 14.0004C239.6 14.0004 239.5 14.0004 239.4 14.1004C239.3 14.2004 239.2 14.3004 239.2 14.4004C239.2 14.5004 239.3 14.6004 239.4 14.7004C239.5 14.8004 239.7 14.9004 239.9 14.9004C240.3 15.0004 240.7 15.2004 240.9 15.4004C241.1 15.6004 241.2 15.8004 241.2 16.1004C241.2 16.4004 241.1 16.7004 240.8 16.9004C240.6 17.1004 240.2 17.2004 239.8 17.2004C239.5 17.2004 239.2 17.1004 239 17.0004C238.8 16.9004 238.6 16.7004 238.5 16.6004C238.4 16.5004 238.3 16.2004 238.3 16.0004H239.1C239.1 16.4004 239.4 16.6004 239.9 16.6004C240.1 16.6004 240.2 16.6004 240.3 16.5004C240.4 16.5004 240.4 16.4004 240.4 16.2004Z" fill="white"/>
<path d="M123.3 9.70041C124.7 8.60041 126.7 8.30041 128.5 8.70041C129.2 8.90041 129.9 9.20042 130.1 9.80042C130.1 10.3004 129.9 10.9004 129.8 11.4004C129 10.7004 127.7 10.5004 126.6 10.7004C125.4 10.9004 124.6 11.8004 124.1 12.7004C123.6 13.8004 123.4 15.1004 123.8 16.2004C124 16.8004 124.6 17.3004 125.3 17.5004C126.5 17.8004 127.7 17.4004 128.6 16.7004C128.4 17.4004 128.3 18.1004 128.1 18.7004C127.9 19.2004 127.2 19.4004 126.6 19.5004C125 19.7004 123.2 19.5004 122.1 18.4004C121 17.4004 120.8 15.9004 120.8 14.6004C121 12.9004 121.7 11.0004 123.3 9.70041Z" fill="white"/>
<path d="M114.1 14.7012C113.9 15.4012 113.8 16.1012 113.6 16.9012C113.5 17.2012 113.4 17.5012 113.6 17.8012C114.4 17.8012 115.3 17.9012 116 17.4012C116.9 17.0012 117.2 15.8012 116.4 15.1012C115.9 14.7012 115 14.8012 114.1 14.7012ZM115 10.6012C114.8 11.3012 114.7 12.1012 114.5 12.8012C114.5 13.0012 114.7 13.1012 114.9 13.1012C115.7 13.1012 116.6 13.0012 117.1 12.5012C117.6 12.0012 117.7 11.1012 117 10.7012C116.5 10.4012 115.7 10.5012 115 10.6012ZM112.9 9.00117C114.1 8.80117 115.2 8.70117 116.4 8.70117C117.5 8.80117 118.6 8.90117 119.4 9.60117C120.3 10.4012 120.4 11.8012 119.6 12.7012C119.1 13.2012 118.5 13.6012 117.7 13.8012C118.3 14.0012 118.9 14.3012 119.2 14.9012C119.9 16.1012 119.5 17.7012 118.3 18.6012C117.4 19.3012 116.1 19.6012 114.9 19.7012C114 19.7012 113 19.7012 112.2 19.5012C111.7 19.4012 111.4 19.0012 111.2 18.6012C111 18.0012 111.1 17.4012 111.2 16.8012C111.8 14.2012 112.3 11.5012 112.9 9.00117Z" fill="white"/>
<path d="M134.2 10.6012C134 11.6012 133.7 12.7012 133.5 13.7012C133.4 13.9012 133.6 14.1012 133.8 14.2012C134.4 14.3012 135.1 14.2012 135.7 13.9012C136.8 13.4012 137.2 12.1012 136.7 11.1012C136.2 10.4012 135.1 10.6012 134.2 10.6012ZM131.9 9.00117C132.7 8.80117 133.6 8.80117 134.4 8.70117C135.6 8.70117 136.8 8.70117 137.8 9.30117C138.6 9.70117 139.1 10.4012 139.2 11.2012C139.5 12.9012 138.5 14.7012 136.7 15.6012C135.5 16.2012 134.2 16.2012 132.9 16.1012C132.7 16.9012 132.5 17.8012 132.3 18.6012C132.2 19.0012 131.9 19.5012 131.3 19.6012C130.7 19.7012 130.1 19.6012 129.5 19.6012C130.3 16.1012 131 12.6012 131.9 9.00117Z" fill="white"/>
<path d="M140.4 11.4003C140.8 10.6003 141.3 9.8003 142.2 9.5003C142.7 9.3003 143.1 9.6003 143.4 9.9003C143.9 11.1003 143.8 12.4003 143.4 13.6003C142.5 12.7003 141.5 11.9003 140.4 11.4003Z" fill="white"/>
<path d="M143.4 9.90039C144.4 10.4004 145.2 11.2004 145.9 12.0004C146.4 12.6004 146.8 13.4004 146.7 14.1004C146.6 14.8004 146.3 15.3004 145.8 15.9004C144.9 16.9004 143.8 17.8004 142.6 18.5004C142.1 18.8004 141.5 19.0004 140.9 18.9004C140.1 18.7004 139.5 18.1004 139.2 17.4004C141 16.5004 142.6 15.3004 143.3 13.6004C143.8 12.4004 143.9 11.1004 143.4 9.90039Z" fill="#FF7800"/>
<path d="M103.8 11.4003C104.2 10.6003 104.7 9.8003 105.6 9.5003C106.1 9.3003 106.5 9.6003 106.8 9.9003C107.3 11.1003 107.2 12.4003 106.8 13.6003C106 12.7003 104.9 11.9003 103.8 11.4003Z" fill="white"/>
<path d="M106.8 9.90039C107.8 10.4004 108.6 11.2004 109.3 12.0004C109.8 12.6004 110.2 13.4004 110.1 14.1004C110 14.8004 109.7 15.3004 109.2 15.9004C108.3 16.9004 107.2 17.8004 106 18.5004C105.5 18.8004 104.9 19.0004 104.3 18.9004C103.5 18.7004 102.9 18.1004 102.6 17.4004C104.4 16.5004 106 15.3004 106.7 13.6004C107.2 12.4004 107.3 11.1004 106.8 9.90039Z" fill="#FF7800"/>
<path d="M246.4 17.0004C246.3 17.0004 246.2 17.0004 246.1 16.9004L243.6 14.4004C243.4 14.2004 243.4 14.0004 243.6 13.8004C243.8 13.6004 244 13.6004 244.2 13.8004L246.4 16.0004L248.6 13.8004C248.8 13.6004 249 13.6004 249.2 13.8004C249.4 14.0004 249.4 14.2004 249.2 14.4004L246.7 16.9004C246.6 16.9004 246.5 17.0004 246.4 17.0004Z" fill="white"/>
<path d="M306.6 0H266.6V29.4H306.6V0Z" fill="#001C68"/>
<path d="M306.6 27.8008H266.6V29.4008H306.6V27.8008Z" fill="#FF7800"/>
<path d="M274.8 15.9004V17.2004H274V13.4004H275.5C275.8 13.4004 276 13.5004 276.3 13.6004C276.5 13.7004 276.7 13.9004 276.8 14.0004C276.9 14.2004 277 14.4004 277 14.7004C277 15.1004 276.9 15.4004 276.6 15.6004C276.3 15.8004 276 15.9004 275.5 15.9004H274.8ZM274.8 15.2004H275.5C275.7 15.2004 275.9 15.2004 276 15.1004C276.1 15.0004 276.2 14.9004 276.2 14.7004C276.2 14.5004 276.1 14.4004 276 14.2004C275.9 14.1004 275.7 14.0004 275.5 14.0004H274.8V15.2004Z" fill="white"/>
<path d="M279.1 16.4004H277.7L277.4 17.2004H276.6L278 13.4004H278.7L280.1 17.2004H279.3L279.1 16.4004ZM277.9 15.8004H278.8L278.3 14.4004L277.9 15.8004Z" fill="white"/>
<path d="M283.5 16.7008C283.4 16.9008 283.2 17.0008 282.9 17.1008C282.6 17.2008 282.4 17.2008 282 17.2008C281.7 17.2008 281.4 17.1008 281.1 17.0008C280.9 16.9008 280.7 16.6008 280.5 16.4008C280.4 16.1008 280.3 15.8008 280.3 15.4008V15.1008C280.3 14.7008 280.4 14.4008 280.5 14.1008C280.6 13.8008 280.8 13.6008 281.1 13.5008C281.3 13.4008 281.6 13.3008 281.9 13.3008C282.3 13.3008 282.7 13.4008 283 13.6008C283.3 13.8008 283.4 14.1008 283.5 14.5008H282.7C282.7 14.3008 282.6 14.1008 282.5 14.0008C282.4 13.9008 282.2 14.0008 282 14.0008C281.7 14.0008 281.5 14.1008 281.4 14.3008C281.3 14.5008 281.2 14.8008 281.2 15.2008V15.4008C281.2 15.8008 281.3 16.1008 281.4 16.3008C281.6 16.5008 281.8 16.6008 282.1 16.6008C282.4 16.6008 282.6 16.5008 282.7 16.4008V15.7008H282V15.1008H283.5V16.7008Z" fill="white"/>
<path d="M287.2 15.4004C287.2 15.8004 287.1 16.1004 287 16.4004C286.9 16.7004 286.7 16.9004 286.4 17.1004C286.2 17.3004 285.9 17.3004 285.6 17.3004C285.3 17.3004 285 17.2004 284.8 17.1004C284.6 16.9004 284.4 16.7004 284.2 16.5004C284.1 16.2004 284 15.9004 284 15.5004V15.3004C284 14.9004 284.1 14.6004 284.2 14.3004C284.3 14.0004 284.5 13.8004 284.8 13.6004C285 13.4004 285.3 13.4004 285.6 13.4004C285.9 13.4004 286.2 13.5004 286.4 13.6004C286.6 13.8004 286.8 14.0004 287 14.3004C287.1 14.6004 287.2 14.9004 287.2 15.3004V15.4004ZM286.5 15.2004C286.5 14.8004 286.4 14.5004 286.3 14.3004C286.2 14.1004 286 14.0004 285.7 14.0004C285.4 14.0004 285.2 14.1004 285.1 14.3004C285 14.5004 284.9 14.8004 284.9 15.2004V15.4004C284.9 15.8004 285 16.1004 285.1 16.3004C285.2 16.5004 285.4 16.6004 285.7 16.6004C286 16.6004 286.2 16.5004 286.3 16.3004C286.4 16.1004 286.5 15.8004 286.5 15.4004V15.2004Z" fill="white"/>
<path d="M289.8 16.2004C289.8 16.1004 289.7 15.9004 289.6 15.9004C289.5 15.8004 289.3 15.7004 289 15.6004C288.7 15.5004 288.5 15.4004 288.4 15.3004C288 15.1004 287.8 14.8004 287.8 14.4004C287.8 14.2004 287.9 14.0004 288 13.9004C288.1 13.7004 288.3 13.6004 288.5 13.5004C288.7 13.4004 289 13.4004 289.2 13.4004C289.5 13.4004 289.7 13.4004 289.9 13.5004C290.1 13.6004 290.3 13.7004 290.4 13.9004C290.5 14.1004 290.6 14.3004 290.6 14.5004H289.8C289.8 14.3004 289.7 14.2004 289.6 14.1004C289.5 14.0004 289.3 14.0004 289.1 14.0004C288.9 14.0004 288.8 14.0004 288.7 14.1004C288.6 14.2004 288.5 14.3004 288.5 14.4004C288.5 14.5004 288.6 14.6004 288.7 14.7004C288.8 14.8004 289 14.9004 289.2 14.9004C289.6 15.0004 290 15.2004 290.2 15.4004C290.4 15.6004 290.5 15.8004 290.5 16.1004C290.5 16.4004 290.4 16.7004 290.1 16.9004C289.9 17.1004 289.5 17.2004 289.1 17.2004C288.8 17.2004 288.5 17.1004 288.3 17.0004C288.1 16.9004 287.9 16.7004 287.8 16.6004C287.7 16.5004 287.6 16.2004 287.6 16.0004H288.4C288.4 16.4004 288.7 16.6004 289.2 16.6004C289.4 16.6004 289.5 16.6004 289.6 16.5004C289.7 16.5004 289.8 16.4004 289.8 16.2004Z" fill="white"/>
<path d="M295.9 17.0004C295.8 17.0004 295.7 17.0004 295.6 16.9004L293.1 14.4004C292.9 14.2004 292.9 14.0004 293.1 13.8004C293.3 13.6004 293.5 13.6004 293.7 13.8004L295.9 16.0004L298.1 13.8004C298.3 13.6004 298.5 13.6004 298.7 13.8004C298.9 14.0004 298.9 14.2004 298.7 14.4004L296.2 16.9004C296.1 16.9004 296 17.0004 295.9 17.0004Z" fill="white"/>
<path d="M157.2 94.6992V87.1992H160.6C162.1 87.1992 162.9 87.8992 162.9 89.2992C162.9 90.7992 161.8 91.7992 159.7 92.0992L159.5 90.8992C160.8 90.6992 161.4 90.1992 161.4 89.3992C161.4 88.7992 161.1 88.4992 160.5 88.4992H158.6V94.7992H157.2V94.6992Z" fill="#0050B1"/>
<path d="M163.4 92.9992C163.4 91.8992 164.2 91.3992 165.8 91.3992C166.2 91.3992 166.6 91.3992 166.9 91.4992V90.9992C166.9 90.4992 166.5 90.2992 165.8 90.2992C165.2 90.2992 164.5 90.3992 163.8 90.5992V89.4992C164.5 89.2992 165.2 89.1992 165.8 89.1992C167.4 89.1992 168.3 89.7992 168.3 90.9992V94.6992H167.5L167 94.1992C166.5 94.4992 166 94.6992 165.4 94.6992C164.1 94.6992 163.4 94.0992 163.4 92.9992ZM165.8 92.2992C165.1 92.2992 164.8 92.4992 164.8 92.9992C164.8 93.4992 165.1 93.6992 165.6 93.6992C166.1 93.6992 166.5 93.5992 166.9 93.2992V92.3992C166.6 92.2992 166.2 92.2992 165.8 92.2992Z" fill="#0050B1"/>
<path d="M174.6 94.2992C174.6 95.8992 173.6 96.6992 171.7 96.6992C171 96.6992 170.4 96.5992 169.9 96.3992V95.2992C170.4 95.4992 171 95.5992 171.7 95.5992C172.7 95.5992 173.2 95.1992 173.2 94.2992C172.8 94.4992 172.3 94.5992 171.9 94.5992C170.3 94.5992 169.4 93.6992 169.4 91.8992C169.4 90.0992 170.4 89.1992 172.3 89.1992C172.9 89.1992 173.7 89.2992 174.6 89.3992V94.2992ZM173.2 90.3992C173 90.2992 172.6 90.2992 172.2 90.2992C171.2 90.2992 170.8 90.7992 170.8 91.8992C170.8 92.8992 171.2 93.3992 172 93.3992C172.4 93.3992 172.8 93.2992 173.2 93.0992V90.3992Z" fill="#0050B1"/>
<path d="M175.6 91.8996C175.6 89.9996 176.5 89.0996 178.3 89.0996C180.1 89.0996 181 89.9996 181 91.8996C181 93.6996 180.1 94.6996 178.3 94.6996C176.5 94.6996 175.6 93.7996 175.6 91.8996ZM178.4 93.5996C179.3 93.5996 179.7 92.9996 179.7 91.8996C179.7 90.7996 179.3 90.1996 178.4 90.1996C177.5 90.1996 177.1 90.7996 177.1 91.8996C177 93.0996 177.5 93.5996 178.4 93.5996Z" fill="#0050B1"/>
<path d="M189.4 94.3996C188.6 94.5996 187.7 94.6996 186.9 94.6996C185.1 94.6996 184.2 93.6996 184.2 91.7996C184.2 89.9996 185.1 89.0996 186.8 89.0996C187.2 89.0996 187.6 89.1996 187.9 89.3996V87.0996H189.3V94.3996H189.4ZM188 90.5996C187.7 90.3996 187.4 90.2996 186.9 90.2996C186 90.2996 185.6 90.7996 185.6 91.7996C185.6 92.9996 186.1 93.4996 187 93.4996C187.4 93.4996 187.7 93.3996 188 93.2996V90.5996Z" fill="#0050B1"/>
<path d="M193.1 89.1992C194.8 89.1992 195.6 90.0992 195.6 91.7992C195.6 91.9992 195.6 92.2992 195.6 92.4992H191.9C191.9 93.2992 192.5 93.6992 193.6 93.6992C194.2 93.6992 194.7 93.5992 195.3 93.4992V94.5992C194.8 94.6992 194.2 94.7992 193.5 94.7992C191.5 94.7992 190.5 93.8992 190.5 91.9992C190.5 90.0992 191.3 89.1992 193.1 89.1992ZM191.9 91.4992H194.3C194.3 90.6992 193.9 90.3992 193.1 90.3992C192.3 90.2992 191.9 90.6992 191.9 91.4992Z" fill="#0050B1"/>
<path d="M199 94.4V93.2C199.6 93.4 200.3 93.6 201.1 93.6C201.7 93.6 202 93.4 202 93C202 92.6 201.8 92.4 201.4 92.4H200.4C199.3 92.4 198.7 91.8 198.7 90.7C198.7 89.5 199.5 89 201.2 89C201.9 89 202.5 89.1 203.2 89.3V90.5C202.6 90.3 201.9 90.1 201.2 90.1C200.4 90.1 200.1 90.3 200.1 90.7C200.1 91.1 200.3 91.3 200.8 91.3H201.7C202.9 91.3 203.5 91.9 203.5 93C203.5 94.2 202.7 94.7 201.2 94.7C200.3 94.7 199.6 94.6 199 94.4Z" fill="#0050B1"/>
<path d="M206.7 89.1992C208.4 89.1992 209.2 90.0992 209.2 91.7992C209.2 91.9992 209.2 92.2992 209.2 92.4992H205.5C205.5 93.2992 206.1 93.6992 207.2 93.6992C207.8 93.6992 208.3 93.5992 208.9 93.4992V94.5992C208.4 94.6992 207.8 94.7992 207.1 94.7992C205.1 94.7992 204.1 93.8992 204.1 91.9992C204.1 90.0992 205 89.1992 206.7 89.1992ZM205.5 91.4992H207.9C207.9 90.6992 207.5 90.3992 206.7 90.3992C206 90.2992 205.6 90.6992 205.5 91.4992Z" fill="#0050B1"/>
<path d="M210.3 94.6992V89.1992H211.4L211.6 89.8992C212.1 89.3992 212.6 89.1992 213.1 89.1992V90.2992C212.6 90.2992 212.1 90.4992 211.7 90.8992V94.6992H210.3Z" fill="#0050B1"/>
<path d="M213.2 89.1996H214.7L216 92.9996L217.4 89.0996H218.9L216.7 94.5996H215.4L213.2 89.1996Z" fill="#0050B1"/>
<path d="M221 87.1992V88.2992H219.6V87.1992H221ZM221 89.1992V94.6992H219.6V89.1992H221Z" fill="#0050B1"/>
<path d="M226.4 94.4996C225.9 94.5996 225.5 94.6996 225 94.6996C223 94.6996 222.1 93.6996 222.1 91.7996C222.1 89.9996 223.1 89.0996 225 89.0996C225.5 89.0996 226 89.1996 226.4 89.2996V90.3996C225.9 90.2996 225.5 90.1996 225.1 90.1996C224 90.1996 223.4 90.6996 223.4 91.7996C223.4 92.9996 224 93.5996 225.1 93.5996C225.5 93.5996 226 93.4996 226.4 93.3996V94.4996Z" fill="#0050B1"/>
<path d="M228.7 87.1992V88.2992H227.3V87.1992H228.7ZM228.7 89.1992V94.6992H227.3V89.1992H228.7Z" fill="#0050B1"/>
<path d="M229.7 91.8996C229.7 89.9996 230.6 89.0996 232.4 89.0996C234.2 89.0996 235.1 89.9996 235.1 91.8996C235.1 93.6996 234.2 94.6996 232.4 94.6996C230.7 94.6996 229.7 93.7996 229.7 91.8996ZM232.5 93.5996C233.4 93.5996 233.8 92.9996 233.8 91.8996C233.8 90.7996 233.4 90.1996 232.5 90.1996C231.6 90.1996 231.2 90.7996 231.2 91.8996C231.1 93.0996 231.6 93.5996 232.5 93.5996Z" fill="#0050B1"/>
<path d="M143.2 105V100.4H145.4C146.3 100.4 146.7 100.8 146.7 101.5C146.7 102 146.4 102.4 145.8 102.6C146.4 102.7 146.7 103.1 146.7 103.6C146.7 104.5 146.2 105 145.3 105H143.2ZM145.3 104.2C145.7 104.2 145.9 104 145.9 103.6C145.9 103.1 145.6 102.9 145.1 102.9H144.8V102.3C145.5 102.2 145.9 101.9 145.9 101.4C145.9 101.1 145.7 101 145.4 101H144.1V104.1H145.3V104.2Z" fill="#7CA2CB"/>
<path d="M150.4 101.602V105.002H149.7L149.6 104.602C149.2 104.902 148.8 105.002 148.4 105.002C147.7 105.002 147.4 104.602 147.4 103.802V101.602H148.3V103.702C148.3 104.102 148.5 104.302 148.8 104.302C149.1 104.302 149.4 104.202 149.6 104.002V101.602H150.4Z" fill="#7CA2CB"/>
<path d="M151.2 104.8V104.1C151.6 104.3 152 104.3 152.5 104.3C152.9 104.3 153.1 104.2 153.1 103.9C153.1 103.7 153 103.6 152.7 103.6H152.1C151.4 103.6 151.1 103.3 151.1 102.6C151.1 101.9 151.6 101.5 152.6 101.5C153 101.5 153.4 101.6 153.8 101.7V102.4C153.4 102.2 153 102.2 152.6 102.2C152.1 102.2 151.9 102.3 151.9 102.6C151.9 102.8 152 102.9 152.3 102.9H152.8C153.6 102.9 153.9 103.2 153.9 103.9C153.9 104.6 153.4 105 152.5 105C152 105 151.6 104.9 151.2 104.8Z" fill="#7CA2CB"/>
<path d="M157.1 104.902C156.8 105.002 156.5 105.002 156.2 105.002C155 105.002 154.4 104.402 154.4 103.202C154.4 102.102 155 101.602 156.2 101.602C156.5 101.602 156.8 101.602 157.1 101.702V102.402C156.8 102.302 156.6 102.302 156.3 102.302C155.6 102.302 155.3 102.602 155.3 103.302C155.3 104.002 155.6 104.402 156.3 104.402C156.6 104.402 156.8 104.402 157.1 104.302V104.902Z" fill="#7CA2CB"/>
<path d="M157.5 103.9C157.5 103.2 158 102.9 159 102.9C159.2 102.9 159.5 102.9 159.7 103V102.7C159.7 102.4 159.5 102.2 159 102.2C158.6 102.2 158.2 102.3 157.8 102.4V101.7C158.3 101.6 158.7 101.5 159 101.5C160 101.5 160.5 101.9 160.5 102.6V104.9H160L159.7 104.6C159.4 104.8 159.1 104.9 158.7 104.9C157.9 105 157.5 104.6 157.5 103.9ZM158.9 103.5C158.5 103.5 158.3 103.6 158.3 103.9C158.3 104.2 158.5 104.4 158.8 104.4C159.1 104.4 159.3 104.3 159.6 104.1V103.6C159.4 103.5 159.2 103.5 158.9 103.5Z" fill="#7CA2CB"/>
<path d="M163.6 100.301V104.901H162.7V100.301H163.6Z" fill="#7CA2CB"/>
<path d="M164.2 103.9C164.2 103.2 164.7 102.9 165.7 102.9C165.9 102.9 166.2 102.9 166.4 103V102.7C166.4 102.4 166.2 102.2 165.7 102.2C165.3 102.2 164.9 102.3 164.5 102.4V101.7C165 101.6 165.4 101.5 165.7 101.5C166.7 101.5 167.2 101.9 167.2 102.6V104.9H166.7L166.4 104.6C166.1 104.8 165.8 104.9 165.4 104.9C164.7 105 164.2 104.6 164.2 103.9ZM165.7 103.5C165.3 103.5 165.1 103.6 165.1 103.9C165.1 104.2 165.3 104.4 165.6 104.4C165.9 104.4 166.1 104.3 166.4 104.1V103.6C166.2 103.5 166 103.5 165.7 103.5Z" fill="#7CA2CB"/>
<path d="M171 101.602C172 101.602 172.5 102.102 172.5 103.202C172.5 103.302 172.5 103.502 172.5 103.602H170.2C170.2 104.102 170.6 104.302 171.3 104.302C171.6 104.302 172 104.302 172.3 104.202V104.902C172 105.002 171.6 105.002 171.2 105.002C170 105.002 169.4 104.402 169.4 103.302C169.4 102.102 169.9 101.602 171 101.602ZM170.2 103.002H171.6C171.6 102.502 171.4 102.302 170.9 102.302C170.5 102.202 170.3 102.502 170.2 103.002Z" fill="#7CA2CB"/>
<path d="M173.1 105.002V101.602H173.8L173.9 102.102C174.2 101.802 174.6 101.602 175 101.602C175.4 101.602 175.7 101.802 175.9 102.102C176.2 101.802 176.6 101.602 177 101.602C177.8 101.602 178.2 102.002 178.2 102.902V105.002H177.3V102.902C177.3 102.502 177.1 102.302 176.8 102.302C176.5 102.302 176.3 102.402 176.1 102.602V105.002H175.2V102.902C175.2 102.502 175 102.302 174.7 102.302C174.4 102.302 174.2 102.402 174 102.602V105.002H173.1Z" fill="#7CA2CB"/>
<path d="M178.9 101.702C179.4 101.602 179.8 101.602 180.3 101.602C181.5 101.602 182 102.102 182 103.202C182 104.402 181.5 105.002 180.4 105.002C180.2 105.002 179.9 104.902 179.7 104.802V106.202H178.8V101.702H178.9ZM179.8 104.102C180 104.202 180.2 104.302 180.5 104.302C181 104.302 181.3 103.902 181.3 103.202C181.3 102.602 181 102.302 180.5 102.302C180.3 102.302 180.1 102.302 179.9 102.302V104.102H179.8Z" fill="#7CA2CB"/>
<path d="M182.7 105.002V101.602H183.4L183.5 102.002C183.8 101.702 184.1 101.602 184.4 101.602V102.302C184.1 102.302 183.8 102.402 183.5 102.702V105.002H182.7Z" fill="#7CA2CB"/>
<path d="M186.4 101.602C187.4 101.602 187.9 102.102 187.9 103.202C187.9 103.302 187.9 103.502 187.9 103.602H185.6C185.6 104.102 186 104.302 186.7 104.302C187 104.302 187.4 104.302 187.7 104.202V104.902C187.4 105.002 187 105.002 186.6 105.002C185.4 105.002 184.8 104.402 184.8 103.302C184.8 102.102 185.3 101.602 186.4 101.602ZM185.6 103.002H187C187 102.502 186.8 102.302 186.3 102.302C185.9 102.202 185.7 102.502 185.6 103.002Z" fill="#7CA2CB"/>
<path d="M188.6 104.8V104.1C189 104.3 189.4 104.3 189.9 104.3C190.3 104.3 190.5 104.2 190.5 103.9C190.5 103.7 190.4 103.6 190.1 103.6H189.5C188.8 103.6 188.5 103.3 188.5 102.6C188.5 101.9 189 101.5 190 101.5C190.4 101.5 190.8 101.6 191.2 101.7V102.4C190.8 102.2 190.4 102.2 190 102.2C189.5 102.2 189.3 102.3 189.3 102.6C189.3 102.8 189.4 102.9 189.7 102.9H190.2C191 102.9 191.3 103.2 191.3 103.9C191.3 104.6 190.8 105 189.9 105C189.4 105 188.9 104.9 188.6 104.8Z" fill="#7CA2CB"/>
<path d="M191.7 103.9C191.7 103.2 192.2 102.9 193.2 102.9C193.4 102.9 193.7 102.9 193.9 103V102.7C193.9 102.4 193.7 102.2 193.2 102.2C192.8 102.2 192.4 102.3 192 102.4V101.7C192.5 101.6 192.9 101.5 193.2 101.5C194.2 101.5 194.7 101.9 194.7 102.6V104.9H194.2L193.9 104.6C193.6 104.8 193.3 104.9 192.9 104.9C192.1 105 191.7 104.6 191.7 103.9ZM193.2 103.5C192.8 103.5 192.6 103.6 192.6 103.9C192.6 104.2 192.8 104.4 193.1 104.4C193.4 104.4 193.6 104.3 193.9 104.1V103.6C193.6 103.5 193.4 103.5 193.2 103.5Z" fill="#7CA2CB"/>
<path d="M200 106.202H199.1V104.802C198.9 104.902 198.6 105.002 198.3 105.002C197.3 105.002 196.8 104.402 196.8 103.302C196.8 102.202 197.4 101.602 198.6 101.602C199 101.602 199.5 101.602 200 101.702V106.202ZM199.2 102.302C199 102.202 198.8 102.202 198.6 102.202C198 102.202 197.7 102.502 197.7 103.202C197.7 103.902 198 104.202 198.5 104.202C198.8 104.202 199 104.102 199.2 104.002V102.302Z" fill="#7CA2CB"/>
<path d="M203.9 101.602V105.002H203.2L203.1 104.602C202.7 104.902 202.3 105.002 201.9 105.002C201.2 105.002 200.9 104.602 200.9 103.802V101.602H201.8V103.702C201.8 104.102 202 104.302 202.3 104.302C202.6 104.302 202.9 104.202 203.1 104.002V101.602H203.9Z" fill="#7CA2CB"/>
<path d="M206.1 101.602C207.1 101.602 207.6 102.102 207.6 103.202C207.6 103.302 207.6 103.502 207.6 103.602H205.3C205.3 104.102 205.7 104.302 206.4 104.302C206.7 104.302 207.1 104.302 207.4 104.202V104.902C207.1 105.002 206.7 105.002 206.3 105.002C205.1 105.002 204.5 104.402 204.5 103.302C204.5 102.102 205 101.602 206.1 101.602ZM205.4 103.002H206.8C206.8 102.502 206.6 102.302 206.1 102.302C205.7 102.202 205.4 102.502 205.4 103.002Z" fill="#7CA2CB"/>
<path d="M212.7 104.8C212.2 104.9 211.7 105 211.2 105C210.1 105 209.6 104.4 209.6 103.2C209.6 102.1 210.1 101.6 211.2 101.6C211.4 101.6 211.7 101.7 211.9 101.8V100.4H212.8V104.8H212.7ZM211.9 102.5C211.7 102.4 211.5 102.3 211.2 102.3C210.7 102.3 210.4 102.6 210.4 103.2C210.4 103.9 210.7 104.3 211.2 104.3C211.4 104.3 211.6 104.3 211.8 104.2V102.5H211.9Z" fill="#7CA2CB"/>
<path d="M215 101.602C216 101.602 216.5 102.102 216.5 103.202C216.5 103.302 216.5 103.502 216.5 103.602H214.2C214.2 104.102 214.6 104.302 215.3 104.302C215.6 104.302 216 104.302 216.3 104.202V104.902C216 105.002 215.6 105.002 215.2 105.002C214 105.002 213.4 104.402 213.4 103.302C213.4 102.102 213.9 101.602 215 101.602ZM214.2 103.002H215.6C215.6 102.502 215.4 102.302 214.9 102.302C214.5 102.202 214.3 102.502 214.2 103.002Z" fill="#7CA2CB"/>
<path d="M217.2 104.8V104.1C217.6 104.3 218 104.3 218.5 104.3C218.9 104.3 219.1 104.2 219.1 103.9C219.1 103.7 219 103.6 218.7 103.6H218C217.3 103.6 217 103.3 217 102.6C217 101.9 217.5 101.5 218.5 101.5C218.9 101.5 219.3 101.6 219.7 101.7V102.4C219.3 102.2 218.9 102.2 218.5 102.2C218 102.2 217.8 102.3 217.8 102.6C217.8 102.8 217.9 102.9 218.2 102.9H218.7C219.5 102.9 219.8 103.2 219.8 103.9C219.8 104.6 219.3 105 218.4 105C218 105 217.5 104.9 217.2 104.8Z" fill="#7CA2CB"/>
<path d="M221.9 101.602C222.9 101.602 223.4 102.102 223.4 103.202C223.4 103.302 223.4 103.502 223.4 103.602H221.1C221.1 104.102 221.5 104.302 222.2 104.302C222.5 104.302 222.9 104.302 223.2 104.202V104.902C222.9 105.002 222.5 105.002 222.1 105.002C220.9 105.002 220.3 104.402 220.3 103.302C220.3 102.102 220.9 101.602 221.9 101.602ZM221.2 103.002H222.6C222.6 102.502 222.4 102.302 221.9 102.302C221.5 102.202 221.2 102.502 221.2 103.002Z" fill="#7CA2CB"/>
<path d="M223.9 103.9C223.9 103.2 224.4 102.9 225.4 102.9C225.6 102.9 225.9 102.9 226.1 103V102.7C226.1 102.4 225.9 102.2 225.4 102.2C225 102.2 224.6 102.3 224.2 102.4V101.7C224.7 101.6 225.1 101.5 225.4 101.5C226.4 101.5 226.9 101.9 226.9 102.6V104.9H226.4L226.1 104.6C225.8 104.8 225.5 104.9 225.1 104.9C224.4 105 223.9 104.6 223.9 103.9ZM225.4 103.5C225 103.5 224.8 103.6 224.8 103.9C224.8 104.2 225 104.4 225.3 104.4C225.6 104.4 225.8 104.3 226.1 104.1V103.6C225.9 103.5 225.7 103.5 225.4 103.5Z" fill="#7CA2CB"/>
<path d="M227.8 104.8V104.1C228.2 104.3 228.6 104.3 229.1 104.3C229.5 104.3 229.7 104.2 229.7 103.9C229.7 103.7 229.6 103.6 229.3 103.6H228.7C228 103.6 227.7 103.3 227.7 102.6C227.7 101.9 228.2 101.5 229.2 101.5C229.6 101.5 230 101.6 230.4 101.7V102.4C230 102.2 229.6 102.2 229.2 102.2C228.7 102.2 228.5 102.3 228.5 102.6C228.5 102.8 228.6 102.9 228.9 102.9H229.4C230.2 102.9 230.5 103.2 230.5 103.9C230.5 104.6 230 105 229.1 105C228.6 105 228.1 104.9 227.8 104.8Z" fill="#7CA2CB"/>
<path d="M232.5 101.702C233 101.602 233.4 101.602 233.9 101.602C235.1 101.602 235.6 102.102 235.6 103.202C235.6 104.402 235.1 105.002 234 105.002C233.8 105.002 233.5 104.902 233.3 104.802V106.202H232.4V101.702H232.5ZM233.4 104.102C233.6 104.202 233.8 104.302 234.1 104.302C234.6 104.302 234.9 103.902 234.9 103.202C234.9 102.602 234.6 102.302 234.1 102.302C233.9 102.302 233.7 102.302 233.5 102.302V104.102H233.4Z" fill="#7CA2CB"/>
<path d="M236.2 103.9C236.2 103.2 236.7 102.9 237.7 102.9C237.9 102.9 238.2 102.9 238.4 103V102.7C238.4 102.4 238.2 102.2 237.7 102.2C237.3 102.2 236.9 102.3 236.5 102.4V101.7C237 101.6 237.4 101.5 237.7 101.5C238.7 101.5 239.2 101.9 239.2 102.6V104.9H238.7L238.4 104.6C238.1 104.8 237.8 104.9 237.4 104.9C236.6 105 236.2 104.6 236.2 103.9ZM237.6 103.5C237.2 103.5 237 103.6 237 103.9C237 104.2 237.2 104.4 237.5 104.4C237.8 104.4 238 104.3 238.3 104.1V103.6C238.1 103.5 237.9 103.5 237.6 103.5Z" fill="#7CA2CB"/>
<path d="M243 104.7C243 105.7 242.4 106.2 241.2 106.2C240.8 106.2 240.4 106.1 240.1 106V105.3C240.4 105.4 240.8 105.5 241.2 105.5C241.8 105.5 242.1 105.2 242.1 104.7C241.8 104.8 241.6 104.9 241.3 104.9C240.3 104.9 239.8 104.4 239.8 103.2C239.8 102.1 240.4 101.5 241.6 101.5C242 101.5 242.5 101.5 243 101.6V104.7ZM242.2 102.3C242.1 102.2 241.9 102.2 241.6 102.2C241 102.2 240.7 102.5 240.7 103.2C240.7 103.8 241 104.1 241.5 104.1C241.7 104.1 242 104 242.2 103.9V102.3Z" fill="#7CA2CB"/>
<path d="M243.7 103.9C243.7 103.2 244.2 102.9 245.2 102.9C245.4 102.9 245.7 102.9 245.9 103V102.7C245.9 102.4 245.7 102.2 245.2 102.2C244.8 102.2 244.4 102.3 244 102.4V101.7C244.5 101.6 244.9 101.5 245.2 101.5C246.2 101.5 246.7 101.9 246.7 102.6V104.9H246.2L245.9 104.6C245.6 104.8 245.3 104.9 244.9 104.9C244.1 105 243.7 104.6 243.7 103.9ZM245.1 103.5C244.7 103.5 244.5 103.6 244.5 103.9C244.5 104.2 244.7 104.4 245 104.4C245.3 104.4 245.5 104.3 245.8 104.1V103.6C245.6 103.5 245.4 103.5 245.1 103.5Z" fill="#7CA2CB"/>
<path d="M247.5 105.002V101.602H248.2L248.3 102.002C248.6 101.702 248.9 101.602 249.2 101.602V102.302C248.9 102.302 248.6 102.402 248.3 102.702V105.002H247.5Z" fill="#7CA2CB"/>
<path d="M270 54.7012H117.7V55.5012H270V54.7012Z" fill="#D7E4EF"/>
<path d="M104.1 70.0008V66.3008H105.6C106.8 66.3008 107.4 66.9008 107.4 68.1008C107.4 69.4008 106.8 70.1008 105.6 70.1008H104.1V70.0008ZM105.6 69.4008C106.4 69.4008 106.8 68.9008 106.8 68.0008C106.8 67.2008 106.4 66.8008 105.6 66.8008H104.8V69.3008H105.6V69.4008Z" fill="#929292"/>
<path d="M107.8 69.1008C107.8 68.6008 108.2 68.3008 109 68.3008C109.2 68.3008 109.4 68.3008 109.6 68.4008V68.2008C109.6 68.0008 109.4 67.8008 109.1 67.8008C108.8 67.8008 108.5 67.8008 108.1 67.9008V67.4008C108.5 67.3008 108.8 67.3008 109.1 67.3008C109.9 67.3008 110.3 67.6008 110.3 68.2008V70.0008H109.9L109.7 69.8008C109.5 70.0008 109.2 70.0008 108.9 70.0008C108.1 70.0008 107.8 69.7008 107.8 69.1008ZM109 68.8008C108.7 68.8008 108.5 68.9008 108.5 69.1008C108.5 69.3008 108.6 69.5008 108.9 69.5008C109.1 69.5008 109.3 69.4008 109.5 69.3008V68.9008C109.4 68.8008 109.2 68.8008 109 68.8008Z" fill="#929292"/>
<path d="M110.8 66.8008H111.3L111.4 67.2008H112.1V67.7008H111.5V69.0008C111.5 69.3008 111.6 69.4008 111.8 69.4008H112.1V70.0008H111.5C111 70.0008 110.8 69.8008 110.8 69.3008V66.8008Z" fill="#929292"/>
<path d="M112.5 68.6012C112.5 67.7012 112.9 67.2012 113.8 67.2012C114.7 67.2012 115.1 67.7012 115.1 68.6012C115.1 69.5012 114.7 70.0012 113.8 70.0012C112.9 70.0012 112.5 69.5012 112.5 68.6012ZM113.8 69.5012C114.2 69.5012 114.5 69.2012 114.5 68.6012C114.5 68.0012 114.3 67.8012 113.8 67.8012C113.4 67.8012 113.1 68.1012 113.1 68.6012C113.2 69.2012 113.4 69.5012 113.8 69.5012Z" fill="#929292"/>
<path d="M115.7 69.8016V69.2016C116 69.3016 116.4 69.4016 116.7 69.4016C117 69.4016 117.1 69.3016 117.1 69.1016C117.1 68.9016 117 68.8016 116.8 68.8016H116.3C115.7 68.8016 115.5 68.5016 115.5 68.0016C115.5 67.4016 115.9 67.1016 116.7 67.1016C117 67.1016 117.4 67.2016 117.7 67.3016V68.0016C117.4 67.9016 117.1 67.8016 116.7 67.8016C116.3 67.8016 116.1 67.9016 116.1 68.1016C116.1 68.3016 116.2 68.4016 116.4 68.4016H116.8C117.4 68.4016 117.7 68.7016 117.7 69.2016C117.7 69.8016 117.3 70.1016 116.5 70.1016C116.3 70.0016 116 70.0016 115.7 69.8016Z" fill="#929292"/>
<path d="M187.8 70.0008V66.3008H189.5C190.3 66.3008 190.6 66.6008 190.6 67.3008C190.6 68.1008 190.1 68.5008 189 68.7008L188.9 68.1008C189.5 68.0008 189.8 67.7008 189.8 67.4008C189.8 67.1008 189.6 66.9008 189.3 66.9008H188.4V70.0008H187.8Z" fill="#929292"/>
<path d="M190.9 69.1008C190.9 68.6008 191.3 68.3008 192.1 68.3008C192.3 68.3008 192.5 68.3008 192.7 68.4008V68.2008C192.7 68.0008 192.5 67.8008 192.2 67.8008C191.9 67.8008 191.6 67.8008 191.2 67.9008V67.4008C191.6 67.3008 191.9 67.3008 192.2 67.3008C193 67.3008 193.4 67.6008 193.4 68.2008V70.0008H193L192.8 69.8008C192.6 70.0008 192.3 70.0008 192 70.0008C191.2 70.0008 190.9 69.7008 190.9 69.1008ZM192 68.8008C191.7 68.8008 191.5 68.9008 191.5 69.1008C191.5 69.3008 191.6 69.5008 191.9 69.5008C192.1 69.5008 192.3 69.4008 192.5 69.3008V68.9008C192.4 68.8008 192.2 68.8008 192 68.8008Z" fill="#929292"/>
<path d="M196.4 69.8004C196.4 70.6004 195.9 71.0004 195 71.0004C194.7 71.0004 194.4 71.0004 194.1 70.9004V70.4004C194.4 70.5004 194.7 70.5004 195 70.5004C195.5 70.5004 195.7 70.3004 195.7 69.9004C195.5 70.0004 195.3 70.0004 195 70.0004C194.2 70.0004 193.8 69.6004 193.8 68.7004C193.8 67.8004 194.3 67.4004 195.2 67.4004C195.5 67.4004 195.9 67.4004 196.3 67.5004V69.8004H196.4ZM195.7 67.9004C195.6 67.9004 195.4 67.8004 195.2 67.8004C194.7 67.8004 194.5 68.1004 194.5 68.6004C194.5 69.1004 194.7 69.4004 195.1 69.4004C195.3 69.4004 195.5 69.4004 195.7 69.3004V67.9004Z" fill="#929292"/>
<path d="M196.9 68.6012C196.9 67.7012 197.3 67.2012 198.2 67.2012C199.1 67.2012 199.5 67.7012 199.5 68.6012C199.5 69.5012 199.1 70.0012 198.2 70.0012C197.3 70.0012 196.9 69.5012 196.9 68.6012ZM198.2 69.5012C198.6 69.5012 198.9 69.2012 198.9 68.6012C198.9 68.0012 198.7 67.8012 198.2 67.8012C197.8 67.8012 197.5 68.1012 197.5 68.6012C197.6 69.2012 197.8 69.5012 198.2 69.5012Z" fill="#929292"/>
<path d="M193.6 61.5004C197.356 61.5004 200.4 58.4559 200.4 54.7004C200.4 50.9449 197.356 47.9004 193.6 47.9004C189.845 47.9004 186.8 50.9449 186.8 54.7004C186.8 58.4559 189.845 61.5004 193.6 61.5004Z" fill="white" stroke="#D2E3F2" stroke-width="0.8849" stroke-miterlimit="10"/>
<path d="M265.9 70.0008V66.3008H267.6C268.4 66.3008 268.7 66.6008 268.7 67.3008C268.7 67.7008 268.4 68.1008 267.8 68.4008L269 70.0008H268.1L267 68.4008V68.1008C267.7 68.0008 268 67.7008 268 67.3008C268 67.0008 267.8 66.9008 267.5 66.9008H266.6V70.0008H265.9Z" fill="#929292"/>
<path d="M270.4 67.3008C271.2 67.3008 271.6 67.7008 271.6 68.6008C271.6 68.7008 271.6 68.8008 271.6 68.9008H269.8C269.8 69.3008 270.1 69.5008 270.6 69.5008C270.9 69.5008 271.1 69.5008 271.4 69.4008V69.9008C271.2 70.0008 270.9 70.0008 270.5 70.0008C269.5 70.0008 269 69.5008 269 68.6008C269.1 67.7008 269.6 67.3008 270.4 67.3008ZM269.8 68.4008H271C271 68.0008 270.8 67.8008 270.4 67.8008C270 67.8008 269.8 68.0008 269.8 68.4008Z" fill="#929292"/>
<path d="M272.2 69.8016V69.2016C272.5 69.3016 272.9 69.4016 273.2 69.4016C273.5 69.4016 273.6 69.3016 273.6 69.1016C273.6 68.9016 273.5 68.8016 273.3 68.8016H272.8C272.2 68.8016 272 68.5016 272 68.0016C272 67.4016 272.4 67.1016 273.2 67.1016C273.5 67.1016 273.9 67.2016 274.2 67.3016V68.0016C273.9 67.9016 273.6 67.8016 273.2 67.8016C272.8 67.8016 272.6 67.9016 272.6 68.1016C272.6 68.3016 272.7 68.4016 272.9 68.4016H273.3C273.9 68.4016 274.2 68.7016 274.2 69.2016C274.2 69.8016 273.8 70.1016 273 70.1016C272.8 70.0016 272.5 70.0016 272.2 69.8016Z" fill="#929292"/>
<path d="M277.3 67.3008V70.0008H276.8L276.7 69.7008C276.4 69.9008 276.1 70.0008 275.7 70.0008C275.1 70.0008 274.9 69.7008 274.9 69.0008V67.3008H275.6V69.0008C275.6 69.3008 275.7 69.5008 276 69.5008C276.2 69.5008 276.4 69.4008 276.7 69.2008V67.3008H277.3Z" fill="#929292"/>
<path d="M277.9 70.0008V67.3008H278.4L278.5 67.7008C278.7 67.4008 279 67.3008 279.4 67.3008C279.8 67.3008 280 67.4008 280.1 67.7008C280.4 67.5008 280.7 67.3008 281 67.3008C281.6 67.3008 281.9 67.6008 281.9 68.3008V70.0008H281.2V68.3008C281.2 68.0008 281.1 67.8008 280.8 67.8008C280.6 67.8008 280.4 67.9008 280.2 68.1008V70.0008H279.5V68.3008C279.5 68.0008 279.4 67.8008 279.1 67.8008C278.9 67.8008 278.7 67.9008 278.5 68.1008V70.0008H277.9Z" fill="#929292"/>
<path d="M283.7 67.3008C284.5 67.3008 284.9 67.7008 284.9 68.6008C284.9 68.7008 284.9 68.8008 284.9 68.9008H283.1C283.1 69.3008 283.4 69.5008 283.9 69.5008C284.2 69.5008 284.4 69.5008 284.7 69.4008V69.9008C284.5 70.0008 284.2 70.0008 283.8 70.0008C282.8 70.0008 282.3 69.5008 282.3 68.6008C282.4 67.7008 282.9 67.3008 283.7 67.3008ZM283.1 68.4008H284.3C284.3 68.0008 284.1 67.8008 283.7 67.8008C283.3 67.8008 283.1 68.0008 283.1 68.4008Z" fill="#929292"/>
<path d="M285.5 70.0008V67.3008H286L286.1 67.7008C286.4 67.4008 286.7 67.3008 287 67.3008C287.6 67.3008 288 67.6008 288 68.3008V70.0008H287.3V68.3008C287.3 68.0008 287.2 67.8008 286.9 67.8008C286.7 67.8008 286.5 67.9008 286.2 68.1008V70.0008H285.5Z" fill="#929292"/>
<path d="M276.9 61.5004C280.656 61.5004 283.7 58.4559 283.7 54.7004C283.7 50.9449 280.656 47.9004 276.9 47.9004C273.145 47.9004 270.1 50.9449 270.1 54.7004C270.1 58.4559 273.145 61.5004 276.9 61.5004Z" fill="white" stroke="#D2E3F2" stroke-width="0.8849" stroke-miterlimit="10"/>
<path d="M110.9 61.5004C114.656 61.5004 117.7 58.4559 117.7 54.7004C117.7 50.9449 114.656 47.9004 110.9 47.9004C107.145 47.9004 104.1 50.9449 104.1 54.7004C104.1 58.4559 107.145 61.5004 110.9 61.5004Z" fill="white" stroke="#0050B1" stroke-width="0.8849" stroke-miterlimit="10"/>
<path d="M191.8 57.3V56.6C193.5 55.4 194.4 54.4 194.4 53.7C194.4 53.2 194.1 52.9 193.5 52.9C193 52.9 192.5 53 192 53.3V52.4C192.5 52.2 193 52 193.5 52C194.8 52 195.4 52.5 195.4 53.5C195.4 54.4 194.7 55.3 193.3 56.4H195.4V57.2H191.8V57.3Z" fill="#D2E3F2"/>
<path d="M275.2 52.2996C275.7 52.1996 276.2 52.0996 276.7 52.0996C278 52.0996 278.6 52.5996 278.6 53.4996C278.6 54.0996 278.4 54.4996 277.9 54.6996C278.4 54.8996 278.6 55.2996 278.6 55.8996C278.6 56.8996 278 57.3996 276.7 57.3996C276.2 57.3996 275.7 57.2996 275.2 57.1996V56.2996C275.7 56.4996 276.2 56.5996 276.7 56.5996C277.4 56.5996 277.7 56.2996 277.7 55.7996C277.7 55.3996 277.5 55.0996 277 55.0996H275.7V54.2996H277C277.5 54.2996 277.7 54.0996 277.7 53.5996C277.7 53.0996 277.4 52.8996 276.7 52.8996C276.2 52.8996 275.7 52.9996 275.2 53.1996V52.2996Z" fill="#D2E3F2"/>
<path d="M110.5 57.3V52.9H110V52.5L111.5 52V57.3H110.5Z" fill="#0050B1"/>
<path d="M97.1998 116.699V117.499H94.6998V118.699H97.0998V119.499H94.6998V120.799H97.1998V121.599H93.7998V116.699H97.1998Z" fill="#0050B1"/>
<path d="M98.0996 121.7V118H98.7996L98.8996 118.5C99.1996 118.1 99.5996 118 100.1 118C100.6 118 100.9 118.2 101 118.5C101.4 118.2 101.8 118 102.2 118C103 118 103.5 118.5 103.5 119.4V121.7H102.6V119.4C102.6 119 102.4 118.8 102.1 118.8C101.8 118.8 101.6 118.9 101.3 119.2V121.7H100.4V119.4C100.4 119 100.2 118.8 99.8996 118.8C99.5996 118.8 99.3996 118.9 99.0996 119.2V121.7H98.0996Z" fill="#0050B1"/>
<path d="M104.3 118.2C104.8 118.1 105.3 118.1 105.8 118.1C107 118.1 107.6 118.7 107.6 119.8C107.6 121.1 107 121.7 105.9 121.7C105.7 121.7 105.4 121.6 105.2 121.5V123H104.3V118.2ZM105.2 120.7C105.4 120.8 105.7 120.9 105.9 120.9C106.4 120.9 106.7 120.5 106.7 119.7C106.7 119 106.4 118.7 105.8 118.7C105.5 118.7 105.3 118.7 105.1 118.7V120.7H105.2Z" fill="#0050B1"/>
<path d="M108.3 121.7V118H109L109.1 118.5C109.4 118.2 109.8 118 110.1 118V118.7C109.8 118.7 109.5 118.8 109.2 119.1V121.6H108.3V121.7Z" fill="#0050B1"/>
<path d="M112.2 118C113.3 118 113.9 118.6 113.9 119.7C113.9 119.8 113.9 120 113.9 120.1H111.5C111.5 120.6 111.9 120.9 112.6 120.9C113 120.9 113.3 120.9 113.7 120.8V121.5C113.4 121.6 113 121.6 112.5 121.6C111.2 121.6 110.5 121 110.5 119.7C110.5 118.6 111.1 118 112.2 118ZM111.4 119.5H112.9C112.9 119 112.6 118.7 112.1 118.7C111.7 118.7 111.5 119 111.4 119.5Z" fill="#0050B1"/>
<path d="M114.6 121.498V120.698C115 120.898 115.5 120.898 116 120.898C116.4 120.898 116.6 120.798 116.6 120.498C116.6 120.298 116.5 120.098 116.2 120.098H115.5C114.8 120.098 114.4 119.698 114.4 118.998C114.4 118.198 114.9 117.898 116 117.898C116.5 117.898 116.9 117.998 117.3 118.098V118.898C116.9 118.698 116.5 118.698 116 118.698C115.5 118.698 115.3 118.798 115.3 119.098C115.3 119.298 115.4 119.498 115.7 119.498H116.3C117.1 119.498 117.5 119.898 117.5 120.598C117.5 121.398 117 121.698 116 121.698C115.4 121.698 115 121.598 114.6 121.498Z" fill="#0050B1"/>
<path d="M117.9 120.5C117.9 119.8 118.4 119.4 119.5 119.4C119.7 119.4 120 119.4 120.2 119.5V119.2C120.2 118.9 120 118.7 119.5 118.7C119.1 118.7 118.7 118.8 118.2 118.9V118.2C118.7 118.1 119.1 118 119.5 118C120.6 118 121.1 118.4 121.1 119.2V121.6H120.6L120.3 121.3C120 121.5 119.6 121.6 119.3 121.6C118.4 121.7 117.9 121.3 117.9 120.5ZM119.5 120.1C119.1 120.1 118.8 120.2 118.8 120.5C118.8 120.8 119 121 119.4 121C119.7 121 120 120.9 120.2 120.7V120.1C120 120.1 119.8 120.1 119.5 120.1Z" fill="#0050B1"/>
<path d="M94.3999 134.8H93.3999L95.5999 129.6H96.5999L98.8999 134.8H97.8999L97.2999 133.4H95.5999L95.8999 132.6H96.9999L96.1999 130.6L94.3999 134.8Z" fill="#929292"/>
<path d="M103.8 134.6C103.3 134.8 102.8 134.9 102.3 134.9C100.4 134.9 99.5 134 99.5 132.2C99.5 130.5 100.4 129.6 102.3 129.6C102.9 129.6 103.4 129.7 103.8 129.9V130.8C103.3 130.6 102.9 130.5 102.3 130.5C101 130.5 100.4 131.1 100.4 132.2C100.4 133.5 101 134.1 102.3 134.1C102.8 134.1 103.3 134 103.8 133.8V134.6Z" fill="#929292"/>
<path d="M105.2 134.8H104.2L106.4 129.6H107.4L109.7 134.8H108.7L108.1 133.4H106.4L106.7 132.6H107.8L107 130.6L105.2 134.8Z" fill="#929292"/>
<path d="M110.4 134.8V129.6H112.4C114.1 129.6 115 130.4 115 132.1C115 133.9 114.1 134.9 112.4 134.9H110.4V134.8ZM112.5 134C113.6 134 114.1 133.4 114.1 132.1C114.1 131 113.6 130.5 112.5 130.5H111.4V134.1H112.5V134Z" fill="#929292"/>
<path d="M119.5 129.6V130.4H116.9V131.7H119.4V132.6H116.9V134H119.6V134.8H116V129.6H119.5Z" fill="#929292"/>
<path d="M120.4 134.8V129.6H121.4L123.2 133.6L124.9 129.6H125.9V134.8H125V131.2L123.6 134.8H122.8L121.4 131.2V134.8H120.4Z" fill="#929292"/>
<path d="M128 129.6V134.8H127V129.6H128Z" fill="#929292"/>
<path d="M129.6 134.8H128.6L130.8 129.6H131.8L134.1 134.8H133.1L132.5 133.4H130.8L131.1 132.6H132.2L131.4 130.6L129.6 134.8Z" fill="#929292"/>
<path d="M134.7 134.6V133.7C135.2 133.9 135.8 134 136.5 134C137.3 134 137.7 133.7 137.7 133.2C137.7 132.8 137.5 132.6 137 132.6H136.2C135.1 132.6 134.6 132.1 134.6 131.1C134.6 130 135.4 129.5 136.9 129.5C137.5 129.5 138 129.6 138.6 129.8V130.7C138.1 130.5 137.5 130.4 136.9 130.4C136 130.4 135.6 130.7 135.6 131.2C135.6 131.6 135.8 131.8 136.2 131.8H137C138.1 131.8 138.7 132.3 138.7 133.3C138.7 134.4 138 134.9 136.5 134.9C135.8 134.8 135.2 134.8 134.7 134.6Z" fill="#929292"/>
<path d="M144.6 129.6V130.4H143.1V134.8H142.1V130.4H140.6V129.6H144.6Z" fill="#929292"/>
<path d="M145.1 134.8V129.6H147.5C148.6 129.6 149.1 130.1 149.1 131C149.1 131.6 148.7 132.2 147.9 132.6L149.6 134.9H148.4L146.8 132.6V132.2C147.7 132 148.2 131.7 148.2 131.1C148.2 130.7 148 130.5 147.5 130.5H146.2V134.9H145.1V134.8Z" fill="#929292"/>
<path d="M150.9 129.6V134.8H149.9V129.6H150.9Z" fill="#929292"/>
<path d="M153 129.6V134H155.1V134.8H152.1V129.6H153Z" fill="#929292"/>
<path d="M159.6 134.6C159.1 134.8 158.6 134.9 158.1 134.9C156.2 134.9 155.3 134 155.3 132.2C155.3 130.5 156.2 129.6 158.1 129.6C158.7 129.6 159.2 129.7 159.6 129.9V130.8C159.1 130.6 158.7 130.5 158.1 130.5C156.8 130.5 156.2 131.1 156.2 132.2C156.2 133.5 156.8 134.1 158.1 134.1C158.6 134.1 159.1 134 159.6 133.8V134.6Z" fill="#929292"/>
<path d="M164.1 129.6V130.4H161.5V131.7H164V132.6H161.5V134H164.2V134.8H160.6V129.6H164.1Z" fill="#929292"/>
<path d="M97.8001 157.3C97.4001 157.5 96.9001 157.5 96.3001 157.5C94.5001 157.5 93.6001 156.6 93.6001 154.9C93.6001 153.3 94.5001 152.5 96.3001 152.5C96.8001 152.5 97.3001 152.6 97.8001 152.7V153.5C97.4001 153.3 96.9001 153.2 96.4001 153.2C95.2001 153.2 94.6001 153.7 94.6001 154.8C94.6001 156 95.2001 156.6 96.4001 156.6C96.9001 156.6 97.4001 156.5 97.8001 156.3V157.3Z" fill="#0050B1"/>
<path d="M98.3999 156.401C98.3999 155.701 98.8999 155.301 99.9999 155.301C100.2 155.301 100.5 155.301 100.7 155.401V155.101C100.7 154.801 100.5 154.601 99.9999 154.601C99.5999 154.601 99.1999 154.701 98.6999 154.801V154.001C99.1999 153.901 99.5999 153.801 99.9999 153.801C101.1 153.801 101.6 154.201 101.6 155.001V157.401H101.1L100.8 157.101C100.5 157.301 100.1 157.401 99.7999 157.401C98.8999 157.501 98.3999 157.101 98.3999 156.401ZM99.9999 155.901C99.5999 155.901 99.2999 156.001 99.2999 156.301C99.2999 156.601 99.4999 156.801 99.8999 156.801C100.2 156.801 100.5 156.701 100.7 156.501V156.001C100.5 155.901 100.3 155.901 99.9999 155.901Z" fill="#0050B1"/>
<path d="M102.5 153.301H103.2L103.3 153.901H104.2V154.601H103.4V156.301C103.4 156.601 103.5 156.801 103.8 156.801H104.2V157.501H103.4C102.8 157.501 102.5 157.201 102.5 156.501V153.301Z" fill="#0050B1"/>
<path d="M106.3 153.9C107.4 153.9 108 154.5 108 155.6C108 155.7 108 155.9 108 156H105.6C105.6 156.5 106 156.8 106.7 156.8C107.1 156.8 107.4 156.8 107.8 156.7V157.4C107.5 157.5 107.1 157.5 106.6 157.5C105.3 157.5 104.6 156.9 104.6 155.6C104.6 154.5 105.2 153.9 106.3 153.9ZM105.5 155.4H107C107 154.9 106.7 154.6 106.2 154.6C105.9 154.6 105.6 154.8 105.5 155.4Z" fill="#0050B1"/>
<path d="M111.9 157.2C111.9 158.3 111.3 158.8 110 158.8C109.6 158.8 109.2 158.7 108.8 158.6V157.9C109.2 158 109.6 158.1 110 158.1C110.7 158.1 111 157.8 111 157.3C110.7 157.4 110.4 157.5 110.1 157.5C109 157.5 108.5 156.9 108.5 155.7C108.5 154.5 109.1 153.9 110.4 153.9C110.8 153.9 111.3 153.9 111.9 154V157.2ZM111 154.7C110.9 154.6 110.6 154.6 110.4 154.6C109.8 154.6 109.4 154.9 109.4 155.6C109.4 156.3 109.7 156.6 110.2 156.6C110.5 156.6 110.7 156.5 111 156.4V154.7Z" fill="#0050B1"/>
<path d="M112.6 155.7C112.6 154.5 113.2 153.9 114.4 153.9C115.6 153.9 116.2 154.5 116.2 155.7C116.2 156.9 115.6 157.5 114.4 157.5C113.2 157.5 112.6 156.9 112.6 155.7ZM114.4 156.8C115 156.8 115.3 156.4 115.3 155.7C115.3 155 115 154.6 114.4 154.6C113.8 154.6 113.5 155 113.5 155.7C113.5 156.4 113.8 156.8 114.4 156.8Z" fill="#0050B1"/>
<path d="M116.9 157.5V153.9H117.6L117.7 154.4C118 154.1 118.4 153.9 118.7 153.9V154.6C118.4 154.6 118.1 154.7 117.8 155V157.5H116.9Z" fill="#0050B1"/>
<path d="M119.7 152.6H120.8L120 153.5H119.2L119.7 152.6ZM120.2 153.9V157.5H119.3V153.9H120.2Z" fill="#0050B1"/>
<path d="M120.9 156.401C120.9 155.701 121.4 155.301 122.5 155.301C122.7 155.301 123 155.301 123.2 155.401V155.101C123.2 154.801 123 154.601 122.5 154.601C122.1 154.601 121.7 154.701 121.2 154.801V154.001C121.7 153.901 122.1 153.801 122.5 153.801C123.6 153.801 124.1 154.201 124.1 155.001V157.401H123.6L123.3 157.101C123 157.301 122.6 157.401 122.3 157.401C121.3 157.501 120.9 157.101 120.9 156.401ZM122.4 155.901C122 155.901 121.7 156.001 121.7 156.301C121.7 156.601 121.9 156.801 122.3 156.801C122.6 156.801 122.9 156.701 123.1 156.501V156.001C122.9 155.901 122.7 155.901 122.4 155.901Z" fill="#0050B1"/>
<path d="M98.0998 170.4C97.5998 170.6 97.0998 170.7 96.5998 170.7C94.6998 170.7 93.7998 169.8 93.7998 168C93.7998 166.3 94.6998 165.4 96.5998 165.4C97.1998 165.4 97.6998 165.5 98.0998 165.7V166.6C97.5998 166.4 97.1998 166.3 96.5998 166.3C95.2998 166.3 94.6998 166.9 94.6998 168C94.6998 169.3 95.2998 169.9 96.5998 169.9C97.0998 169.9 97.5998 169.8 98.0998 169.6V170.4Z" fill="#929292"/>
<path d="M102.6 165.4V166.2H100V167.5H102.5V168.4H100V169.8H102.7V170.6H99V165.4H102.6Z" fill="#929292"/>
<path d="M103.5 170.6V165.4H104.5L107.3 169.2V165.4H108.2V170.6H107.2L104.4 166.7V170.6H103.5Z" fill="#929292"/>
<path d="M112.7 165.4V166.2H111.2V170.6H110.2V166.2H108.7V165.4H112.7Z" fill="#929292"/>
<path d="M113.3 170.6V165.4H115.7C116.8 165.4 117.3 165.9 117.3 166.8C117.3 167.4 116.9 168 116.1 168.4L117.8 170.7H116.6L115 168.4V168C115.9 167.8 116.4 167.5 116.4 166.9C116.4 166.5 116.2 166.3 115.7 166.3H114.4V170.7H113.3V170.6Z" fill="#929292"/>
<path d="M117.9 168.001C117.9 166.201 118.8 165.301 120.5 165.301C122.2 165.301 123.1 166.201 123.1 168.001C123.1 169.801 122.2 170.601 120.5 170.601C118.9 170.701 118 169.801 117.9 168.001ZM120.5 169.801C121.6 169.801 122.1 169.201 122.1 168.001C122.1 166.801 121.6 166.201 120.5 166.201C119.4 166.201 118.9 166.801 118.9 168.001C118.9 169.201 119.5 169.801 120.5 169.801Z" fill="#929292"/>
<path d="M125.7 170.6V165.4H127.7C129.4 165.4 130.3 166.2 130.3 167.9C130.3 169.7 129.4 170.7 127.7 170.7H125.7V170.6ZM127.7 169.8C128.8 169.8 129.3 169.2 129.3 167.9C129.3 166.8 128.8 166.3 127.7 166.3H126.6V169.9H127.7V169.8Z" fill="#929292"/>
<path d="M134.8 165.4V166.2H132.2V167.5H134.7V168.4H132.2V169.8H134.9V170.6H131.3V165.4H134.8Z" fill="#929292"/>
<path d="M140.9 165.4V166.2H138.3V167.5H140.8V168.4H138.3V169.8H141V170.6H137.4V165.4H140.9Z" fill="#929292"/>
<path d="M141.8 170.401V169.501C142.3 169.701 142.9 169.801 143.6 169.801C144.4 169.801 144.8 169.501 144.8 169.001C144.8 168.601 144.6 168.401 144.1 168.401H143.3C142.2 168.401 141.7 167.901 141.7 166.901C141.7 165.801 142.5 165.301 144 165.301C144.6 165.301 145.1 165.401 145.7 165.601V166.501C145.2 166.301 144.6 166.201 144 166.201C143.1 166.201 142.7 166.501 142.7 167.001C142.7 167.401 142.9 167.601 143.3 167.601H144.1C145.2 167.601 145.8 168.101 145.8 169.101C145.8 170.201 145.1 170.701 143.6 170.701C142.9 170.701 142.3 170.601 141.8 170.401Z" fill="#929292"/>
<path d="M150 165.4V166.2H148.5V170.6H147.5V166.2H146V165.4H150Z" fill="#929292"/>
<path d="M150.5 168.6V165.4H151.5V168.6C151.5 169.4 151.9 169.9 152.8 169.9C153.7 169.9 154.1 169.5 154.1 168.6V165.4H155.1V168.6C155.1 170 154.3 170.7 152.8 170.7C151.3 170.7 150.5 170 150.5 168.6Z" fill="#929292"/>
<path d="M156.1 170.6V165.4H158.1C159.8 165.4 160.7 166.2 160.7 167.9C160.7 169.7 159.8 170.7 158.1 170.7H156.1V170.6ZM158.2 169.8C159.3 169.8 159.8 169.2 159.8 167.9C159.8 166.8 159.3 166.3 158.2 166.3H157.1V169.9H158.2V169.8Z" fill="#929292"/>
<path d="M162.6 165.4V170.6H161.6V165.4H162.6Z" fill="#929292"/>
<path d="M163.5 168.001C163.5 166.201 164.4 165.301 166.1 165.301C167.8 165.301 168.7 166.201 168.7 168.001C168.7 169.801 167.8 170.601 166.1 170.601C164.4 170.701 163.6 169.801 163.5 168.001ZM166.1 169.801C167.2 169.801 167.7 169.201 167.7 168.001C167.7 166.801 167.2 166.201 166.1 166.201C165 166.201 164.5 166.801 164.5 168.001C164.5 169.201 165 169.801 166.1 169.801Z" fill="#929292"/>
<path d="M169.5 170.401V169.501C170 169.701 170.6 169.801 171.3 169.801C172.1 169.801 172.5 169.501 172.5 169.001C172.5 168.601 172.3 168.401 171.8 168.401H171C169.9 168.401 169.4 167.901 169.4 166.901C169.4 165.801 170.2 165.301 171.7 165.301C172.3 165.301 172.8 165.401 173.4 165.601V166.501C172.9 166.301 172.3 166.201 171.7 166.201C170.8 166.201 170.4 166.501 170.4 167.001C170.4 167.401 170.6 167.601 171 167.601H171.8C172.9 167.601 173.5 168.101 173.5 169.101C173.5 170.201 172.8 170.701 171.3 170.701C170.7 170.701 170.1 170.601 169.5 170.401Z" fill="#929292"/>
<path d="M232.5 157.3V156.5C233 156.7 233.6 156.8 234.2 156.8C235 156.8 235.3 156.5 235.3 156C235.3 155.6 235.1 155.4 234.6 155.4H233.8C232.8 155.4 232.3 154.9 232.3 154C232.3 153 233 152.5 234.5 152.5C235.1 152.5 235.6 152.6 236.1 152.7V153.5C235.6 153.3 235.1 153.2 234.5 153.2C233.7 153.2 233.3 153.4 233.3 153.9C233.3 154.3 233.5 154.5 233.9 154.5H234.7C235.8 154.5 236.3 155 236.3 155.9C236.3 156.9 235.6 157.5 234.2 157.5C233.5 157.5 233 157.4 232.5 157.3Z" fill="#0050B1"/>
<path d="M238.4 153.9C239.5 153.9 240.1 154.5 240.1 155.6C240.1 155.7 240.1 155.9 240.1 156H237.7C237.7 156.5 238.1 156.8 238.8 156.8C239.2 156.8 239.5 156.8 239.9 156.7V157.4C239.6 157.5 239.2 157.5 238.7 157.5C237.4 157.5 236.7 156.9 236.7 155.6C236.7 154.5 237.3 153.9 238.4 153.9ZM237.7 155.4H239.2C239.2 154.9 238.9 154.6 238.4 154.6C238 154.6 237.7 154.8 237.7 155.4Z" fill="#0050B1"/>
<path d="M240.8 157.5V153.9H241.5L241.6 154.4C241.9 154.1 242.3 153.9 242.6 153.9V154.6C242.3 154.6 242 154.7 241.7 155V157.5H240.8Z" fill="#0050B1"/>
<path d="M242.7 153.9H243.7L244.6 156.4L245.5 153.9H246.5L245 157.5H244.1L242.7 153.9Z" fill="#0050B1"/>
<path d="M247.8 152.6V153.3H246.9V152.6H247.8ZM247.8 153.9V157.5H246.9V153.9H247.8Z" fill="#0050B1"/>
<path d="M251.3 157.4C251 157.5 250.7 157.5 250.4 157.5C249.1 157.5 248.5 156.9 248.5 155.6C248.5 154.4 249.1 153.9 250.4 153.9C250.7 153.9 251 153.9 251.3 154V154.7C251 154.6 250.7 154.6 250.4 154.6C249.7 154.6 249.3 154.9 249.3 155.6C249.3 156.4 249.7 156.8 250.4 156.8C250.7 156.8 251 156.8 251.3 156.7V157.4Z" fill="#0050B1"/>
<path d="M252.8 152.6V153.3H251.9V152.6H252.8ZM252.8 153.9V157.5H251.9V153.9H252.8Z" fill="#0050B1"/>
<path d="M253.5 155.7C253.5 154.5 254.1 153.9 255.3 153.9C256.5 153.9 257.1 154.5 257.1 155.7C257.1 156.9 256.5 157.5 255.3 157.5C254.1 157.5 253.5 156.9 253.5 155.7ZM255.3 156.8C255.9 156.8 256.2 156.4 256.2 155.7C256.2 155 255.9 154.6 255.3 154.6C254.7 154.6 254.4 155 254.4 155.7C254.5 156.4 254.7 156.8 255.3 156.8Z" fill="#0050B1"/>
<path d="M236.8 170.4C236.3 170.6 235.8 170.7 235.3 170.7C233.4 170.7 232.5 169.8 232.5 168C232.5 166.3 233.4 165.4 235.3 165.4C235.9 165.4 236.4 165.5 236.8 165.7V166.6C236.3 166.4 235.9 166.3 235.3 166.3C234 166.3 233.4 166.9 233.4 168C233.4 169.3 234 169.9 235.3 169.9C235.8 169.9 236.3 169.8 236.8 169.6V170.4Z" fill="#929292"/>
<path d="M237.7 168.6V165.4H238.7V168.6C238.7 169.4 239.1 169.9 240 169.9C240.9 169.9 241.3 169.5 241.3 168.6V165.4H242.3V168.6C242.3 170 241.5 170.7 240 170.7C238.5 170.7 237.7 170 237.7 168.6Z" fill="#929292"/>
<path d="M243.1 168.001C243.1 166.201 244 165.301 245.7 165.301C247.4 165.301 248.3 166.201 248.3 168.001C248.3 169.801 247.4 170.601 245.7 170.601C244.1 170.701 243.2 169.801 243.1 168.001ZM245.7 169.801C246.8 169.801 247.3 169.201 247.3 168.001C247.3 166.801 246.8 166.201 245.7 166.201C244.6 166.201 244.1 166.801 244.1 168.001C244.1 169.201 244.7 169.801 245.7 169.801Z" fill="#929292"/>
<path d="M252.7 165.4V166.2H251.2V170.6H250.2V166.2H248.7V165.4H252.7Z" fill="#929292"/>
<path d="M253.2 170.6H252.2L254.4 165.4H255.4L257.7 170.6H256.7L256.1 169.2H254.4L254.7 168.4H255.8L255 166.4L253.2 170.6Z" fill="#929292"/>
<path d="M97.8001 193.101C97.4001 193.301 96.9001 193.301 96.3001 193.301C94.5001 193.301 93.6001 192.401 93.6001 190.701C93.6001 189.101 94.5001 188.301 96.3001 188.301C96.8001 188.301 97.3001 188.401 97.8001 188.501V189.301C97.4001 189.101 96.9001 189.001 96.4001 189.001C95.2001 189.001 94.6001 189.501 94.6001 190.601C94.6001 191.801 95.2001 192.401 96.4001 192.401C96.9001 192.401 97.4001 192.301 97.8001 192.101V193.101Z" fill="#0050B1"/>
<path d="M98.3999 191.5C98.3999 190.3 98.9999 189.7 100.2 189.7C101.4 189.7 102 190.3 102 191.5C102 192.7 101.4 193.3 100.2 193.3C98.9999 193.3 98.3999 192.7 98.3999 191.5ZM100.2 192.6C100.8 192.6 101.1 192.2 101.1 191.5C101.1 190.8 100.8 190.4 100.2 190.4C99.5999 190.4 99.2999 190.8 99.2999 191.5C99.2999 192.3 99.5999 192.6 100.2 192.6ZM100.2 188.4H101.3L100.5 189.3H99.6999L100.2 188.4Z" fill="#0050B1"/>
<path d="M105.9 193.1C105.3 193.2 104.8 193.3 104.3 193.3C103.1 193.3 102.5 192.7 102.5 191.4C102.5 190.2 103.1 189.7 104.2 189.7C104.4 189.7 104.7 189.8 105 189.9V188.4H105.9V193.1ZM105 190.6C104.8 190.5 104.6 190.4 104.3 190.4C103.7 190.4 103.4 190.7 103.4 191.4C103.4 192.2 103.7 192.5 104.3 192.5C104.5 192.5 104.8 192.5 105 192.4V190.6Z" fill="#0050B1"/>
<path d="M107.7 188.4V189.1H106.8V188.4H107.7ZM107.7 189.7V193.3H106.8V189.7H107.7Z" fill="#0050B1"/>
<path d="M111.8 193.101C111.8 194.201 111.2 194.701 109.9 194.701C109.5 194.701 109.1 194.601 108.7 194.501V193.801C109.1 193.901 109.5 194.001 109.9 194.001C110.6 194.001 110.9 193.701 110.9 193.201C110.6 193.301 110.3 193.401 110 193.401C108.9 193.401 108.4 192.801 108.4 191.601C108.4 190.401 109 189.801 110.3 189.801C110.7 189.801 111.2 189.801 111.8 189.901V193.101ZM110.9 190.501C110.7 190.401 110.5 190.401 110.3 190.401C109.7 190.401 109.3 190.701 109.3 191.401C109.3 192.101 109.6 192.401 110.1 192.401C110.4 192.401 110.6 192.301 110.9 192.201V190.501Z" fill="#0050B1"/>
<path d="M112.5 191.501C112.5 190.301 113.1 189.701 114.3 189.701C115.5 189.701 116.1 190.301 116.1 191.501C116.1 192.701 115.5 193.301 114.3 193.301C113.1 193.301 112.5 192.701 112.5 191.501ZM114.3 192.601C114.9 192.601 115.2 192.201 115.2 191.501C115.2 190.801 114.9 190.401 114.3 190.401C113.7 190.401 113.4 190.801 113.4 191.501C113.4 192.301 113.7 192.601 114.3 192.601Z" fill="#0050B1"/>
<path d="M121.5 193.1C120.9 193.2 120.4 193.3 119.9 193.3C118.7 193.3 118.1 192.7 118.1 191.4C118.1 190.2 118.7 189.7 119.8 189.7C120 189.7 120.3 189.8 120.6 189.9V188.4H121.5V193.1ZM120.6 190.6C120.4 190.5 120.2 190.4 119.9 190.4C119.3 190.4 119 190.7 119 191.4C119 192.2 119.3 192.5 119.9 192.5C120.1 192.5 120.4 192.5 120.6 192.4V190.6Z" fill="#0050B1"/>
<path d="M123.9 189.701C125 189.701 125.6 190.301 125.6 191.401C125.6 191.501 125.6 191.701 125.6 191.801H123.2C123.2 192.301 123.6 192.601 124.3 192.601C124.7 192.601 125 192.601 125.4 192.501V193.201C125.1 193.301 124.7 193.301 124.2 193.301C122.9 193.301 122.2 192.701 122.2 191.401C122.2 190.301 122.8 189.701 123.9 189.701ZM123.2 191.201H124.7C124.7 190.701 124.4 190.401 123.9 190.401C123.5 190.401 123.2 190.701 123.2 191.201Z" fill="#0050B1"/>
<path d="M127.2 188.4V193.3H126.3V188.4H127.2Z" fill="#0050B1"/>
<path d="M129.4 192.201C129.4 191.501 129.9 191.101 131 191.101C131.2 191.101 131.5 191.101 131.7 191.201V190.901C131.7 190.601 131.5 190.401 131 190.401C130.6 190.401 130.2 190.501 129.7 190.601V189.901C130.2 189.801 130.6 189.701 131 189.701C132.1 189.701 132.6 190.101 132.6 190.901V193.301H132.1L131.8 193.001C131.5 193.201 131.1 193.301 130.8 193.301C129.9 193.301 129.4 193.001 129.4 192.201ZM131 191.701C130.6 191.701 130.3 191.801 130.3 192.101C130.3 192.401 130.5 192.601 130.9 192.601C131.2 192.601 131.5 192.501 131.7 192.301V191.701C131.5 191.801 131.3 191.701 131 191.701Z" fill="#0050B1"/>
<path d="M134.5 188.4V193.3H133.6V188.4H134.5Z" fill="#0050B1"/>
<path d="M138.6 189.701V193.301H137.9L137.8 192.801C137.4 193.101 136.9 193.301 136.5 193.301C135.8 193.301 135.4 192.901 135.4 192.001V189.701H136.3V192.001C136.3 192.401 136.5 192.601 136.8 192.601C137.1 192.601 137.4 192.501 137.7 192.201V189.701H138.6Z" fill="#0050B1"/>
<path d="M139.4 193.301V189.701H140.1L140.2 190.201C140.5 189.801 140.9 189.701 141.4 189.701C141.9 189.701 142.2 189.901 142.3 190.201C142.7 189.901 143.1 189.701 143.5 189.701C144.3 189.701 144.8 190.201 144.8 191.101V193.401H143.9V191.001C143.9 190.601 143.7 190.401 143.4 190.401C143.1 190.401 142.9 190.501 142.6 190.801V193.301H141.7V191.001C141.7 190.601 141.5 190.401 141.2 190.401C140.9 190.401 140.7 190.501 140.4 190.801V193.301H139.4Z" fill="#0050B1"/>
<path d="M145.7 193.301V189.701H146.4L146.5 190.201C146.8 189.801 147.2 189.701 147.7 189.701C148.6 189.701 149 190.101 149 191.001V193.301H148V191.001C148 190.601 147.8 190.401 147.4 190.401C147.1 190.401 146.8 190.501 146.5 190.801V193.301H145.7Z" fill="#0050B1"/>
<path d="M149.6 191.501C149.6 190.301 150.2 189.701 151.4 189.701C152.6 189.701 153.2 190.301 153.2 191.501C153.2 192.701 152.6 193.301 151.4 193.301C150.2 193.301 149.6 192.701 149.6 191.501ZM151.4 192.601C152 192.601 152.3 192.201 152.3 191.501C152.3 190.801 152 190.401 151.4 190.401C150.8 190.401 150.5 190.801 150.5 191.501C150.6 192.301 150.9 192.601 151.4 192.601Z" fill="#0050B1"/>
<path d="M93.7002 201.199H97.4002V201.999L95.1002 206.499H94.0002L96.4002 202.099H93.7002V201.199Z" fill="#929292"/>
<path d="M98.5 206.5V202H98V201.6L99.5 201.1V206.4H98.5V206.5Z" fill="#929292"/>
<path d="M100.5 201.199H104.2V201.999L101.9 206.499H100.8L103.2 202.099H100.5V201.199Z" fill="#929292"/>
<path d="M107.7 206.499H106.7V205.399H104.1V204.699L106.2 201.299H107.2L105.1 204.599H106.6V202.899H107.6V204.599L108.1 205.099V205.399H107.6V206.499H107.7Z" fill="#929292"/>
<path d="M109.3 206.5V202H108.8V201.6L110.3 201.1V206.4H109.3V206.5Z" fill="#929292"/>
<path d="M111.5 201.199H114.6V201.999H112.3L112.2 203.299C112.3 203.199 112.5 203.199 112.8 203.199C114.1 203.199 114.8 203.699 114.8 204.799C114.8 205.899 114.1 206.499 112.8 206.499C112.3 206.499 111.8 206.399 111.3 206.299V205.499C111.8 205.699 112.3 205.799 112.8 205.799C113.5 205.799 113.8 205.499 113.8 204.899C113.8 204.299 113.5 204.099 112.8 204.099C112.3 204.099 111.7 204.199 111.3 204.299L111.5 201.199Z" fill="#929292"/>
<path d="M115.5 201.399C116 201.299 116.5 201.199 117 201.199C118.3 201.199 119 201.699 119 202.599C119 203.199 118.8 203.599 118.3 203.799C118.8 203.999 119 204.399 119 204.999C119 205.999 118.3 206.499 117 206.499C116.5 206.499 116 206.399 115.5 206.299V205.399C116 205.599 116.5 205.699 117 205.699C117.7 205.699 118 205.399 118 204.899C118 204.499 117.8 204.199 117.3 204.199H116V203.399H117.3C117.8 203.399 118 203.199 118 202.699C118 202.199 117.7 201.999 117 201.999C116.5 201.999 116 202.099 115.5 202.299V201.399Z" fill="#929292"/>
<path d="M119.5 203.899C119.5 202.099 120.3 201.199 121.8 201.199C123.3 201.199 124.1 202.099 124.1 203.899C124.1 205.699 123.3 206.499 121.8 206.499C120.3 206.499 119.5 205.599 119.5 203.899ZM121.9 205.699C122.8 205.699 123.2 205.099 123.2 203.899C123.2 202.699 122.8 202.099 121.9 202.099C121 202.099 120.6 202.699 120.6 203.899C120.5 205.099 121 205.699 121.9 205.699Z" fill="#929292"/>
<path d="M217.5 209H93.3999V209.8H217.5V209Z" fill="#7A99BE"/>
<path d="M160.5 180.9H84.2002V216H160.5V180.9Z" stroke="#FF4200" stroke-width="1.7698" stroke-miterlimit="10"/>
<path d="M258 252.9H208.3C205 252.9 202.3 250.2 202.3 246.9V244.6C202.3 241.3 205 238.6 208.3 238.6H258C261.3 238.6 264 241.3 264 244.6V246.9C264 250.2 261.3 252.9 258 252.9Z" fill="#FF7800"/>
<path d="M218.2 247.6C217.8 247.8 217.3 247.8 216.8 247.8C215.1 247.8 214.3 247 214.3 245.3C214.3 243.8 215.1 243 216.8 243C217.3 243 217.8 243.1 218.2 243.2V244C217.8 243.8 217.4 243.7 216.9 243.7C215.8 243.7 215.2 244.2 215.2 245.3C215.2 246.4 215.8 247 216.9 247C217.4 247 217.8 246.9 218.2 246.7V247.6Z" fill="white"/>
<path d="M218.8 246.1C218.8 244.9 219.4 244.4 220.5 244.4C221.6 244.4 222.2 245 222.2 246.1C222.2 247.3 221.6 247.8 220.5 247.8C219.4 247.8 218.8 247.3 218.8 246.1ZM220.5 247.2C221.1 247.2 221.3 246.8 221.3 246.1C221.3 245.4 221 245 220.5 245C219.9 245 219.7 245.4 219.7 246.1C219.7 246.8 220 247.2 220.5 247.2Z" fill="white"/>
<path d="M222.9 247.801V244.301H223.6L223.7 244.801C224 244.501 224.4 244.301 224.8 244.301C225.6 244.301 226 244.701 226 245.601V247.801H225.1V245.601C225.1 245.201 224.9 245.001 224.5 245.001C224.2 245.001 223.9 245.101 223.7 245.301V247.701H222.9V247.801Z" fill="white"/>
<path d="M226.8 243.801H227.4L227.5 244.401H228.4V245.101H227.6V246.701C227.6 247.001 227.7 247.201 228 247.201H228.4V247.901H227.6C227 247.901 226.7 247.601 226.7 247.001V243.801H226.8Z" fill="white"/>
<path d="M229.9 243.1V243.8H229V243.1H229.9ZM229.9 244.4V247.9H229V244.4H229.9Z" fill="white"/>
<path d="M230.7 247.801V244.301H231.4L231.5 244.801C231.8 244.501 232.2 244.301 232.6 244.301C233.4 244.301 233.8 244.701 233.8 245.601V247.801H233V245.601C233 245.201 232.8 245.001 232.4 245.001C232.1 245.001 231.8 245.101 231.6 245.301V247.701H230.7V247.801Z" fill="white"/>
<path d="M237.8 244.4V247.9H237.1L237 247.5C236.6 247.8 236.2 247.9 235.7 247.9C235 247.9 234.6 247.5 234.6 246.6V244.4H235.5V246.6C235.5 247 235.7 247.2 236 247.2C236.3 247.2 236.6 247.1 236.9 246.9V244.5H237.8V244.4Z" fill="white"/>
<path d="M238.5 246.8C238.5 246.1 239 245.8 240 245.8C240.2 245.8 240.5 245.8 240.7 245.9V245.6C240.7 245.3 240.5 245.1 240 245.1C239.6 245.1 239.2 245.2 238.7 245.3V244.6C239.2 244.5 239.6 244.4 240 244.4C241 244.4 241.5 244.8 241.5 245.5V247.8H241L240.7 247.5C240.4 247.7 240.1 247.8 239.7 247.8C238.9 247.8 238.5 247.5 238.5 246.8ZM240 246.3C239.6 246.3 239.4 246.4 239.4 246.7C239.4 247 239.6 247.2 239.9 247.2C240.2 247.2 240.5 247.1 240.7 246.9V246.3C240.4 246.3 240.2 246.3 240 246.3Z" fill="white"/>
<path d="M242.3 247.801V244.301H243L243.1 244.701C243.4 244.401 243.7 244.301 244.1 244.301V245.001C243.8 245.001 243.5 245.101 243.2 245.401V247.701H242.3V247.801Z" fill="white"/>
<path d="M247 246.399H250.8L249.6 247.599C249.5 247.699 249.5 247.699 249.5 247.799C249.5 247.899 249.5 247.999 249.6 247.999L249.8 248.199C249.9 248.299 249.9 248.299 250 248.299C250.1 248.299 250.2 248.299 250.2 248.199L252.2 246.199C252.3 246.099 252.3 246.099 252.3 245.999C252.3 245.899 252.3 245.799 252.2 245.799L250.2 243.799C250.1 243.699 250.1 243.699 250 243.699C249.9 243.699 249.8 243.699 249.8 243.799L249.6 243.999C249.5 244.099 249.5 244.099 249.5 244.199C249.5 244.299 249.5 244.399 249.6 244.399L250.8 245.599H247C246.8 245.599 246.7 245.699 246.7 245.899V246.199C246.7 246.199 246.8 246.399 247 246.399Z" fill="white"/>
<path d="M183.7 252.9H134C130.7 252.9 128 250.2 128 246.9V244.6C128 241.3 130.7 238.6 134 238.6H183.7C187 238.6 189.7 241.3 189.7 244.6V246.9C189.7 250.2 187 252.9 183.7 252.9Z" stroke="#FF7800" stroke-width="0.8849" stroke-miterlimit="10"/>
<path d="M158.3 243.1L156.2 247.8H155.3L153.3 243.1H154.3L155.8 246.7L157.3 243.1H158.3Z" fill="#FF7800"/>
<path d="M158.1 246.1C158.1 244.9 158.7 244.4 159.8 244.4C160.9 244.4 161.5 245 161.5 246.1C161.5 247.3 160.9 247.8 159.8 247.8C158.7 247.8 158.1 247.3 158.1 246.1ZM159.8 247.2C160.4 247.2 160.6 246.8 160.6 246.1C160.6 245.4 160.3 245 159.8 245C159.2 245 159 245.4 159 246.1C159 246.8 159.3 247.2 159.8 247.2Z" fill="#FF7800"/>
<path d="M163.1 243.1V247.8H162.2V243.1H163.1Z" fill="#FF7800"/>
<path d="M163.5 244.4H164.4L165.2 246.8L166.1 244.4H167L165.6 247.9H164.8L163.5 244.4Z" fill="#FF7800"/>
<path d="M168.9 244.4C169.9 244.4 170.5 244.9 170.5 246C170.5 246.1 170.5 246.3 170.5 246.4H168.2C168.2 246.9 168.6 247.1 169.3 247.1C169.6 247.1 170 247.1 170.3 247V247.7C170 247.8 169.6 247.8 169.2 247.8C167.9 247.8 167.3 247.2 167.3 246C167.3 244.9 167.8 244.4 168.9 244.4ZM168.1 245.8H169.6C169.6 245.3 169.4 245.1 168.9 245.1C168.4 245.1 168.2 245.3 168.1 245.8Z" fill="#FF7800"/>
<path d="M171.1 247.799V244.299H171.8L171.9 244.699C172.2 244.399 172.5 244.299 172.9 244.299V244.999C172.6 244.999 172.3 245.099 172 245.399V247.699H171.1V247.799Z" fill="#FF7800"/>
<path d="M150.1 245.5H146.3L147.5 244.3C147.6 244.2 147.6 244.2 147.6 244.1C147.6 244 147.6 243.9 147.5 243.9L147.3 243.7C147.2 243.6 147.2 243.6 147.1 243.6C147 243.6 146.9 243.6 146.9 243.7L144.9 245.7C144.8 245.8 144.8 245.8 144.8 245.9C144.8 246 144.8 246.1 144.9 246.1L146.9 248.1C147 248.2 147 248.2 147.1 248.2C147.2 248.2 147.3 248.2 147.3 248.1L147.5 247.9C147.6 247.8 147.6 247.8 147.6 247.7C147.6 247.6 147.6 247.5 147.5 247.5L146.3 246.3H150.1C150.3 246.3 150.4 246.2 150.4 246V245.7C150.4 245.6 150.3 245.5 150.1 245.5Z" fill="#FF7800"/>
</svg>
