<svg width="392" height="263" viewBox="0 0 392 263" fill="none" xmlns="http://www.w3.org/2000/svg">
<g clip-path="url(#clip0)">
<path d="M392 0H0V262H392V0Z" fill="#F6F6F6"/>
<path d="M82.8 22.0008V13.3008H86.9C88.5 13.3008 89.4 14.0008 89.4 15.3008C89.4 16.3008 88.9 17.0008 87.8 17.4008C88.9 17.6008 89.5 18.3008 89.5 19.4008C89.5 21.1008 88.6 22.0008 86.8 22.0008H82.8ZM86.6 20.6008C87.3 20.6008 87.7 20.2008 87.7 19.5008C87.7 18.6008 87.2 18.1008 86.1 18.1008H85.6V17.1008C86.9 16.9008 87.6 16.3008 87.6 15.4008C87.6 14.9008 87.3 14.7008 86.7 14.7008H84.3V20.6008H86.6Z" fill="#0050B1"/>
<path d="M90.3 20.0012C90.3 18.7012 91.2 18.1012 93.1 18.1012C93.5 18.1012 94 18.1012 94.4 18.2012V17.7012C94.4 17.1012 94 16.8012 93.2 16.8012C92.5 16.8012 91.7 16.9012 90.9 17.1012V16.0012C91.7 15.8012 92.5 15.7012 93.2 15.7012C95.1 15.7012 96 16.4012 96 17.8012V22.0012H95.1L94.5 21.4012C93.9 21.8012 93.3 22.0012 92.7 22.0012C91.1 22.0012 90.3 21.4012 90.3 20.0012ZM93.1 19.2012C92.3 19.2012 91.9 19.5012 91.9 20.0012C91.9 20.6012 92.2 20.8012 92.9 20.8012C93.4 20.8012 93.9 20.6012 94.4 20.3012V19.3012C94 19.3012 93.6 19.2012 93.1 19.2012Z" fill="#0050B1"/>
<path d="M97.5 22.0016V15.6016H98.7L98.9 16.5016C99.5 15.9016 100.2 15.6016 101 15.6016C102.5 15.6016 103.3 16.4016 103.3 18.0016V22.0016H101.7V18.0016C101.7 17.3016 101.3 16.9016 100.7 16.9016C100.2 16.9016 99.7 17.1016 99.2 17.5016V22.0016H97.5Z" fill="#0050B1"/>
<path d="M109.5 21.8016C109 21.9016 108.4 22.0016 107.9 22.0016C105.6 22.0016 104.5 20.9016 104.5 18.7016C104.5 16.7016 105.6 15.6016 107.9 15.6016C108.5 15.6016 109 15.7016 109.5 15.8016V17.1016C109 17.0016 108.5 16.9016 108 16.9016C106.7 16.9016 106.1 17.5016 106.1 18.7016C106.1 20.1016 106.7 20.7016 108 20.7016C108.5 20.7016 109 20.6016 109.5 20.5016V21.8016Z" fill="#0050B1"/>
<path d="M110.3 20.0012C110.3 18.7012 111.2 18.1012 113.1 18.1012C113.5 18.1012 114 18.1012 114.4 18.2012V17.7012C114.4 17.1012 114 16.8012 113.2 16.8012C112.5 16.8012 111.7 16.9012 110.9 17.1012V16.0012C111.7 15.8012 112.5 15.7012 113.2 15.7012C115.1 15.7012 116 16.4012 116 17.8012V22.0012H115L114.4 21.4012C113.8 21.8012 113.2 22.0012 112.6 22.0012C111.1 22.0012 110.3 21.4012 110.3 20.0012ZM113.1 19.2012C112.3 19.2012 111.9 19.5012 111.9 20.0012C111.9 20.6012 112.2 20.8012 112.9 20.8012C113.4 20.8012 113.9 20.6012 114.4 20.3012V19.3012C114 19.3012 113.5 19.2012 113.1 19.2012Z" fill="#0050B1"/>
<path d="M120.2 15.9016C121 15.7016 121.9 15.6016 122.9 15.6016C125.1 15.6016 126.1 16.6016 126.1 18.6016C126.1 20.8016 125.1 21.9016 123.1 21.9016C122.7 21.9016 122.2 21.8016 121.8 21.6016V24.2016H120.2V15.9016ZM121.8 20.4016C122.2 20.6016 122.6 20.7016 123.1 20.7016C124.1 20.7016 124.5 20.0016 124.5 18.7016C124.5 17.6016 124 17.0016 122.9 17.0016C122.4 17.0016 122.1 17.0016 121.8 17.1016V20.4016Z" fill="#0050B1"/>
<path d="M127 18.8016C127 16.7016 128.1 15.6016 130.2 15.6016C132.3 15.6016 133.4 16.7016 133.4 18.8016C133.4 20.9016 132.3 22.0016 130.2 22.0016C128.1 22.0016 127.1 21.0016 127 18.8016ZM130.2 20.8016C131.2 20.8016 131.7 20.1016 131.7 18.8016C131.7 17.5016 131.2 16.9016 130.2 16.9016C129.2 16.9016 128.7 17.5016 128.7 18.8016C128.6 20.1016 129.2 20.8016 130.2 20.8016Z" fill="#0050B1"/>
<path d="M134.6 22.0016V15.6016H135.8L136 16.4016C136.6 15.9016 137.1 15.6016 137.8 15.6016V17.0016C137.2 17.0016 136.7 17.2016 136.2 17.7016V22.0016H134.6Z" fill="#0050B1"/>
<path d="M143.2 13.4008V22.0008H141.6V13.3008H143.2V13.4008Z" fill="#0050B1"/>
<path d="M144.8 22.0016V15.6016H146L146.2 16.5016C146.8 15.9016 147.5 15.6016 148.3 15.6016C149.8 15.6016 150.6 16.4016 150.6 18.0016V22.0016H149V18.0016C149 17.3016 148.6 16.9016 148 16.9016C147.5 16.9016 147 17.1016 146.5 17.5016V22.0016H144.8Z" fill="#0050B1"/>
<path d="M152.1 14.6016H153.3L153.5 15.6016H155.1V16.9016H153.7V19.8016C153.7 20.4016 154 20.7016 154.5 20.7016H155.2V22.0016H153.8C152.7 22.0016 152.2 21.4016 152.2 20.3016V14.6016H152.1Z" fill="#0050B1"/>
<path d="M158.9 15.7012C160.8 15.7012 161.8 16.7012 161.8 18.7012C161.8 19.0012 161.8 19.2012 161.7 19.5012H157.5C157.5 20.4012 158.2 20.8012 159.5 20.8012C160.1 20.8012 160.8 20.7012 161.4 20.6012V21.9012C160.8 22.0012 160.2 22.1012 159.4 22.1012C157.1 22.1012 155.9 21.0012 155.9 18.8012C155.9 16.7012 156.9 15.7012 158.9 15.7012ZM157.5 18.3012H160.2C160.2 17.4012 159.8 17.0012 158.9 17.0012C158 16.9012 157.6 17.4012 157.5 18.3012Z" fill="#0050B1"/>
<path d="M163 22.0016V15.6016H164.2L164.4 16.4016C165 15.9016 165.5 15.6016 166.2 15.6016V17.0016C165.6 17.0016 165.1 17.2016 164.6 17.7016V22.0016H163Z" fill="#0050B1"/>
<path d="M167.1 22.0016V15.6016H168.3L168.5 16.5016C169.1 15.9016 169.8 15.6016 170.6 15.6016C172.1 15.6016 172.9 16.4016 172.9 18.0016V22.0016H171.3V18.0016C171.3 17.3016 170.9 16.9016 170.3 16.9016C169.8 16.9016 169.3 17.1016 168.8 17.5016V22.0016H167.1Z" fill="#0050B1"/>
<path d="M177.1 15.7012C179 15.7012 180 16.7012 180 18.7012C180 19.0012 180 19.2012 179.9 19.5012H175.7C175.7 20.4012 176.4 20.8012 177.7 20.8012C178.3 20.8012 179 20.7012 179.6 20.6012V21.9012C179 22.0012 178.4 22.1012 177.6 22.1012C175.3 22.1012 174.1 21.0012 174.1 18.8012C174.1 16.7012 175.1 15.7012 177.1 15.7012ZM175.7 18.3012H178.4C178.4 17.4012 178 17.0012 177.1 17.0012C176.2 16.9012 175.8 17.4012 175.7 18.3012Z" fill="#0050B1"/>
<path d="M181.1 14.6016H182.3L182.5 15.6016H184.1V16.9016H182.7V19.8016C182.7 20.4016 183 20.7016 183.5 20.7016H184.2V22.0016H182.8C181.7 22.0016 181.2 21.4016 181.2 20.3016V14.6016H181.1Z" fill="#0050B1"/>
<path d="M82.4 42.4004V37.4004H83.3L85.9 41.0004V37.4004H86.8V42.4004H85.9L83.3 38.7004V42.4004H82.4Z" fill="#0050B1"/>
<path d="M91 38.7004V42.3004H90.3L90.2 41.8004C89.8 42.1004 89.3 42.3004 88.9 42.3004C88.2 42.3004 87.8 41.9004 87.8 41.0004V38.7004H88.7V41.0004C88.7 41.4004 88.9 41.6004 89.2 41.6004C89.5 41.6004 89.8 41.5004 90.1 41.2004V38.7004H91ZM89.4 37.4004H90.5L89.7 38.3004H88.9L89.4 37.4004Z" fill="#0050B1"/>
<path d="M91.9 42.4008V38.8008H92.6L92.7 39.3008C93 38.9008 93.4 38.8008 93.9 38.8008C94.4 38.8008 94.7 39.0008 94.8 39.3008C95.2 39.0008 95.6 38.8008 96 38.8008C96.8 38.8008 97.3 39.3008 97.3 40.2008V42.5008H96.4V40.2008C96.4 39.8008 96.2 39.6008 95.9 39.6008C95.6 39.6008 95.4 39.7008 95.1 40.0008V42.5008H94.2V40.2008C94.2 39.8008 94 39.6008 93.7 39.6008C93.4 39.6008 93.2 39.7008 92.9 40.0008V42.5008H91.9V42.4008Z" fill="#0050B1"/>
<path d="M99.7 38.7012C100.8 38.7012 101.4 39.3012 101.4 40.4012C101.4 40.6012 101.4 40.7012 101.4 40.9012H99C99 41.4012 99.4 41.7012 100.1 41.7012C100.5 41.7012 100.8 41.7012 101.2 41.6012V42.3012C100.9 42.4012 100.5 42.4012 100 42.4012C98.7 42.4012 98 41.8012 98 40.5012C98 39.3012 98.5 38.7012 99.7 38.7012ZM98.9 40.2012H100.5C100.5 39.7012 100.2 39.4012 99.7 39.4012C99.2 39.4012 98.9 39.7012 98.9 40.2012Z" fill="#0050B1"/>
<path d="M102 42.4008V38.8008H102.7L102.8 39.3008C103.1 39.0008 103.5 38.8008 103.8 38.8008V39.5008C103.5 39.5008 103.2 39.6008 102.9 39.9008V42.4008H102Z" fill="#0050B1"/>
<path d="M104.2 40.5012C104.2 39.3012 104.8 38.7012 106 38.7012C107.2 38.7012 107.8 39.3012 107.8 40.5012C107.8 41.7012 107.2 42.3012 106 42.3012C104.8 42.4012 104.2 41.8012 104.2 40.5012ZM106 41.7012C106.6 41.7012 106.9 41.3012 106.9 40.6012C106.9 39.9012 106.6 39.5012 106 39.5012C105.4 39.5012 105.1 39.9012 105.1 40.6012C105.1 41.3012 105.4 41.7012 106 41.7012Z" fill="#0050B1"/>
<path d="M113.3 42.1004C112.7 42.2004 112.2 42.3004 111.7 42.3004C110.5 42.3004 109.9 41.7004 109.9 40.4004C109.9 39.2004 110.5 38.7004 111.6 38.7004C111.8 38.7004 112.1 38.8004 112.4 38.9004V37.4004H113.3V42.1004ZM112.4 39.7004C112.2 39.6004 112 39.5004 111.7 39.5004C111.1 39.5004 110.8 39.8004 110.8 40.5004C110.8 41.3004 111.1 41.6004 111.7 41.6004C111.9 41.6004 112.2 41.6004 112.4 41.5004V39.7004Z" fill="#0050B1"/>
<path d="M115.7 38.7012C116.8 38.7012 117.4 39.3012 117.4 40.4012C117.4 40.6012 117.4 40.7012 117.4 40.9012H115C115 41.4012 115.4 41.7012 116.1 41.7012C116.5 41.7012 116.8 41.7012 117.2 41.6012V42.3012C116.9 42.4012 116.5 42.4012 116 42.4012C114.7 42.4012 114 41.8012 114 40.5012C114 39.3012 114.5 38.7012 115.7 38.7012ZM114.9 40.2012H116.5C116.5 39.7012 116.2 39.4012 115.7 39.4012C115.2 39.4012 114.9 39.7012 114.9 40.2012Z" fill="#0050B1"/>
<path d="M119.5 38.0996H120.2L120.3 38.6996H121.2V39.3996H120.4V41.0996C120.4 41.3996 120.5 41.5996 120.8 41.5996H121.2V42.2996H120.4C119.8 42.2996 119.5 41.9996 119.5 41.2996V38.0996Z" fill="#0050B1"/>
<path d="M121.7 41.2012C121.7 40.5012 122.2 40.1012 123.3 40.1012C123.5 40.1012 123.8 40.1012 124 40.2012V39.9012C124 39.6012 123.8 39.4012 123.3 39.4012C122.9 39.4012 122.5 39.5012 122 39.6012V38.9012C122.5 38.8012 122.9 38.7012 123.3 38.7012C124.4 38.7012 124.9 39.1012 124.9 39.9012V42.3012H124.4L124.1 42.0012C123.8 42.2012 123.4 42.3012 123.1 42.3012C122.2 42.4012 121.7 42.0012 121.7 41.2012ZM123.3 40.8012C122.9 40.8012 122.6 41.0012 122.6 41.3012C122.6 41.6012 122.8 41.8012 123.2 41.8012C123.5 41.8012 123.8 41.7012 124 41.5012V40.9012C123.8 40.8012 123.6 40.8012 123.3 40.8012Z" fill="#0050B1"/>
<path d="M125.8 42.4008V38.8008H126.5L126.6 39.3008C126.9 39.0008 127.3 38.8008 127.6 38.8008V39.5008C127.3 39.5008 127 39.6008 126.7 39.9008V42.4008H125.8Z" fill="#0050B1"/>
<path d="M129.1 38.7004V42.1004C129.1 42.8004 128.9 43.4004 128.5 43.9004L127.8 43.4004C128.1 43.1004 128.2 42.7004 128.2 42.1004V38.7004H129.1ZM129.1 37.4004V38.1004H128.2V37.4004H129.1Z" fill="#0050B1"/>
<path d="M131.5 38.7012C132.6 38.7012 133.2 39.3012 133.2 40.4012C133.2 40.6012 133.2 40.7012 133.2 40.9012H130.8C130.8 41.4012 131.2 41.7012 131.9 41.7012C132.3 41.7012 132.6 41.7012 133 41.6012V42.3012C132.7 42.4012 132.3 42.4012 131.8 42.4012C130.5 42.4012 129.8 41.8012 129.8 40.5012C129.8 39.3012 130.4 38.7012 131.5 38.7012ZM130.7 40.2012H132.3C132.3 39.7012 132 39.4012 131.5 39.4012C131 39.4012 130.7 39.7012 130.7 40.2012Z" fill="#0050B1"/>
<path d="M133.8 38.0996H134.5L134.6 38.6996H135.5V39.3996H134.7V41.0996C134.7 41.3996 134.8 41.5996 135.1 41.5996H135.5V42.2996H134.7C134.1 42.2996 133.8 41.9996 133.8 41.2996V38.0996Z" fill="#0050B1"/>
<path d="M136 41.2012C136 40.5012 136.5 40.1012 137.6 40.1012C137.8 40.1012 138.1 40.1012 138.3 40.2012V39.9012C138.3 39.6012 138.1 39.4012 137.6 39.4012C137.2 39.4012 136.8 39.5012 136.3 39.6012V38.9012C136.8 38.8012 137.2 38.7012 137.6 38.7012C138.7 38.7012 139.2 39.1012 139.2 39.9012V42.3012H138.7L138.4 42.0012C138.1 42.2012 137.7 42.3012 137.4 42.3012C136.4 42.4012 136 42.0012 136 41.2012ZM137.5 40.8012C137.1 40.8012 136.8 41.0012 136.8 41.3012C136.8 41.6012 137 41.8012 137.4 41.8012C137.7 41.8012 138 41.7012 138.2 41.5012V40.9012C138.1 40.8012 137.8 40.8012 137.5 40.8012Z" fill="#0050B1"/>
<path d="M86.3 115.599C85.9 115.799 85.4 115.799 84.8 115.799C83 115.799 82.1 114.899 82.1 113.199C82.1 111.599 83 110.799 84.8 110.799C85.3 110.799 85.8 110.899 86.3 110.999V111.799C85.9 111.599 85.4 111.499 84.9 111.499C83.7 111.499 83.1 111.999 83.1 113.099C83.1 114.299 83.7 114.899 84.9 114.899C85.4 114.899 85.9 114.799 86.3 114.599V115.599Z" fill="#0050B1"/>
<path d="M88 110.898V115.898H87.1V110.898H88Z" fill="#0050B1"/>
<path d="M88.7 114.699C88.7 113.999 89.2 113.599 90.3 113.599C90.5 113.599 90.8 113.599 91 113.699V113.399C91 113.099 90.8 112.899 90.3 112.899C89.9 112.899 89.5 112.999 89 113.099V112.399C89.5 112.299 89.9 112.199 90.3 112.199C91.4 112.199 91.9 112.599 91.9 113.399V115.799H91.4L91.1 115.499C90.8 115.699 90.4 115.799 90.1 115.799C89.2 115.799 88.7 115.499 88.7 114.699ZM90.3 114.299C89.9 114.299 89.6 114.499 89.6 114.799C89.6 115.099 89.8 115.299 90.2 115.299C90.5 115.299 90.8 115.199 91 114.999V114.399C90.8 114.299 90.6 114.299 90.3 114.299Z" fill="#0050B1"/>
<path d="M92.4 112.199H93.4L94.3 114.699L95.2 112.199H96.2L94.7 115.799H93.8L92.4 112.199Z" fill="#0050B1"/>
<path d="M98.1 112.199C99.2 112.199 99.8 112.799 99.8 113.899C99.8 114.099 99.8 114.199 99.8 114.399H97.4C97.4 114.899 97.8 115.199 98.5 115.199C98.9 115.199 99.2 115.199 99.6 115.099V115.799C99.3 115.899 98.9 115.899 98.4 115.899C97.1 115.899 96.4 115.299 96.4 113.999C96.4 112.799 97 112.199 98.1 112.199ZM97.3 113.699H98.9C98.9 113.199 98.6 112.899 98.1 112.899C97.6 112.899 97.4 113.199 97.3 113.699Z" fill="#0050B1"/>
<path d="M105.2 115.598C104.6 115.698 104.1 115.798 103.6 115.798C102.4 115.798 101.8 115.198 101.8 113.898C101.8 112.698 102.4 112.198 103.5 112.198C103.7 112.198 104 112.298 104.3 112.398V110.898H105.2V115.598ZM104.3 113.198C104.1 113.098 103.9 112.998 103.6 112.998C103 112.998 102.7 113.298 102.7 113.998C102.7 114.798 103 115.098 103.6 115.098C103.8 115.098 104.1 115.098 104.3 114.998V113.198Z" fill="#0050B1"/>
<path d="M107.6 112.199C108.7 112.199 109.3 112.799 109.3 113.899C109.3 114.099 109.3 114.199 109.3 114.399H106.9C106.9 114.899 107.3 115.199 108 115.199C108.4 115.199 108.7 115.199 109.1 115.099V115.799C108.8 115.899 108.4 115.899 107.9 115.899C106.6 115.899 105.9 115.299 105.9 113.999C105.9 112.799 106.5 112.199 107.6 112.199ZM106.9 113.699H108.5C108.5 113.199 108.2 112.899 107.7 112.899C107.2 112.899 106.9 113.199 106.9 113.699Z" fill="#0050B1"/>
<path d="M112.6 110.898V115.898H111.7V110.898H112.6Z" fill="#0050B1"/>
<path d="M113.5 115.799V112.199H114.2L114.3 112.699C114.6 112.299 115 112.199 115.5 112.199C116.4 112.199 116.8 112.599 116.8 113.499V115.799H115.9V113.499C115.9 113.099 115.7 112.899 115.3 112.899C115 112.899 114.7 112.999 114.4 113.299V115.799H113.5Z" fill="#0050B1"/>
<path d="M117.6 111.6H118.3L118.4 112.2H119.3V112.9H118.5V114.6C118.5 114.9 118.6 115.1 118.9 115.1H119.3V115.8H118.5C117.9 115.8 117.6 115.5 117.6 114.8V111.6Z" fill="#0050B1"/>
<path d="M121.5 112.199C122.6 112.199 123.2 112.799 123.2 113.899C123.2 114.099 123.2 114.199 123.2 114.399H120.8C120.8 114.899 121.2 115.199 121.9 115.199C122.3 115.199 122.6 115.199 123 115.099V115.799C122.7 115.899 122.3 115.899 121.8 115.899C120.5 115.899 119.8 115.299 119.8 113.999C119.8 112.799 120.4 112.199 121.5 112.199ZM120.7 113.699H122.3C122.3 113.199 122 112.899 121.5 112.899C121 112.899 120.8 113.199 120.7 113.699Z" fill="#0050B1"/>
<path d="M123.9 115.799V112.199H124.6L124.7 112.699C125 112.399 125.4 112.199 125.7 112.199V112.899C125.4 112.899 125.1 112.999 124.8 113.299V115.799H123.9Z" fill="#0050B1"/>
<path d="M126.2 115.799V112.199H126.9L127 112.699C127.3 112.299 127.7 112.199 128.2 112.199C129.1 112.199 129.5 112.599 129.5 113.499V115.799H128.6V113.499C128.6 113.099 128.4 112.899 128 112.899C127.7 112.899 127.4 112.999 127.1 113.299V115.799H126.2Z" fill="#0050B1"/>
<path d="M131.9 112.199C133 112.199 133.6 112.799 133.6 113.899C133.6 114.099 133.6 114.199 133.6 114.399H131.2C131.2 114.899 131.6 115.199 132.3 115.199C132.7 115.199 133 115.199 133.4 115.099V115.799C133.1 115.899 132.7 115.899 132.2 115.899C130.9 115.899 130.2 115.299 130.2 113.999C130.2 112.799 130.8 112.199 131.9 112.199ZM131.2 113.699H132.8C132.8 113.199 132.5 112.899 132 112.899C131.5 112.899 131.2 113.199 131.2 113.699Z" fill="#0050B1"/>
<path d="M134.2 111.6H134.9L135 112.2H135.9V112.9H135.1V114.6C135.1 114.9 135.2 115.1 135.5 115.1H135.9V115.8H135.1C134.5 115.8 134.2 115.5 134.2 114.8V111.6Z" fill="#0050B1"/>
<path d="M141.4 115.598C140.8 115.698 140.3 115.798 139.8 115.798C138.6 115.798 138 115.198 138 113.898C138 112.698 138.6 112.198 139.7 112.198C139.9 112.198 140.2 112.298 140.5 112.398V110.898H141.4V115.598ZM140.5 113.198C140.3 113.098 140.1 112.998 139.8 112.998C139.2 112.998 138.9 113.298 138.9 113.998C138.9 114.798 139.2 115.098 139.8 115.098C140 115.098 140.3 115.098 140.5 114.998V113.198Z" fill="#0050B1"/>
<path d="M143.8 112.199C144.9 112.199 145.5 112.799 145.5 113.899C145.5 114.099 145.5 114.199 145.5 114.399H143C143 114.899 143.4 115.199 144.1 115.199C144.5 115.199 144.8 115.199 145.2 115.099V115.799C144.9 115.899 144.5 115.899 144 115.899C142.7 115.899 142 115.299 142 113.999C142.1 112.799 142.6 112.199 143.8 112.199ZM143 113.699H144.6C144.6 113.199 144.3 112.899 143.8 112.899C143.3 112.899 143 113.199 143 113.699Z" fill="#0050B1"/>
<path d="M147.6 113.899C147.6 112.599 148.4 111.499 150 110.699L150.4 111.399C149.6 111.799 149 112.199 148.7 112.699C149 112.599 149.3 112.599 149.6 112.599C150.8 112.599 151.4 113.099 151.4 114.099C151.4 115.199 150.7 115.799 149.4 115.799C148.2 115.899 147.6 115.199 147.6 113.899ZM149.5 115.199C150.2 115.199 150.5 114.899 150.5 114.199C150.5 113.699 150.2 113.399 149.6 113.399C149.2 113.399 148.9 113.499 148.6 113.599C148.6 113.699 148.5 113.799 148.5 113.999C148.5 114.699 148.8 115.199 149.5 115.199Z" fill="#0050B1"/>
<path d="M156.8 115.598C156.2 115.698 155.7 115.798 155.2 115.798C154 115.798 153.4 115.198 153.4 113.898C153.4 112.698 154 112.198 155.1 112.198C155.3 112.198 155.6 112.298 155.9 112.398V110.898H156.8V115.598ZM155.9 113.198C155.7 113.098 155.5 112.998 155.2 112.998C154.6 112.998 154.3 113.298 154.3 113.998C154.3 114.798 154.6 115.098 155.2 115.098C155.4 115.098 155.7 115.098 155.9 114.998V113.198Z" fill="#0050B1"/>
<path d="M158.1 110.898H159.2L158.4 111.798H157.6L158.1 110.898ZM158.6 112.198V115.798H157.7V112.198H158.6Z" fill="#0050B1"/>
<path d="M162.7 115.599C162.7 116.699 162.1 117.199 160.8 117.199C160.4 117.199 160 117.099 159.6 116.999V116.299C160 116.399 160.4 116.499 160.8 116.499C161.5 116.499 161.8 116.199 161.8 115.699C161.5 115.799 161.2 115.899 160.9 115.899C159.8 115.899 159.3 115.299 159.3 114.099C159.3 112.899 159.9 112.299 161.2 112.299C161.6 112.299 162.1 112.299 162.7 112.399V115.599ZM161.8 112.999C161.7 112.899 161.4 112.899 161.2 112.899C160.6 112.899 160.2 113.299 160.2 113.999C160.2 114.699 160.5 114.999 161 114.999C161.3 114.999 161.5 114.899 161.8 114.799V112.999Z" fill="#0050B1"/>
<path d="M164.5 110.898V111.598H163.6V110.898H164.5ZM164.5 112.198V115.798H163.6V112.198H164.5Z" fill="#0050B1"/>
<path d="M165.3 111.6H166L166.1 112.2H167V112.9H166.2V114.6C166.2 114.9 166.3 115.1 166.6 115.1H167V115.8H166.2C165.6 115.8 165.3 115.5 165.3 114.8V111.6Z" fill="#0050B1"/>
<path d="M167.5 113.999C167.5 112.799 168.1 112.199 169.3 112.199C170.5 112.199 171.1 112.799 171.1 113.999C171.1 115.199 170.5 115.799 169.3 115.799C168.1 115.899 167.5 115.199 167.5 113.999ZM169.3 115.199C169.9 115.199 170.2 114.799 170.2 114.099C170.2 113.399 169.9 112.999 169.3 112.999C168.7 112.999 168.4 113.399 168.4 114.099C168.4 114.799 168.7 115.199 169.3 115.199Z" fill="#0050B1"/>
<path d="M171.8 115.7V114.9C172.2 115.1 172.7 115.1 173.2 115.1C173.6 115.1 173.8 115 173.8 114.7C173.8 114.5 173.7 114.3 173.4 114.3H172.7C172 114.3 171.6 113.9 171.6 113.2C171.6 112.4 172.1 112.1 173.2 112.1C173.7 112.1 174.1 112.2 174.5 112.3V113.1C174.1 112.9 173.7 112.9 173.2 112.9C172.7 112.9 172.5 113 172.5 113.3C172.5 113.5 172.6 113.7 172.9 113.7H173.5C174.3 113.7 174.7 114.1 174.7 114.8C174.7 115.6 174.2 115.9 173.2 115.9C172.6 115.9 172.2 115.8 171.8 115.7Z" fill="#0050B1"/>
<path d="M165.8 156.699V162.999H164.9V156.699H165.8Z" fill="#CCCCCE"/>
<path d="M89.8 183H88.9L91 178H92L94.1 183H93.1L92.5 181.6H90.9L91.2 180.8H92.2L91.4 178.9L89.8 183Z" fill="#0050B1"/>
<path d="M94.2 179.301H95.2L96.1 181.901L97 179.301H98L96.5 183.001C96.2 183.701 95.8 184.101 95.2 184.401L94.8 183.801C95.2 183.601 95.5 183.301 95.7 182.901L94.2 179.301Z" fill="#0050B1"/>
<path d="M101.6 179.3V182.9H100.9L100.8 182.4C100.4 182.7 99.9 182.9 99.5 182.9C98.8 182.9 98.4 182.5 98.4 181.6V179.3H99.3V181.6C99.3 182 99.5 182.2 99.8 182.2C100.1 182.2 100.4 182.1 100.7 181.8V179.3H101.6ZM100 178H101.1L100.3 178.9H99.5L100 178Z" fill="#0050B1"/>
<path d="M105.7 182.8C105.1 182.9 104.6 183 104.1 183C102.9 183 102.3 182.4 102.3 181.1C102.3 179.9 102.9 179.4 104 179.4C104.2 179.4 104.5 179.5 104.8 179.6V178H105.7V182.8ZM104.8 180.3C104.6 180.2 104.4 180.1 104.1 180.1C103.5 180.1 103.2 180.4 103.2 181.1C103.2 181.9 103.5 182.2 104.1 182.2C104.3 182.2 104.6 182.2 104.8 182.1V180.3Z" fill="#0050B1"/>
<path d="M106.4 181.801C106.4 181.101 106.9 180.701 108 180.701C108.2 180.701 108.5 180.701 108.7 180.801V180.501C108.7 180.201 108.5 180.001 108 180.001C107.6 180.001 107.2 180.101 106.7 180.201V179.501C107.2 179.401 107.6 179.301 108 179.301C109.1 179.301 109.6 179.701 109.6 180.501V182.901H109.1L108.8 182.601C108.5 182.801 108.1 182.901 107.8 182.901C106.9 183.001 106.4 182.601 106.4 181.801ZM108 181.401C107.6 181.401 107.3 181.601 107.3 181.901C107.3 182.201 107.5 182.401 107.9 182.401C108.2 182.401 108.5 182.301 108.7 182.101V181.501C108.5 181.401 108.3 181.401 108 181.401Z" fill="#0050B1"/>
<path d="M110.5 183V179.4H111.2L111.3 179.9C111.6 179.5 112 179.4 112.5 179.4C113.4 179.4 113.8 179.8 113.8 180.7V183H112.9V180.7C112.9 180.3 112.7 180.1 112.3 180.1C112 180.1 111.7 180.2 111.4 180.5V183H110.5Z" fill="#0050B1"/>
<path d="M114.5 181.2C114.5 180 115.1 179.4 116.3 179.4C117.5 179.4 118.1 180 118.1 181.2C118.1 182.4 117.5 183 116.3 183C115.1 183 114.5 182.4 114.5 181.2ZM116.3 182.3C116.9 182.3 117.2 181.9 117.2 181.2C117.2 180.5 116.9 180.1 116.3 180.1C115.7 180.1 115.4 180.5 115.4 181.2C115.4 181.9 115.7 182.3 116.3 182.3Z" fill="#0050B1"/>
<path d="M118.8 182.799V181.999C119.2 182.199 119.7 182.199 120.2 182.199C120.6 182.199 120.8 182.099 120.8 181.799C120.8 181.599 120.7 181.399 120.4 181.399H119.7C119 181.399 118.6 180.999 118.6 180.299C118.6 179.499 119.1 179.199 120.2 179.199C120.7 179.199 121.1 179.299 121.5 179.399V180.199C121.1 179.999 120.7 179.999 120.2 179.999C119.7 179.999 119.5 180.099 119.5 180.399C119.5 180.599 119.6 180.799 119.9 180.799H120.5C121.3 180.799 121.7 181.199 121.7 181.899C121.7 182.699 121.2 182.999 120.2 182.999C119.7 182.999 119.2 182.899 118.8 182.799Z" fill="#0050B1"/>
<path d="M123.8 181.801C123.8 181.101 124.3 180.701 125.4 180.701C125.6 180.701 125.9 180.701 126.1 180.801V180.501C126.1 180.201 125.9 180.001 125.4 180.001C125 180.001 124.6 180.101 124.1 180.201V179.501C124.6 179.401 125 179.301 125.4 179.301C126.5 179.301 127 179.701 127 180.501V182.901H126.5L126.2 182.601C125.9 182.801 125.5 182.901 125.2 182.901C124.2 183.001 123.8 182.601 123.8 181.801ZM125.3 181.401C124.9 181.401 124.6 181.601 124.6 181.901C124.6 182.201 124.8 182.401 125.2 182.401C125.5 182.401 125.8 182.301 126 182.101V181.501C125.9 181.401 125.6 181.401 125.3 181.401Z" fill="#0050B1"/>
<path d="M132.1 182.901C131.8 183.001 131.5 183.001 131.2 183.001C129.9 183.001 129.3 182.401 129.3 181.101C129.3 179.901 129.9 179.301 131.2 179.301C131.5 179.301 131.8 179.301 132.1 179.401V180.101C131.8 180.001 131.5 180.001 131.2 180.001C130.5 180.001 130.1 180.301 130.1 181.001C130.1 181.801 130.5 182.201 131.2 182.201C131.5 182.201 131.8 182.201 132.1 182.101V182.901Z" fill="#0050B1"/>
<path d="M132.6 181.2C132.6 180 133.2 179.4 134.4 179.4C135.6 179.4 136.2 180 136.2 181.2C136.2 182.4 135.6 183 134.4 183C133.2 183 132.6 182.4 132.6 181.2ZM134.4 182.3C135 182.3 135.3 181.9 135.3 181.2C135.3 180.5 135 180.1 134.4 180.1C133.8 180.1 133.5 180.5 133.5 181.2C133.5 181.9 133.8 182.3 134.4 182.3Z" fill="#0050B1"/>
<path d="M136.8 183V179.4H137.5L137.6 179.9C137.9 179.5 138.3 179.4 138.8 179.4C139.3 179.4 139.6 179.6 139.7 179.9C140.1 179.6 140.5 179.4 140.9 179.4C141.7 179.4 142.2 179.9 142.2 180.8V183.1H141.3V180.8C141.3 180.4 141.1 180.2 140.8 180.2C140.5 180.2 140.3 180.3 140 180.6V183.1H139V180.8C139 180.4 138.8 180.2 138.5 180.2C138.2 180.2 138 180.3 137.7 180.6V183.1H136.8V183Z" fill="#0050B1"/>
<path d="M143.1 179.5C143.6 179.4 144.1 179.4 144.6 179.4C145.8 179.4 146.5 180 146.5 181.1C146.5 182.4 145.9 183 144.8 183C144.6 183 144.3 182.9 144.1 182.8V184.3H143.2V179.5H143.1ZM144 182C144.2 182.1 144.5 182.2 144.7 182.2C145.2 182.2 145.5 181.8 145.5 181C145.5 180.3 145.2 180 144.6 180C144.3 180 144.1 180 143.9 180V182H144Z" fill="#0050B1"/>
<path d="M147.2 183V179.4H147.9L148 179.9C148.3 179.6 148.7 179.4 149 179.4V180.1C148.7 180.1 148.4 180.2 148.1 180.5V183H147.2Z" fill="#0050B1"/>
<path d="M149.3 181.2C149.3 180 149.9 179.4 151.1 179.4C152.3 179.4 152.9 180 152.9 181.2C152.9 182.4 152.3 183 151.1 183C149.9 183 149.3 182.4 149.3 181.2ZM151.1 182.3C151.7 182.3 152 181.9 152 181.2C152 180.5 151.7 180.1 151.1 180.1C150.5 180.1 150.2 180.5 150.2 181.2C150.3 181.9 150.5 182.3 151.1 182.3Z" fill="#0050B1"/>
<path d="M153.6 178H154.5V179.6C154.8 179.4 155.1 179.3 155.4 179.3C156.4 179.3 157 179.9 157 181C157 182.3 156.4 182.9 155.2 182.9C154.7 182.9 154.2 182.9 153.6 182.8V178ZM154.5 182.1C154.7 182.2 155 182.2 155.2 182.2C155.8 182.2 156 181.8 156 181C156 180.4 155.8 180 155.3 180C155 180 154.7 180.1 154.5 180.2V182.1Z" fill="#0050B1"/>
<path d="M157.5 181.801C157.5 181.101 158 180.701 159.1 180.701C159.3 180.701 159.6 180.701 159.8 180.801V180.501C159.8 180.201 159.6 180.001 159.1 180.001C158.7 180.001 158.3 180.101 157.8 180.201V179.501C158.3 179.401 158.7 179.301 159.1 179.301C160.2 179.301 160.7 179.701 160.7 180.501V182.901H160.2L159.9 182.601C159.6 182.801 159.2 182.901 158.9 182.901C158 183.001 157.5 182.601 157.5 181.801ZM159.1 181.401C158.7 181.401 158.4 181.601 158.4 181.901C158.4 182.201 158.6 182.401 159 182.401C159.3 182.401 159.6 182.301 159.8 182.101V181.501C159.6 181.401 159.4 181.401 159.1 181.401Z" fill="#0050B1"/>
<path d="M161.6 183V179.4H162.3L162.4 179.9C162.7 179.6 163.1 179.4 163.4 179.4V180.1C163.1 180.1 162.8 180.2 162.5 180.5V183H161.6Z" fill="#0050B1"/>
<path d="M168.8 184.3H167.9V182.8C167.7 182.9 167.4 183 167.1 183C166 183 165.4 182.4 165.4 181.2C165.4 180 166 179.4 167.3 179.4C167.8 179.4 168.3 179.4 168.8 179.5V184.3ZM167.9 180.2C167.7 180.1 167.5 180.1 167.3 180.1C166.6 180.1 166.3 180.5 166.3 181.2C166.3 181.9 166.6 182.3 167.2 182.3C167.5 182.3 167.7 182.2 167.9 182.1V180.2Z" fill="#0050B1"/>
<path d="M173 179.301V182.901H172.3L172.2 182.401C171.8 182.701 171.3 182.901 170.9 182.901C170.2 182.901 169.8 182.501 169.8 181.601V179.301H170.7V181.601C170.7 182.001 170.9 182.201 171.2 182.201C171.5 182.201 171.8 182.101 172.1 181.801V179.301H173Z" fill="#0050B1"/>
<path d="M175.4 179.301C176.5 179.301 177.1 179.901 177.1 181.001C177.1 181.201 177.1 181.301 177.1 181.501H174.7C174.7 182.001 175.1 182.301 175.8 182.301C176.2 182.301 176.5 182.301 176.9 182.201V182.901C176.6 183.001 176.2 183.001 175.7 183.001C174.4 183.001 173.7 182.401 173.7 181.101C173.6 179.901 174.2 179.301 175.4 179.301ZM174.6 180.801H176.2C176.2 180.301 175.9 180.001 175.4 180.001C174.9 180.101 174.6 180.301 174.6 180.801Z" fill="#0050B1"/>
<path d="M179.3 183V179.4H180L180.1 179.9C180.4 179.5 180.8 179.4 181.3 179.4C182.2 179.4 182.6 179.8 182.6 180.7V183H181.7V180.7C181.7 180.3 181.5 180.1 181.1 180.1C180.8 180.1 180.5 180.2 180.2 180.5V183H179.3Z" fill="#0050B1"/>
<path d="M183.3 181.2C183.3 180 183.9 179.4 185.1 179.4C186.3 179.4 186.9 180 186.9 181.2C186.9 182.4 186.3 183 185.1 183C183.9 183 183.3 182.4 183.3 181.2ZM185.1 182.3C185.7 182.3 186 181.9 186 181.2C186 180.5 185.7 180.1 185.1 180.1C184.5 180.1 184.2 180.5 184.2 181.2C184.2 181.9 184.5 182.3 185.1 182.3Z" fill="#0050B1"/>
<path d="M190.7 179.301C191.8 179.301 192.4 179.901 192.4 181.001C192.4 181.201 192.4 181.301 192.4 181.501H190C190 182.001 190.4 182.301 191.1 182.301C191.5 182.301 191.8 182.301 192.2 182.201V182.901C191.9 183.001 191.5 183.001 191 183.001C189.7 183.001 189 182.401 189 181.101C188.9 179.901 189.5 179.301 190.7 179.301ZM189.9 180.801H191.5C191.5 180.301 191.2 180.001 190.7 180.001C190.2 180.101 189.9 180.301 189.9 180.801Z" fill="#0050B1"/>
<path d="M193 183V179.4H193.7L193.8 179.9C194.1 179.6 194.5 179.4 194.8 179.4V180.1C194.5 180.1 194.2 180.2 193.9 180.5V183H193Z" fill="#0050B1"/>
<path d="M196.9 179.301C198 179.301 198.6 179.901 198.6 181.001C198.6 181.201 198.6 181.301 198.6 181.501H196.2C196.2 182.001 196.6 182.301 197.3 182.301C197.7 182.301 198 182.301 198.4 182.201V182.901C198.1 183.001 197.7 183.001 197.2 183.001C195.9 183.001 195.2 182.401 195.2 181.101C195.2 179.901 195.8 179.301 196.9 179.301ZM196.1 180.801H197.7C197.7 180.301 197.4 180.001 196.9 180.001C196.4 180.101 196.1 180.301 196.1 180.801Z" fill="#0050B1"/>
<path d="M199.2 182.799V181.999C199.6 182.199 200.1 182.199 200.6 182.199C201 182.199 201.2 182.099 201.2 181.799C201.2 181.599 201.1 181.399 200.8 181.399H200.1C199.4 181.399 199 180.999 199 180.299C199 179.499 199.5 179.199 200.6 179.199C201.1 179.199 201.5 179.299 201.9 179.399V180.199C201.5 179.999 201.1 179.999 200.6 179.999C200.1 179.999 199.9 180.099 199.9 180.399C199.9 180.599 200 180.799 200.3 180.799H200.9C201.7 180.799 202.1 181.199 202.1 181.899C202.1 182.699 201.6 182.999 200.6 182.999C200.1 182.999 199.6 182.899 199.2 182.799Z" fill="#0050B1"/>
<path d="M207.6 179.301V182.901H206.9L206.8 182.401C206.4 182.701 205.9 182.901 205.5 182.901C204.8 182.901 204.4 182.501 204.4 181.601V179.301H205.3V181.601C205.3 182.001 205.5 182.201 205.8 182.201C206.1 182.201 206.4 182.101 206.7 181.801V179.301H207.6Z" fill="#0050B1"/>
<path d="M208.5 183V179.4H209.2L209.3 179.9C209.6 179.5 210 179.4 210.5 179.4C211.4 179.4 211.8 179.8 211.8 180.7V183H210.9V180.7C210.9 180.3 210.7 180.1 210.3 180.1C210 180.1 209.7 180.2 209.4 180.5V183H208.5Z" fill="#0050B1"/>
<path d="M214.2 183V179.4H214.9L215 179.9C215.3 179.6 215.7 179.4 216 179.4V180.1C215.7 180.1 215.4 180.2 215.1 180.5V183H214.2Z" fill="#0050B1"/>
<path d="M216.4 181.2C216.4 180 217 179.4 218.2 179.4C219.4 179.4 220 180 220 181.2C220 182.4 219.4 183 218.2 183C217 183 216.4 182.4 216.4 181.2ZM218.2 182.3C218.8 182.3 219.1 181.9 219.1 181.2C219.1 180.5 218.8 180.1 218.2 180.1C217.6 180.1 217.3 180.5 217.3 181.2C217.3 181.9 217.6 182.3 218.2 182.3Z" fill="#0050B1"/>
<path d="M220.7 178H221.6V179.6C221.9 179.4 222.2 179.3 222.5 179.3C223.5 179.3 224.1 179.9 224.1 181C224.1 182.3 223.5 182.9 222.3 182.9C221.8 182.9 221.3 182.9 220.7 182.8V178ZM221.6 182.1C221.8 182.2 222.1 182.2 222.3 182.2C222.9 182.2 223.1 181.8 223.1 181C223.1 180.4 222.9 180 222.4 180C222.1 180 221.8 180.1 221.6 180.2V182.1Z" fill="#0050B1"/>
<path d="M224.6 181.2C224.6 180 225.2 179.4 226.4 179.4C227.6 179.4 228.2 180 228.2 181.2C228.2 182.4 227.6 183 226.4 183C225.2 183 224.6 182.4 224.6 181.2ZM226.4 182.3C227 182.3 227.3 181.9 227.3 181.2C227.3 180.5 227 180.1 226.4 180.1C225.8 180.1 225.5 180.5 225.5 181.2C225.5 181.9 225.8 182.3 226.4 182.3Z" fill="#0050B1"/>
<path d="M228.9 178.801H229.6L229.7 179.401H230.6V180.101H229.8V181.801C229.8 182.101 229.9 182.301 230.2 182.301H230.6V183.001H229.8C229.2 183.001 228.9 182.701 228.9 182.001V178.801Z" fill="#0050B1"/>
<path d="M82.3 161.7V157.4H83.1L85.4 160.6V157.4H86.2V161.7H85.4L83.1 158.5V161.7H82.3Z" fill="#FF7800"/>
<path d="M86.9 160.1C86.9 159 87.4 158.5 88.5 158.5C89.6 158.5 90.1 159 90.1 160.1C90.1 161.2 89.6 161.7 88.5 161.7C87.4 161.7 86.9 161.2 86.9 160.1ZM88.5 161.1C89 161.1 89.3 160.8 89.3 160.1C89.3 159.5 89 159.1 88.5 159.1C88 159.1 87.7 159.4 87.7 160.1C87.7 160.7 87.9 161.1 88.5 161.1Z" fill="#FF7800"/>
<path d="M92 158H92.6L92.7 158.5H93.5V159.1H92.8V160.6C92.8 160.9 92.9 161 93.2 161H93.5V161.6H92.8C92.3 161.6 92 161.3 92 160.7V158Z" fill="#FF7800"/>
<path d="M95.4 158.5C96.4 158.5 96.8 159 96.8 160C96.8 160.1 96.8 160.3 96.8 160.4H94.7C94.7 160.8 95 161.1 95.7 161.1C96 161.1 96.3 161.1 96.7 161V161.6C96.4 161.7 96.1 161.7 95.7 161.7C94.5 161.7 94 161.2 94 160.1C93.9 159 94.4 158.5 95.4 158.5ZM94.7 159.8H96C96 159.4 95.8 159.1 95.3 159.1C94.9 159.1 94.7 159.4 94.7 159.8Z" fill="#FF7800"/>
<path d="M97.4 161.7V158.5H98L98.1 159C98.4 158.7 98.8 158.5 99.1 158.5C99.9 158.5 100.2 158.9 100.2 159.7V161.7H99.4V159.7C99.4 159.3 99.2 159.2 98.9 159.2C98.6 159.2 98.4 159.3 98.1 159.5V161.7H97.4Z" fill="#FF7800"/>
<path d="M103.9 161.402C103.9 162.302 103.3 162.802 102.2 162.802C101.8 162.802 101.5 162.702 101.2 162.602V162.002C101.5 162.102 101.9 162.202 102.2 162.202C102.8 162.202 103.1 162.002 103.1 161.502C102.9 161.602 102.6 161.702 102.3 161.702C101.4 161.702 100.9 161.202 100.9 160.202C100.9 159.202 101.5 158.602 102.6 158.602C103 158.602 103.4 158.602 103.9 158.702V161.402ZM103.1 159.202C103 159.202 102.8 159.102 102.5 159.102C101.9 159.102 101.7 159.402 101.7 160.002C101.7 160.602 101.9 160.902 102.4 160.902C102.6 160.902 102.9 160.802 103.1 160.702V159.202Z" fill="#FF7800"/>
<path d="M104.5 160.1C104.5 159 105 158.5 106.1 158.5C107.2 158.5 107.7 159 107.7 160.1C107.7 161.2 107.2 161.7 106.1 161.7C105 161.7 104.5 161.2 104.5 160.1ZM106.1 161.1C106.6 161.1 106.9 160.8 106.9 160.1C106.9 159.5 106.6 159.1 106.1 159.1C105.6 159.1 105.3 159.4 105.3 160.1C105.3 160.7 105.6 161.1 106.1 161.1Z" fill="#FF7800"/>
<path d="M112 161.6C111.7 161.7 111.5 161.7 111.2 161.7C110.1 161.7 109.5 161.1 109.5 160C109.5 159 110.1 158.5 111.2 158.5C111.5 158.5 111.8 158.5 112 158.6V159.2C111.7 159.1 111.5 159.1 111.2 159.1C110.6 159.1 110.2 159.4 110.2 160C110.2 160.7 110.5 161 111.2 161C111.4 161 111.7 161 112 160.9V161.6Z" fill="#FF7800"/>
<path d="M113.3 157.301V161.601H112.5V157.301H113.3Z" fill="#FF7800"/>
<path d="M113.9 160.701C113.9 160.101 114.4 159.801 115.3 159.801C115.5 159.801 115.7 159.801 115.9 159.901V159.701C115.9 159.401 115.7 159.301 115.3 159.301C115 159.301 114.6 159.401 114.1 159.501V158.901C114.5 158.801 114.9 158.701 115.3 158.701C116.2 158.701 116.7 159.001 116.7 159.701V161.801H116.2L115.9 161.501C115.6 161.701 115.3 161.801 115 161.801C114.3 161.701 113.9 161.401 113.9 160.701ZM115.3 160.301C114.9 160.301 114.7 160.401 114.7 160.701C114.7 161.001 114.9 161.101 115.2 161.101C115.5 161.101 115.7 161.001 115.9 160.901V160.401C115.8 160.301 115.5 160.301 115.3 160.301Z" fill="#FF7800"/>
<path d="M117.1 158.5H117.9L118.7 160.7L119.5 158.5H120.3L119 161.7H118.2L117.1 158.5Z" fill="#FF7800"/>
<path d="M122.1 158.5C123.1 158.5 123.5 159 123.5 160C123.5 160.1 123.5 160.3 123.5 160.4H121.4C121.4 160.8 121.7 161.1 122.4 161.1C122.7 161.1 123 161.1 123.4 161V161.6C123.1 161.7 122.8 161.7 122.4 161.7C121.2 161.7 120.7 161.2 120.7 160.1C120.6 159 121.1 158.5 122.1 158.5ZM121.5 159.8H122.9C122.9 159.4 122.7 159.1 122.2 159.1C121.7 159.1 121.5 159.4 121.5 159.8Z" fill="#FF7800"/>
<path d="M128.4 161.5C127.9 161.6 127.4 161.7 127 161.7C126 161.7 125.5 161.1 125.5 160C125.5 159 126 158.5 127 158.5C127.2 158.5 127.4 158.6 127.7 158.7V157.4H128.5V161.5H128.4ZM127.6 159.3C127.4 159.2 127.2 159.1 127 159.1C126.5 159.1 126.3 159.4 126.3 159.9C126.3 160.6 126.6 160.9 127.1 160.9C127.3 160.9 127.5 160.9 127.7 160.8V159.3H127.6Z" fill="#FF7800"/>
<path d="M130.5 158.5C131.5 158.5 131.9 159 131.9 160C131.9 160.1 131.9 160.3 131.9 160.4H129.8C129.8 160.8 130.1 161.1 130.8 161.1C131.1 161.1 131.4 161.1 131.8 161V161.6C131.5 161.7 131.2 161.7 130.8 161.7C129.6 161.7 129.1 161.2 129.1 160.1C129 159 129.5 158.5 130.5 158.5ZM129.8 159.8H131.2C131.2 159.4 131 159.1 130.5 159.1C130.1 159.1 129.8 159.4 129.8 159.8Z" fill="#FF7800"/>
<path d="M134.8 157.301V161.601H134V157.301H134.8Z" fill="#FF7800"/>
<path d="M135.6 161.7V158.5H136.2L136.3 159C136.6 158.7 137 158.5 137.3 158.5C138.1 158.5 138.4 158.9 138.4 159.7V161.7H137.6V159.7C137.6 159.3 137.4 159.2 137.1 159.2C136.8 159.2 136.6 159.3 136.3 159.5V161.7H135.6Z" fill="#FF7800"/>
<path d="M139.2 158H139.8L139.9 158.5H140.7V159.1H140V160.6C140 160.9 140.1 161 140.4 161H140.7V161.6H140C139.5 161.6 139.2 161.3 139.2 160.7V158Z" fill="#FF7800"/>
<path d="M142.6 158.5C143.6 158.5 144 159 144 160C144 160.1 144 160.3 144 160.4H141.9C141.9 160.8 142.2 161.1 142.9 161.1C143.2 161.1 143.5 161.1 143.9 161V161.6C143.6 161.7 143.3 161.7 142.9 161.7C141.7 161.7 141.2 161.2 141.2 160.1C141.1 159 141.6 158.5 142.6 158.5ZM141.9 159.8H143.3C143.3 159.4 143.1 159.1 142.6 159.1C142.2 159.1 142 159.4 141.9 159.8Z" fill="#FF7800"/>
<path d="M144.7 161.7V158.5H145.3L145.4 158.9C145.7 158.6 146 158.5 146.3 158.5V159.1C146 159.1 145.7 159.2 145.5 159.5V161.7H144.7Z" fill="#FF7800"/>
<path d="M146.7 161.7V158.5H147.3L147.4 159C147.7 158.7 148.1 158.5 148.4 158.5C149.2 158.5 149.5 158.9 149.5 159.7V161.7H148.7V159.7C148.7 159.3 148.5 159.2 148.2 159.2C147.9 159.2 147.7 159.3 147.4 159.5V161.7H146.7Z" fill="#FF7800"/>
<path d="M151.7 158.5C152.7 158.5 153.1 159 153.1 160C153.1 160.1 153.1 160.3 153.1 160.4H151C151 160.8 151.3 161.1 152 161.1C152.3 161.1 152.6 161.1 153 161V161.6C152.7 161.7 152.4 161.7 152 161.7C150.8 161.7 150.3 161.2 150.3 160.1C150.2 159 150.7 158.5 151.7 158.5ZM151 159.8H152.4C152.4 159.4 152.2 159.1 151.7 159.1C151.3 159.1 151.1 159.4 151 159.8Z" fill="#FF7800"/>
<path d="M153.7 158H154.3L154.4 158.5H155.2V159.1H154.5V160.6C154.5 160.9 154.6 161 154.9 161H155.2V161.6H154.5C154 161.6 153.7 161.3 153.7 160.7V158Z" fill="#FF7800"/>
<path d="M81.9 162.5V161.9H156.8V162.5H81.9Z" fill="#FF7800"/>
<path d="M175.5 159.501C175.5 158.001 176.2 157.301 177.7 157.301C179.1 157.301 179.8 158.001 179.8 159.501C179.8 161.001 179.1 161.701 177.7 161.701C176.3 161.701 175.6 161.001 175.5 159.501ZM177.7 161.001C178.6 161.001 179 160.501 179 159.501C179 158.501 178.6 158.001 177.7 158.001C176.8 158.001 176.4 158.501 176.4 159.501C176.3 160.501 176.8 161.001 177.7 161.001Z" fill="#FF7800"/>
<path d="M181.3 157.301V161.601H180.5V157.301H181.3Z" fill="#FF7800"/>
<path d="M181.7 158.5H182.5L183.3 160.7L184.1 158.5H184.9L183.6 161.7H182.8L181.7 158.5Z" fill="#FF7800"/>
<path d="M186.1 157.301V157.901H185.3V157.301H186.1ZM186.1 158.501V161.701H185.3V158.501H186.1Z" fill="#FF7800"/>
<path d="M189.7 161.5C189.2 161.6 188.7 161.7 188.3 161.7C187.3 161.7 186.8 161.1 186.8 160C186.8 159 187.3 158.5 188.3 158.5C188.5 158.5 188.7 158.6 189 158.7V157.4H189.8V161.5H189.7ZM188.9 159.3C188.7 159.2 188.5 159.1 188.3 159.1C187.8 159.1 187.6 159.4 187.6 159.9C187.6 160.6 187.9 160.9 188.4 160.9C188.6 160.9 188.8 160.9 189 160.8V159.3H188.9Z" fill="#FF7800"/>
<path d="M191.8 158.501C192.8 158.501 193.2 159.001 193.2 160.001C193.2 160.101 193.2 160.301 193.2 160.401H191.1C191.1 160.801 191.4 161.101 192.1 161.101C192.4 161.101 192.7 161.101 193.1 161.001V161.601C192.8 161.701 192.5 161.701 192.1 161.701C190.9 161.701 190.4 161.201 190.4 160.101C190.3 159.001 190.8 158.501 191.8 158.501ZM191.1 159.801H192.5C192.5 159.401 192.3 159.101 191.8 159.101C191.4 159.101 191.2 159.401 191.1 159.801ZM191.8 157.301H192.8L192.1 158.101H191.4L191.8 157.301Z" fill="#FF7800"/>
<path d="M195.2 161.7V158.5H195.8L195.9 159C196.2 158.7 196.5 158.5 196.9 158.5C197.3 158.5 197.6 158.6 197.7 158.9C198 158.6 198.4 158.5 198.7 158.5C199.4 158.5 199.8 158.9 199.8 159.7V161.7H199V159.7C199 159.3 198.8 159.2 198.5 159.2C198.3 159.2 198 159.3 197.8 159.5V161.7H197V159.7C197 159.3 196.9 159.2 196.6 159.2C196.4 159.2 196.1 159.3 195.9 159.5V161.7H195.2Z" fill="#FF7800"/>
<path d="M201.5 157.301V157.901H200.7V157.301H201.5ZM201.5 158.501V161.701H200.7V158.501H201.5Z" fill="#FF7800"/>
<path d="M206 161.6C205.7 161.7 205.5 161.7 205.2 161.7C204.1 161.7 203.5 161.1 203.5 160C203.5 159 204.1 158.5 205.2 158.5C205.5 158.5 205.8 158.5 206 158.6V159.2C205.7 159.1 205.5 159.1 205.2 159.1C204.6 159.1 204.2 159.4 204.2 160C204.2 160.7 204.5 161 205.2 161C205.4 161 205.7 161 206 160.9V161.6Z" fill="#FF7800"/>
<path d="M207.3 157.301V161.601H206.5V157.301H207.3Z" fill="#FF7800"/>
<path d="M207.9 160.701C207.9 160.101 208.4 159.801 209.3 159.801C209.5 159.801 209.7 159.801 209.9 159.901V159.701C209.9 159.401 209.7 159.301 209.3 159.301C209 159.301 208.6 159.401 208.1 159.501V158.901C208.5 158.801 208.9 158.701 209.3 158.701C210.2 158.701 210.7 159.001 210.7 159.701V161.801H210.2L209.9 161.501C209.6 161.701 209.3 161.801 209 161.801C208.3 161.701 207.9 161.401 207.9 160.701ZM209.3 160.301C208.9 160.301 208.7 160.401 208.7 160.701C208.7 161.001 208.9 161.101 209.2 161.101C209.5 161.101 209.7 161.001 209.9 160.901V160.401C209.7 160.301 209.5 160.301 209.3 160.301Z" fill="#FF7800"/>
<path d="M211.1 158.5H211.9L212.7 160.7L213.5 158.5H214.3L213 161.7H212.2L211.1 158.5Z" fill="#FF7800"/>
<path d="M216.1 158.5C217.1 158.5 217.5 159 217.5 160C217.5 160.1 217.5 160.3 217.5 160.4H215.4C215.4 160.8 215.7 161.1 216.4 161.1C216.7 161.1 217 161.1 217.4 161V161.6C217.1 161.7 216.8 161.7 216.4 161.7C215.2 161.7 214.7 161.2 214.7 160.1C214.6 159 215.1 158.5 216.1 158.5ZM215.4 159.8H216.8C216.8 159.4 216.6 159.1 216.1 159.1C215.7 159.1 215.5 159.4 215.4 159.8Z" fill="#FF7800"/>
<path d="M175.2 162.5V161.9H217.8V162.5H175.2Z" fill="#FF7800"/>
<path d="M95.2 221.399C94.8 221.499 94.4 221.599 93.9 221.599C92.3 221.599 91.6 220.799 91.6 219.299C91.6 217.899 92.4 217.199 93.9 217.199C94.4 217.199 94.8 217.299 95.2 217.399V218.099C94.8 217.899 94.4 217.899 94 217.899C93 217.899 92.4 218.399 92.4 219.299C92.4 220.299 92.9 220.899 94 220.899C94.4 220.899 94.8 220.799 95.2 220.699V221.399Z" fill="#FF7800"/>
<path d="M95.7 220.6C95.7 220 96.2 219.7 97.1 219.7C97.3 219.7 97.5 219.7 97.7 219.8V219.6C97.7 219.3 97.5 219.2 97.1 219.2C96.8 219.2 96.4 219.3 95.9 219.4V218.8C96.3 218.7 96.7 218.6 97.1 218.6C98 218.6 98.5 218.9 98.5 219.6V221.7H98L97.7 221.4C97.4 221.6 97.1 221.7 96.8 221.7C96.1 221.6 95.7 221.2 95.7 220.6ZM97.1 220.2C96.7 220.2 96.5 220.3 96.5 220.6C96.5 220.9 96.7 221 97 221C97.3 221 97.5 220.9 97.7 220.8V220.3C97.6 220.2 97.4 220.2 97.1 220.2Z" fill="#FF7800"/>
<path d="M99.3 221.598V218.398H99.9L100 218.898C100.3 218.598 100.6 218.398 101 218.398C101.4 218.398 101.7 218.498 101.8 218.798C102.1 218.498 102.5 218.398 102.8 218.398C103.5 218.398 103.9 218.798 103.9 219.598V221.598H103.1V219.598C103.1 219.198 102.9 219.098 102.6 219.098C102.4 219.098 102.1 219.198 101.9 219.398V221.598H101.1V219.598C101.1 219.198 101 219.098 100.7 219.098C100.5 219.098 100.2 219.198 100 219.398V221.598H99.3Z" fill="#FF7800"/>
<path d="M104.8 217.199H105.6V218.599C105.8 218.399 106.1 218.399 106.4 218.399C107.3 218.399 107.8 218.899 107.8 219.899C107.8 220.999 107.3 221.599 106.2 221.599C105.8 221.599 105.3 221.599 104.8 221.499V217.199ZM105.6 220.799C105.8 220.899 106 220.899 106.2 220.899C106.7 220.899 106.9 220.599 106.9 219.899C106.9 219.299 106.7 219.099 106.3 219.099C106 219.099 105.8 219.199 105.6 219.299V220.799Z" fill="#FF7800"/>
<path d="M109.2 217.199V217.799H108.4V217.199H109.2ZM109.2 218.399V221.599H108.4V218.399H109.2Z" fill="#FF7800"/>
<path d="M109.8 220.6C109.8 220 110.3 219.7 111.2 219.7C111.4 219.7 111.6 219.7 111.8 219.8V219.6C111.8 219.3 111.6 219.2 111.2 219.2C110.9 219.2 110.5 219.3 110 219.4V218.8C110.4 218.7 110.8 218.6 111.2 218.6C112.1 218.6 112.6 218.9 112.6 219.6V221.7H112.1L111.8 221.4C111.5 221.6 111.2 221.7 110.9 221.7C110.1 221.6 109.8 221.2 109.8 220.6ZM111.1 220.2C110.7 220.2 110.5 220.3 110.5 220.6C110.5 220.9 110.7 221 111 221C111.3 221 111.5 220.9 111.7 220.8V220.3C111.6 220.2 111.4 220.2 111.1 220.2Z" fill="#FF7800"/>
<path d="M113.4 221.598V218.398H114L114.1 218.798C114.4 218.498 114.7 218.398 115 218.398V218.998C114.7 218.998 114.4 219.098 114.2 219.398V221.598H113.4Z" fill="#FF7800"/>
<path d="M91.3 222.399V221.799H115V222.399H91.3Z" fill="#FF7800"/>
<path d="M93.2 87.7008V82.8008H95.5C96.5 82.8008 97 83.2008 97 84.1008C97 84.7008 96.6 85.2008 95.8 85.6008L97.4 87.7008H96.2L94.7 85.5008V85.1008C95.6 85.0008 96 84.6008 96 84.1008C96 83.7008 95.8 83.6008 95.4 83.6008H94.1V87.7008H93.2Z" fill="#929292"/>
<path d="M99.2 84.1016C100.3 84.1016 100.9 84.7016 100.9 85.8016C100.9 86.0016 100.9 86.1016 100.9 86.3016H98.5C98.5 86.8016 98.9 87.1016 99.6 87.1016C100 87.1016 100.3 87.1016 100.7 87.0016V87.7016C100.4 87.8016 100 87.8016 99.5 87.8016C98.2 87.8016 97.5 87.2016 97.5 85.9016C97.5 84.7016 98.1 84.1016 99.2 84.1016ZM98.5 85.6016H100.1C100.1 85.1016 99.8 84.8016 99.3 84.8016C98.8 84.8016 98.5 85.1016 98.5 85.6016Z" fill="#929292"/>
<path d="M104.3 87.6C104 87.7 103.7 87.7 103.4 87.7C102.1 87.7 101.5 87.1 101.5 85.8C101.5 84.6 102.1 84 103.4 84C103.7 84 104 84 104.3 84.1V84.8C104 84.7 103.7 84.7 103.4 84.7C102.7 84.7 102.3 85 102.3 85.7C102.3 86.5 102.7 86.9 103.4 86.9C103.7 86.9 104 86.9 104.3 86.8V87.6Z" fill="#929292"/>
<path d="M104.7 85.9016C104.7 84.7016 105.3 84.1016 106.5 84.1016C107.7 84.1016 108.3 84.7016 108.3 85.9016C108.3 87.1016 107.7 87.7016 106.5 87.7016C105.3 87.8016 104.7 87.1016 104.7 85.9016ZM106.5 87.1016C107.1 87.1016 107.4 86.7016 107.4 86.0016C107.4 85.3016 107.1 84.9016 106.5 84.9016C105.9 84.9016 105.6 85.3016 105.6 86.0016C105.6 86.7016 105.9 87.1016 106.5 87.1016Z" fill="#929292"/>
<path d="M109 87.8012V84.2012H109.7L109.8 84.7012C110.1 84.4012 110.5 84.2012 110.8 84.2012V84.9012C110.5 84.9012 110.2 85.0012 109.9 85.3012V87.8012H109Z" fill="#929292"/>
<path d="M114.6 87.5008C114 87.6008 113.5 87.7008 113 87.7008C111.8 87.7008 111.2 87.1008 111.2 85.8008C111.2 84.6008 111.8 84.1008 112.9 84.1008C113.1 84.1008 113.4 84.2008 113.7 84.3008V82.8008H114.6V87.5008ZM113.7 85.1008C113.5 85.0008 113.3 84.9008 113 84.9008C112.4 84.9008 112.1 85.2008 112.1 85.9008C112.1 86.7008 112.4 87.0008 113 87.0008C113.2 87.0008 113.5 87.0008 113.7 86.9008V85.1008Z" fill="#929292"/>
<path d="M115.3 86.6016C115.3 85.9016 115.8 85.5016 116.9 85.5016C117.1 85.5016 117.4 85.5016 117.6 85.6016V85.3016C117.6 85.0016 117.4 84.8016 116.9 84.8016C116.5 84.8016 116.1 84.9016 115.6 85.0016V84.3016C116.1 84.2016 116.5 84.1016 116.9 84.1016C118 84.1016 118.5 84.5016 118.5 85.3016V87.7016H118L117.7 87.4016C117.4 87.6016 117 87.7016 116.7 87.7016C115.7 87.8016 115.3 87.4016 115.3 86.6016ZM116.9 86.2016C116.5 86.2016 116.2 86.4016 116.2 86.7016C116.2 87.0016 116.4 87.2016 116.8 87.2016C117.1 87.2016 117.4 87.1016 117.6 86.9016V86.3016C117.4 86.2016 117.1 86.2016 116.9 86.2016Z" fill="#929292"/>
<path d="M119.4 87.8012V84.2012H120.1L120.2 84.7012C120.5 84.4012 120.9 84.2012 121.2 84.2012V84.9012C120.9 84.9012 120.6 85.0012 120.3 85.3012V87.8012H119.4Z" fill="#929292"/>
<path d="M123.2 83.5H123.9L124 84.1H124.9V84.8H124.1V86.5C124.1 86.8 124.2 87 124.5 87H124.9V87.7H124.1C123.5 87.7 123.2 87.4 123.2 86.7V83.5Z" fill="#929292"/>
<path d="M125.4 86.6016C125.4 85.9016 125.9 85.5016 127 85.5016C127.2 85.5016 127.5 85.5016 127.7 85.6016V85.3016C127.7 85.0016 127.5 84.8016 127 84.8016C126.6 84.8016 126.2 84.9016 125.7 85.0016V84.3016C126.2 84.2016 126.6 84.1016 127 84.1016C128.1 84.1016 128.6 84.5016 128.6 85.3016V87.7016H128.1L127.8 87.4016C127.5 87.6016 127.1 87.7016 126.8 87.7016C125.9 87.8016 125.4 87.4016 125.4 86.6016ZM127 86.2016C126.6 86.2016 126.3 86.4016 126.3 86.7016C126.3 87.0016 126.5 87.2016 126.9 87.2016C127.2 87.2016 127.5 87.1016 127.7 86.9016V86.3016C127.5 86.2016 127.3 86.2016 127 86.2016Z" fill="#929292"/>
<path d="M129.5 87.8012V84.2012H130.2L130.3 84.7012C130.6 84.4012 131 84.2012 131.3 84.2012V84.9012C131 84.9012 130.7 85.0012 130.4 85.3012V87.8012H129.5Z" fill="#929292"/>
<path d="M132.8 84.1008V87.5008C132.8 88.2008 132.6 88.8008 132.2 89.3008L131.5 88.8008C131.8 88.5008 131.9 88.1008 131.9 87.5008V84.1008H132.8ZM132.8 82.8008V83.5008H131.9V82.8008H132.8Z" fill="#929292"/>
<path d="M135.2 84.1016C136.3 84.1016 136.9 84.7016 136.9 85.8016C136.9 86.0016 136.9 86.1016 136.9 86.3016H134.5C134.5 86.8016 134.9 87.1016 135.6 87.1016C136 87.1016 136.3 87.1016 136.7 87.0016V87.7016C136.4 87.8016 136 87.8016 135.5 87.8016C134.2 87.8016 133.5 87.2016 133.5 85.9016C133.5 84.7016 134.1 84.1016 135.2 84.1016ZM134.4 85.6016H136C136 85.1016 135.7 84.8016 135.2 84.8016C134.7 84.8016 134.5 85.1016 134.4 85.6016Z" fill="#929292"/>
<path d="M137.5 83.5H138.2L138.3 84.1H139.2V84.8H138.4V86.5C138.4 86.8 138.5 87 138.8 87H139.2V87.7H138.4C137.8 87.7 137.5 87.4 137.5 86.7V83.5Z" fill="#929292"/>
<path d="M139.7 86.6016C139.7 85.9016 140.2 85.5016 141.3 85.5016C141.5 85.5016 141.8 85.5016 142 85.6016V85.3016C142 85.0016 141.8 84.8016 141.3 84.8016C140.9 84.8016 140.5 84.9016 140 85.0016V84.3016C140.5 84.2016 140.9 84.1016 141.3 84.1016C142.4 84.1016 142.9 84.5016 142.9 85.3016V87.7016H142.4L142.1 87.4016C141.8 87.6016 141.4 87.7016 141.1 87.7016C140.1 87.8016 139.7 87.4016 139.7 86.6016ZM141.3 86.2016C140.9 86.2016 140.6 86.4016 140.6 86.7016C140.6 87.0016 140.8 87.2016 141.2 87.2016C141.5 87.2016 141.8 87.1016 142 86.9016V86.3016C141.8 86.2016 141.5 86.2016 141.3 86.2016Z" fill="#929292"/>
<path d="M154 196.9V197.8H151.1V199.3H153.8V200.3H151V201.8H154V202.7H150V196.9H154Z" fill="#CCCCCE"/>
<path d="M154.9 202.5V201.6C155.4 201.8 155.9 201.9 156.5 201.9C157 201.9 157.2 201.8 157.2 201.5C157.2 201.2 157 201.1 156.7 201.1H156C155.1 201.1 154.7 200.7 154.7 199.8C154.7 198.9 155.3 198.5 156.6 198.5C157.1 198.5 157.6 198.6 158.1 198.7V199.6C157.6 199.4 157.1 199.3 156.6 199.3C156 199.3 155.7 199.4 155.7 199.7C155.7 200 155.9 200.1 156.2 200.1H156.9C157.8 200.1 158.3 200.5 158.3 201.4C158.3 202.3 157.7 202.7 156.5 202.7C155.9 202.7 155.4 202.6 154.9 202.5Z" fill="#CCCCCE"/>
<path d="M162.2 202.6C161.9 202.7 161.5 202.7 161.1 202.7C159.6 202.7 158.8 202 158.8 200.5C158.8 199.1 159.6 198.5 161.1 198.5C161.5 198.5 161.8 198.5 162.2 198.6V199.4C161.9 199.3 161.5 199.3 161.2 199.3C160.4 199.3 159.9 199.7 159.9 200.5C159.9 201.4 160.3 201.9 161.2 201.9C161.5 201.9 161.9 201.9 162.2 201.8V202.6Z" fill="#CCCCCE"/>
<path d="M162.9 202.7V198.5H163.7L163.8 199C164.2 198.6 164.6 198.5 165 198.5V199.4C164.6 199.4 164.2 199.6 163.9 199.9V202.8H162.9V202.7Z" fill="#CCCCCE"/>
<path d="M166.7 196.9V197.7H165.6V196.9H166.7ZM166.7 198.4V202.6H165.6V198.4H166.7Z" fill="#CCCCCE"/>
<path d="M167.7 196.9H168.8V198.8C169.1 198.6 169.5 198.5 169.9 198.5C171.1 198.5 171.7 199.2 171.7 200.5C171.7 202 171 202.7 169.6 202.7C169 202.7 168.4 202.6 167.7 202.5V196.9ZM168.8 201.7C169 201.8 169.3 201.8 169.7 201.8C170.3 201.8 170.7 201.3 170.7 200.4C170.7 199.7 170.4 199.3 169.9 199.3C169.5 199.3 169.2 199.4 168.9 199.5V201.7H168.8Z" fill="#CCCCCE"/>
<path d="M174.2 198.4C175.5 198.4 176.1 199.1 176.1 200.4C176.1 200.6 176.1 200.7 176.1 200.9H173.3C173.3 201.5 173.7 201.8 174.6 201.8C175 201.8 175.5 201.8 175.9 201.7V202.5C175.5 202.6 175.1 202.6 174.5 202.6C173 202.6 172.2 201.9 172.2 200.4C172.3 199.1 172.9 198.4 174.2 198.4ZM173.3 200.2H175.1C175.1 199.6 174.8 199.3 174.2 199.3C173.7 199.3 173.4 199.6 173.3 200.2Z" fill="#CCCCCE"/>
<path d="M179.9 196.9V202.7H178.8V196.9H179.9Z" fill="#CCCCCE"/>
<path d="M180.7 200.6C180.7 199.2 181.4 198.5 182.8 198.5C184.2 198.5 184.9 199.2 184.9 200.6C184.9 202 184.2 202.7 182.8 202.7C181.4 202.7 180.7 202 180.7 200.6ZM182.8 201.9C183.5 201.9 183.8 201.5 183.8 200.6C183.8 199.7 183.5 199.3 182.8 199.3C182.1 199.3 181.8 199.7 181.8 200.6C181.7 201.4 182.1 201.9 182.8 201.9Z" fill="#CCCCCE"/>
<path d="M185.7 202.5V201.6C186.2 201.8 186.7 201.9 187.3 201.9C187.8 201.9 188 201.8 188 201.5C188 201.2 187.8 201.1 187.5 201.1H186.7C185.8 201.1 185.4 200.7 185.4 199.8C185.4 198.9 186 198.5 187.3 198.5C187.8 198.5 188.3 198.6 188.8 198.7V199.6C188.3 199.4 187.8 199.3 187.3 199.3C186.7 199.3 186.4 199.4 186.4 199.7C186.4 200 186.6 200.1 186.9 200.1H187.6C188.5 200.1 189 200.5 189 201.4C189 202.3 188.4 202.7 187.2 202.7C186.7 202.7 186.1 202.6 185.7 202.5Z" fill="#CCCCCE"/>
<path d="M194.7 202.6C194.4 202.7 194 202.7 193.6 202.7C192.1 202.7 191.3 202 191.3 200.5C191.3 199.1 192.1 198.5 193.6 198.5C194 198.5 194.3 198.5 194.7 198.6V199.4C194.4 199.3 194 199.3 193.7 199.3C192.9 199.3 192.4 199.7 192.4 200.5C192.4 201.4 192.8 201.9 193.7 201.9C194 201.9 194.4 201.9 194.7 201.8V202.6Z" fill="#CCCCCE"/>
<path d="M195.2 201.4C195.2 200.6 195.8 200.1 197 200.1C197.3 200.1 197.6 200.1 197.9 200.2V199.9C197.9 199.5 197.6 199.3 197.1 199.3C196.6 199.3 196.1 199.4 195.6 199.5V198.7C196.2 198.6 196.7 198.5 197.1 198.5C198.4 198.5 199 199 199 199.9V202.7H198.4L198 202.3C197.6 202.6 197.2 202.7 196.8 202.7C195.7 202.7 195.2 202.2 195.2 201.4ZM197.1 200.8C196.6 200.8 196.3 201 196.3 201.3C196.3 201.7 196.5 201.9 196.9 201.9C197.3 201.9 197.6 201.8 197.9 201.6V200.9C197.7 200.9 197.4 200.8 197.1 200.8Z" fill="#CCCCCE"/>
<path d="M200 202.7V198.5H200.8L200.9 199C201.3 198.6 201.7 198.5 202.1 198.5V199.4C201.7 199.4 201.3 199.6 201 199.9V202.8H200V202.7Z" fill="#CCCCCE"/>
<path d="M202.5 201.4C202.5 200.6 203.1 200.1 204.3 200.1C204.6 200.1 204.9 200.1 205.2 200.2V199.9C205.2 199.5 204.9 199.3 204.4 199.3C203.9 199.3 203.4 199.4 202.9 199.5V198.7C203.5 198.6 204 198.5 204.4 198.5C205.7 198.5 206.3 199 206.3 199.9V202.7H205.7L205.3 202.3C204.9 202.6 204.5 202.7 204.1 202.7C203.1 202.7 202.5 202.2 202.5 201.4ZM204.4 200.8C203.9 200.8 203.6 201 203.6 201.3C203.6 201.7 203.8 201.9 204.2 201.9C204.6 201.9 204.9 201.8 205.2 201.6V200.9C205 200.9 204.7 200.8 204.4 200.8Z" fill="#CCCCCE"/>
<path d="M210.4 202.6C210.1 202.7 209.7 202.7 209.3 202.7C207.8 202.7 207 202 207 200.5C207 199.1 207.8 198.5 209.3 198.5C209.7 198.5 210 198.5 210.4 198.6V199.4C210.1 199.3 209.7 199.3 209.4 199.3C208.6 199.3 208.1 199.7 208.1 200.5C208.1 201.4 208.5 201.9 209.4 201.9C209.7 201.9 210.1 201.9 210.4 201.8V202.6Z" fill="#CCCCCE"/>
<path d="M211.1 197.801H211.9L212.1 198.501H213.2V199.301H212.3V201.201C212.3 201.601 212.5 201.801 212.8 201.801H213.2V202.601H212.2C211.5 202.601 211.1 202.201 211.1 201.501V197.801Z" fill="#CCCCCE"/>
<path d="M215.6 198.4C216.9 198.4 217.5 199.1 217.5 200.4C217.5 200.6 217.5 200.7 217.5 200.9H214.7C214.7 201.5 215.1 201.8 216 201.8C216.4 201.8 216.9 201.8 217.3 201.7V202.5C216.9 202.6 216.5 202.6 215.9 202.6C214.4 202.6 213.6 201.9 213.6 200.4C213.6 199.1 214.3 198.4 215.6 198.4ZM214.7 200.2H216.5C216.5 199.6 216.2 199.3 215.6 199.3C215.1 199.3 214.7 199.6 214.7 200.2Z" fill="#CCCCCE"/>
<path d="M218.3 202.7V198.5H219.1L219.2 199C219.6 198.6 220 198.5 220.4 198.5V199.4C220 199.4 219.6 199.6 219.3 199.9V202.8H218.3V202.7Z" fill="#CCCCCE"/>
<path d="M222.9 198.4C224.2 198.4 224.8 199.1 224.8 200.4C224.8 200.6 224.8 200.7 224.8 200.9H222C222 201.5 222.4 201.8 223.3 201.8C223.7 201.8 224.2 201.8 224.6 201.7V202.5C224.2 202.6 223.8 202.6 223.2 202.6C221.7 202.6 220.9 201.9 220.9 200.4C220.9 199.1 221.5 198.4 222.9 198.4ZM221.9 200.2H223.7C223.7 199.6 223.4 199.3 222.8 199.3C222.3 199.3 222 199.6 221.9 200.2Z" fill="#CCCCCE"/>
<path d="M225.6 202.5V201.6C226.1 201.8 226.6 201.9 227.2 201.9C227.7 201.9 227.9 201.8 227.9 201.5C227.9 201.2 227.7 201.1 227.4 201.1H226.6C225.7 201.1 225.3 200.7 225.3 199.8C225.3 198.9 225.9 198.5 227.2 198.5C227.7 198.5 228.2 198.6 228.7 198.7V199.6C228.2 199.4 227.7 199.3 227.2 199.3C226.6 199.3 226.3 199.4 226.3 199.7C226.3 200 226.5 200.1 226.8 200.1H227.5C228.4 200.1 228.9 200.5 228.9 201.4C228.9 202.3 228.3 202.7 227.1 202.7C226.6 202.7 226.1 202.6 225.6 202.5Z" fill="#CCCCCE"/>
<path d="M89.1 55.4004H82.9C82.4 55.4004 81.9 55.8004 81.9 56.4004V60.5004C81.9 61.0004 82.3 61.5004 82.9 61.5004H89.1C89.6 61.5004 90.1 61.1004 90.1 60.5004V56.4004C90 55.8004 89.6 55.4004 89.1 55.4004ZM82.8 56.0004H89C89.2 56.0004 89.3 56.1004 89.3 56.3004V56.7004H82.4V56.3004C82.5 56.2004 82.7 56.0004 82.8 56.0004ZM89.1 60.7004H82.9C82.7 60.7004 82.6 60.6004 82.6 60.4004V57.7004H89.5V60.4004C89.4 60.6004 89.2 60.7004 89.1 60.7004Z" fill="#0050B1"/>
<path d="M87.2 58.2012H83V58.8012H87.2V58.2012Z" fill="#0050B1"/>
<path d="M310.2 65.5996H81.9V66.6996H310.2V65.5996Z" fill="#CCCCCE"/>
<path d="M310.2 140.301H81.9V141.401H310.2V140.301Z" fill="#CCCCCE"/>
<path d="M228.7 207.699H148.9V209.599H228.7V207.699Z" fill="#CCCCCE"/>
<path d="M86.8 132.799H86.4V132.199C86.4 131.099 85.5 130.199 84.4 130.199C83.3 130.199 82.4 131.099 82.4 132.199V132.799H82C81.9 132.799 81.9 132.899 81.9 132.899V136.399C81.9 136.699 82.2 136.999 82.5 136.999H86.4C86.7 136.999 87 136.699 87 136.399V132.999C86.9 132.899 86.8 132.799 86.8 132.799ZM84.7 134.999L84.8 135.799V135.899H84.7H84.1H84V135.799L84.1 134.999C84 134.899 83.9 134.699 83.9 134.599C83.9 134.299 84.2 133.999 84.5 133.999C84.8 133.999 85.1 134.299 85.1 134.599C84.9 134.699 84.9 134.899 84.7 134.999ZM85.5 132.799H83.3V132.199C83.3 131.599 83.8 131.099 84.4 131.099C85 131.099 85.5 131.599 85.5 132.199V132.799Z" fill="#0050B1"/>
<path d="M88.3 88.2996H83.1C82.8 88.2996 82.6 88.0996 82.6 87.7996V82.0996C82.6 81.7996 82.8 81.5996 83.1 81.5996H88.3C88.6 81.5996 88.8 81.7996 88.8 82.0996V87.7996C88.8 88.0996 88.5 88.2996 88.3 88.2996Z" stroke="#929292" stroke-width="0.8872" stroke-miterlimit="10"/>
<path d="M184.1 117.5C185.923 117.5 187.4 116.023 187.4 114.2C187.4 112.378 185.923 110.9 184.1 110.9C182.277 110.9 180.8 112.378 180.8 114.2C180.8 116.023 182.277 117.5 184.1 117.5Z" fill="#FF7800"/>
<path d="M184.4 112.199H183.9V113.299H184.4V112.199Z" fill="white"/>
<path d="M184.4 113.699H183.9V116.199H184.4V113.699Z" fill="white"/>
<path d="M141.4 212.701H86.2C84.2 212.701 82.7 211.101 82.7 209.201V197.301C82.7 195.301 84.3 193.801 86.2 193.801H141.4C143.4 193.801 144.9 195.401 144.9 197.301V209.201C145 211.101 143.4 212.701 141.4 212.701Z" fill="white"/>
<path d="M85 217.701L85.5 218.801C85.7 218.701 86 218.601 86.2 218.601C87.2 218.601 87.9 219.401 87.9 220.301C87.9 221.301 87.1 222.001 86.2 222.001C85.4 222.001 84.6 221.401 84.5 220.601H85.2L83.9 218.401L82.6 220.601H83.3C83.5 222.101 84.7 223.201 86.2 223.201C87.8 223.201 89.1 221.901 89.1 220.201C89.1 218.601 87.8 217.301 86.2 217.301C85.8 217.501 85.4 217.601 85 217.701Z" fill="#FF7800"/>
<path d="M301.4 252.5H90.3C86.1 252.5 82.7 249.1 82.7 244.9V242.1C82.7 237.9 86.1 234.5 90.3 234.5H301.5C305.7 234.5 309.1 237.9 309.1 242.1V244.9C309 249.1 305.6 252.5 301.4 252.5Z" fill="#FF7800"/>
<path d="M174.2 240.301V246.201H173.1V240.301H174.2Z" fill="white"/>
<path d="M175.4 246.2V241.9H176.2L176.3 242.5C176.7 242.1 177.2 241.9 177.7 241.9C178.7 241.9 179.2 242.4 179.2 243.5V246.2H178.1V243.5C178.1 243 177.9 242.8 177.4 242.8C177 242.8 176.7 242.9 176.4 243.2V246.2H175.4Z" fill="white"/>
<path d="M184.2 245.9C184.2 247.2 183.4 247.8 181.9 247.8C181.4 247.8 180.9 247.7 180.5 247.6V246.7C180.9 246.8 181.4 246.9 181.9 246.9C182.7 246.9 183.1 246.6 183.1 245.9C182.8 246 182.4 246.1 182.1 246.1C180.8 246.1 180.2 245.4 180.2 244C180.2 242.6 180.9 241.9 182.4 241.9C182.9 241.9 183.5 242 184.2 242.1V245.9ZM183.1 242.9C182.9 242.8 182.7 242.8 182.3 242.8C181.5 242.8 181.2 243.2 181.2 244C181.2 244.8 181.5 245.2 182.2 245.2C182.5 245.2 182.8 245.1 183.1 245V242.9Z" fill="white"/>
<path d="M185.2 246.2V241.9H186L186.1 242.5C186.5 242.1 186.9 241.9 187.3 241.9V242.8C186.9 242.8 186.5 243 186.2 243.3V246.2H185.2Z" fill="white"/>
<path d="M189.8 241.9C191.1 241.9 191.8 242.6 191.8 243.9C191.8 244.1 191.8 244.3 191.8 244.4H188.9C188.9 245 189.3 245.3 190.2 245.3C190.6 245.3 191.1 245.3 191.5 245.2V246.1C191.1 246.2 190.7 246.2 190.1 246.2C188.5 246.2 187.7 245.5 187.7 244C187.8 242.6 188.5 241.9 189.8 241.9ZM188.9 243.7H190.7C190.7 243.1 190.4 242.8 189.8 242.8C189.3 242.8 189 243.1 188.9 243.7Z" fill="white"/>
<path d="M192.6 246.001V245.101C193.1 245.301 193.6 245.401 194.3 245.401C194.8 245.401 195 245.201 195 244.901C195 244.601 194.8 244.501 194.5 244.501H193.7C192.8 244.501 192.4 244.101 192.4 243.201C192.4 242.301 193 241.801 194.3 241.801C194.8 241.801 195.4 241.901 195.8 242.001V242.901C195.3 242.701 194.8 242.601 194.2 242.601C193.6 242.601 193.3 242.801 193.3 243.101C193.3 243.401 193.5 243.501 193.8 243.501H194.5C195.5 243.501 195.9 243.901 195.9 244.801C195.9 245.701 195.3 246.201 194.1 246.201C193.7 246.301 193.1 246.201 192.6 246.001Z" fill="white"/>
<path d="M196.7 244.9C196.7 244 197.3 243.6 198.6 243.6C198.9 243.6 199.2 243.6 199.5 243.7V243.4C199.5 243 199.2 242.8 198.7 242.8C198.2 242.8 197.7 242.9 197.1 243V242.1C197.7 242 198.2 241.9 198.7 241.9C200 241.9 200.6 242.4 200.6 243.3V246.2H200L199.6 245.8C199.2 246.1 198.8 246.2 198.4 246.2C197.2 246.2 196.7 245.8 196.7 244.9ZM198.5 244.3C198 244.3 197.7 244.5 197.7 244.8C197.7 245.2 197.9 245.4 198.4 245.4C198.8 245.4 199.1 245.3 199.4 245.1V244.4C199.1 244.4 198.8 244.3 198.5 244.3Z" fill="white"/>
<path d="M201.5 246.2V241.9H202.3L202.4 242.5C202.8 242.1 203.2 241.9 203.6 241.9V242.8C203.2 242.8 202.8 243 202.5 243.3V246.2H201.5Z" fill="white"/>
<path d="M210.3 244.7H216.6L214.6 246.7C214.5 246.8 214.4 246.9 214.4 247.1C214.4 247.2 214.5 247.4 214.6 247.5L214.9 247.8C215 247.9 215.1 248 215.3 248C215.4 248 215.6 247.9 215.7 247.8L219.1 244.4C219.2 244.3 219.3 244.2 219.3 244C219.3 243.9 219.2 243.7 219.1 243.6L215.7 240.2C215.6 240.1 215.5 240 215.3 240C215.2 240 215 240.1 214.9 240.2L214.6 240.5C214.5 240.6 214.4 240.7 214.4 240.9C214.4 241 214.5 241.2 214.6 241.3L216.6 243.3H210.3C210 243.3 209.8 243.5 209.8 243.8V244.2C209.7 244.4 210 244.7 210.3 244.7Z" fill="white"/>
<path d="M23.1 0H0V262.6H23.1V0Z" fill="url(#paint0_linear)"/>
</g>
<defs>
<linearGradient id="paint0_linear" x1="11.5338" y1="262.615" x2="11.5338" y2="0" gradientUnits="userSpaceOnUse">
<stop stop-color="#007CDA"/>
<stop offset="1" stop-color="#0064CB"/>
</linearGradient>
<clipPath id="clip0">
<rect width="392" height="262.6" fill="white"/>
</clipPath>
</defs>
</svg>
