<svg width="34" height="34" viewBox="0 0 34 34" fill="none" xmlns="http://www.w3.org/2000/svg">
<path d="M5.98438 1.375C6.55729 0.958333 7.15625 0.75 7.78125 0.75C8.45833 0.75 9.08333 0.958333 9.65625 1.375L9.73438 1.45312L9.8125 1.53125L14.8125 6.6875L14.8906 6.76562L14.8125 6.84375C15.3854 7.3125 15.6719 7.9375 15.6719 8.71875C15.6719 9.44792 15.4115 10.0729 14.8906 10.5938L12.3906 13.0938C13.276 15.125 14.4479 16.8438 15.9062 18.25C17.3646 19.6562 19.0573 20.8021 20.9844 21.6875L23.4062 19.2656L23.4844 19.1875C24.0052 18.7188 24.6562 18.4844 25.4375 18.4844C26.2188 18.4844 26.8698 18.7188 27.3906 19.1875L27.4688 19.3438L32.4688 24.3438C32.9896 24.8646 33.25 25.5156 33.25 26.2969C33.25 27.0781 32.9896 27.7292 32.4688 28.25L28.6406 32.1562H28.5625C27.2604 33.3021 25.8021 33.6146 24.1875 33.0938C18.5625 30.8542 13.8229 27.8333 9.96875 24.0312C5.80208 19.8125 2.78125 15.0729 0.90625 9.8125C0.333333 8.14583 0.697917 6.73958 2 5.59375V5.51562L5.90625 1.53125V1.45312L5.98438 1.375ZM8.09375 3.40625C7.98958 3.30208 7.88542 3.25 7.78125 3.25C7.72917 3.25 7.65104 3.30208 7.54688 3.40625L3.71875 7.23438V7.3125C3.19792 7.72917 3.04167 8.27604 3.25 8.95312C4.96875 13.849 7.80729 18.276 11.7656 22.2344C15.3073 25.776 19.7083 28.5885 24.9688 30.6719C25.6979 30.9323 26.349 30.8021 26.9219 30.2812L30.75 26.5312C30.8542 26.375 30.8542 26.2448 30.75 26.1406L25.5938 21.0625C25.4896 20.9062 25.3854 20.9062 25.2812 21.0625L22.1562 24.1875L21.5312 24.7344L20.75 24.3438C18.4583 23.4062 16.349 22.0521 14.4219 20.2812L14.1875 20.0469C13.25 19.2135 12.4167 18.25 11.6875 17.1562C10.9583 16.0104 10.4375 15.0729 10.125 14.3438L9.65625 13.3281L9.42188 12.5469L9.96875 12L13.0938 8.875C13.25 8.77083 13.3021 8.66667 13.25 8.5625H13.1719L13.0938 8.48438L8.09375 3.40625Z" fill="white"/>
</svg>
