<svg width="392" height="262" viewBox="0 0 392 262" fill="none" xmlns="http://www.w3.org/2000/svg">
<path d="M392 0H0V262H392V0Z" fill="#E3E3E3"/>
<path d="M294.5 7.69922H97.3999V261.999H294.5V7.69922Z" fill="white"/>
<path d="M113.6 12C113.5 12 113.5 12 113.4 12L106.7 18.5C106.7 18.5 106.6 18.6 106.7 18.7C106.7 18.8 106.8 18.8 106.8 18.8H113.5C113.6 18.8 113.7 18.7 113.7 18.6V12.1C113.7 12 113.7 12 113.6 12ZM110.5 15.3L111.8 14.1V18.5H110.5V15.3ZM110.2 18.4H108.9V16.8L110.2 15.6V18.4ZM108.6 17.1V18.4H107.2L108.6 17.1ZM113.4 18.4H112.1V13.7L113.4 12.5V18.4Z" fill="#3F3F3F"/>
<path d="M109.5 14.6992C109.9 14.6992 110.1 14.3992 110.1 14.0992V13.7992C110.1 13.6992 110 13.5992 109.9 13.5992H109.6C109.5 13.5992 109.4 13.6992 109.4 13.7992C109.4 13.8992 109.5 13.9992 109.6 13.9992H109.8V14.1992C109.8 14.3992 109.7 14.4992 109.5 14.4992C109.3 14.4992 109.2 14.3992 109.2 14.1992V13.2992C109.2 13.0992 109.3 12.9992 109.5 12.9992C109.7 12.9992 109.8 13.0992 109.8 13.2992C109.8 13.3992 109.9 13.4992 110 13.4992C110.1 13.4992 110.2 13.3992 110.2 13.2992C110.2 12.9992 109.9 12.6992 109.6 12.6992C109.3 12.6992 109 12.9992 109 13.2992V14.1992C108.9 14.4992 109.2 14.6992 109.5 14.6992Z" fill="#3F3F3F"/>
<path d="M107.5 14.0992H108.3V14.5992C108.3 14.6992 108.4 14.7992 108.5 14.7992C108.6 14.7992 108.7 14.6992 108.7 14.5992V13.6992C108.7 13.5992 108.6 13.4992 108.5 13.4992C108.4 13.4992 108.3 13.5992 108.3 13.6992V13.8992H107.8L108.3 12.8992C108.3 12.7992 108.3 12.6992 108.2 12.6992C108.1 12.6992 108 12.6992 108 12.7992L107.4 13.9992C107.4 13.9992 107.4 14.0992 107.4 14.1992C107.4 14.0992 107.4 14.0992 107.5 14.0992Z" fill="#3F3F3F"/>
<path d="M236.8 13.1992C235.4 13.1992 234.2 14.3992 234.2 15.7992C234.2 16.4992 234.5 17.1992 235 17.5992C234.9 17.6992 234.8 17.8992 234.6 18.0992C234.5 18.1992 234.5 18.3992 234.6 18.4992C234.7 18.4992 234.7 18.5992 234.8 18.5992C234.9 18.5992 235 18.5992 235 18.4992C235 18.4992 235.2 18.1992 235.4 17.9992C235.8 18.2992 236.3 18.3992 236.8 18.3992C237.3 18.3992 237.8 18.1992 238.2 17.9992C238.3 18.1992 238.6 18.4992 238.6 18.4992C238.7 18.5992 238.7 18.5992 238.8 18.5992C238.9 18.5992 238.9 18.5992 239 18.4992C239.1 18.3992 239.1 18.1992 239 18.0992C238.8 17.8992 238.7 17.6992 238.6 17.5992C239.1 17.0992 239.4 16.4992 239.4 15.7992C239.4 14.2992 238.2 13.1992 236.8 13.1992ZM234.7 15.7992C234.7 14.5992 235.6 13.6992 236.8 13.6992C238 13.6992 238.9 14.5992 238.9 15.7992C238.9 16.9992 238 17.8992 236.8 17.8992C235.6 17.8992 234.7 16.8992 234.7 15.7992Z" fill="#3F3F3F"/>
<path d="M236.9 15.4V14.7C236.9 14.6 236.8 14.5 236.7 14.5C236.6 14.5 236.5 14.6 236.5 14.7V15.4C236.4 15.4 236.3 15.5 236.3 15.6H235.1C235 15.6 234.9 15.7 234.9 15.8C234.9 15.9 235 16 235.1 16H236.3C236.4 16.1 236.5 16.2 236.6 16.2C236.8 16.2 237 16 237 15.8C237.2 15.6 237.1 15.5 236.9 15.4Z" fill="#3F3F3F"/>
<path d="M234.1 13.1008C233.7 13.5008 233.7 14.1008 234 14.5008L235.4 13.1008C235.1 12.7008 234.5 12.7008 234.1 13.1008Z" fill="#3F3F3F"/>
<path d="M239.4 13.1008C239 12.7008 238.4 12.7008 238 13.1008L239.4 14.5008C239.8 14.1008 239.8 13.5008 239.4 13.1008Z" fill="#3F3F3F"/>
<path d="M268.2 14.0008H267.5V13.3008C267.5 13.0008 267.3 12.8008 267 12.8008H258.5C258.2 12.8008 258 13.0008 258 13.3008V18.0008C258 18.3008 258.2 18.5008 258.5 18.5008H267C267.3 18.5008 267.5 18.3008 267.5 18.0008V17.3008H268.2C268.5 17.3008 268.7 17.1008 268.7 16.8008V14.5008C268.7 14.2008 268.5 14.0008 268.2 14.0008ZM259 13.8008H261.9V17.5008H259V13.8008Z" fill="#3F3F3F"/>
<path d="M243.2 15.4984H243.7C244 15.4984 244.2 15.3984 244.4 15.2984C244.6 15.1984 244.6 14.9984 244.6 14.6984C244.6 14.0984 244.3 13.8984 243.8 13.8984C243.5 13.8984 243.3 13.9984 243.2 14.0984C243 14.1984 243 14.3984 243 14.6984H242.4C242.4 14.2984 242.5 13.9984 242.8 13.7984C243.1 13.5984 243.4 13.3984 243.8 13.3984C244.2 13.3984 244.6 13.4984 244.8 13.7984C245.1 13.9984 245.2 14.3984 245.2 14.7984C245.2 14.9984 245.1 15.1984 245 15.3984C244.9 15.5984 244.7 15.6984 244.5 15.7984C244.8 15.8984 245 15.9984 245.1 16.1984C245.2 16.3984 245.3 16.5984 245.3 16.8984C245.3 17.2984 245.2 17.6984 244.9 17.8984C244.6 18.0984 244.3 18.2984 243.8 18.2984C243.3 18.2984 243 18.1984 242.7 17.8984C242.4 17.5984 242.3 17.2984 242.3 16.8984H242.9C242.9 17.0984 243 17.2984 243.1 17.4984C243.3 17.5984 243.5 17.6984 243.8 17.6984C244.1 17.6984 244.3 17.5984 244.5 17.4984C244.7 17.2984 244.7 17.0984 244.7 16.7984C244.7 16.4984 244.6 16.2984 244.4 16.1984C244.2 16.0984 244 15.9984 243.7 15.9984H243.2V15.4984Z" fill="#3F3F3F"/>
<path d="M248.4 13.5V14H248.3C247.8 14 247.5 14.1 247.2 14.4C246.9 14.7 246.8 15 246.7 15.5C246.9 15.2 247.3 15.1 247.7 15.1C248.1 15.1 248.4 15.2 248.7 15.5C248.9 15.8 249.1 16.2 249.1 16.6C249.1 17.1 249 17.5 248.7 17.8C248.4 18.1 248.1 18.2 247.6 18.2C247.1 18.2 246.8 18 246.5 17.7C246.2 17.4 246.1 16.9 246.1 16.4V16.2C246.1 15.3 246.3 14.7 246.7 14.2C247.1 13.7 247.6 13.5 248.4 13.5ZM247.6 15.6C247.4 15.6 247.2 15.7 247 15.8C246.8 15.9 246.7 16.1 246.6 16.3V16.5C246.6 16.9 246.7 17.2 246.9 17.4C247.1 17.6 247.3 17.8 247.6 17.8C247.9 17.8 248.1 17.7 248.2 17.5C248.4 17.3 248.4 17 248.4 16.7C248.4 16.4 248.3 16.1 248.2 15.9C248.1 15.7 247.9 15.6 247.6 15.6Z" fill="#3F3F3F"/>
<path d="M251.4 14.3984C251.4 14.0984 251.5 13.8984 251.7 13.6984C251.9 13.4984 252.1 13.3984 252.4 13.3984C252.7 13.3984 252.9 13.4984 253.1 13.6984C253.3 13.8984 253.4 14.0984 253.4 14.3984V14.5984C253.4 14.8984 253.3 15.0984 253.1 15.2984C252.9 15.4984 252.7 15.5984 252.4 15.5984C252.1 15.5984 251.9 15.4984 251.7 15.2984C251.5 15.0984 251.4 14.8984 251.4 14.5984V14.3984ZM251.8 14.5984C251.8 14.7984 251.8 14.8984 251.9 14.9984C252 15.0984 252.1 15.1984 252.3 15.1984C252.5 15.1984 252.6 15.0984 252.7 14.9984C252.8 14.8984 252.8 14.6984 252.8 14.5984V14.3984C252.8 14.1984 252.8 14.0984 252.7 13.9984C252.6 13.8984 252.5 13.7984 252.3 13.7984C252.1 13.7984 252 13.7984 252 13.9984C251.9 14.0984 251.9 14.2984 251.9 14.3984V14.5984H251.8ZM252.5 17.7984L252.2 17.5984L254.5 13.8984L254.8 14.0984L252.5 17.7984ZM253.7 16.9984C253.7 16.6984 253.8 16.4984 254 16.2984C254.2 16.0984 254.4 15.9984 254.7 15.9984C255 15.9984 255.2 16.0984 255.4 16.2984C255.6 16.4984 255.7 16.6984 255.7 16.9984V17.1984C255.7 17.4984 255.6 17.6984 255.4 17.8984C255.2 18.0984 255 18.1984 254.7 18.1984C254.4 18.1984 254.2 18.0984 254 17.8984C253.8 17.6984 253.7 17.4984 253.7 17.1984V16.9984ZM254.1 17.2984C254.1 17.4984 254.1 17.5984 254.2 17.6984C254.3 17.7984 254.4 17.8984 254.6 17.8984C254.8 17.8984 254.9 17.7984 255 17.6984C255.1 17.5984 255.1 17.3984 255.1 17.2984V16.9984C255.1 16.7984 255.1 16.6984 255 16.5984C254.9 16.4984 254.8 16.3984 254.6 16.3984C254.4 16.3984 254.3 16.4984 254.2 16.5984C254.1 16.6984 254.1 16.8984 254.1 16.9984V17.2984Z" fill="#3F3F3F"/>
<path d="M272.6 18.2H272V14.2L270.8 14.6V14.1L272.5 13.5H272.6V18.2Z" fill="#3F3F3F"/>
<path d="M277.5 18.2H274.4V17.8L276 16C276.2 15.7 276.4 15.5 276.5 15.3C276.6 15.1 276.6 14.9 276.6 14.8C276.6 14.6 276.5 14.3 276.4 14.2C276.3 14 276.1 14 275.8 14C275.5 14 275.3 14.1 275.1 14.3C274.9 14.5 274.9 14.7 274.9 15H274.3C274.3 14.6 274.4 14.2 274.7 13.9C275 13.6 275.4 13.5 275.8 13.5C276.2 13.5 276.6 13.6 276.8 13.8C277.1 14 277.2 14.3 277.2 14.7C277.2 15.2 276.9 15.7 276.3 16.4L275 17.8H277.4V18.2H277.5Z" fill="#3F3F3F"/>
<path d="M278.2 17.9016C278.2 17.8016 278.2 17.7016 278.3 17.6016C278.4 17.5016 278.5 17.5016 278.6 17.5016C278.7 17.5016 278.8 17.5016 278.9 17.6016C279 17.7016 279 17.8016 279 17.9016C279 18.0016 279 18.1016 278.9 18.2016C278.8 18.3016 278.7 18.3016 278.6 18.3016C278.5 18.3016 278.4 18.3016 278.3 18.2016C278.2 18.1016 278.2 18.0016 278.2 17.9016ZM278.2 15.0016C278.2 14.9016 278.2 14.8016 278.3 14.7016C278.4 14.6016 278.5 14.6016 278.6 14.6016C278.7 14.6016 278.8 14.6016 278.9 14.7016C279 14.8016 279 14.9016 279 15.0016C279 15.1016 279 15.2016 278.9 15.3016C278.8 15.4016 278.7 15.4016 278.6 15.4016C278.5 15.4016 278.4 15.4016 278.3 15.3016C278.2 15.2016 278.2 15.1016 278.2 15.0016Z" fill="#3F3F3F"/>
<path d="M281.7 18.2H281.1V14.2L279.9 14.6V14.1L281.6 13.5H281.7V18.2Z" fill="#3F3F3F"/>
<path d="M286.6 18.2H283.5V17.8L285.1 16C285.3 15.7 285.5 15.5 285.6 15.3C285.7 15.1 285.7 14.9 285.7 14.8C285.7 14.6 285.6 14.3 285.5 14.2C285.4 14 285.2 14 284.9 14C284.6 14 284.4 14.1 284.2 14.3C284 14.5 284 14.7 284 15H283.4C283.4 14.6 283.5 14.2 283.8 13.9C284.1 13.6 284.5 13.5 284.9 13.5C285.3 13.5 285.7 13.6 285.9 13.8C286.2 14 286.3 14.3 286.3 14.7C286.3 15.2 286 15.7 285.4 16.4L284.1 17.8H286.5V18.2H286.6Z" fill="#3F3F3F"/>
<path d="M138.7 36.0984H136.7V35.3984H141.6V36.0984H139.6V41.9984H138.7V36.0984Z" fill="black"/>
<path d="M142.3 35.3969C142.7 35.2969 143.4 35.2969 143.9 35.2969C144.8 35.2969 145.4 35.4969 145.8 35.7969C146.1 36.0969 146.3 36.4969 146.3 37.0969C146.3 37.9969 145.7 38.5969 145 38.7969C145.5 38.9969 145.8 39.3969 146 40.0969C146.2 40.9969 146.4 41.6969 146.5 41.8969H145.6C145.5 41.6969 145.3 41.0969 145.2 40.2969C145 39.3969 144.6 38.9969 143.9 38.9969H143.1V41.9969H142.2V35.3969H142.3ZM143.2 38.3969H144.1C145 38.3969 145.6 37.8969 145.6 37.0969C145.6 36.1969 145 35.8969 144.1 35.8969C143.7 35.8969 143.4 35.8969 143.3 35.9969V38.3969H143.2Z" fill="black"/>
<path d="M148.5 35.2969V41.9969H147.6V35.3969H148.5V35.2969Z" fill="black"/>
<path d="M150 35.2969H150.9V41.1969H153.7V41.9969H150V35.2969Z" fill="black"/>
<path d="M158.9 41.6977C158.6 41.8977 158 41.9977 157.1 41.9977C155.2 41.9977 153.8 40.7977 153.8 38.5977C153.8 36.4977 155.2 35.0977 157.3 35.0977C158.1 35.0977 158.6 35.2977 158.9 35.3977L158.7 36.0977C158.4 35.8977 157.9 35.7977 157.4 35.7977C155.8 35.7977 154.8 36.7977 154.8 38.4977C154.8 40.0977 155.7 41.1977 157.3 41.1977C157.8 41.1977 158.4 41.0977 158.7 40.8977L158.9 41.6977Z" fill="black"/>
<path d="M163.4 38.8984H160.8V41.2984H163.7V41.9984H160V35.3984H163.6V35.9984H160.9V38.0984H163.5V38.8984H163.4Z" fill="black"/>
<path d="M166.7 40.8992C167.1 41.0992 167.6 41.2992 168.2 41.2992C169.1 41.2992 169.6 40.7992 169.6 40.1992C169.6 39.5992 169.2 39.1992 168.3 38.8992C167.2 38.4992 166.5 37.9992 166.5 36.9992C166.5 35.9992 167.4 35.1992 168.6 35.1992C169.3 35.1992 169.8 35.3992 170.1 35.4992L169.9 36.1992C169.7 36.0992 169.2 35.8992 168.6 35.8992C167.7 35.8992 167.3 36.3992 167.3 36.8992C167.3 37.4992 167.7 37.7992 168.6 38.1992C169.7 38.5992 170.3 39.1992 170.3 40.0992C170.3 41.0992 169.5 41.9992 168 41.9992C167.4 41.9992 166.7 41.7992 166.3 41.5992L166.7 40.8992Z" fill="black"/>
<path d="M172.8 39.8984L172.1 41.9984H171.2L173.5 35.3984H174.5L176.8 41.9984H175.9L175.2 39.8984H172.8ZM175 39.1984L174.4 37.2984C174.3 36.8984 174.2 36.4984 174.1 36.0984C174 36.4984 173.9 36.8984 173.8 37.2984L173.2 39.1984H175Z" fill="black"/>
<path d="M177.7 41.9984V35.3984H178.6L180.7 38.7984C181.2 39.5984 181.6 40.2984 181.9 40.9984C181.8 40.0984 181.8 39.2984 181.8 38.2984V35.4984H182.6V41.9984H181.7L179.6 38.5984C179.1 37.8984 178.7 37.0984 178.4 36.3984C178.4 37.1984 178.5 37.9984 178.5 39.0984V41.9984H177.7Z" fill="black"/>
<path d="M187.2 35.2969V41.9969H186.3V35.3969H187.2V35.2969Z" fill="black"/>
<path d="M188.5 40.8992C188.9 41.0992 189.4 41.2992 190 41.2992C190.9 41.2992 191.4 40.7992 191.4 40.1992C191.4 39.5992 191 39.1992 190.1 38.8992C189 38.4992 188.3 37.9992 188.3 36.9992C188.3 35.9992 189.2 35.1992 190.4 35.1992C191.1 35.1992 191.6 35.3992 191.9 35.4992L191.7 36.1992C191.5 36.0992 191 35.8992 190.4 35.8992C189.5 35.8992 189.1 36.3992 189.1 36.8992C189.1 37.4992 189.5 37.7992 190.4 38.1992C191.5 38.5992 192.1 39.1992 192.1 40.0992C192.1 41.0992 191.3 41.9992 189.8 41.9992C189.2 41.9992 188.5 41.7992 188.1 41.5992L188.5 40.8992Z" fill="black"/>
<path d="M194.4 35.2969V41.9969H193.5V35.3969H194.4V35.2969Z" fill="black"/>
<path d="M195.9 35.3969C196.4 35.2969 197 35.2969 197.7 35.2969C198.9 35.2969 199.8 35.5969 200.4 36.0969C201 36.5969 201.3 37.3969 201.3 38.4969C201.3 39.5969 201 40.4969 200.3 41.0969C199.7 41.6969 198.7 42.0969 197.4 42.0969C196.8 42.0969 196.3 42.0969 195.8 41.9969V35.3969H195.9ZM196.7 41.2969C196.9 41.2969 197.2 41.2969 197.6 41.2969C199.4 41.2969 200.4 40.2969 200.4 38.4969C200.4 36.8969 199.5 35.8969 197.7 35.8969C197.3 35.8969 196.9 35.8969 196.7 35.9969V41.2969Z" fill="black"/>
<path d="M202.4 35.3969C202.8 35.2969 203.5 35.2969 204 35.2969C204.9 35.2969 205.5 35.4969 205.9 35.7969C206.2 36.0969 206.4 36.4969 206.4 37.0969C206.4 37.9969 205.8 38.5969 205.1 38.7969C205.6 38.9969 205.9 39.3969 206.1 40.0969C206.3 40.9969 206.5 41.6969 206.6 41.8969H205.7C205.6 41.6969 205.4 41.0969 205.3 40.2969C205.1 39.3969 204.7 38.9969 204 38.9969H203.2V41.9969H202.3V35.3969H202.4ZM203.3 38.3969H204.2C205.1 38.3969 205.7 37.8969 205.7 37.0969C205.7 36.1969 205.1 35.8969 204.2 35.8969C203.8 35.8969 203.5 35.8969 203.4 35.9969V38.3969H203.3Z" fill="black"/>
<path d="M213.4 38.5992C213.4 40.8992 212 42.0992 210.3 42.0992C208.5 42.0992 207.3 40.6992 207.3 38.6992C207.3 36.5992 208.6 35.1992 210.4 35.1992C212.2 35.1992 213.4 36.5992 213.4 38.5992ZM208.3 38.6992C208.3 40.0992 209.1 41.3992 210.4 41.3992C211.8 41.3992 212.5 40.0992 212.5 38.5992C212.5 37.2992 211.8 35.8992 210.4 35.8992C209 35.8992 208.3 37.1992 208.3 38.6992Z" fill="black"/>
<path d="M112 42.3008C112.1 42.4008 112.4 42.4008 112.5 42.3008C112.6 42.2008 112.6 41.9008 112.5 41.8008L110 39.3008H118.4C118.6 39.3008 118.8 39.1008 118.8 38.9008C118.8 38.7008 118.6 38.5008 118.4 38.5008H110L112.5 36.0008C112.6 35.9008 112.6 35.6008 112.5 35.5008C112.4 35.4008 112.1 35.4008 112 35.5008L108.8 38.7008C108.7 38.8008 108.7 39.1008 108.8 39.2008L112 42.3008Z" fill="black"/>
<path d="M294.6 54H97.5V55.7H294.6V54Z" fill="#EFEFEF"/>
<path d="M111.1 100.9L110.5 102.7H109.7L111.6 97H112.5L114.4 102.7H113.6L113 100.9H111.1ZM113 100.3L112.4 98.7C112.3 98.3 112.2 98 112.1 97.7C112 98 111.9 98.4 111.8 98.7L111.2 100.4H113V100.3Z" fill="#140603"/>
<path d="M119.2 102.498C118.9 102.598 118.4 102.798 117.7 102.798C116.1 102.798 114.9 101.798 114.9 99.8984C114.9 98.0984 116.1 96.8984 117.9 96.8984C118.6 96.8984 119.1 97.0984 119.3 97.1984L119.1 97.7984C118.8 97.6984 118.4 97.5984 117.9 97.5984C116.6 97.5984 115.7 98.4984 115.7 99.9984C115.7 101.398 116.5 102.298 117.9 102.298C118.3 102.298 118.8 102.198 119.1 102.098L119.2 102.498Z" fill="#140603"/>
<path d="M121.1 100.9L120.5 102.7H119.7L121.6 97H122.5L124.4 102.7H123.6L123 100.9H121.1ZM123 100.3L122.4 98.7C122.3 98.3 122.2 98 122.1 97.7C122 98 121.9 98.4 121.8 98.7L121.2 100.4H123V100.3Z" fill="#140603"/>
<path d="M125.4 97.1C125.8 97 126.4 97 127 97C128.1 97 128.8 97.2 129.3 97.7C129.8 98.2 130.1 98.8 130.1 99.7C130.1 100.6 129.8 101.4 129.3 101.9C128.8 102.4 127.9 102.7 126.8 102.7C126.3 102.7 125.8 102.7 125.5 102.6V97.1H125.4ZM126.1 102.1C126.3 102.1 126.6 102.1 126.8 102.1C128.4 102.1 129.2 101.2 129.2 99.7C129.2 98.4 128.4 97.5 126.9 97.5C126.5 97.5 126.2 97.5 126 97.6V102.1H126.1Z" fill="#140603"/>
<path d="M134 100H131.8V102.1H134.3V102.7H131V97H134.1V97.6H131.8V99.4H134V100Z" fill="#140603"/>
<path d="M140 100.2C140 99.4 139.9 98.4 139.9 97.7C139.7 98.4 139.5 99.1 139.2 99.9L138.2 102.7H137.6L136.7 100C136.4 99.2 136.2 98.5 136 97.8C136 98.5 135.9 99.5 135.9 100.3L135.7 102.7H135L135.4 97H136.3L137.3 99.8C137.5 100.5 137.7 101.1 137.9 101.7C138 101.1 138.2 100.5 138.5 99.8L139.5 97H140.4L140.8 102.7H140.1L140 100.2Z" fill="#140603"/>
<path d="M142.7 97V102.7H142V97H142.7Z" fill="#140603"/>
<path d="M144.9 100.9L144.3 102.7H143.5L145.4 97H146.3L148.2 102.7H147.4L146.8 100.9H144.9ZM146.8 100.3L146.2 98.7C146.1 98.3 146 98 145.9 97.7C145.8 98 145.7 98.4 145.6 98.7L145 100.4H146.8V100.3Z" fill="#140603"/>
<path d="M110.8 84.0977H109.5V83.5977H112.6V84.0977H111.3V87.8977H110.7V84.0977H110.8Z" fill="#140603"/>
<path d="M113.7 83.8977C113.7 84.0977 113.6 84.1977 113.3 84.1977C113.1 84.1977 113 83.9977 113 83.8977C113 83.6977 113.1 83.5977 113.3 83.5977C113.5 83.5977 113.7 83.6977 113.7 83.8977ZM113.1 87.7977V84.7977H113.7V87.7977H113.1Z" fill="#140603"/>
<path d="M114.5 85.7992C114.5 85.3992 114.5 85.0992 114.5 84.7992H115V85.2992C115.2 84.8992 115.6 84.6992 116.1 84.6992C116.8 84.6992 117.4 85.2992 117.4 86.1992C117.4 87.2992 116.7 87.7992 116 87.7992C115.6 87.7992 115.2 87.5992 115.1 87.2992V88.9992H114.6V85.7992H114.5ZM115.1 86.5992C115.1 86.6992 115.1 86.7992 115.1 86.7992C115.2 87.1992 115.5 87.3992 115.9 87.3992C116.5 87.3992 116.8 86.8992 116.8 86.1992C116.8 85.5992 116.5 85.0992 115.9 85.0992C115.5 85.0992 115.2 85.3992 115.1 85.7992C115.1 85.8992 115.1 85.9992 115.1 85.9992V86.5992Z" fill="#140603"/>
<path d="M120.9 86.2992C120.9 87.3992 120.1 87.8992 119.4 87.8992C118.6 87.8992 117.9 87.2992 117.9 86.2992C117.9 85.2992 118.6 84.6992 119.4 84.6992C120.3 84.6992 120.9 85.3992 120.9 86.2992ZM118.5 86.2992C118.5 86.9992 118.9 87.4992 119.4 87.4992C119.9 87.4992 120.3 86.9992 120.3 86.2992C120.3 85.7992 120 85.0992 119.4 85.0992C118.8 85.0992 118.5 85.6992 118.5 86.2992Z" fill="#140603"/>
<path d="M125.6 83.3984V87.0984C125.6 87.3984 125.6 87.6984 125.6 87.8984H125.1V87.3984C124.9 87.6984 124.6 87.9984 124.1 87.9984C123.4 87.9984 122.8 87.3984 122.8 86.4984C122.8 85.4984 123.4 84.8984 124.2 84.8984C124.7 84.8984 125 85.0984 125.1 85.3984V83.5984H125.6V83.3984ZM125 85.9984C125 85.8984 125 85.7984 125 85.7984C124.9 85.3984 124.6 85.1984 124.2 85.1984C123.6 85.1984 123.3 85.6984 123.3 86.3984C123.3 86.9984 123.6 87.4984 124.2 87.4984C124.6 87.4984 124.9 87.2984 125 86.7984C125 86.6984 125 86.5984 125 86.5984V85.9984Z" fill="#140603"/>
<path d="M126.8 86.3969C126.8 87.1969 127.3 87.4969 127.8 87.4969C128.2 87.4969 128.4 87.3969 128.6 87.2969L128.7 87.6969C128.5 87.7969 128.2 87.8969 127.7 87.8969C126.8 87.8969 126.2 87.2969 126.2 86.3969C126.2 85.4969 126.7 84.7969 127.6 84.7969C128.6 84.7969 128.9 85.6969 128.9 86.1969C128.9 86.2969 128.9 86.3969 128.9 86.4969H126.8V86.3969ZM128.4 85.9969C128.4 85.5969 128.3 85.0969 127.6 85.0969C127 85.0969 126.8 85.5969 126.7 85.9969H128.4Z" fill="#140603"/>
<path d="M130.9 87.2977C131.1 87.3977 131.4 87.4977 131.6 87.4977C132 87.4977 132.2 87.2977 132.2 86.9977C132.2 86.6977 132 86.5977 131.6 86.3977C131.1 86.1977 130.8 85.8977 130.8 85.4977C130.8 84.9977 131.2 84.5977 131.9 84.5977C132.2 84.5977 132.5 84.6977 132.7 84.7977L132.6 85.1977C132.5 85.0977 132.3 84.9977 132 84.9977C131.7 84.9977 131.5 85.1977 131.5 85.3977C131.5 85.6977 131.7 85.7977 132.1 85.8977C132.6 86.0977 132.9 86.3977 132.9 86.7977C132.9 87.2977 132.5 87.6977 131.8 87.6977C131.5 87.6977 131.2 87.5977 130.9 87.4977V87.2977Z" fill="#140603"/>
<path d="M133.8 86.3969C133.8 87.1969 134.3 87.4969 134.8 87.4969C135.2 87.4969 135.4 87.3969 135.6 87.2969L135.7 87.6969C135.5 87.7969 135.2 87.8969 134.7 87.8969C133.8 87.8969 133.2 87.2969 133.2 86.3969C133.2 85.4969 133.7 84.7969 134.6 84.7969C135.6 84.7969 135.9 85.6969 135.9 86.1969C135.9 86.2969 135.9 86.3969 135.9 86.4969H133.8V86.3969ZM135.4 85.9969C135.4 85.5969 135.3 85.0969 134.6 85.0969C134 85.0969 133.8 85.5969 133.7 85.9969H135.4Z" fill="#140603"/>
<path d="M136.6 85.6977C136.6 85.2977 136.6 84.9977 136.6 84.6977H137.1V85.2977C137.2 84.8977 137.6 84.5977 137.9 84.5977C138 84.5977 138 84.5977 138.1 84.5977V85.0977C138 85.0977 138 85.0977 137.9 85.0977C137.5 85.0977 137.2 85.3977 137.2 85.7977C137.2 85.8977 137.2 85.9977 137.2 86.0977V87.6977H136.7V85.6977H136.6Z" fill="#140603"/>
<path d="M139.1 84.7969L139.7 86.4969C139.8 86.7969 139.9 86.9969 139.9 87.2969C140 86.9969 140.1 86.7969 140.2 86.4969L140.8 84.7969H141.4L140.2 87.7969H139.7L138.5 84.7969H139.1Z" fill="#140603"/>
<path d="M142.5 83.8977C142.5 84.0977 142.4 84.1977 142.1 84.1977C141.9 84.1977 141.8 83.9977 141.8 83.8977C141.8 83.6977 141.9 83.5977 142.1 83.5977C142.4 83.5977 142.5 83.6977 142.5 83.8977ZM141.9 87.7977V84.7977H142.5V87.7977H141.9Z" fill="#140603"/>
<path d="M145.5 87.6992C145.4 87.7992 145 87.8992 144.6 87.8992C143.7 87.8992 143.1 87.2992 143.1 86.2992C143.1 85.3992 143.7 84.6992 144.7 84.6992C145 84.6992 145.3 84.7992 145.5 84.8992L145.4 85.2992C145.3 85.1992 145.1 85.1992 144.8 85.1992C144.1 85.1992 143.7 85.6992 143.7 86.3992C143.7 87.0992 144.2 87.4992 144.8 87.4992C145.1 87.4992 145.3 87.3992 145.5 87.2992V87.6992Z" fill="#140603"/>
<path d="M146.8 83.8977C146.8 84.0977 146.7 84.1977 146.4 84.1977C146.2 84.1977 146.1 83.9977 146.1 83.8977C146.1 83.6977 146.2 83.5977 146.4 83.5977C146.7 83.5977 146.8 83.6977 146.8 83.8977ZM146.2 87.7977V84.7977H146.8V87.7977H146.2Z" fill="#140603"/>
<path d="M150.4 86.2992C150.4 87.3992 149.6 87.8992 148.9 87.8992C148.1 87.8992 147.4 87.2992 147.4 86.2992C147.4 85.2992 148.1 84.6992 148.9 84.6992C149.8 84.6992 150.4 85.3992 150.4 86.2992ZM148 86.2992C148 86.9992 148.4 87.4992 148.9 87.4992C149.4 87.4992 149.8 86.9992 149.8 86.2992C149.8 85.7992 149.5 85.0992 148.9 85.0992C148.3 85.0992 148 85.6992 148 86.2992Z" fill="#140603"/>
<path opacity="0.84" d="M283.4 109H108.5V109.9H283.4V109Z" fill="#3A3A3A"/>
<path d="M110.2 127.799C110.6 127.699 111.1 127.699 111.6 127.699C112.4 127.699 112.9 127.799 113.3 128.199C113.6 128.499 113.7 128.799 113.7 129.299C113.7 130.099 113.2 130.599 112.6 130.799C113 130.999 113.3 131.399 113.4 131.999C113.6 132.799 113.7 133.299 113.8 133.599H113C112.9 133.399 112.8 132.899 112.6 132.199C112.4 131.399 112.1 131.099 111.5 131.099H110.8V133.599H110.1V127.799H110.2ZM110.9 130.399H111.7C112.5 130.399 113 129.999 113 129.299C113 128.599 112.5 128.199 111.7 128.199C111.3 128.199 111.1 128.199 111 128.299V130.399H110.9Z" fill="#140603"/>
<path d="M115.5 127.801V131.201C115.5 132.501 116.1 133.001 116.8 133.001C117.6 133.001 118.2 132.401 118.2 131.201V127.801H118.9V131.101C118.9 132.901 118 133.601 116.7 133.601C115.5 133.601 114.7 132.901 114.7 131.201V127.801H115.5Z" fill="#140603"/>
<path d="M124.2 133.299C123.9 133.399 123.4 133.599 122.7 133.599C121.1 133.599 119.9 132.599 119.9 130.699C119.9 128.899 121.1 127.699 122.9 127.699C123.6 127.699 124.1 127.899 124.3 127.999L124.1 128.599C123.8 128.499 123.4 128.399 122.9 128.399C121.6 128.399 120.7 129.299 120.7 130.799C120.7 132.199 121.5 133.099 122.9 133.099C123.3 133.099 123.8 132.999 124.1 132.899L124.2 133.299Z" fill="#140603"/>
<path d="M130.6 131.401C130.6 132.901 129.6 133.601 128.6 133.601C127.5 133.601 126.6 132.801 126.6 131.501C126.6 130.101 127.5 129.301 128.6 129.301C129.8 129.301 130.6 130.101 130.6 131.401ZM127.4 131.401C127.4 132.301 127.9 133.001 128.6 133.001C129.3 133.001 129.8 132.301 129.8 131.401C129.8 130.701 129.5 129.801 128.6 129.801C127.7 129.801 127.4 130.701 127.4 131.401Z" fill="#140603"/>
<path d="M133.4 127.799C133.8 127.699 134.4 127.699 135 127.699C136.1 127.699 136.8 127.899 137.3 128.399C137.8 128.899 138.1 129.499 138.1 130.399C138.1 131.299 137.8 132.099 137.3 132.599C136.8 133.099 135.9 133.399 134.8 133.399C134.3 133.399 133.8 133.399 133.5 133.299V127.799H133.4ZM134.1 132.899C134.3 132.899 134.6 132.899 134.8 132.899C136.4 132.899 137.2 131.999 137.2 130.499C137.2 129.199 136.4 128.299 134.9 128.299C134.5 128.299 134.2 128.299 134 128.399V132.899H134.1Z" fill="#140603"/>
<path d="M139 133.501V127.801H139.8L141.6 130.701C142 131.401 142.4 132.001 142.6 132.601C142.5 131.801 142.5 131.101 142.5 130.301V127.901H143.2V133.601H142.5L140.7 130.701C140.3 130.101 139.9 129.401 139.6 128.801C139.6 129.501 139.7 130.201 139.7 131.201V133.601H139V133.501Z" fill="#140603"/>
<path d="M145.3 127.801V133.501H144.6V127.801H145.3Z" fill="#140603"/>
<path d="M152.1 131.401C152.1 132.901 151.1 133.601 150.1 133.601C149 133.601 148.1 132.801 148.1 131.501C148.1 130.101 149 129.301 150.1 129.301C151.3 129.301 152.1 130.101 152.1 131.401ZM148.8 131.401C148.8 132.301 149.3 133.001 150 133.001C150.7 133.001 151.2 132.301 151.2 131.401C151.2 130.701 150.9 129.801 150 129.801C149.2 129.801 148.8 130.701 148.8 131.401Z" fill="#140603"/>
<path d="M158.8 133.299C158.5 133.399 158 133.599 157.3 133.599C155.7 133.599 154.5 132.599 154.5 130.699C154.5 128.899 155.7 127.699 157.5 127.699C158.2 127.699 158.7 127.899 158.9 127.999L158.7 128.599C158.4 128.499 158 128.399 157.5 128.399C156.2 128.399 155.3 129.299 155.3 130.799C155.3 132.199 156.1 133.099 157.5 133.099C157.9 133.099 158.4 132.999 158.7 132.899L158.8 133.299Z" fill="#140603"/>
<path d="M162.7 130.801H160.5V132.901H163V133.501H159.8V127.801H162.9V128.401H160.6V130.201H162.8V130.801H162.7Z" fill="#140603"/>
<path d="M113.5 142.801V143.301L111.1 148.301H110.3L112.7 143.401H110V142.801H113.5Z" fill="#140603"/>
<path d="M115.9 143.501L114.9 144.001L114.8 143.401L116 142.801H116.6V148.301H115.9V143.501Z" fill="#140603"/>
<path d="M122.2 142.801V143.301L119.8 148.301H119L121.4 143.401H118.7V142.801H122.2Z" fill="#140603"/>
<path d="M125.3 148.301V146.801H122.7V146.301L125.2 142.801H126V146.201H126.8V146.801H126V148.301H125.3ZM125.3 146.201V144.401C125.3 144.101 125.3 143.801 125.3 143.501C125.1 143.801 125 144.101 124.8 144.301L123.5 146.201H125.3Z" fill="#140603"/>
<path d="M128.9 143.501L127.9 144.001L127.8 143.401L129 142.801H129.6V148.301H128.9V143.501Z" fill="#140603"/>
<path d="M134.9 143.398H132.8L132.6 144.798C132.7 144.798 132.8 144.798 133 144.798C133.4 144.798 133.8 144.898 134.2 145.098C134.6 145.298 135 145.798 135 146.498C135 147.598 134.1 148.398 133 148.398C132.4 148.398 131.9 148.198 131.6 148.098L131.8 147.498C132 147.598 132.5 147.798 133 147.798C133.7 147.798 134.3 147.298 134.3 146.598C134.3 145.898 133.8 145.398 132.7 145.398C132.4 145.398 132.1 145.398 131.9 145.498L132.3 142.898H134.9V143.398Z" fill="#140603"/>
<path d="M136.2 147.401C136.4 147.501 136.9 147.701 137.4 147.701C138.4 147.701 138.7 147.101 138.6 146.601C138.6 145.801 137.9 145.501 137.2 145.501H136.8V145.001H137.2C137.7 145.001 138.4 144.701 138.4 144.101C138.4 143.701 138.1 143.301 137.4 143.301C137 143.301 136.5 143.501 136.3 143.701L136.1 143.201C136.4 143.001 136.9 142.801 137.5 142.801C138.6 142.801 139.1 143.401 139.1 144.101C139.1 144.701 138.8 145.101 138.1 145.401C138.8 145.501 139.3 146.001 139.3 146.801C139.3 147.701 138.6 148.501 137.3 148.501C136.7 148.501 136.1 148.301 135.9 148.101L136.2 147.401Z" fill="#140603"/>
<path d="M144 145.499C144 147.399 143.3 148.399 142.1 148.399C141 148.399 140.3 147.399 140.3 145.599C140.3 143.799 141.1 142.699 142.2 142.699C143.3 142.699 144 143.699 144 145.499ZM141 145.499C141 146.899 141.4 147.699 142.1 147.699C142.9 147.699 143.2 146.799 143.2 145.399C143.2 143.999 142.9 143.199 142.1 143.199C141.5 143.199 141 143.999 141 145.499Z" fill="#140603"/>
<path opacity="0.84" d="M283.4 154.5H108.5V155.4H283.4V154.5Z" fill="#822FDF"/>
<path d="M279.9 100.8L277.1 98C276.9 97.8 276.9 97.5 277.1 97.4C277.3 97.2 277.6 97.2 277.7 97.4L280.2 99.9L282.7 97.4C282.9 97.2 283.2 97.2 283.3 97.4C283.5 97.6 283.5 97.9 283.3 98L280.5 100.8C280.4 100.9 280.3 100.9 280.2 100.9C280.1 100.9 279.9 100.8 279.9 100.8Z" fill="#1C1445"/>
<path d="M144.3 150.699H108.9V151.599H144.3V150.699Z" fill="#140603"/>
<path opacity="0.84" d="M145.5 141.398H145.1V151.698H145.5V141.398Z" fill="#822FDF"/>
<path d="M171.7 161H100.2V118H171.7V161ZM104.2 157H167.7V122H104.2V157Z" fill="#FF4200"/>
</svg>
