<svg width="392" height="262" viewBox="0 0 392 262" fill="none" xmlns="http://www.w3.org/2000/svg">
<g clip-path="url(#clip0)">
<path d="M12.3001 115.9L13.9001 113H10.6001L12.3001 115.9Z" fill="white"/>
<path d="M392 36.5H0V82.3H392V36.5Z" fill="white"/>
<path d="M392 102.5H0V123.7H392V102.5Z" fill="#333333"/>
<path d="M392 123.602H0V262.002H392V123.602Z" fill="#FF031D"/>
<path d="M392 80.3008H0V102.501H392V80.3008Z" fill="#EFEFEF"/>
<path d="M392 0H0V8.5H392V0Z" fill="#DEE2E7"/>
<path d="M392 8.5H0V24.7H392V8.5Z" fill="#F1F3F4"/>
<path d="M392 24.6992H0V40.7992H392V24.6992Z" fill="#E3E3E3"/>
<path d="M148.6 30.1016H115.9V40.7016H148.6V30.1016Z" fill="#7E7E7E"/>
<path d="M121.4 35.8992L121 37.1992H120.5L121.9 33.1992H122.5L123.9 37.1992H123.4L123 35.8992H121.4ZM122.7 35.4992L122.3 34.3992C122.2 34.0992 122.2 33.8992 122.1 33.6992C122 33.8992 122 34.1992 121.9 34.3992L121.5 35.5992H122.7V35.4992Z" fill="white"/>
<path d="M126.3 37.1008C126.2 37.2008 125.9 37.3008 125.5 37.3008C124.6 37.3008 124.1 36.7008 124.1 35.8008C124.1 34.9008 124.7 34.3008 125.6 34.3008C125.9 34.3008 126.2 34.4008 126.3 34.4008L126.2 34.8008C126.1 34.7008 125.9 34.7008 125.6 34.7008C124.9 34.7008 124.6 35.2008 124.6 35.8008C124.6 36.5008 125 36.9008 125.6 36.9008C125.9 36.9008 126.1 36.8008 126.2 36.8008L126.3 37.1008Z" fill="white"/>
<path d="M127.2 35.9C127.2 36.6 127.7 36.9 128.2 36.9C128.6 36.9 128.8 36.8 129 36.8L129.1 37.2C128.9 37.3 128.6 37.4 128.1 37.4C127.2 37.4 126.7 36.8 126.7 36C126.7 35.2 127.2 34.5 128 34.5C128.9 34.5 129.2 35.3 129.2 35.8C129.2 35.9 129.2 36 129.2 36H127.2V35.9ZM128.7 35.5C128.7 35.2 128.6 34.7 128 34.7C127.5 34.7 127.2 35.2 127.2 35.5H128.7Z" fill="white"/>
<path d="M129.8 35.2008C129.8 34.9008 129.8 34.6008 129.8 34.3008H130.3V34.9008C130.4 34.5008 130.7 34.3008 131.1 34.3008C131.2 34.3008 131.2 34.3008 131.2 34.3008V34.8008C131.1 34.8008 131.1 34.8008 131 34.8008C130.6 34.8008 130.4 35.1008 130.3 35.5008C130.3 35.6008 130.3 35.7008 130.3 35.7008V37.2008H129.8V35.2008Z" fill="white"/>
<path d="M133.7 37.1008C133.6 37.2008 133.3 37.3008 132.9 37.3008C132 37.3008 131.5 36.7008 131.5 35.8008C131.5 34.9008 132.1 34.3008 133 34.3008C133.3 34.3008 133.6 34.4008 133.7 34.4008L133.6 34.8008C133.5 34.7008 133.3 34.7008 133 34.7008C132.3 34.7008 132 35.2008 132 35.8008C132 36.5008 132.4 36.9008 133 36.9008C133.3 36.9008 133.5 36.8008 133.6 36.8008L133.7 37.1008Z" fill="white"/>
<path d="M135.9 37.2016V36.8016C135.7 37.0016 135.4 37.2016 135 37.2016C134.4 37.2016 134.1 36.8016 134.1 36.4016C134.1 35.7016 134.7 35.3016 135.8 35.3016V35.2016C135.8 35.0016 135.7 34.5016 135.2 34.5016C134.9 34.5016 134.7 34.6016 134.5 34.7016L134.4 34.4016C134.6 34.2016 135 34.1016 135.3 34.1016C136.2 34.1016 136.4 34.7016 136.4 35.3016V36.4016C136.4 36.6016 136.4 36.9016 136.4 37.1016H135.9V37.2016ZM135.8 35.7016C135.2 35.7016 134.6 35.8016 134.6 36.3016C134.6 36.6016 134.8 36.8016 135.1 36.8016C135.5 36.8016 135.7 36.6016 135.8 36.3016C135.8 36.2016 135.8 36.2016 135.8 36.1016V35.7016Z" fill="white"/>
<path d="M140.9 33V36.5C140.9 36.8 140.9 37 140.9 37.2H140.4V36.7C140.2 37 139.9 37.3 139.4 37.3C138.7 37.3 138.2 36.7 138.2 35.8C138.2 34.8 138.8 34.3 139.5 34.3C139.9 34.3 140.2 34.5 140.4 34.7V33H140.9ZM140.4 35.5C140.4 35.4 140.4 35.3 140.4 35.3C140.3 35 140 34.7 139.6 34.7C139.1 34.7 138.7 35.2 138.7 35.8C138.7 36.4 139 36.9 139.5 36.9C139.8 36.9 140.2 36.7 140.3 36.3C140.3 36.2 140.3 36.2 140.3 36.1V35.5H140.4Z" fill="white"/>
<path d="M142.1 35.9C142.1 36.6 142.6 36.9 143.1 36.9C143.5 36.9 143.7 36.8 143.9 36.8L144 37.2C143.8 37.3 143.5 37.4 143 37.4C142.1 37.4 141.6 36.8 141.6 36C141.6 35.2 142.1 34.5 142.9 34.5C143.8 34.5 144.1 35.3 144.1 35.8C144.1 35.9 144.1 36 144.1 36H142.1V35.9ZM143.6 35.5C143.6 35.2 143.5 34.7 142.9 34.7C142.4 34.7 142.1 35.2 142.1 35.5H143.6Z" fill="white"/>
<path d="M111.3 30.1016H78.6001V40.7016H111.3V30.1016Z" fill="#7E7E7E"/>
<path d="M85.5 35.3016H84V36.7016H85.7V37.1016H83.5V33.1016H85.6V33.5016H84V34.8016H85.5V35.3016Z" fill="white"/>
<path d="M86.3 35.1008C86.3 34.8008 86.3 34.6008 86.3 34.3008H86.8V34.8008C87 34.5008 87.2 34.3008 87.7 34.3008C88.1 34.3008 88.4 34.5008 88.5 34.9008C88.6 34.7008 88.7 34.6008 88.8 34.5008C89 34.4008 89.2 34.3008 89.4 34.3008C89.8 34.3008 90.3 34.5008 90.3 35.5008V37.2008H89.8V35.6008C89.8 35.1008 89.6 34.7008 89.2 34.7008C88.9 34.7008 88.7 34.9008 88.6 35.2008C88.6 35.3008 88.6 35.4008 88.6 35.5008V37.3008H88.1V35.6008C88.1 35.1008 87.9 34.8008 87.5 34.8008C87.2 34.8008 86.9 35.1008 86.9 35.3008C86.9 35.4008 86.9 35.5008 86.9 35.6008V37.3008H86.4V35.1008H86.3Z" fill="white"/>
<path d="M91.2 35.3008C91.2 34.9008 91.2 34.6008 91.2 34.4008H91.7V34.9008C91.9 34.6008 92.2 34.3008 92.7 34.3008C93.4 34.3008 93.9 34.9008 93.9 35.8008C93.9 36.8008 93.3 37.3008 92.6 37.3008C92.2 37.3008 91.9 37.1008 91.7 36.9008V38.5008H91.2V35.3008ZM91.7 36.0008C91.7 36.1008 91.7 36.1008 91.7 36.2008C91.8 36.6008 92.1 36.8008 92.5 36.8008C93 36.8008 93.4 36.4008 93.4 35.7008C93.4 35.1008 93.1 34.6008 92.5 34.6008C92.1 34.6008 91.8 34.9008 91.7 35.2008C91.7 35.3008 91.7 35.3008 91.7 35.4008V36.0008Z" fill="white"/>
<path d="M94.6 35.2008C94.6 34.9008 94.6 34.6008 94.6 34.3008H95V34.9008C95.1 34.5008 95.4 34.3008 95.8 34.3008C95.9 34.3008 95.9 34.3008 95.9 34.3008V34.8008C95.8 34.8008 95.8 34.8008 95.7 34.8008C95.3 34.8008 95.1 35.1008 95 35.5008C95 35.6008 95 35.7008 95 35.7008V37.2008H94.5V35.2008H94.6Z" fill="white"/>
<path d="M96.8 35.9C96.8 36.6 97.3 36.9 97.8 36.9C98.2 36.9 98.4 36.8 98.6 36.8L98.7 37.2C98.5 37.3 98.2 37.4 97.7 37.4C96.8 37.4 96.3 36.8 96.3 36C96.3 35.2 96.8 34.5 97.6 34.5C98.5 34.5 98.8 35.3 98.8 35.8C98.8 35.9 98.8 36 98.8 36H96.8V35.9ZM98.3 35.5C98.3 35.2 98.2 34.7 97.6 34.7C97.1 34.7 96.8 35.2 96.8 35.5H98.3Z" fill="white"/>
<path d="M99.3 36.7023C99.5 36.8023 99.7 36.9023 100 36.9023C100.4 36.9023 100.6 36.7023 100.6 36.5023C100.6 36.3023 100.5 36.1023 100.1 36.0023C99.6 35.8023 99.3 35.5023 99.3 35.2023C99.3 34.7023 99.7 34.4023 100.3 34.4023C100.6 34.4023 100.8 34.5023 101 34.6023L100.9 35.0023C100.8 34.9023 100.6 34.8023 100.3 34.8023C100 34.8023 99.8 35.0023 99.8 35.2023C99.8 35.4023 100 35.5023 100.3 35.7023C100.8 35.9023 101.1 36.1023 101.1 36.6023C101.1 37.1023 100.7 37.5023 100 37.5023C99.7 37.5023 99.4 37.4023 99.2 37.3023L99.3 36.7023Z" fill="white"/>
<path d="M103.3 37.2016V36.8016C103.1 37.0016 102.8 37.2016 102.4 37.2016C101.8 37.2016 101.5 36.8016 101.5 36.4016C101.5 35.7016 102.1 35.3016 103.2 35.3016V35.2016C103.2 35.0016 103.1 34.5016 102.6 34.5016C102.3 34.5016 102.1 34.6016 101.9 34.7016L101.8 34.4016C102 34.2016 102.4 34.1016 102.7 34.1016C103.6 34.1016 103.8 34.7016 103.8 35.3016V36.4016C103.8 36.6016 103.8 36.9016 103.8 37.1016H103.3V37.2016ZM103.3 35.7016C102.7 35.7016 102.1 35.8016 102.1 36.3016C102.1 36.6016 102.3 36.8016 102.6 36.8016C103 36.8016 103.2 36.6016 103.3 36.3016C103.3 36.2016 103.3 36.2016 103.3 36.1016V35.7016Z" fill="white"/>
<path d="M104.5 36.7023C104.7 36.8023 104.9 36.9023 105.2 36.9023C105.6 36.9023 105.8 36.7023 105.8 36.5023C105.8 36.3023 105.7 36.1023 105.3 36.0023C104.8 35.8023 104.5 35.5023 104.5 35.2023C104.5 34.7023 104.9 34.4023 105.5 34.4023C105.8 34.4023 106 34.5023 106.2 34.6023L106.1 35.0023C106 34.9023 105.8 34.8023 105.5 34.8023C105.2 34.8023 105 35.0023 105 35.2023C105 35.4023 105.2 35.5023 105.5 35.7023C106 35.9023 106.3 36.1023 106.3 36.6023C106.3 37.1023 105.9 37.5023 105.2 37.5023C104.9 37.5023 104.6 37.4023 104.4 37.3023L104.5 36.7023Z" fill="white"/>
<path d="M23.7001 111.303C24.0001 111.303 24.4001 111.203 24.9001 111.203C25.5001 111.203 26.0001 111.303 26.2001 111.603C26.5001 111.803 26.6001 112.203 26.6001 112.603C26.6001 113.003 26.5001 113.403 26.2001 113.603C25.9001 113.903 25.3001 114.103 24.7001 114.103C24.5001 114.103 24.3001 114.103 24.2001 114.103V116.003H23.6001V111.303H23.7001ZM24.4001 113.603C24.5001 113.603 24.7001 113.603 24.9001 113.603C25.6001 113.603 26.1001 113.203 26.1001 112.603C26.1001 112.003 25.7001 111.703 25.0001 111.703C24.7001 111.703 24.5001 111.703 24.4001 111.703V113.603Z" fill="white"/>
<path d="M27.4001 113.602C27.4001 113.202 27.4001 112.802 27.4001 112.502H27.9001V113.202C28.1001 112.702 28.4001 112.402 28.8001 112.402C28.9001 112.402 28.9001 112.402 29.0001 112.402V113.002C28.9001 113.002 28.9001 113.002 28.8001 113.002C28.4001 113.002 28.0001 113.302 28.0001 113.802C28.0001 113.902 28.0001 114.002 28.0001 114.102V115.902H27.4001V113.602Z" fill="white"/>
<path d="M30.0001 114.402C30.0001 115.202 30.6001 115.602 31.2001 115.602C31.6001 115.602 31.9001 115.502 32.1001 115.402L32.2001 115.802C32.0001 115.902 31.6001 116.002 31.1001 116.002C30.0001 116.002 29.4001 115.302 29.4001 114.302C29.4001 113.302 30.0001 112.502 31.0001 112.502C32.1001 112.502 32.4001 113.502 32.4001 114.102C32.4001 114.202 32.4001 114.302 32.4001 114.402H30.0001ZM31.8001 114.002C31.8001 113.602 31.6001 113.002 30.9001 113.002C30.3001 113.002 30.0001 113.602 29.9001 114.002H31.8001ZM31.9001 111.102L31.0001 112.102H30.6001L31.2001 111.102H31.9001Z" fill="white"/>
<path d="M33.1001 115.4C33.3001 115.5 33.6001 115.6 33.9001 115.6C34.4001 115.6 34.6001 115.4 34.6001 115.1C34.6001 114.8 34.4001 114.6 34.0001 114.5C33.4001 114.3 33.1001 113.9 33.1001 113.5C33.1001 112.9 33.5001 112.5 34.3001 112.5C34.6001 112.5 35.0001 112.6 35.1001 112.7L34.9001 113.2C34.8001 113.1 34.5001 113 34.2001 113C33.8001 113 33.6001 113.2 33.6001 113.5C33.6001 113.8 33.8001 113.9 34.3001 114.1C34.9001 114.3 35.2001 114.6 35.2001 115.1C35.2001 115.7 34.7001 116.1 33.9001 116.1C33.5001 116.1 33.2001 116 32.9001 115.9L33.1001 115.4Z" fill="white"/>
<path d="M36.7001 111.602V112.602H37.6001V113.102H36.7001V114.902C36.7001 115.302 36.8001 115.602 37.2001 115.602C37.4001 115.602 37.5001 115.602 37.6001 115.602V116.102C37.5001 116.102 37.3001 116.202 37.0001 116.202C36.7001 116.202 36.5001 116.102 36.3001 115.902C36.1001 115.702 36.1001 115.402 36.1001 115.002V113.102H35.6001V112.602H36.1001V111.802L36.7001 111.602Z" fill="white"/>
<path d="M40.2002 116V115.6C40.0002 115.9 39.6002 116.1 39.2002 116.1C38.5002 116.1 38.2002 115.6 38.2002 115.1C38.2002 114.3 38.9002 113.8 40.3002 113.8V113.7C40.3002 113.4 40.2002 112.9 39.5002 112.9C39.2002 112.9 38.8002 113 38.6002 113.2L38.5002 112.8C38.8002 112.6 39.2002 112.5 39.6002 112.5C40.6002 112.5 40.9002 113.2 40.9002 113.9V115.2C40.9002 115.5 40.9002 115.8 41.0002 116H40.2002ZM40.1002 114.3C39.4002 114.3 38.6002 114.4 38.6002 115.1C38.6002 115.5 38.9002 115.7 39.2002 115.7C39.6002 115.7 39.9002 115.4 40.0002 115.1C40.0002 115 40.0002 115 40.0002 114.9V114.3H40.1002Z" fill="white"/>
<path d="M41.7002 113.502C41.7002 113.102 41.7002 112.902 41.7002 112.602H42.2002V113.202C42.4002 112.902 42.7002 112.602 43.3002 112.602C43.8002 112.602 44.1002 112.902 44.3002 113.302C44.4002 113.102 44.5002 113.002 44.7002 112.902C44.9002 112.702 45.1002 112.702 45.5002 112.702C46.0002 112.702 46.6002 113.002 46.6002 114.202V116.202H46.0002V114.302C46.0002 113.602 45.8002 113.202 45.3002 113.202C44.9002 113.202 44.7002 113.502 44.6002 113.802C44.6002 113.902 44.6002 114.002 44.6002 114.102V116.202H44.0002V114.002C44.0002 113.502 43.8002 113.102 43.3002 113.102C42.9002 113.102 42.6002 113.402 42.5002 113.702C42.5002 113.802 42.5002 113.902 42.5002 114.002V116.102H41.9002V113.502H41.7002Z" fill="white"/>
<path d="M50.7001 114.3C50.7001 115.6 49.8001 116.1 49.0001 116.1C48.1001 116.1 47.4001 115.4 47.4001 114.3C47.4001 113.2 48.2001 112.5 49.1001 112.5C50.1001 112.5 50.7001 113.2 50.7001 114.3ZM48.0001 114.3C48.0001 115.1 48.4001 115.6 49.0001 115.6C49.6001 115.6 50.0001 115 50.0001 114.3C50.0001 113.7 49.7001 113 49.0001 113C48.3001 113 48.0001 113.6 48.0001 114.3Z" fill="white"/>
<path d="M51.4002 115.4C51.6002 115.5 51.9002 115.6 52.2002 115.6C52.7002 115.6 52.9002 115.4 52.9002 115.1C52.9002 114.8 52.7002 114.6 52.3002 114.5C51.7002 114.3 51.4002 113.9 51.4002 113.5C51.4002 112.9 51.8002 112.5 52.6002 112.5C52.9002 112.5 53.3002 112.6 53.4002 112.7L53.2002 113.2C53.1002 113.1 52.8002 113 52.5002 113C52.1002 113 51.9002 113.2 51.9002 113.5C51.9002 113.8 52.1002 113.9 52.6002 114.1C53.2002 114.3 53.5002 114.6 53.5002 115.1C53.5002 115.7 53.0002 116.1 52.2002 116.1C51.8002 116.1 51.5002 116 51.2002 115.9L51.4002 115.4Z" fill="white"/>
<path d="M72.6001 111.303C73.0001 111.203 73.4001 111.203 73.9001 111.203C74.8001 111.203 75.4001 111.403 75.8001 111.803C76.2001 112.203 76.5001 112.703 76.5001 113.503C76.5001 114.303 76.3001 114.903 75.8001 115.403C75.4001 115.803 74.6001 116.103 73.7001 116.103C73.3001 116.103 72.9001 116.103 72.6001 116.003V111.303ZM73.2001 115.503C73.4001 115.503 73.6001 115.503 73.8001 115.503C75.1001 115.503 75.8001 114.803 75.8001 113.503C75.8001 112.403 75.2001 111.703 73.9001 111.703C73.6001 111.703 73.3001 111.703 73.2001 111.803V115.503Z" fill="white"/>
<path d="M77.7001 114.4C77.7001 115.2 78.3001 115.6 78.9001 115.6C79.3001 115.6 79.6001 115.5 79.8001 115.4L79.9001 115.8C79.7001 115.9 79.3001 116 78.8001 116C77.7001 116 77.1001 115.3 77.1001 114.3C77.1001 113.3 77.7001 112.5 78.7001 112.5C79.8001 112.5 80.1001 113.5 80.1001 114.1C80.1001 114.2 80.1001 114.3 80.1001 114.4H77.7001ZM79.5001 114C79.5001 113.6 79.3001 113 78.6001 113C78.0001 113 77.7001 113.6 77.6001 114H79.5001Z" fill="white"/>
<path d="M80.9001 113.7C80.9001 113.3 80.9001 112.9 80.9001 112.6H81.5001V113.2C81.8001 112.8 82.2001 112.5 82.7001 112.5C83.5001 112.5 84.2001 113.2 84.2001 114.2C84.2001 115.4 83.4001 116 82.6001 116C82.1001 116 81.8001 115.8 81.5001 115.5V117.4H80.9001V113.7ZM81.5001 114.6C81.5001 114.7 81.5001 114.8 81.5001 114.9C81.6001 115.3 82.0001 115.6 82.4001 115.6C83.1001 115.6 83.4001 115.1 83.4001 114.3C83.4001 113.6 83.0001 113 82.4001 113C82.0001 113 81.6001 113.3 81.5001 113.8C81.5001 113.9 81.5001 114 81.5001 114.1V114.6Z" fill="white"/>
<path d="M88.0002 114.302C88.0002 115.602 87.1002 116.102 86.3002 116.102C85.4002 116.102 84.7002 115.402 84.7002 114.302C84.7002 113.202 85.5002 112.502 86.4002 112.502C87.3002 112.502 88.0002 113.202 88.0002 114.302ZM85.3002 114.302C85.3002 115.102 85.7002 115.602 86.3002 115.602C86.9002 115.602 87.3002 115.002 87.3002 114.302C87.3002 113.702 87.0002 113.002 86.3002 113.002C85.6002 113.002 85.3002 113.602 85.3002 114.302ZM87.2002 111.102L86.3002 112.102H85.9002L86.5002 111.102H87.2002Z" fill="white"/>
<path d="M88.7 115.4C88.9 115.5 89.2 115.6 89.5 115.6C90 115.6 90.2 115.4 90.2 115.1C90.2 114.8 90 114.6 89.6 114.5C89 114.3 88.7 113.9 88.7 113.5C88.7 112.9 89.1 112.5 89.9 112.5C90.2 112.5 90.6 112.6 90.7 112.7L90.5 113.2C90.4 113.1 90.1 113 89.8 113C89.4 113 89.2 113.2 89.2 113.5C89.2 113.8 89.4 113.9 89.9 114.1C90.5 114.3 90.8 114.6 90.8 115.1C90.8 115.7 90.3 116.1 89.5 116.1C89.1 116.1 88.8 116 88.5 115.9L88.7 115.4Z" fill="white"/>
<path d="M92.3 111.603C92.3 111.803 92.2 112.003 91.9 112.003C91.7 112.003 91.5 111.803 91.5 111.603C91.5 111.403 91.7 111.203 91.9 111.203C92.1 111.203 92.3 111.403 92.3 111.603ZM91.6 116.003V112.603H92.2V116.003H91.6Z" fill="white"/>
<path d="M94.0001 111.602V112.602H94.9001V113.102H94.0001V114.902C94.0001 115.302 94.1001 115.602 94.5001 115.602C94.7001 115.602 94.8001 115.602 94.9001 115.602V116.102C94.8001 116.102 94.6001 116.202 94.3001 116.202C94.0001 116.202 93.8001 116.102 93.6001 115.902C93.4001 115.702 93.4001 115.402 93.4001 115.002V113.102H92.9001V112.602H93.4001V111.802L94.0001 111.602Z" fill="white"/>
<path d="M98.6 114.3C98.6 115.6 97.7 116.1 96.9 116.1C96 116.1 95.3 115.4 95.3 114.3C95.3 113.2 96.1 112.5 97 112.5C98 112.5 98.6 113.2 98.6 114.3ZM95.9 114.3C95.9 115.1 96.3 115.6 96.9 115.6C97.5 115.6 97.9 115 97.9 114.3C97.9 113.7 97.6 113 96.9 113C96.2 113 95.9 113.6 95.9 114.3Z" fill="white"/>
<path d="M99.3001 115.4C99.5001 115.5 99.8001 115.6 100.1 115.6C100.6 115.6 100.8 115.4 100.8 115.1C100.8 114.8 100.6 114.6 100.2 114.5C99.6001 114.3 99.3001 113.9 99.3001 113.5C99.3001 112.9 99.7001 112.5 100.5 112.5C100.8 112.5 101.2 112.6 101.3 112.7L101.1 113.2C101 113.1 100.7 113 100.4 113C100 113 99.8001 113.2 99.8001 113.5C99.8001 113.8 100 113.9 100.5 114.1C101.1 114.3 101.4 114.6 101.4 115.1C101.4 115.7 100.9 116.1 100.1 116.1C99.7001 116.1 99.4001 116 99.1001 115.9L99.3001 115.4Z" fill="white"/>
<path d="M104.1 114.4C104.1 115.2 104.7 115.6 105.3 115.6C105.7 115.6 106 115.5 106.2 115.4L106.3 115.8C106.1 115.9 105.7 116 105.2 116C104.1 116 103.5 115.3 103.5 114.3C103.5 113.3 104.1 112.5 105.1 112.5C106.2 112.5 106.5 113.5 106.5 114.1C106.5 114.2 106.5 114.3 106.5 114.4H104.1ZM105.9 114C105.9 113.6 105.7 113 105 113C104.4 113 104.1 113.6 104 114H105.9Z" fill="white"/>
<path d="M109.4 111.203V116.003H108.8V111.203H109.4Z" fill="white"/>
<path d="M110.5 113.502C110.5 113.102 110.5 112.902 110.5 112.602H111.1V113.202C111.3 112.902 111.7 112.602 112.2 112.602C112.7 112.602 113.4 112.902 113.4 114.102V116.102H112.8V114.102C112.8 113.502 112.6 113.102 112 113.102C111.6 113.102 111.3 113.402 111.2 113.702C111.2 113.802 111.2 113.902 111.2 114.002V116.102H110.6V113.502H110.5Z" fill="white"/>
<path d="M114.6 112.602L115.3 114.502C115.4 114.802 115.5 115.102 115.6 115.402C115.7 115.102 115.8 114.802 115.9 114.502L116.6 112.602H117.3L116 116.002H115.4L114.1 112.602H114.6Z" fill="white"/>
<path d="M118.1 114.4C118.1 115.2 118.7 115.6 119.3 115.6C119.7 115.6 120 115.5 120.2 115.4L120.3 115.8C120.1 115.9 119.7 116 119.2 116C118.1 116 117.5 115.3 117.5 114.3C117.5 113.3 118.1 112.5 119.1 112.5C120.2 112.5 120.5 113.5 120.5 114.1C120.5 114.2 120.5 114.3 120.5 114.4H118.1ZM119.9 114C119.9 113.6 119.7 113 119 113C118.4 113 118.1 113.6 118 114H119.9Z" fill="white"/>
<path d="M121.3 113.602C121.3 113.202 121.3 112.802 121.3 112.502H121.8V113.202C122 112.702 122.3 112.402 122.7 112.402C122.8 112.402 122.8 112.402 122.9 112.402V113.002C122.8 113.002 122.8 113.002 122.7 113.002C122.3 113.002 121.9 113.302 121.9 113.802C121.9 113.902 121.9 114.002 121.9 114.102V115.902H121.3V113.602Z" fill="white"/>
<path d="M123.5 115.4C123.7 115.5 124 115.6 124.3 115.6C124.8 115.6 125 115.4 125 115.1C125 114.8 124.8 114.6 124.4 114.5C123.8 114.3 123.5 113.9 123.5 113.5C123.5 112.9 123.9 112.5 124.7 112.5C125 112.5 125.4 112.6 125.5 112.7L125.3 113.2C125.2 113.1 124.9 113 124.6 113C124.2 113 124 113.2 124 113.5C124 113.8 124.2 113.9 124.7 114.1C125.3 114.3 125.6 114.6 125.6 115.1C125.6 115.7 125.1 116.1 124.3 116.1C123.9 116.1 123.6 116 123.3 115.9L123.5 115.4Z" fill="white"/>
<path d="M127.1 111.603C127.1 111.803 127 112.003 126.7 112.003C126.5 112.003 126.3 111.803 126.3 111.603C126.3 111.403 126.5 111.203 126.7 111.203C126.9 111.203 127.1 111.403 127.1 111.603ZM126.4 116.003V112.603H127V116.003H126.4Z" fill="white"/>
<path d="M131.1 114.302C131.1 115.602 130.2 116.102 129.4 116.102C128.5 116.102 127.8 115.402 127.8 114.302C127.8 113.202 128.6 112.502 129.5 112.502C130.5 112.502 131.1 113.202 131.1 114.302ZM128.4 114.302C128.4 115.102 128.8 115.602 129.4 115.602C130 115.602 130.4 115.002 130.4 114.302C130.4 113.702 130.1 113.002 129.4 113.002C128.7 113.002 128.4 113.602 128.4 114.302ZM130.4 111.102L129.5 112.102H129.1L129.7 111.102H130.4Z" fill="white"/>
<path d="M131.9 113.502C131.9 113.102 131.9 112.902 131.9 112.602H132.5V113.202C132.7 112.902 133.1 112.602 133.6 112.602C134.1 112.602 134.8 112.902 134.8 114.102V116.102H134.2V114.102C134.2 113.502 134 113.102 133.4 113.102C133 113.102 132.7 113.402 132.6 113.702C132.6 113.802 132.6 113.902 132.6 114.002V116.102H132V113.502H131.9Z" fill="white"/>
<path d="M153.5 115.299C153.8 115.499 154.2 115.599 154.6 115.599C155.2 115.599 155.6 115.299 155.6 114.799C155.6 114.399 155.3 114.099 154.7 113.899C153.9 113.599 153.4 113.199 153.4 112.499C153.4 111.799 154 111.199 154.9 111.199C155.4 111.199 155.7 111.299 156 111.399L155.8 111.899C155.6 111.799 155.3 111.699 154.9 111.699C154.2 111.699 154 112.099 154 112.399C154 112.799 154.3 113.099 154.9 113.299C155.7 113.599 156.1 113.999 156.1 114.699C156.1 115.399 155.6 116.099 154.4 116.099C153.9 116.099 153.4 115.999 153.2 115.799L153.5 115.299Z" fill="white"/>
<path d="M157.4 114.4C157.4 115.2 158 115.6 158.6 115.6C159 115.6 159.3 115.5 159.5 115.4L159.6 115.8C159.4 115.9 159 116 158.5 116C157.4 116 156.8 115.3 156.8 114.3C156.8 113.3 157.4 112.5 158.4 112.5C159.5 112.5 159.8 113.5 159.8 114.1C159.8 114.2 159.8 114.3 159.8 114.4H157.4ZM159.2 114C159.2 113.6 159 113 158.3 113C157.7 113 157.4 113.6 157.3 114H159.2Z" fill="white"/>
<path d="M163.6 112.6C163.6 112.8 163.6 113.1 163.6 113.5V115.5C163.6 116.3 163.4 116.8 163.1 117.1C162.8 117.4 162.3 117.5 161.9 117.5C161.5 117.5 161 117.4 160.8 117.2L161 116.7C161.2 116.8 161.6 117 162 117C162.6 117 163.1 116.7 163.1 115.8V115.4C162.9 115.7 162.5 116 162 116C161.2 116 160.5 115.3 160.5 114.3C160.5 113.1 161.3 112.5 162 112.5C162.6 112.5 162.9 112.8 163.1 113.1V112.6H163.6ZM162.9 113.9C162.9 113.8 162.9 113.7 162.9 113.6C162.8 113.2 162.5 112.9 162 112.9C161.4 112.9 161 113.4 161 114.2C161 114.9 161.3 115.4 162 115.4C162.4 115.4 162.7 115.2 162.9 114.8C162.9 114.7 162.9 114.6 162.9 114.5V113.9Z" fill="white"/>
<path d="M167.4 115.1C167.4 115.5 167.4 115.8 167.4 116H166.8V115.4C166.6 115.7 166.3 116 165.7 116C165.2 116 164.5 115.7 164.5 114.5V112.5H165.1V114.4C165.1 115.1 165.3 115.5 165.9 115.5C166.3 115.5 166.6 115.2 166.7 114.9C166.7 114.8 166.8 114.7 166.8 114.6V112.5H167.4V115.1Z" fill="white"/>
<path d="M168.5 113.598C168.5 113.198 168.5 112.798 168.5 112.498H169V113.198C169.2 112.698 169.5 112.398 169.9 112.398C170 112.398 170 112.398 170.1 112.398V112.998C170 112.998 170 112.998 169.9 112.998C169.5 112.998 169.1 113.298 169.1 113.798C169.1 113.898 169.1 113.998 169.1 114.098V115.898H168.5V113.598Z" fill="white"/>
<path d="M173.8 114.3C173.8 115.6 172.9 116.1 172.1 116.1C171.2 116.1 170.5 115.4 170.5 114.3C170.5 113.2 171.3 112.5 172.2 112.5C173.2 112.5 173.8 113.2 173.8 114.3ZM171.1 114.3C171.1 115.1 171.5 115.6 172.1 115.6C172.7 115.6 173.1 115 173.1 114.3C173.1 113.7 172.8 113 172.1 113C171.4 113 171.1 113.6 171.1 114.3Z" fill="white"/>
<path d="M174.5 115.4C174.7 115.5 175 115.6 175.3 115.6C175.8 115.6 176 115.4 176 115.1C176 114.8 175.8 114.6 175.4 114.5C174.8 114.3 174.5 113.9 174.5 113.5C174.5 112.9 174.9 112.5 175.7 112.5C176 112.5 176.4 112.6 176.5 112.7L176.3 113.2C176.2 113.1 175.9 113 175.6 113C175.2 113 175 113.2 175 113.5C175 113.8 175.2 113.9 175.7 114.1C176.3 114.3 176.6 114.6 176.6 115.1C176.6 115.7 176.1 116.1 175.3 116.1C174.9 116.1 174.6 116 174.3 115.9L174.5 115.4Z" fill="white"/>
<path d="M332.9 113.9C332.9 113.2 332.8 112.4 332.8 111.8C332.6 112.4 332.4 113 332.2 113.6L331.4 115.9H330.9L330.1 113.6C329.9 112.9 329.7 112.3 329.5 111.7C329.5 112.3 329.5 113.1 329.4 113.8L329.3 115.8H328.7L329 111H329.8L330.6 113.3C330.8 113.9 331 114.4 331.1 114.9C331.2 114.4 331.4 113.9 331.6 113.3L332.4 111H333.2L333.5 115.8H333L332.9 113.9Z" fill="white"/>
<path d="M336.5 116V115.6C336.3 115.9 335.9 116.1 335.5 116.1C334.8 116.1 334.5 115.6 334.5 115.1C334.5 114.3 335.2 113.8 336.6 113.8V113.7C336.6 113.4 336.5 112.9 335.8 112.9C335.5 112.9 335.1 113 334.9 113.2L334.8 112.8C335.1 112.6 335.5 112.5 335.9 112.5C336.9 112.5 337.2 113.2 337.2 113.9V115.2C337.2 115.5 337.2 115.8 337.3 116H336.5ZM336.4 114.3C335.7 114.3 334.9 114.4 334.9 115.1C334.9 115.5 335.2 115.7 335.5 115.7C335.9 115.7 336.2 115.4 336.3 115.1C336.3 115 336.3 115 336.3 114.9V114.3H336.4Z" fill="white"/>
<path d="M338 113.502C338 113.102 338 112.902 338 112.602H338.6V113.202C338.8 112.902 339.2 112.602 339.7 112.602C340.2 112.602 340.9 112.902 340.9 114.102V116.102H340.3V114.102C340.3 113.502 340.1 113.102 339.5 113.102C339.1 113.102 338.8 113.402 338.7 113.702C338.7 113.802 338.7 113.902 338.7 114.002V116.102H338V113.502Z" fill="white"/>
<path d="M343.8 116V115.6C343.6 115.9 343.2 116.1 342.8 116.1C342.1 116.1 341.8 115.6 341.8 115.1C341.8 114.3 342.5 113.8 343.9 113.8V113.7C343.9 113.4 343.8 112.9 343.1 112.9C342.8 112.9 342.4 113 342.2 113.2L342.1 112.8C342.4 112.6 342.8 112.5 343.2 112.5C344.2 112.5 344.5 113.2 344.5 113.9V115.2C344.5 115.5 344.5 115.8 344.6 116H343.8ZM343.7 114.3C343 114.3 342.2 114.4 342.2 115.1C342.2 115.5 342.5 115.7 342.8 115.7C343.2 115.7 343.5 115.4 343.6 115.1C343.6 115 343.6 115 343.6 114.9V114.3H343.7Z" fill="white"/>
<path d="M348.3 112.6C348.3 112.8 348.3 113.1 348.3 113.5V115.5C348.3 116.3 348.1 116.8 347.8 117.1C347.5 117.4 347 117.5 346.6 117.5C346.2 117.5 345.7 117.4 345.5 117.2L345.7 116.7C345.9 116.8 346.3 117 346.7 117C347.3 117 347.8 116.7 347.8 115.8V115.4C347.6 115.7 347.2 116 346.7 116C345.9 116 345.2 115.3 345.2 114.3C345.2 113.1 346 112.5 346.7 112.5C347.3 112.5 347.6 112.8 347.8 113.1V112.6H348.3ZM347.6 113.9C347.6 113.8 347.6 113.7 347.6 113.6C347.5 113.2 347.2 112.9 346.7 112.9C346.1 112.9 345.7 113.4 345.7 114.2C345.7 114.9 346 115.4 346.7 115.4C347.1 115.4 347.4 115.2 347.6 114.8C347.6 114.7 347.6 114.6 347.6 114.5V113.9Z" fill="white"/>
<path d="M349.6 114.4C349.6 115.2 350.2 115.6 350.8 115.6C351.2 115.6 351.5 115.5 351.7 115.4L351.8 115.8C351.6 115.9 351.2 116 350.7 116C349.6 116 349 115.3 349 114.3C349 113.3 349.6 112.5 350.6 112.5C351.7 112.5 352 113.5 352 114.1C352 114.2 352 114.3 352 114.4H349.6ZM351.5 114C351.5 113.6 351.3 113 350.6 113C350 113 349.7 113.6 349.6 114H351.5Z" fill="white"/>
<path d="M352.8 113.502C352.8 113.102 352.8 112.902 352.8 112.602H353.3V113.202C353.5 112.902 353.8 112.602 354.4 112.602C354.9 112.602 355.2 112.902 355.4 113.302C355.5 113.102 355.6 113.002 355.8 112.902C356 112.702 356.2 112.702 356.6 112.702C357.1 112.702 357.7 113.002 357.7 114.202V116.202H357.1V114.302C357.1 113.602 356.9 113.202 356.4 113.202C356 113.202 355.8 113.502 355.7 113.802C355.7 113.902 355.7 114.002 355.7 114.102V116.202H355V114.002C355 113.502 354.8 113.102 354.3 113.102C353.9 113.102 353.6 113.402 353.5 113.702C353.5 113.802 353.5 113.902 353.5 114.002V116.102H352.9V113.502H352.8Z" fill="white"/>
<path d="M359.1 114.4C359.1 115.2 359.7 115.6 360.3 115.6C360.7 115.6 361 115.5 361.2 115.4L361.3 115.8C361.1 115.9 360.7 116 360.2 116C359.1 116 358.5 115.3 358.5 114.3C358.5 113.3 359.1 112.5 360.1 112.5C361.2 112.5 361.5 113.5 361.5 114.1C361.5 114.2 361.5 114.3 361.5 114.4H359.1ZM360.9 114C360.9 113.6 360.7 113 360 113C359.4 113 359.1 113.6 359 114H360.9Z" fill="white"/>
<path d="M362.3 113.502C362.3 113.102 362.3 112.902 362.3 112.602H362.9V113.202C363.1 112.902 363.5 112.602 364 112.602C364.5 112.602 365.2 112.902 365.2 114.102V116.102H364.6V114.102C364.6 113.502 364.4 113.102 363.8 113.102C363.4 113.102 363.1 113.402 363 113.702C363 113.802 363 113.902 363 114.002V116.102H362.4V113.502H362.3Z" fill="white"/>
<path d="M366.9 111.602V112.602H367.8V113.102H366.9V114.902C366.9 115.302 367 115.602 367.4 115.602C367.6 115.602 367.7 115.602 367.8 115.602V116.102C367.7 116.102 367.5 116.202 367.2 116.202C366.9 116.202 366.7 116.102 366.5 115.902C366.3 115.702 366.3 115.402 366.3 115.002V113.102H365.8V112.602H366.3V111.802L366.9 111.602Z" fill="white"/>
<path d="M74.2 30.1016H34.5V40.7016H74.2V30.1016Z" fill="#7E7E7E"/>
<path d="M39.9001 33.3031C40.1001 33.3031 40.5 33.2031 40.8 33.2031C41.3 33.2031 41.6001 33.3031 41.9001 33.5031C42.1001 33.7031 42.2001 33.9031 42.2001 34.2031C42.2001 34.6031 41.9 34.9031 41.5 35.1031C41.9 35.2031 42.3 35.5031 42.3 36.1031C42.3 36.4031 42.2 36.7031 42 36.9031C41.7 37.2031 41.3 37.3031 40.6 37.3031C40.2 37.3031 40 37.3031 39.8 37.3031V33.3031H39.9001ZM40.4001 34.9031H40.9001C41.4001 34.9031 41.8 34.6031 41.8 34.2031C41.8 33.7031 41.4001 33.6031 40.9001 33.6031C40.7001 33.6031 40.5001 33.6031 40.4001 33.6031V34.9031ZM40.4001 36.8031C40.5001 36.8031 40.6 36.8031 40.8 36.8031C41.3 36.8031 41.8 36.6031 41.8 36.0031C41.8 35.5031 41.3 35.2031 40.8 35.2031H40.4001V36.8031Z" fill="white"/>
<path d="M44.7001 37.2016V36.8016C44.5001 37.0016 44.2001 37.2016 43.8001 37.2016C43.2001 37.2016 42.9001 36.8016 42.9001 36.4016C42.9001 35.7016 43.5001 35.3016 44.6001 35.3016V35.2016C44.6001 35.0016 44.5001 34.5016 43.9001 34.5016C43.6001 34.5016 43.4001 34.6016 43.2001 34.7016L43.1001 34.4016C43.3001 34.2016 43.7001 34.1016 44.0001 34.1016C44.9001 34.1016 45.1001 34.7016 45.1001 35.3016V36.4016C45.1001 36.6016 45.1001 36.9016 45.1001 37.1016H44.7001V37.2016ZM44.6001 35.7016C44.0001 35.7016 43.4001 35.8016 43.4001 36.3016C43.4001 36.6016 43.6001 36.8016 43.9001 36.8016C44.3001 36.8016 44.5001 36.6016 44.6001 36.3016C44.6001 36.2016 44.6001 36.2016 44.6001 36.1016V35.7016Z" fill="white"/>
<path d="M45.9001 35.1008C45.9001 34.8008 45.9001 34.6008 45.9001 34.3008H46.4001V34.8008C46.5001 34.5008 46.9001 34.3008 47.3001 34.3008C47.7001 34.3008 48.3001 34.5008 48.3001 35.5008V37.2008H47.8001V35.6008C47.8001 35.1008 47.6001 34.8008 47.1001 34.8008C46.8001 34.8008 46.5001 35.0008 46.4001 35.3008C46.4001 35.4008 46.4001 35.5008 46.4001 35.5008V37.2008H45.9001V35.1008Z" fill="white"/>
<path d="M51.2 37.1008C51.1 37.2008 50.8 37.3008 50.4 37.3008C49.5 37.3008 49 36.7008 49 35.8008C49 34.9008 49.6 34.3008 50.5 34.3008C50.8 34.3008 51.1 34.4008 51.2 34.4008L51.1 34.8008C51 34.7008 50.8 34.7008 50.5 34.7008C49.8 34.7008 49.5 35.2008 49.5 35.8008C49.5 36.5008 49.9 36.9008 50.5 36.9008C50.8 36.9008 51 36.8008 51.1 36.8008L51.2 37.1008Z" fill="white"/>
<path d="M53.4001 37.2016V36.8016C53.2001 37.0016 52.9001 37.2016 52.5001 37.2016C51.9001 37.2016 51.6001 36.8016 51.6001 36.4016C51.6001 35.7016 52.2001 35.3016 53.3001 35.3016V35.2016C53.3001 35.0016 53.2001 34.5016 52.7001 34.5016C52.4001 34.5016 52.2001 34.6016 52.0001 34.7016L51.9001 34.4016C52.1001 34.2016 52.5001 34.1016 52.8001 34.1016C53.7001 34.1016 53.9001 34.7016 53.9001 35.3016V36.4016C53.9001 36.6016 53.9001 36.9016 53.9001 37.1016H53.4001V37.2016ZM53.4001 35.7016C52.8001 35.7016 52.2001 35.8016 52.2001 36.3016C52.2001 36.6016 52.4001 36.8016 52.7001 36.8016C53.1001 36.8016 53.3001 36.6016 53.4001 36.3016C53.4001 36.2016 53.4001 36.2016 53.4001 36.1016V35.7016Z" fill="white"/>
<path d="M56 33.3031C56.2 33.3031 56.6 33.2031 57 33.2031C57.5 33.2031 57.9 33.3031 58.1 33.5031C58.3 33.7031 58.4 34.0031 58.4 34.3031C58.4 34.7031 58.3 34.9031 58.1 35.2031C57.8 35.5031 57.4 35.6031 56.9 35.6031C56.7 35.6031 56.6 35.6031 56.5 35.6031V37.2031H56V33.3031ZM56.5 35.2031C56.6 35.2031 56.8 35.2031 56.9 35.2031C57.5 35.2031 57.9 34.9031 57.9 34.3031C57.9 33.8031 57.5 33.5031 57 33.5031C56.8 33.5031 56.6 33.5031 56.5 33.5031V35.2031Z" fill="white"/>
<path d="M59.9001 37.2031V35.5031L58.6001 33.2031H59.2001L59.8001 34.3031C60.0001 34.6031 60.1001 34.8031 60.2001 35.1031C60.3001 34.8031 60.4001 34.6031 60.6001 34.3031L61.2001 33.2031H61.8001L60.5001 35.5031V37.2031H59.9001Z" fill="white"/>
<path d="M65.5 35.4031C65.5 34.8031 65.4 34.2031 65.4 33.7031C65.3 34.2031 65.1 34.7031 64.9 35.2031L64.2 37.1031H63.8L63.2 35.2031C63 34.6031 62.9 34.1031 62.7 33.7031C62.7 34.2031 62.7 34.9031 62.6 35.5031L62.5 37.2031H62L62.3 33.2031H63L63.7 35.1031C63.9 35.6031 64 36.0031 64.1 36.4031C64.2 36.0031 64.3 35.6031 64.5 35.1031L65.2 33.2031H65.9L66.1 37.2031H65.6L65.5 35.4031Z" fill="white"/>
<path d="M69 35.3016H67.5V36.7016H69.2V37.1016H67V33.1016H69.1V33.5016H67.5V34.8016H69V35.3016Z" fill="white"/>
<path d="M29.1 30.1016H0.199951V40.7016H29.1V30.1016Z" fill="#7E7E7E"/>
<path d="M3.80005 33.2992C4.00005 33.2992 4.40005 33.1992 4.80005 33.1992C5.30005 33.1992 5.70005 33.2992 5.90005 33.4992C6.10005 33.6992 6.20005 33.9992 6.20005 34.2992C6.20005 34.6992 6.10005 34.8992 5.90005 35.1992C5.60005 35.4992 5.20005 35.5992 4.70005 35.5992C4.50005 35.5992 4.40005 35.5992 4.30005 35.5992V37.1992H3.80005V33.2992ZM4.40005 35.1992C4.50005 35.1992 4.70005 35.1992 4.80005 35.1992C5.40005 35.1992 5.80005 34.8992 5.80005 34.2992C5.80005 33.7992 5.40005 33.4992 4.90005 33.4992C4.70005 33.4992 4.50005 33.4992 4.40005 33.4992V35.1992Z" fill="white"/>
<path d="M6.90015 35.2008C6.90015 34.9008 6.90015 34.6008 6.90015 34.3008H7.40015V34.9008C7.50015 34.5008 7.80015 34.3008 8.20015 34.3008C8.30015 34.3008 8.30015 34.3008 8.30015 34.3008V34.8008C8.20015 34.8008 8.20015 34.8008 8.10015 34.8008C7.70015 34.8008 7.50015 35.1008 7.40015 35.5008C7.40015 35.6008 7.40015 35.7008 7.40015 35.7008V37.2008H6.90015V35.2008Z" fill="white"/>
<path d="M9 35.9C9 36.6 9.5 36.9 10 36.9C10.4 36.9 10.6 36.8 10.8 36.8L10.9 37.2C10.7 37.3 10.4 37.4 9.9 37.4C9 37.4 8.5 36.8 8.5 36C8.5 35.2 9 34.5 9.8 34.5C10.7 34.5 11 35.3 11 35.8C11 35.9 11 36 11 36H9V35.9ZM10.6 35.5C10.6 35.2 10.5 34.7 9.9 34.7C9.4 34.7 9.1 35.2 9.1 35.5H10.6Z" fill="white"/>
<path d="M11.7 35.1008C11.7 34.8008 11.7 34.6008 11.7 34.3008H12.2V34.8008C12.4 34.5008 12.6 34.3008 13.1 34.3008C13.5 34.3008 13.8 34.5008 13.9 34.9008C14 34.7008 14.1 34.6008 14.2 34.5008C14.4 34.4008 14.6 34.3008 14.8 34.3008C15.2 34.3008 15.7 34.5008 15.7 35.5008V37.2008H15.2V35.6008C15.2 35.1008 15 34.7008 14.6 34.7008C14.3 34.7008 14.1 34.9008 14 35.2008C14 35.3008 14 35.4008 14 35.5008V37.3008H13.5V35.6008C13.5 35.1008 13.3 34.8008 12.9 34.8008C12.6 34.8008 12.3 35.1008 12.3 35.3008C12.3 35.4008 12.3 35.5008 12.3 35.6008V37.3008H11.8V35.1008H11.7Z" fill="white"/>
<path d="M17.2001 33.4992C17.2001 33.6992 17.1001 33.7992 16.9001 33.7992C16.7001 33.7992 16.6001 33.6992 16.6001 33.4992C16.6001 33.2992 16.7001 33.1992 16.9001 33.1992C17.1001 33.1992 17.2001 33.3992 17.2001 33.4992ZM16.6001 37.1992V34.2992H17.1001V37.1992H16.6001Z" fill="white"/>
<path d="M20.4001 36.3977C20.4001 36.6977 20.4001 36.9977 20.4001 37.1977H20.0001V36.6977C19.9001 36.8977 19.6001 37.1977 19.1001 37.1977C18.7001 37.1977 18.1001 36.9977 18.1001 35.8977V34.1977H18.6001V35.7977C18.6001 36.2977 18.8001 36.6977 19.2001 36.6977C19.5001 36.6977 19.8001 36.4977 19.9001 36.1977C19.9001 36.0977 19.9001 35.9977 19.9001 35.8977V34.0977H20.4001V36.3977Z" fill="white"/>
<path d="M21.3 35.1008C21.3 34.8008 21.3 34.6008 21.3 34.3008H21.8V34.8008C22 34.5008 22.2001 34.3008 22.7001 34.3008C23.1001 34.3008 23.4 34.5008 23.5 34.9008C23.6 34.7008 23.7 34.6008 23.8 34.5008C24 34.4008 24.2 34.3008 24.4 34.3008C24.8 34.3008 25.3 34.5008 25.3 35.5008V37.2008H24.8V35.6008C24.8 35.1008 24.6001 34.7008 24.2001 34.7008C23.9001 34.7008 23.7 34.9008 23.6 35.2008C23.6 35.3008 23.6 35.4008 23.6 35.5008V37.3008H23V35.6008C23 35.1008 22.8 34.8008 22.4 34.8008C22.1 34.8008 21.8 35.1008 21.8 35.3008C21.8 35.4008 21.8 35.5008 21.8 35.6008V37.3008H21.3V35.1008Z" fill="white"/>
<path d="M374.6 73.7016H326C323.8 73.7016 322 71.9016 322 69.7016V60.1016C322 57.9016 323.8 56.1016 326 56.1016H374.6C376.8 56.1016 378.6 57.9016 378.6 60.1016V69.7016C378.6 71.9016 376.8 73.7016 374.6 73.7016ZM326 57.0016C324.3 57.0016 322.9 58.4016 322.9 60.1016V69.7016C322.9 71.4016 324.3 72.8016 326 72.8016H374.6C376.3 72.8016 377.7 71.4016 377.7 69.7016V60.1016C377.7 58.4016 376.3 57.0016 374.6 57.0016H326Z" fill="#FF011D"/>
<path d="M330.8 62.1016V64.3016H333.3V62.1016H334V67.3016H333.3V64.9016H330.8V67.3016H330.1V62.1016H330.8Z" fill="#FF011D"/>
<path d="M337.2 67.3L337.1 66.8C336.9 67.1 336.5 67.4 336 67.4C335.2 67.4 334.9 66.9 334.9 66.3C334.9 65.4 335.7 64.9 337.1 64.9V64.8C337.1 64.5 337 63.9 336.3 63.9C336 63.9 335.6 64 335.3 64.2L335.1 63.8C335.4 63.6 335.9 63.5 336.3 63.5C337.4 63.5 337.7 64.3 337.7 65V66.4C337.7 66.7 337.7 67 337.8 67.3H337.2ZM337.1 65.4C336.4 65.4 335.5 65.5 335.5 66.2C335.5 66.6 335.8 66.8 336.1 66.8C336.6 66.8 336.9 66.5 337 66.2C337 66.1 337 66.1 337 66V65.4H337.1Z" fill="#FF011D"/>
<path d="M338.4 66.9016L340.1 64.7016C340.3 64.5016 340.4 64.3016 340.6 64.1016H338.6V63.6016H341.4V64.0016L339.7 66.2016C339.5 66.4016 339.4 66.6016 339.2 66.8016H341.4V67.3016H338.4V66.9016Z" fill="#FF011D"/>
<path d="M342.9 62.5V63.6H343.9V64.1H342.9V66.1C342.9 66.6 343 66.8 343.4 66.8C343.6 66.8 343.7 66.8 343.8 66.8V67.3C343.7 67.4 343.5 67.4 343.2 67.4C342.9 67.4 342.6 67.3 342.5 67.1C342.3 66.9 342.2 66.6 342.2 66.1V64.1H341.6V63.6H342.2V62.7L342.9 62.5Z" fill="#FF011D"/>
<path d="M345 65.6C345 66.5 345.6 66.9 346.3 66.9C346.8 66.9 347.1 66.8 347.3 66.7L347.4 67.2C347.2 67.3 346.8 67.4 346.2 67.4C345.1 67.4 344.4 66.6 344.4 65.5C344.4 64.4 345.1 63.5 346.1 63.5C347.3 63.5 347.6 64.6 347.6 65.3C347.6 65.4 347.6 65.5 347.6 65.6H345ZM347 65.1C347 64.7 346.8 64 346.1 64C345.4 64 345.1 64.6 345.1 65.1H347Z" fill="#FF011D"/>
<path d="M352.8 67.2C352.6 67.3 352.2 67.4 351.7 67.4C350.6 67.4 349.8 66.6 349.8 65.5C349.8 64.4 350.6 63.5 351.8 63.5C352.2 63.5 352.6 63.6 352.7 63.7L352.5 64.2C352.3 64.1 352.1 64 351.7 64C350.8 64 350.4 64.6 350.4 65.4C350.4 66.3 351 66.8 351.7 66.8C352.1 66.8 352.3 66.7 352.5 66.6L352.8 67.2Z" fill="#FF011D"/>
<path d="M353.6 61.8008H354.3V67.3008H353.6V61.8008Z" fill="#FF011D"/>
<path d="M356.1 62.5016C356.1 62.7016 355.9 62.9016 355.7 62.9016C355.5 62.9016 355.3 62.7016 355.3 62.5016C355.3 62.3016 355.5 62.1016 355.7 62.1016C356 62.1016 356.1 62.3016 356.1 62.5016ZM355.4 67.3016V63.6016H356.1V67.3016H355.4Z" fill="#FF011D"/>
<path d="M357.5 65.6C357.5 66.5 358.1 66.9 358.8 66.9C359.3 66.9 359.6 66.8 359.8 66.7L359.9 67.2C359.7 67.3 359.3 67.4 358.7 67.4C357.6 67.4 356.9 66.6 356.9 65.5C356.9 64.4 357.6 63.5 358.6 63.5C359.8 63.5 360.1 64.6 360.1 65.3C360.1 65.4 360.1 65.5 360.1 65.6H357.5ZM359.5 65.1C359.5 64.7 359.3 64 358.6 64C357.9 64 357.6 64.6 357.6 65.1H359.5Z" fill="#FF011D"/>
<path d="M361 64.6C361 64.2 361 63.9 361 63.6H361.6V64.2C361.8 63.8 362.2 63.5 362.8 63.5C363.3 63.5 364.1 63.8 364.1 65.1V67.3H363.4V65.2C363.4 64.6 363.2 64.1 362.5 64.1C362.1 64.1 361.7 64.4 361.6 64.8C361.6 64.9 361.6 65 361.6 65.1V67.3H361V64.6Z" fill="#FF011D"/>
<path d="M366.1 62.5V63.6H367.1V64.1H366.1V66.1C366.1 66.6 366.2 66.8 366.6 66.8C366.8 66.8 366.9 66.8 367 66.8V67.3C366.9 67.4 366.7 67.4 366.4 67.4C366.1 67.4 365.8 67.3 365.7 67.1C365.5 66.9 365.4 66.6 365.4 66.1V64.1H364.8V63.6H365.4V62.7L366.1 62.5Z" fill="#FF011D"/>
<path d="M368.1 65.6C368.1 66.5 368.7 66.9 369.4 66.9C369.9 66.9 370.2 66.8 370.4 66.7L370.5 67.2C370.3 67.3 369.9 67.4 369.3 67.4C368.2 67.4 367.5 66.6 367.5 65.5C367.5 64.4 368.2 63.5 369.2 63.5C370.4 63.5 370.7 64.6 370.7 65.3C370.7 65.4 370.7 65.5 370.7 65.6H368.1ZM370.1 65.1C370.1 64.7 369.9 64 369.2 64C368.5 64 368.2 64.6 368.2 65.1H370.1Z" fill="#FF011D"/>
<path d="M236.4 73.7016H187.8C185.6 73.7016 183.8 71.9016 183.8 69.7016V60.1016C183.8 57.9016 185.6 56.1016 187.8 56.1016H236.4C238.6 56.1016 240.4 57.9016 240.4 60.1016V69.7016C240.4 71.9016 238.6 73.7016 236.4 73.7016ZM187.8 57.0016C186.1 57.0016 184.7 58.4016 184.7 60.1016V69.7016C184.7 71.4016 186.1 72.8016 187.8 72.8016H236.4C238.1 72.8016 239.5 71.4016 239.5 69.7016V60.1016C239.5 58.4016 238.1 57.0016 236.4 57.0016H187.8Z" fill="#898989"/>
<path d="M373.9 99.0992H310.6C308.6 99.0992 307.1 97.4992 307.1 95.5992V87.6992C307.1 85.6992 308.7 84.1992 310.6 84.1992H373.9C375.9 84.1992 377.4 85.7992 377.4 87.6992V95.5992C377.4 97.4992 375.8 99.0992 373.9 99.0992Z" fill="white"/>
<path d="M373.9 99.8992H310.6C308.2 99.8992 306.2 97.8992 306.2 95.4992V87.5992C306.2 85.1992 308.2 83.1992 310.6 83.1992H373.9C376.3 83.1992 378.3 85.1992 378.3 87.5992V95.4992C378.3 97.9992 376.3 99.8992 373.9 99.8992ZM310.6 84.9992C309.1 84.9992 307.9 86.1992 307.9 87.6992V95.5992C307.9 97.0992 309.1 98.2992 310.6 98.2992H373.9C375.4 98.2992 376.6 97.0992 376.6 95.5992V87.6992C376.6 86.1992 375.4 84.9992 373.9 84.9992H310.6Z" fill="#EDECEC"/>
<path d="M189.1 62.2016C189.4 62.1016 189.9 62.1016 190.3 62.1016C191 62.1016 191.4 62.2016 191.7 62.5016C192 62.7016 192.1 63.0016 192.1 63.4016C192.1 63.9016 191.8 64.3016 191.2 64.5016C191.7 64.6016 192.3 65.0016 192.3 65.8016C192.3 66.2016 192.1 66.6016 191.9 66.8016C191.5 67.1016 191 67.3016 190.1 67.3016C189.6 67.3016 189.3 67.3016 189.1 67.2016V62.2016ZM189.8 64.3016H190.4C191.1 64.3016 191.5 63.9016 191.5 63.4016C191.5 62.8016 191 62.6016 190.4 62.6016C190.1 62.6016 189.9 62.6016 189.8 62.6016V64.3016ZM189.8 66.8016C189.9 66.8016 190.1 66.8016 190.4 66.8016C191.1 66.8016 191.7 66.5016 191.7 65.8016C191.7 65.1016 191.1 64.8016 190.4 64.8016H189.8V66.8016Z" fill="#898989"/>
<path d="M195.4 67.3L195.3 66.8C195.1 67.1 194.7 67.4 194.2 67.4C193.4 67.4 193.1 66.9 193.1 66.3C193.1 65.4 193.9 64.9 195.3 64.9V64.8C195.3 64.5 195.2 63.9 194.5 63.9C194.2 63.9 193.8 64 193.5 64.2L193.3 63.8C193.6 63.6 194.1 63.5 194.5 63.5C195.6 63.5 195.9 64.3 195.9 65V66.4C195.9 66.7 195.9 67 196 67.3H195.4ZM195.3 65.4C194.6 65.4 193.7 65.5 193.7 66.2C193.7 66.6 194 66.8 194.3 66.8C194.8 66.8 195.1 66.5 195.2 66.2C195.2 66.1 195.2 66.1 195.2 66V65.4H195.3Z" fill="#898989"/>
<path d="M197 64.6C197 64.2 197 63.9 197 63.6H197.6V64.2C197.8 63.8 198.2 63.5 198.8 63.5C199.3 63.5 200.1 63.8 200.1 65.1V67.3H199.4V65.2C199.4 64.6 199.2 64.1 198.5 64.1C198.1 64.1 197.7 64.4 197.6 64.8C197.6 64.9 197.6 65 197.6 65.1V67.3H197V64.6Z" fill="#898989"/>
<path d="M203.9 67.2C203.7 67.3 203.3 67.4 202.8 67.4C201.7 67.4 200.9 66.6 200.9 65.5C200.9 64.4 201.7 63.5 202.9 63.5C203.3 63.5 203.7 63.6 203.8 63.7L203.6 64.2C203.4 64.1 203.2 64 202.8 64C201.9 64 201.5 64.6 201.5 65.4C201.5 66.3 202.1 66.8 202.8 66.8C203.2 66.8 203.4 66.7 203.6 66.6L203.9 67.2Z" fill="#898989"/>
<path d="M206.8 67.3L206.7 66.8C206.5 67.1 206.1 67.4 205.6 67.4C204.8 67.4 204.5 66.9 204.5 66.3C204.5 65.4 205.3 64.9 206.7 64.9V64.8C206.7 64.5 206.6 63.9 205.9 63.9C205.6 63.9 205.2 64 204.9 64.2L204.7 63.8C205 63.6 205.5 63.5 205.9 63.5C207 63.5 207.3 64.3 207.3 65V66.4C207.3 66.7 207.3 67 207.4 67.3H206.8ZM206.7 65.4C206 65.4 205.1 65.5 205.1 66.2C205.1 66.6 205.4 66.8 205.7 66.8C206.2 66.8 206.5 66.5 206.6 66.2C206.6 66.1 206.6 66.1 206.6 66V65.4H206.7Z" fill="#898989"/>
<path d="M210.1 62.2016C210.4 62.1016 210.8 62.1016 211.4 62.1016C212.1 62.1016 212.5 62.3016 212.9 62.5016C213.2 62.7016 213.4 63.1016 213.4 63.6016C213.4 64.1016 213.3 64.4016 213 64.7016C212.6 65.1016 212.1 65.3016 211.4 65.3016C211.2 65.3016 211 65.3016 210.9 65.3016V67.4016H210.2V62.2016H210.1ZM210.7 64.7016C210.8 64.7016 211 64.8016 211.3 64.8016C212.1 64.8016 212.6 64.4016 212.6 63.7016C212.6 63.0016 212.1 62.7016 211.4 62.7016C211.1 62.7016 210.9 62.7016 210.8 62.8016V64.7016H210.7Z" fill="#898989"/>
<path d="M214.3 65.6C214.3 66.5 214.9 66.9 215.6 66.9C216.1 66.9 216.4 66.8 216.6 66.7L216.7 67.2C216.5 67.3 216.1 67.4 215.5 67.4C214.4 67.4 213.7 66.6 213.7 65.5C213.7 64.4 214.4 63.5 215.4 63.5C216.6 63.5 216.9 64.6 216.9 65.3C216.9 65.4 216.9 65.5 216.9 65.6H214.3ZM216.3 65.1C216.3 64.7 216.1 64 215.4 64C214.7 64 214.4 64.6 214.4 65.1H216.3Z" fill="#898989"/>
<path d="M217.8 64.7023C217.8 64.3023 217.8 63.9023 217.8 63.5023H218.4V64.2023C218.6 63.7023 219 63.4023 219.4 63.4023C219.5 63.4023 219.5 63.4023 219.6 63.4023V64.0023C219.5 64.0023 219.5 64.0023 219.4 64.0023C218.9 64.0023 218.6 64.4023 218.5 64.9023C218.5 65.0023 218.5 65.1023 218.5 65.2023V67.2023H217.8V64.7023Z" fill="#898989"/>
<path d="M220.2 66.6023C220.4 66.7023 220.8 66.9023 221.1 66.9023C221.6 66.9023 221.8 66.7023 221.8 66.3023C221.8 66.0023 221.6 65.8023 221.1 65.6023C220.4 65.4023 220.1 65.0023 220.1 64.5023C220.1 63.9023 220.6 63.4023 221.4 63.4023C221.8 63.4023 222.1 63.5023 222.3 63.6023L222.1 64.1023C222 64.0023 221.7 63.9023 221.3 63.9023C220.9 63.9023 220.7 64.1023 220.7 64.4023C220.7 64.7023 220.9 64.8023 221.4 65.0023C222 65.2023 222.4 65.6023 222.4 66.1023C222.4 66.8023 221.9 67.2023 221 67.2023C220.6 67.2023 220.2 67.1023 220 66.9023L220.2 66.6023Z" fill="#898989"/>
<path d="M226.7 65.4C226.7 66.8 225.7 67.4 224.8 67.4C223.8 67.4 223 66.7 223 65.5C223 64.3 223.8 63.5 224.8 63.5C226 63.5 226.7 64.3 226.7 65.4ZM223.8 65.4C223.8 66.2 224.3 66.8 224.9 66.8C225.5 66.8 226 66.2 226 65.4C226 64.8 225.7 64 224.9 64C224.1 64 223.8 64.7 223.8 65.4Z" fill="#898989"/>
<path d="M227.6 64.6C227.6 64.2 227.6 63.9 227.6 63.6H228.2V64.2C228.4 63.8 228.8 63.5 229.4 63.5C229.9 63.5 230.7 63.8 230.7 65.1V67.3H230V65.2C230 64.6 229.8 64.1 229.1 64.1C228.7 64.1 228.3 64.4 228.2 64.8C228.2 64.9 228.2 65 228.2 65.1V67.3H227.5V64.6H227.6Z" fill="#898989"/>
<path d="M233.9 67.3L233.8 66.8C233.6 67.1 233.2 67.4 232.7 67.4C231.9 67.4 231.6 66.9 231.6 66.3C231.6 65.4 232.4 64.9 233.8 64.9V64.8C233.8 64.5 233.7 63.9 233 63.9C232.7 63.9 232.3 64 232 64.2L231.8 63.8C232.1 63.6 232.6 63.5 233 63.5C234.1 63.5 234.4 64.3 234.4 65V66.4C234.4 66.7 234.4 67 234.5 67.3H233.9ZM233.8 65.4C233.1 65.4 232.2 65.5 232.2 66.2C232.2 66.6 232.5 66.8 232.8 66.8C233.3 66.8 233.6 66.5 233.7 66.2C233.7 66.1 233.7 66.1 233.7 66V65.4H233.8Z" fill="#898989"/>
<path d="M235.5 66.6023C235.7 66.7023 236.1 66.9023 236.4 66.9023C236.9 66.9023 237.1 66.7023 237.1 66.3023C237.1 66.0023 236.9 65.8023 236.4 65.6023C235.7 65.4023 235.4 65.0023 235.4 64.5023C235.4 63.9023 235.9 63.4023 236.7 63.4023C237.1 63.4023 237.4 63.5023 237.6 63.6023L237.4 64.1023C237.3 64.0023 237 63.9023 236.6 63.9023C236.2 63.9023 236 64.1023 236 64.4023C236 64.7023 236.2 64.8023 236.7 65.0023C237.3 65.2023 237.7 65.6023 237.7 66.1023C237.7 66.8023 237.2 67.2023 236.3 67.2023C235.9 67.2023 235.5 67.1023 235.3 66.9023L235.5 66.6023Z" fill="#898989"/>
<path d="M263.1 177.7C297.121 177.7 324.7 150.121 324.7 116.1C324.7 82.0793 297.121 54.5 263.1 54.5C229.079 54.5 201.5 82.0793 201.5 116.1C201.5 150.121 229.079 177.7 263.1 177.7Z" fill="white"/>
<path d="M297.9 139.498H232C226.1 139.498 221.4 134.698 221.4 128.898V111.498C221.4 105.598 226.2 100.898 232 100.898H297.9C303.8 100.898 308.5 105.698 308.5 111.498V128.898C308.5 134.798 303.8 139.498 297.9 139.498Z" fill="#FF011D"/>
<path d="M238.4 121.602L237.2 125.302H235.6L239.6 113.402H241.5L245.6 125.302H244L242.7 121.602H238.4ZM242.3 120.402L241.1 117.002C240.8 116.202 240.7 115.502 240.5 114.802C240.3 115.502 240.1 116.202 239.9 117.002L238.7 120.402H242.3Z" fill="white"/>
<path d="M253.1 125.002C252.7 125.202 251.8 125.502 250.6 125.502C248 125.502 246.3 123.802 246.3 121.102C246.3 118.502 248.1 116.602 250.9 116.602C251.8 116.602 252.6 116.802 253.1 117.002L252.7 118.202C252.3 118.002 251.7 117.802 250.9 117.802C248.9 117.802 247.9 119.202 247.9 121.002C247.9 123.002 249.2 124.202 250.9 124.202C251.8 124.202 252.4 124.002 252.8 123.802L253.1 125.002Z" fill="white"/>
<path d="M260.9 125.002C260.5 125.202 259.6 125.502 258.4 125.502C255.8 125.502 254.1 123.802 254.1 121.102C254.1 118.502 255.9 116.602 258.7 116.602C259.6 116.602 260.4 116.802 260.9 117.002L260.5 118.202C260.1 118.002 259.5 117.802 258.7 117.802C256.7 117.802 255.7 119.202 255.7 121.002C255.7 123.002 257 124.202 258.7 124.202C259.6 124.202 260.2 124.002 260.6 123.802L260.9 125.002Z" fill="white"/>
<path d="M263.5 121.399C263.5 123.499 264.9 124.399 266.4 124.399C267.5 124.399 268.2 124.199 268.8 123.999L269.1 125.099C268.6 125.299 267.6 125.599 266.3 125.599C263.7 125.599 262.1 123.899 262.1 121.299C262.1 118.699 263.6 116.699 266.1 116.699C268.9 116.699 269.6 119.199 269.6 120.699C269.6 120.999 269.6 121.299 269.5 121.399H263.5ZM268.1 120.299C268.1 119.299 267.7 117.799 265.9 117.799C264.3 117.799 263.6 119.199 263.5 120.299H268.1Z" fill="white"/>
<path d="M278.9 112.801V123.101C278.9 123.901 278.9 124.701 279 125.301H277.6L277.5 123.801C277 124.801 276 125.501 274.6 125.501C272.5 125.501 270.9 123.801 270.9 121.201C270.9 118.401 272.6 116.601 274.7 116.601C276 116.601 276.9 117.201 277.3 117.901V112.801H278.9ZM277.3 120.301C277.3 120.101 277.3 119.801 277.2 119.601C277 118.601 276.1 117.801 275 117.801C273.4 117.801 272.4 119.201 272.4 121.101C272.4 122.801 273.2 124.301 274.9 124.301C275.9 124.301 276.9 123.601 277.2 122.401C277.3 122.201 277.3 122.001 277.3 121.701V120.301Z" fill="white"/>
<path d="M282.3 121.399C282.3 123.499 283.7 124.399 285.2 124.399C286.3 124.399 287 124.199 287.6 123.999L287.9 125.099C287.4 125.299 286.4 125.599 285.1 125.599C282.5 125.599 280.9 123.899 280.9 121.299C280.9 118.699 282.4 116.699 284.9 116.699C287.7 116.699 288.4 119.199 288.4 120.699C288.4 120.999 288.4 121.299 288.3 121.399H282.3ZM286.9 120.299C286.9 119.299 286.5 117.799 284.7 117.799C283.1 117.799 282.4 119.199 282.3 120.299H286.9Z" fill="white"/>
<path d="M290.3 119.502C290.3 118.502 290.3 117.602 290.2 116.802H291.6L291.7 118.502H291.8C292.2 117.402 293.1 116.602 294.2 116.602C294.4 116.602 294.5 116.602 294.6 116.702V118.202C294.4 118.202 294.3 118.102 294.1 118.102C293 118.102 292.2 118.902 292 120.102C292 120.302 291.9 120.602 291.9 120.802V125.402H290.4V119.502H290.3Z" fill="white"/>
<path d="M315.9 73.2016H280.9C278.9 73.2016 277.4 71.6016 277.4 69.7016V60.1016C277.4 58.1016 279 56.6016 280.9 56.6016H315.9C317.9 56.6016 319.4 58.2016 319.4 60.1016V69.7016C319.5 71.7016 317.9 73.2016 315.9 73.2016Z" fill="#FF011D"/>
<path d="M373.9 99.1031H366.6C364.6 99.1031 363.1 97.5031 363.1 95.6031V87.7031C363.1 85.7031 364.7 84.2031 366.6 84.2031H373.9C375.9 84.2031 377.4 85.8031 377.4 87.7031V95.6031C377.4 97.5031 375.8 99.1031 373.9 99.1031Z" fill="#FF011D"/>
<path d="M373.9 99.5016H366.6C364.4 99.5016 362.6 97.7016 362.6 95.5016V87.6016C362.6 85.4016 364.4 83.6016 366.6 83.6016H373.9C376.1 83.6016 377.9 85.4016 377.9 87.6016V95.5016C377.8 97.7016 376.1 99.5016 373.9 99.5016ZM366.5 84.6016C364.8 84.6016 363.4 86.0016 363.4 87.7016V95.6016C363.4 97.3016 364.8 98.7016 366.5 98.7016H373.8C375.5 98.7016 376.9 97.3016 376.9 95.6016V87.7016C376.9 86.0016 375.5 84.6016 373.8 84.6016H366.5Z" fill="#FF011D"/>
<path d="M286.9 65.7016L286.4 67.3016H285.7L287.5 62.1016H288.3L290.1 67.3016H289.4L288.8 65.7016H286.9ZM288.6 65.1016L288.1 63.6016C288 63.3016 287.9 63.0016 287.8 62.7016C287.7 63.0016 287.6 63.3016 287.5 63.6016L287 65.1016H288.6Z" fill="white"/>
<path d="M293.3 67.2C293.1 67.3 292.7 67.4 292.2 67.4C291.1 67.4 290.3 66.6 290.3 65.5C290.3 64.4 291.1 63.5 292.3 63.5C292.7 63.5 293.1 63.6 293.2 63.7L293 64.2C292.8 64.1 292.6 64 292.2 64C291.3 64 290.9 64.6 290.9 65.4C290.9 66.3 291.5 66.8 292.2 66.8C292.6 66.8 292.8 66.7 293 66.6L293.3 67.2Z" fill="white"/>
<path d="M296.7 67.2C296.5 67.3 296.1 67.4 295.6 67.4C294.5 67.4 293.7 66.6 293.7 65.5C293.7 64.4 294.5 63.5 295.7 63.5C296.1 63.5 296.5 63.6 296.6 63.7L296.4 64.2C296.2 64.1 296 64 295.6 64C294.7 64 294.3 64.6 294.3 65.4C294.3 66.3 294.9 66.8 295.6 66.8C296 66.8 296.2 66.7 296.4 66.6L296.7 67.2Z" fill="white"/>
<path d="M297.8 65.6C297.8 66.5 298.4 66.9 299.1 66.9C299.6 66.9 299.9 66.8 300.1 66.7L300.2 67.2C300 67.3 299.6 67.4 299 67.4C297.9 67.4 297.2 66.6 297.2 65.5C297.2 64.4 297.9 63.5 298.9 63.5C300.1 63.5 300.4 64.6 300.4 65.3C300.4 65.4 300.4 65.5 300.4 65.6H297.8ZM299.8 65.1C299.8 64.7 299.6 64 298.9 64C298.2 64 297.9 64.6 297.9 65.1H299.8Z" fill="white"/>
<path d="M304.5 61.8008V66.3008C304.5 66.6008 304.5 67.0008 304.5 67.3008H303.9V66.7008C303.7 67.1008 303.2 67.4008 302.6 67.4008C301.7 67.4008 301 66.6008 301 65.5008C301 64.3008 301.8 63.5008 302.7 63.5008C303.3 63.5008 303.7 63.8008 303.8 64.1008V61.9008H304.5V61.8008ZM303.8 65.1008C303.8 65.0008 303.8 64.9008 303.8 64.8008C303.7 64.4008 303.3 64.0008 302.8 64.0008C302.1 64.0008 301.7 64.6008 301.7 65.4008C301.7 66.2008 302.1 66.8008 302.8 66.8008C303.3 66.8008 303.7 66.5008 303.8 66.0008C303.8 65.9008 303.8 65.8008 303.8 65.7008V65.1008Z" fill="white"/>
<path d="M306 65.6C306 66.5 306.6 66.9 307.3 66.9C307.8 66.9 308.1 66.8 308.3 66.7L308.4 67.2C308.2 67.3 307.8 67.4 307.2 67.4C306.1 67.4 305.4 66.6 305.4 65.5C305.4 64.4 306.1 63.5 307.1 63.5C308.3 63.5 308.6 64.6 308.6 65.3C308.6 65.4 308.6 65.5 308.6 65.6H306ZM308 65.1C308 64.7 307.8 64 307.1 64C306.4 64 306.1 64.6 306.1 65.1H308Z" fill="white"/>
<path d="M309.5 64.7023C309.5 64.3023 309.5 63.9023 309.5 63.5023H310.1V64.2023C310.3 63.7023 310.7 63.4023 311.1 63.4023C311.2 63.4023 311.2 63.4023 311.3 63.4023V64.0023C311.2 64.0023 311.2 64.0023 311.1 64.0023C310.6 64.0023 310.3 64.4023 310.2 64.9023C310.2 65.0023 310.2 65.1023 310.2 65.2023V67.2023H309.5V64.7023Z" fill="white"/>
<path d="M341.8 38.3H278.6C276.6 38.3 275.1 36.7 275.1 34.8V32.5C275.1 30.5 276.7 29 278.6 29H341.8C343.8 29 345.3 30.6 345.3 32.5V34.8C345.3 36.7 343.7 38.3 341.8 38.3Z" fill="white"/>
<path d="M341.8 38.8H278.6C276.4 38.8 274.6 37 274.6 34.8V32.5C274.6 30.3 276.4 28.5 278.6 28.5H341.8C344 28.5 345.8 30.3 345.8 32.5V34.8C345.8 37 344 38.8 341.8 38.8ZM278.6 29.4C276.9 29.4 275.5 30.8 275.5 32.5V34.8C275.5 36.5 276.9 37.9 278.6 37.9H341.8C343.5 37.9 344.9 36.5 344.9 34.8V32.5C344.9 30.8 343.5 29.4 341.8 29.4H278.6Z" fill="#D0D0D0"/>
<path d="M278.5 31.7016C278.7 31.7016 279.1 31.6016 279.5 31.6016C280 31.6016 280.4 31.7016 280.6 31.9016C280.8 32.1016 280.9 32.4016 280.9 32.7016C280.9 33.0016 280.8 33.3016 280.6 33.5016C280.3 33.8016 279.9 33.9016 279.4 33.9016C279.3 33.9016 279.1 33.9016 279 33.9016V35.4016H278.5V31.7016ZM279 33.5016C279.1 33.5016 279.2 33.5016 279.4 33.5016C280 33.5016 280.4 33.2016 280.4 32.7016C280.4 32.2016 280 31.9016 279.5 31.9016C279.3 31.9016 279.1 31.9016 279 31.9016V33.5016Z" fill="#707070"/>
<path d="M281.7 34.2008C281.7 34.9008 282.1 35.2008 282.6 35.2008C283 35.2008 283.2 35.1008 283.4 35.1008L283.5 35.5008C283.3 35.6008 283 35.7008 282.6 35.7008C281.7 35.7008 281.2 35.1008 281.2 34.3008C281.2 33.5008 281.7 32.8008 282.5 32.8008C283.4 32.8008 283.6 33.6008 283.6 34.1008C283.6 34.2008 283.6 34.3008 283.6 34.3008H281.7V34.2008ZM283.1 33.8008C283.1 33.5008 283 33.0008 282.4 33.0008C281.9 33.0008 281.7 33.5008 281.6 33.8008H283.1Z" fill="#707070"/>
<path d="M284.3 33.6016C284.3 33.3016 284.3 33.0016 284.3 32.7016H284.7V33.2016C284.8 32.8016 285.1 32.6016 285.5 32.6016C285.6 32.6016 285.6 32.6016 285.6 32.6016V33.1016C285.5 33.1016 285.5 33.1016 285.4 33.1016C285 33.1016 284.8 33.4016 284.7 33.7016C284.7 33.8016 284.7 33.8016 284.7 33.9016V35.4016H284.2V33.6016H284.3Z" fill="#707070"/>
<path d="M288.4 34.7C288.4 35 288.4 35.2 288.4 35.5H288V35C287.9 35.2 287.6 35.5 287.1 35.5C286.7 35.5 286.1 35.3 286.1 34.3V32.7H286.6V34.2C286.6 34.7 286.8 35.1 287.2 35.1C287.5 35.1 287.8 34.9 287.9 34.6C287.9 34.5 287.9 34.4 287.9 34.3V32.6H288.4V34.7ZM288.1 31.5L287.4 32.3H287L287.5 31.5H288.1Z" fill="#707070"/>
<path d="M341 35.5992L342.6 32.6992H339.3L341 35.5992Z" fill="black"/>
<path d="M61.9 115.9L63.5999 113H60.2L61.9 115.9Z" fill="white"/>
<path d="M142.4 115.9L144 113H140.7L142.4 115.9Z" fill="white"/>
<path d="M185.2 115.9L186.9 113H183.6L185.2 115.9Z" fill="white"/>
<path d="M54.5 60.1992C51.1 60.1992 48.3 62.8992 48.3 66.3992C48.3 69.7992 51.1 72.5992 54.5 72.5992C57.9 72.5992 60.7001 69.8992 60.7001 66.3992C60.7001 62.8992 58 60.1992 54.5 60.1992ZM54.5 69.0992C53 69.0992 51.8 67.8992 51.8 66.3992C51.8 64.8992 53 63.6992 54.5 63.6992C56 63.6992 57.2001 64.8992 57.2001 66.3992C57.2001 67.0992 56.9001 67.7992 56.4001 68.3992C56.0001 68.7992 55.3 69.0992 54.5 69.0992Z" fill="#FF031D"/>
<path d="M68.6 60.5023H66.9V56.9023H63.2V60.5023H61.5V63.9023H63.2V72.3023H66.9V63.9023H68.6V60.5023Z" fill="#FF031D"/>
<path d="M70.2002 60.5H73.9002V72.2H70.2002V60.5Z" fill="#FF031D"/>
<path d="M72.1 54.8008C71.2 54.8008 70.5 55.3008 70.2 56.1008C69.9 56.9008 70.1 57.7008 70.6 58.4008C71.2 59.0008 72.1 59.2008 72.9 58.8008C73.7 58.5008 74.2 57.8008 74.2 56.9008C74.1 55.7008 73.2 54.8008 72.1 54.8008Z" fill="#FF031D"/>
<path d="M124.7 63.7008C125.9 63.7008 126.9 64.7008 126.9 65.9008V72.3008H130.6V65.4008C130.6 62.3008 128.8 60.3008 126 60.3008C124.8 60.3008 123.6 60.8008 122.6 62.4008V60.6008H118.9V72.3008H122.6V65.9008C122.6 65.3008 122.8 64.7008 123.3 64.3008C123.6 63.9008 124.2 63.7008 124.7 63.7008Z" fill="#FF031D"/>
<path d="M144 72.2016L139.5 66.3016L143.7 60.4016H139.4L136 65.2016V55.1016H132.3V72.2016H136V67.4016L139.7 72.2016H144Z" fill="#FF031D"/>
<path d="M35.8001 69.0008C36.1001 68.3008 36.2001 67.6008 36.2001 66.9008C36.2001 65.8008 35.8001 64.8008 35.2001 63.9008C34.4001 63.0008 33.1001 62.3008 31.2001 61.8008C30.8001 61.7008 30.5001 61.6008 30.2001 61.4008C29.9001 61.3008 29.7001 61.0008 29.4001 60.9008C29.2001 60.7008 29.0001 60.3008 29.0001 59.9008C29.0001 59.4008 29.3001 58.9008 29.7001 58.7008C30.6001 58.3008 31.7001 58.3008 32.6001 58.7008C33.0001 58.8008 33.4001 59.1008 33.8001 59.2008L35.4001 56.1008C34.7001 55.7008 33.9001 55.3008 33.1001 55.1008C32.3001 54.9008 31.5001 54.8008 30.6001 54.8008C29.8001 54.8008 29.0001 54.9008 28.3001 55.2008C27.6001 55.5008 27.0001 55.9008 26.5001 56.4008C26.0001 56.9008 25.6001 57.6008 25.3001 58.2008C25.1001 58.9008 24.9001 59.6008 24.9001 60.3008C25.0001 61.5008 25.4001 62.6008 26.3001 63.4008C27.1001 64.1008 28.1001 64.6008 29.0001 64.9008C29.5001 65.1008 30.0001 65.3008 30.3001 65.4008C30.7001 65.5008 31.0001 65.7008 31.3001 65.9008C31.5001 66.1008 31.7001 66.3008 31.8001 66.5008C31.9001 66.7008 31.9001 67.0008 31.9001 67.2008C31.8001 67.6008 31.7001 67.9008 31.4001 68.2008C30.9001 68.6008 30.3001 68.7008 29.7001 68.7008C29.0001 68.7008 28.3001 68.5008 27.6001 68.2008C27.1001 68.0008 26.5001 67.7008 26.0001 67.3008L24.1001 70.5008C25.6001 71.7008 27.4001 72.4008 29.3001 72.4008C30.2001 72.4008 31.2001 72.3008 32.0001 72.0008C32.8001 71.8008 33.5001 71.3008 34.1001 70.8008C35.0001 70.4008 35.5001 69.8008 35.8001 69.0008Z" fill="#FF031D"/>
<path d="M146.6 68.1016C145.7 68.1016 145 68.6016 144.7 69.4016C144.4 70.2016 144.6 71.0016 145.1 71.7016C145.6 72.3016 146.6 72.5016 147.4 72.1016C148.2 71.8016 148.7 71.1016 148.7 70.2016C148.7 69.0016 147.7 68.1016 146.6 68.1016ZM146.6 71.8016C145.9 71.8016 145.3 71.4016 145.1 70.8016C144.9 70.2016 145 69.5016 145.5 69.0016C146 68.5016 146.7 68.4016 147.3 68.6016C147.9 68.8016 148.3 69.5016 148.3 70.1016C148.3 70.5016 148.1 71.0016 147.8 71.3016C147.4 71.7016 147 71.8016 146.6 71.8016Z" fill="#FF031D"/>
<path d="M146.6 70.5H146.3V71.3H145.9V69H146.8C147.2 69 147.5 69.3 147.5 69.7C147.5 70 147.3 70.2 147.1 70.4L147.6 71.3H147L146.6 70.5ZM146.3 70.1H146.8C147 70.1 147.2 69.9 147.2 69.7C147.2 69.5 147 69.3 146.8 69.3H146.3V70.1Z" fill="#FF031D"/>
<path d="M45.8001 68.0998C44.9001 69.2998 43.2001 69.3998 42.0001 68.4998C40.8001 67.5998 40.7001 65.8998 41.6001 64.6998C42.5001 63.4998 44.2001 63.3998 45.4001 64.2998C45.6001 64.3998 45.7001 64.4998 45.8001 64.6998L48.2001 62.2998C47.0001 60.9998 45.4001 60.2998 43.7001 60.2998C40.3001 60.1998 37.4001 62.6998 37.4001 66.3998C37.4001 70.0998 40.4001 72.5998 43.7001 72.5998C45.4001 72.5998 47.1001 71.8998 48.3001 70.5998L45.8001 68.0998Z" fill="#FF031D"/>
<path d="M88.3 72.1992V60.4992H84.7V61.6992L84.3 61.3992C83.4 60.5992 82.3 60.1992 81.2 60.1992C78 60.1992 75.3 62.9992 75.3 66.3992C75.3 69.7992 78 72.5992 81.2 72.5992C82.4 72.5992 83.5 72.1992 84.3 71.3992L84.7 71.0992V72.2992H88.3V72.1992ZM81.9 69.0992C80.4 69.0992 79.2 67.7992 79.2 66.2992C79.2 64.7992 80.5 63.5992 82 63.5992C83.5 63.5992 84.7 64.8992 84.7 66.3992C84.7 67.0992 84.4 67.8992 83.9 68.3992C83.3 68.8992 82.6 69.1992 81.9 69.0992Z" fill="#FF031D"/>
<path d="M117.1 72.1992V60.4992H113.5V61.6992L113.1 61.3992C112.2 60.5992 111.1 60.1992 110 60.1992C106.8 60.1992 104.1 62.9992 104.1 66.3992C104.1 69.7992 106.8 72.5992 110 72.5992C111.2 72.5992 112.3 72.1992 113.1 71.3992L113.5 71.0992V72.2992H117.1V72.1992ZM110.7 69.0992C109.2 69.0992 107.9 67.8992 107.9 66.3992C107.9 64.8992 109.1 63.5992 110.6 63.5992C112.1 63.5992 113.3 64.7992 113.3 66.2992C113.5 67.8992 112.2 69.0992 110.7 69.0992Z" fill="#FF031D"/>
<path d="M93.8002 72.2V71L94.1002 71.3C95.0002 72.1 96.1002 72.5 97.2002 72.5C100.4 72.5 103.1 69.7 103.1 66.3C103.1 62.9 100.4 60.1 97.2002 60.1C96.0002 60.1 94.9002 60.5 94.1002 61.3L93.8002 61.6V55H90.2002V72.1L93.8002 72.2ZM93.8002 66.4C93.8002 65.3 94.5002 64.3 95.5002 63.8C96.5002 63.4 97.8002 63.6 98.5002 64.4C99.3002 65.2 99.5002 66.4 99.1002 67.5C98.7002 68.5 97.6002 69.2 96.5002 69.2C95.1002 69.1 93.8002 67.9 93.8002 66.4Z" fill="#FF031D"/>
<path d="M372.4 93.5008L371 92.1008C371.4 91.7008 371.5 91.2008 371.5 90.6008C371.5 89.3008 370.5 88.3008 369.2 88.3008C367.9 88.3008 366.9 89.3008 366.9 90.6008C366.9 91.9008 367.9 92.9008 369.2 92.9008C369.7 92.9008 370.1 92.8008 370.5 92.5008L371.9 93.9008C372 94.0008 372 94.0008 372.1 94.0008C372.2 94.0008 372.3 94.0008 372.3 93.9008C372.5 93.8008 372.5 93.6008 372.4 93.5008ZM369.2 88.9008C370.2 88.9008 370.9 89.7008 370.9 90.6008C370.9 91.6008 370.1 92.3008 369.2 92.3008C368.2 92.3008 367.5 91.5008 367.5 90.6008C367.5 89.6008 368.2 88.9008 369.2 88.9008Z" fill="white"/>
</g>
<defs>
<clipPath id="clip0">
<rect width="392" height="262" fill="white"/>
</clipPath>
</defs>
</svg>
