<svg width="392" height="262" viewBox="0 0 392 262" fill="none" xmlns="http://www.w3.org/2000/svg">
<path d="M392 0H0V262H392V0Z" fill="#E3E3E3"/>
<path d="M294.6 7.69922H97.5V116.899H294.6V7.69922Z" fill="white"/>
<path d="M113.6 12C113.5 12 113.5 12 113.4 12L106.7 18.5C106.7 18.5 106.6 18.6 106.7 18.7C106.7 18.8 106.8 18.8 106.8 18.8H113.5C113.6 18.8 113.7 18.7 113.7 18.6V12.1C113.7 12 113.7 12 113.6 12ZM110.5 15.3L111.8 14.1V18.5H110.5V15.3ZM110.2 18.4H108.9V16.8L110.2 15.6V18.4ZM108.6 17.1V18.4H107.2L108.6 17.1ZM113.4 18.4H112.1V13.7L113.4 12.5V18.4Z" fill="#3F3F3F"/>
<path d="M109.5 14.6992C109.9 14.6992 110.1 14.3992 110.1 14.0992V13.7992C110.1 13.6992 110 13.5992 109.9 13.5992H109.6C109.5 13.5992 109.4 13.6992 109.4 13.7992C109.4 13.8992 109.5 13.9992 109.6 13.9992H109.8V14.1992C109.8 14.3992 109.7 14.4992 109.5 14.4992C109.3 14.4992 109.2 14.3992 109.2 14.1992V13.2992C109.2 13.0992 109.3 12.9992 109.5 12.9992C109.7 12.9992 109.8 13.0992 109.8 13.2992C109.8 13.3992 109.9 13.4992 110 13.4992C110.1 13.4992 110.2 13.3992 110.2 13.2992C110.2 12.9992 109.9 12.6992 109.6 12.6992C109.3 12.6992 109 12.9992 109 13.2992V14.1992C108.9 14.4992 109.2 14.6992 109.5 14.6992Z" fill="#3F3F3F"/>
<path d="M107.5 14.0992H108.3V14.5992C108.3 14.6992 108.4 14.7992 108.5 14.7992C108.6 14.7992 108.7 14.6992 108.7 14.5992V13.6992C108.7 13.5992 108.6 13.4992 108.5 13.4992C108.4 13.4992 108.3 13.5992 108.3 13.6992V13.8992H107.8L108.3 12.8992C108.3 12.7992 108.3 12.6992 108.2 12.6992C108.1 12.6992 108 12.6992 108 12.7992L107.4 13.9992C107.4 13.9992 107.4 14.0992 107.4 14.1992C107.4 14.0992 107.4 14.0992 107.5 14.0992Z" fill="#3F3F3F"/>
<path d="M236.8 13.1992C235.4 13.1992 234.2 14.3992 234.2 15.7992C234.2 16.4992 234.5 17.1992 235 17.5992C234.9 17.6992 234.8 17.8992 234.6 18.0992C234.5 18.1992 234.5 18.3992 234.6 18.4992C234.7 18.4992 234.7 18.5992 234.8 18.5992C234.9 18.5992 235 18.5992 235 18.4992C235 18.4992 235.2 18.1992 235.4 17.9992C235.8 18.2992 236.3 18.3992 236.8 18.3992C237.3 18.3992 237.8 18.1992 238.2 17.9992C238.3 18.1992 238.6 18.4992 238.6 18.4992C238.7 18.5992 238.7 18.5992 238.8 18.5992C238.9 18.5992 238.9 18.5992 239 18.4992C239.1 18.3992 239.1 18.1992 239 18.0992C238.8 17.8992 238.7 17.6992 238.6 17.5992C239.1 17.0992 239.4 16.4992 239.4 15.7992C239.4 14.2992 238.2 13.1992 236.8 13.1992ZM234.7 15.7992C234.7 14.5992 235.6 13.6992 236.8 13.6992C238 13.6992 238.9 14.5992 238.9 15.7992C238.9 16.9992 238 17.8992 236.8 17.8992C235.6 17.8992 234.7 16.8992 234.7 15.7992Z" fill="#3F3F3F"/>
<path d="M236.9 15.4V14.7C236.9 14.6 236.8 14.5 236.7 14.5C236.6 14.5 236.5 14.6 236.5 14.7V15.4C236.4 15.4 236.3 15.5 236.3 15.6H235.1C235 15.6 234.9 15.7 234.9 15.8C234.9 15.9 235 16 235.1 16H236.3C236.4 16.1 236.5 16.2 236.6 16.2C236.8 16.2 237 16 237 15.8C237.2 15.6 237.1 15.5 236.9 15.4Z" fill="#3F3F3F"/>
<path d="M234.1 13.1008C233.7 13.5008 233.7 14.1008 234 14.5008L235.4 13.1008C235.1 12.7008 234.5 12.7008 234.1 13.1008Z" fill="#3F3F3F"/>
<path d="M239.4 13.1008C239 12.7008 238.4 12.7008 238 13.1008L239.4 14.5008C239.8 14.1008 239.8 13.5008 239.4 13.1008Z" fill="#3F3F3F"/>
<path d="M268.2 14.0008H267.5V13.3008C267.5 13.0008 267.3 12.8008 267 12.8008H258.5C258.2 12.8008 258 13.0008 258 13.3008V18.0008C258 18.3008 258.2 18.5008 258.5 18.5008H267C267.3 18.5008 267.5 18.3008 267.5 18.0008V17.3008H268.2C268.5 17.3008 268.7 17.1008 268.7 16.8008V14.5008C268.7 14.2008 268.5 14.0008 268.2 14.0008ZM259 13.8008H261.9V17.5008H259V13.8008Z" fill="#3F3F3F"/>
<path d="M243.2 15.4984H243.7C244 15.4984 244.2 15.3984 244.4 15.2984C244.6 15.1984 244.6 14.9984 244.6 14.6984C244.6 14.0984 244.3 13.8984 243.8 13.8984C243.5 13.8984 243.3 13.9984 243.2 14.0984C243 14.1984 243 14.3984 243 14.6984H242.4C242.4 14.2984 242.5 13.9984 242.8 13.7984C243.1 13.5984 243.4 13.3984 243.8 13.3984C244.2 13.3984 244.6 13.4984 244.8 13.7984C245.1 13.9984 245.2 14.3984 245.2 14.7984C245.2 14.9984 245.1 15.1984 245 15.3984C244.9 15.5984 244.7 15.6984 244.5 15.7984C244.8 15.8984 245 15.9984 245.1 16.1984C245.2 16.3984 245.3 16.5984 245.3 16.8984C245.3 17.2984 245.2 17.6984 244.9 17.8984C244.6 18.0984 244.3 18.2984 243.8 18.2984C243.3 18.2984 243 18.1984 242.7 17.8984C242.4 17.5984 242.3 17.2984 242.3 16.8984H242.9C242.9 17.0984 243 17.2984 243.1 17.4984C243.3 17.5984 243.5 17.6984 243.8 17.6984C244.1 17.6984 244.3 17.5984 244.5 17.4984C244.7 17.2984 244.7 17.0984 244.7 16.7984C244.7 16.4984 244.6 16.2984 244.4 16.1984C244.2 16.0984 244 15.9984 243.7 15.9984H243.2V15.4984Z" fill="#3F3F3F"/>
<path d="M248.4 13.5V14H248.3C247.8 14 247.5 14.1 247.2 14.4C246.9 14.7 246.8 15 246.7 15.5C246.9 15.2 247.3 15.1 247.7 15.1C248.1 15.1 248.4 15.2 248.7 15.5C248.9 15.8 249.1 16.2 249.1 16.6C249.1 17.1 249 17.5 248.7 17.8C248.4 18.1 248.1 18.2 247.6 18.2C247.1 18.2 246.8 18 246.5 17.7C246.2 17.4 246.1 16.9 246.1 16.4V16.2C246.1 15.3 246.3 14.7 246.7 14.2C247.1 13.7 247.6 13.5 248.4 13.5ZM247.6 15.6C247.4 15.6 247.2 15.7 247 15.8C246.8 15.9 246.7 16.1 246.6 16.3V16.5C246.6 16.9 246.7 17.2 246.9 17.4C247.1 17.6 247.3 17.8 247.6 17.8C247.9 17.8 248.1 17.7 248.2 17.5C248.4 17.3 248.4 17 248.4 16.7C248.4 16.4 248.3 16.1 248.2 15.9C248.1 15.7 247.9 15.6 247.6 15.6Z" fill="#3F3F3F"/>
<path d="M251.4 14.3984C251.4 14.0984 251.5 13.8984 251.7 13.6984C251.9 13.4984 252.1 13.3984 252.4 13.3984C252.7 13.3984 252.9 13.4984 253.1 13.6984C253.3 13.8984 253.4 14.0984 253.4 14.3984V14.5984C253.4 14.8984 253.3 15.0984 253.1 15.2984C252.9 15.4984 252.7 15.5984 252.4 15.5984C252.1 15.5984 251.9 15.4984 251.7 15.2984C251.5 15.0984 251.4 14.8984 251.4 14.5984V14.3984ZM251.8 14.5984C251.8 14.7984 251.8 14.8984 251.9 14.9984C252 15.0984 252.1 15.1984 252.3 15.1984C252.5 15.1984 252.6 15.0984 252.7 14.9984C252.8 14.8984 252.8 14.6984 252.8 14.5984V14.3984C252.8 14.1984 252.8 14.0984 252.7 13.9984C252.6 13.8984 252.5 13.7984 252.3 13.7984C252.1 13.7984 252 13.8984 251.9 13.9984C251.8 14.0984 251.8 14.2984 251.8 14.3984V14.5984ZM252.5 17.7984L252.2 17.5984L254.5 13.8984L254.8 14.0984L252.5 17.7984ZM253.7 16.9984C253.7 16.6984 253.8 16.4984 254 16.2984C254.2 16.0984 254.4 15.9984 254.7 15.9984C255 15.9984 255.2 16.0984 255.4 16.2984C255.6 16.4984 255.7 16.6984 255.7 16.9984V17.1984C255.7 17.4984 255.6 17.6984 255.4 17.8984C255.2 18.0984 255 18.1984 254.7 18.1984C254.4 18.1984 254.2 18.0984 254 17.8984C253.8 17.6984 253.7 17.4984 253.7 17.1984V16.9984ZM254.1 17.2984C254.1 17.4984 254.1 17.5984 254.2 17.6984C254.3 17.7984 254.4 17.8984 254.6 17.8984C254.8 17.8984 254.9 17.7984 255 17.6984C255.1 17.5984 255.1 17.3984 255.1 17.2984V16.9984C255.1 16.7984 255.1 16.6984 255 16.5984C254.9 16.4984 254.8 16.3984 254.6 16.3984C254.4 16.3984 254.3 16.4984 254.2 16.5984C254.1 16.6984 254.1 16.8984 254.1 16.9984V17.2984Z" fill="#3F3F3F"/>
<path d="M272.6 18.2H272V14.2L270.8 14.6V14.1L272.5 13.5H272.6V18.2Z" fill="#3F3F3F"/>
<path d="M277.5 18.2H274.4V17.8L276 16C276.2 15.7 276.4 15.5 276.5 15.3C276.6 15.1 276.6 14.9 276.6 14.8C276.6 14.6 276.5 14.3 276.4 14.2C276.3 14 276.1 14 275.8 14C275.5 14 275.3 14.1 275.1 14.3C274.9 14.5 274.9 14.7 274.9 15H274.3C274.3 14.6 274.4 14.2 274.7 13.9C275 13.6 275.4 13.5 275.8 13.5C276.2 13.5 276.6 13.6 276.8 13.8C277.1 14 277.2 14.3 277.2 14.7C277.2 15.2 276.9 15.7 276.3 16.4L275 17.8H277.4V18.2H277.5Z" fill="#3F3F3F"/>
<path d="M278.2 17.9016C278.2 17.8016 278.2 17.7016 278.3 17.6016C278.4 17.5016 278.5 17.5016 278.6 17.5016C278.7 17.5016 278.8 17.5016 278.9 17.6016C279 17.7016 279 17.8016 279 17.9016C279 18.0016 279 18.1016 278.9 18.2016C278.8 18.3016 278.7 18.3016 278.6 18.3016C278.5 18.3016 278.4 18.3016 278.3 18.2016C278.2 18.1016 278.2 18.0016 278.2 17.9016ZM278.2 15.0016C278.2 14.9016 278.2 14.8016 278.3 14.7016C278.4 14.6016 278.5 14.6016 278.6 14.6016C278.7 14.6016 278.8 14.6016 278.9 14.7016C279 14.8016 279 14.9016 279 15.0016C279 15.1016 279 15.2016 278.9 15.3016C278.8 15.4016 278.7 15.4016 278.6 15.4016C278.5 15.4016 278.4 15.4016 278.3 15.3016C278.2 15.2016 278.2 15.1016 278.2 15.0016Z" fill="#3F3F3F"/>
<path d="M281.7 18.2H281.1V14.2L279.9 14.6V14.1L281.6 13.5H281.7V18.2Z" fill="#3F3F3F"/>
<path d="M286.6 18.2H283.5V17.8L285.1 16C285.3 15.7 285.5 15.5 285.6 15.3C285.7 15.1 285.7 14.9 285.7 14.8C285.7 14.6 285.6 14.3 285.5 14.2C285.4 14 285.2 14 284.9 14C284.6 14 284.4 14.1 284.2 14.3C284 14.5 284 14.7 284 15H283.4C283.4 14.6 283.5 14.2 283.8 13.9C284.1 13.6 284.5 13.5 284.9 13.5C285.3 13.5 285.7 13.6 285.9 13.8C286.2 14 286.3 14.3 286.3 14.7C286.3 15.2 286 15.7 285.4 16.4L284.1 17.8H286.5V18.2H286.6Z" fill="#3F3F3F"/>
<path d="M142 41.7016C141.7 41.9016 141.1 42.0016 140.2 42.0016C138.3 42.0016 136.9 40.8016 136.9 38.6016C136.9 36.5016 138.3 35.1016 140.4 35.1016C141.2 35.1016 141.7 35.3016 142 35.4016L141.8 36.1016C141.5 35.9016 141 35.8016 140.5 35.8016C138.9 35.8016 137.9 36.8016 137.9 38.5016C137.9 40.1016 138.8 41.2016 140.4 41.2016C140.9 41.2016 141.5 41.1016 141.8 40.9016L142 41.7016Z" fill="black"/>
<path d="M145.7 42.0016L145.6 41.4016C145.3 41.8016 144.8 42.1016 144.1 42.1016C143.1 42.1016 142.6 41.4016 142.6 40.7016C142.6 39.5016 143.6 38.9016 145.5 38.9016V38.8016C145.5 38.4016 145.4 37.7016 144.4 37.7016C144 37.7016 143.5 37.8016 143.2 38.1016L143 37.5016C143.4 37.2016 144 37.1016 144.6 37.1016C146.1 37.1016 146.4 38.1016 146.4 39.0016V40.8016C146.4 41.2016 146.4 41.6016 146.5 41.9016H145.7V42.0016ZM145.5 39.5016C144.6 39.5016 143.5 39.6016 143.5 40.6016C143.5 41.2016 143.9 41.4016 144.3 41.4016C144.9 41.4016 145.3 41.0016 145.5 40.6016C145.5 40.5016 145.5 40.4016 145.5 40.3016V39.5016Z" fill="black"/>
<path d="M148.8 35.8008V37.2008H150V37.9008H148.8V40.5008C148.8 41.1008 149 41.4008 149.4 41.4008C149.6 41.4008 149.8 41.4008 149.9 41.3008V41.9008C149.7 42.0008 149.5 42.0008 149.1 42.0008C148.7 42.0008 148.4 41.9008 148.2 41.6008C148 41.3008 147.9 40.9008 147.9 40.4008V37.8008H147.2V37.1008H147.9V36.0008L148.8 35.8008Z" fill="black"/>
<path d="M151.4 39.7016C151.4 40.9016 152.2 41.4016 153 41.4016C153.6 41.4016 154 41.3016 154.3 41.2016L154.4 41.8016C154.1 41.9016 153.6 42.1016 152.8 42.1016C151.3 42.1016 150.5 41.1016 150.5 39.7016C150.5 38.3016 151.3 37.1016 152.7 37.1016C154.3 37.1016 154.7 38.5016 154.7 39.3016C154.7 39.5016 154.7 39.6016 154.7 39.7016H151.4ZM154 39.1016C154 38.5016 153.8 37.7016 152.8 37.7016C151.9 37.7016 151.5 38.5016 151.5 39.1016H154Z" fill="black"/>
<path d="M160 37.2031C160 37.5031 160 37.9031 160 38.5031V41.3031C160 42.4031 159.8 43.1031 159.3 43.5031C158.8 43.9031 158.2 44.1031 157.6 44.1031C157 44.1031 156.4 44.0031 156 43.7031L156.2 43.0031C156.5 43.2031 157 43.4031 157.6 43.4031C158.5 43.4031 159.1 42.9031 159.1 41.7031V41.2031C158.8 41.6031 158.3 42.0031 157.6 42.0031C156.4 42.0031 155.6 41.0031 155.6 39.7031C155.6 38.1031 156.7 37.2031 157.7 37.2031C158.5 37.2031 159 37.6031 159.2 38.0031V37.3031H160V37.2031ZM159.1 39.1031C159.1 39.0031 159.1 38.8031 159.1 38.7031C158.9 38.2031 158.5 37.8031 157.9 37.8031C157.1 37.8031 156.5 38.5031 156.5 39.6031C156.5 40.5031 157 41.3031 157.9 41.3031C158.4 41.3031 158.9 41.0031 159.1 40.4031C159.1 40.3031 159.2 40.1031 159.2 39.9031V39.1031H159.1Z" fill="black"/>
<path d="M165.7 39.5C165.7 41.3 164.5 42 163.3 42C162 42 161 41.1 161 39.5C161 37.9 162 37 163.4 37C164.8 37.1 165.7 38.1 165.7 39.5ZM161.9 39.6C161.9 40.6 162.5 41.4 163.3 41.4C164.1 41.4 164.7 40.6 164.7 39.5C164.7 38.7 164.3 37.7 163.3 37.7C162.3 37.7 161.9 38.7 161.9 39.6Z" fill="black"/>
<path d="M166.8 38.7016C166.8 38.1016 166.8 37.7016 166.8 37.2016H167.6V38.1016C167.8 37.5016 168.3 37.1016 168.9 37.1016C169 37.1016 169.1 37.1016 169.1 37.1016V37.9016C169 37.9016 168.9 37.9016 168.8 37.9016C168.2 37.9016 167.8 38.4016 167.6 39.0016C167.6 39.1016 167.6 39.3016 167.6 39.4016V42.0016H166.7V38.7016H166.8Z" fill="black"/>
<path d="M171.8 35.1016L170.6 36.5016H170L170.9 35.1016H171.8ZM170 42.0016V37.2016H170.9V42.0016H170Z" fill="black"/>
<path d="M175 42.0016L174.9 41.4016C174.6 41.8016 174.1 42.1016 173.4 42.1016C172.4 42.1016 171.9 41.4016 171.9 40.7016C171.9 39.5016 172.9 38.9016 174.8 38.9016V38.8016C174.8 38.4016 174.7 37.7016 173.7 37.7016C173.3 37.7016 172.8 37.8016 172.5 38.1016L172.3 37.5016C172.7 37.2016 173.3 37.1016 173.9 37.1016C175.4 37.1016 175.7 38.1016 175.7 39.0016V40.8016C175.7 41.2016 175.7 41.6016 175.8 41.9016H175V42.0016ZM174.8 39.5016C173.9 39.5016 172.8 39.6016 172.8 40.6016C172.8 41.2016 173.2 41.4016 173.6 41.4016C174.2 41.4016 174.6 41.0016 174.8 40.6016C174.8 40.5016 174.8 40.4016 174.8 40.3016V39.5016Z" fill="black"/>
<path d="M177 41.1016C177.3 41.3016 177.7 41.4016 178.1 41.4016C178.7 41.4016 179 41.1016 179 40.7016C179 40.3016 178.8 40.1016 178.1 39.8016C177.2 39.5016 176.8 39.0016 176.8 38.5016C176.8 37.7016 177.4 37.1016 178.4 37.1016C178.9 37.1016 179.3 37.2016 179.6 37.4016L179.4 38.0016C179.2 37.9016 178.9 37.7016 178.4 37.7016C177.9 37.7016 177.6 38.0016 177.6 38.4016C177.6 38.8016 177.9 39.0016 178.5 39.2016C179.3 39.5016 179.8 39.9016 179.8 40.6016C179.8 41.4016 179.2 42.0016 178 42.0016C177.5 42.0016 177 41.9016 176.7 41.7016L177 41.1016Z" fill="black"/>
<path d="M112 42.3008C112.1 42.4008 112.4 42.4008 112.5 42.3008C112.6 42.2008 112.6 41.9008 112.5 41.8008L110 39.3008H118.4C118.6 39.3008 118.8 39.1008 118.8 38.9008C118.8 38.7008 118.6 38.5008 118.4 38.5008H110L112.5 36.0008C112.6 35.9008 112.6 35.6008 112.5 35.5008C112.4 35.4008 112.1 35.4008 112 35.5008L108.8 38.7008C108.7 38.8008 108.7 39.1008 108.8 39.2008L112 42.3008Z" fill="black"/>
<path d="M294.6 54H97.5V55.7H294.6V54Z" fill="#EFEFEF"/>
<path d="M290.2 104.898H106V105.798H290.2V104.898Z" fill="#EFEFEF"/>
<path d="M110.7 86.8C110.4 86.9 109.9 87.1 109.2 87.1C107.5 87.1 106.3 86.1 106.3 84.1C106.3 82.3 107.5 81 109.4 81C110.1 81 110.6 81.2 110.8 81.3L110.6 81.9C110.3 81.8 109.9 81.7 109.4 81.7C108 81.7 107.1 82.6 107.1 84.1C107.1 85.5 107.9 86.5 109.3 86.5C109.8 86.5 110.2 86.4 110.5 86.3L110.7 86.8Z" fill="#6B6B6B"/>
<path d="M115.4 84.8992C115.4 86.4992 114.3 87.0992 113.3 87.0992C112.2 87.0992 111.3 86.2992 111.3 84.8992C111.3 83.4992 112.2 82.6992 113.4 82.6992C114.6 82.6992 115.4 83.5992 115.4 84.8992ZM112 84.8992C112 85.7992 112.5 86.4992 113.3 86.4992C114 86.4992 114.6 85.7992 114.6 84.8992C114.6 84.1992 114.2 83.2992 113.3 83.2992C112.4 83.2992 112 84.0992 112 84.8992Z" fill="#6B6B6B"/>
<path d="M116.3 80.8984H117.1V86.9984H116.3V80.8984Z" fill="#6B6B6B"/>
<path d="M118.8 85.0969C118.8 86.0969 119.5 86.5969 120.2 86.5969C120.7 86.5969 121.1 86.4969 121.4 86.3969L121.5 86.8969C121.2 86.9969 120.8 87.1969 120.1 87.1969C118.8 87.1969 118 86.2969 118 85.0969C118 83.8969 118.7 82.7969 120 82.7969C121.4 82.7969 121.7 83.9969 121.7 84.7969C121.7 84.9969 121.7 85.0969 121.7 85.1969H118.8V85.0969ZM121 84.4969C121 83.9969 120.8 83.2969 119.9 83.2969C119.1 83.2969 118.8 83.9969 118.7 84.4969H121Z" fill="#6B6B6B"/>
<path d="M126.3 82.7992C126.3 83.0992 126.3 83.3992 126.3 83.9992V86.3992C126.3 87.3992 126.1 87.9992 125.7 88.2992C125.3 88.6992 124.7 88.7992 124.2 88.7992C123.7 88.7992 123.1 88.6992 122.8 88.4992L123 87.8992C123.3 88.0992 123.7 88.1992 124.2 88.1992C125 88.1992 125.6 87.7992 125.6 86.6992V86.1992C125.4 86.5992 124.9 86.8992 124.3 86.8992C123.3 86.8992 122.5 85.9992 122.5 84.8992C122.5 83.4992 123.4 82.6992 124.4 82.6992C125.1 82.6992 125.5 83.0992 125.7 83.3992V82.7992H126.3ZM125.6 84.4992C125.6 84.3992 125.6 84.2992 125.6 84.1992C125.5 83.7992 125.1 83.3992 124.5 83.3992C123.8 83.3992 123.2 83.9992 123.2 84.9992C123.2 85.7992 123.6 86.4992 124.4 86.4992C124.9 86.4992 125.3 86.1992 125.5 85.6992C125.5 85.5992 125.6 85.3992 125.6 85.2992V84.4992Z" fill="#6B6B6B"/>
<path d="M128.4 81.5977C128.4 81.8977 128.2 82.0977 127.9 82.0977C127.6 82.0977 127.4 81.8977 127.4 81.5977C127.4 81.2977 127.6 81.0977 127.9 81.0977C128.2 81.1977 128.4 81.3977 128.4 81.5977ZM127.5 86.9977V82.7977H128.3V86.9977H127.5Z" fill="#6B6B6B"/>
<path d="M133.4 84.8992C133.4 86.4992 132.3 87.0992 131.3 87.0992C130.2 87.0992 129.3 86.2992 129.3 84.8992C129.3 83.4992 130.2 82.6992 131.4 82.6992C132.5 82.6992 133.4 83.5992 133.4 84.8992ZM130 84.8992C130 85.7992 130.5 86.4992 131.3 86.4992C132 86.4992 132.6 85.7992 132.6 84.8992C132.6 84.1992 132.2 83.2992 131.3 83.2992C130.4 83.2992 130 84.0992 130 84.8992Z" fill="#6B6B6B"/>
<path d="M134.2 86.1992C134.4 86.2992 134.8 86.4992 135.2 86.4992C135.8 86.4992 136 86.1992 136 85.8992C136 85.4992 135.8 85.2992 135.2 85.0992C134.4 84.7992 134.1 84.3992 134.1 83.8992C134.1 83.1992 134.6 82.6992 135.6 82.6992C136 82.6992 136.4 82.7992 136.6 82.9992L136.4 83.5992C136.2 83.4992 135.9 83.3992 135.5 83.3992C135 83.3992 134.8 83.6992 134.8 83.9992C134.8 84.2992 135.1 84.4992 135.6 84.6992C136.3 84.9992 136.7 85.2992 136.7 85.9992C136.7 86.6992 136.1 87.2992 135.1 87.2992C134.6 87.2992 134.2 87.1992 133.9 86.9992L134.2 86.1992Z" fill="#6B6B6B"/>
<path d="M145.8 97.6992H98.3V71.6992H145.8V97.6992ZM101.8 94.0992H142.2V75.1992H101.8V94.0992Z" fill="#FF4200"/>
<path d="M294.6 126.898H97.5V261.998H294.6V126.898Z" fill="white"/>
<path d="M113.6 131.301C113.5 131.301 113.5 131.301 113.4 131.301L106.7 137.801C106.7 137.801 106.6 137.901 106.7 138.001C106.7 138.101 106.8 138.101 106.8 138.101H113.5C113.6 138.101 113.7 138.001 113.7 137.901V131.401C113.7 131.301 113.7 131.301 113.6 131.301ZM110.5 134.601L111.8 133.401V137.801H110.5V134.601ZM110.2 137.701H108.9V136.101L110.2 134.901V137.701ZM108.6 136.401V137.701H107.2L108.6 136.401ZM113.4 137.701H112.1V133.001L113.4 131.801V137.701Z" fill="#3F3F3F"/>
<path d="M109.5 134C109.9 134 110.1 133.7 110.1 133.4V133.1C110.1 133 110 132.9 109.9 132.9H109.6C109.5 132.9 109.4 133 109.4 133.1C109.4 133.2 109.5 133.3 109.6 133.3H109.8V133.5C109.8 133.7 109.7 133.8 109.5 133.8C109.3 133.8 109.2 133.7 109.2 133.5V132.6C109.2 132.4 109.3 132.3 109.5 132.3C109.7 132.3 109.8 132.4 109.8 132.6C109.8 132.7 109.9 132.8 110 132.8C110.1 132.8 110.2 132.7 110.2 132.6C110.2 132.3 109.9 132 109.6 132C109.3 132 109 132.3 109 132.6V133.5C108.9 133.8 109.2 134 109.5 134Z" fill="#3F3F3F"/>
<path d="M107.5 133.4H108.3V133.9C108.3 134 108.4 134.1 108.5 134.1C108.6 134.1 108.7 134 108.7 133.9V133C108.7 132.9 108.6 132.8 108.5 132.8C108.4 132.8 108.3 132.9 108.3 133V133.2H107.8L108.3 132.2C108.3 132.1 108.3 132 108.2 132C108.1 132 108 132 108 132.1L107.4 133.3C107.4 133.3 107.4 133.4 107.4 133.5C107.4 133.4 107.4 133.4 107.5 133.4Z" fill="#3F3F3F"/>
<path d="M236.8 132.5C235.4 132.5 234.2 133.7 234.2 135.1C234.2 135.8 234.5 136.5 235 136.9C234.9 137 234.8 137.2 234.6 137.4C234.5 137.5 234.5 137.7 234.6 137.8C234.7 137.8 234.7 137.9 234.8 137.9C234.9 137.9 235 137.9 235 137.8C235 137.8 235.2 137.5 235.4 137.3C235.8 137.6 236.3 137.7 236.8 137.7C237.3 137.7 237.8 137.5 238.2 137.3C238.3 137.5 238.6 137.8 238.6 137.8C238.7 137.9 238.7 137.9 238.8 137.9C238.9 137.9 238.9 137.9 239 137.8C239.1 137.7 239.1 137.5 239 137.4C238.8 137.2 238.7 137 238.6 136.9C239.1 136.4 239.4 135.8 239.4 135.1C239.4 133.6 238.2 132.5 236.8 132.5ZM234.7 135.1C234.7 133.9 235.6 133 236.8 133C238 133 238.9 133.9 238.9 135.1C238.9 136.3 238 137.2 236.8 137.2C235.6 137.2 234.7 136.2 234.7 135.1Z" fill="#3F3F3F"/>
<path d="M236.9 134.701V134.001C236.9 133.901 236.8 133.801 236.7 133.801C236.6 133.801 236.5 133.901 236.5 134.001V134.701C236.4 134.701 236.3 134.801 236.3 134.901H235.1C235 134.901 234.9 135.001 234.9 135.101C234.9 135.201 235 135.301 235.1 135.301H236.3C236.4 135.401 236.5 135.501 236.6 135.501C236.8 135.501 237 135.301 237 135.101C237.2 134.901 237.1 134.801 236.9 134.701Z" fill="#3F3F3F"/>
<path d="M234.1 132.402C233.7 132.802 233.7 133.402 234 133.802L235.4 132.402C235.1 132.002 234.5 132.002 234.1 132.402Z" fill="#3F3F3F"/>
<path d="M239.4 132.402C239 132.002 238.4 132.002 238 132.402L239.4 133.802C239.8 133.402 239.8 132.802 239.4 132.402Z" fill="#3F3F3F"/>
<path d="M268.2 133.302H267.5V132.602C267.5 132.302 267.3 132.102 267 132.102H258.5C258.2 132.102 258 132.302 258 132.602V137.302C258 137.602 258.2 137.802 258.5 137.802H267C267.3 137.802 267.5 137.602 267.5 137.302V136.602H268.2C268.5 136.602 268.7 136.402 268.7 136.102V133.802C268.7 133.502 268.5 133.302 268.2 133.302ZM259 133.102H261.9V136.802H259V133.102Z" fill="#3F3F3F"/>
<path d="M243.2 134.799H243.7C244 134.799 244.2 134.699 244.4 134.599C244.6 134.499 244.6 134.299 244.6 133.999C244.6 133.399 244.3 133.199 243.8 133.199C243.5 133.199 243.3 133.299 243.2 133.399C243 133.499 243 133.699 243 133.999H242.4C242.4 133.599 242.5 133.299 242.8 133.099C243.1 132.899 243.4 132.699 243.8 132.699C244.2 132.699 244.6 132.799 244.8 133.099C245.1 133.299 245.2 133.699 245.2 134.099C245.2 134.299 245.1 134.499 245 134.699C244.9 134.899 244.7 134.999 244.5 135.099C244.8 135.199 245 135.299 245.1 135.499C245.2 135.699 245.3 135.899 245.3 136.199C245.3 136.599 245.2 136.999 244.9 137.199C244.6 137.399 244.3 137.599 243.8 137.599C243.3 137.599 243 137.499 242.7 137.199C242.4 136.899 242.3 136.599 242.3 136.199H242.9C242.9 136.399 243 136.599 243.1 136.799C243.3 136.899 243.5 136.999 243.8 136.999C244.1 136.999 244.3 136.899 244.5 136.799C244.7 136.599 244.7 136.399 244.7 136.099C244.7 135.799 244.6 135.599 244.4 135.499C244.2 135.399 244 135.299 243.7 135.299H243.2V134.799Z" fill="#3F3F3F"/>
<path d="M248.4 132.801V133.301H248.3C247.8 133.301 247.5 133.401 247.2 133.701C246.9 134.001 246.8 134.301 246.7 134.801C246.9 134.501 247.3 134.401 247.7 134.401C248.1 134.401 248.4 134.501 248.7 134.801C248.9 135.101 249.1 135.501 249.1 135.901C249.1 136.401 249 136.801 248.7 137.101C248.4 137.401 248.1 137.501 247.6 137.501C247.1 137.501 246.8 137.301 246.5 137.001C246.2 136.701 246.1 136.201 246.1 135.701V135.501C246.1 134.601 246.3 134.001 246.7 133.501C247.1 133.001 247.6 132.801 248.4 132.801ZM247.6 134.901C247.4 134.901 247.2 135.001 247 135.101C246.8 135.201 246.7 135.401 246.6 135.601V135.801C246.6 136.201 246.7 136.501 246.9 136.701C247.1 136.901 247.3 137.101 247.6 137.101C247.9 137.101 248.1 137.001 248.2 136.801C248.4 136.601 248.4 136.301 248.4 136.001C248.4 135.701 248.3 135.401 248.2 135.201C248.1 135.001 247.9 134.901 247.6 134.901Z" fill="#3F3F3F"/>
<path d="M251.4 133.699C251.4 133.399 251.5 133.199 251.7 132.999C251.9 132.799 252.1 132.699 252.4 132.699C252.7 132.699 252.9 132.799 253.1 132.999C253.3 133.199 253.4 133.399 253.4 133.699V133.899C253.4 134.199 253.3 134.399 253.1 134.599C252.9 134.799 252.7 134.899 252.4 134.899C252.1 134.899 251.9 134.799 251.7 134.599C251.5 134.399 251.4 134.199 251.4 133.899V133.699ZM251.8 133.899C251.8 134.099 251.8 134.199 251.9 134.299C252 134.399 252.1 134.499 252.3 134.499C252.5 134.499 252.6 134.399 252.7 134.299C252.8 134.199 252.8 133.999 252.8 133.899V133.699C252.8 133.499 252.8 133.399 252.7 133.299C252.6 133.199 252.5 133.099 252.3 133.099C252.1 133.099 252 133.199 251.9 133.299C251.8 133.399 251.8 133.599 251.8 133.699V133.899ZM252.5 137.099L252.2 136.899L254.5 133.199L254.8 133.399L252.5 137.099ZM253.7 136.299C253.7 135.999 253.8 135.799 254 135.599C254.2 135.399 254.4 135.299 254.7 135.299C255 135.299 255.2 135.399 255.4 135.599C255.6 135.799 255.7 135.999 255.7 136.299V136.499C255.7 136.799 255.6 136.999 255.4 137.199C255.2 137.399 255 137.499 254.7 137.499C254.4 137.499 254.2 137.399 254 137.199C253.8 136.999 253.7 136.799 253.7 136.499V136.299ZM254.1 136.599C254.1 136.799 254.1 136.899 254.2 136.999C254.3 137.099 254.4 137.199 254.6 137.199C254.8 137.199 254.9 137.099 255 136.999C255.1 136.899 255.1 136.699 255.1 136.599V136.399C255.1 136.199 255.1 136.099 255 135.999C254.9 135.899 254.8 135.799 254.6 135.799C254.4 135.799 254.3 135.899 254.2 135.999C254.1 136.099 254.1 136.299 254.1 136.399V136.599Z" fill="#3F3F3F"/>
<path d="M272.6 137.501H272V133.501L270.8 133.901V133.401L272.5 132.801H272.6V137.501Z" fill="#3F3F3F"/>
<path d="M277.5 137.501H274.4V137.101L276 135.301C276.2 135.001 276.4 134.801 276.5 134.601C276.6 134.401 276.6 134.201 276.6 134.101C276.6 133.901 276.5 133.601 276.4 133.501C276.3 133.301 276.1 133.301 275.8 133.301C275.5 133.301 275.3 133.401 275.1 133.601C274.9 133.801 274.9 134.001 274.9 134.301H274.3C274.3 133.901 274.4 133.501 274.7 133.201C275 132.901 275.4 132.801 275.8 132.801C276.2 132.801 276.6 132.901 276.8 133.101C277.1 133.301 277.2 133.601 277.2 134.001C277.2 134.501 276.9 135.001 276.3 135.701L275 137.101H277.4V137.501H277.5Z" fill="#3F3F3F"/>
<path d="M278.2 137.202C278.2 137.102 278.2 137.002 278.3 136.902C278.4 136.802 278.5 136.802 278.6 136.802C278.7 136.802 278.8 136.802 278.9 136.902C279 137.002 279 137.102 279 137.202C279 137.302 279 137.402 278.9 137.502C278.8 137.602 278.7 137.602 278.6 137.602C278.5 137.602 278.4 137.602 278.3 137.502C278.2 137.402 278.2 137.302 278.2 137.202ZM278.2 134.302C278.2 134.202 278.2 134.102 278.3 134.002C278.4 133.902 278.5 133.902 278.6 133.902C278.7 133.902 278.8 133.902 278.9 134.002C279 134.102 279 134.202 279 134.302C279 134.402 279 134.502 278.9 134.602C278.8 134.702 278.7 134.702 278.6 134.702C278.5 134.702 278.4 134.702 278.3 134.602C278.2 134.502 278.2 134.402 278.2 134.302Z" fill="#3F3F3F"/>
<path d="M281.7 137.501H281.1V133.501L279.9 133.901V133.401L281.6 132.801H281.7V137.501Z" fill="#3F3F3F"/>
<path d="M286.6 137.501H283.5V137.101L285.1 135.301C285.3 135.001 285.5 134.801 285.6 134.601C285.7 134.401 285.7 134.201 285.7 134.101C285.7 133.901 285.6 133.601 285.5 133.501C285.4 133.301 285.2 133.301 284.9 133.301C284.6 133.301 284.4 133.401 284.2 133.601C284 133.801 284 134.001 284 134.301H283.4C283.4 133.901 283.5 133.501 283.8 133.201C284.1 132.901 284.5 132.801 284.9 132.801C285.3 132.801 285.7 132.901 285.9 133.101C286.2 133.301 286.3 133.601 286.3 134.001C286.3 134.501 286 135.001 285.4 135.701L284.1 137.101H286.5V137.501H286.6Z" fill="#3F3F3F"/>
<path d="M137.4 154.702C137.8 154.602 138.4 154.602 139 154.602C139.9 154.602 140.4 154.702 140.8 155.102C141.1 155.402 141.4 155.702 141.4 156.302C141.4 156.902 141 157.502 140.3 157.802C140.9 158.002 141.7 158.502 141.7 159.502C141.7 160.102 141.5 160.502 141.1 160.802C140.6 161.202 139.9 161.402 138.8 161.402C138.2 161.402 137.8 161.402 137.5 161.302V154.702H137.4ZM138.3 157.402H139.1C140 157.402 140.5 156.902 140.5 156.302C140.5 155.502 139.9 155.202 139 155.202C138.6 155.202 138.4 155.202 138.2 155.302V157.402H138.3ZM138.3 160.602C138.5 160.602 138.7 160.602 139 160.602C139.9 160.602 140.7 160.302 140.7 159.302C140.7 158.402 139.9 158.002 139 158.002H138.3V160.602Z" fill="black"/>
<path d="M146.7 160C146.7 160.5 146.7 160.9 146.7 161.3H146V160.5C145.8 160.9 145.3 161.4 144.4 161.4C143.7 161.4 142.8 161 142.8 159.3V156.5H143.7V159.1C143.7 160 144 160.6 144.8 160.6C145.4 160.6 145.8 160.2 145.9 159.8C145.9 159.7 146 159.5 146 159.4V156.5H146.9V160H146.7Z" fill="black"/>
<path d="M148 160.402C148.3 160.602 148.7 160.702 149.1 160.702C149.7 160.702 150 160.402 150 160.002C150 159.602 149.8 159.402 149.1 159.102C148.2 158.802 147.8 158.302 147.8 157.802C147.8 157.002 148.4 156.402 149.4 156.402C149.9 156.402 150.3 156.502 150.6 156.702L150.4 157.302C150.2 157.202 149.9 157.002 149.4 157.002C148.9 157.002 148.6 157.302 148.6 157.702C148.6 158.102 148.9 158.302 149.5 158.502C150.3 158.802 150.8 159.202 150.8 159.902C150.8 160.702 150.2 161.302 149 161.302C148.5 161.302 148 161.202 147.7 161.002L148 160.402Z" fill="black"/>
<path d="M155.4 161.1C155.2 161.2 154.7 161.4 154 161.4C152.6 161.4 151.6 160.4 151.6 159C151.6 157.5 152.6 156.5 154.2 156.5C154.7 156.5 155.2 156.6 155.4 156.7L155.2 157.4C155 157.3 154.7 157.2 154.2 157.2C153.1 157.2 152.5 158 152.5 159C152.5 160.1 153.2 160.8 154.2 160.8C154.7 160.8 155 160.7 155.3 160.6L155.4 161.1Z" fill="black"/>
<path d="M159.1 161.302L159 160.702C158.7 161.102 158.2 161.402 157.5 161.402C156.5 161.402 156 160.702 156 160.002C156 158.802 157 158.202 158.9 158.202V158.102C158.9 157.702 158.8 157.002 157.8 157.002C157.4 157.002 156.9 157.102 156.6 157.402L156.4 156.802C156.8 156.502 157.4 156.402 158 156.402C159.5 156.402 159.8 157.402 159.8 158.302V160.102C159.8 160.502 159.8 160.902 159.9 161.202H159.1V161.302ZM159 158.802C158.1 158.802 157 158.902 157 159.902C157 160.502 157.4 160.702 157.8 160.702C158.4 160.702 158.8 160.302 159 159.902C159 159.802 159 159.702 159 159.602V158.802Z" fill="black"/>
<path d="M161.2 158.002C161.2 157.402 161.2 157.002 161.2 156.502H162V157.402C162.2 156.802 162.7 156.402 163.3 156.402C163.4 156.402 163.5 156.402 163.5 156.402V157.202C163.4 157.202 163.3 157.202 163.2 157.202C162.6 157.202 162.2 157.702 162 158.302C162 158.402 162 158.602 162 158.702V161.202H161.1V158.002H161.2Z" fill="black"/>
<path d="M167 159.002C167 160.202 167.8 160.702 168.6 160.702C169.2 160.702 169.6 160.602 169.9 160.502L170 161.102C169.7 161.202 169.2 161.402 168.4 161.402C166.9 161.402 166.1 160.402 166.1 159.002C166.1 157.602 166.9 156.402 168.3 156.402C169.9 156.402 170.3 157.802 170.3 158.602C170.3 158.802 170.3 158.902 170.3 159.002H167ZM169.5 158.402C169.5 157.802 169.3 157.002 168.3 157.002C167.4 157.002 167 157.802 167 158.402H169.5Z" fill="black"/>
<path d="M171.4 157.802C171.4 157.302 171.4 156.902 171.4 156.502H172.2V157.302C172.5 156.802 172.9 156.402 173.7 156.402C174.3 156.402 174.8 156.802 175 157.402C175.1 157.102 175.3 156.902 175.5 156.802C175.8 156.602 176.1 156.502 176.6 156.502C177.2 156.502 178.2 156.902 178.2 158.602V161.402H177.4V158.702C177.4 157.802 177.1 157.202 176.4 157.202C175.9 157.202 175.5 157.602 175.4 158.002C175.4 158.102 175.3 158.302 175.3 158.402V161.302H174.5V158.402C174.5 157.602 174.2 157.102 173.5 157.102C173 157.102 172.6 157.502 172.4 158.002C172.4 158.102 172.3 158.302 172.3 158.402V161.302H171.5V157.802H171.4Z" fill="black"/>
<path d="M179.6 158.102C179.6 157.502 179.6 157.002 179.6 156.502H180.4V157.302C180.8 156.702 181.3 156.402 182.1 156.402C183.3 156.402 184.1 157.402 184.1 158.802C184.1 160.502 183.1 161.402 181.9 161.402C181.3 161.402 180.7 161.102 180.4 160.702V163.302H179.5V158.102H179.6ZM180.5 159.302C180.5 159.402 180.5 159.502 180.5 159.702C180.7 160.302 181.2 160.702 181.8 160.702C182.7 160.702 183.2 160.002 183.2 158.902C183.2 157.902 182.7 157.102 181.8 157.102C181.2 157.102 180.7 157.502 180.5 158.202C180.5 158.302 180.4 158.402 180.4 158.602V159.302H180.5Z" fill="black"/>
<path d="M185.2 158.002C185.2 157.402 185.2 157.002 185.2 156.502H186V157.402C186.2 156.802 186.7 156.402 187.3 156.402C187.4 156.402 187.5 156.402 187.5 156.402V157.202C187.4 157.202 187.3 157.202 187.2 157.202C186.6 157.202 186.2 157.702 186 158.302C186 158.402 186 158.602 186 158.702V161.202H185.1V158.002H185.2Z" fill="black"/>
<path d="M188.9 159.002C188.9 160.202 189.7 160.702 190.5 160.702C191.1 160.702 191.5 160.602 191.8 160.502L191.9 161.102C191.6 161.202 191.1 161.402 190.3 161.402C188.8 161.402 188 160.402 188 159.002C188 157.602 188.8 156.402 190.2 156.402C191.8 156.402 192.2 157.802 192.2 158.602C192.2 158.802 192.2 158.902 192.2 159.002H188.9ZM191.4 158.402C191.4 157.802 191.2 157.002 190.2 157.002C189.3 157.002 188.9 157.802 188.9 158.402H191.4Z" fill="black"/>
<path d="M193.2 160.402C193.5 160.602 193.9 160.702 194.3 160.702C194.9 160.702 195.2 160.402 195.2 160.002C195.2 159.602 195 159.402 194.3 159.102C193.4 158.802 193 158.302 193 157.802C193 157.002 193.6 156.402 194.6 156.402C195.1 156.402 195.5 156.502 195.8 156.702L195.6 157.302C195.4 157.202 195.1 157.002 194.6 157.002C194.1 157.002 193.8 157.302 193.8 157.702C193.8 158.102 194.1 158.302 194.7 158.502C195.5 158.802 196 159.202 196 159.902C196 160.702 195.4 161.302 194.2 161.302C193.7 161.302 193.2 161.202 192.9 161.002L193.2 160.402Z" fill="black"/>
<path d="M199.8 161.302L199.7 160.702C199.4 161.102 198.9 161.402 198.2 161.402C197.2 161.402 196.7 160.702 196.7 160.002C196.7 158.802 197.7 158.202 199.6 158.202V158.102C199.6 157.702 199.5 157.002 198.5 157.002C198.1 157.002 197.6 157.102 197.3 157.402L197.1 156.802C197.5 156.502 198.1 156.402 198.7 156.402C200.2 156.402 200.5 157.402 200.5 158.302V160.102C200.5 160.502 200.5 160.902 200.6 161.202H199.8V161.302ZM199.7 158.802C198.8 158.802 197.7 158.902 197.7 159.902C197.7 160.502 198.1 160.702 198.5 160.702C199.1 160.702 199.5 160.302 199.7 159.902C199.7 159.802 199.7 159.702 199.7 159.602V158.802Z" fill="black"/>
<path d="M116.9 194.601L116.1 197.001H115.1L117.7 189.301H118.9L121.5 197.001H120.4L119.6 194.601H116.9ZM119.5 193.801L118.7 191.601C118.5 191.101 118.4 190.601 118.3 190.201C118.2 190.701 118.1 191.101 117.9 191.601L117.1 193.801H119.5Z" fill="black"/>
<path d="M127.9 196.801C127.5 197.001 126.8 197.201 125.9 197.201C123.7 197.201 122.1 195.801 122.1 193.301C122.1 190.901 123.7 189.301 126.1 189.301C127.1 189.301 127.7 189.501 127.9 189.601L127.7 190.401C127.3 190.201 126.8 190.101 126.1 190.101C124.3 190.101 123.1 191.301 123.1 193.301C123.1 195.201 124.2 196.401 126.1 196.401C126.7 196.401 127.3 196.301 127.7 196.101L127.9 196.801Z" fill="black"/>
<path d="M130.4 194.601L129.6 197.001H128.6L131.2 189.301H132.4L135 197.001H134L133.2 194.601H130.4ZM133 193.801L132.2 191.601C132 191.101 131.9 190.601 131.8 190.201C131.7 190.701 131.6 191.101 131.4 191.601L130.6 193.801H133Z" fill="black"/>
<path d="M136.2 189.399C136.8 189.299 137.5 189.199 138.3 189.199C139.7 189.199 140.7 189.499 141.4 190.199C142.1 190.799 142.5 191.699 142.5 192.999C142.5 194.299 142.1 195.299 141.4 195.999C140.7 196.699 139.5 197.099 138 197.099C137.3 197.099 136.7 197.099 136.2 196.999V189.399ZM137.2 196.199C137.5 196.199 137.8 196.299 138.2 196.299C140.3 196.299 141.5 195.099 141.5 192.999C141.5 191.199 140.5 189.999 138.4 189.999C137.9 189.999 137.5 189.999 137.2 190.099V196.199Z" fill="black"/>
<path d="M147.8 193.401H144.8V196.201H148.1V197.001H143.8V189.301H148V190.101H144.8V192.501H147.8V193.401Z" fill="black"/>
<path d="M155.9 193.701C155.8 192.601 155.8 191.301 155.8 190.401C155.5 191.301 155.2 192.301 154.8 193.301L153.4 197.001H152.6L151.4 193.301C151 192.201 150.7 191.201 150.5 190.301C150.5 191.301 150.4 192.601 150.4 193.701L150.2 197.001H149.3L149.8 189.301H151.1L152.4 193.001C152.7 193.901 153 194.801 153.2 195.601C153.4 194.801 153.7 194.001 154 193.001L155.4 189.301H156.7L157.2 197.001H156.2L155.9 193.701Z" fill="black"/>
<path d="M159.6 189.301V197.001H158.6V189.301H159.6Z" fill="black"/>
<path d="M162.6 194.601L161.8 197.001H160.8L163.4 189.301H164.6L167.2 197.001H166.1L165.3 194.601H162.6ZM165.1 193.801L164.3 191.601C164.1 191.101 164 190.601 163.9 190.201C163.8 190.701 163.7 191.101 163.5 191.601L162.7 193.801H165.1Z" fill="black"/>
<path d="M168.2 195.799C168.6 196.099 169.3 196.299 170 196.299C171 196.299 171.6 195.799 171.6 194.999C171.6 194.299 171.2 193.899 170.1 193.499C168.8 193.099 168.1 192.399 168.1 191.299C168.1 190.099 169.1 189.199 170.6 189.199C171.4 189.199 172 189.399 172.3 189.599L172 190.399C171.7 190.299 171.2 189.999 170.5 189.999C169.4 189.999 169 190.599 169 191.199C169 191.899 169.5 192.299 170.5 192.699C171.8 193.199 172.5 193.799 172.5 194.999C172.5 196.199 171.6 197.199 169.8 197.199C169.1 197.199 168.2 196.999 167.8 196.699L168.2 195.799Z" fill="black"/>
<path d="M177.4 190.198H175.1V189.398H180.8V190.198H178.4V197.098H177.4V190.198Z" fill="black"/>
<path d="M181.6 189.399C182.1 189.299 182.8 189.199 183.5 189.199C184.6 189.199 185.2 189.399 185.7 189.799C186.1 190.099 186.3 190.699 186.3 191.299C186.3 192.299 185.7 192.999 184.8 193.299C185.4 193.499 185.7 194.099 185.9 194.899C186.2 195.999 186.3 196.699 186.5 196.999H185.5C185.4 196.799 185.2 196.099 185 195.199C184.8 194.099 184.4 193.699 183.5 193.699H182.6V196.999H181.6V189.399ZM182.6 192.899H183.6C184.7 192.899 185.3 192.299 185.3 191.399C185.3 190.399 184.6 189.999 183.5 189.999C183 189.999 182.7 189.999 182.5 190.099V192.899H182.6Z" fill="black"/>
<path d="M188.8 189.301V197.001H187.8V189.301H188.8Z" fill="black"/>
<path d="M190.5 189.301H191.5V196.201H194.8V197.001H190.5V189.301Z" fill="black"/>
<path d="M200.8 196.801C200.4 197.001 199.7 197.201 198.8 197.201C196.6 197.201 195 195.801 195 193.301C195 190.901 196.6 189.301 199 189.301C200 189.301 200.6 189.501 200.8 189.601L200.6 190.401C200.2 190.201 199.7 190.101 199 190.101C197.2 190.101 196 191.301 196 193.301C196 195.201 197.1 196.401 199 196.401C199.6 196.401 200.2 196.301 200.6 196.101L200.8 196.801Z" fill="black"/>
<path d="M206.1 193.401H203.1V196.201H206.4V197.001H202.1V189.301H206.3V190.101H203.1V192.501H206.1V193.401Z" fill="black"/>
<path d="M112 161.602C112.1 161.702 112.4 161.702 112.5 161.602C112.6 161.502 112.6 161.202 112.5 161.102L110 158.602H118.4C118.6 158.602 118.8 158.402 118.8 158.202C118.8 158.002 118.6 157.802 118.4 157.802H110L112.5 155.302C112.6 155.202 112.6 154.902 112.5 154.802C112.4 154.702 112.1 154.702 112 154.802L108.8 158.002C108.7 158.102 108.7 158.402 108.8 158.502L112 161.602Z" fill="black"/>
<path d="M294.6 173.301H97.5V175.001H294.6V173.301Z" fill="#EFEFEF"/>
<path d="M290.2 243.398H106V244.298H290.2V243.398Z" fill="#EFEFEF"/>
<path d="M274.2 193.198L277.8 189.598C278 189.398 278 188.998 277.8 188.798C277.6 188.598 277.2 188.598 277 188.798L273.4 192.398L269.8 188.798C269.6 188.598 269.2 188.598 269 188.798C268.8 188.998 268.8 189.398 269 189.598L272.6 193.198L269 196.798C268.8 196.998 268.8 197.398 269 197.598C269.1 197.698 269.3 197.798 269.4 197.798C269.5 197.798 269.7 197.698 269.8 197.598L273.4 193.998L277 197.598C277.1 197.698 277.3 197.798 277.4 197.798C277.5 197.798 277.7 197.698 277.8 197.598C278 197.398 278 196.998 277.8 196.798L274.2 193.198Z" fill="#9E42E1"/>
<path d="M282.4 207.501H109.5C106.8 207.501 104.6 205.301 104.6 202.601V183.701C104.6 181.001 106.8 178.801 109.5 178.801H282.4C285.1 178.801 287.3 181.001 287.3 183.701V202.601C287.3 205.301 285.1 207.501 282.4 207.501ZM109.5 181.601C108.3 181.601 107.3 182.601 107.3 183.801V202.701C107.3 203.901 108.3 204.901 109.5 204.901H282.4C283.6 204.901 284.6 203.901 284.6 202.701V183.801C284.6 182.601 283.6 181.601 282.4 181.601H109.5Z" fill="#EFEFEF"/>
<path d="M221.1 205.898H101.8V179.898H221.1V205.898ZM105.3 202.398H217.5V183.498H105.3V202.398Z" fill="#FF4200"/>
<path d="M107.6 230.303L107 232.103H106.2L108.2 226.203H109.1L111.1 232.103H110.3L109.7 230.303H107.6ZM109.5 229.703L108.9 228.003C108.8 227.603 108.7 227.303 108.6 226.903C108.5 227.203 108.4 227.603 108.3 228.003L107.7 229.703H109.5Z" fill="#6B6B6B"/>
<path d="M115.9 231.902C115.6 232.002 115.1 232.202 114.4 232.202C112.7 232.202 111.5 231.202 111.5 229.202C111.5 227.402 112.7 226.102 114.6 226.102C115.3 226.102 115.8 226.302 116 226.402L115.8 227.002C115.5 226.902 115.1 226.802 114.6 226.802C113.2 226.802 112.3 227.702 112.3 229.202C112.3 230.602 113.1 231.602 114.5 231.602C115 231.602 115.4 231.502 115.7 231.402L115.9 231.902Z" fill="#6B6B6B"/>
<path d="M117.9 230.303L117.3 232.103H116.5L118.5 226.203H119.4L121.4 232.103H120.6L120 230.303H117.9ZM119.8 229.703L119.2 228.003C119.1 227.603 119 227.303 118.9 226.903C118.8 227.203 118.7 227.603 118.6 228.003L118 229.703H119.8Z" fill="#6B6B6B"/>
<path d="M122.2 226.401C122.7 226.301 123.2 226.301 123.8 226.301C124.9 226.301 125.7 226.601 126.2 227.001C126.7 227.501 127 228.201 127 229.101C127 230.101 126.7 230.801 126.2 231.401C125.7 231.901 124.7 232.201 123.6 232.201C123.1 232.201 122.6 232.201 122.2 232.101V226.401ZM123 231.501C123.2 231.501 123.5 231.501 123.8 231.501C125.4 231.501 126.3 230.601 126.3 229.001C126.3 227.601 125.5 226.701 123.9 226.701C123.5 226.701 123.2 226.701 123 226.801V231.501Z" fill="#6B6B6B"/>
<path d="M131 229.403H128.7V231.503H131.2V232.103H128V226.203H131.2V226.803H128.8V228.603H131.1V229.403H131Z" fill="#6B6B6B"/>
<path d="M137.2 229.603C137.2 228.803 137.1 227.803 137.1 227.103C136.9 227.803 136.7 228.503 136.4 229.303L135.4 232.103H134.8L133.9 229.303C133.6 228.503 133.4 227.703 133.2 227.003C133.2 227.703 133.1 228.703 133.1 229.603L132.9 232.103H132.2L132.6 226.203H133.6L134.6 229.003C134.8 229.703 135 230.403 135.2 231.003C135.3 230.403 135.6 229.803 135.8 229.003L136.8 226.203H137.8L138.2 232.103H137.5L137.2 229.603Z" fill="#6B6B6B"/>
<path d="M140 226.301V232.201H139.2V226.301H140Z" fill="#6B6B6B"/>
<path d="M142.3 230.303L141.7 232.103H140.9L142.9 226.203H143.8L145.8 232.103H145L144.4 230.303H142.3ZM144.2 229.703L143.6 228.003C143.5 227.603 143.4 227.303 143.3 226.903C143.2 227.203 143.1 227.603 143 228.003L142.4 229.703H144.2Z" fill="#6B6B6B"/>
<path d="M146.5 231.202C146.8 231.402 147.3 231.602 147.9 231.602C148.7 231.602 149.1 231.202 149.1 230.602C149.1 230.102 148.8 229.702 148 229.402C147 229.102 146.5 228.602 146.5 227.702C146.5 226.802 147.3 226.102 148.4 226.102C149 226.102 149.4 226.202 149.7 226.402L149.5 227.002C149.3 226.902 148.9 226.702 148.4 226.702C147.6 226.702 147.3 227.202 147.3 227.602C147.3 228.102 147.7 228.402 148.5 228.702C149.5 229.102 150 229.602 150 230.402C150 231.302 149.3 232.102 148 232.102C147.4 232.102 146.8 231.902 146.5 231.702V231.202Z" fill="#6B6B6B"/>
<path d="M153.5 226.901H151.7V226.301H156V226.901H154.2V232.101H153.4V226.901H153.5Z" fill="#6B6B6B"/>
<path d="M156.7 226.401C157.1 226.301 157.6 226.301 158.1 226.301C158.9 226.301 159.4 226.401 159.8 226.801C160.1 227.101 160.3 227.501 160.3 227.901C160.3 228.701 159.8 229.201 159.2 229.401C159.7 229.601 159.9 230.001 160.1 230.601C160.3 231.401 160.4 232.001 160.6 232.201H159.8C159.7 232.001 159.6 231.501 159.4 230.801C159.2 230.001 158.9 229.701 158.2 229.701H157.5V232.201H156.7V226.401ZM157.5 229.001H158.3C159.1 229.001 159.6 228.601 159.6 227.901C159.6 227.101 159.1 226.801 158.3 226.801C157.9 226.801 157.7 226.801 157.6 226.901V229.001H157.5Z" fill="#6B6B6B"/>
<path d="M162.1 226.301V232.201H161.3V226.301H162.1Z" fill="#6B6B6B"/>
<path d="M163.4 226.301H164.2V231.501H166.7V232.101H163.4V226.301Z" fill="#6B6B6B"/>
<path d="M171.3 231.902C171 232.002 170.5 232.202 169.8 232.202C168.1 232.202 166.9 231.202 166.9 229.202C166.9 227.402 168.1 226.102 170 226.102C170.7 226.102 171.2 226.302 171.4 226.402L171.2 227.002C170.9 226.902 170.5 226.802 170 226.802C168.6 226.802 167.7 227.702 167.7 229.202C167.7 230.602 168.5 231.602 169.9 231.602C170.4 231.602 170.8 231.502 171.1 231.402L171.3 231.902Z" fill="#6B6B6B"/>
<path d="M175.3 229.403H173V231.503H175.5V232.103H172.2V226.203H175.4V226.803H173V228.603H175.3V229.403Z" fill="#6B6B6B"/>
</svg>
