<svg width="392" height="262" viewBox="0 0 392 262" fill="none" xmlns="http://www.w3.org/2000/svg">
<path d="M392 0H0V262H392V0Z" fill="#E3E3E3"/>
<path d="M294.5 7.69922H97.3999V261.999H294.5V7.69922Z" fill="white"/>
<path d="M282.4 97.6H109.6C107.6 97.6 106.1 96 106.1 94.1V64.5C106.1 62.5 107.7 61 109.6 61H282.4C284.4 61 285.9 62.6 285.9 64.5V94.1C286 96 284.4 97.6 282.4 97.6Z" fill="#F9F9F9"/>
<path d="M282.4 98.5016H109.6C107.2 98.5016 105.2 96.5016 105.2 94.1016V64.5016C105.2 62.1016 107.2 60.1016 109.6 60.1016H282.4C284.8 60.1016 286.8 62.1016 286.8 64.5016V94.1016C286.8 96.5016 284.9 98.5016 282.4 98.5016ZM109.6 61.8016C108.1 61.8016 106.9 63.0016 106.9 64.5016V94.1016C106.9 95.6016 108.1 96.8016 109.6 96.8016H282.4C283.9 96.8016 285.1 95.6016 285.1 94.1016V64.5016C285.1 63.0016 283.9 61.8016 282.4 61.8016H109.6Z" fill="#ECF1F5"/>
<path d="M113.6 12C113.5 12 113.5 12 113.4 12L106.7 18.5C106.7 18.5 106.6 18.6 106.7 18.7C106.7 18.8 106.8 18.8 106.8 18.8H113.5C113.6 18.8 113.7 18.7 113.7 18.6V12.1C113.7 12 113.7 12 113.6 12ZM110.5 15.3L111.8 14.1V18.5H110.5V15.3ZM110.2 18.4H108.9V16.8L110.2 15.6V18.4ZM108.6 17.1V18.4H107.2L108.6 17.1ZM113.4 18.4H112.1V13.7L113.4 12.5V18.4Z" fill="#3F3F3F"/>
<path d="M109.5 14.6992C109.9 14.6992 110.1 14.3992 110.1 14.0992V13.7992C110.1 13.6992 110 13.5992 109.9 13.5992H109.6C109.5 13.5992 109.4 13.6992 109.4 13.7992C109.4 13.8992 109.5 13.9992 109.6 13.9992H109.8V14.1992C109.8 14.3992 109.7 14.4992 109.5 14.4992C109.3 14.4992 109.2 14.3992 109.2 14.1992V13.2992C109.2 13.0992 109.3 12.9992 109.5 12.9992C109.7 12.9992 109.8 13.0992 109.8 13.2992C109.8 13.3992 109.9 13.4992 110 13.4992C110.1 13.4992 110.2 13.3992 110.2 13.2992C110.2 12.9992 109.9 12.6992 109.6 12.6992C109.3 12.6992 109 12.9992 109 13.2992V14.1992C108.9 14.4992 109.2 14.6992 109.5 14.6992Z" fill="#3F3F3F"/>
<path d="M107.5 14.0992H108.3V14.5992C108.3 14.6992 108.4 14.7992 108.5 14.7992C108.6 14.7992 108.7 14.6992 108.7 14.5992V13.6992C108.7 13.5992 108.6 13.4992 108.5 13.4992C108.4 13.4992 108.3 13.5992 108.3 13.6992V13.8992H107.8L108.3 12.8992C108.3 12.7992 108.3 12.6992 108.2 12.6992C108.1 12.6992 108 12.6992 108 12.7992L107.4 13.9992C107.4 13.9992 107.4 14.0992 107.4 14.1992C107.4 14.0992 107.4 14.0992 107.5 14.0992Z" fill="#3F3F3F"/>
<path d="M236.8 13.1992C235.4 13.1992 234.2 14.3992 234.2 15.7992C234.2 16.4992 234.5 17.1992 235 17.5992C234.9 17.6992 234.8 17.8992 234.6 18.0992C234.5 18.1992 234.5 18.3992 234.6 18.4992C234.7 18.4992 234.7 18.5992 234.8 18.5992C234.9 18.5992 235 18.5992 235 18.4992C235 18.4992 235.2 18.1992 235.4 17.9992C235.8 18.2992 236.3 18.3992 236.8 18.3992C237.3 18.3992 237.8 18.1992 238.2 17.9992C238.3 18.1992 238.6 18.4992 238.6 18.4992C238.7 18.5992 238.7 18.5992 238.8 18.5992C238.9 18.5992 238.9 18.5992 239 18.4992C239.1 18.3992 239.1 18.1992 239 18.0992C238.8 17.8992 238.7 17.6992 238.6 17.5992C239.1 17.0992 239.4 16.4992 239.4 15.7992C239.4 14.2992 238.2 13.1992 236.8 13.1992ZM234.7 15.7992C234.7 14.5992 235.6 13.6992 236.8 13.6992C238 13.6992 238.9 14.5992 238.9 15.7992C238.9 16.9992 238 17.8992 236.8 17.8992C235.6 17.8992 234.7 16.8992 234.7 15.7992Z" fill="#3F3F3F"/>
<path d="M236.9 15.4V14.7C236.9 14.6 236.8 14.5 236.7 14.5C236.6 14.5 236.5 14.6 236.5 14.7V15.4C236.4 15.4 236.3 15.5 236.3 15.6H235.1C235 15.6 234.9 15.7 234.9 15.8C234.9 15.9 235 16 235.1 16H236.3C236.4 16.1 236.5 16.2 236.6 16.2C236.8 16.2 237 16 237 15.8C237.2 15.6 237.1 15.5 236.9 15.4Z" fill="#3F3F3F"/>
<path d="M234.1 13.1008C233.7 13.5008 233.7 14.1008 234 14.5008L235.4 13.1008C235.1 12.7008 234.5 12.7008 234.1 13.1008Z" fill="#3F3F3F"/>
<path d="M239.4 13.1008C239 12.7008 238.4 12.7008 238 13.1008L239.4 14.5008C239.8 14.1008 239.8 13.5008 239.4 13.1008Z" fill="#3F3F3F"/>
<path d="M268.2 14.0008H267.5V13.3008C267.5 13.0008 267.3 12.8008 267 12.8008H258.5C258.2 12.8008 258 13.0008 258 13.3008V18.0008C258 18.3008 258.2 18.5008 258.5 18.5008H267C267.3 18.5008 267.5 18.3008 267.5 18.0008V17.3008H268.2C268.5 17.3008 268.7 17.1008 268.7 16.8008V14.5008C268.7 14.2008 268.5 14.0008 268.2 14.0008ZM259 13.8008H261.9V17.5008H259V13.8008Z" fill="#3F3F3F"/>
<path d="M243.2 15.4984H243.7C244 15.4984 244.2 15.3984 244.4 15.2984C244.6 15.1984 244.6 14.9984 244.6 14.6984C244.6 14.0984 244.3 13.8984 243.8 13.8984C243.5 13.8984 243.3 13.9984 243.2 14.0984C243 14.1984 243 14.3984 243 14.6984H242.4C242.4 14.2984 242.5 13.9984 242.8 13.7984C243.1 13.5984 243.4 13.3984 243.8 13.3984C244.2 13.3984 244.6 13.4984 244.8 13.7984C245.1 13.9984 245.2 14.3984 245.2 14.7984C245.2 14.9984 245.1 15.1984 245 15.3984C244.9 15.5984 244.7 15.6984 244.5 15.7984C244.8 15.8984 245 15.9984 245.1 16.1984C245.2 16.3984 245.3 16.5984 245.3 16.8984C245.3 17.2984 245.2 17.6984 244.9 17.8984C244.6 18.0984 244.3 18.2984 243.8 18.2984C243.3 18.2984 243 18.1984 242.7 17.8984C242.4 17.5984 242.3 17.2984 242.3 16.8984H242.9C242.9 17.0984 243 17.2984 243.1 17.4984C243.3 17.5984 243.5 17.6984 243.8 17.6984C244.1 17.6984 244.3 17.5984 244.5 17.4984C244.7 17.2984 244.7 17.0984 244.7 16.7984C244.7 16.4984 244.6 16.2984 244.4 16.1984C244.2 16.0984 244 15.9984 243.7 15.9984H243.2V15.4984Z" fill="#3F3F3F"/>
<path d="M248.4 13.5V14H248.3C247.8 14 247.5 14.1 247.2 14.4C246.9 14.7 246.8 15 246.7 15.5C246.9 15.2 247.3 15.1 247.7 15.1C248.1 15.1 248.4 15.2 248.7 15.5C248.9 15.8 249.1 16.2 249.1 16.6C249.1 17.1 249 17.5 248.7 17.8C248.4 18.1 248.1 18.2 247.6 18.2C247.1 18.2 246.8 18 246.5 17.7C246.2 17.4 246.1 16.9 246.1 16.4V16.2C246.1 15.3 246.3 14.7 246.7 14.2C247.1 13.7 247.6 13.5 248.4 13.5ZM247.6 15.6C247.4 15.6 247.2 15.7 247 15.8C246.8 15.9 246.7 16.1 246.6 16.3V16.5C246.6 16.9 246.7 17.2 246.9 17.4C247.1 17.6 247.3 17.8 247.6 17.8C247.9 17.8 248.1 17.7 248.2 17.5C248.4 17.3 248.4 17 248.4 16.7C248.4 16.4 248.3 16.1 248.2 15.9C248.1 15.7 247.9 15.6 247.6 15.6Z" fill="#3F3F3F"/>
<path d="M251.4 14.3984C251.4 14.0984 251.5 13.8984 251.7 13.6984C251.9 13.4984 252.1 13.3984 252.4 13.3984C252.7 13.3984 252.9 13.4984 253.1 13.6984C253.3 13.8984 253.4 14.0984 253.4 14.3984V14.5984C253.4 14.8984 253.3 15.0984 253.1 15.2984C252.9 15.4984 252.7 15.5984 252.4 15.5984C252.1 15.5984 251.9 15.4984 251.7 15.2984C251.5 15.0984 251.4 14.8984 251.4 14.5984V14.3984ZM251.8 14.5984C251.8 14.7984 251.8 14.8984 251.9 14.9984C252 15.0984 252.1 15.1984 252.3 15.1984C252.5 15.1984 252.6 15.0984 252.7 14.9984C252.8 14.8984 252.8 14.6984 252.8 14.5984V14.3984C252.8 14.1984 252.8 14.0984 252.7 13.9984C252.6 13.8984 252.5 13.7984 252.3 13.7984C252.1 13.7984 252 13.8984 251.9 13.9984C251.8 14.0984 251.8 14.2984 251.8 14.3984V14.5984ZM252.5 17.7984L252.2 17.5984L254.5 13.8984L254.8 14.0984L252.5 17.7984ZM253.7 16.9984C253.7 16.6984 253.8 16.4984 254 16.2984C254.2 16.0984 254.4 15.9984 254.7 15.9984C255 15.9984 255.2 16.0984 255.4 16.2984C255.6 16.4984 255.7 16.6984 255.7 16.9984V17.1984C255.7 17.4984 255.6 17.6984 255.4 17.8984C255.2 18.0984 255 18.1984 254.7 18.1984C254.4 18.1984 254.2 18.0984 254 17.8984C253.8 17.6984 253.7 17.4984 253.7 17.1984V16.9984ZM254.1 17.2984C254.1 17.4984 254.1 17.5984 254.2 17.6984C254.3 17.7984 254.4 17.8984 254.6 17.8984C254.8 17.8984 254.9 17.7984 255 17.6984C255.1 17.5984 255.1 17.3984 255.1 17.2984V16.9984C255.1 16.7984 255.1 16.6984 255 16.5984C254.9 16.4984 254.8 16.3984 254.6 16.3984C254.4 16.3984 254.3 16.4984 254.2 16.5984C254.1 16.6984 254.1 16.8984 254.1 16.9984V17.2984Z" fill="#3F3F3F"/>
<path d="M272.6 18.2H272V14.2L270.8 14.6V14.1L272.5 13.5H272.6V18.2Z" fill="#3F3F3F"/>
<path d="M277.5 18.2H274.4V17.8L276 16C276.2 15.7 276.4 15.5 276.5 15.3C276.6 15.1 276.6 14.9 276.6 14.8C276.6 14.6 276.5 14.3 276.4 14.2C276.3 14 276.1 14 275.8 14C275.5 14 275.3 14.1 275.1 14.3C274.9 14.5 274.9 14.7 274.9 15H274.3C274.3 14.6 274.4 14.2 274.7 13.9C275 13.6 275.4 13.5 275.8 13.5C276.2 13.5 276.6 13.6 276.8 13.8C277.1 14 277.2 14.3 277.2 14.7C277.2 15.2 276.9 15.7 276.3 16.4L275 17.8H277.4V18.2H277.5Z" fill="#3F3F3F"/>
<path d="M278.2 17.9016C278.2 17.8016 278.2 17.7016 278.3 17.6016C278.4 17.5016 278.5 17.5016 278.6 17.5016C278.7 17.5016 278.8 17.5016 278.9 17.6016C279 17.7016 279 17.8016 279 17.9016C279 18.0016 279 18.1016 278.9 18.2016C278.8 18.3016 278.7 18.3016 278.6 18.3016C278.5 18.3016 278.4 18.3016 278.3 18.2016C278.2 18.1016 278.2 18.0016 278.2 17.9016ZM278.2 15.0016C278.2 14.9016 278.2 14.8016 278.3 14.7016C278.4 14.6016 278.5 14.6016 278.6 14.6016C278.7 14.6016 278.8 14.6016 278.9 14.7016C279 14.8016 279 14.9016 279 15.0016C279 15.1016 279 15.2016 278.9 15.3016C278.8 15.4016 278.7 15.4016 278.6 15.4016C278.5 15.4016 278.4 15.4016 278.3 15.3016C278.2 15.2016 278.2 15.1016 278.2 15.0016Z" fill="#3F3F3F"/>
<path d="M281.7 18.2H281.1V14.2L279.9 14.6V14.1L281.6 13.5H281.7V18.2Z" fill="#3F3F3F"/>
<path d="M286.6 18.2H283.5V17.8L285.1 16C285.3 15.7 285.5 15.5 285.6 15.3C285.7 15.1 285.7 14.9 285.7 14.8C285.7 14.6 285.6 14.3 285.5 14.2C285.4 14 285.2 14 284.9 14C284.6 14 284.4 14.1 284.2 14.3C284 14.5 284 14.7 284 15H283.4C283.4 14.6 283.5 14.2 283.8 13.9C284.1 13.6 284.5 13.5 284.9 13.5C285.3 13.5 285.7 13.6 285.9 13.8C286.2 14 286.3 14.3 286.3 14.7C286.3 15.2 286 15.7 285.4 16.4L284.1 17.8H286.5V18.2H286.6Z" fill="#3F3F3F"/>
<path d="M138.7 36.1023H136.7V35.4023H141.6V36.1023H139.6V42.0023H138.7V36.1023Z" fill="black"/>
<path d="M142.3 35.4008C142.7 35.3008 143.4 35.3008 143.9 35.3008C144.8 35.3008 145.4 35.5008 145.8 35.8008C146.1 36.1008 146.3 36.5008 146.3 37.1008C146.3 38.0008 145.7 38.6008 145 38.8008C145.5 39.0008 145.8 39.4008 146 40.1008C146.2 41.0008 146.4 41.7008 146.5 41.9008H145.6C145.5 41.7008 145.3 41.1008 145.2 40.3008C145 39.4008 144.6 39.0008 143.9 39.0008H143.1V42.0008H142.2V35.4008H142.3ZM143.2 38.4008H144.1C145 38.4008 145.6 37.9008 145.6 37.1008C145.6 36.2008 145 35.9008 144.1 35.9008C143.7 35.9008 143.4 35.9008 143.3 36.0008V38.4008H143.2Z" fill="black"/>
<path d="M148.5 35.3008V42.0008H147.6V35.4008H148.5V35.3008Z" fill="black"/>
<path d="M150 35.3008H150.9V41.2008H153.7V42.0008H150V35.3008Z" fill="black"/>
<path d="M158.9 41.7016C158.6 41.9016 158 42.0016 157.1 42.0016C155.2 42.0016 153.8 40.8016 153.8 38.6016C153.8 36.5016 155.2 35.1016 157.3 35.1016C158.1 35.1016 158.6 35.3016 158.9 35.4016L158.7 36.1016C158.4 35.9016 157.9 35.8016 157.4 35.8016C155.8 35.8016 154.8 36.8016 154.8 38.5016C154.8 40.1016 155.7 41.2016 157.3 41.2016C157.8 41.2016 158.4 41.1016 158.7 40.9016L158.9 41.7016Z" fill="black"/>
<path d="M163.4 38.9023H160.8V41.3023H163.7V42.0023H160V35.4023H163.6V36.0023H160.9V38.1023H163.5V38.9023H163.4Z" fill="black"/>
<path d="M166.7 40.9031C167.1 41.1031 167.6 41.3031 168.2 41.3031C169.1 41.3031 169.6 40.8031 169.6 40.2031C169.6 39.6031 169.2 39.2031 168.3 38.9031C167.2 38.5031 166.5 38.0031 166.5 37.0031C166.5 36.0031 167.4 35.2031 168.6 35.2031C169.3 35.2031 169.8 35.4031 170.1 35.5031L169.9 36.2031C169.7 36.1031 169.2 35.9031 168.6 35.9031C167.7 35.9031 167.3 36.4031 167.3 36.9031C167.3 37.5031 167.7 37.8031 168.6 38.2031C169.7 38.6031 170.3 39.2031 170.3 40.1031C170.3 41.1031 169.5 42.0031 168 42.0031C167.4 42.0031 166.7 41.8031 166.3 41.6031L166.7 40.9031Z" fill="black"/>
<path d="M172.8 39.9023L172.1 42.0023H171.2L173.5 35.4023H174.5L176.8 42.0023H175.9L175.2 39.9023H172.8ZM175 39.2023L174.4 37.3023C174.3 36.9023 174.2 36.5023 174.1 36.1023C174 36.5023 173.9 36.9023 173.8 37.3023L173.2 39.2023H175Z" fill="black"/>
<path d="M177.7 42.0023V35.4023H178.6L180.7 38.8023C181.2 39.6023 181.6 40.3023 181.9 41.0023C181.8 40.1023 181.8 39.3023 181.8 38.3023V35.5023H182.6V42.0023H181.7L179.6 38.6023C179.1 37.9023 178.7 37.1023 178.4 36.4023C178.4 37.2023 178.5 38.0023 178.5 39.1023V42.0023H177.7Z" fill="black"/>
<path d="M187.2 35.3008V42.0008H186.3V35.4008H187.2V35.3008Z" fill="black"/>
<path d="M188.5 40.9031C188.9 41.1031 189.4 41.3031 190 41.3031C190.9 41.3031 191.4 40.8031 191.4 40.2031C191.4 39.6031 191 39.2031 190.1 38.9031C189 38.5031 188.3 38.0031 188.3 37.0031C188.3 36.0031 189.2 35.2031 190.4 35.2031C191.1 35.2031 191.6 35.4031 191.9 35.5031L191.7 36.2031C191.5 36.1031 191 35.9031 190.4 35.9031C189.5 35.9031 189.1 36.4031 189.1 36.9031C189.1 37.5031 189.5 37.8031 190.4 38.2031C191.5 38.6031 192.1 39.2031 192.1 40.1031C192.1 41.1031 191.3 42.0031 189.8 42.0031C189.2 42.0031 188.5 41.8031 188.1 41.6031L188.5 40.9031Z" fill="black"/>
<path d="M194.4 35.3008V42.0008H193.5V35.4008H194.4V35.3008Z" fill="black"/>
<path d="M195.9 35.4008C196.4 35.3008 197 35.3008 197.7 35.3008C198.9 35.3008 199.8 35.6008 200.4 36.1008C201 36.6008 201.3 37.4008 201.3 38.5008C201.3 39.6008 201 40.5008 200.3 41.1008C199.7 41.7008 198.7 42.1008 197.4 42.1008C196.8 42.1008 196.3 42.1008 195.8 42.0008V35.4008H195.9ZM196.7 41.3008C196.9 41.3008 197.2 41.3008 197.6 41.3008C199.4 41.3008 200.4 40.3008 200.4 38.5008C200.4 36.9008 199.5 35.9008 197.7 35.9008C197.3 35.9008 196.9 35.9008 196.7 36.0008V41.3008Z" fill="black"/>
<path d="M202.4 35.4008C202.8 35.3008 203.5 35.3008 204 35.3008C204.9 35.3008 205.5 35.5008 205.9 35.8008C206.2 36.1008 206.4 36.5008 206.4 37.1008C206.4 38.0008 205.8 38.6008 205.1 38.8008C205.6 39.0008 205.9 39.4008 206.1 40.1008C206.3 41.0008 206.5 41.7008 206.6 41.9008H205.7C205.6 41.7008 205.4 41.1008 205.3 40.3008C205.1 39.4008 204.7 39.0008 204 39.0008H203.2V42.0008H202.3V35.4008H202.4ZM203.3 38.4008H204.2C205.1 38.4008 205.7 37.9008 205.7 37.1008C205.7 36.2008 205.1 35.9008 204.2 35.9008C203.8 35.9008 203.5 35.9008 203.4 36.0008V38.4008H203.3Z" fill="black"/>
<path d="M213.4 38.6031C213.4 40.9031 212 42.1031 210.3 42.1031C208.5 42.1031 207.3 40.7031 207.3 38.7031C207.3 36.6031 208.6 35.2031 210.4 35.2031C212.2 35.2031 213.4 36.6031 213.4 38.6031ZM208.3 38.7031C208.3 40.1031 209.1 41.4031 210.4 41.4031C211.8 41.4031 212.5 40.1031 212.5 38.6031C212.5 37.3031 211.8 35.9031 210.4 35.9031C209 35.9031 208.3 37.2031 208.3 38.7031Z" fill="black"/>
<path d="M112 42.3008C112.1 42.4008 112.4 42.4008 112.5 42.3008C112.6 42.2008 112.6 41.9008 112.5 41.8008L110 39.3008H118.4C118.6 39.3008 118.8 39.1008 118.8 38.9008C118.8 38.7008 118.6 38.5008 118.4 38.5008H110L112.5 36.0008C112.6 35.9008 112.6 35.6008 112.5 35.5008C112.4 35.4008 112.1 35.4008 112 35.5008L108.8 38.7008C108.7 38.8008 108.7 39.1008 108.8 39.2008L112 42.3008Z" fill="black"/>
<path d="M294.6 54H97.5V55.7H294.6V54Z" fill="#EFEFEF"/>
<path d="M294.5 165.801H97.3999V166.701H294.5V165.801Z" fill="#EFEFEF"/>
<path d="M294.5 226.102H97.3999V227.002H294.5V226.102Z" fill="#EFEFEF"/>
<path d="M147 68.5977C147 68.8977 146.8 69.0977 146.5 69.0977C146.2 69.0977 146 68.8977 146 68.5977C146 68.2977 146.2 68.0977 146.5 68.0977C146.8 68.0977 147 68.2977 147 68.5977ZM146.1 73.5977L146.2 69.6977H146.8L146.9 73.5977H146.1Z" fill="#140603"/>
<path d="M148.7 66.5V68.8H151.4V66.5H152.1V72H151.4V69.4H148.7V72H148V66.5H148.7Z" fill="#140603"/>
<path d="M153.7 70.2C153.7 71.2 154.3 71.6 155.1 71.6C155.6 71.6 155.9 71.5 156.2 71.4L156.3 71.9C156 72 155.6 72.1 155 72.1C153.8 72.1 153.1 71.3 153.1 70.1C153.1 68.9 153.8 68 154.9 68C156.2 68 156.5 69.1 156.5 69.9C156.5 70 156.5 70.2 156.5 70.2H153.7ZM155.8 69.7C155.8 69.2 155.6 68.5 154.8 68.5C154.1 68.5 153.8 69.2 153.7 69.7H155.8Z" fill="#140603"/>
<path d="M157.4 69.0984C157.4 68.6984 157.4 68.3984 157.4 67.9984H158V68.5984C158.2 68.1984 158.6 67.8984 159.2 67.8984C159.7 67.8984 160.1 68.1984 160.3 68.6984C160.4 68.4984 160.6 68.2984 160.7 68.1984C160.9 67.9984 161.2 67.8984 161.6 67.8984C162.1 67.8984 162.9 68.1984 162.9 69.5984V71.9984H162.2V69.7984C162.2 68.9984 161.9 68.5984 161.3 68.5984C160.9 68.5984 160.6 68.8984 160.5 69.2984C160.5 69.3984 160.4 69.4984 160.4 69.6984V71.9984H159.7V69.5984C159.7 68.9984 159.4 68.4984 158.9 68.4984C158.5 68.4984 158.1 68.8984 158 69.1984C158 69.2984 157.9 69.3984 157.9 69.4984V71.9984H157.2V69.0984H157.4Z" fill="#140603"/>
<path d="M167.7 70C167.7 71.5 166.7 72.1 165.7 72.1C164.6 72.1 163.8 71.3 163.8 70.1C163.8 68.8 164.7 68 165.8 68C167 68 167.7 68.8 167.7 70ZM164.6 70.1C164.6 71 165.1 71.6 165.8 71.6C166.5 71.6 167 71 167 70.1C167 69.4 166.7 68.6 165.8 68.6C165 68.5 164.6 69.3 164.6 70.1Z" fill="#140603"/>
<path d="M168.6 71.3C168.8 71.4 169.2 71.6 169.5 71.6C170 71.6 170.3 71.3 170.3 71C170.3 70.7 170.1 70.5 169.6 70.3C168.9 70 168.6 69.7 168.6 69.2C168.6 68.6 169.1 68 170 68C170.4 68 170.7 68.1 171 68.2L170.8 68.7C170.6 68.6 170.4 68.5 170 68.5C169.6 68.5 169.3 68.7 169.3 69C169.3 69.3 169.5 69.5 170 69.7C170.7 70 171 70.3 171 70.9C171 71.6 170.5 72.1 169.5 72.1C169.1 72.1 168.7 72 168.4 71.8L168.6 71.3Z" fill="#140603"/>
<path d="M174 70.2C174 71.2 174.6 71.6 175.4 71.6C175.9 71.6 176.2 71.5 176.5 71.4L176.6 71.9C176.3 72 175.9 72.1 175.3 72.1C174.1 72.1 173.4 71.3 173.4 70.1C173.4 68.9 174.1 68 175.2 68C176.5 68 176.8 69.1 176.8 69.9C176.8 70 176.8 70.2 176.8 70.2H174ZM176.1 69.7C176.1 69.2 175.9 68.5 175.1 68.5C174.4 68.5 174.1 69.2 174 69.7H176.1Z" fill="#140603"/>
<path d="M177.7 69.1C177.7 68.7 177.7 68.4 177.7 68H178.3V68.7C178.5 68.3 179 68 179.6 68C180.1 68 181 68.3 181 69.7V72H180.3V69.7C180.3 69.1 180.1 68.5 179.4 68.5C178.9 68.5 178.6 68.8 178.4 69.2C178.4 69.3 178.4 69.4 178.4 69.5V72H177.7V69.1Z" fill="#140603"/>
<path d="M185 71.9C184.8 72 184.4 72.1 183.9 72.1C182.7 72.1 181.9 71.3 181.9 70.1C181.9 68.9 182.7 68 184 68C184.4 68 184.8 68.1 185 68.2L184.8 68.8C184.6 68.7 184.4 68.6 184 68.6C183.1 68.6 182.6 69.3 182.6 70.1C182.6 71 183.2 71.6 184 71.6C184.4 71.6 184.7 71.5 184.9 71.4L185 71.9Z" fill="#140603"/>
<path d="M189.3 70C189.3 71.5 188.3 72.1 187.3 72.1C186.2 72.1 185.4 71.3 185.4 70.1C185.4 68.8 186.3 68 187.4 68C188.6 68 189.3 68.8 189.3 70ZM186.2 70.1C186.2 71 186.7 71.6 187.4 71.6C188.1 71.6 188.6 71 188.6 70.1C188.6 69.4 188.3 68.6 187.4 68.6C186.6 68.5 186.2 69.3 186.2 70.1Z" fill="#140603"/>
<path d="M190.3 69.1C190.3 68.7 190.3 68.4 190.3 68H190.9V68.7C191.1 68.3 191.6 68 192.2 68C192.7 68 193.6 68.3 193.6 69.7V72H192.9V69.7C192.9 69.1 192.7 68.5 192 68.5C191.5 68.5 191.2 68.8 191 69.2C191 69.3 191 69.4 191 69.5V72H190.3V69.1Z" fill="#140603"/>
<path d="M195.6 67V68.1H196.6V68.6H195.6V70.7C195.6 71.2 195.7 71.5 196.1 71.5C196.3 71.5 196.4 71.5 196.5 71.5V72C196.4 72.1 196.1 72.1 195.9 72.1C195.6 72.1 195.3 72 195.1 71.8C194.9 71.6 194.8 71.2 194.8 70.8V68.7H194.2V68.2H194.8V67.3L195.6 67Z" fill="#140603"/>
<path d="M197.4 69.3C197.4 68.8 197.4 68.4 197.4 68.1H198V68.9C198.2 68.4 198.6 68 199.1 68C199.2 68 199.2 68 199.3 68V68.7C199.2 68.7 199.2 68.7 199.1 68.7C198.6 68.7 198.2 69.1 198.1 69.6C198.1 69.7 198.1 69.8 198.1 69.9V72H197.4V69.3Z" fill="#140603"/>
<path d="M202.2 72L202.1 71.5C201.9 71.8 201.5 72.1 200.9 72.1C200.1 72.1 199.7 71.5 199.7 71C199.7 70 200.5 69.5 202.1 69.5V69.4C202.1 69.1 202 68.5 201.2 68.5C200.8 68.5 200.5 68.6 200.2 68.8L200 68.3C200.3 68.1 200.8 68 201.3 68C202.5 68 202.8 68.8 202.8 69.6V71.1C202.8 71.4 202.8 71.8 202.9 72H202.2ZM202.1 70C201.3 70 200.4 70.1 200.4 70.9C200.4 71.4 200.7 71.6 201.1 71.6C201.6 71.6 201.9 71.3 202.1 70.9C202.1 70.8 202.1 70.7 202.1 70.7V70Z" fill="#140603"/>
<path d="M207.4 66.1992V70.9992C207.4 71.2992 207.4 71.6992 207.4 71.9992H206.8V71.2992C206.6 71.6992 206.1 72.0992 205.5 72.0992C204.5 72.0992 203.8 71.2992 203.8 70.0992C203.8 68.7992 204.6 67.9992 205.6 67.9992C206.2 67.9992 206.6 68.2992 206.8 68.5992V66.1992H207.4ZM206.7 69.6992C206.7 69.5992 206.7 69.4992 206.7 69.3992C206.6 68.8992 206.2 68.5992 205.7 68.5992C205 68.5992 204.5 69.2992 204.5 70.0992C204.5 70.8992 204.9 71.5992 205.7 71.5992C206.2 71.5992 206.6 71.2992 206.7 70.6992C206.7 70.5992 206.7 70.4992 206.7 70.3992V69.6992Z" fill="#140603"/>
<path d="M212.1 70C212.1 71.5 211.1 72.1 210.1 72.1C209 72.1 208.2 71.3 208.2 70.1C208.2 68.8 209.1 68 210.2 68C211.4 68 212.1 68.8 212.1 70ZM209 70.1C209 71 209.5 71.6 210.2 71.6C210.9 71.6 211.4 71 211.4 70.1C211.4 69.4 211.1 68.6 210.2 68.6C209.4 68.5 209 69.3 209 70.1Z" fill="#140603"/>
<path d="M214.5 71.9992V71.5992L215.1 71.0992C216.5 69.7992 217.1 69.0992 217.1 68.2992C217.1 67.7992 216.8 67.2992 216.1 67.2992C215.6 67.2992 215.2 67.4992 215 67.6992L214.8 67.1992C215.2 66.8992 215.7 66.6992 216.3 66.6992C217.4 66.6992 217.9 67.4992 217.9 68.1992C217.9 69.1992 217.2 69.9992 216.1 70.9992L215.7 71.3992H218.1V71.9992H214.5Z" fill="#140603"/>
<path d="M220.7 69.3C220.7 68.8 220.7 68.4 220.7 68.1H221.3V68.9C221.5 68.4 221.9 68 222.4 68C222.5 68 222.5 68 222.6 68V68.7C222.5 68.7 222.5 68.7 222.4 68.7C221.9 68.7 221.5 69.1 221.4 69.6C221.4 69.7 221.4 69.8 221.4 69.9V72H220.7V69.3Z" fill="#140603"/>
<path d="M223.6 70.2C223.6 71.2 224.2 71.6 225 71.6C225.5 71.6 225.8 71.5 226.1 71.4L226.2 71.9C225.9 72 225.5 72.1 224.9 72.1C223.7 72.1 223 71.3 223 70.1C223 68.9 223.7 68 224.8 68C226.1 68 226.4 69.1 226.4 69.9C226.4 70 226.4 70.2 226.4 70.2H223.6ZM225.7 69.7C225.7 69.2 225.5 68.5 224.7 68.5C224 68.5 223.7 69.2 223.6 69.7H225.7Z" fill="#140603"/>
<path d="M230.1 71.9C229.9 72 229.5 72.1 229 72.1C227.8 72.1 227 71.3 227 70.1C227 68.9 227.8 68 229.1 68C229.5 68 229.9 68.1 230.1 68.2L229.9 68.8C229.7 68.7 229.5 68.6 229.1 68.6C228.2 68.6 227.7 69.3 227.7 70.1C227.7 71 228.3 71.6 229.1 71.6C229.5 71.6 229.8 71.5 230 71.4L230.1 71.9Z" fill="#140603"/>
<path d="M231.7 67.0002C231.7 67.2002 231.5 67.4002 231.2 67.4002C230.9 67.4002 230.8 67.2002 230.8 67.0002C230.8 66.7002 231 66.6002 231.2 66.6002C231.6 66.5002 231.7 66.7002 231.7 67.0002ZM231 72.0002V68.1002H231.7V72.0002H231Z" fill="#140603"/>
<path d="M232.8 71.9992C232.8 71.6992 232.8 71.2992 232.8 70.9992V66.1992H233.5V68.6992C233.8 68.2992 234.2 67.9992 234.8 67.9992C235.8 67.9992 236.5 68.7992 236.5 69.9992C236.5 71.3992 235.6 72.0992 234.7 72.0992C234.1 72.0992 233.7 71.8992 233.4 71.3992V72.0992H232.8V71.9992ZM233.6 70.3992C233.6 70.4992 233.6 70.5992 233.6 70.6992C233.7 71.1992 234.2 71.4992 234.7 71.4992C235.4 71.4992 235.9 70.8992 235.9 69.9992C235.9 69.1992 235.5 68.4992 234.7 68.4992C234.2 68.4992 233.8 68.7992 233.6 69.3992C233.6 69.4992 233.6 69.5992 233.6 69.6992V70.3992Z" fill="#140603"/>
<path d="M241 70C241 71.5 240 72.1 239 72.1C237.9 72.1 237.1 71.3 237.1 70.1C237.1 68.8 238 68 239.1 68C240.3 68 241 68.8 241 70ZM237.9 70.1C237.9 71 238.4 71.6 239.1 71.6C239.8 71.6 240.3 71 240.3 70.1C240.3 69.4 240 68.6 239.1 68.6C238.3 68.5 237.9 69.3 237.9 70.1Z" fill="#140603"/>
<path d="M241.9 71.3C242.1 71.4 242.5 71.6 242.8 71.6C243.3 71.6 243.6 71.3 243.6 71C243.6 70.7 243.4 70.5 242.9 70.3C242.2 70 241.9 69.7 241.9 69.2C241.9 68.6 242.4 68 243.3 68C243.7 68 244 68.1 244.3 68.2L244.1 68.7C243.9 68.6 243.7 68.5 243.3 68.5C242.9 68.5 242.6 68.7 242.6 69C242.6 69.3 242.8 69.5 243.3 69.7C244 70 244.3 70.3 244.3 70.9C244.3 71.6 243.8 72.1 242.8 72.1C242.4 72.1 242 72 241.7 71.8L241.9 71.3Z" fill="#140603"/>
<path d="M245 71.6C245 71.3 245.2 71.1 245.5 71.1C245.8 71.1 246 71.3 246 71.6C246 71.9 245.8 72.1 245.5 72.1C245.2 72.1 245 71.9 245 71.6ZM245.2 70.4L245.1 66.5H245.9L245.8 70.4H245.2Z" fill="#140603"/>
<path d="M122.4 76.7992C122.7 76.6992 123.2 76.6992 123.7 76.6992C124.4 76.6992 124.9 76.8992 125.2 77.0992C125.5 77.2992 125.7 77.6992 125.7 78.1992C125.7 78.6992 125.6 78.9992 125.3 79.2992C124.9 79.6992 124.4 79.8992 123.7 79.8992C123.5 79.8992 123.3 79.8992 123.2 79.8992V81.9992H122.5V76.7992H122.4ZM123.1 79.2992C123.2 79.2992 123.4 79.3992 123.7 79.3992C124.5 79.3992 125 78.9992 125 78.2992C125 77.5992 124.5 77.2992 123.8 77.2992C123.5 77.2992 123.3 77.2992 123.2 77.3992V79.2992H123.1Z" fill="#6B6B6B"/>
<path d="M129.5 80.8992C129.5 81.2992 129.5 81.5992 129.5 81.8992H128.9V81.2992C128.7 81.5992 128.3 81.9992 127.7 81.9992C127.1 81.9992 126.4 81.6992 126.4 80.3992V78.1992H127.1V80.2992C127.1 80.9992 127.3 81.4992 127.9 81.4992C128.4 81.4992 128.7 81.1992 128.8 80.8992C128.8 80.7992 128.9 80.6992 128.9 80.5992V78.2992H129.6V80.8992H129.5Z" fill="#6B6B6B"/>
<path d="M131 80.2016C131 81.1016 131.6 81.5016 132.3 81.5016C132.8 81.5016 133.1 81.4016 133.3 81.3016L133.4 81.8016C133.2 81.9016 132.7 82.0016 132.2 82.0016C131 82.0016 130.4 81.2016 130.4 80.1016C130.4 79.0016 131.1 78.1016 132.2 78.1016C133.4 78.1016 133.7 79.2016 133.7 79.9016C133.7 80.0016 133.7 80.1016 133.7 80.2016H131ZM133 79.7016C133 79.3016 132.8 78.6016 132.1 78.6016C131.4 78.6016 131.1 79.2016 131.1 79.7016H133Z" fill="#6B6B6B"/>
<path d="M137.8 76.5V81C137.8 81.3 137.8 81.7 137.8 82H137.2V81.4C137 81.8 136.5 82.1 135.9 82.1C135 82.1 134.3 81.3 134.3 80.2C134.3 79 135.1 78.2 136 78.2C136.6 78.2 137 78.5 137.1 78.8V76.6H137.8V76.5ZM137.1 79.7C137.1 79.6 137.1 79.5 137.1 79.4C137 79 136.6 78.6 136.1 78.6C135.4 78.6 135 79.2 135 80C135 80.8 135.4 81.4 136.1 81.4C136.6 81.4 137 81.1 137.1 80.6C137.1 80.5 137.1 80.4 137.1 80.3V79.7Z" fill="#6B6B6B"/>
<path d="M139.3 80.2016C139.3 81.1016 139.9 81.5016 140.6 81.5016C141.1 81.5016 141.4 81.4016 141.6 81.3016L141.7 81.8016C141.5 81.9016 141 82.0016 140.5 82.0016C139.3 82.0016 138.7 81.2016 138.7 80.1016C138.7 79.0016 139.4 78.1016 140.5 78.1016C141.7 78.1016 142 79.2016 142 79.9016C142 80.0016 142 80.1016 142 80.2016H139.3ZM141.3 79.7016C141.3 79.3016 141.1 78.6016 140.4 78.6016C139.7 78.6016 139.4 79.2016 139.4 79.7016H141.3Z" fill="#6B6B6B"/>
<path d="M142.7 81.2C142.9 81.3 143.3 81.5 143.6 81.5C144.1 81.5 144.3 81.3 144.3 80.9C144.3 80.6 144.1 80.4 143.6 80.2C142.9 80 142.6 79.6 142.6 79.1C142.6 78.5 143.1 78 143.9 78C144.3 78 144.6 78.1 144.8 78.2L144.6 78.7C144.5 78.6 144.2 78.5 143.8 78.5C143.4 78.5 143.2 78.7 143.2 79C143.2 79.3 143.4 79.4 143.9 79.6C144.6 79.8 144.9 80.2 144.9 80.7C144.9 81.4 144.4 81.8 143.5 81.8C143.1 81.8 142.7 81.7 142.4 81.5L142.7 81.2Z" fill="#6B6B6B"/>
<path d="M147.5 76.5H148.2V78.8C148.3 78.6 148.5 78.4 148.7 78.3C148.9 78.2 149.1 78.1 149.4 78.1C149.9 78.1 150.7 78.4 150.7 79.7V81.9H150V79.8C150 79.2 149.8 78.7 149.1 78.7C148.7 78.7 148.3 79 148.2 79.4C148.2 79.5 148.2 79.6 148.2 79.7V81.9H147.5V76.5Z" fill="#6B6B6B"/>
<path d="M153.8 81.9016L153.7 81.4016C153.5 81.7016 153.1 82.0016 152.6 82.0016C151.8 82.0016 151.5 81.5016 151.5 80.9016C151.5 80.0016 152.3 79.5016 153.8 79.5016V79.4016C153.8 79.1016 153.7 78.5016 152.9 78.5016C152.6 78.5016 152.2 78.6016 151.9 78.8016L151.7 78.4016C152 78.2016 152.5 78.1016 152.9 78.1016C154 78.1016 154.3 78.9016 154.3 79.6016V81.0016C154.3 81.3016 154.3 81.6016 154.4 81.9016H153.8ZM153.7 80.0016C153 80.0016 152.1 80.1016 152.1 80.8016C152.1 81.2016 152.4 81.4016 152.7 81.4016C153.2 81.4016 153.5 81.1016 153.6 80.8016C153.6 80.7016 153.6 80.7016 153.6 80.6016V80.0016H153.7Z" fill="#6B6B6B"/>
<path d="M158.2 81.8016C158 81.9016 157.6 82.0016 157.1 82.0016C156 82.0016 155.2 81.2016 155.2 80.1016C155.2 79.0016 156 78.1016 157.2 78.1016C157.6 78.1016 158 78.2016 158.1 78.3016L157.9 78.8016C157.7 78.7016 157.5 78.6016 157.1 78.6016C156.2 78.6016 155.8 79.2016 155.8 80.0016C155.8 80.9016 156.4 81.4016 157.1 81.4016C157.5 81.4016 157.7 81.3016 157.9 81.2016L158.2 81.8016Z" fill="#6B6B6B"/>
<path d="M159.3 80.2016C159.3 81.1016 159.9 81.5016 160.6 81.5016C161.1 81.5016 161.4 81.4016 161.6 81.3016L161.7 81.8016C161.5 81.9016 161 82.0016 160.5 82.0016C159.3 82.0016 158.7 81.2016 158.7 80.1016C158.7 79.0016 159.4 78.1016 160.5 78.1016C161.7 78.1016 162 79.2016 162 79.9016C162 80.0016 162 80.1016 162 80.2016H159.3ZM161.3 79.7016C161.3 79.3016 161.1 78.6016 160.4 78.6016C159.7 78.6016 159.4 79.2016 159.4 79.7016H161.3Z" fill="#6B6B6B"/>
<path d="M162.8 79.4016C162.8 79.0016 162.8 78.6016 162.8 78.2016H163.4V78.9016C163.6 78.4016 164 78.1016 164.4 78.1016C164.5 78.1016 164.5 78.1016 164.6 78.1016V78.7016C164.5 78.7016 164.5 78.7016 164.4 78.7016C163.9 78.7016 163.6 79.1016 163.5 79.6016C163.5 79.7016 163.5 79.8016 163.5 79.9016V81.9016H162.8V79.4016Z" fill="#6B6B6B"/>
<path d="M167.4 80.2016C167.4 81.1016 168 81.5016 168.7 81.5016C169.2 81.5016 169.5 81.4016 169.7 81.3016L169.8 81.8016C169.6 81.9016 169.1 82.0016 168.6 82.0016C167.4 82.0016 166.8 81.2016 166.8 80.1016C166.8 79.0016 167.5 78.1016 168.6 78.1016C169.8 78.1016 170.1 79.2016 170.1 79.9016C170.1 80.0016 170.1 80.1016 170.1 80.2016H167.4ZM169.4 79.7016C169.4 79.3016 169.2 78.6016 168.5 78.6016C167.8 78.6016 167.5 79.2016 167.5 79.7016H169.4Z" fill="#6B6B6B"/>
<path d="M170.9 76.5H171.6V81.9H170.9V76.5Z" fill="#6B6B6B"/>
<path d="M174.3 79.4016C174.3 78.9016 174.3 78.5016 174.3 78.2016H174.9V78.8016C175.2 78.3016 175.6 78.1016 176.2 78.1016C177.1 78.1016 177.8 78.9016 177.8 80.0016C177.8 81.3016 177 82.0016 176.1 82.0016C175.6 82.0016 175.2 81.8016 174.9 81.4016V83.4016H174.2V79.4016H174.3ZM175 80.4016C175 80.5016 175 80.6016 175 80.7016C175.1 81.2016 175.5 81.5016 176 81.5016C176.7 81.5016 177.1 80.9016 177.1 80.1016C177.1 79.4016 176.7 78.7016 176 78.7016C175.5 78.7016 175.1 79.0016 175 79.5016C175 79.6016 175 79.7016 175 79.8016V80.4016Z" fill="#6B6B6B"/>
<path d="M180.8 81.9016L180.7 81.4016C180.5 81.7016 180.1 82.0016 179.6 82.0016C178.8 82.0016 178.5 81.5016 178.5 80.9016C178.5 80.0016 179.3 79.5016 180.8 79.5016V79.4016C180.8 79.1016 180.7 78.5016 179.9 78.5016C179.6 78.5016 179.2 78.6016 178.9 78.8016L178.7 78.4016C179 78.2016 179.5 78.1016 179.9 78.1016C181 78.1016 181.3 78.9016 181.3 79.6016V81.0016C181.3 81.3016 181.3 81.6016 181.4 81.9016H180.8ZM180.7 80.0016C180 80.0016 179.1 80.1016 179.1 80.8016C179.1 81.2016 179.4 81.4016 179.7 81.4016C180.2 81.4016 180.5 81.1016 180.6 80.8016C180.6 80.7016 180.6 80.7016 180.6 80.6016V80.0016H180.7Z" fill="#6B6B6B"/>
<path d="M185.7 78.2016C185.7 78.5016 185.7 78.8016 185.7 79.2016V81.4016C185.7 82.3016 185.5 82.8016 185.2 83.1016C184.8 83.4016 184.3 83.5016 183.8 83.5016C183.4 83.5016 182.9 83.4016 182.6 83.2016L182.8 82.7016C183 82.9016 183.4 83.0016 183.9 83.0016C184.6 83.0016 185.1 82.6016 185.1 81.7016V81.3016C184.9 81.6016 184.5 81.9016 183.9 81.9016C183 81.9016 182.3 81.1016 182.3 80.1016C182.3 78.8016 183.1 78.1016 184 78.1016C184.6 78.1016 185 78.4016 185.2 78.7016V78.1016H185.7V78.2016ZM185 79.7016C185 79.6016 185 79.5016 185 79.4016C184.9 79.0016 184.5 78.7016 184 78.7016C183.3 78.7016 182.9 79.2016 182.9 80.1016C182.9 80.8016 183.3 81.4016 184 81.4016C184.4 81.4016 184.8 81.1016 184.9 80.7016C184.9 80.6016 185 80.5016 185 80.3016V79.7016Z" fill="#6B6B6B"/>
<path d="M190.2 80.0016C190.2 81.4016 189.2 82.0016 188.3 82.0016C187.3 82.0016 186.5 81.3016 186.5 80.1016C186.5 78.9016 187.3 78.1016 188.4 78.1016C189.4 78.1016 190.2 78.9016 190.2 80.0016ZM187.2 80.1016C187.2 80.9016 187.7 81.5016 188.3 81.5016C188.9 81.5016 189.4 80.9016 189.4 80.1016C189.4 79.5016 189.1 78.7016 188.3 78.7016C187.6 78.6016 187.2 79.4016 187.2 80.1016Z" fill="#6B6B6B"/>
<path d="M193.5 77.1016V78.2016H194.5V78.7016H193.5V80.7016C193.5 81.2016 193.6 81.4016 194 81.4016C194.2 81.4016 194.3 81.4016 194.4 81.4016V81.9016C194.3 82.0016 194.1 82.0016 193.8 82.0016C193.5 82.0016 193.2 81.9016 193.1 81.7016C192.9 81.5016 192.8 81.2016 192.8 80.7016V78.7016H192.2V78.2016H192.8V77.3016L193.5 77.1016Z" fill="#6B6B6B"/>
<path d="M198.6 80.0016C198.6 81.4016 197.6 82.0016 196.7 82.0016C195.7 82.0016 194.9 81.3016 194.9 80.1016C194.9 78.9016 195.7 78.1016 196.8 78.1016C197.9 78.1016 198.6 78.9016 198.6 80.0016ZM195.6 80.1016C195.6 80.9016 196.1 81.5016 196.7 81.5016C197.3 81.5016 197.8 80.9016 197.8 80.1016C197.8 79.5016 197.5 78.7016 196.7 78.7016C196 78.6016 195.6 79.4016 195.6 80.1016Z" fill="#6B6B6B"/>
<path d="M200.3 77.1016V78.2016H201.3V78.7016H200.3V80.7016C200.3 81.2016 200.4 81.4016 200.8 81.4016C201 81.4016 201.1 81.4016 201.2 81.4016V81.9016C201.1 82.0016 200.9 82.0016 200.6 82.0016C200.3 82.0016 200 81.9016 199.9 81.7016C199.7 81.5016 199.6 81.2016 199.6 80.7016V78.7016H199V78.2016H199.6V77.3016L200.3 77.1016Z" fill="#6B6B6B"/>
<path d="M204.1 81.9016L204 81.4016C203.8 81.7016 203.4 82.0016 202.9 82.0016C202.1 82.0016 201.8 81.5016 201.8 80.9016C201.8 80.0016 202.6 79.5016 204.1 79.5016V79.4016C204.1 79.1016 204 78.5016 203.2 78.5016C202.9 78.5016 202.5 78.6016 202.2 78.8016L202 78.4016C202.3 78.2016 202.8 78.1016 203.2 78.1016C204.3 78.1016 204.6 78.9016 204.6 79.6016V81.0016C204.6 81.3016 204.6 81.6016 204.7 81.9016H204.1ZM204 80.0016C203.3 80.0016 202.4 80.1016 202.4 80.8016C202.4 81.2016 202.7 81.4016 203 81.4016C203.5 81.4016 203.8 81.1016 203.9 80.8016C203.9 80.7016 203.9 80.7016 203.9 80.6016V80.0016H204Z" fill="#6B6B6B"/>
<path d="M205.7 76.5H206.4V81.9H205.7V76.5Z" fill="#6B6B6B"/>
<path d="M212.6 80.0016C212.6 81.4016 211.6 82.0016 210.7 82.0016C209.7 82.0016 208.9 81.3016 208.9 80.1016C208.9 78.9016 209.7 78.1016 210.8 78.1016C211.9 78.1016 212.6 78.9016 212.6 80.0016ZM209.6 80.1016C209.6 80.9016 210.1 81.5016 210.7 81.5016C211.3 81.5016 211.8 80.9016 211.8 80.1016C211.8 79.5016 211.5 78.7016 210.7 78.7016C210 78.6016 209.6 79.4016 209.6 80.1016Z" fill="#6B6B6B"/>
<path d="M215.1 79.4016C215.1 78.9016 215.1 78.5016 215.1 78.2016H215.7V78.8016C216 78.3016 216.4 78.1016 217 78.1016C217.9 78.1016 218.6 78.9016 218.6 80.0016C218.6 81.3016 217.8 82.0016 216.9 82.0016C216.4 82.0016 216 81.8016 215.7 81.4016V83.4016H215V79.4016H215.1ZM215.8 80.4016C215.8 80.5016 215.8 80.6016 215.8 80.7016C215.9 81.2016 216.3 81.5016 216.8 81.5016C217.5 81.5016 217.9 80.9016 217.9 80.1016C217.9 79.4016 217.5 78.7016 216.8 78.7016C216.3 78.7016 215.9 79.0016 215.8 79.5016C215.8 79.6016 215.8 79.7016 215.8 79.8016V80.4016Z" fill="#6B6B6B"/>
<path d="M221.6 81.9016L221.5 81.4016C221.3 81.7016 220.9 82.0016 220.4 82.0016C219.6 82.0016 219.3 81.5016 219.3 80.9016C219.3 80.0016 220.1 79.5016 221.6 79.5016V79.4016C221.6 79.1016 221.5 78.5016 220.7 78.5016C220.4 78.5016 220 78.6016 219.7 78.8016L219.5 78.4016C219.8 78.2016 220.3 78.1016 220.7 78.1016C221.8 78.1016 222.1 78.9016 222.1 79.6016V81.0016C222.1 81.3016 222.1 81.6016 222.2 81.9016H221.6ZM221.5 80.0016C220.8 80.0016 219.9 80.1016 219.9 80.8016C219.9 81.2016 220.2 81.4016 220.5 81.4016C221 81.4016 221.3 81.1016 221.4 80.8016C221.4 80.7016 221.4 80.7016 221.4 80.6016V80.0016H221.5Z" fill="#6B6B6B"/>
<path d="M223.2 79.4016C223.2 79.0016 223.2 78.6016 223.2 78.2016H223.8V78.9016C224 78.4016 224.4 78.1016 224.8 78.1016C224.9 78.1016 224.9 78.1016 225 78.1016V78.7016C224.9 78.7016 224.9 78.7016 224.8 78.7016C224.3 78.7016 224 79.1016 223.9 79.6016C223.9 79.7016 223.9 79.8016 223.9 79.9016V81.9016H223.2V79.4016Z" fill="#6B6B6B"/>
<path d="M228.4 81.8016C228.2 81.9016 227.8 82.0016 227.3 82.0016C226.2 82.0016 225.4 81.2016 225.4 80.1016C225.4 79.0016 226.2 78.1016 227.4 78.1016C227.8 78.1016 228.2 78.2016 228.3 78.3016L228.1 78.8016C227.9 78.7016 227.7 78.6016 227.3 78.6016C226.4 78.6016 226 79.2016 226 80.0016C226 80.9016 226.6 81.4016 227.3 81.4016C227.7 81.4016 227.9 81.3016 228.1 81.2016L228.4 81.8016Z" fill="#6B6B6B"/>
<path d="M229.9 77.1994C229.9 77.3994 229.7 77.5994 229.5 77.5994C229.3 77.5994 229.1 77.3994 229.1 77.1994C229.1 76.9994 229.3 76.7995 229.5 76.7995C229.8 76.6995 229.9 76.8994 229.9 77.1994ZM229.2 81.8994V78.1994H229.9V81.8994H229.2Z" fill="#6B6B6B"/>
<path d="M233 81.9016L232.9 81.4016C232.7 81.7016 232.3 82.0016 231.8 82.0016C231 82.0016 230.7 81.5016 230.7 80.9016C230.7 80.0016 231.5 79.5016 233 79.5016V79.4016C233 79.1016 232.9 78.5016 232.1 78.5016C231.8 78.5016 231.4 78.6016 231.1 78.8016L230.9 78.4016C231.2 78.2016 231.7 78.1016 232.1 78.1016C233.2 78.1016 233.5 78.9016 233.5 79.6016V81.0016C233.5 81.3016 233.5 81.6016 233.6 81.9016H233ZM232.9 80.0016C232.2 80.0016 231.3 80.1016 231.3 80.8016C231.3 81.2016 231.6 81.4016 231.9 81.4016C232.4 81.4016 232.7 81.1016 232.8 80.8016C232.8 80.7016 232.8 80.7016 232.8 80.6016V80.0016H232.9Z" fill="#6B6B6B"/>
<path d="M234.7 76.5H235.4V81.9H234.7V76.5Z" fill="#6B6B6B"/>
<path d="M241.4 76.5V81C241.4 81.3 241.4 81.7 241.4 82H240.8V81.4C240.6 81.8 240.1 82.1 239.5 82.1C238.6 82.1 237.9 81.3 237.9 80.2C237.9 79 238.7 78.2 239.6 78.2C240.2 78.2 240.6 78.5 240.7 78.8V76.6H241.4V76.5ZM240.7 79.7C240.7 79.6 240.7 79.5 240.7 79.4C240.6 79 240.2 78.6 239.7 78.6C239 78.6 238.6 79.2 238.6 80C238.6 80.8 239 81.4 239.7 81.4C240.2 81.4 240.6 81.1 240.7 80.6C240.7 80.5 240.7 80.4 240.7 80.3V79.7Z" fill="#6B6B6B"/>
<path d="M242.9 80.2016C242.9 81.1016 243.5 81.5016 244.2 81.5016C244.7 81.5016 245 81.4016 245.2 81.3016L245.3 81.8016C245.1 81.9016 244.6 82.0016 244.1 82.0016C242.9 82.0016 242.3 81.2016 242.3 80.1016C242.3 79.0016 243 78.1016 244.1 78.1016C245.3 78.1016 245.6 79.2016 245.6 79.9016C245.6 80.0016 245.6 80.1016 245.6 80.2016H242.9ZM244.9 79.7016C244.9 79.3016 244.7 78.6016 244 78.6016C243.3 78.6016 243 79.2016 243 79.7016H244.9Z" fill="#6B6B6B"/>
<path d="M251.2 80.8992C251.2 81.2992 251.2 81.5992 251.2 81.8992H250.6V81.2992C250.4 81.5992 250 81.9992 249.4 81.9992C248.8 81.9992 248.1 81.6992 248.1 80.3992V78.1992H248.8V80.2992C248.8 80.9992 249 81.4992 249.6 81.4992C250.1 81.4992 250.4 81.1992 250.5 80.8992C250.5 80.7992 250.6 80.6992 250.6 80.5992V78.2992H251.3V80.8992H251.2Z" fill="#6B6B6B"/>
<path d="M252.3 79.2016C252.3 78.8016 252.3 78.5016 252.3 78.2016H252.9V78.8016C253.1 78.4016 253.5 78.1016 254.1 78.1016C254.6 78.1016 255.4 78.4016 255.4 79.7016V81.9016H254.7V79.8016C254.7 79.2016 254.5 78.7016 253.8 78.7016C253.4 78.7016 253 79.0016 252.9 79.4016C252.9 79.5016 252.9 79.6016 252.9 79.7016V81.9016H252.2V79.2016H252.3Z" fill="#6B6B6B"/>
<path d="M260 80.0016C260 81.4016 259 82.0016 258.1 82.0016C257.1 82.0016 256.3 81.3016 256.3 80.1016C256.3 78.9016 257.1 78.1016 258.2 78.1016C259.3 78.1016 260 78.9016 260 80.0016ZM257 80.1016C257 80.9016 257.5 81.5016 258.1 81.5016C258.7 81.5016 259.2 80.9016 259.2 80.1016C259.2 79.5016 258.9 78.7016 258.1 78.7016C257.4 78.6016 257 79.4016 257 80.1016Z" fill="#6B6B6B"/>
<path d="M265.7 76.5V81C265.7 81.3 265.7 81.7 265.7 82H265.1V81.4C264.9 81.8 264.4 82.1 263.8 82.1C262.9 82.1 262.2 81.3 262.2 80.2C262.2 79 263 78.2 263.9 78.2C264.5 78.2 264.9 78.5 265 78.8V76.6H265.7V76.5ZM265.1 79.7C265.1 79.6 265.1 79.5 265.1 79.4C265 79 264.6 78.6 264.1 78.6C263.4 78.6 263 79.2 263 80C263 80.8 263.4 81.4 264.1 81.4C264.6 81.4 265 81.1 265.1 80.6C265.1 80.5 265.1 80.4 265.1 80.3V79.7Z" fill="#6B6B6B"/>
<path d="M267.2 80.2016C267.2 81.1016 267.8 81.5016 268.5 81.5016C269 81.5016 269.3 81.4016 269.5 81.3016L269.6 81.8016C269.4 81.9016 268.9 82.0016 268.4 82.0016C267.2 82.0016 266.6 81.2016 266.6 80.1016C266.6 79.0016 267.3 78.1016 268.4 78.1016C269.6 78.1016 269.9 79.2016 269.9 79.9016C269.9 80.0016 269.9 80.1016 269.9 80.2016H267.2ZM269.2 79.7016C269.2 79.3016 269 78.6016 268.3 78.6016C267.6 78.6016 267.3 79.2016 267.3 79.7016H269.2Z" fill="#6B6B6B"/>
<path d="M189.5 89.4008C189.5 90.3008 190.1 90.7008 190.8 90.7008C191.3 90.7008 191.6 90.6008 191.8 90.5008L192 91.0008C191.8 91.1008 191.3 91.2008 190.8 91.2008C189.6 91.2008 189 90.4008 189 89.3008C189 88.2008 189.7 87.3008 190.8 87.3008C192 87.3008 192.3 88.4008 192.3 89.1008C192.3 89.2008 192.3 89.3008 192.3 89.4008H189.5ZM191.5 88.9008C191.5 88.5008 191.3 87.8008 190.6 87.8008C189.9 87.8008 189.6 88.4008 189.6 88.9008H191.5Z" fill="#6B6B6B"/>
<path d="M193 85.6992H193.7V91.0992H193V85.6992Z" fill="#6B6B6B"/>
<path d="M194.8 85.6992H195.5V91.0992H194.8V85.6992Z" fill="#6B6B6B"/>
<path d="M200.1 89.2008C200.1 90.6008 199.1 91.2008 198.2 91.2008C197.2 91.2008 196.4 90.5008 196.4 89.3008C196.4 88.1008 197.2 87.3008 198.3 87.3008C199.3 87.3008 200.1 88.1008 200.1 89.2008ZM197.1 89.3008C197.1 90.1008 197.6 90.7008 198.2 90.7008C198.8 90.7008 199.3 90.1008 199.3 89.3008C199.3 88.7008 199 87.9008 198.2 87.9008C197.4 87.8008 197.1 88.6008 197.1 89.3008Z" fill="#6B6B6B"/>
<path d="M200.8 90.3992C201 90.4992 201.4 90.6992 201.7 90.6992C202.2 90.6992 202.4 90.4992 202.4 90.0992C202.4 89.7992 202.2 89.5992 201.7 89.3992C201 89.1992 200.7 88.7992 200.7 88.2992C200.7 87.6992 201.2 87.1992 202 87.1992C202.4 87.1992 202.7 87.2992 202.9 87.3992L202.7 87.8992C202.6 87.7992 202.3 87.6992 201.9 87.6992C201.5 87.6992 201.3 87.8992 201.3 88.1992C201.3 88.4992 201.5 88.5992 202 88.7992C202.7 88.9992 203 89.3992 203 89.8992C203 90.5992 202.5 90.9992 201.6 90.9992C201.2 90.9992 200.8 90.8992 200.5 90.6992L200.8 90.3992Z" fill="#6B6B6B"/>
<path d="M251 212.998C251.3 213.198 251.8 213.398 252.4 213.398C253.2 213.398 253.6 212.998 253.6 212.398C253.6 211.798 253.3 211.498 252.5 211.198C251.5 210.898 250.9 210.398 250.9 209.498C250.9 208.598 251.7 207.898 252.8 207.898C253.4 207.898 253.8 207.998 254.1 208.198L253.9 208.798C253.7 208.698 253.3 208.498 252.8 208.498C252 208.498 251.7 208.998 251.7 209.398C251.7 209.998 252.1 210.198 252.9 210.498C253.9 210.898 254.4 211.398 254.4 212.198C254.4 213.098 253.7 213.898 252.3 213.898C251.7 213.898 251.1 213.698 250.8 213.498L251 212.998Z" fill="#140603"/>
<path d="M254.7 214.3L257.1 208H257.7L255.3 214.3H254.7Z" fill="#140603"/>
<path d="M261.6 208.999L260.6 209.499L260.5 208.899L261.701 208.199H262.4V213.899H261.701V208.999H261.6Z" fill="#140603"/>
<path d="M264.6 213.099C264.8 213.199 265.3 213.499 265.9 213.499C266.9 213.499 267.201 212.899 267.201 212.399C267.201 211.599 266.501 211.299 265.701 211.299H265.3V210.699H265.701C266.301 210.699 267 210.399 267 209.699C267 209.199 266.7 208.799 266 208.799C265.5 208.799 265.1 208.999 264.9 209.199L264.701 208.599C265.001 208.399 265.601 208.199 266.201 208.199C267.301 208.199 267.8 208.899 267.8 209.599C267.8 210.199 267.5 210.699 266.8 210.899C267.5 210.999 268.1 211.599 268.1 212.399C268.1 213.299 267.4 214.099 266 214.099C265.4 214.099 264.8 213.899 264.5 213.699L264.6 213.099Z" fill="#140603"/>
<path d="M272.7 211.099C272.7 212.999 272 214.099 270.7 214.099C269.6 214.099 268.8 213.099 268.8 211.199C268.8 209.299 269.6 208.199 270.8 208.199C272 208.199 272.7 209.199 272.7 211.099ZM269.6 211.099C269.6 212.599 270.1 213.399 270.8 213.399C271.6 213.399 272 212.499 272 210.999C272 209.599 271.6 208.699 270.8 208.699C270.1 208.799 269.6 209.599 269.6 211.099Z" fill="#140603"/>
<path d="M273.5 213.498C273.5 213.198 273.7 212.898 274 212.898C274.3 212.898 274.5 213.098 274.5 213.498C274.5 213.798 274.3 214.098 274 214.098C273.7 214.098 273.5 213.798 273.5 213.498Z" fill="#140603"/>
<path d="M279 211.099C279 212.999 278.3 214.099 277 214.099C275.9 214.099 275.1 213.099 275.1 211.199C275.1 209.299 275.9 208.199 277.1 208.199C278.3 208.199 279 209.199 279 211.099ZM275.9 211.099C275.9 212.599 276.4 213.399 277.1 213.399C277.9 213.399 278.3 212.499 278.3 210.999C278.3 209.599 277.9 208.699 277.1 208.699C276.4 208.799 275.9 209.599 275.9 211.099Z" fill="#140603"/>
<path d="M283.5 211.099C283.5 212.999 282.8 214.099 281.5 214.099C280.4 214.099 279.6 213.099 279.6 211.199C279.6 209.299 280.4 208.199 281.6 208.199C282.8 208.199 283.5 209.199 283.5 211.099ZM280.4 211.099C280.4 212.599 280.9 213.399 281.6 213.399C282.4 213.399 282.8 212.499 282.8 210.999C282.8 209.599 282.4 208.699 281.6 208.699C280.9 208.799 280.4 209.599 280.4 211.099Z" fill="#140603"/>
<path d="M126 194.7V189H126.8L128.6 191.9C129 192.6 129.4 193.2 129.6 193.8C129.5 193 129.5 192.3 129.5 191.5V189H130.2V194.7H129.5L127.7 191.8C127.3 191.2 126.9 190.5 126.6 189.9C126.6 190.6 126.7 191.3 126.7 192.2V194.6H126V194.7Z" fill="#6B6B6B"/>
<path d="M133.4 189.998C133.4 190.698 132.8 191.098 132.3 191.098C131.6 191.098 131.2 190.598 131.2 189.998C131.2 189.298 131.7 188.898 132.3 188.898C133 188.898 133.4 189.498 133.4 189.998ZM131.6 190.098C131.6 190.498 131.9 190.798 132.3 190.798C132.7 190.798 133 190.498 133 190.098C133 189.798 132.8 189.398 132.3 189.398C131.8 189.298 131.6 189.698 131.6 190.098Z" fill="#6B6B6B"/>
<path d="M136.1 189.1C136.5 189 137 189 137.5 189C138.3 189 138.8 189.1 139.2 189.5C139.5 189.8 139.7 190.1 139.7 190.6C139.7 191.4 139.2 191.9 138.6 192.1C139 192.3 139.3 192.7 139.4 193.3C139.6 194.1 139.7 194.6 139.8 194.9H139C138.9 194.7 138.8 194.2 138.6 193.5C138.4 192.7 138.1 192.4 137.5 192.4H136.8V194.9H136.1V189.1ZM136.8 191.7H137.6C138.4 191.7 138.9 191.3 138.9 190.6C138.9 189.9 138.4 189.5 137.6 189.5C137.2 189.5 137 189.5 136.9 189.6V191.7H136.8Z" fill="#6B6B6B"/>
<path d="M141.1 192.8C141.1 193.8 141.8 194.2 142.5 194.2C143 194.2 143.4 194.1 143.6 194L143.7 194.5C143.4 194.6 143 194.8 142.3 194.8C141 194.8 140.3 194 140.3 192.7C140.3 191.5 141 190.5 142.2 190.5C143.5 190.5 143.9 191.7 143.9 192.4C143.9 192.6 143.9 192.7 143.9 192.7H141.1V192.8ZM143.3 192.3C143.3 191.8 143.1 191.1 142.3 191.1C141.5 191.1 141.2 191.8 141.2 192.3H143.3Z" fill="#6B6B6B"/>
<path d="M147.9 194.6C147.7 194.7 147.3 194.8 146.7 194.8C145.5 194.8 144.6 194 144.6 192.7C144.6 191.4 145.5 190.5 146.8 190.5C147.2 190.5 147.6 190.6 147.8 190.7L147.6 191.3C147.4 191.2 147.1 191.1 146.7 191.1C145.8 191.1 145.2 191.8 145.2 192.6C145.2 193.5 145.8 194.1 146.6 194.1C147 194.1 147.3 194 147.5 193.9L147.9 194.6Z" fill="#6B6B6B"/>
<path d="M149.6 189.5C149.6 189.8 149.4 190 149.1 190C148.8 190 148.6 189.8 148.6 189.5C148.6 189.2 148.8 189 149.1 189C149.4 189 149.6 189.2 149.6 189.5ZM148.7 194.7V190.6H149.5V194.7H148.7Z" fill="#6B6B6B"/>
<path d="M150.7 194.699C150.7 194.399 150.7 193.999 150.7 193.599V188.699H151.4V191.299C151.7 190.799 152.1 190.499 152.8 190.499C153.8 190.499 154.5 191.299 154.5 192.599C154.5 194.099 153.6 194.799 152.7 194.799C152.1 194.799 151.6 194.599 151.3 193.999V194.699H150.7ZM151.5 193.099C151.5 193.199 151.5 193.299 151.5 193.399C151.6 193.899 152.1 194.299 152.6 194.299C153.4 194.299 153.9 193.699 153.9 192.699C153.9 191.899 153.5 191.199 152.7 191.199C152.2 191.199 151.7 191.499 151.6 192.099C151.6 192.199 151.6 192.299 151.6 192.399V193.099H151.5Z" fill="#6B6B6B"/>
<path d="M159.3 192.698C159.3 194.198 158.2 194.898 157.2 194.898C156.1 194.898 155.2 194.098 155.2 192.798C155.2 191.398 156.1 190.598 157.2 190.598C158.5 190.598 159.3 191.398 159.3 192.698ZM156 192.698C156 193.598 156.5 194.298 157.3 194.298C158 194.298 158.6 193.598 158.6 192.698C158.6 191.998 158.3 191.098 157.4 191.098C156.4 191.098 156 191.898 156 192.698Z" fill="#6B6B6B"/>
<path d="M164.1 194.699V193.199H161.5V192.699L164 189.199H164.8V192.599H165.6V193.199H164.8V194.699H164.1ZM164.1 192.699V190.899C164.1 190.599 164.1 190.299 164.1 189.999C163.9 190.299 163.8 190.599 163.6 190.799L162.2 192.699H164.1Z" fill="#6B6B6B"/>
<path d="M169.5 189.898H167.4L167.2 191.298C167.3 191.298 167.4 191.298 167.7 191.298C168.1 191.298 168.6 191.398 168.9 191.598C169.3 191.798 169.7 192.298 169.7 192.998C169.7 194.098 168.8 194.898 167.6 194.898C167 194.898 166.5 194.698 166.2 194.598L166.4 193.998C166.6 194.098 167.1 194.298 167.6 194.298C168.3 194.298 168.9 193.798 168.9 193.098C168.9 192.398 168.4 191.898 167.3 191.898C167 191.898 166.7 191.898 166.5 191.998L166.9 189.398H169.5V189.898Z" fill="#6B6B6B"/>
<path d="M174.2 191.898C174.2 193.798 173.5 194.798 172.3 194.798C171.2 194.798 170.5 193.798 170.5 191.998C170.5 190.198 171.3 189.098 172.4 189.098C173.6 189.198 174.2 190.198 174.2 191.898ZM171.2 191.998C171.2 193.398 171.6 194.198 172.3 194.198C173.1 194.198 173.4 193.298 173.4 191.898C173.4 190.498 173.1 189.698 172.3 189.698C171.7 189.698 171.2 190.498 171.2 191.998Z" fill="#6B6B6B"/>
<path d="M178.6 191.898C178.6 193.798 177.9 194.798 176.7 194.798C175.6 194.798 174.9 193.798 174.9 191.998C174.9 190.198 175.7 189.098 176.8 189.098C177.9 189.198 178.6 190.198 178.6 191.898ZM175.6 191.998C175.6 193.398 176 194.198 176.7 194.198C177.5 194.198 177.8 193.298 177.8 191.898C177.8 190.498 177.5 189.698 176.7 189.698C176.1 189.698 175.6 190.498 175.6 191.998Z" fill="#6B6B6B"/>
<path d="M183 191.898C183 193.798 182.3 194.798 181.1 194.798C180 194.798 179.3 193.798 179.3 191.998C179.3 190.198 180.1 189.098 181.2 189.098C182.3 189.198 183 190.198 183 191.898ZM180 191.998C180 193.398 180.4 194.198 181.1 194.198C181.9 194.198 182.2 193.298 182.2 191.898C182.2 190.498 181.9 189.698 181.1 189.698C180.5 189.698 180 190.498 180 191.998Z" fill="#6B6B6B"/>
<path d="M187.3 191.898C187.3 193.798 186.6 194.798 185.4 194.798C184.3 194.798 183.6 193.798 183.6 191.998C183.6 190.198 184.4 189.098 185.5 189.098C186.7 189.198 187.3 190.198 187.3 191.898ZM184.3 191.998C184.3 193.398 184.7 194.198 185.4 194.198C186.2 194.198 186.5 193.298 186.5 191.898C186.5 190.498 186.2 189.698 185.4 189.698C184.8 189.698 184.3 190.498 184.3 191.998Z" fill="#6B6B6B"/>
<path d="M191.7 191.898C191.7 193.798 191 194.798 189.8 194.798C188.7 194.798 188 193.798 188 191.998C188 190.198 188.8 189.098 189.9 189.098C191.1 189.198 191.7 190.198 191.7 191.898ZM188.7 191.998C188.7 193.398 189.1 194.198 189.8 194.198C190.6 194.198 190.9 193.298 190.9 191.898C190.9 190.498 190.6 189.698 189.8 189.698C189.2 189.698 188.7 190.498 188.7 191.998Z" fill="#6B6B6B"/>
<path d="M196.1 191.898C196.1 193.798 195.4 194.798 194.2 194.798C193.1 194.798 192.4 193.798 192.4 191.998C192.4 190.198 193.2 189.098 194.3 189.098C195.4 189.198 196.1 190.198 196.1 191.898ZM193.1 191.998C193.1 193.398 193.5 194.198 194.2 194.198C195 194.198 195.3 193.298 195.3 191.898C195.3 190.498 195 189.698 194.2 189.698C193.6 189.698 193.1 190.498 193.1 191.998Z" fill="#6B6B6B"/>
<path d="M200.4 189.199V189.699L198 194.699H197.2L199.6 189.799H196.9V189.199H200.4Z" fill="#6B6B6B"/>
<path d="M204.3 189.801C204.1 189.801 204 189.801 203.7 189.801C202.5 190.001 201.9 190.801 201.8 191.801C202.1 191.501 202.5 191.201 203.1 191.201C204.1 191.201 204.8 191.901 204.8 193.001C204.8 194.001 204.1 194.901 203 194.901C201.8 194.901 201 194.001 201 192.601C201 191.501 201.4 190.701 201.9 190.101C202.4 189.701 203 189.401 203.7 189.301C203.9 189.301 204.1 189.301 204.2 189.301V189.801H204.3ZM204.1 192.901C204.1 192.101 203.6 191.601 203 191.601C202.5 191.601 202.1 191.901 201.9 192.301C201.8 192.401 201.8 192.501 201.8 192.601C201.8 193.501 202.2 194.201 203 194.201C203.7 194.301 204.1 193.701 204.1 192.901Z" fill="#6B6B6B"/>
<path d="M209.2 191.898C209.2 193.798 208.5 194.798 207.3 194.798C206.2 194.798 205.5 193.798 205.5 191.998C205.5 190.198 206.3 189.098 207.4 189.098C208.5 189.198 209.2 190.198 209.2 191.898ZM206.2 191.998C206.2 193.398 206.6 194.198 207.3 194.198C208.1 194.198 208.4 193.298 208.4 191.898C208.4 190.498 208.1 189.698 207.3 189.698C206.7 189.698 206.2 190.498 206.2 191.998Z" fill="#6B6B6B"/>
<path d="M211.5 189.899L210.5 190.399L210.4 189.799L211.6 189.199H212.2V194.699H211.5V189.899Z" fill="#6B6B6B"/>
<path d="M217.6 189.898H215.5L215.3 191.298C215.4 191.298 215.5 191.298 215.8 191.298C216.2 191.298 216.7 191.398 217 191.598C217.4 191.798 217.8 192.298 217.8 192.998C217.8 194.098 216.9 194.898 215.7 194.898C215.1 194.898 214.6 194.698 214.3 194.598L214.5 193.998C214.7 194.098 215.2 194.298 215.7 194.298C216.4 194.298 217 193.798 217 193.098C217 192.398 216.5 191.898 215.4 191.898C215.1 191.898 214.8 191.898 214.6 191.998L215 189.398H217.6V189.898Z" fill="#6B6B6B"/>
<path d="M221.9 189.898H219.8L219.6 191.298C219.7 191.298 219.8 191.298 220.1 191.298C220.5 191.298 221 191.398 221.3 191.598C221.7 191.798 222.1 192.298 222.1 192.998C222.1 194.098 221.2 194.898 220 194.898C219.4 194.898 218.9 194.698 218.6 194.598L218.8 193.998C219 194.098 219.5 194.298 220 194.298C220.7 194.298 221.3 193.798 221.3 193.098C221.3 192.398 220.8 191.898 219.7 191.898C219.4 191.898 219.1 191.898 218.9 191.998L219.3 189.398H221.9V189.898Z" fill="#6B6B6B"/>
<path d="M226.7 191.898C226.7 193.798 226 194.798 224.8 194.798C223.7 194.798 223 193.798 223 191.998C223 190.198 223.8 189.098 224.9 189.098C226 189.198 226.7 190.198 226.7 191.898ZM223.7 191.998C223.7 193.398 224.1 194.198 224.8 194.198C225.6 194.198 225.9 193.298 225.9 191.898C225.9 190.498 225.6 189.698 224.8 189.698C224.1 189.698 223.7 190.498 223.7 191.998Z" fill="#6B6B6B"/>
<path d="M229.7 194.699V193.199H227.1V192.699L229.6 189.199H230.4V192.599H231.2V193.199H230.4V194.699H229.7ZM229.7 192.699V190.899C229.7 190.599 229.7 190.299 229.7 189.999C229.5 190.299 229.4 190.599 229.2 190.799L227.8 192.699H229.7Z" fill="#6B6B6B"/>
<path d="M127.1 198.898H127.8V202.698C127.8 204.198 127.1 204.698 126.1 204.698C125.8 204.698 125.5 204.598 125.3 204.598L125.4 203.998C125.6 204.098 125.8 204.098 126 204.098C126.7 204.098 127.1 203.798 127.1 202.698V198.898Z" fill="#6B6B6B"/>
<path d="M129.9 198.898V202.298C129.9 203.598 130.5 204.098 131.2 204.098C132.1 204.098 132.6 203.498 132.6 202.298V198.898H133.3V202.198C133.3 203.898 132.4 204.698 131.1 204.698C129.9 204.698 129 203.998 129 202.298V198.898H129.9Z" fill="#6B6B6B"/>
<path d="M135.3 202.798L134.7 204.598H133.9L135.9 198.898H136.8L138.8 204.598H138L137.4 202.798H135.3ZM137.1 202.198L136.5 200.598C136.4 200.198 136.3 199.898 136.2 199.598C136.1 199.898 136 200.298 135.9 200.598L135.3 202.198H137.1Z" fill="#6B6B6B"/>
<path d="M139.5 204.497V198.797H140.3L142.1 201.697C142.5 202.397 142.9 202.997 143.1 203.597C143 202.797 143 202.097 143 201.297V198.897H143.7V204.597H143L141.2 201.697C140.8 201.097 140.4 200.397 140.1 199.797C140.1 200.497 140.2 201.197 140.2 202.097V204.497H139.5Z" fill="#6B6B6B"/>
<path d="M147 198.897C147.4 198.797 147.8 198.797 148.4 198.797C149.1 198.797 149.7 198.997 150 199.297C150.3 199.597 150.5 199.997 150.5 200.497C150.5 200.997 150.3 201.397 150.1 201.697C149.7 202.097 149.1 202.297 148.3 202.297C148.1 202.297 147.9 202.297 147.7 202.197V204.497H147V198.897ZM147.7 201.697C147.9 201.697 148.1 201.797 148.3 201.797C149.2 201.797 149.7 201.397 149.7 200.597C149.7 199.797 149.2 199.497 148.3 199.497C148 199.497 147.7 199.497 147.6 199.597V201.697H147.7Z" fill="#6B6B6B"/>
<path d="M154.5 201.898H152.3V203.998H154.8V204.598H151.6V198.898H154.7V199.498H152.3V201.298H154.5V201.898Z" fill="#6B6B6B"/>
<path d="M155.7 198.897C156.1 198.797 156.6 198.797 157.1 198.797C157.9 198.797 158.4 198.897 158.8 199.297C159.1 199.597 159.3 199.897 159.3 200.397C159.3 201.197 158.8 201.697 158.2 201.897C158.6 202.097 158.9 202.497 159 203.097C159.2 203.897 159.3 204.397 159.4 204.697H158.6C158.5 204.497 158.4 203.997 158.2 203.297C158 202.497 157.7 202.197 157.1 202.197H156.4V204.697H155.7V198.897ZM156.4 201.497H157.2C158 201.497 158.5 201.097 158.5 200.397C158.5 199.697 158 199.297 157.2 199.297C156.8 199.297 156.6 199.297 156.5 199.397V201.497H156.4Z" fill="#6B6B6B"/>
<path d="M163.2 201.898H161V203.998H163.5V204.598H160.3V198.898H163.4V199.498H161V201.298H163.2V201.898Z" fill="#6B6B6B"/>
<path d="M164.1 204.098L167.3 199.498H164.4V198.898H168.3V199.298L165.1 203.898H168.3V204.498H164.1V204.098Z" fill="#6B6B6B"/>
<path d="M127.1 214.001L125.4 208.801H126.1L126.9 211.401C127.1 212.101 127.3 212.701 127.5 213.401C127.6 212.801 127.9 212.101 128.1 211.501L129 208.901H129.7L127.8 214.101H127.1V214.001Z" fill="#6B6B6B"/>
<path d="M130.401 212.202C130.401 213.102 131.001 213.502 131.701 213.502C132.201 213.502 132.501 213.402 132.701 213.302L132.801 213.802C132.601 213.902 132.101 214.002 131.501 214.002C130.301 214.002 129.601 213.202 129.601 212.102C129.601 211.002 130.301 210.102 131.401 210.102C132.601 210.102 133.001 211.202 133.001 211.902C133.001 212.002 133.001 212.102 133.001 212.202H130.401ZM132.401 211.702C132.401 211.302 132.201 210.602 131.401 210.602C130.701 210.602 130.401 211.202 130.301 211.702H132.401Z" fill="#6B6B6B"/>
<path d="M133.9 211.202C133.9 210.802 133.9 210.502 133.9 210.202H134.5V210.802C134.7 210.402 135.1 210.102 135.8 210.102C136.3 210.102 137.1 210.402 137.1 211.702V213.902H136.4V211.702C136.4 211.102 136.2 210.602 135.5 210.602C135 210.602 134.7 210.902 134.6 211.302C134.6 211.402 134.6 211.502 134.6 211.602V213.902H133.9V211.202Z" fill="#6B6B6B"/>
<path d="M140.9 213.802C140.7 213.902 140.3 214.002 139.8 214.002C138.7 214.002 137.9 213.202 137.9 212.102C137.9 210.902 138.7 210.102 139.9 210.102C140.3 210.102 140.7 210.202 140.9 210.302L140.7 210.802C140.5 210.702 140.3 210.602 139.9 210.602C139 210.602 138.6 211.202 138.6 212.002C138.6 212.902 139.2 213.402 139.9 213.402C140.3 213.402 140.5 213.302 140.7 213.202L140.9 213.802Z" fill="#6B6B6B"/>
<path d="M142.1 212.202C142.1 213.102 142.7 213.502 143.4 213.502C143.9 213.502 144.2 213.402 144.4 213.302L144.5 213.802C144.3 213.902 143.8 214.002 143.2 214.002C142 214.002 141.3 213.202 141.3 212.102C141.3 211.002 142 210.102 143.1 210.102C144.3 210.102 144.7 211.202 144.7 211.902C144.7 212.002 144.7 212.102 144.7 212.202H142.1ZM144.1 211.702C144.1 211.302 143.9 210.602 143.1 210.602C142.4 210.602 142.1 211.202 142 211.702H144.1Z" fill="#6B6B6B"/>
<path d="M145.4 210.801C145.4 210.501 145.6 210.301 145.9 210.301C146.2 210.301 146.4 210.501 146.4 210.801C146.4 211.101 146.2 211.301 145.9 211.301C145.6 211.301 145.4 211.101 145.4 210.801ZM145.4 213.601C145.4 213.301 145.6 213.101 145.9 213.101C146.2 213.101 146.4 213.301 146.4 213.601C146.4 213.901 146.2 214.101 145.9 214.101C145.6 214.001 145.4 213.801 145.4 213.601Z" fill="#6B6B6B"/>
<path d="M150.2 209.6L149.3 210.1L149.2 209.6L150.3 209H150.9V214H150.2V209.6Z" fill="#6B6B6B"/>
<path d="M155.6 209.398C155.5 209.398 155.3 209.398 155.1 209.398C154 209.598 153.5 210.398 153.3 211.198C153.5 210.898 154 210.598 154.5 210.598C155.4 210.598 156 211.198 156 212.198C156 213.098 155.4 213.998 154.3 213.998C153.2 213.998 152.5 213.198 152.5 211.898C152.5 210.898 152.9 210.098 153.4 209.598C153.8 209.198 154.4 208.898 155 208.898C155.2 208.898 155.4 208.898 155.5 208.898V209.398H155.6ZM155.4 212.298C155.4 211.598 155 211.098 154.4 211.098C154 211.098 153.6 211.398 153.4 211.698C153.4 211.798 153.3 211.898 153.3 211.998C153.3 212.798 153.7 213.398 154.4 213.398C155 213.498 155.4 212.998 155.4 212.298Z" fill="#6B6B6B"/>
<path d="M157.601 214.999C157.901 214.999 158.201 214.899 158.401 214.699C158.601 214.499 158.701 214.199 158.701 213.299V210.199H159.401V213.599C159.401 214.299 159.301 214.799 158.901 215.099C158.601 215.399 158.101 215.499 157.701 215.499L157.601 214.999ZM159.401 209.199C159.401 209.399 159.201 209.599 159.001 209.599C158.701 209.599 158.601 209.399 158.601 209.199C158.601 208.999 158.801 208.799 159.001 208.799C159.201 208.699 159.401 208.899 159.401 209.199Z" fill="#6B6B6B"/>
<path d="M163.6 212.899C163.6 213.299 163.6 213.599 163.6 213.899H163V213.299C162.8 213.599 162.4 213.999 161.7 213.999C161.1 213.999 160.4 213.699 160.4 212.399V210.199H161.1V212.299C161.1 212.999 161.3 213.499 161.9 213.499C162.4 213.499 162.7 213.199 162.8 212.899C162.8 212.799 162.9 212.699 162.9 212.599V210.299H163.6V212.899Z" fill="#6B6B6B"/>
<path d="M164.8 208.5H165.5V214H164.8V208.5Z" fill="#6B6B6B"/>
<path d="M166.4 213.602C166.4 213.302 166.6 213.102 166.9 213.102C167.2 213.102 167.4 213.302 167.4 213.602C167.4 213.902 167.2 214.102 166.9 214.102C166.5 214.002 166.4 213.802 166.4 213.602Z" fill="#6B6B6B"/>
<path d="M126.9 181.599L126.3 183.399H125.5L127.4 177.699H128.3L130.2 183.399H129.4L128.8 181.599H126.9ZM128.8 180.999L128.2 179.399C128.1 178.999 128 178.699 127.9 178.399C127.8 178.699 127.7 179.099 127.6 179.399L127 180.999H128.8Z" fill="#140603"/>
<path d="M135 183.198C134.7 183.298 134.2 183.498 133.5 183.498C131.9 183.498 130.7 182.498 130.7 180.598C130.7 178.798 131.9 177.598 133.7 177.598C134.4 177.598 134.9 177.798 135.1 177.898L134.9 178.498C134.6 178.398 134.2 178.298 133.7 178.298C132.4 178.298 131.5 179.198 131.5 180.698C131.5 182.098 132.3 182.998 133.7 182.998C134.1 182.998 134.6 182.898 134.9 182.798L135 183.198Z" fill="#140603"/>
<path d="M136.9 181.599L136.3 183.399H135.5L137.4 177.699H138.3L140.2 183.399H139.4L138.8 181.599H136.9ZM138.8 180.999L138.2 179.399C138.1 178.999 138 178.699 137.9 178.399C137.8 178.699 137.7 179.099 137.6 179.399L137 180.999H138.8Z" fill="#140603"/>
<path d="M141.1 177.698C141.5 177.598 142.1 177.598 142.7 177.598C143.8 177.598 144.5 177.798 145 178.298C145.5 178.798 145.8 179.398 145.8 180.298C145.8 181.198 145.5 181.998 145 182.498C144.5 182.998 143.6 183.298 142.5 183.298C142 183.298 141.5 183.298 141.2 183.198V177.698H141.1ZM141.9 182.798C142.1 182.798 142.4 182.798 142.6 182.798C144.2 182.798 145 181.898 145 180.398C145 179.098 144.2 178.198 142.7 178.198C142.3 178.198 142 178.198 141.8 178.298V182.798H141.9Z" fill="#140603"/>
<path d="M149.7 180.699H147.5V182.799H150V183.399H146.8V177.699H149.9V178.299H147.6V180.099H149.8V180.699H149.7Z" fill="#140603"/>
<path d="M155.8 180.798C155.8 179.998 155.7 178.998 155.7 178.298C155.5 178.998 155.3 179.698 155 180.498L154 183.298H153.4L152.5 180.598C152.2 179.798 152 179.098 151.8 178.398C151.8 179.098 151.7 180.098 151.7 180.898L151.5 183.298H150.8L151.2 177.598H152.1L153.1 180.398C153.3 181.098 153.5 181.698 153.7 182.298C153.8 181.698 154 181.098 154.3 180.398L155.3 177.598H156.2L156.6 183.298H155.9L155.8 180.798Z" fill="#140603"/>
<path d="M158.5 177.598V183.298H157.8V177.598H158.5Z" fill="#140603"/>
<path d="M160.7 181.599L160.1 183.399H159.3L161.2 177.699H162.1L164 183.399H163.2L162.6 181.599H160.7ZM162.6 180.999L162 179.399C161.9 178.999 161.8 178.699 161.7 178.399C161.6 178.699 161.5 179.099 161.4 179.399L160.8 181.099H162.6V180.999Z" fill="#140603"/>
<path d="M164.9 182.499C165.2 182.699 165.7 182.899 166.2 182.899C167 182.899 167.4 182.499 167.4 181.899C167.4 181.399 167.1 181.099 166.3 180.799C165.4 180.499 164.8 179.999 164.8 179.199C164.8 178.299 165.5 177.699 166.6 177.699C167.2 177.699 167.6 177.799 167.9 177.999L167.7 178.599C167.5 178.499 167.1 178.299 166.6 178.299C165.8 178.299 165.5 178.799 165.5 179.199C165.5 179.699 165.8 179.999 166.6 180.299C167.6 180.699 168.1 181.099 168.1 181.999C168.1 182.899 167.4 183.599 166.1 183.599C165.5 183.599 164.9 183.399 164.6 183.199L164.9 182.499Z" fill="#140603"/>
<path d="M171.7 178.299H170V177.699H174.2V178.299H172.5V183.399H171.8V178.299H171.7Z" fill="#140603"/>
<path d="M174.8 177.698C175.2 177.598 175.7 177.598 176.2 177.598C177 177.598 177.5 177.698 177.9 178.098C178.2 178.398 178.3 178.698 178.3 179.198C178.3 179.998 177.8 180.498 177.2 180.698C177.6 180.898 177.9 181.298 178 181.898C178.2 182.698 178.3 183.198 178.4 183.498H177.6C177.5 183.298 177.4 182.798 177.2 182.098C177 181.298 176.7 180.998 176.1 180.998H175.4V183.498H174.7V177.698H174.8ZM175.5 180.298H176.3C177.1 180.298 177.6 179.898 177.6 179.198C177.6 178.498 177.1 178.098 176.3 178.098C175.9 178.098 175.7 178.098 175.6 178.198V180.298H175.5Z" fill="#140603"/>
<path d="M180.1 177.598V183.298H179.4V177.598H180.1Z" fill="#140603"/>
<path d="M181.4 177.598H182.1V182.698H184.5V183.298H181.3V177.598H181.4Z" fill="#140603"/>
<path d="M189 183.198C188.7 183.298 188.2 183.498 187.5 183.498C185.9 183.498 184.7 182.498 184.7 180.598C184.7 178.798 185.9 177.598 187.7 177.598C188.4 177.598 188.9 177.798 189.1 177.898L188.9 178.498C188.6 178.398 188.2 178.298 187.7 178.298C186.4 178.298 185.5 179.198 185.5 180.698C185.5 182.098 186.3 182.998 187.7 182.998C188.1 182.998 188.6 182.898 188.9 182.798L189 183.198Z" fill="#140603"/>
<path d="M192.9 180.699H190.7V182.799H193.2V183.399H190V177.699H193.1V178.299H190.8V180.099H193V180.699H192.9Z" fill="#140603"/>
<path d="M113.5 185.498C116.427 185.498 118.8 183.126 118.8 180.198C118.8 177.271 116.427 174.898 113.5 174.898C110.573 174.898 108.2 177.271 108.2 180.198C108.2 183.126 110.573 185.498 113.5 185.498Z" stroke="#6B6B6B" stroke-width="1.3267" stroke-miterlimit="10"/>
<path d="M251.7 152.299C252 152.499 252.5 152.699 253.1 152.699C253.9 152.699 254.3 152.299 254.3 151.699C254.3 151.099 254 150.799 253.2 150.499C252.2 150.199 251.6 149.699 251.6 148.799C251.6 147.899 252.4 147.199 253.5 147.199C254.1 147.199 254.5 147.299 254.8 147.499L254.6 148.099C254.4 147.999 254 147.799 253.5 147.799C252.7 147.799 252.4 148.299 252.4 148.699C252.4 149.299 252.8 149.499 253.6 149.799C254.6 150.199 255.1 150.699 255.1 151.499C255.1 152.399 254.4 153.199 253 153.199C252.4 153.199 251.8 152.999 251.5 152.799L251.7 152.299Z" fill="#140603"/>
<path d="M255.5 153.499L257.9 147.199H258.5L256.1 153.499H255.5Z" fill="#140603"/>
<path d="M262.4 148.198L261.4 148.698L261.3 148.098L262.5 147.398H263.2V153.098H262.5V148.198H262.4Z" fill="#140603"/>
<path d="M265.4 152.298C265.6 152.398 266.1 152.698 266.7 152.698C267.7 152.698 268 152.098 268 151.598C268 150.798 267.3 150.498 266.5 150.498H266V149.898H266.4C267 149.898 267.7 149.598 267.7 148.898C267.7 148.398 267.4 147.998 266.7 147.998C266.2 147.998 265.8 148.198 265.6 148.398L265.4 147.798C265.7 147.598 266.3 147.398 266.9 147.398C268 147.398 268.5 148.098 268.5 148.798C268.5 149.398 268.2 149.898 267.5 150.098C268.2 150.198 268.8 150.798 268.8 151.598C268.8 152.498 268.1 153.298 266.7 153.298C266.1 153.298 265.5 153.098 265.2 152.898L265.4 152.298Z" fill="#140603"/>
<path d="M273.5 150.298C273.5 152.198 272.8 153.298 271.5 153.298C270.4 153.298 269.6 152.298 269.6 150.398C269.6 148.498 270.4 147.398 271.6 147.398C272.8 147.398 273.5 148.498 273.5 150.298ZM270.4 150.398C270.4 151.898 270.9 152.698 271.6 152.698C272.4 152.698 272.8 151.798 272.8 150.298C272.8 148.898 272.4 147.998 271.6 147.998C270.9 147.998 270.4 148.798 270.4 150.398Z" fill="#140603"/>
<path d="M274.2 152.698C274.2 152.398 274.4 152.098 274.7 152.098C275 152.098 275.2 152.298 275.2 152.698C275.2 152.998 275 153.298 274.7 153.298C274.5 153.298 274.2 152.998 274.2 152.698Z" fill="#140603"/>
<path d="M279.8 150.298C279.8 152.198 279.1 153.298 277.8 153.298C276.7 153.298 275.9 152.298 275.9 150.398C275.9 148.498 276.7 147.398 277.9 147.398C279.1 147.398 279.8 148.498 279.8 150.298ZM276.7 150.398C276.7 151.898 277.2 152.698 277.9 152.698C278.7 152.698 279.1 151.798 279.1 150.298C279.1 148.898 278.7 147.998 277.9 147.998C277.2 147.998 276.7 148.798 276.7 150.398Z" fill="#140603"/>
<path d="M284.2 150.298C284.2 152.198 283.5 153.298 282.2 153.298C281.1 153.298 280.3 152.298 280.3 150.398C280.3 148.498 281.1 147.398 282.3 147.398C283.6 147.398 284.2 148.498 284.2 150.298ZM281.2 150.398C281.2 151.898 281.7 152.698 282.4 152.698C283.2 152.698 283.6 151.798 283.6 150.298C283.6 148.898 283.2 147.998 282.4 147.998C281.7 147.998 281.2 148.798 281.2 150.398Z" fill="#140603"/>
<path d="M126.7 134.001V128.301H127.5L129.3 131.201C129.7 131.901 130.1 132.501 130.3 133.101C130.2 132.301 130.2 131.601 130.2 130.801V128.401H130.9V134.101H130.2L128.4 131.201C128 130.601 127.6 129.901 127.3 129.301C127.3 130.001 127.4 130.701 127.4 131.601V134.001H126.7Z" fill="#6B6B6B"/>
<path d="M134.2 129.299C134.2 129.999 133.6 130.399 133.1 130.399C132.4 130.399 132 129.899 132 129.299C132 128.599 132.5 128.199 133.1 128.199C133.8 128.199 134.2 128.699 134.2 129.299ZM132.4 129.299C132.4 129.699 132.7 129.999 133.1 129.999C133.5 129.999 133.8 129.699 133.8 129.299C133.8 128.999 133.6 128.599 133.1 128.599C132.6 128.599 132.4 128.899 132.4 129.299Z" fill="#6B6B6B"/>
<path d="M136.9 128.299C137.3 128.199 137.8 128.199 138.3 128.199C139.1 128.199 139.6 128.299 140 128.699C140.3 128.999 140.5 129.299 140.5 129.799C140.5 130.599 140 131.099 139.4 131.299C139.8 131.499 140.1 131.899 140.2 132.499C140.4 133.299 140.5 133.799 140.6 134.099H139.8C139.7 133.899 139.6 133.399 139.4 132.699C139.2 131.899 138.9 131.599 138.3 131.599H137.6V134.099H136.9V128.299ZM137.6 130.899H138.4C139.2 130.899 139.7 130.499 139.7 129.799C139.7 129.099 139.2 128.699 138.4 128.699C138 128.699 137.8 128.699 137.7 128.799V130.899H137.6Z" fill="#6B6B6B"/>
<path d="M141.9 131.999C141.9 132.999 142.6 133.399 143.3 133.399C143.8 133.399 144.2 133.299 144.4 133.199L144.5 133.699C144.2 133.799 143.8 133.999 143.1 133.999C141.8 133.999 141.1 133.199 141.1 131.899C141.1 130.699 141.8 129.699 143 129.699C144.3 129.699 144.7 130.899 144.7 131.599C144.7 131.799 144.7 131.899 144.7 131.899H141.9V131.999ZM144.1 131.499C144.1 130.999 143.9 130.299 143.1 130.299C142.3 130.299 142 130.999 142 131.499H144.1Z" fill="#6B6B6B"/>
<path d="M148.6 133.799C148.4 133.899 148 133.999 147.4 133.999C146.2 133.999 145.3 133.199 145.3 131.899C145.3 130.599 146.2 129.699 147.5 129.699C147.9 129.699 148.3 129.799 148.5 129.899L148.3 130.499C148.1 130.399 147.8 130.299 147.4 130.299C146.5 130.299 145.9 130.999 145.9 131.799C145.9 132.699 146.5 133.299 147.3 133.299C147.7 133.299 148 133.199 148.2 133.099L148.6 133.799Z" fill="#6B6B6B"/>
<path d="M150.4 128.699C150.4 128.999 150.2 129.199 149.9 129.199C149.6 129.199 149.4 128.999 149.4 128.699C149.4 128.399 149.6 128.199 149.9 128.199C150.2 128.299 150.4 128.499 150.4 128.699ZM149.5 133.999V129.899H150.3V133.999H149.5Z" fill="#6B6B6B"/>
<path d="M151.5 134C151.5 133.7 151.5 133.3 151.5 132.9V128H152.2V130.6C152.5 130.1 152.9 129.8 153.6 129.8C154.6 129.8 155.3 130.6 155.3 131.9C155.3 133.4 154.4 134.1 153.5 134.1C152.9 134.1 152.4 133.9 152.1 133.3V134H151.5ZM152.3 132.3C152.3 132.4 152.3 132.5 152.3 132.6C152.4 133.1 152.9 133.5 153.4 133.5C154.2 133.5 154.7 132.9 154.7 131.9C154.7 131.1 154.3 130.4 153.5 130.4C153 130.4 152.5 130.7 152.4 131.3C152.4 131.4 152.4 131.5 152.4 131.6V132.3H152.3Z" fill="#6B6B6B"/>
<path d="M160.1 131.901C160.1 133.401 159 134.101 158 134.101C156.9 134.101 156 133.301 156 132.001C156 130.601 156.9 129.801 158 129.801C159.3 129.801 160.1 130.601 160.1 131.901ZM156.8 131.901C156.8 132.801 157.3 133.501 158.1 133.501C158.8 133.501 159.4 132.801 159.4 131.901C159.4 131.201 159.1 130.301 158.2 130.301C157.2 130.301 156.8 131.101 156.8 131.901Z" fill="#6B6B6B"/>
<path d="M164.9 134V132.5H162.3V132L164.8 128.5H165.6V131.9H166.4V132.5H165.6V134H164.9ZM164.9 131.9V130C164.9 129.7 164.9 129.4 164.9 129.1C164.7 129.4 164.6 129.7 164.4 129.9L163 131.8H164.9V131.9Z" fill="#6B6B6B"/>
<path d="M170.3 129.102H168.2L168 130.502C168.1 130.502 168.2 130.502 168.5 130.502C168.9 130.502 169.4 130.602 169.7 130.802C170.1 131.002 170.5 131.502 170.5 132.202C170.5 133.302 169.6 134.102 168.4 134.102C167.8 134.102 167.3 133.902 167 133.802L167.2 133.202C167.4 133.302 167.9 133.502 168.4 133.502C169.1 133.502 169.7 133.002 169.7 132.302C169.7 131.602 169.2 131.102 168.1 131.102C167.8 131.102 167.5 131.102 167.3 131.202L167.7 128.602H170.3V129.102Z" fill="#6B6B6B"/>
<path d="M175 131.198C175 133.098 174.3 134.098 173.1 134.098C172 134.098 171.3 133.098 171.3 131.298C171.3 129.498 172.1 128.398 173.2 128.398C174.4 128.398 175 129.398 175 131.198ZM172 131.198C172 132.598 172.4 133.398 173.1 133.398C173.9 133.398 174.2 132.498 174.2 131.098C174.2 129.698 173.9 128.898 173.1 128.898C172.5 128.898 172 129.698 172 131.198Z" fill="#6B6B6B"/>
<path d="M179.4 131.198C179.4 133.098 178.7 134.098 177.5 134.098C176.4 134.098 175.7 133.098 175.7 131.298C175.7 129.498 176.5 128.398 177.6 128.398C178.7 128.398 179.4 129.398 179.4 131.198ZM176.4 131.198C176.4 132.598 176.8 133.398 177.5 133.398C178.3 133.398 178.6 132.498 178.6 131.098C178.6 129.698 178.3 128.898 177.5 128.898C176.9 128.898 176.4 129.698 176.4 131.198Z" fill="#6B6B6B"/>
<path d="M183.8 131.198C183.8 133.098 183.1 134.098 181.9 134.098C180.8 134.098 180.1 133.098 180.1 131.298C180.1 129.498 180.9 128.398 182 128.398C183.1 128.398 183.8 129.398 183.8 131.198ZM180.8 131.198C180.8 132.598 181.2 133.398 181.9 133.398C182.7 133.398 183 132.498 183 131.098C183 129.698 182.7 128.898 181.9 128.898C181.2 128.898 180.8 129.698 180.8 131.198Z" fill="#6B6B6B"/>
<path d="M188.1 131.198C188.1 133.098 187.4 134.098 186.2 134.098C185.1 134.098 184.4 133.098 184.4 131.298C184.4 129.498 185.2 128.398 186.3 128.398C187.5 128.398 188.1 129.398 188.1 131.198ZM185.1 131.198C185.1 132.598 185.5 133.398 186.2 133.398C187 133.398 187.3 132.498 187.3 131.098C187.3 129.698 187 128.898 186.2 128.898C185.6 128.898 185.1 129.698 185.1 131.198Z" fill="#6B6B6B"/>
<path d="M192.5 131.198C192.5 133.098 191.8 134.098 190.6 134.098C189.5 134.098 188.8 133.098 188.8 131.298C188.8 129.498 189.6 128.398 190.7 128.398C191.8 128.398 192.5 129.398 192.5 131.198ZM189.5 131.198C189.5 132.598 189.9 133.398 190.6 133.398C191.4 133.398 191.7 132.498 191.7 131.098C191.7 129.698 191.4 128.898 190.6 128.898C190 128.898 189.5 129.698 189.5 131.198Z" fill="#6B6B6B"/>
<path d="M196.9 131.198C196.9 133.098 196.2 134.098 195 134.098C193.9 134.098 193.2 133.098 193.2 131.298C193.2 129.498 194 128.398 195.1 128.398C196.2 128.398 196.9 129.398 196.9 131.198ZM193.9 131.198C193.9 132.598 194.3 133.398 195 133.398C195.8 133.398 196.1 132.498 196.1 131.098C196.1 129.698 195.8 128.898 195 128.898C194.3 128.898 193.9 129.698 193.9 131.198Z" fill="#6B6B6B"/>
<path d="M201.1 128.5V129L198.7 134H198L200.4 129.1H197.7V128.5H201.1Z" fill="#6B6B6B"/>
<path d="M205.1 129C204.9 129 204.8 129 204.5 129C203.3 129.2 202.7 130 202.6 131C202.9 130.7 203.3 130.4 203.9 130.4C204.9 130.4 205.6 131.1 205.6 132.2C205.6 133.2 204.9 134.1 203.8 134.1C202.6 134.1 201.8 133.2 201.8 131.8C201.8 130.7 202.2 129.9 202.7 129.3C203.2 128.9 203.8 128.6 204.5 128.5C204.7 128.5 204.9 128.5 205 128.5V129H205.1ZM204.9 132.2C204.9 131.4 204.4 130.9 203.8 130.9C203.3 130.9 202.9 131.2 202.7 131.6C202.6 131.7 202.6 131.8 202.6 131.9C202.6 132.8 203 133.5 203.8 133.5C204.4 133.5 204.9 132.9 204.9 132.2Z" fill="#6B6B6B"/>
<path d="M210 131.198C210 133.098 209.3 134.098 208.1 134.098C207 134.098 206.3 133.098 206.3 131.298C206.3 129.498 207.1 128.398 208.2 128.398C209.3 128.398 210 129.398 210 131.198ZM207 131.198C207 132.598 207.4 133.398 208.1 133.398C208.9 133.398 209.2 132.498 209.2 131.098C209.2 129.698 208.9 128.898 208.1 128.898C207.4 128.898 207 129.698 207 131.198Z" fill="#6B6B6B"/>
<path d="M212.3 129.2L211.3 129.7L211.2 129.1L212.4 128.5H213V134H212.3V129.2Z" fill="#6B6B6B"/>
<path d="M218.3 129.102H216.2L216 130.502C216.1 130.502 216.2 130.502 216.5 130.502C216.9 130.502 217.4 130.602 217.7 130.802C218.1 131.002 218.5 131.502 218.5 132.202C218.5 133.302 217.6 134.102 216.4 134.102C215.8 134.102 215.3 133.902 215 133.802L215.2 133.202C215.4 133.302 215.9 133.502 216.4 133.502C217.1 133.502 217.7 133.002 217.7 132.302C217.7 131.602 217.2 131.102 216.1 131.102C215.8 131.102 215.5 131.102 215.3 131.202L215.7 128.602H218.3V129.102Z" fill="#6B6B6B"/>
<path d="M222.7 129.102H220.6L220.4 130.502C220.5 130.502 220.6 130.502 220.9 130.502C221.3 130.502 221.8 130.602 222.1 130.802C222.5 131.002 222.9 131.502 222.9 132.202C222.9 133.302 222 134.102 220.8 134.102C220.2 134.102 219.7 133.902 219.4 133.802L219.6 133.202C219.8 133.302 220.3 133.502 220.8 133.502C221.5 133.502 222.1 133.002 222.1 132.302C222.1 131.602 221.6 131.102 220.5 131.102C220.2 131.102 219.9 131.102 219.7 131.202L220.1 128.602H222.7V129.102Z" fill="#6B6B6B"/>
<path d="M227.4 131.198C227.4 133.098 226.7 134.098 225.5 134.098C224.4 134.098 223.7 133.098 223.7 131.298C223.7 129.498 224.5 128.398 225.6 128.398C226.8 128.398 227.4 129.398 227.4 131.198ZM224.4 131.198C224.4 132.598 224.8 133.398 225.5 133.398C226.3 133.398 226.6 132.498 226.6 131.098C226.6 129.698 226.3 128.898 225.5 128.898C224.9 128.898 224.4 129.698 224.4 131.198Z" fill="#6B6B6B"/>
<path d="M228.3 133.098C228.5 133.198 229 133.398 229.5 133.398C230.5 133.398 230.8 132.798 230.8 132.298C230.8 131.498 230.1 131.198 229.4 131.198H229V130.598H229.4C229.9 130.598 230.6 130.298 230.6 129.698C230.6 129.298 230.3 128.898 229.6 128.898C229.2 128.898 228.7 129.098 228.5 129.298L228.3 128.798C228.6 128.598 229.2 128.398 229.7 128.398C230.8 128.398 231.3 128.998 231.3 129.698C231.3 130.298 231 130.698 230.3 130.998C231 131.098 231.5 131.598 231.5 132.398C231.5 133.298 230.8 133.998 229.5 133.998C228.9 133.998 228.3 133.798 228.1 133.598L228.3 133.098Z" fill="#6B6B6B"/>
<path d="M127.9 138.102H128.6V141.902C128.6 143.402 127.9 143.902 126.9 143.902C126.6 143.902 126.3 143.802 126.1 143.802L126.2 143.202C126.4 143.302 126.6 143.302 126.8 143.302C127.5 143.302 127.9 143.002 127.9 141.902V138.102Z" fill="#6B6B6B"/>
<path d="M130.6 138.102V141.502C130.6 142.802 131.2 143.302 131.9 143.302C132.8 143.302 133.3 142.702 133.3 141.502V138.102H134V141.402C134 143.102 133.1 143.902 131.8 143.902C130.6 143.902 129.7 143.202 129.7 141.502V138.102H130.6Z" fill="#6B6B6B"/>
<path d="M136 142.002L135.4 143.802H134.6L136.6 138.102H137.5L139.5 143.802H138.7L138.1 142.002H136ZM137.9 141.402L137.3 139.802C137.2 139.402 137.1 139.102 137 138.802C136.9 139.102 136.8 139.502 136.7 139.802L136.1 141.402H137.9Z" fill="#6B6B6B"/>
<path d="M140.3 143.802V138.102H141.1L142.9 141.002C143.3 141.702 143.7 142.302 143.9 142.902C143.8 142.102 143.8 141.402 143.8 140.602V138.202H144.5V143.902H143.8L142 141.002C141.6 140.402 141.2 139.702 140.9 139.102C140.9 139.802 141 140.502 141 141.402V143.802H140.3Z" fill="#6B6B6B"/>
<path d="M147.7 138.1C148.1 138 148.5 138 149.1 138C149.8 138 150.4 138.2 150.7 138.5C151 138.8 151.2 139.2 151.2 139.7C151.2 140.2 151 140.6 150.8 140.9C150.4 141.3 149.8 141.5 149 141.5C148.8 141.5 148.6 141.5 148.4 141.4V143.7H147.7V138.1ZM148.5 140.9C148.7 140.9 148.9 141 149.1 141C150 141 150.5 140.6 150.5 139.8C150.5 139 150 138.7 149.1 138.7C148.8 138.7 148.5 138.7 148.4 138.8V140.9H148.5Z" fill="#6B6B6B"/>
<path d="M155.2 141.102H153V143.202H155.5V143.802H152.3V138.102H155.4V138.702H153V140.502H155.2V141.102Z" fill="#6B6B6B"/>
<path d="M156.4 138.1C156.8 138 157.3 138 157.8 138C158.6 138 159.1 138.1 159.5 138.5C159.8 138.8 160 139.1 160 139.6C160 140.4 159.5 140.9 158.9 141.1C159.3 141.3 159.6 141.7 159.7 142.3C159.9 143.1 160 143.6 160.1 143.9H159.3C159.2 143.7 159.1 143.2 158.9 142.5C158.7 141.7 158.4 141.4 157.8 141.4H157.1V143.9H156.4V138.1ZM157.2 140.7H158C158.8 140.7 159.3 140.3 159.3 139.6C159.3 138.9 158.8 138.5 158 138.5C157.6 138.5 157.4 138.5 157.3 138.6V140.7H157.2Z" fill="#6B6B6B"/>
<path d="M164 141.102H161.8V143.202H164.3V143.802H161V138.102H164.1V138.702H161.7V140.502H163.9V141.102H164Z" fill="#6B6B6B"/>
<path d="M164.8 143.302L168 138.702H165.1V138.102H169V138.502L165.8 143.102H169V143.702H164.8V143.302Z" fill="#6B6B6B"/>
<path d="M127.8 153.2L126.1 148H126.8L127.6 150.6C127.8 151.3 128 151.9 128.2 152.6C128.3 152 128.6 151.3 128.8 150.7L129.7 148.1H130.4L128.5 153.3H127.8V153.2Z" fill="#6B6B6B"/>
<path d="M131.1 151.397C131.1 152.297 131.7 152.697 132.4 152.697C132.9 152.697 133.2 152.597 133.4 152.497L133.5 152.997C133.3 153.097 132.8 153.197 132.2 153.197C131 153.197 130.3 152.397 130.3 151.297C130.3 150.197 131 149.297 132.1 149.297C133.3 149.297 133.7 150.397 133.7 151.097C133.7 151.197 133.7 151.297 133.7 151.397H131.1ZM133.2 150.897C133.2 150.497 133 149.797 132.2 149.797C131.5 149.797 131.2 150.397 131.1 150.897H133.2Z" fill="#6B6B6B"/>
<path d="M134.7 150.397C134.7 149.997 134.7 149.697 134.7 149.397H135.3V149.997C135.5 149.597 135.9 149.297 136.6 149.297C137.1 149.297 137.9 149.597 137.9 150.897V153.097H137.2V150.997C137.2 150.397 137 149.897 136.3 149.897C135.8 149.897 135.5 150.197 135.4 150.597C135.4 150.697 135.4 150.797 135.4 150.897V153.197H134.7V150.397Z" fill="#6B6B6B"/>
<path d="M141.7 152.997C141.5 153.097 141.1 153.197 140.6 153.197C139.5 153.197 138.7 152.397 138.7 151.297C138.7 150.097 139.5 149.297 140.7 149.297C141.1 149.297 141.5 149.397 141.7 149.497L141.5 149.997C141.3 149.897 141.1 149.797 140.7 149.797C139.8 149.797 139.4 150.397 139.4 151.197C139.4 152.097 140 152.597 140.7 152.597C141.1 152.597 141.3 152.497 141.5 152.397L141.7 152.997Z" fill="#6B6B6B"/>
<path d="M142.9 151.397C142.9 152.297 143.5 152.697 144.2 152.697C144.7 152.697 145 152.597 145.2 152.497L145.3 152.997C145.1 153.097 144.6 153.197 144 153.197C142.8 153.197 142.1 152.397 142.1 151.297C142.1 150.197 142.8 149.297 143.9 149.297C145.1 149.297 145.5 150.397 145.5 151.097C145.5 151.197 145.5 151.297 145.5 151.397H142.9ZM144.9 150.897C144.9 150.497 144.7 149.797 143.9 149.797C143.2 149.797 142.9 150.397 142.8 150.897H144.9Z" fill="#6B6B6B"/>
<path d="M146.2 150C146.2 149.7 146.4 149.5 146.7 149.5C147 149.5 147.2 149.7 147.2 150C147.2 150.3 147 150.5 146.7 150.5C146.4 150.5 146.2 150.3 146.2 150ZM146.2 152.8C146.2 152.5 146.4 152.3 146.7 152.3C147 152.3 147.2 152.5 147.2 152.8C147.2 153.1 147 153.3 146.7 153.3C146.4 153.3 146.2 153.1 146.2 152.8Z" fill="#6B6B6B"/>
<path d="M150.9 148.799L150 149.299L149.9 148.799L151 148.199H151.6V153.199H150.9V148.799Z" fill="#6B6B6B"/>
<path d="M156.3 148.598C156.2 148.598 156 148.598 155.8 148.598C154.7 148.798 154.2 149.598 154 150.398C154.2 150.098 154.7 149.798 155.2 149.798C156.1 149.798 156.7 150.398 156.7 151.398C156.7 152.298 156.1 153.198 155 153.198C153.9 153.198 153.2 152.398 153.2 151.098C153.2 150.098 153.6 149.298 154.1 148.798C154.5 148.398 155.1 148.098 155.7 148.098C155.9 148.098 156.1 148.098 156.2 148.098V148.598H156.3ZM156.1 151.498C156.1 150.798 155.7 150.298 155.1 150.298C154.7 150.298 154.3 150.598 154.1 150.898C154.1 150.998 154 151.098 154 151.198C154 151.998 154.4 152.598 155.1 152.598C155.8 152.698 156.1 152.298 156.1 151.498Z" fill="#6B6B6B"/>
<path d="M158.4 154.299C158.7 154.299 159 154.199 159.2 153.999C159.4 153.799 159.5 153.499 159.5 152.599V149.499H160.2V152.899C160.2 153.599 160.1 154.099 159.7 154.399C159.4 154.699 158.9 154.799 158.5 154.799L158.4 154.299ZM160.2 148.399C160.2 148.599 160 148.799 159.8 148.799C159.5 148.799 159.4 148.599 159.4 148.399C159.4 148.199 159.6 147.999 159.8 147.999C160 147.899 160.2 148.099 160.2 148.399Z" fill="#6B6B6B"/>
<path d="M164.4 152.2C164.4 152.6 164.4 152.9 164.4 153.2H163.8V152.6C163.6 152.9 163.2 153.3 162.5 153.3C161.9 153.3 161.2 153 161.2 151.7V149.5H161.9V151.6C161.9 152.3 162.1 152.8 162.7 152.8C163.2 152.8 163.5 152.5 163.6 152.2C163.6 152.1 163.7 152 163.7 151.9V149.6H164.4V152.2Z" fill="#6B6B6B"/>
<path d="M165.5 150.397C165.5 149.997 165.5 149.697 165.5 149.397H166.1V149.997C166.3 149.597 166.7 149.297 167.4 149.297C167.9 149.297 168.7 149.597 168.7 150.897V153.097H168V150.997C168 150.397 167.8 149.897 167.1 149.897C166.6 149.897 166.3 150.197 166.2 150.597C166.2 150.697 166.2 150.797 166.2 150.897V153.197H165.5V150.397Z" fill="#6B6B6B"/>
<path d="M169.7 152.797C169.7 152.497 169.9 152.297 170.2 152.297C170.5 152.297 170.7 152.497 170.7 152.797C170.7 153.097 170.5 153.297 170.2 153.297C169.9 153.297 169.7 153.097 169.7 152.797Z" fill="#6B6B6B"/>
<path d="M127.7 120.802L127.1 122.602H126.3L128.2 116.902H129.1L131 122.602H130.2L129.6 120.802H127.7ZM129.5 120.202L128.9 118.602C128.8 118.202 128.7 117.902 128.6 117.602C128.5 117.902 128.4 118.302 128.3 118.602L127.7 120.302H129.5V120.202Z" fill="#140603"/>
<path d="M135.8 122.401C135.5 122.501 135 122.701 134.3 122.701C132.7 122.701 131.5 121.701 131.5 119.801C131.5 118.001 132.7 116.801 134.5 116.801C135.2 116.801 135.7 117.001 135.9 117.101L135.7 117.701C135.4 117.601 135 117.501 134.5 117.501C133.2 117.501 132.3 118.401 132.3 119.901C132.3 121.301 133.1 122.201 134.5 122.201C134.9 122.201 135.4 122.101 135.7 122.001L135.8 122.401Z" fill="#140603"/>
<path d="M137.7 120.802L137.1 122.602H136.3L138.2 116.902H139.1L141 122.602H140.2L139.6 120.802H137.7ZM139.5 120.202L138.9 118.602C138.8 118.202 138.7 117.902 138.6 117.602C138.5 117.902 138.4 118.302 138.3 118.602L137.7 120.302H139.5V120.202Z" fill="#140603"/>
<path d="M141.9 116.901C142.3 116.801 142.9 116.801 143.5 116.801C144.6 116.801 145.3 117.001 145.8 117.501C146.3 118.001 146.6 118.601 146.6 119.501C146.6 120.401 146.3 121.201 145.8 121.701C145.3 122.201 144.4 122.501 143.3 122.501C142.8 122.501 142.3 122.501 142 122.401V116.901H141.9ZM142.7 122.001C142.9 122.001 143.2 122.001 143.4 122.001C145 122.001 145.8 121.101 145.8 119.601C145.8 118.301 145 117.401 143.5 117.401C143.1 117.401 142.8 117.401 142.6 117.501V122.001H142.7Z" fill="#140603"/>
<path d="M150.5 119.902H148.3V122.002H150.8V122.602H147.6V116.902H150.7V117.502H148.4V119.302H150.6V119.902H150.5Z" fill="#140603"/>
<path d="M156.5 120.102C156.5 119.302 156.4 118.302 156.4 117.602C156.2 118.302 156 119.002 155.7 119.802L154.7 122.602H154.1L153.2 119.902C152.9 119.102 152.7 118.402 152.5 117.702C152.5 118.402 152.4 119.402 152.4 120.202L152.2 122.602H151.5L151.9 116.902H152.8L153.8 119.702C154 120.402 154.2 121.002 154.4 121.602C154.5 121.002 154.7 120.402 155 119.702L156 116.902H156.9L157.3 122.602H156.6L156.5 120.102Z" fill="#140603"/>
<path d="M159.3 116.902V122.602H158.6V116.902H159.3Z" fill="#140603"/>
<path d="M161.5 120.802L160.9 122.602H160.1L162 116.902H162.9L164.8 122.602H164L163.4 120.802H161.5ZM163.3 120.202L162.7 118.602C162.6 118.202 162.5 117.902 162.4 117.602C162.3 117.902 162.2 118.302 162.1 118.602L161.5 120.302H163.3V120.202Z" fill="#140603"/>
<path d="M165.6 121.702C165.9 121.902 166.4 122.102 166.9 122.102C167.7 122.102 168.1 121.702 168.1 121.102C168.1 120.602 167.8 120.302 167 120.002C166.1 119.702 165.5 119.202 165.5 118.402C165.5 117.502 166.2 116.902 167.3 116.902C167.9 116.902 168.3 117.002 168.6 117.202L168.4 117.802C168.2 117.702 167.8 117.502 167.3 117.502C166.5 117.502 166.2 118.002 166.2 118.402C166.2 118.902 166.5 119.202 167.3 119.502C168.3 119.902 168.8 120.302 168.8 121.202C168.8 122.102 168.1 122.802 166.8 122.802C166.2 122.802 165.6 122.602 165.3 122.402L165.6 121.702Z" fill="#140603"/>
<path d="M172.4 117.502H170.7V116.902H174.9V117.502H173.2V122.602H172.5V117.502H172.4Z" fill="#140603"/>
<path d="M175.6 116.901C176 116.801 176.5 116.801 177 116.801C177.8 116.801 178.3 116.901 178.7 117.301C179 117.601 179.1 117.901 179.1 118.401C179.1 119.201 178.6 119.701 178 119.901C178.4 120.101 178.7 120.501 178.8 121.101C179 121.901 179.1 122.401 179.2 122.701H178.4C178.3 122.501 178.2 122.001 178 121.301C177.8 120.501 177.5 120.201 176.9 120.201H176.2V122.701H175.5V116.901H175.6ZM176.3 119.501H177.1C177.9 119.501 178.4 119.101 178.4 118.401C178.4 117.701 177.9 117.301 177.1 117.301C176.7 117.301 176.5 117.301 176.4 117.401V119.501H176.3Z" fill="#140603"/>
<path d="M180.9 116.902V122.602H180.2V116.902H180.9Z" fill="#140603"/>
<path d="M182.1 116.902H182.8V122.002H185.2V122.602H182V116.902H182.1Z" fill="#140603"/>
<path d="M189.8 122.401C189.5 122.501 189 122.701 188.3 122.701C186.7 122.701 185.5 121.701 185.5 119.801C185.5 118.001 186.7 116.801 188.5 116.801C189.2 116.801 189.7 117.001 189.9 117.101L189.7 117.701C189.4 117.601 189 117.501 188.5 117.501C187.2 117.501 186.3 118.401 186.3 119.901C186.3 121.301 187.1 122.201 188.5 122.201C188.9 122.201 189.4 122.101 189.7 122.001L189.8 122.401Z" fill="#140603"/>
<path d="M193.7 119.902H191.5V122.002H194V122.602H190.8V116.902H193.9V117.502H191.6V119.302H193.8V119.902H193.7Z" fill="#140603"/>
<path d="M293 164.698H99V101.898H293V164.698ZM104.3 159.398H287.7V107.198H104.3V159.398Z" fill="#FF4200"/>
<path d="M114.3 124.799C117.227 124.799 119.6 122.426 119.6 119.499C119.6 116.572 117.227 114.199 114.3 114.199C111.373 114.199 109 116.572 109 119.499C109 122.426 111.373 124.799 114.3 124.799Z" stroke="#972CE4" stroke-width="1.3267" stroke-miterlimit="10"/>
<path d="M114.3 122.598C116.012 122.598 117.4 121.211 117.4 119.498C117.4 117.786 116.012 116.398 114.3 116.398C112.588 116.398 111.2 117.786 111.2 119.498C111.2 121.211 112.588 122.598 114.3 122.598Z" fill="#972CE4"/>
</svg>
