<svg width="392" height="262" viewBox="0 0 392 262" fill="none" xmlns="http://www.w3.org/2000/svg">
<path d="M392 0H0V262H392V0Z" fill="#F6F6F6"/>
<path d="M325.4 250.802H66.5999C61.6999 250.802 57.7 246.802 57.7 241.902V20.0016C57.7 15.1016 61.6999 11.1016 66.5999 11.1016H325.4C330.3 11.1016 334.3 15.1016 334.3 20.0016V242.002C334.3 246.802 330.3 250.802 325.4 250.802Z" fill="white"/>
<path d="M325.4 251.701H66.5999C61.1999 251.701 56.8999 247.301 56.8999 242.001V20.0008C56.8999 14.6008 61.2999 10.3008 66.5999 10.3008H325.4C330.8 10.3008 335.1 14.7008 335.1 20.0008V242.001C335.1 247.301 330.8 251.701 325.4 251.701ZM66.5999 12.1008C62.1999 12.1008 58.5999 15.7008 58.5999 20.1008V242.001C58.5999 246.401 62.1999 250.001 66.5999 250.001H325.4C329.8 250.001 333.4 246.401 333.4 242.001V20.0008C333.4 15.6008 329.8 12.0008 325.4 12.0008H66.5999V12.1008Z" fill="#ECF1F5"/>
<path d="M83.8999 46.7V47C83.9999 47.7 83.6999 48.5 83.0999 49.3C82.4999 50 82.1999 50.5 82.1999 51.1C82.1999 51.8 82.5999 52.2 83.4999 52.2C83.9999 52.2 84.4999 52.1 84.8999 51.8L85.1999 52.7C84.6999 53 83.9999 53.2 83.2999 53.2C81.7999 53.2 81.0999 52.2 81.0999 51.2C81.0999 50.3 81.5999 49.6 82.2999 48.9C82.8999 48.2 83.0999 47.6 82.9999 46.9V46.6H83.8999V46.7ZM84.1999 44.8C84.1999 45.3 83.8999 45.6 83.3999 45.6C82.8999 45.6 82.5999 45.2 82.5999 44.8C82.5999 44.3 82.8999 44 83.3999 44C83.7999 44 84.1999 44.3 84.1999 44.8Z" fill="#140603"/>
<path d="M94.0999 51.8008C92.8999 51.5008 91.6999 51.1008 90.5999 50.8008C90.3999 50.7008 90.1999 50.7008 90.0999 50.7008C87.9999 50.6008 86.0999 49.0008 86.0999 46.1008C86.0999 43.2008 87.8999 41.3008 90.2999 41.3008C92.6999 41.3008 94.2999 43.2008 94.2999 45.9008C94.2999 48.2008 93.1999 49.7008 91.6999 50.2008V50.3008C92.5999 50.5008 93.5999 50.7008 94.2999 50.9008L94.0999 51.8008ZM93.0999 45.9008C93.0999 44.1008 92.1999 42.2008 90.1999 42.2008C88.1999 42.2008 87.2999 44.0008 87.2999 46.0008C87.2999 47.9008 88.2999 49.6008 90.1999 49.6008C92.0999 49.7008 93.0999 48.0008 93.0999 45.9008Z" fill="#140603"/>
<path d="M101.3 48.7C101.3 49.4 101.3 50 101.4 50.5H100.4L100.3 49.4C99.9998 49.9 99.2998 50.6 98.1998 50.6C97.1998 50.6 95.9998 50 95.9998 47.8V44H96.9998V47.6C96.9998 48.8 97.3998 49.7 98.3998 49.7C99.1998 49.7 99.6998 49.2 99.9998 48.6C100.1 48.4 100.1 48.2 100.1 48V44H101.3V48.7Z" fill="#140603"/>
<path d="M103.9 47.4992C103.9 49.0992 104.9 49.6992 106.1 49.6992C106.9 49.6992 107.5 49.5992 107.9 49.3992L108.1 50.1992C107.7 50.3992 107 50.5992 105.9 50.5992C103.9 50.5992 102.7 49.2992 102.7 47.2992C102.7 45.2992 103.9 43.7992 105.7 43.7992C107.8 43.7992 108.4 45.6992 108.4 46.8992C108.4 47.0992 108.4 47.2992 108.4 47.3992H103.9V47.4992ZM107.3 46.5992C107.3 45.7992 107 44.6992 105.7 44.6992C104.5 44.6992 104 45.7992 103.9 46.5992H107.3ZM107.6 41.1992L106 43.0992H105.2L106.4 41.1992H107.6Z" fill="#140603"/>
<path d="M112.8 46.1008C112.8 45.3008 112.8 44.6008 112.7 44.0008H113.8L113.9 45.1008C114.4 44.3008 115.1 43.8008 116.2 43.8008C117.8 43.8008 118.9 45.1008 118.9 47.1008C118.9 49.4008 117.5 50.6008 116 50.6008C115.1 50.6008 114.4 50.2008 114 49.6008V53.1008H112.8V46.1008ZM113.9 47.9008C113.9 48.1008 113.9 48.2008 114 48.4008C114.2 49.2008 114.9 49.8008 115.8 49.8008C117 49.8008 117.8 48.8008 117.8 47.3008C117.8 46.0008 117.1 44.9008 115.9 44.9008C115.1 44.9008 114.3 45.5008 114.1 46.4008C114.1 46.5008 114 46.7008 114 46.9008V47.9008H113.9Z" fill="#140603"/>
<path d="M124 50.4984L123.9 49.6984C123.5 50.1984 122.8 50.6984 121.9 50.6984C120.6 50.6984 119.9 49.7984 119.9 48.7984C119.9 47.1984 121.3 46.3984 123.8 46.3984V46.2984C123.8 45.7984 123.7 44.7984 122.3 44.7984C121.7 44.7984 121.1 44.9984 120.6 45.2984L120.3 44.4984C120.8 44.1984 121.6 43.8984 122.4 43.8984C124.4 43.8984 124.9 45.2984 124.9 46.4984V48.8984C124.9 49.4984 124.9 49.9984 125 50.4984H124ZM123.8 47.1984C122.5 47.1984 121.1 47.3984 121.1 48.6984C121.1 49.4984 121.6 49.7984 122.2 49.7984C123 49.7984 123.6 49.2984 123.8 48.6984C123.8 48.5984 123.9 48.3984 123.9 48.2984V47.1984H123.8Z" fill="#140603"/>
<path d="M132.4 44C132.4 44.5 132.3 45 132.3 45.8V49.6C132.3 51.1 132 52 131.4 52.6C130.8 53.2 129.9 53.4 129 53.4C128.2 53.4 127.4 53.2 126.8 52.9L127.1 52C127.5 52.3 128.2 52.5 129 52.5C130.2 52.5 131.1 51.9 131.1 50.2V49.5C130.7 50.1 130 50.6 129 50.6C127.4 50.6 126.2 49.2 126.2 47.4C126.2 45.2 127.6 44 129.1 44C130.2 44 130.8 44.6 131.1 45.1L131.2 44.1H132.4V44ZM131.2 46.6C131.2 46.4 131.2 46.2 131.1 46.1C130.9 45.4 130.3 44.9 129.5 44.9C128.4 44.9 127.6 45.9 127.6 47.3C127.6 48.6 128.2 49.6 129.5 49.6C130.2 49.6 130.9 49.1 131.1 48.4C131.2 48.2 131.2 48 131.2 47.8V46.6Z" fill="#140603"/>
<path d="M140.2 47.1984C140.2 49.5984 138.5 50.5984 137 50.5984C135.2 50.5984 133.9 49.2984 133.9 47.2984C133.9 45.0984 135.3 43.8984 137.1 43.8984C138.9 43.8984 140.2 45.1984 140.2 47.1984ZM135 47.2984C135 48.6984 135.8 49.7984 137 49.7984C138.1 49.7984 139 48.6984 139 47.2984C139 46.1984 138.5 44.7984 137.1 44.7984C135.7 44.7984 135 45.9984 135 47.2984Z" fill="#140603"/>
<path d="M148.9 49.4984C148.5 50.0984 147.8 50.6984 146.8 50.6984C145.3 50.6984 144.1 49.3984 144.1 47.3984C144.1 44.9984 145.7 43.8984 147 43.8984C148 43.8984 148.7 44.3984 149 44.9984V43.9984H150.1C150.1 44.4984 150.1 45.0984 150.1 45.7984V53.0984H148.9V49.4984ZM148.9 46.5984C148.9 46.3984 148.9 46.2984 148.8 46.0984C148.6 45.3984 148 44.7984 147.1 44.7984C145.9 44.7984 145.1 45.7984 145.1 47.2984C145.1 48.5984 145.7 49.6984 147 49.6984C147.8 49.6984 148.4 49.1984 148.7 48.3984C148.8 48.1984 148.8 47.9984 148.8 47.7984V46.5984H148.9Z" fill="#140603"/>
<path d="M157.4 48.7C157.4 49.4 157.4 50 157.5 50.5H156.5L156.4 49.4C156.1 49.9 155.4 50.6 154.3 50.6C153.3 50.6 152.1 50 152.1 47.8V44H153.3V47.6C153.3 48.8 153.7 49.7 154.7 49.7C155.5 49.7 156 49.2 156.3 48.6C156.4 48.4 156.4 48.2 156.4 48V44H157.6V48.7H157.4Z" fill="#140603"/>
<path d="M160.7 42.2C160.7 42.6 160.4 42.9 160 42.9C159.6 42.9 159.3 42.6 159.3 42.2C159.3 41.8 159.6 41.5 160 41.5C160.4 41.5 160.7 41.8 160.7 42.2ZM159.4 50.5V44H160.6V50.5H159.4Z" fill="#140603"/>
<path d="M163.2 47.5008C163.2 49.1008 164.2 49.7008 165.4 49.7008C166.2 49.7008 166.8 49.6008 167.2 49.4008L167.4 50.2008C167 50.4008 166.3 50.6008 165.2 50.6008C163.2 50.6008 162 49.3008 162 47.3008C162 45.3008 163.2 43.8008 165 43.8008C167.1 43.8008 167.7 45.7008 167.7 46.9008C167.7 47.1008 167.7 47.3008 167.7 47.4008H163.2V47.5008ZM166.6 46.6008C166.6 45.8008 166.3 44.7008 165 44.7008C163.8 44.7008 163.3 45.8008 163.2 46.6008H166.6Z" fill="#140603"/>
<path d="M169.2 45.9984C169.2 45.1984 169.2 44.5984 169.1 43.9984H170.1V45.2984H170.2C170.5 44.3984 171.2 43.8984 172 43.8984C172.1 43.8984 172.2 43.8984 172.3 43.8984V44.9984C172.2 44.9984 172.1 44.9984 171.9 44.9984C171.1 44.9984 170.5 45.5984 170.3 46.4984C170.3 46.6984 170.2 46.7984 170.2 46.9984V50.4984H169V45.9984H169.2Z" fill="#140603"/>
<path d="M174.1 47.5008C174.1 49.1008 175.1 49.7008 176.3 49.7008C177.1 49.7008 177.7 49.6008 178.1 49.4008L178.3 50.2008C177.9 50.4008 177.2 50.6008 176.1 50.6008C174.1 50.6008 172.9 49.3008 172.9 47.3008C172.9 45.3008 174.1 43.8008 175.9 43.8008C178 43.8008 178.6 45.7008 178.6 46.9008C178.6 47.1008 178.6 47.3008 178.6 47.4008H174.1V47.5008ZM177.5 46.6008C177.5 45.8008 177.2 44.7008 175.9 44.7008C174.7 44.7008 174.2 45.8008 174.1 46.6008H177.5Z" fill="#140603"/>
<path d="M180 49.2984C180.3 49.4984 181 49.7984 181.6 49.7984C182.5 49.7984 182.9 49.3984 182.9 48.7984C182.9 48.1984 182.6 47.8984 181.7 47.5984C180.5 47.1984 180 46.4984 180 45.7984C180 44.7984 180.8 43.8984 182.2 43.8984C182.9 43.8984 183.4 44.0984 183.8 44.2984L183.5 45.1984C183.2 44.9984 182.8 44.7984 182.2 44.7984C181.5 44.7984 181.1 45.1984 181.1 45.6984C181.1 46.1984 181.5 46.4984 182.3 46.7984C183.4 47.1984 184 47.7984 184 48.7984C184 49.8984 183.1 50.6984 181.6 50.6984C180.9 50.6984 180.2 50.4984 179.8 50.2984L180 49.2984Z" fill="#140603"/>
<path d="M188.3 45.9984C188.3 45.1984 188.3 44.5984 188.2 43.9984H189.2V45.2984H189.3C189.6 44.3984 190.3 43.8984 191.1 43.8984C191.2 43.8984 191.3 43.8984 191.4 43.8984V44.9984C191.3 44.9984 191.2 44.9984 191 44.9984C190.2 44.9984 189.6 45.5984 189.4 46.4984C189.4 46.6984 189.3 46.7984 189.3 46.9984V50.4984H188.1V45.9984H188.3Z" fill="#140603"/>
<path d="M193.2 47.5008C193.2 49.1008 194.2 49.7008 195.4 49.7008C196.2 49.7008 196.8 49.6008 197.2 49.4008L197.4 50.2008C197 50.4008 196.3 50.6008 195.2 50.6008C193.2 50.6008 192 49.3008 192 47.3008C192 45.3008 193.2 43.8008 195 43.8008C197.1 43.8008 197.7 45.7008 197.7 46.9008C197.7 47.1008 197.7 47.3008 197.7 47.4008H193.2V47.5008ZM196.6 46.6008C196.6 45.8008 196.3 44.7008 195 44.7008C193.8 44.7008 193.3 45.8008 193.2 46.6008H196.6Z" fill="#140603"/>
<path d="M202.8 50.4984L202.7 49.6984C202.3 50.1984 201.6 50.6984 200.7 50.6984C199.4 50.6984 198.7 49.7984 198.7 48.7984C198.7 47.1984 200.1 46.3984 202.6 46.3984V46.2984C202.6 45.7984 202.5 44.7984 201.1 44.7984C200.5 44.7984 199.9 44.9984 199.4 45.2984L199.1 44.4984C199.6 44.1984 200.4 43.8984 201.2 43.8984C203.2 43.8984 203.7 45.2984 203.7 46.4984V48.8984C203.7 49.4984 203.7 49.9984 203.8 50.4984H202.8ZM202.6 47.1984C201.3 47.1984 199.9 47.3984 199.9 48.6984C199.9 49.4984 200.4 49.7984 201 49.7984C201.8 49.7984 202.4 49.2984 202.6 48.6984C202.6 48.5984 202.7 48.3984 202.7 48.2984V47.1984H202.6Z" fill="#140603"/>
<path d="M205.7 41H206.9V50.5H205.7V41Z" fill="#140603"/>
<path d="M210.1 42.2C210.1 42.6 209.8 42.9 209.4 42.9C209 42.9 208.7 42.6 208.7 42.2C208.7 41.8 209 41.5 209.4 41.5C209.8 41.5 210.1 41.8 210.1 42.2ZM208.8 50.5V44H210V50.5H208.8Z" fill="#140603"/>
<path d="M211.2 49.8L214.1 46C214.4 45.7 214.6 45.3 214.9 45H211.4V44H216.3V44.7L213.4 48.5C213.1 48.9 212.9 49.2 212.6 49.5H216.4V50.4H211.1V49.8H211.2Z" fill="#140603"/>
<path d="M221.3 50.4984L221.2 49.6984C220.8 50.1984 220.1 50.6984 219.2 50.6984C217.9 50.6984 217.2 49.7984 217.2 48.7984C217.2 47.1984 218.6 46.3984 221.1 46.3984V46.2984C221.1 45.7984 221 44.7984 219.6 44.7984C219 44.7984 218.4 44.9984 217.9 45.2984L217.6 44.4984C218.1 44.1984 218.9 43.8984 219.7 43.8984C221.7 43.8984 222.2 45.2984 222.2 46.4984V48.8984C222.2 49.4984 222.2 49.9984 222.3 50.4984H221.3ZM221.1 47.1984C219.8 47.1984 218.4 47.3984 218.4 48.6984C218.4 49.4984 218.9 49.7984 219.5 49.7984C220.3 49.7984 220.9 49.2984 221.1 48.6984C221.1 48.5984 221.2 48.3984 221.2 48.2984V47.1984H221.1Z" fill="#140603"/>
<path d="M224.1 45.9984C224.1 45.1984 224.1 44.5984 224 43.9984H225V45.2984H225.1C225.4 44.3984 226.1 43.8984 226.9 43.8984C227 43.8984 227.1 43.8984 227.2 43.8984V44.9984C227.1 44.9984 227 44.9984 226.8 44.9984C226 44.9984 225.4 45.5984 225.2 46.4984C225.2 46.6984 225.1 46.7984 225.1 46.9984V50.4984H223.9V45.9984H224.1Z" fill="#140603"/>
<path d="M229.4 47.8984V47.5984C229.3 46.8984 229.6 46.0984 230.2 45.2984C230.8 44.5984 231.1 44.0984 231.1 43.4984C231.1 42.7984 230.7 42.3984 229.8 42.2984C229.3 42.2984 228.8 42.4984 228.4 42.6984L228.1 41.8984C228.5 41.5984 229.3 41.3984 230 41.3984C231.5 41.3984 232.2 42.3984 232.2 43.3984C232.2 44.2984 231.7 44.9984 231 45.6984C230.4 46.3984 230.2 46.9984 230.2 47.6984V47.9984H229.4V47.8984ZM229.1 49.7984C229.1 49.2984 229.4 48.9984 229.9 48.9984C230.4 48.9984 230.7 49.2984 230.7 49.7984C230.7 50.2984 230.4 50.5984 229.9 50.5984C229.4 50.5984 229.1 50.2984 229.1 49.7984Z" fill="#140603"/>
<path d="M83.5998 76.8023H81.4998V78.7023H83.7998V79.3023H80.7998V73.9023H83.6998V74.5023H81.4998V76.2023H83.5998V76.8023Z" fill="#140603"/>
<path d="M84.6997 73.6016H85.3997V79.2016H84.6997V73.6016Z" fill="#140603"/>
<path d="M87.2998 74.4026C87.2998 74.6026 87.0998 74.8026 86.8998 74.8026C86.6998 74.8026 86.4998 74.6026 86.4998 74.4026C86.4998 74.2026 86.6998 74.0026 86.8998 74.0026C87.1998 73.9026 87.2998 74.1026 87.2998 74.4026ZM86.5998 79.3026V75.5026H87.2998V79.3026H86.5998Z" fill="#140603"/>
<path d="M91.6997 75.4023C91.6997 75.7023 91.6997 76.0023 91.6997 76.5023V78.7023C91.6997 79.6023 91.4997 80.1023 91.1997 80.5023C90.7997 80.8023 90.2997 81.0023 89.7997 81.0023C89.2997 81.0023 88.7997 80.9023 88.4997 80.7023L88.6997 80.2023C88.9997 80.4023 89.3997 80.5023 89.7997 80.5023C90.4997 80.5023 90.9997 80.1023 90.9997 79.2023V78.8023C90.7997 79.2023 90.3997 79.4023 89.7997 79.4023C88.7997 79.4023 88.1997 78.6023 88.1997 77.5023C88.1997 76.2023 89.0997 75.5023 89.8997 75.5023C90.5997 75.5023 90.8997 75.9023 91.0997 76.2023V75.6023H91.6997V75.4023ZM90.9997 77.0023C90.9997 76.9023 90.9997 76.8023 90.9997 76.7023C90.8997 76.3023 90.4997 76.0023 89.9997 76.0023C89.2997 76.0023 88.8997 76.6023 88.8997 77.5023C88.8997 78.3023 89.2997 78.9023 89.9997 78.9023C90.3997 78.9023 90.7997 78.6023 90.9997 78.2023C90.9997 78.1023 91.0997 77.9023 91.0997 77.8023V77.0023H90.9997Z" fill="#140603"/>
<path d="M93.1998 77.5008C93.1998 78.4008 93.7998 78.8008 94.4998 78.8008C94.9998 78.8008 95.2998 78.7008 95.5998 78.6008L95.6998 79.1008C95.4998 79.2008 94.9998 79.3008 94.3998 79.3008C93.1998 79.3008 92.4998 78.5008 92.4998 77.4008C92.4998 76.2008 93.1998 75.3008 94.2998 75.3008C95.5998 75.3008 95.8998 76.4008 95.8998 77.1008C95.8998 77.2008 95.8998 77.4008 95.8998 77.4008H93.1998V77.5008ZM95.2998 77.0008C95.2998 76.6008 95.0998 75.9008 94.2998 75.9008C93.5998 75.9008 93.2998 76.6008 93.1998 77.0008H95.2998Z" fill="#140603"/>
<path d="M101.7 78.2031C101.7 78.6031 101.7 78.9031 101.7 79.2031H101.1V78.6031C100.9 78.9031 100.5 79.3031 99.7998 79.3031C99.1998 79.3031 98.4998 79.0031 98.4998 77.6031V75.3031H99.1998V77.4031C99.1998 78.1031 99.3998 78.6031 100.1 78.6031C100.6 78.6031 100.9 78.3031 101 78.0031C101 77.9031 101.1 77.8031 101.1 77.6031V75.2031H101.8V78.2031H101.7Z" fill="#140603"/>
<path d="M102.9 76.5023C102.9 76.1023 102.9 75.8023 102.9 75.5023H103.5V76.1023C103.7 75.7023 104.1 75.4023 104.8 75.4023C105.3 75.4023 106.2 75.7023 106.2 77.0023V79.3023H105.5V77.1023C105.5 76.5023 105.3 76.0023 104.6 76.0023C104.1 76.0023 103.8 76.3023 103.7 76.7023C103.7 76.8023 103.7 76.9023 103.7 77.0023V79.3023H103V76.5023H102.9Z" fill="#140603"/>
<path d="M109.4 79.3023L109.3 78.8023C109.1 79.1023 108.7 79.4023 108.1 79.4023C107.3 79.4023 106.9 78.9023 106.9 78.3023C106.9 77.4023 107.7 76.9023 109.2 76.9023V76.8023C109.2 76.5023 109.1 75.9023 108.3 75.9023C107.9 75.9023 107.6 76.0023 107.3 76.2023L107.1 75.7023C107.4 75.5023 107.9 75.4023 108.4 75.4023C109.6 75.4023 109.9 76.2023 109.9 77.0023V78.4023C109.9 78.7023 109.9 79.1023 110 79.3023H109.4ZM109.3 77.3023C108.5 77.3023 107.7 77.4023 107.7 78.2023C107.7 78.7023 108 78.9023 108.4 78.9023C108.9 78.9023 109.2 78.6023 109.3 78.3023C109.3 78.2023 109.3 78.1023 109.3 78.1023V77.3023Z" fill="#140603"/>
<path d="M115.6 79.1008C115.4 79.2008 115 79.3008 114.5 79.3008C113.3 79.3008 112.6 78.5008 112.6 77.3008C112.6 76.1008 113.4 75.3008 114.7 75.3008C115.1 75.3008 115.5 75.4008 115.7 75.5008L115.5 76.0008C115.3 75.9008 115.1 75.8008 114.7 75.8008C113.8 75.8008 113.3 76.5008 113.3 77.3008C113.3 78.2008 113.9 78.7008 114.6 78.7008C115 78.7008 115.3 78.6008 115.5 78.5008L115.6 79.1008Z" fill="#140603"/>
<path d="M118.5 79.3023L118.4 78.8023C118.2 79.1023 117.8 79.4023 117.2 79.4023C116.4 79.4023 116 78.9023 116 78.3023C116 77.4023 116.8 76.9023 118.3 76.9023V76.8023C118.3 76.5023 118.2 75.9023 117.4 75.9023C117 75.9023 116.7 76.0023 116.4 76.2023L116.2 75.7023C116.5 75.5023 117 75.4023 117.5 75.4023C118.7 75.4023 119 76.2023 119 77.0023V78.4023C119 78.7023 119 79.1023 119.1 79.3023H118.5ZM118.4 77.3023C117.6 77.3023 116.8 77.4023 116.8 78.2023C116.8 78.7023 117.1 78.9023 117.5 78.9023C118 78.9023 118.3 78.6023 118.4 78.3023C118.4 78.2023 118.4 78.1023 118.4 78.1023V77.3023Z" fill="#140603"/>
<path d="M121 74.3008V75.4008H122V76.0008H121V78.0008C121 78.5008 121.1 78.7008 121.5 78.7008C121.7 78.7008 121.8 78.7008 121.9 78.7008V79.2008C121.8 79.3008 121.6 79.3008 121.3 79.3008C121 79.3008 120.7 79.2008 120.5 79.0008C120.3 78.8008 120.2 78.5008 120.2 78.0008V76.0008H119.6V75.5008H120.2V74.6008L121 74.3008Z" fill="#140603"/>
<path d="M123.1 77.5008C123.1 78.4008 123.7 78.8008 124.4 78.8008C124.9 78.8008 125.2 78.7008 125.5 78.6008L125.6 79.1008C125.4 79.2008 124.9 79.3008 124.3 79.3008C123.1 79.3008 122.4 78.5008 122.4 77.4008C122.4 76.2008 123.1 75.3008 124.2 75.3008C125.5 75.3008 125.8 76.4008 125.8 77.1008C125.8 77.2008 125.8 77.4008 125.8 77.4008H123.1V77.5008ZM125.2 77.0008C125.2 76.6008 125 75.9008 124.2 75.9008C123.5 75.9008 123.2 76.6008 123.1 77.0008H125.2Z" fill="#140603"/>
<path d="M130.1 75.4023C130.1 75.7023 130.1 76.0023 130.1 76.5023V78.7023C130.1 79.6023 129.9 80.1023 129.6 80.5023C129.2 80.8023 128.7 81.0023 128.2 81.0023C127.7 81.0023 127.2 80.9023 126.9 80.7023L127.1 80.2023C127.4 80.4023 127.8 80.5023 128.2 80.5023C128.9 80.5023 129.4 80.1023 129.4 79.2023V78.8023C129.2 79.2023 128.8 79.4023 128.2 79.4023C127.2 79.4023 126.6 78.6023 126.6 77.5023C126.6 76.2023 127.5 75.5023 128.3 75.5023C129 75.5023 129.3 75.9023 129.5 76.2023V75.6023H130.1V75.4023ZM129.3 77.0023C129.3 76.9023 129.3 76.8023 129.3 76.7023C129.2 76.3023 128.8 76.0023 128.3 76.0023C127.6 76.0023 127.2 76.6023 127.2 77.5023C127.2 78.3023 127.6 78.9023 128.3 78.9023C128.7 78.9023 129.1 78.6023 129.3 78.2023C129.3 78.1023 129.4 77.9023 129.4 77.8023V77.0023H129.3Z" fill="#140603"/>
<path d="M134.7 77.3008C134.7 78.7008 133.7 79.3008 132.8 79.3008C131.8 79.3008 131 78.5008 131 77.3008C131 76.0008 131.8 75.3008 132.9 75.3008C133.9 75.4008 134.7 76.2008 134.7 77.3008ZM131.6 77.4008C131.6 78.2008 132.1 78.9008 132.8 78.9008C133.5 78.9008 134 78.3008 134 77.4008C134 76.7008 133.7 75.9008 132.8 75.9008C131.9 75.9008 131.6 76.6008 131.6 77.4008Z" fill="#140603"/>
<path d="M135.5 76.6023C135.5 76.1023 135.5 75.8023 135.5 75.4023H136.1V76.2023C136.3 75.7023 136.7 75.4023 137.2 75.4023C137.3 75.4023 137.3 75.4023 137.4 75.4023V76.0023C137.3 76.0023 137.3 76.0023 137.2 76.0023C136.7 76.0023 136.4 76.4023 136.3 76.9023C136.3 77.0023 136.3 77.1023 136.3 77.2023V79.3023H135.6V76.6023H135.5Z" fill="#140603"/>
<path d="M139.6 73.8008L138.6 74.9008H138.1L138.8 73.8008H139.6ZM138.2 79.3008V75.5008H138.9V79.3008H138.2Z" fill="#140603"/>
<path d="M142.2 79.3023L142.1 78.8023C141.9 79.1023 141.5 79.4023 140.9 79.4023C140.1 79.4023 139.7 78.9023 139.7 78.3023C139.7 77.4023 140.5 76.9023 142 76.9023V76.8023C142 76.5023 141.9 75.9023 141.1 75.9023C140.7 75.9023 140.4 76.0023 140.1 76.2023L139.9 75.7023C140.2 75.5023 140.7 75.4023 141.2 75.4023C142.4 75.4023 142.7 76.2023 142.7 77.0023V78.4023C142.7 78.7023 142.7 79.1023 142.8 79.3023H142.2ZM142.1 77.3023C141.3 77.3023 140.5 77.4023 140.5 78.2023C140.5 78.7023 140.8 78.9023 141.2 78.9023C141.7 78.9023 142 78.6023 142.1 78.3023C142.1 78.2023 142.1 78.1023 142.1 78.1023V77.3023Z" fill="#140603"/>
<path d="M84.3999 90.7992C84.1999 90.8992 83.6999 90.9992 82.9999 90.9992C81.4999 90.9992 80.3999 90.0992 80.3999 88.3992C80.3999 86.7992 81.4999 85.6992 83.0999 85.6992C83.7999 85.6992 84.1999 85.7992 84.2999 85.8992L84.0999 86.3992C83.7999 86.2992 83.4999 86.1992 82.9999 86.1992C81.7999 86.1992 80.9999 86.9992 80.9999 88.3992C80.9999 89.6992 81.6999 90.4992 82.9999 90.4992C83.3999 90.4992 83.7999 90.3992 84.0999 90.2992L84.3999 90.7992Z" fill="#6B6B6B"/>
<path d="M88.5999 89.0992C88.5999 90.4992 87.5999 91.0992 86.6999 91.0992C85.6999 91.0992 84.8999 90.3992 84.8999 89.1992C84.8999 87.8992 85.6999 87.1992 86.7999 87.1992C87.7999 87.1992 88.5999 87.9992 88.5999 89.0992ZM85.5999 89.0992C85.5999 89.8992 86.0999 90.4992 86.6999 90.4992C87.3999 90.4992 87.7999 89.8992 87.7999 88.9992C87.7999 88.3992 87.4999 87.5992 86.6999 87.5992C85.8999 87.6992 85.5999 88.3992 85.5999 89.0992Z" fill="#6B6B6B"/>
<path d="M89.3999 85.5H90.0999V91H89.3999V85.5Z" fill="#6B6B6B"/>
<path d="M91.6 89.2992C91.6 90.1992 92.2 90.5992 92.9 90.5992C93.4 90.5992 93.7 90.4992 93.9 90.3992L94 90.8992C93.8 90.9992 93.3 91.0992 92.8 91.0992C91.6 91.0992 91 90.2992 91 89.1992C91 88.0992 91.7 87.1992 92.8 87.1992C94 87.1992 94.4 88.2992 94.4 88.9992C94.4 89.0992 94.4 89.1992 94.4 89.2992H91.6ZM93.6 88.7992C93.6 88.3992 93.4 87.6992 92.7 87.6992C92 87.6992 91.7 88.2992 91.7 88.7992H93.6Z" fill="#6B6B6B"/>
<path d="M98.3999 87.2992C98.3999 87.5992 98.3999 87.8992 98.3999 88.2992V90.4992C98.3999 91.3992 98.1999 91.8992 97.8999 92.1992C97.4999 92.4992 96.9999 92.5992 96.4999 92.5992C96.0999 92.5992 95.5999 92.4992 95.2999 92.2992L95.4999 91.7992C95.6999 91.9992 96.0999 92.0992 96.5999 92.0992C97.2999 92.0992 97.7999 91.6992 97.7999 90.7992V90.3992C97.4999 90.6992 96.9999 90.9992 96.4999 90.9992C95.5999 90.9992 94.8999 90.1992 94.8999 89.1992C94.8999 87.8992 95.6999 87.1992 96.5999 87.1992C97.2999 87.1992 97.5999 87.4992 97.7999 87.8992V87.2992H98.3999ZM97.6999 88.6992C97.6999 88.5992 97.6999 88.4992 97.6999 88.3992C97.5999 87.9992 97.1999 87.6992 96.6999 87.6992C95.9999 87.6992 95.5999 88.1992 95.5999 89.0992C95.5999 89.7992 95.9999 90.3992 96.6999 90.3992C97.0999 90.3992 97.4999 90.0992 97.5999 89.6992C97.5999 89.5992 97.6999 89.4992 97.6999 89.2992V88.6992Z" fill="#6B6B6B"/>
<path d="M100.2 86.2008C100.2 86.4008 99.9999 86.6008 99.7999 86.6008C99.5999 86.6008 99.3999 86.4008 99.3999 86.2008C99.3999 86.0008 99.5999 85.8008 99.7999 85.8008C99.9999 85.8008 100.2 86.0008 100.2 86.2008ZM99.3999 91.0008V87.2008H100.1V91.0008H99.3999Z" fill="#6B6B6B"/>
<path d="M104.6 89.0992C104.6 90.4992 103.6 91.0992 102.7 91.0992C101.7 91.0992 100.9 90.3992 100.9 89.1992C100.9 87.8992 101.7 87.1992 102.8 87.1992C103.9 87.1992 104.6 87.9992 104.6 89.0992ZM101.7 89.0992C101.7 89.8992 102.2 90.4992 102.8 90.4992C103.5 90.4992 103.9 89.8992 103.9 88.9992C103.9 88.3992 103.6 87.5992 102.8 87.5992C102 87.6992 101.7 88.3992 101.7 89.0992Z" fill="#6B6B6B"/>
<path d="M105.4 90.3016C105.6 90.4016 106 90.6016 106.3 90.6016C106.8 90.6016 107 90.4016 107 90.0016C107 89.7016 106.8 89.5016 106.3 89.3016C105.6 89.1016 105.3 88.7016 105.3 88.2016C105.3 87.6016 105.8 87.1016 106.6 87.1016C107 87.1016 107.3 87.2016 107.5 87.3016L107.3 87.8016C107.2 87.7016 106.9 87.6016 106.5 87.6016C106.1 87.6016 105.9 87.8016 105.9 88.1016C105.9 88.4016 106.1 88.5016 106.6 88.7016C107.3 88.9016 107.6 89.3016 107.6 89.8016C107.6 90.5016 107.1 90.9016 106.2 90.9016C105.8 90.9016 105.4 90.8016 105.1 90.6016L105.4 90.3016Z" fill="#6B6B6B"/>
<path d="M94.9 59.9023H80.7V61.6023H94.9V59.9023Z" fill="#FF364F"/>
<path d="M312.6 95.3008H80.7998V96.2008H312.6V95.3008Z" fill="#BCBCBC"/>
<path d="M312.6 135.102H80.7998V136.002H312.6V135.102Z" fill="#BCBCBC"/>
<path d="M312.5 174.199H196.5V175.099H312.5V174.199Z" fill="#BCBCBC"/>
<path d="M179.2 174.199H80.2V175.099H179.2V174.199Z" fill="#BCBCBC"/>
<path d="M83.5998 116.603H81.4998V118.503H83.7998V119.103H80.7998V113.703H83.6998V114.303H81.4998V116.003H83.5998V116.603Z" fill="#140603"/>
<path d="M84.6999 116.303C84.6999 115.903 84.6999 115.603 84.6999 115.303H85.2999V115.903C85.4999 115.503 85.8999 115.203 86.4999 115.203C86.9999 115.203 87.3999 115.503 87.5999 116.003C87.6999 115.803 87.8999 115.603 87.9999 115.503C88.1999 115.303 88.4999 115.203 88.8999 115.203C89.3999 115.203 90.1999 115.503 90.1999 116.903V119.203H89.4999V117.003C89.4999 116.303 89.1999 115.803 88.6999 115.803C88.2999 115.803 87.9999 116.103 87.8999 116.403C87.8999 116.503 87.7999 116.603 87.7999 116.703V119.103H87.0999V116.803C87.0999 116.203 86.7999 115.703 86.2999 115.703C85.8999 115.703 85.4999 116.003 85.3999 116.403C85.3999 116.503 85.2999 116.603 85.2999 116.703V119.003H84.5999V116.303H84.6999Z" fill="#140603"/>
<path d="M91.2998 116.503C91.2998 116.003 91.2998 115.603 91.2998 115.203H91.8998V115.903C92.1998 115.403 92.5998 115.203 93.2998 115.203C94.1998 115.203 94.8998 116.003 94.8998 117.203C94.8998 118.603 94.0998 119.303 93.1998 119.303C92.6998 119.303 92.1998 119.103 91.9998 118.703V120.803H91.2998V116.503ZM91.9998 117.503C91.9998 117.603 91.9998 117.703 91.9998 117.803C92.0998 118.303 92.4998 118.603 92.9998 118.603C93.6998 118.603 94.1998 118.003 94.1998 117.103C94.1998 116.303 93.7998 115.703 93.0998 115.703C92.5998 115.703 92.1998 116.003 91.9998 116.603C91.9998 116.703 91.9998 116.803 91.9998 116.903V117.503Z" fill="#140603"/>
<path d="M95.7998 116.501C95.7998 116.001 95.7998 115.701 95.7998 115.301H96.3998V116.101C96.5998 115.601 96.9998 115.301 97.4998 115.301C97.5998 115.301 97.5998 115.301 97.6998 115.301V116.001C97.5998 116.001 97.5998 116.001 97.4998 116.001C96.9998 116.001 96.6998 116.401 96.5998 116.901C96.5998 117.001 96.5998 117.101 96.5998 117.201V119.301H95.8998V116.501H95.7998Z" fill="#140603"/>
<path d="M98.6998 117.302C98.6998 118.202 99.2998 118.602 99.9998 118.602C100.5 118.602 100.8 118.502 101.1 118.402L101.2 118.902C101 119.002 100.5 119.102 99.8998 119.102C98.6998 119.102 97.9998 118.302 97.9998 117.202C97.9998 116.002 98.6998 115.102 99.7998 115.102C101.1 115.102 101.4 116.202 101.4 116.902C101.4 117.002 101.4 117.202 101.4 117.202H98.6998V117.302ZM100.8 116.802C100.8 116.402 100.6 115.702 99.7998 115.702C99.0998 115.702 98.7998 116.402 98.6998 116.802H100.8Z" fill="#140603"/>
<path d="M102.2 118.403C102.4 118.503 102.8 118.703 103.1 118.703C103.6 118.703 103.8 118.403 103.8 118.103C103.8 117.803 103.6 117.603 103.1 117.403C102.4 117.203 102.1 116.803 102.1 116.303C102.1 115.703 102.6 115.203 103.4 115.203C103.8 115.203 104.1 115.303 104.3 115.403L104.1 115.903C103.9 115.803 103.7 115.703 103.3 115.703C102.9 115.703 102.7 115.903 102.7 116.203C102.7 116.503 102.9 116.703 103.4 116.903C104.1 117.203 104.4 117.503 104.4 118.103C104.4 118.803 103.9 119.303 103 119.303C102.6 119.303 102.2 119.203 101.9 119.003L102.2 118.403Z" fill="#140603"/>
<path d="M107.6 119.103L107.5 118.603C107.3 118.903 106.9 119.203 106.3 119.203C105.5 119.203 105.1 118.703 105.1 118.103C105.1 117.203 105.9 116.703 107.4 116.703V116.603C107.4 116.303 107.3 115.703 106.5 115.703C106.1 115.703 105.8 115.803 105.5 116.003L105.3 115.503C105.6 115.303 106.1 115.203 106.6 115.203C107.8 115.203 108.1 116.003 108.1 116.803V118.203C108.1 118.503 108.1 118.903 108.2 119.103H107.6ZM107.5 117.103C106.7 117.103 105.9 117.203 105.9 118.003C105.9 118.503 106.2 118.703 106.6 118.703C107.1 118.703 107.4 118.403 107.5 118.103C107.5 118.003 107.5 117.903 107.5 117.903V117.103Z" fill="#140603"/>
<path d="M114.5 117.102C114.5 118.502 113.5 119.102 112.6 119.102C111.6 119.102 110.8 118.302 110.8 117.102C110.8 115.802 111.6 115.102 112.7 115.102C113.7 115.202 114.5 116.002 114.5 117.102ZM111.4 117.202C111.4 118.002 111.9 118.702 112.6 118.702C113.3 118.702 113.8 118.102 113.8 117.202C113.8 116.502 113.5 115.702 112.6 115.702C111.8 115.702 111.4 116.502 111.4 117.202Z" fill="#140603"/>
<path d="M117.8 114.203C117.8 114.403 117.6 114.603 117.4 114.603C117.2 114.603 117 114.403 117 114.203C117 114.003 117.2 113.803 117.4 113.803C117.6 113.703 117.8 113.903 117.8 114.203ZM117 119.103V115.303H117.7V119.103H117Z" fill="#140603"/>
<path d="M118.9 116.303C118.9 115.903 118.9 115.603 118.9 115.303H119.5V115.903C119.7 115.503 120.1 115.203 120.8 115.203C121.3 115.203 122.2 115.503 122.2 116.803V119.103H121.5V116.903C121.5 116.303 121.3 115.803 120.6 115.803C120.1 115.803 119.8 116.103 119.7 116.503C119.7 116.603 119.7 116.703 119.7 116.803V119.103H119V116.303H118.9Z" fill="#140603"/>
<path d="M123.2 118.403C123.4 118.503 123.8 118.703 124.1 118.703C124.6 118.703 124.8 118.403 124.8 118.103C124.8 117.803 124.6 117.603 124.1 117.403C123.4 117.203 123.1 116.803 123.1 116.303C123.1 115.703 123.6 115.203 124.4 115.203C124.8 115.203 125.1 115.303 125.3 115.403L125.1 115.903C124.9 115.803 124.7 115.703 124.3 115.703C123.9 115.703 123.7 115.903 123.7 116.203C123.7 116.503 123.9 116.703 124.4 116.903C125.1 117.203 125.4 117.503 125.4 118.103C125.4 118.803 124.9 119.303 124 119.303C123.6 119.303 123.2 119.203 122.9 119.003L123.2 118.403Z" fill="#140603"/>
<path d="M127.3 114.203V115.303H128.3V115.803H127.3V117.903C127.3 118.403 127.4 118.603 127.8 118.603C128 118.603 128.1 118.603 128.2 118.603V119.103C128.1 119.203 127.9 119.203 127.6 119.203C127.3 119.203 127 119.103 126.8 118.903C126.6 118.703 126.5 118.403 126.5 117.903V115.803H126V115.303H126.6V114.403L127.3 114.203Z" fill="#140603"/>
<path d="M129.9 114.203C129.9 114.403 129.7 114.603 129.5 114.603C129.3 114.603 129.1 114.403 129.1 114.203C129.1 114.003 129.3 113.803 129.5 113.803C129.7 113.703 129.9 113.903 129.9 114.203ZM129.1 119.103V115.303H129.8V119.103H129.1Z" fill="#140603"/>
<path d="M131.8 114.203V115.303H132.8V115.803H131.8V117.903C131.8 118.403 131.9 118.603 132.3 118.603C132.5 118.603 132.6 118.603 132.7 118.603V119.103C132.6 119.203 132.4 119.203 132.1 119.203C131.8 119.203 131.5 119.103 131.3 118.903C131.1 118.703 131 118.403 131 117.903V115.803H130.4V115.303H131V114.403L131.8 114.203Z" fill="#140603"/>
<path d="M136.8 118.102C136.8 118.502 136.8 118.802 136.8 119.102H136.2V118.502C136 118.802 135.6 119.202 134.9 119.202C134.3 119.202 133.6 118.902 133.6 117.502V115.202H134.3V117.302C134.3 118.002 134.5 118.502 135.2 118.502C135.7 118.502 136 118.202 136.1 117.902C136.1 117.802 136.2 117.702 136.2 117.502V115.102H136.9V118.102H136.8Z" fill="#140603"/>
<path d="M140.7 119.003C140.5 119.103 140.1 119.203 139.6 119.203C138.4 119.203 137.7 118.403 137.7 117.203C137.7 116.003 138.5 115.203 139.8 115.203C140.2 115.203 140.6 115.303 140.8 115.403L140.6 115.903C140.4 115.803 140.2 115.703 139.8 115.703C138.9 115.703 138.4 116.403 138.4 117.203C138.4 118.103 139 118.603 139.7 118.603C140.1 118.603 140.4 118.503 140.6 118.403L140.7 119.003Z" fill="#140603"/>
<path d="M142.3 114.203C142.3 114.403 142.1 114.603 141.9 114.603C141.7 114.603 141.5 114.403 141.5 114.203C141.5 114.003 141.7 113.803 141.9 113.803C142.1 113.703 142.3 113.903 142.3 114.203ZM141.5 119.103V115.303H142.2V119.103H141.5Z" fill="#140603"/>
<path d="M146.8 117.102C146.8 118.502 145.8 119.102 144.9 119.102C143.9 119.102 143.1 118.302 143.1 117.102C143.1 115.802 143.9 115.102 145 115.102C146.1 115.202 146.8 116.002 146.8 117.102ZM143.8 117.202C143.8 118.002 144.3 118.702 145 118.702C145.7 118.702 146.2 118.102 146.2 117.202C146.2 116.502 145.9 115.702 145 115.702C144.1 115.702 143.8 116.502 143.8 117.202ZM146 113.602L145 114.702H144.5L145.2 113.602H146Z" fill="#140603"/>
<path d="M147.7 116.303C147.7 115.903 147.7 115.603 147.7 115.303H148.3V115.903C148.5 115.503 148.9 115.203 149.6 115.203C150.1 115.203 151 115.503 151 116.803V119.103H150.3V116.903C150.3 116.303 150.1 115.803 149.4 115.803C148.9 115.803 148.6 116.103 148.5 116.503C148.5 116.603 148.5 116.703 148.5 116.803V119.103H147.8V116.303H147.7Z" fill="#140603"/>
<path d="M195.3 153.1C195.6 153 196.2 153 196.6 153C197.3 153 197.8 153.1 198.2 153.4C198.5 153.6 198.6 154 198.6 154.4C198.6 155.1 198.2 155.6 197.6 155.8C198 155.9 198.3 156.3 198.4 156.9C198.6 157.6 198.7 158.2 198.8 158.4H198.1C198 158.2 197.9 157.8 197.7 157.1C197.5 156.4 197.3 156.1 196.6 156.1H196V158.4H195.3V153.1ZM196 155.5H196.7C197.4 155.5 197.9 155.1 197.9 154.5C197.9 153.8 197.4 153.5 196.7 153.5C196.4 153.5 196.1 153.5 196 153.6V155.5Z" fill="#140603"/>
<path d="M200.3 153V156.2C200.3 157.4 200.8 157.9 201.5 157.9C202.3 157.9 202.8 157.4 202.8 156.2V153H203.5V156.1C203.5 157.7 202.6 158.4 201.5 158.4C200.4 158.4 199.6 157.8 199.6 156.1V153H200.3Z" fill="#140603"/>
<path d="M208.5 158.2C208.2 158.3 207.7 158.5 207.1 158.5C205.6 158.5 204.5 157.5 204.5 155.8C204.5 154.1 205.6 153 207.3 153C208 153 208.4 153.1 208.6 153.2L208.4 153.8C208.1 153.7 207.8 153.6 207.3 153.6C206 153.6 205.2 154.4 205.2 155.8C205.2 157.1 206 158 207.3 158C207.7 158 208.2 157.9 208.4 157.8L208.5 158.2Z" fill="#140603"/>
<path d="M214.5 156.398C214.5 157.798 213.5 158.398 212.6 158.398C211.6 158.398 210.8 157.598 210.8 156.398C210.8 155.098 211.6 154.398 212.7 154.398C213.7 154.398 214.5 155.198 214.5 156.398ZM211.4 156.398C211.4 157.198 211.9 157.898 212.6 157.898C213.3 157.898 213.8 157.298 213.8 156.398C213.8 155.698 213.5 154.898 212.6 154.898C211.8 154.898 211.4 155.698 211.4 156.398Z" fill="#140603"/>
<path d="M217 153.1C217.4 153 217.9 153 218.5 153C219.5 153 220.2 153.2 220.7 153.7C221.2 154.1 221.5 154.8 221.5 155.6C221.5 156.5 221.2 157.2 220.7 157.7C220.2 158.2 219.4 158.5 218.3 158.5C217.8 158.5 217.4 158.5 217 158.4V153.1ZM217.7 157.8C217.9 157.8 218.1 157.8 218.4 157.8C219.9 157.8 220.7 157 220.7 155.5C220.7 154.2 220 153.4 218.5 153.4C218.1 153.4 217.9 153.4 217.7 153.5V157.8Z" fill="#140603"/>
<path d="M222.3 158.4V153H223.1L224.8 155.7C225.2 156.3 225.5 156.9 225.8 157.4C225.7 156.7 225.7 156 225.7 155.2V153H226.4V158.4H225.7L224 155.7C223.6 155.1 223.3 154.5 223 153.9C223 154.6 223.1 155.2 223.1 156.1V158.4H222.3Z" fill="#140603"/>
<path d="M228.3 153V158.4H227.6V153H228.3Z" fill="#140603"/>
<path d="M234.6 156.398C234.6 157.798 233.6 158.398 232.7 158.398C231.7 158.398 230.9 157.598 230.9 156.398C230.9 155.098 231.7 154.398 232.8 154.398C233.9 154.398 234.6 155.198 234.6 156.398ZM231.5 156.398C231.5 157.198 232 157.898 232.7 157.898C233.4 157.898 233.9 157.298 233.9 156.398C233.9 155.698 233.6 154.898 232.7 154.898C231.9 154.898 231.5 155.698 231.5 156.398Z" fill="#140603"/>
<path d="M240.9 158.2C240.6 158.3 240.1 158.5 239.5 158.5C238 158.5 236.9 157.5 236.9 155.8C236.9 154.1 238 153 239.7 153C240.4 153 240.8 153.1 241 153.2L240.8 153.8C240.5 153.7 240.2 153.6 239.7 153.6C238.4 153.6 237.6 154.4 237.6 155.8C237.6 157.1 238.4 158 239.7 158C240.1 158 240.6 157.9 240.8 157.8L240.9 158.2Z" fill="#140603"/>
<path d="M244.6 155.8H242.5V157.7H244.8V158.3H241.8V153H244.7V153.6H242.5V155.3H244.6V155.8Z" fill="#140603"/>
<path d="M81.8 153.299H80.2V152.699H84.2V153.299H82.6V158.099H81.9V153.299H81.8Z" fill="#140603"/>
<path d="M85.3999 153.199C85.3999 153.399 85.1999 153.599 84.9999 153.599C84.7999 153.599 84.5999 153.399 84.5999 153.199C84.5999 152.999 84.7999 152.799 84.9999 152.799C85.1999 152.699 85.3999 152.899 85.3999 153.199ZM84.5999 158.099V154.299H85.2999V158.099H84.5999Z" fill="#140603"/>
<path d="M86.5 155.499C86.5 154.999 86.5 154.599 86.5 154.199H87.1V154.899C87.4 154.399 87.8 154.199 88.5 154.199C89.4 154.199 90.1 154.999 90.1 156.199C90.1 157.599 89.3 158.299 88.4 158.299C87.9 158.299 87.4 158.099 87.2 157.699V159.799H86.5V155.499ZM87.2 156.499C87.2 156.599 87.2 156.699 87.2 156.799C87.3 157.299 87.7 157.599 88.2 157.599C88.9 157.599 89.4 156.999 89.4 156.099C89.4 155.299 89 154.699 88.3 154.699C87.8 154.699 87.4 154.999 87.2 155.599C87.2 155.699 87.2 155.799 87.2 155.899V156.499Z" fill="#140603"/>
<path d="M94.5 156.199C94.5 157.599 93.5 158.199 92.6 158.199C91.6 158.199 90.8 157.399 90.8 156.199C90.8 154.899 91.6 154.199 92.7 154.199C93.7 154.199 94.5 154.999 94.5 156.199ZM91.4 156.199C91.4 156.999 91.9 157.699 92.6 157.699C93.3 157.699 93.8 157.099 93.8 156.199C93.8 155.499 93.5 154.699 92.6 154.699C91.8 154.699 91.4 155.499 91.4 156.199Z" fill="#140603"/>
<path d="M100.4 152.5V157.2C100.4 157.5 100.4 157.9 100.4 158.2H99.7999V157.5C99.5999 157.9 99.0999 158.3 98.4999 158.3C97.5999 158.3 96.8999 157.5 96.8999 156.3C96.8999 155 97.6999 154.2 98.5999 154.2C99.1999 154.2 99.5999 154.5 99.7999 154.8V152.5H100.4ZM99.6999 155.8C99.6999 155.7 99.6999 155.6 99.6999 155.5C99.5999 155.1 99.1999 154.7 98.6999 154.7C97.9999 154.7 97.4999 155.3 97.4999 156.2C97.4999 157 97.8999 157.6 98.5999 157.6C99.0999 157.6 99.4999 157.3 99.5999 156.8C99.5999 156.7 99.5999 156.6 99.5999 156.5V155.8H99.6999Z" fill="#140603"/>
<path d="M101.9 156.302C101.9 157.202 102.5 157.602 103.2 157.602C103.7 157.602 104 157.502 104.3 157.402L104.4 157.902C104.2 158.002 103.7 158.102 103.1 158.102C101.9 158.102 101.2 157.302 101.2 156.202C101.2 155.002 101.9 154.102 103 154.102C104.3 154.102 104.6 155.202 104.6 155.902C104.6 156.002 104.6 156.202 104.6 156.202H101.9V156.302ZM104 155.802C104 155.402 103.8 154.702 103 154.702C102.3 154.702 102 155.402 101.9 155.802H104Z" fill="#140603"/>
<path d="M107.1 157.302C107.4 157.502 107.9 157.602 108.3 157.602C109 157.602 109.4 157.202 109.4 156.702C109.4 156.202 109.1 155.902 108.4 155.602C107.5 155.302 107 154.802 107 154.102C107 153.302 107.7 152.602 108.7 152.602C109.2 152.602 109.6 152.702 109.9 152.902L109.7 153.502C109.5 153.402 109.2 153.202 108.7 153.202C108 153.202 107.7 153.602 107.7 154.002C107.7 154.502 108 154.702 108.8 155.002C109.7 155.302 110.2 155.802 110.2 156.602C110.2 157.402 109.6 158.102 108.3 158.102C107.8 158.102 107.2 157.902 106.9 157.802L107.1 157.302Z" fill="#140603"/>
<path d="M111.5 156.302C111.5 157.202 112.1 157.602 112.8 157.602C113.3 157.602 113.6 157.502 113.9 157.402L114 157.902C113.8 158.002 113.3 158.102 112.7 158.102C111.5 158.102 110.8 157.302 110.8 156.202C110.8 155.002 111.5 154.102 112.6 154.102C113.9 154.102 114.2 155.202 114.2 155.902C114.2 156.002 114.2 156.202 114.2 156.202H111.5V156.302ZM113.6 155.802C113.6 155.402 113.4 154.702 112.6 154.702C111.9 154.702 111.6 155.402 111.5 155.802H113.6Z" fill="#140603"/>
<path d="M115.1 155.501C115.1 155.001 115.1 154.701 115.1 154.301H115.7V155.101C115.9 154.601 116.3 154.301 116.8 154.301C116.9 154.301 116.9 154.301 117 154.301V155.001C116.9 155.001 116.9 155.001 116.8 155.001C116.3 155.001 116 155.401 115.9 155.901C115.9 156.001 115.9 156.101 115.9 156.201V158.301H115.2V155.501H115.1Z" fill="#140603"/>
<path d="M118.2 154.301L119 156.501C119.1 156.801 119.2 157.201 119.3 157.501C119.4 157.201 119.5 156.901 119.6 156.501L120.3 154.301H121L119.5 158.101H118.8L117.3 154.301H118.2Z" fill="#140603"/>
<path d="M122.5 153.199C122.5 153.399 122.3 153.599 122.1 153.599C121.9 153.599 121.7 153.399 121.7 153.199C121.7 152.999 121.9 152.799 122.1 152.799C122.4 152.699 122.5 152.899 122.5 153.199ZM121.8 158.099V154.299H122.5V158.099H121.8Z" fill="#140603"/>
<path d="M126.4 157.999C126.2 158.099 125.8 158.199 125.3 158.199C124.1 158.199 123.4 157.399 123.4 156.199C123.4 154.999 124.2 154.199 125.5 154.199C125.9 154.199 126.3 154.299 126.5 154.399L126.3 154.899C126.1 154.799 125.9 154.699 125.5 154.699C124.6 154.699 124.1 155.399 124.1 156.199C124.1 157.099 124.7 157.599 125.4 157.599C125.8 157.599 126.1 157.499 126.3 157.399L126.4 157.999Z" fill="#140603"/>
<path d="M128 153.199C128 153.399 127.8 153.599 127.6 153.599C127.4 153.599 127.2 153.399 127.2 153.199C127.2 152.999 127.4 152.799 127.6 152.799C127.8 152.699 128 152.899 128 153.199ZM127.2 158.099V154.299H127.9V158.099H127.2Z" fill="#140603"/>
<path d="M132.5 156.199C132.5 157.599 131.5 158.199 130.6 158.199C129.6 158.199 128.8 157.399 128.8 156.199C128.8 154.899 129.6 154.199 130.7 154.199C131.8 154.199 132.5 154.999 132.5 156.199ZM129.5 156.199C129.5 156.999 130 157.699 130.7 157.699C131.4 157.699 131.9 157.099 131.9 156.199C131.9 155.499 131.6 154.699 130.7 154.699C129.8 154.699 129.5 155.499 129.5 156.199Z" fill="#140603"/>
<path d="M207.3 164.699V165.199L205 169.899H204.3L206.5 165.299H204V164.699H207.3Z" fill="#8E8E8E"/>
<path d="M209.5 165.299L208.6 165.799L208.5 165.299L209.6 164.699H210.2V169.899H209.5V165.299Z" fill="#8E8E8E"/>
<path d="M215.5 164.699V165.199L213.2 169.899H212.5L214.7 165.299H212.2V164.699H215.5Z" fill="#8E8E8E"/>
<path d="M218.3 169.799V168.399H215.9V167.999L218.2 164.699H219V167.899H219.7V168.399H219V169.799H218.3ZM218.3 167.899V166.199C218.3 165.899 218.3 165.699 218.3 165.399C218.1 165.699 218 165.899 217.9 166.199L216.6 167.999H218.3V167.899Z" fill="#8E8E8E"/>
<path d="M221.8 165.299L220.9 165.799L220.8 165.299L221.9 164.699H222.5V169.899H221.8V165.299Z" fill="#8E8E8E"/>
<path d="M227.4 165.298H225.4L225.2 166.598C225.3 166.598 225.4 166.598 225.6 166.598C226 166.598 226.4 166.698 226.7 166.898C227.1 167.098 227.4 167.598 227.4 168.198C227.4 169.198 226.6 169.998 225.5 169.998C224.9 169.998 224.5 169.798 224.2 169.698L224.4 169.198C224.6 169.298 225 169.498 225.5 169.498C226.2 169.498 226.7 169.098 226.7 168.398C226.7 167.698 226.2 167.298 225.2 167.298C224.9 167.298 224.7 167.298 224.5 167.398L224.8 164.898H227.3V165.298H227.4Z" fill="#8E8E8E"/>
<path d="M228.6 169C228.8 169.1 229.3 169.3 229.7 169.3C230.6 169.3 230.9 168.7 230.9 168.3C230.9 167.6 230.2 167.3 229.6 167.3H229.2V166.8H229.6C230.1 166.8 230.8 166.5 230.8 165.9C230.8 165.5 230.5 165.1 229.9 165.1C229.5 165.1 229.1 165.3 228.9 165.4L228.7 164.9C229 164.7 229.5 164.5 230.1 164.5C231.1 164.5 231.6 165.1 231.6 165.7C231.6 166.2 231.3 166.7 230.6 166.9C231.2 167 231.8 167.5 231.8 168.2C231.8 169 231.2 169.8 229.9 169.8C229.3 169.8 228.8 169.6 228.6 169.4V169Z" fill="#8E8E8E"/>
<path d="M235.9 167.2C235.9 169 235.2 169.9 234.1 169.9C233.1 169.9 232.4 169 232.4 167.2C232.4 165.5 233.1 164.5 234.2 164.5C235.3 164.6 235.9 165.6 235.9 167.2ZM233.1 167.3C233.1 168.6 233.5 169.4 234.1 169.4C234.8 169.4 235.2 168.6 235.2 167.2C235.2 165.9 234.9 165.1 234.2 165.1C233.5 165.1 233.1 165.9 233.1 167.3Z" fill="#8E8E8E"/>
<path d="M81.6999 168.204L81.0999 169.904H80.3999L82.1999 164.504H82.9999L84.7999 169.904H84.0999L83.4999 168.204H81.6999ZM83.3999 167.604L82.8999 166.104C82.7999 165.804 82.6999 165.404 82.5999 165.104C82.4999 165.404 82.3999 165.704 82.2999 166.104L81.7999 167.704H83.3999V167.604Z" fill="#6B6B6B"/>
<path d="M89.2998 169.704C88.9998 169.804 88.4998 170.004 87.8998 170.004C86.3998 170.004 85.2998 169.004 85.2998 167.304C85.2998 165.604 86.3998 164.504 88.0998 164.504C88.7998 164.504 89.1998 164.604 89.3998 164.704L89.1998 165.304C88.8998 165.204 88.5998 165.104 88.0998 165.104C86.7998 165.104 85.9998 165.904 85.9998 167.304C85.9998 168.604 86.7998 169.504 88.0998 169.504C88.4998 169.504 88.9998 169.404 89.1998 169.304L89.2998 169.704Z" fill="#6B6B6B"/>
<path d="M91 168.204L90.4 169.904H89.7L91.5 164.504H92.3L94.1 169.904H93.4L92.8 168.204H91ZM92.8 167.604L92.3 166.104C92.2 165.804 92.1 165.404 92 165.104C91.9 165.404 91.8 165.704 91.7 166.104L91.2 167.704H92.8V167.604Z" fill="#6B6B6B"/>
<path d="M95 164.604C95.4 164.504 95.9 164.504 96.5 164.504C97.5 164.504 98.2 164.704 98.7 165.204C99.2 165.604 99.5 166.304 99.5 167.104C99.5 168.004 99.2 168.704 98.7 169.204C98.2 169.704 97.4 170.004 96.3 170.004C95.8 170.004 95.4 170.004 95 169.904V164.604ZM95.7 169.304C95.9 169.304 96.1 169.304 96.4 169.304C97.9 169.304 98.7 168.504 98.7 167.004C98.7 165.704 98 164.904 96.5 164.904C96.1 164.904 95.9 164.904 95.7 165.004V169.304Z" fill="#6B6B6B"/>
<path d="M103.1 167.302H101V169.202H103.3V169.802H100.3V164.402H103.2V165.002H101V166.702H103.1V167.302Z" fill="#6B6B6B"/>
<path d="M108.8 167.502C108.8 166.802 108.7 165.902 108.7 165.202C108.5 165.802 108.3 166.502 108 167.202L107.1 169.802H106.6L105.7 167.202C105.4 166.402 105.2 165.802 105.1 165.102C105.1 165.802 105 166.702 105 167.502L104.9 169.802H104.2L104.6 164.402H105.5L106.4 167.002C106.6 167.702 106.8 168.202 106.9 168.802C107 168.302 107.2 167.702 107.5 167.002L108.5 164.402H109.4L109.7 169.802H109L108.8 167.502Z" fill="#6B6B6B"/>
<path d="M111.3 164.504V169.904H110.6V164.504H111.3Z" fill="#6B6B6B"/>
<path d="M113.4 168.204L112.8 169.904H112.1L113.9 164.504H114.7L116.5 169.904H115.8L115.2 168.204H113.4ZM115.1 167.604L114.6 166.104C114.5 165.804 114.4 165.404 114.3 165.104C114.2 165.404 114.1 165.704 114 166.104L113.5 167.704H115.1V167.604Z" fill="#6B6B6B"/>
<path d="M98.2 220.4L96.5 215H97.2L98 217.6C98.2 218.3 98.4 219 98.6 219.6C98.8 219 99 218.3 99.2 217.6L100.1 215H100.8L98.9 220.4H98.2Z" fill="#140603"/>
<path d="M104.7 218.5C104.7 219.9 103.7 220.5 102.8 220.5C101.8 220.5 101 219.7 101 218.5C101 217.2 101.8 216.5 102.9 216.5C103.9 216.5 104.7 217.3 104.7 218.5ZM101.6 218.5C101.6 219.3 102.1 220 102.8 220C103.5 220 104 219.4 104 218.5C104 217.8 103.7 217 102.8 217C101.9 217 101.6 217.8 101.6 218.5Z" fill="#140603"/>
<path d="M105.6 214.801H106.3V220.401H105.6V214.801Z" fill="#140603"/>
<path d="M107.7 216.602L108.5 218.802C108.6 219.102 108.7 219.502 108.8 219.802C108.9 219.502 109 219.202 109.1 218.802L109.8 216.602H110.5L109 220.402H108.3L106.8 216.602H107.7Z" fill="#140603"/>
<path d="M111.6 218.602C111.6 219.502 112.2 219.902 112.9 219.902C113.4 219.902 113.7 219.802 114 219.702L114.1 220.202C113.9 220.302 113.4 220.402 112.8 220.402C111.6 220.402 110.9 219.602 110.9 218.502C110.9 217.302 111.6 216.402 112.7 216.402C114 216.402 114.3 217.502 114.3 218.202C114.3 218.302 114.3 218.502 114.3 218.502H111.6V218.602ZM113.6 218.102C113.6 217.702 113.4 217.002 112.6 217.002C111.9 217.002 111.6 217.702 111.5 218.102H113.6Z" fill="#140603"/>
<path d="M115.2 217.802C115.2 217.302 115.2 217.002 115.2 216.602H115.8V217.402C116 216.902 116.4 216.602 116.9 216.602C117 216.602 117 216.602 117.1 216.602V217.302C117 217.302 117 217.302 116.9 217.302C116.4 217.302 116.1 217.702 116 218.202C116 218.302 116 218.402 116 218.502V220.602H115.3V217.802H115.2Z" fill="#140603"/>
<path d="M257.9 219.501C257.6 219.601 257.1 219.801 256.5 219.801C255 219.801 253.9 218.801 253.9 217.101C253.9 215.401 255 214.301 256.7 214.301C257.4 214.301 257.8 214.401 258 214.501L257.8 215.101C257.5 215.001 257.2 214.901 256.7 214.901C255.4 214.901 254.6 215.701 254.6 217.101C254.6 218.401 255.4 219.301 256.7 219.301C257.1 219.301 257.6 219.201 257.8 219.101L257.9 219.501Z" fill="#FF031D"/>
<path d="M262.1 217.699C262.1 219.099 261.1 219.699 260.2 219.699C259.2 219.699 258.4 218.899 258.4 217.699C258.4 216.399 259.2 215.699 260.3 215.699C261.3 215.699 262.1 216.599 262.1 217.699ZM259 217.799C259 218.599 259.5 219.299 260.2 219.299C260.9 219.299 261.4 218.699 261.4 217.799C261.4 217.099 261.1 216.299 260.2 216.299C259.4 216.299 259 216.999 259 217.799Z" fill="#FF031D"/>
<path d="M263 216.901C263 216.501 263 216.201 263 215.901H263.6V216.501C263.8 216.101 264.2 215.801 264.9 215.801C265.4 215.801 266.3 216.101 266.3 217.401V219.701H265.6V217.501C265.6 216.901 265.4 216.401 264.7 216.401C264.2 216.401 263.9 216.701 263.8 217.101C263.8 217.201 263.8 217.301 263.8 217.401V219.701H263V216.901Z" fill="#FF031D"/>
<path d="M268.2 214.699V215.799H269.2V216.299H268.2V218.399C268.2 218.899 268.3 219.099 268.7 219.099C268.9 219.099 269 219.099 269.1 219.099V219.599C269 219.699 268.8 219.699 268.5 219.699C268.2 219.699 267.9 219.599 267.7 219.399C267.5 219.199 267.4 218.899 267.4 218.399V216.299H266.8V215.799H267.4V214.899L268.2 214.699Z" fill="#FF031D"/>
<path d="M270.8 214.801C270.8 215.001 270.6 215.201 270.4 215.201C270.2 215.201 270 215.001 270 214.801C270 214.601 270.2 214.401 270.4 214.401C270.6 214.301 270.8 214.501 270.8 214.801ZM270 219.701V215.901H270.7V219.701H270Z" fill="#FF031D"/>
<path d="M271.8 216.901C271.8 216.501 271.8 216.201 271.8 215.901H272.4V216.501C272.6 216.101 273 215.801 273.7 215.801C274.2 215.801 275.1 216.101 275.1 217.401V219.701H274.4V217.501C274.4 216.901 274.2 216.401 273.5 216.401C273 216.401 272.7 216.701 272.6 217.101C272.6 217.201 272.6 217.301 272.6 217.401V219.701H271.9V216.901H271.8Z" fill="#FF031D"/>
<path d="M279.5 218.602C279.5 219.002 279.5 219.302 279.5 219.602H278.9V219.002C278.7 219.302 278.3 219.702 277.6 219.702C277 219.702 276.3 219.402 276.3 218.002V215.702H277V217.802C277 218.502 277.2 219.002 277.9 219.002C278.4 219.002 278.7 218.702 278.8 218.402C278.8 218.302 278.9 218.202 278.9 218.002V215.602H279.6V218.602H279.5Z" fill="#FF031D"/>
<path d="M282.8 219.701L282.7 219.201C282.5 219.501 282.1 219.801 281.5 219.801C280.7 219.801 280.3 219.301 280.3 218.701C280.3 217.801 281.1 217.301 282.6 217.301V217.201C282.6 216.901 282.5 216.301 281.7 216.301C281.3 216.301 281 216.401 280.7 216.601L280.5 216.101C280.8 215.901 281.3 215.801 281.8 215.801C283 215.801 283.3 216.601 283.3 217.401V218.801C283.3 219.101 283.3 219.501 283.4 219.701H282.8ZM282.7 217.701C281.9 217.701 281.1 217.801 281.1 218.601C281.1 219.101 281.4 219.301 281.8 219.301C282.3 219.301 282.6 219.001 282.7 218.701C282.7 218.601 282.7 218.501 282.7 218.501V217.701Z" fill="#FF031D"/>
<path d="M284.5 217.001C284.5 216.501 284.5 216.201 284.5 215.801H285.1V216.601C285.3 216.101 285.7 215.801 286.2 215.801C286.3 215.801 286.3 215.801 286.4 215.801V216.501C286.3 216.501 286.3 216.501 286.2 216.501C285.7 216.501 285.4 216.901 285.3 217.401C285.3 217.501 285.3 217.601 285.3 217.701V219.801H284.6V217.001H284.5Z" fill="#FF031D"/>
<path d="M304 89.9016L301.2 87.1016C301 86.9016 301 86.6016 301.2 86.5016C301.4 86.3016 301.7 86.3016 301.8 86.5016L304.3 89.0016L306.8 86.5016C307 86.3016 307.3 86.3016 307.4 86.5016C307.6 86.7016 307.6 87.0016 307.4 87.1016L304.6 89.9016C304.5 90.0016 304.4 90.0016 304.3 90.0016C304.2 90.0016 304.1 89.9016 304 89.9016Z" fill="#9E42E1"/>
<path d="M175.7 169.702L172.9 166.902C172.7 166.702 172.7 166.402 172.9 166.302C173.1 166.102 173.4 166.102 173.5 166.302L176 168.802L178.5 166.302C178.7 166.102 179 166.102 179.1 166.302C179.3 166.502 179.3 166.802 179.1 166.902L176.3 169.702C176.2 169.802 176.1 169.802 176 169.802C175.9 169.802 175.7 169.802 175.7 169.702Z" fill="#9E42E1"/>
<path d="M83.9 222.199C84 222.299 84.3 222.299 84.4 222.199C84.5 222.099 84.5 221.799 84.4 221.699L81.9 219.199H90.3C90.5 219.199 90.7 218.999 90.7 218.799C90.7 218.599 90.5 218.399 90.3 218.399H81.9L84.4 215.899C84.5 215.799 84.5 215.499 84.4 215.399C84.3 215.299 84 215.299 83.9 215.399L80.7 218.599C80.6 218.699 80.6 218.999 80.7 219.099L83.9 222.199Z" fill="#6B6B6B"/>
<path d="M301.7 227.899C307.554 227.899 312.3 223.153 312.3 217.299C312.3 211.445 307.554 206.699 301.7 206.699C295.846 206.699 291.1 211.445 291.1 217.299C291.1 223.153 295.846 227.899 301.7 227.899Z" fill="#FF031D"/>
<path d="M303.1 214.501C303 214.401 302.8 214.401 302.7 214.501C302.6 214.601 302.6 214.801 302.7 214.901L304.8 217.001H298C297.8 217.001 297.7 217.101 297.7 217.301C297.7 217.501 297.8 217.601 298 217.601H304.8L302.7 219.701C302.6 219.801 302.6 220.001 302.7 220.101C302.8 220.201 303 220.201 303.1 220.101L305.6 217.601C305.7 217.501 305.7 217.301 305.6 217.201L303.1 214.501Z" fill="white"/>
<path d="M82.5999 129.303L82.0999 130.903H81.3999L83.1999 125.703H83.9999L85.7999 130.903H84.9999L84.3999 129.303H82.5999ZM84.2999 128.703L83.7999 127.203C83.6999 126.903 83.5999 126.503 83.4999 126.203C83.3999 126.503 83.2999 126.803 83.1999 127.103L82.6999 128.603H84.2999V128.703Z" fill="#6B6B6B"/>
<path d="M90.0999 130.702C89.7999 130.802 89.2999 130.902 88.6999 130.902C87.1999 130.902 86.0999 130.002 86.0999 128.302C86.0999 126.702 87.1999 125.602 88.8999 125.602C89.5999 125.602 89.9999 125.702 90.1999 125.802L89.9999 126.302C89.6999 126.202 89.3999 126.102 88.8999 126.102C87.6999 126.102 86.7999 126.902 86.7999 128.302C86.7999 129.602 87.4999 130.402 88.7999 130.402C89.1999 130.402 89.5999 130.302 89.8999 130.202L90.0999 130.702Z" fill="#6B6B6B"/>
<path d="M91.7999 129.303L91.2999 130.903H90.5999L92.3999 125.703H93.1999L94.9999 130.903H94.2999L93.6999 129.303H91.7999ZM93.5999 128.703L93.0999 127.203C92.9999 126.903 92.8999 126.503 92.7999 126.203C92.6999 126.503 92.5999 126.803 92.4999 127.103L91.9999 128.603H93.5999V128.703Z" fill="#6B6B6B"/>
<path d="M95.8 125.702C96.2 125.602 96.7 125.602 97.2 125.602C98.2 125.602 98.9 125.802 99.3 126.302C99.8 126.702 100 127.302 100 128.202C100 129.102 99.7 129.802 99.2 130.202C98.7 130.702 97.9 131.002 96.9 131.002C96.4 131.002 96 131.002 95.7 130.902V125.702H95.8ZM96.4 130.402C96.6 130.402 96.8 130.402 97.1 130.402C98.6 130.402 99.3 129.602 99.3 128.202C99.3 127.002 98.6 126.202 97.2 126.202C96.8 126.202 96.6 126.202 96.4 126.302V130.402Z" fill="#6B6B6B"/>
<path d="M103.7 128.501H101.7V130.401H104V131.001H101V125.801H103.8V126.401H101.6V128.101H103.6V128.501H103.7Z" fill="#6B6B6B"/>
<path d="M109.3 128.602C109.3 127.902 109.2 127.002 109.2 126.302C109 126.902 108.8 127.602 108.5 128.302L107.6 130.802H107L106.1 128.302C105.8 127.602 105.6 126.902 105.5 126.302C105.5 127.002 105.4 127.802 105.4 128.602L105.3 130.802H104.7L105.1 125.602H106L106.9 128.102C107.1 128.702 107.3 129.302 107.4 129.902C107.5 129.402 107.7 128.802 108 128.102L108.9 125.602H109.8L110.1 130.802H109.4L109.3 128.602Z" fill="#6B6B6B"/>
<path d="M111.8 125.703V130.903H111.1V125.703H111.8Z" fill="#6B6B6B"/>
<path d="M113.8 129.303L113.3 130.903H112.6L114.4 125.703H115.2L117 130.903H116.3L115.7 129.303H113.8ZM115.5 128.703L115 127.203C114.9 126.903 114.8 126.503 114.7 126.203C114.6 126.503 114.5 126.803 114.4 127.103L113.9 128.603H115.5V128.703Z" fill="#6B6B6B"/>
<path d="M117.7 130.102C118 130.302 118.5 130.402 118.9 130.402C119.6 130.402 120 130.002 120 129.502C120 129.002 119.7 128.702 119 128.502C118.1 128.202 117.6 127.802 117.6 127.002C117.6 126.202 118.3 125.602 119.3 125.602C119.8 125.602 120.2 125.702 120.5 125.902L120.3 126.402C120.1 126.302 119.8 126.202 119.3 126.202C118.6 126.202 118.3 126.602 118.3 127.002C118.3 127.502 118.6 127.702 119.3 128.002C120.2 128.302 120.6 128.802 120.6 129.502C120.6 130.302 120 131.002 118.8 131.002C118.3 131.002 117.7 130.902 117.5 130.702L117.7 130.102Z" fill="#6B6B6B"/>
<path d="M123.9 126.303H122.3V125.703H126.2V126.303H124.6V131.003H123.9V126.303Z" fill="#6B6B6B"/>
<path d="M126.8 125.702C127.1 125.602 127.6 125.602 128.1 125.602C128.8 125.602 129.3 125.702 129.6 126.002C129.9 126.202 130 126.602 130 127.002C130 127.702 129.6 128.102 129 128.302C129.4 128.402 129.6 128.802 129.8 129.402C130 130.102 130.1 130.602 130.2 130.802H129.5C129.4 130.702 129.3 130.202 129.1 129.602C128.9 128.902 128.7 128.602 128 128.602H127.4V130.902H126.7V125.702H126.8ZM127.5 128.102H128.2C128.9 128.102 129.4 127.702 129.4 127.102C129.4 126.402 128.9 126.102 128.2 126.102C127.9 126.102 127.6 126.102 127.5 126.202V128.102Z" fill="#6B6B6B"/>
<path d="M131.7 125.703V130.903H131V125.703H131.7Z" fill="#6B6B6B"/>
<path d="M132.9 125.703H133.6V130.403H135.9V131.003H133V125.703H132.9Z" fill="#6B6B6B"/>
<path d="M140 130.702C139.7 130.802 139.2 130.902 138.6 130.902C137.1 130.902 136 130.002 136 128.302C136 126.702 137.1 125.602 138.8 125.602C139.5 125.602 139.9 125.702 140.1 125.802L139.9 126.302C139.6 126.202 139.3 126.102 138.8 126.102C137.6 126.102 136.7 126.902 136.7 128.302C136.7 129.602 137.4 130.402 138.7 130.402C139.1 130.402 139.5 130.302 139.8 130.202L140 130.702Z" fill="#6B6B6B"/>
<path d="M143.5 128.501H141.5V130.401H143.8V131.001H140.8V125.801H143.6V126.401H141.4V128.101H143.4V128.501H143.5Z" fill="#6B6B6B"/>
<path d="M185.6 174.102H184.5V175.202H185.6V174.102Z" fill="#CED1D2"/>
<path d="M188.3 174.102H187.2V175.202H188.3V174.102Z" fill="#CED1D2"/>
<path d="M256.7 175.999H183.2V146.699H256.7V175.999ZM185.8 173.299H254V149.299H185.8V173.299Z" fill="#FF4200"/>
</svg>
