<svg width="392" height="262" viewBox="0 0 392 262" fill="none" xmlns="http://www.w3.org/2000/svg">
<path d="M392 0H0V262H392V0Z" fill="#E3E3E3"/>
<path d="M294.6 7.69922H97.5V261.999H294.6V7.69922Z" fill="white"/>
<path d="M132.7 49.5C130.2 49.5 128.1 51.5 128.1 54.1C128.1 56.7 130.2 58.7 132.7 58.7C135.2 58.7 137.3 56.7 137.3 54.1C137.3 51.5 135.2 49.5 132.7 49.5ZM132.7 56C131.6 56 130.7 55.1 130.7 54C130.7 52.9 131.6 52 132.7 52C133.8 52 134.7 52.9 134.7 54C134.7 54.5 134.5 55 134.1 55.4C133.8 55.8 133.2 56 132.7 56Z" fill="#FF031D"/>
<path d="M143.1 49.7H141.8V47H139.1V49.7H137.8V52.2H139.1V58.4H141.8V52.2H143.1V49.7Z" fill="#FF031D"/>
<path d="M144.3 49.6992H147V58.3992H144.3V49.6992Z" fill="#FF031D"/>
<path d="M145.7 45.5C145.1 45.5 144.5 45.9 144.3 46.4C144.1 46.9 144.2 47.6 144.6 48.1C145.1 48.6 145.7 48.7 146.3 48.4C146.9 48.2 147.2 47.6 147.2 47C147.2 46.2 146.5 45.5 145.7 45.5Z" fill="#FF031D"/>
<path d="M184.6 51.9984C185.5 51.9984 186.2 52.6984 186.2 53.5984V58.2984H188.9V53.1984C188.9 50.8984 187.6 49.3984 185.5 49.3984C184.6 49.3984 183.7 49.7984 183 50.9984V49.5984H180.3V58.2984H183V53.5984C183 53.0984 183.2 52.6984 183.5 52.3984C183.8 52.1984 184.2 51.9984 184.6 51.9984Z" fill="#FF031D"/>
<path d="M198.9 58.2992L195.6 53.9992L198.7 49.6992H195.5L193 53.1992V45.6992H190.3V58.2992H193V54.6992L195.8 58.2992H198.9Z" fill="#FF031D"/>
<path d="M118.8 56C119 55.5 119.1 55 119.1 54.4C119.1 53.6 118.8 52.8 118.3 52.2C117.7 51.6 116.7 51 115.4 50.6C115.1 50.5 114.9 50.4 114.6 50.3C114.4 50.2 114.2 50 114 49.9C113.8 49.7 113.7 49.4 113.7 49.2C113.7 48.8 113.9 48.5 114.2 48.3C114.9 48 115.7 48 116.4 48.3C116.7 48.4 117 48.6 117.3 48.7L118.5 46.4C118 46.1 117.4 45.8 116.8 45.7C116.2 45.6 115.6 45.5 114.9 45.5C114.3 45.5 113.7 45.6 113.2 45.8C112.7 46 112.3 46.3 111.9 46.7C111.5 47.1 111.2 47.6 111 48.1C110.8 48.6 110.7 49.1 110.7 49.7C110.7 50.6 111.1 51.4 111.7 52C112.3 52.5 113 52.9 113.7 53.1C114.1 53.2 114.5 53.4 114.7 53.5C115 53.6 115.2 53.7 115.4 53.9C115.6 54 115.7 54.2 115.8 54.4C115.9 54.6 115.9 54.8 115.9 54.9C115.9 55.2 115.7 55.4 115.5 55.7C115.1 56 114.7 56.1 114.2 56.1C113.7 56.1 113.2 56 112.7 55.7C112.3 55.5 111.9 55.3 111.5 55L110.1 57.4C111.2 58.3 112.5 58.8 113.9 58.8C114.6 58.8 115.3 58.7 115.9 58.5C116.5 58.3 117 58 117.4 57.6C118.3 57 118.6 56.5 118.8 56Z" fill="#FF031D"/>
<path d="M200.8 55.3008C200.2 55.3008 199.6 55.7008 199.4 56.2008C199.2 56.8008 199.3 57.4008 199.7 57.9008C200.1 58.4008 200.8 58.5008 201.4 58.2008C202 58.0008 202.3 57.4008 202.3 56.8008C202.3 56.0008 201.7 55.3008 200.8 55.3008ZM200.8 58.0008C200.3 58.0008 199.9 57.7008 199.7 57.2008C199.5 56.7008 199.6 56.2008 200 55.9008C200.4 55.5008 200.9 55.4008 201.3 55.6008C201.8 55.8008 202.1 56.2008 202.1 56.7008C202.1 57.0008 202 57.3008 201.7 57.6008C201.4 57.9008 201.1 58.0008 200.8 58.0008Z" fill="#FF031D"/>
<path d="M200.8 57.1H200.6V57.7H200.3V56H200.9C201.2 56 201.4 56.2 201.4 56.5C201.4 56.7 201.3 56.9 201.1 57L201.5 57.6H201.1L200.8 57.1ZM200.6 56.8H201C201.1 56.8 201.3 56.7 201.3 56.5C201.3 56.3 201.2 56.2 201 56.2H200.6V56.8Z" fill="#FF031D"/>
<path d="M126.2 55.3C125.5 56.2 124.3 56.3 123.4 55.6C122.5 54.9 122.4 53.7 123.1 52.8C123.8 51.9 125 51.8 125.9 52.5C126 52.6 126.1 52.7 126.2 52.8L128 51C127.1 50.1 125.9 49.5 124.7 49.5C122.2 49.5 120 51.3 120 54C120 56.8 122.2 58.6 124.7 58.6C126 58.6 127.2 58.1 128.1 57.1L126.2 55.3Z" fill="#FF031D"/>
<path d="M157.7 58.2984V49.5984H155V50.4984L154.7 50.2984C154.1 49.6984 153.3 49.3984 152.4 49.3984C150.1 49.3984 148.1 51.4984 148.1 53.9984C148.1 56.4984 150.1 58.5984 152.4 58.5984C153.3 58.5984 154.1 58.2984 154.7 57.6984L155 57.4984V58.3984H157.7V58.2984ZM152.9 55.9984C151.8 55.9984 150.9 55.0984 150.9 53.8984C150.9 52.6984 151.8 51.8984 153 51.8984C154.1 51.8984 155 52.7984 155 53.9984C155 54.4984 154.8 55.0984 154.4 55.3984C154 55.8984 153.5 56.0984 152.9 55.9984Z" fill="#FF031D"/>
<path d="M179 58.2984V49.5984H176.3V50.4984L176 50.2984C175.4 49.6984 174.6 49.3984 173.7 49.3984C171.4 49.3984 169.4 51.4984 169.4 53.9984C169.4 56.4984 171.4 58.5984 173.7 58.5984C174.6 58.5984 175.4 58.2984 176 57.6984L176.3 57.4984V58.3984H179V58.2984ZM174.3 55.9984C173.2 55.9984 172.2 55.0984 172.2 53.9984C172.2 52.8984 173.1 51.8984 174.2 51.8984C175.3 51.8984 176.2 52.7984 176.2 53.8984C176.3 55.0984 175.4 55.9984 174.3 55.9984Z" fill="#FF031D"/>
<path d="M161.7 58.3V57.4L161.9 57.6C162.5 58.2 163.3 58.5 164.2 58.5C166.5 58.5 168.5 56.4 168.5 53.9C168.5 51.4 166.5 49.3 164.2 49.3C163.3 49.3 162.5 49.6 161.9 50.2L161.7 50.4V45.5H159V58.2L161.7 58.3ZM161.8 54C161.8 53.2 162.3 52.4 163.1 52.1C163.9 51.8 164.8 52 165.4 52.6C166 53.2 166.2 54.1 165.9 54.9C165.6 55.7 164.8 56.2 164 56.2C162.7 56 161.8 55.1 161.8 54Z" fill="#FF031D"/>
<path d="M166 108.602H167V113.902C167 116.002 166 116.602 164.6 116.602C164.2 116.602 163.8 116.502 163.5 116.402L163.7 115.602C163.9 115.702 164.2 115.802 164.6 115.802C165.5 115.802 166.1 115.402 166.1 113.802V108.602H166Z" fill="#140603"/>
<path d="M173.5 115C173.5 115.6 173.5 116.1 173.5 116.6H172.6L172.5 115.7C172.2 116.2 171.6 116.8 170.6 116.8C169.7 116.8 168.6 116.3 168.6 114.3V111H169.6V114.1C169.6 115.2 169.9 115.9 170.9 115.9C171.6 115.9 172.1 115.4 172.3 115C172.4 114.8 172.4 114.7 172.4 114.5V111H173.4V115H173.5Z" fill="#140603"/>
<path d="M178.4 116.499L178.3 115.799C178 116.199 177.4 116.599 176.6 116.599C175.4 116.599 174.9 115.799 174.9 114.999C174.9 113.599 176.1 112.899 178.3 112.899V112.799C178.3 112.299 178.2 111.499 177 111.499C176.5 111.499 175.9 111.699 175.5 111.899L175.3 111.199C175.8 110.899 176.5 110.699 177.2 110.699C178.9 110.699 179.4 111.899 179.4 112.999V115.099C179.4 115.599 179.4 116.099 179.5 116.499H178.4ZM178.2 113.599C177.1 113.599 175.8 113.799 175.8 114.899C175.8 115.599 176.2 115.899 176.8 115.899C177.5 115.899 178 115.399 178.2 114.899C178.2 114.799 178.3 114.699 178.3 114.599V113.599H178.2Z" fill="#140603"/>
<path d="M180.9 112.399C180.9 111.799 180.9 111.299 180.9 110.899H181.8L181.9 111.799C182.2 111.299 182.8 110.699 183.8 110.699C184.6 110.699 185.8 111.199 185.8 113.099V116.499H184.8V113.199C184.8 112.299 184.5 111.499 183.5 111.499C182.8 111.499 182.3 111.999 182.1 112.599C182.1 112.699 182 112.899 182 113.099V116.499H181V112.399H180.9Z" fill="#140603"/>
<path d="M189.9 108.7C190.4 108.6 191 108.5 191.9 108.5C192.9 108.5 193.7 108.7 194.1 109.2C194.5 109.6 194.8 110.2 194.8 110.9C194.8 111.6 194.6 112.2 194.2 112.6C193.7 113.2 192.8 113.5 191.8 113.5C191.5 113.5 191.2 113.5 191 113.4V116.6H190V108.7H189.9ZM190.9 112.5C191.1 112.6 191.4 112.6 191.7 112.6C192.9 112.6 193.7 112 193.7 110.9C193.7 109.9 193 109.3 191.8 109.3C191.4 109.3 191 109.3 190.8 109.4V112.5H190.9Z" fill="#140603"/>
<path d="M196.4 113.802C196.4 115.202 197.3 115.802 198.4 115.802C199.1 115.802 199.6 115.702 200 115.502L200.2 116.202C199.8 116.402 199.2 116.602 198.3 116.602C196.5 116.602 195.5 115.402 195.5 113.702C195.5 112.002 196.5 110.602 198.2 110.602C200.1 110.602 200.6 112.202 200.6 113.302C200.6 113.502 200.6 113.702 200.6 113.802H196.4ZM199.4 113.102C199.4 112.402 199.1 111.402 198 111.402C197 111.402 196.5 112.402 196.4 113.102H199.4Z" fill="#140603"/>
<path d="M201.7 112.599C201.7 111.899 201.7 111.399 201.7 110.799H202.6V111.899C202.9 111.099 203.5 110.699 204.2 110.699C204.3 110.699 204.4 110.699 204.5 110.699V111.699C204.4 111.699 204.3 111.699 204.1 111.699C203.4 111.699 202.9 112.299 202.7 112.999C202.7 113.099 202.7 113.299 202.7 113.499V116.499H201.7V112.599Z" fill="#140603"/>
<path d="M206 113.802C206 115.202 206.9 115.802 208 115.802C208.7 115.802 209.2 115.702 209.6 115.502L209.8 116.202C209.4 116.402 208.8 116.602 207.9 116.602C206.1 116.602 205.1 115.402 205.1 113.702C205.1 112.002 206.1 110.602 207.8 110.602C209.7 110.602 210.2 112.202 210.2 113.302C210.2 113.502 210.2 113.702 210.2 113.802H206ZM209 113.102C209 112.402 208.7 111.402 207.6 111.402C206.6 111.402 206.1 112.402 206 113.102H209Z" fill="#140603"/>
<path d="M210.7 115.898L213.3 112.598C213.5 112.298 213.8 111.998 214 111.698H210.9V110.898H215.2V111.498L212.7 114.798C212.5 115.098 212.2 115.398 212 115.698H215.3V116.498H210.7V115.898Z" fill="#140603"/>
<path d="M167.7 128.401C167.4 128.501 166.9 128.701 166.2 128.701C164.6 128.701 163.3 127.701 163.3 125.801C163.3 124.001 164.5 122.801 166.3 122.801C167 122.801 167.5 123.001 167.7 123.101L167.5 123.701C167.2 123.601 166.8 123.501 166.3 123.501C164.9 123.501 164 124.401 164 125.901C164 127.301 164.8 128.201 166.2 128.201C166.7 128.201 167.1 128.101 167.4 128.001L167.7 128.401Z" fill="#9E42E1"/>
<path d="M170.8 128.601L170.7 128.101C170.5 128.401 170 128.701 169.4 128.701C168.6 128.701 168.1 128.101 168.1 127.501C168.1 126.501 169 125.901 170.6 126.001V125.901C170.6 125.601 170.5 124.901 169.7 124.901C169.3 124.901 168.9 125.001 168.6 125.201L168.4 124.701C168.7 124.501 169.2 124.301 169.8 124.301C171.1 124.301 171.4 125.201 171.4 126.001V127.601C171.4 128.001 171.4 128.301 171.5 128.601H170.8ZM170.7 126.401C169.9 126.401 168.9 126.501 168.9 127.301C168.9 127.801 169.2 128.001 169.6 128.001C170.1 128.001 170.5 127.701 170.6 127.301C170.6 127.201 170.6 127.101 170.6 127.101V126.401H170.7Z" fill="#9E42E1"/>
<path d="M172.7 125.501C172.7 125.101 172.7 124.701 172.7 124.401H173.4V125.101C173.6 124.701 174 124.301 174.7 124.301C175.3 124.301 175.7 124.601 175.9 125.101C176 124.901 176.2 124.701 176.4 124.601C176.6 124.401 176.9 124.301 177.3 124.301C177.9 124.301 178.7 124.701 178.7 126.101V128.601H178V126.201C178 125.401 177.7 124.901 177.1 124.901C176.7 124.901 176.3 125.201 176.2 125.601C176.2 125.701 176.1 125.801 176.1 126.001V128.601H175.4V126.101C175.4 125.401 175.1 125.001 174.5 125.001C174 125.001 173.7 125.401 173.6 125.801C173.6 125.901 173.5 126.001 173.5 126.201V128.701H172.8V125.501H172.7Z" fill="#9E42E1"/>
<path d="M179.8 128.6C179.8 128.3 179.8 127.9 179.8 127.5V122.5H180.5V125.1C180.8 124.6 181.2 124.3 181.9 124.3C182.9 124.3 183.7 125.2 183.7 126.4C183.7 127.9 182.8 128.6 181.8 128.6C181.2 128.6 180.7 128.4 180.4 127.8V128.5H179.8V128.6ZM180.6 126.9C180.6 127 180.6 127.1 180.6 127.2C180.7 127.7 181.2 128.1 181.7 128.1C182.5 128.1 183 127.5 183 126.5C183 125.7 182.6 125 181.8 125C181.3 125 180.8 125.4 180.6 125.9C180.6 126 180.6 126.1 180.6 126.2V126.9Z" fill="#9E42E1"/>
<path d="M185.6 123.199C185.6 123.499 185.4 123.699 185.1 123.699C184.8 123.699 184.6 123.499 184.6 123.199C184.6 122.899 184.8 122.699 185.1 122.699C185.4 122.799 185.6 122.999 185.6 123.199ZM184.8 128.599V124.399H185.6V128.599H184.8Z" fill="#9E42E1"/>
<path d="M189.1 128.601L189 128.101C188.8 128.401 188.3 128.701 187.7 128.701C186.9 128.701 186.4 128.101 186.4 127.501C186.4 126.501 187.3 125.901 188.9 126.001V125.901C188.9 125.601 188.8 124.901 188 124.901C187.6 124.901 187.2 125.001 186.9 125.201L186.7 124.701C187 124.501 187.5 124.301 188.1 124.301C189.4 124.301 189.7 125.201 189.7 126.001V127.601C189.7 128.001 189.7 128.301 189.8 128.601H189.1ZM189 126.401C188.2 126.401 187.2 126.501 187.2 127.301C187.2 127.801 187.5 128.001 187.9 128.001C188.4 128.001 188.8 127.701 188.9 127.301C188.9 127.201 188.9 127.101 188.9 127.101V126.401H189Z" fill="#9E42E1"/>
<path d="M190.9 125.701C190.9 125.201 190.9 124.801 190.9 124.401H191.6V125.201C191.8 124.601 192.2 124.301 192.8 124.301C192.9 124.301 192.9 124.301 193 124.301V125.001C192.9 125.001 192.8 125.001 192.7 125.001C192.2 125.001 191.8 125.401 191.7 126.001C191.7 126.101 191.7 126.201 191.7 126.401V128.601H191V125.701H190.9Z" fill="#9E42E1"/>
<path d="M199 127.401C199 127.801 199 128.201 199 128.501H198.3V127.801C198.1 128.101 197.7 128.601 196.9 128.601C196.2 128.601 195.5 128.201 195.5 126.801V124.401H196.3V126.701C196.3 127.501 196.5 128.001 197.2 128.001C197.7 128.001 198.1 127.601 198.2 127.301C198.2 127.201 198.3 127.101 198.3 126.901V124.301H199.1V127.401H199Z" fill="#9E42E1"/>
<path d="M200.2 127.801C200.4 127.901 200.8 128.101 201.2 128.101C201.8 128.101 202 127.801 202 127.501C202 127.101 201.8 126.901 201.2 126.701C200.5 126.401 200.1 126.001 200.1 125.501C200.1 124.801 200.6 124.301 201.5 124.301C201.9 124.301 202.3 124.401 202.5 124.601L202.3 125.201C202.1 125.101 201.8 125.001 201.4 125.001C201 125.001 200.7 125.301 200.7 125.601C200.7 125.901 201 126.101 201.5 126.301C202.2 126.601 202.6 126.901 202.6 127.601C202.6 128.301 202 128.801 201 128.801C200.5 128.801 200.1 128.701 199.8 128.501L200.2 127.801Z" fill="#9E42E1"/>
<path d="M207.2 127.401C207.2 127.801 207.2 128.201 207.2 128.501H206.5V127.801C206.3 128.101 205.9 128.601 205.1 128.601C204.4 128.601 203.7 128.201 203.7 126.801V124.401H204.5V126.701C204.5 127.501 204.7 128.001 205.4 128.001C205.9 128.001 206.3 127.601 206.4 127.301C206.4 127.201 206.5 127.101 206.5 126.901V124.301H207.3V127.401H207.2Z" fill="#9E42E1"/>
<path d="M210.8 128.601L210.7 128.101C210.5 128.401 210 128.701 209.4 128.701C208.6 128.701 208.1 128.101 208.1 127.501C208.1 126.501 209 125.901 210.6 126.001V125.901C210.6 125.601 210.5 124.901 209.7 124.901C209.3 124.901 208.9 125.001 208.6 125.201L208.4 124.701C208.7 124.501 209.2 124.301 209.8 124.301C211.1 124.301 211.4 125.201 211.4 126.001V127.601C211.4 128.001 211.4 128.301 211.5 128.601H210.8ZM210.6 126.401C209.8 126.401 208.8 126.501 208.8 127.301C208.8 127.801 209.1 128.001 209.5 128.001C210 128.001 210.4 127.701 210.5 127.301C210.5 127.201 210.5 127.101 210.5 127.101V126.401H210.6Z" fill="#9E42E1"/>
<path d="M212.6 125.701C212.6 125.201 212.6 124.801 212.6 124.401H213.3V125.201C213.5 124.601 213.9 124.301 214.5 124.301C214.6 124.301 214.6 124.301 214.7 124.301V125.001C214.6 125.001 214.5 125.001 214.4 125.001C213.9 125.001 213.5 125.401 213.4 126.001C213.4 126.101 213.4 126.201 213.4 126.401V128.601H212.7V125.701H212.6Z" fill="#9E42E1"/>
<path d="M216.3 123.199C216.3 123.499 216.1 123.699 215.8 123.699C215.5 123.699 215.3 123.499 215.3 123.199C215.3 122.899 215.5 122.699 215.8 122.699C216.1 122.799 216.3 122.999 216.3 123.199ZM215.4 128.599V124.399H216.2V128.599H215.4Z" fill="#9E42E1"/>
<path d="M221.2 126.498C221.2 127.998 220.1 128.698 219.1 128.698C218 128.698 217.1 127.898 217.1 126.598C217.1 125.198 218 124.398 219.2 124.398C220.4 124.298 221.2 125.198 221.2 126.498ZM217.9 126.498C217.9 127.398 218.4 128.098 219.2 128.098C219.9 128.098 220.5 127.398 220.5 126.498C220.5 125.798 220.1 124.898 219.3 124.898C218.3 124.898 217.9 125.698 217.9 126.498Z" fill="#9E42E1"/>
<path d="M115.3 206.702V206.902C115.3 207.302 115.2 207.802 114.8 208.302C114.4 208.702 114.2 209.002 114.2 209.402C114.2 209.802 114.5 210.102 115 210.102C115.3 210.102 115.6 210.002 115.8 209.802L116 210.302C115.7 210.502 115.3 210.602 114.8 210.602C113.9 210.602 113.4 210.002 113.4 209.402C113.4 208.802 113.7 208.502 114.1 208.002C114.4 207.602 114.6 207.202 114.6 206.802V206.602H115.3V206.702ZM115.5 205.602C115.5 205.902 115.3 206.102 115 206.102C114.7 206.102 114.5 205.902 114.5 205.602C114.5 205.302 114.7 205.102 115 205.102C115.3 205.102 115.5 205.302 115.5 205.602Z" fill="#9E42E1"/>
<path d="M121.7 206.202C121.7 208.102 120.6 209.102 119.2 209.102C117.8 209.102 116.7 208.002 116.7 206.302C116.7 204.602 117.8 203.402 119.2 203.402C120.7 203.502 121.7 204.602 121.7 206.202ZM117.4 206.302C117.4 207.502 118 208.502 119.1 208.502C120.2 208.502 120.9 207.502 120.9 206.202C120.9 205.102 120.3 204.002 119.2 204.002C118 204.002 117.4 205.102 117.4 206.302Z" fill="#9E42E1"/>
<path d="M122.6 203.301H123.3V209.101H122.6V203.301Z" fill="#9E42E1"/>
<path d="M124.8 205.102L125.6 207.302C125.7 207.702 125.8 208.002 125.9 208.302C126 208.002 126.1 207.702 126.2 207.302L127 205.102H127.7L126.2 209.002H125.5L124 205.102H124.8Z" fill="#9E42E1"/>
<path d="M129.2 204C129.2 204.2 129 204.4 128.7 204.4C128.4 204.4 128.3 204.2 128.3 204C128.3 203.7 128.5 203.6 128.7 203.6C129 203.5 129.2 203.7 129.2 204ZM128.4 209V205.1H129.1V209H128.4Z" fill="#9E42E1"/>
<path d="M133.7 203.301V208.001C133.7 208.301 133.7 208.701 133.7 209.001H133.1V208.301C132.9 208.701 132.4 209.101 131.8 209.101C130.8 209.101 130.1 208.301 130.1 207.101C130.1 205.801 130.9 205.001 131.9 205.001C132.5 205.001 132.9 205.301 133.1 205.601V203.301H133.7ZM133 206.701C133 206.601 133 206.501 133 206.401C132.9 205.901 132.5 205.601 132 205.601C131.3 205.601 130.8 206.201 130.8 207.101C130.8 207.901 131.2 208.601 132 208.601C132.5 208.601 132.9 208.301 133 207.701C133 207.601 133 207.501 133 207.401V206.701Z" fill="#9E42E1"/>
<path d="M137 209L136.9 208.5C136.7 208.8 136.3 209.1 135.7 209.1C134.9 209.1 134.5 208.5 134.5 208C134.5 207.1 135.3 206.5 136.9 206.5V206.4C136.9 206.1 136.8 205.5 136 205.5C135.6 205.5 135.3 205.6 135 205.8L134.8 205.3C135.1 205.1 135.6 205 136.1 205C137.3 205 137.6 205.8 137.6 206.6V208.1C137.6 208.4 137.6 208.8 137.7 209H137ZM136.9 207C136.1 207 135.2 207.1 135.2 207.9C135.2 208.4 135.5 208.6 135.9 208.6C136.4 208.6 136.7 208.3 136.9 207.9C136.9 207.8 136.9 207.7 136.9 207.7V207Z" fill="#9E42E1"/>
<path d="M138.7 208.3C138.9 208.4 139.3 208.6 139.6 208.6C140.1 208.6 140.4 208.3 140.4 208C140.4 207.7 140.2 207.5 139.7 207.3C139 207 138.7 206.7 138.7 206.2C138.7 205.6 139.2 205 140.1 205C140.5 205 140.8 205.1 141.1 205.2L140.9 205.7C140.7 205.6 140.5 205.5 140.1 205.5C139.7 205.5 139.4 205.7 139.4 206C139.4 206.3 139.6 206.5 140.1 206.7C140.8 207 141.1 207.3 141.1 207.9C141.1 208.6 140.6 209.1 139.6 209.1C139.2 209.1 138.8 209 138.5 208.8L138.7 208.3Z" fill="#9E42E1"/>
<path d="M142.8 204V205.1H143.8V205.6H142.8V207.7C142.8 208.2 142.9 208.5 143.3 208.5C143.5 208.5 143.6 208.5 143.7 208.5V209C143.6 209.1 143.3 209.1 143.1 209.1C142.8 209.1 142.5 209 142.3 208.8C142.1 208.6 142 208.2 142 207.8V205.7H141.4V205.2H142V204.3L142.8 204Z" fill="#9E42E1"/>
<path d="M145 207.2C145 208.2 145.6 208.6 146.3 208.6C146.8 208.6 147.1 208.5 147.4 208.4L147.5 208.9C147.2 209 146.8 209.1 146.2 209.1C145 209.1 144.3 208.3 144.3 207.1C144.3 205.9 145 205 146.1 205C147.4 205 147.7 206.1 147.7 206.9C147.7 207 147.7 207.2 147.7 207.2H145ZM147.1 206.7C147.1 206.2 146.9 205.5 146.1 205.5C145.4 205.5 145.1 206.2 145 206.7H147.1Z" fill="#9E42E1"/>
<path d="M151.3 204V205.1H152.3V205.6H151.3V207.7C151.3 208.2 151.4 208.5 151.8 208.5C152 208.5 152.1 208.5 152.2 208.5V209C152.1 209.1 151.8 209.1 151.6 209.1C151.3 209.1 151 209 150.8 208.8C150.6 208.6 150.5 208.2 150.5 207.8V205.7H150V205.2H150.6V204.3L151.3 204Z" fill="#9E42E1"/>
<path d="M156.4 207.999C156.4 208.399 156.4 208.799 156.4 209.099H155.8V208.499C155.6 208.799 155.2 209.199 154.5 209.199C153.9 209.199 153.1 208.899 153.1 207.499V205.199H153.8V207.399C153.8 208.099 154 208.699 154.7 208.699C155.2 208.699 155.5 208.399 155.6 208.099C155.6 207.999 155.7 207.899 155.7 207.699V205.299H156.4V207.999Z" fill="#9E42E1"/>
<path d="M162.1 208.9C161.9 209 161.5 209.1 161 209.1C159.8 209.1 159 208.3 159 207.1C159 205.9 159.8 205 161.1 205C161.5 205 161.9 205.1 162.1 205.2L161.9 205.8C161.7 205.7 161.5 205.6 161.1 205.6C160.2 205.6 159.7 206.3 159.7 207.1C159.7 208 160.3 208.6 161.1 208.6C161.5 208.6 161.8 208.5 162 208.4L162.1 208.9Z" fill="#9E42E1"/>
<path d="M166.4 207C166.4 208.5 165.4 209.1 164.4 209.1C163.3 209.1 162.5 208.3 162.5 207.1C162.5 205.8 163.4 205 164.4 205C165.7 205 166.4 205.8 166.4 207ZM163.3 207.1C163.3 208 163.8 208.6 164.5 208.6C165.2 208.6 165.7 208 165.7 207.1C165.7 206.4 165.4 205.6 164.5 205.6C163.7 205.5 163.3 206.3 163.3 207.1Z" fill="#9E42E1"/>
<path d="M167.3 206.2C167.3 205.8 167.3 205.5 167.3 205.1H167.9V205.7C168.1 205.3 168.5 205 169.2 205C169.7 205 170.6 205.3 170.6 206.7V209H169.9V206.7C169.9 206.1 169.7 205.5 169 205.5C168.5 205.5 168.2 205.8 168 206.2C168 206.3 168 206.4 168 206.5V208.9H167.3V206.2Z" fill="#9E42E1"/>
<path d="M172.7 204V205.1H173.7V205.6H172.7V207.7C172.7 208.2 172.8 208.5 173.2 208.5C173.4 208.5 173.5 208.5 173.6 208.5V209C173.5 209.1 173.2 209.1 173 209.1C172.7 209.1 172.4 209 172.2 208.8C172 208.6 171.9 208.2 171.9 207.8V205.7H171.3V205.2H171.9V204.3L172.7 204Z" fill="#9E42E1"/>
<path d="M174.5 206.3C174.5 205.8 174.5 205.4 174.5 205.1H175.1V205.9C175.3 205.4 175.7 205 176.2 205C176.3 205 176.3 205 176.4 205V205.7C176.3 205.7 176.3 205.7 176.2 205.7C175.7 205.7 175.3 206.1 175.2 206.6C175.2 206.7 175.2 206.8 175.2 206.9V209H174.5V206.3Z" fill="#9E42E1"/>
<path d="M179.3 209L179.2 208.5C179 208.8 178.6 209.1 178 209.1C177.2 209.1 176.8 208.5 176.8 208C176.8 207.1 177.6 206.5 179.2 206.5V206.4C179.2 206.1 179.1 205.5 178.3 205.5C177.9 205.5 177.6 205.6 177.3 205.8L177.1 205.3C177.4 205.1 177.9 205 178.4 205C179.6 205 179.9 205.8 179.9 206.6V208.1C179.9 208.4 179.9 208.8 180 209H179.3ZM179.2 207C178.4 207 177.5 207.1 177.5 207.9C177.5 208.4 177.8 208.6 178.2 208.6C178.7 208.6 179 208.3 179.2 207.9C179.2 207.8 179.2 207.7 179.2 207.7V207Z" fill="#9E42E1"/>
<path d="M180.9 208.3C181.1 208.4 181.5 208.6 181.8 208.6C182.3 208.6 182.6 208.3 182.6 208C182.6 207.7 182.4 207.5 181.9 207.3C181.2 207 180.9 206.7 180.9 206.2C180.9 205.6 181.4 205 182.3 205C182.7 205 183 205.1 183.3 205.2L183.1 205.7C182.9 205.6 182.7 205.5 182.3 205.5C181.9 205.5 181.6 205.7 181.6 206C181.6 206.3 181.8 206.5 182.3 206.7C183 207 183.3 207.3 183.3 207.9C183.3 208.6 182.8 209.1 181.8 209.1C181.4 209.1 181 209 180.7 208.8L180.9 208.3Z" fill="#9E42E1"/>
<path d="M184.6 207.2C184.6 208.2 185.2 208.6 185.9 208.6C186.4 208.6 186.7 208.5 187 208.4L187.1 208.9C186.8 209 186.4 209.1 185.8 209.1C184.6 209.1 183.9 208.3 183.9 207.1C183.9 205.9 184.6 205 185.7 205C187 205 187.3 206.1 187.3 206.9C187.3 207 187.3 207.2 187.3 207.2H184.6ZM186.7 206.7C186.7 206.2 186.5 205.5 185.7 205.5C185 205.5 184.7 206.2 184.6 206.7H186.7Z" fill="#9E42E1"/>
<path d="M188.3 206.202C188.3 205.802 188.3 205.502 188.3 205.102H188.9V205.702C189.1 205.302 189.5 205.002 190.2 205.002C190.7 205.002 191.6 205.302 191.6 206.702V209.002H190.9V206.702C190.9 206.102 190.7 205.502 190 205.502C189.5 205.502 189.2 205.802 189 206.202C189 206.302 189 206.402 189 206.502V208.902H188.3V206.202ZM188.9 204.402C188.9 203.902 189.1 203.602 189.5 203.602C189.7 203.602 189.8 203.702 190 203.802C190.1 203.902 190.2 203.902 190.3 203.902C190.4 203.902 190.5 203.802 190.5 203.602H190.9C190.9 204.102 190.7 204.402 190.3 204.402C190.1 204.402 190 204.302 189.8 204.202C189.6 204.102 189.5 204.102 189.5 204.102C189.4 204.102 189.3 204.202 189.3 204.502H188.9V204.402Z" fill="#9E42E1"/>
<path d="M195 209L194.9 208.5C194.7 208.8 194.3 209.1 193.7 209.1C192.9 209.1 192.5 208.5 192.5 208C192.5 207.1 193.3 206.5 194.9 206.5V206.4C194.9 206.1 194.8 205.5 194 205.5C193.6 205.5 193.3 205.6 193 205.8L192.8 205.3C193.1 205.1 193.6 205 194.1 205C195.3 205 195.6 205.8 195.6 206.6V208.1C195.6 208.4 195.6 208.8 195.7 209H195ZM194.8 207C194 207 193.1 207.1 193.1 207.9C193.1 208.4 193.4 208.6 193.8 208.6C194.3 208.6 194.6 208.3 194.8 207.9C194.8 207.8 194.8 207.7 194.8 207.7V207Z" fill="#9E42E1"/>
<path d="M197.2 207.502V207.302C197.2 206.902 197.3 206.402 197.7 205.902C198.1 205.502 198.3 205.202 198.3 204.802C198.3 204.402 198 204.102 197.5 204.102C197.2 204.102 196.9 204.202 196.7 204.402L196.5 203.902C196.8 203.702 197.2 203.602 197.7 203.602C198.6 203.602 199.1 204.202 199.1 204.802C199.1 205.402 198.8 205.702 198.4 206.202C198 206.602 197.9 207.002 197.9 207.402V207.602H197.2V207.502ZM197.1 208.602C197.1 208.302 197.3 208.102 197.6 208.102C197.9 208.102 198.1 208.302 198.1 208.602C198.1 208.902 197.9 209.102 197.6 209.102C197.3 209.102 197.1 208.902 197.1 208.602Z" fill="#9E42E1"/>
<path d="M130.1 177.198C129.7 177.398 129 177.598 128 177.598C125.7 177.598 124.1 176.198 124.1 173.598C124.1 171.098 125.8 169.398 128.3 169.398C129.3 169.398 129.9 169.598 130.2 169.798L130 170.598C129.6 170.398 129.1 170.298 128.4 170.298C126.5 170.298 125.3 171.498 125.3 173.598C125.3 175.598 126.4 176.798 128.4 176.798C129 176.798 129.7 176.698 130.1 176.498V177.198Z" fill="#868686"/>
<path d="M136.4 174.5C136.4 176.6 134.9 177.5 133.5 177.5C131.9 177.5 130.7 176.4 130.7 174.5C130.7 172.6 132 171.5 133.5 171.5C135.3 171.6 136.4 172.8 136.4 174.5ZM131.9 174.6C131.9 175.9 132.6 176.8 133.6 176.8C134.6 176.8 135.3 175.9 135.3 174.6C135.3 173.6 134.8 172.4 133.6 172.4C132.4 172.3 131.9 173.5 131.9 174.6Z" fill="#868686"/>
<path d="M137.8 173.198C137.8 172.598 137.8 172.098 137.8 171.598H138.7L138.8 172.498C139.1 171.998 139.7 171.398 140.7 171.398C141.5 171.398 142.7 171.898 142.7 173.798V177.198H141.7V173.898C141.7 172.998 141.4 172.198 140.4 172.198C139.7 172.198 139.2 172.698 139 173.298C139 173.398 138.9 173.598 138.9 173.798V177.298H137.9V173.198H137.8Z" fill="#868686"/>
<path d="M145.5 170V171.6H147V172.4H145.5V175.5C145.5 176.2 145.7 176.6 146.3 176.6C146.6 176.6 146.8 176.6 146.9 176.5V177.3C146.7 177.4 146.4 177.4 146 177.4C145.5 177.4 145.1 177.2 144.9 177C144.6 176.7 144.5 176.2 144.5 175.5V172.4H143.6V171.6H144.5V170.2L145.5 170Z" fill="#868686"/>
<path d="M148.2 173.5C148.2 172.8 148.2 172.2 148.2 171.7H149.1V172.8C149.4 172 150 171.5 150.7 171.5C150.8 171.5 150.9 171.5 151 171.5V172.5C150.9 172.5 150.8 172.5 150.6 172.5C149.9 172.5 149.3 173.1 149.2 173.8C149.2 173.9 149.2 174.1 149.2 174.3V177.4H148.2V173.5Z" fill="#868686"/>
<path d="M155.2 177.399L155.1 176.699C154.8 177.199 154.2 177.599 153.3 177.599C152.1 177.599 151.5 176.799 151.5 175.999C151.5 174.599 152.7 173.899 155 173.899V173.799C155 173.299 154.9 172.499 153.7 172.499C153.2 172.499 152.6 172.699 152.2 172.899L152 172.199C152.5 171.899 153.2 171.699 153.9 171.699C155.7 171.699 156.1 172.899 156.1 173.999V176.099C156.1 176.599 156.1 177.099 156.2 177.499H155.2V177.399ZM155 174.499C153.9 174.499 152.6 174.699 152.6 175.799C152.6 176.499 153.1 176.799 153.6 176.799C154.3 176.799 154.8 176.299 155 175.799C155 175.699 155.1 175.599 155.1 175.499V174.499H155Z" fill="#868686"/>
<path d="M157.6 176.4C157.9 176.6 158.5 176.8 159 176.8C159.8 176.8 160.1 176.4 160.1 175.9C160.1 175.4 159.8 175.1 159 174.8C158 174.4 157.5 173.9 157.5 173.2C157.5 172.3 158.2 171.5 159.5 171.5C160.1 171.5 160.6 171.7 160.9 171.9L160.6 172.7C160.4 172.6 160 172.4 159.4 172.4C158.8 172.4 158.4 172.8 158.4 173.2C158.4 173.7 158.7 173.9 159.5 174.2C160.5 174.6 161 175.1 161 175.9C161 176.9 160.2 177.6 158.9 177.6C158.3 177.6 157.7 177.4 157.3 177.2L157.6 176.4Z" fill="#868686"/>
<path d="M163 174.798C163 176.198 163.9 176.798 165 176.798C165.7 176.798 166.2 176.698 166.6 176.498L166.8 177.198C166.4 177.398 165.8 177.598 164.9 177.598C163.1 177.598 162.1 176.398 162.1 174.698C162.1 172.998 163.1 171.598 164.8 171.598C166.7 171.598 167.2 173.198 167.2 174.298C167.2 174.498 167.2 174.698 167.2 174.798H163ZM166.1 173.998C166.1 173.298 165.8 172.298 164.7 172.298C163.6 172.298 163.2 173.298 163.1 173.998H166.1Z" fill="#868686"/>
<path d="M168.4 173.2C168.4 172.6 168.4 172.1 168.4 171.6H169.3L169.4 172.5C169.7 172 170.3 171.4 171.3 171.4C172.1 171.4 173.3 171.9 173.3 173.8V177.2H172.3V173.9C172.3 173 172 172.2 171 172.2C170.3 172.2 169.8 172.7 169.6 173.3C169.6 173.4 169.5 173.6 169.5 173.8V177.3H168.5V173.2H168.4ZM169.3 170.7C169.3 169.9 169.6 169.5 170.1 169.5C170.4 169.5 170.6 169.6 170.8 169.8C171 169.9 171.2 170 171.3 170C171.5 170 171.6 169.9 171.6 169.5H172.2C172.2 170.3 171.9 170.7 171.4 170.7C171.2 170.7 170.9 170.6 170.7 170.5C170.5 170.4 170.3 170.3 170.2 170.3C170 170.3 169.9 170.5 169.9 170.8H169.3V170.7Z" fill="#868686"/>
<path d="M178.1 177.399L178 176.699C177.7 177.199 177.1 177.599 176.2 177.599C175 177.599 174.4 176.799 174.4 175.999C174.4 174.599 175.6 173.899 177.9 173.899V173.799C177.9 173.299 177.8 172.499 176.6 172.499C176.1 172.499 175.5 172.699 175.1 172.899L174.9 172.199C175.4 171.899 176.1 171.699 176.8 171.699C178.6 171.699 179 172.899 179 173.999V176.099C179 176.599 179 177.099 179.1 177.499H178.1V177.399ZM178 174.499C176.9 174.499 175.6 174.699 175.6 175.799C175.6 176.499 176.1 176.799 176.6 176.799C177.3 176.799 177.8 176.299 178 175.799C178 175.699 178.1 175.599 178.1 175.499V174.499H178Z" fill="#868686"/>
<path d="M138.5 238.398C138.2 238.498 137.6 238.698 136.9 238.698C135.2 238.698 133.8 237.598 133.8 235.598C133.8 233.698 135.1 232.398 137 232.398C137.8 232.398 138.3 232.598 138.5 232.698L138.3 233.398C138 233.298 137.6 233.098 137.1 233.098C135.7 233.098 134.7 233.998 134.7 235.598C134.7 237.098 135.6 238.098 137.1 238.098C137.6 238.098 138.1 237.998 138.4 237.798L138.5 238.398Z" fill="#868686"/>
<path d="M143.4 236.3C143.4 237.9 142.3 238.7 141.2 238.7C140 238.7 139.1 237.8 139.1 236.4C139.1 234.9 140.1 234 141.3 234C142.6 234 143.4 235 143.4 236.3ZM139.9 236.4C139.9 237.4 140.5 238.1 141.2 238.1C142 238.1 142.5 237.4 142.5 236.4C142.5 235.6 142.1 234.7 141.2 234.7C140.3 234.6 139.9 235.5 139.9 236.4Z" fill="#868686"/>
<path d="M144.4 235.3C144.4 234.8 144.4 234.5 144.4 234.1H145.1V234.8C145.3 234.4 145.8 234 146.6 234C147.2 234 148.2 234.4 148.2 235.9V238.6H147.4V236C147.4 235.3 147.1 234.7 146.4 234.7C145.9 234.7 145.5 235.1 145.3 235.5C145.3 235.6 145.2 235.7 145.2 235.9V238.6H144.4V235.3Z" fill="#868686"/>
<path d="M149.6 238.602V234.802H149V234.202H149.6V234.002C149.6 232.802 150.3 232.102 151.5 232.102C151.9 232.102 152.4 232.202 152.6 232.402L152.4 233.002C152.2 232.902 151.9 232.702 151.5 232.702C150.6 232.702 150.4 233.302 150.4 234.002V234.202H153V238.602H152.2V234.802H150.4V238.602H149.6Z" fill="#868686"/>
<path d="M156.8 238.6L156.7 238C156.5 238.3 156 238.7 155.3 238.7C154.4 238.7 153.9 238.1 153.9 237.4C153.9 236.3 154.9 235.7 156.6 235.7V235.6C156.6 235.2 156.5 234.6 155.6 234.6C155.2 234.6 154.8 234.7 154.4 234.9L154.2 234.4C154.6 234.2 155.1 234 155.7 234C157.1 234 157.4 234.9 157.4 235.8V237.5C157.4 237.9 157.4 238.3 157.5 238.6H156.8ZM156.7 236.3C155.8 236.3 154.8 236.4 154.8 237.3C154.8 237.8 155.1 238.1 155.6 238.1C156.2 238.1 156.5 237.7 156.7 237.4C156.7 237.3 156.7 237.2 156.7 237.1V236.3Z" fill="#868686"/>
<path d="M158.7 235.5C158.7 235 158.7 234.5 158.7 234.1H159.4V235C159.6 234.4 160.1 234 160.6 234C160.7 234 160.8 234 160.8 234V234.8C160.7 234.8 160.6 234.8 160.5 234.8C159.9 234.8 159.5 235.2 159.4 235.8C159.4 235.9 159.4 236 159.4 236.2V238.6H158.6V235.5H158.7Z" fill="#868686"/>
<path d="M164.1 236.502C164.1 237.602 164.8 238.002 165.6 238.002C166.2 238.002 166.5 237.902 166.8 237.802L166.9 238.402C166.6 238.502 166.1 238.702 165.4 238.702C164 238.702 163.2 237.802 163.2 236.502C163.2 235.202 164 234.102 165.3 234.102C166.7 234.102 167.1 235.402 167.1 236.202C167.1 236.402 167.1 236.502 167.1 236.602H164.1V236.502ZM166.5 235.902C166.5 235.402 166.3 234.602 165.4 234.602C164.6 234.602 164.2 235.402 164.2 235.902H166.5Z" fill="#868686"/>
<path d="M168.3 235.3C168.3 234.8 168.3 234.5 168.3 234.1H169V234.8C169.2 234.4 169.7 234 170.5 234C171.1 234 172.1 234.4 172.1 235.9V238.6H171.3V236C171.3 235.3 171 234.7 170.3 234.7C169.8 234.7 169.4 235.1 169.2 235.5C169.2 235.6 169.1 235.7 169.1 235.9V238.6H168.3V235.3Z" fill="#868686"/>
<path d="M175.8 236.502C175.8 237.602 176.5 238.002 177.3 238.002C177.9 238.002 178.2 237.902 178.5 237.802L178.6 238.402C178.3 238.502 177.8 238.702 177.1 238.702C175.7 238.702 174.9 237.802 174.9 236.502C174.9 235.202 175.7 234.102 177 234.102C178.4 234.102 178.8 235.402 178.8 236.202C178.8 236.402 178.8 236.502 178.8 236.602H175.8V236.502ZM178.1 235.902C178.1 235.402 177.9 234.602 177 234.602C176.2 234.602 175.8 235.402 175.8 235.902H178.1Z" fill="#868686"/>
<path d="M179.8 237.8C180 238 180.5 238.1 180.9 238.1C181.5 238.1 181.8 237.8 181.8 237.4C181.8 237 181.6 236.8 181 236.6C180.2 236.3 179.8 235.9 179.8 235.3C179.8 234.6 180.4 234 181.3 234C181.7 234 182.1 234.1 182.4 234.3L182.2 234.9C182 234.8 181.7 234.6 181.3 234.6C180.8 234.6 180.6 234.9 180.6 235.2C180.6 235.6 180.9 235.7 181.4 236C182.2 236.3 182.6 236.7 182.6 237.3C182.6 238.1 182 238.6 180.9 238.6C180.4 238.6 180 238.5 179.7 238.3L179.8 237.8Z" fill="#868686"/>
<path d="M184.5 232.898V234.198H185.7V234.798H184.5V237.198C184.5 237.798 184.7 238.098 185.1 238.098C185.3 238.098 185.5 238.098 185.6 237.998V238.598C185.4 238.698 185.2 238.698 184.9 238.698C184.5 238.698 184.2 238.598 184 238.398C183.8 238.198 183.7 237.798 183.7 237.198V234.798H183V234.198H183.7V233.098L184.5 232.898Z" fill="#868686"/>
<path d="M187 236.502C187 237.602 187.7 238.002 188.5 238.002C189.1 238.002 189.4 237.902 189.7 237.802L189.8 238.402C189.5 238.502 189 238.702 188.3 238.702C186.9 238.702 186.1 237.802 186.1 236.502C186.1 235.202 186.9 234.102 188.2 234.102C189.6 234.102 190 235.402 190 236.202C190 236.402 190 236.502 190 236.602H187V236.502ZM189.3 235.902C189.3 235.402 189.1 234.602 188.2 234.602C187.4 234.602 187 235.402 187 235.902H189.3Z" fill="#868686"/>
<path d="M196.9 232.1V237.5C196.9 237.9 196.9 238.3 196.9 238.6H196.2V237.8C196 238.3 195.4 238.7 194.7 238.7C193.6 238.7 192.8 237.8 192.8 236.4C192.8 234.9 193.7 234 194.8 234C195.5 234 195.9 234.3 196.1 234.7V232H196.9V232.1ZM196.1 236C196.1 235.9 196.1 235.8 196.1 235.7C196 235.2 195.5 234.8 194.9 234.8C194.1 234.8 193.6 235.5 193.6 236.5C193.6 237.4 194 238.1 194.9 238.1C195.4 238.1 195.9 237.7 196.1 237.1C196.1 237 196.1 236.9 196.1 236.8V236Z" fill="#868686"/>
<path d="M199.1 232.898C199.1 233.198 198.9 233.398 198.6 233.398C198.3 233.398 198.1 233.198 198.1 232.898C198.1 232.598 198.3 232.398 198.6 232.398C198.9 232.398 199.1 232.598 199.1 232.898ZM198.2 238.598V234.198H199V238.598H198.2Z" fill="#868686"/>
<path d="M200.3 237.8C200.5 238 201 238.1 201.4 238.1C202 238.1 202.3 237.8 202.3 237.4C202.3 237 202.1 236.8 201.5 236.6C200.7 236.3 200.3 235.9 200.3 235.3C200.3 234.6 200.9 234 201.8 234C202.2 234 202.6 234.1 202.9 234.3L202.7 234.9C202.5 234.8 202.2 234.6 201.8 234.6C201.3 234.6 201.1 234.9 201.1 235.2C201.1 235.6 201.4 235.7 201.9 236C202.7 236.3 203.1 236.7 203.1 237.3C203.1 238.1 202.5 238.6 201.4 238.6C200.9 238.6 200.5 238.5 200.2 238.3L200.3 237.8Z" fill="#868686"/>
<path d="M204 235.602C204 235.002 204 234.602 204 234.202H204.7V235.002C205 234.502 205.6 234.102 206.3 234.102C207.4 234.102 208.2 235.002 208.2 236.402C208.2 238.002 207.2 238.802 206.2 238.802C205.6 238.802 205.1 238.502 204.8 238.102V240.502H204V235.602ZM204.8 236.802C204.8 236.902 204.8 237.002 204.8 237.102C204.9 237.702 205.4 238.002 206 238.002C206.9 238.002 207.3 237.302 207.3 236.302C207.3 235.402 206.8 234.602 206 234.602C205.4 234.602 204.9 235.002 204.8 235.602C204.8 235.702 204.7 235.802 204.7 235.902V236.802H204.8Z" fill="#868686"/>
<path d="M213.2 236.3C213.2 237.9 212.1 238.7 211 238.7C209.8 238.7 208.9 237.8 208.9 236.4C208.9 234.9 209.9 234 211.1 234C212.4 234 213.2 235 213.2 236.3ZM209.7 236.4C209.7 237.4 210.3 238.1 211 238.1C211.8 238.1 212.3 237.4 212.3 236.4C212.3 235.6 211.9 234.7 211 234.7C210.1 234.6 209.7 235.5 209.7 236.4Z" fill="#868686"/>
<path d="M214.1 237.8C214.3 238 214.8 238.1 215.2 238.1C215.8 238.1 216.1 237.8 216.1 237.4C216.1 237 215.9 236.8 215.3 236.6C214.5 236.3 214.1 235.9 214.1 235.3C214.1 234.6 214.7 234 215.6 234C216 234 216.4 234.1 216.7 234.3L216.5 234.9C216.3 234.8 216 234.6 215.6 234.6C215.1 234.6 214.9 234.9 214.9 235.2C214.9 235.6 215.2 235.7 215.7 236C216.5 236.3 216.9 236.7 216.9 237.3C216.9 238.1 216.3 238.6 215.2 238.6C214.7 238.6 214.3 238.5 214 238.3L214.1 237.8Z" fill="#868686"/>
<path d="M218.8 232.898C218.8 233.198 218.6 233.398 218.3 233.398C218 233.398 217.8 233.198 217.8 232.898C217.8 232.598 218 232.398 218.3 232.398C218.6 232.398 218.8 232.598 218.8 232.898ZM217.9 238.598V234.198H218.7V238.598H217.9Z" fill="#868686"/>
<path d="M221 232.898V234.198H222.2V234.798H221V237.198C221 237.798 221.2 238.098 221.6 238.098C221.8 238.098 222 238.098 222.1 237.998V238.598C221.9 238.698 221.7 238.698 221.4 238.698C221 238.698 220.7 238.598 220.5 238.398C220.3 238.198 220.2 237.798 220.2 237.198V234.798H219.5V234.198H220.2V233.098L221 232.898Z" fill="#868686"/>
<path d="M224 232.898C224 233.198 223.8 233.398 223.5 233.398C223.2 233.398 223 233.198 223 232.898C223 232.598 223.2 232.398 223.5 232.398C223.8 232.398 224 232.598 224 232.898ZM223.1 238.598V234.198H223.9V238.598H223.1Z" fill="#868686"/>
<path d="M225.5 234.102L226.4 236.602C226.5 237.002 226.7 237.402 226.8 237.702C226.9 237.302 227 237.002 227.2 236.602L228.1 234.102H228.9L227.2 238.502H226.4L224.7 234.102H225.5Z" fill="#868686"/>
<path d="M233.5 236.3C233.5 237.9 232.4 238.7 231.3 238.7C230.1 238.7 229.2 237.8 229.2 236.4C229.2 234.9 230.2 234 231.4 234C232.7 234 233.5 235 233.5 236.3ZM230 236.4C230 237.4 230.6 238.1 231.3 238.1C232.1 238.1 232.6 237.4 232.6 236.4C232.6 235.6 232.2 234.7 231.3 234.7C230.4 234.6 230 235.5 230 236.4Z" fill="#868686"/>
<path d="M113.7 12C113.6 12 113.6 12 113.5 12L106.8 18.5C106.8 18.5 106.7 18.6 106.8 18.7C106.8 18.8 106.9 18.8 106.9 18.8H113.6C113.7 18.8 113.8 18.7 113.8 18.6V12.1C113.8 12 113.7 12 113.7 12ZM110.6 15.3L111.9 14.1V18.5H110.6V15.3ZM110.3 18.4H109V16.8L110.3 15.6V18.4ZM108.7 17.1V18.4H107.3L108.7 17.1ZM113.5 18.4H112.2V13.7L113.5 12.5V18.4Z" fill="#3F3F3F"/>
<path d="M109.6 14.6992C110 14.6992 110.2 14.3992 110.2 14.0992V13.7992C110.2 13.6992 110.1 13.5992 110 13.5992H109.7C109.6 13.5992 109.5 13.6992 109.5 13.7992C109.5 13.8992 109.6 13.9992 109.7 13.9992H109.9V14.1992C109.9 14.3992 109.8 14.4992 109.6 14.4992C109.4 14.4992 109.3 14.3992 109.3 14.1992V13.2992C109.3 13.0992 109.4 12.9992 109.6 12.9992C109.8 12.9992 109.9 13.0992 109.9 13.2992C109.9 13.3992 110 13.4992 110.1 13.4992C110.2 13.4992 110.3 13.3992 110.3 13.2992C110.3 12.9992 110 12.6992 109.7 12.6992C109.4 12.6992 109.1 12.9992 109.1 13.2992V14.1992C109 14.4992 109.3 14.6992 109.6 14.6992Z" fill="#3F3F3F"/>
<path d="M107.5 14.0992H108.3V14.5992C108.3 14.6992 108.4 14.7992 108.5 14.7992C108.6 14.7992 108.7 14.6992 108.7 14.5992V13.6992C108.7 13.5992 108.6 13.4992 108.5 13.4992C108.4 13.4992 108.3 13.5992 108.3 13.6992V13.8992H107.8L108.3 12.8992C108.3 12.7992 108.3 12.6992 108.2 12.6992C108.1 12.6992 108 12.6992 108 12.7992L107.4 13.9992C107.4 13.9992 107.4 14.0992 107.4 14.1992C107.4 14.0992 107.5 14.0992 107.5 14.0992Z" fill="#3F3F3F"/>
<path d="M236.8 13.1992C235.4 13.1992 234.2 14.3992 234.2 15.7992C234.2 16.4992 234.5 17.1992 235 17.5992C234.9 17.6992 234.8 17.8992 234.6 18.0992C234.5 18.1992 234.5 18.3992 234.6 18.4992C234.7 18.4992 234.7 18.5992 234.8 18.5992C234.9 18.5992 235 18.5992 235 18.4992C235 18.4992 235.2 18.1992 235.4 17.9992C235.8 18.2992 236.3 18.3992 236.8 18.3992C237.3 18.3992 237.8 18.1992 238.2 17.9992C238.3 18.1992 238.6 18.4992 238.6 18.4992C238.7 18.5992 238.7 18.5992 238.8 18.5992C238.9 18.5992 238.9 18.5992 239 18.4992C239.1 18.3992 239.1 18.1992 239 18.0992C238.8 17.8992 238.7 17.6992 238.6 17.5992C239.1 17.0992 239.4 16.4992 239.4 15.7992C239.4 14.2992 238.3 13.1992 236.8 13.1992ZM234.7 15.7992C234.7 14.5992 235.6 13.6992 236.8 13.6992C238 13.6992 238.9 14.5992 238.9 15.7992C238.9 16.9992 238 17.8992 236.8 17.8992C235.7 17.8992 234.7 16.8992 234.7 15.7992Z" fill="#3F3F3F"/>
<path d="M237 15.4V14.7C237 14.6 236.9 14.5 236.8 14.5C236.7 14.5 236.6 14.6 236.6 14.7V15.4C236.5 15.4 236.4 15.5 236.4 15.6H235.2C235.1 15.6 235 15.7 235 15.8C235 15.9 235.1 16 235.2 16H236.4C236.5 16.1 236.6 16.2 236.7 16.2C236.9 16.2 237.1 16 237.1 15.8C237.2 15.6 237.1 15.5 237 15.4Z" fill="#3F3F3F"/>
<path d="M234.2 13.1008C233.8 13.5008 233.8 14.1008 234.1 14.5008L235.5 13.1008C235.2 12.7008 234.6 12.7008 234.2 13.1008Z" fill="#3F3F3F"/>
<path d="M239.5 13.1008C239.1 12.7008 238.5 12.7008 238.1 13.1008L239.5 14.5008C239.9 14.1008 239.9 13.5008 239.5 13.1008Z" fill="#3F3F3F"/>
<path d="M268.3 14.0008H267.6V13.3008C267.6 13.0008 267.4 12.8008 267.1 12.8008H258.6C258.3 12.8008 258.1 13.0008 258.1 13.3008V18.0008C258.1 18.3008 258.3 18.5008 258.6 18.5008H267.1C267.4 18.5008 267.6 18.3008 267.6 18.0008V17.3008H268.3C268.6 17.3008 268.8 17.1008 268.8 16.8008V14.5008C268.8 14.2008 268.6 14.0008 268.3 14.0008ZM259.1 13.8008H262V17.5008H259.1V13.8008Z" fill="#3F3F3F"/>
<path d="M243.2 15.4984H243.7C244 15.4984 244.2 15.3984 244.4 15.2984C244.6 15.1984 244.6 14.9984 244.6 14.6984C244.6 14.0984 244.3 13.8984 243.8 13.8984C243.5 13.8984 243.3 13.9984 243.2 14.0984C243 14.1984 243 14.3984 243 14.6984H242.4C242.4 14.2984 242.5 13.9984 242.8 13.7984C243.1 13.5984 243.4 13.3984 243.8 13.3984C244.2 13.3984 244.6 13.4984 244.8 13.7984C245.1 13.9984 245.2 14.3984 245.2 14.7984C245.2 14.9984 245.1 15.1984 245 15.3984C244.9 15.5984 244.7 15.6984 244.5 15.7984C244.8 15.8984 245 15.9984 245.1 16.1984C245.2 16.3984 245.3 16.5984 245.3 16.8984C245.3 17.2984 245.2 17.6984 244.9 17.8984C244.6 18.0984 244.3 18.2984 243.8 18.2984C243.3 18.2984 243 18.1984 242.7 17.8984C242.4 17.6984 242.3 17.2984 242.3 16.8984H242.9C242.9 17.0984 243 17.2984 243.1 17.4984C243.3 17.5984 243.5 17.6984 243.8 17.6984C244.1 17.6984 244.3 17.5984 244.5 17.4984C244.7 17.2984 244.7 17.0984 244.7 16.7984C244.7 16.4984 244.6 16.2984 244.4 16.1984C244.2 16.0984 244 15.9984 243.7 15.9984H243.2V15.4984Z" fill="#3F3F3F"/>
<path d="M248.5 13.5V14H248.4C247.9 14 247.6 14.1 247.3 14.4C247 14.7 246.9 15 246.8 15.5C247 15.2 247.4 15.1 247.8 15.1C248.2 15.1 248.5 15.2 248.8 15.5C249 15.8 249.2 16.2 249.2 16.6C249.2 17.1 249.1 17.5 248.8 17.8C248.5 18.1 248.2 18.2 247.7 18.2C247.2 18.2 246.9 18 246.6 17.7C246.3 17.4 246.2 16.9 246.2 16.4V16.2C246.2 15.3 246.4 14.7 246.8 14.2C247.2 13.7 247.7 13.5 248.5 13.5ZM247.7 15.6C247.5 15.6 247.3 15.7 247.1 15.8C246.9 15.9 246.8 16.1 246.7 16.3V16.5C246.7 16.9 246.8 17.2 247 17.4C247.2 17.6 247.4 17.8 247.7 17.8C248 17.8 248.2 17.7 248.3 17.5C248.5 17.3 248.5 17 248.5 16.7C248.5 16.4 248.4 16.1 248.3 15.9C248.1 15.7 247.9 15.6 247.7 15.6Z" fill="#3F3F3F"/>
<path d="M251.4 14.3984C251.4 14.0984 251.5 13.8984 251.7 13.6984C251.9 13.4984 252.1 13.3984 252.4 13.3984C252.7 13.3984 252.9 13.4984 253.1 13.6984C253.3 13.8984 253.4 14.0984 253.4 14.3984V14.5984C253.4 14.8984 253.3 15.0984 253.1 15.2984C252.9 15.4984 252.7 15.5984 252.4 15.5984C252.1 15.5984 251.9 15.4984 251.7 15.2984C251.5 15.0984 251.4 14.8984 251.4 14.5984V14.3984ZM251.9 14.5984C251.9 14.7984 251.9 14.8984 252 14.9984C252.1 15.0984 252.2 15.1984 252.4 15.1984C252.6 15.1984 252.7 15.0984 252.8 14.9984C252.9 14.8984 252.9 14.6984 252.9 14.5984V14.3984C252.9 14.1984 252.9 14.0984 252.8 13.9984C252.7 13.8984 252.6 13.7984 252.4 13.7984C252.2 13.7984 252.1 13.8984 252 13.9984C251.9 14.0984 251.9 14.2984 251.9 14.3984V14.5984ZM252.5 17.7984L252.2 17.5984L254.5 13.8984L254.8 14.0984L252.5 17.7984ZM253.7 16.9984C253.7 16.6984 253.8 16.4984 254 16.2984C254.2 16.0984 254.4 15.9984 254.7 15.9984C255 15.9984 255.2 16.0984 255.4 16.2984C255.6 16.4984 255.7 16.6984 255.7 16.9984V17.1984C255.7 17.4984 255.6 17.6984 255.4 17.8984C255.2 18.0984 255 18.1984 254.7 18.1984C254.4 18.1984 254.2 18.0984 254 17.8984C253.8 17.6984 253.7 17.4984 253.7 17.1984V16.9984ZM254.2 17.2984C254.2 17.4984 254.2 17.5984 254.3 17.6984C254.4 17.7984 254.5 17.8984 254.7 17.8984C254.9 17.8984 255 17.7984 255.1 17.6984C255.2 17.5984 255.2 17.3984 255.2 17.2984V16.9984C255.2 16.7984 255.2 16.6984 255.1 16.5984C255 16.4984 254.9 16.3984 254.7 16.3984C254.5 16.3984 254.4 16.4984 254.3 16.5984C254.2 16.6984 254.2 16.8984 254.2 16.9984V17.2984Z" fill="#3F3F3F"/>
<path d="M272.7 18.2H272.1V14.2L270.9 14.6V14.1L272.6 13.5H272.7V18.2Z" fill="#3F3F3F"/>
<path d="M277.6 18.2H274.5V17.8L276.1 16C276.3 15.7 276.5 15.5 276.6 15.3C276.7 15.1 276.7 14.9 276.7 14.8C276.7 14.6 276.6 14.4 276.5 14.2C276.4 14 276.2 14 275.9 14C275.6 14 275.4 14.1 275.2 14.3C275 14.5 275 14.7 275 15H274.4C274.4 14.6 274.5 14.2 274.8 13.9C275.1 13.6 275.5 13.5 275.9 13.5C276.3 13.5 276.7 13.6 276.9 13.8C277.2 14 277.3 14.3 277.3 14.7C277.3 15.2 277 15.7 276.4 16.4L275.1 17.8H277.5V18.2H277.6Z" fill="#3F3F3F"/>
<path d="M278.3 17.9016C278.3 17.8016 278.3 17.7016 278.4 17.6016C278.5 17.5016 278.6 17.5016 278.7 17.5016C278.8 17.5016 278.9 17.5016 279 17.6016C279.1 17.7016 279.1 17.8016 279.1 17.9016C279.1 18.0016 279.1 18.1016 279 18.2016C278.9 18.3016 278.8 18.3016 278.7 18.3016C278.6 18.3016 278.5 18.3016 278.4 18.2016C278.3 18.1016 278.3 18.0016 278.3 17.9016ZM278.3 15.0016C278.3 14.9016 278.3 14.8016 278.4 14.7016C278.5 14.6016 278.6 14.6016 278.7 14.6016C278.8 14.6016 278.9 14.6016 279 14.7016C279.1 14.8016 279.1 14.9016 279.1 15.0016C279.1 15.1016 279.1 15.2016 279 15.3016C278.9 15.4016 278.8 15.4016 278.7 15.4016C278.6 15.4016 278.5 15.4016 278.4 15.3016C278.3 15.2016 278.3 15.1016 278.3 15.0016Z" fill="#3F3F3F"/>
<path d="M281.8 18.2H281.2V14.2L280 14.6V14.1L281.7 13.5H281.8V18.2Z" fill="#3F3F3F"/>
<path d="M286.7 18.2H283.6V17.8L285.2 16C285.4 15.7 285.6 15.5 285.7 15.3C285.8 15.1 285.8 14.9 285.8 14.8C285.8 14.6 285.7 14.4 285.6 14.2C285.5 14 285.3 14 285 14C284.7 14 284.5 14.1 284.3 14.3C284.1 14.5 284.1 14.7 284.1 15H283.5C283.5 14.6 283.6 14.2 283.9 13.9C284.2 13.6 284.6 13.5 285 13.5C285.4 13.5 285.8 13.6 286 13.8C286.3 14 286.4 14.3 286.4 14.7C286.4 15.2 286.1 15.7 285.5 16.4L284.2 17.8H286.6V18.2H286.7Z" fill="#3F3F3F"/>
<path d="M281.4 184.301H110.6V185.201H281.4V184.301Z" fill="#9E42E1"/>
<path d="M116.3 175.898L116.2 176.998C116.2 177.098 116.2 177.098 116.3 177.198C116.3 177.198 116.4 177.298 116.5 177.298H117.3C117.4 177.298 117.4 177.298 117.5 177.198C117.5 177.198 117.6 177.098 117.6 176.998L117.5 175.898C117.7 175.698 117.8 175.498 117.8 175.198C117.8 174.798 117.4 174.398 117 174.398C116.6 174.398 116.2 174.798 116.2 175.198C115.9 175.498 116 175.698 116.3 175.898ZM116.7 174.798C116.9 174.798 117.1 174.998 117.1 175.198C117.1 175.398 117 175.498 116.9 175.598C116.8 175.598 116.8 175.698 116.8 175.798L116.9 176.898H116.5L116.6 175.798C116.6 175.698 116.6 175.598 116.5 175.598C116.4 175.498 116.3 175.398 116.3 175.198C116.3 174.998 116.5 174.798 116.7 174.798Z" fill="#3F3F3F"/>
<path d="M120.2 172.799H119.6V171.999C119.6 170.399 118.3 169.199 116.8 169.199C115.2 169.199 114 170.499 114 171.999V172.799H113.4C113.3 172.799 113.2 172.899 113.2 172.999V178.099C113.2 178.499 113.6 178.899 114 178.899H119.7C120.1 178.899 120.5 178.499 120.5 178.099V172.999C120.4 172.899 120.3 172.799 120.2 172.799ZM114.3 171.999C114.3 170.699 115.4 169.599 116.7 169.599C118 169.599 119.1 170.699 119.1 171.999V172.799H118.7V171.999C118.7 170.899 117.8 169.999 116.7 169.999C115.6 169.999 114.7 170.899 114.7 171.999V172.799H114.3V171.999ZM118.4 172.799H115.2V171.999C115.2 171.099 115.9 170.399 116.8 170.399C117.7 170.399 118.4 171.099 118.4 171.999V172.799ZM120 178.099C120 178.299 119.8 178.499 119.6 178.499H113.9C113.7 178.499 113.5 178.299 113.5 178.099V173.199H120V178.099Z" fill="#3F3F3F"/>
<path d="M129 230.299C129 229.399 128.3 228.699 127.4 228.699H117C116.1 228.699 115.4 229.399 115.4 230.299V240.799C115.4 241.699 116.1 242.399 117 242.399H127.5C128.4 242.399 129.1 241.699 129.1 240.799V230.299H129Z" fill="#972CE4"/>
<path d="M127.6 231.999C128 232.399 128 232.899 127.6 233.299L121.7 239.199C121.5 239.399 121.3 239.499 121.1 239.499C120.9 239.499 120.6 239.399 120.5 239.199L117.6 236.299C117.2 235.899 117.2 235.399 117.6 234.999C118 234.599 118.5 234.599 118.9 234.999L121.2 237.299L126.5 231.999C126.6 231.599 127.2 231.599 127.6 231.999Z" fill="#FAFAFA"/>
<path d="M250.9 240.999C253.882 240.999 256.3 238.582 256.3 235.599C256.3 232.617 253.882 230.199 250.9 230.199C247.918 230.199 245.5 232.617 245.5 235.599C245.5 238.582 247.918 240.999 250.9 240.999Z" fill="#0068B0"/>
<path d="M251.3 232.5H250.4V234.3H251.3V232.5Z" fill="white"/>
<path d="M251.3 234.801H250.4V238.701H251.3V234.801Z" fill="white"/>
<path d="M135.4 134.401C144.402 134.401 151.7 127.103 151.7 118.101C151.7 109.099 144.402 101.801 135.4 101.801C126.398 101.801 119.1 109.099 119.1 118.101C119.1 127.103 126.398 134.401 135.4 134.401Z" fill="#DBE6E9" stroke="#ECF1F5" stroke-width="0.4426" stroke-miterlimit="10"/>
<path d="M135.4 125.499C139.487 125.499 142.8 122.186 142.8 118.099C142.8 114.012 139.487 110.699 135.4 110.699C131.313 110.699 128 114.012 128 118.099C128 122.186 131.313 125.499 135.4 125.499Z" fill="white" stroke="#9E42E1" stroke-width="0.4426" stroke-miterlimit="10"/>
</svg>
