<svg width="392" height="262" viewBox="0 0 392 262" fill="none" xmlns="http://www.w3.org/2000/svg">
<path d="M392 0H0V262H392V0Z" fill="#F6F6F6"/>
<path d="M325.4 235H66.6001C61.7001 235 57.7001 231 57.7001 226.1V35.9C57.7001 31 61.7001 27 66.6001 27H325.3C330.2 27 334.2 31 334.2 35.9V226.2C334.2 231 330.3 235 325.4 235Z" fill="white"/>
<path d="M325.4 235.902H66.6C61.2 235.902 56.8 231.502 56.8 226.102V35.9016C56.8 30.5016 61.2 26.1016 66.6 26.1016H325.3C330.7 26.1016 335.1 30.5016 335.1 35.9016V226.202C335.1 231.502 330.7 235.902 325.4 235.902ZM66.6 27.9016C62.2 27.9016 58.6 31.5016 58.6 35.9016V226.202C58.6 230.602 62.2 234.202 66.6 234.202H325.3C329.7 234.202 333.3 230.602 333.3 226.202V35.9016C333.3 31.5016 329.7 27.9016 325.3 27.9016H66.6Z" fill="#ECF1F5"/>
<path d="M83.9001 62.5008V62.8008C84.0001 63.5008 83.7001 64.3008 83.1001 65.1008C82.5001 65.8008 82.2001 66.3008 82.2001 66.9008C82.2001 67.6008 82.6001 68.0008 83.5001 68.0008C84.0001 68.0008 84.5001 67.9008 84.9001 67.6008L85.2001 68.5008C84.7001 68.8008 84.0001 69.0008 83.3001 69.0008C81.8001 69.0008 81.1001 68.1008 81.1001 67.0008C81.1001 66.1008 81.6001 65.4008 82.3001 64.7008C82.9001 64.0008 83.1001 63.4008 83.0001 62.7008V62.4008H83.9001V62.5008ZM84.2001 60.6008C84.2001 61.1008 83.9001 61.4008 83.4001 61.4008C82.9001 61.4008 82.6001 61.0008 82.6001 60.6008C82.6001 60.1008 82.9001 59.8008 83.4001 59.8008C83.9001 59.8008 84.2001 60.1008 84.2001 60.6008Z" fill="#140603"/>
<path d="M94.1001 67.5992C92.9001 67.2992 91.7001 66.8992 90.7001 66.5992C90.5001 66.4992 90.3001 66.4992 90.2001 66.4992C88.1001 66.3992 86.2001 64.7992 86.2001 61.8992C86.2001 58.9992 88.0001 57.1992 90.4001 57.1992C92.8001 57.1992 94.4001 59.0992 94.4001 61.7992C94.4001 64.0992 93.3001 65.5992 91.8001 66.0992V66.1992C92.7001 66.3992 93.7001 66.5992 94.4001 66.7992L94.1001 67.5992ZM93.1001 61.7992C93.1001 59.9992 92.2001 58.0992 90.3001 58.0992C88.3001 58.0992 87.4001 59.8992 87.4001 61.8992C87.4001 63.7992 88.4001 65.4992 90.3001 65.4992C92.1001 65.4992 93.1001 63.7992 93.1001 61.7992Z" fill="#140603"/>
<path d="M101.3 64.5008C101.3 65.2008 101.3 65.8008 101.4 66.3008H100.4L100.3 65.2008C100 65.7008 99.3001 66.4008 98.2001 66.4008C97.2001 66.4008 96.0001 65.8008 96.0001 63.6008V59.8008H97.0001V63.4008C97.0001 64.6008 97.4001 65.5008 98.4001 65.5008C99.2001 65.5008 99.7001 65.0008 99.9001 64.4008C100 64.2008 100 64.0008 100 63.8008V59.8008H101.2V64.5008H101.3Z" fill="#140603"/>
<path d="M103.9 63.3C103.9 64.9 104.9 65.5 106.1 65.5C106.9 65.5 107.5 65.4 107.9 65.2L108.1 66C107.7 66.2 107 66.4 105.9 66.4C103.9 66.4 102.7 65.1 102.7 63.1C102.7 61.1 103.9 59.6 105.7 59.6C107.8 59.6 108.4 61.5 108.4 62.6C108.4 62.8 108.4 63 108.4 63.1H103.9V63.3ZM107.3 62.4C107.3 61.7 107 60.5 105.7 60.5C104.5 60.5 104 61.6 103.9 62.4H107.3ZM107.6 57L106 58.9H105.2L106.4 57H107.6Z" fill="#140603"/>
<path d="M112.8 61.9016C112.8 61.1016 112.8 60.4016 112.7 59.8016H113.8L113.9 60.9016C114.4 60.1016 115.1 59.6016 116.2 59.6016C117.8 59.6016 118.9 60.9016 118.9 62.9016C118.9 65.2016 117.5 66.4016 116 66.4016C115.1 66.4016 114.4 66.0016 114 65.4016V68.9016H112.8V61.9016ZM113.9 63.7016C113.9 63.9016 113.9 64.0016 114 64.2016C114.2 65.0016 114.9 65.6016 115.8 65.6016C117 65.6016 117.8 64.6016 117.8 63.1016C117.8 61.8016 117.1 60.7016 115.9 60.7016C115.1 60.7016 114.3 61.3016 114.1 62.2016C114.1 62.3016 114 62.5016 114 62.7016V63.7016H113.9Z" fill="#140603"/>
<path d="M124 66.2992L123.9 65.4992C123.5 65.9992 122.8 66.4992 121.9 66.4992C120.6 66.4992 119.9 65.5992 119.9 64.5992C119.9 62.9992 121.3 62.1992 123.8 62.1992V62.0992C123.8 61.5992 123.7 60.5992 122.3 60.5992C121.7 60.5992 121.1 60.7992 120.6 61.0992L120.3 60.2992C120.8 59.9992 121.6 59.6992 122.4 59.6992C124.4 59.6992 124.9 60.9992 124.9 62.2992V64.6992C124.9 65.2992 124.9 65.7992 125 66.2992H124ZM123.8 62.9992C122.5 62.9992 121.1 63.1992 121.1 64.4992C121.1 65.2992 121.6 65.5992 122.2 65.5992C123 65.5992 123.6 65.0992 123.8 64.4992C123.8 64.3992 123.9 64.1992 123.9 64.0992V62.9992H123.8Z" fill="#140603"/>
<path d="M132.4 59.8008C132.4 60.3008 132.3 60.8008 132.3 61.6008V65.4008C132.3 66.9008 132 67.8008 131.4 68.4008C130.8 69.0008 129.9 69.2008 129 69.2008C128.2 69.2008 127.4 69.0008 126.8 68.7008L127.1 67.8008C127.5 68.1008 128.2 68.3008 129 68.3008C130.2 68.3008 131.1 67.7008 131.1 66.0008V65.3008C130.7 65.9008 130 66.4008 129 66.4008C127.4 66.4008 126.2 65.0008 126.2 63.2008C126.2 61.0008 127.6 59.8008 129.1 59.8008C130.2 59.8008 130.8 60.4008 131.1 60.9008L131.2 59.9008H132.4V59.8008ZM131.2 62.4008C131.2 62.2008 131.2 62.0008 131.1 61.9008C130.9 61.2008 130.3 60.7008 129.5 60.7008C128.4 60.7008 127.6 61.6008 127.6 63.1008C127.6 64.4008 128.2 65.4008 129.5 65.4008C130.2 65.4008 130.9 64.9008 131.1 64.2008C131.2 64.0008 131.2 63.8008 131.2 63.6008V62.4008Z" fill="#140603"/>
<path d="M140.2 62.9992C140.2 65.3992 138.5 66.3992 137 66.3992C135.2 66.3992 133.9 65.0992 133.9 63.0992C133.9 60.8992 135.3 59.6992 137.1 59.6992C138.9 59.6992 140.2 60.9992 140.2 62.9992ZM135 63.0992C135 64.4992 135.8 65.5992 137 65.5992C138.1 65.5992 139 64.4992 139 63.0992C139 61.9992 138.5 60.5992 137.1 60.5992C135.6 60.5992 135 61.8992 135 63.0992Z" fill="#140603"/>
<path d="M148.9 65.2992C148.5 65.8992 147.8 66.4992 146.8 66.4992C145.3 66.4992 144.1 65.1992 144.1 63.1992C144.1 60.7992 145.7 59.6992 147 59.6992C148 59.6992 148.7 60.1992 149 60.7992V59.7992H150.1C150.1 60.2992 150.1 60.8992 150.1 61.5992V68.8992H148.9V65.2992ZM148.9 62.4992C148.9 62.2992 148.9 62.1992 148.8 61.9992C148.6 61.2992 148 60.6992 147.1 60.6992C145.9 60.6992 145.1 61.6992 145.1 63.1992C145.1 64.4992 145.7 65.5992 147 65.5992C147.8 65.5992 148.4 65.0992 148.7 64.2992C148.8 64.0992 148.8 63.8992 148.8 63.6992V62.4992H148.9Z" fill="#140603"/>
<path d="M157.4 64.5008C157.4 65.2008 157.4 65.8008 157.5 66.3008H156.5L156.4 65.2008C156.1 65.7008 155.4 66.4008 154.3 66.4008C153.3 66.4008 152.1 65.8008 152.1 63.6008V59.8008H153.3V63.4008C153.3 64.6008 153.7 65.5008 154.7 65.5008C155.5 65.5008 156 65.0008 156.3 64.4008C156.4 64.2008 156.4 64.0008 156.4 63.8008V59.8008H157.6V64.5008H157.4Z" fill="#140603"/>
<path d="M160.7 58.0008C160.7 58.4008 160.4 58.7008 160 58.7008C159.6 58.7008 159.3 58.4008 159.3 58.0008C159.3 57.6008 159.6 57.3008 160 57.3008C160.4 57.3008 160.7 57.6008 160.7 58.0008ZM159.4 66.3008V59.8008H160.6V66.3008H159.4Z" fill="#140603"/>
<path d="M163.2 63.3016C163.2 64.9016 164.2 65.5016 165.4 65.5016C166.2 65.5016 166.7 65.4016 167.2 65.2016L167.4 66.0016C167 66.2016 166.3 66.4016 165.2 66.4016C163.2 66.4016 162 65.1016 162 63.1016C162 61.1016 163.1 59.6016 165 59.6016C167.1 59.6016 167.7 61.5016 167.7 62.6016C167.7 62.8016 167.7 63.0016 167.7 63.1016H163.2V63.3016ZM166.6 62.4016C166.6 61.7016 166.3 60.5016 165 60.5016C163.8 60.5016 163.3 61.6016 163.2 62.4016H166.6Z" fill="#140603"/>
<path d="M169.2 61.9008C169.2 61.1008 169.2 60.5008 169.1 59.9008H170.1V61.2008H170.2C170.5 60.3008 171.2 59.8008 172 59.8008C172.1 59.8008 172.2 59.8008 172.3 59.8008V60.9008C172.2 60.9008 172.1 60.9008 171.9 60.9008C171.1 60.9008 170.5 61.5008 170.3 62.4008C170.3 62.6008 170.2 62.7008 170.2 62.9008V66.3008H169V61.9008H169.2Z" fill="#140603"/>
<path d="M174.1 63.3016C174.1 64.9016 175.1 65.5016 176.3 65.5016C177.1 65.5016 177.6 65.4016 178.1 65.2016L178.3 66.0016C177.9 66.2016 177.2 66.4016 176.1 66.4016C174.1 66.4016 172.9 65.1016 172.9 63.1016C172.9 61.1016 174 59.6016 175.9 59.6016C178 59.6016 178.6 61.5016 178.6 62.6016C178.6 62.8016 178.6 63.0016 178.6 63.1016H174.1V63.3016ZM177.5 62.4016C177.5 61.7016 177.2 60.5016 175.9 60.5016C174.7 60.5016 174.2 61.6016 174.1 62.4016H177.5Z" fill="#140603"/>
<path d="M180 65.0992C180.3 65.2992 181 65.5992 181.6 65.5992C182.5 65.5992 182.9 65.1992 182.9 64.5992C182.9 63.9992 182.6 63.6992 181.7 63.3992C180.5 62.9992 180 62.2992 180 61.5992C180 60.5992 180.8 59.6992 182.2 59.6992C182.9 59.6992 183.4 59.8992 183.8 60.0992L183.5 60.9992C183.2 60.7992 182.8 60.5992 182.2 60.5992C181.5 60.5992 181.1 60.9992 181.1 61.4992C181.1 61.9992 181.5 62.2992 182.3 62.5992C183.4 62.9992 184 63.5992 184 64.5992C184 65.6992 183.1 66.4992 181.6 66.4992C180.9 66.4992 180.2 66.2992 179.8 66.0992L180 65.0992Z" fill="#140603"/>
<path d="M188.3 61.9008C188.3 61.1008 188.3 60.5008 188.2 59.9008H189.2V61.2008H189.3C189.6 60.3008 190.3 59.8008 191.1 59.8008C191.2 59.8008 191.3 59.8008 191.4 59.8008V60.9008C191.3 60.9008 191.2 60.9008 191 60.9008C190.2 60.9008 189.6 61.5008 189.4 62.4008C189.4 62.6008 189.3 62.7008 189.3 62.9008V66.3008H188.1V61.9008H188.3Z" fill="#140603"/>
<path d="M193.2 63.3016C193.2 64.9016 194.2 65.5016 195.4 65.5016C196.2 65.5016 196.7 65.4016 197.2 65.2016L197.4 66.0016C197 66.2016 196.3 66.4016 195.2 66.4016C193.2 66.4016 192 65.1016 192 63.1016C192 61.1016 193.1 59.6016 195 59.6016C197.1 59.6016 197.7 61.5016 197.7 62.6016C197.7 62.8016 197.7 63.0016 197.7 63.1016H193.2V63.3016ZM196.6 62.4016C196.6 61.7016 196.3 60.5016 195 60.5016C193.8 60.5016 193.3 61.6016 193.2 62.4016H196.6Z" fill="#140603"/>
<path d="M202.8 66.2992L202.7 65.4992C202.3 65.9992 201.6 66.4992 200.7 66.4992C199.4 66.4992 198.7 65.5992 198.7 64.5992C198.7 62.9992 200.1 62.1992 202.6 62.1992V62.0992C202.6 61.5992 202.5 60.5992 201.1 60.5992C200.5 60.5992 199.9 60.7992 199.4 61.0992L199.1 60.2992C199.6 59.9992 200.4 59.6992 201.2 59.6992C203.2 59.6992 203.7 60.9992 203.7 62.2992V64.6992C203.7 65.2992 203.7 65.7992 203.8 66.2992H202.8ZM202.6 62.9992C201.3 62.9992 199.9 63.1992 199.9 64.4992C199.9 65.2992 200.4 65.5992 201 65.5992C201.8 65.5992 202.4 65.0992 202.6 64.4992C202.6 64.3992 202.7 64.1992 202.7 64.0992V62.9992H202.6Z" fill="#140603"/>
<path d="M205.7 56.8008H206.9V66.3008H205.7V56.8008Z" fill="#140603"/>
<path d="M210.1 58.0008C210.1 58.4008 209.8 58.7008 209.4 58.7008C209 58.7008 208.7 58.4008 208.7 58.0008C208.7 57.6008 209 57.3008 209.4 57.3008C209.8 57.3008 210.1 57.6008 210.1 58.0008ZM208.8 66.3008V59.8008H210V66.3008H208.8Z" fill="#140603"/>
<path d="M211.2 65.6023L214.1 61.8023C214.4 61.5023 214.6 61.1023 214.9 60.8023H211.4V59.9023H216.3V60.6023L213.4 64.4023C213.1 64.8023 212.9 65.1023 212.6 65.4023H216.4V66.3023H211.1V65.6023H211.2Z" fill="#140603"/>
<path d="M221.2 66.2992L221.1 65.4992C220.7 65.9992 220 66.4992 219.1 66.4992C217.8 66.4992 217.1 65.5992 217.1 64.5992C217.1 62.9992 218.5 62.1992 221 62.1992V62.0992C221 61.5992 220.9 60.5992 219.5 60.5992C218.9 60.5992 218.3 60.7992 217.8 61.0992L217.5 60.2992C218 59.9992 218.8 59.6992 219.6 59.6992C221.6 59.6992 222.1 60.9992 222.1 62.2992V64.6992C222.1 65.2992 222.1 65.7992 222.2 66.2992H221.2ZM221.1 62.9992C219.8 62.9992 218.4 63.1992 218.4 64.4992C218.4 65.2992 218.9 65.5992 219.5 65.5992C220.3 65.5992 220.9 65.0992 221.1 64.4992C221.1 64.3992 221.2 64.1992 221.2 64.0992V62.9992H221.1Z" fill="#140603"/>
<path d="M224.1 61.9008C224.1 61.1008 224.1 60.5008 224 59.9008H225V61.2008H225.1C225.4 60.3008 226.1 59.8008 226.9 59.8008C227 59.8008 227.1 59.8008 227.2 59.8008V60.9008C227.1 60.9008 227 60.9008 226.8 60.9008C226 60.9008 225.4 61.5008 225.2 62.4008C225.2 62.6008 225.1 62.7008 225.1 62.9008V66.3008H223.9V61.9008H224.1Z" fill="#140603"/>
<path d="M229.4 63.7008V63.4008C229.3 62.7008 229.6 61.9008 230.2 61.1008C230.8 60.4008 231.1 59.9008 231.1 59.3008C231.1 58.6008 230.7 58.2008 229.8 58.2008C229.3 58.2008 228.8 58.4008 228.5 58.6008L228.2 57.8008C228.6 57.5008 229.4 57.3008 230.1 57.3008C231.6 57.3008 232.3 58.2008 232.3 59.3008C232.3 60.2008 231.8 60.9008 231.2 61.6008C230.6 62.3008 230.4 62.9008 230.4 63.6008V63.9008H229.4V63.7008ZM229.1 65.6008C229.1 65.1008 229.4 64.8008 229.9 64.8008C230.4 64.8008 230.7 65.1008 230.7 65.6008C230.7 66.1008 230.4 66.4008 229.9 66.4008C229.4 66.4008 229.1 66.1008 229.1 65.6008Z" fill="#140603"/>
<path d="M83.6 92.6031H81.5V94.5031H83.8V95.1031H80.8V89.7031H83.7V90.3031H81.5V92.0031H83.6V92.6031Z" fill="#140603"/>
<path d="M84.7001 89.4023H85.4001V95.0023H84.7001V89.4023Z" fill="#140603"/>
<path d="M87.4001 90.2034C87.4001 90.4034 87.2001 90.6034 87.0001 90.6034C86.8001 90.6034 86.6001 90.4034 86.6001 90.2034C86.6001 90.0034 86.8001 89.8034 87.0001 89.8034C87.2001 89.7034 87.4001 89.9034 87.4001 90.2034ZM86.6001 95.1034V91.3034H87.3001V95.1034H86.6001Z" fill="#140603"/>
<path d="M91.8 91.2031C91.8 91.5031 91.8 91.8031 91.8 92.3031V94.5031C91.8 95.4031 91.6 95.9031 91.3 96.3031C90.9 96.6031 90.4 96.8031 89.9 96.8031C89.4 96.8031 88.9 96.7031 88.6 96.5031L88.8 96.0031C89.1 96.2031 89.5 96.3031 89.9 96.3031C90.6 96.3031 91.1 95.9031 91.1 95.0031V94.6031C90.9 95.0031 90.5 95.2031 89.9 95.2031C88.9 95.2031 88.3 94.4031 88.3 93.3031C88.3 92.0031 89.2 91.3031 90 91.3031C90.7 91.3031 91 91.7031 91.2 92.0031V91.4031H91.8V91.2031ZM91 92.8031C91 92.7031 91 92.6031 91 92.5031C90.9 92.1031 90.5 91.8031 90 91.8031C89.3 91.8031 88.9 92.4031 88.9 93.3031C88.9 94.1031 89.3 94.7031 90 94.7031C90.4 94.7031 90.8 94.4031 91 94.0031C91 93.9031 91.1 93.7031 91.1 93.6031V92.8031H91Z" fill="#140603"/>
<path d="M93.3001 93.3016C93.3001 94.2016 93.9001 94.6016 94.6001 94.6016C95.1001 94.6016 95.4001 94.5016 95.7001 94.4016L95.8001 94.9016C95.6001 95.0016 95.1001 95.1016 94.5001 95.1016C93.3001 95.1016 92.6001 94.3016 92.6001 93.2016C92.6001 92.0016 93.3001 91.1016 94.4001 91.1016C95.7001 91.1016 96.0001 92.2016 96.0001 92.9016C96.0001 93.0016 96.0001 93.2016 96.0001 93.2016H93.3001V93.3016ZM95.3001 92.8016C95.3001 92.4016 95.1001 91.7016 94.3001 91.7016C93.6001 91.7016 93.3001 92.4016 93.2001 92.8016H95.3001Z" fill="#140603"/>
<path d="M101.8 94.0039C101.8 94.4039 101.8 94.7039 101.8 95.0039H101.2V94.4039C101 94.7039 100.6 95.1039 99.9001 95.1039C99.3001 95.1039 98.6001 94.8039 98.6001 93.4039V91.1039H99.3001V93.2039C99.3001 93.9039 99.5001 94.4039 100.2 94.4039C100.7 94.4039 101 94.1039 101.1 93.8039C101.1 93.7039 101.2 93.6039 101.2 93.4039V91.0039H101.9V94.0039H101.8Z" fill="#140603"/>
<path d="M102.9 92.3031C102.9 91.9031 102.9 91.6031 102.9 91.3031H103.5V91.9031C103.7 91.5031 104.1 91.2031 104.8 91.2031C105.3 91.2031 106.2 91.5031 106.2 92.8031V95.1031H105.5V92.9031C105.5 92.3031 105.3 91.8031 104.6 91.8031C104.1 91.8031 103.8 92.1031 103.7 92.5031C103.7 92.6031 103.7 92.7031 103.7 92.8031V95.1031H103V92.3031H102.9Z" fill="#140603"/>
<path d="M109.5 95.1031L109.4 94.6031C109.2 94.9031 108.8 95.2031 108.2 95.2031C107.4 95.2031 107 94.7031 107 94.1031C107 93.2031 107.8 92.7031 109.3 92.7031V92.6031C109.3 92.3031 109.2 91.7031 108.4 91.7031C108 91.7031 107.7 91.8031 107.4 92.0031L107.2 91.5031C107.5 91.3031 108 91.2031 108.5 91.2031C109.7 91.2031 110 92.0031 110 92.8031V94.2031C110 94.5031 110 94.9031 110.1 95.1031H109.5ZM109.3 93.1031C108.5 93.1031 107.7 93.2031 107.7 94.0031C107.7 94.5031 108 94.7031 108.4 94.7031C108.9 94.7031 109.2 94.4031 109.3 94.1031C109.3 94.0031 109.3 93.9031 109.3 93.9031V93.1031Z" fill="#140603"/>
<path d="M115.6 94.9016C115.4 95.0016 115 95.1016 114.5 95.1016C113.3 95.1016 112.6 94.3016 112.6 93.1016C112.6 91.9016 113.4 91.1016 114.7 91.1016C115.1 91.1016 115.5 91.2016 115.7 91.3016L115.5 91.8016C115.3 91.7016 115.1 91.6016 114.7 91.6016C113.8 91.6016 113.3 92.3016 113.3 93.1016C113.3 94.0016 113.9 94.5016 114.6 94.5016C115 94.5016 115.3 94.4016 115.5 94.3016L115.6 94.9016Z" fill="#140603"/>
<path d="M118.5 95.1031L118.4 94.6031C118.2 94.9031 117.8 95.2031 117.2 95.2031C116.4 95.2031 116 94.7031 116 94.1031C116 93.2031 116.8 92.7031 118.3 92.7031V92.6031C118.3 92.3031 118.2 91.7031 117.4 91.7031C117 91.7031 116.7 91.8031 116.4 92.0031L116.2 91.5031C116.5 91.3031 117 91.2031 117.5 91.2031C118.7 91.2031 119 92.0031 119 92.8031V94.2031C119 94.5031 119 94.9031 119.1 95.1031H118.5ZM118.4 93.1031C117.6 93.1031 116.8 93.2031 116.8 94.0031C116.8 94.5031 117.1 94.7031 117.5 94.7031C118 94.7031 118.3 94.4031 118.4 94.1031C118.4 94.0031 118.4 93.9031 118.4 93.9031V93.1031Z" fill="#140603"/>
<path d="M121 90.1016V91.2016H122V91.7016H121V93.8016C121 94.3016 121.1 94.5016 121.5 94.5016C121.7 94.5016 121.8 94.5016 121.9 94.5016V95.0016C121.8 95.1016 121.6 95.1016 121.3 95.1016C121 95.1016 120.7 95.0016 120.5 94.8016C120.3 94.6016 120.2 94.3016 120.2 93.8016V91.7016H119.6V91.2016H120.2V90.3016L121 90.1016Z" fill="#140603"/>
<path d="M123.2 93.3016C123.2 94.2016 123.8 94.6016 124.5 94.6016C125 94.6016 125.3 94.5016 125.6 94.4016L125.7 94.9016C125.5 95.0016 125 95.1016 124.4 95.1016C123.2 95.1016 122.5 94.3016 122.5 93.2016C122.5 92.0016 123.2 91.1016 124.3 91.1016C125.6 91.1016 125.9 92.2016 125.9 92.9016C125.9 93.0016 125.9 93.2016 125.9 93.2016H123.2V93.3016ZM125.2 92.8016C125.2 92.4016 125 91.7016 124.2 91.7016C123.5 91.7016 123.2 92.4016 123.1 92.8016H125.2Z" fill="#140603"/>
<path d="M130.1 91.2031C130.1 91.5031 130.1 91.8031 130.1 92.3031V94.5031C130.1 95.4031 129.9 95.9031 129.6 96.3031C129.2 96.6031 128.7 96.8031 128.2 96.8031C127.7 96.8031 127.2 96.7031 126.9 96.5031L127.1 96.0031C127.4 96.2031 127.8 96.3031 128.2 96.3031C128.9 96.3031 129.4 95.9031 129.4 95.0031V94.6031C129.2 95.0031 128.8 95.2031 128.2 95.2031C127.2 95.2031 126.6 94.4031 126.6 93.3031C126.6 92.0031 127.5 91.3031 128.3 91.3031C129 91.3031 129.3 91.7031 129.5 92.0031V91.4031H130.1V91.2031ZM129.3 92.8031C129.3 92.7031 129.3 92.6031 129.3 92.5031C129.2 92.1031 128.8 91.8031 128.3 91.8031C127.6 91.8031 127.2 92.4031 127.2 93.3031C127.2 94.1031 127.6 94.7031 128.3 94.7031C128.7 94.7031 129.1 94.4031 129.3 94.0031C129.3 93.9031 129.4 93.7031 129.4 93.6031V92.8031H129.3Z" fill="#140603"/>
<path d="M134.7 93.1016C134.7 94.5016 133.7 95.1016 132.8 95.1016C131.8 95.1016 131 94.3016 131 93.1016C131 91.8016 131.8 91.1016 132.9 91.1016C133.9 91.1016 134.7 92.0016 134.7 93.1016ZM131.6 93.2016C131.6 94.0016 132.1 94.7016 132.8 94.7016C133.5 94.7016 134 94.1016 134 93.2016C134 92.5016 133.7 91.7016 132.8 91.7016C131.9 91.7016 131.6 92.4016 131.6 93.2016Z" fill="#140603"/>
<path d="M135.5 92.4031C135.5 91.9031 135.5 91.6031 135.5 91.2031H136.1V92.0031C136.3 91.5031 136.7 91.2031 137.2 91.2031C137.3 91.2031 137.3 91.2031 137.4 91.2031V91.9031C137.3 91.9031 137.3 91.9031 137.2 91.9031C136.7 91.9031 136.4 92.3031 136.3 92.8031C136.3 92.9031 136.3 93.0031 136.3 93.1031V95.2031H135.6V92.4031H135.5Z" fill="#140603"/>
<path d="M139.6 89.6016L138.6 90.7016H138.1L138.8 89.6016H139.6ZM138.2 95.1016V91.3016H138.9V95.1016H138.2Z" fill="#140603"/>
<path d="M142.2 95.1031L142.1 94.6031C141.9 94.9031 141.5 95.2031 140.9 95.2031C140.1 95.2031 139.7 94.7031 139.7 94.1031C139.7 93.2031 140.5 92.7031 142 92.7031V92.6031C142 92.3031 141.9 91.7031 141.1 91.7031C140.7 91.7031 140.4 91.8031 140.1 92.0031L139.9 91.5031C140.2 91.3031 140.7 91.2031 141.2 91.2031C142.4 91.2031 142.7 92.0031 142.7 92.8031V94.2031C142.7 94.5031 142.7 94.9031 142.8 95.1031H142.2ZM142.1 93.1031C141.3 93.1031 140.5 93.2031 140.5 94.0031C140.5 94.5031 140.8 94.7031 141.2 94.7031C141.7 94.7031 142 94.4031 142.1 94.1031C142.1 94.0031 142.1 93.9031 142.1 93.9031V93.1031Z" fill="#140603"/>
<path d="M84.5 106.6C84.3 106.7 83.8 106.8 83.1 106.8C81.6 106.8 80.5 105.9 80.5 104.2C80.5 102.6 81.6 101.5 83.2 101.5C83.9 101.5 84.3 101.6 84.4 101.7L84.2 102.3C83.9 102.2 83.6 102.1 83.1 102.1C81.9 102.1 81.1 102.9 81.1 104.3C81.1 105.6 81.8 106.4 83.1 106.4C83.5 106.4 83.9 106.3 84.2 106.2L84.5 106.6Z" fill="#6B6B6B"/>
<path d="M88.6 104.9C88.6 106.3 87.6 106.9 86.7 106.9C85.7 106.9 84.9 106.2 84.9 105C84.9 103.7 85.7 103 86.8 103C87.9 103 88.6 103.8 88.6 104.9ZM85.6 104.9C85.6 105.7 86.1 106.3 86.7 106.3C87.4 106.3 87.8 105.7 87.8 104.8C87.8 104.2 87.5 103.4 86.7 103.4C86 103.5 85.6 104.2 85.6 104.9Z" fill="#6B6B6B"/>
<path d="M89.4 101.301H90.1V106.801H89.4V101.301Z" fill="#6B6B6B"/>
<path d="M91.7 105.1C91.7 106 92.3 106.4 93 106.4C93.5 106.4 93.8 106.3 94 106.2L94.1 106.7C93.9 106.8 93.4 106.9 92.9 106.9C91.7 106.9 91.1 106.1 91.1 105C91.1 103.9 91.8 103 92.9 103C94.1 103 94.5 104.1 94.5 104.8C94.5 104.9 94.5 105 94.5 105.1H91.7ZM93.7 104.6C93.7 104.2 93.5 103.5 92.8 103.5C92.1 103.5 91.8 104.1 91.8 104.6H93.7Z" fill="#6B6B6B"/>
<path d="M98.4 103.1C98.4 103.4 98.4 103.7 98.4 104.1V106.3C98.4 107.2 98.2 107.7 97.9 108C97.5 108.3 97 108.4 96.5 108.4C96 108.4 95.6 108.3 95.3 108.1L95.5 107.6C95.7 107.8 96.1 107.9 96.6 107.9C97.3 107.9 97.8 107.5 97.8 106.6V106.2C97.6 106.5 97.2 106.8 96.6 106.8C95.7 106.8 95 106 95 105C95 103.7 95.8 103 96.7 103C97.4 103 97.7 103.3 97.9 103.7V103.1H98.4ZM97.7 104.5C97.7 104.4 97.7 104.3 97.7 104.2C97.6 103.8 97.2 103.5 96.7 103.5C96 103.5 95.6 104 95.6 104.9C95.6 105.6 96 106.2 96.7 106.2C97.1 106.2 97.5 105.9 97.6 105.5C97.6 105.4 97.7 105.3 97.7 105.1V104.5Z" fill="#6B6B6B"/>
<path d="M100.2 102.002C100.2 102.202 100 102.402 99.8 102.402C99.6 102.402 99.4 102.202 99.4 102.002C99.4 101.802 99.6 101.602 99.8 101.602C100 101.602 100.2 101.802 100.2 102.002ZM99.4 106.802V103.002H100.1V106.802H99.4Z" fill="#6B6B6B"/>
<path d="M104.7 104.9C104.7 106.3 103.7 106.9 102.8 106.9C101.8 106.9 101 106.2 101 105C101 103.7 101.8 103 102.9 103C103.9 103 104.7 103.8 104.7 104.9ZM101.7 104.9C101.7 105.7 102.2 106.3 102.8 106.3C103.5 106.3 103.9 105.7 103.9 104.8C103.9 104.2 103.6 103.4 102.8 103.4C102 103.5 101.7 104.2 101.7 104.9Z" fill="#6B6B6B"/>
<path d="M105.4 106.102C105.6 106.202 106 106.402 106.3 106.402C106.8 106.402 107 106.202 107 105.802C107 105.502 106.8 105.302 106.3 105.102C105.6 104.902 105.3 104.502 105.3 104.002C105.3 103.402 105.8 102.902 106.6 102.902C107 102.902 107.3 103.002 107.5 103.102L107.3 103.602C107.2 103.502 106.9 103.402 106.5 103.402C106.1 103.402 105.9 103.602 105.9 103.902C105.9 104.202 106.1 104.302 106.6 104.502C107.3 104.702 107.6 105.102 107.6 105.602C107.6 106.302 107.1 106.702 106.2 106.702C105.8 106.702 105.4 106.602 105.1 106.402L105.4 106.102Z" fill="#6B6B6B"/>
<path d="M95 75.7031H80.8V77.4031H95V75.7031Z" fill="#FF364F"/>
<path d="M312.5 111.102H80.8V112.002H312.5V111.102Z" fill="#BCBCBC"/>
<path d="M312.5 150.902H80.8V151.802H312.5V150.902Z" fill="#BCBCBC"/>
<path d="M83.6 132.404H81.5V134.304H83.8V134.904H80.8V129.504H83.7V130.104H81.5V131.804H83.6V132.404Z" fill="#140603"/>
<path d="M84.7001 132.104C84.7001 131.704 84.7001 131.404 84.7001 131.104H85.3001V131.704C85.5001 131.304 85.9001 131.004 86.5001 131.004C87.0001 131.004 87.4001 131.304 87.6001 131.804C87.7001 131.604 87.9001 131.404 88.0001 131.304C88.2001 131.104 88.5001 131.004 88.9001 131.004C89.4001 131.004 90.2001 131.304 90.2001 132.704V135.004H89.5001V132.804C89.5001 132.104 89.2001 131.604 88.7001 131.604C88.3001 131.604 88.0001 131.904 87.9001 132.204C87.9001 132.304 87.8001 132.404 87.8001 132.504V134.904H87.1001V132.604C87.1001 132.004 86.8001 131.504 86.3001 131.504C85.9001 131.504 85.5001 131.804 85.4001 132.204C85.4001 132.304 85.3001 132.404 85.3001 132.504V134.804H84.6001V132.104H84.7001Z" fill="#140603"/>
<path d="M91.3 132.304C91.3 131.804 91.3 131.404 91.3 131.004H91.9V131.704C92.2 131.204 92.6 131.004 93.3 131.004C94.2 131.004 94.9 131.804 94.9 133.004C94.9 134.404 94.1 135.104 93.2 135.104C92.7 135.104 92.2 134.904 92 134.504V136.604H91.3V132.304ZM92 133.304C92 133.404 92 133.504 92 133.604C92.1 134.104 92.5 134.404 93 134.404C93.7 134.404 94.2 133.804 94.2 132.904C94.2 132.104 93.8 131.504 93.1 131.504C92.6 131.504 92.2 131.804 92 132.404C92 132.504 92 132.604 92 132.704V133.304Z" fill="#140603"/>
<path d="M95.8 132.302C95.8 131.802 95.8 131.502 95.8 131.102H96.4V131.902C96.6 131.402 97 131.102 97.5 131.102C97.6 131.102 97.6 131.102 97.7 131.102V131.802C97.6 131.802 97.6 131.802 97.5 131.802C97 131.802 96.7 132.202 96.6 132.702C96.6 132.802 96.6 132.902 96.6 133.002V135.102H95.9V132.302H95.8Z" fill="#140603"/>
<path d="M98.8001 133.102C98.8001 134.002 99.4001 134.402 100.1 134.402C100.6 134.402 100.9 134.302 101.2 134.202L101.3 134.702C101.1 134.802 100.6 134.902 100 134.902C98.8001 134.902 98.1001 134.102 98.1001 133.002C98.1001 131.802 98.8001 130.902 99.9001 130.902C101.2 130.902 101.5 132.002 101.5 132.702C101.5 132.802 101.5 133.002 101.5 133.002H98.8001V133.102ZM100.8 132.602C100.8 132.202 100.6 131.502 99.8001 131.502C99.1001 131.502 98.8001 132.202 98.7001 132.602H100.8Z" fill="#140603"/>
<path d="M102.2 134.204C102.4 134.304 102.8 134.504 103.1 134.504C103.6 134.504 103.8 134.204 103.8 133.904C103.8 133.604 103.6 133.404 103.1 133.204C102.4 133.004 102.1 132.604 102.1 132.104C102.1 131.504 102.6 131.004 103.4 131.004C103.8 131.004 104.1 131.104 104.3 131.204L104.1 131.704C103.9 131.604 103.7 131.504 103.3 131.504C102.9 131.504 102.7 131.704 102.7 132.004C102.7 132.304 102.9 132.504 103.4 132.704C104.1 133.004 104.4 133.304 104.4 133.904C104.4 134.604 103.9 135.104 103 135.104C102.6 135.104 102.2 135.004 101.9 134.804L102.2 134.204Z" fill="#140603"/>
<path d="M107.6 134.904L107.5 134.404C107.3 134.704 106.9 135.004 106.3 135.004C105.5 135.004 105.1 134.504 105.1 133.904C105.1 133.004 105.9 132.504 107.4 132.504V132.404C107.4 132.104 107.3 131.504 106.5 131.504C106.1 131.504 105.8 131.604 105.5 131.804L105.3 131.304C105.6 131.104 106.1 131.004 106.6 131.004C107.8 131.004 108.1 131.804 108.1 132.604V134.004C108.1 134.304 108.1 134.704 108.2 134.904H107.6ZM107.5 132.904C106.7 132.904 105.9 133.004 105.9 133.804C105.9 134.304 106.2 134.504 106.6 134.504C107.1 134.504 107.4 134.204 107.5 133.904C107.5 133.804 107.5 133.704 107.5 133.704V132.904Z" fill="#140603"/>
<path d="M114.5 132.902C114.5 134.302 113.5 134.902 112.6 134.902C111.6 134.902 110.8 134.102 110.8 132.902C110.8 131.602 111.6 130.902 112.7 130.902C113.7 131.002 114.5 131.802 114.5 132.902ZM111.4 133.002C111.4 133.802 111.9 134.502 112.6 134.502C113.3 134.502 113.8 133.902 113.8 133.002C113.8 132.302 113.5 131.502 112.6 131.502C111.7 131.502 111.4 132.302 111.4 133.002Z" fill="#140603"/>
<path d="M117.8 130.004C117.8 130.204 117.6 130.404 117.4 130.404C117.2 130.404 117 130.204 117 130.004C117 129.804 117.2 129.604 117.4 129.604C117.7 129.504 117.8 129.704 117.8 130.004ZM117 134.904V131.104H117.7V134.904H117Z" fill="#140603"/>
<path d="M118.9 132.104C118.9 131.704 118.9 131.404 118.9 131.104H119.5V131.704C119.7 131.304 120.1 131.004 120.8 131.004C121.3 131.004 122.2 131.304 122.2 132.604V134.904H121.5V132.704C121.5 132.104 121.3 131.604 120.6 131.604C120.1 131.604 119.8 131.904 119.7 132.304C119.7 132.404 119.7 132.504 119.7 132.604V134.904H119V132.104H118.9Z" fill="#140603"/>
<path d="M123.2 134.204C123.4 134.304 123.8 134.504 124.1 134.504C124.6 134.504 124.8 134.204 124.8 133.904C124.8 133.604 124.6 133.404 124.1 133.204C123.4 133.004 123.1 132.604 123.1 132.104C123.1 131.504 123.6 131.004 124.4 131.004C124.8 131.004 125.1 131.104 125.3 131.204L125.1 131.704C124.9 131.604 124.7 131.504 124.3 131.504C123.9 131.504 123.7 131.704 123.7 132.004C123.7 132.304 123.9 132.504 124.4 132.704C125.1 133.004 125.4 133.304 125.4 133.904C125.4 134.604 124.9 135.104 124 135.104C123.6 135.104 123.2 135.004 122.9 134.804L123.2 134.204Z" fill="#140603"/>
<path d="M127.3 129.902V131.002H128.3V131.502H127.3V133.602C127.3 134.102 127.4 134.302 127.8 134.302C128 134.302 128.1 134.302 128.2 134.302V134.802C128.1 134.902 127.9 134.902 127.6 134.902C127.3 134.902 127 134.802 126.8 134.602C126.6 134.402 126.5 134.102 126.5 133.602V131.502H126V131.002H126.6V130.102L127.3 129.902Z" fill="#140603"/>
<path d="M129.9 130.004C129.9 130.204 129.7 130.404 129.5 130.404C129.3 130.404 129.1 130.204 129.1 130.004C129.1 129.804 129.3 129.604 129.5 129.604C129.7 129.504 129.9 129.704 129.9 130.004ZM129.1 134.904V131.104H129.8V134.904H129.1Z" fill="#140603"/>
<path d="M131.8 129.902V131.002H132.8V131.502H131.8V133.602C131.8 134.102 131.9 134.302 132.3 134.302C132.5 134.302 132.6 134.302 132.7 134.302V134.802C132.6 134.902 132.4 134.902 132.1 134.902C131.8 134.902 131.5 134.802 131.3 134.602C131.1 134.402 131 134.102 131 133.602V131.502H130.4V131.002H131V130.102L131.8 129.902Z" fill="#140603"/>
<path d="M136.8 133.801C136.8 134.201 136.8 134.501 136.8 134.801H136.2V134.201C136 134.501 135.6 134.901 134.9 134.901C134.3 134.901 133.6 134.601 133.6 133.201V130.901H134.3V133.001C134.3 133.701 134.5 134.201 135.2 134.201C135.7 134.201 136 133.901 136.1 133.601C136.1 133.501 136.2 133.401 136.2 133.201V130.801H136.9V133.801H136.8Z" fill="#140603"/>
<path d="M140.7 134.804C140.5 134.904 140.1 135.004 139.6 135.004C138.4 135.004 137.7 134.204 137.7 133.004C137.7 131.804 138.5 131.004 139.8 131.004C140.2 131.004 140.6 131.104 140.8 131.204L140.6 131.704C140.4 131.604 140.2 131.504 139.8 131.504C138.9 131.504 138.4 132.204 138.4 133.004C138.4 133.904 139 134.404 139.7 134.404C140.1 134.404 140.4 134.304 140.6 134.204L140.7 134.804Z" fill="#140603"/>
<path d="M142.3 130.004C142.3 130.204 142.1 130.404 141.9 130.404C141.7 130.404 141.5 130.204 141.5 130.004C141.5 129.804 141.7 129.604 141.9 129.604C142.1 129.504 142.3 129.704 142.3 130.004ZM141.5 134.904V131.104H142.2V134.904H141.5Z" fill="#140603"/>
<path d="M146.8 132.902C146.8 134.302 145.8 134.902 144.9 134.902C143.9 134.902 143.1 134.102 143.1 132.902C143.1 131.602 143.9 130.902 145 130.902C146.1 131.002 146.8 131.802 146.8 132.902ZM143.8 133.002C143.8 133.802 144.3 134.502 145 134.502C145.7 134.502 146.2 133.902 146.2 133.002C146.2 132.302 145.9 131.502 145 131.502C144.1 131.502 143.8 132.302 143.8 133.002ZM146 129.402L145 130.502H144.5L145.2 129.402H146Z" fill="#140603"/>
<path d="M147.7 132.104C147.7 131.704 147.7 131.404 147.7 131.104H148.3V131.704C148.5 131.304 148.9 131.004 149.6 131.004C150.1 131.004 151 131.304 151 132.604V134.904H150.3V132.704C150.3 132.104 150.1 131.604 149.4 131.604C148.9 131.604 148.6 131.904 148.5 132.304C148.5 132.404 148.5 132.504 148.5 132.604V134.904H147.8V132.104H147.7Z" fill="#140603"/>
<path d="M98.2 203.9L96.5 198.5H97.2L98 201.1C98.2 201.8 98.4 202.5 98.6 203.1C98.8 202.5 99 201.8 99.2 201.1L100.1 198.5H100.8L98.9 203.9H98.2Z" fill="#140603"/>
<path d="M104.7 202C104.7 203.4 103.7 204 102.8 204C101.8 204 101 203.2 101 202C101 200.7 101.8 200 102.9 200C104 200 104.7 200.8 104.7 202ZM101.6 202C101.6 202.8 102.1 203.5 102.8 203.5C103.5 203.5 104 202.9 104 202C104 201.3 103.7 200.5 102.8 200.5C102 200.5 101.6 201.3 101.6 202Z" fill="#140603"/>
<path d="M105.6 198.301H106.3V203.901H105.6V198.301Z" fill="#140603"/>
<path d="M107.7 200.102L108.5 202.302C108.6 202.602 108.7 203.002 108.8 203.302C108.9 203.002 109 202.702 109.1 202.302L109.8 200.102H110.5L109 203.902H108.3L106.8 200.102H107.7Z" fill="#140603"/>
<path d="M111.6 202.102C111.6 203.002 112.2 203.402 112.9 203.402C113.4 203.402 113.7 203.302 114 203.202L114.1 203.702C113.9 203.802 113.4 203.902 112.8 203.902C111.6 203.902 110.9 203.102 110.9 202.002C110.9 200.802 111.6 199.902 112.7 199.902C114 199.902 114.3 201.002 114.3 201.702C114.3 201.802 114.3 202.002 114.3 202.002H111.6V202.102ZM113.6 201.602C113.6 201.202 113.4 200.502 112.6 200.502C111.9 200.502 111.6 201.202 111.5 201.602H113.6Z" fill="#140603"/>
<path d="M115.2 201.302C115.2 200.802 115.2 200.502 115.2 200.102H115.8V200.902C116 200.402 116.4 200.102 116.9 200.102C117 200.102 117 200.102 117.1 200.102V200.802C117 200.802 117 200.802 116.9 200.802C116.4 200.802 116.1 201.202 116 201.702C116 201.802 116 201.902 116 202.002V204.102H115.3V201.302H115.2Z" fill="#140603"/>
<path d="M257.9 203.7C257.6 203.8 257.1 204 256.5 204C255 204 253.9 203 253.9 201.3C253.9 199.6 255 198.5 256.7 198.5C257.4 198.5 257.8 198.6 258 198.7L257.8 199.3C257.5 199.2 257.2 199.1 256.7 199.1C255.4 199.1 254.6 199.9 254.6 201.3C254.6 202.6 255.4 203.5 256.7 203.5C257.1 203.5 257.6 203.4 257.8 203.3L257.9 203.7Z" fill="#D0D0D0"/>
<path d="M262.1 202C262.1 203.4 261.1 204 260.2 204C259.2 204 258.4 203.2 258.4 202C258.4 200.7 259.2 200 260.3 200C261.3 200 262.1 200.8 262.1 202ZM259 202C259 202.8 259.5 203.5 260.2 203.5C260.9 203.5 261.4 202.9 261.4 202C261.4 201.3 261.1 200.5 260.2 200.5C259.4 200.5 259 201.3 259 202Z" fill="#D0D0D0"/>
<path d="M263 201.1C263 200.7 263 200.4 263 200.1H263.6V200.7C263.8 200.3 264.2 200 264.9 200C265.4 200 266.3 200.3 266.3 201.6V203.9H265.6V201.7C265.6 201.1 265.4 200.6 264.7 200.6C264.2 200.6 263.9 200.9 263.8 201.3C263.8 201.4 263.8 201.5 263.8 201.6V203.9H263V201.1Z" fill="#D0D0D0"/>
<path d="M268.2 199V200.1H269.2V200.6H268.2V202.7C268.2 203.2 268.3 203.4 268.7 203.4C268.9 203.4 269 203.4 269.1 203.4V203.9C269 204 268.8 204 268.5 204C268.2 204 267.9 203.9 267.7 203.7C267.5 203.5 267.4 203.2 267.4 202.7V200.6H266.8V200.1H267.4V199.2L268.2 199Z" fill="#D0D0D0"/>
<path d="M270.8 199C270.8 199.2 270.6 199.4 270.4 199.4C270.2 199.4 270 199.2 270 199C270 198.8 270.2 198.6 270.4 198.6C270.6 198.5 270.8 198.7 270.8 199ZM270 203.9V200.1H270.7V203.9H270Z" fill="#D0D0D0"/>
<path d="M271.8 201.1C271.8 200.7 271.8 200.4 271.8 200.1H272.4V200.7C272.6 200.3 273 200 273.7 200C274.2 200 275.1 200.3 275.1 201.6V203.9H274.4V201.7C274.4 201.1 274.2 200.6 273.5 200.6C273 200.6 272.7 200.9 272.6 201.3C272.6 201.4 272.6 201.5 272.6 201.6V203.9H271.9V201.1H271.8Z" fill="#D0D0D0"/>
<path d="M279.5 202.898C279.5 203.298 279.5 203.598 279.5 203.898H278.9V203.298C278.7 203.598 278.3 203.998 277.6 203.998C277 203.998 276.3 203.698 276.3 202.298V199.998H277V202.098C277 202.798 277.2 203.298 277.9 203.298C278.4 203.298 278.7 202.998 278.8 202.698C278.8 202.598 278.9 202.498 278.9 202.298V199.898H279.6V202.898H279.5Z" fill="#D0D0D0"/>
<path d="M282.7 203.9L282.6 203.4C282.4 203.7 282 204 281.4 204C280.6 204 280.2 203.5 280.2 202.9C280.2 202 281 201.5 282.5 201.5V201.4C282.5 201.1 282.4 200.5 281.6 200.5C281.2 200.5 280.9 200.6 280.6 200.8L280.4 200.3C280.7 200.1 281.2 200 281.7 200C282.9 200 283.2 200.8 283.2 201.6V203C283.2 203.3 283.2 203.7 283.3 203.9H282.7ZM282.6 201.9C281.8 201.9 281 202 281 202.8C281 203.3 281.3 203.5 281.7 203.5C282.2 203.5 282.5 203.2 282.6 202.9C282.6 202.8 282.6 202.7 282.6 202.7V201.9Z" fill="#D0D0D0"/>
<path d="M284.4 201.302C284.4 200.802 284.4 200.502 284.4 200.102H285V200.902C285.2 200.402 285.6 200.102 286.1 200.102C286.2 200.102 286.2 200.102 286.3 200.102V200.802C286.2 200.802 286.2 200.802 286.1 200.802C285.6 200.802 285.3 201.202 285.2 201.702C285.2 201.802 285.2 201.902 285.2 202.002V204.102H284.5V201.302H284.4Z" fill="#D0D0D0"/>
<path d="M304 105.702L301.2 102.902C301 102.702 301 102.402 301.2 102.302C301.4 102.102 301.7 102.102 301.8 102.302L304.3 104.802L306.8 102.302C307 102.102 307.3 102.102 307.4 102.302C307.6 102.502 307.6 102.802 307.4 102.902L304.6 105.702C304.5 105.802 304.4 105.802 304.3 105.802C304.2 105.802 304.1 105.702 304 105.702Z" fill="#9E42E1"/>
<path d="M83.9 205.703C84 205.803 84.3 205.803 84.4 205.703C84.5 205.603 84.5 205.303 84.4 205.203L81.9 202.703H90.3C90.5 202.703 90.7 202.503 90.7 202.303C90.7 202.103 90.5 201.903 90.3 201.903H81.9L84.4 199.403C84.5 199.303 84.5 199.003 84.4 198.903C84.3 198.803 84 198.803 83.9 198.903L80.7 202.103C80.6 202.203 80.6 202.503 80.7 202.603L83.9 205.703Z" fill="#6B6B6B"/>
<path d="M301.7 212.102C307.554 212.102 312.3 207.357 312.3 201.502C312.3 195.648 307.554 190.902 301.7 190.902C295.846 190.902 291.1 195.648 291.1 201.502C291.1 207.357 295.846 212.102 301.7 212.102Z" fill="#D0D0D0"/>
<path d="M303.1 198.802C303 198.702 302.8 198.702 302.7 198.802C302.6 198.902 302.6 199.102 302.7 199.202L304.8 201.302H298C297.8 201.302 297.7 201.402 297.7 201.602C297.7 201.802 297.8 201.902 298 201.902H304.8L302.7 204.002C302.6 204.102 302.6 204.302 302.7 204.402C302.8 204.502 303 204.502 303.1 204.402L305.6 201.902C305.7 201.802 305.7 201.602 305.6 201.502L303.1 198.802Z" fill="white"/>
<path d="M82.6 145.104L82.1 146.704H81.4L83.2 141.504H84L85.8 146.704H85L84.4 145.104H82.6ZM84.3 144.504L83.8 143.004C83.7 142.704 83.6 142.304 83.5 142.004C83.4 142.304 83.3 142.604 83.2 142.904L82.7 144.404H84.3V144.504Z" fill="#6B6B6B"/>
<path d="M90 146.502C89.8 146.602 89.3 146.702 88.6 146.702C87.1 146.702 86 145.802 86 144.102C86 142.502 87.1 141.402 88.7 141.402C89.4 141.402 89.8 141.502 89.9 141.602L89.7 142.102C89.4 142.002 89.1 141.902 88.6 141.902C87.4 141.902 86.6 142.702 86.6 144.102C86.6 145.402 87.3 146.202 88.6 146.202C89 146.202 89.4 146.102 89.7 146.002L90 146.502Z" fill="#6B6B6B"/>
<path d="M91.8 145.104L91.3 146.704H90.6L92.4 141.504H93.2L95 146.704H94.3L93.7 145.104H91.8ZM93.5 144.504L93 143.004C92.9 142.704 92.8 142.304 92.7 142.004C92.6 142.304 92.5 142.604 92.4 142.904L91.9 144.404H93.5V144.504Z" fill="#6B6B6B"/>
<path d="M95.7 141.502C96.1 141.402 96.6 141.402 97.1 141.402C98.1 141.402 98.8 141.602 99.2 142.102C99.7 142.502 99.9 143.102 99.9 144.002C99.9 144.902 99.6 145.602 99.1 146.002C98.6 146.502 97.8 146.802 96.8 146.802C96.3 146.802 95.9 146.802 95.6 146.702V141.502H95.7ZM96.3 146.202C96.5 146.202 96.7 146.202 97 146.202C98.4 146.202 99.2 145.402 99.2 144.002C99.2 142.802 98.5 142.002 97.1 142.002C96.8 142.002 96.5 142.002 96.3 142.102V146.202Z" fill="#6B6B6B"/>
<path d="M103.5 144.204H101.5V146.104H103.8V146.704H100.9V141.504H103.7V142.104H101.6V143.804H103.6V144.204H103.5Z" fill="#6B6B6B"/>
<path d="M109 144.402C109 143.702 108.9 142.802 108.9 142.102C108.7 142.702 108.5 143.402 108.2 144.102L107.3 146.602H106.8L106 144.102C105.8 143.402 105.5 142.702 105.4 142.102C105.4 142.802 105.3 143.602 105.3 144.402L105.2 146.602H104.6L105 141.402H105.9L106.8 143.902C107 144.502 107.2 145.102 107.3 145.702C107.4 145.202 107.6 144.602 107.8 143.902L108.7 141.402H109.6L109.9 146.602H109.2L109 144.402Z" fill="#6B6B6B"/>
<path d="M111.5 141.504V146.704H110.8V141.504H111.5Z" fill="#6B6B6B"/>
<path d="M113.6 145.104L113.1 146.704H112.4L114.2 141.504H115L116.8 146.704H116L115.4 145.104H113.6ZM115.3 144.504L114.8 143.004C114.7 142.704 114.6 142.304 114.5 142.004C114.4 142.304 114.3 142.604 114.2 142.904L113.7 144.404H115.3V144.504Z" fill="#6B6B6B"/>
<path d="M117.4 145.902C117.7 146.102 118.1 146.202 118.6 146.202C119.3 146.202 119.7 145.802 119.7 145.302C119.7 144.802 119.4 144.502 118.7 144.302C117.8 144.002 117.3 143.602 117.3 142.802C117.3 142.002 118 141.402 119 141.402C119.5 141.402 119.9 141.502 120.2 141.702L120 142.202C119.8 142.102 119.5 142.002 119 142.002C118.3 142.002 118 142.402 118 142.802C118 143.302 118.3 143.502 119 143.802C119.9 144.102 120.3 144.602 120.3 145.302C120.3 146.102 119.7 146.802 118.5 146.802C118 146.802 117.4 146.702 117.2 146.502L117.4 145.902Z" fill="#6B6B6B"/>
<path d="M123.6 142.002H122V141.402H125.9V142.002H124.3V146.702H123.6V142.002Z" fill="#6B6B6B"/>
<path d="M126.5 141.502C126.8 141.402 127.3 141.402 127.8 141.402C128.5 141.402 129 141.502 129.3 141.802C129.6 142.002 129.7 142.402 129.7 142.802C129.7 143.502 129.3 143.902 128.7 144.102C129.1 144.202 129.3 144.602 129.5 145.202C129.7 145.902 129.8 146.402 129.9 146.602H129.2C129.1 146.502 129 146.002 128.9 145.402C128.7 144.702 128.5 144.402 127.9 144.402H127.3V146.702H126.6V141.502H126.5ZM127.1 143.902H127.8C128.5 143.902 129 143.502 129 142.902C129 142.202 128.5 141.902 127.8 141.902C127.5 141.902 127.2 141.902 127.1 142.002V143.902Z" fill="#6B6B6B"/>
<path d="M131.3 141.504V146.704H130.6V141.504H131.3Z" fill="#6B6B6B"/>
<path d="M132.5 141.504H133.2V146.204H135.4V146.804H132.5V141.504Z" fill="#6B6B6B"/>
<path d="M139.5 146.502C139.3 146.602 138.8 146.702 138.1 146.702C136.6 146.702 135.5 145.802 135.5 144.102C135.5 142.502 136.6 141.402 138.2 141.402C138.9 141.402 139.3 141.502 139.4 141.602L139.2 142.102C138.9 142.002 138.6 141.902 138.1 141.902C136.9 141.902 136.1 142.702 136.1 144.102C136.1 145.402 136.8 146.202 138.1 146.202C138.5 146.202 138.9 146.102 139.2 146.002L139.5 146.502Z" fill="#6B6B6B"/>
<path d="M143.1 144.204H141.1V146.104H143.4V146.704H140.5V141.504H143.3V142.104H141V143.804H143V144.204H143.1Z" fill="#6B6B6B"/>
<path d="M153.8 152.902H72.1001V134.902H153.8V152.902ZM74.7001 150.202H151.1V137.502H74.7001V150.202Z" fill="#FF4200"/>
</svg>
