<svg width="392" height="262" viewBox="0 0 392 262" fill="none" xmlns="http://www.w3.org/2000/svg">
<path d="M392 0H0V262H392V0Z" fill="#F6F6F6"/>
<path d="M325.4 249H66.5997C61.6997 249 57.6997 245 57.6997 240.1V21.9C57.6997 17 61.6997 13 66.5997 13H325.4C330.3 13 334.3 17 334.3 21.9V240.1C334.3 245 330.3 249 325.4 249Z" fill="white"/>
<path d="M325.4 249.902H66.5998C61.1998 249.902 56.7998 245.502 56.7998 240.102V21.9016C56.7998 16.5016 61.1998 12.1016 66.5998 12.1016H325.4C330.8 12.1016 335.2 16.5016 335.2 21.9016V240.102C335.1 245.502 330.8 249.902 325.4 249.902ZM66.5998 13.9016C62.1998 13.9016 58.5998 17.5016 58.5998 21.9016V240.102C58.5998 244.502 62.1998 248.102 66.5998 248.102H325.4C329.8 248.102 333.4 244.502 333.4 240.102V21.9016C333.4 17.5016 329.8 13.9016 325.4 13.9016H66.5998Z" fill="#ECF1F5"/>
<path d="M312.6 45.3016C312.6 43.8016 311.4 42.6016 309.9 42.6016H83.7996C82.2996 42.6016 81.0996 43.8016 81.0996 45.3016V66.6016H312.5V45.3016H312.6Z" fill="#F9F9F9"/>
<path d="M148.5 49.9023C148.5 50.2023 148.3 50.4023 148 50.4023C147.7 50.4023 147.5 50.2023 147.5 49.9023C147.5 49.6023 147.7 49.4023 148 49.4023C148.3 49.4023 148.5 49.6023 148.5 49.9023ZM147.7 55.0023L147.8 51.1023H148.4L148.5 55.0023H147.7Z" fill="#140603"/>
<path d="M150.3 47.9023V50.2023H153V47.9023H153.7V53.4023H153V50.8023H150.3V53.4023H149.6V47.9023H150.3Z" fill="#140603"/>
<path d="M155.3 51.6023C155.3 52.6023 155.9 53.0023 156.6 53.0023C157.1 53.0023 157.4 52.9023 157.7 52.8023L157.8 53.3023C157.5 53.4023 157.1 53.5023 156.5 53.5023C155.3 53.5023 154.6 52.7023 154.6 51.5023C154.6 50.3023 155.3 49.4023 156.4 49.4023C157.7 49.4023 158 50.5023 158 51.3023C158 51.4023 158 51.6023 158 51.6023H155.3ZM157.4 51.0023C157.4 50.5023 157.2 49.8023 156.4 49.8023C155.7 49.8023 155.4 50.5023 155.3 51.0023H157.4Z" fill="#140603"/>
<path d="M159 50.5008C159 50.1008 159 49.8008 159 49.4008H159.6V50.0008C159.8 49.6008 160.2 49.3008 160.8 49.3008C161.3 49.3008 161.7 49.6008 161.9 50.1008C162 49.9008 162.2 49.7008 162.3 49.6008C162.5 49.4008 162.8 49.3008 163.2 49.3008C163.7 49.3008 164.5 49.6008 164.5 51.0008V53.3008H163.8V51.1008C163.8 50.3008 163.5 49.9008 162.9 49.9008C162.5 49.9008 162.2 50.2008 162.1 50.6008C162.1 50.7008 162 50.8008 162 51.0008V53.4008H161.3V51.0008C161.3 50.4008 161 49.9008 160.5 49.9008C160.1 49.9008 159.7 50.3008 159.6 50.6008C159.6 50.7008 159.5 50.8008 159.5 50.9008V53.3008H159V50.5008Z" fill="#140603"/>
<path d="M169.3 51.4023C169.3 52.9023 168.3 53.5023 167.3 53.5023C166.2 53.5023 165.4 52.7023 165.4 51.5023C165.4 50.2023 166.3 49.4023 167.4 49.4023C168.5 49.4023 169.3 50.2023 169.3 51.4023ZM166.2 51.4023C166.2 52.3023 166.7 52.9023 167.4 52.9023C168.1 52.9023 168.6 52.3023 168.6 51.4023C168.6 50.7023 168.3 49.9023 167.4 49.9023C166.6 49.9023 166.2 50.7023 166.2 51.4023Z" fill="#140603"/>
<path d="M170.1 52.7023C170.3 52.8023 170.7 53.0023 171 53.0023C171.5 53.0023 171.8 52.7023 171.8 52.4023C171.8 52.1023 171.6 51.9023 171.1 51.7023C170.4 51.4023 170.1 51.1023 170.1 50.6023C170.1 50.0023 170.6 49.4023 171.5 49.4023C171.9 49.4023 172.2 49.5023 172.5 49.6023L172.3 50.1023C172.1 50.0023 171.9 49.9023 171.5 49.9023C171.1 49.9023 170.8 50.1023 170.8 50.4023C170.8 50.7023 171 50.9023 171.5 51.1023C172.2 51.4023 172.5 51.7023 172.5 52.3023C172.5 53.0023 172 53.5023 171 53.5023C170.6 53.5023 170.2 53.4023 169.9 53.2023L170.1 52.7023Z" fill="#140603"/>
<path d="M175.6 51.6023C175.6 52.6023 176.2 53.0023 176.9 53.0023C177.4 53.0023 177.7 52.9023 178 52.8023L178.1 53.3023C177.8 53.4023 177.4 53.5023 176.8 53.5023C175.6 53.5023 174.9 52.7023 174.9 51.5023C174.9 50.3023 175.6 49.4023 176.7 49.4023C178 49.4023 178.3 50.5023 178.3 51.3023C178.3 51.4023 178.3 51.6023 178.3 51.6023H175.6ZM177.7 51.0023C177.7 50.5023 177.5 49.8023 176.7 49.8023C176 49.8023 175.7 50.5023 175.6 51.0023H177.7Z" fill="#140603"/>
<path d="M179.2 50.5023C179.2 50.1023 179.2 49.8023 179.2 49.4023H179.8V50.1023C180 49.7023 180.5 49.4023 181.1 49.4023C181.6 49.4023 182.5 49.7023 182.5 51.1023V53.5023H181.8V51.2023C181.8 50.6023 181.6 50.0023 180.9 50.0023C180.4 50.0023 180.1 50.3023 179.9 50.7023C179.9 50.8023 179.9 50.9023 179.9 51.0023V53.4023H179.2V50.5023Z" fill="#140603"/>
<path d="M186.6 53.3023C186.4 53.4023 186 53.5023 185.5 53.5023C184.3 53.5023 183.5 52.7023 183.5 51.5023C183.5 50.3023 184.3 49.4023 185.6 49.4023C186 49.4023 186.4 49.5023 186.6 49.6023L186.4 50.2023C186.2 50.1023 186 50.0023 185.6 50.0023C184.7 50.0023 184.2 50.7023 184.2 51.5023C184.2 52.4023 184.8 53.0023 185.6 53.0023C186 53.0023 186.3 52.9023 186.5 52.8023L186.6 53.3023Z" fill="#140603"/>
<path d="M190.9 51.4023C190.9 52.9023 189.9 53.5023 188.9 53.5023C187.8 53.5023 187 52.7023 187 51.5023C187 50.2023 187.9 49.4023 189 49.4023C190.1 49.4023 190.9 50.2023 190.9 51.4023ZM187.8 51.4023C187.8 52.3023 188.3 52.9023 189 52.9023C189.7 52.9023 190.2 52.3023 190.2 51.4023C190.2 50.7023 189.9 49.9023 189 49.9023C188.1 49.9023 187.8 50.7023 187.8 51.4023Z" fill="#140603"/>
<path d="M191.8 50.5023C191.8 50.1023 191.8 49.8023 191.8 49.4023H192.4V50.1023C192.6 49.7023 193.1 49.4023 193.7 49.4023C194.2 49.4023 195.1 49.7023 195.1 51.1023V53.5023H194.4V51.2023C194.4 50.6023 194.2 50.0023 193.5 50.0023C193 50.0023 192.7 50.3023 192.5 50.7023C192.5 50.8023 192.5 50.9023 192.5 51.0023V53.4023H191.8V50.5023Z" fill="#140603"/>
<path d="M197.2 48.3008V49.4008H198.2V50.0008H197.2V52.1008C197.2 52.6008 197.3 52.9008 197.7 52.9008C197.9 52.9008 198 52.9008 198.1 52.9008V53.4008C198 53.5008 197.7 53.5008 197.5 53.5008C197.2 53.5008 196.9 53.4008 196.7 53.2008C196.5 53.0008 196.4 52.6008 196.4 52.2008V50.0008H195.8V49.5008H196.4V48.6008L197.2 48.3008Z" fill="#140603"/>
<path d="M199 50.7023C199 50.2023 199 49.8023 199 49.5023H199.6V50.3023C199.8 49.8023 200.2 49.4023 200.7 49.4023C200.8 49.4023 200.8 49.4023 200.9 49.4023V50.1023C200.8 50.1023 200.8 50.1023 200.7 50.1023C200.2 50.1023 199.8 50.5023 199.7 51.0023C199.7 51.1023 199.7 51.2023 199.7 51.3023V53.4023H199V50.7023Z" fill="#140603"/>
<path d="M203.8 53.4023L203.7 52.9023C203.5 53.2023 203.1 53.5023 202.5 53.5023C201.7 53.5023 201.3 52.9023 201.3 52.4023C201.3 51.4023 202.1 50.9023 203.7 50.9023V50.8023C203.7 50.5023 203.6 49.9023 202.8 49.9023C202.4 49.9023 202.1 50.0023 201.8 50.2023L201.6 49.7023C201.9 49.5023 202.4 49.4023 202.9 49.4023C204.1 49.4023 204.4 50.2023 204.4 51.0023V52.5023C204.4 52.8023 204.4 53.2023 204.5 53.4023H203.8ZM203.7 51.4023C202.9 51.4023 202 51.5023 202 52.3023C202 52.8023 202.3 53.0023 202.7 53.0023C203.2 53.0023 203.5 52.7023 203.7 52.3023C203.7 52.2023 203.7 52.1023 203.7 52.1023V51.4023Z" fill="#140603"/>
<path d="M208.9 47.6016V52.4016C208.9 52.7016 208.9 53.1016 208.9 53.4016H208.3V52.7016C208.1 53.1016 207.6 53.5016 207 53.5016C206 53.5016 205.3 52.7016 205.3 51.5016C205.3 50.2016 206.1 49.4016 207.1 49.4016C207.7 49.4016 208.1 49.7016 208.3 50.0016V47.6016H208.9ZM208.2 51.1016C208.2 51.0016 208.2 50.9016 208.2 50.8016C208.1 50.3016 207.7 50.0016 207.2 50.0016C206.5 50.0016 206 50.7016 206 51.5016C206 52.3016 206.4 53.0016 207.2 53.0016C207.7 53.0016 208.1 52.7016 208.2 52.1016C208.2 52.0016 208.2 51.9016 208.2 51.8016V51.1016Z" fill="#140603"/>
<path d="M213.7 51.4023C213.7 52.9023 212.7 53.5023 211.7 53.5023C210.6 53.5023 209.8 52.7023 209.8 51.5023C209.8 50.2023 210.7 49.4023 211.8 49.4023C212.9 49.4023 213.7 50.2023 213.7 51.4023ZM210.6 51.4023C210.6 52.3023 211.1 52.9023 211.8 52.9023C212.5 52.9023 213 52.3023 213 51.4023C213 50.7023 212.7 49.9023 211.8 49.9023C210.9 49.9023 210.6 50.7023 210.6 51.4023Z" fill="#140603"/>
<path d="M216.1 53.4016V53.0016L216.7 52.5016C218.1 51.2016 218.7 50.5016 218.7 49.7016C218.7 49.2016 218.4 48.7016 217.7 48.7016C217.2 48.7016 216.8 48.9016 216.6 49.1016L216.4 48.6016C216.8 48.3016 217.3 48.1016 217.9 48.1016C219 48.1016 219.5 48.9016 219.5 49.6016C219.5 50.6016 218.8 51.4016 217.7 52.4016L217.3 52.8016H219.7V53.4016H216.1Z" fill="#140603"/>
<path d="M222.2 50.7023C222.2 50.2023 222.2 49.8023 222.2 49.5023H222.8V50.3023C223 49.8023 223.4 49.4023 223.9 49.4023C224 49.4023 224 49.4023 224.1 49.4023V50.1023C224 50.1023 224 50.1023 223.9 50.1023C223.4 50.1023 223 50.5023 222.9 51.0023C222.9 51.1023 222.9 51.2023 222.9 51.3023V53.4023H222.2V50.7023Z" fill="#140603"/>
<path d="M225.2 51.6023C225.2 52.6023 225.8 53.0023 226.6 53.0023C227.1 53.0023 227.4 52.9023 227.7 52.8023L227.8 53.3023C227.5 53.4023 227.1 53.5023 226.5 53.5023C225.3 53.5023 224.6 52.7023 224.6 51.5023C224.6 50.3023 225.3 49.4023 226.4 49.4023C227.7 49.4023 228 50.5023 228 51.3023C228 51.4023 228 51.6023 228 51.6023H225.2ZM227.3 51.0023C227.3 50.5023 227.1 49.8023 226.3 49.8023C225.6 49.8023 225.3 50.5023 225.2 51.0023H227.3Z" fill="#140603"/>
<path d="M231.7 53.3023C231.5 53.4023 231.1 53.5023 230.6 53.5023C229.4 53.5023 228.6 52.7023 228.6 51.5023C228.6 50.3023 229.4 49.4023 230.7 49.4023C231.1 49.4023 231.5 49.5023 231.7 49.6023L231.5 50.2023C231.3 50.1023 231.1 50.0023 230.7 50.0023C229.8 50.0023 229.3 50.7023 229.3 51.5023C229.3 52.4023 229.9 53.0023 230.7 53.0023C231.1 53.0023 231.4 52.9023 231.6 52.8023L231.7 53.3023Z" fill="#140603"/>
<path d="M233.3 48.4026C233.3 48.6026 233.1 48.8026 232.8 48.8026C232.5 48.8026 232.4 48.6026 232.4 48.4026C232.4 48.1026 232.6 48.0026 232.8 48.0026C233.1 47.9026 233.3 48.1026 233.3 48.4026ZM232.5 53.4026V49.5026H233.2V53.4026H232.5Z" fill="#140603"/>
<path d="M234.4 53.4016C234.4 53.1016 234.4 52.7016 234.4 52.4016V47.6016H235.1V50.1016C235.4 49.7016 235.8 49.4016 236.4 49.4016C237.4 49.4016 238.1 50.2016 238.1 51.4016C238.1 52.8016 237.2 53.5016 236.3 53.5016C235.7 53.5016 235.3 53.3016 235 52.8016V53.5016H234.4V53.4016ZM235.1 51.8016C235.1 51.9016 235.1 52.0016 235.1 52.1016C235.2 52.6016 235.7 52.9016 236.2 52.9016C236.9 52.9016 237.4 52.3016 237.4 51.4016C237.4 50.6016 237 49.9016 236.2 49.9016C235.7 49.9016 235.3 50.2016 235.1 50.8016C235.1 50.9016 235.1 51.0016 235.1 51.1016V51.8016Z" fill="#140603"/>
<path d="M242.6 51.4023C242.6 52.9023 241.6 53.5023 240.6 53.5023C239.5 53.5023 238.7 52.7023 238.7 51.5023C238.7 50.2023 239.6 49.4023 240.7 49.4023C241.8 49.4023 242.6 50.2023 242.6 51.4023ZM239.5 51.4023C239.5 52.3023 240 52.9023 240.7 52.9023C241.4 52.9023 241.9 52.3023 241.9 51.4023C241.9 50.7023 241.6 49.9023 240.7 49.9023C239.8 49.9023 239.5 50.7023 239.5 51.4023Z" fill="#140603"/>
<path d="M243.4 52.7023C243.6 52.8023 244 53.0023 244.3 53.0023C244.8 53.0023 245.1 52.7023 245.1 52.4023C245.1 52.1023 244.9 51.9023 244.4 51.7023C243.7 51.4023 243.4 51.1023 243.4 50.6023C243.4 50.0023 243.9 49.4023 244.8 49.4023C245.2 49.4023 245.5 49.5023 245.8 49.6023L245.6 50.1023C245.4 50.0023 245.2 49.9023 244.8 49.9023C244.4 49.9023 244.1 50.1023 244.1 50.4023C244.1 50.7023 244.3 50.9023 244.8 51.1023C245.5 51.4023 245.8 51.7023 245.8 52.3023C245.8 53.0023 245.3 53.5023 244.3 53.5023C243.9 53.5023 243.5 53.4023 243.2 53.2023L243.4 52.7023Z" fill="#140603"/>
<path d="M246.6 53.0023C246.6 52.7023 246.8 52.5023 247.1 52.5023C247.4 52.5023 247.6 52.7023 247.6 53.0023C247.6 53.3023 247.4 53.5023 247.1 53.5023C246.8 53.5023 246.6 53.3023 246.6 53.0023ZM246.8 51.8023L246.7 47.9023H247.5L247.4 51.8023H246.8Z" fill="#140603"/>
<path d="M273.5 115.6C273.8 115.8 274.3 116 274.9 116C275.7 116 276.1 115.6 276.1 115C276.1 114.4 275.8 114.1 275 113.8C274 113.5 273.4 113 273.4 112.1C273.4 111.2 274.2 110.5 275.3 110.5C275.9 110.5 276.3 110.6 276.6 110.8L276.4 111.4C276.2 111.3 275.8 111.1 275.3 111.1C274.5 111.1 274.2 111.6 274.2 112C274.2 112.6 274.6 112.8 275.4 113.1C276.4 113.5 276.9 114 276.9 114.8C276.9 115.7 276.2 116.5 274.8 116.5C274.2 116.5 273.6 116.3 273.3 116.1L273.5 115.6Z" fill="#140603"/>
<path d="M277.2 116.902L279.6 110.602H280.2L277.8 116.902H277.2Z" fill="#140603"/>
<path d="M284.2 111.499L283.2 111.999L283.1 111.399L284.3 110.699H285V116.399H284.3V111.499H284.2Z" fill="#140603"/>
<path d="M287.2 115.599C287.4 115.699 287.9 115.999 288.5 115.999C289.5 115.999 289.8 115.399 289.8 114.899C289.8 114.099 289.1 113.799 288.3 113.799H287.9V113.199H288.3C288.9 113.199 289.6 112.899 289.6 112.199C289.6 111.699 289.3 111.299 288.6 111.299C288.1 111.299 287.7 111.499 287.5 111.699L287.3 111.099C287.6 110.899 288.2 110.699 288.8 110.699C289.9 110.699 290.4 111.399 290.4 112.099C290.4 112.699 290.1 113.199 289.4 113.399C290.1 113.499 290.7 114.099 290.7 114.899C290.7 115.799 290 116.599 288.6 116.599C288 116.599 287.4 116.399 287.1 116.199L287.2 115.599Z" fill="#140603"/>
<path d="M295.2 113.599C295.2 115.499 294.5 116.599 293.2 116.599C292.1 116.599 291.3 115.599 291.3 113.699C291.3 111.799 292.1 110.699 293.3 110.699C294.5 110.699 295.2 111.799 295.2 113.599ZM292.1 113.699C292.1 115.199 292.6 115.999 293.3 115.999C294.1 115.999 294.5 115.099 294.5 113.599C294.5 112.199 294.1 111.299 293.3 111.299C292.6 111.299 292.1 112.099 292.1 113.699Z" fill="#140603"/>
<path d="M296 116.1C296 115.8 296.2 115.5 296.5 115.5C296.8 115.5 297 115.7 297 116.1C297 116.4 296.8 116.7 296.5 116.7C296.2 116.6 296 116.4 296 116.1Z" fill="#140603"/>
<path d="M301.5 113.599C301.5 115.499 300.8 116.599 299.5 116.599C298.4 116.599 297.6 115.599 297.6 113.699C297.6 111.799 298.4 110.699 299.6 110.699C300.8 110.699 301.5 111.799 301.5 113.599ZM298.4 113.699C298.4 115.199 298.9 115.999 299.6 115.999C300.4 115.999 300.8 115.099 300.8 113.599C300.8 112.199 300.4 111.299 299.6 111.299C298.9 111.299 298.4 112.099 298.4 113.699Z" fill="#140603"/>
<path d="M306 113.599C306 115.499 305.3 116.599 304 116.599C302.9 116.599 302.1 115.599 302.1 113.699C302.1 111.799 302.9 110.699 304.1 110.699C305.3 110.699 306 111.799 306 113.599ZM302.9 113.699C302.9 115.199 303.4 115.999 304.1 115.999C304.9 115.999 305.3 115.099 305.3 113.599C305.3 112.199 304.9 111.299 304.1 111.299C303.4 111.299 302.9 112.099 302.9 113.699Z" fill="#140603"/>
<path d="M140.1 56.7016C140.4 56.6016 140.9 56.6016 141.4 56.6016C142.1 56.6016 142.6 56.8016 142.9 57.0016C143.2 57.2016 143.4 57.6016 143.4 58.1016C143.4 58.6016 143.3 58.9016 143 59.2016C142.6 59.6016 142.1 59.8016 141.4 59.8016C141.2 59.8016 141 59.8016 140.9 59.8016V61.9016H140.2V56.7016H140.1ZM140.8 59.2016C140.9 59.2016 141.1 59.3016 141.4 59.3016C142.2 59.3016 142.7 58.9016 142.7 58.2016C142.7 57.5016 142.2 57.2016 141.5 57.2016C141.2 57.2016 141 57.2016 140.9 57.3016V59.2016H140.8Z" fill="#6B6B6B"/>
<path d="M144.1 59.3C144.1 58.9 144.1 58.5 144.1 58.1H144.7V58.8C144.9 58.3 145.3 58 145.7 58C145.8 58 145.8 58 145.9 58V58.6C145.8 58.6 145.8 58.6 145.7 58.6C145.2 58.6 144.9 59 144.8 59.5C144.8 59.6 144.8 59.7 144.8 59.8V61.8H144.1V59.3Z" fill="#6B6B6B"/>
<path d="M147.4 57.1018C147.4 57.3018 147.2 57.5018 147 57.5018C146.8 57.5018 146.6 57.3018 146.6 57.1018C146.6 56.9018 146.8 56.7018 147 56.7018C147.2 56.6018 147.4 56.8018 147.4 57.1018ZM146.6 61.8018V58.1018H147.3V61.8018H146.6Z" fill="#6B6B6B"/>
<path d="M148.5 59.1023C148.5 58.7023 148.5 58.4023 148.5 58.1023H149.1V58.7023C149.3 58.3023 149.7 58.0023 150.3 58.0023C150.8 58.0023 151.2 58.3023 151.4 58.7023C151.5 58.5023 151.7 58.3023 151.8 58.2023C152 58.0023 152.3 57.9023 152.6 57.9023C153.1 57.9023 153.8 58.2023 153.8 59.5023V61.7023H153.1V59.6023C153.1 58.9023 152.8 58.5023 152.3 58.5023C151.9 58.5023 151.6 58.8023 151.5 59.1023C151.5 59.2023 151.4 59.3023 151.4 59.4023V61.7023H150.7V59.5023C150.7 58.9023 150.4 58.5023 149.9 58.5023C149.5 58.5023 149.2 58.8023 149.1 59.2023C149.1 59.3023 149 59.4023 149 59.5023V61.7023H148.3V59.1023H148.5Z" fill="#6B6B6B"/>
<path d="M155.3 60.1C155.3 61 155.9 61.4 156.6 61.4C157.1 61.4 157.4 61.3 157.6 61.2L157.7 61.7C157.5 61.8 157 61.9 156.5 61.9C155.3 61.9 154.7 61.1 154.7 60C154.7 58.9 155.4 58 156.5 58C157.7 58 158 59.1 158 59.8C158 59.9 158 60 158 60.1H155.3ZM157.3 59.6C157.3 59.2 157.1 58.5 156.4 58.5C155.7 58.5 155.4 59.1 155.4 59.6H157.3Z" fill="#6B6B6B"/>
<path d="M158.8 59.3C158.8 58.9 158.8 58.5 158.8 58.1H159.4V58.8C159.6 58.3 160 58 160.4 58C160.5 58 160.5 58 160.6 58V58.6C160.5 58.6 160.5 58.6 160.4 58.6C159.9 58.6 159.6 59 159.5 59.5C159.5 59.6 159.5 59.7 159.5 59.8V61.8H158.8V59.3Z" fill="#6B6B6B"/>
<path d="M164.599 59.9C164.599 61.3 163.599 61.9 162.699 61.9C161.699 61.9 160.899 61.2 160.899 60C160.899 58.8 161.699 58 162.799 58C163.899 58 164.599 58.8 164.599 59.9ZM161.699 60C161.699 60.8 162.199 61.4 162.799 61.4C163.399 61.4 163.899 60.8 163.899 60C163.899 59.4 163.599 58.6 162.799 58.6C161.999 58.5 161.699 59.3 161.699 60Z" fill="#6B6B6B"/>
<path d="M170.399 56.4023V60.9023C170.399 61.2023 170.399 61.6023 170.399 61.9023H169.799V61.3023C169.599 61.7023 169.099 62.0023 168.499 62.0023C167.599 62.0023 166.899 61.2023 166.899 60.1023C166.899 58.9023 167.699 58.1023 168.599 58.1023C169.199 58.1023 169.599 58.4023 169.699 58.7023V56.5023H170.399V56.4023ZM169.699 59.6023C169.699 59.5023 169.699 59.4023 169.699 59.3023C169.599 58.9023 169.199 58.5023 168.699 58.5023C167.999 58.5023 167.599 59.1023 167.599 59.9023C167.599 60.7023 167.999 61.3023 168.699 61.3023C169.199 61.3023 169.599 61.0023 169.699 60.5023C169.699 60.4023 169.699 60.3023 169.699 60.2023V59.6023Z" fill="#6B6B6B"/>
<path d="M171.9 60.1C171.9 61 172.5 61.4 173.2 61.4C173.7 61.4 174 61.3 174.2 61.2L174.3 61.7C174.1 61.8 173.6 61.9 173.1 61.9C171.9 61.9 171.3 61.1 171.3 60C171.3 58.9 172 58 173.1 58C174.3 58 174.6 59.1 174.6 59.8C174.6 59.9 174.6 60 174.6 60.1H171.9ZM173.9 59.6C173.9 59.2 173.7 58.5 173 58.5C172.3 58.5 172 59.1 172 59.6H173.9Z" fill="#6B6B6B"/>
<path d="M175.3 61.8008C175.3 61.5008 175.3 61.2008 175.3 60.8008V56.3008H176V58.6008C176.2 58.2008 176.7 57.9008 177.3 57.9008C178.2 57.9008 178.9 58.7008 178.9 59.8008C178.9 61.1008 178.1 61.8008 177.2 61.8008C176.7 61.8008 176.2 61.6008 175.9 61.1008V61.7008H175.3V61.8008ZM176 60.3008C176 60.4008 176 60.5008 176 60.5008C176.1 61.0008 176.5 61.3008 177 61.3008C177.7 61.3008 178.1 60.7008 178.1 59.9008C178.1 59.2008 177.7 58.5008 177 58.5008C176.5 58.5008 176.1 58.8008 176 59.3008C176 59.4008 176 59.5008 176 59.6008V60.3008Z" fill="#6B6B6B"/>
<path d="M180.2 60.1C180.2 61 180.8 61.4 181.5 61.4C182 61.4 182.3 61.3 182.5 61.2L182.6 61.7C182.4 61.8 181.9 61.9 181.4 61.9C180.2 61.9 179.6 61.1 179.6 60C179.6 58.9 180.3 58 181.4 58C182.6 58 182.9 59.1 182.9 59.8C182.9 59.9 182.9 60 182.9 60.1H180.2ZM182.1 59.6C182.1 59.2 181.9 58.5 181.2 58.5C180.5 58.5 180.2 59.1 180.2 59.6H182.1Z" fill="#6B6B6B"/>
<path d="M183.6 61.1023C183.8 61.2023 184.2 61.4023 184.5 61.4023C185 61.4023 185.2 61.2023 185.2 60.8023C185.2 60.5023 185 60.3023 184.5 60.1023C183.8 59.9023 183.5 59.5023 183.5 59.0023C183.5 58.4023 184 57.9023 184.8 57.9023C185.2 57.9023 185.5 58.0023 185.7 58.1023L185.5 58.6023C185.4 58.5023 185.1 58.4023 184.7 58.4023C184.3 58.4023 184.1 58.6023 184.1 58.9023C184.1 59.2023 184.3 59.3023 184.8 59.5023C185.5 59.7023 185.8 60.1023 185.8 60.6023C185.8 61.3023 185.3 61.7023 184.4 61.7023C184 61.7023 183.6 61.6023 183.3 61.4023L183.6 61.1023Z" fill="#6B6B6B"/>
<path d="M188.4 59.3C188.4 58.8 188.4 58.4 188.4 58.1H189V58.7C189.3 58.2 189.7 58 190.3 58C191.2 58 191.9 58.8 191.9 59.9C191.9 61.2 191.1 61.9 190.2 61.9C189.7 61.9 189.3 61.7 189 61.3V63.3H188.3V59.3H188.4ZM189 60.3C189 60.4 189 60.5 189 60.6C189.1 61.1 189.5 61.4 190 61.4C190.7 61.4 191.1 60.8 191.1 60C191.1 59.3 190.7 58.6 190 58.6C189.5 58.6 189.1 58.9 189 59.4C189 59.5 189 59.6 189 59.7V60.3Z" fill="#6B6B6B"/>
<path d="M194.8 61.8L194.7 61.3C194.5 61.6 194.1 61.9 193.6 61.9C192.8 61.9 192.5 61.4 192.5 60.8C192.5 59.9 193.3 59.4 194.8 59.4V59.3C194.8 59 194.7 58.4 193.9 58.4C193.6 58.4 193.2 58.5 192.9 58.7L192.7 58.3C193 58.1 193.5 58 193.9 58C195 58 195.3 58.8 195.3 59.5V60.9C195.3 61.2 195.3 61.5 195.4 61.8H194.8ZM194.7 59.9C194 59.9 193.1 60 193.1 60.7C193.1 61.1 193.4 61.3 193.7 61.3C194.2 61.3 194.5 61 194.6 60.7C194.6 60.6 194.6 60.6 194.6 60.5V59.9H194.7Z" fill="#6B6B6B"/>
<path d="M199.7 58.1C199.7 58.4 199.7 58.7 199.7 59.1V61.3C199.7 62.2 199.5 62.7 199.2 63C198.8 63.3 198.3 63.4 197.8 63.4C197.4 63.4 196.9 63.3 196.6 63.1L196.8 62.6C197 62.8 197.4 62.9 197.9 62.9C198.6 62.9 199.1 62.5 199.1 61.6V61.2C198.9 61.5 198.5 61.8 197.9 61.8C197 61.8 196.3 61 196.3 60C196.3 58.7 197.1 58 198 58C198.6 58 199 58.3 199.2 58.6V58H199.7V58.1ZM199 59.6C199 59.5 199 59.4 199 59.3C198.9 58.9 198.5 58.6 198 58.6C197.3 58.6 196.9 59.1 196.9 60C196.9 60.7 197.3 61.3 198 61.3C198.4 61.3 198.8 61 198.9 60.6C198.9 60.5 199 60.4 199 60.2V59.6Z" fill="#6B6B6B"/>
<path d="M202.9 61.8L202.8 61.3C202.6 61.6 202.2 61.9 201.7 61.9C200.9 61.9 200.6 61.4 200.6 60.8C200.6 59.9 201.4 59.4 202.9 59.4V59.3C202.9 59 202.8 58.4 202 58.4C201.7 58.4 201.3 58.5 201 58.7L200.8 58.3C201.1 58.1 201.6 58 202 58C203.1 58 203.4 58.8 203.4 59.5V60.9C203.4 61.2 203.4 61.5 203.5 61.8H202.9ZM202.8 59.9C202.1 59.9 201.2 60 201.2 60.7C201.2 61.1 201.5 61.3 201.8 61.3C202.3 61.3 202.6 61 202.7 60.7C202.7 60.6 202.7 60.6 202.7 60.5V59.9H202.8Z" fill="#6B6B6B"/>
<path d="M204.5 59.3C204.5 58.9 204.5 58.5 204.5 58.1H205.1V58.8C205.3 58.3 205.7 58 206.1 58C206.2 58 206.2 58 206.3 58V58.6C206.2 58.6 206.2 58.6 206.1 58.6C205.6 58.6 205.3 59 205.2 59.5C205.2 59.6 205.2 59.7 205.2 59.8V61.8H204.5V59.3Z" fill="#6B6B6B"/>
<path d="M209.1 60.1C209.1 61 209.7 61.4 210.4 61.4C210.9 61.4 211.2 61.3 211.4 61.2L211.5 61.7C211.3 61.8 210.8 61.9 210.3 61.9C209.1 61.9 208.5 61.1 208.5 60C208.5 58.9 209.2 58 210.3 58C211.5 58 211.8 59.1 211.8 59.8C211.8 59.9 211.8 60 211.8 60.1H209.1ZM211.1 59.6C211.1 59.2 210.9 58.5 210.2 58.5C209.5 58.5 209.2 59.1 209.2 59.6H211.1Z" fill="#6B6B6B"/>
<path d="M212.6 56.4023H213.3V61.8023H212.6V56.4023Z" fill="#6B6B6B"/>
<path d="M216.099 59.1023C216.099 58.7023 216.099 58.4023 216.099 58.1023H216.699V58.7023C216.899 58.3023 217.299 58.0023 217.899 58.0023C218.399 58.0023 218.799 58.3023 218.999 58.7023C219.099 58.5023 219.299 58.3023 219.399 58.2023C219.599 58.0023 219.899 57.9023 220.199 57.9023C220.699 57.9023 221.399 58.2023 221.399 59.5023V61.7023H220.699V59.6023C220.699 58.9023 220.399 58.5023 219.899 58.5023C219.499 58.5023 219.199 58.8023 219.099 59.1023C219.099 59.2023 218.999 59.3023 218.999 59.4023V61.7023H218.299V59.5023C218.299 58.9023 217.999 58.5023 217.499 58.5023C217.099 58.5023 216.799 58.8023 216.699 59.2023C216.699 59.3023 216.599 59.4023 216.599 59.5023V61.7023H215.899V59.1023H216.099Z" fill="#6B6B6B"/>
<path d="M224.6 61.8L224.5 61.3C224.3 61.6 223.9 61.9 223.4 61.9C222.6 61.9 222.3 61.4 222.3 60.8C222.3 59.9 223.1 59.4 224.6 59.4V59.3C224.6 59 224.5 58.4 223.7 58.4C223.4 58.4 223 58.5 222.7 58.7L222.5 58.3C222.8 58.1 223.3 58 223.7 58C224.8 58 225.1 58.8 225.1 59.5V60.9C225.1 61.2 225.1 61.5 225.2 61.8H224.6ZM224.5 59.9C223.8 59.9 222.9 60 222.9 60.7C222.9 61.1 223.2 61.3 223.5 61.3C224 61.3 224.3 61 224.4 60.7C224.4 60.6 224.4 60.6 224.4 60.5V59.9H224.5ZM224.8 56.5L223.9 57.6H223.4L224.1 56.5H224.8Z" fill="#6B6B6B"/>
<path d="M226.199 61.1023C226.399 61.2023 226.799 61.4023 227.099 61.4023C227.599 61.4023 227.799 61.2023 227.799 60.8023C227.799 60.5023 227.599 60.3023 227.099 60.1023C226.399 59.9023 226.099 59.5023 226.099 59.0023C226.099 58.4023 226.599 57.9023 227.399 57.9023C227.799 57.9023 228.099 58.0023 228.299 58.1023L228.099 58.6023C227.999 58.5023 227.699 58.4023 227.299 58.4023C226.899 58.4023 226.699 58.6023 226.699 58.9023C226.699 59.2023 226.899 59.3023 227.399 59.5023C228.099 59.7023 228.399 60.1023 228.399 60.6023C228.399 61.3023 227.899 61.7023 226.999 61.7023C226.599 61.7023 226.199 61.6023 225.899 61.4023L226.199 61.1023Z" fill="#6B6B6B"/>
<path d="M233 61.8L232.9 61.3C232.7 61.6 232.3 61.9 231.8 61.9C231 61.9 230.7 61.4 230.7 60.8C230.7 59.9 231.5 59.4 233 59.4V59.3C233 59 232.9 58.4 232.1 58.4C231.8 58.4 231.4 58.5 231.1 58.7L230.9 58.3C231.2 58.1 231.7 58 232.1 58C233.2 58 233.5 58.8 233.5 59.5V60.9C233.5 61.2 233.5 61.5 233.6 61.8H233ZM232.9 59.9C232.2 59.9 231.3 60 231.3 60.7C231.3 61.1 231.6 61.3 231.9 61.3C232.4 61.3 232.7 61 232.8 60.7C232.8 60.6 232.8 60.6 232.8 60.5V59.9H232.9Z" fill="#6B6B6B"/>
<path d="M234.7 59.1C234.7 58.7 234.7 58.4 234.7 58.1H235.3V58.7C235.5 58.3 235.9 58 236.5 58C237 58 237.8 58.3 237.8 59.6V61.8H237.1V59.7C237.1 59.1 236.9 58.6 236.2 58.6C235.8 58.6 235.4 58.9 235.3 59.3C235.3 59.4 235.3 59.5 235.3 59.6V61.8H234.6V59.1H234.7Z" fill="#6B6B6B"/>
<path d="M239.8 57V58.1H240.8V58.6H239.8V60.6C239.8 61.1 239.9 61.3 240.3 61.3C240.5 61.3 240.6 61.3 240.7 61.3V61.8C240.6 61.9 240.4 61.9 240.1 61.9C239.8 61.9 239.5 61.8 239.4 61.6C239.2 61.4 239.1 61.1 239.1 60.6V58.6H238.5V58.1H239.1V57.2L239.8 57Z" fill="#6B6B6B"/>
<path d="M242.3 57.1018C242.3 57.3018 242.1 57.5018 241.9 57.5018C241.7 57.5018 241.5 57.3018 241.5 57.1018C241.5 56.9018 241.7 56.7018 241.9 56.7018C242.1 56.6018 242.3 56.8018 242.3 57.1018ZM241.5 61.8018V58.1018H242.2V61.8018H241.5Z" fill="#6B6B6B"/>
<path d="M246.5 58.1C246.5 58.4 246.5 58.7 246.5 59.1V61.3C246.5 62.2 246.3 62.7 246 63C245.6 63.3 245.1 63.4 244.6 63.4C244.2 63.4 243.7 63.3 243.4 63.1L243.6 62.6C243.8 62.8 244.2 62.9 244.7 62.9C245.4 62.9 245.9 62.5 245.9 61.6V61.2C245.7 61.5 245.3 61.8 244.7 61.8C243.8 61.8 243.1 61 243.1 60C243.1 58.7 243.9 58 244.8 58C245.4 58 245.8 58.3 246 58.6V58H246.5V58.1ZM245.8 59.6C245.8 59.5 245.8 59.4 245.8 59.3C245.7 58.9 245.3 58.6 244.8 58.6C244.1 58.6 243.7 59.1 243.7 60C243.7 60.7 244.1 61.3 244.8 61.3C245.2 61.3 245.6 61 245.7 60.6C245.7 60.5 245.8 60.4 245.8 60.2V59.6Z" fill="#6B6B6B"/>
<path d="M250.8 60.8016C250.8 61.2016 250.8 61.5016 250.8 61.8016H250.2V61.2016C250 61.5016 249.6 61.9016 249 61.9016C248.4 61.9016 247.7 61.6016 247.7 60.3016V58.1016H248.4V60.2016C248.4 60.9016 248.6 61.4016 249.2 61.4016C249.7 61.4016 250 61.1016 250.1 60.8016C250.1 60.7016 250.2 60.6016 250.2 60.5016V58.2016H250.9V60.8016H250.8Z" fill="#6B6B6B"/>
<path d="M255.3 59.9C255.3 61.3 254.3 61.9 253.4 61.9C252.4 61.9 251.6 61.2 251.6 60C251.6 58.8 252.4 58 253.5 58C254.6 58 255.3 58.8 255.3 59.9ZM252.3 60C252.3 60.8 252.8 61.4 253.4 61.4C254 61.4 254.5 60.8 254.5 60C254.5 59.4 254.2 58.6 253.4 58.6C252.7 58.5 252.3 59.3 252.3 60Z" fill="#6B6B6B"/>
<path d="M106.4 90.0008V84.3008H107.2L109 87.2008C109.4 87.9008 109.8 88.5008 110 89.0008C109.9 88.2008 109.9 87.5008 109.9 86.7008V84.3008H110.6V90.0008H109.8L108 87.1008C107.6 86.5008 107.2 85.8008 106.9 85.2008C106.9 85.9008 107 86.6008 107 87.5008V90.0008H106.4Z" fill="#6B6B6B"/>
<path d="M113.8 85.4008C113.8 86.1008 113.2 86.5008 112.7 86.5008C112 86.5008 111.6 86.0008 111.6 85.4008C111.6 84.7008 112.1 84.3008 112.7 84.3008C113.4 84.3008 113.8 84.8008 113.8 85.4008ZM112 85.4008C112 85.8008 112.3 86.1008 112.7 86.1008C113.1 86.1008 113.4 85.8008 113.4 85.4008C113.4 85.1008 113.2 84.7008 112.7 84.7008C112.2 84.7008 112 85.0008 112 85.4008Z" fill="#6B6B6B"/>
<path d="M116.5 84.4008C116.9 84.3008 117.4 84.3008 117.9 84.3008C118.7 84.3008 119.2 84.4008 119.6 84.8008C119.9 85.1008 120.1 85.4008 120.1 85.9008C120.1 86.7008 119.6 87.1008 119 87.4008C119.4 87.6008 119.7 88.0008 119.8 88.5008C120 89.3008 120.1 89.8008 120.2 90.1008H119.4C119.3 89.9008 119.2 89.5008 119 88.7008C118.8 87.9008 118.5 87.6008 117.9 87.6008H117.2V90.0008H116.5V84.4008ZM117.2 87.0008H118C118.8 87.0008 119.3 86.6008 119.3 85.9008C119.3 85.2008 118.8 84.8008 118 84.8008C117.6 84.8008 117.4 84.8008 117.3 84.9008V87.0008H117.2Z" fill="#6B6B6B"/>
<path d="M121.5 88.1008C121.5 89.1008 122.2 89.5008 122.9 89.5008C123.4 89.5008 123.8 89.4008 124 89.3008L124.1 89.8008C123.8 89.9008 123.4 90.1008 122.7 90.1008C121.4 90.1008 120.7 89.3008 120.7 88.0008C120.7 86.8008 121.4 85.8008 122.6 85.8008C123.9 85.8008 124.3 87.0008 124.3 87.7008C124.3 87.9008 124.3 88.0008 124.3 88.0008H121.5V88.1008ZM123.7 87.6008C123.7 87.1008 123.5 86.4008 122.7 86.4008C121.9 86.4008 121.6 87.1008 121.6 87.6008H123.7Z" fill="#6B6B6B"/>
<path d="M128.3 89.9008C128.1 90.0008 127.7 90.1008 127.1 90.1008C125.9 90.1008 125 89.3008 125 88.0008C125 86.7008 125.9 85.8008 127.2 85.8008C127.6 85.8008 128 85.9008 128.2 86.0008L128 86.6008C127.8 86.5008 127.5 86.4008 127.1 86.4008C126.2 86.4008 125.6 87.1008 125.6 87.9008C125.6 88.8008 126.2 89.4008 127 89.4008C127.4 89.4008 127.7 89.3008 127.9 89.2008L128.3 89.9008Z" fill="#6B6B6B"/>
<path d="M130 84.8008C130 85.1008 129.8 85.3008 129.5 85.3008C129.2 85.3008 129 85.1008 129 84.8008C129 84.5008 129.2 84.3008 129.5 84.3008C129.8 84.4008 130 84.6008 130 84.8008ZM129.1 90.0008V86.0008H129.8V90.0008H129.1Z" fill="#6B6B6B"/>
<path d="M131.1 90C131.1 89.7 131.1 89.3 131.1 88.9V84H131.8V86.6C132.1 86.1 132.5 85.8 133.2 85.8C134.2 85.8 134.9 86.6 134.9 87.9C134.9 89.4 134 90.1 133.1 90.1C132.5 90.1 132 89.9 131.7 89.3V90H131.1ZM131.9 88.4C131.9 88.5 131.9 88.6 131.9 88.7C132 89.2 132.5 89.6 133 89.6C133.8 89.6 134.3 89 134.3 88C134.3 87.2 133.9 86.5 133.1 86.5C132.6 86.5 132.1 86.8 132 87.4C132 87.5 132 87.6 132 87.7V88.4H131.9Z" fill="#6B6B6B"/>
<path d="M139.7 87.9984C139.7 89.4984 138.6 90.1984 137.6 90.1984C136.5 90.1984 135.6 89.3984 135.6 88.0984C135.6 86.6984 136.5 85.8984 137.6 85.8984C138.9 85.8984 139.7 86.6984 139.7 87.9984ZM136.4 87.9984C136.4 88.8984 136.9 89.5984 137.7 89.5984C138.4 89.5984 139 88.8984 139 87.9984C139 87.2984 138.7 86.3984 137.8 86.3984C136.9 86.3984 136.4 87.1984 136.4 87.9984Z" fill="#6B6B6B"/>
<path d="M144.5 90V88.5H142V88L144.5 84.5H145.3V88H146.1V88.6H145.3V90H144.5ZM144.5 88V86.2C144.5 85.9 144.5 85.6 144.5 85.3C144.3 85.6 144.2 85.9 144 86.1L142.6 88H144.5Z" fill="#6B6B6B"/>
<path d="M149.9 85.1992H147.8L147.6 86.5992C147.7 86.5992 147.8 86.5992 148.1 86.5992C148.5 86.5992 149 86.6992 149.3 86.8992C149.7 87.0992 150.1 87.5992 150.1 88.2992C150.1 89.3992 149.2 90.1992 148 90.1992C147.4 90.1992 146.9 89.9992 146.6 89.8992L146.8 89.2992C147 89.3992 147.5 89.5992 148 89.5992C148.7 89.5992 149.3 89.0992 149.3 88.3992C149.3 87.6992 148.8 87.1992 147.7 87.1992C147.4 87.1992 147.1 87.1992 146.9 87.2992L147.3 84.6992H149.9V85.1992Z" fill="#6B6B6B"/>
<path d="M154.6 87.1984C154.6 89.0984 153.9 90.0984 152.7 90.0984C151.6 90.0984 150.9 89.0984 150.9 87.2984C150.9 85.4984 151.7 84.3984 152.8 84.3984C154 84.4984 154.6 85.4984 154.6 87.1984ZM151.6 87.2984C151.6 88.6984 152 89.4984 152.7 89.4984C153.5 89.4984 153.8 88.5984 153.8 87.1984C153.8 85.7984 153.5 84.9984 152.7 84.9984C152.1 84.9984 151.6 85.7984 151.6 87.2984Z" fill="#6B6B6B"/>
<path d="M159 87.1984C159 89.0984 158.3 90.0984 157.1 90.0984C156 90.0984 155.3 89.0984 155.3 87.2984C155.3 85.4984 156.1 84.3984 157.2 84.3984C158.3 84.4984 159 85.4984 159 87.1984ZM156 87.2984C156 88.6984 156.4 89.4984 157.1 89.4984C157.9 89.4984 158.2 88.5984 158.2 87.1984C158.2 85.7984 157.9 84.9984 157.1 84.9984C156.5 84.9984 156 85.7984 156 87.2984Z" fill="#6B6B6B"/>
<path d="M163.4 87.1984C163.4 89.0984 162.7 90.0984 161.5 90.0984C160.4 90.0984 159.7 89.0984 159.7 87.2984C159.7 85.4984 160.5 84.3984 161.6 84.3984C162.7 84.4984 163.4 85.4984 163.4 87.1984ZM160.4 87.2984C160.4 88.6984 160.8 89.4984 161.5 89.4984C162.3 89.4984 162.6 88.5984 162.6 87.1984C162.6 85.7984 162.3 84.9984 161.5 84.9984C160.8 84.9984 160.4 85.7984 160.4 87.2984Z" fill="#6B6B6B"/>
<path d="M167.7 87.1984C167.7 89.0984 167 90.0984 165.8 90.0984C164.7 90.0984 164 89.0984 164 87.2984C164 85.4984 164.8 84.3984 165.9 84.3984C167.1 84.4984 167.7 85.4984 167.7 87.1984ZM164.7 87.2984C164.7 88.6984 165.1 89.4984 165.8 89.4984C166.6 89.4984 166.9 88.5984 166.9 87.1984C166.9 85.7984 166.6 84.9984 165.8 84.9984C165.2 84.9984 164.7 85.7984 164.7 87.2984Z" fill="#6B6B6B"/>
<path d="M172.1 87.1984C172.1 89.0984 171.4 90.0984 170.2 90.0984C169.1 90.0984 168.4 89.0984 168.4 87.2984C168.4 85.4984 169.2 84.3984 170.3 84.3984C171.4 84.4984 172.1 85.4984 172.1 87.1984ZM169.1 87.2984C169.1 88.6984 169.5 89.4984 170.2 89.4984C171 89.4984 171.3 88.5984 171.3 87.1984C171.3 85.7984 171 84.9984 170.2 84.9984C169.6 84.9984 169.1 85.7984 169.1 87.2984Z" fill="#6B6B6B"/>
<path d="M176.5 87.1984C176.5 89.0984 175.8 90.0984 174.6 90.0984C173.5 90.0984 172.8 89.0984 172.8 87.2984C172.8 85.4984 173.6 84.3984 174.7 84.3984C175.8 84.4984 176.5 85.4984 176.5 87.1984ZM173.5 87.2984C173.5 88.6984 173.9 89.4984 174.6 89.4984C175.4 89.4984 175.7 88.5984 175.7 87.1984C175.7 85.7984 175.4 84.9984 174.6 84.9984C173.9 84.9984 173.5 85.7984 173.5 87.2984Z" fill="#6B6B6B"/>
<path d="M180.7 84.6016V85.1016L178.3 90.1016H177.5L179.9 85.2016H177.2V84.6016H180.7Z" fill="#6B6B6B"/>
<path d="M184.7 85.1C184.5 85.1 184.4 85.1 184.1 85.1C182.9 85.3 182.3 86.1 182.2 87C182.5 86.7 182.9 86.4 183.5 86.4C184.5 86.4 185.2 87.1 185.2 88.2C185.2 89.2 184.5 90.1 183.4 90.1C182.2 90.1 181.4 89.2 181.4 87.8C181.4 86.7 181.8 85.9 182.3 85.3C182.8 84.9 183.4 84.6 184.1 84.5C184.3 84.5 184.5 84.5 184.6 84.5V85.1H184.7ZM184.5 88.3C184.5 87.5 184 87 183.4 87C182.9 87 182.5 87.3 182.3 87.7C182.2 87.8 182.2 87.9 182.2 88C182.2 88.9 182.6 89.6 183.4 89.6C184 89.6 184.5 89 184.5 88.3Z" fill="#6B6B6B"/>
<path d="M189.6 87.1984C189.6 89.0984 188.9 90.0984 187.7 90.0984C186.6 90.0984 185.9 89.0984 185.9 87.2984C185.9 85.4984 186.7 84.3984 187.8 84.3984C188.9 84.4984 189.6 85.4984 189.6 87.1984ZM186.6 87.2984C186.6 88.6984 187 89.4984 187.7 89.4984C188.5 89.4984 188.8 88.5984 188.8 87.1984C188.8 85.7984 188.5 84.9984 187.7 84.9984C187 84.9984 186.6 85.7984 186.6 87.2984Z" fill="#6B6B6B"/>
<path d="M191.9 85.3016L190.9 85.8016L190.8 85.2016L192 84.6016H192.6V90.0016H191.9V85.3016Z" fill="#6B6B6B"/>
<path d="M197.9 85.1992H195.8L195.6 86.5992C195.7 86.5992 195.8 86.5992 196.1 86.5992C196.5 86.5992 197 86.6992 197.3 86.8992C197.7 87.0992 198.1 87.5992 198.1 88.2992C198.1 89.3992 197.2 90.1992 196 90.1992C195.4 90.1992 194.9 89.9992 194.6 89.8992L194.8 89.2992C195 89.3992 195.5 89.5992 196 89.5992C196.7 89.5992 197.3 89.0992 197.3 88.3992C197.3 87.6992 196.8 87.1992 195.7 87.1992C195.4 87.1992 195.1 87.1992 194.9 87.2992L195.3 84.6992H197.9V85.1992Z" fill="#6B6B6B"/>
<path d="M202.3 85.1992H200.2L200 86.5992C200.1 86.5992 200.2 86.5992 200.5 86.5992C200.9 86.5992 201.4 86.6992 201.7 86.8992C202.1 87.0992 202.5 87.5992 202.5 88.2992C202.5 89.3992 201.6 90.1992 200.4 90.1992C199.8 90.1992 199.3 89.9992 199 89.8992L199.2 89.2992C199.4 89.3992 199.9 89.5992 200.4 89.5992C201.1 89.5992 201.7 89.0992 201.7 88.3992C201.7 87.6992 201.2 87.1992 200.1 87.1992C199.8 87.1992 199.5 87.1992 199.3 87.2992L199.7 84.6992H202.3V85.1992Z" fill="#6B6B6B"/>
<path d="M207 87.1984C207 89.0984 206.3 90.0984 205.1 90.0984C204 90.0984 203.3 89.0984 203.3 87.2984C203.3 85.4984 204.1 84.3984 205.2 84.3984C206.4 84.4984 207 85.4984 207 87.1984ZM204 87.2984C204 88.6984 204.4 89.4984 205.1 89.4984C205.9 89.4984 206.2 88.5984 206.2 87.1984C206.2 85.7984 205.9 84.9984 205.1 84.9984C204.5 84.9984 204 85.7984 204 87.2984Z" fill="#6B6B6B"/>
<path d="M207.9 89.2C208.1 89.3 208.6 89.5 209.1 89.5C210.1 89.5 210.4 88.9 210.4 88.4C210.4 87.6 209.7 87.3 209 87.3H208.6V86.7H209C209.5 86.7 210.2 86.4 210.2 85.8C210.2 85.4 209.9 85 209.2 85C208.8 85 208.3 85.2 208.1 85.4L207.9 84.9C208.2 84.7 208.8 84.5 209.3 84.5C210.4 84.5 210.9 85.1 210.9 85.8C210.9 86.4 210.6 86.8 209.9 87.1C210.6 87.2 211.1 87.7 211.1 88.5C211.1 89.4 210.4 90.1 209.1 90.1C208.5 90.1 207.9 89.9 207.7 89.7L207.9 89.2Z" fill="#6B6B6B"/>
<path d="M107.5 94.2031H108.2V98.0031C108.2 99.5031 107.4 100.003 106.5 100.003C106.2 100.003 105.9 99.9031 105.7 99.9031L105.8 99.3031C106 99.4031 106.2 99.4031 106.4 99.4031C107.1 99.4031 107.5 99.1031 107.5 98.0031V94.2031Z" fill="#6B6B6B"/>
<path d="M110.2 94.2031V97.6031C110.2 98.9031 110.8 99.4031 111.5 99.4031C112.4 99.4031 112.9 98.8031 112.9 97.6031V94.2031H113.6V97.5031C113.6 99.2031 112.7 100.003 111.4 100.003C110.2 100.003 109.3 99.3031 109.3 97.6031V94.2031H110.2Z" fill="#6B6B6B"/>
<path d="M115.7 98.1031L115.1 99.9031H114.3L116.2 94.2031H117.1L119.1 99.9031H118.3L117.7 98.1031H115.7ZM117.5 97.5031L116.9 95.9031C116.8 95.5031 116.7 95.2031 116.6 94.9031C116.5 95.2031 116.4 95.6031 116.3 95.9031L115.7 97.5031H117.5Z" fill="#6B6B6B"/>
<path d="M119.9 99.9031V94.2031H120.7L122.5 97.1031C122.9 97.8031 123.3 98.4031 123.5 98.9031C123.4 98.1031 123.4 97.4031 123.4 96.6031V94.2031H124.1V99.9031H123.4L121.6 97.0031C121.2 96.4031 120.8 95.7031 120.5 95.1031C120.5 95.8031 120.6 96.5031 120.6 97.4031V99.8031H119.9V99.9031Z" fill="#6B6B6B"/>
<path d="M127.3 94.2016C127.7 94.1016 128.1 94.1016 128.7 94.1016C129.4 94.1016 130 94.3016 130.3 94.6016C130.6 94.9016 130.8 95.3016 130.8 95.8016C130.8 96.3016 130.6 96.7016 130.4 97.0016C130 97.4016 129.4 97.6016 128.6 97.6016C128.4 97.6016 128.2 97.6016 128 97.5016V99.8016H127.3V94.2016ZM128.1 97.0016C128.3 97.0016 128.5 97.1016 128.7 97.1016C129.6 97.1016 130.1 96.7016 130.1 95.9016C130.1 95.1016 129.6 94.8016 128.7 94.8016C128.4 94.8016 128.1 94.8016 128 94.9016V97.0016H128.1Z" fill="#6B6B6B"/>
<path d="M134.8 97.2016H132.6V99.2016H135.1V99.8016H131.9V94.1016H135V94.7016H132.6V96.5016H134.8V97.2016Z" fill="#6B6B6B"/>
<path d="M136.1 94.2016C136.5 94.1016 137 94.1016 137.5 94.1016C138.3 94.1016 138.8 94.2016 139.2 94.6016C139.5 94.9016 139.7 95.2016 139.7 95.7016C139.7 96.5016 139.2 96.9016 138.6 97.2016C139 97.4016 139.3 97.8016 139.4 98.3016C139.6 99.1016 139.7 99.6016 139.8 99.9016H139C138.9 99.7016 138.8 99.3016 138.6 98.5016C138.4 97.7016 138.1 97.4016 137.5 97.4016H136.8V99.9016H136.1V94.2016ZM136.8 96.8016H137.6C138.4 96.8016 138.9 96.4016 138.9 95.7016C138.9 95.0016 138.4 94.6016 137.6 94.6016C137.2 94.6016 137 94.6016 136.9 94.7016V96.8016H136.8Z" fill="#6B6B6B"/>
<path d="M143.6 97.2016H141.4V99.2016H143.9V99.8016H140.7V94.1016H143.8V94.7016H141.4V96.5016H143.6V97.2016Z" fill="#6B6B6B"/>
<path d="M144.4 99.4031L147.6 94.8031H144.7V94.2031H148.6V94.6031L145.4 99.2031H148.6V99.8031H144.4V99.4031Z" fill="#6B6B6B"/>
<path d="M107.5 113.102L105.8 107.902H106.5L107.3 110.502C107.5 111.202 107.7 111.802 107.9 112.502C108 111.902 108.3 111.202 108.5 110.602L109.4 108.002H110.1L108.2 113.202H107.5V113.102Z" fill="#6B6B6B"/>
<path d="M110.8 111.303C110.8 112.203 111.4 112.603 112.1 112.603C112.6 112.603 112.9 112.503 113.1 112.403L113.2 112.903C113 113.003 112.5 113.103 111.9 113.103C110.7 113.103 110 112.303 110 111.203C110 110.103 110.7 109.203 111.8 109.203C113 109.203 113.4 110.303 113.4 111.003C113.4 111.103 113.4 111.203 113.4 111.303H110.8ZM112.8 110.903C112.8 110.503 112.6 109.803 111.8 109.803C111.1 109.803 110.8 110.403 110.7 110.903H112.8Z" fill="#6B6B6B"/>
<path d="M114.3 110.401C114.3 110.001 114.3 109.701 114.3 109.401H114.9V110.001C115.1 109.601 115.5 109.301 116.2 109.301C116.7 109.301 117.5 109.601 117.5 110.901V113.101H116.8V110.901C116.8 110.301 116.6 109.801 115.9 109.801C115.4 109.801 115.1 110.101 115 110.501C115 110.601 115 110.701 115 110.801V113.101H114.3V110.401Z" fill="#6B6B6B"/>
<path d="M121.3 113.001C121.1 113.101 120.7 113.201 120.2 113.201C119.1 113.201 118.3 112.401 118.3 111.301C118.3 110.101 119.1 109.301 120.3 109.301C120.7 109.301 121.1 109.401 121.3 109.501L121.1 110.001C120.9 109.901 120.7 109.801 120.3 109.801C119.4 109.801 119 110.401 119 111.201C119 112.101 119.6 112.601 120.3 112.601C120.7 112.601 120.9 112.501 121.1 112.401L121.3 113.001Z" fill="#6B6B6B"/>
<path d="M122.5 111.303C122.5 112.203 123.1 112.603 123.8 112.603C124.3 112.603 124.6 112.503 124.8 112.403L124.9 112.903C124.7 113.003 124.2 113.103 123.6 113.103C122.4 113.103 121.7 112.303 121.7 111.203C121.7 110.103 122.4 109.203 123.5 109.203C124.7 109.203 125.1 110.303 125.1 111.003C125.1 111.103 125.1 111.203 125.1 111.303H122.5ZM124.5 110.903C124.5 110.503 124.3 109.803 123.5 109.803C122.8 109.803 122.5 110.403 122.4 110.903H124.5Z" fill="#6B6B6B"/>
<path d="M125.8 110.004C125.8 109.704 126 109.504 126.3 109.504C126.6 109.504 126.8 109.704 126.8 110.004C126.8 110.304 126.6 110.504 126.3 110.504C126 110.404 125.8 110.204 125.8 110.004ZM125.8 112.704C125.8 112.404 126 112.204 126.3 112.204C126.6 112.204 126.8 112.404 126.8 112.704C126.8 113.004 126.6 113.204 126.3 113.204C126 113.204 125.8 113.004 125.8 112.704Z" fill="#6B6B6B"/>
<path d="M130.5 108.702L129.6 109.202L129.5 108.702L130.6 108.102H131.2V113.102H130.5V108.702Z" fill="#6B6B6B"/>
<path d="M136 108.504C135.9 108.504 135.7 108.504 135.5 108.504C134.4 108.704 133.9 109.504 133.7 110.304C133.9 110.004 134.4 109.704 134.9 109.704C135.8 109.704 136.4 110.304 136.4 111.304C136.4 112.204 135.8 113.104 134.7 113.104C133.6 113.104 132.9 112.304 132.9 111.004C132.9 110.004 133.3 109.204 133.8 108.704C134.2 108.304 134.8 108.004 135.4 108.004C135.6 108.004 135.8 108.004 135.9 108.004V108.504H136ZM135.8 111.404C135.8 110.704 135.4 110.204 134.8 110.204C134.4 110.204 134 110.504 133.8 110.804C133.8 110.904 133.7 111.004 133.7 111.104C133.7 111.904 134.1 112.504 134.8 112.504C135.4 112.704 135.8 112.204 135.8 111.404Z" fill="#6B6B6B"/>
<path d="M138 114.202C138.3 114.202 138.6 114.102 138.8 113.902C139 113.702 139.1 113.402 139.1 112.502V109.402H139.8V112.802C139.8 113.502 139.7 114.002 139.3 114.302C139 114.602 138.5 114.702 138.1 114.702L138 114.202ZM139.8 108.302C139.8 108.502 139.6 108.702 139.4 108.702C139.1 108.702 139 108.502 139 108.302C139 108.102 139.2 107.902 139.4 107.902C139.6 107.902 139.8 108.102 139.8 108.302Z" fill="#6B6B6B"/>
<path d="M144 112.102C144 112.502 144 112.802 144 113.102H143.4V112.502C143.2 112.802 142.8 113.202 142.1 113.202C141.5 113.202 140.8 112.902 140.8 111.602V109.402H141.5V111.502C141.5 112.202 141.7 112.702 142.3 112.702C142.8 112.702 143.1 112.402 143.2 112.102C143.2 112.002 143.3 111.902 143.3 111.802V109.502H144V112.102Z" fill="#6B6B6B"/>
<path d="M145.1 110.401C145.1 110.001 145.1 109.701 145.1 109.401H145.7V110.001C145.9 109.601 146.3 109.301 147 109.301C147.5 109.301 148.3 109.601 148.3 110.901V113.101H147.6V110.901C147.6 110.301 147.4 109.801 146.7 109.801C146.2 109.801 145.9 110.101 145.8 110.501C145.8 110.601 145.8 110.701 145.8 110.801V113.101H145.1V110.401Z" fill="#6B6B6B"/>
<path d="M149.3 112.703C149.3 112.403 149.5 112.203 149.8 112.203C150.1 112.203 150.3 112.403 150.3 112.703C150.3 113.003 150.1 113.203 149.8 113.203C149.5 113.203 149.3 113.003 149.3 112.703Z" fill="#6B6B6B"/>
<path d="M107.3 78.1031L106.7 79.9031H105.9L107.8 74.2031H108.7L110.6 79.9031H109.8L109.2 78.1031H107.3ZM109.1 77.5031L108.5 75.9031C108.4 75.5031 108.3 75.2031 108.2 74.9031C108.1 75.2031 108 75.6031 107.9 75.9031L107.3 77.6031H109.1V77.5031Z" fill="#140603"/>
<path d="M115.4 79.7016C115.1 79.8016 114.6 80.0016 113.9 80.0016C112.3 80.0016 111.1 79.0016 111.1 77.1016C111.1 75.3016 112.3 74.1016 114.1 74.1016C114.8 74.1016 115.3 74.3016 115.5 74.4016L115.3 75.0016C115 74.9016 114.6 74.8016 114.1 74.8016C112.8 74.8016 111.9 75.7016 111.9 77.2016C111.9 78.6016 112.7 79.5016 114.1 79.5016C114.5 79.5016 115 79.4016 115.3 79.3016L115.4 79.7016Z" fill="#140603"/>
<path d="M117.3 78.1031L116.7 79.9031H115.9L117.8 74.2031H118.7L120.6 79.9031H119.8L119.2 78.1031H117.3ZM119.1 77.5031L118.5 75.9031C118.4 75.5031 118.3 75.2031 118.2 74.9031C118.1 75.2031 118 75.6031 117.9 75.9031L117.3 77.6031H119.1V77.5031Z" fill="#140603"/>
<path d="M121.5 74.2016C121.9 74.1016 122.5 74.1016 123.1 74.1016C124.2 74.1016 124.9 74.3016 125.4 74.8016C125.9 75.3016 126.2 75.9016 126.2 76.8016C126.2 77.7016 125.9 78.5016 125.4 79.0016C124.9 79.5016 124 79.8016 122.9 79.8016C122.4 79.8016 121.9 79.8016 121.6 79.7016V74.2016H121.5ZM122.3 79.3016C122.5 79.3016 122.8 79.3016 123 79.3016C124.6 79.3016 125.4 78.4016 125.4 76.9016C125.4 75.6016 124.6 74.7016 123.1 74.7016C122.7 74.7016 122.4 74.7016 122.2 74.8016V79.3016H122.3Z" fill="#140603"/>
<path d="M130.1 77.2031H127.9V79.3031H130.4V79.9031H127.2V74.2031H130.3V74.8031H128V76.6031H130.2V77.2031H130.1Z" fill="#140603"/>
<path d="M136.1 77.3016C136.1 76.5016 136 75.5016 136 74.8016C135.8 75.5016 135.6 76.2016 135.3 77.0016L134.3 79.8016H133.7L132.8 77.1016C132.5 76.3016 132.3 75.6016 132.1 74.9016C132.1 75.6016 132 76.6016 132 77.4016L131.8 79.8016H131.1L131.5 74.1016H132.4L133.4 76.9016C133.6 77.6016 133.8 78.2016 134 78.8016C134.1 78.2016 134.3 77.6016 134.6 76.9016L135.6 74.1016H136.5L136.9 79.8016H136.2L136.1 77.3016Z" fill="#140603"/>
<path d="M138.9 74.1016V79.8016H138.2V74.1016H138.9Z" fill="#140603"/>
<path d="M141.1 78.1031L140.5 79.9031H139.7L141.6 74.2031H142.5L144.4 79.9031H143.6L143 78.1031H141.1ZM143 77.5031L142.4 75.9031C142.3 75.5031 142.2 75.2031 142.1 74.9031C142 75.2031 141.9 75.6031 141.8 75.9031L141.2 77.6031H143V77.5031Z" fill="#140603"/>
<path d="M145.2 79.0031C145.5 79.2031 146 79.4031 146.5 79.4031C147.3 79.4031 147.7 79.0031 147.7 78.4031C147.7 77.9031 147.4 77.6031 146.6 77.3031C145.7 77.0031 145.1 76.5031 145.1 75.7031C145.1 74.8031 145.8 74.2031 146.9 74.2031C147.5 74.2031 147.9 74.3031 148.2 74.5031L148 75.1031C147.8 75.0031 147.4 74.8031 146.9 74.8031C146.1 74.8031 145.8 75.3031 145.8 75.7031C145.8 76.2031 146.1 76.5031 146.9 76.8031C147.9 77.2031 148.4 77.6031 148.4 78.5031C148.4 79.4031 147.7 80.1031 146.4 80.1031C145.8 80.1031 145.2 79.9031 144.9 79.7031L145.2 79.0031Z" fill="#140603"/>
<path d="M152 74.8031H150.3V74.2031H154.5V74.8031H152.8V79.9031H152V74.8031Z" fill="#140603"/>
<path d="M155.2 74.2016C155.6 74.1016 156.1 74.1016 156.6 74.1016C157.4 74.1016 157.9 74.2016 158.3 74.6016C158.6 74.9016 158.7 75.2016 158.7 75.7016C158.7 76.5016 158.2 77.0016 157.6 77.2016C158 77.4016 158.3 77.8016 158.4 78.4016C158.6 79.2016 158.7 79.7016 158.8 80.0016H158C157.9 79.8016 157.8 79.3016 157.6 78.6016C157.4 77.8016 157.1 77.5016 156.5 77.5016H155.8V80.0016H155.1V74.2016H155.2ZM155.9 76.8016H156.7C157.5 76.8016 158 76.4016 158 75.7016C158 75.0016 157.5 74.6016 156.7 74.6016C156.3 74.6016 156.1 74.6016 156 74.7016V76.8016H155.9Z" fill="#140603"/>
<path d="M160.5 74.1016V79.8016H159.8V74.1016H160.5Z" fill="#140603"/>
<path d="M161.7 74.1016H162.4V79.2016H164.8V79.8016H161.6V74.1016H161.7Z" fill="#140603"/>
<path d="M169.4 79.7016C169.1 79.8016 168.6 80.0016 167.9 80.0016C166.3 80.0016 165.1 79.0016 165.1 77.1016C165.1 75.3016 166.3 74.1016 168.1 74.1016C168.8 74.1016 169.3 74.3016 169.5 74.4016L169.3 75.0016C169 74.9016 168.6 74.8016 168.1 74.8016C166.8 74.8016 165.9 75.7016 165.9 77.2016C165.9 78.6016 166.7 79.5016 168.1 79.5016C168.5 79.5016 169 79.4016 169.3 79.3016L169.4 79.7016Z" fill="#140603"/>
<path d="M173.3 77.2031H171.1V79.3031H173.6V79.9031H170.4V74.2031H173.5V74.8031H171.2V76.6031H173.4V77.2031H173.3Z" fill="#140603"/>
<path d="M273.5 176.303C273.8 176.503 274.3 176.703 274.9 176.703C275.7 176.703 276.1 176.303 276.1 175.703C276.1 175.103 275.8 174.803 275 174.503C274 174.203 273.4 173.703 273.4 172.803C273.4 171.903 274.2 171.203 275.3 171.203C275.9 171.203 276.3 171.303 276.6 171.503L276.4 172.103C276.2 172.003 275.8 171.803 275.3 171.803C274.5 171.803 274.2 172.303 274.2 172.703C274.2 173.303 274.6 173.503 275.4 173.803C276.4 174.203 276.9 174.703 276.9 175.503C276.9 176.403 276.2 177.203 274.8 177.203C274.2 177.203 273.6 177.003 273.3 176.803L273.5 176.303Z" fill="#140603"/>
<path d="M277.2 177.605L279.6 171.305H280.2L277.8 177.605H277.2Z" fill="#140603"/>
<path d="M284.2 172.304L283.2 172.804L283.1 172.204L284.3 171.504H285V177.204H284.3V172.304H284.2Z" fill="#140603"/>
<path d="M287.2 176.404C287.4 176.504 287.9 176.804 288.5 176.804C289.5 176.804 289.8 176.204 289.8 175.704C289.8 174.904 289.1 174.604 288.3 174.604H287.9V174.004H288.3C288.9 174.004 289.6 173.704 289.6 173.004C289.6 172.504 289.3 172.104 288.6 172.104C288.1 172.104 287.7 172.304 287.5 172.504L287.3 171.904C287.6 171.704 288.2 171.504 288.8 171.504C289.9 171.504 290.4 172.204 290.4 172.904C290.4 173.504 290.1 174.004 289.4 174.204C290.1 174.304 290.7 174.904 290.7 175.704C290.7 176.604 290 177.404 288.6 177.404C288 177.404 287.4 177.204 287.1 177.004L287.2 176.404Z" fill="#140603"/>
<path d="M295.2 174.404C295.2 176.304 294.5 177.404 293.2 177.404C292.1 177.404 291.3 176.404 291.3 174.504C291.3 172.604 292.1 171.504 293.3 171.504C294.5 171.504 295.2 172.604 295.2 174.404ZM292.1 174.504C292.1 176.004 292.6 176.804 293.3 176.804C294.1 176.804 294.5 175.904 294.5 174.404C294.5 173.004 294.1 172.104 293.3 172.104C292.6 172.104 292.1 172.904 292.1 174.504Z" fill="#140603"/>
<path d="M296 176.803C296 176.503 296.2 176.203 296.5 176.203C296.8 176.203 297 176.403 297 176.803C297 177.103 296.8 177.403 296.5 177.403C296.2 177.403 296 177.103 296 176.803Z" fill="#140603"/>
<path d="M301.5 174.404C301.5 176.304 300.8 177.404 299.5 177.404C298.4 177.404 297.6 176.404 297.6 174.504C297.6 172.604 298.4 171.504 299.6 171.504C300.8 171.504 301.5 172.604 301.5 174.404ZM298.4 174.504C298.4 176.004 298.9 176.804 299.6 176.804C300.4 176.804 300.8 175.904 300.8 174.404C300.8 173.004 300.4 172.104 299.6 172.104C298.9 172.104 298.4 172.904 298.4 174.504Z" fill="#140603"/>
<path d="M306 174.404C306 176.304 305.3 177.404 304 177.404C302.9 177.404 302.1 176.404 302.1 174.504C302.1 172.604 302.9 171.504 304.1 171.504C305.3 171.504 306 172.604 306 174.404ZM302.9 174.504C302.9 176.004 303.4 176.804 304.1 176.804C304.9 176.804 305.3 175.904 305.3 174.404C305.3 173.004 304.9 172.104 304.1 172.104C303.4 172.104 302.9 172.904 302.9 174.504Z" fill="#140603"/>
<path d="M106.4 150.802V145.102H107.2L109 148.002C109.4 148.702 109.8 149.302 110 149.802C109.9 149.002 109.9 148.302 109.9 147.502V145.102H110.6V150.802H109.8L108 147.902C107.6 147.302 107.2 146.602 106.9 146.002C106.9 146.702 107 147.402 107 148.302V150.702H106.4V150.802Z" fill="#6B6B6B"/>
<path d="M113.8 146.1C113.8 146.8 113.2 147.2 112.7 147.2C112 147.2 111.6 146.7 111.6 146.1C111.6 145.4 112.1 145 112.7 145C113.4 145 113.8 145.6 113.8 146.1ZM112 146.2C112 146.6 112.3 146.9 112.7 146.9C113.1 146.9 113.4 146.6 113.4 146.2C113.4 145.9 113.2 145.5 112.7 145.5C112.2 145.4 112 145.8 112 146.2Z" fill="#6B6B6B"/>
<path d="M116.5 145.202C116.9 145.102 117.4 145.102 117.9 145.102C118.7 145.102 119.2 145.202 119.6 145.602C119.9 145.902 120.1 146.202 120.1 146.702C120.1 147.502 119.6 147.902 119 148.202C119.4 148.402 119.7 148.802 119.8 149.302C120 150.102 120.1 150.602 120.2 150.902H119.4C119.3 150.702 119.2 150.302 119 149.502C118.8 148.702 118.5 148.402 117.9 148.402H117.2V150.902H116.5V145.202ZM117.2 147.802H118C118.8 147.802 119.3 147.402 119.3 146.702C119.3 146.002 118.8 145.602 118 145.602C117.6 145.602 117.4 145.602 117.3 145.702V147.802H117.2Z" fill="#6B6B6B"/>
<path d="M121.5 148.902C121.5 149.902 122.2 150.302 122.9 150.302C123.4 150.302 123.8 150.202 124 150.102L124.1 150.602C123.8 150.702 123.4 150.902 122.7 150.902C121.4 150.902 120.7 150.102 120.7 148.802C120.7 147.602 121.4 146.602 122.6 146.602C123.9 146.602 124.3 147.802 124.3 148.502C124.3 148.702 124.3 148.802 124.3 148.802H121.5V148.902ZM123.7 148.402C123.7 147.902 123.5 147.202 122.7 147.202C121.9 147.202 121.6 147.902 121.6 148.402H123.7Z" fill="#6B6B6B"/>
<path d="M128.3 150.702C128.1 150.802 127.7 150.902 127.1 150.902C125.9 150.902 125 150.102 125 148.802C125 147.502 125.9 146.602 127.2 146.602C127.6 146.602 128 146.702 128.2 146.802L128 147.402C127.8 147.302 127.5 147.202 127.1 147.202C126.2 147.202 125.6 147.902 125.6 148.702C125.6 149.602 126.2 150.202 127 150.202C127.4 150.202 127.7 150.102 127.9 150.002L128.3 150.702Z" fill="#6B6B6B"/>
<path d="M130 145.602C130 145.902 129.8 146.102 129.5 146.102C129.2 146.102 129 145.902 129 145.602C129 145.302 129.2 145.102 129.5 145.102C129.8 145.102 130 145.302 130 145.602ZM129.1 150.802V146.702H129.8V150.802H129.1Z" fill="#6B6B6B"/>
<path d="M131.1 150.801C131.1 150.501 131.1 150.101 131.1 149.701V144.801H131.8V147.401C132.1 146.901 132.5 146.601 133.2 146.601C134.2 146.601 134.9 147.401 134.9 148.701C134.9 150.201 134 150.901 133.1 150.901C132.5 150.901 132 150.701 131.7 150.101V150.801H131.1ZM131.9 149.201C131.9 149.301 131.9 149.401 131.9 149.501C132 150.001 132.5 150.401 133 150.401C133.8 150.401 134.3 149.801 134.3 148.801C134.3 148.001 133.9 147.301 133.1 147.301C132.6 147.301 132.1 147.601 132 148.201C132 148.301 132 148.401 132 148.501V149.201H131.9Z" fill="#6B6B6B"/>
<path d="M139.7 148.702C139.7 150.202 138.6 150.902 137.6 150.902C136.5 150.902 135.6 150.102 135.6 148.802C135.6 147.402 136.5 146.602 137.6 146.602C138.9 146.602 139.7 147.502 139.7 148.702ZM136.4 148.802C136.4 149.702 136.9 150.402 137.7 150.402C138.4 150.402 139 149.702 139 148.802C139 148.102 138.7 147.202 137.8 147.202C136.9 147.202 136.4 148.002 136.4 148.802Z" fill="#6B6B6B"/>
<path d="M144.5 150.801V149.301H142V148.801L144.5 145.301H145.3V148.701H146.1V149.301H145.3V150.801H144.5ZM144.5 148.701V146.901C144.5 146.601 144.5 146.301 144.5 146.001C144.3 146.301 144.2 146.601 144 146.801L142.6 148.701H144.5Z" fill="#6B6B6B"/>
<path d="M149.9 145.902H147.8L147.6 147.302C147.7 147.302 147.8 147.302 148.1 147.302C148.5 147.302 149 147.402 149.3 147.602C149.7 147.802 150.1 148.302 150.1 149.002C150.1 150.102 149.2 150.902 148 150.902C147.4 150.902 146.9 150.702 146.6 150.602L146.8 150.002C147 150.102 147.5 150.302 148 150.302C148.7 150.302 149.3 149.802 149.3 149.102C149.3 148.402 148.8 147.902 147.7 147.902C147.4 147.902 147.1 147.902 146.9 148.002L147.3 145.402H149.9V145.902Z" fill="#6B6B6B"/>
<path d="M154.6 147.999C154.6 149.899 153.9 150.899 152.7 150.899C151.6 150.899 150.9 149.899 150.9 148.099C150.9 146.299 151.7 145.199 152.8 145.199C154 145.199 154.6 146.299 154.6 147.999ZM151.6 148.099C151.6 149.499 152 150.299 152.7 150.299C153.5 150.299 153.8 149.399 153.8 147.999C153.8 146.599 153.5 145.799 152.7 145.799C152.1 145.799 151.6 146.599 151.6 148.099Z" fill="#6B6B6B"/>
<path d="M159 147.999C159 149.899 158.3 150.899 157.1 150.899C156 150.899 155.3 149.899 155.3 148.099C155.3 146.299 156.1 145.199 157.2 145.199C158.3 145.199 159 146.299 159 147.999ZM156 148.099C156 149.499 156.4 150.299 157.1 150.299C157.9 150.299 158.2 149.399 158.2 147.999C158.2 146.599 157.9 145.799 157.1 145.799C156.5 145.799 156 146.599 156 148.099Z" fill="#6B6B6B"/>
<path d="M163.4 147.999C163.4 149.899 162.7 150.899 161.5 150.899C160.4 150.899 159.7 149.899 159.7 148.099C159.7 146.299 160.5 145.199 161.6 145.199C162.7 145.199 163.4 146.299 163.4 147.999ZM160.4 148.099C160.4 149.499 160.8 150.299 161.5 150.299C162.3 150.299 162.6 149.399 162.6 147.999C162.6 146.599 162.3 145.799 161.5 145.799C160.8 145.799 160.4 146.599 160.4 148.099Z" fill="#6B6B6B"/>
<path d="M167.7 147.999C167.7 149.899 167 150.899 165.8 150.899C164.7 150.899 164 149.899 164 148.099C164 146.299 164.8 145.199 165.9 145.199C167.1 145.199 167.7 146.299 167.7 147.999ZM164.7 148.099C164.7 149.499 165.1 150.299 165.8 150.299C166.6 150.299 166.9 149.399 166.9 147.999C166.9 146.599 166.6 145.799 165.8 145.799C165.2 145.799 164.7 146.599 164.7 148.099Z" fill="#6B6B6B"/>
<path d="M172.1 147.999C172.1 149.899 171.4 150.899 170.2 150.899C169.1 150.899 168.4 149.899 168.4 148.099C168.4 146.299 169.2 145.199 170.3 145.199C171.4 145.199 172.1 146.299 172.1 147.999ZM169.1 148.099C169.1 149.499 169.5 150.299 170.2 150.299C171 150.299 171.3 149.399 171.3 147.999C171.3 146.599 171 145.799 170.2 145.799C169.6 145.799 169.1 146.599 169.1 148.099Z" fill="#6B6B6B"/>
<path d="M176.5 147.999C176.5 149.899 175.8 150.899 174.6 150.899C173.5 150.899 172.8 149.899 172.8 148.099C172.8 146.299 173.6 145.199 174.7 145.199C175.8 145.199 176.5 146.299 176.5 147.999ZM173.5 148.099C173.5 149.499 173.9 150.299 174.6 150.299C175.4 150.299 175.7 149.399 175.7 147.999C175.7 146.599 175.4 145.799 174.6 145.799C173.9 145.799 173.5 146.599 173.5 148.099Z" fill="#6B6B6B"/>
<path d="M180.7 145.301V145.801L178.3 150.801H177.5L179.9 145.901H177.2V145.301H180.7Z" fill="#6B6B6B"/>
<path d="M184.7 145.799C184.5 145.799 184.4 145.799 184.1 145.799C182.9 145.999 182.3 146.799 182.2 147.699C182.5 147.399 182.9 147.099 183.5 147.099C184.5 147.099 185.2 147.799 185.2 148.899C185.2 149.899 184.5 150.799 183.4 150.799C182.2 150.799 181.4 149.899 181.4 148.499C181.4 147.399 181.8 146.599 182.3 145.999C182.8 145.599 183.4 145.299 184.1 145.199C184.3 145.199 184.5 145.199 184.6 145.199V145.799H184.7ZM184.5 148.999C184.5 148.199 184 147.699 183.4 147.699C182.9 147.699 182.5 147.999 182.3 148.399C182.2 148.499 182.2 148.599 182.2 148.699C182.2 149.599 182.6 150.299 183.4 150.299C184 150.299 184.5 149.799 184.5 148.999Z" fill="#6B6B6B"/>
<path d="M189.6 147.999C189.6 149.899 188.9 150.899 187.7 150.899C186.6 150.899 185.9 149.899 185.9 148.099C185.9 146.299 186.7 145.199 187.8 145.199C188.9 145.199 189.6 146.299 189.6 147.999ZM186.6 148.099C186.6 149.499 187 150.299 187.7 150.299C188.5 150.299 188.8 149.399 188.8 147.999C188.8 146.599 188.5 145.799 187.7 145.799C187 145.799 186.6 146.599 186.6 148.099Z" fill="#6B6B6B"/>
<path d="M191.9 146.001L190.9 146.501L190.8 145.901L192 145.301H192.6V150.801H191.9V146.001Z" fill="#6B6B6B"/>
<path d="M197.9 145.902H195.8L195.6 147.302C195.7 147.302 195.8 147.302 196.1 147.302C196.5 147.302 197 147.402 197.3 147.602C197.7 147.802 198.1 148.302 198.1 149.002C198.1 150.102 197.2 150.902 196 150.902C195.4 150.902 194.9 150.702 194.6 150.602L194.8 150.002C195 150.102 195.5 150.302 196 150.302C196.7 150.302 197.3 149.802 197.3 149.102C197.3 148.402 196.8 147.902 195.7 147.902C195.4 147.902 195.1 147.902 194.9 148.002L195.3 145.402H197.9V145.902Z" fill="#6B6B6B"/>
<path d="M202.3 145.902H200.2L200 147.302C200.1 147.302 200.2 147.302 200.5 147.302C200.9 147.302 201.4 147.402 201.7 147.602C202.1 147.802 202.5 148.302 202.5 149.002C202.5 150.102 201.6 150.902 200.4 150.902C199.8 150.902 199.3 150.702 199 150.602L199.2 150.002C199.4 150.102 199.9 150.302 200.4 150.302C201.1 150.302 201.7 149.802 201.7 149.102C201.7 148.402 201.2 147.902 200.1 147.902C199.8 147.902 199.5 147.902 199.3 148.002L199.7 145.402H202.3V145.902Z" fill="#6B6B6B"/>
<path d="M207 147.999C207 149.899 206.3 150.899 205.1 150.899C204 150.899 203.3 149.899 203.3 148.099C203.3 146.299 204.1 145.199 205.2 145.199C206.4 145.199 207 146.299 207 147.999ZM204 148.099C204 149.499 204.4 150.299 205.1 150.299C205.9 150.299 206.2 149.399 206.2 147.999C206.2 146.599 205.9 145.799 205.1 145.799C204.5 145.799 204 146.599 204 148.099Z" fill="#6B6B6B"/>
<path d="M210 150.801V149.301H207.4V148.801L209.9 145.301H210.7V148.701H211.5V149.301H210.7V150.801H210ZM210 148.701V146.901C210 146.601 210 146.301 210 146.001C209.8 146.301 209.7 146.601 209.5 146.801L208.1 148.701H210Z" fill="#6B6B6B"/>
<path d="M107.5 154.902H108.2V158.702C108.2 160.202 107.4 160.702 106.5 160.702C106.2 160.702 105.9 160.602 105.7 160.602L105.8 160.002C106 160.102 106.2 160.102 106.4 160.102C107.1 160.102 107.5 159.802 107.5 158.702V154.902Z" fill="#6B6B6B"/>
<path d="M110.2 154.902V158.302C110.2 159.602 110.8 160.102 111.5 160.102C112.4 160.102 112.9 159.502 112.9 158.302V154.902H113.6V158.202C113.6 159.902 112.7 160.702 111.4 160.702C110.2 160.702 109.3 160.002 109.3 158.302V154.902H110.2Z" fill="#6B6B6B"/>
<path d="M115.7 158.802L115.1 160.602H114.3L116.2 154.902H117.1L119.1 160.602H118.3L117.7 158.802H115.7ZM117.5 158.302L116.9 156.702C116.8 156.302 116.7 156.002 116.6 155.702C116.5 156.002 116.4 156.402 116.3 156.702L115.7 158.302H117.5Z" fill="#6B6B6B"/>
<path d="M119.9 160.602V154.902H120.7L122.5 157.802C122.9 158.502 123.3 159.102 123.5 159.602C123.4 158.802 123.4 158.102 123.4 157.302V154.902H124.1V160.602H123.4L121.6 157.702C121.2 157.102 120.8 156.402 120.5 155.802C120.5 156.502 120.6 157.202 120.6 158.102V160.502H119.9V160.602Z" fill="#6B6B6B"/>
<path d="M127.3 155.002C127.7 154.902 128.1 154.902 128.7 154.902C129.4 154.902 130 155.102 130.3 155.402C130.6 155.702 130.8 156.102 130.8 156.602C130.8 157.102 130.6 157.502 130.4 157.802C130 158.202 129.4 158.402 128.6 158.402C128.4 158.402 128.2 158.402 128 158.302V160.602H127.3V155.002ZM128.1 157.702C128.3 157.702 128.5 157.802 128.7 157.802C129.6 157.802 130.1 157.402 130.1 156.602C130.1 155.802 129.6 155.502 128.7 155.502C128.4 155.502 128.1 155.502 128 155.602V157.702H128.1Z" fill="#6B6B6B"/>
<path d="M134.8 158.002H132.6V160.002H135.1V160.602H131.9V154.902H135V155.502H132.6V157.302H134.8V158.002Z" fill="#6B6B6B"/>
<path d="M136.1 155.002C136.5 154.902 137 154.902 137.5 154.902C138.3 154.902 138.8 155.002 139.2 155.402C139.5 155.702 139.7 156.002 139.7 156.502C139.7 157.302 139.2 157.702 138.6 158.002C139 158.202 139.3 158.602 139.4 159.102C139.6 159.902 139.7 160.402 139.8 160.702H139C138.9 160.502 138.8 160.102 138.6 159.302C138.4 158.502 138.1 158.202 137.5 158.202H136.8V160.702H136.1V155.002ZM136.8 157.602H137.6C138.4 157.602 138.9 157.202 138.9 156.502C138.9 155.802 138.4 155.402 137.6 155.402C137.2 155.402 137 155.402 136.9 155.502V157.602H136.8Z" fill="#6B6B6B"/>
<path d="M143.6 158.002H141.4V160.002H143.9V160.602H140.7V154.902H143.8V155.502H141.4V157.302H143.6V158.002Z" fill="#6B6B6B"/>
<path d="M144.4 160.204L147.6 155.604H144.7V155.004H148.6V155.404L145.4 160.004H148.6V160.604H144.4V160.204Z" fill="#6B6B6B"/>
<path d="M107.5 173.903L105.8 168.703H106.5L107.3 171.303C107.5 172.003 107.7 172.603 107.9 173.303C108 172.703 108.3 172.003 108.5 171.403L109.4 168.803H110.1L108.2 174.003H107.5V173.903Z" fill="#6B6B6B"/>
<path d="M110.8 172.104C110.8 173.004 111.4 173.404 112.1 173.404C112.6 173.404 112.9 173.304 113.1 173.204L113.2 173.704C113 173.804 112.5 173.904 111.9 173.904C110.7 173.904 110 173.104 110 172.004C110 170.904 110.7 170.004 111.8 170.004C113 170.004 113.4 171.104 113.4 171.804C113.4 171.904 113.4 172.004 113.4 172.104H110.8ZM112.8 171.604C112.8 171.204 112.6 170.504 111.8 170.504C111.1 170.504 110.8 171.104 110.7 171.604H112.8Z" fill="#6B6B6B"/>
<path d="M114.3 171.104C114.3 170.704 114.3 170.404 114.3 170.104H114.9V170.704C115.1 170.304 115.5 170.004 116.2 170.004C116.7 170.004 117.5 170.304 117.5 171.604V173.804H116.8V171.604C116.8 171.004 116.6 170.504 115.9 170.504C115.4 170.504 115.1 170.804 115 171.204C115 171.304 115 171.404 115 171.504V173.804H114.3V171.104Z" fill="#6B6B6B"/>
<path d="M121.3 173.704C121.1 173.804 120.7 173.904 120.2 173.904C119.1 173.904 118.3 173.104 118.3 172.004C118.3 170.804 119.1 170.004 120.3 170.004C120.7 170.004 121.1 170.104 121.3 170.204L121.1 170.704C120.9 170.604 120.7 170.504 120.3 170.504C119.4 170.504 119 171.104 119 171.904C119 172.804 119.6 173.304 120.3 173.304C120.7 173.304 120.9 173.204 121.1 173.104L121.3 173.704Z" fill="#6B6B6B"/>
<path d="M122.5 172.104C122.5 173.004 123.1 173.404 123.8 173.404C124.3 173.404 124.6 173.304 124.8 173.204L124.9 173.704C124.7 173.804 124.2 173.904 123.6 173.904C122.4 173.904 121.7 173.104 121.7 172.004C121.7 170.904 122.4 170.004 123.5 170.004C124.7 170.004 125.1 171.104 125.1 171.804C125.1 171.904 125.1 172.004 125.1 172.104H122.5ZM124.5 171.604C124.5 171.204 124.3 170.504 123.5 170.504C122.8 170.504 122.5 171.104 122.4 171.604H124.5Z" fill="#6B6B6B"/>
<path d="M125.8 170.703C125.8 170.403 126 170.203 126.3 170.203C126.6 170.203 126.8 170.403 126.8 170.703C126.8 171.003 126.6 171.203 126.3 171.203C126 171.203 125.8 171.003 125.8 170.703ZM125.8 173.503C125.8 173.203 126 173.003 126.3 173.003C126.6 173.003 126.8 173.203 126.8 173.503C126.8 173.803 126.6 174.003 126.3 174.003C126 173.903 125.8 173.703 125.8 173.503Z" fill="#6B6B6B"/>
<path d="M130.5 169.502L129.6 170.002L129.5 169.502L130.6 168.902H131.2V173.902H130.5V169.502Z" fill="#6B6B6B"/>
<path d="M136 169.301C135.9 169.301 135.7 169.301 135.5 169.301C134.4 169.501 133.9 170.301 133.7 171.101C133.9 170.801 134.4 170.501 134.9 170.501C135.8 170.501 136.4 171.101 136.4 172.101C136.4 173.001 135.8 173.901 134.7 173.901C133.6 173.901 132.9 173.101 132.9 171.801C132.9 170.801 133.3 170.001 133.8 169.501C134.2 169.101 134.8 168.801 135.4 168.801C135.6 168.801 135.8 168.801 135.9 168.801V169.301H136ZM135.8 172.201C135.8 171.501 135.4 171.001 134.8 171.001C134.4 171.001 134 171.301 133.8 171.601C133.8 171.701 133.7 171.801 133.7 171.901C133.7 172.701 134.1 173.301 134.8 173.301C135.4 173.401 135.8 172.901 135.8 172.201Z" fill="#6B6B6B"/>
<path d="M138 174.902C138.3 174.902 138.6 174.802 138.8 174.602C139 174.402 139.1 174.102 139.1 173.202V170.102H139.8V173.502C139.8 174.202 139.7 174.702 139.3 175.002C139 175.302 138.5 175.402 138.1 175.402L138 174.902ZM139.8 169.102C139.8 169.302 139.6 169.502 139.4 169.502C139.1 169.502 139 169.302 139 169.102C139 168.902 139.2 168.702 139.4 168.702C139.6 168.602 139.8 168.802 139.8 169.102Z" fill="#6B6B6B"/>
<path d="M144 172.802C144 173.202 144 173.502 144 173.802H143.4V173.202C143.2 173.502 142.8 173.902 142.1 173.902C141.5 173.902 140.8 173.602 140.8 172.302V170.102H141.5V172.202C141.5 172.902 141.7 173.402 142.3 173.402C142.8 173.402 143.1 173.102 143.2 172.802C143.2 172.702 143.3 172.602 143.3 172.502V170.202H144V172.802Z" fill="#6B6B6B"/>
<path d="M145.1 168.402H145.8V173.902H145.1V168.402Z" fill="#6B6B6B"/>
<path d="M146.7 173.504C146.7 173.204 146.9 173.004 147.2 173.004C147.5 173.004 147.7 173.204 147.7 173.504C147.7 173.804 147.5 174.004 147.2 174.004C146.9 173.904 146.7 173.704 146.7 173.504Z" fill="#6B6B6B"/>
<path d="M107.3 138.802L106.7 140.602H105.9L107.8 134.902H108.7L110.6 140.602H109.8L109.2 138.802H107.3ZM109.1 138.202L108.5 136.602C108.4 136.202 108.3 135.902 108.2 135.602C108.1 135.902 108 136.302 107.9 136.602L107.3 138.302H109.1V138.202Z" fill="#140603"/>
<path d="M115.4 140.401C115.1 140.501 114.6 140.701 113.9 140.701C112.3 140.701 111.1 139.701 111.1 137.801C111.1 136.001 112.3 134.801 114.1 134.801C114.8 134.801 115.3 135.001 115.5 135.101L115.3 135.701C115 135.601 114.6 135.501 114.1 135.501C112.8 135.501 111.9 136.401 111.9 137.901C111.9 139.301 112.7 140.201 114.1 140.201C114.5 140.201 115 140.101 115.3 140.001L115.4 140.401Z" fill="#140603"/>
<path d="M117.3 138.802L116.7 140.602H115.9L117.8 134.902H118.7L120.6 140.602H119.8L119.2 138.802H117.3ZM119.1 138.202L118.5 136.602C118.4 136.202 118.3 135.902 118.2 135.602C118.1 135.902 118 136.302 117.9 136.602L117.3 138.302H119.1V138.202Z" fill="#140603"/>
<path d="M121.5 135.002C121.9 134.902 122.5 134.902 123.1 134.902C124.2 134.902 124.9 135.102 125.4 135.602C125.9 136.102 126.2 136.702 126.2 137.602C126.2 138.502 125.9 139.302 125.4 139.802C124.9 140.302 124 140.602 122.9 140.602C122.4 140.602 121.9 140.602 121.6 140.502V135.002H121.5ZM122.3 140.002C122.5 140.002 122.8 140.002 123 140.002C124.6 140.002 125.4 139.102 125.4 137.602C125.4 136.302 124.6 135.402 123.1 135.402C122.7 135.402 122.4 135.402 122.2 135.502V140.002H122.3Z" fill="#140603"/>
<path d="M130.1 137.902H127.9V140.002H130.4V140.602H127.2V134.902H130.3V135.502H128V137.302H130.2V137.902H130.1Z" fill="#140603"/>
<path d="M136.1 138.102C136.1 137.302 136 136.302 136 135.602C135.8 136.302 135.6 137.002 135.3 137.802L134.3 140.602H133.7L132.8 137.902C132.5 137.102 132.3 136.402 132.1 135.702C132.1 136.402 132 137.402 132 138.202L131.8 140.602H131.1L131.5 134.902H132.4L133.4 137.702C133.6 138.402 133.8 139.002 134 139.602C134.1 139.002 134.3 138.402 134.6 137.702L135.6 134.902H136.5L136.9 140.602H136.2L136.1 138.102Z" fill="#140603"/>
<path d="M138.9 134.902V140.602H138.2V134.902H138.9Z" fill="#140603"/>
<path d="M141.1 138.802L140.5 140.602H139.7L141.6 134.902H142.5L144.4 140.602H143.6L143 138.802H141.1ZM143 138.202L142.4 136.602C142.3 136.202 142.2 135.902 142.1 135.602C142 135.902 141.9 136.302 141.8 136.602L141.2 138.302H143V138.202Z" fill="#140603"/>
<path d="M145.2 139.702C145.5 139.902 146 140.102 146.5 140.102C147.3 140.102 147.7 139.702 147.7 139.102C147.7 138.602 147.4 138.302 146.6 138.002C145.7 137.702 145.1 137.202 145.1 136.402C145.1 135.502 145.8 134.902 146.9 134.902C147.5 134.902 147.9 135.002 148.2 135.202L148 135.802C147.8 135.702 147.4 135.502 146.9 135.502C146.1 135.502 145.8 136.002 145.8 136.402C145.8 136.902 146.1 137.202 146.9 137.502C147.9 137.902 148.4 138.302 148.4 139.202C148.4 140.102 147.7 140.802 146.4 140.802C145.8 140.802 145.2 140.602 144.9 140.402L145.2 139.702Z" fill="#140603"/>
<path d="M152 135.502H150.3V134.902H154.5V135.502H152.8V140.602H152V135.502Z" fill="#140603"/>
<path d="M155.2 135.002C155.6 134.902 156.1 134.902 156.6 134.902C157.4 134.902 157.9 135.002 158.3 135.402C158.6 135.702 158.7 136.002 158.7 136.502C158.7 137.302 158.2 137.802 157.6 138.002C158 138.202 158.3 138.602 158.4 139.202C158.6 140.002 158.7 140.502 158.8 140.802H158C157.9 140.602 157.8 140.102 157.6 139.402C157.4 138.602 157.1 138.302 156.5 138.302H155.8V140.802H155.1V135.002H155.2ZM155.9 137.602H156.7C157.5 137.602 158 137.202 158 136.502C158 135.802 157.5 135.402 156.7 135.402C156.3 135.402 156.1 135.402 156 135.502V137.602H155.9Z" fill="#140603"/>
<path d="M160.5 134.902V140.602H159.8V134.902H160.5Z" fill="#140603"/>
<path d="M161.7 134.902H162.4V140.002H164.8V140.602H161.6V134.902H161.7Z" fill="#140603"/>
<path d="M169.4 140.401C169.1 140.501 168.6 140.701 167.9 140.701C166.3 140.701 165.1 139.701 165.1 137.801C165.1 136.001 166.3 134.801 168.1 134.801C168.8 134.801 169.3 135.001 169.5 135.101L169.3 135.701C169 135.601 168.6 135.501 168.1 135.501C166.8 135.501 165.9 136.401 165.9 137.901C165.9 139.301 166.7 140.201 168.1 140.201C168.5 140.201 169 140.101 169.3 140.001L169.4 140.401Z" fill="#140603"/>
<path d="M173.3 137.902H171.1V140.002H173.6V140.602H170.4V134.902H173.5V135.502H171.2V137.302H173.4V137.902H173.3Z" fill="#140603"/>
<path d="M99.9999 72.4016C99.9999 71.7016 99.3999 71.1016 98.6999 71.1016H89.6999C88.9999 71.1016 88.3999 71.7016 88.3999 72.4016V81.4016C88.3999 82.1016 88.9999 82.7016 89.6999 82.7016H98.6999C99.3999 82.7016 99.9999 82.1016 99.9999 81.4016V72.4016Z" fill="#972CE4"/>
<path d="M98.7001 73.8031C99.0001 74.1031 99.0001 74.6031 98.7001 74.9031L93.7001 79.9031C93.5001 80.1031 93.4001 80.1031 93.2001 80.1031C93.0001 80.1031 92.8001 80.0031 92.7001 79.9031L90.2001 77.4031C89.9001 77.1031 89.9001 76.6031 90.2001 76.3031C90.5001 76.0031 91.0001 76.0031 91.3001 76.3031L93.3001 78.3031L97.8001 73.8031C97.9001 73.5031 98.4001 73.5031 98.7001 73.8031Z" fill="#FAFAFA"/>
<path d="M99.4999 132.8C99.4999 132.1 98.8999 131.5 98.1999 131.5H89.1999C88.4999 131.5 87.8999 132.1 87.8999 132.8V141.8C87.8999 142.5 88.4999 143.1 89.1999 143.1H98.1999C98.8999 143.1 99.4999 142.5 99.4999 141.8V132.8Z" fill="white"/>
<path d="M98.2 144.002H89.2C88 144.002 87 143.002 87 141.802V132.802C87 131.602 88 130.602 89.2 130.602H98.2C99.4 130.602 100.4 131.602 100.4 132.802V141.802C100.4 143.002 99.4 144.002 98.2 144.002ZM89.3 132.402C89.1 132.402 88.9 132.602 88.9 132.802V141.802C88.9 142.002 89.1 142.202 89.3 142.202H98.3C98.5 142.202 98.7 142.002 98.7 141.802V132.802C98.7 132.602 98.5 132.402 98.3 132.402H89.3Z" fill="#C6C6C6"/>
<path d="M306 184.402H80.8999V185.102H306V184.402Z" fill="#F4F4F4"/>
<path d="M98.9998 217.302L97.2998 211.902H97.9998L98.7998 214.502C98.9998 215.202 99.1998 215.902 99.3998 216.502C99.5998 215.902 99.7998 215.202 99.9998 214.502L100.9 211.902H101.6L99.6998 217.302H98.9998Z" fill="#140603"/>
<path d="M105.5 215.402C105.5 216.802 104.5 217.402 103.6 217.402C102.6 217.402 101.8 216.602 101.8 215.402C101.8 214.102 102.6 213.402 103.7 213.402C104.7 213.402 105.5 214.202 105.5 215.402ZM102.4 215.402C102.4 216.202 102.9 216.902 103.6 216.902C104.3 216.902 104.8 216.302 104.8 215.402C104.8 214.702 104.5 213.902 103.6 213.902C102.8 213.902 102.4 214.702 102.4 215.402Z" fill="#140603"/>
<path d="M106.3 211.703H107V217.303H106.3V211.703Z" fill="#140603"/>
<path d="M108.5 213.504L109.3 215.704C109.4 216.004 109.5 216.404 109.6 216.704C109.7 216.404 109.8 216.104 109.9 215.704L110.6 213.504H111.3L109.8 217.304H109.1L107.6 213.504H108.5Z" fill="#140603"/>
<path d="M112.3 215.505C112.3 216.405 112.9 216.805 113.6 216.805C114.1 216.805 114.4 216.705 114.7 216.605L114.8 217.105C114.6 217.205 114.1 217.305 113.5 217.305C112.3 217.305 111.6 216.505 111.6 215.405C111.6 214.205 112.3 213.305 113.4 213.305C114.7 213.305 115 214.405 115 215.105C115 215.205 115 215.405 115 215.405H112.3V215.505ZM114.4 215.005C114.4 214.605 114.2 213.905 113.4 213.905C112.7 213.905 112.4 214.605 112.3 215.005H114.4Z" fill="#140603"/>
<path d="M115.9 214.704C115.9 214.204 115.9 213.904 115.9 213.504H116.5V214.304C116.7 213.804 117.1 213.504 117.6 213.504C117.7 213.504 117.7 213.504 117.8 213.504V214.204C117.7 214.204 117.7 214.204 117.6 214.204C117.1 214.204 116.8 214.604 116.7 215.104C116.7 215.204 116.7 215.304 116.7 215.404V217.504H116V214.704H115.9Z" fill="#140603"/>
<path d="M84.5997 219.102C84.6997 219.202 84.9997 219.202 85.0997 219.102C85.1997 219.002 85.1997 218.702 85.0997 218.602L82.5997 216.102H90.9997C91.1997 216.102 91.3997 215.902 91.3997 215.702C91.3997 215.502 91.1997 215.302 90.9997 215.302H82.5997L85.0997 212.802C85.1997 212.702 85.1997 212.402 85.0997 212.302C84.9997 212.202 84.6997 212.202 84.5997 212.302L81.3997 215.502C81.2997 215.602 81.2997 215.902 81.3997 216.002L84.5997 219.102Z" fill="#6B6B6B"/>
<path d="M305.7 226.101H157.5C153.5 226.101 150.3 222.901 150.3 218.901V211.001C150.3 207.001 153.5 203.801 157.5 203.801H305.7C309.7 203.801 312.9 207.001 312.9 211.001V218.901C313 222.901 309.7 226.101 305.7 226.101Z" fill="#FF031D"/>
<path d="M206.8 212.002C207.1 211.902 207.6 211.902 208.2 211.902C208.9 211.902 209.4 212.102 209.7 212.402C210 212.702 210.2 213.102 210.2 213.602C210.2 214.102 210.1 214.502 209.8 214.802C209.4 215.202 208.8 215.402 208.1 215.402C207.9 215.402 207.7 215.402 207.5 215.402V217.602H206.8V212.002ZM207.5 214.602C207.7 214.602 207.9 214.702 208.1 214.702C209 214.702 209.5 214.302 209.5 213.502C209.5 212.802 209 212.402 208.2 212.402C207.9 212.402 207.7 212.402 207.5 212.502V214.602Z" fill="white"/>
<path d="M213.1 217.401L213 216.901C212.8 217.201 212.4 217.501 211.8 217.501C211 217.501 210.6 216.901 210.6 216.401C210.6 215.401 211.5 214.901 213 214.901V214.801C213 214.501 212.9 213.901 212.1 213.901C211.7 213.901 211.3 214.001 211.1 214.201L210.9 213.701C211.2 213.501 211.7 213.301 212.2 213.301C213.4 213.301 213.7 214.101 213.7 214.901V216.401C213.7 216.701 213.7 217.101 213.8 217.301H213.1V217.401ZM213 215.401C212.2 215.401 211.3 215.501 211.3 216.301C211.3 216.801 211.6 217.001 212 217.001C212.5 217.001 212.8 216.701 213 216.301C213 216.201 213 216.101 213 216.101V215.401Z" fill="white"/>
<path d="M218.3 213.402C218.3 213.702 218.3 214.002 218.3 214.502V216.802C218.3 217.702 218.1 218.302 217.7 218.602C217.3 219.002 216.8 219.102 216.3 219.102C215.8 219.102 215.3 219.002 215 218.802L215.2 218.302C215.5 218.502 215.9 218.602 216.4 218.602C217.1 218.602 217.7 218.202 217.7 217.202V216.802C217.5 217.202 217.1 217.502 216.4 217.502C215.4 217.502 214.7 216.702 214.7 215.602C214.7 214.302 215.6 213.502 216.5 213.502C217.2 213.502 217.6 213.902 217.7 214.202V213.602H218.3V213.402ZM217.5 215.002C217.5 214.902 217.5 214.802 217.5 214.702C217.4 214.302 217 213.902 216.5 213.902C215.8 213.902 215.3 214.502 215.3 215.402C215.3 216.202 215.7 216.802 216.5 216.802C216.9 216.802 217.3 216.502 217.5 216.102C217.5 216.002 217.6 215.802 217.6 215.702V215.002H217.5Z" fill="white"/>
<path d="M221.6 217.401L221.5 216.901C221.3 217.201 220.9 217.501 220.3 217.501C219.5 217.501 219.1 216.901 219.1 216.401C219.1 215.401 220 214.901 221.5 214.901V214.801C221.5 214.501 221.4 213.901 220.6 213.901C220.2 213.901 219.8 214.001 219.6 214.201L219.4 213.701C219.7 213.501 220.2 213.301 220.7 213.301C221.9 213.301 222.2 214.101 222.2 214.901V216.401C222.2 216.701 222.2 217.101 222.3 217.301H221.6V217.401ZM221.5 215.401C220.7 215.401 219.8 215.501 219.8 216.301C219.8 216.801 220.1 217.001 220.5 217.001C221 217.001 221.3 216.701 221.5 216.301C221.5 216.201 221.5 216.101 221.5 216.101V215.401Z" fill="white"/>
<path d="M223.4 214.702C223.4 214.202 223.4 213.802 223.4 213.502H224V214.302C224.2 213.802 224.6 213.402 225.1 213.402C225.2 213.402 225.2 213.402 225.3 213.402V214.102C225.2 214.102 225.2 214.102 225.1 214.102C224.6 214.102 224.2 214.502 224.1 215.002C224.1 215.102 224.1 215.202 224.1 215.302V217.402H223.4V214.702Z" fill="white"/>
<path d="M227.7 216.501C228 216.701 228.5 216.901 229 216.901C229.7 216.901 230.2 216.501 230.2 216.001C230.2 215.501 229.9 215.201 229.2 214.901C228.3 214.601 227.7 214.101 227.7 213.301C227.7 212.401 228.4 211.801 229.5 211.801C230.1 211.801 230.5 211.901 230.7 212.101L230.5 212.701C230.3 212.601 230 212.401 229.5 212.401C228.7 212.401 228.5 212.901 228.5 213.201C228.5 213.701 228.8 214.001 229.6 214.301C230.5 214.701 231 215.101 231 215.901C231 216.801 230.4 217.501 229.1 217.501C228.6 217.501 228 217.301 227.7 217.101V216.501Z" fill="white"/>
<path d="M231.2 217.701L233.5 211.801H234.1L231.8 217.701H231.2Z" fill="white"/>
<path d="M236.1 217.402V217.002L236.7 216.502C238.1 215.202 238.7 214.502 238.7 213.702C238.7 213.202 238.4 212.702 237.6 212.702C237.1 212.702 236.7 212.902 236.5 213.102L236.3 212.602C236.7 212.302 237.2 212.102 237.8 212.102C238.9 212.102 239.4 212.902 239.4 213.602C239.4 214.602 238.7 215.402 237.6 216.502L237.2 216.902H239.6V217.502H236.1V217.402Z" fill="white"/>
<path d="M243.3 212.6C243.2 212.6 243 212.6 242.8 212.6C241.7 212.8 241.1 213.6 241 214.5C241.3 214.2 241.7 213.9 242.3 213.9C243.2 213.9 243.9 214.6 243.9 215.6C243.9 216.6 243.2 217.5 242.1 217.5C241 217.5 240.2 216.6 240.2 215.2C240.2 214.2 240.6 213.3 241.1 212.8C241.5 212.4 242.1 212.1 242.8 212C243 212 243.2 212 243.3 212V212.6ZM243.1 215.7C243.1 214.9 242.7 214.5 242 214.5C241.6 214.5 241.2 214.8 241 215.2C241 215.3 240.9 215.4 240.9 215.5C240.9 216.4 241.3 217 242.1 217C242.7 216.9 243.1 216.4 243.1 215.7Z" fill="white"/>
<path d="M248 214.7C248 216.5 247.3 217.5 246.2 217.5C245.2 217.5 244.5 216.5 244.4 214.8C244.4 213 245.2 212 246.2 212C247.4 212 248 213 248 214.7ZM245.1 214.8C245.1 216.2 245.5 217 246.2 217C246.9 217 247.3 216.1 247.3 214.8C247.3 213.5 247 212.6 246.2 212.6C245.6 212.6 245.1 213.3 245.1 214.8Z" fill="white"/>
<path d="M248.7 217C248.7 216.7 248.9 216.5 249.2 216.5C249.5 216.5 249.7 216.7 249.7 217C249.7 217.3 249.5 217.5 249.2 217.5C248.9 217.5 248.7 217.3 248.7 217Z" fill="white"/>
<path d="M253.9 214.7C253.9 216.5 253.2 217.5 252.1 217.5C251.1 217.5 250.4 216.5 250.3 214.8C250.3 213 251.1 212 252.1 212C253.3 212 253.9 213 253.9 214.7ZM251 214.8C251 216.2 251.4 217 252.1 217C252.8 217 253.2 216.1 253.2 214.8C253.2 213.5 252.9 212.6 252.1 212.6C251.5 212.6 251 213.3 251 214.8Z" fill="white"/>
<path d="M258.1 214.7C258.1 216.5 257.4 217.5 256.3 217.5C255.3 217.5 254.6 216.5 254.5 214.8C254.5 213 255.3 212 256.3 212C257.5 212 258.1 213 258.1 214.7ZM255.2 214.8C255.2 216.2 255.6 217 256.3 217C257 217 257.4 216.1 257.4 214.8C257.4 213.5 257.1 212.6 256.3 212.6C255.7 212.6 255.2 213.3 255.2 214.8Z" fill="white"/>
<path d="M322.5 126.702H73V63.9023H322.4V126.702H322.5ZM78.4 121.402H317.2V69.2023H78.4V121.402Z" fill="#FF4200"/>
</svg>
