<svg width="149" height="48" viewBox="0 0 149 48" fill="none" xmlns="http://www.w3.org/2000/svg">
<g clip-path="url(#clip0_3187_493)">
<path d="M36.3458 10.3878C39.6539 10.432 39.6539 5.26077 36.3458 5.30497C33.0376 5.26077 33.0376 10.432 36.3458 10.3878Z" fill="#FF4E0E"/>
<path d="M46.4468 25.2818C46.0939 25.2818 45.7851 24.9724 45.7851 24.6188V3.22656H41.683V25.547C41.6389 28.9945 45.5646 28.9503 48.0347 28.7735V25.2818H46.4468Z" fill="#FF4E0E"/>
<path d="M0 4.77344V10.2099H3.48461V8.79554H8.82179V25.2817H7.23387V28.7734H14.7765V25.2817H13.1886V8.79554H18.4816V10.2099H21.9663V4.77344H0Z" fill="#FF4E0E"/>
<path d="M38.4189 25.2832V12.8633H29.553V16.3992H34.3167V25.2832H29.553V28.7749H40.095V25.2832H38.4189Z" fill="#FF4E0E"/>
<path d="M18.4817 12.8633V25.2832H16.8055V28.7749H27.4799V25.2832H22.6279V16.3992H27.4799V12.8633C25.7155 12.8633 20.2019 12.9075 18.4817 12.8633Z" fill="#FF4E0E"/>
<path d="M68.2806 19.2284C68.5012 15.0295 76.1761 14.5433 75.8674 19.2284H68.2806ZM78.9109 16.0903C76.6172 11.7588 69.9127 11.803 66.6045 14.7201C63.2963 18.3886 62.767 24.1787 67.7072 27.6262C68.7217 28.9079 76.6613 28.8637 77.5876 28.6427V25.2394C75.2057 25.4162 69.0746 25.6372 68.6335 22.1455H79.5284C79.7931 20.6427 79.6607 17.5488 78.9109 16.0903Z" fill="#FF4E0E"/>
<path d="M62.6347 19.3149C62.5024 13.3922 63.958 13.3038 57.077 12.6851C46.5791 11.8011 45.0794 29.127 56.4154 28.7735H61.4879V25.2817H57.5622C49.4461 25.1933 52.225 14.1436 59.1942 16.442V19.2707H62.6347V19.3149Z" fill="#FF4E0E"/>
<path d="M12.7034 42.8742C13.1445 45.3936 6.79281 45.3936 7.23389 42.8742C7.63088 40.6201 5.7783 36.4654 9.96865 36.6422C12.4388 36.6864 12.7916 37.703 12.7034 39.1173C12.7034 39.3383 12.6152 39.4267 12.4388 39.4267C12.1741 39.3383 11.1155 39.6477 11.1596 39.1173C11.6007 37.703 8.68949 37.5262 8.77771 38.8521V42.609C8.60127 43.8024 11.2919 43.7582 11.1596 42.609C11.2037 42.3438 11.0273 41.8135 11.4684 41.8577C12.4829 41.9019 12.8357 41.6367 12.7034 42.8742Z" fill="#FF4E0E"/>
<path d="M18.5257 38.8512C18.6581 37.7021 15.8792 37.6579 16.0115 38.8512V42.6081C15.8792 43.8015 18.6581 43.7573 18.5257 42.6081V38.8512ZM14.4677 38.5418C14.0707 36.0225 20.5106 36.0225 20.1578 38.5418V42.8733C20.5547 45.3927 14.1148 45.3927 14.4677 42.8733V38.5418Z" fill="#FF4E0E"/>
<path d="M23.8188 43.4038C24.0394 43.5364 26.8623 43.0944 26.73 43.669C26.6859 43.9342 26.9064 44.774 26.4213 44.6856C26.2448 44.553 21.9662 45.0392 22.2309 44.3762V37.0392C22.1427 36.5088 23.2895 36.8182 23.5101 36.7298C23.7306 36.7298 23.7747 36.8182 23.7747 37.0392V43.4038H23.8188Z" fill="#FF4E0E"/>
<path d="M28.6708 44.6859C28.4502 44.6859 28.4061 44.5975 28.4061 44.3765V37.0395C28.4061 36.8185 28.4943 36.7301 28.6708 36.7301C28.8472 36.8627 33.1699 36.4207 32.9493 36.9953C32.9052 37.2605 33.1258 38.1003 32.6406 38.0119H29.9499V39.9124C30.2146 40.045 32.8611 39.603 32.7729 40.1776C32.7288 40.4428 32.9493 41.2384 32.4641 41.15H29.9499V43.3157C30.2146 43.4483 33.214 43.0064 33.0376 43.5809C32.9935 43.8461 33.214 44.6859 32.7288 44.5975H28.6708" fill="#FF4E0E"/>
<path d="M40.0068 40.5318C40.5802 40.3992 40.1832 42.6534 40.3156 42.8744C40.7567 45.3937 34.405 45.3937 34.8461 42.8744V38.5429C34.6255 35.4489 41.9917 36.3771 40.0509 39.2943C37.7131 39.6036 39.7422 37.9683 37.5808 37.9241C35.5518 37.6147 36.6545 41.5926 36.3899 42.565C36.2134 43.7583 38.9041 43.7141 38.7718 42.565V41.7694C37.7573 41.7252 37.1397 42.1672 37.3162 40.7528C37.1838 40.2224 39.7422 40.6644 40.0068 40.5318Z" fill="#FF4E0E"/>
<path d="M43.8884 44.3762C43.9766 44.9066 42.8297 44.5972 42.6092 44.6856C42.3887 44.6856 42.3446 44.5972 42.3446 44.3762V37.0392C42.2563 36.5088 43.4032 36.8182 43.6237 36.7298C43.8443 36.7298 43.8884 36.8182 43.8884 37.0392V44.3762Z" fill="#FF4E0E"/>
<path d="M50.0636 38.8512C50.1959 37.7021 47.4171 37.6579 47.5494 38.8512V42.6081C47.4171 43.8015 50.1959 43.7573 50.0636 42.6081V38.8512ZM45.9615 38.5418C45.5645 36.0225 52.0044 36.0225 51.6515 38.5418V42.8733C52.0485 45.3927 45.6086 45.3927 45.9615 42.8733V38.5418Z" fill="#FF4E0E"/>
<path d="M93.9961 10.4297H93.7314V31.9104H93.9961V10.4297Z" fill="#FF4E0E"/>
<path d="M144.986 15.337C142.295 12.6851 139.075 11.3149 135.282 11.3149C132.327 11.3149 129.68 12.1547 127.431 13.7901L130.695 1.45856H148.162V0H129.636L125.313 16.0884L126.504 16.3978H126.769V16.2652C129.107 13.9669 131.974 12.7735 135.326 12.7735C138.678 12.7735 141.59 13.9669 143.972 16.3536C146.353 18.7403 147.544 21.6575 147.544 25.0166C147.544 28.3757 146.353 31.2928 143.972 33.6796C141.59 36.0663 138.678 37.2597 135.326 37.2597C131.974 37.2597 129.063 36.0663 126.681 33.6354C126.196 33.1934 125.799 32.7072 125.446 32.221L125.358 32.0884L124.167 32.9724L124.255 33.105C124.652 33.6354 125.093 34.2099 125.622 34.6961C128.269 37.3481 131.533 38.7182 135.326 38.7182C139.075 38.7182 142.34 37.3481 145.03 34.6961C147.677 32.0442 149.044 28.7735 149.044 24.9724C149 21.2597 147.633 17.989 144.986 15.337Z" fill="#FF4E0E"/>
<path d="M122.623 23.0714V2.12109H121.476V23.0714H109.39L117.021 2.12109H115.786L108.155 23.0714H108.067V24.2205H121.476V30.099H122.623V24.2205H127.651V23.0714H122.623Z" fill="#FF4E0E"/>
<path d="M128.798 47.0278H125.269L124.917 47.8234H124.387L126.857 42.5195H127.254L129.724 47.8234H129.195L128.798 47.0278ZM128.578 46.5416L127.034 43.2267L125.49 46.5416H128.578Z" fill="#FF4E0E"/>
<path d="M130.386 42.52H130.739L134.091 46.8515V42.52H134.576V47.8239H134.223L130.915 43.4924V47.8239H130.43V42.52H130.386ZM133.694 41.2825V41.7687C133.474 41.8571 133.253 41.9013 133.077 41.9013C132.9 41.9013 132.724 41.8571 132.503 41.8129C132.327 41.7687 132.106 41.7245 131.93 41.7245C131.753 41.7245 131.533 41.7687 131.312 41.8571V41.3709C131.533 41.2825 131.753 41.2383 131.93 41.2383C132.15 41.2383 132.327 41.2825 132.547 41.3267C132.724 41.3709 132.9 41.4151 133.077 41.4151C133.253 41.4151 133.43 41.3709 133.694 41.2825Z" fill="#FF4E0E"/>
<path d="M141.149 45.1725C141.149 45.9681 140.884 46.631 140.311 47.1614C139.781 47.6918 139.12 48.0012 138.326 48.0012C137.532 48.0012 136.87 47.736 136.341 47.1614C135.811 46.631 135.503 45.9681 135.503 45.1725C135.503 44.3769 135.767 43.7139 136.341 43.1835C136.87 42.6531 137.532 42.3438 138.326 42.3438C139.12 42.3438 139.781 42.6089 140.311 43.1835C140.884 43.7581 141.149 44.4211 141.149 45.1725ZM138.326 42.8299C137.664 42.8299 137.135 43.0509 136.694 43.4929C136.253 43.9349 136.032 44.5095 136.032 45.1283C136.032 45.7913 136.253 46.3217 136.694 46.7636C137.135 47.2056 137.708 47.4266 138.326 47.4266C138.987 47.4266 139.517 47.2056 139.958 46.7636C140.399 46.3217 140.619 45.7471 140.619 45.1283C140.619 44.4653 140.399 43.9349 139.958 43.4929C139.517 43.0951 138.987 42.8299 138.326 42.8299Z" fill="#FF4E0E"/>
<path d="M145.074 43.4487C144.942 43.2719 144.721 43.1393 144.501 43.0509C144.236 42.9183 143.972 42.8741 143.707 42.8741C143.31 42.8741 143.001 42.9625 142.781 43.1393C142.56 43.3161 142.428 43.5371 142.428 43.8023C142.428 44.0233 142.516 44.2443 142.692 44.4211C142.869 44.5979 143.045 44.7305 143.31 44.8189L144.633 45.1725C144.942 45.2609 145.207 45.4377 145.427 45.6587C145.648 45.8797 145.736 46.1891 145.736 46.5426C145.736 46.9404 145.559 47.294 145.251 47.5592C144.898 47.8686 144.457 48.0012 143.883 48.0012C143.398 48.0012 143.001 47.9128 142.648 47.6918C142.295 47.4708 142.031 47.2056 141.81 46.8962L142.207 46.631C142.384 46.9404 142.648 47.1614 142.957 47.294C143.266 47.4708 143.575 47.515 143.883 47.515C144.369 47.515 144.721 47.4266 144.942 47.2056C145.162 46.9846 145.295 46.7636 145.295 46.4984C145.295 46.2774 145.207 46.1007 145.074 45.9239C144.942 45.7471 144.721 45.6587 144.501 45.5703L143.266 45.2167C142.913 45.0841 142.604 44.9073 142.384 44.6863C142.163 44.4211 142.031 44.1559 142.031 43.8023C142.031 43.4045 142.207 43.0951 142.516 42.7857C142.825 42.5205 143.266 42.3438 143.795 42.3438C144.192 42.3438 144.545 42.4321 144.854 42.5647C145.162 42.6973 145.427 42.9183 145.604 43.1393L145.074 43.4487Z" fill="#FF4E0E"/>
</g>
<defs>
<clipPath id="clip0_3187_493">
<rect width="149" height="48" fill="white"/>
</clipPath>
</defs>
</svg>
