<?xml version="1.0" encoding="utf-8"?>
<!-- Generator: Adobe Illustrator 24.1.1, SVG Export Plug-In . SVG Version: 6.00 Build 0)  -->
<svg version="1.1" id="Capa_1" xmlns="http://www.w3.org/2000/svg" xmlns:xlink="http://www.w3.org/1999/xlink" x="0px" y="0px"
	 viewBox="0 0 57 43" style="enable-background:new 0 0 57 43;" xml:space="preserve">
<style type="text/css">
	.st0{fill:#FFFFFF;}
</style>
<path class="st0" d="M34.8,0l3.4,0.1c0.7,0,1.4,0.1,2.2,0.4c0.4,0.2,1,0.5,1.9,0.9c0.9,0.4,1.6,0.7,2.1,0.9c3.2,1.3,6.5,1.9,9.8,1.9
	h2v19.4L54.8,24L49,25.9l-7.7,3.9c-0.4,1.4-1,2.5-1.8,3.3l-0.1,0.1l-4.6,3.1c-3.2,2.2-5.4,3.6-6.6,4.4c-1.4,0.9-3,1.4-4.8,1.4
	c-2.3,0.1-4-0.5-5.3-1.8L4.9,25.7l-4.8-2.4V4.1h2c3.4,0,6.7-0.6,9.8-1.8c0.5-0.2,1.2-0.5,2-0.9c0.9-0.4,1.5-0.7,2-0.9
	c0.7-0.3,1.4-0.4,2.1-0.4h1.1c1.8-0.1,3.2-0.1,4.2,0.1C24.5,0.3,26,0.9,27.8,2c1.1-0.8,2.3-1.3,3.6-1.6C32.3,0.2,33.4,0,34.8,0z
	 M34.8,4c-1,0-1.8,0.1-2.4,0.3c-0.8,0.2-1.6,0.6-2.4,1.1c-1,0.7-2.1,1.6-3.4,2.9L17.4,16l0.3,0.2c0.2,0.1,0.3,0.2,0.5,0.3
	c0.9,0.4,1.6,0.6,2.3,0.6c0.8,0,1.7-0.2,2.5-0.8l6.9-5.6l9.8,12l0.1,0.2c0.6,0.7,1.1,1.5,1.5,2.5l6.2-3.1h0.1l4.6-1.6V7.9
	C48.7,7.7,45.6,7,42.9,6l-2.7-1.1c-1.3-0.5-2-0.8-2.1-0.8L36.7,4C35.8,4,35.2,4,34.8,4z M20.9,4.1l-2.7,0.1c-0.1,0-0.7,0.2-1.8,0.7
	L13.4,6c-2.7,1-5.7,1.6-9.2,1.9v12.9l3.3,1.6l0.3,0.3l13.4,14.9c0.5,0.4,1.2,0.5,2.2,0.5c0.5,0,1-0.1,1.6-0.3c0.6-0.2,1-0.4,1.4-0.6
	l0.9-0.6l-2.6-3.4l3.3-2.4l2.7,3.6l2.6-1.8l-2.6-3.4l3.3-2.4l2.6,3.6l0.3-0.2v-0.1c0.7-0.7,1-1.4,1-2.3c0-0.9-0.3-1.7-1-2.4
	l-0.1-0.2l-7.4-9.1l-4,3.3c-1.4,1-3,1.5-4.8,1.4c-1.4,0-2.7-0.3-4.1-0.9c-0.7-0.3-1.3-0.7-1.9-1.1c-0.5-0.3-0.9-0.7-1.3-1.1l-1.9-2
	L24.5,4.8c-0.1,0-0.3-0.1-0.6-0.3c-0.5-0.2-0.8-0.3-1-0.4C22.4,4.1,21.7,4.1,20.9,4.1z"/>
</svg>
