<svg width="30" height="18" viewBox="0 0 30 18" fill="none" xmlns="http://www.w3.org/2000/svg">
<path d="M27.9199 0.467249C27.6387 0.186304 27.2638 -0.000993548 26.7952 -0.000993507C26.3266 -0.000993466 25.9517 0.186304 25.6705 0.467249L14.7988 11.3305L3.92706 0.467251C3.64589 0.186306 3.27101 -0.000991449 2.8024 -0.000991408C2.33379 -0.000991367 1.9589 0.186306 1.67774 0.467251L0.740519 1.40374C0.0844656 2.05928 0.0844657 2.99577 0.740519 3.65131L13.5804 16.6685C13.8616 16.9494 14.2365 17.1367 14.7051 17.1367C15.1737 17.1367 15.5486 16.9494 15.8297 16.6685L28.8571 3.6513C29.1382 3.37036 29.3257 2.90212 29.3257 2.52752C29.3257 2.05928 29.1382 1.68468 28.8571 1.40374L27.9199 0.467249Z" fill="#333333"/>
</svg>
