<svg width="16" height="16" viewBox="0 0 16 16" fill="none" xmlns="http://www.w3.org/2000/svg">
<path d="M13.3125 2.1875C14.0156 2.89062 14.556 3.69792 14.9336 4.60938C15.3112 5.52083 15.5 6.47786 15.5 7.48047C15.5 8.82161 15.1615 10.0716 14.4844 11.2305C13.8203 12.3633 12.9219 13.2617 11.7891 13.9258C10.6302 14.6029 9.38021 14.9414 8.03906 14.9414H8.01953C6.75651 14.9414 5.57161 14.6354 4.46484 14.0234L0.5 15.0586L1.55469 11.1914C0.890625 10.0456 0.558594 8.80208 0.558594 7.46094C0.558594 6.11979 0.903646 4.86328 1.59375 3.69141C2.24479 2.57161 3.13672 1.67969 4.26953 1.01562C5.42839 0.338542 6.6849 0 8.03906 0C9.02865 0 9.97917 0.188802 10.8906 0.566406C11.8021 0.94401 12.6094 1.48438 13.3125 2.1875ZM8.03906 13.6719C9.15885 13.6719 10.2005 13.3919 11.1641 12.832C12.1016 12.2852 12.8438 11.543 13.3906 10.6055C13.9505 9.64193 14.2305 8.59375 14.2305 7.46094C14.2305 6.64062 14.0742 5.85286 13.7617 5.09766C13.4492 4.34245 13 3.67188 12.4141 3.08594C11.8281 2.5 11.1576 2.05078 10.4023 1.73828C9.64714 1.42578 8.85938 1.26953 8.03906 1.26953C6.91927 1.26953 5.87109 1.54948 4.89453 2.10938C3.95703 2.65625 3.21484 3.39844 2.66797 4.33594C2.10807 5.29948 1.82812 6.34115 1.82812 7.46094C1.82812 8.65885 2.14062 9.75911 2.76562 10.7617L2.92188 10.9961L2.29688 13.3008L4.64062 12.6758L4.875 12.8125C5.83854 13.3854 6.89323 13.6719 8.03906 13.6719ZM11.4375 9.02344L11.5352 9.08203C11.6784 9.14714 11.763 9.20573 11.7891 9.25781C11.8151 9.29688 11.8216 9.40755 11.8086 9.58984C11.7956 9.75911 11.75 9.94141 11.6719 10.1367C11.6068 10.332 11.4245 10.5273 11.125 10.7227C10.8646 10.8919 10.6302 10.9896 10.4219 11.0156C9.99219 11.0807 9.59505 11.0547 9.23047 10.9375C8.86589 10.8203 8.52083 10.6901 8.19531 10.5469C7.45312 10.2344 6.73698 9.72005 6.04688 9.00391C5.68229 8.63932 5.34375 8.23568 5.03125 7.79297L4.99219 7.73438C4.83594 7.52604 4.69922 7.30469 4.58203 7.07031C4.34766 6.61458 4.23047 6.19792 4.23047 5.82031C4.23047 5.44271 4.30859 5.10417 4.46484 4.80469C4.55599 4.63542 4.6862 4.46615 4.85547 4.29688L4.89453 4.25781C5.03776 4.10156 5.20052 4.02344 5.38281 4.02344H5.79297C5.87109 4.02344 5.92969 4.03646 5.96875 4.0625C6.04688 4.11458 6.11198 4.20573 6.16406 4.33594L6.75 5.72266C6.80208 5.85286 6.80208 5.96354 6.75 6.05469L6.73047 6.11328C6.67839 6.21745 6.6263 6.30208 6.57422 6.36719L6.49609 6.46484C6.39193 6.58203 6.32031 6.66016 6.28125 6.69922C6.22917 6.76432 6.1901 6.82292 6.16406 6.875C6.15104 6.92708 6.16406 6.99219 6.20312 7.07031C6.5026 7.57812 6.84766 8.01432 7.23828 8.37891C7.64193 8.73047 8.10417 9.01693 8.625 9.23828L8.74219 9.29688C8.83333 9.33594 8.91146 9.35547 8.97656 9.35547C9.04167 9.34245 9.10026 9.30339 9.15234 9.23828C9.4388 8.92578 9.63411 8.6849 9.73828 8.51562C9.79036 8.42448 9.84896 8.37891 9.91406 8.37891C9.97917 8.36589 10.0638 8.37891 10.168 8.41797C10.3112 8.47005 10.7344 8.67188 11.4375 9.02344Z" fill="white"/>
</svg>
