<svg width="18" height="19" viewBox="0 0 18 19" fill="none" xmlns="http://www.w3.org/2000/svg">
<path d="M15.375 2.625C16.2188 3.46875 16.8672 4.4375 17.3203 5.53125C17.7734 6.625 18 7.77344 18 8.97656C18 10.5859 17.5938 12.0859 16.7812 13.4766C15.9844 14.8359 14.9062 15.9141 13.5469 16.7109C12.1562 17.5234 10.6562 17.9297 9.04688 17.9297H9.02344C7.50781 17.9297 6.08594 17.5625 4.75781 16.8281L0 18.0703L1.26562 13.4297C0.46875 12.0547 0.0703125 10.5625 0.0703125 8.95312C0.0703125 7.34375 0.484375 5.83594 1.3125 4.42969C2.09375 3.08594 3.16406 2.01562 4.52344 1.21875C5.91406 0.40625 7.42188 0 9.04688 0C10.2344 0 11.375 0.226562 12.4688 0.679688C13.5625 1.13281 14.5312 1.78125 15.375 2.625ZM9.04688 16.4062C10.3906 16.4062 11.6406 16.0703 12.7969 15.3984C13.9219 14.7422 14.8125 13.8516 15.4688 12.7266C16.1406 11.5703 16.4766 10.3125 16.4766 8.95312C16.4766 7.96875 16.2891 7.02344 15.9141 6.11719C15.5391 5.21094 15 4.40625 14.2969 3.70312C13.5938 3 12.7891 2.46094 11.8828 2.08594C10.9766 1.71094 10.0312 1.52344 9.04688 1.52344C7.70312 1.52344 6.44531 1.85938 5.27344 2.53125C4.14844 3.1875 3.25781 4.07812 2.60156 5.20312C1.92969 6.35938 1.59375 7.60938 1.59375 8.95312C1.59375 10.3906 1.96875 11.7109 2.71875 12.9141L2.90625 13.1953L2.15625 15.9609L4.96875 15.2109L5.25 15.375C6.40625 16.0625 7.67188 16.4062 9.04688 16.4062ZM13.125 10.8281L13.2422 10.8984C13.4141 10.9766 13.5156 11.0469 13.5469 11.1094C13.5781 11.1562 13.5859 11.2891 13.5703 11.5078C13.5547 11.7109 13.5 11.9297 13.4062 12.1641C13.3281 12.3984 13.1094 12.6328 12.75 12.8672C12.4375 13.0703 12.1562 13.1875 11.9062 13.2188C11.3906 13.2969 10.9141 13.2656 10.4766 13.125C10.0391 12.9844 9.625 12.8281 9.23438 12.6562C8.34375 12.2812 7.48438 11.6641 6.65625 10.8047C6.21875 10.3672 5.8125 9.88281 5.4375 9.35156L5.39062 9.28125C5.20312 9.03125 5.03906 8.76562 4.89844 8.48438C4.61719 7.9375 4.47656 7.4375 4.47656 6.98438C4.47656 6.53125 4.57031 6.125 4.75781 5.76562C4.86719 5.5625 5.02344 5.35938 5.22656 5.15625L5.27344 5.10938C5.44531 4.92188 5.64062 4.82812 5.85938 4.82812H6.35156C6.44531 4.82812 6.51562 4.84375 6.5625 4.875C6.65625 4.9375 6.73438 5.04688 6.79688 5.20312L7.5 6.86719C7.5625 7.02344 7.5625 7.15625 7.5 7.26562L7.47656 7.33594C7.41406 7.46094 7.35156 7.5625 7.28906 7.64062L7.19531 7.75781C7.07031 7.89844 6.98438 7.99219 6.9375 8.03906C6.875 8.11719 6.82812 8.1875 6.79688 8.25C6.78125 8.3125 6.79688 8.39062 6.84375 8.48438C7.20312 9.09375 7.61719 9.61719 8.08594 10.0547C8.57031 10.4766 9.125 10.8203 9.75 11.0859L9.89062 11.1562C10 11.2031 10.0938 11.2266 10.1719 11.2266C10.25 11.2109 10.3203 11.1641 10.3828 11.0859C10.7266 10.7109 10.9609 10.4219 11.0859 10.2188C11.1484 10.1094 11.2188 10.0547 11.2969 10.0547C11.375 10.0391 11.4766 10.0547 11.6016 10.1016C11.7734 10.1641 12.2812 10.4062 13.125 10.8281Z" fill="white"/>
</svg>
