<?xml version="1.0" encoding="utf-8"?>
<!-- Generator: Adobe Illustrator 24.1.1, SVG Export Plug-In . SVG Version: 6.00 Build 0)  -->
<svg version="1.1" id="Capa_1" xmlns="http://www.w3.org/2000/svg" xmlns:xlink="http://www.w3.org/1999/xlink" x="0px" y="0px"
	 viewBox="0 0 30 30" style="enable-background:new 0 0 30 30;" xml:space="preserve">
<style type="text/css">
	.st0{fill:#333333;}
</style>
<path class="st0" d="M14.7,3c-2.2,0-4.3,0.6-6.2,1.7C6.7,5.8,5.2,7.2,4.2,9c-1.1,1.9-1.7,3.9-1.7,6.2s0.6,4.3,1.7,6.2
	c1.1,1.8,2.5,3.3,4.4,4.4s3.9,1.7,6.2,1.7s4.3-0.6,6.2-1.7c1.8-1.1,3.3-2.5,4.4-4.4s1.7-3.9,1.7-6.2s-0.6-4.3-1.7-6.2
	c-1.1-1.8-2.5-3.3-4.4-4.4C18.9,3.6,16.9,3,14.7,3z M14.7,4.9c0.3,0,0.6,0,0.9,0.1v0.9h1.9V5.3c1.2,0.3,2.2,0.8,3.2,1.5
	s1.8,1.5,2.5,2.5v3.1l0.9,1.9v0.9H25c0,0.3,0,0.7-0.1,1v0.3c0,0.3-0.1,0.6-0.1,0.7l-0.1,0.3c-0.1,0.3-0.1,0.5-0.2,0.7l-0.1,0.2
	c-0.1,0.3-0.2,0.5-0.3,0.7L24,19.3c-0.1,0.3-0.2,0.5-0.3,0.7l-0.1,0.2c-0.1,0.2-0.3,0.5-0.4,0.7l0,0.1c-0.2,0.2-0.3,0.4-0.5,0.7
	l-0.1,0.1c-0.2,0.2-0.3,0.4-0.6,0.6v0.1c-0.2,0.2-0.4,0.4-0.6,0.6l-0.1,0.1c-0.2,0.2-0.4,0.3-0.7,0.5l-0.1,0.1
	c-0.2,0.1-0.4,0.3-0.7,0.4c-1.1,0.6-2.3,1.1-3.6,1.2l3.7-2.8l1-1l1.3-2.6v-1l-1.9-0.9h-0.9l-1.9-1.9h-1.9l-0.9,0.9V17l-0.9,1v1.9
	l1.9,1.5l-1.8,4.1c-1.7-0.1-3.3-0.7-4.8-1.6c-1.4-1-2.5-2.2-3.4-3.7c-0.8-1.5-1.3-3.2-1.3-5c0-1.6,0.3-3,1-4.5C6,9.4,7,8.2,8.1,7.3
	v0.4L7.2,8.6v2.1l0.9,3.6l4.7,1.9h0.9v-0.9l-2.8-0.9v-1.9h2.8l0.9-2.3l1.9-1.4V7.7l-2.8-1.9l-1.3-0.7C13.2,5,13.9,4.9,14.7,4.9z
	 M13.8,13.3v0.9h1.9v-0.9H13.8z"/>
</svg>
