<?xml version="1.0" encoding="utf-8"?>
<!-- Generator: Adobe Illustrator 24.1.1, SVG Export Plug-In . SVG Version: 6.00 Build 0)  -->
<svg version="1.1" id="Capa_1" xmlns="http://www.w3.org/2000/svg" xmlns:xlink="http://www.w3.org/1999/xlink" x="0px" y="0px"
	 viewBox="0 0 30 30" style="enable-background:new 0 0 30 30;" xml:space="preserve">
<style type="text/css">
	.st0{fill:#333333;}
</style>
<path class="st0" d="M14.7,5.3l-0.4,0.2L1.6,12.1L0,12.9l1.6,0.8v7.9C1.3,21.8,1,22,0.9,22.3c-0.2,0.3-0.2,0.6-0.2,0.9
	c0,0.5,0.2,1,0.5,1.3C1.6,24.9,2,25,2.5,25s1-0.2,1.3-0.5c0.4-0.4,0.6-0.8,0.6-1.3c0-0.3-0.1-0.6-0.3-0.9C4,22,3.7,21.8,3.4,21.6
	v-6.9l1.9,1v4.8c0,0.4,0.1,0.7,0.4,1c0.2,0.2,0.4,0.3,0.8,0.5c0.5,0.3,1.2,0.5,2,0.7c1.8,0.4,3.8,0.6,6.2,0.6s4.4-0.2,6.2-0.6
	c0.8-0.2,1.5-0.4,2-0.7c0.4-0.2,0.6-0.4,0.8-0.5c0.3-0.3,0.4-0.6,0.4-1v-4.8l5.3-2.7l-1.6-0.8L15.1,5.5L14.7,5.3z M14.7,7.4
	l10.6,5.5l-1.7,0.8c-0.2-0.2-0.4-0.4-0.7-0.5c-0.5-0.3-1.2-0.5-2-0.7c-1.7-0.4-3.8-0.6-6.2-0.6s-4.4,0.2-6.2,0.6
	c-0.9,0.2-1.5,0.4-2,0.7c-0.3,0.2-0.6,0.3-0.7,0.5l-1.7-0.8L14.7,7.4z M14.7,13.9c2.3,0,4.2,0.2,5.8,0.5c0.7,0.2,1.3,0.3,1.6,0.5
	c0,0,0.1,0,0.1,0.1l0,0v3.6c-0.4-0.2-0.8-0.3-1.3-0.4c-1.8-0.4-3.8-0.6-6.2-0.6s-4.4,0.2-6.2,0.6c-0.5,0.1-0.9,0.2-1.3,0.4V15l0,0
	l0.1-0.1c0.3-0.2,0.9-0.3,1.6-0.5C10.5,14,12.4,13.9,14.7,13.9z M14.7,19.5c2.3,0,4.2,0.2,5.8,0.5c0.5,0.1,0.9,0.2,1.3,0.4
	c-0.4,0.2-0.8,0.3-1.3,0.4c-1.6,0.4-3.5,0.5-5.8,0.5s-4.2-0.2-5.8-0.5c-0.5-0.1-0.9-0.2-1.3-0.4C8,20.2,8.5,20.1,8.9,20
	C10.5,19.7,12.4,19.5,14.7,19.5z"/>
</svg>
