<?xml version="1.0" encoding="utf-8"?>
<!-- Generator: Adobe Illustrator 24.1.1, SVG Export Plug-In . SVG Version: 6.00 Build 0)  -->
<svg version="1.1" id="Capa_1" xmlns="http://www.w3.org/2000/svg" xmlns:xlink="http://www.w3.org/1999/xlink" x="0px" y="0px"
	 viewBox="0 0 30 30" style="enable-background:new 0 0 30 30;" xml:space="preserve">
<style type="text/css">
	.st0{fill:#333333;}
</style>
<path class="st0" d="M13.3,3.1c-0.6,0-1.1,0.1-1.6,0.4s-0.9,0.7-1.2,1.2S10,5.8,10,6.3c0,0.7,0.3,1.5,0.9,2.3
	c0.5,0.6,1.1,1.3,1.9,1.9c0.6,0.5,1.2,0.9,1.9,1.3l0.9,0.5l0.9-0.5c0.7-0.4,1.3-0.8,1.9-1.3c0.8-0.6,1.5-1.3,1.9-1.9
	c0.6-0.8,0.9-1.6,0.9-2.3c0-0.6-0.1-1.1-0.4-1.6s-0.7-0.9-1.2-1.2S18.5,3.1,18,3.1c-0.4,0-0.9,0.1-1.3,0.3S16,3.8,15.6,4.1
	c-0.3-0.3-0.7-0.6-1.1-0.7C14.2,3.1,13.8,3.1,13.3,3.1z M13.3,4.9c0.4,0,0.7,0.1,1,0.4l0.5,0.5h1.7L17,5.3c0.3-0.3,0.6-0.4,1-0.4
	s0.7,0.1,1,0.4s0.4,0.6,0.4,1c0,0.5-0.4,1.2-1.2,2c-0.7,0.7-1.6,1.3-2.5,1.9c-1-0.6-1.8-1.3-2.5-1.9c-0.8-0.8-1.2-1.5-1.2-2
	c0-0.4,0.1-0.7,0.4-1C12.6,5.1,12.9,4.9,13.3,4.9z M17.7,13.3l-1.5,1.1l2.4,3.5l-3.4,2.3L12.9,19l2.5-1.3c0.4-0.3,0.8-0.7,1-1.1
	c0.2-0.5,0.2-1,0.1-1.5c-0.2-0.6-0.6-1.1-1.1-1.4c-0.6-0.3-1.2-0.4-1.8-0.2l-6.7,1.9l-4.4,3l1.8,7.2L9,23.9l6.7,3.5l11.1-7.7
	l-1.1-1.5l-10.2,7.1L9.1,22l-3.5,1.3l-1-4L7.7,17l6.4-1.8c0.1,0,0.2,0,0.3,0c0.1,0.1,0.2,0.1,0.2,0.3c0,0.1,0,0.2,0,0.3
	S14.5,16,14.4,16l-5.6,3l6.7,3.5l5.9-4.1L17.7,13.3z"/>
</svg>
