<?xml version="1.0" encoding="utf-8"?>
<!-- Generator: Adobe Illustrator 24.1.1, SVG Export Plug-In . SVG Version: 6.00 Build 0)  -->
<svg version="1.1" id="Capa_1" xmlns="http://www.w3.org/2000/svg" xmlns:xlink="http://www.w3.org/1999/xlink" x="0px" y="0px"
	 viewBox="0 0 60 60" style="enable-background:new 0 0 60 60;" xml:space="preserve">
<style type="text/css">
	.st0{fill:#FF5023;}
</style>
<path class="st0" d="M30,10.7l-0.9,0.5l-25,13L1,25.8l3.1,1.6v15.7c-0.6,0.3-1,0.8-1.4,1.4c-0.3,0.5-0.5,1.1-0.5,1.8
	c0,1,0.3,1.9,1,2.7C4,49.7,4.9,50,6,50s1.9-0.3,2.6-1s1.1-1.6,1.1-2.7c0-0.7-0.2-1.3-0.5-1.8c-0.3-0.6-0.8-1-1.3-1.4V29.3l3.7,1.9
	v9.5c0,0.8,0.3,1.5,0.8,2c0.3,0.3,0.8,0.7,1.5,1c1,0.5,2.3,0.9,4,1.3c3.5,0.8,7.5,1.2,12.2,1.2s8.7-0.4,12.2-1.2
	c1.7-0.4,3-0.8,4-1.3c0.7-0.4,1.2-0.7,1.5-1c0.5-0.6,0.8-1.3,0.8-2v-9.5L59,25.8l-3.2-1.6l-25-13L30,10.7z M30,14.9l20.9,10.9
	l-3.3,1.7c-0.3-0.4-0.8-0.7-1.4-1c-1-0.5-2.3-0.9-4-1.3C38.8,24.4,34.7,24,30,24s-8.8,0.4-12.2,1.2c-1.7,0.4-3,0.8-4,1.3
	c-0.6,0.3-1.1,0.7-1.4,1l-3.3-1.7L30,14.9z M30,27.7c4.5,0,8.3,0.3,11.4,1c1.4,0.3,2.5,0.6,3.1,1c0.1,0,0.2,0.1,0.2,0.2l0.1,0.1v7
	c-0.8-0.3-1.7-0.6-2.6-0.8C38.7,35.4,34.7,35,30,35s-8.7,0.4-12.2,1.2c-0.9,0.2-1.8,0.4-2.6,0.8v-7l0.1-0.1c0.1-0.1,0.2-0.1,0.2-0.2
	c0.7-0.3,1.7-0.7,3.1-1C21.7,28,25.5,27.7,30,27.7z M30,38.8c4.5,0,8.3,0.3,11.4,1c0.9,0.2,1.8,0.5,2.5,0.8
	c-0.8,0.3-1.6,0.6-2.5,0.8c-3.1,0.7-6.9,1-11.4,1s-8.3-0.3-11.4-1c-0.9-0.2-1.8-0.5-2.5-0.8c0.8-0.3,1.6-0.6,2.5-0.8
	C21.7,39.2,25.5,38.8,30,38.8z"/>
</svg>
