<svg width="167" height="53" viewBox="0 0 167 53" fill="none" xmlns="http://www.w3.org/2000/svg">
<g clip-path="url(#clip0_3714_1542)">
<path d="M40.7364 11.472C44.4442 11.5208 44.4442 5.81088 40.7364 5.85969C37.0286 5.81088 37.0286 11.5208 40.7364 11.472Z" fill="white"/>
<path d="M52.0579 27.9152C51.6624 27.9152 51.3164 27.5736 51.3164 27.1831V3.5625H46.7187V28.208C46.6692 32.0146 51.0692 31.9658 53.8377 31.7706V27.9152H52.0579Z" fill="white"/>
<path d="M0 5.27344V11.2762H3.90557V9.71451H9.88751V27.918H8.10776V31.7734H16.5616V27.918H14.7818V9.71451H20.7143V11.2762H24.6199V5.27344H0Z" fill="white"/>
<path d="M43.06 27.9168V14.2031H33.123V18.1074H38.4623V27.9168H33.123V31.7722H44.9386V27.9168H43.06Z" fill="white"/>
<path d="M20.7146 14.2031V27.9168H18.8359V31.7722H30.7998V27.9168H25.3617V18.1074H30.7998V14.2031C28.8223 14.2031 22.6426 14.2519 20.7146 14.2031Z" fill="white"/>
<path d="M76.5295 21.2325C76.7767 16.5962 85.3788 16.0594 85.0328 21.2325H76.5295ZM88.444 17.7675C85.8732 12.9848 78.3587 13.0336 74.6509 16.2546C70.9431 20.3052 70.3498 26.6984 75.8868 30.505C77.0239 31.9203 85.9226 31.8715 86.9608 31.6275V27.8697C84.2912 28.0649 77.4194 28.3089 76.925 24.4535H89.1361C89.4327 22.7942 89.2844 19.378 88.444 17.7675Z" fill="white"/>
<path d="M70.2015 21.3253C70.0532 14.7857 71.6846 14.6881 63.9724 14.0049C52.2062 13.0288 50.5254 32.1596 63.2308 31.7691H68.9161V27.9137H64.5162C55.4197 27.8161 58.5343 15.6154 66.3454 18.1531V21.2765H70.2015V21.3253Z" fill="white"/>
<path d="M14.2379 47.3404C14.7323 50.1221 7.61325 50.1221 8.10763 47.3404C8.55257 44.8514 6.47619 40.2639 11.1728 40.4592C13.9413 40.508 14.3368 41.6304 14.2379 43.1921C14.2379 43.4361 14.139 43.5337 13.9413 43.5337C13.6446 43.4361 12.4581 43.7778 12.5076 43.1921C13.0019 41.6304 9.73907 41.4352 9.83794 42.8993V47.0476C9.64019 48.3652 12.6559 48.3164 12.5076 47.0476C12.557 46.7547 12.3593 46.1691 12.8536 46.2179C13.9907 46.2667 14.3862 45.9739 14.2379 47.3404Z" fill="white"/>
<path d="M20.7638 42.8967C20.9121 41.6278 17.7976 41.579 17.9459 42.8967V47.0449C17.7976 48.3626 20.9121 48.3138 20.7638 47.0449V42.8967ZM16.2156 42.5551C15.7706 39.7733 22.9885 39.7733 22.593 42.5551V47.3378C23.0379 50.1195 15.8201 50.1195 16.2156 47.3378V42.5551Z" fill="white"/>
<path d="M26.6963 47.9205C26.9435 48.0669 30.1075 47.5789 29.9592 48.2133C29.9097 48.5061 30.1569 49.4334 29.6131 49.3358C29.4153 49.1894 24.6199 49.7262 24.9165 48.9942V40.8929C24.8177 40.3072 26.103 40.6489 26.3502 40.5513C26.5974 40.5513 26.6468 40.6489 26.6468 40.8929V47.9205H26.6963Z" fill="white"/>
<path d="M32.1345 49.3429C31.8873 49.3429 31.8379 49.2453 31.8379 49.0013V40.9C31.8379 40.656 31.9368 40.5584 32.1345 40.5584C32.3323 40.7048 37.1771 40.2167 36.93 40.8512C36.8805 41.144 37.1277 42.0713 36.5839 41.9736H33.5682V44.0722C33.8648 44.2186 36.8311 43.7306 36.7322 44.365C36.6828 44.6578 36.93 45.5363 36.3861 45.4387H33.5682V47.83C33.8648 47.9764 37.2266 47.4884 37.0288 48.1228C36.9794 48.4156 37.2266 49.3429 36.6828 49.2453H32.1345" fill="white"/>
<path d="M44.8401 44.7556C45.4828 44.6092 45.0378 47.0981 45.1861 47.3422C45.6805 50.1239 38.5615 50.1239 39.0559 47.3422V42.5595C38.8087 39.1433 47.0648 40.1681 44.8895 43.3891C42.2693 43.7307 44.5434 41.925 42.121 41.8762C39.8469 41.5346 41.0828 45.9269 40.7862 47.0005C40.5884 48.3182 43.6041 48.2694 43.4558 47.0005V46.1221C42.3188 46.0733 41.6266 46.5613 41.8244 44.9996C41.6761 44.414 44.5434 44.902 44.8401 44.7556Z" fill="white"/>
<path d="M49.1903 48.9942C49.2892 49.5798 48.0038 49.2382 47.7566 49.3358C47.5094 49.3358 47.46 49.2382 47.46 48.9942V40.8929C47.3611 40.3072 48.6465 40.6489 48.8937 40.5513C49.1409 40.5513 49.1903 40.6489 49.1903 40.8929V48.9942Z" fill="white"/>
<path d="M56.1116 42.8967C56.2599 41.6278 53.1453 41.579 53.2937 42.8967V47.0449C53.1453 48.3626 56.2599 48.3138 56.1116 47.0449V42.8967ZM51.5139 42.5551C51.069 39.7733 58.2869 39.7733 57.8914 42.5551V47.3378C58.3363 50.1195 51.1184 50.1195 51.5139 47.3378V42.5551Z" fill="white"/>
<path d="M105.351 11.5156H105.055V35.2339H105.351V11.5156Z" fill="white"/>
<path d="M162.502 16.9346C159.486 14.0064 155.877 12.4936 151.625 12.4936C148.313 12.4936 145.347 13.4208 142.825 15.2265L146.484 1.6105H166.061V0H145.297L140.452 17.7643L141.787 18.1059H142.084V17.9595C144.704 15.4217 147.917 14.1041 151.675 14.1041C155.432 14.1041 158.695 15.4217 161.364 18.0571C164.034 20.6924 165.369 23.9134 165.369 27.6225C165.369 31.3315 164.034 34.5525 161.364 37.1878C158.695 39.8232 155.432 41.1409 151.675 41.1409C147.917 41.1409 144.655 39.8232 141.985 37.139C141.441 36.651 140.996 36.1142 140.601 35.5774L140.502 35.4309L139.167 36.407L139.266 36.5534C139.711 37.139 140.205 37.7735 140.798 38.3103C143.765 41.2385 147.423 42.7514 151.675 42.7514C155.877 42.7514 159.535 41.2385 162.551 38.3103C165.517 35.3821 167.05 31.7707 167.05 27.5737C167 23.4742 165.468 19.8628 162.502 16.9346Z" fill="white"/>
<path d="M137.436 25.4763V2.34375H136.151V25.4763H122.605L131.158 2.34375H129.774L121.221 25.4763H121.122V26.7452H136.151V33.236H137.436V26.7452H143.072V25.4763H137.436Z" fill="white"/>
<path d="M144.358 51.9232H140.403L140.007 52.8017H139.414L142.183 46.9453H142.628L145.396 52.8017H144.803L144.358 51.9232ZM144.111 51.3864L142.38 47.7262L140.65 51.3864H144.111Z" fill="white"/>
<path d="M146.138 46.9465H146.533L150.29 51.7292V46.9465H150.834V52.8029H150.439L146.731 48.0202V52.8029H146.187V46.9465H146.138ZM149.846 45.5801V46.1169C149.598 46.2145 149.351 46.2633 149.153 46.2633C148.956 46.2633 148.758 46.2145 148.511 46.1657C148.313 46.1169 148.066 46.0681 147.868 46.0681C147.67 46.0681 147.423 46.1169 147.176 46.2145V45.6777C147.423 45.5801 147.67 45.5312 147.868 45.5312C148.115 45.5312 148.313 45.5801 148.56 45.6289C148.758 45.6777 148.956 45.7265 149.153 45.7265C149.351 45.7265 149.549 45.6777 149.846 45.5801Z" fill="white"/>
<path d="M158.201 49.8734C158.201 50.7518 157.904 51.4839 157.261 52.0695C156.668 52.6552 155.926 52.9968 155.037 52.9968C154.147 52.9968 153.405 52.704 152.812 52.0695C152.219 51.4839 151.873 50.7518 151.873 49.8734C151.873 48.9949 152.169 48.2629 152.812 47.6773C153.405 47.0916 154.147 46.75 155.037 46.75C155.926 46.75 156.668 47.0428 157.261 47.6773C157.904 48.3117 158.201 49.0437 158.201 49.8734ZM155.037 47.2868C154.295 47.2868 153.702 47.5308 153.207 48.0189C152.713 48.5069 152.466 49.1413 152.466 49.8246C152.466 50.5566 152.713 51.1423 153.207 51.6303C153.702 52.1183 154.344 52.3623 155.037 52.3623C155.778 52.3623 156.371 52.1183 156.866 51.6303C157.36 51.1423 157.607 50.5078 157.607 49.8246C157.607 49.0925 157.36 48.5069 156.866 48.0189C156.371 47.5796 155.778 47.2868 155.037 47.2868Z" fill="white"/>
<path d="M162.6 47.9701C162.452 47.7749 162.205 47.6285 161.958 47.5308C161.661 47.3844 161.364 47.3356 161.068 47.3356C160.623 47.3356 160.277 47.4332 160.03 47.6285C159.782 47.8237 159.634 48.0677 159.634 48.3605C159.634 48.6045 159.733 48.8485 159.931 49.0437C160.128 49.2389 160.326 49.3854 160.623 49.483L162.106 49.8734C162.452 49.971 162.749 50.1662 162.996 50.4102C163.243 50.6542 163.342 50.9959 163.342 51.3863C163.342 51.8255 163.144 52.2159 162.798 52.5087C162.403 52.8504 161.908 52.9968 161.265 52.9968C160.722 52.9968 160.277 52.8992 159.881 52.6552C159.486 52.4111 159.189 52.1183 158.942 51.7767L159.387 51.4839C159.585 51.8255 159.881 52.0695 160.227 52.2159C160.573 52.4111 160.919 52.4599 161.265 52.4599C161.809 52.4599 162.205 52.3623 162.452 52.1183C162.699 51.8743 162.847 51.6303 162.847 51.3375C162.847 51.0935 162.749 50.8982 162.6 50.703C162.452 50.5078 162.205 50.4102 161.958 50.3126L160.573 49.9222C160.178 49.7758 159.832 49.5806 159.585 49.3366C159.337 49.0437 159.189 48.7509 159.189 48.3605C159.189 47.9213 159.387 47.5797 159.733 47.238C160.079 46.9452 160.573 46.75 161.167 46.75C161.612 46.75 162.007 46.8476 162.353 46.994C162.699 47.1404 162.996 47.3844 163.194 47.6285L162.6 47.9701Z" fill="white"/>
</g>
<defs>
<clipPath id="clip0_3714_1542">
<rect width="167" height="53" fill="white"/>
</clipPath>
</defs>
</svg>
