<?xml version="1.0" encoding="utf-8"?>
<!-- Generator: Adobe Illustrator 27.2.0, SVG Export Plug-In . SVG Version: 6.00 Build 0)  -->
<svg version="1.1" id="Capa_1" xmlns="http://www.w3.org/2000/svg" xmlns:xlink="http://www.w3.org/1999/xlink" x="0px" y="0px"
	 viewBox="0 0 160.4 172.2" style="enable-background:new 0 0 160.4 172.2;" xml:space="preserve">
<style type="text/css">
	.st0{fill:#FFFFFF;}
</style>
<g>
	<path class="st0" d="M91.6,6.4l10.6,7.4l12.2,1.6c4.1,0.5,7.8,2.3,10.8,5.3c3.1,3,4.9,6.7,5.4,10.9l0.2,0.4h-0.2l2.4,12l7.4,10.6
		c2.4,3.3,3.6,7.1,3.6,11.3s-1.1,8.1-3.4,11.7v0.2l-7.6,10.8l-1.6,12l20.1,30.5l6.6,9.8h-30.7l-7.4,17.3l-4.6,11l-26.9-40.6
		c-2.5,1.2-5.3,1.8-8.2,1.8c-2.9,0-5.8-0.6-8.6-1.8l-26.9,40.6l-4.6-11l-7.4-17.3H2l6.6-9.8l20.7-31.5l-2-11l-7.6-10.6
		c-2.4-3.3-3.6-7.2-3.6-11.4c0-4.3,1.1-8.2,3.4-11.8v-0.2l7.6-9.8l1.6-12.6l0.2-0.2c0.9-4.1,2.9-7.7,5.8-10.6
		c2.9-2.9,6.5-4.9,10.6-5.8l0.2-0.2L58,13.8l10.6-7.4c3.6-2.5,7.4-3.8,11.4-3.8C84.1,2.6,88,3.8,91.6,6.4z M25.9,128.5h15.5l1.6,4
		l4.4,10.2L61,122l-2.8-2.2l-12.4-1.6c-3.7-0.4-7.1-1.9-10-4.6L25.9,128.5z M76.1,16.8L63.3,26l-15.1,2L48,28.3
		c-1.6,0.4-3,1.2-4.1,2.3c-1.1,1.1-1.9,2.5-2.3,4.1l-0.2,0.2l-2,15.3l-9,11.6c-0.9,1.5-1.4,3.1-1.4,4.8c0,1.7,0.4,3.1,1.2,4.2
		l8.2,11.4l1,1.2l0.2,1.6l2.6,14.7v0.4c0.1,0.8,0.4,1.6,0.8,2.4c0.9,1.6,2.4,2.5,4.4,2.8l16.1,2.2l11.6,9c1.5,0.9,3.1,1.4,4.8,1.4
		c1.7,0,3.1-0.4,4.2-1.2l11.4-8.2l1.2-1l1.6-0.2l14.7-2.6h0.4c1.6-0.1,2.9-0.8,3.8-2v-0.2l0.4-0.2c0.5-0.8,0.9-1.7,1-2.8l2.2-15.9
		l9-12.7c0.9-1.5,1.4-3,1.4-4.7c0-1.7-0.4-3-1.2-4.1l-8.2-11.4l-1-1.2l-2.8-15.7v-0.4c-0.1-1.5-0.7-2.7-1.6-3.6
		c-0.9-0.9-2.1-1.5-3.6-1.6L97,26l-12.9-9.2c-1.2-0.8-2.5-1.2-4-1.2C78.6,15.6,77.3,16,76.1,16.8z M115.3,117.4l-0.4,0.2v-0.2
		l-12.6,2.2l-3,2.2l13.7,20.9l4.4-10.2l1.6-4h15.5l-9.8-15.1C121.7,115.7,118.6,117,115.3,117.4z"/>
</g>
</svg>
