<svg width="34" height="35" viewBox="0 0 34 35" fill="none" xmlns="http://www.w3.org/2000/svg">
<path d="M25.25 0.625C26.7396 0.625 28.1146 0.997396 29.375 1.74219C30.6354 2.48698 31.638 3.48958 32.3828 4.75C33.1276 6.01042 33.5 7.38542 33.5 8.875C33.5 9.50521 33.3854 10.1927 33.1562 10.9375C32.9844 11.5391 32.6979 12.2839 32.2969 13.1719C31.6667 14.6328 30.8646 16.194 29.8906 17.8555C29.1745 19.1159 28.3724 20.4193 27.4844 21.7656L25.25 25.0312L24.1328 23.3984C22.9583 21.7083 21.7839 19.8607 20.6094 17.8555C19.6354 16.194 18.8333 14.6328 18.2031 13.1719C17.8021 12.2839 17.5156 11.5391 17.3438 10.9375C17.1146 10.1927 17 9.50521 17 8.875C17 7.38542 17.3724 6.01042 18.1172 4.75C18.862 3.48958 19.8646 2.48698 21.125 1.74219C22.3854 0.997396 23.7604 0.625 25.25 0.625ZM11.457 3.28906L15.1094 4.62109C14.7656 5.45182 14.5221 6.33984 14.3789 7.28516L12.875 6.72656V27.1797L21.125 30.2734V23.9141L23.875 27.9102V30.1445L30.75 27.2227V21.7656C31.8672 19.9896 32.7839 18.4141 33.5 17.0391V29.0273L22.543 33.7109L11.543 29.5859L0.5 34.3555V7.97266L11.457 3.28906ZM25.25 3.375C24.2474 3.375 23.3164 3.61849 22.457 4.10547C21.6263 4.59245 20.9674 5.26562 20.4805 6.125C19.9935 6.95573 19.75 7.8724 19.75 8.875C19.75 9.16146 19.8359 9.60547 20.0078 10.207C20.1797 10.7799 20.4089 11.3958 20.6953 12.0547C21.2109 13.2292 21.9844 14.7044 23.0156 16.4805C23.6745 17.5977 24.3477 18.6719 25.0352 19.7031L25.25 20.0469L25.4648 19.7031C26.1523 18.6719 26.8255 17.5977 27.4844 16.4805C28.5156 14.7044 29.2891 13.2292 29.8047 12.0547C30.0911 11.3958 30.3203 10.7799 30.4922 10.207C30.6641 9.60547 30.75 9.16146 30.75 8.875C30.75 7.8724 30.5065 6.95573 30.0195 6.125C29.5326 5.26562 28.8594 4.59245 28 4.10547C27.1693 3.61849 26.2526 3.375 25.25 3.375ZM10.125 6.8125L3.25 9.77734V30.1445L10.125 27.2227V6.8125ZM25.25 6.8125C25.8229 6.8125 26.3099 7.01302 26.7109 7.41406C27.112 7.8151 27.3125 8.30208 27.3125 8.875C27.3125 9.44792 27.112 9.9349 26.7109 10.3359C26.3099 10.737 25.8229 10.9375 25.25 10.9375C24.6771 10.9375 24.1901 10.737 23.7891 10.3359C23.388 9.9349 23.1875 9.44792 23.1875 8.875C23.1875 8.30208 23.388 7.8151 23.7891 7.41406C24.1901 7.01302 24.6771 6.8125 25.25 6.8125Z" fill="#1C4D9C"/>
</svg>
