<?xml version="1.0" encoding="utf-8"?>
<!-- Generator: Adobe Illustrator 22.0.1, SVG Export Plug-In . SVG Version: 6.00 Build 0)  -->
<svg version="1.1" id="Capa_1" xmlns="http://www.w3.org/2000/svg" xmlns:xlink="http://www.w3.org/1999/xlink" x="0px" y="0px"
	 viewBox="0 0 118.5 62" style="enable-background:new 0 0 118.5 62;" xml:space="preserve">
<style type="text/css">
	.st0{fill:#FF622C;}
</style>
<g>
	<g>
		<path class="st0" d="M16.3,55.1c-0.2-0.7-0.5-2.9-0.5-3.1c0,0.2-0.3,2.4-0.5,3.1L14.6,57h2.2L16.3,55.1z M16.6,49.7
			c0.3,0,0.5,0.1,0.6,0.4l3.2,10.8c0.1,0.3,0,0.4-0.3,0.4h-1.5c-0.3,0-0.4-0.2-0.5-0.4l-0.6-2.1h-3.2l-0.6,2.1
			c-0.1,0.3-0.2,0.4-0.5,0.4h-1.4c-0.3,0-0.4-0.2-0.3-0.4l3.2-10.8c0.1-0.3,0.2-0.4,0.5-0.4H16.6z"/>
		<path class="st0" d="M30.3,58.7c0,1.4-0.9,2.8-4,2.8s-4-1.4-4-2.8v-6.4c0-1.4,0.9-2.8,4-2.8s4,1.4,4,2.8v0.8
			c0,0.3-0.1,0.4-0.4,0.4h-1.4c-0.3,0-0.4-0.1-0.4-0.4v-0.4c0-0.9-0.6-1.3-1.8-1.3c-1.2,0-1.7,0.4-1.7,1.3v5.5
			c0,0.9,0.6,1.3,1.7,1.3c1.1,0,1.8-0.4,1.8-1.3v-0.7c0-0.3,0.1-0.4,0.4-0.4h1.4c0.3,0,0.4,0.1,0.4,0.4V58.7z"/>
		<path class="st0" d="M37.1,55.1c-0.2-0.7-0.5-2.9-0.5-3.1c0,0.2-0.3,2.4-0.5,3.1L35.5,57h2.2L37.1,55.1z M37.4,49.7
			c0.3,0,0.5,0.1,0.6,0.4l3.2,10.8c0.1,0.3,0,0.4-0.3,0.4h-1.5c-0.3,0-0.4-0.2-0.5-0.4l-0.6-2.1H35l-0.6,2.1
			c-0.1,0.3-0.2,0.4-0.5,0.4h-1.4c-0.3,0-0.4-0.2-0.3-0.4l3.2-10.8c0.1-0.3,0.2-0.4,0.5-0.4H37.4z"/>
		<path class="st0" d="M45.8,51.6v7.8h1.8c1.2,0,1.9-0.4,1.9-1.3v-5.3c0-0.9-0.7-1.3-1.9-1.3H45.8z M43.8,61.4
			c-0.3,0-0.4-0.2-0.4-0.4V50.1c0-0.3,0.1-0.4,0.4-0.4h3.7c3.1,0,4.2,1.4,4.2,2.8v6.1c0,1.4-1.1,2.8-4.2,2.8H43.8z"/>
		<path class="st0" d="M55.3,61.4c-0.3,0-0.4-0.1-0.4-0.4V50.1c0-0.3,0.1-0.4,0.4-0.4h5.9c0.3,0,0.4,0.1,0.4,0.4v1.1
			c0,0.3-0.1,0.4-0.4,0.4h-4v2.8h3.7c0.3,0,0.4,0.1,0.4,0.4v1c0,0.3-0.1,0.4-0.4,0.4h-3.7v3.2h4.1c0.3,0,0.4,0.1,0.4,0.4v1.1
			c0,0.3-0.1,0.4-0.4,0.4H55.3z"/>
		<path class="st0" d="M74.9,60.9c0,0.3-0.1,0.4-0.4,0.4h-1.4c-0.3,0-0.4-0.1-0.4-0.4v-6.5c0,0.1-0.3,1.1-0.5,1.6l-1.3,3.2
			c-0.1,0.3-0.3,0.4-0.6,0.4h-1.2c-0.3,0-0.4-0.2-0.6-0.4l-1.5-3.5c-0.2-0.4-0.4-1.2-0.4-1.3v6.5c0,0.3-0.1,0.4-0.4,0.4h-1.4
			c-0.3,0-0.4-0.1-0.4-0.4V50.1c0-0.3,0.1-0.4,0.4-0.4h1.4c0.2,0,0.3,0.1,0.4,0.2l2.6,6c0.2,0.5,0.4,1.2,0.4,1.2s0.2-0.7,0.4-1.2
			l2.5-6c0.1-0.2,0.2-0.2,0.4-0.2h1.4c0.3,0,0.4,0.1,0.4,0.4V60.9z"/>
		<path class="st0" d="M80.5,60.9c0,0.3-0.1,0.4-0.4,0.4h-1.5c-0.3,0-0.4-0.1-0.4-0.4V50.1c0-0.3,0.1-0.4,0.4-0.4h1.5
			c0.3,0,0.4,0.1,0.4,0.4V60.9z"/>
		<path class="st0" d="M87.7,55.1c-0.2-0.7-0.5-2.9-0.5-3.1c0,0.2-0.3,2.4-0.5,3.1L86.1,57h2.2L87.7,55.1z M88,49.7
			c0.3,0,0.5,0.1,0.6,0.4l3.2,10.8c0.1,0.3,0,0.4-0.3,0.4h-1.5c-0.3,0-0.4-0.2-0.5-0.4l-0.6-2.1h-3.2L85,60.9
			c-0.1,0.3-0.2,0.4-0.5,0.4h-1.4c-0.3,0-0.4-0.2-0.3-0.4L86,50.1c0.1-0.3,0.2-0.4,0.5-0.4H88z"/>
		<path class="st0" d="M54.1,11c2.1,0,3.7-1.7,3.7-3.7c0-2.1-1.7-3.7-3.7-3.7c-2.1,0-3.7,1.7-3.7,3.7C50.4,9.3,52,11,54.1,11"/>
		<path class="st0" d="M69,32.9c-0.5,0-1-0.4-1-1V0.5h-6.1v32.8c0,2.6,2.1,4.7,4.7,4.7h4.6v-5.1H69z"/>
		<polygon class="st0" points="0.7,2.8 0.7,10.7 5.8,10.7 5.8,8.7 13.6,8.7 13.6,32.9 11.3,32.9 11.3,38 22.4,38 22.4,32.9 20,32.9 
			20,8.7 27.9,8.7 27.9,10.7 33,10.7 33,2.8 		"/>
		<polygon class="st0" points="57.2,32.9 57.2,14.7 44.1,14.7 44.1,19.8 51.1,19.8 51.1,32.9 44.1,32.9 44.1,38 59.6,38 59.6,32.9 
					"/>
		<polygon class="st0" points="27.9,14.7 27.9,32.9 25.4,32.9 25.4,38 41.1,38 41.1,32.9 33.9,32.9 33.9,19.8 41.1,19.8 41.1,14.7 
			31.6,14.7 		"/>
		<path class="st0" d="M101.1,24c0.1-0.8,0.3-1.5,0.6-2.1c0.4-0.6,0.8-1.1,1.4-1.5c0.6-0.4,1.2-0.7,1.9-0.9c0.7-0.2,1.4-0.3,2.2-0.3
			c1.7,0,3,0.4,3.8,1.3c0.8,0.9,1.2,2.1,1.2,3.6H101.1z M116.7,19.4c-0.6-1.2-1.5-2.2-2.5-3c-1-0.7-2.2-1.3-3.4-1.6
			c-1.2-0.3-2.4-0.5-3.6-0.5c-1.7,0-3.3,0.2-4.8,0.7c-1.5,0.5-2.8,1.2-3.9,2.2c-1.1,1-2,2.2-2.6,3.7c-0.6,1.5-1,3.2-1,5.2
			c0,0.7,0,1.3,0.1,1.9c0.1,1.1,0.4,2.1,0.7,3.1c0.1,0.4,1.3,3.2,4.3,5c2,1.2,4.8,1.7,8.7,1.7c3.9,0,5.8-0.2,5.8-0.2v-5v0
			c0,0-2.7,0-6,0c-4.9,0-6.5-3-6.9-3.8c-0.1-0.3-0.2-0.5-0.3-0.8h16C118.1,26,117.9,21.5,116.7,19.4"/>
		<path class="st0" d="M92.8,24.1v-7.5v-0.1c0-0.2-0.1-0.5-0.4-0.5c-0.8-0.3-1.8-0.6-3-1c-1.5-0.4-3.1-0.6-4.8-0.6
			c-1.8,0-3.5,0.3-5,0.8c-1.5,0.5-2.9,1.3-4,2.3c-1.1,1-2,2.3-2.7,3.8c-0.6,1.5-1,3.2-1,5.1c0,1.8,0.3,3.4,0.8,4.9
			c0.5,1.5,1.2,2.6,2.2,3.6c1.7,1.7,4.9,3,8.6,3.1l7.5,0v-5.1h-5.8c-2.4,0-4.8-1.1-5.4-1.7c-0.6-0.6-1.1-1.3-1.4-2.1
			c-0.3-0.8-0.5-1.7-0.5-2.7c0-1.2,0.2-2.2,0.6-3c0.4-0.8,0.9-1.5,1.6-2.1c0.6-0.6,1.4-1,2.2-1.2c0.8-0.3,1.7-0.4,2.5-0.4
			c0.9,0,1.9,0.1,2.8,0.3v4.2H92.8z"/>
	</g>
</g>
</svg>
