<svg width="12" height="18" viewBox="0 0 12 18" fill="none" xmlns="http://www.w3.org/2000/svg">
<path d="M2.25 0H9.75C10.375 0 10.9062 0.21875 11.3438 0.65625C11.7812 1.09375 12 1.625 12 2.25V15.75C12 16.375 11.7812 16.9062 11.3438 17.3438C10.9062 17.7812 10.375 18 9.75 18H2.25C1.625 18 1.09375 17.7812 0.65625 17.3438C0.21875 16.9062 0 16.375 0 15.75V2.25C0 1.625 0.21875 1.09375 0.65625 0.65625C1.09375 0.21875 1.625 0 2.25 0ZM2.25 1.5C2.03125 1.5 1.84375 1.57812 1.6875 1.73438C1.5625 1.85938 1.5 2.03125 1.5 2.25V15.75C1.5 15.9688 1.5625 16.1562 1.6875 16.3125C1.84375 16.4375 2.03125 16.5 2.25 16.5H9.75C9.96875 16.5 10.1406 16.4375 10.2656 16.3125C10.4219 16.1562 10.5 15.9688 10.5 15.75V2.25C10.5 2.03125 10.4219 1.85938 10.2656 1.73438C10.1406 1.57812 9.96875 1.5 9.75 1.5H2.25ZM5.4375 14.4844C5.59375 14.3281 5.78125 14.25 6 14.25C6.21875 14.25 6.39062 14.3281 6.51562 14.4844C6.67188 14.6094 6.75 14.7812 6.75 15C6.75 15.2188 6.67188 15.4062 6.51562 15.5625C6.39062 15.6875 6.21875 15.75 6 15.75C5.78125 15.75 5.59375 15.6875 5.4375 15.5625C5.3125 15.4062 5.25 15.2188 5.25 15C5.25 14.7812 5.3125 14.6094 5.4375 14.4844Z" fill="#FF4F00"/>
</svg>
