<svg width="138" height="38" viewBox="0 0 138 38" fill="none" xmlns="http://www.w3.org/2000/svg">
<g opacity="0.4">
<path d="M64.9503 5.01613C69.3003 1.36813 75.6003 0.608129 81.0003 1.97613C82.9503 2.58413 85.3503 3.34413 85.9503 5.62413C85.9503 7.29613 85.2003 8.96813 84.9003 10.6401C82.5003 8.36013 78.6003 7.90413 75.0003 8.36013C71.2503 8.96813 68.7003 12.0081 67.3503 14.7441C65.7003 18.3921 65.1003 22.1921 66.6003 25.8401C67.3503 27.8161 69.0003 29.4881 71.2503 29.9441C74.8503 30.7041 78.6003 29.6401 81.3003 27.5121C80.7003 29.7921 80.5503 31.6161 79.9503 33.8961C79.3503 35.5681 77.2503 36.1761 75.3003 36.3281C70.3503 37.0881 64.9503 36.3281 61.3503 32.9841C58.0503 29.6401 57.3003 25.2321 57.6003 21.1281C57.6003 15.0481 59.8503 8.96813 64.9503 5.01613Z" fill="#00298B"/>
<path d="M36.6001 20.8242C36.0001 23.1042 35.5501 25.2322 34.9501 27.5122C34.6501 28.2722 34.2001 29.4882 34.9501 30.2482C37.3501 30.2482 40.2001 30.5522 42.6001 29.1842C45.3001 27.8162 46.2001 24.1682 43.9501 22.0402C42.0001 20.5202 39.0001 20.8242 36.6001 20.8242ZM39.3001 7.60022C38.7001 9.88022 38.2501 12.3122 37.9501 14.5922C37.9501 15.2002 38.7001 15.3522 39.3001 15.3522C41.7001 15.3522 44.5501 15.0482 46.2001 13.6802C47.8501 12.3122 48.1501 9.27222 45.6001 8.20822C43.6501 6.99222 41.5501 7.60022 39.3001 7.60022ZM32.8501 2.58422C36.4501 1.97622 39.9001 1.82422 43.5001 1.82422C46.8001 2.12822 50.4001 2.58422 52.8001 4.86422C55.8001 7.29622 55.8001 11.8562 53.4001 14.5922C52.0501 16.2642 49.8001 17.6322 47.7001 17.9362C49.6501 18.5442 51.3001 19.6082 52.3501 21.2802C54.6001 25.0802 53.4001 30.0962 49.6501 32.8322C46.6501 35.1122 42.7501 35.8722 39.0001 36.1762C36.3001 36.1762 33.3001 36.1762 30.6001 35.4162C29.2501 35.1122 28.2001 34.0482 27.6001 32.6802C26.8501 30.7042 27.0001 28.8802 27.6001 26.9042C29.2501 18.8482 30.9001 10.7922 32.8501 2.58422Z" fill="#00298B"/>
<path d="M98.5501 7.75291C97.8001 11.0969 97.2001 14.1369 96.3001 17.4809C96.0001 18.0889 96.6001 18.8489 97.0501 19.1529C99.0001 19.4569 101.1 19.1529 102.75 18.3929C106.05 16.7209 107.4 12.9209 105.75 9.88091C104.55 7.29691 101.1 7.60091 98.5501 7.75291ZM91.2001 2.88891C93.6001 2.28091 96.4501 2.12891 98.8501 2.12891C102.45 2.12891 106.2 2.12891 109.5 3.80091C111.9 4.86491 113.25 7.44891 113.55 9.88091C114.3 15.2009 111.3 20.9769 105.9 23.4089C102.3 25.0809 97.9501 25.3849 94.2001 25.0809C93.6001 27.8169 93.1501 30.4009 92.2501 33.1369C91.9501 34.5049 90.9001 35.8729 89.2501 36.4809C87.3001 36.7849 85.5001 36.4809 83.8501 36.4809C86.5501 24.9289 88.8001 13.8329 91.2001 2.88891Z" fill="#00298B"/>
<path d="M117.45 10.3379C118.5 7.75393 120.15 5.32193 122.85 4.56193C124.2 3.95393 125.85 4.86593 126.6 5.62593C128.25 9.27393 127.95 13.3779 126.6 17.1779C124.35 14.1379 121.05 12.0099 117.45 10.3379Z" fill="#00298B"/>
<path d="M126.75 5.625C130.05 6.993 132.15 9.729 134.4 12.313C136.05 14.289 137.1 16.417 136.8 19.001C136.5 20.977 135.45 22.801 134.1 24.473C131.4 27.817 128.1 30.249 124.2 32.833C122.55 33.593 120.9 34.505 118.95 33.897C116.55 33.289 114.9 31.465 113.7 29.185C119.1 26.449 124.05 22.497 126.6 17.329C128.1 13.377 128.4 9.273 126.75 5.625Z" fill="#FF7800"/>
<path d="M4.65015 10.3379C5.70015 7.75393 7.35015 5.32193 10.0501 4.56193C11.4001 3.95393 13.0501 4.86593 13.8001 5.62593C15.4501 9.27393 15.1501 13.3779 13.8001 17.1779C11.2501 14.1379 8.25015 12.0099 4.65015 10.3379Z" fill="#00298B"/>
<path d="M13.9501 5.625C17.2501 6.993 19.3501 9.729 21.6001 12.313C23.2501 14.289 24.3001 16.417 24.0001 19.001C23.7001 20.977 22.6501 22.801 21.3001 24.473C18.6001 27.817 15.3001 30.249 11.4001 32.833C9.75015 33.593 8.10015 34.505 6.15015 33.897C3.75015 33.289 2.10015 31.465 0.900146 29.185C6.30015 26.449 11.2501 22.497 13.8001 17.329C15.0001 13.377 15.6001 9.273 13.9501 5.625Z" fill="#FF7800"/>
</g>
</svg>
