<svg width="216" height="35" viewBox="0 0 216 35" fill="none" xmlns="http://www.w3.org/2000/svg">
<path d="M54.3962 11.2852C48.5837 11.2852 43.9639 15.8896 43.9639 21.6828C43.9639 27.476 48.7347 32.0805 54.3962 32.0805C60.2088 32.0805 64.8286 27.476 64.8286 21.6828C64.8286 15.8896 60.2088 11.2852 54.3962 11.2852ZM54.3962 26.2873C51.8599 26.2873 49.9274 24.2108 49.9274 21.6828C49.9274 19.1549 52.0108 17.2288 54.5472 17.2288C57.0836 17.2288 59.0161 19.3054 59.0161 21.8333C59.0161 23.022 58.5631 24.2108 57.6724 25.0986C56.9326 25.6854 55.7399 26.2873 54.3962 26.2873Z" fill="#FF031D"/>
<path d="M78.0844 11.8721H75.2461V5.79297H69.1467V11.8871H66.3083V17.5299H69.1467V31.6442H75.2612V17.5299H78.0995V11.8721H78.0844Z" fill="#FF031D"/>
<path d="M80.9226 11.8711H87.0371V31.4777H80.9226V11.8711Z" fill="#FF031D"/>
<path d="M83.8967 2.22656C82.4021 2.22656 81.2094 3.11435 80.7715 4.30309C80.3186 5.6423 80.6206 7.13198 81.5113 8.17024C82.553 9.20851 84.0477 9.50945 85.3914 8.90756C86.735 8.45614 87.4748 7.13198 87.4748 5.79277C87.4748 3.86672 85.8443 2.22656 83.8967 2.22656Z" fill="#FF031D"/>
<path d="M172.7 17.0789C174.784 17.0789 176.429 18.7191 176.429 20.7956V31.4942H182.544V19.9078C182.544 14.7165 179.57 11.3008 174.799 11.3008C172.866 11.3008 170.783 12.1886 168.986 14.867V11.7372H162.872V31.3438H168.986V20.6451C168.986 19.6069 169.439 18.7191 170.179 17.9667C170.768 17.3799 171.81 17.0789 172.7 17.0789Z" fill="#FF031D"/>
<path d="M205.19 31.4776L197.596 21.6818L204.752 11.886H197.596L191.935 19.9062V2.8125H185.82V31.4776H191.935V23.4574L198.185 31.4776H205.19Z" fill="#FF031D"/>
<path d="M22.8123 26.138C23.2653 24.9493 23.5521 23.7605 23.5521 22.5718C23.5521 20.7962 22.9633 19.0056 21.7706 17.5159C20.4269 16.0262 18.1925 14.8375 15.0673 13.9497C14.4785 13.7992 13.8746 13.4983 13.2858 13.3629C12.8329 13.2124 12.38 12.776 11.9421 12.4751C11.4892 12.0236 11.3382 11.4368 11.3382 10.8349C11.3382 9.94712 11.7912 9.19475 12.5309 8.75838C14.0256 8.02106 15.9581 8.02106 17.4527 8.75838C18.1925 8.90885 18.7964 9.34522 19.3852 9.64617L22.0726 4.45485C20.8799 3.71754 19.5362 3.11565 18.1925 2.8147C16.8488 2.51375 15.3542 2.36328 14.0256 2.36328C12.6819 2.36328 11.3382 2.51375 10.1455 2.95013C8.95282 3.40154 8.06207 4.13886 7.17132 4.87618C6.28057 5.79406 5.67667 6.83233 5.08786 8.02106C4.63494 9.2098 4.48396 10.3985 4.48396 11.5873C4.63494 13.5133 5.37472 15.4544 6.86937 16.7786C8.21305 17.9673 9.84358 18.8551 11.4892 19.3065C12.38 19.6075 13.2707 19.8934 13.7236 20.1943C14.3124 20.3448 14.9163 20.6457 15.3693 21.0821C15.8222 21.3831 16.109 21.669 16.26 22.1204C16.411 22.5718 16.411 23.0082 16.411 23.3091C16.26 23.896 15.9581 24.4978 15.5202 25.0847C14.6295 25.6715 13.7387 25.9725 12.6819 25.9725C11.4892 25.9725 10.2965 25.6715 9.25477 25.0847C8.36402 24.6333 7.47327 24.1969 6.41644 23.595L3.29126 29.0873C5.82764 31.1638 8.80185 32.2021 12.078 32.2021C13.5727 32.2021 15.2032 32.0516 16.6978 31.4647C18.0415 31.0133 19.2342 30.276 20.125 29.5387C21.6196 28.365 22.3594 27.3267 22.8123 26.138Z" fill="#FF031D"/>
<path d="M209.508 24.6484C208.013 24.6484 206.821 25.5362 206.383 26.725C205.93 28.0642 206.232 29.5539 207.123 30.5921C208.013 31.6304 209.659 31.9313 211.003 31.3294C212.346 30.878 213.086 29.5539 213.086 28.2146C212.935 26.1381 211.441 24.6484 209.508 24.6484ZM209.508 30.7426C208.315 30.7426 207.425 30.1557 206.972 28.967C206.519 27.9287 206.821 26.74 207.56 26.0027C208.451 25.1149 209.493 24.9644 210.535 25.4159C211.576 25.8673 212.316 26.9055 212.316 27.9438C212.316 28.6811 212.014 29.4335 211.425 29.8699C210.852 30.5921 210.097 30.7426 209.508 30.7426Z" fill="#FF031D"/>
<path d="M209.508 28.6647H209.055V30.0039H208.315V26.1367H209.81C210.55 26.1367 211.003 26.5881 211.003 27.3255C211.003 27.7769 210.701 28.2132 210.263 28.5142L211.154 30.0039H210.263L209.508 28.6647ZM208.904 27.9123H209.795C210.097 27.9123 210.384 27.6114 210.384 27.3255C210.384 27.0245 210.082 26.7386 209.795 26.7386H208.904V27.9123Z" fill="#FF031D"/>
<path d="M39.797 24.4967C38.3023 26.4228 35.3281 26.7237 33.3956 25.234C31.4631 23.7444 31.1612 20.78 32.6558 18.854C34.1505 16.9279 37.1247 16.627 39.0572 18.1167C39.3591 18.2672 39.5101 18.5681 39.797 18.854L43.9639 14.7009C42.0314 12.6244 39.1931 11.2852 36.3698 11.2852C30.5573 11.1347 25.6355 15.2878 25.6355 21.5324C25.6355 27.777 30.7083 31.9301 36.3698 31.9301C39.2082 31.9301 42.0314 30.7414 44.1148 28.5144L39.797 24.4967Z" fill="#FF031D"/>
<path d="M111.314 31.4766V11.87H105.199V13.9465L104.611 13.4951C103.116 12.1709 101.334 11.4336 99.402 11.4336C94.0423 11.4336 89.5735 16.1885 89.5735 21.8313C89.5735 27.474 94.0423 32.2289 99.402 32.2289C101.334 32.2289 103.282 31.4916 104.611 30.1524L105.199 29.701V31.7775H111.314V31.4766ZM100.444 26.2853C97.9073 26.2853 95.8239 24.2087 95.8239 21.5303C95.8239 19.0024 97.9073 16.9259 100.595 16.9259C103.131 16.9259 105.215 19.0024 105.215 21.6808C105.215 22.8695 104.762 24.2087 103.871 24.9461C102.829 25.8338 101.787 26.2853 100.444 26.2853Z" fill="#FF031D"/>
<path d="M159.882 31.4799V11.8733H153.768V13.9498L153.179 13.4984C151.685 12.1592 149.903 11.4219 147.971 11.4219C142.611 11.4219 138.142 16.1768 138.142 21.8196C138.142 27.4623 142.611 32.2172 147.971 32.2172C149.903 32.2172 151.851 31.4799 153.179 30.1407L153.768 29.6893V31.7658H159.882V31.4799ZM149.012 26.2886C146.476 26.2886 144.241 24.2121 144.241 21.6841C144.241 19.1562 146.325 16.9292 148.861 16.9292C151.398 16.9292 153.481 19.0057 153.481 21.5337C153.783 24.2121 151.549 26.2886 149.012 26.2886Z" fill="#FF031D"/>
<path d="M120.554 31.4802V29.4037L121.007 29.8551C122.501 31.1943 124.283 31.9316 126.215 31.9316C131.575 31.9316 136.044 27.1767 136.044 21.5339C136.044 15.8912 131.575 11.1363 126.215 11.1363C124.283 11.1363 122.335 11.8736 121.007 13.2128L120.554 13.6642V2.67969H114.439V31.4953L120.554 31.4802ZM120.554 21.6844C120.554 19.9088 121.746 18.1182 123.392 17.3809C125.174 16.6436 127.272 17.0799 128.465 18.4192C129.808 19.7584 130.246 21.8349 129.507 23.475C128.767 25.2506 126.97 26.3039 125.189 26.3039C122.788 26.2889 120.554 24.2124 120.554 21.6844Z" fill="#FF031D"/>
</svg>
