<svg width="114" height="37" viewBox="0 0 114 37" fill="none" xmlns="http://www.w3.org/2000/svg">
<g opacity="0.4">
<path d="M81.15 6.65928L71.7001 24.4193C71.5501 24.8633 70.9501 24.8633 70.6501 24.4193L61.2001 6.65928C61.0501 6.51128 60.9001 6.36328 60.7501 6.36328H56.1001C55.8001 6.36328 55.6501 6.65928 55.8001 6.95528L70.8001 34.4833C70.9501 34.9273 71.5501 34.9273 71.8501 34.4833L86.8501 6.95528C87.0001 6.65928 86.8501 6.36328 86.5501 6.36328H81.9C81.45 6.36328 81.3 6.36328 81.15 6.65928Z" fill="#0074BC"/>
<path d="M86.5501 30.3406L96.0001 12.5806C96.1501 12.1366 96.7501 12.1366 97.0501 12.5806L106.5 30.3406C106.65 30.4886 106.8 30.6366 106.95 30.6366H111.6C111.9 30.6366 112.05 30.3406 111.9 30.0446L96.9001 2.51659C96.7501 2.07259 96.1501 2.07259 95.8501 2.51659L80.8501 30.0446C80.7001 30.3406 80.8501 30.6366 81.1501 30.6366H85.8001C86.2501 30.6366 86.4001 30.4886 86.5501 30.3406Z" fill="#0074BC"/>
<path d="M21.7501 19.3873C23.7001 18.3513 24.9001 16.2793 24.9001 13.7633C24.9001 9.32328 21.4501 6.36328 16.5001 6.36328H2.25015C1.95015 6.36328 1.65015 6.65928 1.65015 6.95528V34.3353C1.65015 34.6313 1.95015 34.9273 2.25015 34.9273H15.9001C22.6501 34.9273 26.2501 32.1153 26.2501 26.3433C26.2501 20.7193 21.7501 19.3873 21.7501 19.3873ZM7.05015 10.5073H15.4501C18.6001 10.5073 20.1001 11.8393 20.1001 14.2073C20.1001 16.5753 18.4501 17.9073 15.4501 17.9073H7.05015C6.75015 17.9073 6.45015 17.6113 6.45015 17.3153V10.9513C6.45015 10.6553 6.75015 10.5073 7.05015 10.5073ZM15.6001 30.6353H7.05015C6.75015 30.6353 6.45015 30.3393 6.45015 30.0433V22.4953C6.45015 22.1993 6.75015 21.9033 7.05015 21.9033H15.6001C19.6501 21.9033 21.4501 23.0873 21.4501 26.1953C21.4501 29.5993 19.8001 30.6353 15.6001 30.6353Z" fill="#0074BC"/>
<path d="M50.8501 19.3873C52.8001 18.3513 54.0001 16.2793 54.0001 13.7633C54.0001 9.32328 50.5501 6.36328 45.6001 6.36328H31.5001C31.2001 6.36328 30.9001 6.65928 30.9001 6.95528V34.3353C30.9001 34.6313 31.2001 34.9273 31.5001 34.9273H45.0001C51.7501 34.9273 55.3502 32.1153 55.3502 26.3433C55.5002 20.7193 50.8501 19.3873 50.8501 19.3873ZM36.3001 10.5073H44.7001C47.8501 10.5073 49.3501 11.8393 49.3501 14.2073C49.3501 16.5753 47.7001 17.9073 44.7001 17.9073H36.3001C36.0001 17.9073 35.7001 17.6113 35.7001 17.3153V10.9513C35.7001 10.6553 35.8501 10.5073 36.3001 10.5073ZM44.7001 30.6353H36.1501C35.8501 30.6353 35.5501 30.3393 35.5501 30.0433V22.4953C35.5501 22.1993 35.8501 21.9033 36.1501 21.9033H44.7001C48.7501 21.9033 50.5501 23.0873 50.5501 26.1953C50.7001 29.5993 48.9001 30.6353 44.7001 30.6353Z" fill="#0074BC"/>
</g>
</svg>
