<svg width="216" height="35" viewBox="0 0 216 35" fill="none" xmlns="http://www.w3.org/2000/svg">
<g opacity="0.4">
<path d="M54.3962 11.2852C48.5837 11.2852 43.9639 15.8896 43.9639 21.6828C43.9639 27.476 48.7347 32.0805 54.3962 32.0805C60.2088 32.0805 64.8286 27.476 64.8286 21.6828C64.8286 15.8896 60.2088 11.2852 54.3962 11.2852ZM54.3962 26.2873C51.8599 26.2873 49.9274 24.2108 49.9274 21.6828C49.9274 19.1549 52.0108 17.2288 54.5472 17.2288C57.0836 17.2288 59.0161 19.3054 59.0161 21.8333C59.0161 23.022 58.5631 24.2108 57.6724 25.0986C56.9326 25.6854 55.7399 26.2873 54.3962 26.2873Z" fill="#FF031D"/>
<path d="M78.0844 11.8721H75.2461V5.79297H69.1467V11.8871H66.3083V17.5299H69.1467V31.6442H75.2612V17.5299H78.0995V11.8721H78.0844Z" fill="#FF031D"/>
<path d="M80.9226 11.8711H87.0371V31.4777H80.9226V11.8711Z" fill="#FF031D"/>
<path d="M83.8967 2.22656C82.4021 2.22656 81.2094 3.11435 80.7715 4.30309C80.3186 5.6423 80.6206 7.13198 81.5113 8.17024C82.553 9.20851 84.0477 9.50945 85.3914 8.90756C86.735 8.45614 87.4748 7.13198 87.4748 5.79277C87.4748 3.86672 85.8443 2.22656 83.8967 2.22656Z" fill="#FF031D"/>
<path d="M172.7 17.077C174.784 17.077 176.429 18.7171 176.429 20.7937V31.4923H182.544V19.9059C182.544 14.7146 179.57 11.2988 174.799 11.2988C172.866 11.2988 170.783 12.1866 168.986 14.865V11.7352H162.872V31.3418H168.986V20.6432C168.986 19.6049 169.439 18.7171 170.179 17.9648C170.768 17.3779 171.81 17.077 172.7 17.077Z" fill="#FF031D"/>
<path d="M205.19 31.4795L197.596 21.6838L204.752 11.888H197.596L191.935 19.9082V2.81445H185.82V31.4795H191.935V23.4593L198.185 31.4795H205.19Z" fill="#FF031D"/>
<path d="M22.8123 26.1361C23.2653 24.9473 23.5521 23.7586 23.5521 22.5698C23.5521 20.7943 22.9633 19.0036 21.7706 17.514C20.4269 16.0243 18.1925 14.8355 15.0673 13.9477C14.4785 13.7973 13.8746 13.4963 13.2858 13.3609C12.8329 13.2104 12.38 12.7741 11.9421 12.4731C11.4892 12.0217 11.3382 11.4348 11.3382 10.833C11.3382 9.94516 11.7912 9.1928 12.5309 8.75643C14.0256 8.01911 15.9581 8.01911 17.4527 8.75643C18.1925 8.9069 18.7964 9.34327 19.3852 9.64422L22.0726 4.4529C20.8799 3.71558 19.5362 3.11369 18.1925 2.81275C16.8488 2.5118 15.3542 2.36133 14.0256 2.36133C12.6819 2.36133 11.3382 2.5118 10.1455 2.94817C8.95282 3.39959 8.06207 4.13691 7.17132 4.87423C6.28057 5.79211 5.67667 6.83037 5.08786 8.01911C4.63494 9.20785 4.48396 10.3966 4.48396 11.5853C4.63494 13.5114 5.37472 15.4525 6.86937 16.7766C8.21305 17.9654 9.84358 18.8532 11.4892 19.3046C12.38 19.6055 13.2707 19.8914 13.7236 20.1924C14.3124 20.3428 14.9163 20.6438 15.3693 21.0802C15.8222 21.3811 16.109 21.667 16.26 22.1184C16.411 22.5698 16.411 23.0062 16.411 23.3072C16.26 23.894 15.9581 24.4959 15.5202 25.0827C14.6295 25.6696 13.7387 25.9705 12.6819 25.9705C11.4892 25.9705 10.2965 25.6696 9.25477 25.0827C8.36402 24.6313 7.47327 24.195 6.41644 23.5931L3.29126 29.0853C5.82764 31.1618 8.80185 32.2001 12.078 32.2001C13.5727 32.2001 15.2032 32.0496 16.6978 31.4628C18.0415 31.0114 19.2342 30.2741 20.125 29.5367C21.6196 28.363 22.3594 27.3248 22.8123 26.1361Z" fill="#FF031D"/>
<path d="M209.508 24.6465C208.013 24.6465 206.821 25.5343 206.383 26.723C205.93 28.0622 206.232 29.5519 207.123 30.5902C208.013 31.6284 209.659 31.9294 211.003 31.3275C212.346 30.8761 213.086 29.5519 213.086 28.2127C212.935 26.1362 211.441 24.6465 209.508 24.6465ZM209.508 30.7406C208.315 30.7406 207.425 30.1538 206.972 28.9651C206.519 27.9268 206.821 26.7381 207.56 26.0007C208.451 25.113 209.493 24.9625 210.535 25.4139C211.576 25.8653 212.316 26.9036 212.316 27.9418C212.316 28.6792 212.014 29.4315 211.425 29.8679C210.852 30.5902 210.097 30.7406 209.508 30.7406Z" fill="#FF031D"/>
<path d="M209.508 28.6647H209.055V30.0039H208.315V26.1367H209.81C210.55 26.1367 211.003 26.5881 211.003 27.3255C211.003 27.7769 210.701 28.2132 210.263 28.5142L211.154 30.0039H210.263L209.508 28.6647ZM208.904 27.9123H209.795C210.097 27.9123 210.384 27.6114 210.384 27.3255C210.384 27.0245 210.082 26.7386 209.795 26.7386H208.904V27.9123Z" fill="#FF031D"/>
<path d="M39.797 24.4967C38.3023 26.4228 35.3281 26.7237 33.3956 25.234C31.4631 23.7444 31.1612 20.78 32.6558 18.854C34.1505 16.9279 37.1247 16.627 39.0572 18.1167C39.3591 18.2672 39.5101 18.5681 39.797 18.854L43.9639 14.7009C42.0314 12.6244 39.1931 11.2852 36.3698 11.2852C30.5573 11.1347 25.6355 15.2878 25.6355 21.5324C25.6355 27.777 30.7083 31.9301 36.3698 31.9301C39.2082 31.9301 42.0314 30.7414 44.1148 28.5144L39.797 24.4967Z" fill="#FF031D"/>
<path d="M111.314 31.4785V11.8719H105.199V13.9484L104.611 13.497C103.116 12.1729 101.334 11.4355 99.402 11.4355C94.0423 11.4355 89.5735 16.1905 89.5735 21.8332C89.5735 27.476 94.0423 32.2309 99.402 32.2309C101.334 32.2309 103.282 31.4936 104.611 30.1544L105.199 29.703V31.7795H111.314V31.4785ZM100.444 26.2872C97.9073 26.2872 95.8239 24.2107 95.8239 21.5323C95.8239 19.0043 97.9073 16.9278 100.595 16.9278C103.131 16.9278 105.215 19.0043 105.215 21.6828C105.215 22.8715 104.762 24.2107 103.871 24.948C102.829 25.8358 101.787 26.2872 100.444 26.2872Z" fill="#FF031D"/>
<path d="M159.882 31.478V11.8713H153.768V13.9479L153.179 13.4964C151.685 12.1572 149.903 11.4199 147.971 11.4199C142.611 11.4199 138.142 16.1749 138.142 21.8176C138.142 27.4603 142.611 32.2153 147.971 32.2153C149.903 32.2153 151.851 31.478 153.179 30.1388L153.768 29.6873V31.7639H159.882V31.478ZM149.012 26.2866C146.476 26.2866 144.241 24.2101 144.241 21.6822C144.241 19.1542 146.325 16.9272 148.861 16.9272C151.398 16.9272 153.481 19.0038 153.481 21.5317C153.783 24.2101 151.549 26.2866 149.012 26.2866Z" fill="#FF031D"/>
<path d="M120.554 31.4782V29.4017L121.007 29.8531C122.501 31.1924 124.283 31.9297 126.215 31.9297C131.575 31.9297 136.044 27.1747 136.044 21.532C136.044 15.8893 131.575 11.1343 126.215 11.1343C124.283 11.1343 122.335 11.8716 121.007 13.2108L120.554 13.6623V2.67773H114.439V31.4933L120.554 31.4782ZM120.554 21.6825C120.554 19.9069 121.746 18.1163 123.392 17.3789C125.174 16.6416 127.272 17.078 128.465 18.4172C129.808 19.7564 130.246 21.8329 129.507 23.4731C128.767 25.2487 126.97 26.302 125.189 26.302C122.788 26.2869 120.554 24.2104 120.554 21.6825Z" fill="#FF031D"/>
</g>
</svg>
