<svg width="14" height="21" viewBox="0 0 14 21" fill="none" xmlns="http://www.w3.org/2000/svg">
<path d="M2.21875 2.21875C3.53125 0.90625 5.125 0.25 7 0.25C8.875 0.25 10.4688 0.90625 11.7812 2.21875C13.0938 3.53125 13.75 5.125 13.75 7C13.75 7.875 13.4062 9.0625 12.7188 10.5625C12.2188 11.7812 11.5312 13.125 10.6562 14.5938C10.2188 15.375 9.73438 16.1719 9.20312 16.9844C8.70312 17.7969 8.3125 18.4062 8.03125 18.8125L7.60938 19.4219L7 20.3125L6.39062 19.4219C5.35938 17.9531 4.34375 16.3438 3.34375 14.5938C2.46875 13.125 1.78125 11.7812 1.28125 10.5625C0.59375 9.0625 0.25 7.875 0.25 7C0.25 5.125 0.90625 3.53125 2.21875 2.21875ZM10.7031 3.29688C9.70312 2.26562 8.46875 1.75 7 1.75C5.53125 1.75 4.28125 2.26562 3.25 3.29688C2.25 4.29688 1.75 5.53125 1.75 7C1.75 7.65625 2.03125 8.65625 2.59375 10C3.0625 11.0312 3.75 12.3125 4.65625 13.8438C5.4375 15.1875 6.21875 16.4375 7 17.5938C7.78125 16.4375 8.5625 15.1875 9.34375 13.8438C10.25 12.3125 10.9375 11.0312 11.4062 10C11.9688 8.65625 12.25 7.65625 12.25 7C12.25 5.53125 11.7344 4.29688 10.7031 3.29688ZM5.92188 5.96875C6.23438 5.65625 6.59375 5.5 7 5.5C7.40625 5.5 7.75 5.65625 8.03125 5.96875C8.34375 6.25 8.5 6.59375 8.5 7C8.5 7.40625 8.34375 7.76562 8.03125 8.07812C7.75 8.35938 7.40625 8.5 7 8.5C6.59375 8.5 6.23438 8.35938 5.92188 8.07812C5.64062 7.76562 5.5 7.40625 5.5 7C5.5 6.59375 5.64062 6.25 5.92188 5.96875Z" fill="#FF4F00"/>
</svg>
