<svg width="22" height="16" viewBox="0 0 22 16" fill="none" xmlns="http://www.w3.org/2000/svg">
<path d="M2.75 0.5H3.5H18.5H19.25V1.25V10.6719L20.9375 12.4062C21.3125 12.7812 21.5 13.2188 21.5 13.7188C21.5 14.1875 21.3125 14.6094 20.9375 14.9844C20.5938 15.3281 20.1875 15.5 19.7188 15.5H2.28125C1.8125 15.5 1.39062 15.3281 1.01562 14.9844C0.671875 14.6094 0.5 14.1875 0.5 13.7188C0.5 13.2188 0.6875 12.7812 1.0625 12.4062L2.75 10.6719V1.25V0.5ZM4.25 2V10.25H17.75V2H4.25ZM3.82812 11.75L2.09375 13.4375C2.03125 13.5 2 13.5938 2 13.7188C2 13.9062 2.09375 14 2.28125 14H19.7188C19.9062 14 20 13.9062 20 13.7188C20 13.5938 19.9688 13.5 19.9062 13.4375L18.1719 11.75H3.82812Z" fill="#FF4F00"/>
</svg>
