<svg width="291" height="340" viewBox="0 0 291 340" fill="none" xmlns="http://www.w3.org/2000/svg">
<g clip-path="url(#clip0_672_9096)">
<path d="M261.641 108.47C242.721 89.56 219.621 79.97 192.971 79.97C172.071 79.97 153.311 85.9 137.161 97.61L160.321 10.44H284.071V0H152.701L122.071 113.71L130.611 115.94L132.451 115.98V114.95C149.131 98.65 169.481 90.39 192.961 90.39C216.441 90.39 237.461 98.93 254.311 115.78C271.161 132.63 279.701 153.28 279.701 177.13C279.701 200.98 271.161 221.63 254.311 238.48C237.461 255.33 216.821 263.87 192.961 263.87C169.101 263.87 148.511 255.28 131.741 238.29C128.401 235.16 125.441 231.78 122.951 228.24L122.231 227.22L113.881 233.49L114.581 234.46C117.381 238.34 120.651 242.16 124.301 245.8C143.211 264.71 166.311 274.3 192.971 274.3C219.631 274.3 242.731 264.71 261.641 245.8C280.551 226.89 290.141 203.78 290.141 177.13C290.141 150.48 280.551 127.38 261.641 108.46V108.47Z" fill="#E8A839"/>
<path d="M103.22 163.15V14.9297H94.86V163.15H9.36L63.43 14.9297H54.67L0.6 163.15H0V171.51H94.86V213.01H103.22V171.51H138.8V163.15H103.22Z" fill="#E8A839"/>
<path d="M146.911 332.72H121.801L119.161 338.41H115.381L132.891 300.88H135.801L153.361 338.41H149.541L146.901 332.72H146.911ZM145.321 329.31L134.361 305.88L123.401 329.31H145.331H145.321Z" fill="#E8A839"/>
<path d="M158.281 300.87H160.831L184.441 331.67V300.87H187.851V338.4H185.261L161.691 307.65V338.4H158.281V300.87ZM181.621 292V295.5C180.041 296.08 178.561 296.36 177.161 296.36C175.851 296.36 174.531 296.13 173.181 295.68C171.831 295.23 170.461 295 169.061 295C167.791 295 166.291 295.32 164.561 295.96V292.46C166.141 291.88 167.641 291.59 169.061 291.59C170.481 291.59 171.971 291.82 173.341 292.27C174.711 292.72 175.981 292.95 177.161 292.95C178.401 292.95 179.891 292.63 181.621 291.99V292Z" fill="#E8A839"/>
<path d="M234.482 319.62C234.482 325.14 232.542 329.84 228.662 333.72C224.782 337.6 220.092 339.54 214.602 339.54C209.112 339.54 204.382 337.6 200.502 333.72C196.622 329.84 194.682 325.14 194.682 319.62C194.682 314.1 196.622 309.44 200.502 305.56C204.382 301.68 209.082 299.74 214.602 299.74C220.122 299.74 224.782 301.68 228.662 305.56C232.542 309.44 234.482 314.13 234.482 319.62ZM214.602 303.15C210.022 303.15 206.122 304.76 202.912 307.97C199.692 311.19 198.092 315.07 198.092 319.62C198.092 324.17 199.702 328.1 202.912 331.31C206.122 334.53 210.022 336.13 214.602 336.13C219.182 336.13 223.032 334.52 226.252 331.31C229.472 328.1 231.072 324.2 231.072 319.62C231.072 315.04 229.462 311.19 226.252 307.97C223.032 304.75 219.152 303.15 214.602 303.15Z" fill="#E8A839"/>
<path d="M262.411 307.239C261.411 306.119 260.031 305.159 258.271 304.349C256.511 303.549 254.651 303.149 252.671 303.149C249.971 303.149 247.821 303.819 246.211 305.149C244.601 306.489 243.801 308.049 243.801 309.839C243.801 311.479 244.381 312.889 245.551 314.089C246.721 315.289 248.181 316.179 249.941 316.749L259.311 319.339C261.551 320.009 263.391 321.179 264.811 322.839C266.241 324.509 266.951 326.599 266.951 329.119C266.951 331.939 265.751 334.379 263.361 336.439C260.961 338.499 257.691 339.529 253.531 339.529C250.161 339.529 247.211 338.779 244.681 337.279C242.151 335.779 240.181 333.859 238.791 331.519L241.751 329.659C243.021 331.719 244.741 333.309 246.911 334.439C249.081 335.559 251.251 336.119 253.441 336.119C256.781 336.119 259.291 335.389 260.971 333.939C262.651 332.479 263.501 330.829 263.501 328.979C263.501 327.429 263.011 326.079 262.021 324.909C261.041 323.739 259.661 322.929 257.901 322.479L249.121 319.979C246.571 319.159 244.481 317.869 242.841 316.109C241.201 314.349 240.381 312.239 240.381 309.789C240.381 307.059 241.501 304.699 243.751 302.709C245.991 300.719 248.971 299.729 252.671 299.729C255.491 299.729 257.991 300.269 260.181 301.349C262.361 302.429 264.141 303.739 265.501 305.289L262.411 307.249V307.239Z" fill="#E8A839"/>
<path d="M261.641 108.47C242.721 89.56 219.621 79.97 192.971 79.97C172.071 79.97 153.311 85.9 137.161 97.61L160.321 10.44H284.071V0H152.701L122.071 113.71L130.611 115.94L132.451 115.98V114.95C149.131 98.65 169.481 90.39 192.961 90.39C216.441 90.39 237.461 98.93 254.311 115.78C271.161 132.63 279.701 153.28 279.701 177.13C279.701 200.98 271.161 221.63 254.311 238.48C237.461 255.33 216.821 263.87 192.961 263.87C169.101 263.87 148.511 255.28 131.741 238.29C128.401 235.16 125.441 231.78 122.951 228.24L122.231 227.22L113.881 233.49L114.581 234.46C117.381 238.34 120.651 242.16 124.301 245.8C143.211 264.71 166.311 274.3 192.971 274.3C219.631 274.3 242.731 264.71 261.641 245.8C280.551 226.89 290.141 203.78 290.141 177.13C290.141 150.48 280.551 127.38 261.641 108.46V108.47Z" fill="url(#paint0_linear_672_9096)"/>
<path d="M103.22 163.15V14.9297H94.86V163.15H9.36L63.43 14.9297H54.67L0.6 163.15H0V171.51H94.86V213.01H103.22V171.51H138.8V163.15H103.22Z" fill="url(#paint1_linear_672_9096)"/>
<path d="M146.911 332.72H121.801L119.161 338.41H115.381L132.891 300.88H135.801L153.361 338.41H149.541L146.901 332.72H146.911ZM145.321 329.31L134.361 305.88L123.401 329.31H145.331H145.321Z" fill="url(#paint2_linear_672_9096)"/>
<path d="M158.281 300.87H160.831L184.441 331.67V300.87H187.851V338.4H185.261L161.691 307.65V338.4H158.281V300.87ZM181.621 292V295.5C180.041 296.08 178.561 296.36 177.161 296.36C175.851 296.36 174.531 296.13 173.181 295.68C171.831 295.23 170.461 295 169.061 295C167.791 295 166.291 295.32 164.561 295.96V292.46C166.141 291.88 167.641 291.59 169.061 291.59C170.481 291.59 171.971 291.82 173.341 292.27C174.711 292.72 175.981 292.95 177.161 292.95C178.401 292.95 179.891 292.63 181.621 291.99V292Z" fill="url(#paint3_linear_672_9096)"/>
<path d="M234.482 319.62C234.482 325.14 232.542 329.84 228.662 333.72C224.782 337.6 220.092 339.54 214.602 339.54C209.112 339.54 204.382 337.6 200.502 333.72C196.622 329.84 194.682 325.14 194.682 319.62C194.682 314.1 196.622 309.44 200.502 305.56C204.382 301.68 209.082 299.74 214.602 299.74C220.122 299.74 224.782 301.68 228.662 305.56C232.542 309.44 234.482 314.13 234.482 319.62ZM214.602 303.15C210.022 303.15 206.122 304.76 202.912 307.97C199.692 311.19 198.092 315.07 198.092 319.62C198.092 324.17 199.702 328.1 202.912 331.31C206.122 334.53 210.022 336.13 214.602 336.13C219.182 336.13 223.032 334.52 226.252 331.31C229.472 328.1 231.072 324.2 231.072 319.62C231.072 315.04 229.462 311.19 226.252 307.97C223.032 304.75 219.152 303.15 214.602 303.15Z" fill="url(#paint4_linear_672_9096)"/>
<path d="M262.411 307.239C261.411 306.119 260.031 305.159 258.271 304.349C256.511 303.549 254.651 303.149 252.671 303.149C249.971 303.149 247.821 303.819 246.211 305.149C244.601 306.489 243.801 308.049 243.801 309.839C243.801 311.479 244.381 312.889 245.551 314.089C246.721 315.289 248.181 316.179 249.941 316.749L259.311 319.339C261.551 320.009 263.391 321.179 264.811 322.839C266.241 324.509 266.951 326.599 266.951 329.119C266.951 331.939 265.751 334.379 263.361 336.439C260.961 338.499 257.691 339.529 253.531 339.529C250.161 339.529 247.211 338.779 244.681 337.279C242.151 335.779 240.181 333.859 238.791 331.519L241.751 329.659C243.021 331.719 244.741 333.309 246.911 334.439C249.081 335.559 251.251 336.119 253.441 336.119C256.781 336.119 259.291 335.389 260.971 333.939C262.651 332.479 263.501 330.829 263.501 328.979C263.501 327.429 263.011 326.079 262.021 324.909C261.041 323.739 259.661 322.929 257.901 322.479L249.121 319.979C246.571 319.159 244.481 317.869 242.841 316.109C241.201 314.349 240.381 312.239 240.381 309.789C240.381 307.059 241.501 304.699 243.751 302.709C245.991 300.719 248.971 299.729 252.671 299.729C255.491 299.729 257.991 300.269 260.181 301.349C262.361 302.429 264.141 303.739 265.501 305.289L262.411 307.249V307.239Z" fill="url(#paint5_linear_672_9096)"/>
</g>
<defs>
<linearGradient id="paint0_linear_672_9096" x1="0.00085794" y1="169.77" x2="290.141" y2="169.77" gradientUnits="userSpaceOnUse">
<stop stop-color="#BE6D22"/>
<stop offset="0.05" stop-color="#D08F3E"/>
<stop offset="0.11" stop-color="#E4B55F"/>
<stop offset="0.16" stop-color="#F2D176"/>
<stop offset="0.21" stop-color="#FBE284"/>
<stop offset="0.25" stop-color="#FFE88A"/>
<stop offset="0.32" stop-color="#FCE184"/>
<stop offset="0.41" stop-color="#F6D073"/>
<stop offset="0.51" stop-color="#ECB358"/>
<stop offset="0.55" stop-color="#E8A64B"/>
<stop offset="0.75" stop-color="#7D431C"/>
<stop offset="0.8" stop-color="#80461D"/>
<stop offset="0.85" stop-color="#8B5123"/>
<stop offset="0.89" stop-color="#9D642C"/>
<stop offset="0.94" stop-color="#B77F3A"/>
<stop offset="0.98" stop-color="#D8A04A"/>
<stop offset="1" stop-color="#EAB354"/>
</linearGradient>
<linearGradient id="paint1_linear_672_9096" x1="0" y1="169.77" x2="290.14" y2="169.77" gradientUnits="userSpaceOnUse">
<stop stop-color="#BE6D22"/>
<stop offset="0.05" stop-color="#D08F3E"/>
<stop offset="0.11" stop-color="#E4B55F"/>
<stop offset="0.16" stop-color="#F2D176"/>
<stop offset="0.21" stop-color="#FBE284"/>
<stop offset="0.25" stop-color="#FFE88A"/>
<stop offset="0.32" stop-color="#FCE184"/>
<stop offset="0.41" stop-color="#F6D073"/>
<stop offset="0.51" stop-color="#ECB358"/>
<stop offset="0.55" stop-color="#E8A64B"/>
<stop offset="0.75" stop-color="#7D431C"/>
<stop offset="0.8" stop-color="#80461D"/>
<stop offset="0.85" stop-color="#8B5123"/>
<stop offset="0.89" stop-color="#9D642C"/>
<stop offset="0.94" stop-color="#B77F3A"/>
<stop offset="0.98" stop-color="#D8A04A"/>
<stop offset="1" stop-color="#EAB354"/>
</linearGradient>
<linearGradient id="paint2_linear_672_9096" x1="0.000846677" y1="169.77" x2="290.141" y2="169.77" gradientUnits="userSpaceOnUse">
<stop stop-color="#BE6D22"/>
<stop offset="0.05" stop-color="#D08F3E"/>
<stop offset="0.11" stop-color="#E4B55F"/>
<stop offset="0.16" stop-color="#F2D176"/>
<stop offset="0.21" stop-color="#FBE284"/>
<stop offset="0.25" stop-color="#FFE88A"/>
<stop offset="0.32" stop-color="#FCE184"/>
<stop offset="0.41" stop-color="#F6D073"/>
<stop offset="0.51" stop-color="#ECB358"/>
<stop offset="0.55" stop-color="#E8A64B"/>
<stop offset="0.75" stop-color="#7D431C"/>
<stop offset="0.8" stop-color="#80461D"/>
<stop offset="0.85" stop-color="#8B5123"/>
<stop offset="0.89" stop-color="#9D642C"/>
<stop offset="0.94" stop-color="#B77F3A"/>
<stop offset="0.98" stop-color="#D8A04A"/>
<stop offset="1" stop-color="#EAB354"/>
</linearGradient>
<linearGradient id="paint3_linear_672_9096" x1="0.00121212" y1="169.77" x2="290.141" y2="169.77" gradientUnits="userSpaceOnUse">
<stop stop-color="#BE6D22"/>
<stop offset="0.05" stop-color="#D08F3E"/>
<stop offset="0.11" stop-color="#E4B55F"/>
<stop offset="0.16" stop-color="#F2D176"/>
<stop offset="0.21" stop-color="#FBE284"/>
<stop offset="0.25" stop-color="#FFE88A"/>
<stop offset="0.32" stop-color="#FCE184"/>
<stop offset="0.41" stop-color="#F6D073"/>
<stop offset="0.51" stop-color="#ECB358"/>
<stop offset="0.55" stop-color="#E8A64B"/>
<stop offset="0.75" stop-color="#7D431C"/>
<stop offset="0.8" stop-color="#80461D"/>
<stop offset="0.85" stop-color="#8B5123"/>
<stop offset="0.89" stop-color="#9D642C"/>
<stop offset="0.94" stop-color="#B77F3A"/>
<stop offset="0.98" stop-color="#D8A04A"/>
<stop offset="1" stop-color="#EAB354"/>
</linearGradient>
<linearGradient id="paint4_linear_672_9096" x1="0.00162875" y1="169.77" x2="290.142" y2="169.77" gradientUnits="userSpaceOnUse">
<stop stop-color="#BE6D22"/>
<stop offset="0.05" stop-color="#D08F3E"/>
<stop offset="0.11" stop-color="#E4B55F"/>
<stop offset="0.16" stop-color="#F2D176"/>
<stop offset="0.21" stop-color="#FBE284"/>
<stop offset="0.25" stop-color="#FFE88A"/>
<stop offset="0.32" stop-color="#FCE184"/>
<stop offset="0.41" stop-color="#F6D073"/>
<stop offset="0.51" stop-color="#ECB358"/>
<stop offset="0.55" stop-color="#E8A64B"/>
<stop offset="0.75" stop-color="#7D431C"/>
<stop offset="0.8" stop-color="#80461D"/>
<stop offset="0.85" stop-color="#8B5123"/>
<stop offset="0.89" stop-color="#9D642C"/>
<stop offset="0.94" stop-color="#B77F3A"/>
<stop offset="0.98" stop-color="#D8A04A"/>
<stop offset="1" stop-color="#EAB354"/>
</linearGradient>
<linearGradient id="paint5_linear_672_9096" x1="0.000849872" y1="169.77" x2="290.141" y2="169.77" gradientUnits="userSpaceOnUse">
<stop stop-color="#BE6D22"/>
<stop offset="0.05" stop-color="#D08F3E"/>
<stop offset="0.11" stop-color="#E4B55F"/>
<stop offset="0.16" stop-color="#F2D176"/>
<stop offset="0.21" stop-color="#FBE284"/>
<stop offset="0.25" stop-color="#FFE88A"/>
<stop offset="0.32" stop-color="#FCE184"/>
<stop offset="0.41" stop-color="#F6D073"/>
<stop offset="0.51" stop-color="#ECB358"/>
<stop offset="0.55" stop-color="#E8A64B"/>
<stop offset="0.75" stop-color="#7D431C"/>
<stop offset="0.8" stop-color="#80461D"/>
<stop offset="0.85" stop-color="#8B5123"/>
<stop offset="0.89" stop-color="#9D642C"/>
<stop offset="0.94" stop-color="#B77F3A"/>
<stop offset="0.98" stop-color="#D8A04A"/>
<stop offset="1" stop-color="#EAB354"/>
</linearGradient>
<clipPath id="clip0_672_9096">
<rect width="290.14" height="339.54" fill="white"/>
</clipPath>
</defs>
</svg>
