<svg width="158" height="184" viewBox="0 0 158 184" fill="none" xmlns="http://www.w3.org/2000/svg">
<g clip-path="url(#clip0_672_9076)">
<path d="M142.481 58.7809C132.177 48.5334 119.598 43.3365 105.085 43.3365C93.7038 43.3365 83.4878 46.55 74.6931 52.8958L87.3052 5.65754H154.695V0H83.1556L66.4756 61.6205L71.1262 62.829L72.1282 62.8507V62.2925C81.2115 53.4594 92.2934 48.9832 105.08 48.9832C117.866 48.9832 129.313 53.6111 138.489 62.7423C147.665 71.8735 152.315 83.0639 152.315 95.9885C152.315 108.913 147.665 120.103 138.489 129.235C129.313 138.366 118.073 142.994 105.08 142.994C92.0865 142.994 80.8739 138.339 71.7416 129.132C69.9227 127.435 68.3108 125.604 66.9548 123.685L66.5627 123.133L62.0156 126.53L62.3968 127.056C63.9216 129.159 65.7023 131.229 67.69 133.201C77.9877 143.449 90.5672 148.646 105.085 148.646C119.603 148.646 132.183 143.449 142.481 133.201C152.778 122.954 158.001 110.43 158.001 95.9885C158.001 81.5466 152.778 69.0284 142.481 58.7755V58.7809Z" fill="#E8A839"/>
<path d="M56.21 88.4127V8.09082H51.6574V88.4127H5.09713L34.5417 8.09082H29.7713L0.326739 88.4127H0V92.943H51.6574V115.432H56.21V92.943H75.5856V88.4127H56.21Z" fill="#E8A839"/>
<path d="M80.0022 180.304H66.3281L64.8905 183.388H62.832L72.3674 163.05H73.952L83.5146 183.388H81.4344L79.9967 180.304H80.0022ZM79.1363 178.456L73.1679 165.759L67.1994 178.456H79.1417H79.1363Z" fill="#E8A839"/>
<path d="M86.1934 163.045H87.582L100.439 179.735V163.045H102.296V183.382H100.886L88.0503 166.719V183.382H86.1934V163.045ZM98.9035 158.238V160.134C98.0431 160.449 97.2371 160.601 96.4747 160.601C95.7614 160.601 95.0425 160.476 94.3074 160.232C93.5722 159.988 92.8262 159.864 92.0638 159.864C91.3722 159.864 90.5553 160.037 89.6132 160.384V158.487C90.4736 158.173 91.2905 158.016 92.0638 158.016C92.837 158.016 93.6484 158.14 94.3945 158.384C95.1406 158.628 95.8322 158.753 96.4747 158.753C97.15 158.753 97.9614 158.579 98.9035 158.232V158.238Z" fill="#E8A839"/>
<path d="M127.689 173.206C127.689 176.197 126.633 178.744 124.52 180.847C122.407 182.949 119.853 184.001 116.863 184.001C113.874 184.001 111.298 182.949 109.185 180.847C107.072 178.744 106.016 176.197 106.016 173.206C106.016 170.214 107.072 167.689 109.185 165.587C111.298 163.484 113.857 162.433 116.863 162.433C119.869 162.433 122.407 163.484 124.52 165.587C126.633 167.689 127.689 170.231 127.689 173.206ZM116.863 164.281C114.369 164.281 112.245 165.153 110.497 166.893C108.744 168.637 107.873 170.74 107.873 173.206C107.873 175.671 108.749 177.801 110.497 179.541C112.245 181.286 114.369 182.153 116.863 182.153C119.357 182.153 121.454 181.28 123.208 179.541C124.961 177.801 125.832 175.688 125.832 173.206C125.832 170.724 124.956 168.637 123.208 166.893C121.454 165.148 119.341 164.281 116.863 164.281Z" fill="#E8A839"/>
<path d="M142.9 166.496C142.355 165.89 141.604 165.369 140.645 164.93C139.687 164.497 138.674 164.28 137.596 164.28C136.125 164.28 134.955 164.643 134.078 165.364C133.201 166.09 132.765 166.935 132.765 167.905C132.765 168.794 133.081 169.558 133.718 170.209C134.356 170.859 135.151 171.341 136.109 171.65L141.212 173.054C142.431 173.417 143.433 174.051 144.207 174.95C144.985 175.855 145.372 176.988 145.372 178.353C145.372 179.882 144.719 181.204 143.417 182.32C142.11 183.437 140.329 183.995 138.064 183.995C136.229 183.995 134.622 183.588 133.245 182.775C131.867 181.963 130.794 180.922 130.037 179.654L131.649 178.646C132.341 179.762 133.277 180.624 134.459 181.236C135.641 181.843 136.822 182.147 138.015 182.147C139.834 182.147 141.201 181.751 142.116 180.965C143.03 180.174 143.493 179.28 143.493 178.278C143.493 177.438 143.226 176.706 142.687 176.072C142.154 175.438 141.402 174.999 140.444 174.755L135.662 173.4C134.274 172.956 133.136 172.257 132.243 171.303C131.35 170.349 130.903 169.206 130.903 167.878C130.903 166.399 131.513 165.12 132.738 164.042C133.958 162.963 135.581 162.427 137.596 162.427C139.131 162.427 140.493 162.719 141.685 163.305C142.872 163.89 143.842 164.6 144.582 165.44L142.9 166.502V166.496Z" fill="#E8A839"/>
<path d="M142.481 58.7809C132.177 48.5334 119.598 43.3365 105.085 43.3365C93.7038 43.3365 83.4878 46.55 74.6931 52.8958L87.3052 5.65754H154.695V0H83.1556L66.4756 61.6205L71.1262 62.829L72.1282 62.8507V62.2925C81.2115 53.4594 92.2934 48.9832 105.08 48.9832C117.866 48.9832 129.313 53.6111 138.489 62.7423C147.665 71.8735 152.315 83.0639 152.315 95.9885C152.315 108.913 147.665 120.103 138.489 129.235C129.313 138.366 118.073 142.994 105.08 142.994C92.0865 142.994 80.8739 138.339 71.7416 129.132C69.9227 127.435 68.3108 125.604 66.9548 123.685L66.5627 123.133L62.0156 126.53L62.3968 127.056C63.9216 129.159 65.7023 131.229 67.69 133.201C77.9877 143.449 90.5672 148.646 105.085 148.646C119.603 148.646 132.183 143.449 142.481 133.201C152.778 122.954 158.001 110.43 158.001 95.9885C158.001 81.5466 152.778 69.0284 142.481 58.7755V58.7809Z" fill="url(#paint0_linear_672_9076)"/>
<path d="M56.21 88.4127V8.09082H51.6574V88.4127H5.09713L34.5417 8.09082H29.7713L0.326739 88.4127H0V92.943H51.6574V115.432H56.21V92.943H75.5856V88.4127H56.21Z" fill="url(#paint1_linear_672_9076)"/>
<path d="M80.0022 180.304H66.3281L64.8905 183.388H62.832L72.3674 163.05H73.952L83.5146 183.388H81.4344L79.9967 180.304H80.0022ZM79.1363 178.456L73.1679 165.759L67.1994 178.456H79.1417H79.1363Z" fill="url(#paint2_linear_672_9076)"/>
<path d="M86.1934 163.045H87.582L100.439 179.735V163.045H102.296V183.382H100.886L88.0503 166.719V183.382H86.1934V163.045ZM98.9035 158.238V160.134C98.0431 160.449 97.2371 160.601 96.4747 160.601C95.7614 160.601 95.0425 160.476 94.3074 160.232C93.5722 159.988 92.8262 159.864 92.0638 159.864C91.3722 159.864 90.5553 160.037 89.6132 160.384V158.487C90.4736 158.173 91.2905 158.016 92.0638 158.016C92.837 158.016 93.6484 158.14 94.3945 158.384C95.1406 158.628 95.8322 158.753 96.4747 158.753C97.15 158.753 97.9614 158.579 98.9035 158.232V158.238Z" fill="url(#paint3_linear_672_9076)"/>
<path d="M127.689 173.206C127.689 176.197 126.633 178.744 124.52 180.847C122.407 182.949 119.853 184.001 116.863 184.001C113.874 184.001 111.298 182.949 109.185 180.847C107.072 178.744 106.016 176.197 106.016 173.206C106.016 170.214 107.072 167.689 109.185 165.587C111.298 163.484 113.857 162.433 116.863 162.433C119.869 162.433 122.407 163.484 124.52 165.587C126.633 167.689 127.689 170.231 127.689 173.206ZM116.863 164.281C114.369 164.281 112.245 165.153 110.497 166.893C108.744 168.637 107.873 170.74 107.873 173.206C107.873 175.671 108.749 177.801 110.497 179.541C112.245 181.286 114.369 182.153 116.863 182.153C119.357 182.153 121.454 181.28 123.208 179.541C124.961 177.801 125.832 175.688 125.832 173.206C125.832 170.724 124.956 168.637 123.208 166.893C121.454 165.148 119.341 164.281 116.863 164.281Z" fill="url(#paint4_linear_672_9076)"/>
<path d="M142.9 166.496C142.355 165.89 141.604 165.369 140.645 164.93C139.687 164.497 138.674 164.28 137.596 164.28C136.125 164.28 134.955 164.643 134.078 165.364C133.201 166.09 132.765 166.935 132.765 167.905C132.765 168.794 133.081 169.558 133.718 170.209C134.356 170.859 135.151 171.341 136.109 171.65L141.212 173.054C142.431 173.417 143.433 174.051 144.207 174.95C144.985 175.855 145.372 176.988 145.372 178.353C145.372 179.882 144.719 181.204 143.417 182.32C142.11 183.437 140.329 183.995 138.064 183.995C136.229 183.995 134.622 183.588 133.245 182.775C131.867 181.963 130.794 180.922 130.037 179.654L131.649 178.646C132.341 179.762 133.277 180.624 134.459 181.236C135.641 181.843 136.822 182.147 138.015 182.147C139.834 182.147 141.201 181.751 142.116 180.965C143.03 180.174 143.493 179.28 143.493 178.278C143.493 177.438 143.226 176.706 142.687 176.072C142.154 175.438 141.402 174.999 140.444 174.755L135.662 173.4C134.274 172.956 133.136 172.257 132.243 171.303C131.35 170.349 130.903 169.206 130.903 167.878C130.903 166.399 131.513 165.12 132.738 164.042C133.958 162.963 135.581 162.427 137.596 162.427C139.131 162.427 140.493 162.719 141.685 163.305C142.872 163.89 143.842 164.6 144.582 165.44L142.9 166.502V166.496Z" fill="url(#paint5_linear_672_9076)"/>
</g>
<defs>
<linearGradient id="paint0_linear_672_9076" x1="0.000597228" y1="92" x2="158.001" y2="92" gradientUnits="userSpaceOnUse">
<stop stop-color="#BE6D22"/>
<stop offset="0.05" stop-color="#D08F3E"/>
<stop offset="0.11" stop-color="#E4B55F"/>
<stop offset="0.16" stop-color="#F2D176"/>
<stop offset="0.21" stop-color="#FBE284"/>
<stop offset="0.25" stop-color="#FFE88A"/>
<stop offset="0.32" stop-color="#FCE184"/>
<stop offset="0.41" stop-color="#F6D073"/>
<stop offset="0.51" stop-color="#ECB358"/>
<stop offset="0.55" stop-color="#E8A64B"/>
<stop offset="0.75" stop-color="#7D431C"/>
<stop offset="0.8" stop-color="#80461D"/>
<stop offset="0.85" stop-color="#8B5123"/>
<stop offset="0.89" stop-color="#9D642C"/>
<stop offset="0.94" stop-color="#B77F3A"/>
<stop offset="0.98" stop-color="#D8A04A"/>
<stop offset="1" stop-color="#EAB354"/>
</linearGradient>
<linearGradient id="paint1_linear_672_9076" x1="0" y1="92.0001" x2="158" y2="92.0001" gradientUnits="userSpaceOnUse">
<stop stop-color="#BE6D22"/>
<stop offset="0.05" stop-color="#D08F3E"/>
<stop offset="0.11" stop-color="#E4B55F"/>
<stop offset="0.16" stop-color="#F2D176"/>
<stop offset="0.21" stop-color="#FBE284"/>
<stop offset="0.25" stop-color="#FFE88A"/>
<stop offset="0.32" stop-color="#FCE184"/>
<stop offset="0.41" stop-color="#F6D073"/>
<stop offset="0.51" stop-color="#ECB358"/>
<stop offset="0.55" stop-color="#E8A64B"/>
<stop offset="0.75" stop-color="#7D431C"/>
<stop offset="0.8" stop-color="#80461D"/>
<stop offset="0.85" stop-color="#8B5123"/>
<stop offset="0.89" stop-color="#9D642C"/>
<stop offset="0.94" stop-color="#B77F3A"/>
<stop offset="0.98" stop-color="#D8A04A"/>
<stop offset="1" stop-color="#EAB354"/>
</linearGradient>
<linearGradient id="paint2_linear_672_9076" x1="0.00015392" y1="92" x2="158" y2="92" gradientUnits="userSpaceOnUse">
<stop stop-color="#BE6D22"/>
<stop offset="0.05" stop-color="#D08F3E"/>
<stop offset="0.11" stop-color="#E4B55F"/>
<stop offset="0.16" stop-color="#F2D176"/>
<stop offset="0.21" stop-color="#FBE284"/>
<stop offset="0.25" stop-color="#FFE88A"/>
<stop offset="0.32" stop-color="#FCE184"/>
<stop offset="0.41" stop-color="#F6D073"/>
<stop offset="0.51" stop-color="#ECB358"/>
<stop offset="0.55" stop-color="#E8A64B"/>
<stop offset="0.75" stop-color="#7D431C"/>
<stop offset="0.8" stop-color="#80461D"/>
<stop offset="0.85" stop-color="#8B5123"/>
<stop offset="0.89" stop-color="#9D642C"/>
<stop offset="0.94" stop-color="#B77F3A"/>
<stop offset="0.98" stop-color="#D8A04A"/>
<stop offset="1" stop-color="#EAB354"/>
</linearGradient>
<linearGradient id="paint3_linear_672_9076" x1="-0.000357304" y1="92.0002" x2="158" y2="92.0002" gradientUnits="userSpaceOnUse">
<stop stop-color="#BE6D22"/>
<stop offset="0.05" stop-color="#D08F3E"/>
<stop offset="0.11" stop-color="#E4B55F"/>
<stop offset="0.16" stop-color="#F2D176"/>
<stop offset="0.21" stop-color="#FBE284"/>
<stop offset="0.25" stop-color="#FFE88A"/>
<stop offset="0.32" stop-color="#FCE184"/>
<stop offset="0.41" stop-color="#F6D073"/>
<stop offset="0.51" stop-color="#ECB358"/>
<stop offset="0.55" stop-color="#E8A64B"/>
<stop offset="0.75" stop-color="#7D431C"/>
<stop offset="0.8" stop-color="#80461D"/>
<stop offset="0.85" stop-color="#8B5123"/>
<stop offset="0.89" stop-color="#9D642C"/>
<stop offset="0.94" stop-color="#B77F3A"/>
<stop offset="0.98" stop-color="#D8A04A"/>
<stop offset="1" stop-color="#EAB354"/>
</linearGradient>
<linearGradient id="paint4_linear_672_9076" x1="-0.000231466" y1="92.0006" x2="158" y2="92.0006" gradientUnits="userSpaceOnUse">
<stop stop-color="#BE6D22"/>
<stop offset="0.05" stop-color="#D08F3E"/>
<stop offset="0.11" stop-color="#E4B55F"/>
<stop offset="0.16" stop-color="#F2D176"/>
<stop offset="0.21" stop-color="#FBE284"/>
<stop offset="0.25" stop-color="#FFE88A"/>
<stop offset="0.32" stop-color="#FCE184"/>
<stop offset="0.41" stop-color="#F6D073"/>
<stop offset="0.51" stop-color="#ECB358"/>
<stop offset="0.55" stop-color="#E8A64B"/>
<stop offset="0.75" stop-color="#7D431C"/>
<stop offset="0.8" stop-color="#80461D"/>
<stop offset="0.85" stop-color="#8B5123"/>
<stop offset="0.89" stop-color="#9D642C"/>
<stop offset="0.94" stop-color="#B77F3A"/>
<stop offset="0.98" stop-color="#D8A04A"/>
<stop offset="1" stop-color="#EAB354"/>
</linearGradient>
<linearGradient id="paint5_linear_672_9076" x1="0.000421648" y1="92.0002" x2="158.001" y2="92.0002" gradientUnits="userSpaceOnUse">
<stop stop-color="#BE6D22"/>
<stop offset="0.05" stop-color="#D08F3E"/>
<stop offset="0.11" stop-color="#E4B55F"/>
<stop offset="0.16" stop-color="#F2D176"/>
<stop offset="0.21" stop-color="#FBE284"/>
<stop offset="0.25" stop-color="#FFE88A"/>
<stop offset="0.32" stop-color="#FCE184"/>
<stop offset="0.41" stop-color="#F6D073"/>
<stop offset="0.51" stop-color="#ECB358"/>
<stop offset="0.55" stop-color="#E8A64B"/>
<stop offset="0.75" stop-color="#7D431C"/>
<stop offset="0.8" stop-color="#80461D"/>
<stop offset="0.85" stop-color="#8B5123"/>
<stop offset="0.89" stop-color="#9D642C"/>
<stop offset="0.94" stop-color="#B77F3A"/>
<stop offset="0.98" stop-color="#D8A04A"/>
<stop offset="1" stop-color="#EAB354"/>
</linearGradient>
<clipPath id="clip0_672_9076">
<rect width="158" height="184" fill="white"/>
</clipPath>
</defs>
</svg>
