<?xml version="1.0" encoding="utf-8"?>
<!-- Generator: Adobe Illustrator 22.0.1, SVG Export Plug-In . SVG Version: 6.00 Build 0)  -->
<svg version="1.1" id="Capa_1" xmlns="http://www.w3.org/2000/svg" xmlns:xlink="http://www.w3.org/1999/xlink" x="0px" y="0px"
	 viewBox="0 0 2000 2000" style="enable-background:new 0 0 2000 2000;" xml:space="preserve">
<style type="text/css">
	.st0{fill:#FE344C;}
</style>
<path class="st0" d="M1000.5,427.9c4.8-8.5,8.6-14.8,12.1-21.3c62.1-112.9,153.7-191.2,276.2-231.7c60.5-20,123.3-24.8,186.8-19.5
	c54.1,4.5,106.3,16.6,156,38.8c66.2,29.6,122.4,72.6,169.4,127.7c59.7,70,96.7,151,109.4,241.7c5.3,38,3.1,77.2,2.3,115.8
	c-1.4,69.3-18.9,135.3-45.5,199c-25.8,61.6-60.3,118.2-100.6,171.5c-40,52.8-86.7,99.3-134.5,144.6
	c-75.8,71.7-153.1,141.7-229.6,212.5c-87.1,80.6-172.7,162.8-253.1,250.1c-51.7,56.1-98.1,116.6-140.8,179.9c-1.6,2.4-3.2,4.7-5,7
	c-0.7,0.9-1.7,1.4-3.4,2.8c-5.5-6.8-11.1-13.2-16-20.1c-94.6-131.8-208-246.3-327.1-355.5c-94.8-86.9-190.8-172.6-285-260.2
	c-54.8-50.9-106.8-104.7-150.9-165.6C162.1,963.7,118.8,875,98.6,776C87,719,84.8,661.2,86.7,603.2c2.7-79.8,26.5-153.4,68.6-220.5
	c70.7-112.5,171.5-185.2,300.3-218c21.7-5.5,44.6-7.6,67.1-8.1c37.5-0.8,75.1,0,112.5,2c34,1.8,66.4,12.4,98,24.5
	c67,25.7,125.8,64.4,176,115.7c32.2,33,58.7,70.3,80.3,111.1C992.4,415.4,996,420.5,1000.5,427.9z"/>
</svg>
