<?xml version="1.0" encoding="utf-8"?>
<!-- Generator: Adobe Illustrator 22.0.1, SVG Export Plug-In . SVG Version: 6.00 Build 0)  -->
<svg version="1.1" id="Capa_1" xmlns="http://www.w3.org/2000/svg" xmlns:xlink="http://www.w3.org/1999/xlink" x="0px" y="0px"
	 viewBox="0 0 200 200" style="enable-background:new 0 0 200 200;" xml:space="preserve">
<style type="text/css">
	.st0{fill:#FE344C;}
</style>
<g>
	<g>
		<path class="st0" d="M151.1,38.4c-5.7-3.2-12.3-5-19.3-5c-12.4,0-23.4,5.6-30.8,14.5c-7.4-8.9-18.4-14.5-30.8-14.5
			c-7,0-13.5,1.8-19.3,5c-12.3,6.8-20.7,19.9-20.7,35c0,4.3,0.7,8.4,2,12.3c6.9,30.9,68.8,69.7,68.8,69.7s61.9-38.9,68.8-69.7
			c1.3-3.9,2-8,2-12.3C171.8,58.4,163.5,45.3,151.1,38.4L151.1,38.4z M151.1,38.4"/>
	</g>
</g>
</svg>
