<svg id="Capa_1" data-name="Capa 1" xmlns="http://www.w3.org/2000/svg" viewBox="0 0 116.94 40.9">
    <title>logo-trilce-academia</title>

    <path d="M53.38,11.51a3.73,3.73,0,1,0-3.73-3.73,3.73,3.73,0,0,0,3.73,3.73" transform="translate(-0.04 -1.02)" style="fill:#FF5000" />
    <path d="M68.23,33.35a1,1,0,0,1-1-1V1H61.18V33.74a4.74,4.74,0,0,0,4.74,4.73h4.6V33.35Z" transform="translate(-0.04 -1.02)" style="fill:#FF5000" />
    <polygon points="0 2.28 0 10.21 5.12 10.21 5.12 8.15 12.95 8.15 12.95 32.33 10.6 32.33 10.6 37.45 21.68 37.45 21.68 32.33 19.33 32.33 19.33 8.15 27.16 8.15 27.16 10.21 32.24 10.21 32.24 2.28 0 2.28" style="fill:#FF5000" />
    <polygon points="56.41 32.33 56.41 14.14 43.4 14.14 43.4 19.29 50.36 19.29 50.36 32.33 43.4 32.33 43.4 37.45 58.86 37.45 58.86 32.33 56.41 32.33" style="fill:#FF5000" />
    <polygon points="27.16 14.14 27.16 32.33 24.71 32.33 24.71 37.45 40.37 37.45 40.37 32.33 33.22 32.33 33.22 19.29 40.37 19.29 40.37 14.14 30.84 14.16 27.16 14.14" style="fill:#FF5000" />
    <path d="M100.28,24.46a4.82,4.82,0,0,1,.63-2.07,5.51,5.51,0,0,1,1.38-1.54,6.26,6.26,0,0,1,1.88-.94,7.25,7.25,0,0,1,2.21-.33,5,5,0,0,1,3.78,1.32,5,5,0,0,1,1.24,3.56Zm15.62-4.6a8.31,8.31,0,0,0-2.51-3A9.68,9.68,0,0,0,110,15.34a14.88,14.88,0,0,0-8.34.29,10.85,10.85,0,0,0-3.86,2.24,10.3,10.3,0,0,0-2.6,3.73,13.31,13.31,0,0,0-1,5.21,17.36,17.36,0,0,0,.11,2,13.16,13.16,0,0,0,.73,3.06,10.36,10.36,0,0,0,4.3,5c2,1.19,4.84,1.67,8.7,1.67s5.81-.16,5.81-.16v-5s-2.7,0-6,0c-4.88,0-6.53-3-6.87-3.81a6.48,6.48,0,0,1-.26-.78h16c.46-2.25.26-6.74-.85-8.9" transform="translate(-0.04 -1.02)" style="fill:#FF5000" />
    <path d="M92,24.57V17a.6.6,0,0,0-.35-.55,26.25,26.25,0,0,0-3-1,18.57,18.57,0,0,0-4.75-.58,15.38,15.38,0,0,0-5,.79,11.39,11.39,0,0,0-4,2.33,10.77,10.77,0,0,0-2.65,3.75,12.84,12.84,0,0,0-1,5.07A13.94,13.94,0,0,0,72,31.72a9.75,9.75,0,0,0,2.22,3.62c1.66,1.74,4.88,3,8.62,3.12h7.48V33.35H84.6a9.36,9.36,0,0,1-5.41-1.72,6.34,6.34,0,0,1-1.41-2.13,7,7,0,0,1-.49-2.67,6.91,6.91,0,0,1,.61-3,6.2,6.2,0,0,1,3.8-3.33,8.63,8.63,0,0,1,2.51-.38,12.89,12.89,0,0,1,2.81.32v4.16Z" transform="translate(-0.04 -1.02)" style="fill:#FF5000" />
</svg>