<?xml version="1.0" encoding="utf-8"?>
<!-- Generator: Adobe Illustrator 22.0.1, SVG Export Plug-In . SVG Version: 6.00 Build 0)  -->
<svg version="1.1" id="Capa_1" xmlns="http://www.w3.org/2000/svg" xmlns:xlink="http://www.w3.org/1999/xlink" x="0px" y="0px"
	 viewBox="0 0 516.3 457.9" style="enable-background:new 0 0 516.3 457.9;" xml:space="preserve">
<style type="text/css">
	.st0{fill:#FFFFFF;}
</style>
<g>
	<g>
		<g>
			<path class="st0" d="M152.3,146.9c-2.5,1.6-6.1,3.6-10.9,6c-4.8,2.5-9.7,4.6-10.8,6.2c-0.7,1.1-0.6,6.2-0.4,12.7
				c1.1,0.2,2.3,0.1,3.7-0.2c1-0.2,2.5-0.8,4.6-1.6c2.1-0.8,3.7-1.3,4.6-1.5c1.9-0.4,4-0.4,4.9,0.3c1,0.7,1.5,2.1,1.5,2.5
				c0,0.5-0.2,0.9-0.6,1.3c-0.1,0.1-0.6,0.7-1.3,1.8c-0.5,0.8-1.1,1.2-1.9,1.3c-1.4,0.7-3.9,1.4-7.6,2.3c-3.1,0.8-5.5,1.7-7.3,3
				c-0.8,5.6-1.1,9.9-0.8,12.9c0.2,2.1,0.6,3.6,1.2,4.7c3.2,1.6,8.5,1.4,15.9-0.6c0.5-0.1,1-0.5,1.6-1.2c0.5-0.7,1-1,1.4-1.1
				c1.8-0.8,3.1,0.4,3.8,3.7c0.3,1.1,0.1,2.2-0.3,3.3c-0.5,1.1-1.2,1.8-2.2,2c-7.5,2-14.4,2.8-20.2,2.5c-1.8-0.1-3.5-0.8-5.2-2.1
				c-1.6-1.3-2.6-3.1-3-5.1c-1.2-6-1.7-11.6-1.5-16.6c-2-0.9-2.9-2-2.8-3.3c0-0.7,0.5-1.4,1.4-2.1c0.9-0.8,1.4-1.4,1.5-2
				c0.1-0.6,0.1-4,0-10.3c-3.8,0.1-5.8-0.9-5.9-3.2c-0.1-2.1,0.9-4.1,3.1-5.8c2-1.5,4.3-2.9,6.3-4.3c2.4-1.8,5.5-3.9,9.2-5.8
				c3.3-1.7,6.6-3.3,9.9-4.8c0.3-0.1,0.7-0.3,1.2-0.4c1.9-0.4,4-0.1,6.6,0.9c0.1,0.3,0.3,0.8,0.6,1.5c0.3,0.7,0.5,1.3,0.5,1.6
				C152.9,145.9,152.7,146.4,152.3,146.9z"/>
			<path class="st0" d="M198.2,127.7c-1.1,9.7-2,19.6-3,29.2c-0.9,9.4-1.7,19.3-1.6,28.9c0,2.5,0.1,5,0.3,7.4
				c0.1,1.1-0.3,2.2-1.1,3.2c-0.8,1-1.7,1.6-2.7,1.7c-2,0.3-3.7-0.9-5.1-3.7c-6.5-12.7-11.7-26-16.8-39.2c-0.1-0.4-0.3-0.6-0.5-0.6
				c-0.5,0.1-0.8,0.6-0.9,1.7c-0.9,10.7-1,21.8-0.5,32.5c0.2,5.4,0.6,11,1.1,16.5c0.2,2-0.3,3.6-1.4,4.6c-0.4,0.6-0.9,0.9-1.4,1
				c-0.4,0.1-1,0-1.7-0.3c-0.9-0.3-1.6-0.5-1.9-0.6c-0.8-0.1-1.5-0.9-1.7-2.3c-0.2-1.1-0.3-2.3-0.4-3.5c-0.4-3.9-0.7-8.1-1-12.5
				c-0.5-9.5-0.5-19.1-0.1-28.6c0.3-9.7,0.8-19.6,1.1-29.1c0-1.6,1.5-2.5,3.8-3.1c1.1-0.3,3.8,0.2,5.3,1.7
				c2.4,2.6,5.1,10.6,8.5,19.8c3.2,8.8,6.1,15.5,8.6,19.9c1.3-14.6,2.9-29.2,4.6-43.8c0.2-1.5,1.2-2.3,3-2.6c0.6-0.1,1.4-0.1,2.2,0
				c1.1,0.1,1.8,0.2,2,0.2C197.5,126.6,198,127,198.2,127.7z"/>
			<path class="st0" d="M264.7,131.9c-2.7,1.2-6.5,2.8-11.6,4.6c-5.1,1.8-10.2,3.4-11.5,4.7c-0.9,1-1.4,6.1-2,12.5
				c1.1,0.3,2.3,0.4,3.7,0.3c1-0.1,2.6-0.4,4.8-1c2.2-0.6,3.8-0.9,4.8-1c1.9-0.2,4,0.1,4.8,0.9c0.9,0.8,1.2,2.2,1.2,2.7
				c0,0.5-0.3,0.9-0.8,1.2c-0.1,0.1-0.6,0.6-1.5,1.6c-0.6,0.7-1.3,1-2.1,1c-1.4,0.5-4,0.9-7.8,1.3c-3.1,0.4-5.7,1-7.6,2
				c-1.5,5.4-2.3,9.6-2.5,12.7c-0.1,2.1,0.1,3.7,0.6,4.8c3,2,8.2,2.5,15.8,1.5c0.5,0,1.1-0.4,1.7-0.9c0.6-0.6,1.1-0.9,1.5-0.9
				c1.9-0.6,3,0.8,3.3,4.2c0.1,1.1-0.1,2.2-0.7,3.2c-0.6,1-1.5,1.6-2.5,1.7c-7.7,1.1-14.6,0.9-20.3-0.1c-1.8-0.3-3.4-1.2-4.8-2.8
				c-1.4-1.5-2.2-3.4-2.4-5.5c-0.4-6.1-0.2-11.7,0.6-16.7c-1.8-1.1-2.6-2.4-2.4-3.7c0.1-0.6,0.6-1.3,1.6-1.9c1-0.6,1.6-1.3,1.7-1.8
				c0.2-0.6,0.6-4,1.2-10.3c-3.8-0.4-5.6-1.7-5.4-3.9c0.1-2.1,1.5-4,3.8-5.3c2.1-1.2,4.6-2.3,6.8-3.5c2.6-1.4,5.9-3.1,9.9-4.6
				c3.5-1.2,6.9-2.4,10.4-3.5c0.4-0.1,0.8-0.2,1.3-0.2c1.9-0.1,4,0.4,6.4,1.8c0,0.3,0.2,0.8,0.4,1.6c0.2,0.8,0.3,1.3,0.3,1.7
				C265.5,131,265.2,131.5,264.7,131.9z"/>
			<path class="st0" d="M290.5,119.3c-0.2,1.4-1.3,2.7-3.5,3.9c-0.6,0.3-1.2,0.4-1.8,0.2c-0.9-0.3-1.5-0.4-1.5-0.4
				c-0.4,0-0.9,0.3-1.3,0.7c-4.2,4-6.5,8.8-7,14.4c-0.2,2.1-0.1,4,0.4,5.7c0.2,0.8,2.3,6.1,6.1,16.1c2.6,6.7,3.5,12.4,3.1,17.1
				c-0.4,3.9-1.6,7.7-3.7,11.4c-0.7,1.2-2.3,2.9-4.8,4.9c-2,1.6-3.7,2.5-5.2,2.6c-0.6,0-1.1,0-1.6-0.2c-1.9-0.8-2.7-1.9-2.6-3.3
				c0.1-0.9,0.6-1.9,1.7-3.2c0.3-0.4,0.9-0.6,1.9-0.8c1-0.1,1.7-0.6,2-1.4c1.6-3.2,2.6-6.5,2.9-9.7c0.4-4.6-1.1-11.2-4.7-19.7
				c-3.6-8.5-5.2-15.4-4.8-20.7c0.4-4.3,1.6-8.3,3.5-11.8c2.2-4,5.2-7,8.9-8.9c1.7-0.9,3.3-1.3,4.9-1.4c3-0.1,5.1,0.6,6.4,2.2
				C290.3,117.8,290.6,118.6,290.5,119.3z"/>
			<path class="st0" d="M350.6,117c-1.1,2.5-2.6,4-4.4,4.3c-4.8,1-12.9,2.4-24.4,4.3c-3.2,14.6-6.3,29.2-8.3,44.1
				c-0.6,4.5-1.1,8.8-1.5,13.2c-0.1,1.3-0.3,2.4-0.6,3.1c-0.5,1.1-1.2,1.7-2.2,1.6c-1.8-0.1-3.3-0.9-4.4-2.5c-1-1.6-1.5-3.5-1.4-5.5
				c0.2-2.6,0.4-5.4,0.8-8.3c0.6-4.7,1.8-12.1,3.7-22.2c1.9-9.7,3.2-17.1,3.8-22.2c-1.9-0.1-4.5,0.1-7.9,0.7c-3.9,0.7-6.6,1-8,1.1
				c-3.4,0.1-6.1-0.7-8-2.5c-0.6-1.8-0.9-2.8-0.9-2.8c0.1-0.5,0.4-1,0.9-1.6c2.3-0.9,7-1.8,14-2.6c6.2-0.8,10.9-2,14.2-3.7
				c2.3,0.8,5.1,1.2,8.3,1.2c3.2,0,6.3-0.4,9.3-1.1c0.9-0.1,3.1-0.6,6.7-1.4c2.6-0.6,4.9-0.7,6.5-0.5c1.2,0.1,1.7,0.6,1.3,1.6
				C350,115.1,350.8,115.7,350.6,117z"/>
			<path class="st0" d="M362.5,178.3c0.2,1.1,0.2,2.1,0,3c-0.3,1.4-1.1,2.6-2.4,3.6c-1.3,1-2.1,1.5-2.5,1.4
				c-3.1-0.7-4.6-3.6-4.6-8.5c0-5.4-0.3-9.9-0.9-13.5c-2.3,0.1-4.7,0.3-6.9,0.5c-2.6,0.2-5.5,1.1-6.5,2.4c-1.2,1.5-2.7,6.1-4.7,11.6
				c-1.9,5.1-3.6,9.1-5,11.7c-0.7,1.3-1.9,1.6-3.5,1.1c-2-0.7-3-1.8-3-3.2c0.1-2.7,1.4-6.3,3.7-10.8c2.7-5.1,4.4-8.8,4.9-11
				c0.2-0.6-0.2-1.3-1-2.1c-0.8-0.8-1.2-1.4-1.1-1.8c0.1-0.4,0.3-0.7,0.6-1.1c0.4-0.4,1.1-0.7,2.3-0.9c1.1-0.2,1.8-0.6,2-1.1
				c1.8-3.5,4.8-10.1,9.1-19.6c3.7-8.2,6.9-14.6,9.6-19c0.6-1,1.6-1.4,2.9-1.4c1,0,1.8,0.4,2.5,1c1.6,1.8,2.4,4.4,2.3,7.7
				c-0.1,2.9-0.5,5.9-0.5,8.7C359.5,150.1,360.6,164.6,362.5,178.3z M351.6,157.7c0.3-2.6,0.4-5.6,0.3-8.8c-0.1-2.8-0.3-5.7-0.4-8.5
				c-3.1,5.8-5.9,11.6-8.4,17.4C344.2,157.7,347,157.6,351.6,157.7z"/>
		</g>
	</g>
	<g>
		<g>
			<path class="st0" d="M79.1,266.1c-0.4,17.2-0.6,34.4-0.7,51.6c-0.1,16.9,0,33.9,1.7,50.7c0.4,4.4,1,8.6,1.7,12.8
				c0.3,2-0.2,3.9-1.6,5.8c-1.4,1.9-3,3.1-5,3.6c-3.8,1-7.2-0.7-10.4-5.3c-14.6-20.5-26.6-42.8-39-64.6c-0.4-0.7-0.7-0.9-1.1-0.8
				c-0.9,0.3-1.4,1.3-1.4,3.1c0.2,19.1,2.1,38.2,4.6,57c1.3,9.5,3.1,19.2,4.8,28.6c0.7,3.5,0,6.3-2,8.4c-0.7,1.1-1.5,1.8-2.5,2.1
				c-0.8,0.3-2,0.2-3.4-0.1c-1.8-0.4-3.1-0.5-3.6-0.6c-1.6,0-2.9-1.3-3.5-3.5c-0.5-1.8-0.9-3.9-1.3-6c-1.5-6.8-2.8-14-3.9-21.5
				c-2.5-16.5-4.1-33.3-5.3-49.9c-1.2-16.9-2-34.3-3.3-51.1c-0.2-2.7,2.3-4.7,6.7-6.3c2.1-0.8,5.7-0.3,10.5,1.8
				c8,10,14,21.3,20.2,32.5c6.2,11.2,12.2,22.6,20,32.8c0.1-25.8,0.5-51.7,1.2-77.5c0.1-2.6,2-4.3,5.5-5.2c1.2-0.3,2.6-0.5,4.3-0.5
				c2.2,0,3.5,0,3.9,0C77.6,264.3,78.6,265,79.1,266.1z"/>
			<path class="st0" d="M165.9,353.5c0.8,1.9,1.3,3.5,1.3,5c0.1,2.5-0.9,4.9-3,7.2c-2.1,2.3-3.5,3.4-4.2,3.5
				c-6.2,0.1-10.2-4.1-12.3-12.5c-2.2-9.1-4.7-16.7-7.4-22.5c-4.3,1.3-8.8,2.5-13,3.9c-4.9,1.6-9.9,4.4-11.3,7.1
				c-1.6,3-2.4,11.5-4,21.9c-1.4,9.6-2.9,17-4.5,22.2c-0.8,2.5-2.9,3.6-6.1,3.4c-4.1-0.3-6.5-1.7-6.9-4c-0.8-4.6-0.1-11.4,2.4-20.1
				c2.8-10,4.5-17,4.6-21c0-1.2-0.9-2.2-2.8-3.2c-1.9-0.9-2.9-1.8-2.9-2.5c-0.1-0.6,0.2-1.3,0.7-2.2c0.5-0.8,1.8-1.7,3.9-2.6
				c2.1-0.9,3.2-1.9,3.4-2.8c3.2-12.4,5.8-24.9,8.5-37.4c2.7-12.3,5.5-24.6,9.7-36.5c0.7-1.9,2.4-3.1,4.9-3.7
				c1.9-0.4,3.6-0.2,5.2,0.7c3.9,2.2,6.7,6.3,7.9,12.1c1.1,4.9,2,10,2.9,15C149.6,307.7,156.6,331,165.9,353.5z M136.4,323.1
				c-0.6-4.5-1.7-9.7-3.4-15c-1.5-4.7-3.1-9.5-4.6-14.2c-3.1,11.1-5.9,22-8.3,33.3C122.3,326.3,127.7,325,136.4,323.1z"/>
			<path class="st0" d="M261.6,240.8c-10,17-17.1,35.6-24.3,53.9c-4.6,12.3-7.5,25.2-10.5,37.9c-3.1,13-6.1,25.9-10.7,38.5
				c-1.1,1.4-2.4,2.2-3.9,2.5c-1.7,0.3-4-0.3-6.7-1.8c-7.7-17.5-12.6-36.3-17.9-54.6c-5.3-18.5-10.9-37.8-20.6-54.7
				c1.7-3.4,3.1-5.3,4.4-5.5c1.1-0.8,2.2-1.3,3.2-1.5c2.2-0.4,6,0.9,11.5,3.8c5.9,11.3,10.6,23.5,14.1,35.6
				c3.6,12.1,6.9,24.6,10.4,36.9c4.9-16.1,9.8-32.3,15-48.1c5.3-15.9,11.7-31.9,19.5-47c2.2-3.5,5.8-5,11-4.4c0.5,0.1,1.2,0.5,2,1.2
				c0.8,0.7,1.8,1.1,3.1,1c1.2-0.1,1.8,0.8,1.8,2.5C262.7,238.2,262.3,239.5,261.6,240.8z"/>
			<path class="st0" d="M288.4,251c0,3.6,0,7.4-0.3,11.2c-0.9,12.9-3.1,25.9-5.2,38.7c-2.1,13-4.2,26-4.9,39.1
				c-0.2,3.2-0.3,6.4-0.3,9.5c-1.3,3.6-3.9,5.6-7.7,5.8c-5.4,0.4-8.3-1.6-8.7-6c-0.3-4.3-0.4-8.9-0.2-13.8
				c0.6-12.9,2.8-25.7,4.9-38.5c2.1-12.7,4.4-25.5,5.2-38.2c0.2-3.2,0.2-6.4,0.1-9.5c1.5-2.5,3.9-3.9,7.2-4.2
				c2.6-0.2,5.2,0.2,7.8,1.4c0.6-0.4,1-0.6,1.3-0.7c0.4,0,0.6,0.6,0.5,1.8c-0.2,1.5-0.3,2.4-0.2,2.6
				C288,250.6,288.2,250.9,288.4,251z"/>
			<path class="st0" d="M354.2,299.9c-1.7,2.9-3.2,5.9-4.7,8.7c-1.8,3.4-4,6.2-6,8.3c-4.6,5.1-9.2,10.1-13.6,15
				c-5.4,6-10,10.3-14.1,12.8c-1.4,1.6-3,3.3-4.6,5c-1.7,1.7-3.3,2.7-4.8,2.8c-0.8,0.1-1.7-0.1-2.6-0.3c-1-0.3-2.1-0.6-3.3-1
				c-1.2-0.4-2.2-1.3-2.4-2.2c-0.8-4.2,0.2-10.8,0.6-16.8c0.4-6.1,1.3-15.3,2.7-27.4c1.4-12.2,2.4-21.3,2.8-27.4
				c0.6-8.1,0.8-15.5,0.6-22.2c-0.1-0.1-1.5-1.4-4.2-4c-1.7-1.5-2.5-2.9-2.4-4.3c0-0.6,0.2-1.3,0.5-1.9c0.8-1.6,2.4-2.5,4.8-3
				c1.8-0.3,3.6-0.7,5.5-1c12.8,1.7,24.8,7.6,34.9,15.5c3.1,2.3,5.5,4.8,7.2,7.5c5.6,8.6,7.9,16.7,7,24.5
				C357.7,292.4,356.3,296.3,354.2,299.9z M341.8,280.6c-0.9-10.2-11.3-16.4-19.9-19.6c-2.9,22-4.9,44.2-6.4,66.3
				c11.1-11.3,24.6-24.8,26.2-41.5C341.9,284.1,341.9,282.3,341.8,280.6z"/>
			<path class="st0" d="M433.5,331.3c0.4,2,0.5,3.7,0.3,5.2c-0.4,2.5-1.9,4.6-4.5,6.4c-2.5,1.8-4.2,2.7-4.9,2.5
				c-6.2-1.2-9.5-6.1-9.8-14.8c-0.4-9.4-1.3-17.3-2.9-23.6c-4.6,0.4-9.3,0.7-13.8,1.1c-5.2,0.5-10.8,2.2-12.8,4.6
				c-2.2,2.6-4.8,10.8-8.5,20.6c-3.4,9.1-6.4,16.1-9.1,20.9c-1.3,2.3-3.6,3-6.8,2.1c-4-1.2-6.1-3-6.1-5.3c0.1-4.7,2.3-11.2,6.5-19.2
				c4.9-9.2,8-15.7,8.9-19.6c0.3-1.1-0.4-2.3-2.1-3.7c-1.7-1.3-2.5-2.3-2.4-3.1c0.1-0.6,0.5-1.3,1.1-2c0.7-0.7,2.2-1.3,4.4-1.8
				c2.3-0.5,3.6-1.2,4-2.1c5.7-11.5,10.9-23.2,16.2-34.8c5.2-11.5,10.6-22.9,17.2-33.7c1.1-1.7,3-2.6,5.7-2.6c2,0,3.7,0.6,5,1.7
				c3.5,3,5.4,7.6,5.5,13.4c0.1,5,0,10.2-0.2,15.2C426.5,283.2,428.8,307.5,433.5,331.3z M410.1,295.6c0.3-4.6,0.3-9.8-0.3-15.4
				c-0.5-4.9-1.2-9.9-1.7-14.9c-5.4,10.2-10.4,20.4-15.1,30.9C395.2,295.8,400.9,295.6,410.1,295.6z"/>
			<path class="st0" d="M505.1,302.5c-2,2.7-3.9,5.5-5.7,8.2c-2.2,3.2-4.7,5.7-7,7.5c-5.2,4.5-10.4,9-15.4,13.4
				c-6.1,5.3-11.3,9.1-15.6,11.1c-1.6,1.4-3.3,2.9-5.2,4.4c-1.9,1.5-3.6,2.3-5.2,2.2c-0.8,0-1.7-0.2-2.6-0.6c-1-0.4-2-0.9-3.2-1.4
				c-1.2-0.5-2.1-1.5-2.2-2.5c-0.4-4.2,1.4-10.7,2.4-16.7c1.1-6,3-15,5.8-27c2.7-11.9,4.7-20.9,5.8-26.9c1.5-8,2.5-15.3,3.1-22
				c-0.1-0.1-1.4-1.6-3.8-4.4c-1.5-1.7-2.2-3.2-1.9-4.5c0.1-0.6,0.4-1.2,0.8-1.8c1-1.5,2.7-2.2,5.1-2.4c1.9-0.1,3.8-0.3,5.6-0.3
				c12.7,3.1,24.1,10.4,33.6,19.3c2.8,2.7,5,5.4,6.5,8.3c4.7,9.2,6.2,17.5,4.4,25.1C509.4,295.5,507.6,299.1,505.1,302.5z
				 M494.7,281.9c0.2-10.3-9.7-17.6-18-21.7c-5.4,21.6-9.7,43.3-13.8,65.2c12.3-9.9,27.5-21.8,31-38.3
				C494.4,285.4,494.6,283.6,494.7,281.9z"/>
		</g>
	</g>
	<g>
		<path class="st0" d="M370.1,424.4c-2.1,2.3-4.4,3.4-6.7,3.5c-49.7,2.9-92.2,6.3-127.5,10.1c-11.3,1.9-28,4.3-50,7.3
			c-8,1.8-20.3,4.1-36.9,7.1c-1.7,0.2-3.1-0.3-4.2-1.5c-0.6-0.7-1.3-2-2-3.9c-0.7-1.8-1.2-3-1.5-3.6c-1-1.5-1.5-3.3-1.5-5.5
			c0.1-2.2,0.6-3.6,1.7-4.4c4.4-3.2,10.2-5.4,17.5-6.7c6.4-0.8,12.8-1.8,19.2-2.8c24.3-5.1,55.3-9,93.1-11.7
			c31-2.4,61.8-4.7,92.7-6.9c2-0.2,3.8,0.6,5.3,2.4C374.6,413.9,374.9,419.4,370.1,424.4z"/>
	</g>
	<g>
		<path class="st0" d="M226,74.3l2.6-4.3l-8.4,0.1l16.9-26.5l-8,0.4l13.2-21.5l-5.8,0.3l12.7-19l1.1-2.2l1.5,2.1l12.8,19.2l-5.8-0.3
			l13.2,21.5l-8-0.4l16.9,26.5l-8.4-0.1l2.6,4.3l-24.6,0h-0.1L226,74.3z M267.1,66.8l8.2,0.1l-17.1-26.7l8.1,0.4l-13.1-21.5l5.5,0.3
			l-8.1-12l-8.1,12l5.5-0.3L235,40.7l8.1-0.4L226,66.9l8.3-0.1l-2.7,4.3l19,0l19.1,0L267.1,66.8z"/>
	</g>
</g>
</svg>
