<?xml version="1.0" encoding="utf-8"?>
<!-- Generator: Adobe Illustrator 22.0.1, SVG Export Plug-In . SVG Version: 6.00 Build 0)  -->
<svg version="1.1" id="Capa_1" xmlns="http://www.w3.org/2000/svg" xmlns:xlink="http://www.w3.org/1999/xlink" x="0px" y="0px"
	 viewBox="0 0 519.6 320.6" style="enable-background:new 0 0 519.6 320.6;" xml:space="preserve">
<style type="text/css">
	.st0{fill:#FFFFFF;}
</style>
<g>
	<path class="st0" d="M367.8,286.3c-2.2,2.3-4.5,3.5-6.8,3.6c-50.9,3-94.5,6.4-130.7,10.3c-11.6,1.9-28.7,4.4-51.3,7.4
		c-8.2,1.8-20.8,4.2-37.8,7.3c-1.8,0.2-3.2-0.3-4.3-1.5c-0.6-0.8-1.3-2.1-2.1-3.9c-0.7-1.9-1.3-3.1-1.6-3.7
		c-1.1-1.5-1.6-3.4-1.5-5.6c0.1-2.2,0.7-3.7,1.8-4.5c4.5-3.2,10.5-5.5,17.9-6.9c6.6-0.8,13.1-1.8,19.7-2.9
		c24.9-5.3,56.7-9.3,95.4-12c31.7-2.4,63.4-4.8,95-7.1c2-0.2,3.8,0.6,5.5,2.5C372.5,275.5,372.7,281.2,367.8,286.3z"/>
</g>
<g>
	<g>
		<g>
			<path class="st0" d="M131.6,43.9c0.2,1.4,0.3,2.9,0.4,4.3c0.5,6.5,0.4,14.7-0.5,24.4c-1.3,14.4-1.8,22.6-1.8,24.5
				c0,0.9-0.4,1.5-1,2c-0.7,0.5-1.4,0.6-2,0.5c-0.9-0.1-2-0.1-2.9-0.3c-1-0.2-1.7-1-1.8-2.2c-0.2-4.9,0.2-13.9,1.5-27
				c1.1-11.4,1.4-20.5,0.6-27.5c-0.1-0.6,0.2-1.3,0.8-1.9c0.6-0.7,1.1-1,1.7-1C129.6,39.9,131.3,41.3,131.6,43.9z M132.8,30.6
				c0.3,1-0.2,2.1-1.4,3.4c-1.2,1.2-2.1,1.9-2.7,2c-0.9,0.1-1.9-0.2-2.7-0.8c-1-0.6-1.7-1.6-1.9-2.8c-0.2-0.9-0.2-1.9,0.1-2.9
				c0.3-1,0.7-1.7,1.3-1.8c0.4-0.1,0.7-0.3,0.9-0.7c0.2-0.4,0.4-0.5,0.7-0.5C130.4,27.1,132.3,28.5,132.8,30.6z"/>
			<path class="st0" d="M165.8,22.2c-1.9,10.8-4.8,21.6-7.6,32.1c-2.8,10.5-5.7,21.2-7.5,32c-0.2,1.2-0.2,2.6-0.1,4.2
				c0.2,2.2,0.3,3.7,0.3,4.3c0,2.4-1,3.8-2.7,4.3c-0.9,0.3-1.9,0.2-3.1-0.5c-1.1-0.7-1.7-1.6-1.8-2.6c-0.3-5.1,0.2-11.1,1.6-17.9
				c1.2-5.8,2.6-11.8,4-17.6c-3.8-9-7.4-18.2-12.5-26.6c-0.2-0.3-0.3-0.6-0.3-1c-0.1-0.8,0.3-1.5,1-2.4c0.7-0.8,1.4-1.3,2.1-1.4
				c0.1,0,2.3-0.2,3.4,0.4c1.5,0.9,3.4,5.4,5.2,9.2c1.6,3.3,3.1,6.5,4.6,9.8c0.9-4.4,1.8-8.7,2.8-13c1.1-5,2.4-9.2,3.9-12.7
				c0.4-1.1,1.2-1.7,2.4-1.9C163.2,20.7,164.6,21.1,165.8,22.2z"/>
			<path class="st0" d="M233.7,75.7c0.2,1.4-0.6,2.2-2.5,2.5c-1.2,0.2-2.5-0.3-3.7-1.5c-1-1-1.9-2.9-2.4-5.4
				c-0.5-2.3-0.8-5.7-0.9-10.1c0-5-0.2-8.4-0.4-10.2c-0.8,3.2-2.1,8-3.9,14.3c-1,3.5-1.7,5.5-1.9,6c-0.9,2.3-2,3.4-3.4,3.3
				c-2.7-0.4-4.8-2-6.2-4.8c-1-1.8-1.9-4.8-2.8-8.9c-0.9-4.5-1.7-7.5-2.4-9c-1.8,11.3-3.8,22.6-7.3,33.5c-0.4,1.1-1.5,1.2-3.5,0.3
				c-1.6-0.7-2.5-2-2.5-3.8c0-0.6,0.5-2.9,1.6-6.9c0.5-1.7,2.2-10,5.5-24.8c1.1-5.2,2.3-14.1,3.7-26.8c0.1-0.2,0.5-0.9,0.9-2.3
				c0.3-1,0.8-1.6,1.6-1.7c2-0.3,3.4,0,4.2,0.8c0,2,0.2,5.2,0.8,9.6c0.5,4.4,0.6,7.9,0.8,10c0.2,3.6,0.9,7.7,1.4,11.5
				c0.6,4.3,1.8,7.8,3.4,10.4c4.2-14.9,8.7-29.8,11.3-45c0.3-1.1,1.2-1.8,2.7-1.9c2.2-0.2,3.5,0.5,3.7,2.1c0.3,2.4,0.4,5.3,0.3,8.5
				c0,1-0.2,3.3-0.4,6.9c-0.2,2.8-0.2,5.2-0.2,6.9C231.4,51.5,232,63.7,233.7,75.7z"/>
			<path class="st0" d="M272.1,14.6c-0.8,4.9-2.5,11.4-5,19.6c-3.4,11-5.3,17.7-5.8,20c-1.7,7.1-4.4,13.6-8.1,19.6
				c-2.3,3.8-4.9,5.9-7.7,6.1c-2.5,0.2-4.3-1.6-5.4-5.4c-1.9-6.3-2.8-13.8-2.5-22.6c0.2-5,0.8-11.6,1.9-19.6c-0.1,0.7,0-1.4,0.2-6.4
				c0.2-4.3,1.7-6.6,4.6-6.8c0.6-0.1,1.2,0.1,1.9,0.4c0.7,0.3,1.3,0.7,1.9,1c-0.1,3.5-0.5,8.7-1,15.6c-0.6,7.3-1,12.6-1.1,15.9
				c-0.1,3.5-0.2,6.6-0.1,9.4c0,1.4,0.5,4.2,1.2,8.1c2.5-3.5,4.5-7.9,6.2-13.4c0.5-1.8,1.7-6.8,3.5-14.9c1.4-6.1,3-11,4.7-14.6
				c0.5-1,1-2.8,1.4-5.6c0.5-2.7,1-4.6,1.5-5.7c0.8-1.7,2-2.6,3.6-2.7C269.9,12.5,271.4,13.2,272.1,14.6z"/>
			<path class="st0" d="M300,7.5c-0.2,1.9-1.4,3.1-3.6,3.6c-2.9,0.7-4.7,1.5-5.4,2.3c-7.9,8.8-11.9,20.3-12.7,31.9
				c-0.5,6-0.1,11.7,1,17c1,4.3,1.7,7.2,2.1,8.5c1.1,3.3,2.6,5.6,4.5,7c0.8,0.4,1.7,0.8,2.4,1.2c0.8,0.5,1.2,1.4,1.1,2.5
				c-0.1,1.1-0.5,2.1-1.1,3c-0.7,0.9-1.3,1.2-1.9,1.1c-0.7-0.1-1.8-0.5-3.2-1.2c-2.5-1.8-5.1-5.7-7.8-11.8c-0.7-1.5-1.4-3.1-2.1-4.8
				c-0.7-1.6-1.2-3.2-1.5-4.7c-0.2-1.1-0.4-5.5-0.5-13.3c0-2.4,0-4.7,0.2-7c0.8-11.4,4.6-22.6,11.7-31.6c4.1-5.1,8.1-7.7,12.1-7.9
				c1.7-0.1,3.2,0.5,4.4,1.6C300,5.6,300.2,6.3,300,7.5z"/>
			<path class="st0" d="M329.1,11.7c-1.7,9.8-4.3,19.4-6.6,29c-2.3,9.5-4.6,19.1-5.8,28.9c-0.3,2.1-0.4,4.2-0.6,6.1
				c0,0.5-0.3,0.9-0.7,1.4c-0.4,0.4-0.8,0.7-1.2,0.7c-1.6,0-2.6-0.1-3-0.5c-1.9-1.5-2.7-4.3-2.2-8.5c0.1-0.8,0.3-2.1,0.6-3.9
				c0.3-1.8,0.5-3,0.6-3.9c0.2-1.4,0.5-3.5,1.2-6.3c0.6-2.8,1-5,1.2-6.5c-0.8,0.1-1.9,0-3.3-0.4c-1.4-0.3-2.4-0.5-3-0.5
				c-0.8,0-1.5,0.2-2.2,0.5c-2,5.5-3.6,13.5-4.9,24.1c-2,1-3.8,1-5.5-0.1c-1.2-0.8-1.7-2.4-1.5-4.9c0.1-0.5,0.2-1.3,0.3-2.2
				c0.2-0.9,0.3-1.5,0.3-1.7c0.5-3.7,1.8-11.1,4.1-22.1c1.9-9.2,3.2-16.6,3.8-22c0.1-0.8,0.6-1.2,1.5-1.5c0.9-0.2,1.5-0.4,1.6-0.7
				c0.3,0.5,1.1,0.9,2.5,1.2c1.1,0.3,1.7,0.9,1.8,1.8c0.2,1.7,0.3,3.6,0,5.8c-0.2,1.5-0.7,3.9-1.4,7.2c-0.8,3.3-1.2,5.8-1.4,7.5
				c0.6,0.6,1.5,0.9,2.5,1.1c0.7,0.1,1.7,0.2,3,0.1c1.7-0.1,2.7-0.2,3.1-0.2c3-9.2,5.4-18.6,7.5-28c0.6-2.4,1.6-3.5,2.7-3.6
				C327.1,9.3,328.9,9.8,329.1,11.7z"/>
			<path class="st0" d="M359.1,47.6c-5,8.9-10.6,14.2-17,15.7c-0.8,0.2-1.5,0.3-2.3,0.3c-3.2-0.1-6.2-2.2-8.9-6.5
				c-1.8-2.9-2.4-6.6-1.8-11.2c0.7-5.1,2.7-10.5,6.2-16.3c1.5-2.4,3.2-4.5,5-6.3c2.2-2.1,4.1-3.1,5.8-3.1c1,0,1.8,0.5,2.5,1.3
				c0.7,0.8,2.8,2,6.1,3.5c2.7,1.2,4.3,3.1,5.1,5.7c1.3,4.6,1.6,8.6,1,11.9C360.5,44.5,359.9,46.1,359.1,47.6z M353.2,41
				c0.4-5-0.2-8-1.9-9c-0.3-0.1-0.5-0.2-0.8-0.2c-0.7,0-1.7,0.6-3,2c-1.4,1.5-2.5,2.4-3.2,2.7c-0.4,0.2-1,0-1.7-0.7
				c-0.7-0.6-1.1-0.9-1.4-1c-0.2,0-0.3,0.1-0.5,0.2c-2.4,2-3.9,5.2-4.5,9.5c-0.4,2.9-0.2,5.5,0.6,7.5c1.2,2.8,2.3,4.3,3.4,4.3
				c2.5,0,5.2-1.8,8.2-5.5C351.5,47.4,353,44.1,353.2,41z"/>
		</g>
	</g>
</g>
<g>
	<g>
		<g>
			<path class="st0" d="M91.5,231.8c1.1,1.9,1.7,3.6,1.8,5.1c0.2,2.6-1,5.1-3.5,7.6c-2.5,2.5-4.2,3.8-5.1,3.9
				c-7.7,0.6-12.9-3.4-15.8-11.9c-3.1-9.3-6.5-16.8-10.1-22.7c-5.4,1.7-10.8,3.4-16,5.2c-6,2.1-12.1,5.3-13.9,8.4
				c-1.7,3.1-2.6,12.2-4.1,23c-1.4,10.1-3,17.9-4.7,23.5c-0.9,2.7-3.4,4.1-7.4,4.1c-5.1,0.1-8.1-1.1-8.8-3.4
				c-1.2-4.6-0.6-11.9,2.2-21.1c3.1-10.6,4.9-18.1,4.9-22.2c0-1.2-1.2-2.2-3.6-3c-2.4-0.8-3.6-1.6-3.7-2.3c-0.1-0.6,0.2-1.4,0.8-2.3
				c0.6-0.9,2.2-2,4.7-3.1c2.5-1.2,3.9-2.3,4.1-3.2c3.5-13.1,6.3-26.4,9.2-39.5c2.9-13,6-26.1,10.7-38.6c0.8-2,2.8-3.5,6-4.2
				c2.4-0.6,4.5-0.5,6.5,0.2c5,2,8.6,6,10.4,11.8c1.5,5,2.9,10.1,4.2,15.2C69.5,185.9,79.2,209.5,91.5,231.8z M53.6,202.9
				c-1-4.6-2.5-9.9-4.8-15.3c-2-4.7-4.2-9.5-6.2-14.3c-3.5,11.7-6.5,23.3-9.1,35.2C36,207.4,42.7,205.5,53.6,202.9z"/>
			<path class="st0" d="M217,223.2c0.6,2.5-1.8,4.2-7,5.1c-3.5,0.6-7.1-0.2-10.7-2.3c-3-1.8-5.4-5-7.1-9.7
				c-1.6-4.3-2.6-10.6-2.9-18.8c-0.3-9.3-0.9-15.6-1.7-19c-3.3,9.2-6.9,18.4-10.4,27.5c-2.8,6.8-4.5,10.7-5.2,11.7
				c-2.5,4.4-5.8,6.9-9.4,6.9c-7.3,0.1-13.6-2.7-17.9-7.5c-2.8-3.1-5.6-8.5-8.3-15.9c-2.9-8.2-5.3-13.6-7.3-16.3
				c-4.7,21.9-9.5,44.2-18.7,64.7c-1,2.2-4.2,2.7-9.8,1.7c-4.6-0.8-7-2.9-7.3-6.3c-0.1-1.2,1.2-5.6,4-13.5c5-15.9,9.3-32.2,14-48.2
				c4.6-16.7,6.4-34,8.5-51.1c0.3-0.3,1.2-1.9,2.4-4.5c0.8-1.9,2.3-3.1,4.5-3.5c5.8-1,9.8-0.9,12.1,0.5c0.1,3.8,1.1,9.7,3,17.7
				c1.8,8.1,2.4,14.7,2.9,18.5c0.9,6.4,3.2,14.2,4.8,21.2c1.8,7.9,5.4,14.2,10.2,18.8c11.1-28.2,23.3-56.7,29.9-86.4
				c0.7-2.2,3.3-3.5,7.8-4.1c6.4-0.8,10,0.4,10.8,3.3c1.1,4.5,1.6,9.8,1.5,15.9c0,1.9-0.4,6.3-0.8,12.9c-0.3,5.3-0.4,9.7-0.2,13
				C209.7,178.2,211.7,201,217,223.2z"/>
			<path class="st0" d="M449.2,214.1c0.4,0.5,0.5,1.1,0.4,1.8c-0.6,2.9-4.9,4.9-13,6c-10.1-7.6-19.1-16.5-28.1-25.3
				c-9.2-9-18.4-18.1-28.8-25.8c-1,3.3-3.3,12.1-6.4,26.1c-2.4,10.5-4.9,19.1-7.9,25.4c-0.3,0-1.4,0.3-3.1,1
				c-1.8,0.7-3.2,0.9-4.3,0.6c-6.9-1.2-10-5-9.2-11.6c0.2-1.9,0.9-4.5,1.9-7.7c1.1-3.7,1.8-6.1,2.1-7c1.6-7.5,3.1-16.3,4.6-26.6
				c1.1-8.4,1.6-12.6,2.7-21c2.2-15,4.3-30.7,9.6-44.1c4.3-10.8,22.4-11.4,32.5-10.7c9.3,0.7,17.3,4.2,23.2,11
				c5.4,6.4,7.5,13.1,6.2,20.3c-1.1,6-5.3,11.8-12.2,17.6c-6.1,5.1-13.1,9.2-21,12.2c-3.3,1.2-5,2.6-5.2,4.1c-0.3,1.7,1.2,3.7,4.4,6
				c2.4,1.7,4.9,3.4,7.3,5.1c8.1,6.6,16.2,13.2,24.2,20C436.4,198.4,444.3,205.2,449.2,214.1z M411.4,126.1c0.9-2.3,1.5-4.4,1.5-6.1
				c0-2.6-1.2-5.2-3.4-7.4c-2.2-2.2-6.1-3.4-11.7-3.5c-4.2-0.1-7.3,0.9-8.3,2.8c-1.5,2.7-2.3,6.8-2.9,10.9c-0.2,1.7-0.6,6-1.1,12.9
				c-0.4,5.2-1.1,9.5-1.9,12.9C393.9,142.8,405.9,137.1,411.4,126.1z"/>
			<path class="st0" d="M466.1,217.6c-0.1,1.8-0.7,3.5-2.1,5.2c-1.3,1.6-2.7,2.4-4.1,2.4c-1.4,0-2.5,0.2-3.2,0.7
				c-0.8,0.5-1.4,0.6-2.1,0.4c-8.1-3.1-12.3-6.6-12.7-10.7c-0.1-1.8,1.8-3.5,5.7-5.2c4-1.6,6.7-2.3,8.1-2.1c2.6,0.4,5,1.5,7.2,3.2
				C465.2,213.2,466.2,215.3,466.1,217.6z M516.9,104.3c-6.2,16.3-16,31.4-24.4,46.4c-8.5,15.2-16.4,31.2-19.9,48.4
				c-0.2,1.1-1.3,2.1-3.3,2.9c-1.9,0.8-3.6,1.1-5.1,0.7c-8.2-1.8-12.1-5.4-11.5-10.4c0.3-2.6,0.8-5.4,1.3-8
				c3.1-15,9.4-29.7,16.6-43.2c7.5-14,15.7-28,22.4-42.3c0.7-1.5,2.3-2.5,4.7-2.9c2.5-0.4,4.7-0.3,6.7,0.4c2.8,0.9,5.9,1.7,8.7,2.7
				C516.3,100.2,517.6,102.1,516.9,104.3z"/>
		</g>
	</g>
	<path class="st0" d="M341.2,146.5c1.5-7.8,5.8-25.7-3.2-30.4c-3.5-1.8-10.9,0.5-13.8,2.8c-11.1,8.8-20.8,19-28.9,30.5
		c-2.1-11.7-6.5-23.4-15-30.1c-11.6-9.1-31.2-2.5-39.7,7.9c-11.1,13.6-8,33.8-1.1,48.5c8.4,17.8,21.8,33.5,33.4,49.3
		c-0.3,0.2-0.5,0.3-0.8,0.5c-2.6,1.4-1.8,2.5,0.7,2.9c2.5,0.4,5.8-0.5,8.5-1.6c4.1-1.2,8.1-3.3,7.7-3.9c-0.1-0.1-0.1-0.1-0.2-0.2
		c17.7-11,32.3-26.5,41.9-45.1C335.6,167.8,339.2,157.3,341.2,146.5z M270.3,128.6c-0.3,0.1-0.5,0.2-0.7,0.3
		c0.1-0.2,0.3-0.5,0.4-0.7C270.1,128.3,270.2,128.4,270.3,128.6z M278.3,145.5c0.5,1.7,0.9,3.4,1.3,5.2c-1.7,0.5-3.2,1-4.1,1.5
		C276.5,149.9,277.4,147.7,278.3,145.5z M251.7,160.9c3.8-4.9,7.8-9.7,11.9-14.3c-1.3,3.1-2.6,6.1-4.1,9.1
		c-2.1,4.6-4.3,9.2-6.4,13.8c-1-2.4-2-4.9-2.7-7.5C251,161.7,251.4,161.3,251.7,160.9z M267.1,188c2.2-0.3,6.3-1,8.2-2.9
		c-1.7,4.1-3.5,8.2-5.3,12.3c-2.1-3-4.3-6-6.3-9.1C265.2,188.3,266.8,188,267.1,188z M280,203.3c-0.6,1.7-1.3,3.4-1.9,5.1
		c-0.9-1.2-1.8-2.4-2.6-3.6C277.2,204.4,278.9,203.8,280,203.3z M310.6,146.1c-4.8,10.2-9.6,20.4-14.7,30.5
		c-1.2,0.2-2.4,0.5-3.7,0.9c0.8-2.1,1.6-4.3,2.4-6.4c1.2-0.5,2-1.1,2.2-1.6C300.7,161.2,305.3,153.4,310.6,146.1z M256.8,123.1
		c-0.1,0.1,2.6-2,2.4-2.5c0.4,0,0.9,0.2,1.4,0.3c-4.1,7.3-8.2,14.7-12.3,22c0-0.3,0-0.5,0.1-0.8C249.1,135.3,251.7,128,256.8,123.1z
		 M258.5,179.9c1.8-0.6,3.5-1.4,4.7-2.7c1.5-1.6,3-3.2,4.5-4.8c-1.7,4.4-3.7,8.7-5.8,13c-0.5-0.8-1.1-1.6-1.6-2.4
		C259.7,182,259.1,181,258.5,179.9z M284.5,217c0.3,0,0.5-0.1,0.8-0.2c-0.2,0.2-0.4,0.3-0.6,0.4C284.6,217.2,284.5,217.1,284.5,217z
		"/>
</g>
</svg>
