<?xml version="1.0" encoding="utf-8"?>
<!-- Generator: Adobe Illustrator 22.0.1, SVG Export Plug-In . SVG Version: 6.00 Build 0)  -->
<svg version="1.1" id="Capa_1" xmlns="http://www.w3.org/2000/svg" xmlns:xlink="http://www.w3.org/1999/xlink" x="0px" y="0px"
	 viewBox="0 0 426 679.3" style="enable-background:new 0 0 426 679.3;" xml:space="preserve">
<style type="text/css">
	.st0{fill:#FFFFFF;}
	.st1{fill:none;stroke:#FFFFFF;stroke-width:4;stroke-linecap:round;stroke-linejoin:round;stroke-miterlimit:10;}
</style>
<path class="st0" d="M422.4,401.2c-0.5-2.1-1.8-4.9-4.1-5.6c-2.3-0.7-5,0.8-6.7,2.2c-2,1.6-3.1,4-4.2,6.2c-0.7,1.3-1.3,2.6-1.9,3.9
	c-0.8-1.5-1.6-3.1-2.5-4.6c-1.1-1.9-2.5-3.9-4.5-5.1c-2.1-1.3-4.2-0.8-6.2,0.5c-1.9,1.2-2.8,3-3.1,5.2c-1.4,10.2,7.8,17.2,13.8,24.3
	c0,0-0.1,0.1-0.1,0.1c-0.6,0.6-0.3,0.8,0.4,0.7c0.1,0,0.2,0,0.3-0.1c0.2,0.3,0.5,0.6,0.7,0.9c0.6,0.8,4.1-1.6,3.7-2.1
	c-0.3-0.4-0.7-0.8-1-1.3c3.9-3.7,8.1-7.4,11.4-11.7C421.5,411,423.5,406.1,422.4,401.2z M418.9,407.2c0,0.5-0.1,1-0.2,1.4
	c-2.6,2.6-5.1,5.3-7.4,8.1c1-2.3,2.1-4.5,3.2-6.7c0.9-1.8,1.8-3.7,2.5-5.6c0.3-0.8,0.9-2.2,1-3.3c0,0,0,0.1,0.1,0.1
	C418.9,403.1,419.1,405.2,418.9,407.2z M410.1,404.4c1-2.1,2-4.4,3.4-6.3c0.9-1.2,2.3,0,3.3,1.3c-1,0.1-2.6,1.4-3,1.9
	c-2.4,3-4.5,6.1-6.5,9.3C408.2,408.5,409.1,406.4,410.1,404.4z M393.9,409.3c0.1-0.1,0.1-0.2,0.2-0.2c0.9-1.1,1.8-2.2,2.9-3.2
	c0.1,1.9-0.4,3.7-0.7,5.6c-0.1,0.7-0.2,1.3-0.4,2C395.1,412.1,394.4,410.7,393.9,409.3z M401.1,410.9c-0.6,0.7-1.1,1.4-1.7,2
	c0.2-1.3,0.5-2.6,0.7-3.9c0.1-0.6,0.2-1.3,0.3-1.9c0.6,1,1.1,2.1,1.6,3.1C401.6,410.5,401.2,410.8,401.1,410.9z M398.6,416.6
	c0.7-0.8,1.4-1.7,2.1-2.5c-0.1,1.7-0.2,3.4-0.4,5.1c-0.7-0.8-1.3-1.5-2-2.3C398.5,416.8,398.6,416.7,398.6,416.6z M404.4,413.1
	c0.8-0.3,1.8-1,2.3-1.5c-0.9,1.4-1.7,2.8-2.5,4.2C404.3,414.8,404.3,414,404.4,413.1z M393.3,400.9c0.1-0.3,0.2-0.7,0.4-1
	c0.1,0,0.1,0,0.2,0c0.4,0.3,1.2,0.5,1.6,0.8c0.4,0.3,0.8,0.6,1.2,1c0.5,0.5,0.9,1,1.4,1.5c-0.2,0.1-0.4,0.2-0.4,0.3
	c-1.5,1.1-2.9,2.4-4.2,3.7c0-0.1,0-0.1-0.1-0.2C392.8,405.1,392.8,403,393.3,400.9z M413.2,418.5c-2.2,2.4-4.6,4.7-7,7
	c-1-1.2-2.1-2.3-3.2-3.5c0.4-0.3,0.7-0.5,0.7-0.6c3.2-5.7,6.4-11.3,10.1-16.7c-0.3,0.8-0.6,1.6-0.8,2.1c-0.7,1.9-1.6,3.8-2.5,5.6
	c-1.8,3.7-3.7,7.3-4.6,11.3c-0.2,0.6,1.3,0,1.4,0c0.8-0.3,1.7-0.8,2.2-1.5c2.5-3.4,5.2-6.6,8.1-9.8
	C416.4,414.6,414.9,416.6,413.2,418.5z"/>
<g>
	<g>
		<path class="st0" d="M113.8,296.5c-1.8,0.7-4.4,1.6-7.9,2.6c-3.5,1-6.1,1.8-7.9,2.6c-0.4,1.3-0.7,4.1-0.9,8.5
			c0.8,0.3,1.7,0.4,2.7,0.4c0.7,0,1.9-0.1,3.4-0.4c1.5-0.2,2.7-0.4,3.4-0.4c1.3,0,2.5,0.3,3.5,0.9c0.7,1,1,1.6,1,1.9
			c0,0.3-0.2,0.6-0.5,0.8c-0.1,0-0.4,0.4-1,1c-0.4,0.4-0.9,0.6-1.4,0.6c-1,0.2-2.9,0.4-5.6,0.4c-2.3,0-4.1,0.3-5.4,0.9
			c-0.9,3.6-1.4,6.5-1.4,8.6c0,1.4,0.2,2.5,0.6,3.4c2.3,1.6,6.2,2.3,11.8,2c0.4,0,0.8-0.2,1.2-0.5c0.4-0.4,0.8-0.5,1.1-0.5
			c1.3-0.3,2.2,0.7,2.7,3.1c0.1,0.8,0,1.5-0.4,2.2c-0.4,0.7-1,1-1.8,1.1c-5.8,0.2-10.9-0.3-15.2-1.4c-1.3-0.3-2.6-1.1-3.7-2.3
			c-1.1-1.2-1.7-2.5-1.9-3.9c-0.4-4.2-0.4-8,0-11.4c-1.3-0.9-1.9-1.8-1.8-2.7c0-0.4,0.4-0.8,1.1-1.2c0.7-0.4,1.1-0.7,1.2-1.1
			c0.1-0.4,0.3-2.7,0.6-6.9c-2.7-0.5-4-1.6-4-3.1c0-1.4,0.9-2.5,2.5-3.4c1.5-0.6,3.1-1.3,4.6-1.9c1.8-0.9,4.1-1.8,6.8-2.5
			c2.3-0.6,4.6-1.2,7-1.8c0.2,0,0.5-0.1,0.9-0.1c1.3,0,2.8,0.5,4.5,1.5c0,0.2,0.2,0.6,0.4,1.1c0.2,0.5,0.3,0.9,0.3,1.2
			C114.3,296,114.1,296.3,113.8,296.5z"/>
		<path class="st0" d="M130.8,288.8c0,1-0.7,1.8-2.1,2.6c-0.4,0.2-0.8,0.2-1.2,0.1c-0.7-0.2-1-0.3-1.1-0.3c-0.3,0-0.6,0.1-0.9,0.4
			c-2.6,2.6-3.9,5.8-3.9,9.7c0,1.4,0.2,2.7,0.6,3.9c0.2,0.5,2,4.3,5.5,11.3c2.3,4.7,3.5,8.7,3.5,11.9c0,2.7-0.6,5.3-1.9,7.8
			c-0.4,0.8-1.5,1.9-3.2,3.2c-1.4,1-2.6,1.5-3.8,1.5c-0.4,0-0.8-0.1-1.2-0.2c-1.4-0.6-2.2-1.4-2.2-2.4c0-0.6,0.4-1.3,1.1-2.1
			c0.2-0.2,0.6-0.4,1.4-0.4c0.7,0,1.2-0.3,1.4-0.9c1-2.1,1.5-4.3,1.5-6.6c0-3.2-1.6-7.8-4.7-13.8c-3.1-6-4.7-10.8-4.7-14.4
			c0-3,0.6-5.6,1.7-8c1.3-2.7,3.2-4.6,5.6-5.8c1.1-0.5,2.2-0.8,3.3-0.8c2,0,3.5,0.6,4.5,1.7C130.6,287.8,130.8,288.3,130.8,288.8z"
			/>
		<path class="st0" d="M155.2,289c0,1.3-0.9,2.1-2.6,2.5c-2.3,0.4-3.7,1-4.2,1.5c-5.4,5.8-8.1,13.2-8.1,22.3c0,4.3,0.7,8.3,2,12.1
			c1.1,3.1,1.9,5.2,2.4,6.1c1.2,2.4,2.7,4.1,4.4,5.1c0.7,0.3,1.4,0.7,2.2,1c0.8,0.4,1.2,1,1.2,1.8c0,0.8-0.3,1.5-0.8,2.1
			c-0.5,0.6-1,0.9-1.6,0.7c-0.6-0.1-1.6-0.4-2.9-1c-2.3-1.4-4.8-4.3-7.5-8.7c-0.7-1.1-1.4-2.3-2.1-3.5c-0.7-1.2-1.2-2.3-1.6-3.4
			c-0.2-0.8-0.6-3.9-1.2-9.4c-0.2-1.7-0.3-3.4-0.3-5c0-8.6,2.5-16,7.4-22c2.9-3.5,5.9-5.3,9-5.3c1.3,0,2.6,0.4,3.7,1.2
			C155,287.6,155.2,288.2,155.2,289z"/>
		<path class="st0" d="M183.5,333.6c0.1,0.2,0.2,0.4,0.2,0.7c0,1.1-1.2,2-3.5,2.6c-2.6-2-5.7-5.1-9.5-9.2c-4.2-4.6-7.4-7.8-9.5-9.7
			c-0.1,1.3-0.4,4.6-0.8,9.9c-0.2,4-0.7,7.3-1.3,9.7c-0.1,0-0.4,0.1-0.9,0.4c-0.5,0.2-0.9,0.3-1.3,0.2c-2.1-0.5-3.2-2-3.2-4.5
			c0-0.7,0.1-1.7,0.3-2.9c0.2-1.4,0.3-2.3,0.4-2.6c0.2-2.8,0.3-6.2,0.4-10.1v-8c0-6.6,0.4-12.2,1.1-16.7c0.5-3,3.3-4.4,8.4-4.2
			c2.6,0.1,4.9,1.4,6.8,3.9c1.8,2.3,2.7,4.9,2.7,7.6c0,2.3-0.8,4.6-2.5,6.9c-1.4,2-3.2,3.7-5.3,4.8c-0.9,0.5-1.3,1-1.3,1.6
			c0,0.6,0.5,1.4,1.5,2.3c0.8,0.6,1.5,1.3,2.3,1.9c0,0,2.7,2.5,7.9,7.3C179.8,328.5,182.2,331.2,183.5,333.6z M168.3,300.8
			c0.1-0.9,0.2-1.7,0.1-2.3c-0.1-1-0.6-1.9-1.3-2.8c-0.7-0.8-1.8-1.2-3.4-1.2c-1.2,0-1.9,0.4-2.2,1.1c-0.2,1.2-0.4,2.6-0.4,4.2
			c0,0.6,0.1,2.3,0.2,4.9c0.1,2,0.1,3.6,0,4.9C165.5,306.4,167.8,303.5,168.3,300.8z"/>
		<path class="st0" d="M188,296.1c0.1,1.4,0.1,2.9,0.1,4.4c0,3.3-0.3,8.3-1,15c-0.7,6.7-1,11.7-1,15.1c0,1.3,0,2.5,0.1,3.7
			c-0.4,1.4-1.4,2-2.8,2c-2.1-0.1-3.2-1-3.4-2.7c-0.2-1.7-0.3-3.5-0.3-5.4c0-3.3,0.4-8.3,1.2-14.8s1.2-11.5,1.2-14.8
			c0-1.3,0-2.5-0.1-3.7c0.5-0.9,1.3-1.4,2.5-1.4c0.9,0,1.8,0.3,2.7,0.8c0.2-0.1,0.3-0.2,0.4-0.2c0.1,0,0.2,0.2,0.2,0.7
			c0,0.6,0,0.9,0,1C187.9,295.9,187.9,296,188,296.1z"/>
		<path class="st0" d="M216.9,301.3c-0.6,2.6-2.2,5-4.8,7.2c-2.5,1.8-4.9,3.5-7.4,5.2c0.1,0.7,0.6,1.3,1.5,1.6
			c0.8,0.4,1.6,0.7,2.4,1.1c4,2.6,6,5.8,6,9.4c0,2.8-0.9,5.3-2.8,7.7c-1.4,1.8-3.6,3.6-6.4,5.3c-2.3,1.4-4.6,2.7-6.9,4.1
			c-0.6,0.3-1.2,0.5-1.9,0.5c-1.6,0-2.7-0.7-3.3-2c0.1-4.1,0.2-8.2,0.3-12.2c0.1-4.9,0.4-8.9,0.8-12.1c-1-0.7-1.5-1.5-1.5-2.3
			c0-0.4,0.2-0.8,0.5-1.2c0.4-0.4,0.9-0.8,1.5-1.2c0.6-7.4,0.7-14.2,0.4-20.5c-2.3-0.4-3.8-1.5-4.5-3.1c0-0.2,0-0.5,0.3-0.9
			c0.2-0.4,0.3-0.7,0.3-1c1.1-0.8,2.3-1.2,3.7-1.2c0.6,0,1.4,0.1,2.5,0.3c1.4,0.2,2.4,0.4,2.8,0.4c2.3,0.3,4.6,1,6.9,2.2
			c5.2,2.7,8.3,5.4,9.2,8C217,298.4,217.2,300,216.9,301.3z M208,326.3c0.1-0.5,0.1-1,0.1-1.5c0-1.5-0.5-2.8-1.4-3.9
			c-2.5-1.2-4-1.8-4.7-1.8c-0.4,0-0.7,0.1-1.1,0.2c0,0.5,0.1,1,0.1,1.6c0,1-0.1,2.6-0.4,4.7c-0.3,2.1-0.4,3.7-0.4,4.8
			c0,1.6,0.2,3,0.6,4.2c0.6-0.7,1.5-1.4,2.7-2.2c1.2-0.8,2.1-1.4,2.6-2C206.9,329.4,207.6,328,208,326.3z M210.1,297.6
			c-0.2-1.8-1.7-3.2-4.3-4.2c-0.4-0.1-1-0.5-1.8-1c-0.6-0.4-1.1-0.6-1.4-0.6c-0.2,0-0.4,0-0.6,0.1c0,0.8-0.1,1.7-0.1,2.6
			c0,1.3,0.1,3.4,0.3,6.4c0.1,2.8,0.2,4.9,0.1,6.5c0.3,0,0.8-0.3,1.5-0.8c0.7-0.5,1.1-0.8,1.2-0.8c1.4-0.7,2.7-1.8,3.8-3.4
			C209.9,301,210.3,299.3,210.1,297.6z"/>
		<path class="st0" d="M244.6,296.5c-1.8,0.7-4.4,1.6-7.9,2.6c-3.5,1-6.1,1.8-7.9,2.6c-0.4,1.3-0.7,4.1-0.9,8.5
			c0.8,0.3,1.7,0.4,2.7,0.4c0.7,0,1.9-0.1,3.4-0.4c1.5-0.2,2.7-0.4,3.4-0.4c1.3,0,2.5,0.3,3.5,0.9c0.7,1,1,1.6,1,1.9
			c0,0.3-0.2,0.6-0.5,0.8c-0.1,0-0.4,0.4-1,1c-0.4,0.4-0.9,0.6-1.4,0.6c-1,0.2-2.9,0.4-5.6,0.4c-2.3,0-4.1,0.3-5.4,0.9
			c-0.9,3.6-1.4,6.5-1.4,8.6c0,1.4,0.2,2.5,0.6,3.4c2.3,1.6,6.2,2.3,11.8,2c0.4,0,0.8-0.2,1.2-0.5c0.4-0.4,0.8-0.5,1.1-0.5
			c1.3-0.3,2.2,0.7,2.7,3.1c0.1,0.8,0,1.5-0.4,2.2c-0.4,0.7-1,1-1.8,1.1c-5.8,0.2-10.9-0.3-15.2-1.4c-1.3-0.3-2.6-1.1-3.7-2.3
			c-1.1-1.2-1.7-2.5-1.9-3.9c-0.4-4.2-0.4-8,0-11.4c-1.3-0.9-1.9-1.8-1.8-2.7c0-0.4,0.4-0.8,1.1-1.2c0.7-0.4,1.1-0.7,1.2-1.1
			c0.1-0.4,0.3-2.7,0.6-6.9c-2.7-0.5-4-1.6-4-3.1c0-1.4,0.9-2.5,2.5-3.4c1.5-0.6,3.1-1.3,4.6-1.9c1.8-0.9,4.1-1.8,6.8-2.5
			c2.3-0.6,4.6-1.2,7-1.8c0.2,0,0.5-0.1,0.9-0.1c1.3,0,2.8,0.5,4.5,1.5c0,0.2,0.2,0.6,0.4,1.1c0.2,0.5,0.3,0.9,0.3,1.2
			C245.1,296,245,296.3,244.6,296.5z"/>
		<path class="st0" d="M290.3,293.2c-0.3,3.4-1.3,8-2.9,13.7c-2.2,7.7-3.4,12.3-3.8,13.9c-1.1,4.9-3.1,9.4-6.1,13.5
			c-1.9,2.6-4,3.8-6.5,3.8c-2.2,0-3.8-1.4-4.8-4.2c-1.8-4.6-2.7-10-2.7-16.2c0-3.6,0.3-8.1,1-13.7c0,0.5-0.1-1-0.1-4.5
			c0-3,1.2-4.5,3.5-4.5c0.5,0,1,0.1,1.6,0.4c0.6,0.3,1.1,0.5,1.6,0.8c0,2.5,0,6.1-0.2,11c-0.2,5.2-0.4,8.9-0.4,11.2
			c0,2.4,0.1,4.7,0.2,6.7c0.1,1,0.5,3,1.3,5.8c2-2.3,3.6-5.3,4.8-9.1c0.4-1.3,1.2-4.7,2.3-10.4c0.9-4.3,1.9-7.7,3.1-10.1
			c0.3-0.7,0.6-2,0.9-3.9c0.2-1.9,0.5-3.2,0.9-3.9c0.5-1.2,1.4-1.8,2.7-1.8C288.3,291.6,289.6,292.2,290.3,293.2z"/>
		<path class="st0" d="M323,288.8c-0.7,6.5-1.3,13.1-1.9,19.7c-0.8,7.8-1.2,14.3-1.2,19.5c0,1.7,0,3.4,0.1,5c0,0.8-0.2,1.5-0.8,2
			c-0.6,0.6-1.3,0.9-2.1,0.9c-1.5,0-2.7-1-3.8-3.1c-3.1-6.1-6.9-15.6-11.5-28.7c-0.1-0.3-0.2-0.4-0.4-0.4c-0.3,0-0.6,0.3-0.6,1
			c-0.8,7-1.2,14.3-1.2,22c0,3.7,0.1,7.5,0.3,11.3c0,1.4-0.4,2.4-1.2,2.9c-0.3,0.3-0.7,0.5-1.1,0.5c-0.3,0-0.8-0.1-1.3-0.4
			c-0.7-0.3-1.2-0.6-1.4-0.7c-0.6-0.2-1-0.8-1.2-1.8c0-0.8-0.1-1.6-0.1-2.4c-0.1-2.7-0.2-5.6-0.2-8.6c0-5.2,0.3-11.6,0.9-19.4
			c0.9-11.8,1.4-18.3,1.5-19.6c0-1.1,0.9-1.6,2.7-1.6c0.8-0.1,2,0.5,3.6,1.8c1.5,3,3.4,7.8,5.7,14.5c2.2,6.4,4.1,11.2,5.9,14.5
			c0.7-6.5,1.9-16.3,3.4-29.4c0.1-1,0.8-1.5,2.1-1.5c0.4,0,0.9,0.1,1.5,0.2c0.8,0.2,1.2,0.3,1.4,0.4
			C322.5,287.9,322.8,288.3,323,288.8z"/>
	</g>
</g>
<g>
	<g>
		<path class="st0" d="M203.3,495.7c-1.1,2.4-2,4-2.8,4.7c-1.2,1.2-1.9,1.9-2,2c-0.8,0.7-1.7,1.1-2.5,1.2c-0.1,0.6-0.2,1.3-0.2,2
			c0,0.6,0,1.4,0.1,2.5c0.1,1.1,0.1,1.9,0.1,2.5c0,2-0.5,3.5-1.4,4.4l-1.2-0.7c-0.5-0.3-0.8-0.6-0.8-1c-0.3-1.9-0.4-4-0.4-6.3
			c0-1.5,0.1-3.8,0.3-6.9c0.2-3,0.3-5.4,0.3-6.9c0-2.3-0.1-4.3-0.4-6.2c-0.2,0.1-0.4-0.1-0.6-0.4c-0.2-0.4-0.4-0.6-0.5-0.7
			c0.1-0.9,0.4-1.4,0.7-1.4c0.4-0.1,1.3-0.1,2.7,0.1c3.7,0.6,6.5,2.3,8.4,5c0.6,0.9,0.9,1.9,0.9,3
			C204,493.6,203.8,494.6,203.3,495.7z M200.5,492.3c0.1-1.2-0.3-2.1-1.5-2.7c-0.1,0-1.1-0.4-3.1-1.3c0.3,5.3,0.4,9.1,0.3,11.2
			C198.8,497.1,200.2,494.7,200.5,492.3z"/>
		<path class="st0" d="M220.7,501.3c-1.7,3.9-4.1,6.2-7.2,6.9c-0.4,0.1-0.7,0.1-1.1,0.1c-1.6,0-3.3-0.9-4.9-2.7
			c-1.1-1.2-1.7-2.8-1.7-4.7c0-2.1,0.6-4.5,1.9-6.9c0.5-1,1.2-1.9,2-2.7c0.9-0.9,1.7-1.3,2.5-1.3c0.5,0,0.9,0.2,1.3,0.5
			c0.4,0.3,1.5,0.8,3.2,1.4c1.4,0.5,2.4,1.2,2.9,2.4c1,1.9,1.5,3.6,1.5,5C221.1,500,221,500.7,220.7,501.3z M217.2,498.6
			c-0.2-2.1-0.8-3.4-1.7-3.8c-0.1-0.1-0.3-0.1-0.4-0.1c-0.3,0-0.8,0.3-1.3,0.9c-0.6,0.7-1,1.1-1.3,1.2c-0.2,0.1-0.5,0-0.9-0.3
			c-0.4-0.3-0.6-0.4-0.7-0.4c-0.1,0-0.2,0-0.2,0.1c-1,0.9-1.5,2.2-1.5,4.1c0,1.2,0.3,2.3,0.9,3.2c0.8,1.2,1.5,1.8,2,1.8
			c1.3,0,2.5-0.8,3.7-2.4C216.9,501.4,217.4,500,217.2,498.6z"/>
		<path class="st0" d="M240.1,511.1c0.1,0.1,0.1,0.2,0.1,0.4c0,0.7-0.7,1.2-2.1,1.5c-1.5-1.2-3.4-3-5.7-5.5
			c-2.5-2.8-4.4-4.7-5.6-5.8c-0.1,0.8-0.2,2.7-0.5,5.9c-0.1,2.4-0.4,4.3-0.8,5.8c-0.1,0-0.2,0.1-0.5,0.2c-0.3,0.1-0.6,0.2-0.8,0.1
			c-1.3-0.3-1.9-1.2-1.9-2.7c0-0.4,0.1-1,0.2-1.7c0.1-0.8,0.2-1.4,0.2-1.6c0.1-1.7,0.2-3.7,0.2-6V497c0-3.9,0.2-7.3,0.6-10
			c0.3-1.8,2-2.6,5-2.5c1.5,0.1,2.9,0.8,4,2.4c1.1,1.4,1.6,2.9,1.6,4.5c0,1.4-0.5,2.7-1.5,4.1c-0.9,1.2-1.9,2.2-3.2,2.9
			c-0.5,0.3-0.8,0.6-0.8,1c0,0.4,0.3,0.8,0.9,1.4c0.5,0.4,0.9,0.8,1.4,1.1c0,0,1.6,1.5,4.7,4.4C237.9,508,239.3,509.6,240.1,511.1z
			 M231.1,491.5c0.1-0.5,0.1-1,0.1-1.4c-0.1-0.6-0.3-1.2-0.8-1.7c-0.4-0.5-1.1-0.7-2-0.7c-0.7,0-1.1,0.2-1.3,0.7
			c-0.1,0.7-0.2,1.6-0.2,2.5c0,0.4,0,1.4,0.1,2.9c0.1,1.2,0.1,2.2,0,2.9C229.4,494.9,230.7,493.2,231.1,491.5z"/>
	</g>
</g>
<g>
	<g>
		<path class="st0" d="M110,450.1c0.3,1.6-0.8,2.5-3.5,2.7c-1.8,0.1-3.6-0.7-5.4-2.3c-1.5-1.4-2.7-3.6-3.6-6.7
			c-0.8-2.8-1.3-6.8-1.4-12c-0.2-5.8-0.4-9.8-0.8-12c-1,3.6-2.8,9.1-5.2,16.3c-1.4,4-2.3,6.2-2.6,6.8c-1.3,2.5-2.9,3.6-4.8,3.4
			c-3.8-0.9-6.8-3.1-8.9-6.6c-1.4-2.3-2.6-5.9-3.8-10.8c-1.3-5.4-2.4-9.1-3.2-10.9c-3.4,16.9-7.1,29.5-11,37.9
			c-0.6,1.2-2.2,1.1-5-0.2c-2.3-1.1-3.5-2.8-3.5-4.9c0-0.7,0.8-3.3,2.5-7.8c0.7-1.9,3.5-11.3,8.4-28c1.7-5.8,3.4-16.1,5.3-30.7
			c0.2-0.2,0.6-1,1.2-2.5c0.4-1.1,1.1-1.7,2.2-1.7c2.7,0,4.6,0.5,5.6,1.6c0,2.3,0.4,6.1,1.1,11.3c0.8,5.2,1.1,9.2,1.1,11.8
			c0.7,4.5,1.4,9.1,2,13.7c0.9,5.2,2.5,9.4,4.8,12.7c7.7-21.6,12.5-38.7,14.6-51.2c0.3-1.3,1.5-1.9,3.6-1.9c3,0,4.6,1,5,2.9
			c0.6,2.9,0.8,6.3,0.8,10.1c0,1.2-0.1,3.8-0.2,7.9c-0.1,3.4-0.1,6.2,0,8.3C106,424.2,107.6,438.5,110,450.1z"/>
		<path class="st0" d="M157.1,387.3c-3,1.2-7.3,2.6-13.1,4.2c-5.8,1.6-10.1,3-13.1,4.2c-0.7,2.1-1.2,6.8-1.6,14.1
			c1.3,0.5,2.8,0.7,4.4,0.7c1.2,0,3.1-0.2,5.6-0.6c2.6-0.4,4.4-0.6,5.6-0.6c2.2,0,4.2,0.5,5.8,1.5c1.1,1.6,1.7,2.7,1.7,3.2
			c0,0.6-0.3,1-0.8,1.3c-0.2,0.1-0.7,0.6-1.7,1.7c-0.6,0.7-1.4,1.1-2.4,1c-1.7,0.4-4.8,0.6-9.2,0.7c-3.8,0.1-6.8,0.6-9,1.5
			c-1.5,6-2.3,10.7-2.3,14.2c0,2.3,0.3,4.2,1,5.6c3.8,2.7,10.3,3.8,19.5,3.4c0.6,0,1.3-0.3,2-0.9c0.7-0.6,1.3-0.9,1.8-0.9
			c2.2-0.5,3.7,1.2,4.4,5.1c0.2,1.3,0,2.5-0.7,3.6c-0.7,1.1-1.7,1.7-2.9,1.8c-9.7,0.3-18.1-0.4-25.2-2.3c-2.2-0.6-4.3-1.8-6.1-3.8
			c-1.8-1.9-2.9-4.1-3.1-6.6c-0.7-7-0.7-13.4,0-18.9c-2.2-1.5-3.2-3-3-4.5c0.1-0.7,0.7-1.4,1.9-2c1.2-0.6,1.8-1.2,2-1.9
			c0.2-0.6,0.5-4.5,1-11.5c-4.5-0.9-6.7-2.6-6.6-5.1c0.1-2.3,1.5-4.2,4.2-5.6c2.6-1.1,5.1-2.1,7.7-3.2c3-1.5,6.8-2.9,11.3-4.1
			c3.8-1.1,7.7-2.1,11.6-3c0.4-0.1,0.9-0.1,1.4-0.1c2.2,0,4.7,0.8,7.6,2.5c0.1,0.3,0.3,0.9,0.6,1.8c0.3,0.9,0.5,1.5,0.5,1.9
			C157.9,386.4,157.6,386.9,157.1,387.3z"/>
		<path class="st0" d="M210.6,374.4c-1.1,10.8-2.2,21.7-3.2,32.7c-1.4,12.9-2,23.8-2,32.4c0,2.8,0.1,5.6,0.2,8.4
			c0.1,1.3-0.4,2.4-1.4,3.4c-1,1-2.1,1.5-3.4,1.5c-2.5,0-4.6-1.7-6.2-5.1c-5.1-10.1-11.5-26-19.1-47.6c-0.2-0.5-0.4-0.7-0.6-0.7
			c-0.6,0-0.9,0.6-1.1,1.7c-1.4,11.6-2,23.8-2,36.5c0,6.2,0.2,12.4,0.5,18.8c0.1,2.3-0.6,4-2,4.9c-0.6,0.6-1.2,0.8-1.8,0.8
			c-0.6,0-1.3-0.2-2.2-0.7c-1.2-0.6-2-0.9-2.3-1.1c-1-0.3-1.7-1.3-1.9-2.9c-0.1-1.3-0.2-2.6-0.2-4c-0.2-4.5-0.4-9.3-0.4-14.2
			c0-8.6,0.5-19.3,1.4-32.2c1.5-19.6,2.4-30.4,2.5-32.5c0.1-1.8,1.6-2.7,4.4-2.7c1.4-0.2,3.4,0.8,6,3c2.6,4.9,5.7,12.9,9.5,24
			c3.6,10.6,6.9,18.7,9.8,24.2c1.2-10.8,3.1-27,5.6-48.8c0.2-1.6,1.4-2.4,3.5-2.4c0.7,0,1.6,0.1,2.5,0.4c1.3,0.3,2,0.5,2.3,0.6
			C209.8,373.1,210.3,373.6,210.6,374.4z"/>
		<path class="st0" d="M242.3,374.6c0,1.6-1.2,3-3.5,4.2c-0.6,0.3-1.3,0.4-2,0.1c-1.1-0.3-1.7-0.5-1.8-0.5c-0.5,0-1,0.2-1.4,0.7
			c-4.3,4.4-6.5,9.7-6.5,16c0,2.3,0.4,4.5,1.1,6.6c0.3,0.9,3.4,7.2,9.1,18.8c3.8,7.8,5.8,14.4,5.8,19.8c0,4.5-1.1,8.7-3.2,12.9
			c-0.7,1.4-2.5,3.2-5.4,5.3c-2.3,1.7-4.4,2.5-6.2,2.5c-0.7,0-1.4-0.1-2-0.4c-2.4-1.1-3.6-2.4-3.6-4c0-1,0.6-2.1,1.8-3.5
			c0.3-0.4,1.1-0.6,2.3-0.7c1.2-0.1,2-0.6,2.4-1.5c1.7-3.6,2.5-7.2,2.5-10.9c0-5.3-2.6-12.9-7.7-22.9c-5.2-10-7.7-18-7.7-24
			c0-4.9,1-9.3,2.9-13.2c2.2-4.4,5.2-7.6,9.2-9.6c1.8-0.9,3.6-1.3,5.4-1.3c3.4,0,5.9,0.9,7.6,2.8
			C241.9,372.8,242.3,373.7,242.3,374.6z"/>
		<path class="st0" d="M293.2,442.2c0.5,1.3,0.7,2.4,0.7,3.4c0,1.6-0.7,3-2,4.2c-1.4,1.2-2.3,1.8-2.8,1.7c-3.9-0.7-6.4-3.9-7.4-9.6
			c-1.1-6.1-2.4-11.3-4-15.4c-2.7,0.2-5.4,0.5-8.2,0.7c-3.1,0.4-5.6,1.4-7.3,2.9c-0.9,2.5-2,7-3.5,13.4c-1.4,5.9-2.7,10.4-4,13.5
			c-0.6,1.5-2,1.9-4.1,1.2c-2.6-0.9-4-2.1-4.2-3.6c-0.2-3.1,0.6-7.2,2.6-12.4c2.4-5.9,3.7-10.1,4-12.6c0.1-0.7-0.4-1.5-1.6-2.4
			c-1.1-0.9-1.7-1.6-1.7-2.1c0-0.4,0.2-0.8,0.5-1.3c0.4-0.4,1.2-0.8,2.5-1.1c1.3-0.3,2.1-0.7,2.2-1.3c1.4-4,3.7-11.6,6.8-22.6
			c2.6-9.5,5-16.9,7.1-22c0.5-1.1,1.5-1.7,3-1.7c1.1,0,2.1,0.4,3,1.1c2.2,1.9,3.7,4.9,4.3,8.7c0.5,3.3,0.9,6.6,1.3,10
			C284.7,414.1,288.8,429.8,293.2,442.2z M275.7,419c-0.2-3-0.8-6.4-1.6-10.1c-0.8-3.2-1.6-6.5-2.3-9.7c-2.4,6.7-4.5,13.4-6.2,20.1
			C266.9,419.1,270.2,419,275.7,419z"/>
		<path class="st0" d="M316.3,415.8c-1.4,24.8-8.5,40.4-21.5,47c-0.9,0.4-2,0.6-3.2,0.6c-2.2,0-4-0.5-5.6-1.6
			c-2.3-1.6-3.5-3.2-3.5-4.9c0-1.8,1-2.7,3-2.7c0.4,0,1,0.1,1.9,0.4c0.9,0.2,1.5,0.4,1.9,0.4c1.2,0,2.2-0.5,3.1-1.6
			c9.3-10.4,13.9-25.4,13.9-45.3c0-5-0.3-11-0.8-18c-0.2-2.6-0.7-6.5-1.4-11.8c-0.2-0.9,0.1-1.7,0.7-2.4c0.6-0.7,1.5-1,2.5-0.8
			c1-0.1,2.4,0,4.2,0.4c1.9,1.1,3.1,3.2,3.6,6.1c0.2,2.6,0.4,5.2,0.6,7.8C316.6,397.8,316.8,406.6,316.3,415.8z"/>
		<path class="st0" d="M366.3,387.3c-3,1.2-7.3,2.6-13.1,4.2c-5.8,1.6-10.1,3-13.1,4.2c-0.7,2.1-1.2,6.8-1.6,14.1
			c1.3,0.5,2.8,0.7,4.4,0.7c1.2,0,3.1-0.2,5.6-0.6c2.6-0.4,4.4-0.6,5.6-0.6c2.2,0,4.2,0.5,5.8,1.5c1.1,1.6,1.7,2.7,1.7,3.2
			c0,0.6-0.3,1-0.8,1.3c-0.2,0.1-0.7,0.6-1.7,1.7c-0.6,0.7-1.4,1.1-2.4,1c-1.7,0.4-4.8,0.6-9.2,0.7c-3.8,0.1-6.8,0.6-9,1.5
			c-1.5,6-2.3,10.7-2.3,14.2c0,2.3,0.3,4.2,1,5.6c3.8,2.7,10.3,3.8,19.5,3.4c0.6,0,1.3-0.3,2-0.9c0.7-0.6,1.3-0.9,1.8-0.9
			c2.2-0.5,3.7,1.2,4.4,5.1c0.2,1.3,0,2.5-0.7,3.6c-0.7,1.1-1.7,1.7-2.9,1.8c-9.7,0.3-18.1-0.4-25.2-2.3c-2.2-0.6-4.3-1.8-6.1-3.8
			c-1.8-1.9-2.9-4.1-3.1-6.6c-0.7-7-0.7-13.4,0-18.9c-2.2-1.5-3.2-3-3-4.5c0.1-0.7,0.7-1.4,1.9-2c1.2-0.6,1.8-1.2,2-1.9
			c0.2-0.6,0.5-4.5,1-11.5c-4.5-0.9-6.7-2.6-6.6-5.1c0.1-2.3,1.5-4.2,4.2-5.6c2.6-1.1,5.1-2.1,7.7-3.2c3-1.5,6.8-2.9,11.3-4.1
			c3.8-1.1,7.7-2.1,11.6-3c0.4-0.1,0.9-0.1,1.4-0.1c2.2,0,4.7,0.8,7.6,2.5c0.1,0.3,0.3,0.9,0.6,1.8c0.3,0.9,0.5,1.5,0.5,1.9
			C367.1,386.4,366.8,386.9,366.3,387.3z"/>
	</g>
</g>
<g>
	<line class="st1" x1="137.5" y1="495.8" x2="176.6" y2="495.8"/>
</g>
<g>
	<line class="st1" x1="246.9" y1="495.8" x2="286.1" y2="495.8"/>
</g>
<path class="st0" d="M243.6,240.4h-51.8v-10.3c0-8.2,6.7-14.9,14.9-14.9h22.5c8.5,0,15.3,7.1,14.9,15.6L243.6,240.4z"/>
<g>
	<g>
		<rect x="215.8" class="st0" width="4.9" height="169.6"/>
	</g>
	<g>
		<path class="st0" d="M179.7,172.8c-5.9-6.4-4.8-14.8,3.1-22.3c5.3-5.1,10.7-7,16-5.6c12.8,3.2,19.9,24.3,20.2,25.2l0.5,1.5
			l-1.2,1.1c-5.7,5.1-13,7.3-19.8,7.3C190.9,180,183.8,177.3,179.7,172.8z M197.6,149.6c-3.6-0.9-7.4,0.5-11.4,4.4
			c-5.8,5.6-6.8,11-2.9,15.4c6.1,6.6,20.6,8.1,30.4,0.6C211.4,163.8,205.3,151.6,197.6,149.6z"/>
	</g>
	<g>
		<path class="st0" d="M217.6,172.7l-1.2-1.1l0.5-1.5c0.3-0.9,7.4-22,20.2-25.2c5.3-1.3,10.7,0.6,16,5.6c7.9,7.5,9,15.9,3.1,22.3
			c-4.2,4.5-11.2,7.2-18.8,7.2C230.6,180,223.3,177.7,217.6,172.7z M238.3,149.6c-7.7,1.9-13.8,14.2-16.1,20.4
			c9.8,7.5,24.3,6,30.4-0.6c4-4.3,3-9.8-2.9-15.4c-3.3-3.1-6.3-4.7-9.3-4.7C239.7,149.4,239,149.5,238.3,149.6z"/>
	</g>
	<g>
		<path class="st0" d="M194.7,207.9c9.9-1.5,17.3-8.5,21.3-20.2c2.9-8.5,3.1-16.5,3.1-16.8l-4.9-0.1c0,0.3-0.7,29.3-20.2,32.2
			L194.7,207.9z"/>
	</g>
	<g>
		<path class="st0" d="M242.2,207.9l0.7-4.9c-19.5-2.9-20.2-31.9-20.2-32.2l-4.9,0.1c0,0.3,0.1,8.3,3.1,16.8
			C225,199.4,232.3,206.4,242.2,207.9z"/>
	</g>
</g>
<path class="st0" d="M3.8,417.9c0.1,0.2,0.3,0.3,0.5,0.3c0.1,0,0.2,0,0.3-0.1l0.1,0l6.8-0.7l2.8,6.3v0.1c0,0.3,0.3,0.6,0.6,0.6
	c0.3,0,0.6-0.3,0.6-0.6v-0.1l2.7-6.2l6.9,0.6l0.1,0c0.1,0.1,0.2,0.1,0.3,0.1c0.2,0,0.4-0.1,0.5-0.3c0.1-0.1,0.1-0.3,0.1-0.4
	c0-0.1-0.1-0.3-0.3-0.3l-0.1,0l-4.1-5.5l4.1-5.5l0.1,0c0.1-0.1,0.2-0.2,0.3-0.3c0-0.1,0-0.3-0.1-0.4c-0.2-0.3-0.5-0.4-0.8-0.2
	l-0.1,0l-6.8,0.7l-2.8-6.3v-0.1c0-0.3-0.3-0.6-0.6-0.6c-0.3,0-0.6,0.3-0.6,0.6v0.1l-2.8,6.3l-6.8-0.7l-0.1,0
	c-0.3-0.2-0.6-0.1-0.8,0.2c-0.2,0.3-0.1,0.6,0.2,0.8l0.1,0l4.1,5.5L4,417.1l-0.1,0c-0.1,0.1-0.2,0.2-0.3,0.3
	C3.7,417.6,3.7,417.8,3.8,417.9z"/>
<g>
	<g>
		<path class="st0" d="M94.2,549.2c-0.2,12.3-0.4,24.6-0.5,36.8c-0.1,12,0,24.2,1.2,36.1c0.3,3.1,0.7,6.1,1.2,9.1
			c0.2,1.4-0.1,2.8-1.1,4.1c-1,1.4-2.2,2.2-3.5,2.6c-2.7,0.7-5.1-0.5-7.4-3.7c-10.3-14.6-19-30.4-27.8-46c-0.3-0.5-0.5-0.7-0.8-0.6
			c-0.6,0.2-1,0.9-1,2.2c0.2,13.6,1.4,27.1,3.3,40.6c1,6.7,2.2,13.5,3.5,20.4c0.5,2.5,0,4.5-1.4,6c-0.5,0.8-1.1,1.3-1.8,1.5
			c-0.6,0.2-1.4,0.1-2.4-0.1c-1.3-0.3-2.2-0.4-2.6-0.4c-1.2,0-2.1-0.9-2.5-2.5c-0.4-1.3-0.6-2.8-0.9-4.3c-1-4.8-2-10-2.8-15.3
			c-1.8-11.8-3-23.7-3.8-35.5c-0.8-12.1-1.4-24.5-2.4-36.4c-0.2-1.9,1.6-3.4,4.8-4.5c1.5-0.5,4.1-0.2,7.5,1.3
			c3.7,4.5,8.6,12.2,14.4,23.2c5.6,10.4,10.3,18.2,14.3,23.4c0.1-18.4,0.4-36.8,0.8-55.2c0.1-1.8,1.4-3.1,3.9-3.7
			c0.9-0.2,1.9-0.3,3.1-0.3c1.6,0,2.5,0,2.8,0C93.1,547.9,93.8,548.4,94.2,549.2z"/>
		<path class="st0" d="M156,611.4c0.6,1.3,0.9,2.5,0.9,3.6c0.1,1.8-0.7,3.5-2.1,5.1c-1.5,1.6-2.5,2.4-3,2.5c-4.4,0-7.3-2.9-8.7-8.9
			c-1.6-6.5-3.3-11.9-5.3-16.1c-3.1,0.9-6.2,1.8-9.2,2.8c-3.5,1.1-7,3.1-8.1,5c-1.1,2.1-1.7,8.2-2.8,15.6c-1,6.8-2.1,12.1-3.2,15.8
			c-0.6,1.8-2,2.6-4.3,2.4c-2.9-0.2-4.6-1.2-4.9-2.9c-0.6-3.3-0.1-8.1,1.7-14.3c2-7.1,3.2-12.1,3.2-14.9c0-0.8-0.6-1.6-2-2.2
			c-1.3-0.7-2-1.3-2.1-1.8c0-0.4,0.1-1,0.5-1.5c0.4-0.6,1.3-1.2,2.8-1.9c1.5-0.7,2.3-1.3,2.4-2c1.3-4.8,3.3-13.7,6.1-26.6
			c2.4-11.1,4.7-19.8,6.9-26c0.5-1.4,1.7-2.2,3.5-2.6c1.3-0.3,2.6-0.1,3.7,0.5c2.8,1.6,4.7,4.5,5.6,8.6c0.8,3.5,1.4,7.1,2.1,10.7
			C144.4,578.8,149.3,595.5,156,611.4z M135,589.8c-0.4-3.2-1.2-6.9-2.4-10.7c-1-3.3-2.2-6.7-3.2-10.1c-2.4,8-4.4,15.9-5.9,23.7
			C124.9,592.1,128.8,591.1,135,589.8z"/>
		<path class="st0" d="M224.1,531.2c-7,12.2-12.1,25.3-17.3,38.4c-3.3,8.8-5.3,18-7.5,27c-2.2,9.2-4.3,18.5-7.6,27.4
			c-0.8,1-1.7,1.6-2.8,1.8c-1.2,0.2-2.8-0.2-4.8-1.3c-5.4-12.5-9-25.9-12.7-38.9c-3.8-13.3-7.9-26.7-14.7-39
			c1.2-2.4,2.2-3.7,3.1-3.9c0.8-0.6,1.5-0.9,2.3-1.1c1.5-0.3,4.3,0.6,8.2,2.7c3.6,6.8,7.1,15.3,10.1,25.3c2.6,8.7,4.9,17.6,7.4,26.3
			c3.5-11.4,6.9-23.2,10.7-34.3c3.8-11.2,8.3-22.7,13.9-33.5c1.6-2.5,4.2-3.5,7.8-3.1c0.4,0,0.9,0.3,1.4,0.8
			c0.6,0.5,1.3,0.7,2.2,0.7c0.9,0,1.3,0.6,1.3,1.8C225,529.4,224.7,530.3,224.1,531.2z"/>
		<path class="st0" d="M243.3,538.5c0,2.6,0,5.2-0.2,8c-0.4,6.1-1.7,15.3-3.7,27.6c-1.5,9.2-3,18.5-3.5,27.8
			c-0.1,2.3-0.2,4.6-0.2,6.8c-1,2.6-2.8,4-5.5,4.2c-3.9,0.3-5.9-1.2-6.2-4.2c-0.2-3.1-0.3-6.4-0.1-9.8c0.3-6.1,1.4-15.2,3.5-27.4
			c2.1-12.2,3.4-21.3,3.7-27.2c0.1-2.3,0.1-4.6,0.1-6.8c1.1-1.8,2.8-2.8,5.1-3c1.9-0.2,3.7,0.2,5.5,1c0.4-0.3,0.7-0.5,0.9-0.5
			c0.3,0,0.5,0.5,0.4,1.3c-0.1,1-0.2,1.7-0.1,1.9C243,538.2,243.1,538.4,243.3,538.5z"/>
		<path class="st0" d="M290.1,573.3c-1.2,2.1-2.3,4.2-3.4,6.2c-1.3,2.4-2.8,4.4-4.3,5.9c-3.3,3.6-6.5,7.2-9.7,10.7
			c-3.8,4.3-7.1,7.3-10,9.1c-1,1.1-2.1,2.3-3.3,3.6c-1.2,1.2-2.3,1.9-3.4,2c-0.5,0-1.2,0-1.9-0.2c-0.7-0.2-1.5-0.5-2.3-0.7
			c-0.8-0.3-1.6-0.9-1.7-1.6c-0.6-3,0.1-7.7,0.4-12c0.3-4.4,0.9-10.9,1.9-19.5c1-8.7,1.7-15.2,2-19.5c0.4-5.8,0.6-11.1,0.5-15.8
			c-0.1-0.1-1.1-1-3-2.8c-1.2-1.1-1.8-2.1-1.7-3.1c0-0.4,0.2-0.9,0.4-1.4c0.6-1.1,1.7-1.8,3.4-2.1c1.3-0.2,2.6-0.5,3.9-0.7
			c8.2,1,16.5,4.7,24.9,11c2.2,1.7,3.9,3.5,5.1,5.3c4,6.1,5.6,11.9,5,17.4C292.6,568,291.6,570.7,290.1,573.3z M281.3,559.5
			c-0.3-5.5-5-10.3-14.2-13.9c-1.9,15.7-3.4,31.4-4.6,47.2c8.5-7.8,17.3-17.9,18.7-29.6C281.3,562,281.4,560.8,281.3,559.5z"/>
		<path class="st0" d="M346.6,595.7c0.3,1.4,0.4,2.7,0.2,3.7c-0.3,1.8-1.4,3.3-3.2,4.6c-1.8,1.3-3,1.9-3.5,1.8
			c-4.4-0.9-6.7-4.3-7-10.5c-0.3-6.7-0.9-12.3-2-16.8c-3.3,0.3-6.6,0.5-9.8,0.8c-3.7,0.4-7.7,1.6-9.1,3.3c-1.5,1.8-3.4,7.7-6,14.7
			c-2.4,6.5-4.6,11.4-6.4,14.9c-0.9,1.6-2.6,2.1-4.8,1.5c-2.9-0.8-4.4-2.2-4.3-3.8c0.1-3.3,1.6-8,4.6-13.7c3.5-6.5,5.7-11.2,6.3-14
			c0.2-0.8-0.3-1.7-1.5-2.6c-1.2-0.9-1.8-1.7-1.7-2.2c0.1-0.4,0.3-0.9,0.8-1.4c0.5-0.5,1.5-0.9,3.1-1.3c1.6-0.4,2.6-0.8,2.8-1.5
			c2.3-4.5,6.1-12.8,11.5-24.8c4.7-10.4,8.8-18.5,12.2-24c0.8-1.2,2.1-1.8,4.1-1.8c1.4,0,2.6,0.4,3.6,1.2c2.5,2.1,3.8,5.4,3.9,9.6
			c0.1,3.6,0,7.2-0.1,10.9C341.6,561.4,343.1,578.7,346.6,595.7z M329.9,570.2c0.2-3.3,0.2-7-0.2-11c-0.4-3.5-0.8-7.1-1.2-10.6
			c-4,7.3-7.6,14.7-10.8,22C319.3,570.4,323.4,570.2,329.9,570.2z"/>
		<path class="st0" d="M397.6,575.2c-1.4,1.9-2.8,3.9-4.1,5.8c-1.6,2.3-3.3,4.1-5,5.4c-3.7,3.2-7.4,6.4-11,9.6
			c-4.3,3.8-8,6.5-11.1,7.9c-1.1,1-2.4,2.1-3.7,3.2c-1.3,1.1-2.6,1.6-3.7,1.6c-0.6,0-1.2-0.2-1.9-0.5c-0.7-0.3-1.5-0.6-2.3-1
			c-0.8-0.4-1.5-1.1-1.6-1.8c-0.3-3,1-7.6,1.7-11.9c0.8-4.3,2.1-10.7,4.1-19.2c2-8.5,3.4-14.9,4.2-19.2c1.1-5.7,1.8-10.9,2.2-15.7
			c-0.1-0.1-1-1.1-2.7-3.1c-1.1-1.2-1.5-2.3-1.4-3.2c0.1-0.4,0.3-0.9,0.5-1.3c0.7-1,1.9-1.6,3.7-1.7c1.3-0.1,2.7-0.2,4-0.2
			c8.1,1.9,16.2,6.5,23.9,13.8c2,1.9,3.5,3.9,4.6,5.9c3.4,6.5,4.4,12.5,3.2,17.9C400.6,570.1,399.4,572.8,397.6,575.2z M390.2,560.5
			c0.3-5.5-3.9-10.8-12.8-15.5c-3.7,15.4-6.9,30.9-9.8,46.4c9.4-6.7,19.4-15.8,22.1-27.3C389.9,563,390.1,561.7,390.2,560.5z"/>
	</g>
</g>
<g>
	<path class="st0" d="M292.3,655.3c-1.4,1.5-2.9,2.3-4.5,2.4c-33.5,2-62.1,4.2-85.9,6.8c-7.6,1.3-18.9,2.9-33.7,4.9
		c-5.4,1.2-13.7,2.8-24.8,4.8c-1.2,0.2-2.1-0.2-2.8-1c-0.4-0.5-0.9-1.4-1.4-2.6c-0.5-1.2-0.8-2.1-1-2.5c-0.7-1-1-2.2-1-3.7
		c0-1.5,0.4-2.5,1.2-2.9c3-2.1,6.9-3.6,11.8-4.5c4.3-0.6,8.6-1.2,13-1.9c16.3-3.5,37.2-6.1,62.7-7.9c20.9-1.6,41.7-3.1,62.4-4.7
		c1.3-0.1,2.5,0.4,3.6,1.6C295.3,648.2,295.5,651.9,292.3,655.3z"/>
</g>
</svg>
