<?xml version="1.0" encoding="utf-8"?>
<!-- Generator: Adobe Illustrator 22.0.1, SVG Export Plug-In . SVG Version: 6.00 Build 0)  -->
<svg version="1.1" id="Capa_1" xmlns="http://www.w3.org/2000/svg" xmlns:xlink="http://www.w3.org/1999/xlink" x="0px" y="0px"
	 viewBox="0 0 728.3 244.9" style="enable-background:new 0 0 728.3 244.9;" xml:space="preserve">
<style type="text/css">
	.st0{enable-background:new    ;}
	.st1{fill:#FFFFFF;}
</style>
<g>
	<g>
		<g class="st0">
			<path class="st1" d="M80.8,7.2v6.1h9.7v3.2h-9.7v7.7h-3.7V4.1h14.7v3.1H80.8z"/>
			<path class="st1" d="M109,17.7H97c0.4,2.2,2.3,3.7,5,3.7c1.7,0,3.1-0.5,4.2-1.7l1.9,2.2c-1.4,1.6-3.5,2.5-6.2,2.5
				c-5.2,0-8.5-3.3-8.5-7.9s3.4-7.9,7.9-7.9s7.8,3.1,7.8,7.9C109.1,16.9,109.1,17.3,109,17.7z M96.9,15.3h8.7
				c-0.3-2.2-2-3.7-4.3-3.7C99,11.5,97.3,13,96.9,15.3z"/>
			<path class="st1" d="M112.5,2.8h3.6v21.4h-3.6V2.8z"/>
			<path class="st1" d="M120.4,4.1c0-1.2,1-2.2,2.3-2.2S125,2.8,125,4c0,1.3-0.9,2.2-2.3,2.2C121.4,6.3,120.4,5.4,120.4,4.1z
				 M120.9,8.8h3.6v15.4h-3.6V8.8z"/>
			<path class="st1" d="M127.9,16.5c0-4.6,3.5-7.9,8.3-7.9c3,0,5.4,1.2,6.6,3.6l-2.8,1.6c-0.9-1.5-2.3-2.1-3.8-2.1
				c-2.6,0-4.7,1.8-4.7,4.8s2,4.8,4.7,4.8c1.5,0,2.9-0.7,3.8-2.1l2.8,1.6c-1.2,2.3-3.6,3.6-6.6,3.6
				C131.4,24.4,127.9,21.1,127.9,16.5z"/>
			<path class="st1" d="M160.1,17.7H148c0.4,2.2,2.3,3.7,5,3.7c1.7,0,3.1-0.5,4.2-1.7l1.9,2.2c-1.4,1.6-3.5,2.5-6.2,2.5
				c-5.2,0-8.5-3.3-8.5-7.9s3.4-7.9,7.9-7.9s7.8,3.1,7.8,7.9C160.1,16.9,160.1,17.3,160.1,17.7z M148,15.3h8.7
				c-0.3-2.2-2-3.7-4.3-3.7C150,11.5,148.3,13,148,15.3z"/>
			<path class="st1" d="M161.8,22.7l1.4-2.7c1.4,0.9,3.4,1.5,5.4,1.5c2.3,0,3.2-0.6,3.2-1.7c0-2.9-9.5-0.2-9.5-6.3
				c0-2.9,2.6-4.8,6.8-4.8c2,0,4.4,0.5,5.8,1.3l-1.4,2.7c-1.5-0.9-2.9-1.2-4.4-1.2c-2.2,0-3.2,0.7-3.2,1.7c0,3.1,9.5,0.3,9.5,6.4
				c0,2.9-2.6,4.7-7,4.7C165.8,24.4,163.2,23.7,161.8,22.7z"/>
			<path class="st1" d="M190.4,7.2v6.1h9.7v3.2h-9.7v7.7h-3.7V4.1h14.7v3.1H190.4z"/>
			<path class="st1" d="M203.9,4.1c0-1.2,1-2.2,2.3-2.2s2.3,0.9,2.3,2.1c0,1.3-0.9,2.2-2.3,2.2C204.9,6.3,203.9,5.4,203.9,4.1z
				 M204.4,8.8h3.6v15.4h-3.6V8.8z"/>
			<path class="st1" d="M227.1,17.7H215c0.4,2.2,2.3,3.7,5,3.7c1.7,0,3.1-0.5,4.2-1.7l1.9,2.2c-1.4,1.6-3.5,2.5-6.2,2.5
				c-5.2,0-8.5-3.3-8.5-7.9s3.4-7.9,7.9-7.9s7.8,3.1,7.8,7.9C227.2,16.9,227.1,17.3,227.1,17.7z M215,15.3h8.7
				c-0.3-2.2-2-3.7-4.3-3.7C217.1,11.5,215.4,13,215,15.3z"/>
			<path class="st1" d="M228.9,22.7l1.4-2.7c1.4,0.9,3.4,1.5,5.4,1.5c2.3,0,3.2-0.6,3.2-1.7c0-2.9-9.5-0.2-9.5-6.3
				c0-2.9,2.6-4.8,6.8-4.8c2,0,4.4,0.5,5.8,1.3l-1.4,2.7c-1.5-0.9-2.9-1.2-4.4-1.2c-2.2,0-3.2,0.7-3.2,1.7c0,3.1,9.5,0.3,9.5,6.4
				c0,2.9-2.6,4.7-7,4.7C232.8,24.4,230.2,23.7,228.9,22.7z"/>
			<path class="st1" d="M254.7,23.4c-0.9,0.7-2.2,1-3.5,1c-3.4,0-5.3-1.8-5.3-5.2v-7.4h-2.5V9h2.5V5.4h3.6V9h4.1v2.9h-4.1v7.3
				c0,1.5,0.7,2.3,2.1,2.3c0.7,0,1.5-0.2,2-0.6L254.7,23.4z"/>
			<path class="st1" d="M270.5,15.2v9h-3.4v-1.9c-0.9,1.3-2.5,2.1-4.8,2.1c-3.5,0-5.7-1.9-5.7-4.6c0-2.6,1.7-4.6,6.4-4.6h4V15
				c0-2.1-1.3-3.3-3.8-3.3c-1.7,0-3.5,0.6-4.7,1.5l-1.4-2.6c1.6-1.3,4-1.9,6.5-1.9C267.9,8.7,270.5,10.8,270.5,15.2z M266.9,19.4
				v-1.8h-3.7c-2.4,0-3.1,0.9-3.1,2c0,1.3,1.1,2.1,2.9,2.1C264.8,21.8,266.3,21,266.9,19.4z"/>
			<path class="st1" d="M273.3,22.7l1.4-2.7c1.4,0.9,3.4,1.5,5.4,1.5c2.3,0,3.2-0.6,3.2-1.7c0-2.9-9.5-0.2-9.5-6.3
				c0-2.9,2.6-4.8,6.8-4.8c2,0,4.4,0.5,5.8,1.3l-1.4,2.7c-1.5-0.9-2.9-1.2-4.4-1.2c-2.2,0-3.2,0.7-3.2,1.7c0,3.1,9.5,0.3,9.5,6.4
				c0,2.9-2.6,4.7-7,4.7C277.3,24.4,274.7,23.7,273.3,22.7z"/>
			<path class="st1" d="M307.1,23.4c-0.9,0.7-2.2,1-3.5,1c-3.4,0-5.3-1.8-5.3-5.2v-7.4h-2.5V9h2.5V5.4h3.6V9h4.1v2.9h-4v7.3
				c0,1.5,0.7,2.3,2.1,2.3c0.7,0,1.5-0.2,2-0.6L307.1,23.4z"/>
			<path class="st1" d="M323.9,17.7h-12.1c0.4,2.2,2.3,3.7,5,3.7c1.7,0,3.1-0.5,4.2-1.7l1.9,2.2c-1.4,1.6-3.5,2.5-6.2,2.5
				c-5.2,0-8.5-3.3-8.5-7.9s3.4-7.9,7.9-7.9s7.8,3.1,7.8,7.9C324,16.9,324,17.3,323.9,17.7z M311.9,15.3h8.7c-0.3-2.2-2-3.7-4.3-3.7
				C313.9,11.5,312.2,13,311.9,15.3z"/>
			<path class="st1" d="M350.5,2.8v21.4H347v-2c-1.2,1.5-3,2.2-5.1,2.2c-4.5,0-7.8-3.1-7.8-7.9s3.3-7.9,7.8-7.9c2,0,3.7,0.7,4.9,2.1
				V2.8H350.5z M346.9,16.5c0-2.9-2-4.8-4.6-4.8s-4.6,1.9-4.6,4.8s2,4.8,4.6,4.8S346.9,19.5,346.9,16.5z"/>
			<path class="st1" d="M369.6,17.7h-12.1c0.4,2.2,2.3,3.7,5,3.7c1.7,0,3.1-0.5,4.2-1.7l1.9,2.2c-1.4,1.6-3.5,2.5-6.2,2.5
				c-5.2,0-8.5-3.3-8.5-7.9s3.4-7.9,7.9-7.9s7.8,3.1,7.8,7.9C369.6,16.9,369.6,17.3,369.6,17.7z M357.5,15.3h8.7
				c-0.3-2.2-2-3.7-4.3-3.7C359.5,11.5,357.8,13,357.5,15.3z"/>
			<path class="st1" d="M371.3,22.7l1.4-2.7c1.4,0.9,3.4,1.5,5.4,1.5c2.3,0,3.2-0.6,3.2-1.7c0-2.9-9.5-0.2-9.5-6.3
				c0-2.9,2.6-4.8,6.8-4.8c2,0,4.4,0.5,5.8,1.3l-1.4,2.7c-1.5-0.9-2.9-1.2-4.4-1.2c-2.2,0-3.2,0.7-3.2,1.7c0,3.1,9.5,0.3,9.5,6.4
				c0,2.9-2.6,4.7-7,4.7C375.3,24.4,372.7,23.7,371.3,22.7z"/>
			<path class="st1" d="M402.3,17.7h-12.1c0.4,2.2,2.3,3.7,5,3.7c1.7,0,3.1-0.5,4.2-1.7l1.9,2.2c-1.4,1.6-3.5,2.5-6.2,2.5
				c-5.2,0-8.5-3.3-8.5-7.9s3.4-7.9,7.9-7.9s7.8,3.1,7.8,7.9C402.3,16.9,402.3,17.3,402.3,17.7z M390.2,15.3h8.7
				c-0.3-2.2-2-3.7-4.3-3.7C392.2,11.5,390.5,13,390.2,15.3z"/>
			<path class="st1" d="M418.2,15.2v9h-3.4v-1.9c-0.9,1.3-2.5,2.1-4.8,2.1c-3.5,0-5.7-1.9-5.7-4.6c0-2.6,1.7-4.6,6.4-4.6h4V15
				c0-2.1-1.3-3.3-3.8-3.3c-1.7,0-3.5,0.6-4.7,1.5l-1.4-2.6c1.6-1.3,4-1.9,6.5-1.9C415.7,8.7,418.2,10.8,418.2,15.2z M414.6,19.4
				v-1.8h-3.7c-2.4,0-3.1,0.9-3.1,2c0,1.3,1.1,2.1,2.9,2.1C412.5,21.8,414,21,414.6,19.4z"/>
			<path class="st1" d="M430.8,2.8h3.6v21.4h-3.6V2.8z"/>
			<path class="st1" d="M452,15.2v9h-3.4v-1.9c-0.9,1.3-2.5,2.1-4.8,2.1c-3.5,0-5.7-1.9-5.7-4.6c0-2.6,1.7-4.6,6.4-4.6h4V15
				c0-2.1-1.3-3.3-3.8-3.3c-1.7,0-3.5,0.6-4.7,1.5l-1.4-2.6c1.6-1.3,4-1.9,6.5-1.9C449.4,8.7,452,10.8,452,15.2z M448.4,19.4v-1.8
				h-3.7c-2.4,0-3.1,0.9-3.1,2c0,1.3,1.1,2.1,2.9,2.1C446.2,21.8,447.8,21,448.4,19.4z"/>
			<path class="st1" d="M468.5,8v1h4.2v2.9h-4.1v12.4H465V11.8h-2.5V9h2.5V8c0-3.2,1.9-5.3,5.5-5.3c1.2,0,2.4,0.3,3.3,0.8l-1,2.7
				c-0.5-0.4-1.2-0.6-2-0.6C469.3,5.6,468.5,6.4,468.5,8z"/>
			<path class="st1" d="M487.7,15.2v9h-3.4v-1.9c-0.9,1.3-2.5,2.1-4.8,2.1c-3.5,0-5.7-1.9-5.7-4.6c0-2.6,1.7-4.6,6.4-4.6h4V15
				c0-2.1-1.3-3.3-3.8-3.3c-1.7,0-3.5,0.6-4.7,1.5l-1.4-2.6c1.6-1.3,4-1.9,6.5-1.9C485.1,8.7,487.7,10.8,487.7,15.2z M484.1,19.4
				v-1.8h-3.7c-2.4,0-3.1,0.9-3.1,2c0,1.3,1.1,2.1,2.9,2.1C482,21.8,483.5,21,484.1,19.4z"/>
			<path class="st1" d="M518,15.4v8.8h-3.6v-8.3c0-2.7-1.3-4.1-3.5-4.1c-2.4,0-4,1.6-4,4.6v7.8h-3.6v-8.3c0-2.7-1.3-4.1-3.5-4.1
				c-2.4,0-4,1.6-4,4.6v7.8h-3.6V8.8h3.4v2c1.2-1.4,2.9-2.1,5-2.1c2.2,0,4.1,0.8,5.2,2.6c1.2-1.6,3.3-2.6,5.8-2.6
				C515.4,8.7,518,10.8,518,15.4z"/>
			<path class="st1" d="M522.1,4.1c0-1.2,1-2.2,2.3-2.2s2.3,0.9,2.3,2.1c0,1.3-0.9,2.2-2.3,2.2C523.1,6.3,522.1,5.4,522.1,4.1z
				 M522.6,8.8h3.6v15.4h-3.6V8.8z"/>
			<path class="st1" d="M530.9,2.8h3.6v21.4h-3.6V2.8z"/>
			<path class="st1" d="M538.8,4.1c0-1.2,1-2.2,2.3-2.2s2.3,0.9,2.3,2.1c0,1.3-0.9,2.2-2.3,2.2C539.7,6.3,538.8,5.4,538.8,4.1z
				 M539.3,8.8h3.6v15.4h-3.6V8.8z"/>
			<path class="st1" d="M560.4,15.2v9H557v-1.9c-0.9,1.3-2.5,2.1-4.8,2.1c-3.5,0-5.7-1.9-5.7-4.6c0-2.6,1.7-4.6,6.4-4.6h4V15
				c0-2.1-1.3-3.3-3.8-3.3c-1.7,0-3.5,0.6-4.7,1.5l-1.4-2.6c1.6-1.3,4-1.9,6.5-1.9C557.9,8.7,560.4,10.8,560.4,15.2z M556.8,19.4
				v-1.8h-3.7c-2.4,0-3.1,0.9-3.1,2c0,1.3,1.1,2.1,2.9,2.1C554.7,21.8,556.2,21,556.8,19.4z"/>
			<path class="st1" d="M577.4,7.2h-6.7V4.1h17.1v3.2h-6.7v17h-3.7L577.4,7.2L577.4,7.2z"/>
			<path class="st1" d="M598.8,8.7v3.4c-0.3-0.1-0.6-0.1-0.8-0.1c-2.7,0-4.5,1.6-4.5,4.7v7.5h-3.6V8.8h3.4V11
				C594.4,9.5,596.3,8.7,598.8,8.7z"/>
			<path class="st1" d="M601.4,4.1c0-1.2,1-2.2,2.3-2.2S606,2.8,606,4c0,1.3-0.9,2.2-2.3,2.2C602.4,6.3,601.4,5.4,601.4,4.1z
				 M601.9,8.8h3.6v15.4h-3.6V8.8z"/>
			<path class="st1" d="M610.2,2.8h3.6v21.4h-3.6V2.8z"/>
			<path class="st1" d="M617.3,16.5c0-4.6,3.5-7.9,8.3-7.9c3,0,5.4,1.2,6.6,3.6l-2.8,1.6c-0.9-1.5-2.3-2.1-3.8-2.1
				c-2.6,0-4.7,1.8-4.7,4.8s2,4.8,4.7,4.8c1.5,0,2.9-0.7,3.8-2.1l2.8,1.6c-1.2,2.3-3.6,3.6-6.6,3.6
				C620.7,24.4,617.3,21.1,617.3,16.5z"/>
			<path class="st1" d="M649.4,17.7h-12.1c0.4,2.2,2.3,3.7,5,3.7c1.7,0,3.1-0.5,4.2-1.7l1.9,2.2c-1.4,1.6-3.5,2.5-6.2,2.5
				c-5.2,0-8.5-3.3-8.5-7.9s3.4-7.9,7.9-7.9s7.8,3.1,7.8,7.9C649.5,16.9,649.4,17.3,649.4,17.7z M637.3,15.3h8.7
				c-0.3-2.2-2-3.7-4.3-3.7C639.4,11.5,637.7,13,637.3,15.3z"/>
		</g>
		<g class="st0">
			<path class="st1" d="M15.5,48.4H19v8c-2,1.7-5,2.6-7.8,2.6C5,59,0.3,54.6,0.3,48.6s4.7-10.3,11-10.3c3.4,0,6.2,1.1,8.1,3.3
				L17,43.9c-1.6-1.6-3.4-2.3-5.6-2.3c-4.3,0-7.3,2.9-7.3,7.1c0,4.1,3,7.1,7.3,7.1c1.4,0,2.8-0.3,4.1-1V48.4z"/>
			<path class="st1" d="M32.6,43.2v3.4c-0.3-0.1-0.6-0.1-0.8-0.1c-2.7,0-4.5,1.6-4.5,4.7v7.5h-3.6V43.3h3.4v2.2
				C28.1,44,30,43.2,32.6,43.2z"/>
			<path class="st1" d="M48.4,49.7v9H45v-1.9c-0.9,1.3-2.5,2.1-4.8,2.1c-3.5,0-5.7-1.9-5.7-4.6c0-2.6,1.7-4.6,6.4-4.6h4v-0.2
				c0-2.1-1.3-3.3-3.8-3.3c-1.7,0-3.5,0.6-4.7,1.5L35,45.1c1.6-1.3,4-1.9,6.5-1.9C45.8,43.2,48.4,45.3,48.4,49.7z M44.8,53.9v-1.8
				h-3.7c-2.4,0-3.1,0.9-3.1,2c0,1.3,1.1,2.1,2.9,2.1C42.7,56.3,44.2,55.5,44.8,53.9z"/>
			<path class="st1" d="M51.9,51c0-4.6,3.5-7.9,8.3-7.9c3,0,5.4,1.2,6.6,3.6L64,48.3c-0.9-1.5-2.3-2.1-3.8-2.1
				c-2.6,0-4.7,1.8-4.7,4.8s2,4.8,4.7,4.8c1.5,0,2.9-0.7,3.8-2.1l2.8,1.6c-1.2,2.3-3.6,3.6-6.6,3.6C55.3,58.9,51.9,55.6,51.9,51z"/>
			<path class="st1" d="M69.4,38.6c0-1.2,1-2.2,2.3-2.2s2.3,0.9,2.3,2.1c0,1.3-0.9,2.2-2.3,2.2C70.3,40.8,69.4,39.9,69.4,38.6z
				 M69.9,43.3h3.6v15.4h-3.6V43.3z"/>
			<path class="st1" d="M91,49.7v9h-3.4v-1.9c-0.9,1.3-2.5,2.1-4.8,2.1c-3.5,0-5.7-1.9-5.7-4.6c0-2.6,1.7-4.6,6.4-4.6h4v-0.2
				c0-2.1-1.3-3.3-3.8-3.3c-1.7,0-3.5,0.6-4.7,1.5l-1.4-2.6c1.6-1.3,4-1.9,6.5-1.9C88.5,43.2,91,45.3,91,49.7z M87.4,53.9v-1.8h-3.7
				c-2.4,0-3.1,0.9-3.1,2c0,1.3,1.1,2.1,2.9,2.1C85.3,56.3,86.8,55.5,87.4,53.9z"/>
			<path class="st1" d="M93.9,57.2l1.4-2.7c1.4,0.9,3.4,1.5,5.4,1.5c2.3,0,3.2-0.6,3.2-1.7c0-2.9-9.5-0.2-9.5-6.3
				c0-2.9,2.6-4.8,6.8-4.8c2,0,4.4,0.5,5.8,1.3l-1.4,2.7c-1.5-0.9-2.9-1.2-4.4-1.2C99,46,98,46.7,98,47.7c0,3.1,9.5,0.3,9.5,6.4
				c0,2.9-2.6,4.7-7,4.7C97.8,58.9,95.3,58.2,93.9,57.2z"/>
			<path class="st1" d="M134.7,51c0,4.8-3.3,7.9-7.8,7.9c-2,0-3.7-0.7-4.9-2.1v7.5h-3.6v-21h3.4v2c1.2-1.5,3-2.2,5.1-2.2
				C131.4,43.2,134.7,46.3,134.7,51z M131.1,51c0-2.9-2-4.8-4.5-4.8c-2.6,0-4.6,1.9-4.6,4.8s2,4.8,4.6,4.8
				C129.1,55.8,131.1,54,131.1,51z"/>
			<path class="st1" d="M136.9,51c0-4.6,3.5-7.9,8.2-7.9c4.8,0,8.2,3.3,8.2,7.9s-3.4,7.9-8.2,7.9C140.3,58.9,136.9,55.6,136.9,51z
				 M149.6,51c0-2.9-2-4.8-4.6-4.8s-4.5,1.9-4.5,4.8s2,4.8,4.5,4.8C147.7,55.8,149.6,54,149.6,51z"/>
			<path class="st1" d="M165.6,43.2v3.4c-0.3-0.1-0.6-0.1-0.8-0.1c-2.7,0-4.5,1.6-4.5,4.7v7.5h-3.6V43.3h3.4v2.2
				C161.2,44,163,43.2,165.6,43.2z"/>
			<path class="st1" d="M189.6,49.7v9h-3.4v-1.9c-0.9,1.3-2.5,2.1-4.8,2.1c-3.5,0-5.7-1.9-5.7-4.6c0-2.6,1.7-4.6,6.4-4.6h4v-0.2
				c0-2.1-1.3-3.3-3.8-3.3c-1.7,0-3.5,0.6-4.7,1.5l-1.4-2.6c1.6-1.3,4-1.9,6.5-1.9C187.1,43.2,189.6,45.3,189.6,49.7z M186,53.9
				v-1.8h-3.7c-2.4,0-3.1,0.9-3.1,2c0,1.3,1.1,2.1,2.9,2.1C183.9,56.3,185.4,55.5,186,53.9z"/>
			<path class="st1" d="M193.1,51c0-4.6,3.5-7.9,8.3-7.9c3,0,5.4,1.2,6.6,3.6l-2.8,1.6c-0.9-1.5-2.3-2.1-3.8-2.1
				c-2.6,0-4.7,1.8-4.7,4.8s2,4.8,4.7,4.8c1.5,0,2.9-0.7,3.8-2.1l2.8,1.6c-1.2,2.3-3.6,3.6-6.6,3.6C196.6,58.9,193.1,55.6,193.1,51z
				"/>
			<path class="st1" d="M209.6,51c0-4.6,3.5-7.9,8.2-7.9c4.8,0,8.2,3.3,8.2,7.9s-3.4,7.9-8.2,7.9S209.6,55.6,209.6,51z M222.3,51
				c0-2.9-2-4.8-4.6-4.8s-4.5,1.9-4.5,4.8s2,4.8,4.5,4.8C220.4,55.8,222.3,54,222.3,51z"/>
			<path class="st1" d="M255.1,49.9v8.8h-3.6v-8.3c0-2.7-1.3-4.1-3.5-4.1c-2.4,0-4,1.6-4,4.6v7.8h-3.6v-8.3c0-2.7-1.3-4.1-3.5-4.1
				c-2.4,0-4,1.6-4,4.6v7.8h-3.6V43.3h3.4v2c1.2-1.4,2.9-2.1,5-2.1c2.2,0,4.1,0.8,5.2,2.6c1.2-1.6,3.3-2.6,5.8-2.6
				C252.5,43.2,255.1,45.3,255.1,49.9z"/>
			<path class="st1" d="M276,51c0,4.8-3.3,7.9-7.8,7.9c-2,0-3.7-0.7-4.9-2.1v7.5h-3.6v-21h3.4v2c1.2-1.5,3-2.2,5.1-2.2
				C272.7,43.2,276,46.3,276,51z M272.4,51c0-2.9-2-4.8-4.5-4.8c-2.6,0-4.6,1.9-4.6,4.8s2,4.8,4.6,4.8C270.4,55.8,272.4,54,272.4,51
				z"/>
			<path class="st1" d="M292.1,49.7v9h-3.4v-1.9c-0.9,1.3-2.5,2.1-4.8,2.1c-3.5,0-5.7-1.9-5.7-4.6c0-2.6,1.7-4.6,6.4-4.6h4v-0.2
				c0-2.1-1.3-3.3-3.8-3.3c-1.7,0-3.5,0.6-4.7,1.5l-1.4-2.6c1.6-1.3,4-1.9,6.5-1.9C289.6,43.2,292.1,45.3,292.1,49.7z M288.5,53.9
				v-1.8h-3.7c-2.4,0-3.1,0.9-3.1,2c0,1.3,1.1,2.1,2.9,2.1C286.4,56.3,287.9,55.5,288.5,53.9z"/>
			<path class="st1" d="M311.9,49.9v8.8h-3.6v-8.3c0-2.7-1.4-4.1-3.7-4.1c-2.6,0-4.3,1.6-4.3,4.6v7.8h-3.6V43.3h3.4v2
				c1.2-1.4,3.1-2.2,5.3-2.2C309.1,43.2,311.9,45.3,311.9,49.9z M301.1,41.1h-1.9c0.1-2.4,1.3-3.9,3.1-3.9c1.9,0,2.9,1.9,3.9,1.9
				c0.8,0,1.4-0.6,1.4-1.6h1.9c-0.1,2.2-1.3,3.8-3.1,3.8c-1.9,0-2.9-1.9-3.9-1.9C301.7,39.3,301.1,40,301.1,41.1z"/>
			<path class="st1" d="M329.3,49.7v9h-3.4v-1.9c-0.9,1.3-2.5,2.1-4.8,2.1c-3.5,0-5.7-1.9-5.7-4.6c0-2.6,1.7-4.6,6.4-4.6h4v-0.2
				c0-2.1-1.3-3.3-3.8-3.3c-1.7,0-3.5,0.6-4.7,1.5l-1.4-2.6c1.6-1.3,4-1.9,6.5-1.9C326.8,43.2,329.3,45.3,329.3,49.7z M325.7,53.9
				v-1.8H322c-2.4,0-3.1,0.9-3.1,2c0,1.3,1.1,2.1,2.9,2.1C323.6,56.3,325.1,55.5,325.7,53.9z"/>
			<path class="st1" d="M342.8,43.2v3.4c-0.3-0.1-0.6-0.1-0.8-0.1c-2.7,0-4.5,1.6-4.5,4.7v7.5h-3.6V43.3h3.4v2.2
				C338.4,44,340.3,43.2,342.8,43.2z"/>
			<path class="st1" d="M361,49.9v8.8h-3.6v-8.3c0-2.7-1.4-4.1-3.7-4.1c-2.6,0-4.3,1.6-4.3,4.6v7.8h-3.6V43.3h3.4v2
				c1.2-1.4,3.1-2.2,5.3-2.2C358.3,43.2,361,45.3,361,49.9z"/>
			<path class="st1" d="M364.5,51c0-4.6,3.5-7.9,8.2-7.9c4.8,0,8.2,3.3,8.2,7.9s-3.4,7.9-8.2,7.9S364.5,55.6,364.5,51z M377.2,51
				c0-2.9-2-4.8-4.6-4.8s-4.5,1.9-4.5,4.8s2,4.8,4.5,4.8C375.3,55.8,377.2,54,377.2,51z"/>
			<path class="st1" d="M382.5,57.2l1.4-2.7c1.4,0.9,3.4,1.5,5.4,1.5c2.3,0,3.2-0.6,3.2-1.7c0-2.9-9.5-0.2-9.5-6.3
				c0-2.9,2.6-4.8,6.8-4.8c2,0,4.4,0.5,5.8,1.3l-1.4,2.7c-1.5-0.9-2.9-1.2-4.4-1.2c-2.2,0-3.2,0.7-3.2,1.7c0,3.1,9.5,0.3,9.5,6.4
				c0,2.9-2.6,4.7-7,4.7C386.5,58.9,383.9,58.2,382.5,57.2z"/>
			<path class="st1" d="M419.9,49.7v9h-3.4v-1.9c-0.9,1.3-2.5,2.1-4.8,2.1c-3.5,0-5.7-1.9-5.7-4.6c0-2.6,1.7-4.6,6.4-4.6h4v-0.2
				c0-2.1-1.3-3.3-3.8-3.3c-1.7,0-3.5,0.6-4.7,1.5l-1.4-2.6c1.6-1.3,4-1.9,6.5-1.9C417.4,43.2,419.9,45.3,419.9,49.7z M416.3,53.9
				v-1.8h-3.7c-2.4,0-3.1,0.9-3.1,2c0,1.3,1.1,2.1,2.9,2.1C414.2,56.3,415.7,55.5,416.3,53.9z"/>
			<path class="st1" d="M432.5,37.3h3.6v21.4h-3.6V37.3z"/>
			<path class="st1" d="M439.5,51c0-4.6,3.5-7.9,8.2-7.9c4.8,0,8.2,3.3,8.2,7.9s-3.4,7.9-8.2,7.9C443,58.9,439.5,55.6,439.5,51z
				 M452.3,51c0-2.9-2-4.8-4.6-4.8s-4.5,1.9-4.5,4.8s2,4.8,4.5,4.8C450.3,55.8,452.3,54,452.3,51z"/>
			<path class="st1" d="M467.3,37.3h3.6v21.4h-3.6V37.3z"/>
			<path class="st1" d="M488.5,49.7v9h-3.4v-1.9c-0.9,1.3-2.5,2.1-4.8,2.1c-3.5,0-5.7-1.9-5.7-4.6c0-2.6,1.7-4.6,6.4-4.6h4v-0.2
				c0-2.1-1.3-3.3-3.8-3.3c-1.7,0-3.5,0.6-4.7,1.5l-1.4-2.6c1.6-1.3,4-1.9,6.5-1.9C485.9,43.2,488.5,45.3,488.5,49.7z M484.9,53.9
				v-1.8h-3.7c-2.4,0-3.1,0.9-3.1,2c0,1.3,1.1,2.1,2.9,2.1C482.8,56.3,484.3,55.5,484.9,53.9z"/>
			<path class="st1" d="M502,43.2v3.4c-0.3-0.1-0.6-0.1-0.8-0.1c-2.7,0-4.5,1.6-4.5,4.7v7.5h-3.6V43.3h3.4v2.2
				C497.5,44,499.4,43.2,502,43.2z"/>
			<path class="st1" d="M520.1,43.3v13c0,5.6-2.9,8.1-8.3,8.1c-2.9,0-5.7-0.7-7.5-2.2l1.6-2.7c1.4,1.1,3.5,1.8,5.7,1.8
				c3.4,0,4.9-1.6,4.9-4.7V56c-1.3,1.4-3.1,2-5.2,2c-4.4,0-7.8-3-7.8-7.5s3.4-7.4,7.8-7.4c2.2,0,4.1,0.7,5.3,2.2v-2H520.1z
				 M516.6,50.6c0-2.6-2-4.3-4.7-4.3s-4.7,1.8-4.7,4.3c0,2.6,2,4.4,4.7,4.4S516.6,53.2,516.6,50.6z"/>
			<path class="st1" d="M523.6,51c0-4.6,3.5-7.9,8.2-7.9c4.8,0,8.2,3.3,8.2,7.9s-3.4,7.9-8.2,7.9S523.6,55.6,523.6,51z M536.3,51
				c0-2.9-2-4.8-4.6-4.8s-4.5,1.9-4.5,4.8s2,4.8,4.5,4.8C534.4,55.8,536.3,54,536.3,51z"/>
			<path class="st1" d="M566.4,37.3v21.4H563v-2c-1.2,1.5-3,2.2-5.1,2.2c-4.5,0-7.8-3.1-7.8-7.9s3.3-7.9,7.8-7.9c2,0,3.7,0.7,5,2.1
				v-7.9C562.9,37.3,566.4,37.3,566.4,37.3z M562.9,51c0-2.9-2-4.8-4.6-4.8s-4.6,1.9-4.6,4.8s2,4.8,4.6,4.8S562.9,54,562.9,51z"/>
			<path class="st1" d="M585.5,52.2h-12.1c0.4,2.2,2.3,3.7,5,3.7c1.7,0,3.1-0.5,4.2-1.7l1.9,2.2c-1.4,1.6-3.5,2.5-6.2,2.5
				c-5.2,0-8.5-3.3-8.5-7.9s3.4-7.9,7.9-7.9s7.8,3.1,7.8,7.9C585.6,51.4,585.6,51.8,585.5,52.2z M573.4,49.8h8.7
				c-0.3-2.2-2-3.7-4.3-3.7C575.5,46,573.8,47.5,573.4,49.8z"/>
			<path class="st1" d="M611.4,52.2h-12.1c0.4,2.2,2.3,3.7,5,3.7c1.7,0,3.1-0.5,4.2-1.7l1.9,2.2c-1.4,1.6-3.5,2.5-6.2,2.5
				c-5.2,0-8.5-3.3-8.5-7.9s3.4-7.9,7.9-7.9s7.8,3.1,7.8,7.9C611.4,51.4,611.4,51.8,611.4,52.2z M599.3,49.8h8.7
				c-0.3-2.2-2-3.7-4.3-3.7C601.3,46,599.6,47.5,599.3,49.8z"/>
			<path class="st1" d="M613.1,57.2l1.4-2.7c1.4,0.9,3.4,1.5,5.4,1.5c2.3,0,3.2-0.6,3.2-1.7c0-2.9-9.5-0.2-9.5-6.3
				c0-2.9,2.6-4.8,6.8-4.8c2,0,4.4,0.5,5.8,1.3l-1.4,2.7c-1.5-0.9-2.9-1.2-4.4-1.2c-2.2,0-3.2,0.7-3.2,1.7c0,3.1,9.5,0.3,9.5,6.4
				c0,2.9-2.6,4.7-7,4.7C617.1,58.9,614.5,58.2,613.1,57.2z"/>
			<path class="st1" d="M638.9,57.9c-0.9,0.7-2.2,1-3.5,1c-3.4,0-5.3-1.8-5.3-5.2v-7.4h-2.5v-2.9h2.5v-3.5h3.6v3.5h4.1v2.9h-4.1v7.3
				c0,1.5,0.7,2.3,2.1,2.3c0.7,0,1.5-0.2,2-0.6L638.9,57.9z"/>
			<path class="st1" d="M655.8,52.2h-12.1c0.4,2.2,2.3,3.7,5,3.7c1.7,0,3.1-0.5,4.2-1.7l1.9,2.2c-1.4,1.6-3.5,2.5-6.2,2.5
				c-5.2,0-8.5-3.3-8.5-7.9s3.4-7.9,7.9-7.9s7.8,3.1,7.8,7.9C655.8,51.4,655.8,51.8,655.8,52.2z M643.7,49.8h8.7
				c-0.3-2.2-2-3.7-4.3-3.7C645.7,46,644,47.5,643.7,49.8z"/>
			<path class="st1" d="M680.1,49.7v9h-3.4v-1.9c-0.9,1.3-2.5,2.1-4.8,2.1c-3.5,0-5.7-1.9-5.7-4.6c0-2.6,1.7-4.6,6.4-4.6h4v-0.2
				c0-2.1-1.3-3.3-3.8-3.3c-1.7,0-3.5,0.6-4.7,1.5l-1.4-2.6c1.6-1.3,4-1.9,6.5-1.9C677.5,43.2,680.1,45.3,680.1,49.7z M676.5,53.9
				v-1.8h-3.7c-2.4,0-3.1,0.9-3.1,2c0,1.3,1.1,2.1,2.9,2.1C674.4,56.3,675.9,55.5,676.5,53.9z"/>
			<path class="st1" d="M699.8,49.9v8.8h-3.6v-8.3c0-2.7-1.4-4.1-3.7-4.1c-2.6,0-4.3,1.6-4.3,4.6v7.8h-3.6V43.3h3.4v2
				c1.2-1.4,3.1-2.2,5.3-2.2C697.1,43.2,699.8,45.3,699.8,49.9z M689,41.1h-1.9c0.1-2.4,1.3-3.9,3.1-3.9c1.9,0,2.9,1.9,3.9,1.9
				c0.8,0,1.4-0.6,1.4-1.6h1.9c-0.1,2.2-1.3,3.8-3.1,3.8c-1.9,0-2.9-1.9-3.9-1.9C689.6,39.3,689.1,40,689,41.1z"/>
			<path class="st1" d="M703.3,51c0-4.6,3.5-7.9,8.2-7.9c4.8,0,8.2,3.3,8.2,7.9s-3.4,7.9-8.2,7.9C706.8,58.9,703.3,55.6,703.3,51z
				 M716.1,51c0-2.9-2-4.8-4.6-4.8S707,48.1,707,51s2,4.8,4.5,4.8C714.1,55.8,716.1,54,716.1,51z"/>
			<path class="st1" d="M721.6,56.5c0-1.4,1.1-2.4,2.4-2.4s2.4,1,2.4,2.4s-1.1,2.4-2.4,2.4S721.6,57.9,721.6,56.5z"/>
		</g>
	</g>
	<g>
		<path class="st1" d="M41.7,19.1c0.1,0.1,0.2,0.2,0.3,0.2s0.1,0,0.2,0l0,0l4.4-0.5l1.8,4.1l0,0c0,0.2,0.2,0.4,0.4,0.4
			s0.4-0.2,0.4-0.4l0,0l1.8-4l4.5,0.4l0,0c0.1,0,0.1,0,0.2,0c0.1,0,0.3-0.1,0.3-0.2s0.1-0.2,0-0.3c0-0.1-0.1-0.2-0.2-0.2l0,0
			L53.2,15l2.6-3.6l0,0c0.1-0.1,0.1-0.1,0.2-0.2c0-0.1,0-0.2,0-0.3c-0.1-0.2-0.3-0.2-0.5-0.1l0,0l-4.4,0.5l-1.8-4.1l0,0
			c0-0.2-0.2-0.4-0.4-0.4S48.5,7,48.5,7.2l0,0l-1.8,4.1l-4.4-0.5l0,0c-0.2-0.1-0.4,0-0.5,0.1c-0.1,0.2,0,0.4,0.1,0.5l0,0l2.6,3.6
			l-2.6,3.6l0,0c-0.1,0-0.1,0.1-0.2,0.2C41.6,18.9,41.6,19,41.7,19.1z"/>
		<path class="st1" d="M672,19.1c0.1,0.1,0.2,0.2,0.3,0.2s0.1,0,0.2,0l0,0l4.4-0.5l1.8,4.1l0,0c0,0.2,0.2,0.4,0.4,0.4
			s0.4-0.2,0.4-0.4l0,0l1.8-4l4.5,0.4l0,0c0.1,0,0.1,0,0.2,0c0.1,0,0.3-0.1,0.3-0.2s0.1-0.2,0-0.3c0-0.1-0.1-0.2-0.2-0.2l0,0
			l-2.6-3.6l2.6-3.6l0,0c0.1-0.1,0.1-0.1,0.2-0.2c0-0.1,0-0.2,0-0.3c-0.1-0.2-0.3-0.2-0.5-0.1l0,0l-4.4,0.5l-1.8-4.1l0,0
			c0-0.2-0.2-0.4-0.4-0.4s-0.4,0.2-0.4,0.4l0,0l-1.8,4.1l-4.4-0.5l0,0c-0.2-0.1-0.4,0-0.5,0.1c-0.1,0.2,0,0.4,0.1,0.5l0,0l2.6,3.6
			l-2.6,3.6l0,0c-0.1,0-0.1,0.1-0.2,0.2C671.9,18.9,671.9,19,672,19.1z"/>
	</g>
	<g>
		<g>
			<g>
				<g>
					<path class="st1" d="M355,192.5c-3.7,0-6.7-3-6.7-6.7s3-6.7,6.7-6.7s6.7,3,6.7,6.7C361.6,189.5,358.7,192.5,355,192.5"/>
					<path class="st1" d="M381.9,231.6c-1,0-1.8-0.8-1.8-1.8v-56.1h-11.4v58.6c0,4.7,3.8,8.5,8.5,8.5h8.2v-9.2L381.9,231.6
						L381.9,231.6z"/>
					<polygon class="st1" points="259.3,178.1 259.3,192.6 268.5,192.6 268.5,188.4 282.4,188.4 282.4,231.9 278.3,231.9 
						278.3,241.1 298,241.1 298,231.9 293.9,231.9 293.9,188.4 307.8,188.4 307.8,192.6 317,192.6 317,178.1 					"/>
					<polygon class="st1" points="307.8,199 307.8,231.6 303.7,231.6 303.7,240.7 331.5,240.7 331.5,231.6 319.3,231.6 319.3,208.2 
						331.5,208.2 331.5,199 					"/>
					<polygon class="st1" points="337,199 337,208.2 349.3,208.2 349.3,231.6 337,231.6 337,240.7 364.8,240.7 364.8,231.6 
						360.7,231.6 360.7,199 					"/>
					<path class="st1" d="M409.1,231.6c-3.7-0.2-11.6-1.9-11.6-11.8c0-9.9,8.4-12,11.6-12s4,0.2,5.6,0.5v7.5h9.2v-14.1
						c0,0-3.4-1.5-6.2-2.1c-2.2-0.5-4.5-1-8.5-1c-5,0-22.4,1.8-22.4,21.4c0,19.5,17.4,20.9,22.4,20.9H421v-9.2L409.1,231.6
						L409.1,231.6z"/>
					<g>
						<path class="st1" d="M468.6,219.9c0-16.4-13.2-21.2-20.3-21.2c-6.1,0-20.3,3.9-20.3,21.2c0,19.5,17.4,20.9,22.4,20.9h11.8
							v-9.2h-12.4c-3.2,0-10.3-2-10.9-7.5h29.4C468.4,222.8,468.6,221.4,468.6,219.9z M457.9,215.8h-19v-0.4
							c0.2-4.2,4.4-7.9,9.5-7.9c5.2,0,9.5,3.6,9.5,7.9V215.8z"/>
					</g>
				</g>
			</g>
		</g>
	</g>
</g>
</svg>
