<?xml version="1.0" encoding="utf-8"?>
<!-- Generator: Adobe Illustrator 22.0.1, SVG Export Plug-In . SVG Version: 6.00 Build 0)  -->
<svg version="1.1" id="Capa_1" xmlns="http://www.w3.org/2000/svg" xmlns:xlink="http://www.w3.org/1999/xlink" x="0px" y="0px"
	 viewBox="0 0 471.6 416.3" style="enable-background:new 0 0 471.6 416.3;" xml:space="preserve">
<style type="text/css">
	.st0{fill:#FFFFFF;}
</style>
<g>
	<g>
		<path class="st0" d="M52.7,63.4c-3.2,2-7.9,4.4-14.1,7.5c-6.2,3-12.7,5.7-13.9,7.5c-0.9,1.3-0.4,7.9,0.2,16.1
			c1.5,0.3,3.1,0.2,4.9-0.1c1.3-0.3,3.3-0.9,6.1-1.9c2.7-1,4.8-1.6,6.1-1.9c2.4-0.5,5.2-0.4,6.5,0.5c1.3,1,2.1,2.7,2.2,3.2
			c0.1,0.6-0.2,1.2-0.8,1.7c-0.2,0.1-0.7,0.9-1.6,2.2c-0.6,0.9-1.4,1.5-2.5,1.6c-1.8,0.8-5.1,1.7-9.9,2.7c-4,0.9-7.2,2.1-9.5,3.5
			c-0.8,7-0.9,12.5-0.3,16.4c0.4,2.6,1,4.6,1.9,6c4.4,2.2,11.4,2.1,21.1-0.2c0.7-0.1,1.4-0.6,2-1.4c0.7-0.8,1.3-1.3,1.8-1.4
			c2.3-1,4.1,0.6,5.3,4.8c0.4,1.4,0.3,2.8-0.2,4.1c-0.6,1.4-1.5,2.2-2.9,2.6c-9.9,2.4-18.9,3.1-26.7,2.6c-2.4-0.2-4.8-1.1-7-2.9
			c-2.2-1.8-3.7-4-4.3-6.7c-1.9-7.7-2.9-14.8-3-21.2c-2.6-1.2-4-2.7-3.9-4.4c0-0.8,0.5-1.7,1.7-2.7c1.2-0.9,1.8-1.8,1.9-2.5
			c0.1-0.8-0.2-5.1-0.7-13.1c-5,0-7.7-1.4-8-4.2c-0.3-2.6,1-5.2,3.8-7.2c2.5-1.8,5.6-3.5,8.1-5.2c3-2.1,7-4.7,11.9-7.1
			c4.2-2,8.5-4,12.8-5.9c0.4-0.2,1-0.3,1.6-0.4c2.4-0.4,5.3,0,8.7,1.3c0.1,0.3,0.4,1,0.9,1.9c0.4,0.9,0.7,1.6,0.7,2.1
			C53.5,62.2,53.3,62.8,52.7,63.4z"/>
		<path class="st0" d="M124.9,122.8c0.4,1.8-0.8,3-3.5,3.6c-1.8,0.4-3.8-0.2-5.8-1.7c-1.7-1.3-3.1-3.6-4.3-6.9
			c-1.1-3.1-1.9-7.5-2.4-13.3c-0.6-6.5-1.1-11-1.7-13.4c-0.9,4.3-2.4,10.7-4.4,19.2c-1.2,4.7-2,7.4-2.3,8.1
			c-1.2,3.1-2.7,4.6-4.8,4.7c-4.1-0.3-7.5-2.3-10-5.8c-1.7-2.3-3.4-6.1-5.1-11.5c-1.9-5.8-3.4-9.8-4.5-11.7
			c-1.8,15-3.5,30.1-7.7,44.7c-0.4,1.5-2.2,1.7-5.3,0.7c-2.6-0.8-4-2.4-4.2-4.8c-0.1-0.8,0.5-3.9,1.7-9.2c2.1-11,3.9-22.1,5.9-33.1
			c1.9-11.8,2.3-23.7,2.9-35.6c0.2-0.2,0.6-1.3,1.1-3.1c0.4-1.3,1.1-2.1,2.3-2.3c3.1-0.5,5.2-0.3,6.5,0.7c0.2,2.6,0.9,6.8,2.2,12.6
			c1.3,5.7,1.8,10.4,2.2,13.1c0.7,4.7,2.2,10.1,3.4,15.1c1.3,5.6,3.5,10.2,6.2,13.5c4.9-19.9,10.2-40,12.7-60.4
			c0.3-1.5,1.6-2.5,4-2.8c3.3-0.5,5.3,0.3,5.8,2.4c0.8,3.2,1.2,6.9,1.4,11.2c0.1,1.4,0.1,4.4,0.1,9.1c0,3.7,0.2,6.8,0.4,9.2
			C118.8,91.1,121,107.2,124.9,122.8z"/>
		<path class="st0" d="M166.8,66.9c-3.3,8-6.1,13.3-8.4,16.1c-3.6,4.3-5.6,6.7-5.9,7.1c-2.5,2.5-6.7,4-7.4,4.9
			c-0.6,0.7-0.4,4.1-0.3,6.5c0.1,1.7,0.3,4.3,0.6,7.8c0.4,3.5,0.6,6,0.6,7.7c0.2,6.2-1,11.1-3.5,14.6c-1.4-0.6-2.2-0.9-3.6-1.5
			c-1.5-0.6-2.3-1.5-2.5-2.7c-1.1-5.8-1.8-12.4-2.1-19.7c-0.2-4.8-0.2-12.1,0-21.8c0.2-9.7,0.3-17,0.1-21.9
			c-0.2-7.1-0.8-13.6-1.7-19.5c-0.7,0.4-1.4,0-2.1-1.1c-0.7-1.1-1.2-1.7-1.7-1.8c0.4-3,1.1-4.6,2.2-4.7c1.4-0.7,4.2-1,8.5-0.9
			c10.2,0,20.4,3.8,26.7,12.1c1.9,2.5,2.8,5.5,2.8,9C168.9,60.1,168.2,63.4,166.8,66.9z M158.1,57.4c0.4-3.7-1.1-6.4-4.6-8
			c-0.2,0-3.4-0.9-9.8-2.7c0.8,11.7,1.8,23.5,1.6,35.3C151.2,75.9,157.1,66.1,158.1,57.4z"/>
		<path class="st0" d="M221.9,39.3c-3.4,1.7-8.4,3.9-14.9,6.4c-6.5,2.6-13.2,4.7-14.8,6.5c-1.1,1.3-1.5,7.9-2,16.2
			c1.4,0.4,3,0.5,4.9,0.2c1.3-0.2,3.4-0.6,6.2-1.4c2.8-0.8,4.9-1.2,6.2-1.4c2.5-0.3,5.2,0,6.3,0.9c1.2,1,1.7,2.8,1.7,3.4
			c0,0.6-0.4,1.2-1,1.6c-0.2,0.1-0.8,0.8-1.9,2.1c-0.7,0.9-1.6,1.4-2.7,1.4c-1.9,0.7-5.2,1.3-10.1,2c-4.1,0.6-7.4,1.5-9.9,2.8
			c-1.7,7-2.6,12.4-2.6,16.4c0,2.7,0.3,4.7,1,6.2c4,2.5,10.9,3,20.9,1.4c0.7-0.1,1.4-0.5,2.2-1.3c0.8-0.8,1.4-1.2,2-1.2
			c2.4-0.8,3.9,0.9,4.6,5.3c0.2,1.4-0.1,2.8-0.8,4.1c-0.8,1.3-1.8,2.1-3.2,2.3c-10.1,1.7-19.1,1.7-26.7,0.5
			c-2.4-0.3-4.5-1.5-6.5-3.4c-2-1.9-3.1-4.3-3.3-7c-0.8-7.9-0.8-15,0-21.4c-2.4-1.4-3.5-3-3.3-4.7c0.1-0.8,0.8-1.7,2-2.5
			c1.3-0.8,2-1.6,2.2-2.4c0.2-0.8,0.6-5.2,1.2-13.2c-5-0.4-7.4-2-7.3-4.8c0.1-2.7,1.7-5.2,4.8-6.9c2.7-1.6,6-3,8.7-4.6
			c3.3-1.9,7.6-4.2,12.7-6.2c4.5-1.7,9-3.3,13.5-4.9c0.5-0.1,1-0.2,1.6-0.3c2.5-0.3,5.3,0.4,8.4,2c0.1,0.4,0.3,1,0.6,2
			c0.3,1,0.5,1.7,0.4,2.1C222.9,38.1,222.6,38.7,221.9,39.3z"/>
		<path class="st0" d="M263.2,21.2c-0.2,2.5-2,4.2-5.3,5.1c-4.3,1.2-7.1,2.4-8.1,3.6c-11.3,11.5-16.7,27.8-17.6,43.5
			c-0.4,8,0.5,15.6,2.5,22.5c1.7,5.7,2.9,9.4,3.7,11.1c1.9,4.3,4.3,7.2,7.3,8.9c1.2,0.5,2.6,0.9,3.7,1.4c1.2,0.5,1.9,1.8,1.8,3.2
			c-0.1,1.5-0.6,2.8-1.5,4.1c-0.9,1.3-2,1.8-2.9,1.6c-1-0.1-2.7-0.5-4.9-1.3c-3.9-2.2-8-7.2-12.5-15c-1.1-2-2.2-4-3.4-6.2
			c-1.2-2.1-2-4.2-2.5-6.1c-0.4-1.4-0.9-7.3-1.5-17.5c-0.2-3.2-0.3-6.3-0.1-9.3c0.8-15.4,5.8-31,16-42.9c5.9-7.1,11.9-11,17.9-11.5
			c2.6-0.2,4.8,0.3,6.8,1.7C263.1,18.7,263.4,19.7,263.2,21.2z"/>
		<path class="st0" d="M306.7,32c-3.5,1.6-8.6,3.5-15.3,5.9c-6.7,2.3-13.5,4.2-15.2,6c-1.2,1.2-2.1,7.8-3.2,16.1
			c1.4,0.4,3,0.6,4.8,0.4c1.3-0.1,3.4-0.5,6.3-1.2c2.9-0.7,5-1.1,6.3-1.2c2.5-0.2,5.2,0.2,6.2,1.2c1.1,1.1,1.5,2.9,1.5,3.4
			c-0.1,0.6-0.4,1.2-1.1,1.6c-0.2,0.1-0.9,0.8-2.1,2.1c-0.8,0.9-1.7,1.3-2.8,1.3c-1.9,0.6-5.3,1.1-10.2,1.6c-4.1,0.4-7.5,1.2-10,2.5
			c-2.2,6.9-3.5,12.4-3.8,16.3c-0.2,2.7,0,4.7,0.5,6.2c3.8,2.7,10.7,3.4,20.7,2.2c0.7-0.1,1.4-0.5,2.3-1.2c0.8-0.7,1.5-1.1,2-1.2
			c2.5-0.7,3.9,1.1,4.2,5.4c0.1,1.5-0.3,2.8-1.1,4.1c-0.8,1.3-2,2.1-3.3,2.2c-10.1,1.3-19.2,1-26.6-0.4c-2.3-0.4-4.4-1.7-6.2-3.7
			c-1.8-2-2.8-4.4-2.8-7.1c-0.2-7.9,0.2-15.1,1.5-21.5c-2.3-1.5-3.3-3.1-2.9-4.8c0.1-0.8,0.9-1.7,2.2-2.5c1.3-0.8,2.1-1.6,2.3-2.3
			c0.2-0.7,0.9-5.1,2.1-13.2c-4.9-0.6-7.2-2.3-6.9-5.1c0.3-2.7,2.1-5.1,5.2-6.8c2.8-1.5,6.1-2.8,9-4.3c3.4-1.8,7.9-3.9,13.1-5.7
			c4.6-1.5,9.2-3,13.7-4.4c0.5-0.1,1-0.2,1.7-0.3c2.5-0.2,5.2,0.6,8.3,2.3c0,0.4,0.2,1,0.4,2c0.2,1,0.3,1.7,0.3,2.2
			C307.7,30.9,307.4,31.5,306.7,32z"/>
		<path class="st0" d="M364.8,99.4c0,1.8-1.4,2.9-4.2,3.2c-1.9,0.2-3.7-0.6-5.4-2.4c-1.4-1.5-2.3-3.9-2.7-7.4
			c-0.4-3.2-0.2-7.7,0.5-13.5c0.8-6.6,1.2-11.1,1.1-13.6c-1.8,4.2-4.6,10.4-8.4,18.7c-2.2,4.6-3.5,7.2-3.9,7.8
			c-1.8,2.9-3.7,4.3-5.7,4.1c-4-0.8-6.8-3.1-8.6-6.9c-1.1-2.5-2-6.5-2.6-12c-0.6-6-1.3-10.1-2-12.2c-4.9,14.8-9.8,29.8-16.9,43.7
			c-0.7,1.4-2.5,1.4-5.3,0.1c-2.3-1.1-3.4-2.9-3.1-5.2c0.1-0.8,1.3-3.8,3.6-9c4.3-10.8,8.4-21.6,12.7-32.4
			c4.3-11.5,7.2-23.4,10.3-35.2c0.2-0.2,0.9-1.2,1.8-3c0.6-1.3,1.5-2,2.7-2.1c3.1-0.2,5.2,0.3,6.2,1.4c-0.4,2.7-0.6,6.9-0.5,12.8
			c0,5.9-0.4,10.5-0.6,13.4c-0.3,4.7,0.1,10.3,0.1,15.4c0.1,5.7,1.3,10.5,3.3,14.2c9-19.3,18.3-38.6,25.1-58.9
			c0.6-1.5,2.1-2.3,4.5-2.4c3.4-0.1,5.1,0.9,5.2,3.1c0.1,3.3-0.3,7.1-1,11.4c-0.2,1.4-0.9,4.4-1.8,9.1c-0.7,3.7-1.2,6.8-1.5,9.2
			C365.7,67.1,364.3,83.2,364.8,99.4z"/>
		<path class="st0" d="M421.1,66c-6,9.8-14.6,19-26.1,22.2c-1.2,0.3-2.3,0.5-3.4,0.5c-4.9,0.1-9.3-2.5-13.4-8
			c-2.7-3.7-3.6-8.7-2.5-14.8c1.2-6.8,4.4-14.1,9.7-22.1c2.3-3.4,4.9-6.3,7.8-8.7c3.3-2.9,6.3-4.4,8.8-4.5c1.4,0,2.7,0.5,3.7,1.5
			c1,1.1,4.2,2.4,9.2,4.2c4,1.4,6.5,3.8,7.6,7.2c1.8,6.1,2.2,11.3,1.3,15.7C423.3,61.7,422.4,63.9,421.1,66z M412.3,57.7
			c0.7-6.6-0.2-10.6-2.8-11.8c-0.4-0.2-0.8-0.3-1.1-0.2c-1.1,0-2.6,1-4.6,2.8c-2.2,2.1-3.8,3.4-4.9,3.8c-0.7,0.3-1.5,0-2.5-0.8
			c-1-0.8-1.7-1.2-2-1.2c-0.3,0-0.5,0.1-0.7,0.3c-3.6,2.8-6,7.1-7,12.9c-0.7,3.9-0.4,7.3,0.8,9.9c1.7,3.7,3.5,5.5,5.1,5.4
			c3.8-0.1,8-2.7,12.5-7.8C409.5,66.2,411.9,61.7,412.3,57.7z"/>
		<path class="st0" d="M468.2,12.5c-0.5,1.8-2.2,3.4-5.2,4.8c-0.8,0.4-1.6,0.4-2.4,0.1c-1.1-0.4-1.8-0.5-1.9-0.5
			c-0.5,0-1.2,0.3-1.8,0.8c-6.1,4.9-10,11-11.6,18.1c-0.6,2.7-0.8,5.1-0.5,7.4c0.1,1,1.9,8.1,5.1,21.2c2.2,8.8,2.5,16.2,1,22.3
			c-1.2,5-3.5,9.9-6.8,14.5c-1.1,1.6-3.5,3.6-7.1,6.1c-2.8,1.9-5.3,2.9-7.2,2.9c-0.8,0-1.4-0.1-2.1-0.4c-2.3-1.2-3.2-2.6-2.8-4.5
			c0.2-1.1,1.1-2.4,2.8-4c0.4-0.5,1.3-0.7,2.6-0.8c1.3-0.1,2.3-0.7,2.9-1.7c2.7-4,4.5-8.2,5.4-12.4c1.3-5.9,0.5-14.5-2.7-25.8
			c-3.2-11.2-4.1-20.2-2.6-27c1.2-5.6,3.5-10.6,6.6-15c3.6-5,8-8.7,13.1-10.9c2.4-1,4.6-1.5,6.6-1.5c3.9,0,6.5,1.1,7.9,3.2
			C468.2,10.4,468.4,11.5,468.2,12.5z"/>
	</g>
</g>
<g>
	<path class="st0" d="M175.6,160.2c-0.4,16.3-3,42-7.9,77.3c-4.5,33.4-6.8,59.1-6.8,77c0,5.7,0.2,11.1,0.5,16.2
		c0,1.3-0.5,2.5-1.6,3.7c-1.1,1.2-2.3,1.8-3.8,1.8c-5.1,0-8.4-0.5-10-1.4c-6.9-4-10.3-11.6-10.3-22.8c0-2.2,0.1-5.6,0.4-10.3
		c0.3-4.7,0.4-8.1,0.4-10.3c0-3.7,0.4-9.2,1.4-16.7c0.9-7.5,1.4-13.2,1.4-17.3c-2.5,0.2-6-0.2-10.4-1.1c-4.4-0.9-7.6-1.4-9.6-1.4
		c-2.3,0-4.6,0.4-6.8,1.1c-4.3,14.4-6.9,35.7-7.6,63.9c-6.1,2.6-12.1,2.3-17.9-0.8c-4.2-2.2-6.2-6.6-6.2-13.2c0-1.5,0.1-3.4,0.4-5.9
		s0.4-4,0.4-4.5c0.5-9.9,2.6-29.4,6.2-58.7c3.1-24.5,4.5-44,4.3-58.4c0-2,1.4-3.3,4.2-3.8c2.8-0.5,4.4-1.1,4.7-1.6
		c1.1,1.3,3.7,2.4,7.9,3.3c3.4,0.7,5.5,2.4,6.2,4.9c1.4,4.6,2.2,9.7,2.2,15.4c0,4-0.6,10.4-1.8,19.1c-1.2,8.7-1.8,15.3-1.8,19.9
		c2.2,1.6,4.9,2.7,8.1,3c2.2,0.4,5.2,0.5,9.2,0.3c5.2-0.4,8.4-0.5,9.5-0.5c4.5-19.2,8.5-44,11.9-74.6c0.7-6.4,3-9.6,6.8-9.6
		C168.9,153.3,174.4,155.3,175.6,160.2z"/>
	<path class="st0" d="M284.7,254.3c-10.7,24.3-25.7,38.8-45.2,43.3c-2.3,0.5-4.7,0.8-7,0.8c-10.3,0-20.7-5.7-31.1-17
		c-7-7.7-10.6-17.6-10.6-29.9c0-13.5,4-28.1,11.9-43.6c3.4-6.6,7.6-12.2,12.5-17c5.6-5.7,10.9-8.5,16-8.5c2.9,0,5.6,1.1,8.1,3.3
		c2.5,2.2,9.3,5.1,20.3,8.8c8.7,2.9,14.8,7.9,18.4,14.8c6.3,12.2,9.5,22.8,9.5,31.5C287.4,245.8,286.5,250.3,284.7,254.3z
		 M263.1,237.3c-1.3-13.3-4.8-21.3-10.6-23.9c-0.9-0.4-1.7-0.5-2.4-0.5c-2.2,0-4.9,1.8-8.1,5.5c-3.6,4.2-6.4,6.7-8.4,7.4
		c-1.3,0.5-3.1,0-5.4-1.6c-2.3-1.6-3.9-2.5-4.6-2.5c-0.5,0-1,0.2-1.4,0.5c-6.3,5.5-9.5,14-9.5,25.5c0,7.9,1.8,14.5,5.4,20
		c5.1,7.5,9.3,11.2,12.7,11.2c7.9,0,15.6-5,23-15.1C260.9,254.4,264,245.5,263.1,237.3z"/>
	<path class="st0" d="M384.9,151.2c-5.1,20.7-14.4,47.5-27.9,80.6c-15.9,38.6-26.1,65.2-30.6,79.8c-0.9,2.9-1.4,6.6-1.4,11
		c0.2,6,0.2,9.9,0,11.5c-0.5,6.4-3.9,9.6-10,9.6c-3.1,0.4-6.4-0.7-9.9-3.2c-3.5-2.5-5.2-5.1-5-7.8c0.5-13.3,3.9-28.6,10-45.8
		c5.6-14.6,11.2-29.2,16.8-43.9c-12.8-34.7-23.7-60.1-32.8-76.2c-0.5-0.9-0.8-1.8-0.8-2.7c0-2,1.1-3.9,3.4-5.6
		c2.3-1.7,4.5-2.6,6.6-2.6c0.4,0,3.8,1,10.3,3c4.5,6.9,9.2,15.9,14.1,26.9c4.2,9.3,8.2,18.6,12.2,28c3.6-11,7.2-21.8,10.8-32.6
		c4.2-12.6,8.8-23,13.8-31.3c1.4-2.6,4-3.8,7.6-3.8C377.3,146,381.5,147.7,384.9,151.2z"/>
</g>
<g>
	<path class="st0" d="M361.5,385.3c-2.2,2.3-4.5,3.5-6.8,3.6c-50.9,3-94.5,6.4-130.7,10.3c-11.6,1.9-28.7,4.4-51.3,7.4
		c-8.2,1.8-20.8,4.2-37.8,7.3c-1.8,0.2-3.2-0.3-4.3-1.5c-0.6-0.8-1.3-2.1-2.1-3.9c-0.7-1.9-1.3-3.1-1.6-3.7
		c-1.1-1.5-1.6-3.4-1.5-5.6c0.1-2.2,0.7-3.7,1.8-4.5c4.5-3.2,10.5-5.5,17.9-6.9c6.6-0.8,13.1-1.8,19.7-2.9
		c24.9-5.3,56.7-9.3,95.4-12c31.7-2.4,63.4-4.8,95-7.1c2-0.2,3.8,0.6,5.5,2.5C366.1,374.5,366.4,380.2,361.5,385.3z"/>
</g>
</svg>
