<?xml version="1.0" encoding="utf-8"?>
<!-- Generator: Adobe Illustrator 18.0.0, SVG Export Plug-In . SVG Version: 6.00 Build 0)  -->
<!DOCTYPE svg PUBLIC "-//W3C//DTD SVG 1.1//EN" "http://www.w3.org/Graphics/SVG/1.1/DTD/svg11.dtd">
<svg version="1.1" xmlns="http://www.w3.org/2000/svg" xmlns:xlink="http://www.w3.org/1999/xlink" x="0px" y="0px"
	 viewBox="0 0 39.3 39.1" enable-background="new 0 0 39.3 39.1" xml:space="preserve">
<g id="face" display="none">
	<g display="inline">
		<path fill="#FFFFFF" d="M19.6,0.3C9,0.3,0.4,9,0.4,19.6c0,10.6,8.6,19.2,19.2,19.2c10.6,0,19.2-8.6,19.2-19.2
			C38.8,8.9,30.2,0.3,19.6,0.3L19.6,0.3z M24.6,19.6h-3.2v11.5h-4.3V19.6h-2.9v-4l2.9,0l0-2.3C17.1,10,18,8,21.8,8H25v4h-2
			c-1.5,0-1.6,0.6-1.6,1.6v2H25L24.6,19.6z M24.6,19.6"/>
	</g>
</g>
<g id="Capa_2" display="none">
	<g display="inline">
		<path fill="#FFFFFF" d="M19.6,0.4C9,0.4,0.4,9,0.4,19.6S9,38.8,19.6,38.8s19.2-8.6,19.2-19.2S30.2,0.4,19.6,0.4L19.6,0.4z
			 M20,30.7C20,30.7,20,30.7,20,30.7L20,30.7c-1.9,0-3.8-0.5-5.5-1.4l-6.1,1.6l1.6-6c-1-1.7-1.5-3.7-1.5-5.7
			c0-6.3,5.2-11.5,11.5-11.5c3.1,0,6,1.2,8.1,3.4c2.2,2.2,3.4,5.1,3.4,8.1C31.5,25.6,26.4,30.7,20,30.7L20,30.7z M20,30.7"/>
		<path fill="#FFFFFF" d="M20,9.7c-5.3,0-9.6,4.3-9.6,9.6c0,1.8,0.5,3.6,1.5,5.1l0.2,0.4l-1,3.5l3.6-0.9l0.3,0.2
			c1.5,0.9,3.1,1.3,4.9,1.3h0c5.3,0,9.6-4.3,9.6-9.6c0-2.6-1-5-2.8-6.8C25,10.7,22.6,9.7,20,9.7L20,9.7z M25.7,23.4
			c-0.2,0.7-1.4,1.3-1.9,1.4c-0.5,0.1-1.1,0.1-1.8-0.1c-0.4-0.1-1-0.3-1.6-0.6c-2.9-1.2-4.8-4.1-4.9-4.3c-0.1-0.2-1.2-1.6-1.2-3
			c0-1.4,0.7-2.1,1-2.4c0.3-0.3,0.6-0.4,0.8-0.4c0.2,0,0.4,0,0.6,0c0.2,0,0.4-0.1,0.6,0.5c0.2,0.6,0.8,2,0.9,2.1
			c0.1,0.1,0.1,0.3,0,0.5c-0.1,0.2-0.4,0.6-0.7,1c-0.1,0.2-0.3,0.3-0.1,0.6c0.2,0.3,0.7,1.2,1.6,2c1.1,1,2,1.3,2.3,1.4
			c0.3,0.1,0.5,0.1,0.6-0.1c0.2-0.2,0.7-0.8,0.9-1.1c0.2-0.3,0.4-0.2,0.6-0.1c0.3,0.1,1.7,0.8,2,0.9c0.3,0.1,0.5,0.2,0.6,0.3
			C25.9,22.1,25.9,22.7,25.7,23.4L25.7,23.4z M25.7,23.4"/>
	</g>
</g>
<g id="Capa_3">
	<g>
		<path fill="#FFFFFF" d="M36.3,9.9c-1.7-2.9-4-5.3-7-7c-2.9-1.7-6.2-2.6-9.6-2.6c-3.5,0-6.7,0.9-9.6,2.6C7,4.6,4.7,7,3,9.9
			c-1.7,2.9-2.6,6.2-2.6,9.6c0,3.5,0.9,6.7,2.6,9.6c1.7,2.9,4,5.3,7,7c2.9,1.7,6.2,2.6,9.6,2.6c3.5,0,6.7-0.9,9.6-2.6
			c2.9-1.7,5.3-4,7-7c1.7-2.9,2.6-6.2,2.6-9.6C38.8,16.1,38,12.9,36.3,9.9L36.3,9.9z M31.4,26.4c-1.2,2.1-2.9,3.7-5,5
			c-2.1,1.2-4.4,1.8-6.8,1.8c-2.5,0-4.7-0.6-6.8-1.8c-2.1-1.2-3.7-2.9-5-5C6.6,24.3,6,22,6,19.6c0-2.5,0.6-4.7,1.8-6.8
			c1.2-2.1,2.9-3.7,5-5c2.1-1.2,4.4-1.8,6.8-1.8c2.5,0,4.7,0.6,6.8,1.8c2.1,1.2,3.7,2.9,5,5c1.2,2.1,1.8,4.4,1.8,6.8
			C33.2,22,32.6,24.3,31.4,26.4L31.4,26.4z M31.4,26.4"/>
		<path fill="#FFFFFF" d="M27.6,19.6h-4.8v-8.8c0-0.2-0.1-0.4-0.2-0.6C22.5,10,22.3,10,22,10h-4.8c-0.2,0-0.4,0.1-0.6,0.2
			c-0.2,0.1-0.2,0.3-0.2,0.6v8.8h-4.8c-0.4,0-0.6,0.2-0.7,0.5c-0.1,0.3-0.1,0.6,0.2,0.9l8,8c0.2,0.2,0.4,0.2,0.6,0.2
			c0.2,0,0.4-0.1,0.6-0.2l8-8c0.2-0.2,0.3-0.4,0.3-0.6c0-0.2-0.1-0.4-0.2-0.6C28.1,19.6,27.9,19.6,27.6,19.6L27.6,19.6z M27.6,19.6"
			/>
	</g>
</g>
</svg>
