<?xml version="1.0" encoding="utf-8"?>
<!-- Generator: Adobe Illustrator 18.0.0, SVG Export Plug-In . SVG Version: 6.00 Build 0)  -->
<!DOCTYPE svg PUBLIC "-//W3C//DTD SVG 1.1//EN" "http://www.w3.org/Graphics/SVG/1.1/DTD/svg11.dtd">
<svg version="1.1" id="face" xmlns="http://www.w3.org/2000/svg" xmlns:xlink="http://www.w3.org/1999/xlink" x="0px" y="0px"
	 viewBox="0 0 39.3 39.1" enable-background="new 0 0 39.3 39.1" xml:space="preserve">
<g>
	<path fill="#FFFFFF" d="M19.6,0.3C9,0.3,0.4,9,0.4,19.6c0,10.6,8.6,19.2,19.2,19.2c10.6,0,19.2-8.6,19.2-19.2
		C38.8,8.9,30.2,0.3,19.6,0.3L19.6,0.3z M24.6,19.6h-3.2v11.5h-4.3V19.6h-2.9v-4l2.9,0l0-2.3C17.1,10,18,8,21.8,8H25v4h-2
		c-1.5,0-1.6,0.6-1.6,1.6v2H25L24.6,19.6z M24.6,19.6"/>
</g>
</svg>
