<?xml version="1.0" encoding="utf-8"?>
<!-- Generator: Adobe Illustrator 22.0.1, SVG Export Plug-In . SVG Version: 6.00 Build 0)  -->
<svg version="1.1" id="Capa_1" xmlns="http://www.w3.org/2000/svg" xmlns:xlink="http://www.w3.org/1999/xlink" x="0px" y="0px"
	 viewBox="0 0 416 417.3" style="enable-background:new 0 0 416 417.3;" xml:space="preserve">
<style type="text/css">
	.st0{fill:#FFFFFF;}
</style>
<g>
	<g>
		<g>
			<g>
				<path class="st0" d="M32.4,208.9c0-3.8-2.6-5.2-6.4-5.2s-6.5,1.4-6.5,5.2v0.8c0,2.2,1.7,3.2,2.6,3.6l13.8,4.7
					c6.1,2.1,10.3,6.4,10.3,12.5v5.9c0,7.1-5.2,14.2-20.6,14.2s-20.6-7.1-20.6-14.2v-5.6c0-1.7,0.7-2.5,2.4-2.5h8.6
					c1.7,0,2.3,0.7,2.3,2.5v3.7c0,3.8,3.2,5.2,7.2,5.2s7.3-1.4,7.3-5.2V233c0-3-3.9-4.4-7.1-5.6L14,223c-4.2-1.6-7.7-6.2-7.7-11
					v-4.8c0-7.1,4.3-14.2,19.7-14.2c15.1,0,19.7,7.1,19.7,14.2v3.1c0,1.7-0.7,2.5-2.4,2.5h-8.6c-1.7,0-2.3-0.7-2.3-2.5V208.9z"/>
				<path class="st0" d="M53.5,220.4c0-7.9,5.3-12.5,17.4-12.5c12.4,0,17.4,4.7,17.4,12.5v27.2c0,1.7-0.7,2.5-2.4,2.5h-7.6
					c-1.8,0-2.1-0.7-2.4-2.5l-0.2-1.2c-2.4,2-6.2,4.4-11.5,4.4c-8.3,0-12.1-5.2-12.1-10.6v-3.6c0-5.6,4.6-10.7,13.2-10.7h10v-4.6
					c0-2.6-1.2-3.8-4.7-3.8c-3.5,0-4.9,0.8-4.9,3.4v0.6c0,1.7-0.7,2.4-2.4,2.4h-7.5c-1.7,0-2.4-0.7-2.4-2.4V220.4z M75.4,237.3v-2.7
					h-7.6c-2.4,0-2.8,1.3-2.8,2.6v1.1c0,1.9,1.6,2.2,2.8,2.2C70.6,240.4,73.5,238.7,75.4,237.3z"/>
				<path class="st0" d="M106.4,208.5c1.7,0,2.2,0.7,2.4,2.4l0.2,1.4c2.3-1.9,6.3-4.5,12.8-4.5c7.5,0,12.1,4.8,12.1,11.5v28.2
					c0,1.7-0.7,2.5-2.4,2.5h-8.3c-1.7,0-2.5-0.7-2.5-2.5v-24.8c0-2.6-0.5-3.6-3.1-3.6c-3.2,0-6.6,2.1-8.2,3.3v25
					c0,1.7-0.6,2.5-2.3,2.5h-8.5c-1.7,0-2.4-0.7-2.4-2.5v-36.6c0-1.7,0.7-2.4,2.4-2.4H106.4z"/>
				<path class="st0" d="M209.7,247.5c0,1.7-0.6,2.5-2.3,2.5h-8.5c-1.7,0-2.4-0.7-2.4-2.5v-26.4c-1,3.8-2,7.1-2.6,8.8l-3.6,9.1
					c-0.7,1.7-1.6,2.5-3.2,2.5h-7.2c-1.6,0-2.5-1-3.1-2.5l-4.5-10.5c-0.7-1.5-1.4-4.2-2.1-7.1v26.2c0,1.7-0.6,2.5-2.3,2.5h-8.1
					c-1.7,0-2.4-0.7-2.4-2.5V196c0-1.7,0.7-2.5,2.4-2.5h8.1c1.2,0,1.7,0.5,2.1,1.3l11.2,25.4c0.7,1.7,1.6,4.1,2.4,6.6
					c0.8-2.5,1.6-4.7,2.4-6.4l10.8-25.8c0.3-0.8,1-1.2,2.2-1.2h8.5c1.7,0,2.3,0.7,2.3,2.5V247.5z"/>
				<path class="st0" d="M218.7,220.4c0-7.9,5.3-12.5,17.4-12.5c12.4,0,17.4,4.7,17.4,12.5v27.2c0,1.7-0.7,2.5-2.4,2.5h-7.6
					c-1.8,0-2.1-0.7-2.4-2.5l-0.2-1.2c-2.4,2-6.2,4.4-11.5,4.4c-8.3,0-12.1-5.2-12.1-10.6v-3.6c0-5.6,4.6-10.7,13.2-10.7h10v-4.6
					c0-2.6-1.2-3.8-4.7-3.8c-3.5,0-4.9,0.8-4.9,3.4v0.6c0,1.7-0.7,2.4-2.4,2.4H221c-1.7,0-2.4-0.7-2.4-2.4V220.4z M240.5,237.3v-2.7
					H233c-2.4,0-2.8,1.3-2.8,2.6v1.1c0,1.9,1.6,2.2,2.8,2.2C235.8,240.4,238.7,238.7,240.5,237.3z"/>
				<path class="st0" d="M288,210.2v6.5c0,1.7-0.7,2.3-2.5,2.5c-5.8,0.6-9.4,3-11.1,4.6v23.8c0,1.7-0.6,2.5-2.3,2.5h-8.5
					c-1.7,0-2.4-0.7-2.4-2.5v-36.6c0-1.7,0.7-2.4,2.4-2.4h7.9c1.7,0,2.2,0.7,2.4,2.4l0.2,2.3c2-2.3,5.5-5.4,11.4-5.4
					C287.3,207.8,288,208.5,288,210.2z"/>
				<path class="st0" d="M327.8,220.8v1.2c0,1.7-0.7,2.4-2.4,2.4h-7.8c-1.7,0-2.4-0.7-2.4-2.4v-0.2c0-2.7-1.5-3.6-4.9-3.6
					c-3.5,0-4.9,0.8-4.9,3.6v14.9c0,2.7,1.5,3.7,4.9,3.7c3.5,0,4.9-0.9,4.9-3.7v-1c0-1.7,0.7-2.4,2.4-2.4h7.8c1.7,0,2.4,0.7,2.4,2.4
					v2.1c0,7.9-5.4,13-17.9,13c-12.4,0-17.8-5.1-17.8-13v-16.9c0-7.9,5.4-13,17.9-13C322.4,207.8,327.8,212.9,327.8,220.8z"/>
				<path class="st0" d="M333.5,220.8c0-7.9,6.4-13,18.8-13c12.4,0,18.8,5.1,18.8,13v16.9c0,7.9-6.4,13-18.8,13
					c-12.4,0-18.8-5.1-18.8-13V220.8z M358,221.9c0-2.7-2.3-3.7-5.7-3.7c-3.4,0-5.7,0.9-5.7,3.7v14.7c0,2.8,2.3,3.7,5.7,3.7
					c3.4,0,5.7-0.9,5.7-3.7V221.9z"/>
				<path class="st0" d="M398.7,219.6c0-2.2-2.2-2.7-4.5-2.7c-2.3,0-4.4,0.4-4.4,2.7v0.8c0,1.2,0.9,2,1.7,2.2l11.5,3.6
					c5.5,1.7,8.2,5,8.2,9v4.2c0,5.5-4.8,11.3-17.4,11.3c-12.6,0-17.2-5.8-17.2-11.3v-1.7c0-1.6,0.6-2.2,2.2-2.2h7.6
					c1.6,0,2.2,0.7,2.2,2.2v1.2c0,2.2,2.7,2.7,5.2,2.7s5.3-0.4,5.3-2.7v-0.9c0-1.1-0.7-1.7-3.2-2.6l-11.6-3.9c-3-1-6.5-5-6.5-9.1
					v-2.7c0-5.5,4-11.8,16.5-11.8s16.5,6.3,16.5,11.8v1.2c0,1.7-0.6,2.3-2.3,2.3h-7.5c-1.6,0-2.2-0.7-2.2-2.3V219.6z"/>
			</g>
		</g>
		<g>
			<g>
				<path class="st0" d="M211.2,36.5c1.9-0.3,4.1,0,4.1,4.1v77.6h17.4c3.1,0,4.4,1,4.4,4.1V134c0,3.1-1.3,4.3-4.4,4.3H173
					c-3.1,0-4.4-1.2-4.4-4.3v-11.5c0-3.1,1.3-4.1,4.4-4.1h18.2V59.6l-18.2,3c-2.8,0.4-4.4-0.6-4.4-3.7V47.3c0-3.1,1.6-4.3,4.4-4.7
					L211.2,36.5z"/>
			</g>
		</g>
		<g>
			<g>
				<path class="st0" d="M240.9,47.5c0,0.6-0.2,0.8-0.8,0.8h-7V50c0,0.9,0.5,1.3,1.7,1.3c1.2,0,1.8-0.4,1.8-1.3v0
					c0-0.6,0.2-0.8,0.8-0.8h2.5c0.6,0,0.8,0.2,0.8,0.8v0.2c0,2.8-1.6,4.5-5.9,4.5s-6.2-1.8-6.2-4.5v-5.9c0-2.8,1.9-4.5,6.2-4.5
					s6,1.8,6,4.5V47.5z M233.2,45.3h3.5v-0.8c0-0.9-0.5-1.3-1.8-1.3c-1.2,0-1.7,0.4-1.7,1.3V45.3z"/>
				<path class="st0" d="M252.8,40.5v2.3c0,0.6-0.3,0.8-0.9,0.9c-2,0.2-3.3,1-3.9,1.6v8.3c0,0.6-0.2,0.9-0.8,0.9h-3
					c-0.6,0-0.8-0.3-0.8-0.9V40.8c0-0.6,0.2-0.8,0.8-0.8h2.8c0.6,0,0.8,0.2,0.8,0.8l0.1,0.8c0.7-0.8,1.9-1.9,4-1.9
					C252.6,39.7,252.8,39.9,252.8,40.5z"/>
			</g>
		</g>
		<rect x="228.4" y="56.1" class="st0" width="24.4" height="2.3"/>
		<g>
			<g>
				<path class="st0" d="M118.6,167.7v4.7c0,0.3-0.1,0.4-0.4,0.4H117c-0.3,0-0.4-0.1-0.4-0.4v-12.9c0-0.3,0.1-0.4,0.4-0.4h4.1
					c3.4,0,4.5,1.5,4.5,3.1v2.4c0,1.7-1.1,3.1-4.5,3.1H118.6z M118.6,160.8v5.3h2.5c1.8,0,2.6-0.7,2.6-1.8v-1.8
					c0-1.1-0.8-1.8-2.6-1.8H118.6z"/>
				<path class="st0" d="M134,169.5c0,1.1,0.8,1.8,2.6,1.8c1.8,0,2.6-0.7,2.6-1.8v-10.1c0-0.3,0.1-0.4,0.4-0.4h1.2
					c0.3,0,0.4,0.1,0.4,0.4v10.4c0,1.7-1.1,3.1-4.6,3.1c-3.4,0-4.5-1.5-4.5-3.1v-10.4c0-0.3,0.1-0.4,0.4-0.4h1.2
					c0.3,0,0.4,0.1,0.4,0.4V169.5z"/>
				<path class="st0" d="M148.7,172.8c-0.3,0-0.4-0.1-0.4-0.4v-12.9c0-0.3,0.1-0.4,0.4-0.4h6.8c0.3,0,0.4,0.1,0.4,0.4v0.9
					c0,0.3-0.1,0.4-0.4,0.4h-5.3v4.1h4.9c0.3,0,0.4,0.1,0.4,0.4v0.9c0,0.3-0.1,0.4-0.4,0.4h-4.9v4.7h5.5c0.3,0,0.4,0.1,0.4,0.4v0.9
					c0,0.3-0.1,0.4-0.4,0.4H148.7z"/>
				<path class="st0" d="M169.1,162.3c0-1.1-0.7-1.7-2.4-1.7c-1.8,0-2.4,0.6-2.4,1.7v0.4c0,0.9,0.6,1.2,1,1.4l3.6,1.4
					c1.2,0.5,2.2,1.3,2.2,2.7v1.7c0,1.7-1.1,3.1-4.5,3.1s-4.5-1.5-4.5-3.1v-1.2c0-0.3,0.1-0.4,0.4-0.4h1.2c0.3,0,0.4,0.1,0.4,0.4
					v0.9c0,1.1,0.8,1.7,2.6,1.7c1.8,0,2.6-0.6,2.6-1.7v-0.9c0-1-0.9-1.4-1.7-1.7l-3.4-1.3c-0.9-0.3-1.8-1.3-1.8-2.5V162
					c0-1.7,1-3.1,4.3-3.1s4.3,1.5,4.3,3.1v0.9c0,0.3-0.1,0.4-0.4,0.4h-1.2c-0.3,0-0.4-0.1-0.4-0.4V162.3z"/>
				<path class="st0" d="M185.3,159.1c0.3,0,0.4,0.1,0.4,0.4v0.9c0,0.3-0.1,0.4-0.4,0.4h-3.2v11.6c0,0.3-0.1,0.4-0.4,0.4h-1.2
					c-0.3,0-0.4-0.1-0.4-0.4v-11.6h-3.2c-0.3,0-0.4-0.1-0.4-0.4v-0.9c0-0.3,0.1-0.4,0.4-0.4H185.3z"/>
				<path class="st0" d="M191.5,162c0-1.7,1.1-3.1,4.5-3.1c3.4,0,4.6,1.5,4.6,3.1v7.8c0,1.7-1.1,3.1-4.6,3.1c-3.4,0-4.5-1.5-4.5-3.1
					V162z M198.6,162.3c0-1.1-0.8-1.8-2.6-1.8c-1.8,0-2.6,0.7-2.6,1.8v7.2c0,1.1,0.8,1.8,2.6,1.8c1.8,0,2.6-0.7,2.6-1.8V162.3z"/>
				<path class="st0" d="M223.6,171.1c0.3,0,0.4,0.1,0.4,0.4v0.9c0,0.3-0.1,0.4-0.4,0.4H216c-0.3,0-0.4-0.1-0.4-0.4V169
					c0-1.5,0.9-2,1.6-2.3l3.8-1.4c0.4-0.1,1-0.5,1-1.3v-1.7c0-1.1-0.6-1.8-2.4-1.8c-1.8,0-2.4,0.6-2.4,1.8v0.9
					c0,0.3-0.1,0.4-0.4,0.4h-1.2c-0.3,0-0.4-0.1-0.4-0.4V162c0-1.7,0.9-3.1,4.3-3.1s4.3,1.5,4.3,3.1v1.9c0,1.8-1.1,2.5-1.8,2.7
					l-3.4,1.2c-0.7,0.2-1.2,0.4-1.2,1.2v2H223.6z"/>
				<path class="st0" d="M230.5,162c0-1.7,1-3.1,4.3-3.1s4.4,1.5,4.4,3.1v7.8c0,1.7-1,3.1-4.4,3.1s-4.3-1.5-4.3-3.1V162z
					 M237.3,162.3c0-1.1-0.6-1.8-2.4-1.8s-2.4,0.7-2.4,1.8v7.2c0,1.1,0.6,1.8,2.4,1.8s2.4-0.7,2.4-1.8V162.3z"/>
				<path class="st0" d="M250.6,159c0.2,0,0.4,0,0.4,0.4v11.8h2.9c0.3,0,0.4,0.1,0.4,0.4v0.9c0,0.3-0.1,0.4-0.4,0.4H246
					c-0.3,0-0.4-0.1-0.4-0.4v-0.9c0-0.3,0.1-0.4,0.4-0.4h3v-10l-3,0.6c-0.2,0-0.4-0.1-0.4-0.3v-1c0-0.3,0.1-0.4,0.4-0.4L250.6,159z"
					/>
				<path class="st0" d="M268.4,169.9c0,1.5-0.9,3-4.2,3s-4.2-1.5-4.2-3v-0.4c0-0.3,0.1-0.4,0.4-0.4h1.2c0.3,0,0.4,0.1,0.4,0.4v0.2
					c0,1,0.5,1.7,2.3,1.7c1.8,0,2.3-0.7,2.3-1.7v-3.1c-0.5,0.5-1.3,0.8-2.6,0.8c-3,0-4-1.5-4-3.1V162c0-1.7,0.9-3.1,4.3-3.1
					c3.3,0,4.2,1.5,4.2,3.1V169.9z M264.2,160.6c-1.8,0-2.3,0.6-2.3,1.7v1.7c0,1.1,0.6,1.8,2.3,1.8c1.7,0,2.3-0.6,2.3-1.7v-1.8
					C266.5,161.2,265.9,160.6,264.2,160.6z"/>
				<path class="st0" d="M280.9,166.2c0.3,0,0.4,0.1,0.4,0.4v0.8c0,0.3-0.1,0.4-0.4,0.4h-5.4c-0.3,0-0.4-0.1-0.4-0.4v-0.8
					c0-0.3,0.1-0.4,0.4-0.4H280.9z"/>
				<path class="st0" d="M290.2,172.4c0,0.3-0.1,0.4-0.4,0.4h-1.2c-0.3,0-0.4-0.1-0.4-0.4v-12.9c0-0.3,0.1-0.4,0.4-0.4h1.2
					c0.3,0,0.4,0.1,0.4,0.4V172.4z"/>
				<path class="st0" d="M299.4,172.4c0,0.3-0.1,0.4-0.4,0.4h-1.2c-0.3,0-0.4-0.1-0.4-0.4v-12.9c0-0.3,0.1-0.4,0.4-0.4h1.2
					c0.3,0,0.4,0.1,0.4,0.4V172.4z"/>
			</g>
		</g>
	</g>
	<g>
		<path class="st0" d="M4.8,342.7c0.1-1,0.3-1.4,1.4-1.4h3.5c1,0,1.3,0.4,1.4,1.4l0.7,10.4V368c0,1-0.3,1.5-1.4,1.5h-5
			c-1,0-1.4-0.5-1.4-1.5v-14.9L4.8,342.7z M4.2,332.4c0-1,0.3-1.4,1.3-1.4h4.9c1,0,1.4,0.4,1.4,1.4v4.6c0,1-0.4,1.4-1.4,1.4H5.5
			c-1,0-1.3-0.4-1.3-1.4V332.4z"/>
		<path class="st0" d="M53.4,357.8c0,1-0.3,1.4-1.4,1.4h-4.7c-1,0-1.4-0.5-1.4-1.4v-21.6c-0.6,2-1.2,4.1-1.6,5.2L40,351.9
			c-0.4,1-0.9,1.5-1.8,1.5h-4.1c-1,0-1.4-0.6-1.8-1.5l-4.8-11.3c-0.3-0.8-0.9-2.5-1.3-4.2v21.5c0,1-0.3,1.4-1.4,1.4h-4.5
			c-1,0-1.4-0.5-1.4-1.4v-35.7c0-1,0.3-1.4,1.4-1.4h4.5c0.7,0,1,0.3,1.2,0.8l8.7,19.7c0.5,1.1,0.9,2.5,1.4,4c0.5-1.4,1-2.9,1.5-3.9
			l8.4-19.9c0.2-0.5,0.6-0.7,1.3-0.7H52c1,0,1.4,0.5,1.4,1.4V357.8z"/>
		<path class="st0" d="M60.3,338.7c0-5,3.4-8.2,11.4-8.2c8.3,0,11.4,3.1,11.4,8.2v19c0,1-0.3,1.5-1.4,1.5h-4.2c-1,0-1.2-0.5-1.4-1.5
			l-0.1-1.2c-1.6,1.4-4.5,3.1-8.4,3.1c-5.5,0-8.2-3.3-8.2-7.1V350c0-3.8,2.9-7.1,8.5-7.1h7.8v-3.6c0-2-1-3.2-4.2-3.2
			s-4.4,0.9-4.4,2.9v0.4c0,1-0.4,1.4-1.4,1.4h-4.1c-1,0-1.4-0.4-1.4-1.4V338.7z M75.9,351.3v-3.2h-6.4c-2.2,0-2.7,1.1-2.7,2.5v0.9
			c0,1.7,1.2,2.2,2.9,2.2C72.3,353.8,74.6,352.3,75.9,351.3z M74.7,326.5c-0.3,0.4-0.8,0.9-1.8,0.9h-3.7c-0.8,0-1.2-0.3-0.7-1.4
			l2.7-5.5c0.4-0.8,1-1.4,2-1.4h4.9c1,0,1.2,0.6,0.7,1.4L74.7,326.5z"/>
		<path class="st0" d="M112.7,357.8c0.5,0.7,0.3,1.4-0.7,1.4h-5.2c-1,0-1.6-0.7-2-1.4l-5-7.7l-4.9,7.7c-0.5,0.7-1,1.4-2,1.4h-4.5
			c-1,0-1.2-0.7-0.7-1.4l8.7-13l-8.3-12.4c-0.5-0.7-0.3-1.4,0.7-1.4h5.2c1,0,1.5,0.6,2,1.4l4.8,7.3l4.7-7.3c0.5-0.8,1.1-1.4,2-1.4
			h4.5c1,0,1.2,0.7,0.7,1.4l-8.5,12.6L112.7,357.8z"/>
		<path class="st0" d="M124.7,326c0,1-0.3,1.4-1.4,1.4h-4.7c-1,0-1.4-0.4-1.4-1.4v-4.9c0-1,0.4-1.5,1.4-1.5h4.7c1,0,1.4,0.5,1.4,1.5
			V326z M124.7,357.7c0,1-0.3,1.5-1.4,1.5h-4.7c-1,0-1.4-0.5-1.4-1.5v-25.3c0-1,0.4-1.4,1.4-1.4h4.7c1,0,1.4,0.4,1.4,1.4V357.7z"/>
		<path class="st0" d="M137,331c1,0,1.4,0.4,1.4,1.4l0.1,1.4c1.5-1.3,4.2-3.2,8.8-3.2c3.5,0,6,1.5,7.2,3.8c1.4-1.2,4.1-3.8,9.5-3.8
			c5.2,0,8.2,3.2,8.2,7.6v19.6c0,1-0.4,1.5-1.4,1.5h-4.6c-1,0-1.5-0.5-1.5-1.5V340c0-2-0.7-3-3.1-3c-2.9,0-5.2,1.6-6.2,2.5v18.2
			c0,1-0.4,1.5-1.4,1.5h-4.6c-1,0-1.4-0.5-1.4-1.5V340c0-2-0.7-3-3.1-3c-2.8,0-5.2,1.6-6.2,2.5v18.2c0,1-0.3,1.5-1.4,1.5h-4.7
			c-1,0-1.4-0.5-1.4-1.5v-25.4c0-1,0.4-1.4,1.4-1.4H137z"/>
		<path class="st0" d="M178,338.9c0-5,3.9-8.3,12.2-8.3c8.3,0,12.2,3.3,12.2,8.3v12.4c0,5.1-3.9,8.4-12.2,8.4
			c-8.3,0-12.2-3.3-12.2-8.4V338.9z M195.1,339.5c0-2.1-1.6-3.1-4.8-3.1c-3.2,0-4.8,1-4.8,3.1v11.2c0,2.2,1.6,3.1,4.8,3.1
			c3.2,0,4.8-1,4.8-3.1V339.5z"/>
		<path class="st0" d="M225.2,331c1,0,1.3,0.4,1.4,1.4l0.1,1.4c1.6-1.2,4.4-3.2,9-3.2c5.6,0,8.2,3.2,8.2,8.3v12.6
			c0,5-2.6,8.3-8.2,8.3c-4.4,0-7.2-1.8-8.8-3v12.5c0,1-0.3,1.4-1.4,1.4h-4.7c-1,0-1.4-0.4-1.4-1.4v-36.7c0-1,0.4-1.4,1.4-1.4H225.2z
			 M236.6,339.9c0-1.5-0.5-2.9-3.1-2.9c-2.8,0-5.3,1.7-6.5,2.6v11c1.2,0.9,3.7,2.6,6.5,2.6c2.7,0,3.1-1.5,3.1-3V339.9z"/>
		<path class="st0" d="M267,356.5c-1.5,1.3-4.2,3.1-8.7,3.1c-5.2,0-8.2-3.2-8.2-7.6v-19.6c0-1,0.4-1.4,1.4-1.4h4.6
			c1,0,1.4,0.4,1.4,1.4v17.8c0,2,0.7,3,3.1,3c2.8,0,5.2-1.6,6.2-2.5v-18.3c0-1,0.4-1.4,1.4-1.4h4.7c1,0,1.4,0.4,1.4,1.4v25.4
			c0,1-0.4,1.4-1.4,1.4h-4.4c-1,0-1.2-0.4-1.4-1.4L267,356.5z"/>
		<path class="st0" d="M286.4,331c1,0,1.4,0.4,1.4,1.4l0.1,1.4c1.6-1.3,4.5-3.2,9.1-3.2c5.2,0,8.2,3.2,8.2,7.6v19.6
			c0,1-0.4,1.5-1.4,1.5h-4.6c-1,0-1.4-0.5-1.4-1.5V340c0-2-0.7-3-3.1-3c-2.8,0-5.4,1.6-6.6,2.5v18.2c0,1-0.3,1.5-1.4,1.5h-4.7
			c-1,0-1.4-0.5-1.4-1.5v-25.4c0-1,0.4-1.4,1.4-1.4H286.4z"/>
		<path class="st0" d="M325.9,331.1c1,0,1.4,0.3,1.4,1.3v3.2c0,1-0.4,1.4-1.4,1.4h-5.2v13c0,2.2,1.4,3.1,4.5,3.1h1.3
			c1,0,1.4,0.4,1.4,1.4v3.3c0,1-0.5,1.4-1.4,1.4h-2.4c-8.3,0-10.8-2.8-10.8-8.4V337h-2.8c-1,0-1.4-0.4-1.4-1.4v-2.8
			c0-1,0.4-1.2,1.4-1.4l2.6-0.3h0.2v-5.4c0-1,0.4-1.4,1.4-1.4h4.8c1,0,1.3,0.4,1.3,1.4v5.4H325.9z"/>
		<path class="st0" d="M332.1,338.7c0-5,3.4-8.2,11.4-8.2c8.3,0,11.4,3.1,11.4,8.2v19c0,1-0.3,1.5-1.4,1.5h-4.2
			c-1,0-1.2-0.5-1.4-1.5l-0.1-1.2c-1.6,1.4-4.5,3.1-8.4,3.1c-5.5,0-8.2-3.3-8.2-7.1V350c0-3.8,2.9-7.1,8.5-7.1h7.8v-3.6
			c0-2-1-3.2-4.2-3.2S339,337,339,339v0.4c0,1-0.4,1.4-1.4,1.4h-4.1c-1,0-1.4-0.4-1.4-1.4V338.7z M347.6,351.3v-3.2h-6.4
			c-2.2,0-2.7,1.1-2.7,2.5v0.9c0,1.7,1.2,2.2,2.9,2.2C344,353.8,346.3,352.3,347.6,351.3z"/>
		<path class="st0" d="M368.7,362.3c0,5-3.8,8.3-12.1,8.3h-0.6c-1,0-1.4-0.3-1.4-1.4v-3.3c0-1,0.5-1.5,1.4-1.5h0.6
			c3.2,0,4.7-1,4.7-3.1v-29c0-1,0.3-1.4,1.3-1.4h4.7c1,0,1.4,0.4,1.4,1.4V362.3z M368.7,326c0,1-0.3,1.4-1.4,1.4h-4.7
			c-1,0-1.4-0.4-1.4-1.4v-4.9c0-1,0.4-1.5,1.4-1.5h4.7c1,0,1.4,0.5,1.4,1.5V326z"/>
		<path class="st0" d="M397.8,345.4c0,0.9-0.3,1.3-1.2,1.3h-14.5v4.2c0,2,1.1,3.1,4.4,3.1s4.4-1.1,4.4-3.1v-0.3c0-1,0.4-1.4,1.4-1.4
			h4c1,0,1.4,0.5,1.4,1.4v0.6c0,5.1-2.9,8.4-11.3,8.4s-11.6-3.3-11.6-8.4v-12.4c0-5,3.3-8.3,11.7-8.3c8.3,0,11.3,3.3,11.3,8.3V345.4
			z M382.1,341.8h8.8v-2.5c0-2-1.2-3.1-4.4-3.1c-3.2,0-4.4,1.1-4.4,3.1V341.8z"/>
		<path class="st0" d="M411.6,357.8c0,1-0.3,1.4-1.3,1.4h-4.9c-1,0-1.4-0.4-1.4-1.4v-4.6c0-1,0.4-1.4,1.4-1.4h4.9
			c1,0,1.3,0.4,1.3,1.4V357.8z M411,347.5c-0.1,1-0.3,1.4-1.4,1.4h-3.5c-1,0-1.3-0.4-1.4-1.4l-0.7-10.4v-14.9c0-1,0.3-1.5,1.4-1.5h5
			c1,0,1.4,0.5,1.4,1.5v14.9L411,347.5z"/>
	</g>
	<g>
		<path class="st0" d="M125.6,399.2h-0.8c-0.2,0-0.3-0.1-0.3-0.3v-12c0-0.2,0.1-0.3,0.2-0.3h3.6c3.1,0,4,1.2,4,2.7v2.1
			c0,1.1-0.6,2.1-2.3,2.5l2.4,5c0.1,0.2-0.1,0.3-0.3,0.3h-0.8c-0.2,0-0.3-0.1-0.3-0.3l-2.3-4.8h-3v4.8
			C125.8,399.1,125.8,399.2,125.6,399.2z M125.8,387.8v5.2h2.6c2,0,2.7-0.7,2.7-1.8v-1.6c0-1.1-0.7-1.8-2.7-1.8H125.8z"/>
		<path class="st0" d="M134.9,392.3c0-1.4,0.8-2.3,3.3-2.3c2.5,0,3.3,1,3.3,2.3v6.6c0,0.2-0.1,0.3-0.3,0.3h-0.6
			c-0.2,0-0.3-0.1-0.3-0.3l0-0.7c-0.5,0.4-1.6,1.1-3,1.1c-1.7,0-2.6-1-2.6-2.2v-0.9c0-1.2,0.8-2.2,2.4-2.2h3.2v-1.7
			c0-0.8-0.4-1.4-2.1-1.4c-1.6,0-2.1,0.6-2.1,1.4v0.2c0,0.2-0.1,0.3-0.3,0.3h-0.7c-0.2,0-0.3-0.1-0.3-0.3V392.3z M140.3,397.2v-2.2
			h-2.9c-1,0-1.4,0.5-1.4,1.3v0.6c0,0.8,0.5,1.3,1.6,1.3C138.9,398.2,139.8,397.5,140.3,397.2z"/>
		<path class="st0" d="M144.8,390.1v-1.6c0-1.4,0.9-2.4,3.4-2.4h0.1c0.2,0,0.3,0.1,0.3,0.3v0.6c0,0.2-0.1,0.3-0.3,0.3h-0.1
			c-1.6,0-2.2,0.6-2.2,1.4v1.5h2c0.2,0,0.3,0.1,0.3,0.3v0.5c0,0.2-0.1,0.3-0.3,0.3h-2v7.7c0,0.2-0.1,0.3-0.3,0.3h-0.7
			c-0.2,0-0.3-0.1-0.3-0.3v-7.7h-1.2c-0.2,0-0.3-0.1-0.3-0.3v-0.4c0-0.2,0.1-0.3,0.3-0.3l1-0.1H144.8z"/>
		<path class="st0" d="M149.9,392.3c0-1.4,0.8-2.3,3.3-2.3c2.5,0,3.3,1,3.3,2.3v6.6c0,0.2-0.1,0.3-0.3,0.3h-0.6
			c-0.2,0-0.3-0.1-0.3-0.3l0-0.7c-0.5,0.4-1.6,1.1-3,1.1c-1.7,0-2.6-1-2.6-2.2v-0.9c0-1.2,0.8-2.2,2.4-2.2h3.2v-1.7
			c0-0.8-0.4-1.4-2.1-1.4c-1.6,0-2.1,0.6-2.1,1.4v0.2c0,0.2-0.1,0.3-0.3,0.3h-0.7c-0.2,0-0.3-0.1-0.3-0.3V392.3z M155.3,397.2v-2.2
			h-2.9c-1,0-1.4,0.5-1.4,1.3v0.6c0,0.8,0.5,1.3,1.6,1.3C153.9,398.2,154.9,397.5,155.3,397.2z"/>
		<path class="st0" d="M165.9,394.6c0,0.2-0.1,0.3-0.3,0.3h-5.2v2c0,0.8,0.4,1.4,2.1,1.4s2.1-0.6,2.1-1.4v-0.3
			c0-0.2,0.1-0.3,0.3-0.3h0.7c0.2,0,0.3,0.1,0.3,0.3v0.4c0,1.4-0.8,2.4-3.4,2.4c-2.5,0-3.4-1-3.4-2.4v-4.6c0-1.4,0.8-2.4,3.4-2.4
			c2.5,0,3.4,1,3.4,2.4V394.6z M160.4,393.8h4.3v-1.5c0-0.8-0.5-1.4-2.1-1.4c-1.6,0-2.1,0.6-2.1,1.4V393.8z"/>
		<path class="st0" d="M169.8,398.9c0,0.2-0.1,0.3-0.3,0.3h-0.8c-0.2,0-0.3-0.1-0.3-0.3v-12.3c0-0.2,0.1-0.3,0.3-0.3h0.8
			c0.2,0,0.3,0.1,0.3,0.3V398.9z"/>
		<path class="st0" d="M182.9,389.3c0-1.1-0.6-1.7-2.5-1.7c-1.9,0-2.5,0.7-2.5,1.7v0.6c0,0.9,0.6,1.3,1.1,1.4l3.5,1.3
			c1,0.4,1.9,1.1,1.9,2.4v1.6c0,1.5-1,2.7-3.9,2.7c-3,0-3.9-1.2-3.9-2.7v-1c0-0.2,0.1-0.3,0.3-0.3h0.8c0.2,0,0.3,0.1,0.3,0.3v0.8
			c0,1.1,0.7,1.8,2.7,1.8c2,0,2.7-0.7,2.7-1.8v-1.1c0-1-0.8-1.3-1.5-1.6l-3.3-1.3c-0.8-0.3-1.6-1.1-1.6-2.2v-1
			c0-1.5,0.9-2.7,3.8-2.7c2.9,0,3.8,1.2,3.8,2.7v0.9c0,0.2-0.1,0.3-0.3,0.3h-0.8c-0.2,0-0.3-0.1-0.3-0.3V389.3z"/>
		<path class="st0" d="M186.7,392.3c0-1.4,0.8-2.3,3.3-2.3c2.5,0,3.3,1,3.3,2.3v6.6c0,0.2-0.1,0.3-0.3,0.3h-0.6
			c-0.2,0-0.3-0.1-0.3-0.3l0-0.7c-0.5,0.4-1.6,1.1-3,1.1c-1.7,0-2.6-1-2.6-2.2v-0.9c0-1.2,0.8-2.2,2.4-2.2h3.2v-1.7
			c0-0.8-0.4-1.4-2.1-1.4c-1.6,0-2.1,0.6-2.1,1.4v0.2c0,0.2-0.1,0.3-0.3,0.3H187c-0.2,0-0.3-0.1-0.3-0.3V392.3z M192.1,397.2v-2.2
			h-2.9c-1,0-1.4,0.5-1.4,1.3v0.6c0,0.8,0.5,1.3,1.6,1.3C190.7,398.2,191.6,397.5,192.1,397.2z"/>
		<path class="st0" d="M197.4,398.9c0,0.2-0.1,0.3-0.3,0.3h-0.8c-0.2,0-0.3-0.1-0.3-0.3v-12.3c0-0.2,0.1-0.3,0.3-0.3h0.8
			c0.2,0,0.3,0.1,0.3,0.3V398.9z"/>
		<path class="st0" d="M200,392.3c0-1.4,0.8-2.3,3.3-2.3c2.5,0,3.3,1,3.3,2.3v6.6c0,0.2-0.1,0.3-0.3,0.3h-0.6
			c-0.2,0-0.3-0.1-0.3-0.3l0-0.7c-0.5,0.4-1.6,1.1-3,1.1c-1.7,0-2.6-1-2.6-2.2v-0.9c0-1.2,0.8-2.2,2.4-2.2h3.2v-1.7
			c0-0.8-0.4-1.4-2.1-1.4c-1.6,0-2.1,0.6-2.1,1.4v0.2c0,0.2-0.1,0.3-0.3,0.3h-0.7c-0.2,0-0.3-0.1-0.3-0.3V392.3z M205.4,397.2v-2.2
			h-2.9c-1,0-1.4,0.5-1.4,1.3v0.6c0,0.8,0.5,1.3,1.6,1.3C204,398.2,205,397.5,205.4,397.2z"/>
		<path class="st0" d="M214.4,392c0-0.7-0.7-1.1-2-1.1c-1.4,0-2,0.4-2,1.1v0.5c0,0.6,0.5,0.9,0.9,1l2.8,0.9c0.9,0.3,1.6,0.9,1.6,1.8
			v1.1c0,1.1-1,2.1-3.4,2.1c-2.4,0-3.3-1-3.3-2.1v-0.5c0-0.2,0.1-0.3,0.2-0.3h0.7c0.2,0,0.2,0.1,0.2,0.3v0.4c0,0.7,0.7,1.2,2.2,1.2
			c1.4,0,2.2-0.4,2.2-1.2v-0.7c0-0.6-0.5-0.8-1.1-1l-2.8-0.9c-0.6-0.2-1.4-0.9-1.4-1.8V392c0-1.1,0.8-2.1,3.2-2.1
			c2.3,0,3.2,1,3.2,2.1v0.5c0,0.2-0.1,0.2-0.3,0.2h-0.7c-0.2,0-0.2-0.1-0.2-0.2V392z"/>
		<path class="st0" d="M232.6,398.9c0,0.2-0.1,0.3-0.3,0.3h-0.8c-0.2,0-0.3-0.1-0.3-0.3v-9.5c-0.1,0.4-0.3,0.8-0.4,1.1l-2.7,6.4
			c-0.1,0.2-0.2,0.3-0.4,0.3h-0.7c-0.2,0-0.3-0.1-0.4-0.3l-2.8-6.6c-0.1-0.2-0.2-0.6-0.3-1v9.5c0,0.2-0.1,0.3-0.3,0.3h-0.7
			c-0.2,0-0.3-0.1-0.3-0.3v-12c0-0.2,0.1-0.3,0.3-0.3h0.7c0.1,0,0.2,0.1,0.3,0.2l3.5,8.1c0.1,0.2,0.2,0.6,0.3,1
			c0.1-0.3,0.3-0.7,0.3-1l3.4-8.2c0-0.1,0.1-0.1,0.3-0.1h0.8c0.2,0,0.3,0.1,0.3,0.3V398.9z"/>
		<path class="st0" d="M242.2,394.6c0,0.2-0.1,0.3-0.3,0.3h-5.2v2c0,0.8,0.4,1.4,2.1,1.4c1.7,0,2.1-0.6,2.1-1.4v-0.3
			c0-0.2,0.1-0.3,0.3-0.3h0.7c0.2,0,0.3,0.1,0.3,0.3v0.4c0,1.4-0.8,2.4-3.4,2.4c-2.5,0-3.4-1-3.4-2.4v-4.6c0-1.4,0.8-2.4,3.4-2.4
			c2.5,0,3.4,1,3.4,2.4V394.6z M236.7,393.8h4.3v-1.5c0-0.8-0.5-1.4-2.1-1.4c-1.6,0-2.1,0.6-2.1,1.4V393.8z"/>
		<path class="st0" d="M246.1,398.9c0,0.2-0.1,0.3-0.3,0.3h-0.8c-0.2,0-0.3-0.1-0.3-0.3v-12.3c0-0.2,0.1-0.3,0.3-0.3h0.8
			c0.2,0,0.3,0.1,0.3,0.3V398.9z"/>
		<path class="st0" d="M255.5,394.6c0,0.2-0.1,0.3-0.3,0.3H250v2c0,0.8,0.4,1.4,2.1,1.4c1.7,0,2.1-0.6,2.1-1.4v-0.3
			c0-0.2,0.1-0.3,0.3-0.3h0.7c0.2,0,0.3,0.1,0.3,0.3v0.4c0,1.4-0.8,2.4-3.4,2.4c-2.5,0-3.4-1-3.4-2.4v-4.6c0-1.4,0.8-2.4,3.4-2.4
			c2.5,0,3.4,1,3.4,2.4V394.6z M250,393.8h4.3v-1.5c0-0.8-0.5-1.4-2.1-1.4c-1.6,0-2.1,0.6-2.1,1.4V393.8z M252.5,388.5
			c-0.1,0.1-0.1,0.2-0.3,0.2h-0.6c-0.2,0-0.3-0.1-0.1-0.3l1.2-2.1c0.1-0.1,0.2-0.2,0.4-0.2h0.8c0.2,0,0.2,0.1,0.1,0.3L252.5,388.5z"
			/>
		<path class="st0" d="M259,390.1c0.2,0,0.2,0.1,0.3,0.3l0,0.7c0.5-0.4,1.6-1.1,3.1-1.1c1.7,0,2.6,1,2.6,2.3v6.7
			c0,0.2-0.1,0.3-0.3,0.3H264c-0.2,0-0.3-0.1-0.3-0.3v-6.4c0-0.8-0.4-1.4-1.6-1.4c-1.4,0-2.4,0.7-2.8,1v6.8c0,0.2-0.1,0.3-0.3,0.3
			h-0.8c-0.2,0-0.3-0.1-0.3-0.3v-8.5c0-0.2,0.1-0.3,0.3-0.3H259z"/>
		<path class="st0" d="M273.3,398.2c-0.5,0.4-1.6,1.1-3.1,1.1c-1.8,0-2.6-1-2.6-2.4v-4.7c0-1.4,0.8-2.4,2.6-2.4
			c1.5,0,2.6,0.7,3.1,1.1v-4.4c0-0.2,0.1-0.3,0.3-0.3h0.8c0.2,0,0.3,0.1,0.3,0.3v12.3c0,0.2-0.1,0.3-0.3,0.3h-0.7
			c-0.2,0-0.3-0.1-0.3-0.3L273.3,398.2z M268.9,396.8c0,0.8,0.4,1.4,1.6,1.4c1.3,0,2.4-0.7,2.8-1v-5c-0.4-0.3-1.4-1-2.8-1
			c-1.2,0-1.6,0.6-1.6,1.4V396.8z"/>
		<path class="st0" d="M284,394.6c0,0.2-0.1,0.3-0.3,0.3h-5.2v2c0,0.8,0.4,1.4,2.1,1.4c1.7,0,2.1-0.6,2.1-1.4v-0.3
			c0-0.2,0.1-0.3,0.3-0.3h0.7c0.2,0,0.3,0.1,0.3,0.3v0.4c0,1.4-0.8,2.4-3.4,2.4c-2.5,0-3.4-1-3.4-2.4v-4.6c0-1.4,0.8-2.4,3.4-2.4
			c2.5,0,3.4,1,3.4,2.4V394.6z M278.5,393.8h4.3v-1.5c0-0.8-0.5-1.4-2.1-1.4c-1.6,0-2.1,0.6-2.1,1.4V393.8z"/>
		<path class="st0" d="M291.9,390.1c0.2,0,0.3,0.1,0.3,0.3v0.5c0,0.1,0,0.2-0.1,0.2l-4.7,7.1h4.7c0.2,0,0.3,0.1,0.3,0.3v0.5
			c0,0.2-0.1,0.3-0.3,0.3h-6c-0.2,0-0.3-0.1-0.3-0.3v-0.5c0-0.1,0-0.2,0.1-0.2l4.7-7h-4.2c-0.2,0-0.3-0.1-0.3-0.3v-0.5
			c0-0.2,0.1-0.3,0.3-0.3H291.9z"/>
	</g>
</g>
</svg>
