<?xml version="1.0" encoding="utf-8"?>
<!-- Generator: Adobe Illustrator 22.0.1, SVG Export Plug-In . SVG Version: 6.00 Build 0)  -->
<svg version="1.1" id="Capa_1" xmlns="http://www.w3.org/2000/svg" xmlns:xlink="http://www.w3.org/1999/xlink" x="0px" y="0px"
	 viewBox="0 0 416 417.3" style="enable-background:new 0 0 416 417.3;" xml:space="preserve">
<style type="text/css">
	.st0{fill:#FFFFFF;}
</style>
<g>
	<g>
		<g>
			<g>
				<path class="st0" d="M162.9,221.9c0,3.8,3.4,5.4,7.4,5.4s7.5-1.6,7.5-5.4v-38c0-1.7,0.7-2.5,2.4-2.5h8.9c1.7,0,2.3,0.7,2.3,2.5
					v40.5c0,7.1-5.6,14.2-21.1,14.2s-21-7.1-21-14.2v-40.5c0-1.7,0.7-2.5,2.4-2.5h8.9c1.7,0,2.3,0.7,2.3,2.5V221.9z"/>
				<path class="st0" d="M243,235.3c0,1.7-0.6,2.5-2.3,2.5h-8.1c-1.2,0-1.7-0.3-2.2-1.2l-13.2-22.1c-1.3-2.2-2.6-5.2-3.5-7.5v28.2
					c0,1.7-0.6,2.5-2.3,2.5h-8.1c-1.7,0-2.4-0.7-2.4-2.5v-51.5c0-1.7,0.7-2.5,2.4-2.5h8.1c1.1,0,1.6,0.3,2.1,1l13.9,23.5
					c1,1.7,2.1,4.2,2.9,6.2v-28.2c0-1.7,0.7-2.5,2.4-2.5h8.1c1.7,0,2.3,0.7,2.3,2.5V235.3z"/>
				<path class="st0" d="M266.5,235.3c0,1.7-0.6,2.5-2.3,2.5h-8.9c-1.7,0-2.4-0.7-2.4-2.5v-51.5c0-1.7,0.7-2.5,2.4-2.5h8.9
					c1.7,0,2.3,0.7,2.3,2.5V235.3z"/>
			</g>
		</g>
		<g>
			<g>
				<path class="st0" d="M211.2,24.3c1.9-0.3,4.1,0,4.1,4.1v77.6h17.4c3.1,0,4.4,1,4.4,4.1v11.5c0,3.1-1.3,4.3-4.4,4.3H173
					c-3.1,0-4.4-1.2-4.4-4.3v-11.5c0-3.1,1.3-4.1,4.4-4.1h18.2V47.4l-18.2,3c-2.8,0.4-4.4-0.6-4.4-3.7V35.1c0-3.1,1.6-4.3,4.4-4.7
					L211.2,24.3z"/>
			</g>
		</g>
		<g>
			<g>
				<path class="st0" d="M240.9,35.2c0,0.6-0.2,0.8-0.8,0.8h-7v1.7c0,0.9,0.5,1.3,1.7,1.3c1.2,0,1.8-0.4,1.8-1.3v0
					c0-0.6,0.2-0.8,0.8-0.8h2.5c0.6,0,0.8,0.2,0.8,0.8v0.2c0,2.8-1.6,4.5-5.9,4.5s-6.2-1.8-6.2-4.5V32c0-2.8,1.9-4.5,6.2-4.5
					s6,1.8,6,4.5V35.2z M233.2,33.1h3.5v-0.8c0-0.9-0.5-1.3-1.8-1.3c-1.2,0-1.7,0.4-1.7,1.3V33.1z"/>
				<path class="st0" d="M252.8,28.3v2.3c0,0.6-0.3,0.8-0.9,0.9c-2,0.2-3.3,1-3.9,1.6v8.3c0,0.6-0.2,0.9-0.8,0.9h-3
					c-0.6,0-0.8-0.3-0.8-0.9V28.6c0-0.6,0.2-0.8,0.8-0.8h2.8c0.6,0,0.8,0.2,0.8,0.8l0.1,0.8c0.7-0.8,1.9-1.9,4-1.9
					C252.6,27.5,252.8,27.7,252.8,28.3z"/>
			</g>
		</g>
		<rect x="228.4" y="43.9" class="st0" width="24.4" height="2.3"/>
		<g>
			<g>
				<path class="st0" d="M120.7,155.5v4.7c0,0.3-0.1,0.4-0.4,0.4h-1.2c-0.3,0-0.4-0.1-0.4-0.4v-12.9c0-0.3,0.1-0.4,0.4-0.4h4.1
					c3.4,0,4.5,1.5,4.5,3.1v2.4c0,1.7-1.1,3.1-4.5,3.1H120.7z M120.7,148.5v5.3h2.5c1.8,0,2.6-0.7,2.6-1.8v-1.8
					c0-1.1-0.8-1.8-2.6-1.8H120.7z"/>
				<path class="st0" d="M136.1,157.3c0,1.1,0.8,1.8,2.6,1.8c1.8,0,2.6-0.7,2.6-1.8v-10.1c0-0.3,0.1-0.4,0.4-0.4h1.2
					c0.3,0,0.4,0.1,0.4,0.4v10.4c0,1.7-1.1,3.1-4.6,3.1c-3.4,0-4.5-1.5-4.5-3.1v-10.4c0-0.3,0.1-0.4,0.4-0.4h1.2
					c0.3,0,0.4,0.1,0.4,0.4V157.3z"/>
				<path class="st0" d="M150.9,160.6c-0.3,0-0.4-0.1-0.4-0.4v-12.9c0-0.3,0.1-0.4,0.4-0.4h6.8c0.3,0,0.4,0.1,0.4,0.4v0.9
					c0,0.3-0.1,0.4-0.4,0.4h-5.3v4.1h4.9c0.3,0,0.4,0.1,0.4,0.4v0.9c0,0.3-0.1,0.4-0.4,0.4h-4.9v4.7h5.5c0.3,0,0.4,0.1,0.4,0.4v0.9
					c0,0.3-0.1,0.4-0.4,0.4H150.9z"/>
				<path class="st0" d="M171.2,150.1c0-1.1-0.7-1.7-2.4-1.7c-1.8,0-2.4,0.6-2.4,1.7v0.4c0,0.9,0.6,1.2,1,1.4l3.6,1.4
					c1.2,0.5,2.2,1.3,2.2,2.7v1.7c0,1.7-1.1,3.1-4.5,3.1s-4.5-1.5-4.5-3.1v-1.2c0-0.3,0.1-0.4,0.4-0.4h1.2c0.3,0,0.4,0.1,0.4,0.4
					v0.9c0,1.1,0.8,1.7,2.6,1.7c1.8,0,2.6-0.6,2.6-1.7v-0.9c0-1-0.9-1.4-1.7-1.7l-3.4-1.3c-0.9-0.3-1.8-1.3-1.8-2.5v-1.2
					c0-1.7,1-3.1,4.3-3.1s4.3,1.5,4.3,3.1v0.9c0,0.3-0.1,0.4-0.4,0.4h-1.2c-0.3,0-0.4-0.1-0.4-0.4V150.1z"/>
				<path class="st0" d="M187.4,146.9c0.3,0,0.4,0.1,0.4,0.4v0.9c0,0.3-0.1,0.4-0.4,0.4h-3.2v11.6c0,0.3-0.1,0.4-0.4,0.4h-1.2
					c-0.3,0-0.4-0.1-0.4-0.4v-11.6h-3.2c-0.3,0-0.4-0.1-0.4-0.4v-0.9c0-0.3,0.1-0.4,0.4-0.4H187.4z"/>
				<path class="st0" d="M193.6,149.8c0-1.7,1.1-3.1,4.5-3.1c3.4,0,4.6,1.5,4.6,3.1v7.8c0,1.7-1.1,3.1-4.6,3.1
					c-3.4,0-4.5-1.5-4.5-3.1V149.8z M200.8,150.1c0-1.1-0.8-1.8-2.6-1.8c-1.8,0-2.6,0.7-2.6,1.8v7.2c0,1.1,0.8,1.8,2.6,1.8
					c1.8,0,2.6-0.7,2.6-1.8V150.1z"/>
				<path class="st0" d="M225.8,158.9c0.3,0,0.4,0.1,0.4,0.4v0.9c0,0.3-0.1,0.4-0.4,0.4h-7.7c-0.3,0-0.4-0.1-0.4-0.4v-3.4
					c0-1.5,0.9-2,1.6-2.3l3.8-1.4c0.4-0.1,1-0.5,1-1.3v-1.7c0-1.1-0.6-1.8-2.4-1.8c-1.8,0-2.4,0.6-2.4,1.8v0.9
					c0,0.3-0.1,0.4-0.4,0.4h-1.2c-0.3,0-0.4-0.1-0.4-0.4v-1.2c0-1.7,0.9-3.1,4.3-3.1s4.3,1.5,4.3,3.1v1.9c0,1.8-1.1,2.5-1.8,2.7
					l-3.4,1.2c-0.7,0.2-1.2,0.4-1.2,1.2v2H225.8z"/>
				<path class="st0" d="M232.7,149.8c0-1.7,1-3.1,4.3-3.1s4.4,1.5,4.4,3.1v7.8c0,1.7-1,3.1-4.4,3.1s-4.3-1.5-4.3-3.1V149.8z
					 M239.4,150.1c0-1.1-0.6-1.8-2.4-1.8s-2.4,0.7-2.4,1.8v7.2c0,1.1,0.6,1.8,2.4,1.8s2.4-0.7,2.4-1.8V150.1z"/>
				<path class="st0" d="M252.7,146.8c0.2,0,0.4,0,0.4,0.4v11.8h2.9c0.3,0,0.4,0.1,0.4,0.4v0.9c0,0.3-0.1,0.4-0.4,0.4h-7.9
					c-0.3,0-0.4-0.1-0.4-0.4v-0.9c0-0.3,0.1-0.4,0.4-0.4h3v-10l-3,0.6c-0.2,0-0.4-0.1-0.4-0.3v-1c0-0.3,0.1-0.4,0.4-0.4L252.7,146.8
					z"/>
				<path class="st0" d="M270.6,157.7c0,1.5-0.9,3-4.2,3s-4.2-1.5-4.2-3v-0.4c0-0.3,0.1-0.4,0.4-0.4h1.2c0.3,0,0.4,0.1,0.4,0.4v0.2
					c0,1,0.5,1.7,2.3,1.7c1.8,0,2.3-0.7,2.3-1.7v-3.1c-0.5,0.5-1.3,0.8-2.6,0.8c-3,0-4-1.5-4-3.1v-2.2c0-1.7,0.9-3.1,4.3-3.1
					c3.3,0,4.2,1.5,4.2,3.1V157.7z M266.3,148.3c-1.8,0-2.3,0.6-2.3,1.7v1.7c0,1.1,0.6,1.8,2.3,1.8c1.7,0,2.3-0.6,2.3-1.7v-1.8
					C268.6,149,268.1,148.3,266.3,148.3z"/>
				<path class="st0" d="M283,154c0.3,0,0.4,0.1,0.4,0.4v0.8c0,0.3-0.1,0.4-0.4,0.4h-5.4c-0.3,0-0.4-0.1-0.4-0.4v-0.8
					c0-0.3,0.1-0.4,0.4-0.4H283z"/>
				<path class="st0" d="M294.7,146.8c0.2,0,0.4,0,0.4,0.4v11.8h2.9c0.3,0,0.4,0.1,0.4,0.4v0.9c0,0.3-0.1,0.4-0.4,0.4h-7.9
					c-0.3,0-0.4-0.1-0.4-0.4v-0.9c0-0.3,0.1-0.4,0.4-0.4h3v-10l-3,0.6c-0.2,0-0.4-0.1-0.4-0.3v-1c0-0.3,0.1-0.4,0.4-0.4L294.7,146.8
					z"/>
			</g>
		</g>
	</g>
	<g>
		<path class="st0" d="M4.8,330.5c0.1-1,0.3-1.4,1.4-1.4h3.5c1,0,1.3,0.4,1.4,1.4l0.7,10.4v14.9c0,1-0.3,1.5-1.4,1.5h-5
			c-1,0-1.4-0.5-1.4-1.5v-14.9L4.8,330.5z M4.2,320.2c0-1,0.3-1.4,1.3-1.4h4.9c1,0,1.4,0.4,1.4,1.4v4.6c0,1-0.4,1.4-1.4,1.4H5.5
			c-1,0-1.3-0.4-1.3-1.4V320.2z"/>
		<path class="st0" d="M53.4,345.6c0,1-0.3,1.4-1.4,1.4h-4.7c-1,0-1.4-0.5-1.4-1.4V324c-0.6,2-1.2,4.1-1.6,5.2L40,339.7
			c-0.4,1-0.9,1.5-1.8,1.5h-4.1c-1,0-1.4-0.6-1.8-1.5l-4.8-11.3c-0.3-0.8-0.9-2.5-1.3-4.2v21.5c0,1-0.3,1.4-1.4,1.4h-4.5
			c-1,0-1.4-0.5-1.4-1.4v-35.7c0-1,0.3-1.4,1.4-1.4h4.5c0.7,0,1,0.3,1.2,0.8l8.7,19.7c0.5,1.1,0.9,2.5,1.4,4c0.5-1.4,1-2.9,1.5-3.9
			l8.4-19.9c0.2-0.5,0.6-0.7,1.3-0.7H52c1,0,1.4,0.5,1.4,1.4V345.6z"/>
		<path class="st0" d="M60.3,326.5c0-5,3.4-8.2,11.4-8.2c8.3,0,11.4,3.1,11.4,8.2v19c0,1-0.3,1.5-1.4,1.5h-4.2c-1,0-1.2-0.5-1.4-1.5
			l-0.1-1.2c-1.6,1.4-4.5,3.1-8.4,3.1c-5.5,0-8.2-3.3-8.2-7.1v-2.5c0-3.8,2.9-7.1,8.5-7.1h7.8V327c0-2-1-3.2-4.2-3.2
			s-4.4,0.9-4.4,2.9v0.4c0,1-0.4,1.4-1.4,1.4h-4.1c-1,0-1.4-0.4-1.4-1.4V326.5z M75.9,339.1v-3.2h-6.4c-2.2,0-2.7,1.1-2.7,2.5v0.9
			c0,1.7,1.2,2.2,2.9,2.2C72.3,341.5,74.6,340.1,75.9,339.1z M74.7,314.3c-0.3,0.4-0.8,0.9-1.8,0.9h-3.7c-0.8,0-1.2-0.3-0.7-1.4
			l2.7-5.5c0.4-0.8,1-1.4,2-1.4h4.9c1,0,1.2,0.6,0.7,1.4L74.7,314.3z"/>
		<path class="st0" d="M112.7,345.6c0.5,0.7,0.3,1.4-0.7,1.4h-5.2c-1,0-1.6-0.7-2-1.4l-5-7.7l-4.9,7.7c-0.5,0.7-1,1.4-2,1.4h-4.5
			c-1,0-1.2-0.7-0.7-1.4l8.7-13l-8.3-12.4c-0.5-0.7-0.3-1.4,0.7-1.4h5.2c1,0,1.5,0.6,2,1.4l4.8,7.3l4.7-7.3c0.5-0.8,1.1-1.4,2-1.4
			h4.5c1,0,1.2,0.7,0.7,1.4l-8.5,12.6L112.7,345.6z"/>
		<path class="st0" d="M124.7,313.7c0,1-0.3,1.4-1.4,1.4h-4.7c-1,0-1.4-0.4-1.4-1.4v-4.9c0-1,0.4-1.5,1.4-1.5h4.7
			c1,0,1.4,0.5,1.4,1.5V313.7z M124.7,345.5c0,1-0.3,1.5-1.4,1.5h-4.7c-1,0-1.4-0.5-1.4-1.5v-25.3c0-1,0.4-1.4,1.4-1.4h4.7
			c1,0,1.4,0.4,1.4,1.4V345.5z"/>
		<path class="st0" d="M137,318.8c1,0,1.4,0.4,1.4,1.4l0.1,1.4c1.5-1.3,4.2-3.2,8.8-3.2c3.5,0,6,1.5,7.2,3.8
			c1.4-1.2,4.1-3.8,9.5-3.8c5.2,0,8.2,3.2,8.2,7.6v19.6c0,1-0.4,1.5-1.4,1.5h-4.6c-1,0-1.5-0.5-1.5-1.5v-17.7c0-2-0.7-3-3.1-3
			c-2.9,0-5.2,1.6-6.2,2.5v18.2c0,1-0.4,1.5-1.4,1.5h-4.6c-1,0-1.4-0.5-1.4-1.5v-17.7c0-2-0.7-3-3.1-3c-2.8,0-5.2,1.6-6.2,2.5v18.2
			c0,1-0.3,1.5-1.4,1.5h-4.7c-1,0-1.4-0.5-1.4-1.5v-25.4c0-1,0.4-1.4,1.4-1.4H137z"/>
		<path class="st0" d="M178,326.7c0-5,3.9-8.3,12.2-8.3c8.3,0,12.2,3.3,12.2,8.3v12.4c0,5.1-3.9,8.4-12.2,8.4
			c-8.3,0-12.2-3.3-12.2-8.4V326.7z M195.1,327.3c0-2.1-1.6-3.1-4.8-3.1c-3.2,0-4.8,1-4.8,3.1v11.2c0,2.2,1.6,3.1,4.8,3.1
			c3.2,0,4.8-1,4.8-3.1V327.3z"/>
		<path class="st0" d="M225.2,318.8c1,0,1.3,0.4,1.4,1.4l0.1,1.4c1.6-1.2,4.4-3.2,9-3.2c5.6,0,8.2,3.2,8.2,8.3v12.6
			c0,5-2.6,8.3-8.2,8.3c-4.4,0-7.2-1.8-8.8-3v12.5c0,1-0.3,1.4-1.4,1.4h-4.7c-1,0-1.4-0.4-1.4-1.4v-36.7c0-1,0.4-1.4,1.4-1.4H225.2z
			 M236.6,327.7c0-1.5-0.5-2.9-3.1-2.9c-2.8,0-5.3,1.7-6.5,2.6v11c1.2,0.9,3.7,2.6,6.5,2.6c2.7,0,3.1-1.5,3.1-3V327.7z"/>
		<path class="st0" d="M267,344.3c-1.5,1.3-4.2,3.1-8.7,3.1c-5.2,0-8.2-3.2-8.2-7.6v-19.6c0-1,0.4-1.4,1.4-1.4h4.6
			c1,0,1.4,0.4,1.4,1.4V338c0,2,0.7,3,3.1,3c2.8,0,5.2-1.6,6.2-2.5v-18.3c0-1,0.4-1.4,1.4-1.4h4.7c1,0,1.4,0.4,1.4,1.4v25.4
			c0,1-0.4,1.4-1.4,1.4h-4.4c-1,0-1.2-0.4-1.4-1.4L267,344.3z"/>
		<path class="st0" d="M286.4,318.8c1,0,1.4,0.4,1.4,1.4l0.1,1.4c1.6-1.3,4.5-3.2,9.1-3.2c5.2,0,8.2,3.2,8.2,7.6v19.6
			c0,1-0.4,1.5-1.4,1.5h-4.6c-1,0-1.4-0.5-1.4-1.5v-17.7c0-2-0.7-3-3.1-3c-2.8,0-5.4,1.6-6.6,2.5v18.2c0,1-0.3,1.5-1.4,1.5h-4.7
			c-1,0-1.4-0.5-1.4-1.5v-25.4c0-1,0.4-1.4,1.4-1.4H286.4z"/>
		<path class="st0" d="M325.9,318.9c1,0,1.4,0.3,1.4,1.3v3.2c0,1-0.4,1.4-1.4,1.4h-5.2v13c0,2.2,1.4,3.1,4.5,3.1h1.3
			c1,0,1.4,0.4,1.4,1.4v3.3c0,1-0.5,1.4-1.4,1.4h-2.4c-8.3,0-10.8-2.8-10.8-8.4v-13.8h-2.8c-1,0-1.4-0.4-1.4-1.4v-2.8
			c0-1,0.4-1.2,1.4-1.4l2.6-0.3h0.2v-5.4c0-1,0.4-1.4,1.4-1.4h4.8c1,0,1.3,0.4,1.3,1.4v5.4H325.9z"/>
		<path class="st0" d="M332.1,326.5c0-5,3.4-8.2,11.4-8.2c8.3,0,11.4,3.1,11.4,8.2v19c0,1-0.3,1.5-1.4,1.5h-4.2
			c-1,0-1.2-0.5-1.4-1.5l-0.1-1.2c-1.6,1.4-4.5,3.1-8.4,3.1c-5.5,0-8.2-3.3-8.2-7.1v-2.5c0-3.8,2.9-7.1,8.5-7.1h7.8V327
			c0-2-1-3.2-4.2-3.2s-4.4,0.9-4.4,2.9v0.4c0,1-0.4,1.4-1.4,1.4h-4.1c-1,0-1.4-0.4-1.4-1.4V326.5z M347.6,339.1v-3.2h-6.4
			c-2.2,0-2.7,1.1-2.7,2.5v0.9c0,1.7,1.2,2.2,2.9,2.2C344,341.5,346.3,340.1,347.6,339.1z"/>
		<path class="st0" d="M368.7,350c0,5-3.8,8.3-12.1,8.3h-0.6c-1,0-1.4-0.3-1.4-1.4v-3.3c0-1,0.5-1.5,1.4-1.5h0.6
			c3.2,0,4.7-1,4.7-3.1v-29c0-1,0.3-1.4,1.3-1.4h4.7c1,0,1.4,0.4,1.4,1.4V350z M368.7,313.7c0,1-0.3,1.4-1.4,1.4h-4.7
			c-1,0-1.4-0.4-1.4-1.4v-4.9c0-1,0.4-1.5,1.4-1.5h4.7c1,0,1.4,0.5,1.4,1.5V313.7z"/>
		<path class="st0" d="M397.8,333.2c0,0.9-0.3,1.3-1.2,1.3h-14.5v4.2c0,2,1.1,3.1,4.4,3.1s4.4-1.1,4.4-3.1v-0.3c0-1,0.4-1.4,1.4-1.4
			h4c1,0,1.4,0.5,1.4,1.4v0.6c0,5.1-2.9,8.4-11.3,8.4s-11.6-3.3-11.6-8.4v-12.4c0-5,3.3-8.3,11.7-8.3c8.3,0,11.3,3.3,11.3,8.3V333.2
			z M382.1,329.5h8.8V327c0-2-1.2-3.1-4.4-3.1c-3.2,0-4.4,1.1-4.4,3.1V329.5z"/>
		<path class="st0" d="M411.6,345.6c0,1-0.3,1.4-1.3,1.4h-4.9c-1,0-1.4-0.4-1.4-1.4V341c0-1,0.4-1.4,1.4-1.4h4.9
			c1,0,1.3,0.4,1.3,1.4V345.6z M411,335.3c-0.1,1-0.3,1.4-1.4,1.4h-3.5c-1,0-1.3-0.4-1.4-1.4l-0.7-10.4V310c0-1,0.3-1.5,1.4-1.5h5
			c1,0,1.4,0.5,1.4,1.5v14.9L411,335.3z"/>
	</g>
	<g>
		<path class="st0" d="M150.8,386.9c-0.2,0-0.2-0.1-0.2-0.3v-12c0-0.2,0.1-0.3,0.2-0.3h3.7c3,0,4,1.2,4,2.7v7.1c0,1.5-1,2.7-4,2.7
			H150.8z M151.9,375.5v10.3h2.7c2,0,2.7-0.7,2.7-1.8v-6.7c0-1.1-0.7-1.8-2.7-1.8H151.9z"/>
		<path class="st0" d="M161.2,380c0-1.4,0.8-2.3,3.3-2.3c2.5,0,3.3,1,3.3,2.3v6.6c0,0.2-0.1,0.3-0.3,0.3h-0.6
			c-0.2,0-0.3-0.1-0.3-0.3l0-0.7c-0.5,0.4-1.6,1.1-3,1.1c-1.7,0-2.6-1-2.6-2.2V384c0-1.2,0.8-2.2,2.4-2.2h3.2v-1.7
			c0-0.8-0.4-1.4-2.1-1.4c-1.6,0-2.1,0.6-2.1,1.4v0.2c0,0.2-0.1,0.3-0.3,0.3h-0.7c-0.2,0-0.3-0.1-0.3-0.3V380z M166.6,385v-2.2h-2.9
			c-1,0-1.4,0.5-1.4,1.3v0.6c0,0.8,0.5,1.3,1.6,1.3C165.2,386,166.1,385.3,166.6,385z"/>
		<path class="st0" d="M171.6,377.8c0.2,0,0.2,0.1,0.3,0.3l0,0.7c0.5-0.4,1.6-1.1,3.1-1.1c1.7,0,2.6,1,2.6,2.3v6.7
			c0,0.2-0.1,0.3-0.3,0.3h-0.8c-0.2,0-0.3-0.1-0.3-0.3v-6.4c0-0.8-0.4-1.4-1.6-1.4c-1.4,0-2.4,0.7-2.8,1v6.8c0,0.2-0.1,0.3-0.3,0.3
			h-0.8c-0.2,0-0.3-0.1-0.3-0.3v-8.5c0-0.2,0.1-0.3,0.3-0.3H171.6z"/>
		<path class="st0" d="M181.7,376.1c0,0.2-0.1,0.3-0.3,0.3h-0.8c-0.2,0-0.3-0.1-0.3-0.3v-1.7c0-0.2,0.1-0.3,0.3-0.3h0.8
			c0.2,0,0.3,0.1,0.3,0.3V376.1z M181.7,386.7c0,0.2-0.1,0.3-0.3,0.3h-0.8c-0.2,0-0.3-0.1-0.3-0.3v-8.5c0-0.2,0.1-0.3,0.3-0.3h0.8
			c0.2,0,0.3,0.1,0.3,0.3V386.7z"/>
		<path class="st0" d="M191.1,382.3c0,0.2-0.1,0.3-0.3,0.3h-5.2v2c0,0.8,0.4,1.4,2.1,1.4s2.1-0.6,2.1-1.4v-0.3
			c0-0.2,0.1-0.3,0.3-0.3h0.7c0.2,0,0.3,0.1,0.3,0.3v0.4c0,1.4-0.8,2.4-3.4,2.4c-2.5,0-3.4-1-3.4-2.4v-4.6c0-1.4,0.8-2.4,3.4-2.4
			c2.5,0,3.4,1,3.4,2.4V382.3z M185.6,381.6h4.3v-1.5c0-0.8-0.5-1.4-2.1-1.4c-1.6,0-2.1,0.6-2.1,1.4V381.6z"/>
		<path class="st0" d="M194.9,386.7c0,0.2-0.1,0.3-0.3,0.3h-0.8c-0.2,0-0.3-0.1-0.3-0.3v-12.3c0-0.2,0.1-0.3,0.3-0.3h0.8
			c0.2,0,0.3,0.1,0.3,0.3V386.7z"/>
		<path class="st0" d="M197.6,380c0-1.4,0.8-2.3,3.3-2.3c2.5,0,3.3,1,3.3,2.3v6.6c0,0.2-0.1,0.3-0.3,0.3h-0.6
			c-0.2,0-0.3-0.1-0.3-0.3l0-0.7c-0.5,0.4-1.6,1.1-3,1.1c-1.7,0-2.6-1-2.6-2.2V384c0-1.2,0.8-2.2,2.4-2.2h3.2v-1.7
			c0-0.8-0.4-1.4-2.1-1.4c-1.6,0-2.1,0.6-2.1,1.4v0.2c0,0.2-0.1,0.3-0.3,0.3h-0.7c-0.2,0-0.3-0.1-0.3-0.3V380z M202.9,385v-2.2H200
			c-1,0-1.4,0.5-1.4,1.3v0.6c0,0.8,0.5,1.3,1.6,1.3C201.6,386,202.5,385.3,202.9,385z"/>
		<path class="st0" d="M214.2,386.9c-0.2,0-0.3-0.1-0.4-0.3l-3.7-12c-0.1-0.2,0-0.3,0.2-0.3h0.9c0.2,0,0.3,0.1,0.3,0.3l2.6,8.6
			c0.1,0.4,0.3,1.3,0.4,1.9c0.1-0.5,0.3-1.5,0.4-1.9l2.7-8.7c0.1-0.2,0.1-0.3,0.3-0.3h0.8c0.2,0,0.3,0.1,0.2,0.3l-3.7,12
			c-0.1,0.2-0.1,0.3-0.3,0.3H214.2z"/>
		<path class="st0" d="M227.5,382.3c0,0.2-0.1,0.3-0.3,0.3H222v2c0,0.8,0.4,1.4,2.1,1.4s2.1-0.6,2.1-1.4v-0.3c0-0.2,0.1-0.3,0.3-0.3
			h0.7c0.2,0,0.3,0.1,0.3,0.3v0.4c0,1.4-0.8,2.4-3.4,2.4c-2.5,0-3.4-1-3.4-2.4v-4.6c0-1.4,0.8-2.4,3.4-2.4c2.5,0,3.4,1,3.4,2.4
			V382.3z M222,381.6h4.3v-1.5c0-0.8-0.5-1.4-2.1-1.4c-1.6,0-2.1,0.6-2.1,1.4V381.6z"/>
		<path class="st0" d="M231.3,386.7c0,0.2-0.1,0.3-0.3,0.3h-0.8c-0.2,0-0.3-0.1-0.3-0.3v-12.3c0-0.2,0.1-0.3,0.3-0.3h0.8
			c0.2,0,0.3,0.1,0.3,0.3V386.7z"/>
		<path class="st0" d="M234,380c0-1.4,0.8-2.3,3.3-2.3c2.5,0,3.3,1,3.3,2.3v6.6c0,0.2-0.1,0.3-0.3,0.3h-0.6c-0.2,0-0.3-0.1-0.3-0.3
			l0-0.7c-0.5,0.4-1.6,1.1-3,1.1c-1.7,0-2.6-1-2.6-2.2V384c0-1.2,0.8-2.2,2.4-2.2h3.2v-1.7c0-0.8-0.4-1.4-2.1-1.4
			c-1.6,0-2.1,0.6-2.1,1.4v0.2c0,0.2-0.1,0.3-0.3,0.3h-0.7c-0.2,0-0.3-0.1-0.3-0.3V380z M239.3,385v-2.2h-2.9c-1,0-1.4,0.5-1.4,1.3
			v0.6c0,0.8,0.5,1.3,1.6,1.3C238,386,238.9,385.3,239.3,385z"/>
		<path class="st0" d="M248,378v0.6c0,0.2-0.1,0.3-0.3,0.3c-1.4,0.1-2.6,0.9-3,1.2v6.6c0,0.2-0.1,0.3-0.3,0.3h-0.8
			c-0.2,0-0.3-0.1-0.3-0.3v-8.5c0-0.2,0.1-0.3,0.3-0.3h0.7c0.2,0,0.2,0.1,0.3,0.3l0.1,0.9c0.5-0.5,1.7-1.3,3-1.3
			C247.9,377.7,248,377.8,248,378z"/>
		<path class="st0" d="M255.2,386c-0.5,0.4-1.6,1.1-3.1,1.1c-1.8,0-2.6-1-2.6-2.4v-4.7c0-1.4,0.8-2.4,2.6-2.4c1.5,0,2.6,0.7,3.1,1.1
			v-4.4c0-0.2,0.1-0.3,0.3-0.3h0.8c0.2,0,0.3,0.1,0.3,0.3v12.3c0,0.2-0.1,0.3-0.3,0.3h-0.7c-0.2,0-0.3-0.1-0.3-0.3L255.2,386z
			 M250.8,384.5c0,0.8,0.4,1.4,1.6,1.4c1.3,0,2.4-0.7,2.8-1v-5c-0.4-0.3-1.4-1-2.8-1c-1.2,0-1.6,0.6-1.6,1.4V384.5z"/>
		<path class="st0" d="M265.9,382.3c0,0.2-0.1,0.3-0.3,0.3h-5.2v2c0,0.8,0.4,1.4,2.1,1.4c1.7,0,2.1-0.6,2.1-1.4v-0.3
			c0-0.2,0.1-0.3,0.3-0.3h0.7c0.2,0,0.3,0.1,0.3,0.3v0.4c0,1.4-0.8,2.4-3.4,2.4c-2.5,0-3.4-1-3.4-2.4v-4.6c0-1.4,0.8-2.4,3.4-2.4
			c2.5,0,3.4,1,3.4,2.4V382.3z M260.4,381.6h4.3v-1.5c0-0.8-0.5-1.4-2.1-1.4c-1.6,0-2.1,0.6-2.1,1.4V381.6z"/>
	</g>
	<g>
		<path class="st0" d="M140.1,411.4c-0.2,0-0.2-0.1-0.2-0.3v-12c0-0.2,0.1-0.3,0.3-0.3h6.3c0.2,0,0.3,0.1,0.3,0.3v0.6
			c0,0.2-0.1,0.3-0.3,0.3h-5.2v4.3h4.9c0.2,0,0.3,0.1,0.3,0.3v0.5c0,0.2-0.1,0.3-0.3,0.3h-4.9v4.9h5.5c0.2,0,0.3,0.1,0.3,0.3v0.6
			c0,0.2-0.1,0.3-0.3,0.3H140.1z"/>
		<path class="st0" d="M155.7,411.1c0.1,0.1,0.1,0.3-0.1,0.3h-0.9c-0.2,0-0.3-0.1-0.4-0.3l-2.3-3.4l-2.3,3.4
			c-0.1,0.1-0.2,0.3-0.4,0.3h-0.7c-0.2,0-0.2-0.1-0.1-0.3l2.9-4.3l-2.9-4.2c-0.1-0.1-0.1-0.3,0.1-0.3h0.9c0.2,0,0.3,0.1,0.4,0.3
			l2.2,3.3l2.2-3.3c0.1-0.1,0.2-0.3,0.4-0.3h0.8c0.2,0,0.2,0.1,0.1,0.3l-2.9,4.2L155.7,411.1z"/>
		<path class="st0" d="M157.5,404.5c0-1.4,0.8-2.3,3.3-2.3c2.5,0,3.3,1,3.3,2.3v6.6c0,0.2-0.1,0.3-0.3,0.3h-0.6
			c-0.2,0-0.3-0.1-0.3-0.3l0-0.7c-0.5,0.4-1.6,1.1-3,1.1c-1.7,0-2.6-1-2.6-2.2v-0.9c0-1.2,0.8-2.2,2.4-2.2h3.2v-1.7
			c0-0.8-0.4-1.4-2.1-1.4c-1.6,0-2.1,0.6-2.1,1.4v0.2c0,0.2-0.1,0.3-0.3,0.3h-0.7c-0.2,0-0.3-0.1-0.3-0.3V404.5z M162.9,409.4v-2.2
			H160c-1,0-1.4,0.5-1.4,1.3v0.6c0,0.8,0.5,1.3,1.6,1.3C161.5,410.5,162.5,409.8,162.9,409.4z"/>
		<path class="st0" d="M167.9,402.3c0.2,0,0.3,0.1,0.3,0.3l0,0.7c0.5-0.4,1.5-1.1,3.1-1.1c1.2,0,2,0.5,2.4,1.3
			c0.4-0.4,1.5-1.3,3.2-1.3c1.7,0,2.6,1,2.6,2.3v6.7c0,0.2-0.1,0.3-0.3,0.3h-0.7c-0.2,0-0.3-0.1-0.3-0.3v-6.4c0-0.8-0.4-1.4-1.6-1.4
			c-1.4,0-2.3,0.7-2.7,1.1c0,0.1,0,0.3,0,0.3v6.4c0,0.2-0.1,0.3-0.3,0.3h-0.8c-0.2,0-0.3-0.1-0.3-0.3v-6.4c0-0.8-0.4-1.4-1.6-1.4
			c-1.4,0-2.3,0.7-2.7,1v6.8c0,0.2-0.1,0.3-0.3,0.3h-0.8c-0.2,0-0.3-0.1-0.3-0.3v-8.5c0-0.2,0.1-0.3,0.3-0.3H167.9z"/>
		<path class="st0" d="M188.7,406.8c0,0.2-0.1,0.3-0.3,0.3h-5.2v2c0,0.8,0.4,1.4,2.1,1.4c1.7,0,2.1-0.6,2.1-1.4v-0.3
			c0-0.2,0.1-0.3,0.3-0.3h0.7c0.2,0,0.3,0.1,0.3,0.3v0.4c0,1.4-0.8,2.4-3.4,2.4c-2.5,0-3.4-1-3.4-2.4v-4.6c0-1.4,0.8-2.4,3.4-2.4
			c2.5,0,3.4,1,3.4,2.4V406.8z M183.2,406.1h4.3v-1.5c0-0.8-0.5-1.4-2.1-1.4c-1.6,0-2.1,0.6-2.1,1.4V406.1z"/>
		<path class="st0" d="M192.3,402.3c0.2,0,0.2,0.1,0.3,0.3l0,0.7c0.5-0.4,1.6-1.1,3.1-1.1c1.7,0,2.6,1,2.6,2.3v6.7
			c0,0.2-0.1,0.3-0.3,0.3h-0.8c-0.2,0-0.3-0.1-0.3-0.3v-6.4c0-0.8-0.4-1.4-1.6-1.4c-1.4,0-2.4,0.7-2.8,1v6.8c0,0.2-0.1,0.3-0.3,0.3
			h-0.8c-0.2,0-0.3-0.1-0.3-0.3v-8.5c0-0.2,0.1-0.3,0.3-0.3H192.3z"/>
		<path class="st0" d="M205.7,411.4c-0.2,0-0.2-0.1-0.2-0.3v-12c0-0.2,0.1-0.3,0.3-0.3h6.3c0.2,0,0.3,0.1,0.3,0.3v0.6
			c0,0.2-0.1,0.3-0.3,0.3h-5.2v4.3h4.9c0.2,0,0.3,0.1,0.3,0.3v0.5c0,0.2-0.1,0.3-0.3,0.3h-4.9v4.9h5.5c0.2,0,0.3,0.1,0.3,0.3v0.6
			c0,0.2-0.1,0.3-0.3,0.3H205.7z"/>
		<path class="st0" d="M219.7,404.2c0-0.7-0.7-1.1-2-1.1c-1.4,0-2,0.4-2,1.1v0.5c0,0.6,0.5,0.9,0.9,1l2.8,0.9
			c0.9,0.3,1.6,0.9,1.6,1.8v1c0,1.1-1,2.1-3.4,2.1c-2.4,0-3.3-1-3.3-2.1v-0.5c0-0.2,0.1-0.3,0.2-0.3h0.7c0.2,0,0.2,0.1,0.2,0.3v0.4
			c0,0.7,0.7,1.2,2.2,1.2c1.4,0,2.2-0.4,2.2-1.2v-0.7c0-0.6-0.5-0.8-1.1-1l-2.8-0.9c-0.6-0.2-1.4-0.9-1.4-1.8v-0.7
			c0-1.1,0.8-2.1,3.2-2.1c2.3,0,3.2,1,3.2,2.1v0.5c0,0.2-0.1,0.2-0.3,0.2H220c-0.2,0-0.2-0.1-0.2-0.2V404.2z"/>
		<path class="st0" d="M230,404.5v0.4c0,0.2-0.1,0.3-0.3,0.3h-0.7c-0.2,0-0.3-0.1-0.3-0.3v-0.3c0-0.8-0.5-1.4-2.1-1.4
			c-1.6,0-2.1,0.6-2.1,1.4v4.5c0,0.9,0.5,1.4,2.1,1.4c1.7,0,2.1-0.6,2.1-1.4v-0.4c0-0.2,0.1-0.3,0.3-0.3h0.7c0.2,0,0.3,0.1,0.3,0.3
			v0.5c0,1.4-0.8,2.4-3.4,2.4s-3.3-1-3.3-2.4v-4.6c0-1.4,0.8-2.4,3.4-2.4C229.2,402.1,230,403.1,230,404.5z"/>
		<path class="st0" d="M232.1,404.5c0-1.4,0.9-2.4,3.5-2.4s3.5,1,3.5,2.4v4.6c0,1.4-1,2.4-3.5,2.4s-3.5-1-3.5-2.4V404.5z
			 M237.8,404.6c0-0.9-0.6-1.4-2.2-1.4c-1.6,0-2.2,0.6-2.2,1.4v4.5c0,0.9,0.6,1.4,2.2,1.4c1.6,0,2.2-0.6,2.2-1.4V404.6z"/>
		<path class="st0" d="M243.1,411.1c0,0.2-0.1,0.3-0.3,0.3H242c-0.2,0-0.3-0.1-0.3-0.3v-12.3c0-0.2,0.1-0.3,0.3-0.3h0.8
			c0.2,0,0.3,0.1,0.3,0.3V411.1z"/>
		<path class="st0" d="M245.7,404.5c0-1.4,0.8-2.3,3.3-2.3c2.5,0,3.3,1,3.3,2.3v6.6c0,0.2-0.1,0.3-0.3,0.3h-0.6
			c-0.2,0-0.3-0.1-0.3-0.3l0-0.7c-0.5,0.4-1.6,1.1-3,1.1c-1.7,0-2.6-1-2.6-2.2v-0.9c0-1.2,0.8-2.2,2.4-2.2h3.2v-1.7
			c0-0.8-0.4-1.4-2.1-1.4c-1.6,0-2.1,0.6-2.1,1.4v0.2c0,0.2-0.1,0.3-0.3,0.3h-0.7c-0.2,0-0.3-0.1-0.3-0.3V404.5z M251,409.4v-2.2
			h-2.9c-1,0-1.4,0.5-1.4,1.3v0.6c0,0.8,0.5,1.3,1.6,1.3C249.7,410.5,250.6,409.8,251,409.4z"/>
		<path class="st0" d="M259.7,402.4v0.6c0,0.2-0.1,0.3-0.3,0.3c-1.4,0.1-2.6,0.9-3,1.2v6.6c0,0.2-0.1,0.3-0.3,0.3h-0.8
			c-0.2,0-0.3-0.1-0.3-0.3v-8.5c0-0.2,0.1-0.3,0.3-0.3h0.7c0.2,0,0.2,0.1,0.3,0.3l0.1,0.9c0.5-0.5,1.7-1.3,3-1.3
			C259.6,402.1,259.7,402.2,259.7,402.4z"/>
		<path class="st0" d="M268,406.8c0,0.2-0.1,0.3-0.3,0.3h-5.2v2c0,0.8,0.4,1.4,2.1,1.4s2.1-0.6,2.1-1.4v-0.3c0-0.2,0.1-0.3,0.3-0.3
			h0.7c0.2,0,0.3,0.1,0.3,0.3v0.4c0,1.4-0.8,2.4-3.4,2.4c-2.5,0-3.4-1-3.4-2.4v-4.6c0-1.4,0.8-2.4,3.4-2.4c2.5,0,3.4,1,3.4,2.4
			V406.8z M262.5,406.1h4.3v-1.5c0-0.8-0.5-1.4-2.1-1.4c-1.6,0-2.1,0.6-2.1,1.4V406.1z"/>
		<path class="st0" d="M275.5,404.2c0-0.7-0.7-1.1-2-1.1c-1.4,0-2,0.4-2,1.1v0.5c0,0.6,0.5,0.9,0.9,1l2.8,0.9
			c0.9,0.3,1.6,0.9,1.6,1.8v1c0,1.1-1,2.1-3.4,2.1c-2.4,0-3.3-1-3.3-2.1v-0.5c0-0.2,0.1-0.3,0.2-0.3h0.7c0.2,0,0.2,0.1,0.2,0.3v0.4
			c0,0.7,0.7,1.2,2.2,1.2c1.4,0,2.2-0.4,2.2-1.2v-0.7c0-0.6-0.5-0.8-1.1-1l-2.8-0.9c-0.6-0.2-1.4-0.9-1.4-1.8v-0.7
			c0-1.1,0.8-2.1,3.2-2.1c2.3,0,3.2,1,3.2,2.1v0.5c0,0.2-0.1,0.2-0.3,0.2h-0.7c-0.2,0-0.2-0.1-0.2-0.2V404.2z"/>
	</g>
</g>
</svg>
