<?xml version="1.0" encoding="utf-8"?>
<!-- Generator: Adobe Illustrator 22.0.1, SVG Export Plug-In . SVG Version: 6.00 Build 0)  -->
<svg version="1.1" id="Capa_1" xmlns="http://www.w3.org/2000/svg" xmlns:xlink="http://www.w3.org/1999/xlink" x="0px" y="0px"
	 viewBox="0 0 416 417.3" style="enable-background:new 0 0 416 417.3;" xml:space="preserve">
<style type="text/css">
	.st0{fill:#FFFFFF;}
</style>
<g>
	<g>
		<g>
			<g>
				<path class="st0" d="M129,218.6v16.7c0,1.7-0.6,2.5-2.3,2.5h-8.9c-1.7,0-2.4-0.7-2.4-2.5v-51.5c0-1.7,0.7-2.5,2.4-2.5h17.8
					c15.5,0,20.9,7.1,20.9,14.2v8.9c0,7.1-5.4,14.2-20.9,14.2H129z M129,192.5v14.9h6.6c4,0,7.5-1.6,7.5-5.4v-4.1
					c0-3.8-3.5-5.4-7.5-5.4H129z"/>
				<path class="st0" d="M176.9,221.9c0,3.8,3.4,5.4,7.4,5.4s7.5-1.6,7.5-5.4v-38c0-1.7,0.7-2.5,2.4-2.5h8.9c1.7,0,2.3,0.7,2.3,2.5
					v40.5c0,7.1-5.6,14.2-21.1,14.2s-21-7.1-21-14.2v-40.5c0-1.7,0.7-2.5,2.4-2.5h8.9c1.7,0,2.3,0.7,2.3,2.5V221.9z"/>
				<path class="st0" d="M254.6,224.3c0,7.1-4.8,14.2-20.2,14.2s-20.2-7.1-20.2-14.2v-29.4c0-7.1,4.8-14.2,20.2-14.2
					s20.2,7.1,20.2,14.2v3.8c0,1.7-0.6,2.5-2.3,2.5h-8.5c-1.7,0-2.4-0.7-2.4-2.5v-1.4c0-3.8-2.9-5.4-6.9-5.4s-6.8,1.6-6.8,5.4v24.6
					c0,3.8,2.8,5.4,6.8,5.4s6.9-1.6,6.9-5.4v-2.7c0-1.7,0.7-2.5,2.4-2.5h8.5c1.7,0,2.3,0.7,2.3,2.5V224.3z"/>
				<path class="st0" d="M275.9,218.6v16.7c0,1.7-0.6,2.5-2.3,2.5h-8.9c-1.7,0-2.4-0.7-2.4-2.5v-51.5c0-1.7,0.7-2.5,2.4-2.5h17.8
					c15.5,0,20.9,7.1,20.9,14.2v8.9c0,7.1-5.4,14.2-20.9,14.2H275.9z M275.9,192.5v14.9h6.6c4,0,7.5-1.6,7.5-5.4v-4.1
					c0-3.8-3.5-5.4-7.5-5.4H275.9z"/>
			</g>
		</g>
		<g>
			<g>
				<path class="st0" d="M211.2,24.3c1.9-0.3,4.1,0,4.1,4.1v77.6h17.4c3.1,0,4.4,1,4.4,4.1v11.5c0,3.1-1.3,4.3-4.4,4.3H173
					c-3.1,0-4.4-1.2-4.4-4.3v-11.5c0-3.1,1.3-4.1,4.4-4.1h18.2V47.4l-18.2,3c-2.8,0.4-4.4-0.6-4.4-3.7V35.1c0-3.1,1.6-4.3,4.4-4.7
					L211.2,24.3z"/>
			</g>
		</g>
		<g>
			<g>
				<path class="st0" d="M240.9,35.2c0,0.6-0.2,0.8-0.8,0.8h-7v1.7c0,0.9,0.5,1.3,1.7,1.3c1.2,0,1.8-0.4,1.8-1.3v0
					c0-0.6,0.2-0.8,0.8-0.8h2.5c0.6,0,0.8,0.2,0.8,0.8v0.2c0,2.8-1.6,4.5-5.9,4.5s-6.2-1.8-6.2-4.5V32c0-2.8,1.9-4.5,6.2-4.5
					s6,1.8,6,4.5V35.2z M233.2,33.1h3.5v-0.8c0-0.9-0.5-1.3-1.8-1.3c-1.2,0-1.7,0.4-1.7,1.3V33.1z"/>
				<path class="st0" d="M252.8,28.3v2.3c0,0.6-0.3,0.8-0.9,0.9c-2,0.2-3.3,1-3.9,1.6v8.3c0,0.6-0.2,0.9-0.8,0.9h-3
					c-0.6,0-0.8-0.3-0.8-0.9V28.6c0-0.6,0.2-0.8,0.8-0.8h2.8c0.6,0,0.8,0.2,0.8,0.8l0.1,0.8c0.7-0.8,1.9-1.9,4-1.9
					C252.6,27.5,252.8,27.7,252.8,28.3z"/>
			</g>
		</g>
		<rect x="228.4" y="43.9" class="st0" width="24.4" height="2.3"/>
		<g>
			<g>
				<path class="st0" d="M133.6,155.5v4.7c0,0.3-0.1,0.4-0.4,0.4H132c-0.3,0-0.4-0.1-0.4-0.4v-12.9c0-0.3,0.1-0.4,0.4-0.4h4.1
					c3.4,0,4.5,1.5,4.5,3.1v2.4c0,1.7-1.1,3.1-4.5,3.1H133.6z M133.6,148.5v5.3h2.5c1.8,0,2.6-0.7,2.6-1.8v-1.8
					c0-1.1-0.8-1.8-2.6-1.8H133.6z"/>
				<path class="st0" d="M149,157.3c0,1.1,0.8,1.8,2.6,1.8c1.8,0,2.6-0.7,2.6-1.8v-10.1c0-0.3,0.1-0.4,0.4-0.4h1.2
					c0.3,0,0.4,0.1,0.4,0.4v10.4c0,1.7-1.1,3.1-4.6,3.1c-3.4,0-4.5-1.5-4.5-3.1v-10.4c0-0.3,0.1-0.4,0.4-0.4h1.2
					c0.3,0,0.4,0.1,0.4,0.4V157.3z"/>
				<path class="st0" d="M163.7,160.6c-0.3,0-0.4-0.1-0.4-0.4v-12.9c0-0.3,0.1-0.4,0.4-0.4h6.8c0.3,0,0.4,0.1,0.4,0.4v0.9
					c0,0.3-0.1,0.4-0.4,0.4h-5.3v4.1h4.9c0.3,0,0.4,0.1,0.4,0.4v0.9c0,0.3-0.1,0.4-0.4,0.4h-4.9v4.7h5.5c0.3,0,0.4,0.1,0.4,0.4v0.9
					c0,0.3-0.1,0.4-0.4,0.4H163.7z"/>
				<path class="st0" d="M184.1,150.1c0-1.1-0.7-1.7-2.4-1.7s-2.4,0.6-2.4,1.7v0.4c0,0.9,0.6,1.2,1,1.4l3.6,1.4
					c1.2,0.5,2.2,1.3,2.2,2.7v1.7c0,1.7-1.1,3.1-4.5,3.1s-4.5-1.5-4.5-3.1v-1.2c0-0.3,0.1-0.4,0.4-0.4h1.2c0.3,0,0.4,0.1,0.4,0.4
					v0.9c0,1.1,0.8,1.7,2.6,1.7c1.8,0,2.6-0.6,2.6-1.7v-0.9c0-1-0.9-1.4-1.7-1.7l-3.4-1.3c-0.9-0.3-1.8-1.3-1.8-2.5v-1.2
					c0-1.7,1-3.1,4.3-3.1s4.3,1.5,4.3,3.1v0.9c0,0.3-0.1,0.4-0.4,0.4h-1.2c-0.3,0-0.4-0.1-0.4-0.4V150.1z"/>
				<path class="st0" d="M200.3,146.9c0.3,0,0.4,0.1,0.4,0.4v0.9c0,0.3-0.1,0.4-0.4,0.4h-3.2v11.6c0,0.3-0.1,0.4-0.4,0.4h-1.2
					c-0.3,0-0.4-0.1-0.4-0.4v-11.6H192c-0.3,0-0.4-0.1-0.4-0.4v-0.9c0-0.3,0.1-0.4,0.4-0.4H200.3z"/>
				<path class="st0" d="M206.5,149.8c0-1.7,1.1-3.1,4.5-3.1c3.4,0,4.6,1.5,4.6,3.1v7.8c0,1.7-1.1,3.1-4.6,3.1
					c-3.4,0-4.5-1.5-4.5-3.1V149.8z M213.6,150.1c0-1.1-0.8-1.8-2.6-1.8c-1.8,0-2.6,0.7-2.6,1.8v7.2c0,1.1,0.8,1.8,2.6,1.8
					c1.8,0,2.6-0.7,2.6-1.8V150.1z"/>
				<path class="st0" d="M238.6,158.9c0.3,0,0.4,0.1,0.4,0.4v0.9c0,0.3-0.1,0.4-0.4,0.4H231c-0.3,0-0.4-0.1-0.4-0.4v-3.4
					c0-1.5,0.9-2,1.6-2.3l3.8-1.4c0.4-0.1,1-0.5,1-1.3v-1.7c0-1.1-0.6-1.8-2.4-1.8c-1.8,0-2.4,0.6-2.4,1.8v0.9
					c0,0.3-0.1,0.4-0.4,0.4h-1.2c-0.3,0-0.4-0.1-0.4-0.4v-1.2c0-1.7,0.9-3.1,4.3-3.1s4.3,1.5,4.3,3.1v1.9c0,1.8-1.1,2.5-1.8,2.7
					l-3.4,1.2c-0.7,0.2-1.2,0.4-1.2,1.2v2H238.6z"/>
				<path class="st0" d="M245.5,149.8c0-1.7,1-3.1,4.3-3.1s4.4,1.5,4.4,3.1v7.8c0,1.7-1,3.1-4.4,3.1s-4.3-1.5-4.3-3.1V149.8z
					 M252.3,150.1c0-1.1-0.6-1.8-2.4-1.8s-2.4,0.7-2.4,1.8v7.2c0,1.1,0.6,1.8,2.4,1.8s2.4-0.7,2.4-1.8V150.1z"/>
				<path class="st0" d="M269,158.9c0.3,0,0.4,0.1,0.4,0.4v0.9c0,0.3-0.1,0.4-0.4,0.4h-7.7c-0.3,0-0.4-0.1-0.4-0.4v-3.4
					c0-1.5,0.9-2,1.6-2.3l3.8-1.4c0.4-0.1,1-0.5,1-1.3v-1.7c0-1.1-0.6-1.8-2.4-1.8c-1.8,0-2.4,0.6-2.4,1.8v0.9
					c0,0.3-0.1,0.4-0.4,0.4h-1.2c-0.3,0-0.4-0.1-0.4-0.4v-1.2c0-1.7,0.9-3.1,4.3-3.1c3.3,0,4.3,1.5,4.3,3.1v1.9
					c0,1.8-1.1,2.5-1.8,2.7l-3.4,1.2c-0.7,0.2-1.2,0.4-1.2,1.2v2H269z"/>
				<path class="st0" d="M275.9,149.8c0-1.7,1-3.1,4.3-3.1s4.4,1.5,4.4,3.1v7.8c0,1.7-1,3.1-4.4,3.1s-4.3-1.5-4.3-3.1V149.8z
					 M282.7,150.1c0-1.1-0.6-1.8-2.4-1.8s-2.4,0.7-2.4,1.8v7.2c0,1.1,0.6,1.8,2.4,1.8s2.4-0.7,2.4-1.8V150.1z"/>
			</g>
		</g>
	</g>
	<g>
		<path class="st0" d="M4.8,330.5c0.1-1,0.3-1.4,1.4-1.4h3.5c1,0,1.3,0.4,1.4,1.4l0.7,10.4v14.9c0,1-0.3,1.5-1.4,1.5h-5
			c-1,0-1.4-0.5-1.4-1.5v-14.9L4.8,330.5z M4.2,320.2c0-1,0.3-1.4,1.3-1.4h4.9c1,0,1.4,0.4,1.4,1.4v4.6c0,1-0.4,1.4-1.4,1.4H5.5
			c-1,0-1.3-0.4-1.3-1.4V320.2z"/>
		<path class="st0" d="M53.4,345.6c0,1-0.3,1.4-1.4,1.4h-4.7c-1,0-1.4-0.5-1.4-1.4V324c-0.6,2-1.2,4.1-1.6,5.2L40,339.7
			c-0.4,1-0.9,1.5-1.8,1.5h-4.1c-1,0-1.4-0.6-1.8-1.5l-4.8-11.3c-0.3-0.8-0.9-2.5-1.3-4.2v21.5c0,1-0.3,1.4-1.4,1.4h-4.5
			c-1,0-1.4-0.5-1.4-1.4v-35.7c0-1,0.3-1.4,1.4-1.4h4.5c0.7,0,1,0.3,1.2,0.8l8.7,19.7c0.5,1.1,0.9,2.5,1.4,4c0.5-1.4,1-2.9,1.5-3.9
			l8.4-19.9c0.2-0.5,0.6-0.7,1.3-0.7H52c1,0,1.4,0.5,1.4,1.4V345.6z"/>
		<path class="st0" d="M60.3,326.5c0-5,3.4-8.2,11.4-8.2c8.3,0,11.4,3.1,11.4,8.2v19c0,1-0.3,1.5-1.4,1.5h-4.2c-1,0-1.2-0.5-1.4-1.5
			l-0.1-1.2c-1.6,1.4-4.5,3.1-8.4,3.1c-5.5,0-8.2-3.3-8.2-7.1v-2.5c0-3.8,2.9-7.1,8.5-7.1h7.8V327c0-2-1-3.2-4.2-3.2
			c-3.2,0-4.4,0.9-4.4,2.9v0.4c0,1-0.4,1.4-1.4,1.4h-4.1c-1,0-1.4-0.4-1.4-1.4V326.5z M75.9,339.1v-3.2h-6.4c-2.2,0-2.7,1.1-2.7,2.5
			v0.9c0,1.7,1.2,2.2,2.9,2.2C72.3,341.5,74.6,340.1,75.9,339.1z M74.7,314.3c-0.3,0.4-0.8,0.9-1.8,0.9h-3.7c-0.8,0-1.2-0.3-0.7-1.4
			l2.7-5.5c0.4-0.8,1-1.4,2-1.4h4.9c1,0,1.2,0.6,0.7,1.4L74.7,314.3z"/>
		<path class="st0" d="M112.7,345.6c0.5,0.7,0.3,1.4-0.7,1.4h-5.2c-1,0-1.6-0.7-2-1.4l-5-7.7l-4.9,7.7c-0.5,0.7-1,1.4-2,1.4h-4.5
			c-1,0-1.2-0.7-0.7-1.4l8.7-13l-8.3-12.4c-0.5-0.7-0.3-1.4,0.7-1.4h5.2c1,0,1.5,0.6,2,1.4l4.8,7.3l4.7-7.3c0.5-0.8,1.1-1.4,2-1.4
			h4.5c1,0,1.2,0.7,0.7,1.4l-8.5,12.6L112.7,345.6z"/>
		<path class="st0" d="M124.7,313.7c0,1-0.3,1.4-1.4,1.4h-4.7c-1,0-1.4-0.4-1.4-1.4v-4.9c0-1,0.4-1.5,1.4-1.5h4.7
			c1,0,1.4,0.5,1.4,1.5V313.7z M124.7,345.5c0,1-0.3,1.5-1.4,1.5h-4.7c-1,0-1.4-0.5-1.4-1.5v-25.3c0-1,0.4-1.4,1.4-1.4h4.7
			c1,0,1.4,0.4,1.4,1.4V345.5z"/>
		<path class="st0" d="M137,318.8c1,0,1.4,0.4,1.4,1.4l0.1,1.4c1.5-1.3,4.2-3.2,8.8-3.2c3.5,0,6,1.5,7.2,3.8
			c1.4-1.2,4.1-3.8,9.5-3.8c5.2,0,8.2,3.2,8.2,7.6v19.6c0,1-0.4,1.5-1.4,1.5h-4.6c-1,0-1.5-0.5-1.5-1.5v-17.7c0-2-0.7-3-3.1-3
			c-2.9,0-5.2,1.6-6.2,2.5v18.2c0,1-0.4,1.5-1.4,1.5h-4.6c-1,0-1.4-0.5-1.4-1.5v-17.7c0-2-0.7-3-3.1-3c-2.8,0-5.2,1.6-6.2,2.5v18.2
			c0,1-0.3,1.5-1.4,1.5h-4.7c-1,0-1.4-0.5-1.4-1.5v-25.4c0-1,0.4-1.4,1.4-1.4H137z"/>
		<path class="st0" d="M178,326.7c0-5,3.9-8.3,12.2-8.3c8.3,0,12.2,3.3,12.2,8.3v12.4c0,5.1-3.9,8.4-12.2,8.4
			c-8.3,0-12.2-3.3-12.2-8.4V326.7z M195.1,327.3c0-2.1-1.6-3.1-4.8-3.1c-3.2,0-4.8,1-4.8,3.1v11.2c0,2.2,1.6,3.1,4.8,3.1
			c3.2,0,4.8-1,4.8-3.1V327.3z"/>
		<path class="st0" d="M225.2,318.8c1,0,1.3,0.4,1.4,1.4l0.1,1.4c1.6-1.2,4.4-3.2,9-3.2c5.6,0,8.2,3.2,8.2,8.3v12.6
			c0,5-2.6,8.3-8.2,8.3c-4.4,0-7.2-1.8-8.8-3v12.5c0,1-0.3,1.4-1.4,1.4h-4.7c-1,0-1.4-0.4-1.4-1.4v-36.7c0-1,0.4-1.4,1.4-1.4H225.2z
			 M236.6,327.7c0-1.5-0.5-2.9-3.1-2.9c-2.8,0-5.3,1.7-6.5,2.6v11c1.2,0.9,3.7,2.6,6.5,2.6c2.7,0,3.1-1.5,3.1-3V327.7z"/>
		<path class="st0" d="M267,344.3c-1.5,1.3-4.2,3.1-8.7,3.1c-5.2,0-8.2-3.2-8.2-7.6v-19.6c0-1,0.4-1.4,1.4-1.4h4.6
			c1,0,1.4,0.4,1.4,1.4V338c0,2,0.7,3,3.1,3c2.8,0,5.2-1.6,6.2-2.5v-18.3c0-1,0.4-1.4,1.4-1.4h4.7c1,0,1.4,0.4,1.4,1.4v25.4
			c0,1-0.4,1.4-1.4,1.4h-4.4c-1,0-1.2-0.4-1.4-1.4L267,344.3z"/>
		<path class="st0" d="M286.4,318.8c1,0,1.4,0.4,1.4,1.4l0.1,1.4c1.6-1.3,4.5-3.2,9.1-3.2c5.2,0,8.2,3.2,8.2,7.6v19.6
			c0,1-0.4,1.5-1.4,1.5h-4.6c-1,0-1.4-0.5-1.4-1.5v-17.7c0-2-0.7-3-3.1-3c-2.8,0-5.4,1.6-6.6,2.5v18.2c0,1-0.3,1.5-1.4,1.5h-4.7
			c-1,0-1.4-0.5-1.4-1.5v-25.4c0-1,0.4-1.4,1.4-1.4H286.4z"/>
		<path class="st0" d="M325.9,318.9c1,0,1.4,0.3,1.4,1.3v3.2c0,1-0.4,1.4-1.4,1.4h-5.2v13c0,2.2,1.4,3.1,4.5,3.1h1.3
			c1,0,1.4,0.4,1.4,1.4v3.3c0,1-0.5,1.4-1.4,1.4h-2.4c-8.3,0-10.8-2.8-10.8-8.4v-13.8h-2.8c-1,0-1.4-0.4-1.4-1.4v-2.8
			c0-1,0.4-1.2,1.4-1.4l2.6-0.3h0.2v-5.4c0-1,0.4-1.4,1.4-1.4h4.8c1,0,1.3,0.4,1.3,1.4v5.4H325.9z"/>
		<path class="st0" d="M332.1,326.5c0-5,3.4-8.2,11.4-8.2c8.3,0,11.4,3.1,11.4,8.2v19c0,1-0.3,1.5-1.4,1.5h-4.2
			c-1,0-1.2-0.5-1.4-1.5l-0.1-1.2c-1.6,1.4-4.5,3.1-8.4,3.1c-5.5,0-8.2-3.3-8.2-7.1v-2.5c0-3.8,2.9-7.1,8.5-7.1h7.8V327
			c0-2-1-3.2-4.2-3.2s-4.4,0.9-4.4,2.9v0.4c0,1-0.4,1.4-1.4,1.4h-4.1c-1,0-1.4-0.4-1.4-1.4V326.5z M347.6,339.1v-3.2h-6.4
			c-2.2,0-2.7,1.1-2.7,2.5v0.9c0,1.7,1.2,2.2,2.9,2.2C344,341.5,346.3,340.1,347.6,339.1z"/>
		<path class="st0" d="M368.7,350c0,5-3.8,8.3-12.1,8.3h-0.6c-1,0-1.4-0.3-1.4-1.4v-3.3c0-1,0.5-1.5,1.4-1.5h0.6
			c3.2,0,4.7-1,4.7-3.1v-29c0-1,0.3-1.4,1.3-1.4h4.7c1,0,1.4,0.4,1.4,1.4V350z M368.7,313.7c0,1-0.3,1.4-1.4,1.4h-4.7
			c-1,0-1.4-0.4-1.4-1.4v-4.9c0-1,0.4-1.5,1.4-1.5h4.7c1,0,1.4,0.5,1.4,1.5V313.7z"/>
		<path class="st0" d="M397.8,333.2c0,0.9-0.3,1.3-1.2,1.3h-14.5v4.2c0,2,1.1,3.1,4.4,3.1s4.4-1.1,4.4-3.1v-0.3c0-1,0.4-1.4,1.4-1.4
			h4c1,0,1.4,0.5,1.4,1.4v0.6c0,5.1-2.9,8.4-11.3,8.4c-8.3,0-11.6-3.3-11.6-8.4v-12.4c0-5,3.3-8.3,11.7-8.3c8.3,0,11.3,3.3,11.3,8.3
			V333.2z M382.1,329.5h8.8V327c0-2-1.2-3.1-4.4-3.1c-3.2,0-4.4,1.1-4.4,3.1V329.5z"/>
		<path class="st0" d="M411.6,345.6c0,1-0.3,1.4-1.3,1.4h-4.9c-1,0-1.4-0.4-1.4-1.4V341c0-1,0.4-1.4,1.4-1.4h4.9
			c1,0,1.3,0.4,1.3,1.4V345.6z M411,335.3c-0.1,1-0.3,1.4-1.4,1.4h-3.5c-1,0-1.3-0.4-1.4-1.4l-0.7-10.4V310c0-1,0.3-1.5,1.4-1.5h5
			c1,0,1.4,0.5,1.4,1.5v14.9L411,335.3z"/>
	</g>
	<g>
		<path class="st0" d="M117.1,374.4c0.2,0,0.3,0.1,0.3,0.3l3.7,12c0.1,0.2,0,0.3-0.2,0.3h-0.8c-0.2,0-0.3-0.1-0.3-0.3l-1-3.3h-4.2
			l-1,3.3c-0.1,0.2-0.1,0.3-0.3,0.3h-0.8c-0.2,0-0.3-0.1-0.2-0.3l3.7-12c0.1-0.2,0.2-0.3,0.3-0.3H117.1z M117.2,378
			c-0.1-0.5-0.4-1.6-0.5-2.3c-0.1,0.7-0.3,1.7-0.5,2.2l-1.4,4.3h3.6L117.2,378z"/>
		<path class="st0" d="M124,377.8c0.2,0,0.2,0.1,0.3,0.3l0,0.7c0.5-0.4,1.6-1.1,3.1-1.1c1.7,0,2.6,1,2.6,2.3v6.7
			c0,0.2-0.1,0.3-0.3,0.3H129c-0.2,0-0.3-0.1-0.3-0.3v-6.4c0-0.8-0.4-1.4-1.6-1.4c-1.4,0-2.4,0.7-2.8,1v6.8c0,0.2-0.1,0.3-0.3,0.3
			h-0.8c-0.2,0-0.3-0.1-0.3-0.3v-8.5c0-0.2,0.1-0.3,0.3-0.3H124z"/>
		<path class="st0" d="M136.6,377.9c0.2,0,0.3,0.1,0.3,0.3v0.5c0,0.2-0.1,0.3-0.3,0.3h-2.1v5.5c0,0.9,0.4,1.4,2.1,1.4h0.3
			c0.2,0,0.3,0.1,0.3,0.3v0.5c0,0.2-0.1,0.3-0.3,0.3h-0.5c-2.5,0-3.2-0.9-3.2-2.4v-5.6h-1.1c-0.2,0-0.3-0.1-0.3-0.3v-0.4
			c0-0.2,0.1-0.3,0.3-0.3l1-0.1h0.1v-2c0-0.2,0.1-0.3,0.3-0.3h0.8c0.2,0,0.3,0.1,0.3,0.3v2H136.6z"/>
		<path class="st0" d="M138.8,380.1c0-1.4,0.9-2.4,3.5-2.4c2.5,0,3.5,1,3.5,2.4v4.6c0,1.4-1,2.4-3.5,2.4c-2.5,0-3.5-1-3.5-2.4V380.1
			z M144.5,380.2c0-0.9-0.6-1.4-2.2-1.4c-1.6,0-2.2,0.6-2.2,1.4v4.5c0,0.9,0.6,1.4,2.2,1.4c1.6,0,2.2-0.6,2.2-1.4V380.2z"/>
		<path class="st0" d="M149.4,377.8c0.2,0,0.2,0.1,0.3,0.3l0,0.7c0.5-0.4,1.6-1.1,3.1-1.1c1.7,0,2.6,1,2.6,2.3v6.7
			c0,0.2-0.1,0.3-0.3,0.3h-0.8c-0.2,0-0.3-0.1-0.3-0.3v-6.4c0-0.8-0.4-1.4-1.6-1.4c-1.4,0-2.4,0.7-2.8,1v6.8c0,0.2-0.1,0.3-0.3,0.3
			h-0.8c-0.2,0-0.3-0.1-0.3-0.3v-8.5c0-0.2,0.1-0.3,0.3-0.3H149.4z"/>
		<path class="st0" d="M159.5,376.1c0,0.2-0.1,0.3-0.3,0.3h-0.8c-0.2,0-0.3-0.1-0.3-0.3v-1.7c0-0.2,0.1-0.3,0.3-0.3h0.8
			c0.2,0,0.3,0.1,0.3,0.3V376.1z M159.5,386.7c0,0.2-0.1,0.3-0.3,0.3h-0.8c-0.2,0-0.3-0.1-0.3-0.3v-8.5c0-0.2,0.1-0.3,0.3-0.3h0.8
			c0.2,0,0.3,0.1,0.3,0.3V386.7z"/>
		<path class="st0" d="M162.1,380.1c0-1.4,0.9-2.4,3.5-2.4c2.5,0,3.5,1,3.5,2.4v4.6c0,1.4-1,2.4-3.5,2.4c-2.5,0-3.5-1-3.5-2.4V380.1
			z M167.8,380.2c0-0.9-0.6-1.4-2.2-1.4c-1.6,0-2.2,0.6-2.2,1.4v4.5c0,0.9,0.6,1.4,2.2,1.4c1.6,0,2.2-0.6,2.2-1.4V380.2z"/>
		<path class="st0" d="M177.4,379.8h5.4v-5.1c0-0.2,0.1-0.3,0.3-0.3h0.8c0.2,0,0.3,0.1,0.3,0.3v12c0,0.2-0.1,0.3-0.3,0.3H183
			c-0.2,0-0.3-0.1-0.3-0.3v-5.8h-5.4v5.8c0,0.2-0.1,0.3-0.3,0.3h-0.8c-0.2,0-0.3-0.1-0.3-0.3v-12c0-0.2,0.1-0.3,0.3-0.3h0.8
			c0.2,0,0.3,0.1,0.3,0.3V379.8z"/>
		<path class="st0" d="M193.8,382.3c0,0.2-0.1,0.3-0.3,0.3h-5.2v2c0,0.8,0.4,1.4,2.1,1.4s2.1-0.6,2.1-1.4v-0.3
			c0-0.2,0.1-0.3,0.3-0.3h0.7c0.2,0,0.3,0.1,0.3,0.3v0.4c0,1.4-0.8,2.4-3.4,2.4s-3.4-1-3.4-2.4v-4.6c0-1.4,0.8-2.4,3.4-2.4
			s3.4,1,3.4,2.4V382.3z M188.3,381.6h4.3v-1.5c0-0.8-0.5-1.4-2.1-1.4c-1.6,0-2.1,0.6-2.1,1.4V381.6z"/>
		<path class="st0" d="M200.9,378v0.6c0,0.2-0.1,0.3-0.3,0.3c-1.4,0.1-2.6,0.9-3,1.2v6.6c0,0.2-0.1,0.3-0.3,0.3h-0.8
			c-0.2,0-0.3-0.1-0.3-0.3v-8.5c0-0.2,0.1-0.3,0.3-0.3h0.7c0.2,0,0.2,0.1,0.3,0.3l0.1,0.9c0.5-0.5,1.7-1.3,3-1.3
			C200.8,377.7,200.9,377.8,200.9,378z"/>
		<path class="st0" d="M207.2,378v0.6c0,0.2-0.1,0.3-0.3,0.3c-1.4,0.1-2.6,0.9-3,1.2v6.6c0,0.2-0.1,0.3-0.3,0.3h-0.8
			c-0.2,0-0.3-0.1-0.3-0.3v-8.5c0-0.2,0.1-0.3,0.3-0.3h0.7c0.2,0,0.2,0.1,0.3,0.3l0.1,0.9c0.5-0.5,1.7-1.3,3-1.3
			C207.1,377.7,207.2,377.8,207.2,378z"/>
		<path class="st0" d="M215.5,382.3c0,0.2-0.1,0.3-0.3,0.3h-5.2v2c0,0.8,0.4,1.4,2.1,1.4s2.1-0.6,2.1-1.4v-0.3
			c0-0.2,0.1-0.3,0.3-0.3h0.7c0.2,0,0.3,0.1,0.3,0.3v0.4c0,1.4-0.8,2.4-3.4,2.4s-3.4-1-3.4-2.4v-4.6c0-1.4,0.8-2.4,3.4-2.4
			s3.4,1,3.4,2.4V382.3z M210.1,381.6h4.3v-1.5c0-0.8-0.5-1.4-2.1-1.4c-1.6,0-2.1,0.6-2.1,1.4V381.6z"/>
		<path class="st0" d="M222.7,378v0.6c0,0.2-0.1,0.3-0.3,0.3c-1.4,0.1-2.6,0.9-3,1.2v6.6c0,0.2-0.1,0.3-0.3,0.3h-0.8
			c-0.2,0-0.3-0.1-0.3-0.3v-8.5c0-0.2,0.1-0.3,0.3-0.3h0.7c0.2,0,0.2,0.1,0.3,0.3l0.1,0.9c0.5-0.5,1.7-1.3,3-1.3
			C222.6,377.7,222.7,377.8,222.7,378z"/>
		<path class="st0" d="M224.2,380c0-1.4,0.8-2.3,3.3-2.3c2.5,0,3.3,1,3.3,2.3v6.6c0,0.2-0.1,0.3-0.3,0.3h-0.6
			c-0.2,0-0.3-0.1-0.3-0.3l0-0.7c-0.5,0.4-1.6,1.1-3,1.1c-1.7,0-2.6-1-2.6-2.2V384c0-1.2,0.8-2.2,2.4-2.2h3.2v-1.7
			c0-0.8-0.4-1.4-2.1-1.4c-1.6,0-2.1,0.6-2.1,1.4v0.2c0,0.2-0.1,0.3-0.3,0.3h-0.7c-0.2,0-0.3-0.1-0.3-0.3V380z M229.6,385v-2.2h-2.9
			c-1,0-1.4,0.5-1.4,1.3v0.6c0,0.8,0.5,1.3,1.6,1.3C228.2,386,229.2,385.3,229.6,385z"/>
		<path class="st0" d="M245.6,384.4c0,1.5-0.8,2.7-3.9,2.7c-3,0-3.9-1.2-3.9-2.7V377c0-1.5,0.8-2.7,3.9-2.7c3,0,3.9,1.2,3.9,2.7v0.9
			c0,0.2-0.1,0.3-0.3,0.3h-0.7c-0.2,0-0.3-0.1-0.3-0.3v-0.7c0-1.1-0.6-1.8-2.6-1.8s-2.6,0.7-2.6,1.8v7c0,1.1,0.6,1.8,2.6,1.8
			s2.6-0.7,2.6-1.8v-1c0-0.2,0.1-0.3,0.3-0.3h0.7c0.2,0,0.3,0.1,0.3,0.3V384.4z"/>
		<path class="st0" d="M247.7,380c0-1.4,0.8-2.3,3.3-2.3c2.5,0,3.3,1,3.3,2.3v6.6c0,0.2-0.1,0.3-0.3,0.3h-0.6
			c-0.2,0-0.3-0.1-0.3-0.3l0-0.7c-0.5,0.4-1.6,1.1-3,1.1c-1.7,0-2.6-1-2.6-2.2V384c0-1.2,0.8-2.2,2.4-2.2h3.2v-1.7
			c0-0.8-0.4-1.4-2.1-1.4c-1.6,0-2.1,0.6-2.1,1.4v0.2c0,0.2-0.1,0.3-0.3,0.3H248c-0.2,0-0.3-0.1-0.3-0.3V380z M253.1,385v-2.2h-2.9
			c-1,0-1.4,0.5-1.4,1.3v0.6c0,0.8,0.5,1.3,1.6,1.3C251.7,386,252.7,385.3,253.1,385z"/>
		<path class="st0" d="M258.4,386.7c0,0.2-0.1,0.3-0.3,0.3h-0.8c-0.2,0-0.3-0.1-0.3-0.3v-12.3c0-0.2,0.1-0.3,0.3-0.3h0.8
			c0.2,0,0.3,0.1,0.3,0.3V386.7z"/>
		<path class="st0" d="M266.8,386c-0.5,0.4-1.6,1.1-3.1,1.1c-1.8,0-2.6-1-2.6-2.4v-4.7c0-1.4,0.8-2.4,2.6-2.4c1.5,0,2.6,0.7,3.1,1.1
			v-4.4c0-0.2,0.1-0.3,0.3-0.3h0.8c0.2,0,0.3,0.1,0.3,0.3v12.3c0,0.2-0.1,0.3-0.3,0.3h-0.7c-0.2,0-0.3-0.1-0.3-0.3L266.8,386z
			 M262.4,384.5c0,0.8,0.4,1.4,1.6,1.4c1.3,0,2.4-0.7,2.8-1v-5c-0.4-0.3-1.4-1-2.8-1c-1.2,0-1.6,0.6-1.6,1.4V384.5z"/>
		<path class="st0" d="M277.5,382.3c0,0.2-0.1,0.3-0.3,0.3H272v2c0,0.8,0.4,1.4,2.1,1.4s2.1-0.6,2.1-1.4v-0.3c0-0.2,0.1-0.3,0.3-0.3
			h0.7c0.2,0,0.3,0.1,0.3,0.3v0.4c0,1.4-0.8,2.4-3.4,2.4s-3.4-1-3.4-2.4v-4.6c0-1.4,0.8-2.4,3.4-2.4s3.4,1,3.4,2.4V382.3z
			 M272,381.6h4.3v-1.5c0-0.8-0.5-1.4-2.1-1.4c-1.6,0-2.1,0.6-2.1,1.4V381.6z"/>
		<path class="st0" d="M284.6,378v0.6c0,0.2-0.1,0.3-0.3,0.3c-1.4,0.1-2.6,0.9-3,1.2v6.6c0,0.2-0.1,0.3-0.3,0.3h-0.8
			c-0.2,0-0.3-0.1-0.3-0.3v-8.5c0-0.2,0.1-0.3,0.3-0.3h0.7c0.2,0,0.2,0.1,0.3,0.3l0.1,0.9c0.5-0.5,1.7-1.3,3-1.3
			C284.5,377.7,284.6,377.8,284.6,378z"/>
		<path class="st0" d="M286.2,380.1c0-1.4,0.9-2.4,3.5-2.4c2.5,0,3.5,1,3.5,2.4v4.6c0,1.4-1,2.4-3.5,2.4c-2.5,0-3.5-1-3.5-2.4V380.1
			z M291.9,380.2c0-0.9-0.6-1.4-2.2-1.4c-1.6,0-2.2,0.6-2.2,1.4v4.5c0,0.9,0.6,1.4,2.2,1.4c1.6,0,2.2-0.6,2.2-1.4V380.2z
			 M290.1,376.3c-0.1,0.1-0.1,0.2-0.3,0.2h-0.6c-0.2,0-0.3-0.1-0.1-0.3l1.2-2.1c0.1-0.1,0.2-0.2,0.4-0.2h0.8c0.2,0,0.2,0.1,0.1,0.3
			L290.1,376.3z"/>
		<path class="st0" d="M296.8,377.8c0.2,0,0.2,0.1,0.3,0.3l0,0.7c0.5-0.4,1.6-1.1,3.1-1.1c1.7,0,2.6,1,2.6,2.3v6.7
			c0,0.2-0.1,0.3-0.3,0.3h-0.8c-0.2,0-0.3-0.1-0.3-0.3v-6.4c0-0.8-0.4-1.4-1.6-1.4c-1.4,0-2.4,0.7-2.8,1v6.8c0,0.2-0.1,0.3-0.3,0.3
			h-0.8c-0.2,0-0.3-0.1-0.3-0.3v-8.5c0-0.2,0.1-0.3,0.3-0.3H296.8z"/>
	</g>
	<g>
		<path class="st0" d="M152.1,406.6v4.5c0,0.2-0.1,0.3-0.3,0.3h-0.8c-0.2,0-0.3-0.1-0.3-0.3v-12c0-0.2,0.1-0.3,0.2-0.3h3.6
			c3.1,0,4,1.2,4,2.7v2.3c0,1.5-0.9,2.7-4,2.7H152.1z M152.1,400v5.5h2.6c2,0,2.7-0.7,2.7-1.8v-1.9c0-1.1-0.7-1.8-2.7-1.8H152.1z"/>
		<path class="st0" d="M165.6,402.4v0.6c0,0.2-0.1,0.3-0.3,0.3c-1.4,0.1-2.6,0.9-3,1.2v6.6c0,0.2-0.1,0.3-0.3,0.3h-0.8
			c-0.2,0-0.3-0.1-0.3-0.3v-8.5c0-0.2,0.1-0.3,0.3-0.3h0.7c0.2,0,0.2,0.1,0.3,0.3l0.1,0.9c0.5-0.5,1.7-1.3,3-1.3
			C165.5,402.1,165.6,402.2,165.6,402.4z"/>
		<path class="st0" d="M168.7,400.5c0,0.2-0.1,0.3-0.3,0.3h-0.8c-0.2,0-0.3-0.1-0.3-0.3v-1.7c0-0.2,0.1-0.3,0.3-0.3h0.8
			c0.2,0,0.3,0.1,0.3,0.3V400.5z M168.7,411.1c0,0.2-0.1,0.3-0.3,0.3h-0.8c-0.2,0-0.3-0.1-0.3-0.3v-8.5c0-0.2,0.1-0.3,0.3-0.3h0.8
			c0.2,0,0.3,0.1,0.3,0.3V411.1z"/>
		<path class="st0" d="M172.5,402.3c0.2,0,0.3,0.1,0.3,0.3l0,0.7c0.5-0.4,1.5-1.1,3.1-1.1c1.2,0,2,0.5,2.4,1.3
			c0.4-0.4,1.5-1.3,3.2-1.3c1.7,0,2.6,1,2.6,2.3v6.7c0,0.2-0.1,0.3-0.3,0.3h-0.7c-0.2,0-0.3-0.1-0.3-0.3v-6.4c0-0.8-0.4-1.4-1.6-1.4
			c-1.4,0-2.3,0.7-2.7,1.1c0,0.1,0,0.3,0,0.3v6.4c0,0.2-0.1,0.3-0.3,0.3h-0.8c-0.2,0-0.3-0.1-0.3-0.3v-6.4c0-0.8-0.4-1.4-1.6-1.4
			c-1.4,0-2.3,0.7-2.7,1v6.8c0,0.2-0.1,0.3-0.3,0.3h-0.8c-0.2,0-0.3-0.1-0.3-0.3v-8.5c0-0.2,0.1-0.3,0.3-0.3H172.5z"/>
		<path class="st0" d="M193.3,406.8c0,0.2-0.1,0.3-0.3,0.3h-5.2v2c0,0.8,0.4,1.4,2.1,1.4s2.1-0.6,2.1-1.4v-0.3
			c0-0.2,0.1-0.3,0.3-0.3h0.7c0.2,0,0.3,0.1,0.3,0.3v0.4c0,1.4-0.8,2.4-3.4,2.4c-2.5,0-3.4-1-3.4-2.4v-4.6c0-1.4,0.8-2.4,3.4-2.4
			c2.5,0,3.4,1,3.4,2.4V406.8z M187.8,406.1h4.3v-1.5c0-0.8-0.5-1.4-2.1-1.4c-1.6,0-2.1,0.6-2.1,1.4V406.1z"/>
		<path class="st0" d="M200.4,402.4v0.6c0,0.2-0.1,0.3-0.3,0.3c-1.4,0.1-2.6,0.9-3,1.2v6.6c0,0.2-0.1,0.3-0.3,0.3h-0.8
			c-0.2,0-0.3-0.1-0.3-0.3v-8.5c0-0.2,0.1-0.3,0.3-0.3h0.7c0.2,0,0.2,0.1,0.3,0.3l0.1,0.9c0.5-0.5,1.7-1.3,3-1.3
			C200.3,402.1,200.4,402.2,200.4,402.4z"/>
		<path class="st0" d="M201.9,404.5c0-1.4,0.8-2.3,3.3-2.3c2.5,0,3.3,1,3.3,2.3v6.6c0,0.2-0.1,0.3-0.3,0.3h-0.6
			c-0.2,0-0.3-0.1-0.3-0.3l0-0.7c-0.5,0.4-1.6,1.1-3,1.1c-1.7,0-2.6-1-2.6-2.2v-0.9c0-1.2,0.8-2.2,2.4-2.2h3.2v-1.7
			c0-0.8-0.4-1.4-2.1-1.4c-1.6,0-2.1,0.6-2.1,1.4v0.2c0,0.2-0.1,0.3-0.3,0.3h-0.7c-0.2,0-0.3-0.1-0.3-0.3V404.5z M207.3,409.4v-2.2
			h-2.9c-1,0-1.4,0.5-1.4,1.3v0.6c0,0.8,0.5,1.3,1.6,1.3C205.9,410.5,206.9,409.8,207.3,409.4z"/>
		<path class="st0" d="M215.5,401.4c0-1.5,1-2.7,4-2.7c3.1,0,4,1.2,4,2.7v7.4c0,1.5-0.9,2.7-4,2.7c-3,0-4-1.2-4-2.7V401.4z
			 M222.2,401.6c0-1.1-0.7-1.8-2.7-1.8c-1.9,0-2.7,0.7-2.7,1.8v7c0,1.1,0.7,1.8,2.7,1.8c2,0,2.7-0.7,2.7-1.8V401.6z"/>
		<path class="st0" d="M227.4,402.3c0.2,0,0.2,0.1,0.3,0.3l0,0.7c0.5-0.4,1.6-1.1,3.1-1.1c1.8,0,2.6,1,2.6,2.4v4.7
			c0,1.4-0.8,2.4-2.6,2.4c-1.5,0-2.6-0.7-3.1-1.1v4.5c0,0.2-0.1,0.3-0.3,0.3h-0.8c-0.2,0-0.3-0.1-0.3-0.3v-12.4
			c0-0.2,0.1-0.3,0.3-0.3H227.4z M232.1,404.7c0-0.8-0.4-1.4-1.6-1.4c-1.4,0-2.4,0.7-2.8,1v5c0.4,0.3,1.4,1,2.8,1
			c1.2,0,1.6-0.6,1.6-1.4V404.7z"/>
		<path class="st0" d="M242.6,404.5v0.4c0,0.2-0.1,0.3-0.3,0.3h-0.7c-0.2,0-0.3-0.1-0.3-0.3v-0.3c0-0.8-0.5-1.4-2.1-1.4
			c-1.6,0-2.1,0.6-2.1,1.4v4.5c0,0.9,0.5,1.4,2.1,1.4c1.7,0,2.1-0.6,2.1-1.4v-0.4c0-0.2,0.1-0.3,0.3-0.3h0.7c0.2,0,0.3,0.1,0.3,0.3
			v0.5c0,1.4-0.8,2.4-3.4,2.4s-3.3-1-3.3-2.4v-4.6c0-1.4,0.8-2.4,3.4-2.4S242.6,403.1,242.6,404.5z"/>
		<path class="st0" d="M246.2,400.5c0,0.2-0.1,0.3-0.3,0.3h-0.8c-0.2,0-0.3-0.1-0.3-0.3v-1.7c0-0.2,0.1-0.3,0.3-0.3h0.8
			c0.2,0,0.3,0.1,0.3,0.3V400.5z M246.2,411.1c0,0.2-0.1,0.3-0.3,0.3h-0.8c-0.2,0-0.3-0.1-0.3-0.3v-8.5c0-0.2,0.1-0.3,0.3-0.3h0.8
			c0.2,0,0.3,0.1,0.3,0.3V411.1z"/>
		<path class="st0" d="M248.9,404.5c0-1.4,0.9-2.4,3.5-2.4c2.5,0,3.5,1,3.5,2.4v4.6c0,1.4-1,2.4-3.5,2.4c-2.5,0-3.5-1-3.5-2.4V404.5
			z M254.5,404.6c0-0.9-0.6-1.4-2.2-1.4c-1.6,0-2.2,0.6-2.2,1.4v4.5c0,0.9,0.6,1.4,2.2,1.4c1.6,0,2.2-0.6,2.2-1.4V404.6z
			 M252.8,400.8c-0.1,0.1-0.1,0.2-0.3,0.2h-0.6c-0.2,0-0.3-0.1-0.1-0.3l1.2-2.1c0.1-0.1,0.2-0.2,0.4-0.2h0.8c0.2,0,0.2,0.1,0.1,0.3
			L252.8,400.8z"/>
		<path class="st0" d="M259.4,402.3c0.2,0,0.2,0.1,0.3,0.3l0,0.7c0.5-0.4,1.6-1.1,3.1-1.1c1.7,0,2.6,1,2.6,2.3v6.7
			c0,0.2-0.1,0.3-0.3,0.3h-0.8c-0.2,0-0.3-0.1-0.3-0.3v-6.4c0-0.8-0.4-1.4-1.6-1.4c-1.4,0-2.4,0.7-2.8,1v6.8c0,0.2-0.1,0.3-0.3,0.3
			h-0.8c-0.2,0-0.3-0.1-0.3-0.3v-8.5c0-0.2,0.1-0.3,0.3-0.3H259.4z"/>
	</g>
</g>
</svg>
