<?xml version="1.0" encoding="utf-8"?>
<!-- Generator: Adobe Illustrator 24.1.1, SVG Export Plug-In . SVG Version: 6.00 Build 0)  -->
<svg version="1.1" id="Capa_1" xmlns="http://www.w3.org/2000/svg" xmlns:xlink="http://www.w3.org/1999/xlink" x="0px" y="0px"
	 viewBox="0 0 24 24" style="enable-background:new 0 0 24 24;" xml:space="preserve">
<style type="text/css">
	.st0{fill:#F3744A;}
</style>
<path class="st0" d="M20,3.8c-1.1-1.1-2.3-1.9-3.6-2.4c-1.4-0.6-2.8-0.8-4.3-0.8C10,0.5,8.1,1,6.4,2c-1.7,1-3,2.3-4,4
	c-1,1.8-1.6,3.6-1.6,5.7c0,2,0.5,3.9,1.5,5.6l-1.6,5.8l5.9-1.6c1.7,0.9,3.4,1.4,5.3,1.4h0c2,0,3.9-0.5,5.6-1.5c1.7-1,3-2.3,4-4
	c1-1.7,1.5-3.6,1.5-5.6c0-1.5-0.3-2.9-0.8-4.3C21.8,6,21,4.8,20,3.8z M12.1,21c-1.7,0-3.3-0.4-4.7-1.3L7,19.5l-3.5,0.9L4.4,17
	l-0.2-0.4c-0.9-1.5-1.4-3.2-1.4-5C2.7,10,3.2,8.4,4,7c0.8-1.4,1.9-2.5,3.3-3.3c1.5-0.8,3-1.3,4.7-1.3c1.2,0,2.4,0.2,3.5,0.7
	s2.1,1.1,3,2c0.9,0.9,1.6,1.9,2,3c0.5,1.1,0.7,2.3,0.7,3.5c0,1.7-0.4,3.3-1.3,4.7c-0.8,1.4-1.9,2.5-3.3,3.3
	C15.3,20.6,13.7,21,12.1,21z M17.2,14c-1.1-0.5-1.7-0.8-1.9-0.9c-0.2-0.1-0.3-0.1-0.4-0.1c-0.1,0-0.2,0.1-0.3,0.2
	c-0.2,0.3-0.4,0.6-0.9,1.1c-0.1,0.1-0.2,0.2-0.3,0.2c-0.1,0-0.2,0-0.4-0.1l-0.2-0.1c-0.8-0.3-1.5-0.8-2.1-1.3
	c-0.6-0.5-1.1-1.2-1.6-2c-0.1-0.1-0.1-0.2-0.1-0.3c0-0.1,0.1-0.2,0.2-0.3c0.1-0.1,0.2-0.2,0.3-0.4l0.1-0.1C9.9,10,10,9.8,10.1,9.7
	l0-0.1c0.1-0.1,0.1-0.3,0-0.5L9.2,7C9.2,6.8,9.1,6.7,9,6.6c-0.1,0-0.1-0.1-0.3-0.1H8.1c-0.3,0-0.5,0.1-0.7,0.4L7.3,6.9
	C7,7.2,6.8,7.5,6.7,7.7c-0.2,0.4-0.4,1-0.4,1.5s0.2,1.2,0.5,1.9c0.2,0.4,0.4,0.7,0.6,1l0.1,0.1c0.5,0.7,1,1.3,1.5,1.8
	c1,1.1,2.1,1.8,3.2,2.3c0.5,0.2,1,0.4,1.6,0.6c0.5,0.2,1.1,0.2,1.8,0.1c0.3,0,0.7-0.2,1.1-0.4c0.4-0.3,0.7-0.6,0.8-0.9
	c0.1-0.3,0.2-0.6,0.2-0.8c0-0.3,0-0.4,0-0.5c0-0.1-0.2-0.2-0.4-0.3L17.2,14z"/>
</svg>
