<svg width="18" height="30" viewBox="0 0 18 30" fill="none" xmlns="http://www.w3.org/2000/svg">
<path d="M0.5745 1.40693C0.293774 1.68831 0.106622 2.06349 0.106622 2.53247C0.106622 3.00144 0.293773 3.37662 0.5745 3.65801L11.4293 14.5382L0.574499 25.4185C0.293773 25.6999 0.106621 26.075 0.106621 26.544C0.106621 27.013 0.293772 27.3882 0.574499 27.6695L1.51026 28.6075C2.16528 29.2641 3.10104 29.2641 3.75607 28.6075L16.7631 15.7576C17.0438 15.4762 17.231 15.101 17.231 14.632C17.231 14.1631 17.0438 13.7879 16.7631 13.5065L3.75607 0.468975C3.47534 0.18759 3.00747 -6.20271e-07 2.63316 -6.36593e-07C2.16529 -6.56997e-07 1.79098 0.187589 1.51026 0.468975L0.5745 1.40693Z" fill="#FF5023"/>
</svg>
