<?xml version="1.0" encoding="utf-8"?>
<!-- Generator: Adobe Illustrator 24.1.1, SVG Export Plug-In . SVG Version: 6.00 Build 0)  -->
<svg version="1.1" id="Capa_1" xmlns="http://www.w3.org/2000/svg" xmlns:xlink="http://www.w3.org/1999/xlink" x="0px" y="0px"
	 viewBox="0 0 25.5 25.6" style="enable-background:new 0 0 25.5 25.6;" xml:space="preserve">
<g id="Capa_2_1_">
	<g id="Capa_1-2">
		<path d="M12.8,0c3.4-0.1,6.6,1.3,9,3.7c2.4,2.4,3.8,5.6,3.7,9c0.1,3.4-1.3,6.6-3.7,9c-2.4,2.4-5.6,3.8-9,3.7
			c-2.1,0-4.2-0.5-6.1-1.5L0,25.6l1.8-6.6c-1.1-1.9-1.7-4.1-1.7-6.4C0.1,9.3,1.4,6,3.8,3.7C6.2,1.3,9.5-0.1,12.8,0z M12.8,23.2
			c2.8,0.1,5.5-1,7.4-3c2-2,3.2-4.7,3.1-7.5c0-2.8-1.1-5.5-3.1-7.4c-1.9-2-4.6-3.2-7.4-3.1C10,2.1,7.3,3.2,5.3,5.3
			c-2,2-3.1,4.6-3,7.4c0,2,0.5,4,1.6,5.6l0.3,0.4L3,22.6l4-1l0.4,0.2C9.1,22.8,10.9,23.3,12.8,23.2z M18.6,15.3
			c0.4,0.2,0.6,0.3,0.6,0.4s0.1,0.7-0.2,1.5c-0.1,0.4-0.5,0.8-0.9,1c-0.4,0.3-0.8,0.4-1.3,0.5c-0.7,0.1-1.4,0.1-2-0.1
			c-0.6-0.2-1.2-0.4-1.8-0.7c-2.2-1.1-4.1-2.7-5.4-4.8c-0.8-0.9-1.2-2.1-1.2-3.3c0-1,0.4-1.9,1.1-2.7C7.7,7,8,6.8,8.3,6.8h0.6
			c0.3,0,0.6,0.2,0.7,0.5c0,0.1,0.1,0.4,0.3,0.9c0.2,0.3,0.3,0.7,0.4,1.1c0.1,0.2,0.2,0.3,0.3,0.5c0.1,0.2,0.1,0.4,0,0.5
			c-0.1,0.2-0.2,0.4-0.3,0.5l-0.5,0.5c-0.2,0.1-0.3,0.4-0.1,0.6c0.4,0.8,1.1,1.6,1.8,2.2c0.7,0.7,1.6,1.2,2.5,1.6
			c0.3,0.1,0.5,0.1,0.7-0.1c0.4-0.4,0.7-0.8,1.1-1.3c0.1-0.2,0.4-0.3,0.7-0.1S17.4,14.8,18.6,15.3z"/>
	</g>
</g>
</svg>
