<svg width="61" height="59" viewBox="0 0 61 59" fill="none" xmlns="http://www.w3.org/2000/svg">
<path d="M59.5088 29.5341C59.5088 35.0853 57.8186 40.4943 54.5852 45.1203C51.4252 49.7464 46.869 53.376 41.5779 55.5111C36.2868 57.6462 30.4078 58.2156 24.8228 57.0769C19.1643 56.0093 14.0201 53.3049 9.97833 49.3905C5.93653 45.4762 3.14401 40.4231 2.0417 35.0142C0.939385 29.5341 1.52728 23.9116 3.65842 18.7874C5.86304 13.6631 9.53741 9.25058 14.3141 6.19027C19.1643 3.05879 24.7493 1.42188 30.4813 1.42188C34.3027 1.42188 38.0505 2.13358 41.5779 3.55698C45.1053 4.98038 48.2652 7.04431 50.9843 9.67761C53.7033 12.3109 55.8344 15.3712 57.3042 18.7874C58.7739 22.2035 59.5088 25.8332 59.5088 29.5341Z" fill="#F3744A"/>
<path d="M30.4812 0C24.4552 0 18.5762 1.70808 13.5791 4.98191C8.58195 8.18456 4.68712 12.8106 2.33552 18.2195C0.057412 23.6285 -0.603974 29.5356 0.571823 35.3004C1.74762 40.994 4.68712 46.2606 8.94938 50.3884C13.2117 54.5163 18.6497 57.2919 24.5287 58.4306C30.4077 59.5694 36.5806 59 42.1657 56.7226C47.7507 54.5163 52.5274 50.6731 55.8343 45.8335C59.1413 40.994 60.9784 35.3004 60.9784 29.4644C60.9784 25.6212 60.1701 21.778 58.6268 18.1484C57.0836 14.5899 54.879 11.316 52.013 8.54041C49.147 5.76478 45.84 3.62967 42.0922 2.1351C38.4913 0.782871 34.523 0 30.4812 0ZM31.363 56.4379C17.4004 57.2919 7.03871 46.9011 4.83409 40.4958C4.90758 40.4246 5.05455 40.3534 5.05455 40.3534C8.43497 39.4282 11.6684 41.0651 15.4163 44.1255C18.0618 46.3317 23.4264 52.31 29.9668 55.1568C30.4812 55.4415 30.9956 55.655 31.51 55.7973C31.51 55.8685 31.363 56.2955 31.363 56.4379ZM41.2103 54.3739C40.7694 54.5163 37.3155 55.5838 34.67 54.8721C34.1555 54.7298 33.7146 54.5875 33.2002 54.3739C29.5993 53.0929 26.2189 50.9578 23.059 48.538C19.0906 45.5489 16.1511 41.6345 10.7866 39.2147C10.7866 39.1435 10.8601 39.0724 10.8601 38.93C13.7995 39.2859 17.5474 39.6417 22.4711 42.5597C24.3817 43.6984 32.0979 48.111 33.2002 48.6092C35.3313 49.6056 37.4625 50.3884 39.7406 51.0289C40.9899 51.3848 42.3126 51.6695 43.5619 51.883C43.5619 51.883 44.5908 52.0253 44.8847 52.0253L45.1052 52.4524C43.8559 53.2352 42.5331 53.8758 41.2103 54.3739ZM50.6902 48.3245C47.6037 50.8866 43.268 50.3172 40.255 49.6055C35.6988 48.538 28.4235 44.5525 26.5129 43.3426C26.5864 43.2714 26.6598 43.1291 26.7333 43.0579C30.2607 44.2678 44.6642 47.7551 53.9971 43.2002C54.0706 43.2714 54.1441 43.3426 54.2176 43.4138C54.2911 43.4849 54.4381 43.6273 54.5115 43.6984C53.4092 45.4065 52.0865 46.9723 50.6902 48.3245ZM48.9265 43.0579C49.2939 42.7021 49.5879 42.2039 49.8084 41.7057L51.1311 37.7201H49.0735C47.4568 40.0688 43.5619 39.7129 40.3285 37.7913C35.2579 34.731 31.7305 32.8806 29.2319 32.7382C28.9379 32.7382 28.5705 32.7382 28.2766 32.8094C28.644 36.5814 29.4524 38.93 29.8933 39.9976C29.9668 40.2111 30.1137 40.4958 30.1872 40.7093L29.6728 40.5669C29.5258 40.4246 29.3789 40.2111 29.3054 40.0688C28.7175 39.1435 27.5417 37.0796 26.5863 33.5211C25.8515 34.0905 25.3371 34.8733 25.1901 35.7986C25.1901 36.0832 25.1166 36.2967 25.1166 36.5814L26.1454 38.93L27.4682 41.9904C26.9538 41.848 26.3659 41.5633 25.7045 41.2786C20.9278 39.3571 11.2275 35.4427 3.87875 38.7877C2.55598 35.0157 2.04157 31.0302 2.40901 27.0446C2.77644 23.0591 4.02573 19.2159 6.08338 15.7998C8.14102 12.3836 11.007 9.39445 14.3874 7.11701C17.7679 4.83957 21.5892 3.27382 25.7045 2.63329C29.7463 1.92159 33.9351 2.1351 37.9034 3.13148C41.8717 4.19904 45.5461 6.04946 48.706 8.61158C51.866 11.1737 54.3646 14.3764 56.1283 18.006C57.892 21.6357 58.7738 25.5501 58.7738 29.5356C58.7738 32.0265 58.2594 35.585 57.8185 36.6526C56.2018 39.9976 52.9683 42.0615 48.9265 43.0579Z" fill="white"/>
<path d="M45.6194 26.3313C45.9868 24.125 46.7217 22.0611 47.824 20.0683C45.252 18.5737 42.3125 17.7909 39.373 17.7197C36.36 17.6485 33.4205 18.3602 30.775 19.7836C30.334 20.5665 29.9666 21.4205 29.5992 22.2746C28.5703 22.5593 27.615 22.9151 26.7332 23.4133C25.7778 24.8367 25.1899 26.5448 25.1899 28.2529C25.1164 29.961 25.6309 31.669 26.5127 33.1636L26.2922 31.669C27.1006 31.1709 27.9824 30.9573 28.9378 30.9573C31.6568 30.9573 35.4047 32.5231 39.4465 35.3699C39.4465 35.2987 39.373 35.2276 39.373 35.0852C37.9767 31.3132 38.0502 27.1142 39.6669 23.4133C38.3442 22.7016 36.8009 22.2034 35.3312 21.9899L35.4047 21.7764C37.2419 21.9187 39.079 22.3458 40.7692 23.0575C39.5934 26.4736 39.6669 30.1745 40.9897 33.5195C43.4148 34.4447 45.6194 35.8681 47.3831 37.7897L47.6036 37.7185C45.6929 34.2312 45.0315 30.2456 45.6194 26.3313Z" fill="white"/>
<path d="M17.4006 20.4989C17.5475 22.4205 17.915 25.6231 17.915 25.6231H18.5029C18.5029 25.6231 18.7968 22.4205 19.0173 20.4989C19.0908 19.3601 19.6052 18.862 20.4136 18.6484C21.0749 18.5061 23.2796 18.2214 23.2796 18.2214V17.6521C22.2507 17.5809 21.2954 17.3674 20.3401 17.1539C19.9726 17.0827 19.6787 16.9404 19.4582 16.6557C19.2378 16.4422 19.0173 16.1575 18.9438 15.8016C18.7233 15.0899 18.5029 12.8125 18.5029 12.8125H17.9885C17.915 13.8089 17.6945 14.8053 17.5475 15.8016C17.4741 16.1575 17.3271 16.4422 17.0331 16.6557C16.8127 16.8692 16.5187 17.0827 16.1513 17.1539C15.4164 17.3674 13.2118 17.6521 13.2118 17.6521V18.2214C13.2118 18.2214 15.3429 18.5061 16.0778 18.7196C16.8127 18.862 17.2536 19.3601 17.4006 20.4989Z" fill="white"/>
<path d="M40.3284 15.0886L39.814 17.1526C38.3443 15.9427 36.5806 15.3021 34.6699 15.1598L34.5964 14.8751C35.4783 14.5193 36.5071 14.3057 37.4624 14.3769C38.4913 14.3769 39.5201 14.6616 40.3284 15.0886Z" fill="white"/>
</svg>
