<svg width="50" height="60" viewBox="0 0 50 60" fill="none" xmlns="http://www.w3.org/2000/svg">
<path d="M24.5371 1.70605H25.4758C33.0322 1.70605 38.5704 6.50072 41.9028 10.6902C45.2351 14.8332 48.0981 22.1416 48.0981 29.4965V30.7999C48.0981 44.0667 38.6174 58.4042 25.288 58.4042H24.5371C16.9807 58.4042 11.3485 53.4699 7.96928 49.2803C4.54308 44.9512 1.86783 37.5962 1.82089 30.0551C1.77396 22.6536 4.59001 15.066 7.92235 10.8764C11.3485 6.59382 16.7929 1.70605 24.5371 1.70605Z" stroke="#F3744A" stroke-width="0.3979" stroke-miterlimit="10"/>
<path d="M0.506836 29.2631C0.506836 21.9548 3.65143 13.5757 7.12457 9.61895C9.51821 6.91904 10.9262 5.28979 14.1647 3.33468C16.6992 1.84507 20.4539 0.355469 24.5372 0.355469H25.4289C39.5092 0.355469 49.5062 15.2515 49.5062 29.0769V30.8458C49.5062 44.8109 39.5092 59.6139 25.2412 59.6139H24.7719C10.41 59.6139 0.506836 44.7643 0.506836 30.6596V29.2631V29.2631Z" stroke="#F3744A" stroke-width="0.5299" stroke-miterlimit="10"/>
<path d="M7.26514 29.3094C7.26514 23.6303 9.51798 17.1598 12.0524 14.1341C13.789 12.0393 14.8216 10.7824 17.1683 9.29284C18.9987 8.12909 21.7209 6.96533 24.6777 6.96533H25.3348C35.5196 6.96533 42.7474 18.4632 42.7474 29.1698V30.5663C42.7474 41.3659 35.5196 52.7707 25.194 52.7707H24.8186C14.4461 52.7707 7.26514 41.3194 7.26514 30.4266C7.26514 30.4266 7.26514 29.3094 7.26514 29.3094Z" stroke="#F3744A" stroke-width="0.2649" stroke-miterlimit="10"/>
<path d="M39.0872 48.6288C38.9456 48.7692 39.276 48.4415 39.0872 48.6288V48.6288Z" fill="#F3744A"/>
<path d="M4.02702 40.3423L3.98008 40.2027V40.1561V40.1096C3.98008 40.1096 3.98008 40.1096 3.98008 40.063C3.98008 40.063 3.98008 40.063 3.98008 40.0165L3.93315 39.8768L5.52892 39.551C5.71665 39.5044 5.85746 39.4579 5.99826 39.4113C6.13906 39.3648 6.186 39.2717 6.27986 39.1786C6.3268 39.0855 6.37373 38.9924 6.37373 38.8993C6.37373 38.8062 6.37373 38.7131 6.37373 38.62C6.3268 38.4803 6.27986 38.3872 6.23293 38.2941C6.186 38.201 6.09213 38.1545 5.99826 38.1079C5.90439 38.0614 5.81052 38.0614 5.66972 38.0148C5.52892 38.0148 5.38811 38.0148 5.24731 38.0614L3.55768 38.3872V38.201L3.51074 38.0614L5.10651 37.7355C5.29424 37.689 5.48198 37.689 5.62278 37.689C5.76359 37.689 5.90439 37.7355 6.04519 37.7821C6.186 37.8286 6.27986 37.9217 6.37373 38.0614C6.4676 38.201 6.51453 38.3407 6.56147 38.5734L6.6084 38.7131C6.65534 38.8993 6.65534 39.0855 6.65534 39.2717C6.6084 39.4113 6.56147 39.551 6.4676 39.6441C6.37373 39.7372 6.27986 39.8303 6.13906 39.8768C5.99826 39.9234 5.90439 39.9699 5.76359 40.0165L4.02702 40.3423Z" fill="#F3744A"/>
<path d="M3.27612 36.7105V36.5708V36.3846L5.01268 34.5226L3.08838 34.7088V34.5692C3.08838 34.5692 3.08838 34.5692 3.08838 34.5226C3.08838 34.5226 3.08838 34.5226 3.08838 34.4761V34.3364L5.8575 34.0571V34.1968V34.3364L4.02706 36.245L5.9983 36.0122V36.1519V36.2915L3.27612 36.7105Z" fill="#F3744A"/>
<path d="M2.99414 32.7544C2.99414 32.7079 2.99414 32.7079 2.99414 32.7544C2.99414 32.7079 2.99414 32.7079 2.99414 32.7544C2.99414 32.7079 2.99414 32.7079 2.99414 32.7544V32.6613V32.6147V32.4751L5.76326 32.6613V32.801C5.76326 32.801 5.76326 32.801 5.76326 32.8475V32.894V32.9406V32.9872V33.1268L2.99414 32.9406V32.7544Z" fill="#F3744A"/>
<path d="M2.90069 31.3122V31.2191V31.1726V31.0329L5.1066 30.5209C5.05966 30.5209 5.05966 30.4743 5.01273 30.4743C4.96579 30.4743 4.96579 30.4278 4.91886 30.3812C4.82499 30.3347 4.77806 30.2881 4.68419 30.2416C4.59032 30.195 4.49645 30.1485 4.40258 30.1019C4.35565 30.1019 4.35565 30.0554 4.30871 30.0554C4.26178 30.0554 4.26178 30.0088 4.21485 30.0088C4.21485 30.0088 4.16791 30.0088 4.16791 29.9623C4.16791 29.9623 4.12098 29.9623 4.12098 29.9157C4.12098 29.9157 4.07404 29.9157 4.07404 29.8692C4.07404 29.8692 4.02711 29.8692 4.02711 29.8226C3.93324 29.7761 3.88631 29.7295 3.79244 29.683C3.69857 29.6364 3.65164 29.5899 3.55777 29.5433C3.4639 29.4968 3.41696 29.4502 3.3231 29.4502C3.22923 29.4037 3.18229 29.4037 3.13536 29.3571V29.2175C3.13536 29.2175 3.13536 29.2174 3.13536 29.1709V29.0312L5.66981 30.5674L5.62287 30.7071V30.5674L5.57594 30.7071L2.66602 31.4519L2.71295 31.3122C2.85375 31.3588 2.85375 31.3122 2.90069 31.3122Z" fill="#F3744A"/>
<path d="M3.08838 28.2388V28.0991L3.22918 26.7026H3.27612C3.27612 26.7026 3.27612 26.7026 3.32305 26.7026H3.36998C3.36998 26.7026 3.36998 26.7026 3.41692 26.7026V26.8423C3.41692 26.8888 3.41692 26.9354 3.36998 26.9354C3.36998 26.9819 3.36998 27.0285 3.32305 27.075C3.32305 27.1216 3.32305 27.1681 3.32305 27.2147C3.32305 27.2612 3.32305 27.3078 3.32305 27.3543C3.32305 27.3543 3.32305 27.3543 3.32305 27.4009C3.32305 27.4009 3.32305 27.4009 3.32305 27.4474C3.32305 27.4474 3.32305 27.4474 3.32305 27.494C3.32305 27.494 3.32305 27.494 3.32305 27.5405C3.32305 27.5405 3.32305 27.5405 3.32305 27.5871C3.32305 27.5871 3.32305 27.5871 3.32305 27.6336C3.32305 27.6336 3.32305 27.6336 3.32305 27.6802C3.32305 27.6802 3.32305 27.6802 3.32305 27.7267V27.7733V27.8198L4.30867 27.9129L4.3556 27.494V27.1216V26.9819H4.40254C4.40254 26.9819 4.40254 26.9819 4.44947 26.9819C4.44947 26.9819 4.44947 26.9819 4.49641 26.9819C4.49641 26.9819 4.49641 26.9819 4.54334 26.9819C4.54334 26.9819 4.54334 26.9819 4.59027 26.9819H4.63721V27.1216L4.54334 27.5871L4.49641 27.9129L5.62283 28.0526V28.006V27.9595V27.9129V27.8664V27.8198C5.62283 27.8198 5.62283 27.8198 5.62283 27.7733C5.62283 27.7733 5.62283 27.7733 5.62283 27.7267C5.62283 27.7267 5.62283 27.7267 5.62283 27.6802C5.62283 27.6336 5.62283 27.5871 5.62283 27.5405C5.62283 27.494 5.62283 27.4474 5.62283 27.4009C5.62283 27.3543 5.62283 27.3078 5.62283 27.2612C5.62283 27.2147 5.62283 27.1681 5.62283 27.1681V27.0285H5.66976C5.66976 27.0285 5.66976 27.0285 5.7167 27.0285C5.7167 27.0285 5.7167 27.0285 5.76363 27.0285C5.76363 27.0285 5.76363 27.0285 5.81057 27.0285C5.81057 27.0285 5.81057 27.0285 5.8575 27.0285C5.8575 27.0285 5.8575 27.0285 5.90443 27.0285C5.90443 27.0285 5.90443 27.0285 5.95137 27.0285V27.1681L5.81057 28.5646L3.08838 28.2388Z" fill="#F3744A"/>
<path d="M4.77766 25.4453C4.77766 25.3057 4.82459 25.2591 4.82459 25.166C4.82459 25.0729 4.82459 25.0264 4.77766 24.9798C4.77766 24.9333 4.73072 24.8402 4.68379 24.7936C4.63685 24.7471 4.63685 24.7005 4.58992 24.7005C4.54299 24.7005 4.54299 24.654 4.49605 24.654C4.44912 24.654 4.44912 24.6074 4.40218 24.6074C4.35525 24.6074 4.35525 24.6074 4.30831 24.6074H4.26138H4.21445H4.16751H4.12058C4.12058 24.6074 4.07364 24.6074 4.02671 24.6074C3.97977 24.6074 3.93284 24.654 3.93284 24.654C3.88591 24.7005 3.83897 24.7005 3.83897 24.7471C3.79204 24.7936 3.79204 24.8402 3.7451 24.8867C3.69817 24.9333 3.69817 25.0264 3.69817 25.0729L3.65123 25.2591L4.77766 25.4453ZM3.36963 25.6781L3.41656 25.5384L3.6043 24.6074C3.65123 24.5143 3.65123 24.4212 3.69817 24.3281C3.7451 24.235 3.79204 24.1885 3.88591 24.1419C3.97977 24.0954 4.02671 24.0488 4.12058 24.0488C4.21445 24.0488 4.30831 24.0488 4.40218 24.0488C4.49605 24.0488 4.58992 24.0954 4.63685 24.1419C4.68379 24.1885 4.77766 24.235 4.82459 24.2816C4.87153 24.3281 4.91846 24.4212 4.91846 24.4678C4.96539 24.5143 4.96539 24.6074 4.96539 24.654C4.96539 24.7005 4.96539 24.7005 4.96539 24.7471C4.96539 24.7936 4.96539 24.7936 4.96539 24.8402C4.96539 24.8867 4.96539 24.8867 4.96539 24.9333C4.96539 24.9798 4.96539 24.9798 4.96539 25.0264L6.46729 24.2816L6.42036 24.4212C6.42036 24.4212 6.42036 24.4212 6.42036 24.4678C6.42036 24.4678 6.42036 24.4678 6.42036 24.5143C6.42036 24.5143 6.42036 24.5143 6.42036 24.5609V24.6074V24.654L6.37342 24.7936L4.96539 25.4919L6.23262 25.7246L6.18568 25.8643V25.9108L6.13875 26.0505L3.36963 25.6781Z" fill="#F3744A"/>
<path d="M4.30834 22.9802C4.26141 22.9336 4.16754 22.8405 4.16754 22.7474C4.12061 22.6543 4.12061 22.5612 4.12061 22.5147C4.12061 22.4216 4.12061 22.3285 4.12061 22.2819L4.16754 22.1423C4.16754 22.0957 4.21447 22.0026 4.21447 21.9561C4.26141 21.9095 4.26141 21.863 4.30834 21.8164C4.35528 21.7699 4.35528 21.7233 4.40221 21.7233C4.44915 21.6768 4.49608 21.6768 4.49608 21.6768L4.54301 21.7233L4.58995 21.7699L4.63688 21.8164C4.68382 21.8164 4.68382 21.863 4.73075 21.863L4.68382 22.0026V22.0492C4.68382 22.0492 4.68382 22.0492 4.63688 22.0492C4.63688 22.0492 4.63688 22.0492 4.58995 22.0492H4.54301H4.49608C4.44915 22.0492 4.44915 22.0957 4.40221 22.0957C4.35528 22.0957 4.35528 22.1423 4.30834 22.1888L4.26141 22.2354C4.26141 22.2819 4.21447 22.2819 4.21447 22.3285C4.21447 22.375 4.21447 22.4216 4.21447 22.4681C4.21447 22.5147 4.26141 22.5612 4.26141 22.6078C4.30834 22.6543 4.35528 22.7009 4.40221 22.7474C4.44915 22.794 4.49608 22.794 4.54301 22.8405C4.58995 22.8405 4.63688 22.8405 4.63688 22.8405C4.68382 22.8405 4.73075 22.8405 4.77768 22.794C4.82462 22.794 4.87155 22.7474 4.91849 22.7009C4.96542 22.6543 5.01236 22.6543 5.05929 22.5612L5.3409 22.1888C5.38783 22.1423 5.43476 22.0492 5.52863 22.0492C5.57557 22.0026 5.66944 21.9561 5.71637 21.9561C5.7633 21.9561 5.85717 21.9095 5.90411 21.9095C5.95104 21.9095 6.04491 21.9095 6.09184 21.9561C6.18571 22.0026 6.27958 22.0492 6.37345 22.0957C6.46732 22.1888 6.51425 22.2354 6.60812 22.375C6.65506 22.4681 6.70199 22.6078 6.74892 22.7009C6.74892 22.794 6.74892 22.9336 6.70199 23.0733H6.84279C6.84279 23.1198 6.79586 23.1664 6.79586 23.2129C6.74892 23.2595 6.74892 23.306 6.70199 23.3526C6.65506 23.3991 6.65506 23.4457 6.60812 23.4457C6.56119 23.4922 6.56119 23.4922 6.51425 23.5388L6.46732 23.4922L6.42038 23.4457C6.42038 23.4457 6.42038 23.4457 6.37345 23.4457C6.37345 23.4457 6.37345 23.4457 6.32652 23.4457C6.32652 23.4457 6.32652 23.4457 6.27958 23.4457C6.27958 23.4457 6.27958 23.4457 6.23265 23.4457C6.23265 23.4457 6.23265 23.4457 6.18571 23.4457V23.3991L6.23265 23.2595C6.37345 23.2129 6.46732 23.1664 6.51425 23.1664C6.60812 23.1198 6.65506 23.0733 6.65506 23.0267C6.65506 22.9802 6.70199 22.9802 6.70199 22.9336C6.70199 22.8871 6.74892 22.8871 6.74892 22.8405C6.74892 22.794 6.74892 22.7009 6.74892 22.6543C6.74892 22.6078 6.70199 22.5612 6.65506 22.5147C6.60812 22.4681 6.56119 22.4216 6.51425 22.375C6.46732 22.3285 6.42038 22.3285 6.32652 22.2819C6.27958 22.2819 6.23265 22.2819 6.18571 22.2819C6.13878 22.2819 6.09184 22.2819 6.04491 22.3285C5.99798 22.3285 5.95104 22.375 5.90411 22.375C5.85717 22.4216 5.81024 22.4681 5.7633 22.5147L5.4817 22.8405C5.38783 22.9336 5.3409 23.0267 5.24703 23.0733C5.15316 23.1198 5.10622 23.1664 5.01236 23.1664C4.96542 23.1664 4.87155 23.1664 4.82462 23.1664C4.77769 23.1664 4.68382 23.1664 4.63688 23.1198C4.44915 23.0733 4.35528 23.0267 4.30834 22.9802Z" fill="#F3744A"/>
<path d="M4.73108 20.2329C4.77801 20.1864 4.77801 20.1864 4.73108 20.2329C4.77801 20.1864 4.77801 20.1864 4.73108 20.2329C4.77801 20.1864 4.77801 20.1864 4.73108 20.2329L4.77801 20.1398V20.0933L4.82494 19.9536L7.45326 20.7915L7.40633 20.9312C7.40633 20.9312 7.40633 20.9312 7.40633 20.9777V21.0243V21.0708C7.40633 21.0708 7.40633 21.0708 7.40633 21.1174L7.31246 21.257L4.63721 20.4191L4.73108 20.2329Z" fill="#F3744A"/>
<path d="M5.52862 18.4169L7.73453 19.3013C7.73453 19.2548 7.78146 19.2548 7.78146 19.2082C7.78146 19.1617 7.8284 19.1617 7.8284 19.1151C7.92226 18.9289 7.92227 18.7427 7.9692 18.6031C8.01613 18.4634 7.9692 18.3238 7.92226 18.1841C7.87533 18.0445 7.78146 17.9514 7.64066 17.8117C7.49986 17.7186 7.35905 17.579 7.12438 17.4859C7.12438 17.4859 7.12438 17.4859 7.07745 17.4859C7.07745 17.4859 7.07745 17.4859 7.03051 17.4859C6.84278 17.4393 6.70197 17.3927 6.56117 17.3927C6.42037 17.3927 6.3265 17.3928 6.23263 17.4859C6.13876 17.5324 6.04489 17.6255 5.95102 17.6721C5.85716 17.7652 5.81022 17.8117 5.76329 17.9048C5.76329 17.9048 5.76329 17.9048 5.76329 17.9514C5.76329 17.9514 5.76329 17.9514 5.76329 17.9979V18.0445C5.76329 18.0445 5.76329 18.0445 5.76329 18.091C5.76329 18.091 5.76329 18.091 5.76329 18.1376C5.76329 18.1841 5.76329 18.1841 5.71635 18.2307C5.71635 18.2772 5.71635 18.2772 5.71635 18.3238V18.3703V18.4169C5.57555 18.3703 5.57555 18.3703 5.52862 18.4169C5.57555 18.4169 5.57555 18.4169 5.52862 18.4169ZM5.71635 17.5324C5.81022 17.3462 5.90409 17.16 6.04489 17.0669C6.1857 16.9272 6.27957 16.8807 6.4673 16.8341C6.6081 16.7876 6.79584 16.7876 6.93664 16.7876C7.07745 16.7876 7.26518 16.8341 7.40599 16.9272C7.45292 16.9272 7.49986 16.9738 7.54679 16.9738C7.59372 16.9738 7.64066 17.0203 7.68759 17.0203C7.73453 17.0669 7.78146 17.0669 7.8284 17.1134C7.87533 17.16 7.92227 17.16 7.9692 17.2066C8.06307 17.2997 8.11 17.3462 8.20387 17.4859C8.2508 17.579 8.34467 17.6721 8.39161 17.8117C8.43854 17.9514 8.48548 18.0445 8.43854 18.1841C8.43854 18.3238 8.39161 18.4634 8.34467 18.6496L8.29774 18.7893L7.87533 19.8134L5.29395 18.7893L5.34088 18.6496L5.71635 17.5324Z" fill="#F3744A"/>
<path d="M8.53266 15.0667L7.68784 14.9736L8.20412 15.6253L8.53266 15.0667ZM7.03076 14.6478L7.12463 14.5081L7.17156 14.415L10.2223 14.7409L10.1284 14.8805C10.1284 14.8805 10.1284 14.8805 10.1284 14.9271C10.1284 14.9271 10.1284 14.9271 10.1284 14.9736C10.1284 14.9736 10.1284 14.9736 10.1284 15.0202L10.0346 15.1598L8.7204 15.0667L8.34492 15.765L9.1428 16.6494L9.04894 16.7891L8.95507 17.0218L7.03076 14.6478Z" fill="#F3744A"/>
<path d="M8.86094 12.2712L10.7383 13.7608L10.7852 13.7142L10.8322 13.6677C10.973 13.4815 11.0669 13.3418 11.1138 13.2022C11.1607 13.0625 11.2077 12.9229 11.1607 12.7832C11.1607 12.6436 11.1138 12.5039 11.0199 12.3643C10.9261 12.2246 10.7852 12.085 10.5975 11.8988C10.4567 11.8057 10.3159 11.7126 10.1751 11.666C10.0812 11.4333 9.94043 11.4333 9.84656 11.4333C9.7527 11.4798 9.61189 11.4798 9.51802 11.5264C9.42416 11.5729 9.33029 11.6195 9.23642 11.7126C9.23642 11.7126 9.23642 11.7126 9.18948 11.7591C9.18948 11.7591 9.18948 11.7591 9.14255 11.8057C9.14255 11.8057 9.14255 11.8057 9.09562 11.8522C9.09562 11.8522 9.09562 11.8522 9.04868 11.8988L9.00175 11.9453L8.95481 11.9919C8.95481 11.9919 8.95481 12.0384 8.90788 12.0384C8.90788 12.0384 8.90788 12.085 8.86094 12.085C8.90788 12.2246 8.86094 12.2246 8.86094 12.2712C8.86094 12.2246 8.86094 12.2246 8.86094 12.2712ZM9.23642 11.4333C9.37722 11.2471 9.51802 11.154 9.65883 11.0609C9.79963 10.9678 9.94043 10.9678 10.1282 10.9678C10.269 10.9678 10.4098 11.0143 10.5975 11.0609C10.7383 11.1074 10.8791 11.2005 11.0199 11.2936C11.0669 11.3402 11.0669 11.3402 11.1138 11.3867C11.1607 11.4333 11.1607 11.4333 11.2077 11.4798C11.2546 11.5264 11.2546 11.5729 11.3015 11.5729C11.3485 11.6195 11.3485 11.666 11.3954 11.7126C11.4423 11.8057 11.4893 11.8988 11.5362 12.0384C11.5831 12.1315 11.5831 12.2712 11.6301 12.4108C11.6301 12.5505 11.6301 12.6901 11.5831 12.8298C11.5362 12.9694 11.4423 13.1091 11.3485 13.2487L11.2546 13.3884L10.5506 14.2728L8.3916 12.5505L8.48547 12.4108L9.23642 11.4333Z" fill="#F3744A"/>
<path d="M12.7568 7.52443L12.8976 7.43133L13.0384 7.33823L15.6668 7.89684L14.4465 6.31413L14.5873 6.22103C14.5873 6.22103 14.5873 6.22103 14.6342 6.22103C14.6342 6.22103 14.6342 6.22103 14.6811 6.22103L14.8219 6.12793L16.5585 8.40889L16.4177 8.50199L16.23 8.45544L13.5547 7.89684L14.8219 9.52609L14.6811 9.61919L14.5403 9.71229L12.7568 7.52443Z" fill="#F3744A"/>
<path d="M17.8724 6.03518L17.2153 5.47658L17.3092 6.36103L17.8724 6.03518ZM16.8398 4.77832L16.9806 4.68522L17.0745 4.63867L19.4682 6.68688L19.3274 6.77998C19.3274 6.77998 19.3274 6.77998 19.2804 6.77998C19.2804 6.77998 19.2804 6.77998 19.2335 6.77998C19.2335 6.77998 19.2335 6.77998 19.1866 6.77998L19.0458 6.87308L18.154 6.03518L17.4031 6.40758L17.5439 7.61788L17.4031 7.71098L17.2623 7.80408L16.8398 4.77832Z" fill="#F3744A"/>
<path d="M19.374 4.68394C19.374 4.49774 19.4679 4.31154 19.5148 4.17189C19.6087 3.98569 19.7026 3.84604 19.8903 3.75294C20.078 3.61329 20.2658 3.52019 20.4535 3.42708L20.5943 3.38053H20.6412H20.6882H20.7351H20.7821C20.829 3.38053 20.829 3.38053 20.8759 3.38053C20.9229 3.38053 20.9229 3.38053 20.9698 3.38053C21.0167 3.38053 21.0637 3.38053 21.1575 3.33398C21.2045 3.33398 21.2514 3.33398 21.3453 3.33398C21.3922 3.33398 21.4391 3.33398 21.4861 3.33398C21.533 3.33398 21.5799 3.33398 21.6269 3.38053V3.70639L21.4861 3.75294H21.4391C21.3922 3.70639 21.3453 3.70639 21.2514 3.65984C21.2045 3.65984 21.1575 3.61329 21.0637 3.61329C21.0167 3.61329 20.9698 3.61329 20.8759 3.61329C20.829 3.61329 20.7821 3.61329 20.6882 3.61329H20.6412H20.5943C20.5004 3.65984 20.3596 3.70639 20.2658 3.79949C20.1719 3.89259 20.078 3.98569 20.0311 4.07879C19.9372 4.21844 19.9372 4.35809 19.8903 4.49774C19.8903 4.63739 19.8903 4.82359 19.9372 5.00979V5.05634V5.10289C19.9842 5.33564 20.078 5.52184 20.1719 5.66149C20.2658 5.80114 20.4066 5.89424 20.5004 5.98734C20.6413 6.0339 20.7351 6.08045 20.8759 6.08045C21.0167 6.08045 21.1106 6.08045 21.2514 6.08045C21.2983 6.0339 21.3922 6.0339 21.4391 5.98734C21.4861 5.94079 21.5799 5.89424 21.6269 5.89424C21.6738 5.84769 21.7207 5.80114 21.7677 5.75459C21.8146 5.70804 21.8615 5.66149 21.9085 5.61494L22.0493 5.56839L22.0962 5.80114L22.0493 5.84769L22.0023 5.89424L21.9554 5.94079L21.9085 5.98734C21.8615 5.98734 21.8615 6.03389 21.8146 6.03389C21.7677 6.03389 21.7677 6.08045 21.7207 6.08045C21.7207 6.08045 21.7207 6.08045 21.6738 6.08045C21.6269 6.08045 21.5799 6.127 21.5799 6.127C21.533 6.127 21.533 6.17355 21.4861 6.17355C21.4391 6.17355 21.4391 6.2201 21.3922 6.2201C21.3453 6.2201 21.3453 6.2201 21.2983 6.26665L21.2514 6.3132C21.0637 6.35975 20.8759 6.35975 20.6882 6.35975C20.5004 6.35975 20.3127 6.26665 20.1719 6.2201C19.9842 6.127 19.8434 5.98734 19.7495 5.84769C19.6556 5.70804 19.5618 5.52184 19.4679 5.28909C19.374 5.05634 19.374 4.87014 19.374 4.68394Z" fill="#F3744A"/>
<path d="M22.8943 3.00879C22.9412 3.00879 22.9412 3.00879 22.8943 3.00879H22.9881H23.0351H23.1759L23.5044 5.84835H23.3636C23.3636 5.84835 23.3636 5.84835 23.3167 5.84835H23.2698H23.2228H23.1759H23.0351L22.7065 3.00879H22.8943C22.8473 3.00879 22.8473 3.00879 22.8943 3.00879Z" fill="#F3744A"/>
<path d="M24.8659 4.31236C24.8659 4.54511 24.8659 4.73131 24.9129 4.87096C24.9598 5.05716 25.0067 5.19681 25.1476 5.28991C25.2414 5.38301 25.3353 5.47611 25.4761 5.56921C25.6169 5.61576 25.7108 5.66231 25.8516 5.70886C25.9924 5.70886 26.1332 5.66231 26.227 5.61576C26.3209 5.56921 26.4617 5.47611 26.5556 5.38301C26.6494 5.28991 26.7433 5.15026 26.8372 4.96406C26.8841 4.82441 26.9311 4.63821 26.978 4.40546C26.978 4.21926 26.978 4.07961 26.9311 3.89341C26.8841 3.75376 26.8372 3.61411 26.6964 3.47446C26.6025 3.38136 26.5086 3.28826 26.3678 3.19516C26.227 3.10206 26.0393 3.0555 25.8985 3.00895C25.7577 3.00895 25.7108 3.0555 25.57 3.0555C25.4761 3.10205 25.3822 3.14861 25.2884 3.24171C25.1945 3.33481 25.1476 3.42791 25.0537 3.52101C25.0067 3.61411 24.9598 3.75376 24.9129 3.84686C24.9129 3.89341 24.9129 3.89341 24.8659 3.93996C24.8659 3.98651 24.8659 3.98651 24.819 4.03306C24.819 4.07961 24.819 4.07961 24.819 4.12616C24.8659 4.21926 24.8659 4.26581 24.8659 4.31236ZM24.3027 4.21926C24.3027 4.17271 24.3027 4.17271 24.3027 4.12616V4.07961C24.3497 3.89341 24.3966 3.75376 24.4435 3.61411C24.5374 3.47446 24.6313 3.33481 24.7721 3.19516C24.9129 3.0555 25.0537 2.9624 25.2414 2.91585C25.4292 2.8693 25.6638 2.82275 25.8985 2.82275H26.0393C26.274 2.82275 26.5086 2.8693 26.6494 2.9624C26.8841 3.0555 27.0249 3.14861 27.1188 3.24171C27.2127 3.33481 27.3065 3.47446 27.3535 3.61411C27.4004 3.75376 27.4473 3.89341 27.4943 3.98651V4.03306V4.07961V4.12616V4.17271C27.4943 4.21926 27.4943 4.21926 27.4943 4.26581C27.4943 4.31236 27.4943 4.31236 27.4943 4.35891C27.4943 4.59166 27.4473 4.77786 27.3535 4.96406C27.2596 5.15026 27.1657 5.28991 26.978 5.42956C26.8372 5.56921 26.6494 5.66231 26.4617 5.70886C26.274 5.75541 26.0862 5.80197 25.8985 5.75542H25.7577C25.7108 5.75542 25.7108 5.75542 25.6638 5.75542C25.6169 5.75542 25.6169 5.75542 25.57 5.75542C25.523 5.75542 25.523 5.75542 25.4761 5.75542C25.4292 5.75542 25.4292 5.75541 25.3822 5.70886C25.2414 5.66231 25.1476 5.61576 25.0067 5.52266C24.8659 5.42956 24.7721 5.33646 24.6782 5.24336C24.5843 5.10371 24.4905 4.96406 24.4435 4.82441C24.3027 4.68476 24.3027 4.49856 24.3027 4.21926C24.3027 4.26581 24.3027 4.21926 24.3027 4.21926Z" fill="#F3744A"/>
<path d="M28.8549 3.24268L28.9957 3.28923L29.1834 3.33578L30.2629 5.75639L30.8731 3.84783L31.0139 3.89438C31.0139 3.89438 31.0139 3.89438 31.0608 3.89438L31.2955 3.98748L30.4507 6.73394L30.3099 6.68739L30.1691 6.64084L29.0426 4.17368L28.4325 6.12879L28.2917 6.08224L28.1509 6.03569L28.8549 3.24268Z" fill="#F3744A"/>
<path d="M33.079 6.5928L33.1729 5.70834L32.4689 6.26695L33.079 6.5928ZM33.5014 5.05664L33.6422 5.14974L33.7361 5.19629L33.3606 8.31515L33.2198 8.1755C33.2198 8.1755 33.2198 8.1755 33.1729 8.1755C33.1729 8.1755 33.1729 8.1755 33.126 8.1755C33.126 8.1755 33.126 8.1755 33.079 8.1755L32.9382 8.0824L33.126 6.8721L32.422 6.45315L31.4833 7.2445L31.3425 7.1514L31.2017 7.0583L33.5014 5.05664Z" fill="#F3744A"/>
<path d="M35.6605 6.40723L35.8013 6.50033V6.54688C35.8013 6.54688 35.8013 6.54688 35.8483 6.59343H35.8952C35.8952 6.59343 35.8952 6.59343 35.9421 6.59343L36.0829 6.68653L34.4402 8.73474L34.4872 8.78129L34.5341 8.82784L34.581 8.87439L34.628 8.92094C34.628 8.92094 34.628 8.92094 34.6749 8.92094C34.7218 8.92094 34.6749 8.92094 34.7218 8.92094C34.7218 8.92094 34.7218 8.92094 34.7688 8.92094C34.7688 8.92094 34.7688 8.92094 34.8157 8.92094C34.8626 8.96749 34.9096 8.96749 34.9565 9.01404C35.0034 9.06059 35.0504 9.06059 35.0973 9.10714C35.1442 9.15369 35.1912 9.15369 35.1912 9.20024C35.2381 9.20024 35.2381 9.24679 35.285 9.24679L35.4258 9.33989C35.4258 9.33989 35.4258 9.33989 35.3789 9.33989L35.0034 9.57264L33.8301 8.64164L35.6605 6.40723Z" fill="#F3744A"/>
<path d="M39.04 9.94467L37.2096 11.4808C37.2096 11.5274 37.2565 11.5274 37.2565 11.5739C37.2565 11.6205 37.3034 11.6205 37.3034 11.667C37.4442 11.8067 37.5851 11.9463 37.7259 12.0394C37.8667 12.1325 38.0075 12.1791 38.1483 12.1791C38.2891 12.1791 38.4299 12.1791 38.6176 12.1325C38.8053 12.086 38.9461 11.9929 39.1339 11.8532C39.2747 11.7601 39.3686 11.6205 39.4624 11.5274C39.5094 11.4343 39.5563 11.2946 39.5563 11.2015C39.5563 11.1084 39.5563 10.9688 39.5094 10.8757C39.4624 10.7826 39.4155 10.6895 39.3686 10.5964C39.3686 10.5964 39.3686 10.5964 39.3686 10.5498C39.3686 10.5498 39.3686 10.5498 39.3686 10.5033V10.4567C39.3686 10.4567 39.3686 10.4567 39.3686 10.4102L39.3216 10.3636L39.2747 10.3171C39.2747 10.3171 39.2278 10.3171 39.2278 10.2705C39.2278 10.2705 39.2277 10.2705 39.1808 10.224C39.0869 9.99122 39.0869 9.99122 39.04 9.94467ZM39.744 10.5033C39.8848 10.6895 39.9787 10.8291 40.0256 11.0153C40.0726 11.155 40.0726 11.3412 40.0256 11.4808C39.9787 11.6205 39.9318 11.7601 39.8379 11.8998C39.744 12.0394 39.6502 12.1325 39.5094 12.2722C39.4624 12.3187 39.4624 12.3187 39.4155 12.3653C39.3686 12.4118 39.3216 12.4118 39.2747 12.4584C39.2278 12.5049 39.1808 12.5049 39.1339 12.5515C39.0869 12.5515 39.04 12.598 38.9931 12.598C38.8992 12.6446 38.7584 12.6446 38.6645 12.6911C38.5237 12.6911 38.4299 12.6911 38.2891 12.6911C38.1483 12.6911 38.0544 12.6446 37.9136 12.5515C37.7728 12.4584 37.6789 12.3653 37.5381 12.2256L37.4442 12.086L36.7402 11.2015L38.8992 9.43262L38.9931 9.57227L39.744 10.5033Z" fill="#F3744A"/>
<path d="M41.0107 12.1318L41.1046 12.2715L41.8555 13.4352H41.8086C41.8086 13.4352 41.8086 13.4352 41.7617 13.4352C41.7617 13.4352 41.7617 13.4352 41.7147 13.4352H41.527C41.527 13.3887 41.4801 13.3421 41.4801 13.3421C41.4801 13.2956 41.4331 13.249 41.4331 13.249C41.4331 13.2025 41.3862 13.1559 41.3862 13.1559C41.3862 13.1094 41.3393 13.0628 41.3393 13.0628C41.3393 13.0628 41.3393 13.0628 41.3393 13.0163C41.3393 13.0163 41.3393 13.0163 41.3393 12.9697C41.3393 12.9697 41.3393 12.9697 41.3393 12.9232C41.3393 12.9232 41.3393 12.9232 41.3393 12.8766C41.3393 12.8766 41.3393 12.8766 41.3393 12.8301C41.3393 12.8301 41.3393 12.8301 41.3393 12.7835L41.2923 12.737L41.2454 12.6904L40.4475 13.2025L40.6822 13.5749L40.9169 13.8542L41.0107 13.9938C41.0107 13.9938 41.0107 13.9938 40.9638 13.9938C40.9638 13.9938 40.9638 13.9938 40.9169 13.9938C40.9169 13.9938 40.9169 13.9938 40.8699 13.9938C40.8699 13.9938 40.8699 13.9938 40.823 13.9938C40.823 13.9938 40.823 13.9938 40.823 14.0404C40.823 14.0404 40.823 14.0404 40.776 14.0869L40.6822 13.9473L40.4475 13.5283L40.119 13.3421L39.1803 13.9473V13.9938C39.1803 13.9938 39.1803 14.0404 39.2272 14.0404C39.2272 14.0404 39.2272 14.0869 39.2742 14.0869C39.2742 14.0869 39.2742 14.1335 39.3211 14.1335C39.3211 14.1335 39.3211 14.1335 39.3211 14.18C39.3211 14.18 39.3211 14.18 39.3211 14.2266C39.3211 14.2266 39.3211 14.2266 39.3211 14.2731C39.368 14.3197 39.368 14.3662 39.415 14.4128C39.4619 14.4593 39.4619 14.5059 39.5088 14.5524C39.5558 14.599 39.5558 14.599 39.6027 14.6455C39.6496 14.6455 39.6496 14.6921 39.6966 14.6921L39.7904 14.8317H39.7435H39.6966C39.6966 14.8317 39.6966 14.8317 39.6496 14.8317C39.6496 14.8317 39.6496 14.8317 39.6027 14.8317C39.6027 14.8317 39.6027 14.8317 39.5558 14.8317C39.5558 14.8317 39.5558 14.8317 39.5088 14.8317L39.415 14.6921L38.7109 13.668L41.0107 12.1318Z" fill="#F3744A"/>
<path d="M43.0291 15.5299C43.0291 15.5765 43.076 15.5765 43.0291 15.5299C43.076 15.5765 43.076 15.5765 43.0291 15.5299C43.0291 15.5765 43.0291 15.5765 43.0291 15.5299C43.0291 15.5765 43.0291 15.6231 43.076 15.6231C43.076 15.6231 43.076 15.623 43.123 15.6696L43.2168 15.8093L40.7293 17.0661L40.6354 16.9265C40.6354 16.9265 40.6354 16.9265 40.6354 16.8799V16.8334C40.6354 16.8334 40.6354 16.7868 40.5885 16.7868C40.5885 16.7868 40.5885 16.7868 40.5885 16.7403L40.4946 16.6006L42.9821 15.3438L43.0291 15.5299Z" fill="#F3744A"/>
<path d="M43.7331 16.8804L43.7801 17.02L43.8739 17.2062L42.7475 19.4872L44.531 18.7424L44.5779 18.882C44.5779 18.882 44.5779 18.882 44.5779 18.9286C44.5779 18.9286 44.5779 18.9286 44.5779 18.9751L44.6249 19.1148L42.0435 20.1854L41.9966 20.0458V19.8596L43.1699 17.5321L41.3395 18.2769L41.2925 18.1372L41.2456 17.9976L43.7331 16.8804Z" fill="#F3744A"/>
<path d="M44.2496 20.4648C44.4374 20.4648 44.5782 20.5114 44.672 20.5579C44.8128 20.6045 44.9067 20.6976 45.0006 20.7441C45.0944 20.8372 45.1883 20.8838 45.2353 20.9769C45.2822 21.0234 45.2822 21.07 45.3291 21.1165C45.3761 21.1631 45.3761 21.2096 45.423 21.2562C45.423 21.3027 45.4699 21.3493 45.4699 21.3958C45.4699 21.4424 45.5169 21.4889 45.5169 21.5355L45.5638 21.6751C45.5638 21.7682 45.6107 21.8148 45.6107 21.9079C45.6107 22.001 45.6577 22.0941 45.6577 22.1407C45.6577 22.2338 45.6577 22.3269 45.6577 22.42C45.6577 22.5131 45.6577 22.6062 45.6107 22.6993L45.2353 22.6527L45.1883 22.5131V22.4665C45.1883 22.4665 45.1883 22.42 45.2353 22.42C45.2353 22.42 45.2353 22.3734 45.2822 22.3734C45.2822 22.3734 45.2822 22.3269 45.3291 22.3269C45.3291 22.2803 45.3761 22.2337 45.3761 22.1872C45.3761 22.1406 45.3761 22.0941 45.423 22.001C45.423 21.9544 45.423 21.9079 45.423 21.8613C45.423 21.8148 45.423 21.7682 45.3761 21.6751V21.6286V21.582C45.3761 21.5355 45.3761 21.5355 45.3291 21.4889C45.3291 21.4424 45.2822 21.4424 45.2822 21.3958C45.2353 21.3027 45.1414 21.2562 45.0945 21.1631C45.0006 21.1165 44.9067 21.0234 44.8128 20.9769C44.719 20.9303 44.5782 20.8838 44.4374 20.8838C44.2966 20.8838 44.1558 20.8838 43.968 20.9303C43.7803 20.9769 43.5926 21.07 43.4518 21.1631C43.3109 21.2562 43.2171 21.3493 43.1232 21.4889C43.0293 21.6286 42.9824 21.7217 42.9824 21.8613C42.9824 22.001 42.9824 22.1406 42.9824 22.2803C42.9824 22.3269 43.0293 22.3734 43.0293 22.42C43.0293 22.4665 43.0763 22.5131 43.0763 22.5596C43.1232 22.6062 43.1232 22.6527 43.1701 22.6993C43.2171 22.7458 43.2171 22.7458 43.264 22.7924L44.2966 22.5131L44.3435 22.6527V22.6993V22.7458V23.0717L43.2171 23.3975C43.2171 23.3975 43.2171 23.3975 43.1701 23.351C43.1701 23.351 43.1701 23.3044 43.1232 23.3044L43.0763 23.2579C43.0763 23.2579 43.0763 23.2113 43.0293 23.2113C43.0293 23.1648 42.9824 23.1182 42.9824 23.0717C42.9824 23.0251 42.9355 22.9786 42.9355 22.932C42.9355 22.8855 42.8885 22.8389 42.8885 22.7924C42.8885 22.7458 42.8416 22.6993 42.8416 22.6527C42.8416 22.6062 42.7947 22.5596 42.7947 22.5596C42.7947 22.5131 42.7947 22.5131 42.7477 22.4665L42.7008 22.3269C42.6539 22.1407 42.6069 21.9079 42.6069 21.7217C42.6069 21.5355 42.6539 21.3493 42.7477 21.2096C42.8416 21.07 42.9355 20.9303 43.1232 20.7907C43.264 20.6976 43.4517 20.6045 43.6395 20.5579C43.8742 20.5114 44.0619 20.4648 44.2496 20.4648Z" fill="#F3744A"/>
<path d="M45.9862 23.7715L46.0331 23.9111L46.3147 25.2611H46.2678C46.2678 25.2611 46.2678 25.2611 46.2208 25.2611H46.1739C46.1739 25.2611 46.1739 25.2611 46.127 25.2611L46.08 25.1214C46.08 25.0749 46.08 25.0283 46.08 25.0283C46.08 24.9818 46.08 24.9352 46.08 24.8887C46.08 24.8421 46.08 24.7956 46.08 24.749C46.08 24.7025 46.08 24.6559 46.08 24.6094C46.08 24.6094 46.08 24.6094 46.08 24.5628C46.08 24.5628 46.08 24.5628 46.08 24.5163C46.08 24.5163 46.08 24.5163 46.08 24.4697C46.08 24.4697 46.08 24.4697 46.08 24.4232C46.08 24.4232 46.08 24.4232 46.08 24.3766V24.3301C46.08 24.3301 46.08 24.3301 46.08 24.2835C46.08 24.2835 46.08 24.2835 46.08 24.237V24.1904V24.1439L45.1414 24.3301L45.2352 24.749L45.3291 25.0749L45.376 25.2145H45.3291C45.3291 25.2145 45.3291 25.2145 45.2822 25.2145C45.2822 25.2145 45.2822 25.2145 45.2352 25.2145C45.2352 25.2145 45.2352 25.2145 45.1883 25.2145C45.1883 25.2145 45.1883 25.2145 45.1414 25.2145C45.1414 25.2145 45.1414 25.2145 45.0944 25.2145L45.0475 25.0749L45.0006 24.6094L44.9536 24.2835L43.8272 24.5163V24.5628V24.6094V24.6559V24.7025V24.749C43.8272 24.749 43.8272 24.749 43.8272 24.7956C43.8272 24.7956 43.8272 24.7956 43.8272 24.8421C43.8272 24.8421 43.8272 24.8421 43.8272 24.8887C43.8272 24.9352 43.8741 24.9818 43.8741 25.0283C43.8741 25.0749 43.9211 25.1214 43.9211 25.168C43.9211 25.2145 43.968 25.2611 43.968 25.3076C43.968 25.3542 43.968 25.4007 44.0149 25.4007L44.0619 25.5404H44.0149H43.968C43.968 25.5404 43.968 25.5404 43.9211 25.5404C43.9211 25.5404 43.9211 25.5404 43.8741 25.5404C43.8741 25.5404 43.8741 25.5404 43.8272 25.5404C43.8272 25.5404 43.8272 25.5404 43.7803 25.5404C43.7803 25.5404 43.7803 25.5404 43.7333 25.5404L43.6864 25.4007L43.4048 24.0042L45.9862 23.7715Z" fill="#F3744A"/>
<path d="M46.5025 26.2827V26.4224V26.6086L44.719 28.4706L46.6433 28.2844V28.424C46.6433 28.424 46.6433 28.424 46.6433 28.4706V28.6102L43.8741 28.8895V28.7499V28.6102L45.7515 26.7482L43.7803 26.9344V26.7948V26.6551L46.5025 26.2827Z" fill="#F3744A"/>
<path d="M46.7843 30.1008C46.7373 30.1008 46.7373 30.1008 46.7843 30.1008C46.7373 30.1008 46.7373 30.1008 46.7843 30.1008C46.7843 30.1473 46.7843 30.1473 46.7843 30.1008V30.1939V30.2404V30.3801L44.0151 30.4266V30.287C44.0151 30.287 44.0151 30.287 44.0151 30.2404V30.1939V30.1473V30.1008V29.9611L46.7843 29.9146V30.1008C46.7843 30.0542 46.7843 30.0542 46.7843 30.1008Z" fill="#F3744A"/>
<path d="M46.737 31.451V31.5907V32.9872H46.69C46.69 32.9872 46.69 32.9872 46.6431 32.9872H46.5962C46.5962 32.9872 46.5962 32.9872 46.5492 32.9872V32.8475C46.5492 32.801 46.5492 32.7544 46.5492 32.7544C46.5492 32.7079 46.5492 32.6613 46.5492 32.6148C46.5492 32.5682 46.5492 32.5217 46.5492 32.4751C46.5492 32.4286 46.5492 32.382 46.5492 32.3355C46.5492 32.3355 46.5492 32.3355 46.5492 32.2889C46.5492 32.2889 46.5492 32.2889 46.5492 32.2424C46.5492 32.2424 46.5492 32.2424 46.5492 32.1958C46.5492 32.1958 46.5492 32.1958 46.5492 32.1493C46.5492 32.1493 46.5492 32.1493 46.5492 32.1027V32.0562C46.5492 32.0562 46.5492 32.0562 46.5492 32.0096C46.5492 31.9631 46.5492 32.0096 46.5492 31.9631V31.9165V31.87H45.5636V32.2889L45.6105 32.6613V32.801H45.5636C45.5636 32.801 45.5636 32.801 45.5167 32.801C45.5167 32.801 45.5167 32.801 45.4697 32.801C45.4697 32.801 45.4697 32.801 45.4228 32.801C45.4228 32.801 45.4228 32.801 45.3759 32.801H45.3289V32.6613L45.3759 32.1958V31.87H44.2494V31.9165V31.9631V32.0096V32.0562V32.1027C44.2494 32.1027 44.2494 32.1027 44.2494 32.1493C44.2494 32.1493 44.2494 32.1493 44.2494 32.1958C44.2494 32.1958 44.2494 32.1958 44.2494 32.2424C44.2494 32.2889 44.2494 32.3355 44.2494 32.382C44.2494 32.4286 44.2494 32.4751 44.2494 32.5217C44.2494 32.5682 44.2494 32.6148 44.2494 32.6613C44.2494 32.7079 44.2494 32.7544 44.2494 32.7544V32.8941H44.2025H44.1556C44.1556 32.8941 44.1556 32.8941 44.1086 32.8941C44.0617 32.8941 44.1086 32.8941 44.0617 32.8941C44.0148 32.8941 44.0617 32.8941 44.0148 32.8941C43.9678 32.8941 44.0148 32.8941 43.9678 32.8941C43.9678 32.8941 43.9678 32.8941 43.9209 32.8941V32.7544V31.3579L46.737 31.451Z" fill="#F3744A"/>
<path d="M45.3761 34.3851C45.3761 34.4317 45.3761 34.4317 45.3761 34.3851C45.3761 34.5248 45.3761 34.5713 45.3761 34.6644C45.3761 34.7575 45.423 34.8041 45.423 34.8506C45.47 34.8972 45.47 34.9437 45.5169 34.9903C45.5638 35.0368 45.6108 35.0834 45.6108 35.0834C45.6577 35.0834 45.6577 35.1299 45.7046 35.1299C45.7516 35.1299 45.7516 35.1299 45.7985 35.1765C45.8454 35.1765 45.8454 35.1765 45.8924 35.1765H45.9393H45.9862H46.0332H46.0801C46.0801 35.1765 46.127 35.1765 46.174 35.1299C46.2209 35.1299 46.2679 35.0834 46.2679 35.0834C46.2679 35.0834 46.3148 35.0368 46.3617 34.9903C46.4087 34.9437 46.4087 34.8972 46.4556 34.8506C46.4556 34.8041 46.5025 34.711 46.5025 34.6179V34.4317L45.3761 34.3851C45.423 34.3851 45.423 34.3851 45.3761 34.3851ZM46.7372 33.9661V34.1058L46.6433 35.0368C46.6433 35.1765 46.5964 35.2696 46.5495 35.3627C46.5025 35.4558 46.4556 35.5489 46.4087 35.5954C46.3617 35.642 46.2679 35.6885 46.174 35.7351C46.0801 35.7351 45.9862 35.7816 45.8924 35.7351C45.7985 35.7351 45.7046 35.6885 45.6577 35.6885C45.5638 35.642 45.5169 35.5954 45.47 35.5489C45.423 35.5023 45.3761 35.4558 45.3292 35.3627C45.2822 35.3161 45.2822 35.223 45.2353 35.1765C45.2353 35.1299 45.2353 35.1299 45.1884 35.0834C45.1884 35.0368 45.1884 35.0368 45.1884 34.9903C45.1884 34.9437 45.1884 34.9437 45.1884 34.8972C45.1884 34.8506 45.1884 34.8506 45.1884 34.8041L43.7334 35.7351V35.5954C43.7334 35.5954 43.7334 35.5954 43.7334 35.5489C43.7334 35.5023 43.7334 35.5489 43.7334 35.5023C43.7334 35.5023 43.7334 35.5023 43.7334 35.4558C43.7334 35.4558 43.7334 35.4558 43.7334 35.4092V35.3627V35.3161V35.1765L45.0945 34.3385L43.8273 34.2455V34.1058V34.0592V34.0127V33.873L46.7372 33.9661Z" fill="#F3744A"/>
<path d="M46.3614 37.1296C46.3614 37.1761 46.3614 37.1761 46.3614 37.1296C46.3614 37.1761 46.3614 37.1761 46.3614 37.1296V37.2227V37.2692V37.4089L43.5923 36.9899L43.6392 36.8503C43.6392 36.8503 43.6392 36.8503 43.6392 36.8037V36.7572V36.7106V36.6641L43.6862 36.5244L46.4553 36.9434L46.3614 37.1296C46.4083 37.1296 46.4083 37.1296 46.3614 37.1296Z" fill="#F3744A"/>
<path d="M44.437 39.4569L45.2818 39.3172L44.5778 38.8517L44.437 39.4569ZM45.9858 39.4569L45.9389 39.5965V39.6896L42.9351 40.2017L42.982 40.062C42.982 40.062 42.982 40.062 42.982 40.0155C42.982 40.0155 42.982 40.0155 42.982 39.9689C42.982 39.9689 42.982 39.9689 42.982 39.9224C42.982 39.9224 42.982 39.9224 42.982 39.8758L43.0289 39.7362L44.2023 39.55L44.39 38.8052L43.4044 38.1069L43.4513 37.9673L43.4983 37.8276L45.9858 39.4569Z" fill="#F3744A"/>
<path d="M10.3632 44.8101L10.4571 44.9497V44.9963V45.0428C10.4571 45.0428 10.4571 45.0428 10.504 45.0894L10.5979 45.229L8.34502 46.4393V46.4859C8.34502 46.4859 8.34502 46.5324 8.39196 46.5324C8.39196 46.5324 8.39196 46.579 8.43889 46.579C8.43889 46.579 8.43889 46.6255 8.48583 46.6255C8.48583 46.6255 8.48583 46.6255 8.48583 46.6721C8.48583 46.6721 8.48583 46.6721 8.48583 46.7186C8.48583 46.7186 8.48583 46.7186 8.48583 46.7652C8.48583 46.7652 8.48583 46.7652 8.48583 46.8117C8.53276 46.8583 8.53276 46.9048 8.57969 46.9514C8.62663 46.9979 8.62663 47.0445 8.67356 47.091C8.7205 47.1376 8.7205 47.1841 8.76743 47.1841C8.76743 47.2307 8.81437 47.2307 8.81437 47.2772L8.90823 47.4169C8.90823 47.4169 8.90823 47.4169 8.8613 47.4169L8.76743 47.2772L8.11035 46.1135L10.3632 44.8101Z" fill="#F3744A"/>
<path d="M11.6304 46.9523C11.6304 46.9989 11.6304 46.9989 11.6304 46.9523C11.6304 46.9989 11.6304 46.9989 11.6304 46.9523C11.6304 46.9989 11.6304 46.9989 11.6773 47.0454C11.6773 47.0454 11.6773 47.0454 11.7243 47.092L11.8181 47.2316L9.51836 48.7678L9.42449 48.6281C9.42449 48.6281 9.42449 48.6281 9.42449 48.5816V48.535C9.42449 48.535 9.42449 48.535 9.37756 48.4885C9.37756 48.4885 9.37756 48.4885 9.37756 48.4419L9.28369 48.3023L11.5365 46.7661L11.6304 46.9523C11.5835 46.9058 11.5835 46.9523 11.6304 46.9523Z" fill="#F3744A"/>
<path d="M12.3343 48.0234L12.4751 48.1631L12.569 48.2562L11.7242 50.2578L13.8362 49.6992L13.9301 49.7923L14.024 49.8854L12.0997 51.9337L12.0058 51.8406C12.0058 51.8406 12.0058 51.8406 11.9589 51.794V51.7475C11.9589 51.7475 11.9119 51.7475 11.9119 51.7009L11.865 51.6544L11.7711 51.5613L13.0383 50.2578L11.161 50.7699L11.0671 50.6768L11.0202 50.6302L11.7711 48.9079L10.3162 49.932L10.2223 49.8389C10.2223 49.8389 10.2223 49.8389 10.2223 49.7923L10.1284 49.6992L12.3343 48.0234Z" fill="#F3744A"/>
<path d="M14.7279 52.4439L14.9626 51.6525L14.2116 52.0715L14.7279 52.4439ZM15.385 51.0474L15.5258 51.1405L15.5727 51.187L14.7279 54.0731L14.5871 53.98C14.5871 53.98 14.5871 53.98 14.5402 53.98L14.3994 53.8869L14.7748 52.7697L14.1647 52.3042L13.1791 52.9559L13.0383 52.8628L12.8975 52.7697L15.385 51.0474Z" fill="#F3744A"/>
<path d="M19.6089 53.7949C19.7028 53.7949 19.7497 53.7484 19.8436 53.7484C19.9375 53.7484 19.9844 53.7484 20.0313 53.7018C20.0783 53.7018 20.1721 53.6553 20.2191 53.6553L20.3599 53.7018L20.4537 53.7484L19.6559 56.3552L19.5151 56.3086H19.4681C19.4681 56.3086 19.4681 56.3086 19.4212 56.3086H19.3743H19.3273L19.1865 56.2621L19.8905 54.0277L19.6089 54.1208L19.4681 54.0742C19.4681 54.0742 19.4681 54.0742 19.4681 54.0277C19.4681 53.7949 19.5151 53.7949 19.6089 53.7949Z" fill="#F3744A"/>
<path d="M22.3782 54.8657C22.3782 54.9588 22.3782 55.0054 22.3782 55.0519C22.3782 55.0985 22.4251 55.145 22.4251 55.1916C22.4721 55.2381 22.4721 55.2847 22.519 55.2847C22.5659 55.3312 22.6129 55.3312 22.6598 55.3312C22.7067 55.3312 22.7537 55.3312 22.8006 55.2847C22.8475 55.2847 22.8945 55.2381 22.8945 55.1916C22.9414 55.145 22.9414 55.0985 22.9883 55.0519C22.9883 55.0054 23.0353 54.9588 23.0353 54.8657C23.0353 54.8192 23.0353 54.7261 23.0353 54.6795C23.0353 54.633 22.9883 54.5399 22.9883 54.4933C22.9883 54.4468 22.9414 54.4002 22.8945 54.4002C22.8475 54.3537 22.8006 54.3537 22.7537 54.3537C22.7067 54.3537 22.6598 54.3537 22.6129 54.4002C22.5659 54.4002 22.519 54.4468 22.519 54.4933C22.4721 54.5399 22.4721 54.5864 22.4251 54.633C22.4251 54.7261 22.3782 54.7726 22.3782 54.8657ZM22.0966 56.1226C22.0966 56.2157 22.0966 56.3088 22.0966 56.4019C22.0966 56.495 22.1435 56.5415 22.1435 56.5881C22.1905 56.6346 22.1905 56.6812 22.2374 56.7277C22.2843 56.7743 22.3313 56.7743 22.4251 56.8208C22.4721 56.8208 22.519 56.8208 22.5659 56.7743C22.6129 56.7743 22.6598 56.7277 22.7067 56.6812C22.7537 56.6346 22.8006 56.5881 22.8006 56.5415C22.8475 56.495 22.8475 56.4484 22.8945 56.3553C22.8945 56.3553 22.8945 56.3553 22.8945 56.3088C22.8945 56.3088 22.8945 56.3088 22.8945 56.2622C22.8945 56.2157 22.8945 56.1226 22.8945 56.076C22.8945 56.0295 22.8475 55.9364 22.8475 55.8898C22.8006 55.8433 22.8006 55.7967 22.7537 55.7502C22.7067 55.7036 22.6598 55.7036 22.6129 55.6571C22.5659 55.6571 22.519 55.6571 22.4721 55.6571C22.4251 55.6571 22.3782 55.7036 22.3313 55.7502C22.2843 55.7967 22.2374 55.8433 22.2374 55.8898C22.2374 55.9364 22.1905 55.9829 22.1435 56.0295L22.0966 56.1226C22.0966 56.076 22.0966 56.076 22.0966 56.1226ZM22.0966 55.2847C22.0497 55.2381 22.0027 55.1916 22.0027 55.145C22.0027 55.0985 21.9558 55.0054 21.9558 54.9588C21.9558 54.9123 21.9558 54.8192 21.9558 54.7726C21.9558 54.6795 22.0027 54.633 22.0497 54.5864C22.0966 54.5399 22.1435 54.4468 22.1905 54.4002C22.2374 54.3537 22.3313 54.3071 22.4251 54.3071C22.519 54.3071 22.6129 54.3071 22.7537 54.3071H22.8945C23.0353 54.3071 23.1291 54.3537 23.1761 54.4002C23.2699 54.4468 23.3169 54.4933 23.3638 54.5864C23.4107 54.6795 23.4577 54.7261 23.4577 54.8192C23.4577 54.9123 23.5046 54.9588 23.4577 55.0519C23.4577 55.0985 23.4107 55.1916 23.4107 55.2381C23.3638 55.2847 23.3638 55.3312 23.3169 55.3778C23.2699 55.4243 23.223 55.4709 23.1761 55.5174C23.1291 55.564 23.0353 55.564 22.9883 55.564C23.0822 55.6105 23.1761 55.6105 23.223 55.6571C23.2699 55.7036 23.3638 55.7502 23.3638 55.8433C23.4107 55.9364 23.4107 55.9829 23.4577 56.076C23.4577 56.1691 23.4577 56.2157 23.4577 56.3088C23.4577 56.4019 23.4107 56.495 23.3638 56.5881C23.3169 56.6812 23.2699 56.7277 23.1761 56.8208C23.0822 56.9139 22.9883 56.9605 22.8945 56.9605C22.8006 57.007 22.6598 57.007 22.5659 56.9605H22.4251C22.2843 56.9605 22.1435 56.9139 22.0497 56.8674C21.9558 56.8208 21.8619 56.7277 21.815 56.6812C21.768 56.5881 21.7211 56.495 21.6742 56.4019C21.6742 56.3088 21.6272 56.2157 21.6742 56.1226C21.6742 56.0295 21.7211 55.9829 21.768 55.8898C21.815 55.7967 21.8619 55.7502 21.9089 55.6571C21.9558 55.564 22.0497 55.5174 22.0966 55.5174C22.1905 55.4709 22.2374 55.4709 22.3313 55.4709C22.1905 55.3312 22.1435 55.3312 22.0966 55.2847Z" fill="#F3744A"/>
<path d="M26.3675 54.401V54.5407C26.3206 54.6338 26.2737 54.7269 26.2267 54.82C26.1798 54.9131 26.1329 55.0062 26.039 55.1458C25.9921 55.1924 25.9921 55.2389 25.9451 55.2855C25.8982 55.332 25.8982 55.3786 25.8513 55.4251C25.8043 55.4717 25.8043 55.5183 25.7574 55.5648C25.7105 55.6114 25.7105 55.6579 25.6635 55.7044C25.6166 55.7975 25.5697 55.8907 25.5227 56.0303C25.4758 56.1234 25.4289 56.2165 25.3819 56.3562C25.335 56.4027 25.335 56.4493 25.2881 56.4958C25.2411 56.5424 25.2411 56.5889 25.1942 56.6355C25.1473 56.682 25.1473 56.7286 25.1003 56.7751C25.0534 56.8217 25.0534 56.8682 25.0065 56.9148H24.8656H24.8187H24.7718C24.7718 56.9148 24.7718 56.9148 24.7248 56.9148C24.7248 56.9148 24.7248 56.9148 24.6779 56.9148C24.6779 56.9148 24.6779 56.9148 24.631 56.9148C24.631 56.9148 24.631 56.9148 24.584 56.9148H24.5371L25.8513 54.5407L24.6779 54.6338H24.5371C24.5371 54.6338 24.5371 54.6338 24.5371 54.5872C24.5371 54.5872 24.5371 54.5872 24.5371 54.5407V54.4941V54.4476V54.401V54.3545H24.6779L26.3675 54.401Z" fill="#F3744A"/>
<path d="M28.0105 56.0757C28.0105 56.0757 28.0105 56.1223 28.0105 56.0757C28.0105 56.1223 28.0105 56.1223 28.0105 56.0757C28.0105 56.1223 28.0105 56.1223 28.0105 56.1688C28.0105 56.1688 28.0105 56.1688 28.0105 56.2154V56.2619V56.3085C28.0105 56.355 28.0575 56.4481 28.1044 56.4947C28.1513 56.5412 28.1983 56.5878 28.2452 56.6343C28.2921 56.6809 28.3391 56.6809 28.386 56.7274C28.4329 56.7274 28.4799 56.774 28.5268 56.774C28.5737 56.774 28.6207 56.7274 28.6676 56.6809C28.7145 56.6343 28.7145 56.5878 28.7615 56.5412C28.8084 56.4947 28.8084 56.4481 28.8084 56.355C28.8084 56.3085 28.8554 56.2154 28.8554 56.1688C28.8554 56.1688 28.8554 56.1688 28.8554 56.1223C28.8554 56.1223 28.8554 56.1223 28.8554 56.0757C28.8554 56.0757 28.8554 56.0757 28.8554 56.0292C28.8554 56.0292 28.8554 56.0292 28.8554 55.9826V55.9361V55.8895C28.8554 55.7964 28.8084 55.7033 28.7615 55.6568C28.7145 55.5637 28.6676 55.5171 28.6207 55.4706C28.5737 55.424 28.5268 55.424 28.4799 55.3775C28.4329 55.3775 28.386 55.3309 28.3391 55.3309C28.2921 55.3309 28.2452 55.3775 28.1983 55.424C28.1513 55.4706 28.1044 55.5171 28.1044 55.5637C28.0575 55.6102 28.0575 55.7033 28.0105 55.7499C27.9636 55.9361 27.9636 55.9826 28.0105 56.0757ZM27.4004 55.1447C27.4473 54.9585 27.4943 54.7723 27.5881 54.6327C27.682 54.493 27.7759 54.3999 27.8697 54.3068C27.9636 54.2137 28.1044 54.1672 28.2452 54.1672L28.386 54.1206C28.386 54.1206 28.386 54.1206 28.4329 54.1206C28.4329 54.1206 28.4329 54.1206 28.4799 54.1206C28.4799 54.1206 28.4799 54.1206 28.5268 54.1206C28.5737 54.1206 28.5268 54.1206 28.5737 54.1206C28.5737 54.1206 28.5737 54.1206 28.6207 54.1206C28.6676 54.1206 28.6207 54.1206 28.6676 54.1206L28.7146 54.2603L28.5737 54.3068H28.5268H28.4799C28.386 54.3534 28.2921 54.3999 28.2452 54.4465C28.1983 54.5396 28.1044 54.5861 28.0575 54.7258C28.0105 54.8189 27.9636 54.9585 27.9636 55.0516C27.9636 55.1913 27.9636 55.3309 27.9636 55.4706C27.9636 55.4706 27.9636 55.4706 28.0105 55.4706C28.0575 55.424 28.1044 55.424 28.1513 55.3775C28.1983 55.3309 28.2452 55.3309 28.3391 55.3309L28.4799 55.2844C28.5737 55.2844 28.6676 55.2844 28.7615 55.2844C28.8554 55.2844 28.9492 55.3309 29.0431 55.3775C29.137 55.424 29.1839 55.5171 29.2308 55.5637C29.2778 55.6568 29.3247 55.7499 29.3247 55.8895C29.3247 55.9826 29.3247 56.1223 29.3247 56.2154C29.3247 56.3085 29.2778 56.4016 29.2308 56.4947C29.1839 56.5878 29.09 56.6809 28.9962 56.7274C28.9023 56.774 28.8084 56.8205 28.6676 56.8671L28.5268 56.9136C28.4329 56.9136 28.2921 56.9136 28.1983 56.9136C28.1044 56.8671 28.0105 56.8205 27.9167 56.774C27.8228 56.6809 27.7289 56.5878 27.682 56.4947C27.6351 56.355 27.5881 56.2154 27.5412 56.0292V55.9826C27.4004 55.6102 27.4004 55.3775 27.4004 55.1447Z" fill="#F3744A"/>
<path d="M35.4262 52.3529C35.52 52.3063 35.567 52.2598 35.6139 52.1667C35.6608 52.1201 35.6608 52.027 35.6608 51.9339C35.6608 51.8408 35.6608 51.7943 35.6608 51.7012C35.6608 51.6081 35.6139 51.5615 35.567 51.515C35.52 51.4684 35.4731 51.4219 35.4262 51.3753C35.3792 51.3288 35.3323 51.3288 35.2384 51.2822C35.1915 51.2822 35.0976 51.2822 35.0507 51.2822C35.0037 51.2822 34.9099 51.3288 34.8629 51.3753L35.0037 51.2822L34.8629 51.3753L34.6283 51.515L35.3323 52.446L35.4262 52.3529ZM34.9099 51.0495C35.0037 50.9564 35.0976 50.9098 35.1915 50.9098C35.2854 50.8633 35.3792 50.8633 35.4731 50.8633C35.567 50.8633 35.6139 50.9098 35.7078 50.9564C35.8016 51.0029 35.8486 51.0495 35.8955 51.1426C35.9894 51.2357 36.0363 51.3288 36.0363 51.4219C36.0832 51.515 36.0832 51.6081 36.0363 51.7012C36.0363 51.7943 35.9894 51.8874 35.9424 51.9339C35.8955 52.027 35.8486 52.0736 35.8016 52.1667C35.8016 52.2132 35.7547 52.2132 35.7547 52.2598L35.7078 52.3063L35.6608 52.3529L35.6139 52.3994L35.4731 52.4925L35.4262 52.5391C35.4262 52.5391 35.3792 52.5391 35.3792 52.5856L36.1302 53.5632L35.9894 53.6563C35.9894 53.6563 35.9424 53.6563 35.9424 53.7028C35.9424 53.7028 35.9424 53.7028 35.8955 53.7028C35.8955 53.7028 35.8955 53.7028 35.8486 53.7494C35.8486 53.7494 35.8016 53.7494 35.8016 53.7959L35.6608 53.889L33.9712 51.7012L34.112 51.6081L34.9099 51.0495Z" fill="#F3744A"/>
<path d="M35.9888 50.2113L36.0826 50.1182L37.0683 49.1406C37.0683 49.1406 37.0683 49.1406 37.0683 49.1872C37.0683 49.1872 37.0683 49.1872 37.0683 49.2337C37.0683 49.2337 37.0683 49.2337 37.1152 49.2803C37.1152 49.2803 37.1152 49.2803 37.1621 49.2803L37.0683 49.3734C37.0213 49.3734 37.0213 49.4199 36.9744 49.4199C36.9275 49.4199 36.9275 49.4665 36.8805 49.513C36.8336 49.5596 36.8336 49.5596 36.7867 49.6061C36.7397 49.6527 36.7397 49.6527 36.6928 49.6992C36.6928 49.6992 36.6928 49.6992 36.6459 49.7458C36.6459 49.7458 36.6459 49.7458 36.6459 49.7923C36.6459 49.8389 36.6459 49.7923 36.6459 49.7923L36.5989 49.8389L36.552 49.8854L37.256 50.5837L37.5376 50.3044L37.7723 50.0251L37.8661 49.932C37.8661 49.932 37.8661 49.932 37.8661 49.9785C37.8661 49.9785 37.8661 49.9785 37.8661 50.0251C37.8661 50.0251 37.8661 50.0251 37.8661 50.0716C37.8661 50.0716 37.8661 50.0716 37.9131 50.0716C37.9131 50.0716 37.9131 50.0716 37.96 50.0716L37.8661 50.1647L37.5376 50.444L37.3029 50.6768L38.1008 51.4681C38.1008 51.4681 38.1477 51.4681 38.1477 51.4216L38.1947 51.375L38.2416 51.3285L38.2885 51.2819C38.2885 51.2819 38.2885 51.2819 38.3355 51.2819C38.3355 51.2819 38.3355 51.2819 38.3355 51.2354C38.3824 51.1888 38.3824 51.1423 38.4294 51.1423C38.4763 51.0957 38.4763 51.0492 38.5232 51.0492C38.5702 51.0026 38.5702 51.0026 38.6171 50.9561C38.664 50.9095 38.664 50.9095 38.664 50.863L38.7579 50.7699C38.7579 50.7699 38.7579 50.7699 38.7579 50.8164C38.7579 50.8164 38.7579 50.8164 38.7579 50.863C38.7579 50.863 38.7579 50.863 38.7579 50.9095C38.7579 50.9095 38.7579 50.9095 38.8048 50.9095C38.8048 50.9095 38.8048 50.9095 38.8518 50.9095L38.7579 51.0026L37.7723 51.9802L35.9888 50.2113Z" fill="#F3744A"/>
<path d="M38.8522 49.0007C38.8992 49.0007 38.8992 48.9541 38.8522 49.0007C38.9461 48.9076 38.9931 48.8145 38.9931 48.7679C39.04 48.7214 39.04 48.6283 39.04 48.5817C39.04 48.5352 39.04 48.4421 39.04 48.3955C39.04 48.349 39.04 48.3024 38.9931 48.2559C38.9931 48.2093 38.9461 48.2093 38.9461 48.1628C38.9461 48.1162 38.8992 48.1162 38.8992 48.1162L38.8522 48.0697L38.8053 48.0231C38.8053 48.0231 38.8053 48.0231 38.7584 47.9766C38.7114 47.93 38.7114 47.9766 38.7114 47.93C38.7114 47.93 38.6645 47.93 38.6645 47.8835C38.6645 47.8835 38.6176 47.8835 38.5706 47.8835C38.5237 47.8835 38.4768 47.8835 38.4298 47.8835C38.3829 47.8835 38.336 47.8835 38.289 47.93C38.2421 47.93 38.1952 47.9766 38.1482 48.0231C38.1013 48.0697 38.0544 48.1162 38.0074 48.1628L37.9136 48.3024L38.8522 49.0007ZM37.5381 48.5817L37.632 48.4421L38.1952 47.7438C38.289 47.6507 38.3829 47.5576 38.4298 47.5111C38.5237 47.4645 38.6176 47.418 38.6645 47.418C38.7584 47.418 38.8522 47.418 38.8992 47.4645C38.993 47.5111 39.04 47.5111 39.1339 47.6042C39.2277 47.6507 39.2747 47.6973 39.3216 47.7904C39.3685 47.8369 39.3685 47.93 39.4155 47.9766C39.4155 48.0697 39.4155 48.1162 39.4155 48.1628C39.4155 48.2093 39.4155 48.3024 39.3685 48.349C39.3685 48.3955 39.3685 48.3955 39.3216 48.4421C39.3216 48.4886 39.3216 48.4886 39.2747 48.5352C39.2747 48.5817 39.2747 48.5817 39.2277 48.6283L39.1808 48.6748L40.8704 48.7214L40.7766 48.861C40.7766 48.861 40.7766 48.9076 40.7296 48.9076C40.7296 48.9076 40.7296 48.9541 40.6827 48.9541L40.5888 49.0938L38.9931 49.0472L40.0256 49.8386L39.9317 49.9782V50.0248C39.9317 50.0248 39.9317 50.0713 39.8848 50.0713L39.7909 50.211L37.5381 48.5817Z" fill="#F3744A"/>
<path d="M39.1338 46.5331L39.2277 46.3934C39.2277 46.3934 39.2746 46.3934 39.2746 46.3469C39.2746 46.3469 39.2746 46.3469 39.3215 46.3003C39.3215 46.3003 39.3215 46.3003 39.3215 46.2538C39.3215 46.2538 39.3215 46.2538 39.3215 46.2072L39.4154 46.0676L40.8234 46.9055C40.9642 46.9986 41.105 47.0451 41.2458 47.0917C41.3866 47.1382 41.4805 47.1382 41.6213 47.0917C41.7152 47.0917 41.809 47.0451 41.856 46.9986C41.9498 46.952 41.9968 46.8589 42.0437 46.8124C42.0906 46.7193 42.1376 46.5796 42.1376 46.4865C42.1376 46.3934 42.1376 46.3003 42.0906 46.2072C42.0437 46.1141 41.9968 46.021 41.9029 45.9279C41.809 45.8348 41.7152 45.7417 41.5744 45.6486L40.1194 44.7642L40.2133 44.6245L40.3071 44.4849L41.6682 45.3228C41.809 45.4159 41.9498 45.509 42.0437 45.6486C42.1376 45.7417 42.2314 45.8814 42.2784 46.021C42.3253 46.1607 42.3723 46.3003 42.3253 46.44C42.2784 46.5796 42.2314 46.7658 42.1376 46.9055L42.0437 47.0451C41.9498 47.2313 41.809 47.371 41.7152 47.4641C41.5744 47.5572 41.4805 47.6037 41.3397 47.6037C41.1989 47.6037 41.0581 47.6037 40.9173 47.5572C40.7765 47.5106 40.6357 47.4641 40.5418 47.371L39.1338 46.5331Z" fill="#F3744A"/>
<path d="M9.37768 24.7481C9.33074 24.7015 9.28381 24.655 9.23688 24.6084C9.18994 24.5619 9.18994 24.5153 9.18994 24.4688C9.18994 24.4222 9.18994 24.3757 9.18994 24.3291V24.236C9.18994 24.1895 9.18994 24.1429 9.23688 24.1429C9.23688 24.0964 9.28381 24.0964 9.28381 24.0498C9.28381 24.0033 9.33074 24.0033 9.33074 23.9567C9.33074 23.9567 9.37768 23.9102 9.42461 23.9102C9.42461 23.9102 9.42461 23.9102 9.47155 23.9567C9.47155 23.9567 9.47155 23.9567 9.51848 24.0033H9.56542C9.56542 24.0033 9.61235 24.0033 9.61235 24.0498V24.1429V24.1895C9.61235 24.1895 9.61235 24.1895 9.56542 24.1895C9.56542 24.1895 9.56542 24.1895 9.51848 24.1895C9.51848 24.1895 9.47155 24.1895 9.47155 24.236L9.42461 24.2826L9.37768 24.3291C9.37768 24.3291 9.37768 24.3757 9.33074 24.3757C9.33074 24.4222 9.33074 24.4222 9.33074 24.4688C9.33074 24.5153 9.37768 24.5153 9.37768 24.5619C9.42461 24.6084 9.42461 24.6084 9.47155 24.655C9.51848 24.655 9.56542 24.7015 9.61235 24.7015C9.65928 24.7015 9.65928 24.7015 9.70622 24.7015C9.75315 24.7015 9.75315 24.7015 9.80009 24.655C9.84702 24.655 9.84702 24.6084 9.89396 24.6084C9.94089 24.6084 9.94089 24.5619 9.98782 24.5153L10.1756 24.2826C10.2225 24.236 10.2694 24.1895 10.2694 24.1895C10.3164 24.1429 10.3633 24.1429 10.4102 24.1429C10.4572 24.1429 10.5041 24.1429 10.551 24.1429C10.598 24.1429 10.6449 24.1429 10.6918 24.1429C10.7857 24.1429 10.8326 24.1895 10.8796 24.236C10.9265 24.2826 10.9734 24.3291 11.0673 24.3757C11.1142 24.4222 11.1612 24.5153 11.1612 24.5619C11.1612 24.6084 11.1612 24.7015 11.1612 24.7946V24.8877C11.1612 24.9343 11.1142 24.9343 11.1142 24.9808C11.1142 25.0274 11.0673 25.0274 11.0673 25.0739C11.0673 25.1205 11.0204 25.1205 11.0204 25.1205L10.9734 25.167C10.9734 25.167 10.9265 25.167 10.9265 25.1205H10.8796V25.0739V24.9808C10.9734 24.9343 11.0204 24.9343 11.0673 24.8877C11.1142 24.8412 11.1612 24.8412 11.1612 24.7946C11.1612 24.7946 11.1612 24.7481 11.2081 24.7481V24.7015C11.2081 24.655 11.2081 24.6084 11.2081 24.6084C11.2081 24.5619 11.1612 24.5619 11.1612 24.5153C11.1142 24.4688 11.0673 24.4688 11.0673 24.4222C11.0204 24.4222 10.9734 24.3757 10.9265 24.3757C10.8796 24.3757 10.8326 24.3757 10.8326 24.3757C10.7857 24.3757 10.7388 24.3757 10.7388 24.3757C10.6918 24.3757 10.6918 24.4222 10.6449 24.4222C10.598 24.4222 10.598 24.4688 10.551 24.5153L10.3633 24.7015C10.3164 24.7481 10.2694 24.7946 10.2225 24.8412C10.1756 24.8877 10.1286 24.8877 10.0817 24.8877C10.0348 24.8877 9.98782 24.8877 9.94089 24.8877C9.89396 24.8877 9.84702 24.8877 9.80009 24.8877C9.51848 24.7946 9.47155 24.7946 9.37768 24.7481Z" fill="#F3744A"/>
<path d="M10.0346 23.1185C9.94073 23.0254 9.84686 22.9323 9.79992 22.8392C9.75299 22.7461 9.70605 22.6065 9.70605 22.5134C9.70605 22.4203 9.70605 22.2806 9.75299 22.141L9.79992 22.0479V22.0013V21.9548C9.79992 21.9082 9.84686 21.9082 9.84686 21.8617C9.84686 21.8151 9.89379 21.8151 9.89379 21.7686C9.89379 21.722 9.94073 21.722 9.94073 21.6755C9.94073 21.6755 9.98766 21.6289 10.0346 21.6289L10.2223 21.7686L10.1754 21.8617C10.1285 21.8617 10.0815 21.9082 10.0815 21.9082C10.0346 21.9082 10.0346 21.9548 9.98766 21.9548C9.94073 21.9548 9.94073 22.0013 9.89379 22.0479C9.89379 22.0944 9.84686 22.0944 9.84686 22.141C9.84686 22.141 9.84686 22.141 9.84686 22.1875C9.84686 22.2341 9.84686 22.3272 9.84686 22.4203C9.84686 22.5134 9.89379 22.5599 9.94073 22.653C9.98766 22.7461 10.0346 22.7927 10.1285 22.8858C10.2223 22.9323 10.3162 23.0254 10.457 23.072C10.5978 23.1185 10.7386 23.1651 10.8794 23.1651C11.0202 23.1651 11.1141 23.1651 11.2079 23.1185C11.3018 23.072 11.3488 23.0254 11.3957 22.9789C11.4426 22.9323 11.4896 22.8858 11.5365 22.7927C11.5365 22.7461 11.5365 22.6996 11.5834 22.653C11.5834 22.6065 11.5834 22.5599 11.5834 22.5134C11.5834 22.4668 11.5834 22.4203 11.5834 22.3737C11.5834 22.3272 11.5365 22.2806 11.5365 22.2341L11.5834 22.141L11.7242 22.2341V22.2806V22.3272V22.3737V22.4203V22.4668V22.5134C11.7242 22.5599 11.7242 22.5599 11.7242 22.5599V22.6065V22.653V22.6996L11.6773 22.7927C11.6304 22.8858 11.5834 22.9789 11.4896 23.072C11.3957 23.1651 11.3018 23.2116 11.2079 23.2582C11.1141 23.3047 10.9733 23.3047 10.8325 23.3047C10.6917 23.3047 10.5509 23.2582 10.4101 23.2116C10.2223 23.2582 10.1285 23.1651 10.0346 23.1185Z" fill="#F3744A"/>
<path d="M10.4102 20.6045C10.4571 20.6045 10.4571 20.5579 10.4102 20.6045C10.4571 20.5579 10.4571 20.5579 10.4102 20.6045C10.4571 20.5579 10.4571 20.5579 10.4102 20.6045C10.4571 20.5579 10.4571 20.5579 10.4102 20.6045C10.4571 20.5579 10.4571 20.5579 10.4102 20.6045L10.504 20.4648L12.2875 21.2562L12.2406 21.3493C12.2406 21.3493 12.2406 21.3493 12.2406 21.3959L12.1937 21.489L10.4102 20.6976V20.6045Z" fill="#F3744A"/>
<path d="M10.9263 19.5801L10.9732 19.487L11.3487 18.7422L11.3017 18.8353L11.2548 18.8818L11.2079 18.9284L11.1609 18.9749L11.114 19.0215V19.068C11.114 19.068 11.114 19.068 11.114 19.1146L11.7242 19.4404L11.865 19.2077L11.9588 19.0215L12.0058 18.9284C12.0058 18.9284 12.0058 18.9284 12.0527 18.9284C12.0527 18.9284 12.0527 18.9284 12.0996 18.9284L12.1935 19.3473L12.0058 19.5801L11.9119 19.7663L12.6159 20.1387C12.6159 20.1387 12.6159 20.1387 12.6159 20.0921C12.6159 20.0921 12.6159 20.0921 12.6159 20.0456C12.6159 20.0456 12.6159 20.0456 12.6159 19.999C12.6159 19.999 12.6159 19.999 12.6159 19.9525C12.6159 19.9059 12.6628 19.9059 12.6628 19.8594C12.6628 19.8128 12.6628 19.8128 12.7098 19.7663C12.7098 19.7197 12.7098 19.7197 12.7567 19.6732V19.6266L12.8036 19.5335L12.7567 19.6266L12.3812 20.3714L10.9263 19.5801Z" fill="#F3744A"/>
<path d="M11.8179 17.7186L11.8648 17.6255L11.9117 17.5324L13.6014 17.3928L12.475 16.6945L12.5219 16.6014L12.5688 16.5083L14.2115 17.5324L14.1646 17.6255L14.1177 17.7186L12.3811 17.8583L13.5544 18.6031L13.5075 18.6962L13.4606 18.7893L11.8179 17.7186Z" fill="#F3744A"/>
<path d="M13.5549 15.3914C13.5549 15.438 13.5079 15.438 13.5079 15.4845L13.461 15.5311V15.5776V15.6242C13.461 15.6242 13.461 15.6242 13.461 15.6707C13.461 15.6707 13.461 15.6707 13.461 15.7173L13.4141 15.8104L14.165 14.8328L14.2119 14.7397C14.2119 14.7397 14.2119 14.7397 14.2589 14.7397L14.2119 14.8328C14.165 14.8794 14.1181 14.9259 14.0711 14.9259C14.0242 14.9725 13.9773 15.019 13.9773 15.019L13.9303 15.0656L13.8834 15.1121L15.3384 16.2293L15.2914 16.3225C15.2914 16.3225 15.2914 16.3224 15.2914 16.369L15.2445 16.4621L13.5549 15.3914Z" fill="#F3744A"/>
<path d="M14.5869 13.9468C14.6338 13.9468 14.6338 13.9468 14.5869 13.9468C14.6338 13.9468 14.6338 13.9468 14.5869 13.9468C14.6338 13.9468 14.6338 13.9468 14.5869 13.9468C14.6338 13.9468 14.6338 13.9468 14.5869 13.9468C14.6338 13.9002 14.6338 13.9002 14.5869 13.9468L14.6808 13.8071L16.1357 15.1105L16.0888 15.1571L16.0419 15.2036L14.5869 13.9468Z" fill="#F3744A"/>
<path d="M16.6521 13.3895L16.1358 13.1567L16.4174 13.6688L16.6521 13.3895ZM15.7134 12.8309L15.8072 12.7378L17.7785 13.5291L17.7316 13.5757L17.5438 13.7619L16.7929 13.436L16.4643 13.7619L16.8867 14.4602L16.8398 14.5067L16.699 14.6464L15.7134 12.8309Z" fill="#F3744A"/>
<path d="M33.0323 11.8071L33.1262 11.8537L33.7832 12.3657L33.6894 12.3192L33.6424 12.2726L33.5955 12.2261L33.5486 12.1795L33.5016 12.133C33.5016 12.133 33.5016 12.133 33.4547 12.0864C33.4547 12.0864 33.4547 12.0864 33.4078 12.0399L32.9854 12.5519L33.1731 12.6916L33.3608 12.8312L33.4547 12.8778C33.4547 12.8778 33.4547 12.8778 33.4547 12.9243L33.3608 12.8778L33.1731 12.6916L33.0323 12.5519L32.1405 13.3433C32.1405 13.3433 32.1405 13.3433 32.1405 13.3898C32.1405 13.3898 32.1406 13.3898 32.1875 13.4364C32.1875 13.4364 32.1875 13.4364 32.2344 13.4829C32.2344 13.4829 32.2344 13.4829 32.2814 13.5295C32.3283 13.5295 32.3283 13.576 32.3752 13.576C32.4222 13.576 32.4222 13.6226 32.4691 13.6226C32.516 13.6226 32.516 13.6691 32.516 13.6691L32.563 13.7157L32.6568 13.7622L32.563 13.7157L31.812 13.2967L33.0323 11.8071Z" fill="#F3744A"/>
<path d="M34.8156 13.342C34.8156 13.2954 34.8156 13.2954 34.8156 13.342C34.7686 13.2954 34.7686 13.2954 34.7217 13.2954L34.6748 13.2489C34.6748 13.2489 34.6278 13.2489 34.6278 13.2023H34.5809C34.5809 13.2023 34.5809 13.2023 34.534 13.2023C34.534 13.2023 34.534 13.2023 34.487 13.2023L34.4401 13.1558L35.3318 14.0402L35.3788 14.0868L35.3318 14.0402C35.2849 13.9937 35.2849 13.9471 35.238 13.9006C35.191 13.854 35.191 13.8075 35.1441 13.7609L35.0972 13.7144L35.0502 13.6678L33.7361 14.9247L33.6891 14.8781L33.5483 14.5988L34.8156 13.342Z" fill="#F3744A"/>
<path d="M36.7398 15.2983L36.7867 15.3914C36.7867 15.3914 36.7867 15.3914 36.7867 15.438C36.7867 15.438 36.7867 15.438 36.7867 15.4845L36.8337 15.5776L35.4256 16.5552C35.4256 16.5552 35.4256 16.5552 35.4256 16.6017C35.4256 16.6017 35.4256 16.6017 35.4256 16.6483C35.4256 16.6483 35.4256 16.6483 35.4256 16.6948C35.4256 16.6948 35.4256 16.6948 35.4256 16.7414C35.4256 16.7879 35.4726 16.7879 35.4726 16.8345C35.4726 16.8345 35.5195 16.881 35.5195 16.9276L35.5665 16.9741L35.6134 17.0207L35.6603 17.1138L35.6134 17.0207L35.144 16.3224L36.7398 15.2983Z" fill="#F3744A"/>
<path d="M37.3032 17.9518L37.6787 17.4863L37.1154 17.626L37.3032 17.9518ZM38.1011 17.207L38.148 17.3001L38.1949 17.3467L36.9277 19.0225L36.8338 18.9294L36.7869 18.8363L37.3032 18.1846L37.0685 17.7656L36.2706 17.9984L36.2237 17.9053L36.1768 17.8122L38.1011 17.207Z" fill="#F3744A"/>
<path d="M38.2888 19.4413C38.3358 19.4878 38.3358 19.5344 38.3827 19.5809C38.4296 19.6275 38.4766 19.674 38.5235 19.674C38.5705 19.674 38.6174 19.7206 38.6643 19.7206C38.7113 19.7206 38.7582 19.7206 38.8521 19.674C38.899 19.674 38.9459 19.6275 38.9929 19.5809C39.0398 19.5344 39.0398 19.4878 39.0398 19.4413C39.0398 19.3947 39.0398 19.3482 39.0398 19.3016C39.0398 19.2551 39.0398 19.2085 38.9929 19.162L38.9459 19.0223L38.2888 19.4413ZM37.3971 19.9068C37.3971 19.9533 37.444 19.9999 37.491 20.0464C37.5379 20.093 37.5379 20.093 37.5848 20.1395C37.6318 20.1395 37.6787 20.1861 37.7256 20.1861C37.7726 20.1861 37.8195 20.1861 37.8664 20.1861C37.9603 20.1395 38.0072 20.093 38.0542 20.0464C38.1011 19.9999 38.148 19.9533 38.148 19.9068C38.148 19.8602 38.148 19.8137 38.148 19.7206C38.148 19.674 38.1011 19.5809 38.1011 19.4878L37.3032 19.8137L37.3971 19.9068ZM38.899 18.7896L38.9459 18.8827L39.1806 19.3482C39.1806 19.3947 39.2275 19.4413 39.2275 19.4878C39.2275 19.5344 39.2275 19.5809 39.2275 19.6275C39.2275 19.674 39.1806 19.7206 39.1806 19.7671C39.1337 19.8137 39.0867 19.8602 39.0398 19.8602C38.9929 19.8602 38.9459 19.9068 38.899 19.9068C38.8521 19.9068 38.8051 19.9068 38.7582 19.9068C38.7113 19.9068 38.6643 19.8602 38.6174 19.8602C38.5705 19.8137 38.5235 19.8137 38.5235 19.7671C38.5235 19.8137 38.5235 19.8602 38.5235 19.9068C38.5235 19.9533 38.5235 19.9999 38.5235 20.0464C38.5235 20.093 38.4766 20.1395 38.4296 20.1861C38.3827 20.2326 38.3358 20.2792 38.2419 20.2792C38.148 20.3257 38.0542 20.3257 38.0072 20.3257C37.9134 20.3257 37.8664 20.3257 37.8195 20.2792C37.7726 20.2326 37.7256 20.2326 37.6787 20.1861C37.6318 20.1395 37.5848 20.093 37.5848 20.0464L37.5379 19.9533L37.3502 19.5344L38.899 18.7896Z" fill="#F3744A"/>
<path d="M38.9932 21.2093C38.8524 21.2559 38.7116 21.3024 38.6177 21.349C38.5239 21.3955 38.43 21.4886 38.383 21.5817C38.3361 21.6748 38.2892 21.7214 38.2892 21.8145C38.2892 21.9076 38.2892 21.9541 38.2892 22.0472C38.3361 22.1403 38.383 22.1869 38.43 22.2334C38.4769 22.28 38.5708 22.3265 38.6647 22.3731C38.7585 22.4196 38.8524 22.4196 38.9932 22.4196C39.134 22.4196 39.2279 22.4196 39.3687 22.3731C39.4625 22.3265 39.6033 22.28 39.6972 22.2334C39.7911 22.1869 39.838 22.0938 39.9319 22.0007C39.9788 21.9076 40.0257 21.861 40.0257 21.7679C40.0257 21.6748 40.0257 21.5817 40.0257 21.5352C39.9788 21.4421 39.9788 21.3955 39.8849 21.349C39.838 21.3024 39.7911 21.2559 39.6972 21.2559C39.6033 21.2559 39.5564 21.2093 39.4625 21.2093C39.3687 21.2093 39.3217 21.2093 39.2279 21.2093C39.1809 21.2093 39.1809 21.2093 39.134 21.2093H39.0871H38.9932ZM38.8993 20.8835C38.8993 20.8835 38.9463 20.8835 38.8993 20.8835C38.9463 20.8835 38.9463 20.8835 38.8993 20.8835C38.9463 20.8835 38.9463 20.8835 38.9932 20.8835C39.0871 20.8369 39.2279 20.8369 39.3217 20.8369C39.4156 20.8369 39.5564 20.8835 39.6503 20.93C39.7441 20.9766 39.838 21.0231 39.9319 21.1162C40.0257 21.2093 40.0727 21.3024 40.1196 21.4421L40.1666 21.5352C40.2135 21.6748 40.2135 21.8145 40.2135 21.9076C40.2135 22.0007 40.1665 22.0938 40.1196 22.1869C40.0727 22.28 40.0257 22.3265 39.9319 22.4196C39.8849 22.4662 39.7911 22.5127 39.6972 22.5593C39.6972 22.5593 39.6972 22.5593 39.6503 22.5593C39.6503 22.5593 39.6503 22.5593 39.6033 22.5593C39.6033 22.5593 39.6033 22.5593 39.5564 22.5593C39.5564 22.5593 39.5564 22.5593 39.5095 22.5593C39.5095 22.5593 39.4625 22.5593 39.4625 22.6058H39.4156C39.2748 22.6524 39.134 22.6989 38.9932 22.6524C38.8524 22.6524 38.7585 22.6058 38.6177 22.5593C38.5239 22.5127 38.43 22.4196 38.3361 22.3265C38.2892 22.3265 38.2422 22.2334 38.2422 22.1403L38.1953 22.0472V22.0007V21.9541V21.9076V21.861C38.1953 21.7679 38.1953 21.7214 38.2422 21.6283C38.2892 21.5352 38.2892 21.4421 38.383 21.3955C38.43 21.3024 38.5239 21.2559 38.6177 21.1628C38.6177 20.9766 38.7585 20.93 38.8993 20.8835Z" fill="#F3744A"/>
<path d="M39.8376 23.8163C39.8376 23.9094 39.8845 23.9559 39.8845 24.0025C39.8845 24.049 39.9315 24.0956 39.9784 24.0956C40.0253 24.1421 40.0253 24.1421 40.0723 24.1887C40.1192 24.1887 40.1192 24.2352 40.1662 24.2352H40.2131H40.26H40.307H40.3539C40.3539 24.2352 40.3539 24.2352 40.4008 24.2352C40.4008 24.2352 40.4008 24.2352 40.4478 24.2352H40.4947C40.4947 24.2352 40.5416 24.2352 40.5416 24.1887L40.5886 24.1421C40.5886 24.0956 40.6355 24.0956 40.6355 24.049C40.6355 24.0025 40.6355 24.0025 40.6824 23.9559C40.6824 23.9094 40.6824 23.8628 40.6824 23.8163V23.7232L39.8376 23.8163ZM40.6824 23.3042V23.3973L40.8232 23.9559C40.8232 24.049 40.8232 24.0956 40.8232 24.1421C40.8232 24.1887 40.7763 24.2352 40.7763 24.2818C40.7294 24.3283 40.6824 24.3749 40.6355 24.3749C40.5886 24.4214 40.5416 24.4214 40.4478 24.4214C40.4008 24.4214 40.307 24.4214 40.26 24.4214C40.2131 24.4214 40.1662 24.4214 40.1192 24.3749C40.0723 24.3749 40.0253 24.3283 40.0253 24.2818C39.9784 24.2352 39.9784 24.2352 39.9315 24.1887C39.9315 24.1887 39.9315 24.1421 39.8845 24.1421C39.8845 24.1421 39.8845 24.0956 39.8376 24.0956V24.049V24.0025L39.0397 24.7938V24.7007C39.0397 24.7007 39.0397 24.7007 39.0397 24.6542C39.0397 24.6542 39.0397 24.6542 39.0397 24.6076V24.5145L39.7907 23.7697L38.8989 23.9559V23.8628C38.8989 23.8628 38.8989 23.8628 38.8989 23.8163C38.8989 23.8163 38.8989 23.8163 38.8989 23.7697V23.6766L40.6824 23.3042Z" fill="#F3744A"/>
<path d="M38.9935 46.1601C38.8047 46.3474 39.1823 46.0197 38.9935 46.1601V46.1601Z" fill="#F3744A"/>
<path d="M38.0069 29.6827C38.0069 29.543 38.4293 29.4034 38.5702 29.3103C38.711 29.4965 38.8518 29.543 38.8518 29.7758C38.8518 29.8689 38.3824 30.1482 38.3824 30.1482C38.2885 30.1482 38.0069 29.7292 38.0069 29.6827ZM30.2159 35.9669L29.9342 35.5014L37.256 30.2413L37.5376 30.7068L30.2159 35.9669ZM33.4074 42.1581C33.0319 43.8805 31.1545 45.789 31.1545 45.789L28.2915 42.2978L27.7753 42.7167V41.7392L33.1258 41.6461L30.7791 38.853L27.5875 38.8996L27.3059 31.7309L22.6594 31.7774L22.7533 38.9927L19.5148 39.0392L17.262 41.9719L22.8941 41.8788L22.8472 42.8098L22.284 42.4374L19.6087 46.0218C19.6087 46.0218 19.6556 46.2545 18.2945 44.6253C16.9335 42.996 16.4172 40.3426 16.558 38.5272C16.6988 36.7117 17.8721 34.7566 17.8721 34.7566L20.1719 36.3859L20.6882 35.5945L18.3415 33.9653C18.3415 33.9653 19.9842 31.9636 22.0024 31.3119C22.8002 31.0792 25.0061 30.2878 27.7753 31.2188C30.5444 32.1498 31.6708 33.8722 31.6708 33.8722L29.6057 35.3618L30.1689 36.1531L32.281 34.617C32.281 34.617 33.3604 36.06 33.5951 37.7358C33.9706 40.2495 33.7829 40.4357 33.4074 42.1581ZM30.4036 46.3942L28.6201 44.2063L29.0425 43.8805L30.8729 46.0218L30.4036 46.3942ZM28.714 47.4183C27.963 47.6976 27.2121 47.9303 27.2121 47.9303L27.0713 43.3684H27.5875L30.1689 46.6269C30.122 46.6269 29.418 47.0924 28.714 47.4183ZM26.2264 48.1165L26.1795 45.2304H26.7427L26.8366 48.0234L26.2264 48.1165ZM25.4286 41.8788H27.3059V42.9029H25.4286V41.8788ZM25.0061 48.1631V47.6976H25.9448V48.07L25.0061 48.1631ZM24.1144 48.07L24.0675 45.3235L24.6307 45.277L24.6776 48.1631L24.1144 48.07ZM25.7102 45.2304H25.1V43.415H25.7102V45.2304ZM24.8184 38.5272H23.6451V37.3169H24.8184V38.5272ZM25.147 33.8722C25.147 33.8722 25.9448 33.9653 25.8979 34.5704C25.851 35.2221 25.147 35.2687 25.147 35.2687V33.8722ZM25.1939 35.3618V36.6186H23.5981L23.5043 32.6619H25.147L25.1939 33.7791C25.1939 33.7791 24.396 33.9187 24.4429 34.5239C24.4429 35.1756 25.1939 35.3618 25.1939 35.3618ZM18.3415 41.5064L19.8434 39.5978L25.3347 39.4582L25.2408 36.6652L26.8835 36.5721L26.7896 32.6153H25.1939V32.1964H27.0243L27.3059 39.4582L25.3816 39.5047V41.4599L18.3415 41.5064ZM21.9554 47.5114C21.2045 47.2321 20.6882 46.8597 20.6882 46.8597L23.1757 43.4615H23.692L23.7389 48.0234C23.7389 48.0234 22.7064 47.8372 21.9554 47.5114ZM20.3597 46.6735L19.8903 46.3476L21.6269 43.9736L22.1432 44.2994L20.3597 46.6735ZM12.4747 30.7068L12.8032 30.2413L20.5005 35.6876L20.125 36.1531L12.4747 30.7068ZM11.6299 30.1482C11.6299 30.1482 11.2075 29.9154 11.1136 29.8689L11.4421 29.3103L12.0054 29.6361C11.9584 29.7758 11.7707 30.1482 11.6299 30.1482ZM38.5702 30.4275C38.5702 30.2878 39.1334 29.962 39.2272 29.7758L38.6171 28.9379L37.7723 29.4034C37.1621 29.031 34.8623 26.6103 33.8298 27.0758C34.2053 27.5879 36.9275 29.4034 36.9275 30.0085C36.9275 30.5671 33.689 31.824 33.0788 32.2429L32.1402 31.405L33.1258 29.6361C32.985 29.4965 32.1402 28.7982 31.9524 28.7982C31.7177 28.7982 30.6852 30.0551 30.4975 30.2878L29.2772 29.6827L29.6526 27.5879C29.2772 27.4948 28.6201 27.2155 28.2915 27.2155C28.1038 27.2155 27.3529 28.7982 27.2121 29.0775L25.9918 28.8448C25.8979 28.4724 25.851 26.75 25.4286 26.75H24.1613L23.8328 28.8448L22.5186 29.031C22.4717 28.7982 21.7208 27.2155 21.5799 27.2155C21.2514 27.2155 20.5943 27.4948 20.2189 27.5879L20.5943 29.7292L19.374 30.2878C19.2332 30.0551 18.0599 28.7982 17.8252 28.7982C17.8252 28.7982 16.7457 29.4965 16.7457 29.6361C16.7457 29.7758 17.5905 31.1723 17.6844 31.405L16.7457 32.336C16.0886 32.0102 12.991 30.6602 12.991 30.0085C12.991 29.8223 15.6193 27.4483 16.0417 27.3552C15.7601 26.2845 12.0523 29.4965 12.0054 29.4965C11.8646 29.4965 11.583 29.1241 11.3483 29.1241C11.2075 29.1241 10.7381 29.7292 10.6912 29.8689C10.8789 30.1016 11.3483 30.3809 11.3483 30.5206C11.3483 30.7068 10.0811 32.755 10.0811 34.0118V34.6635H10.3627C10.4565 33.7325 11.7238 31.6378 12.1931 30.9861C12.6624 31.3119 14.1174 32.0102 14.0235 32.5688L15.5254 33.9187L14.9622 35.0825L12.8502 34.6635C12.7563 35.0359 12.4747 35.6411 12.4747 35.9669C12.4747 36.1531 14.1643 36.8514 14.399 36.991L14.1643 38.2013L11.9584 38.4806V39.6444C11.9584 40.0633 13.7419 40.1564 14.1643 40.203L14.3051 41.4133C14.0705 41.553 12.4278 42.2512 12.4278 42.4374C12.4278 42.7633 12.7094 43.3684 12.8032 43.7408L15.0092 43.3684C15.103 43.7408 15.4785 44.2529 15.4785 44.4856C15.4785 44.5787 14.2113 45.6959 14.0235 45.9752L14.8214 47.0924L16.6988 46.1149L17.6375 46.9528C17.5436 47.139 16.6988 48.6751 16.6988 48.7682C16.6988 48.9079 17.6844 49.513 17.8721 49.6061L19.374 48.1165L20.5474 48.7217L20.1719 50.8164L21.6269 51.2354L22.5186 49.3734L23.8328 49.5596L24.1613 51.5612H25.7102L26.0387 49.513L27.3529 49.3268L28.1977 51.1888L29.6526 50.7699L29.2772 48.6751L30.4505 48.1165L31.9524 49.6061C32.1402 49.4665 33.1258 48.8613 33.1258 48.7682C33.1258 48.4889 32.1871 47.1855 32.1871 46.9062C32.1871 46.8131 32.985 46.0683 33.0319 46.0683C33.4543 46.0683 34.5338 46.8597 35.0501 46.9993L35.848 45.8821L34.3461 44.4391L34.9562 43.3684L37.1152 43.6477L37.5376 42.3443L35.5664 41.4133L35.7541 40.203C36.1765 40.1099 37.96 40.1099 37.96 39.6444V38.4341L35.7541 38.1548L35.5664 36.8514C35.801 36.8048 37.4907 36.1066 37.4907 35.9204C37.4907 35.5945 37.2091 34.9894 37.1152 34.617L34.9093 34.9894L34.2991 33.7791C35.3317 33.1274 36.6458 31.1723 37.8661 30.9395L39.7904 34.6635L39.8843 34.617V33.9653C39.8374 32.5222 38.5702 30.7068 38.5702 30.4275Z" fill="#F3744A"/>
<path d="M26.555 37.9683C26.4142 37.9683 26.3203 38.0614 26.3203 38.201C26.3203 38.3407 26.4142 38.4338 26.555 38.4338C26.6958 38.4338 26.7897 38.3407 26.7897 38.201C26.7897 38.0614 26.6958 37.9683 26.555 37.9683Z" fill="#F3744A"/>
<path d="M26.5085 37.6891C26.6493 37.6891 26.7432 37.596 26.7432 37.4564C26.7432 37.3167 26.6493 37.2236 26.5085 37.2236C26.3677 37.2236 26.2739 37.3167 26.2739 37.4564C26.2269 37.596 26.3677 37.6891 26.5085 37.6891Z" fill="#F3744A"/>
<path d="M25.8982 38.0156C25.7574 38.0156 25.6636 38.1087 25.6636 38.2484C25.6636 38.388 25.7574 38.4811 25.8982 38.4811C26.039 38.4811 26.1329 38.388 26.1329 38.2484C26.1329 38.1087 26.039 38.0156 25.8982 38.0156Z" fill="#F3744A"/>
<path d="M25.8514 37.6891C25.9922 37.6891 26.086 37.596 26.086 37.4564C26.086 37.3167 25.9922 37.2236 25.8514 37.2236C25.7106 37.2236 25.6167 37.3167 25.6167 37.4564C25.6167 37.596 25.7575 37.6891 25.8514 37.6891Z" fill="#F3744A"/>
<path d="M30.0285 24.6092C30.0285 24.6092 26.9778 23.7713 24.678 23.7248C21.158 23.6782 19.6091 24.5161 19.6091 24.5161C19.6091 24.5161 20.0785 22.7007 20.6886 21.3972C21.3457 20.0473 21.9558 19.1628 21.9558 19.1628L22.0966 19.1163L22.3313 18.837C22.3313 18.837 21.5334 18.7439 21.0172 18.6042C20.5009 18.4646 20.2662 18.3715 20.2662 18.3715C20.2662 18.3715 21.111 16.975 20.7356 16.4629C20.4539 16.0905 16.9808 11.1562 23.2231 8.9218C24.4434 8.50285 25.9453 9.24765 25.9453 9.24765C25.9453 9.24765 23.0353 8.8287 22.2844 11.2959C21.6273 13.3906 22.566 15.2061 22.566 15.2061L23.6455 14.5078C23.6455 14.5078 23.1292 12.1803 23.4577 11.389C24.5372 8.68905 27.4941 9.8528 28.3389 10.5976C29.0429 11.2028 30.2163 12.6924 30.2163 12.6924C30.2163 12.6924 29.5592 12.6458 28.7613 12.6924C28.0573 12.7389 27.1655 12.9251 26.5085 13.2975C25.1004 14.1354 25.2412 14.3682 25.2412 14.3682C25.2412 14.3682 25.2882 15.5785 25.6637 16.4629C26.0391 17.3474 26.4146 17.8129 26.4146 17.8129C26.4146 17.8129 25.1943 18.6508 24.2087 18.7439C23.5516 18.837 22.6599 18.837 22.6599 18.837L22.3313 19.4421C22.3313 19.4421 24.1618 21.3507 25.6637 22.2817C27.1655 23.2127 26.837 22.98 26.837 22.98C26.837 22.98 26.2738 21.5369 26.4615 20.3731C26.6493 19.2094 27.0247 18.5111 27.0247 18.5111C27.0247 18.5111 29.1837 19.2559 29.0899 18.1853C29.0429 17.7198 28.9021 17.906 29.0429 17.6267C29.1837 17.3939 29.0899 17.2543 28.996 17.2077L28.8552 17.1612L28.8082 17.0681C28.8082 17.0681 29.0899 17.1146 29.1837 17.0215C29.2776 16.9284 29.2776 16.6491 29.2307 16.4629C29.1837 16.2767 29.1837 16.1836 29.4184 16.1836C29.6531 16.1836 30.3571 16.2767 30.0285 15.7181C29.7 15.1595 29.5592 15.1595 29.4184 14.8337C29.3245 14.5544 29.1837 14.694 29.1837 14.3682C29.1837 14.3682 29.2307 13.9492 29.1368 13.763C29.0429 13.5768 28.4797 12.6458 28.4797 12.6458L28.7144 12.5993C28.7144 12.5993 29.0899 13.2044 29.2776 13.5303C29.6531 14.182 29.3245 14.2751 29.4184 14.3682C29.5123 14.4613 30.0285 15.2061 30.1693 15.4854C30.2632 15.7647 30.5448 16.0905 30.2632 16.1836C30.0285 16.2302 29.5592 16.1836 29.5123 16.3233C29.4653 16.5095 29.6061 16.6491 29.5592 16.8819C29.4653 17.1146 29.4184 17.1612 29.4184 17.2543C29.4184 17.3474 29.2776 17.5801 29.2776 17.8594C29.2776 18.1387 29.4184 18.6508 28.9021 18.837C28.6674 18.9301 28.1042 18.837 27.7288 18.837C27.3533 18.837 27.0717 18.6973 27.0717 18.8835C27.0247 19.0697 26.6023 19.9542 26.6493 20.699C26.6493 21.4438 27.0247 22.7938 27.1655 22.98C27.4002 23.3524 30.0285 24.6092 30.0285 24.6092Z" fill="#F3744A"/>
<path d="M27.2124 14.3213C27.2124 14.3213 27.494 14.3679 27.7756 14.1351C28.1042 13.9023 28.4796 13.9489 28.6204 14.042C28.7612 14.1351 28.949 14.1351 29.0428 14.0885C29.0898 14.042 29.0428 13.623 28.4796 13.623C27.8695 13.623 27.9164 13.8092 27.6348 13.9954C27.3532 14.1816 27.2124 14.3213 27.2124 14.3213Z" fill="#F3744A"/>
<path d="M28.7143 14.1351C28.7612 14.042 28.902 14.1351 28.8551 14.2748C28.8081 14.4144 28.6673 14.461 28.6673 14.5075C28.6673 14.5541 28.8081 14.7868 28.6673 14.8334C28.5265 14.9265 28.3857 14.8334 28.3857 14.6937C28.3857 14.5541 28.198 14.6006 28.1511 14.6937C28.1041 14.7868 28.0572 14.8799 28.0103 14.8799C27.9164 14.8799 27.9633 14.461 28.1041 14.4144C28.2919 14.4144 28.5735 14.3213 28.7143 14.1351Z" fill="#F3744A"/>
</svg>
