<svg width="266" height="140" viewBox="0 0 266 140" fill="none" xmlns="http://www.w3.org/2000/svg">
<g clip-path="url(#clip0_715_1487)">
<path d="M1.6 86.7998H4.7V90.3998C5.9 91.0998 8.3 91.3998 9.9 91.3998C13.7 91.3998 16.2 89.5998 16.2 86.3998C16.2 79.2998 1.5 83.4998 1.5 73.8998C1.5 70.6998 3.4 66.2998 11.4 66.2998C13.3 66.2998 16.9 66.7998 18.6 67.5998V72.9998H15.6V69.6998C14.6 69.2998 12.4 68.9998 11.1 68.9998C8.2 68.9998 5 70.0998 5 73.5998C5 80.3998 19.7 76.1998 19.7 85.9998C19.7 91.8998 14.7 93.9998 9.5 93.9998C5.1 93.9998 3 92.9998 1.5 92.6998V86.7998H1.6Z" fill="white"/>
<path d="M26.4 76.2999H22.8V73.8999H29.5L29.3 91.1999H32.4001V93.5999H23V91.1999H26.1L26.4 76.2999ZM27.6 63.8999C28.9 63.8999 30 64.9999 30 66.2999C30 67.5999 28.9 68.6999 27.6 68.6999C26.3001 68.6999 25.2001 67.5999 25.2001 66.2999C25.3001 64.9999 26.3001 63.8999 27.6 63.8999Z" fill="white"/>
<path d="M35.8 91.2H38.3L38.5 76.3H35.3V73.9H41.6C41.6 74.7 41.6 75.7 41.5 76.3L41.2001 78.3H41.3C42.1 75.3 45.3 73.5 48.3 73.5C51.9 73.5 53.8 75.6 54.3 78.1H54.4001C54.8001 77.3 56 73.5 61.1 73.5C66.5 73.5 67.9001 77.2 67.9001 80.9C67.9001 84.3 67.7 88.2 67.7 91.3H70.6V93.7H62V91.3H64.5C64.5 88.1 64.7 84.9 64.7 81.7C64.7 78.8 64.1001 76.1 60.4001 76.1C57.8001 76.1 54.8001 77.8 54.7001 83.1L54.6 91.2H57.4001V93.6H48.8V91.2H51.3C51.3 88 51.5 84.8 51.5 81.6C51.5 78.7 50.9001 76 47.2001 76C44.6001 76 41.6 77.7 41.5 83L41.4001 91.1H44.3V93.5H35.7001V91.2H35.8Z" fill="white"/>
<path d="M72.7001 73.8999H79.0001C79.0001 77.4999 78.8001 80.9999 78.8001 85.5999C78.8001 88.4999 79.3001 91.4999 83.2001 91.4999C88.9001 91.4999 89.0001 85.2999 89.0001 82.3999V76.2999H85.9001V73.8999H92.2001L92.0001 91.1999H94.8001V93.5999H89.0001C89.0001 92.7999 89.0001 91.7999 89.1001 91.1999L89.4001 89.1999H89.3001C88.5001 91.4999 86.0001 93.9999 82.6001 93.9999C76.9001 93.9999 75.6001 90.3999 75.6001 85.8999C75.6001 82.2999 75.7001 79.1999 75.8001 76.1999H72.6001V73.8999H72.7001Z" fill="white"/>
<path d="M101 66.5997H97.2V64.1997H104.2L104 91.1997H107.1V93.5997H98V91.1997H100.8L101 66.5997Z" fill="white"/>
<path d="M114.2 79.7H111.4V75C113.6 74.1 115.9 73.5 118.3 73.5C123.4 73.5 126.1 75.4 126.1 80.6C126.1 82.3 125.9 87.7 125.9 91.3H128.7V93.7H123V92.9C123 91.8 123.2 90.2 123.4 89.4H123.3C122.1 92.6 120.2 94.1 116.7 94.1C114.4 94.1 110.6 93.3 110.6 88.4C110.6 82.9 116.5 82.4 123.1 82.4V81C123.1 77.3 121.7 75.9 118.6 75.9C117.5 75.9 115.6 76.1 114.2 76.7V79.7V79.7ZM123.1 84.6C118.4 84.6 113.7 84.6 113.7 88.3C113.7 90.5 115.4 91.7 117.4 91.7C119.6 91.7 123.1 90.5 123.1 84.6Z" fill="white"/>
<path d="M147.9 93.1C146.4 93.6 144.4 94.1 142.2 94.1C134.4 94.1 131.9 88.9 131.9 83.8C131.9 76.3 137.4 73.5 141.8 73.5C144 73.5 146.2 73.8 148.2 74.5V79.7H145.4V76.6C144.6 76.3 143 76.1 142.1 76.1C136.4 76.1 135.3 80.6 135.3 83.8C135.3 84.9 135.5 91.5 142.8 91.5C144.7 91.5 146.3 91 148.2 90.4L147.9 93.1Z" fill="white"/>
<path d="M154.7 76.3001H151.3V73.9001H157.8V75.0001C157.8 76.1001 157.6 78.5001 157.4 80.1001H157.5C158.3 77.2001 159.3 73.6001 164.2 73.6001C164.5 73.6001 166 73.8001 166.2 73.9001L165.9 76.7001C165.4 76.5001 164.5 76.4001 163.8 76.4001C159.7 76.4001 158 80.4001 157.9 83.9001L157.7 91.3001H161V93.7001H151.7V91.3001H154.5L154.7 76.3001Z" fill="white"/>
<path d="M177.2 73.3999C183.2 73.3999 186.8 77.4999 186.8 83.1999C186.8 89.4999 183.2 94.0999 177.2 94.0999C171.2 94.0999 167.6 89.9999 167.6 84.2999C167.6 77.9999 171.2 73.3999 177.2 73.3999ZM177.2 91.4999C181.4 91.4999 183.5 88.0999 183.5 83.7999C183.5 79.4999 181.4 76.0999 177.2 76.0999C173 76.0999 170.9 79.4999 170.9 83.7999C170.9 87.9999 173 91.4999 177.2 91.4999Z" fill="white"/>
<path d="M2.7 106L8.1 105.7V110.1H13.5V114H8.1V122.9C8.1 125.7 8.8 126.4 11 126.4C11.7 126.4 12.6 126.2 13.6 125.8L13.4 129.6C11.4 130.3 10 130.6 8.7 130.6C4.8 130.6 2.7 128.8 2.7 125.2V114H0V110.1H2.7V106Z" fill="white"/>
<path d="M16.9 114.1H14.3V110.2H22.3V126.3H24.6V130.2H14.8V126.3H17V114.1H16.9ZM19.3 100.2C21.5 100.2 22.9 101.5 22.9 103.5C22.9 105.5 21.5 106.8 19.3 106.8C17.1 106.8 15.7 105.5 15.7 103.5C15.7 101.5 17.1 100.2 19.3 100.2Z" fill="white"/>
<path d="M29.2001 114.1H26.1001V110.2H34.4001C34.4001 111.5 34.2001 112.7 34.1001 114H34.2001C35.4001 111.3 37.6001 109.8 41.0001 109.8C45.4001 109.8 48.7001 113 48.7001 118.9C48.7001 124.4 46.1001 130.7 37.5001 130.7C36.6001 130.7 35.3001 130.5 34.5001 130.4V136H36.8001V139.9H27.0001V136H29.2001V114.1V114.1ZM34.5001 125.7C35.2001 126 36.7001 126.2 37.9001 126.2C41.8001 126.2 43.4001 123 43.4001 119.4C43.4001 116.6 42.4001 114 39.1001 114C35.5001 114 34.5001 116.6 34.5001 119V125.7Z" fill="white"/>
<path d="M62.3 109.7C69 109.7 72.8001 113.4 72.8001 120.4C72.8001 126.4 68.7 130.6 62.3 130.6C55.9 130.6 51.8 127.2 51.8 120.4C51.8 114.6 55.8 109.7 62.3 109.7ZM62.3 126.3C65.6 126.3 67 124.1 67 120.5C67 116.2 65.6 114.1 62.3 114.1C59 114.1 57.6 116.9 57.6 120.5C57.6 124.1 59 126.3 62.3 126.3Z" fill="white"/>
<path d="M99.6 117.4C99.6 114.4 98.3 113.6 95.8 113.6C95 113.6 93.4 113.8 92.5 114.2V116.9H87.9V111.8C89.2 111.1 92.3 109.7 95.9 109.7C101.3 109.7 104.7 111.6 104.7 117.4C104.7 120.7 104.6 123.4 104.5 126.3H106.8V130.2H100V129C100 127.7 100.1 127 100.3 126.2H100.2C98.9 129.2 97 130.6 93.7 130.6C89.2 130.6 87 127.9 87 124.8C87 121.9 88.9 120.1 91 119.3C93 118.6 95.7 118.4 99.6 118.4V117.4ZM98 121.7C93.6 121.7 92.3 122.6 92.3 124.3C92.3 125.5 93.1 126.7 95.2 126.7C97.3 126.7 99.5 125.3 99.5 121.7H98Z" fill="white"/>
<path d="M123.6 104.7H120.5V100.8H128.9V126.3H131.2V130.2H123.7C123.7 128.7 123.9 127.6 124.2 126.3H124.1C122.9 129.1 120.7 130.6 117.3 130.6C112.9 130.6 109.2 127.4 109.2 121.5C109.2 116 111.8 109.7 120.4 109.7C121.3 109.7 122.6 109.9 123.7 110.2V104.7H123.6ZM123.5 114.8C122.8 114.4 121.3 114.1 120.1 114.1C116.2 114.1 114.8 117.2 114.8 120.3C114.8 123.4 116.3 126.1 118.9 126.1C121.7 126.1 123.5 123.6 123.5 120.5V114.8V114.8Z" fill="white"/>
<path d="M160.7 126.3H162.7V118C162.7 115.2 161.2 114.3 159.2 114.3C156.6 114.3 155 116.4 155 119.6V126.3H157.3V130.2H147.7V126.3H149.6V118C149.6 115.2 148.1 114.3 146.1 114.3C143.3 114.3 141.9 116.6 141.9 119.6V126.3H144.2V130.2H134.4V126.3H136.6V114.1H134V110.2H141.8C141.8 111.6 141.8 112.9 141.5 114.3H141.6C142.7 111.4 145.2 109.8 148.5 109.8C151.8 109.8 153.9 111.3 154.4 114.3H154.5C155.5 111.5 157.7 109.8 161.2 109.8C165.9 109.8 168.1 112.8 168.1 117.6V126.4H170.4V130.3H160.8V126.3H160.7Z" fill="white"/>
<path d="M175.3 114.1H172.7V110.2H180.7V126.3H183V130.2H173.2V126.3H175.4V114.1H175.3ZM177.8 100.2C180 100.2 181.4 101.5 181.4 103.5C181.4 105.5 180 106.8 177.8 106.8C175.6 106.8 174.2 105.5 174.2 103.5C174.2 101.5 175.6 100.2 177.8 100.2Z" fill="white"/>
<path d="M197.6 114C196.5 113.6 195.5 113.4 194.5 113.4C192.1 113.4 190.9 114.4 190.9 115.5C190.9 116.5 191.2 116.8 192.7 117.1L196.9 117.7C201.5 118.3 203.4 120.1 203.4 123.7C203.4 127.3 200.9 130.6 194 130.6C191.6 130.6 188.3 130.1 186.1 129.3V123.7H190.9V126C191.8 126.3 193.3 126.6 194.5 126.6C195.6 126.6 198.4 126.3 198.4 124.2C198.4 123.1 197.7 122.5 195.4 122.2L190.9 121.5C187.4 121 185.9 119.1 185.9 116.2C185.9 111.3 190.6 109.7 194.7 109.7C196.8 109.7 199.5 110 202.5 111V115.9H197.7V114H197.6Z" fill="white"/>
<path d="M208.5 114.1H205.9V110.2H213.9V126.3H216.2V130.2H206.4V126.3H208.6V114.1H208.5ZM211 100.2C213.2 100.2 214.6 101.5 214.6 103.5C214.6 105.5 213.2 106.8 211 106.8C208.8 106.8 207.4 105.5 207.4 103.5C207.4 101.5 208.8 100.2 211 100.2Z" fill="white"/>
<path d="M229.3 109.7C236 109.7 239.8 113.4 239.8 120.4C239.8 126.4 235.7 130.6 229.3 130.6C222.9 130.6 218.8 127.2 218.8 120.4C218.8 114.6 222.7 109.7 229.3 109.7ZM229.3 126.3C232.6 126.3 234 124.1 234 120.5C234 116.2 232.6 114.1 229.3 114.1C226 114.1 224.6 116.9 224.6 120.5C224.6 124.1 226 126.3 229.3 126.3ZM236.8 101.4L228.7 107.7L225.8 105.4L234.1 98.7002L236.8 101.4Z" fill="white"/>
<path d="M244.6 114.1H242V110.2H249.8C249.8 111.6 249.8 112.9 249.5 114.3H249.6C250.6 111.7 253 109.7 256.5 109.7C261.2 109.7 263.4 112.7 263.4 117.5V126.3H265.7V130.2H255.9V126.3H258.1V118C258.1 115.2 256.6 114.3 254.6 114.3C251.4 114.3 249.9 116.6 249.9 119.6V126.3H252.2V130.2H242.6V126.3H244.5V114.1H244.6Z" fill="white"/>
<path d="M54.7 18.2C55.9 18.6 56.8 19.3 57.6 20.3C58.3 21.3 58.7 22.5 58.7 23.8C58.7 25.1 58.3 26.2 57.6 27.3C56.9 28.3 55.9 29 54.7 29.4V47.6L51.5 45.3C50.8 44.8 49.9 44.2 48.8 43.5C46.5 42 44.2 40.7 41.8 39.5C38.5 37.8 35.4 36.5 32.3 35.5C28.6 34.3 25.2 33.7 22.3 33.7H15.6L18.8 45.1L19.5 47.7H7.4L7 46.3L3 32.3V32V13.9H22.3C25.3 13.9 28.6 13.3 32.4 12.2C35.5 11.2 38.7 9.9 41.9 8.2C43.6 7.3 45.3 6.4 46.9 5.4C48.1 4.7 49.2 3.9 50.3 3.2L51.5 2.3L54.7 0V18.2ZM6.9 29.8H18.8V17.9H6.9V29.8ZM10.4 43.7H14.2L11.4 33.7H7.6L10.4 43.7ZM50 7.9C49.1 8.5 48.3 9 47.6 9.5C46.5 10.2 45.2 10.9 43.6 11.7C35.7 15.7 28.8 17.8 22.8 17.9V29.8C28.9 29.9 35.8 32 43.6 36C45.2 36.8 46.5 37.5 47.6 38.2C48.3 38.6 49.1 39.1 50 39.8L50.7 40.2V7.4L50 7.9Z" fill="white"/>
</g>
<defs>
<clipPath id="clip0_715_1487">
<rect width="265.8" height="139.8" fill="white"/>
</clipPath>
</defs>
</svg>
