<svg width="99" height="51" viewBox="0 0 99 51" fill="none" xmlns="http://www.w3.org/2000/svg">
<path d="M45.2544 8.77009C43.5175 8.77009 42.0702 7.34019 42.0702 5.6243C42.0702 3.90841 43.5175 2.4785 45.2544 2.4785C46.9912 2.4785 48.4386 3.90841 48.4386 5.6243C48.4386 7.34019 46.9912 8.77009 45.2544 8.77009ZM57.9912 27.0729C57.5088 27.0729 57.1228 26.6916 57.1228 26.215V0H51.7193V27.3589C51.7193 29.5514 53.5526 31.3626 55.7719 31.3626H59.6316V27.0729H57.9912ZM0 2.0972V8.86542H4.34211V6.95888H11V27.2636H9.07018V31.4579H18.3333V27.1682H16.4035V6.86355H23.0614V8.77009H27.4035V2.0972H0ZM22.9649 11.8206V27.0729H21.0351V31.3626H34.2544V27.0729H28.4649V16.1103H34.2544V11.8206H22.9649ZM36.7632 11.8206V16.1103H42.5526V27.0729H36.7632V31.3626H49.9825V27.0729H48.0526V11.8206H36.7632ZM70.9211 27.0729C69.1842 26.9776 65.4211 26.215 65.4211 21.5439C65.4211 16.9682 69.3772 15.9196 70.9211 15.9196C72.4649 15.9196 72.8509 16.015 73.5263 16.2056V19.7327H77.8684V13.1551C77.8684 13.1551 76.2281 12.4879 74.9737 12.2019C73.9123 12.0112 72.8509 11.7252 70.9211 11.7252C68.5088 11.7252 60.307 12.5832 60.307 21.7346C60.307 30.886 68.5088 31.4579 70.9211 31.4579H76.5175V27.1682H70.9211V27.0729ZM99 21.5439C99 22.2112 98.9035 22.8785 98.807 23.5458H84.9123C85.2018 26.1196 88.5789 27.0729 90.1228 27.0729H96.0088V31.3626H90.4123C88 31.3626 79.7982 30.7907 79.7982 21.6393C79.7982 13.5364 86.5526 11.7252 89.4474 11.7252C92.7281 11.6299 99 13.9178 99 21.5439ZM93.9825 19.6374V19.4467C93.9825 17.4449 91.9561 15.729 89.4474 15.729C87.0351 15.729 85.0088 17.4449 84.9123 19.4467V19.6374H93.9825ZM12.1579 41.086C11.8684 41.086 11.7719 41.1813 11.6754 41.4673L8.97368 50.5234C8.87719 50.714 8.97368 50.9047 9.26316 50.9047H10.4211C10.7105 50.9047 10.807 50.8093 10.807 50.5234L11.2895 48.8075H13.9912L14.4737 50.5234C14.5702 50.714 14.6667 50.9047 14.8596 50.9047H16.4035C16.693 50.9047 16.693 50.8093 16.693 50.5234L13.9912 41.4673C13.8947 41.1813 13.7982 41.086 13.5088 41.086H12.1579ZM13.7018 47.1869H11.8684L12.3509 45.5664C12.5439 44.8991 12.7368 43.6598 12.8333 42.8972C12.9298 43.6598 13.0263 44.8991 13.2193 45.5664L13.7018 47.1869ZM25.1842 47.7589C25.1842 47.4729 25.0877 47.3776 24.8947 47.3776H23.6404C23.3509 47.3776 23.2544 47.4729 23.2544 47.7589V48.3308C23.2544 49.0935 22.7719 49.3794 21.807 49.3794C20.8421 49.3794 20.3596 48.9981 20.3596 48.3308V43.6598C20.3596 42.8972 20.8421 42.6112 21.807 42.6112C22.7719 42.6112 23.2544 42.9925 23.2544 43.6598V44.0411C23.2544 44.3271 23.3509 44.4224 23.6404 44.4224H24.8947C25.1842 44.4224 25.1842 44.3271 25.1842 44.0411V43.3738C25.1842 42.1346 24.4123 40.9907 21.7105 40.9907C19.1053 40.9907 18.2368 42.1346 18.2368 43.3738V48.6168C18.2368 49.8561 19.0088 51 21.7105 51C24.3158 51 25.1842 49.8561 25.1842 48.6168V47.7589ZM29.9123 41.086C29.6228 41.086 29.5263 41.1813 29.4298 41.4673L26.7281 50.5234C26.6316 50.714 26.7281 50.9047 27.0175 50.9047H28.1754C28.4649 50.9047 28.5614 50.8093 28.5614 50.5234L29.0439 48.8075H31.8421L32.3246 50.5234C32.4211 50.714 32.5175 50.9047 32.7105 50.9047H34.0614C34.3509 50.9047 34.3509 50.8093 34.3509 50.5234L31.6491 41.4673C31.5526 41.1813 31.4561 41.086 31.1667 41.086H29.9123ZM31.3596 47.1869H29.5263L30.0088 45.5664C30.2018 44.8991 30.3947 43.6598 30.4912 42.8972C30.5877 43.6598 30.6842 44.8991 30.8772 45.5664L31.3596 47.1869ZM39.8509 50.9047C42.4561 50.9047 43.4211 49.7607 43.4211 48.5215V43.3738C43.4211 42.1346 42.4561 40.9907 39.8509 40.9907H36.6667C36.3772 40.9907 36.2807 41.086 36.2807 41.372V50.5234C36.2807 50.8093 36.3772 50.9047 36.5702 50.9047H39.8509ZM39.8509 42.7065C40.8158 42.7065 41.4912 43.0879 41.4912 43.7551V48.1402C41.4912 48.9028 40.9123 49.1888 39.8509 49.1888H38.307V42.6112H39.8509V42.7065ZM51.5263 50.9047C51.8158 50.9047 51.9123 50.8093 51.9123 50.5234V49.5701C51.9123 49.2841 51.8158 49.1888 51.5263 49.1888H48.0526V46.5196H51.1404C51.4298 46.5196 51.5263 46.4243 51.5263 46.1383V45.2804C51.5263 44.9944 51.4298 44.8991 51.1404 44.8991H48.0526V42.5159H51.4298C51.7193 42.5159 51.8158 42.4206 51.8158 42.1346V41.1813C51.8158 40.8953 51.7193 40.8 51.4298 40.8H46.4123C46.1228 40.8 46.0263 40.8953 46.0263 41.1813V50.5234C46.0263 50.8093 46.1228 50.9047 46.4123 50.9047H51.5263ZM63.1053 41.4673C63.1053 41.1813 63.0088 41.086 62.7193 41.086H61.4649C61.2719 41.086 61.1754 41.1813 61.1754 41.2766L59.0526 46.329C58.9561 46.615 58.7632 46.9963 58.6667 47.2822C58.5702 46.9009 58.3772 46.5196 58.2807 46.2336L56.0614 41.1813C55.9649 41.086 55.9649 40.9907 55.7719 40.9907H54.614C54.3246 40.9907 54.2281 41.086 54.2281 41.372V50.5234C54.2281 50.8093 54.3246 50.9047 54.614 50.9047H55.7719C56.0614 50.9047 56.1579 50.8093 56.1579 50.5234V45.0897C56.2544 45.5664 56.4474 45.9477 56.4474 46.1383L57.7018 48.9981C57.7982 49.1888 57.8947 49.3794 58.1842 49.3794H59.2456C59.4386 49.3794 59.6316 49.2841 59.7281 48.9981L60.886 46.329C60.9825 46.043 61.1754 45.5664 61.2719 44.9944V50.5234C61.2719 50.8093 61.3684 50.9047 61.6579 50.9047H62.7193C63.0088 50.9047 63.1053 50.8093 63.1053 50.5234V41.4673ZM67.8333 41.4673C67.8333 41.1813 67.7368 41.086 67.4474 41.086H66.193C65.9035 41.086 65.807 41.1813 65.807 41.4673V50.5234C65.807 50.8093 65.9035 50.9047 66.193 50.9047H67.4474C67.7368 50.9047 67.8333 50.8093 67.8333 50.5234V41.4673ZM72.9474 41.086C72.6579 41.086 72.5614 41.1813 72.4649 41.4673L69.7632 50.5234C69.6667 50.714 69.7632 50.9047 70.0526 50.9047H71.2105C71.5 50.9047 71.5965 50.8093 71.5965 50.5234L72.0789 48.8075H74.7807L75.2632 50.5234C75.3596 50.714 75.4561 50.9047 75.6491 50.9047H77.193C77.4825 50.9047 77.4825 50.8093 77.4825 50.5234L74.7807 41.4673C74.6842 41.1813 74.5877 41.086 74.2982 41.086H72.9474ZM74.4912 47.1869H72.6579L73.1404 45.5664C73.3333 44.8991 73.5263 43.6598 73.6228 42.8972C73.7193 43.6598 73.8158 44.8991 74.0088 45.5664L74.4912 47.1869Z" fill="white"/>
</svg>
