<svg width="61" height="59" viewBox="0 0 61 59" fill="none" xmlns="http://www.w3.org/2000/svg">
<path d="M59.5091 29.5341C59.5091 35.0853 57.8188 40.4943 54.5854 45.1203C51.4254 49.7464 46.8692 53.376 41.5781 55.5111C36.2871 57.6462 30.4081 58.2156 24.823 57.0769C19.1645 56.0093 14.0204 53.3049 9.97858 49.3905C5.93677 45.4762 3.14425 40.4231 2.04194 35.0142C0.939629 29.5341 1.52753 23.9116 3.65866 18.7874C5.86328 13.6631 9.53765 9.25058 14.3143 6.19027C19.1645 3.05879 24.7495 1.42188 30.4816 1.42188C34.3029 1.42188 38.0508 2.13358 41.5781 3.55698C45.1055 4.98038 48.2655 7.04431 50.9845 9.67761C53.7036 12.3109 55.8347 15.3712 57.3044 18.7874C58.7742 22.2035 59.5091 25.8332 59.5091 29.5341Z" fill="#F3744A"/>
<path d="M30.4812 0C24.4552 0 18.5762 1.70808 13.5791 4.98191C8.58195 8.18456 4.68712 12.8106 2.33552 18.2195C0.057412 23.6285 -0.603974 29.5356 0.571823 35.3004C1.74762 40.994 4.68712 46.2606 8.94938 50.3884C13.2117 54.5163 18.6497 57.2919 24.5287 58.4306C30.4077 59.5694 36.5806 59 42.1657 56.7226C47.7507 54.5163 52.5274 50.6731 55.8343 45.8335C59.1413 40.994 60.9784 35.3004 60.9784 29.4644C60.9784 25.6212 60.1701 21.778 58.6268 18.1484C57.0836 14.5899 54.879 11.316 52.013 8.54041C49.147 5.76478 45.84 3.62967 42.0922 2.1351C38.4913 0.782871 34.523 0 30.4812 0ZM31.363 56.4379C17.4004 57.2919 7.03871 46.9011 4.83409 40.4958C4.90758 40.4246 5.05455 40.3534 5.05455 40.3534C8.43497 39.4282 11.6684 41.0651 15.4163 44.1255C18.0618 46.3317 23.4264 52.31 29.9668 55.1568C30.4812 55.4415 30.9956 55.655 31.51 55.7973C31.51 55.8685 31.363 56.2955 31.363 56.4379ZM41.2103 54.3739C40.7694 54.5163 37.3155 55.5838 34.67 54.8721C34.1555 54.7298 33.7146 54.5875 33.2002 54.3739C29.5993 53.0929 26.2189 50.9578 23.059 48.538C19.0906 45.5489 16.1511 41.6345 10.7866 39.2147C10.7866 39.1435 10.8601 39.0724 10.8601 38.93C13.7996 39.2859 17.5474 39.6417 22.4711 42.5597C24.3817 43.6984 32.0979 48.111 33.2002 48.6092C35.3313 49.6056 37.4625 50.3884 39.7406 51.0289C40.9899 51.3848 42.3126 51.6695 43.5619 51.883C43.5619 51.883 44.5908 52.0253 44.8847 52.0253L45.1052 52.4524C43.8559 53.2352 42.5331 53.8758 41.2103 54.3739ZM50.6902 48.3245C47.6037 50.8866 43.268 50.3172 40.255 49.6055C35.6988 48.538 28.4235 44.5525 26.5129 43.3426C26.5864 43.2714 26.6598 43.1291 26.7333 43.0579C30.2607 44.2678 44.6642 47.7551 53.9971 43.2002C54.0706 43.2714 54.1441 43.3426 54.2176 43.4138C54.2911 43.4849 54.4381 43.6273 54.5115 43.6984C53.4092 45.4065 52.0865 46.9723 50.6902 48.3245ZM48.9265 43.0579C49.2939 42.7021 49.5879 42.2039 49.8084 41.7057L51.1311 37.7201H49.0735C47.4568 40.0688 43.5619 39.7129 40.3285 37.7913C35.2579 34.731 31.7305 32.8806 29.2319 32.7382C28.9379 32.7382 28.5705 32.7382 28.2766 32.8094C28.644 36.5814 29.4524 38.93 29.8933 39.9976C29.9668 40.2111 30.1137 40.4958 30.1872 40.7093L29.6728 40.5669C29.5258 40.4246 29.3789 40.2111 29.3054 40.0688C28.7175 39.1435 27.5417 37.0796 26.5863 33.5211C25.8515 34.0905 25.3371 34.8733 25.1901 35.7986C25.1901 36.0832 25.1166 36.2967 25.1166 36.5814L26.1454 38.93L27.4682 41.9903C26.9538 41.848 26.3659 41.5633 25.7045 41.2786C20.9278 39.3571 11.2275 35.4427 3.87875 38.7877C2.55598 35.0157 2.04157 31.0302 2.40901 27.0446C2.77644 23.0591 4.02573 19.2159 6.08338 15.7998C8.14102 12.3836 11.007 9.39445 14.3874 7.11701C17.7679 4.83957 21.5892 3.27382 25.7045 2.63329C29.7463 1.92159 33.9351 2.1351 37.9034 3.13148C41.8717 4.19904 45.5461 6.04946 48.706 8.61158C51.866 11.1737 54.3646 14.3764 56.1283 18.006C57.892 21.6357 58.7738 25.5501 58.7738 29.5356C58.7738 32.0265 58.2594 35.585 57.8185 36.6526C56.2018 39.9976 52.9683 42.0615 48.9265 43.0579Z" fill="white"/>
<path d="M45.6195 26.3318C45.987 24.1255 46.7218 22.0616 47.8242 20.0688C45.2521 18.5742 42.3126 17.7914 39.3731 17.7202C36.3601 17.649 33.4206 18.3607 30.7751 19.7841C30.3342 20.567 29.9667 21.421 29.5993 22.2751C28.5705 22.5598 27.6151 22.9156 26.7333 23.4138C25.7779 24.8372 25.19 26.5453 25.19 28.2534C25.1166 29.9615 25.631 31.6695 26.5128 33.1641L26.2924 31.6695C27.1007 31.1713 27.9826 30.9578 28.9379 30.9578C31.6569 30.9578 35.4048 32.5236 39.4466 35.3704C39.4466 35.2992 39.3731 35.228 39.3731 35.0857C37.9768 31.3137 38.0503 27.1146 39.6671 23.4138C38.3443 22.7021 36.8011 22.2039 35.3313 21.9904L35.4048 21.7769C37.242 21.9192 39.0792 22.3463 40.7694 23.058C39.5936 26.4741 39.6671 30.175 40.9898 33.52C43.4149 34.4452 45.6195 35.8686 47.3832 37.7902L47.6037 37.719C45.693 34.2317 45.0316 30.2461 45.6195 26.3318Z" fill="white"/>
<path d="M17.4007 20.4984C17.5477 22.42 17.9151 25.6226 17.9151 25.6226H18.503C18.503 25.6226 18.797 22.42 19.0174 20.4984C19.0909 19.3597 19.6053 18.8615 20.4137 18.648C21.0751 18.5056 23.2797 18.2209 23.2797 18.2209V17.6516C22.2509 17.5804 21.2955 17.3669 20.3402 17.1534C19.9728 17.0822 19.6788 16.9399 19.4583 16.6552C19.2379 16.4417 19.0174 16.157 18.9439 15.8012C18.7235 15.0895 18.503 12.812 18.503 12.812H17.9886C17.9151 13.8084 17.6946 14.8048 17.5477 15.8012C17.4742 16.157 17.3272 16.4417 17.0333 16.6552C16.8128 16.8687 16.5188 17.0822 16.1514 17.1534C15.4165 17.3669 13.2119 17.6516 13.2119 17.6516V18.2209C13.2119 18.2209 15.343 18.5056 16.0779 18.7191C16.8128 18.8615 17.2537 19.3597 17.4007 20.4984Z" fill="white"/>
<path d="M40.3282 15.0886L39.8138 17.1526C38.344 15.9427 36.5803 15.3021 34.6697 15.1598L34.5962 14.8751C35.478 14.5193 36.5069 14.3057 37.4622 14.3769C38.491 14.3769 39.5198 14.6616 40.3282 15.0886Z" fill="white"/>
</svg>
