<svg width="50" height="60" viewBox="0 0 50 60" fill="none" xmlns="http://www.w3.org/2000/svg">
<path d="M24.5368 1.70508H25.4755C33.0319 1.70508 38.5702 6.49975 41.9025 10.6893C45.2348 14.8322 48.0978 22.1406 48.0978 29.4955V30.7989C48.0978 44.0657 38.6171 58.4032 25.2878 58.4032H24.5368C16.9804 58.4032 11.3483 53.4689 7.96904 49.2794C4.54283 44.9502 1.86758 37.5953 1.82065 30.0541C1.77371 22.6527 4.58977 15.065 7.9221 10.8755C11.3483 6.59285 16.7927 1.70508 24.5368 1.70508Z" stroke="#F3744A" stroke-width="0.3979" stroke-miterlimit="10"/>
<path d="M0.506592 29.2631C0.506592 21.9548 3.65119 13.5757 7.12432 9.61895C9.51797 6.91904 10.926 5.28979 14.1645 3.33468C16.6989 1.84507 20.4537 0.355469 24.5369 0.355469H25.4287C39.509 0.355469 49.506 15.2515 49.506 29.0769V30.8458C49.506 44.8109 39.509 59.6139 25.2409 59.6139H24.7716C10.4097 59.6139 0.506592 44.7643 0.506592 30.6596V29.2631V29.2631Z" stroke="#F3744A" stroke-width="0.5299" stroke-miterlimit="10"/>
<path d="M7.26514 29.3089C7.26514 23.6298 9.51798 17.1593 12.0524 14.1336C13.789 12.0388 14.8216 10.782 17.1683 9.29235C18.9987 8.1286 21.7209 6.96484 24.6777 6.96484H25.3348C35.5196 6.96484 42.7474 18.4627 42.7474 29.1693V30.5658C42.7474 41.3654 35.5196 52.7702 25.194 52.7702H24.8186C14.4461 52.7702 7.26514 41.3189 7.26514 30.4261C7.26514 30.4261 7.26514 29.3089 7.26514 29.3089Z" stroke="#F3744A" stroke-width="0.2649" stroke-miterlimit="10"/>
<path d="M39.0867 48.6278C38.9451 48.7683 39.2755 48.4406 39.0867 48.6278Z" fill="#F3744A"/>
<path d="M4.02678 40.3428L3.97984 40.2032V40.1566V40.1101C3.97984 40.1101 3.97984 40.1101 3.97984 40.0635C3.97984 40.0635 3.97984 40.0635 3.97984 40.017L3.93291 39.8773L5.52867 39.5515C5.71641 39.5049 5.85721 39.4584 5.99801 39.4118C6.13882 39.3653 6.18575 39.2722 6.27962 39.1791C6.32655 39.086 6.37349 38.9929 6.37349 38.8998C6.37349 38.8067 6.37349 38.7136 6.37349 38.6205C6.32655 38.4808 6.27962 38.3877 6.23269 38.2946C6.18575 38.2015 6.09188 38.155 5.99801 38.1084C5.90415 38.0619 5.81028 38.0619 5.66947 38.0153C5.52867 38.0153 5.38787 38.0153 5.24707 38.0619L3.55743 38.3877V38.2015L3.5105 38.0619L5.10626 37.736C5.294 37.6895 5.48174 37.6895 5.62254 37.6895C5.76334 37.6895 5.90415 37.736 6.04495 37.7826C6.18575 37.8291 6.27962 37.9222 6.37349 38.0619C6.46736 38.2015 6.51429 38.3412 6.56123 38.5739L6.60816 38.7136C6.65509 38.8998 6.65509 39.086 6.65509 39.2722C6.60816 39.4118 6.56123 39.5515 6.46736 39.6446C6.37349 39.7377 6.27962 39.8308 6.13882 39.8773C5.99801 39.9239 5.90415 39.9704 5.76334 40.017L4.02678 40.3428Z" fill="#F3744A"/>
<path d="M3.27575 36.71V36.5704V36.3842L5.01232 34.5221L3.08801 34.7083V34.5687C3.08801 34.5687 3.08801 34.5687 3.08801 34.5221C3.08801 34.5221 3.08801 34.5221 3.08801 34.4756V34.3359L5.85713 34.0566V34.1963V34.3359L4.0267 36.2445L5.99794 36.0118V36.1514V36.2911L3.27575 36.71Z" fill="#F3744A"/>
<path d="M2.99402 32.7539C2.99402 32.7074 2.99402 32.7074 2.99402 32.7539C2.99402 32.7074 2.99402 32.7074 2.99402 32.7539C2.99402 32.7074 2.99402 32.7074 2.99402 32.7539V32.6608V32.6143V32.4746L5.76314 32.6608V32.8005C5.76314 32.8005 5.76314 32.8005 5.76314 32.847V32.8936V32.9401V32.9867V33.1263L2.99402 32.9401V32.7539Z" fill="#F3744A"/>
<path d="M2.9002 31.3122V31.2191V31.1726V31.0329L5.10611 30.5209C5.05917 30.5209 5.05917 30.4743 5.01224 30.4743C4.96531 30.4743 4.96531 30.4278 4.91837 30.3812C4.8245 30.3347 4.77757 30.2881 4.6837 30.2416C4.58983 30.195 4.49596 30.1485 4.4021 30.1019C4.35516 30.1019 4.35516 30.0554 4.30823 30.0554C4.26129 30.0554 4.26129 30.0088 4.21436 30.0088C4.21436 30.0088 4.16742 30.0088 4.16742 29.9623C4.16742 29.9623 4.12049 29.9623 4.12049 29.9157C4.12049 29.9157 4.07356 29.9157 4.07356 29.8692C4.07356 29.8692 4.02662 29.8692 4.02662 29.8226C3.93275 29.7761 3.88582 29.7295 3.79195 29.683C3.69808 29.6364 3.65115 29.5899 3.55728 29.5433C3.46341 29.4968 3.41648 29.4502 3.32261 29.4502C3.22874 29.4037 3.1818 29.4037 3.13487 29.3571V29.2175C3.13487 29.2175 3.13487 29.2174 3.13487 29.1709V29.0312L5.66932 30.5674L5.62239 30.7071V30.5674L5.57545 30.7071L2.66553 31.4519L2.71246 31.3122C2.85326 31.3588 2.85326 31.3122 2.9002 31.3122Z" fill="#F3744A"/>
<path d="M3.08801 28.2393V28.0996L3.22882 26.7031H3.27575C3.27575 26.7031 3.27575 26.7031 3.32268 26.7031H3.36962C3.36962 26.7031 3.36962 26.7031 3.41655 26.7031V26.8428C3.41655 26.8893 3.41655 26.9359 3.36962 26.9359C3.36962 26.9824 3.36962 27.029 3.32268 27.0755C3.32268 27.1221 3.32268 27.1686 3.32268 27.2152C3.32268 27.2617 3.32268 27.3083 3.32268 27.3548C3.32268 27.3548 3.32268 27.3548 3.32268 27.4014C3.32268 27.4014 3.32268 27.4014 3.32268 27.4479C3.32268 27.4479 3.32268 27.4479 3.32268 27.4945C3.32268 27.4945 3.32268 27.4945 3.32268 27.541C3.32268 27.541 3.32268 27.541 3.32268 27.5876C3.32268 27.5876 3.32268 27.5876 3.32268 27.6341C3.32268 27.6341 3.32268 27.6341 3.32268 27.6807C3.32268 27.6807 3.32268 27.6807 3.32268 27.7272V27.7738V27.8203L4.3083 27.9134L4.35524 27.4945V27.1221V26.9824H4.40217C4.40217 26.9824 4.40217 26.9824 4.44911 26.9824C4.44911 26.9824 4.44911 26.9824 4.49604 26.9824C4.49604 26.9824 4.49604 26.9824 4.54297 26.9824C4.54297 26.9824 4.54297 26.9824 4.58991 26.9824H4.63684V27.1221L4.54297 27.5876L4.49604 27.9134L5.62246 28.0531V28.0065V27.96V27.9134V27.8669V27.8203C5.62246 27.8203 5.62246 27.8203 5.62246 27.7738C5.62246 27.7738 5.62246 27.7738 5.62246 27.7272C5.62246 27.7272 5.62246 27.7272 5.62246 27.6807C5.62246 27.6341 5.62246 27.5876 5.62246 27.541C5.62246 27.4945 5.62246 27.4479 5.62246 27.4014C5.62246 27.3548 5.62246 27.3083 5.62246 27.2617C5.62246 27.2152 5.62246 27.1686 5.62246 27.1686V27.029H5.6694C5.6694 27.029 5.6694 27.029 5.71633 27.029C5.71633 27.029 5.71633 27.029 5.76326 27.029C5.76326 27.029 5.76327 27.029 5.8102 27.029C5.8102 27.029 5.8102 27.029 5.85713 27.029C5.85713 27.029 5.85713 27.029 5.90407 27.029C5.90407 27.029 5.90407 27.029 5.951 27.029V27.1686L5.8102 28.5651L3.08801 28.2393Z" fill="#F3744A"/>
<path d="M4.77753 25.4453C4.77753 25.3057 4.82447 25.2591 4.82447 25.166C4.82447 25.0729 4.82447 25.0264 4.77753 24.9798C4.77753 24.9333 4.7306 24.8402 4.68367 24.7936C4.63673 24.7471 4.63673 24.7005 4.5898 24.7005C4.54286 24.7005 4.54286 24.654 4.49593 24.654C4.449 24.654 4.449 24.6074 4.40206 24.6074C4.35513 24.6074 4.35513 24.6074 4.30819 24.6074H4.26126H4.21432H4.16739H4.12046C4.12046 24.6074 4.07352 24.6074 4.02659 24.6074C3.97965 24.6074 3.93272 24.654 3.93272 24.654C3.88578 24.7005 3.83885 24.7005 3.83885 24.7471C3.79192 24.7936 3.79192 24.8402 3.74498 24.8867C3.69805 24.9333 3.69805 25.0264 3.69805 25.0729L3.65111 25.2591L4.77753 25.4453ZM3.36951 25.6781L3.41644 25.5384L3.60418 24.6074C3.65111 24.5143 3.65111 24.4212 3.69805 24.3281C3.74498 24.235 3.79192 24.1885 3.88578 24.1419C3.97965 24.0954 4.02659 24.0488 4.12046 24.0488C4.21432 24.0488 4.30819 24.0488 4.40206 24.0488C4.49593 24.0488 4.5898 24.0954 4.63673 24.1419C4.68367 24.1885 4.77753 24.235 4.82447 24.2816C4.8714 24.3281 4.91834 24.4212 4.91834 24.4678C4.96527 24.5143 4.96527 24.6074 4.96527 24.654C4.96527 24.7005 4.96527 24.7005 4.96527 24.7471C4.96527 24.7936 4.96527 24.7936 4.96527 24.8402C4.96527 24.8867 4.96527 24.8867 4.96527 24.9333C4.96527 24.9798 4.96527 24.9798 4.96527 25.0264L6.46717 24.2816L6.42023 24.4212C6.42023 24.4212 6.42023 24.4212 6.42023 24.4678C6.42023 24.4678 6.42023 24.4678 6.42023 24.5143C6.42023 24.5143 6.42023 24.5143 6.42023 24.5609V24.6074V24.654L6.3733 24.7936L4.96527 25.4919L6.2325 25.7246L6.18556 25.8643V25.8643V25.9108L6.13863 26.0505L3.36951 25.6781Z" fill="#F3744A"/>
<path d="M4.30822 22.9792C4.26129 22.9326 4.16742 22.8395 4.16742 22.7464C4.12048 22.6533 4.12048 22.5602 4.12048 22.5137C4.12048 22.4206 4.12048 22.3275 4.12048 22.2809L4.16742 22.1413C4.16742 22.0947 4.21435 22.0016 4.21435 21.9551C4.26129 21.9085 4.26129 21.862 4.30822 21.8154C4.35515 21.7689 4.35515 21.7223 4.40209 21.7223C4.44902 21.6758 4.49596 21.6758 4.49596 21.6758L4.54289 21.7223L4.58983 21.7689L4.63676 21.8154C4.68369 21.8154 4.68369 21.862 4.73063 21.862L4.68369 22.0016V22.0482C4.68369 22.0482 4.68369 22.0482 4.63676 22.0482C4.63676 22.0482 4.63676 22.0482 4.58983 22.0482H4.54289H4.49596C4.44902 22.0482 4.44902 22.0947 4.40209 22.0947C4.35515 22.0947 4.35515 22.1413 4.30822 22.1878L4.26129 22.2344C4.26129 22.2809 4.21435 22.2809 4.21435 22.3275C4.21435 22.374 4.21435 22.4206 4.21435 22.4671C4.21435 22.5137 4.26129 22.5602 4.26129 22.6068C4.30822 22.6533 4.35515 22.6999 4.40209 22.7464C4.44902 22.793 4.49596 22.793 4.54289 22.8395C4.58983 22.8395 4.63676 22.8395 4.63676 22.8395C4.68369 22.8395 4.73063 22.8395 4.77756 22.793C4.8245 22.793 4.87143 22.7464 4.91837 22.6999C4.9653 22.6533 5.01223 22.6533 5.05917 22.5602L5.34077 22.1878C5.38771 22.1413 5.43464 22.0482 5.52851 22.0482C5.57545 22.0016 5.66931 21.9551 5.71625 21.9551C5.76318 21.9551 5.85705 21.9085 5.90399 21.9085C5.95092 21.9085 6.04479 21.9085 6.09172 21.9551C6.18559 22.0016 6.27946 22.0482 6.37333 22.0947C6.4672 22.1878 6.51413 22.2344 6.608 22.374C6.65493 22.4671 6.70187 22.6068 6.7488 22.6999C6.7488 22.793 6.7488 22.9326 6.70187 23.0723H6.84267C6.84267 23.1188 6.79574 23.1654 6.79574 23.2119C6.7488 23.2585 6.7488 23.305 6.70187 23.3516C6.65493 23.3981 6.65493 23.4447 6.608 23.4447C6.56107 23.4912 6.56107 23.4912 6.51413 23.5378L6.4672 23.4912L6.42026 23.4447C6.42026 23.4447 6.42026 23.4447 6.37333 23.4447C6.37333 23.4447 6.37333 23.4447 6.32639 23.4447C6.32639 23.4447 6.32639 23.4447 6.27946 23.4447C6.27946 23.4447 6.27946 23.4447 6.23253 23.4447C6.23253 23.4447 6.23253 23.4447 6.18559 23.4447V23.3981L6.23253 23.2585C6.37333 23.2119 6.4672 23.1654 6.51413 23.1654C6.608 23.1188 6.65493 23.0723 6.65493 23.0257C6.65493 22.9792 6.70187 22.9792 6.70187 22.9326C6.70187 22.8861 6.7488 22.8861 6.7488 22.8395C6.7488 22.793 6.7488 22.6999 6.7488 22.6533C6.7488 22.6068 6.70187 22.5602 6.65493 22.5137C6.608 22.4671 6.56107 22.4206 6.51413 22.374C6.4672 22.3275 6.42026 22.3275 6.32639 22.2809C6.27946 22.2809 6.23253 22.2809 6.18559 22.2809C6.13866 22.2809 6.09172 22.2809 6.04479 22.3275C5.99785 22.3275 5.95092 22.374 5.90399 22.374C5.85705 22.4206 5.81012 22.4671 5.76318 22.5137L5.48158 22.8395C5.38771 22.9326 5.34077 23.0257 5.24691 23.0723C5.15304 23.1188 5.1061 23.1654 5.01223 23.1654C4.9653 23.1654 4.87143 23.1654 4.8245 23.1654C4.77756 23.1654 4.68369 23.1654 4.63676 23.1188C4.44902 23.0723 4.35515 23.0257 4.30822 22.9792Z" fill="#F3744A"/>
<path d="M4.73059 20.2324C4.77752 20.1859 4.77752 20.1859 4.73059 20.2324C4.77752 20.1859 4.77752 20.1859 4.73059 20.2324C4.77752 20.1859 4.77752 20.1859 4.73059 20.2324L4.77752 20.1393V20.0928L4.82446 19.9531L7.45277 20.791L7.40584 20.9307C7.40584 20.9307 7.40584 20.9307 7.40584 20.9772V21.0238V21.0703C7.40584 21.0703 7.40584 21.0703 7.40584 21.1169L7.31197 21.2565L4.63672 20.4186L4.73059 20.2324Z" fill="#F3744A"/>
<path d="M5.52862 18.4164L7.73453 19.3008C7.73453 19.2543 7.78146 19.2543 7.78146 19.2077C7.78146 19.1612 7.8284 19.1612 7.8284 19.1146C7.92226 18.9284 7.92227 18.7422 7.9692 18.6026C8.01613 18.4629 7.9692 18.3233 7.92226 18.1836C7.87533 18.044 7.78146 17.9509 7.64066 17.8112C7.49986 17.7181 7.35905 17.5785 7.12438 17.4854C7.12438 17.4854 7.12438 17.4854 7.07745 17.4854C7.07745 17.4854 7.07745 17.4854 7.03051 17.4854C6.84278 17.4388 6.70197 17.3923 6.56117 17.3923C6.42037 17.3923 6.3265 17.3923 6.23263 17.4854C6.13876 17.5319 6.04489 17.625 5.95102 17.6716C5.85716 17.7647 5.81022 17.8112 5.76329 17.9043C5.76329 17.9043 5.76329 17.9043 5.76329 17.9509C5.76329 17.9509 5.76329 17.9509 5.76329 17.9974V18.044C5.76329 18.044 5.76329 18.044 5.76329 18.0905C5.76329 18.0905 5.76329 18.0905 5.76329 18.1371C5.76329 18.1836 5.76329 18.1836 5.71635 18.2302C5.71635 18.2767 5.71635 18.2767 5.71635 18.3233V18.3698V18.4164C5.57555 18.3698 5.57555 18.3698 5.52862 18.4164C5.57555 18.4164 5.57555 18.4164 5.52862 18.4164ZM5.71635 17.5319C5.81022 17.3457 5.90409 17.1595 6.04489 17.0664C6.1857 16.9268 6.27957 16.8802 6.4673 16.8337C6.6081 16.7871 6.79584 16.7871 6.93664 16.7871C7.07745 16.7871 7.26518 16.8337 7.40599 16.9268C7.45292 16.9268 7.49986 16.9733 7.54679 16.9733C7.59372 16.9733 7.64066 17.0199 7.68759 17.0199C7.73453 17.0664 7.78146 17.0664 7.8284 17.113C7.87533 17.1595 7.92227 17.1595 7.9692 17.2061C8.06307 17.2992 8.11 17.3457 8.20387 17.4854C8.2508 17.5785 8.34467 17.6716 8.39161 17.8112C8.43854 17.9509 8.48548 18.044 8.43854 18.1836C8.43854 18.3233 8.39161 18.4629 8.34467 18.6491L8.29774 18.7888L7.87533 19.8129L5.29395 18.7888L5.34088 18.6491L5.71635 17.5319Z" fill="#F3744A"/>
<path d="M8.53229 15.0658L7.68748 14.9727L8.20375 15.6244L8.53229 15.0658ZM7.0304 14.6468L7.12426 14.5072L7.1712 14.4141L10.2219 14.7399L10.1281 14.8796C10.1281 14.8796 10.1281 14.8796 10.1281 14.9261C10.1281 14.9261 10.1281 14.9261 10.1281 14.9727C10.1281 14.9727 10.1281 14.9727 10.1281 15.0192L10.0342 15.1589L8.72003 15.0658L8.34456 15.764L9.14244 16.6485L9.04857 16.7881L8.9547 17.0209L7.0304 14.6468Z" fill="#F3744A"/>
<path d="M8.86094 12.2702L10.7383 13.7598L10.7852 13.7133L10.8322 13.6667C10.973 13.4805 11.0669 13.3409 11.1138 13.2012C11.1607 13.0616 11.2077 12.9219 11.1607 12.7823C11.1607 12.6426 11.1138 12.503 11.0199 12.3633C10.9261 12.2237 10.7852 12.084 10.5975 11.8978C10.4567 11.8047 10.3159 11.7116 10.1751 11.665C10.0812 11.4323 9.94043 11.4323 9.84656 11.4323C9.7527 11.4788 9.61189 11.4788 9.51802 11.5254C9.42416 11.5719 9.33029 11.6185 9.23642 11.7116C9.23642 11.7116 9.23642 11.7116 9.18948 11.7582C9.18948 11.7582 9.18948 11.7581 9.14255 11.8047C9.14255 11.8047 9.14255 11.8047 9.09562 11.8513C9.09562 11.8513 9.09562 11.8513 9.04868 11.8978L9.00175 11.9444L8.95481 11.9909C8.95481 11.9909 8.95481 12.0375 8.90788 12.0375C8.90788 12.0375 8.90788 12.084 8.86094 12.084C8.90788 12.2237 8.86094 12.2237 8.86094 12.2702C8.86094 12.2237 8.86094 12.2237 8.86094 12.2702ZM9.23642 11.4323C9.37722 11.2461 9.51802 11.153 9.65883 11.0599C9.79963 10.9668 9.94043 10.9668 10.1282 10.9668C10.269 10.9668 10.4098 11.0133 10.5975 11.0599C10.7383 11.1064 10.8791 11.1995 11.0199 11.2926C11.0669 11.3392 11.0669 11.3392 11.1138 11.3857C11.1607 11.4323 11.1607 11.4323 11.2077 11.4788C11.2546 11.5254 11.2546 11.5719 11.3015 11.5719C11.3485 11.6185 11.3485 11.665 11.3954 11.7116C11.4423 11.8047 11.4893 11.8978 11.5362 12.0375C11.5831 12.1306 11.5831 12.2702 11.6301 12.4099C11.6301 12.5495 11.6301 12.6892 11.5831 12.8288C11.5362 12.9685 11.4423 13.1081 11.3485 13.2478L11.2546 13.3874L10.5506 14.2719L8.3916 12.5495L8.48547 12.4099L9.23642 11.4323Z" fill="#F3744A"/>
<path d="M12.7565 7.52346L12.8973 7.43036L13.0381 7.33726L15.6664 7.89586L14.4461 6.31315L14.5869 6.22005C14.5869 6.22005 14.5869 6.22005 14.6338 6.22005C14.6338 6.22005 14.6338 6.22005 14.6808 6.22005L14.8216 6.12695L16.5581 8.40791L16.4173 8.50101L16.2296 8.45446L13.5544 7.89586L14.8216 9.52511L14.6808 9.61822L14.54 9.71132L12.7565 7.52346Z" fill="#F3744A"/>
<path d="M17.8722 6.03518L17.2151 5.47658L17.3089 6.36103L17.8722 6.03518ZM16.8396 4.77832L16.9804 4.68522L17.0743 4.63867L19.4679 6.68688L19.3271 6.77998C19.3271 6.77998 19.3271 6.77998 19.2802 6.77998C19.2802 6.77998 19.2802 6.77998 19.2332 6.77998C19.2332 6.77998 19.2332 6.77998 19.1863 6.77998L19.0455 6.87308L18.1538 6.03518L17.4028 6.40758L17.5436 7.61788L17.4028 7.71098L17.262 7.80408L16.8396 4.77832Z" fill="#F3744A"/>
<path d="M19.374 4.68394C19.374 4.49774 19.4679 4.31154 19.5148 4.17189C19.6087 3.98569 19.7026 3.84604 19.8903 3.75294C20.078 3.61329 20.2658 3.52019 20.4535 3.42708L20.5943 3.38053H20.6412H20.6882H20.7351H20.7821C20.829 3.38053 20.829 3.38053 20.8759 3.38053C20.9229 3.38053 20.9229 3.38053 20.9698 3.38053C21.0167 3.38053 21.0637 3.38053 21.1575 3.33398C21.2045 3.33398 21.2514 3.33398 21.3453 3.33398C21.3922 3.33398 21.4391 3.33398 21.4861 3.33398C21.533 3.33398 21.5799 3.33398 21.6269 3.38053V3.70639L21.4861 3.75294H21.4391C21.3922 3.70639 21.3453 3.70639 21.2514 3.65984C21.2045 3.65984 21.1575 3.61329 21.0637 3.61329C21.0167 3.61329 20.9698 3.61329 20.8759 3.61329C20.829 3.61329 20.7821 3.61329 20.6882 3.61329H20.6412H20.5943C20.5004 3.65984 20.3596 3.70639 20.2658 3.79949C20.1719 3.89259 20.078 3.98569 20.0311 4.07879C19.9372 4.21844 19.9372 4.35809 19.8903 4.49774C19.8903 4.63739 19.8903 4.82359 19.9372 5.00979V5.05634V5.10289C19.9842 5.33564 20.078 5.52184 20.1719 5.66149C20.2658 5.80114 20.4066 5.89424 20.5004 5.98734C20.6412 6.0339 20.7351 6.08045 20.8759 6.08045C21.0167 6.08045 21.1106 6.08045 21.2514 6.08045C21.2983 6.03389 21.3922 6.0339 21.4391 5.98734C21.4861 5.94079 21.5799 5.89424 21.6269 5.89424C21.6738 5.84769 21.7207 5.80114 21.7677 5.75459C21.8146 5.70804 21.8615 5.66149 21.9085 5.61494L22.0493 5.56839L22.0962 5.80114L22.0493 5.84769L22.0023 5.89424L21.9554 5.94079L21.9085 5.98734C21.8615 5.98734 21.8615 6.03389 21.8146 6.03389C21.7677 6.03389 21.7677 6.08045 21.7207 6.08045C21.7207 6.08045 21.7207 6.08045 21.6738 6.08045C21.6269 6.08045 21.5799 6.127 21.5799 6.127C21.533 6.127 21.533 6.17355 21.4861 6.17355C21.4391 6.17355 21.4391 6.2201 21.3922 6.2201C21.3453 6.2201 21.3453 6.2201 21.2983 6.26665L21.2514 6.3132C21.0637 6.35975 20.8759 6.35975 20.6882 6.35975C20.5004 6.35975 20.3127 6.26665 20.1719 6.2201C19.9842 6.127 19.8434 5.98734 19.7495 5.84769C19.6556 5.70804 19.5618 5.52184 19.4679 5.28909C19.374 5.05634 19.374 4.87014 19.374 4.68394Z" fill="#F3744A"/>
<path d="M22.8942 3.00977C22.9411 3.00977 22.9411 3.00977 22.8942 3.00977H22.988H23.035H23.1758L23.5043 5.84933H23.3635C23.3635 5.84933 23.3635 5.84933 23.3166 5.84933H23.2696H23.2227H23.1758H23.035L22.7064 3.00977H22.8942C22.8472 3.00977 22.8472 3.00977 22.8942 3.00977Z" fill="#F3744A"/>
<path d="M24.8656 4.31187C24.8656 4.54462 24.8656 4.73082 24.9125 4.87047C24.9594 5.05667 25.0064 5.19632 25.1472 5.28943C25.2411 5.38253 25.3349 5.47563 25.4757 5.56873C25.6165 5.61528 25.7104 5.66183 25.8512 5.70838C25.992 5.70838 26.1328 5.66183 26.2267 5.61528C26.3205 5.56873 26.4613 5.47563 26.5552 5.38253C26.6491 5.28943 26.743 5.14977 26.8368 4.96357C26.8838 4.82392 26.9307 4.63772 26.9776 4.40497C26.9776 4.21877 26.9776 4.07912 26.9307 3.89292C26.8838 3.75327 26.8368 3.61362 26.696 3.47397C26.6021 3.38087 26.5083 3.28777 26.3675 3.19467C26.2267 3.10157 26.0389 3.05502 25.8981 3.00847C25.7573 3.00847 25.7104 3.05502 25.5696 3.05502C25.4757 3.10157 25.3819 3.14812 25.288 3.24122C25.1941 3.33432 25.1472 3.42742 25.0533 3.52052C25.0064 3.61362 24.9594 3.75327 24.9125 3.84637C24.9125 3.89292 24.9125 3.89292 24.8656 3.93947C24.8656 3.98602 24.8656 3.98602 24.8186 4.03257C24.8186 4.07912 24.8186 4.07912 24.8186 4.12567C24.8656 4.21877 24.8656 4.26532 24.8656 4.31187ZM24.3024 4.21877C24.3024 4.17222 24.3024 4.17222 24.3024 4.12567V4.07912C24.3493 3.89292 24.3962 3.75327 24.4432 3.61362C24.537 3.47397 24.6309 3.33432 24.7717 3.19467C24.9125 3.05502 25.0533 2.96192 25.2411 2.91537C25.4288 2.86882 25.6635 2.82227 25.8981 2.82227H26.0389C26.2736 2.82227 26.5083 2.86882 26.6491 2.96192C26.8838 3.05502 27.0246 3.14812 27.1184 3.24122C27.2123 3.33432 27.3062 3.47397 27.3531 3.61362C27.4 3.75327 27.447 3.89292 27.4939 3.98602V4.03257V4.07912V4.12567V4.17222C27.4939 4.21877 27.4939 4.21877 27.4939 4.26532C27.4939 4.31187 27.4939 4.31187 27.4939 4.35842C27.4939 4.59117 27.447 4.77737 27.3531 4.96357C27.2592 5.14977 27.1654 5.28943 26.9776 5.42908C26.8368 5.56873 26.6491 5.66183 26.4613 5.70838C26.2736 5.75493 26.0859 5.80148 25.8981 5.75493H25.7573C25.7104 5.75493 25.7104 5.75493 25.6635 5.75493C25.6165 5.75493 25.6165 5.75493 25.5696 5.75493C25.5227 5.75493 25.5227 5.75493 25.4757 5.75493C25.4288 5.75493 25.4288 5.75493 25.3819 5.70838C25.2411 5.66183 25.1472 5.61528 25.0064 5.52218C24.8656 5.42908 24.7717 5.33598 24.6778 5.24287C24.584 5.10322 24.4901 4.96357 24.4432 4.82392C24.3024 4.68427 24.3024 4.49807 24.3024 4.21877C24.3024 4.21877 24.3024 4.26532 24.3024 4.21877Z" fill="#F3744A"/>
<path d="M28.8548 3.24219L28.9956 3.28874L29.1833 3.33529L30.2628 5.7559L30.8729 3.84734L31.0137 3.89389C31.0137 3.89389 31.0137 3.89389 31.0607 3.89389L31.2954 3.98699L30.4505 6.73345L30.3097 6.6869L30.1689 6.64035L29.0425 4.17319L28.4324 6.1283L28.2916 6.08175L28.1508 6.0352L28.8548 3.24219Z" fill="#F3744A"/>
<path d="M33.079 6.5928L33.1729 5.70834L32.4689 6.26695L33.079 6.5928ZM33.5014 5.05664L33.6422 5.14974L33.7361 5.19629L33.3606 8.31515L33.2198 8.1755C33.2198 8.1755 33.2198 8.1755 33.1729 8.1755C33.1729 8.1755 33.1729 8.1755 33.126 8.1755C33.126 8.1755 33.126 8.1755 33.079 8.1755L32.9382 8.0824L33.126 6.8721L32.422 6.45315L31.4833 7.2445L31.3425 7.1514L31.2017 7.0583L33.5014 5.05664Z" fill="#F3744A"/>
<path d="M35.6603 6.40625L35.8011 6.49935V6.5459C35.8011 6.5459 35.8011 6.5459 35.848 6.59245H35.8949C35.8949 6.59245 35.8949 6.59245 35.9419 6.59245L36.0827 6.68555L34.44 8.73376L34.4869 8.78031L34.5338 8.82686L34.5808 8.87341L34.6277 8.91996C34.6277 8.91996 34.6277 8.91996 34.6746 8.91996C34.7216 8.91996 34.6746 8.91996 34.7216 8.91996C34.7216 8.91996 34.7216 8.91996 34.7685 8.91996C34.7685 8.91996 34.7685 8.91996 34.8155 8.91996C34.8624 8.96651 34.9093 8.96651 34.9563 9.01306C35.0032 9.05961 35.0501 9.05961 35.0971 9.10616C35.144 9.15271 35.1909 9.15271 35.1909 9.19926C35.2379 9.19926 35.2379 9.24581 35.2848 9.24581L35.4256 9.33891C35.4256 9.33891 35.4256 9.33891 35.3787 9.33891L35.0032 9.57166L33.8298 8.64066L35.6603 6.40625Z" fill="#F3744A"/>
<path d="M39.0398 9.94565L37.2093 11.4818C37.2093 11.5284 37.2563 11.5284 37.2563 11.5749C37.2563 11.6215 37.3032 11.6215 37.3032 11.668C37.444 11.8077 37.5848 11.9473 37.7256 12.0404C37.8664 12.1335 38.0072 12.1801 38.148 12.1801C38.2888 12.1801 38.4296 12.1801 38.6174 12.1335C38.8051 12.087 38.9459 11.9939 39.1336 11.8542C39.2744 11.7611 39.3683 11.6215 39.4622 11.5284C39.5091 11.4353 39.556 11.2956 39.556 11.2025C39.556 11.1094 39.556 10.9697 39.5091 10.8766C39.4622 10.7835 39.4152 10.6904 39.3683 10.5973C39.3683 10.5973 39.3683 10.5973 39.3683 10.5508C39.3683 10.5508 39.3683 10.5508 39.3683 10.5042V10.4577C39.3683 10.4577 39.3683 10.4577 39.3683 10.4111L39.3214 10.3646L39.2744 10.318C39.2744 10.318 39.2275 10.318 39.2275 10.2715C39.2275 10.2715 39.2275 10.2715 39.1806 10.2249C39.0867 9.9922 39.0867 9.9922 39.0398 9.94565ZM39.7438 10.5042C39.8846 10.6904 39.9785 10.8301 40.0254 11.0163C40.0723 11.156 40.0723 11.3422 40.0254 11.4818C39.9785 11.6215 39.9315 11.7611 39.8377 11.9008C39.7438 12.0404 39.6499 12.1335 39.5091 12.2732C39.4622 12.3197 39.4622 12.3197 39.4152 12.3663C39.3683 12.4128 39.3214 12.4128 39.2744 12.4594C39.2275 12.5059 39.1806 12.5059 39.1336 12.5525C39.0867 12.5525 39.0398 12.599 38.9928 12.599C38.899 12.6456 38.7582 12.6456 38.6643 12.6921C38.5235 12.6921 38.4296 12.6921 38.2888 12.6921C38.148 12.6921 38.0541 12.6456 37.9133 12.5525C37.7725 12.4594 37.6787 12.3663 37.5379 12.2266L37.444 12.087L36.74 11.2025L38.899 9.43359L38.9928 9.57324L39.7438 10.5042Z" fill="#F3744A"/>
<path d="M41.0107 12.1328L41.1046 12.2725L41.8555 13.4362H41.8086C41.8086 13.4362 41.8086 13.4362 41.7617 13.4362C41.7617 13.4362 41.7617 13.4362 41.7147 13.4362H41.527C41.527 13.3897 41.4801 13.3431 41.4801 13.3431C41.4801 13.2966 41.4331 13.25 41.4331 13.25C41.4331 13.2035 41.3862 13.1569 41.3862 13.1569C41.3862 13.1104 41.3393 13.0638 41.3393 13.0638C41.3393 13.0638 41.3393 13.0638 41.3393 13.0173C41.3393 13.0173 41.3393 13.0173 41.3393 12.9707C41.3393 12.9707 41.3393 12.9707 41.3393 12.9242C41.3393 12.9242 41.3393 12.9242 41.3393 12.8776C41.3393 12.8776 41.3393 12.8776 41.3393 12.8311C41.3393 12.8311 41.3393 12.8311 41.3393 12.7845L41.2923 12.738L41.2454 12.6914L40.4475 13.2035L40.6822 13.5759L40.9169 13.8552L41.0107 13.9948C41.0107 13.9948 41.0107 13.9948 40.9638 13.9948C40.9638 13.9948 40.9638 13.9948 40.9169 13.9948C40.9169 13.9948 40.9169 13.9948 40.8699 13.9948C40.8699 13.9948 40.8699 13.9948 40.823 13.9948C40.823 13.9948 40.823 13.9948 40.823 14.0414C40.823 14.0414 40.823 14.0414 40.776 14.0879L40.6822 13.9483L40.4475 13.5293L40.119 13.3431L39.1803 13.9483V13.9948C39.1803 13.9948 39.1803 14.0414 39.2272 14.0414C39.2272 14.0414 39.2272 14.0879 39.2742 14.0879C39.2742 14.0879 39.2742 14.1345 39.3211 14.1345C39.3211 14.1345 39.3211 14.1345 39.3211 14.181C39.3211 14.181 39.3211 14.181 39.3211 14.2276C39.3211 14.2276 39.3211 14.2276 39.3211 14.2741C39.368 14.3207 39.368 14.3672 39.415 14.4138C39.4619 14.4603 39.4619 14.5069 39.5088 14.5534C39.5558 14.6 39.5558 14.6 39.6027 14.6465C39.6496 14.6465 39.6496 14.6931 39.6966 14.6931L39.7904 14.8327H39.7435H39.6966C39.6966 14.8327 39.6966 14.8327 39.6496 14.8327C39.6496 14.8327 39.6496 14.8327 39.6027 14.8327C39.6027 14.8327 39.6027 14.8327 39.5558 14.8327C39.5558 14.8327 39.5558 14.8327 39.5088 14.8327L39.415 14.6931L38.7109 13.669L41.0107 12.1328Z" fill="#F3744A"/>
<path d="M43.0291 15.5299C43.0291 15.5765 43.076 15.5765 43.0291 15.5299C43.076 15.5765 43.076 15.5765 43.0291 15.5299C43.0291 15.5765 43.0291 15.5765 43.0291 15.5299C43.0291 15.5765 43.0291 15.6231 43.076 15.6231C43.076 15.6231 43.076 15.623 43.123 15.6696L43.2168 15.8093L40.7293 17.0661L40.6354 16.9265C40.6354 16.9265 40.6354 16.9265 40.6354 16.8799V16.8334C40.6354 16.8334 40.6354 16.7868 40.5885 16.7868C40.5885 16.7868 40.5885 16.7868 40.5885 16.7403L40.4946 16.6006L42.9821 15.3438L43.0291 15.5299Z" fill="#F3744A"/>
<path d="M43.7331 16.8809L43.7801 17.0205L43.8739 17.2067L42.7475 19.4877L44.531 18.7429L44.5779 18.8825C44.5779 18.8825 44.5779 18.8825 44.5779 18.9291C44.5779 18.9291 44.5779 18.9291 44.5779 18.9756L44.6249 19.1153L42.0435 20.1859L41.9966 20.0463V19.8601L43.1699 17.5326L41.3395 18.2774L41.2925 18.1377L41.2456 17.9981L43.7331 16.8809Z" fill="#F3744A"/>
<path d="M44.2495 20.4648C44.4372 20.4648 44.5781 20.5114 44.6719 20.5579C44.8127 20.6045 44.9066 20.6976 45.0005 20.7441C45.0943 20.8372 45.1882 20.8838 45.2351 20.9769C45.2821 21.0234 45.2821 21.07 45.329 21.1165C45.3759 21.1631 45.3759 21.2096 45.4229 21.2562C45.4229 21.3027 45.4698 21.3493 45.4698 21.3958C45.4698 21.4424 45.5167 21.4889 45.5167 21.5355L45.5637 21.6751C45.5637 21.7682 45.6106 21.8148 45.6106 21.9079C45.6106 22.001 45.6575 22.0941 45.6575 22.1407C45.6575 22.2338 45.6575 22.3269 45.6575 22.42C45.6575 22.5131 45.6575 22.6062 45.6106 22.6993L45.2351 22.6527L45.1882 22.5131V22.4665C45.1882 22.4665 45.1882 22.42 45.2351 22.42C45.2351 22.42 45.2351 22.3734 45.2821 22.3734C45.2821 22.3734 45.2821 22.3269 45.329 22.3269C45.329 22.2803 45.3759 22.2337 45.3759 22.1872C45.3759 22.1406 45.3759 22.0941 45.4229 22.001C45.4229 21.9544 45.4229 21.9079 45.4229 21.8613C45.4229 21.8148 45.4229 21.7682 45.3759 21.6751V21.6286V21.582C45.3759 21.5355 45.3759 21.5355 45.329 21.4889C45.329 21.4424 45.2821 21.4424 45.2821 21.3958C45.2351 21.3027 45.1413 21.2562 45.0943 21.1631C45.0005 21.1165 44.9066 21.0234 44.8127 20.9769C44.7189 20.9303 44.5781 20.8838 44.4372 20.8838C44.2964 20.8838 44.1556 20.8838 43.9679 20.9303C43.7802 20.9769 43.5924 21.07 43.4516 21.1631C43.3108 21.2562 43.217 21.3493 43.1231 21.4889C43.0292 21.6286 42.9823 21.7217 42.9823 21.8613C42.9823 22.001 42.9823 22.1406 42.9823 22.2803C42.9823 22.3269 43.0292 22.3734 43.0292 22.42C43.0292 22.4665 43.0762 22.5131 43.0762 22.5596C43.1231 22.6062 43.1231 22.6527 43.17 22.6993C43.217 22.7458 43.217 22.7458 43.2639 22.7924L44.2964 22.5131L44.3434 22.6527V22.6993V22.7458V23.0717L43.217 23.3975C43.217 23.3975 43.217 23.3975 43.17 23.351C43.17 23.351 43.17 23.3044 43.1231 23.3044L43.0762 23.2579C43.0762 23.2579 43.0762 23.2113 43.0292 23.2113C43.0292 23.1648 42.9823 23.1182 42.9823 23.0717C42.9823 23.0251 42.9354 22.9786 42.9354 22.932C42.9354 22.8855 42.8884 22.8389 42.8884 22.7924C42.8884 22.7458 42.8415 22.6993 42.8415 22.6527C42.8415 22.6062 42.7945 22.5596 42.7945 22.5596C42.7945 22.5131 42.7946 22.5131 42.7476 22.4665L42.7007 22.3269C42.6537 22.1407 42.6068 21.9079 42.6068 21.7217C42.6068 21.5355 42.6537 21.3493 42.7476 21.2096C42.8415 21.07 42.9354 20.9303 43.1231 20.7907C43.2639 20.6976 43.4516 20.6045 43.6394 20.5579C43.874 20.5114 44.0618 20.4648 44.2495 20.4648Z" fill="#F3744A"/>
<path d="M45.9859 23.7715L46.0329 23.9111L46.3145 25.2611H46.2675C46.2675 25.2611 46.2675 25.2611 46.2206 25.2611H46.1737C46.1737 25.2611 46.1737 25.2611 46.1267 25.2611L46.0798 25.1214C46.0798 25.0749 46.0798 25.0283 46.0798 25.0283C46.0798 24.9818 46.0798 24.9352 46.0798 24.8887C46.0798 24.8421 46.0798 24.7956 46.0798 24.749C46.0798 24.7025 46.0798 24.6559 46.0798 24.6094C46.0798 24.6094 46.0798 24.6094 46.0798 24.5628C46.0798 24.5628 46.0798 24.5628 46.0798 24.5163C46.0798 24.5163 46.0798 24.5163 46.0798 24.4697C46.0798 24.4697 46.0798 24.4697 46.0798 24.4232C46.0798 24.4232 46.0798 24.4232 46.0798 24.3766V24.3301C46.0798 24.3301 46.0798 24.3301 46.0798 24.2835C46.0798 24.2835 46.0798 24.2835 46.0798 24.237V24.1904V24.1439L45.1411 24.3301L45.235 24.749L45.3288 25.0749L45.3758 25.2145H45.3288C45.3288 25.2145 45.3288 25.2145 45.2819 25.2145C45.2819 25.2145 45.2819 25.2145 45.235 25.2145C45.235 25.2145 45.235 25.2145 45.188 25.2145C45.188 25.2145 45.188 25.2145 45.1411 25.2145C45.1411 25.2145 45.1411 25.2145 45.0942 25.2145L45.0472 25.0749L45.0003 24.6094L44.9534 24.2835L43.827 24.5163V24.5628V24.6094V24.6559V24.7025V24.749C43.827 24.749 43.827 24.749 43.827 24.7956C43.827 24.7956 43.827 24.7956 43.827 24.8421C43.827 24.8421 43.827 24.8421 43.827 24.8887C43.827 24.9352 43.8739 24.9818 43.8739 25.0283C43.8739 25.0749 43.9208 25.1214 43.9208 25.168C43.9208 25.2145 43.9678 25.2611 43.9678 25.3076C43.9678 25.3542 43.9678 25.4007 44.0147 25.4007L44.0616 25.5404H44.0147H43.9678C43.9678 25.5404 43.9678 25.5404 43.9208 25.5404C43.9208 25.5404 43.9208 25.5404 43.8739 25.5404C43.8739 25.5404 43.8739 25.5404 43.827 25.5404C43.827 25.5404 43.827 25.5404 43.78 25.5404C43.78 25.5404 43.78 25.5404 43.7331 25.5404L43.6861 25.4007L43.4045 24.0042L45.9859 23.7715Z" fill="#F3744A"/>
<path d="M46.5022 26.2832V26.4229V26.6091L44.7187 28.4711L46.643 28.2849V28.4245C46.643 28.4245 46.643 28.4245 46.643 28.4711V28.6107L43.8739 28.89V28.7504V28.6107L45.7513 26.7487L43.78 26.9349V26.7953V26.6556L46.5022 26.2832Z" fill="#F3744A"/>
<path d="M46.7839 30.1003C46.737 30.1003 46.737 30.1003 46.7839 30.1003C46.737 30.1003 46.737 30.1003 46.7839 30.1003C46.7839 30.1468 46.7839 30.1468 46.7839 30.1003V30.1934V30.2399V30.3796L44.0148 30.4261V30.2865C44.0148 30.2865 44.0148 30.2865 44.0148 30.2399V30.1934V30.1468V30.1003V29.9606L46.7839 29.9141V30.1003C46.7839 30.0537 46.7839 30.0537 46.7839 30.1003Z" fill="#F3744A"/>
<path d="M46.7368 31.4505V31.5902V32.9867H46.6899C46.6899 32.9867 46.6899 32.9867 46.643 32.9867H46.596C46.596 32.9867 46.596 32.9867 46.5491 32.9867V32.847C46.5491 32.8005 46.5491 32.7539 46.5491 32.7539C46.5491 32.7074 46.5491 32.6608 46.5491 32.6143C46.5491 32.5677 46.5491 32.5212 46.5491 32.4746C46.5491 32.4281 46.5491 32.3815 46.5491 32.335C46.5491 32.335 46.5491 32.335 46.5491 32.2884C46.5491 32.2884 46.5491 32.2884 46.5491 32.2419C46.5491 32.2419 46.5491 32.2419 46.5491 32.1953C46.5491 32.1953 46.5491 32.1953 46.5491 32.1488C46.5491 32.1488 46.5491 32.1488 46.5491 32.1022V32.0557C46.5491 32.0557 46.5491 32.0557 46.5491 32.0091C46.5491 31.9626 46.5491 32.0091 46.5491 31.9626V31.916V31.8695H45.5635V32.2884L45.6104 32.6608V32.8005H45.5635C45.5635 32.8005 45.5635 32.8005 45.5165 32.8005C45.5165 32.8005 45.5165 32.8005 45.4696 32.8005C45.4696 32.8005 45.4696 32.8005 45.4227 32.8005C45.4227 32.8005 45.4227 32.8005 45.3757 32.8005H45.3288V32.6608L45.3757 32.1953V31.8695H44.2493V31.916V31.9626V32.0091V32.0557V32.1022C44.2493 32.1022 44.2493 32.1022 44.2493 32.1488C44.2493 32.1488 44.2493 32.1488 44.2493 32.1953C44.2493 32.1953 44.2493 32.1953 44.2493 32.2419C44.2493 32.2884 44.2493 32.335 44.2493 32.3815C44.2493 32.4281 44.2493 32.4746 44.2493 32.5212C44.2493 32.5677 44.2493 32.6143 44.2493 32.6608C44.2493 32.7074 44.2493 32.7539 44.2493 32.7539V32.8936H44.2024H44.1554C44.1554 32.8936 44.1554 32.8936 44.1085 32.8936C44.0616 32.8936 44.1085 32.8936 44.0616 32.8936C44.0146 32.8936 44.0616 32.8936 44.0146 32.8936C43.9677 32.8936 44.0146 32.8936 43.9677 32.8936C43.9677 32.8936 43.9677 32.8936 43.9208 32.8936V32.7539V31.3574L46.7368 31.4505Z" fill="#F3744A"/>
<path d="M45.3757 34.3851C45.3757 34.4317 45.3757 34.4317 45.3757 34.3851C45.3757 34.5248 45.3757 34.5713 45.3757 34.6644C45.3757 34.7575 45.4227 34.8041 45.4227 34.8506C45.4696 34.8972 45.4696 34.9437 45.5165 34.9903C45.5635 35.0368 45.6104 35.0834 45.6104 35.0834C45.6573 35.0834 45.6573 35.1299 45.7043 35.1299C45.7512 35.1299 45.7512 35.1299 45.7981 35.1765C45.8451 35.1765 45.8451 35.1765 45.892 35.1765H45.9389H45.9859H46.0328H46.0797C46.0797 35.1765 46.1267 35.1765 46.1736 35.1299C46.2206 35.1299 46.2675 35.0834 46.2675 35.0834C46.2675 35.0834 46.3144 35.0368 46.3614 34.9903C46.4083 34.9437 46.4083 34.8972 46.4552 34.8506C46.4552 34.8041 46.5022 34.711 46.5022 34.6179V34.4317L45.3757 34.3851C45.4227 34.3851 45.4227 34.3851 45.3757 34.3851ZM46.7368 33.9661V34.1058L46.643 35.0368C46.643 35.1765 46.596 35.2696 46.5491 35.3627C46.5022 35.4558 46.4552 35.5489 46.4083 35.5954C46.3614 35.642 46.2675 35.6885 46.1736 35.7351C46.0797 35.7351 45.9859 35.7816 45.892 35.7351C45.7981 35.7351 45.7043 35.6885 45.6573 35.6885C45.5635 35.642 45.5165 35.5954 45.4696 35.5489C45.4227 35.5023 45.3757 35.4558 45.3288 35.3627C45.2819 35.3161 45.2819 35.223 45.2349 35.1765C45.2349 35.1299 45.2349 35.1299 45.188 35.0834C45.188 35.0368 45.188 35.0368 45.188 34.9903C45.188 34.9437 45.188 34.9437 45.188 34.8972C45.188 34.8506 45.188 34.8506 45.188 34.8041L43.733 35.7351V35.5954C43.733 35.5954 43.733 35.5954 43.733 35.5489C43.733 35.5023 43.733 35.5489 43.733 35.5023C43.733 35.5023 43.733 35.5023 43.733 35.4558C43.733 35.4558 43.733 35.4558 43.733 35.4092V35.3627V35.3161V35.1765L45.0941 34.3385L43.8269 34.2455V34.1058V34.0592V34.0127V33.873L46.7368 33.9661Z" fill="#F3744A"/>
<path d="M46.3614 37.1305C46.3614 37.1771 46.3614 37.1771 46.3614 37.1305C46.3614 37.1771 46.3614 37.1771 46.3614 37.1305V37.2236V37.2702V37.4098L43.5923 36.9909L43.6392 36.8512C43.6392 36.8512 43.6392 36.8512 43.6392 36.8047V36.7581V36.7116V36.665L43.6862 36.5254L46.4553 36.9443L46.3614 37.1305C46.4083 37.1305 46.4083 37.1305 46.3614 37.1305Z" fill="#F3744A"/>
<path d="M44.437 39.4574L45.2818 39.3177L44.5778 38.8522L44.437 39.4574ZM45.9858 39.4574L45.9389 39.597V39.6901L42.9351 40.2022L42.982 40.0625C42.982 40.0625 42.982 40.0625 42.982 40.016C42.982 40.016 42.982 40.016 42.982 39.9694C42.982 39.9694 42.982 39.9694 42.982 39.9229C42.982 39.9229 42.982 39.9229 42.982 39.8763L43.0289 39.7367L44.2023 39.5505L44.39 38.8057L43.4044 38.1074L43.4513 37.9678L43.4983 37.8281L45.9858 39.4574Z" fill="#F3744A"/>
<path d="M10.363 44.8105L10.4568 44.9502V44.9967V45.0433C10.4568 45.0433 10.4568 45.0433 10.5038 45.0898L10.5976 45.2295L8.34478 46.4398V46.4863C8.34478 46.4863 8.34478 46.5329 8.39171 46.5329C8.39171 46.5329 8.39171 46.5794 8.43865 46.5794C8.43865 46.5794 8.43865 46.626 8.48558 46.626C8.48558 46.626 8.48558 46.626 8.48558 46.6725C8.48558 46.6725 8.48558 46.6725 8.48558 46.7191C8.48558 46.7191 8.48558 46.7191 8.48558 46.7656C8.48558 46.7656 8.48558 46.7656 8.48558 46.8122C8.53252 46.8587 8.53252 46.9053 8.57945 46.9518C8.62638 46.9984 8.62638 47.0449 8.67332 47.0915C8.72025 47.138 8.72025 47.1846 8.76719 47.1846C8.76719 47.2311 8.81412 47.2311 8.81412 47.2777L8.90799 47.4173C8.90799 47.4173 8.90799 47.4173 8.86106 47.4173L8.76719 47.2777L8.11011 46.1139L10.363 44.8105Z" fill="#F3744A"/>
<path d="M11.63 46.9518C11.63 46.9984 11.63 46.9984 11.63 46.9518C11.63 46.9984 11.63 46.9984 11.63 46.9518C11.63 46.9984 11.63 46.9984 11.677 47.0449C11.677 47.0449 11.677 47.0449 11.7239 47.0915L11.8178 47.2311L9.518 48.7673L9.42413 48.6276C9.42413 48.6276 9.42413 48.6276 9.42413 48.5811V48.5345C9.42413 48.5345 9.42413 48.5345 9.37719 48.488C9.37719 48.488 9.37719 48.488 9.37719 48.4414L9.28333 48.3018L11.5362 46.7656L11.63 46.9518C11.5831 46.9518 11.5831 46.9053 11.63 46.9518Z" fill="#F3744A"/>
<path d="M12.334 48.0234L12.4748 48.1631L12.5686 48.2562L11.7238 50.2578L13.8359 49.6992L13.9297 49.7923L14.0236 49.8854L12.0993 51.9337L12.0054 51.8406C12.0054 51.8406 12.0054 51.8406 11.9585 51.794V51.7475C11.9585 51.7475 11.9116 51.7475 11.9116 51.7009L11.8646 51.6544L11.7708 51.5613L13.038 50.2578L11.1606 50.7699L11.0667 50.6768L11.0198 50.6302L11.7708 48.9079L10.3158 49.932L10.2219 49.8389C10.2219 49.8389 10.2219 49.8389 10.2219 49.7923L10.1281 49.6992L12.334 48.0234Z" fill="#F3744A"/>
<path d="M14.7277 52.4434L14.9623 51.652L14.2114 52.071L14.7277 52.4434ZM15.3847 51.0469L15.5255 51.14L15.5725 51.1865L14.7277 54.0726L14.5868 53.9795C14.5868 53.9795 14.5869 53.9795 14.5399 53.9795L14.3991 53.8864L14.7746 52.7692L14.1644 52.3037L13.1788 52.9554L13.038 52.8623L12.8972 52.7692L15.3847 51.0469Z" fill="#F3744A"/>
<path d="M19.6089 53.7959C19.7028 53.7959 19.7497 53.7494 19.8436 53.7494C19.9375 53.7494 19.9844 53.7494 20.0313 53.7028C20.0783 53.7028 20.1721 53.6562 20.2191 53.6562L20.3599 53.7028L20.4537 53.7494L19.6559 56.3562L19.5151 56.3096H19.4681C19.4681 56.3096 19.4681 56.3096 19.4212 56.3096H19.3743H19.3273L19.1865 56.2631L19.8905 54.0287L19.6089 54.1218L19.4681 54.0752C19.4681 54.0752 19.4681 54.0752 19.4681 54.0287C19.4681 53.7959 19.5151 53.7959 19.6089 53.7959Z" fill="#F3744A"/>
<path d="M22.3781 54.8652C22.3781 54.9583 22.3781 55.0049 22.3781 55.0514C22.3781 55.098 22.425 55.1445 22.425 55.1911C22.4719 55.2376 22.4719 55.2842 22.5189 55.2842C22.5658 55.3307 22.6127 55.3307 22.6597 55.3307C22.7066 55.3307 22.7535 55.3307 22.8005 55.2842C22.8474 55.2842 22.8943 55.2376 22.8943 55.1911C22.9413 55.1445 22.9413 55.098 22.9882 55.0514C22.9882 55.0049 23.0351 54.9583 23.0351 54.8652C23.0351 54.8187 23.0351 54.7256 23.0351 54.679C23.0351 54.6325 22.9882 54.5394 22.9882 54.4928C22.9882 54.4463 22.9413 54.3997 22.8943 54.3997C22.8474 54.3532 22.8005 54.3532 22.7535 54.3532C22.7066 54.3532 22.6597 54.3532 22.6127 54.3997C22.5658 54.3997 22.5189 54.4463 22.5189 54.4928C22.4719 54.5394 22.4719 54.5859 22.425 54.6325C22.425 54.7256 22.3781 54.7721 22.3781 54.8652ZM22.0965 56.1221C22.0965 56.2152 22.0965 56.3083 22.0965 56.4014C22.0965 56.4945 22.1434 56.5411 22.1434 56.5876C22.1903 56.6342 22.1903 56.6807 22.2373 56.7273C22.2842 56.7738 22.3311 56.7738 22.425 56.8204C22.4719 56.8204 22.5189 56.8204 22.5658 56.7738C22.6127 56.7738 22.6597 56.7273 22.7066 56.6807C22.7535 56.6342 22.8005 56.5876 22.8005 56.5411C22.8474 56.4945 22.8474 56.448 22.8943 56.3549C22.8943 56.3549 22.8943 56.3549 22.8943 56.3083C22.8943 56.3083 22.8943 56.3083 22.8943 56.2618C22.8943 56.2152 22.8943 56.1221 22.8943 56.0755C22.8943 56.029 22.8474 55.9359 22.8474 55.8893C22.8005 55.8428 22.8005 55.7962 22.7535 55.7497C22.7066 55.7031 22.6597 55.7031 22.6127 55.6566C22.5658 55.6566 22.5189 55.6566 22.4719 55.6566C22.425 55.6566 22.3781 55.7031 22.3311 55.7497C22.2842 55.7962 22.2373 55.8428 22.2373 55.8893C22.2373 55.9359 22.1903 55.9825 22.1434 56.029L22.0965 56.1221C22.0965 56.0755 22.0965 56.0755 22.0965 56.1221ZM22.0965 55.2842C22.0495 55.2376 22.0026 55.1911 22.0026 55.1445C22.0026 55.098 21.9557 55.0049 21.9557 54.9583C21.9557 54.9118 21.9557 54.8187 21.9557 54.7721C21.9557 54.679 22.0026 54.6325 22.0495 54.5859C22.0965 54.5394 22.1434 54.4463 22.1903 54.3997C22.2373 54.3532 22.3311 54.3066 22.425 54.3066C22.5189 54.3066 22.6127 54.3066 22.7535 54.3066H22.8943C23.0351 54.3066 23.129 54.3532 23.176 54.3997C23.2698 54.4463 23.3168 54.4928 23.3637 54.5859C23.4106 54.679 23.4576 54.7256 23.4576 54.8187C23.4576 54.9118 23.5045 54.9583 23.4576 55.0514C23.4576 55.098 23.4106 55.1911 23.4106 55.2376C23.3637 55.2842 23.3637 55.3307 23.3168 55.3773C23.2698 55.4238 23.2229 55.4704 23.176 55.5169C23.129 55.5635 23.0352 55.5635 22.9882 55.5635C23.0821 55.61 23.176 55.61 23.2229 55.6566C23.2698 55.7031 23.3637 55.7497 23.3637 55.8428C23.4106 55.9359 23.4106 55.9824 23.4576 56.0755C23.4576 56.1687 23.4576 56.2152 23.4576 56.3083C23.4576 56.4014 23.4106 56.4945 23.3637 56.5876C23.3168 56.6807 23.2698 56.7273 23.176 56.8204C23.0821 56.9135 22.9882 56.96 22.8943 56.96C22.8005 57.0066 22.6597 57.0066 22.5658 56.96H22.425C22.2842 56.96 22.1434 56.9135 22.0495 56.8669C21.9557 56.8204 21.8618 56.7273 21.8149 56.6807C21.7679 56.5876 21.721 56.4945 21.6741 56.4014C21.6741 56.3083 21.6271 56.2152 21.6741 56.1221C21.6741 56.029 21.721 55.9824 21.7679 55.8893C21.8149 55.7962 21.8618 55.7497 21.9087 55.6566C21.9557 55.5635 22.0495 55.5169 22.0965 55.5169C22.1903 55.4704 22.2373 55.4704 22.3311 55.4704C22.1903 55.3307 22.1434 55.3307 22.0965 55.2842Z" fill="#F3744A"/>
<path d="M26.3675 54.4001V54.5397C26.3206 54.6328 26.2737 54.7259 26.2267 54.819C26.1798 54.9121 26.1329 55.0052 26.039 55.1449C25.9921 55.1914 25.9921 55.238 25.9451 55.2845C25.8982 55.3311 25.8982 55.3776 25.8513 55.4242C25.8043 55.4707 25.8043 55.5173 25.7574 55.5638C25.7105 55.6104 25.7105 55.6569 25.6635 55.7035C25.6166 55.7966 25.5697 55.8897 25.5227 56.0293C25.4758 56.1224 25.4289 56.2155 25.3819 56.3552C25.335 56.4017 25.335 56.4483 25.2881 56.4948C25.2411 56.5414 25.2411 56.5879 25.1942 56.6345C25.1473 56.681 25.1473 56.7276 25.1003 56.7741C25.0534 56.8207 25.0534 56.8672 25.0065 56.9138H24.8656H24.8187H24.7718V56.9138C24.7718 56.9138 24.7718 56.9138 24.7248 56.9138C24.7248 56.9138 24.7248 56.9138 24.6779 56.9138C24.6779 56.9138 24.6779 56.9138 24.631 56.9138C24.631 56.9138 24.631 56.9138 24.584 56.9138H24.5371L25.8513 54.5397L24.6779 54.6328H24.5371C24.5371 54.6328 24.5371 54.6328 24.5371 54.5863C24.5371 54.5863 24.5371 54.5863 24.5371 54.5397V54.4932V54.4466V54.4001V54.3535H24.6779L26.3675 54.4001Z" fill="#F3744A"/>
<path d="M28.0102 56.0762C28.0102 56.0762 28.0102 56.1227 28.0102 56.0762C28.0102 56.1227 28.0102 56.1227 28.0102 56.0762C28.0102 56.1227 28.0102 56.1227 28.0102 56.1693C28.0102 56.1693 28.0102 56.1693 28.0102 56.2158V56.2624V56.309C28.0102 56.3555 28.0571 56.4486 28.104 56.4952C28.151 56.5417 28.1979 56.5882 28.2448 56.6348C28.2918 56.6813 28.3387 56.6814 28.3856 56.7279C28.4326 56.7279 28.4795 56.7745 28.5264 56.7745C28.5734 56.7745 28.6203 56.7279 28.6672 56.6813C28.7142 56.6348 28.7142 56.5883 28.7611 56.5417C28.8081 56.4952 28.8081 56.4486 28.8081 56.3555C28.8081 56.3089 28.855 56.2158 28.855 56.1693C28.855 56.1693 28.855 56.1693 28.855 56.1227C28.855 56.1227 28.855 56.1227 28.855 56.0762C28.855 56.0762 28.855 56.0762 28.855 56.0297C28.855 56.0297 28.855 56.0296 28.855 55.9831V55.9365V55.89C28.855 55.7969 28.8081 55.7038 28.7611 55.6572C28.7142 55.5641 28.6672 55.5176 28.6203 55.471C28.5734 55.4245 28.5264 55.4245 28.4795 55.3779C28.4326 55.3779 28.3856 55.3314 28.3387 55.3314C28.2918 55.3314 28.2448 55.3779 28.1979 55.4245C28.151 55.471 28.104 55.5176 28.104 55.5641C28.0571 55.6107 28.0571 55.7038 28.0102 55.7503C27.9632 55.9365 27.9632 55.9831 28.0102 56.0762ZM27.4 55.1452C27.447 54.959 27.4939 54.7728 27.5878 54.6331C27.6816 54.4935 27.7755 54.4004 27.8694 54.3073C27.9632 54.2142 28.104 54.1676 28.2448 54.1676L28.3856 54.1211C28.3856 54.1211 28.3856 54.1211 28.4326 54.1211C28.4326 54.1211 28.4326 54.1211 28.4795 54.1211C28.4795 54.1211 28.4795 54.1211 28.5264 54.1211C28.5734 54.1211 28.5264 54.1211 28.5734 54.1211C28.5734 54.1211 28.5734 54.1211 28.6203 54.1211C28.6672 54.1211 28.6203 54.1211 28.6672 54.1211L28.7142 54.2607L28.5734 54.3073H28.5264H28.4795C28.3856 54.3538 28.2918 54.4004 28.2448 54.4469C28.1979 54.54 28.104 54.5866 28.0571 54.7262C28.0102 54.8193 27.9632 54.959 27.9632 55.0521C27.9632 55.1917 27.9632 55.3314 27.9632 55.471C27.9632 55.471 27.9632 55.471 28.0102 55.471C28.0571 55.4245 28.104 55.4245 28.151 55.3779C28.1979 55.3314 28.2448 55.3314 28.3387 55.3314L28.4795 55.2848C28.5734 55.2848 28.6672 55.2848 28.7611 55.2848C28.855 55.2848 28.9489 55.3314 29.0427 55.3779C29.1366 55.4245 29.1835 55.5176 29.2305 55.5641C29.2774 55.6572 29.3243 55.7503 29.3243 55.89C29.3243 55.9831 29.3243 56.1227 29.3243 56.2158C29.3243 56.3089 29.2774 56.4021 29.2305 56.4952C29.1835 56.5883 29.0897 56.6814 28.9958 56.7279C28.9019 56.7745 28.8081 56.821 28.6672 56.8676L28.5264 56.9141C28.4326 56.9141 28.2918 56.9141 28.1979 56.9141C28.104 56.8675 28.0102 56.821 27.9163 56.7745C27.8224 56.6814 27.7286 56.5883 27.6816 56.4952C27.6347 56.3555 27.5878 56.2159 27.5408 56.0297V55.9831C27.4 55.6107 27.4 55.3779 27.4 55.1452Z" fill="#F3744A"/>
<path d="M35.4258 52.3529C35.5197 52.3063 35.5666 52.2598 35.6135 52.1667C35.6605 52.1201 35.6605 52.027 35.6605 51.9339C35.6605 51.8408 35.6605 51.7943 35.6605 51.7012C35.6605 51.6081 35.6135 51.5615 35.5666 51.515C35.5197 51.4684 35.4727 51.4219 35.4258 51.3753C35.3789 51.3288 35.3319 51.3288 35.2381 51.2822C35.1911 51.2822 35.0973 51.2822 35.0503 51.2822C35.0034 51.2822 34.9095 51.3288 34.8626 51.3753L35.0034 51.2822L34.8626 51.3753L34.6279 51.515L35.3319 52.446L35.4258 52.3529ZM34.9095 51.0495C35.0034 50.9564 35.0972 50.9098 35.1911 50.9098C35.285 50.8633 35.3789 50.8633 35.4727 50.8633C35.5666 50.8633 35.6135 50.9098 35.7074 50.9564C35.8013 51.0029 35.8482 51.0495 35.8951 51.1426C35.989 51.2357 36.0359 51.3288 36.0359 51.4219C36.0829 51.515 36.0829 51.6081 36.0359 51.7012C36.0359 51.7943 35.989 51.8874 35.9421 51.9339C35.8951 52.027 35.8482 52.0736 35.8013 52.1667C35.8013 52.2132 35.7543 52.2132 35.7543 52.2598L35.7074 52.3063L35.6605 52.3529L35.6135 52.3994L35.4727 52.4925L35.4258 52.5391C35.4258 52.5391 35.3789 52.5391 35.3789 52.5856L36.1298 53.5632L35.989 53.6563C35.989 53.6563 35.9421 53.6563 35.9421 53.7028C35.9421 53.7028 35.9421 53.7028 35.8951 53.7028C35.8951 53.7028 35.8951 53.7028 35.8482 53.7494C35.8482 53.7494 35.8013 53.7494 35.8013 53.7959L35.6605 53.889L33.9708 51.7012L34.1116 51.6081L34.9095 51.0495Z" fill="#F3744A"/>
<path d="M35.9888 50.2113L36.0826 50.1182L37.0683 49.1406C37.0683 49.1406 37.0683 49.1406 37.0683 49.1872C37.0683 49.1872 37.0683 49.1872 37.0683 49.2337C37.0683 49.2337 37.0683 49.2337 37.1152 49.2803C37.1152 49.2803 37.1152 49.2803 37.1621 49.2803L37.0683 49.3734C37.0213 49.3734 37.0213 49.4199 36.9744 49.4199C36.9275 49.4199 36.9275 49.4665 36.8805 49.513C36.8336 49.5596 36.8336 49.5596 36.7867 49.6061C36.7397 49.6527 36.7397 49.6527 36.6928 49.6992C36.6928 49.6992 36.6928 49.6992 36.6458 49.7458C36.6458 49.7458 36.6458 49.7458 36.6458 49.7923C36.6458 49.8389 36.6458 49.7923 36.6458 49.7923L36.5989 49.8389L36.552 49.8854L37.256 50.5837L37.5376 50.3044L37.7723 50.0251L37.8661 49.932C37.8661 49.932 37.8661 49.932 37.8661 49.9785C37.8661 49.9785 37.8661 49.9785 37.8661 50.0251C37.8661 50.0251 37.8661 50.0251 37.8661 50.0716C37.8661 50.0716 37.8661 50.0716 37.9131 50.0716C37.9131 50.0716 37.9131 50.0716 37.96 50.0716L37.8661 50.1647L37.5376 50.444L37.3029 50.6768L38.1008 51.4681C38.1008 51.4681 38.1477 51.4681 38.1477 51.4216L38.1947 51.375L38.2416 51.3285L38.2885 51.2819C38.2885 51.2819 38.2885 51.2819 38.3355 51.2819C38.3355 51.2819 38.3355 51.2819 38.3355 51.2354C38.3824 51.1888 38.3824 51.1423 38.4294 51.1423C38.4763 51.0957 38.4763 51.0492 38.5232 51.0492C38.5702 51.0026 38.5702 51.0026 38.6171 50.9561C38.664 50.9095 38.664 50.9095 38.664 50.863L38.7579 50.7699C38.7579 50.7699 38.7579 50.7699 38.7579 50.8164C38.7579 50.8164 38.7579 50.8164 38.7579 50.863C38.7579 50.863 38.7579 50.863 38.7579 50.9095C38.7579 50.9095 38.7579 50.9095 38.8048 50.9095C38.8048 50.9095 38.8048 50.9095 38.8518 50.9095L38.7579 51.0026L37.7723 51.9802L35.9888 50.2113Z" fill="#F3744A"/>
<path d="M38.8519 49.0007C38.8988 49.0007 38.8988 48.9541 38.8519 49.0007C38.9458 48.9076 38.9927 48.8145 38.9927 48.7679C39.0396 48.7214 39.0396 48.6283 39.0396 48.5817C39.0396 48.5352 39.0396 48.4421 39.0396 48.3955C39.0396 48.349 39.0396 48.3024 38.9927 48.2559C38.9927 48.2093 38.9457 48.2093 38.9457 48.1628C38.9457 48.1162 38.8988 48.1162 38.8988 48.1162L38.8519 48.0697L38.8049 48.0231C38.8049 48.0231 38.8049 48.0231 38.758 47.9766C38.7111 47.93 38.7111 47.9766 38.7111 47.93C38.7111 47.93 38.6641 47.93 38.6641 47.8835C38.6641 47.8835 38.6172 47.8835 38.5703 47.8835C38.5233 47.8835 38.4764 47.8835 38.4295 47.8835C38.3825 47.8835 38.3356 47.8835 38.2887 47.93C38.2417 47.93 38.1948 47.9766 38.1479 48.0231C38.1009 48.0697 38.054 48.1162 38.0071 48.1628L37.9132 48.3024L38.8519 49.0007ZM37.5377 48.5817L37.6316 48.4421L38.1948 47.7438C38.2887 47.6507 38.3825 47.5576 38.4295 47.5111C38.5233 47.4645 38.6172 47.418 38.6641 47.418C38.758 47.418 38.8519 47.418 38.8988 47.4645C38.9927 47.5111 39.0396 47.5111 39.1335 47.6042C39.2274 47.6507 39.2743 47.6973 39.3212 47.7904C39.3682 47.8369 39.3682 47.93 39.4151 47.9766C39.4151 48.0697 39.4151 48.1162 39.4151 48.1628C39.4151 48.2093 39.4151 48.3024 39.3682 48.349C39.3682 48.3955 39.3682 48.3955 39.3212 48.4421C39.3212 48.4886 39.3212 48.4886 39.2743 48.5352C39.2743 48.5817 39.2743 48.5817 39.2274 48.6283L39.1804 48.6748L40.8701 48.7214L40.7762 48.861C40.7762 48.861 40.7762 48.9076 40.7293 48.9076C40.7293 48.9076 40.7293 48.9541 40.6823 48.9541L40.5884 49.0938L38.9927 49.0472L40.0252 49.8386L39.9314 49.9782V50.0248C39.9314 50.0248 39.9314 50.0713 39.8844 50.0713L39.7906 50.211L37.5377 48.5817Z" fill="#F3744A"/>
<path d="M39.1334 46.5326L39.2273 46.3929C39.2273 46.3929 39.2742 46.3929 39.2742 46.3464C39.2742 46.3464 39.2742 46.3464 39.3212 46.2998C39.3212 46.2998 39.3212 46.2998 39.3212 46.2533C39.3212 46.2533 39.3212 46.2533 39.3212 46.2067L39.415 46.0671L40.8231 46.905C40.9639 46.9981 41.1047 47.0446 41.2455 47.0912C41.3863 47.1377 41.4801 47.1377 41.6209 47.0912C41.7148 47.0912 41.8087 47.0446 41.8556 46.9981C41.9495 46.9515 41.9964 46.8584 42.0433 46.8119C42.0903 46.7188 42.1372 46.5791 42.1372 46.486C42.1372 46.3929 42.1372 46.2998 42.0903 46.2067C42.0433 46.1136 41.9964 46.0205 41.9025 45.9274C41.8087 45.8343 41.7148 45.7412 41.574 45.6481L40.119 44.7637L40.2129 44.624L40.3068 44.4844L41.6679 45.3223C41.8087 45.4154 41.9495 45.5085 42.0433 45.6481C42.1372 45.7412 42.2311 45.8809 42.278 46.0205C42.325 46.1602 42.3719 46.2998 42.3249 46.4395C42.278 46.5791 42.2311 46.7653 42.1372 46.905L42.0433 47.0446C41.9495 47.2308 41.8087 47.3705 41.7148 47.4636C41.574 47.5567 41.4801 47.6032 41.3393 47.6032C41.1985 47.6032 41.0577 47.6032 40.9169 47.5567C40.7761 47.5101 40.6353 47.4636 40.5414 47.3705L39.1334 46.5326Z" fill="#F3744A"/>
<path d="M9.37731 24.7481C9.33038 24.7015 9.28344 24.655 9.23651 24.6084C9.18958 24.5619 9.18958 24.5153 9.18958 24.4688C9.18958 24.4222 9.18958 24.3757 9.18958 24.3291V24.236C9.18958 24.1895 9.18958 24.1429 9.23651 24.1429C9.23651 24.0964 9.28344 24.0964 9.28344 24.0498C9.28344 24.0033 9.33038 24.0033 9.33038 23.9567C9.33038 23.9567 9.37731 23.9102 9.42425 23.9102C9.42425 23.9102 9.42425 23.9102 9.47118 23.9567C9.47118 23.9567 9.47118 23.9567 9.51812 24.0033H9.56505C9.56505 24.0033 9.61198 24.0033 9.61198 24.0498V24.1429V24.1895C9.61198 24.1895 9.61198 24.1895 9.56505 24.1895C9.56505 24.1895 9.56505 24.1895 9.51812 24.1895C9.51812 24.1895 9.47118 24.1895 9.47118 24.236L9.42425 24.2826L9.37731 24.3291C9.37731 24.3291 9.37731 24.3757 9.33038 24.3757C9.33038 24.4222 9.33038 24.4222 9.33038 24.4688C9.33038 24.5153 9.37731 24.5153 9.37731 24.5619C9.42425 24.6084 9.42425 24.6084 9.47118 24.655C9.51812 24.655 9.56505 24.7015 9.61198 24.7015C9.65892 24.7015 9.65892 24.7015 9.70585 24.7015C9.75279 24.7015 9.75279 24.7015 9.79972 24.655C9.84666 24.655 9.84665 24.6084 9.89359 24.6084C9.94052 24.6084 9.94052 24.5619 9.98746 24.5153L10.1752 24.2826C10.2221 24.236 10.2691 24.1895 10.2691 24.1895C10.316 24.1429 10.3629 24.1429 10.4099 24.1429C10.4568 24.1429 10.5037 24.1429 10.5507 24.1429C10.5976 24.1429 10.6445 24.1429 10.6915 24.1429C10.7853 24.1429 10.8323 24.1895 10.8792 24.236C10.9261 24.2826 10.9731 24.3291 11.0669 24.3757C11.1139 24.4222 11.1608 24.5153 11.1608 24.5619C11.1608 24.6084 11.1608 24.7015 11.1608 24.7946V24.8877C11.1608 24.9343 11.1139 24.9343 11.1139 24.9808C11.1139 25.0274 11.0669 25.0274 11.0669 25.0739C11.0669 25.1205 11.02 25.1205 11.02 25.1205L10.9731 25.167C10.9731 25.167 10.9261 25.167 10.9261 25.1205H10.8792V25.0739V24.9808C10.9731 24.9343 11.02 24.9343 11.0669 24.8877C11.1139 24.8412 11.1608 24.8412 11.1608 24.7946C11.1608 24.7946 11.1608 24.7481 11.2077 24.7481V24.7015C11.2077 24.655 11.2077 24.6084 11.2077 24.6084C11.2077 24.5619 11.1608 24.5619 11.1608 24.5153C11.1139 24.4688 11.0669 24.4688 11.0669 24.4222C11.02 24.4222 10.9731 24.3757 10.9261 24.3757C10.8792 24.3757 10.8323 24.3757 10.8323 24.3757C10.7853 24.3757 10.7384 24.3757 10.7384 24.3757C10.6915 24.3757 10.6915 24.4222 10.6445 24.4222C10.5976 24.4222 10.5976 24.4688 10.5507 24.5153L10.3629 24.7015C10.316 24.7481 10.2691 24.7946 10.2221 24.8412C10.1752 24.8877 10.1283 24.8877 10.0813 24.8877C10.0344 24.8877 9.98746 24.8877 9.94052 24.8877C9.89359 24.8877 9.84666 24.8877 9.79972 24.8877C9.51812 24.7946 9.47118 24.7946 9.37731 24.7481Z" fill="#F3744A"/>
<path d="M10.0341 23.1185C9.94024 23.0254 9.84637 22.9323 9.79944 22.8392C9.7525 22.7461 9.70557 22.6065 9.70557 22.5134C9.70557 22.4203 9.70557 22.2806 9.7525 22.141L9.79944 22.0479V22.0013V21.9548C9.79944 21.9082 9.84637 21.9082 9.84637 21.8617C9.84637 21.8151 9.8933 21.8151 9.8933 21.7686C9.8933 21.722 9.94024 21.722 9.94024 21.6755C9.94024 21.6755 9.98717 21.6289 10.0341 21.6289L10.2218 21.7686L10.1749 21.8617C10.128 21.8617 10.081 21.9082 10.081 21.9082C10.0341 21.9082 10.0341 21.9548 9.98717 21.9548C9.94024 21.9548 9.94024 22.0013 9.8933 22.0479C9.8933 22.0944 9.84637 22.0944 9.84637 22.141C9.84637 22.141 9.84637 22.141 9.84637 22.1875C9.84637 22.2341 9.84637 22.3272 9.84637 22.4203C9.84637 22.5134 9.8933 22.5599 9.94024 22.653C9.98717 22.7461 10.0341 22.7927 10.128 22.8858C10.2218 22.9323 10.3157 23.0254 10.4565 23.072C10.5973 23.1185 10.7381 23.1651 10.8789 23.1651C11.0197 23.1651 11.1136 23.1651 11.2075 23.1185C11.3013 23.072 11.3483 23.0254 11.3952 22.9789C11.4421 22.9323 11.4891 22.8858 11.536 22.7927C11.536 22.7461 11.536 22.6996 11.5829 22.653C11.5829 22.6065 11.5829 22.5599 11.5829 22.5134C11.5829 22.4668 11.5829 22.4203 11.5829 22.3737C11.5829 22.3272 11.536 22.2806 11.536 22.2341L11.5829 22.141L11.7237 22.2341V22.2806V22.3272V22.3737V22.4203V22.4668V22.5134C11.7237 22.5599 11.7237 22.5599 11.7237 22.5599V22.6065V22.653V22.6996L11.6768 22.7927C11.6299 22.8858 11.5829 22.9789 11.4891 23.072C11.3952 23.1651 11.3013 23.2116 11.2075 23.2582C11.1136 23.3047 10.9728 23.3047 10.832 23.3047C10.6912 23.3047 10.5504 23.2582 10.4096 23.2116C10.2218 23.2582 10.128 23.1651 10.0341 23.1185Z" fill="#F3744A"/>
<path d="M10.4098 20.6045C10.4567 20.6045 10.4567 20.5579 10.4098 20.6045C10.4567 20.5579 10.4567 20.5579 10.4098 20.6045C10.4567 20.5579 10.4567 20.5579 10.4098 20.6045C10.4567 20.5579 10.4567 20.5579 10.4098 20.6045C10.4567 20.5579 10.4567 20.5579 10.4098 20.6045L10.5037 20.4648L12.2872 21.2562L12.2402 21.3493C12.2402 21.3493 12.2402 21.3493 12.2402 21.3959L12.1933 21.489L10.4098 20.6976V20.6045V20.6045Z" fill="#F3744A"/>
<path d="M10.926 19.5801L10.973 19.487L11.3484 18.7422L11.3015 18.8353L11.2546 18.8818L11.2076 18.9284L11.1607 18.9749L11.1138 19.0215V19.068C11.1138 19.068 11.1138 19.068 11.1138 19.1146L11.7239 19.4404L11.8647 19.2077L11.9586 19.0215L12.0055 18.9284C12.0055 18.9284 12.0055 18.9284 12.0524 18.9284C12.0524 18.9284 12.0524 18.9284 12.0994 18.9284L12.1933 19.3473L12.0055 19.5801L11.9116 19.7663L12.6157 20.1387C12.6157 20.1387 12.6157 20.1387 12.6157 20.0921C12.6157 20.0921 12.6157 20.0921 12.6157 20.0456C12.6157 20.0456 12.6157 20.0456 12.6157 19.999C12.6157 19.999 12.6157 19.999 12.6157 19.9525C12.6157 19.9059 12.6626 19.9059 12.6626 19.8594C12.6626 19.8128 12.6626 19.8128 12.7095 19.7663C12.7095 19.7197 12.7095 19.7197 12.7565 19.6732V19.6266L12.8034 19.5335L12.7565 19.6266L12.381 20.3714L10.926 19.5801Z" fill="#F3744A"/>
<path d="M11.8177 17.7181L11.8647 17.625L11.9116 17.5319L13.6013 17.3923L12.4748 16.694L12.5218 16.6009L12.5687 16.5078L14.2114 17.5319L14.1645 17.625L14.1175 17.7181L12.381 17.8578L13.5543 18.6026L13.5074 18.6957L13.4604 18.7888L11.8177 17.7181Z" fill="#F3744A"/>
<path d="M13.5545 15.3919C13.5545 15.4385 13.5076 15.4385 13.5076 15.485L13.4606 15.5316V15.5781V15.6247C13.4606 15.6247 13.4606 15.6247 13.4606 15.6712C13.4606 15.6712 13.4606 15.6712 13.4606 15.7178L13.4137 15.8109L14.1646 14.8333L14.2116 14.7402C14.2116 14.7402 14.2116 14.7402 14.2585 14.7402L14.2116 14.8333C14.1646 14.8799 14.1177 14.9264 14.0708 14.9264C14.0238 14.973 13.9769 15.0195 13.9769 15.0195L13.93 15.0661L13.883 15.1126L15.338 16.2298L15.2911 16.3229C15.2911 16.3229 15.2911 16.3229 15.2911 16.3695L15.2441 16.4626L13.5545 15.3919Z" fill="#F3744A"/>
<path d="M14.5869 13.9463C14.6338 13.9463 14.6338 13.9463 14.5869 13.9463C14.6338 13.9463 14.6338 13.9463 14.5869 13.9463C14.6338 13.9463 14.6338 13.9463 14.5869 13.9463C14.6338 13.9463 14.6338 13.9463 14.5869 13.9463C14.6338 13.8997 14.6338 13.8997 14.5869 13.9463L14.6808 13.8066L16.1357 15.11L16.0888 15.1566L16.0419 15.2031L14.5869 13.9463Z" fill="#F3744A"/>
<path d="M16.6521 13.39L16.1358 13.1572L16.4174 13.6693L16.6521 13.39ZM15.7134 12.8314L15.8072 12.7383L17.7785 13.5296L17.7316 13.5762L17.5438 13.7624L16.7929 13.4365L16.4643 13.7624L16.8867 14.4606L16.8398 14.5072L16.699 14.6468L15.7134 12.8314Z" fill="#F3744A"/>
<path d="M33.0319 11.8066L33.1258 11.8532L33.7829 12.3652L33.689 12.3187L33.6421 12.2721L33.5951 12.2256L33.5482 12.179L33.5013 12.1325C33.5013 12.1325 33.5013 12.1325 33.4543 12.0859C33.4543 12.0859 33.4543 12.0859 33.4074 12.0394L32.985 12.5514L33.1727 12.6911L33.3605 12.8307L33.4543 12.8773C33.4543 12.8773 33.4543 12.8773 33.4543 12.9238L33.3605 12.8773L33.1727 12.6911L33.0319 12.5514L32.1402 13.3428C32.1402 13.3428 32.1402 13.3428 32.1402 13.3893C32.1402 13.3893 32.1402 13.3893 32.1871 13.4359C32.1871 13.4359 32.1871 13.4359 32.2341 13.4824C32.2341 13.4824 32.2341 13.4824 32.281 13.529C32.3279 13.529 32.3279 13.5755 32.3749 13.5755C32.4218 13.5755 32.4218 13.6221 32.4687 13.6221C32.5157 13.6221 32.5157 13.6686 32.5157 13.6686L32.5626 13.7152L32.6565 13.7617L32.5626 13.7152L31.8116 13.2962L33.0319 11.8066Z" fill="#F3744A"/>
<path d="M34.8156 13.3425C34.8156 13.2959 34.8156 13.2959 34.8156 13.3425C34.7686 13.2959 34.7686 13.2959 34.7217 13.2959L34.6748 13.2493C34.6748 13.2493 34.6278 13.2493 34.6278 13.2028H34.5809C34.5809 13.2028 34.5809 13.2028 34.534 13.2028C34.534 13.2028 34.534 13.2028 34.487 13.2028L34.4401 13.1562L35.3318 14.0407L35.3788 14.0873L35.3318 14.0407C35.2849 13.9942 35.2849 13.9476 35.238 13.9011C35.191 13.8545 35.191 13.808 35.1441 13.7614L35.0972 13.7149L35.0502 13.6683L33.7361 14.9252L33.6891 14.8786L33.5483 14.5993L34.8156 13.3425Z" fill="#F3744A"/>
<path d="M36.7398 15.2988L36.7867 15.3919C36.7867 15.3919 36.7867 15.3919 36.7867 15.4385C36.7867 15.4385 36.7867 15.4385 36.7867 15.485L36.8337 15.5781L35.4256 16.5557C35.4256 16.5557 35.4256 16.5557 35.4256 16.6022C35.4256 16.6022 35.4256 16.6022 35.4256 16.6488C35.4256 16.6488 35.4256 16.6488 35.4256 16.6953C35.4256 16.6953 35.4256 16.6953 35.4256 16.7419C35.4256 16.7884 35.4726 16.7884 35.4726 16.835C35.4726 16.835 35.5195 16.8815 35.5195 16.9281L35.5665 16.9746L35.6134 17.0212L35.6603 17.1143L35.6134 17.0212L35.144 16.3229L36.7398 15.2988Z" fill="#F3744A"/>
<path d="M37.3029 17.9518L37.6784 17.4863L37.1152 17.626L37.3029 17.9518ZM38.1008 17.207L38.1478 17.3001L38.1947 17.3467L36.9275 19.0225L36.8336 18.9294L36.7867 18.8363L37.3029 18.1846L37.0683 17.7656L36.2704 17.9984L36.2234 17.9053L36.1765 17.8122L38.1008 17.207Z" fill="#F3744A"/>
<path d="M38.2888 19.4408C38.3358 19.4873 38.3358 19.5339 38.3827 19.5804C38.4296 19.627 38.4766 19.6735 38.5235 19.6735C38.5705 19.6735 38.6174 19.7201 38.6643 19.7201C38.7113 19.7201 38.7582 19.7201 38.8521 19.6735C38.899 19.6735 38.9459 19.627 38.9929 19.5804C39.0398 19.5339 39.0398 19.4873 39.0398 19.4408C39.0398 19.3942 39.0398 19.3477 39.0398 19.3011C39.0398 19.2546 39.0398 19.208 38.9929 19.1615L38.9459 19.0218L38.2888 19.4408ZM37.3971 19.9063C37.3971 19.9528 37.444 19.9994 37.491 20.0459C37.5379 20.0925 37.5379 20.0925 37.5848 20.139C37.6318 20.139 37.6787 20.1856 37.7256 20.1856C37.7726 20.1856 37.8195 20.1856 37.8664 20.1856C37.9603 20.139 38.0072 20.0925 38.0542 20.0459C38.1011 19.9994 38.148 19.9528 38.148 19.9063C38.148 19.8597 38.148 19.8132 38.148 19.7201C38.148 19.6735 38.1011 19.5804 38.1011 19.4873L37.3032 19.8132L37.3971 19.9063ZM38.899 18.7891L38.9459 18.8822L39.1806 19.3477C39.1806 19.3942 39.2275 19.4408 39.2275 19.4873C39.2275 19.5339 39.2275 19.5804 39.2275 19.627C39.2275 19.6735 39.1806 19.7201 39.1806 19.7666C39.1337 19.8132 39.0867 19.8597 39.0398 19.8597C38.9929 19.8597 38.9459 19.9063 38.899 19.9063C38.8521 19.9063 38.8051 19.9063 38.7582 19.9063C38.7113 19.9063 38.6643 19.8597 38.6174 19.8597C38.5705 19.8132 38.5235 19.8132 38.5235 19.7666C38.5235 19.8132 38.5235 19.8597 38.5235 19.9063C38.5235 19.9528 38.5235 19.9994 38.5235 20.0459C38.5235 20.0925 38.4766 20.139 38.4296 20.1856C38.3827 20.2321 38.3358 20.2787 38.2419 20.2787C38.148 20.3252 38.0542 20.3252 38.0072 20.3252C37.9134 20.3252 37.8664 20.3252 37.8195 20.2787C37.7726 20.2321 37.7256 20.2321 37.6787 20.1856C37.6318 20.139 37.5848 20.0925 37.5848 20.0459L37.5379 19.9528L37.3502 19.5339L38.899 18.7891Z" fill="#F3744A"/>
<path d="M38.9928 21.2103C38.852 21.2568 38.7112 21.3034 38.6174 21.3499C38.5235 21.3965 38.4296 21.4896 38.3827 21.5827C38.3357 21.6758 38.2888 21.7223 38.2888 21.8154C38.2888 21.9085 38.2888 21.9551 38.2888 22.0482C38.3358 22.1413 38.3827 22.1878 38.4296 22.2344C38.4766 22.2809 38.5704 22.3275 38.6643 22.374C38.7582 22.4206 38.852 22.4206 38.9928 22.4206C39.1336 22.4206 39.2275 22.4206 39.3683 22.374C39.4622 22.3275 39.603 22.2809 39.6968 22.2344C39.7907 22.1878 39.8376 22.0947 39.9315 22.0016C39.9784 21.9085 40.0254 21.862 40.0254 21.7689C40.0254 21.6758 40.0254 21.5827 40.0254 21.5361C39.9784 21.443 39.9784 21.3965 39.8846 21.3499C39.8376 21.3034 39.7907 21.2568 39.6968 21.2568C39.603 21.2568 39.556 21.2103 39.4622 21.2103C39.3683 21.2103 39.3214 21.2103 39.2275 21.2103C39.1806 21.2103 39.1806 21.2103 39.1336 21.2103H39.0867H38.9928V21.2103ZM38.899 20.8844C38.899 20.8844 38.9459 20.8844 38.899 20.8844C38.9459 20.8844 38.9459 20.8844 38.899 20.8844C38.9459 20.8844 38.9459 20.8844 38.9928 20.8844C39.0867 20.8379 39.2275 20.8379 39.3214 20.8379C39.4152 20.8379 39.556 20.8844 39.6499 20.931C39.7438 20.9775 39.8376 21.0241 39.9315 21.1172C40.0254 21.2103 40.0723 21.3034 40.1192 21.443L40.1662 21.5361C40.2131 21.6758 40.2131 21.8154 40.2131 21.9085C40.2131 22.0016 40.1662 22.0947 40.1192 22.1878C40.0723 22.2809 40.0254 22.3275 39.9315 22.4206C39.8846 22.4671 39.7907 22.5137 39.6968 22.5602C39.6968 22.5602 39.6968 22.5602 39.6499 22.5602C39.6499 22.5602 39.6499 22.5602 39.603 22.5602C39.603 22.5602 39.603 22.5602 39.556 22.5602C39.556 22.5602 39.556 22.5602 39.5091 22.5602C39.5091 22.5602 39.4622 22.5602 39.4622 22.6068H39.4152C39.2744 22.6533 39.1336 22.6999 38.9928 22.6533C38.852 22.6533 38.7582 22.6068 38.6174 22.5602C38.5235 22.5137 38.4296 22.4206 38.3358 22.3275C38.2888 22.3275 38.2419 22.2344 38.2419 22.1413L38.1949 22.0482V22.0016V21.9551V21.9085V21.862C38.1949 21.7689 38.1949 21.7223 38.2419 21.6292C38.2888 21.5361 38.2888 21.443 38.3827 21.3965C38.4296 21.3034 38.5235 21.2568 38.6174 21.1637C38.6174 20.9775 38.7582 20.931 38.899 20.8844Z" fill="#F3744A"/>
<path d="M39.8374 23.8167C39.8374 23.9098 39.8843 23.9564 39.8843 24.0029C39.8843 24.0495 39.9312 24.096 39.9782 24.096C40.0251 24.1426 40.0251 24.1426 40.072 24.1891C40.119 24.1891 40.119 24.2357 40.1659 24.2357H40.2128H40.2598H40.3067H40.3536C40.3536 24.2357 40.3536 24.2357 40.4006 24.2357C40.4006 24.2357 40.4006 24.2357 40.4475 24.2357H40.4944C40.4944 24.2357 40.5414 24.2357 40.5414 24.1891L40.5883 24.1426C40.5883 24.096 40.6353 24.096 40.6353 24.0495C40.6353 24.0029 40.6353 24.0029 40.6822 23.9564C40.6822 23.9098 40.6822 23.8633 40.6822 23.8167V23.7236L39.8374 23.8167ZM40.6822 23.3047V23.3978L40.823 23.9564C40.823 24.0495 40.823 24.096 40.823 24.1426C40.823 24.1891 40.7761 24.2357 40.7761 24.2822C40.7291 24.3288 40.6822 24.3753 40.6353 24.3753C40.5883 24.4219 40.5414 24.4219 40.4475 24.4219C40.4006 24.4219 40.3067 24.4219 40.2598 24.4219C40.2128 24.4219 40.1659 24.4219 40.119 24.3753C40.072 24.3753 40.0251 24.3288 40.0251 24.2822C39.9782 24.2357 39.9782 24.2357 39.9312 24.1891C39.9312 24.1891 39.9312 24.1426 39.8843 24.1426C39.8843 24.1426 39.8843 24.096 39.8374 24.096V24.0495V24.0029L39.0395 24.7943V24.7012C39.0395 24.7012 39.0395 24.7012 39.0395 24.6546C39.0395 24.6546 39.0395 24.6546 39.0395 24.6081V24.515L39.7904 23.7702L38.8987 23.9564V23.8633C38.8987 23.8633 38.8987 23.8633 38.8987 23.8167C38.8987 23.8167 38.8987 23.8167 38.8987 23.7702V23.6771L40.6822 23.3047Z" fill="#F3744A"/>
<path d="M38.9931 46.1591C38.8043 46.3464 39.1819 46.0187 38.9931 46.1591Z" fill="#F3744A"/>
<path d="M38.0069 29.6827C38.0069 29.543 38.4293 29.4034 38.5702 29.3103C38.711 29.4965 38.8518 29.543 38.8518 29.7758C38.8518 29.8689 38.3824 30.1482 38.3824 30.1482C38.2885 30.1482 38.0069 29.7292 38.0069 29.6827ZM30.2159 35.9669L29.9342 35.5014L37.256 30.2413L37.5376 30.7068L30.2159 35.9669ZM33.4074 42.1581C33.0319 43.8805 31.1545 45.789 31.1545 45.789L28.2915 42.2978L27.7753 42.7167V41.7392L33.1258 41.6461L30.7791 38.853L27.5875 38.8996L27.3059 31.7309L22.6594 31.7774L22.7533 38.9927L19.5148 39.0392L17.262 41.9719L22.8941 41.8788L22.8472 42.8098L22.284 42.4374L19.6087 46.0218C19.6087 46.0218 19.6556 46.2545 18.2946 44.6253C16.9335 42.996 16.4172 40.3426 16.558 38.5272C16.6988 36.7117 17.8721 34.7566 17.8721 34.7566L20.1719 36.3859L20.6882 35.5945L18.3415 33.9653C18.3415 33.9653 19.9842 31.9636 22.0024 31.3119C22.8002 31.0792 25.0061 30.2878 27.7753 31.2188C30.5444 32.1498 31.6708 33.8722 31.6708 33.8722L29.6057 35.3618L30.1689 36.1531L32.281 34.617C32.281 34.617 33.3604 36.06 33.5951 37.7358C33.9706 40.2495 33.7829 40.4357 33.4074 42.1581ZM30.4036 46.3942L28.6201 44.2063L29.0425 43.8805L30.8729 46.0218L30.4036 46.3942ZM28.714 47.4183C27.963 47.6976 27.2121 47.9303 27.2121 47.9303L27.0713 43.3684H27.5875L30.1689 46.6269C30.122 46.6269 29.418 47.0924 28.714 47.4183ZM26.2264 48.1165L26.1795 45.2304H26.7427L26.8366 48.0234L26.2264 48.1165ZM25.4286 41.8788H27.3059V42.9029H25.4286V41.8788ZM25.0061 48.1631V47.6976H25.9448V48.07L25.0061 48.1631ZM24.1144 48.07L24.0675 45.3235L24.6307 45.277L24.6776 48.1631L24.1144 48.07ZM25.7102 45.2304H25.1V43.415H25.7102V45.2304ZM24.8184 38.5272H23.6451V37.3169H24.8184V38.5272ZM25.147 33.8722C25.147 33.8722 25.9448 33.9653 25.8979 34.5704C25.851 35.2221 25.147 35.2687 25.147 35.2687V33.8722ZM25.1939 35.3618V36.6186H23.5981L23.5043 32.6619H25.147L25.1939 33.7791C25.1939 33.7791 24.396 33.9187 24.4429 34.5239C24.4429 35.1756 25.1939 35.3618 25.1939 35.3618ZM18.3415 41.5064L19.8434 39.5978L25.3347 39.4582L25.2408 36.6652L26.8835 36.5721L26.7897 32.6153H25.1939V32.1964H27.0243L27.3059 39.4582L25.3816 39.5047V41.4599L18.3415 41.5064ZM21.9554 47.5114C21.2045 47.2321 20.6882 46.8597 20.6882 46.8597L23.1757 43.4615H23.692L23.7389 48.0234C23.7389 48.0234 22.7064 47.8372 21.9554 47.5114ZM20.3597 46.6735L19.8903 46.3476L21.6269 43.9736L22.1432 44.2994L20.3597 46.6735ZM12.4747 30.7068L12.8032 30.2413L20.5005 35.6876L20.125 36.1531L12.4747 30.7068ZM11.6299 30.1482C11.6299 30.1482 11.2075 29.9154 11.1136 29.8689L11.4421 29.3103L12.0054 29.6361C11.9584 29.7758 11.7707 30.1482 11.6299 30.1482ZM38.5702 30.4275C38.5702 30.2878 39.1334 29.962 39.2272 29.7758L38.6171 28.9379L37.7723 29.4034C37.1621 29.031 34.8623 26.6103 33.8298 27.0758C34.2053 27.5879 36.9275 29.4034 36.9275 30.0085C36.9275 30.5671 33.689 31.824 33.0788 32.2429L32.1402 31.405L33.1258 29.6361C32.985 29.4965 32.1402 28.7982 31.9524 28.7982C31.7177 28.7982 30.6852 30.0551 30.4975 30.2878L29.2772 29.6827L29.6526 27.5879C29.2772 27.4948 28.6201 27.2155 28.2915 27.2155C28.1038 27.2155 27.3529 28.7982 27.2121 29.0775L25.9918 28.8448C25.8979 28.4724 25.851 26.75 25.4286 26.75H24.1613L23.8328 28.8448L22.5186 29.031C22.4717 28.7982 21.7208 27.2155 21.5799 27.2155C21.2514 27.2155 20.5943 27.4948 20.2189 27.5879L20.5943 29.7292L19.374 30.2878C19.2332 30.0551 18.0599 28.7982 17.8252 28.7982C17.8252 28.7982 16.7457 29.4965 16.7457 29.6361C16.7457 29.7758 17.5905 31.1723 17.6844 31.405L16.7457 32.336C16.0886 32.0102 12.991 30.6602 12.991 30.0085C12.991 29.8223 15.6193 27.4483 16.0417 27.3552C15.7601 26.2845 12.0523 29.4965 12.0054 29.4965C11.8646 29.4965 11.583 29.1241 11.3483 29.1241C11.2075 29.1241 10.7381 29.7292 10.6912 29.8689C10.8789 30.1016 11.3483 30.3809 11.3483 30.5206C11.3483 30.7068 10.0811 32.755 10.0811 34.0118V34.6635H10.3627C10.4565 33.7325 11.7238 31.6378 12.1931 30.9861C12.6624 31.3119 14.1174 32.0102 14.0235 32.5688L15.5254 33.9187L14.9622 35.0825L12.8502 34.6635C12.7563 35.0359 12.4747 35.6411 12.4747 35.9669C12.4747 36.1531 14.1643 36.8514 14.399 36.991L14.1643 38.2013L11.9584 38.4806V39.6444C11.9584 40.0633 13.7419 40.1564 14.1643 40.203L14.3051 41.4133C14.0705 41.553 12.4278 42.2512 12.4278 42.4374C12.4278 42.7633 12.7094 43.3684 12.8032 43.7408L15.0092 43.3684C15.103 43.7408 15.4785 44.2529 15.4785 44.4856C15.4785 44.5787 14.2113 45.6959 14.0235 45.9752L14.8214 47.0924L16.6988 46.1149L17.6375 46.9528C17.5436 47.139 16.6988 48.6751 16.6988 48.7682C16.6988 48.9079 17.6844 49.513 17.8721 49.6061L19.374 48.1165L20.5474 48.7217L20.1719 50.8164L21.6269 51.2354L22.5186 49.3734L23.8328 49.5596L24.1613 51.5612H25.7102L26.0387 49.513L27.3529 49.3268L28.1977 51.1888L29.6526 50.7699L29.2772 48.6751L30.4505 48.1165L31.9524 49.6061C32.1402 49.4665 33.1258 48.8613 33.1258 48.7682C33.1258 48.4889 32.1871 47.1855 32.1871 46.9062C32.1871 46.8131 32.985 46.0683 33.0319 46.0683C33.4543 46.0683 34.5338 46.8597 35.0501 46.9993L35.848 45.8821L34.3461 44.4391L34.9562 43.3684L37.1152 43.6477L37.5376 42.3443L35.5664 41.4133L35.7541 40.203C36.1765 40.1099 37.96 40.1099 37.96 39.6444V38.4341L35.7541 38.1548L35.5664 36.8514C35.801 36.8048 37.4907 36.1066 37.4907 35.9204C37.4907 35.5945 37.2091 34.9894 37.1152 34.617L34.9093 34.9894L34.2991 33.7791C35.3317 33.1274 36.6458 31.1723 37.8661 30.9395L39.7904 34.6635L39.8843 34.617V33.9653C39.8374 32.5222 38.5702 30.7068 38.5702 30.4275Z" fill="#F3744A"/>
<path d="M26.555 37.9688C26.4142 37.9688 26.3203 38.0619 26.3203 38.2015C26.3203 38.3412 26.4142 38.4343 26.555 38.4343C26.6958 38.4343 26.7897 38.3412 26.7897 38.2015C26.7897 38.0619 26.6958 37.9688 26.555 37.9688Z" fill="#F3744A"/>
<path d="M26.5083 37.6882C26.6491 37.6882 26.743 37.5951 26.743 37.4554C26.743 37.3158 26.6491 37.2227 26.5083 37.2227C26.3675 37.2227 26.2736 37.3158 26.2736 37.4554C26.2267 37.5951 26.3675 37.6882 26.5083 37.6882Z" fill="#F3744A"/>
<path d="M25.898 38.0156C25.7572 38.0156 25.6633 38.1087 25.6633 38.2484C25.6633 38.388 25.7572 38.4811 25.898 38.4811C26.0388 38.4811 26.1327 38.388 26.1327 38.2484C26.1327 38.1087 26.0388 38.0156 25.898 38.0156Z" fill="#F3744A"/>
<path d="M25.8512 37.6882C25.992 37.6882 26.0859 37.5951 26.0859 37.4554C26.0859 37.3158 25.992 37.2227 25.8512 37.2227C25.7104 37.2227 25.6166 37.3158 25.6166 37.4554C25.6166 37.5951 25.7574 37.6882 25.8512 37.6882Z" fill="#F3744A"/>
<path d="M30.0283 24.6102C30.0283 24.6102 26.9776 23.7723 24.6778 23.7257C21.1577 23.6792 19.6089 24.5171 19.6089 24.5171C19.6089 24.5171 20.0782 22.7016 20.6884 21.3982C21.3455 20.0483 21.9556 19.1638 21.9556 19.1638L22.0964 19.1173L22.3311 18.838C22.3311 18.838 21.5332 18.7449 21.0169 18.6052C20.5006 18.4656 20.266 18.3725 20.266 18.3725C20.266 18.3725 21.1108 16.976 20.7353 16.4639C20.4537 16.0915 16.9806 11.1572 23.2228 8.92278C24.4431 8.50382 25.945 9.24863 25.945 9.24863C25.945 9.24863 23.0351 8.82968 22.2841 11.2968C21.6271 13.3916 22.5657 15.207 22.5657 15.207L23.6452 14.5088C23.6452 14.5088 23.129 12.1813 23.4575 11.3899C24.537 8.69002 27.4938 9.85378 28.3387 10.5986C29.0427 11.2037 30.216 12.6933 30.216 12.6933C30.216 12.6933 29.5589 12.6468 28.7611 12.6933C28.0571 12.7399 27.1653 12.9261 26.5082 13.2985C25.1002 14.1364 25.241 14.3691 25.241 14.3691C25.241 14.3691 25.2879 15.5795 25.6634 16.4639C26.0389 17.3484 26.4144 17.8139 26.4144 17.8139C26.4144 17.8139 25.1941 18.6518 24.2084 18.7449C23.5514 18.838 22.6596 18.838 22.6596 18.838L22.3311 19.4431C22.3311 19.4431 24.1615 21.3517 25.6634 22.2827C27.1653 23.2137 26.8368 22.9809 26.8368 22.9809C26.8368 22.9809 26.2736 21.5379 26.4613 20.3741C26.649 19.2104 27.0245 18.5121 27.0245 18.5121C27.0245 18.5121 29.1835 19.2569 29.0896 18.1863C29.0427 17.7208 28.9019 17.907 29.0427 17.6277C29.1835 17.3949 29.0896 17.2553 28.9957 17.2087L28.8549 17.1622L28.808 17.0691C28.808 17.0691 29.0896 17.1156 29.1835 17.0225C29.2773 16.9294 29.2773 16.6501 29.2304 16.4639C29.1835 16.2777 29.1835 16.1846 29.4181 16.1846C29.6528 16.1846 30.3568 16.2777 30.0283 15.7191C29.6998 15.1605 29.559 15.1605 29.4181 14.8346C29.3243 14.5553 29.1835 14.695 29.1835 14.3691C29.1835 14.3691 29.2304 13.9502 29.1365 13.764C29.0427 13.5778 28.4795 12.6468 28.4795 12.6468L28.7141 12.6002C28.7141 12.6002 29.0896 13.2054 29.2773 13.5312C29.6528 14.1829 29.3243 14.276 29.4181 14.3691C29.512 14.4622 30.0283 15.2071 30.1691 15.4864C30.263 15.7657 30.5446 16.0915 30.263 16.1846C30.0283 16.2312 29.5589 16.1846 29.512 16.3243C29.4651 16.5105 29.6059 16.6501 29.559 16.8829C29.4651 17.1156 29.4181 17.1622 29.4181 17.2553C29.4181 17.3484 29.2773 17.5811 29.2773 17.8604C29.2773 18.1397 29.4181 18.6518 28.9019 18.838C28.6672 18.9311 28.104 18.838 27.7285 18.838C27.353 18.838 27.0714 18.6983 27.0714 18.8845C27.0245 19.0707 26.6021 19.9552 26.649 20.7C26.649 21.4448 27.0245 22.7947 27.1653 22.9809C27.4 23.3533 30.0283 24.6102 30.0283 24.6102Z" fill="#F3744A"/>
<path d="M27.2123 14.3213C27.2123 14.3213 27.4939 14.3679 27.7755 14.1351C28.104 13.9023 28.4795 13.9489 28.6203 14.042C28.7611 14.1351 28.9488 14.1351 29.0427 14.0885C29.0896 14.042 29.0427 13.623 28.4795 13.623C27.8694 13.623 27.9163 13.8092 27.6347 13.9954C27.3531 14.1816 27.2123 14.3213 27.2123 14.3213Z" fill="#F3744A"/>
<path d="M28.714 14.1351C28.761 14.042 28.9018 14.1351 28.8548 14.2748C28.8079 14.4144 28.6671 14.461 28.6671 14.5075C28.6671 14.5541 28.8079 14.7868 28.6671 14.8334C28.5263 14.9265 28.3855 14.8334 28.3855 14.6937C28.3855 14.5541 28.1978 14.6006 28.1508 14.6937C28.1039 14.7868 28.057 14.8799 28.01 14.8799C27.9161 14.8799 27.9631 14.461 28.1039 14.4144C28.2916 14.4144 28.5732 14.3213 28.714 14.1351Z" fill="#F3744A"/>
</svg>
