<?xml version="1.0" encoding="utf-8"?>
<!-- Generator: Adobe Illustrator 24.0.2, SVG Export Plug-In . SVG Version: 6.00 Build 0)  -->
<svg version="1.1" id="Capa_1" xmlns="http://www.w3.org/2000/svg" xmlns:xlink="http://www.w3.org/1999/xlink" x="0px" y="0px"
	 viewBox="0 0 567.3 540.9" style="enable-background:new 0 0 567.3 540.9;" xml:space="preserve">
<style type="text/css">
	.st0{fill:#FF8D8D;}
	.st1{fill:#FFFFFF;}
	.st2{fill:#E6E6E6;}
	.st3{fill:#BFB193;}
	.st4{fill:#F0DFB9;}
	.st5{fill:#D9C9A7;}
	.st6{fill:#C4B79B;}
	.st7{fill:#F1E1BE;}
	.st8{fill:#DCCDAD;}
	.st9{fill:#249431;}
	.st10{fill:#2FBF40;}
	.st11{clip-path:url(#SVGID_2_);fill:#FF9B5C;}
	.st12{clip-path:url(#SVGID_2_);fill:#212A3B;}
	.st13{clip-path:url(#SVGID_2_);fill:#FFFFFF;}
	.st14{clip-path:url(#SVGID_2_);fill:#504EC7;}
	.st15{clip-path:url(#SVGID_2_);fill:#0E1219;}
	.st16{clip-path:url(#SVGID_2_);fill:#9C5D26;}
	.st17{clip-path:url(#SVGID_2_);fill:#FC4B1E;}
	.st18{clip-path:url(#SVGID_2_);fill:#1D2533;}
	.st19{clip-path:url(#SVGID_2_);fill:#171717;}
	.st20{clip-path:url(#SVGID_2_);fill:#FCC630;}
	.st21{fill:#FFEEC9;}
	.st22{clip-path:url(#SVGID_4_);fill:#FFEEC9;}
	.st23{clip-path:url(#SVGID_4_);fill:#2FBF40;}
	.st24{clip-path:url(#SVGID_4_);fill:#249431;}
	.st25{clip-path:url(#SVGID_4_);fill:#FF9B5C;}
	.st26{clip-path:url(#SVGID_4_);fill:#FC4B1E;}
	.st27{clip-path:url(#SVGID_4_);fill:#212A3B;}
	.st28{clip-path:url(#SVGID_4_);fill:#0E1219;}
	.st29{clip-path:url(#SVGID_4_);fill:#3E567A;}
	.st30{clip-path:url(#SVGID_4_);fill:#1D2533;}
	.st31{clip-path:url(#SVGID_4_);fill:#171717;}
	.st32{clip-path:url(#SVGID_4_);fill:#FCC630;}
	.st33{clip-path:url(#SVGID_4_);fill:#FFFFFF;}
	.st34{clip-path:url(#SVGID_4_);fill:#504EC7;}
	.st35{clip-path:url(#SVGID_6_);fill:#2FBF40;}
	.st36{clip-path:url(#SVGID_6_);fill:#249431;}
	.st37{clip-path:url(#SVGID_6_);fill:#FF9B5C;}
	.st38{clip-path:url(#SVGID_6_);fill:#4D2E13;}
	.st39{clip-path:url(#SVGID_6_);fill:#212A3B;}
	.st40{clip-path:url(#SVGID_6_);fill:#0E1219;}
	.st41{clip-path:url(#SVGID_6_);fill:#3E567A;}
	.st42{clip-path:url(#SVGID_6_);fill:#1D2533;}
	.st43{clip-path:url(#SVGID_6_);fill:#171717;}
	.st44{clip-path:url(#SVGID_6_);fill:#FC4B1E;}
	.st45{clip-path:url(#SVGID_6_);fill:#FFFFFF;}
	.st46{clip-path:url(#SVGID_6_);fill:#504EC7;}
	.st47{clip-path:url(#SVGID_8_);fill:#FFEEC9;}
	.st48{clip-path:url(#SVGID_8_);fill:#4D2E13;}
	.st49{clip-path:url(#SVGID_8_);fill:#FFFFFF;}
	.st50{clip-path:url(#SVGID_8_);fill:#FF9B5C;}
	.st51{clip-path:url(#SVGID_8_);fill:#212A3B;}
	.st52{clip-path:url(#SVGID_8_);fill:#0E1219;}
	.st53{clip-path:url(#SVGID_8_);fill:#504EC7;}
	.st54{clip-path:url(#SVGID_8_);fill:#249431;}
	.st55{clip-path:url(#SVGID_8_);fill:#2FBF40;}
	.st56{fill:#1D2533;}
	.st57{fill:#171717;}
	.st58{fill:#FC4B1E;}
</style>
<g>
	<path class="st0" d="M214.8,3.6h-173v175.5h39V39.9c0-2.2,1.8-3.9,3.9-3.9h130.1V3.6"/>
	<polyline class="st0" points="559.4,101.7 525.2,101.7 525.2,277.3 559.4,277.3 559.4,101.7 	"/>
	<path class="st1" d="M84.7,35.9h436.5c2.2,0,3.9,1.8,3.9,3.9v316.1c0,2.2-1.8,3.9-3.9,3.9H84.7c-2.2,0-3.9-1.8-3.9-3.9V39.9
		C80.8,37.7,82.5,35.9,84.7,35.9"/>
	<path class="st2" d="M297.2,49.8c0-3.2,2.6-5.8,5.8-5.8s5.8,2.6,5.8,5.8s-2.6,5.8-5.8,5.8S297.2,53,297.2,49.8z"/>
	<polyline class="st3" points="506.5,336.8 98.3,336.8 98.3,62.7 506.5,62.7 506.5,336.8 	"/>
	<polyline class="st4" points="506.5,336.8 413.6,336.8 413.6,62.6 506.5,62.6 506.5,336.8 	"/>
	<path class="st5" d="M496.4,299.1h-73.1c-1.5,0-2.7,1.2-2.7,2.7v24.5c0,1.5,1.2,2.7,2.7,2.7h73.1c1.5,0,2.7-1.2,2.7-2.7v-24.5
		C499.1,300.3,497.9,299.1,496.4,299.1"/>
	<path class="st4" d="M489,310.4l-1.3,0.1c-0.2,0-0.4-0.2-0.4-0.4l0.1-1.3l0.1-0.2l5.6-5.6c0.1-0.1,0.4-0.1,0.5,0l1.1,1.1
		c0.1,0.1,0.1,0.4,0,0.5l-5.6,5.6L489,310.4z"/>
	<path class="st0" d="M471.2,380H57.3c-8.4,0-11.5,1.9-15.2,6.6L6,435.2c-3.5,5.8,6.1,11.4,19.3,11.4h478.1
		c13.2,0,22.7-5.7,19.3-11.4l-36.1-48.6C483.1,382.2,479.7,380,471.2,380"/>
	<path class="st2" d="M562,416.1c0-0.8-0.2-1.6-0.7-2.5L525.2,365c-3.4-4.3-6.8-6.6-15.2-6.6H96c-8.4,0-11.5,1.9-15.2,6.6
		l-36.1,48.6c-0.5,0.8-0.7,1.7-0.7,2.5c0,0.1,0,0.3,0,0.4c0,0.1,0,0.3,0,0.4c0,0.1,0,0.3,0,0.4c0,0.1,0,0.3,0,0.4c0,0.1,0,0.3,0,0.4
		c0,0.1,0,0.3,0,0.4c0,0.1,0,0.3,0,0.4c0,0.1,0,0.3,0,0.4c0,0.1,0,0.3,0,0.4c0,0.1,0,0.3,0,0.4c0,0.1,0,0.3,0,0.4c0,0.1,0,0.3,0,0.4
		c0,0.1,0,0.3,0,0.4c0,0.1,0,0.3,0,0.4c0,0.1,0,0.3,0,0.4c0,0.1,0,0.3,0,0.4c0,0.1,0,0.3,0,0.4c0,0.1,0,0.3,0,0.4c0,0.1,0,0.3,0,0.4
		c0,0.1,0,0.3,0,0.4c0,0.1,0,0.3,0,0.4c0,0.1,0,0.3,0,0.4c0,0.1,0,0.3,0,0.4c0,0.1,0,0.3,0,0.4c0,0.1,0,0.3,0,0.4c0,0.1,0,0.3,0,0.4
		c0,0.1,0,0.3,0,0.4c0,0.1,0,0.3,0,0.4c0,0.1,0,0.3,0,0.4c0,0.1,0,0.3,0,0.4c-0.4,5,8.3,9.4,20,9.4h478.1c11.6,0,20.4-4.4,20-9.4
		c0-0.1,0-0.3,0-0.4c0-0.1,0-0.3,0-0.4c0-0.1,0-0.3,0-0.4c0-0.1,0-0.3,0-0.4c0-0.1,0-0.3,0-0.4c0-0.1,0-0.3,0-0.4c0-0.1,0-0.3,0-0.4
		c0-0.1,0-0.3,0-0.4c0-0.1,0-0.3,0-0.4c0-0.1,0-0.3,0-0.4c0-0.1,0-0.3,0-0.4c0-0.1,0-0.3,0-0.4c0-0.1,0-0.3,0-0.4c0-0.1,0-0.3,0-0.4
		c0-0.1,0-0.3,0-0.4c0-0.1,0-0.3,0-0.4c0-0.1,0-0.3,0-0.4c0-0.1,0-0.3,0-0.4c0-0.1,0-0.3,0-0.4c0-0.1,0-0.3,0-0.4c0-0.1,0-0.3,0-0.4
		c0-0.1,0-0.3,0-0.4c0-0.1,0-0.3,0-0.4c0-0.1,0-0.3,0-0.4c0-0.1,0-0.3,0-0.4c0-0.1,0-0.3,0-0.4c0-0.1,0-0.3,0-0.4c0-0.1,0-0.3,0-0.4
		c0-0.1,0-0.3,0-0.4C562,416.4,562,416.2,562,416.1z"/>
	<path class="st1" d="M96,358.4h413.9c8.4,0,11.8,2.3,15.2,6.6l36.1,48.6c3.5,5.8-6.1,11.4-19.3,11.4H63.9
		c-13.2,0-22.7-5.7-19.3-11.4L80.8,365C84.6,360.3,87.6,358.4,96,358.4z"/>
	<path class="st2" d="M98.6,386.2h409.9c4.7,0,8-2.7,6.2-5.2l-6.7-9.2c-2.4-3.1-4.9-4.7-11-4.7H110.1c-6.1,0-8.2,1.4-11,4.7
		l-6.7,9.2C90.6,383.5,93.8,386.2,98.6,386.2z"/>
	<path class="st2" d="M363.5,418h-120c-4.1,0-7.1-2.2-6-4.5L246,397c0.8-1.5,3.2-2.5,6-2.5h103c2.8,0,5.2,1,6,2.5l8.5,16.5
		C370.6,415.7,367.6,418,363.5,418z"/>
	<polyline class="st1" points="120.6,62.7 98.3,62.7 120.6,62.7 120.6,62.7 	"/>
	<path class="st6" d="M120.6,62.7H98.3v274h315.3v-31.9C363.1,284.6,312.5,254.4,265,221C195.1,171.8,152.3,112.2,120.6,62.7"/>
	<path class="st7" d="M413.6,304.9v31.9h92.8v-7.4c-2.7-0.3-5.5-0.6-8.3-1c-0.5,0.4-1.1,0.7-1.8,0.7h-73.1c-1.5,0-2.7-1.2-2.7-2.7
		v-18.7C418.3,306.7,416,305.8,413.6,304.9"/>
	<path class="st8" d="M420.6,307.6v18.7c0,1.5,1.2,2.7,2.7,2.7h73.1c0.7,0,1.3-0.3,1.8-0.7C472.7,324.8,446.7,317.6,420.6,307.6"/>
	<rect x="111.9" y="76.1" class="st4" width="138.3" height="119.6"/>
	<path class="st9" d="M154,182.5c1-3.5-3.7-7.8-4.2-8.2c-2.7-2.4-4.1-1.9-5.3-3.8c-2-3.3,1.2-6.3-0.5-9.2c-1.9-3.1-6.6-0.8-10.3-4.4
		c-2.8-2.6-1.3-4.8-4.2-8.2c-1.9-2.2-6.4-5.6-10.2-4c-3.9,1.7-5.4,7.9-3.5,11c1.9,3.1,6.5,2.1,7.8,5.2c1,2.4-1.4,3.9-0.5,6.4
		c1.4,3.8,8.1,3,9,6.3c0.6,2.4-2.7,3.6-2.4,6.4c0.4,4.1,8.2,7.7,15,7.1C145.6,187.1,152.9,186.4,154,182.5z"/>
	<path class="st10" d="M120.4,149.4c0,0,0.1,0.1,0.2,0.2c1.1,0.9,5.8,5,8,9.7c1.3,2.7,2.4,3.9,3.5,4.9c1.1,1,2.2,1.8,3.7,4.1
		c1.5,2.3,2.4,4.6,3.4,6.7c1,2,2.3,3.8,4.7,4.8c2.1,0.8,4.2,2.8,5.9,4.5c0.8,0.8,1.5,1.6,2,2.2c0.2,0.3,0.4,0.5,0.6,0.7
		c0.1,0.2,0.2,0.3,0.2,0.3l0.8-0.6c0,0-1.1-1.5-2.8-3.3c-1.7-1.7-3.9-3.7-6.2-4.7c-2-0.8-3.1-2.4-4.2-4.3c-1-2-1.9-4.4-3.5-6.8
		c-1.6-2.4-2.8-3.3-3.8-4.3c-1.1-1-2-1.9-3.3-4.6c-2.7-5.6-8.5-10.2-8.5-10.2L120.4,149.4L120.4,149.4z"/>
	<path class="st10" d="M169.6,178.3c2.5-5.3-3.6-13.2-4.3-14c-3.5-4.5-5.8-4-7.1-7.4c-2.2-5.7,3.7-9.5,1.8-14.4
		c-2.1-5.4-10-3-14.9-9.7c-3.6-4.9-0.6-7.9-4.3-14c-2.4-4-8.3-10.5-14.8-9c-6.6,1.5-10.6,10.8-8.5,16.2c2.1,5.4,9.5,5,10.6,10.3
		c0.9,4.1-3.3,5.7-2.6,9.8c1.1,6.3,11.8,7,12.2,12.3c0.3,3.9-5.2,4.9-5.5,9.3c-0.6,6.5,10.6,14.2,21.3,15.3
		C155.2,183.1,166.8,184.1,169.6,178.3z"/>
	<path class="st9" d="M126.7,117.2c0,0,0.1,0.1,0.3,0.4c1.5,1.8,7.6,9.5,9.8,17.4c1.3,4.6,2.7,6.7,4.1,8.5c1.4,1.8,2.9,3.4,4.6,7.5
		c1.7,4,2.4,7.9,3.5,11.4c1.1,3.5,2.5,6.5,5.8,8.6c3,1.9,5.9,5.6,8,8.7c1,1.6,1.9,3,2.5,4c0.3,0.5,0.5,0.9,0.7,1.2
		c0.2,0.3,0.2,0.5,0.2,0.5l0.9-0.4c0,0-1.3-2.7-3.5-5.8c-2.1-3.2-5-6.9-8.3-9c-3-1.9-4.3-4.7-5.4-8.1c-1-3.4-1.7-7.4-3.5-11.5
		c-1.8-4.1-3.3-5.9-4.7-7.7c-1.4-1.8-2.6-3.6-3.9-8.2c-2.6-9.3-10.3-18.1-10.4-18.2L126.7,117.2L126.7,117.2z"/>
	<g>
		<defs>
			<polyline id="SVGID_1_" points="250.2,195.6 114.3,195.6 114.3,76.1 250.2,76.1 250.2,195.6 			"/>
		</defs>
		<clipPath id="SVGID_2_">
			<use xlink:href="#SVGID_1_"  style="overflow:visible;"/>
		</clipPath>
		<path class="st11" d="M144.4,268.6c0.5-5.6,0.9-11.3,0.9-16.8l6.4-40.9l-21.5-4.2c0,0-2.8,25.5-3.1,46.7c0,0-3.2,7.1-2.8,14.7"/>
		<path class="st11" d="M218.2,200.7c0,0,4.5,11.9,4.1,35.2c-0.4,23.3-0.4,30.2-0.4,30.2l-13.5,1.5l-3.7-68.1L218.2,200.7z"/>
		<path class="st12" d="M206.8,169.5c0,0,11,1.3,14.7,34c0,0-8.6,4.1-21.7,0.8L206.8,169.5z"/>
		<path class="st12" d="M142.3,171.2c0,0-14.6,4.8-15,44.2c0,0,1.8,8.3,26.7,2.8C154,218.2,166,187.7,142.3,171.2z"/>
		<path class="st11" d="M186.5,161.1c-1.6-7.4-2.9-15-1-21l-28.3-36.3c0,0,8.5,32.1,8.1,53.1c0,1.7-0.7,3.2-1.7,4.4"/>
		<path class="st12" d="M163.5,161.4c-3,3.7-9.1,5.6-10.8,6.7c-4.9,3.1,0.5,2.5-9.2,4c0,0,22.6,29.1,47.1,12.9
			c0.1-0.1,0.2-0.1,0.3-0.2c4.9-3.3,9.5-8.4,13.6-15.9c0,0-7-0.1-12.1-1.5c-3-0.9-5.2-3.3-5.9-6.3"/>
		<polygon class="st13" points="166.2,170.8 175.8,197 185.4,171.2 175.6,166.2 		"/>
		<path class="st14" d="M175.5,163.5l-4.3,11c0,0,3.7,5.9,9.1-0.7L175.5,163.5z"/>
		<polygon class="st14" points="175.3,172.5 171.9,186.4 175.8,197 180.1,185.6 		"/>
		<polygon class="st13" points="165.6,158.1 163,163 166.8,178.9 175.8,169.9 175.6,159.8 		"/>
		<polygon class="st13" points="185.6,157.9 188.5,162.7 184.9,178.7 175.8,169.9 175.6,159.8 		"/>
		<polyline class="st15" points="175.1,159.8 175.3,170.2 176.3,170.2 176.1,159.8 		"/>
		<path class="st11" d="M201.9,129.5c0.6-3.2-1-6.2-3.5-6.6c-2.5-0.4-4.9,1.9-5.5,5.1c-0.6,3.2,1,6.2,3.5,6.6
			C198.9,135,201.4,132.7,201.9,129.5z"/>
		<path class="st11" d="M197.3,120.9c0,0,4.7,35-11.1,34.8c-19.6-0.3-28.2-27.5-30.1-42.8c-0.9-7.3,5.7-10.2,12.5-12.9
			C179.2,96,190.1,103,197.3,120.9z"/>
		<path class="st16" d="M194.9,103.8c-4.9-6.6-13.6-10.9-24.7-8.5c-11.1,2.4-17.2,11.3-16.7,21.9c0.8,17.1,7.5,13.1,7.5,13.1
			s21.9-3.7,25.9-25.4c5.4,5.8,7.7,17.8,10.7,17.9C197.6,122.8,199.8,110.4,194.9,103.8z"/>
		<path class="st12" d="M209,193.7c-0.8-2.6-2.2-24.2-2.2-24.2c-2.4-0.8-2.9-0.7-5.4-0.9c-2.6-0.3-6.2-0.7-9-1.5c-2-0.5,8,18-7.1,20
			c-14.5,0.9-28.1-21.1-28.1-21.1c-6.2,3.3-14.8,5.2-14.8,5.2c9.4,31.2,3.1,40.1,6.5,56.3c0.1,0.6,0.3,1.1,0.5,1.7
			c0.9,2.5,3.4,11.9-1.2,26.7c-4.1,13.3,35.3,27.1,66.7,5.8c8.9-6-1-13.4,2-25.1C222.3,214.8,212.5,204.3,209,193.7z"/>
		<path class="st15" d="M212.5,234.8L212.5,234.8c-1.1,0.9-10.1,7.4-23.1,7.4c-3.6,0-7.6-0.5-11.8-1.8l-0.3,1
			c4.3,1.3,8.4,1.8,12.1,1.8c14.3,0,23.7-7.6,23.7-7.6L212.5,234.8L212.5,234.8z"/>
		<path class="st15" d="M170.5,147.7c0,0,0.9,2.1,3.2,4.2c2.3,2.1,6.1,4.4,11.7,4.7l0.1-1c-5.4-0.3-8.9-2.4-11.1-4.4
			c-1.1-1-1.8-2-2.3-2.7c-0.2-0.4-0.4-0.7-0.5-0.9c-0.1-0.1-0.1-0.2-0.1-0.2l0-0.1l0,0L170.5,147.7L170.5,147.7z"/>
		<path class="st15" d="M186,124c0,0,0.1,1.4,0.4,3c0.3,1.7,0.7,3.6,1.4,4.8c0.3,0.6,0.5,1.2,0.5,1.6c0,0.5-0.2,0.9-0.8,1.4
			c-0.6,0.4-1.6,0.7-3.1,0.9l0.1,1c1.6-0.1,2.7-0.5,3.5-1c0.8-0.5,1.2-1.3,1.2-2.2c0-0.7-0.2-1.4-0.6-2.1c-0.6-1-1-2.9-1.3-4.5
			c-0.1-0.8-0.2-1.5-0.3-2.1c-0.1-0.5-0.1-0.9-0.1-0.9L186,124L186,124z"/>
		<polyline class="st15" points="206.3,188.5 217.2,215.3 218.1,214.9 207.2,188.2 		"/>
		<polyline class="st15" points="148.8,213.4 144.8,192.3 143.8,192.5 147.8,213.5 		"/>
		<polyline class="st15" points="197.3,129.7 197.6,134.5 198.6,134.4 198.3,129.7 		"/>
		<path class="st16" d="M154,133.7c0,0-8.2,10.7-2.7,19.3s17.1,36.4,15.8,49.9c-1.3,13.6,25-11,12.2-29.4
			c-12.8-18.4-1.7-22.3-10.2-28.9C160.5,138,154,133.7,154,133.7z"/>
		<path class="st17" d="M155.1,128.1c-2,0.5-3.5,2.5-3.8,4.6c-0.4,2.6,1,5.2,3.4,6.2c3.4,1.5,7.3-0.9,8-3.7
			C163.5,131.7,158.8,127.1,155.1,128.1z"/>
		<path class="st11" d="M158.8,138.5c2.6,3,6.5,3.8,8.8,1.8c2.3-2,2-6-0.6-8.9c-2.6-3-6.5-3.8-8.8-1.8
			C155.9,131.6,156.2,135.6,158.8,138.5z"/>
		<path class="st15" d="M160.6,133.7l-0.1-0.3L160.6,133.7L160.6,133.7l-0.1-0.3L160.6,133.7L160.6,133.7c0.2,0,0.6,0,1.1,0.5
			c0.5,0.4,1.1,1.3,1.7,3l0.9-0.3c-0.6-1.8-1.3-2.8-2-3.4c-0.7-0.6-1.3-0.7-1.7-0.7c-0.1,0-0.2,0-0.3,0L160.6,133.7L160.6,133.7z"/>
		<path class="st15" d="M161.6,136.5L161.6,136.5L161.6,136.5L161.6,136.5L161.6,136.5L161.6,136.5c0-0.1,0.2-0.7,1.3-1.3l-0.5-0.9
			c-0.8,0.4-1.3,0.9-1.5,1.3c-0.2,0.4-0.3,0.7-0.3,0.8L161.6,136.5L161.6,136.5z"/>
		<path class="st16" d="M171.6,153.2c0,0,0,0.3,0,0.8c0,1.3,0.1,4.1,1.2,7.3c1.1,3.3,3.1,7,6.9,10.3c2.9,2.5,5.1,5.5,6.6,8.5
			c1.5,3,2.2,5.9,2.2,8.1c0,1.1-0.2,2-0.5,2.7c-0.3,0.7-0.7,1.2-1.3,1.5l0.5,0.9c0.8-0.4,1.4-1.1,1.7-2c0.4-0.9,0.5-1.9,0.5-3.1
			c0-2.5-0.8-5.5-2.3-8.6c-1.5-3.1-3.8-6.2-6.8-8.8c-3.6-3.1-5.5-6.7-6.6-9.8c-1-3.1-1.2-5.8-1.2-7c0-0.2,0-0.4,0-0.5
			c0-0.1,0-0.2,0-0.2L171.6,153.2L171.6,153.2z"/>
		<path class="st16" d="M186.3,103L186.3,103c0.2,0.6,0.8,2.8,0.8,5.6c0,2.1-0.3,4.7-1.4,7.1c-1.1,2.4-2.9,4.8-5.9,6.8l0.5,0.8
			c3.2-2,5.1-4.6,6.3-7.2c1.1-2.6,1.5-5.3,1.5-7.5c0-3.4-0.8-5.9-0.8-5.9L186.3,103L186.3,103z"/>
		<path class="st16" d="M196.1,123.6c-0.1,0-0.9-0.7-2.4-0.7c-0.7,0-1.5,0.1-2.4,0.5l0.4,0.9c0.8-0.3,1.4-0.4,2-0.4
			c0.6,0,1,0.1,1.3,0.3c0.1,0.1,0.2,0.1,0.3,0.2l0.1,0l0,0l0.1-0.1l-0.1,0.1l0,0l0.1-0.1l-0.1,0.1L196.1,123.6L196.1,123.6z"/>
		<path class="st16" d="M179.5,124.6c0,0-0.9-0.6-2.3-0.6c-0.8,0-1.8,0.2-2.8,0.8l0.5,0.8c0.8-0.5,1.6-0.7,2.2-0.7
			c0.5,0,1,0.1,1.3,0.2c0.2,0.1,0.3,0.1,0.4,0.2l0.1,0l0,0l0,0l0,0l0,0l0,0l0,0L179.5,124.6L179.5,124.6z"/>
		<path class="st15" d="M195.5,129.2c-0.1-0.1-0.8-0.8-2.3-0.8c-0.6,0-1.3,0.1-2.1,0.5l0.4,0.9c0.7-0.3,1.3-0.4,1.7-0.4
			c0.6,0,1,0.1,1.2,0.3c0.1,0.1,0.2,0.1,0.3,0.2l0.1,0.1l0,0l0.1-0.1l-0.1,0.1l0,0l0.1-0.1l-0.1,0.1L195.5,129.2L195.5,129.2z"/>
		<path class="st15" d="M180,129.8c0,0-0.9-0.5-2.4-0.5c-0.9,0-2,0.2-3.2,0.8l0.5,0.9c1-0.5,2-0.7,2.7-0.7c0.6,0,1.1,0.1,1.4,0.2
			c0.2,0,0.3,0.1,0.4,0.1l0.1,0l0,0l0,0L180,129.8L180,129.8z"/>
		<path class="st18" d="M188.1,99.9L188.1,99.9c-11.2,1.1-21.8,5.8-30.1,13.4l-1.4,1.3L147,94l31.5-14.7L188.1,99.9z"/>
		<path class="st19" d="M148.7,97.6c3.7-1.4,7.9-3.1,12.3-5.2c8.1-3.8,14.9-7.6,18.7-10.5l-1.2-2.6L147,94L148.7,97.6z"/>
		<path class="st18" d="M185.8,73.9c0.8,1.8-9,8.1-21.9,14.1s-24.1,9.5-24.9,7.7c-0.8-1.8,9-8.1,21.9-14.1
			C173.8,75.6,185,72.1,185.8,73.9z"/>
		<polygon class="st20" points="161,84 142.9,94.4 143.8,116.6 144.8,116.6 143.9,95 161.5,84.9 161,84 		"/>
		<path class="st20" d="M146,116.4c0.1,1-0.7,1.8-1.7,1.9c-1,0.1-1.8-0.7-1.9-1.7s0.7-1.8,1.7-1.9S146,115.4,146,116.4z"/>
		<path class="st20" d="M146.5,124.8l-3.6,0.2l-0.3-6c0-0.5,0.4-1,0.9-1l1.7-0.1c0.5,0,1,0.4,1,0.9L146.5,124.8z"/>
		<path class="st13" d="M175.4,137.1c0,0,5.7,2.5,11.6,3.3c0,0-2.5,4.4-7.1,3.4C176.1,143.1,175.4,137.1,175.4,137.1z"/>
	</g>
	<rect x="218.1" y="88.6" class="st21" width="23.3" height="34.1"/>
	<path class="st1" d="M239.8,177.5c0,7.3-5.9,13.2-13.2,13.2c-7.3,0-13.2-5.9-13.2-13.2s5.9-13.2,13.2-13.2
		C233.9,164.3,239.8,170.2,239.8,177.5z"/>
	<path class="st4" d="M228.4,180.3c-0.1,0.2-0.4,0.3-0.6,0.2c-0.9-0.5-1.7-1.1-2.6-1.9l0,0l0,0c-0.8-0.8-1.4-1.7-1.9-2.6
		c-0.1-0.2,0-0.5,0.2-0.6c0.2-0.1,0.4-0.2,0.6-0.4c0.1-0.1,0.2-0.2,0.1-0.4l-0.7-3.9c0-0.1-0.1-0.3-0.3-0.3c-0.9-0.3-2-0.1-2.7,0.6
		c-0.6,0.6-0.8,1.4-0.8,2.2l0,0l0,0l0,0c0,0.1,0.1,1,0.5,2.1c0.7,2.2,1.8,3.9,3.1,5.1c1.2,1.3,2.9,2.4,5.1,3.1
		c1.2,0.4,2,0.5,2.1,0.5l0,0l0,0l0,0c0.8,0.1,1.6-0.2,2.2-0.8c0.7-0.7,0.9-1.8,0.6-2.7c0-0.1-0.2-0.2-0.3-0.3l-3.9-0.7
		c-0.1,0-0.3,0-0.4,0.1C228.6,179.9,228.5,180.1,228.4,180.3z"/>
	<rect x="263.1" y="204.8" class="st4" width="138.2" height="119.6"/>
	<g>
		<defs>
			<polyline id="SVGID_3_" points="401.3,324.4 263,324.4 263,204.8 401.3,204.8 401.3,324.4 			"/>
		</defs>
		<clipPath id="SVGID_4_">
			<use xlink:href="#SVGID_3_"  style="overflow:visible;"/>
		</clipPath>
		<rect x="270.6" y="221.2" class="st22" width="22.1" height="35.3"/>
		<rect x="297.5" y="248.1" class="st22" width="22.1" height="35.3"/>
		<path class="st23" d="M351.1,314.3c5.8,0.2,10.6-8.6,11.1-9.6c2.7-5,1.3-7,3.9-9.5c4.3-4.4,10.2-0.5,13.9-4.2
			c4.1-4.1-1.3-10.4,2.8-17.5c3-5.2,7-3.8,11.1-9.6c2.7-3.8,6.2-11.9,2.3-17.2c-4.1-5.4-14.1-5.3-18.2-1.2
			c-4.1,4.1-0.7,10.7-5.1,13.9c-3.4,2.5-6.6-0.7-10,1.6c-5.3,3.6-1.6,13.6-6.3,16.2c-3.4,1.9-6.5-2.7-10.7-1.3
			c-6.1,2.1-8.7,15.4-5.3,25.7C340.9,303.1,344.7,314.1,351.1,314.3z"/>
		<path class="st24" d="M389.5,250.3c0,0-0.1,0.2-0.2,0.5c-1,2.1-5.6,10.8-11.9,16c-3.7,3.1-5,5.1-6.1,7.2c-1.1,2-2,4-5,7.3
			c-3,3.2-6.3,5.4-9,7.8c-2.7,2.4-4.9,4.9-5.5,8.8c-0.5,3.6-2.7,7.7-4.7,10.8c-1,1.6-2,2.9-2.7,3.9c-0.4,0.5-0.7,0.9-0.9,1.1
			c-0.2,0.3-0.3,0.4-0.3,0.4l0.8,0.6c0,0,1.9-2.3,3.9-5.5c2-3.2,4.2-7.4,4.8-11.2c0.5-3.5,2.5-5.9,5.2-8.2c2.7-2.3,6-4.6,9.1-7.9
			c3.1-3.3,4-5.5,5.1-7.5c1.1-2,2.2-3.9,5.9-6.9c7.4-6.2,12.4-16.8,12.4-16.8L389.5,250.3L389.5,250.3z"/>
		<path class="st25" d="M293.8,439c0.5-30.5,2-88.7,2-88.7l-23.2,4.2c0,0-5.5,37.7,0.9,51c0,0-3.7,15.5-3.3,34.3"/>
		<path class="st25" d="M370,433.9c0.1-31.7-0.3-85.6-0.3-85.6l22.8,5.7c0,0,2.7,40.6-2.6,55.9c0,0,3,9.9,1,24.8"/>
		<path class="st26" d="M306.1,232c-0.3,0.3-0.3,19.1,1.7,21.3l4.5,0.1L314,239L306.1,232z"/>
		<path class="st27" d="M289.5,305.4c0,0-23.3,14.7-25.4,56.5c0,0,21.1,3.1,37.5-2.1L289.5,305.4z"/>
		<path class="st27" d="M344.3,292.1c4.4,4,8,5,8,5c6.5,3.6,7,6.9,19.5,8.1c0,0-25.2,62.4-57.6,43.7c-0.1-0.1,0.5,3.9,0.3,3.8
			c-6.5-3.9-16.4-38.9-22.1-48c0,0,8.6-1.6,14.9-3.8c3.7-1.3,6.5-5.4,7.1-9.3"/>
		<path class="st25" d="M314.5,291.4c1.5-9.5,2.6-17.6-0.2-24.9l30.5-9.8c0,0-10.3,26.6-0.6,35.4"/>
		<path class="st25" d="M303.5,257.8c-0.7-3.5,0.8-6.8,3.5-7.3c2.7-0.6,5.4,1.8,6.2,5.3c0.7,3.5-0.8,6.8-3.5,7.3
			S304.2,261.3,303.5,257.8z"/>
		<path class="st25" d="M308.8,251.4c0,0-4.3,35.3,12.8,34.2c17.4-1.1,20.9-20.5,27.1-38.2c2.6-7.5-4.9-17.8-12.3-20.4
			C324.7,222.9,309,226.2,308.8,251.4z"/>
		<path class="st27" d="M288.5,339.5c0.9-3.6,1-34.2,1-34.2c0.7-0.4,1.4-0.7,4.6-1.3c3.3-0.6,9.6-2.1,13.1-3.4l0.4,0.4
			c14.3,10.5,33,11.4,43.9-3.2l0.7-0.9c7.2,4.6,21.5,3.8,21.5,7.4c-1.5,76.9,5.2,99.6,0.9,126.1c-3.1,18.9-47,41.1-88.4,14.5
			c-11.7-7.5-6.4-27.3-4.2-43.7C286.9,363.8,284.9,354.4,288.5,339.5z"/>
		<path class="st28" d="M334.4,278.8L334.4,278.8c-0.1,0.1-1.1,1.6-3.1,3c-2,1.4-5.1,2.8-9.5,2.8c-1.8,0-3.8-0.2-6.1-0.8l-0.2,1
			c2.3,0.6,4.4,0.8,6.3,0.8c4.7,0,8.1-1.5,10.3-3.1c2.2-1.6,3.2-3.1,3.2-3.1L334.4,278.8L334.4,278.8z"/>
		<path class="st28" d="M329.7,265.6L329.7,265.6c0,0.1-0.6,0.9-1.7,1.7c-1.2,0.8-2.9,1.6-5.4,1.6c-1,0-2.2-0.1-3.5-0.5l-0.2,1
			c1.4,0.3,2.6,0.5,3.7,0.5c2.8,0,4.8-0.9,6.1-1.8c1.3-0.9,1.9-1.8,1.9-1.9L329.7,265.6L329.7,265.6z"/>
		<path class="st28" d="M319.5,251.1c0,0,0,0.4-0.1,0.9c-0.1,0.9-0.2,2.2-0.5,3.6c-0.2,1.4-0.6,2.8-1,3.6c-0.4,0.7-0.6,1.4-0.6,2.1
			c0,0.9,0.4,1.8,1.3,2.4c0.9,0.6,2.2,0.9,3.9,1l0.1-1c-1.7-0.1-2.8-0.4-3.4-0.8c-0.3-0.2-0.5-0.4-0.7-0.7c-0.1-0.2-0.2-0.5-0.2-0.8
			c0-0.5,0.2-1.1,0.5-1.7c0.7-1.4,1.1-3.5,1.4-5.3c0.3-1.8,0.3-3.3,0.3-3.3L319.5,251.1L319.5,251.1z"/>
		<polyline class="st28" points="307.5,257.9 307.3,263 308.3,263.1 308.5,257.9 		"/>
		<path class="st27" d="M372.2,303c0,0,22.1,4.2,25.7,54.2c0,0-1.3,13.1-24.4,11.3C373.5,368.5,343.4,325.7,372.2,303z"/>
		<path class="st28" d="M313.7,255.5c0,0.9-0.5,1.6-1.1,1.6c-0.6,0-1.1-0.7-1.1-1.6c0-0.9,0.5-1.6,1.1-1.6
			C313.2,253.9,313.7,254.7,313.7,255.5z"/>
		<path class="st28" d="M330.2,256.6c0,0.9-0.5,1.6-1.1,1.6c-0.6,0-1.1-0.7-1.1-1.6c0-0.9,0.5-1.6,1.1-1.6
			C329.7,255,330.2,255.7,330.2,256.6z"/>
		<path class="st26" d="M315.7,250.9c-0.1-0.1-0.9-0.9-2.5-0.9c-0.7,0-1.5,0.1-2.4,0.5l0.4,0.9c0.8-0.3,1.5-0.5,2-0.5
			c0.6,0,1.1,0.2,1.4,0.3c0.1,0.1,0.2,0.2,0.3,0.2l0.1,0.1l0,0l0.1-0.1l-0.1,0.1l0,0l0.1-0.1l-0.1,0.1L315.7,250.9L315.7,250.9z"/>
		<path class="st26" d="M332.8,252.4c-0.1-0.1-0.9-0.9-2.5-0.9c-0.7,0-1.5,0.1-2.4,0.5l0.4,0.9c0.8-0.3,1.5-0.5,2-0.5
			c0.6,0,1.1,0.2,1.4,0.3c0.1,0.1,0.2,0.2,0.3,0.2l0.1,0.1l0,0l0.1-0.1l-0.1,0.1l0,0l0.1-0.1l-0.1,0.1L332.8,252.4L332.8,252.4z"/>
		<path class="st26" d="M341.4,242.1c0,0-28.3,1.4-34.7-4.5c-2.8-2.6-2.4-5.4-1.1-7.7c1.9-3.3,5.5-5.3,9.3-5.4
			c7.5-0.1,22.5,0.1,27.5,3.6c6.7,4.7,7.7,12.4,7.7,12.4s2.8-0.5,4.7,4.3c2.1,5.5-8.3,19.7-8.3,19.7l-5.5,0.4L341.4,242.1z"/>
		<path class="st25" d="M348,266.6c-2.7,3.3-6.9,4.4-9.4,2.3c-2.5-2-2.4-6.4,0.2-9.7c2.7-3.3,6.9-4.4,9.4-2.3
			C350.8,258.9,350.7,263.3,348,266.6z"/>
		<path class="st28" d="M346,260.4c0,0-0.1,0-0.2,0c-0.3,0-1,0.1-1.7,0.8c-0.7,0.6-1.5,1.8-2.1,3.8l1,0.3c0.6-1.9,1.2-2.9,1.8-3.4
			c0.5-0.5,0.9-0.5,1.1-0.5l0,0l0,0l0-0.3l-0.1,0.3l0,0l0-0.3l-0.1,0.3L346,260.4L346,260.4z"/>
		<path class="st28" d="M345.9,264.4c0-0.1-0.1-0.4-0.3-0.8c-0.3-0.4-0.8-1-1.7-1.4l-0.4,0.9c0.7,0.3,1.1,0.7,1.3,1
			c0.1,0.1,0.1,0.3,0.2,0.3l0,0.1l0,0L345.9,264.4L345.9,264.4z"/>
		<path class="st28" d="M306.5,238.1c0,0.1,1.1,1.5,3.8,2.1l0.2-1c-1.2-0.3-2-0.7-2.5-1.1c-0.3-0.2-0.4-0.4-0.5-0.5l-0.1-0.1l0,0
			l0,0L306.5,238.1L306.5,238.1z"/>
		<path class="st29" d="M361.1,329.6c0,0,0,0.2-0.1,0.5c-0.7,2.2-4.1,12.3-10,21.8c-2.9,4.8-6.5,9.4-10.6,12.7
			c-4.1,3.4-8.8,5.6-14.1,5.6c-3.9,0-8-1.2-12.6-4l-0.5,0.8c4.7,2.9,9,4.1,13.1,4.1c5.9,0,11.1-2.6,15.6-6.5
			c6.7-5.8,11.7-14.5,15.1-21.8c3.4-7.2,5.1-13,5.1-13L361.1,329.6L361.1,329.6z"/>
		<path class="st26" d="M342.2,237.9l0.2,0L342.2,237.9L342.2,237.9l0.2,0L342.2,237.9c0,0,0,0.1,0,0.3c0,0.6-0.2,2-1.8,3.3
			c-1.7,1.3-4.9,2.5-11.1,2.5c-0.3,0-0.6,0-1,0l0,1c0.3,0,0.7,0,1,0c6.3,0,9.8-1.2,11.7-2.7c1.9-1.5,2.2-3.3,2.2-4.1
			c0-0.3,0-0.4,0-0.4L342.2,237.9L342.2,237.9z"/>
		<path class="st26" d="M348.1,244.1L348.1,244.1c0.1-0.3,0.4-1.7,1.2-2.9c0.4-0.6,0.9-1.2,1.5-1.6c0.6-0.4,1.3-0.7,2.2-0.7
			c0.3,0,0.6,0,0.9,0.1l0.2-1c-0.4-0.1-0.8-0.1-1.1-0.1c-1.2,0-2.2,0.4-2.9,1c-1.2,0.9-1.9,2.1-2.3,3.1c-0.4,1-0.6,1.8-0.6,1.9
			L348.1,244.1L348.1,244.1z"/>
		<polyline class="st29" points="285.7,362.3 287,342.2 286,342.2 284.7,362.2 		"/>
		<path class="st25" d="M390.4,404.7l1.6,3.7c0.7,1.5,1.8,5.1-0.2,8.5l-2.4,6.3l-2.3-12.4L390.4,404.7z"/>
		<polyline class="st29" points="374,368.5 374.4,339.6 373.4,339.6 373,368.5 		"/>
		<path class="st30" d="M347.3,239.2L347.3,239.2c-7.9-6.4-17.7-10-27.9-10.5l-1.7-0.1l6.9-19.3l29.6,10.5L347.3,239.2z"/>
		<path class="st31" d="M323.5,212.7c3.2,1.5,7.1,3,11.2,4.5c7.6,2.7,14.4,4.6,18.7,5.2l0.9-2.5l-29.6-10.5L323.5,212.7z"/>
		
			<ellipse transform="matrix(0.3361 -0.9418 0.9418 0.3361 25.1586 462.1436)" class="st30" cx="340.4" cy="213.2" rx="3.2" ry="23.3"/>
		<polygon class="st32" points="339.7,212.7 360.3,221.8 359.8,246.9 360.8,246.9 361.4,221.1 340.1,211.7 339.7,212.7 		"/>
		<path class="st32" d="M362,248.1c0,0.9-0.7,1.6-1.6,1.6s-1.6-0.7-1.6-1.6s0.7-1.6,1.6-1.6C361.3,246.5,362,247.2,362,248.1z"/>
		<path class="st32" d="M362,257.3l-3.2,0l0-7c0-0.5,0.4-1,1-1l1.3,0c0.5,0,1,0.4,1,1L362,257.3z"/>
		<polygon class="st33" points="317.3,302.6 329.9,328.9 342.4,303.1 329.6,298 		"/>
		<path class="st34" d="M329.4,295.3l-5.6,11c0,0,4.8,5.9,11.8-0.7L329.4,295.3z"/>
		<polygon class="st34" points="329.1,304.3 324.8,318.2 329.9,328.9 335.4,317.5 		"/>
		<polygon class="st33" points="314.8,289.6 313.1,294.8 318.1,310.8 329.8,301.8 329.6,291.7 		"/>
		<polygon class="st33" points="342.7,289.7 346.4,294.5 341.7,310.5 329.8,301.8 329.6,291.7 		"/>
		<polyline class="st28" points="329.1,291.7 329.3,302.1 330.3,302.1 330.1,291.7 		"/>
	</g>
	<rect x="263.1" y="76.1" class="st4" width="138.3" height="119.6"/>
	<rect x="342.9" y="91" class="st21" width="24.2" height="52.4"/>
	<rect x="375.7" y="109.8" class="st21" width="20.4" height="43.5"/>
	<g>
		<defs>
			<polyline id="SVGID_5_" points="263.1,195.6 401.2,195.6 401.2,76.1 263.1,76.1 263.1,195.6 			"/>
		</defs>
		<clipPath id="SVGID_6_">
			<use xlink:href="#SVGID_5_"  style="overflow:visible;"/>
		</clipPath>
		<path class="st35" d="M304.2,168.3c0,0-3.7-13.6-22.3-2.7c-10.2,6-8.8,11.9-8.8,11.9s18.9,10.5,29.9,7.6
			C313.9,182.3,312.9,171.3,304.2,168.3z"/>
		<path class="st36" d="M285.4,171.3c0,0,0.1,0,0.4-0.1c1.7-0.5,8.8-2.4,17.1-2.4c5.4,0,11.2,0.8,16.2,3.4c5,2.6,9.2,6.8,11.5,13.8
			l1-0.3c-2.3-7.2-6.8-11.7-12-14.3c-5.2-2.6-11.2-3.5-16.6-3.5c-9.6,0-17.7,2.6-17.7,2.6L285.4,171.3L285.4,171.3z"/>
		<path class="st35" d="M303.4,147.2c0,0,4.3-13.4-17.3-14.4c-11.8-0.6-13.9,5.2-13.9,5.2s10.2,19.1,20.9,22.7
			S309.1,154.4,303.4,147.2z"/>
		<path class="st36" d="M286.1,139.5L286.1,139.5c1.1,0.2,9.7,1.8,18.7,8.3c9.1,6.5,18.6,17.9,21.5,37.7l1-0.1
			c-3-20.7-13.3-32.5-22.8-39c-9.5-6.5-18.2-7.8-18.3-7.8L286.1,139.5L286.1,139.5z"/>
		<path class="st37" d="M290.9,307.4c2.2-30.4,7-88.4,7-88.4l-23.4,2.9c0,0-7.6,37.3-1.9,51c0,0-4.6,15.3-5.2,34"/>
		<path class="st37" d="M367.3,306.6c1.8-31.6,4.4-85.5,4.4-85.5l22.5,7c0,0,0.4,40.7-5.7,55.7c0,0,2.4,10.1-0.4,24.8"/>
		<path class="st38" d="M318,105.3c0,0-2.8,1.4-2.3,3.4c0.4,2.1-1.5,3.7-1.5,6.9s2.3,7.4,2.3,7.4l3.4-17.6L318,105.3z"/>
		<path class="st39" d="M294.1,173.7c0,0-24,13.3-28.5,55c0,0,20.9,4.2,37.6,0L294.1,173.7z"/>
		<path class="st39" d="M351.9,164.2c4.5,5.9,8.2,5.7,11.1,7.5c6.3,3.9,0.9,4.5,13.3,6.4c0,0-28.7,60.9-59.9,40.4
			c-0.1-0.1,0.3,3.9,0.1,3.8c-6.3-4.2-14.2-39.7-19.4-49.2c0,0,8.7-1.1,15.1-3c3-0.9,5.6-3.6,6.9-6.6"/>
		<path class="st37" d="M319.2,163.4c0.3-0.7,0.6-1.5,0.7-2.2c2-9.4,3.6-17.4,1.2-24.9l32.5-9.3c0,0-9.7,26.8-1.7,37.1"/>
		<path class="st37" d="M310.8,127.1c-0.5-3.5,1.2-6.7,3.9-7.1c2.7-0.4,5.3,2.1,5.9,5.6c0.5,3.5-1.2,6.7-3.9,7.1
			C313.9,133.1,311.3,130.6,310.8,127.1z"/>
		<path class="st37" d="M316.4,121c0,0-6.3,34.8,10.9,34.9c21.2,0,26.9-20.2,29.2-36.6c1.1-7.9-3.9-18-11.2-21
			C333.9,93.4,318.1,95.8,316.4,121z"/>
		<path class="st39" d="M291.2,207.8c1.1-3.5,2.9-34.1,2.9-34.1c0.7-0.4,1.4-0.6,4.7-1c3.3-0.4,9.7-1.6,13.3-2.6l0.4,0.4
			c13.7,11.3,32.3,13.2,44.1-0.7l0.7-0.8c7,5,21.3,5,21,8.6c-5.8,76.7-0.4,99.8-6.2,126c-4.1,18.7-49.3,38.4-89.1,9.6
			c-11.3-8.2-4.9-27.6-1.8-43.8C288.3,232,286.8,222.4,291.2,207.8z"/>
		<path class="st40" d="M340.4,149.8L340.4,149.8c-0.1,0.1-1.1,1.4-3,2.6c-1.9,1.2-4.8,2.4-8.8,2.4c-2.1,0-4.4-0.3-7.1-1.2l-0.3,1
			c2.8,0.9,5.2,1.2,7.4,1.2c4.3,0,7.5-1.4,9.5-2.7c2.1-1.4,3-2.7,3.1-2.8L340.4,149.8L340.4,149.8z"/>
		<path class="st40" d="M327.1,121.3c0,0,0,0,0,0.1c0,0.7-0.3,3.7-1.5,5.7c-0.5,0.8-0.7,1.5-0.7,2.3c0,0.9,0.4,1.7,1.3,2.3
			c0.9,0.6,2.1,1,3.8,1.1l0.1-1c-1.6-0.2-2.7-0.5-3.3-1c-0.6-0.4-0.8-0.9-0.9-1.5c0-0.5,0.2-1.1,0.6-1.8c0.8-1.3,1.2-2.9,1.4-4.1
			c0.2-1.3,0.2-2.2,0.3-2.2L327.1,121.3L327.1,121.3z"/>
		<polyline class="st40" points="314.7,127.3 314.3,132.5 315.3,132.6 315.7,127.4 		"/>
		<path class="st39" d="M376.8,176c0,0,21.8,5.4,22.6,55.6c0,0-2,13-25,9.9C374.5,241.5,346.8,197.1,376.8,176z"/>
		<path class="st38" d="M323.4,120.8c0-0.1-0.9-1.1-2.7-1.1c-0.6,0-1.3,0.1-2.1,0.4l0.3,0.9c0.7-0.3,1.3-0.3,1.8-0.3
			c0.7,0,1.2,0.2,1.5,0.4c0.2,0.1,0.3,0.2,0.3,0.2l0.1,0.1l0,0l0.1-0.1l-0.1,0.1l0,0l0.1-0.1l-0.1,0.1L323.4,120.8L323.4,120.8z"/>
		<path class="st38" d="M340.3,123.3c0-0.1-0.9-1.1-2.7-1.1c-0.6,0-1.3,0.1-2.1,0.4l0.3,0.9c0.7-0.3,1.3-0.3,1.8-0.3
			c0.7,0,1.2,0.2,1.5,0.4c0.2,0.1,0.3,0.2,0.3,0.2l0.1,0.1l0,0l0.1-0.1l-0.1,0.1l0,0l0.1-0.1l-0.1,0.1L340.3,123.3L340.3,123.3z"/>
		<path class="st37" d="M354.7,138.3c-2.8,3.2-7.1,4-9.5,1.8c-2.4-2.2-2.1-6.5,0.8-9.7c2.8-3.2,7.1-4,9.5-1.8
			C357.9,130.8,357.6,135.1,354.7,138.3z"/>
		<path class="st40" d="M353,132c0,0-0.1,0-0.3,0c-0.4,0-1.1,0.1-1.8,0.8c-0.7,0.6-1.5,1.7-2.2,3.6l0.9,0.3c0.6-1.8,1.3-2.7,1.9-3.2
			c0.6-0.5,1-0.5,1.1-0.5l0.1,0l0,0l0-0.3l-0.1,0.3l0,0l0-0.3l-0.1,0.3L353,132L353,132z"/>
		<path class="st40" d="M352.8,136c0-0.1,0-0.4-0.3-0.8c-0.3-0.4-0.7-1-1.6-1.5l-0.5,0.9c0.7,0.4,1,0.8,1.2,1.1
			c0.1,0.1,0.1,0.3,0.2,0.3l0,0.1l0,0L352.8,136L352.8,136z"/>
		<path class="st40" d="M350.4,141.1l0.1,0.1L350.4,141.1L350.4,141.1l0.1,0.1L350.4,141.1c0,0-0.3,0.2-0.7,0.2
			c-0.5,0-1.2-0.2-2.1-0.9l-0.6,0.8c1.1,0.9,2,1.1,2.7,1.1c0.8,0,1.3-0.3,1.3-0.4L350.4,141.1L350.4,141.1z"/>
		<path class="st38" d="M354.8,127.8c0,0-4.1-1.1-4.8-5.6c-0.7-4.5,0.4-5.8-4.3-7.6s-3.3-2.1-7-4.7c-3.7-2.6-7.4,1.8-12.1-1.4
			c-4.7-3.2-7,1-8.5,0c-1.5-1-4.7-2.6-2.5-5.5s0.4-3.7,4.5-6.2s8.1-0.6,10.7-1.5s4.5,0.3,8.5,1.4c4,1.1,12.7,0.8,14.3,5.4
			c1.7,4.5,3,2.2,4.3,5.8c1.2,3.6-1.4,2.3,0.6,6.9C360.4,119.3,359.5,125.6,354.8,127.8z"/>
		<polyline class="st41" points="287.2,230.4 289.6,210.4 288.6,210.3 286.2,230.2 		"/>
		<path class="st37" d="M389.4,278.6l1.3,3.8c0.6,1.5,1.5,5.2-0.7,8.5l-2.7,6.2l-1.6-12.5L389.4,278.6z"/>
		<polyline class="st41" points="375,241.5 377,212.7 376,212.6 374,241.5 		"/>
		<path class="st42" d="M355.6,110.9L355.6,110.9c-7.6-6.8-17.1-11-27.2-12l-1.7-0.2l8-18.9L363.5,92L355.6,110.9z"/>
		<path class="st43" d="M333.2,83.1c3.1,1.6,6.9,3.4,10.9,5.1c7.4,3.1,14.1,5.4,18.3,6.2l1-2.4l-28.9-12.2L333.2,83.1z"/>
		<path class="st42" d="M371.6,93.7c-0.7,1.6-10.9-1.1-22.8-6.1c-11.9-5-20.9-10.4-20.3-12s10.9,1.1,22.8,6.1
			C363.2,86.6,372.3,92,371.6,93.7z"/>
		<polygon class="st44" points="349.4,84 371.1,94 370.7,108.4 371.7,108.4 372.1,93.3 349.9,83.1 349.4,84 		"/>
		<path class="st44" d="M372.7,108.2c0,0.9-0.7,1.6-1.6,1.6c-0.9,0-1.6-0.7-1.6-1.6s0.7-1.6,1.6-1.6
			C372,106.6,372.7,107.3,372.7,108.2z"/>
		<path class="st44" d="M372.6,118.9l-3.2,0l0.1-8.4c0-0.5,0.4-1,1-1l1.3,0c0.5,0,1,0.4,1,1L372.6,118.9z"/>
		<polygon class="st45" points="322.7,172.1 335.3,198.3 347.8,172.5 335,167.5 		"/>
		<path class="st46" d="M334.8,164.8l-5.6,11c0,0,4.8,5.9,11.8-0.7L334.8,164.8z"/>
		<polygon class="st46" points="334.5,173.8 330.2,187.6 335.3,198.3 340.8,186.9 		"/>
		<polygon class="st45" points="320.2,159.1 318.5,164.3 323.5,180.2 335.2,171.2 335,161.1 		"/>
		<polygon class="st45" points="349.4,158 351.8,163.9 347.1,180 335.2,171.2 335,161.1 		"/>
		<polyline class="st40" points="334.5,161.1 334.7,171.5 335.7,171.5 335.5,161.1 		"/>
		<path class="st40" d="M322.8,126.6l0.1,0.1L322.8,126.6L322.8,126.6l0.1,0.1L322.8,126.6c0,0-0.6,0.4-1.8,0.4
			c-0.7,0-1.5-0.1-2.6-0.6l-0.4,0.9c1.2,0.5,2.2,0.7,3,0.7c1.4,0,2.3-0.5,2.3-0.6L322.8,126.6L322.8,126.6z"/>
		<path class="st40" d="M339.4,127.6L339.4,127.6c-0.1,0-0.9,0.5-2.2,0.5c-0.7,0-1.5-0.1-2.4-0.5l-0.4,0.9c1,0.4,2,0.6,2.8,0.6
			c1.7,0,2.7-0.6,2.7-0.7L339.4,127.6L339.4,127.6z"/>
		<path class="st45" d="M337.9,134.6c0,0-4.6,2-9.4,2.7c0,0,2,3.6,5.7,2.8C337.3,139.5,337.9,134.6,337.9,134.6z"/>
	</g>
	<rect x="112.7" y="204.9" class="st4" width="138.2" height="119.6"/>
	<g>
		<defs>
			<polyline id="SVGID_7_" points="112.8,324.5 251,324.5 251,204.9 112.8,204.9 112.8,324.5 			"/>
		</defs>
		<clipPath id="SVGID_8_">
			<use xlink:href="#SVGID_7_"  style="overflow:visible;"/>
		</clipPath>
		<rect x="119.6" y="216.1" class="st47" width="69.5" height="53.8"/>
		<path class="st48" d="M159.4,234.8c0,0-3.8,19.7-4.9,37.6c0,0,28.3,5.9,52.5,0.4c0,0-1.4-34.1-6.1-40.2
			C196.3,226.5,159.4,234.8,159.4,234.8z"/>
		<circle class="st49" cx="203.8" cy="258.9" r="2.9"/>
		<path class="st50" d="M152.6,336.8l1.2,15L128,356c0,0,0.5-8,0.2-13.3c-0.3-5.4,0.3-8.2,0.3-8.2L152.6,336.8z"/>
		<path class="st51" d="M214.6,294.3c0,0,16.3,1.3,18.1,36.4c0,0-14.1,4.5-27.8,0.2L214.6,294.3z"/>
		<path class="st50" d="M212.1,293.6c0,0-7.4-0.5-12.7-2.4c-3.1-1.1-7.6-4-8.1-7.3c-1.2-8,0.1-16,2.5-22.2l-26.7-9.3
			c0,0,5.2,12.6,3.7,26c-0.7,5.9-7.6,10.1-7.6,10.1c-5.4,3-7,4.5-17.5,5.4c0,0,21.1,52.3,48.2,36.6c0.1-0.1-0.4,3.2-0.3,3.2
			C199.1,330.6,207.4,301.2,212.1,293.6z"/>
		<path class="st50" d="M206.2,253.5c0.7-3.2-0.7-6.2-3.2-6.7c-2.4-0.5-4.9,1.6-5.6,4.8c-0.7,3.2,0.7,6.2,3.2,6.7
			C203,258.8,205.5,256.7,206.2,253.5z"/>
		<path class="st50" d="M202,244.9c0,0,3.3,34.6-12.3,34c-18.8-0.8-26.8-28.3-28.1-43.4c-0.6-7.2,6-9.8,12.9-12.2
			C185.1,219.5,195.5,226.9,202,244.9z"/>
		<path class="st48" d="M200.1,230c-4.6-6.7-12.3-10-23.3-8.2c-12.2,2-18.2,6.1-18.6,23.1c-0.4,16.9,12.9,22.6,12.9,22.6
			s-4.1-40.7,21.2-38.9c10.8,1.5,6.9,17.9,9.9,18.1C202.2,246.7,204.7,236.7,200.1,230z"/>
		<path class="st51" d="M215.4,320.2c-0.7-2.8-0.8-25.9-0.8-25.9c-2.5-1-3-0.9-5.7-1.4c-2.8-0.5-9.9-2.6-13.3-6.1l-3.3-0.6
			c-12,8.2-14.1,10.3-23.2-1l-3.7,1.6c-6.1,3.6-22,4.3-21.4,7c8,33.8,8.5,37.3,9.4,55.3c0,0.6-3.9,4.3-3.7,4.9
			c0.8,2.7,4.2,12.5,1.6,28.7c-3.9,24,26.6,35.8,61.3,15.1c9.8-5.9,4.5-19.5,8.4-31.7C228.3,343.5,218.4,331.7,215.4,320.2z"/>
		<path class="st52" d="M177.1,273c0,0.1,0.4,1.7,2,3.4c1.6,1.7,4.5,3.3,9.4,3.3c0.8,0,1.6,0,2.5-0.1l-0.1-1
			c-0.9,0.1-1.6,0.1-2.4,0.1c-4.7,0-7.3-1.5-8.7-3c-0.7-0.7-1.1-1.5-1.4-2c-0.1-0.3-0.2-0.5-0.3-0.7l-0.1-0.2l0,0l0,0L177.1,273
			L177.1,273z"/>
		<path class="st52" d="M190.6,247.4c0,0,0.1,1.4,0.3,3c0.2,1.7,0.6,3.6,1.2,4.8c0.3,0.6,0.4,1.1,0.4,1.5c0,0.3-0.1,0.5-0.2,0.7
			c-0.2,0.3-0.5,0.6-1.1,0.9c-0.6,0.2-1.5,0.4-2.6,0.5l0.1,1c1.6-0.1,2.8-0.4,3.6-0.9c0.8-0.5,1.3-1.3,1.2-2.2c0-0.6-0.2-1.3-0.6-2
			c-0.5-1-0.9-2.9-1.1-4.5c-0.1-0.8-0.2-1.5-0.2-2.1c0-0.5-0.1-0.9-0.1-0.9L190.6,247.4L190.6,247.4z"/>
		<polyline class="st52" points="215.4,315.6 218.6,332.7 219.6,332.5 216.4,315.4 		"/>
		<polyline class="st52" points="201.6,253.6 201.7,258.3 202.7,258.3 202.6,253.5 		"/>
		<path class="st50" d="M165.6,261.5c2.4,3,6.3,4,8.6,2.1c2.3-1.9,2.2-5.8-0.2-8.9c-2.4-3-6.3-4-8.6-2.1
			C163.1,254.5,163.1,258.5,165.6,261.5z"/>
		<path class="st52" d="M167.6,256.8l0-0.2L167.6,256.8L167.6,256.8l0-0.2L167.6,256.8L167.6,256.8c0.1,0,0.5,0,1,0.5
			c0.5,0.4,1.1,1.3,1.6,3.1l1-0.3c-0.5-1.9-1.2-2.9-1.9-3.5c-0.7-0.6-1.3-0.7-1.6-0.7c-0.1,0-0.2,0-0.2,0L167.6,256.8L167.6,256.8z"
			/>
		<path class="st52" d="M168.4,259.6L168.4,259.6L168.4,259.6L168.4,259.6L168.4,259.6L168.4,259.6c0-0.1,0.2-0.7,1.3-1.3l-0.4-0.9
			c-0.8,0.4-1.3,0.9-1.5,1.3c-0.3,0.4-0.3,0.7-0.3,0.8L168.4,259.6L168.4,259.6z"/>
		<path class="st51" d="M145.4,292.3c0,0-15.2,3.7-18.2,45.7c0,0,1.4,8.9,28.2,4.7C155.4,342.7,169.5,311.4,145.4,292.3z"/>
		<polyline class="st52" points="153.3,342.9 152.4,316.3 151.4,316.3 152.3,342.9 		"/>
		<path class="st48" d="M195.3,247.9l-0.1-0.1L195.3,247.9L195.3,247.9l-0.1-0.1L195.3,247.9c0,0,0.5-0.6,1.6-0.6
			c0.5,0,1,0.1,1.7,0.4l0.4-0.9c-0.8-0.3-1.5-0.4-2.1-0.4c-1.6,0-2.3,0.9-2.4,0.9L195.3,247.9L195.3,247.9z"/>
		<path class="st48" d="M179.8,249.7l-0.1-0.1L179.8,249.7L179.8,249.7l-0.1-0.1L179.8,249.7c0,0,0.5-0.6,1.6-0.6
			c0.5,0,1,0.1,1.7,0.4l0.4-0.9c-0.8-0.3-1.5-0.4-2.1-0.4c-1.6,0-2.3,0.9-2.4,0.9L179.8,249.7L179.8,249.7z"/>
		<polygon class="st50" points="232.8,330.7 236.2,355.8 221.2,351.6 219,332.5 		"/>
		<path class="st48" d="M184.9,222.4c0,0,16.7,1.1,16.3,18.8c0,0-8.2,3.5-32.3,0C168.9,241.2,167,222.3,184.9,222.4z"/>
		<path class="st52" d="M180.5,263.2c0,0,0.6,1,1.9,1.9c1.3,0.9,3.3,1.8,6.1,1.8c1.1,0,2.3-0.1,3.7-0.5l-0.2-1
			c-1.3,0.3-2.4,0.5-3.5,0.5c-2.6,0-4.4-0.8-5.5-1.7c-0.6-0.4-1-0.8-1.3-1.1c-0.1-0.2-0.2-0.3-0.3-0.4l-0.1-0.1l0,0l0,0L180.5,263.2
			L180.5,263.2z"/>
		<circle class="st49" cx="170.3" cy="265.1" r="2.9"/>
		<path class="st52" d="M200.7,252.3c-0.1-0.1-0.8-0.8-2.3-0.8c-0.6,0-1.3,0.1-2.1,0.5l0.4,0.9c0.7-0.3,1.3-0.4,1.7-0.4
			c0.6,0,1,0.1,1.2,0.3c0.1,0.1,0.2,0.1,0.3,0.2l0.1,0.1l0,0l0.1-0.1l-0.1,0.1l0,0l0.1-0.1l-0.1,0.1L200.7,252.3L200.7,252.3z"/>
		<path class="st52" d="M185.2,252.9c0,0-0.9-0.5-2.4-0.5c-0.9,0-2,0.2-3.2,0.8l0.5,0.9c1-0.5,2-0.7,2.7-0.7c0.6,0,1.1,0.1,1.4,0.2
			c0.2,0,0.3,0.1,0.4,0.1l0.1,0l0,0l0,0L185.2,252.9L185.2,252.9z"/>
		<polygon class="st49" points="168.8,295 180.5,321.2 191.9,295.4 180.2,290.4 		"/>
		<path class="st53" d="M180,287.6l-5.2,11c0,0,4.4,5.9,10.9-0.7L180,287.6z"/>
		<polygon class="st53" points="179.7,296.7 175.7,310.5 180.5,321.2 185.5,309.8 		"/>
		<polygon class="st49" points="168.2,282.3 165,287.2 169.6,303.1 180.3,294.1 180.2,284 		"/>
		<polygon class="st49" points="192.2,282.1 195.6,286.8 191.3,302.9 180.3,294.1 180.2,284 		"/>
		<polyline class="st52" points="179.7,284 179.8,294.4 180.8,294.4 180.7,284 		"/>
		<path class="st54" d="M224.2,202.4c2.2,2.9,5,7.6,5,13.4l0,0c0,4.5-1.7,7.7-3.4,11.1c-1.7,3.3-3.6,6.8-3.8,11.6c0,0.2,0,0.5,0,0.7
			c0,3.6,1,9,5.8,15.4l0.8-0.6c-4.6-6.4-5.6-11.4-5.6-14.9c0-0.2,0-0.4,0-0.7c0.2-4.5,1.9-7.8,3.7-11.2c1.8-3.3,3.5-6.8,3.5-11.5
			l0,0c0-6.2-3-11.1-5.2-14L224.2,202.4L224.2,202.4z"/>
		<path class="st55" d="M227,205.8c0,0,0.8,1.9,4.9,4.1S236.1,202.1,227,205.8z"/>
		<path class="st55" d="M229,220.2c0,0-0.1,2,2.8,5.7S238.9,220.5,229,220.2z"/>
		<path class="st55" d="M222.8,235.7c0,0-0.1,2,2.8,5.7C228.5,245.2,232.7,235.9,222.8,235.7z"/>
		<path class="st55" d="M229,211.8c0,0-2,0.3-5.2,3.8S230.5,221.5,229,211.8z"/>
		<path class="st55" d="M225.7,227.1c0,0-1.8-0.8-6.4,0.4S221.7,236.1,225.7,227.1z"/>
		<path class="st55" d="M223.2,245.3c0,0-1.9,0.6-4.5,4.5S226.2,254.8,223.2,245.3z"/>
		<path class="st54" d="M246,202.4c2.2,2.9,5,7.6,5,13.4l0,0c0,4.5-1.7,7.7-3.4,11.1c-1.7,3.3-3.6,6.8-3.8,11.6c0,0.2,0,0.5,0,0.7
			c0,3.6,1,9,5.8,15.4l0.8-0.6c-4.6-6.4-5.6-11.4-5.6-14.9c0-0.2,0-0.4,0-0.7c0.2-4.5,1.9-7.8,3.7-11.2c1.8-3.3,3.5-6.8,3.5-11.5
			l0,0c0-6.2-3-11.1-5.2-14L246,202.4L246,202.4z"/>
		<path class="st55" d="M248.8,205.8c0,0,0.8,1.9,4.9,4.1C257.8,212.2,257.9,202.1,248.8,205.8z"/>
		<path class="st55" d="M250.8,220.2c0,0-0.1,2,2.8,5.7C256.4,229.7,260.7,220.5,250.8,220.2z"/>
		<path class="st55" d="M244.6,235.7c0,0-0.1,2,2.8,5.7C250.3,245.2,254.5,235.9,244.6,235.7z"/>
		<path class="st55" d="M250.8,211.8c0,0-2,0.3-5.2,3.8C242.4,219,252.3,221.5,250.8,211.8z"/>
		<path class="st55" d="M247.5,227.1c0,0-1.8-0.8-6.4,0.4S243.5,236.1,247.5,227.1z"/>
		<path class="st55" d="M245,245.3c0,0-1.9,0.6-4.5,4.5C237.9,253.7,248,254.8,245,245.3z"/>
		<path class="st54" d="M236.2,268.6c-2.3-2.8-5.4-7.3-5.7-13.2c0-0.3,0-0.6,0-1c0-4.1,1.5-7.3,3-10.5c1.5-3.3,3.1-6.7,3.1-11.2
			c0-0.1,0-0.2,0-0.3c-0.1-3.7-1.2-9.2-6.6-15.8l-0.8,0.6c5.3,6.5,6.3,11.7,6.4,15.2c0,0.1,0,0.2,0,0.3c0,4.3-1.5,7.5-3,10.8
			c-1.5,3.3-3.1,6.6-3.1,11c0,0.3,0,0.7,0,1c0.3,6.1,3.5,10.9,5.9,13.8L236.2,268.6L236.2,268.6z"/>
		<path class="st55" d="M233.2,265.3c0,0-0.9-1.8-5.1-3.9S224.3,269.6,233.2,265.3z"/>
		<path class="st55" d="M230.4,251c0,0-0.1-2-3.1-5.6S220.6,251.3,230.4,251z"/>
		<path class="st55" d="M235.8,235.3c0,0-0.1-2-3.1-5.6S225.9,235.6,235.8,235.3z"/>
		<path class="st55" d="M230.9,259.5c0,0,2-0.4,5-4C238.8,251.8,228.9,249.8,230.9,259.5z"/>
		<path class="st55" d="M233.4,244.1c0,0,1.9,0.7,6.3-0.7C244.2,241.9,236.9,234.8,233.4,244.1z"/>
		<path class="st55" d="M234.9,225.7c0,0,1.9-0.7,4.3-4.7C241.6,216.9,231.4,216.4,234.9,225.7z"/>
	</g>
	<path class="st56" d="M169.7,234L169.7,234c10.8-2.5,19.1-3.1,29.7-2.6l1.7,0.4l-1.4-20.5l-31.4,2.2L169.7,234z"/>
	<path class="st57" d="M199.9,214.9c-3.5,0.5-7.6,1-12,1.3c-8,0.6-15.2,0.5-19.4,0l-0.2-2.6l31.4-2.2L199.9,214.9z"/>
	<path class="st56" d="M160.1,212.5c0.1,1.8,10.7,2.5,23.6,1.6c12.9-0.9,23.2-3.1,23.1-4.9c-0.1-1.8-10.7-2.5-23.6-1.6
		C170.3,208.5,160,210.7,160.1,212.5z"/>
	<polygon class="st58" points="184.2,210.5 206.3,209.7 206.6,227.2 207.6,227.2 207.3,208.7 184.2,209.5 184.2,210.5 	"/>
	<path class="st58" d="M205.6,226.9c0.1,0.9,0.8,1.6,1.7,1.5c0.9-0.1,1.6-0.8,1.5-1.7c-0.1-0.9-0.8-1.6-1.7-1.5
		C206.2,225.2,205.5,226,205.6,226.9z"/>
	<path class="st58" d="M206.1,235.1l3.2-0.2l-0.4-5.9c0-0.5-0.5-0.9-1-0.9l-1.3,0.1c-0.5,0-0.9,0.5-0.9,1L206.1,235.1z"/>
	<path class="st1" d="M396.2,177.5c0,7.3-5.9,13.2-13.2,13.2s-13.2-5.9-13.2-13.2s5.9-13.2,13.2-13.2S396.2,170.2,396.2,177.5z"/>
	<path class="st4" d="M384.9,180.3c-0.1,0.2-0.4,0.3-0.6,0.2c-0.9-0.5-1.7-1.1-2.6-1.9l0,0l0,0c-0.8-0.8-1.4-1.7-1.9-2.6
		c-0.1-0.2,0-0.5,0.2-0.6c0.2-0.1,0.4-0.2,0.6-0.4c0.1-0.1,0.2-0.2,0.1-0.4l-0.7-3.9c0-0.1-0.1-0.3-0.3-0.3c-0.9-0.3-2-0.1-2.7,0.6
		c-0.6,0.6-0.8,1.4-0.8,2.2l0,0l0,0l0,0c0,0.1,0.1,1,0.5,2.1c0.7,2.2,1.8,3.9,3.1,5.1c1.2,1.3,2.9,2.4,5.1,3.1
		c1.2,0.4,2,0.5,2.1,0.5l0,0l0,0l0,0c0.8,0.1,1.6-0.2,2.2-0.8c0.7-0.7,0.9-1.8,0.6-2.7c0-0.1-0.2-0.2-0.3-0.3l-3.9-0.7
		c-0.1,0-0.3,0-0.4,0.1C385.1,179.9,385,180.1,384.9,180.3z"/>
	<path class="st1" d="M239.8,306.2c0,7.3-5.9,13.2-13.2,13.2c-7.3,0-13.2-5.9-13.2-13.2s5.9-13.2,13.2-13.2
		C233.9,293,239.8,298.9,239.8,306.2z"/>
	<path class="st4" d="M228.4,308.9c-0.1,0.2-0.4,0.3-0.6,0.2c-0.9-0.5-1.7-1.1-2.6-1.9l0,0l0,0c-0.8-0.8-1.4-1.7-1.9-2.6
		c-0.1-0.2,0-0.5,0.2-0.6c0.2-0.1,0.4-0.2,0.6-0.4c0.1-0.1,0.2-0.2,0.1-0.4l-0.7-3.9c0-0.1-0.1-0.3-0.3-0.3c-0.9-0.3-2-0.1-2.7,0.6
		c-0.6,0.6-0.8,1.4-0.8,2.2l0,0l0,0l0,0c0,0.1,0.1,1,0.5,2.1c0.7,2.2,1.8,3.9,3.1,5.1c1.2,1.3,2.9,2.4,5.1,3.1
		c1.2,0.4,2,0.5,2.1,0.5l0,0l0,0l0,0c0.8,0.1,1.6-0.2,2.2-0.8c0.7-0.7,0.9-1.8,0.6-2.7c0-0.1-0.2-0.2-0.3-0.3l-3.9-0.7
		c-0.1,0-0.3,0-0.4,0.1C228.6,308.5,228.5,308.7,228.4,308.9z"/>
	<path class="st1" d="M396.2,306.2c0,7.3-5.9,13.2-13.2,13.2s-13.2-5.9-13.2-13.2S375.7,293,383,293S396.2,298.9,396.2,306.2z"/>
	<path class="st4" d="M384.9,308.9c-0.1,0.2-0.4,0.3-0.6,0.2c-0.9-0.5-1.7-1.1-2.6-1.9l0,0l0,0c-0.8-0.8-1.4-1.7-1.9-2.6
		c-0.1-0.2,0-0.5,0.2-0.6c0.2-0.1,0.4-0.2,0.6-0.4c0.1-0.1,0.2-0.2,0.1-0.4l-0.7-3.9c0-0.1-0.1-0.3-0.3-0.3c-0.9-0.3-2-0.1-2.7,0.6
		c-0.6,0.6-0.8,1.4-0.8,2.2l0,0l0,0l0,0c0,0.1,0.1,1,0.5,2.1c0.7,2.2,1.8,3.9,3.1,5.1c1.2,1.3,2.9,2.4,5.1,3.1
		c1.2,0.4,2,0.5,2.1,0.5l0,0l0,0l0,0c0.8,0.1,1.6-0.2,2.2-0.8c0.7-0.7,0.9-1.8,0.6-2.7c0-0.1-0.2-0.2-0.3-0.3l-3.9-0.7
		c-0.1,0-0.3,0-0.4,0.1C385.1,308.5,385,308.7,384.9,308.9z"/>
	<path class="st5" d="M423,77.9v28c0,0.8,0.7,1.4,1.5,1.4H490c0.4,0,0.7,0.1,1,0.3l7.2,5.9c1,0.8,2.4,0.1,2.4-1.1v-5.1V105V77.9
		c0-0.8-0.7-1.4-1.5-1.4h-74.7C423.6,76.5,423,77.1,423,77.9z"/>
	<path class="st5" d="M423,173.4v41.5c0,0.8,0.7,1.4,1.5,1.4H490c0.4,0,0.7,0.1,1,0.3l7.2,5.9c1,0.8,2.4,0.1,2.4-1.1v-5.1V214v-40.6
		c0-0.8-0.7-1.4-1.5-1.4h-74.7C423.6,172,423,172.6,423,173.4z"/>
	<path class="st5" d="M500.6,125.2v28c0,0.8-0.7,1.4-1.5,1.4h-65.5c-0.4,0-0.7,0.1-1,0.3l-7.2,5.9c-1,0.8-2.4,0.1-2.4-1.1v-5.1v-2.3
		v-27.1c0-0.8,0.7-1.4,1.5-1.4h74.7C499.9,123.8,500.6,124.5,500.6,125.2z"/>
	<path class="st0" d="M288.8,492.7c-2.5,0-5,0-7.5,0c-74.3,0.6-134.5,9.3-134.4,19.6c0.1,9.9,56.4,17.6,127.2,17.6c2.5,0,5,0,7.5,0
		c74.3-0.6,134.5-9.3,134.4-19.6C415.9,500.3,359.6,492.7,288.8,492.7"/>
	<path class="st56" d="M483.6,514.7L483.6,514.7c-57.3,40.9-178.7,16-180.9,4.5l-2.2-91.4l180.9-4.5L483.6,514.7z"/>
	<path class="st57" d="M301,448.3c20.3,1.2,44.2,1.6,69.7,1c46.3-1.1,87.1-5.4,111.1-10.9l-0.4-15.1l-180.9,4.5L301,448.3z"/>
	<path class="st56" d="M527.6,412.9c0.3,10.2-59.8,20-134.1,21.9c-74.3,1.8-134.7-5-135-15.2c-0.3-10.2,59.8-20,134.1-21.9
		C466.9,395.8,527.3,402.6,527.6,412.9z"/>
	<path class="st58" d="M168.4,516.1c-5.1,0.6-9.7-3-10.4-8.1s3-9.7,8.1-10.4s9.7,3,10.4,8.1S173.5,515.4,168.4,516.1z"/>
	<path class="st58" d="M125.1,521.6l-2.3-18.5l29.9-3.7c3.3-0.4,6.2,1.9,6.6,5.2l0.8,6.7c0.4,3.3-1.9,6.2-5.2,6.6L125.1,521.6z"/>
	<path class="st58" d="M389,406.1c0,0-30.8,2.9-61.7,6.6c-15.5,1.8-31,3.8-42.7,5.8c-5.9,1-10.8,1.9-14.3,2.8
		c-1.8,0.5-3.2,0.9-4.3,1.3c-0.5,0.2-1,0.5-1.4,0.8c-0.2,0.2-0.4,0.3-0.6,0.6c-0.2,0.2-0.4,0.5-0.5,0.9c-0.1,0.3-0.1,0.7-0.1,1.1
		c0,0.4,0,0.8,0,1.3c0,2.7,0.2,7.2,0.2,12.6c0,10.2-0.8,23.7-4.9,34.5c-2.1,5.4-5,10.1-8.9,13.4c-4,3.3-9,5.3-15.8,5.3
		c-2,0-4.1-0.2-6.3-0.5c-6.6-1.1-12.4-1.5-17.4-1.5c-7,0-12.6,0.9-17.1,2.3c-6.8,2.1-11.1,5.3-14.3,7.9c-1.6,1.3-2.9,2.4-4,3.1
		c-0.5,0.4-1,0.6-1.5,0.8c-0.5,0.2-0.9,0.3-1.3,0.3c-0.3,0-0.6,0-0.9-0.1l-0.8,2.9c0.6,0.2,1.2,0.2,1.7,0.2c1.1,0,2.1-0.3,3.1-0.8
		c1.6-0.8,3.1-2.1,4.8-3.5c2.6-2.1,5.7-4.6,10.4-6.6c4.7-2,11-3.5,19.9-3.5c4.8,0,10.4,0.4,16.9,1.5c2.4,0.4,4.6,0.6,6.8,0.6
		c7.3,0,13.2-2.3,17.7-6c3.4-2.8,6-6.4,8-10.4c3-6,4.7-13.1,5.7-20c1-7,1.2-13.9,1.2-19.7c0-5.5-0.2-10-0.2-12.6c0-0.5,0-0.9,0-1.2
		c0-0.3,0-0.5,0.1-0.6l-0.8-0.2l0.7,0.5c0,0,0.1-0.2,0.2-0.4l-0.8-0.2l0.7,0.5l-0.3-0.2l0.2,0.2l0,0l-0.3-0.2l0.2,0.2l0,0l0,0l0,0
		l0,0l0,0c0,0,0.2-0.2,0.6-0.3c0.7-0.3,1.8-0.7,3.2-1.1c2.8-0.7,6.7-1.6,11.5-2.4c16.8-2.9,43.7-6.2,66.4-8.7
		c11.4-1.3,21.7-2.3,29.1-3.1c3.7-0.4,6.8-0.7,8.8-0.9c2.1-0.2,3.2-0.3,3.2-0.3L389,406.1L389,406.1z"/>
</g>
</svg>
