<?xml version="1.0" encoding="utf-8"?>
<!-- Generator: Adobe Illustrator 24.0.2, SVG Export Plug-In . SVG Version: 6.00 Build 0)  -->
<svg version="1.1" id="Capa_1" xmlns="http://www.w3.org/2000/svg" xmlns:xlink="http://www.w3.org/1999/xlink" x="0px" y="0px"
	 viewBox="0 0 617.3 619.9" style="enable-background:new 0 0 617.3 619.9;" xml:space="preserve">
<style type="text/css">
	.st0{fill:#00BC7B;}
	.st1{fill:#410784;}
	.st2{fill:url(#SVGID_1_);}
	.st3{fill:url(#SVGID_2_);}
	.st4{clip-path:url(#SVGID_4_);fill:#410784;}
	.st5{clip-path:url(#SVGID_4_);fill:#EEB5A1;}
	.st6{clip-path:url(#SVGID_4_);fill:#F39B9A;}
	.st7{clip-path:url(#SVGID_4_);fill:url(#SVGID_5_);}
	.st8{clip-path:url(#SVGID_4_);fill:url(#SVGID_6_);}
	.st9{fill:url(#SVGID_7_);}
	.st10{fill:url(#SVGID_8_);}
	.st11{clip-path:url(#SVGID_10_);fill:url(#SVGID_11_);}
	.st12{clip-path:url(#SVGID_10_);fill:url(#SVGID_12_);}
	.st13{clip-path:url(#SVGID_10_);fill:#EEB5A1;}
	.st14{clip-path:url(#SVGID_10_);fill:url(#SVGID_13_);}
	.st15{clip-path:url(#SVGID_10_);fill:url(#SVGID_14_);}
	.st16{clip-path:url(#SVGID_10_);fill:#F39B9A;}
	.st17{clip-path:url(#SVGID_10_);fill:#410784;}
	.st18{clip-path:url(#SVGID_10_);fill:url(#SVGID_15_);}
	.st19{clip-path:url(#SVGID_10_);fill:url(#SVGID_16_);}
	.st20{clip-path:url(#SVGID_10_);fill:url(#SVGID_17_);}
	.st21{fill:url(#SVGID_18_);}
	.st22{fill:url(#SVGID_19_);}
	.st23{clip-path:url(#SVGID_21_);fill:url(#SVGID_22_);}
	.st24{clip-path:url(#SVGID_21_);fill:url(#SVGID_23_);}
	.st25{clip-path:url(#SVGID_21_);fill:#F39B9A;}
	.st26{clip-path:url(#SVGID_21_);fill:#EEB5A1;}
	.st27{clip-path:url(#SVGID_21_);fill:#410784;}
	.st28{clip-path:url(#SVGID_21_);fill:#FFD372;}
	.st29{clip-path:url(#SVGID_21_);fill:url(#SVGID_24_);}
	.st30{fill:#00AA6F;}
	.st31{fill:url(#SVGID_25_);}
	.st32{fill:url(#SVGID_26_);}
	.st33{fill:#3B0677;}
	.st34{fill:url(#SVGID_27_);}
	.st35{fill:url(#SVGID_28_);}
	.st36{clip-path:url(#SVGID_30_);fill:url(#SVGID_31_);}
	.st37{clip-path:url(#SVGID_30_);fill:#FFD73C;}
	.st38{clip-path:url(#SVGID_30_);fill:#410784;}
	.st39{clip-path:url(#SVGID_30_);fill:#F39B9A;}
	.st40{clip-path:url(#SVGID_30_);fill:#EEB5A1;}
	.st41{clip-path:url(#SVGID_30_);fill:#FAE59E;}
	.st42{clip-path:url(#SVGID_33_);fill:#00AA6F;}
	.st43{fill:url(#SVGID_34_);}
	.st44{fill:url(#SVGID_35_);}
	.st45{fill:url(#SVGID_36_);}
	.st46{fill:url(#SVGID_37_);}
	.st47{clip-path:url(#SVGID_39_);fill:url(#SVGID_40_);}
	.st48{clip-path:url(#SVGID_39_);fill:#F39B9A;}
	.st49{clip-path:url(#SVGID_39_);fill:#BE5E55;}
	.st50{clip-path:url(#SVGID_39_);fill:#EEB5A1;}
	.st51{clip-path:url(#SVGID_39_);fill:#410784;}
	.st52{clip-path:url(#SVGID_39_);fill:url(#SVGID_41_);}
	.st53{clip-path:url(#SVGID_39_);fill:url(#SVGID_42_);}
	.st54{clip-path:url(#SVGID_39_);fill:url(#SVGID_43_);}
	.st55{fill:#EF1F84;}
	.st56{fill:#F13590;}
	.st57{fill:#850038;}
	.st58{fill:#EEB5A1;}
	.st59{fill:url(#SVGID_44_);}
</style>
<g>
	<path class="st0" d="M591.7,258.6c0.3-1,0.6-2,0.8-3c9.2-34.7-0.9-73.9-25.6-100c-16.2-17.1-37.9-28.5-53.1-46.5
		C494.3,86,487,53.8,464.6,33.5c-30.4-27.7-78.7-24.1-116-6.9c-25.2,11.6-48.2,28.6-75.2,34.8c-21.9,5-44.4,2.4-66.9-0.1
		c-21.8-2.5-43.6-4.9-64.9-0.6c-43.7,9-79,49.4-81.9,94c-1.5,22.2,4.3,44.4,3.5,66.6c-1.2,33.2-17.1,56.3-37.7,80.6
		c-16,18.8-17.7,44.6-15.4,68.6c2.5,25.5,12.7,50.3,29.3,69.8c32.1,37.6,84.8,54.8,133.8,48.4c35-4.6,67.5-19.8,100.8-31.6
		s69.7-20.2,103.6-10.7c41.4,11.6,77.2,49.1,119.7,42.5c23.3-3.6,43.7-21.9,49.7-44.7c6.7-25.2-3-52-0.5-77.9
		C550.3,327.3,580.6,296.1,591.7,258.6"/>
	<circle class="st0" cx="41.8" cy="206.9" r="10.4"/>
	<circle class="st0" cx="36.6" cy="235.1" r="5.2"/>
	<path class="st0" d="M16.1,215.6c-3.1,1.8-4.2,5.8-2.4,8.9s5.8,4.2,8.9,2.4s4.2-5.8,2.4-8.9C23.2,214.8,19.2,213.8,16.1,215.6z"/>
	<path class="st0" d="M594,326.7c-7.8,0-14.1,6.3-14.1,14.1c0,7.8,6.3,14.1,14.1,14.1c7.8,0,14.1-6.3,14.1-14.1
		C608.1,333,601.8,326.7,594,326.7z"/>
	<path class="st0" d="M579.8,379.2c0,3.9,3.2,7.1,7.1,7.1s7.1-3.2,7.1-7.1c0-3.9-3.2-7.1-7.1-7.1S579.8,375.3,579.8,379.2z"/>
	<path class="st0" d="M559,352.6c-4.2,2.4-5.7,7.9-3.2,12.1c2.4,4.2,7.9,5.7,12.1,3.2c4.2-2.4,5.7-7.9,3.2-12.1
		C568.7,351.6,563.2,350.1,559,352.6z"/>
	<circle class="st0" cx="555.2" cy="49.3" r="14.1"/>
	<path class="st0" d="M541,87.7c0,3.9,3.2,7.1,7.1,7.1c3.9,0,7.1-3.2,7.1-7.1s-3.2-7.1-7.1-7.1C544.2,80.7,541,83.8,541,87.7z"/>
	<path class="st0" d="M520.2,61.1c-4.2,2.4-5.7,7.9-3.2,12.1c2.4,4.2,7.9,5.7,12.1,3.2c4.2-2.4,5.7-7.9,3.2-12.1
		C529.9,60.1,524.4,58.6,520.2,61.1z"/>
	<path class="st0" d="M291.4,33.8c-2.3-7.4-10.2-11.6-17.7-9.3c-7.4,2.3-11.6,10.2-9.3,17.7c2.3,7.4,10.2,11.6,17.7,9.3
		C289.6,49.2,293.7,41.3,291.4,33.8z"/>
	<path class="st0" d="M237.1,35.9c-3.7,1.2-5.8,5.1-4.6,8.8c1.2,3.7,5.1,5.8,8.8,4.6c3.7-1.2,5.8-5.1,4.6-8.8
		C244.8,36.9,240.8,34.8,237.1,35.9z"/>
	<path class="st0" d="M256.3,8.1c-3.6-3.3-9.2-3.1-12.5,0.5s-3.1,9.2,0.5,12.5c3.6,3.3,9.2,3.1,12.5-0.5
		C260.1,17,259.9,11.4,256.3,8.1z"/>
	<path class="st0" d="M568.3,542.1c0,5.3-102.4,9.6-228.7,9.6c-126.3,0-228.7-4.3-228.7-9.6c0-5.3,102.4-9.6,228.7-9.6
		C465.9,532.5,568.3,536.8,568.3,542.1z"/>
	<path class="st1" d="M350.7,103.2l-0.2-0.3c-0.5-0.6-1.2-0.9-1.9-0.9L209.6,104c-1.3,0-2.3,1-2.5,2.2L197,188.9
		c-0.1,0.7,0.1,1.4,0.6,2l0.2,0.3c0.5,0.5,1.2,0.9,1.9,0.9h140.6c1.3,0,2.4-1,2.5-2.3l8.5-84.6C351.4,104.4,351.2,103.7,350.7,103.2
		z"/>
	
		<linearGradient id="SVGID_1_" gradientUnits="userSpaceOnUse" x1="0" y1="-9.422911e-07" x2="1" y2="-9.422911e-07" gradientTransform="matrix(48.9531 -91.7134 91.7134 48.9531 233.5887 222.1976)">
		<stop  offset="0" style="stop-color:#410784"/>
		<stop  offset="1.923080e-03" style="stop-color:#410784"/>
		<stop  offset="6.795213e-02" style="stop-color:#460D87"/>
		<stop  offset="0.4335" style="stop-color:#5C2893"/>
		<stop  offset="0.7557" style="stop-color:#69399B"/>
		<stop  offset="0.9981" style="stop-color:#6E3F9E"/>
		<stop  offset="1" style="stop-color:#6E3F9E"/>
	</linearGradient>
	<path class="st2" d="M346.5,102.1l-137.7,2.4c-1.4,0-2.6,1.1-2.8,2.5l-8.8,79.8c-0.2,1.7,1.1,3.2,2.8,3.2h138.2
		c1.5,0,2.7-1.1,2.8-2.6l8.2-82.2C349.6,103.5,348.2,102.1,346.5,102.1z"/>
	
		<linearGradient id="SVGID_2_" gradientUnits="userSpaceOnUse" x1="-8.670568e-07" y1="1.248209e-07" x2="1" y2="1.248209e-07" gradientTransform="matrix(143.4165 0 0 143.4165 201.5875 146.0587)">
		<stop  offset="0" style="stop-color:#DDDBFF"/>
		<stop  offset="3.108970e-02" style="stop-color:#DDDBFF"/>
		<stop  offset="0.6216" style="stop-color:#F2F2F2"/>
		<stop  offset="0.9653" style="stop-color:#DFDDFE"/>
		<stop  offset="1" style="stop-color:#DFDDFE"/>
	</linearGradient>
	<path class="st3" d="M343,104.7L212,107c-1,0-1.8,0.8-2,1.8l-8.4,76.5c-0.1,1.2,0.8,2.2,2,2.2h131.5c1,0,1.9-0.8,2-1.8l7.9-78.8
		C345.1,105.7,344.2,104.6,343,104.7z"/>
	<g>
		<defs>
			<polyline id="SVGID_3_" points="349.7,102 205.7,102 196.9,187.5 340.9,187.5 349.7,102 			"/>
		</defs>
		<clipPath id="SVGID_4_">
			<use xlink:href="#SVGID_3_"  style="overflow:visible;"/>
		</clipPath>
		<path class="st4" d="M306.2,192.2c0.3-5.1-3.6-9.1-3.6-14.2c-0.1-5,1.6-10.7,4.2-15.2c3.2-5.6,7-11.2,5.4-17.4
			c-0.6-2.3-2.5-3.3-3.7-5.1c-1.1-1.7-1.3-3.5-1.5-5.6c-0.8-9.6-1.6-19.2-10.4-24.8c-9.3-6-29.3-0.3-29.8,13.1
			c-0.2,4.8,3.4,8.2,4.9,12.4c4.3,11.5-8.3,16.5-17,21.1c-4.3,2.3-8.1,6.9-3.5,10.2c3,2.2,7.6,1.2,10.4,3.3c7,5.2-5.2,15-8,19.8
			c-2.4,4.1-4.4,10.9,1.8,11.9c2,0.3,4.4-1,6.4-1.6c2.5-0.8,5-1.2,7.6-1c3.4,0.2,5.6,2.3,8.1,4.1c3.6,2.6,6.6,4.6,11.7,3.8
			C297.6,205.9,305.7,201.5,306.2,192.2z"/>
		<path class="st5" d="M253.8,179.8l-0.7-14.3c0,0-0.4,0-1,0.1c-6.5,1-12.1,5.8-14.2,12L222,224.5L210.5,254
			c-12.5,3.4-11.5,10.2-11.2,12.4c0.2,1.3,1.6,1.8,2.5,0.9l3.3-4.2c1-1.3,2.3-2.2,3.6-2.7c0,0.3-0.1,0.6-0.1,0.8
			c-0.2,1.3-1.1,3.6,0,3.5c1.6-0.9,6.5-7.5,7.4-9.5l1.6-2.9c0,0,13.9-26.6,17.8-33.9l0.1-0.1L253.8,179.8z"/>
		<path class="st5" d="M322.6,156.3l0.7-32.3c0,0,8-2.1,10.8-9.4c0.5-1.5-0.5-2.9-2.1-2.8c-2.2,0.2-5.7,1.5-9.8,6.2l0.3-4.4
			c0-1-1.1-1.6-2-1c-1,0.7-2,2.5-1.8,6.9l-6.7,36.1c-0.1,0.3-0.3,0.6-0.6,0.7l-36.7,9.3l-1.8,15.2l33.9-11.2c-0.2-0.1,9.3-3,9.2-3.2
			C319.9,164.4,322.5,160.5,322.6,156.3z"/>
		<path class="st5" d="M261.1,253.7c0,0.3,0,0.7,0,1c0,0.9,0.1,1.9,0.1,3c0.3-1,0.5-1.9,0.7-2.8l-0.4-0.6L261.1,253.7z"/>
		<path class="st4" d="M263,382.2c-0.1,0.3,0.4,1.3,0.4,1.3l10.3,8.7c1,0.8,0.6,2.6-0.8,3c-0.2,0.1-0.3,0.1-0.5,0.1
			c-3.2,0.8-8.8,0.9-10.8-1.5c-0.8-1.1-2.2-1.7-3.6-1.6l-0.5,0c-3.7,0.1-2.2-4.1-1-7.7l0.2-2.1L263,382.2z"/>
		<path class="st5" d="M261.1,254.7c0,0.9,0.1,1.9,0.1,3c0.3-1,0.5-1.9,0.7-2.8c0.1-0.4,0.2-0.8,0.3-1.2l-0.7,0.6L261.1,254.7z"/>
		<path class="st4" d="M223.3,383.7c0.2,3.4,0.7,7.4-2.8,7.2l-0.4,0c-1.3-0.1-2.7,0.4-3.8,1.4c-2.4,2.2-7.7,1.8-10.5,1
			c-0.2,0-0.3-0.1-0.5-0.2c-1.2-0.4-1.2-2.1-0.1-2.8l11.8-7.8c0,0,0.4-1.3,0.4-1.5l5.5,0.2L223.3,383.7z"/>
		<path class="st5" d="M281.9,220.8c-0.5-0.6-1-1.2-1.4-1.9c-1.5-2.6-2.2-5.6-1.9-8.7c0.2-1.7,0.6-3.3,1.4-4.9l3.3-7.2l0.9-1.9
			c2.1-4.7,2.5-9.9,1.1-14.5l-1.7-5.6l-3.5-11.4l-3.9-0.3l-3-0.3l-0.4,0h0c0-0.1-0.1-0.2-0.1-0.3c0-0.1-0.1-0.2-0.1-0.3
			c-0.1-0.3-0.1-0.5-0.2-0.8c-0.1-0.3-0.1-0.7-0.2-1c-0.1-0.3-0.1-0.5-0.1-0.8c-0.2-2.1,0.1-3.8,0.8-5.1l-9.7-1.8l-0.5,4
			c-0.1,1.2-0.3,2.4-0.4,3.5l-0.1,0.8c0,0.4-0.1,0.7-0.1,1.1l-3.3,0.8l-3.6,0.9l-4.1,1c-2.4,3.7-4.2,7.6-5.2,11.7
			c-0.3,1.1-0.4,1.9-0.5,2.4c-0.1,0.2-0.1,0.4-0.1,0.4l0,0.1c-0.2,1-0.3,2-0.5,3c-0.1,1-0.2,1.9-0.2,2.9c-0.1,3.5,0.3,7,1.3,10.4
			c0,0.1,0.1,0.2,0.1,0.3c0.5,1.6,1.1,3.2,1.8,4.7l5.2,10.7c0.5,1.4,0.4,3.3,0.2,5.3c-0.1,0.8-0.3,1.7-0.5,2.5
			c-0.4,1.8-1,3.5-1.8,5.2c6.2,1.3,23.6,4.2,33-2.2C283.3,222.4,282.6,221.5,281.9,220.8z"/>
		<path class="st6" d="M262.2,161.4c1.5,0.7,3.2,1.1,5,1.1c1.7,0,3.4-0.3,4.9-1c-0.1-0.3-0.1-0.5-0.1-0.8c-0.2-2.1,0.1-3.8,0.8-5.1
			l-9.7-1.8l-0.5,4C262.4,159.1,262.3,160.2,262.2,161.4z"/>
		<path class="st5" d="M253.2,134.3c0.7-0.1,1.5,0.2,2.2,0.6c1.5-4.5,4.4-9.3,7.8-12.6c1.4-1.6,3-2.7,4.6-3.3
			c0.9-0.4,1.8-0.7,2.7-0.7c0.6,0,1.2-0.1,1.8-0.1c0.6,0,1.2,0,1.8,0.1c0.9,0.1,1.7,0.3,2.5,0.7c1.5,0.6,2.9,1.7,4,3.3
			c2.7,3.3,4.6,8.1,5.2,12.6c0.8-0.4,1.6-0.7,2.3-0.6c2.3,0.2,2.7,3.7,1.8,6.4c-1.2,3.4-3.9,4.5-6.5,5.2c-1.4,2.3-3.2,4.5-5.2,6.3
			c-2.2,2.2-4.8,3.8-7.7,4.5l-0.3,0.1c-0.2,0-0.3,0.1-0.5,0.1c-0.1,0-0.2,0-0.3,0c-0.1,0-0.2,0-0.3,0c-0.2,0-0.4,0-0.7,0
			c-0.2,0-0.4,0-0.7,0c-0.1,0-0.2,0-0.3,0c-0.1,0-0.2,0-0.3,0c-0.2,0-0.3-0.1-0.5-0.1l-0.2-0.1c-2.8-0.7-5.1-2.3-6.8-4.5
			c-1.7-1.8-3-4.1-3.9-6.3c-2.4-0.7-4.9-1.7-5.4-5.2C249.8,138,250.9,134.4,253.2,134.3z"/>
		<path class="st4" d="M267.9,149.5c-1.6-0.5-3.2-1.6-3.7-4.2c0-0.2,0.1-0.4,0.3-0.5c0.2-0.1,0.4,0.1,0.5,0.3c0.9,4.7,5.9,4,6.1,4
			c0.2,0,0.4,0.1,0.4,0.3c0,0.2-0.2,0.4-0.4,0.5C271.1,149.8,269.5,150,267.9,149.5z"/>
		<path class="st4" d="M263.3,139.8c0,0.8,0.6,1.5,1.4,1.4c0.8-0.1,1.5-0.8,1.5-1.6c0-0.8-0.6-1.5-1.4-1.4
			C264,138.3,263.3,139,263.3,139.8z"/>
		<path class="st4" d="M274.8,139.8c0,0.8,0.6,1.5,1.4,1.4c0.8-0.1,1.5-0.8,1.5-1.6c0-0.8-0.6-1.5-1.4-1.4
			C275.5,138.3,274.8,139,274.8,139.8z"/>
		<path class="st4" d="M262.1,136.3L262.1,136.3c-0.2-0.1-0.3-0.3-0.2-0.5c1.3-2.4,3.6-2.4,4.6-2c0.2,0.1,0.3,0.3,0.2,0.5
			c-0.1,0.2-0.3,0.3-0.6,0.2c-0.1,0-2.2-0.8-3.5,1.5C262.6,136.3,262.3,136.4,262.1,136.3z"/>
		<path class="st4" d="M277.8,135.4c-0.1,0-0.2-0.1-0.2-0.2c0-0.1-0.4-1.3-1.9-0.9c-0.2,0.1-0.4-0.1-0.5-0.3c0-0.2,0.1-0.4,0.3-0.5
			c1.9-0.5,2.7,0.7,2.9,1.4c0.1,0.2-0.1,0.4-0.3,0.5C278,135.5,277.9,135.5,277.8,135.4z"/>
		
			<linearGradient id="SVGID_5_" gradientUnits="userSpaceOnUse" x1="0" y1="9.207997e-07" x2="1" y2="9.207997e-07" gradientTransform="matrix(-15.7246 143.6752 -143.7865 -1.3303 267.491 185.6842)">
			<stop  offset="0" style="stop-color:#FFAE2A"/>
			<stop  offset="0.1496" style="stop-color:#FFB232"/>
			<stop  offset="0.382" style="stop-color:#FEBC48"/>
			<stop  offset="0.6679" style="stop-color:#FCCD6C"/>
			<stop  offset="0.9937" style="stop-color:#FAE59D"/>
			<stop  offset="1" style="stop-color:#FAE59E"/>
		</linearGradient>
		<path class="st7" d="M289.2,248.4l-3.6,18.2L263,382.2l-6.2,0.2c0,0-4-50.6,6.6-58c-0.1-6.7,0.6-23,0.1-38.6
			c-0.2-5.4,0-11.3,0.2-16.7c0.3-5.6,0.5-10.7,0.4-14c-0.5,2-2.3,7.2-4.7,13.7c-6.3,17.3-16.9,44.6-19.3,49.9
			c5.5,3.3-8.3,38.7-17.2,62.4l-5.5-0.2c2-15.3,12.2-75.3,20.3-113.9c3.1-14.6,5.8-26.1,7.7-30.9c1-2.5,2-4.7,3.1-6.4
			c0.9-1.4,1.6-2.8,2.2-4.2c6.2,1.3,23.6,4.2,33-2.2c1.4,2.2,2.6,4.7,3.6,7.4C289.4,236.6,290.2,243.1,289.2,248.4z"/>
		
			<linearGradient id="SVGID_6_" gradientUnits="userSpaceOnUse" x1="0" y1="-1.960110e-06" x2="1" y2="-1.960110e-06" gradientTransform="matrix(7.55 -67.2635 67.2635 7.55 262.8539 226.7596)">
			<stop  offset="0" style="stop-color:#FFAE2A"/>
			<stop  offset="0.1496" style="stop-color:#FFB232"/>
			<stop  offset="0.382" style="stop-color:#FEBC48"/>
			<stop  offset="0.6679" style="stop-color:#FCCD6C"/>
			<stop  offset="0.9937" style="stop-color:#FAE59D"/>
			<stop  offset="1" style="stop-color:#FAE59E"/>
		</linearGradient>
		<path class="st8" d="M283.9,223.4c-9.4,6.3-26.8,3.5-33,2.2c0.8-1.7,1.3-3.4,1.8-5.2c0.2-0.8,0.4-1.7,0.5-2.5
			c0.2-2,0.3-3.9-0.2-5.3l-6.8-15.1c-0.1-0.1-0.1-0.2-0.1-0.3c0-0.1-0.1-0.2-0.1-0.3c-0.8-3.4,2.5-9.9,5.7-14.3
			c4.5-6.1,8.3-8.4,9.8-15.6l0.7-3.7c3.5-0.3,10.4,0,10.4,0c0,0.1,0.1,0.2,0.1,0.3c0,0.1,0.1,0.2,0.1,0.3c2.6,8.2,6.8,14,12.5,17.7
			c1.4,4.6,1,9.8-1.1,14.5l-0.9,1.9l-3.3,7.2c-0.7,1.6-1.2,3.3-1.4,4.9c-0.3,3.1,0.3,6.1,1.9,8.7c0.4,0.7,0.9,1.3,1.4,1.9
			C282.6,221.5,283.3,222.4,283.9,223.4z"/>
		<path class="st4" d="M271.6,146.2c1.9-0.3,2.3-1.1,2.3-1.3c0-0.1,0-0.2,0-0.3l-2.1-3.7c-0.1-0.2-0.4-0.3-0.6-0.1
			c-0.2,0.1-0.3,0.4-0.2,0.6l2,3.4c-0.2,0.2-0.8,0.6-2.4,0.6c-0.3,0-0.5,0.2-0.5,0.4c0,0.2,0.2,0.4,0.4,0.4
			C270.9,146.2,271.3,146.2,271.6,146.2z"/>
		<path class="st4" d="M286.9,131.7c0.1-4.6-3.7-10.3-7.4-13.1c-4.4-3.3-10.1-4.6-15.5-1.5c-6.4,3.7-9.8,8.6-10.5,14.8
			c-0.7,7.1,1.9,11.5,7.9,15.4c-1.7-2.8-1.8-6.5-1.4-9.6c0.3-2.6,1.7-8.2,5.6-8.5c0.9,2.6,3.7,5.1,5.6,6.7c0.5-3.2,4-5.8,3.7-9.2
			c3.1,6.3,9.5,10.5,7.2,18.2C285.2,141.5,286.7,135.8,286.9,131.7z"/>
	</g>
	<path class="st1" d="M524.4,256.8c-1.4-1.6-3.4-2.5-5.5-2.4l-340.3,4.8l-25.5,207.7l4.2,4.8h339.2c4.9,0,9-3.7,9.5-8.6l20.1-200.8
		C526.3,260.2,525.6,258.3,524.4,256.8"/>
	
		<linearGradient id="SVGID_7_" gradientUnits="userSpaceOnUse" x1="0" y1="-2.999459e-07" x2="1" y2="-2.999459e-07" gradientTransform="matrix(142.434 -233.1347 233.1347 142.434 245.5406 511.3417)">
		<stop  offset="0" style="stop-color:#410784"/>
		<stop  offset="1.923080e-03" style="stop-color:#410784"/>
		<stop  offset="6.795213e-02" style="stop-color:#460D87"/>
		<stop  offset="0.4335" style="stop-color:#5C2893"/>
		<stop  offset="0.7557" style="stop-color:#69399B"/>
		<stop  offset="0.9981" style="stop-color:#6E3F9E"/>
		<stop  offset="1" style="stop-color:#6E3F9E"/>
	</linearGradient>
	<path class="st9" d="M348,254.3h-6.1l-0.5,5.5h7.8c-1-1.4-1.5-3-1.3-4.8L348,254.3 M512,254.3h-28.6l-0.3,2.3
		c-0.1,1.2-0.6,2.3-1.3,3.3h28.4c1.3,0,2.3,1.1,2.1,2.4l-19.7,197.1c-0.1,1.1-1,1.9-2.1,1.9H165.1c-1.3,0-2.3-1.1-2.1-2.4
		l19.7-197.1c0.1-1.1,1-1.9,2.1-1.9h41.9l0.6-5.5h-44.6c-4.7,0-8.7,3.6-9.2,8.3l-19.4,194.1c-0.1,0.6-0.1,1.3,0,1.9
		c0.5,4.6,4.3,8.3,9.2,8.3h329.3c4.7,0,8.7-3.6,9.2-8.3l19.4-194.1c0.5-4.9-3-9.2-7.7-10C513,254.4,512.5,254.3,512,254.3"/>
	
		<linearGradient id="SVGID_8_" gradientUnits="userSpaceOnUse" x1="0" y1="-4.729172e-07" x2="1" y2="-4.729172e-07" gradientTransform="matrix(105.572 -253.2429 253.2429 105.572 290.5805 473.4978)">
		<stop  offset="0" style="stop-color:#DDDBFF"/>
		<stop  offset="3.108970e-02" style="stop-color:#DDDBFF"/>
		<stop  offset="0.6216" style="stop-color:#F2F2F2"/>
		<stop  offset="0.9653" style="stop-color:#DFDDFE"/>
		<stop  offset="1" style="stop-color:#DFDDFE"/>
	</linearGradient>
	<path class="st10" d="M510.2,259.8h-28.4c-1.6,2.2-4.5,3.7-7.8,3.7H356.9c-3.3,0-6.2-1.5-7.8-3.7h-7.8l-1.2,13
		c-0.4,3.9-3.7,7-7.7,7h-4.9c2.8,2.9,7,4.8,11.3,4.8c0.6,0,1.3,0,1.9-0.1c-0.8-1.8-1.8-3.8-1.2-5.9c4.2,2.5,6.9,5.7,12,6.8
		c0.6,0.1,1.6,0.4,2.9,0.7c5.4,1.4,9.3,6,9.2,11.7c0,0.3,0,0.7-0.1,1c-0.6,4-1.4,7.8-3,11.6c-0.4,0.9-0.9,1.8-1.4,2.6
		c-1.2,2.2-2.1,4.8-3.3,7c0.5-3-0.5-6.6-1.4-9.3c-0.6-2-1.5-3.8-2.2-5.8c-0.6-1.8-0.3-3.5-0.7-5.3c-4.1,0.8-7.8,3.5-11.7,4.9
		c0.8-2.3,2.3-4.3,3.3-6.6c-0.1,0-0.3,0-0.4,0c-2,0-4.6,1.4-6.5,2.3c-2,1-4.1,2.3-5.7,3.8l0,0c-1.5,1.4-2.6,3.1-3.3,4.9
		c-0.5,1.1-0.9,2.3-1.4,3.5c-0.9,2.6-1,6.5-1.5,8.2c-3.6-2.9-3.3-13.6-3.7-14.4c-0.2-0.3-0.5-0.7-0.7-1c-1.1-2-2-4.3-2.4-6.7
		c-0.8-4.5-0.6-10.2,0.5-14.9c3,2.1,6.7,4,10.1,5.6c-1.1-3.4-2.4-5.6-1.2-9.4h-94.1c-4.6,0-8.1-3.9-7.7-8.5l1.2-11.4h-41.9
		c-1.1,0-2,0.8-2.1,1.9L163,458.9c-0.1,1.3,0.9,2.4,2.1,2.4h325.4c1.1,0,2-0.8,2.1-1.9l19.7-197.1
		C512.5,260.9,511.5,259.8,510.2,259.8"/>
	<g>
		<defs>
			<path id="SVGID_9_" d="M513,259.8H180.4L159.2,461l330.2,0.9c1.7,0,3.2-1.3,3.3-3L513,259.8"/>
		</defs>
		<clipPath id="SVGID_10_">
			<use xlink:href="#SVGID_9_"  style="overflow:visible;"/>
		</clipPath>
		
			<linearGradient id="SVGID_11_" gradientUnits="userSpaceOnUse" x1="-2.895740e-07" y1="-4.585363e-07" x2="1" y2="-4.585363e-07" gradientTransform="matrix(84.5044 -202.7065 202.7065 84.5044 402.641 520.9464)">
			<stop  offset="0" style="stop-color:#008DA2"/>
			<stop  offset="4.527240e-03" style="stop-color:#008DA2"/>
			<stop  offset="0.263" style="stop-color:#0390A5"/>
			<stop  offset="0.4736" style="stop-color:#0C9AAF"/>
			<stop  offset="0.6675" style="stop-color:#1BABC0"/>
			<stop  offset="0.8502" style="stop-color:#30C3D8"/>
			<stop  offset="1" style="stop-color:#47DCF2"/>
		</linearGradient>
		<path class="st11" d="M523.7,335.4c-9.8-11.3-21.7-2.3-29.2,5.5c-7.5-7.1-19.1-3.4-27.3,0.7c-14.6,7.3-18.3,18.2-25.6,30.7
			c-15.6-16.1-36.4,11.9-41.3,24.7c-6.9-5.7-16.2-6.3-23.6-0.8c-9.7,7.2-10,21-16,30.4c-20.9-10.5-28.9,24.2-23.4,39.1
			c8,12,6.9,35.3,23.3,37.1c13.6,1.4,27.4,0.1,41,1.7c23.3,2.7,47.2,3.6,70.6,2.6c22.8-0.9,39-2.2,44.9-26.7
			c2.7-11.4,2.9-23.6,3.2-35.2c0.8-26.3,0.5-51.7,5.8-77.4C528.5,358,530.9,343.8,523.7,335.4z"/>
		
			<linearGradient id="SVGID_12_" gradientUnits="userSpaceOnUse" x1="2.045545e-07" y1="5.511301e-07" x2="1" y2="5.511301e-07" gradientTransform="matrix(-84.5044 -202.7065 -202.7065 84.5044 262.4536 520.9464)">
			<stop  offset="0" style="stop-color:#008DA2"/>
			<stop  offset="4.527240e-03" style="stop-color:#008DA2"/>
			<stop  offset="0.263" style="stop-color:#0390A5"/>
			<stop  offset="0.4736" style="stop-color:#0C9AAF"/>
			<stop  offset="0.6675" style="stop-color:#1BABC0"/>
			<stop  offset="0.8502" style="stop-color:#30C3D8"/>
			<stop  offset="1" style="stop-color:#47DCF2"/>
		</linearGradient>
		<path class="st12" d="M141.4,335.4c9.8-11.3,21.7-2.3,29.2,5.5c7.5-7.1,19.1-3.4,27.3,0.7c14.6,7.3,18.3,18.2,25.6,30.7
			c15.6-16.1,36.4,11.9,41.3,24.7c6.9-5.7,16.2-6.3,23.6-0.8c9.7,7.2,10,21,16,30.4c20.9-10.5,28.9,24.2,23.4,39.1
			c-8,12-6.9,35.3-23.3,37.1c-13.6,1.4-27.4,0.1-41,1.7c-23.3,2.7-47.2,3.6-70.6,2.6c-22.8-0.9-39-2.2-44.9-26.7
			c-2.7-11.4-2.9-23.6-3.2-35.2c-0.8-26.3-0.5-51.7-5.8-77.4C136.6,358,134.1,343.8,141.4,335.4z"/>
		<polygon class="st13" points="276.2,414.2 294.8,414.2 274.5,486.4 263.4,486.4 		"/>
		
			<linearGradient id="SVGID_13_" gradientUnits="userSpaceOnUse" x1="0" y1="-4.621688e-07" x2="1" y2="-4.621688e-07" gradientTransform="matrix(62.2299 -222.3804 222.3804 62.2299 292.4612 542.1412)">
			<stop  offset="0" style="stop-color:#FFAE2A"/>
			<stop  offset="0.1496" style="stop-color:#FFB232"/>
			<stop  offset="0.382" style="stop-color:#FEBC48"/>
			<stop  offset="0.6679" style="stop-color:#FCCD6C"/>
			<stop  offset="0.9937" style="stop-color:#FAE59D"/>
			<stop  offset="1" style="stop-color:#FAE59E"/>
		</linearGradient>
		<path class="st14" d="M377.7,336.1l-32.4,1.3l-14,0.6l-30.6,9.9l-0.6,73.6c0,0-11.3,25.1-14.3,40h75.3c-1.2-11.7-4.7-40-4.7-40
			L377.7,336.1z"/>
		
			<linearGradient id="SVGID_14_" gradientUnits="userSpaceOnUse" x1="0" y1="-5.044294e-07" x2="1" y2="-5.044294e-07" gradientTransform="matrix(62.2299 -222.3802 222.3802 62.2299 252.1869 530.8713)">
			<stop  offset="0" style="stop-color:#FFAE2A"/>
			<stop  offset="0.1496" style="stop-color:#FFB232"/>
			<stop  offset="0.382" style="stop-color:#FEBC48"/>
			<stop  offset="0.6679" style="stop-color:#FCCD6C"/>
			<stop  offset="0.9937" style="stop-color:#FAE59D"/>
			<stop  offset="1" style="stop-color:#FAE59E"/>
		</linearGradient>
		<path class="st15" d="M316.2,343.5l-12.5,3.3c-5.2,1.4-9.7,5.1-12,10.1c-10.4,18.5-17.5,40.9-19.5,60.3h22.2l15.4-43.1
			L316.2,343.5z"/>
		<path class="st16" d="M336.4,349.9L336.4,349.9c-5.1,0-8.8-4.1-8.3-9.2l1.1-10.7c0.3-2.7,2.7-4.9,5.4-4.9h8.7
			c2.7,0,4.7,2.2,4.4,4.9l-1.1,10.7C346.1,345.8,341.5,349.9,336.4,349.9z"/>
		<path class="st13" d="M363.1,306c-0.9-0.1-1.9,0.3-2.9,0.9c-0.8-5.8-3.5-12-6.9-16.2c-1.4-2.1-3.2-3.4-5.1-4.2
			c-1-0.5-2.1-0.8-3.2-0.9c-0.7,0-1.5-0.1-2.2,0c-0.7,0-1.5,0.1-2.2,0.1c-1.1,0.1-2.2,0.5-3.3,1.1c-2.1,0.9-4,2.3-5.8,4.5
			c-4.1,4.4-7.7,10.7-9.4,16.6c-0.9-0.6-1.9-0.8-2.8-0.8c-2.9,0.3-4.3,5-3.7,8.4c0.7,4.4,3.9,5.7,7,6.5c1.2,2.9,3,5.7,5.2,8.1
			c2.2,2.8,5.2,4.9,8.7,5.6c0.1,0,0.2,0,0.3,0.1c0.2,0,0.4,0.1,0.6,0.1c0.1,0,0.3,0,0.4,0c0.1,0,0.2,0,0.4,0c0.3,0,0.6,0,0.8,0
			c0.3,0,0.6,0,0.8-0.1c0.1,0,0.2,0,0.4,0c0.1,0,0.3,0,0.4-0.1c0.2,0,0.4-0.1,0.6-0.2c0.1,0,0.2-0.1,0.3-0.1c3.7-1,7-3.2,9.6-6.1
			c2.5-2.5,4.8-5.4,6.4-8.4c3.2-1,6.7-2.4,8-6.9C366.7,310.8,366.1,306.2,363.1,306z"/>
		<path class="st17" d="M349.2,312.6c0,1-0.7,2-1.7,2.1c-1,0.1-1.8-0.6-1.8-1.6s0.7-2,1.7-2.1S349.2,311.6,349.2,312.6z"/>
		<path class="st17" d="M333.8,313c0,1-0.7,2-1.7,2.1c-1,0.1-1.8-0.6-1.8-1.6c0-1,0.7-2,1.7-2.1S333.7,311.9,333.8,313z"/>
		<path class="st17" d="M350.9,309.1c-0.2,0-0.5,0-0.6-0.2c-1.9-3.1-4.9-1.3-5.1-1.2c-0.3,0.2-0.6,0.1-0.8-0.2
			c-0.1-0.3,0-0.6,0.3-0.8c1.4-0.9,4.7-1.7,6.6,1.5c0.2,0.3,0.1,0.6-0.2,0.8L350.9,309.1z"/>
		<path class="st17" d="M340.1,325.7c0.1-0.2,0.3-0.4,0.5-0.4c3.8-0.6,3.8-3.9,3.8-4.1c0-0.3,0.3-0.6,0.6-0.6c0.3,0,0.6,0.2,0.6,0.5
			c0,1.6-1.1,4.8-5,5.3c-0.3,0-0.6-0.2-0.6-0.5L340.1,325.7z"/>
		<path class="st17" d="M334.7,307.5c-0.1,0.1-0.4,0.2-0.5,0.1c-2.9-1-4.2,1.6-4.3,1.7c-0.1,0.3-0.4,0.4-0.7,0.3
			c-0.2-0.1-0.3-0.4-0.2-0.6c0.6-1.3,2.6-3.3,5.6-2.3c0.3,0.1,0.4,0.4,0.3,0.6L334.7,307.5z"/>
		<path class="st17" d="M337.4,322.8c-0.4,0-0.8-0.1-1.1-0.3c-1-0.7-1.2-2.3-0.4-4.3l1.9-6.7c0.1-0.3,0.3-0.4,0.6-0.4
			c0.3,0,0.4,0.3,0.3,0.6l-1.9,6.7c-0.7,1.9-0.4,2.9,0.1,3.3c0.5,0.3,1.4,0.1,2.2-0.6c0.2-0.2,0.5-0.2,0.7,0
			c0.2,0.2,0.2,0.5-0.1,0.6C338.9,322.5,338.1,322.8,337.4,322.8z"/>
		<path class="st17" d="M363.7,297.8c0.1-5.7-3.9-10.3-9.2-11.7c-1.3-0.3-2.3-0.6-2.9-0.7c-5.1-1.2-7.8-4.3-12-6.8
			c-0.6,2.2,0.5,4.2,1.2,5.9c-5.1,0.7-10.3-1.4-13.4-4.9c-1.3,3.9,0,6.2,1.1,9.6c-3.4-1.6-7.1-3.5-10.1-5.6
			c-1.1,4.7-1.3,10.4-0.5,14.9c0.4,2.3,1.3,4.6,2.4,6.7c0.2,0.3,0.4,0.7,0.7,1c0.3,0.8,0.1,11.5,3.7,14.4c0.5-1.7,0.6-5.6,1.5-8.2
			c0.4-1.2,0.9-2.3,1.4-3.5c0.8-1.8,1.8-3.5,3.3-4.9l0,0c1.6-1.5,3.8-2.8,5.7-3.8c2-1,4.8-2.5,6.9-2.3c-1,2.2-2.5,4.2-3.3,6.6
			c3.8-1.4,7.6-4,11.7-4.9c0.4,1.7,0,3.5,0.7,5.3c0.7,2,1.6,3.8,2.2,5.8c0.8,2.8,1.9,6.3,1.4,9.3c1.2-2.2,2.1-4.7,3.3-7
			c0.5-0.9,1-1.7,1.4-2.6c1.6-3.8,2.4-7.7,3-11.6C363.7,298.5,363.7,298.2,363.7,297.8"/>
		<path class="st13" d="M417.6,331.9l1-48c0,0,11.5-3.1,15.5-14c0.8-2.2-0.8-4.4-3.1-4.2c-3.2,0.3-8.2,2.2-14.1,9.1l0.4-6.6
			c0.1-1.5-1.6-2.4-2.8-1.5c-1.5,1.1-2.9,3.8-2.6,10.2l-9.6,53.6c-0.1,0.5-0.4,0.8-0.8,1.1l-52.9,13.8l-2.6,22.5l48.9-16.7
			c-0.2-0.2,13.4-4.5,13.2-4.7C413.7,343.9,417.5,338.1,417.6,331.9z"/>
		
			<linearGradient id="SVGID_15_" gradientUnits="userSpaceOnUse" x1="0" y1="-5.449965e-07" x2="1" y2="-5.449965e-07" gradientTransform="matrix(62.2299 -222.3803 222.3803 62.2299 320.6501 550.0295)">
			<stop  offset="0" style="stop-color:#FFAE2A"/>
			<stop  offset="0.1496" style="stop-color:#FFB232"/>
			<stop  offset="0.382" style="stop-color:#FEBC48"/>
			<stop  offset="0.6679" style="stop-color:#FCCD6C"/>
			<stop  offset="0.9937" style="stop-color:#FAE59D"/>
			<stop  offset="1" style="stop-color:#FAE59E"/>
		</linearGradient>
		<polygon class="st18" points="348.6,342.3 397.1,331.1 406.5,351.3 343.5,371.5 		"/>
		
			<linearGradient id="SVGID_16_" gradientUnits="userSpaceOnUse" x1="-3.371986e-05" y1="-5.817446e-05" x2="1" y2="-5.817446e-05" gradientTransform="matrix(0.7136 -1.7118 1.7118 0.7136 338.2705 468.8578)">
			<stop  offset="0" style="stop-color:#008DA2"/>
			<stop  offset="4.527240e-03" style="stop-color:#008DA2"/>
			<stop  offset="0.263" style="stop-color:#0390A5"/>
			<stop  offset="0.4736" style="stop-color:#0C9AAF"/>
			<stop  offset="0.6675" style="stop-color:#1BABC0"/>
			<stop  offset="0.8502" style="stop-color:#30C3D8"/>
			<stop  offset="1" style="stop-color:#47DCF2"/>
		</linearGradient>
		<path class="st19" d="M337.9,466.7c0.4,1,0.9,1.9,1.5,2.6L337.9,466.7z"/>
		
			<linearGradient id="SVGID_17_" gradientUnits="userSpaceOnUse" x1="-4.364327e-05" y1="-6.642281e-05" x2="1" y2="-6.642281e-05" gradientTransform="matrix(0.5864 -1.4065 1.4065 0.5864 336.9616 466.3029)">
			<stop  offset="0" style="stop-color:#008DA2"/>
			<stop  offset="4.527240e-03" style="stop-color:#008DA2"/>
			<stop  offset="0.263" style="stop-color:#0390A5"/>
			<stop  offset="0.4736" style="stop-color:#0C9AAF"/>
			<stop  offset="0.6675" style="stop-color:#1BABC0"/>
			<stop  offset="0.8502" style="stop-color:#30C3D8"/>
			<stop  offset="1" style="stop-color:#47DCF2"/>
		</linearGradient>
		<path class="st20" d="M337.9,466.7c-0.1-0.3-0.3-0.6-0.4-1c-0.3-0.4-0.6-0.8-0.8-1.2L337.9,466.7z"/>
	</g>
	<polygon class="st1" points="458.2,101.3 457.1,100 363.7,101.3 356.8,157.8 357.9,159.1 452.4,159.1 	"/>
	
		<linearGradient id="SVGID_18_" gradientUnits="userSpaceOnUse" x1="0" y1="-1.561768e-06" x2="1" y2="-1.561768e-06" gradientTransform="matrix(18.2509 -72.6748 72.6748 18.2509 390.2672 195.1544)">
		<stop  offset="0" style="stop-color:#410784"/>
		<stop  offset="1.923080e-03" style="stop-color:#410784"/>
		<stop  offset="6.795213e-02" style="stop-color:#460D87"/>
		<stop  offset="0.4335" style="stop-color:#5C2893"/>
		<stop  offset="0.7557" style="stop-color:#69399B"/>
		<stop  offset="0.9981" style="stop-color:#6E3F9E"/>
		<stop  offset="1" style="stop-color:#6E3F9E"/>
	</linearGradient>
	<polygon class="st21" points="457.1,100 362.5,100 356.8,157.8 451.3,157.8 	"/>
	
		<linearGradient id="SVGID_19_" gradientUnits="userSpaceOnUse" x1="0" y1="-1.512961e-06" x2="1" y2="-1.512961e-06" gradientTransform="matrix(16.8157 -66.9601 66.9601 16.8157 396.2548 171.3128)">
		<stop  offset="0" style="stop-color:#DDDBFF"/>
		<stop  offset="3.108970e-02" style="stop-color:#DDDBFF"/>
		<stop  offset="0.6216" style="stop-color:#F2F2F2"/>
		<stop  offset="0.9653" style="stop-color:#DFDDFE"/>
		<stop  offset="1" style="stop-color:#DFDDFE"/>
	</linearGradient>
	<path class="st22" d="M452,102h-85.1c-0.7,0-1.3,0.5-1.4,1.2l-5.1,50.9c-0.1,0.8,0.6,1.5,1.4,1.5h85.1c0.7,0,1.3-0.5,1.4-1.2
		l5.1-50.9C453.5,102.7,452.8,102,452,102z"/>
	<g>
		<defs>
			<polyline id="SVGID_20_" points="453.5,102 365.7,102 360.3,155.7 448.1,155.7 453.5,102 			"/>
		</defs>
		<clipPath id="SVGID_21_">
			<use xlink:href="#SVGID_20_"  style="overflow:visible;"/>
		</clipPath>
		
			<linearGradient id="SVGID_22_" gradientUnits="userSpaceOnUse" x1="0" y1="-3.152230e-06" x2="1" y2="-3.152230e-06" gradientTransform="matrix(2.352151e-15 -38.4135 38.4135 2.352151e-15 418.0761 171.6883)">
			<stop  offset="0" style="stop-color:#008DA2"/>
			<stop  offset="4.527240e-03" style="stop-color:#008DA2"/>
			<stop  offset="0.2614" style="stop-color:#1BABC0"/>
			<stop  offset="0.5503" style="stop-color:#33C6DC"/>
			<stop  offset="0.8061" style="stop-color:#42D6EC"/>
			<stop  offset="1" style="stop-color:#47DCF2"/>
		</linearGradient>
		<path class="st23" d="M420.3,189.5c-0.3-0.2-0.7-0.4-1-0.7c-5.7-4.2-9.8-13.1-7.8-26.5c0.6-4.1,2.1-12.7,1-17.6
			c6,3.2,11.6,5.2,10.6,14.4c-0.1,0.8,1.8,15.9,2.2,19.9C423.5,180.5,420.3,184,420.3,189.5z"/>
		
			<linearGradient id="SVGID_23_" gradientUnits="userSpaceOnUse" x1="0" y1="-3.291192e-06" x2="1" y2="-3.291192e-06" gradientTransform="matrix(2.352144e-15 -38.4134 38.4134 2.352144e-15 400.0427 171.6883)">
			<stop  offset="0" style="stop-color:#008DA2"/>
			<stop  offset="4.527240e-03" style="stop-color:#008DA2"/>
			<stop  offset="0.2614" style="stop-color:#1BABC0"/>
			<stop  offset="0.5503" style="stop-color:#33C6DC"/>
			<stop  offset="0.8061" style="stop-color:#42D6EC"/>
			<stop  offset="1" style="stop-color:#47DCF2"/>
		</linearGradient>
		<path class="st24" d="M415.5,174.3c-2.6,7.1,0.4,15.6,3,22.2c0,0-19.5,13-41.2,1l2.4-5c2.8-5.4,4-11.3,3.6-17.1l-1.7-21.5
			c-0.4-5,3.1-9.9,8.1-11.5l5.4-1.6l1.7-0.5c2-0.6,4-0.9,6-0.9h2.1c3.2,0,6.2,0.8,8.9,2.2l4.6,2.5c4,2.2,5.7,7,4,11.6L415.5,174.3z"
			/>
		<path class="st25" d="M403.1,144.7L403.1,144.7c-2.2,0-3.8-1.8-3.6-4l0.8-8.1c0.1-0.6,0.6-1.1,1.2-1.1h5.8c0.6,0,1.1,0.5,1,1.1
			l-0.8,8.1C407.3,142.9,405.3,144.7,403.1,144.7z"/>
		<path class="st26" d="M417.9,122.1c-0.5,0-1.1,0.1-1.7,0.5c-0.4-3.4-1.8-7.1-3.8-9.6c-0.8-1.2-1.8-2.1-2.9-2.5
			c-0.6-0.3-1.2-0.5-1.9-0.6c-0.4,0-0.9-0.1-1.3,0c-0.4,0-0.9,0-1.3,0c-0.6,0.1-1.3,0.3-2,0.6c-1.2,0.5-2.4,1.3-3.4,2.5
			c-2.5,2.5-4.6,6.1-5.7,9.6c-0.5-0.3-1.1-0.5-1.6-0.5c-1.7,0.1-2.5,2.8-2.3,4.9c0.3,2.6,2.2,3.4,4,3.9c0.7,1.7,1.7,3.4,2.9,4.8
			c1.3,1.7,3,2.9,5,3.4l0.2,0c0.1,0,0.2,0.1,0.4,0.1l0.2,0l0.2,0c0.2,0,0.3,0,0.5,0c0.2,0,0.3,0,0.5,0l0.2,0l0.3,0
			c0.1,0,0.2-0.1,0.4-0.1l0.2,0c2.1-0.5,4.1-1.8,5.7-3.4c1.5-1.4,2.8-3.1,3.9-4.8c1.9-0.5,3.9-1.3,4.8-3.9
			C419.9,125,419.6,122.3,417.9,122.1z"/>
		<path class="st27" d="M401.2,126.5c-0.1,0.7-0.7,1.2-1.3,1.2c-0.7,0-1.2-0.5-1.1-1.2c0.1-0.7,0.7-1.2,1.3-1.2
			S401.3,125.8,401.2,126.5z"/>
		<path class="st27" d="M409.6,126.5c-0.1,0.7-0.7,1.2-1.3,1.2s-1.2-0.5-1.1-1.2c0.1-0.7,0.7-1.2,1.3-1.2
			C409.2,125.3,409.7,125.8,409.6,126.5z"/>
		<path class="st27" d="M411.3,124c-0.1,0-0.3-0.1-0.3-0.2c-0.8-2-2.7-1.2-2.8-1.1c-0.2,0.1-0.4,0-0.4-0.2c-0.1-0.2,0-0.4,0.2-0.5
			c0.9-0.4,2.8-0.6,3.7,1.4c0.1,0.2,0,0.4-0.2,0.5L411.3,124z"/>
		<path class="st27" d="M401.2,123.1c-0.1,0.1-0.2,0.1-0.3,0.1c-1.7-0.7-2.5,0.8-2.6,0.9c-0.1,0.1-0.3,0.2-0.4,0.1
			c-0.1-0.1-0.2-0.2-0.1-0.4c0.4-0.7,1.6-1.9,3.3-1.2c0.1,0.1,0.2,0.2,0.1,0.4L401.2,123.1z"/>
		<path class="st27" d="M404.4,133.5c0.1-0.1,0.2-0.2,0.3-0.2c2.2-0.3,2.3-2.2,2.3-2.3c0-0.2,0.2-0.4,0.4-0.4c0.2,0,0.3,0.1,0.3,0.3
			c0,0.9-0.7,2.8-3,3.1c-0.2,0-0.4-0.1-0.4-0.3L404.4,133.5z"/>
		<path class="st27" d="M402.8,131.7c-0.2,0-0.5-0.1-0.6-0.2c-0.6-0.4-0.7-1.4-0.2-2.5l1.2-3.9c0-0.1,0.2-0.2,0.4-0.2
			c0.1,0,0.2,0.2,0.2,0.3l-1.2,3.9c-0.5,1.1-0.3,1.7,0,1.9c0.3,0.2,0.8,0.1,1.3-0.3c0.1-0.1,0.3-0.1,0.4,0c0.1,0.1,0.1,0.3,0,0.4
			C403.7,131.5,403.2,131.7,402.8,131.7z"/>
		<path class="st27" d="M391.1,121.9c0.8,0.3,1.6,0.8,2.5,0.9c1.6,0.3,3.4,0,5-0.3c2-0.3,3.9-1,5.8-1.5c2-0.6,4-1.3,5.8-2.3
			c0.8-0.4,1.6-1,2.4-1.4c0.5-0.3,1.2-0.7,1.5-1.2c-0.8,1.5-0.7,3.5,0.1,4.8c1,1.6,2.4,2,4.2,2.4c-0.4-0.4,0.7-1.3,1-1.7
			c0.5-0.7,0.7-1.4,0.8-2.2c0.3-1.6,0.1-3.3-0.3-4.8c-0.5-2-1.6-3.4-3.1-4.9c-0.5-0.5-1.1-1.1-1.9-1.4c-0.6-0.2-1.3-0.1-1.9-0.3
			c-0.7-0.3-1.3-0.9-2.1-1.2c-0.7-0.3-1.5-0.6-2.2-0.8c-1.8-0.5-3.3-0.5-5.2,0.1c-4.3,1.3-6.2,5-8.1,8.2c-0.8,1.4-1.7,2.9-2.7,4.3
			c-1.1,1.4-2.5,1.9-4.2,2.3c0.7,0.4,2.9,1.7,3.7,1.4"/>
		<path class="st28" d="M437.4,195.8c-0.1,0.7-0.1,1.4-0.2,2.1C437.2,197.2,437.2,196.5,437.4,195.8z"/>
		
			<linearGradient id="SVGID_24_" gradientUnits="userSpaceOnUse" x1="0" y1="-3.401499e-06" x2="1" y2="-3.401499e-06" gradientTransform="matrix(2.352147e-15 -38.4135 38.4135 2.352147e-15 372.735 171.6883)">
			<stop  offset="0" style="stop-color:#008DA2"/>
			<stop  offset="4.527240e-03" style="stop-color:#008DA2"/>
			<stop  offset="0.2614" style="stop-color:#1BABC0"/>
			<stop  offset="0.5503" style="stop-color:#33C6DC"/>
			<stop  offset="0.8061" style="stop-color:#42D6EC"/>
			<stop  offset="1" style="stop-color:#47DCF2"/>
		</linearGradient>
		<path class="st29" d="M386.7,143.7c0,0-2.3,0.5-4.7,2.7c-2.2,2-23.2,33.5-23.2,33.5c-1,3.8,11.9,5.9,11.9,5.9l13.8-19.7
			L386.7,143.7z"/>
	</g>
	<polyline class="st30" points="339.2,198.5 229.8,230.5 227.3,254.3 341.9,254.3 347.2,199 339.2,198.5 	"/>
	
		<linearGradient id="SVGID_25_" gradientUnits="userSpaceOnUse" x1="0" y1="-1.767185e-07" x2="1" y2="-1.767185e-07" gradientTransform="matrix(142.434 -233.1347 233.1347 142.434 160.6878 459.5008)">
		<stop  offset="0" style="stop-color:#3B0677"/>
		<stop  offset="1.923080e-03" style="stop-color:#3B0677"/>
		<stop  offset="7.111198e-03" style="stop-color:#3B0677"/>
		<stop  offset="0.3977" style="stop-color:#512284"/>
		<stop  offset="0.741" style="stop-color:#5E338C"/>
		<stop  offset="0.9981" style="stop-color:#63398F"/>
		<stop  offset="1" style="stop-color:#63398F"/>
	</linearGradient>
	<polyline class="st31" points="341.9,254.3 227.3,254.3 226.7,259.8 341.4,259.8 341.9,254.3 	"/>
	
		<linearGradient id="SVGID_26_" gradientUnits="userSpaceOnUse" x1="0" y1="-2.700526e-07" x2="1" y2="-2.700526e-07" gradientTransform="matrix(105.572 -253.2429 253.2429 105.572 211.0866 440.3583)">
		<stop  offset="0" style="stop-color:#C7C6E6"/>
		<stop  offset="3.108970e-02" style="stop-color:#C7C6E6"/>
		<stop  offset="0.6216" style="stop-color:#DADADA"/>
		<stop  offset="0.9653" style="stop-color:#C9C7E5"/>
		<stop  offset="1" style="stop-color:#C9C7E5"/>
	</linearGradient>
	<path class="st32" d="M341.4,259.8H226.7l-1.2,11.4c-0.5,4.5,3.1,8.5,7.7,8.5h94.1l0.1-0.2l0.2,0.2h4.9c4,0,7.3-3,7.7-7
		L341.4,259.8"/>
	<polyline class="st33" points="327.4,279.5 327.3,279.8 327.6,279.8 327.4,279.5 	"/>
	<path class="st1" d="M341.9,198.8L341.9,198.8c-0.5-0.5-1.1-0.8-1.8-0.8l-108.7,1.5c-1.2,0-2.1,0.9-2.3,2l-7.9,64.6
		c-0.1,0.7,0.1,1.3,0.6,1.8c0.4,0.5,1.1,0.8,1.7,0.8h110c1.2,0,2.2-0.9,2.3-2.1l6.6-66.1C342.5,199.9,342.3,199.2,341.9,198.8z"/>
	
		<linearGradient id="SVGID_27_" gradientUnits="userSpaceOnUse" x1="-1.087880e-06" y1="1.276039e-07" x2="1" y2="1.276039e-07" gradientTransform="matrix(119.5789 0 0 119.5789 221.3549 232.5303)">
		<stop  offset="0" style="stop-color:#410784"/>
		<stop  offset="1.923080e-03" style="stop-color:#410784"/>
		<stop  offset="6.795213e-02" style="stop-color:#460D87"/>
		<stop  offset="0.4335" style="stop-color:#5C2893"/>
		<stop  offset="0.7557" style="stop-color:#69399B"/>
		<stop  offset="0.9981" style="stop-color:#6E3F9E"/>
		<stop  offset="1" style="stop-color:#6E3F9E"/>
	</linearGradient>
	<path class="st34" d="M338.5,198H230.2c-1.3,0-2.3,0.9-2.4,2.2l-6.4,64.3c-0.1,1.4,1,2.7,2.4,2.7h108.3c1.3,0,2.3-0.9,2.4-2.2
		l6.4-64.3C341.1,199.2,339.9,198,338.5,198z"/>
	
		<linearGradient id="SVGID_28_" gradientUnits="userSpaceOnUse" x1="-1.134923e-06" y1="1.332864e-07" x2="1" y2="1.332864e-07" gradientTransform="matrix(114.4817 0 0 114.4817 223.9034 232.5303)">
		<stop  offset="0" style="stop-color:#DDDBFF"/>
		<stop  offset="3.108970e-02" style="stop-color:#DDDBFF"/>
		<stop  offset="0.6216" style="stop-color:#F2F2F2"/>
		<stop  offset="0.9653" style="stop-color:#DFDDFE"/>
		<stop  offset="1" style="stop-color:#DFDDFE"/>
	</linearGradient>
	<path class="st35" d="M337.5,200.5H231.2c-0.5,0-0.8,0.3-0.9,0.8l-6.4,62.3c-0.1,0.5,0.4,1,0.9,1h106.3c0.5,0,0.8-0.3,0.9-0.8
		l6.4-62.3C338.4,201,338,200.5,337.5,200.5z"/>
	<g>
		<defs>
			<polyline id="SVGID_29_" points="339.2,198.5 231.1,198.5 224.5,264.5 332.6,264.5 339.2,198.5 			"/>
		</defs>
		<clipPath id="SVGID_30_">
			<use xlink:href="#SVGID_29_"  style="overflow:visible;"/>
		</clipPath>
		
			<linearGradient id="SVGID_31_" gradientUnits="userSpaceOnUse" x1="-1.514804e-06" y1="3.787009e-07" x2="1" y2="3.787009e-07" gradientTransform="matrix(80.5849 0 0 80.5849 229.2281 299.9279)">
			<stop  offset="0" style="stop-color:#008DA2"/>
			<stop  offset="4.527240e-03" style="stop-color:#008DA2"/>
			<stop  offset="0.2614" style="stop-color:#1BABC0"/>
			<stop  offset="0.5503" style="stop-color:#33C6DC"/>
			<stop  offset="0.8061" style="stop-color:#42D6EC"/>
			<stop  offset="1" style="stop-color:#47DCF2"/>
		</linearGradient>
		<path class="st36" d="M305.2,348.9h-6.5c1.8,0,3.5-34.5-2.1-64.2l-3.3,9.5c-1.4,4-2.4,8-3,12.1c-0.6,4.4,0.8,32.8,0.5,36.8
			c-15.1,5.5-31.1,6.5-48.7,0c1.3-6.2,8.4-30.7,9.9-39.6c0.4-2.1,0.4-16.1,0.2-18.2c-7,17.1-12,39.9-16.3,64.8h-6.7
			c2.9-32.8,4.2-58.1,14.8-78.2c4.6-8.6,11.9-18.5,21.2-21l0.2,0c1.6-0.4,3.1-0.8,4.7-1.1l0.1,0h13.4c1,0.1,1.9,0.1,2.9,0.2
			c2.8,0.3,0.3-0.3,2.8,0.3c0.1,0,17.8,7.2,19.1,29.4C309.5,299.5,312.1,328.2,305.2,348.9z"/>
		<polygon class="st37" points="309.4,343 299.3,343 298.7,348.9 306.4,348.9 		"/>
		<polygon class="st37" points="227.1,344.3 237.2,344.3 236.6,350.1 228.9,350.1 		"/>
		<path class="st38" d="M267.3,236.2c-1.7-2.4-3.8-4.6-3.6-7.9c0.1-2.4,0.1-5.3,0.9-7.7c0.5-1.5,1.4-2.8,2.1-4.3
			c-0.9,0-2.5,1.5-3.3,2.1c2.6-3.8,5.1-7.8,8.5-11c3.1-2.9,6.8-4.5,10.9-4.9c1.9-0.2,3.9-0.1,5.7,0.4c1.8,0.5,2.4,1.7,3.8,2.7
			c0.9,0.6,1.7-0.3,2.9,0c1.2,0.3,2.6,1.6,3.1,2.7c1.1,2.8,0.5,6.5,1.1,9.4c-0.3-0.6-0.8-1.2-1.4-1.5c1.5,1.3,1.1,6,1,7.9
			c-0.2,3.1-2,6.5-4.3,8.9c-2.5,2.7-6,4.7-9.5,5.3c-3.7,0.6-7.8-0.3-11.3-0.8c-1.4-0.2-5.6-0.8-6-2.4"/>
		<path class="st39" d="M277.3,260.6L277.3,260.6c-3.2,0-5.5-2.6-5.2-5.8l1.5-14.9h11.6l-1.5,14.9
			C283.3,258,280.5,260.6,277.3,260.6z"/>
		<path class="st40" d="M300.3,231.8c-1.2,3.5-3.9,4.6-6.4,5.3c-1.3,2.3-3.2,4.6-5.2,6.5c-1.3,1.3-2.7,2.4-4.3,3.3
			c-1.1,0.6-2.2,1-3.4,1.3l-0.2,0.1c-0.2,0-0.3,0.1-0.5,0.1c-0.1,0-0.2,0-0.3,0c-0.1,0-0.2,0-0.3,0c-0.2,0-0.4,0-0.7,0
			c-0.2,0-0.4,0-0.6,0c-0.1,0-0.2,0-0.3,0c-0.1,0-0.2,0-0.3,0c-0.2,0-0.3-0.1-0.5-0.1l-0.2-0.1c-1.5-0.4-2.9-1.1-4.1-2
			c-1-0.7-1.9-1.6-2.6-2.6c-1.6-1.9-3-4.1-3.9-6.5c-2.4-0.7-4.9-1.8-5.4-5.3c-0.4-2.7,0.8-6.4,3.1-6.6c0.7-0.1,1.5,0.2,2.2,0.6
			c0,0,0,0.2,0,0.5c0.1,1.7,0.6,7.5,0.6,7c0.1-0.5,2.1-9.4,2.1-9.4s0.8,2,6.4-1.3c0,0,3.3,1.7,7.7-3.4c0,0,6.4,1.3,7.8-1.8
			c0,0,6.4,9.4-0.7,15.9c0,0,3.5,0.5,6.6-7.8c0.6-0.3,1.3-0.5,1.8-0.4C300.8,225.4,301.2,229,300.3,231.8z"/>
		<path class="st38" d="M287.5,230.1c0,0.8-0.6,1.6-1.3,1.7c-0.8,0.1-1.4-0.5-1.4-1.3s0.6-1.6,1.3-1.7
			C286.9,228.7,287.5,229.3,287.5,230.1z"/>
		<path class="st38" d="M275.4,230.1c0,0.8-0.6,1.6-1.3,1.7s-1.4-0.5-1.4-1.3c0-0.8,0.6-1.6,1.3-1.7
			C274.8,228.7,275.4,229.3,275.4,230.1z"/>
		<path class="st38" d="M288.6,224c-0.2,0-0.4,0-0.4-0.2c-1.4-2.4-3.8-1.1-3.9-1c-0.2,0.1-0.5,0.1-0.6-0.2c-0.1-0.2,0-0.5,0.2-0.6
			c1.1-0.7,3.7-1.2,5.2,1.3c0.1,0.2,0,0.5-0.2,0.6L288.6,224z"/>
		<path class="st38" d="M280.2,240.3c0.1-0.2,0.2-0.3,0.4-0.3c3-0.4,3.1-3,3.1-3.1c0-0.3,0.2-0.5,0.5-0.5c0.3,0,0.5,0.2,0.5,0.4
			c0,1.3-0.9,3.7-4,4.1c-0.3,0-0.5-0.1-0.5-0.4L280.2,240.3z"/>
		<path class="st38" d="M276.2,226.7c-0.1,0.1-0.3,0.1-0.4,0.1c-2.3-0.8-3.4,1.2-3.4,1.3c-0.1,0.2-0.3,0.3-0.5,0.2
			c-0.2-0.1-0.3-0.3-0.2-0.5c0.5-1,2.1-2.6,4.4-1.7c0.2,0.1,0.3,0.3,0.2,0.5L276.2,226.7z"/>
		<path class="st38" d="M278.1,238c-0.3,0-0.6-0.1-0.9-0.3c-0.8-0.6-0.9-1.8-0.2-3.4l1.6-5.2c0.1-0.2,0.3-0.3,0.5-0.3
			c0.2,0,0.3,0.2,0.2,0.4l-1.6,5.3c-0.6,1.5-0.4,2.3,0,2.6c0.4,0.3,1.1,0.1,1.8-0.4c0.2-0.1,0.4-0.1,0.5,0c0.1,0.2,0.1,0.4-0.1,0.5
			C279.3,237.7,278.6,238,278.1,238z"/>
		<path class="st41" d="M266.9,250.2L266.9,250.2c0.8,6.2,4.8,10.4,9.8,10.4h0.6l-4.5-13.5L266.9,250.2z"/>
		<path class="st41" d="M284.7,247.1l-7.2,13.5h0.6c5,0,9.8-4.2,11.9-10.4L284.7,247.1z"/>
		<path class="st38" d="M296.7,225.6c-3.1,8.2-6.6,7.8-6.6,7.8c7.1-6.5,0.7-15.9,0.7-15.9c-1.4,3.1-7.8,1.8-7.8,1.8
			c-4.3,5.1-7.7,3.4-7.7,3.4c-5.6,3.3-6.4,1.3-6.4,1.3s-2,8.9-2.1,9.4c0,0.4-0.5-5.3-0.6-7c0-0.3,0-0.5,0-0.5
			c1.5-4.6,4.4-9.5,7.7-12.9c1.4-1.7,3-2.8,4.6-3.4c0.9-0.4,1.8-0.7,2.6-0.8c0.6,0,1.2-0.1,1.8-0.1c0.6,0,1.2,0,1.8,0.1
			c0.9,0.1,1.7,0.4,2.5,0.8c1.5,0.6,2.8,1.7,3.9,3.4c2.6,3.4,4.6,8.3,5.1,12.9C296.4,225.8,296.6,225.7,296.7,225.6z"/>
	</g>
	<g>
		<defs>
			<polyline id="SVGID_32_" points="481.9,182.3 352.9,214.3 348,254.3 483.4,254.3 491.4,182.8 481.9,182.3 			"/>
		</defs>
		<clipPath id="SVGID_33_">
			<use xlink:href="#SVGID_32_"  style="overflow:visible;"/>
		</clipPath>
		<rect x="348" y="182.3" class="st42" width="143.4" height="72"/>
	</g>
	
		<linearGradient id="SVGID_34_" gradientUnits="userSpaceOnUse" x1="0" y1="2.408624e-07" x2="1" y2="2.408624e-07" gradientTransform="matrix(142.434 -233.1347 233.1347 142.434 255.7739 517.5938)">
		<stop  offset="0" style="stop-color:#3B0677"/>
		<stop  offset="1.923080e-03" style="stop-color:#3B0677"/>
		<stop  offset="7.111198e-03" style="stop-color:#3B0677"/>
		<stop  offset="0.3977" style="stop-color:#512284"/>
		<stop  offset="0.741" style="stop-color:#5E338C"/>
		<stop  offset="0.9981" style="stop-color:#63398F"/>
		<stop  offset="1" style="stop-color:#63398F"/>
	</linearGradient>
	<path class="st43" d="M483.4,254.3H348l-0.1,0.7c-0.2,1.7,0.3,3.4,1.3,4.8h132.7c0.7-1,1.1-2.1,1.3-3.3L483.4,254.3"/>
	
		<linearGradient id="SVGID_35_" gradientUnits="userSpaceOnUse" x1="0" y1="1.479220e-07" x2="1" y2="1.479220e-07" gradientTransform="matrix(105.572 -253.2429 253.2429 105.572 321.132 486.2341)">
		<stop  offset="0" style="stop-color:#C7C6E6"/>
		<stop  offset="3.108970e-02" style="stop-color:#C7C6E6"/>
		<stop  offset="0.6216" style="stop-color:#DADADA"/>
		<stop  offset="0.9653" style="stop-color:#C9C7E5"/>
		<stop  offset="1" style="stop-color:#C9C7E5"/>
	</linearGradient>
	<path class="st44" d="M481.8,259.8H349.2c1.6,2.2,4.4,3.7,7.8,3.7h117.1C477.4,263.5,480.2,262.1,481.8,259.8"/>
	<path class="st1" d="M492.3,165.3L492.3,165.3c-0.6-0.6-1.3-1-2.2-1l-132.4,1.8c-1.4,0-2.6,1.1-2.7,2.5l-9.6,78.6
		c-0.1,0.8,0.1,1.6,0.7,2.2c0.5,0.6,1.3,1,2.1,1h134c1.4,0,2.6-1.1,2.8-2.5l8.1-80.5C493.1,166.6,492.8,165.9,492.3,165.3z"/>
	
		<linearGradient id="SVGID_36_" gradientUnits="userSpaceOnUse" x1="0" y1="-1.007402e-06" x2="1" y2="-1.007402e-06" gradientTransform="matrix(42.5374 -105.8247 105.8247 42.5374 389.5576 277.9575)">
		<stop  offset="0" style="stop-color:#410784"/>
		<stop  offset="1.923080e-03" style="stop-color:#410784"/>
		<stop  offset="6.795213e-02" style="stop-color:#460D87"/>
		<stop  offset="0.4335" style="stop-color:#5C2893"/>
		<stop  offset="0.7557" style="stop-color:#69399B"/>
		<stop  offset="0.9981" style="stop-color:#6E3F9E"/>
		<stop  offset="1" style="stop-color:#6E3F9E"/>
	</linearGradient>
	<path class="st45" d="M488.6,164.3H356c-1.3,0-2.4,1-2.6,2.3l-7.9,79c-0.2,1.5,1,2.8,2.6,2.8h132.6c1.3,0,2.4-1,2.6-2.3l7.9-79
		C491.3,165.6,490.1,164.3,488.6,164.3z"/>
	
		<linearGradient id="SVGID_37_" gradientUnits="userSpaceOnUse" x1="-9.226178e-07" y1="1.116177e-07" x2="1" y2="1.116177e-07" gradientTransform="matrix(136.7058 0 0 136.7058 349.9789 206.3764)">
		<stop  offset="0" style="stop-color:#DDDBFF"/>
		<stop  offset="3.108970e-02" style="stop-color:#DDDBFF"/>
		<stop  offset="0.6216" style="stop-color:#F2F2F2"/>
		<stop  offset="0.9653" style="stop-color:#DFDDFE"/>
		<stop  offset="1" style="stop-color:#DFDDFE"/>
	</linearGradient>
	<path class="st46" d="M486.7,169.6l-2.8,28.3l-4.6,45.7c-0.1,1.3-1.2,2.2-2.5,2.2H352.5c-1.5,0-2.6-1.3-2.5-2.7l2.9-29.2l4.5-44.8
		c0.1-1.3,1.2-2.2,2.5-2.2h124.3C485.7,166.9,486.8,168.1,486.7,169.6z"/>
	<g>
		<defs>
			<polyline id="SVGID_38_" points="486.8,166.9 357.7,166.9 349.8,245.8 478.9,245.8 486.8,166.9 			"/>
		</defs>
		<clipPath id="SVGID_39_">
			<use xlink:href="#SVGID_38_"  style="overflow:visible;"/>
		</clipPath>
		
			<linearGradient id="SVGID_40_" gradientUnits="userSpaceOnUse" x1="-2.178253e-06" y1="5.991060e-07" x2="1" y2="5.991060e-07" gradientTransform="matrix(51.0252 0 -5.1025 50.9385 383.2442 301.6421)">
			<stop  offset="0" style="stop-color:#FFAE2A"/>
			<stop  offset="0.1496" style="stop-color:#FFB232"/>
			<stop  offset="0.382" style="stop-color:#FEBC48"/>
			<stop  offset="0.6679" style="stop-color:#FCCD6C"/>
			<stop  offset="0.9937" style="stop-color:#FAE59D"/>
			<stop  offset="1" style="stop-color:#FAE59E"/>
		</linearGradient>
		<path class="st47" d="M430.2,289.7l-35.5,0.8c-9.7,0.2-15.2,12.1-8.6,18.5l4.6,4.4l34.6,0.2C425.4,313.6,443.1,291.8,430.2,289.7z
			"/>
		<path class="st48" d="M422.3,215.2c0,0.3,0,0.7,0,1l-9.6,0.5l0.1-0.3l0,0c0.1-0.4,0.2-0.9,0.2-1.2c0.2-1.5,0.1-2.7-0.3-3.7
			l9.8-2.3l0,3.9C422.4,213.8,422.4,214.5,422.3,215.2z"/>
		<path class="st49" d="M428.3,226c-0.4-0.5-0.9-1-1.3-1.4c-1.1-1.2-2.1-2.4-2.8-3.8l0,0c-0.3-0.5-0.5-1-0.7-1.6
			c0.1,0,0.2,0.1,0.3,0.1l2.1,0.3L428.3,226z"/>
		<path class="st50" d="M463,255.7l-5.4-7.3c-0.2-0.3-0.5-0.6-0.7-1c-3.9-5.4-7.3-11.2-10.5-17.1c-2-3.7-5.1-6.9-9-8.8
			c-4.4-2.2-8.8-1.8-13.6-2.3c0,0,0.2,0.6,0.4,1.6c0.3,1.8,1.5,2.6,2.7,3.7c3.7,3.5,3.5,9.5,3.6,14.4c0.1,2.9,1,4.3,3,6
			c1.7,1.4,3.5,2.9,5.2,4.4c2.4,2.1,4.8,4.1,7.2,6.2l12.6,10.8C463.3,265.2,465.8,259.5,463,255.7z"/>
		<path class="st50" d="M407,220.2c-8.7,0.2-16,2.6-21.5,10.2c-4.4,6-9,11.8-14.1,17.3c-0.2,0.3-0.5,0.5-0.7,0.8l-6.9,7.3
			c-3.5,3.7-2.2,9.4,2.5,10.5l13.6-9.9l18.8-13.7c0.5-1.6,0.9-3.2,1.4-4.8c0.8-2.8,7.9,0.6,9.5-2c1.4-2.4-2.5-10.5-1.1-13
			c0.7-1.1,1.2-2.2,1.8-3.4C409.8,220,408.4,220.1,407,220.2z"/>
		<path class="st50" d="M436.6,191.6c-0.6-0.1-1.4,0.2-2.2,0.6c-0.5-4.3-2.3-8.9-4.8-12.1c-1-1.6-2.3-2.6-3.7-3.2
			c-0.8-0.4-1.5-0.6-2.3-0.7c-0.6,0-1.1-0.1-1.6-0.1c-0.5,0-1.1,0-1.7,0.1c-0.8,0.1-1.7,0.3-2.5,0.7c-1.5,0.6-3,1.6-4.3,3.2
			c-3.1,3.2-5.9,7.8-7.3,12.1c-0.7-0.4-1.4-0.7-2-0.6c-2.2,0.2-3.2,3.6-2.9,6.2c0.4,3.3,2.8,4.3,5,5c0.8,2.2,2.1,4.3,3.7,6.1
			c1.6,2.1,3.8,3.7,6.3,4.3l0.2,0.1c0.2,0,0.3,0.1,0.4,0.1c0.1,0,0.2,0,0.3,0l0.3,0c0.2,0,0.4,0,0.6,0c0.2,0,0.4,0,0.6,0l0.3,0
			c0.1,0,0.2,0,0.3,0c0.2,0,0.3-0.1,0.5-0.1l0.2-0.1c2.7-0.6,5.2-2.2,7.2-4.3c1.9-1.8,3.6-3.9,4.9-6.1c2.4-0.7,5-1.7,6-5
			C439.1,195.2,438.7,191.8,436.6,191.6z"/>
		<path class="st51" d="M420,206.3c1.6-0.5,3.3-1.6,4.3-4.1c0.1-0.2,0-0.4-0.2-0.5c-0.2-0.1-0.4,0.1-0.5,0.3
			c-1.7,4.5-6.3,3.8-6.5,3.8c-0.2,0-0.4,0.1-0.5,0.3c-0.1,0.2,0.1,0.4,0.3,0.4C416.9,206.6,418.3,206.8,420,206.3z"/>
		<path class="st51" d="M427.9,193.6L427.9,193.6c0.2-0.1,0.4-0.3,0.3-0.5c-0.8-2.3-2.9-2.3-4-1.9c-0.2,0.1-0.3,0.3-0.3,0.5
			c0.1,0.2,0.2,0.3,0.5,0.2c0.1,0,2.2-0.8,3,1.5C427.5,193.6,427.7,193.7,427.9,193.6z"/>
		<path class="st51" d="M416.3,192.1L416.3,192.1c0.1-0.2,0.1-0.5-0.1-0.6c-2.2-1.2-3.9,0.2-4.5,1.2c-0.1,0.2-0.1,0.4,0.1,0.5
			c0.2,0.1,0.4,0.1,0.5-0.1c0-0.1,1.4-2,3.5-0.9C415.9,192.3,416.1,192.3,416.3,192.1z"/>
		<path class="st51" d="M417.5,202.7c-1.6-0.3-1.8-1-1.8-1.2c0-0.1,0-0.2,0.1-0.3l2.6-3.3c0.1-0.2,0.4-0.2,0.5-0.1
			c0.2,0.1,0.2,0.4,0.1,0.5l-2.4,3.1c0.1,0.2,0.6,0.5,2,0.6c0.2,0,0.4,0.2,0.3,0.4c0,0.2-0.2,0.4-0.4,0.4
			C418.1,202.8,417.8,202.7,417.5,202.7z"/>
		<path class="st51" d="M413.3,197c0,0.7,0.5,1.3,1.2,1.2s1.3-0.7,1.3-1.4s-0.5-1.3-1.2-1.2C413.9,195.6,413.3,196.2,413.3,197z"/>
		<path class="st51" d="M423,197c0,0.7,0.5,1.3,1.2,1.2s1.3-0.7,1.3-1.4c0-0.7-0.5-1.3-1.2-1.2S423.1,196.2,423,197z"/>
		
			<linearGradient id="SVGID_41_" gradientUnits="userSpaceOnUse" x1="0" y1="-2.631396e-06" x2="1" y2="-2.631396e-06" gradientTransform="matrix(3.163901e-15 -51.6704 51.6704 3.163901e-15 409.3673 258.5182)">
			<stop  offset="0" style="stop-color:#FFAE2A"/>
			<stop  offset="0.1496" style="stop-color:#FFB232"/>
			<stop  offset="0.382" style="stop-color:#FEBC48"/>
			<stop  offset="0.6679" style="stop-color:#FCCD6C"/>
			<stop  offset="0.9937" style="stop-color:#FAE59D"/>
			<stop  offset="1" style="stop-color:#FAE59E"/>
		</linearGradient>
		<path class="st52" d="M423.8,274.1c-0.5-0.9-0.7-1.9-0.7-2.9c0-0.6,0.1-1.2,0.1-1.8c0.1-0.9,0.3-1.9,0.5-2.7
			c0.1-0.2,0.2-0.5,0.3-0.7l3-4.9l3.6-5.9c3.5-5.7,6.1-12.9,3.9-18.5c-0.3-0.7-0.5-1.4-0.6-2.2c-1.4-3.1-3.3-6-5.6-8.6l0,0
			c-0.4-0.5-0.9-1-1.3-1.4c-1.1-1.2-2.1-2.4-2.8-3.8l0,0c-0.3-0.5-0.5-1-0.7-1.6c-1.1-0.3-1.6-1.5-1.1-2.7c-0.1-0.1-0.1-0.1-0.1-0.3
			l-9.6,0.5c-0.4,1.2-1,2-2,2.5c-0.2,0.1-0.4,0.2-0.6,0.3c-0.5,1.2-1.1,2.3-1.8,3.4c-1.3,2.3-2.8,4.3-4.6,6
			c-0.3,0.3-0.6,0.5-0.9,0.8l0,0c-0.8,0.7-1.5,1.5-2.3,2.2c-1.6,1.6-2.8,3.5-3.7,5.6l0,0c-0.9,2.1-1.5,4.3-1.8,6.5
			c-0.3,2.6,0,5.2,0.7,7.6l2.4,7.5l0.4,1.1c0.5,1.5,0.7,3.1,0.6,4.7c0,1-0.2,2.1-0.4,3.1c-0.3,1.2-0.8,2.4-1.4,3.6l-13.9,19.4
			c17.2,12.8,33.5,13.5,48.6-1.4L423.8,274.1z"/>
		<path class="st50" d="M460,266.7l-18.2,11.2l-4.9,3l-2.8,1.7l-1.2-4.4c0.3-0.1,0.5-0.3,0.7-0.5l0.2-0.2l3.4-3.5
			c0,0,16.9-24,24.5-19.9C465.6,257.3,464.7,263.8,460,266.7z"/>
		<path class="st50" d="M434.2,282.6l-0.4,0.3c-0.7,0.4-1.4,0.6-2.1,0.6l-7.5,0.2c0.9,2.6-10.4,8.2-12.2,4.6c0,0,6.2-9,7.3-10
			l1.2-1.1c1.4-1.2,3.2-1.6,4.8-1l5.8,2.1c0.6,0.2,1.3,0.2,2-0.2L434.2,282.6z"/>
		<path class="st50" d="M364.6,266.7l15.9,11.2l4.3,3l2.4,1.7l2.1-4.4c-0.2-0.1-0.5-0.3-0.6-0.5l-0.2-0.2l-2.7-3.5
			c0,0-12.1-24-20.5-19.9C360.8,257.3,360.4,263.8,364.6,266.7z"/>
		<path class="st50" d="M387.2,282.6l0.4,0.3c0.6,0.4,1.3,0.6,2,0.6l7.5,0.2c-1.4,2.6,8.7,8.2,11.3,4.6c0,0-4.4-9-5.3-10l-1-1.1
			c-1.1-1.2-2.9-1.6-4.6-1l-6.2,2.1c-0.7,0.2-1.4,0.2-1.9-0.2L387.2,282.6z"/>
		
			<linearGradient id="SVGID_42_" gradientUnits="userSpaceOnUse" x1="0" y1="-1.404307e-06" x2="1" y2="-1.404307e-06" gradientTransform="matrix(-29.6774 -76.9831 80.8531 -37.3252 420.5893 377.3962)">
			<stop  offset="0" style="stop-color:#FFAE2A"/>
			<stop  offset="0.1496" style="stop-color:#FFB232"/>
			<stop  offset="0.382" style="stop-color:#FEBC48"/>
			<stop  offset="0.6679" style="stop-color:#FCCD6C"/>
			<stop  offset="0.9937" style="stop-color:#FAE59D"/>
			<stop  offset="1" style="stop-color:#FAE59E"/>
		</linearGradient>
		<path class="st53" d="M425.2,369.3l-5.4,4l0-0.1c-4.6-6.8-15.9-25.5-20.8-32.5c-11.9-17.1-18.9-29.3-17.2-42.5
			c0.3-2.3,1.5-4.4,3.2-5.9c1.7-1.5,4-2.4,6.3-2.4c5.1,0,9.4,3,10.9,7.7l8.7,34.8L425.2,369.3z"/>
		<path class="st51" d="M436.4,387.4c-1.3-7.7-3.7-11.1-9.8-16.9l0,0c-0.4-0.4-0.8-0.8-1.3-1.2l-0.1,0l0-0.1l-5.4,4
			c0.2,0.9,0.4,1.8,0.6,2.7c1.9,7.7,5.7,11.8,8.5,15.1C431.9,394.6,437.2,392,436.4,387.4z"/>
		
			<linearGradient id="SVGID_43_" gradientUnits="userSpaceOnUse" x1="0" y1="-9.069590e-07" x2="1" y2="-9.069590e-07" gradientTransform="matrix(69.5167 -75.8135 69.7503 61.8172 365.3579 372.1613)">
			<stop  offset="0" style="stop-color:#FFAE2A"/>
			<stop  offset="0.1496" style="stop-color:#FFB232"/>
			<stop  offset="0.382" style="stop-color:#FEBC48"/>
			<stop  offset="0.6679" style="stop-color:#FCCD6C"/>
			<stop  offset="0.9937" style="stop-color:#FAE59D"/>
			<stop  offset="1" style="stop-color:#FAE59E"/>
		</linearGradient>
		<path class="st54" d="M436,298.3c-1,13.2-10.3,25.4-25.7,42.5c-6.2,6.9-21.3,25.6-27.3,32.5l0,0.1l-4.7-4l0.1,0l0,0l21.5-36.8
			l15.7-34.8c2.4-4.7,7.3-7.7,12.5-7.7c2.4,0,4.4,0.9,5.8,2.4C435.3,293.9,436.1,296,436,298.3z"/>
		<path class="st51" d="M378.3,369.3c-1,0.7-1.8,1.4-2.7,2.1c-6.5,5.2-9.3,8.7-12,15.9c-1.8,4.7,3,7.2,6.7,3.7c3.3-3.1,7.6-7,11-14
			c0.6-1.1,1.1-2.4,1.6-3.7L378.3,369.3z"/>
		<path class="st51" d="M436.4,183.4c-2.9-13.1-19.4-14.3-28-4.4c-8,9.2-8.9,34.5,1.3,33.9c-1-2.8-2.1-5.3-2-8.4
			c0.3-6.7,2.1-13.4,8.7-14.9c2.9-0.7,5.4-1.2,8.1-2.7c0.4-0.2,0.8-0.5,1.2-0.7l-0.6,0.5c2.7,1.7,4.9,8.3,9.4,6.3
			C437.8,191.6,436.9,185.9,436.4,183.4z"/>
		<path class="st51" d="M443,171.4c-0.5-0.5-1-0.8-1.6-1.1c-0.2-0.2-0.4-0.3-0.5-0.5c-1.7-1.5-4.8-1.9-7.1-1.1
			c-5.7,1.9-6.6,9.1-4.9,13.5c1.7,4.3,10.2,5.7,13.8,1.9C445.7,180.8,446,174.3,443,171.4z"/>
	</g>
	<path class="st0" d="M204,604.5c0,5.3-31,9.6-69.2,9.6c-38.2,0-69.2-4.3-69.2-9.6s31-9.6,69.2-9.6C173,594.9,204,599.2,204,604.5z"
		/>
	<path class="st55" d="M102.8,380.9c0,0-5.6,13.5,10.1,35l3.4,73.5l-3.9,111.3l10.5-2.2L144,495c0.9-4.8,1.3-9.6,1.1-14.5l-4.4-96
		L102.8,380.9z"/>
	<path class="st56" d="M128.5,380.9c0,0-5.6,13.5,10.1,35l3.4,73.5L135.5,600l10.9-2L169.6,495c0.9-4.8,1.3-9.6,1.1-14.5l-4.4-102.4
		L128.5,380.9z"/>
	<path class="st57" d="M146.4,608.8c3.7-0.1,6.2-4.1-0.1-5.9l-22.4-8l-11.3,0.8C108,609.3,119.9,609.5,146.4,608.8z"/>
	<path class="st57" d="M169.6,608.8c3.7-0.1,6.2-4.1-0.1-5.9l-22.4-8l-11.3,0.8C131.1,609.3,143,609.5,169.6,608.8z"/>
	<path class="st58" d="M124.1,264.5c-4.4,10.1-15.8,36.2-20.3,47c-2.8,6.6,1.3,14.1,8.4,15.3l46.8,7.6l9.9,6.8
		c5.6,3.8,12.7,4.9,19.2,2.7l4.6-1.5c2.4-0.8,2.8-4.1,0.6-5.4l-13.3-7.9l6-0.2c1.6-0.1,3.1-1.2,3.4-2.8c0.4-2.3-1.7-4.7-16.3-1.4
		l-46.4-12.4l17.1-39.3c2.2-5.1,0.1-11-4.7-13.6C133.5,256.3,126.6,258.7,124.1,264.5z"/>
	<rect x="122.1" y="233.5" class="st58" width="14.9" height="17.5"/>
	<path class="st58" d="M150.9,196.9c0.5,3.1,0.8,6.7,0.7,9.5c-0.1,1.4,0.3,2.9,1.3,3.9l4.7,5.2c0.5,0.6,0.6,1.4,0.1,2
		c-0.7,0.9-1.8,2-3.1,2.3c0,0-0.9,7.9-5.4,13.8c-1.4,1.9-3.5,3.1-5.8,3.5c-24.7,4.5-35.5-6.8-36.5-31.3c-0.2-5.4,1.6-10.6,5.2-14.7
		c5.5-6.4,16.6-16,28.8-9.3C146.4,185,150,190.6,150.9,196.9z"/>
	<path class="st1" d="M142.1,207.3c0.2,0,0.4-0.1,0.5-0.2c2.3-3,5.1-1.1,5.3-1c0.3,0.2,0.6,0.1,0.8-0.2c0.2-0.3,0.1-0.6-0.1-0.8
		c-1.3-0.9-4.5-1.9-6.9,1.2c-0.2,0.3-0.2,0.6,0.1,0.8C141.9,207.3,142,207.3,142.1,207.3z"/>
	<path class="st1" d="M150.8,222.8c-0.1-0.1-0.3-0.2-0.5-0.2c-3.8,0.3-4.2-3.1-4.3-3.2c0-0.3-0.3-0.6-0.7-0.5
		c-0.3,0-0.6,0.3-0.5,0.7c0.2,1.6,1.6,4.6,5.5,4.3c0.3,0,0.6-0.3,0.6-0.6C150.9,223.1,150.9,222.9,150.8,222.8z"/>
	<path class="st1" d="M148.1,211.3c0.2,1-0.4,2-1.3,2.2c-0.9,0.2-1.8-0.5-2-1.5c-0.2-1,0.4-2,1.3-2.2
		C147,209.6,147.9,210.3,148.1,211.3z"/>
	
		<linearGradient id="SVGID_44_" gradientUnits="userSpaceOnUse" x1="0" y1="-7.233048e-07" x2="1" y2="-7.233048e-07" gradientTransform="matrix(6.3573 -161.0523 161.0523 6.3573 135.3518 412.723)">
		<stop  offset="0" style="stop-color:#FFAE2A"/>
		<stop  offset="0.1496" style="stop-color:#FFB232"/>
		<stop  offset="0.382" style="stop-color:#FEBC48"/>
		<stop  offset="0.6679" style="stop-color:#FCCD6C"/>
		<stop  offset="0.9937" style="stop-color:#FAE59D"/>
		<stop  offset="1" style="stop-color:#FAE59E"/>
	</linearGradient>
	<path class="st59" d="M122.1,251l16.8-1.9l24.7,22.1c7.6,6.8,9.3,18.1,4,26.8l-8,13l10.7,69.9c-22,9.3-41.9,7.6-67.5,0l8.8-34.7
		c3.6-9.5,4.1-19.9,1.3-29.6c-4.7-16.9-4.9-34.6-0.7-51.4C113.7,259.4,117.2,254.4,122.1,251z"/>
	<path class="st58" d="M128,258.8L128,258.8c5.8-3.5,13.4-1.7,16.9,4.1l21.2,34.6l47.5-31.8c0,0-1.1-10,4.9-16.1
		c0.7-0.7,1.9-0.5,2.2,0.4c0.5,1.2,0.5,3.8-1.4,8.9c0,0,11-12,17-11.5c0.7,0.1,1.3,0.7,1.2,1.4l-0.9,10c-0.3,3.1-1.8,5.9-4.2,7.8
		l-13.5,10.9l-48.5,41.8c-2.6,2.3-6.5,2-8.8-0.6l-36.4-41.4C120.1,271.7,121.5,262.8,128,258.8z"/>
	<path class="st1" d="M162.7,201.9c6.4-12.2-1.9-16.3-6.5-17.6c-2.1-0.6-4.1-1.5-6.1-2.6c-9.7-5.3-23.1-7.1-31.4-3
		c-10.8,5.3-16.6,14.5-16.9,26.5c0,1.3,0,2.6,0.1,3.8c0.4,7.4,0.2,14.9-1.4,22.1c-0.4,1.7-0.8,3.3-1.3,4.9
		c-3.6,11.4-10.6,21.3-13.7,33c-0.8,2.9-1.3,5.8-1.4,8.7c-0.1,2.4-0.7,6.2,0.3,8.3c1.1-2.9,2.8-4.8,5-7c0.3,6-0.5,12,1,17.8
		c1.8,7,6.6,13.7,11.8,18.6c2.3,2.2,4.8,4.1,7.1,6.3c0.6,0.6,1.3,1.2,2,1.8c1.5,1.1,1.1,1.1,2.8,0.3c8.4-4,15.7-12.5,19.9-20.5
		c2.8-5.3,5-11.4,6.7-17.1c1-3.5,2.8-8.5,2.6-12.2c1.1,5.4,0.2,10.5,0.5,15.9c6.4-11.5,10-28.1,4.9-40.7c-2.9-7-5.7-14.3-8.8-21.2
		c-1.8-4.1-3.1-8.7-3.9-13.1l0-0.2c0.1-4.7,0.7-11.5,3.9-14.6l-1,4c10.6,0.8,16.1-6.6,16.1-6.6l-0.1,5c8-0.8,5-8.6,5-8.6
		C159.5,193.3,162.7,201.9,162.7,201.9z"/>
</g>
</svg>
