<svg width="451" height="452" viewBox="0 0 451 452" fill="none" xmlns="http://www.w3.org/2000/svg">
<g clip-path="url(#clip0)">
<g opacity="0.5">
<path opacity="0.5" d="M369.874 372.475C447.353 294.996 447.353 169.377 369.874 91.8979C292.395 14.4186 166.776 14.4186 89.2969 91.8979C11.8177 169.377 11.8177 294.996 89.2969 372.475C166.776 449.954 292.395 449.954 369.874 372.475Z" fill="#D8D8D8"/>
<g opacity="0.5">
<g opacity="0.5">
<path opacity="0.5" d="M224.5 447.4C224.5 445.2 226.3 443.4 228.5 443.4C230.7 443.4 232.5 445.2 232.5 447.4C232.5 449.6 230.7 451.4 228.5 451.4C228.5 451.4 228.5 451.4 228.4 451.4C226.3 451.4 224.5 449.6 224.5 447.4ZM210.7 450.6C208.5 450.4 206.9 448.5 207.1 446.3C207.3 444.1 209.2 442.5 211.4 442.7C213.6 442.9 215.2 444.8 215 447C214.8 449.1 213 450.7 211 450.6C210.8 450.6 210.8 450.6 210.7 450.6ZM242.1 447.1C241.9 444.9 243.6 443 245.8 442.8C248 442.6 249.9 444.3 250.1 446.5C250.3 448.7 248.6 450.6 246.4 450.8C246.3 450.8 246.1 450.8 246 450.8C243.9 450.8 242.2 449.2 242.1 447.1ZM193 448.4C190.8 448 189.4 446 189.7 443.8C190.1 441.6 192.1 440.2 194.3 440.5C196.5 440.9 197.9 442.9 197.6 445.1C197.3 447.1 195.5 448.5 193.6 448.4C193.3 448.4 193.1 448.4 193 448.4ZM259.5 445.4C259.1 443.2 260.6 441.2 262.8 440.8C265 440.5 267 441.9 267.4 444.1C267.7 446.3 266.3 448.3 264.1 448.7C263.9 448.7 263.6 448.8 263.4 448.7C261.5 448.7 259.8 447.4 259.5 445.4ZM175.5 444.7C173.4 444.2 172.1 442 172.6 439.9C173.1 437.8 175.3 436.5 177.4 437C179.5 437.5 180.8 439.7 180.3 441.8C179.8 443.6 178.2 444.8 176.4 444.8C176.1 444.8 175.8 444.7 175.5 444.7ZM276.8 442.3C276.3 440.2 277.6 438 279.7 437.5C281.8 437 284 438.3 284.5 440.4C285 442.5 283.7 444.7 281.6 445.2C281.3 445.3 280.9 445.3 280.6 445.3C278.8 445.3 277.2 444.1 276.8 442.3ZM158.4 439.5C156.3 438.8 155.2 436.5 155.9 434.4C156.6 432.3 158.9 431.2 161 431.9C163.1 432.6 164.2 434.9 163.5 437C162.9 438.7 161.3 439.7 159.6 439.7C159.2 439.8 158.8 439.7 158.4 439.5ZM293.7 437.7C293 435.6 294.1 433.4 296.2 432.6C298.3 431.9 300.5 433 301.3 435.1C302 437.2 300.9 439.4 298.8 440.1C298.3 440.2 297.9 440.3 297.4 440.3C295.8 440.4 294.3 439.4 293.7 437.7ZM141.7 433C139.7 432.1 138.8 429.8 139.7 427.7C140.6 425.7 142.9 424.8 145 425.7C147 426.6 147.9 428.9 147 430.9C146.3 432.4 144.8 433.3 143.3 433.3C142.7 433.3 142.2 433.2 141.7 433ZM310.2 431.8C309.3 429.8 310.3 427.4 312.3 426.6C314.3 425.7 316.7 426.7 317.5 428.7C318.4 430.7 317.4 433.1 315.4 433.9C314.9 434.1 314.3 434.2 313.7 434.2C312.3 434.2 310.8 433.3 310.2 431.8ZM125.7 425.2C123.8 424.2 123 421.7 124.1 419.8C125.1 417.9 127.6 417.1 129.5 418.2C131.4 419.3 132.2 421.7 131.1 423.6C130.4 425 129 425.7 127.5 425.7C126.9 425.6 126.2 425.5 125.7 425.2ZM326.2 424.5C325.2 422.6 325.9 420.1 327.9 419.1C329.9 418.1 332.3 418.8 333.3 420.8C334.3 422.8 333.6 425.2 331.6 426.2C331 426.5 330.3 426.7 329.7 426.7C328.2 426.6 326.9 425.9 326.2 424.5ZM110.3 416C108.5 414.8 107.9 412.3 109.1 410.5C110.3 408.7 112.8 408.1 114.6 409.3C116.4 410.5 116.9 413 115.7 414.8C114.9 416 113.6 416.6 112.3 416.6C111.7 416.6 111 416.4 110.3 416ZM341.5 416C340.3 414.1 340.9 411.7 342.7 410.5C344.6 409.3 347 409.9 348.2 411.7C349.4 413.5 348.8 416 347 417.2C346.3 417.6 345.5 417.9 344.8 417.8C343.5 417.8 342.2 417.2 341.5 416ZM95.8003 405.6C94.1003 404.2 93.7003 401.7 95.1003 400C96.4003 398.3 99.0003 397.9 100.7 399.3C102.4 400.6 102.8 403.2 101.4 404.9C100.6 405.9 99.4003 406.5 98.2003 406.4C97.3003 406.4 96.5003 406.2 95.8003 405.6ZM356 406.2C354.7 404.4 355 402 356.8 400.6C358.6 399.3 361 399.6 362.4 401.4C363.7 403.2 363.4 405.7 361.6 407C360.9 407.6 360 407.8 359.1 407.8C358 407.8 356.8 407.2 356 406.2ZM82.1003 394.1C80.5003 392.6 80.4003 390.1 81.8003 388.5C83.3003 386.9 85.8003 386.8 87.4003 388.2C89.0003 389.7 89.1003 392.2 87.6003 393.8C86.8003 394.7 85.7003 395.1 84.6003 395.1C83.8003 395.1 82.9003 394.8 82.1003 394.1ZM369.8 395.3C368.3 393.7 368.4 391.1 370.1 389.7C371.7 388.2 374.3 388.4 375.7 390C377.2 391.6 377 394.2 375.4 395.6C374.6 396.3 373.6 396.6 372.7 396.6C371.6 396.6 370.5 396.1 369.8 395.3ZM69.5003 381.5C68.0003 379.9 68.1003 377.4 69.7003 375.9C71.3003 374.4 73.8003 374.5 75.3003 376.1C76.8003 377.7 76.7003 380.2 75.1003 381.7C74.3003 382.4 73.3003 382.8 72.3003 382.8C71.3003 382.7 70.2003 382.3 69.5003 381.5ZM382.5 383.3C380.9 381.8 380.8 379.3 382.3 377.6C383.8 376 386.3 375.9 388 377.4C389.6 378.9 389.7 381.4 388.2 383.1C387.4 383.9 386.3 384.4 385.2 384.3C384.2 384.3 383.3 384 382.5 383.3ZM57.9003 367.9C56.5003 366.2 56.8003 363.7 58.6003 362.3C60.3003 360.9 62.8003 361.2 64.2003 363C65.6003 364.7 65.3003 367.2 63.5003 368.6C62.8003 369.2 61.8003 369.5 61.0003 369.4C59.8003 369.4 58.6003 368.9 57.9003 367.9ZM394.3 370.3C392.6 368.9 392.3 366.4 393.7 364.7C395.1 363 397.6 362.7 399.3 364.1C401 365.5 401.3 368 399.9 369.7C399.1 370.7 397.9 371.2 396.7 371.2C395.9 371.1 395 370.8 394.3 370.3ZM47.4003 353.4C46.2003 351.6 46.7003 349.1 48.5003 347.9C50.3003 346.7 52.8003 347.2 54.0003 349C55.2003 350.8 54.7003 353.3 52.9003 354.5C52.2003 355 51.4003 355.2 50.6003 355.2C49.4003 355.2 48.2003 354.6 47.4003 353.4ZM405 356.4C403.2 355.2 402.7 352.7 403.9 350.9C405.1 349.1 407.6 348.6 409.4 349.8C411.2 351 411.7 353.5 410.5 355.3C409.7 356.5 408.4 357.1 407.1 357.1C406.4 357 405.6 356.8 405 356.4ZM38.2003 338.1C37.1003 336.2 37.8003 333.8 39.8003 332.7C41.7003 331.6 44.1003 332.3 45.2003 334.3C46.3003 336.2 45.6003 338.6 43.6003 339.7C43.0003 340.1 42.3003 340.2 41.6003 340.2C40.2003 340.2 38.9003 339.4 38.2003 338.1ZM414.5 341.6C412.6 340.5 411.9 338.1 413 336.2C414.1 334.3 416.5 333.6 418.4 334.7C420.3 335.8 421 338.2 419.9 340.1C419.2 341.4 417.8 342.2 416.3 342.1C415.7 342.1 415.1 341.9 414.5 341.6ZM30.2003 322.1C29.3003 320.1 30.2003 317.7 32.2003 316.8C34.2003 315.9 36.6003 316.8 37.5003 318.8C38.4003 320.8 37.5003 323.2 35.5003 324.1C34.9003 324.3 34.4003 324.5 33.8003 324.4C32.3003 324.5 30.9003 323.6 30.2003 322.1ZM422.8 326.1C420.8 325.2 419.9 322.8 420.8 320.8C421.7 318.8 424.1 317.9 426.1 318.8C428.1 319.7 429 322.1 428.1 324.1C427.4 325.6 425.9 326.4 424.4 326.4C423.8 326.5 423.3 326.4 422.8 326.1ZM23.6003 305.6C22.9003 303.5 24.0003 301.2 26.1003 300.5C28.2003 299.8 30.4003 300.9 31.2003 302.9C31.9003 305 30.8003 307.2 28.8003 308C28.3003 308.2 27.9003 308.2 27.4003 308.2C25.7003 308.2 24.2003 307.2 23.6003 305.6ZM429.7 310C427.6 309.2 426.6 307 427.3 304.9C428.1 302.8 430.3 301.8 432.4 302.5C434.5 303.3 435.5 305.5 434.8 307.6C434.2 309.2 432.6 310.3 431 310.2C430.6 310.2 430.1 310.2 429.7 310ZM18.4003 288.5C17.8003 286.4 19.1003 284.2 21.2003 283.6C23.3003 283 25.5003 284.3 26.1003 286.4C26.6003 288.5 25.4003 290.7 23.2003 291.3C22.8003 291.4 22.5003 291.4 22.1003 291.4C20.4003 291.4 18.9003 290.2 18.4003 288.5ZM435.3 293.4C433.2 292.8 431.9 290.6 432.5 288.5C433.1 286.4 435.3 285.1 437.4 285.7C439.5 286.3 440.8 288.5 440.2 290.6C439.7 292.4 438 293.6 436.3 293.5C436 293.5 435.7 293.5 435.3 293.4ZM14.6003 271C14.2003 268.8 15.7003 266.8 17.8003 266.4C20.0003 266 22.0003 267.5 22.4003 269.7C22.8003 271.9 21.3003 273.9 19.2003 274.3C18.9003 274.3 18.7003 274.4 18.4003 274.4C16.6003 274.3 14.9003 272.9 14.6003 271ZM439.5 276.4C437.3 276 435.9 273.9 436.3 271.8C436.7 269.6 438.8 268.2 440.9 268.6C443.1 269 444.5 271.1 444.1 273.2C443.7 275.2 442 276.5 440.1 276.5C440 276.4 439.8 276.4 439.5 276.4ZM12.2003 253.3C12.0003 251.1 13.6003 249.2 15.8003 249C18.0003 248.8 19.9003 250.4 20.1003 252.6C20.3003 254.8 18.7003 256.7 16.5003 256.9C16.3003 256.9 16.2003 256.9 16.1003 256.9C14.1003 256.9 12.4003 255.4 12.2003 253.3ZM442.3 259.1C440.1 258.9 438.5 256.9 438.7 254.7C438.9 252.5 440.9 250.9 443.1 251.1C445.3 251.3 446.9 253.3 446.7 255.5C446.5 257.6 444.7 259.1 442.7 259.1C442.6 259.1 442.5 259.1 442.3 259.1ZM11.3003 235.5C11.3003 233.3 13.0003 231.5 15.2003 231.5C17.4003 231.5 19.2003 233.2 19.2003 235.4C19.2003 237.6 17.4003 239.4 15.2003 239.4H15.1003C13.1003 239.4 11.4003 237.6 11.3003 235.5ZM439.8 237.5C439.8 235.3 441.7 233.6 443.9 233.6C446.1 233.6 447.9 235.5 447.8 237.7C447.8 239.9 445.9 241.6 443.7 241.6C441.5 241.5 439.8 239.7 439.8 237.5ZM15.6003 221.9C13.4003 221.7 11.7003 219.8 11.9003 217.6C12.0003 215.4 14.0003 213.7 16.2003 213.9C18.4003 214.1 20.1003 216 19.9003 218.2C19.7003 220.3 18.0003 221.9 15.9003 221.9C15.7003 221.9 15.6003 221.9 15.6003 221.9ZM439.7 224.4C439.6 222.2 441.3 220.3 443.5 220.3C445.7 220.2 447.6 221.9 447.6 224.1C447.7 226.3 446 228.2 443.8 228.2C443.7 228.2 443.6 228.2 443.6 228.2C441.5 228.2 439.8 226.5 439.7 224.4ZM17.2003 204.4C15.0003 204.1 13.5003 202 13.9003 199.8C14.2003 197.6 16.3003 196.1 18.4003 196.5C20.6003 196.8 22.1003 198.9 21.7003 201C21.4003 203 19.7003 204.4 17.7003 204.4C17.6003 204.5 17.4003 204.5 17.2003 204.4ZM438.3 207.2C438 205 439.6 203 441.8 202.8C444 202.5 446 204.1 446.3 206.3C446.6 208.5 445 210.5 442.8 210.7C442.6 210.7 442.4 210.7 442.2 210.7C440.2 210.7 438.6 209.2 438.3 207.2ZM20.2003 187.2C18.1003 186.7 16.7003 184.5 17.2003 182.4C17.7003 180.3 19.9003 178.9 22.0003 179.4C24.1003 179.9 25.5003 182.1 24.9003 184.2C24.5003 186.1 22.8003 187.3 20.9003 187.3C20.8003 187.3 20.5003 187.2 20.2003 187.2ZM435.5 190.2C435.1 188.1 436.4 185.9 438.6 185.5C440.8 185 442.9 186.4 443.3 188.6C443.7 190.7 442.4 192.9 440.2 193.3C439.9 193.4 439.6 193.4 439.3 193.4C437.5 193.4 435.9 192.1 435.5 190.2ZM24.7003 170.2C22.6003 169.5 21.5003 167.3 22.1003 165.2C22.8003 163.1 25.1003 162 27.1003 162.7C29.2003 163.4 30.3003 165.6 29.6003 167.7C29.0003 169.4 27.4003 170.5 25.7003 170.4C25.5003 170.4 25.1003 170.3 24.7003 170.2ZM431.3 173.6C430.7 171.5 431.9 169.3 434 168.6C436.1 168 438.3 169.2 439 171.3C439.6 173.4 438.4 175.6 436.3 176.3C435.9 176.4 435.5 176.5 435.1 176.5C433.4 176.4 431.8 175.3 431.3 173.6ZM30.5003 153.6C28.5003 152.7 27.5003 150.4 28.4003 148.4C29.3003 146.4 31.6003 145.4 33.6003 146.3C35.6003 147.2 36.6003 149.5 35.7003 151.5C35.0003 153.1 33.5003 154 31.9003 153.9C31.5003 153.9 31.0003 153.8 30.5003 153.6ZM425.8 157.3C425 155.2 426 152.9 428.1 152.1C430.1 151.3 432.5 152.3 433.3 154.4C434.1 156.5 433.1 158.8 431 159.6C430.5 159.8 430 159.9 429.5 159.9C427.8 159.8 426.4 158.8 425.8 157.3ZM37.7003 137.6C35.7003 136.6 35.0003 134.2 36.0003 132.2C37.0003 130.2 39.4003 129.5 41.4003 130.5C43.4003 131.5 44.1003 133.9 43.1003 135.9C42.4003 137.3 40.9003 138.1 39.5003 138C38.9003 138.1 38.3003 137.9 37.7003 137.6ZM418.9 141.5C417.9 139.5 418.8 137.1 420.8 136.2C422.8 135.2 425.2 136.1 426.1 138C427.1 140 426.2 142.4 424.3 143.3C423.7 143.6 423.1 143.7 422.5 143.7C421 143.7 419.6 142.9 418.9 141.5ZM46.2003 122.2C44.3003 121 43.8003 118.6 45.0003 116.7C46.2003 114.8 48.6003 114.3 50.5003 115.5C52.4003 116.7 52.9003 119.1 51.7003 121C50.9003 122.2 49.6003 122.9 48.2003 122.8C47.5003 122.9 46.8003 122.7 46.2003 122.2ZM410.8 126.4C409.7 124.5 410.3 122.1 412.2 120.9C414.1 119.8 416.5 120.4 417.7 122.3C418.8 124.2 418.2 126.6 416.3 127.8C415.6 128.2 414.9 128.4 414.2 128.3C412.8 128.3 411.5 127.6 410.8 126.4ZM55.9003 107.6C54.1003 106.3 53.8003 103.8 55.1003 102C56.4003 100.2 58.9003 99.9001 60.7003 101.2C62.5003 102.5 62.8003 105 61.5003 106.8C60.7003 107.9 59.5003 108.4 58.2003 108.4C57.4003 108.4 56.6003 108.2 55.9003 107.6ZM401.4 111.9C400.1 110.1 400.6 107.6 402.4 106.3C404.2 105 406.7 105.5 408 107.3C409.3 109.1 408.8 111.6 407 112.8C406.3 113.3 405.4 113.5 404.6 113.5C403.4 113.6 402.2 113 401.4 111.9ZM66.7003 93.9001C65.1003 92.4001 64.9003 89.9001 66.4003 88.3001C67.9003 86.7001 70.4003 86.5001 72.0003 88.0001C73.6003 89.5001 73.8003 92.0001 72.3003 93.6001C71.5003 94.5001 70.4003 95.0001 69.2003 94.9001C68.4003 94.9001 67.5003 94.5001 66.7003 93.9001ZM390.9 98.3001C389.5 96.6001 389.7 94.1001 391.4 92.7001C393.1 91.3001 395.6 91.5001 397 93.2001C398.4 94.9001 398.2 97.4001 396.5 98.8001C395.7 99.4001 394.8 99.7001 393.9 99.7001C392.8 99.7001 391.7 99.2001 390.9 98.3001ZM78.7003 81.0001C77.2003 79.4001 77.2003 76.9001 78.8003 75.4001C80.4003 73.9001 82.9003 73.9001 84.4003 75.5001C85.9003 77.1001 85.9003 79.6001 84.3003 81.1001C83.5003 81.8001 82.5003 82.2001 81.5003 82.2001C80.5003 82.2001 79.4003 81.8001 78.7003 81.0001ZM379.3 85.5001C377.8 83.9001 377.8 81.4001 379.4 79.9001C381 78.4001 383.5 78.4001 385 79.9001C386.5 81.5001 386.5 84.0001 385 85.5001C384.2 86.3001 383.2 86.7001 382.1 86.7001C381.1 86.7001 380.1 86.3001 379.3 85.5001ZM91.6003 69.2001C90.2003 67.5001 90.5003 65.0001 92.2003 63.6001C93.9003 62.2001 96.4003 62.5001 97.8003 64.2001C99.2003 65.9001 98.9003 68.4001 97.2003 69.8001C96.4003 70.4001 95.5003 70.7001 94.6003 70.7001C93.5003 70.6001 92.4003 70.1001 91.6003 69.2001ZM366.8 73.8001C365.1 72.4001 365 69.9001 366.4 68.2001C367.8 66.5001 370.3 66.4001 372 67.8001C373.7 69.2001 373.9 71.7001 372.4 73.4001C371.6 74.3001 370.4 74.8001 369.3 74.8001C368.4 74.7001 367.5 74.4001 366.8 73.8001ZM105.5 58.4001C104.2 56.6001 104.7 54.1001 106.5 52.9001C108.3 51.6001 110.8 52.1001 112 53.9001C113.2 55.7001 112.8 58.2001 111 59.4001C110.3 59.9001 109.5 60.1001 108.7 60.1001C107.4 60.1001 106.2 59.5001 105.5 58.4001ZM353.3 63.1001C351.5 61.8001 351.1 59.3001 352.4 57.5001C353.7 55.7001 356.2 55.3001 358 56.6001C359.8 57.9001 360.2 60.4001 358.9 62.2001C358.1 63.3001 356.9 63.9001 355.6 63.8001C354.7 63.8001 353.9 63.6001 353.3 63.1001ZM120.2 48.9001C119.1 47.0001 119.8 44.6001 121.7 43.5001C123.6 42.4001 126 43.1001 127.1 45.0001C128.2 46.9001 127.5 49.3001 125.6 50.4001C125 50.8001 124.2 50.9001 123.5 50.9001C122.2 50.8001 120.9 50.1001 120.2 48.9001ZM339 53.5001C337.1 52.4001 336.5 49.9001 337.7 48.0001C338.8 46.1001 341.3 45.5001 343.2 46.7001C345.1 47.9001 345.7 50.3001 344.5 52.2001C343.7 53.5001 342.4 54.1001 341 54.1001C340.3 54.1001 339.6 53.9001 339 53.5001ZM135.6 40.5001C134.7 38.5001 135.5 36.1001 137.5 35.2001C139.5 34.3001 141.9 35.1001 142.8 37.1001C143.7 39.1001 142.9 41.5001 140.9 42.4001C140.3 42.7001 139.7 42.8001 139.1 42.8001C137.7 42.8001 136.3 41.9001 135.6 40.5001ZM323.9 45.2001C321.9 44.2001 321.1 41.8001 322.1 39.9001C323.1 37.9001 325.5 37.1001 327.4 38.1001C329.4 39.1001 330.2 41.5001 329.2 43.4001C328.5 44.8001 327 45.6001 325.5 45.6001C325 45.6001 324.4 45.4001 323.9 45.2001ZM151.6 33.5001C150.8 31.4001 151.9 29.2001 154 28.4001C156.1 27.6001 158.4 28.7001 159.1 30.8001C159.9 32.9001 158.8 35.1001 156.7 35.9001C156.2 36.1001 155.7 36.2001 155.2 36.1001C153.7 36.0001 152.2 35.1001 151.6 33.5001ZM308.2 38.1001C306.2 37.3001 305.2 35.0001 306 32.9001C306.8 30.9001 309.1 29.9001 311.2 30.7001C313.2 31.5001 314.2 33.8001 313.4 35.9001C312.8 37.5001 311.2 38.4001 309.6 38.4001C309.1 38.3001 308.7 38.3001 308.2 38.1001ZM168.2 27.8001C167.6 25.7001 168.8 23.5001 171 22.9001C173.1 22.3001 175.3 23.5001 175.9 25.7001C176.5 27.8001 175.3 30.0001 173.1 30.6001C172.7 30.7001 172.3 30.8001 172 30.8001C170.3 30.7001 168.7 29.5001 168.2 27.8001ZM292 32.3001C289.9 31.7001 288.7 29.4001 289.4 27.3001C290.1 25.2001 292.3 24.0001 294.4 24.7001C296.5 25.3001 297.7 27.6001 297 29.7001C296.5 31.4001 294.8 32.5001 293.1 32.5001C292.7 32.5001 292.4 32.4001 292 32.3001ZM185.2 23.5001C184.8 21.3001 186.2 19.2001 188.4 18.8001C190.6 18.4001 192.7 19.8001 193.1 22.0001C193.5 24.2001 192.1 26.2001 189.9 26.7001C189.6 26.8001 189.3 26.8001 189.1 26.8001C187.2 26.7001 185.6 25.3001 185.2 23.5001ZM275.4 27.9001C273.2 27.4001 271.9 25.3001 272.4 23.1001C272.9 20.9001 275 19.6001 277.2 20.1001C279.3 20.6001 280.7 22.7001 280.2 24.9001C279.8 26.8001 278.1 28.1001 276.2 28.0001C275.9 28.0001 275.6 27.9001 275.4 27.9001ZM202.5 20.5001C202.3 18.3001 203.8 16.3001 206 16.1001C208.2 15.9001 210.2 17.5001 210.4 19.7001C210.6 21.9001 209.1 23.9001 206.9 24.1001C206.7 24.1001 206.5 24.1001 206.4 24.1001C204.4 24.1001 202.7 22.6001 202.5 20.5001ZM258.4 24.9001C256.2 24.6001 254.7 22.6001 255 20.4001C255.3 18.2001 257.3 16.7001 259.5 17.0001C261.7 17.3001 263.2 19.3001 262.9 21.5001C262.6 23.5001 260.9 25.0001 258.9 24.9001C258.7 24.9001 258.6 24.9001 258.4 24.9001ZM220 19.1001C219.9 16.9001 221.7 15.1001 223.9 15.0001C226.1 14.9001 227.9 16.7001 228 18.9001C228.1 21.1001 226.3 22.9001 224.1 23.0001C224 23.0001 224 23.0001 223.9 23.0001C221.8 22.9001 220.1 21.2001 220 19.1001ZM237.5 19.0001C237.6 16.8001 239.5 15.1001 241.7 15.2001C243.9 15.3001 245.6 17.2001 245.5 19.4001C245.4 21.6001 243.5 23.3001 241.3 23.2001C239.1 23.1001 237.4 21.2001 237.5 19.0001Z" fill="#D8D8D8"/>
</g>
</g>
</g>
<path d="M230 351.5C351.005 351.5 449.1 345.008 449.1 337C449.1 328.992 351.005 322.5 230 322.5C108.994 322.5 10.8999 328.992 10.8999 337C10.8999 345.008 108.994 351.5 230 351.5Z" fill="#B7B7B7"/>
<path d="M397.2 121.5V302.4C397.2 309.9 391.2 315.9 383.7 315.9H75.4995C67.9995 315.9 61.9995 309.9 61.9995 302.4V121.5C61.9995 114 67.9995 108 75.4995 108H383.7C391.1 108 397.2 114.1 397.2 121.5Z" fill="#1E3C50"/>
<path d="M397.2 211.9V302.3C397.2 309.8 391.2 315.8 383.7 315.8H75.4995C67.9995 315.8 61.9995 309.8 61.9995 302.3V211.9H397.2Z" fill="#131E30"/>
<path d="M382.299 130.2V282.4C382.299 286.9 378.399 290.5 373.599 290.5H85.4994C82.8994 290.5 80.5994 289.5 79.0994 287.8C77.6994 286.4 76.8994 284.5 76.8994 282.4V130.2C76.8994 125.7 80.7994 122.1 85.5994 122.1H373.699C375.299 122.1 376.799 122.5 378.099 123.2C380.599 124.6 382.299 127.2 382.299 130.2Z" fill="#E6E6E6"/>
<path d="M359.8 147.7H101.6V276.3H359.8V147.7Z" fill="white"/>
<path d="M359.8 147.7H101.6V158.7H359.8V147.7Z" fill="#B7B7B7"/>
<path d="M338.499 153.2C338.499 154.5 337.499 155.5 336.199 155.5C334.899 155.5 333.899 154.5 333.899 153.2C333.899 151.9 334.899 150.9 336.199 150.9C337.399 150.9 338.499 151.9 338.499 153.2Z" fill="#FDB900"/>
<path d="M345.899 153.2C345.899 154.5 344.899 155.5 343.599 155.5C342.299 155.5 341.299 154.5 341.299 153.2C341.299 151.9 342.299 150.9 343.599 150.9C344.799 150.9 345.899 151.9 345.899 153.2Z" fill="#00C15A"/>
<path d="M352.899 153.2C352.899 154.5 351.899 155.5 350.599 155.5C349.299 155.5 348.299 154.5 348.299 153.2C348.299 151.9 349.299 150.9 350.599 150.9C351.899 150.9 352.899 151.9 352.899 153.2Z" fill="#FD3F2C"/>
<path d="M230.699 254.9C252.404 254.9 269.999 237.305 269.999 215.6C269.999 193.896 252.404 176.3 230.699 176.3C208.995 176.3 191.399 193.896 191.399 215.6C191.399 237.305 208.995 254.9 230.699 254.9Z" fill="#0074FA"/>
<path d="M216.899 236.3V194.9L252.199 215.6L216.899 236.3Z" fill="white"/>
<g opacity="0.3">
<path opacity="0.3" d="M157.7 257.1H116.3V262.6H157.7V257.1Z" fill="#686868"/>
<path opacity="0.3" d="M157.7 244.4H116.3V249.9H157.7V244.4Z" fill="#686868"/>
<path opacity="0.3" d="M157.7 231.8H116.3V237.3H157.7V231.8Z" fill="#686868"/>
<path opacity="0.3" d="M157.7 219.1H116.3V224.6H157.7V219.1Z" fill="#686868"/>
<path opacity="0.3" d="M157.7 206.5H116.3V212H157.7V206.5Z" fill="#686868"/>
<path opacity="0.3" d="M157.7 193.8H116.3V199.3H157.7V193.8Z" fill="#686868"/>
<path opacity="0.3" d="M157.7 181.2H116.3V186.7H157.7V181.2Z" fill="#686868"/>
<path opacity="0.3" d="M157.7 168.5H116.3V174H157.7V168.5Z" fill="#686868"/>
</g>
<g opacity="0.3">
<path opacity="0.3" d="M343.6 257.1H302.2V262.6H343.6V257.1Z" fill="#686868"/>
<path opacity="0.3" d="M343.6 244.4H302.2V249.9H343.6V244.4Z" fill="#686868"/>
<path opacity="0.3" d="M343.6 231.8H302.2V237.3H343.6V231.8Z" fill="#686868"/>
<path opacity="0.3" d="M343.6 219.1H302.2V224.6H343.6V219.1Z" fill="#686868"/>
<path opacity="0.3" d="M343.6 206.5H302.2V212H343.6V206.5Z" fill="#686868"/>
<path opacity="0.3" d="M343.6 193.8H302.2V199.3H343.6V193.8Z" fill="#686868"/>
<path opacity="0.3" d="M343.6 181.2H302.2V186.7H343.6V181.2Z" fill="#686868"/>
<path opacity="0.3" d="M343.6 168.5H302.2V174H343.6V168.5Z" fill="#686868"/>
</g>
<path d="M428.5 308.6V309.8C428.5 315.6 426.7 320.9 423.5 325.2C418.7 331.8 410.9 336.1 402.2 336.1H56.9997C48.1997 336.1 40.3997 331.8 35.6997 325.2C32.5997 320.9 30.6997 315.6 30.6997 309.8V308.6H428.5Z" fill="#1E3C50"/>
<path d="M185 308.6V308.9C185 311 186.4 312.7 188.1 312.7H269.299C270.999 312.7 272.4 311 272.4 308.9V308.6H185Z" fill="#D8D8D8"/>
<path d="M388.2 317.5H366C365.4 317.5 365 317 365 316.5V315.3C365 314.7 365.5 314.3 366 314.3H388.2C388.8 314.3 389.2 314.8 389.2 315.3V316.5C389.2 317 388.7 317.5 388.2 317.5Z" fill="#D8D8D8"/>
<path d="M423.5 325.2C418.7 331.8 410.9 336.1 402.2 336.1H56.9997C48.1997 336.1 40.3997 331.8 35.6997 325.2H423.5Z" fill="#131E30"/>
<path d="M382.3 130.7V140.3H76.8999V130.7C76.8999 128.9 77.4999 127.1 78.4999 125.7C80.0999 123.5 82.6999 122 85.5999 122H373.7C376.6 122 379.2 123.5 380.8 125.7C381.7 127.2 382.3 128.9 382.3 130.7Z" fill="#B7B7B7"/>
<path d="M359.8 133.5C359.8 134.8 358.8 135.8 357.5 135.8C356.2 135.8 355.2 134.8 355.2 133.5C355.2 132.2 356.2 131.2 357.5 131.2C358.8 131.2 359.8 132.2 359.8 133.5Z" fill="#FDB900"/>
<path d="M367.2 133.5C367.2 134.8 366.2 135.8 364.9 135.8C363.6 135.8 362.6 134.8 362.6 133.5C362.6 132.2 363.6 131.2 364.9 131.2C366.2 131.2 367.2 132.2 367.2 133.5Z" fill="#00C15A"/>
<path d="M374.3 133.5C374.3 134.8 373.3 135.8 372 135.8C370.7 135.8 369.7 134.8 369.7 133.5C369.7 132.2 370.7 131.2 372 131.2C373.3 131.2 374.3 132.2 374.3 133.5Z" fill="#FD3F2C"/>
<path d="M307.7 134.1H147.3C146.5 134.1 145.8 133.4 145.8 132.6V130.8C145.8 130 146.5 129.3 147.3 129.3H307.8C308.6 129.3 309.3 130 309.3 130.8V132.6C309.3 133.4 308.6 134.1 307.7 134.1Z" fill="white"/>
<path d="M106.7 131.6V134.6L104.2 133.1L101.6 131.6L104.2 130.2L106.7 128.7V131.6Z" fill="#1E3C50"/>
<path d="M114.8 131.6V134.6L117.4 133.1L119.9 131.6L117.4 130.2L114.8 128.7V131.6Z" fill="#1E3C50"/>
<path opacity="0.2" d="M380.7 125.8H78.3999C79.9999 123.6 82.5999 122.1 85.4999 122.1H373.6C376.6 122.1 379.2 123.5 380.7 125.8Z" fill="black"/>
<path opacity="0.2" d="M382.3 130.2V280.8C382.3 285.2 378.4 288.8 373.6 288.8H85.4996C82.8996 288.8 80.5996 287.8 79.0996 286.1L378 123.2C380.6 124.6 382.3 127.2 382.3 130.2Z" fill="white"/>
<path d="M185.2 394.2L159.2 365.1H18.1998C15.9998 366 14.9998 368.8 16.5998 370.9L32.4998 391.7C36.6998 397.2 43.2998 400.5 50.1998 400.5H182.4C185.7 400.5 187.4 396.6 185.2 394.2Z" fill="#B7B7B7"/>
<path d="M16.7998 353.1C18.5998 359.9 40.4998 382.5 45.0998 387.3C48.1998 391.3 52.9998 393.9 58.3998 394C58.4998 394 58.5998 394 58.6998 394H166.1C167.5 394 168.6 392.9 168.6 391.5C168.6 390.1 167.5 389 166.1 389H58.9998C52.0998 389 46.3998 383.4 46.3998 376.4C46.3998 369.4 51.9998 364 58.9998 364H166.1C167.5 364 168.6 362.9 168.6 361.5C168.6 360.1 167.5 359 166.1 359H165.9L166.3 358.2L121.4 334.2H31.0998C31.0998 334.1 12.2998 336.4 16.7998 353.1Z" fill="#FDB900"/>
<path opacity="0.2" d="M46.7998 371C46.7998 370.9 46.8998 370.8 46.8998 370.7C48.9998 366.6 53.0998 364.1 57.6998 363.9C58.0998 363.9 58.4998 363.8 58.9998 363.8H166.1C167.4 363.8 168.5 362.7 168.6 361.4H58.9998C53.0998 361.5 48.0998 365.6 46.7998 371Z" fill="black"/>
<path d="M58.0997 389.1H166.1V364H58.0997C53.3997 364 49.0997 366.6 46.9997 370.8C45.0997 374.4 45.0997 378.8 46.9997 382.4C49.0997 386.5 53.3997 389.1 58.0997 389.1Z" fill="white"/>
<path d="M166.1 371.6H59.3996C58.8996 371.6 58.5996 371.2 58.5996 370.8C58.5996 370.3 58.9996 370 59.3996 370H166V371.6H166.1Z" fill="#D8D8D8"/>
<path d="M166.1 377.4H59.3996C58.8996 377.4 58.5996 377 58.5996 376.6C58.5996 376.1 58.9996 375.8 59.3996 375.8H166V377.4H166.1Z" fill="#D8D8D8"/>
<path d="M166.1 383.201H59.3996C58.8996 383.201 58.5996 382.801 58.5996 382.401C58.5996 381.901 58.9996 381.601 59.3996 381.601H166V383.201H166.1Z" fill="#D8D8D8"/>
<path d="M16.5999 317.8C18.4999 324.9 42.3999 349.5 45.4999 352.6C48.5999 356.4 53.2999 358.8 58.4999 359C58.5999 359 58.6999 359 58.7999 359H166.2C167.6 359 168.7 357.9 168.7 356.5C168.7 355.1 167.6 354 166.2 354H58.9999C52.0999 354 46.3999 348.4 46.3999 341.4C46.3999 334.5 51.9999 328.8 58.9999 328.8H166.1C167.5 328.8 168.6 327.7 168.6 326.3C168.6 324.9 167.5 323.8 166.1 323.8H165.6L166.1 322.7L121.2 298.7H30.8999C30.8999 298.8 11.9999 301.1 16.5999 317.8Z" fill="#0074FA"/>
<path opacity="0.2" d="M46.7998 335.9C46.7998 335.8 46.8998 335.7 46.8998 335.6C48.9998 331.5 53.1998 328.9 57.7998 328.8C58.1998 328.8 58.4998 328.8 58.8998 328.8H166C167.3 328.8 168.4 327.7 168.5 326.4H58.9998C53.0998 326.4 48.0998 330.5 46.7998 335.9Z" fill="black"/>
<path d="M58.0997 354H166.1V328.9H58.0997C53.3997 328.9 49.0997 331.5 46.9997 335.7C45.0997 339.3 45.0997 343.7 46.9997 347.3C49.0997 351.4 53.3997 354 58.0997 354Z" fill="white"/>
<path d="M166.1 336.5H59.4001C58.9001 336.5 58.6001 336.1 58.6001 335.7C58.6001 335.2 59.0001 334.9 59.4001 334.9H166V336.5H166.1Z" fill="#D8D8D8"/>
<path d="M166.1 342.3H59.4001C58.9001 342.3 58.6001 341.9 58.6001 341.5C58.6001 341 59.0001 340.7 59.4001 340.7H166V342.3H166.1Z" fill="#D8D8D8"/>
<path d="M166.1 348.1H59.4001C58.9001 348.1 58.6001 347.7 58.6001 347.3C58.6001 346.9 59.0001 346.5 59.4001 346.5H166V348.1H166.1Z" fill="#D8D8D8"/>
<path d="M58.0997 318.9H166.1V293.8H58.0997C53.3997 293.8 49.0997 296.4 46.9997 300.6C45.0997 304.2 45.0997 308.6 46.9997 312.2C49.0997 316.3 53.3997 318.9 58.0997 318.9Z" fill="white"/>
<path d="M18.0999 284.3C19.3999 289.1 30.6999 301.8 38.7999 310.5C38.8999 310.6 38.8999 310.7 38.9999 310.7C39.0999 310.8 39.1999 310.9 39.2999 311C41.7999 313.7 43.9999 316 45.3999 317.5L45.4999 317.6C46.3999 318.5 46.8999 319.1 47.0999 319.3L47.1999 319.4C50.1999 322.1 54.0999 323.7 58.2999 323.8C58.3999 323.8 58.4999 323.8 58.5999 323.8H166C167.4 323.8 168.5 322.7 168.5 321.3C168.5 319.9 167.4 318.8 166 318.8H58.9999C53.5999 318.8 49.0999 315.4 47.1999 310.7C46.6999 309.3 46.3999 307.8 46.3999 306.3C46.3999 305.1 46.5999 303.9 46.8999 302.8C48.3999 297.6 53.2999 293.8 58.8999 293.8H166C167.3 293.8 168.4 292.7 168.5 291.4V291.3C168.5 290.5 168.1 289.8 167.5 289.3C167.3 289.1 167 289 166.8 288.9L122.6 265.3H32.3999C32.3999 265.3 13.4999 267.5 18.0999 284.3Z" fill="#FD3F2C"/>
<path opacity="0.2" d="M46.3999 303.9C46.3999 304.1 46.3999 304.4 46.3999 304.6C46.3999 304.7 46.3999 304.7 46.3999 304.7C46.4999 304 46.6999 303.3 46.8999 302.7C48.3999 297.5 53.2999 293.7 58.8999 293.7H166C167.3 293.7 168.4 292.6 168.5 291.3H58.9999C51.9999 291.4 46.3999 297 46.3999 303.9Z" fill="black"/>
<path d="M166.1 301.4H59.4001C58.9001 301.4 58.6001 301 58.6001 300.6C58.6001 300.1 59.0001 299.8 59.4001 299.8H166V301.4H166.1Z" fill="#D8D8D8"/>
<path d="M166.1 307.2H59.4001C58.9001 307.2 58.6001 306.8 58.6001 306.4C58.6001 305.9 59.0001 305.6 59.4001 305.6H166V307.2H166.1Z" fill="#D8D8D8"/>
<path d="M166.1 313H59.4001C58.9001 313 58.6001 312.6 58.6001 312.2C58.6001 311.7 59.0001 311.4 59.4001 311.4H166V313H166.1Z" fill="#D8D8D8"/>
<path d="M42.6001 227.5V279.9C77.0001 290.2 111.4 290.2 145.6 279.9V227.5H42.6001Z" fill="#0055DB"/>
<path d="M96.3 241.7L0 221.6L96.3 195.6L188.5 221.6L96.3 241.7Z" fill="#0074FA"/>
<path d="M151.3 290.4C150.7 290.4 150.3 289.9 150.3 289.4V230.5L93.9 218.7C93.3 218.6 93 218 93.1 217.5C93.2 216.9 93.8 216.6 94.3 216.7L151.5 228.7C152 228.8 152.3 229.2 152.3 229.7V289.4C152.3 290 151.8 290.4 151.3 290.4Z" fill="#FDB900"/>
<path d="M94.6001 220.9C99.5707 220.9 103.6 219.467 103.6 217.7C103.6 215.933 99.5707 214.5 94.6001 214.5C89.6295 214.5 85.6001 215.933 85.6001 217.7C85.6001 219.467 89.6295 220.9 94.6001 220.9Z" fill="#0055DB"/>
<path d="M158.8 309.6C158.2 309.9 157.6 310.1 157 310.3C156.6 310.4 156.2 310.6 155.8 310.7C154.8 311 153.8 311.2 152.8 311.3C152.4 311.3 152 311.4 151.5 311.4C150.2 311.4 148.9 311.3 147.6 311C147.2 310.9 146.7 310.8 146.3 310.7C145.4 310.4 144.5 310.1 143.6 309.7C143.2 309.5 143 309.1 143.1 308.7L149 290.6C149.7 288.6 152.6 288.6 153.2 290.6L159.1 308.7C159.4 309 159.2 309.4 158.8 309.6Z" fill="#FDB900"/>
<path d="M147.6 311C147.2 310.9 146.7 310.8 146.3 310.7L147.3 306.5L147.6 311Z" fill="#FF9B00"/>
<path d="M157 310.3C156.6 310.4 156.2 310.6 155.8 310.7L154.8 301.5L157 310.3Z" fill="#FF9B00"/>
<path d="M152.8 311.3C152.4 311.3 152 311.4 151.5 311.4L151.8 305.8L152.8 311.3Z" fill="#FF9B00"/>
<path d="M154.5 290.1C154.5 291.9 153 293.4 151.2 293.4C149.4 293.4 147.9 291.9 147.9 290.1C147.9 288.3 149.4 286.8 151.2 286.8C153 286.8 154.5 288.3 154.5 290.1Z" fill="#FF9B00"/>
<path d="M316.8 361C316.8 361 318.7 367.9 320.5 369.3C322.3 370.8 327.8 378 333.2 379.1C338.6 380.2 340.7 374.5 334.1 369.1C328.8 364.7 324.2 357.8 324.2 357.8C324.2 357.8 321.5 360.6 316.8 361Z" fill="white"/>
<path d="M276.8 234.2C276.8 234.2 289.9 249.8 295.3 252.3C297.7 253.4 300.1 253.8 301.8 253.9C302.4 253.9 303.9 253.8 304 253.8C310.5 253 318.2 251 327.7 247.1L326.3 242.7C326.3 242.7 320.5 243.9 313.5 244.4C310.9 244.6 304.9 244.9 302.7 245.2C302.2 245 301.6 244.7 301.1 244.4C291.4 239.1 284.9 228.5 284.9 228.5C281.9 229.6 278.4 231.8 276.8 234.2Z" fill="#C9122E"/>
<path d="M326.2 242.3C326.2 242.3 327.5 238.9 329.3 238C331.1 237 336.3 233.7 337.4 234.7C338.5 235.7 338.3 240.6 333.6 244.6C330.7 247.2 327.7 247.1 327.7 247.1L326.2 242.3Z" fill="#FBB285"/>
<path d="M337.7 237.8L330.1 244.9C329.8 245.2 329.3 245.2 328.9 245.1L324.2 242.8C324.1 242.7 324 242.6 323.9 242.5L323.7 241.7L324.9 241.2L336.9 236.6L337.5 236.4L337.7 237.2V237.3C337.9 237.5 337.9 237.6 337.7 237.8Z" fill="#131E30"/>
<path d="M328.7 244.3L324 242C323.6 241.8 323.6 241.5 323.9 241.2L331.5 234.1C331.8 233.8 332.3 233.8 332.7 233.9L337.4 236.2C337.8 236.4 337.8 236.7 337.5 237L329.9 244.1C329.6 244.4 329.1 244.4 328.7 244.3Z" fill="#1E3C50"/>
<g opacity="0.2">
<path opacity="0.2" d="M329.3 243L325.7 241.2C325.3 241 325.3 240.7 325.6 240.4L331.5 234.9C331.8 234.6 332.3 234.6 332.7 234.7L336.3 236.5C336.7 236.7 336.7 237 336.4 237.3L330.5 242.8C330.2 243.1 329.6 243.2 329.3 243Z" fill="white"/>
</g>
<path d="M329.2 236.3C329.2 236.3 330.3 236.5 330.4 237.4C330.5 238.3 329.5 238 328.9 237.8C328.3 237.6 327.7 237.8 327.6 237.9C327.2 238.2 327.3 236 329.2 236.3Z" fill="#FBB285"/>
<path d="M334.1 241.4C334.1 241.4 335.8 238.6 337.1 237.1C338 236.1 338.4 237.6 337.8 238.6C337.2 239.6 336 241.7 334.1 241.4Z" fill="#FBB285"/>
<path d="M277.7 289.8C277.7 289.8 295.3 256.8 306.7 260.5C314.2 263 332.4 299.4 332.4 299.4C330.7 301.8 327.1 301.7 324.3 299.8C324.3 299.8 310.8 288.5 306 275.7C306 275.7 291.6 309 272.6 309C271.3 309.1 274.6 293.2 277.7 289.8Z" fill="#0055DB"/>
<path d="M324.3 299.9C324.3 299.9 323.8 300.6 323.8 301.9C323.8 303.3 323.9 308 323.9 308H346.8C346.8 308 346.9 304.4 344 302.5C341.1 300.6 336.6 302.4 332.4 299.4C332.4 299.5 331.3 300.5 324.3 299.9Z" fill="white"/>
<path d="M267.7 218C267.7 218 259.5 218 255.7 221.4C252 224.8 255.5 231.7 259.6 232.6C263.7 233.5 276.4 232 277.7 229.8C279 227.6 278.1 218.2 267.7 218Z" fill="#FD3F2C"/>
<path d="M254.7 291.8L250.7 266L251.6 230.4L261.2 227.2L261.7 227L263.8 226.3L265.5 225.7L275.6 227.1L277.2 227.3L277.8 227.4L285 228.4C285.1 251.3 282.9 256.2 287.1 274.8C286.1 283.9 281.5 306.7 254.7 291.8Z" fill="#FD3F2C"/>
<path d="M268.3 232.7C261.1 232.7 259.4 226.3 259.4 226.2C259.4 226.1 259.5 225.9 259.6 225.9C259.7 225.9 259.9 226 259.9 226.1C260 226.3 261.5 232.1 268.3 232.2H268.4C268.5 232.2 268.7 232.3 268.7 232.5C268.7 232.6 268.6 232.8 268.4 232.8C268.4 232.7 268.4 232.7 268.3 232.7Z" fill="#C9122E"/>
<path d="M275.1 231.7C275 231.7 274.8 231.6 274.8 231.4C274.8 231.3 274.9 231.1 275.1 231.1C275.2 231.1 277.3 231 277.8 228.2C277.8 228.1 278 228 278.1 228C278.2 228 278.3 228.2 278.3 228.3C277.8 231.6 275.2 231.7 275.1 231.7Z" fill="#C9122E"/>
<path d="M263.5 267.8C263.5 267.8 262.3 276.8 264.7 281.2C264.7 281.2 276.6 282 285.3 278.6C285.3 278.6 283.1 272.3 283.1 266.2L263.5 267.8Z" fill="#C9122E"/>
<path d="M269.8 258.3C269.6 258.3 269.5 258.2 269.5 258C270.1 251.3 267.6 234.6 267.6 234.4C267.6 234.3 267.7 234.1 267.8 234.1C267.9 234.1 268.1 234.2 268.1 234.3C268.1 234.5 270.6 251.3 270 258C270.1 258.2 269.9 258.3 269.8 258.3Z" fill="white"/>
<path d="M278.6 257C278.4 257 278.3 256.9 278.3 256.7C278.9 250 276.3 233.1 276.3 233C276.3 232.9 276.4 232.7 276.5 232.7C276.6 232.7 276.8 232.8 276.8 232.9C276.8 233.1 279.4 250.1 278.8 256.8C278.9 256.9 278.7 257 278.6 257Z" fill="white"/>
<path d="M289.5 202.9C289.5 202.9 291.5 205.2 289.5 209.3C287.5 213.4 285.6 213.5 285.6 213.5C285.6 213.5 285.6 203.1 289.5 202.9Z" fill="#131E30"/>
<path d="M274.4 221.2L272.5 226.6L271.6 229.1C267.7 230.5 263.6 225.7 263.6 225.7L265.7 217C267.5 216.4 270.7 218.8 272.8 220.1C273.8 220.8 274.4 221.2 274.4 221.2Z" fill="#FBB285"/>
<path d="M274.4 221.2L272 228C267.6 226 267.4 218.6 267.4 218.6L272.7 220.2C273.8 220.8 274.4 221.2 274.4 221.2Z" fill="#F49365"/>
<path d="M288.7 210.2C288.6 210.4 288.6 210.6 288.5 210.8C288 212.5 287.3 214.4 286.6 216.2C286.4 216.6 286.3 217 286.1 217.3C286 217.6 285.8 218 285.7 218.3C285.4 219 285.1 219.6 284.8 220.3C284.6 220.7 284.4 221.2 284.2 221.6C284.1 221.9 283.9 222.2 283.7 222.4C283.2 223.2 282.5 223.9 281.7 224.4C279.8 225.6 277.2 225.9 275 224.8C273.2 223.9 271.2 222.9 269.3 221.8C269.2 221.7 269.1 221.7 269 221.6C267.5 220.7 266.2 219.8 265.1 219C265 218.7 264.9 218.5 264.8 218.2C264.1 215.8 263.9 213.4 264.1 210.9C264.2 209.9 264.3 208.9 264.5 207.9C264.5 207.8 264.5 207.7 264.5 207.7C265.8 202.9 267.3 198.3 267.3 198.3C274.3 193.2 288.3 199.6 289.2 205C289.6 206.2 289.3 208.1 288.7 210.2Z" fill="#FBB285"/>
<path d="M265 218.3C264.3 215.9 264.1 213.5 264.3 211C265 211.2 265.9 211.6 266.9 212.5C266.8 212.5 266.2 216 265 218.3Z" fill="#131E30"/>
<path d="M265.2 205.8C265.2 205.8 267.9 204.9 269.2 208.1L270.7 208.5C270.7 208.5 271.4 205.3 272.6 203.8C273.8 202.3 276.7 203.1 277.7 201.2C277.7 201.2 284.2 207.1 289.4 205.2C295.2 203.2 281.6 191.9 273.2 193.6C266.6 195.1 265.5 200.1 265.2 205.8Z" fill="#131E30"/>
<path d="M269.2 208.1C269.2 208.1 267.6 204.6 265.2 205.8C262.6 207 262.6 213.6 267 214.7L269.2 208.1Z" fill="#FBB285"/>
<path d="M282.5 195.6C282.5 195.6 286.7 197.5 291 196.8C295.6 196.1 295.7 204.8 290.3 205C284.9 205.2 282.5 195.6 282.5 195.6Z" fill="#131E30"/>
<path d="M279 296.1C279 296.1 300 303 308.6 311.3C317.2 319.5 324.1 357.9 324.1 357.9C322.9 360.6 320.3 361.3 316.8 361C316.8 361 304.9 339.6 300 322.4C300 322.4 243.1 311.8 254.7 291.8C255.7 290.1 270.9 293.9 279 296.1Z" fill="#0074FA"/>
<path d="M244.3 300.8C244.3 300.8 247.3 304.8 247 306.9C246.8 309 244.1 312.9 241.9 313.1C239.8 313.3 244.4 308.1 243.3 308.2C242 308.4 233.1 315.7 231.2 315.7C229.3 315.7 233.4 312.3 235 311.5C235 311.5 230.8 313.4 229.8 314.4C228.8 315.4 228.1 313.3 233 310.3C233 310.3 228.5 312.8 228.2 312.9C227.2 313 230 309.7 232.5 308.5C232.5 308.5 228.9 310.3 228.5 310.3C228 310.3 229.1 309.1 231.7 307.7C234.1 306.4 238 300.3 238 300.3L244.3 300.8Z" fill="#FBB285"/>
<path d="M251.5 230.5C251.5 230.5 241.5 249.7 239.3 269.7L238.2 300.1C238.2 300.1 239.2 302.3 244.3 300.8L247.9 272.6L251.8 256.8C251.8 256.8 254.7 239.4 251.5 230.5Z" fill="#C9122E"/>
<path d="M205.1 420.3C237.188 420.3 263.2 413.674 263.2 405.5C263.2 397.326 237.188 390.7 205.1 390.7C173.012 390.7 147 397.326 147 405.5C147 413.674 173.012 420.3 205.1 420.3Z" fill="#B7B7B7"/>
<path d="M157.6 329.2C165.7 331.6 172.7 333 183.3 330.8C184.6 325.6 190 308.8 190.8 300.8C191 298.9 190.5 295.1 189.9 293.3C188.6 289.1 184.8 284.3 175.9 284C165.5 283.6 159.7 293.6 159.9 304.8C160.1 311.4 158.2 325.2 157.6 329.2Z" fill="#131E30"/>
<path d="M207.5 372.4C190.2 349.1 183.2 323.3 183.2 323.3V345.8C183.2 345.8 198 370.5 203.1 376C205.1 376 207.5 375.1 207.5 372.4Z" fill="#FF9B00"/>
<path d="M176.2 379.7C176.2 379.7 200.5 368.9 211.5 371.6C222.5 374.3 246.8 399.4 246.8 399.4C247.1 402.2 245.3 404.1 242.3 405.5C242.3 405.5 222.3 393.5 210 381.7C210 381.7 188.9 393.1 177.3 389.5C176.3 389.1 173.3 382.9 176.2 379.7Z" fill="#0055DB"/>
<path d="M242.1 405.4C242.1 405.4 242.3 406.1 243.3 407C244.3 407.8 247.9 410.5 247.9 410.5L261.5 393.5C261.5 393.5 258.9 391.3 255.8 392.3C252.7 393.3 251.4 397.7 246.6 399.1C246.6 399.1 246.7 400.6 242.1 405.4Z" fill="#E6E6E6"/>
<path d="M176.5 316.9L176 319.5L175.5 322.4L175.1 324.9C173.6 325.7 171.9 325.5 170.4 325C168.4 324.3 166.8 323 166.8 323V322.8L166.9 321.8L167.4 315.4L167.5 314.1C168.3 313.7 169.6 314 170.9 314.5C172.2 315 173.6 315.7 174.7 316.2C175.7 316.6 176.5 316.9 176.5 316.9Z" fill="#FBB285"/>
<path d="M176.5 316.9L175.5 322.4C171.9 321.1 169.4 315.5 169.4 315.5L174.8 316.1C175.7 316.6 176.5 316.9 176.5 316.9Z" fill="#F49365"/>
<path d="M182.3 319.3C180.2 320 178 319.9 176 319.5C174.1 319.1 172.2 318.3 170.6 317.5C169.3 316.8 168.2 316.1 167.4 315.5C166.7 315 166.1 314.5 165.7 314.2C165.3 313.8 165 313.6 165 313.6C165 313.6 164.9 312.2 164.9 310.2C164.9 308.1 165.1 305.2 165.6 302.6C166.2 299.5 167.4 296.6 169.5 295.7H172.9L189.1 295.8C189.1 295.8 189.1 296 189.1 296.5C189.2 297.5 189.2 299.3 189.2 301.6C189.2 301.8 189.2 301.9 189.2 302.1C189 308.4 187.8 317.6 182.3 319.3Z" fill="#FBB285"/>
<path d="M166.8 316.8C166.4 316.4 165 313.5 165 313.5C165 313.5 164.9 312.1 164.9 310.1L166.4 310.9C166.4 310.9 168.4 315.6 166.8 316.8Z" fill="#131E30"/>
<path d="M168.3 304.5C168.3 304.5 166.3 301.2 164 303C161.5 305 162.6 312 167.6 312L168.3 304.5Z" fill="#FBB285"/>
<path d="M189.2 296.4C189.2 298.5 185.5 300.6 172.1 300.7C172.1 300.7 172.1 306.9 169.5 306.3C168.9 306.2 168.3 302.6 165.7 302.5C166.3 299.4 167.5 296.5 169.6 295.6L189.2 295.8C189.1 295.7 189.2 296 189.2 296.4Z" fill="#131E30"/>
<path d="M173.4 296.3C173.4 296.3 171.8 305.5 170.9 314.5C170.8 315.5 170.7 316.5 170.6 317.5C170.4 319.8 168.7 322.4 166.8 322.8L167.4 315.4C166.7 314.9 166.1 314.4 165.7 314.1C165.3 313.7 165 313.5 165 313.5C165 313.5 164.9 312.1 164.9 310.1C164.9 308 165.1 305.1 165.6 302.5C166.2 299.4 167.4 296.5 169.5 295.6H172.9C173.3 295.9 173.4 296.3 173.4 296.3Z" fill="#131E30"/>
<path d="M156.3 381.6C156.3 381.6 186.6 379 197.8 380.5C209 382 235.8 404.5 235.8 404.5C236.4 407.2 234.8 409.3 232 411C232 411 210.9 401.2 197.4 390.7C197.4 390.7 174.2 402.6 162.1 401.3C152.6 400.2 153.8 385.6 156.3 381.6Z" fill="#0074FA"/>
<path d="M231.8 411C231.8 411 232.1 411.7 233.2 412.4C234.3 413.1 238.1 415.4 238.1 415.4L249.9 397.1C249.9 397.1 247.1 395.2 244.1 396.5C241.1 397.8 240.3 402.4 235.7 404.2C235.6 404.3 235.9 405.7 231.8 411Z" fill="white"/>
<path d="M182.4 360.7C181.9 368.6 183.4 373.2 185.7 380C172.3 384.8 166.2 386.6 155.1 384.8C154.7 378.3 153.6 367 153.8 360.1C154.4 339.8 156.7 326.8 156.7 326.8L162.3 324.6L168 322.4L177.7 322.9L179.7 323L183.2 323.2C183.2 323.2 183.6 333.1 186.7 341.6C189.2 348.5 186.3 349.9 184.8 351.5C184.7 351.6 184.7 351.6 184.6 351.7C184.4 352 184.2 352.2 184.1 352.5C184.1 352.6 184 352.7 184 352.8C183.9 353.1 183.8 353.3 183.7 353.7C182.9 356.4 182.4 360.7 182.4 360.7Z" fill="#FDB900"/>
<path d="M184.7 351.6C184.6 351.7 184.6 351.7 184.5 351.8C184.3 352.1 184.1 352.3 184 352.6C184 352.7 183.9 352.8 183.9 352.9C181.5 354 176.3 355.7 169.4 355.7C169.1 355.7 168.8 355.7 168.5 355.7C168.3 355.7 168.1 355.5 168.1 355.3C168.1 355.1 168.3 354.9 168.5 354.9C177.2 355.1 183.3 352.3 184.7 351.6Z" fill="#FF9B00"/>
<path d="M177.6 323C177.2 326.7 177.3 332.8 172.7 332.9C167.2 333 163.5 327.1 162.2 324.7L167.9 322.5L177.6 323Z" fill="#FBB285"/>
<path d="M197.2 375.2C190.1 371.2 174.9 362.4 174.9 362.4C174.9 362.4 166.4 351.9 156.7 326.9C156.7 326.9 151.8 331.3 154.6 344.6C157.5 357.9 169.8 370.2 169.8 370.2C169.8 370.2 186.4 378.5 193.8 379L197.2 375.2Z" fill="#FF9B00"/>
<path d="M226.5 378.9L178.1 383.7C177 383.8 176.1 383 176 382V381.9C175.9 380.8 176.7 379.9 177.7 379.8L226.1 375C227.2 374.9 228.1 375.7 228.2 376.7V376.8C228.3 377.9 227.5 378.8 226.5 378.9Z" fill="#E6E6E6"/>
<path d="M228.4 378.7L185.7 382.9L196.3 358.4L239 354.2L228.4 378.7Z" fill="white"/>
<path d="M225.7 379L183 383.1L193.7 358.6L196.3 358.4L185.7 382.9L225.7 379Z" fill="#E6E6E6"/>
<path opacity="0.5" d="M215.6 368.2C215.8 369.7 214.7 371 213.2 371.2C211.7 371.4 210.4 370.3 210.2 368.8C210 367.3 211.1 366 212.6 365.8C214.1 365.6 215.5 366.7 215.6 368.2Z" fill="#1E3C50"/>
<path d="M146.3 93.3L148.1 41.2C148.1 41.2 143.5 40 137.7 39.3C137.3 39.3 137 39.2 136.6 39.2C133 38.9 129 38.8 125.5 39.4L125 39.5L113.5 41.5L114.7 93.3H146.3Z" fill="#FD3F2C"/>
<path d="M135.1 31.6001V39.4001C135 39.5001 134.8 39.5001 134.7 39.6001C131.9 40.7001 129.2 40.7001 126.5 39.4001V31.6001H135.1Z" fill="#FBB285"/>
<path d="M135.1 33.5V39.4C135 39.5 134.8 39.5 134.7 39.6C131.5 39.3 128.4 37.6 126.5 36.3V33.5H135.1Z" fill="#F49365"/>
<path d="M121 18.8001C121 18.8001 120 16.6001 118.1 16.1001C116.2 15.7001 116.3 20.4001 117.4 23.9001C118.6 27.4001 121.5 26.0001 121.5 26.0001L121 18.8001Z" fill="#F49365"/>
<path d="M140.399 18.8001C140.399 18.8001 141.399 16.6001 143.299 16.1001C145.199 15.7001 145.099 20.4001 143.999 23.9001C142.799 27.4001 139.899 26.0001 139.899 26.0001L140.399 18.8001Z" fill="#F49365"/>
<path d="M130.7 35.1001C124.9 35.1001 120.2 28.9001 120.2 23.4001V11.1001H141.1V23.4001C141.2 28.9001 136.5 35.1001 130.7 35.1001Z" fill="#FBB285"/>
<path d="M120.3 20.0001C120.3 20.0001 116.7 14.6001 119.2 11.0001C119.2 11.0001 117.7 7.90014 119.2 5.00014C120.7 2.10014 127.2 -1.29986 136.2 0.400143C145.2 2.20014 143.5 8.80014 142.4 10.6001C142.4 10.6001 144.6 14.7001 141.3 19.9001C141.3 19.9001 139.3 17.2001 139.9 11.5001C139.9 11.5001 129.9 14.4001 121.8 10.9001C121.7 11.1001 122.8 17.7001 120.3 20.0001Z" fill="#131E30"/>
<path d="M113.4 41.5C113.4 41.5 105.2 53.2 102.1 63C102.1 63 106.4 68.1 109.2 69.1L114.4 55.3C114.5 55.3 117 47.3 113.4 41.5Z" fill="#C9122E"/>
<path d="M109.2 69.2C109.2 69.2 113.1 75.7 120.4 87L116.3 89.9L102.9 74.9C101 73.2 99.9999 70.6 100.6 68.1L102.1 63C102.1 63 107.5 65.1 109.2 69.2Z" fill="#C9122E"/>
<path d="M148.1 41.2002C148.1 41.2002 156.3 52.9002 159.4 62.7002C159.4 62.7002 155.1 67.8002 152.3 68.8002L147 55.3002C147 55.3002 144.4 47.0002 148.1 41.2002Z" fill="#C9122E"/>
<path d="M152.2 68.9002C152.2 68.9002 148.3 75.4002 141 86.7002L145.1 89.6002L158.5 74.6002C160.4 72.9002 161.4 70.3002 160.8 67.8002L159.3 62.7002C159.4 62.8002 154 64.8002 152.2 68.9002Z" fill="#C9122E"/>
<path d="M130.7 105C130.6 103.7 130.8 102.5 131 101.2C131.8 96.7 134.4 87.7 142.1 88.7C152.3 90.1 149.1 109.4 149.1 109.4L143.1 156.9C140.8 157.2 138.4 157.2 135.8 156.9C135.9 156.9 133.2 129.3 130.7 105Z" fill="#FF9B00"/>
<path d="M100.2 88.6003C100.2 88.6003 109.7 102.7 120.3 108.3C131.6 114.2 136.6 103.2 136.6 103.2C136.6 103.2 111.5 85.4003 100.2 88.6003Z" fill="#FF9B00"/>
<path d="M146.1 83.7003C146.1 83.7003 146.8 92.7003 144.1 95.3003C141.4 97.9003 124.9 98.0003 119.3 96.3003C113.8 94.6003 114.7 83.3003 114.7 83.3003L146.1 83.7003Z" fill="#FDB900"/>
<path d="M149.8 85.8003H111L107.4 64.8003C107.1 63.0003 108.5 61.3003 110.3 61.3003H150.4C152.2 61.3003 153.6 63.0003 153.3 64.8003L149.8 85.8003Z" fill="white"/>
<path d="M146.7 90.3003H114.1C112.4 90.3003 111 88.9003 111 87.2003V85.8003H149.9V87.2003C149.8 88.9003 148.4 90.3003 146.7 90.3003Z" fill="#E6E6E6"/>
<path opacity="0.5" d="M130.8 77.8005C132.678 77.8005 134.2 76.2783 134.2 74.4005C134.2 72.5227 132.678 71.0005 130.8 71.0005C128.922 71.0005 127.4 72.5227 127.4 74.4005C127.4 76.2783 128.922 77.8005 130.8 77.8005Z" fill="#1E3C50"/>
<path d="M168.7 109.8C166.7 111.8 164.1 111.8 161.6 110.3C160.5 109.7 159 108.8 157.5 108C155.5 106.9 153.7 106 153.7 106L156 100.7C156 100.7 157.4 100.7 159.4 100.7C161.1 100.7 163.2 100.6 165.2 100.3C169.6 99.7999 171.7 98.6999 172.2 100.4C172.8 102.2 170.8 107.8 168.7 109.8Z" fill="#1E3C50"/>
<path d="M113.8 77.8C113.8 77.8 106.2 73.2 99.6999 77.7C93.2999 82.2 100.1 90.6 107.1 93.5C114.1 96.4 155.7 107.9 155.7 107.9C156.4 106.4 157.1 103.6 157.7 100.8C157.7 100.8 145.3 93.8 138.4 89.3C122.6 79 113.8 77.8 113.8 77.8Z" fill="#FDB900"/>
<path d="M143.2 156.9C143.2 156.9 147.5 163.5 150.1 169.2C152.7 174.9 150.2 176.7 146.4 176.4C140.2 176 135.3 161.2 135.3 161.2L135.9 156.8C135.8 156.9 137.3 157 143.2 156.9Z" fill="#1E3C50"/>
<path d="M328.3 64.1001C330.4 60.6001 333.9 56.8001 332.4 52.7001C332.3 52.5001 332.3 52.4001 332.2 52.2001C328.1 40.7001 318.2 32.9001 307.8 37.4001C299 41.2001 296.9 47.6001 297.3 52.4001C297.4 54.4001 298.7 58.1001 299.8 59.8001C300.7 61.2001 301.5 62.6001 302.4 63.9001C304.9 67.9001 308.8 70.6001 313.2 71.6001C318.6 69.9001 323.6 67.2001 328.3 64.1001Z" fill="#131E30"/>
<path d="M324.876 44.8474C330.278 42.5924 332.829 36.3849 330.574 30.9826C328.319 25.5804 322.112 23.029 316.709 25.2841C311.307 27.5391 308.756 33.7466 311.011 39.1489C313.266 44.5511 319.473 47.1025 324.876 44.8474Z" fill="#131E30"/>
<path d="M274.5 92.2002C274.5 92.2002 285.1 105.2 308.5 108C312.2 103.9 316.3 94.2002 319.1 86.1002C320.1 83.1002 320.2 81.3002 319.3 79.5002C318.4 77.7002 316.9 76.2002 315.1 75.4002C314.7 75.2002 314.3 75.2002 313.9 76.0002C313.1 77.8002 312.2 79.8002 311.2 81.9002C308.3 88.1002 306 93.7002 304.6 97.4002C304.5 97.3002 298.9 95.0002 291 94.1002C283.2 93.2002 276.9 88.2002 276.9 88.2002L274.5 92.2002Z" fill="#0055DB"/>
<path d="M319 108C319.1 103.3 319.3 106.3 318.5 100.7C318.5 100.5 318.4 100.3 318.4 100C318.3 99.9004 318.3 99.7004 318.2 99.6004C316.9 97.4004 316.3 96.1004 315.8 94.5004C314.4 89.4004 315.5 86.2004 315.8 83.0004C315.5 81.5004 314.5 76.5004 314.1 75.0004L320.6 72.5004L322 72.0004H322.1L323.5 71.5004H323.6C326.8 70.3004 330.1 69.8004 333.5 70.0004C333.7 70.0004 333.9 70.0004 334.2 70.1004L336.7 70.3004H336.8L338.4 70.4004L347.7 71.2004L350.4 108.1C340 108 328.9 108 319 108Z" fill="#0074FA"/>
<path d="M338.4 70.2003C335.4 76.3003 327.9 83.1003 324.1 81.0003C321.8 79.7003 320.8 75.5003 320.7 72.4003L322.1 71.9003H322.2L323.6 71.4003H323.7C326.9 70.2003 330.2 69.7003 333.6 69.9003C333.7 69.9003 333.8 69.9003 333.9 69.9003C334 69.9003 334.1 69.9003 334.2 69.9003L336.7 70.1003H336.8L338.4 70.2003Z" fill="#FBB285"/>
<path d="M318.4 100C318.4 100.2 318.5 100.5 318.5 100.7C320.1 101 325.2 101.8 333.8 99.7001C334.9 99.4001 336.1 99.1001 337.3 98.8001C337.6 98.7001 337.7 98.5001 337.6 98.2001C337.5 98.0001 337.3 97.8001 337 97.9001C324.6 101.6 318.3 99.7001 318.2 99.7001C318.3 99.7001 318.4 99.9001 318.4 100Z" fill="#C9122E"/>
<path d="M320.5 68.1002L322 70.5002L323.7 73.2002L325.2 75.6002C327 75.8002 328.7 74.9002 330 73.8002C331.7 72.3002 332.8 70.3002 332.8 70.3002L329.1 62.9002L328.4 61.6002C327.4 61.5002 326.3 62.3002 325.1 63.4002C324 64.4002 322.9 65.7002 321.9 66.6002C321.1 67.5002 320.5 68.1002 320.5 68.1002Z" fill="#FBB285"/>
<path d="M320.5 68.1003L323.7 73.2003C326.8 70.4003 327.1 63.8003 327.1 63.8003L321.9 66.6003C321.1 67.5003 320.5 68.1003 320.5 68.1003Z" fill="#F49365"/>
<path d="M330.7 60.0004C330.7 60.0004 330.5 60.3004 330.2 60.9004C329.9 61.4004 329.5 62.1004 329 63.0004C328.4 64.0004 327.5 65.2004 326.5 66.4004C325.2 67.9004 323.7 69.4004 321.9 70.6004C320 71.9004 317.8 72.8004 315.4 73.0004C309.2 73.5004 304.2 64.8004 301.4 58.4004C301.3 58.2004 301.2 58.0004 301.2 57.9004C300.2 55.6004 299.5 53.7004 299.2 52.7004C299 52.2004 299 52.0004 299 52.0004L315.3 45.3004L318.7 43.9004C320.7 44.0004 322.7 45.6004 324.3 47.8004C324.4 48.0004 324.6 48.1004 324.7 48.3004C324.8 48.4004 324.8 48.5004 324.9 48.6004C325.1 48.9004 325.3 49.1004 325.4 49.4004C325.5 49.6004 325.6 49.7004 325.7 49.9004C326 50.4004 326.3 50.8004 326.5 51.3004C327.6 53.2004 328.5 55.2004 329.2 56.8004C330.2 58.5004 330.7 60.0004 330.7 60.0004Z" fill="#FBB285"/>
<path d="M323.7 52.2002C323.7 52.2002 324.4 48.1002 327.4 49.0002C330.7 50.0002 332.5 57.6002 327.4 59.5002L323.7 52.2002Z" fill="#FBB285"/>
<path d="M323.6 53.4002C324.5 56.2002 324.1 60.6002 324.1 60.6002C322.3 56.5002 320.4 53.5002 320 53.0002C319 51.6002 318.4 50.0002 318.4 50.0002C304.8 55.3002 300.3 54.7002 299.4 52.6002C299.2 52.1002 299.2 51.9002 299.2 51.9002L319 43.7002C321.5 43.8002 323.8 46.2002 325.7 49.1002C323.8 50.0002 323.7 52.1002 323.6 53.4002Z" fill="#131E30"/>
<path d="M304.6 94.6001C304.6 94.6001 316.2 104.3 339.7 107.1C343.4 103 347.5 93.3001 350.3 85.2001C351.9 80.4001 351 75.0001 347.8 71.1001C346.8 71.9001 345.9 73.3001 345.1 75.1001C344.3 76.9001 343.4 78.9001 342.4 81.0001C339.5 87.2001 337.2 92.8001 335.8 96.5001C335.7 96.4001 330.1 94.1001 322.2 93.2001C314.4 92.3001 306.9 89.8001 306.9 89.8001L304.6 94.6001Z" fill="#0055DB"/>
<path d="M306.8 89.7004C306.8 89.7004 300.6 84.3004 297.2 84.7004C293.8 85.1004 291.4 88.2004 291.1 90.6004C290.9 93.0004 293.9 92.7004 296.5 92.1004C299.1 91.5004 304.5 94.6004 304.5 94.6004C304.5 94.6004 306.5 92.6004 306.8 89.7004Z" fill="#FBB285"/>
<path d="M269.8 78.4001L281.8 107.9C282.2 108.9 283.2 109.6 284.4 109.6H302.4C304.4 109.6 305.7 107.6 305 105.8L293 76.3001C292.6 75.3001 291.6 74.6001 290.4 74.6001H272.4C270.4 74.6001 269 76.6001 269.8 78.4001Z" fill="#E6E6E6"/>
<path d="M269.8 78.4001L281.8 107.9C282.2 108.9 283.2 109.6 284.4 109.6H299C301 109.6 302.3 107.6 301.6 105.8L289.6 76.3001C289.2 75.3001 288.2 74.6001 287 74.6001H272.4C270.4 74.6001 269 76.6001 269.8 78.4001Z" fill="white"/>
<path opacity="0.5" d="M281.6 93.1002C282.2 94.7002 284 96.0002 285.7 96.0002C287.4 96.0002 288.1 94.7002 287.5 93.1002C286.9 91.5002 285.1 90.2002 283.4 90.2002C281.7 90.2002 281 91.5002 281.6 93.1002Z" fill="#1E3C50"/>
<path d="M272.9 89.9001C272.9 89.9001 271.6 86.9001 273 86.1001L274.2 89.1001C274.2 89.1001 276.8 86.7001 278.7 87.9001C280.5 89.1001 283.5 95.4001 282.6 97.1001C281.7 98.8001 276.5 100.3 274.7 98.2001C272.8 96.1001 272.2 91.9001 272.9 89.9001Z" fill="#FBB285"/>
<path d="M404.9 406.2C429.753 406.2 449.9 401.185 449.9 395C449.9 388.814 429.753 383.8 404.9 383.8C380.047 383.8 359.9 388.814 359.9 395C359.9 401.185 380.047 406.2 404.9 406.2Z" fill="#B7B7B7"/>
<path d="M359.9 292.4C359.9 292.4 383.7 289.8 402 289.8C420.2 289.8 449.9 292.4 449.9 292.4C449.9 292.4 430.6 302.1 404.9 302.1C379.3 302.2 359.9 292.4 359.9 292.4Z" fill="#0055DB"/>
<path d="M384.421 264.04L370.558 265.065L378.303 369.781L392.165 368.756L384.421 264.04Z" fill="#FDB900"/>
<path d="M384.5 264L370.6 265L374.4 254.8L376.4 249.5L379.2 254.4L384.5 264Z" fill="#FBB285"/>
<path d="M391.608 361.109L377.746 362.134L378.306 369.714L392.169 368.689L391.608 361.109Z" fill="#1E3C50"/>
<path d="M391.5 374.9L380 375.8C379.3 375.8 378.8 375.4 378.7 374.7L378.3 369.8L392.2 368.8L392.6 373.7C392.6 374.3 392.1 374.8 391.5 374.9Z" fill="#FD3F2C"/>
<path d="M379.2 254.4L374.4 254.8L376.4 249.5L379.2 254.4Z" fill="#1E3C50"/>
<path d="M391.192 355.707L377.329 356.732L377.735 362.218L391.597 361.192L391.192 355.707Z" fill="#FF9B00"/>
<path d="M374.4 269.9L380.1 347.5C380.1 348.1 380.7 348.5 381.2 348.5C381.8 348.5 382.2 347.9 382.2 347.4L376.5 269.8C376.5 269.2 375.9 268.8 375.4 268.8C374.8 268.8 374.4 269.3 374.4 269.9Z" fill="#FF9B00"/>
<path d="M379.8 269.5L385.5 347.1C385.5 347.7 386.1 348.1 386.6 348.1C387.2 348.1 387.6 347.5 387.6 347L381.9 269.4C381.9 268.8 381.3 268.4 380.8 268.4C380.2 268.4 379.8 268.9 379.8 269.5Z" fill="#FF9B00"/>
<path d="M393.972 361.512L407.836 362.521L415.461 257.794L401.598 256.785L393.972 361.512Z" fill="#FDB900"/>
<path d="M393.9 361.5L407.8 362.5L402.5 372.1L399.8 377L397.8 371.7L393.9 361.5Z" fill="#FBB285"/>
<path d="M400.979 264.4L414.843 265.409L415.395 257.829L401.531 256.819L400.979 264.4Z" fill="#1E3C50"/>
<path d="M403.2 250.8L414.7 251.6C415.4 251.6 415.9 252.2 415.8 252.9L415.4 257.8L401.5 256.8L401.9 251.9C402 251.2 402.5 250.7 403.2 250.8Z" fill="#FD3F2C"/>
<path d="M397.8 371.7L402.5 372.1L399.8 377L397.8 371.7Z" fill="#1E3C50"/>
<path d="M400.984 264.334L400.585 269.819L414.449 270.829L414.848 265.343L400.984 264.334Z" fill="#FF9B00"/>
<path d="M404.7 357.1L410.3 279.5C410.3 278.9 409.9 278.4 409.3 278.4C408.7 278.4 408.2 278.8 408.2 279.4L402.6 357C402.6 357.6 403 358.1 403.6 358.1C404.2 358.1 404.7 357.7 404.7 357.1Z" fill="#FF9B00"/>
<path d="M399.3 356.7L404.9 279.1C404.9 278.5 404.5 278 403.9 278C403.3 278 402.8 278.4 402.8 279L397.2 356.6C397.2 357.2 397.6 357.7 398.2 357.7C398.8 357.7 399.3 357.3 399.3 356.7Z" fill="#FF9B00"/>
<path d="M413.489 365.167L427.069 368.13L449.455 265.545L435.875 262.582L413.489 365.167Z" fill="#FDB900"/>
<path d="M413.4 365.2L427 368.2L420.4 376.9L417 381.4L415.8 375.9L413.4 365.2Z" fill="#FBB285"/>
<path d="M434.227 270.026L447.808 272.99L449.428 265.565L435.848 262.601L434.227 270.026Z" fill="#1E3C50"/>
<path d="M438.3 256.9L449.6 259.4C450.2 259.5 450.7 260.2 450.5 260.8L449.5 265.6L435.9 262.6L436.9 257.8C437 257.2 437.6 256.8 438.3 256.9Z" fill="#FD3F2C"/>
<path d="M415.8 375.9L420.4 376.9L417 381.4L415.8 375.9Z" fill="#1E3C50"/>
<path d="M434.135 270.071L432.962 275.444L446.543 278.408L447.715 273.034L434.135 270.071Z" fill="#FF9B00"/>
<path d="M424.7 362.4L441.3 286.4C441.4 285.8 441.1 285.3 440.5 285.1C439.9 285 439.4 285.3 439.2 285.9L422.6 361.9C422.5 362.5 422.8 363 423.4 363.2C424 363.3 424.6 362.9 424.7 362.4Z" fill="#FF9B00"/>
<path d="M419.4 361.2L436 285.2C436.1 284.6 435.8 284.1 435.2 283.9C434.6 283.8 434.1 284.1 433.9 284.7L417.3 360.7C417.2 361.3 417.5 361.8 418.1 362C418.7 362.2 419.3 361.8 419.4 361.2Z" fill="#FF9B00"/>
<path d="M449.8 292.4L436.7 392.7C415.5 403.6 394.3 403.6 373.1 392.7L371.6 381.4L359.9 292.4C389.9 303.5 419.9 303.5 449.8 292.4Z" fill="#0074FA"/>
<path d="M449.8 292.4L436.7 392.7C415.5 403.6 394.3 403.6 373.1 392.7L371.6 381.4C371.6 381.4 394.4 394.7 413.4 383.7C434.1 371.7 449.6 293.7 449.8 292.4Z" fill="#0055DB"/>
</g>
<defs>
<clipPath id="clip0">
<rect width="450.5" height="451.4" fill="white"/>
</clipPath>
</defs>
</svg>
