<svg width="403" height="473" viewBox="0 0 403 473" fill="none" xmlns="http://www.w3.org/2000/svg">
<path d="M331.297 68.1948C329.773 68.1948 328.453 66.7741 328.453 65.0489V38.7655C328.453 37.0404 329.672 35.6196 331.297 35.6196C332.82 35.6196 334.141 37.0404 334.141 38.7655V65.0489C334.141 66.7741 332.922 68.1948 331.297 68.1948Z" fill="#00C7EA"/>
<path d="M343.281 55.0022H319.414C317.891 55.0022 316.57 53.5815 316.57 51.8563C316.57 50.1312 317.789 48.7104 319.414 48.7104H343.281C344.805 48.7104 346.125 50.1312 346.125 51.8563C346.023 53.683 344.805 55.0022 343.281 55.0022Z" fill="#00C7EA"/>
<path d="M45.7031 113.658C44.7891 113.658 44.0781 112.948 44.0781 112.034V98.6388C44.0781 97.7255 44.7891 97.0151 45.7031 97.0151C46.6172 97.0151 47.3281 97.7255 47.3281 98.6388V112.034C47.3281 112.948 46.6172 113.658 45.7031 113.658Z" fill="#FF4F00"/>
<path d="M52.4063 106.96H39C38.0859 106.96 37.375 106.25 37.375 105.337C37.375 104.423 38.0859 103.713 39 103.713H52.4063C53.3203 103.713 54.0313 104.423 54.0313 105.337C54.0313 106.25 53.3203 106.96 52.4063 106.96Z" fill="#FF4F00"/>
<path d="M23.5625 19.4842L12.2891 11.4673L24.8828 5.6829L37.4766 0L36.1562 13.8013L34.7344 27.5012L23.5625 19.4842Z" fill="#FF4F00"/>
<path d="M390.305 416.07C397.036 416.07 402.492 410.618 402.492 403.892C402.492 397.166 397.036 391.714 390.305 391.714C383.574 391.714 378.117 397.166 378.117 403.892C378.117 410.618 383.574 416.07 390.305 416.07Z" stroke="#FF4F00" stroke-miterlimit="10"/>
<path d="M357.805 390.09C357.805 397.701 351.609 403.79 344.094 403.79H13.7109C6.19531 403.892 0 397.701 0 390.09V167.239C0 159.628 6.19531 153.54 13.7109 153.54H344.094C351.711 153.54 357.805 159.73 357.805 167.239V390.09Z" fill="#222D5B"/>
<path d="M345.312 166.225H12.5938V392.526H345.312V166.225Z" fill="#160E33"/>
<path d="M210.336 403.892C210.336 403.892 208 438.395 237.148 455.85H121.773C150.82 438.395 148.586 403.892 148.586 403.892H210.336Z" fill="#251644"/>
<path d="M257.258 467.317C256.547 460.822 251.164 455.85 244.461 455.85H114.461C107.859 455.85 102.375 460.924 101.664 467.317H257.258Z" fill="#222D5B"/>
<path d="M143.406 153.54H13.7109C6.09375 153.54 0 159.73 0 167.239V390.09C0 397.701 6.19531 403.79 13.7109 403.79H278.688L143.406 153.54Z" fill="#007DBD"/>
<path d="M239.078 147.553C243.649 156.28 247.914 165.718 248.321 175.663C249.133 197.075 237.25 216.356 243.243 237.566C245.782 246.597 251.164 252.382 256.852 259.181C263.352 266.893 267.313 275.621 269.446 285.566C271.578 295.511 271.985 307.993 264.164 315.503C257.055 322.2 245.375 325.042 235.93 323.824C224.149 322.2 212.774 318.445 200.891 317.228C186.368 315.705 172.86 320.171 159.047 324.433C145.539 328.593 131.321 329.101 119.946 319.054C108.469 309.008 123.602 294.598 129.696 285.16C140.258 269.126 156.102 254.31 151.024 233.202C146.758 215.646 137.719 200.627 138.328 182.056C138.836 166.631 145.641 149.988 155.899 138.521C164.227 129.286 174.789 125.734 187.078 124.415C192.157 123.908 197.032 123.908 202.008 124.618C216.43 126.749 232.172 134.36 239.078 147.553Z" fill="#E9734F"/>
<path d="M231.765 143.798C236.234 153.54 239.179 164.804 239.179 175.459C239.179 195.755 230.648 222.546 209.726 232.796C199.367 237.87 193.883 238.479 183.32 234.724C174.383 231.578 163.719 226.605 155.594 220.618C131.625 203.062 128.476 172.618 135.383 154.047C140.156 141.159 154.273 123.704 169.914 121.776C197.539 118.529 218.664 115.383 231.765 143.798Z" fill="#E9734F"/>
<path d="M142.695 186.521C142.594 194.233 146.859 202.859 153.765 206.106C163.109 210.47 166.765 201.844 166.765 193.421C166.765 186.622 163.82 174.952 156.101 172.618C148.89 170.284 142.797 180.229 142.695 186.521Z" fill="#F5B49E"/>
<path d="M203.734 204.483H157.828V261.616H203.734V204.483Z" fill="#F5B49E"/>
<path d="M171.844 236.043C167.274 226.403 164.532 216.559 165.242 204.381H203.735V254.005C191.649 252.28 176.821 246.394 171.844 236.043Z" fill="#F1917C"/>
<path d="M125.328 392.526L95.2656 286.682L157.828 255.426L203.836 255.528L247.203 272.272L243.75 392.526H125.328Z" fill="#F5B49E"/>
<path d="M161.89 207.426C166.257 218.487 172.25 227.519 182.711 233.912C192.867 240.204 203.429 243.35 213.281 235.231C221.101 228.737 226.179 219.4 229.023 209.861C235.625 188.043 230.648 157.802 216.734 140.144C201.5 120.762 172.046 125.125 160.57 146.639C151.328 164.297 154.882 189.565 161.89 207.426Z" fill="#F5B49E"/>
<path d="M153.969 199.307C154.578 199.307 155.086 198.901 155.289 198.293C157.625 189.87 155.797 181.954 151.024 179.417C150.414 179.113 149.602 179.316 149.196 179.925C148.891 180.533 149.094 181.345 149.703 181.751C153.36 183.679 154.68 190.682 152.649 197.582C152.446 198.293 152.852 199.003 153.563 199.206C153.766 199.307 153.868 199.307 153.969 199.307Z" fill="#F1917C"/>
<path d="M146.961 188.652C147.165 188.652 147.266 188.652 147.469 188.55C149.5 187.739 152.141 187.231 153.461 188.043C154.071 188.449 154.883 188.246 155.29 187.637C155.696 187.028 155.493 186.216 154.883 185.81C151.938 183.984 147.672 185.608 146.454 186.115C145.743 186.419 145.438 187.13 145.743 187.84C145.946 188.347 146.454 188.652 146.961 188.652Z" fill="#F1917C"/>
<path d="M252.586 366.446L250.453 392.526H116.391L116.289 392.323C111.008 381.871 109.992 367.359 106.844 356.196C105.016 349.701 103.594 345.033 102.477 340.061C99.836 331.536 96.9923 322.708 96.6876 314.691C94.8595 311.24 92.7267 307.79 91.711 304.543C89.5782 297.642 87.3439 285.16 94.047 281.608C100.039 278.462 104 277.752 110.195 275.012C120.352 270.547 143.102 261.617 153.258 257.151C186.774 274.505 211.758 258.471 211.758 258.471L236.641 267.096L248.117 291.147C252.688 301.194 264.164 324.94 262.844 335.393C261.422 347.57 256.75 354.877 252.586 366.446Z" fill="#FCD592"/>
<path d="M214.602 181.65C214.704 184.086 216.024 186.014 217.446 185.912C218.868 185.811 219.985 183.781 219.883 181.346C219.782 178.91 218.461 176.982 217.039 177.083C215.516 177.185 214.399 179.215 214.602 181.65Z" fill="#22263D"/>
<path d="M182.914 183.477C183.015 185.912 184.336 187.84 185.757 187.739C187.179 187.637 188.296 185.608 188.195 183.172C188.093 180.737 186.773 178.809 185.351 178.91C183.929 179.012 182.812 181.041 182.914 183.477Z" fill="#22263D"/>
<path d="M205.055 202.555C205.157 202.555 205.157 202.555 205.258 202.555C208.914 202.048 211.86 200.525 213.282 198.293C214.094 197.075 214.297 195.857 213.891 194.741C213.688 194.132 213.079 193.219 210.438 189.566C208.711 187.231 205.969 183.375 205.258 182.056L209.727 173.735C210.032 173.126 209.829 172.314 209.219 171.908C208.61 171.603 207.797 171.806 207.391 172.415L202.618 181.143C202.618 181.244 202.516 181.346 202.516 181.447C202.211 182.462 202.719 183.477 208.204 191.088C209.524 192.914 211.047 195.045 211.25 195.553C211.352 195.857 211.25 196.365 210.844 196.872C210.438 197.481 208.914 199.409 204.649 199.917C203.938 200.018 203.43 200.728 203.532 201.439C203.836 202.048 204.446 202.555 205.055 202.555Z" fill="#F1917C"/>
<path d="M185.047 173.836C182.305 173.938 179.055 174.952 176.719 175.764C176.719 170.183 188.398 169.878 191.242 170.183C192.664 170.284 193.883 170.893 193.07 174.039C192.766 175.561 190.125 173.633 185.047 173.836Z" fill="#E9734F"/>
<path d="M216.633 172.009C219.274 171.806 222.727 172.415 225.164 173.024C224.555 167.443 212.977 168.559 210.032 169.066C208.61 169.371 207.493 170.081 208.61 173.126C209.219 174.648 211.555 172.415 216.633 172.009Z" fill="#E9734F"/>
<path d="M178.445 194.132C178.546 195.857 181.796 197.075 185.757 196.872C189.718 196.669 192.765 195.045 192.664 193.32C192.562 191.595 189.312 190.377 185.453 190.58C181.39 190.783 178.343 192.407 178.445 194.132Z" fill="#F1917C"/>
<path d="M213.382 192.102C213.484 193.827 216.734 195.045 220.695 194.842C224.656 194.639 227.703 193.016 227.601 191.29C227.5 189.565 224.25 188.347 220.39 188.55C216.328 188.855 213.281 190.377 213.382 192.102Z" fill="#F1917C"/>
<path d="M173.57 151.003C173.57 151.003 168.086 152.525 170.625 168.153C169.711 168.863 162.195 182.157 161.18 182.665C160.875 182.868 158.438 182.056 158.438 182.056C158.031 178.098 155.391 174.749 150.82 174.546C147.469 174.445 144.727 178.606 143.813 182.259C143.609 178.707 143.203 174.242 143.203 170.487C143.203 166.935 143.406 163.079 143.813 159.426C144.828 150.901 145.539 146.233 149.602 138.216C153.969 129.591 160.875 122.893 170.625 120.559C182.406 117.616 201.5 115.282 211.453 122.487C216.531 126.242 224.148 134.868 221.812 145.726C221.711 145.726 203.531 135.578 173.57 151.003Z" fill="#C86244"/>
<path d="M101.055 392.526H51.5938C52.4062 380.653 58.8047 301.092 92.3203 281.709C92.3203 281.709 130.711 298.555 118.117 341.684C118.117 341.684 115.578 367.156 101.055 392.526Z" fill="#FCD592"/>
<path d="M100.75 392.526C102.578 377 105.219 356.703 108.469 336.204C108.469 336.204 199.164 308.297 253.703 348.687L257.156 392.526H100.75Z" fill="#FCD592"/>
<path d="M187.078 266.995C195.812 266.995 203.734 264.661 211.148 259.993C211.758 259.587 211.961 258.775 211.555 258.166C211.148 257.557 210.336 257.354 209.726 257.76C201.297 263.138 192.562 265.168 182.203 264.153L180.578 263.95C173.266 263.24 161.18 262.124 156.609 257.861C156.101 257.354 155.289 257.354 154.781 257.963C154.273 258.47 154.273 259.282 154.883 259.79C160.062 264.661 172.25 265.777 180.375 266.589L182 266.792C183.625 266.995 185.351 266.995 187.078 266.995Z" fill="#22263D"/>
<path d="M228.922 392.526L204.953 313.676C204.953 313.676 203.227 272.475 236.133 266.995C236.133 266.995 246.289 268.72 266.906 279.984C266.906 279.984 287.219 298.048 306.211 392.526H228.922Z" fill="#FCD592"/>
<path d="M253.196 370.302C253.805 370.302 254.414 369.794 254.516 369.186C255.125 365.228 257.156 360.763 259.289 355.993C262.742 348.281 266.297 340.264 264.164 333.464C260.61 322.302 255.328 306.166 251.875 296.12C251.672 295.409 250.86 295.105 250.25 295.308C249.539 295.511 249.235 296.323 249.438 297.033C252.891 307.08 258.172 323.215 261.727 334.378C263.555 340.162 260.203 347.672 256.953 354.978C254.719 359.951 252.688 364.619 251.977 368.881C251.875 369.591 252.383 370.302 253.094 370.403C253.094 370.302 253.196 370.302 253.196 370.302Z" fill="#22263D"/>
<path d="M169.711 389.989C169.102 390.801 168.391 391.714 167.781 392.526H164.43C165.547 391.207 166.563 389.786 167.68 388.365C169.711 385.727 171.844 383.088 173.977 380.348C174.484 379.739 175.297 379.739 175.805 380.145C176.414 380.653 176.414 381.464 176.008 381.972C173.773 384.712 171.742 387.35 169.711 389.989Z" fill="#22263D"/>
<path d="M204.75 213.616C204.954 213.616 205.157 213.616 205.36 213.616C208.508 213.413 210.946 211.485 211.961 208.542C212.164 207.832 211.86 207.122 211.149 206.919C210.438 206.716 209.727 207.02 209.524 207.731C208.914 209.659 207.289 210.876 205.258 211.079C203.227 211.181 200.485 210.166 199.164 207.629C198.86 207.02 198.047 206.716 197.336 207.02C196.727 207.325 196.422 208.136 196.727 208.745C198.25 211.688 201.399 213.616 204.75 213.616Z" fill="#F1917C"/>
<path d="M103.797 384.408C103.594 386.945 103.289 389.685 102.984 392.526H100.344C100.648 389.583 100.953 386.843 101.156 384.205C103.187 360.966 108.367 338.234 113.953 314.995C114.156 314.285 114.867 313.879 115.578 313.98C116.289 314.183 116.695 314.894 116.594 315.604C110.906 338.741 105.727 361.372 103.797 384.408Z" fill="#22263D"/>
<path d="M178.446 133.751C171.438 137.607 167.782 143.899 169 151.713C171.235 165.616 172.657 179.62 174.993 193.421C177.125 205.802 181.899 217.269 185.352 229.244C191.852 251.367 195.204 284.246 180.68 304.441C171.946 316.517 158.438 313.879 146.86 320.475C142.086 323.113 137.719 328.289 135.079 332.957C132.54 337.524 133.352 348.686 130.102 351.325C119.743 341.684 119.54 317.43 122.586 305.05C127.868 283.84 150.415 277.65 157.219 258.064C163.922 238.58 149.805 222.546 139.852 207.629C131.118 194.639 129.493 175.053 134.469 160.136C139.852 143.798 153.563 129.996 169.711 124.212C185.25 118.63 207.086 120.457 216.024 135.984C218.157 139.637 221 141.362 221.61 145.624C213.586 130.808 193.579 125.43 178.446 133.751Z" fill="#E9734F"/>
<path d="M221.711 145.726C225.164 135.679 228.008 138.013 225.469 133.142C221 124.922 207.899 115.383 199.063 112.339C178.344 105.235 153.36 114.876 137.922 129.083C130 136.39 125.938 142.681 122.282 152.931C119.438 160.846 117.813 169.574 116.594 177.895C113.547 197.988 122.282 216.762 121.571 236.551C120.961 251.874 115.375 268.213 103.391 278.361C92.5238 287.595 75.6644 294.699 69.4691 308.399C63.4769 321.693 73.3284 341.177 88.2581 343.308C96.8909 344.627 106.946 336.915 113.344 332.044C125.227 322.911 129.086 309.008 137.821 297.439C145.946 286.784 160.571 281.304 165.141 268.111C171.641 249.54 162.399 231.781 156.508 214.428C148.078 189.464 144.422 152.119 171.032 136.39C181.696 130.098 194.188 129.59 205.969 132.736C215.313 135.273 220.289 138.724 221.813 148.161L221.711 145.726Z" fill="#E9734F"/>
<path d="M97.9063 153.743C97.7031 153.844 101.461 173.633 101.563 173.836C102.07 176.373 97.7031 175.764 96.5859 175.358C95.875 175.155 95.6719 174.14 94.5547 174.039C93.5391 173.937 92.3203 174.343 91.4063 174.648C91.4063 174.648 87.75 175.054 87.75 171.806L93.3359 153.844H97.9063V153.743Z" fill="#F7B033"/>
<path d="M98.3125 156.584C96.2813 156.889 94.3516 156.787 92.4219 156.077L93.1328 153.743H97.8047C97.9063 153.743 98.0078 154.859 98.3125 156.584Z" fill="#F08932"/>
<path d="M127.359 141.565L125.125 87.0698H241.313L236.539 141.565H127.359Z" fill="#02426D"/>
<path d="M127.359 141.565L126.547 121.269C129.797 126.546 134.875 130.909 140.969 132.127C146.555 133.243 152.242 132.736 157.828 132.736C165.445 132.736 172.961 133.243 180.578 133.142C184.438 133.142 188.297 132.939 192.156 132.431C193.984 132.228 195.914 131.823 197.539 130.909C200.688 129.083 202.617 126.038 203.633 122.588C206.07 114.469 205.156 105.438 204.953 97.0148C204.852 93.5645 204.445 90.2156 203.531 86.9683H241.313L236.539 141.463H127.359V141.565Z" fill="#1A3865"/>
<path d="M262.844 78.647L270.766 86.9684H95.6719C95.6719 86.9684 101.664 80.2707 103.289 78.647H262.844Z" fill="#012B4B"/>
<path d="M177.633 78.6471C177.633 78.3427 177.531 78.0382 177.531 77.7338C177.531 74.5879 180.07 72.1523 183.117 72.1523C186.266 72.1523 188.703 74.6894 188.703 77.7338C188.703 78.0382 188.703 78.3427 188.602 78.6471H177.633Z" fill="#F7B033"/>
<path d="M177.633 78.6469H103.391L95.6719 87.0698V152.017H94.8594V86.1564L102.477 77.3276H178.141L177.633 78.6469Z" fill="#F7B033"/>
<path d="M91.3047 151.104C91.3047 153.54 93.2344 155.468 95.6719 155.468C98.1094 155.468 100.039 153.54 100.039 151.104C100.039 148.669 98.1094 146.74 95.6719 146.74C93.3359 146.639 91.3047 148.669 91.3047 151.104Z" fill="#F7B033"/>
<path d="M15.9453 467.317H331.297" stroke="#1D103B" stroke-width="11.1558" stroke-miterlimit="10"/>
</svg>
