<?xml version="1.0" encoding="utf-8"?>
<!-- Generator: Adobe Illustrator 22.0.1, SVG Export Plug-In . SVG Version: 6.00 Build 0)  -->
<svg version="1.1" id="Capa_1" xmlns="http://www.w3.org/2000/svg" xmlns:xlink="http://www.w3.org/1999/xlink" x="0px" y="0px"
	 viewBox="0 0 590 202.6" style="enable-background:new 0 0 590 202.6;" xml:space="preserve">
<style type="text/css">
	.st0{fill:#3A0026;}
	.st1{fill-rule:evenodd;clip-rule:evenodd;fill:#FF132A;}
	.st2{fill:#FFFFFF;}
</style>
<g>
	<g>
		<g>
			<path class="st0" d="M475.6,42.6v10.4c-2.3,0.8-4.1,2.5-5.2,4.7l-4.5,9.5c-2.9,6.2-1.5,13.4,3.5,18.1l12.9,12.3v20.7
				c0,1.2,1,2.3,2.3,2.3h10.1c1.2,0,2.3-1,2.3-2.3c0-1.2-1-2.3-2.3-2.3h-7.9V96.6c0-0.6-0.3-1.2-0.7-1.6L472.5,82
				c-3.5-3.3-4.5-8.5-2.5-12.9l4.5-9.5c1.1-2.3,3.8-3.2,6-2.2l22.3,10.4c-3.1,4.2-8.9,5.8-13.8,3.5l-6.1-2.9c-1.1-0.5-2.5,0-3,1.1
				c-0.5,1.1,0,2.5,1.1,3l6.1,2.9c2.5,1.2,5.3,1.7,8.2,1.4c4.8,5.1,7.4,11.8,7.4,18.8c0,1.2,1,2.3,2.3,2.3s2.3-1,2.3-2.3
				c0-7.4-2.5-14.4-7-20.1c3.4-1.5,6.2-4.2,7.9-7.7c0,0,0,0,0,0c1.1,0.5,2.4,0.8,3.7,0.8c2,0,3.9-0.7,5.4-1.8c1.4,3,4.6,5.2,8.1,5.2
				c1.4,0,2.7-0.3,3.9-0.9c-0.6,4-1.6,7.7-2.7,11.6c-1.7,6.2-3.5,12.7-3.5,20.9V116H515c-1.2,0-2.3,1-2.3,2.3c0,1.2,1,2.3,2.3,2.3
				h10.1c1.2,0,2.3-1,2.3-2.3v-14.9c0-7.6,1.6-13.5,3.3-19.7c1.7-6.2,3.5-12.7,3.5-20.9V49.3c0-5-4-9-9-9c-2,0-3.9,0.7-5.4,1.8
				c-1.4-3-4.6-5.2-8.1-5.2c-2,0-3.9,0.7-5.4,1.8c-1.4-3-4.6-5.2-8.1-5.2c-2.7,0-5.1,1.2-6.8,3.1c-1.7-1.9-4.1-3.1-6.8-3.1
				C479.7,33.5,475.6,37.6,475.6,42.6L475.6,42.6z M520.7,49.3c0-2.5,2-4.5,4.5-4.5c2.5,0,4.5,2,4.5,4.5v13.5c0,2.5-2,4.5-4.5,4.5
				c-2.5,0-4.5-2-4.5-4.5V49.3z M507.2,45.9c0-2.5,2-4.5,4.5-4.5s4.5,2,4.5,4.5v13.5c0,2.5-2,4.5-4.5,4.5s-4.5-2-4.5-4.5V45.9z
				 M493.6,42.6c0-2.5,2-4.5,4.5-4.5c2.5,0,4.5,2,4.5,4.5v16.9c0,1.3,0.3,2.5,0.8,3.6l-9.8-4.6V42.6z M480.1,42.6
				c0-2.5,2-4.5,4.5-4.5s4.5,2,4.5,4.5v13.9l-6.7-3.1c-0.7-0.3-1.5-0.6-2.3-0.7V42.6z M480.1,42.6"/>
			<path class="st0" d="M507.2,15.5V7.4c0-1.2-1-2.3-2.3-2.3s-2.3,1-2.3,2.3v8.1c0,1.2,1,2.3,2.3,2.3S507.2,16.8,507.2,15.5
				L507.2,15.5z M507.2,15.5"/>
			<path class="st0" d="M485.7,22.9c1.1-0.6,1.4-2,0.8-3.1l-3.4-5.9c-0.6-1.1-2-1.4-3.1-0.8c-1.1,0.6-1.4,2-0.8,3.1l3.4,5.9
				C483.3,23.2,484.7,23.5,485.7,22.9L485.7,22.9z M485.7,22.9"/>
			<path class="st0" d="M467.5,33.8l-5.9-3.4c-1.1-0.6-2.5-0.3-3.1,0.8c-0.6,1.1-0.3,2.5,0.8,3.1l5.9,3.4c1.1,0.6,2.5,0.3,3.1-0.8
				C469,35.8,468.6,34.5,467.5,33.8L467.5,33.8z M467.5,33.8"/>
			<path class="st0" d="M527.1,22.1l3.4-5.9c0.6-1.1,0.3-2.5-0.8-3.1c-1.1-0.6-2.5-0.3-3.1,0.8l-3.4,5.9c-0.6,1.1-0.3,2.5,0.8,3.1
				C525.1,23.5,526.5,23.2,527.1,22.1L527.1,22.1z M527.1,22.1"/>
			<path class="st0" d="M544.5,37.8l5.9-3.4c1.1-0.6,1.4-2,0.8-3.1c-0.6-1.1-2-1.4-3.1-0.8l-5.9,3.4c-1.1,0.6-1.4,2-0.8,3.1
				C542.1,38,543.4,38.4,544.5,37.8L544.5,37.8z M544.5,37.8"/>
			<path class="st0" d="M507.2,118.3c0,1.2-1,2.3-2.3,2.3s-2.3-1-2.3-2.3c0-1.2,1-2.3,2.3-2.3S507.2,117,507.2,118.3L507.2,118.3z
				 M507.2,118.3"/>
		</g>
	</g>
	<g>
		<g>
			<path class="st0" d="M74.8,102.6l1.8-12.5l4.9-19.2H89l-0.5,19.2l-1.8,12.5H74.8z M81,59.5c0.5-3.6,3.4-6.1,6.9-6.1
				s5.7,2.5,5.2,6.1s-3.3,6-6.9,6C82.7,65.5,80.5,63,81,59.5z"/>
			<path class="st0" d="M139.7,42.7l-1.5,10.2h-24l-1.5,10.9h22.2L133.4,74h-22.2l-2.5,17.7H95.8l6.9-49H139.7z"/>
			<path class="st0" d="M184.7,42.7l-1.4,10.2h-26.2l-1.3,9.2h23.6L178,72.2l-23.6,0.1l-1.3,9.2H180l-1.4,10.2h-39.8l6.9-49H184.7z"
				/>
			<path class="st0" d="M206.3,42.7l-5.4,38.1h21l-1.5,10.9h-33.9l6.9-49H206.3z"/>
			<path class="st0" d="M246.1,42.7l-6.9,49h-12.9l6.9-49H246.1z"/>
			<path class="st0" d="M296.3,42.7l-1.2,8.4l-30.4,30.3h26.6l-1.4,10.3H246l1.2-8.3L277.6,53h-25.2l1.4-10.3H296.3z"/>
			<path class="st0" d="M369.1,67.1c-2.1,14.6-14.3,24.5-30.3,24.5h-20.9l6.9-49h21.4C361.8,42.7,371.1,52.6,369.1,67.1z
				 M355.8,67.3c1.2-8.5-3.6-14.2-11.4-14.2h-8.1l-4,28.2h8.8C348.6,81.3,354.7,75.7,355.8,67.3z"/>
			<path class="st0" d="M391.9,42.7l-6.9,49h-12.9l6.9-49H391.9z M399.7,30.6l-10.4,8h-9.5l9.2-11.9L399.7,30.6z"/>
			<path class="st0" d="M428.9,83h-21.4l-4.7,8.7h-13.3l28.2-49h13.3l13.9,49h-13.8L428.9,83z M426.4,73.2l-4.3-17.5l-9.4,17.5
				H426.4z"/>
		</g>
	</g>
	<polygon class="st1" points="573.6,197.4 3.7,197.4 16.4,108.6 586.3,108.6 	"/>
	<g>
		<path class="st2" d="M79.4,131.1l-1.5,10.5H63.1l-5.4,38.4H44.7l5.4-38.4H35.4l1.5-10.5H79.4z"/>
		<path class="st2" d="M107.5,180.1l-5.3-13.6h-0.3h-9.3l-1.9,13.6H77.8l6.9-49h22.3c13.2,0,19.8,6.3,18.2,17.2
			c-1,7.4-4.9,12.9-11.1,15.8l8.1,16H107.5z M94,156.4h9.4c5.2,0,8.6-2.7,9.3-7.6c0.7-4.8-2-7.4-7.2-7.4h-9.4L94,156.4z"/>
		<path class="st2" d="M163.2,171.5h-21.4l-4.7,8.7h-13.3l28.2-49h13.3l13.9,49h-13.8L163.2,171.5z M160.8,161.7l-4.3-17.5
			l-9.4,17.5H160.8z"/>
		<path class="st2" d="M230.7,143.5c-0.7,5.1-4.6,9.2-10.1,10.6c6.1,1.3,9.3,6.1,8.4,12.4c-1.2,8.4-9.3,13.6-21,13.6h-24.5l6.9-49
			h23.6C225.3,131.1,231.8,136,230.7,143.5z M216,164.9c0.4-3.1-2.1-5-6.7-5h-9.9l-1.4,10.3h9.9C212.4,170.2,215.5,168.2,216,164.9z
			 M217.1,145.7c0.4-2.9-1.5-4.7-5.2-4.6h-9.9l-1.3,9.5h9.9C214.2,150.6,216.7,148.8,217.1,145.7z"/>
		<path class="st2" d="M268.5,171.5h-21.4l-4.7,8.7h-13.3l28.2-49h13.3l13.9,49h-13.8L268.5,171.5z M266.1,161.7l-4.3-17.5
			l-9.4,17.5H266.1z"/>
		<path class="st2" d="M301,180.7c-7.1,0-12.5-2.9-16.1-7.9l7.2-8.7c3.1,3.7,6.7,5.5,9.6,5.5c3.2,0,5.4-2,6-5.7l3.1-22.2h-17
			l1.5-10.5h30l-4.6,33C319.1,174.7,311.6,180.7,301,180.7z"/>
		<path class="st2" d="M359.9,171.5h-21.4l-4.7,8.7h-13.3l28.2-49H362l13.9,49h-13.8L359.9,171.5z M357.5,161.7l-4.3-17.5l-9.4,17.5
			H357.5z"/>
		<path class="st2" d="M431.5,155.6c-2.1,14.6-14.3,24.5-30.3,24.5h-20.9l6.9-49h21.4C424.3,131.1,433.6,141.1,431.5,155.6z
			 M418.3,155.7c1.2-8.5-3.6-14.2-11.4-14.2h-8.1l-4,28.2h8.8C411,169.8,417.1,164.1,418.3,155.7z"/>
		<path class="st2" d="M487.6,155.6c-2,14.3-15,25.1-30.3,25.1s-25.3-10.8-23.3-25.1c2-14.3,14.9-24.8,30.3-24.8
			C479.6,130.8,489.5,141.4,487.6,155.6z M447.2,155.7c-1.1,8,4.3,14.1,11.7,14.1c7.4,0,14.2-6.1,15.4-14.1c1.1-8-4-14-11.4-14
			C455.4,141.7,448.4,147.7,447.2,155.7z"/>
		<path class="st2" d="M520.3,180.1l-5.3-13.6h-0.3h-9.3l-1.9,13.6h-12.9l6.9-49h22.3c13.2,0,19.8,6.3,18.2,17.2
			c-1,7.4-4.9,12.9-11.1,15.8l8.1,16H520.3z M506.8,156.4h9.4c5.2,0,8.6-2.7,9.3-7.6c0.7-4.8-2-7.4-7.2-7.4h-9.4L506.8,156.4z"/>
		<path class="st2" d="M553.1,174.6c-0.5,3.6-3.4,6.1-6.9,6.1c-3.5,0-5.7-2.5-5.2-6.1c0.5-3.6,3.3-6,6.9-6S553.6,171,553.1,174.6z
			 M559.4,131.4l-1.8,12.5l-4.9,19.2h-7.6l0.5-19.2l1.8-12.5H559.4z"/>
	</g>
</g>
</svg>
