<?xml version="1.0" encoding="utf-8"?>
<!-- Generator: Adobe Illustrator 22.0.1, SVG Export Plug-In . SVG Version: 6.00 Build 0)  -->
<svg version="1.1" id="Capa_1" xmlns="http://www.w3.org/2000/svg" xmlns:xlink="http://www.w3.org/1999/xlink" x="0px" y="0px"
	 viewBox="0 0 279.1 337.1" style="enable-background:new 0 0 279.1 337.1;" xml:space="preserve">
<style type="text/css">
	.st0{fill:#606060;}
	.st1{fill:#FF132A;}
	.st2{fill:none;stroke:#FF132A;stroke-miterlimit:10;}
</style>
<g>
	<g>
		<path class="st0" d="M13.6,3.7v3.9h4.5V3.7h1.7v9.1h-1.7V9.1h-4.5v3.7h-1.7V3.7H13.6z"/>
		<path class="st0" d="M28.6,9.3c0,2.1-1.5,3.5-3.7,3.5c-2.2,0-3.7-1.4-3.7-3.5c0-2.1,1.5-3.5,3.7-3.5C27.1,5.8,28.6,7.2,28.6,9.3z
			 M23,9.4c0,1.2,0.8,2.1,2,2.1c1.1,0,2-0.9,2-2.1s-0.8-2.1-2-2.1C23.8,7.2,23,8.1,23,9.4z"/>
		<path class="st0" d="M30.3,15.4c-0.7,0-1.2-0.2-1.7-0.6l0.7-1.3c0.3,0.2,0.6,0.4,0.9,0.4c0.4,0,0.8-0.2,1-0.7l0.2-0.5l-2.9-6.8
			h1.8l2,5.1l1.8-5.1h1.7l-3.1,7.8C32.2,14.8,31.4,15.4,30.3,15.4z"/>
		<path class="st0" d="M37.9,12c0,0.3-0.1,0.5-0.2,0.7l-0.8,1.2H36l0.5-1.2c-0.2-0.2-0.4-0.4-0.4-0.7c0-0.5,0.4-0.9,0.9-0.9
			C37.5,11.1,37.9,11.4,37.9,12z"/>
		<path class="st0" d="M50.3,9.9h-5.1c0.2,1,1,1.6,2,1.6c0.7,0,1.4-0.3,1.9-0.8l0.9,0.9c-0.7,0.8-1.7,1.2-2.9,1.2
			c-2.2,0-3.6-1.4-3.6-3.5c0-2.1,1.5-3.5,3.5-3.5C49.4,5.8,50.4,7.4,50.3,9.9z M48.7,8.8c0-1-0.7-1.7-1.8-1.7c-1,0-1.7,0.7-1.9,1.7
			H48.7z"/>
		<path class="st0" d="M58.4,8.5v4.3h-1.7V9c0-1-0.6-1.6-1.5-1.6c-1.1,0-1.8,0.9-1.8,2v3.4h-1.7v-7h1.7v1.3c0.5-0.9,1.4-1.4,2.5-1.4
			C57.4,5.8,58.4,6.8,58.4,8.5z"/>
		<path class="st0" d="M71,9.9h-5.1c0.2,1,1,1.6,2,1.6c0.7,0,1.4-0.3,1.9-0.8l0.9,0.9c-0.7,0.8-1.7,1.2-2.9,1.2
			c-2.2,0-3.6-1.4-3.6-3.5c0-2.1,1.5-3.5,3.5-3.5C70.1,5.8,71.2,7.4,71,9.9z M69.5,8.8c0-1-0.7-1.7-1.8-1.7c-1,0-1.7,0.7-1.9,1.7
			H69.5z"/>
		<path class="st0" d="M74.4,7.1c-0.5,0-0.9,0.2-0.9,0.6c0,1.2,3.7,0.6,3.7,3.1c0,1.4-1.3,2.1-2.7,2.1c-1.1,0-2.1-0.3-2.9-1l0.6-1.2
			c0.6,0.5,1.6,0.9,2.4,0.9c0.6,0,1-0.2,1-0.6c0-1.3-3.6-0.6-3.6-3.1c0-1.4,1.2-2.1,2.6-2.1c0.9,0,1.9,0.3,2.5,0.7l-0.6,1.2
			C75.8,7.3,75,7.1,74.4,7.1z"/>
		<path class="st0" d="M82.5,12.4c-0.5,0.3-1.1,0.5-1.7,0.5c-1.1,0-2-0.7-2-2.1V7.4h-1l0-1.2h1V4.2h1.7v1.9h2v1.2h-2v3.1
			c0,0.7,0.3,0.9,0.7,0.9c0.3,0,0.6-0.1,1-0.3L82.5,12.4z"/>
		<path class="st0" d="M89.9,9.9h-5.1c0.2,1,1,1.6,2,1.6c0.7,0,1.4-0.3,1.9-0.8l0.9,0.9c-0.7,0.8-1.7,1.2-2.9,1.2
			c-2.2,0-3.6-1.4-3.6-3.5c0-2.1,1.5-3.5,3.5-3.5C89,5.8,90.1,7.4,89.9,9.9z M88.4,8.8c0-1-0.7-1.7-1.8-1.7c-1,0-1.7,0.7-1.9,1.7
			H88.4z"/>
		<path class="st0" d="M102.6,3.2v9.6h-1.7v-1.1c-0.5,0.8-1.3,1.2-2.3,1.2c-2,0-3.3-1.5-3.3-3.6c0-2.1,1.3-3.5,3.3-3.5
			c1.1,0,1.9,0.4,2.4,1.2V3.2H102.6z M100.9,9.4c0-1.2-0.8-2.1-2-2.1c-1.2,0-2,0.9-2,2.1c0,1.2,0.8,2.1,2,2.1
			C100.1,11.5,100.9,10.6,100.9,9.4z"/>
		<path class="st0" d="M107.6,3.6L106,4.9h-1.4l1.4-2L107.6,3.6z M106.3,5.9v7h-1.7v-7H106.3z"/>
		<path class="st0" d="M112.4,12.8V12c-0.5,0.6-1.3,0.9-2.2,0.9c-1.5,0-2.4-0.9-2.4-2.2c0-1.3,0.9-2.1,2.6-2.1h2V8.5
			c0-0.8-0.5-1.3-1.6-1.3c-0.7,0-1.4,0.2-2.1,0.7l-0.6-1.2c1-0.6,1.8-0.9,3.1-0.9c1.8,0,2.8,0.9,2.9,2.5l0,4.5H112.4z M112.4,10.4
			V9.8h-1.8c-0.9,0-1.3,0.2-1.3,0.9c0,0.6,0.5,1,1.2,1C111.5,11.6,112.3,11.1,112.4,10.4z"/>
		<path class="st0" d="M117.1,12c0,0.3-0.1,0.5-0.2,0.7l-0.8,1.2h-0.8l0.5-1.2c-0.2-0.2-0.4-0.4-0.4-0.7c0-0.5,0.4-0.9,0.9-0.9
			C116.7,11.1,117.1,11.4,117.1,12z"/>
		<path class="st0" d="M130,3.2v9.6h-1.7v-1.1c-0.5,0.8-1.3,1.2-2.3,1.2c-2,0-3.3-1.5-3.3-3.6c0-2.1,1.3-3.5,3.3-3.5
			c1.1,0,1.9,0.4,2.4,1.2V3.2H130z M128.3,9.4c0-1.2-0.8-2.1-2-2.1c-1.2,0-2,0.9-2,2.1c0,1.2,0.8,2.1,2,2.1
			C127.5,11.5,128.3,10.6,128.3,9.4z"/>
		<path class="st0" d="M138.2,9.9h-5.1c0.2,1,1,1.6,2,1.6c0.7,0,1.4-0.3,1.9-0.8l0.9,0.9c-0.7,0.8-1.7,1.2-2.9,1.2
			c-2.2,0-3.6-1.4-3.6-3.5c0-2.1,1.5-3.5,3.5-3.5C137.3,5.8,138.4,7.4,138.2,9.9z M136.7,8.8c0-1-0.7-1.7-1.8-1.7
			c-1,0-1.7,0.7-1.9,1.7H136.7z"/>
		<path class="st0" d="M141.6,7.1c-0.5,0-0.9,0.2-0.9,0.6c0,1.2,3.7,0.6,3.7,3.1c0,1.4-1.3,2.1-2.7,2.1c-1.1,0-2.1-0.3-2.9-1
			l0.6-1.2c0.6,0.5,1.6,0.9,2.4,0.9c0.6,0,1-0.2,1-0.6c0-1.3-3.6-0.6-3.6-3.1c0-1.4,1.2-2.1,2.6-2.1c0.9,0,1.9,0.3,2.5,0.7l-0.6,1.2
			C143,7.3,142.2,7.1,141.6,7.1z"/>
		<path class="st0" d="M151.9,9.9h-5.1c0.2,1,1,1.6,2,1.6c0.7,0,1.4-0.3,1.9-0.8l0.9,0.9c-0.7,0.8-1.7,1.2-2.9,1.2
			c-2.2,0-3.6-1.4-3.6-3.5c0-2.1,1.5-3.5,3.5-3.5C151,5.8,152.1,7.4,151.9,9.9z M150.4,8.8c0-1-0.7-1.7-1.8-1.7
			c-1,0-1.7,0.7-1.9,1.7H150.4z"/>
		<path class="st0" d="M157.4,12.8V12c-0.5,0.6-1.3,0.9-2.2,0.9c-1.5,0-2.4-0.9-2.4-2.2c0-1.3,0.9-2.1,2.6-2.1h2V8.5
			c0-0.8-0.5-1.3-1.6-1.3c-0.7,0-1.4,0.2-2.1,0.7l-0.6-1.2c1-0.6,1.8-0.9,3.1-0.9c1.8,0,2.8,0.9,2.9,2.5l0,4.5H157.4z M157.4,10.4
			V9.8h-1.8c-0.9,0-1.3,0.2-1.3,0.9c0,0.6,0.5,1,1.2,1C156.5,11.6,157.3,11.1,157.4,10.4z"/>
		<path class="st0" d="M172.4,8.5v4.3h-1.7V9c0-1-0.6-1.6-1.5-1.6c-1.1,0-1.8,0.9-1.8,2v3.4h-1.7V9c0-1-0.6-1.6-1.5-1.6
			c-1.1,0-1.8,0.9-1.8,2v3.4h-1.7v-7h1.7v1.3c0.5-0.9,1.3-1.3,2.4-1.4c1.2,0,2.1,0.6,2.4,1.7c0.5-1.1,1.4-1.7,2.6-1.7
			C171.5,5.8,172.4,6.8,172.4,8.5z"/>
		<path class="st0" d="M180.9,9.3c0,2.1-1.5,3.5-3.7,3.5c-2.2,0-3.7-1.4-3.7-3.5c0-2.1,1.5-3.5,3.7-3.5
			C179.4,5.8,180.9,7.2,180.9,9.3z M175.3,9.4c0,1.2,0.8,2.1,2,2.1c1.1,0,2-0.9,2-2.1s-0.8-2.1-2-2.1C176.1,7.2,175.3,8.1,175.3,9.4
			z"/>
		<path class="st0" d="M184.3,7.1c-0.5,0-0.9,0.2-0.9,0.6c0,1.2,3.7,0.6,3.7,3.1c0,1.4-1.3,2.1-2.7,2.1c-1.1,0-2.1-0.3-2.9-1
			l0.6-1.2c0.6,0.5,1.6,0.9,2.4,0.9c0.6,0,1-0.2,1-0.6c0-1.3-3.6-0.6-3.6-3.1c0-1.4,1.2-2.1,2.6-2.1c0.9,0,1.9,0.3,2.5,0.7l-0.6,1.2
			C185.7,7.3,184.9,7.1,184.3,7.1z"/>
		<path class="st0" d="M197.1,12.8V12c-0.5,0.6-1.3,0.9-2.2,0.9c-1.5,0-2.4-0.9-2.4-2.2c0-1.3,0.9-2.1,2.6-2.1h2V8.5
			c0-0.8-0.5-1.3-1.6-1.3c-0.7,0-1.4,0.2-2.1,0.7l-0.6-1.2c1-0.6,1.8-0.9,3.1-0.9c1.8,0,2.8,0.9,2.9,2.5l0,4.5H197.1z M197.1,10.4
			V9.8h-1.8c-0.9,0-1.3,0.2-1.3,0.9c0,0.6,0.5,1,1.2,1C196.3,11.6,197,11.1,197.1,10.4z"/>
		<path class="st0" d="M206.9,5.9v6.3c0,2-1.4,3.3-3.6,3.3c-1.1,0-2.1-0.4-2.9-0.9l0.7-1.2c0.6,0.5,1.3,0.7,2.2,0.7
			c1.2,0,2-0.7,2-1.8v-0.8c-0.5,0.7-1.2,1.1-2.2,1.1c-1.8,0-3.1-1.4-3.1-3.4c0-2,1.2-3.3,3-3.3c1,0,1.8,0.4,2.3,1.1v-1H206.9z
			 M205.2,9.1c0-1.2-0.8-2-1.8-2s-1.8,0.8-1.9,2c0,1.2,0.8,2,1.9,2C204.5,11.1,205.2,10.3,205.2,9.1z"/>
		<path class="st0" d="M212.8,5.8v1.6c-1.5-0.1-2.4,0.8-2.4,2v3.4h-1.7v-7h1.7v1.3C210.9,6.3,211.8,5.8,212.8,5.8z"/>
		<path class="st0" d="M217.8,12.8V12c-0.5,0.6-1.3,0.9-2.2,0.9c-1.5,0-2.4-0.9-2.4-2.2c0-1.3,0.9-2.1,2.6-2.1h2V8.5
			c0-0.8-0.5-1.3-1.6-1.3c-0.7,0-1.4,0.2-2.1,0.7l-0.6-1.2c1-0.6,1.8-0.9,3.1-0.9c1.8,0,2.8,0.9,2.9,2.5l0,4.5H217.8z M217.7,10.4
			V9.8H216c-0.9,0-1.3,0.2-1.3,0.9c0,0.6,0.5,1,1.2,1C216.9,11.6,217.7,11.1,217.7,10.4z"/>
		<path class="st0" d="M227.9,3.2v9.6h-1.7v-1.1c-0.5,0.8-1.3,1.2-2.3,1.2c-2,0-3.3-1.5-3.3-3.6c0-2.1,1.3-3.5,3.3-3.5
			c1.1,0,1.9,0.4,2.4,1.2V3.2H227.9z M226.2,9.4c0-1.2-0.8-2.1-2-2.1c-1.2,0-2,0.9-2,2.1c0,1.2,0.8,2.1,2,2.1
			C225.4,11.5,226.2,10.6,226.2,9.4z"/>
		<path class="st0" d="M236.2,9.9H231c0.2,1,1,1.6,2,1.6c0.7,0,1.4-0.3,1.9-0.8l0.9,0.9c-0.7,0.8-1.7,1.2-2.9,1.2
			c-2.2,0-3.6-1.4-3.6-3.5c0-2.1,1.5-3.5,3.5-3.5C235.3,5.8,236.3,7.4,236.2,9.9z M234.6,8.8c0-1-0.7-1.7-1.8-1.7
			c-1,0-1.7,0.7-1.9,1.7H234.6z"/>
		<path class="st0" d="M240.5,7.3c-1.1,0-1.9,0.8-1.9,2.1c0,1.2,0.8,2.1,1.9,2.1c0.8,0,1.5-0.3,1.9-0.8l1.1,0.9
			c-0.6,0.9-1.7,1.4-3,1.4c-2.1,0-3.5-1.4-3.5-3.5c0-2.1,1.4-3.5,3.5-3.5c1.3,0,2.3,0.5,2.9,1.3l-1,1C241.8,7.6,241.2,7.3,240.5,7.3
			z"/>
		<path class="st0" d="M250.7,9.9h-5.1c0.2,1,1,1.6,2,1.6c0.7,0,1.4-0.3,1.9-0.8l0.9,0.9c-0.7,0.8-1.7,1.2-2.9,1.2
			c-2.2,0-3.6-1.4-3.6-3.5c0-2.1,1.5-3.5,3.5-3.5C249.8,5.8,250.9,7.4,250.7,9.9z M249.2,8.8c0-1-0.7-1.7-1.8-1.7
			c-1,0-1.7,0.7-1.9,1.7H249.2z"/>
		<path class="st0" d="M256.1,5.8v1.6c-1.5-0.1-2.4,0.8-2.4,2v3.4H252v-7h1.7v1.3C254.2,6.3,255,5.8,256.1,5.8z"/>
		<path class="st0" d="M265.9,12.8V12c-0.5,0.6-1.3,0.9-2.2,0.9c-1.5,0-2.4-0.9-2.4-2.2c0-1.3,0.9-2.1,2.6-2.1h2V8.5
			c0-0.8-0.5-1.3-1.6-1.3c-0.7,0-1.4,0.2-2.1,0.7l-0.6-1.2c1-0.6,1.8-0.9,3.1-0.9c1.8,0,2.8,0.9,2.9,2.5l0,4.5H265.9z M265.9,10.4
			V9.8h-1.8c-0.9,0-1.3,0.2-1.3,0.9c0,0.6,0.5,1,1.2,1C265,11.6,265.8,11.1,265.9,10.4z"/>
		<path class="st0" d="M15.8,31.1c-0.5,0.3-1.1,0.5-1.7,0.5c-1.1,0-2-0.7-2-2.1v-3.4h-1l0-1.2h1v-1.9h1.7v1.9h2v1.2h-2v3.1
			c0,0.7,0.3,0.9,0.7,0.9c0.3,0,0.6-0.1,1-0.3L15.8,31.1z"/>
		<path class="st0" d="M23.6,28c0,2.1-1.5,3.5-3.7,3.5c-2.2,0-3.7-1.4-3.7-3.5c0-2.1,1.5-3.5,3.7-3.5C22.2,24.5,23.6,25.9,23.6,28z
			 M18,28c0,1.2,0.8,2.1,2,2.1c1.1,0,2-0.9,2-2.1s-0.8-2.1-2-2.1C18.8,25.9,18,26.8,18,28z"/>
		<path class="st0" d="M31.7,21.8v9.6H30v-1.1c-0.5,0.8-1.3,1.2-2.3,1.2c-2,0-3.3-1.5-3.3-3.6c0-2.1,1.3-3.5,3.3-3.5
			c1.1,0,1.9,0.4,2.4,1.2v-3.8H31.7z M30,28c0-1.2-0.8-2.1-2-2.1c-1.2,0-2,0.9-2,2.1c0,1.2,0.8,2.1,2,2.1C29.2,30.2,30,29.3,30,28z"
			/>
		<path class="st0" d="M40.4,28c0,2.1-1.5,3.5-3.7,3.5c-2.2,0-3.7-1.4-3.7-3.5c0-2.1,1.5-3.5,3.7-3.5C39,24.5,40.4,25.9,40.4,28z
			 M34.8,28c0,1.2,0.8,2.1,2,2.1c1.1,0,2-0.9,2-2.1s-0.8-2.1-2-2.1C35.6,25.9,34.8,26.8,34.8,28z"/>
		<path class="st0" d="M43.9,25.8c-0.5,0-0.9,0.2-0.9,0.6c0,1.2,3.7,0.6,3.7,3.1c0,1.4-1.3,2.1-2.7,2.1c-1.1,0-2.1-0.3-2.9-1
			l0.6-1.2c0.6,0.5,1.6,0.9,2.4,0.9c0.6,0,1-0.2,1-0.6c0-1.3-3.6-0.6-3.6-3.1c0-1.4,1.2-2.1,2.6-2.1c0.9,0,1.9,0.3,2.5,0.7l-0.6,1.2
			C45.2,26,44.5,25.8,43.9,25.8z"/>
		<path class="st0" d="M65.2,27.2v4.3h-1.7v-3.8c0-1-0.6-1.6-1.5-1.6c-1.1,0-1.8,0.9-1.8,2v3.4h-1.7v-7h1.7v1.3
			c0.5-0.9,1.4-1.4,2.5-1.4C64.2,24.5,65.2,25.5,65.2,27.2z"/>
		<path class="st0" d="M73.3,24.5v7h-1.7v-1.3c-0.5,0.9-1.3,1.4-2.4,1.4c-1.6,0-2.5-1-2.5-2.7v-4.4h1.7v3.9c0,1,0.6,1.6,1.5,1.6
			c1.1,0,1.7-0.9,1.7-2v-3.4H73.3z"/>
		<path class="st0" d="M81.5,28.6h-5.1c0.2,1,1,1.6,2,1.6c0.7,0,1.4-0.3,1.9-0.8l0.9,0.9c-0.7,0.8-1.7,1.2-2.9,1.2
			c-2.2,0-3.6-1.4-3.6-3.5c0-2.1,1.5-3.5,3.5-3.5C80.7,24.5,81.7,26.1,81.5,28.6z M80,27.5c0-1-0.7-1.7-1.8-1.7
			c-1,0-1.7,0.7-1.9,1.7H80z"/>
		<path class="st0" d="M85,25.8c-0.5,0-0.9,0.2-0.9,0.6c0,1.2,3.7,0.6,3.7,3.1c0,1.4-1.3,2.1-2.7,2.1c-1.1,0-2.1-0.3-2.9-1l0.6-1.2
			c0.6,0.5,1.6,0.9,2.4,0.9c0.6,0,1-0.2,1-0.6c0-1.3-3.6-0.6-3.6-3.1c0-1.4,1.2-2.1,2.6-2.1c0.9,0,1.9,0.3,2.5,0.7L87,26.4
			C86.3,26,85.6,25.8,85,25.8z"/>
		<path class="st0" d="M93.1,31.1c-0.5,0.3-1.1,0.5-1.7,0.5c-1.1,0-2-0.7-2-2.1v-3.4h-1l0-1.2h1v-1.9H91v1.9h2v1.2h-2v3.1
			c0,0.7,0.3,0.9,0.7,0.9c0.3,0,0.6-0.1,1-0.3L93.1,31.1z"/>
		<path class="st0" d="M98.3,24.5v1.6c-1.5-0.1-2.4,0.8-2.4,2v3.4h-1.7v-7H96v1.3C96.4,25,97.3,24.5,98.3,24.5z"/>
		<path class="st0" d="M106.1,28c0,2.1-1.5,3.5-3.7,3.5c-2.2,0-3.7-1.4-3.7-3.5c0-2.1,1.5-3.5,3.7-3.5
			C104.6,24.5,106.1,25.9,106.1,28z M100.5,28c0,1.2,0.8,2.1,2,2.1c1.1,0,2-0.9,2-2.1s-0.8-2.1-2-2.1
			C101.3,25.9,100.5,26.8,100.5,28z"/>
		<path class="st0" d="M109.5,25.8c-0.5,0-0.9,0.2-0.9,0.6c0,1.2,3.7,0.6,3.7,3.1c0,1.4-1.3,2.1-2.7,2.1c-1.1,0-2.1-0.3-2.9-1
			l0.6-1.2c0.6,0.5,1.6,0.9,2.4,0.9c0.6,0,1-0.2,1-0.6c0-1.3-3.6-0.6-3.6-3.1c0-1.4,1.2-2.1,2.6-2.1c0.9,0,1.9,0.3,2.5,0.7l-0.6,1.2
			C110.9,26,110.1,25.8,109.5,25.8z"/>
		<path class="st0" d="M127,26c-1.1,0-1.9,0.8-1.9,2.1c0,1.2,0.8,2.1,1.9,2.1c0.8,0,1.5-0.3,1.9-0.8l1.1,0.9c-0.6,0.9-1.7,1.4-3,1.4
			c-2.1,0-3.5-1.4-3.5-3.5c0-2.1,1.4-3.5,3.5-3.5c1.3,0,2.3,0.5,2.9,1.3l-1,1C128.4,26.3,127.8,26,127,26z"/>
		<path class="st0" d="M137.7,28c0,2.1-1.5,3.5-3.7,3.5c-2.2,0-3.7-1.4-3.7-3.5c0-2.1,1.5-3.5,3.7-3.5
			C136.2,24.5,137.7,25.9,137.7,28z M132.1,28c0,1.2,0.8,2.1,2,2.1c1.1,0,2-0.9,2-2.1s-0.8-2.1-2-2.1
			C132.9,25.9,132.1,26.8,132.1,28z"/>
		<path class="st0" d="M140.8,21.8v9.6h-1.7v-9.6H140.8z"/>
		<path class="st0" d="M146.9,31.5v-0.8c-0.5,0.6-1.3,0.9-2.2,0.9c-1.5,0-2.4-0.9-2.4-2.2c0-1.3,0.9-2.1,2.6-2.1h2v-0.2
			c0-0.8-0.5-1.3-1.6-1.3c-0.7,0-1.4,0.2-2.1,0.7l-0.6-1.2c1-0.6,1.8-0.9,3.1-0.9c1.8,0,2.8,0.9,2.9,2.5l0,4.5H146.9z M146.9,29.1
			v-0.6h-1.8c-0.9,0-1.3,0.2-1.3,0.9c0,0.6,0.5,1,1.2,1C146.1,30.3,146.8,29.8,146.9,29.1z"/>
		<path class="st0" d="M157.8,28c0,2.1-1.3,3.5-3.3,3.5c-1.1,0-1.9-0.4-2.4-1.2v1.1h-1.7v-9.6h1.7v3.8c0.5-0.8,1.3-1.2,2.3-1.2
			C156.4,24.5,157.8,25.9,157.8,28z M156,28c0-1.2-0.8-2.1-2-2.1c-1.2,0-2,0.9-2,2.1c0,1.2,0.8,2.1,2,2.1
			C155.2,30.1,156,29.2,156,28z"/>
		<path class="st0" d="M165.8,28c0,2.1-1.5,3.5-3.7,3.5c-2.2,0-3.7-1.4-3.7-3.5c0-2.1,1.5-3.5,3.7-3.5
			C164.3,24.5,165.8,25.9,165.8,28z M160.2,28c0,1.2,0.8,2.1,2,2.1c1.1,0,2-0.9,2-2.1s-0.8-2.1-2-2.1C161,25.9,160.2,26.8,160.2,28z
			"/>
		<path class="st0" d="M171.2,24.5v1.6c-1.5-0.1-2.4,0.8-2.4,2v3.4h-1.7v-7h1.7v1.3C169.3,25,170.1,24.5,171.2,24.5z"/>
		<path class="st0" d="M176.1,31.5v-0.8c-0.5,0.6-1.3,0.9-2.2,0.9c-1.5,0-2.4-0.9-2.4-2.2c0-1.3,0.9-2.1,2.6-2.1h2v-0.2
			c0-0.8-0.5-1.3-1.6-1.3c-0.7,0-1.4,0.2-2.1,0.7l-0.6-1.2c1-0.6,1.8-0.9,3.1-0.9c1.8,0,2.8,0.9,2.9,2.5l0,4.5H176.1z M176.1,29.1
			v-0.6h-1.8c-0.9,0-1.3,0.2-1.3,0.9c0,0.6,0.5,1,1.2,1C175.2,30.3,176,29.8,176.1,29.1z"/>
		<path class="st0" d="M186.2,21.8v9.6h-1.7v-1.1c-0.5,0.8-1.3,1.2-2.3,1.2c-2,0-3.3-1.5-3.3-3.6c0-2.1,1.3-3.5,3.3-3.5
			c1.1,0,1.9,0.4,2.4,1.2v-3.8H186.2z M184.6,28c0-1.2-0.8-2.1-2-2.1c-1.2,0-2,0.9-2,2.1c0,1.2,0.8,2.1,2,2.1
			C183.7,30.2,184.6,29.3,184.6,28z"/>
		<path class="st0" d="M195,28c0,2.1-1.5,3.5-3.7,3.5c-2.2,0-3.7-1.4-3.7-3.5c0-2.1,1.5-3.5,3.7-3.5C193.5,24.5,195,25.9,195,28z
			 M189.3,28c0,1.2,0.8,2.1,2,2.1c1.1,0,2-0.9,2-2.1s-0.8-2.1-2-2.1C190.2,25.9,189.3,26.8,189.3,28z"/>
		<path class="st0" d="M200.4,24.5v1.6c-1.5-0.1-2.4,0.8-2.4,2v3.4h-1.7v-7h1.7v1.3C198.5,25,199.3,24.5,200.4,24.5z"/>
		<path class="st0" d="M207.7,28.6h-5.1c0.2,1,1,1.6,2,1.6c0.7,0,1.4-0.3,1.9-0.8l0.9,0.9c-0.7,0.8-1.7,1.2-2.9,1.2
			c-2.2,0-3.6-1.4-3.6-3.5c0-2.1,1.5-3.5,3.5-3.5C206.8,24.5,207.8,26.1,207.7,28.6z M206.1,27.5c0-1-0.7-1.7-1.8-1.7
			c-1,0-1.7,0.7-1.9,1.7H206.1z"/>
		<path class="st0" d="M211.1,25.8c-0.5,0-0.9,0.2-0.9,0.6c0,1.2,3.7,0.6,3.7,3.1c0,1.4-1.3,2.1-2.7,2.1c-1.1,0-2.1-0.3-2.9-1
			l0.6-1.2c0.6,0.5,1.6,0.9,2.4,0.9c0.6,0,1-0.2,1-0.6c0-1.3-3.6-0.6-3.6-3.1c0-1.4,1.2-2.1,2.6-2.1c0.9,0,1.9,0.3,2.5,0.7l-0.6,1.2
			C212.4,26,211.7,25.8,211.1,25.8z"/>
		<path class="st0" d="M233,28c0,2.1-1.3,3.5-3.3,3.5c-1.1,0-1.9-0.4-2.4-1.2V34h-1.7v-9.5h1.7v1.1c0.5-0.8,1.3-1.2,2.3-1.2
			C231.7,24.5,233,25.9,233,28z M231.3,28c0-1.2-0.8-2.1-2-2.1c-1.2,0-2,0.9-2,2.1c0,1.2,0.8,2.1,2,2.1
			C230.5,30.1,231.3,29.2,231.3,28z"/>
		<path class="st0" d="M241,28c0,2.1-1.5,3.5-3.7,3.5c-2.2,0-3.7-1.4-3.7-3.5c0-2.1,1.5-3.5,3.7-3.5C239.5,24.5,241,25.9,241,28z
			 M235.4,28c0,1.2,0.8,2.1,2,2.1c1.1,0,2-0.9,2-2.1s-0.8-2.1-2-2.1C236.2,25.9,235.4,26.8,235.4,28z"/>
		<path class="st0" d="M246.4,24.5v1.6c-1.5-0.1-2.4,0.8-2.4,2v3.4h-1.7v-7h1.7v1.3C244.5,25,245.3,24.5,246.4,24.5z"/>
		<path class="st0" d="M264.2,28.6h-5.1c0.2,1,1,1.6,2,1.6c0.7,0,1.4-0.3,1.9-0.8l0.9,0.9c-0.7,0.8-1.7,1.2-2.9,1.2
			c-2.2,0-3.6-1.4-3.6-3.5c0-2.1,1.5-3.5,3.5-3.5C263.3,24.5,264.4,26.1,264.2,28.6z M262.7,27.5c0-1-0.7-1.7-1.8-1.7
			c-1,0-1.7,0.7-1.9,1.7H262.7z"/>
		<path class="st0" d="M267.3,21.8v9.6h-1.7v-9.6H267.3z"/>
		<path class="st0" d="M18,47.3h-5.1c0.2,1,1,1.6,2,1.6c0.7,0,1.4-0.3,1.9-0.8l0.9,0.9c-0.7,0.8-1.7,1.2-2.9,1.2
			c-2.2,0-3.6-1.4-3.6-3.5c0-2.1,1.5-3.5,3.5-3.5C17.1,43.2,18.2,44.8,18,47.3z M16.4,46.2c0-1-0.7-1.7-1.8-1.7
			c-1,0-1.7,0.7-1.9,1.7H16.4z"/>
		<path class="st0" d="M21.4,44.5c-0.5,0-0.9,0.2-0.9,0.6c0,1.2,3.7,0.6,3.7,3.1c0,1.4-1.3,2.1-2.7,2.1c-1.1,0-2.1-0.3-2.9-1
			l0.6-1.2c0.6,0.5,1.6,0.9,2.4,0.9c0.6,0,1-0.2,1-0.6c0-1.3-3.6-0.6-3.6-3.1c0-1.4,1.2-2.1,2.6-2.1c0.9,0,1.9,0.3,2.5,0.7l-0.6,1.2
			C22.8,44.7,22,44.5,21.4,44.5z"/>
		<path class="st0" d="M27.5,42.8v0.7h1.7v1.2h-1.7v5.4h-1.7v-5.4h-0.9v-1.2h0.9v-0.7c0-1.6,1.2-2.4,2.5-2.4c0.6,0,1.2,0.2,1.7,0.5
			l-0.6,1.3c-0.3-0.2-0.6-0.3-0.9-0.3C27.9,41.9,27.5,42.2,27.5,42.8z"/>
		<path class="st0" d="M36.5,43.2v7h-1.7v-1.3c-0.5,0.9-1.3,1.4-2.4,1.4c-1.6,0-2.5-1-2.5-2.7v-4.4h1.7v3.9c0,1,0.6,1.6,1.5,1.6
			c1.1,0,1.7-0.9,1.7-2v-3.4H36.5z"/>
		<path class="st0" d="M44.7,47.3h-5.1c0.2,1,1,1.6,2,1.6c0.7,0,1.4-0.3,1.9-0.8l0.9,0.9c-0.7,0.8-1.7,1.2-2.9,1.2
			c-2.2,0-3.6-1.4-3.6-3.5c0-2.1,1.5-3.5,3.5-3.5C43.8,43.2,44.9,44.8,44.7,47.3z M43.2,46.2c0-1-0.7-1.7-1.8-1.7
			c-1,0-1.7,0.7-1.9,1.7H43.2z"/>
		<path class="st0" d="M50.1,43.2v1.6c-1.5-0.1-2.4,0.8-2.4,2v3.4H46v-7h1.7v1.3C48.2,43.6,49,43.2,50.1,43.2z"/>
		<path class="st0" d="M56.6,43.2v1.1l-3.8,4.4l3.9,0v1.4l-6,0v-1.1l3.8-4.4l-3.7,0v-1.4H56.6z"/>
		<path class="st0" d="M64.7,46.7c0,2.1-1.5,3.5-3.7,3.5c-2.2,0-3.7-1.4-3.7-3.5c0-2.1,1.5-3.5,3.7-3.5
			C63.2,43.2,64.7,44.6,64.7,46.7z M59.1,46.7c0,1.2,0.8,2.1,2,2.1c1.1,0,2-0.9,2-2.1s-0.8-2.1-2-2.1C59.9,44.6,59.1,45.5,59.1,46.7
			z"/>
		<path class="st0" d="M76.9,43.2v9.5h-1.7v-3.6c-0.5,0.8-1.3,1.2-2.3,1.2c-2,0-3.3-1.5-3.3-3.6c0-2.1,1.3-3.5,3.3-3.5
			c1.1,0,1.9,0.4,2.4,1.2v-1.1H76.9z M75.2,46.7c0-1.2-0.8-2.1-2-2.1c-1.2,0-2,0.9-2,2.1c0,1.2,0.8,2.1,2,2.1
			C74.4,48.8,75.2,48,75.2,46.7z"/>
		<path class="st0" d="M85.4,43.2v7h-1.7v-1.3c-0.5,0.9-1.3,1.4-2.4,1.4c-1.6,0-2.5-1-2.5-2.7v-4.4h1.7v3.9c0,1,0.6,1.6,1.5,1.6
			c1.1,0,1.7-0.9,1.7-2v-3.4H85.4z"/>
		<path class="st0" d="M93.6,47.3h-5.1c0.2,1,1,1.6,2,1.6c0.7,0,1.4-0.3,1.9-0.8l0.9,0.9c-0.7,0.8-1.7,1.2-2.9,1.2
			c-2.2,0-3.6-1.4-3.6-3.5c0-2.1,1.5-3.5,3.5-3.5C92.7,43.2,93.8,44.8,93.6,47.3z M92.1,46.2c0-1-0.7-1.7-1.8-1.7
			c-1,0-1.7,0.7-1.9,1.7H92.1z"/>
		<path class="st0" d="M103.2,43.2v1.6c-1.5-0.1-2.4,0.8-2.4,2v3.4h-1.7v-7h1.7v1.3C101.3,43.6,102.1,43.2,103.2,43.2z"/>
		<path class="st0" d="M110.5,47.3h-5.1c0.2,1,1,1.6,2,1.6c0.7,0,1.4-0.3,1.9-0.8l0.9,0.9c-0.7,0.8-1.7,1.2-2.9,1.2
			c-2.2,0-3.6-1.4-3.6-3.5c0-2.1,1.5-3.5,3.5-3.5C109.6,43.2,110.6,44.8,110.5,47.3z M108.9,46.2c0-1-0.7-1.7-1.8-1.7
			c-1,0-1.7,0.7-1.9,1.7H108.9z"/>
		<path class="st0" d="M115.9,50.2v-0.8c-0.5,0.6-1.3,0.9-2.2,0.9c-1.5,0-2.4-0.9-2.4-2.2c0-1.3,0.9-2.1,2.6-2.1h2v-0.2
			c0-0.8-0.5-1.3-1.6-1.3c-0.7,0-1.4,0.2-2.1,0.7l-0.6-1.2c1-0.6,1.8-0.9,3.1-0.9c1.8,0,2.8,0.9,2.9,2.5l0,4.5H115.9z M115.9,47.8
			v-0.6h-1.8c-0.9,0-1.3,0.2-1.3,0.9c0,0.6,0.5,1,1.2,1C115.1,49,115.8,48.4,115.9,47.8z"/>
		<path class="st0" d="M121.1,40.5v9.6h-1.7v-9.6H121.1z"/>
		<path class="st0" d="M124.9,41.2c0,0.5-0.4,0.9-0.9,0.9c-0.5,0-0.9-0.4-0.9-0.9s0.4-0.9,0.9-0.9C124.5,40.3,124.9,40.7,124.9,41.2
			z M124.8,43.2v7h-1.7v-7H124.8z"/>
		<path class="st0" d="M132.2,43.2v1.1l-3.8,4.4l3.9,0v1.4l-6,0v-1.1l3.8-4.4l-3.7,0v-1.4H132.2z"/>
		<path class="st0" d="M137.7,50.2v-0.8c-0.5,0.6-1.3,0.9-2.2,0.9c-1.5,0-2.4-0.9-2.4-2.2c0-1.3,0.9-2.1,2.6-2.1h2v-0.2
			c0-0.8-0.5-1.3-1.6-1.3c-0.7,0-1.4,0.2-2.1,0.7l-0.6-1.2c1-0.6,1.8-0.9,3.1-0.9c1.8,0,2.8,0.9,2.9,2.5l0,4.5H137.7z M137.7,47.8
			v-0.6h-1.8c-0.9,0-1.3,0.2-1.3,0.9c0,0.6,0.5,1,1.2,1C136.8,49,137.6,48.4,137.7,47.8z"/>
		<path class="st0" d="M147.9,45.8v4.3h-1.7v-3.8c0-1-0.6-1.6-1.5-1.6c-1.1,0-1.8,0.9-1.8,2v3.4h-1.7v-7h1.7v1.3
			c0.5-0.9,1.4-1.4,2.5-1.4C146.9,43.2,147.9,44.2,147.9,45.8z"/>
		<path class="st0" d="M160.1,47.3H155c0.2,1,1,1.6,2,1.6c0.7,0,1.4-0.3,1.9-0.8l0.9,0.9c-0.7,0.8-1.7,1.2-2.9,1.2
			c-2.2,0-3.6-1.4-3.6-3.5c0-2.1,1.5-3.5,3.5-3.5C159.2,43.2,160.3,44.8,160.1,47.3z M158.6,46.2c0-1-0.7-1.7-1.8-1.7
			c-1,0-1.7,0.7-1.9,1.7H158.6z"/>
		<path class="st0" d="M168.2,45.8v4.3h-1.7v-3.8c0-1-0.6-1.6-1.5-1.6c-1.1,0-1.8,0.9-1.8,2v3.4h-1.7v-7h1.7v1.3
			c0.5-0.9,1.4-1.4,2.5-1.4C167.2,43.2,168.2,44.2,168.2,45.8z"/>
		<path class="st0" d="M176.2,44.5c-0.5,0-0.9,0.2-0.9,0.6c0,1.2,3.7,0.6,3.7,3.1c0,1.4-1.3,2.1-2.7,2.1c-1.1,0-2.1-0.3-2.9-1
			l0.6-1.2c0.6,0.5,1.6,0.9,2.4,0.9c0.6,0,1-0.2,1-0.6c0-1.3-3.6-0.6-3.6-3.1c0-1.4,1.2-2.1,2.6-2.1c0.9,0,1.9,0.3,2.5,0.7l-0.6,1.2
			C177.6,44.7,176.8,44.5,176.2,44.5z"/>
		<path class="st0" d="M186.7,43.2v7H185v-1.3c-0.5,0.9-1.3,1.4-2.4,1.4c-1.6,0-2.5-1-2.5-2.7v-4.4h1.7v3.9c0,1,0.6,1.6,1.5,1.6
			c1.1,0,1.7-0.9,1.7-2v-3.4H186.7z"/>
		<path class="st0" d="M194.6,40.5v9.6H193v-9.6H194.6z"/>
		<path class="st0" d="M200.8,50.2v-0.8c-0.5,0.6-1.3,0.9-2.2,0.9c-1.5,0-2.4-0.9-2.4-2.2c0-1.3,0.9-2.1,2.6-2.1h2v-0.2
			c0-0.8-0.5-1.3-1.6-1.3c-0.7,0-1.4,0.2-2.1,0.7l-0.6-1.2c1-0.6,1.8-0.9,3.1-0.9c1.8,0,2.8,0.9,2.9,2.5l0,4.5H200.8z M200.8,47.8
			v-0.6H199c-0.9,0-1.3,0.2-1.3,0.9c0,0.6,0.5,1,1.2,1C199.9,49,200.7,48.4,200.8,47.8z"/>
		<path class="st0" d="M211.6,46.7c0,2.1-1.3,3.5-3.3,3.5c-1.1,0-1.9-0.4-2.4-1.2v1.1h-1.7v-9.6h1.7v3.8c0.5-0.8,1.3-1.2,2.3-1.2
			C210.3,43.2,211.6,44.6,211.6,46.7z M209.9,46.7c0-1.2-0.8-2.1-2-2.1c-1.2,0-2,0.9-2,2.1c0,1.2,0.8,2.1,2,2.1
			C209.1,48.8,209.9,47.9,209.9,46.7z"/>
		<path class="st0" d="M219.6,46.7c0,2.1-1.5,3.5-3.7,3.5c-2.2,0-3.7-1.4-3.7-3.5c0-2.1,1.5-3.5,3.7-3.5
			C218.2,43.2,219.6,44.6,219.6,46.7z M214,46.7c0,1.2,0.8,2.1,2,2.1c1.1,0,2-0.9,2-2.1s-0.8-2.1-2-2.1
			C214.8,44.6,214,45.5,214,46.7z"/>
		<path class="st0" d="M225,43.2v1.6c-1.5-0.1-2.4,0.8-2.4,2v3.4H221v-7h1.7v1.3C223.1,43.6,224,43.2,225,43.2z"/>
		<path class="st0" d="M237,40.5v9.6h-1.7v-1.1c-0.5,0.8-1.3,1.2-2.3,1.2c-2,0-3.3-1.5-3.3-3.6c0-2.1,1.3-3.5,3.3-3.5
			c1.1,0,1.9,0.4,2.4,1.2v-3.8H237z M235.3,46.7c0-1.2-0.8-2.1-2-2.1c-1.2,0-2,0.9-2,2.1c0,1.2,0.8,2.1,2,2.1
			C234.5,48.8,235.3,48,235.3,46.7z"/>
		<path class="st0" d="M240.8,41.2c0,0.5-0.4,0.9-0.9,0.9c-0.5,0-0.9-0.4-0.9-0.9s0.4-0.9,0.9-0.9C240.4,40.3,240.8,40.7,240.8,41.2
			z M240.7,43.2v7H239v-7H240.7z"/>
		<path class="st0" d="M246.8,50.2v-0.8c-0.5,0.6-1.3,0.9-2.2,0.9c-1.5,0-2.4-0.9-2.4-2.2c0-1.3,0.9-2.1,2.6-2.1h2v-0.2
			c0-0.8-0.5-1.3-1.6-1.3c-0.7,0-1.4,0.2-2.1,0.7l-0.6-1.2c1-0.6,1.8-0.9,3.1-0.9c1.8,0,2.8,0.9,2.9,2.5l0,4.5H246.8z M246.8,47.8
			v-0.6H245c-0.9,0-1.3,0.2-1.3,0.9c0,0.6,0.5,1,1.2,1C245.9,49,246.7,48.4,246.8,47.8z"/>
		<path class="st0" d="M254.3,43.2v1.6c-1.5-0.1-2.4,0.8-2.4,2v3.4h-1.7v-7h1.7v1.3C252.4,43.6,253.2,43.2,254.3,43.2z"/>
		<path class="st0" d="M257.1,41.2c0,0.5-0.4,0.9-0.9,0.9c-0.5,0-0.9-0.4-0.9-0.9s0.4-0.9,0.9-0.9C256.7,40.3,257.1,40.7,257.1,41.2
			z M257,43.2v7h-1.7v-7H257z"/>
		<path class="st0" d="M263.1,50.2v-0.8c-0.5,0.6-1.3,0.9-2.2,0.9c-1.5,0-2.4-0.9-2.4-2.2c0-1.3,0.9-2.1,2.6-2.1h2v-0.2
			c0-0.8-0.5-1.3-1.6-1.3c-0.7,0-1.4,0.2-2.1,0.7l-0.6-1.2c1-0.6,1.8-0.9,3.1-0.9c1.8,0,2.8,0.9,2.9,2.5l0,4.5H263.1z M263.1,47.8
			v-0.6h-1.8c-0.9,0-1.3,0.2-1.3,0.9c0,0.6,0.5,1,1.2,1C262.2,49,263,48.4,263.1,47.8z"/>
		<path class="st0" d="M267.8,49.3c0,0.5-0.4,0.9-0.9,0.9c-0.5,0-0.9-0.4-0.9-0.9s0.4-0.9,0.9-0.9C267.5,48.4,267.8,48.8,267.8,49.3
			z"/>
		<path class="st0" d="M17.7,66.9h-4.4l-0.8,1.9h-1.8l4-9.1h1.8l3.9,9.1h-1.9L17.7,66.9z M17.1,65.4l-1.6-3.8l-1.6,3.8H17.1z"/>
		<path class="st0" d="M32.3,65.4c0,2.1-1.3,3.5-3.3,3.5c-1.1,0-1.9-0.4-2.4-1.2v3.7h-1.7v-9.5h1.7V63c0.5-0.8,1.3-1.2,2.3-1.2
			C30.9,61.8,32.3,63.3,32.3,65.4z M30.6,65.4c0-1.2-0.8-2.1-2-2.1c-1.2,0-2,0.9-2,2.1c0,1.2,0.8,2.1,2,2.1
			C29.7,67.5,30.6,66.6,30.6,65.4z"/>
		<path class="st0" d="M39.8,66h-5.1c0.2,1,1,1.6,2,1.6c0.7,0,1.4-0.3,1.9-0.8l0.9,0.9c-0.7,0.8-1.7,1.2-2.9,1.2
			c-2.2,0-3.6-1.4-3.6-3.5c0-2.1,1.5-3.5,3.5-3.5C38.9,61.8,40,63.4,39.8,66z M38.3,64.8c0-1-0.7-1.7-1.8-1.7c-1,0-1.7,0.7-1.9,1.7
			H38.3z"/>
		<path class="st0" d="M43.3,63.1c-0.5,0-0.9,0.2-0.9,0.6c0,1.2,3.7,0.6,3.7,3.1c0,1.4-1.3,2.1-2.7,2.1c-1.1,0-2.1-0.3-2.9-1
			l0.6-1.2c0.6,0.5,1.6,0.9,2.4,0.9c0.6,0,1-0.2,1-0.6c0-1.3-3.6-0.6-3.6-3.1c0-1.4,1.2-2.1,2.6-2.1c0.9,0,1.9,0.3,2.5,0.7l-0.6,1.2
			C44.6,63.4,43.9,63.1,43.3,63.1z"/>
		<path class="st0" d="M51.4,68.9V68c-0.5,0.6-1.3,0.9-2.2,0.9c-1.5,0-2.4-0.9-2.4-2.2c0-1.3,0.9-2.1,2.6-2.1h2v-0.2
			c0-0.8-0.5-1.3-1.6-1.3c-0.7,0-1.4,0.2-2.1,0.7l-0.6-1.2c1-0.6,1.8-0.9,3.1-0.9c1.8,0,2.8,0.9,2.9,2.5l0,4.5H51.4z M51.4,66.4
			v-0.6h-1.8c-0.9,0-1.3,0.2-1.3,0.9c0,0.6,0.5,1,1.2,1C50.5,67.6,51.3,67.1,51.4,66.4z"/>
		<path class="st0" d="M58.9,61.8v1.6c-1.5-0.1-2.4,0.8-2.4,2v3.4h-1.7v-7h1.7v1.3C57,62.3,57.8,61.8,58.9,61.8z"/>
		<path class="st0" d="M70.2,59.2v9.6h-1.7v-1.1c-0.5,0.8-1.3,1.2-2.3,1.2c-2,0-3.3-1.5-3.3-3.6c0-2.1,1.3-3.5,3.3-3.5
			c1.1,0,1.9,0.4,2.4,1.2v-3.8H70.2z M68.5,65.4c0-1.2-0.8-2.1-2-2.1c-1.2,0-2,0.9-2,2.1c0,1.2,0.8,2.1,2,2.1
			C67.7,67.5,68.5,66.6,68.5,65.4z"/>
		<path class="st0" d="M78.5,66h-5.1c0.2,1,1,1.6,2,1.6c0.7,0,1.4-0.3,1.9-0.8l0.9,0.9c-0.7,0.8-1.7,1.2-2.9,1.2
			c-2.2,0-3.6-1.4-3.6-3.5c0-2.1,1.5-3.5,3.5-3.5C77.6,61.8,78.6,63.4,78.5,66z M76.9,64.8c0-1-0.7-1.7-1.8-1.7
			c-1,0-1.7,0.7-1.9,1.7H76.9z"/>
		<path class="st0" d="M89.6,66h-5.1c0.2,1,1,1.6,2,1.6c0.7,0,1.4-0.3,1.9-0.8l0.9,0.9c-0.7,0.8-1.7,1.2-2.9,1.2
			c-2.2,0-3.6-1.4-3.6-3.5c0-2.1,1.5-3.5,3.5-3.5C88.7,61.8,89.8,63.4,89.6,66z M88.1,64.8c0-1-0.7-1.7-1.8-1.7
			c-1,0-1.7,0.7-1.9,1.7H88.1z"/>
		<path class="st0" d="M97.7,64.5v4.3H96V65c0-1-0.6-1.6-1.5-1.6c-1.1,0-1.8,0.9-1.8,2v3.4h-1.7v-7h1.7v1.3c0.5-0.9,1.4-1.4,2.5-1.4
			C96.7,61.8,97.7,62.9,97.7,64.5z"/>
		<path class="st0" d="M102.4,63.3c-1.1,0-1.9,0.8-1.9,2.1c0,1.2,0.8,2.1,1.9,2.1c0.8,0,1.5-0.3,1.9-0.8l1.1,0.9
			c-0.6,0.9-1.7,1.4-3,1.4c-2.1,0-3.5-1.4-3.5-3.5c0-2.1,1.4-3.5,3.5-3.5c1.3,0,2.3,0.5,2.9,1.3l-1,1
			C103.8,63.6,103.2,63.3,102.4,63.3z"/>
		<path class="st0" d="M113.1,65.4c0,2.1-1.5,3.5-3.7,3.5c-2.2,0-3.7-1.4-3.7-3.5c0-2.1,1.5-3.5,3.7-3.5
			C111.6,61.8,113.1,63.3,113.1,65.4z M107.5,65.4c0,1.2,0.8,2.1,2,2.1c1.1,0,2-0.9,2-2.1s-0.8-2.1-2-2.1
			C108.3,63.3,107.5,64.1,107.5,65.4z"/>
		<path class="st0" d="M121.2,64.5v4.3h-1.7V65c0-1-0.6-1.6-1.5-1.6c-1.1,0-1.8,0.9-1.8,2v3.4h-1.7v-7h1.7v1.3
			c0.5-0.9,1.4-1.4,2.5-1.4C120.2,61.8,121.2,62.9,121.2,64.5z"/>
		<path class="st0" d="M127,68.4c-0.5,0.3-1.1,0.5-1.7,0.5c-1.1,0-2-0.7-2-2.1v-3.4h-1l0-1.2h1v-1.9h1.7v1.9h2v1.2h-2v3.1
			c0,0.7,0.3,0.9,0.7,0.9c0.3,0,0.6-0.1,1-0.3L127,68.4z"/>
		<path class="st0" d="M132.3,61.8v1.6c-1.5-0.1-2.4,0.8-2.4,2v3.4h-1.7v-7h1.7v1.3C130.4,62.3,131.2,61.8,132.3,61.8z"/>
		<path class="st0" d="M137.2,68.9V68c-0.5,0.6-1.3,0.9-2.2,0.9c-1.5,0-2.4-0.9-2.4-2.2c0-1.3,0.9-2.1,2.6-2.1h2v-0.2
			c0-0.8-0.5-1.3-1.6-1.3c-0.7,0-1.4,0.2-2.1,0.7l-0.6-1.2c1-0.6,1.8-0.9,3.1-0.9c1.8,0,2.8,0.9,2.9,2.5l0,4.5H137.2z M137.2,66.4
			v-0.6h-1.8c-0.9,0-1.3,0.2-1.3,0.9c0,0.6,0.5,1,1.2,1C136.3,67.6,137.1,67.1,137.2,66.4z"/>
		<path class="st0" d="M144.7,61.8v1.6c-1.5-0.1-2.4,0.8-2.4,2v3.4h-1.7v-7h1.7v1.3C142.8,62.3,143.6,61.8,144.7,61.8z"/>
		<path class="st0" d="M147.8,63.1c-0.5,0-0.9,0.2-0.9,0.6c0,1.2,3.7,0.6,3.7,3.1c0,1.4-1.3,2.1-2.7,2.1c-1.1,0-2.1-0.3-2.9-1
			l0.6-1.2c0.6,0.5,1.6,0.9,2.4,0.9c0.6,0,1-0.2,1-0.6c0-1.3-3.6-0.6-3.6-3.1c0-1.4,1.2-2.1,2.6-2.1c0.9,0,1.9,0.3,2.5,0.7l-0.6,1.2
			C149.2,63.4,148.4,63.1,147.8,63.1z"/>
		<path class="st0" d="M158.1,66H153c0.2,1,1,1.6,2,1.6c0.7,0,1.4-0.3,1.9-0.8l0.9,0.9c-0.7,0.8-1.7,1.2-2.9,1.2
			c-2.2,0-3.6-1.4-3.6-3.5c0-2.1,1.5-3.5,3.5-3.5C157.2,61.8,158.3,63.4,158.1,66z M156.6,64.8c0-1-0.7-1.7-1.8-1.7
			c-1,0-1.7,0.7-1.9,1.7H156.6z"/>
		<path class="st0" d="M169.2,66h-5.1c0.2,1,1,1.6,2,1.6c0.7,0,1.4-0.3,1.9-0.8l0.9,0.9c-0.7,0.8-1.7,1.2-2.9,1.2
			c-2.2,0-3.6-1.4-3.6-3.5c0-2.1,1.5-3.5,3.5-3.5C168.3,61.8,169.4,63.4,169.2,66z M167.7,64.8c0-1-0.7-1.7-1.8-1.7
			c-1,0-1.7,0.7-1.9,1.7H167.7z"/>
		<path class="st0" d="M177.3,64.5v4.3h-1.7V65c0-1-0.6-1.6-1.5-1.6c-1.1,0-1.8,0.9-1.8,2v3.4h-1.7v-7h1.7v1.3
			c0.5-0.9,1.4-1.4,2.5-1.4C176.4,61.8,177.3,62.9,177.3,64.5z"/>
		<path class="st0" d="M184.7,63.1c-0.5,0-0.9,0.2-0.9,0.6c0,1.2,3.7,0.6,3.7,3.1c0,1.4-1.3,2.1-2.7,2.1c-1.1,0-2.1-0.3-2.9-1
			l0.6-1.2c0.6,0.5,1.6,0.9,2.4,0.9c0.6,0,1-0.2,1-0.6c0-1.3-3.6-0.6-3.6-3.1c0-1.4,1.2-2.1,2.6-2.1c0.9,0,1.9,0.3,2.5,0.7l-0.6,1.2
			C186.1,63.4,185.3,63.1,184.7,63.1z"/>
		<path class="st0" d="M195.2,61.9v7h-1.7v-1.3c-0.5,0.9-1.3,1.4-2.4,1.4c-1.6,0-2.5-1-2.5-2.7v-4.4h1.7v3.9c0,1,0.6,1.6,1.5,1.6
			c1.1,0,1.7-0.9,1.7-2v-3.4H195.2z"/>
		<path class="st0" d="M199.3,63.1c-0.5,0-0.9,0.2-0.9,0.6c0,1.2,3.7,0.6,3.7,3.1c0,1.4-1.3,2.1-2.7,2.1c-1.1,0-2.1-0.3-2.9-1
			l0.6-1.2c0.6,0.5,1.6,0.9,2.4,0.9c0.6,0,1-0.2,1-0.6c0-1.3-3.6-0.6-3.6-3.1c0-1.4,1.2-2.1,2.6-2.1c0.9,0,1.9,0.3,2.5,0.7l-0.6,1.2
			C200.6,63.4,199.9,63.1,199.3,63.1z"/>
		<path class="st0" d="M209.8,63.3c-1.1,0-1.9,0.8-1.9,2.1c0,1.2,0.8,2.1,1.9,2.1c0.8,0,1.5-0.3,1.9-0.8l1.1,0.9
			c-0.6,0.9-1.7,1.4-3,1.4c-2.1,0-3.5-1.4-3.5-3.5c0-2.1,1.4-3.5,3.5-3.5c1.3,0,2.3,0.5,2.9,1.3l-1,1
			C211.2,63.6,210.6,63.3,209.8,63.3z"/>
		<path class="st0" d="M217.9,68.9V68c-0.5,0.6-1.3,0.9-2.2,0.9c-1.5,0-2.4-0.9-2.4-2.2c0-1.3,0.9-2.1,2.6-2.1h2v-0.2
			c0-0.8-0.5-1.3-1.6-1.3c-0.7,0-1.4,0.2-2.1,0.7l-0.6-1.2c1-0.6,1.8-0.9,3.1-0.9c1.8,0,2.8,0.9,2.9,2.5l0,4.5H217.9z M217.9,66.4
			v-0.6h-1.8c-0.9,0-1.3,0.2-1.3,0.9c0,0.6,0.5,1,1.2,1C217.1,67.6,217.8,67.1,217.9,66.4z"/>
		<path class="st0" d="M223.4,63.1c-0.5,0-0.9,0.2-0.9,0.6c0,1.2,3.7,0.6,3.7,3.1c0,1.4-1.3,2.1-2.7,2.1c-1.1,0-2.1-0.3-2.9-1
			l0.6-1.2c0.6,0.5,1.6,0.9,2.4,0.9c0.6,0,1-0.2,1-0.6c0-1.3-3.6-0.6-3.6-3.1c0-1.4,1.2-2.1,2.6-2.1c0.9,0,1.9,0.3,2.5,0.7l-0.6,1.2
			C224.8,63.4,224,63.1,223.4,63.1z"/>
		<path class="st0" d="M231.6,68.9V68c-0.5,0.6-1.3,0.9-2.2,0.9c-1.5,0-2.4-0.9-2.4-2.2c0-1.3,0.9-2.1,2.6-2.1h2v-0.2
			c0-0.8-0.5-1.3-1.6-1.3c-0.7,0-1.4,0.2-2.1,0.7l-0.6-1.2c1-0.6,1.8-0.9,3.1-0.9c1.8,0,2.8,0.9,2.9,2.5l0,4.5H231.6z M231.6,66.4
			v-0.6h-1.8c-0.9,0-1.3,0.2-1.3,0.9c0,0.6,0.5,1,1.2,1C230.7,67.6,231.5,67.1,231.6,66.4z"/>
		<path class="st0" d="M237.1,63.1c-0.5,0-0.9,0.2-0.9,0.6c0,1.2,3.7,0.6,3.7,3.1c0,1.4-1.3,2.1-2.7,2.1c-1.1,0-2.1-0.3-2.9-1
			l0.6-1.2c0.6,0.5,1.6,0.9,2.4,0.9c0.6,0,1-0.2,1-0.6c0-1.3-3.6-0.6-3.6-3.1c0-1.4,1.2-2.1,2.6-2.1c0.9,0,1.9,0.3,2.5,0.7l-0.6,1.2
			C238.5,63.4,237.7,63.1,237.1,63.1z"/>
		<path class="st0" d="M242.4,68c0,0.3-0.1,0.5-0.2,0.7l-0.8,1.2h-0.8l0.5-1.2c-0.2-0.2-0.4-0.4-0.4-0.7c0-0.5,0.4-0.9,0.9-0.9
			C242,67.1,242.4,67.4,242.4,68z"/>
		<path class="st0" d="M254.8,65.4c0,2.1-1.3,3.5-3.3,3.5c-1.1,0-1.9-0.4-2.4-1.2v3.7h-1.7v-9.5h1.7V63c0.5-0.8,1.3-1.2,2.3-1.2
			C253.5,61.8,254.8,63.3,254.8,65.4z M253.1,65.4c0-1.2-0.8-2.1-2-2.1c-1.2,0-2,0.9-2,2.1c0,1.2,0.8,2.1,2,2.1
			C252.3,67.5,253.1,66.6,253.1,65.4z"/>
		<path class="st0" d="M262.9,65.4c0,2.1-1.5,3.5-3.7,3.5c-2.2,0-3.7-1.4-3.7-3.5c0-2.1,1.5-3.5,3.7-3.5
			C261.4,61.8,262.9,63.3,262.9,65.4z M257.3,65.4c0,1.2,0.8,2.1,2,2.1c1.1,0,2-0.9,2-2.1s-0.8-2.1-2-2.1
			C258.1,63.3,257.3,64.1,257.3,65.4z"/>
		<path class="st0" d="M268.3,61.8v1.6c-1.5-0.1-2.4,0.8-2.4,2v3.4h-1.7v-7h1.7v1.3C266.4,62.3,267.2,61.8,268.3,61.8z"/>
		<path class="st0" d="M13.5,77.9v9.6h-1.7v-9.6H13.5z"/>
		<path class="st0" d="M19.7,87.5v-0.8c-0.5,0.6-1.3,0.9-2.2,0.9c-1.5,0-2.4-0.9-2.4-2.2c0-1.3,0.9-2.1,2.6-2.1h2v-0.2
			c0-0.8-0.5-1.3-1.6-1.3c-0.7,0-1.4,0.2-2.1,0.7l-0.6-1.2c1-0.6,1.8-0.9,3.1-0.9c1.8,0,2.8,0.9,2.9,2.5l0,4.5H19.7z M19.6,85.1
			v-0.6h-1.8c-0.9,0-1.3,0.2-1.3,0.9c0,0.6,0.5,1,1.2,1C18.8,86.3,19.6,85.8,19.6,85.1z"/>
		<path class="st0" d="M28.2,81.8c-0.5,0-0.9,0.2-0.9,0.6c0,1.2,3.7,0.6,3.7,3.1c0,1.4-1.3,2.1-2.7,2.1c-1.1,0-2.1-0.3-2.9-1
			l0.6-1.2c0.6,0.5,1.6,0.9,2.4,0.9c0.6,0,1-0.2,1-0.6c0-1.3-3.6-0.6-3.6-3.1c0-1.4,1.2-2.1,2.6-2.1c0.9,0,1.9,0.3,2.5,0.7l-0.6,1.2
			C29.6,82.1,28.8,81.8,28.2,81.8z"/>
		<path class="st0" d="M34,78.6c0,0.5-0.4,0.9-0.9,0.9c-0.5,0-0.9-0.4-0.9-0.9s0.4-0.9,0.9-0.9C33.6,77.7,34,78,34,78.6z M33.9,80.6
			v7h-1.7v-7H33.9z"/>
		<path class="st0" d="M40,87.1c-0.5,0.3-1.1,0.5-1.7,0.5c-1.1,0-2-0.7-2-2.1v-3.4h-1l0-1.2h1V79h1.7v1.9h2v1.2h-2v3.1
			c0,0.7,0.3,0.9,0.7,0.9c0.3,0,0.6-0.1,1-0.3L40,87.1z"/>
		<path class="st0" d="M47.6,80.6v7h-1.7v-1.3c-0.5,0.9-1.3,1.4-2.4,1.4c-1.6,0-2.5-1-2.5-2.7v-4.4h1.7v3.9c0,1,0.6,1.6,1.5,1.6
			c1.1,0,1.7-0.9,1.7-2v-3.4H47.6z"/>
		<path class="st0" d="M53.7,87.5v-0.8c-0.5,0.6-1.3,0.9-2.2,0.9c-1.5,0-2.4-0.9-2.4-2.2c0-1.3,0.9-2.1,2.6-2.1h2v-0.2
			c0-0.8-0.5-1.3-1.6-1.3c-0.7,0-1.4,0.2-2.1,0.7l-0.6-1.2c1-0.6,1.8-0.9,3.1-0.9c1.8,0,2.8,0.9,2.9,2.5l0,4.5H53.7z M53.7,85.1
			v-0.6h-1.8c-0.9,0-1.3,0.2-1.3,0.9c0,0.6,0.5,1,1.2,1C52.8,86.3,53.6,85.8,53.7,85.1z"/>
		<path class="st0" d="M60.1,82c-1.1,0-1.9,0.8-1.9,2.1c0,1.2,0.8,2.1,1.9,2.1c0.8,0,1.5-0.3,1.9-0.8l1.1,0.9
			c-0.6,0.9-1.7,1.4-3,1.4c-2.1,0-3.5-1.4-3.5-3.5c0-2.1,1.4-3.5,3.5-3.5c1.3,0,2.3,0.5,2.9,1.3l-1,1C61.4,82.3,60.8,82,60.1,82z"/>
		<path class="st0" d="M66.1,78.6c0,0.5-0.4,0.9-0.9,0.9c-0.5,0-0.9-0.4-0.9-0.9s0.4-0.9,0.9-0.9C65.7,77.7,66.1,78,66.1,78.6z
			 M66,80.6v7h-1.7v-7H66z"/>
		<path class="st0" d="M74.7,84.1c0,2.1-1.5,3.5-3.7,3.5c-2.2,0-3.7-1.4-3.7-3.5c0-2.1,1.5-3.5,3.7-3.5
			C73.2,80.5,74.7,81.9,74.7,84.1z M69,84.1c0,1.2,0.8,2.1,2,2.1c1.1,0,2-0.9,2-2.1S72.1,82,71,82C69.8,82,69,82.8,69,84.1z
			 M73.1,78.3l-1.6,1.3h-1.4l1.4-2L73.1,78.3z"/>
		<path class="st0" d="M82.8,83.2v4.3H81v-3.8c0-1-0.6-1.6-1.5-1.6c-1.1,0-1.8,0.9-1.8,2v3.4H76v-7h1.7v1.3c0.5-0.9,1.4-1.4,2.5-1.4
			C81.8,80.5,82.8,81.5,82.8,83.2z"/>
		<path class="st0" d="M94.2,80.6v9.5h-1.7v-3.6c-0.5,0.8-1.3,1.2-2.3,1.2c-2,0-3.3-1.5-3.3-3.6c0-2.1,1.3-3.5,3.3-3.5
			c1.1,0,1.9,0.4,2.4,1.2v-1.1H94.2z M92.6,84.1c0-1.2-0.8-2.1-2-2.1c-1.2,0-2,0.9-2,2.1c0,1.2,0.8,2.1,2,2.1
			C91.8,86.2,92.6,85.3,92.6,84.1z"/>
		<path class="st0" d="M102.7,80.6v7H101v-1.3c-0.5,0.9-1.3,1.4-2.4,1.4c-1.6,0-2.5-1-2.5-2.7v-4.4h1.7v3.9c0,1,0.6,1.6,1.5,1.6
			c1.1,0,1.7-0.9,1.7-2v-3.4H102.7z"/>
		<path class="st0" d="M110.9,84.6h-5.1c0.2,1,1,1.6,2,1.6c0.7,0,1.4-0.3,1.9-0.8l0.9,0.9c-0.7,0.8-1.7,1.2-2.9,1.2
			c-2.2,0-3.6-1.4-3.6-3.5c0-2.1,1.5-3.5,3.5-3.5C110,80.5,111.1,82.1,110.9,84.6z M109.4,83.5c0-1-0.7-1.7-1.8-1.7
			c-1,0-1.7,0.7-1.9,1.7H109.4z"/>
		<path class="st0" d="M116,80.6l1.8,5.3l1.8-5.3h1.7l-2.7,7h-1.7l-2.7-6.9L116,80.6z"/>
		<path class="st0" d="M123.9,78.6c0,0.5-0.4,0.9-0.9,0.9c-0.5,0-0.9-0.4-0.9-0.9s0.4-0.9,0.9-0.9C123.5,77.7,123.9,78,123.9,78.6z
			 M123.8,80.6v7h-1.7v-7H123.8z"/>
		<path class="st0" d="M126.5,80.6l1.8,5.3l1.8-5.3h1.7l-2.7,7h-1.7l-2.7-6.9L126.5,80.6z"/>
		<path class="st0" d="M138.6,84.6h-5.1c0.2,1,1,1.6,2,1.6c0.7,0,1.4-0.3,1.9-0.8l0.9,0.9c-0.7,0.8-1.7,1.2-2.9,1.2
			c-2.2,0-3.6-1.4-3.6-3.5c0-2.1,1.5-3.5,3.5-3.5C137.7,80.5,138.8,82.1,138.6,84.6z M137.1,83.5c0-1-0.7-1.7-1.8-1.7
			c-1,0-1.7,0.7-1.9,1.7H137.1z"/>
		<path class="st0" d="M149.7,83.2v4.3H148v-3.8c0-1-0.6-1.6-1.5-1.6c-1.1,0-1.8,0.9-1.8,2v3.4H143v-7h1.7v1.3
			c0.5-0.9,1.4-1.4,2.5-1.4C148.7,80.5,149.7,81.5,149.7,83.2z"/>
		<path class="st0" d="M157.9,80.6v7h-1.7v-1.3c-0.5,0.9-1.3,1.4-2.4,1.4c-1.6,0-2.5-1-2.5-2.7v-4.4h1.7v3.9c0,1,0.6,1.6,1.5,1.6
			c1.1,0,1.7-0.9,1.7-2v-3.4H157.9z"/>
		<path class="st0" d="M166.1,84.6H161c0.2,1,1,1.6,2,1.6c0.7,0,1.4-0.3,1.9-0.8l0.9,0.9c-0.7,0.8-1.7,1.2-2.9,1.2
			c-2.2,0-3.6-1.4-3.6-3.5c0-2.1,1.5-3.5,3.5-3.5C165.2,80.5,166.3,82.1,166.1,84.6z M164.6,83.5c0-1-0.7-1.7-1.8-1.7
			c-1,0-1.7,0.7-1.9,1.7H164.6z"/>
		<path class="st0" d="M169.5,81.8c-0.5,0-0.9,0.2-0.9,0.6c0,1.2,3.7,0.6,3.7,3.1c0,1.4-1.3,2.1-2.7,2.1c-1.1,0-2.1-0.3-2.9-1
			l0.6-1.2c0.6,0.5,1.6,0.9,2.4,0.9c0.6,0,1-0.2,1-0.6c0-1.3-3.6-0.6-3.6-3.1c0-1.4,1.2-2.1,2.6-2.1c0.9,0,1.9,0.3,2.5,0.7l-0.6,1.2
			C170.9,82.1,170.1,81.8,169.5,81.8z"/>
		<path class="st0" d="M177.7,87.1c-0.5,0.3-1.1,0.5-1.7,0.5c-1.1,0-2-0.7-2-2.1v-3.4h-1l0-1.2h1V79h1.7v1.9h2v1.2h-2v3.1
			c0,0.7,0.3,0.9,0.7,0.9c0.3,0,0.6-0.1,1-0.3L177.7,87.1z"/>
		<path class="st0" d="M182.9,80.5v1.6c-1.5-0.1-2.4,0.8-2.4,2v3.4h-1.7v-7h1.7v1.3C181,81,181.8,80.5,182.9,80.5z"/>
		<path class="st0" d="M190.7,84.1c0,2.1-1.5,3.5-3.7,3.5c-2.2,0-3.7-1.4-3.7-3.5c0-2.1,1.5-3.5,3.7-3.5
			C189.2,80.5,190.7,81.9,190.7,84.1z M185,84.1c0,1.2,0.8,2.1,2,2.1c1.1,0,2-0.9,2-2.1s-0.8-2.1-2-2.1C185.8,82,185,82.8,185,84.1z
			"/>
		<path class="st0" d="M202.4,84.1c0,2.1-1.3,3.5-3.3,3.5c-1.1,0-1.9-0.4-2.4-1.2v3.7h-1.7v-9.5h1.7v1.1c0.5-0.8,1.3-1.2,2.3-1.2
			C201.1,80.5,202.4,82,202.4,84.1z M200.7,84c0-1.2-0.8-2.1-2-2.1c-1.2,0-2,0.9-2,2.1c0,1.2,0.8,2.1,2,2.1
			C199.9,86.1,200.7,85.3,200.7,84z"/>
		<path class="st0" d="M207.9,87.5v-0.8c-0.5,0.6-1.3,0.9-2.2,0.9c-1.5,0-2.4-0.9-2.4-2.2c0-1.3,0.9-2.1,2.6-2.1h2v-0.2
			c0-0.8-0.5-1.3-1.6-1.3c-0.7,0-1.4,0.2-2.1,0.7l-0.6-1.2c1-0.6,1.8-0.9,3.1-0.9c1.8,0,2.8,0.9,2.9,2.5l0,4.5H207.9z M207.8,85.1
			v-0.6h-1.8c-0.9,0-1.3,0.2-1.3,0.9c0,0.6,0.5,1,1.2,1C207,86.3,207.7,85.8,207.8,85.1z"/>
		<path class="st0" d="M214.2,78.3l-1.6,1.3h-1.4l1.4-2L214.2,78.3z M213,80.6v7h-1.7v-7H213z"/>
		<path class="st0" d="M217,81.8c-0.5,0-0.9,0.2-0.9,0.6c0,1.2,3.7,0.6,3.7,3.1c0,1.4-1.3,2.1-2.7,2.1c-1.1,0-2.1-0.3-2.9-1l0.6-1.2
			c0.6,0.5,1.6,0.9,2.4,0.9c0.6,0,1-0.2,1-0.6c0-1.3-3.6-0.6-3.6-3.1c0-1.4,1.2-2.1,2.6-2.1c0.9,0,1.9,0.3,2.5,0.7l-0.6,1.2
			C218.4,82.1,217.6,81.8,217,81.8z"/>
		<path class="st0" d="M222.3,86.7c0,0.3-0.1,0.5-0.2,0.7l-0.8,1.2h-0.8l0.5-1.2c-0.2-0.2-0.4-0.4-0.4-0.7c0-0.5,0.4-0.9,0.9-0.9
			C221.9,85.8,222.3,86.1,222.3,86.7z"/>
		<path class="st0" d="M228.9,81.8c-0.5,0-0.9,0.2-0.9,0.6c0,1.2,3.7,0.6,3.7,3.1c0,1.4-1.3,2.1-2.7,2.1c-1.1,0-2.1-0.3-2.9-1
			l0.6-1.2c0.6,0.5,1.6,0.9,2.4,0.9c0.6,0,1-0.2,1-0.6c0-1.3-3.6-0.6-3.6-3.1c0-1.4,1.2-2.1,2.6-2.1c0.9,0,1.9,0.3,2.5,0.7l-0.6,1.2
			C230.3,82.1,229.5,81.8,228.9,81.8z"/>
		<path class="st0" d="M234.7,78.6c0,0.5-0.4,0.9-0.9,0.9c-0.5,0-0.9-0.4-0.9-0.9s0.4-0.9,0.9-0.9C234.3,77.7,234.7,78,234.7,78.6z
			 M234.7,80.6v7H233v-7H234.7z"/>
		<path class="st0" d="M243,80.6v6.3c0,2-1.4,3.3-3.6,3.3c-1.1,0-2.1-0.4-2.9-0.9l0.7-1.2c0.6,0.5,1.3,0.7,2.2,0.7
			c1.2,0,2-0.7,2-1.8v-0.8c-0.5,0.7-1.2,1.1-2.2,1.1c-1.8,0-3.1-1.4-3.1-3.4c0-2,1.2-3.3,3-3.3c1,0,1.8,0.4,2.3,1.1v-1H243z
			 M241.3,83.9c0-1.2-0.8-2-1.8-2s-1.8,0.8-1.9,2c0,1.2,0.8,2,1.9,2C240.5,85.9,241.3,85,241.3,83.9z"/>
		<path class="st0" d="M251.3,80.6v7h-1.7v-1.3c-0.5,0.9-1.3,1.4-2.4,1.4c-1.6,0-2.5-1-2.5-2.7v-4.4h1.7v3.9c0,1,0.6,1.6,1.5,1.6
			c1.1,0,1.7-0.9,1.7-2v-3.4H251.3z"/>
		<path class="st0" d="M259.5,84.6h-5.1c0.2,1,1,1.6,2,1.6c0.7,0,1.4-0.3,1.9-0.8l0.9,0.9c-0.7,0.8-1.7,1.2-2.9,1.2
			c-2.2,0-3.6-1.4-3.6-3.5c0-2.1,1.5-3.5,3.5-3.5C258.6,80.5,259.6,82.1,259.5,84.6z M257.9,83.5c0-1-0.7-1.7-1.8-1.7
			c-1,0-1.7,0.7-1.9,1.7H257.9z"/>
		<path class="st0" d="M267.6,83.2v4.3h-1.7v-3.8c0-1-0.6-1.6-1.5-1.6c-1.1,0-1.8,0.9-1.8,2v3.4h-1.7v-7h1.7v1.3
			c0.5-0.9,1.4-1.4,2.5-1.4C266.6,80.5,267.6,81.5,267.6,83.2z"/>
		<path class="st0" d="M15.8,105.8c-0.5,0.3-1.1,0.5-1.7,0.5c-1.1,0-2-0.7-2-2.1v-3.4h-1l0-1.2h1v-1.9h1.7v1.9h2v1.2h-2v3.1
			c0,0.7,0.3,0.9,0.7,0.9c0.3,0,0.6-0.1,1-0.3L15.8,105.8z"/>
		<path class="st0" d="M21.1,99.2v1.6c-1.5-0.1-2.4,0.8-2.4,2v3.4H17v-7h1.7v1.3C19.2,99.7,20,99.2,21.1,99.2z"/>
		<path class="st0" d="M26,106.2v-0.8c-0.5,0.6-1.3,0.9-2.2,0.9c-1.5,0-2.4-0.9-2.4-2.2c0-1.3,0.9-2.1,2.6-2.1h2v-0.2
			c0-0.8-0.5-1.3-1.6-1.3c-0.7,0-1.4,0.2-2.1,0.7l-0.6-1.2c1-0.6,1.8-0.9,3.1-0.9c1.8,0,2.8,0.9,2.9,2.5l0,4.5H26z M26,103.8v-0.6
			h-1.8c-0.9,0-1.3,0.2-1.3,0.9c0,0.6,0.5,1,1.2,1C25.1,105,25.9,104.5,26,103.8z"/>
		<path class="st0" d="M36.8,102.8c0,2.1-1.3,3.5-3.3,3.5c-1.1,0-1.9-0.4-2.4-1.2v1.1h-1.7v-9.6h1.7v3.8c0.5-0.8,1.3-1.2,2.3-1.2
			C35.5,99.2,36.8,100.6,36.8,102.8z M35.1,102.7c0-1.2-0.8-2.1-2-2.1c-1.2,0-2,0.9-2,2.1c0,1.2,0.8,2.1,2,2.1
			C34.3,104.8,35.1,104,35.1,102.7z"/>
		<path class="st0" d="M42.3,106.2v-0.8c-0.5,0.6-1.3,0.9-2.2,0.9c-1.5,0-2.4-0.9-2.4-2.2c0-1.3,0.9-2.1,2.6-2.1h2v-0.2
			c0-0.8-0.5-1.3-1.6-1.3c-0.7,0-1.4,0.2-2.1,0.7l-0.6-1.2c1-0.6,1.8-0.9,3.1-0.9c1.8,0,2.8,0.9,2.9,2.5l0,4.5H42.3z M42.2,103.8
			v-0.6h-1.8c-0.9,0-1.3,0.2-1.3,0.9c0,0.6,0.5,1,1.2,1C41.4,105,42.1,104.5,42.2,103.8z"/>
		<path class="st0" d="M45,108.8c-0.6,0-1.1-0.2-1.5-0.5L44,107c0.3,0.2,0.6,0.3,0.9,0.3c0.4,0,0.8-0.3,0.8-0.9v-7.2h1.7v7.2
			C47.4,108,46.2,108.8,45,108.8z M47.5,97.3c0,0.6-0.4,1-1,1c-0.6,0-1-0.4-1-1c0-0.6,0.4-1,1-1C47.1,96.3,47.5,96.7,47.5,97.3z"/>
		<path class="st0" d="M53.5,106.2v-0.8c-0.5,0.6-1.3,0.9-2.2,0.9c-1.5,0-2.4-0.9-2.4-2.2c0-1.3,0.9-2.1,2.6-2.1h2v-0.2
			c0-0.8-0.5-1.3-1.6-1.3c-0.7,0-1.4,0.2-2.1,0.7l-0.6-1.2c1-0.6,1.8-0.9,3.1-0.9c1.8,0,2.8,0.9,2.9,2.5l0,4.5H53.5z M53.5,103.8
			v-0.6h-1.8c-0.9,0-1.3,0.2-1.3,0.9c0,0.6,0.5,1,1.2,1C52.6,105,53.4,104.5,53.5,103.8z"/>
		<path class="st0" d="M63.7,101.9v4.3H62v-3.8c0-1-0.6-1.6-1.5-1.6c-1.1,0-1.8,0.9-1.8,2v3.4h-1.7v-7h1.7v1.3
			c0.5-0.9,1.4-1.4,2.5-1.4C62.7,99.2,63.7,100.2,63.7,101.9z"/>
		<path class="st0" d="M72.2,96.6v9.6h-1.7v-1.1c-0.5,0.8-1.3,1.2-2.3,1.2c-2,0-3.3-1.5-3.3-3.6c0-2.1,1.3-3.5,3.3-3.5
			c1.1,0,1.9,0.4,2.4,1.2v-3.8H72.2z M70.5,102.8c0-1.2-0.8-2.1-2-2.1c-1.2,0-2,0.9-2,2.1c0,1.2,0.8,2.1,2,2.1
			C69.7,104.9,70.5,104,70.5,102.8z"/>
		<path class="st0" d="M80.9,102.7c0,2.1-1.5,3.5-3.7,3.5c-2.2,0-3.7-1.4-3.7-3.5c0-2.1,1.5-3.5,3.7-3.5
			C79.4,99.2,80.9,100.6,80.9,102.7z M75.3,102.8c0,1.2,0.8,2.1,2,2.1c1.1,0,2-0.9,2-2.1s-0.8-2.1-2-2.1
			C76.1,100.7,75.3,101.5,75.3,102.8z"/>
		<path class="st0" d="M90.5,106.2v-0.8c-0.5,0.6-1.3,0.9-2.2,0.9c-1.5,0-2.4-0.9-2.4-2.2c0-1.3,0.9-2.1,2.6-2.1h2v-0.2
			c0-0.8-0.5-1.3-1.6-1.3c-0.7,0-1.4,0.2-2.1,0.7l-0.6-1.2c1-0.6,1.8-0.9,3.1-0.9c1.8,0,2.8,0.9,2.9,2.5l0,4.5H90.5z M90.4,103.8
			v-0.6h-1.8c-0.9,0-1.3,0.2-1.3,0.9c0,0.6,0.5,1,1.2,1C89.6,105,90.4,104.5,90.4,103.8z"/>
		<path class="st0" d="M97.9,99.2v1.6c-1.5-0.1-2.4,0.8-2.4,2v3.4h-1.7v-7h1.7v1.3C96,99.7,96.9,99.2,97.9,99.2z"/>
		<path class="st0" d="M105.7,96.6v9.6H104v-1.1c-0.5,0.8-1.3,1.2-2.3,1.2c-2,0-3.3-1.5-3.3-3.6c0-2.1,1.3-3.5,3.3-3.5
			c1.1,0,1.9,0.4,2.4,1.2v-3.8H105.7z M104,102.8c0-1.2-0.8-2.1-2-2.1c-1.2,0-2,0.9-2,2.1c0,1.2,0.8,2.1,2,2.1
			C103.2,104.9,104,104,104,102.8z"/>
		<path class="st0" d="M114.2,99.3v7h-1.7v-1.3c-0.5,0.9-1.3,1.4-2.4,1.4c-1.6,0-2.5-1-2.5-2.7v-4.4h1.7v3.9c0,1,0.6,1.6,1.5,1.6
			c1.1,0,1.7-0.9,1.7-2v-3.4H114.2z"/>
		<path class="st0" d="M120.3,106.2v-0.8c-0.5,0.6-1.3,0.9-2.2,0.9c-1.5,0-2.4-0.9-2.4-2.2c0-1.3,0.9-2.1,2.6-2.1h2v-0.2
			c0-0.8-0.5-1.3-1.6-1.3c-0.7,0-1.4,0.2-2.1,0.7l-0.6-1.2c1-0.6,1.8-0.9,3.1-0.9c1.8,0,2.8,0.9,2.9,2.5l0,4.5H120.3z M120.2,103.8
			v-0.6h-1.8c-0.9,0-1.3,0.2-1.3,0.9c0,0.6,0.5,1,1.2,1C119.4,105,120.1,104.5,120.2,103.8z"/>
		<path class="st0" d="M135.3,101.9v4.3h-1.7v-3.8c0-1-0.6-1.6-1.5-1.6c-1.1,0-1.8,0.9-1.8,2v3.4h-1.7v-3.8c0-1-0.6-1.6-1.5-1.6
			c-1.1,0-1.8,0.9-1.8,2v3.4h-1.7v-7h1.7v1.3c0.5-0.9,1.3-1.3,2.4-1.4c1.2,0,2.1,0.6,2.4,1.7c0.5-1.1,1.4-1.7,2.6-1.7
			C134.4,99.2,135.3,100.2,135.3,101.9z"/>
		<path class="st0" d="M143.3,103.3h-5.1c0.2,1,1,1.6,2,1.6c0.7,0,1.4-0.3,1.9-0.8l0.9,0.9c-0.7,0.8-1.7,1.2-2.9,1.2
			c-2.2,0-3.6-1.4-3.6-3.5c0-2.1,1.5-3.5,3.5-3.5C142.4,99.2,143.5,100.8,143.3,103.3z M141.8,102.2c0-1-0.7-1.7-1.8-1.7
			c-1,0-1.7,0.7-1.9,1.7H141.8z"/>
		<path class="st0" d="M151.4,101.9v4.3h-1.7v-3.8c0-1-0.6-1.6-1.5-1.6c-1.1,0-1.8,0.9-1.8,2v3.4h-1.7v-7h1.7v1.3
			c0.5-0.9,1.4-1.4,2.5-1.4C150.4,99.2,151.4,100.2,151.4,101.9z"/>
		<path class="st0" d="M157.2,105.8c-0.5,0.3-1.1,0.5-1.7,0.5c-1.1,0-2-0.7-2-2.1v-3.4h-1l0-1.2h1v-1.9h1.7v1.9h2v1.2h-2v3.1
			c0,0.7,0.3,0.9,0.7,0.9c0.3,0,0.6-0.1,1-0.3L157.2,105.8z"/>
		<path class="st0" d="M164.6,103.3h-5.1c0.2,1,1,1.6,2,1.6c0.7,0,1.4-0.3,1.9-0.8l0.9,0.9c-0.7,0.8-1.7,1.2-2.9,1.2
			c-2.2,0-3.6-1.4-3.6-3.5c0-2.1,1.5-3.5,3.5-3.5C163.7,99.2,164.8,100.8,164.6,103.3z M163.1,102.2c0-1-0.7-1.7-1.8-1.7
			c-1,0-1.7,0.7-1.9,1.7H163.1z"/>
		<path class="st0" d="M177.4,102.8c0,2.1-1.3,3.5-3.3,3.5c-1.1,0-1.9-0.4-2.4-1.2v3.7h-1.7v-9.5h1.7v1.1c0.5-0.8,1.3-1.2,2.3-1.2
			C176.1,99.2,177.4,100.6,177.4,102.8z M175.7,102.7c0-1.2-0.8-2.1-2-2.1c-1.2,0-2,0.9-2,2.1c0,1.2,0.8,2.1,2,2.1
			C174.9,104.8,175.7,104,175.7,102.7z"/>
		<path class="st0" d="M182.9,106.2v-0.8c-0.5,0.6-1.3,0.9-2.2,0.9c-1.5,0-2.4-0.9-2.4-2.2c0-1.3,0.9-2.1,2.6-2.1h2v-0.2
			c0-0.8-0.5-1.3-1.6-1.3c-0.7,0-1.4,0.2-2.1,0.7l-0.6-1.2c1-0.6,1.8-0.9,3.1-0.9c1.8,0,2.8,0.9,2.9,2.5l0,4.5H182.9z M182.9,103.8
			v-0.6h-1.8c-0.9,0-1.3,0.2-1.3,0.9c0,0.6,0.5,1,1.2,1C182,105,182.8,104.5,182.9,103.8z"/>
		<path class="st0" d="M190.4,99.2v1.6c-1.5-0.1-2.4,0.8-2.4,2v3.4h-1.7v-7h1.7v1.3C188.5,99.7,189.3,99.2,190.4,99.2z"/>
		<path class="st0" d="M195.3,106.2v-0.8c-0.5,0.6-1.3,0.9-2.2,0.9c-1.5,0-2.4-0.9-2.4-2.2c0-1.3,0.9-2.1,2.6-2.1h2v-0.2
			c0-0.8-0.5-1.3-1.6-1.3c-0.7,0-1.4,0.2-2.1,0.7l-0.6-1.2c1-0.6,1.8-0.9,3.1-0.9c1.8,0,2.8,0.9,2.9,2.5l0,4.5H195.3z M195.3,103.8
			v-0.6h-1.8c-0.9,0-1.3,0.2-1.3,0.9c0,0.6,0.5,1,1.2,1C194.4,105,195.2,104.5,195.3,103.8z"/>
		<path class="st0" d="M209,103.3h-5.1c0.2,1,1,1.6,2,1.6c0.7,0,1.4-0.3,1.9-0.8l0.9,0.9c-0.7,0.8-1.7,1.2-2.9,1.2
			c-2.2,0-3.6-1.4-3.6-3.5c0-2.1,1.5-3.5,3.5-3.5C208.1,99.2,209.2,100.8,209,103.3z M207.5,102.2c0-1-0.7-1.7-1.8-1.7
			c-1,0-1.7,0.7-1.9,1.7H207.5z"/>
		<path class="st0" d="M217.1,101.9v4.3h-1.7v-3.8c0-1-0.6-1.6-1.5-1.6c-1.1,0-1.8,0.9-1.8,2v3.4h-1.7v-7h1.7v1.3
			c0.5-0.9,1.4-1.4,2.5-1.4C216.1,99.2,217.1,100.2,217.1,101.9z"/>
		<path class="st0" d="M223,105.8c-0.5,0.3-1.1,0.5-1.7,0.5c-1.1,0-2-0.7-2-2.1v-3.4h-1l0-1.2h1v-1.9h1.7v1.9h2v1.2h-2v3.1
			c0,0.7,0.3,0.9,0.7,0.9c0.3,0,0.6-0.1,1-0.3L223,105.8z"/>
		<path class="st0" d="M228.2,99.2v1.6c-1.5-0.1-2.4,0.8-2.4,2v3.4h-1.7v-7h1.7v1.3C226.3,99.7,227.1,99.2,228.2,99.2z"/>
		<path class="st0" d="M235.5,103.3h-5.1c0.2,1,1,1.6,2,1.6c0.7,0,1.4-0.3,1.9-0.8l0.9,0.9c-0.7,0.8-1.7,1.2-2.9,1.2
			c-2.2,0-3.6-1.4-3.6-3.5c0-2.1,1.5-3.5,3.5-3.5C234.6,99.2,235.7,100.8,235.5,103.3z M234,102.2c0-1-0.7-1.7-1.8-1.7
			c-1,0-1.7,0.7-1.9,1.7H234z"/>
		<path class="st0" d="M243.2,99.3v6.3c0,2-1.4,3.3-3.6,3.3c-1.1,0-2.1-0.4-2.9-0.9l0.7-1.2c0.6,0.5,1.3,0.7,2.2,0.7
			c1.2,0,2-0.7,2-1.8v-0.8c-0.5,0.7-1.2,1.1-2.2,1.1c-1.8,0-3.1-1.4-3.1-3.4c0-2,1.2-3.3,3-3.3c1,0,1.8,0.4,2.3,1.1v-1H243.2z
			 M241.5,102.5c0-1.2-0.8-2-1.8-2s-1.8,0.8-1.9,2c0,1.2,0.8,2,1.9,2C240.7,104.5,241.5,103.7,241.5,102.5z"/>
		<path class="st0" d="M249.2,106.2v-0.8c-0.5,0.6-1.3,0.9-2.2,0.9c-1.5,0-2.4-0.9-2.4-2.2c0-1.3,0.9-2.1,2.6-2.1h2v-0.2
			c0-0.8-0.5-1.3-1.6-1.3c-0.7,0-1.4,0.2-2.1,0.7l-0.6-1.2c1-0.6,1.8-0.9,3.1-0.9c1.8,0,2.8,0.9,2.9,2.5l0,4.5H249.2z M249.1,103.8
			v-0.6h-1.8c-0.9,0-1.3,0.2-1.3,0.9c0,0.6,0.5,1,1.2,1C248.3,105,249.1,104.5,249.1,103.8z"/>
		<path class="st0" d="M256.6,99.2v1.6c-1.5-0.1-2.4,0.8-2.4,2v3.4h-1.7v-7h1.7v1.3C254.7,99.7,255.6,99.2,256.6,99.2z"/>
		<path class="st0" d="M265.9,106.2v-0.8c-0.5,0.6-1.3,0.9-2.2,0.9c-1.5,0-2.4-0.9-2.4-2.2c0-1.3,0.9-2.1,2.6-2.1h2v-0.2
			c0-0.8-0.5-1.3-1.6-1.3c-0.7,0-1.4,0.2-2.1,0.7l-0.6-1.2c1-0.6,1.8-0.9,3.1-0.9c1.8,0,2.8,0.9,2.9,2.5l0,4.5H265.9z M265.9,103.8
			v-0.6h-1.8c-0.9,0-1.3,0.2-1.3,0.9c0,0.6,0.5,1,1.2,1C265,105,265.8,104.5,265.9,103.8z"/>
		<path class="st0" d="M18.5,120.6v4.3h-1.7V121c0-1-0.6-1.6-1.5-1.6c-1.1,0-1.8,0.9-1.8,2v3.4h-1.7v-7h1.7v1.3
			c0.5-0.9,1.4-1.4,2.5-1.4C17.5,117.9,18.5,118.9,18.5,120.6z"/>
		<path class="st0" d="M26.7,117.9v7H25v-1.3c-0.5,0.9-1.3,1.4-2.4,1.4c-1.6,0-2.5-1-2.5-2.7v-4.4h1.7v3.9c0,1,0.6,1.6,1.5,1.6
			c1.1,0,1.7-0.9,1.7-2v-3.4H26.7z"/>
		<path class="st0" d="M34.9,122h-5.1c0.2,1,1,1.6,2,1.6c0.7,0,1.4-0.3,1.9-0.8l0.9,0.9c-0.7,0.8-1.7,1.2-2.9,1.2
			c-2.2,0-3.6-1.4-3.6-3.5c0-2.1,1.5-3.5,3.5-3.5C34,117.9,35.1,119.5,34.9,122z M33.4,120.9c0-1-0.7-1.7-1.8-1.7
			c-1,0-1.7,0.7-1.9,1.7H33.4z"/>
		<path class="st0" d="M38.3,119.2c-0.5,0-0.9,0.2-0.9,0.6c0,1.2,3.7,0.6,3.7,3.1c0,1.4-1.3,2.1-2.7,2.1c-1.1,0-2.1-0.3-2.9-1
			l0.6-1.2c0.6,0.5,1.6,0.9,2.4,0.9c0.6,0,1-0.2,1-0.6c0-1.3-3.6-0.6-3.6-3.1c0-1.4,1.2-2.1,2.6-2.1c0.9,0,1.9,0.3,2.5,0.7l-0.6,1.2
			C39.7,119.4,38.9,119.2,38.3,119.2z"/>
		<path class="st0" d="M46.5,124.5c-0.5,0.3-1.1,0.5-1.7,0.5c-1.1,0-2-0.7-2-2.1v-3.4h-1l0-1.2h1v-1.9h1.7v1.9h2v1.2h-2v3.1
			c0,0.7,0.3,0.9,0.7,0.9c0.3,0,0.6-0.1,1-0.3L46.5,124.5z"/>
		<path class="st0" d="M51.7,117.9v1.6c-1.5-0.1-2.4,0.8-2.4,2v3.4h-1.7v-7h1.7v1.3C49.8,118.4,50.6,117.9,51.7,117.9z"/>
		<path class="st0" d="M59.5,121.4c0,2.1-1.5,3.5-3.7,3.5c-2.2,0-3.7-1.4-3.7-3.5c0-2.1,1.5-3.5,3.7-3.5
			C58,117.9,59.5,119.3,59.5,121.4z M53.8,121.4c0,1.2,0.8,2.1,2,2.1c1.1,0,2-0.9,2-2.1s-0.8-2.1-2-2.1
			C54.6,119.3,53.8,120.2,53.8,121.4z"/>
		<path class="st0" d="M62.9,119.2c-0.5,0-0.9,0.2-0.9,0.6c0,1.2,3.7,0.6,3.7,3.1c0,1.4-1.3,2.1-2.7,2.1c-1.1,0-2.1-0.3-2.9-1
			l0.6-1.2c0.6,0.5,1.6,0.9,2.4,0.9c0.6,0,1-0.2,1-0.6c0-1.3-3.6-0.6-3.6-3.1c0-1.4,1.2-2.1,2.6-2.1c0.9,0,1.9,0.3,2.5,0.7l-0.6,1.2
			C64.2,119.4,63.5,119.2,62.9,119.2z"/>
		<path class="st0" d="M74.7,124.9v-0.8c-0.5,0.6-1.3,0.9-2.2,0.9c-1.5,0-2.4-0.9-2.4-2.2c0-1.3,0.9-2.1,2.6-2.1h2v-0.2
			c0-0.8-0.5-1.3-1.6-1.3c-0.7,0-1.4,0.2-2.1,0.7l-0.6-1.2c1-0.6,1.8-0.9,3.1-0.9c1.8,0,2.8,0.9,2.9,2.5l0,4.5H74.7z M74.7,122.5
			v-0.6h-1.8c-0.9,0-1.3,0.2-1.3,0.9c0,0.6,0.5,1,1.2,1C73.8,123.7,74.6,123.2,74.7,122.5z"/>
		<path class="st0" d="M79.9,115.3v9.6h-1.7v-9.6H79.9z"/>
		<path class="st0" d="M88.4,117.9v7h-1.7v-1.3c-0.5,0.9-1.3,1.4-2.4,1.4c-1.6,0-2.5-1-2.5-2.7v-4.4h1.7v3.9c0,1,0.6,1.6,1.5,1.6
			c1.1,0,1.7-0.9,1.7-2v-3.4H88.4z"/>
		<path class="st0" d="M102,120.6v4.3h-1.7V121c0-1-0.6-1.6-1.5-1.6c-1.1,0-1.8,0.9-1.8,2v3.4h-1.7V121c0-1-0.6-1.6-1.5-1.6
			c-1.1,0-1.8,0.9-1.8,2v3.4h-1.7v-7H92v1.3c0.5-0.9,1.3-1.3,2.4-1.4c1.2,0,2.1,0.6,2.4,1.7c0.5-1.1,1.4-1.7,2.6-1.7
			C101,117.9,102,118.9,102,120.6z"/>
		<path class="st0" d="M110.5,120.6v4.3h-1.7V121c0-1-0.6-1.6-1.5-1.6c-1.1,0-1.8,0.9-1.8,2v3.4h-1.7v-7h1.7v1.3
			c0.5-0.9,1.4-1.4,2.5-1.4C109.5,117.9,110.5,118.9,110.5,120.6z"/>
		<path class="st0" d="M119,121.4c0,2.1-1.5,3.5-3.7,3.5c-2.2,0-3.7-1.4-3.7-3.5c0-2.1,1.5-3.5,3.7-3.5
			C117.5,117.9,119,119.3,119,121.4z M113.3,121.4c0,1.2,0.8,2.1,2,2.1c1.1,0,2-0.9,2-2.1s-0.8-2.1-2-2.1
			C114.1,119.3,113.3,120.2,113.3,121.4z"/>
		<path class="st0" d="M122.4,119.2c-0.5,0-0.9,0.2-0.9,0.6c0,1.2,3.7,0.6,3.7,3.1c0,1.4-1.3,2.1-2.7,2.1c-1.1,0-2.1-0.3-2.9-1
			l0.6-1.2c0.6,0.5,1.6,0.9,2.4,0.9c0.6,0,1-0.2,1-0.6c0-1.3-3.6-0.6-3.6-3.1c0-1.4,1.2-2.1,2.6-2.1c0.9,0,1.9,0.3,2.5,0.7l-0.6,1.2
			C123.7,119.4,123,119.2,122.4,119.2z"/>
		<path class="st0" d="M131.9,115.3v9.6h-1.7v-9.6H131.9z"/>
		<path class="st0" d="M138,124.9v-0.8c-0.5,0.6-1.3,0.9-2.2,0.9c-1.5,0-2.4-0.9-2.4-2.2c0-1.3,0.9-2.1,2.6-2.1h2v-0.2
			c0-0.8-0.5-1.3-1.6-1.3c-0.7,0-1.4,0.2-2.1,0.7l-0.6-1.2c1-0.6,1.8-0.9,3.1-0.9c1.8,0,2.8,0.9,2.9,2.5l0,4.5H138z M138,122.5v-0.6
			h-1.8c-0.9,0-1.3,0.2-1.3,0.9c0,0.6,0.5,1,1.2,1C137.1,123.7,137.9,123.2,138,122.5z"/>
		<path class="st0" d="M148.1,119.4c-1.1,0-1.9,0.8-1.9,2.1c0,1.2,0.8,2.1,1.9,2.1c0.8,0,1.5-0.3,1.9-0.8l1.1,0.9
			c-0.6,0.9-1.7,1.4-3,1.4c-2.1,0-3.5-1.4-3.5-3.5c0-2.1,1.4-3.5,3.5-3.5c1.3,0,2.3,0.5,2.9,1.3l-1,1
			C149.5,119.7,148.9,119.4,148.1,119.4z"/>
		<path class="st0" d="M156.2,124.9v-0.8c-0.5,0.6-1.3,0.9-2.2,0.9c-1.5,0-2.4-0.9-2.4-2.2c0-1.3,0.9-2.1,2.6-2.1h2v-0.2
			c0-0.8-0.5-1.3-1.6-1.3c-0.7,0-1.4,0.2-2.1,0.7l-0.6-1.2c1-0.6,1.8-0.9,3.1-0.9c1.8,0,2.8,0.9,2.9,2.5l0,4.5H156.2z M156.2,122.5
			v-0.6h-1.8c-0.9,0-1.3,0.2-1.3,0.9c0,0.6,0.5,1,1.2,1C155.3,123.7,156.1,123.2,156.2,122.5z"/>
		<path class="st0" d="M161.4,115.3v9.6h-1.7v-9.6H161.4z"/>
		<path class="st0" d="M165.2,116c0,0.5-0.4,0.9-0.9,0.9c-0.5,0-0.9-0.4-0.9-0.9s0.4-0.9,0.9-0.9C164.8,115,165.2,115.4,165.2,116z
			 M165.1,117.9v7h-1.7v-7H165.1z"/>
		<path class="st0" d="M173.8,115.3v9.6h-1.7v-1.1c-0.5,0.8-1.3,1.2-2.3,1.2c-2,0-3.3-1.5-3.3-3.6c0-2.1,1.3-3.5,3.3-3.5
			c1.1,0,1.9,0.4,2.4,1.2v-3.8H173.8z M172.1,121.4c0-1.2-0.8-2.1-2-2.1c-1.2,0-2,0.9-2,2.1c0,1.2,0.8,2.1,2,2.1
			C171.3,123.6,172.1,122.7,172.1,121.4z"/>
		<path class="st0" d="M179.9,124.9v-0.8c-0.5,0.6-1.3,0.9-2.2,0.9c-1.5,0-2.4-0.9-2.4-2.2c0-1.3,0.9-2.1,2.6-2.1h2v-0.2
			c0-0.8-0.5-1.3-1.6-1.3c-0.7,0-1.4,0.2-2.1,0.7l-0.6-1.2c1-0.6,1.8-0.9,3.1-0.9c1.8,0,2.8,0.9,2.9,2.5l0,4.5H179.9z M179.9,122.5
			v-0.6h-1.8c-0.9,0-1.3,0.2-1.3,0.9c0,0.6,0.5,1,1.2,1C179.1,123.7,179.8,123.2,179.9,122.5z"/>
		<path class="st0" d="M190.1,115.3v9.6h-1.7v-1.1c-0.5,0.8-1.3,1.2-2.3,1.2c-2,0-3.3-1.5-3.3-3.6c0-2.1,1.3-3.5,3.3-3.5
			c1.1,0,1.9,0.4,2.4,1.2v-3.8H190.1z M188.4,121.4c0-1.2-0.8-2.1-2-2.1c-1.2,0-2,0.9-2,2.1c0,1.2,0.8,2.1,2,2.1
			C187.6,123.6,188.4,122.7,188.4,121.4z"/>
		<path class="st0" d="M202,122h-5.1c0.2,1,1,1.6,2,1.6c0.7,0,1.4-0.3,1.9-0.8l0.9,0.9c-0.7,0.8-1.7,1.2-2.9,1.2
			c-2.2,0-3.6-1.4-3.6-3.5c0-2.1,1.5-3.5,3.5-3.5C201.1,117.9,202.2,119.5,202,122z M200.5,120.9c0-1-0.7-1.7-1.8-1.7
			c-1,0-1.7,0.7-1.9,1.7H200.5z"/>
		<path class="st0" d="M210.1,115.3v9.6h-1.7v-1.1c-0.5,0.8-1.3,1.2-2.3,1.2c-2,0-3.3-1.5-3.3-3.6c0-2.1,1.3-3.5,3.3-3.5
			c1.1,0,1.9,0.4,2.4,1.2v-3.8H210.1z M208.4,121.4c0-1.2-0.8-2.1-2-2.1c-1.2,0-2,0.9-2,2.1c0,1.2,0.8,2.1,2,2.1
			C207.6,123.6,208.4,122.7,208.4,121.4z"/>
		<path class="st0" d="M218.5,117.9v7h-1.7v-1.3c-0.5,0.9-1.3,1.4-2.4,1.4c-1.6,0-2.5-1-2.5-2.7v-4.4h1.7v3.9c0,1,0.6,1.6,1.5,1.6
			c1.1,0,1.7-0.9,1.7-2v-3.4H218.5z"/>
		<path class="st0" d="M223.5,119.4c-1.1,0-1.9,0.8-1.9,2.1c0,1.2,0.8,2.1,1.9,2.1c0.8,0,1.5-0.3,1.9-0.8l1.1,0.9
			c-0.6,0.9-1.7,1.4-3,1.4c-2.1,0-3.5-1.4-3.5-3.5c0-2.1,1.4-3.5,3.5-3.5c1.3,0,2.3,0.5,2.9,1.3l-1,1
			C224.8,119.7,224.2,119.4,223.5,119.4z"/>
		<path class="st0" d="M231.6,124.9v-0.8c-0.5,0.6-1.3,0.9-2.2,0.9c-1.5,0-2.4-0.9-2.4-2.2c0-1.3,0.9-2.1,2.6-2.1h2v-0.2
			c0-0.8-0.5-1.3-1.6-1.3c-0.7,0-1.4,0.2-2.1,0.7l-0.6-1.2c1-0.6,1.8-0.9,3.1-0.9c1.8,0,2.8,0.9,2.9,2.5l0,4.5H231.6z M231.6,122.5
			v-0.6h-1.8c-0.9,0-1.3,0.2-1.3,0.9c0,0.6,0.5,1,1.2,1C230.7,123.7,231.5,123.2,231.6,122.5z"/>
		<path class="st0" d="M239.1,124.5c-0.5,0.3-1.1,0.5-1.7,0.5c-1.1,0-2-0.7-2-2.1v-3.4h-1l0-1.2h1v-1.9h1.7v1.9h2v1.2h-2v3.1
			c0,0.7,0.3,0.9,0.7,0.9c0.3,0,0.6-0.1,1-0.3L239.1,124.5z"/>
		<path class="st0" d="M242,116c0,0.5-0.4,0.9-0.9,0.9c-0.5,0-0.9-0.4-0.9-0.9s0.4-0.9,0.9-0.9C241.6,115,242,115.4,242,116z
			 M242,117.9v7h-1.7v-7H242z"/>
		<path class="st0" d="M244.6,117.9l1.8,5.3l1.8-5.3h1.7l-2.7,7h-1.7l-2.7-6.9L244.6,117.9z"/>
		<path class="st0" d="M254.7,124.9v-0.8c-0.5,0.6-1.3,0.9-2.2,0.9c-1.5,0-2.4-0.9-2.4-2.2c0-1.3,0.9-2.1,2.6-2.1h2v-0.2
			c0-0.8-0.5-1.3-1.6-1.3c-0.7,0-1.4,0.2-2.1,0.7l-0.6-1.2c1-0.6,1.8-0.9,3.1-0.9c1.8,0,2.8,0.9,2.9,2.5l0,4.5H254.7z M254.7,122.5
			v-0.6h-1.8c-0.9,0-1.3,0.2-1.3,0.9c0,0.6,0.5,1,1.2,1C253.8,123.7,254.6,123.2,254.7,122.5z"/>
		<path class="st0" d="M265.9,124.9v-0.8c-0.5,0.6-1.3,0.9-2.2,0.9c-1.5,0-2.4-0.9-2.4-2.2c0-1.3,0.9-2.1,2.6-2.1h2v-0.2
			c0-0.8-0.5-1.3-1.6-1.3c-0.7,0-1.4,0.2-2.1,0.7l-0.6-1.2c1-0.6,1.8-0.9,3.1-0.9c1.8,0,2.8,0.9,2.9,2.5l0,4.5H265.9z M265.9,122.5
			v-0.6h-1.8c-0.9,0-1.3,0.2-1.3,0.9c0,0.6,0.5,1,1.2,1C265,123.7,265.8,123.2,265.9,122.5z"/>
		<path class="st0" d="M13.5,133.9v9.6h-1.7v-9.6H13.5z"/>
		<path class="st0" d="M19.7,143.6v-0.8c-0.5,0.6-1.3,0.9-2.2,0.9c-1.5,0-2.4-0.9-2.4-2.2c0-1.3,0.9-2.1,2.6-2.1h2v-0.2
			c0-0.8-0.5-1.3-1.6-1.3c-0.7,0-1.4,0.2-2.1,0.7l-0.6-1.2c1-0.6,1.8-0.9,3.1-0.9c1.8,0,2.8,0.9,2.9,2.5l0,4.5H19.7z M19.6,141.2
			v-0.6h-1.8c-0.9,0-1.3,0.2-1.3,0.9c0,0.6,0.5,1,1.2,1C18.8,142.4,19.6,141.8,19.6,141.2z"/>
		<path class="st0" d="M33.6,136.6v9.5h-1.7v-3.6c-0.5,0.8-1.3,1.2-2.3,1.2c-2,0-3.3-1.5-3.3-3.6c0-2.1,1.3-3.5,3.3-3.5
			c1.1,0,1.9,0.4,2.4,1.2v-1.1H33.6z M31.9,140.1c0-1.2-0.8-2.1-2-2.1c-1.2,0-2,0.9-2,2.1c0,1.2,0.8,2.1,2,2.1
			C31.1,142.2,31.9,141.4,31.9,140.1z"/>
		<path class="st0" d="M42,136.6v7h-1.7v-1.3c-0.5,0.9-1.3,1.4-2.4,1.4c-1.6,0-2.5-1-2.5-2.7v-4.4h1.7v3.9c0,1,0.6,1.6,1.5,1.6
			c1.1,0,1.7-0.9,1.7-2v-3.4H42z"/>
		<path class="st0" d="M50.2,140.7h-5.1c0.2,1,1,1.6,2,1.6c0.7,0,1.4-0.3,1.9-0.8l0.9,0.9c-0.7,0.8-1.7,1.2-2.9,1.2
			c-2.2,0-3.6-1.4-3.6-3.5c0-2.1,1.5-3.5,3.5-3.5C49.4,136.6,50.4,138.2,50.2,140.7z M48.7,139.6c0-1-0.7-1.7-1.8-1.7
			c-1,0-1.7,0.7-1.9,1.7H48.7z"/>
		<path class="st0" d="M61.6,140.7h-5.1c0.2,1,1,1.6,2,1.6c0.7,0,1.4-0.3,1.9-0.8l0.9,0.9c-0.7,0.8-1.7,1.2-2.9,1.2
			c-2.2,0-3.6-1.4-3.6-3.5c0-2.1,1.5-3.5,3.5-3.5C60.7,136.6,61.7,138.2,61.6,140.7z M60,139.6c0-1-0.7-1.7-1.8-1.7
			c-1,0-1.7,0.7-1.9,1.7H60z"/>
		<path class="st0" d="M65,137.9c-0.5,0-0.9,0.2-0.9,0.6c0,1.2,3.7,0.6,3.7,3.1c0,1.4-1.3,2.1-2.7,2.1c-1.1,0-2.1-0.3-2.9-1l0.6-1.2
			c0.6,0.5,1.6,0.9,2.4,0.9c0.6,0,1-0.2,1-0.6c0-1.3-3.6-0.6-3.6-3.1c0-1.4,1.2-2.1,2.6-2.1c0.9,0,1.9,0.3,2.5,0.7l-0.6,1.2
			C66.4,138.1,65.6,137.9,65,137.9z"/>
		<path class="st0" d="M73.1,143.1c-0.5,0.3-1.1,0.5-1.7,0.5c-1.1,0-2-0.7-2-2.1v-3.4h-1l0-1.2h1V135H71v1.9h2v1.2h-2v3.1
			c0,0.7,0.3,0.9,0.7,0.9c0.3,0,0.6-0.1,1-0.3L73.1,143.1z"/>
		<path class="st0" d="M78.4,143.6v-0.8c-0.5,0.6-1.3,0.9-2.2,0.9c-1.5,0-2.4-0.9-2.4-2.2c0-1.3,0.9-2.1,2.6-2.1h2v-0.2
			c0-0.8-0.5-1.3-1.6-1.3c-0.7,0-1.4,0.2-2.1,0.7l-0.6-1.2c1-0.6,1.8-0.9,3.1-0.9c1.8,0,2.8,0.9,2.9,2.5l0,4.5H78.4z M78.4,141.2
			v-0.6h-1.8c-0.9,0-1.3,0.2-1.3,0.9c0,0.6,0.5,1,1.2,1C77.5,142.4,78.3,141.8,78.4,141.2z M77.6,135.7h-1.4l1.4-2l1.7,0.7
			L77.6,135.7z"/>
		<path class="st0" d="M88.6,139.2v4.3h-1.7v-3.8c0-1-0.6-1.6-1.5-1.6c-1.1,0-1.8,0.9-1.8,2v3.4h-1.7v-7h1.7v1.3
			c0.5-0.9,1.4-1.4,2.5-1.4C87.6,136.6,88.6,137.6,88.6,139.2z"/>
		<path class="st0" d="M98.3,143.6v-0.8c-0.5,0.6-1.3,0.9-2.2,0.9c-1.5,0-2.4-0.9-2.4-2.2c0-1.3,0.9-2.1,2.6-2.1h2v-0.2
			c0-0.8-0.5-1.3-1.6-1.3c-0.7,0-1.4,0.2-2.1,0.7l-0.6-1.2c1-0.6,1.8-0.9,3.1-0.9c1.8,0,2.8,0.9,2.9,2.5l0,4.5H98.3z M98.2,141.2
			v-0.6h-1.8c-0.9,0-1.3,0.2-1.3,0.9c0,0.6,0.5,1,1.2,1C97.4,142.4,98.2,141.8,98.2,141.2z"/>
		<path class="st0" d="M104.7,138.1c-1.1,0-1.9,0.8-1.9,2.1c0,1.2,0.8,2.1,1.9,2.1c0.8,0,1.5-0.3,1.9-0.8l1.1,0.9
			c-0.6,0.9-1.7,1.4-3,1.4c-2.1,0-3.5-1.4-3.5-3.5c0-2.1,1.4-3.5,3.5-3.5c1.3,0,2.3,0.5,2.9,1.3l-1,1
			C106,138.3,105.4,138.1,104.7,138.1z"/>
		<path class="st0" d="M115.3,140.1c0,2.1-1.5,3.5-3.7,3.5c-2.2,0-3.7-1.4-3.7-3.5c0-2.1,1.5-3.5,3.7-3.5
			C113.9,136.6,115.3,138,115.3,140.1z M109.7,140.1c0,1.2,0.8,2.1,2,2.1c1.1,0,2-0.9,2-2.1s-0.8-2.1-2-2.1
			C110.5,138,109.7,138.9,109.7,140.1z"/>
		<path class="st0" d="M118.8,137.9c-0.5,0-0.9,0.2-0.9,0.6c0,1.2,3.7,0.6,3.7,3.1c0,1.4-1.3,2.1-2.7,2.1c-1.1,0-2.1-0.3-2.9-1
			l0.6-1.2c0.6,0.5,1.6,0.9,2.4,0.9c0.6,0,1-0.2,1-0.6c0-1.3-3.6-0.6-3.6-3.1c0-1.4,1.2-2.1,2.6-2.1c0.9,0,1.9,0.3,2.5,0.7l-0.6,1.2
			C120.1,138.1,119.4,137.9,118.8,137.9z"/>
		<path class="st0" d="M126.9,143.1c-0.5,0.3-1.1,0.5-1.7,0.5c-1.1,0-2-0.7-2-2.1v-3.4h-1l0-1.2h1V135h1.7v1.9h2v1.2h-2v3.1
			c0,0.7,0.3,0.9,0.7,0.9c0.3,0,0.6-0.1,1-0.3L126.9,143.1z"/>
		<path class="st0" d="M134.5,136.6v7h-1.7v-1.3c-0.5,0.9-1.3,1.4-2.4,1.4c-1.6,0-2.5-1-2.5-2.7v-4.4h1.7v3.9c0,1,0.6,1.6,1.5,1.6
			c1.1,0,1.7-0.9,1.7-2v-3.4H134.5z"/>
		<path class="st0" d="M148.1,139.2v4.3h-1.7v-3.8c0-1-0.6-1.6-1.5-1.6c-1.1,0-1.8,0.9-1.8,2v3.4h-1.7v-3.8c0-1-0.6-1.6-1.5-1.6
			c-1.1,0-1.8,0.9-1.8,2v3.4h-1.7v-7h1.7v1.3c0.5-0.9,1.3-1.3,2.4-1.4c1.2,0,2.1,0.6,2.4,1.7c0.5-1.1,1.4-1.7,2.6-1.7
			C147.2,136.6,148.1,137.6,148.1,139.2z"/>
		<path class="st0" d="M157.3,140.1c0,2.1-1.3,3.5-3.3,3.5c-1.1,0-1.9-0.4-2.4-1.2v1.1h-1.7v-9.6h1.7v3.8c0.5-0.8,1.3-1.2,2.3-1.2
			C155.9,136.6,157.3,138,157.3,140.1z M155.5,140.1c0-1.2-0.8-2.1-2-2.1c-1.2,0-2,0.9-2,2.1c0,1.2,0.8,2.1,2,2.1
			C154.7,142.2,155.5,141.3,155.5,140.1z"/>
		<path class="st0" d="M162.7,136.6v1.6c-1.5-0.1-2.4,0.8-2.4,2v3.4h-1.7v-7h1.7v1.3C160.8,137.1,161.6,136.6,162.7,136.6z"/>
		<path class="st0" d="M167.6,143.6v-0.8c-0.5,0.6-1.3,0.9-2.2,0.9c-1.5,0-2.4-0.9-2.4-2.2c0-1.3,0.9-2.1,2.6-2.1h2v-0.2
			c0-0.8-0.5-1.3-1.6-1.3c-0.7,0-1.4,0.2-2.1,0.7l-0.6-1.2c1-0.6,1.8-0.9,3.1-0.9c1.8,0,2.8,0.9,2.9,2.5l0,4.5H167.6z M167.6,141.2
			v-0.6h-1.8c-0.9,0-1.3,0.2-1.3,0.9c0,0.6,0.5,1,1.2,1C166.7,142.4,167.5,141.8,167.6,141.2z"/>
		<path class="st0" d="M177.7,133.9v9.6H176v-1.1c-0.5,0.8-1.3,1.2-2.3,1.2c-2,0-3.3-1.5-3.3-3.6c0-2.1,1.3-3.5,3.3-3.5
			c1.1,0,1.9,0.4,2.4,1.2v-3.8H177.7z M176,140.1c0-1.2-0.8-2.1-2-2.1c-1.2,0-2,0.9-2,2.1c0,1.2,0.8,2.1,2,2.1
			C175.2,142.2,176,141.4,176,140.1z"/>
		<path class="st0" d="M186.4,140.1c0,2.1-1.5,3.5-3.7,3.5c-2.2,0-3.7-1.4-3.7-3.5c0-2.1,1.5-3.5,3.7-3.5
			C185,136.6,186.4,138,186.4,140.1z M180.8,140.1c0,1.2,0.8,2.1,2,2.1c1.1,0,2-0.9,2-2.1s-0.8-2.1-2-2.1
			C181.6,138,180.8,138.9,180.8,140.1z"/>
		<path class="st0" d="M189.9,137.9c-0.5,0-0.9,0.2-0.9,0.6c0,1.2,3.7,0.6,3.7,3.1c0,1.4-1.3,2.1-2.7,2.1c-1.1,0-2.1-0.3-2.9-1
			l0.6-1.2c0.6,0.5,1.6,0.9,2.4,0.9c0.6,0,1-0.2,1-0.6c0-1.3-3.6-0.6-3.6-3.1c0-1.4,1.2-2.1,2.6-2.1c0.9,0,1.9,0.3,2.5,0.7l-0.6,1.2
			C191.2,138.1,190.5,137.9,189.9,137.9z"/>
		<path class="st0" d="M195.2,142.7c0,0.5-0.4,0.9-0.9,0.9c-0.5,0-0.9-0.4-0.9-0.9s0.4-0.9,0.9-0.9
			C194.8,141.8,195.2,142.2,195.2,142.7z"/>
		<path class="st0" d="M55.1,176.2h2.3v3.7c-1,0.7-2.6,1.2-3.9,1.2c-2.8,0-4.9-2-4.9-4.7c0-2.7,2.1-4.6,5.1-4.6
			c1.4,0,2.9,0.5,3.8,1.4L56,175c-0.6-0.6-1.5-1-2.3-1c-1.3,0-2.3,1-2.3,2.4c0,1.4,1,2.4,2.3,2.4c0.4,0,0.9-0.1,1.4-0.4V176.2z"/>
		<path class="st0" d="M63.5,173.8v2.4c-1.4-0.2-2.2,0.4-2.2,1.4v3.4h-2.6v-7.1h2.6v1.1C61.7,174.2,62.5,173.8,63.5,173.8z"/>
		<path class="st0" d="M70.6,176.4v4.6H68v-0.8c-0.4,0.6-1.1,0.9-2.1,0.9c-1.5,0-2.4-0.9-2.4-2.2c0-1.4,0.9-2.1,2.7-2.1H68v0
			c0-0.6-0.4-0.9-1.2-0.9c-0.6,0-1.4,0.2-2.1,0.5l-0.7-1.7c1.2-0.5,2.3-0.7,3.4-0.7C69.4,173.8,70.6,174.7,70.6,176.4z M68,178.6
			V178h-1.2c-0.5,0-0.8,0.2-0.8,0.7c0,0.4,0.3,0.7,0.8,0.7C67.4,179.3,67.8,179.1,68,178.6z"/>
		<path class="st0" d="M75.1,175.9c-0.7,0-1.2,0.6-1.2,1.5c0,0.9,0.5,1.5,1.2,1.5c0.5,0,0.9-0.2,1.1-0.8l2,1
			c-0.5,1.2-1.7,1.8-3.3,1.8c-2.2,0-3.7-1.4-3.7-3.6c0-2.2,1.5-3.7,3.7-3.7c1.5,0,2.7,0.7,3.3,1.8l-2,1
			C76,176.2,75.6,175.9,75.1,175.9z"/>
		<path class="st0" d="M81.7,173.9v7.1H79v-7.1H81.7z M81.5,171.9c0,0.6-0.5,1.1-1.1,1.1s-1.1-0.5-1.1-1.1c0-0.7,0.5-1.1,1.1-1.1
			S81.5,171.2,81.5,171.9z"/>
		<path class="st0" d="M89.6,176.4v4.6H87v-0.8c-0.4,0.6-1.1,0.9-2.1,0.9c-1.5,0-2.4-0.9-2.4-2.2c0-1.4,0.9-2.1,2.7-2.1H87v0
			c0-0.6-0.4-0.9-1.2-0.9c-0.6,0-1.4,0.2-2.1,0.5l-0.7-1.7c1.2-0.5,2.3-0.7,3.4-0.7C88.4,173.8,89.6,174.7,89.6,176.4z M87,178.6
			V178h-1.2c-0.5,0-0.8,0.2-0.8,0.7c0,0.4,0.3,0.7,0.8,0.7C86.4,179.3,86.8,179.1,87,178.6z"/>
		<path class="st0" d="M93.5,175.5c-0.3,0-0.5,0.1-0.5,0.3c0,0.8,3.7,0.4,3.7,2.9c0,1.5-1.3,2.3-3.1,2.3c-1.2,0-2.4-0.3-3.3-1
			l0.8-1.7c0.9,0.6,1.8,0.9,2.6,0.9c0.4,0,0.6-0.1,0.6-0.3c0-0.8-3.6-0.4-3.6-2.8c0-1.5,1.2-2.4,3-2.4c1.1,0,2.1,0.3,3.1,0.9
			l-0.9,1.7C94.9,175.8,94.1,175.5,93.5,175.5z"/>
		<path class="st0" d="M109.4,177.4c0,2.2-1.3,3.6-3.2,3.6c-0.8,0-1.5-0.3-2-0.9v3.3h-2.6v-9.6h2.6v0.8c0.5-0.6,1.1-0.9,1.9-0.9
			C108.1,173.8,109.4,175.2,109.4,177.4z M106.7,177.4c0-0.9-0.5-1.6-1.3-1.6c-0.8,0-1.3,0.6-1.3,1.6c0,0.9,0.5,1.6,1.3,1.6
			C106.2,179,106.7,178.3,106.7,177.4z"/>
		<path class="st0" d="M117.6,177.4c0,2.2-1.5,3.6-3.9,3.6c-2.4,0-3.9-1.4-3.9-3.6c0-2.2,1.6-3.6,3.9-3.6
			C116.1,173.8,117.6,175.2,117.6,177.4z M112.4,177.4c0,0.9,0.5,1.6,1.3,1.6c0.8,0,1.3-0.6,1.3-1.6c0-0.9-0.5-1.6-1.3-1.6
			C112.9,175.9,112.4,176.5,112.4,177.4z"/>
		<path class="st0" d="M123.4,173.8v2.4c-1.4-0.2-2.2,0.4-2.2,1.4v3.4h-2.6v-7.1h2.6v1.1C121.6,174.2,122.4,173.8,123.4,173.8z"/>
		<path class="st0" d="M130.6,175.5c-0.3,0-0.5,0.1-0.5,0.3c0,0.8,3.7,0.4,3.7,2.9c0,1.5-1.3,2.3-3.1,2.3c-1.2,0-2.4-0.3-3.3-1
			l0.8-1.7c0.9,0.6,1.8,0.9,2.6,0.9c0.4,0,0.6-0.1,0.6-0.3c0-0.8-3.6-0.4-3.6-2.8c0-1.5,1.2-2.4,3-2.4c1.1,0,2.1,0.3,3.1,0.9
			l-0.9,1.7C131.9,175.8,131.1,175.5,130.6,175.5z"/>
		<path class="st0" d="M141.6,178h-4.8c0.2,0.7,0.7,1.1,1.4,1.1c0.6,0,1.1-0.2,1.6-0.7l1.4,1.3c-0.7,0.8-1.8,1.3-3.1,1.3
			c-2.4,0-3.8-1.4-3.8-3.6c0-2.2,1.5-3.7,3.7-3.7C140.4,173.8,141.8,175.4,141.6,178z M138,175.6c-0.6,0-1,0.5-1.2,1.2h2.2
			C139,176.1,138.6,175.6,138,175.6z"/>
		<path class="st0" d="M149.5,173.9v6.5c0,2-1.6,3.3-3.9,3.3c-1.3,0-2.5-0.4-3.3-0.9l0.9-1.8c0.6,0.4,1.4,0.6,2.2,0.6
			c0.9,0,1.5-0.4,1.5-1.1v-0.7c-0.5,0.5-1.1,0.8-1.9,0.8c-1.7,0-3-1.4-3-3.4c0-2,1.2-3.3,2.9-3.3c0.8,0,1.5,0.3,2,0.9v-0.8H149.5z
			 M146.9,177.2c0-0.9-0.5-1.5-1.2-1.5c-0.7,0-1.2,0.6-1.2,1.5c0,0.9,0.5,1.5,1.2,1.5C146.4,178.7,146.9,178.1,146.9,177.2z"/>
		<path class="st0" d="M158,173.9v7.1h-2.6v-1.1c-0.5,0.8-1.2,1.2-2.2,1.2c-1.5,0-2.5-1.1-2.5-2.7v-4.5h2.6v3.7
			c0,0.7,0.4,1.1,0.9,1.1c0.7,0,1.1-0.6,1.1-1.4v-3.5H158z"/>
		<path class="st0" d="M162,173.9v7.1h-2.6v-7.1H162z M161.9,171.9c0,0.6-0.5,1.1-1.1,1.1s-1.1-0.5-1.1-1.1c0-0.7,0.5-1.1,1.1-1.1
			S161.9,171.2,161.9,171.9z"/>
		<path class="st0" d="M168.4,173.8v2.4c-1.4-0.2-2.2,0.4-2.2,1.4v3.4h-2.6v-7.1h2.6v1.1C166.6,174.2,167.4,173.8,168.4,173.8z"/>
		<path class="st0" d="M180.2,171.3v9.6h-2.6v-0.8c-0.5,0.6-1.1,0.9-1.9,0.9c-2,0-3.3-1.4-3.3-3.7c0-2.2,1.3-3.6,3.2-3.6
			c0.8,0,1.5,0.3,2,0.9v-3.4H180.2z M177.6,177.4c0-0.9-0.5-1.6-1.3-1.6c-0.8,0-1.3,0.6-1.3,1.6c0,0.9,0.5,1.6,1.3,1.6
			C177.1,179,177.6,178.4,177.6,177.4z"/>
		<path class="st0" d="M188.2,176.4v4.6h-2.6v-0.8c-0.4,0.6-1.1,0.9-2.1,0.9c-1.5,0-2.4-0.9-2.4-2.2c0-1.4,0.9-2.1,2.7-2.1h1.7v0
			c0-0.6-0.4-0.9-1.2-0.9c-0.6,0-1.4,0.2-2.1,0.5l-0.7-1.7c1.2-0.5,2.3-0.7,3.4-0.7C187,173.8,188.2,174.7,188.2,176.4z
			 M185.7,178.6V178h-1.2c-0.5,0-0.8,0.2-0.8,0.7c0,0.4,0.3,0.7,0.8,0.7C185,179.3,185.5,179.1,185.7,178.6z"/>
		<path class="st0" d="M196.9,176.5v4.5h-2.6v-3.7c0-0.7-0.4-1.1-1-1.1c-0.7,0-1.2,0.6-1.2,1.4v3.5h-2.6v-7.1h2.6v1.1
			c0.5-0.8,1.3-1.2,2.2-1.2C195.9,173.8,196.9,174.8,196.9,176.5z"/>
		<path class="st0" d="M205.5,171.3v9.6h-2.6v-0.8c-0.5,0.6-1.1,0.9-1.9,0.9c-2,0-3.3-1.4-3.3-3.7c0-2.2,1.3-3.6,3.2-3.6
			c0.8,0,1.5,0.3,2,0.9v-3.4H205.5z M202.8,177.4c0-0.9-0.5-1.6-1.3-1.6c-0.8,0-1.3,0.6-1.3,1.6c0,0.9,0.5,1.6,1.3,1.6
			C202.3,179,202.8,178.4,202.8,177.4z"/>
		<path class="st0" d="M214.3,177.4c0,2.2-1.5,3.6-3.9,3.6c-2.4,0-3.9-1.4-3.9-3.6c0-2.2,1.6-3.6,3.9-3.6
			C212.8,173.8,214.3,175.2,214.3,177.4z M209.1,177.4c0,0.9,0.5,1.6,1.3,1.6c0.8,0,1.3-0.6,1.3-1.6c0-0.9-0.5-1.6-1.3-1.6
			C209.6,175.9,209.1,176.5,209.1,177.4z"/>
		<path class="st0" d="M221.7,171.3v9.6h-2.6v-9.6H221.7z"/>
		<path class="st0" d="M230.5,177.4c0,2.2-1.5,3.6-3.9,3.6c-2.4,0-3.9-1.4-3.9-3.6c0-2.2,1.6-3.6,3.9-3.6
			C229,173.8,230.5,175.2,230.5,177.4z M225.3,177.4c0,0.9,0.5,1.6,1.3,1.6c0.8,0,1.3-0.6,1.3-1.6c0-0.9-0.5-1.6-1.3-1.6
			C225.8,175.9,225.3,176.5,225.3,177.4z"/>
		<path class="st0" d="M92.9,195.1v4.5h-2.6v-3.7c0-0.7-0.4-1.1-1-1.1c-0.7,0-1.1,0.6-1.1,1.4v3.5h-2.6v-3.7c0-0.7-0.4-1.1-1-1.1
			c-0.7,0-1.1,0.6-1.1,1.4v3.5h-2.6v-7.1h2.6v1.1c0.5-0.8,1.2-1.2,2.2-1.2c1.1,0,2,0.6,2.3,1.5c0.5-1,1.3-1.5,2.4-1.5
			C91.9,192.4,92.9,193.5,92.9,195.1z"/>
		<path class="st0" d="M101.1,196.7h-4.8c0.2,0.7,0.7,1.1,1.4,1.1c0.6,0,1.1-0.2,1.6-0.7l1.4,1.3c-0.7,0.8-1.8,1.3-3.1,1.3
			c-2.4,0-3.8-1.4-3.8-3.6c0-2.2,1.5-3.7,3.7-3.7C99.9,192.5,101.2,194.1,101.1,196.7z M97.4,194.2c-0.6,0-1,0.5-1.2,1.2h2.2
			C98.5,194.7,98,194.2,97.4,194.2z"/>
		<path class="st0" d="M102,202.2c-0.7,0-1.4-0.2-1.9-0.4l0.6-1.8c0.3,0.1,0.5,0.2,0.8,0.2c0.4,0,0.6-0.2,0.6-0.7v-7h2.6v7.3
			C104.7,201.4,103.5,202.3,102,202.2z M104.8,190.5c0,0.8-0.6,1.4-1.5,1.4c-0.9,0-1.5-0.6-1.5-1.4c0-0.8,0.6-1.4,1.5-1.4
			C104.2,189.2,104.8,189.7,104.8,190.5z"/>
		<path class="st0" d="M113.5,196.1c0,2.2-1.5,3.6-3.9,3.6c-2.4,0-3.9-1.4-3.9-3.6c0-2.2,1.6-3.6,3.9-3.6
			C112,192.5,113.5,193.9,113.5,196.1z M108.3,196.1c0,0.9,0.5,1.6,1.3,1.6c0.8,0,1.3-0.6,1.3-1.6c0-0.9-0.5-1.6-1.3-1.6
			C108.8,194.5,108.3,195.2,108.3,196.1z"/>
		<path class="st0" d="M119.3,192.4v2.4c-1.4-0.2-2.2,0.4-2.2,1.4v3.4h-2.6v-7.1h2.6v1.1C117.6,192.9,118.3,192.4,119.3,192.4z"/>
		<path class="st0" d="M131.1,190v9.6h-2.6v-0.8c-0.5,0.6-1.1,0.9-1.9,0.9c-2,0-3.3-1.4-3.3-3.7c0-2.2,1.3-3.6,3.2-3.6
			c0.8,0,1.5,0.3,2,0.9V190H131.1z M128.5,196.1c0-0.9-0.5-1.6-1.3-1.6c-0.8,0-1.3,0.6-1.3,1.6c0,0.9,0.5,1.6,1.3,1.6
			C128,197.7,128.5,197.1,128.5,196.1z"/>
		<path class="st0" d="M139.5,196.7h-4.8c0.2,0.7,0.7,1.1,1.4,1.1c0.6,0,1.1-0.2,1.6-0.7l1.4,1.3c-0.7,0.8-1.8,1.3-3.1,1.3
			c-2.4,0-3.8-1.4-3.8-3.6c0-2.2,1.5-3.7,3.7-3.7C138.3,192.5,139.7,194.1,139.5,196.7z M135.9,194.2c-0.6,0-1,0.5-1.2,1.2h2.2
			C136.9,194.7,136.5,194.2,135.9,194.2z"/>
		<path class="st0" d="M151.3,192.5v7.1h-2.6v-1.1c-0.5,0.8-1.2,1.2-2.2,1.2c-1.5,0-2.5-1.1-2.5-2.7v-4.5h2.6v3.7
			c0,0.7,0.4,1.1,0.9,1.1c0.7,0,1.1-0.6,1.1-1.4v-3.5H151.3z"/>
		<path class="st0" d="M155.4,194.2c-0.3,0-0.5,0.1-0.5,0.3c0,0.8,3.7,0.4,3.7,2.9c0,1.5-1.3,2.3-3.1,2.3c-1.2,0-2.4-0.3-3.3-1
			l0.8-1.7c0.9,0.6,1.8,0.9,2.6,0.9c0.4,0,0.6-0.1,0.6-0.3c0-0.8-3.6-0.4-3.6-2.8c0-1.5,1.2-2.4,3-2.4c1.1,0,2.1,0.3,3.1,0.9
			l-0.9,1.7C156.8,194.4,156,194.2,155.4,194.2z"/>
		<path class="st0" d="M164.4,199.3c-0.5,0.3-1.2,0.5-2,0.5c-1.5,0-2.5-0.9-2.5-2.3v-2.8h-1v-1.7h1v-2h2.6v2h1.7v1.7h-1.7v2.4
			c0,0.5,0.2,0.7,0.6,0.7c0.2,0,0.5-0.1,0.8-0.2L164.4,199.3z"/>
		<path class="st0" d="M172.2,196.7h-4.8c0.2,0.7,0.7,1.1,1.4,1.1c0.6,0,1.1-0.2,1.6-0.7l1.4,1.3c-0.7,0.8-1.8,1.3-3.1,1.3
			c-2.4,0-3.8-1.4-3.8-3.6c0-2.2,1.5-3.7,3.7-3.7C171,192.5,172.3,194.1,172.2,196.7z M168.5,194.2c-0.6,0-1,0.5-1.2,1.2h2.2
			C169.6,194.7,169.1,194.2,168.5,194.2z"/>
		<path class="st0" d="M180.4,190v9.6h-2.6v-0.8c-0.5,0.6-1.1,0.9-1.9,0.9c-2,0-3.3-1.4-3.3-3.7c0-2.2,1.3-3.6,3.2-3.6
			c0.8,0,1.5,0.3,2,0.9V190H180.4z M177.7,196.1c0-0.9-0.5-1.6-1.3-1.6c-0.8,0-1.3,0.6-1.3,1.6c0,0.9,0.5,1.6,1.3,1.6
			C177.2,197.7,177.7,197.1,177.7,196.1z"/>
		<path class="st0" d="M188.8,196.7H184c0.2,0.7,0.7,1.1,1.4,1.1c0.6,0,1.1-0.2,1.6-0.7l1.4,1.3c-0.7,0.8-1.8,1.3-3.1,1.3
			c-2.4,0-3.8-1.4-3.8-3.6c0-2.2,1.5-3.7,3.7-3.7C187.6,192.5,188.9,194.1,188.8,196.7z M185.1,194.2c-0.6,0-1,0.5-1.2,1.2h2.2
			C186.2,194.7,185.7,194.2,185.1,194.2z"/>
		<path class="st0" d="M192.3,194.2c-0.3,0-0.5,0.1-0.5,0.3c0,0.8,3.7,0.4,3.7,2.9c0,1.5-1.3,2.3-3.1,2.3c-1.2,0-2.4-0.3-3.3-1
			l0.8-1.7c0.9,0.6,1.8,0.9,2.6,0.9c0.4,0,0.6-0.1,0.6-0.3c0-0.8-3.6-0.4-3.6-2.8c0-1.5,1.2-2.4,3-2.4c1.1,0,2.1,0.3,3.1,0.9
			l-0.9,1.7C193.7,194.4,192.9,194.2,192.3,194.2z"/>
		<path class="st0" d="M198.6,198.5c0,0.7-0.5,1.2-1.2,1.2c-0.7,0-1.2-0.5-1.2-1.2c0-0.7,0.5-1.2,1.2-1.2
			C198.1,197.3,198.6,197.8,198.6,198.5z"/>
		<path class="st0" d="M108.8,239v-2.4l0.5-3.5h1.6l0.5,3.5v2.4H108.8z M108.9,231.1c0-0.7,0.5-1.2,1.2-1.2c0.7,0,1.2,0.5,1.2,1.2
			c0,0.7-0.5,1.2-1.2,1.2C109.4,232.3,108.9,231.8,108.9,231.1z"/>
		<path class="st0" d="M119.5,227.9v2.1h-4.4v1.8h4.1v2.1h-4.1v3.1h-2.7v-9.1H119.5z"/>
		<path class="st0" d="M127.3,234.1h-4.8c0.2,0.7,0.7,1.1,1.4,1.1c0.6,0,1.1-0.2,1.6-0.7l1.4,1.3c-0.7,0.8-1.8,1.3-3.1,1.3
			c-2.4,0-3.8-1.4-3.8-3.6c0-2.2,1.5-3.7,3.7-3.7C126.1,229.8,127.4,231.5,127.3,234.1z M123.6,231.6c-0.6,0-1,0.5-1.2,1.2h2.2
			C124.7,232.1,124.2,231.6,123.6,231.6z"/>
		<path class="st0" d="M130.9,227.3v9.6h-2.6v-9.6H130.9z"/>
		<path class="st0" d="M135,229.9v7.1h-2.6v-7.1H135z M134.8,227.9c0,0.6-0.5,1.1-1.1,1.1s-1.1-0.5-1.1-1.1c0-0.7,0.5-1.1,1.1-1.1
			S134.8,227.3,134.8,227.9z"/>
		<path class="st0" d="M142.5,229.9v1.6l-3.2,3.5h3.3v2h-6.6v-1.5l3.2-3.5h-3v-2H142.5z"/>
		<path class="st0" d="M154.7,227.3v9.6h-2.6v-0.8c-0.5,0.6-1.1,0.9-1.9,0.9c-2,0-3.3-1.4-3.3-3.7c0-2.2,1.3-3.6,3.2-3.6
			c0.8,0,1.5,0.3,2,0.9v-3.4H154.7z M152.1,233.5c0-0.9-0.5-1.6-1.3-1.6c-0.8,0-1.3,0.6-1.3,1.6c0,0.9,0.5,1.6,1.3,1.6
			C151.6,235.1,152.1,234.4,152.1,233.5z"/>
		<path class="st0" d="M158.9,229.9v7.1h-2.6v-7.1H158.9z M160,227.7l-1.7,1.6h-1.9l1.4-2.3L160,227.7z"/>
		<path class="st0" d="M166.8,232.4v4.6h-2.6v-0.8c-0.4,0.6-1.1,0.9-2.1,0.9c-1.5,0-2.4-0.9-2.4-2.2c0-1.4,0.9-2.1,2.7-2.1h1.7v0
			c0-0.6-0.4-0.9-1.2-0.9c-0.6,0-1.4,0.2-2.1,0.5l-0.7-1.7c1.2-0.5,2.3-0.7,3.4-0.7C165.6,229.8,166.8,230.8,166.8,232.4z
			 M164.3,234.7V234h-1.2c-0.5,0-0.8,0.2-0.8,0.7c0,0.4,0.3,0.7,0.8,0.7C163.6,235.4,164.1,235.1,164.3,234.7z"/>
		<path class="st0" d="M170.3,235.9c0,0.7-0.5,1.2-1.2,1.2c-0.7,0-1.2-0.5-1.2-1.2c0-0.7,0.5-1.2,1.2-1.2
			C169.8,234.6,170.3,235.1,170.3,235.9z M170.4,227.9v2.4l-0.5,3.5h-1.6l-0.5-3.5v-2.4H170.4z"/>
	</g>
</g>
<g>
	<g>
		<path class="st1" d="M68.2,295.1c1.4,0,2.6-1.2,2.6-2.6c0-1.4-1.2-2.6-2.6-2.6s-2.6,1.2-2.6,2.6C65.6,294,66.8,295.1,68.2,295.1"
			/>
		<path class="st1" d="M78.5,310.3c-0.4,0-0.7-0.3-0.7-0.7v-21.8h-4.2v22.7c0,1.8,1.5,3.3,3.3,3.3h3.2v-3.6H78.5z"/>
		<polygon class="st1" points="31.1,289.4 31.1,294.9 34.7,294.9 34.7,293.5 40.1,293.5 40.1,310.3 38.5,310.3 38.5,313.9 
			46.2,313.9 46.2,310.3 44.6,310.3 44.6,293.5 50,293.5 50,294.9 53.5,294.9 53.5,289.4 		"/>
		<polygon class="st1" points="70.3,310.3 70.3,297.7 61.3,297.7 61.3,301.3 66.1,301.3 66.1,310.3 61.3,310.3 61.3,313.9 72,313.9 
			72,310.3 		"/>
		<polygon class="st1" points="50,297.7 50,310.3 48.3,310.3 48.3,313.9 59.2,313.9 59.2,310.3 54.2,310.3 54.2,301.3 59.2,301.3 
			59.2,297.7 52.6,297.7 		"/>
		<path class="st1" d="M100.8,304.1c0-0.5,0.2-1,0.4-1.4c0.3-0.4,0.6-0.8,1-1.1c0.4-0.3,0.8-0.5,1.3-0.7c0.5-0.1,1-0.2,1.5-0.2
			c1.2,0,2,0.3,2.6,0.9c0.6,0.6,0.9,1.4,0.9,2.5H100.8z M111.6,300.9c-0.4-0.9-1-1.5-1.7-2.1c-0.7-0.5-1.5-0.9-2.3-1.1
			c-0.8-0.2-1.7-0.3-2.5-0.3c-1.2,0-2.3,0.2-3.3,0.5c-1,0.3-1.9,0.9-2.7,1.6c-0.8,0.7-1.4,1.6-1.8,2.6c-0.4,1-0.7,2.2-0.7,3.6
			c0,0.5,0,0.9,0.1,1.4c0.1,0.8,0.3,1.5,0.5,2.1c0.1,0.3,0.9,2.2,3,3.5c1.4,0.8,3.4,1.2,6,1.2c2.7,0,4-0.1,4-0.1v-3.4v0
			c0,0-1.9,0-4.2,0c-3.4,0-4.5-2.1-4.8-2.6c-0.1-0.2-0.1-0.4-0.2-0.5h11.1C112.6,305.6,112.4,302.4,111.6,300.9"/>
		<path class="st1" d="M95,304.2V299v-0.1c0-0.2-0.1-0.3-0.2-0.4c-0.5-0.2-1.2-0.4-2.1-0.7c-1-0.3-2.1-0.4-3.3-0.4
			c-1.3,0-2.4,0.2-3.5,0.6c-1.1,0.4-2,0.9-2.8,1.6c-0.8,0.7-1.4,1.6-1.8,2.6s-0.7,2.2-0.7,3.5c0,1.2,0.2,2.4,0.6,3.4
			c0.4,1,0.8,1.8,1.5,2.5c1.2,1.2,3.4,2.1,6,2.2l5.2,0v-3.6h-4c-1.7,0-3.3-0.8-3.8-1.2c-0.4-0.4-0.7-0.9-1-1.5
			c-0.2-0.6-0.3-1.2-0.3-1.9c0-0.8,0.1-1.5,0.4-2.1c0.3-0.6,0.6-1.1,1.1-1.5c0.5-0.4,1-0.7,1.5-0.8c0.6-0.2,1.2-0.3,1.7-0.3
			c0.6,0,1.3,0.1,1.9,0.2v2.9H95z"/>
	</g>
</g>
<g>
	<g>
		<g>
			<path class="st2" d="M158.4,300L158,303h2.5v3h-2.9l-0.9,5.9h-3.2l0.8-5.9h-2.3l-0.8,5.9H148l0.8-5.9h-2.5v-3h2.9l0.4-2.9h-2.5
				v-3h2.9l0.8-5.9h3.3l-0.8,5.9h2.3l0.8-5.9h3.2l-0.8,5.9h2.5v3H158.4z M152.9,300l-0.4,2.9h2.3l0.4-2.9H152.9z"/>
		</g>
	</g>
	<g>
		<g>
			<path class="st1" d="M168.8,307.9v3.1H167v-3.1l-2.8-4.2h2.2l1.6,2.7l1.6-2.7h2.1L168.8,307.9z"/>
			<path class="st1" d="M177.5,308.4c0,0.4-0.1,0.8-0.2,1.1c-0.2,0.3-0.4,0.6-0.6,0.9s-0.6,0.4-0.9,0.6s-0.7,0.2-1.1,0.2
				c-0.4,0-0.8-0.1-1.1-0.2c-0.4-0.1-0.7-0.3-0.9-0.6c-0.3-0.2-0.5-0.5-0.6-0.9c-0.2-0.3-0.2-0.7-0.2-1.1c0-0.4,0.1-0.8,0.2-1.1
				c0.2-0.3,0.4-0.6,0.6-0.9c0.3-0.2,0.6-0.4,0.9-0.5c0.3-0.1,0.7-0.2,1.1-0.2c0.4,0,0.8,0.1,1.1,0.2s0.7,0.3,0.9,0.5
				c0.3,0.2,0.5,0.5,0.6,0.9S177.5,308,177.5,308.4z M175.8,308.4c0-0.2,0-0.3-0.1-0.5c-0.1-0.2-0.1-0.3-0.2-0.4
				c-0.1-0.1-0.2-0.2-0.4-0.3c-0.2-0.1-0.3-0.1-0.5-0.1s-0.4,0-0.5,0.1s-0.3,0.2-0.4,0.3c-0.1,0.1-0.2,0.3-0.2,0.4s-0.1,0.3-0.1,0.5
				c0,0.2,0,0.3,0.1,0.5c0.1,0.2,0.1,0.3,0.2,0.4c0.1,0.1,0.2,0.2,0.4,0.3c0.2,0.1,0.3,0.1,0.5,0.1s0.4,0,0.5-0.1
				c0.2-0.1,0.3-0.2,0.4-0.3c0.1-0.1,0.2-0.3,0.2-0.4C175.8,308.7,175.8,308.6,175.8,308.4z"/>
			<path class="st1" d="M185.3,311l0-5.2h0l-1.9,5.2h-1.2l-1.9-5.2h0l0,5.2h-1.7v-7.4h2.5l1.7,4.7h0l1.6-4.7h2.6v7.4H185.3z"/>
			<path class="st1" d="M193.5,308.5c0,0.1,0,0.1,0,0.2s0,0.1,0,0.2h-3.8c0,0.1,0.1,0.3,0.1,0.4c0.1,0.1,0.2,0.2,0.3,0.3
				c0.1,0.1,0.2,0.2,0.4,0.2c0.1,0,0.3,0.1,0.4,0.1c0.3,0,0.5,0,0.7-0.2s0.3-0.2,0.5-0.4l1.2,0.7c-0.2,0.4-0.6,0.6-1,0.8
				c-0.4,0.2-0.9,0.3-1.4,0.3c-0.4,0-0.8-0.1-1.1-0.2s-0.7-0.3-0.9-0.5s-0.5-0.5-0.6-0.9c-0.1-0.3-0.2-0.7-0.2-1.2
				c0-0.4,0.1-0.8,0.2-1.1c0.1-0.3,0.3-0.6,0.6-0.9c0.3-0.2,0.5-0.4,0.9-0.6c0.3-0.1,0.7-0.2,1.1-0.2c0.4,0,0.7,0.1,1,0.2
				c0.3,0.1,0.6,0.3,0.8,0.6c0.2,0.2,0.4,0.5,0.5,0.9C193.5,307.6,193.5,308,193.5,308.5z M192,307.8c0-0.3-0.1-0.5-0.3-0.7
				s-0.4-0.3-0.8-0.3c-0.2,0-0.3,0-0.5,0.1c-0.1,0.1-0.3,0.1-0.4,0.2c-0.1,0.1-0.2,0.2-0.3,0.3s-0.1,0.2-0.1,0.4H192z"/>
			<path class="st1" d="M198.2,311c-0.6,0-1.1-0.1-1.6-0.3c-0.5-0.2-0.9-0.4-1.2-0.7c-0.3-0.3-0.6-0.7-0.8-1.2
				c-0.2-0.5-0.3-1-0.3-1.6c0-0.6,0.1-1.1,0.3-1.5s0.5-0.9,0.8-1.2c0.4-0.3,0.8-0.6,1.3-0.8c0.5-0.2,1-0.3,1.6-0.3
				c0.6,0,1.1,0.1,1.6,0.3s0.9,0.4,1.3,0.8c0.4,0.3,0.6,0.7,0.8,1.2c0.2,0.5,0.3,1,0.3,1.5c0,0.3,0,0.5-0.1,0.8
				c-0.1,0.2-0.1,0.5-0.3,0.7c-0.1,0.2-0.2,0.4-0.4,0.5s-0.3,0.3-0.4,0.4v0l1.5,0v1.4H198.2z M200.3,307.3c0-0.3-0.1-0.6-0.2-0.9
				c-0.1-0.3-0.2-0.5-0.4-0.7s-0.4-0.3-0.7-0.5c-0.3-0.1-0.5-0.2-0.8-0.2c-0.3,0-0.6,0.1-0.8,0.2c-0.3,0.1-0.5,0.3-0.7,0.5
				c-0.2,0.2-0.3,0.4-0.4,0.7c-0.1,0.3-0.2,0.6-0.2,0.9c0,0.3,0.1,0.6,0.2,0.9c0.1,0.3,0.2,0.5,0.4,0.7c0.2,0.2,0.4,0.4,0.7,0.5
				c0.3,0.1,0.5,0.2,0.8,0.2c0.3,0,0.6-0.1,0.8-0.2s0.5-0.3,0.7-0.5c0.2-0.2,0.3-0.4,0.4-0.7C200.3,307.9,200.3,307.6,200.3,307.3z"
				/>
			<path class="st1" d="M206.8,311v-0.7h0c-0.1,0.1-0.1,0.2-0.2,0.3c-0.1,0.1-0.2,0.2-0.4,0.3c-0.1,0.1-0.3,0.1-0.4,0.2
				c-0.2,0-0.3,0.1-0.5,0.1c-0.3,0-0.6-0.1-0.9-0.2c-0.2-0.1-0.4-0.3-0.6-0.5c-0.1-0.2-0.3-0.4-0.3-0.7c-0.1-0.3-0.1-0.5-0.1-0.8
				v-3.2h1.7v2.8c0,0.1,0,0.3,0,0.4s0.1,0.2,0.1,0.4c0.1,0.1,0.1,0.2,0.2,0.2s0.2,0.1,0.4,0.1c0.3,0,0.5-0.1,0.7-0.3
				s0.2-0.5,0.2-0.8v-2.8h1.7v5.2H206.8z"/>
			<path class="st1" d="M214.9,308.5c0,0.1,0,0.1,0,0.2s0,0.1,0,0.2h-3.8c0,0.1,0.1,0.3,0.1,0.4c0.1,0.1,0.2,0.2,0.3,0.3
				c0.1,0.1,0.2,0.2,0.4,0.2c0.1,0,0.3,0.1,0.4,0.1c0.3,0,0.5,0,0.7-0.2s0.3-0.2,0.5-0.4l1.2,0.7c-0.2,0.4-0.6,0.6-1,0.8
				c-0.4,0.2-0.9,0.3-1.4,0.3c-0.4,0-0.8-0.1-1.1-0.2s-0.7-0.3-0.9-0.5s-0.5-0.5-0.6-0.9c-0.1-0.3-0.2-0.7-0.2-1.2
				c0-0.4,0.1-0.8,0.2-1.1c0.1-0.3,0.3-0.6,0.6-0.9c0.3-0.2,0.5-0.4,0.9-0.6c0.3-0.1,0.7-0.2,1.1-0.2c0.4,0,0.7,0.1,1,0.2
				c0.3,0.1,0.6,0.3,0.8,0.6c0.2,0.2,0.4,0.5,0.5,0.9C214.8,307.6,214.9,308,214.9,308.5z M213.3,307.8c0-0.3-0.1-0.5-0.3-0.7
				s-0.4-0.3-0.8-0.3c-0.2,0-0.3,0-0.5,0.1c-0.1,0.1-0.3,0.1-0.4,0.2c-0.1,0.1-0.2,0.2-0.3,0.3s-0.1,0.2-0.1,0.4H213.3z"/>
			<path class="st1" d="M219.8,311v-0.7h0c-0.2,0.3-0.4,0.5-0.7,0.6c-0.3,0.1-0.6,0.2-1,0.2c-0.4,0-0.7-0.1-1-0.2
				c-0.3-0.2-0.6-0.4-0.8-0.6s-0.4-0.5-0.5-0.9c-0.1-0.3-0.2-0.7-0.2-1c0-0.4,0.1-0.7,0.2-1c0.1-0.3,0.3-0.6,0.5-0.9
				c0.2-0.2,0.5-0.4,0.8-0.6s0.6-0.2,1-0.2c0.4,0,0.7,0.1,1,0.2s0.5,0.3,0.6,0.5h0v-3.2h1.7v7.9H219.8z M219.7,308.4
				c0-0.2,0-0.3-0.1-0.5c-0.1-0.2-0.1-0.3-0.3-0.4s-0.2-0.2-0.4-0.3s-0.3-0.1-0.5-0.1c-0.2,0-0.4,0-0.5,0.1s-0.3,0.2-0.4,0.3
				c-0.1,0.1-0.2,0.3-0.2,0.4s-0.1,0.3-0.1,0.5c0,0.2,0,0.3,0.1,0.5c0.1,0.2,0.1,0.3,0.2,0.4c0.1,0.1,0.2,0.2,0.4,0.3
				c0.2,0.1,0.3,0.1,0.5,0.1c0.2,0,0.4,0,0.5-0.1c0.2-0.1,0.3-0.2,0.4-0.3c0.1-0.1,0.2-0.3,0.3-0.4
				C219.7,308.7,219.7,308.6,219.7,308.4z"/>
			<path class="st1" d="M228.2,308.4c0,0.4-0.1,0.8-0.2,1.1c-0.2,0.3-0.4,0.6-0.6,0.9s-0.6,0.4-0.9,0.6s-0.7,0.2-1.1,0.2
				c-0.4,0-0.8-0.1-1.1-0.2c-0.4-0.1-0.7-0.3-0.9-0.6c-0.3-0.2-0.5-0.5-0.6-0.9c-0.2-0.3-0.2-0.7-0.2-1.1c0-0.4,0.1-0.8,0.2-1.1
				c0.2-0.3,0.4-0.6,0.6-0.9c0.3-0.2,0.6-0.4,0.9-0.5c0.3-0.1,0.7-0.2,1.1-0.2c0.4,0,0.8,0.1,1.1,0.2s0.7,0.3,0.9,0.5
				c0.3,0.2,0.5,0.5,0.6,0.9S228.2,308,228.2,308.4z M226.5,308.4c0-0.2,0-0.3-0.1-0.5c-0.1-0.2-0.1-0.3-0.2-0.4
				c-0.1-0.1-0.2-0.2-0.4-0.3c-0.2-0.1-0.3-0.1-0.5-0.1s-0.4,0-0.5,0.1s-0.3,0.2-0.4,0.3c-0.1,0.1-0.2,0.3-0.2,0.4s-0.1,0.3-0.1,0.5
				c0,0.2,0,0.3,0.1,0.5c0.1,0.2,0.1,0.3,0.2,0.4c0.1,0.1,0.2,0.2,0.4,0.3c0.2,0.1,0.3,0.1,0.5,0.1s0.4,0,0.5-0.1
				c0.2-0.1,0.3-0.2,0.4-0.3c0.1-0.1,0.2-0.3,0.2-0.4C226.5,308.7,226.5,308.6,226.5,308.4z"/>
			<path class="st1" d="M229.3,311v-7.4h5v1.5H231v1.4h3.1v1.4H231v1.5h3.4v1.5H229.3z"/>
			<path class="st1" d="M238.9,311v-2.8c0-0.1,0-0.3,0-0.4s-0.1-0.2-0.1-0.3s-0.1-0.2-0.2-0.2s-0.2-0.1-0.4-0.1
				c-0.2,0-0.3,0-0.4,0.1c-0.1,0.1-0.2,0.1-0.3,0.2c-0.1,0.1-0.1,0.2-0.2,0.4c0,0.1-0.1,0.3-0.1,0.4v2.8h-1.7v-5.2h1.7v0.7h0
				c0.1-0.1,0.1-0.2,0.2-0.3s0.2-0.2,0.4-0.3c0.1-0.1,0.3-0.1,0.4-0.2c0.2,0,0.3-0.1,0.5-0.1c0.3,0,0.6,0.1,0.9,0.2
				c0.2,0.1,0.4,0.3,0.6,0.5c0.1,0.2,0.3,0.4,0.3,0.7c0.1,0.3,0.1,0.5,0.1,0.8v3.2H238.9z"/>
			<path class="st1" d="M247.2,310.9c-0.5,0.2-1,0.3-1.7,0.3c-0.6,0-1.1-0.1-1.6-0.3c-0.5-0.2-0.9-0.5-1.3-0.8
				c-0.4-0.3-0.6-0.8-0.8-1.2s-0.3-1-0.3-1.6c0-0.6,0.1-1.1,0.3-1.6c0.2-0.5,0.5-0.9,0.8-1.2c0.4-0.3,0.8-0.6,1.3-0.8
				c0.5-0.2,1-0.3,1.6-0.3c0.5,0,1,0.1,1.5,0.3s0.9,0.5,1.2,0.8l-1.2,1.2c-0.2-0.2-0.4-0.4-0.7-0.5c-0.3-0.1-0.5-0.2-0.8-0.2
				c-0.3,0-0.6,0.1-0.9,0.2c-0.3,0.1-0.5,0.3-0.7,0.5c-0.2,0.2-0.3,0.4-0.4,0.7c-0.1,0.3-0.2,0.6-0.2,0.9c0,0.3,0.1,0.6,0.2,0.9
				s0.2,0.5,0.4,0.7c0.2,0.2,0.4,0.4,0.7,0.5c0.3,0.1,0.5,0.2,0.8,0.2c0.4,0,0.7-0.1,0.9-0.2s0.5-0.3,0.6-0.5l1.2,1.2
				C248.1,310.4,247.7,310.7,247.2,310.9z"/>
			<path class="st1" d="M248.9,306.5c0.3-0.3,0.7-0.5,1.1-0.7c0.4-0.1,0.8-0.2,1.2-0.2c0.4,0,0.8,0.1,1.1,0.2s0.5,0.3,0.7,0.5
				c0.2,0.2,0.3,0.5,0.4,0.9c0.1,0.3,0.1,0.8,0.1,1.2v2.6h-1.6v-0.6h0c-0.1,0.2-0.3,0.4-0.6,0.5c-0.3,0.1-0.6,0.2-0.9,0.2
				c-0.2,0-0.4,0-0.6-0.1c-0.2-0.1-0.4-0.1-0.6-0.3c-0.2-0.1-0.3-0.3-0.5-0.5c-0.1-0.2-0.2-0.5-0.2-0.8c0-0.4,0.1-0.7,0.3-0.9
				c0.2-0.2,0.5-0.4,0.8-0.5s0.7-0.2,1.1-0.2c0.4,0,0.8-0.1,1.2-0.1v-0.1c0-0.3-0.1-0.4-0.3-0.6s-0.4-0.2-0.7-0.2
				c-0.2,0-0.5,0.1-0.7,0.2c-0.2,0.1-0.4,0.2-0.6,0.4L248.9,306.5z M252.1,308.8h-0.2c-0.2,0-0.4,0-0.6,0c-0.2,0-0.4,0.1-0.5,0.1
				c-0.1,0-0.3,0.1-0.4,0.2c-0.1,0.1-0.1,0.2-0.1,0.4c0,0.1,0,0.2,0.1,0.3s0.1,0.1,0.2,0.2s0.1,0.1,0.2,0.1c0.1,0,0.2,0,0.3,0
				c0.3,0,0.6-0.1,0.8-0.3c0.2-0.2,0.3-0.4,0.3-0.8V308.8z"/>
			<path class="st1" d="M257.9,307.4c-0.1-0.1-0.3-0.2-0.5-0.3c-0.2-0.1-0.4-0.1-0.6-0.1c-0.2,0-0.3,0-0.4,0.1
				c-0.1,0.1-0.2,0.2-0.2,0.3c0,0.1,0.1,0.3,0.2,0.3c0.1,0.1,0.4,0.1,0.7,0.2c0.2,0,0.4,0.1,0.6,0.2c0.2,0.1,0.4,0.2,0.5,0.3
				c0.2,0.1,0.3,0.3,0.4,0.5c0.1,0.2,0.1,0.4,0.1,0.6c0,0.3-0.1,0.6-0.2,0.8c-0.1,0.2-0.3,0.4-0.5,0.5c-0.2,0.1-0.4,0.2-0.7,0.3
				c-0.3,0.1-0.5,0.1-0.8,0.1c-0.4,0-0.8-0.1-1.2-0.2c-0.4-0.1-0.7-0.3-1-0.6l1-1c0.2,0.2,0.3,0.3,0.6,0.4c0.2,0.1,0.5,0.2,0.7,0.2
				c0.1,0,0.3,0,0.4-0.1c0.1-0.1,0.2-0.2,0.2-0.3c0-0.2-0.1-0.3-0.3-0.4c-0.2-0.1-0.4-0.2-0.8-0.2c-0.2,0-0.4-0.1-0.5-0.2
				c-0.2-0.1-0.3-0.2-0.5-0.3c-0.1-0.1-0.3-0.3-0.3-0.4c-0.1-0.2-0.1-0.4-0.1-0.6c0-0.3,0.1-0.6,0.2-0.8s0.3-0.4,0.5-0.5
				s0.4-0.2,0.7-0.3c0.3-0.1,0.5-0.1,0.8-0.1c0.4,0,0.8,0.1,1.1,0.2c0.4,0.1,0.7,0.3,0.9,0.5L257.9,307.4z"/>
			<path class="st1" d="M259.6,306.5c0.3-0.3,0.7-0.5,1.1-0.7c0.4-0.1,0.8-0.2,1.2-0.2c0.4,0,0.8,0.1,1.1,0.2s0.5,0.3,0.7,0.5
				c0.2,0.2,0.3,0.5,0.4,0.9c0.1,0.3,0.1,0.8,0.1,1.2v2.6h-1.6v-0.6h0c-0.1,0.2-0.3,0.4-0.6,0.5c-0.3,0.1-0.6,0.2-0.9,0.2
				c-0.2,0-0.4,0-0.6-0.1c-0.2-0.1-0.4-0.1-0.6-0.3c-0.2-0.1-0.3-0.3-0.5-0.5c-0.1-0.2-0.2-0.5-0.2-0.8c0-0.4,0.1-0.7,0.3-0.9
				c0.2-0.2,0.5-0.4,0.8-0.5s0.7-0.2,1.1-0.2c0.4,0,0.8-0.1,1.2-0.1v-0.1c0-0.3-0.1-0.4-0.3-0.6s-0.4-0.2-0.7-0.2
				c-0.2,0-0.5,0.1-0.7,0.2c-0.2,0.1-0.4,0.2-0.6,0.4L259.6,306.5z M262.8,308.8h-0.2c-0.2,0-0.4,0-0.6,0c-0.2,0-0.4,0.1-0.5,0.1
				c-0.1,0-0.3,0.1-0.4,0.2c-0.1,0.1-0.1,0.2-0.1,0.4c0,0.1,0,0.2,0.1,0.3s0.1,0.1,0.2,0.2s0.1,0.1,0.2,0.1c0.1,0,0.2,0,0.3,0
				c0.3,0,0.6-0.1,0.8-0.3c0.2-0.2,0.3-0.4,0.3-0.8V308.8z"/>
		</g>
	</g>
	<g>
		<g>
			<path class="st1" d="M169.2,294.4c-0.2-0.2-0.4-0.3-0.6-0.5c-0.2-0.1-0.5-0.2-0.7-0.2c-0.1,0-0.2,0-0.4,0c-0.1,0-0.2,0.1-0.3,0.1
				c-0.1,0.1-0.2,0.1-0.2,0.2c-0.1,0.1-0.1,0.2-0.1,0.4c0,0.1,0,0.2,0.1,0.3c0.1,0.1,0.1,0.2,0.2,0.2s0.2,0.1,0.4,0.2
				s0.3,0.1,0.5,0.2c0.2,0.1,0.5,0.2,0.8,0.3c0.3,0.1,0.5,0.2,0.7,0.4c0.2,0.2,0.4,0.4,0.6,0.6s0.2,0.6,0.2,0.9
				c0,0.4-0.1,0.8-0.2,1.1c-0.2,0.3-0.4,0.6-0.6,0.8s-0.6,0.3-0.9,0.4c-0.3,0.1-0.7,0.1-1.1,0.1c-0.5,0-1-0.1-1.5-0.3
				c-0.5-0.2-0.9-0.4-1.2-0.8l1.2-1.2c0.2,0.2,0.4,0.4,0.7,0.6s0.6,0.2,0.9,0.2c0.1,0,0.3,0,0.4,0c0.1,0,0.2-0.1,0.3-0.1
				s0.2-0.1,0.2-0.3c0.1-0.1,0.1-0.2,0.1-0.4c0-0.1,0-0.3-0.1-0.4c-0.1-0.1-0.2-0.2-0.3-0.3s-0.3-0.2-0.5-0.2
				c-0.2-0.1-0.4-0.1-0.7-0.2c-0.2-0.1-0.5-0.2-0.7-0.3c-0.2-0.1-0.4-0.2-0.6-0.4s-0.3-0.4-0.4-0.6c-0.1-0.2-0.2-0.5-0.2-0.8
				c0-0.4,0.1-0.8,0.2-1.1c0.2-0.3,0.4-0.5,0.7-0.7s0.6-0.3,0.9-0.4c0.3-0.1,0.7-0.1,1-0.1c0.4,0,0.8,0.1,1.3,0.2
				c0.4,0.2,0.8,0.4,1.1,0.7L169.2,294.4z"/>
			<path class="st1" d="M176.4,297.3c0,0.1,0,0.1,0,0.2s0,0.1,0,0.2h-3.8c0,0.1,0.1,0.3,0.1,0.4c0.1,0.1,0.2,0.2,0.3,0.3
				c0.1,0.1,0.2,0.2,0.4,0.2c0.1,0,0.3,0.1,0.4,0.1c0.3,0,0.5,0,0.7-0.2s0.3-0.2,0.5-0.4l1.2,0.7c-0.2,0.4-0.6,0.6-1,0.8
				c-0.4,0.2-0.9,0.3-1.4,0.3c-0.4,0-0.8-0.1-1.1-0.2s-0.7-0.3-0.9-0.5s-0.5-0.5-0.6-0.9c-0.1-0.3-0.2-0.7-0.2-1.2
				c0-0.4,0.1-0.8,0.2-1.1c0.1-0.3,0.3-0.6,0.6-0.9c0.3-0.2,0.5-0.4,0.9-0.6c0.3-0.1,0.7-0.2,1.1-0.2c0.4,0,0.7,0.1,1,0.2
				c0.3,0.1,0.6,0.3,0.8,0.6c0.2,0.2,0.4,0.5,0.5,0.9C176.4,296.5,176.4,296.9,176.4,297.3z M174.9,296.7c0-0.3-0.1-0.5-0.3-0.7
				s-0.4-0.3-0.8-0.3c-0.2,0-0.3,0-0.5,0.1c-0.1,0.1-0.3,0.1-0.4,0.2c-0.1,0.1-0.2,0.2-0.3,0.3s-0.1,0.2-0.1,0.4H174.9z"/>
			<path class="st1" d="M180.8,296.1c-0.1,0-0.2,0-0.2,0c-0.1,0-0.1,0-0.2,0c-0.2,0-0.4,0-0.6,0.1c-0.2,0.1-0.3,0.2-0.4,0.3
				c-0.1,0.1-0.2,0.2-0.2,0.4c0,0.1-0.1,0.3-0.1,0.4v2.7h-1.7v-5.2h1.6v0.7h0c0.1-0.3,0.3-0.5,0.6-0.6s0.5-0.3,0.8-0.3
				c0.1,0,0.1,0,0.2,0c0.1,0,0.1,0,0.2,0L180.8,296.1z"/>
			<path class="st1" d="M188.3,299.9l0-5.2h0l-1.9,5.2h-1.2l-1.9-5.2h0l0,5.2h-1.7v-7.4h2.5l1.7,4.7h0l1.6-4.7h2.6v7.4H188.3z"/>
			<path class="st1" d="M196.5,297.3c0,0.1,0,0.1,0,0.2s0,0.1,0,0.2h-3.8c0,0.1,0.1,0.3,0.1,0.4c0.1,0.1,0.2,0.2,0.3,0.3
				c0.1,0.1,0.2,0.2,0.4,0.2c0.1,0,0.3,0.1,0.4,0.1c0.3,0,0.5,0,0.7-0.2s0.3-0.2,0.5-0.4l1.2,0.7c-0.2,0.4-0.6,0.6-1,0.8
				c-0.4,0.2-0.9,0.3-1.4,0.3c-0.4,0-0.8-0.1-1.1-0.2s-0.7-0.3-0.9-0.5s-0.5-0.5-0.6-0.9c-0.1-0.3-0.2-0.7-0.2-1.2
				c0-0.4,0.1-0.8,0.2-1.1c0.1-0.3,0.3-0.6,0.6-0.9c0.3-0.2,0.5-0.4,0.9-0.6c0.3-0.1,0.7-0.2,1.1-0.2c0.4,0,0.7,0.1,1,0.2
				c0.3,0.1,0.6,0.3,0.8,0.6c0.2,0.2,0.4,0.5,0.5,0.9C196.5,296.5,196.5,296.9,196.5,297.3z M194.9,296.7c0-0.3-0.1-0.5-0.3-0.7
				s-0.4-0.3-0.8-0.3c-0.2,0-0.3,0-0.5,0.1c-0.1,0.1-0.3,0.1-0.4,0.2c-0.1,0.1-0.2,0.2-0.3,0.3s-0.1,0.2-0.1,0.4H194.9z"/>
			<path class="st1" d="M199.3,300c0,0.3,0,0.6-0.1,0.9c-0.1,0.3-0.2,0.5-0.3,0.8s-0.4,0.4-0.6,0.5c-0.3,0.1-0.6,0.2-1,0.2
				c-0.1,0-0.2,0-0.4,0s-0.3,0-0.4-0.1l0.1-1.4c0.1,0,0.1,0,0.2,0c0.1,0,0.1,0,0.2,0c0.2,0,0.4-0.1,0.5-0.3s0.1-0.4,0.1-0.7v-5.3
				h1.7V300z M199.4,293c0,0.1,0,0.3-0.1,0.4c-0.1,0.1-0.1,0.2-0.2,0.3c-0.1,0.1-0.2,0.1-0.3,0.2s-0.2,0.1-0.4,0.1
				c-0.3,0-0.5-0.1-0.7-0.3c-0.2-0.2-0.3-0.4-0.3-0.7c0-0.1,0-0.2,0.1-0.4c0-0.1,0.1-0.2,0.2-0.3c0.1-0.1,0.2-0.2,0.3-0.2
				c0.1-0.1,0.2-0.1,0.4-0.1c0.1,0,0.3,0,0.4,0.1s0.2,0.1,0.3,0.2c0.1,0.1,0.2,0.2,0.2,0.3C199.4,292.8,199.4,292.9,199.4,293z"/>
			<path class="st1" d="M206.1,297.2c0,0.4-0.1,0.8-0.2,1.1c-0.2,0.3-0.4,0.6-0.6,0.9s-0.6,0.4-0.9,0.6s-0.7,0.2-1.1,0.2
				c-0.4,0-0.8-0.1-1.1-0.2c-0.4-0.1-0.7-0.3-0.9-0.6c-0.3-0.2-0.5-0.5-0.6-0.9c-0.2-0.3-0.2-0.7-0.2-1.1c0-0.4,0.1-0.8,0.2-1.1
				c0.2-0.3,0.4-0.6,0.6-0.9c0.3-0.2,0.6-0.4,0.9-0.5c0.3-0.1,0.7-0.2,1.1-0.2c0.4,0,0.8,0.1,1.1,0.2s0.7,0.3,0.9,0.5
				c0.3,0.2,0.5,0.5,0.6,0.9S206.1,296.8,206.1,297.2z M204.4,297.2c0-0.2,0-0.3-0.1-0.5c-0.1-0.2-0.1-0.3-0.2-0.4
				c-0.1-0.1-0.2-0.2-0.4-0.3c-0.2-0.1-0.3-0.1-0.5-0.1s-0.4,0-0.5,0.1s-0.3,0.2-0.4,0.3c-0.1,0.1-0.2,0.3-0.2,0.4s-0.1,0.3-0.1,0.5
				c0,0.2,0,0.3,0.1,0.5c0.1,0.2,0.1,0.3,0.2,0.4c0.1,0.1,0.2,0.2,0.4,0.3c0.2,0.1,0.3,0.1,0.5,0.1s0.4,0,0.5-0.1
				c0.2-0.1,0.3-0.2,0.4-0.3c0.1-0.1,0.2-0.3,0.2-0.4C204.4,297.6,204.4,297.4,204.4,297.2z"/>
			<path class="st1" d="M210.5,296.1c-0.1,0-0.2,0-0.2,0c-0.1,0-0.1,0-0.2,0c-0.2,0-0.4,0-0.6,0.1c-0.2,0.1-0.3,0.2-0.4,0.3
				c-0.1,0.1-0.2,0.2-0.2,0.4c0,0.1-0.1,0.3-0.1,0.4v2.7h-1.7v-5.2h1.6v0.7h0c0.1-0.3,0.3-0.5,0.6-0.6s0.5-0.3,0.8-0.3
				c0.1,0,0.1,0,0.2,0c0.1,0,0.1,0,0.2,0L210.5,296.1z"/>
			<path class="st1" d="M216.3,297.3c0,0.1,0,0.1,0,0.2s0,0.1,0,0.2h-3.8c0,0.1,0.1,0.3,0.1,0.4c0.1,0.1,0.2,0.2,0.3,0.3
				c0.1,0.1,0.2,0.2,0.4,0.2c0.1,0,0.3,0.1,0.4,0.1c0.3,0,0.5,0,0.7-0.2s0.3-0.2,0.5-0.4l1.2,0.7c-0.2,0.4-0.6,0.6-1,0.8
				c-0.4,0.2-0.9,0.3-1.4,0.3c-0.4,0-0.8-0.1-1.1-0.2s-0.7-0.3-0.9-0.5s-0.5-0.5-0.6-0.9c-0.1-0.3-0.2-0.7-0.2-1.2
				c0-0.4,0.1-0.8,0.2-1.1c0.1-0.3,0.3-0.6,0.6-0.9c0.3-0.2,0.5-0.4,0.9-0.6c0.3-0.1,0.7-0.2,1.1-0.2c0.4,0,0.7,0.1,1,0.2
				c0.3,0.1,0.6,0.3,0.8,0.6c0.2,0.2,0.4,0.5,0.5,0.9C216.2,296.5,216.3,296.9,216.3,297.3z M214.7,296.7c0-0.3-0.1-0.5-0.3-0.7
				s-0.4-0.3-0.8-0.3c-0.2,0-0.3,0-0.5,0.1c-0.1,0.1-0.3,0.1-0.4,0.2c-0.1,0.1-0.2,0.2-0.3,0.3s-0.1,0.2-0.1,0.4H214.7z"/>
			<path class="st1" d="M220.4,296.2c-0.1-0.1-0.3-0.2-0.5-0.3c-0.2-0.1-0.4-0.1-0.6-0.1c-0.2,0-0.3,0-0.4,0.1
				c-0.1,0.1-0.2,0.2-0.2,0.3c0,0.1,0.1,0.3,0.2,0.3c0.1,0.1,0.4,0.1,0.7,0.2c0.2,0,0.4,0.1,0.6,0.2c0.2,0.1,0.4,0.2,0.5,0.3
				c0.2,0.1,0.3,0.3,0.4,0.5c0.1,0.2,0.1,0.4,0.1,0.6c0,0.3-0.1,0.6-0.2,0.8c-0.1,0.2-0.3,0.4-0.5,0.5c-0.2,0.1-0.4,0.2-0.7,0.3
				c-0.3,0.1-0.5,0.1-0.8,0.1c-0.4,0-0.8-0.1-1.2-0.2c-0.4-0.1-0.7-0.3-1-0.6l1-1c0.2,0.2,0.3,0.3,0.6,0.4c0.2,0.1,0.5,0.2,0.7,0.2
				c0.1,0,0.3,0,0.4-0.1c0.1-0.1,0.2-0.2,0.2-0.3c0-0.2-0.1-0.3-0.3-0.4c-0.2-0.1-0.4-0.2-0.8-0.2c-0.2,0-0.4-0.1-0.5-0.2
				c-0.2-0.1-0.3-0.2-0.5-0.3c-0.1-0.1-0.3-0.3-0.3-0.4c-0.1-0.2-0.1-0.4-0.1-0.6c0-0.3,0.1-0.6,0.2-0.8s0.3-0.4,0.5-0.5
				s0.4-0.2,0.7-0.3c0.3-0.1,0.5-0.1,0.8-0.1c0.4,0,0.8,0.1,1.1,0.2c0.4,0.1,0.7,0.3,0.9,0.5L220.4,296.2z"/>
			<path class="st1" d="M226.2,298.3c-0.1,0.3-0.2,0.6-0.4,0.9c-0.2,0.3-0.4,0.5-0.7,0.7c-0.3,0.2-0.7,0.3-1.2,0.3
				c-0.6,0-1.1-0.2-1.6-0.5s-0.7-0.7-0.8-1.2l1.6-0.5c0,0.2,0.1,0.4,0.3,0.5c0.1,0.1,0.3,0.2,0.5,0.2c0.3,0,0.5-0.1,0.6-0.3
				s0.1-0.5,0.1-0.8v-4.9h1.8v4.8C226.3,297.6,226.3,297.9,226.2,298.3z"/>
			<path class="st1" d="M231,299.9v-0.7h0c-0.1,0.1-0.1,0.2-0.2,0.3c-0.1,0.1-0.2,0.2-0.4,0.3c-0.1,0.1-0.3,0.1-0.4,0.2
				c-0.2,0-0.3,0.1-0.5,0.1c-0.3,0-0.6-0.1-0.9-0.2c-0.2-0.1-0.4-0.3-0.6-0.5c-0.1-0.2-0.3-0.4-0.3-0.7c-0.1-0.3-0.1-0.5-0.1-0.8
				v-3.2h1.7v2.8c0,0.1,0,0.3,0,0.4s0.1,0.2,0.1,0.4c0.1,0.1,0.1,0.2,0.2,0.2s0.2,0.1,0.4,0.1c0.3,0,0.5-0.1,0.7-0.3
				s0.2-0.5,0.2-0.8v-2.8h1.7v5.2H231z"/>
			<path class="st1" d="M237.4,299.9V297c0-0.1,0-0.3,0-0.4s-0.1-0.2-0.1-0.3s-0.1-0.2-0.2-0.2s-0.2-0.1-0.4-0.1
				c-0.2,0-0.3,0-0.4,0.1c-0.1,0.1-0.2,0.1-0.3,0.2c-0.1,0.1-0.1,0.2-0.2,0.4c0,0.1-0.1,0.3-0.1,0.4v2.8H234v-5.2h1.7v0.7h0
				c0.1-0.1,0.1-0.2,0.2-0.3s0.2-0.2,0.4-0.3c0.1-0.1,0.3-0.1,0.4-0.2c0.2,0,0.3-0.1,0.5-0.1c0.3,0,0.6,0.1,0.9,0.2
				c0.2,0.1,0.4,0.3,0.6,0.5c0.1,0.2,0.3,0.4,0.3,0.7c0.1,0.3,0.1,0.5,0.1,0.8v3.2H237.4z"/>
			<path class="st1" d="M242.2,295.9v2c0,0.2,0,0.4,0.1,0.5c0.1,0.1,0.3,0.2,0.5,0.2c0.1,0,0.2,0,0.3,0s0.2,0,0.2-0.1l0,1.2
				c-0.1,0-0.3,0.1-0.4,0.1c-0.2,0-0.4,0-0.5,0c-0.3,0-0.6,0-0.9-0.1s-0.4-0.2-0.6-0.4c-0.1-0.2-0.2-0.4-0.3-0.6s-0.1-0.5-0.1-0.8
				v-2.2h-0.8v-1.3h0.8v-1.4h1.7v1.4h1.2v1.3H242.2z"/>
			<path class="st1" d="M249.6,297.2c0,0.4-0.1,0.8-0.2,1.1c-0.2,0.3-0.4,0.6-0.6,0.9s-0.6,0.4-0.9,0.6s-0.7,0.2-1.1,0.2
				c-0.4,0-0.8-0.1-1.1-0.2c-0.4-0.1-0.7-0.3-0.9-0.6c-0.3-0.2-0.5-0.5-0.6-0.9c-0.2-0.3-0.2-0.7-0.2-1.1c0-0.4,0.1-0.8,0.2-1.1
				c0.2-0.3,0.4-0.6,0.6-0.9c0.3-0.2,0.6-0.4,0.9-0.5c0.3-0.1,0.7-0.2,1.1-0.2c0.4,0,0.8,0.1,1.1,0.2s0.7,0.3,0.9,0.5
				c0.3,0.2,0.5,0.5,0.6,0.9S249.6,296.8,249.6,297.2z M248,297.2c0-0.2,0-0.3-0.1-0.5c-0.1-0.2-0.1-0.3-0.2-0.4
				c-0.1-0.1-0.2-0.2-0.4-0.3c-0.2-0.1-0.3-0.1-0.5-0.1s-0.4,0-0.5,0.1s-0.3,0.2-0.4,0.3c-0.1,0.1-0.2,0.3-0.2,0.4s-0.1,0.3-0.1,0.5
				c0,0.2,0,0.3,0.1,0.5c0.1,0.2,0.1,0.3,0.2,0.4c0.1,0.1,0.2,0.2,0.4,0.3c0.2,0.1,0.3,0.1,0.5,0.1s0.4,0,0.5-0.1
				c0.2-0.1,0.3-0.2,0.4-0.3c0.1-0.1,0.2-0.3,0.2-0.4C248,297.6,248,297.4,248,297.2z"/>
			<path class="st1" d="M253.7,296.2c-0.1-0.1-0.3-0.2-0.5-0.3c-0.2-0.1-0.4-0.1-0.6-0.1c-0.2,0-0.3,0-0.4,0.1
				c-0.1,0.1-0.2,0.2-0.2,0.3c0,0.1,0.1,0.3,0.2,0.3c0.1,0.1,0.4,0.1,0.7,0.2c0.2,0,0.4,0.1,0.6,0.2c0.2,0.1,0.4,0.2,0.5,0.3
				c0.2,0.1,0.3,0.3,0.4,0.5c0.1,0.2,0.1,0.4,0.1,0.6c0,0.3-0.1,0.6-0.2,0.8c-0.1,0.2-0.3,0.4-0.5,0.5c-0.2,0.1-0.4,0.2-0.7,0.3
				c-0.3,0.1-0.5,0.1-0.8,0.1c-0.4,0-0.8-0.1-1.2-0.2c-0.4-0.1-0.7-0.3-1-0.6l1-1c0.2,0.2,0.3,0.3,0.6,0.4c0.2,0.1,0.5,0.2,0.7,0.2
				c0.1,0,0.3,0,0.4-0.1c0.1-0.1,0.2-0.2,0.2-0.3c0-0.2-0.1-0.3-0.3-0.4c-0.2-0.1-0.4-0.2-0.8-0.2c-0.2,0-0.4-0.1-0.5-0.2
				c-0.2-0.1-0.3-0.2-0.5-0.3c-0.1-0.1-0.3-0.3-0.3-0.4c-0.1-0.2-0.1-0.4-0.1-0.6c0-0.3,0.1-0.6,0.2-0.8s0.3-0.4,0.5-0.5
				s0.4-0.2,0.7-0.3c0.3-0.1,0.5-0.1,0.8-0.1c0.4,0,0.8,0.1,1.1,0.2c0.4,0.1,0.7,0.3,0.9,0.5L253.7,296.2z"/>
		</g>
	</g>
</g>
</svg>
