<?xml version="1.0" encoding="utf-8"?>
<!-- Generator: Adobe Illustrator 22.0.1, SVG Export Plug-In . SVG Version: 6.00 Build 0)  -->
<svg version="1.1" id="Capa_1" xmlns="http://www.w3.org/2000/svg" xmlns:xlink="http://www.w3.org/1999/xlink" x="0px" y="0px"
	 viewBox="0 0 590 555.2" style="enable-background:new 0 0 590 555.2;" xml:space="preserve">
<style type="text/css">
	.st0{fill:#606060;}
	.st1{fill:#FF132A;}
	.st2{fill:none;stroke:#FF132A;stroke-miterlimit:10;}
</style>
<g>
	<path class="st0" d="M11.6,8.2v6.6h7.7V8.2h2.9v15.4h-2.9v-6.2h-7.7v6.2H8.7V8.2H11.6z"/>
	<path class="st0" d="M36.8,17.7c0,3.6-2.5,6-6.2,6c-3.7,0-6.2-2.4-6.2-6c0-3.6,2.5-6,6.2-6C34.3,11.8,36.8,14.2,36.8,17.7z
		 M27.3,17.8c0,2.1,1.4,3.6,3.3,3.6c1.9,0,3.3-1.5,3.3-3.6s-1.4-3.6-3.3-3.6C28.7,14.2,27.3,15.7,27.3,17.8z"/>
	<path class="st0" d="M39.5,28c-1.1,0-2-0.3-2.9-1.1l1.2-2.2c0.5,0.4,1,0.6,1.5,0.6c0.7,0,1.3-0.4,1.7-1.2l0.4-0.8l-4.9-11.6h3
		l3.3,8.6l3.1-8.6h2.9l-5.3,13.2C42.7,27.1,41.4,28,39.5,28z"/>
	<path class="st0" d="M52.1,22.2c0,0.5-0.2,0.9-0.4,1.3l-1.3,2h-1.4l0.9-2c-0.4-0.3-0.6-0.7-0.6-1.3c0-0.9,0.6-1.5,1.5-1.5
		C51.4,20.7,52.1,21.2,52.1,22.2z"/>
	<path class="st0" d="M70.2,18.7h-8.7c0.4,1.7,1.6,2.7,3.4,2.7c1.2,0,2.3-0.5,3.2-1.3l1.5,1.6c-1.2,1.3-2.9,2-5,2
		c-3.7,0-6.1-2.4-6.1-6c0-3.6,2.5-6,6-6C68.8,11.8,70.5,14.5,70.2,18.7z M67.7,16.8c-0.1-1.7-1.2-2.8-3-2.8c-1.7,0-2.9,1.1-3.1,2.8
		H67.7z"/>
	<path class="st0" d="M83.7,16.3v7.3h-2.9v-6.5c0-1.7-1-2.7-2.6-2.7c-1.9,0-3.1,1.5-3.1,3.4v5.8h-2.9V11.9h2.9v2.2
		c0.8-1.6,2.3-2.3,4.2-2.3C82.1,11.7,83.7,13.5,83.7,16.3z"/>
	<path class="st0" d="M102.4,18.7h-8.7c0.4,1.7,1.6,2.7,3.4,2.7c1.2,0,2.3-0.5,3.2-1.3l1.5,1.6c-1.2,1.3-2.9,2-5,2
		c-3.7,0-6.1-2.4-6.1-6c0-3.6,2.5-6,6-6C100.9,11.8,102.6,14.5,102.4,18.7z M99.8,16.8c-0.1-1.7-1.2-2.8-3-2.8
		c-1.7,0-2.9,1.1-3.1,2.8H99.8z"/>
	<path class="st0" d="M107.9,14c-0.9,0-1.6,0.3-1.6,1c0,2,6.2,0.9,6.2,5.2c0,2.4-2.1,3.6-4.6,3.6c-1.8,0-3.6-0.6-4.9-1.7l1-2
		c1.1,0.9,2.7,1.5,4,1.5c1,0,1.7-0.3,1.7-1.1c0-2.2-6.1-1-6.1-5.2c0-2.4,2.1-3.5,4.4-3.5c1.5,0,3.1,0.5,4.3,1.3l-1,2.1
		C110.2,14.4,108.9,14,107.9,14z"/>
	<path class="st0" d="M121.5,22.9c-0.9,0.6-1.9,0.9-2.9,0.9c-1.9,0-3.5-1.1-3.5-3.5v-5.8h-1.7l0-2.1h1.7V9.1h2.8v3.2h3.4v2.1h-3.4
		v5.3c0,1.1,0.5,1.5,1.2,1.5c0.5,0,1-0.2,1.7-0.5L121.5,22.9z"/>
	<path class="st0" d="M133.7,18.7H125c0.4,1.7,1.7,2.7,3.4,2.7c1.2,0,2.3-0.5,3.2-1.3l1.5,1.6c-1.2,1.3-2.9,2-5,2
		c-3.7,0-6.1-2.4-6.1-6c0-3.6,2.5-6,6-6C132.2,11.8,134,14.5,133.7,18.7z M131.1,16.8c-0.1-1.7-1.2-2.8-3-2.8
		c-1.7,0-2.9,1.1-3.1,2.8H131.1z"/>
	<path class="st0" d="M152.4,7.3v16.3h-2.9v-1.9c-0.8,1.3-2.2,2-4,2c-3.4,0-5.6-2.5-5.6-6.1c0-3.6,2.2-6,5.5-6c1.8,0,3.2,0.7,4,2
		V7.3H152.4z M149.5,17.8c0-2.1-1.4-3.6-3.3-3.6c-2,0-3.3,1.5-3.3,3.6c0,2.1,1.4,3.6,3.3,3.6C148.2,21.4,149.5,19.9,149.5,17.8z"/>
	<path class="st0" d="M160.6,8l-2.7,2.3h-2.4l2.3-3.4L160.6,8z M158.5,11.9v11.8h-2.9V11.9H158.5z"/>
	<path class="st0" d="M168.5,23.6v-1.4c-0.8,1-2.1,1.6-3.8,1.6c-2.5,0-4.1-1.6-4.1-3.7c0-2.2,1.6-3.5,4.5-3.5h3.4v-0.3
		c0-1.4-0.9-2.2-2.7-2.2c-1.1,0-2.3,0.4-3.5,1.1l-1-2c1.7-0.9,3-1.5,5.2-1.5c3.1,0,4.8,1.6,4.8,4.2l0,7.7H168.5z M168.5,19.5v-1.1
		h-3c-1.5,0-2.2,0.4-2.2,1.5c0,1,0.8,1.6,2.1,1.6C167.1,21.6,168.4,20.7,168.5,19.5z"/>
	<path class="st0" d="M176.3,22.2c0,0.5-0.2,0.9-0.4,1.3l-1.3,2h-1.4l0.9-2c-0.4-0.3-0.6-0.7-0.6-1.3c0-0.9,0.6-1.5,1.5-1.5
		C175.6,20.7,176.3,21.2,176.3,22.2z"/>
	<path class="st0" d="M195.2,7.3v16.3h-2.9v-1.9c-0.8,1.3-2.2,2-4,2c-3.4,0-5.6-2.5-5.6-6.1c0-3.6,2.2-6,5.5-6c1.8,0,3.2,0.7,4,2
		V7.3H195.2z M192.4,17.8c0-2.1-1.4-3.6-3.3-3.6c-2,0-3.3,1.5-3.3,3.6c0,2.1,1.4,3.6,3.3,3.6C191,21.4,192.4,19.9,192.4,17.8z"/>
	<path class="st0" d="M209,18.7h-8.7c0.4,1.7,1.6,2.7,3.4,2.7c1.2,0,2.3-0.5,3.2-1.3l1.5,1.6c-1.2,1.3-2.9,2-5,2
		c-3.7,0-6.1-2.4-6.1-6c0-3.6,2.5-6,6-6C207.5,11.8,209.3,14.5,209,18.7z M206.4,16.8c-0.1-1.7-1.2-2.8-3-2.8
		c-1.7,0-2.9,1.1-3.1,2.8H206.4z"/>
	<path class="st0" d="M214.6,14c-0.9,0-1.6,0.3-1.6,1c0,2,6.2,0.9,6.2,5.2c0,2.4-2.1,3.6-4.6,3.6c-1.8,0-3.6-0.6-4.9-1.7l1-2
		c1.1,0.9,2.7,1.5,4,1.5c1,0,1.7-0.3,1.7-1.1c0-2.2-6.1-1-6.1-5.2c0-2.4,2.1-3.5,4.4-3.5c1.5,0,3.1,0.5,4.3,1.3l-1,2.1
		C216.9,14.4,215.6,14,214.6,14z"/>
	<path class="st0" d="M231.7,18.7H223c0.4,1.7,1.7,2.7,3.4,2.7c1.2,0,2.3-0.5,3.2-1.3l1.5,1.6c-1.2,1.3-2.9,2-5,2
		c-3.7,0-6.1-2.4-6.1-6c0-3.6,2.5-6,6-6C230.2,11.8,232,14.5,231.7,18.7z M229.1,16.8c-0.1-1.7-1.2-2.8-3-2.8
		c-1.7,0-2.9,1.1-3.1,2.8H229.1z"/>
	<path class="st0" d="M240.7,23.6v-1.4c-0.8,1-2.1,1.6-3.8,1.6c-2.5,0-4.1-1.6-4.1-3.7c0-2.2,1.6-3.5,4.5-3.5h3.4v-0.3
		c0-1.4-0.9-2.2-2.7-2.2c-1.1,0-2.3,0.4-3.5,1.1l-1-2c1.7-0.9,3-1.5,5.2-1.5c3.1,0,4.8,1.6,4.8,4.2l0,7.7H240.7z M240.7,19.5v-1.1
		h-3c-1.5,0-2.2,0.4-2.2,1.5c0,1,0.8,1.6,2.1,1.6C239.3,21.6,240.6,20.7,240.7,19.5z"/>
	<path class="st0" d="M266,16.3v7.3h-2.9v-6.5c0-1.7-1-2.7-2.6-2.7c-1.8,0.1-3,1.5-3,3.4v5.8h-2.9v-6.5c0-1.7-1-2.7-2.6-2.7
		c-1.9,0.1-3,1.5-3,3.4v5.8h-2.9V11.9h2.9V14c0.8-1.6,2.3-2.3,4.1-2.3c2.1,0,3.5,1,4,2.8c0.8-1.9,2.3-2.8,4.4-2.8
		C264.4,11.7,266,13.5,266,16.3z"/>
	<path class="st0" d="M280.1,17.7c0,3.6-2.5,6-6.2,6c-3.7,0-6.2-2.4-6.2-6c0-3.6,2.5-6,6.2-6C277.6,11.8,280.1,14.2,280.1,17.7z
		 M270.6,17.8c0,2.1,1.4,3.6,3.3,3.6c1.9,0,3.3-1.5,3.3-3.6s-1.4-3.6-3.3-3.6C272,14.2,270.6,15.7,270.6,17.8z"/>
	<path class="st0" d="M285.7,14c-0.9,0-1.6,0.3-1.6,1c0,2,6.2,0.9,6.2,5.2c0,2.4-2.1,3.6-4.6,3.6c-1.8,0-3.6-0.6-4.9-1.7l1-2
		c1.1,0.9,2.7,1.5,4,1.5c1,0,1.7-0.3,1.7-1.1c0-2.2-6.1-1-6.1-5.2c0-2.4,2.1-3.5,4.4-3.5c1.5,0,3.1,0.5,4.3,1.3l-1,2.1
		C288,14.4,286.7,14,285.7,14z"/>
	<path class="st0" d="M304.6,23.6v-1.4c-0.8,1-2.1,1.6-3.8,1.6c-2.5,0-4.1-1.6-4.1-3.7c0-2.2,1.6-3.5,4.5-3.5h3.4v-0.3
		c0-1.4-0.9-2.2-2.7-2.2c-1.1,0-2.3,0.4-3.5,1.1l-1-2c1.7-0.9,3-1.5,5.2-1.5c3.1,0,4.8,1.6,4.8,4.2l0,7.7H304.6z M304.6,19.5v-1.1
		h-3c-1.5,0-2.2,0.4-2.2,1.5c0,1,0.8,1.6,2.1,1.6C303.1,21.6,304.4,20.7,304.6,19.5z"/>
	<path class="st0" d="M320.9,11.9v10.6c0,3.4-2.4,5.5-6.2,5.5c-1.9,0-3.6-0.6-5-1.6l1.1-2.1c1.1,0.8,2.3,1.2,3.7,1.2
		c2.1,0,3.5-1.2,3.5-3v-1.4c-0.8,1.2-2.1,1.8-3.7,1.8c-3.1,0-5.2-2.3-5.2-5.7c0-3.3,2.1-5.6,5.1-5.6c1.7,0,3,0.7,3.8,1.8v-1.8H320.9
		z M318.1,17.4c0-2-1.3-3.4-3.1-3.4c-1.8,0-3.1,1.4-3.1,3.4c0,2,1.3,3.4,3.1,3.4C316.8,20.8,318.1,19.4,318.1,17.4z"/>
	<path class="st0" d="M330.7,11.7v2.8c-2.5-0.2-4,1.3-4,3.4v5.7h-2.9V11.9h2.9v2.3C327.5,12.6,328.9,11.8,330.7,11.7z"/>
	<path class="st0" d="M338.8,23.6v-1.4c-0.8,1-2.1,1.6-3.8,1.6c-2.5,0-4.1-1.6-4.1-3.7c0-2.2,1.6-3.5,4.5-3.5h3.4v-0.3
		c0-1.4-0.9-2.2-2.7-2.2c-1.1,0-2.3,0.4-3.5,1.1l-1-2c1.7-0.9,3-1.5,5.2-1.5c3.1,0,4.8,1.6,4.8,4.2l0,7.7H338.8z M338.8,19.5v-1.1
		h-3c-1.5,0-2.2,0.4-2.2,1.5c0,1,0.8,1.6,2.1,1.6C337.3,21.6,338.6,20.7,338.8,19.5z"/>
	<path class="st0" d="M355.8,7.3v16.3h-2.9v-1.9c-0.8,1.3-2.2,2-4,2c-3.4,0-5.6-2.5-5.6-6.1c0-3.6,2.2-6,5.5-6c1.8,0,3.2,0.7,4,2
		V7.3H355.8z M352.9,17.8c0-2.1-1.4-3.6-3.3-3.6c-2,0-3.3,1.5-3.3,3.6c0,2.1,1.4,3.6,3.3,3.6C351.5,21.4,352.9,19.9,352.9,17.8z"/>
	<path class="st0" d="M369.5,18.7h-8.7c0.4,1.7,1.7,2.7,3.4,2.7c1.2,0,2.3-0.5,3.2-1.3l1.5,1.6c-1.2,1.3-2.9,2-5,2
		c-3.7,0-6.1-2.4-6.1-6c0-3.6,2.5-6,6-6C368,11.8,369.8,14.5,369.5,18.7z M366.9,16.8c-0.1-1.7-1.2-2.8-3-2.8
		c-1.7,0-2.9,1.1-3.1,2.8H366.9z"/>
	<path class="st0" d="M376.6,14.3c-1.9,0-3.2,1.4-3.2,3.5c0,2.1,1.3,3.5,3.2,3.5c1.4,0,2.5-0.5,3.2-1.4l1.8,1.5
		c-1,1.5-2.8,2.4-5.1,2.4c-3.5,0-5.9-2.4-5.9-6c0-3.6,2.4-6,6-6c2.2,0,3.9,0.8,4.9,2.2l-1.7,1.7C378.9,14.8,377.9,14.3,376.6,14.3z"
		/>
	<path class="st0" d="M393.7,18.7H385c0.4,1.7,1.6,2.7,3.4,2.7c1.2,0,2.3-0.5,3.2-1.3l1.5,1.6c-1.2,1.3-2.9,2-5,2
		c-3.7,0-6.1-2.4-6.1-6c0-3.6,2.5-6,6-6C392.2,11.8,394,14.5,393.7,18.7z M391.1,16.8c-0.1-1.7-1.2-2.8-3-2.8
		c-1.7,0-2.9,1.1-3.1,2.8H391.1z"/>
	<path class="st0" d="M402.6,11.7v2.8c-2.5-0.2-4,1.3-4,3.4v5.7h-2.9V11.9h2.9v2.3C399.4,12.6,400.8,11.8,402.6,11.7z"/>
	<path class="st0" d="M416.4,23.6v-1.4c-0.8,1-2.1,1.6-3.8,1.6c-2.5,0-4.1-1.6-4.1-3.7c0-2.2,1.6-3.5,4.5-3.5h3.4v-0.3
		c0-1.4-0.9-2.2-2.7-2.2c-1.1,0-2.3,0.4-3.5,1.1l-1-2c1.7-0.9,3-1.5,5.2-1.5c3.1,0,4.8,1.6,4.8,4.2l0,7.7H416.4z M416.4,19.5v-1.1
		h-3c-1.5,0-2.2,0.4-2.2,1.5c0,1,0.8,1.6,2.1,1.6C414.9,21.6,416.2,20.7,416.4,19.5z"/>
	<path class="st0" d="M434.2,22.9c-0.9,0.6-1.9,0.9-2.9,0.9c-1.9,0-3.5-1.1-3.5-3.5v-5.8h-1.7l0-2.1h1.7V9.1h2.8v3.2h3.4v2.1h-3.4
		v5.3c0,1.1,0.5,1.5,1.2,1.5c0.5,0,1-0.2,1.7-0.5L434.2,22.9z"/>
	<path class="st0" d="M447.2,17.7c0,3.6-2.5,6-6.2,6c-3.7,0-6.2-2.4-6.2-6c0-3.6,2.5-6,6.2-6C444.7,11.8,447.2,14.2,447.2,17.7z
		 M437.7,17.8c0,2.1,1.4,3.6,3.3,3.6c1.9,0,3.3-1.5,3.3-3.6s-1.4-3.6-3.3-3.6C439.1,14.2,437.7,15.7,437.7,17.8z"/>
	<path class="st0" d="M460.6,7.3v16.3h-2.9v-1.9c-0.8,1.3-2.2,2-4,2c-3.4,0-5.6-2.5-5.6-6.1c0-3.6,2.2-6,5.5-6c1.8,0,3.2,0.7,4,2
		V7.3H460.6z M457.8,17.8c0-2.1-1.4-3.6-3.3-3.6c-2,0-3.3,1.5-3.3,3.6c0,2.1,1.4,3.6,3.3,3.6C456.4,21.4,457.8,19.9,457.8,17.8z"/>
	<path class="st0" d="M475.2,17.7c0,3.6-2.5,6-6.2,6c-3.7,0-6.2-2.4-6.2-6c0-3.6,2.5-6,6.2-6C472.7,11.8,475.2,14.2,475.2,17.7z
		 M465.7,17.8c0,2.1,1.4,3.6,3.3,3.6c1.9,0,3.3-1.5,3.3-3.6s-1.4-3.6-3.3-3.6C467,14.2,465.7,15.7,465.7,17.8z"/>
	<path class="st0" d="M480.7,14c-0.9,0-1.6,0.3-1.6,1c0,2,6.2,0.9,6.2,5.2c0,2.4-2.1,3.6-4.6,3.6c-1.8,0-3.6-0.6-4.9-1.7l1-2
		c1.1,0.9,2.7,1.5,4,1.5c1,0,1.7-0.3,1.7-1.1c0-2.2-6.1-1-6.1-5.2c0-2.4,2.1-3.5,4.4-3.5c1.5,0,3.1,0.5,4.3,1.3l-1,2.1
		C483.1,14.4,481.8,14,480.7,14z"/>
	<path class="st0" d="M504.1,16.3v7.3h-2.9v-6.5c0-1.7-1-2.7-2.6-2.7c-1.9,0-3.1,1.5-3.1,3.4v5.8h-2.9V11.9h2.9v2.2
		c0.8-1.6,2.3-2.3,4.2-2.3C502.5,11.7,504.1,13.5,504.1,16.3z"/>
	<path class="st0" d="M517.8,11.9v11.8h-2.9v-2.2c-0.8,1.6-2.2,2.3-4.1,2.3c-2.6,0-4.3-1.7-4.3-4.5v-7.4h2.9v6.5
		c0,1.6,0.9,2.6,2.5,2.6c1.8,0,2.9-1.5,2.9-3.4v-5.8H517.8z"/>
	<path class="st0" d="M531.4,18.7h-8.7c0.4,1.7,1.7,2.7,3.4,2.7c1.2,0,2.3-0.5,3.2-1.3l1.5,1.6c-1.2,1.3-2.9,2-5,2
		c-3.7,0-6.1-2.4-6.1-6c0-3.6,2.5-6,6-6C529.9,11.8,531.7,14.5,531.4,18.7z M528.8,16.8c-0.1-1.7-1.2-2.8-3-2.8
		c-1.7,0-2.9,1.1-3.1,2.8H528.8z"/>
	<path class="st0" d="M537,14c-0.9,0-1.6,0.3-1.6,1c0,2,6.2,0.9,6.2,5.2c0,2.4-2.1,3.6-4.6,3.6c-1.8,0-3.6-0.6-4.9-1.7l1-2
		c1.1,0.9,2.7,1.5,4,1.5c1,0,1.7-0.3,1.7-1.1c0-2.2-6.1-1-6.1-5.2c0-2.4,2.1-3.5,4.4-3.5c1.5,0,3.1,0.5,4.3,1.3l-1,2.1
		C539.3,14.4,538,14,537,14z"/>
	<path class="st0" d="M550.5,22.9c-0.9,0.6-1.9,0.9-2.9,0.9c-1.9,0-3.5-1.1-3.5-3.5v-5.8h-1.7l0-2.1h1.7V9.1h2.8v3.2h3.4v2.1H547
		v5.3c0,1.1,0.5,1.5,1.2,1.5c0.5,0,1-0.2,1.7-0.5L550.5,22.9z"/>
	<path class="st0" d="M559.2,11.7v2.8c-2.5-0.2-4,1.3-4,3.4v5.7h-2.9V11.9h2.9v2.3C556,12.6,557.4,11.8,559.2,11.7z"/>
	<path class="st0" d="M572.1,17.7c0,3.6-2.5,6-6.2,6c-3.7,0-6.2-2.4-6.2-6c0-3.6,2.5-6,6.2-6C569.6,11.8,572.1,14.2,572.1,17.7z
		 M562.6,17.8c0,2.1,1.4,3.6,3.3,3.6c1.9,0,3.3-1.5,3.3-3.6s-1.4-3.6-3.3-3.6C563.9,14.2,562.6,15.7,562.6,17.8z"/>
	<path class="st0" d="M577.7,14c-0.9,0-1.6,0.3-1.6,1c0,2,6.2,0.9,6.2,5.2c0,2.4-2.1,3.6-4.6,3.6c-1.8,0-3.6-0.6-4.9-1.7l1-2
		c1.1,0.9,2.7,1.5,4,1.5c1,0,1.7-0.3,1.7-1.1c0-2.2-6.1-1-6.1-5.2c0-2.4,2.1-3.5,4.4-3.5c1.5,0,3.1,0.5,4.3,1.3l-1,2.1
		C580,14.4,578.7,14,577.7,14z"/>
	<path class="st0" d="M13.4,50.3c-1.9,0-3.2,1.4-3.2,3.5c0,2.1,1.3,3.5,3.2,3.5c1.4,0,2.5-0.5,3.2-1.4l1.8,1.5
		c-1,1.5-2.8,2.4-5.1,2.4c-3.5,0-5.9-2.4-5.9-6c0-3.6,2.4-6,6-6c2.2,0,3.9,0.8,4.9,2.2l-1.7,1.7C15.7,50.8,14.7,50.3,13.4,50.3z"/>
	<path class="st0" d="M31.3,53.7c0,3.6-2.5,6-6.2,6c-3.7,0-6.2-2.4-6.2-6c0-3.6,2.5-6,6.2-6C28.8,47.8,31.3,50.2,31.3,53.7z
		 M21.7,53.8c0,2.1,1.4,3.6,3.3,3.6c1.9,0,3.3-1.5,3.3-3.6s-1.4-3.6-3.3-3.6C23.1,50.2,21.7,51.7,21.7,53.8z"/>
	<path class="st0" d="M36.3,43.3v16.3h-2.9V43.3H36.3z"/>
	<path class="st0" d="M46.5,59.6v-1.4c-0.8,1-2.1,1.6-3.8,1.6c-2.5,0-4.1-1.6-4.1-3.7c0-2.2,1.6-3.5,4.5-3.5h3.4v-0.3
		c0-1.4-0.9-2.2-2.7-2.2c-1.1,0-2.3,0.4-3.5,1.1l-1-2c1.7-0.9,3-1.5,5.2-1.5c3.1,0,4.8,1.6,4.8,4.2l0,7.7H46.5z M46.5,55.5v-1.1h-3
		c-1.5,0-2.2,0.4-2.2,1.5c0,1,0.8,1.6,2.1,1.6C45,57.6,46.3,56.7,46.5,55.5z"/>
	<path class="st0" d="M64.6,53.8c0,3.5-2.2,5.9-5.5,5.9c-1.8,0-3.1-0.7-4-2v1.9h-2.9V43.3H55v6.5c0.8-1.3,2.2-2,4-2
		C62.3,47.8,64.6,50.2,64.6,53.8z M61.7,53.7c0-2.1-1.4-3.5-3.3-3.5c-2,0-3.3,1.5-3.3,3.5c0,2.1,1.4,3.6,3.3,3.6
		C60.3,57.3,61.7,55.8,61.7,53.7z"/>
	<path class="st0" d="M77.9,53.7c0,3.6-2.5,6-6.2,6c-3.7,0-6.2-2.4-6.2-6c0-3.6,2.5-6,6.2-6C75.4,47.8,77.9,50.2,77.9,53.7z
		 M68.4,53.8c0,2.1,1.4,3.6,3.3,3.6c1.9,0,3.3-1.5,3.3-3.6s-1.4-3.6-3.3-3.6C69.8,50.2,68.4,51.7,68.4,53.8z"/>
	<path class="st0" d="M86.8,47.7v2.8c-2.5-0.2-4,1.3-4,3.4v5.7H80V47.9h2.9v2.3C83.6,48.6,85,47.8,86.8,47.7z"/>
	<path class="st0" d="M94.9,59.6v-1.4c-0.8,1-2.1,1.6-3.8,1.6c-2.5,0-4.1-1.6-4.1-3.7c0-2.2,1.6-3.5,4.5-3.5h3.4v-0.3
		c0-1.4-0.9-2.2-2.7-2.2c-1.1,0-2.3,0.4-3.5,1.1l-1-2c1.7-0.9,3-1.5,5.2-1.5c3.1,0,4.8,1.6,4.8,4.2l0,7.7H94.9z M94.9,55.5v-1.1h-3
		c-1.5,0-2.2,0.4-2.2,1.5c0,1,0.8,1.6,2.1,1.6C93.5,57.6,94.8,56.7,94.9,55.5z"/>
	<path class="st0" d="M111.9,43.3v16.3H109v-1.9c-0.8,1.3-2.2,2-4,2c-3.4,0-5.6-2.5-5.6-6.1c0-3.6,2.2-6,5.5-6c1.8,0,3.2,0.7,4,2
		v-6.5H111.9z M109,53.8c0-2.1-1.4-3.6-3.3-3.6c-2,0-3.3,1.5-3.3,3.6c0,2.1,1.4,3.6,3.3,3.6C107.7,57.4,109,55.9,109,53.8z"/>
	<path class="st0" d="M126.4,53.7c0,3.6-2.5,6-6.2,6c-3.7,0-6.2-2.4-6.2-6c0-3.6,2.5-6,6.2-6C123.9,47.8,126.4,50.2,126.4,53.7z
		 M116.9,53.8c0,2.1,1.4,3.6,3.3,3.6c1.9,0,3.3-1.5,3.3-3.6s-1.4-3.6-3.3-3.6C118.3,50.2,116.9,51.7,116.9,53.8z"/>
	<path class="st0" d="M135.4,47.7v2.8c-2.5-0.2-4,1.3-4,3.4v5.7h-2.9V47.9h2.9v2.3C132.1,48.6,133.5,47.8,135.4,47.7z"/>
	<path class="st0" d="M147.5,54.7h-8.7c0.4,1.7,1.6,2.7,3.4,2.7c1.2,0,2.3-0.5,3.2-1.3l1.5,1.6c-1.2,1.3-2.9,2-5,2
		c-3.7,0-6.1-2.4-6.1-6c0-3.6,2.5-6,6-6C146,47.8,147.7,50.5,147.5,54.7z M144.9,52.8c-0.1-1.7-1.2-2.8-3-2.8
		c-1.7,0-2.9,1.1-3.1,2.8H144.9z"/>
	<path class="st0" d="M153,50c-0.9,0-1.6,0.3-1.6,1c0,2,6.2,0.9,6.2,5.2c0,2.4-2.1,3.6-4.6,3.6c-1.8,0-3.6-0.6-4.9-1.7l1-2
		c1.1,0.9,2.7,1.5,4,1.5c1,0,1.7-0.3,1.7-1.1c0-2.2-6.1-1-6.1-5.2c0-2.4,2.1-3.5,4.4-3.5c1.5,0,3.1,0.5,4.3,1.3l-1,2.1
		C155.3,50.4,154,50,153,50z"/>
	<path class="st0" d="M178.2,53.8c0,3.5-2.2,5.9-5.5,5.9c-1.8,0-3.1-0.7-4-2v6.2h-2.9v-16h2.9v1.9c0.8-1.3,2.2-2,4-2
		C176,47.8,178.2,50.2,178.2,53.8z M175.3,53.7c0-2.1-1.4-3.5-3.3-3.5c-2,0-3.3,1.5-3.3,3.5c0,2.1,1.4,3.6,3.3,3.6
		C174,57.3,175.3,55.8,175.3,53.7z"/>
	<path class="st0" d="M191.6,53.7c0,3.6-2.5,6-6.2,6c-3.7,0-6.2-2.4-6.2-6c0-3.6,2.5-6,6.2-6C189.1,47.8,191.6,50.2,191.6,53.7z
		 M182.1,53.8c0,2.1,1.4,3.6,3.3,3.6c1.9,0,3.3-1.5,3.3-3.6s-1.4-3.6-3.3-3.6C183.4,50.2,182.1,51.7,182.1,53.8z"/>
	<path class="st0" d="M200.5,47.7v2.8c-2.5-0.2-4,1.3-4,3.4v5.7h-2.9V47.9h2.9v2.3C197.3,48.6,198.7,47.8,200.5,47.7z"/>
	<path class="st0" d="M218.7,54.7H210c0.4,1.7,1.7,2.7,3.4,2.7c1.2,0,2.3-0.5,3.2-1.3l1.5,1.6c-1.2,1.3-2.9,2-5,2
		c-3.7,0-6.1-2.4-6.1-6c0-3.6,2.5-6,6-6C217.2,47.8,219,50.5,218.7,54.7z M216.1,52.8c-0.1-1.7-1.2-2.8-3-2.8
		c-1.7,0-2.9,1.1-3.1,2.8H216.1z"/>
	<path class="st0" d="M223.7,43.3v16.3h-2.9V43.3H223.7z"/>
	<path class="st0" d="M243.5,54.7h-8.7c0.4,1.7,1.6,2.7,3.4,2.7c1.2,0,2.3-0.5,3.2-1.3l1.5,1.6c-1.2,1.3-2.9,2-5,2
		c-3.7,0-6.1-2.4-6.1-6c0-3.6,2.5-6,6-6C242,47.8,243.8,50.5,243.5,54.7z M240.9,52.8c-0.1-1.7-1.2-2.8-3-2.8
		c-1.7,0-2.9,1.1-3.1,2.8H240.9z"/>
	<path class="st0" d="M249.1,50c-0.9,0-1.6,0.3-1.6,1c0,2,6.2,0.9,6.2,5.2c0,2.4-2.1,3.6-4.6,3.6c-1.8,0-3.6-0.6-4.9-1.7l1-2
		c1.1,0.9,2.7,1.5,4,1.5c1,0,1.7-0.3,1.7-1.1c0-2.2-6.1-1-6.1-5.2c0-2.4,2.1-3.5,4.4-3.5c1.5,0,3.1,0.5,4.3,1.3l-1,2.1
		C251.4,50.4,250.1,50,249.1,50z"/>
	<path class="st0" d="M259.1,47.1v1.2h2.9v2.1h-2.9v9.2h-2.9v-9.2h-1.5v-2.1h1.5v-1.1c0-2.7,2-4,4.2-4c1,0,2,0.3,2.8,0.8l-1.1,2.2
		c-0.5-0.3-1.1-0.5-1.6-0.5C259.8,45.6,259.1,46.1,259.1,47.1z"/>
	<path class="st0" d="M274.2,47.9v11.8h-2.9v-2.2c-0.8,1.6-2.2,2.3-4.1,2.3c-2.6,0-4.3-1.7-4.3-4.5v-7.4h2.9v6.5
		c0,1.6,0.9,2.6,2.5,2.6c1.8,0,2.9-1.5,2.9-3.4v-5.8H274.2z"/>
	<path class="st0" d="M287.9,54.7h-8.7c0.4,1.7,1.6,2.7,3.4,2.7c1.2,0,2.3-0.5,3.2-1.3l1.5,1.6c-1.2,1.3-2.9,2-5,2
		c-3.7,0-6.1-2.4-6.1-6c0-3.6,2.5-6,6-6C286.4,47.8,288.2,50.5,287.9,54.7z M285.3,52.8c-0.1-1.7-1.2-2.8-3-2.8
		c-1.7,0-2.9,1.1-3.1,2.8H285.3z"/>
	<path class="st0" d="M296.8,47.7v2.8c-2.5-0.2-4,1.3-4,3.4v5.7h-2.9V47.9h2.9v2.3C293.6,48.6,295,47.8,296.8,47.7z"/>
	<path class="st0" d="M307.5,47.9v1.9l-6.5,7.5l6.6,0v2.3l-10.2,0v-1.9l6.5-7.5l-6.2,0v-2.3H307.5z"/>
	<path class="st0" d="M321,53.7c0,3.6-2.5,6-6.2,6c-3.7,0-6.2-2.4-6.2-6c0-3.6,2.5-6,6.2-6C318.5,47.8,321,50.2,321,53.7z
		 M311.5,53.8c0,2.1,1.4,3.6,3.3,3.6c1.9,0,3.3-1.5,3.3-3.6s-1.4-3.6-3.3-3.6C312.9,50.2,311.5,51.7,311.5,53.8z"/>
	<path class="st0" d="M340.5,47.9v16h-2.9v-6.2c-0.8,1.3-2.2,2-4,2c-3.4,0-5.6-2.5-5.6-6.1c0-3.6,2.2-6,5.5-6c1.8,0,3.2,0.7,4,2
		v-1.9H340.5z M337.6,53.8c0-2.1-1.4-3.6-3.3-3.6c-2,0-3.3,1.5-3.3,3.6c0,2.1,1.4,3.6,3.3,3.6C336.3,57.4,337.6,55.9,337.6,53.8z"/>
	<path class="st0" d="M354.6,47.9v11.8h-2.9v-2.2c-0.8,1.6-2.2,2.3-4.1,2.3c-2.6,0-4.3-1.7-4.3-4.5v-7.4h2.9v6.5
		c0,1.6,0.9,2.6,2.5,2.6c1.8,0,2.9-1.5,2.9-3.4v-5.8H354.6z"/>
	<path class="st0" d="M368.2,54.7h-8.7c0.4,1.7,1.6,2.7,3.4,2.7c1.2,0,2.3-0.5,3.2-1.3l1.5,1.6c-1.2,1.3-2.9,2-5,2
		c-3.7,0-6.1-2.4-6.1-6c0-3.6,2.5-6,6-6C366.7,47.8,368.5,50.5,368.2,54.7z M365.6,52.8c-0.1-1.7-1.2-2.8-3-2.8
		c-1.7,0-2.9,1.1-3.1,2.8H365.6z"/>
	<path class="st0" d="M383.2,47.7v2.8c-2.5-0.2-4,1.3-4,3.4v5.7h-2.9V47.9h2.9v2.3C380,48.6,381.4,47.8,383.2,47.7z"/>
	<path class="st0" d="M395.3,54.7h-8.7c0.4,1.7,1.6,2.7,3.4,2.7c1.2,0,2.3-0.5,3.2-1.3l1.5,1.6c-1.2,1.3-2.9,2-5,2
		c-3.7,0-6.1-2.4-6.1-6c0-3.6,2.5-6,6-6C393.8,47.8,395.6,50.5,395.3,54.7z M392.7,52.8c-0.1-1.7-1.2-2.8-3-2.8
		c-1.7,0-2.9,1.1-3.1,2.8H392.7z"/>
	<path class="st0" d="M404.3,59.6v-1.4c-0.8,1-2.1,1.6-3.8,1.6c-2.5,0-4.1-1.6-4.1-3.7c0-2.2,1.6-3.5,4.5-3.5h3.4v-0.3
		c0-1.4-0.9-2.2-2.7-2.2c-1.1,0-2.3,0.4-3.5,1.1l-1-2c1.7-0.9,3-1.5,5.2-1.5c3.1,0,4.8,1.6,4.8,4.2l0,7.7H404.3z M404.3,55.5v-1.1
		h-3c-1.5,0-2.2,0.4-2.2,1.5c0,1,0.8,1.6,2.1,1.6C402.8,57.6,404.1,56.7,404.3,55.5z"/>
	<path class="st0" d="M412.9,43.3v16.3H410V43.3H412.9z"/>
	<path class="st0" d="M419.1,44.5c0,0.9-0.6,1.6-1.5,1.6c-0.9,0-1.5-0.7-1.5-1.6c0-0.9,0.6-1.6,1.5-1.6
		C418.4,42.9,419.1,43.6,419.1,44.5z M419,47.9v11.8h-2.9V47.9H419z"/>
	<path class="st0" d="M431.2,47.9v1.9l-6.5,7.5l6.6,0v2.3l-10.2,0v-1.9l6.5-7.5l-6.2,0v-2.3H431.2z"/>
	<path class="st0" d="M440.3,59.6v-1.4c-0.8,1-2.1,1.6-3.8,1.6c-2.5,0-4.1-1.6-4.1-3.7c0-2.2,1.6-3.5,4.5-3.5h3.4v-0.3
		c0-1.4-0.9-2.2-2.7-2.2c-1.1,0-2.3,0.4-3.5,1.1l-1-2c1.7-0.9,3-1.5,5.2-1.5c3.1,0,4.8,1.6,4.8,4.2l0,7.7H440.3z M440.3,55.5v-1.1
		h-3c-1.5,0-2.2,0.4-2.2,1.5c0,1,0.8,1.6,2.1,1.6C438.8,57.6,440.1,56.7,440.3,55.5z"/>
	<path class="st0" d="M457.3,52.3v7.3h-2.9v-6.5c0-1.7-1-2.7-2.6-2.7c-1.9,0-3.1,1.5-3.1,3.4v5.8h-2.9V47.9h2.9v2.2
		c0.8-1.6,2.3-2.3,4.2-2.3C455.7,47.7,457.3,49.5,457.3,52.3z"/>
	<path class="st0" d="M476.7,54.7H468c0.4,1.7,1.7,2.7,3.4,2.7c1.2,0,2.3-0.5,3.2-1.3l1.5,1.6c-1.2,1.3-2.9,2-5,2
		c-3.7,0-6.1-2.4-6.1-6c0-3.6,2.5-6,6-6C475.2,47.8,477,50.5,476.7,54.7z M474.1,52.8c-0.1-1.7-1.2-2.8-3-2.8
		c-1.7,0-2.9,1.1-3.1,2.8H474.1z"/>
	<path class="st0" d="M490.2,52.3v7.3h-2.9v-6.5c0-1.7-1-2.7-2.6-2.7c-1.9,0-3.1,1.5-3.1,3.4v5.8h-2.9V47.9h2.9v2.2
		c0.8-1.6,2.3-2.3,4.2-2.3C488.5,47.7,490.2,49.5,490.2,52.3z"/>
	<path class="st0" d="M502.5,50c-0.9,0-1.6,0.3-1.6,1c0,2,6.2,0.9,6.2,5.2c0,2.4-2.1,3.6-4.6,3.6c-1.8,0-3.6-0.6-4.9-1.7l1-2
		c1.1,0.9,2.7,1.5,4,1.5c1,0,1.7-0.3,1.7-1.1c0-2.2-6.1-1-6.1-5.2c0-2.4,2.1-3.5,4.4-3.5c1.5,0,3.1,0.5,4.3,1.3l-1,2.1
		C504.8,50.4,503.5,50,502.5,50z"/>
	<path class="st0" d="M520,47.9v11.8h-2.9v-2.2c-0.8,1.6-2.2,2.3-4.1,2.3c-2.6,0-4.3-1.7-4.3-4.5v-7.4h2.9v6.5
		c0,1.6,0.9,2.6,2.5,2.6c1.8,0,2.9-1.5,2.9-3.4v-5.8H520z"/>
	<path class="st0" d="M532.2,43.3v16.3h-2.9V43.3H532.2z"/>
	<path class="st0" d="M542.4,59.6v-1.4c-0.8,1-2.1,1.6-3.8,1.6c-2.5,0-4.1-1.6-4.1-3.7c0-2.2,1.6-3.5,4.5-3.5h3.4v-0.3
		c0-1.4-0.9-2.2-2.7-2.2c-1.1,0-2.3,0.4-3.5,1.1l-1-2c1.7-0.9,3-1.5,5.2-1.5c3.1,0,4.8,1.6,4.8,4.2l0,7.7H542.4z M542.4,55.5v-1.1
		h-3c-1.5,0-2.2,0.4-2.2,1.5c0,1,0.8,1.6,2.1,1.6C540.9,57.6,542.2,56.7,542.4,55.5z"/>
	<path class="st0" d="M560.5,53.8c0,3.5-2.2,5.9-5.5,5.9c-1.8,0-3.1-0.7-4-2v1.9h-2.9V43.3h2.9v6.5c0.8-1.3,2.2-2,4-2
		C558.2,47.8,560.5,50.2,560.5,53.8z M557.6,53.7c0-2.1-1.4-3.5-3.3-3.5c-2,0-3.3,1.5-3.3,3.5c0,2.1,1.4,3.6,3.3,3.6
		C556.2,57.3,557.6,55.8,557.6,53.7z"/>
	<path class="st0" d="M573.8,53.7c0,3.6-2.5,6-6.2,6c-3.7,0-6.2-2.4-6.2-6c0-3.6,2.5-6,6.2-6C571.3,47.8,573.8,50.2,573.8,53.7z
		 M564.3,53.8c0,2.1,1.4,3.6,3.3,3.6c1.9,0,3.3-1.5,3.3-3.6s-1.4-3.6-3.3-3.6C565.7,50.2,564.3,51.7,564.3,53.8z"/>
	<path class="st0" d="M582.7,47.7v2.8c-2.5-0.2-4,1.3-4,3.4v5.7h-2.9V47.9h2.9v2.3C579.5,48.6,580.9,47.8,582.7,47.7z"/>
	<path class="st0" d="M19.6,79.3v16.3h-2.9v-1.9c-0.8,1.3-2.2,2-4,2c-3.4,0-5.6-2.5-5.6-6.1c0-3.6,2.2-6,5.5-6c1.8,0,3.2,0.7,4,2
		v-6.5H19.6z M16.8,89.8c0-2.1-1.4-3.6-3.3-3.6c-2,0-3.3,1.5-3.3,3.6c0,2.1,1.4,3.6,3.3,3.6C15.4,93.4,16.8,91.9,16.8,89.8z"/>
	<path class="st0" d="M25.8,80.5c0,0.9-0.6,1.6-1.5,1.6c-0.9,0-1.5-0.7-1.5-1.6c0-0.9,0.6-1.6,1.5-1.6
		C25.2,78.9,25.8,79.6,25.8,80.5z M25.7,83.9v11.8h-2.9V83.9H25.7z"/>
	<path class="st0" d="M35.8,95.6v-1.4c-0.8,1-2.1,1.6-3.8,1.6c-2.5,0-4.1-1.6-4.1-3.7c0-2.2,1.6-3.5,4.5-3.5h3.4v-0.3
		c0-1.4-0.9-2.2-2.7-2.2c-1.1,0-2.3,0.4-3.5,1.1l-1-2c1.7-0.9,3-1.5,5.2-1.5c3.1,0,4.8,1.6,4.8,4.2l0,7.7H35.8z M35.8,91.5v-1.1h-3
		c-1.5,0-2.2,0.4-2.2,1.5c0,1,0.8,1.6,2.1,1.6C34.3,93.6,35.6,92.7,35.8,91.5z"/>
	<path class="st0" d="M48.2,83.7v2.8c-2.5-0.2-4,1.3-4,3.4v5.7h-2.9V83.9h2.9v2.3C45,84.6,46.4,83.8,48.2,83.7z"/>
	<path class="st0" d="M52.8,80.5c0,0.9-0.6,1.6-1.5,1.6c-0.9,0-1.5-0.7-1.5-1.6c0-0.9,0.6-1.6,1.5-1.6
		C52.1,78.9,52.8,79.6,52.8,80.5z M52.7,83.9v11.8h-2.9V83.9H52.7z"/>
	<path class="st0" d="M62.7,95.6v-1.4c-0.8,1-2.1,1.6-3.8,1.6c-2.5,0-4.1-1.6-4.1-3.7c0-2.2,1.6-3.5,4.5-3.5h3.4v-0.3
		c0-1.4-0.9-2.2-2.7-2.2c-1.1,0-2.3,0.4-3.5,1.1l-1-2c1.7-0.9,3-1.5,5.2-1.5c3.1,0,4.8,1.6,4.8,4.2l0,7.7H62.7z M62.7,91.5v-1.1h-3
		c-1.5,0-2.2,0.4-2.2,1.5c0,1,0.8,1.6,2.1,1.6C61.2,93.6,62.5,92.7,62.7,91.5z"/>
	<path class="st0" d="M70.5,94.2c0,0.9-0.6,1.6-1.5,1.6c-0.9,0-1.5-0.7-1.5-1.6s0.6-1.6,1.5-1.6C69.9,92.7,70.5,93.3,70.5,94.2z"/>
	<path class="st0" d="M94.8,92.4h-7.5l-1.4,3.3h-3.1l6.8-15.4h3.1l6.7,15.4h-3.2L94.8,92.4z M93.7,89.8L91,83.4l-2.7,6.5H93.7z"/>
	<path class="st0" d="M124.9,89.8c0,3.5-2.2,5.9-5.5,5.9c-1.8,0-3.1-0.7-4-2v6.2h-2.9v-16h2.9v1.9c0.8-1.3,2.2-2,4-2
		C122.6,83.8,124.9,86.2,124.9,89.8z M122,89.7c0-2.1-1.4-3.5-3.3-3.5c-2,0-3.3,1.5-3.3,3.5c0,2.1,1.4,3.6,3.3,3.6
		C120.6,93.3,122,91.8,122,89.7z"/>
	<path class="st0" d="M137.5,90.7h-8.7c0.4,1.7,1.6,2.7,3.4,2.7c1.2,0,2.3-0.5,3.2-1.3l1.5,1.6c-1.2,1.3-2.9,2-5,2
		c-3.7,0-6.1-2.4-6.1-6c0-3.6,2.5-6,6-6C136,83.8,137.8,86.5,137.5,90.7z M134.9,88.8c-0.1-1.7-1.2-2.8-3-2.8
		c-1.7,0-2.9,1.1-3.1,2.8H134.9z"/>
	<path class="st0" d="M143,86c-0.9,0-1.6,0.3-1.6,1c0,2,6.2,0.9,6.2,5.2c0,2.4-2.1,3.6-4.6,3.6c-1.8,0-3.6-0.6-4.9-1.7l1-2
		c1.1,0.9,2.7,1.5,4,1.5c1,0,1.7-0.3,1.7-1.1c0-2.2-6.1-1-6.1-5.2c0-2.4,2.1-3.5,4.4-3.5c1.5,0,3.1,0.5,4.3,1.3l-1,2.1
		C145.4,86.4,144.1,86,143,86z"/>
	<path class="st0" d="M156.6,95.6v-1.4c-0.8,1-2.1,1.6-3.8,1.6c-2.5,0-4.1-1.6-4.1-3.7c0-2.2,1.6-3.5,4.5-3.5h3.4v-0.3
		c0-1.4-0.9-2.2-2.7-2.2c-1.1,0-2.3,0.4-3.5,1.1l-1-2c1.7-0.9,3-1.5,5.2-1.5c3.1,0,4.8,1.6,4.8,4.2l0,7.7H156.6z M156.6,91.5v-1.1
		h-3c-1.5,0-2.2,0.4-2.2,1.5c0,1,0.8,1.6,2.1,1.6C155.2,93.6,156.5,92.7,156.6,91.5z"/>
	<path class="st0" d="M169.1,83.7v2.8c-2.5-0.2-4,1.3-4,3.4v5.7h-2.9V83.9h2.9v2.3C165.9,84.6,167.3,83.8,169.1,83.7z"/>
	<path class="st0" d="M193.8,79.3v16.3h-2.9v-1.9c-0.8,1.3-2.2,2-4,2c-3.4,0-5.6-2.5-5.6-6.1c0-3.6,2.2-6,5.5-6c1.8,0,3.2,0.7,4,2
		v-6.5H193.8z M190.9,89.8c0-2.1-1.4-3.6-3.3-3.6c-2,0-3.3,1.5-3.3,3.6c0,2.1,1.4,3.6,3.3,3.6C189.6,93.4,190.9,91.9,190.9,89.8z"/>
	<path class="st0" d="M207.6,90.7h-8.7c0.4,1.7,1.6,2.7,3.4,2.7c1.2,0,2.3-0.5,3.2-1.3l1.5,1.6c-1.2,1.3-2.9,2-5,2
		c-3.7,0-6.1-2.4-6.1-6c0-3.6,2.5-6,6-6C206.1,83.8,207.9,86.5,207.6,90.7z M205,88.8c-0.1-1.7-1.2-2.8-3-2.8
		c-1.7,0-2.9,1.1-3.1,2.8H205z"/>
	<path class="st0" d="M232,90.7h-8.7c0.4,1.7,1.7,2.7,3.4,2.7c1.2,0,2.3-0.5,3.2-1.3l1.5,1.6c-1.2,1.3-2.9,2-5,2
		c-3.7,0-6.1-2.4-6.1-6c0-3.6,2.5-6,6-6C230.5,83.8,232.2,86.5,232,90.7z M229.4,88.8c-0.1-1.7-1.2-2.8-3-2.8
		c-1.7,0-2.9,1.1-3.1,2.8H229.4z"/>
	<path class="st0" d="M245.4,88.3v7.3h-2.9v-6.5c0-1.7-1-2.7-2.6-2.7c-1.9,0-3.1,1.5-3.1,3.4v5.8H234V83.9h2.9v2.2
		c0.8-1.6,2.3-2.3,4.2-2.3C243.8,83.7,245.4,85.5,245.4,88.3z"/>
	<path class="st0" d="M253.2,86.3c-1.9,0-3.2,1.4-3.2,3.5c0,2.1,1.3,3.5,3.2,3.5c1.4,0,2.5-0.5,3.2-1.4l1.8,1.5
		c-1,1.5-2.8,2.4-5.1,2.4c-3.5,0-5.9-2.4-5.9-6c0-3.6,2.4-6,6-6c2.2,0,3.9,0.8,4.9,2.2l-1.7,1.7C255.6,86.8,254.5,86.3,253.2,86.3z"
		/>
	<path class="st0" d="M271.1,89.7c0,3.6-2.5,6-6.2,6c-3.7,0-6.2-2.4-6.2-6c0-3.6,2.5-6,6.2-6C268.6,83.8,271.1,86.2,271.1,89.7z
		 M261.6,89.8c0,2.1,1.4,3.6,3.3,3.6c1.9,0,3.3-1.5,3.3-3.6s-1.4-3.6-3.3-3.6C262.9,86.2,261.6,87.7,261.6,89.8z"/>
	<path class="st0" d="M284.6,88.3v7.3h-2.9v-6.5c0-1.7-1-2.7-2.6-2.7c-1.9,0-3.1,1.5-3.1,3.4v5.8h-2.9V83.9h2.9v2.2
		c0.8-1.6,2.3-2.3,4.2-2.3C282.9,83.7,284.6,85.5,284.6,88.3z"/>
	<path class="st0" d="M294.2,94.9c-0.9,0.6-1.9,0.9-2.9,0.9c-1.9,0-3.5-1.1-3.5-3.5v-5.8h-1.7l0-2.1h1.7v-3.2h2.8v3.2h3.4v2.1h-3.4
		v5.3c0,1.1,0.5,1.5,1.2,1.5c0.5,0,1-0.2,1.7-0.5L294.2,94.9z"/>
	<path class="st0" d="M302.9,83.7v2.8c-2.5-0.2-4,1.3-4,3.4v5.7H296V83.9h2.9v2.3C299.7,84.6,301.1,83.8,302.9,83.7z"/>
	<path class="st0" d="M311,95.6v-1.4c-0.8,1-2.1,1.6-3.8,1.6c-2.5,0-4.1-1.6-4.1-3.7c0-2.2,1.6-3.5,4.5-3.5h3.4v-0.3
		c0-1.4-0.9-2.2-2.7-2.2c-1.1,0-2.3,0.4-3.5,1.1l-1-2c1.7-0.9,3-1.5,5.2-1.5c3.1,0,4.8,1.6,4.8,4.2l0,7.7H311z M311,91.5v-1.1h-3
		c-1.5,0-2.2,0.4-2.2,1.5c0,1,0.8,1.6,2.1,1.6C309.5,93.6,310.8,92.7,311,91.5z"/>
	<path class="st0" d="M323.4,83.7v2.8c-2.5-0.2-4,1.3-4,3.4v5.7h-2.9V83.9h2.9v2.3C320.2,84.6,321.6,83.8,323.4,83.7z"/>
	<path class="st0" d="M328.5,86c-0.9,0-1.6,0.3-1.6,1c0,2,6.2,0.9,6.2,5.2c0,2.4-2.1,3.6-4.6,3.6c-1.8,0-3.6-0.6-4.9-1.7l1-2
		c1.1,0.9,2.7,1.5,4,1.5c1,0,1.7-0.3,1.7-1.1c0-2.2-6.1-1-6.1-5.2c0-2.4,2.1-3.5,4.4-3.5c1.5,0,3.1,0.5,4.3,1.3l-1,2.1
		C330.8,86.4,329.5,86,328.5,86z"/>
	<path class="st0" d="M345.7,90.7H337c0.4,1.7,1.7,2.7,3.4,2.7c1.2,0,2.3-0.5,3.2-1.3l1.5,1.6c-1.2,1.3-2.9,2-5,2
		c-3.7,0-6.1-2.4-6.1-6c0-3.6,2.5-6,6-6C344.2,83.8,346,86.5,345.7,90.7z M343.1,88.8c-0.1-1.7-1.2-2.8-3-2.8
		c-1.7,0-2.9,1.1-3.1,2.8H343.1z"/>
	<path class="st0" d="M370.1,90.7h-8.7c0.4,1.7,1.6,2.7,3.4,2.7c1.2,0,2.3-0.5,3.2-1.3l1.5,1.6c-1.2,1.3-2.9,2-5,2
		c-3.7,0-6.1-2.4-6.1-6c0-3.6,2.5-6,6-6C368.6,83.8,370.4,86.5,370.1,90.7z M367.5,88.8c-0.1-1.7-1.2-2.8-3-2.8
		c-1.7,0-2.9,1.1-3.1,2.8H367.5z"/>
	<path class="st0" d="M383.6,88.3v7.3h-2.9v-6.5c0-1.7-1-2.7-2.6-2.7c-1.9,0-3.1,1.5-3.1,3.4v5.8h-2.9V83.9h2.9v2.2
		c0.8-1.6,2.3-2.3,4.2-2.3C381.9,83.7,383.6,85.5,383.6,88.3z"/>
	<path class="st0" d="M401.7,86c-0.9,0-1.6,0.3-1.6,1c0,2,6.2,0.9,6.2,5.2c0,2.4-2.1,3.6-4.6,3.6c-1.8,0-3.6-0.6-4.9-1.7l1-2
		c1.1,0.9,2.7,1.5,4,1.5c1,0,1.7-0.3,1.7-1.1c0-2.2-6.1-1-6.1-5.2c0-2.4,2.1-3.5,4.4-3.5c1.5,0,3.1,0.5,4.3,1.3l-1,2.1
		C404,86.4,402.7,86,401.7,86z"/>
	<path class="st0" d="M419.2,83.9v11.8h-2.9v-2.2c-0.8,1.6-2.2,2.3-4.1,2.3c-2.6,0-4.3-1.7-4.3-4.5v-7.4h2.9v6.5
		c0,1.6,0.9,2.6,2.5,2.6c1.8,0,2.9-1.5,2.9-3.4v-5.8H419.2z"/>
	<path class="st0" d="M425.8,86c-0.9,0-1.6,0.3-1.6,1c0,2,6.2,0.9,6.2,5.2c0,2.4-2.1,3.6-4.6,3.6c-1.8,0-3.6-0.6-4.9-1.7l1-2
		c1.1,0.9,2.7,1.5,4,1.5c1,0,1.7-0.3,1.7-1.1c0-2.2-6.1-1-6.1-5.2c0-2.4,2.1-3.5,4.4-3.5c1.5,0,3.1,0.5,4.3,1.3l-1,2.1
		C428.1,86.4,426.8,86,425.8,86z"/>
	<path class="st0" d="M449.3,86.3c-1.9,0-3.2,1.4-3.2,3.5c0,2.1,1.3,3.5,3.2,3.5c1.4,0,2.5-0.5,3.2-1.4l1.8,1.5
		c-1,1.5-2.8,2.4-5.1,2.4c-3.5,0-5.9-2.4-5.9-6c0-3.6,2.4-6,6-6c2.2,0,3.9,0.8,4.9,2.2l-1.7,1.7C451.6,86.8,450.6,86.3,449.3,86.3z"
		/>
	<path class="st0" d="M462.8,95.6v-1.4c-0.8,1-2.1,1.6-3.8,1.6c-2.5,0-4.1-1.6-4.1-3.7c0-2.2,1.6-3.5,4.5-3.5h3.4v-0.3
		c0-1.4-0.9-2.2-2.7-2.2c-1.1,0-2.3,0.4-3.5,1.1l-1-2c1.7-0.9,3-1.5,5.2-1.5c3.1,0,4.8,1.6,4.8,4.2l0,7.7H462.8z M462.7,91.5v-1.1
		h-3c-1.5,0-2.2,0.4-2.2,1.5c0,1,0.8,1.6,2.1,1.6C461.3,93.6,462.6,92.7,462.7,91.5z"/>
	<path class="st0" d="M471.9,86c-0.9,0-1.6,0.3-1.6,1c0,2,6.2,0.9,6.2,5.2c0,2.4-2.1,3.6-4.6,3.6c-1.8,0-3.6-0.6-4.9-1.7l1-2
		c1.1,0.9,2.7,1.5,4,1.5c1,0,1.7-0.3,1.7-1.1c0-2.2-6.1-1-6.1-5.2c0-2.4,2.1-3.5,4.4-3.5c1.5,0,3.1,0.5,4.3,1.3l-1,2.1
		C474.2,86.4,472.9,86,471.9,86z"/>
	<path class="st0" d="M485.5,95.6v-1.4c-0.8,1-2.1,1.6-3.8,1.6c-2.5,0-4.1-1.6-4.1-3.7c0-2.2,1.6-3.5,4.5-3.5h3.4v-0.3
		c0-1.4-0.9-2.2-2.7-2.2c-1.1,0-2.3,0.4-3.5,1.1l-1-2c1.7-0.9,3-1.5,5.2-1.5c3.1,0,4.8,1.6,4.8,4.2l0,7.7H485.5z M485.4,91.5v-1.1
		h-3c-1.5,0-2.2,0.4-2.2,1.5c0,1,0.8,1.6,2.1,1.6C484,93.6,485.3,92.7,485.4,91.5z"/>
	<path class="st0" d="M494.6,86c-0.9,0-1.6,0.3-1.6,1c0,2,6.2,0.9,6.2,5.2c0,2.4-2.1,3.6-4.6,3.6c-1.8,0-3.6-0.6-4.9-1.7l1-2
		c1.1,0.9,2.7,1.5,4,1.5c1,0,1.7-0.3,1.7-1.1c0-2.2-6.1-1-6.1-5.2c0-2.4,2.1-3.5,4.4-3.5c1.5,0,3.1,0.5,4.3,1.3l-1,2.1
		C496.9,86.4,495.6,86,494.6,86z"/>
	<path class="st0" d="M503.4,94.2c0,0.5-0.2,0.9-0.4,1.3l-1.3,2h-1.4l0.9-2c-0.4-0.3-0.6-0.7-0.6-1.3c0-0.9,0.6-1.5,1.5-1.5
		C502.7,92.7,503.4,93.2,503.4,94.2z"/>
	<path class="st0" d="M529.9,89.8c0,3.5-2.2,5.9-5.5,5.9c-1.8,0-3.1-0.7-4-2v6.2h-2.9v-16h2.9v1.9c0.8-1.3,2.2-2,4-2
		C527.7,83.8,529.9,86.2,529.9,89.8z M527,89.7c0-2.1-1.4-3.5-3.3-3.5c-2,0-3.3,1.5-3.3,3.5c0,2.1,1.4,3.6,3.3,3.6
		C525.7,93.3,527,91.8,527,89.7z"/>
	<path class="st0" d="M543.3,89.7c0,3.6-2.5,6-6.2,6c-3.7,0-6.2-2.4-6.2-6c0-3.6,2.5-6,6.2-6C540.8,83.8,543.3,86.2,543.3,89.7z
		 M533.8,89.8c0,2.1,1.4,3.6,3.3,3.6c1.9,0,3.3-1.5,3.3-3.6s-1.4-3.6-3.3-3.6C535.1,86.2,533.8,87.7,533.8,89.8z"/>
	<path class="st0" d="M552.2,83.7v2.8c-2.5-0.2-4,1.3-4,3.4v5.7h-2.9V83.9h2.9v2.3C549,84.6,550.4,83.8,552.2,83.7z"/>
	<path class="st0" d="M568.5,79.3v16.3h-2.9V79.3H568.5z"/>
	<path class="st0" d="M578.7,95.6v-1.4c-0.8,1-2.1,1.6-3.8,1.6c-2.5,0-4.1-1.6-4.1-3.7c0-2.2,1.6-3.5,4.5-3.5h3.4v-0.3
		c0-1.4-0.9-2.2-2.7-2.2c-1.1,0-2.3,0.4-3.5,1.1l-1-2c1.7-0.9,3-1.5,5.2-1.5c3.1,0,4.8,1.6,4.8,4.2l0,7.7H578.7z M578.7,91.5v-1.1
		h-3c-1.5,0-2.2,0.4-2.2,1.5c0,1,0.8,1.6,2.1,1.6C577.2,93.6,578.5,92.7,578.7,91.5z"/>
	<path class="st0" d="M12,122c-0.9,0-1.6,0.3-1.6,1c0,2,6.2,0.9,6.2,5.2c0,2.4-2.1,3.6-4.6,3.6c-1.8,0-3.6-0.6-4.9-1.7l1-2
		c1.1,0.9,2.7,1.5,4,1.5c1,0,1.7-0.3,1.7-1.1c0-2.2-6.1-1-6.1-5.2c0-2.4,2.1-3.5,4.4-3.5c1.5,0,3.1,0.5,4.3,1.3l-1,2.1
		C14.3,122.4,13,122,12,122z"/>
	<path class="st0" d="M21.6,116.5c0,0.9-0.6,1.6-1.5,1.6c-0.9,0-1.5-0.7-1.5-1.6c0-0.9,0.6-1.6,1.5-1.6
		C20.9,114.9,21.6,115.6,21.6,116.5z M21.5,119.9v11.8h-2.9v-11.8H21.5z"/>
	<path class="st0" d="M31.4,130.9c-0.9,0.6-1.9,0.9-2.9,0.9c-1.9,0-3.5-1.1-3.5-3.5v-5.8h-1.7l0-2.1H25v-3.2h2.8v3.2h3.4v2.1h-3.4
		v5.3c0,1.1,0.5,1.5,1.2,1.5c0.5,0,1-0.2,1.7-0.5L31.4,130.9z"/>
	<path class="st0" d="M44.1,119.9v11.8h-2.9v-2.2c-0.8,1.6-2.2,2.3-4.1,2.3c-2.6,0-4.3-1.7-4.3-4.5v-7.4h2.9v6.5
		c0,1.6,0.9,2.6,2.5,2.6c1.8,0,2.9-1.5,2.9-3.4v-5.8H44.1z"/>
	<path class="st0" d="M54.2,131.6v-1.4c-0.8,1-2.1,1.6-3.8,1.6c-2.5,0-4.1-1.6-4.1-3.7c0-2.2,1.6-3.5,4.5-3.5h3.4v-0.3
		c0-1.4-0.9-2.2-2.7-2.2c-1.1,0-2.3,0.4-3.5,1.1l-1-2c1.7-0.9,3-1.5,5.2-1.5c3.1,0,4.8,1.6,4.8,4.2l0,7.7H54.2z M54.2,127.5v-1.1h-3
		c-1.5,0-2.2,0.4-2.2,1.5c0,1,0.8,1.6,2.1,1.6C52.7,129.6,54,128.7,54.2,127.5z"/>
	<path class="st0" d="M64.8,122.3c-1.9,0-3.2,1.4-3.2,3.5c0,2.1,1.3,3.5,3.2,3.5c1.4,0,2.5-0.5,3.2-1.4l1.8,1.5
		c-1,1.5-2.8,2.4-5.1,2.4c-3.5,0-5.9-2.4-5.9-6c0-3.6,2.4-6,6-6c2.2,0,3.9,0.8,4.9,2.2l-1.7,1.7C67.1,122.8,66.1,122.3,64.8,122.3z"
		/>
	<path class="st0" d="M74.7,116.5c0,0.9-0.6,1.6-1.5,1.6c-0.9,0-1.5-0.7-1.5-1.6c0-0.9,0.6-1.6,1.5-1.6
		C74.1,114.9,74.7,115.6,74.7,116.5z M74.6,119.9v11.8h-2.9v-11.8H74.6z"/>
	<path class="st0" d="M89,125.7c0,3.6-2.5,6-6.2,6c-3.7,0-6.2-2.4-6.2-6c0-3.6,2.5-6,6.2-6C86.5,119.8,89,122.2,89,125.7z
		 M79.5,125.8c0,2.1,1.4,3.6,3.3,3.6c1.9,0,3.3-1.5,3.3-3.6s-1.4-3.6-3.3-3.6C80.9,122.2,79.5,123.7,79.5,125.8z M86.4,116l-2.7,2.3
		h-2.4l2.3-3.4L86.4,116z"/>
	<path class="st0" d="M102.5,124.3v7.3h-2.9v-6.5c0-1.7-1-2.7-2.6-2.7c-1.9,0-3.1,1.5-3.1,3.4v5.8h-2.9v-11.8h2.9v2.2
		c0.8-1.6,2.3-2.3,4.2-2.3C100.9,119.7,102.5,121.5,102.5,124.3z"/>
	<path class="st0" d="M130,119.9v16h-2.9v-6.2c-0.8,1.3-2.2,2-4,2c-3.4,0-5.6-2.5-5.6-6.1c0-3.6,2.2-6,5.5-6c1.8,0,3.2,0.7,4,2v-1.9
		H130z M127.2,125.8c0-2.1-1.4-3.6-3.3-3.6c-2,0-3.3,1.5-3.3,3.6c0,2.1,1.4,3.6,3.3,3.6C125.8,129.4,127.2,127.9,127.2,125.8z"/>
	<path class="st0" d="M144.1,119.9v11.8h-2.9v-2.2c-0.8,1.6-2.2,2.3-4.1,2.3c-2.6,0-4.3-1.7-4.3-4.5v-7.4h2.9v6.5
		c0,1.6,0.9,2.6,2.5,2.6c1.8,0,2.9-1.5,2.9-3.4v-5.8H144.1z"/>
	<path class="st0" d="M157.8,126.7h-8.7c0.4,1.7,1.7,2.7,3.4,2.7c1.2,0,2.3-0.5,3.2-1.3l1.5,1.6c-1.2,1.3-2.9,2-5,2
		c-3.7,0-6.1-2.4-6.1-6c0-3.6,2.5-6,6-6C156.3,119.8,158.1,122.5,157.8,126.7z M155.2,124.8c-0.1-1.7-1.2-2.8-3-2.8
		c-1.7,0-2.9,1.1-3.1,2.8H155.2z"/>
	<path class="st0" d="M174.4,119.9l3.1,9l3-9h2.9l-4.5,11.8h-2.9l-4.5-11.8L174.4,119.9z"/>
	<path class="st0" d="M187.5,116.5c0,0.9-0.6,1.6-1.5,1.6c-0.9,0-1.5-0.7-1.5-1.6c0-0.9,0.6-1.6,1.5-1.6
		C186.9,114.9,187.5,115.6,187.5,116.5z M187.4,119.9v11.8h-2.9v-11.8H187.4z"/>
	<path class="st0" d="M191.7,119.9l3.1,9l3-9h2.9l-4.5,11.8h-2.9l-4.5-11.8L191.7,119.9z"/>
	<path class="st0" d="M212,126.7h-8.7c0.4,1.7,1.6,2.7,3.4,2.7c1.2,0,2.3-0.5,3.2-1.3l1.5,1.6c-1.2,1.3-2.9,2-5,2
		c-3.7,0-6.1-2.4-6.1-6c0-3.6,2.5-6,6-6C210.5,119.8,212.3,122.5,212,126.7z M209.4,124.8c-0.1-1.7-1.2-2.8-3-2.8
		c-1.7,0-2.9,1.1-3.1,2.8H209.4z"/>
	<path class="st0" d="M238.9,124.3v7.3H236v-6.5c0-1.7-1-2.7-2.6-2.7c-1.9,0-3.1,1.5-3.1,3.4v5.8h-2.9v-11.8h2.9v2.2
		c0.8-1.6,2.3-2.3,4.2-2.3C237.2,119.7,238.9,121.5,238.9,124.3z"/>
	<path class="st0" d="M252.5,119.9v11.8h-2.9v-2.2c-0.8,1.6-2.2,2.3-4.1,2.3c-2.6,0-4.3-1.7-4.3-4.5v-7.4h2.9v6.5
		c0,1.6,0.9,2.6,2.5,2.6c1.8,0,2.9-1.5,2.9-3.4v-5.8H252.5z"/>
	<path class="st0" d="M266.2,126.7h-8.7c0.4,1.7,1.7,2.7,3.4,2.7c1.2,0,2.3-0.5,3.2-1.3l1.5,1.6c-1.2,1.3-2.9,2-5,2
		c-3.7,0-6.1-2.4-6.1-6c0-3.6,2.5-6,6-6C264.7,119.8,266.5,122.5,266.2,126.7z M263.6,124.8c-0.1-1.7-1.2-2.8-3-2.8
		c-1.7,0-2.9,1.1-3.1,2.8H263.6z"/>
	<path class="st0" d="M271.7,122c-0.9,0-1.6,0.3-1.6,1c0,2,6.2,0.9,6.2,5.2c0,2.4-2.1,3.6-4.6,3.6c-1.8,0-3.6-0.6-4.9-1.7l1-2
		c1.1,0.9,2.7,1.5,4,1.5c1,0,1.7-0.3,1.7-1.1c0-2.2-6.1-1-6.1-5.2c0-2.4,2.1-3.5,4.4-3.5c1.5,0,3.1,0.5,4.3,1.3l-1,2.1
		C274.1,122.4,272.8,122,271.7,122z"/>
	<path class="st0" d="M285.3,130.9c-0.9,0.6-1.9,0.9-2.9,0.9c-1.9,0-3.5-1.1-3.5-3.5v-5.8h-1.7l0-2.1h1.7v-3.2h2.8v3.2h3.4v2.1h-3.4
		v5.3c0,1.1,0.5,1.5,1.2,1.5c0.5,0,1-0.2,1.7-0.5L285.3,130.9z"/>
	<path class="st0" d="M293.9,119.7v2.8c-2.5-0.2-4,1.3-4,3.4v5.7h-2.9v-11.8h2.9v2.3C290.7,120.6,292.1,119.8,293.9,119.7z"/>
	<path class="st0" d="M306.8,125.7c0,3.6-2.5,6-6.2,6c-3.7,0-6.2-2.4-6.2-6c0-3.6,2.5-6,6.2-6C304.3,119.8,306.8,122.2,306.8,125.7z
		 M297.3,125.8c0,2.1,1.4,3.6,3.3,3.6c1.9,0,3.3-1.5,3.3-3.6s-1.4-3.6-3.3-3.6C298.7,122.2,297.3,123.7,297.3,125.8z"/>
	<path class="st0" d="M334.7,125.8c0,3.5-2.2,5.9-5.5,5.9c-1.8,0-3.1-0.7-4-2v6.2h-2.9v-16h2.9v1.9c0.8-1.3,2.2-2,4-2
		C332.5,119.8,334.7,122.2,334.7,125.8z M331.8,125.7c0-2.1-1.4-3.5-3.3-3.5c-2,0-3.3,1.5-3.3,3.5c0,2.1,1.4,3.6,3.3,3.6
		C330.5,129.3,331.8,127.8,331.8,125.7z"/>
	<path class="st0" d="M343.7,131.6v-1.4c-0.8,1-2.1,1.6-3.8,1.6c-2.5,0-4.1-1.6-4.1-3.7c0-2.2,1.6-3.5,4.5-3.5h3.4v-0.3
		c0-1.4-0.9-2.2-2.7-2.2c-1.1,0-2.3,0.4-3.5,1.1l-1-2c1.7-0.9,3-1.5,5.2-1.5c3.1,0,4.8,1.6,4.8,4.2l0,7.7H343.7z M343.7,127.5v-1.1
		h-3c-1.5,0-2.2,0.4-2.2,1.5c0,1,0.8,1.6,2.1,1.6C342.3,129.6,343.6,128.7,343.7,127.5z"/>
	<path class="st0" d="M354.3,116l-2.7,2.3h-2.4l2.3-3.4L354.3,116z M352.2,119.9v11.8h-2.9v-11.8H352.2z"/>
	<path class="st0" d="M358.8,122c-0.9,0-1.6,0.3-1.6,1c0,2,6.2,0.9,6.2,5.2c0,2.4-2.1,3.6-4.6,3.6c-1.8,0-3.6-0.6-4.9-1.7l1-2
		c1.1,0.9,2.7,1.5,4,1.5c1,0,1.7-0.3,1.7-1.1c0-2.2-6.1-1-6.1-5.2c0-2.4,2.1-3.5,4.4-3.5c1.5,0,3.1,0.5,4.3,1.3l-1,2.1
		C361.1,122.4,359.8,122,358.8,122z"/>
	<path class="st0" d="M367.6,130.2c0,0.5-0.2,0.9-0.4,1.3l-1.3,2h-1.4l0.9-2c-0.4-0.3-0.6-0.7-0.6-1.3c0-0.9,0.6-1.5,1.5-1.5
		C366.9,128.7,367.6,129.2,367.6,130.2z"/>
	<path class="st0" d="M386.8,122c-0.9,0-1.6,0.3-1.6,1c0,2,6.2,0.9,6.2,5.2c0,2.4-2.1,3.6-4.6,3.6c-1.8,0-3.6-0.6-4.9-1.7l1-2
		c1.1,0.9,2.7,1.5,4,1.5c1,0,1.7-0.3,1.7-1.1c0-2.2-6.1-1-6.1-5.2c0-2.4,2.1-3.5,4.4-3.5c1.5,0,3.1,0.5,4.3,1.3l-1,2.1
		C389.1,122.4,387.8,122,386.8,122z"/>
	<path class="st0" d="M396.4,116.5c0,0.9-0.6,1.6-1.5,1.6c-0.9,0-1.5-0.7-1.5-1.6c0-0.9,0.6-1.6,1.5-1.6
		C395.7,114.9,396.4,115.6,396.4,116.5z M396.3,119.9v11.8h-2.9v-11.8H396.3z"/>
	<path class="st0" d="M410.1,119.9v10.6c0,3.4-2.4,5.5-6.2,5.5c-1.9,0-3.6-0.6-5-1.6l1.1-2.1c1.1,0.8,2.3,1.2,3.7,1.2
		c2.1,0,3.5-1.2,3.5-3v-1.4c-0.8,1.2-2.1,1.8-3.7,1.8c-3.1,0-5.2-2.3-5.2-5.7c0-3.3,2.1-5.6,5.1-5.6c1.7,0,3,0.7,3.8,1.8v-1.8H410.1
		z M407.3,125.4c0-2-1.3-3.4-3.1-3.4c-1.8,0-3.1,1.4-3.1,3.4c0,2,1.3,3.4,3.1,3.4C406,128.8,407.3,127.4,407.3,125.4z"/>
	<path class="st0" d="M423.9,119.9v11.8H421v-2.2c-0.8,1.6-2.2,2.3-4.1,2.3c-2.6,0-4.3-1.7-4.3-4.5v-7.4h2.9v6.5
		c0,1.6,0.9,2.6,2.5,2.6c1.8,0,2.9-1.5,2.9-3.4v-5.8H423.9z"/>
	<path class="st0" d="M437.6,126.7h-8.7c0.4,1.7,1.6,2.7,3.4,2.7c1.2,0,2.3-0.5,3.2-1.3l1.5,1.6c-1.2,1.3-2.9,2-5,2
		c-3.7,0-6.1-2.4-6.1-6c0-3.6,2.5-6,6-6C436.1,119.8,437.9,122.5,437.6,126.7z M435,124.8c-0.1-1.7-1.2-2.8-3-2.8
		c-1.7,0-2.9,1.1-3.1,2.8H435z"/>
	<path class="st0" d="M451.1,124.3v7.3h-2.9v-6.5c0-1.7-1-2.7-2.6-2.7c-1.9,0-3.1,1.5-3.1,3.4v5.8h-2.9v-11.8h2.9v2.2
		c0.8-1.6,2.3-2.3,4.2-2.3C449.4,119.7,451.1,121.5,451.1,124.3z"/>
	<path class="st0" d="M474.1,130.9c-0.9,0.6-1.9,0.9-2.9,0.9c-1.9,0-3.5-1.1-3.5-3.5v-5.8H466l0-2.1h1.7v-3.2h2.8v3.2h3.4v2.1h-3.4
		v5.3c0,1.1,0.5,1.5,1.2,1.5c0.5,0,1-0.2,1.7-0.5L474.1,130.9z"/>
	<path class="st0" d="M482.8,119.7v2.8c-2.5-0.2-4,1.3-4,3.4v5.7h-2.9v-11.8h2.9v2.3C479.5,120.6,480.9,119.8,482.8,119.7z"/>
	<path class="st0" d="M490.9,131.6v-1.4c-0.8,1-2.1,1.6-3.8,1.6c-2.5,0-4.1-1.6-4.1-3.7c0-2.2,1.6-3.5,4.5-3.5h3.4v-0.3
		c0-1.4-0.9-2.2-2.7-2.2c-1.1,0-2.3,0.4-3.5,1.1l-1-2c1.7-0.9,3-1.5,5.2-1.5c3.1,0,4.8,1.6,4.8,4.2l0,7.7H490.9z M490.8,127.5v-1.1
		h-3c-1.5,0-2.2,0.4-2.2,1.5c0,1,0.8,1.6,2.1,1.6C489.4,129.6,490.7,128.7,490.8,127.5z"/>
	<path class="st0" d="M508.9,125.8c0,3.5-2.2,5.9-5.5,5.9c-1.8,0-3.1-0.7-4-2v1.9h-2.9v-16.3h2.9v6.5c0.8-1.3,2.2-2,4-2
		C506.7,119.8,508.9,122.2,508.9,125.8z M506,125.7c0-2.1-1.4-3.5-3.3-3.5c-2,0-3.3,1.5-3.3,3.5c0,2.1,1.4,3.6,3.3,3.6
		C504.7,129.3,506,127.8,506,125.7z"/>
	<path class="st0" d="M517.9,131.6v-1.4c-0.8,1-2.1,1.6-3.8,1.6c-2.5,0-4.1-1.6-4.1-3.7c0-2.2,1.6-3.5,4.5-3.5h3.4v-0.3
		c0-1.4-0.9-2.2-2.7-2.2c-1.1,0-2.3,0.4-3.5,1.1l-1-2c1.7-0.9,3-1.5,5.2-1.5c3.1,0,4.8,1.6,4.8,4.2l0,7.7H517.9z M517.9,127.5v-1.1
		h-3c-1.5,0-2.2,0.4-2.2,1.5c0,1,0.8,1.6,2.1,1.6C516.5,129.6,517.8,128.7,517.9,127.5z"/>
	<path class="st0" d="M522.4,136c-0.9,0-1.9-0.3-2.6-0.8l0.9-2.2c0.5,0.3,1,0.5,1.5,0.5c0.7,0,1.3-0.5,1.3-1.5v-12.2h2.8V132
		C526.4,134.7,524.5,136,522.4,136z M526.7,116.5c0,1-0.7,1.7-1.7,1.7c-1,0-1.7-0.7-1.7-1.7c0-1,0.7-1.7,1.7-1.7
		C526,114.8,526.7,115.5,526.7,116.5z"/>
	<path class="st0" d="M536.5,131.6v-1.4c-0.8,1-2.1,1.6-3.8,1.6c-2.5,0-4.1-1.6-4.1-3.7c0-2.2,1.6-3.5,4.5-3.5h3.4v-0.3
		c0-1.4-0.9-2.2-2.7-2.2c-1.1,0-2.3,0.4-3.5,1.1l-1-2c1.7-0.9,3-1.5,5.2-1.5c3.1,0,4.8,1.6,4.8,4.2l0,7.7H536.5z M536.5,127.5v-1.1
		h-3c-1.5,0-2.2,0.4-2.2,1.5c0,1,0.8,1.6,2.1,1.6C535.1,129.6,536.4,128.7,536.5,127.5z"/>
	<path class="st0" d="M553.6,124.3v7.3h-2.9v-6.5c0-1.7-1-2.7-2.6-2.7c-1.9,0-3.1,1.5-3.1,3.4v5.8h-2.9v-11.8h2.9v2.2
		c0.8-1.6,2.3-2.3,4.2-2.3C551.9,119.7,553.6,121.5,553.6,124.3z"/>
	<path class="st0" d="M567.7,115.3v16.3h-2.9v-1.9c-0.8,1.3-2.2,2-4,2c-3.4,0-5.6-2.5-5.6-6.1c0-3.6,2.2-6,5.5-6c1.8,0,3.2,0.7,4,2
		v-6.5H567.7z M564.8,125.8c0-2.1-1.4-3.6-3.3-3.6c-2,0-3.3,1.5-3.3,3.6c0,2.1,1.4,3.6,3.3,3.6C563.5,129.4,564.8,127.9,564.8,125.8
		z"/>
	<path class="st0" d="M582.3,125.7c0,3.6-2.5,6-6.2,6c-3.7,0-6.2-2.4-6.2-6c0-3.6,2.5-6,6.2-6C579.8,119.8,582.3,122.2,582.3,125.7z
		 M572.7,125.8c0,2.1,1.4,3.6,3.3,3.6c1.9,0,3.3-1.5,3.3-3.6s-1.4-3.6-3.3-3.6C574.1,122.2,572.7,123.7,572.7,125.8z"/>
	<path class="st0" d="M15.4,167.6v-1.4c-0.8,1-2.1,1.6-3.8,1.6c-2.5,0-4.1-1.6-4.1-3.7c0-2.2,1.6-3.5,4.5-3.5h3.4v-0.3
		c0-1.4-0.9-2.2-2.7-2.2c-1.1,0-2.3,0.4-3.5,1.1l-1-2c1.7-0.9,3-1.5,5.2-1.5c3.1,0,4.8,1.6,4.8,4.2l0,7.7H15.4z M15.4,163.5v-1.1h-3
		c-1.5,0-2.2,0.4-2.2,1.5c0,1,0.8,1.6,2.1,1.6C13.9,165.6,15.2,164.7,15.4,163.5z"/>
	<path class="st0" d="M27.8,155.7v2.8c-2.5-0.2-4,1.3-4,3.4v5.7H21v-11.8h2.9v2.3C24.6,156.6,26,155.8,27.8,155.7z"/>
	<path class="st0" d="M40.7,151.3v16.3h-2.9v-1.9c-0.8,1.3-2.2,2-4,2c-3.4,0-5.6-2.5-5.6-6.1c0-3.6,2.2-6,5.5-6c1.8,0,3.2,0.7,4,2
		v-6.5H40.7z M37.9,161.8c0-2.1-1.4-3.6-3.3-3.6c-2,0-3.3,1.5-3.3,3.6c0,2.1,1.4,3.6,3.3,3.6C36.5,165.4,37.9,163.9,37.9,161.8z"/>
	<path class="st0" d="M54.8,155.9v11.8H52v-2.2c-0.8,1.6-2.2,2.3-4.1,2.3c-2.6,0-4.3-1.7-4.3-4.5v-7.4h2.9v6.5
		c0,1.6,0.9,2.6,2.5,2.6c1.8,0,2.9-1.5,2.9-3.4v-5.8H54.8z"/>
	<path class="st0" d="M64.9,167.6v-1.4c-0.8,1-2.1,1.6-3.8,1.6c-2.5,0-4.1-1.6-4.1-3.7c0-2.2,1.6-3.5,4.5-3.5h3.4v-0.3
		c0-1.4-0.9-2.2-2.7-2.2c-1.1,0-2.3,0.4-3.5,1.1l-1-2c1.7-0.9,3-1.5,5.2-1.5c3.1,0,4.8,1.6,4.8,4.2l0,7.7H64.9z M64.9,163.5v-1.1h-3
		c-1.5,0-2.2,0.4-2.2,1.5c0,1,0.8,1.6,2.1,1.6C63.4,165.6,64.7,164.7,64.9,163.5z"/>
	<path class="st0" d="M90.2,160.3v7.3h-2.9v-6.5c0-1.7-1-2.7-2.6-2.7c-1.8,0.1-3,1.5-3,3.4v5.8h-2.9v-6.5c0-1.7-1-2.7-2.6-2.7
		c-1.9,0.1-3,1.5-3,3.4v5.8h-2.9v-11.8h2.9v2.2c0.8-1.6,2.3-2.3,4.1-2.3c2.1,0,3.5,1,4,2.8c0.8-1.9,2.3-2.8,4.4-2.8
		C88.6,155.7,90.2,157.5,90.2,160.3z"/>
	<path class="st0" d="M103.5,162.7h-8.7c0.4,1.7,1.7,2.7,3.4,2.7c1.2,0,2.3-0.5,3.2-1.3l1.5,1.6c-1.2,1.3-2.9,2-5,2
		c-3.7,0-6.1-2.4-6.1-6c0-3.6,2.5-6,6-6C102,155.8,103.8,158.5,103.5,162.7z M100.9,160.8c-0.1-1.7-1.2-2.8-3-2.8
		c-1.7,0-2.9,1.1-3.1,2.8H100.9z"/>
	<path class="st0" d="M117,160.3v7.3h-2.9v-6.5c0-1.7-1-2.7-2.6-2.7c-1.9,0-3.1,1.5-3.1,3.4v5.8h-2.9v-11.8h2.9v2.2
		c0.8-1.6,2.3-2.3,4.2-2.3C115.3,155.7,117,157.5,117,160.3z"/>
	<path class="st0" d="M126.6,166.9c-0.9,0.6-1.9,0.9-2.9,0.9c-1.9,0-3.5-1.1-3.5-3.5v-5.8h-1.7l0-2.1h1.7v-3.2h2.8v3.2h3.4v2.1h-3.4
		v5.3c0,1.1,0.5,1.5,1.2,1.5c0.5,0,1-0.2,1.7-0.5L126.6,166.9z"/>
	<path class="st0" d="M138.9,162.7h-8.7c0.4,1.7,1.7,2.7,3.4,2.7c1.2,0,2.3-0.5,3.2-1.3l1.5,1.6c-1.2,1.3-2.9,2-5,2
		c-3.7,0-6.1-2.4-6.1-6c0-3.6,2.5-6,6-6C137.4,155.8,139.2,158.5,138.9,162.7z M136.3,160.8c-0.1-1.7-1.2-2.8-3-2.8
		c-1.7,0-2.9,1.1-3.1,2.8H136.3z"/>
	<path class="st0" d="M168.2,161.8c0,3.5-2.2,5.9-5.5,5.9c-1.8,0-3.1-0.7-4-2v6.2h-2.9v-16h2.9v1.9c0.8-1.3,2.2-2,4-2
		C166,155.8,168.2,158.2,168.2,161.8z M165.3,161.7c0-2.1-1.4-3.5-3.3-3.5c-2,0-3.3,1.5-3.3,3.5c0,2.1,1.4,3.6,3.3,3.6
		C163.9,165.3,165.3,163.8,165.3,161.7z"/>
	<path class="st0" d="M177.2,167.6v-1.4c-0.8,1-2.1,1.6-3.8,1.6c-2.5,0-4.1-1.6-4.1-3.7c0-2.2,1.6-3.5,4.5-3.5h3.4v-0.3
		c0-1.4-0.9-2.2-2.7-2.2c-1.1,0-2.3,0.4-3.5,1.1l-1-2c1.7-0.9,3-1.5,5.2-1.5c3.1,0,4.8,1.6,4.8,4.2l0,7.7H177.2z M177.2,163.5v-1.1
		h-3c-1.5,0-2.2,0.4-2.2,1.5c0,1,0.8,1.6,2.1,1.6C175.7,165.6,177,164.7,177.2,163.5z"/>
	<path class="st0" d="M189.7,155.7v2.8c-2.5-0.2-4,1.3-4,3.4v5.7h-2.9v-11.8h2.9v2.3C186.5,156.6,187.8,155.8,189.7,155.7z"/>
	<path class="st0" d="M197.8,167.6v-1.4c-0.8,1-2.1,1.6-3.8,1.6c-2.5,0-4.1-1.6-4.1-3.7c0-2.2,1.6-3.5,4.5-3.5h3.4v-0.3
		c0-1.4-0.9-2.2-2.7-2.2c-1.1,0-2.3,0.4-3.5,1.1l-1-2c1.7-0.9,3-1.5,5.2-1.5c3.1,0,4.8,1.6,4.8,4.2l0,7.7H197.8z M197.7,163.5v-1.1
		h-3c-1.5,0-2.2,0.4-2.2,1.5c0,1,0.8,1.6,2.1,1.6C196.3,165.6,197.6,164.7,197.7,163.5z"/>
	<path class="st0" d="M228.7,162.7H220c0.4,1.7,1.7,2.7,3.4,2.7c1.2,0,2.3-0.5,3.2-1.3l1.5,1.6c-1.2,1.3-2.9,2-5,2
		c-3.7,0-6.1-2.4-6.1-6c0-3.6,2.5-6,6-6C227.2,155.8,229,158.5,228.7,162.7z M226.1,160.8c-0.1-1.7-1.2-2.8-3-2.8
		c-1.7,0-2.9,1.1-3.1,2.8H226.1z"/>
	<path class="st0" d="M242.2,160.3v7.3h-2.9v-6.5c0-1.7-1-2.7-2.6-2.7c-1.9,0-3.1,1.5-3.1,3.4v5.8h-2.9v-11.8h2.9v2.2
		c0.8-1.6,2.3-2.3,4.2-2.3C240.5,155.7,242.2,157.5,242.2,160.3z"/>
	<path class="st0" d="M251.8,166.9c-0.9,0.6-1.9,0.9-2.9,0.9c-1.9,0-3.5-1.1-3.5-3.5v-5.8h-1.7l0-2.1h1.7v-3.2h2.8v3.2h3.4v2.1h-3.4
		v5.3c0,1.1,0.5,1.5,1.2,1.5c0.5,0,1-0.2,1.7-0.5L251.8,166.9z"/>
	<path class="st0" d="M260.5,155.7v2.8c-2.5-0.2-4,1.3-4,3.4v5.7h-2.9v-11.8h2.9v2.3C257.3,156.6,258.7,155.8,260.5,155.7z"/>
	<path class="st0" d="M272.6,162.7h-8.7c0.4,1.7,1.7,2.7,3.4,2.7c1.2,0,2.3-0.5,3.2-1.3l1.5,1.6c-1.2,1.3-2.9,2-5,2
		c-3.7,0-6.1-2.4-6.1-6c0-3.6,2.5-6,6-6C271.1,155.8,272.9,158.5,272.6,162.7z M270,160.8c-0.1-1.7-1.2-2.8-3-2.8
		c-1.7,0-2.9,1.1-3.1,2.8H270z"/>
	<path class="st0" d="M285.4,155.9v10.6c0,3.4-2.4,5.5-6.2,5.5c-1.9,0-3.6-0.6-5-1.6l1.1-2.1c1.1,0.8,2.3,1.2,3.7,1.2
		c2.1,0,3.5-1.2,3.5-3v-1.4c-0.8,1.2-2.1,1.8-3.7,1.8c-3.1,0-5.2-2.3-5.2-5.7c0-3.3,2.1-5.6,5.1-5.6c1.7,0,3,0.7,3.8,1.8v-1.8H285.4
		z M282.5,161.4c0-2-1.3-3.4-3.1-3.4c-1.8,0-3.1,1.4-3.1,3.4c0,2,1.3,3.4,3.1,3.4C281.3,164.8,282.5,163.4,282.5,161.4z"/>
	<path class="st0" d="M295.3,167.6v-1.4c-0.8,1-2.1,1.6-3.8,1.6c-2.5,0-4.1-1.6-4.1-3.7c0-2.2,1.6-3.5,4.5-3.5h3.4v-0.3
		c0-1.4-0.9-2.2-2.7-2.2c-1.1,0-2.3,0.4-3.5,1.1l-1-2c1.7-0.9,3-1.5,5.2-1.5c3.1,0,4.8,1.6,4.8,4.2l0,7.7H295.3z M295.3,163.5v-1.1
		h-3c-1.5,0-2.2,0.4-2.2,1.5c0,1,0.8,1.6,2.1,1.6C293.8,165.6,295.1,164.7,295.3,163.5z"/>
	<path class="st0" d="M307.7,155.7v2.8c-2.5-0.2-4,1.3-4,3.4v5.7h-2.9v-11.8h2.9v2.3C304.5,156.6,305.9,155.8,307.7,155.7z"/>
	<path class="st0" d="M331,167.6v-1.4c-0.8,1-2.1,1.6-3.8,1.6c-2.5,0-4.1-1.6-4.1-3.7c0-2.2,1.6-3.5,4.5-3.5h3.4v-0.3
		c0-1.4-0.9-2.2-2.7-2.2c-1.1,0-2.3,0.4-3.5,1.1l-1-2c1.7-0.9,3-1.5,5.2-1.5c3.1,0,4.8,1.6,4.8,4.2l0,7.7H331z M331,163.5v-1.1h-3
		c-1.5,0-2.2,0.4-2.2,1.5c0,1,0.8,1.6,2.1,1.6C329.6,165.6,330.9,164.7,331,163.5z"/>
	<path class="st0" d="M362.9,160.3v7.3H360v-6.5c0-1.7-1-2.7-2.6-2.7c-1.9,0-3.1,1.5-3.1,3.4v5.8h-2.9v-11.8h2.9v2.2
		c0.8-1.6,2.3-2.3,4.2-2.3C361.2,155.7,362.9,157.5,362.9,160.3z"/>
	<path class="st0" d="M376.5,155.9v11.8h-2.9v-2.2c-0.8,1.6-2.2,2.3-4.1,2.3c-2.6,0-4.3-1.7-4.3-4.5v-7.4h2.9v6.5
		c0,1.6,0.9,2.6,2.5,2.6c1.8,0,2.9-1.5,2.9-3.4v-5.8H376.5z"/>
	<path class="st0" d="M390.2,162.7h-8.7c0.4,1.7,1.6,2.7,3.4,2.7c1.2,0,2.3-0.5,3.2-1.3l1.5,1.6c-1.2,1.3-2.9,2-5,2
		c-3.7,0-6.1-2.4-6.1-6c0-3.6,2.5-6,6-6C388.7,155.8,390.4,158.5,390.2,162.7z M387.6,160.8c-0.1-1.7-1.2-2.8-3-2.8
		c-1.7,0-2.9,1.1-3.1,2.8H387.6z"/>
	<path class="st0" d="M395.7,158c-0.9,0-1.6,0.3-1.6,1c0,2,6.2,0.9,6.2,5.2c0,2.4-2.1,3.6-4.6,3.6c-1.8,0-3.6-0.6-4.9-1.7l1-2
		c1.1,0.9,2.7,1.5,4,1.5c1,0,1.7-0.3,1.7-1.1c0-2.2-6.1-1-6.1-5.2c0-2.4,2.1-3.5,4.4-3.5c1.5,0,3.1,0.5,4.3,1.3l-1,2.1
		C398,158.4,396.7,158,395.7,158z"/>
	<path class="st0" d="M409.3,166.9c-0.9,0.6-1.9,0.9-2.9,0.9c-1.9,0-3.5-1.1-3.5-3.5v-5.8h-1.7l0-2.1h1.7v-3.2h2.8v3.2h3.4v2.1h-3.4
		v5.3c0,1.1,0.5,1.5,1.2,1.5c0.5,0,1-0.2,1.7-0.5L409.3,166.9z"/>
	<path class="st0" d="M417.9,155.7v2.8c-2.5-0.2-4,1.3-4,3.4v5.7h-2.9v-11.8h2.9v2.3C414.7,156.6,416.1,155.8,417.9,155.7z"/>
	<path class="st0" d="M430.8,161.7c0,3.6-2.5,6-6.2,6c-3.7,0-6.2-2.4-6.2-6c0-3.6,2.5-6,6.2-6C428.3,155.8,430.8,158.2,430.8,161.7z
		 M421.3,161.8c0,2.1,1.4,3.6,3.3,3.6c1.9,0,3.3-1.5,3.3-3.6s-1.4-3.6-3.3-3.6C422.7,158.2,421.3,159.7,421.3,161.8z"/>
	<path class="st0" d="M436.4,158c-0.9,0-1.6,0.3-1.6,1c0,2,6.2,0.9,6.2,5.2c0,2.4-2.1,3.6-4.6,3.6c-1.8,0-3.6-0.6-4.9-1.7l1-2
		c1.1,0.9,2.7,1.5,4,1.5c1,0,1.7-0.3,1.7-1.1c0-2.2-6.1-1-6.1-5.2c0-2.4,2.1-3.5,4.4-3.5c1.5,0,3.1,0.5,4.3,1.3l-1,2.1
		C438.7,158.4,437.4,158,436.4,158z"/>
	<path class="st0" d="M464.8,167.6v-1.4c-0.8,1-2.1,1.6-3.8,1.6c-2.5,0-4.1-1.6-4.1-3.7c0-2.2,1.6-3.5,4.5-3.5h3.4v-0.3
		c0-1.4-0.9-2.2-2.7-2.2c-1.1,0-2.3,0.4-3.5,1.1l-1-2c1.7-0.9,3-1.5,5.2-1.5c3.1,0,4.8,1.6,4.8,4.2l0,7.7H464.8z M464.8,163.5v-1.1
		h-3c-1.5,0-2.2,0.4-2.2,1.5c0,1,0.8,1.6,2.1,1.6C463.3,165.6,464.6,164.7,464.8,163.5z"/>
	<path class="st0" d="M473.3,151.3v16.3h-2.9v-16.3H473.3z"/>
	<path class="st0" d="M487.4,155.9v11.8h-2.9v-2.2c-0.8,1.6-2.2,2.3-4.1,2.3c-2.6,0-4.3-1.7-4.3-4.5v-7.4h2.9v6.5
		c0,1.6,0.9,2.6,2.5,2.6c1.8,0,2.9-1.5,2.9-3.4v-5.8H487.4z"/>
	<path class="st0" d="M510.3,160.3v7.3h-2.9v-6.5c0-1.7-1-2.7-2.6-2.7c-1.8,0.1-3,1.5-3,3.4v5.8H499v-6.5c0-1.7-1-2.7-2.6-2.7
		c-1.9,0.1-3,1.5-3,3.4v5.8h-2.9v-11.8h2.9v2.2c0.8-1.6,2.3-2.3,4.1-2.3c2.1,0,3.5,1,4,2.8c0.8-1.9,2.3-2.8,4.4-2.8
		C508.6,155.7,510.3,157.5,510.3,160.3z"/>
	<path class="st0" d="M524.5,160.3v7.3h-2.9v-6.5c0-1.7-1-2.7-2.6-2.7c-1.9,0-3.1,1.5-3.1,3.4v5.8H513v-11.8h2.9v2.2
		c0.8-1.6,2.3-2.3,4.2-2.3C522.8,155.7,524.5,157.5,524.5,160.3z"/>
	<path class="st0" d="M538.6,161.7c0,3.6-2.5,6-6.2,6c-3.7,0-6.2-2.4-6.2-6c0-3.6,2.5-6,6.2-6C536.1,155.8,538.6,158.2,538.6,161.7z
		 M529,161.8c0,2.1,1.4,3.6,3.3,3.6c1.9,0,3.3-1.5,3.3-3.6s-1.4-3.6-3.3-3.6C530.4,158.2,529,159.7,529,161.8z"/>
	<path class="st0" d="M544.1,158c-0.9,0-1.6,0.3-1.6,1c0,2,6.2,0.9,6.2,5.2c0,2.4-2.1,3.6-4.6,3.6c-1.8,0-3.6-0.6-4.9-1.7l1-2
		c1.1,0.9,2.7,1.5,4,1.5c1,0,1.7-0.3,1.7-1.1c0-2.2-6.1-1-6.1-5.2c0-2.4,2.1-3.5,4.4-3.5c1.5,0,3.1,0.5,4.3,1.3l-1,2.1
		C546.4,158.4,545.1,158,544.1,158z"/>
	<path class="st0" d="M568.5,151.3v16.3h-2.9v-16.3H568.5z"/>
	<path class="st0" d="M578.7,167.6v-1.4c-0.8,1-2.1,1.6-3.8,1.6c-2.5,0-4.1-1.6-4.1-3.7c0-2.2,1.6-3.5,4.5-3.5h3.4v-0.3
		c0-1.4-0.9-2.2-2.7-2.2c-1.1,0-2.3,0.4-3.5,1.1l-1-2c1.7-0.9,3-1.5,5.2-1.5c3.1,0,4.8,1.6,4.8,4.2l0,7.7H578.7z M578.7,163.5v-1.1
		h-3c-1.5,0-2.2,0.4-2.2,1.5c0,1,0.8,1.6,2.1,1.6C577.2,165.6,578.5,164.7,578.7,163.5z"/>
	<path class="st0" d="M13.4,194.3c-1.9,0-3.2,1.4-3.2,3.5c0,2.1,1.3,3.5,3.2,3.5c1.4,0,2.5-0.5,3.2-1.4l1.8,1.5
		c-1,1.5-2.8,2.4-5.1,2.4c-3.5,0-5.9-2.4-5.9-6c0-3.6,2.4-6,6-6c2.2,0,3.9,0.8,4.9,2.2l-1.7,1.7C15.7,194.8,14.7,194.3,13.4,194.3z"
		/>
	<path class="st0" d="M26.9,203.6v-1.4c-0.8,1-2.1,1.6-3.8,1.6c-2.5,0-4.1-1.6-4.1-3.7c0-2.2,1.6-3.5,4.5-3.5h3.4v-0.3
		c0-1.4-0.9-2.2-2.7-2.2c-1.1,0-2.3,0.4-3.5,1.1l-1-2c1.7-0.9,3-1.5,5.2-1.5c3.1,0,4.8,1.6,4.8,4.2l0,7.7H26.9z M26.9,199.5v-1.1h-3
		c-1.5,0-2.2,0.4-2.2,1.5c0,1,0.8,1.6,2.1,1.6C25.4,201.6,26.7,200.7,26.9,199.5z"/>
	<path class="st0" d="M35.5,187.3v16.3h-2.9v-16.3H35.5z"/>
	<path class="st0" d="M41.7,188.5c0,0.9-0.6,1.6-1.5,1.6c-0.9,0-1.5-0.7-1.5-1.6c0-0.9,0.6-1.6,1.5-1.6
		C41,186.9,41.7,187.6,41.7,188.5z M41.5,191.9v11.8h-2.9v-11.8H41.5z"/>
	<path class="st0" d="M56,187.3v16.3h-2.9v-1.9c-0.8,1.3-2.2,2-4,2c-3.4,0-5.6-2.5-5.6-6.1c0-3.6,2.2-6,5.5-6c1.8,0,3.2,0.7,4,2
		v-6.5H56z M53.1,197.8c0-2.1-1.4-3.6-3.3-3.6c-2,0-3.3,1.5-3.3,3.6c0,2.1,1.4,3.6,3.3,3.6C51.8,201.4,53.1,199.9,53.1,197.8z"/>
	<path class="st0" d="M66.2,203.6v-1.4c-0.8,1-2.1,1.6-3.8,1.6c-2.5,0-4.1-1.6-4.1-3.7c0-2.2,1.6-3.5,4.5-3.5h3.4v-0.3
		c0-1.4-0.9-2.2-2.7-2.2c-1.1,0-2.3,0.4-3.5,1.1l-1-2c1.7-0.9,3-1.5,5.2-1.5c3.1,0,4.8,1.6,4.8,4.2l0,7.7H66.2z M66.2,199.5v-1.1h-3
		c-1.5,0-2.2,0.4-2.2,1.5c0,1,0.8,1.6,2.1,1.6C64.7,201.6,66,200.7,66.2,199.5z"/>
	<path class="st0" d="M83.1,187.3v16.3h-2.9v-1.9c-0.8,1.3-2.2,2-4,2c-3.4,0-5.6-2.5-5.6-6.1c0-3.6,2.2-6,5.5-6c1.8,0,3.2,0.7,4,2
		v-6.5H83.1z M80.3,197.8c0-2.1-1.4-3.6-3.3-3.6c-2,0-3.3,1.5-3.3,3.6c0,2.1,1.4,3.6,3.3,3.6C78.9,201.4,80.3,199.9,80.3,197.8z"/>
	<path class="st0" d="M103.1,198.7h-8.7c0.4,1.7,1.7,2.7,3.4,2.7c1.2,0,2.3-0.5,3.2-1.3l1.5,1.6c-1.2,1.3-2.9,2-5,2
		c-3.7,0-6.1-2.4-6.1-6c0-3.6,2.5-6,6-6C101.6,191.8,103.3,194.5,103.1,198.7z M100.5,196.8c-0.1-1.7-1.2-2.8-3-2.8
		c-1.7,0-2.9,1.1-3.1,2.8H100.5z"/>
	<path class="st0" d="M116.5,187.3v16.3h-2.9v-1.9c-0.8,1.3-2.2,2-4,2c-3.4,0-5.6-2.5-5.6-6.1c0-3.6,2.2-6,5.5-6c1.8,0,3.2,0.7,4,2
		v-6.5H116.5z M113.6,197.8c0-2.1-1.4-3.6-3.3-3.6c-2,0-3.3,1.5-3.3,3.6c0,2.1,1.4,3.6,3.3,3.6C112.2,201.4,113.6,199.9,113.6,197.8
		z"/>
	<path class="st0" d="M130.6,191.9v11.8h-2.9v-2.2c-0.8,1.6-2.2,2.3-4.1,2.3c-2.6,0-4.3-1.7-4.3-4.5v-7.4h2.9v6.5
		c0,1.6,0.9,2.6,2.5,2.6c1.8,0,2.9-1.5,2.9-3.4v-5.8H130.6z"/>
	<path class="st0" d="M138.7,194.3c-1.9,0-3.2,1.4-3.2,3.5c0,2.1,1.3,3.5,3.2,3.5c1.4,0,2.5-0.5,3.2-1.4l1.8,1.5
		c-1,1.5-2.8,2.4-5.1,2.4c-3.5,0-5.9-2.4-5.9-6c0-3.6,2.4-6,6-6c2.2,0,3.9,0.8,4.9,2.2l-1.7,1.7C141,194.8,140,194.3,138.7,194.3z"
		/>
	<path class="st0" d="M152.2,203.6v-1.4c-0.8,1-2.1,1.6-3.8,1.6c-2.5,0-4.1-1.6-4.1-3.7c0-2.2,1.6-3.5,4.5-3.5h3.4v-0.3
		c0-1.4-0.9-2.2-2.7-2.2c-1.1,0-2.3,0.4-3.5,1.1l-1-2c1.7-0.9,3-1.5,5.2-1.5c3.1,0,4.8,1.6,4.8,4.2l0,7.7H152.2z M152.2,199.5v-1.1
		h-3c-1.5,0-2.2,0.4-2.2,1.5c0,1,0.8,1.6,2.1,1.6C150.7,201.6,152,200.7,152.2,199.5z"/>
	<path class="st0" d="M164.7,202.9c-0.9,0.6-1.9,0.9-2.9,0.9c-1.9,0-3.5-1.1-3.5-3.5v-5.8h-1.7l0-2.1h1.7v-3.2h2.8v3.2h3.4v2.1h-3.4
		v5.3c0,1.1,0.5,1.5,1.2,1.5c0.5,0,1-0.2,1.7-0.5L164.7,202.9z"/>
	<path class="st0" d="M169.4,188.5c0,0.9-0.6,1.6-1.5,1.6c-0.9,0-1.5-0.7-1.5-1.6c0-0.9,0.6-1.6,1.5-1.6
		C168.8,186.9,169.4,187.6,169.4,188.5z M169.3,191.9v11.8h-2.9v-11.8H169.3z"/>
	<path class="st0" d="M173.6,191.9l3.1,9l3-9h2.9l-4.5,11.8h-2.9l-4.5-11.8L173.6,191.9z"/>
	<path class="st0" d="M190.4,203.6v-1.4c-0.8,1-2.1,1.6-3.8,1.6c-2.5,0-4.1-1.6-4.1-3.7c0-2.2,1.6-3.5,4.5-3.5h3.4v-0.3
		c0-1.4-0.9-2.2-2.7-2.2c-1.1,0-2.3,0.4-3.5,1.1l-1-2c1.7-0.9,3-1.5,5.2-1.5c3.1,0,4.8,1.6,4.8,4.2l0,7.7H190.4z M190.4,199.5v-1.1
		h-3c-1.5,0-2.2,0.4-2.2,1.5c0,1,0.8,1.6,2.1,1.6C188.9,201.6,190.2,200.7,190.4,199.5z"/>
	<path class="st0" d="M209.1,203.6v-1.4c-0.8,1-2.1,1.6-3.8,1.6c-2.5,0-4.1-1.6-4.1-3.7c0-2.2,1.6-3.5,4.5-3.5h3.4v-0.3
		c0-1.4-0.9-2.2-2.7-2.2c-1.1,0-2.3,0.4-3.5,1.1l-1-2c1.7-0.9,3-1.5,5.2-1.5c3.1,0,4.8,1.6,4.8,4.2l0,7.7H209.1z M209.1,199.5v-1.1
		h-3c-1.5,0-2.2,0.4-2.2,1.5c0,1,0.8,1.6,2.1,1.6C207.6,201.6,208.9,200.7,209.1,199.5z"/>
	<path class="st0" d="M223.8,187.3v16.3H221v-16.3H223.8z"/>
	<path class="st0" d="M234,203.6v-1.4c-0.8,1-2.1,1.6-3.8,1.6c-2.5,0-4.1-1.6-4.1-3.7c0-2.2,1.6-3.5,4.5-3.5h3.4v-0.3
		c0-1.4-0.9-2.2-2.7-2.2c-1.1,0-2.3,0.4-3.5,1.1l-1-2c1.7-0.9,3-1.5,5.2-1.5c3.1,0,4.8,1.6,4.8,4.2l0,7.7H234z M234,199.5v-1.1h-3
		c-1.5,0-2.2,0.4-2.2,1.5c0,1,0.8,1.6,2.1,1.6C232.5,201.6,233.8,200.7,234,199.5z"/>
	<path class="st0" d="M257.1,191.9v16h-2.9v-6.2c-0.8,1.3-2.2,2-4,2c-3.4,0-5.6-2.5-5.6-6.1c0-3.6,2.2-6,5.5-6c1.8,0,3.2,0.7,4,2
		v-1.9H257.1z M254.3,197.8c0-2.1-1.4-3.6-3.3-3.6c-2,0-3.3,1.5-3.3,3.6c0,2.1,1.4,3.6,3.3,3.6C252.9,201.4,254.3,199.9,254.3,197.8
		z"/>
	<path class="st0" d="M271.2,191.9v11.8h-2.9v-2.2c-0.8,1.6-2.2,2.3-4.1,2.3c-2.6,0-4.3-1.7-4.3-4.5v-7.4h2.9v6.5
		c0,1.6,0.9,2.6,2.5,2.6c1.8,0,2.9-1.5,2.9-3.4v-5.8H271.2z"/>
	<path class="st0" d="M284.9,198.7h-8.7c0.4,1.7,1.7,2.7,3.4,2.7c1.2,0,2.3-0.5,3.2-1.3l1.5,1.6c-1.2,1.3-2.9,2-5,2
		c-3.7,0-6.1-2.4-6.1-6c0-3.6,2.5-6,6-6C283.4,191.8,285.2,194.5,284.9,198.7z M282.3,196.8c-0.1-1.7-1.2-2.8-3-2.8
		c-1.7,0-2.9,1.1-3.1,2.8H282.3z"/>
	<path class="st0" d="M303.6,198.7h-8.7c0.4,1.7,1.6,2.7,3.4,2.7c1.2,0,2.3-0.5,3.2-1.3l1.5,1.6c-1.2,1.3-2.9,2-5,2
		c-3.7,0-6.1-2.4-6.1-6c0-3.6,2.5-6,6-6C302.1,191.8,303.9,194.5,303.6,198.7z M301,196.8c-0.1-1.7-1.2-2.8-3-2.8
		c-1.7,0-2.9,1.1-3.1,2.8H301z"/>
	<path class="st0" d="M309.2,194c-0.9,0-1.6,0.3-1.6,1c0,2,6.2,0.9,6.2,5.2c0,2.4-2.1,3.6-4.6,3.6c-1.8,0-3.6-0.6-4.9-1.7l1-2
		c1.1,0.9,2.7,1.5,4,1.5c1,0,1.7-0.3,1.7-1.1c0-2.2-6.1-1-6.1-5.2c0-2.4,2.1-3.5,4.4-3.5c1.5,0,3.1,0.5,4.3,1.3l-1,2.1
		C311.5,194.4,310.2,194,309.2,194z"/>
	<path class="st0" d="M322.7,202.9c-0.9,0.6-1.9,0.9-2.9,0.9c-1.9,0-3.5-1.1-3.5-3.5v-5.8h-1.7l0-2.1h1.7v-3.2h2.8v3.2h3.4v2.1h-3.4
		v5.3c0,1.1,0.5,1.5,1.2,1.5c0.5,0,1-0.2,1.7-0.5L322.7,202.9z"/>
	<path class="st0" d="M331.5,203.6v-1.4c-0.8,1-2.1,1.6-3.8,1.6c-2.5,0-4.1-1.6-4.1-3.7c0-2.2,1.6-3.5,4.5-3.5h3.4v-0.3
		c0-1.4-0.9-2.2-2.7-2.2c-1.1,0-2.3,0.4-3.5,1.1l-1-2c1.7-0.9,3-1.5,5.2-1.5c3.1,0,4.8,1.6,4.8,4.2l0,7.7H331.5z M331.5,199.5v-1.1
		h-3c-1.5,0-2.2,0.4-2.2,1.5c0,1,0.8,1.6,2.1,1.6C330,201.6,331.3,200.7,331.5,199.5z M330,190.3h-2.4l2.3-3.4l2.8,1.1L330,190.3z"
		/>
	<path class="st0" d="M348.5,196.3v7.3h-2.9v-6.5c0-1.7-1-2.7-2.6-2.7c-1.9,0-3.1,1.5-3.1,3.4v5.8h-2.9v-11.8h2.9v2.2
		c0.8-1.6,2.3-2.3,4.2-2.3C346.9,191.7,348.5,193.5,348.5,196.3z"/>
	<path class="st0" d="M364.4,203.6v-1.4c-0.8,1-2.1,1.6-3.8,1.6c-2.5,0-4.1-1.6-4.1-3.7c0-2.2,1.6-3.5,4.5-3.5h3.4v-0.3
		c0-1.4-0.9-2.2-2.7-2.2c-1.1,0-2.3,0.4-3.5,1.1l-1-2c1.7-0.9,3-1.5,5.2-1.5c3.1,0,4.8,1.6,4.8,4.2l0,7.7H364.4z M364.4,199.5v-1.1
		h-3c-1.5,0-2.2,0.4-2.2,1.5c0,1,0.8,1.6,2.1,1.6C362.9,201.6,364.2,200.7,364.4,199.5z"/>
	<path class="st0" d="M375,194.3c-1.9,0-3.2,1.4-3.2,3.5c0,2.1,1.3,3.5,3.2,3.5c1.4,0,2.5-0.5,3.2-1.4l1.8,1.5
		c-1,1.5-2.8,2.4-5.1,2.4c-3.5,0-5.9-2.4-5.9-6c0-3.6,2.4-6,6-6c2.2,0,3.9,0.8,4.9,2.2l-1.7,1.7C377.3,194.8,376.3,194.3,375,194.3z
		"/>
	<path class="st0" d="M392.9,197.7c0,3.6-2.5,6-6.2,6c-3.7,0-6.2-2.4-6.2-6c0-3.6,2.5-6,6.2-6C390.3,191.8,392.9,194.2,392.9,197.7z
		 M383.3,197.8c0,2.1,1.4,3.6,3.3,3.6c1.9,0,3.3-1.5,3.3-3.6s-1.4-3.6-3.3-3.6C384.7,194.2,383.3,195.7,383.3,197.8z"/>
	<path class="st0" d="M398.4,194c-0.9,0-1.6,0.3-1.6,1c0,2,6.2,0.9,6.2,5.2c0,2.4-2.1,3.6-4.6,3.6c-1.8,0-3.6-0.6-4.9-1.7l1-2
		c1.1,0.9,2.7,1.5,4,1.5c1,0,1.7-0.3,1.7-1.1c0-2.2-6.1-1-6.1-5.2c0-2.4,2.1-3.5,4.4-3.5c1.5,0,3.1,0.5,4.3,1.3l-1,2.1
		C400.7,194.4,399.4,194,398.4,194z"/>
	<path class="st0" d="M411.9,202.9c-0.9,0.6-1.9,0.9-2.9,0.9c-1.9,0-3.5-1.1-3.5-3.5v-5.8h-1.7l0-2.1h1.7v-3.2h2.8v3.2h3.4v2.1h-3.4
		v5.3c0,1.1,0.5,1.5,1.2,1.5c0.5,0,1-0.2,1.7-0.5L411.9,202.9z"/>
	<path class="st0" d="M424.6,191.9v11.8h-2.9v-2.2c-0.8,1.6-2.2,2.3-4.1,2.3c-2.6,0-4.3-1.7-4.3-4.5v-7.4h2.9v6.5
		c0,1.6,0.9,2.6,2.5,2.6c1.8,0,2.9-1.5,2.9-3.4v-5.8H424.6z"/>
	<path class="st0" d="M447.5,196.3v7.3h-2.9v-6.5c0-1.7-1-2.7-2.6-2.7c-1.8,0.1-3,1.5-3,3.4v5.8h-2.9v-6.5c0-1.7-1-2.7-2.6-2.7
		c-1.9,0.1-3,1.5-3,3.4v5.8h-2.9v-11.8h2.9v2.2c0.8-1.6,2.3-2.3,4.1-2.3c2.1,0,3.5,1,4,2.8c0.8-1.9,2.3-2.8,4.4-2.8
		C445.8,191.7,447.5,193.5,447.5,196.3z"/>
	<path class="st0" d="M462.7,197.8c0,3.5-2.2,5.9-5.5,5.9c-1.8,0-3.1-0.7-4-2v1.9h-2.9v-16.3h2.9v6.5c0.8-1.3,2.2-2,4-2
		C460.5,191.8,462.7,194.2,462.7,197.8z M459.8,197.7c0-2.1-1.4-3.5-3.3-3.5c-2,0-3.3,1.5-3.3,3.5c0,2.1,1.4,3.6,3.3,3.6
		C458.4,201.3,459.8,199.8,459.8,197.7z"/>
	<path class="st0" d="M471.6,191.7v2.8c-2.5-0.2-4,1.3-4,3.4v5.7h-2.9v-11.8h2.9v2.3C468.4,192.6,469.8,191.8,471.6,191.7z"/>
	<path class="st0" d="M479.7,203.6v-1.4c-0.8,1-2.1,1.6-3.8,1.6c-2.5,0-4.1-1.6-4.1-3.7c0-2.2,1.6-3.5,4.5-3.5h3.4v-0.3
		c0-1.4-0.9-2.2-2.7-2.2c-1.1,0-2.3,0.4-3.5,1.1l-1-2c1.7-0.9,3-1.5,5.2-1.5c3.1,0,4.8,1.6,4.8,4.2l0,7.7H479.7z M479.7,199.5v-1.1
		h-3c-1.5,0-2.2,0.4-2.2,1.5c0,1,0.8,1.6,2.1,1.6C478.2,201.6,479.5,200.7,479.7,199.5z"/>
	<path class="st0" d="M496.6,187.3v16.3h-2.9v-1.9c-0.8,1.3-2.2,2-4,2c-3.4,0-5.6-2.5-5.6-6.1c0-3.6,2.2-6,5.5-6c1.8,0,3.2,0.7,4,2
		v-6.5H496.6z M493.8,197.8c0-2.1-1.4-3.6-3.3-3.6c-2,0-3.3,1.5-3.3,3.6c0,2.1,1.4,3.6,3.3,3.6C492.4,201.4,493.8,199.9,493.8,197.8
		z"/>
	<path class="st0" d="M511.2,197.7c0,3.6-2.5,6-6.2,6c-3.7,0-6.2-2.4-6.2-6c0-3.6,2.5-6,6.2-6C508.7,191.8,511.2,194.2,511.2,197.7z
		 M501.7,197.8c0,2.1,1.4,3.6,3.3,3.6c1.9,0,3.3-1.5,3.3-3.6s-1.4-3.6-3.3-3.6C503,194.2,501.7,195.7,501.7,197.8z"/>
	<path class="st0" d="M516.8,194c-0.9,0-1.6,0.3-1.6,1c0,2,6.2,0.9,6.2,5.2c0,2.4-2.1,3.6-4.6,3.6c-1.8,0-3.6-0.6-4.9-1.7l1-2
		c1.1,0.9,2.7,1.5,4,1.5c1,0,1.7-0.3,1.7-1.1c0-2.2-6.1-1-6.1-5.2c0-2.4,2.1-3.5,4.4-3.5c1.5,0,3.1,0.5,4.3,1.3l-1,2.1
		C519.1,194.4,517.8,194,516.8,194z"/>
	<path class="st0" d="M525.6,202.2c0,0.9-0.6,1.6-1.5,1.6c-0.9,0-1.5-0.7-1.5-1.6s0.6-1.6,1.5-1.6
		C525,200.7,525.6,201.3,525.6,202.2z"/>
	<path class="st0" d="M52.9,267.6h3.9v6.2c-1.7,1.1-4.4,2-6.6,2c-4.8,0-8.3-3.4-8.3-7.9c0-4.5,3.6-7.9,8.6-7.9
		c2.4,0,4.9,0.9,6.5,2.3l-2.6,3.1c-1.1-1-2.6-1.7-3.9-1.7c-2.2,0-3.9,1.7-3.9,4c0,2.4,1.7,4.1,3.9,4.1c0.6,0,1.5-0.2,2.3-0.6V267.6z
		"/>
	<path class="st0" d="M66.9,263.5v4c-2.3-0.3-3.8,0.7-3.8,2.4v5.7h-4.4v-12h4.4v1.9C64,264.2,65.3,263.5,66.9,263.5z"/>
	<path class="st0" d="M78.8,267.9v7.8h-4.4v-1.3c-0.7,1-1.9,1.5-3.5,1.5c-2.6,0-4-1.5-4-3.8c0-2.3,1.6-3.6,4.6-3.6h2.9v0
		c0-1-0.7-1.6-2.1-1.6c-0.9,0-2.3,0.3-3.6,0.9l-1.1-2.9c2-0.8,3.9-1.2,5.8-1.2C76.8,263.5,78.8,265.1,78.8,267.9z M74.4,271.7v-1.1
		h-2c-0.9,0-1.3,0.4-1.3,1.1s0.5,1.2,1.3,1.2C73.3,272.9,74.1,272.4,74.4,271.7z"/>
	<path class="st0" d="M86.2,267.1c-1.2,0-2,1-2,2.6c0,1.6,0.8,2.6,2,2.6c0.9,0,1.5-0.4,1.9-1.3l3.5,1.7c-0.9,2-2.9,3.1-5.6,3.1
		c-3.8,0-6.2-2.4-6.2-6.1c0-3.7,2.5-6.2,6.3-6.2c2.5,0,4.5,1.1,5.5,3.1l-3.4,1.7C87.7,267.5,87.1,267.1,86.2,267.1z"/>
	<path class="st0" d="M97.1,263.7v12h-4.4v-12H97.1z M96.8,260.3c0,1.1-0.8,1.9-1.9,1.9c-1.1,0-1.9-0.8-1.9-1.9
		c0-1.1,0.8-1.9,1.9-1.9C96,258.4,96.8,259.2,96.8,260.3z"/>
	<path class="st0" d="M110.3,267.9v7.8H106v-1.3c-0.7,1-1.9,1.5-3.5,1.5c-2.6,0-4-1.5-4-3.8c0-2.3,1.6-3.6,4.6-3.6h2.9v0
		c0-1-0.7-1.6-2.1-1.6c-0.9,0-2.3,0.3-3.6,0.9l-1.1-2.9c2-0.8,3.9-1.2,5.8-1.2C108.3,263.5,110.3,265.1,110.3,267.9z M106,271.7
		v-1.1h-2c-0.9,0-1.3,0.4-1.3,1.1s0.5,1.2,1.3,1.2C104.8,272.9,105.6,272.4,106,271.7z"/>
	<path class="st0" d="M116.7,266.4c-0.5,0-0.9,0.2-0.9,0.6c0,1.3,6.2,0.7,6.2,4.8c0,2.5-2.1,4-5.3,4c-2.1,0-4.1-0.6-5.6-1.7l1.4-2.8
		c1.5,1,3,1.5,4.3,1.5c0.6,0,1-0.2,1-0.5c0-1.4-6.1-0.7-6.1-4.8c0-2.5,2.1-4,5.1-4c1.8,0,3.6,0.5,5.3,1.5l-1.5,2.8
		C119,266.9,117.7,266.4,116.7,266.4z"/>
	<path class="st0" d="M143.1,269.7c0,3.7-2.1,6.1-5.4,6.1c-1.4,0-2.6-0.6-3.4-1.5v5.7h-4.4v-16.2h4.4v1.4c0.8-1,1.9-1.5,3.3-1.5
		C140.9,263.5,143.1,266,143.1,269.7z M138.6,269.6c0-1.6-0.9-2.7-2.2-2.7c-1.3,0-2.2,1.1-2.2,2.7c0,1.6,0.9,2.7,2.2,2.7
		C137.7,272.3,138.6,271.2,138.6,269.6z"/>
	<path class="st0" d="M156.8,269.6c0,3.7-2.6,6.1-6.6,6.1s-6.7-2.4-6.7-6.1c0-3.7,2.6-6.1,6.7-6.1S156.8,265.9,156.8,269.6z
		 M148,269.7c0,1.6,0.9,2.7,2.2,2.7c1.3,0,2.2-1.1,2.2-2.7c0-1.6-0.9-2.7-2.2-2.7C148.8,267,148,268.1,148,269.7z"/>
	<path class="st0" d="M166.3,263.5v4c-2.3-0.3-3.8,0.7-3.8,2.4v5.7h-4.4v-12h4.4v1.9C163.4,264.2,164.7,263.5,166.3,263.5z"/>
	<path class="st0" d="M178.1,266.4c-0.5,0-0.9,0.2-0.9,0.6c0,1.3,6.2,0.7,6.2,4.8c0,2.5-2.1,4-5.3,4c-2.1,0-4.1-0.6-5.6-1.7l1.4-2.8
		c1.5,1,3,1.5,4.3,1.5c0.6,0,1-0.2,1-0.5c0-1.4-6.1-0.7-6.1-4.8c0-2.5,2.1-4,5.1-4c1.8,0,3.6,0.5,5.3,1.5l-1.5,2.8
		C180.4,266.9,179.1,266.4,178.1,266.4z"/>
	<path class="st0" d="M196.6,270.7h-8.1c0.4,1.1,1.2,1.8,2.3,1.8c0.9,0,1.8-0.4,2.6-1.1l2.3,2.3c-1.3,1.4-3.1,2.2-5.3,2.2
		c-4,0-6.4-2.4-6.4-6.1c0-3.7,2.5-6.2,6.3-6.2C194.5,263.5,196.8,266.3,196.6,270.7z M190.4,266.5c-1.1,0-1.7,0.8-2,2h3.8
		C192.2,267.4,191.4,266.5,190.4,266.5z"/>
	<path class="st0" d="M209.6,263.7v10.9c0,3.4-2.7,5.5-6.6,5.5c-2.2,0-4.2-0.7-5.5-1.6l1.5-3c1.1,0.7,2.4,1.1,3.7,1.1
		c1.6,0,2.6-0.7,2.6-1.9v-1.2c-0.8,0.9-1.8,1.4-3.2,1.4c-2.9,0-5-2.3-5-5.8c0-3.4,2-5.7,4.9-5.7c1.4,0,2.5,0.5,3.3,1.5v-1.3H209.6z
		 M205.2,269.3c0-1.5-0.8-2.5-2-2.5c-1.2,0-2,1-2,2.5c0,1.5,0.8,2.5,2,2.5C204.4,271.8,205.2,270.8,205.2,269.3z"/>
	<path class="st0" d="M223.8,263.7v12h-4.4v-1.8c-0.8,1.3-2.1,2-3.7,2c-2.5,0-4.2-1.8-4.2-4.6v-7.6h4.4v6.3c0,1.2,0.6,1.9,1.6,1.9
		c1.1,0,1.8-1,1.8-2.3v-5.9H223.8z"/>
	<path class="st0" d="M230.5,263.7v12H226v-12H230.5z M230.2,260.3c0,1.1-0.8,1.9-1.9,1.9s-1.9-0.8-1.9-1.9c0-1.1,0.8-1.9,1.9-1.9
		S230.2,259.2,230.2,260.3z"/>
	<path class="st0" d="M240.9,263.5v4c-2.3-0.3-3.8,0.7-3.8,2.4v5.7h-4.4v-12h4.4v1.9C238,264.2,239.3,263.5,240.9,263.5z"/>
	<path class="st0" d="M260.5,259.3v16.3h-4.4v-1.4c-0.8,1-1.9,1.5-3.3,1.5c-3.3,0-5.5-2.4-5.5-6.2c0-3.7,2.2-6.1,5.4-6.1
		c1.4,0,2.6,0.6,3.4,1.5v-5.7H260.5z M256.1,269.7c0-1.6-0.9-2.7-2.2-2.7c-1.3,0-2.2,1.1-2.2,2.7c0,1.6,0.9,2.7,2.2,2.7
		C255.2,272.4,256.1,271.3,256.1,269.7z"/>
	<path class="st0" d="M273.9,267.9v7.8h-4.4v-1.3c-0.7,1-1.9,1.5-3.5,1.5c-2.6,0-4-1.5-4-3.8c0-2.3,1.6-3.6,4.6-3.6h2.9v0
		c0-1-0.7-1.6-2.1-1.6c-0.9,0-2.3,0.3-3.6,0.9l-1.1-2.9c2-0.8,3.9-1.2,5.8-1.2C271.9,263.5,273.9,265.1,273.9,267.9z M269.5,271.7
		v-1.1h-2c-0.9,0-1.3,0.4-1.3,1.1s0.5,1.2,1.3,1.2C268.4,272.9,269.2,272.4,269.5,271.7z"/>
	<path class="st0" d="M288.4,268v7.6h-4.4v-6.3c0-1.2-0.7-1.9-1.7-1.9c-1.2,0-2,1-2,2.3v5.9h-4.4v-12h4.4v1.8c0.8-1.3,2.1-2,3.8-2
		C286.6,263.5,288.4,265.3,288.4,268z"/>
	<path class="st0" d="M302.6,259.3v16.3h-4.4v-1.4c-0.8,1-1.9,1.5-3.3,1.5c-3.3,0-5.5-2.4-5.5-6.2c0-3.7,2.2-6.1,5.4-6.1
		c1.4,0,2.6,0.6,3.4,1.5v-5.7H302.6z M298.2,269.7c0-1.6-0.9-2.7-2.2-2.7c-1.3,0-2.2,1.1-2.2,2.7c0,1.6,0.9,2.7,2.2,2.7
		C297.3,272.4,298.2,271.3,298.2,269.7z"/>
	<path class="st0" d="M317.4,269.6c0,3.7-2.6,6.1-6.6,6.1s-6.7-2.4-6.7-6.1c0-3.7,2.6-6.1,6.7-6.1S317.4,265.9,317.4,269.6z
		 M308.5,269.7c0,1.6,0.9,2.7,2.2,2.7c1.3,0,2.2-1.1,2.2-2.7c0-1.6-0.9-2.7-2.2-2.7C309.4,267,308.5,268.1,308.5,269.7z"/>
	<path class="st0" d="M329.4,259.3v16.3H325v-16.3H329.4z"/>
	<path class="st0" d="M344.2,269.6c0,3.7-2.6,6.1-6.6,6.1s-6.7-2.4-6.7-6.1c0-3.7,2.6-6.1,6.7-6.1S344.2,265.9,344.2,269.6z
		 M335.3,269.7c0,1.6,0.9,2.7,2.2,2.7c1.3,0,2.2-1.1,2.2-2.7c0-1.6-0.9-2.7-2.2-2.7C336.2,267,335.3,268.1,335.3,269.7z"/>
	<path class="st0" d="M372,268v7.6h-4.4v-6.3c0-1.2-0.7-1.9-1.7-1.9c-1.1,0-1.9,1-1.9,2.3v5.9h-4.4v-6.3c0-1.2-0.7-1.9-1.7-1.9
		c-1.2,0-1.9,1-1.9,2.3v5.9h-4.4v-12h4.4v1.8c0.8-1.3,2.1-2,3.7-2c1.9,0,3.3,1,3.9,2.6c0.8-1.7,2.2-2.6,4-2.6
		C370.3,263.5,372,265.3,372,268z"/>
	<path class="st0" d="M385.6,270.7h-8.1c0.4,1.1,1.2,1.8,2.3,1.8c0.9,0,1.8-0.4,2.6-1.1l2.3,2.3c-1.3,1.4-3.1,2.2-5.3,2.2
		c-4,0-6.4-2.4-6.4-6.1c0-3.7,2.5-6.2,6.3-6.2C383.5,263.5,385.8,266.3,385.6,270.7z M379.4,266.5c-1.1,0-1.7,0.8-2,2h3.8
		C381.2,267.4,380.5,266.5,379.4,266.5z"/>
	<path class="st0" d="M386.9,280.1c-1.2,0-2.4-0.3-3.2-0.7l1-3.1c0.4,0.2,0.9,0.4,1.3,0.4c0.7,0,1.1-0.4,1.1-1.1v-11.8h4.4V276
		C391.4,278.6,389.6,280.1,386.9,280.1z M391.7,260.2c0,1.3-1,2.3-2.5,2.3s-2.5-0.9-2.5-2.3c0-1.3,1-2.3,2.5-2.3
		S391.7,258.9,391.7,260.2z"/>
	<path class="st0" d="M406.2,269.6c0,3.7-2.6,6.1-6.6,6.1s-6.7-2.4-6.7-6.1c0-3.7,2.6-6.1,6.7-6.1S406.2,265.9,406.2,269.6z
		 M397.4,269.7c0,1.6,0.9,2.7,2.2,2.7c1.3,0,2.2-1.1,2.2-2.7c0-1.6-0.9-2.7-2.2-2.7C398.3,267,397.4,268.1,397.4,269.7z"/>
	<path class="st0" d="M415.8,263.5v4c-2.3-0.3-3.8,0.7-3.8,2.4v5.7h-4.4v-12h4.4v1.9C412.8,264.2,414.1,263.5,415.8,263.5z"/>
	<path class="st0" d="M435.4,259.3v16.3h-4.4v-1.4c-0.8,1-1.9,1.5-3.3,1.5c-3.3,0-5.5-2.4-5.5-6.2c0-3.7,2.2-6.1,5.4-6.1
		c1.4,0,2.6,0.6,3.4,1.5v-5.7H435.4z M430.9,269.7c0-1.6-0.9-2.7-2.2-2.7c-1.3,0-2.2,1.1-2.2,2.7c0,1.6,0.9,2.7,2.2,2.7
		C430.1,272.4,430.9,271.3,430.9,269.7z"/>
	<path class="st0" d="M449.3,270.7h-8.1c0.4,1.1,1.2,1.8,2.3,1.8c0.9,0,1.8-0.4,2.6-1.1l2.3,2.3c-1.3,1.4-3.1,2.2-5.3,2.2
		c-4,0-6.4-2.4-6.4-6.1c0-3.7,2.5-6.2,6.3-6.2C447.3,263.5,449.6,266.3,449.3,270.7z M443.2,266.5c-1.1,0-1.7,0.8-2,2h3.8
		C445,267.4,444.2,266.5,443.2,266.5z"/>
	<path class="st0" d="M468.9,263.7v12h-4.4v-1.8c-0.8,1.3-2.1,2-3.7,2c-2.5,0-4.2-1.8-4.2-4.6v-7.6h4.4v6.3c0,1.2,0.6,1.9,1.6,1.9
		c1.1,0,1.8-1,1.8-2.3v-5.9H468.9z"/>
	<path class="st0" d="M475.6,266.4c-0.5,0-0.9,0.2-0.9,0.6c0,1.3,6.2,0.7,6.2,4.8c0,2.5-2.1,4-5.3,4c-2.1,0-4.1-0.6-5.6-1.7l1.4-2.8
		c1.5,1,3,1.5,4.3,1.5c0.6,0,1-0.2,1-0.5c0-1.4-6.1-0.7-6.1-4.8c0-2.5,2.1-4,5.1-4c1.8,0,3.6,0.5,5.3,1.5l-1.5,2.8
		C477.9,266.9,476.6,266.4,475.6,266.4z"/>
	<path class="st0" d="M490.6,275.1c-0.8,0.5-2.1,0.8-3.3,0.8c-2.6,0-4.3-1.5-4.3-3.9v-4.8h-1.7v-2.8h1.7v-3.3h4.4v3.3h2.9v2.8h-2.9
		v4.1c0,0.8,0.4,1.1,1,1.1c0.4,0,0.8-0.2,1.4-0.4L490.6,275.1z"/>
	<path class="st0" d="M503.5,270.7h-8.1c0.4,1.1,1.2,1.8,2.3,1.8c0.9,0,1.8-0.4,2.6-1.1l2.3,2.3c-1.3,1.4-3.1,2.2-5.3,2.2
		c-4,0-6.4-2.4-6.4-6.1c0-3.7,2.5-6.2,6.3-6.2C501.4,263.5,503.7,266.3,503.5,270.7z M497.3,266.5c-1.1,0-1.7,0.8-2,2h3.8
		C499.1,267.4,498.4,266.5,497.3,266.5z"/>
	<path class="st0" d="M517.1,259.3v16.3h-4.4v-1.4c-0.8,1-1.9,1.5-3.3,1.5c-3.3,0-5.5-2.4-5.5-6.2c0-3.7,2.2-6.1,5.4-6.1
		c1.4,0,2.6,0.6,3.4,1.5v-5.7H517.1z M512.7,269.7c0-1.6-0.9-2.7-2.2-2.7c-1.3,0-2.2,1.1-2.2,2.7c0,1.6,0.9,2.7,2.2,2.7
		C511.8,272.4,512.7,271.3,512.7,269.7z"/>
	<path class="st0" d="M531.1,270.7h-8.1c0.4,1.1,1.2,1.8,2.3,1.8c0.9,0,1.8-0.4,2.6-1.1l2.3,2.3c-1.3,1.4-3.1,2.2-5.3,2.2
		c-4,0-6.4-2.4-6.4-6.1c0-3.7,2.5-6.2,6.3-6.2C529.1,263.5,531.4,266.3,531.1,270.7z M524.9,266.5c-1.1,0-1.7,0.8-2,2h3.8
		C526.8,267.4,526,266.5,524.9,266.5z"/>
	<path class="st0" d="M537,266.4c-0.5,0-0.9,0.2-0.9,0.6c0,1.3,6.2,0.7,6.2,4.8c0,2.5-2.1,4-5.3,4c-2.1,0-4.1-0.6-5.6-1.7l1.4-2.8
		c1.5,1,3,1.5,4.3,1.5c0.6,0,1-0.2,1-0.5c0-1.4-6.1-0.7-6.1-4.8c0-2.5,2.1-4,5.1-4c1.8,0,3.6,0.5,5.3,1.5l-1.5,2.8
		C539.3,266.9,537.9,266.4,537,266.4z"/>
	<path class="st0" d="M547.3,273.7c0,1.2-0.9,2.1-2.1,2.1c-1.2,0-2.1-0.9-2.1-2.1c0-1.2,0.9-2,2.1-2
		C546.5,271.7,547.3,272.5,547.3,273.7z"/>
	<path class="st0" d="M244,351.1v-4l0.8-5.9h2.7l0.8,5.9v4H244z M244.1,337.6c0-1.2,0.9-2.1,2.1-2.1c1.2,0,2.1,0.9,2.1,2.1
		c0,1.2-0.9,2-2.1,2C245,339.6,244.1,338.8,244.1,337.6z"/>
	<path class="st0" d="M261.9,332.2v3.5h-7.4v3.1h6.9v3.5h-6.9v5.3h-4.6v-15.4H261.9z"/>
	<path class="st0" d="M274.8,342.7h-8.1c0.4,1.1,1.2,1.8,2.3,1.8c0.9,0,1.8-0.4,2.6-1.1l2.3,2.3c-1.3,1.4-3.1,2.2-5.3,2.2
		c-4,0-6.4-2.4-6.4-6.1c0-3.7,2.5-6.2,6.3-6.2C272.8,335.5,275,338.3,274.8,342.7z M268.6,338.5c-1.1,0-1.7,0.8-2,2h3.8
		C270.4,339.4,269.7,338.5,268.6,338.5z"/>
	<path class="st0" d="M280.7,331.3v16.3h-4.4v-16.3H280.7z"/>
	<path class="st0" d="M287.5,335.7v12h-4.4v-12H287.5z M287.2,332.3c0,1.1-0.8,1.9-1.9,1.9c-1.1,0-1.9-0.8-1.9-1.9
		c0-1.1,0.8-1.9,1.9-1.9C286.4,330.4,287.2,331.2,287.2,332.3z"/>
	<path class="st0" d="M300,335.7v2.6l-5.4,6h5.6v3.3H289V345l5.4-6h-5.1v-3.3H300z"/>
	<path class="st0" d="M320.2,331.3v16.3h-4.4v-1.4c-0.8,1-1.9,1.5-3.3,1.5c-3.3,0-5.5-2.4-5.5-6.2c0-3.7,2.2-6.1,5.4-6.1
		c1.4,0,2.6,0.6,3.4,1.5v-5.7H320.2z M315.7,341.7c0-1.6-0.9-2.7-2.2-2.7c-1.3,0-2.2,1.1-2.2,2.7c0,1.6,0.9,2.7,2.2,2.7
		C314.9,344.4,315.7,343.3,315.7,341.7z"/>
	<path class="st0" d="M327,335.7v12h-4.4v-12H327z M328.8,331.8l-2.9,2.7h-3.3l2.4-4L328.8,331.8z"/>
	<path class="st0" d="M340.2,339.9v7.8h-4.4v-1.3c-0.7,1-1.9,1.5-3.5,1.5c-2.6,0-4-1.5-4-3.8c0-2.3,1.6-3.6,4.6-3.6h2.9v0
		c0-1-0.7-1.6-2.1-1.6c-0.9,0-2.3,0.3-3.6,0.9l-1.1-2.9c2-0.8,3.9-1.2,5.8-1.2C338.2,335.5,340.2,337.1,340.2,339.9z M335.9,343.7
		v-1.1h-2c-0.9,0-1.3,0.4-1.3,1.1s0.5,1.2,1.3,1.2C334.7,344.9,335.5,344.4,335.9,343.7z"/>
	<path class="st0" d="M345.9,345.7c0,1.2-0.9,2.1-2.1,2.1c-1.2,0-2.1-0.9-2.1-2.1c0-1.2,0.9-2,2.1-2
		C345,343.7,345.9,344.5,345.9,345.7z M346,332.2v4l-0.8,5.9h-2.7l-0.8-5.9v-4H346z"/>
</g>
<g>
	<g>
		<path class="st1" d="M127,482c2.8,0,5-2.2,5-5c0-2.8-2.2-5-5-5c-2.8,0-5,2.2-5,5C122,479.8,124.2,482,127,482"/>
		<path class="st1" d="M146.9,511.3c-0.7,0-1.3-0.6-1.3-1.3v-42h-8.1v43.8c0,3.5,2.8,6.3,6.3,6.3h6.2v-6.9H146.9z"/>
		<polygon class="st1" points="55.5,471 55.5,481.6 62.4,481.6 62.4,478.9 72.9,478.9 72.9,511.3 69.7,511.3 69.7,518.1 84.6,518.1 
			84.6,511.3 81.4,511.3 81.4,478.9 91.9,478.9 91.9,481.6 98.7,481.6 98.7,471 		"/>
		<polygon class="st1" points="131.1,511.3 131.1,486.9 113.7,486.9 113.7,493.8 123,493.8 123,511.3 113.7,511.3 113.7,518.1 
			134.4,518.1 134.4,511.3 		"/>
		<polygon class="st1" points="91.9,486.9 91.9,511.3 88.6,511.3 88.6,518.1 109.6,518.1 109.6,511.3 100,511.3 100,493.8 
			109.6,493.8 109.6,486.9 96.8,486.9 		"/>
		<path class="st1" d="M189.8,499.4c0.1-1,0.4-2,0.8-2.8c0.5-0.8,1.1-1.5,1.8-2.1c0.7-0.6,1.6-1,2.5-1.3c0.9-0.3,1.9-0.4,3-0.4
			c2.3,0,3.9,0.6,5.1,1.8c1.1,1.2,1.7,2.8,1.7,4.8H189.8z M210.8,493.2c-0.9-1.7-2-3-3.4-4c-1.4-1-2.9-1.7-4.5-2.1
			c-1.6-0.4-3.2-0.6-4.8-0.6c-2.3,0-4.4,0.3-6.4,1c-2,0.7-3.7,1.7-5.2,3c-1.5,1.3-2.6,3-3.5,5c-0.8,2-1.3,4.3-1.3,7
			c0,0.9,0.1,1.8,0.1,2.6c0.2,1.5,0.5,2.8,1,4.1c0.2,0.5,1.7,4.3,5.8,6.7c2.7,1.6,6.5,2.2,11.7,2.2c5.2,0,7.8-0.2,7.8-0.2v-6.6v0
			c0,0-3.6,0-8.1,0c-6.5,0-8.7-4-9.2-5.1c-0.1-0.3-0.3-0.7-0.3-1h21.4C212.5,502.1,212.3,496.1,210.8,493.2"/>
		<path class="st1" d="M178.7,499.5v-10v-0.1c0-0.3-0.2-0.6-0.5-0.7c-1-0.4-2.4-0.9-4.1-1.3c-2-0.5-4.1-0.8-6.4-0.8
			c-2.4,0-4.7,0.4-6.7,1.1c-2.1,0.7-3.8,1.7-5.4,3.1c-1.5,1.4-2.7,3.1-3.5,5c-0.8,2-1.3,4.2-1.3,6.8c0,2.4,0.4,4.6,1.1,6.5
			c0.7,2,1.6,3.4,3,4.9c2.2,2.3,6.5,4,11.6,4.2l10,0v-6.9h-7.7c-3.3,0-6.4-1.5-7.3-2.3c-0.8-0.8-1.4-1.8-1.9-2.9
			c-0.4-1.1-0.7-2.3-0.7-3.6c0-1.6,0.3-2.9,0.8-4.1c0.5-1.1,1.3-2.1,2.1-2.8c0.9-0.7,1.9-1.3,3-1.6c1.1-0.3,2.2-0.5,3.4-0.5
			c1.3,0,2.5,0.1,3.8,0.4v5.6H178.7z"/>
	</g>
</g>
<g>
	<g>
		<g>
			<path class="st2" d="M328.8,493.4L328,499h4.8v5.9h-5.5l-1.7,11.3h-6.2l1.6-11.3h-4.5l-1.6,11.3h-6.2l1.6-11.3h-4.8V499h5.6
				l0.8-5.6h-4.8v-5.9h5.5l1.6-11.3h6.3l-1.6,11.3h4.4l1.6-11.3h6.2l-1.6,11.3h4.7v5.9H328.8z M318.1,493.4l-0.7,5.6h4.4l0.8-5.6
				H318.1z"/>
		</g>
	</g>
	<g>
		<g>
			<path class="st1" d="M348.7,508.5v6h-3.4v-6l-5.3-8.2h4.2l3,5.3l3-5.3h4L348.7,508.5z"/>
			<path class="st1" d="M365.5,509.5c0,0.8-0.1,1.6-0.4,2.2c-0.3,0.7-0.7,1.2-1.2,1.7c-0.5,0.5-1.1,0.8-1.8,1.1
				c-0.7,0.3-1.4,0.4-2.1,0.4c-0.7,0-1.5-0.1-2.1-0.4c-0.7-0.3-1.3-0.6-1.8-1.1c-0.5-0.5-0.9-1-1.2-1.7c-0.3-0.7-0.4-1.4-0.4-2.2
				c0-0.8,0.1-1.6,0.4-2.2c0.3-0.7,0.7-1.2,1.2-1.7c0.5-0.5,1.1-0.8,1.8-1c0.7-0.2,1.4-0.4,2.1-0.4c0.8,0,1.5,0.1,2.1,0.4
				c0.7,0.2,1.3,0.6,1.8,1c0.5,0.5,0.9,1,1.2,1.7C365.4,508,365.5,508.7,365.5,509.5z M362.4,509.5c0-0.3-0.1-0.6-0.2-0.9
				c-0.1-0.3-0.3-0.6-0.5-0.8c-0.2-0.2-0.4-0.4-0.7-0.6c-0.3-0.1-0.6-0.2-1-0.2s-0.7,0.1-1,0.2c-0.3,0.1-0.5,0.3-0.7,0.6
				c-0.2,0.2-0.3,0.5-0.4,0.8c-0.1,0.3-0.2,0.6-0.2,0.9c0,0.3,0.1,0.6,0.2,0.9c0.1,0.3,0.3,0.6,0.5,0.8c0.2,0.2,0.4,0.4,0.7,0.6
				c0.3,0.1,0.6,0.2,1,0.2c0.4,0,0.7-0.1,1-0.2c0.3-0.1,0.5-0.3,0.7-0.6c0.2-0.2,0.4-0.5,0.5-0.8
				C362.3,510.2,362.4,509.8,362.4,509.5z"/>
			<path class="st1" d="M380.6,514.6l0.1-10h-0.1l-3.7,10h-2.4l-3.6-10h-0.1l0.1,10h-3.2v-14.2h4.9l3.2,9.1h0.1l3.1-9.1h5v14.2
				H380.6z"/>
			<path class="st1" d="M396.5,509.7c0,0.1,0,0.3,0,0.4c0,0.1,0,0.3,0,0.4h-7.2c0,0.3,0.1,0.5,0.3,0.8s0.3,0.4,0.5,0.6
				s0.5,0.3,0.7,0.4c0.3,0.1,0.6,0.1,0.9,0.1c0.5,0,1-0.1,1.3-0.3c0.4-0.2,0.7-0.4,0.9-0.8l2.3,1.4c-0.5,0.7-1.1,1.2-1.9,1.6
				c-0.8,0.4-1.7,0.6-2.7,0.6c-0.7,0-1.5-0.1-2.1-0.4c-0.7-0.2-1.3-0.6-1.8-1c-0.5-0.4-0.9-1-1.2-1.7c-0.3-0.7-0.4-1.4-0.4-2.2
				c0-0.8,0.1-1.6,0.4-2.2c0.3-0.7,0.7-1.2,1.1-1.7c0.5-0.5,1-0.8,1.7-1.1c0.7-0.3,1.4-0.4,2.1-0.4c0.7,0,1.4,0.1,2,0.4
				c0.6,0.2,1.1,0.6,1.6,1.1s0.8,1,1,1.7C396.4,508.1,396.5,508.8,396.5,509.7z M393.4,508.4c0-0.5-0.2-1-0.5-1.3
				c-0.3-0.4-0.8-0.6-1.5-0.6c-0.3,0-0.6,0-0.9,0.2s-0.5,0.2-0.7,0.4c-0.2,0.2-0.4,0.4-0.5,0.6c-0.1,0.2-0.2,0.5-0.2,0.7H393.4z"/>
			<path class="st1" d="M405.4,514.6c-1.1,0-2.2-0.2-3.1-0.5c-0.9-0.3-1.7-0.8-2.4-1.4c-0.7-0.6-1.2-1.4-1.5-2.3
				c-0.4-0.9-0.6-1.9-0.6-3.1c0-1.1,0.2-2.1,0.6-3s0.9-1.7,1.6-2.3s1.5-1.1,2.4-1.5c0.9-0.4,2-0.5,3.1-0.5c1.1,0,2.1,0.2,3,0.5
				c0.9,0.4,1.7,0.8,2.4,1.5s1.2,1.4,1.6,2.3c0.4,0.9,0.6,1.9,0.6,2.9c0,0.5-0.1,1.1-0.2,1.5s-0.3,0.9-0.5,1.3
				c-0.2,0.4-0.4,0.7-0.7,1s-0.5,0.6-0.8,0.8v0.1l3-0.1v2.7H405.4z M409.6,507.3c0-0.6-0.1-1.2-0.3-1.7c-0.2-0.5-0.5-1-0.8-1.3
				c-0.4-0.4-0.8-0.7-1.3-0.9c-0.5-0.2-1-0.3-1.6-0.3c-0.6,0-1.1,0.1-1.6,0.3c-0.5,0.2-0.9,0.5-1.3,0.9c-0.4,0.4-0.6,0.8-0.8,1.3
				s-0.3,1.1-0.3,1.7c0,0.6,0.1,1.2,0.3,1.8c0.2,0.5,0.5,1,0.8,1.4c0.4,0.4,0.8,0.7,1.3,0.9c0.5,0.2,1,0.3,1.6,0.3
				c0.6,0,1.1-0.1,1.6-0.3c0.5-0.2,0.9-0.5,1.3-0.9s0.6-0.8,0.8-1.4C409.5,508.5,409.6,508,409.6,507.3z"/>
			<path class="st1" d="M422.1,514.6v-1.4h0c-0.1,0.2-0.3,0.4-0.5,0.6c-0.2,0.2-0.4,0.4-0.7,0.5c-0.3,0.1-0.5,0.3-0.9,0.4
				c-0.3,0.1-0.6,0.1-1,0.1c-0.7,0-1.2-0.1-1.7-0.4c-0.5-0.2-0.8-0.6-1.1-0.9c-0.3-0.4-0.5-0.8-0.6-1.3c-0.1-0.5-0.2-1-0.2-1.5v-6.2
				h3.3v5.4c0,0.3,0,0.5,0.1,0.8s0.1,0.5,0.2,0.7c0.1,0.2,0.3,0.4,0.5,0.5s0.4,0.2,0.7,0.2c0.6,0,1-0.2,1.3-0.6
				c0.3-0.4,0.5-0.9,0.5-1.5v-5.4h3.3v10H422.1z"/>
			<path class="st1" d="M437.6,509.7c0,0.1,0,0.3,0,0.4c0,0.1,0,0.3,0,0.4h-7.2c0,0.3,0.1,0.5,0.3,0.8s0.3,0.4,0.5,0.6
				s0.5,0.3,0.7,0.4c0.3,0.1,0.6,0.1,0.9,0.1c0.5,0,1-0.1,1.3-0.3c0.4-0.2,0.7-0.4,0.9-0.8l2.3,1.4c-0.5,0.7-1.1,1.2-1.9,1.6
				c-0.8,0.4-1.7,0.6-2.7,0.6c-0.7,0-1.5-0.1-2.1-0.4c-0.7-0.2-1.3-0.6-1.8-1c-0.5-0.4-0.9-1-1.2-1.7c-0.3-0.7-0.4-1.4-0.4-2.2
				c0-0.8,0.1-1.6,0.4-2.2c0.3-0.7,0.7-1.2,1.1-1.7c0.5-0.5,1-0.8,1.7-1.1c0.7-0.3,1.4-0.4,2.1-0.4c0.7,0,1.4,0.1,2,0.4
				c0.6,0.2,1.1,0.6,1.6,1.1s0.8,1,1,1.7C437.5,508.1,437.6,508.8,437.6,509.7z M434.6,508.4c0-0.5-0.2-1-0.5-1.3
				c-0.3-0.4-0.8-0.6-1.5-0.6c-0.3,0-0.6,0-0.9,0.2s-0.5,0.2-0.7,0.4c-0.2,0.2-0.4,0.4-0.5,0.6c-0.1,0.2-0.2,0.5-0.2,0.7H434.6z"/>
			<path class="st1" d="M447.1,514.6v-1.3h0c-0.3,0.5-0.8,0.9-1.4,1.2c-0.6,0.3-1.2,0.4-1.9,0.4c-0.7,0-1.4-0.1-2-0.4
				c-0.6-0.3-1.1-0.7-1.5-1.2c-0.4-0.5-0.7-1.1-0.9-1.7c-0.2-0.6-0.3-1.3-0.3-2c0-0.7,0.1-1.4,0.3-2s0.5-1.2,0.9-1.7
				c0.4-0.5,0.9-0.9,1.5-1.1c0.6-0.3,1.2-0.4,2-0.4c0.7,0,1.4,0.1,1.9,0.4c0.5,0.3,0.9,0.6,1.2,0.9h0v-6.2h3.3v15.2H447.1z
				 M447,509.5c0-0.3-0.1-0.6-0.2-0.9c-0.1-0.3-0.3-0.6-0.5-0.8c-0.2-0.2-0.5-0.4-0.8-0.6c-0.3-0.1-0.6-0.2-1-0.2
				c-0.4,0-0.7,0.1-1,0.2c-0.3,0.1-0.5,0.3-0.7,0.6c-0.2,0.2-0.4,0.5-0.5,0.8c-0.1,0.3-0.2,0.6-0.2,0.9c0,0.3,0,0.6,0.2,1
				c0.1,0.3,0.3,0.6,0.5,0.8c0.2,0.2,0.4,0.4,0.7,0.6c0.3,0.1,0.6,0.2,1,0.2c0.4,0,0.7-0.1,1-0.2c0.3-0.1,0.5-0.3,0.8-0.6
				c0.2-0.2,0.4-0.5,0.5-0.8C447,510.2,447,509.9,447,509.5z"/>
			<path class="st1" d="M463.3,509.5c0,0.8-0.1,1.6-0.4,2.2c-0.3,0.7-0.7,1.2-1.2,1.7c-0.5,0.5-1.1,0.8-1.8,1.1
				c-0.7,0.3-1.4,0.4-2.1,0.4c-0.7,0-1.5-0.1-2.1-0.4c-0.7-0.3-1.3-0.6-1.8-1.1c-0.5-0.5-0.9-1-1.2-1.7c-0.3-0.7-0.4-1.4-0.4-2.2
				c0-0.8,0.1-1.6,0.4-2.2c0.3-0.7,0.7-1.2,1.2-1.7c0.5-0.5,1.1-0.8,1.8-1c0.7-0.2,1.4-0.4,2.1-0.4c0.8,0,1.5,0.1,2.1,0.4
				c0.7,0.2,1.3,0.6,1.8,1c0.5,0.5,0.9,1,1.2,1.7C463.1,508,463.3,508.7,463.3,509.5z M460.1,509.5c0-0.3-0.1-0.6-0.2-0.9
				c-0.1-0.3-0.3-0.6-0.5-0.8c-0.2-0.2-0.4-0.4-0.7-0.6c-0.3-0.1-0.6-0.2-1-0.2s-0.7,0.1-1,0.2c-0.3,0.1-0.5,0.3-0.7,0.6
				c-0.2,0.2-0.3,0.5-0.4,0.8c-0.1,0.3-0.2,0.6-0.2,0.9c0,0.3,0.1,0.6,0.2,0.9c0.1,0.3,0.3,0.6,0.5,0.8c0.2,0.2,0.4,0.4,0.7,0.6
				c0.3,0.1,0.6,0.2,1,0.2c0.4,0,0.7-0.1,1-0.2c0.3-0.1,0.5-0.3,0.7-0.6c0.2-0.2,0.4-0.5,0.5-0.8C460,510.2,460.1,509.8,460.1,509.5
				z"/>
			<path class="st1" d="M465.4,514.6v-14.2h9.5v2.9h-6.2v2.7h5.9v2.7h-5.9v2.9h6.6v2.9H465.4z"/>
			<path class="st1" d="M483.9,514.6v-5.5c0-0.3,0-0.5-0.1-0.8s-0.1-0.5-0.2-0.7c-0.1-0.2-0.3-0.3-0.5-0.5c-0.2-0.1-0.4-0.2-0.7-0.2
				s-0.6,0.1-0.8,0.2c-0.2,0.1-0.4,0.3-0.6,0.5c-0.1,0.2-0.3,0.4-0.3,0.7c-0.1,0.3-0.1,0.5-0.1,0.8v5.4h-3.3v-10h3.2v1.4h0
				c0.1-0.2,0.3-0.4,0.5-0.6c0.2-0.2,0.4-0.4,0.7-0.5s0.5-0.3,0.9-0.4s0.6-0.1,1-0.1c0.7,0,1.2,0.1,1.7,0.4s0.8,0.6,1.1,0.9
				c0.3,0.4,0.5,0.8,0.6,1.3c0.1,0.5,0.2,1,0.2,1.5v6.2H483.9z"/>
			<path class="st1" d="M499.9,514.3c-0.9,0.4-2,0.6-3.2,0.6c-1.1,0-2.1-0.2-3-0.5c-0.9-0.4-1.7-0.9-2.4-1.5
				c-0.7-0.7-1.2-1.5-1.6-2.4s-0.6-1.9-0.6-3c0-1.1,0.2-2.2,0.6-3.1s0.9-1.7,1.6-2.4s1.5-1.1,2.4-1.5c0.9-0.3,1.9-0.5,3-0.5
				c1,0,2,0.2,3,0.5c1,0.4,1.8,0.9,2.4,1.6l-2.3,2.3c-0.3-0.4-0.7-0.8-1.3-1s-1.1-0.3-1.6-0.3c-0.6,0-1.2,0.1-1.7,0.3
				c-0.5,0.2-0.9,0.5-1.3,0.9c-0.4,0.4-0.6,0.8-0.8,1.4c-0.2,0.5-0.3,1.1-0.3,1.7c0,0.6,0.1,1.2,0.3,1.8c0.2,0.5,0.5,1,0.8,1.4
				c0.4,0.4,0.8,0.7,1.3,0.9c0.5,0.2,1,0.3,1.6,0.3c0.7,0,1.3-0.1,1.8-0.4c0.5-0.3,0.9-0.6,1.2-1l2.4,2.2
				C501.6,513.3,500.8,513.9,499.9,514.3z"/>
			<path class="st1" d="M503.3,505.9c0.6-0.6,1.3-1,2.1-1.3c0.8-0.3,1.6-0.4,2.4-0.4c0.8,0,1.6,0.1,2.1,0.3c0.6,0.2,1.1,0.5,1.4,1
				c0.4,0.4,0.6,1,0.8,1.6c0.2,0.7,0.3,1.4,0.3,2.4v5h-3v-1.1h-0.1c-0.3,0.4-0.6,0.7-1.2,1c-0.5,0.2-1.1,0.3-1.7,0.3
				c-0.4,0-0.8-0.1-1.2-0.2c-0.4-0.1-0.8-0.3-1.2-0.5c-0.4-0.2-0.6-0.6-0.9-1c-0.2-0.4-0.3-0.9-0.3-1.5c0-0.7,0.2-1.3,0.6-1.7
				c0.4-0.4,0.9-0.8,1.5-1c0.6-0.2,1.3-0.4,2.1-0.5c0.8-0.1,1.5-0.1,2.2-0.1v-0.2c0-0.5-0.2-0.9-0.5-1.1c-0.3-0.2-0.8-0.4-1.3-0.4
				c-0.5,0-0.9,0.1-1.4,0.3c-0.4,0.2-0.8,0.4-1.1,0.7L503.3,505.9z M509.3,510.2h-0.4c-0.4,0-0.7,0-1.1,0c-0.4,0-0.7,0.1-1,0.2
				c-0.3,0.1-0.5,0.2-0.7,0.4s-0.3,0.4-0.3,0.7c0,0.2,0,0.3,0.1,0.5s0.2,0.2,0.3,0.3c0.1,0.1,0.3,0.1,0.5,0.2s0.3,0,0.5,0
				c0.7,0,1.2-0.2,1.5-0.6c0.4-0.4,0.5-0.9,0.5-1.5V510.2z"/>
			<path class="st1" d="M520.6,507.5c-0.3-0.3-0.6-0.5-0.9-0.6c-0.4-0.2-0.7-0.3-1.1-0.3c-0.3,0-0.6,0.1-0.9,0.2
				c-0.3,0.1-0.4,0.3-0.4,0.6c0,0.3,0.1,0.5,0.4,0.6c0.3,0.1,0.8,0.3,1.4,0.4c0.4,0.1,0.8,0.2,1.1,0.3c0.4,0.1,0.7,0.3,1,0.6
				c0.3,0.2,0.6,0.5,0.7,0.9s0.3,0.8,0.3,1.2c0,0.6-0.1,1.2-0.4,1.6s-0.6,0.8-1,1.1c-0.4,0.3-0.9,0.5-1.4,0.6s-1,0.2-1.5,0.2
				c-0.8,0-1.6-0.1-2.4-0.4s-1.4-0.6-2-1.2l1.8-1.9c0.3,0.3,0.7,0.6,1.1,0.8s0.9,0.3,1.4,0.3c0.3,0,0.5-0.1,0.8-0.2s0.4-0.4,0.4-0.7
				c0-0.3-0.2-0.5-0.5-0.7c-0.3-0.1-0.8-0.3-1.5-0.5c-0.3-0.1-0.7-0.2-1-0.3s-0.7-0.3-0.9-0.5c-0.3-0.2-0.5-0.5-0.7-0.8
				s-0.3-0.7-0.3-1.2c0-0.6,0.1-1.1,0.4-1.5c0.3-0.4,0.6-0.8,1-1s0.8-0.5,1.3-0.6c0.5-0.1,1-0.2,1.5-0.2c0.7,0,1.5,0.1,2.2,0.4
				c0.7,0.2,1.3,0.6,1.8,1.1L520.6,507.5z"/>
			<path class="st1" d="M523.9,505.9c0.6-0.6,1.3-1,2.1-1.3c0.8-0.3,1.6-0.4,2.4-0.4c0.8,0,1.6,0.1,2.1,0.3c0.6,0.2,1.1,0.5,1.4,1
				c0.4,0.4,0.6,1,0.8,1.6c0.2,0.7,0.3,1.4,0.3,2.4v5h-3v-1.1h-0.1c-0.3,0.4-0.6,0.7-1.2,1c-0.5,0.2-1.1,0.3-1.7,0.3
				c-0.4,0-0.8-0.1-1.2-0.2c-0.4-0.1-0.8-0.3-1.2-0.5c-0.4-0.2-0.6-0.6-0.9-1c-0.2-0.4-0.3-0.9-0.3-1.5c0-0.7,0.2-1.3,0.6-1.7
				c0.4-0.4,0.9-0.8,1.5-1c0.6-0.2,1.3-0.4,2.1-0.5c0.8-0.1,1.5-0.1,2.2-0.1v-0.2c0-0.5-0.2-0.9-0.5-1.1c-0.3-0.2-0.8-0.4-1.3-0.4
				c-0.5,0-0.9,0.1-1.4,0.3c-0.4,0.2-0.8,0.4-1.1,0.7L523.9,505.9z M529.9,510.2h-0.4c-0.4,0-0.7,0-1.1,0c-0.4,0-0.7,0.1-1,0.2
				c-0.3,0.1-0.5,0.2-0.7,0.4s-0.3,0.4-0.3,0.7c0,0.2,0,0.3,0.1,0.5s0.2,0.2,0.3,0.3c0.1,0.1,0.3,0.1,0.5,0.2s0.3,0,0.5,0
				c0.7,0,1.2-0.2,1.5-0.6c0.4-0.4,0.5-0.9,0.5-1.5V510.2z"/>
		</g>
	</g>
	<g>
		<g>
			<path class="st1" d="M349.9,482.5c-0.3-0.4-0.7-0.7-1.2-0.9s-0.9-0.3-1.4-0.3c-0.2,0-0.5,0-0.7,0.1c-0.2,0-0.4,0.1-0.6,0.2
				c-0.2,0.1-0.3,0.3-0.5,0.4s-0.2,0.4-0.2,0.7c0,0.2,0,0.4,0.2,0.6c0.1,0.2,0.2,0.3,0.4,0.4c0.2,0.1,0.4,0.2,0.7,0.3
				c0.3,0.1,0.6,0.2,0.9,0.3c0.5,0.2,1,0.3,1.5,0.5c0.5,0.2,1,0.5,1.4,0.8c0.4,0.3,0.8,0.7,1.1,1.2c0.3,0.5,0.4,1.1,0.4,1.8
				c0,0.8-0.2,1.5-0.5,2.1c-0.3,0.6-0.7,1.1-1.2,1.5s-1.1,0.7-1.7,0.9c-0.7,0.2-1.3,0.3-2,0.3c-1,0-2-0.2-2.9-0.5
				c-0.9-0.4-1.7-0.9-2.4-1.5l2.2-2.3c0.3,0.4,0.8,0.8,1.4,1.1c0.6,0.3,1.1,0.4,1.7,0.4c0.3,0,0.5,0,0.7-0.1s0.5-0.1,0.6-0.3
				s0.3-0.3,0.4-0.5c0.1-0.2,0.2-0.4,0.2-0.7c0-0.3-0.1-0.5-0.2-0.7c-0.1-0.2-0.3-0.4-0.6-0.5s-0.6-0.3-0.9-0.4
				c-0.4-0.1-0.8-0.3-1.3-0.4c-0.5-0.1-0.9-0.3-1.3-0.5c-0.4-0.2-0.8-0.5-1.2-0.8s-0.6-0.7-0.8-1.1c-0.2-0.4-0.3-1-0.3-1.6
				c0-0.8,0.2-1.5,0.5-2c0.3-0.6,0.7-1,1.3-1.4c0.5-0.4,1.1-0.6,1.8-0.8c0.7-0.2,1.3-0.3,2-0.3c0.8,0,1.6,0.1,2.5,0.4
				c0.8,0.3,1.6,0.7,2.2,1.3L349.9,482.5z"/>
			<path class="st1" d="M363.9,488.2c0,0.1,0,0.3,0,0.4c0,0.1,0,0.3,0,0.4h-7.2c0,0.3,0.1,0.5,0.3,0.8s0.3,0.4,0.5,0.6
				s0.5,0.3,0.7,0.4c0.3,0.1,0.6,0.1,0.9,0.1c0.5,0,1-0.1,1.3-0.3c0.4-0.2,0.7-0.4,0.9-0.8l2.3,1.4c-0.5,0.7-1.1,1.2-1.9,1.6
				c-0.8,0.4-1.7,0.6-2.7,0.6c-0.7,0-1.5-0.1-2.1-0.4c-0.7-0.2-1.3-0.6-1.8-1c-0.5-0.4-0.9-1-1.2-1.7c-0.3-0.7-0.4-1.4-0.4-2.2
				c0-0.8,0.1-1.6,0.4-2.2c0.3-0.7,0.7-1.2,1.1-1.7c0.5-0.5,1-0.8,1.7-1.1c0.7-0.3,1.4-0.4,2.1-0.4c0.7,0,1.4,0.1,2,0.4
				c0.6,0.2,1.1,0.6,1.6,1.1s0.8,1,1,1.7C363.7,486.6,363.9,487.3,363.9,488.2z M360.8,486.9c0-0.5-0.2-1-0.5-1.3
				c-0.3-0.4-0.8-0.6-1.5-0.6c-0.3,0-0.6,0-0.9,0.2s-0.5,0.2-0.7,0.4c-0.2,0.2-0.4,0.4-0.5,0.6c-0.1,0.2-0.2,0.5-0.2,0.7H360.8z"/>
			<path class="st1" d="M372.3,485.8c-0.1,0-0.3-0.1-0.4-0.1c-0.1,0-0.3,0-0.4,0c-0.4,0-0.8,0.1-1.1,0.2c-0.3,0.2-0.5,0.4-0.7,0.6
				c-0.2,0.2-0.3,0.5-0.4,0.7c-0.1,0.3-0.1,0.5-0.1,0.7v5.1h-3.3v-10h3.2v1.4h0c0.3-0.5,0.6-0.9,1.1-1.3s1-0.5,1.6-0.5
				c0.1,0,0.3,0,0.4,0s0.2,0,0.3,0.1L372.3,485.8z"/>
			<path class="st1" d="M386.7,493l0.1-10h-0.1l-3.7,10h-2.4l-3.6-10H377l0.1,10h-3.2v-14.2h4.9l3.2,9.1h0.1l3.1-9.1h5V493H386.7z"
				/>
			<path class="st1" d="M402.6,488.2c0,0.1,0,0.3,0,0.4c0,0.1,0,0.3,0,0.4h-7.2c0,0.3,0.1,0.5,0.3,0.8s0.3,0.4,0.5,0.6
				s0.5,0.3,0.7,0.4c0.3,0.1,0.6,0.1,0.9,0.1c0.5,0,1-0.1,1.3-0.3c0.4-0.2,0.7-0.4,0.9-0.8l2.3,1.4c-0.5,0.7-1.1,1.2-1.9,1.6
				c-0.8,0.4-1.7,0.6-2.7,0.6c-0.7,0-1.5-0.1-2.1-0.4c-0.7-0.2-1.3-0.6-1.8-1c-0.5-0.4-0.9-1-1.2-1.7c-0.3-0.7-0.4-1.4-0.4-2.2
				c0-0.8,0.1-1.6,0.4-2.2c0.3-0.7,0.7-1.2,1.1-1.7c0.5-0.5,1-0.8,1.7-1.1c0.7-0.3,1.4-0.4,2.1-0.4c0.7,0,1.4,0.1,2,0.4
				c0.6,0.2,1.1,0.6,1.6,1.1s0.8,1,1,1.7C402.5,486.6,402.6,487.3,402.6,488.2z M399.6,486.9c0-0.5-0.2-1-0.5-1.3
				c-0.3-0.4-0.8-0.6-1.5-0.6c-0.3,0-0.6,0-0.9,0.2s-0.5,0.2-0.7,0.4c-0.2,0.2-0.4,0.4-0.5,0.6c-0.1,0.2-0.2,0.5-0.2,0.7H399.6z"/>
			<path class="st1" d="M407.9,493.3c0,0.6-0.1,1.2-0.2,1.8c-0.1,0.6-0.3,1-0.6,1.5c-0.3,0.4-0.7,0.7-1.2,1c-0.5,0.2-1.2,0.4-2,0.4
				c-0.2,0-0.5,0-0.7,0c-0.3,0-0.5-0.1-0.7-0.1l0.2-2.7c0.1,0,0.2,0.1,0.4,0.1s0.2,0,0.3,0c0.5,0,0.8-0.2,1-0.5
				c0.2-0.3,0.2-0.7,0.2-1.3v-10.2h3.3V493.3z M408.2,479.9c0,0.3,0,0.5-0.2,0.7c-0.1,0.2-0.2,0.4-0.4,0.6c-0.2,0.2-0.4,0.3-0.6,0.4
				c-0.2,0.1-0.5,0.1-0.7,0.1c-0.5,0-1-0.2-1.3-0.5s-0.5-0.8-0.5-1.3c0-0.2,0-0.5,0.1-0.7s0.2-0.4,0.4-0.6c0.2-0.2,0.4-0.3,0.6-0.4
				c0.2-0.1,0.5-0.2,0.7-0.2c0.3,0,0.5,0,0.7,0.1c0.2,0.1,0.4,0.2,0.6,0.4c0.2,0.2,0.3,0.4,0.4,0.6
				C408.1,479.4,408.2,479.6,408.2,479.9z"/>
			<path class="st1" d="M421,488c0,0.8-0.1,1.6-0.4,2.2c-0.3,0.7-0.7,1.2-1.2,1.7c-0.5,0.5-1.1,0.8-1.8,1.1
				c-0.7,0.3-1.4,0.4-2.1,0.4c-0.7,0-1.5-0.1-2.1-0.4c-0.7-0.3-1.3-0.6-1.8-1.1c-0.5-0.5-0.9-1-1.2-1.7c-0.3-0.7-0.4-1.4-0.4-2.2
				c0-0.8,0.1-1.6,0.4-2.2c0.3-0.7,0.7-1.2,1.2-1.7c0.5-0.5,1.1-0.8,1.8-1c0.7-0.2,1.4-0.4,2.1-0.4c0.8,0,1.5,0.1,2.1,0.4
				c0.7,0.2,1.3,0.6,1.8,1c0.5,0.5,0.9,1,1.2,1.7C420.9,486.5,421,487.2,421,488z M417.9,488c0-0.3-0.1-0.6-0.2-0.9
				c-0.1-0.3-0.3-0.6-0.5-0.8c-0.2-0.2-0.4-0.4-0.7-0.6c-0.3-0.1-0.6-0.2-1-0.2s-0.7,0.1-1,0.2c-0.3,0.1-0.5,0.3-0.7,0.6
				c-0.2,0.2-0.3,0.5-0.4,0.8c-0.1,0.3-0.2,0.6-0.2,0.9c0,0.3,0.1,0.6,0.2,0.9c0.1,0.3,0.3,0.6,0.5,0.8c0.2,0.2,0.4,0.4,0.7,0.6
				c0.3,0.1,0.6,0.2,1,0.2c0.4,0,0.7-0.1,1-0.2c0.3-0.1,0.5-0.3,0.7-0.6c0.2-0.2,0.4-0.5,0.5-0.8C417.8,488.6,417.9,488.3,417.9,488
				z"/>
			<path class="st1" d="M429.5,485.8c-0.1,0-0.3-0.1-0.4-0.1c-0.1,0-0.3,0-0.4,0c-0.4,0-0.8,0.1-1.1,0.2c-0.3,0.2-0.5,0.4-0.7,0.6
				c-0.2,0.2-0.3,0.5-0.4,0.7c-0.1,0.3-0.1,0.5-0.1,0.7v5.1H423v-10h3.2v1.4h0c0.3-0.5,0.6-0.9,1.1-1.3s1-0.5,1.6-0.5
				c0.1,0,0.3,0,0.4,0s0.2,0,0.3,0.1L429.5,485.8z"/>
			<path class="st1" d="M440.8,488.2c0,0.1,0,0.3,0,0.4c0,0.1,0,0.3,0,0.4h-7.2c0,0.3,0.1,0.5,0.3,0.8s0.3,0.4,0.5,0.6
				s0.5,0.3,0.7,0.4c0.3,0.1,0.6,0.1,0.9,0.1c0.5,0,1-0.1,1.3-0.3c0.4-0.2,0.7-0.4,0.9-0.8l2.3,1.4c-0.5,0.7-1.1,1.2-1.9,1.6
				c-0.8,0.4-1.7,0.6-2.7,0.6c-0.7,0-1.5-0.1-2.1-0.4c-0.7-0.2-1.3-0.6-1.8-1c-0.5-0.4-0.9-1-1.2-1.7c-0.3-0.7-0.4-1.4-0.4-2.2
				c0-0.8,0.1-1.6,0.4-2.2c0.3-0.7,0.7-1.2,1.1-1.7c0.5-0.5,1-0.8,1.7-1.1c0.7-0.3,1.4-0.4,2.1-0.4c0.7,0,1.4,0.1,2,0.4
				c0.6,0.2,1.1,0.6,1.6,1.1s0.8,1,1,1.7C440.6,486.6,440.8,487.3,440.8,488.2z M437.7,486.9c0-0.5-0.2-1-0.5-1.3
				c-0.3-0.4-0.8-0.6-1.5-0.6c-0.3,0-0.6,0-0.9,0.2s-0.5,0.2-0.7,0.4c-0.2,0.2-0.4,0.4-0.5,0.6c-0.1,0.2-0.2,0.5-0.2,0.7H437.7z"/>
			<path class="st1" d="M448.6,486c-0.3-0.3-0.6-0.5-0.9-0.6c-0.4-0.2-0.7-0.3-1.1-0.3c-0.3,0-0.6,0.1-0.9,0.2
				c-0.3,0.1-0.4,0.3-0.4,0.6c0,0.3,0.1,0.5,0.4,0.6c0.3,0.1,0.8,0.3,1.4,0.4c0.4,0.1,0.8,0.2,1.1,0.3c0.4,0.1,0.7,0.3,1,0.6
				c0.3,0.2,0.6,0.5,0.7,0.9s0.3,0.8,0.3,1.2c0,0.6-0.1,1.2-0.4,1.6s-0.6,0.8-1,1.1c-0.4,0.3-0.9,0.5-1.4,0.6s-1,0.2-1.5,0.2
				c-0.8,0-1.6-0.1-2.4-0.4s-1.4-0.6-2-1.2l1.8-1.9c0.3,0.3,0.7,0.6,1.1,0.8s0.9,0.3,1.4,0.3c0.3,0,0.5-0.1,0.8-0.2s0.4-0.4,0.4-0.7
				c0-0.3-0.2-0.5-0.5-0.7c-0.3-0.1-0.8-0.3-1.5-0.5c-0.3-0.1-0.7-0.2-1-0.3s-0.7-0.3-0.9-0.5c-0.3-0.2-0.5-0.5-0.7-0.8
				s-0.3-0.7-0.3-1.2c0-0.6,0.1-1.1,0.4-1.5c0.3-0.4,0.6-0.8,1-1s0.8-0.5,1.3-0.6c0.5-0.1,1-0.2,1.5-0.2c0.7,0,1.5,0.1,2.2,0.4
				c0.7,0.2,1.3,0.6,1.8,1.1L448.6,486z"/>
			<path class="st1" d="M459.8,490c-0.1,0.6-0.4,1.2-0.7,1.7s-0.8,0.9-1.4,1.3s-1.4,0.5-2.4,0.5c-1.2,0-2.2-0.3-3-0.9
				c-0.8-0.6-1.3-1.4-1.6-2.4l3-1c0.1,0.4,0.3,0.7,0.5,0.9s0.6,0.3,0.9,0.3c0.6,0,0.9-0.2,1.1-0.6c0.2-0.4,0.3-0.9,0.3-1.5v-9.4h3.5
				v9.3C460,488.8,460,489.3,459.8,490z"/>
			<path class="st1" d="M469.2,493v-1.4h0c-0.1,0.2-0.3,0.4-0.5,0.6c-0.2,0.2-0.4,0.4-0.7,0.5c-0.3,0.1-0.5,0.3-0.9,0.4
				c-0.3,0.1-0.6,0.1-1,0.1c-0.7,0-1.2-0.1-1.7-0.4c-0.5-0.2-0.8-0.6-1.1-0.9c-0.3-0.4-0.5-0.8-0.6-1.3c-0.1-0.5-0.2-1-0.2-1.5v-6.2
				h3.3v5.4c0,0.3,0,0.5,0.1,0.8s0.1,0.5,0.2,0.7c0.1,0.2,0.3,0.4,0.5,0.5s0.4,0.2,0.7,0.2c0.6,0,1-0.2,1.3-0.6
				c0.3-0.4,0.5-0.9,0.5-1.5v-5.4h3.3v10H469.2z"/>
			<path class="st1" d="M481.4,493v-5.5c0-0.3,0-0.5-0.1-0.8s-0.1-0.5-0.2-0.7c-0.1-0.2-0.3-0.3-0.5-0.5c-0.2-0.1-0.4-0.2-0.7-0.2
				s-0.6,0.1-0.8,0.2c-0.2,0.1-0.4,0.3-0.6,0.5c-0.1,0.2-0.3,0.4-0.3,0.7c-0.1,0.3-0.1,0.5-0.1,0.8v5.4h-3.3v-10h3.2v1.4h0
				c0.1-0.2,0.3-0.4,0.5-0.6c0.2-0.2,0.4-0.4,0.7-0.5s0.5-0.3,0.9-0.4s0.6-0.1,1-0.1c0.7,0,1.2,0.1,1.7,0.4s0.8,0.6,1.1,0.9
				c0.3,0.4,0.5,0.8,0.6,1.3c0.1,0.5,0.2,1,0.2,1.5v6.2H481.4z"/>
			<path class="st1" d="M490.6,485.5v3.8c0,0.5,0.1,0.8,0.3,1.1c0.2,0.2,0.5,0.4,1,0.4c0.2,0,0.3,0,0.5,0c0.2,0,0.3-0.1,0.5-0.1
				l0,2.4c-0.2,0.1-0.5,0.2-0.9,0.2s-0.7,0.1-1,0.1c-0.7,0-1.2-0.1-1.7-0.3c-0.5-0.2-0.8-0.4-1.1-0.7c-0.3-0.3-0.5-0.7-0.6-1.1
				s-0.2-0.9-0.2-1.5v-4.2h-1.6v-2.4h1.6v-2.6h3.2v2.6h2.3v2.4H490.6z"/>
			<path class="st1" d="M505,488c0,0.8-0.1,1.6-0.4,2.2c-0.3,0.7-0.7,1.2-1.2,1.7c-0.5,0.5-1.1,0.8-1.8,1.1
				c-0.7,0.3-1.4,0.4-2.1,0.4c-0.7,0-1.5-0.1-2.1-0.4c-0.7-0.3-1.3-0.6-1.8-1.1c-0.5-0.5-0.9-1-1.2-1.7c-0.3-0.7-0.4-1.4-0.4-2.2
				c0-0.8,0.1-1.6,0.4-2.2c0.3-0.7,0.7-1.2,1.2-1.7c0.5-0.5,1.1-0.8,1.8-1c0.7-0.2,1.4-0.4,2.1-0.4c0.8,0,1.5,0.1,2.1,0.4
				c0.7,0.2,1.3,0.6,1.8,1c0.5,0.5,0.9,1,1.2,1.7C504.9,486.5,505,487.2,505,488z M501.8,488c0-0.3-0.1-0.6-0.2-0.9
				c-0.1-0.3-0.3-0.6-0.5-0.8c-0.2-0.2-0.4-0.4-0.7-0.6c-0.3-0.1-0.6-0.2-1-0.2s-0.7,0.1-1,0.2c-0.3,0.1-0.5,0.3-0.7,0.6
				c-0.2,0.2-0.3,0.5-0.4,0.8c-0.1,0.3-0.2,0.6-0.2,0.9c0,0.3,0.1,0.6,0.2,0.9c0.1,0.3,0.3,0.6,0.5,0.8c0.2,0.2,0.4,0.4,0.7,0.6
				c0.3,0.1,0.6,0.2,1,0.2c0.4,0,0.7-0.1,1-0.2c0.3-0.1,0.5-0.3,0.7-0.6c0.2-0.2,0.4-0.5,0.5-0.8C501.8,488.6,501.8,488.3,501.8,488
				z"/>
			<path class="st1" d="M512.9,486c-0.3-0.3-0.6-0.5-0.9-0.6c-0.4-0.2-0.7-0.3-1.1-0.3c-0.3,0-0.6,0.1-0.9,0.2
				c-0.3,0.1-0.4,0.3-0.4,0.6c0,0.3,0.1,0.5,0.4,0.6c0.3,0.1,0.8,0.3,1.4,0.4c0.4,0.1,0.8,0.2,1.1,0.3c0.4,0.1,0.7,0.3,1,0.6
				c0.3,0.2,0.6,0.5,0.7,0.9s0.3,0.8,0.3,1.2c0,0.6-0.1,1.2-0.4,1.6s-0.6,0.8-1,1.1c-0.4,0.3-0.9,0.5-1.4,0.6s-1,0.2-1.5,0.2
				c-0.8,0-1.6-0.1-2.4-0.4s-1.4-0.6-2-1.2l1.8-1.9c0.3,0.3,0.7,0.6,1.1,0.8s0.9,0.3,1.4,0.3c0.3,0,0.5-0.1,0.8-0.2s0.4-0.4,0.4-0.7
				c0-0.3-0.2-0.5-0.5-0.7c-0.3-0.1-0.8-0.3-1.5-0.5c-0.3-0.1-0.7-0.2-1-0.3s-0.7-0.3-0.9-0.5c-0.3-0.2-0.5-0.5-0.7-0.8
				s-0.3-0.7-0.3-1.2c0-0.6,0.1-1.1,0.4-1.5c0.3-0.4,0.6-0.8,1-1s0.8-0.5,1.3-0.6c0.5-0.1,1-0.2,1.5-0.2c0.7,0,1.5,0.1,2.2,0.4
				c0.7,0.2,1.3,0.6,1.8,1.1L512.9,486z"/>
		</g>
	</g>
</g>
</svg>
