<svg width="61" height="60" viewBox="0 0 61 60" fill="none" xmlns="http://www.w3.org/2000/svg">
<path d="M43.6539 28.9356C41.7423 27.3616 39.9706 27.732 38.3388 28.1949C38.3388 28.1023 38.2456 28.0097 38.1523 27.9171C38.4321 28.4727 38.8051 29.1208 39.178 29.6763L39.2713 29.8615C39.2713 29.8615 35.4016 29.6763 32.1846 27.0376L30.9724 25.8339C30.5994 25.9265 30.2264 26.2043 29.8534 26.2969C29.8534 26.2969 29.7602 26.8524 29.8534 27.6857L29.5737 27.9634C28.4547 25.695 27.1959 21.6675 29.7602 18.1954H33.1637C33.5366 17.4547 34.0961 16.714 34.7488 16.1122H43.7471C42.6282 17.3159 41.0896 19.862 40.9963 22.1304C40.9031 25.7413 42.7214 28.1486 43.6539 28.9356ZM43.6539 28.9356C43.7471 29.1208 43.9336 29.2134 44.0268 29.306C44.0268 29.306 43.8404 29.2134 43.6539 28.9356ZM30.9257 7.31641C18.7105 7.31641 8.54663 17.3622 8.54663 29.63C8.54663 31.6206 8.82637 33.4724 9.2926 35.2779C12.2299 34.7223 12.8826 33.6113 15.2604 33.102C16.4726 32.9169 17.8246 33.3798 17.1719 34.3057C17.1719 34.3057 16.8922 34.4909 16.8922 34.5834C16.7057 34.7686 16.6124 35.139 16.8922 35.2316C16.8922 35.3241 17.2652 35.6019 17.7314 35.6019C22.1606 35.139 22.6268 33.7039 25.4708 33.1483C26.683 32.9632 28.0351 33.4261 27.2891 34.352C27.2891 34.352 27.0094 34.5372 27.0094 34.6297C26.8229 34.8149 26.8229 35.1853 27.0094 35.2779C27.1026 35.3704 27.4756 35.6482 27.8486 35.6482C32.2778 35.1853 32.744 33.7502 35.4948 33.1946C36.8003 33.0095 38.0591 33.4724 37.4064 34.3983C37.4064 34.3983 37.1266 34.5834 37.1266 34.676C36.9401 34.8612 36.9401 35.2316 37.1266 35.3241C37.1266 35.4167 37.4996 35.6945 37.9658 35.6945C42.395 35.2316 42.8613 33.7965 45.612 33.2409C46.9175 33.0557 48.1763 33.5187 47.5236 34.4446C47.5236 34.4446 47.2438 34.6297 47.2438 34.7223C47.0574 34.9075 46.9641 35.2779 47.2438 35.3704C47.3371 35.463 47.6168 35.7408 48.0831 35.7408C49.9014 35.5556 51.4866 35.0001 52.419 34.5372C52.792 32.9632 52.9785 31.3429 52.9785 29.5837C53.0251 17.2696 43.1876 7.31641 30.9257 7.31641ZM23.6992 19.075L20.4822 19.3528C20.4822 19.3528 21.4146 20.3713 21.8809 20.8342C22.0673 21.0194 21.8809 21.2971 21.6011 21.112L20.2024 19.7231C20.2024 19.7231 19.9227 28.843 19.8294 29.8615C19.8294 30.2318 19.5497 30.2318 19.5497 29.8615L19.27 19.7231C18.8037 20.0935 18.3375 20.7416 17.8713 21.112C17.5915 21.2971 17.405 21.112 17.5915 20.8342L18.897 19.3528C17.778 19.2602 16.7989 19.1676 15.68 19.075C15.2137 19.075 15.2137 18.7047 15.68 18.6121L18.897 18.3343C18.897 18.3343 17.9645 17.3159 17.4983 16.8529C17.3118 16.5752 17.4983 16.39 17.6848 16.4826L19.27 17.964V17.8714C19.27 16.7603 19.3632 15.7882 19.4564 14.6771C19.4564 14.3068 19.9227 14.2142 19.9227 14.6771L20.2024 17.964C20.2024 17.964 21.2281 16.9455 21.7876 16.4826C22.0673 16.2974 22.2538 16.5752 21.9741 16.8529L20.4822 18.3343C20.4822 18.3343 22.6734 18.5195 23.6992 18.6121C24.1188 18.6121 24.212 18.9824 23.6992 19.075ZM37.4996 14.0753C37.3131 14.3531 37.2199 15.1863 37.5929 15.6493C37.1266 15.3715 35.9144 14.6308 34.9353 14.4456C35.9144 14.2605 37.4996 14.0753 37.4996 14.0753Z" stroke="#FF4F00" stroke-miterlimit="10"/>
<path d="M39.1314 35.3667L39.5976 35.2741L36.3806 30.9688L39.1314 35.3667ZM40.5301 35.0889L40.9963 34.9963L37.9658 30.9688L40.5301 35.0889ZM42.0686 34.5334L42.3484 34.3482L39.7841 30.9688L42.0686 34.5334ZM43.3741 33.8853L43.6538 33.7927L41.5558 30.9688L43.3741 33.8853ZM43.0944 30.9688L44.6795 33.4223L44.866 33.2371L43.0944 30.9688Z" fill="#FF4F00"/>
<path d="M50.1812 26.3868L49.0622 25.5535H48.8757C47.6635 26.0165 45.4723 26.0165 45.4723 26.0165H45.379V26.109C44.9128 26.7572 44.0736 27.7756 43.3276 28.5626C42.4884 27.4516 41.0431 25.4609 41.0431 22.3592V22.0815C41.1363 19.7205 42.8147 17.128 43.7938 16.1559L43.7006 15.9707H34.7023C34.0496 16.6188 33.4901 17.3595 33.1171 17.9613H29.7136C27.8021 20.6927 27.7088 23.8869 29.3406 27.8219C29.1542 28.0997 28.8744 28.3774 28.5014 28.933V29.0256L28.7812 29.5811C29.6204 31.294 30.0866 32.2198 31.6252 34.4419L31.8117 34.6271L32.4644 34.2568L32.5576 34.1642C33.3036 33.7938 34.1428 33.4235 35.4017 33.1457C36.2409 33.0531 37.0801 33.1457 37.3132 33.5161V33.7938C37.3132 33.8864 37.3132 34.0716 37.1267 34.2568L36.9402 34.4419H36.847C36.7537 34.5345 36.7537 34.7197 36.7537 34.9049V34.9975C36.7537 35.09 36.847 35.1826 36.9402 35.2752C37.1267 35.3678 37.4065 35.553 37.7794 35.553C40.5302 35.3678 41.7424 34.7197 42.9546 34.1642C43.7006 33.7938 44.4465 33.4235 45.5189 33.1457C46.3581 33.0531 47.1973 33.1457 47.4304 33.5161C47.5237 33.7012 47.5237 33.8864 47.4304 34.0716L47.5237 34.1642C49.2021 32.6828 50.4609 30.507 51.4866 27.4979V27.4053L50.1812 26.3868ZM45.4723 26.2016C45.752 26.2016 47.4771 26.109 48.6893 25.7387C48.4095 26.2016 47.5703 27.1275 46.498 27.9145C45.752 28.47 44.9128 28.933 44.1202 29.2107C44.0269 29.1181 43.8404 29.0256 43.7472 28.933C43.654 28.8404 43.654 28.7478 43.4675 28.6552C44.2134 27.8682 45.006 26.8497 45.4723 26.2016ZM43.9337 29.3033C43.4675 29.3959 43.0945 29.4885 42.6282 29.5811L43.3742 28.8404C43.4675 28.933 43.5607 28.933 43.654 29.1181C43.7472 29.1181 43.8404 29.2107 43.9337 29.3033ZM42.3485 29.6737C42.162 29.6737 41.8823 29.7663 41.6958 29.7663C40.9498 29.8588 40.1106 29.8588 39.318 29.7663L39.2248 29.6737C38.945 29.1181 38.6653 28.6552 38.3855 28.1923C39.9707 27.8219 41.5093 27.4516 43.281 28.7478C42.7215 29.2107 42.4418 29.5811 42.3485 29.6737ZM34.7956 16.1559H43.5141C42.4884 17.3595 40.9498 19.7205 40.9498 22.0815V22.3592C40.9498 25.2758 42.162 27.3127 43.0479 28.3774C41.3694 27.359 39.8309 27.6367 38.3389 28.0997C38.2457 28.0071 38.1524 27.9145 38.1524 27.8219C36.2409 23.9795 36.3807 21.3408 37.5929 18.0539L37.4997 17.9613H33.3502C33.7232 17.3595 34.1428 16.7114 34.7956 16.1559ZM28.3616 22.7296C28.3616 21.063 28.8278 19.5353 29.8535 18.1465H37.4997C37.4065 18.3317 37.3132 18.5169 37.22 18.8872C36.847 20.1834 36.6605 21.3408 36.6605 22.5444C36.6605 23.4703 36.7537 24.4425 37.0335 25.4609C37.3132 26.2942 37.5929 27.1275 38.0592 27.9145C38.4322 28.47 38.7119 29.1181 39.0849 29.72H39.1781C38.3389 29.6274 35.0287 29.1644 32.2779 26.896L31.0191 25.7387V25.6461H30.9258C30.8326 25.7387 30.7393 25.8313 30.6461 25.8313C30.5529 25.8313 30.4596 25.9239 30.3664 26.0165L29.8069 26.2016L29.7136 26.2942C29.7136 26.2942 29.6204 26.7572 29.7136 27.4979H29.6204C29.6204 27.5904 29.5271 27.683 29.5271 27.683C28.7345 25.9239 28.3616 24.3036 28.3616 22.7296ZM31.8583 34.4419C30.2731 32.3587 29.8535 31.3402 29.0143 29.4885C29.0143 29.4885 28.8278 29.1181 28.7345 29.0256C29.1075 28.3774 29.4805 28.0071 29.7603 27.6367C29.7603 27.8219 29.7603 27.9145 29.8535 28.0997C29.9467 29.3033 30.3197 31.0162 31.3454 32.7754C31.6252 33.3309 31.9982 33.7938 32.3712 34.3493C32.138 34.3493 31.9515 34.4419 31.8583 34.4419ZM30.413 30.1366V30.044C30.413 29.9514 30.3197 29.8588 30.3197 29.7663C30.3197 29.6737 30.2265 29.5811 30.2265 29.4885V29.3959C30.04 28.7478 29.9467 28.0997 29.9467 27.5904V26.3868L30.5062 26.109C30.5995 26.0165 30.786 25.9239 30.8792 25.9239C30.5995 29.2107 31.1123 30.6921 32.4178 34.0716C31.3921 32.7754 30.786 31.4328 30.413 30.1366ZM32.6043 34.1642C31.2988 30.6921 30.786 29.2107 31.0191 25.9239C31.2056 26.2016 31.7651 26.7572 31.9515 26.9423C31.8583 30.044 32.138 32.1272 32.9773 33.8864V33.979C32.7908 33.979 32.6975 34.0716 32.6043 34.1642ZM47.8034 33.8864V33.7938C47.8034 33.6086 47.7102 33.5161 47.6169 33.4235C47.3372 33.0531 46.498 32.8679 45.6121 32.9605C44.4932 33.2383 43.7006 33.6086 42.9546 33.979C41.7424 34.6271 40.5768 35.1826 37.8727 35.4604C37.5929 35.4604 37.22 35.2752 37.1267 35.1826C37.0335 35.09 37.0335 34.9975 37.0335 34.9975V34.9049C37.0335 34.7197 37.0335 34.6271 37.1267 34.5345L37.4065 34.3493C37.4997 34.0716 37.5929 33.979 37.5929 33.7938C37.5929 33.6086 37.4997 33.5161 37.4997 33.4235C37.22 33.0531 36.2875 32.8679 35.4017 32.9605C34.4692 33.1457 33.7232 33.5161 33.1171 33.8864C32.3712 32.1735 32.0914 30.1366 32.1847 27.1275C32.2779 27.1275 32.2779 27.1275 32.2779 27.2201C32.3712 27.2201 32.3712 27.2201 32.4644 27.3127C34.9354 29.2107 38.5254 30.3218 41.7424 29.9514C42.0221 29.9514 42.3019 29.8588 42.5816 29.7663C44.8662 29.5811 46.6378 28.1923 47.8034 27.1275C48.1764 26.6646 48.6426 26.2016 49.0156 25.7387C49.1089 25.8313 50.1346 26.572 50.1346 26.572C50.1346 26.572 51.3468 27.4053 51.44 27.4979C50.4609 30.3218 49.2487 32.405 47.8034 33.8864Z" fill="#FF4F00"/>
<path d="M40.5303 46.3866C40.3438 46.3866 40.1573 46.3866 39.8775 46.4792C37.593 47.1273 36.6605 48.4698 32.2313 48.8402C30.7394 48.8402 29.8536 47.544 30.413 46.3866C30.1333 46.3866 29.9468 46.3866 29.7603 46.4792C27.4758 47.1273 26.5433 48.4698 22.1141 48.8402C20.6222 48.8402 19.8296 47.544 20.2958 46.3866C20.1093 46.3866 19.9228 46.3866 19.6431 46.4792C18.8039 46.6644 18.1511 47.0347 17.4518 47.4051C21.0418 50.1364 25.5642 51.803 30.5063 51.6178C34.6557 51.5252 38.4322 50.5068 41.556 48.7013C40.6235 48.331 40.1573 47.3125 40.5303 46.3866ZM48.1765 36.4335C46.6845 36.4335 45.8919 35.0446 46.3581 33.9799H45.7987C43.5141 34.628 42.4884 36.0631 38.0592 36.4335C36.5673 36.4335 35.7747 35.0446 36.2409 33.9799H35.6814C33.3969 34.628 32.3712 36.0631 27.942 36.4335C26.5433 36.4335 25.7507 35.0446 26.1237 33.9799H25.5642C23.2797 34.628 22.254 36.0631 17.8248 36.4335C16.7991 36.4335 16.0531 35.7853 15.9132 35.0446C15.9132 34.9521 15.82 34.8595 15.82 34.7669C15.82 34.4891 15.82 34.2114 16.0065 33.9336H15.3538C13.3956 34.5354 12.3699 35.6928 9.43262 36.1557C10.0853 37.9149 10.8313 39.6277 11.8104 41.2017C13.4422 40.5536 14.2814 39.8129 16.0531 39.4888C17.3586 39.2111 18.6174 39.674 17.9647 40.6925C17.9647 40.6925 17.7782 40.7851 17.6849 40.8777C17.4984 41.0628 17.4984 41.4332 17.6849 41.6184C17.7782 41.6184 18.1511 41.8961 18.6174 41.8961C23.0466 41.5258 23.5128 40.0907 26.2636 39.5351C27.569 39.2574 28.8278 39.7203 28.1751 40.7388C28.1751 40.7388 27.8954 40.8314 27.8954 40.924C27.7089 41.1091 27.7089 41.4795 27.8954 41.6647C27.8954 41.6647 28.2684 41.9424 28.7346 41.9424C33.1638 41.5721 33.63 40.137 36.3808 39.5814C37.593 39.3037 38.9451 39.7666 38.1991 40.7851C38.1991 40.7851 38.0126 40.8777 38.0126 40.9702C37.8261 41.1554 37.7329 41.5258 38.0126 41.7109C38.0126 41.7109 38.3856 41.9887 38.8518 41.9887C43.281 41.6184 43.7472 40.1833 46.498 39.6277C47.8035 39.35 49.0623 39.8129 48.4096 40.8314C48.4096 40.8314 48.1298 40.924 48.1298 41.0165C47.9433 41.2017 47.9433 41.5721 48.1298 41.7572C48.1298 41.7572 48.5028 42.035 48.969 42.035H49.0623C50.2745 40.137 51.2536 38.1 51.8131 35.8316C50.9272 35.8779 49.2488 36.3409 48.1765 36.4335ZM47.1507 40.461C46.871 40.461 46.6845 40.461 46.498 40.5536C44.2135 41.1091 43.281 42.4516 38.8518 42.9146C37.3599 42.9146 36.474 41.5258 37.0335 40.461C36.7538 40.461 36.5673 40.461 36.3808 40.5536C34.0963 41.1091 33.1638 42.4516 28.7346 42.9146C27.2427 42.9146 26.4501 41.5258 26.9163 40.461C26.7298 40.461 26.4501 40.461 26.2636 40.5536C23.979 41.1091 23.0466 42.4516 18.6174 42.9146C17.0322 42.9146 16.2396 41.5258 16.7058 40.461C16.5193 40.461 16.3328 40.461 16.0531 40.5536C14.6544 40.8314 13.8618 41.5721 12.3699 42.1276C13.5821 43.7942 14.9341 45.3219 16.5193 46.7107C17.545 46.2477 18.3376 45.6922 19.6431 45.4145C20.9485 45.2293 22.2074 45.5996 21.5546 46.6181L21.2749 46.8033C21.0884 46.9884 21.0884 47.3588 21.2749 47.544C21.3681 47.544 21.7411 47.8217 22.1141 47.8217C26.5433 47.4514 27.0095 46.0163 29.7603 45.4607C31.0658 45.2756 32.3246 45.6459 31.6719 46.6644L31.3921 46.8496C31.2056 47.0347 31.2056 47.4051 31.3921 47.5903C31.3921 47.5903 31.7651 47.868 32.2313 47.868C36.6605 47.4977 37.1268 46.0626 39.8775 45.507C41.183 45.3219 42.4418 45.6922 41.7891 46.7107L41.5093 46.8959C41.3228 47.081 41.3228 47.4514 41.5093 47.6365C41.6026 47.6365 41.8823 47.9143 42.3486 47.9143C42.6283 47.9143 42.908 47.9143 43.281 47.8217C45.1926 46.5255 46.9642 44.8126 48.3629 42.9609C47.3372 42.4516 46.6845 41.3869 47.1507 40.461Z" fill="#FF4F00"/>
<path d="M2.06597 27.0348L6.9614 27.5903L7.05465 26.6644L2.15922 26.1089L2.25246 24.8127L1.32 24.7201L0.947014 28.2847L1.87948 28.3773L2.06597 27.0348ZM8.68646 20.3685L7.75399 20.0907L7.19452 21.8036L2.5322 20.2759L2.25246 21.1092L7.75399 23.0072L8.68646 20.3685ZM10.4115 16.2483L11.344 15.9706L10.3183 13.6096L12.7893 14.0725L12.8825 13.1466L10.0385 12.5911L8.91957 9.95237L7.98711 10.2301L9.01282 12.4985L6.63504 12.0356L6.54179 12.9615L9.29256 13.4244L10.4115 16.2483ZM15.6799 11.2023L11.9967 6.71181L11.2507 7.26733L15.0272 11.7578L15.6799 11.2023ZM17.1252 10.2301L14.7475 6.57293V6.48034L18.9902 9.11908L19.6429 8.37838L16.7056 3.56383L15.9597 4.02677L18.2442 7.77657L13.9082 5.13782L13.3488 5.87852L16.3327 10.6931L17.1252 10.2301ZM21.6477 2.54537L23.0464 7.31363L23.9788 7.03586L22.5802 2.2676L23.7924 1.89725L23.6059 0.971379L20.1091 2.08243L20.3889 2.91572L21.6477 2.54537ZM29.8534 1.71208L32.0447 6.20258L32.9771 5.92481L33.1636 0.276972H32.2311L32.1379 4.67488L29.9466 0.0917969L29.1074 0.36956L29.0141 6.0174L29.8534 6.10999V1.71208ZM38.7584 7.4988C39.5976 7.86915 40.4368 7.4988 40.6699 6.57293C40.9497 5.83223 40.7632 5.18411 40.297 4.90635C40.7632 4.99894 41.3227 4.62859 41.5092 3.88789C41.8821 3.0546 41.5092 2.2676 40.5767 1.98984L39.1314 1.43432L37.0333 6.89698L38.7584 7.4988ZM39.5976 2.54537L40.1571 2.73054C40.7166 2.91572 40.903 3.28607 40.7166 3.74901C40.5301 4.30453 40.0638 4.39712 39.5976 4.30453L39.1314 4.11936L39.5976 2.54537ZM39.2246 4.99894C39.8773 5.18411 40.0638 5.64705 39.8773 6.20258C39.6908 6.66551 39.3179 6.85069 38.7584 6.66551L38.1989 6.48034L38.7584 4.81376L39.2246 4.99894ZM41.4159 8.65615L42.6281 6.61922L42.9078 6.71181C43.0011 6.8044 43.0011 6.89698 43.0943 7.08216V9.7672L44.12 9.67461L44.0268 7.12845C44.5863 7.12845 45.239 6.85069 45.612 6.20258C45.985 5.36929 45.985 4.48971 44.9593 3.93418L43.5606 3.19348L40.7166 8.2858L41.4159 8.65615ZM43.9336 4.35082L44.3998 4.62859C44.7728 4.81376 44.9593 5.2767 44.6795 5.73964C44.3065 6.38775 43.8403 6.29516 43.5606 6.20258L43.0943 5.92481L43.9336 4.35082ZM44.9126 10.8782L48.3161 6.20258L47.5702 5.64705L44.1667 10.3227L44.9126 10.8782ZM47.9898 11.3875C47.71 11.7578 47.2438 11.7578 46.8708 11.4801C46.6843 11.2949 46.4978 10.9245 46.4978 10.5542L45.6586 10.9245C45.7519 11.4801 46.0316 11.8504 46.3113 12.2208C47.0573 12.8689 48.0364 12.6837 48.6891 11.943C49.9946 10.5542 48.2229 9.48944 48.9689 8.65615C49.3418 8.2858 49.8081 8.2858 50.0878 8.56356C50.3675 8.84132 50.4608 9.21167 50.554 9.48943L51.3933 9.21167C51.3 8.65615 51.0203 8.19321 50.6473 7.91545C49.9013 7.26733 48.9689 7.35992 48.3628 8.00803C46.9641 9.48944 48.7824 10.5079 47.9898 11.3875ZM50.8338 17.3594L51.673 16.8039L50.554 15.2299L54.6103 12.4059L54.0508 11.6652L49.1553 15.0447L50.8338 17.3594ZM55.9623 20.5536C54.1906 20.924 53.2116 22.1739 53.4913 23.6553C53.5845 24.2109 53.9575 24.6738 54.4238 25.0441L55.0765 24.5812C54.7967 24.3034 54.6103 24.0257 54.4238 23.4702C54.2373 22.5443 55.1697 21.711 56.2421 21.4795C57.361 21.2943 58.3401 21.6647 58.6198 22.6832C58.6198 23.0535 58.5266 23.609 58.3401 23.8868L59.0861 24.1646C59.4591 23.609 59.6456 23.0535 59.4591 22.4517C59.1793 21.0166 57.734 20.2759 55.9623 20.5536ZM59.4591 28.9328L59.3658 30.3216L54.3771 30.0439V30.9697L59.3658 31.1549L59.2726 32.5437L60.205 32.6363L60.3915 28.9791L59.4591 28.9328ZM30.6926 52.9593C19.3632 52.9593 9.9919 44.9968 7.70737 34.3955H1.18013C3.65116 48.4688 15.913 59.0701 30.7392 59.0701C45.4721 59.0701 57.7806 48.4688 60.205 34.3955H53.771C51.3933 45.0431 41.9754 52.9593 30.6926 52.9593ZM20.995 56.9869L20.249 56.6165L20.8085 53.5148L19.0834 54.4407L18.6172 52.5427L16.5191 54.9036L15.8664 54.5333L19.0834 50.5983L19.6429 53.2371L22.0207 51.9408L20.995 56.9869ZM23.4194 57.5424C22.5802 57.3572 22.1139 56.061 22.4869 54.811C22.8599 53.4222 23.7924 52.6352 24.6782 52.8204C25.2377 53.0056 25.6107 53.5611 25.7039 54.3944L24.8647 54.1166C24.7714 53.8389 24.5849 53.6537 24.3985 53.6537C24.0255 53.5611 23.466 54.1166 23.1863 55.0425C22.9998 55.9684 23.093 56.7091 23.5592 56.848C23.7457 56.848 23.9322 56.7554 24.1187 56.5702L24.9579 56.7554C24.5849 57.3572 23.9322 57.7276 23.4194 57.5424ZM30.5993 58.5608L29.9466 55.4592L28.5479 56.9406L27.5222 55.3203L26.4033 58.3294L25.564 58.2368L27.1958 53.3759L28.5945 55.6443L30.4128 53.6537L31.3453 58.6997L30.5993 58.5608ZM35.4481 58.1905L34.0494 56.5239L33.117 58.422L32.371 58.5145L33.5832 55.8758L31.7649 53.6074L32.6041 53.5148L34.0028 55.274L34.9353 53.2834L35.7745 53.1908L34.4691 55.8295L36.2874 58.0979L35.4481 58.1905ZM39.7841 57.0794L36.3806 53.0519L37.1266 52.7741L39.0381 55.0425L39.3179 52.0334L40.0638 51.8482L39.7841 57.0794ZM43.0943 55.8295L40.9963 51.4316L41.7423 51.0613L43.8403 55.4592L43.0943 55.8295ZM44.9126 54.9036L42.5349 50.5983L43.1876 50.228L45.6586 54.5333L44.9126 54.9036ZM6.72828 29.118L5.84244 29.2106L6.02894 31.016L4.44375 31.1549L4.3505 29.8587H3.41804L3.51129 31.2475L1.9261 31.3401L1.73961 29.4421L0.900391 29.5346L0.993637 32.266L6.86815 31.8956L6.72828 29.118ZM28.4547 6.0174L28.2682 5.09153L26.4499 5.36929L26.1701 3.88789L27.4756 3.74901L27.3823 2.82313L25.9836 3.00831L25.7972 1.43432L27.5222 1.15655L27.429 0.230678L24.7714 0.693616L25.7039 6.43405L28.4547 6.0174ZM36.6603 5.83223L34.842 5.46188L35.1218 3.98047L36.4272 4.16565L36.6137 3.23977L35.3083 3.0546L35.6813 1.48061L37.4063 1.89725L37.5928 0.971379L34.9353 0.415853L33.7231 6.15628L36.4739 6.71181L36.6603 5.83223ZM54.4238 28.5625L55.3562 28.4699L55.1697 26.6644L56.7549 26.4793L56.8482 27.8681L57.7806 27.7755L57.6874 26.4793L59.1793 26.2941L59.3658 28.0995L60.2983 28.0069L60.1118 25.3682L54.2373 25.8311L54.4238 28.5625ZM9.71216 18.4241C10.1784 17.4057 10.0852 16.6187 8.7797 15.878L5.56271 14.0725L4.90998 14.6743L8.40672 16.665C9.05944 17.0353 9.15269 17.4057 8.87295 17.9612C8.59321 18.5167 8.22022 18.5167 7.47425 18.239L3.97752 16.4335L3.79103 17.3594L7.10127 18.9797C8.31347 19.6278 9.15269 19.4426 9.71216 18.4241ZM51.9061 19.4426C52.3723 20.4611 53.2116 20.924 54.5636 20.2759L57.8739 18.7019L57.7806 17.776L54.0974 19.4889C53.4447 19.7667 52.8852 19.5815 52.6055 19.026C52.419 18.4704 52.6055 18.1001 53.2582 17.7297L56.7549 15.8317L56.1022 15.1836L52.792 16.8964C51.6264 17.6371 51.3933 18.4241 51.9061 19.4426Z" fill="#FF4F00"/>
</svg>
