<svg width="415" height="296" viewBox="0 0 415 296" fill="none" xmlns="http://www.w3.org/2000/svg">
<g clip-path="url(#clip0)">
<path d="M193.22 273.903C192.06 270.071 190.811 266.329 189.472 263.389L141.1 261.518C141.1 261.518 139.494 266.953 138.066 272.655C142.082 275.15 151.899 280.318 166.179 281.477C179.387 282.457 188.758 277.2 193.22 273.903Z" fill="#1280C7"/>
<path d="M193.22 273.903C188.669 277.2 179.387 282.546 166.178 281.476C151.899 280.318 142.082 275.15 138.066 272.655C137.262 275.596 136.548 278.625 136.102 281.031C134.674 287.892 133.157 296.089 133.157 296.089H198.665C198.665 296 196.433 284.417 193.22 273.903Z" fill="#3C99E8"/>
<path d="M83.2677 182.127C83.2677 182.127 89.0688 174.197 91.5677 168.583C94.0667 163.059 92.8172 157 79.2516 152.545C65.686 148.09 61.6699 146.931 56.4936 156.644C51.4065 166.356 44.6237 187.651 44.3559 191.75C44.0882 195.938 45.6054 197.453 55.6011 201.373C65.5968 205.294 68.4527 205.561 73.272 198.344C78.0914 191.126 83.2677 182.127 83.2677 182.127Z" fill="#EB8314"/>
<path d="M91.657 191.572L87.3731 186.671C87.3731 186.671 89.3366 181.147 89.0688 177.672C88.8903 174.108 85.6774 172.949 84.071 174.642C82.4645 176.335 83.357 182.127 83.357 182.127L73.3613 198.344C73.3613 198.344 78.0914 199.948 80.1441 198.344C82.1968 196.74 82.5538 196.384 82.5538 196.384L87.3731 199.057L91.657 191.572Z" fill="#A07046"/>
<path d="M59.885 169.474L58.9925 169.118C57.5645 168.583 56.8506 166.89 57.386 165.464L57.5645 164.93C58.1 163.504 59.7957 162.791 61.2237 163.326L62.1161 163.682C63.5441 164.217 64.2581 165.91 63.7226 167.336L63.5441 167.87C62.9194 169.296 61.3129 170.009 59.885 169.474Z" fill="#F7AA50"/>
<path d="M83.4462 166.979L64.5258 159.495C63.0978 158.96 62.3839 157.267 62.9194 155.841L63.0978 155.307C63.6333 153.881 65.329 153.168 66.757 153.703L85.6774 161.277C87.1054 161.811 87.8194 163.504 87.2839 164.93L87.1054 165.464C86.4806 166.801 84.8742 167.514 83.4462 166.979Z" fill="#F7AA50"/>
<path d="M68.8989 173.306L68.0065 172.949C66.5785 172.415 65.8645 170.722 66.4 169.296L66.5785 168.761C67.114 167.336 68.8097 166.623 70.2376 167.157L71.1301 167.514C72.5581 168.049 73.2721 169.741 72.7366 171.167L72.5581 171.702C71.9334 173.216 70.3269 173.84 68.8989 173.306Z" fill="#F7AA50"/>
<path d="M77.0204 176.424L76.128 176.068C74.7 175.533 73.986 173.84 74.5215 172.415L74.7 171.88C75.2355 170.454 76.9312 169.742 78.3592 170.276L79.2516 170.633C80.6796 171.167 81.3936 172.86 80.8581 174.286L80.6796 174.82C80.0549 176.246 78.4484 176.959 77.0204 176.424Z" fill="#F7AA50"/>
<path d="M56.2258 177.404L55.3333 177.048C53.9054 176.513 53.1914 174.82 53.7269 173.395L53.9054 172.86C54.4409 171.434 56.1366 170.721 57.5645 171.256L58.457 171.613C59.8849 172.147 60.5989 173.84 60.0634 175.266L59.8849 175.8C59.3495 177.226 57.6538 177.939 56.2258 177.404Z" fill="#F7AA50"/>
<path d="M65.2398 181.146L64.3473 180.79C62.9194 180.255 62.2054 178.562 62.7409 177.137L62.9194 176.602C63.4549 175.177 65.1506 174.464 66.5785 174.998L67.471 175.355C68.8989 175.889 69.6129 177.582 69.0774 179.008L68.8989 179.543C68.3635 180.968 66.6678 181.681 65.2398 181.146Z" fill="#F7AA50"/>
<path d="M74.2538 184.533L73.3613 184.176C71.9333 183.642 71.2193 181.949 71.7548 180.523L71.9333 179.988C72.4688 178.563 74.1645 177.85 75.5925 178.385L76.4849 178.741C77.9129 179.276 78.6269 180.969 78.0914 182.394L77.9129 182.929C77.3774 184.354 75.6817 185.067 74.2538 184.533Z" fill="#F7AA50"/>
<path d="M52.7452 185.156L51.8527 184.8C50.4247 184.265 49.7108 182.572 50.2463 181.147L50.4248 180.612C50.9602 179.186 52.6559 178.473 54.0839 179.008L54.9764 179.364C56.4043 179.899 57.1183 181.592 56.5828 183.018L56.4043 183.552C55.7796 185.067 54.1731 185.78 52.7452 185.156Z" fill="#F7AA50"/>
<path d="M61.2237 189.077L60.3312 188.72C58.9032 188.186 58.1893 186.493 58.7247 185.067L58.9032 184.532C59.4387 183.107 61.1344 182.394 62.5624 182.928L63.4549 183.285C64.8828 183.819 65.5968 185.512 65.0613 186.938L64.8828 187.473C64.2581 188.898 62.6516 189.611 61.2237 189.077Z" fill="#F7AA50"/>
<path d="M69.7022 192.195L68.8097 191.839C67.3817 191.304 66.6677 189.611 67.2032 188.186L67.3817 187.651C67.9172 186.225 69.6129 185.513 71.0409 186.047L71.9333 186.404C73.3613 186.938 74.0753 188.631 73.5398 190.057L73.3613 190.591C72.7366 192.017 71.1301 192.73 69.7022 192.195Z" fill="#F7AA50"/>
<path d="M49.5323 193.265L48.6398 192.908C47.2118 192.374 46.4979 190.681 47.0333 189.255L47.2118 188.72C47.7473 187.295 49.443 186.582 50.871 187.116L51.7634 187.473C53.1914 188.007 53.9054 189.7 53.3699 191.126L53.1914 191.661C52.6559 193.086 50.9602 193.799 49.5323 193.265Z" fill="#F7AA50"/>
<path d="M57.9215 196.383L57.029 196.027C55.6011 195.492 54.8871 193.799 55.4226 192.374L55.6011 191.839C56.1366 190.413 57.8323 189.701 59.2602 190.235L60.1527 190.592C61.5807 191.126 62.2946 192.819 61.7591 194.245L61.5807 194.779C60.9559 196.294 59.3495 197.007 57.9215 196.383Z" fill="#F7AA50"/>
<path d="M65.7753 200.215L64.8828 199.858C63.4549 199.324 62.7409 197.631 63.2764 196.205L63.4549 195.671C63.9903 194.245 65.686 193.532 67.114 194.067L68.0065 194.423C69.4344 194.958 70.1484 196.651 69.6129 198.076L69.4344 198.611C68.8097 200.037 67.2032 200.749 65.7753 200.215Z" fill="#F7AA50"/>
<path d="M135.656 209.393C143.599 211.442 147.347 210.819 147.347 210.819L145.83 232.114C145.83 232.114 128.427 232.916 111.47 228.104C94.5129 223.293 81.2151 212.69 81.2151 212.69C81.2151 212.69 80.5903 207.878 81.4828 201.908C86.5699 206.274 96.7441 213.581 109.596 215.274C122.447 216.967 131.372 212.422 135.656 209.393Z" fill="#EBB726"/>
<path d="M96.3871 181.503C96.3871 181.503 107.275 198.522 123.608 205.294C128.338 207.254 132.354 208.591 135.656 209.393C131.372 212.422 122.447 217.056 109.596 215.363C96.7441 213.67 86.5699 206.363 81.4828 201.997C81.929 199.324 82.643 196.295 83.8925 193.443C87.9978 183.998 96.3871 181.503 96.3871 181.503Z" fill="#FDDE5F"/>
<path d="M242.128 164.752L239.183 153.881L248.286 161.455L242.128 164.752Z" fill="#F7AA50"/>
<path d="M241.95 156.109C241.95 156.109 241.682 157.445 240.165 157.267L239.273 153.881L241.95 156.109Z" fill="#444444"/>
<path d="M263.101 195.136C263.101 195.136 264.35 198.522 266.225 198.789C268.099 199.057 270.866 196.562 270.33 194.602C269.795 192.641 268.367 191.839 268.367 191.839L263.101 195.136Z" fill="#F04E7D"/>
<path d="M259.085 189.879L262.655 196.205C262.655 196.205 264.797 196.74 266.671 195.314C268.545 193.888 269.081 191.661 269.081 191.661L264.975 185.691L259.085 189.879Z" fill="#444444"/>
<path d="M241.682 184.8L244.984 180.969C244.984 180.969 242.842 176.157 243.734 173.217C244.627 170.277 248.197 167.336 249.446 168.851C250.785 170.455 248.197 173.93 248.197 173.93L256.943 186.939C256.943 186.939 255.426 188.186 253.105 187.83C250.785 187.474 249.892 186.761 249.892 186.761L245.966 189.701L241.682 184.8Z" fill="#A07046"/>
<path d="M248.286 173.93L242.128 164.663C242.128 164.663 242.663 162.435 244.181 161.544C245.609 160.564 248.286 161.455 248.286 161.455L265.064 185.78C265.064 185.78 264.351 188.275 263.012 189.166C261.673 190.057 259.085 189.879 259.085 189.879L257.032 186.939L248.286 173.93Z" fill="#FDDE5F"/>
<path d="M251.053 171.434C252.124 172.86 255.158 171.702 255.158 171.702C255.158 171.702 252.391 174.197 253.998 176.068C255.604 177.939 258.103 176.068 258.103 176.068C258.103 176.068 255.158 178.652 257.121 180.701C259.085 182.75 264.261 179.186 262.566 174.82C260.87 170.454 256.407 166.623 253.373 167.425C250.428 168.138 250.339 170.365 251.053 171.434Z" fill="#A07046"/>
<path d="M198.486 209.393C190.543 211.442 186.795 210.819 186.795 210.819L188.312 232.114C188.312 232.114 205.715 232.916 222.672 228.104C239.629 223.293 252.927 212.69 252.927 212.69C252.927 212.69 253.552 207.878 252.659 201.908C247.572 206.274 237.398 213.581 224.546 215.274C211.695 216.967 202.77 212.422 198.486 209.393Z" fill="#EBB726"/>
<path d="M237.755 181.503C237.755 181.503 226.867 198.522 210.534 205.294C205.804 207.254 201.788 208.591 198.486 209.393C202.77 212.422 211.695 217.056 224.546 215.363C237.398 213.67 247.572 206.363 252.659 201.997C252.213 199.324 251.499 196.295 250.249 193.443C246.144 183.998 237.755 181.503 237.755 181.503Z" fill="#FDDE5F"/>
<path d="M166.714 232.114C166.714 232.114 172.872 226.5 177.602 220.085C180.726 215.808 182.868 212.066 183.849 210.105C181.707 209.66 178.584 208.947 175.639 208.323C170.284 207.254 158.503 208.412 158.503 208.412C158.503 208.412 154.219 209.214 151.096 209.838C152.345 213.848 156.807 225.342 166.714 232.114Z" fill="#EBB726"/>
<path d="M166.892 260.805C179.119 260.805 186.795 253.409 190.989 247.618C190.811 242.984 190.454 238.262 190.097 234.52C189.026 223.827 186.884 210.818 186.884 210.818C186.884 210.818 185.724 210.551 183.939 210.105C182.957 212.066 180.815 215.719 177.691 220.085C172.961 226.5 166.803 232.114 166.803 232.114C156.807 225.342 152.434 213.848 151.185 209.927C150.917 210.016 150.56 210.016 150.292 210.105C147.258 210.729 146.187 210.818 146.187 210.818C146.187 210.818 142.617 231.49 141.635 240.935C141.546 242.182 141.368 243.43 141.189 244.766C144.938 250.915 153.059 260.805 166.892 260.805Z" fill="#FDDE5F"/>
<path d="M166.892 260.805C153.059 260.805 144.938 250.915 141.189 244.767C140.297 253.499 139.226 263.211 139.226 263.211C139.226 263.211 151.274 272.21 166.089 272.21C180.904 272.21 191.525 263.835 191.525 263.835C191.525 263.835 191.346 255.994 190.989 247.529C186.795 253.41 179.03 260.805 166.892 260.805Z" fill="#EBB726"/>
<path d="M175.639 235.588C168.41 232.381 166 240.4 166 240.4C166 240.4 163.59 232.381 156.361 235.588C149.132 238.796 154.576 251.627 166 254.656C177.424 251.538 182.868 238.796 175.639 235.588Z" fill="#F04E7D"/>
<path d="M172.783 205.026C172.604 204.492 172.515 203.868 172.515 203.155C172.426 199.146 172.426 198.611 172.426 198.611L162.162 197.987C162.162 197.987 162.162 202.086 161.716 204.67C163.233 205.383 165.286 205.918 167.696 205.918C169.57 205.828 171.266 205.472 172.783 205.026Z" fill="#88552E"/>
<path d="M172.783 205.027C171.266 205.472 169.57 205.828 167.785 205.828C165.375 205.918 163.323 205.294 161.805 204.581C161.716 205.205 161.538 205.739 161.448 206.096C160.645 208.056 158.593 208.412 158.593 208.412C158.593 208.412 161.805 216.254 167.16 220.798C167.16 220.798 170.641 216.966 172.783 213.58C174.925 210.284 175.817 208.234 175.817 208.234C175.817 208.234 173.497 207.521 172.783 205.027Z" fill="#A07046"/>
<path d="M83.2678 146.842C89.3366 151.03 94.5129 145.327 94.5129 145.327C94.5129 145.327 94.6022 156.02 103.081 156.732C111.559 157.445 112.809 149.693 112.809 149.693C112.809 149.693 116.289 153.703 120.484 152.01C124.679 150.406 122.804 143.723 122.804 143.723C122.804 143.723 127.981 149.07 133.782 145.862C139.583 142.565 138.601 134.546 138.601 134.546C138.601 134.546 141.903 141.318 147.972 142.209C154.041 143.1 157.789 138.377 157.789 138.377C157.789 138.377 155.201 146.307 160.02 149.07C164.84 151.832 169.57 147.822 169.57 147.822C169.57 147.822 168.142 160.742 176.799 161.009C185.456 161.277 185.01 153.436 185.01 153.436C185.01 153.436 191.346 153.436 193.667 148.268C195.987 143.1 190.275 138.734 190.275 138.734C190.275 138.734 192.685 133.387 189.383 131.071C189.383 131.071 193.399 122.873 190.632 119.042C187.866 115.21 183.582 114.498 183.582 114.498C183.582 114.498 187.062 111.735 185.188 107.458C183.314 103.182 180.101 102.38 180.101 102.38C180.101 102.38 185.545 97.4789 183.939 92.0437C182.332 86.6084 175.639 85.0045 175.639 85.0045C175.639 85.0045 182.6 79.9256 178.405 73.0647C174.211 66.2038 168.231 68.8769 168.231 68.8769C168.231 68.8769 169.124 62.3724 161.805 59.432C154.487 56.4916 150.203 62.907 150.203 62.907C150.203 62.907 147.437 57.8281 138.423 57.8281C129.409 57.8281 126.731 66.2038 126.731 66.2038C126.731 66.2038 119.859 63.2634 113.88 67.8077C107.811 72.3519 112.63 81.7968 112.63 81.7968C112.63 81.7968 105.847 82.5096 104.419 89.4597C102.991 96.4988 109.149 100.865 109.149 100.865C109.149 100.865 103.616 100.865 99.957 103.983C96.2979 107.102 96.5656 112.359 96.5656 112.359C96.5656 112.359 90.0505 109.597 84.5172 115.3C78.8946 121.091 83.5355 132.675 83.5355 132.675C83.5355 132.675 77.1989 142.654 83.2678 146.842Z" fill="#444444"/>
<path d="M129.766 146.842C135.834 151.03 141.011 145.327 141.011 145.327C141.011 145.327 141.1 156.02 149.579 156.732C158.057 157.445 159.307 149.693 159.307 149.693C159.307 149.693 162.787 153.703 166.982 152.01C171.176 150.406 169.302 143.723 169.302 143.723C169.302 143.723 174.479 149.07 180.28 145.862C186.081 142.565 185.099 134.546 185.099 134.546C185.099 134.546 188.401 141.318 194.47 142.209C200.539 143.1 204.287 138.377 204.287 138.377C204.287 138.377 201.699 146.307 206.518 149.07C211.338 151.832 216.068 147.822 216.068 147.822C216.068 147.822 214.64 160.742 223.297 161.009C231.954 161.277 231.508 153.436 231.508 153.436C231.508 153.436 237.844 153.436 240.165 148.268C242.485 143.1 236.773 138.734 236.773 138.734C236.773 138.734 239.183 133.387 235.881 131.071C235.881 131.071 239.897 122.873 237.13 119.042C234.363 115.21 230.08 114.498 230.08 114.498C230.08 114.498 233.56 111.735 231.686 107.458C229.812 103.182 226.599 102.38 226.599 102.38C226.599 102.38 232.043 97.4789 230.437 92.0437C228.83 86.6084 222.137 85.0045 222.137 85.0045C222.137 85.0045 229.098 79.9256 224.903 73.0647C220.709 66.2038 214.729 68.8769 214.729 68.8769C214.729 68.8769 215.622 62.3724 208.303 59.432C200.985 56.4916 196.701 62.907 196.701 62.907C196.701 62.907 193.934 57.8281 184.92 57.8281C175.907 57.8281 173.229 66.2038 173.229 66.2038C173.229 66.2038 166.357 63.2634 160.377 67.8077C154.309 72.3519 159.128 81.7968 159.128 81.7968C159.128 81.7968 152.345 82.5096 150.917 89.4597C149.489 96.4988 155.647 100.865 155.647 100.865C155.647 100.865 150.114 100.865 146.455 103.983C142.796 107.102 143.064 112.359 143.064 112.359C143.064 112.359 136.548 109.597 131.015 115.3C125.393 121.091 130.033 132.675 130.033 132.675C130.033 132.675 123.697 142.654 129.766 146.842Z" fill="#444444"/>
<path d="M238.112 130.358C238.112 130.358 243.913 127.417 243.556 121.447C243.199 115.478 236.059 114.408 236.059 114.408C236.059 114.408 239.361 110.042 238.023 102.825C236.684 95.6076 231.061 94.6275 231.061 94.6275C231.061 94.6275 235.702 88.8358 231.061 81.1729C226.42 73.5101 218.924 75.5594 218.924 75.5594C222.315 77.8761 219.816 83.2223 219.816 83.2223C219.816 83.2223 225.528 87.6774 223.208 92.7563C220.887 97.9243 214.551 97.9243 214.551 97.9243C214.551 97.9243 214.997 105.765 206.34 105.498C197.683 105.231 199.111 92.3108 199.111 92.3108C199.111 92.3108 194.291 96.4095 189.561 93.5582C184.742 90.796 187.33 82.8659 187.33 82.8659C187.33 82.8659 183.582 87.6774 177.513 86.6973C171.444 85.8063 168.142 79.0344 168.142 79.0344C168.142 79.0344 169.213 87.0537 163.323 90.3505C157.522 93.6473 152.345 88.212 152.345 88.212C152.345 88.212 154.219 94.8948 150.025 96.4986C145.83 98.1025 142.349 94.1819 142.349 94.1819C142.349 94.1819 141.1 101.845 132.622 101.221C124.232 100.508 124.054 89.8159 124.054 89.8159C124.054 89.8159 118.877 95.5185 112.809 91.3306C106.74 87.1428 112.809 77.4306 112.809 77.4306C112.809 77.4306 104.33 76.0049 99.7785 82.4204C95.2269 88.9249 99.0645 95.3403 99.0645 95.3403C99.0645 95.3403 91.3893 94.9839 87.8194 104.607C84.3387 114.23 92.371 120.022 92.371 120.022C92.371 120.022 84.8742 123.853 85.8559 133.833C86.9269 143.812 96.7441 144.882 96.7441 144.882C96.7441 144.882 93.4419 150.762 96.7441 156.554C100.046 162.346 106.383 162.969 106.383 162.969C106.383 162.969 105.133 167.514 109.685 172.058C114.237 176.602 121.109 174.196 121.109 174.196C121.109 174.196 121.019 177.671 126.82 182.037C132.622 186.404 138.333 182.037 138.333 182.037C138.333 182.037 187.152 186.493 195.898 186.671C204.733 186.849 204.912 178.741 204.912 178.741C204.912 178.741 210.445 181.057 214.997 177.226C219.548 173.394 217.585 169.652 217.585 169.652C217.585 169.652 222.851 169.028 227.759 163.95C232.668 158.871 227.402 152.723 227.402 152.723C227.402 152.723 236.505 152.01 240.165 143.991C244.091 135.971 238.112 130.358 238.112 130.358Z" fill="#302E2E"/>
<path d="M141.992 132.764C141.992 132.764 153.059 124.388 168.32 124.388C183.582 124.388 192.149 132.14 192.149 132.14C192.149 132.14 188.133 115.923 167.963 115.923C147.794 115.923 141.992 132.764 141.992 132.764Z" fill="#F04E7D"/>
<path d="M137.352 148.089C137.352 148.089 126.642 145.149 122.537 152.811C118.431 160.474 125.036 170.365 133.782 168.85L137.352 148.089Z" fill="#744321"/>
<path d="M132.532 154.682C132.532 154.682 130.212 155.663 129.944 157.801C129.587 160.029 131.283 161.722 131.283 161.722C131.283 161.722 127.267 160.92 128.07 157.712C128.784 154.504 132.532 154.682 132.532 154.682Z" fill="#5E3315"/>
<path d="M195.63 149.871C195.63 149.871 206.34 146.93 210.445 154.593C214.551 162.256 207.946 172.147 199.2 170.632L195.63 149.871Z" fill="#744321"/>
<path d="M200.45 156.554C200.45 156.554 202.77 157.534 203.038 159.672C203.395 161.9 201.699 163.593 201.699 163.593C201.699 163.593 205.715 162.791 204.912 159.583C204.198 156.375 200.45 156.554 200.45 156.554Z" fill="#5E3315"/>
<path d="M143.242 153.346C147.526 151.831 148.954 148.089 148.954 148.089C148.954 148.089 151.72 149.871 154.219 148.98C156.629 148.178 156.986 145.327 156.986 145.327C156.986 145.327 158.949 148.98 161.984 148.98C165.018 148.98 166.178 145.327 166.178 145.327C166.178 145.327 166.892 148.802 169.927 148.802C172.961 148.802 174.121 144.792 174.121 144.792C174.121 144.792 174.835 148.535 178.941 149.337C183.046 150.138 184.296 147.822 184.296 147.822C184.296 147.822 184.92 152.99 191.882 154.861C194.827 155.663 197.058 155.752 198.664 155.663C198.129 151.564 197.594 148.891 197.594 148.891C192.863 148.713 190.186 140.604 190.186 140.604C190.186 140.604 188.401 144.079 184.117 143.634C179.833 143.188 178.762 138.11 178.762 138.11C178.762 138.11 177.959 141.139 173.675 141.317C169.391 141.495 168.231 137.308 168.231 137.308C168.231 137.308 167.071 140.159 163.501 140.694C159.931 141.228 158.771 137.308 158.771 137.308C158.771 137.308 157.878 140.961 154.576 142.03C151.363 143.099 147.794 140.07 147.794 140.07C147.794 140.07 148.151 144.525 144.491 147.02C140.832 149.426 137.262 147.911 137.262 147.911C136.727 149.782 136.191 151.742 135.745 153.703C137.887 154.148 140.743 154.237 143.242 153.346Z" fill="#88552E"/>
<path d="M191.971 155.039C184.92 153.168 184.385 148 184.385 148C184.385 148 183.135 150.316 179.03 149.514C174.925 148.713 174.211 144.97 174.211 144.97C174.211 144.97 173.051 148.98 170.016 148.98C166.982 148.98 166.268 145.505 166.268 145.505C166.268 145.505 165.108 149.158 162.073 149.158C159.039 149.158 157.075 145.505 157.075 145.505C157.075 145.505 156.718 148.267 154.309 149.158C151.899 149.96 149.043 148.267 149.043 148.267C149.043 148.267 147.615 152.009 143.331 153.524C140.832 154.415 137.976 154.237 135.924 153.97C131.997 171.256 133.514 188.898 142.439 193.175C167.339 205.026 185.724 198.432 194.827 188.631C201.163 181.77 200.092 165.286 198.843 155.93C197.147 155.93 194.916 155.752 191.971 155.039Z" fill="#A07046"/>
<path d="M164.304 173.661C164.304 173.661 165.554 171.701 167.785 171.701C170.016 171.701 171.355 173.661 171.355 173.661C171.355 173.661 171.444 169.652 167.874 169.652C164.126 169.652 164.304 173.661 164.304 173.661Z" fill="#88552E"/>
<path d="M144.581 179.542C147.932 179.542 150.65 177.986 150.65 176.067C150.65 174.148 147.932 172.592 144.581 172.592C141.229 172.592 138.512 174.148 138.512 176.067C138.512 177.986 141.229 179.542 144.581 179.542Z" fill="#F04E7D"/>
<path d="M171.176 185.423C171.266 184.978 171.266 184.532 171.266 184.087C171.266 181.146 169.748 178.83 167.963 178.83C166.179 178.83 164.661 181.235 164.661 184.087C164.661 184.532 164.661 184.978 164.751 185.334C165.643 184.532 166.714 184.087 167.963 184.087C169.213 184.087 170.284 184.621 171.176 185.423Z" fill="#444444"/>
<path d="M167.963 189.344C169.481 189.344 170.819 187.651 171.176 185.423C170.284 184.621 169.124 184.086 167.874 184.086C166.625 184.086 165.554 184.532 164.661 185.334C165.108 187.651 166.357 189.344 167.963 189.344Z" fill="#F04E7D"/>
<path d="M150.56 172.147C155.982 172.147 160.377 166.761 160.377 160.118C160.377 153.474 155.982 148.089 150.56 148.089C145.138 148.089 140.743 153.474 140.743 160.118C140.743 166.761 145.138 172.147 150.56 172.147Z" fill="white"/>
<path d="M143.688 151.475C143.688 151.475 140.565 165.286 150.65 165.286C160.734 165.286 157.789 151.92 157.789 151.92C157.789 151.92 155.558 148.089 150.56 148.089C145.562 148.089 143.688 151.475 143.688 151.475Z" fill="#444444"/>
<path d="M183.582 172.147C189.004 172.147 193.399 166.761 193.399 160.118C193.399 153.474 189.004 148.089 183.582 148.089C178.16 148.089 173.765 153.474 173.765 160.118C173.765 166.761 178.16 172.147 183.582 172.147Z" fill="white"/>
<path d="M176.71 151.475C176.71 151.475 173.586 165.286 183.671 165.286C193.756 165.286 190.811 151.92 190.811 151.92C190.811 151.92 188.58 148.089 183.582 148.089C178.584 148.089 176.71 151.475 176.71 151.475Z" fill="#444444"/>
<path d="M189.115 180.077C192.467 180.077 195.184 178.521 195.184 176.602C195.184 174.683 192.467 173.127 189.115 173.127C185.763 173.127 183.046 174.683 183.046 176.602C183.046 178.521 185.763 180.077 189.115 180.077Z" fill="#F04E7D"/>
<path d="M0 132.942V115.656L15.0828 124.299L30.0763 132.942L15.0828 141.674L0 150.317V132.942Z" fill="#00C7EA"/>
<path d="M346.637 290.119C352.65 290.119 357.525 285.253 357.525 279.249C357.525 273.245 352.65 268.378 346.637 268.378C340.623 268.378 335.748 273.245 335.748 279.249C335.748 285.253 340.623 290.119 346.637 290.119Z" stroke="#00C7EA" stroke-width="1.3237" stroke-miterlimit="10"/>
<path d="M411.787 102.736C408.217 99.528 398.846 100.954 394.384 100.954C394.295 100.954 394.295 100.954 394.205 100.954C394.027 98.637 393.759 96.3203 393.402 94.0037C392.867 90.2613 392.242 86.519 390.546 83.2222C390.189 82.4203 389.654 81.6183 388.94 81.1728C388.137 80.6382 387.155 80.6382 386.173 80.6382C381.711 80.6382 372.161 80.1036 368.77 83.8459C365.557 87.41 366.985 96.7659 366.985 101.221C366.985 101.934 366.985 102.736 367.074 103.449C362.076 104.34 357.168 105.32 352.259 106.656C350.474 107.102 348.6 107.726 347.618 109.24C346.815 110.399 346.726 111.913 346.637 113.339C346.547 117.705 347.172 122.695 350.742 125.279C352.705 126.704 355.115 127.061 357.525 127.417C361.541 127.952 365.468 128.308 369.484 128.576C370.376 133.565 371.358 138.466 372.697 143.367C373.143 145.149 373.768 147.02 375.285 148C376.445 148.802 377.962 148.891 379.39 148.98C383.763 149.069 388.761 148.446 391.349 144.881C392.777 142.921 393.134 140.515 393.491 138.11C393.938 134.813 394.295 131.516 394.562 128.219C396.972 128.041 399.292 127.774 401.702 127.417C405.451 126.883 409.199 126.259 412.501 124.566C413.304 124.21 414.107 123.675 414.554 122.962C415.089 122.16 415.089 121.18 415.089 120.2C415 115.656 415.535 106.033 411.787 102.736Z" fill="#71C1B2"/>
<path d="M414.465 122.873C414.554 122.695 414.643 122.517 414.732 122.338C412.769 122.16 410.805 121.982 408.842 121.804C397.151 120.824 385.37 121.18 373.857 118.953C364.932 117.26 356.008 113.695 349.314 107.726C348.689 108.082 348.154 108.528 347.708 109.151C346.904 110.31 346.815 111.824 346.726 113.25C346.637 117.616 347.261 122.606 350.831 125.19C352.795 126.615 355.204 126.972 357.614 127.328C361.63 127.863 365.557 128.219 369.573 128.487C370.466 133.476 371.447 138.377 372.786 143.278C373.232 145.06 373.857 146.931 375.374 147.911C376.534 148.713 378.052 148.802 379.48 148.891C383.853 148.98 388.851 148.357 391.439 144.792C392.867 142.832 393.224 140.426 393.581 138.021C394.027 134.724 394.384 131.427 394.652 128.13C397.061 127.952 399.382 127.685 401.791 127.328C405.54 126.794 409.288 126.17 412.59 124.477C413.215 124.121 414.018 123.586 414.465 122.873Z" fill="#38A087"/>
<path d="M278.452 24.8601C279.433 24.4146 280.326 23.7908 281.308 24.0581C283.092 24.5928 282.468 27.4441 281.04 28.7806C279.701 30.1171 277.827 31.721 278.452 33.5031C279.344 35.9088 283.003 34.8396 285.413 35.5524C288.626 36.5326 289.34 41.1659 287.823 44.1954C286.305 47.2249 283.449 49.3634 281.218 51.8583C278.987 54.4423 277.381 58.1846 279.076 61.2141C280.415 63.5308 283.36 64.5109 286.127 64.5109C290.054 64.5109 293.802 62.907 297.194 61.0359C301.834 58.6301 306.386 55.5115 308.796 50.8781C311.116 46.3339 310.848 40.5422 308.082 36.1761C305.315 31.8992 300.228 29.137 295.052 29.3152C297.461 26.2857 299.068 22.6325 299.603 18.712C299.871 16.4844 299.782 14.1677 298.711 12.2966C297.551 10.3363 295.409 9.08885 293.267 8.37603C286.573 6.05935 279.88 8.73244 274.614 13.0094C272.294 14.7914 269.884 17.91 270.687 21.0286C271.58 24.2364 275.506 26.1075 278.452 24.8601Z" fill="#71C1B2"/>
<path d="M290.232 52.4817C290.946 50.3432 292.731 48.7394 293.891 46.8682C295.944 43.5714 296.123 39.1163 294.248 35.6412C292.374 32.1662 288.626 29.8496 284.699 29.7605C287.019 26.0181 287.644 21.2066 286.216 17.1078C283.628 16.3059 280.861 17.9098 278.719 19.5136C276.577 21.1175 274.257 22.8995 271.669 22.9886C273.186 24.9489 276.131 25.929 278.452 24.8598C279.433 24.4143 280.326 23.7906 281.308 24.0579C283.093 24.5925 282.468 27.4438 281.04 28.7803C279.701 30.1169 277.827 31.7207 278.452 33.5028C279.344 35.9086 283.003 34.8393 285.413 35.5521C288.626 36.5323 289.34 41.1656 287.823 44.1951C286.305 47.2246 283.449 49.3631 281.218 51.858C278.987 54.442 277.381 58.1843 279.076 61.2138C280.415 63.5305 283.36 64.5106 286.127 64.5106C289.429 64.5106 292.553 63.3523 295.498 61.9266C291.839 60.2337 288.983 56.224 290.232 52.4817Z" fill="#38A087"/>
<path d="M27.2204 2.406C31.1473 0.26753 36.1452 -0.890808 38.1978 0.713045C40.1613 2.406 48.729 46.0664 47.7473 48.7395C46.7656 51.4126 41.143 51.0562 37.4839 51.0562C33.8247 51.0562 30.5226 21.9195 28.8269 21.6522C28.3806 21.5631 27.6667 21.6522 26.7742 21.9195C23.5613 22.7215 20.6161 20.1375 21.0624 16.8407C21.7763 11.4054 23.3828 4.54447 27.2204 2.406Z" fill="#EB4523"/>
<path d="M38.4656 38.4927C36.4129 32.5228 36.3237 26.0183 34.8957 19.8702C34.7172 18.9792 34.4495 18.0882 33.8247 17.5535C32.3968 16.217 30.0763 17.1971 28.2022 16.7516C25.3462 16.0388 24.4538 12.2965 25.0785 9.44516C25.5247 7.12849 26.5957 4.90091 27.0419 2.67334C23.3828 4.90091 21.8656 11.5836 21.1516 16.8407C20.7054 20.0484 23.7398 22.6324 26.8634 21.9196C27.7559 21.7414 28.4699 21.5632 28.9161 21.6523C30.6118 22.0087 33.914 51.0562 37.5731 51.0562C40.3398 51.0562 44.2667 51.2344 46.4086 50.1652C42.8387 46.9575 40.072 42.9479 38.4656 38.4927Z" fill="#BD361B"/>
<path d="M305.404 204.848C304.958 203.69 304.78 202.353 305.047 201.284C306.029 195.938 311.83 193.265 316.56 191.839C328.787 188.186 333.249 199.68 330.126 209.838C327.002 219.996 321.826 221.778 322.272 223.916C322.807 225.965 331.911 222.312 333.963 224.183C338.515 228.193 334.588 235.767 329.947 237.638C324.86 239.598 317.631 238.885 313.347 235.41C309.42 232.203 312.901 224.54 314.329 220.887C315.846 216.966 323.254 207.076 319.416 202.888C318.434 201.819 316.649 201.908 315.489 202.62C313.258 203.957 312.455 207.165 309.777 207.788C307.635 208.234 306.208 206.719 305.404 204.848Z" fill="#FDC515"/>
<path d="M322.004 230.688C320.309 230.688 318.345 230.509 317.453 229.084C317.006 228.371 317.006 227.48 317.096 226.589C317.81 221.154 323.075 217.322 324.682 212.065C325.753 208.679 325.039 204.67 322.629 202.086C320.219 199.502 316.025 198.521 312.901 200.214C311.384 201.016 310.134 202.264 308.796 203.333C307.814 204.046 306.565 204.67 305.404 204.759V204.848C306.118 206.719 307.635 208.234 309.777 207.699C312.455 207.075 313.169 203.778 315.489 202.531C316.739 201.818 318.524 201.818 319.416 202.798C323.343 206.986 315.935 216.788 314.329 220.797C312.901 224.45 309.42 232.113 313.347 235.321C317.631 238.796 324.949 239.509 329.947 237.549C332.982 236.39 335.748 232.559 335.927 229.084C331.375 230.064 326.734 230.598 322.004 230.688Z" fill="#F7A120"/>
</g>
<defs>
<clipPath id="clip0">
<rect width="415" height="296" fill="white"/>
</clipPath>
</defs>
</svg>
