<svg width="367" height="416" viewBox="0 0 367 416" fill="none" xmlns="http://www.w3.org/2000/svg">
<path d="M3.63748 130.011C2.89137 130.011 2.51831 129.545 2.51831 128.706V102.126C2.51831 101.193 2.89137 100.82 3.73074 100.82H13.4302C21.5442 100.82 24.4354 104.457 24.4354 108.188V122.737C24.4354 126.467 21.5442 130.105 13.4302 130.105H3.63748V130.011ZM9.69965 106.602V124.229H13.5235C15.6686 124.229 17.4406 123.39 17.4406 121.431V109.4C17.4406 107.442 15.6686 106.602 13.5235 106.602H9.69965Z" fill="#005690"/>
<path d="M27.8865 114.903C27.8865 110.799 31.244 108.188 37.6792 108.188C44.1144 108.188 47.4719 110.799 47.4719 114.903V123.669C47.4719 127.773 44.1144 130.384 37.6792 130.384C31.244 130.384 27.8865 127.773 27.8865 123.669V114.903ZM40.6637 115.462C40.6637 114.063 39.4512 113.597 37.6792 113.597C35.9072 113.597 34.6948 114.063 34.6948 115.462V123.016C34.6948 124.509 35.9072 124.975 37.6792 124.975C39.4512 124.975 40.6637 124.509 40.6637 123.016V115.462Z" fill="#005690"/>
<path d="M65.938 117.607C66.3111 118.913 66.5909 120.312 66.6842 121.804C67.0572 120.125 67.5235 118.54 67.7101 117.887L70.4147 109.866C70.6945 109.027 70.9743 108.561 71.8137 108.561H75.824C76.7567 108.561 77.4095 109.027 77.0365 109.866L67.7101 137.286C67.5235 137.939 67.1505 138.592 66.3111 138.592H63.1401C62.2075 138.592 61.6479 138.125 61.9277 137.286L63.793 130.757L56.5184 109.866C56.2386 109.027 56.8914 108.561 57.7308 108.561H62.1142C63.0469 108.561 63.2334 109.12 63.5132 109.866L65.938 117.607Z" fill="#005690"/>
<path d="M78.7153 114.903C78.7153 110.799 82.0728 108.188 88.5081 108.188C95.0366 108.188 98.3008 110.799 98.3008 114.903V123.669C98.3008 127.773 94.9433 130.384 88.5081 130.384C81.9796 130.384 78.7153 127.773 78.7153 123.669V114.903ZM91.4925 115.462C91.4925 114.063 90.2801 113.597 88.5081 113.597C86.736 113.597 85.5236 114.063 85.5236 115.462V123.016C85.5236 124.509 86.736 124.975 88.5081 124.975C90.2801 124.975 91.4925 124.509 91.4925 123.016V115.462Z" fill="#005690"/>
<path d="M114.342 128.053C113.223 128.985 111.264 130.291 107.907 130.291C103.99 130.291 101.565 127.773 101.565 124.322V109.773C101.565 108.84 101.938 108.467 102.777 108.467H107.068C108 108.467 108.373 108.84 108.373 109.773V122.55C108.373 123.856 108.653 124.415 109.959 124.415C111.544 124.415 113.223 123.39 113.969 122.737V109.773C113.969 108.84 114.249 108.467 115.182 108.467H119.565C120.498 108.467 120.777 108.84 120.777 109.773V128.706C120.777 129.638 120.404 129.918 119.565 129.918H115.648C114.715 129.918 114.529 129.545 114.435 128.706L114.342 128.053Z" fill="#005690"/>
<path d="M142.695 114.25C142.695 113.13 141.575 112.851 140.363 112.851C139.151 112.851 138.031 113.037 138.031 114.25V114.716C138.031 115.369 138.498 115.742 138.964 115.835L144.933 117.7C147.824 118.633 149.223 120.312 149.223 122.364V124.509C149.223 127.307 146.705 130.384 140.177 130.384C133.648 130.384 131.223 127.4 131.223 124.509V123.576C131.223 122.737 131.503 122.457 132.342 122.457H136.259C137.099 122.457 137.379 122.83 137.379 123.576V124.136C137.379 125.255 138.778 125.535 140.083 125.535C141.389 125.535 142.788 125.348 142.788 124.136V123.669C142.788 123.11 142.415 122.737 141.109 122.364L135.047 120.312C133.461 119.752 131.689 117.7 131.689 115.649V114.25C131.689 111.452 133.741 108.188 140.27 108.188C146.798 108.188 148.85 111.452 148.85 114.25V114.809C148.85 115.649 148.57 116.022 147.638 116.022H143.721C142.881 116.022 142.601 115.649 142.601 114.809V114.25H142.695Z" fill="#005690"/>
<path d="M157.617 108.561C158.549 108.561 158.736 108.934 158.829 109.866L158.922 110.612C160.135 109.68 162.187 108.281 165.544 108.281C169.927 108.281 171.886 110.799 171.886 114.903V123.856C171.886 127.959 169.834 130.478 165.544 130.478C162.28 130.478 160.321 129.172 159.109 128.333V137.472C159.109 138.405 158.829 138.778 157.896 138.778H153.513C152.58 138.778 152.301 138.405 152.301 137.472V110.053C152.301 109.12 152.674 108.747 153.513 108.747H157.617V108.561ZM164.984 115.835C164.984 114.996 164.984 114.063 163.306 114.063C161.627 114.063 159.948 115.182 159.016 115.835V122.737C159.855 123.39 161.627 124.509 163.306 124.509C164.984 124.509 164.984 123.576 164.984 122.737V115.835Z" fill="#005690"/>
<path d="M193.337 119.659C193.337 120.498 192.964 120.778 192.218 120.778H181.772V123.39C181.772 124.695 182.518 125.255 184.384 125.255C186.249 125.255 186.995 124.695 186.995 123.39C186.995 122.457 187.368 122.177 188.207 122.177H191.938C192.871 122.177 193.15 122.55 193.15 123.39V123.669C193.15 127.773 190.819 130.384 184.384 130.384C177.948 130.384 175.15 127.773 175.15 123.669V114.903C175.15 110.799 177.948 108.188 184.384 108.188C190.819 108.188 193.43 110.799 193.43 114.903V119.659H193.337ZM181.772 116.395H186.995V115.182C186.995 113.877 186.156 113.224 184.384 113.224C182.612 113.224 181.772 113.877 181.772 115.182V116.395Z" fill="#005690"/>
<path d="M196.694 114.623C196.694 110.519 199.492 108.094 205.834 108.094C212.363 108.094 214.881 110.519 214.881 114.623V128.706C214.881 129.638 214.508 130.011 213.668 130.011H209.751C208.819 130.011 208.632 129.638 208.539 128.706L208.446 128.053C207.233 129.079 205.181 130.291 202.477 130.291C198.187 130.291 196.135 127.586 196.135 124.789V122.923C196.135 120.032 198.56 117.421 203.036 117.421H208.259V115.089C208.259 113.783 207.606 113.131 205.834 113.131C204.062 113.131 203.223 113.597 203.223 114.903V115.182C203.223 116.115 202.85 116.395 202.01 116.395H198.093C197.161 116.395 196.881 116.022 196.881 115.182V114.623H196.694ZM208.166 123.39V121.991H204.249C203.036 121.991 202.757 122.643 202.757 123.296V123.856C202.757 124.882 203.596 124.975 204.249 124.975C205.648 124.975 207.14 124.136 208.166 123.39Z" fill="#005690"/>
<path d="M238.291 128.706C238.664 129.359 238.57 130.012 237.638 130.012H232.228C231.296 130.012 230.736 129.359 230.456 128.706L225.98 120.592H225.42V128.706C225.42 129.638 225.14 130.012 224.208 130.012H219.824C218.892 130.012 218.612 129.638 218.612 128.706V101.286C218.612 100.354 218.985 99.9805 219.824 99.9805H224.208C225.14 99.9805 225.42 100.354 225.42 101.286V115.462H226.073L230.456 109.866C231.016 109.214 231.576 108.561 232.508 108.561H237.358C238.291 108.561 238.477 109.214 237.918 109.866L231.576 117.607L238.291 128.706Z" fill="#005690"/>
<path d="M3.82376 181.307C2.89112 181.307 2.61133 180.934 2.61133 180.001V153.421C2.61133 152.488 2.98438 152.115 3.82376 152.115H18.4662C19.3989 152.115 19.7719 152.395 19.7719 153.328V156.685C19.7719 157.618 19.3989 157.898 18.4662 157.898H9.60614V163.493H17.7201C18.6528 163.493 19.0258 163.773 19.0258 164.706V167.877C19.0258 168.81 18.6528 169.089 17.7201 169.089H9.60614V175.525H18.8393C19.7719 175.525 20.145 175.804 20.145 176.737V180.094C20.145 181.027 19.7719 181.307 18.8393 181.307H3.82376Z" fill="#E52550"/>
<path d="M28.725 159.763C29.6576 159.763 29.8442 160.136 29.9374 160.975L30.0307 161.721C31.2431 160.695 33.2949 159.39 36.6524 159.39C40.5695 159.39 42.9944 161.908 42.9944 165.359V180.001C42.9944 180.934 42.6213 181.307 41.782 181.307H37.4918C36.5592 181.307 36.1861 180.934 36.1861 180.001V167.224C36.1861 165.918 35.9063 165.359 34.5074 165.359C32.8286 165.359 31.0566 166.478 30.2172 167.037V180.001C30.2172 180.934 29.9374 181.307 29.0048 181.307H24.6214C23.6887 181.307 23.4089 180.934 23.4089 180.001V161.068C23.4089 160.136 23.782 159.856 24.6214 159.856H28.725V159.763Z" fill="#E52550"/>
<path d="M46.4458 174.965V166.011C46.4458 161.908 48.4976 159.39 52.7878 159.39C56.1453 159.39 58.1971 160.882 59.4095 161.815L59.5028 161.068C59.596 160.136 59.7826 159.763 60.7152 159.763H64.8188C65.7515 159.763 66.0313 160.136 66.0313 161.068V183.079C66.0313 187.182 62.767 189.794 56.2385 189.794H50.0831C49.1505 189.794 48.7774 189.421 48.7774 188.581V185.504C48.7774 184.571 49.1505 184.198 50.0831 184.198H56.2385C58.0106 184.198 59.1297 183.732 59.1297 182.333V179.441C57.9173 180.374 55.8655 181.587 52.6945 181.587C48.4976 181.587 46.4458 179.068 46.4458 174.965ZM53.3473 173.939C53.3473 174.778 53.3473 175.711 55.0261 175.711C56.6116 175.711 58.3836 174.592 59.3163 173.939V167.037C58.3836 166.384 56.7049 165.265 55.0261 165.265C53.3473 165.265 53.3473 166.198 53.3473 167.037V173.939Z" fill="#E52550"/>
<path d="M76.7565 180.001C76.7565 180.934 76.4767 181.307 75.5441 181.307H71.1607C70.228 181.307 69.9482 180.934 69.9482 180.001V152.582C69.9482 151.649 70.3213 151.276 71.1607 151.276H75.5441C76.4767 151.276 76.7565 151.649 76.7565 152.582V180.001Z" fill="#E52550"/>
<path d="M87.3884 156.126C87.3884 157.058 87.1086 157.338 86.1759 157.338H81.7925C80.8599 157.338 80.5801 156.965 80.5801 156.126V152.582C80.5801 151.649 80.9531 151.276 81.7925 151.276H86.1759C87.1086 151.276 87.3884 151.649 87.3884 152.582V156.126ZM87.3884 180.001C87.3884 180.934 87.1086 181.307 86.1759 181.307H81.7925C80.8599 181.307 80.5801 180.934 80.5801 180.001V161.069C80.5801 160.136 80.9531 159.763 81.7925 159.763H86.1759C87.1086 159.763 87.3884 160.136 87.3884 161.069V180.001Z" fill="#E52550"/>
<path d="M101.751 165.545C101.751 164.426 100.632 164.146 99.4194 164.146C98.207 164.146 97.0878 164.333 97.0878 165.545V166.011C97.0878 166.664 97.5541 167.037 98.0205 167.131L103.989 168.996C106.881 169.928 108.28 171.607 108.28 173.659V175.804C108.28 178.602 105.761 181.68 99.2329 181.68C92.7044 181.68 90.2795 178.695 90.2795 175.804V174.871C90.2795 174.032 90.5593 173.752 91.3987 173.752H95.3158C96.1552 173.752 96.435 174.125 96.435 174.871V175.431C96.435 176.55 97.8339 176.83 99.1396 176.83C100.445 176.83 101.844 176.644 101.844 175.431V174.965C101.844 174.405 101.471 174.032 100.166 173.659L94.1966 171.607C92.6111 171.048 90.8391 168.996 90.8391 166.944V165.545C90.8391 162.747 92.8909 159.483 99.4194 159.483C105.948 159.483 108 162.747 108 165.545V166.105C108 166.944 107.72 167.317 106.787 167.317H102.87C102.031 167.317 101.751 166.944 101.751 166.105V165.545Z" fill="#E52550"/>
<path d="M118.166 161.628C119.378 160.696 121.43 159.483 124.694 159.483C128.612 159.483 131.036 162.001 131.036 165.452V180.001C131.036 180.934 130.663 181.307 129.824 181.307H125.441C124.508 181.307 124.135 180.934 124.135 180.001V167.224C124.135 165.918 123.855 165.359 122.549 165.359C120.871 165.359 119.099 166.478 118.259 167.038V180.001C118.259 180.934 117.979 181.307 117.047 181.307H112.663C111.731 181.307 111.451 180.934 111.451 180.001V152.582C111.451 151.649 111.824 151.276 112.663 151.276H117.047C117.979 151.276 118.259 151.649 118.259 152.582V161.628H118.166Z" fill="#E52550"/>
<path d="M138.964 169.089C138.964 166.758 140.083 166.012 141.575 165.265L145.959 163.027C146.611 162.654 147.358 162.188 147.358 160.789V160.229C147.358 158.271 145.865 157.431 143.907 157.431C141.948 157.431 140.456 158.271 140.456 160.229V161.815C140.456 162.747 140.176 163.12 139.244 163.12H134.86C133.928 163.12 133.648 162.747 133.648 161.815V159.11C133.648 155.379 136.259 151.742 143.907 151.742C151.648 151.742 154.352 155.379 154.352 159.11V160.602C154.352 164.986 152.114 166.851 150.155 167.69L147.637 168.81C146.332 169.369 146.052 169.742 146.052 170.955V171.887C146.052 172.82 145.772 173.1 144.839 173.1H140.176C139.244 173.1 138.964 172.727 138.964 171.887V169.089ZM146.052 180.001C146.052 180.934 145.772 181.214 144.839 181.214H140.176C139.244 181.214 138.964 180.841 138.964 180.001V176.457C138.964 175.525 139.337 175.151 140.176 175.151H144.839C145.772 175.151 146.052 175.525 146.052 176.457V180.001Z" fill="#E52550"/>
<path d="M108.559 35.162C107.347 35.162 106.414 36.0947 106.414 37.3071V45.048C106.414 49.4315 102.777 53.0688 98.3937 53.0688H86.0828C85.5232 53.0688 84.9636 53.2553 84.5906 53.7216L69.6683 68.6439V55.2138C69.6683 54.0014 68.7357 53.0688 67.5232 53.0688H36.4663C32.0829 53.0688 28.4456 49.4315 28.4456 45.048V12.3123C28.4456 7.92892 32.0829 4.29162 36.4663 4.29162H98.3937C102.777 4.29162 106.414 7.92892 106.414 12.3123V20.0533C106.414 21.2657 107.347 22.1983 108.559 22.1983C109.772 22.1983 110.705 21.2657 110.705 20.0533V12.3123C110.705 5.50405 105.202 0.00146484 98.3937 0.00146484H36.4663C29.658 0.00146484 24.1554 5.50405 24.1554 12.3123V40.105H8.39377C3.82383 40.105 0 43.8356 0 48.4988V68.4573C0 73.0273 3.73057 76.8511 8.39377 76.8511H15.0155L25.7409 87.5765C26.114 87.9495 26.6735 88.2293 27.2331 88.2293C27.5129 88.2293 27.7927 88.1361 28.0725 88.0428C28.9119 87.6698 29.3782 86.9236 29.3782 86.0843V76.8511H46.0725C50.6424 76.8511 54.4663 73.1205 54.4663 68.4573V57.4522H65.2849V73.9599C65.2849 74.7993 65.8445 75.6387 66.5906 75.9185C66.8704 76.0117 67.1502 76.105 67.43 76.105C67.9896 76.105 68.5491 75.9185 68.9222 75.4521L86.9222 57.4522H98.3937C105.202 57.4522 110.705 51.9496 110.705 45.1413V37.4004C110.705 36.1879 109.772 35.162 108.559 35.162ZM50.1761 68.4573C50.1761 70.6957 48.4041 72.4677 46.1657 72.4677H27.2331C26.0207 72.4677 25.0881 73.4003 25.0881 74.6128V80.7682L17.4404 73.1205C17.0673 72.7475 16.5078 72.4677 15.9482 72.4677H8.39377C6.15543 72.4677 4.38341 70.6957 4.38341 68.4573V48.4988C4.38341 46.2605 6.15543 44.4885 8.39377 44.4885H24.1554V45.048C24.1554 51.8563 29.658 57.3589 36.4663 57.3589H50.1761V68.4573Z" fill="#005690"/>
<path d="M88.5073 14.1777H46.3519C45.1394 14.1777 44.2068 15.1104 44.2068 16.3228C44.2068 17.5352 45.1394 18.4679 46.3519 18.4679H88.5073C89.7197 18.4679 90.6523 17.5352 90.6523 16.3228C90.6523 15.1104 89.7197 14.1777 88.5073 14.1777Z" fill="#005690"/>
<path d="M90.6523 27.9805C90.6523 26.7681 89.7197 25.8354 88.5073 25.8354H46.3519C45.1394 25.8354 44.2068 26.7681 44.2068 27.9805C44.2068 29.193 45.1394 30.1256 46.3519 30.1256H88.5073C89.7197 30.2189 90.6523 29.193 90.6523 27.9805Z" fill="#005690"/>
<path d="M46.3519 37.4937C45.1394 37.4937 44.2068 38.4263 44.2068 39.6387C44.2068 40.8512 45.1394 41.7838 46.3519 41.7838H70.6938C71.9062 41.7838 72.8389 40.8512 72.8389 39.6387C72.8389 38.4263 71.9062 37.4937 70.6938 37.4937H46.3519Z" fill="#005690"/>
<path d="M108.56 26.5815C107.347 26.5815 106.415 27.5142 106.415 28.7266C106.415 29.9391 107.347 30.8717 108.56 30.8717C109.772 30.8717 110.705 29.9391 110.705 28.7266C110.705 27.5142 109.772 26.5815 108.56 26.5815Z" fill="#005690"/>
<path d="M50.1761 57.4521V68.4573C50.1761 70.6956 48.4041 72.4676 46.1657 72.4676H27.2331C26.0207 72.4676 25.0881 73.4003 25.0881 74.6127V80.7681L17.4404 73.1205C17.0673 72.7474 16.5078 72.4676 15.9482 72.4676H8.39377C6.15543 72.4676 4.38341 70.6956 4.38341 68.4573V48.4988C4.38341 46.2604 6.15543 44.4884 8.39377 44.4884H24.1554V40.105H8.39377C3.82383 40.105 0 43.8355 0 48.4988V68.4573C0 73.0272 3.73057 76.8511 8.39377 76.8511H15.0155L25.7409 87.5764C26.114 87.9495 26.6735 88.2293 27.2331 88.2293C27.5129 88.2293 27.7927 88.136 28.0725 88.0427C28.9119 87.6697 29.3782 86.9236 29.3782 86.0842V76.8511H46.0725C50.6424 76.8511 54.4663 73.1205 54.4663 68.4573V57.4521H50.1761Z" fill="#E52550"/>
<path d="M143.067 275.224C150.622 282.125 158.456 276.903 160.228 269.068C162 261.234 163.305 239.037 163.305 239.037C160.881 230.643 147.73 223.369 144.186 232.602C139.243 226.074 123.109 229.711 129.078 246.032C122.363 242.395 119.285 250.322 124.881 252.561C117.513 253.68 106.508 274.198 121.71 270.654C121.337 277.089 130.476 279.7 133.274 273.918C135.326 279.887 142.601 281.379 143.067 275.224Z" fill="#381A07"/>
<path d="M161.347 239.131C157.896 237.732 154.632 238.105 152.3 243.234C149.129 250.322 147.078 263.193 149.969 271.213C151.741 276.25 155.844 275.504 155.844 275.504L161.347 239.131Z" fill="#A3134D"/>
<path d="M240.435 240.903C242.58 232.416 255.45 224.768 259.367 233.815C266.269 224.861 267.668 235.96 265.243 239.597C284.175 234.281 296.486 254.333 283.989 259.369C291.823 271.493 280.258 275.131 274.103 268.882C272.797 277.742 264.59 282.778 261.885 276.436C254.517 283.618 246.59 278.581 244.538 270.84C242.486 263.1 240.435 240.903 240.435 240.903Z" fill="#381A07"/>
<path d="M242.394 240.902C245.751 239.41 249.109 239.69 251.533 244.726C254.984 251.628 257.409 264.498 254.798 272.612C253.119 277.742 249.109 277.182 249.109 277.182L242.394 240.902Z" fill="#A3134D"/>
<path d="M182.705 342.094C182.705 342.094 189.7 335.1 203.13 335.1C216.56 335.1 223.181 338.644 225.886 341.442C227.565 348.53 235.399 387.607 238.01 404.675C238.01 404.675 210.591 418.384 168.062 397.12C168.156 397.027 179.161 356.55 182.705 342.094Z" fill="#A3134D"/>
<path d="M273.73 316.82C271.212 314.395 266.083 324.374 266.083 324.374C266.083 324.374 270.466 314.301 267.109 313.835C263.751 313.369 263.005 322.229 261.979 323.814C260.953 325.493 259.741 325.866 258.808 323.255C257.782 320.643 256.85 320.643 256.197 321.11C255.544 321.576 255.451 323.348 256.477 325.493C257.502 327.452 258.528 330.343 258.342 332.488C256.756 337.524 254.145 342.001 248.922 344.053C244.259 345.918 236.798 346.011 225.047 340.975C224.207 350.488 227.192 353.566 227.192 353.566C238.29 358.415 250.601 357.856 258.808 350.954C262.445 347.97 266.736 340.695 267.855 334.447C271.679 332.115 278.207 327.358 276.901 324.654C275.409 321.576 270.653 326.519 270.653 326.519C270.653 326.519 276.622 319.618 273.73 316.82Z" fill="#FFBD8B"/>
<path d="M183.824 341.255C177.295 342.001 153.047 375.949 147.078 389.939C142.135 401.41 142.228 405.327 146.984 403.649C151.741 401.97 153.326 398.239 153.326 398.239C153.326 398.239 169.181 375.669 180 360.001C184.197 354.032 186.902 341.255 183.824 341.255Z" fill="#FFBD8B"/>
<path d="M211.243 327.638L210.87 315.328L195.575 316.167L195.855 324.561C195.855 324.561 196.228 332.768 196.414 338.364C196.601 343.96 211.803 340.882 211.709 337.524C211.523 334.26 211.243 327.638 211.243 327.638Z" fill="#FFBD8B"/>
<path d="M211.243 317.379L195.388 317.659L196.134 331.929C196.134 331.929 198.932 332.861 204.341 332.955C209.751 333.048 211.336 331.276 211.336 331.276L211.243 317.379Z" fill="#AA6243"/>
<path d="M180.653 295.089C182.984 300.965 182.984 305.441 179.254 307.213C175.43 308.986 167.13 306.84 164.798 300.965C162.466 295.089 163.586 288.934 167.409 287.162C171.14 285.483 178.321 289.214 180.653 295.089Z" fill="#FFBD8B"/>
<path d="M195.854 317.006C196.321 316.82 196.787 316.727 197.347 316.54C197.253 316.074 197.16 315.794 197.16 315.607L195.854 317.006Z" fill="white"/>
<path d="M171.326 302.177C174.684 322.229 188.3 328.944 208.632 327.825C229.989 326.706 240.901 314.954 240.435 282.125C240.062 258.623 227.751 240.25 205.554 240.903C171.419 241.929 164.145 259.835 171.326 302.177Z" fill="#FFBD8B"/>
<path d="M229.616 292.478C227.378 298.353 227.378 302.923 231.295 304.602C235.119 306.281 243.419 304.043 245.658 298.167C247.896 292.291 246.59 286.136 242.766 284.457C238.943 282.685 231.948 286.602 229.616 292.478Z" fill="#FFBD8B"/>
<path d="M202.01 293.224C204.808 292.664 207.14 293.037 207.699 295.089C208.259 297.141 205.461 298.447 203.129 298.82C200.798 299.193 199.772 293.69 202.01 293.224Z" fill="url(#paint0_linear)"/>
<path d="M200.704 293.69C201.73 293.224 202.943 292.944 204.062 292.944C205.274 292.944 206.487 293.224 207.419 294.156C207.886 294.623 208.072 295.462 207.886 296.022C207.699 296.674 207.233 297.141 206.767 297.514C205.834 298.26 204.715 298.726 203.596 299.006C204.621 298.446 205.554 297.887 206.393 297.141C207.233 296.395 207.606 295.275 206.86 294.529C206.207 293.783 205.088 293.503 203.969 293.41C203.036 293.317 201.917 293.503 200.704 293.69Z" fill="#A56052"/>
<path d="M194.549 307.68C194.362 308.519 194.642 309.358 195.015 310.198C195.388 310.944 195.855 311.69 196.321 312.343C197.44 313.649 198.746 314.581 200.331 315.048C201.917 315.514 203.596 315.514 205.274 315.141C206.953 314.768 208.539 314.115 210.217 313.369C208.912 314.581 207.326 315.514 205.554 316.167C204.715 316.447 203.782 316.633 202.849 316.726C201.917 316.726 200.984 316.633 200.051 316.353C198.186 315.794 196.601 314.488 195.575 312.902C195.015 312.156 194.642 311.224 194.456 310.384C194.362 309.918 194.269 309.452 194.269 308.985C194.176 308.519 194.269 307.959 194.549 307.68Z" fill="#A56052"/>
<path d="M192.404 292.105C192.218 293.037 191.285 293.597 190.353 293.41C189.42 293.224 188.86 292.291 189.047 291.359C189.233 290.426 190.166 289.866 191.099 290.053C192.031 290.239 192.591 291.172 192.404 292.105Z" fill="#64361A"/>
<path d="M196.601 274.758C196.414 272.799 177.202 277.276 177.015 279.421C176.829 281.752 196.694 276.25 196.601 274.758Z" fill="#381A07"/>
<path d="M214.88 291.731C215.16 292.664 216.093 293.224 217.025 292.944C217.958 292.664 218.518 291.731 218.238 290.799C217.958 289.866 217.025 289.307 216.093 289.586C215.16 289.866 214.601 290.799 214.88 291.731Z" fill="#64361A"/>
<path d="M213.202 273.638C227.658 274.384 232.321 279.141 226.072 278.581C216.933 277.742 203.596 273.079 213.202 273.638Z" fill="#381A07"/>
<path d="M187.368 295.929C187.368 296.768 185.316 297.421 182.705 297.421C180.187 297.421 178.042 296.861 178.042 296.022C178.042 295.183 180.093 294.53 182.705 294.53C185.223 294.53 187.368 295.183 187.368 295.929Z" fill="#F08884"/>
<path d="M231.948 295.276C231.948 296.115 229.896 296.768 227.285 296.768C224.766 296.768 222.621 296.209 222.621 295.369C222.621 294.53 224.673 293.877 227.285 293.877C229.896 293.877 231.948 294.53 231.948 295.276Z" fill="#F08884"/>
<path d="M164.705 289.866C166.943 286.975 170.207 287.255 171.513 292.478C171.513 292.478 171.047 269.535 176.083 265.711C186.435 257.783 186.062 267.39 200.145 263.752C209.565 261.327 222.435 252.561 231.948 267.203C234.839 271.587 235.026 283.804 237.264 288.094C237.917 285.11 239.316 284.55 243.699 284.83C249.109 285.576 255.264 272.426 249.575 266.737C256.197 262.167 253.585 254.706 248.456 255.265C251.813 243.328 239.223 228.219 230.829 231.483C227.751 216.84 218.611 225.328 218.611 225.328C215.907 209.939 192.404 212.364 186.808 224.768C175.71 215.721 169.927 230.271 173.751 235.866C162.933 231.763 149.036 248.271 157.803 257.037C149.689 261.327 155.751 268.882 155.751 268.882C148.383 274.291 147.637 284.55 154.166 286.602C153.979 293.037 164.705 289.866 164.705 289.866Z" fill="#381A07"/>
<path d="M227.004 404.582H170.3V395.069H227.004C228.87 395.069 230.362 396.561 230.362 398.426V401.318C230.362 403.09 228.87 404.582 227.004 404.582Z" fill="#7D9DAC"/>
<path d="M180.093 402.343H94.1039C92.705 402.343 91.5858 401.411 91.306 400.012L73.5858 333.328C73.2128 331.556 78.249 328.758 80.1143 328.758H166.011C167.41 328.758 168.529 329.69 168.809 331.089L182.891 398.799C183.264 400.664 181.865 402.343 180.093 402.343Z" fill="#7D9DAC"/>
<path d="M176.269 404.581H90.2794C88.8804 404.581 87.7612 403.649 87.4814 402.25L73.3985 334.54C73.0255 332.768 74.4244 331.089 76.1965 331.089H162.186C163.585 331.089 164.704 332.022 164.984 333.421L179.067 401.131C179.44 402.903 178.041 404.581 176.269 404.581Z" fill="#D4D4D4"/>
<path d="M358.694 404.581H58.57C55.5855 404.581 53.1606 407.006 53.1606 409.99C53.1606 412.975 55.5855 415.4 58.57 415.4H358.694C361.678 415.4 364.103 412.975 364.103 409.99C364.103 407.006 361.678 404.581 358.694 404.581Z" fill="#446C8B"/>
<path d="M119.098 362.892L119.751 365.97H121.71L121.523 365.13H124.508L126.56 374.364H125.72L126.093 376.322H130.29L129.917 374.364H128.984L126.933 365.13H129.917L130.104 365.97H132.062L131.409 362.892H119.098Z" fill="#AEAEAE"/>
<path d="M303.574 210.965L298.445 205.835L303.574 200.706C304.134 200.146 304.134 199.307 303.574 198.747C303.015 198.188 302.175 198.188 301.616 198.747L296.486 203.877L291.357 198.747C290.797 198.188 289.958 198.188 289.398 198.747C288.838 199.307 288.838 200.146 289.398 200.706L294.527 205.835L289.398 210.965C288.838 211.525 288.838 212.364 289.398 212.923C289.958 213.483 290.797 213.483 291.357 212.923L296.486 207.794L301.616 212.923C302.175 213.483 303.015 213.483 303.574 212.923C304.134 212.364 304.134 211.525 303.574 210.965Z" fill="#F9D67F"/>
<path d="M283.336 378.374C282.684 378.374 282.031 378.094 281.471 377.628C280.725 376.882 280.445 375.669 280.818 374.643C281.191 373.617 282.031 372.871 283.15 372.871L305.72 371.472L307.585 348.996C307.492 348.623 307.585 348.156 307.772 347.783C308.145 346.757 308.984 346.011 310.103 345.918L332.673 344.519L334.538 322.042C334.445 321.669 334.538 321.203 334.725 320.83C335.098 319.804 335.937 319.058 337.057 319.058L359.627 317.659L361.492 294.809C361.585 293.317 362.891 292.198 364.476 292.291C365.968 292.384 367.088 293.69 366.994 295.276L364.943 320.55C364.849 321.856 363.73 322.975 362.424 323.068L339.948 324.467L338.083 347.503C337.989 348.809 336.87 349.928 335.564 350.022L313.088 351.421L311.222 374.457C311.129 375.762 310.01 376.882 308.704 376.975L284.456 378.467C283.896 378.374 283.616 378.374 283.336 378.374Z" fill="#00FCFF"/>
<defs>
<linearGradient id="paint0_linear" x1="207.48" y1="294.518" x2="202.458" y2="296.164" gradientUnits="userSpaceOnUse">
<stop stop-color="#D28178"/>
<stop offset="1" stop-color="#F6B9AD" stop-opacity="0"/>
</linearGradient>
</defs>
</svg>
