<svg width="375" height="466" viewBox="0 0 375 466" fill="none" xmlns="http://www.w3.org/2000/svg">
<g clip-path="url(#clip0)">
<path opacity="0.12" d="M375 452.422C375 459.95 291.056 466 187.465 466C83.9438 466 -0.0703125 459.879 -0.0703125 452.422C-0.0703125 444.895 83.8734 438.845 187.465 438.845C291.056 438.845 375 444.895 375 452.422Z" fill="black"/>
<path d="M125.352 160.75C113.45 185.091 122.394 204.508 122.394 204.508L110.211 205.563L102.253 206.267C93.0983 167.574 129.929 141.474 130.211 141.263C111.267 164.901 114.577 188.257 114.577 188.257C114.366 176.579 125.141 161.032 125.352 160.75Z" fill="#CCCCCC"/>
<path d="M110.211 205.634L102.253 206.338C93.0983 167.645 129.929 141.545 130.211 141.334C130 141.545 105.915 167.997 105.634 186.147C105.422 196.629 108.028 202.539 110.211 205.634Z" fill="#DFDFDF"/>
<path d="M74.6476 176.297C71.2674 177.564 68.0279 179.956 66.2674 184.388C62.4645 193.885 68.0279 203.031 73.4505 202.679C73.4505 202.679 70.1406 207.744 73.4505 214.709C76.7603 221.744 87.8871 220.688 91.549 214.709C91.549 214.709 92.8871 220.126 101.267 221.884C109.648 223.643 114.859 220.688 117.465 216.256C117.465 216.256 118.803 222.658 130.915 224.839C131.619 224.98 132.394 225.05 133.169 225.191C137.676 225.754 141.69 225.121 144.859 223.995C150.704 222.025 154.084 218.719 154.084 218.719C154.084 218.719 156.479 221.181 160.915 222.658C163.45 223.502 166.76 224.065 170.634 223.573C179.788 222.518 181.901 214.287 181.901 214.287C181.901 214.287 183.38 217.663 192.535 217.312C194.084 217.241 195.422 216.89 196.479 216.397C201.831 213.794 202.042 206.689 196.267 204.86C196.127 204.789 196.056 204.789 195.915 204.789C195.845 204.789 195.774 204.719 195.704 204.719C194.084 204.297 192.324 204.015 190.563 204.015C189.577 204.015 188.591 204.086 187.605 204.226C185.634 200.146 181.408 197.403 176.619 197.403C175.986 197.403 175.281 197.473 174.648 197.543C171.549 198.036 168.803 199.724 166.972 202.046C165.352 201.624 163.662 201.412 161.972 201.412C161.76 201.412 161.549 201.412 161.338 201.412C157.465 196.207 151.338 192.83 144.366 192.83C139.507 192.83 135.07 194.448 131.549 197.191C129.155 199.021 127.183 201.272 125.774 203.945C124.436 203.242 123.098 202.679 121.619 202.257C120.774 202.046 119.929 201.835 119.084 201.694C118.028 201.553 116.901 201.412 115.704 201.412C113.169 201.412 110.774 201.835 108.521 202.679C107.958 202.89 107.465 203.101 106.972 203.312C105.563 200.357 103.45 197.754 100.845 195.784C100.07 195.151 99.2251 194.659 98.38 194.166V194.096C98.38 193.252 98.3096 192.478 98.2392 191.634C98.0983 190.368 97.8167 189.172 97.4645 187.976C97.4645 187.905 97.4645 187.835 97.3941 187.765C95.704 182.348 91.9012 177.845 86.9012 175.242C86.7603 175.313 80.4927 174.117 74.6476 176.297Z" fill="#DFDFDF"/>
<path d="M86.6193 162.368C87.4643 163.845 86.901 165.745 85.3517 166.519C83.8728 167.363 81.9714 166.8 81.1967 165.252C80.3517 163.775 80.915 161.876 82.4643 161.102C83.8728 160.328 85.7742 160.82 86.6193 162.368Z" fill="#CCCCCC"/>
<path d="M86.4785 162.087C87.0418 163.142 86.6897 164.549 85.563 165.112C84.5066 165.674 83.0982 165.323 82.5348 164.197C81.9714 163.071 82.3235 161.735 83.4503 161.172C84.5066 160.609 85.8446 161.031 86.4785 162.087Z" fill="#DFDFDF"/>
<path d="M144.859 185.865C145.352 186.78 145 187.976 144.084 188.468C143.169 188.96 141.972 188.609 141.479 187.694C140.986 186.78 141.338 185.584 142.253 185.091C143.239 184.599 144.366 184.95 144.859 185.865Z" fill="#CCCCCC"/>
<path d="M144.788 185.724C145.14 186.428 144.929 187.272 144.225 187.623C143.521 187.975 142.676 187.764 142.324 187.061C141.971 186.357 142.183 185.513 142.887 185.161C143.591 184.809 144.436 185.021 144.788 185.724Z" fill="#DFDFDF"/>
<path d="M107.464 156.951C107.746 157.444 107.535 158.077 107.042 158.358C106.549 158.64 105.915 158.429 105.633 157.936C105.352 157.444 105.563 156.81 106.056 156.529C106.549 156.318 107.183 156.459 107.464 156.951Z" fill="#CCCCCC"/>
<path d="M107.394 156.881C107.605 157.232 107.465 157.725 107.113 157.865C106.76 158.077 106.267 157.936 106.127 157.584C105.915 157.232 106.056 156.74 106.408 156.599C106.76 156.388 107.253 156.529 107.394 156.881Z" fill="#DFDFDF"/>
<path d="M97.6054 183.262L99.2251 166.519L96.3378 174.328L97.8166 147.032L94.8589 179.604L97.6758 173.835L97.6054 183.262Z" fill="#CCCCCC"/>
<path d="M122.958 195.362L135.07 183.614L127.746 187.624L146.619 167.855L123.169 190.719L129.084 188.187L122.958 195.362Z" fill="#CCCCCC"/>
<path d="M161.408 146.117C153.943 149.353 148.873 150.549 135.352 160.68L135.281 160.75L135.352 160.68C144.366 146.399 145.14 141.263 147.746 133.595C150.352 125.856 158.943 121.424 158.943 121.424L166.267 127.193L172.605 134.017C172.605 134.017 168.873 142.881 161.408 146.117Z" fill="#F48C37"/>
<path d="M145.422 149.705C147.605 145.132 148.661 141.685 149.788 138.168C150.14 137.042 150.563 135.846 150.985 134.58C152.394 130.5 158.028 125.505 160.281 123.887L164.929 128.178L169.718 132.54C168.309 134.932 164.013 141.263 160.07 142.952C158.873 143.444 157.746 143.937 156.619 144.429C153.168 145.836 149.858 147.173 145.422 149.705Z" fill="#EFBA05"/>
<path d="M151.197 143.444C151.971 141.615 152.605 139.927 153.239 138.309C153.732 137.042 154.225 135.706 154.788 134.369C155.845 131.836 159.295 128.108 162.112 125.646L167.887 130.992C165.563 134.228 162.324 138.027 160 139.223C158.662 139.856 157.394 140.489 156.197 141.123C154.577 141.756 152.957 142.53 151.197 143.444Z" fill="#F8F6A6"/>
<path d="M166.901 101.164C165.211 101.023 163.38 101.375 161.549 101.938C152.605 104.822 143.662 114.671 143.662 114.671C143.521 114.46 138.169 105.666 144.155 93.8472C147.324 87.6564 152.816 83.9279 157.324 81.747C158.169 81.3249 158.943 81.536 159.507 82.0284C159.929 82.3802 160.14 82.8726 160.14 83.4354C160.14 83.9279 160 84.4203 159.577 84.8424L172.746 80.5511L182.605 77.3149C178.309 88.782 166.901 101.164 166.901 101.164Z" fill="#DA3645"/>
<path d="M143.732 114.671C143.591 114.46 138.239 105.666 144.225 93.8471C147.394 87.6562 152.887 83.9277 157.394 81.7468C158.239 81.3247 159.014 81.5358 159.577 82.0282C159.999 82.38 160.211 82.8724 160.211 83.4352C160.07 83.8573 159.859 84.3498 159.647 84.8422C159.647 84.8422 150.07 90.1889 145.915 99.7565C141.901 109.254 143.661 114.53 143.732 114.671Z" fill="#ED4C65"/>
<path d="M166.901 101.164C165.211 101.023 163.38 101.375 161.549 101.938C163.591 93.8472 168.45 86.2494 172.887 80.5511L182.746 77.3149C178.309 88.782 166.901 101.164 166.901 101.164Z" fill="#BC292C"/>
<path d="M192.112 124.379C192.394 126.068 192.183 127.897 191.76 129.726C189.577 138.871 180.493 148.58 180.493 148.58C180.704 148.72 189.929 153.363 201.197 146.399C207.112 142.741 210.422 136.972 212.183 132.258C212.535 131.414 212.253 130.64 211.69 130.148C211.267 129.796 210.774 129.585 210.211 129.585C209.718 129.585 209.296 129.796 208.873 130.218L212.112 116.711L214.507 106.651C203.591 112.068 192.112 124.379 192.112 124.379Z" fill="#DA3645"/>
<path d="M180.493 148.58C180.704 148.72 189.929 153.363 201.197 146.399C207.112 142.74 210.422 136.972 212.183 132.258C212.535 131.414 212.253 130.64 211.69 130.148C211.267 129.796 210.774 129.585 210.211 129.585C209.788 129.796 209.366 130.007 208.873 130.218C208.873 130.218 204.366 140.208 195.141 145.132C186.126 149.987 180.704 148.65 180.493 148.58Z" fill="#ED4C65"/>
<path d="M192.112 124.379C192.394 126.068 192.183 127.897 191.76 129.726C199.718 127.052 206.901 121.635 212.183 116.711L214.577 106.651C203.591 112.068 192.112 124.379 192.112 124.379Z" fill="#BC292C"/>
<path d="M213.591 107.565C210.704 110.731 208.309 113.193 205.774 115.374C203.239 117.555 200.563 119.525 197.042 121.706C196.901 121.776 196.831 121.846 196.69 121.917L190.845 124.942L184.366 128.319L172.042 134.721L158.098 121.917L158.732 120.439L163.521 109.113L166.338 102.359C169.929 93.8471 174.929 85.8975 181.267 78.9328C181.478 78.7218 181.619 78.5107 181.831 78.37C190.563 68.9431 199.436 62.7523 207.394 58.6719C207.957 58.3905 208.521 58.1091 209.084 57.8277C210.422 57.1946 211.76 56.6318 213.028 56.069C213.591 55.8579 214.154 55.6469 214.647 55.4358C214.929 55.2951 215.211 55.2248 215.493 55.1544C218.943 53.8881 222.112 52.9736 224.929 52.4108C228.169 51.7073 230.845 51.3555 232.816 51.2148C234.929 51.0741 236.619 52.5515 236.619 54.7323C236.619 58.3905 236.267 64.5814 234.084 72.2495C234.014 72.5309 233.943 72.8827 233.802 73.1641C233.662 73.7269 233.45 74.2897 233.309 74.8525C232.887 76.1892 232.394 77.5258 231.901 78.8625C231.69 79.4253 231.478 79.9881 231.197 80.5509C227.816 88.8522 222.323 98.1384 213.591 107.565Z" fill="#F9F9F9"/>
<path d="M178.521 131.414L172.042 134.791C171.267 134.369 170.563 134.017 169.859 133.595C169.225 133.243 168.662 132.891 168.098 132.469C166.056 131.133 164.225 129.585 162.535 127.826C160.845 126.067 159.366 124.097 158.098 121.987L160.915 115.304C162.605 117.977 164.507 120.369 166.619 122.55C169.084 125.153 171.901 127.404 175 129.444C175.493 129.796 176.056 130.077 176.549 130.429C177.253 130.71 177.887 131.062 178.521 131.414Z" fill="#182632"/>
<path d="M162.535 127.826C160.845 126.067 159.366 124.097 158.098 121.987L160.915 115.304L163.521 109.183L166.338 102.43C169.929 93.9173 174.929 85.9677 181.267 79.003C181.478 78.7919 181.619 78.5809 181.831 78.4402C193.662 65.6365 205.704 58.8125 215.422 55.2246C218.873 53.9583 222.042 53.0438 224.859 52.481C225.352 54.9432 226.478 55.2246 223.45 59.4456C223.45 59.4456 195.563 67.958 182.323 88.1485C170.211 106.651 178.45 107.495 178.45 107.495L166.619 122.62L162.535 127.826Z" fill="#DFDFDF"/>
<path d="M159.577 135.846C159.084 136.057 158.662 135.987 158.309 135.635C158.028 135.354 157.816 134.861 158.028 134.439C165 116.852 187.957 98.5608 197.676 91.4554C198.169 91.1036 198.732 91.174 199.084 91.5257C199.436 91.8775 199.577 92.4403 199.295 92.9327C192.957 103.134 176.549 127.545 159.577 135.846Z" fill="#DA3645"/>
<path d="M199.084 91.5963L158.309 135.706C158.028 135.424 157.816 134.932 158.028 134.51C165 116.922 187.957 98.6313 197.676 91.5259C198.169 91.1038 198.732 91.2445 199.084 91.5963Z" fill="#BC292C"/>
<path d="M217.605 87.1636C213.662 91.4549 206.901 91.7363 202.605 87.7967C198.309 83.8571 198.028 77.1035 201.971 72.8121C205.915 68.5208 212.676 68.2394 216.971 72.179C221.267 76.1186 221.549 82.8019 217.605 87.1636Z" fill="#182632"/>
<path d="M215.986 85.6158L215.915 85.6861C212.817 88.9926 207.605 89.2036 204.225 86.1786L204.155 86.1082C203.591 85.5454 203.098 84.9826 202.676 84.3495C201.971 83.1535 201.549 81.8872 201.479 80.5505C201.408 79.4249 201.549 78.2993 201.901 77.1737C202.253 76.1185 202.817 75.1336 203.662 74.2894C206.831 70.9125 212.112 70.7015 215.493 73.7969C216.338 74.5708 217.042 75.5557 217.464 76.5406C217.957 77.5958 218.169 78.7214 218.169 79.847C218.169 81.1837 217.887 82.5203 217.253 83.7163C216.901 84.4198 216.479 85.053 215.986 85.6158Z" fill="#33C6C9"/>
<path opacity="0.1" d="M217.253 83.7163C217.887 82.5203 218.169 81.1836 218.169 79.847C218.169 78.7214 217.887 77.5958 217.465 76.5405C217.042 75.5556 216.338 74.5707 215.493 73.7969C212.112 70.6311 206.76 70.9125 203.662 74.2893C203.521 74.43 203.38 74.6411 203.239 74.7818C206.408 71.8974 211.338 71.8271 214.577 74.7818C215.422 75.5556 216.127 76.5405 216.549 77.5254C217.042 78.5807 217.253 79.7063 217.253 80.8319C217.253 82.1685 216.972 83.5052 216.338 84.7012C216.127 85.1936 215.774 85.6157 215.493 86.0378C215.634 85.8971 215.774 85.7564 215.915 85.6157L215.986 85.5454C216.479 85.0529 216.901 84.4198 217.253 83.7163Z" fill="black"/>
<path d="M215.493 77.6665C215.493 77.6665 215.634 82.4503 212.253 84.6312C208.521 87.0231 205.422 85.0533 203.31 81.6765C203.31 81.6765 203.591 85.5457 208.098 87.0231C212.887 88.5708 217.394 83.5056 215.493 77.6665Z" fill="#00ECEB"/>
<path d="M234.084 72.2494C226.901 67.6062 220.704 61.9079 215.493 55.1542C223.028 52.3402 229.155 51.496 232.817 51.2146C234.155 51.1443 235.211 51.6367 235.915 52.5513C236.338 53.1141 236.619 53.8879 236.619 54.7321C236.619 58.32 236.267 64.5812 234.084 72.2494Z" fill="#DA3645"/>
<path d="M235.07 59.1641C235.141 58.4606 235.211 57.9682 235.352 56.9129C235.563 55.2245 235.211 54.521 234.084 54.521C231.971 54.5913 229.788 63.1741 232.183 66.3398C234.014 68.8021 234.788 62.1892 235.07 59.1641Z" fill="#ED4C65"/>
<path opacity="0.2" d="M234.084 72.2494C226.901 67.6062 220.704 61.9079 215.493 55.1542C223.028 52.3402 229.155 51.496 232.817 51.2146C234.155 51.1443 235.211 51.6367 235.915 52.5513C235.211 52.5513 229.859 52.5513 226.972 55.717C223.803 59.0939 225.493 66.1289 234.084 72.2494Z" fill="black"/>
<path d="M92.0387 254.327L74.8345 258.059L78.675 275.727L95.8792 271.995L92.0387 254.327Z" fill="#B8CC27"/>
<path d="M88.5456 234.861L70.9629 233.969L70.0457 252.026L87.6284 252.917L88.5456 234.861Z" fill="#FFE32A"/>
<path d="M217.277 253.434L199.694 252.543L198.777 270.599L216.359 271.491L217.277 253.434Z" fill="#EF4D4D"/>
<path d="M150.775 435.96H173.099L174.437 399.589H152.113L150.775 435.96Z" fill="#E0B196"/>
<path d="M170.775 393.188H146.69V426.674H170.775V393.188Z" fill="#FFC41F"/>
<path d="M142.042 426.674L166.127 423.227V393.188H142.042V426.674Z" fill="#E58A28"/>
<path d="M161.761 396.705H137.676V426.674H161.761V396.705Z" fill="#347799"/>
<path d="M157.113 396.705H133.028V426.674H157.113V396.705Z" fill="#20496B"/>
<path d="M174.155 402.474H147.183V432.443H174.155V402.474Z" fill="#E07D46"/>
<path d="M178.662 399.589H173.099V435.96H178.662V399.589Z" fill="#FFE9CF"/>
<path d="M196.268 349.641C196.268 349.641 196.268 353.51 196.268 358.223C196.268 362.937 200.634 366.806 205.915 366.806H225.563C230.915 366.806 234.577 362.515 233.732 357.238L231.549 342.957C230.704 337.681 228.732 333.39 227.183 333.39C225.563 333.39 224.296 333.39 224.296 333.39" stroke="#918073" stroke-width="7.0012" stroke-miterlimit="10" stroke-linecap="round" stroke-linejoin="round"/>
<path d="M231.338 333.46H205.986C200.634 333.46 196.338 336.344 196.338 339.862C196.338 343.379 196.338 346.264 196.338 346.264" stroke="#214775" stroke-width="14.0023" stroke-miterlimit="10" stroke-linecap="round" stroke-linejoin="round"/>
<path d="M247.606 446.654C247.606 450.031 244.859 452.704 241.55 452.704C238.169 452.704 235.493 449.96 235.493 446.654" fill="#56698F"/>
<path d="M288.873 446.654C288.873 450.031 286.127 452.704 282.817 452.704C279.437 452.704 276.761 449.96 276.761 446.654" fill="#56698F"/>
<path d="M321.902 446.654C321.902 450.031 319.155 452.704 315.845 452.704C312.465 452.704 309.789 449.96 309.789 446.654" fill="#56698F"/>
<path d="M267.042 383.268H256.127V423.157H267.042V383.268Z" fill="#B7BEBC"/>
<path d="M256.127 383.409V398.675L267.042 395.368V383.409H256.127Z" fill="#7F8A99"/>
<path d="M249.437 429.699V433.076H273.732V427.096L249.437 429.699Z" fill="#B7BEBC"/>
<path d="M275.704 376.514C275.704 373.278 273.028 370.605 269.789 370.605H253.31C250.071 370.605 247.395 373.278 247.395 376.514V383.479C247.395 386.715 250.071 389.389 253.31 389.389H269.789C273.028 389.389 275.704 386.715 275.704 383.479V376.514Z" fill="#3E4C60"/>
<path d="M295.775 373.419C295.775 370.183 293.099 367.51 289.859 367.51H233.31C230.071 367.51 227.395 370.183 227.395 373.419V377.499C227.395 380.736 230.071 383.409 233.31 383.409H289.859C293.099 383.409 295.775 380.736 295.775 377.499V373.419Z" fill="#3E4C60"/>
<path d="M323.733 370.675C324.085 373.911 321.69 376.585 318.451 376.585H247.606C244.366 376.585 241.409 373.911 241.056 370.675L235.634 318.686C235.282 315.45 235.634 310.174 236.409 307.008L253.662 236.517C254.437 233.351 257.676 230.186 260.845 229.412L300.352 220.266C303.521 219.563 308.803 218.93 312.042 218.93H318.451C321.69 218.93 324.225 221.603 323.944 224.839L318.099 306.867C317.887 310.104 317.958 315.45 318.31 318.686L323.733 370.675Z" fill="#7AAEED"/>
<path d="M313.944 370.675C314.296 373.911 311.902 376.585 308.662 376.585H239.155C235.916 376.585 232.958 373.911 232.606 370.675L227.183 318.686C226.831 315.45 227.183 310.174 227.958 307.008L248.31 224.698C249.085 221.533 252.394 218.93 255.634 218.93H299.437C302.676 218.93 305.423 221.603 305.493 224.839L307.676 306.797C307.747 310.033 308.099 315.38 308.451 318.616L313.944 370.675Z" fill="#2E5389"/>
<path d="M285.352 335.922C286.056 342.746 286.056 347.53 297.676 347.53C309.296 347.53 315.141 347.53 315.141 347.53L314.225 357.801L287.113 361.178L275.704 353.791L279.718 338.807L285.352 335.922Z" fill="#214775"/>
<path d="M314.507 367.088C314.507 372.294 310.211 376.585 305 376.585H197.254C192.042 376.585 187.747 372.294 187.747 367.088V364.414C187.747 359.208 192.042 354.917 197.254 354.917H305C310.211 354.917 314.507 359.208 314.507 364.414V367.088Z" fill="#4977A5"/>
<path d="M268.732 354.917C260.07 354.917 253.873 372.082 253.873 372.082C259.437 372.082 211.62 372.082 211.62 372.082L212.394 354.917H268.732Z" fill="#2E5389"/>
<path d="M268.099 367.65C268.099 372.505 272.113 376.515 276.972 376.515H308.944C313.803 376.515 318.028 372.505 318.31 367.65L318.521 363.781C318.803 358.927 315 354.917 310.071 354.917H276.902C272.042 354.917 268.028 358.927 268.028 363.781V367.65H268.099Z" fill="#CCB396"/>
<path d="M235.564 312.566C232.324 312.707 230.211 310.174 230.845 306.938L248.451 224.698C249.155 221.533 252.324 218.93 255.634 218.93H308.592C311.831 218.93 314.366 221.603 314.085 224.839L308.451 304.194C308.24 307.43 305.352 310.174 302.113 310.315L235.564 312.566Z" fill="#6589BD"/>
<path d="M208.099 435.116L261.549 425.197L315.845 435.116" stroke="#B7BEBC" stroke-width="8.4232" stroke-miterlimit="10" stroke-linecap="round" stroke-linejoin="round"/>
<path d="M241.479 435.116L261.549 425.197L282.395 435.116" stroke="#B7BEBC" stroke-width="8.4232" stroke-miterlimit="10" stroke-linecap="round" stroke-linejoin="round"/>
<path d="M214.155 446.654C214.155 450.031 211.409 452.704 208.099 452.704C204.789 452.704 202.042 449.96 202.042 446.654" fill="#56698F"/>
<path d="M202.042 446.935C201.549 446.935 201.127 446.513 201.127 446.021C201.127 442.222 204.226 439.056 208.099 439.056C211.902 439.056 215.071 442.152 215.071 446.021C215.071 446.513 214.648 446.935 214.155 446.935H202.042Z" fill="#B7BEBC"/>
<path d="M208.099 439.971C211.479 439.971 214.155 442.714 214.155 446.021H202.042C202.042 442.714 204.789 439.971 208.099 439.971ZM208.099 438.212C203.803 438.212 200.282 441.729 200.282 446.021C200.282 447.006 201.056 447.78 202.042 447.78H214.155C215.141 447.78 215.916 447.006 215.916 446.021C215.986 441.729 212.465 438.212 208.099 438.212Z" fill="#B7BEBC"/>
<path d="M235.423 446.935C234.93 446.935 234.507 446.513 234.507 446.021C234.507 442.222 237.606 439.056 241.479 439.056C245.282 439.056 248.451 442.152 248.451 446.021C248.451 446.513 248.028 446.935 247.536 446.935H235.423Z" fill="#B7BEBC"/>
<path d="M241.479 439.971C244.859 439.971 247.535 442.714 247.535 446.021H235.423C235.423 442.714 238.169 439.971 241.479 439.971ZM241.479 438.212C237.183 438.212 233.662 441.729 233.662 446.021C233.662 447.006 234.437 447.78 235.423 447.78H247.535C248.521 447.78 249.296 447.006 249.296 446.021C249.366 441.729 245.845 438.212 241.479 438.212Z" fill="#B7BEBC"/>
<path d="M276.761 446.935C276.268 446.935 275.845 446.513 275.845 446.021C275.845 442.222 278.944 439.056 282.817 439.056C286.69 439.056 289.789 442.152 289.789 446.021C289.789 446.513 289.366 446.935 288.873 446.935H276.761Z" fill="#B7BEBC"/>
<path d="M282.817 439.971C286.197 439.971 288.873 442.714 288.873 446.021H276.761C276.761 442.714 279.437 439.971 282.817 439.971ZM282.817 438.212C278.521 438.212 275 441.729 275 446.021C275 447.006 275.775 447.78 276.761 447.78H288.873C289.859 447.78 290.634 447.006 290.634 446.021C290.634 441.729 287.113 438.212 282.817 438.212Z" fill="#B7BEBC"/>
<path d="M309.789 446.935C309.296 446.935 308.874 446.513 308.874 446.021C308.874 442.222 311.972 439.056 315.845 439.056C319.648 439.056 322.817 442.152 322.817 446.021C322.817 446.513 322.395 446.935 321.902 446.935H309.789Z" fill="#B7BEBC"/>
<path d="M315.845 439.971C319.226 439.971 321.902 442.714 321.902 446.021H309.789C309.789 442.714 312.465 439.971 315.845 439.971ZM315.845 438.212C311.549 438.212 308.028 441.729 308.028 446.021C308.028 447.006 308.803 447.78 309.789 447.78H321.902C322.888 447.78 323.662 447.006 323.662 446.021C323.662 441.729 320.141 438.212 315.845 438.212Z" fill="#B7BEBC"/>
<path d="M269.014 423.72V409.79C269.014 408.172 267.676 406.835 266.056 406.835H257.042C255.423 406.835 254.084 408.172 254.084 409.79V423.72" fill="#3E4C60"/>
<path d="M208.099 441.94V435.468" stroke="#B7BEBC" stroke-width="8.4232" stroke-miterlimit="10" stroke-linecap="round" stroke-linejoin="round"/>
<path d="M241.479 441.94V435.468" stroke="#B7BEBC" stroke-width="8.4232" stroke-miterlimit="10" stroke-linecap="round" stroke-linejoin="round"/>
<path d="M282.817 441.94V435.468" stroke="#B7BEBC" stroke-width="8.4232" stroke-miterlimit="10" stroke-linecap="round" stroke-linejoin="round"/>
<path d="M315.845 441.94V435.468" stroke="#B7BEBC" stroke-width="8.4232" stroke-miterlimit="10" stroke-linecap="round" stroke-linejoin="round"/>
<path d="M277.817 264.235C280.704 264.517 283.662 264.798 286.268 266.276C287.394 266.909 288.451 267.823 289.366 269.019C291.831 272.326 293.451 278.024 293.239 288.154C292.887 310.667 291.901 331.138 297.113 340.073C299.648 344.364 293.451 335.641 286.69 335.43C279.437 335.219 271.408 343.379 270.986 342.535C270.141 340.917 268.239 317.983 268.239 317.983C268.239 317.983 266.62 286.536 268.732 281.753C270.845 276.898 276.479 270.215 276.479 270.215L277.817 264.235Z" fill="#2E5389"/>
<path d="M232.394 313.269C229.155 312.988 227.042 310.104 227.746 306.938L245.352 224.698C246.056 221.533 249.225 218.93 252.535 218.93H270.634C273.873 218.93 276.408 221.603 276.197 224.839L270.422 310.807C270.211 314.043 267.394 316.505 264.155 316.154L232.394 313.269Z" fill="#2E5389"/>
<path d="M202.113 421.116C201.127 424.282 198.31 430.754 198.732 434.202C199.155 437.649 200.845 438.774 203.239 439.126C205.563 439.478 210.422 438.423 213.521 432.302C216.69 426.111 218.873 421.609 219.929 418.724C220.775 416.333 218.591 408.875 215.775 407.187C215.775 407.187 215.282 411.549 212.535 416.825C209.648 422.453 206.479 422.875 205.282 422.875C202.817 422.875 203.662 420.624 203.662 418.724C203.591 416.825 202.113 421.116 202.113 421.116Z" fill="#24774B"/>
<path d="M205.211 425.197C202.394 424.845 201.479 423.086 202.254 420.695C202.958 418.303 202.958 407.961 202.958 407.961L215.845 403.951L217.113 410.212C217.113 410.072 213.803 426.182 205.211 425.197Z" fill="#3F2F36"/>
<path d="M238.662 421.398C239.084 419.851 240 416.333 240.704 414.293C241.408 412.253 241.408 407.68 241.408 407.68L254.225 402.685V407.187L250.422 423.157L242.324 431.388C242.324 431.388 238.098 428.996 238.169 428.785C238.239 428.433 238.662 421.398 238.662 421.398Z" fill="#3F2F36"/>
<path d="M256.62 418.021C255.845 419.85 254.085 425.689 251.831 431.106C249.578 436.453 247.043 437.86 241.62 438.352C236.197 438.845 233.803 435.749 234.437 432.232C235.141 428.714 239.507 417.388 240.704 414.363C240.634 414.644 238.662 420.483 240.634 422.945C241.127 423.579 241.972 424.001 243.099 424.001C248.803 424.001 250.634 418.584 251.831 415.488C253.028 412.463 254.155 406.413 254.155 406.413C254.155 406.413 254.719 407.257 255.916 409.86C256.127 410.282 256.268 410.704 256.409 411.127C257.183 413.518 257.254 416.403 256.62 418.021Z" fill="#268E5A"/>
<path d="M256.62 418.021C255.845 419.85 254.084 425.689 251.831 431.106C249.577 436.453 246.901 438.986 241.479 439.548C236.056 440.041 233.803 435.75 234.436 432.232C235.141 428.715 239.507 417.388 240.704 414.363C240.634 414.644 238.662 420.484 240.634 422.946C238.521 429.277 237.394 432.091 239.436 434.131C241.69 436.383 247.535 435.468 251.056 426.041C253.38 419.991 255.282 414.363 256.408 411.127C257.183 413.519 257.253 416.403 256.62 418.021Z" fill="#24774B"/>
<path d="M170.563 303.913C173.592 298.566 175.071 296.386 179.085 297.37C183.099 298.355 189.648 301.521 195.986 301.521C202.324 301.521 198.028 305.883 198.028 305.883L170.563 303.913Z" fill="#FFB287"/>
<path d="M225.563 290.265C226.268 287.029 224.155 287.24 226.972 283.793C229.789 280.346 241.056 266.346 248.451 264.587C255.845 262.829 249.577 281.964 249.577 281.964L238.169 294.979L225.563 290.265Z" fill="#268E5A"/>
<path d="M237.465 288.929C236.55 292.798 238.944 298.496 239.226 293.853C239.507 289.21 241.338 279.08 242.536 276.406C242.536 276.406 235.212 279.08 230.423 285.481L237.465 288.929Z" fill="#24774B"/>
<path d="M229.929 287.17C228.662 286.888 226.549 285.27 226.901 284.004C227.324 282.738 231.056 280.838 238.028 289.28C243.169 295.401 232.606 301.451 228.944 290.124C228.169 287.733 229.929 287.17 229.929 287.17Z" fill="#1E5435"/>
<path d="M179.366 308.978C197.324 312.285 213.239 308.837 221.972 303.42C227.183 300.184 231.127 296.526 234.084 293.009C235.07 291.813 235.986 290.617 236.831 289.491C237.394 288.647 235.915 286.396 233.099 284.356C231.197 283.019 229.789 282.667 228.803 282.737C227.817 282.808 227.254 283.3 226.901 283.652C224.507 286.888 220.915 290.546 215.845 293.712C206.338 299.551 194.155 302.084 179.437 301.099L179.366 308.978Z" fill="#FFB287"/>
<path d="M228.803 282.808C231.831 285.2 233.451 289.28 234.084 293.079C235.07 291.883 235.986 290.687 236.831 289.561C237.394 288.717 235.915 286.466 233.099 284.426C231.268 283.089 229.859 282.737 228.803 282.808Z" fill="#F58D6C"/>
<path d="M201.268 407.891L201.338 404.373C201.62 389.881 201.902 375.318 205.564 360.263C207.254 353.228 211.057 348.163 216.761 345.349C221.197 343.098 225.845 342.746 229.578 342.465C231.338 342.324 233.521 342.183 234.366 341.832C235.564 341.339 237.042 340.917 238.873 340.354C249.366 337.259 252.395 335.219 253.24 334.163C253.451 329.38 257.465 312.496 262.324 312.496C267.324 312.496 271.409 316.576 271.409 321.571C271.409 336.766 252.888 355.269 243.944 357.801C242.888 358.083 241.549 358.505 241.127 358.645C237.676 360.052 234.155 360.334 230.986 360.545C224.085 361.108 223.944 361.459 223.24 364.555C220.071 377.64 219.789 390.373 219.507 404.654L219.437 408.172C219.366 413.167 201.197 412.885 201.268 407.891Z" fill="#5B2727"/>
<path d="M255.845 404.021C255.916 398.604 255.634 394.805 255.352 389.881C254.859 380.806 254.367 372.293 256.479 363.429C257.395 359.701 262.536 355.058 271.831 355.058C274.226 355.058 279.789 357.238 282.747 353.721C287.113 348.445 287.958 337.118 287.958 321.5C287.958 316.506 283.874 312.425 278.874 312.425C273.874 312.425 269.789 329.52 269.789 334.586C269.789 338.385 269.155 339.792 269.014 340.073C268.169 340.495 265.352 340.706 263.662 340.776C256.479 341.199 243.028 342.113 238.874 359.138C236.057 370.605 236.69 380.876 237.254 390.936C237.536 395.72 237.817 400.293 237.676 404.936C237.606 408.946 246.55 409.509 251.69 408.383C254.789 407.679 255.845 405.077 255.845 404.021Z" fill="#6D3232"/>
<path d="M243.38 298.778C243.028 305.672 241.972 318.054 240.845 328.043C240.071 335.008 239.296 340.847 238.732 342.817C238.732 342.958 238.662 343.028 238.592 343.169H238.521C235.704 342.535 232.887 342.184 229.014 342.535C229.437 341.199 229.789 339.721 230.141 338.174C230.704 335.711 231.268 332.616 231.831 329.169C233.944 316.295 235.916 298.566 235.845 293.642C235.845 293.642 235.916 293.642 236.127 293.572C236.69 293.431 237.958 293.15 239.225 292.938C240.916 292.727 242.747 292.727 243.24 293.642C243.521 293.923 243.521 295.893 243.38 298.778Z" fill="#268E5A"/>
<path d="M237.043 225.613C235.916 240.457 249.155 253.824 263.944 255.02C278.733 256.286 292.043 250.447 293.944 235.673L295.564 221.111C297.465 206.337 286.902 193.252 272.043 192.056L266.831 191.634C251.972 190.438 238.874 201.553 237.747 216.397L237.043 225.613Z" fill="#A54134"/>
<path d="M292.043 301.802C291.972 303.772 291.831 305.812 291.62 307.853C291.268 311.3 290.846 316.646 290.212 322.274C289.226 331.701 287.888 342.184 286.409 346.756C285.353 349.922 281.691 348.867 277.254 346.967C273.874 345.49 270 343.52 266.55 342.606C263.662 341.832 261.338 341.761 259.296 342.043C259.085 342.043 258.803 342.113 258.592 342.113C254.789 342.817 251.902 344.646 248.381 345.138C248.31 345.138 248.24 345.138 248.169 345.138C248.029 345.138 247.958 345.138 247.888 345.209C245.353 345.49 250.282 344.224 242.184 342.606C240.845 342.324 242.254 336.415 243.874 327.762C245.705 317.702 247.747 303.983 245.916 290.898C245.634 288.858 245.141 286.677 244.648 284.496C242.888 276.969 240.916 269.019 245.775 265.502C247.043 264.517 248.874 263.884 251.268 263.673C251.338 263.673 251.479 263.673 251.55 263.673C251.691 263.673 251.902 263.673 252.043 263.602L257.254 263.251L274.085 262.195C281.761 262.195 286.62 267.542 289.296 275.632C290.705 279.783 291.55 284.707 291.902 289.984C292.254 293.642 292.254 297.722 292.043 301.802Z" fill="#3CAF78"/>
<path d="M279.86 315.451L273.029 324.244L259.296 341.973C259.085 341.973 258.803 342.043 258.592 342.043C254.789 342.746 251.902 344.576 248.381 345.068C248.31 345.068 248.24 345.068 248.17 345.068C248.029 345.068 247.958 345.068 247.888 345.138C247.465 345.209 247.113 345.209 246.832 345.209C246.127 345.209 245.775 345.068 244.86 344.716C243.944 344.435 242.395 343.942 239.296 343.239C239.085 343.169 238.874 343.169 238.663 343.098H238.592H238.522C237.325 342.465 239.226 337.329 240.494 328.043C241.479 320.727 242.043 310.878 240.353 298.707C240.071 296.808 239.789 294.838 239.367 292.868C239.226 292.165 239.085 291.531 238.944 290.828C237.536 284.004 237.043 275.281 240.705 269.512C242.747 266.276 246.127 263.954 251.268 263.391C251.339 263.391 251.479 263.391 251.55 263.391C251.691 263.391 251.902 263.391 252.043 263.321L257.254 262.969C258.099 265.643 258.381 272.818 261.62 272.607C268.24 272.115 271.198 273.1 271.902 280.627C273.029 291.602 273.24 299.762 273.24 299.762H278.663L279.86 315.451Z" fill="#268E5A"/>
<path d="M285.845 237.995C285.493 240.739 287.465 243.271 290.212 243.553C292.958 243.904 295.493 241.935 295.775 239.191L296.268 234.97C296.62 232.226 294.648 229.694 291.902 229.412C289.155 229.061 286.62 231.03 286.338 233.774L285.845 237.995Z" fill="#FFB287"/>
<path d="M274.155 262.055C274.507 267.472 267.113 272.396 261.69 272.678L260.211 272.748C254.789 273.1 252.395 268.738 252.042 263.391L274.155 262.055Z" fill="white"/>
<path d="M254.649 262.688C254.93 266.698 255.775 269.582 260.071 269.371L261.55 269.301C265.775 269.019 271.902 265.713 271.62 261.703L271.268 256.075C270.987 252.065 267.325 248.97 263.099 249.181L261.62 249.251C257.395 249.532 254.085 253.05 254.367 257.06L254.649 262.688Z" fill="#FFB287"/>
<path d="M271.338 257.763C271.479 260.155 265.564 263.532 262.465 263.954C259.367 264.376 254.789 264.798 254.648 261.984L253.803 247.985L270.634 245.733L271.338 257.763Z" fill="#F58D6C"/>
<path d="M239.648 235.673C239.085 249.18 246.338 257.622 259.719 258.748C273.169 259.874 289.085 249.321 290.705 235.884L291.831 227.864C293.451 214.498 284.014 205.423 270.493 204.297L258.381 203.312C244.93 202.187 240.634 210.136 240.071 223.643L239.648 235.673Z" fill="#FFB287"/>
<path d="M270.705 230.538C270.635 230.538 270.635 230.538 270.565 230.538C270.072 230.468 269.649 230.257 269.367 229.905C269.086 229.553 268.945 229.131 268.945 228.639C269.015 227.724 269.79 227.021 270.705 227.021C270.776 227.021 270.776 227.021 270.846 227.021C271.832 227.091 272.536 227.935 272.466 228.92C272.396 229.905 271.621 230.538 270.705 230.538Z" fill="#422B27"/>
<path d="M270.705 227.231C270.775 227.231 270.775 227.231 270.846 227.231C271.691 227.301 272.395 228.075 272.254 228.92C272.184 229.764 271.479 230.397 270.705 230.397C270.634 230.397 270.634 230.397 270.564 230.397C269.719 230.327 269.015 229.553 269.155 228.708C269.226 227.864 269.93 227.231 270.705 227.231ZM270.705 226.95C269.719 226.95 268.874 227.724 268.803 228.708C268.733 229.764 269.507 230.678 270.564 230.749C270.634 230.749 270.634 230.749 270.705 230.749C271.691 230.749 272.536 229.975 272.606 228.99C272.677 228.497 272.465 228.005 272.184 227.583C271.831 227.231 271.409 226.95 270.916 226.95C270.846 226.95 270.775 226.95 270.705 226.95Z" fill="#422B27"/>
<path d="M280.564 209.011C276.479 208.659 259.155 207.252 251.479 206.619C248.31 206.337 245.493 206.056 243.803 204.227C238.31 198.247 240.282 187.483 240.282 187.483C240.282 187.483 242.606 189.664 255.775 190.72C269.507 191.845 280.493 190.79 289.437 201.764C291.761 204.578 280.564 209.011 280.564 209.011Z" fill="#A54134"/>
<path d="M270.141 205.493C270 207.533 267.606 207.885 272.113 208.237C276.69 208.588 283.732 211.402 282.887 221.392C282.535 225.543 282.183 229.623 282.042 231.452C281.901 233.281 285.493 234.477 286.62 231.874C288.169 228.427 291.62 229.412 291.831 229.412C293.732 229.623 293.732 214.287 292.817 212.95C291.902 211.613 287.747 205.563 286.409 204.578C285.071 203.593 274.789 199.232 274.789 199.232C274.789 199.232 271.338 197.825 269.93 199.513C268.592 201.131 270.141 205.493 270.141 205.493Z" fill="#A54134"/>
<path d="M274.437 223.995C274.155 223.995 273.944 223.854 273.733 223.643C272.535 222.166 271.057 221.603 268.803 221.885C268.31 221.955 267.888 221.603 267.817 221.111C267.747 220.618 268.099 220.196 268.592 220.126C271.479 219.774 273.451 220.477 275.071 222.518C275.352 222.869 275.352 223.432 274.93 223.784C274.859 223.925 274.648 223.995 274.437 223.995Z" fill="#8E3925"/>
<path d="M244.155 222.025C244.014 222.025 243.803 221.955 243.662 221.885C243.24 221.603 243.099 221.111 243.38 220.689C244.859 218.437 248.028 218.297 250.352 219.141C250.845 219.282 251.056 219.774 250.916 220.267C250.775 220.759 250.282 220.97 249.789 220.829C248.028 220.196 245.775 220.267 244.859 221.674C244.789 221.885 244.437 222.025 244.155 222.025Z" fill="#8E3925"/>
<path d="M246.409 234.407C246.409 237.15 244.155 239.402 241.409 239.402C238.662 239.402 236.409 237.15 236.409 234.407V230.186C236.409 227.442 238.662 225.191 241.409 225.191C244.155 225.191 246.409 227.442 246.409 230.186V234.407Z" fill="#FFB287"/>
<path d="M258.592 342.043C260.775 341.621 263.31 341.621 266.55 342.535C270 343.45 273.873 345.42 277.254 346.897C286.69 336.907 288.028 301.029 288.028 301.029L286.338 305.461C286.338 305.461 273.099 311.511 273.169 312.144C273.31 312.637 263.803 338.737 258.592 342.043Z" fill="#268E5A"/>
<path d="M290.211 322.204C289.225 331.631 287.887 342.113 286.409 346.686C285.352 349.852 281.69 348.796 277.254 346.897C273.873 345.42 270 343.45 266.549 342.535C263.662 341.761 261.338 341.691 259.296 341.973C259.085 341.973 258.803 342.043 258.592 342.043C254.789 342.746 251.901 344.575 248.38 345.068C248.31 345.068 248.24 345.068 248.169 345.068C248.028 345.068 247.958 345.068 247.887 345.138C247.465 345.209 247.113 345.209 246.831 345.209C246.127 345.209 245.775 345.068 244.859 344.716C243.944 344.435 242.394 343.942 239.296 343.239C239.085 343.168 238.873 343.168 238.662 343.098H238.592H238.521C235.704 342.465 232.887 342.113 229.014 342.465C229.437 341.128 229.789 339.651 230.141 338.103C230.704 335.641 231.268 332.546 231.831 329.098L240.423 328.114L240.775 328.043L243.803 327.691L272.958 324.244L290.211 322.204Z" fill="#24774B"/>
<path d="M289.296 199.654C290.211 196.84 285.634 190.508 285.634 190.508C285.634 190.508 282.535 194.659 283.592 197.121C284.718 199.513 288.38 202.468 289.296 199.654Z" fill="#A54134"/>
<path d="M288.592 198.88C291.972 197.544 298.451 203.664 298.451 203.664C298.451 203.664 293.592 205.845 290.212 204.086C287.676 202.75 285.704 200.006 288.592 198.88Z" fill="#A54134"/>
<path d="M248.873 228.779C248.803 228.779 248.803 228.779 248.733 228.779C248.24 228.708 247.817 228.497 247.535 228.146C247.254 227.794 247.113 227.372 247.113 226.879C247.183 225.965 247.958 225.261 248.873 225.261C248.944 225.261 248.944 225.261 249.014 225.261C250 225.332 250.704 226.176 250.634 227.161C250.564 228.075 249.789 228.779 248.873 228.779Z" fill="#422B27"/>
<path d="M269.226 241.794C269.226 241.794 265.493 250.658 256.55 250.025C246.62 249.321 247.465 240.176 247.465 240.176L269.226 241.794Z" fill="#8E2B30"/>
<path d="M255.705 236.658C253.24 236.447 251.338 234.899 251.55 233.492C251.62 233 252.184 232.437 253.099 232.93C253.522 233.141 254.719 233.492 255.916 233.633C257.184 233.703 257.888 233.563 258.592 233.352C260.212 233 260.634 233.633 260.634 234.196C260.634 235.603 258.169 236.799 255.705 236.658Z" fill="#F58D6C"/>
<path d="M251.409 248.407C254.155 245.522 260.564 246.156 265.493 246.859C263.451 248.688 260.493 250.306 256.55 249.954C254.296 249.814 252.676 249.251 251.409 248.407Z" fill="#D85365"/>
<path d="M269.225 241.864C269.085 242.146 268.592 243.131 267.817 244.186C267.817 244.186 268.451 243.412 268.099 243.482C268.099 243.482 251.056 244.186 248.873 241.583L248.38 240.176L269.225 241.724V241.864Z" fill="white"/>
<path d="M289.226 235.181C289.366 234.125 290.352 233.352 291.409 233.422C291.479 233.422 291.55 233.422 291.62 233.492C291.831 233.422 292.043 233.422 292.254 233.492C293.31 233.633 294.085 234.618 294.014 235.673L293.733 238.206C293.592 239.261 292.606 240.035 291.55 239.964C291.479 239.964 291.409 239.964 291.338 239.894C291.127 239.964 290.916 239.964 290.704 239.894C289.648 239.753 288.873 238.769 288.944 237.713L289.226 235.181Z" fill="#F58D6C"/>
<path d="M245.775 265.291C238.099 269.301 235.705 277.813 235.986 292.024L236.902 298.778H243.733L245.775 265.291Z" fill="#268E5A"/>
<path d="M279.648 298.566C282.465 292.376 282.888 288.436 283.451 285.692L279.155 294.205L271.62 287.944L270.845 288.436L270.141 289.14C270 292.376 269.789 297.863 269.578 302.154C269.578 302.928 271.549 303.21 272.958 303.21C275.493 303.28 278.38 301.38 279.648 298.566Z" fill="#268E5A"/>
<path d="M279.789 270.075C276.479 268.105 275.986 270.567 267.183 283.441C267.183 283.441 268.944 286.607 269.155 286.677C269.366 286.748 274.366 289.069 274.366 289.069L281.408 277.039L279.789 270.075Z" fill="#3CAF78"/>
<path d="M270 287.17C268.733 286.888 266.62 285.27 266.972 284.004C267.395 282.738 271.127 280.838 278.099 289.28C283.24 295.401 272.676 301.451 269.014 290.124C268.31 287.733 270 287.17 270 287.17Z" fill="#1E5435"/>
<path d="M219.578 308.978C237.535 312.285 253.451 308.838 262.183 303.421C267.324 300.255 271.268 296.597 274.226 293.149C275.282 291.883 276.197 290.687 277.042 289.491C277.606 288.647 276.127 286.396 273.31 284.356C272.465 283.793 271.761 283.371 271.056 283.089C268.873 282.245 267.606 283.019 267.113 283.652C264.718 286.888 261.127 290.546 256.057 293.712C246.549 299.551 234.366 302.084 219.648 301.099L219.578 308.978Z" fill="#FFB287"/>
<path d="M273.31 284.426C272.465 283.863 271.761 283.441 271.057 283.16C271.338 283.441 271.62 283.722 271.972 284.004C274.366 286.536 274.719 290.546 274.226 293.149C275.282 291.883 276.197 290.687 277.043 289.491C277.606 288.647 276.127 286.396 273.31 284.426Z" fill="#F58D6C"/>
<path d="M244.226 366.454C242.606 359.068 241.902 349.148 247.324 345.279C252.747 341.41 259.859 339.51 271.268 344.294C282.676 349.078 254.085 351.47 253.733 351.751C253.451 352.033 244.226 366.454 244.226 366.454Z" fill="#6D3232"/>
<path d="M252.535 312.214C264.507 312.636 275.282 316.506 276.549 317.631C277.042 317.983 277.183 318.124 277.183 318.546C277.183 317.772 277.253 316.928 277.253 316.083C274.366 314.254 264.296 311.229 253.873 310.667C253.099 311.37 252.606 311.722 252.606 311.722C252.535 311.862 252.535 312.073 252.535 312.214Z" fill="#FF9676"/>
<path opacity="0.5" d="M230.916 314.325C231.761 314.114 232.747 313.902 233.803 313.691C237.042 313.058 241.479 312.566 247.324 312.214C249.085 312.144 250.845 312.144 252.535 312.214C252.535 312.073 252.606 311.862 252.606 311.722C252.606 311.722 253.028 311.37 253.873 310.666C251.69 310.526 249.437 310.526 247.254 310.596C242.887 310.807 238.31 311.3 234.296 311.933C233.169 312.144 232.042 312.355 231.056 312.566C230.986 313.129 230.916 313.691 230.916 314.325Z" fill="#A2A2C9"/>
<path d="M277.042 321.501C276.972 320.797 276.972 320.094 276.972 319.39H277.042C277.042 320.234 277.042 321.008 277.113 321.852C277.113 321.782 277.042 321.641 277.042 321.501Z" fill="#CC2B33"/>
<path d="M257.817 324.807C257.817 324.807 257.817 324.736 257.817 324.807C257.887 324.666 258.028 324.525 258.028 324.455C258.028 324.455 257.958 324.596 257.958 324.807H257.817Z" fill="#CC2B33"/>
<path d="M275.423 354.987C266.338 354.987 260.634 357.59 257.887 364.766C255.141 371.942 258.944 372.082 258.944 372.082C258.944 372.082 270.634 370.464 272.113 370.324C273.592 370.183 278.521 367.721 278.521 367.721L275.423 354.987Z" fill="#4977A5"/>
<path d="M268.099 367.65C268.099 372.505 272.113 376.515 276.972 376.515H308.944C313.803 376.515 318.028 372.505 318.31 367.65L318.521 363.781C318.803 358.927 315 354.917 310.071 354.917H276.902C272.042 354.917 268.028 358.927 268.028 363.781V367.65H268.099Z" fill="#7AAEED"/>
<path d="M274.93 338.032V357.942C274.93 363.64 279.578 368.213 285.211 368.213H303.169C308.873 368.213 312.747 363.64 311.831 358.082L310 346.826C309.085 341.269 307.042 336.696 305.423 336.696C303.803 336.696 302.535 336.696 302.535 336.696" stroke="#2E5389" stroke-width="7.0012" stroke-miterlimit="10" stroke-linecap="round" stroke-linejoin="round"/>
<path d="M315.634 357.238C316.479 362.514 312.746 366.806 307.465 366.806H287.817C282.465 366.806 278.169 362.937 278.169 358.223V353.721" stroke="#CCDDD8" stroke-width="7.0012" stroke-miterlimit="10" stroke-linecap="round" stroke-linejoin="round"/>
<path d="M315.634 357.238L313.451 342.957C313.31 342.254 313.24 341.55 313.028 340.847" stroke="#E1EFEA" stroke-width="7.0012" stroke-miterlimit="10" stroke-linecap="round" stroke-linejoin="round"/>
<path d="M313.028 340.917C312.042 336.696 310.423 333.46 309.014 333.46C307.395 333.46 306.127 333.46 306.127 333.46" stroke="#7F8A99" stroke-width="7.0012" stroke-miterlimit="10" stroke-linecap="round" stroke-linejoin="round"/>
<path d="M278.099 349.64C278.099 349.64 278.099 349.007 278.099 353.721" stroke="#7F8A99" stroke-width="7.0012" stroke-miterlimit="10" stroke-linecap="round" stroke-linejoin="round"/>
<path d="M311.761 333.46H287.747C282.394 333.46 278.099 336.907 278.099 341.058C278.099 345.279 278.099 348.656 278.099 348.656" stroke="#7AAEED" stroke-width="14.0023" stroke-miterlimit="10" stroke-linecap="round" stroke-linejoin="round"/>
<path d="M308.31 327.199H284.296C278.944 327.199 274.648 331.56 274.648 336.837V348.726" stroke="#2E5389" stroke-width="14.0023" stroke-miterlimit="10" stroke-linecap="round" stroke-linejoin="round"/>
<path d="M106.831 447.216C106.831 450.241 104.366 452.704 101.338 452.704C98.31 452.704 95.8452 450.241 95.8452 447.216" fill="#404963"/>
<path d="M64.5069 447.216C64.5069 450.241 62.0421 452.704 59.014 452.704C55.9858 452.704 53.521 450.241 53.521 447.216" fill="#404963"/>
<path d="M150.845 447.216C150.845 450.241 148.38 452.704 145.352 452.704C142.324 452.704 139.859 450.241 139.859 447.216" fill="#56698F"/>
<path d="M115.986 447.216C115.986 450.241 113.521 452.704 110.493 452.704C107.465 452.704 105 450.241 105 447.216" fill="#56698F"/>
<path d="M344.014 312.637H333.732V453.267H344.014V312.637Z" fill="#934631"/>
<path d="M307.183 312.637H296.901V453.267H307.183V312.637Z" fill="#934631"/>
<path d="M307.113 312.637H302.253V453.267H307.113V312.637Z" fill="#D36F54"/>
<path d="M307.183 379.821V453.266H296.831V384.394L307.183 379.821Z" fill="#7A392A"/>
<path d="M81.6196 312.637H71.3379V453.267H81.6196V312.637Z" fill="#934631"/>
<path d="M45.2817 312.637H35V453.267H45.2817V312.637Z" fill="#934631"/>
<path d="M154.155 340.354H50.4932V445.247H154.155V340.354Z" fill="#E0B196"/>
<path d="M154.155 340.354H110.986V445.247H154.155V340.354Z" fill="#EFCBAB"/>
<path d="M234.718 308.697C235.563 308.978 235.493 309.26 234.648 309.26H161.62C160.704 309.26 160 308.556 160 307.642V305.461C160 304.546 160.704 303.843 161.62 303.843H219.718C220.634 303.843 221.972 304.054 222.817 304.406L234.718 308.697Z" fill="#43535B"/>
<path d="M238.31 307.642C238.31 308.556 237.605 309.26 236.69 309.26H221.408C220.493 309.26 219.789 308.556 219.789 307.642V305.461C219.789 304.546 220.493 303.913 221.408 303.983L236.69 304.898C237.605 304.968 238.31 305.742 238.31 306.586V307.642Z" fill="#61778C"/>
<path d="M110.986 415.418V445.247H154.155V403.881L110.986 415.418Z" fill="#EFCBAB"/>
<path d="M344.225 312.707H34.4365V332.335H344.225V312.707Z" fill="#E0B196"/>
<path d="M344.296 321.993H306.479V332.335H344.296V321.993Z" fill="#FFE9CF"/>
<path d="M306.901 312.214H34.4365V322.063H306.901V312.214Z" fill="#96725E"/>
<path d="M242.254 274.295L237.747 294.978" stroke="#5B2727" stroke-width="4.2146" stroke-miterlimit="10" stroke-linecap="round" stroke-linejoin="round"/>
<path d="M223.169 273.803L227.394 297.582" stroke="#37BCF7" stroke-width="4.2146" stroke-miterlimit="10" stroke-linecap="round" stroke-linejoin="round"/>
<path d="M232.113 296.245C232.183 296.245 232.254 296.245 232.324 296.245C233.24 296.245 234.014 295.542 234.155 294.627L235.564 282.245L235.775 280.627L236.127 277.462C236.268 276.477 235.493 275.562 234.507 275.421C233.521 275.281 232.606 276.054 232.465 277.039L232.113 280.346L231.902 281.964L230.493 294.205C230.423 295.19 231.127 296.104 232.113 296.245Z" fill="#FF506E"/>
<path d="M234.296 281.26C233.521 281.12 232.676 281.12 231.972 281.471L232.113 280.276C232.817 279.924 233.662 279.924 234.436 280.064C235 280.205 235.422 280.346 235.775 280.627L235.634 281.823C235.282 281.542 234.859 281.331 234.296 281.26Z" fill="#CFF8FF"/>
<path d="M230.634 287.311C230.422 287.451 230.845 285.833 230.915 285.552C231.127 284.497 231.267 283.441 231.408 282.386C231.549 281.19 231.408 279.361 232.042 278.235C232.465 277.532 233.521 278.165 233.098 278.868C232.746 279.431 232.817 280.557 232.746 281.19C232.605 282.245 232.535 283.301 232.394 284.285C232.253 285.341 231.972 286.396 231.76 287.451C231.69 287.873 231.62 288.084 231.267 288.295C230.634 288.788 230 287.733 230.634 287.311Z" fill="#CFF8FF"/>
<path d="M241.408 286.326H221.549V311.3H241.408V286.326Z" fill="#FFE32A"/>
<path d="M231.338 286.326H221.549V311.3H231.338V286.326Z" fill="#FFAE2C"/>
<path d="M243.028 286.326H219.718V291.602H243.028V286.326Z" fill="#FFE32A"/>
<path d="M241.408 291.602H221.549V294.205H241.408V291.602Z" fill="#E58741"/>
<path d="M232.746 286.326H219.718V291.602H232.746V286.326Z" fill="#FFAE2C"/>
<path d="M240.775 286.326H237.817V291.602H240.775V286.326Z" fill="white"/>
<path d="M313.38 307.642H21.479V317.983H313.38V307.642Z" fill="#E0B196"/>
<path d="M360.493 307.642H311.972V317.983H360.493V307.642Z" fill="#FFE9CF"/>
<path d="M154.155 441.518H50.4932V447.427H154.155V441.518Z" fill="#D36F54"/>
<path opacity="0.68" d="M110.986 441.518H50.4932V447.427H110.986V441.518Z" fill="#8E7262"/>
<path d="M307.254 332.264H296.761V339.088L302.042 335.711H307.254V332.264Z" fill="#934631"/>
<path d="M91.9013 284.637C91.9717 286.396 97.8872 287.803 99.6478 287.803H205.07C206.831 287.803 208.239 286.396 208.169 284.637L206.408 209.221C206.338 207.463 204.929 206.056 203.169 206.056H93.2393C91.4787 206.056 90.0703 207.463 90.1407 209.221L91.9013 284.637Z" fill="#61778C"/>
<path d="M202.394 284.637C202.465 286.396 201.056 287.803 199.296 287.803H89.3663C87.6057 287.803 86.1269 286.396 86.1269 284.637L84.3663 209.221C84.2959 207.463 85.7043 206.056 87.4649 206.056H197.394C199.155 206.056 200.634 207.463 200.634 209.221L202.394 284.637Z" fill="#43535B"/>
<path opacity="0.7" d="M162.535 287.732C162.535 287.732 162.394 287.732 162.042 287.803H127.113C131.549 277.954 150.141 255.653 150.845 255.512C151.761 255.301 156.831 255.301 156.831 255.301L162.535 287.732Z" fill="#A0A6BA"/>
<path d="M154.507 252.135H138.732C136.972 252.135 135.211 253.542 134.718 255.301L130.141 273.733L122.958 303.139C122.817 303.843 122.817 304.476 123.099 304.968C123.451 305.812 124.296 306.305 125.352 306.305H141.127C142.887 306.305 144.648 304.898 145.141 303.139L148.028 291.391L148.873 287.803L156.901 255.301C157.324 253.542 156.268 252.135 154.507 252.135ZM126.056 293.29L127.958 285.974C128.239 284.848 129.437 283.863 130.563 283.863H140.986C142.183 283.863 142.887 284.778 142.535 285.974L140.634 293.29C140.352 294.486 139.155 295.401 137.958 295.401H127.535C126.479 295.33 125.775 294.416 126.056 293.29Z" fill="#61778C"/>
<path d="M154.93 256.145L156.338 252.839L154.648 249.181L145.141 248.477L150.845 255.864L154.93 256.145Z" fill="#61778C"/>
<path d="M152.324 247.844H136.62C134.859 247.844 133.099 249.251 132.606 251.01L120.282 301.802C119.859 303.561 120.916 304.968 122.676 304.968H138.451C140.211 304.968 141.972 303.561 142.465 301.802L154.578 252.135L154.859 251.01C155.211 249.251 154.085 247.844 152.324 247.844ZM142.676 285.903L140.775 293.22C140.493 294.416 139.296 295.33 138.099 295.33H127.676C126.479 295.33 125.775 294.416 126.127 293.22L128.028 285.903C128.31 284.778 129.507 283.793 130.634 283.793H141.057C142.254 283.793 142.958 284.778 142.676 285.903Z" fill="#506175"/>
<path d="M166.409 306.023C166.409 306.938 165.705 307.642 164.789 307.642H114.859C113.944 307.642 113.24 306.938 113.24 306.023V303.913C113.24 302.998 113.944 302.295 114.859 302.295H164.789C165.705 302.295 166.409 302.998 166.409 303.913V306.023Z" fill="#506175"/>
<path d="M168.521 306.023C168.521 306.938 167.817 307.642 166.901 307.642H151.62C150.704 307.642 150 306.938 150 306.023V303.913C150 302.998 150.704 302.295 151.62 302.295H166.901C167.817 302.295 168.521 302.998 168.521 303.913V306.023Z" fill="#61778C"/>
<path d="M129.719 292.375C129.648 292.446 129.648 292.517 129.648 292.446C129.577 292.446 129.648 292.446 129.719 292.375Z" fill="#BFCBD1"/>
<path d="M129.084 294.768L130.986 287.451C131.267 286.255 132.465 285.341 133.662 285.341H142.746C142.676 284.496 142.042 283.863 141.127 283.863H130.704C129.507 283.863 128.38 284.778 128.028 285.974L126.127 293.29C125.845 294.486 126.549 295.401 127.676 295.401H129.084C129.014 295.19 129.014 294.979 129.084 294.768Z" fill="#334251"/>
<path d="M246.831 345.209C246.127 345.209 245.775 345.068 244.859 344.716C245.493 344.927 246.197 345.068 246.831 345.209Z" fill="#492323"/>
<path d="M295 106.651L290.774 93.3545L304.436 96.3796L318.028 99.3343L308.591 109.605L299.225 119.947L295 106.651Z" fill="#00C7EA"/>
<path d="M123.169 22.5121C121.972 22.5121 120.986 21.5272 120.986 20.3312V2.18086C120.986 0.984903 121.972 0 123.169 0C124.366 0 125.352 0.984903 125.352 2.18086V20.4016C125.352 21.5975 124.366 22.5121 123.169 22.5121Z" fill="#FF4F00"/>
<path d="M132.324 13.4369H114.084C112.887 13.4369 111.901 12.452 111.901 11.2561C111.901 10.0601 112.887 9.0752 114.084 9.0752H132.324C133.521 9.0752 134.507 10.0601 134.507 11.2561C134.437 12.452 133.521 13.4369 132.324 13.4369Z" fill="#FF4F00"/>
</g>
<defs>
<clipPath id="clip0">
<rect width="375" height="466" fill="white"/>
</clipPath>
</defs>
</svg>
