<svg width="491" height="448" viewBox="0 0 491 448" fill="none" xmlns="http://www.w3.org/2000/svg">
<g clip-path="url(#clip0)">
<path opacity="0.4" d="M267.2 447.4C390.746 447.4 490.9 347.246 490.9 223.7C490.9 100.154 390.746 0 267.2 0C143.654 0 43.5 100.154 43.5 223.7C43.5 347.246 143.654 447.4 267.2 447.4Z" fill="#FDC515"/>
<path d="M64.3998 64.5999L68.4998 53.3999L76.1998 62.5999L83.8998 71.7999L72.0998 73.7999L60.2998 75.8999L64.3998 64.5999Z" stroke="#FF4F00" stroke-width="0.7511" stroke-miterlimit="10"/>
<path d="M37.9996 94.4001C41.8104 94.4001 44.8996 91.3109 44.8996 87.5001C44.8996 83.6893 41.8104 80.6001 37.9996 80.6001C34.1888 80.6001 31.0996 83.6893 31.0996 87.5001C31.0996 91.3109 34.1888 94.4001 37.9996 94.4001Z" stroke="#00C7EA" stroke-width="0.7511" stroke-miterlimit="10"/>
<path d="M8 180.4H101.9L93.8 121.4H0L8 180.4Z" fill="#FF1F1F"/>
<path d="M78.4004 176.5L93.9004 195.3L91.5004 178.2L78.4004 176.5Z" fill="#FF1F1F"/>
<path d="M16.6994 135H18.7994L17.1994 143.8H20.1994L19.8994 145.8H14.8994L16.6994 135Z" fill="white"/>
<path d="M29.7998 142.4H23.3998C23.3998 143 23.5998 143.4 23.8998 143.8C24.1998 144.1 24.6998 144.3 25.3998 144.3C26.0998 144.3 26.7998 144 27.4998 143.5L28.9998 144.3C28.4998 144.9 27.8998 145.3 27.2998 145.6C26.6998 145.9 25.8998 146 25.0998 146C23.7998 146 22.8998 145.6 22.2998 144.8C21.6998 144 21.3998 143 21.5998 141.8C21.7998 140.6 22.3998 139.6 23.2998 138.8C24.1998 138 25.2998 137.6 26.4998 137.6C27.7998 137.6 28.6998 138 29.3998 138.8C29.9998 139.6 30.2998 140.7 29.9998 142L29.7998 142.4ZM27.9998 140.8C27.8998 140.4 27.6998 140 27.3998 139.7C27.0998 139.4 26.5998 139.3 26.0998 139.3C25.4998 139.3 24.9998 139.5 24.4998 139.8C24.1998 140 23.8998 140.3 23.5998 140.8H27.9998Z" fill="white"/>
<path d="M32.9 134.9H34.9L34.4 137.8H35.6L35.3 139.5H34.1L33 145.8H31L32.1 139.5H31.1L31.4 137.8H32.4L32.9 134.9Z" fill="white"/>
<path d="M37.8002 138.4H36.7002L36.9002 134.7H38.8002L37.8002 138.4Z" fill="white"/>
<path d="M44.7002 138.9L43.2002 140.1C42.8002 139.6 42.4002 139.4 42.0002 139.4C41.8002 139.4 41.6002 139.4 41.4002 139.5C41.3002 139.6 41.2002 139.7 41.1002 139.9C41.1002 140 41.1002 140.1 41.2002 140.2C41.3002 140.3 41.4002 140.4 41.7002 140.6L42.4002 141C43.1002 141.4 43.6002 141.8 43.8002 142.2C44.0002 142.6 44.1002 143.1 44.0002 143.6C43.9002 144.3 43.5002 144.9 42.9002 145.4C42.3002 145.9 41.6002 146.1 40.7002 146.1C39.5002 146.1 38.7002 145.6 38.2002 144.7L39.7002 143.4C39.9002 143.7 40.1002 143.9 40.4002 144.1C40.7002 144.3 41.0002 144.4 41.2002 144.4C41.5002 144.4 41.7002 144.3 41.9002 144.2C42.1002 144.1 42.2002 143.9 42.2002 143.8C42.3002 143.5 42.0002 143.2 41.5002 142.9L40.9002 142.6C39.7002 142 39.2002 141.1 39.4002 140.2C39.5002 139.6 39.8002 139 40.4002 138.6C41.0002 138.2 41.6002 137.9 42.4002 137.9C42.9002 137.9 43.4002 138 43.8002 138.2C44.1002 138.2 44.4002 138.5 44.7002 138.9Z" fill="white"/>
<path d="M55.5 138.9L54 140.1C53.6 139.6 53.2 139.4 52.8 139.4C52.6 139.4 52.4 139.4 52.2 139.5C52.1 139.6 52 139.7 51.9 139.9C51.9 140 51.9 140.1 52 140.2C52.1 140.3 52.2 140.4 52.5 140.6L53.2 141C53.9 141.4 54.4 141.8 54.6 142.2C54.8 142.6 54.9 143.1 54.8 143.6C54.7 144.3 54.3 144.9 53.7 145.4C53.1 145.9 52.4 146.1 51.5 146.1C50.3 146.1 49.5 145.6 49 144.7L50.5 143.4C50.7 143.7 50.9 143.9 51.2 144.1C51.5 144.3 51.8 144.4 52 144.4C52.3 144.4 52.5 144.3 52.7 144.2C52.9 144.1 53 143.9 53 143.8C53.1 143.5 52.8 143.2 52.3 142.9L51.7 142.6C50.5 142 50 141.1 50.2 140.2C50.3 139.6 50.6 139 51.2 138.6C51.8 138.2 52.4 137.9 53.2 137.9C53.7 137.9 54.2 138 54.6 138.2C54.9 138.2 55.2 138.5 55.5 138.9Z" fill="white"/>
<path d="M58.1998 134.9H60.1998L59.6998 137.8H60.8998L60.5998 139.5H59.3998L58.2998 145.8H56.2998L57.3998 139.5H56.3998L56.6998 137.8H57.6998L58.1998 134.9Z" fill="white"/>
<path d="M61.8998 137.8H63.8998L63.1998 141.6C63.0998 142.3 62.9998 142.9 63.0998 143.2C63.1998 143.5 63.2998 143.7 63.4998 143.9C63.6998 144.1 63.9998 144.1 64.2998 144.1C64.5998 144.1 64.8998 144 65.1998 143.9C65.4998 143.7 65.6998 143.5 65.7998 143.2C65.8998 143 66.0998 142.5 66.1998 141.7L66.8998 137.8H68.8998L68.2998 141.2C68.0998 142.6 67.7998 143.5 67.4998 144.1C67.0998 144.7 66.5998 145.2 66.0998 145.5C65.4998 145.8 64.7998 146 63.9998 146C63.0998 146 62.4998 145.8 61.9998 145.4C61.4998 145 61.1998 144.5 61.0998 143.8C60.9998 143.3 61.0998 142.4 61.2998 141.2L61.8998 137.8Z" fill="white"/>
<path d="M77.2996 134.7H79.2996L77.3996 145.8H75.3996L75.4996 145C74.9996 145.4 74.5996 145.6 74.1996 145.8C73.7996 146 73.2996 146 72.8996 146C71.8996 146 70.9996 145.6 70.3996 144.8C69.7996 144 69.5996 143 69.7996 141.8C69.9996 140.6 70.5996 139.6 71.3996 138.8C72.2996 138 73.1996 137.6 74.2996 137.6C74.7996 137.6 75.1996 137.7 75.5996 137.9C75.9996 138.1 76.2996 138.4 76.5996 138.7L77.2996 134.7ZM74.3996 139.5C73.7996 139.5 73.1996 139.7 72.6996 140.2C72.1996 140.6 71.8996 141.2 71.7996 141.9C71.6996 142.6 71.7996 143.2 72.0996 143.6C72.3996 144 72.8996 144.3 73.4996 144.3C74.0996 144.3 74.6996 144.1 75.1996 143.6C75.6996 143.2 75.9996 142.6 76.0996 141.9C76.1996 141.2 76.0996 140.6 75.7996 140.2C75.4996 139.7 74.9996 139.5 74.3996 139.5Z" fill="white"/>
<path d="M79.8994 137.8H81.8994L83.0994 142.8L86.2994 137.8H88.3994L81.4994 148.7H79.3994L81.6994 145.2L79.8994 137.8Z" fill="white"/>
<path d="M13.4998 154.2H20.3998L19.9998 156.5H15.4998L15.0998 158.8H19.5998L19.1998 161.1H14.6998L14.0998 164.4H18.5998L18.1998 166.8H11.2998L13.4998 154.2Z" fill="white"/>
<path d="M22.5994 154.2H24.8994L28.7994 162.5L30.2994 154.2H32.6994L30.4994 166.8H28.1994L24.2994 158.5L22.7994 166.8H20.3994L22.5994 154.2Z" fill="white"/>
<path d="M46.7994 156.3L44.7994 158C43.8994 156.9 42.7994 156.3 41.3994 156.3C40.1994 156.3 39.0994 156.7 38.0994 157.5C37.0994 158.3 36.4994 159.3 36.2994 160.5C36.0994 161.7 36.2994 162.7 37.0994 163.6C37.7994 164.4 38.7994 164.9 40.0994 164.9C40.8994 164.9 41.6994 164.7 42.2994 164.4C42.8994 164.1 43.4994 163.5 43.9994 162.8H40.3994L40.7994 160.6H46.9994L46.8994 161.1C46.6994 162.2 46.1994 163.2 45.4994 164.2C44.7994 165.2 43.8994 165.9 42.8994 166.5C41.8994 167 40.7994 167.3 39.5994 167.3C38.2994 167.3 37.1994 167 36.2994 166.4C35.3994 165.8 34.6994 165 34.2994 164C33.8994 163 33.7994 161.8 33.9994 160.6C34.2994 158.9 35.0994 157.5 36.3994 156.3C37.9994 154.8 39.7994 154.1 41.8994 154.1C42.9994 154.1 43.9994 154.3 44.8994 154.7C45.4994 154.9 46.1994 155.5 46.7994 156.3Z" fill="white"/>
<path d="M50.2996 154.2H52.6996L50.8996 164.5H54.3996L53.9996 166.8H48.0996L50.2996 154.2Z" fill="white"/>
<path d="M57.7996 154.2H60.1996L57.9996 166.8H55.5996L57.7996 154.2Z" fill="white"/>
<path d="M69.1996 155.9L67.1996 157.5C66.6996 156.6 66.1996 156.2 65.4996 156.2C65.1996 156.2 64.8996 156.3 64.6996 156.5C64.4996 156.7 64.2996 156.9 64.2996 157.1C64.2996 157.3 64.2996 157.5 64.3996 157.7C64.4996 158 64.9996 158.5 65.8996 159.3C66.6996 160.1 67.0996 160.5 67.2996 160.7C67.6996 161.2 67.9996 161.7 68.0996 162.1C68.1996 162.5 68.1996 163 68.0996 163.6C67.8996 164.6 67.3996 165.5 66.5996 166.2C65.7996 166.9 64.7996 167.2 63.5996 167.2C62.6996 167.2 61.9996 167 61.3996 166.5C60.7996 166.1 60.3996 165.4 60.0996 164.4L62.2996 163.2C62.6996 164.3 63.2996 164.9 64.0996 164.9C64.4996 164.9 64.8996 164.8 65.1996 164.5C65.4996 164.3 65.6996 164 65.7996 163.7C65.8996 163.4 65.7996 163.1 65.5996 162.8C65.3996 162.5 65.0996 162.1 64.3996 161.5C63.1996 160.4 62.4996 159.5 62.1996 158.9C61.8996 158.3 61.7996 157.7 61.8996 157.1C62.0996 156.2 62.4996 155.5 63.2996 154.9C64.0996 154.3 64.9996 154 65.8996 154C66.4996 154 67.0996 154.1 67.5996 154.4C68.0996 154.6 68.6996 155.2 69.1996 155.9Z" fill="white"/>
<path d="M71.9998 154.2H74.3998L73.5998 158.9H77.7998L78.5998 154.2H80.9998L78.7998 166.8H76.3998L77.3998 161.3H73.1998L72.1998 166.8H69.7998L71.9998 154.2Z" fill="white"/>
<path d="M83.2002 164.1C83.6002 164.1 83.9002 164.2 84.2002 164.5C84.4002 164.8 84.5002 165.1 84.4002 165.5C84.3002 165.9 84.1002 166.2 83.8002 166.5C83.5002 166.8 83.1002 166.9 82.7002 166.9C82.3002 166.9 82.0002 166.8 81.7002 166.5C81.5002 166.2 81.4002 165.9 81.5002 165.5C81.6002 165.1 81.8002 164.8 82.1002 164.5C82.4002 164.3 82.8002 164.1 83.2002 164.1ZM83.8002 153.9H86.2002L84.6002 163.1H82.2002L83.8002 153.9Z" fill="white"/>
<path d="M403.023 67.4879L388.382 65.3301L369.559 193.049L384.201 195.207L403.023 67.4879Z" fill="#FCBC3B"/>
<path d="M403 67.5001L388.4 65.3001L394.8 57.4001L397.5 54.1001L399.1 57.9001L403 67.5001Z" fill="white"/>
<path d="M399.101 57.9001L394.801 57.4001L397.501 54.1001L399.101 57.9001Z" fill="#44292B"/>
<path d="M384.2 195.2L369.5 193.1L388.4 65.3003L403 67.5003L384.2 195.2Z" fill="url(#paint0_linear)"/>
<path d="M383.103 66.6116L368.352 65.4121L357.888 194.086L372.639 195.286L383.103 66.6116Z" fill="#CD453D"/>
<path d="M383.1 66.6L368.4 65.4L374.3 57L376.7 53.5L378.6 57.3L383.1 66.6Z" fill="white"/>
<path d="M378.601 57.3L374.301 57L376.701 53.5L378.601 57.3Z" fill="#D4453D"/>
<path d="M372.6 195.3L357.9 194.1L368.4 65.3999L383.1 66.5999L372.6 195.3Z" fill="url(#paint1_linear)"/>
<path d="M321.318 61.474L306.619 63.2026L321.698 191.425L336.397 189.696L321.318 61.474Z" fill="#FA6920"/>
<path d="M321.301 61.5L306.601 63.2L310.701 53.9L312.501 50L315.001 53.3L321.301 61.5Z" fill="white"/>
<path d="M315 53.3L310.7 53.9L312.5 50L315 53.3Z" fill="#E57339"/>
<path d="M336.301 189.8L321.601 191.5L306.601 63.2L321.301 61.5L336.301 189.8Z" fill="url(#paint2_linear)"/>
<path d="M361.6 185.1H347.7V61.9999C347.7 59.6999 349.6 57.8999 351.8 57.8999H357.4C359.7 57.8999 361.5 59.7999 361.5 61.9999V185.1H361.6Z" fill="#293753"/>
<path d="M361.6 185.1H347.7V61.9999C347.7 59.6999 349.6 57.8999 351.8 57.8999H357.4C359.7 57.8999 361.5 59.7999 361.5 61.9999V185.1H361.6Z" fill="url(#paint3_linear)"/>
<path d="M341 77.3003H326.9V180H341V77.3003Z" fill="#FCBC3B"/>
<path d="M341 77.3003H326.9V180H341V77.3003Z" fill="url(#paint4_linear)"/>
<path d="M330.3 172.3C330.3 173.4 330.3 174.4 330.3 175.4C330.3 176.4 330.3 177.1 330.4 177.8C330.4 178.4 330.5 178.7 330.5 178.7C330.5 178.7 330.6 178.6 330.6 178.4C330.6 178.2 330.6 177.9 330.6 177.5C330.6 177.1 330.6 176.6 330.6 176.1C330.6 175.6 330.6 174.9 330.6 174.2C330.6 173.4 330.6 171.6 330.6 168.7C330.6 165.8 330.6 162.3 330.6 158.1C330.6 153.9 330.6 149.2 330.6 144.1C330.6 139 330.6 133.8 330.6 128.5C330.6 123.2 330.6 118.2 330.6 113.2C330.6 108.3 330.6 103.9 330.6 100C330.6 96.2002 330.6 93.1002 330.5 90.7002C330.5 88.4002 330.5 87.2002 330.4 87.2002C330.4 87.2002 330.4 88.3002 330.3 90.6002C330.3 92.9002 330.3 95.9002 330.3 99.6002C330.3 103.4 330.3 107.6 330.3 112.4C330.3 117.2 330.3 122.1 330.3 127.2C330.3 132.3 330.3 137.2 330.3 142.1C330.3 147 330.3 151.4 330.3 155.3C330.3 159.2 330.3 162.4 330.3 165C330.3 167.5 330.3 169 330.3 169.3C330.3 170.2 330.3 171.2 330.3 172.3Z" fill="#994D26"/>
<path d="M337.3 172.3C337.3 173.4 337.3 174.4 337.3 175.4C337.3 176.4 337.3 177.1 337.4 177.8C337.4 178.4 337.5 178.7 337.5 178.7C337.5 178.7 337.6 178.6 337.6 178.4C337.6 178.2 337.6 177.9 337.6 177.5C337.6 177.1 337.6 176.6 337.6 176.1C337.6 175.6 337.6 174.9 337.6 174.2C337.6 173.4 337.6 171.6 337.6 168.7C337.6 165.8 337.6 162.3 337.6 158.1C337.6 153.9 337.6 149.2 337.6 144.1C337.6 139 337.6 133.8 337.6 128.5C337.6 123.2 337.6 118.2 337.6 113.2C337.6 108.3 337.6 103.9 337.6 100C337.6 96.2002 337.6 93.1002 337.5 90.7002C337.5 88.4002 337.5 87.2002 337.4 87.2002C337.4 87.2002 337.4 88.3002 337.3 90.6002C337.3 92.9002 337.3 95.9002 337.3 99.6002C337.3 103.4 337.3 107.6 337.3 112.4C337.3 117.2 337.3 122.1 337.3 127.2C337.3 132.3 337.3 137.2 337.3 142.1C337.3 147 337.3 151.4 337.3 155.3C337.3 159.2 337.3 162.4 337.3 165C337.3 167.5 337.3 169 337.3 169.3C337.3 170.2 337.3 171.2 337.3 172.3Z" fill="#994D26"/>
<path d="M341 80.7001H326.9V66.9001C326.9 65.9001 327.7 65.1001 328.7 65.1001H339.1C340.1 65.1001 340.9 65.9001 340.9 66.9001V80.7001H341Z" fill="#FE887C"/>
<path d="M341 80.7001H326.9V66.9001C326.9 65.9001 327.7 65.1001 328.7 65.1001H339.1C340.1 65.1001 340.9 65.9001 340.9 66.9001V80.7001H341Z" fill="url(#paint5_linear)"/>
<path d="M340.8 87.2999H327.1C326.6 87.2999 326.2 86.8999 326.2 86.3999V79.7999C326.2 79.2999 326.6 78.8999 327.1 78.8999H340.8C341.3 78.8999 341.7 79.2999 341.7 79.7999V86.3999C341.7 86.8999 341.3 87.2999 340.8 87.2999Z" fill="#B8CADC"/>
<path d="M290.387 79.0188L276.452 81.1704L292.124 182.669L306.059 180.517L290.387 79.0188Z" fill="white"/>
<path d="M306 180.5L292.1 182.7L276.4 81.2L290.4 79L306 180.5Z" fill="url(#paint6_linear)"/>
<path d="M294.2 174.6C294.4 175.7 294.5 176.7 294.7 177.6C294.9 178.5 295 179.3 295.1 179.9C295.2 180.5 295.3 180.8 295.3 180.8C295.3 180.8 295.3 180.7 295.3 180.5C295.3 180.3 295.3 180 295.2 179.6C295.1 179.2 295.1 178.8 295 178.2C294.9 177.7 294.8 177 294.7 176.3C294.6 175.5 294.3 173.7 293.9 170.9C293.5 168 292.9 164.6 292.3 160.4C291.7 156.3 291 151.6 290.2 146.6C289.4 141.5 288.6 136.4 287.8 131.2C287 126 286.2 121 285.5 116.1C284.7 111.2 284.1 106.9 283.5 103.1C282.9 99.3004 282.4 96.3004 282 93.9004C281.6 91.6004 281.4 90.4004 281.4 90.4004C281.4 90.4004 281.5 91.5004 281.9 93.8004C282.2 96.1004 282.7 99.0004 283.2 102.7C283.8 106.4 284.4 110.6 285.1 115.4C285.8 120.2 286.6 125 287.3 130C288.1 135 288.8 139.9 289.6 144.7C290.3 149.5 291 153.9 291.6 157.7C292.2 161.6 292.7 164.7 293.1 167.2C293.5 169.7 293.7 171.1 293.8 171.4C293.9 172.5 294.1 173.5 294.2 174.6Z" fill="#3F35A3"/>
<path d="M301.101 173.5C301.301 174.6 301.401 175.6 301.601 176.5C301.801 177.4 301.901 178.2 302.001 178.8C302.101 179.4 302.201 179.7 302.201 179.7C302.201 179.7 302.201 179.6 302.201 179.4C302.201 179.2 302.201 178.9 302.101 178.5C302.101 178.1 302.001 177.7 301.901 177.1C301.801 176.6 301.701 175.9 301.601 175.2C301.501 174.4 301.201 172.6 300.801 169.8C300.401 166.9 299.801 163.5 299.201 159.3C298.601 155.2 297.901 150.5 297.101 145.5C296.301 140.4 295.501 135.3 294.701 130.1C293.901 124.9 293.101 119.9 292.401 115C291.601 110.1 291.001 105.8 290.401 102C289.801 98.2003 289.301 95.2003 288.901 92.8003C288.501 90.5003 288.301 89.3003 288.301 89.3003C288.301 89.3003 288.401 90.4003 288.801 92.7003C289.101 95.0003 289.601 97.9003 290.101 101.6C290.701 105.3 291.301 109.5 292.001 114.3C292.701 119.1 293.501 123.9 294.201 128.9C295.001 133.9 295.701 138.8 296.501 143.6C297.201 148.4 297.901 152.8 298.501 156.6C299.101 160.5 299.601 163.6 300.001 166.1C300.401 168.6 300.601 170 300.701 170.3C300.801 171.5 301.001 172.4 301.101 173.5Z" fill="#3F35A3"/>
<path d="M290.9 82.3002L277 84.5002L274.9 70.9002C274.7 69.9002 275.4 69.0002 276.4 68.8002L286.7 67.2002C287.7 67.0002 288.6 67.7002 288.8 68.7002L290.9 82.3002Z" fill="#FE887C"/>
<path d="M290.9 82.3002L277 84.5002L274.9 70.9002C274.7 69.9002 275.4 69.0002 276.4 68.8002L286.7 67.2002C287.7 67.0002 288.6 67.7002 288.8 68.7002L290.9 82.3002Z" fill="url(#paint7_linear)"/>
<path d="M291.7 88.9003L278.1 91.0003C277.6 91.1003 277.2 90.8003 277.1 90.3003L276.1 83.8003C276 83.3003 276.3 82.9003 276.8 82.8003L290.4 80.7003C290.9 80.6003 291.3 80.9003 291.4 81.4003L292.4 87.9003C292.5 88.4003 292.2 88.8003 291.7 88.9003Z" fill="#B8CADC"/>
<path d="M305.793 75.2723L293.806 76.9155L308.092 181.137L320.079 179.494L305.793 75.2723Z" fill="#293753"/>
<path d="M320.101 179.4L308.101 181.1L293.801 76.9002L305.801 75.2002L320.101 179.4Z" fill="url(#paint8_linear)"/>
<path d="M308.1 75.6L306.8 75.8C306 73.7 303.7 72.3 301.4 72.6L297.5 73.1C294.7 73.5 292.8 76.1 293.1 78.8L297.1 108.2C297.2 108.8 297.8 109.3 298.4 109.2L310.2 107.6C310.8 107.5 311.3 106.9 311.2 106.3L307.2 78C307.7 78 308.2 78.4 308.3 78.9L312.4 109.1C312.5 109.8 313.1 110.2 313.8 110.1C314.5 110 314.9 109.4 314.8 108.7L310.5 77.4C310.5 76.3 309.3 75.5 308.1 75.6Z" fill="#81D91C"/>
<path d="M308.1 75.6L306.8 75.8C306 73.7 303.7 72.3 301.4 72.6L297.5 73.1C294.7 73.5 292.8 76.1 293.1 78.8L297.1 108.2C297.2 108.8 297.8 109.3 298.4 109.2L310.2 107.6C310.8 107.5 311.3 106.9 311.2 106.3L307.2 78C307.7 78 308.2 78.4 308.3 78.9L312.4 109.1C312.5 109.8 313.1 110.2 313.8 110.1C314.5 110 314.9 109.4 314.8 108.7L310.5 77.4C310.5 76.3 309.3 75.5 308.1 75.6Z" fill="url(#paint9_linear)"/>
<path d="M398.4 151.4L279.4 155.5L296.9 310.6L385.5 314.6L398.4 151.4Z" fill="#5E50F5"/>
<path d="M398.2 151.2L279.2 155.7L297.1 310.8L385.7 314.4L398.2 151.2Z" fill="url(#paint10_linear)"/>
<path d="M434.9 398.3H196.3C175 398.3 157.7 381 157.7 359.7V338C157.7 316.7 175 299.4 196.3 299.4H434.9C434.9 299.4 406.6 342.6 434.9 398.3Z" fill="white"/>
<path d="M434.9 398.3H196.3C175 398.3 157.7 381 157.7 359.7V338C157.7 316.7 175 299.4 196.3 299.4H434.9C434.9 299.4 406.6 342.6 434.9 398.3Z" fill="url(#paint11_linear)"/>
<path d="M307.701 314.5C306.201 314.5 304.701 314.6 303.401 314.6C302.101 314.6 301.001 314.7 300.101 314.8C299.301 314.9 298.801 314.9 298.801 315C298.801 315.1 299.001 315.1 299.301 315.1C299.601 315.1 300.001 315.2 300.601 315.2C301.101 315.2 301.801 315.2 302.601 315.2C303.401 315.2 304.201 315.2 305.201 315.2C306.301 315.2 308.801 315.2 312.901 315.1C316.901 315.1 321.901 315.1 327.801 315C333.701 315 340.201 315 347.401 315C354.601 315 361.901 315 369.201 315C376.601 315 383.701 315.1 390.601 315.1C397.501 315.1 403.701 315.2 409.101 315.2C414.501 315.2 418.801 315.2 422.101 315.3C423.701 315.3 425.001 315.3 425.801 315.3C426.601 315.3 427.001 315.3 427.001 315.2C427.001 315.2 426.901 315.2 426.701 315.2C426.501 315.2 426.201 315.2 425.801 315.2C425.001 315.2 423.801 315.1 422.201 315.1C419.001 315 414.801 315 409.501 314.9C404.201 314.8 398.201 314.8 391.501 314.7C384.801 314.6 377.801 314.6 370.701 314.5C363.601 314.5 356.601 314.4 349.801 314.4C343.001 314.4 336.801 314.4 331.301 314.4C325.801 314.4 321.301 314.4 317.801 314.5C314.301 314.5 312.301 314.5 311.801 314.5C310.701 314.5 309.301 314.5 307.701 314.5Z" fill="#A4AAF8"/>
<path d="M267.301 319.5C266.601 319.5 265.901 319.5 265.301 319.4C264.701 319.4 264.101 319.4 263.701 319.4C263.301 319.4 263.101 319.5 263.101 319.5C263.101 319.6 263.201 319.6 263.301 319.7C263.401 319.7 263.601 319.8 263.901 319.8C264.201 319.8 264.501 319.9 264.801 319.9C265.201 319.9 265.601 320 266.001 320C266.501 320 267.701 320.1 269.601 320.3C271.501 320.4 273.801 320.6 276.601 320.8C279.401 321 282.401 321.1 285.801 321.2C289.201 321.3 292.601 321.4 296.101 321.5C299.601 321.6 302.901 321.6 306.201 321.6C309.501 321.6 312.401 321.5 314.901 321.5C317.401 321.4 319.501 321.3 321.001 321.2C322.501 321.1 323.301 321 323.301 321C323.301 321 323.101 321 322.701 321C322.301 321 321.801 321 321.001 321C319.501 321 317.501 321 315.001 321.1C312.501 321.1 309.701 321.1 306.501 321.1C303.301 321.1 300.101 321 296.701 321C293.401 320.9 290.101 320.8 286.901 320.7C283.701 320.6 280.801 320.4 278.201 320.3C275.601 320.1 273.501 320 271.801 319.9C270.101 319.8 269.201 319.7 269.001 319.7C268.701 319.6 268.001 319.6 267.301 319.5Z" fill="#A4AAF8"/>
<path d="M373.9 332.6C373.3 332.6 372.7 332.7 372.2 332.7C371.7 332.7 371.2 332.8 370.9 332.9C370.6 333 370.4 333 370.4 333.1C370.4 333.2 370.5 333.2 370.6 333.3C370.7 333.3 370.9 333.4 371.1 333.4C371.3 333.4 371.6 333.4 371.9 333.4C372.2 333.4 372.6 333.4 373 333.4C373.4 333.4 374.5 333.4 376.1 333.4C377.7 333.4 379.7 333.4 382.1 333.3C384.5 333.3 387.1 333.2 390 333.2C392.9 333.2 395.8 333.1 398.8 333.1C401.8 333.1 404.6 333 407.4 333C410.2 332.9 412.7 332.9 414.8 332.8C417 332.7 418.7 332.7 420 332.6C421.3 332.5 422 332.5 422 332.4C422 332.4 421.4 332.3 420.1 332.3C418.8 332.3 417.1 332.3 415 332.3C412.9 332.3 410.5 332.3 407.8 332.3C405.1 332.3 402.3 332.3 399.4 332.4C396.5 332.5 393.7 332.5 391 332.5C388.3 332.5 385.8 332.6 383.6 332.6C381.4 332.6 379.6 332.6 378.2 332.7C376.8 332.7 376 332.7 375.8 332.7C375.1 332.5 374.5 332.5 373.9 332.6Z" fill="#A4AAF8"/>
<path d="M395.701 338.4C395.401 338.4 395.101 338.5 394.801 338.5C394.501 338.6 394.301 338.6 394.101 338.7C393.901 338.8 393.801 338.8 393.801 338.9C393.801 339 393.801 339 393.901 339C394.001 339 394.101 339.1 394.201 339.1C394.301 339.1 394.501 339.1 394.601 339.1C394.801 339.1 395.001 339.1 395.201 339.1C395.401 339.1 396.001 339.1 396.801 339C397.701 339 398.701 338.9 400.001 338.9C401.301 338.9 402.701 338.8 404.201 338.8C405.701 338.8 407.301 338.7 408.901 338.7C410.501 338.7 412.001 338.7 413.501 338.7C415.001 338.7 416.301 338.7 417.501 338.7C418.701 338.7 419.601 338.7 420.301 338.7C421.001 338.7 421.401 338.6 421.401 338.6C421.401 338.6 421.101 338.5 420.401 338.5C419.701 338.4 418.801 338.4 417.701 338.4C416.601 338.4 415.301 338.3 413.801 338.3C412.301 338.3 410.901 338.3 409.301 338.3C407.801 338.3 406.301 338.3 404.801 338.3C403.301 338.3 402.001 338.4 400.801 338.4C399.601 338.4 398.601 338.5 397.901 338.5C397.101 338.5 396.701 338.6 396.601 338.6C396.301 338.4 396.001 338.4 395.701 338.4Z" fill="#A4AAF8"/>
<path d="M354.6 359.7C353.7 359.6 352.9 359.6 352.1 359.5C351.3 359.5 350.7 359.4 350.2 359.4C349.7 359.4 349.4 359.4 349.4 359.5C349.4 359.6 349.5 359.6 349.7 359.7C349.9 359.8 350.1 359.8 350.4 359.9C350.7 360 351.1 360 351.5 360.1C351.9 360.1 352.5 360.2 353 360.3C353.6 360.4 355.1 360.5 357.5 360.7C359.9 360.9 362.8 361.2 366.2 361.5C369.6 361.8 373.5 362.1 377.7 362.4C381.9 362.7 386.2 362.9 390.5 363.1C394.8 363.3 399 363.5 403.1 363.6C407.2 363.7 410.8 363.8 413.9 363.8C417.1 363.8 419.6 363.8 421.5 363.8C423.4 363.8 424.4 363.7 424.4 363.7C424.4 363.7 424.2 363.7 423.7 363.6C423.2 363.6 422.5 363.6 421.6 363.5C419.7 363.5 417.3 363.4 414.2 363.3C411.1 363.2 407.6 363.1 403.7 363C399.8 362.9 395.7 362.7 391.5 362.5C387.3 362.3 383.3 362.1 379.3 361.8C375.3 361.5 371.7 361.3 368.5 361C365.3 360.7 362.7 360.5 360.6 360.3C358.5 360.1 357.4 360 357.1 360C356.3 359.9 355.5 359.8 354.6 359.7Z" fill="#A4AAF8"/>
<path d="M395.501 368.4C395.101 368.4 394.801 368.4 394.401 368.4C394.101 368.4 393.801 368.5 393.601 368.5C393.401 368.5 393.301 368.6 393.301 368.7C393.301 368.8 393.301 368.8 393.401 368.9C393.501 368.9 393.601 369 393.701 369C393.801 369 394.001 369 394.201 369.1C394.401 369.1 394.601 369.1 394.901 369.1C395.201 369.1 395.801 369.1 396.801 369.2C397.801 369.2 399.101 369.3 400.501 369.4C402.001 369.4 403.601 369.5 405.401 369.5C407.201 369.5 409.001 369.6 410.901 369.6C412.801 369.6 414.501 369.6 416.301 369.6C418.001 369.6 419.601 369.5 420.901 369.5C422.301 369.4 423.301 369.4 424.201 369.3C425.001 369.2 425.401 369.2 425.401 369.1C425.401 369.1 425.001 369 424.201 369C423.401 369 422.301 369 421.001 369C419.701 369 418.201 369 416.501 369C414.801 369 413.101 369 411.301 369C409.501 369 407.801 368.9 406.101 368.9C404.401 368.8 402.801 368.8 401.501 368.8C400.101 368.7 399.001 368.7 398.101 368.7C397.201 368.7 396.701 368.6 396.601 368.6C396.301 368.4 395.901 368.4 395.501 368.4Z" fill="#A4AAF8"/>
<path d="M410 353.4C409.8 353.4 409.7 353.4 409.6 353.5C409.5 353.5 409.4 353.6 409.3 353.6C409.2 353.7 409.2 353.7 409.2 353.8C409.2 353.9 409.2 353.9 409.2 354C409.2 354.1 409.3 354.1 409.3 354.1C409.4 354.1 409.4 354.1 409.5 354.1C409.6 354.1 409.7 354.1 409.8 354.1C409.9 354.1 410.2 354.1 410.6 354.1C411 354.1 411.5 354.1 412.1 354.1C412.7 354.1 413.3 354.1 414 354.1C414.7 354.1 415.4 354.1 416.2 354.1C416.9 354.1 417.6 354.1 418.3 354.1C419 354.1 419.6 354.1 420.1 354.1C420.4 354.1 420.6 354.2 420.6 354.3C420.7 354.4 420.6 354.5 420.6 354.6C420.5 354.8 420.3 354.7 420.3 354.8C420.3 354.8 420.3 354.9 420.4 354.9C420.5 354.9 420.7 354.9 420.8 354.8C420.9 354.7 421 354.5 420.9 354.2C420.8 354 420.5 353.8 420.2 353.8C419.6 353.7 419.1 353.7 418.4 353.7C417.7 353.7 417 353.7 416.3 353.6C415.6 353.6 414.9 353.6 414.2 353.6C413.5 353.6 412.9 353.6 412.4 353.6C411.9 353.6 411.4 353.6 411.1 353.6C410.7 353.6 410.6 353.6 410.5 353.6C410.3 353.3 410.2 353.3 410 353.4Z" fill="#A4AAF8"/>
<path d="M241.9 368.6C240.9 368.6 240 368.7 239.1 368.7C238.2 368.8 237.5 368.8 237 368.9C236.4 369 236.2 369 236.2 369.1C236.2 369.2 236.3 369.2 236.5 369.2C236.7 369.2 237 369.3 237.3 369.3C237.7 369.3 238.1 369.3 238.6 369.3C239.1 369.3 239.7 369.3 240.3 369.3C241 369.3 242.7 369.3 245.3 369.2C247.9 369.2 251.1 369.1 255 369C258.8 368.9 263.1 368.9 267.7 368.8C272.4 368.7 277.1 368.6 281.9 368.5C286.7 368.4 291.3 368.3 295.8 368.2C300.3 368.1 304.3 368 307.8 367.9C311.3 367.8 314.1 367.7 316.2 367.6C317.3 367.5 318.1 367.5 318.6 367.5C319.1 367.5 319.4 367.4 319.4 367.4C319.4 367.4 319.1 367.4 318.6 367.4C318.1 367.4 317.3 367.4 316.3 367.4C314.2 367.4 311.5 367.4 308.1 367.5C304.7 367.5 300.8 367.6 296.4 367.7C292 367.8 287.5 367.8 282.9 367.9C278.3 368 273.8 368 269.3 368.1C264.9 368.2 260.9 368.2 257.3 368.3C253.7 368.4 250.8 368.4 248.5 368.5C246.2 368.5 244.9 368.6 244.6 368.6C243.8 368.6 242.8 368.6 241.9 368.6Z" fill="#A4AAF8"/>
<path d="M211.301 364.7C210.701 364.8 210.201 364.8 209.701 364.9C209.201 365 208.801 365 208.501 365.1C208.201 365.2 208.001 365.2 208.001 365.3C208.001 365.4 208.101 365.4 208.201 365.4C208.301 365.4 208.501 365.5 208.701 365.5C208.901 365.5 209.101 365.5 209.401 365.5C209.701 365.5 210.001 365.5 210.401 365.5C210.801 365.5 211.701 365.4 213.201 365.4C214.701 365.3 216.501 365.2 218.701 365.1C220.901 365 223.301 364.9 226.001 364.7C228.701 364.6 231.401 364.4 234.101 364.3C236.801 364.1 239.501 364 242.001 363.8C244.601 363.6 246.801 363.5 248.801 363.4C250.801 363.3 252.401 363.1 253.601 363C254.801 362.9 255.401 362.8 255.401 362.7C255.401 362.7 254.801 362.7 253.601 362.7C252.401 362.7 250.901 362.8 248.901 362.9C247.001 363 244.701 363.1 242.201 363.2C239.701 363.3 237.101 363.4 234.501 363.6C231.901 363.7 229.301 363.9 226.801 364C224.301 364.1 222.001 364.2 220.001 364.3C218.001 364.4 216.301 364.5 215.001 364.6C213.701 364.7 212.901 364.7 212.801 364.7C212.401 364.6 211.901 364.7 211.301 364.7Z" fill="#A4AAF8"/>
<path d="M172.701 324.8C172.201 324.8 171.701 324.9 171.301 324.9C170.901 324.9 170.501 325 170.201 325.1C169.901 325.2 169.801 325.2 169.801 325.3C169.801 325.4 169.901 325.4 170.001 325.4C170.101 325.4 170.201 325.5 170.401 325.5C170.601 325.5 170.801 325.5 171.001 325.5C171.301 325.5 171.501 325.5 171.901 325.5C172.301 325.5 173.101 325.5 174.401 325.4C175.701 325.4 177.401 325.3 179.301 325.3C181.201 325.2 183.401 325.2 185.801 325.1C188.201 325 190.601 325 193.001 324.9C195.401 324.8 197.801 324.8 200.101 324.7C202.401 324.6 204.401 324.5 206.201 324.5C208.001 324.4 209.401 324.3 210.501 324.3C211.601 324.2 212.101 324.2 212.101 324.1C212.101 324.1 211.601 324 210.501 324C209.401 324 208.001 324 206.301 324C204.601 324 202.601 324.1 200.401 324.1C198.201 324.1 195.901 324.2 193.501 324.2C191.201 324.3 188.901 324.3 186.601 324.4C184.301 324.5 182.301 324.5 180.501 324.6C178.701 324.6 177.201 324.7 176.001 324.7C174.801 324.7 174.201 324.8 174.001 324.8C173.601 324.7 173.201 324.8 172.701 324.8Z" fill="#A4AAF8"/>
<path d="M177.901 375.6C177.601 375.6 177.401 375.6 177.101 375.6C176.901 375.6 176.701 375.6 176.501 375.7C176.301 375.7 176.301 375.8 176.301 375.9C176.301 376 176.301 376 176.401 376.1C176.501 376.1 176.501 376.2 176.601 376.2C176.701 376.2 176.801 376.2 176.901 376.3C177.001 376.3 177.201 376.3 177.401 376.3C177.601 376.3 178.001 376.4 178.701 376.4C179.401 376.5 180.301 376.6 181.301 376.7C182.301 376.8 183.501 376.9 184.701 377C186.001 377.1 187.201 377.2 188.501 377.4C189.801 377.5 191.001 377.6 192.301 377.7C193.501 377.8 194.601 377.9 195.501 377.9C196.401 378 197.201 378 197.801 378C198.401 378 198.701 378 198.701 377.9C198.701 377.9 198.401 377.8 197.901 377.7C197.301 377.6 196.601 377.5 195.701 377.4C194.801 377.3 193.701 377.2 192.601 377C191.401 376.9 190.201 376.7 189.001 376.6C187.801 376.5 186.501 376.3 185.301 376.2C184.101 376.1 183.001 376 182.101 375.9C181.101 375.8 180.401 375.7 179.701 375.7C179.101 375.6 178.701 375.6 178.601 375.6C178.501 375.6 178.201 375.6 177.901 375.6Z" fill="#A4AAF8"/>
<path d="M166.001 349.2C165.801 349.2 165.501 349.3 165.301 349.3C165.101 349.3 164.901 349.4 164.801 349.4C164.701 349.5 164.601 349.5 164.601 349.6C164.601 349.7 164.601 349.7 164.701 349.8C164.801 349.8 164.801 349.9 164.901 349.9C165.001 349.9 165.101 349.9 165.201 349.9C165.301 349.9 165.501 349.9 165.601 349.9C165.801 349.9 166.201 349.9 166.801 349.9C167.401 349.9 168.201 349.9 169.201 349.8C170.101 349.8 171.201 349.8 172.301 349.7C173.401 349.7 174.601 349.6 175.801 349.6C177.001 349.6 178.101 349.5 179.201 349.5C180.301 349.5 181.301 349.4 182.101 349.4C183.001 349.3 183.601 349.3 184.201 349.2C184.701 349.1 185.001 349.1 185.001 349C185.001 349 184.701 348.9 184.201 348.9C183.701 348.9 183.001 348.9 182.201 348.9C181.401 348.9 180.401 348.9 179.301 348.9C178.201 348.9 177.101 348.9 176.001 348.9C174.901 348.9 173.801 348.9 172.701 349C171.601 349 170.601 349 169.801 349.1C168.901 349.1 168.201 349.1 167.601 349.1C167.001 349.1 166.701 349.1 166.601 349.1C166.501 349.2 166.301 349.2 166.001 349.2Z" fill="#A4AAF8"/>
<path d="M243.701 376.9C242.401 376.9 241.201 376.9 240.001 376.9C238.801 376.9 237.901 376.9 237.201 376.9C236.501 376.9 236.101 377 236.101 377.1C236.101 377.2 236.201 377.2 236.501 377.3C236.801 377.3 237.101 377.4 237.601 377.4C238.101 377.4 238.601 377.5 239.301 377.5C240.001 377.5 240.701 377.5 241.601 377.6C242.501 377.6 244.701 377.7 248.201 377.8C251.701 377.9 255.901 378 261.001 378.1C266.101 378.2 271.701 378.3 277.901 378.5C284.101 378.6 290.301 378.7 296.701 378.8C303.001 378.9 309.201 378.9 315.101 379C321.001 379 326.301 379 331.001 379C335.601 379 339.401 378.9 342.201 378.9C343.601 378.9 344.701 378.8 345.401 378.8C346.101 378.8 346.501 378.7 346.501 378.7C346.501 378.7 346.201 378.7 345.501 378.6C344.801 378.6 343.801 378.6 342.401 378.6C339.701 378.6 336.001 378.5 331.501 378.5C327.001 378.5 321.801 378.4 316.001 378.4C310.201 378.3 304.301 378.3 298.101 378.2C292.001 378.1 286.001 378 280.101 377.9C274.201 377.8 268.901 377.7 264.201 377.6C259.501 377.5 255.601 377.4 252.601 377.3C249.601 377.2 247.801 377.2 247.401 377.2C246.301 377 245.101 377 243.701 376.9Z" fill="#A4AAF8"/>
<path d="M441.001 405.4H196.301C184.101 405.4 172.601 400.6 164.001 392C155.401 383.4 150.601 371.9 150.601 359.7V338C150.601 325.8 155.401 314.3 164.001 305.7C172.601 297.1 184.101 292.3 196.301 292.3H441.001C444.901 292.3 448.101 295.5 448.101 299.4C448.101 303.3 444.901 306.5 441.001 306.5H196.301C178.901 306.5 164.701 320.7 164.701 338.1V359.8C164.701 377.2 178.901 391.4 196.301 391.4H441.001C444.901 391.4 448.101 394.6 448.101 398.5C448.101 402.2 444.901 405.4 441.001 405.4Z" fill="#FCBC3B"/>
<path d="M441.001 405.4H196.301C184.101 405.4 172.601 400.6 164.001 392C155.401 383.4 150.601 371.9 150.601 359.7V338C150.601 325.8 155.401 314.3 164.001 305.7C172.601 297.1 184.101 292.3 196.301 292.3H441.001C444.901 292.3 448.101 295.5 448.101 299.4C448.101 303.3 444.901 306.5 441.001 306.5H196.301C178.901 306.5 164.701 320.7 164.701 338.1V359.8C164.701 377.2 178.901 391.4 196.301 391.4H441.001C444.901 391.4 448.101 394.6 448.101 398.5C448.101 402.2 444.901 405.4 441.001 405.4Z" fill="url(#paint12_linear)"/>
<path d="M145.9 375.4L142.1 394.5L141.3 398.3L91.7002 392C91.7002 392 91.7002 383 97.7002 380.7C98.8002 380.3 100.4 379.8 102.4 379.4C111.1 377.3 126.1 374.5 127.1 370.8L145.9 375.4Z" fill="#D4453D"/>
<path d="M142 394.5L141.2 398.3L91.7002 392C91.7002 392 91.7002 383 97.7002 380.7C98.8002 380.3 100.4 379.8 102.4 379.4C104.8 383.7 102.8 389.2 102.8 389.2L142 394.5Z" fill="white"/>
<path d="M210.7 270.5C210.7 270.5 148 277.4 144.7 281.1C141.4 284.8 126.3 370.5 126.3 370.5L146.5 376.6L164.9 300.5C164.9 300.5 227.9 299 236.9 292.1C245.8 285.2 246.9 273.2 244 263.5L210.7 270.5Z" fill="#293753"/>
<path d="M139.4 361.8C139.1 363.9 138.9 365.8 138.7 367.7C138.5 369.5 138.3 371 138.2 372.2C138.1 372.8 138.1 373.2 138.1 373.5C138.1 373.8 138.1 373.9 138.1 373.9C138.1 373.9 138.2 373.7 138.3 373.3C138.4 372.9 138.5 372.3 138.6 371.6C138.7 370.9 138.8 370 139 368.9C139.1 367.9 139.3 366.7 139.5 365.3C139.7 363.8 140.2 360.4 140.9 354.9C141.7 349.4 142.6 342.7 143.9 334.8C145.2 326.9 146.8 318.1 148.9 308.5C149.4 306.1 150 303.7 150.6 301.3C150.9 300.1 151.2 298.9 151.5 297.7C151.8 296.5 152 295.3 152.5 294.1C152.7 293.6 153.1 293.1 153.6 292.7C154.1 292.4 154.7 292.2 155.3 292.1C156.5 291.9 157.7 291.6 159 291.4C161.5 290.9 163.9 290.5 166.4 290.1C176.3 288.4 186 287.3 195.4 286C204.8 284.8 213.1 283.5 220.3 282.1C222.1 281.7 223.8 281.4 225.4 281C227 280.6 228.6 280.1 229.8 279.2C231 278.3 231.9 277.1 232.4 275.9C232.9 274.7 233.2 273.5 233.4 272.4C233.7 270.2 233.5 268.5 233.4 267.4C233.3 266.3 233.2 265.7 233.2 265.7C233.2 265.7 233.2 265.8 233.2 266.1C233.2 266.4 233.3 266.8 233.3 267.3C233.4 268.4 233.5 270 233.3 272.2C233.2 273.3 232.9 274.4 232.4 275.6C231.9 276.8 231.1 277.9 230 278.8C228.9 279.7 227.4 280.3 225.9 280.7C224.3 281.1 222.6 281.4 220.9 281.8C213.8 283.2 205.7 284.4 196.6 285.6C187.5 286.8 178.1 287.9 168.5 289.4C163.7 290.2 159 291 154.3 292.1C153.7 292.3 153.2 292.6 152.8 293.1C152.4 293.6 152.2 294.2 152 294.7C151.7 295.9 151.4 297 151.1 298.1C150.5 300.4 150 302.7 149.4 304.9C147.3 314 145.7 322.3 144.5 329.7C143.2 337.1 142.3 343.2 141.6 348C140.9 352.8 140.5 355.5 140.5 356.1C139.9 357.9 139.7 359.8 139.4 361.8Z" fill="#1B2537"/>
<path d="M229.7 292.2C229.8 292.6 229.8 292.9 229.9 293.2C230 293.5 230.1 293.7 230.2 293.9C230.3 294.1 230.4 294.2 230.4 294.1V294C230.4 293.9 230.4 293.8 230.3 293.7C230.3 293.6 230.2 293.4 230.2 293.3C230.1 293.1 230.1 292.9 230.1 292.7C230.1 292.5 229.9 291.9 229.9 291C229.9 290.1 230.1 288.9 230.6 287.7C231.1 286.5 232.2 285.4 233.4 284.2C234.6 283 235.7 281.7 236.6 280.2C237.5 278.7 238.2 277.2 238.6 275.6C238.7 275.2 238.8 274.9 238.9 274.6C238.9 274.4 239 274.3 239 274.1C239 274 239 273.9 239.1 273.9C239.3 274 239.4 274 239.5 274.1C239.7 274.2 239.9 274.2 240.1 274.3C240.5 274.4 240.8 274.5 241.1 274.6C242.3 275 243.3 275.1 244.1 275.2C244.9 275.3 245.2 275.3 245.2 275.3C245.2 275.3 244.8 275.2 244.1 275.1C243.4 275 242.4 274.8 241.3 274.4C241 274.3 240.6 274.2 240.3 274C240.1 273.9 239.9 273.9 239.7 273.8C239.5 273.7 239.2 273.6 239 273.5C238.9 273.8 238.9 274.1 238.8 274.4C238.7 274.7 238.6 275 238.5 275.3C238 276.8 237.4 278.3 236.6 279.7C235.8 281.1 234.8 282.4 233.7 283.5C232.6 284.6 231.5 285.6 230.8 286.7C230.1 287.8 229.8 288.9 229.7 289.7C229.6 290.5 229.6 291 229.6 291.1C229.6 291.5 229.6 291.9 229.7 292.2Z" fill="#1B2537"/>
<path d="M218.6 279.7C218.6 279.9 218.6 280 218.7 280.2C218.7 280.3 218.8 280.5 218.8 280.6C218.8 280.7 218.9 280.7 218.9 280.7C218.9 280.7 219 280.7 219 280.6V280.5C219 280.4 219 280.4 219 280.3C219 280.2 219 280.1 219 280C219 279.9 219 279.6 219 279.2C219 278.8 219.1 278.2 219.4 277.7C219.7 277.1 220.2 276.8 220.9 276.4C221.6 276 222.3 275.5 222.9 274.9C223.5 274.3 224 273.7 224.4 273.1C224.8 272.5 225.1 271.8 225.4 271.3C225.6 270.7 225.7 270.3 225.8 269.9C225.9 269.5 225.9 269.4 225.9 269.4C225.9 269.4 225.8 269.6 225.7 269.9C225.6 270.2 225.4 270.7 225.2 271.2C225 271.7 224.7 272.3 224.2 272.9C223.8 273.5 223.3 274.1 222.7 274.6C222.1 275.1 221.5 275.6 220.9 276C220.3 276.4 219.6 276.7 219.2 277.2C218.8 277.7 218.7 278.3 218.6 278.6C218.5 279 218.5 279.2 218.5 279.3C218.6 279.4 218.6 279.6 218.6 279.7Z" fill="#1B2537"/>
<path d="M146.1 371.2C146.3 371.2 146.6 371.3 146.8 371.3C147 371.3 147.2 371.4 147.3 371.4C147.4 371.4 147.5 371.4 147.5 371.4C147.5 371.4 147.5 371.3 147.4 371.3C147.4 371.3 147.3 371.2 147.2 371.2C147.1 371.2 147 371.1 146.9 371.1C146.8 371.1 146.6 371 146.5 371C146.3 371 145.9 370.8 145.3 370.7C144.7 370.5 143.9 370.3 142.9 370.1C142 369.9 140.9 369.6 139.8 369.3C138.7 369 137.5 368.7 136.3 368.4C135.1 368.1 134 367.8 132.9 367.5C131.8 367.2 130.8 367 130 366.8C129.1 366.6 128.5 366.4 127.9 366.3C127.4 366.2 127.1 366.1 127.1 366.2C127.1 366.2 127.3 366.3 127.8 366.5C128.3 366.6 129 366.8 129.8 367.1C130.6 367.3 131.6 367.6 132.7 367.9C133.8 368.2 134.9 368.5 136 368.8C137.1 369.1 138.2 369.4 139.3 369.7C140.4 370 141.4 370.3 142.2 370.5C143.1 370.7 143.8 370.9 144.4 371.1C145 371.2 145.3 371.3 145.4 371.4C145.6 371.1 145.8 371.2 146.1 371.2Z" fill="#1B2537"/>
<path d="M127.2 275.6L101.4 212.6L94.2998 215.8L119.9 283.9L184.1 275.6L182.5 268.9L127.2 275.6Z" fill="#77ADFC"/>
<path d="M196.1 193.2C196.1 193.2 192.9 198.5 195.3 216.7C197.7 234.8 209.2 247.1 210.6 270.5L243.9 263.6C243.9 263.6 238.3 191.9 208.9 177.1L196.1 193.2Z" fill="white"/>
<path d="M190.1 176L197.4 188L196.1 193.3L209 177.2L205 165.1L210.6 150.6L205.8 133L184.4 122.8C184.4 122.8 171.8 122.7 167.4 130.8C163.1 139 165.7 149.3 164.3 153C162.9 156.7 159.2 159.9 162.3 164.9C165.4 169.9 172.9 178.7 178.9 179.1C185.9 179.3 190.1 176 190.1 176Z" fill="#F7995F"/>
<path d="M176.5 150.5C177.3 152.5 176.9 154.4 175.7 154.9C174.5 155.4 172.9 154.1 172.2 152.1C171.4 150.1 171.8 148.2 173 147.7C174.2 147.2 175.8 148.5 176.5 150.5Z" fill="#44292B"/>
<path d="M184.1 163.8C188.187 163.8 191.5 160.487 191.5 156.4C191.5 152.313 188.187 149 184.1 149C180.013 149 176.7 152.313 176.7 156.4C176.7 160.487 180.013 163.8 184.1 163.8Z" fill="#F68650"/>
<path d="M169.601 171.9C169.401 171.9 169.301 172 169.201 172C169.101 172 168.901 172 168.901 172C168.801 172 168.801 172 168.801 171.9V171.8L168.901 171.7C169.001 171.7 169.001 171.7 169.101 171.6C169.201 171.6 169.301 171.6 169.401 171.5C169.501 171.5 169.801 171.4 170.101 171.3C170.501 171.2 171.001 171 171.501 170.7C172.001 170.5 172.601 170.2 173.201 169.8C173.801 169.4 174.401 169 175.001 168.5C175.601 168 176.101 167.6 176.601 167.1C177.101 166.6 177.501 166.1 177.801 165.7C178.101 165.3 178.401 164.9 178.601 164.7C178.801 164.4 178.901 164.3 178.901 164.3C178.901 164.3 178.801 164.5 178.701 164.7C178.501 165 178.301 165.3 178.001 165.8C177.701 166.2 177.301 166.7 176.801 167.2C176.301 167.7 175.801 168.2 175.301 168.7C174.701 169.2 174.201 169.6 173.601 170C173.001 170.4 172.501 170.7 171.901 170.9C171.401 171.1 171.001 171.3 170.601 171.4C170.301 171.5 170.101 171.6 170.001 171.6C169.801 171.8 169.701 171.8 169.601 171.9Z" fill="#A3522B"/>
<path d="M169.2 143.9C169.1 143.9 169 143.9 168.9 143.9C168.8 143.9 168.7 143.8 168.6 143.8C168.5 143.7 168.5 143.7 168.4 143.6C168.4 143.5 168.4 143.4 168.4 143.4C168.4 143.3 168.4 143.3 168.5 143.3L168.6 143.2C168.7 143.2 168.7 143.2 168.8 143.1C168.9 143.1 169.1 143 169.4 143C169.7 142.9 170.1 142.9 170.5 142.8C171 142.7 171.5 142.7 172 142.7C172.6 142.7 173.1 142.7 173.7 142.8C174.3 142.9 174.8 143 175.3 143.1C175.8 143.2 176.3 143.4 176.6 143.6C177 143.8 177.3 143.9 177.5 144.1C177.7 144.3 177.8 144.4 177.7 144.5C177.7 144.6 177.5 144.6 177.3 144.5C177.1 144.4 176.8 144.4 176.4 144.3C176 144.2 175.6 144.1 175.1 144C174.6 143.9 174.1 143.9 173.6 143.8C173.1 143.8 172.6 143.7 172.1 143.8C171.6 143.8 171.2 143.9 170.8 143.9C170.4 144 170.1 144 169.8 144C169.6 144 169.4 144.1 169.4 144.1C169.4 143.9 169.3 144 169.2 143.9Z" fill="#A3522B"/>
<path d="M197.2 150.8C197.2 150.9 197.2 151 197.2 151.1C197.2 151.2 197.2 151.3 197.2 151.4C197.2 151.5 197.2 151.5 197.1 151.5H197C197 151.5 197 151.4 196.9 151.4C196.9 151.4 196.9 151.3 196.9 151.2C196.9 151.1 196.9 151.1 196.9 151C196.9 150.9 196.9 150.7 196.9 150.4C196.9 150.1 196.9 149.7 197 149.2C197.1 148.7 197.2 148.3 197.4 147.7C197.6 147.2 197.9 146.7 198.2 146.2C198.5 145.7 198.9 145.3 199.3 144.9C199.7 144.5 200.1 144.3 200.5 144.1C200.9 143.9 201.2 143.8 201.5 143.8C201.8 143.8 201.9 143.8 201.9 143.8C201.9 143.8 201.8 143.8 201.5 143.9C201.3 144 201 144.1 200.6 144.3C200.3 144.5 199.9 144.8 199.5 145.1C199.1 145.4 198.8 145.8 198.5 146.3C198.2 146.7 198 147.2 197.8 147.7C197.6 148.2 197.5 148.6 197.4 149C197.3 149.4 197.3 149.7 197.3 150C197.3 150.3 197.3 150.4 197.3 150.4C197.2 150.6 197.2 150.7 197.2 150.8Z" fill="#A3522B"/>
<path d="M198.5 146.9C198.4 146.9 198.4 146.9 198.3 146.8C198.2 146.8 198.2 146.8 198.1 146.7C198 146.7 198 146.6 198 146.6V146.5C198 146.5 198 146.5 198.1 146.5H198.2C198.2 146.5 198.3 146.5 198.4 146.5C198.5 146.5 198.6 146.5 198.9 146.6C199.1 146.7 199.4 146.8 199.7 147.1C200 147.3 200.3 147.6 200.5 148C200.8 148.4 201 148.8 201.1 149.2C201.2 149.6 201.3 150.1 201.3 150.5C201.3 150.9 201.2 151.3 201.1 151.6C201 151.9 200.9 152.1 200.7 152.3C200.6 152.5 200.5 152.5 200.5 152.5C200.5 152.5 200.5 152.4 200.6 152.2C200.7 152 200.8 151.8 200.8 151.5C200.9 151.2 200.9 150.9 200.9 150.5C200.9 150.1 200.9 149.7 200.7 149.3C200.6 148.9 200.4 148.5 200.2 148.2C200 147.9 199.7 147.6 199.5 147.4C199.3 147.2 199 147.1 198.9 147C198.7 146.9 198.6 146.9 198.6 146.9C198.7 146.9 198.6 146.9 198.5 146.9Z" fill="#A3522B"/>
<path d="M190.101 176L195.401 172.5L193.101 180.9L190.101 176Z" fill="#E37339"/>
<path d="M199.4 159.9C199.4 159.9 203.1 169.6 208 174C208 174 206.2 168.5 211.5 159.9C216.7 151.4 218.3 140 211.5 129C204.7 118 188.8 116.9 175.3 119.9C161.8 123 150.4 127.8 151.6 130C152.7 132.2 162.3 130.3 162.3 130.3C162.3 130.3 145.7 137.6 147.1 140.8C148.5 144 162.7 138 162.7 138C162.7 138 157.3 141.6 159 143.8C160.7 146 175.7 137.7 179 131.4C179 131.4 183.7 146.7 193.6 149.1C193.6 149.1 195.5 138.6 203.7 140.2C211.7 141.8 209.2 158.5 199.4 159.9Z" fill="#8D3C27"/>
<path d="M187.5 260.6L182.5 261.6C182.5 261.6 161.8 256.8 159.9 257.3C158 257.8 147.9 267.4 148.7 269.2C149.5 271 156.4 267.3 158.9 268.3C161.4 269.3 179.6 273.8 182.1 272.1C184.7 270.4 190.1 268.1 190.1 268.1L187.5 260.6Z" fill="#F7995F"/>
<path d="M152 268.4C151.9 268.5 151.8 268.6 151.8 268.7C151.7 268.8 151.7 268.9 151.7 269C151.7 269.1 151.7 269.1 151.6 269.1H151.5C151.5 269.1 151.5 269 151.4 268.9C151.4 268.8 151.4 268.7 151.4 268.7C151.4 268.6 151.5 268.5 151.5 268.4C151.6 268.3 151.7 268 152.1 267.7C152.4 267.4 152.9 267.1 153.4 266.8C154 266.5 154.6 266.2 155.3 266C156 265.8 156.8 265.6 157.6 265.5C158.4 265.4 159.1 265.4 159.9 265.4C160.6 265.4 161.3 265.4 161.8 265.4C162.4 265.4 162.8 265.5 163.2 265.5C163.5 265.6 163.7 265.7 163.7 265.7C163.7 265.7 163.5 265.7 163.2 265.6C162.9 265.6 162.4 265.6 161.9 265.6C161.3 265.6 160.7 265.6 160 265.6C159.3 265.6 158.6 265.7 157.8 265.7C157.1 265.8 156.4 265.9 155.7 266.1C155 266.3 154.4 266.5 153.9 266.8C153.4 267.1 153 267.3 152.7 267.5C152.4 267.7 152.2 267.8 152.2 267.9C152.2 268.2 152.1 268.3 152 268.4Z" fill="#A3522B"/>
<path d="M151.3 265.2C151.2 265.3 151.1 265.3 151 265.4C150.9 265.5 150.8 265.5 150.7 265.6C150.6 265.6 150.6 265.6 150.5 265.6V265.5C150.5 265.5 150.5 265.4 150.6 265.4L150.7 265.3C150.8 265.3 150.8 265.2 150.9 265.1C151 265 151.2 264.9 151.5 264.6C151.8 264.4 152.2 264.1 152.8 263.8C153.3 263.5 153.9 263.3 154.6 263C155.3 262.8 156 262.6 156.7 262.4C157.4 262.3 158.1 262.2 158.8 262.1C159.5 262.1 160.1 262 160.6 262.1C161.1 262.1 161.5 262.1 161.9 262.2C162.2 262.2 162.4 262.3 162.4 262.3C162.4 262.3 162.2 262.3 161.9 262.3C161.6 262.3 161.2 262.3 160.7 262.3C160.2 262.3 159.6 262.3 159 262.4C158.4 262.5 157.7 262.6 157 262.7C156.3 262.8 155.7 263 155.1 263.2C154.5 263.4 153.9 263.6 153.5 263.9C153 264.1 152.7 264.4 152.4 264.5C152.1 264.7 152 264.8 151.9 264.8C151.5 265.1 151.4 265.1 151.3 265.2Z" fill="#A3522B"/>
<path d="M155.8 260.6C155.7 260.6 155.6 260.6 155.5 260.7C155.4 260.7 155.3 260.7 155.3 260.7C155.2 260.7 155.2 260.7 155.2 260.6V260.5C155.2 260.5 155.2 260.5 155.3 260.4C155.3 260.4 155.4 260.4 155.4 260.3C155.4 260.3 155.5 260.3 155.5 260.2C155.6 260.2 155.7 260.1 155.9 260C156.1 259.9 156.4 259.8 156.8 259.7C157.1 259.6 157.5 259.5 158 259.4C158.4 259.3 158.9 259.3 159.3 259.3C159.7 259.3 160.2 259.3 160.6 259.3C161 259.3 161.4 259.4 161.7 259.4C162 259.5 162.3 259.5 162.5 259.6C162.7 259.7 162.8 259.7 162.8 259.7C162.8 259.7 162.7 259.7 162.5 259.7C162.3 259.7 162 259.7 161.7 259.6C161.4 259.6 161 259.6 160.6 259.6C160.2 259.6 159.8 259.6 159.4 259.6C159 259.6 158.6 259.7 158.2 259.8C157.8 259.9 157.4 259.9 157.1 260C156.8 260.1 156.5 260.2 156.3 260.2C156.1 260.3 156 260.3 156 260.3C156 260.6 155.9 260.6 155.8 260.6Z" fill="#A3522B"/>
<path d="M185.9 260.1V273.6C185.9 273.6 236.4 266.7 239.9 262.1C239.9 262.1 232.7 183.5 212.9 182.2C193.1 180.9 222.3 251.9 222.3 251.9L185.9 260.1Z" fill="#D4453D"/>
</g>
<defs>
<linearGradient id="paint0_linear" x1="395.286" y1="69.1557" x2="376.946" y2="193.604" gradientUnits="userSpaceOnUse">
<stop stop-color="#FCBC3B" stop-opacity="0"/>
<stop offset="0.9949" stop-color="#FCBC3B"/>
</linearGradient>
<linearGradient id="paint1_linear" x1="375.594" y1="72.1842" x2="365.933" y2="182.355" gradientUnits="userSpaceOnUse">
<stop stop-color="#D4453D" stop-opacity="0"/>
<stop offset="0.9949" stop-color="#D4453D"/>
</linearGradient>
<linearGradient id="paint2_linear" x1="315.002" y1="68.4897" x2="327.224" y2="178.406" gradientUnits="userSpaceOnUse">
<stop stop-color="#D4453D" stop-opacity="0"/>
<stop offset="0.9949" stop-color="#D4453D"/>
</linearGradient>
<linearGradient id="paint3_linear" x1="354.31" y1="62.1507" x2="354.926" y2="174.383" gradientUnits="userSpaceOnUse">
<stop stop-color="#293753" stop-opacity="0"/>
<stop offset="0.9899" stop-color="#293753"/>
</linearGradient>
<linearGradient id="paint4_linear" x1="333.355" y1="79.6286" x2="334.588" y2="174.589" gradientUnits="userSpaceOnUse">
<stop stop-color="#FCBC3B" stop-opacity="0"/>
<stop offset="0.9949" stop-color="#FCBC3B"/>
</linearGradient>
<linearGradient id="paint5_linear" x1="334.121" y1="65.8523" x2="333.812" y2="84.7734" gradientUnits="userSpaceOnUse">
<stop stop-color="#FE887C" stop-opacity="0"/>
<stop offset="0.9949" stop-color="#FE887C"/>
</linearGradient>
<linearGradient id="paint6_linear" x1="283.129" y1="82.5059" x2="298.838" y2="176.166" gradientUnits="userSpaceOnUse">
<stop stop-color="#5E50F5" stop-opacity="0"/>
<stop offset="0.9968" stop-color="#5E50F5"/>
</linearGradient>
<linearGradient id="paint7_linear" x1="281.784" y1="68.7743" x2="284.367" y2="87.5208" gradientUnits="userSpaceOnUse">
<stop stop-color="#FE887C" stop-opacity="0"/>
<stop offset="0.9949" stop-color="#FE887C"/>
</linearGradient>
<linearGradient id="paint8_linear" x1="304.552" y1="110.553" x2="313.869" y2="178.518" gradientUnits="userSpaceOnUse">
<stop stop-color="#293753" stop-opacity="0"/>
<stop offset="0.9899" stop-color="#293753"/>
</linearGradient>
<linearGradient id="paint9_linear" x1="301.863" y1="76.367" x2="306.779" y2="116.771" gradientUnits="userSpaceOnUse">
<stop stop-color="#00BF86" stop-opacity="0"/>
<stop offset="0.9996" stop-color="#00BF86"/>
</linearGradient>
<linearGradient id="paint10_linear" x1="328.169" y1="162.628" x2="352.218" y2="247.106" gradientUnits="userSpaceOnUse">
<stop stop-color="#7780F4" stop-opacity="0"/>
<stop offset="0.9996" stop-color="#7780F4"/>
</linearGradient>
<linearGradient id="paint11_linear" x1="378.641" y1="293.394" x2="121.388" y2="497.818" gradientUnits="userSpaceOnUse">
<stop stop-color="#7780F4" stop-opacity="0"/>
<stop offset="0.9996" stop-color="#7780F4"/>
</linearGradient>
<linearGradient id="paint12_linear" x1="410.669" y1="296.165" x2="128.915" y2="449.292" gradientUnits="userSpaceOnUse">
<stop stop-color="#FA6920" stop-opacity="0"/>
<stop offset="0.9978" stop-color="#FA6920"/>
</linearGradient>
<clipPath id="clip0">
<rect width="490.9" height="447.4" fill="white"/>
</clipPath>
</defs>
</svg>
