<svg width="413" height="625" viewBox="0 0 413 625" fill="none" xmlns="http://www.w3.org/2000/svg">
<path d="M305.268 125.297C308.083 122.481 308.083 117.916 305.268 115.1C302.454 112.285 297.89 112.285 295.076 115.1C292.261 117.916 292.261 122.481 295.076 125.297C297.89 128.113 302.454 128.113 305.268 125.297Z" fill="#B4E2FA"/>
<path d="M329.177 125.314C331.992 122.498 331.992 117.933 329.177 115.118C326.363 112.302 321.799 112.302 318.985 115.118C316.17 117.933 316.17 122.498 318.985 125.314C321.799 128.13 326.363 128.13 329.177 125.314Z" fill="#FDDE9A"/>
<path d="M355.076 121.822C355.991 117.947 353.592 114.064 349.718 113.148C345.844 112.233 341.963 114.633 341.048 118.508C340.133 122.384 342.532 126.267 346.406 127.182C350.279 128.097 354.161 125.698 355.076 121.822Z" fill="#F7665F"/>
<path d="M138.487 437.354C139.092 437.354 139.582 436.864 139.582 436.259C139.582 435.654 139.092 435.164 138.487 435.164C137.883 435.164 137.393 435.654 137.393 436.259C137.393 436.864 137.883 437.354 138.487 437.354Z" fill="#FC685A"/>
<path d="M103.09 401.851H98.7108C98.0722 401.851 97.4336 401.303 97.4336 400.573C97.4336 399.934 97.981 399.295 98.7108 399.295H103.09C103.728 399.295 104.367 399.843 104.367 400.573C104.367 401.303 103.82 401.851 103.09 401.851Z" fill="#000543"/>
<path d="M179.815 369.633H178.173V399.387H179.815V369.633Z" fill="white"/>
<path d="M141.224 369.633H139.582V399.387H141.224V369.633Z" fill="white"/>
<path d="M173.885 402.581H172.243V435.164H173.885V402.581Z" fill="white"/>
<path d="M212.384 402.581H210.742V435.164H212.384V402.581Z" fill="white"/>
<path d="M299.509 402.581H297.867V435.164H299.509V402.581Z" fill="white"/>
<path d="M338.1 456.338C340.266 456.338 342.023 454.049 342.023 451.227C342.023 448.404 340.266 446.116 338.1 446.116C335.933 446.116 334.177 448.404 334.177 451.227C334.177 454.049 335.933 456.338 338.1 456.338Z" fill="#F9E7DA"/>
<path d="M338.099 447.667C337.917 447.667 337.734 447.576 337.734 447.393C334.177 436.076 321.404 436.624 321.222 436.624C321.039 436.624 320.766 436.441 320.766 436.259C320.766 436.076 320.948 435.802 321.131 435.802C321.222 435.802 334.724 435.163 338.464 447.12C338.556 447.302 338.373 447.576 338.191 447.667C338.191 447.667 338.191 447.667 338.099 447.667Z" fill="#F9E7DA"/>
<path d="M155.274 253.176V321.718C155.274 331.21 147.245 338.877 137.393 338.877H115.315C105.462 338.877 97.4336 346.543 97.4336 356.035V552.443C97.4336 561.934 105.462 569.601 115.315 569.601H340.471C350.324 569.601 358.353 561.934 358.353 552.443V253.085C358.353 243.593 350.324 235.927 340.471 235.927H173.155C163.302 236.018 155.274 243.684 155.274 253.176Z" fill="#452A51"/>
<path d="M113.125 362.241V372.372C113.125 373.832 114.311 375.018 115.862 375.018H126.262C127.722 375.018 128.999 373.832 128.999 372.372V362.15C128.999 360.689 127.813 359.503 126.262 359.503H115.862C114.311 359.594 113.125 360.781 113.125 362.241Z" fill="white"/>
<path d="M113.125 391.903V402.125C113.125 403.585 114.311 404.772 115.862 404.772H126.262C127.722 404.772 128.999 403.585 128.999 402.125V391.903C128.999 390.443 127.813 389.256 126.262 389.256H115.862C114.311 389.256 113.125 390.443 113.125 391.903Z" fill="white"/>
<path d="M113.125 421.473V431.695C113.125 433.156 114.311 434.342 115.862 434.342H126.262C127.722 434.342 128.999 433.156 128.999 431.695V421.473C128.999 420.013 127.813 418.827 126.262 418.827H115.862C114.311 418.827 113.125 420.013 113.125 421.473Z" fill="white"/>
<path d="M113.125 451.136V461.358C113.125 462.818 114.311 464.004 115.862 464.004H126.262C127.722 464.004 128.999 462.818 128.999 461.358V451.136C128.999 449.675 127.813 448.489 126.262 448.489H115.862C114.311 448.489 113.125 449.675 113.125 451.136Z" fill="white"/>
<path d="M113.125 480.798V491.02C113.125 492.48 114.311 493.666 115.862 493.666H126.262C127.722 493.666 128.999 492.48 128.999 491.02V480.798C128.999 479.337 127.813 478.151 126.262 478.151H115.862C114.311 478.151 113.125 479.337 113.125 480.798Z" fill="white"/>
<path d="M332.261 420.196V430.418C332.261 431.878 333.447 433.065 334.998 433.065H345.398C346.858 433.065 348.135 431.878 348.135 430.418V420.196C348.135 418.736 346.949 417.549 345.398 417.549H334.998C333.447 417.549 332.261 418.736 332.261 420.196Z" fill="white"/>
<path d="M332.261 386.518V396.74C332.261 398.201 333.447 399.387 334.998 399.387H345.398C346.858 399.387 348.135 398.201 348.135 396.74V386.518C348.135 385.058 346.949 383.872 345.398 383.872H334.998C333.447 383.872 332.261 385.058 332.261 386.518Z" fill="white"/>
<path d="M332.261 453.235V463.457C332.261 464.917 333.447 466.103 334.998 466.103H345.398C346.858 466.103 348.135 464.917 348.135 463.457V453.235C348.135 451.774 346.949 450.588 345.398 450.588H334.998C333.447 450.588 332.261 451.774 332.261 453.235Z" fill="white"/>
<path d="M332.261 486.274V496.496C332.261 497.956 333.447 499.142 334.998 499.142H345.398C346.858 499.142 348.135 497.956 348.135 496.496V486.274C348.135 484.813 346.949 483.627 345.398 483.627H334.998C333.447 483.627 332.261 484.813 332.261 486.274Z" fill="white"/>
<path d="M332.261 519.313V529.535C332.261 530.995 333.447 532.182 334.998 532.182H345.398C346.858 532.182 348.135 530.995 348.135 529.535V519.313C348.135 517.853 346.949 516.666 345.398 516.666H334.998C333.447 516.666 332.261 517.853 332.261 519.313Z" fill="white"/>
<path d="M113.034 522.051V532.273C113.034 533.733 114.22 534.919 115.771 534.919H126.171C127.631 534.919 128.908 533.733 128.908 532.273V522.051C128.908 520.59 127.722 519.404 126.171 519.404H115.771C114.22 519.404 113.034 520.59 113.034 522.051Z" fill="white"/>
<path d="M332.261 255.549V265.771C332.261 267.231 333.447 268.418 334.998 268.418H345.398C346.858 268.418 348.135 267.231 348.135 265.771V255.549C348.135 254.089 346.949 252.902 345.398 252.902H334.998C333.447 252.902 332.261 254.089 332.261 255.549Z" fill="white"/>
<path d="M332.261 288.588V298.81C332.261 300.27 333.447 301.456 334.998 301.456H345.398C346.858 301.456 348.135 300.27 348.135 298.81V288.588C348.135 287.127 346.949 285.941 345.398 285.941H334.998C333.447 285.941 332.261 287.127 332.261 288.588Z" fill="white"/>
<path d="M332.261 321.627V331.849C332.261 333.309 333.447 334.495 334.998 334.495H345.398C346.858 334.495 348.135 333.309 348.135 331.849V321.627C348.135 320.166 346.949 318.98 345.398 318.98H334.998C333.447 318.98 332.261 320.166 332.261 321.627Z" fill="white"/>
<path d="M332.261 354.666V364.888C332.261 366.348 333.447 367.534 334.998 367.534H345.398C346.858 367.534 348.135 366.348 348.135 364.888V354.666C348.135 353.206 346.949 352.019 345.398 352.019H334.998C333.447 352.019 332.261 353.206 332.261 354.666Z" fill="white"/>
<path d="M316.205 157.254H96.8867V330.023H316.205V157.254Z" fill="#00C7EA"/>
<path d="M120.607 306.02C120.333 306.02 120.15 305.746 120.15 305.472C120.15 305.199 120.333 304.925 120.607 304.925C120.88 304.925 121.063 305.199 121.063 305.472C121.063 305.837 120.88 306.02 120.607 306.02Z" fill="white"/>
<path d="M120.608 308.758C120.334 308.758 120.151 308.484 120.151 308.211C120.151 307.937 120.334 307.663 120.608 307.663C120.881 307.663 121.064 307.937 121.064 308.211C121.064 308.576 120.79 308.758 120.608 308.758Z" fill="white"/>
<path d="M120.516 311.496C120.242 311.496 120.06 311.222 120.06 310.948C120.06 310.675 120.242 310.401 120.516 310.401C120.789 310.401 120.972 310.675 120.972 310.948C120.972 311.314 120.789 311.496 120.516 311.496Z" fill="white"/>
<path d="M120.516 314.234C120.242 314.234 120.06 313.96 120.06 313.686C120.06 313.412 120.242 313.139 120.516 313.139C120.789 313.139 120.972 313.412 120.972 313.686C120.972 314.051 120.789 314.234 120.516 314.234Z" fill="white"/>
<path d="M120.516 316.972C120.242 316.972 120.06 316.698 120.06 316.425C120.06 316.151 120.242 315.877 120.516 315.877C120.789 315.877 120.972 316.151 120.972 316.425C120.972 316.79 120.698 316.972 120.516 316.972Z" fill="white"/>
<path d="M120.425 319.71C120.151 319.71 119.969 319.436 119.969 319.162C119.969 318.889 120.151 318.615 120.425 318.615C120.699 318.615 120.881 318.889 120.881 319.162C120.881 319.527 120.699 319.71 120.425 319.71Z" fill="white"/>
<path d="M116.684 305.29L109.294 305.199V306.568H116.684V305.29Z" fill="white"/>
<path d="M116.684 307.845L109.294 307.754L109.203 309.123H116.684V307.845Z" fill="white"/>
<path d="M116.592 312.957H105.371V314.234L116.592 314.326V312.957Z" fill="white"/>
<path d="M105.372 317.702L105.28 318.98L114.13 319.071V317.702H105.372Z" fill="white"/>
<path d="M105.463 305.199V306.476L108.109 306.568V305.199H105.463Z" fill="white"/>
<path d="M105.463 307.754V309.123H108.109V307.754H105.463Z" fill="white"/>
<path d="M306.352 176.329C306.352 175.872 305.895 175.416 305.439 175.416C304.983 175.416 304.527 175.781 304.527 176.329C304.527 176.329 304.527 176.329 304.527 176.42C304.527 179.979 301.516 182.809 297.958 182.809C294.309 182.809 291.299 179.888 291.299 176.329C291.299 172.769 294.218 169.94 297.867 169.849C297.867 169.849 297.867 169.849 297.958 169.849C298.415 169.849 298.779 169.392 298.779 168.936C298.779 168.48 298.415 168.115 297.958 168.023H297.867C297.776 168.023 297.776 168.023 297.685 168.023C293.123 168.115 289.474 171.765 289.565 176.238C289.565 180.801 293.397 184.452 298.05 184.452C302.611 184.452 306.352 180.892 306.443 176.42C306.352 176.42 306.352 176.42 306.352 176.329Z" fill="white"/>
<path d="M254.715 327.468C256.529 327.468 257.999 326.038 257.999 324.273C257.999 322.509 256.529 321.079 254.715 321.079C252.901 321.079 251.431 322.509 251.431 324.273C251.431 326.038 252.901 327.468 254.715 327.468Z" fill="white"/>
<path d="M306.535 324.912H105.28C105.007 324.912 104.824 324.73 104.824 324.456C104.824 324.182 105.007 324 105.28 324H306.535C306.808 324 306.991 324.182 306.991 324.456C306.9 324.73 306.717 324.912 306.535 324.912Z" fill="white"/>
<path d="M276.063 559.652H250.153V569.601H276.063V559.652Z" fill="#B5AABF"/>
<path d="M315.657 559.652H276.063V569.601H315.657V559.652Z" fill="white"/>
<path d="M280.26 569.692H278.892V564.125C278.892 563.76 279.165 563.486 279.53 563.486C279.895 563.486 280.169 563.76 280.169 564.125V569.692H280.26Z" fill="#8E7D9C"/>
<path d="M283.179 569.692H281.811V564.125C281.811 563.76 282.084 563.486 282.449 563.486C282.814 563.486 283.088 563.76 283.088 564.125V569.692H283.179Z" fill="#8E7D9C"/>
<path d="M286.099 569.692H284.73V564.125C284.73 563.76 285.004 563.486 285.369 563.486C285.734 563.486 286.008 563.76 286.008 564.125V569.692H286.099Z" fill="#8E7D9C"/>
<path d="M289.018 569.692H287.649V564.125C287.649 563.76 287.923 563.486 288.288 563.486C288.653 563.486 288.927 563.76 288.927 564.125V569.692H289.018Z" fill="#8E7D9C"/>
<path d="M292.029 569.692H290.66V564.125C290.66 563.76 290.934 563.486 291.299 563.486C291.664 563.486 291.937 563.76 291.937 564.125V569.692H292.029Z" fill="#8E7D9C"/>
<path d="M294.949 569.692H293.58V564.125C293.58 563.76 293.854 563.486 294.219 563.486C294.584 563.486 294.857 563.76 294.857 564.125V569.692H294.949Z" fill="#8E7D9C"/>
<path d="M297.867 569.692H296.499V564.125C296.499 563.76 296.773 563.486 297.138 563.486C297.503 563.486 297.776 563.76 297.776 564.125V569.692H297.867Z" fill="#8E7D9C"/>
<path d="M300.786 569.692H299.418V564.125C299.418 563.76 299.692 563.486 300.057 563.486C300.421 563.486 300.695 563.76 300.695 564.125V569.692H300.786Z" fill="#8E7D9C"/>
<path d="M303.706 569.692H302.338V564.125C302.338 563.76 302.612 563.486 302.977 563.486C303.341 563.486 303.615 563.76 303.615 564.125V569.692H303.706Z" fill="#8E7D9C"/>
<path d="M306.717 569.692H305.349V564.125C305.349 563.76 305.622 563.486 305.987 563.486C306.352 563.486 306.626 563.76 306.626 564.125V569.692H306.717Z" fill="#8E7D9C"/>
<path d="M309.636 569.692H308.268V564.125C308.268 563.76 308.541 563.486 308.906 563.486C309.271 563.486 309.545 563.76 309.545 564.125V569.692H309.636Z" fill="#8E7D9C"/>
<path d="M312.556 569.692H311.188V564.125C311.188 563.76 311.461 563.486 311.826 563.486C312.191 563.486 312.465 563.76 312.465 564.125V569.692H312.556Z" fill="#8E7D9C"/>
<path d="M264.933 566.863H263.109C262.47 566.863 261.923 566.315 261.923 565.676C261.923 565.037 262.47 564.49 263.109 564.49H264.933C265.572 564.49 266.119 565.037 266.119 565.676C266.028 566.315 265.572 566.863 264.933 566.863Z" fill="white"/>
<path d="M315.11 560.93H274.239L258.273 490.38H315.657C318.029 490.38 320.31 492.571 320.31 494.853L320.219 555.728C320.401 558.74 318.212 560.93 315.11 560.93Z" fill="#6D729E"/>
<path d="M258.547 560.93H268.126C274.695 560.93 280.077 555.545 280.077 548.974V502.336C280.077 495.765 274.695 490.38 268.126 490.38H258.547C251.978 490.38 246.596 495.765 246.596 502.336V548.974C246.596 555.545 251.978 560.93 258.547 560.93Z" fill="white"/>
<path d="M270.225 558.649H267.944C267.762 558.649 267.579 558.466 267.579 558.284C267.579 558.101 267.762 557.918 267.944 557.918H270.225C270.407 557.918 270.59 558.101 270.59 558.284C270.681 558.466 270.499 558.649 270.225 558.649Z" fill="#8E7D9C"/>
<path d="M276.611 557.827H274.33H274.239H274.148H271.867C271.684 557.827 271.502 558.01 271.502 558.192C271.502 558.375 271.684 558.557 271.867 558.557H274.148H274.239H274.33H276.611C276.793 558.557 276.976 558.375 276.976 558.192C276.976 558.01 276.793 557.827 276.611 557.827Z" fill="#8E7D9C"/>
<path d="M262.744 514.019C258.73 514.019 255.445 510.186 255.445 505.531C255.445 500.876 258.73 497.043 262.744 497.043C266.758 497.043 270.042 500.876 270.042 505.531C270.042 510.186 266.758 514.019 262.744 514.019ZM262.744 497.773C259.186 497.773 256.266 501.241 256.266 505.44C256.266 509.729 259.186 513.106 262.744 513.106C266.302 513.106 269.221 509.638 269.221 505.44C269.221 501.241 266.302 497.773 262.744 497.773Z" fill="#F7665F"/>
<path d="M262.744 534.098C258.73 534.098 255.445 530.265 255.445 525.61C255.445 520.955 258.73 517.122 262.744 517.122C266.758 517.122 270.042 520.955 270.042 525.61C270.042 530.265 266.758 534.098 262.744 534.098ZM262.744 517.943C259.186 517.943 256.266 521.412 256.266 525.61C256.266 529.9 259.186 533.276 262.744 533.276C266.302 533.276 269.221 529.808 269.221 525.61C269.221 521.32 266.302 517.943 262.744 517.943Z" fill="#F7665F"/>
<path d="M262.744 554.268C258.73 554.268 255.445 550.435 255.445 545.78C255.445 541.125 258.73 537.292 262.744 537.292C266.758 537.292 270.042 541.125 270.042 545.78C270.042 550.435 266.758 554.268 262.744 554.268ZM262.744 538.022C259.186 538.022 256.266 541.49 256.266 545.689C256.266 549.978 259.186 553.355 262.744 553.355C266.302 553.355 269.221 549.887 269.221 545.689C269.221 541.49 266.302 538.022 262.744 538.022Z" fill="#F7665F"/>
<path d="M148.158 522.324C147.246 523.967 145.877 525.427 145.056 527.161C143.87 529.625 143.87 532.546 143.232 535.193C142.775 537.201 141.863 539.117 141.316 541.125C140.768 543.133 140.586 545.323 141.407 547.24C148.341 534.919 152.446 521.229 159.014 508.725C160.109 506.717 161.204 504.709 162.299 502.702C163.485 500.602 164.215 497.591 161.295 496.495C159.471 495.856 158.285 497.408 157.372 498.777C154.362 503.34 151.625 507.813 150.621 513.289C150.074 516.3 149.709 519.495 148.158 522.324Z" fill="#6D729E"/>
<path d="M198.061 500.876C198.608 501.058 199.247 501.241 199.612 501.789C200.159 502.519 200.068 503.523 199.612 504.253C199.247 505.074 198.517 505.713 198.061 506.352C196.693 508.36 196.419 511.007 196.51 513.471C196.601 515.935 196.966 518.491 196.419 520.864C195.872 523.419 194.412 525.701 193.408 528.165C192.405 530.538 191.766 533.093 191.584 535.649C191.401 537.748 191.584 539.847 191.401 541.946C191.128 545.049 190.124 548.244 191.31 551.073C196.875 535.74 201.71 520.133 206.546 504.527C207.093 502.793 207.64 500.876 207.184 499.051C206.454 495.948 202.988 494.213 199.794 493.666C197.879 493.392 195.78 493.392 194.138 494.305C192.952 495.035 191.219 497.408 192.222 498.777C193.317 500.146 196.784 500.511 198.061 500.876Z" fill="#6D729E"/>
<path d="M198.608 545.871L194.047 562.664L201.71 563.303L207.823 545.597L198.608 545.871Z" fill="#FD9783"/>
<path d="M212.475 563.485L203.17 560.017L194.868 560.2C193.864 560.2 193.043 561.112 193.043 562.299L192.952 567.41L214.3 567.592C215.212 566.132 214.756 564.307 212.475 563.485Z" fill="#F7665F"/>
<path d="M192.952 567.318L192.77 568.231C192.678 568.779 193.226 569.326 194.047 569.326L210.651 569.235C212.475 569.235 213.753 568.505 214.391 567.501L192.952 567.318Z" fill="#000543"/>
<path d="M203.808 562.847L203.17 562.664C203.079 562.664 202.987 562.481 202.987 562.299L203.808 559.105C203.808 558.922 203.991 558.831 204.082 558.922L204.721 559.105C204.812 559.105 204.903 559.287 204.903 559.47L204.082 562.664C204.082 562.847 203.9 562.938 203.808 562.847Z" fill="#000543"/>
<path d="M206.271 563.668L205.633 563.485C205.541 563.485 205.45 563.303 205.45 563.12L206.271 559.926C206.271 559.743 206.454 559.652 206.545 559.743L207.184 559.926C207.275 559.926 207.366 560.108 207.366 560.291L206.545 563.485C206.545 563.577 206.363 563.668 206.271 563.668Z" fill="#000543"/>
<path d="M208.553 564.49L207.914 564.307C207.823 564.307 207.731 564.125 207.731 563.942L208.553 560.748C208.553 560.565 208.735 560.474 208.826 560.565L209.465 560.748C209.556 560.748 209.647 560.93 209.647 561.113L208.826 564.307C208.826 564.49 208.735 564.49 208.553 564.49Z" fill="#000543"/>
<path d="M197.605 566.953L194.959 567.045C194.685 567.045 194.503 566.862 194.503 566.588V566.223C194.503 565.95 194.685 565.767 194.959 565.767L197.605 565.676C197.878 565.676 198.061 565.858 198.061 566.132V566.497C198.061 566.771 197.787 566.953 197.605 566.953Z" fill="#000543"/>
<path d="M253.347 398.748L244.953 438.266H239.662L247.052 403.311C247.599 400.847 250.427 398.748 253.347 398.748Z" fill="#12040B"/>
<path d="M239.662 438.267L248.238 397.926H201.71L193.135 438.267H239.662Z" fill="#321224"/>
<path d="M162.208 427.223H293.854C296.226 427.223 298.507 425.58 298.963 423.481L316.57 340.793C317.026 338.694 315.476 337.051 313.012 337.051H181.367C178.995 337.051 176.714 338.694 176.258 340.793L158.742 423.481C158.286 425.58 159.836 427.223 162.208 427.223Z" fill="#25182D"/>
<path d="M155.548 427.223H287.194C289.566 427.223 291.846 425.58 292.303 423.481L309.91 340.793C310.366 338.694 308.815 337.051 306.352 337.051H174.707C172.335 337.051 170.054 338.694 169.598 340.793L152.082 423.481C151.625 425.58 153.176 427.223 155.548 427.223Z" fill="#452A51"/>
<path d="M303.889 340.793H276.611H250.245H241.487H190.854H176.257C174.615 340.793 173.064 341.888 172.791 343.257L164.58 381.681L162.208 392.907L157.92 413.168L156.825 418.37C156.552 419.739 157.646 420.835 159.197 420.835H224.427H227.164H239.297H286.829C288.471 420.835 290.022 419.739 290.295 418.37L294.674 397.926L296.316 390.077L298.05 381.681L306.261 343.257C306.626 341.888 305.531 340.793 303.889 340.793Z" fill="#D5DFFA"/>
<path d="M146.334 544.867L141.134 561.113L148.797 562.664L155.457 545.597L146.334 544.867Z" fill="#FD9783"/>
<path d="M235.739 437.902H249.059C246.596 431.787 238.202 432.243 238.202 432.243L235.739 437.902Z" fill="#FD9783"/>
<path d="M168.958 382.045C173.793 380.768 177.351 377.026 178.537 372.28C178.629 372.189 178.629 372.097 178.72 372.006C178.081 371.367 177.534 370.363 177.351 369.268C177.078 367.169 177.99 365.435 179.541 365.252C180.088 365.161 180.636 365.435 181.183 365.8C181.548 366.074 181.822 366.439 182.095 366.804C182.369 366.713 182.46 365.709 182.46 365.435C182.46 364.796 182.369 364.157 182.369 363.609C182.369 362.697 182.825 361.602 183.281 360.506L184.559 370.089C184.832 373.466 183.373 376.569 181.092 378.76C179.997 379.764 178.72 380.676 177.443 381.224C176.804 382.593 176.257 383.962 175.892 385.422C175.527 386.791 174.797 388.799 173.428 390.442C172.972 390.99 172.607 389.803 171.878 389.894C167.225 390.442 161.842 389.438 161.751 388.708C161.751 388.525 163.576 386.244 163.667 386.061C164.579 384.875 165.674 382.502 166.039 381.133C167.042 381.589 167.59 382.411 168.958 382.045Z" fill="#FD9783"/>
<path d="M159.197 374.288C159.288 374.47 159.288 374.653 159.379 374.744C159.653 376.478 158.923 378.395 160.018 379.764C160.748 380.585 161.934 380.768 162.937 380.768C164.032 380.768 165.127 380.677 166.13 381.133C166.678 381.407 167.134 381.863 167.681 382.046C168.138 382.228 168.502 382.137 168.959 382.046C169.05 382.046 169.232 381.954 169.324 381.954C175.801 379.946 177.899 374.653 178.538 372.28C178.629 372.189 178.629 372.097 178.72 372.006C178.082 371.367 177.534 370.363 177.352 369.268C177.078 367.169 177.99 365.435 179.541 365.252C180.089 365.161 180.636 365.435 181.183 365.8C181.548 366.074 181.822 366.439 182.096 366.804C182.369 366.713 182.461 365.709 182.461 365.435C182.461 364.796 182.369 364.157 182.369 363.61C182.369 362.697 182.826 361.602 183.282 360.507C183.647 359.594 184.103 358.681 184.285 357.951C184.741 355.761 184.377 352.566 183.099 350.741C181.913 348.916 179.085 349.281 176.896 349.007C176.075 348.916 175.253 348.916 174.524 348.55C173.885 348.277 173.429 347.729 172.79 347.364C171.604 346.634 170.145 346.725 168.867 347.09C168.776 347.09 168.776 347.181 168.685 347.181C167.499 347.547 166.313 348.277 165.218 348.824C163.394 349.737 161.386 350.467 159.744 351.745C159.106 352.201 158.558 352.84 158.102 353.479C157.464 354.392 157.007 355.487 157.099 356.582C156.825 356.765 156.642 356.947 156.46 357.221C155.183 358.59 154.453 360.415 154.271 362.241C154.271 362.606 154.271 362.971 154.271 363.427C154.362 365.983 155.456 368.447 156.916 370.546C157.737 371.641 158.832 372.828 159.197 374.288Z" fill="#000543"/>
<path d="M184.924 426.493C184.924 426.493 173.52 413.624 171.239 408.057L168.138 400.756C163.576 389.986 183.373 390.26 187.935 401.029C190.033 406.049 192.952 411.434 195.872 415.815L195.963 415.723L197.696 417.549C205.086 425.489 224.518 427.314 236.378 428.045C237.838 428.136 238.932 429.414 238.75 430.874L238.294 435.62C238.202 436.989 237.016 437.993 235.648 437.993C194.138 436.897 192.77 432.699 184.924 426.493Z" fill="white"/>
<path d="M293.215 437.901H93.6025V445.02H293.215V437.901Z" fill="#C0CFF0"/>
<path d="M166.404 475.96L167.043 478.607C165.948 483.718 161.934 492.753 157.373 503.249C152.264 514.84 145.969 529.26 141.316 543.498C140.769 545.141 141.042 546.875 141.955 548.244C142.867 549.613 144.327 550.526 145.969 550.708H146.06L156.46 551.803C158.832 552.077 161.113 550.708 162.117 548.518C170.327 530.538 176.896 517.852 182.278 507.721C186.84 498.959 190.124 492.662 192.223 487.095L192.77 485.726L166.404 475.96Z" fill="#6D729E"/>
<path d="M221.599 474.5L220.869 475.869L221.416 474.408C199.794 464.643 163.576 467.837 149.07 469.754L147.428 469.936V470.119C145.604 470.393 142.137 470.849 138.761 471.031L136.024 503.158C141.316 502.884 147.702 502.062 154.818 501.241C168.594 499.507 185.563 497.499 199.977 498.686C201.345 498.777 202.258 500.146 201.893 501.424C201.437 503.34 200.889 505.257 200.342 507.265C197.058 519.312 193.043 534.28 190.671 548.609C190.489 549.795 190.763 550.982 191.584 551.895C192.314 552.716 193.408 553.264 194.594 553.264H194.686L205.451 552.898C207.458 552.807 209.556 551.438 210.103 549.43C217.037 525.153 224.792 503.888 228.35 493.392C230.995 485.543 228.806 477.694 221.599 474.5Z" fill="#6D729E"/>
<path d="M188.299 411.89C190.033 407.327 187.478 393.454 179.632 390.077C173.246 387.339 153.814 385.788 147.246 391.629C134.838 402.581 135.386 409.243 127.722 421.93C116.136 441.735 125.624 443.104 100.901 479.611C99.897 481.162 98.2548 484.722 98.8934 485.817C101.995 491.019 109.202 491.11 116.775 491.293C123.891 491.475 153.814 484.448 153.814 484.448C160.292 482.987 166.769 478.242 169.05 473.313C171.695 467.746 174.159 461.722 173.794 458.163C170.144 421.656 181.092 430.782 188.299 411.89Z" fill="white"/>
<path d="M235.739 438.358C199.338 437.354 193.591 434.159 187.205 428.866C185.471 427.405 183.829 425.854 182.369 424.12C180.454 421.838 177.717 418.553 175.345 415.267L175.983 414.811C178.355 418.005 181.092 421.382 183.008 423.572C184.377 425.215 185.927 426.767 187.752 428.227C194.047 433.338 199.703 436.623 235.83 437.536L235.739 438.358Z" fill="#C0CFF0"/>
<path d="M361.181 437.901H261.01V445.02H361.181V437.901Z" fill="white"/>
<path d="M158.193 563.668L148.979 560.108L140.677 560.2C139.673 560.2 138.852 561.112 138.852 562.299L138.67 567.41L160.018 567.866C160.93 566.406 160.474 564.489 158.193 563.668Z" fill="#F7665F"/>
<path d="M138.67 567.319L138.397 568.232C138.214 568.779 138.853 569.327 139.674 569.327L156.278 569.418C158.102 569.418 159.38 568.688 160.018 567.684L138.67 567.319Z" fill="#000543"/>
<path d="M149.527 562.938L148.889 562.755C148.797 562.755 148.706 562.573 148.706 562.39L149.527 559.196C149.527 559.013 149.71 558.922 149.801 559.013L150.439 559.196C150.531 559.196 150.622 559.378 150.622 559.561L149.801 562.755C149.801 562.938 149.71 563.029 149.527 562.938Z" fill="#000543"/>
<path d="M151.99 563.759L151.351 563.577C151.26 563.577 151.169 563.394 151.169 563.212L151.99 560.017C151.99 559.835 152.172 559.743 152.264 559.835L152.902 560.017C152.994 560.017 153.085 560.2 153.085 560.382L152.264 563.577C152.264 563.668 152.081 563.759 151.99 563.759Z" fill="#000543"/>
<path d="M154.27 564.58L153.632 564.398C153.54 564.398 153.449 564.215 153.449 564.033L154.27 560.838C154.27 560.656 154.453 560.565 154.544 560.656L155.183 560.838C155.274 560.838 155.365 561.021 155.365 561.204L154.544 564.398C154.544 564.581 154.453 564.672 154.27 564.58Z" fill="#000543"/>
<path d="M143.324 566.954H140.678C140.404 566.954 140.222 566.771 140.222 566.497V566.132C140.222 565.858 140.404 565.676 140.678 565.676H143.324C143.597 565.676 143.78 565.858 143.78 566.132V566.497C143.688 566.771 143.506 566.954 143.324 566.954Z" fill="#000543"/>
<path d="M283.909 418.826C282.632 418.826 281.628 418.37 280.898 417.457C280.169 416.545 279.895 415.358 280.169 414.08C280.716 411.525 283.088 409.517 285.642 409.517C286.92 409.517 287.923 409.973 288.653 410.886C289.383 411.799 289.657 412.985 289.383 414.263C289.383 414.446 289.109 414.628 288.927 414.628C288.744 414.628 288.562 414.354 288.562 414.172C288.744 413.168 288.562 412.164 288.014 411.525C287.467 410.886 286.646 410.43 285.642 410.43C283.453 410.43 281.446 412.164 280.99 414.354C280.807 415.358 280.99 416.362 281.537 417.001C282.084 417.64 282.905 418.096 283.909 418.096C284.639 418.096 285.369 417.914 286.007 417.549C286.19 417.457 286.463 417.549 286.555 417.731C286.646 417.914 286.555 418.187 286.372 418.279C285.642 418.644 284.73 418.826 283.909 418.826Z" fill="#ECF1FF"/>
<path d="M179.815 375.109C181.982 375.109 183.738 372.412 183.738 369.086C183.738 365.759 181.982 363.062 179.815 363.062C177.649 363.062 175.893 365.759 175.893 369.086C175.893 372.412 177.649 375.109 179.815 375.109Z" fill="#C0CFF0"/>
<path d="M182.37 363.062H179.633V364.431H182.37V363.062Z" fill="#C0CFF0"/>
<path d="M182.37 373.74H179.633V375.109H182.37V373.74Z" fill="#C0CFF0"/>
<path d="M182.278 375.109C184.445 375.109 186.201 372.412 186.201 369.086C186.201 365.759 184.445 363.062 182.278 363.062C180.112 363.062 178.355 365.759 178.355 369.086C178.355 372.412 180.112 375.109 182.278 375.109Z" fill="white"/>
<path d="M183.282 366.895C182.917 366.895 182.643 366.53 182.643 366.256C183.738 352.931 175.162 349.554 174.797 349.463C174.432 349.372 174.341 349.007 174.432 348.642C174.524 348.277 174.888 348.185 175.253 348.277C175.345 348.277 185.015 352.019 183.829 366.348C183.92 366.621 183.647 366.895 183.282 366.895Z" fill="white"/>
<path d="M248.329 564.49C244.589 564.49 240.848 564.216 237.108 563.212C230.722 561.478 225.613 557.462 223.514 552.442C221.964 548.792 221.781 544.32 222.967 538.844C224.792 530.082 228.897 521.776 232.82 513.836C237.838 503.797 243.038 493.301 243.311 482.075C243.494 477.329 242.582 473.313 240.848 470.119C238.111 465.373 232.82 461.722 225.065 459.441C222.785 458.802 220.413 458.254 218.132 457.707C214.026 456.703 209.739 455.699 205.725 453.965C193.226 448.489 183.738 435.346 180.271 418.827C177.261 404.041 178.994 388.982 180.727 374.379L181.913 374.562C180.18 389.073 178.447 404.041 181.457 418.644C184.742 434.707 193.956 447.485 206.181 452.869C210.012 454.604 214.3 455.516 218.314 456.52C220.595 457.068 222.967 457.615 225.339 458.254C233.459 460.627 239.024 464.46 241.852 469.48C243.768 472.857 244.68 477.055 244.497 482.075C244.132 493.575 238.932 504.162 233.823 514.384C229.901 522.324 225.795 530.447 224.062 539.117C222.967 544.411 223.15 548.609 224.609 551.986C226.525 556.641 231.36 560.383 237.381 562.025C242.947 563.486 248.785 563.303 254.442 563.121L254.533 564.398C252.526 564.398 250.427 564.49 248.329 564.49Z" fill="#C0CFF0"/>
<path d="M255.719 565.128H253.712C252.982 565.128 252.435 564.581 252.435 563.85C252.435 563.12 252.982 562.573 253.712 562.573H255.719C256.449 562.573 256.996 563.12 256.996 563.85C257.087 564.581 256.449 565.128 255.719 565.128Z" fill="#C0CFF0"/>
<path d="M146.152 534.919H141.499V560.291H146.152V534.919Z" fill="#000543"/>
<path d="M145.422 540.578H142.229C140.039 540.578 138.215 538.752 138.215 536.562V502.884H149.436V536.562C149.436 538.752 147.612 540.578 145.422 540.578Z" fill="white"/>
<path d="M161.752 497.408H125.899C123.892 497.408 122.341 499.051 122.341 500.968C122.341 502.976 123.983 504.527 125.899 504.527H161.752C163.759 504.527 165.31 502.884 165.31 500.968C165.31 499.051 163.759 497.408 161.752 497.408Z" fill="#FDBF79"/>
<path d="M180.546 566.315C179.998 566.315 179.542 565.859 179.542 565.311C179.542 563.03 177.717 561.204 175.437 561.204H112.214C109.933 561.204 108.109 563.03 108.109 565.311C108.109 565.859 107.652 566.315 107.105 566.315C106.558 566.315 106.102 565.859 106.102 565.311C106.102 561.934 108.838 559.196 112.214 559.196H175.528C178.903 559.196 181.64 561.934 181.64 565.311C181.64 565.859 181.184 566.315 180.546 566.315Z" fill="#000543"/>
<path d="M183.049 568.207C184.438 566.817 184.438 564.564 183.048 563.174C181.659 561.783 179.406 561.784 178.017 563.174C176.627 564.564 176.627 566.817 178.017 568.207C179.406 569.597 181.659 569.597 183.049 568.207Z" fill="white"/>
<path d="M109.595 568.176C110.985 566.786 110.985 564.532 109.595 563.142C108.206 561.752 105.953 561.752 104.564 563.142C103.174 564.532 103.174 566.786 104.564 568.176C105.953 569.566 108.206 569.566 109.595 568.176Z" fill="white"/>
<path d="M98.6204 491.019L88.4938 406.688C87.8552 401.395 91.322 397.105 96.1572 397.105H143.871C148.706 397.105 153.176 401.395 153.815 406.688L163.576 491.019H98.6204Z" fill="#FDE378"/>
<path d="M94.5148 491.019L85.483 406.688C84.9356 401.395 88.1286 397.105 92.5989 397.105H136.572C141.042 397.105 145.148 401.395 145.695 406.688L154.727 491.019H94.5148Z" fill="#FDBF79"/>
<path d="M94.332 490.38V494.579C94.332 497.682 96.8865 500.146 99.8971 500.146H184.376C187.843 500.146 190.58 499.051 190.58 495.583V494.487C190.58 492.48 188.938 490.38 187.022 490.38H94.332Z" fill="#FDBF79"/>
<path d="M180.636 455.881H156.004C154.27 455.881 152.811 454.421 152.811 452.687V450.131C152.811 448.397 154.27 446.937 156.004 446.937H180.636C182.369 446.937 183.829 448.397 183.829 450.131V452.687C183.829 454.512 182.369 455.881 180.636 455.881Z" fill="#FDBF79"/>
<path d="M187.752 455.881H163.12C161.386 455.881 159.927 454.421 159.927 452.687V450.131C159.927 448.397 161.386 446.937 163.12 446.937H187.752C189.485 446.937 190.945 448.397 190.945 450.131V452.687C190.945 454.512 189.485 455.881 187.752 455.881Z" fill="#FDE378"/>
<path d="M198.152 500.237H182.552C182.005 500.237 181.64 499.781 181.64 499.325V491.384C181.64 490.837 182.096 490.472 182.552 490.472H198.152C200.068 490.472 201.619 492.023 201.619 493.94V496.769C201.71 498.594 200.068 500.237 198.152 500.237Z" fill="#FDBF79"/>
<path d="M272.414 406.049L203.261 405.501C202.258 405.501 201.345 405.045 200.707 404.224C200.068 403.402 199.886 402.216 200.068 401.029L209.556 355.578C210.103 353.114 212.293 351.197 214.482 351.197L283.635 351.745C284.639 351.745 285.551 352.201 286.19 353.023C286.828 353.844 287.011 355.031 286.828 356.217L277.34 401.668C276.884 404.132 274.603 406.049 272.414 406.049Z" fill="#6D729E"/>
<path d="M188.664 279.005C186.84 279.005 185.015 278.457 183.373 277.453C180.362 275.628 178.629 272.433 178.629 269.057L179.268 221.506C179.268 218.129 181.092 215.117 184.103 213.292C187.205 211.375 191.036 211.284 194.321 213.018L239.206 236.383C242.581 238.117 244.588 241.311 244.588 244.962C244.588 248.613 242.673 251.807 239.297 253.632L193.773 277.818C192.04 278.64 190.398 279.096 188.664 279.005Z" fill="white"/>
<path d="M254.625 358.681H257.179C257.544 358.681 257.909 358.407 258 358.042L258.548 355.396C258.639 355.031 258.365 354.757 258 354.757H255.446C255.081 354.757 254.716 355.031 254.625 355.396L254.077 358.042C253.986 358.407 254.26 358.681 254.625 358.681Z" fill="#D5DFFA"/>
<path d="M246.14 358.681H248.695C249.06 358.681 249.424 358.407 249.516 358.042L250.063 355.396C250.154 355.031 249.881 354.757 249.516 354.757H246.961C246.596 354.757 246.231 355.031 246.14 355.396L245.593 358.042C245.593 358.407 245.775 358.681 246.14 358.681Z" fill="#D5DFFA"/>
<path d="M262.835 358.681H265.39C265.755 358.681 266.12 358.407 266.211 358.042L266.758 355.396C266.85 355.031 266.576 354.757 266.211 354.757H263.657C263.292 354.757 262.927 355.031 262.835 355.396L262.288 358.042C262.288 358.407 262.471 358.681 262.835 358.681Z" fill="#D5DFFA"/>
<path d="M271.137 358.681H273.692C274.057 358.681 274.422 358.407 274.513 358.042L275.06 355.396C275.151 355.031 274.878 354.757 274.513 354.757H271.958C271.593 354.757 271.228 355.031 271.137 355.396L270.59 358.042C270.59 358.407 270.772 358.681 271.137 358.681Z" fill="#D5DFFA"/>
<path d="M279.439 358.681H281.994C282.358 358.681 282.723 358.407 282.815 358.042L283.362 355.396C283.453 355.031 283.18 354.757 282.815 354.757H280.26C279.895 354.757 279.53 355.031 279.439 355.396L278.892 358.042C278.8 358.407 279.074 358.681 279.439 358.681Z" fill="#D5DFFA"/>
<path d="M213.388 358.681H215.943C216.308 358.681 216.673 358.407 216.764 358.042L217.311 355.396C217.402 355.031 217.129 354.757 216.764 354.757H214.209C213.844 354.757 213.48 355.031 213.388 355.396L212.841 358.042C212.75 358.407 213.023 358.681 213.388 358.681Z" fill="#D5DFFA"/>
<path d="M221.599 358.681H224.154C224.518 358.681 224.883 358.407 224.975 358.042L225.522 355.396C225.613 355.031 225.34 354.757 224.975 354.757H222.42C222.055 354.757 221.69 355.031 221.599 355.396L221.052 358.042C221.052 358.407 221.234 358.681 221.599 358.681Z" fill="#D5DFFA"/>
<path d="M229.901 358.681H232.455C232.82 358.681 233.185 358.407 233.277 358.042L233.824 355.396C233.915 355.031 233.641 354.757 233.277 354.757H230.722C230.357 354.757 229.992 355.031 229.901 355.396L229.354 358.042C229.262 358.407 229.536 358.681 229.901 358.681Z" fill="#D5DFFA"/>
<path d="M238.203 358.681H240.757C241.122 358.681 241.487 358.407 241.578 358.042L242.126 355.396C242.217 355.031 241.943 354.757 241.578 354.757H239.024C238.659 354.757 238.294 355.031 238.203 355.396L237.655 358.042C237.564 358.407 237.838 358.681 238.203 358.681Z" fill="#D5DFFA"/>
<path d="M245.41 402.581H247.964C248.329 402.581 248.694 402.307 248.785 401.942L249.333 399.296C249.424 398.931 249.15 398.657 248.785 398.657H246.231C245.866 398.657 245.501 398.931 245.41 399.296L244.862 401.942C244.771 402.307 245.045 402.581 245.41 402.581Z" fill="#D5DFFA"/>
<path d="M236.925 402.581H239.48C239.845 402.581 240.21 402.307 240.301 401.942L240.848 399.296C240.939 398.931 240.666 398.657 240.301 398.657H237.746C237.381 398.657 237.017 398.931 236.925 399.296L236.378 401.942C236.378 402.307 236.56 402.581 236.925 402.581Z" fill="#D5DFFA"/>
<path d="M253.712 402.581H256.266C256.631 402.581 256.996 402.307 257.087 401.942L257.634 399.296C257.726 398.931 257.452 398.657 257.087 398.657H254.533C254.168 398.657 253.803 398.931 253.712 399.296L253.164 401.942C253.073 402.307 253.347 402.581 253.712 402.581Z" fill="#D5DFFA"/>
<path d="M261.922 402.581H264.477C264.842 402.581 265.207 402.307 265.298 401.942L265.845 399.296C265.937 398.931 265.663 398.657 265.298 398.657H262.743C262.379 398.657 262.014 398.931 261.922 399.296L261.375 401.942C261.375 402.307 261.557 402.581 261.922 402.581Z" fill="#D5DFFA"/>
<path d="M270.224 402.581H272.779C273.143 402.581 273.508 402.307 273.6 401.942L274.147 399.296C274.238 398.931 273.965 398.657 273.6 398.657H271.045C270.68 398.657 270.315 398.931 270.224 399.296L269.677 401.942C269.677 402.307 269.859 402.581 270.224 402.581Z" fill="#D5DFFA"/>
<path d="M204.173 402.581H206.728C207.093 402.581 207.458 402.307 207.549 401.942L208.096 399.296C208.188 398.931 207.914 398.657 207.549 398.657H204.995C204.63 398.657 204.265 398.931 204.173 399.296L203.626 401.942C203.535 402.307 203.809 402.581 204.173 402.581Z" fill="#D5DFFA"/>
<path d="M212.384 402.581H214.939C215.304 402.581 215.669 402.307 215.76 401.942L216.307 399.296C216.398 398.931 216.125 398.657 215.76 398.657H213.205C212.84 398.657 212.476 398.931 212.384 399.296L211.837 401.942C211.837 402.307 212.019 402.581 212.384 402.581Z" fill="#D5DFFA"/>
<path d="M220.686 402.581H223.241C223.605 402.581 223.97 402.307 224.062 401.942L224.609 399.296C224.7 398.931 224.427 398.657 224.062 398.657H221.507C221.142 398.657 220.777 398.931 220.686 399.296L220.139 401.942C220.139 402.307 220.321 402.581 220.686 402.581Z" fill="#D5DFFA"/>
<path d="M228.988 402.581H231.542C231.907 402.581 232.272 402.307 232.363 401.942L232.911 399.296C233.002 398.931 232.728 398.657 232.363 398.657H229.809C229.444 398.657 229.079 398.931 228.988 399.296L228.441 401.942C228.349 402.307 228.623 402.581 228.988 402.581Z" fill="#D5DFFA"/>
<path d="M54.921 59.7804L45.2505 64.9826L27.0957 63.9787L36.7661 58.8677L54.921 59.7804Z" fill="url(#paint0_linear)"/>
<path d="M35.6712 130.787L26.0007 135.898L11.4951 47.8244L21.1655 42.7134L35.6712 130.787Z" fill="url(#paint1_linear)"/>
<path d="M52.3667 44.3562L54.9212 59.7804L36.7663 58.8677L56.2896 177.881L17.3343 175.781L9.6709 129.418L35.6716 130.787L21.1659 42.7134L52.3667 44.3562Z" fill="url(#paint2_linear)"/>
<path d="M18.0645 175.051L10.6748 130.239L36.6755 131.608L22.1698 43.5347L51.6372 45.0862L53.918 58.8676L35.7632 57.9549L55.3777 176.968L18.0645 175.051Z" fill="url(#paint3_linear)"/>
<path d="M56.2889 177.88L46.6185 183.083L7.66309 180.983L17.3335 175.781L56.2889 177.88Z" fill="url(#paint4_linear)"/>
<path d="M17.3338 175.781L7.66335 180.984L0 134.528L9.67042 129.417L17.3338 175.781Z" fill="url(#paint5_linear)"/>
<path d="M380.431 618.885L347.861 612.679L369.483 587.58L391.013 562.391L402.052 593.695L413 625L380.431 618.885Z" fill="#00C7EA"/>
<path d="M238.021 9.40039L244.315 14.7852L222.146 87.2516L215.852 81.8668L238.021 9.40039Z" fill="url(#paint6_linear)"/>
<path d="M215.851 81.8672L222.146 87.252H196.784L190.489 81.8672H215.851Z" fill="url(#paint7_linear)"/>
<path d="M286.19 9.40039L292.485 14.7852H244.315L238.021 9.40039H286.19Z" fill="url(#paint8_linear)"/>
<path d="M297.503 0L272.414 81.867H247.052L255.719 53.6653H272.597L286.19 9.40056H238.02L215.851 81.867H190.489L199.156 53.6653H216.034L232.455 0H297.503Z" fill="url(#paint9_linear)"/>
<path d="M247.873 81.3191L256.175 54.2127H273.053L287.011 8.85271H237.564L215.395 81.3191H191.311L199.613 54.2127H216.49L232.912 0.547363H296.682L271.958 81.3191H247.873Z" fill="url(#paint10_linear)"/>
<path d="M297.502 0L303.797 5.38478L278.709 87.2517L272.414 81.867L297.502 0Z" fill="url(#paint11_linear)"/>
<path d="M272.414 81.8672L278.709 87.252H253.347L247.052 81.8672H272.414Z" fill="url(#paint12_linear)"/>
<path d="M238.021 9.40039L244.315 14.7852L222.146 87.2516L215.852 81.8668L238.021 9.40039Z" fill="#FF43FF"/>
<path d="M215.851 81.8672L222.146 87.252H196.784L190.489 81.8672H215.851Z" fill="#FF43FF"/>
<path d="M286.19 9.40039L292.485 14.7852H244.315L238.021 9.40039H286.19Z" fill="#FF43FF"/>
<path d="M297.503 0L272.414 81.867H247.052L255.719 53.6653H272.597L286.19 9.40056H238.02L215.851 81.867H190.489L199.156 53.6653H216.034L232.455 0H297.503Z" fill="#FF43FF"/>
<path d="M247.873 81.3191L256.175 54.2127H273.053L287.011 8.85271H237.564L215.395 81.3191H191.311L199.613 54.2127H216.49L232.912 0.547363H296.682L271.958 81.3191H247.873Z" fill="#FF43FF"/>
<path d="M297.502 0L303.797 5.38478L278.709 87.2517L272.414 81.867L297.502 0Z" fill="#FF43FF"/>
<path d="M272.414 81.8672L278.709 87.252H253.347L247.052 81.8672H272.414Z" fill="#FF43FF"/>
<defs>
<linearGradient id="paint0_linear" x1="27.0584" y1="61.904" x2="54.915" y2="61.904" gradientUnits="userSpaceOnUse">
<stop stop-color="#229B58"/>
<stop offset="1" stop-color="#3EE593"/>
</linearGradient>
<linearGradient id="paint1_linear" x1="33.0306" y1="138.143" x2="11.8738" y2="28.7013" gradientUnits="userSpaceOnUse">
<stop stop-color="#229B58"/>
<stop offset="1" stop-color="#3EE593"/>
</linearGradient>
<linearGradient id="paint2_linear" x1="42.9437" y1="100.712" x2="-13.3089" y2="229.086" gradientUnits="userSpaceOnUse">
<stop offset="0.0108298" stop-color="#ACF4D1"/>
<stop offset="1" stop-color="#3EE593"/>
</linearGradient>
<linearGradient id="paint3_linear" x1="41.3629" y1="105.929" x2="-9.92468" y2="191.374" gradientUnits="userSpaceOnUse">
<stop offset="0.0108298" stop-color="#ACF4D1"/>
<stop offset="1" stop-color="#3EE593"/>
</linearGradient>
<linearGradient id="paint4_linear" x1="3.99854" y1="166.584" x2="100.729" y2="210.966" gradientUnits="userSpaceOnUse">
<stop stop-color="#229B58"/>
<stop offset="1" stop-color="#3EE593"/>
</linearGradient>
<linearGradient id="paint5_linear" x1="20.4508" y1="216.589" x2="-2.82167" y2="95.5153" gradientUnits="userSpaceOnUse">
<stop stop-color="#229B58"/>
<stop offset="1" stop-color="#3EE593"/>
</linearGradient>
<linearGradient id="paint6_linear" x1="214.977" y1="42.0397" x2="247.158" y2="55.4428" gradientUnits="userSpaceOnUse">
<stop offset="0.0128762" stop-color="#19743A"/>
<stop offset="0.2071" stop-color="#1B7C40"/>
<stop offset="0.5132" stop-color="#209352"/>
<stop offset="0.6044" stop-color="#229B58"/>
<stop offset="0.6875" stop-color="#2BA663"/>
<stop offset="0.8322" stop-color="#42C27F"/>
<stop offset="1" stop-color="#64EAA8"/>
</linearGradient>
<linearGradient id="paint7_linear" x1="204.592" y1="58.9566" x2="209.065" y2="125.571" gradientUnits="userSpaceOnUse">
<stop offset="0.0128762" stop-color="#19743A"/>
<stop offset="0.2071" stop-color="#1B7C40"/>
<stop offset="0.5132" stop-color="#209352"/>
<stop offset="0.6044" stop-color="#229B58"/>
<stop offset="0.6875" stop-color="#2BA663"/>
<stop offset="0.8322" stop-color="#42C27F"/>
<stop offset="1" stop-color="#64EAA8"/>
</linearGradient>
<linearGradient id="paint8_linear" x1="267.112" y1="1.13073" x2="239.85" y2="162.417" gradientUnits="userSpaceOnUse">
<stop offset="0.0128762" stop-color="#19743A"/>
<stop offset="0.2071" stop-color="#1B7C40"/>
<stop offset="0.5132" stop-color="#209352"/>
<stop offset="0.6044" stop-color="#229B58"/>
<stop offset="0.6875" stop-color="#2BA663"/>
<stop offset="0.8322" stop-color="#42C27F"/>
<stop offset="1" stop-color="#64EAA8"/>
</linearGradient>
<linearGradient id="paint9_linear" x1="252.547" y1="3.90333" x2="232.517" y2="90.6626" gradientUnits="userSpaceOnUse">
<stop offset="0.1282" stop-color="#65EBA9"/>
<stop offset="1" stop-color="#229B58"/>
</linearGradient>
<linearGradient id="paint10_linear" x1="252.694" y1="3.26312" x2="232.955" y2="88.765" gradientUnits="userSpaceOnUse">
<stop offset="0.1343" stop-color="#3EE593"/>
<stop offset="1" stop-color="#229B58"/>
</linearGradient>
<linearGradient id="paint11_linear" x1="266.334" y1="35.5452" x2="306.112" y2="50.2883" gradientUnits="userSpaceOnUse">
<stop offset="0.0128762" stop-color="#19743A"/>
<stop offset="0.2071" stop-color="#1B7C40"/>
<stop offset="0.5132" stop-color="#209352"/>
<stop offset="0.6044" stop-color="#229B58"/>
<stop offset="0.6875" stop-color="#2BA663"/>
<stop offset="0.8322" stop-color="#42C27F"/>
<stop offset="1" stop-color="#64EAA8"/>
</linearGradient>
<linearGradient id="paint12_linear" x1="260.921" y1="55.1746" x2="265.393" y2="121.789" gradientUnits="userSpaceOnUse">
<stop offset="0.0128762" stop-color="#19743A"/>
<stop offset="0.2071" stop-color="#1B7C40"/>
<stop offset="0.5132" stop-color="#209352"/>
<stop offset="0.6044" stop-color="#229B58"/>
<stop offset="0.6875" stop-color="#2BA663"/>
<stop offset="0.8322" stop-color="#42C27F"/>
<stop offset="1" stop-color="#64EAA8"/>
</linearGradient>
</defs>
</svg>
