<svg width="112" height="58" viewBox="0 0 112 58" fill="none" xmlns="http://www.w3.org/2000/svg">
<path d="M51.1969 9.97383C49.232 9.97383 47.5945 8.34766 47.5945 6.39626C47.5945 4.44486 49.232 2.81869 51.1969 2.81869C53.1618 2.81869 54.7992 4.44486 54.7992 6.39626C54.7992 8.34766 53.1618 9.97383 51.1969 9.97383ZM65.6062 30.7888C65.0604 30.7888 64.6238 30.3551 64.6238 29.8131V0H58.5107V31.114C58.5107 33.6075 60.5848 35.6673 63.0955 35.6673H67.462V30.7888H65.6062ZM0 2.38505V10.0822H4.91228V7.91402H12.4444V31.0056H10.2612V35.7757H20.7407V30.8972H18.5575V7.80561H26.0897V9.97383H31.0019V2.38505H0ZM25.9805 13.443V30.7888H23.7973V35.6673H38.7524V30.7888H32.2027V18.3215H38.7524V13.443H25.9805ZM41.5906 13.443V18.3215H48.1404V30.7888H41.5906V35.6673H56.5458V30.7888H54.3626V13.443H41.5906ZM80.2339 30.7888C78.269 30.6804 74.0117 29.8131 74.0117 24.5009C74.0117 19.2972 78.4873 18.1047 80.2339 18.1047C81.9805 18.1047 82.4172 18.2131 83.1813 18.4299V22.4411H88.0936V14.9607C88.0936 14.9607 86.2378 14.2019 84.8187 13.8766C83.6179 13.6598 82.4172 13.3346 80.2339 13.3346C77.5049 13.3346 68.2261 14.3103 68.2261 24.7178C68.2261 35.1252 77.5049 35.7757 80.2339 35.7757H86.5653V30.8972H80.2339V30.7888ZM112 24.5009C112 25.2598 111.891 26.0187 111.782 26.7776H96.0624C96.3899 29.7047 100.211 30.7888 101.957 30.7888H108.616V35.6673H102.285C99.5555 35.6673 90.2768 35.0168 90.2768 24.6093C90.2768 15.3944 97.9181 13.3346 101.193 13.3346C104.904 13.2262 112 15.828 112 24.5009ZM106.324 22.3327V22.1159C106.324 19.8393 104.031 17.8879 101.193 17.8879C98.4639 17.8879 96.1715 19.8393 96.0624 22.1159V22.3327H106.324ZM13.7544 46.7252C13.4269 46.7252 13.3177 46.8336 13.2086 47.1589L10.152 57.4579C10.0429 57.6748 10.152 57.8916 10.4795 57.8916H11.7895C12.117 57.8916 12.2261 57.7832 12.2261 57.4579L12.7719 55.5065H15.8285L16.3743 57.4579C16.4834 57.6748 16.5926 57.8916 16.8109 57.8916H18.5575C18.885 57.8916 18.885 57.7832 18.885 57.4579L15.8285 47.1589C15.7193 46.8336 15.6101 46.7252 15.2827 46.7252H13.7544ZM15.501 53.6636H13.4269L13.9727 51.8206C14.191 51.0617 14.4094 49.6523 14.5185 48.785C14.6277 49.6523 14.7368 51.0617 14.9552 51.8206L15.501 53.6636ZM28.4912 54.314C28.4912 53.9888 28.3821 53.8804 28.1637 53.8804H26.7446C26.4172 53.8804 26.308 53.9888 26.308 54.314V54.9645C26.308 55.8318 25.7622 56.157 24.6706 56.157C23.5789 56.157 23.0331 55.7234 23.0331 54.9645V49.6523C23.0331 48.785 23.5789 48.4598 24.6706 48.4598C25.7622 48.4598 26.308 48.8935 26.308 49.6523V50.086C26.308 50.4112 26.4172 50.5196 26.7446 50.5196H28.1637C28.4912 50.5196 28.4912 50.4112 28.4912 50.086V49.3271C28.4912 47.9178 27.6179 46.6168 24.5614 46.6168C21.614 46.6168 20.6316 47.9178 20.6316 49.3271V55.2897C20.6316 56.6991 21.5049 58 24.5614 58C27.5088 58 28.4912 56.6991 28.4912 55.2897V54.314ZM33.8402 46.7252C33.5127 46.7252 33.4035 46.8336 33.2943 47.1589L30.2378 57.4579C30.1287 57.6748 30.2378 57.8916 30.5653 57.8916H31.8752C32.2027 57.8916 32.3119 57.7832 32.3119 57.4579L32.8577 55.5065H36.0234L36.5692 57.4579C36.6784 57.6748 36.7875 57.8916 37.0059 57.8916H38.5341C38.8616 57.8916 38.8616 57.7832 38.8616 57.4579L35.8051 47.1589C35.6959 46.8336 35.5867 46.7252 35.2593 46.7252H33.8402ZM35.4776 53.6636H33.4035L33.9493 51.8206C34.1676 51.0617 34.386 49.6523 34.4951 48.785C34.6043 49.6523 34.7135 51.0617 34.9318 51.8206L35.4776 53.6636ZM45.0838 57.8916C48.0312 57.8916 49.1228 56.5907 49.1228 55.1813V49.3271C49.1228 47.9178 48.0312 46.6168 45.0838 46.6168H41.4815C41.154 46.6168 41.0448 46.7252 41.0448 47.0505V57.4579C41.0448 57.7832 41.154 57.8916 41.3723 57.8916H45.0838ZM45.0838 48.5682C46.1754 48.5682 46.9396 49.0019 46.9396 49.7607V54.7477C46.9396 55.615 46.2846 55.9402 45.0838 55.9402H43.3372V48.4598H45.0838V48.5682ZM58.2924 57.8916C58.6199 57.8916 58.729 57.7832 58.729 57.4579V56.3738C58.729 56.0486 58.6199 55.9402 58.2924 55.9402H54.3626V52.9047H57.8558C58.1832 52.9047 58.2924 52.7963 58.2924 52.471V51.4953C58.2924 51.1701 58.1832 51.0617 57.8558 51.0617H54.3626V48.3514H58.1832C58.5107 48.3514 58.6199 48.243 58.6199 47.9178V46.8336C58.6199 46.5084 58.5107 46.4 58.1832 46.4H52.5068C52.1793 46.4 52.0702 46.5084 52.0702 46.8336V57.4579C52.0702 57.7832 52.1793 57.8916 52.5068 57.8916H58.2924ZM71.3918 47.1589C71.3918 46.8336 71.2827 46.7252 70.9552 46.7252H69.5361C69.3177 46.7252 69.2086 46.8336 69.2086 46.9421L66.807 52.6879C66.6979 53.0131 66.4795 53.4467 66.3704 53.772C66.2612 53.3383 66.0429 52.9047 65.9337 52.5794L63.423 46.8336C63.3138 46.7252 63.3138 46.6168 63.0955 46.6168H61.7856C61.4581 46.6168 61.3489 46.7252 61.3489 47.0505V57.4579C61.3489 57.7832 61.4581 57.8916 61.7856 57.8916H63.0955C63.423 57.8916 63.5322 57.7832 63.5322 57.4579V51.2785C63.6413 51.8206 63.8596 52.2542 63.8596 52.471L65.2788 55.7234C65.3879 55.9402 65.4971 56.157 65.8246 56.157H67.0253C67.2437 56.157 67.462 56.0486 67.5712 55.7234L68.8811 52.6879C68.9902 52.3626 69.2086 51.8206 69.3177 51.1701V57.4579C69.3177 57.7832 69.4269 57.8916 69.7544 57.8916H70.9552C71.2827 57.8916 71.3918 57.7832 71.3918 57.4579V47.1589ZM76.7407 47.1589C76.7407 46.8336 76.6316 46.7252 76.3041 46.7252H74.885C74.5575 46.7252 74.4483 46.8336 74.4483 47.1589V57.4579C74.4483 57.7832 74.5575 57.8916 74.885 57.8916H76.3041C76.6316 57.8916 76.7407 57.7832 76.7407 57.4579V47.1589ZM82.5263 46.7252C82.1988 46.7252 82.0897 46.8336 81.9805 47.1589L78.924 57.4579C78.8148 57.6748 78.924 57.8916 79.2515 57.8916H80.5614C80.8889 57.8916 80.998 57.7832 80.998 57.4579L81.5439 55.5065H84.6004L85.1462 57.4579C85.2554 57.6748 85.3645 57.8916 85.5828 57.8916H87.3294C87.6569 57.8916 87.6569 57.7832 87.6569 57.4579L84.6004 47.1589C84.4912 46.8336 84.3821 46.7252 84.0546 46.7252H82.5263ZM84.2729 53.6636H82.1988L82.7446 51.8206C82.963 51.0617 83.1813 49.6523 83.2905 48.785C83.3996 49.6523 83.5088 51.0617 83.7271 51.8206L84.2729 53.6636Z" fill="white"/>
</svg>
