<?xml version="1.0" encoding="utf-8"?>
<!-- Generator: Adobe Illustrator 24.0.2, SVG Export Plug-In . SVG Version: 6.00 Build 0)  -->
<svg version="1.1" id="Capa_1" xmlns="http://www.w3.org/2000/svg" xmlns:xlink="http://www.w3.org/1999/xlink" x="0px" y="0px"
	 viewBox="0 0 628.3 407.9" style="enable-background:new 0 0 628.3 407.9;" xml:space="preserve">
<style type="text/css">
	.st0{fill-rule:evenodd;clip-rule:evenodd;fill:#F49600;}
	.st1{fill:#FD8F01;}
	.st2{fill:#E3D5B2;}
	.st3{fill:#A59B84;}
	.st4{fill:#CECBC3;}
	.st5{fill:#C78C2A;}
	.st6{fill:#CD882A;}
	.st7{fill:#BDB294;}
	.st8{fill:#988F79;}
	.st9{fill:#FDB73B;}
	.st10{fill:#FDA607;}
	.st11{fill:#B5B54E;}
	.st12{fill:#85BFA6;}
	.st13{fill:#85A58D;}
	.st14{fill:#9BD4BB;}
	.st15{fill:#FD5971;}
	.st16{fill:#32594F;}
	.st17{fill:#433029;}
	.st18{fill:#8BA69F;}
	.st19{fill:#C5E4DF;}
	.st20{clip-path:url(#SVGID_2_);fill:#E3D5B2;}
	.st21{clip-path:url(#SVGID_2_);fill-rule:evenodd;clip-rule:evenodd;fill:#63D5C4;}
	.st22{clip-path:url(#SVGID_2_);fill-rule:evenodd;clip-rule:evenodd;fill:#A3D4D3;}
	.st23{clip-path:url(#SVGID_2_);fill-rule:evenodd;clip-rule:evenodd;fill:#FBBD8F;}
	.st24{clip-path:url(#SVGID_2_);fill:#241915;}
	.st25{clip-path:url(#SVGID_2_);fill-rule:evenodd;clip-rule:evenodd;fill:#3E3938;}
	.st26{clip-path:url(#SVGID_2_);fill-rule:evenodd;clip-rule:evenodd;fill:#241915;}
	.st27{clip-path:url(#SVGID_2_);fill-rule:evenodd;clip-rule:evenodd;fill:#1C2133;}
	.st28{clip-path:url(#SVGID_2_);fill-rule:evenodd;clip-rule:evenodd;fill:#492324;}
	.st29{clip-path:url(#SVGID_2_);fill-rule:evenodd;clip-rule:evenodd;fill:#441E20;}
	.st30{clip-path:url(#SVGID_2_);fill-rule:evenodd;clip-rule:evenodd;fill:#FDA87F;}
	.st31{clip-path:url(#SVGID_2_);fill-rule:evenodd;clip-rule:evenodd;fill:#EA805C;}
	.st32{clip-path:url(#SVGID_2_);fill-rule:evenodd;clip-rule:evenodd;fill:#82A89E;}
	.st33{clip-path:url(#SVGID_2_);fill-rule:evenodd;clip-rule:evenodd;fill:#8FB8AE;}
	.st34{clip-path:url(#SVGID_2_);fill-rule:evenodd;clip-rule:evenodd;fill:#FAFAFA;}
	.st35{clip-path:url(#SVGID_2_);fill-rule:evenodd;clip-rule:evenodd;fill:#088ECF;}
	.st36{clip-path:url(#SVGID_2_);fill-rule:evenodd;clip-rule:evenodd;fill:#006BAE;}
	.st37{clip-path:url(#SVGID_2_);fill-rule:evenodd;clip-rule:evenodd;fill:#FF4F00;}
	.st38{clip-path:url(#SVGID_2_);fill-rule:evenodd;clip-rule:evenodd;fill:#782C32;}
	.st39{clip-path:url(#SVGID_2_);fill-rule:evenodd;clip-rule:evenodd;fill:#DE5F50;}
	.st40{clip-path:url(#SVGID_2_);fill-rule:evenodd;clip-rule:evenodd;fill:#F3B484;}
	.st41{clip-path:url(#SVGID_2_);fill-rule:evenodd;clip-rule:evenodd;fill:#404040;}
	.st42{clip-path:url(#SVGID_2_);fill-rule:evenodd;clip-rule:evenodd;fill:#EC966C;}
	.st43{clip-path:url(#SVGID_2_);fill-rule:evenodd;clip-rule:evenodd;fill:#6AC0B9;}
	.st44{clip-path:url(#SVGID_2_);fill-rule:evenodd;clip-rule:evenodd;fill:#EEA372;}
	.st45{clip-path:url(#SVGID_2_);fill-rule:evenodd;clip-rule:evenodd;fill:#151826;}
	.st46{fill:#C5BBB5;}
	.st47{fill:#DDCEC4;}
	.st48{fill:#F8ECE1;}
	.st49{fill:#FD0037;}
	.st50{fill:#392A25;}
	.st51{fill:#905430;}
	.st52{fill:#FA5000;}
</style>
<g>
	<path class="st0" d="M144.3,333c-34.2,0-62.2-28-62.2-62.2s28-62.2,62.2-62.2c14.5,0,26.3-11.8,26.3-26.3
		c0-14.5-11.8-26.3-26.3-26.3h-3.1c-15.1,0-27.4-12.3-27.4-27.4c0-15.1,12.3-27.4,27.4-27.4h9.6c5.9,0,10.7-4.8,10.7-10.7
		c0-5.9-4.8-10.7-10.7-10.7h-7.1c-4,0-7.4-3.3-7.4-7.4c0-4,3.3-7.4,7.4-7.4h47.5c6.4,0,11.6-5.2,11.6-11.6c0-6.4-5.2-11.6-11.6-11.6
		H177c-4,0-7.4-3.3-7.4-7.4c0-4,3.3-7.4,7.4-7.4h202c5.3,0,9.6,4.3,9.6,9.6c0,5.3-4.3,9.6-9.6,9.6h-14.8c-8.3,0-15.1,6.8-15.1,15.1
		c0,8.3,6.8,15.1,15.1,15.1h62.4c5.3,0,9.6,4.3,9.6,9.6c0,5.3-4.3,9.6-9.6,9.6h-9.2c-7.6,0-13.9,6.3-13.9,13.9
		c0,7.6,6.3,13.9,13.9,13.9H430c19.6,0,35.7,16.1,35.7,35.7c0,19.6-16.1,35.7-35.7,35.7h-4.1c-18.9,0-34.3,15.5-34.3,34.3
		c0,18.9,15.5,34.3,34.3,34.3h8.9c19,0,34.6,15.6,34.6,34.6c0,19-15.6,34.6-34.6,34.6C336.2,333,242.9,333,144.3,333 M403.6,46.5
		c5.3,0,9.6-4.3,9.6-9.6c0-5.3-4.3-9.6-9.6-9.6c-5.3,0-9.6,4.3-9.6,9.6C394,42.2,398.3,46.5,403.6,46.5 M123.1,79.8
		c4.1,0,7.4-3.3,7.4-7.4c0-4.1-3.3-7.4-7.4-7.4c-4.1,0-7.4,3.3-7.4,7.4C115.8,76.5,119.1,79.8,123.1,79.8"/>
	<path class="st1" d="M570.2,266.8h-168l-12.1,11.6h180.1C577.3,271.6,570.2,266.8,570.2,266.8"/>
	<path class="st1" d="M570.2,345.6H388l2.1,11.6h180.1C577.3,350.5,570.2,345.6,570.2,345.6"/>
	<path class="st2" d="M401.1,278.4c-16.2,35.3,0,67.3,0,67.3h154.8c-10.5-36.2,0-67.3,0-67.3H401.1"/>
	<polyline class="st3" points="553.5,288.2 554.4,283.9 413.7,286.2 553.5,288.2 	"/>
	<path class="st3" d="M393.3,314.3l116.3-8.9l-115.7-2.7C393.1,306.4,393.3,314.3,393.3,314.3"/>
	<polyline class="st3" points="431.4,329.1 553,332.7 552.4,329.1 431.4,329.1 	"/>
	<path class="st4" d="M396.6,332.7c-0.2,0-0.4,0-0.6,0c1.2,4.2,2.8,8.5,5,12.9h0.1C400.7,344.9,398.5,340.1,396.6,332.7"/>
	<path class="st5" d="M401.1,278.4L401.1,278.4c-0.1,0-13.6,24.5-5.1,54.3c0.2,0,0.4,0,0.6,0c-1.3-5.1-2.4-11.4-2.6-18.5l-0.6,0
		c0,0-0.2-7.9,0.6-11.6l0.5,0C395.2,295.1,397.2,286.8,401.1,278.4"/>
	<polyline class="st6" points="428,278.4 401,278.4 401,278.4 401.1,278.4 401.1,278.4 428,278.4 428,278.4 	"/>
	<path class="st6" d="M401,345.6L401,345.6c-0.1,0-0.1,0.1,0,0.1h0.1C401.1,345.7,401.1,345.7,401,345.6"/>
	<path class="st7" d="M433.2,311.2l-39.3,3c0.2,7.1,1.3,13.4,2.6,18.5c1.9,7.4,4.1,12.1,4.5,12.9c0,0.1,0,0.1,0,0.1h81.1
		c0.1-0.1-17.7-4.1-33.1-16.1l-17.7-0.5h17.1C442.6,324.4,437.1,318.5,433.2,311.2 M428,278.4h-26.9l0,0c-3.9,8.4-5.9,16.7-6.7,24.3
		l35.5,0.8c-1.7-5.1-2.6-10.8-2.5-17.1l-13.7-0.2l13.7-0.2C427.4,283.5,427.6,281,428,278.4"/>
	<path class="st8" d="M427.4,286l-13.7,0.2l13.7,0.2C427.4,286.3,427.4,286.1,427.4,286"/>
	<path class="st8" d="M393.9,302.7c-0.8,3.7-0.6,11.6-0.6,11.6l0.6,0l39.3-3c-1.3-2.4-2.4-5-3.3-7.7l-35.5-0.8L393.9,302.7"/>
	<path class="st8" d="M448.5,329.1h-17.1l17.7,0.5C448.9,329.5,448.7,329.3,448.5,329.1"/>
	<path class="st9" d="M166.9,266.8c0,0-33,47.5,0,90.5h239.9c0,0-27.9-43.1,0-90.5H166.9z"/>
	<path class="st10" d="M212.3,266.8h-45.4c0,0-33.6,47,0,90.5h108.8C275.7,357.2,211,342.2,212.3,266.8z"/>
	<path class="st11" d="M330.3,280.8c-14,35.6,0,64.8,0,64.8h37.2c-16.9-28.7,0-64.8,0-64.8H330.3z"/>
	<path class="st12" d="M611.7,197.7H444.1l-12.1,8.9h179.8C618.9,201.4,611.7,197.7,611.7,197.7"/>
	<path class="st12" d="M611.8,257.9H433.5l2,8.9h176.3C618.8,261.6,611.8,257.9,611.8,257.9"/>
	<path class="st2" d="M440.8,206.6c-17,27,0,51.4,0,51.4h163c-11-27.7,0-51.4,0-51.4H440.8"/>
	<polyline class="st3" points="599.8,221 600.5,217 452.9,217 599.8,221 	"/>
	<polyline class="st3" points="432.9,237.5 582.3,235.6 432.6,232.2 432.9,237.5 	"/>
	<polygon class="st3" points="511.1,247.4 601.4,250.7 600.5,247.4 	"/>
	<path class="st4" d="M440.8,206.6L440.8,206.6c0,0-18.5,24.3-0.1,51.3h0c-0.7-1-5.8-9-7.2-20.4l-0.7,0l-0.3-5.3l0.6,0
		C433.2,224.5,435.1,215.7,440.8,206.6"/>
	<path class="st13" d="M440.7,257.9L440.7,257.9C440.7,257.9,440.8,257.9,440.7,257.9C440.8,257.9,440.7,257.9,440.7,257.9"/>
	<path class="st7" d="M479.3,236.9l-45.8,0.6c1.4,11.5,6.5,19.4,7.2,20.4c0,0,0,0,0,0.1c0,0,0,0,0,0h85.5
		C526.3,257.9,496.1,252.9,479.3,236.9 M469.2,206.6h-28.4l0,0c-5.7,9.1-7.6,17.9-7.6,25.6l42.6,1c-3.7-4.5-6.3-9.7-7.1-15.8
		l-15.9-0.4h15.8C468.3,213.8,468.5,210.3,469.2,206.6"/>
	<path class="st8" d="M468.7,217h-15.8l15.9,0.4C468.8,217.3,468.8,217.1,468.7,217"/>
	<path class="st8" d="M432.6,232.2l0.3,5.3l0.7,0l45.8-0.6c-1.2-1.2-2.4-2.4-3.5-3.7l-42.6-1L432.6,232.2"/>
	<path class="st14" d="M194.3,197.7c0,0-34.7,36.2,0,69.1h252.5c0,0-29.4-32.9,0-69.1H194.3z"/>
	<path class="st12" d="M242,197.7h-47.8c0,0-35.4,35.9,0,69.1h114.6C308.8,266.8,240.7,255.3,242,197.7z"/>
	<path class="st15" d="M394,197.7c-22,33.7,0,69.1,0,69.1h15.2c-30.5-32.7,0-69.1,0-69.1H394z"/>
	<path class="st15" d="M394,197.7l2.7,5.7l12.5-5.7C409.2,197.7,402.7,193.3,394,197.7z"/>
	<path class="st15" d="M394,266.8c0,0,9.3,2.9,15.2,0l-10.7-4.4L394,266.8z"/>
	<path class="st16" d="M251.9,20.2h156C285,58.2,261.6,153.7,257.1,186.5h-37.8l16.8-86.2L251.9,20.2z"/>
	<path class="st16" d="M538.7,20.2l-17.6,87.5l-15.9,78.8H257.1c4.4-32.8,27.8-128.2,150.7-166.3H538.7z"/>
	<path class="st1" d="M579.9,62.1L579.9,62.1c-0.3,2-20.4,128.5-9.5,135.6h-23.8l31.2-155.5L579.9,62.1z"/>
	<path class="st17" d="M548.2,111c0,0.7-0.1,1.5-0.2,2.2c-1,5-5.5,8.8-10.8,8.8c-6.1,0-11-4.9-11-11c0-0.8,0.1-1.5,0.2-2.2
		c1-5,5.5-8.8,10.8-8.8C543.2,100,548.2,104.9,548.2,111z"/>
	<path class="st17" d="M232.2,98.3c0,0.4,0,0.7-0.1,1.1c-0.5,2.5-2.7,4.3-5.3,4.3c-3,0-5.4-2.4-5.4-5.4c0-0.4,0-0.7,0.1-1.1
		c0.5-2.5,2.7-4.3,5.3-4.3C229.8,93,232.2,95.4,232.2,98.3z"/>
	<polygon class="st18" points="582.6,18.4 579.9,31.7 577.8,42.1 546.6,197.7 535.8,197.7 552,114 572.2,9.8 	"/>
	<path class="st19" d="M219.4,186.5h37.8c-0.9,7.1-1,11.2-1,11.2h-57L217,96.5l4.5,0.8c-0.1,0.3-0.1,0.7-0.1,1.1
		c0,3,2.4,5.4,5.4,5.4c2.6,0,4.8-1.8,5.3-4.3l4.1,0.8L219.4,186.5z"/>
	<path class="st19" d="M232.4,9.8h220.3c-16.3,2.6-31.2,6.2-44.8,10.4h-156l-15.6,80l-4.1-0.8c0.1-0.3,0.1-0.7,0.1-1.1
		c0-3-2.4-5.4-5.4-5.4c-2.6,0-4.8,1.8-5.3,4.3l-4.5-0.8L232.4,9.8z"/>
	<path class="st19" d="M572.2,9.8L552,114l-4.1-0.8c0.1-0.7,0.2-1.5,0.2-2.2c0-6.1-4.9-11-11-11c-5.3,0-9.8,3.8-10.8,8.8l-5.3-1.1
		l17.6-87.5H407.8c13.7-4.2,28.6-7.8,44.8-10.4H572.2z"/>
	<path class="st19" d="M552,114l-16.2,83.7H256.1c0,0,0.1-4.1,1-11.2h248.1l15.9-78.8l5.3,1.1c-0.1,0.7-0.2,1.5-0.2,2.2
		c0,6.1,4.9,11,11,11c5.3,0,9.8-3.8,10.8-8.8L552,114z"/>
	<g>
		<defs>
			<polyline id="SVGID_1_" points="219.4,186.5 251.9,20.2 538.7,20.2 505.2,186.5 219.4,186.5 			"/>
		</defs>
		<clipPath id="SVGID_2_">
			<use xlink:href="#SVGID_1_"  style="overflow:visible;"/>
		</clipPath>
		<path class="st20" d="M396.5,39.1c0.3,6.9,0.4,13.7,0.6,20.6l0.2,10.3l0.2,10.3l0.3,20.6l0.1,20.6l-1.2-1.2l22.5,0.3l22.5,0.5
			c7.5,0.2,15,0.4,22.5,0.7c7.5,0.3,15,0.5,22.5,0.9c-7.5,0.2-15,0.2-22.5,0.3c-7.5,0-15,0.1-22.5,0.1l-22.5-0.1l-22.5-0.3h-1.2
			v-1.2v-20.6l0.2-20.6l0.1-10.3l0.2-10.3C396.2,52.9,396.3,46,396.5,39.1z"/>
		<path class="st20" d="M411.4,116.9c0,0,0.4,0.6,0.6,1.4c0.3,0.8,0.4,2,0.4,3.1c-0.1,1.1-0.3,2.2-0.7,3c-0.3,0.8-0.8,1.3-0.8,1.3
			s-0.4-0.6-0.6-1.4c-0.3-0.8-0.4-2-0.3-3.1c0.1-1.1,0.3-2.2,0.7-3C410.9,117.4,411.4,116.9,411.4,116.9z"/>
		<path class="st20" d="M453.7,118.4c0,0,0.4,0.6,0.6,1.4c0.3,0.8,0.4,2,0.4,3.1c-0.1,1.1-0.3,2.2-0.7,3c-0.3,0.8-0.8,1.3-0.8,1.3
			s-0.4-0.6-0.6-1.4c-0.3-0.8-0.4-2-0.3-3.1c0.1-1.1,0.3-2.2,0.7-3C453.2,118.9,453.7,118.4,453.7,118.4z"/>
		<path class="st20" d="M435.6,118.2c0,0,0.4,0.6,0.6,1.4c0.3,0.8,0.4,2,0.4,3.1c-0.1,1.1-0.3,2.2-0.7,3c-0.3,0.8-0.8,1.3-0.8,1.3
			s-0.4-0.6-0.6-1.4c-0.3-0.8-0.4-2-0.3-3.1c0.1-1.1,0.3-2.2,0.7-3C435.1,118.8,435.6,118.2,435.6,118.2z"/>
		<path class="st20" d="M474.2,118.6c0,0,0.4,0.6,0.6,1.4c0.3,0.8,0.4,2,0.4,3.1c-0.1,1.1-0.3,2.2-0.7,3c-0.3,0.8-0.8,1.3-0.8,1.3
			s-0.4-0.6-0.6-1.4c-0.3-0.8-0.4-2-0.3-3.1c0.1-1.1,0.3-2.2,0.7-3C473.8,119.2,474.2,118.6,474.2,118.6z"/>
		<path class="st20" d="M401,94.6c0,0,1.4,0.2,3.9,0.2c2.5,0.1,6.1,0,10.4-0.4c2.1-0.2,4.4-0.5,6.8-1c2.4-0.4,4.9-1.1,7.5-1.8
			c2.6-0.7,5.1-1.7,7.7-2.7c1.3-0.5,2.6-1.1,3.8-1.7c1.2-0.7,2.5-1.3,3.7-2c1.2-0.7,2.4-1.4,3.6-2.2c1.2-0.7,2.3-1.6,3.4-2.4
			c2.2-1.7,4.3-3.4,6.2-5.3c1.9-1.8,3.7-3.7,5.3-5.6c0.4-0.5,0.8-0.9,1.2-1.4s0.7-0.9,1.1-1.4c0.7-0.9,1.4-1.8,2-2.6
			c1.2-1.8,2.4-3.3,3.3-4.8c0.9-1.5,1.8-2.8,2.3-3.9c1.2-2.2,1.9-3.4,1.9-3.4s-0.5,1.3-1.5,3.7c-0.5,1.2-1.2,2.5-2,4.1
			c-0.7,1.6-1.8,3.3-2.9,5.2c-0.6,0.9-1.2,1.9-1.9,2.8c-0.3,0.5-0.7,1-1,1.5c-0.4,0.5-0.8,1-1.1,1.5c-1.5,2-3.3,4-5.2,5.9
			s-4,3.9-6.3,5.6c-1.1,0.9-2.3,1.8-3.5,2.5c-1.2,0.8-2.5,1.6-3.7,2.3c-1.3,0.8-2.6,1.4-3.9,2c-1.3,0.6-2.6,1.2-4,1.7
			c-2.7,1.1-5.4,1.9-8,2.6c-2.7,0.7-5.3,1.2-7.7,1.5c-2.5,0.4-4.8,0.5-7,0.6c-4.4,0.1-8-0.2-10.5-0.5c-1.3-0.1-2.2-0.3-2.9-0.5
			C401.3,94.7,401,94.6,401,94.6z"/>
		<path class="st21" d="M346.1,119.5c2.5-0.2,5.6-6.5,14.8,13.6c9.2,20.1,11.7,29.2,11.7,29.2c-5.2-3.1-11.6,11.8-11.4,15.4
			c0,0-20.2-39.9-19-45C344.1,124.7,343.6,119.7,346.1,119.5z"/>
		<path class="st22" d="M379.6,168.2c1.1-2.3-8-11.1-8-11.1c-5.9,2.7-12.2,8.8-12.7,14.7c-0.8,9.2,6.8,14.3,14.6,10.1
			C378.3,179.4,379.8,171.9,379.6,168.2z"/>
		<path class="st23" d="M372.5,181c-2.4,2.2-12.8-4.4-9.5-11.7c3.3-7.3,38.7-22.6,38.7-22.6l3.2,5.1L372.5,181z"/>
		<path class="st24" d="M329.8,68.8c0.4-0.3,8.2-2.7,8.3-2.7l0.6,2.6l-7.8,1.2L329.8,68.8z"/>
		<path class="st25" d="M329.6,54.3c0,0,2.7,1.8,4.3,7.3c1.6,5.5-0.6,12.3-0.6,12.3l-7-17.8L329.6,54.3z"/>
		<path class="st26" d="M325.5,393.6c0.8,2.6,1.7,5.5,5,7.7s20.3,9.3,19.9,10.2c-0.3,0.9-1.1,1.5-7.8,1.7
			c-6.6,0.2-11.5-1.7-13.1-1.9s-8,0.3-10-0.2c-2-0.6-0.2-11.5-0.2-11.5L325.5,393.6z"/>
		<path class="st24" d="M325.5,393.6l-0.3,0.1c0.8,2.6,1.7,5.6,5.1,7.9c0.8,0.6,2.5,1.4,4.5,2.4c3,1.5,6.9,3.2,10,4.7
			c1.5,0.7,2.9,1.4,3.9,2c0.5,0.3,0.9,0.5,1.1,0.7c0.1,0.1,0.2,0.2,0.3,0.2l0,0l0.1-0.1h-0.2l0,0.1l0.1-0.1h-0.2h0.2l-0.2-0.1l0,0.1
			h0.2l-0.2-0.1l0,0l0,0c-0.1,0.2-0.1,0.3-0.3,0.5c-0.3,0.2-0.8,0.4-1.9,0.6c-1.1,0.2-2.8,0.3-5.3,0.4c-0.3,0-0.6,0-1,0
			c-3,0-5.6-0.4-7.7-0.9c-2.1-0.5-3.5-0.9-4.4-1c-0.3,0-0.8-0.1-1.4-0.1c-1.4,0-3.4,0.1-5.2,0.1c-1.4,0-2.7-0.1-3.4-0.2l-0.1,0.3
			l0.1-0.3c-0.1,0-0.2-0.1-0.3-0.2c-0.1-0.2-0.3-0.7-0.3-1.2c-0.1-0.5-0.1-1.2-0.1-1.9c0-1.7,0.2-3.6,0.4-5.2
			c0.1-0.8,0.2-1.4,0.3-1.9c0.1-0.5,0.1-0.8,0.1-0.8l-0.3-0.1l0.2,0.2l6.2-6L325.5,393.6l-0.3,0.1L325.5,393.6l-0.2-0.2l-6.3,6.1
			l0,0.1c0,0-0.7,4.5-0.7,7.9c0,1,0.1,1.8,0.2,2.5c0.1,0.3,0.2,0.6,0.3,0.9c0.1,0.2,0.4,0.5,0.6,0.5l0,0l0,0
			c0.8,0.2,2.1,0.2,3.5,0.2c1.8,0,3.9-0.1,5.2-0.1c0.6,0,1,0,1.3,0c0.7,0.1,2.2,0.6,4.3,1c2.1,0.5,4.8,0.9,7.9,0.9c0.3,0,0.7,0,1,0
			c3.4-0.1,5.2-0.3,6.4-0.6c0.6-0.2,0.9-0.3,1.2-0.6c0.3-0.2,0.4-0.5,0.5-0.8l-0.3-0.1l0.3,0.1l0-0.2c0-0.1-0.1-0.2-0.1-0.3
			c-0.1-0.1-0.2-0.2-0.4-0.4c-0.7-0.5-2-1.2-3.8-2c-2.6-1.3-6-2.8-9-4.3c-3-1.4-5.7-2.7-6.8-3.4c-3.2-2.1-4.1-4.9-4.9-7.5l-0.2-0.5
			l-0.4,0.4L325.5,393.6z"/>
		<path class="st26" d="M310.7,395.4c1.7,5.3,3.5,12.8,4.2,14.8c0.7,2,3.2,5.5-0.1,6.9c-3.4,1.4-17.3,2.5-16.6-1.6
			c0.7-4,4.6-17.4,4.6-17.4L310.7,395.4z"/>
		<path class="st24" d="M310.7,395.4l-0.3,0.1c0.8,2.6,1.7,5.8,2.5,8.6c0.8,2.8,1.4,5.2,1.7,6.2l0,0c0.2,0.7,0.6,1.4,1,2.2
			c0.3,0.8,0.6,1.6,0.6,2.3c0,0.4-0.1,0.8-0.3,1.1c-0.2,0.3-0.6,0.6-1.2,0.9l0.1,0.3l-0.1-0.3c-0.8,0.3-2.2,0.6-3.8,0.9
			c-1.6,0.2-3.6,0.4-5.4,0.4c-1.9,0-3.7-0.2-5-0.6c-0.6-0.2-1.2-0.4-1.5-0.7c-0.3-0.3-0.5-0.6-0.5-1l0-0.2l0,0
			c0.3-2,1.5-6.3,2.6-10.2c0.5-1.9,1-3.7,1.4-5c0.4-1.3,0.6-2.2,0.6-2.2l-0.3-0.1l0.1,0.3l7.9-2.7L310.7,395.4l-0.3,0.1L310.7,395.4
			l-0.1-0.3l-8.1,2.8l0,0.2c0,0-1,3.4-2,7.2c-1.1,3.9-2.2,8.2-2.6,10.2l0,0c0,0.1,0,0.2,0,0.3c0,0.6,0.3,1.1,0.7,1.5
			c0.7,0.6,1.7,0.9,2.9,1.1c1.2,0.2,2.6,0.3,4.1,0.3c1.9,0,3.8-0.2,5.5-0.4c1.7-0.2,3.1-0.6,4-0.9l0,0l0,0c0.7-0.3,1.1-0.7,1.4-1.1
			c0.3-0.5,0.4-1,0.4-1.5c0-0.8-0.3-1.7-0.6-2.5c-0.3-0.8-0.7-1.6-0.9-2.2l0,0c-0.3-1-1-3.4-1.7-6.1c-0.8-2.8-1.6-6-2.5-8.7
			l-0.1-0.3l-0.3,0.1L310.7,395.4z"/>
		<path class="st27" d="M298.2,225.8c0.1,0.3-0.7,48-0.7,48l3.2,126.5l11.9-0.1c0,0,12.2-162.3,12.7-154.9
			c0.6,7.3-7.2,155.3-7.2,155.3l12.3,0.8c0,0,25.8-175,25.1-178.5s-3.9-11.2-3.9-11.2c-27.9-17.2-41.9-4.6-48.3,4.1
			C301,219,298,225.6,298.2,225.8z"/>
		<path class="st28" d="M323.2,112.6c10-0.2,26,4.8,26.7,6.2c6.7,13.2,9.1,45.8,3.9,98.4l-53.4,3.4c1.2-50.2,0.1-58.1-10-103.2
			C302.6,114.1,310.1,112.9,323.2,112.6z"/>
		<path class="st29" d="M355.6,143.4L355.6,143.4l-7.9,37.3l-8.9,2c0,0-5.6,4.1-17.1,7.7c-5.7,1.7-13.9,2.5-20.9,2.8
			c0-9-0.3-16.3-0.9-23.4c3,0.5,7.7,1.3,8.3,1.5c0.8,0.3,12.4-24.1,12.4-24.1L355.6,143.4z"/>
		<path class="st21" d="M323.2,112.6c4.5-0.1,10.2,0.9,15.2,2.1c2.2,3.4,4.7,8.5,3.4,12.7c-2.1,6.7-18.2,6.9-28.8-0.4
			c-6.6-4.5-10-9.2-11.7-12.2C308.1,113.4,314.4,112.8,323.2,112.6z"/>
		<path class="st30" d="M306.1,91.4c1.8,4.7,2.8,12.1,2,23c-0.9,11.9,14.4,9.8,23.6,14.9c1.6-4,2.3-5,1.3-9.9c-9.8-16.4-7.9-24-8-24
			L306.1,91.4z"/>
		<path class="st21" d="M301.2,143.9c4.7-16.8-5.3-27.9-10.8-26.4c-5.5,1.4-21.5,54.6-16.7,63.4c4.7,8.8,13,10,16.8,3.8
			C294.2,178.5,301.2,143.9,301.2,143.9z"/>
		<path class="st22" d="M295,180.4c1.1-2.3,1.6-8,1.6-8c-3-0.4-7.2-4.3-11.4-4.3c-8.5-0.1-17.4,4.3-17.8,7.1
			c-0.5,4.3,8.1,18.7,11.9,16L295,180.4z"/>
		<path class="st23" d="M334.3,72.6c1.1,9.8,9.5,18.4,6.7,24c-2.8,5.6-24.6,15.2-35-0.4c-10.3-15.6-17.2-34.5-9.2-41
			c8-6.6,22.8-6.4,29.4-1.4C332.8,58.6,334.3,72.6,334.3,72.6z"/>
		<path class="st24" d="M323.5,66.9c0,0,0.1,0,0.1-0.1c0.8-0.5,4.1-1.1,7.4-1.4c3.4-0.3,6.7-0.2,7.5,0.8c0,0,0,0,0.1,0.1
			c0,0.1,0.1,0.2,0.2,0.3c0.5,1.1,0.6,3.1,0.2,5.1s-1.3,4-2.7,4.9c-0.1,0.1-0.2,0.2-0.4,0.2c-1.6,0.8-3.6,1.1-5.5,1.1
			c-1.9,0-3.7-0.4-4.5-1.2c-0.7-0.7-1.4-2.3-1.8-4c-0.7-2.4-1-5-0.8-5.5L323.5,66.9z M331.1,66.6c-3,0.2-5.9,0.8-6.7,1.2
			c-0.1,0.6,0.3,2.7,0.8,4.6c0.4,1.6,1,3,1.5,3.5c0.6,0.6,2.1,0.9,3.7,0.9c1.7,0,3.6-0.3,5-1c0.1,0,0.2-0.1,0.2-0.2
			c1.2-0.7,1.9-2.4,2.2-4.2s0.3-3.5-0.1-4.4c0,0,0-0.1-0.1-0.2C337.1,66.3,334.1,66.3,331.1,66.6z"/>
		<path class="st31" d="M320.7,70.2c3.3,6.7,10.9,6.5,14.2,7.6c3.2,1.1-5.2,9.1-9.1,6.2C321.9,81,320.7,70.2,320.7,70.2z"/>
		<path class="st25" d="M300.8,79.4l3.3-0.4c0,0-7-14.5-5.3-16.7c1.7-2.2,19.7,0.3,29.3-3.4c9.7-3.6,11.5-10.5,7.1-15.3
			c-10-11.1-40.9-0.1-42.9,11.9c-0.5,0-2.7,2-5.3,4s1.3,12.6,4.2,18.5c3,6,8.8,10,9.3,9.8C301,87.7,300.8,79.4,300.8,79.4z"/>
		<path class="st28" d="M315.6,70.4c1,0,1.9,1,1.9,2.1s-0.8,2-1.9,1.9c-1-0.1-1.8-1-1.8-2.1S314.6,70.3,315.6,70.4z"/>
		<path class="st28" d="M328.8,69c0.9,0,1.6,0.9,1.6,1.9s-0.7,1.7-1.6,1.7c-0.9,0-1.6-0.9-1.6-1.9S327.9,68.9,328.8,69z"/>
		<path class="st25" d="M299.7,72.6l0.9-1.6c0,0,10.2,16.5,10.5,15.9c0.3-0.6,2.3-2.8,5.9-3c3.6-0.2,5.4,1.8,11.2,1.3
			s8.9-3.6,8.9-3.6c14.1,5.8,3.3,22.7,3.6,22.3c0.3-0.5,0.2-2.4,0.2-2.4s-2.2,3-3,4.8c-0.8,1.9-0.9,2.6-1,1.8
			c-0.1-0.8-1.1-2.5-1.1-2.5s-2.8,6.2-2.8,5.5c0-0.7-1.6-3-1.6-3l-0.5,2.3l-5.7-2.9l0.1,2.7c0,0-3.7-1.9-9.4-4.5
			c-5.7-2.5-7.7-5.2-7.7-5.2l0.4,1.8c0,0-2.2-1.2-4.5-6.3C301.8,90.9,299.7,72.6,299.7,72.6z"/>
		<path class="st32" d="M323.1,121.1c0.6-0.2,3.1,0.8,3.1,0.8l5.4,7.4l-12.4-4.4L323.1,121.1z"/>
		<polygon class="st33" points="336.4,122.7 331.7,129.3 328.3,110.3 		"/>
		<path class="st32" d="M341.2,126.8c-0.4-0.4-4.8-4.1-4.8-4.1l-8.1-12.3l4.5,3.2L341.2,126.8z"/>
		<path class="st23" d="M279.3,191.2c-1.9-0.6-4.3-7.8-1.6-15c2.7-7.2,43.7,2.6,43.7,2.6l1.3,7.1L279.3,191.2z"/>
		<path class="st34" d="M322.4,132.5c0.2-0.7-0.2-5.8-0.2-5.8l4.4-2.2l22.1,11.5l10.3-6.7l2.7,2l-20.8,41l-14.5,1.7l-14.2-9.1
			L322.4,132.5z"/>
		<polygon class="st35" points="322.2,126.7 349,139 332.1,179.7 305.3,167.4 		"/>
		<path class="st36" d="M349,139c0,0,13.3-8.5,12.8-7.7c-0.6,0.8-16.9,44.3-16.9,44.3l-12.7,4.1L349,139z"/>
		<path class="st23" d="M323.6,186c-0.6-0.2-3.8-0.1-3.5-3.1c0.3-2.9,3.1-7.4,3.1-7.4l4.4,2c0,0,5.4-5.9,6.9-6.2
			c1.4-0.4,1,1.9,1,1.9s2.4-1.6,2.7-0.5c0.3,1.1-0.3,2.9-0.3,2.9s0.8-0.6,0.7,0.7c-0.1,1.3-3.6,5.5-5.3,7.1
			C331.5,184.9,323.6,186,323.6,186z"/>
		<path class="st33" d="M326.6,121.8c-0.5,0.5-8.6,8-8.6,8l-15.5-15.6l4.4-6L326.6,121.8z"/>
		<path class="st26" d="M317.4,66.7c-2.6,0.2-7.2,0.9-9.5,2.2c0-0.7-0.1-1.1,0.5-1.5c1.8-1.4,8.3-2.5,8.9-2.6
			C317.9,64.8,317.9,66.4,317.4,66.7z"/>
		<path class="st26" d="M323.2,65.6c2.4-0.8,6.7-1.7,8.8-1.1c0-0.7,0.1-1.1-0.4-1.4c-1.6-0.7-7.7,0.4-8.3,0.6
			C322.7,63.8,322.8,65.4,323.2,65.6z"/>
		<path class="st23" d="M403.9,139.5c0.6-0.2,1.7-1.7,5.5-1.4c3.8,0.2,8.2,3.1,8.5,3.7c0.3,0.6-2.2,6.7-3.4,7.8
			c-1.2,1.1-9.7,2.4-9.7,2.4l-4.6-4.6L403.9,139.5z"/>
		<path class="st23" d="M400.1,147.4c0.5-1.3,2.8-10.3,3.4-10.8c0.6-0.4,5.5-1.6,7.7-2.2s2.2-0.6,2.2-0.6s0.3,0.7-0.9,2.3
			c-1.2,1.6-6.6,3.3-6.6,3.3c0.4,2.1,1.2,3.4,0.1,6.3c-0.8,2-2.7,3.1-4.1,2.4C400.4,147.3,400.1,147.4,400.1,147.4z"/>
		<path class="st30" d="M412.2,134.1c1.3-0.3,1.3-0.3,1.3-0.3s0.3,0.7-0.9,2.3c-1.2,1.6-6.6,3.3-6.6,3.3c0.4,2.1,1.2,3.4,0.1,6.3
			c-0.2,0.5-0.5,1-0.8,1.4c-0.3,0.3-0.5,0.5-0.5,0.5s1-2.9,0.9-4.2c0-1.3-0.7-4.9-0.7-4.9s4.4-1.1,5.5-2.2
			C411.1,135.5,411.8,134.7,412.2,134.1z"/>
		<path class="st23" d="M419.1,141.8c-0.4-0.8-3.5-6.6-3.8-7.6s-0.2-1.3-0.5-1.2s-1.1,0.9-1.2,2.9c-0.1,2,1.5,5.5,2.5,7
			c1,1.4,2,2.1,2.8,1.4C419.8,143.7,419.1,141.8,419.1,141.8z"/>
		<path class="st30" d="M415.2,134c-0.2-0.8-0.2-1.1-0.5-1s-1.1,0.9-1.2,2.9s1.5,5.5,2.5,7c1,1.4,2,2.1,2.8,1.4
			c0.4-1.1-0.4-1.9-0.7-2.5c-0.2-0.6-1.3-1.4-2.1-2c-0.8-0.7-1.7-3.4-1.6-4.3C414.6,135.2,414.9,134.6,415.2,134z"/>
		<path class="st37" d="M405.8,144.9c0,0,1.4,1.1,1.4,0.8c0-0.3,36.5-57.2,36.5-57.2l-0.6-0.4C430.5,106.9,418.3,126,405.8,144.9z"
			/>
		<path class="st23" d="M418.4,142.5c1,0.9,0.6,2.7-1.1,2.8c-1.6,0.1-5.3-3.8-6.7-5.1c-1.3-1.2,0.3-2.8,1.3-2.4
			C414.2,138.8,417.4,141.6,418.4,142.5z"/>
		<path class="st30" d="M418.7,144.5c-0.3,0.4-0.7,0.7-1.4,0.8c-1.6,0.1-5.3-3.8-6.7-5.1c-1.3-1.2,0.3-2.8,1.3-2.4
			c-0.6,0.2-1.1,0.4-1,0.9c0.1,0.9,4,4.7,4.8,5.2C416.4,144.2,417.9,144.4,418.7,144.5z"/>
		<path class="st23" d="M416.8,144.7c1.2,0.7,1.1,2.5-0.4,3s-5.9-2.6-7.5-3.6c-1.6-0.9-0.3-2.9,0.8-2.6
			C412,141.9,415.6,144,416.8,144.7z"/>
		<path class="st30" d="M409.7,143.6c1.2,0.8,4.3,2.9,6.3,3.4c0.5,0.2,0.9,0.2,1.2,0.1c-0.2,0.2-0.5,0.4-0.8,0.5
			c-0.2,0.1-0.4,0.1-0.7,0c-0.3,0-0.6-0.1-0.9-0.2s-0.6-0.2-0.9-0.4c-1.9-0.8-4-2.3-5-3c-0.2-0.1-0.4-0.3-0.5-0.4
			c-0.7-0.9,0.1-2.2,1-2.2c-0.3,0.3-0.4,0.8-0.3,1.2C409.1,143,409.3,143.3,409.7,143.6z"/>
		<path class="st23" d="M415.2,147c1.1,0.5,1.2,2-0.1,2.5c-1.2,0.5-5.2-1.6-6.6-2.2s-0.5-2.4,0.4-2.3
			C410.9,145.2,414.1,146.5,415.2,147z"/>
		<path class="st30" d="M408.5,146.2c0.4,0.7,5,2.9,6.2,2.9c0,0,0.1,0,0.2,0c0.4,0,0.7-0.1,0.9-0.1c-0.1,0.2-0.4,0.4-0.7,0.6
			c-0.2,0.1-0.4,0.1-0.7,0.1c-1.6-0.2-4.7-1.8-5.8-2.3c-1.2-0.6-0.7-2,0.1-2.3C408.5,145.4,408.3,145.8,408.5,146.2z"/>
		<path class="st38" d="M333.6,85.7c0,0-2,0.8-8.1,1.5c-6.1,0.7-8.3,0.2-8.3,0.2c-1.6,6,12.7,11.2,15.5,4.5
			C333.4,89.9,333.6,85.7,333.6,85.7z"/>
		<path class="st39" d="M318.2,91.3c2.4,2.8,7.8,4.6,11.4,3.4C328.6,91.6,324.2,89.4,318.2,91.3z"/>
		<path class="st34" d="M332.3,89c0.3-0.3,0.2-2,0.1-3c-1.2,0.3-3.4,0.8-6.9,1.2c-4.2,0.5-6.6,0.4-7.6,0.3c0,0.4-0.1,0.9,0,1.4
			c0,1,0.8,1,2,1.2C321.1,90.3,331.8,89.5,332.3,89z"/>
		<path class="st40" d="M311.7,84.9c-7.6-11.7-9-14.1-11-22.5c4.7,0.9,24.1-0.6,27.1-2.4c1.3-0.8,1.9-1.4,2-1.7
			c-0.6,0.3-1.1,0.5-1.7,0.7c-0.2,0.1-0.4,0.1-0.6,0.2c-9.8,3.3-27.1,1.1-28.7,3.2c-0.8,1,0.4,4.9,1.8,8.6c0,0,10.2,16.5,10.5,15.9
			c0.2-0.5,1.7-2.2,4.4-2.8L311.7,84.9z"/>
		<path class="st41" d="M308.4,56.3c9.5-1.8,8-0.6,14.7-2.4c6.8-1.7,6.8-5,6.8-5s-1.3,1.1-5.5,2.1c-4.2,1-7.9,1.3-6.7,1.2
			c1.2-0.1,10.5-5.1,9.8-4.9c-0.7,0.3,0.4-0.4-6,0.5c-6.4,0.8-12.8,3.5-12.5,3.2c0.3-0.3,1.1-3.8,9-6.4c7.8-2.7,14.1-2.2,16.5,0.7
			c2.3,2.9,1.1,6.7-0.7,8.9c-1.8,2.2-9.4,4.2-17.2,5.1c-7.8,0.9-13.2,0.8-16.2,1.6c-3,0.7-8.3,7.2-7.8,6.2
			C296.1,59.8,298.8,58,308.4,56.3z"/>
		<path class="st24" d="M320.6,67.7h0.1h0.1l0.1,0.1c0.4,0.4,0.9,3.2,0.9,5.8c0.1,1.9-0.1,3.7-0.6,4.5c-0.6,1.1-2.2,2-4.2,2.6
			c-1.8,0.6-4,0.8-5.8,0.5c-0.2,0-0.3,0-0.4-0.1c-1.7-0.5-3.2-2.2-4.2-4.1s-1.5-3.9-1.3-5.1c0-0.1,0-0.2,0.1-0.3v-0.1
			c0.5-1.2,3.8-2.4,7.3-3.1C316.2,67.8,319.7,67.4,320.6,67.7z M320.2,68.8c-1-0.2-4.1,0.2-7.2,0.9c-3.1,0.7-6.2,1.6-6.5,2.4
			c0,0.1,0,0.1,0,0.2c-0.2,1,0.3,2.8,1.2,4.4c0.9,1.6,2.1,3.1,3.5,3.5c0.1,0,0.2,0,0.3,0.1c1.6,0.3,3.6,0,5.3-0.5s3-1.3,3.5-2.1
			c0.4-0.7,0.5-2.3,0.4-4C320.7,71.5,320.4,69.3,320.2,68.8z"/>
		<path class="st24" d="M323.4,69.4c0-0.1,0-0.2-0.2-0.3c-0.2-0.1-0.3-0.1-0.6-0.1c-0.2,0-0.5,0.1-0.7,0.2c-0.3,0.1-0.6,0.3-0.6,0.6
			l-0.9,0.1c-0.1-0.9,0.3-1.5,1-1.8c0.3-0.2,0.7-0.2,1.1-0.2s0.8,0.1,1.1,0.2c0.5,0.3,0.9,0.8,0.8,1.5L323.4,69.4z"/>
		<path class="st24" d="M296.9,73.5c0.4-0.3,9.5-2.9,9.5-2.9l-0.7,2.8l-7.8,1.2L296.9,73.5z"/>
		<path class="st30" d="M296.5,73.5c3,0.2,6.1,3.9,7,8.3s0.8,6.9-2.1,6.7c-3-0.2-8.9-4.8-9.8-9.2C290.6,74.9,293.5,73.4,296.5,73.5z
			"/>
		<path class="st42" d="M298.3,75.9c-3.7-1.9-6.5,1.4-4,5.6c1.4,2.4,5.2,6.1,6.9,5.1c1.6-0.9,1.2-4,0.6-4.7
			c-0.6-0.6-1.5,0.1-2.1-1.4c-0.6-1.5,0.8-1.7,0.3-2.8C299.5,76.5,298.3,75.9,298.3,75.9z"/>
		<path class="st43" d="M291.2,159.6c-1.9,3.6-3.9,6.3-6.1,8.4c3.5,0,6.9,2.6,9.7,3.8c1.2-4.8,2.5-10.1,3.6-14.8
			c1.6-7.3,2.8-13.1,2.8-13.1c3.3-11.8-0.6-20.8-5.2-24.6c0.6,2.1,1.5,5.3,2.2,9.7c0.9,5.5,0.7,11.2-1.5,18.2
			C295.5,150.9,293.7,155,291.2,159.6z"/>
		<path class="st44" d="M336.1,180.4c-2.7,0.9-6.8,2-10.6,2.1c-0.7,0-1.9,0.1-3.3,0.2c-0.6,0-1.3,0.1-2.1,0.1
			c-5.1,0.3-12.5,0.7-19.5,0.9c-3.5,0.1-6.8,0.1-9.7,0.1c-0.3,0-0.5,0-0.8,0c-3.6-0.1-6.4-0.5-7.4-1.1c-4.1-2.6-5.1-6.5-5.1-6.5
			c-1.2,3.1-1.4,6.2-1.1,8.8c0.4,3.4,1.6,5.9,2.7,6.2l21.4-2.6l22-2.7c0.4,0.1,0.6,0.1,0.8,0.1c0,0,7.9-1.1,9.7-2.6
			C334,182.7,335.1,181.6,336.1,180.4z"/>
		<path class="st44" d="M402.2,151.1c-1.9,0.2-13.7,10.5-22.5,17c-3.7,2.8-6.9,4.8-8.6,5.1c-2.7,0.5-5.8-0.5-8.2-1.7
			c-0.2-0.1-0.3-0.2-0.5-0.2c-0.1,0.5-0.1,1.1,0,1.6c0.5,5.7,8.1,10,10.2,8.2l5.9-5.3l26.3-23.8c0,0,8.2-1.3,9.7-2.3
			c-0.2,0-0.3,0-0.5-0.1c-2.3,0.3-6.8,1-9.7,1.4c-0.2,0-0.4,0-0.6,0.1C403.1,151,402.6,151,402.2,151.1z"/>
		<path class="st45" d="M300,374.5l0.6,25.7h1.4l10-0.1h0.5c0,0,9-119.8,11.9-148.9c-2.6,17.8-10.3,70.4-16.1,98.1
			C305.9,360.5,303,368.6,300,374.5z"/>
		<path class="st45" d="M324.8,262.8c-1.6,40.9-6.7,137.7-6.7,137.7l1,0.1l6.9,0.5c-1.8-29.8,9.3-157.3,5.6-165.7
			c0,0-6.3,9.2-6.5,9.7C324,248.9,324.9,257,324.8,262.8z"/>
	</g>
	<path class="st46" d="M171.6,277.4c0-10-4.7-12.2-4.7-12.2c3.2,1.7,6.2,4.8,6.8,10.7c1.2,12.9,0.4,42.3-17,43.5l0.3-6.8
		C173.4,312.2,171.6,287.3,171.6,277.4z"/>
	<path class="st47" d="M156.2,327.9l-0.5,11.2l-0.8,17.9h-105l-2.3-47.9c1.5,12,11.7,42.1,76.1,38.4
		C123.6,347.5,155.5,343.1,156.2,327.9z"/>
	<path class="st47" d="M160.1,242.6c41.2,0.5,32.3,50.8,25.8,72.9c-6.6,22-30.1,23.7-30.1,23.7l0.5-11.2l0.4-8.5
		c17.4-1.2,18.2-30.7,17-43.5c-0.6-5.9-3.6-9-6.8-10.7c-3.8-2-7.7-1.9-7.7-1.9L160.1,242.6z"/>
	<path class="st48" d="M156,231.6c2.5,0,4.5,2.1,4.3,4.5l-0.3,6.5l-0.9,20.6l-2.2,49.4l-0.3,6.8l-0.4,8.5
		c-0.7,15.2-32.6,19.6-32.6,19.6c-64.3,3.7-74.6-26.4-76.1-38.4l-0.2-4.8l-3.2-68.2c-0.1-2.5,1.9-4.6,4.3-4.6L156,231.6L156,231.6z"
		/>
	<polygon class="st49" points="112.6,284.3 112.6,292.5 110,292.5 110,295.2 107.3,295.2 107.3,298 104.6,298 104.6,300.6 
		101.8,300.6 101.8,303.4 99.1,303.4 99.1,306.1 96.4,306.1 96.4,308.8 93.6,308.8 93.6,306.1 90.9,306.1 90.9,303.4 88.1,303.4 
		88.1,300.7 85.4,300.7 85.4,298 82.7,298 82.7,295.2 80,295.2 80,292.5 77.2,292.5 77.2,284.3 80,284.3 80,281.6 82.7,281.6 
		82.7,278.9 90.9,278.9 90.9,281.7 93.6,281.7 93.6,284.3 96.4,284.3 96.4,281.6 99,281.6 99,278.9 107.2,278.9 107.2,281.6 
		109.9,281.6 109.9,284.3 	"/>
	<path class="st50" d="M70.8,277.8c-0.3,4.6-0.4,9.7-0.4,14.8c0,5.7,0.2,11.4,0.6,16.3l-5.9-0.5c-0.4-6.1-0.6-11.4-0.6-16.5
		c0-4.7,0.1-9.2,0.4-14.6L70.8,277.8z"/>
	<path class="st48" d="M87.5,219.5c0,0,25.5-20.9,7.3-46c-18.3-25.1-19.2-35.2-12.9-40.2c0,0-14.8,6.2-6.8,25.2
		S108.4,192.9,87.5,219.5z"/>
	<path class="st48" d="M115,203c0,0,14.6-12,4.2-26.4c-10.5-14.4-11-20.2-7.4-23c0,0-8.5,3.6-3.9,14.4
		C112.4,178.9,126.9,187.7,115,203z"/>
	<polygon class="st51" points="4.5,398.1 18.5,357.2 623.8,357.2 609.8,398.1 	"/>
	<polygon class="st52" points="117.7,278.3 117.7,285.3 122.2,285.3 122.2,283.5 129.1,283.5 129.1,304.9 127,304.9 127,309.4 
		136.8,309.4 136.8,304.9 134.7,304.9 134.7,283.5 141.7,283.5 141.7,285.3 146.1,285.3 146.1,278.3 	"/>
</g>
</svg>
