<?xml version="1.0" encoding="utf-8"?>
<!-- Generator: Adobe Illustrator 24.0.2, SVG Export Plug-In . SVG Version: 6.00 Build 0)  -->
<svg version="1.1" id="Capa_1" xmlns="http://www.w3.org/2000/svg" xmlns:xlink="http://www.w3.org/1999/xlink" x="0px" y="0px"
	 viewBox="0 0 570.3 418.9" style="enable-background:new 0 0 570.3 418.9;" xml:space="preserve">
<style type="text/css">
	.st0{fill:#E66901;}
	.st1{fill:#025FC3;}
	.st2{fill:#0053A9;}
	.st3{fill:#FF9B9B;}
	.st4{fill:#E16B6B;}
	.st5{fill:#0571C0;}
	.st6{fill:#00558F;}
	.st7{fill:#FC3500;}
	.st8{fill:#F99191;}
	.st9{fill:#FF8D00;}
	.st10{fill:#2BA2FD;}
	.st11{fill:#A62300;}
	.st12{fill:#532001;}
	.st13{fill:#FC697A;}
	.st14{fill:#FFFFFF;}
	.st15{fill:#A7AAD7;}
	.st16{fill:#D8DAED;}
	.st17{fill:#E0E2FD;}
	.st18{fill:#EDEFFE;}
	.st19{fill:#CDCFE8;}
	.st20{fill:#B5C3DB;}
	.st21{fill:#EC3A4E;}
	.st22{fill:#01E6A4;}
	.st23{fill-rule:evenodd;clip-rule:evenodd;fill:#FDDAD3;}
	.st24{fill-rule:evenodd;clip-rule:evenodd;fill:#FD9CAF;}
	.st25{fill-rule:evenodd;clip-rule:evenodd;fill:#FF103D;}
	.st26{fill:#FF103D;}
	.st27{fill:#F8F8F8;}
	.st28{fill:#FFA46B;}
	.st29{fill:#FDD68C;}
</style>
<g>
	<path class="st0" d="M169.9,260.9c0,0-19.8,20.4-18.8,35.7l4.8,2.4C155.9,299,172.6,281,169.9,260.9z"/>
	<path class="st1" d="M243.3,58.8c0,0,50.7-8.8,57.5,33c6.8,41.8,0,94.1,0,94.1h-37.4L243.3,58.8z"/>
	<path class="st2" d="M273.6,119.6c-8.1,1.9-14.3,5.4-19.1,9.9l8.9,56.4h25.9C295.4,147.8,273.6,119.6,273.6,119.6z"/>
	<path class="st3" d="M226.1,204.8c0,0-11.3,4.4-14.9,22.5c-3.6,18.1-9.7,68-9.7,68l-41-37c-2-2.5-4.8-9.2-5.4-10.9
		c-1.3-4.2-2-6.7-6.3-10.2c-4.4-3.5-15.3-17.5-16.7-20c0,0-2.8,3-0.2,8.1s7.6,12,7.6,12s-25.3-19.6-32.5-23.7
		c-0.7-0.4-3.6,0.3-1.9,2.6c1.7,2.4,20.8,18.2,20.8,18.2l-0.7,1l-23.2-15.9c0,0-2.6-1.9-4.1-0.5c-1.5,1.4,0.8,3.6,2.4,4.7
		c1.6,1.1,20.8,16.6,20.8,16.6l-0.8,1.1c0,0-14.3-9.2-18.3-12.5c-4-3.3-5.2,0.9-3.5,2.4c0,0,18,13.5,19.1,14.1l-0.5,1.3
		c0,0-11.7-4.4-15.1-5.8c-3.4-1.3-1.5,1.9,1.3,3.4s19.3,13.4,27.9,14.6c4.5,0.6,13.8,7.1,18.1,12.9c0,0,38.2,67.1,62.7,67.1
		c24.5,0,24.9-82.4,24.9-82.4S238.1,212,226.1,204.8z"/>
	<path class="st4" d="M139.5,237.2c-1.6,0.3-3.1,0.7-4.5,1.3c-1.4,0.6-2.6,1.5-3.5,2.7c-0.3,0.3-0.4,0.6-0.6,0.9l-0.3,0.5
		c-0.1,0.2-0.1,0.3-0.2,0.5c-0.1,0.4-0.3,0.7-0.3,1.1c0,0.4-0.1,0.7-0.2,1.1c-0.1,0.4-0.1,0.8-0.1,1.1l0,1.2
		c0.1,0.8,0.1,1.6,0.1,2.4c-0.3-0.7-0.5-1.5-0.8-2.3c-0.1-0.8-0.3-1.6-0.3-2.5c-0.1-1.7,0.5-3.4,1.5-4.8c1-1.4,2.6-2.4,4.2-2.9
		C136.2,237.1,137.9,237,139.5,237.2z"/>
	<path class="st4" d="M143.4,258.7c0.7-1,1.3-2,1.9-3c0.5-1,0.9-2,0.9-3l0-0.6l0.6-0.1c0.4,0,0.9-0.1,1.3-0.2
		c0.4-0.1,0.9-0.2,1.3-0.3c0.9-0.2,1.7-0.5,2.5-0.9c-0.5,0.8-1.3,1.4-2.2,1.8c-0.4,0.2-0.9,0.4-1.4,0.5c-0.5,0.1-0.9,0.2-1.4,0.3
		l0.6-0.7c0.1,0.7-0.1,1.4-0.3,2c-0.2,0.6-0.6,1.2-0.9,1.7C145.4,257.3,144.4,258.1,143.4,258.7z"/>
	<path class="st4" d="M179.9,275.7c-3,12.1-9.7,18.8-14,22.1c-0.7-1-1.4-2.1-2.2-3.1l9.3-25.2L179.9,275.7z"/>
	<path class="st5" d="M349.1,414.4c5.8-9.3,10.1-19.1,11.2-28.8c4-37-7.2-56.2-7.2-56.2s-34.2,16-60.7,14.9s-38.2-11.7-38.2-11.7
		s-2.2,21-17.3,36.9c-12,12.6-31.4,35.9-38.8,44.9H349.1z"/>
	<path class="st6" d="M271.3,341l-2.4,11.1c-4.2-1.3-7.9-2.7-11.1-4.2l4.4-10.3c0.8,0.4,1.7,0.8,2.6,1.1
		C266.7,339.4,268.9,340.2,271.3,341z"/>
	<path class="st6" d="M310.9,354.7c-10.5,1.5-19.8,1.4-27.9,0.3v-11.6c2.9,0.4,6,0.7,9.4,0.8c5.6,0.2,11.6-0.3,17.6-1.3L310.9,354.7
		z"/>
	<path class="st6" d="M341.3,346.3c-3.8,1.6-7.6,2.9-11.2,4l-1.8-11.7v0c3.8-1.1,7.4-2.3,10.6-3.5l0.5,2.1L341.3,346.3z"/>
	<path class="st3" d="M445,197.9c-3.1,4.3-14.6,16.7-14.6,16.7l-1.1-0.9c0,0,14.7-19.9,15.9-21.4c1.3-1.5,2.9-4.2,1.1-5.2
		c-1.8-1-3.9,1.5-3.9,1.5L424,209.9l-0.9-0.8c0,0,14.5-20.1,15.5-22.9s-1.9-2.7-2.5-2.1c-6,5.7-25.5,31.1-25.5,31.1s3.1-8,4.3-13.6
		s-2.2-7.8-2.2-7.8c-0.7,2.8-7.7,19.1-11.1,23.6c-3.4,4.5-3.3,7.1-3.6,11.5c-0.1,1-0.3,3.7-0.8,6.4l-30.4,45.9
		c0,0-18.3-46.8-26.3-63.4c-8-16.6-20-18.1-20-18.1c-9.9,10,2.5,52.9,2.5,52.9s21,79.7,44.7,73.6c23.8-6.1,44-80.7,44-80.7
		c3.4-5.3,9.5-10.1,12.6-11.3c8.1-3.3,21-19,23.3-21.1c2.4-2.2,3.4-5.8,0.4-3.7c-2.9,2.2-13.1,9.4-13.1,9.4l-0.8-1.1
		c0.9-0.8,15-18.5,15-18.5C450.3,197.5,448.1,193.6,445,197.9z"/>
	<path class="st4" d="M410.7,215.3c1.5-0.7,3.2-0.9,4.8-0.8c1.7,0.1,3.4,0.6,4.7,1.7c1.3,1.1,2.3,2.7,2.7,4.3
		c0.2,0.8,0.3,1.6,0.4,2.5c0,0.8-0.1,1.6-0.2,2.4c-0.2-0.8-0.3-1.6-0.5-2.4l-0.3-1.1c-0.1-0.4-0.2-0.8-0.4-1.1
		c-0.2-0.3-0.3-0.7-0.5-1c-0.2-0.3-0.4-0.6-0.6-0.9c-0.1-0.1-0.2-0.3-0.3-0.5l-0.4-0.4c-0.2-0.3-0.5-0.6-0.8-0.7
		c-1.1-0.9-2.5-1.5-4-1.8C413.9,215.2,412.3,215.1,410.7,215.3z"/>
	<path class="st4" d="M412.3,237.1c-1.2-0.3-2.3-0.8-3.3-1.6c-0.5-0.4-1-0.8-1.3-1.4c-0.4-0.5-0.7-1.2-0.8-1.9l0.7,0.5
		c-0.5,0.1-1,0.1-1.5,0.1c-0.5,0-1-0.1-1.4-0.2c-0.9-0.2-1.9-0.6-2.6-1.2c0.9,0.2,1.8,0.3,2.7,0.3c0.4,0,0.9,0,1.3-0.1
		c0.4,0,0.9-0.1,1.3-0.2l0.6-0.1l0.1,0.6c0.2,0.9,0.8,1.9,1.6,2.7C410.5,235.5,411.4,236.3,412.3,237.1z"/>
	<path class="st4" d="M378.2,264.3c-3.2,5.8-6.8,11.3-10.4,16.8c-3.7,5.5-7.4,10.9-11.5,16.1c3.2-5.8,6.8-11.3,10.4-16.8
		C370.4,274.9,374.1,269.5,378.2,264.3z"/>
	<path class="st7" d="M320.6,199.9c-63.1-8.8-94.5,4.8-94.5,4.8s5.3,20.9,2.5,36.2s-8,29.8,0,39c8,9.2,27.7,17.7,26.9,32.6
		c-0.8,14.9-1.2,20.1-1.2,20.1s30.2,34.2,98.9-3.2c0,0-24.9-57.1-31.4-121L320.6,199.9z"/>
	<path class="st3" d="M239.1,200.9c0,9.7,2.5,33.3,28.8,29c23-3.7,28.1-22.2,29.1-32.4C270,195.8,250.7,198.4,239.1,200.9z"/>
	<path class="st3" d="M239.3,185.9l8.5,29.4c0,0,21.7,4.4,29.4-17.7l-12-34.2L239.3,185.9z"/>
	<path class="st8" d="M239.3,185.9l6,20.9c17.1-6.6,22.8-19.8,24.5-30l-4.7-13.5L239.3,185.9z"/>
	<path class="st2" d="M243.3,58.8c0,0-88.9,2.8-51.1,131.9l55.5-12.9l-1.4-113.9L243.3,58.8z"/>
	<path class="st3" d="M246,65.2c-15-0.2-45,26.8-49.3,77.2c-4.3,50.4,33.8,52.5,45.6,49.3c11.8-3.2,36.5-15,39.7-70.8
		C285.2,65.2,258.5,65.4,246,65.2z"/>
	<path class="st1" d="M243.3,58.8c0,0,14.4,61.4,37.4,75.2C280.7,133.9,309.3,63.6,243.3,58.8z"/>
	<path class="st8" d="M271.8,135.6c1.3-4.9,7.4-19.7,16.2-12.5c8.8,7.2-2.3,42-13.4,36.2C268.4,156.1,270.2,141.4,271.8,135.6z"/>
	<path class="st9" d="M169.9,260.9c0,0-1.6,19-18.8,35.7l6.2,7.5c0,0,15.8-10.5,21.4-35.1L169.9,260.9z"/>
	<path class="st4" d="M186.3,281.5c5.3,4,10.3,8.3,15.2,12.7c4.9,4.4,9.7,8.9,14.3,13.7c-5.3-4-10.3-8.3-15.2-12.7
		C195.7,290.8,190.9,286.3,186.3,281.5z"/>
	<path class="st6" d="M288,389.9c0,0-5.1,11.2-15.4,24.4h2.5c5.5-8,11.4-17.6,17.4-28.8c0,0-10.9-2.4-14.3-5.4
		C278.1,380.2,282.9,389,288,389.9z"/>
	<path class="st10" d="M329.4,414.4h1.9c4.4-7,7.7-13.7,10.2-19.9c10-25.2,8.6-46.4,8.6-46.6l-1.6,0.1c0,0.2,1.4,21.1-8.5,45.9
		C337.5,400.2,334.1,407.2,329.4,414.4z"/>
	<path class="st6" d="M344.5,389.2c-12.4-10-11.3-37.8-11.3-39l3.2,0.1c0,0.3-1,27.4,10.1,36.3L344.5,389.2z"/>
	<path class="st11" d="M258.2,294.7c2.7,0.9,5.5,1.3,8.2,0.9c1.4-0.2,2.7-0.5,4-1c0.6-0.3,1.3-0.5,1.9-0.8c0.7-0.3,1.3-0.5,2-0.8
		c2.7-1,5.6-1.4,8.4-1.5c2.9,0,5.8,0.5,8.5,1.4c2.6,0.8,5.4,1.4,8.1,1.7c2.7,0.3,5.5,0.1,8.1-0.6c2.6-0.7,5-2.2,6.9-4.3
		c1.9-2,3.1-4.6,4.1-7.2c-0.7,2.7-1.8,5.4-3.6,7.6c-1.8,2.2-4.3,3.9-7.1,4.8c-2.7,0.9-5.7,1.1-8.5,0.9c-2.9-0.2-5.7-0.8-8.4-1.6
		c-5.2-1.8-10.9-1.9-16.2-0.2c-0.7,0.2-1.3,0.4-2,0.7c-0.6,0.3-1.3,0.5-2,0.8c-1.4,0.5-2.8,0.8-4.2,0.9
		C263.6,296.4,260.8,295.9,258.2,294.7z"/>
	<path class="st12" d="M223.7,108.7c0,0-5.6,11.9-5.6,27.1c0,5.9,0.8,12.4,3.2,18.9c0.1,0.1,0.2,0.3,0.3,0.3c0.1,0.1,0.3,0.1,0.4,0
		l8.6-4c0.3-0.1,0.4-0.4,0.3-0.7c-0.1-0.3-0.4-0.4-0.7-0.3l-8.6,4l0.2,0.5l0.5-0.2c-2.3-6.3-3.1-12.7-3.1-18.5
		c0-7.5,1.4-14.2,2.7-19c0.7-2.4,1.4-4.3,1.9-5.7c0.3-0.7,0.5-1.2,0.6-1.5c0.1-0.2,0.1-0.3,0.2-0.4l0.1-0.1c0.1-0.3,0-0.6-0.3-0.7
		C224.2,108.3,223.9,108.4,223.7,108.7L223.7,108.7z"/>
	<path class="st12" d="M237.7,125.1L237.7,125.1c0.1-0.2,1-2.2,2.5-4c0.8-0.9,1.7-1.8,2.7-2.5c1-0.6,2.1-1,3.3-1
		c0.4,0,0.9,0,1.3,0.2c1.4,0.3,2.4,1,3.2,1.9c1.2,1.3,1.9,3.1,2.2,4.7c0.3,1.5,0.4,2.8,0.4,3.1l0,0.1c0,0.5,0.4,0.9,0.8,0.9
		c0.5,0,0.9-0.4,0.9-0.8l0-0.1c0-0.5,0-2.8-0.9-5.3c-0.4-1.2-1.1-2.5-2.1-3.6c-1-1.1-2.3-2-4.1-2.4c-0.6-0.1-1.2-0.2-1.7-0.2
		c-1.6,0-3.1,0.6-4.4,1.4c-1.9,1.2-3.3,3-4.2,4.5c-1,1.5-1.5,2.6-1.5,2.7c-0.2,0.4,0,0.9,0.4,1.1C237,125.7,237.5,125.5,237.7,125.1
		L237.7,125.1z"/>
	<path class="st12" d="M216.1,125.1c0,0-0.7-1.6-1.9-3.1c-0.6-0.8-1.4-1.6-2.3-2.2c-0.9-0.6-2.1-1.1-3.3-1.1c-0.4,0-0.9,0.1-1.3,0.2
		c-1.3,0.3-2.4,1-3.1,1.8c-1.1,1.3-1.7,2.8-2,4.1c-0.3,1.3-0.3,2.3-0.3,2.6l0,0.1c0,0.5,0.4,0.8,0.9,0.8c0.5,0,0.8-0.4,0.8-0.9l0,0
		c0-0.3,0-1.8,0.6-3.4c0.3-0.8,0.7-1.5,1.2-2.2c0.6-0.6,1.3-1.1,2.2-1.3c0.3-0.1,0.6-0.1,0.9-0.1c0.9,0,1.6,0.3,2.4,0.8
		c1.1,0.7,2,1.9,2.7,2.9c0.3,0.5,0.6,0.9,0.7,1.2c0.1,0.2,0.1,0.3,0.2,0.4l0,0.1l0,0c0.2,0.4,0.7,0.6,1.1,0.4
		C216.1,126.1,216.3,125.5,216.1,125.1L216.1,125.1z"/>
	<path class="st12" d="M254.7,108.3c-5-2.4-10.7-2.9-15.9-1.4c-0.5-2.5-0.9-5.1-1.4-7.6c7-0.7,14,1.2,19.6,5.2
		C256.2,105.7,255.4,107,254.7,108.3z"/>
	<path class="st12" d="M209.8,108.9c3.3-1.6,6.9-1.9,10.3-0.9c0.3-1.7,0.6-3.3,0.9-5c-4.6-0.5-9.1,0.8-12.7,3.4
		C208.8,107.3,209.3,108.1,209.8,108.9z"/>
	<path class="st13" d="M261,143.5c0,4.7-3.8,8.6-8.6,8.6c-4.7,0-8.6-3.8-8.6-8.6s3.8-8.6,8.6-8.6C257.2,134.9,261,138.8,261,143.5z"
		/>
	<path class="st13" d="M211.8,143.5c0,2.9-2.3,5.2-5.2,5.2s-5.2-2.3-5.2-5.2s2.3-5.2,5.2-5.2S211.8,140.6,211.8,143.5z"/>
	<path class="st12" d="M219.5,168c0,0,1.4,1.3,3.5,2.6c2.1,1.3,4.9,2.6,7.9,2.6c1.7,0,3.5-0.5,5.2-1.7c1.8-1.3,2.9-2.8,3.6-4.3
		c0.7-1.5,0.9-3.1,0.9-4.4c0-2.7-0.9-4.7-0.9-4.7c-0.2-0.4-0.7-0.6-1.1-0.4c-0.4,0.2-0.6,0.7-0.4,1.1l0,0c0.1,0.2,0.7,1.9,0.7,4.1
		c0,1.2-0.2,2.4-0.7,3.7c-0.6,1.3-1.5,2.5-3,3.6c-1.3,1-2.7,1.3-4.1,1.3c-2.5,0-5.1-1.2-7-2.4c-1-0.6-1.8-1.2-2.4-1.7
		c-0.3-0.2-0.5-0.4-0.7-0.5l-0.2-0.1l-0.1,0c-0.3-0.3-0.9-0.3-1.2,0C219.2,167.1,219.2,167.6,219.5,168L219.5,168z"/>
	<path class="st11" d="M247.2,258c2.9-2.1,6.2-3.5,9.6-4.4c3.4-0.9,7-1.4,10.6-1.4c0.9,0,1.8,0.1,2.7,0.2l1.3,0.1
		c0.4,0,0.9,0.1,1.3,0.2l2.6,0.5c0.9,0.2,1.7,0.5,2.6,0.7l1.3,0.4c0.4,0.1,0.8,0.3,1.3,0.5l2.5,1c0.8,0.3,1.6,0.8,2.4,1.2
		c0.8,0.4,1.6,0.8,2.3,1.2c-1.7-0.6-3.3-1.3-5-1.8l-2.5-0.8c-0.4-0.1-0.8-0.3-1.3-0.4l-1.3-0.3l-2.5-0.6l-2.6-0.4
		c-0.4-0.1-0.9-0.1-1.3-0.2l-1.3-0.1c-0.9,0-1.7-0.2-2.6-0.1l-2.6,0l-2.6,0.2c-1.7,0.2-3.4,0.4-5.1,0.8
		C253.7,255.3,250.3,256.4,247.2,258z"/>
	<path class="st4" d="M286.7,131.5c-0.8-0.4-1.8-0.6-2.7-0.4c-1.9,0.3-3.3,1.7-4.4,3c-1,1.4-1.8,2.9-2.4,4.5c-0.6,1.6-1,3.2-1.2,4.9
		l2.3-4.4c0.8-1.4,1.6-2.8,2.5-4c0.2-0.3,0.5-0.6,0.7-0.8c0.1,0.3,0.2,0.7,0.3,1c0.5,2.1,0.8,4.2,0.7,6.3c-0.1,2.1-0.6,4.1-1.5,6
		c-0.9,1.9-2.4,3.5-3.9,5.1c1.9-1.1,3.9-2.4,5-4.5c1.2-1.9,1.9-4.3,2-6.6c0.1-2.3-0.3-4.6-1.1-6.7c-0.2-0.5-0.4-1-0.6-1.5
		c0.6-0.5,1.2-0.9,1.8-1.1c0.7-0.2,1.4-0.2,2.1-0.1c0.8,0.2,1.5,0.6,2.2,0.9C288.2,132.5,287.5,131.9,286.7,131.5z"/>
	<path class="st11" d="M235.3,213.7c1.1,3.4,2.3,6.8,4.1,9.8c1.7,3.1,4.1,5.8,7,7.7c2.9,1.9,6.3,3,9.8,3.4c0.9,0.2,1.7,0.1,2.6,0.2
		l1.3,0.1l1.3-0.1c0.9-0.1,1.8-0.1,2.6-0.2l2.6-0.3c3.5-0.5,7-1.3,10.3-2.4c3.3-1.2,6.4-2.8,9.3-4.9c2.9-2,5.4-4.5,7.6-7.3
		c2.2-2.8,4-5.8,5.7-9c-1.4,3.3-3.1,6.5-5.2,9.4c-2.1,2.9-4.6,5.5-7.5,7.7c-2.9,2.2-6.1,3.9-9.5,5.2c-3.4,1.3-6.9,2.1-10.5,2.6
		l-2.7,0.3c-0.9,0.1-1.8,0.1-2.7,0.1l-1.4,0l-1.4-0.1c-0.9-0.1-1.8,0-2.7-0.2c-3.6-0.4-7.2-1.6-10.2-3.7c-3-2.1-5.3-5.1-7-8.2
		C237.2,220.6,236.1,217.2,235.3,213.7z"/>
	<polygon class="st14" points="508.1,334.3 508.1,329 512.9,329 512.9,324.9 504.1,324.9 504.1,334.3 	"/>
	<polygon class="st14" points="516.9,329 521.7,329 521.7,334.3 525.7,334.3 525.7,324.9 516.9,324.9 	"/>
	<polygon class="st14" points="521.7,338.3 521.7,342.5 516.9,342.5 516.9,346.5 525.7,346.5 525.7,338.3 	"/>
	<polygon class="st14" points="512.9,342.5 508.1,342.5 508.1,338.3 504.1,338.3 504.1,346.5 512.9,346.5 	"/>
	<path class="st14" d="M488.9,344.4h-28.5v-18.6h28.5V344.4z M464.4,340.4h20.5v-10.5h-20.5V340.4z"/>
	<polygon class="st14" points="450.6,327.9 426.1,327.9 426.1,342.4 428.9,342.4 431.7,346.5 433.9,342.4 450.6,342.4 	"/>
	<polygon class="st14" points="18.3,327.6 18.3,343.9 26.4,335.8 	"/>
	<rect x="36.3" y="327.6" class="st14" width="3.5" height="16.3"/>
	<rect x="41.8" y="327.6" class="st14" width="3.5" height="16.3"/>
	<polygon class="st14" points="58.4,331.6 53.3,331.6 53.3,341.8 58.4,341.8 67.2,345.7 67.2,327.6 	"/>
	<path class="st14" d="M71.5,336.7c0,1.7-0.8,3.1-2,4.1l0.7,1.2c1.6-1.2,2.6-3.1,2.6-5.3c0-2.2-1.1-4.2-2.8-5.4l-0.7,1.2
		C70.7,333.4,71.5,334.9,71.5,336.7z"/>
	<path class="st14" d="M77,336.7c0-3.8-1.9-7.1-4.9-9l-0.7,1.2c2.5,1.7,4.2,4.5,4.2,7.8c0,3.1-1.5,5.9-3.9,7.6l0.7,1.2
		C75.2,343.5,77,340.3,77,336.7z"/>
	<path class="st15" d="M63.5,292.8c-1-3-4.2-4.6-7.2-3.6c-2.1,0.7-3.5,2.5-3.8,4.6c-1.5-1.5-3.7-2.1-5.8-1.4c-3,1-4.6,4.2-3.6,7.2
		c0.1,0.3,0.2,0.5,0.3,0.7l0,0c0,0,0,0.1,0.2,0.3l0,0c0.8,1.3,4.1,6,13.7,7.5c7.8-8.1,6.4-14.6,6.4-14.6l0,0
		C63.7,293.3,63.6,293,63.5,292.8z"/>
	<path class="st16" d="M33.9,230.2c-1.8,0-3.6,0.9-4.7,2.5c-0.2,0.2-0.3,0.5-0.4,0.7l0,0c0,0-0.1,0.1-0.1,0.3l0,0
		c-0.6,1.4-2.3,6.9,2.3,15.5c1.3,0.2,2.5,0.2,3.6,0.2c8.5,0,11.9-4,11.9-4l0,0c0.2-0.2,0.4-0.4,0.5-0.6c1.8-2.6,1.1-6.1-1.5-7.9
		c-1-0.7-2.1-1-3.2-1c-1,0-1.9,0.3-2.8,0.7c0.3-2.1-0.6-4.2-2.4-5.5C36.2,230.5,35,230.2,33.9,230.2"/>
	<path class="st16" d="M68.6,261c-0.3,0-0.6,0-0.9,0.1c-1.3,0.3-2.2,1.4-2.5,2.6c-0.6-0.8-1.6-1.2-2.6-1.2c-0.3,0-0.6,0-0.9,0.1
		c-1.8,0.5-2.9,2.4-2.5,4.2c0,0.2,0.1,0.3,0.2,0.5l0,0c0,0,0,0.1,0.1,0.2l0,0c0.4,0.8,2.2,3.8,8,5.1C72.6,268,72,264,72,264l0,0
		c0-0.2,0-0.3-0.1-0.5C71.5,262,70.1,261,68.6,261"/>
	<path class="st17" d="M51.7,274.9c-1.8,5.4-7.7,8.3-13.2,6.5s-8.3-7.7-6.5-13.2c1.8-5.4,7.7-8.3,13.2-6.5
		C50.6,263.6,53.5,269.5,51.7,274.9z"/>
	<path class="st15" d="M48.7,270.9c-0.2,1.1-1,1.9-1.8,1.7c-0.8-0.2-1.2-1.2-1-2.3c0.2-1.1,1-1.9,1.8-1.7
		C48.5,268.7,48.9,269.8,48.7,270.9z"/>
	<path class="st15" d="M36.6,266.8c-0.5,1-0.3,2.1,0.4,2.4c0.7,0.3,1.7-0.2,2.1-1.2c0.5-1,0.3-2.1-0.4-2.4
		C38,265.2,37,265.8,36.6,266.8z"/>
	<path class="st15" d="M43.4,276.2c-0.7,2-2.5,3.3-4.1,2.7c-1.6-0.5-2.2-2.6-1.6-4.6c0.7-2,2.5-3.3,4.1-2.7
		C43.4,272.1,44.1,274.2,43.4,276.2z"/>
	<path class="st15" d="M49.9,267.4c-0.2-0.1-0.3-0.3-0.3-0.5c0-0.5-0.3-0.9-0.9-1.1c-0.5-0.2-1,0-1.3,0.3c-0.2,0.2-0.5,0.2-0.7,0.1
		c-0.2-0.2-0.2-0.5-0.1-0.7c0.5-0.7,1.5-0.9,2.3-0.6c0.9,0.3,1.5,1.2,1.5,2.1c0,0.3-0.2,0.5-0.5,0.4L49.9,267.4z"/>
	<path class="st15" d="M37.7,263.3l-0.1-0.1c-0.2-0.1-0.3-0.4-0.1-0.6c0.5-0.7,1.5-1,2.4-0.7c0.9,0.3,1.5,1.1,1.5,1.9
		c0,0.3-0.2,0.5-0.5,0.5s-0.5-0.2-0.5-0.5c0-0.5-0.4-0.9-0.9-1.1c-0.5-0.2-1.1,0-1.4,0.4C38.1,263.3,37.9,263.3,37.7,263.3z"/>
	<path class="st18" d="M63.9,249.6c-1.6,0-3.1-0.7-4.2-1.9c-0.6-0.6-1-1.3-1.3-2.2l11-3.5c0.3,0.8,0.3,1.7,0.2,2.5
		c-0.3,2.1-1.8,4-4,4.7C65.1,249.5,64.5,249.6,63.9,249.6 M58.1,243.7c-0.1,0-0.2-0.1-0.3-0.2c-0.1-0.2-0.1-0.4,0.1-0.6l1.4-1.1
		l-1.9-0.3c-0.2,0-0.4-0.2-0.3-0.5c0-0.2,0.2-0.3,0.4-0.3c0,0,0,0,0.1,0l2.8,0.5c0.2,0,0.3,0.1,0.3,0.3c0,0.2,0,0.3-0.1,0.4
		l-2.2,1.7l-0.1,0.1C58.2,243.7,58.1,243.7,58.1,243.7 M68.4,240.4l-2.7-0.1c-0.2,0-0.3-0.1-0.4-0.3c-0.1-0.1,0-0.3,0.1-0.4l2.1-2
		c0.1-0.1,0.2-0.1,0.3-0.1c0.1,0,0.2,0,0.3,0.1c0.2,0.2,0.1,0.4,0,0.6l-1.4,1.4l1.8,0.1c0.2,0,0.4,0.2,0.4,0.4
		c0,0.2-0.1,0.3-0.3,0.4L68.4,240.4 M63.8,234.5c-0.9,0-1.8,0.1-2.7,0.4c-4.7,1.5-7.3,6.5-5.9,11.2c1.2,3.8,4.7,6.3,8.5,6.3
		c0.9,0,1.8-0.1,2.7-0.4c4.7-1.5,7.3-6.5,5.9-11.2C71.2,237,67.7,234.5,63.8,234.5"/>
	<path class="st19" d="M63.9,249.6c-1.6,0-3.1-0.7-4.2-1.9c1.3-1.1,2.9-2,4.7-2.5c1.4-0.4,2.8-0.6,4.1-0.6c0.4,0,0.8,0,1.2,0
		c-0.3,2.1-1.8,4-4,4.7C65.1,249.5,64.5,249.6,63.9,249.6 M69.4,242.1l-11,3.5c0.3,0.8,0.7,1.6,1.3,2.2c1.1,1.2,2.6,1.9,4.2,1.9
		c0.6,0,1.2-0.1,1.7-0.3c2.2-0.7,3.7-2.6,4-4.7C69.8,243.8,69.7,242.9,69.4,242.1"/>
	<path class="st20" d="M68.5,244.5c-1.4,0-2.7,0.2-4.1,0.6c-1.8,0.6-3.3,1.4-4.7,2.5c1.1,1.2,2.6,1.9,4.2,1.9c0.6,0,1.2-0.1,1.7-0.3
		c2.2-0.7,3.7-2.6,4-4.7C69.3,244.5,68.9,244.5,68.5,244.5"/>
	<path class="st19" d="M67.8,237.5c-0.1,0-0.2,0-0.3,0.1l-2.1,2c-0.1,0.1-0.2,0.3-0.1,0.4c0.1,0.1,0.2,0.3,0.4,0.3l2.7,0.1l0.1,0
		c0.2,0,0.3-0.2,0.3-0.4c0-0.2-0.2-0.4-0.4-0.4l-1.8-0.1l1.4-1.4c0.2-0.2,0.2-0.4,0-0.6C68,237.5,67.9,237.5,67.8,237.5"/>
	<path class="st19" d="M57.4,240.7c-0.2,0-0.4,0.1-0.4,0.3c0,0.2,0.1,0.4,0.3,0.5l1.9,0.3l-1.4,1.1c-0.2,0.1-0.2,0.4-0.1,0.6
		c0.1,0.1,0.2,0.2,0.3,0.2c0,0,0.1,0,0.1,0l0.1-0.1l2.2-1.7c0.1-0.1,0.2-0.3,0.1-0.4c0-0.2-0.2-0.3-0.3-0.3L57.4,240.7
		C57.5,240.7,57.4,240.7,57.4,240.7"/>
	<polyline class="st14" points="3.9,318.8 543.3,318.8 543.3,315.5 3.9,315.5 	"/>
	<polyline class="st21" points="3.9,318.8 148.8,318.8 148.8,315.5 3.9,315.5 	"/>
	<path class="st14" d="M158.6,316.8c0,4.2-3.4,7.6-7.6,7.6s-7.6-3.4-7.6-7.6s3.4-7.6,7.6-7.6S158.6,312.6,158.6,316.8z"/>
	<polygon class="st14" points="543.3,354.9 543.3,353.3 5.5,353.3 5.5,39.7 541.7,39.7 541.7,354.9 543.3,354.9 543.3,353.3 
		543.3,354.9 545,354.9 545,36.4 2.2,36.4 2.2,356.6 545,356.6 545,354.9 	"/>
	<path class="st22" d="M405.3,64.2l-26.1-16.1l16.1-25.3c0,0,8-11.5,20.5-3c0,0,6.9,4.7,9,11.1L405.3,64.2z"/>
	<path class="st22" d="M417.5,16.9c0,0,10.1,4.6,21.1,32.7l-11.4,6.1l32,2l17-28.9L465,35.2l-8.7-14.6c0,0-2.1-3-6-3.7
		C446.7,16.3,417.5,16.9,417.5,16.9z"/>
	<path class="st22" d="M450,74.3L476.6,59l14.6,26.3c0,0,6.3,12.5-7.2,19.4c0,0-7.4,3.8-14.1,2.6L450,74.3z"/>
	<path class="st22" d="M485.7,107.5c0,0-8.9,6.6-38.8,2.9l0.1-12.9l-17,27.2l17.3,28.7l-0.3-12.8l17-0.7c0,0,3.6-0.4,6.1-3.5
		C472.4,133.5,485.7,107.5,485.7,107.5z"/>
	<path class="st22" d="M421.3,107.7l0.4,30.7l-30-0.1c0,0-14-0.6-13.5-15.7c0,0,0.3-8.3,4.6-13.6L421.3,107.7z"/>
	<path class="st22" d="M374.9,122.7c0,0-1.5-11,16.4-35.3l11.2,6.4L387,65.6l-33.5,1.1l11.3,6l-7.6,15.2c0,0-1.4,3.3,0.1,7
		C358.7,98.3,374.9,122.7,374.9,122.7z"/>
	<path class="st23" d="M110.9,100.8c-2.2,0-2.5-0.4-3.9-1.7c-11.1-10.5-20.2-10-31.3-5.6c-2.4,0.9-2.7,0.9-4.9,1H65v28.2h8.6
		c1.2,0,1.1,0.1,2.8,0.5l28.7,7.7c10.1,2.7,14.1,5.3,23.7-1.2l35.4-25.2c3.2-2.3,4.4-6.6,2.3-9.9c-2.1-3.4-6.4-4.2-9.9-2.3
		l-24.1,12.4c-1.3-2.3-3.7-3.9-6.6-3.9H110.9z"/>
	<path class="st24" d="M65,122.8V94.1c0-2.5-2.1-4.6-4.6-4.6H49.3c-2.5,0-4.6,2.1-4.6,4.6v29.1c0,2.5,2.1,4.6,4.6,4.6h11.1
		c2.5,0,4.6-2.1,4.6-4.6L65,122.8L65,122.8z"/>
	<path class="st25" d="M146.6,46.9c6.3-8,5.8-20-1.4-27.4c-6.7-7-17.9-6-24.9,0.5c-3.2,3-3,3-6.2,0c-7-6.6-18.2-7.5-24.9-0.5
		c-7.7,8-7.7,21.1,0,29l28,27.1l10.3-10l-2.9-2.8c-3.6-3.8-3.6-9.9,0-13.7c3.2-3.3,8.4-2.9,11.7,0.3c1.5,1.4,1.4,1.4,2.9,0
		C141.3,47.5,144,46.6,146.6,46.9z"/>
	<path class="st24" d="M151,62.8c3.6-3.8,3.6-9.9,0-13.7c-1.2-1.3-2.8-2-4.4-2.2c-2.5-0.3-5.3,0.6-7.3,2.5c-1.5,1.4-1.4,1.4-2.9,0
		c-3.3-3.1-8.6-3.5-11.7-0.3c-3.6,3.8-3.6,9.9,0,13.7l2.9,2.8l10.3,10L151,62.8z"/>
	<path class="st26" d="M185.3,35.8h-13.6c-1.6,0-2.9,1.3-2.9,2.9c0,1.6,1.3,2.9,2.9,2.9h13.6c1.6,0,2.9-1.3,2.9-2.9
		C188.2,37,186.9,35.8,185.3,35.8z"/>
	<path class="st26" d="M166.2,19.2c0.6,0,1.2-0.2,1.8-0.6l11.3-8.9c1.2-1,1.4-2.8,0.5-4c-1-1.2-2.8-1.4-4-0.5l-11.3,8.9
		c-1.2,1-1.4,2.8-0.5,4C164.5,18.8,165.3,19.2,166.2,19.2z"/>
	<path class="st26" d="M179.2,67.6l-11.3-8.9c-1.2-1-3-0.8-4,0.5c-1,1.2-0.8,3,0.5,4l11.3,8.9c0.5,0.4,1.2,0.6,1.8,0.6
		c0.8,0,1.7-0.4,2.2-1.1C180.6,70.4,180.4,68.6,179.2,67.6z"/>
	<path class="st26" d="M51.7,41.5h13.6c1.6,0,2.9-1.3,2.9-2.9c0-1.6-1.3-2.9-2.9-2.9H51.7c-1.6,0-2.9,1.3-2.9,2.9
		C48.9,40.2,50.2,41.5,51.7,41.5z"/>
	<path class="st26" d="M57.9,9.6l11.3,8.9c0.5,0.4,1.2,0.6,1.8,0.6c0.8,0,1.7-0.4,2.2-1.1c1-1.2,0.8-3-0.5-4L61.4,5.1
		c-1.2-1-3-0.8-4,0.5C56.4,6.8,56.6,8.6,57.9,9.6z"/>
	<path class="st26" d="M69.1,58.7l-11.3,8.9c-1.2,1-1.4,2.8-0.5,4c0.6,0.7,1.4,1.1,2.2,1.1c0.6,0,1.2-0.2,1.8-0.6l11.3-8.9
		c1.2-1,1.4-2.8,0.5-4C72.2,57.9,70.4,57.7,69.1,58.7z"/>
	<path class="st27" d="M561.4,272.2h-99.1c-1.6,0-3-1.3-3-3V256c0-1.6,1.3-3,3-3h99.1c2.8,0,5,2.2,5,5v9.1
		C566.4,270,564.2,272.2,561.4,272.2z"/>
	<path class="st28" d="M459.4,256v13.2c0,1.6,1.3,3,3,3h8.8v-19.1h-8.8C460.7,253.1,459.4,254.4,459.4,256z"/>
	<path class="st29" d="M561.4,253.1h-26.3v19.1h26.3c2.8,0,5-2.2,5-5v-9.1C566.4,255.3,564.2,253.1,561.4,253.1z"/>
	<path class="st27" d="M468.7,200.1h8.6c2.8,0,5.2,2.3,5.2,5.2c0,2.8-2.3,5.2-5.2,5.2h-8.6c-2.8,0-5.2-2.3-5.2-5.2
		C463.5,202.5,465.8,200.1,468.7,200.1z"/>
	<path class="st27" d="M464.5,240.2c-2.8,0-5.2-2.3-5.2-5.2v-0.8c0-8.2,6.6-14.8,14.8-14.8H505c2.5,0,4.5-2,4.5-4.5
		c0-2.5-2-4.5-4.5-4.5h-6.2c-2.8,0-5.2-2.3-5.2-5.2s2.3-5.2,5.2-5.2h6.2c8.2,0,14.8,6.6,14.8,14.8c0,8.2-6.6,14.8-14.8,14.8h-30.8
		c-2.5,0-4.5,2-4.5,4.5v0.8C469.7,237.9,467.4,240.2,464.5,240.2z"/>
	<path class="st26" d="M487.6,242.7l1-1c1.2-1.2,3.1-1.2,4.3,0l36.5,36.5c1.2,1.2,1.2,3.1,0,4.3l-1,1c-1.2,1.2-3.1,1.2-4.3,0
		L487.6,247C486.4,245.8,486.4,243.9,487.6,242.7z"/>
	<path class="st26" d="M488.6,283.5l-1-1c-1.2-1.2-1.2-3.1,0-4.3l36.5-36.5c1.2-1.2,3.1-1.2,4.3,0l1,1c1.2,1.2,1.2,3.1,0,4.3
		l-36.5,36.5C491.7,284.7,489.8,284.7,488.6,283.5z"/>
</g>
</svg>
