<?xml version="1.0" encoding="utf-8"?>
<!-- Generator: Adobe Illustrator 24.0.2, SVG Export Plug-In . SVG Version: 6.00 Build 0)  -->
<svg version="1.1" id="Capa_1" xmlns="http://www.w3.org/2000/svg" xmlns:xlink="http://www.w3.org/1999/xlink" x="0px" y="0px"
	 viewBox="0 0 640.3 428.9" style="enable-background:new 0 0 640.3 428.9;" xml:space="preserve">
<style type="text/css">
	.st0{fill:#FFFFFF;}
	.st1{clip-path:url(#SVGID_2_);fill:#FBB98B;}
	.st2{clip-path:url(#SVGID_2_);fill:#036DC4;}
	.st3{clip-path:url(#SVGID_2_);fill:#EAEAEA;}
	.st4{clip-path:url(#SVGID_2_);fill:#3C3C3A;}
	.st5{clip-path:url(#SVGID_2_);fill:#ED4E3C;}
	.st6{clip-path:url(#SVGID_2_);fill:#FDCDA4;}
	.st7{clip-path:url(#SVGID_2_);fill:#FFFFFF;}
	.st8{clip-path:url(#SVGID_2_);fill:#FF7258;}
	.st9{fill:#444058;}
	.st10{fill:#D8E2E8;}
	.st11{fill:#FF4C41;}
</style>
<g>
	<rect x="10.5" y="11.5" class="st0" width="619.3" height="335.5"/>
	<g>
		<defs>
			<rect id="SVGID_1_" x="10.5" y="11.5" width="619.3" height="335.5"/>
		</defs>
		<clipPath id="SVGID_2_">
			<use xlink:href="#SVGID_1_"  style="overflow:visible;"/>
		</clipPath>
		<rect x="302.9" y="235.6" class="st1" width="34.5" height="46.5"/>
		<polygon class="st2" points="365,377.6 365,297.5 337.4,269.9 302.9,269.9 275.2,297.5 275.2,377.6 		"/>
		<polygon class="st3" points="302.9,269.9 311.5,284.6 320.1,269.9 		"/>
		<polygon class="st3" points="320.1,269.9 328.8,284.6 337.4,269.9 		"/>
		<polygon class="st4" points="423.4,377.6 389.2,283.8 363.2,293.2 394,377.6 		"/>
		<polygon class="st4" points="389.2,377.6 389.2,283.8 337.4,269.9 337.4,377.6 		"/>
		<polygon class="st4" points="302.9,377.6 302.9,269.9 251.1,283.8 251.1,377.6 		"/>
		<polygon class="st4" points="246.3,377.6 277,293.2 251.1,283.8 216.9,377.6 		"/>
		<path class="st1" d="M416.5,186c0,12.4-10.1,22.4-22.4,22.4s-22.4-10.1-22.4-22.4s10.1-22.4,22.4-22.4S416.5,173.6,416.5,186z"/>
		<path class="st1" d="M268.7,186c0,12.4-10,22.4-22.4,22.4c-12.4,0-22.4-10.1-22.4-22.4s10.1-22.4,22.4-22.4
			C258.6,163.6,268.7,173.6,268.7,186z"/>
		<path class="st5" d="M405.1,168.7v-75H235.2v75c0,6.8,5.6,12.4,12.4,12.4h145.1C399.5,181.1,405.1,175.6,405.1,168.7z"/>
		<path class="st6" d="M394,138.9C394,98.1,361,65,320.1,65c-40.8,0-73.9,33.1-73.9,73.9v46c0,40.8,33.1,73.9,73.9,73.9
			c40.8,0,73.9-33.1,73.9-73.9V138.9z"/>
		<path class="st4" d="M289.8,176.2c0,5.4-4.4,9.8-9.8,9.8s-9.8-4.4-9.8-9.8c0-5.4,4.4-9.8,9.8-9.8S289.8,170.8,289.8,176.2z"/>
		<path class="st4" d="M288.9,158.5h-17.8c-2.5,0-4.6-2-4.6-4.6c0-2.5,2-4.6,4.6-4.6h17.8c2.5,0,4.6,2,4.6,4.6
			C293.5,156.4,291.4,158.5,288.9,158.5z"/>
		<path class="st4" d="M370.1,176.2c0,5.4-4.4,9.8-9.8,9.8c-5.4,0-9.8-4.4-9.8-9.8c0-5.4,4.4-9.8,9.8-9.8
			C365.7,166.3,370.1,170.8,370.1,176.2z"/>
		<path class="st4" d="M369.2,158.5h-17.8c-2.5,0-4.6-2-4.6-4.6c0-2.5,2-4.6,4.6-4.6h17.8c2.5,0,4.6,2,4.6,4.6
			C373.7,156.4,371.7,158.5,369.2,158.5z"/>
		<path class="st7" d="M297.7,208.6c0,12.4,10,22.4,22.4,22.4c12.4,0,22.4-10.1,22.4-22.4H297.7z"/>
		<path class="st8" d="M416.1,76.3V53.9H275c-22,0-39.8,17.8-39.8,39.8v22.4h141.2C398.3,116.1,416.1,98.3,416.1,76.3"/>
		<path class="st1" d="M311.4,192.1c0,4.8,3.9,8.7,8.7,8.7c4.8,0,8.7-3.9,8.7-8.7V175c0-4.8-3.9-8.7-8.7-8.7c-4.8,0-8.7,3.9-8.7,8.7
			V192.1z"/>
	</g>
	<rect x="10.5" y="347.1" class="st9" width="619.3" height="70.3"/>
	<rect x="30.5" y="359.9" class="st10" width="576.4" height="3.2"/>
	<rect x="30.5" y="359.9" class="st11" width="235.4" height="3.2"/>
	<polygon class="st0" points="141,377.8 141,399.2 156.2,388.5 	"/>
	<rect x="158.9" y="377.8" class="st0" width="3.6" height="21.5"/>
	<polygon class="st0" points="97.6,377.8 97.6,399.2 112.9,388.5 	"/>
	<polygon class="st0" points="69.6,377.8 69.6,399.2 54.3,388.5 	"/>
	<rect x="48.1" y="377.8" class="st0" width="3.6" height="21.5"/>
	<path class="st0" d="M498.4,384.6l-0.7-1.7c0,0,1.6-3.7,1.5-3.8l-2.2-2.1c-0.2-0.1-3.8,1.5-3.8,1.5l-1.7-0.7c0,0-1.5-3.7-1.7-3.7
		h-3.1c-0.2,0-1.6,3.8-1.6,3.8l-1.7,0.7c0,0-3.8-1.6-3.9-1.5l-2.2,2.1c-0.2,0.1,1.6,3.8,1.6,3.8l-0.7,1.7c0,0-3.8,1.5-3.8,1.7v3
		c0,0.2,3.8,1.6,3.8,1.6l0.7,1.7c0,0-1.6,3.7-1.5,3.8l2.2,2.1c0.1,0.1,3.8-1.5,3.8-1.5l1.7,0.7c0,0,1.5,3.7,1.7,3.7h3.1
		c0.2,0,1.6-3.8,1.6-3.8l1.7-0.7c0,0,3.8,1.6,3.9,1.5l2.2-2.1c0.1-0.1-1.6-3.8-1.6-3.8l0.7-1.7c0,0,3.8-1.5,3.8-1.7v-3
		C502.2,385.9,498.4,384.6,498.4,384.6z M492.8,387.7c0,2.4-2,4.4-4.5,4.4c-2.5,0-4.5-2-4.5-4.4c0-2.4,2-4.4,4.5-4.4
		C490.8,383.3,492.8,385.3,492.8,387.7z"/>
	<path class="st0" d="M553.8,398H522V377h31.8V398z M524.4,395.6h27.1v-16.3h-27.1V395.6z"/>
	<polygon class="st0" points="588,377.2 596.1,377.2 596.1,385.2 598.5,385.2 598.5,374.8 588,374.8 	"/>
	<polygon class="st0" points="575.4,385.2 575.4,377.2 583.5,377.2 583.5,374.8 573.1,374.8 573.1,385.2 	"/>
	<polygon class="st0" points="596.1,389.8 596.1,397.9 588,397.9 588,400.2 598.5,400.2 598.5,389.8 	"/>
	<polygon class="st0" points="583.5,397.9 575.4,397.9 575.4,389.8 573.1,389.8 573.1,400.2 583.5,400.2 	"/>
	<path class="st11" d="M271.7,361.4c0,3.1-2.5,5.5-5.5,5.5s-5.5-2.5-5.5-5.5s2.5-5.5,5.5-5.5S271.7,358.3,271.7,361.4z"/>
	<path class="st11" d="M388.3,190c-0.1-1.6-0.1-3.3-0.3-4.9c-0.5-7-1.3-14.9-5.9-20.5c-3.9-4.8-10-5.8-15.8-6.5
		c-7.3-0.8-14.7-1.3-22.1-1.6c-14.9-0.6-29.9-0.2-44.8,0.1c-7.7,0.2-15.3,0.3-23,1c-9.4,0.7-19.1,2.1-23.4,11.5
		c-3.9,8.4-3.4,19.1-3.5,28.2c0,8.1-0.1,16.3,0.3,24.4c0.4,10.5,1,24.3,12.4,28.9c6.1,2.5,13.4,3,19.9,3.4
		c6.9,0.4,13.8,0.4,20.7,0.5c14.4,0.2,28.9-0.3,43.3-0.6c10-0.2,20.3-0.3,29.9-3.6c8.3-2.8,10.4-11.8,11.6-19.6
		c1.1-7.7,0.8-15.6,0.8-23.4C388.4,201.5,388.5,195.8,388.3,190z M304.9,226.3c0-14.1,0-28.1,0-42.3c12,7,23.8,14,36,21.1
		C328.8,212.2,316.9,219.2,304.9,226.3z"/>
</g>
</svg>
