<svg width="196" height="162" viewBox="0 0 196 162" fill="none" xmlns="http://www.w3.org/2000/svg">
<g clip-path="url(#clip0_1052_81)">
<path d="M9.9002 61L18.2002 81.6C18.5002 82.5 18.7002 83.1 18.8002 83.8H18.9002C19.2002 82.5 19.5002 81.7 19.8002 80.9L27.9002 60.9H35.2002V63.3H31.7002L32.0002 85.2H35.2002V87.6H26.0002V85.2H28.8002L29.0002 65.7H28.9002C28.7002 66.5 28.5002 67.2 28.3002 67.8L20.2002 87.6H17.3002L9.4002 68.1C9.1002 67.5 8.9002 66.8 8.6002 65.9H8.5002V85.2H11.7002V87.6H2.7002V85.2H5.8002L6.0002 63.4H2.7002V61H9.9002Z" fill="#FEFEFE"/>
<path d="M54.4006 74.7C54.4006 74.9 54.2006 83.5 54.2006 85.3H57.0006V87.7H51.4006V87.4C51.4006 85.8 51.6006 84.5 51.8006 83.5H51.7006C50.5006 86.7 48.5006 88.2 45.2006 88.2C41.4006 88.2 39.1006 86.2 39.1006 82.6C39.1006 78.5 42.2006 76.6 50.8006 76.6H51.6006V75.3C51.6006 71.6 50.3006 70.1 47.1006 70.1C45.6006 70.1 43.9006 70.4 42.7006 70.9V73.9H39.9006V69.2C42.1006 68.3 44.4006 67.7 46.8006 67.7C52.1006 67.6 54.4006 69.8 54.4006 74.7ZM45.8006 85.7C49.1006 85.7 51.4006 83.3 51.4006 78.6H49.8006C42.8006 78.6 42.1006 80.6 42.1006 82.4C42.1006 84.3 43.6006 85.7 45.8006 85.7Z" fill="#FEFEFE"/>
<path d="M66.1 68H72.3V70.4H66.1L66 75.2C65.9 78.4 66 79.8 66 81C66 83 66.2 85.5 68.8 85.5C70.5 85.5 71.8 85.1 72.9 84.7L72.8 87.2C71.7 87.7 69.9 88.1 68.4 88.1C66 88.1 62.9 87.5 62.9 82.4C62.9 79.3 63.1 72.7 63.1 70.5H60V68H63L63.2 63.2L66.3 63L66.1 68Z" fill="#FEFEFE"/>
<path d="M89.3002 68L89.0002 70.8C88.4002 70.6 87.6002 70.5 86.9002 70.5C83.3002 70.5 81.1002 73.9 81.0002 77.8L80.8002 85.2H84.1002V87.6H75.0002V85.2H77.8002L78.0002 70.4H74.7002V68H81.0002V68.4C81.0002 70.4 80.7002 72.6 80.6002 74.1H80.7002C81.8002 69.1 84.1002 67.6 87.3002 67.6C87.5002 67.7 89.2002 67.9 89.3002 68Z" fill="#FEFEFE"/>
<path d="M97.2 68L97 85.2H100.1V87.6H90.8V85.2H93.9L94.1 70.4H90.5V68H97.2ZM99.2 57.1L101.2 58.8L94 64.7L92.1 63.1L99.2 57.1Z" fill="#FEFEFE"/>
<path d="M119.2 68.4999V73.5999H116.4V70.4999C115.6 70.1999 114.2 69.9999 113.1 69.9999C108.7 69.9999 106.3 72.9999 106.3 77.5999C106.3 81.9999 108.8 85.2999 113.7 85.2999C115.6 85.2999 117.2 84.7999 119 84.1999L118.8 86.8999C117.3 87.3999 115.3 87.8999 113.1 87.8999C106.5 87.8999 102.9 83.9999 102.9 77.5999C102.9 70.9999 107.3 67.2999 112.7 67.2999C115 67.5999 117.2 67.7999 119.2 68.4999Z" fill="#FEFEFE"/>
<path d="M128.5 68C128.5 70.2 128.3 76.5 128.3 79.3C128.3 83.4 129.3 85.5 132.6 85.5C136.4 85.5 138.4 83 138.4 76.8V70.5H135.3V68H141.6L141.4 85.2H144.1V87.6H138.3C138.3 86.5 138.4 85.4 138.5 84.9L138.8 83.2H138.7C137.6 86 134.9 88 132.1 88C127.6 88 125.2 86 125.2 79.7C125.2 78.4 125.2 75.3 125.4 70.3H122.2V68H128.5Z" fill="#FEFEFE"/>
<path d="M153.501 58.4L153.301 85.2H156.401V87.6H147.401V85.2H150.201L150.401 60.8H146.601V58.4H153.501V58.4Z" fill="#FEFEFE"/>
<path d="M175.401 74.7C175.401 74.9 175.201 83.5 175.201 85.3H178.001V87.7H172.401V87.4C172.401 85.8 172.601 84.5 172.801 83.5H172.701C171.501 86.7 169.501 88.2 166.201 88.2C162.401 88.2 160.101 86.2 160.101 82.6C160.101 78.5 163.201 76.6 171.801 76.6H172.601V75.3C172.601 71.6 171.301 70.1 168.101 70.1C166.601 70.1 164.901 70.4 163.701 70.9V73.9H160.901V69.2C163.101 68.3 165.401 67.7 167.801 67.7C173.101 67.6 175.401 69.8 175.401 74.7ZM166.801 85.7C170.101 85.7 172.401 83.3 172.401 78.6H170.801C163.801 78.6 163.101 80.6 163.101 82.4C163.101 84.3 164.601 85.7 166.801 85.7Z" fill="#FEFEFE"/>
<path d="M3.40039 152.3C9.80039 147.8 33.8004 129.5 33.8004 117.8C33.8004 111.8 29.0004 109.7 25.6004 109.7C19.6004 109.7 16.1004 114.1 15.5004 119.6H3.70039C3.70039 112.9 8.30039 100.1 26.0004 100.1C35.0004 100.1 46.0004 104.6 46.0004 117.2C46.0004 129 34.2004 139.9 20.0004 151.1V151.3C21.9004 151 24.2004 150.8 26.0004 150.8H47.7004V160.4H3.40039V152.3Z" fill="#FEFEFE"/>
<path d="M77.1 100.1C89.9 100.1 98.4 110.3 98.4 130.9C98.4 151.8 87.5 161.7 75.2 161.7C63.8 161.7 53.5 155.1 53.5 132.5C53.6 108 65 100.1 77.1 100.1ZM76.1 152.2C80.8 152.2 85.7 148 85.7 130.9C85.7 113 80.8 109.6 76.3 109.6C71.2 109.6 66.4 114.3 66.4 131.4C66.3 147 69.5 152.2 76.1 152.2Z" fill="#FEFEFE"/>
<path d="M102.901 152.3C109.301 147.8 133.301 129.5 133.301 117.8C133.301 111.8 128.501 109.7 125.101 109.7C119.101 109.7 115.601 114.1 115.001 119.6H103.201C103.201 112.9 107.801 100.1 125.501 100.1C134.501 100.1 145.501 104.6 145.501 117.2C145.501 129 133.701 139.9 119.501 151.1V151.3C121.401 151 123.701 150.8 125.501 150.8H147.201V160.4H102.801V152.3H102.901Z" fill="#FEFEFE"/>
<path d="M166.1 126.1C177 126.1 181.1 120.8 181.1 115.9C181.1 111.9 178 109.2 173.5 109.2C168.5 109.2 164.2 112.7 164.2 117.8H152.4C152.4 110 159.3 100.2 174.2 100.2C185.4 100.2 193.3 106 193.3 115.1C193.3 122.1 188.3 128.2 181.2 129.2V129.4C188.8 129.6 195.6 134.2 195.6 143.6C195.6 149.8 192.2 161.9 170.7 161.9C162.6 161.9 157.3 160.6 152.6 158.4V147.1C158.5 150.4 164.7 151.9 169.8 151.9C178.6 151.9 183.4 148.7 183.4 143.1C183.4 135.6 174.2 134.4 166.1 134.4V126.1V126.1Z" fill="#FEFEFE"/>
<path d="M41 0L41.8 0.3L74.6 11.3L82 13.8L74.6 16.3L67.2 18.8V32.3C67.2 34.3 66.2 36 64.2 37.6C62.9 38.6 61 39.5 58.5 40.4C53.6 42 47.7 42.9 40.9 42.9C34.1 42.9 28.3 42.1 23.3 40.4C20.8 39.5 18.9 38.6 17.6 37.6C15.6 36.1 14.6 34.3 14.6 32.3V18.7L9.3 17.1V38.1C11 39.2 11.9 40.7 11.9 42.7C11.9 44.1 11.4 45.4 10.3 46.4C9.3 47.4 8 48 6.6 48C5.2 48 3.9 47.5 2.9 46.4C1.9 45.4 1.3 44.1 1.3 42.7C1.3 40.7 2.2 39.2 3.9 38.1V15.1L0 13.8L7.4 11.3L40.2 0.3L41 0ZM41 5.6L16.4 13.8L41 22L65.6 13.8L41 5.6ZM20 20.5V32.1C20 32.3 20.3 32.6 20.8 33.1C21.9 34 23.3 34.7 25.1 35.2C29.4 36.6 34.7 37.3 41 37.3C47.3 37.3 52.6 36.6 56.9 35.2C58.6 34.7 60.1 33.9 61.2 33.1C61.7 32.7 62 32.3 62 32.1V20.5L41.8 27.2L41 27.6L40.2 27.3L20 20.5Z" fill="white"/>
</g>
<defs>
<clipPath id="clip0_1052_81">
<rect width="195.7" height="161.7" fill="white"/>
</clipPath>
</defs>
</svg>
