<svg width="98" height="51" viewBox="0 0 98 51" fill="none" xmlns="http://www.w3.org/2000/svg">
<g clip-path="url(#clip0)">
<path d="M44.6584 8.81022C46.3951 8.81022 47.7597 7.44525 47.7597 5.70803C47.7597 3.9708 46.3951 2.48175 44.6584 2.48175C42.9217 2.48175 41.5571 3.84671 41.5571 5.58394C41.5571 7.44525 42.9217 8.81022 44.6584 8.81022Z" fill="white"/>
<path d="M57.0633 27.0511C56.5671 27.0511 56.195 26.6788 56.195 26.1825V0H51.1089V27.4234C51.1089 29.6569 52.8456 31.3942 55.0785 31.3942H58.9241V27.0511H57.0633Z" fill="white"/>
<path d="M0 1.8613V8.56203H4.34177V6.8248H10.7924V27.0511H8.93165V31.3941H18.1114V27.0511H16.2506V6.8248H22.7013V8.56203H27.043V1.8613H0Z" fill="white"/>
<path d="M47.2631 27.0511V11.7883H36.3467V16.1314H42.1771V27.0511H36.3467V31.3942H49.2479V27.0511H47.2631Z" fill="white"/>
<path d="M22.7011 11.7883V27.0511H20.7163V31.3942H33.8657V27.0511H27.7872V16.1314H33.8657V11.7883L25.8024 11.9124L22.7011 11.7883Z" fill="white"/>
<path d="M83.9821 19.6058C83.9821 18.9854 84.2302 18.3649 84.4783 17.8686C84.7264 17.3722 85.2226 16.8759 85.5947 16.6277C85.9669 16.3795 86.5871 16.0073 87.2074 15.8832C87.8276 15.7591 88.4479 15.635 89.0681 15.635C90.4327 15.635 91.5492 16.0073 92.1694 16.7518C92.9137 17.4963 93.1618 18.489 93.1618 19.7299H83.9821V19.6058ZM97.0074 15.7591C96.5112 14.7664 95.7669 13.8978 94.8985 13.2774C94.0302 12.6569 93.1618 12.2847 92.0454 11.9124C91.053 11.6642 90.0606 11.5401 89.0681 11.5401C87.5795 11.5401 86.339 11.7883 85.0985 12.1606C83.858 12.5328 82.7416 13.1533 81.8732 14.0219C81.0049 14.8905 80.2606 15.8832 79.6403 17.1241C79.1441 18.3649 78.896 19.854 78.896 21.4671C78.896 22.0876 78.896 22.5839 79.02 23.0803C79.1441 23.9489 79.3922 24.8175 79.6403 25.6861C79.7643 26.0584 80.7568 28.416 83.2378 29.9051C84.9745 30.8978 87.3314 31.2701 90.5568 31.2701C93.7821 31.2701 95.3947 31.146 95.3947 31.146V27.0511C95.3947 27.0511 93.1618 27.0511 90.3087 27.0511C86.215 27.0511 84.8504 24.5693 84.6023 23.8248C84.4783 23.5766 84.4783 23.4525 84.3542 23.2044H97.7517C98.1238 21.3431 97.9998 17.6204 97.0074 15.7591Z" fill="white"/>
<path d="M77.0355 19.7299V13.4014V13.2774C77.0355 13.0292 76.9115 12.9051 76.7874 12.781C76.1672 12.5328 75.2988 12.2847 74.1824 11.9124C72.9419 11.5401 71.5773 11.416 70.2128 11.416C68.7242 11.416 67.2355 11.6642 65.995 12.0365C64.7545 12.5328 63.6381 13.1533 62.6457 14.0219C61.6533 14.8905 60.909 15.8832 60.4128 17.1241C59.9166 18.365 59.6685 19.7299 59.6685 21.3431C59.6685 22.8321 59.9166 24.1971 60.4128 25.4379C60.909 26.6788 61.4052 27.5474 62.2735 28.416C63.6381 29.9051 66.3672 30.8978 69.4685 31.0219H75.671V26.6788H70.833C68.8482 26.6788 66.8634 25.6861 66.2431 25.1898C65.7469 24.6934 65.3748 24.073 65.1267 23.4525C64.8786 22.708 64.7545 21.9635 64.7545 21.219C64.7545 20.2263 64.8786 19.3577 65.2507 18.7372C65.6229 17.9927 65.995 17.4963 66.6153 17C67.1115 16.5036 67.7318 16.1314 68.4761 16.0073C69.2204 15.7591 69.8406 15.635 70.5849 15.635C71.3292 15.635 72.1976 15.7591 72.9419 15.8832V19.3577H77.0355V19.7299Z" fill="white"/>
<path d="M15.6304 48.6423C15.6304 49.8832 14.8861 51 12.281 51C9.67594 51 8.93164 49.8832 8.93164 48.6423V43.4307C8.93164 42.1898 9.67594 41.073 12.281 41.073C14.8861 41.073 15.6304 42.1898 15.6304 43.4307V44.1752C15.6304 44.4234 15.5063 44.5475 15.2582 44.5475H14.0177C13.7696 44.5475 13.6456 44.4234 13.6456 44.1752V43.8029C13.6456 43.0584 13.1494 42.6861 12.157 42.6861C11.1646 42.6861 10.6684 43.0584 10.6684 43.8029V48.3942C10.6684 49.1387 11.1646 49.511 12.157 49.511C13.1494 49.511 13.6456 49.1387 13.6456 48.3942V47.8978C13.6456 47.6496 13.7696 47.5256 14.0177 47.5256H15.2582C15.5063 47.5256 15.6304 47.6496 15.6304 47.8978V48.6423Z" fill="white"/>
<path d="M22.8253 43.6788C22.8253 42.9343 22.2051 42.5621 21.3367 42.5621C20.3443 42.5621 19.8481 42.9343 19.8481 43.6788V48.3942C19.8481 49.1387 20.4684 49.511 21.3367 49.511C22.3291 49.511 22.8253 49.1387 22.8253 48.3942V43.6788ZM17.7393 43.4307C17.7393 42.1898 18.6076 41.073 21.2127 41.073C23.8177 41.073 24.6861 42.1898 24.6861 43.4307V48.7664C24.6861 50.0073 23.8177 51.1241 21.2127 51.1241C18.6076 51.1241 17.7393 50.0073 17.7393 48.7664V43.4307Z" fill="white"/>
<path d="M29.2758 49.2628H32.5011C32.7492 49.2628 32.8733 49.3869 32.8733 49.635V50.5037C32.8733 50.7518 32.7492 50.8759 32.5011 50.8759H27.6631C27.415 50.8759 27.415 50.7518 27.415 50.5037V41.4453C27.415 41.1971 27.5391 41.073 27.7872 41.073H29.0277C29.2758 41.073 29.3999 41.1971 29.3999 41.4453V49.2628H29.2758Z" fill="white"/>
<path d="M35.2305 50.8759C34.9824 50.8759 34.8584 50.7518 34.8584 50.5037V41.4453C34.8584 41.1971 34.9824 41.073 35.2305 41.073H40.1926C40.4407 41.073 40.5647 41.1971 40.5647 41.4453V42.3139C40.5647 42.562 40.4407 42.6861 40.1926 42.6861H36.8432V45.0438H39.9445C40.1926 45.0438 40.3166 45.1679 40.3166 45.4161V46.2847C40.3166 46.5329 40.1926 46.6569 39.9445 46.6569H36.8432V49.3869H40.3166C40.5647 49.3869 40.6888 49.511 40.6888 49.7591V50.6277C40.6888 50.8759 40.5647 51 40.3166 51H35.2305V50.8759Z" fill="white"/>
<path d="M49.248 45.7883C49.4961 45.7883 49.6201 45.9124 49.6201 46.1606V48.7664C49.6201 50.0073 48.8758 51.1241 46.2708 51.1241C43.6657 51.1241 42.9214 50.0073 42.9214 48.7664V43.4307C42.9214 42.1898 43.6657 41.073 46.2708 41.073C48.8758 41.073 49.6201 42.1898 49.6201 43.4307V44.0511C49.6201 44.2993 49.4961 44.4234 49.248 44.4234H48.0075C47.7594 44.4234 47.6353 44.2993 47.6353 44.0511V43.8029C47.6353 43.0584 47.1391 42.6861 46.1467 42.6861C45.1543 42.6861 44.6581 43.0584 44.6581 43.8029V48.3942C44.6581 49.1387 45.1543 49.511 46.1467 49.511C47.1391 49.511 47.6353 49.1387 47.6353 48.3942V47.4015H46.2708C46.0227 47.4015 45.8986 47.2774 45.8986 47.0292V46.1606C45.8986 45.9124 46.0227 45.7883 46.2708 45.7883H49.248Z" fill="white"/>
<path d="M53.9619 50.5037C53.9619 50.7518 53.8378 50.8759 53.5897 50.8759H52.3492C52.1011 50.8759 51.9771 50.7518 51.9771 50.5037V41.4453C51.9771 41.1971 52.1011 41.073 52.3492 41.073H53.5897C53.8378 41.073 53.9619 41.1971 53.9619 41.4453V50.5037Z" fill="white"/>
<path d="M61.5289 43.6788C61.5289 42.9343 60.9087 42.5621 60.0403 42.5621C59.0479 42.5621 58.5517 42.9343 58.5517 43.6788V48.3942C58.5517 49.1387 59.172 49.511 60.0403 49.511C61.0327 49.511 61.5289 49.1387 61.5289 48.3942V43.6788ZM56.5669 43.4307C56.5669 42.1898 57.4353 41.073 60.0403 41.073C62.6454 41.073 63.5137 42.1898 63.5137 43.4307V48.7664C63.5137 50.0073 62.6454 51.1241 60.0403 51.1241C57.4353 51.1241 56.5669 50.0073 56.5669 48.7664V43.4307Z" fill="white"/>
</g>
<defs>
<clipPath id="clip0">
<rect width="98" height="51" fill="white"/>
</clipPath>
</defs>
</svg>
