<svg width="151" height="151" viewBox="0 0 151 151" fill="none" xmlns="http://www.w3.org/2000/svg">
<g clip-path="url(#clip0)">
<path d="M75.2 150.4C116.732 150.4 150.4 116.732 150.4 75.2C150.4 33.6682 116.732 0 75.2 0C33.6682 0 0 33.6682 0 75.2C0 116.732 33.6682 150.4 75.2 150.4Z" fill="#5EE2C5"/>
<path d="M68.2 106.5H45.7C40.9 106.5 37.1 102.6 37.1 97.9V96.8H113.4V97.9C113.4 102.7 109.5 106.5 104.8 106.5H82.2" fill="#C193DC"/>
<path d="M109.8 49.7001C109.8 46.5001 107.2 43.8 103.9 43.8H46.5C43.3 43.8 40.6 46.4001 40.6 49.7001V51.9001H109.7V49.7001H109.8Z" fill="#CCF5FC"/>
<path d="M109.8 51.9H40.7V96.8H109.8V51.9Z" fill="#FAF7F5"/>
<path d="M83.9 62.5C88.7 67.3 88.7 75.1 83.9 79.8C79.1 84.6 71.3 84.6 66.6 79.8C61.8 75 61.8 67.2 66.6 62.5C68.9 60.2 72 58.9 75.3 58.9C78.5 58.9 81.6 60.2 83.9 62.5Z" fill="#FF7D97"/>
<path d="M79.9 69.8001L74.5 66.6001C73.5 66.0001 72.2 66.7001 72.2 67.9001V74.3001C72.2 75.5001 73.5 76.2001 74.5 75.6001L79.9 72.4001C80.9 71.9001 80.9 70.4001 79.9 69.8001Z" fill="#FAF7F5"/>
<path d="M93.3 90.9001H57.1C56.2 90.9001 55.5 90.2001 55.5 89.3001C55.5 88.4001 56.2 87.7001 57.1 87.7001H93.3C94.2 87.7001 94.9 88.4001 94.9 89.3001C94.9 90.2001 94.2 90.9001 93.3 90.9001Z" fill="black"/>
<path d="M80.7 68.5001L75.3 65.3001C74.3 64.7001 73.2 64.7001 72.2 65.3001C71.2 65.9001 70.6 66.9001 70.6 68.0001V74.4001C70.6 75.5001 71.2 76.5001 72.2 77.1001C72.7 77.4001 73.2 77.5001 73.7 77.5001C74.2 77.5001 74.8 77.4001 75.3 77.1001L80.7 73.9001C81.7 73.3001 82.2 72.3001 82.2 71.2001C82.2 70.1001 81.7 69.1001 80.7 68.5001ZM73.7 74.3001V68.0001L79.1 71.2001L73.7 74.3001Z" fill="black"/>
<path d="M75.2 85C67.6 85 61.4 78.8 61.4 71.2C61.4 63.6 67.6 57.4 75.2 57.4C82.8 57.4 89 63.6 89 71.2C89 78.8 82.8 85 75.2 85ZM75.2 60.5C69.3 60.5 64.5 65.3 64.5 71.2C64.5 77.1 69.3 81.9 75.2 81.9C81.1 81.9 85.9 77.1 85.9 71.2C85.9 65.3 81.1 60.5 75.2 60.5Z" fill="black"/>
<path d="M113.3 95.3001H111.3V49.7001C111.3 45.6001 108 42.3 103.9 42.3H46.5C42.4 42.3 39.1 45.6001 39.1 49.7001V95.3001H37.1C36.2 95.3001 35.5 96 35.5 96.9001V98C35.5 103.6 40.1 108.2 45.7 108.2H68.2C69.1 108.2 69.8 107.5 69.8 106.6C69.8 105.7 69.1 105 68.2 105H45.7C42 105 38.9 102.1 38.6 98.4001H111.7C111.5 102.1 108.4 105 104.6 105H82.2C81.3 105 80.6 105.7 80.6 106.6C80.6 107.5 81.3 108.2 82.2 108.2H104.7C110.3 108.2 114.9 103.6 114.9 98V96.9001C114.9 96 114.2 95.3001 113.3 95.3001ZM42.2 49.7001C42.2 47.3001 44.1 45.4001 46.5 45.4001H103.9C106.3 45.4001 108.2 47.3001 108.2 49.7001V50.3H42.2V49.7001ZM42.2 95.3001V53.5H108.2V95.3001H42.2Z" fill="black"/>
<path d="M75.2 108.1C74.5 108.1 73.9 107.7 73.7 107C73.5 106.4 73.7 105.7 74.1 105.3C74.6 104.9 75.4 104.8 75.9 105.1C76.4 105.4 76.7 106.1 76.6 106.7C76.6 107.5 76 108.1 75.2 108.1Z" fill="black"/>
</g>
<defs>
<clipPath id="clip0">
<rect width="150.4" height="150.4" fill="white"/>
</clipPath>
</defs>
</svg>
