<svg width="334" height="214" viewBox="0 0 334 214" fill="none" xmlns="http://www.w3.org/2000/svg">
<g clip-path="url(#clip0)">
<path d="M298.008 214C282.475 214 271.228 200.872 270.692 200.231C267.693 196.709 254.945 191.159 250.339 189.345C250.018 189.238 244.448 186.89 242.734 182.727C241.984 181.019 242.091 179.205 242.841 177.497C245.305 171.84 250.339 171.093 252.589 171.52H252.803C253.981 171.84 262.23 174.402 267.8 177.07L252.375 132.029C252.267 131.815 250.125 126.052 252.267 121.462C253.232 119.434 254.945 117.94 257.302 117.086C257.945 116.766 260.409 115.805 263.194 116.873C266.193 118.047 268.657 121.142 270.264 126.052L275.62 141.528C276.477 139.82 277.976 138.326 280.654 137.472C285.046 135.978 288.26 137.793 290.295 139.927C291.045 137.899 292.652 135.124 296.401 134.27C300.686 133.203 303.685 135.444 305.827 138.006C305.935 137.793 306.042 137.472 306.149 137.259C306.899 135.765 308.184 134.591 309.898 134.057H310.005C314.933 132.349 318.682 135.871 319.967 138.006L320.074 138.113C320.61 139.287 333.572 166.29 334.107 179.205C334.964 203.22 324.038 206.956 307.327 212.612C304.006 213.573 300.9 214 298.008 214ZM251.411 174.615C250.125 174.615 247.34 175.042 245.733 178.778C245.305 179.739 245.305 180.593 245.626 181.553C246.59 184.008 250.125 185.929 251.411 186.463C253.124 187.103 268.978 193.4 273.049 198.203C273.691 198.951 287.938 215.601 305.935 209.517C322.324 203.967 331.322 200.872 330.572 179.205C330.144 167.358 317.718 141.315 316.968 139.5C316.647 138.967 314.29 135.765 310.862 136.939H310.755C309.898 137.259 309.255 137.793 308.827 138.54C308.398 139.394 308.398 140.568 308.72 141.742L312.04 151.348C312.362 152.201 311.933 153.055 311.076 153.376L310.648 153.696C310.219 153.802 309.791 153.802 309.362 153.696C308.934 153.482 308.613 153.162 308.505 152.735L305.827 144.837C305.827 144.73 302.721 135.978 296.937 137.366C294.366 138.006 293.294 140.034 292.866 141.635C292.759 142.169 292.759 142.809 292.973 143.343L297.472 156.471C297.579 156.898 297.579 157.325 297.365 157.752C297.151 158.179 296.829 158.392 296.401 158.605L295.865 158.819C295.008 159.032 294.151 158.605 293.83 157.858L288.795 143.983C288.474 143.236 286.117 139.073 281.404 140.674C276.477 142.275 277.869 146.972 278.083 147.505L282.69 161.06C282.797 161.487 282.797 161.914 282.582 162.341C282.368 162.768 282.047 162.982 281.618 163.195L280.976 163.408C280.119 163.622 279.262 163.195 278.94 162.341L267.05 127.012C265.765 123.17 263.944 120.715 261.908 119.861C260.087 119.114 258.588 119.861 258.48 119.861L258.266 119.968C256.767 120.502 255.695 121.356 255.053 122.636C253.553 125.945 255.267 130.641 255.267 130.748L272.192 180.059C272.406 180.699 272.192 181.553 271.549 181.873C270.906 182.3 270.157 182.194 269.621 181.767C266.622 179.312 256.017 175.683 251.946 174.509C251.839 174.615 251.732 174.615 251.411 174.615Z" fill="black"/>
<path d="M297.472 194.681C297.365 194.681 297.258 194.681 297.151 194.681C296.615 194.575 296.08 194.148 295.972 193.614L287.617 169.172C287.403 168.638 287.51 167.998 287.938 167.571C288.367 167.144 288.903 166.931 289.438 167.037L314.826 172.054C315.361 172.161 315.897 172.588 316.004 173.121C316.218 173.655 316.111 174.295 315.682 174.722L298.65 194.148C298.436 194.468 298.008 194.681 297.472 194.681ZM291.581 170.773L298.115 189.878L311.505 174.616L291.581 170.773Z" fill="black"/>
<path d="M215.418 30.8459L162.287 32.5536L164.108 84.7461H176.855V104.812H164.75L164.858 108.761L217.989 107.587V102.357C212.74 100.009 208.348 96.9137 204.92 93.0713L209.634 87.9481L184.889 88.9087L184.353 79.4095L212.419 78.7691L211.776 65.8544C211.669 65.7476 211.562 65.6409 211.455 65.4274C210.062 63.3995 208.991 61.1581 208.348 58.81L183.068 59.3437L182.64 51.4454L207.706 51.1252C208.027 47.2828 209.312 43.7606 211.562 40.5586C212.74 38.8509 214.026 37.3566 215.632 36.0758L215.418 30.8459Z" fill="#E3007E"/>
<path d="M59.2373 24.6554L37.9205 30.6324C39.313 35.7556 40.3842 41.0923 41.2412 46.6424C42.0981 52.2993 42.5266 56.4619 42.5266 59.1302C42.5266 75.2469 39.2059 83.2519 32.5645 83.2519C25.8159 83.2519 22.3881 75.0334 22.3881 58.5965L22.7094 55.7147C23.1379 50.0579 23.5664 45.3616 23.9949 41.626C24.4233 37.8903 24.9589 34.4748 25.6017 31.3796L4.07056 26.2564C1.39256 36.0758 0 46.5357 0 57.5292C0 66.9217 1.28544 75.1402 3.96344 81.9711C6.53432 88.9088 10.2835 94.1387 15.211 97.8743C20.1386 101.503 25.923 103.424 32.5645 103.424C39.0988 103.424 44.669 101.61 49.4894 97.9811C54.3098 94.3521 57.9519 89.229 60.6299 82.6115C63.2008 75.994 64.5933 68.2025 64.5933 59.2369C64.5933 55.5013 64.4862 51.8723 64.1649 48.4569L49.4894 48.7771L48.0969 28.818L60.5228 28.4978C60.0943 27.217 59.6658 25.9362 59.2373 24.6554ZM30.5292 13.1282L21.5311 25.9362L35.5638 27.3237L46.1687 17.7177L30.5292 13.1282Z" fill="#95D82E"/>
<path d="M111.191 27.217L60.4156 28.391C62.2367 34.4748 63.5221 41.0923 64.0577 48.3501L70.3778 48.2434L70.592 105.559L90.5164 104.705L90.3021 47.8165L106.477 47.4963L106.584 28.4978H111.298L111.191 27.217Z" fill="#0AACEF"/>
<path d="M60.5228 28.4978L48.0969 28.818L49.4894 48.8838L64.1649 48.5636C63.5221 41.199 62.3438 34.5816 60.5228 28.4978Z" fill="#06922B"/>
<path d="M126.187 28.4978H111.298L112.797 47.2828L106.477 47.4963L106.049 104.599H125.545L126.187 28.4978Z" fill="#FCEA00"/>
<path d="M111.298 28.4978H106.691L106.477 47.4963L112.797 47.2828L111.298 28.4978Z" fill="#0A9E00"/>
<path d="M149.861 28.4978H129.722V104.812H164.858L164.215 84.7462H149.861V28.4978Z" fill="#FC5022"/>
<path d="M176.962 84.7462H164.215L164.858 104.812H176.962V84.7462Z" fill="#E00011"/>
<path d="M236.842 28.391C231.593 28.391 226.773 29.4584 222.381 31.593C219.917 32.7671 217.775 34.1546 215.847 35.8624L216.918 50.9117L208.027 51.0185C207.92 51.6589 207.92 52.406 207.92 53.0464C207.92 54.9676 208.134 56.8888 208.67 58.7033L211.669 58.5965L211.99 65.6409C214.454 69.0564 217.775 71.8314 221.738 73.8594C225.916 75.8873 230.522 76.9546 235.45 76.9546C238.021 76.9546 240.056 77.2748 241.663 77.8085C243.269 78.4489 244.126 79.4095 244.126 80.6903C244.126 82.0778 243.269 83.1452 241.663 84.2125C239.949 85.1731 237.806 85.7068 235.128 85.7068C232.129 85.7068 229.237 85.0664 226.344 83.6788C223.452 82.2913 220.881 80.3701 218.739 78.022L209.848 87.7347L218.203 87.4145V102.144C218.31 102.144 218.418 102.25 218.525 102.25C223.988 104.599 229.451 105.773 234.914 105.773C240.484 105.773 245.626 104.599 250.446 102.144C255.16 99.6888 259.016 96.4868 261.908 92.3242C264.801 88.1616 266.193 83.5721 266.193 78.5556C266.193 73.8594 265.015 69.9102 262.551 66.6015C260.087 63.2928 256.874 60.8379 252.589 59.2369C248.411 57.5292 243.591 56.7821 238.235 56.7821C235.235 56.7821 232.772 56.4619 230.629 55.8215C228.487 55.1811 227.416 54.2205 227.416 52.9397C227.416 51.7656 228.273 50.6983 230.094 49.8444C231.915 48.9905 234.057 48.5636 236.521 48.5636C242.198 48.5636 248.09 50.9117 254.41 55.5013L265.765 40.1317C261.908 36.2893 257.516 33.4075 252.482 31.3796C247.233 29.4584 242.091 28.391 236.842 28.391Z" fill="#0AACEF"/>
<path d="M218.096 87.4145L209.741 87.7347L205.028 92.8579C208.455 96.7003 212.74 99.7955 218.096 102.144V87.4145ZM211.562 58.5965L208.563 58.7033C209.205 61.0514 210.169 63.2928 211.669 65.3207C211.776 65.4275 211.883 65.5342 211.99 65.7477L211.562 58.5965ZM215.847 35.8624C214.347 37.2499 212.954 38.7442 211.776 40.3452C209.527 43.5472 208.241 47.0693 207.92 50.9117L216.811 50.805L215.847 35.8624Z" fill="#090076"/>
<path d="M83.3393 190.199L26.0301 190.305L24.3162 173.121C29.0295 171.093 33.957 168.105 39.313 164.262C44.5619 160.42 49.0609 156.364 52.703 152.095C56.3451 147.825 58.1661 143.983 58.1661 140.674C58.1661 138.646 57.5234 136.832 56.3451 135.231C55.1668 133.63 53.6671 132.776 51.8461 132.776C49.5965 132.776 47.6684 133.843 46.0616 135.978C44.3477 138.113 43.3836 140.568 43.1693 143.343L24.7447 140.141C24.9589 135.017 26.3515 130.535 28.8153 126.479C31.279 122.423 34.5997 119.221 38.7774 116.873C42.9551 114.525 47.6684 113.351 52.9173 113.351C58.059 113.351 62.558 114.525 66.5215 116.766C70.3778 119.007 73.3772 122.209 75.5196 126.265C77.662 130.321 78.7332 134.911 78.7332 140.141C78.7332 150.387 73.1629 161.06 62.0225 172.374L81.4112 172.054L83.3393 190.199Z" fill="#FC5022"/>
<path d="M96.6222 185.502C91.2662 181.98 86.9814 177.177 83.7678 171.2C80.5542 165.223 78.9474 158.926 78.9474 152.095C78.9474 145.477 80.5542 139.18 83.7678 133.203C86.9814 127.226 91.2662 122.423 96.6222 118.794C101.978 115.165 107.656 113.351 113.654 113.351C119.546 113.351 125.116 115.165 130.151 118.687C135.292 122.209 139.363 127.012 142.362 132.883C145.362 138.86 146.861 145.157 146.861 151.988C146.861 159.032 145.362 165.543 142.362 171.52C139.363 177.497 135.292 182.193 130.258 185.609C125.116 189.024 119.653 190.732 113.547 190.732C107.656 190.839 101.978 189.024 96.6222 185.502ZM122.224 164.156C124.366 161.167 125.437 157.111 125.437 152.095C125.437 146.438 124.366 141.955 122.224 138.646C120.081 135.338 117.296 133.737 113.761 133.737C111.19 133.737 108.941 134.484 106.906 136.085C104.87 137.686 103.371 139.82 102.192 142.596C101.121 145.371 100.586 148.573 100.586 151.988C100.586 157.111 101.764 161.06 104.121 164.049C106.477 167.037 109.691 168.532 113.761 168.532C117.189 168.638 120.081 167.144 122.224 164.156Z" fill="#E3007E"/>
<path d="M205.563 190.199L148.254 190.305L146.54 173.121C151.253 171.093 156.181 168.105 161.537 164.262C166.786 160.42 171.285 156.364 174.927 152.095C178.569 147.825 180.39 143.983 180.39 140.674C180.39 138.646 179.747 136.832 178.569 135.231C177.391 133.63 175.891 132.776 174.07 132.776C171.82 132.776 169.892 133.843 168.285 135.978C166.572 138.113 165.607 140.568 165.393 143.343L146.969 140.141C147.183 135.017 148.575 130.535 151.039 126.479C153.503 122.423 156.824 119.221 161.001 116.873C165.179 114.525 169.892 113.351 175.141 113.351C180.283 113.351 184.782 114.525 188.745 116.766C192.602 119.007 195.601 122.209 197.743 126.265C199.886 130.321 200.957 134.911 200.957 140.141C200.957 150.387 195.387 161.06 184.246 172.374L203.635 172.054L205.563 190.199Z" fill="#0AACEF"/>
<path d="M224.095 113.991L238.342 115.485V190.092H216.382V134.911H202.135V113.991H224.095Z" fill="#95D82E"/>
<path d="M60.6299 0.10675L66.5215 15.5831L72.306 0.10675H75.5196L67.8069 19.4255H65.2361L57.4163 0.10675H60.6299Z" fill="black"/>
<path d="M81.9468 0.10675H84.6248L92.2303 19.4255H89.0167L86.9814 14.1955H79.483L77.4477 19.4255H74.2341L81.9468 0.10675ZM86.4458 11.9541L83.3393 3.62895L80.1257 11.9541H86.4458Z" fill="black"/>
<path d="M92.7659 9.60598C92.7659 8.43192 92.9801 7.25786 93.4086 6.19052C93.8371 5.01646 94.4798 4.05586 95.2296 3.09526C96.0866 2.13466 97.0507 1.49426 98.229 0.853865C99.3002 0.3202 100.586 0 102.085 0C103.799 0 105.406 0.426933 106.584 1.17406C107.763 1.9212 108.834 2.98853 109.369 4.26933L107.12 5.87032C106.799 5.33666 106.477 4.80299 106.156 4.37606C105.727 3.94913 105.406 3.62893 104.87 3.41546C104.335 3.202 103.906 2.98853 103.371 2.8818C102.835 2.77506 102.407 2.77506 101.978 2.77506C100.907 2.77506 100.05 2.98853 99.3002 3.41546C98.5503 3.84239 97.9076 4.37606 97.372 5.01646C96.8364 5.65686 96.5151 6.40399 96.1937 7.25786C95.9795 8.11172 95.7652 8.96559 95.7652 9.71272C95.7652 10.6733 95.8724 11.5272 96.1937 12.381C96.5151 13.2349 96.9436 13.982 97.4792 14.6224C98.0148 15.2628 98.6575 15.7965 99.4073 16.2234C100.157 16.6504 101.014 16.7571 101.871 16.7571C102.3 16.7571 102.835 16.6504 103.371 16.5436C103.906 16.4369 104.335 16.2234 104.763 16.01C105.192 15.7965 105.62 15.3696 106.049 15.0494C106.477 14.6224 106.799 14.1955 107.013 13.6618L109.584 15.0494C109.262 15.7965 108.834 16.4369 108.298 16.9706C107.763 17.5042 107.12 18.0379 106.37 18.3581C105.62 18.785 104.87 18.9985 104.121 19.212C103.371 19.4254 102.514 19.5322 101.764 19.5322C100.371 19.5322 99.1931 19.212 98.0148 18.6783C96.8364 18.1446 95.8724 17.2908 95.1225 16.4369C94.3727 15.583 93.6228 14.409 93.1944 13.2349C92.9801 12.0608 92.7659 10.8868 92.7659 9.60598Z" fill="black"/>
<path d="M118.046 0.10675H120.724L128.33 19.4255H125.116L123.081 14.1955H115.582L113.547 19.4255H110.334L118.046 0.10675ZM122.438 11.9541L119.332 3.62895L116.118 11.9541H122.438Z" fill="black"/>
<path d="M128.758 9.60598C128.758 8.43192 128.972 7.25786 129.401 6.19052C129.829 5.01646 130.472 4.05586 131.222 3.09526C132.079 2.13466 133.043 1.49426 134.221 0.853865C135.4 0.3202 136.685 0 138.185 0C139.899 0 141.505 0.426933 142.684 1.17406C143.969 1.9212 144.933 2.98853 145.469 4.26933L143.112 5.87032C142.791 5.33666 142.47 4.80299 142.148 4.37606C141.72 3.94913 141.398 3.62893 140.863 3.41546C140.434 3.202 139.899 2.98853 139.47 2.8818C139.042 2.77506 138.506 2.77506 138.078 2.77506C137.006 2.77506 136.149 2.98853 135.4 3.41546C134.65 3.84239 134.007 4.37606 133.471 5.01646C132.936 5.65686 132.615 6.40399 132.293 7.25786C132.079 8.11172 131.865 8.96559 131.865 9.71272C131.865 10.6733 131.972 11.5272 132.293 12.381C132.615 13.2349 133.043 13.982 133.579 14.6224C134.114 15.2628 134.757 15.7965 135.507 16.2234C136.257 16.6504 137.114 16.7571 137.971 16.7571C138.399 16.7571 138.935 16.6504 139.47 16.5436C140.006 16.4369 140.434 16.2234 140.863 16.01C141.291 15.7965 141.72 15.3696 142.148 15.0494C142.577 14.6224 142.898 14.1955 143.112 13.6618L145.683 15.0494C145.362 15.7965 144.933 16.4369 144.398 16.9706C143.862 17.5042 143.219 18.0379 142.47 18.3581C141.72 18.785 140.97 18.9985 140.22 19.212C139.47 19.4254 138.613 19.5322 137.863 19.5322C136.471 19.5322 135.292 19.212 134.114 18.6783C132.936 18.1446 131.972 17.2908 131.222 16.4369C130.472 15.583 129.722 14.409 129.294 13.2349C129.08 12.0608 128.758 10.8868 128.758 9.60598Z" fill="black"/>
<path d="M151.789 0.10675H148.683V19.4255H151.789V0.10675Z" fill="black"/>
<path d="M164.108 19.5322C162.715 19.5322 161.43 19.212 160.359 18.6783C159.18 18.1446 158.216 17.3975 157.466 16.4369C156.609 15.4763 155.967 14.5157 155.538 13.3417C155.11 12.1676 154.895 10.9935 154.895 9.71273C154.895 8.43193 155.11 7.15113 155.645 5.97707C156.074 4.803 156.717 3.73567 157.573 2.88181C158.43 2.02794 159.394 1.28081 160.466 0.747145C161.644 0.21348 162.822 -0.10672 164.215 -0.10672C165.607 -0.10672 166.893 0.21348 167.964 0.747145C169.142 1.28081 170.106 2.02794 170.856 2.98854C171.713 3.94914 172.249 4.90974 172.784 6.0838C173.213 7.25787 173.427 8.43193 173.427 9.606C173.427 10.8868 173.213 12.1676 172.784 13.3417C172.356 14.5157 171.713 15.5831 170.856 16.4369C169.999 17.2908 169.035 18.0379 167.857 18.5716C166.679 19.1052 165.5 19.5322 164.108 19.5322ZM158.002 9.81946C158.002 10.6733 158.109 11.6339 158.43 12.4878C158.752 13.3417 159.18 14.0888 159.716 14.7292C160.251 15.3696 160.894 15.9033 161.644 16.3302C162.394 16.7571 163.251 16.8639 164.215 16.8639C165.179 16.8639 166.036 16.6504 166.786 16.2235C167.536 15.7965 168.178 15.2629 168.714 14.6225C169.25 13.9821 169.678 13.2349 169.892 12.3811C170.214 11.5272 170.321 10.6733 170.321 9.81946C170.321 8.85887 170.214 8.005 169.892 7.15113C169.571 6.29727 169.142 5.55014 168.607 4.90974C168.071 4.26934 167.428 3.73567 166.679 3.30874C165.929 2.88181 165.072 2.77507 164.108 2.77507C163.144 2.77507 162.287 2.98854 161.537 3.41547C160.787 3.84241 160.144 4.37607 159.609 5.01647C159.073 5.65687 158.645 6.404 158.43 7.25787C158.109 8.005 158.002 8.85887 158.002 9.81946Z" fill="black"/>
<path d="M179.64 5.87034V19.4255H176.641V0.10675H178.997L190.031 14.0888V0.213484H193.137V19.4255H190.566L179.64 5.87034Z" fill="black"/>
<path d="M210.812 16.7571V19.4255H197.529V0.10675H210.491V2.77508H200.529V8.3252H209.205V10.8868H200.529V16.7571H210.812Z" fill="black"/>
<path d="M224.952 4.69627C224.738 4.48281 224.523 4.26934 224.202 4.05587C223.881 3.84241 223.452 3.62894 223.024 3.41547C222.595 3.20201 222.06 3.09527 221.524 2.88181C220.988 2.77508 220.453 2.66834 219.81 2.66834C218.525 2.66834 217.561 2.88181 216.918 3.41547C216.275 3.84241 215.954 4.58954 215.954 5.33667C215.954 5.7636 216.061 6.19054 216.275 6.51074C216.489 6.83094 216.811 7.0444 217.132 7.25787C217.454 7.47133 217.989 7.6848 218.632 7.89827C219.275 8.11173 219.917 8.21847 220.774 8.43193C221.738 8.6454 222.595 8.9656 223.452 9.17907C224.202 9.49926 224.952 9.81946 225.488 10.2464C226.023 10.6733 226.452 11.207 226.773 11.7407C227.094 12.3811 227.201 13.1282 227.201 13.9821C227.201 14.9427 226.987 15.7965 226.666 16.5437C226.344 17.2908 225.809 17.8245 225.166 18.2514C224.523 18.6783 223.774 18.9985 222.917 19.212C222.06 19.4254 221.096 19.5322 220.132 19.5322C218.632 19.5322 217.239 19.3187 215.847 18.8918C214.454 18.4648 213.276 17.8244 212.098 16.9706L213.49 14.409C213.704 14.6225 214.026 14.9427 214.561 15.1561C214.99 15.4763 215.525 15.6898 216.168 16.01C216.811 16.2235 217.346 16.4369 218.096 16.6504C218.739 16.8639 219.489 16.8639 220.239 16.8639C221.417 16.8639 222.381 16.6504 223.024 16.2235C223.666 15.7965 223.988 15.1561 223.988 14.409C223.988 13.8753 223.881 13.5551 223.666 13.2349C223.452 12.9147 223.024 12.5945 222.595 12.3811C222.167 12.1676 221.631 11.9541 220.881 11.7407C220.239 11.5272 219.489 11.3137 218.632 11.1003C217.668 10.8868 216.811 10.5666 216.061 10.2464C215.311 9.9262 214.776 9.606 214.24 9.17907C213.811 8.75213 213.383 8.3252 213.169 7.79153C212.954 7.25787 212.847 6.61747 212.847 5.87034C212.847 4.90974 213.062 4.05587 213.383 3.30874C213.704 2.56161 214.24 1.92121 214.883 1.49428C215.525 0.960612 216.275 0.640412 217.132 0.320213C217.989 0.106746 218.953 -0.10672 219.917 -0.10672C221.203 -0.10672 222.488 0.106746 223.559 0.533679C224.631 0.960612 225.595 1.49428 226.452 2.13468L224.952 4.69627Z" fill="black"/>
</g>
<defs>
<clipPath id="clip0">
<rect width="334" height="214" fill="white"/>
</clipPath>
</defs>
</svg>
