<?xml version="1.0" encoding="utf-8"?>
<!-- Generator: Adobe Illustrator 22.0.1, SVG Export Plug-In . SVG Version: 6.00 Build 0)  -->
<svg version="1.1" id="Capa_1" xmlns="http://www.w3.org/2000/svg" xmlns:xlink="http://www.w3.org/1999/xlink" x="0px" y="0px"
	 viewBox="0 0 439.9 497.5" style="enable-background:new 0 0 439.9 497.5;" xml:space="preserve">
<style type="text/css">
	.st0{fill:#EF2235;}
	.st1{fill:#DB742F;}
	.st2{fill:#FD9256;}
	.st3{fill:#5D6C78;}
	.st4{fill:#FF9B2D;}
	.st5{fill:#FFA644;}
	.st6{fill:#ECEEED;}
	.st7{fill:#D2D2D2;}
	.st8{fill:#FFBBA2;}
	.st9{fill:#F28A75;}
	.st10{fill:#450C00;}
	.st11{fill:#F6AE97;}
	.st12{fill:#F0D9C7;}
	.st13{fill:#FFFFFF;}
	.st14{fill:#482B2D;}
	.st15{fill:#915B42;}
	.st16{fill:#FFF6FF;}
	.st17{fill:#3E4954;}
	.st18{fill:#FFAD91;}
	.st19{fill:#626D79;}
	.st20{fill:#C91B18;}
	.st21{fill:#EC2B22;}
	.st22{fill:#F1F1FC;}
	.st23{fill:#D4D4D4;}
	.st24{fill:#5CC114;}
	.st25{fill:#FFA646;}
	.st26{fill:#FF5A51;}
	.st27{fill:#FF706C;}
	.st28{fill:#C6EEF9;}
	.st29{fill:#ADEEED;}
	.st30{fill:#BE7967;}
	.st31{fill:#A96B58;}
</style>
<g>
	<path class="st0" d="M408.9,475.6c0-8.2-84.4-14.9-188.5-14.9s-188.5,6.7-188.5,14.9c0,8.2,84.4,14.9,188.5,14.9
		S408.9,483.9,408.9,475.6z"/>
	<path class="st0" d="M309.8,471.1c0,10.5-43.2,19-96.6,19c-53.3,0-96.6-8.5-96.6-19c0-10.5,43.2-19,96.6-19
		C266.5,452.1,309.8,460.6,309.8,471.1z"/>
	<polygon class="st1" points="226.5,440.7 194.5,440.7 201.7,284.3 218,284.3 	"/>
	<path class="st2" d="M206,423.2L206,423.2c-3.8,0-6.9-3.2-6.8-7l3.8-115.3c0.1-2.6,2.2-4.6,4.8-4.6c2.6,0,4.7,2,4.8,4.6l4.2,111.2
		C217,418.1,212.1,423.2,206,423.2z"/>
	<path class="st1" d="M264.5,439.9H158.3c-9.4,0-16.4,6.5-14,15.6c0,0.1,0.1,1.5,0.1,1.6l10.1-0.3c0,0,2-8.2,8.7-8.2h96.5
		c6.7,0,8.7,8.2,8.7,8.2l10.1,1.5c0.1-0.4,0.2-0.8,0.3-1.3C280.6,448.2,273.6,439.9,264.5,439.9z"/>
	<rect x="136.9" y="450.4" class="st3" width="22.6" height="7.9"/>
	<rect x="263.2" y="450.4" class="st3" width="22.6" height="7.9"/>
	<path class="st3" d="M158.3,466.1c0,5.3-4.3,9.6-9.6,9.6c-5.3,0-9.6-4.3-9.6-9.6s4.3-9.6,9.6-9.6
		C154,456.5,158.3,460.8,158.3,466.1z"/>
	<circle class="st3" cx="274" cy="466.1" r="9.6"/>
	<path class="st4" d="M254.8,303.2H154.3c-13.9,0-25.1-11.3-25.1-25.1V121.9c0-13.9,11.3-25.1,25.1-25.1h100.5
		c13.9,0,25.1,11.3,25.1,25.1v156.2C280,292,268.7,303.2,254.8,303.2z"/>
	<path class="st5" d="M236.5,289.9h-73c-13.9,0-25.1-11.3-25.1-25.1V135.2c0-13.9,11.3-25.1,25.1-25.1h73
		c13.9,0,25.1,11.3,25.1,25.1v129.5C261.6,278.6,250.4,289.9,236.5,289.9z"/>
	<path class="st6" d="M213.8,229.6h-27.7c-11,0-20.1-8.6-20.7-19.6l-3.8-71.1c-0.6-11.9,8.8-21.9,20.7-21.9h36.2
		c12,0,21.5,10.1,20.7,22.1l-4.6,71.1C233.8,221.1,224.8,229.6,213.8,229.6z"/>
	<path class="st6" d="M128.9,214.8L128.9,214.8c-6.3-3-9.1-10.6-6.1-17l34.8-73.6c3-6.3,10.6-9.1,17-6.1c6.3,3,9.1,10.6,6.1,17
		l-34.8,73.6C142.9,215.1,135.3,217.8,128.9,214.8z"/>
	<path class="st6" d="M259.3,216.2l0.3,3.6c-6.7,2-13.9-1.8-15.9-8.5l-23.8-77.9c-1.5-4.9-4.6-16.3,0.3-16.4
		c4.8-0.1,9.4-0.1,9.4-0.1c6.5,0,12.7,2.3,14.7,9l23.8,77.9C270.1,210.6,266,214.1,259.3,216.2z"/>
	<path class="st6" d="M227.6,173.3h-55.1c-11.3,0-19.2-11.2-15.4-21.8l4.5-12.6h77l4.5,12.6C246.8,162.1,238.9,173.3,227.6,173.3z"
		/>
	<path class="st7" d="M234.5,210.1c1-13.4,1.9-26.8,2.9-40.1c0,0,6.6-5.2,6.4-10.8c-9.6,3.6-25.3,8-44.9,7.9
		c-18.5-0.2-33.2-4.4-42.6-7.9c0,0.5,0,1.4,0.2,2.5c0.3,1.6,0.9,2.9,1.3,3.5c0,0,0.1,0.2,0.2,0.4c1.2,1.8,5,5.6,6.2,6.8
		c5.2,2.1,13.1,4.7,22.9,5.5c6.1,0.5,9.7,0,12.2,0C207.5,177.9,219.2,183.8,234.5,210.1z"/>
	<polygon class="st6" points="182.2,117 170.1,117 176.2,127.5 	"/>
	<path class="st8" d="M205.8,131.2h-9.6c-5.4,0-9.8-4.4-9.8-9.8V102h29.1v19.4C215.6,126.8,211.2,131.2,205.8,131.2z"/>
	<rect x="186.5" y="102" class="st9" width="29.1" height="12.5"/>
	
		<ellipse transform="matrix(0.7071 -0.7071 0.7071 0.7071 19.7586 158.6773)" class="st10" cx="201.4" cy="55.5" rx="38.2" ry="38.2"/>
	<path class="st11" d="M173.7,75.7c0,6.1-3.3,11.1-7.3,11.1s-7.3-5-7.3-11.1c0-6.1,3.3-11.1,7.3-11.1S173.7,69.6,173.7,75.7z"/>
	<path class="st9" d="M171.9,75.7c0,4.6-2.5,8.4-5.5,8.4c-3,0-5.5-3.8-5.5-8.4c0-4.6,2.5-8.4,5.5-8.4
		C169.5,67.4,171.9,71.1,171.9,75.7z"/>
	<circle class="st11" cx="168.8" cy="78.4" r="4.9"/>
	<path class="st11" d="M228.3,75.7c0,6.1,3.3,11.1,7.3,11.1c4,0,7.3-5,7.3-11.1c0-6.1-3.3-11.1-7.3-11.1
		C231.6,64.6,228.3,69.6,228.3,75.7z"/>
	<path class="st9" d="M230.2,75.7c0,4.6,2.5,8.4,5.5,8.4c3,0,5.5-3.8,5.5-8.4c0-4.6-2.5-8.4-5.5-8.4
		C232.6,67.4,230.2,71.1,230.2,75.7z"/>
	<path class="st11" d="M228.3,78.4c0,2.7,2.2,4.9,4.9,4.9c2.7,0,4.9-2.2,4.9-4.9c0-2.7-2.2-4.9-4.9-4.9
		C230.6,73.5,228.3,75.7,228.3,78.4z"/>
	<ellipse class="st12" cx="235.7" cy="85.1" rx="2.3" ry="2.5"/>
	<path class="st13" d="M234.7,84.8c0,0.8,0.6,1.5,1.3,1.5c0.7,0,1.3-0.7,1.3-1.5s-0.6-1.5-1.3-1.5C235.3,83.3,234.7,84,234.7,84.8z"
		/>
	<path class="st10" d="M218.9,21c0,10.3-8.4,18.7-18.7,18.7s-18.7-8.4-18.7-18.7s8.4-18.7,18.7-18.7S218.9,10.7,218.9,21z"/>
	<path class="st8" d="M200.5,111.7L200.5,111.7c-18.4,0-33.4-14.9-33.4-33.4v-18c0-18.4,14.9-33.4,33.4-33.4s33.4,14.9,33.4,33.4v18
		C233.8,96.7,218.9,111.7,200.5,111.7z"/>
	<ellipse class="st14" cx="189" cy="75.8" rx="4.9" ry="6.7"/>
	<ellipse class="st14" cx="216.4" cy="75.8" rx="4.6" ry="6.7"/>
	<path class="st15" d="M205.6,27.1c0,0-6.9,6.5-5.4,12.6c2.9,11.6,21.5,27.5,37.7,36.1C237.9,75.7,245.8,20.8,205.6,27.1z"/>
	<path class="st16" d="M203.2,102c8,0,14.5-6.5,14.5-14.5h-29.1C188.7,95.5,195.2,102,203.2,102z"/>
	<path class="st12" d="M167.4,85.1c0,1.4-1,2.5-2.3,2.5s-2.3-1.1-2.3-2.5s1-2.5,2.3-2.5S167.4,83.7,167.4,85.1z"/>
	<path class="st13" d="M189.7,73.7c0,1.2-1,2.1-2.1,2.1c-1.2,0-2.1-1-2.1-2.1c0-1.2,1-2.1,2.1-2.1C188.8,71.6,189.7,72.5,189.7,73.7
		z"/>
	<path class="st13" d="M217.4,73.7c0,1.2-1,2.1-2.1,2.1s-2.1-1-2.1-2.1c0-1.2,1-2.1,2.1-2.1S217.4,72.5,217.4,73.7z"/>
	<path class="st15" d="M205.6,27c0,0,0.4,1.5-0.7,6.5c-2.4,11.6-14.1,35.9-41,42.3C163.9,75.7,154.3,20.1,205.6,27z"/>
	<ellipse class="st13" cx="164.5" cy="84.8" rx="1.3" ry="1.5"/>
	<path class="st4" d="M284.7,307.4h-158c-4.4,0-8.1-3.6-8.1-8.1v-8.6c0-4.4,3.6-8.1,8.1-8.1h158c4.4,0,8.1,3.6,8.1,8.1v8.6
		C292.7,303.8,289.1,307.4,284.7,307.4z"/>
	<path class="st17" d="M231.1,220.3c2.9,1.2,25,11.1,29.2,32.8c0.3,1.8,3.8,20.6-7,29.6c-3.3,2.8-6.9,3.7-16.8,4.9
		c-9,1.1-21.4,2.2-36.6,2.3c21.3-20.2,26.3-44.9,17.4-58.8c-3.1-4.8-8.6-8.6-17.4-10.7H231.1z"/>
	<path class="st8" d="M172.3,218.1l27.7,2.3c0,0,36.7-0.7,11.8,59.9l-39.8-22.3L172.3,218.1z"/>
	<path class="st18" d="M186.8,259.8l24.1,9.6c0,0,5.9-11,6.9-20.2l-27.8-6.6L186.8,259.8z"/>
	<path class="st19" d="M200,289.9l24.5-9.6c17.2-6.7,24.7-27.4,15.1-43.1c-4.8-7.8-12.8-16.1-25.8-11.2
		C213.7,226,230.8,238.4,200,289.9z"/>
	<path class="st8" d="M181.2,425.9l-19.7-2.4l9.2-148.4c0.7-11.9,11.4-20.7,23.2-19.3c11.9,1.5,20.1,12.7,17.8,24.5L181.2,425.9z"/>
	<path class="st8" d="M161.7,388.5h-21.8l9.2-151.1c0.7-11.9,11.4-20.7,23.2-19.3c11.9,1.5,20.1,12.7,17.8,24.5L161.7,388.5z"/>
	<path class="st18" d="M165.1,370.7l21.7-110.9c-1.4,3.6-4.7,13.7-0.6,23c1.1,2.4,2.7,6.1,6.6,7.5c3,1.1,5.9,0.2,7.2-0.4
		c-11.1,39-26.1,89.8-37.1,128.8L165.1,370.7z"/>
	<path class="st8" d="M162,387.1c0,0,8,3.1,1.1,13.3c-6.9,10.2-16.7,24.5-25.5,35.9s-16.9,9.7-16.2,5.9c0.8-3.8,7.8-27.4,7.8-27.4
		l12.2-30.3L162,387.1z"/>
	<path class="st8" d="M181.2,425.9l0.2,32c-5.2,4.6-2,8.7-2,8.7s-6.3,14.7-12.8,13.9c-6.5-0.8-5.6-26.2-5.4-57.1
		C161.1,423.4,180.1,419.7,181.2,425.9z"/>
	<path class="st20" d="M181.2,425.9c0,0,0.2,8.8,0.2,18.8c0,10,5.1,37.1,5.1,37.1h-30.2l4.8-58.4l4,47.4h12.1L181.2,425.9z"/>
	<path class="st21" d="M156.3,481.8h30.2v-0.2c0-7.5-9.3-13.6-13.6-13.6h-3C162.3,468,156.2,474.2,156.3,481.8z"/>
	<polygon class="st20" points="163.1,400.4 156.3,448.1 151.8,448.6 151.8,412.7 	"/>
	<path class="st21" d="M162,387.1L132,433.7l-7.6,0.1c-8.3,0.6-14,7-15,15c-0.2,1.4,0.9,2.6,2.3,2.6h18.4c5.7,0,10.8-3.6,12.6-9
		c2.9-8.5,8.3-21.4,16.3-31.4C172.3,394.5,162,387.1,162,387.1z"/>
	<path class="st6" d="M122.1,206.4L122.1,206.4c-1.6-6.9,2.6-13.7,9.5-15.4l76-13l4.8,20.1l-74.9,17.7
		C130.6,217.5,123.7,213.3,122.1,206.4z"/>
	<path class="st7" d="M121.5,200.9c0,0,0.6,8.9,37.4,0.7c37.3-8.3,51.3-12.1,51.3-12.1l2.2,8.8l-74.9,17.7c-1.3,0.3-2.6,0.4-4,0.3
		C128.8,215.7,119.3,213.2,121.5,200.9z"/>
	<path class="st7" d="M131.6,191.1c0,0,56,2.5,78.5-1.7c0,0-79.3,25.6-86.6,18.4C116.2,200.6,128.9,188.4,131.6,191.1z"/>
	<path class="st6" d="M271.8,203.4L271.8,203.4c0-7-5.7-12.8-12.8-12.8l-76.9,4.9v20.7H259C266.1,216.2,271.8,210.5,271.8,203.4z"/>
	<path class="st7" d="M271.1,197.9c0,0,1.4,7-36.2,9.2s-52.7,0-52.7,0l-0.1,9.1h76.9c1.3,0,2.7-0.2,3.9-0.7
		C267.4,214,276.1,209.4,271.1,197.9z"/>
	<path class="st7" d="M259,190.7c0,0-53.9,15.3-76.8,16.4c0,0,83.1,6.7,88.6-2C276.2,196.4,261.1,187.4,259,190.7z"/>
	<rect x="2" y="216.2" class="st2" width="433.8" height="13.4"/>
	<rect x="10.5" y="229.6" class="st1" width="416.5" height="6.5"/>
	<polygon class="st1" points="17.5,234.9 29.6,480.6 39.4,480.5 46.7,234.9 	"/>
	<polygon class="st1" points="420.9,234.9 408.7,480.6 399,480.5 391.7,234.9 	"/>
	<path class="st2" d="M416.9,248l-8.6,174.4c-0.1,2-1.8,3.6-3.8,3.6c-2,0-3.6-1.6-3.7-3.6l-5.2-174.4c-0.1-2.1,1.6-3.9,3.7-3.9h13.8
		C415.3,244.1,417,245.9,416.9,248z"/>
	<path class="st2" d="M21.4,248l8.6,174.4c0.1,2,1.8,3.6,3.8,3.6s3.6-1.6,3.7-3.6l5.2-174.4c0.1-2.1-1.6-3.9-3.7-3.9H25.2
		C23,244.1,21.3,245.9,21.4,248z"/>
	<path class="st22" d="M369.7,216.2h-69.3c0-3.7,3-6.7,6.7-6.7h55.9C366.8,209.5,369.7,212.5,369.7,216.2z"/>
	<path class="st22" d="M407.3,189.4H255c-6.6,0-12-5.4-12-12V83.6c0-6.6,5.4-12,12-12h152.3c6.6,0,12,5.4,12,12v93.8
		C419.3,184,413.9,189.4,407.3,189.4z"/>
	<rect x="324.9" y="179.7" class="st22" width="20.4" height="33.2"/>
	<path class="st8" d="M182.1,203.4c0,0-26.3-6.5-30.3-3.4c-4,3.1-25.6,16.2-25.6,16.2h6.7l5.4-3.3l-1.2,3l4.9,0.3l2.4-3.3l7.3-3.3
		c0,0,9.5,6.3,15.2,4.8c5.7-1.5,14.4,0,14.4,0L182.1,203.4z"/>
	<path class="st8" d="M220.1,187.4l-11.6-5.2l1.9,8.5c0.8,3.5,2.9,2.9,2.9,2.9l10.9-0.7l-1.5-3C222.2,188.8,221.3,187.9,220.1,187.4
		z"/>
	<circle class="st23" cx="331.2" cy="130.5" r="11.3"/>
	
		<rect x="119.1" y="128" transform="matrix(0.9827 -0.1852 0.1852 0.9827 -28.7499 26.1955)" class="st23" width="13.7" height="78.1"/>
	
		<rect x="117.4" y="147.1" transform="matrix(0.9827 -0.1852 0.1852 0.9827 -30.1182 25.1044)" class="st24" width="3.9" height="53.4"/>
	<rect x="125.9" y="143.4" class="st25" width="3.9" height="53.4"/>
	<polygon class="st26" points="144.4,216.7 114,216.7 111.6,167 146.8,167 	"/>
	<path class="st27" d="M129.9,210.2L129.9,210.2c-7,0-12.8-5.5-13.2-12.6l-0.7-14.7c-0.4-7.5,5.6-13.8,13.2-13.8h1.4
		c7.5,0,13.6,6.3,13.2,13.8l-0.7,14.7C142.8,204.7,137,210.2,129.9,210.2z"/>
	<path class="st28" d="M66.2,164.4l1,13.2c0.1,0,0.2,0,0.3,0c3.5,0,5.8,2.8,6.1,6.1c0.2,2.1,0.8,4.1,1,6.2c0.2,1.9,0.1,3.8,0.1,5.7
		c0,3.7-2.8,5.6-5.6,5.8l1.1,14.8h13l-0.3-51.8H66.2z"/>
	<path class="st29" d="M91,197.3c-1.2-4.9,0.8-8.7,0.8-13.5c0-3.9,3-5.9,6.1-5.9l1-13.5H82.6v51.8h12.3l1.1-14.6
		C93.8,201.5,91.7,200.1,91,197.3z"/>
	<polygon class="st30" points="82.6,201.9 69.1,201.9 67.2,177.5 82.6,177.5 	"/>
	<polygon class="st31" points="96,201.9 82.6,201.9 82.6,177.5 97.9,177.5 	"/>
	<rect x="64.6" y="159.6" class="st31" width="37.3" height="4.8"/>
	<rect x="66.5" y="154.9" class="st30" width="33.1" height="4.8"/>
</g>
</svg>
