<?xml version="1.0" encoding="utf-8"?>
<!-- Generator: Adobe Illustrator 22.0.1, SVG Export Plug-In . SVG Version: 6.00 Build 0)  -->
<svg version="1.1" id="Capa_1" xmlns="http://www.w3.org/2000/svg" xmlns:xlink="http://www.w3.org/1999/xlink" x="0px" y="0px"
	 viewBox="0 0 569 643.5" style="enable-background:new 0 0 569 643.5;" xml:space="preserve">
<style type="text/css">
	.st0{fill:#EF2235;}
	.st1{fill:#DB742F;}
	.st2{fill:#FD9256;}
	.st3{fill:#5D6C78;}
	.st4{fill:#FF9B2D;}
	.st5{fill:#FFA644;}
	.st6{fill:#ECEEED;}
	.st7{fill:#D2D2D2;}
	.st8{fill:#FFBBA2;}
	.st9{fill:#F28A75;}
	.st10{fill:#450C00;}
	.st11{fill:#F6AE97;}
	.st12{fill:#F0D9C7;}
	.st13{fill:#FFFFFF;}
	.st14{fill:#482B2D;}
	.st15{fill:#915B42;}
	.st16{fill:#FFF6FF;}
	.st17{fill:#3E4954;}
	.st18{fill:#FFAD91;}
	.st19{fill:#626D79;}
	.st20{fill:#C91B18;}
	.st21{fill:#EC2B22;}
	.st22{fill:#F1F1FC;}
	.st23{fill:#D4D4D4;}
	.st24{fill:#5CC114;}
	.st25{fill:#FFA646;}
	.st26{fill:#FF5A51;}
	.st27{fill:#FF706C;}
	.st28{fill:#C6EEF9;}
	.st29{fill:#ADEEED;}
	.st30{fill:#BE7967;}
	.st31{fill:#A96B58;}
</style>
<g>
	<ellipse class="st0" cx="286.5" cy="618.3" rx="243.8" ry="19.3"/>
	<ellipse class="st0" cx="277.1" cy="612.4" rx="125" ry="24.6"/>
	<polygon class="st1" points="294.3,573.1 252.9,573.1 262.3,370.8 283.3,370.8 	"/>
	<path class="st2" d="M267.8,550.4L267.8,550.4c-5,0-9-4.1-8.8-9.1l4.9-149.2c0.1-3.3,2.8-6,6.2-6c3.3,0,6.1,2.6,6.2,6l5.5,143.9
		C282,543.9,275.7,550.4,267.8,550.4z"/>
	<path class="st1" d="M343.5,572.1H206.1c-12.2,0-21.2,8.3-18.2,20.1c0,0.2,0.1,1.9,0.1,2.1l13.1-0.3c0,0,2.6-10.7,11.2-10.7h124.8
		c8.7,0,11.2,10.7,11.2,10.7l13.1,1.9c0.2-0.6,0.3-1.1,0.4-1.6C364.4,582.8,355.2,572.1,343.5,572.1z"/>
	<rect x="178.4" y="585.6" class="st3" width="29.2" height="10.2"/>
	<rect x="341.9" y="585.6" class="st3" width="29.2" height="10.2"/>
	<path class="st3" d="M206.1,605.9c0,6.8-5.5,12.4-12.4,12.4c-6.8,0-12.4-5.5-12.4-12.4c0-6.8,5.5-12.4,12.4-12.4
		C200.5,593.5,206.1,599.1,206.1,605.9z"/>
	<circle class="st3" cx="355.9" cy="605.9" r="12.4"/>
	<path class="st4" d="M338.4,395.2H193.6c-13.9,0-25.1-11.3-25.1-25.1V153.3c0-13.9,11.3-25.1,25.1-25.1h144.8
		c13.9,0,25.1,11.3,25.1,25.1v216.8C363.5,384,352.3,395.2,338.4,395.2z"/>
	<path class="st5" d="M314.7,378H205.4c-13.9,0-25.1-11.3-25.1-25.1V170.5c0-13.9,11.3-25.1,25.1-25.1h109.2
		c13.9,0,25.1,11.3,25.1,25.1v182.3C339.8,366.7,328.5,378,314.7,378z"/>
	<path class="st6" d="M277.9,299.9h-35.9c-14.3,0-26.1-11.2-26.8-25.4l-5-91.9c-0.8-15.4,11.4-28.3,26.8-28.3h46.8
		c15.5,0,27.8,13.1,26.8,28.6l-6,91.9C303.8,289,292.1,299.9,277.9,299.9z"/>
	<path class="st6" d="M168.1,280.9L168.1,280.9c-8.2-3.9-11.7-13.8-7.9-22l45-95.2c3.9-8.2,13.8-11.7,22-7.9
		c8.2,3.9,11.7,13.8,7.9,22l-45,95.2C186.2,281.2,176.3,284.8,168.1,280.9z"/>
	<path class="st6" d="M336.8,282.6l0.4,4.7c-8.7,2.7-18-2.3-20.6-11l-30.8-100.7c-1.9-6.3-5.9-21.1,0.3-21.2
		c6.3-0.1,12.2-0.1,12.2-0.1c8.4,0,16.4,3,19.1,11.7l30.8,100.7C350.8,275.4,345.5,280,336.8,282.6z"/>
	<path class="st6" d="M295.8,227.1h-71.3c-14.6,0-24.8-14.4-19.9-28.2l5.8-16.3H310l5.8,16.3C320.6,212.7,310.4,227.1,295.8,227.1z"
		/>
	<path class="st7" d="M304.8,274.8c1.2-17.3,2.5-34.6,3.7-51.9c0,0,8.5-6.7,8.3-13.9c-12.4,4.6-32.7,10.4-58.1,10.2
		c-23.9-0.2-43-5.7-55.1-10.2c0,0.6-0.1,1.8,0.2,3.3c0.4,2.1,1.2,3.7,1.7,4.5c0,0,0.1,0.2,0.3,0.5c1.5,2.3,6.4,7.2,8.1,8.7
		c6.8,2.8,16.9,6.1,29.6,7.1c7.9,0.6,12.5,0,15.7,0C269.7,233.1,285,240.8,304.8,274.8z"/>
	<polygon class="st6" points="237.1,154.3 221.4,154.3 229.2,167.9 	"/>
	<path class="st8" d="M270.5,172.6h-18.1c-5.4,0-9.8-4.4-9.8-9.8v-27.9h37.7v27.9C280.3,168.3,275.9,172.6,270.5,172.6z"/>
	<rect x="242.6" y="134.9" class="st9" width="37.7" height="16.1"/>
	
		<ellipse transform="matrix(0.9239 -0.3827 0.3827 0.9239 -8.6656 105.9186)" class="st10" cx="261.9" cy="74.7" rx="49.4" ry="49.4"/>
	<path class="st11" d="M226.1,100.9c0,7.9-4.2,14.4-9.5,14.4c-5.2,0-9.5-6.4-9.5-14.4s4.2-14.4,9.5-14.4
		C221.9,86.6,226.1,93,226.1,100.9z"/>
	<path class="st9" d="M223.8,100.9c0,6-3.2,10.8-7.1,10.8c-3.9,0-7.1-4.9-7.1-10.8s3.2-10.8,7.1-10.8
		C220.6,90.1,223.8,95,223.8,100.9z"/>
	<path class="st11" d="M226.1,104.4c0,3.5-2.8,6.4-6.4,6.4c-3.5,0-6.4-2.8-6.4-6.4c0-3.5,2.8-6.4,6.4-6.4
		C223.3,98,226.1,100.9,226.1,104.4z"/>
	<path class="st11" d="M296.7,100.9c0,7.9,4.2,14.4,9.5,14.4c5.2,0,9.5-6.4,9.5-14.4s-4.2-14.4-9.5-14.4
		C301,86.6,296.7,93,296.7,100.9z"/>
	<path class="st9" d="M299.1,100.9c0,6,3.2,10.8,7.1,10.8c3.9,0,7.1-4.9,7.1-10.8s-3.2-10.8-7.1-10.8
		C302.3,90.1,299.1,95,299.1,100.9z"/>
	<path class="st11" d="M296.7,104.4c0,3.5,2.8,6.4,6.4,6.4c3.5,0,6.4-2.8,6.4-6.4c0-3.5-2.8-6.4-6.4-6.4
		C299.6,98,296.7,100.9,296.7,104.4z"/>
	<path class="st12" d="M303.3,113.1c0,1.8,1.3,3.3,3,3.3c1.6,0,3-1.5,3-3.3c0-1.8-1.3-3.3-3-3.3
		C304.7,109.8,303.3,111.3,303.3,113.1z"/>
	<path class="st13" d="M305,112.6c0,1.1,0.8,1.9,1.7,1.9c1,0,1.7-0.9,1.7-1.9s-0.8-1.9-1.7-1.9C305.7,110.7,305,111.6,305,112.6z"/>
	<path class="st10" d="M284.5,30.1c0,13.3-10.8,24.2-24.2,24.2s-24.2-10.8-24.2-24.2S247,5.9,260.3,5.9S284.5,16.8,284.5,30.1z"/>
	<path class="st8" d="M260.7,147.4L260.7,147.4c-23.8,0-43.2-19.3-43.2-43.2V81c0-23.8,19.3-43.2,43.2-43.2h0
		c23.8,0,43.2,19.3,43.2,43.2v23.2C303.8,128.1,284.5,147.4,260.7,147.4z"/>
	<path class="st14" d="M252.2,101c0,4.8-2.9,8.7-6.4,8.7s-6.4-3.9-6.4-8.7s2.9-8.7,6.4-8.7S252.2,96.1,252.2,101z"/>
	<path class="st14" d="M287.2,101c0,4.8-2.7,8.7-6,8.7s-6-3.9-6-8.7s2.7-8.7,6-8.7S287.2,96.1,287.2,101z"/>
	<path class="st15" d="M267.3,38c0,0-9,8.4-7,16.3c3.8,14.9,27.8,35.6,48.8,46.7C309.1,100.9,319.3,29.8,267.3,38z"/>
	<path class="st16" d="M264.3,134.9c10.4,0,18.8-8.4,18.8-18.8h-37.6C245.4,126.5,253.9,134.9,264.3,134.9z"/>
	<path class="st12" d="M218,113.1c0,1.8-1.3,3.3-3,3.3c-1.6,0-3-1.5-3-3.3c0-1.8,1.3-3.3,3-3.3C216.6,109.8,218,111.3,218,113.1z"/>
	<path class="st13" d="M246.8,98.3c0,1.5-1.2,2.8-2.8,2.8c-1.5,0-2.8-1.2-2.8-2.8s1.2-2.8,2.8-2.8C245.5,95.6,246.8,96.8,246.8,98.3
		z"/>
	<path class="st13" d="M282.6,98.3c0,1.5-1.2,2.8-2.8,2.8s-2.8-1.2-2.8-2.8s1.2-2.8,2.8-2.8S282.6,96.8,282.6,98.3z"/>
	<path class="st15" d="M267.3,37.9c0,0,0.5,2-0.9,8.4c-3.2,15-18.2,46.5-53.1,54.7C213.4,100.9,200.9,29,267.3,37.9z"/>
	<ellipse class="st13" cx="214.2" cy="112.6" rx="1.7" ry="1.9"/>
	<path class="st4" d="M372,400.7H162.8c-4.4,0-8.1-3.6-8.1-8.1v-15.8c0-4.4,3.6-8.1,8.1-8.1H372c4.4,0,8.1,3.6,8.1,8.1v15.8
		C380,397,376.4,400.7,372,400.7z"/>
	<path class="st17" d="M300.3,288c3.8,1.6,32.3,14.4,37.8,42.4c0.4,2.3,4.9,26.7-9,38.3c-4.3,3.6-9,4.8-21.7,6.3
		c-11.6,1.4-27.7,2.8-47.3,3c27.5-26.1,34-58.1,22.6-76.1c-4-6.2-11.1-11.2-22.6-13.9H300.3z"/>
	<path class="st8" d="M224.2,285.1L260,288c0,0,47.4-0.9,15.2,77.5l-51.5-28.9L224.2,285.1z"/>
	<path class="st18" d="M243,339l31.2,12.4c0,0,7.7-14.2,9-26.1l-36-8.5L243,339z"/>
	<path class="st19" d="M260,378l31.7-12.4c22.2-8.7,32-35.5,19.5-55.8c-6.2-10.1-16.5-20.8-33.4-14.5C277.8,295.3,300,311.4,260,378
		z"/>
	<path class="st8" d="M235.7,553.9l-25.4-3.1l11.9-192c1-15.4,14.7-26.8,30-24.9c15.4,1.9,26,16.5,23,31.7L235.7,553.9z"/>
	<path class="st8" d="M210.5,505.5h-28.2L194.2,310c1-15.4,14.7-26.8,30-24.9c15.4,1.9,26,16.5,23,31.7L210.5,505.5z"/>
	<path class="st18" d="M215,482.5L243,339c-1.8,4.7-6.1,17.7-0.8,29.7c1.4,3.1,3.5,7.9,8.5,9.7c3.9,1.4,7.7,0.2,9.3-0.5
		c-14.3,50.5-33.7,116.2-48.1,166.7L215,482.5z"/>
	<path class="st8" d="M210.9,503.8c0,0,10.4,4,1.4,17.2c-8.9,13.2-21.6,31.7-33,46.5s-21.9,12.6-20.9,7.7c1-4.9,10.2-35.5,10.2-35.5
		l15.8-39.2L210.9,503.8z"/>
	<path class="st8" d="M235.7,553.9l0.3,41.5c-6.7,5.9-2.6,11.2-2.6,11.2s-8.2,19-16.6,18c-8.4-1-7.3-33.9-7-73.9
		C209.8,550.7,234.3,546,235.7,553.9z"/>
	<path class="st20" d="M235.7,553.9c0,0,0.3,11.4,0.3,24.3c0,13,6.6,48,6.6,48h-39.1l6.3-75.6L215,612h15.7L235.7,553.9z"/>
	<path class="st21" d="M203.5,626.3h39.1v-0.2c0-9.7-12.1-17.6-17.6-17.6h-3.9C211.3,608.5,203.4,616.5,203.5,626.3z"/>
	<polygon class="st20" points="212.3,521 203.5,582.7 197.7,583.3 197.7,536.9 	"/>
	<path class="st21" d="M210.9,503.8L172.2,564l-9.9,0.1c-10.8,0.8-18.1,9-19.4,19.4c-0.2,1.8,1.2,3.4,3,3.4h23.8
		c7.4,0,13.9-4.7,16.4-11.7c3.8-11,10.7-27.7,21.1-40.7C224.2,513.3,210.9,503.8,210.9,503.8z"/>
	<path class="st6" d="M159.3,270L159.3,270c-2.1-8.9,3.4-17.8,12.3-19.9l98.3-16.8l6.1,26l-96.8,22.9
		C170.3,284.4,161.4,278.9,159.3,270z"/>
	<path class="st7" d="M158.5,262.8c0,0,0.8,11.5,48.4,0.8c48.3-10.8,66.3-15.7,66.3-15.7l2.8,11.4l-96.9,22.9
		c-1.7,0.4-3.4,0.5-5.1,0.3C168,282,155.7,278.8,158.5,262.8z"/>
	<path class="st7" d="M171.6,250.2c0,0,72.5,3.3,101.6-2.2c0,0-102.6,33.1-112.1,23.8C151.6,262.4,168.1,246.7,171.6,250.2z"/>
	<path class="st6" d="M353,266.2L353,266.2c0-9.1-7.4-16.5-16.5-16.5l-99.5,6.3v26.7h99.5C345.6,282.7,353,275.3,353,266.2z"/>
	<path class="st7" d="M352.1,258.9c0,0,1.8,9.1-46.9,11.9s-68.1,0-68.1,0l-0.1,11.8h99.5c1.7,0,3.4-0.3,5.1-0.9
		C347.3,279.8,358.5,273.8,352.1,258.9z"/>
	<path class="st7" d="M336.5,249.6c0,0-69.8,19.9-99.4,21.2c0,0,107.5,8.6,114.6-2.6C358.7,257,339.1,245.5,336.5,249.6z"/>
	<rect x="3.9" y="282.7" class="st2" width="561.2" height="17.3"/>
	<rect x="14.9" y="299.9" class="st1" width="538.8" height="8.4"/>
	<polygon class="st1" points="24,306.8 39.7,624.7 52.3,624.6 61.7,306.8 	"/>
	<polygon class="st1" points="545.8,306.8 530.1,624.7 517.5,624.6 508.1,306.8 	"/>
	<path class="st2" d="M540.7,323.8l-11.2,225.6c-0.1,2.6-2.3,4.6-4.9,4.6s-4.7-2.1-4.8-4.7l-6.7-225.6c-0.1-2.7,2.1-5,4.8-5h17.8
		C538.7,318.7,540.9,321,540.7,323.8z"/>
	<path class="st2" d="M29.1,323.8l11.2,225.6c0.1,2.6,2.3,4.6,4.9,4.6c2.6,0,4.7-2.1,4.8-4.7l6.7-225.6c0.1-2.7-2.1-5-4.8-5H33.9
		C31.1,318.7,28.9,321,29.1,323.8z"/>
	<path class="st22" d="M479.7,282.7h-89.6c0-4.8,3.9-8.6,8.6-8.6H471C475.8,274,479.7,277.9,479.7,282.7z"/>
	<path class="st22" d="M531.8,248H327.7c-6.6,0-12-5.4-12-12V107.6c0-6.6,5.4-12,12-12h204.1c6.6,0,12,5.4,12,12V236
		C543.8,242.6,538.4,248,531.8,248z"/>
	<rect x="421.7" y="235.5" class="st22" width="26.3" height="42.9"/>
	<path class="st8" d="M236.9,266.2c0,0-34.1-8.5-39.2-4.5c-5.2,4-33.1,21-33.1,21h8.6l7-4.3l-1.5,3.9l6.3,0.4l3.1-4.3l9.5-4.3
		c0,0,12.4,8.2,19.7,6.2c7.4-2,18.6,0,18.6,0L236.9,266.2z"/>
	<path class="st8" d="M286.1,245.4l-15-6.7l2.5,11c1,4.5,3.7,3.7,3.7,3.7l14.1-0.9l-1.9-3.9C288.8,247.2,287.6,246,286.1,245.4z"/>
	<path class="st23" d="M444.4,171.8c0,8.1-6.6,14.7-14.7,14.7s-14.7-6.6-14.7-14.7c0-8.1,6.6-14.7,14.7-14.7
		S444.4,163.7,444.4,171.8z"/>
	
		<rect x="155.4" y="168.5" transform="matrix(0.9827 -0.1852 0.1852 0.9827 -37.7232 34.1928)" class="st23" width="17.7" height="101"/>
	
		<rect x="153.2" y="193.2" transform="matrix(0.9827 -0.1852 0.1852 0.9827 -39.4915 32.779)" class="st24" width="5.1" height="69.1"/>
	<rect x="164.2" y="188.5" class="st25" width="5.1" height="69.1"/>
	<polygon class="st26" points="188.1,283.3 148.9,283.3 145.7,219 191.3,219 	"/>
	<path class="st27" d="M169.4,274.9L169.4,274.9c-9.1,0-16.6-7.1-17.1-16.2l-0.9-19c-0.5-9.7,7.3-17.9,17.1-17.9h1.9
		c9.8,0,17.5,8.2,17.1,17.9l-0.9,19C186,267.8,178.5,274.9,169.4,274.9z"/>
	<path class="st28" d="M87,215.7l1.3,17.1c0.1,0,0.3,0,0.4,0c4.5,0,7.4,3.6,7.9,7.9c0.3,2.7,1,5.3,1.3,8c0.3,2.5,0.1,4.9,0.1,7.4
		c0,4.8-3.6,7.3-7.3,7.6l1.5,19.2h16.8l-0.4-67H87z"/>
	<path class="st29" d="M119.1,258.2c-1.6-6.4,1-11.3,1-17.4c0-5.1,3.9-7.6,7.9-7.6l1.4-17.5h-21.1v67h16l1.5-18.9
		C122.7,263.6,120,261.9,119.1,258.2z"/>
	<polygon class="st30" points="108.1,264.2 90.7,264.2 88.3,232.6 108.1,232.6 	"/>
	<polygon class="st31" points="125.5,264.2 108.1,264.2 108.1,232.6 128,232.6 	"/>
	<rect x="84.9" y="209.4" class="st31" width="48.3" height="6.2"/>
	<rect x="87.3" y="203.3" class="st30" width="42.8" height="6.2"/>
</g>
</svg>
