<?xml version="1.0" encoding="utf-8"?>
<!-- Generator: Adobe Illustrator 22.0.1, SVG Export Plug-In . SVG Version: 6.00 Build 0)  -->
<svg version="1.1" id="Capa_1" xmlns="http://www.w3.org/2000/svg" xmlns:xlink="http://www.w3.org/1999/xlink" x="0px" y="0px"
	 viewBox="0 0 537.3 457.5" style="enable-background:new 0 0 537.3 457.5;" xml:space="preserve">
<style type="text/css">
	.st0{fill:#8D5F4F;}
	.st1{fill:#FFDCC9;}
	.st2{fill:#FFC8B3;}
	.st3{fill:#FFD5C2;}
	.st4{fill:#A3715E;}
	.st5{fill:#805143;}
	.st6{fill:#DCA790;}
	.st7{fill:#292929;}
	.st8{fill:#FFFFFF;}
	.st9{fill:#FF7373;}
	.st10{fill:#FF4D4D;}
	.st11{fill:#F88985;}
	.st12{fill:#E37B7B;}
	.st13{fill:#F3BBAA;}
	.st14{fill:#C8816B;}
	.st15{fill:#E5E5E5;}
	.st16{fill:#E5B4A1;}
	.st17{fill:#B47460;}
	.st18{fill:#FF9D9D;}
	.st19{fill:#9D4F4F;}
	.st20{fill:#FDBEB0;}
	.st21{fill:#FDB5A5;}
	.st22{fill:#FF0000;}
	.st23{fill:#00AB90;}
	.st24{fill:#00BC98;}
	.st25{fill:#F0F0F0;}
	.st26{fill:#A96D5A;}
	.st27{fill:#02A888;}
	.st28{fill:#C4873D;}
	.st29{fill:#FCC581;}
	.st30{fill:#FFB655;}
</style>
<g>
	<path class="st0" d="M170.3,91.3c0,0,31.7-24.7,69.5-6.1c43.5,21.5,29.8,50.4,49.9,87.8c19.7,36.7,33.7,98.1-43.5,117.4
		c-60.3,15.1-53.3-76.1-53.3-76.1L170.3,91.3z"/>
	<path class="st1" d="M215.7,235.4v28.9l42.3,4.8c0,0-39.9,34.1-109.3,4.3l32.2-8.3v-29.8H215.7z"/>
	<path class="st2" d="M215.7,235.4v28.9l38.3,4.3c0,0-35.8,34.5-105.3,4.8l32.2-8.3v-29.8H215.7z"/>
	<path class="st3" d="M184,97c0,0,28.7-1.7,47.4,12.7c18.7,14.3,27.6,34.2,30.3,65c2.8,30.9-6.8,66.7-40.9,73.3
		c-34.9,6.8-87.3-14.8-90.6-51.7c0,0-1.3,5.4-6.8-3.4s-9.9-51.8,4.4-44.1S184,97,184,97z"/>
	<path class="st2" d="M157,207.9c-6.5-8.9-10.5-23.5-10.8-34.9c-0.2-9.1,0.1-16.8,1.4-25.6c0.5-3.5,1.4-6.9,2.7-10.1
		c-8.9,8.5-17.5,14.3-22.6,11.5c-14.3-7.7-9.9,35.3-4.4,44.1s6.8,3.4,6.8,3.4c3.3,36.9,55.7,58.5,90.6,51.7
		c9.9-1.9,17.8-6.3,23.9-12.4C228.6,244,187.1,248.9,157,207.9z"/>
	<path class="st4" d="M207.2,99.8c0,0-6.6,61.7-66.7,74.4c0,0-2.2-21.1-13.2-16c-14.3,6.6-4.9,41.1,12.7,41.7c0,0-1,32,42.1,45.7
		c0,0,0.6,23.7-2.7,25.3c-3.3,1.7-47.1,19-76.4-9.1c-29.2-28.1-15.4-76.1-0.6-115.8s34.7-76.6,72.2-77.2S207.2,99.8,207.2,99.8z"/>
	<path class="st0" d="M140,199.9c-17.6-0.6-27.1-35.1-12.7-41.7c11.1-5.1,13.2,16,13.2,16c8.6-1.8,16-4.6,22.6-8.1
		c-0.8-0.4-1.5-0.7-2.3-1.2c-10.9-6.2-12.9-7.6-21.8-16.5c-3.8-3.9-6.2-8.8-8.9-13.6c-5.8-10.4-7.2-21.8-6.4-33.2
		c-8.4,12.9-15.2,28.4-21.2,44.4c-14.9,39.7-28.7,87.7,0.6,115.8c29.2,28.1,73,10.7,76.4,9.1s2.7-25.3,2.7-25.3
		C138.9,231.9,140,199.9,140,199.9z"/>
	<path class="st5" d="M160.3,147.8c0.5-0.8,1-1.5,1.7-2.1c0.6-0.7,1.3-1.3,2-1.9c0.7-0.6,1.4-1.1,2.2-1.7c0.8-0.5,1.6-1,2.4-1.4
		c3.2-1.7,6.9-2.8,10.6-3c3.7-0.2,7.5,0.3,10.9,1.8c1.7,0.6,3.3,1.6,4.8,2.6l0.6,0.4l0.5,0.4c0.3,0.3,0.7,0.6,1,0.9
		c0.7,0.6,1.3,1.2,1.9,1.9c-1.8-0.4-3.4-1-5.1-1.4c-1.7-0.3-3.2-0.9-4.9-1.1c-3.2-0.7-6.4-0.8-9.6-0.6c-3.2,0.2-6.4,0.7-9.5,1.7
		C166.7,145,163.6,146.3,160.3,147.8z"/>
	<path class="st5" d="M220.4,142.9c1.7-2.7,4.3-4.7,7.1-6.1c2.8-1.5,6-2.4,9.3-2.5c3.2-0.2,6.5,0.3,9.5,1.5c1.5,0.5,2.9,1.4,4.2,2.2
		c0.7,0.4,1.3,1,1.8,1.5c0.6,0.5,1.2,1.1,1.7,1.6c-1.6-0.2-3-0.7-4.5-1c-1.5-0.2-2.8-0.6-4.3-0.7c-2.8-0.5-5.5-0.5-8.3-0.4
		c-2.7,0.1-5.5,0.5-8.2,1.2C226.1,140.9,223.3,141.8,220.4,142.9z"/>
	<path class="st6" d="M221,174.8c1,1.1,2,2.3,3,3.4l2.9,3.5c0.9,1.2,1.9,2.3,2.9,3.4c1,1.1,2,2.2,3,3.2l0.9,0.8l-0.8,0.8
		c-0.8,0.9-1.7,1.7-2.6,2.5c-0.9,0.8-1.9,1.5-2.9,2.1c-1,0.6-2.1,1.2-3.3,1.5c-1.2,0.3-2.4,0.5-3.6,0.3c2.3-0.5,4.2-1.8,5.9-3.2
		c0.9-0.7,1.7-1.5,2.5-2.3c0.8-0.8,1.6-1.6,2.3-2.5l0.1,1.6c-1.2-1.1-2.3-2.2-3.2-3.4c-1-1.2-1.9-2.5-2.7-3.7
		c-0.8-1.3-1.6-2.6-2.3-3.9C222.2,177.6,221.5,176.2,221,174.8z"/>
	<path class="st7" d="M164.7,177c1-3.1,2.9-5.9,5.4-8.1c2.5-2.2,5.9-3.8,9.5-3.8c1.8,0,3.5,0.3,5.2,0.9c1.6,0.6,3.1,1.5,4.4,2.5
		c2.7,2,4.8,4.6,6.3,7.4c-2.7-1.8-5.2-3.7-7.8-5c-1.3-0.7-2.7-1.2-4-1.6c-1.4-0.4-2.7-0.6-4.1-0.6c-2.7,0-5.4,0.9-7.9,2.5
		C169.3,172.6,167,174.7,164.7,177z"/>
	<path class="st7" d="M228.7,174.8c0.8-2.9,2.3-5.6,4.5-7.8c1.1-1.1,2.4-2.1,3.9-2.8c1.5-0.7,3.2-1.1,4.9-1.2c1.7,0,3.4,0.4,4.9,1
		c1.5,0.7,2.8,1.5,4,2.5c2.4,2,4.1,4.5,5.4,7.2c-2.4-1.8-4.6-3.7-7-5c-1.2-0.7-2.4-1.3-3.6-1.7c-1.2-0.4-2.5-0.6-3.7-0.6
		c-2.4,0-4.9,1-7.1,2.6C232.7,170.5,230.7,172.5,228.7,174.8z"/>
	<path class="st8" d="M187.2,205.4c0,0,28.5,4.6,40.7,4.4c0,0-6.1,11.3-21.7,9.2C190.6,216.9,187.2,205.4,187.2,205.4z"/>
	<path class="st6" d="M124.3,178.3c-0.4-2.7-0.4-5.4,0.2-8.1c0.3-1.4,0.8-2.7,1.7-4c0.5-0.6,1.1-1.2,1.9-1.5
		c0.8-0.3,1.7-0.5,2.5-0.4c1.6,0.1,3.2,0.9,4.2,2.1c1.1,1.2,1.6,2.7,1.9,4.1c0.5,2.9,0.3,5.6-0.3,8.4l-0.1,0.4l-0.3,0.2
		c-0.7,0.6-1.5,1.3-2.1,2.1c-0.6,0.8-1.1,1.6-1.3,2.6c-0.2,0.9-0.1,1.9,0.5,2.7c0.2,0.5,0.6,0.8,1,1.2c0.4,0.3,0.8,0.6,1.3,1
		c-0.5-0.2-1-0.4-1.5-0.7c-0.5-0.3-1-0.6-1.4-1c-0.8-0.8-1.3-2.1-1.2-3.4c0.1-1.2,0.6-2.4,1.2-3.4c0.6-1,1.3-1.9,2.2-2.7l-0.3,0.6
		c0.2-1.2,0.3-2.5,0.3-3.8c0-1.3-0.1-2.5-0.3-3.7c-0.3-1.2-0.7-2.3-1.3-3.1c-0.7-0.8-1.6-1.3-2.7-1.4c-1-0.2-1.9,0.2-2.7,1
		c-0.8,0.8-1.3,1.9-1.8,3.1C125.1,173.1,124.7,175.7,124.3,178.3z"/>
	<path class="st9" d="M115.9,386.1c36-1.8,68.4-20.2,68.4-20.2l27.1,47.5c2.7-2.1,5.4-4.3,7.9-6.6c16.1-14.6,29.5-32.6,35.5-53.8
		c6.1-21.3,7.2-41.6,7.2-63.6c0-7.2-0.4-13.7-2.2-19.8c-7.3-3-15.3-4.8-24-5.3c0,0-2.2,17.6-32,19.8c-28,2.1-33.6-12-33.6-12
		s-45.9,3.5-56,35.8c-10.4,33.5-8.3,68.8-1.9,99.2l22,2.9C125.9,399.9,119.3,391.5,115.9,386.1z"/>
	<path class="st10" d="M254.9,353c-6.1,21.1-19.5,39.1-35.5,53.8c-2.6,2.3-5.2,4.5-7.9,6.6l4.1,7.2l50.7,6.6
		c1.2-9.9,3.1-19.2,6.1-26.2c11-25.7,43.1-30.5,43.1-30.5s-0.7-7.3-0.1-9.6c0.3-1,4-1.4,8-1.5c-9.1-31.7-23.3-61.6-45.4-79.1l0,0
		c-0.5-0.4-1.1-0.8-1.6-1.3l0,0c-5-3.8-10.5-6.9-16.3-9.3l0,0c1.8,6.1,2.2,12.6,2.2,19.8C262,311.4,261,331.7,254.9,353"/>
	<path class="st11" d="M259.8,269.6c5.9,2.4,11.3,5.5,16.3,9.3C271.1,275.2,265.7,272,259.8,269.6z"/>
	<polygon class="st12" points="259.8,269.6 259.8,269.6 259.8,269.6 	"/>
	<polyline class="st13" points="319.1,350.3 318.7,376.8 350.1,378.5 349.6,350.3 319.1,350.3 	"/>
	<path class="st3" d="M314.5,240.3c0,0-30.9,13.3-30.9,63.8c0,42,34.3,51.2,49.7,52.5c28.5,2.4,61.9-16.1,57-73.4
		C385.3,225.8,314.5,240.3,314.5,240.3"/>
	<path class="st2" d="M390.2,283.1c-1.7-20.4-11.8-31.7-24.1-37.8c7.6,6.7,13.2,16.7,14.4,31.3c4.9,57.3-28.5,75.9-57,73.4
		c-6-0.5-15-2.3-23.6-6.7c11,9.4,25,12.5,33.3,13.2C361.7,359,395.1,340.4,390.2,283.1"/>
	<path class="st14" d="M337.7,244.1c0,0-12.4,40.5-50,39.3c0,0-9.9,25.6,1.2,45.9c9.4,17,18.6,19.8,30.2,24v18.2
		c0,0-26,1.7-45.5-10.3c0,0-9.5-45.1,3.3-90.1s43-48,57.5-44.2C348.9,230.4,337.7,244.1,337.7,244.1z"/>
	<path class="st14" d="M338.1,235.4c0,0-14.9,45.1,46.7,52.5c0,0,11.6,55.4-36.4,67.4l1.2,16.1c0,0,21.1,17.6,43.4-5.5
		c0,0,15.7-71.1,3.7-106.9C388.3,233.7,348,211.8,338.1,235.4"/>
	<path class="st15" d="M396.8,258.9C396.8,258.9,396.8,259,396.8,258.9c3.3,9.9,4.5,22.5,4.5,35.5
		C401.3,281.4,400.1,268.8,396.8,258.9C396.8,259,396.8,258.9,396.8,258.9 M396.8,258.9C396.8,258.9,396.8,258.9,396.8,258.9
		C396.8,258.9,396.8,258.9,396.8,258.9 M396.8,258.8C396.8,258.8,396.8,258.8,396.8,258.8C396.8,258.8,396.8,258.8,396.8,258.8
		 M396.7,258.7c0,0.1,0,0.1,0.1,0.2C396.7,258.8,396.7,258.7,396.7,258.7 M395.1,254.8c0.6,1.3,1.1,2.6,1.6,3.9
		C396.3,257.4,395.7,256.1,395.1,254.8 M395.1,254.7C395.1,254.7,395.1,254.7,395.1,254.7C395.1,254.7,395.1,254.7,395.1,254.7
		 M395.1,254.7C395.1,254.7,395.1,254.7,395.1,254.7C395.1,254.7,395.1,254.7,395.1,254.7 M395,254.6C395,254.6,395,254.6,395,254.6
		C395,254.6,395,254.6,395,254.6 M395,254.6C395,254.6,395,254.6,395,254.6C395,254.6,395,254.6,395,254.6 M395,254.5
		C395,254.5,395,254.5,395,254.5C395,254.5,395,254.5,395,254.5 M395,254.5C395,254.5,395,254.5,395,254.5
		C395,254.5,395,254.5,395,254.5 M394.9,254.4C394.9,254.4,394.9,254.4,394.9,254.4C394.9,254.4,394.9,254.4,394.9,254.4
		 M394.9,254.3C394.9,254.3,394.9,254.3,394.9,254.3C394.9,254.3,394.9,254.3,394.9,254.3"/>
	<path class="st16" d="M384.7,287.9C384.8,287.9,384.8,287.9,384.7,287.9C384.8,287.9,384.8,287.9,384.7,287.9 M384.6,287.9
		C384.7,287.9,384.7,287.9,384.6,287.9C384.7,287.9,384.7,287.9,384.6,287.9 M384.6,287.9C384.6,287.9,384.6,287.9,384.6,287.9
		C384.6,287.9,384.6,287.9,384.6,287.9 M384.5,287.9C384.5,287.9,384.5,287.9,384.5,287.9C384.5,287.9,384.5,287.9,384.5,287.9"/>
	<path class="st17" d="M367.4,376.3L367.4,376.3L367.4,376.3 M363.6,227.1c1.8,1.7,3.5,3.5,4.9,5.3c7.3,9.4,10.7,21.4,9.2,33.2
		c-0.9,7-3.4,13.7-7.3,19.5c4.2,1.1,8.8,2.1,14,2.7c0,0,0,0,0,0c0,0,0,0,0,0c0,0,0.1,0,0.1,0c0,0,0,0,0,0c0,0,0.1,0,0.1,0
		c0,0,0,0,0,0c0,0,0.1,0,0.1,0l0,0c0,0,1.2,5.9,1.2,14.2c0,17.3-5.3,45.1-37.6,53.2l0.5,5.9c3.7,0.3,4.9,0.4,4.9,0.4l0.8,11.4
		c4.3,0.6,8.6,1.8,12.8,3.3c0,0.5-0.1,1-0.1,1.5c0.3,0,0.7,0,1.1,0c0.8,0,1.7,0,2.5-0.1c-1.1-0.5-2.3-1-3.5-1.4
		c1.2,0.4,2.3,0.9,3.5,1.4c6.7-0.6,14.4-3.7,22.2-11.8c0,0,8.2-37.3,8.2-71.5c0-13-1.2-25.6-4.5-35.5c0,0,0,0,0,0c0,0,0,0,0,0
		c0,0,0,0,0,0c0,0,0,0,0,0c0,0,0,0,0,0c0,0,0,0,0,0c0-0.1,0-0.1-0.1-0.2l0,0c-0.5-1.3-1-2.6-1.6-3.9c0,0,0,0,0,0c0,0,0,0,0,0
		c0,0,0,0,0,0c0,0,0,0,0,0l0,0c0,0,0,0,0,0c0,0,0,0,0,0c0,0,0,0,0,0c0,0,0,0,0,0c0,0,0,0,0,0c0,0,0,0,0,0c0,0,0,0,0,0
		c0,0,0-0.1-0.1-0.1c0,0,0,0,0,0c0,0,0,0,0,0c0,0,0,0,0,0C388.9,242,375.9,231.3,363.6,227.1"/>
	<path class="st3" d="M391.8,296.6l-2.5,21.1c0,0,12.8,2.9,14.1-7.9S399.7,296.6,391.8,296.6z"/>
	<path class="st3" d="M278.6,287.8l1.1,21.2c0,0-13,2-13.5-8.8S270.8,287.3,278.6,287.8z"/>
	<path class="st6" d="M401.4,304.9c-1-0.8-2.1-1.3-3.2-1.3c-0.6,0-1.1,0-1.6,0.2c-0.5,0.2-1,0.4-1.5,0.7l0.2-0.4
		c-0.1,1.9-0.2,3.9-0.4,5.8l-0.4-0.6c0.7,0.3,1.3,0.6,1.8,1c0.3,0.2,0.6,0.5,0.8,0.8c0.1,0.2,0.2,0.3,0.3,0.5
		c0.1,0.2,0.1,0.4,0.1,0.6c-0.1,0.9-0.8,1.3-1.3,1.7c-0.6,0.4-1.2,0.6-1.8,0.8c0.5-0.4,1.1-0.7,1.5-1.2c0.4-0.4,0.9-0.9,0.8-1.4
		c0-0.4-0.4-0.8-0.9-1.1c-0.5-0.3-1.1-0.6-1.6-0.7l-0.4-0.1l0-0.4c0.1-1.9,0.2-3.9,0.4-5.8l0-0.3l0.2-0.1c0.6-0.3,1.2-0.6,1.8-0.8
		c0.6-0.2,1.3-0.2,2,0C399.6,303.1,400.6,303.9,401.4,304.9z"/>
	<path class="st6" d="M269.1,294.5c0.7-1,1.8-1.8,3.1-2.1c0.6-0.1,1.3-0.1,2,0c0.7,0.1,1.3,0.4,1.8,0.8l0.2,0.1l0,0.3
		c0.2,1.9,0.3,3.9,0.4,5.8l0,0.4l-0.4,0.1c-0.6,0.2-1.1,0.4-1.6,0.7c-0.5,0.3-0.9,0.7-0.9,1.1c-0.1,0.5,0.4,1,0.8,1.4
		c0.5,0.4,1,0.8,1.5,1.2c-0.6-0.2-1.2-0.4-1.8-0.8c-0.5-0.4-1.2-0.8-1.3-1.7c0-0.2,0-0.4,0.1-0.6c0.1-0.2,0.2-0.4,0.3-0.5
		c0.2-0.3,0.5-0.6,0.8-0.8c0.6-0.4,1.2-0.7,1.8-1l-0.4,0.6c-0.2-1.9-0.3-3.9-0.4-5.8l0.2,0.4c-0.5-0.3-0.9-0.6-1.5-0.7
		c-0.5-0.2-1.1-0.2-1.6-0.2C271.1,293.3,270,293.8,269.1,294.5z"/>
	<path class="st7" d="M296,299.5c0.8-2.4,2.4-4.5,4.4-6.1c2-1.7,4.7-2.8,7.5-2.6c1.4,0.1,2.7,0.4,4,1c1.2,0.6,2.3,1.3,3.3,2.2
		c1.9,1.7,3.4,3.8,4.4,6.1c-1.9-1.6-3.7-3.1-5.7-4.3c-1-0.6-2-1.1-3-1.5c-1-0.4-2-0.6-3.1-0.6c-2.1-0.1-4.1,0.5-6.1,1.6
		C299.6,296.3,297.8,297.8,296,299.5z"/>
	<path class="st5" d="M293.9,282.5c1.2-2.7,3.4-5,5.9-6.6c2.6-1.6,5.8-2.6,9-2.3c1.6,0.1,3.2,0.5,4.6,1c1.4,0.6,2.8,1.3,4,2.2
		c2.5,1.8,4.5,4,5.9,6.6c-2.5-1.5-4.9-3.1-7.3-4.2c-1.2-0.6-2.5-1-3.7-1.4c-1.2-0.3-2.5-0.6-3.8-0.7c-2.5-0.2-5,0.3-7.5,1.3
		C298.7,279.4,296.3,280.8,293.9,282.5z"/>
	<path class="st5" d="M346.4,284.2c1.2-2.7,3.4-5,5.9-6.6c2.6-1.6,5.8-2.6,9-2.3c1.6,0.1,3.2,0.5,4.6,1c1.4,0.6,2.8,1.3,4,2.2
		c2.5,1.8,4.5,4,5.9,6.6c-2.5-1.5-4.9-3.1-7.3-4.2c-1.2-0.6-2.5-1-3.7-1.4c-1.2-0.3-2.5-0.6-3.8-0.7c-2.5-0.2-5,0.3-7.5,1.3
		C351.2,281,348.8,282.4,346.4,284.2z"/>
	<path class="st7" d="M371.9,304.9c-1.9-1.6-3.7-3.1-5.7-4.3c-1-0.6-2-1.1-3-1.5c-1-0.4-2-0.6-3.1-0.6c-2.1-0.1-4.1,0.5-6.1,1.6
		c-2,1.1-3.8,2.6-5.6,4.3c0.8-2.4,2.3-4.5,4.4-6.1c2-1.7,4.7-2.8,7.5-2.6c1.4,0.1,2.7,0.4,4,1c1.2,0.6,2.3,1.3,3.3,2.2
		C369.5,300.6,370.9,302.7,371.9,304.9z"/>
	<path class="st6" d="M323.6,303.2c-0.2,0.7-0.5,1.4-0.8,2c-0.3,0.6-0.6,1.3-1,1.9c-0.7,1.2-1.5,2.4-2.3,3.4l-0.3-1.7
		c1,0.7,2,1.5,2.9,2.3c0.9,0.9,1.8,1.7,2.6,2.8c-1.3-0.3-2.5-0.8-3.6-1.3c-1.1-0.5-2.2-1.2-3.3-1.8l-1-0.7l0.8-1
		c0.8-1.1,1.7-2.2,2.7-3.2c0.5-0.5,1-1,1.5-1.4C322.5,304,323,303.6,323.6,303.2z"/>
	<path class="st18" d="M308.7,322.1l46,3.1c0,0-1.9,18.2-26.4,15.3C311.7,338.4,308.7,322.1,308.7,322.1z"/>
	<path class="st19" d="M329,335.5c2-2.2,4.3-3.7,7.1-4.7c1.4-0.3,2.8-0.6,4.3-0.9c3.4-0.5,6.9,0,10.3,0.2c0.8,0.2,1.5,0.4,2.2,0.6
		c1.7-3.1,1.9-5.7,1.9-5.7l-46-3.1c0,0,2.7,14.8,17.4,17.9C326.8,338.4,327.8,336.8,329,335.5z"/>
	<path class="st20" d="M369.1,309.3c-5.7,0-10.3,2.7-10.5,6.1c-0.2,3.6,4.6,6.8,10.7,7.1c0.3,0,0.5,0,0.8,0c1.4,0,2.7-0.2,3.8-0.4
		c1.5-3.1,2.8-6.6,3.9-10.3c-2-1.4-4.8-2.3-8-2.5C369.7,309.3,369.4,309.3,369.1,309.3"/>
	<path class="st21" d="M377.9,311.8c-1.1,3.8-2.4,7.2-3.9,10.3c3.8-0.9,6.5-3.1,6.6-5.7C380.7,314.7,379.7,313.1,377.9,311.8"/>
	<path class="st20" d="M296.8,303.1c-5.7,0-10.3,2.7-10.5,6.1c-0.2,3.6,4.6,6.8,10.7,7.1c0.3,0,0.5,0,0.8,0c5.7,0,10.3-2.7,10.5-6.1
		c0.2-3.6-4.6-6.8-10.7-7.1C297.4,303.1,297.1,303.1,296.8,303.1"/>
	<path class="st22" d="M340.5,191.9c0,0-33-6.3-33.8-27.8s20.2-15,25.9-3.9c0,0,3.3-21.8,20.2-12.9
		C371.6,157.3,349,184.2,340.5,191.9z"/>
	<path class="st11" d="M276.1,279c0.5,0.4,1.1,0.8,1.6,1.3C277.2,279.8,276.7,279.4,276.1,279z"/>
	<path class="st11" d="M323.2,359.3L323.2,359.3c-9.1-31.7-23.3-61.6-45.4-79.1C299.9,297.8,314.1,327.6,323.2,359.3z"/>
	<path class="st12" d="M276.1,278.9L276.1,278.9L276.1,278.9z"/>
	<path class="st12" d="M277.8,280.2L277.8,280.2L277.8,280.2z"/>
	<path class="st23" d="M380.4,383.1c0.4,0.3,0.7,0.5,1.1,0.8C381.2,383.6,380.8,383.3,380.4,383.1"/>
	<path class="st23" d="M374.9,379.7c1.8,1,3.6,2.1,5.4,3.2C378.5,381.8,376.7,380.7,374.9,379.7"/>
	<path class="st23" d="M381.9,384.1c0.4,0.3,0.7,0.5,1.1,0.8C382.6,384.6,382.2,384.3,381.9,384.1"/>
	<path class="st23" d="M367.4,376.3c2.5,1,5,2.1,7.4,3.3C372.4,378.4,369.9,377.3,367.4,376.3"/>
	<path class="st23" d="M398.3,405.7c0.1,0.2,0.1,0.3,0.2,0.5C398.4,406,398.4,405.9,398.3,405.7"/>
	<path class="st23" d="M398.8,407.4c0,0.2,0.1,0.4,0.1,0.6C398.9,407.7,398.9,407.6,398.8,407.4"/>
	<polyline class="st23" points="397.7,403.9 397.8,404.1 397.7,403.9 	"/>
	<path class="st23" d="M396.9,402c0.1,0.2,0.2,0.4,0.2,0.5C397.1,402.3,397,402.1,396.9,402"/>
	<path class="st23" d="M389.3,390.6c0.3,0.4,0.7,0.7,1,1.1C390,391.4,389.6,391,389.3,390.6"/>
	<path class="st23" d="M388,389.3c0.2,0.2,0.5,0.5,0.7,0.7C388.5,389.8,388.3,389.6,388,389.3"/>
	<path class="st23" d="M396.2,400.3c0.1,0.2,0.2,0.4,0.3,0.6C396.4,400.7,396.3,400.5,396.2,400.3"/>
	<path class="st23" d="M393.1,395.3c0.1,0.2,0.3,0.4,0.4,0.6C393.4,395.7,393.3,395.5,393.1,395.3"/>
	<path class="st23" d="M386.8,388.1c0.3,0.2,0.5,0.5,0.8,0.7C387.3,388.6,387,388.3,386.8,388.1"/>
	<path class="st23" d="M383.2,385.1c1.1,0.8,2.1,1.7,3.1,2.6C385.3,386.8,384.2,385.9,383.2,385.1"/>
	<path class="st23" d="M395.4,398.8c0.1,0.2,0.2,0.4,0.3,0.5C395.6,399.2,395.5,399,395.4,398.8"/>
	<path class="st23" d="M394.3,397c0.1,0.1,0.2,0.3,0.3,0.4C394.4,397.3,394.3,397.1,394.3,397"/>
	<path class="st23" d="M399.2,409.1c0,0.2,0.1,0.4,0.1,0.5C399.3,409.5,399.2,409.3,399.2,409.1"/>
	<path class="st23" d="M392.1,393.9c0.2,0.2,0.3,0.4,0.5,0.7C392.4,394.3,392.2,394.1,392.1,393.9"/>
	<path class="st23" d="M391,392.5c0.2,0.2,0.3,0.4,0.5,0.6C391.3,392.9,391.2,392.7,391,392.5"/>
	<path class="st24" d="M340.1,435.2c10.9-8.4,19.7-21.8,23.2-35.2c2-7.6,3.6-15.6,4.1-23.6c-4.2-1.6-8.5-2.7-12.8-3.3l-0.8-11.4
		c0,0-4.4-0.1-20.9-2.1c0,0-5-0.2-9.7-0.1c7.7,26.7,11.8,54.8,13.9,78C338.1,436.6,339.1,435.9,340.1,435.2"/>
	<path class="st23" d="M337.1,437.3L337.1,437.3c-2.2-23.2-6.2-51.3-13.9-78h0C330.9,386.1,335,414.2,337.1,437.3z"/>
	<path class="st25" d="M398.5,406.2c0.1,0.4,0.2,0.8,0.3,1.2C398.7,407,398.6,406.6,398.5,406.2"/>
	<path class="st25" d="M392.6,394.5c0.2,0.3,0.4,0.5,0.6,0.8C393,395.1,392.8,394.8,392.6,394.5"/>
	<path class="st25" d="M397.8,404.1c0.2,0.5,0.4,1.1,0.5,1.6C398.2,405.2,398,404.6,397.8,404.1"/>
	<path class="st25" d="M397.2,402.5c0.2,0.5,0.4,0.9,0.6,1.4C397.6,403.5,397.4,403,397.2,402.5"/>
	<path class="st25" d="M394.5,397.4c0.3,0.5,0.6,0.9,0.8,1.4C395.1,398.3,394.8,397.9,394.5,397.4"/>
	<path class="st25" d="M391.5,393.2c0.2,0.2,0.4,0.5,0.6,0.7C391.9,393.6,391.7,393.4,391.5,393.2"/>
	<path class="st25" d="M395.7,399.4c0.2,0.3,0.4,0.7,0.5,1C396,400,395.8,399.7,395.7,399.4"/>
	<path class="st25" d="M396.5,400.9c0.2,0.3,0.3,0.7,0.5,1C396.8,401.6,396.6,401.3,396.5,400.9"/>
	<path class="st25" d="M393.6,396c0.2,0.3,0.5,0.7,0.7,1C394,396.6,393.8,396.3,393.6,396"/>
	<path class="st25" d="M381.5,383.8c0.1,0.1,0.2,0.2,0.3,0.2C381.8,384,381.6,383.9,381.5,383.8"/>
	<path class="st25" d="M390.3,391.7c0.2,0.3,0.5,0.5,0.7,0.8C390.8,392.3,390.5,392,390.3,391.7"/>
	<polyline class="st25" points="374.8,379.7 374.9,379.7 374.8,379.7 	"/>
	<path class="st25" d="M388.8,390.1c0.2,0.2,0.4,0.4,0.5,0.6C389.1,390.4,388.9,390.2,388.8,390.1"/>
	<polyline class="st26" points="367.4,376.3 367.4,376.3 367.4,376.3 	"/>
	<polyline class="st25" points="380.2,382.9 380.4,383.1 380.2,382.9 	"/>
	<polyline class="st25" points="382.9,384.9 383.2,385.1 382.9,384.9 	"/>
	<path class="st25" d="M399.3,409.6c0.1,0.6,0.2,1.1,0.3,1.7C399.5,410.8,399.4,410.2,399.3,409.6"/>
	<path class="st25" d="M386.3,387.7c0.2,0.1,0.3,0.3,0.5,0.4C386.6,388,386.5,387.8,386.3,387.7"/>
	<path class="st25" d="M399,407.9c0.1,0.4,0.2,0.8,0.3,1.2C399.1,408.7,399,408.3,399,407.9"/>
	<path class="st25" d="M387.5,388.8c0.2,0.2,0.3,0.3,0.5,0.5C387.9,389.2,387.7,389,387.5,388.8"/>
	<path class="st1" d="M203.4,419l12.1,1.6l-4.1-7.2C208.8,415.4,206.1,417.2,203.4,419z"/>
	<path class="st3" d="M184.3,365.9c0,0-32.3,18.5-68.4,20.2c3.4,5.4,10,13.8,18.4,23.9l69.1,9c2.7-1.8,5.4-3.6,8-5.6L184.3,365.9z"
		/>
	<path class="st24" d="M315.2,360.9c-0.6,2.3,0.1,9.6,0.1,9.6s-32.1,4.8-43.1,30.5c-3,7-4.9,16.3-6.1,26.2l70.9,9.2
		c-2.2-23-6.2-50.7-13.8-77C319.2,359.4,315.5,359.8,315.2,360.9z"/>
	<path class="st27" d="M399.6,411.3c-0.1-0.6-0.2-1.1-0.3-1.7c0-0.2-0.1-0.4-0.1-0.5c-0.1-0.4-0.2-0.8-0.3-1.2
		c0-0.2-0.1-0.4-0.1-0.6c-0.1-0.4-0.2-0.8-0.3-1.2c-0.1-0.2-0.1-0.3-0.2-0.5c-0.2-0.5-0.3-1.1-0.5-1.6l-0.1-0.2
		c-0.2-0.5-0.4-1-0.6-1.4c-0.1-0.2-0.2-0.4-0.2-0.5c-0.2-0.3-0.3-0.7-0.5-1c-0.1-0.2-0.2-0.4-0.3-0.6c-0.2-0.3-0.3-0.7-0.5-1
		c-0.1-0.2-0.2-0.4-0.3-0.5c-0.3-0.5-0.5-0.9-0.8-1.4c-0.1-0.1-0.2-0.3-0.3-0.4c-0.2-0.3-0.4-0.7-0.7-1c-0.1-0.2-0.3-0.4-0.4-0.6
		c-0.2-0.3-0.4-0.5-0.6-0.8c-0.2-0.2-0.3-0.4-0.5-0.7c-0.2-0.2-0.4-0.5-0.6-0.7c-0.2-0.2-0.3-0.4-0.5-0.6c-0.2-0.3-0.5-0.5-0.7-0.8
		c-0.3-0.4-0.7-0.7-1-1.1c-0.2-0.2-0.4-0.4-0.5-0.6c-0.2-0.2-0.5-0.5-0.7-0.7c-0.2-0.2-0.3-0.3-0.5-0.5c-0.3-0.2-0.5-0.5-0.8-0.7
		c-0.2-0.1-0.3-0.3-0.5-0.4c-1-0.9-2.1-1.8-3.1-2.6l-0.2-0.2c-0.3-0.3-0.7-0.5-1.1-0.8c-0.1-0.1-0.2-0.2-0.3-0.2
		c-0.4-0.3-0.7-0.5-1.1-0.8l-0.2-0.1c-1.7-1.2-3.5-2.2-5.4-3.2l-0.1-0.1c-2.4-1.3-4.8-2.4-7.4-3.3l0,0c-0.5,8-2.1,16-4.1,23.6
		c-3.5,13.4-12.3,26.9-23.2,35.2c-0.6,0.5-1.2,0.9-1.8,1.4l62.5,8.1c0-12.3-0.3-24.7-1.1-32.4C399.6,412,399.6,411.6,399.6,411.3z"
		/>
	<path class="st3" d="M361.3,381.2c0,0,5.1-11.5,12-10.9c13.7,1.1,25.1,16.9,10.4,27.4c-14.7,10.4,0.4-11,0.4-11s-29.1,25.9-4.9-4.7
		c0,0-28.5,28.1-6.5-3.9C372.7,378,350.3,400,361.3,381.2z"/>
	<path class="st28" d="M62.5,14.2l-59.7,370l8.6,9.8l454.8,59.1l68.1-348.6l-8.6-9.8L62.5,14.2z M444.3,426.5L38.4,371.4L87.6,48.8
		l411.8,77.1L444.3,426.5z"/>
	<polygon class="st29" points="435.7,416.7 435.7,416.2 30.3,361.2 79.3,39.6 490.2,116.5 435.2,416.6 435.7,416.7 435.7,416.2 
		435.7,416.7 436.1,416.8 491.3,115.7 78.5,38.4 29.2,362 436.1,417.2 436.1,416.8 	"/>
	<path class="st30" d="M53.9,4.4l-51,379.9l454.8,59.1l68.1-348.6L53.9,4.4z M435.7,416.7L29.7,361.6L78.9,39l411.8,77.1
		L435.7,416.7z"/>
	<path class="st30" d="M53.9,4.4l-51,379.9l454.8,59.1l68.1-348.6L53.9,4.4z M435.7,416.7L29.7,361.6L78.9,39l411.8,77.1
		L435.7,416.7z"/>
</g>
</svg>
