<?xml version="1.0" encoding="utf-8"?>
<!-- Generator: Adobe Illustrator 22.0.1, SVG Export Plug-In . SVG Version: 6.00 Build 0)  -->
<svg version="1.1" id="Capa_1" xmlns="http://www.w3.org/2000/svg" xmlns:xlink="http://www.w3.org/1999/xlink" x="0px" y="0px"
	 viewBox="0 0 745.5 633.5" style="enable-background:new 0 0 745.5 633.5;" xml:space="preserve">
<style type="text/css">
	.st0{fill:#8D5F4F;}
	.st1{fill:#FFDCC9;}
	.st2{fill:#FFC8B3;}
	.st3{fill:#FFD5C2;}
	.st4{fill:#A3715E;}
	.st5{fill:#805143;}
	.st6{fill:#DCA790;}
	.st7{fill:#292929;}
	.st8{fill:#FFFFFF;}
	.st9{fill:#FF7373;}
	.st10{fill:#FF4D4D;}
	.st11{fill:#F88985;}
	.st12{fill:#E37B7B;}
	.st13{fill:#F3BBAA;}
	.st14{fill:#C8816B;}
	.st15{fill:#E5B4A1;}
	.st16{fill:#E5E5E5;}
	.st17{fill:#B47460;}
	.st18{fill:#FF9D9D;}
	.st19{fill:#9D4F4F;}
	.st20{fill:#FDBEB0;}
	.st21{fill:#FDB5A5;}
	.st22{fill:#FF0000;}
	.st23{fill:#00AB90;}
	.st24{fill:#00BC98;}
	.st25{fill:#F0F0F0;}
	.st26{fill:#A96D5A;}
	.st27{fill:#02A888;}
	.st28{fill:#C4873D;}
	.st29{fill:#FCC581;}
	.st30{fill:#FFB655;}
</style>
<g>
	<path class="st0" d="M234.7,127.4c0,0,43.9-34.3,96.3-8.4c60.4,29.8,41.3,69.8,69.2,121.7c27.4,50.9,46.7,135.9-60.3,162.7
		c-83.6,20.9-73.8-105.6-73.8-105.6L234.7,127.4z"/>
	<path class="st1" d="M297.8,327.3v40.1l58.7,6.7c0,0-55.3,47.2-151.5,5.9l44.7-11.5v-41.3H297.8z"/>
	<path class="st2" d="M297.8,327.3v40.1l53.1,6c0,0-49.7,47.9-146,6.6l44.7-11.5v-41.3H297.8z"/>
	<path class="st3" d="M253.8,135.4c0,0,39.7-2.3,65.7,17.6c26,19.9,38.2,47.4,42,90.2c3.8,42.8-9.4,92.5-56.8,101.7
		c-48.4,9.4-121-20.5-125.6-71.7c0,0-1.8,7.5-9.4-4.7c-7.6-12.2-13.8-71.8,6.1-61.1C195.7,218,253.8,135.4,253.8,135.4z"/>
	<path class="st2" d="M216.4,289.2c-9-12.3-14.6-32.5-14.9-48.3c-0.2-12.6,0.2-23.3,1.9-35.5c0.7-4.9,2-9.6,3.7-14.1
		c-12.4,11.8-24.2,19.8-31.3,16c-19.9-10.7-13.8,48.9-6.1,61.1c7.6,12.2,9.4,4.7,9.4,4.7c4.6,51.2,77.2,81.1,125.6,71.7
		c13.8-2.7,24.7-8.8,33.1-17.1C315.7,339.1,258.1,346,216.4,289.2z"/>
	<path class="st4" d="M285.9,139.3c0,0-9.2,85.6-92.5,103.2c0,0-3-29.3-18.3-22.2c-19.9,9.2-6.8,57,17.7,57.8
		c0,0-1.4,44.4,58.4,63.3c0,0,0.8,32.8-3.8,35.1c-4.6,2.3-65.3,26.4-105.8-12.6s-21.4-105.5-0.8-160.5s48.1-106.2,100.1-107
		S285.9,139.3,285.9,139.3z"/>
	<path class="st0" d="M192.8,278.1c-24.5-0.8-37.5-48.6-17.7-57.8c15.4-7.1,18.3,22.2,18.3,22.2c11.9-2.5,22.2-6.4,31.3-11.2
		c-1.1-0.5-2.1-1-3.2-1.6c-15.2-8.5-17.9-10.5-30.2-22.9c-5.3-5.4-8.6-12.2-12.3-18.8c-8.1-14.5-10-30.2-8.9-46
		c-11.7,17.9-21.1,39.4-29.4,61.6c-20.6,55-39.7,121.5,0.8,160.5s101.3,14.9,105.8,12.6c4.6-2.3,3.8-35.1,3.8-35.1
		C191.3,322.4,192.8,278.1,192.8,278.1z"/>
	<path class="st5" d="M221,205.7c1.5-2,3.3-3.7,5.2-5.2c2-1.5,4.1-2.9,6.3-4c4.5-2.2,9.5-3.6,14.5-3.9c5.1-0.3,10.2,0.5,14.9,2.2
		c4.7,1.8,9,4.4,12.5,7.8c-4.6-1.7-9-3.3-13.6-4.2c-4.5-1-9.1-1.3-13.6-1.1c-4.5,0.3-9,1.2-13.4,2.6
		C229.5,201.5,225.2,203.4,221,205.7z"/>
	<path class="st5" d="M304.3,199c1.3-1.7,2.9-3.2,4.6-4.5c1.7-1.3,3.6-2.4,5.5-3.4c3.9-1.9,8.3-3,12.7-3.3c4.4-0.3,8.9,0.4,12.9,1.9
		c4.1,1.5,7.8,3.8,10.9,6.7c-4.1-1.3-8-2.4-11.9-3.1c-3.9-0.7-7.8-1-11.7-0.7c-3.9,0.2-7.8,0.9-11.6,2
		C311.9,195.7,308.1,197.2,304.3,199z"/>
	<path class="st6" d="M305,243.2c1.4,1.6,2.6,3.3,4,4.9c1.3,1.6,2.6,3.3,3.9,4.9c1.3,1.6,2.6,3.2,4,4.8c1.4,1.5,2.8,3.1,4.2,4.4
		l0.8,0.8l-0.7,0.8c-1.1,1.3-2.3,2.4-3.6,3.5c-1.2,1.1-2.6,2.1-4,2.9c-1.4,0.9-2.9,1.7-4.5,2.2c-1.6,0.5-3.3,0.8-4.9,0.6
		c3.2-0.5,5.9-2.2,8.4-4.2c1.2-1,2.4-2,3.5-3.1c1.1-1.1,2.2-2.3,3.2-3.4l0.1,1.6c-1.6-1.4-3.1-3-4.4-4.7c-1.4-1.6-2.6-3.4-3.8-5.1
		c-1.2-1.8-2.3-3.5-3.4-5.4C306.9,247,305.9,245.1,305,243.2z"/>
	<path class="st7" d="M227.1,246.2c1.6-4.1,4.3-7.9,7.8-10.8c1.7-1.5,3.7-2.7,5.9-3.6c2.2-0.9,4.6-1.4,7-1.4c2.4,0,4.8,0.5,7,1.2
		c1.1,0.5,2.2,0.9,3.2,1.5c0.5,0.3,1,0.5,1.5,0.9l1.4,1c3.7,2.6,6.7,6,9.1,9.8c-3.5-2.7-6.9-5.4-10.6-7.4c-1.8-1-3.7-1.8-5.6-2.4
		c-1.9-0.6-3.9-0.9-5.9-0.9c-3.9,0-7.8,1.4-11.3,3.6C233.1,239.9,229.9,242.9,227.1,246.2z"/>
	<path class="st7" d="M315.7,243.2c1.3-3.9,3.5-7.5,6.6-10.5c1.5-1.5,3.3-2.8,5.3-3.7c2-0.9,4.2-1.5,6.5-1.5c2.3,0,4.5,0.5,6.5,1.3
		c2,0.9,3.9,2,5.5,3.4c3.3,2.7,5.8,6,7.8,9.6c-3.1-2.7-6.1-5.4-9.4-7.4c-1.7-1-3.3-1.9-5.1-2.5c-1.8-0.6-3.5-0.9-5.3-0.9
		c-3.6,0-7.1,1.6-10.1,3.9C321,237,318.2,240,315.7,243.2z"/>
	<path class="st8" d="M258.3,285.7c0,0,39.5,6.4,56.4,6.1c0,0-8.5,15.6-30.1,12.7C263,301.6,258.3,285.7,258.3,285.7z"/>
	<path class="st6" d="M171.1,248.2c-0.2-1.8-0.3-3.7-0.2-5.6c0.1-1.9,0.3-3.7,0.8-5.6c0.4-1.8,1.1-3.7,2.4-5.3
		c0.6-0.8,1.5-1.5,2.5-2c1-0.4,2.2-0.6,3.2-0.5c2.1,0.1,4.2,1.2,5.6,2.8c1.4,1.6,2.1,3.6,2.5,5.5c0.7,3.9,0.4,7.7-0.3,11.4l-0.1,0.3
		l-0.3,0.2c-1.1,0.9-2.1,1.9-2.9,3.1c-0.8,1.1-1.6,2.4-1.8,3.7c-0.3,1.3,0,2.7,0.8,3.9c0.8,1.2,2,2.1,3.3,2.9
		c-1.4-0.5-2.8-1.3-3.9-2.4c-1.1-1.2-1.7-2.9-1.5-4.6c0.2-1.7,0.9-3.2,1.7-4.5c0.9-1.3,1.9-2.5,3.1-3.6l-0.3,0.6
		c0.3-1.7,0.4-3.5,0.4-5.3c0-1.8-0.1-3.5-0.4-5.2c-0.4-1.7-1-3.3-2-4.5c-1-1.2-2.4-1.9-4-2.1c-1.5-0.2-3,0.3-4.1,1.5
		c-1.1,1.2-1.8,2.8-2.4,4.5C172,240.8,171.4,244.5,171.1,248.2z"/>
	<path class="st9" d="M159.4,536.2c50-2.4,94.8-28,94.8-28l37.5,65.8c3.8-2.9,7.4-5.9,11-9.1c22.3-20.3,40.8-45.2,49.3-74.5
		c8.5-29.5,10-57.7,9.9-88.2c0-10-0.5-18.9-3.1-27.4c-10.1-4.1-21.2-6.7-33.2-7.3c0,0-3.1,24.5-44.3,27.5
		c-38.9,2.9-46.5-16.6-46.5-16.6s-63.6,4.8-77.6,49.6c-14.5,46.4-11.5,95.3-2.7,137.5l30.4,4C173.3,555.3,164.2,543.7,159.4,536.2z"
		/>
	<path class="st10" d="M352,490.3c-8.4,29.3-27,54.2-49.3,74.5c-3.5,3.2-7.2,6.3-11,9.1l5.7,9.9l70.3,9.1
		c1.6-13.7,4.3-26.7,8.4-36.4c15.3-35.6,59.8-42.2,59.8-42.2s-1-10.2-0.2-13.3c0.4-1.4,5.6-2,11.1-2.1
		c-12.6-44-32.3-85.4-62.9-109.6l-0.1,0c-0.7-0.6-1.5-1.2-2.3-1.7l0,0c-7-5.2-14.5-9.6-22.6-12.9l0,0c2.5,8.5,3.1,17.5,3.1,27.4
		C362,432.6,360.5,460.8,352,490.3"/>
	<path class="st11" d="M358.9,374.7c8.1,3.3,15.6,7.7,22.6,12.9C374.5,382.4,367,378,358.9,374.7z"/>
	<polygon class="st12" points="358.9,374.7 358.9,374.7 358.9,374.7 	"/>
	<polyline class="st13" points="441,486.6 440.5,523.3 484,525.6 483.4,486.6 441,486.6 	"/>
	<path class="st3" d="M434.7,334.1c0,0-42.9,18.4-42.9,88.4c0,58.2,47.5,70.9,68.9,72.7c39.5,3.4,85.8-22.4,79-101.8
		C532.9,313.9,434.7,334.1,434.7,334.1"/>
	<path class="st2" d="M539.6,393.4c-2.4-28.3-16.4-43.9-33.4-52.4c10.5,9.3,18.2,23.1,20,43.4c6.8,79.4-39.5,105.2-79,101.8
		c-8.4-0.7-20.8-3.1-32.8-9.3c15.2,13,34.6,17.3,46.2,18.2C500.1,498.6,546.4,472.8,539.6,393.4"/>
	<path class="st14" d="M466.8,339.3c0,0-17.2,56.2-69.4,54.4c0,0-13.8,35.5,1.7,63.6c13,23.5,25.8,27.5,41.8,33.2v25.2
		c0,0-36.1,2.3-63-14.3c0,0-13.2-62.5,4.6-124.9c17.8-62.5,59.6-66.5,79.7-61.3C482.3,320.4,466.8,339.3,466.8,339.3z"/>
	<path class="st14" d="M467.4,327.3c0,0-20.6,62.5,64.8,72.8c0,0,16,76.8-50.4,93.4l1.7,22.4c0,0,29.2,24.4,60.2-7.6
		c0,0,21.8-98.6,5.2-148.3C537.1,324.8,481.2,294.6,467.4,327.3"/>
	<path class="st15" d="M532.1,400c0,0,0.1,0,0.1,0C532.1,400,532.1,400,532.1,400 M532,400C532,400,532,400,532,400
		C532,400,532,400,532,400 M531.8,400C531.8,400,531.9,400,531.8,400C531.9,400,531.8,400,531.8,400"/>
	<path class="st16" d="M555,409.1c0,45.4-10.5,94.7-11.4,98.8C544.6,503.8,555,454.5,555,409.1"/>
	<path class="st17" d="M508,522.6L508,522.6L508,522.6 M502.8,315.8c2.5,2.4,4.8,4.8,6.8,7.3c10.1,13,14.8,29.7,12.8,46
		c-1.2,9.7-4.7,19-10.1,27.1c5.8,1.6,12.3,2.9,19.6,3.8c0,0,0,0,0,0c0,0,0.1,0,0.1,0c0,0,0,0,0.1,0c0,0,0,0,0,0c0,0,0.1,0,0.1,0l0,0
		c0,0,1.7,8.1,1.7,19.7c0,23.9-7.3,62.5-52.1,73.7l0.6,8.1c5.1,0.5,6.8,0.5,6.8,0.5l1.1,15.8c6,0.9,11.9,2.4,17.7,4.6
		c0,0.7-0.1,1.4-0.1,2.1c0.5,0,1,0,1.5,0c1.1,0,2.3,0,3.5-0.2c-1.6-0.7-3.2-1.4-4.8-2c1.6,0.6,3.2,1.3,4.8,2
		c9.3-0.8,19.9-5.1,30.8-16.4c0,0,0-0.1,0.1-0.3c0.9-4.1,11.4-53.4,11.4-98.8c0-18.1-1.7-35.5-6.2-49.2
		C542.2,340.3,521.9,322.2,502.8,315.8"/>
	<path class="st3" d="M541.9,412.1l-3.4,29.2c0,0,17.8,4,19.5-10.9C559.7,415.5,552.8,412.1,541.9,412.1z"/>
	<path class="st3" d="M385,399.9l1.5,29.4c0,0-18,2.8-18.7-12.2C367,402.2,374.1,399.2,385,399.9z"/>
	<path class="st6" d="M555.1,423.5c-1.3-1.1-2.8-1.8-4.4-2c-0.8-0.1-1.6,0-2.3,0.3c-0.8,0.2-1.4,0.6-2.1,1l0.2-0.4
		c-0.1,2.7-0.3,5.4-0.6,8l-0.4-0.6c0.9,0.3,1.7,0.8,2.5,1.3c0.4,0.3,0.8,0.6,1,1.1c0.3,0.4,0.5,1,0.5,1.5c0,0.6-0.3,1-0.6,1.4
		c-0.3,0.4-0.7,0.7-1.1,0.9c-0.8,0.5-1.6,0.9-2.5,1.2c0.8-0.5,1.5-0.9,2.2-1.5c0.6-0.6,1.2-1.3,1.2-2c0-0.7-0.6-1.3-1.3-1.7
		c-0.7-0.5-1.5-0.8-2.3-1.1l-0.4-0.1l0-0.4c0.2-2.7,0.3-5.4,0.6-8l0-0.3l0.2-0.1c0.8-0.4,1.6-0.9,2.5-1.1c0.9-0.2,1.8-0.2,2.7-0.1
		c0.9,0.2,1.7,0.5,2.4,1C553.9,422.3,554.6,422.9,555.1,423.5z"/>
	<path class="st6" d="M371.7,409.2c0.5-0.7,1.2-1.2,1.9-1.7c0.7-0.5,1.6-0.8,2.4-1c0.9-0.2,1.8-0.2,2.7,0.1c0.9,0.2,1.7,0.6,2.5,1.1
		l0.2,0.1l0,0.3c0.3,2.7,0.4,5.3,0.6,8l0,0.4l-0.4,0.1c-0.8,0.3-1.6,0.6-2.3,1.1c-0.7,0.4-1.3,1.1-1.3,1.7c0,0.7,0.6,1.4,1.2,2
		c0.7,0.6,1.4,1.1,2.2,1.5c-0.9-0.3-1.7-0.7-2.5-1.2c-0.4-0.3-0.8-0.5-1.1-0.9c-0.3-0.4-0.6-0.8-0.6-1.4c-0.1-0.6,0.2-1.1,0.5-1.5
		c0.3-0.4,0.7-0.8,1-1.1c0.8-0.6,1.6-1,2.5-1.3l-0.4,0.6c-0.2-2.7-0.4-5.3-0.6-8l0.2,0.4c-0.7-0.4-1.4-0.8-2.1-1
		c-0.7-0.3-1.5-0.3-2.3-0.3C374.5,407.4,373,408.1,371.7,409.2z"/>
	<path class="st7" d="M409,416.1c1.3-3.1,3.5-5.9,6.3-8.1c1.4-1.1,3-2,4.7-2.6c1.7-0.6,3.6-0.9,5.4-0.8c1.9,0.1,3.7,0.6,5.3,1.3
		c1.6,0.8,3.1,1.7,4.5,2.9c2.7,2.3,4.7,5.1,6.3,8.1c-2.5-2.3-4.9-4.6-7.6-6.4c-1.4-0.9-2.7-1.6-4.2-2.2c-1.5-0.5-2.9-0.9-4.4-1
		c-3-0.2-6,0.8-8.7,2.5C413.8,411.4,411.3,413.6,409,416.1z"/>
	<path class="st5" d="M406.2,392.6c1.9-3.6,4.9-6.5,8.5-8.7c3.6-2.2,7.9-3.4,12.2-3.1c2.1,0.1,4.3,0.6,6.2,1.3
		c0.5,0.2,1,0.4,1.5,0.6c0.5,0.2,1,0.4,1.4,0.7c0.5,0.3,0.9,0.5,1.4,0.8l1.3,0.9c3.4,2.3,6.3,5.3,8.4,8.7c-3.3-2.3-6.5-4.6-9.9-6.3
		c-1.7-0.9-3.4-1.5-5.2-2.1c-1.8-0.5-3.6-0.9-5.4-1c-3.6-0.3-7.2,0.5-10.7,2C412.5,387.9,409.2,390,406.2,392.6z"/>
	<path class="st5" d="M479,394.9c1.9-3.6,4.9-6.5,8.5-8.7c3.6-2.2,7.9-3.4,12.2-3.1c2.1,0.1,4.3,0.6,6.2,1.3c0.5,0.2,1,0.4,1.5,0.6
		c0.5,0.2,1,0.4,1.4,0.7c0.5,0.3,0.9,0.5,1.4,0.8l1.3,0.9c3.4,2.3,6.3,5.3,8.4,8.7c-3.3-2.3-6.5-4.6-9.9-6.3
		c-1.7-0.9-3.4-1.5-5.2-2.1c-1.8-0.5-3.6-0.9-5.4-1c-3.6-0.3-7.2,0.5-10.7,2C485.3,390.2,482,392.3,479,394.9z"/>
	<path class="st7" d="M514.3,423.7c-2.5-2.3-4.9-4.6-7.6-6.4c-1.4-0.9-2.7-1.6-4.2-2.2c-1.5-0.5-2.9-0.9-4.4-1c-3-0.2-6,0.8-8.7,2.5
		c-2.7,1.7-5.2,3.9-7.5,6.4c1.3-3.1,3.5-6,6.3-8.1c1.4-1.1,3-2,4.7-2.6c1.7-0.6,3.6-0.9,5.4-0.8c1.9,0.1,3.7,0.6,5.3,1.3
		c1.6,0.8,3.1,1.7,4.5,2.9C510.7,417.8,512.7,420.7,514.3,423.7z"/>
	<path class="st6" d="M447.4,421.3c-0.4,0.9-0.8,1.8-1.2,2.7c-0.5,0.8-0.9,1.7-1.4,2.5c-1,1.6-2.1,3.2-3.3,4.7l-0.3-1.7
		c1.4,1,2.8,2,4.1,3.1c1.3,1.1,2.6,2.3,3.8,3.6c-1.7-0.6-3.3-1.3-4.8-2.1c-1.5-0.8-3-1.7-4.5-2.6l-1-0.7l0.8-1
		c1.1-1.5,2.3-3,3.6-4.4c0.6-0.7,1.3-1.4,2-2.1C445.9,422.5,446.6,421.8,447.4,421.3z"/>
	<path class="st18" d="M426.7,447.4l63.8,4.3c0,0-2.7,25.3-36.6,21.2C430.8,470,426.7,447.4,426.7,447.4z"/>
	<path class="st19" d="M454.8,466c2.7-3,6-5.2,9.8-6.5c2-0.4,3.9-0.8,5.9-1.2c4.7-0.7,9.5-0.1,14.2,0.3c1,0.2,2.1,0.5,3,0.8
		c2.3-4.3,2.7-7.8,2.7-7.8l-63.8-4.3c0,0,3.7,20.6,24.1,24.9C451.8,470,453.1,467.9,454.8,466z"/>
	<path class="st20" d="M510.4,429.7c-7.9,0-14.3,3.7-14.5,8.5c-0.2,5.1,6.4,9.5,14.9,9.8c0.4,0,0.8,0,1.1,0c1.9,0,3.7-0.2,5.3-0.6
		c2.1-4.4,3.9-9.1,5.4-14.3c-2.7-1.9-6.6-3.2-11.1-3.4C511.2,429.7,510.8,429.7,510.4,429.7"/>
	<path class="st21" d="M522.6,433.2c-1.5,5.2-3.3,10-5.4,14.3c5.3-1.2,9-4.2,9.2-7.9C526.5,437.2,525.1,434.9,522.6,433.2"/>
	<path class="st20" d="M410.2,421.1c-7.9,0-14.3,3.7-14.5,8.5c-0.2,5.1,6.4,9.5,14.9,9.8c0.4,0,0.8,0,1.1,0c7.9,0,14.3-3.7,14.5-8.5
		c0.2-5.1-6.4-9.5-14.9-9.8C411,421.1,410.6,421.1,410.2,421.1"/>
	<path class="st22" d="M470.7,266.9c0,0-45.7-8.7-46.9-38.6c-1.1-29.8,28-20.8,35.9-5.3c0,0,4.6-30.3,28-17.9
		C513.8,218.9,482.5,256.3,470.7,266.9z"/>
	<path class="st11" d="M381.5,387.6c0.8,0.6,1.5,1.2,2.3,1.7C383,388.8,382.3,388.2,381.5,387.6z"/>
	<path class="st11" d="M446.8,499L446.8,499c-12.6-44-32.3-85.4-62.9-109.6C414.5,413.7,434.1,455,446.8,499z"/>
	<path class="st12" d="M381.5,387.6L381.5,387.6L381.5,387.6z"/>
	<path class="st12" d="M383.8,389.4L383.8,389.4L383.8,389.4z"/>
	<path class="st23" d="M526.1,532c0.5,0.4,1,0.7,1.5,1.1C527.1,532.7,526.6,532.3,526.1,532"/>
	<path class="st23" d="M518.4,527.3c2.6,1.4,5,2.9,7.4,4.5C523.4,530.2,521,528.7,518.4,527.3"/>
	<path class="st23" d="M528.1,533.4c0.5,0.4,1,0.7,1.5,1.1C529.1,534.1,528.6,533.7,528.1,533.4"/>
	<path class="st23" d="M508,522.6c3.5,1.3,6.9,2.9,10.2,4.6C515,525.5,511.5,523.9,508,522.6"/>
	<path class="st23" d="M550.9,563.3c0.1,0.2,0.1,0.5,0.2,0.7C551.1,563.8,551,563.6,550.9,563.3"/>
	<path class="st23" d="M551.6,565.6c0.1,0.3,0.1,0.5,0.2,0.8C551.7,566.2,551.6,565.9,551.6,565.6"/>
	<polyline class="st23" points="550.1,560.9 550.2,561.1 550.1,560.9 	"/>
	<path class="st23" d="M549,558.1c0.1,0.3,0.2,0.5,0.3,0.8C549.2,558.7,549.1,558.4,549,558.1"/>
	<path class="st23" d="M538.4,542.4c0.5,0.5,0.9,1,1.4,1.5C539.3,543.4,538.9,542.9,538.4,542.4"/>
	<path class="st23" d="M536.6,540.6c0.3,0.3,0.7,0.7,1,1C537.3,541.3,537,541,536.6,540.6"/>
	<path class="st23" d="M547.9,555.9c0.1,0.3,0.3,0.5,0.4,0.8C548.2,556.5,548.1,556.2,547.9,555.9"/>
	<path class="st23" d="M543.7,549c0.2,0.3,0.4,0.6,0.6,0.9C544.1,549.5,543.9,549.2,543.7,549"/>
	<path class="st23" d="M534.9,538.9c0.4,0.3,0.7,0.7,1.1,1C535.6,539.6,535.2,539.3,534.9,538.9"/>
	<path class="st23" d="M529.9,534.7c1.5,1.2,3,2.4,4.4,3.6C532.8,537.1,531.4,535.9,529.9,534.7"/>
	<path class="st23" d="M546.8,553.8c0.1,0.2,0.3,0.5,0.4,0.8C547.1,554.3,546.9,554,546.8,553.8"/>
	<path class="st23" d="M545.3,551.2c0.1,0.2,0.3,0.4,0.4,0.6C545.5,551.6,545.4,551.4,545.3,551.2"/>
	<path class="st23" d="M552.1,568.1c0,0.2,0.1,0.5,0.1,0.7C552.2,568.5,552.2,568.3,552.1,568.1"/>
	<path class="st23" d="M542.2,547c0.2,0.3,0.5,0.6,0.7,0.9C542.7,547.6,542.5,547.3,542.2,547"/>
	<path class="st23" d="M540.7,545.1c0.2,0.3,0.5,0.6,0.7,0.9C541.2,545.7,541,545.4,540.7,545.1"/>
	<path class="st24" d="M470.2,604.2c15.1-11.6,27.4-30.2,32.2-48.8c2.7-10.5,5-21.6,5.6-32.7c-5.8-2.2-11.7-3.7-17.7-4.6l-1.1-15.8
		c0,0-6.1-0.2-29-2.9c0,0-6.9-0.3-13.4-0.2c10.6,37.1,16.3,76,19.3,108.2C467.5,606.2,468.9,605.2,470.2,604.2"/>
	<path class="st23" d="M466.1,607.2L466.1,607.2c-3-32.2-8.6-71.1-19.3-108.2h0C457.4,536.1,463.1,575,466.1,607.2"/>
	<path class="st25" d="M551.1,564c0.2,0.5,0.3,1.1,0.4,1.6C551.4,565.1,551.3,564.6,551.1,564"/>
	<path class="st25" d="M542.9,547.9c0.3,0.4,0.5,0.7,0.8,1.1C543.5,548.6,543.2,548.2,542.9,547.9"/>
	<path class="st25" d="M550.2,561.1c0.3,0.7,0.5,1.5,0.7,2.2C550.7,562.6,550.4,561.8,550.2,561.1"/>
	<path class="st25" d="M549.3,558.9c0.3,0.7,0.5,1.3,0.8,2C549.8,560.2,549.6,559.6,549.3,558.9"/>
	<path class="st25" d="M545.6,551.9c0.4,0.6,0.8,1.3,1.1,1.9C546.4,553.1,546,552.5,545.6,551.9"/>
	<path class="st25" d="M541.4,546c0.3,0.3,0.5,0.7,0.8,1C542,546.6,541.7,546.3,541.4,546"/>
	<path class="st25" d="M547.5,555.2c0.1,0.3,0.3,0.5,0.4,0.8C547.8,555.7,547.7,555.4,547.5,555.2 M547.2,554.5
		c0.1,0.2,0.2,0.4,0.3,0.6C547.4,554.9,547.3,554.7,547.2,554.5"/>
	<path class="st25" d="M548.3,556.7c0.2,0.5,0.4,0.9,0.7,1.4C548.8,557.7,548.5,557.2,548.3,556.7"/>
	<path class="st25" d="M544.3,549.8c0.3,0.5,0.6,0.9,0.9,1.4C545,550.8,544.6,550.3,544.3,549.8"/>
	<path class="st25" d="M527.6,533c0.1,0.1,0.3,0.2,0.4,0.3C527.9,533.3,527.8,533.1,527.6,533"/>
	<path class="st25" d="M539.8,543.9c0.3,0.4,0.6,0.7,1,1.1C540.4,544.7,540.1,544.3,539.8,543.9"/>
	<polyline class="st25" points="518.3,527.2 518.4,527.3 518.3,527.2 	"/>
	<path class="st25" d="M537.6,541.6c0.3,0.3,0.5,0.5,0.8,0.8C538.1,542.2,537.9,541.9,537.6,541.6"/>
	<polyline class="st26" points="508,522.6 508,522.6 508,522.6 	"/>
	<polyline class="st25" points="525.8,531.8 526.1,532 525.8,531.8 	"/>
	<path class="st25" d="M529.6,534.5c0.1,0.1,0.2,0.2,0.3,0.2C529.8,534.6,529.7,534.5,529.6,534.5"/>
	<path class="st25" d="M552.3,568.8c0.1,0.8,0.3,1.6,0.4,2.4C552.5,570.4,552.4,569.6,552.3,568.8"/>
	<path class="st25" d="M534.2,538.4c0.2,0.2,0.4,0.4,0.6,0.6C534.7,538.7,534.4,538.5,534.2,538.4"/>
	<path class="st25" d="M551.8,566.4c0.1,0.5,0.2,1.1,0.3,1.6C552,567.5,551.9,567,551.8,566.4"/>
	<path class="st25" d="M535.9,539.9c0.2,0.2,0.5,0.5,0.7,0.7C536.4,540.4,536.2,540.2,535.9,539.9"/>
	<path class="st1" d="M280.7,581.7l16.7,2.2l-5.7-9.9C288.2,576.7,284.5,579.3,280.7,581.7z"/>
	<path class="st3" d="M254.2,508.2c0,0-44.8,25.6-94.8,28c4.7,7.4,13.8,19.1,25.6,33.1l95.7,12.4c3.8-2.5,7.5-5,11-7.8L254.2,508.2z
		"/>
	<path class="st24" d="M435.7,501.2c-0.8,3.1,0.2,13.3,0.2,13.3s-44.5,6.6-59.8,42.2c-4.2,9.7-6.8,22.6-8.4,36.4l98.2,12.8
		c-3-31.9-8.7-70.2-19.2-106.8C441.3,499.2,436.1,499.7,435.7,501.2z"/>
	<path class="st27" d="M552.6,571.2c-0.1-0.8-0.2-1.6-0.4-2.4c0-0.2-0.1-0.5-0.1-0.7c-0.1-0.5-0.2-1.1-0.3-1.6
		c-0.1-0.3-0.1-0.5-0.2-0.8c-0.1-0.5-0.3-1.1-0.4-1.6c-0.1-0.2-0.1-0.5-0.2-0.7c-0.2-0.7-0.5-1.5-0.7-2.2l-0.1-0.2
		c-0.2-0.7-0.5-1.3-0.8-2c-0.1-0.3-0.2-0.5-0.3-0.8c-0.2-0.5-0.4-0.9-0.7-1.4c-0.1-0.3-0.3-0.5-0.4-0.8c-0.2-0.5-0.5-0.9-0.7-1.4
		c-0.1-0.3-0.3-0.5-0.4-0.8c-0.4-0.7-0.7-1.3-1.1-1.9c-0.1-0.2-0.3-0.4-0.4-0.6c-0.3-0.5-0.6-1-0.9-1.4c-0.2-0.3-0.4-0.6-0.6-0.9
		c-0.3-0.4-0.5-0.7-0.8-1.1c-0.2-0.3-0.5-0.6-0.7-0.9c-0.3-0.3-0.5-0.7-0.8-1c-0.2-0.3-0.5-0.6-0.7-0.9c-0.3-0.4-0.6-0.7-1-1.1
		c-0.4-0.5-0.9-1-1.4-1.5c-0.3-0.3-0.5-0.5-0.8-0.8c-0.3-0.3-0.7-0.7-1-1c-0.2-0.2-0.5-0.5-0.7-0.7c-0.4-0.3-0.7-0.7-1.1-1
		c-0.2-0.2-0.4-0.4-0.6-0.6c-1.4-1.3-2.9-2.5-4.4-3.6c-0.1-0.1-0.2-0.2-0.3-0.2c-0.5-0.4-1-0.7-1.5-1.1c-0.1-0.1-0.3-0.2-0.4-0.3
		c-0.5-0.4-1-0.7-1.5-1.1l-0.3-0.2c-2.4-1.6-4.9-3.1-7.4-4.5l-0.1-0.1c-3.3-1.8-6.7-3.3-10.2-4.6l0,0c-0.6,11.1-2.9,22.2-5.6,32.7
		c-4.8,18.6-17.1,37.2-32.2,48.8c-0.8,0.6-1.7,1.3-2.5,1.9l86.6,11.3c0-17.1-0.4-34.2-1.5-44.9C552.7,572,552.7,571.6,552.6,571.2z"
		/>
	<path class="st3" d="M499.6,529.4c0,0,7-15.9,16.6-15.2c18.9,1.5,34.7,23.5,14.4,37.9s0.6-15.3,0.6-15.3s-40.3,35.9-6.8-6.5
		c0,0-39.5,38.9-9-5.4C515.4,524.9,484.4,555.4,499.6,529.4z"/>
	<path class="st28" d="M85.4,20.6l-82.7,513l12,13.6l630.5,81.9l94.3-483.3l-12-13.6L85.4,20.6z M614.6,592.1L51.9,515.8l68.2-447.2
		L691,175.5L614.6,592.1z"/>
	<polygon class="st29" points="602.6,578.5 602.7,578 40.5,501.7 108.5,55.6 678.4,162.3 602.2,578.4 602.6,578.5 602.7,578 
		602.6,578.5 603.1,578.6 679.6,161.5 107.7,54.4 39.4,502.6 603.1,579.1 603.1,578.6 	"/>
	<path class="st30" d="M73.4,7L2.7,533.6l630.5,81.9l94.3-483.3L73.4,7z M602.6,578.5L39.9,502.2L108.1,55L679,161.9L602.6,578.5z"
		/>
	<path class="st30" d="M73.4,7L2.7,533.6l630.5,81.9l94.3-483.3L73.4,7z M602.6,578.5L39.9,502.2L108.1,55L679,161.9L602.6,578.5z"
		/>
</g>
</svg>
