<?xml version="1.0" encoding="utf-8"?>
<!-- Generator: Adobe Illustrator 22.0.1, SVG Export Plug-In . SVG Version: 6.00 Build 0)  -->
<svg version="1.1" id="Capa_1" xmlns="http://www.w3.org/2000/svg" xmlns:xlink="http://www.w3.org/1999/xlink" x="0px" y="0px"
	 viewBox="0 0 448.6 495.5" style="enable-background:new 0 0 448.6 495.5;" xml:space="preserve">
<style type="text/css">
	.st0{fill:#8624AA;}
	.st1{fill:#F7B1A4;}
	.st2{fill:#C8E7FA;}
	.st3{fill:#E44C3A;}
	.st4{fill:#B7402D;}
	.st5{fill:#EE9D88;}
	.st6{fill:#3F1023;}
	.st7{fill:#1D1D1B;}
	.st8{fill:#EDA198;}
	.st9{fill:#0071AC;}
	.st10{fill:#0081C7;}
	.st11{fill:#C8DDEA;}
	.st12{fill:#2D2D2B;}
	.st13{fill:#3F3F3E;}
	.st14{fill:#E08323;}
	.st15{fill:#ED7379;}
	.st16{fill:#3A0C00;}
	.st17{fill:#90482A;}
	.st18{fill:#FFFFFF;}
	.st19{fill:#CAC9C9;}
	.st20{fill:#008DB5;}
	.st21{fill:#00668D;}
	.st22{fill:#004B72;}
	.st23{fill:#F1AE9D;}
	.st24{fill:#C7DFED;}
	.st25{fill:#005884;}
	.st26{fill:#522119;}
	.st27{fill:#00B1E9;}
	.st28{fill:#39A4CE;}
	.st29{fill:#0095C9;}
	.st30{fill:#82CAF1;}
</style>
<g>
	<ellipse class="st0" cx="201" cy="475.3" rx="82.6" ry="16.9"/>
	<ellipse class="st0" cx="344.1" cy="475.3" rx="51.8" ry="16.9"/>
	<path class="st0" d="M283.4,406.7c0,0-273.1-52.2-279.8-230.3C-3-1.7,170.9,52,217.8,144.5c0,0,27.7-180.7,167-106.8
		C540.6,120.4,353.5,343.2,283.4,406.7z"/>
	<g>
		<g>
			<path class="st1" d="M305.6,347.1c0,0-50.1-9.9-145.5,23.9c-13.4,4.7-5.7,16-5.7,16s122.6-5.1,136.9-8.2
				C305.7,375.7,305.6,347.1,305.6,347.1z"/>
		</g>
	</g>
	<g>
		<g>
			<path class="st2" d="M150.5,367.1c-2-0.1-4-0.2-6-0.2c-2.3-0.5-9.5,49.6,4.6,63c0,0.1,3.8,5.5,8.4-0.2
				C156.9,427.5,146.2,368.8,150.5,367.1z"/>
		</g>
		<g>
			<path class="st3" d="M166.1,368.9c-5.8-0.9-11.6-1.5-17.5-2c-1.6-0.8-11,43.7,4.3,62.3c0.4,0.2,6.8,8.3,6.7-14.9
				c1.8-23.2,7.2-27.4,6.7-27.5C166.2,387.2,157.7,376.5,166.1,368.9z"/>
		</g>
		<g>
			<path class="st4" d="M156.9,373.2c1-2.6,5.7-4.5,8.7-3.8c-4.2,5.5-3.2,10.3-2.4,12.4C159.4,381.5,155.2,377.5,156.9,373.2z"/>
		</g>
		<g>
			<path class="st4" d="M159.4,418.5c-0.3,18-6.2,10.9-6.5,10.7c-2.6-3.8-4.8-8.7-6.3-14.1C151.2,414.5,155.6,415.4,159.4,418.5z"/>
		</g>
	</g>
	<g>
		<path class="st1" d="M310.4,179.3c0,0-4.4-13.2,13.5-20.7c0,0,2.2,2.5-2.5,8.8c-3.4,4.5-6.4,8.2-8.7,10.3
			C311.8,178.5,311,179,310.4,179.3z"/>
	</g>
	<g>
		<path class="st1" d="M318,188.6c4.4-1.3,8.8-3.5,12.5-6.2c4.8-3.5,11.5-8.8,10.7-15.4c-0.3-2.3-0.9-4.4-2.1-6.4
			c-1.3-2.1-3.3-4.1-5.7-3.3c-3.7,1.2-6.6,4-9.4,6.5c-2.7,2.5-6.3,3.9-9.2,6.3c-3,2.5-4.9,9.4-4.4,10.4
			C310.8,181.6,318,188.6,318,188.6z"/>
	</g>
	<g>
		<g>
			<path class="st5" d="M245.3,230c2.5-0.7,3.3-0.5,7.3-6c3.1-4.3,2.9-8.3,0.9-11.2c-31.3-35-63.3-59.3-73.3-55.1
				c-16.3,6.9-2.4,23.6-2.4,23.6s26,23.2,48.2,39.7c6.4,4.8,10.2,6.7,16.5,11.1C242.7,232.2,245.3,230,245.3,230z"/>
		</g>
	</g>
	<g>
		<g>
			<path class="st1" d="M313.2,176.5c3.9,2.4,6.8,6.5,10,10c-11.2,12.2-25,22-39.2,30.4c-10.7,6.4-21.6,12.2-33.1,16.9
				c-1.1,0.4-2.2,0.9-3.4,0.7c-0.8-0.1-1.5-0.6-2.2-1.1c-1.7-1.2-3.2-2.8-4.2-4.5c-1.2-2-1-4.4-0.7-6.7c0.2-2.4,0.8-6.8,3.5-7.8
				C268,205.5,296.9,189,313.2,176.5z"/>
		</g>
	</g>
	<g>
		<g>
			<path class="st2" d="M249.2,230.9c0.7-2.8,1.3-5.7,1.9-8.1c1.1-4.3,2.1-10.1,0.5-14.5c-2.3-6.1-9.6-11.3-14-16.2
				c-5.9-6.7-12.8-11.6-20-16.7c-6.2-4.4-30.7-27.5-35.9-26c-11.3,3.2-13.1,23.9-9,30.6c6.9,11.4,15.6,22.8,26.6,31.5
				c10.4,8.2,21.5,15.3,31.4,24.2c4.7,4.2,12.1,12.3,16,3.4C247.7,236.6,248.5,233.8,249.2,230.9z"/>
		</g>
	</g>
	<g>
		<g>
			<path class="st2" d="M235.6,220.2c3.6-7,9.9-13.3,15-15.7c9.4-4.5,18.9-8.8,28.4-13.2c4.9-2.3,9.7-5,14.6-7.4
				c2.1-1.1,16.4-8.4,14.5-4.2c-0.1,0.2-5.8,6.2-5,28.7c0.2,5.7,0.3,11.5-1,17.1c-1,4.4-6.5,6.4-10.2,8c-9.1,4-18.8,6.5-28.6,8.1
				c-7,1.1-19.9,4.4-25.9-0.8C231.1,235.3,231.9,227.3,235.6,220.2z"/>
		</g>
	</g>
	<g>
		<path class="st6" d="M154.8,141.2c0,0.3,0,0.5,0,0.8c-0.3,6.2,2.5,11.4,3.9,17.4c1.9,8.5,3.7,18.5,3.7,27.2
			c-0.1,24.7-11.6,66.4-40.5,71.1c-9.9,1.6-24,0.9-32.8-4c-8.6-4.9-9.1-10.9-9.4-20c-0.3-8.5-2.3-14.1-8.8-19.8
			c-8.9-7.8-15.4-14.7-19.7-26.1c-5.4-14.1,0-27.9,8.2-39.6c4.5-6.5,9.3-12.9,14-19.2c2-2.7,4-5.4,5.9-8.2c4.4-6.4,7-16,9.2-23.4
			c2.8-9.5-0.1-21.4,0.3-31.2c0.7-16.5,8.2-30.5,17.7-43.5c10.6-14.6,16.1-19.4,35.3-19.5c9.1,0,19.5,0.4,28.2,3.4
			c10,3.5,13.8,18,16.6,26.8c3.8,12.2,2.9,25.8-2,37.7c-2.8,6.9-6,13.7-9.3,20.4C167.3,107.3,156,122.9,154.8,141.2z"/>
	</g>
	<g>
		<path class="st7" d="M86.6,354.9c-0.2,0-0.4,0-0.6-0.1c-1.3-0.3-2.1-1.7-1.8-3c2-7.8,49.8-190.5,88.2-207.2
			c4.4-1.9,8.6-1.8,12.4,0.3c1.2,0.7,1.7,2.2,1,3.4c-0.7,1.2-2.2,1.7-3.4,1c-2.5-1.4-5.2-1.4-8.1-0.1C138.2,164.9,89.5,351.1,89,353
			C88.7,354.1,87.7,354.9,86.6,354.9z"/>
	</g>
	<g>
		<path class="st1" d="M188.9,256.1c5.4-42.1,2.1-97.8-6.5-104.1c-9.4-6.9-9.9-4.5-24.1-4.8c-13.6-0.2-17.7,4.1-31.2,8.8
			c-8.3,2.9-3.8,64.5-1.5,109.4L188.9,256.1z"/>
	</g>
	<g>
		<path class="st8" d="M148,106.5c8.2-5,23.3,3.1,23.3,3.1l0.3,40.8c0,0-29,5.5-28.7-0.4C143.6,136.5,142.4,109.9,148,106.5z"/>
	</g>
	<g>
		<path class="st8" d="M159.4,137.9c5.1,2.4,9.2,6.5,12.1,11c0,0,0,0.1,0.1,0.1l-0.3-39.5c0,0-15.1-8.1-23.3-3.1
			c-2.8,1.7-4.7,16.6-4.8,30.7C148.5,136.6,154.3,135.4,159.4,137.9z"/>
	</g>
	<g>
		<path class="st5" d="M308.5,311.7c0,0-65.9-17.3-140-13.8l-1.4,42.4c0,0,36.5,5.1,80.3,7.8c40.5,2.6,52.2,2.8,68.3,2.1
			C315.8,350.2,327.2,329.7,308.5,311.7z"/>
	</g>
	<g>
		<g>
			<path class="st9" d="M194.4,349.6c3.8-1,8.6-0.3,12.3-1c12.8-2.3,25.2-6.5,37.3-11.1c4.3-1.7,8.7-4.6,13.1-5.8
				c5.7-1.6,12.9-0.9,18.8-1.1c11.9-0.3,16.5-6.9,27.7,3.4c20.6,19-2.2,45.5-21.7,53.1c-6,2.3-11.2,5.1-16.9,8.1
				c-11.1,5.7-24,8.7-35.8,12.9c-8.7,3.1-17.8,5.2-26.7,6.8c-3.6,0.6-5.7,1.2-7.8-2c-2.4-3.6-3.8-9.5-3.8-13.7
				c-0.1-5.6-1.2-10.9-1.5-16.6c-0.4-6.9-0.1-13.8,0.2-20.7c0.2-4.6-1.7-9.1,2.7-11.5C193,350.1,193.7,349.8,194.4,349.6z"/>
		</g>
	</g>
	<g>
		<path class="st9" d="M322.1,317.9c-6-7.6-16.1-12-24.6-15.7c-16.9-7.3-33.5-9.2-51.8-10.9c-26.9-2.6-54.1-3.8-81.2-2.2l-0.7,62.6
			c0,0,15.3,1.1,59.1,3.8c24.7,1.6,49.6,1.3,74.3,0.9c6.6-0.1,20.7,2.8,25.8-2.4c6.6-6.8,5.4-26,0.8-33.5
			C323.3,319.6,322.7,318.7,322.1,317.9z"/>
	</g>
	<g>
		<path class="st10" d="M183,285c-6-2-6.1,1.7-11.8,1.8c-14.9,0.3-27.4-5.5-42.1-4c-9.1,0.9-9.4,4.7-11.7,12.5
			c-7.2,24.6-7.4,53.6,17.2,68.1c6.8,4,15.4,8,23.2,9.7c17.8,3.9,38.5-11.7,52.2-21.4c0.5-0.9-0.8-0.1-1.4,0.2
			c15.1-5,23.6-44.7,7.6-45.8c-19.4-1.2-29.7-14.1-36.8-17.4C179,288.6,183.3,285.2,183,285z"/>
	</g>
	<g>
		<path class="st11" d="M118,213.6c-0.4-10-0.4-20,0.1-30c0.2-5.2-0.4-12,2.1-16.7c2.3-4.3,3-1.6,3.4-6.9c-1.3,0.4,4.5-7.8,3.4-6.8
			c4.1-1.9,11.4-4.5,15.8-4.3c4.8,14.3,17.2,31.3,31.1,37.3c3.3,1.4-5-26.7-2.2-35.6c0.2-0.6,0.3-1,0.5-1.2c-0.1-0.2-0.1-0.5-0.2-1
			c-0.2-1.7,13-0.1,14.3,3.7c5.6,16.6,14.9,33.6,15.8,51.4c0.5,9.1-4.3,17.4-4.9,26.2c-0.6,10.5-2.2,21.2-1.9,31.8
			c0.2,7.6,2.9,16.9-2.6,23.4c-4.4,5.1-18.1,3.7-24.6,4c-9.3,0.5-18.7,0-28,0c-4.4,0-14.9,2.7-18.2-0.6c-3.3-3.2-1.8-12-1.7-16
			c0.1-6.7,1.2-13.1,0.6-19.9c-0.8-10.2-1.7-20.4-2.2-30.6C118.2,219.1,118.1,216.4,118,213.6z"/>
	</g>
	<g>
		<g>
			<path class="st1" d="M307,322.8c0,0-47.1,19.7-107.5,101c-8.5,11.4,4.2,16.4,4.2,16.4s108.2-78.4,118.5-88.9
				C332.3,340.7,307,322.8,307,322.8z"/>
		</g>
	</g>
	<g>
		<path class="st5" d="M297.8,318.1c0,0-105.8-25.3-164.8-3.2l38,45.1c0,0-15.4,3.6,30,4.9c42,1.2,86.9-5.6,103.7-6.9
			C304.6,358,316.9,336.2,297.8,318.1z"/>
	</g>
	<g>
		<g>
			<path class="st10" d="M216.4,380.8c5.5-6,11.7-11.3,16-14.4c14.6-10.6,23.9-26.5,39.3-36c9.8-6.1,19.4-15.2,29.8-6.8
				c9.2,7.3,24,26.8,16.6,38c-10.7,16-30.3,30.1-45.7,41.2c-8.3,6.1-16.3,14-22.1,22.5c-3.2,4.6-7.1,15.1-13.5,16.1
				c-7.3,1.1-15.7-10.7-20-15.4c-6.5-7.1-13.2-15-17.1-23.9C205,394.6,210.2,387.6,216.4,380.8z"/>
		</g>
	</g>
	<g>
		<path class="st10" d="M313.3,314.8c0,0-133.9-20-197.7-7.1l33.9,62.9c0,0,18.6,3.3,49.8,2.3c42-1.4,97.5-3.9,114.2-5.2
			C313.5,367.8,348,327.2,313.3,314.8z"/>
	</g>
	<g>
		<path class="st7" d="M109.8,372c-0.5,0-1-0.2-1.5-0.5c-1.1-0.8-1.3-2.4-0.5-3.5c108.4-144.8,75.4-217.6,75-218.3
			c-0.6-1.2-0.1-2.7,1.2-3.3c1.2-0.6,2.7-0.1,3.3,1.1c1.5,3,35,75.9-75.5,223.4C111.3,371.7,110.5,372,109.8,372z"/>
	</g>
	<g>
		<path class="st12" d="M111.6,369c0,0-1.9,19.8-8.8,49.6c0,0-1.5,8.4-12.7,2.8c-11.2-5.6-13.3-9-13.3-9s-9-6.2-3.4-24.5
			c2.6-8.4,11.8-38.5,11.8-38.5L111.6,369z"/>
	</g>
	<g>
		<path class="st13" d="M102.2,378.9c-1.1,3.2-3.6,12.9-9.7,10.4c-3-1.3-5.5-2.9-8.1-4.7c-3-2-5.8-4.1-8.1-6.6
			c3.7-12,8.8-28.6,8.8-28.6l26.4,19.5C106,368,104.2,372.9,102.2,378.9z"/>
	</g>
	<g>
		<path class="st14" d="M80.8,384.5c0,1.5,1.2,2.7,2.6,2.7c1.4,0,2.6-1.2,2.6-2.7c0-1.5-1.2-2.7-2.6-2.7
			C82,381.8,80.8,383,80.8,384.5z"/>
	</g>
	<g>
		<path class="st1" d="M182.8,27.3c-0.9-0.6-1.8-1.2-3-1.7c-6.3-2.6-12.5-4.5-19.3-3.9c-4.5,0.4-9.3,2.2-13.3,4.3
			c-12.6,6.9-21.6,19.3-27.3,32.2c-2.8,6.3-1.6,10.1-0.5,16.5c1.2,6.5,1.9,13.1,4.4,19.3c2,4.8,5.2,8.9,7.4,13.6
			c2.5,5.2,3.5,10.2,8.5,13.8c4.4,3.2,9.9,4.6,15.2,5.8c8.4,1.9,28.4,0.4,31.3-8.3c3.9-11.6,4.3-16.9,6.1-19.9
			c1.7-2.7,7.7-3.3,8.8-5.9c0.4-0.8-5.5-9-5.6-13.6c-0.1-3.3,1.3-15,1.5-18.1c0.5-10.2-1.9-18.3-7.8-26.5
			C186.9,31.9,185.4,29.2,182.8,27.3z"/>
	</g>
	<g>
		<path class="st6" d="M105.1,33.8c3.4-7.4,8.9-13.9,17.1-18.4c11.5-6.4,23.9-8.6,36.8-10.1c10.6-1.2,20.3,3.3,29.8,7.4
			c8,3.5,11.9,11.6,10.7,20.1c-4.4,32.2-50.9,26.7-61,55.3c0.1-0.4-1.7-7.4-1.9-8.3c-0.7-2.5-0.6-3.6-3.6-3.1
			c-8,1.2-1.9,10.3,0,13.8c4.9,9.3,1.5,19.9-4.3,26.6c-15.1-4.7-19.9-22.1-22.9-30.6C100,69.6,97.9,49.4,105.1,33.8z"/>
	</g>
	<g>
		<path class="st8" d="M123.5,87.2c1.3,7.1,11.3,16.6,14,10.6c1.6-3.7,1.6-7.9,0.3-15c-1.3-7.1,1.5-11.7-5-10.6
			C126.4,73.4,122.2,80.1,123.5,87.2z"/>
	</g>
	<g>
		<path class="st15" d="M133.7,78.7c0.1,0,0.2,0,0.3,0c0,0.1,0.1,0.1,0.1,0.2c2.1,2.5,0.8,7.5,0.9,10.5c0,1.3,0.1,2.5,0.2,3.7
			c-3.1,0-5.9-2.5-6.6-6C128,83.1,130.2,79.4,133.7,78.7z"/>
	</g>
	<g>
		<g>
			<path class="st15" d="M185,93.7c-1.2,3.9-6.6,5.7-12.1,4c-5.5-1.7-9.1-6.1-7.9-10c1.2-3.9,6.6-5.7,12.1-4
				C182.6,85.3,186.1,89.8,185,93.7z"/>
		</g>
	</g>
	<g>
		<path class="st16" d="M187.8,75.7c0,3.1-1.6,5.7-3.7,5.7c-2,0-3.7-2.5-3.7-5.7c0-3.1,1.6-5.7,3.7-5.7
			C186.1,70,187.8,72.6,187.8,75.7z"/>
	</g>
	<g>
		<g>
			<path class="st17" d="M195.2,20.5C195.2,20.5,195.2,20.5,195.2,20.5L195.2,20.5L195.2,20.5z"/>
		</g>
	</g>
	<g>
		<path class="st18" d="M177.8,101.4c-0.7,10.2,9.3,14.8,9.3,14.8l3.2-12L177.8,101.4z"/>
	</g>
	<g>
		<path class="st6" d="M188,60.8c0,0-0.3,0-1,0c-0.7,0-1.6,0.1-2.6,0.2c-1,0.3-2.2,0.4-3.4,0.9c-0.6,0.2-1.2,0.5-1.8,0.7
			c-0.6,0.3-1.2,0.6-1.8,0.9c-0.6,0.3-1.2,0.6-1.8,1c-0.5,0.4-1.1,0.7-1.6,1.1c-0.5,0.4-1,0.7-1.5,1c-0.4,0.4-0.8,0.7-1.2,1.1
			c-1.4,1.3-2.4,2.2-2.4,2.2c-0.2,0.2-0.2,0.5,0,0.8c0.2,0.2,0.5,0.2,0.7,0.1l0.1,0c0,0,1-0.8,2.6-1.9c0.4-0.3,0.8-0.6,1.2-0.9
			c0.5-0.3,1-0.5,1.5-0.8c0.5-0.3,1-0.6,1.6-0.9c0.5-0.3,1.1-0.5,1.7-0.7c0.6-0.2,1.2-0.4,1.7-0.7c0.6-0.1,1.2-0.3,1.7-0.4
			c1.1-0.3,2.2-0.3,3-0.5c0.9,0,1.6,0,2.1,0c0.4,0,0.8,0.1,0.8,0.1c0.9,0.2,1.8-0.4,2-1.3c0.2-0.9-0.4-1.8-1.3-2c0,0-0.1,0-0.1,0
			L188,60.8z"/>
	</g>
	<g>
		<path class="st19" d="M213.5,213.6c0,0,11.4,2.1,3.5,30.6c0,0-5.3,10.4-10.7,14c-5.8,3.8-12.7,3.7-18.9-1.4
			C177.1,248.4,198.6,209.9,213.5,213.6z"/>
	</g>
	<g>
		<g>
			<path class="st2" d="M187.8,428.1c-1.7,1.1-3.4,2.2-5,3.3c-2.2,0.9,21,45.9,40.2,48.7c0.1,0.1,6.3,2.3,6.7-5.1
				C228.1,473.6,185.3,432,187.8,428.1z"/>
		</g>
		<g>
			<path class="st3" d="M201.6,420.5c-5.2,2.6-10.4,5.5-15.4,8.5c-1.8,0.3,16.4,42,39.6,48.3c0.5-0.1,10.3,2.8-3.2-16
				c-11.9-20-10-26.5-10.5-26.3C212.3,435.3,199.1,431.6,201.6,420.5z"/>
		</g>
		<g>
			<path class="st4" d="M196.6,429.3c-0.7-2.7,2.1-7,4.9-8.2c-0.3,6.9,3.4,10.2,5.2,11.5C203.4,434.6,197.7,433.8,196.6,429.3z"/>
		</g>
		<g>
			<path class="st4" d="M224.9,464.9c10.2,14.8,1.2,12.5,0.9,12.5c-4.3-1.5-8.9-4.3-13.3-7.9C215.9,466.3,220,464.5,224.9,464.9z"/>
		</g>
	</g>
	<g>
		<g>
			<path class="st1" d="M337.3,385.5c0,0-2.7,3.7,8.6,72.2c1.6,9.4,11.2,2.3,11.2,2.3s5.4-62.2,4.3-72
				C360.3,378.2,337.3,385.5,337.3,385.5z"/>
		</g>
	</g>
	<g>
		<g>
			<path class="st2" d="M357.1,469.4l-0.1,4c0,0-26.7,4.2-36.6,0.1c0,0-4-1.2-1.8-5.4C320.3,464.9,357.1,469.4,357.1,469.4z"/>
		</g>
		<g>
			<path class="st20" d="M357.1,458.8v11.9c0,0-23.9,4.5-37.3,0.2c0,0-6.9-3,7.8-7.1c14.6-4.1,17.7-6.4,17.7-6.4
				S351.8,463.5,357.1,458.8z"/>
		</g>
		<g>
			<path class="st21" d="M353.8,464.5c1.6-0.4,3.1-3.4,3-5.4c-3.8,2.2-6.7,1.2-8.1,0.6C348.8,462.3,351.2,465.3,353.8,464.5z"/>
		</g>
		<g>
			<path class="st21" d="M325,464.7c-11.1,3.7-5.2,6.3-5.2,6.3c2.8,0.9,6,1.4,9.3,1.6C328.8,469.4,327.7,466.6,325,464.7z"/>
		</g>
	</g>
	<g>
		<g>
			<path class="st22" d="M342.4,452c-10.3-63.1-7.7-65.3-7.7-65.3s28.9-10.4,30-0.6c0.9,7.6-2.4,49.1-3.8,66.2L342.4,452z"/>
		</g>
	</g>
	<g>
		<path class="st22" d="M334.7,387.9c0,0-7-63.5-6.1-84.3l50.9,0.3c0,0,2.1,18.4-3.9,34.4c-5.5,14.8-11.6,47-11.1,57.2
			C364.4,395.6,344.8,402.4,334.7,387.9z"/>
	</g>
	<g>
		<path class="st23" d="M253.2,222.9c0,0,4.1-9.8-9-16.5c0,0-1.8,1.8,1.4,6.8c2.3,3.6,4.4,6.6,6,8.3
			C252.2,222.2,252.8,222.7,253.2,222.9z"/>
	</g>
	<g>
		<path class="st1" d="M246.9,229.5c-3.3-1.2-6.4-3.2-9.1-5.4c-3.4-3-8.2-7.3-7.2-12.3c0.3-1.7,1-3.3,2-4.7c1.1-1.5,2.8-2.9,4.5-2.2
			c2.7,1.1,4.8,3.4,6.8,5.5c1.9,2,4.5,3.3,6.5,5.4c2.1,2.1,3.2,7.4,2.7,8.1C252.8,224.6,246.9,229.5,246.9,229.5z"/>
	</g>
	<g>
		<g>
			<path class="st1" d="M299.6,264.6c-2-0.1-2.5,0.2-6.4-3.2c-3-2.7-3.6-5.7-2.6-8.1c17.1-31.3,37.6-53.5,45.7-52.1
				c13.3,2.3,4.9,15.8,4.9,15.8s-15.3,21.7-28.9,37.7c-3.9,4.6-6.4,6.7-10.3,11.1C301.9,265.7,299.6,264.6,299.6,264.6z"/>
		</g>
	</g>
	<g>
		<g>
			<path class="st23" d="M251.3,220.6c-3.1,1.6-5.5,4.5-8.2,6.9c7.7,9.9,17.6,18.2,27.9,25.4c7.7,5.5,15.6,10.5,24.1,14.8
				c0.8,0.4,1.6,0.8,2.5,0.7c0.6-0.1,1.2-0.4,1.7-0.7c1.3-0.8,2.6-1.9,3.5-3.2c1.1-1.5,1-3.3,0.9-5.1c0-1.8-0.2-5.2-2.2-6.1
				C283.8,245.3,262.9,231,251.3,220.6z"/>
		</g>
	</g>
	<g>
		<g>
			<g>
				<path class="st24" d="M339.4,196.4c-7.7-0.7-29.8,19.1-43.7,45.5c3,6.7,14.8,14.4,22.7,15.3c12.3-17.5,26-40.7,26-40.7
					S354.1,197.8,339.4,196.4z"/>
			</g>
		</g>
	</g>
	<g>
		<g>
			<path class="st1" d="M330.9,388.3c0,0-2.7,3.7,8.6,72.2c1.6,9.4,11.2,2.3,11.2,2.3s5.4-62.2,4.3-72
				C353.8,381,330.9,388.3,330.9,388.3z"/>
		</g>
	</g>
	<g>
		<path class="st23" d="M333.8,393.2c0,0-4.1-64.6-3.2-85.4l36.3,2.7c0,0,0.9,11.4-1,28.4c-2.5,21.3-7.9,50-7.5,60.3
			C358.4,399.2,344,407.7,333.8,393.2z"/>
	</g>
	<g>
		<g>
			<path class="st25" d="M336.4,455.6c-10.3-63.1-7.7-65.3-7.7-65.3s28.9-10.4,30-0.6c0.9,7.6-2.4,49.1-3.8,66.2L336.4,455.6z"/>
		</g>
	</g>
	<g>
		<path class="st25" d="M328.7,391.6c0,0-7-63.5-6.1-84.3l54.4-2.6c0,0,1.1,16.2-4.8,32.2c-5.5,14.8-14.1,52.1-13.7,62.4
			C358.4,399.2,338.8,406.1,328.7,391.6z"/>
	</g>
	<g>
		<path class="st23" d="M357.9,162.3c-6.3-4.1-18,2.5-18,2.5l-0.3,33.7c0,0,22.4,4.5,22.2-0.3C361.3,187.2,362.2,165.1,357.9,162.3z
			"/>
	</g>
	<g>
		<path class="st8" d="M349,188.2c-3.9,2-7.2,5.3-9.4,9.1c0,0,0,0.1,0,0.1l0.2-32.6c0,0,11.7-6.7,18-2.5c2.1,1.4,3.6,13.7,3.7,25.3
			C357.5,187.2,353,186.2,349,188.2z"/>
	</g>
	<g>
		<path class="st23" d="M327.8,104.3c2.5-4.6-0.9-4.9,4.5-6.5c5.6-1.6,11.6-2.2,17.6-2c6-0.2,7.9,6.2,13.5,7.9
			c2.9,0.9,5.5,1.9,7.8,3.7c2.7,2.2,2.3,4.4,3.3,7.3c0.6,1.9,1.5,3.6,2.2,5.4c1.2,3.3,2.6,6.8,3,10.2c0.9,7,0.5,13.9-0.6,20.8
			c-1.1,7,0.9,13.5-4.2,19.4c-6.8,7.8-12,13.5-28.4,13.5c-6.8,0-18.5-0.1-20.8-7c-3-9.1-3.4-13.3-4.8-15.6c-1.3-2.1-6-2.6-6.9-4.6
			c-0.3-0.7,4.3-7.1,4.4-10.7c0.1-2.6-1.1-11.8-1.2-14.2C316.4,115.7,323,113.2,327.8,104.3z"/>
	</g>
	<g>
		<path class="st26" d="M388,110.8c-6.3-13.1-10.7-8.5-12-11.8c-0.7-1.8-1,17.6-1.6,15.7c-0.9-3-0.5-5.1-3.3-7.3
			c-2.3-1.8-4.8-2.8-7.8-3.7c-5.6-1.6-7.6-8.1-13.5-7.9c-1.8-0.1-3.5,0-5.3,0.1c-0.8,4.2-0.5,8.7,0.4,13.3c0.2,1.1-1.1,2.1-1.1,3.4
			c0,1.8,0.9,4.1,1.5,5.8c1.2,3.8,2.9,7.5,5.2,10.7c1.5,2.1,3.4,4,4.8,6.3c1.5,2.6,3.4,5.3,4.4,8.2c0.3,1.1,0.2,2.3,1.3,2.6
			c1.1,0.3,2.4-1,3.3-1.5c0.9-0.5,3.2-2.9,4-3c1.5-0.2,2.3,2.3,2.4,3.5c0.4,3.4-2,6.7-3.5,9.5c-3.9,7.3-1.2,15.6,3.4,20.9
			c11.9-3.7,15.7-17.4,18-24.1C394.7,134.5,394.5,124.3,388,110.8z"/>
	</g>
	<g>
		<g>
			<path class="st23" d="M376.3,147.8c-1.2,6.4-10.3,15.1-12.7,9.7c-1.5-3.3-1.5-7.2-0.3-13.7c1.2-6.4-1.3-10.7,4.5-9.6
				C373.6,135.3,377.4,141.4,376.3,147.8z"/>
		</g>
		<g>
			<path class="st15" d="M366.9,140.2c-0.1,0-0.2,0-0.3,0c0,0.1,0,0.1-0.1,0.2c-1.9,2.2-0.8,6.9-0.8,9.5c0,1.1-0.1,2.3-0.2,3.4
				c2.8,0,5.4-2.3,6-5.5C372.2,144.1,370.1,140.7,366.9,140.2z"/>
		</g>
	</g>
	<g>
		<path class="st2" d="M382,229.4c0-11.4-11.2-32.2-20.2-35.8c-5.2,7.5-13.9,6.3-21.2,3.1c-0.6-0.3-0.9-0.7-0.9-1.2
			c-9.4,5.1-16.8,14.7-18.5,25.8c-1.3,8-2.6,22.2-3.9,43.5c-0.1,2-0.1,47.9,1.3,48.3c0,0,11.4,5,30.6,5.1
			c19.2,0.2,32.2-1.6,32.2-1.6C382.9,294.1,382,243.2,382,229.4z"/>
	</g>
	<g>
		<g>
			<path class="st15" d="M326.6,157.2c0.9,3,5.2,4.4,9.5,3.1c4.4-1.3,7.1-4.8,6.2-7.9c-0.9-3-5.2-4.4-9.5-3.2
				C328.5,150.7,325.7,154.2,326.6,157.2z"/>
		</g>
	</g>
	<g>
		<g>
			<path class="st16" d="M339.9,133.9c0.6-0.1,1.2-0.4,1.4-1c0.4-0.9,0-1.9-0.9-2.3c-9.9-4.5-16.1-2.5-16.4-2.4
				c-0.9,0.3-1.4,1.3-1.1,2.2c0.3,0.9,1.3,1.4,2.2,1.1c0.1,0,5.4-1.6,13.8,2.3C339.3,133.9,339.6,134,339.9,133.9z"/>
		</g>
	</g>
	<g>
		<path class="st16" d="M324.4,143.1c0,2.5,1.3,4.4,2.9,4.4c1.6,0,2.9-2,2.9-4.4c0-2.5-1.3-4.4-2.9-4.4
			C325.7,138.6,324.4,140.6,324.4,143.1z"/>
	</g>
	<g>
		<g>
			<path class="st17" d="M318.5,99.7C318.5,99.7,318.6,99.7,318.5,99.7L318.5,99.7L318.5,99.7z"/>
		</g>
		<g>
			<g>
				<path class="st16" d="M308.1,103.3c-1.9-1.1-3.8-2.3-4.7-4.6c-1.6-4.4,1-5.9,4.9-4.9c4.5-0.8,7.9-0.9,10.8-4.4
					c3.3-4,7.8-4.6,12.7-3.2c2.1,0.5,4,1.3,6.1,1.7c5.6,1,9.8-0.6,15.2-1.3c3.6-0.4,7.8,1.2,11.3,2.2c5.7,1.5,11.6,4.1,15.4,8.8
					c2.9,3.5,8.3,9,8.6,13.7c0.3,3.4-6.4,3.3-8.3,2.2c-4,1.2-7.9,2.7-11.9,3.8c-4.4,1.2-6.1,4.5-12.2,3c-4.7-1.2-6.9-4.8-12.7-3.5
					c-4.3,0.9-7.5,4.5-12.5,5.2c-5.4,0.7-13.3,0.4-17.3-4c-3-3.2,0.1-5.9-0.5-9.5C312.5,105.8,310.3,104.6,308.1,103.3z"/>
			</g>
		</g>
	</g>
	<g>
		<path class="st18" d="M332.2,163.2c0.5,8-7.3,11.6-7.3,11.6l-2.5-9.4L332.2,163.2z"/>
	</g>
	<g>
		<g>
			<path class="st2" d="M351.3,472.6l-0.1,4c0,0-26.7,4.2-36.6,0.1c0,0-4-1.2-1.8-5.4C314.5,468.1,351.3,472.6,351.3,472.6z"/>
		</g>
		<g>
			<path class="st20" d="M351.3,462.1v11.9c0,0-23.9,4.5-37.3,0.2c0,0-6.9-3,7.8-7.1c14.6-4.1,17.7-6.4,17.7-6.4
				S346,466.7,351.3,462.1z"/>
		</g>
		<g>
			<path class="st21" d="M348.1,467.7c1.6-0.4,3.1-3.4,3-5.4c-3.8,2.2-6.7,1.2-8.1,0.6C343,465.5,345.4,468.5,348.1,467.7z"/>
		</g>
		<g>
			<path class="st21" d="M319.2,467.9c-11.1,3.7-5.2,6.3-5.2,6.3c2.8,0.9,6,1.4,9.3,1.6C323,472.6,321.9,469.9,319.2,467.9z"/>
		</g>
	</g>
	<g>
		<path class="st27" d="M366.1,196.6c0,0,9.3,3.7,17.4,10.5c9.7,8.1,19.2,20.3,29,32.2c18,21.9,2.6,89,1.3,102.1
			c-2.2,21.9-35.2,22-44.2,1.7c-1.6-3.5,2.3-15.1,3-20.6C378.1,277.1,395.7,262.3,366.1,196.6z"/>
	</g>
	<g>
		<path class="st28" d="M372.6,322.6c-0.7,5.5-4.6,17.1-3,20.6c3.1,7.1,9.2,11.7,15.9,13.7c7.4-11.9,11.4-32.2,12.8-39.4
			c6.1-31.4,6.8-65.9-1.3-96.9c-4.5-5.1-8.9-9.7-13.4-13.5c-8.1-6.8-17.4-10.5-17.4-10.5C395.7,262.3,378.1,277.1,372.6,322.6z"/>
	</g>
	<g>
		<g>
			<g>
				<g>
					<path class="st23" d="M378.2,282.4c2,0.8,2.4,1.3,7.9,0c4.3-1,6.6-3.7,6.8-6.3c-2.3-35.7-16.8-70.8-25.6-73.1
						c-14.3-3.8-6.8,11.9-6.8,11.9s6.7,43.6,12.2,64.1C373.8,282.7,377.8,278.2,378.2,282.4C378.2,282.4,378.2,282.4,378.2,282.4z"
						/>
				</g>
			</g>
		</g>
		<g>
			<g>
				<g>
					<path class="st11" d="M368.5,199.9c7.5,2,21.1,30.6,25.1,60.2c-5.1,5.3-18.8,8.4-26.6,6.5c-5.5-20.7-10.4-47.2-10.4-47.2
						S354.2,196.1,368.5,199.9z"/>
				</g>
			</g>
		</g>
	</g>
	<g>
		<path class="st29" d="M387.6,329.7c-0.5,0-1-0.1-1.5-0.3c-1.5-0.7-37.8-17.1-41.3-79.6c-1.4-25.3,2.8-41.4,12.7-47.7
			c9.4-6,19.8-0.7,20.2-0.4c1.8,1,2.5,3.2,1.6,5c-1,1.8-3.2,2.5-5,1.6c-0.1-0.1-7.1-3.5-12.8,0.2c-5.1,3.3-10.8,13.1-9.2,41
			c3.3,58,36.5,73,36.8,73.2c1.9,0.8,2.8,3,1.9,4.9C390.4,328.9,389,329.7,387.6,329.7z"/>
	</g>
	<g>
		<g>
			<path class="st23" d="M393,276.4c-2.7-3.3-4-1.8-10.6-2.5c-5.5-0.6-9.9,0.2-9.9,0.2c-4,17.4-11.1,40.5-19,50.4
				c-8.9,11.1,7.7,5.8,7.7,5.8C373,316.6,384.3,299.2,393,276.4z"/>
		</g>
	</g>
	<g>
		<path class="st23" d="M358.9,317.9c0,0-10.5-2.9-14.9,10.2c0,0,2.1,1.6,6.6-2c3.2-2.6,5.8-4.8,7.2-6.5
			C358.4,319,358.8,318.4,358.9,317.9z"/>
	</g>
	<g>
		<path class="st23" d="M363.9,326.3c-1.1,3.1-2.9,6.1-5,8.5c-2.7,3.2-6.8,7.7-11.5,6.8c-1.6-0.3-3.1-0.9-4.4-1.8
			c-1.4-1-2.7-2.6-2-4.2c1-2.6,3.1-4.5,5.1-6.4c1.9-1.8,3.1-4.3,5-6.2c1.9-2,6.9-3,7.6-2.6C359.3,320.9,363.9,326.3,363.9,326.3z"/>
	</g>
	<g>
		<path class="st25" d="M339.7,324.9c8.5,11.7,9.8,12.3,20.1,17.3c2.1,8.9-18.1,13.9-23,7.2c-3.3-4.5-3.2-20.2,2.1-22.8"/>
	</g>
	<g>
		<path class="st30" d="M401.3,304.5c0,0-7.7,36.5-13.7,48.5c0,0,14.2,8.6,25.3-7.7c11.2-16.3,6.4-36.9,6.4-36.9L401.3,304.5z"/>
	</g>
	<g>
		<path class="st1" d="M226.9,214.3c0,0-2.2-13.8,16.7-18.2c0,0,1.8,2.8-3.9,8.3c-4.1,3.9-7.7,7-10.2,8.7
			C228.4,213.7,227.6,214.1,226.9,214.3z"/>
	</g>
	<g>
		<path class="st1" d="M232.9,224.7c4.6-0.5,9.2-2,13.3-4.1c5.3-2.7,12.7-6.8,13.1-13.4c0.1-2.3-0.2-4.5-1-6.6
			c-0.9-2.3-2.6-4.5-5.1-4.2c-3.9,0.6-7.2,2.8-10.4,4.9c-3.1,2-6.8,2.8-10.1,4.8c-3.3,2-6.4,8.4-6.1,9.5
			C226.9,216.6,232.9,224.7,232.9,224.7z"/>
	</g>
	<g>
		<g>
			<path class="st5" d="M154.5,252.9c2.6,0.5,3.2,1.1,9.2-2.1c4.7-2.4,6.4-6.1,5.9-9.5c-12-45.4-29.5-81.5-40.3-82.3
				c-17.7-1.2-12.8,20-12.8,20s12.6,32.5,25,57.2c3.6,7.2,6,10.6,9.7,17.4C151.1,253.6,154.5,252.9,154.5,252.9z"/>
		</g>
	</g>
	<g>
		<g>
			<path class="st1" d="M230.1,212c3.5,3,5.6,7.5,8.3,11.5c-13,10.3-28.3,17.7-43.6,23.7c-11.6,4.5-23.3,8.5-35.4,11.3
				c-1.1,0.3-2.4,0.5-3.5,0.1c-0.8-0.3-1.4-0.8-2-1.4c-1.4-1.5-2.7-3.3-3.4-5.2c-0.9-2.2-0.2-4.5,0.4-6.8c0.6-2.3,1.9-6.6,4.7-7.1
				C180.8,233.3,212,221.7,230.1,212z"/>
		</g>
	</g>
	<g>
		<g>
			<path class="st2" d="M157.5,255.4c1.9-2.2,3.7-4.5,5.4-6.4c2.9-3.4,6.4-8.1,7-12.7c0.7-6.5-3.5-14.4-5.1-20.8
				c-2.3-8.6-6.1-16.1-10.3-24c-3.6-6.7-14.9-38.4-20.2-39.4c-11.5-2.3-22.5,15.4-21.9,23.2c1,13.3,3.5,27.4,9.4,40.1
				c5.6,12.1,12.2,23.4,17,35.8c2.3,5.9,5.2,16.5,12.7,10.3C153.5,259.9,155.6,257.7,157.5,255.4z"/>
		</g>
	</g>
	<g>
		<g>
			<path class="st2" d="M146.4,242.5c4.7-6.3,11.9-11.5,17.4-13.1c10-2.9,20.1-5.6,30.2-8.4c5.3-1.5,10.4-3.3,15.6-4.9
				c2.3-0.7,17.5-5.6,15-1.8c-0.1,0.2-6.7,5.2-9.6,27.5c-0.7,5.6-5.1,15.1-1,19.2c0.5,0.5-10.1,2.8-14,3.8
				c-9.7,2.4-19.6,3.4-29.6,3.3c-7.1,0-20.4,1.1-25.4-5C139.6,256.7,141.7,249,146.4,242.5z"/>
		</g>
	</g>
	<g>
		<path class="st6" d="M99.1,143.6c-4.1-13.2-0.9-26.8,4.5-39.1c4.8-11,21.5-12.7,30.3-5.3c2,1.7,3.3,5.7,4.3,8.1
			c1.8,4.3,3.8,8.5,6.4,12.4c5.5,8.4,12.5,14.2,15.9,24c4,11.4,2.9,25.3,0.1,36.3c2.7,8.3,4.8,17.6,11.6,23.5
			c-1.9,2.4-9.1,1.6-11.6,0.4c-4.4-2-9.2-6.6-12-10.4c-7.1-9.5-9.5-24.2-19.4-31.3c-4.6-3.3-9.5-2.8-14.9-3.8
			C106.3,156.9,101.5,151.4,99.1,143.6z"/>
	</g>
</g>
</svg>
