<?xml version="1.0" encoding="utf-8"?>
<!-- Generator: Adobe Illustrator 22.0.1, SVG Export Plug-In . SVG Version: 6.00 Build 0)  -->
<svg version="1.1" id="Capa_1" xmlns="http://www.w3.org/2000/svg" xmlns:xlink="http://www.w3.org/1999/xlink" x="0px" y="0px"
	 viewBox="0 0 596.6 400.9" style="enable-background:new 0 0 596.6 400.9;" xml:space="preserve">
<style type="text/css">
	.st0{fill:#CCE369;}
	.st1{fill:#85D1B8;}
	.st2{fill:#FFB451;}
	.st3{fill:#FF5656;}
	.st4{fill:#FF4B54;}
	.st5{fill:#65A18D;}
	.st6{fill:#8E4F3C;}
	.st7{fill:#673528;}
	.st8{fill:#9573DC;}
	.st9{fill:#7951CB;}
	.st10{fill:#FFFFFF;}
	.st11{fill:#F59740;}
	.st12{fill:#FFCD9A;}
	.st13{fill:#F5AA68;}
	.st14{fill:#303030;}
	.st15{fill:#B0624C;}
	.st16{fill:#FF7289;}
	.st17{fill:#8B4C3B;}
	.st18{fill:#D97C61;}
	.st19{fill:#DC3D3D;}
	.st20{fill:#A15B45;}
	.st21{opacity:0.1;}
	.st22{fill:#FF84C2;}
</style>
<g>
	<g>
		<g>
			<path class="st0" d="M468.1,169.3c-0.7,6.4-1.7,12.7-2.7,19c-1.1,6.3-2.4,12.6-3.8,18.8c-2.8,12.5-6.3,24.8-10.3,36.9
				c-4.2,12.1-9,24-15.2,35.3c-6.1,11.2-13.6,22-23.3,30.3c4.6-4.4,8.6-9.4,12.2-14.6c3.6-5.2,6.9-10.7,9.7-16.4
				c2.8-5.7,5.6-11.4,8-17.3c2.4-5.9,4.6-11.8,6.7-17.9c2.1-6,4-12.1,5.8-18.2c1.8-6.1,3.3-12.3,4.9-18.5c1.6-6.2,3-12.4,4.3-18.6
				C465.7,181.9,466.9,175.6,468.1,169.3z"/>
		</g>
		<path class="st0" d="M463.4,196.7c0,0-19.7-33.4-30-22.7C422.9,184.7,463.4,196.7,463.4,196.7z"/>
		<path class="st0" d="M455.8,226c0,0-24.9-29.6-33.4-17.4C414,220.9,455.8,226,455.8,226z"/>
		<path class="st0" d="M444.8,259c0,0-18.2-34.2-29-24C404.9,245.2,444.8,259,444.8,259z"/>
		<path class="st0" d="M431.9,285.8c0,0-6.5-38.2-20-31.9C398.4,260.1,431.9,285.8,431.9,285.8z"/>
		<path class="st0" d="M455.8,226.7c0,0,38.7,0.4,35-14C487,198.3,455.8,226.7,455.8,226.7z"/>
		<path class="st0" d="M444.8,258.7c0,0,38.7,0.4,35-14C476,230.3,444.8,258.7,444.8,258.7z"/>
		<path class="st0" d="M431.9,284.9c0,0,38.7,0.4,35-14C463.1,256.5,431.9,284.9,431.9,284.9z"/>
		<path class="st0" d="M463.4,196.7c0,0,38.7,0.4,35-14C494.5,168.3,463.4,196.7,463.4,196.7z"/>
		<path class="st0" d="M467.3,174.9c0,0,12.5-26.8,2-27.8C458.8,146.1,467.3,174.9,467.3,174.9z"/>
	</g>
	<g>
		<g>
			<path class="st0" d="M143.7,108.6c3.9,5,7.6,10.3,11.2,15.6c3.6,5.3,7,10.7,10.3,16.1c6.7,10.9,12.7,22.2,18.2,33.7
				c5.3,11.6,10.2,23.5,13.5,35.9c3.4,12.3,5.5,25.2,4.2,38c0.2-6.4-0.3-12.7-1.4-19c-1-6.3-2.5-12.5-4.4-18.5
				c-1.9-6.1-3.9-12.1-6.3-18c-2.4-5.9-4.9-11.7-7.6-17.5c-2.7-5.8-5.5-11.5-8.5-17.1c-3-5.6-6.1-11.2-9.2-16.7
				c-3.2-5.5-6.4-11-9.8-16.4C150.7,119.3,147.2,113.9,143.7,108.6z"/>
		</g>
		<path class="st0" d="M159.3,131.6c0,0-37.3-10.4-37.4,4.5C121.8,151,159.3,131.6,159.3,131.6z"/>
		<path class="st0" d="M174.2,157.9c0,0-38.5-4-36.1,10.7C140.5,183.3,174.2,157.9,174.2,157.9z"/>
		<path class="st0" d="M189.1,189.3c0,0-36.8-12-37.5,2.9C150.8,207.1,189.1,189.3,189.1,189.3z"/>
		<path class="st0" d="M198.5,217.5c0,0-31.2-23-36.5-9.1C156.5,222.3,198.5,217.5,198.5,217.5z"/>
		<path class="st0" d="M174.7,158.4c0,0,28.2-26.6,15.5-34.3S174.7,158.4,174.7,158.4z"/>
		<path class="st0" d="M189,189.1c0,0,28.2-26.6,15.5-34.3C191.7,147,189,189.1,189,189.1z"/>
		<path class="st0" d="M197.9,216.9c0,0,28.2-26.6,15.5-34.3C200.6,174.8,197.9,216.9,197.9,216.9z"/>
		<path class="st0" d="M159.3,131.6c0,0,28.2-26.6,15.5-34.3C162,89.5,159.3,131.6,159.3,131.6z"/>
		<path class="st0" d="M146.9,113.2c0,0-9.6-28-17.9-21.4C120.8,98.3,146.9,113.2,146.9,113.2z"/>
	</g>
	<g>
		<g>
			<g>
				<g>
					<path class="st0" d="M502.5,262.1c-2.2,7.5-4.9,14.9-8,22.1c-1.5,3.6-3.2,7.2-4.9,10.7c-1.7,3.5-3.6,7-5.5,10.4
						c-2,3.4-4,6.8-6.2,10c-2.2,3.3-4.6,6.4-7.1,9.5c-5,6-10.9,11.6-17.8,15.4c3.2-2.2,6.2-4.8,8.9-7.6c2.7-2.8,5.3-5.7,7.6-8.8
						c4.7-6.2,8.9-12.8,12.8-19.5c3.9-6.8,7.4-13.7,10.7-20.8c1.7-3.5,3.3-7.1,4.8-10.7C499.5,269.4,501,265.7,502.5,262.1z"/>
				</g>
				<path class="st0" d="M470,323.7c0,0,13.4-16.1,33.7-2C503.6,321.7,487.3,341.1,470,323.7z"/>
				<path class="st0" d="M469.1,275.4c0,0,20.1,6,15,30.2C484.2,305.5,459.9,298.1,469.1,275.4z"/>
			</g>
			<path class="st1" d="M488.6,243.5c0,0-6,20.6,15,23.8c21,3.2,34.7-28,27.6-29.7c-7.1-1.8-11.6,7.2-11.6,7.2s9.8-16.1,2.1-16.5
				c-7.7-0.4-13.8,12.5-13.8,12.5s9.9-21.2,3.1-18.5c-6.8,2.7-10.6,19.7-10.6,19.7s2.1-21.2-3.2-16.4
				C491.9,230.4,488.6,243.5,488.6,243.5z"/>
		</g>
		<g>
			<g>
				<g>
					<path class="st0" d="M506.4,315.5c-6.3,7.1-12.8,14-19.6,20.7c-6.8,6.7-13.8,13.1-21.1,19.3c-7.3,6.1-14.8,12-22.8,17.3
						c-4,2.6-8.1,5.1-12.4,7.2c-2.2,1-4.3,2-6.6,2.8c-1.1,0.5-2.3,0.7-3.4,1.1c-1.1,0.3-2.3,0.5-3.5,0.8c4.6-1.2,8.9-3.2,13-5.6
						c4.1-2.3,8.1-4.9,11.9-7.6c7.7-5.5,15.1-11.4,22.3-17.5c7.2-6.1,14.3-12.4,21.3-18.9C492.7,328.6,499.6,322.1,506.4,315.5z"/>
				</g>
				<path class="st0" d="M473.3,347.6c0,0,17.6-7.9,28.2,3.7C501.5,351.3,487.2,354.1,473.3,347.6z"/>
				<path class="st0" d="M445.4,347.3c0,0,5,18.6-8.1,27.2C437.3,374.5,436.9,359.9,445.4,347.3z"/>
			</g>
			<g>
				<path class="st2" d="M524.2,313c0,0,27.2,11.1,16.4,27.7c-10.8,16.6-28.5-15.1-28.5-15.1s7.1,22.3-10.7,20.2
					c-17.8-2.2-3.9-24.6-3.9-24.6s-17.3,17.3-22.2,3.5c-4.9-13.8-0.8-27.8,21.5-21.4c0,0-19.6-9.4-10-17.7
					c9.6-8.2,32.9-6.7,26.2,18.2c0,0,8.2-27.4,20.5-16.2C545.9,298.9,524.2,313,524.2,313z"/>
				<g>
					<path class="st3" d="M517.9,318.9c2.9,1.1,5.5,2.9,7.7,5.2c2.2,2.2,3.9,4.9,4.9,7.9c-1.7-2.6-3.5-5-5.6-7.2
						C522.8,322.5,520.5,320.7,517.9,318.9z"/>
				</g>
				<g>
					<path class="st3" d="M528.3,295c-0.6,3-2,5.9-3.8,8.5c-1.9,2.5-4.2,4.7-6.9,6.2c2.3-2.1,4.3-4.3,6.1-6.8
						C525.5,300.4,527,297.8,528.3,295z"/>
				</g>
				<g>
					<path class="st3" d="M496.3,291.6c2.8,1.4,5.2,3.5,7.1,5.9c1.9,2.5,3.4,5.3,4.1,8.3c-1.4-2.8-3-5.3-4.9-7.7
						C500.8,295.8,498.6,293.7,496.3,291.6z"/>
				</g>
				<g>
					<path class="st3" d="M506.1,322.7c-0.1,3.1-0.9,6.2-2.2,9c-1.4,2.8-3.3,5.4-5.7,7.3c1.9-2.5,3.5-5,4.8-7.7
						C504.3,328.6,505.3,325.7,506.1,322.7z"/>
				</g>
				<g>
					<path class="st3" d="M483.7,319.4c2.3-2.1,5.1-3.6,8.1-4.5c3-0.9,6.2-1.3,9.2-0.8c-3.1,0.3-6.1,0.9-8.9,1.8
						C489.2,316.7,486.5,318,483.7,319.4z"/>
				</g>
				<path class="st3" d="M516.1,312.5c-0.7,0-1.4,0.7-1.5,1.4c-0.1,1,1.2,1.9,2.2,1.8c0.1,0,0.7-0.1,1-0.6
					C518.2,314.2,517.3,312.5,516.1,312.5z"/>
				<path class="st3" d="M510.1,311.6c-0.7,0-1.4,0.7-1.5,1.4c-0.1,1,1.2,1.9,2.2,1.8c0.1,0,0.7-0.1,1-0.6
					C512.2,313.4,511.3,311.6,510.1,311.6z"/>
				<path class="st3" d="M508.9,316.4c-0.7,0-1.4,0.7-1.5,1.4c-0.1,1,1.2,1.9,2.2,1.8c0.1,0,0.7-0.1,1-0.6
					C511.1,318.1,510.1,316.4,508.9,316.4z"/>
				<path class="st3" d="M504.1,310.8c-0.7,0-1.4,0.7-1.5,1.4c-0.1,1,1.2,1.9,2.2,1.8c0.1,0,0.7-0.1,1-0.6
					C506.3,312.5,505.3,310.8,504.1,310.8z"/>
				<path class="st3" d="M503.8,316.2c-0.7,0-1.4,0.7-1.5,1.4c-0.1,1,1.2,1.9,2.2,1.8c0.1,0,0.7-0.1,1-0.6
					C505.9,317.9,505,316.2,503.8,316.2z"/>
				<path class="st3" d="M513.3,307.6c-0.7,0-1.4,0.7-1.5,1.4c-0.1,1,1.2,1.9,2.2,1.8c0.1,0,0.7-0.1,1-0.6
					C515.5,309.3,514.5,307.5,513.3,307.6z"/>
				<path class="st3" d="M507.4,306.7c-0.7,0-1.4,0.7-1.5,1.4c-0.1,1,1.2,1.9,2.2,1.8c0.1,0,0.7-0.1,1-0.6
					C509.5,308.5,508.6,306.7,507.4,306.7z"/>
				<path class="st3" d="M514.1,317.8c-0.7,0-1.4,0.7-1.5,1.4c-0.1,1,1.2,1.9,2.2,1.8c0.1,0,0.7-0.1,1-0.6
					C516.3,319.5,515.3,317.8,514.1,317.8z"/>
			</g>
		</g>
		<g>
			<g>
				<g>
					<path class="st0" d="M464,286.7c-0.5,8-1.6,15.9-3.1,23.8c-0.7,3.9-1.6,7.9-2.5,11.8c-1,3.9-2,7.8-3.2,11.6
						c-1.2,3.8-2.5,7.6-4,11.4c-1.5,3.7-3.1,7.4-5,11c-3.7,7.1-8.3,13.9-14.4,19.2c2.7-2.9,5.1-6.1,7.2-9.5c2.1-3.4,4-6.8,5.7-10.4
						c3.4-7.2,6.1-14.7,8.5-22.2c2.4-7.6,4.4-15.3,6.1-23.1c0.9-3.9,1.7-7.8,2.5-11.7C462.6,294.5,463.3,290.6,464,286.7z"/>
				</g>
				<path class="st0" d="M428.2,318.6c0,0,21.6,5,23.3,23C451.4,341.5,436.4,334.1,428.2,318.6z"/>
				<path class="st0" d="M447,353.9c0,0,16.1-15.2,32-6.5C479,347.4,464.4,355.7,447,353.9z"/>
			</g>
			<path class="st4" d="M472.3,278c0,0,41.7,2.5,40.1,19.5c-1.7,16.9-43.9-12.1-43.9-12.1s21.5,50.3,5,44c-16.5-6.3-11.6-40-11.6-40
				s-17.6,37.2-29.5,15.8c-11.9-21.4,25.5-22.4,25.5-22.4s-42.8-7.3-29.8-13.8c13.1-6.5,33.6,6.4,33.6,6.4s-7.9-30.3,4.4-29.1
				C478.4,247.5,472.3,278,472.3,278z"/>
			<g>
				<g>
					<g>
						<path class="st2" d="M464.8,283.5c2.4-2.2,4.9-4.2,7.7-5.9c2.7-1.8,5.6-3.3,8.5-4.7c3-1.3,6-2.4,9.2-3.2
							c3.1-0.8,6.3-1.3,9.6-1.5c-1.6,0.3-3.2,0.6-4.7,1c-1.6,0.4-3.1,0.8-4.6,1.3c-3.1,1-6.1,2.1-9,3.4c-2.9,1.3-5.8,2.8-8.5,4.4
							c-1.4,0.8-2.7,1.7-4.1,2.6C467.4,281.6,466.1,282.5,464.8,283.5z"/>
					</g>
					<path class="st2" d="M499,266.6c-0.7,0.3-1.2,1.1-1,1.9c0.3,1,1.8,1.4,2.7,0.9c0.1,0,0.7-0.3,0.8-0.9
						C501.7,267.5,500.2,266.1,499,266.6z"/>
				</g>
				<g>
					<g>
						<path class="st2" d="M465.4,283.1c2.8-1.6,5.7-3,8.7-4.2c3-1.2,6.1-2.1,9.3-2.8c3.2-0.7,6.4-1.1,9.6-1.2
							c3.2-0.1,6.5,0,9.7,0.5c-1.6,0-3.2-0.1-4.8,0c-1.6,0-3.2,0.1-4.8,0.3c-3.2,0.3-6.4,0.7-9.5,1.4c-3.1,0.7-6.2,1.5-9.3,2.5
							c-1.5,0.5-3,1.1-4.5,1.6C468.4,281.8,466.9,282.4,465.4,283.1z"/>
					</g>
					<path class="st2" d="M502.5,273.8c-0.7,0.1-1.4,0.9-1.3,1.6c0,1.1,1.5,1.8,2.5,1.5c0.1,0,0.7-0.2,0.9-0.7
						C504.9,275.2,503.7,273.6,502.5,273.8z"/>
				</g>
				<g>
					<g>
						<path class="st2" d="M465,283.5c1.8-2.7,3.8-5.2,6-7.6c2.2-2.4,4.6-4.5,7.2-6.6c2.6-2,5.3-3.8,8.2-5.3
							c2.9-1.5,5.8-2.8,8.9-3.8c-1.5,0.7-2.9,1.3-4.3,2.1c-1.4,0.7-2.8,1.5-4.2,2.3c-2.7,1.7-5.4,3.4-7.9,5.4
							c-2.5,2-4.9,4.1-7.2,6.3c-1.2,1.1-2.3,2.3-3.4,3.5C467.1,281.1,466,282.3,465,283.5z"/>
					</g>
					<path class="st2" d="M494.3,259c-0.6,0.4-0.9,1.4-0.5,2c0.5,0.9,2.1,1,2.9,0.3c0.1-0.1,0.6-0.5,0.5-1
						C497.1,259.3,495.3,258.3,494.3,259z"/>
				</g>
			</g>
		</g>
	</g>
	<g>
		<g>
			<g>
				<g>
					<path class="st0" d="M79.4,302.4c8.3,4.7,16.4,9.7,24.3,14.9c7.9,5.3,15.7,10.8,23.2,16.6c7.5,5.9,14.8,12,21.6,18.7
						c3.4,3.3,6.6,6.9,9.6,10.6c1.5,1.9,2.9,3.8,4.1,5.9c0.7,1,1.2,2.1,1.8,3.1c0.6,1.1,1,2.2,1.5,3.3c-2.1-4.3-5-8-8.1-11.6
						c-3.1-3.6-6.5-6.9-9.9-10.1c-6.9-6.4-14.3-12.4-21.7-18.2c-7.5-5.8-15.1-11.4-22.8-16.9C95,313.2,87.2,307.7,79.4,302.4z"/>
				</g>
				<path class="st0" d="M117.6,328.2c0,0-11.3-15.6-2.2-28.3C115.4,299.8,121.1,313.3,117.6,328.2z"/>
				<path class="st0" d="M123.1,355.5c0,0,17.2-8.7,28.3,2.3C151.4,357.9,137.2,361.3,123.1,355.5z"/>
			</g>
			<g>
				<path class="st1" d="M73.3,285.6c0,0,5.2-29,23.7-21.8c18.5,7.2-8.9,31-8.9,31s20.4-11.5,22,6.3c1.6,17.9-23.2,8.9-23.2,8.9
					s20.5,13.3,8,21c-12.5,7.6-27.1,6.5-25.4-16.6c0,0-5.2,21.1-15.2,13.4c-10-7.7-13.3-30.8,12.4-29.4c0,0-28.5-2.4-20.1-16.7
					C55,267.3,73.3,285.6,73.3,285.6z"/>
				<g>
					<path class="st5" d="M80.3,290.5c0.5-3.1,1.7-6,3.5-8.6c1.8-2.6,4-4.9,6.7-6.4c-2.2,2.2-4.2,4.5-5.8,7
						C82.9,284.9,81.5,287.6,80.3,290.5z"/>
				</g>
				<g>
					<path class="st5" d="M54.8,285.2c3.1,0,6.2,0.7,9.1,2c2.8,1.3,5.5,3.1,7.5,5.5c-2.5-1.8-5.1-3.4-7.9-4.6
						C60.7,286.9,57.8,286,54.8,285.2z"/>
				</g>
				<g>
					<path class="st5" d="M58.1,317.2c0.8-3,2.4-5.8,4.3-8.2c2-2.4,4.5-4.4,7.3-5.7c-2.4,2-4.6,4-6.5,6.3
						C61.3,312,59.7,314.6,58.1,317.2z"/>
				</g>
				<g>
					<path class="st5" d="M86.5,301.2c3-0.6,6.2-0.4,9.3,0.3c3,0.8,5.9,2.1,8.3,4.1c-2.8-1.3-5.6-2.4-8.6-3.1
						C92.6,301.8,89.6,301.4,86.5,301.2z"/>
				</g>
				<g>
					<path class="st5" d="M87.9,323.8c-2.5-1.8-4.6-4.3-6.1-7c-1.5-2.7-2.5-5.8-2.7-8.9c1,2.9,2.1,5.7,3.6,8.4
						C84.1,319,85.9,321.4,87.9,323.8z"/>
				</g>
				<g>
					<path class="st5" d="M74.4,293.6c0.2,0.7,1,1.3,1.7,1.2c1-0.1,1.6-1.6,1.3-2.5c0-0.1-0.2-0.7-0.8-0.8
						C75.7,291.1,74.2,292.4,74.4,293.6z"/>
				</g>
				<g>
					<path class="st5" d="M74.8,299.6c0.2,0.7,1,1.3,1.7,1.2c1-0.1,1.6-1.6,1.3-2.5c0-0.1-0.2-0.7-0.8-0.8
						C76.1,297.2,74.6,298.4,74.8,299.6z"/>
				</g>
				<g>
					<path class="st5" d="M79.7,299.8c0.2,0.7,1,1.3,1.7,1.2c1-0.1,1.6-1.6,1.3-2.5c0-0.1-0.2-0.7-0.8-0.8
						C81,297.3,79.5,298.6,79.7,299.8z"/>
				</g>
				<g>
					<path class="st5" d="M75.2,305.6c0.2,0.7,1,1.3,1.7,1.2c1-0.1,1.6-1.6,1.3-2.5c0-0.1-0.2-0.7-0.8-0.8
						C76.5,303.2,75,304.5,75.2,305.6z"/>
				</g>
				<g>
					<path class="st5" d="M80.6,304.9c0.2,0.7,1,1.3,1.7,1.2c1-0.1,1.6-1.6,1.3-2.5c0-0.1-0.2-0.7-0.8-0.8
						C81.9,302.4,80.4,303.7,80.6,304.9z"/>
				</g>
				<g>
					<path class="st5" d="M70.2,297.3c0.2,0.7,1,1.3,1.7,1.2c1-0.1,1.6-1.6,1.3-2.5c0-0.1-0.2-0.7-0.8-0.8
						C71.4,294.9,69.9,296.1,70.2,297.3z"/>
				</g>
				<g>
					<path class="st5" d="M70.6,303.3c0.2,0.7,1,1.3,1.7,1.2c1-0.1,1.6-1.6,1.3-2.5c0-0.1-0.2-0.7-0.8-0.8
						C71.8,300.8,70.3,302.1,70.6,303.3z"/>
				</g>
				<g>
					<path class="st5" d="M80,294.4c0.2,0.7,1,1.3,1.7,1.2c1-0.1,1.6-1.6,1.3-2.5c0-0.1-0.2-0.7-0.8-0.8
						C81.3,292,79.7,293.2,80,294.4z"/>
				</g>
			</g>
		</g>
		<g>
			<g>
				<g>
					<path class="st0" d="M59.9,349.9c7.9-1.1,15.9-1.7,23.9-1.9c4-0.1,8-0.1,12,0.1c4,0.1,8,0.4,12,0.7c4,0.4,8,0.9,11.9,1.6
						c4,0.7,7.9,1.5,11.8,2.6c7.7,2.1,15.3,5.2,21.7,10.1c-3.4-2.1-7-3.8-10.8-5.1c-3.7-1.4-7.5-2.5-11.4-3.4
						c-7.7-1.8-15.6-2.9-23.5-3.7c-7.9-0.8-15.9-1.1-23.8-1.2c-4-0.1-8-0.1-12,0C67.9,349.6,63.9,349.8,59.9,349.9z"/>
				</g>
				<path class="st0" d="M98.5,378.3c0,0,0.4-22.1,17.7-27.5C116.2,350.8,112,367.1,98.5,378.3z"/>
				<path class="st0" d="M129.2,352.6c0,0-18.2-12.7-13-30C116.2,322.7,127.4,335.2,129.2,352.6z"/>
			</g>
			<path class="st2" d="M49.7,343.6c0,0-6.1-41.4,10.8-43.2c16.9-1.9-2.8,45.5-2.8,45.5s44.8-31.4,42.1-14
				C97,349.2,63,351.4,63,351.4s40,9.6,21.5,25.7c-18.5,16.1-27.2-20.4-27.2-20.4s1.7,43.4-7.4,32c-9.1-11.5-0.7-34.2-0.7-34.2
				s-28,14-29.4,1.7C18.6,343.9,49.7,343.6,49.7,343.6z"/>
			<g>
				<g>
					<g>
						<path class="st4" d="M56.6,349.8c-2.6-1.9-5.1-4-7.4-6.3c-2.3-2.3-4.4-4.8-6.3-7.4c-1.9-2.6-3.6-5.4-5-8.3
							c-1.4-2.9-2.6-5.9-3.5-9c0.6,1.5,1.3,3,2,4.4c0.7,1.5,1.4,2.9,2.2,4.3c1.6,2.8,3.3,5.5,5.2,8.1c1.9,2.6,3.9,5.1,6.1,7.4
							c1.1,1.2,2.2,2.3,3.3,3.5C54.3,347.6,55.4,348.7,56.6,349.8z"/>
					</g>
					<path class="st4" d="M33,319.8c0.4,0.6,1.4,0.9,2,0.6c1-0.5,1-2,0.4-2.9c-0.1-0.1-0.5-0.6-1-0.6C33.4,317,32.3,318.7,33,319.8z
						"/>
				</g>
				<g>
					<g>
						<path class="st4" d="M56.1,349.2c-2.2-2.4-4.2-5-5.9-7.7c-1.8-2.7-3.3-5.6-4.6-8.5c-1.3-3-2.4-6-3.2-9.2
							c-0.8-3.1-1.3-6.4-1.5-9.6c0.3,1.6,0.6,3.2,1,4.7c0.4,1.6,0.8,3.1,1.2,4.6c1,3.1,2,6.1,3.3,9c1.3,2.9,2.8,5.8,4.4,8.5
							c0.8,1.4,1.7,2.7,2.5,4.1C54.2,346.6,55.2,347.9,56.1,349.2z"/>
					</g>
					<path class="st4" d="M39.3,314.9c0.3,0.7,1.1,1.2,1.9,1c1-0.3,1.4-1.8,1-2.7c0-0.1-0.3-0.7-0.9-0.8
						C40.3,312.3,38.9,313.8,39.3,314.9z"/>
				</g>
				<g>
					<g>
						<path class="st4" d="M56.6,349.6c-3-1.2-5.9-2.7-8.7-4.3c-2.8-1.7-5.4-3.6-7.9-5.7c-2.5-2.1-4.8-4.4-6.9-6.9
							c-2.1-2.5-4-5.1-5.5-8c1,1.3,1.9,2.6,3,3.8c1,1.3,2,2.5,3.1,3.6c2.2,2.3,4.5,4.6,6.9,6.6c2.4,2.1,5,4,7.7,5.8
							c1.3,0.9,2.7,1.8,4.1,2.6C53.8,348,55.2,348.8,56.6,349.6z"/>
					</g>
					<path class="st4" d="M26.6,326c0.5,0.5,1.5,0.6,2.1,0.1c0.8-0.7,0.5-2.2-0.3-2.9c-0.1-0.1-0.6-0.5-1.1-0.3
						C26.3,323.2,25.7,325.1,26.6,326z"/>
				</g>
			</g>
		</g>
	</g>
	<g>
		<path class="st6" d="M223.3,56c0,0,5.1,52.9-24.4,73.6c0,0,14.1,51.9,137.6,44.2L324.4,54.2L223.3,56z"/>
		<path class="st7" d="M241.9,126.9l18.4,42.7c0,0,30.9,8.1,66.7,4.4l15.2-31.1L241.9,126.9z"/>
		<g>
			<path class="st8" d="M284.7,163.7c0,0-60.5-0.1-100.3,30.1c-26.4,20-61.9,53.1-67.6,97.3c-2.2,17.3,6.3,38.2,6.3,38.2l39.6-20
				c0,0,15.7-47.1,61.8-75.6c0,0-21.8,36.8-9.9,65.7c21,51.3-3.4,82.1-3.4,82.1S322.4,416.1,365,384c0,0-18.6-30.4-0.5-85.7
				c7.4-22.8,3-45.7,2.6-60c0,0,35.7,19.5,26.9,31.9c-15.3,21.5-1.6,33.9-1.6,33.9l23.1,25.2c0,0,62.6-9.9,7.3-96.3
				C364.3,141.9,284.7,163.7,284.7,163.7z"/>
			<path class="st9" d="M399,298.8c0,0-3.1-0.6-5.7-0.3c0,0,0.2,6.1,4.1,8.4L399,298.8z"/>
			<path class="st9" d="M266.9,290.7c0,0-18,11.1-34.5,6.3c0,0,11.8,12.8,17.5,12.1C255.6,308.4,266.9,290.7,266.9,290.7z"/>
			<path class="st9" d="M306,293.7c0,0,18.4,10.4,34.7,5.1c0,0-11.3,13.2-17.1,12.7C317.8,311.1,306,293.7,306,293.7z"/>
			<path class="st10" d="M284.7,163.7c0,0-11.8,0-28.4,2.6l38.5,53.2l37.3-55.2C304.8,158.2,284.7,163.7,284.7,163.7z"/>
			<path class="st9" d="M330,163.8c0,0,26.4,2.4,11.6,25.9c-10.1,16-22.4,2.4-27.4,19c-2.9,9.7-19.4,10.8-19.4,10.8L330,163.8z"/>
		</g>
		<path class="st2" d="M392.3,304c0,0,54.3,8.6,39,76.9c0,0-73.8,23.6-135.9,8.6c0,0-3.3-103.5,69.1-91.2L392.3,304z"/>
		<path class="st11" d="M306,388.9c0,0,3.7-42.9,10.2-51.1l-3.6,52.2L306,388.9z"/>
		<path class="st11" d="M408.3,352.5c3,5.7,2.7,20.1,2.1,30.4c-2,0.1-4,0.3-6.2,0.4L408.3,352.5z"/>
		<path class="st4" d="M181.3,301.8c0,0-54.6,6.8-41.6,75.5c0,0,73.8,18.9,136.5,6c0,0,1.6-97.6-71.2-87.7L181.3,301.8z"/>
		<path class="st12" d="M281.7,144.1c0,0-4,24.7-5.8,29.8c0,0,15.9,24.3,32.4,1.4l-3.5-31.6L281.7,144.1z"/>
		<polygon class="st13" points="280.4,154.3 307.2,166 305.6,150.3 		"/>
		<g>
			<path class="st12" d="M234.3,115.4c-3.1,1.2-6.9-0.4-9-2.5c-4.6-4.7-3.9-14.3,1.6-17.2c3.2-1.7,7.7-0.9,10.3,1.5
				C242.3,102,240.1,113.2,234.3,115.4z"/>
			<path class="st10" d="M221.6,108.3c-1.6,2.4-1,5.7,1.5,7.3c2.4,1.6,5.7,1,7.3-1.5c1.6-2.4,1-5.7-1.5-7.3
				C226.5,105.2,223.2,105.8,221.6,108.3z"/>
		</g>
		<polygon class="st7" points="223.6,60.5 236.6,91.7 245.8,58.8 		"/>
		<path class="st12" d="M235.4,72.3c-5.9,20.2-9.9,56,23.2,74.4c40.2,22.3,103.7,0.5,113.9-41.6c6-24.8-7.5-53.6-28.7-66.9
			C301.7,11.9,252.5,13.2,235.4,72.3z"/>
		<g>
			<path class="st13" d="M283.3,81.1c0,0,31.1,1.3,57.5-0.2l0.2-4.2C341.1,76.7,322.2,81.6,283.3,81.1z"/>
		</g>
		<path class="st6" d="M341.1,76.7c0,0-90.7,19.5-122.1-21.4c0,0,13.2-56.6,75.8-51.9c62.6,4.8,95.2,33.6,95.2,89
			c0.1,55.4-8.4,94.1-8.4,94.1s-43.5,23.8-71.1-13.8C310.5,172.8,338.6,150.6,341.1,76.7z"/>
		<path class="st12" d="M331.2,121.9c2.2,2.9,6.6,3.7,9.8,3c7-1.6,12-10.9,8.8-16.8c-1.9-3.5-6.5-5.4-10.4-4.7
			C331.8,104.8,327.2,116.5,331.2,121.9z"/>
		<g>
			<path class="st14" d="M293.4,112c0.8-2.1,2.3-3.9,4.2-5.3c1-0.7,2.1-1.2,3.3-1.5c1.2-0.3,2.5-0.4,3.8-0.1
				c1.3,0.2,2.4,0.7,3.5,1.4c1,0.7,1.9,1.5,2.6,2.4c1.5,1.8,2.5,3.8,3.1,6c-1.6-1.5-3.1-3-4.7-4.3c-1.6-1.2-3.3-2.2-5-2.5
				c-1.7-0.3-3.5,0-5.3,0.8C297,109.5,295.2,110.7,293.4,112z"/>
		</g>
		<g>
			<path class="st14" d="M241.5,104.8c0.6-1.9,1.9-3.5,3.5-4.7c1.6-1.2,4-2,6.2-1.5c1.1,0.2,2.1,0.7,3,1.2c0.9,0.6,1.6,1.3,2.3,2.1
				c1.3,1.6,2.1,3.4,2.5,5.3c-1.5-1.3-2.8-2.6-4.2-3.6c-1.4-1-2.8-1.8-4.2-2.1c-1.4-0.3-2.9,0-4.5,0.6
				C244.7,102.7,243.1,103.7,241.5,104.8z"/>
		</g>
		<path class="st13" d="M275.5,99.7c0,0-5.7,21-11.4,26.6c0,0,4.2,5.6,16.8,2.9L275.5,99.7z"/>
		<g>
			<path class="st6" d="M272.7,136.1c2.9,1,5.9,1.5,8.9,1.7c1.5,0.1,3,0.1,4.5,0.1c0.7-0.1,1.5-0.1,2.2-0.1l2.2-0.3
				c0.7-0.1,1.5-0.3,2.2-0.4l1.1-0.2l1.1-0.3c0.7-0.2,1.4-0.4,2.2-0.6c0.7-0.3,1.4-0.5,2.1-0.8l1.1-0.4l1-0.5l2.1-0.9
				c1.4-0.6,2.7-1.4,4.1-2c-1.2,1-2.4,2-3.7,2.9l-2,1.2l-1,0.6l-1.1,0.5c-2.8,1.4-5.9,2.3-8.9,2.8c-3.1,0.5-6.3,0.5-9.4-0.1
				C278.3,138.8,275.3,137.8,272.7,136.1z"/>
		</g>
		<g>
			<path class="st6" d="M327.8,98.8c-2.5-1.7-5.3-3.1-8.1-4.1c-1.4-0.5-2.8-1-4.3-1.3c-0.7-0.1-1.4-0.4-2.2-0.5l-2.2-0.3
				c-0.7-0.1-1.5-0.1-2.2-0.2l-1.1-0.1l-1.1,0c-0.7,0-1.5,0-2.2,0c-0.7,0.1-1.5,0.1-2.2,0.1l-1.1,0.1l-1.1,0.2l-2.3,0.3
				c-1.5,0.2-3,0.6-4.5,0.8c1.4-0.6,2.8-1.2,4.3-1.7l2.3-0.6l1.1-0.3l1.2-0.2c3.1-0.6,6.3-0.5,9.4-0.2c3.1,0.4,6.2,1.3,9,2.7
				C323.2,94.6,325.8,96.4,327.8,98.8z"/>
		</g>
		<g>
			<path class="st6" d="M268.5,90.6c-2.3-1.4-4.7-2.5-7.1-3.3c-1.2-0.4-2.5-0.8-3.7-1c-0.6-0.1-1.3-0.3-1.9-0.4l-1.9-0.2
				c-0.6-0.1-1.3-0.1-1.9-0.1l-1-0.1c-0.3,0-0.6,0-1,0c-0.6,0-1.3,0-1.9,0c-0.6,0.1-1.3,0.1-1.9,0.2l-1,0.1l-1,0.1l-2,0.3
				c-1.3,0.2-2.6,0.5-3.9,0.7c1.2-0.6,2.4-1.2,3.7-1.7l1.9-0.6l1-0.3l1-0.2c2.7-0.6,5.4-0.6,8.2-0.4c2.7,0.3,5.4,1,7.9,2.2
				C264.4,87,266.8,88.5,268.5,90.6z"/>
		</g>
		<path class="st10" d="M347.2,122.9c0.1,3.2-2.5,5.8-5.7,5.9c-3.2,0.1-5.8-2.5-5.9-5.7c-0.1-3.2,2.5-5.8,5.7-5.9
			C344.5,117.1,347.2,119.7,347.2,122.9z"/>
		<path class="st15" d="M225,54.8c0,0,1.5-7.5,8.5-18.3c0,0,19.5,24.2,88.2,35.9C321.7,72.4,267.4,86.3,225,54.8z"/>
		<g>
			<path class="st12" d="M368.6,284.2c0,0-4.2,15.5-6.4,19.3c0,0,12.1,11.3,24,3.3l0.8-19.4L368.6,284.2z"/>
			<polygon class="st13" points="366,292.1 386.2,302.3 386.7,292.8 			"/>
			<path class="st12" d="M342.8,219.8c-7.8,15.2-16.5,43,7,62.8c28.5,24,82.5,16.4,97.1-15.5c8.6-18.8,2.3-43.8-12.5-57.7
				C405,182,365.6,175.5,342.8,219.8z"/>
			<g>
				<path class="st14" d="M385.9,252c1.2-1.5,2.8-2.5,4.7-3c1.9-0.5,4.2-0.4,6,0.7c1.9,1.1,3,3,3.6,4.7c0.6,1.8,0.7,3.7,0.4,5.5
					c-0.9-1.6-1.7-3.2-2.6-4.5c-0.9-1.4-1.9-2.5-3-3.2c-1.1-0.7-2.5-1-4.1-1C389.4,251.3,387.7,251.6,385.9,252z"/>
			</g>
			<g>
				<path class="st14" d="M348.6,231.7c1-1.3,2.4-2.3,4-2.8c1.6-0.5,3.7-0.4,5.3,0.6c1.7,1,2.6,2.6,3.2,4.2c0.2,0.8,0.4,1.6,0.4,2.4
					c0,0.8,0,1.6-0.2,2.4c-0.5-0.7-0.9-1.3-1.2-2c-0.4-0.6-0.8-1.2-1.1-1.8c-0.8-1.1-1.6-2-2.6-2.6c-0.9-0.6-2.1-0.8-3.4-0.8
					C351.7,231.3,350.2,231.4,348.6,231.7z"/>
			</g>
			<path class="st13" d="M375.8,237.6c0,0-10.4,14.3-16.2,16.9c0,0,1.6,5.5,11.9,7L375.8,237.6z"/>
			<g>
				<path class="st6" d="M363.3,264.4c2,1.5,4.1,2.7,6.3,3.7c1.1,0.5,2.2,0.9,3.4,1.3c0.6,0.2,1.1,0.4,1.7,0.5l1.7,0.4
					c0.6,0.1,1.2,0.2,1.8,0.3l0.9,0.1c0.3,0,0.6,0,0.9,0.1c0.6,0.1,1.2,0.1,1.8,0.2c0.6,0,1.2,0,1.8,0l0.9,0l0.9,0l1.8,0
					c1.2-0.1,2.5-0.2,3.7-0.2c-1.2,0.5-2.4,0.9-3.6,1.2l-1.9,0.4l-0.9,0.2l-0.9,0.1c-2.5,0.3-5.1,0.1-7.6-0.4
					c-2.5-0.5-4.9-1.5-7.1-2.8C366.7,268.2,364.7,266.5,363.3,264.4z"/>
			</g>
			<g>
				<path class="st6" d="M415.8,251.9c-1.5-2-3.2-3.8-5-5.3c-0.9-0.8-1.9-1.5-2.9-2.2c-0.5-0.3-1-0.7-1.5-1l-1.6-0.9
					c-0.5-0.3-1.1-0.5-1.6-0.8l-0.8-0.4c-0.3-0.1-0.6-0.2-0.8-0.3c-0.6-0.2-1.1-0.5-1.7-0.7c-0.6-0.2-1.2-0.4-1.7-0.6l-0.9-0.3
					l-0.9-0.2l-1.8-0.5c-1.2-0.3-2.4-0.5-3.6-0.8c1.2-0.1,2.5-0.2,3.8-0.2l1.9,0.2l0.9,0.1l0.9,0.2c2.5,0.4,4.9,1.4,7.2,2.5
					c2.3,1.2,4.3,2.8,6.1,4.7C413.6,247.3,415,249.5,415.8,251.9z"/>
			</g>
			<g>
				<path class="st6" d="M373.2,228.7c-1.4-1.7-2.9-3.2-4.6-4.5c-1.6-1.3-3.4-2.4-5.2-3.3c-0.5-0.2-0.9-0.4-1.4-0.7l-0.7-0.3
					c-0.2-0.1-0.5-0.2-0.7-0.3c-0.5-0.2-1-0.4-1.5-0.6c-0.5-0.1-1-0.3-1.5-0.5l-0.8-0.2l-0.8-0.2l-1.5-0.4c-1-0.2-2.1-0.4-3.2-0.7
					c1.1-0.2,2.2-0.3,3.3-0.3c1.1,0.1,2.2,0,3.3,0.3c2.2,0.3,4.3,1.1,6.4,2c2,1,3.8,2.4,5.4,4C371.2,224.7,372.5,226.6,373.2,228.7z
					"/>
			</g>
			<path class="st16" d="M400.8,267.4c-0.7,1.2,1,3.4,3.7,4.9s5.4,1.7,6.1,0.5c0.7-1.2-1-3.4-3.7-4.9
				C404.2,266.4,401.5,266.2,400.8,267.4z"/>
			<path class="st16" d="M339.7,236.1c-0.7,1.2,1,3.4,3.7,4.9c2.7,1.5,5.4,1.7,6.1,0.5c0.7-1.2-1-3.4-3.7-4.9
				C343.1,235.2,340.3,234.9,339.7,236.1z"/>
			<path class="st15" d="M438.6,232.9c0,0-79-3.2-82.7-40.3c-3.7-37.1,19.3-39.8,19.3-39.8s29.2,20.2,62.8,46
				c33.6,25.7,20.5,43.2,20.5,43.2L438.6,232.9z"/>
			<path class="st15" d="M410.9,229.4c0,0,27.1,6.3,26.3,22.1c-0.8,15.8-12.1,17.3-11.8,22.8c0.3,5.5-15.1,16.3,5,21.8
				c19.3,5.3,34-57.4,30.1-67.5L410.9,229.4z"/>
			<path class="st17" d="M437.2,249.2L437.2,249.2c0.1,0.7,0.1,1.5,0.1,2.3c-0.8,15.8-12.1,17.3-11.8,22.8c0.3,5.5-15.1,16.3,5,21.8
				c3.8,1,7.4-0.5,10.7-3.8c-4.3-0.7-10.5-3.5-6.3-14C441,263,437.2,249.2,437.2,249.2z"/>
			<path class="st12" d="M421.2,279c0.8,2.9,3.9,4.7,6.6,5.1c5.8,0.8,12.2-4.8,11.5-10.3c-0.5-3.2-3.4-6-6.5-6.5
				C426.6,266.1,419.8,273.7,421.2,279z"/>
			<path class="st18" d="M374.4,156.3c0,0-32.2,32.1,3.5,54.2C377.9,210.6,363.5,180.6,374.4,156.3z"/>
		</g>
		<g>
			<path class="st19" d="M152,364.2c0,0-6.6-11.7-1.1-28.9c0,0,3.7,4.8,11,3.2l-21.8-24.5l-0.3,32.6L152,364.2z"/>
			<path class="st12" d="M157.6,295.9c0,0,1.5,25.5,4.3,42.7c0,0-12.7,0.7-15.6-14.5c0,0-8.9,24.7,5.7,39.3c0,0-3.3,5.9-8.4,4.4
				c-5.1-1.4-13-15.9-12.5-21.2c0.5-5.3,0.8-16.7,2.9-20.7c0,0,2.1,30.5,4.6,36.1c0,0-4.2,2.8-9.3-1c-5.1-3.8-7.4-22.2-5.9-27.3
				c1.5-5.1,5.6-14,5.6-14l-2,35.7c0,0-3.8,3.2-7.7-0.9c-3.8-4.1-5-18.6-3.9-22.3c1.1-3.7,2.7-13.7,8.5-17.8
				C129.8,310.3,157.6,295.9,157.6,295.9z"/>
		</g>
		<g>
			<g>
				<path class="st6" d="M103.5,211c0,0-29.3,70.7,42.5,92.6c71.9,21.9,75.4-84.2,75.4-84.2s-30.4-53.5-33.5-51.8
					C184.9,169.2,103.5,211,103.5,211z"/>
				<path class="st7" d="M123.6,271.6c0,0,24,35.6,65.2,27.6l-10.1-31.9L123.6,271.6z"/>
				<path class="st12" d="M195.4,270.8c0,0,7.6,21.8,10.1,25.8c0,0-10.2,12.3-24.3,6.8l-5.6-28.4L195.4,270.8z"/>
				<polygon class="st13" points="198.5,279.2 179.3,294 176.6,280.4 				"/>
				<path class="st12" d="M220.8,200.2c9,16.1,19.5,45.9-5.2,68.2c-29.9,27-88.7,20.9-105.6-13.1c-10-20.1-4.2-47.3,11.3-62.9
					C152.1,161.6,194.5,153,220.8,200.2z"/>
				<g>
					<path class="st14" d="M175.4,236.6c-1.9-0.4-3.8-0.7-5.5-0.7c-1.7,0-3.2,0.4-4.5,1.2c-1.3,0.8-2.3,2.1-3.2,3.6
						c-0.9,1.5-1.6,3.2-2.5,5c-0.3-2-0.2-4,0.3-5.9c0.3-1,0.7-2,1.3-2.9c0.6-0.9,1.4-1.7,2.4-2.3c1.9-1.3,4.4-1.5,6.4-1
						C172.2,234.1,174,235.2,175.4,236.6z"/>
				</g>
				<g>
					<path class="st14" d="M215,213.2c-1.7-0.3-3.3-0.5-4.7-0.4c-1.5,0-2.7,0.4-3.7,1c-1,0.7-1.9,1.7-2.7,3
						c-0.8,1.3-1.5,2.7-2.3,4.3c-0.4-1.7-0.3-3.5,0.1-5.2c0.5-1.7,1.5-3.5,3.2-4.6c1.7-1.1,3.9-1.3,5.7-0.9
						C212.3,211,213.9,211.9,215,213.2z"/>
				</g>
				<path class="st13" d="M185.8,220.6c0,0,11.8,15.1,18.2,17.7c0,0-1.5,6-12.6,8L185.8,220.6z"/>
				<g>
					<path class="st6" d="M200.3,249.2c-1.5,2.3-3.6,4.2-5.9,5.7c-2.3,1.5-4.9,2.6-7.6,3.3c-2.7,0.6-5.5,1-8.2,0.7l-1,0l-1-0.1
						l-2-0.3c-1.3-0.3-2.6-0.7-3.9-1.1c1.4,0,2.7,0.1,4,0.2l2,0l1,0l1-0.1c0.7,0,1.3-0.1,2-0.1c0.7-0.1,1.3-0.2,1.9-0.3
						c0.3,0,0.6-0.1,1-0.1l1-0.2c0.6-0.1,1.3-0.2,1.9-0.4l1.9-0.5c0.6-0.2,1.2-0.4,1.8-0.6c1.2-0.4,2.4-1,3.6-1.5
						C196,252.3,198.2,250.9,200.3,249.2z"/>
				</g>
				<g>
					<path class="st6" d="M143.1,237.6c0.8-2.6,2.3-5,4.1-7.1c1.8-2.1,4-3.9,6.4-5.3c2.4-1.3,5-2.4,7.7-3l1-0.2l1-0.1l2-0.2
						c1.4-0.1,2.7-0.1,4.1,0c-1.3,0.4-2.6,0.6-3.9,1l-1.9,0.6l-1,0.3l-0.9,0.3c-0.6,0.2-1.2,0.5-1.9,0.7c-0.6,0.2-1.2,0.5-1.8,0.8
						c-0.3,0.1-0.6,0.3-0.9,0.4l-0.9,0.5c-0.6,0.3-1.2,0.6-1.7,0.9l-1.7,1c-0.5,0.3-1.1,0.8-1.6,1.1c-1.1,0.8-2.1,1.6-3,2.5
						C146.4,233.4,144.6,235.4,143.1,237.6z"/>
				</g>
				<g>
					<path class="st6" d="M188.3,210.9c0.7-2.3,2-4.4,3.6-6.1c1.6-1.8,3.6-3.3,5.7-4.5c2.2-1.1,4.4-2,6.8-2.4
						c1.2-0.3,2.4-0.3,3.6-0.4c1.2,0,2.4,0,3.6,0.2c-1.2,0.3-2.3,0.5-3.4,0.8l-1.7,0.5l-0.8,0.2l-0.8,0.3c-0.5,0.2-1.1,0.4-1.6,0.5
						c-0.5,0.2-1,0.4-1.6,0.7c-0.3,0.1-0.5,0.2-0.8,0.3l-0.8,0.4c-0.5,0.3-1,0.5-1.5,0.8l-1.5,0.8c-0.5,0.3-0.9,0.6-1.4,0.9
						c-0.9,0.6-1.8,1.3-2.7,2.1C191.3,207.4,189.7,209,188.3,210.9z"/>
				</g>
				<path class="st6" d="M158.7,184.6c0,0-12.5,60.4-48.9,96.2c0,0-73.6-77.1,34.8-105.3c0,0,23.7-48.5,66.6,7.4
					C211.3,183,192.7,196.5,158.7,184.6z"/>
				<path class="st12" d="M133.4,271.5c-0.8,3.1-4,5.3-7,5.8c-6.2,1.1-13.4-4.8-12.8-10.7c0.4-3.5,3.5-6.6,6.8-7.3
					C127.1,257.8,134.8,265.7,133.4,271.5z"/>
				<path class="st15" d="M148.5,176.6c0,0,13.4-27.3,35.3-13.8s21.9,17.7,21.9,17.7S177.9,160.6,148.5,176.6z"/>
				<path class="st15" d="M142.1,181.6c0,0-49.4,12.3-42.2,41.3C99.9,222.9,113,201.2,142.1,181.6z"/>
			</g>
			<path class="st16" d="M159.9,253.9c0.8,1.3-0.9,3.7-3.8,5.5c-2.9,1.7-5.8,2.1-6.6,0.8c-0.8-1.3,0.9-3.7,3.8-5.5
				S159.1,252.6,159.9,253.9z"/>
			<path class="st16" d="M224.8,217.7c0.8,1.3-0.9,3.7-3.8,5.5c-2.9,1.7-5.8,2.1-6.6,0.8c-0.8-1.3,0.9-3.7,3.8-5.5
				C221.1,216.8,224.1,216.4,224.8,217.7z"/>
		</g>
		<path class="st19" d="M263.2,382.9c0,0-0.8-36.3-7-44.7l0.4,45.6L263.2,382.9z"/>
		<path class="st19" d="M163.7,349.8c-3.2,5.6-3.4,20-3.1,30.3c1.9,0.2,4,0.4,6.2,0.6L163.7,349.8z"/>
		<g>
			<path class="st11" d="M380,361.3c0,0,11.7-8.7,13.8-28.3c0,0-5.8,3.1-12.4-1.6l32.5-14.7l-14.1,32.6L380,361.3z"/>
			<path class="st12" d="M399,298.8c0,0-7.1,16.8-17.5,32.6c0,0,12.3,6.3,21.9-7.5c0,0-2,28.5-23,36.5c0,0,0.6,7.3,6.4,8.1
				c5.8,0.8,20-10.1,21.8-15.5c1.8-5.5,6.6-17,6.3-21.9c0,0-15.5,29.4-20.5,33.9c0,0,3,4.6,9.7,3.1c6.7-1.5,17.2-18.9,17.9-24.6
				c0.8-5.7,0.6-16.4,0.6-16.4l-13.8,36.4c0,0,2.4,4.9,8,2.5c5.6-2.4,13.2-16.3,13.7-20.5c0.5-4.2,7.2-23.7,3-30.3
				C424.7,301.2,399,298.8,399,298.8z"/>
		</g>
		<path class="st11" d="M330,327.6c0,0-7.6,17.5,7.8,20.4c15.4,2.9,17.3-15.2,17.3-15.2L330,327.6z"/>
		<path class="st9" d="M256.3,166.3c0,0-27.2,2.1-11.6,25.1c10.6,15.7,22.5,1.6,28.1,18c3.3,9.6,22,10.1,22,10.1L256.3,166.3z"/>
		<path class="st20" d="M161.8,300.3c0,0-23.9,33.4,31.5,61.5C193.2,361.8,204.2,336.5,161.8,300.3z"/>
		<g class="st21">
			<path d="M138.5,374.1c0,0,34-11,156.8,4c26.8,3.3,41.7,2.6,59.7,2.3c26.1-0.4,47.8-4,78-8.8l-52.6,26l-174.6-13.9L138.5,374.1z"
				/>
		</g>
		<path class="st11" d="M362.2,303.5c0,0,8.2,10.9,24,3.3"/>
		<g>
			<path class="st19" d="M181.2,303.4c2.4-0.1,4.5-0.3,6.6-0.5c2.1-0.2,4.1-0.6,6.1-1.1c1-0.2,1.9-0.6,2.9-0.9
				c0.9-0.4,1.9-0.7,2.8-1.2c1.9-0.8,3.7-2,5.8-3.1c-0.8,2.2-2.2,4.3-4.1,5.8c-0.9,0.8-2,1.4-3,2c-1.1,0.5-2.2,1-3.4,1.3
				c-2.4,0.6-4.8,0.7-7.2,0.4C185.4,305.6,183.1,304.9,181.2,303.4z"/>
		</g>
	</g>
	<path class="st22" d="M426.8,113.8c0,0,7.8-10.1,12.4-4.5c4.6,5.6-16.1,18.1-16.1,18.1s-19.4-28.3-8.5-25.6
		C425.5,104.6,426.8,113.8,426.8,113.8z"/>
	<path class="st22" d="M546.8,169.3c0,0,2.9-12.4,9.4-9.2c6.5,3.2-7.1,23.2-7.1,23.2s-29.3-17.8-18.3-19.8
		C541.8,161.5,546.8,169.3,546.8,169.3z"/>
	<path class="st22" d="M18.2,276c0,0,7.8-10.1,12.4-4.5c4.6,5.6-16.1,18.1-16.1,18.1S-4.9,261.3,6,264C16.8,266.8,18.2,276,18.2,276
		z"/>
	<path class="st22" d="M580.9,273.7c0,0,7.8-10.1,12.4-4.5c4.6,5.6-16.1,18.1-16.1,18.1s-19.4-28.3-8.5-25.6
		C579.6,264.5,580.9,273.7,580.9,273.7z"/>
	<path class="st22" d="M58.7,177.5c0,0-4.7-11.8,2.4-12.9c7.1-1.1,7.4,23.1,7.4,23.1s-34.2,2.2-26.3-5.7
		C50.1,174,58.7,177.5,58.7,177.5z"/>
	<path class="st22" d="M162.8,53.2c0,0,1.1-12.7,8-10.4c6.9,2.2-3.8,23.9-3.8,23.9s-31.6-13.5-20.9-17
		C156.7,46.1,162.8,53.2,162.8,53.2z"/>
</g>
</svg>
