<?xml version="1.0" encoding="utf-8"?>
<!-- Generator: Adobe Illustrator 22.0.1, SVG Export Plug-In . SVG Version: 6.00 Build 0)  -->
<svg version="1.1" id="Capa_1" xmlns="http://www.w3.org/2000/svg" xmlns:xlink="http://www.w3.org/1999/xlink" x="0px" y="0px"
	 viewBox="0 0 930.9 623.5" style="enable-background:new 0 0 930.9 623.5;" xml:space="preserve">
<style type="text/css">
	.st0{fill:#CCE369;}
	.st1{fill:#85D1B8;}
	.st2{fill:#FFB451;}
	.st3{fill:#FF5656;}
	.st4{fill:#FF4B54;}
	.st5{fill:#65A18D;}
	.st6{fill:#8E4F3C;}
	.st7{fill:#673528;}
	.st8{fill:#9573DC;}
	.st9{fill:#7951CB;}
	.st10{fill:#FFFFFF;}
	.st11{fill:#F59740;}
	.st12{fill:#FFCD9A;}
	.st13{fill:#F5AA68;}
	.st14{fill:#303030;}
	.st15{fill:#B0624C;}
	.st16{fill:#FF7289;}
	.st17{fill:#8B4C3B;}
	.st18{fill:#D97C61;}
	.st19{fill:#DC3D3D;}
	.st20{fill:#A15B45;}
	.st21{opacity:0.1;}
	.st22{fill:#FF84C2;}
</style>
<g>
	<g>
		<g>
			<path class="st0" d="M729.8,263.4c-2.5,19.7-6.2,39.3-10.6,58.7c-4.4,19.4-9.8,38.6-16.1,57.4c-6.5,18.8-14,37.3-23.5,54.9
				c-4.7,8.8-10,17.3-15.9,25.3c-6,8-12.5,15.6-20.1,22c7.2-6.8,13.6-14.5,19.2-22.6c5.7-8.1,10.8-16.6,15.3-25.4
				c4.5-8.8,8.8-17.8,12.5-26.9c3.8-9.2,7.3-18.4,10.4-27.8c3.2-9.4,6.2-18.8,8.9-28.4c2.7-9.5,5.2-19.1,7.6-28.8
				c2.4-9.6,4.6-19.3,6.6-29C726.3,282.9,728.1,273.2,729.8,263.4z"/>
		</g>
		<path class="st0" d="M722.4,306c0,0-30.6-51.9-46.8-35.3C659.5,287.2,722.4,306,722.4,306z"/>
		<path class="st0" d="M710.7,351.6c0,0-38.8-46.1-52-27.1C645.6,343.6,710.7,351.6,710.7,351.6z"/>
		<path class="st0" d="M693.5,402.9c0,0-28.3-53.2-45.2-37.4C631.5,381.4,693.5,402.9,693.5,402.9z"/>
		<path class="st0" d="M673.5,444.6c0,0-10.1-59.4-31.1-49.7C621.4,404.7,673.5,444.6,673.5,444.6z"/>
		<path class="st0" d="M710.7,352.7c0,0,60.3,0.6,54.4-21.8C759.3,308.5,710.7,352.7,710.7,352.7z"/>
		<path class="st0" d="M693.6,402.5c0,0,60.3,0.6,54.4-21.8C742.2,358.3,693.6,402.5,693.6,402.5z"/>
		<path class="st0" d="M673.5,443.3c0,0,60.3,0.6,54.4-21.8C722.1,399.1,673.5,443.3,673.5,443.3z"/>
		<path class="st0" d="M722.4,306c0,0,60.3,0.6,54.4-21.8C771,261.8,722.4,306,722.4,306z"/>
		<path class="st0" d="M728.5,272c0,0,19.5-41.8,3.1-43.3C715.3,227.1,728.5,272,728.5,272z"/>
	</g>
	<g>
		<g>
			<path class="st0" d="M224.7,168.8c11.9,15.9,22.8,32.6,33.1,49.6c10.3,17,19.7,34.6,28.2,52.6c8.3,18.1,15.8,36.6,21.2,55.8
				c2.7,9.6,4.8,19.4,6.1,29.2c1.2,9.9,1.8,19.9,0.9,29.8c0.5-9.9-0.3-19.9-1.9-29.6c-1.5-9.8-3.8-19.5-6.6-28.9
				c-2.9-9.5-6-18.9-9.7-28.1c-3.7-9.2-7.6-18.3-11.8-27.3c-4.2-9-8.6-17.9-13.3-26.6c-4.6-8.8-9.5-17.4-14.5-26
				c-5-8.6-10.1-17.1-15.4-25.5C235.8,185.3,230.3,177,224.7,168.8z"/>
		</g>
		<path class="st0" d="M249,204.6c0,0-58.1-16.2-58.2,7C190.7,234.8,249,204.6,249,204.6z"/>
		<path class="st0" d="M272.3,245.6c0,0-60-6.3-56.2,16.6C219.8,285.1,272.3,245.6,272.3,245.6z"/>
		<path class="st0" d="M295.5,294.5c0,0-57.3-18.7-58.4,4.5C235.9,322.1,295.5,294.5,295.5,294.5z"/>
		<path class="st0" d="M310,338.4c0,0-48.5-35.8-56.9-14.2C244.8,345.8,310,338.4,310,338.4z"/>
		<path class="st0" d="M273,246.4c0,0,43.8-41.4,24.1-53.5C277.3,180.8,273,246.4,273,246.4z"/>
		<path class="st0" d="M295.2,294.1c0,0,43.8-41.4,24.1-53.5C299.5,228.5,295.2,294.1,295.2,294.1z"/>
		<path class="st0" d="M309.1,337.4c0,0,43.8-41.4,24.1-53.5C313.4,271.9,309.1,337.4,309.1,337.4z"/>
		<path class="st0" d="M249,204.6c0,0,43.8-41.4,24.1-53.5C253.3,139.1,249,204.6,249,204.6z"/>
		<path class="st0" d="M229.8,175.9c0,0-14.9-43.6-27.8-33.4C189.1,152.8,229.8,175.9,229.8,175.9z"/>
	</g>
	<g>
		<g>
			<g>
				<g>
					<path class="st0" d="M783.3,407.8c-3.6,11.7-8,23.1-12.8,34.3c-2.4,5.6-5,11.1-7.7,16.6c-2.7,5.5-5.6,10.9-8.6,16.2
						c-3,5.3-6.2,10.5-9.6,15.6c-3.4,5.1-7,10-10.9,14.8c-3.9,4.8-8.1,9.2-12.6,13.4c-4.6,4.1-9.4,7.9-14.8,10.8
						c5.1-3.4,9.8-7.3,14-11.6c4.3-4.3,8.3-8.8,12-13.6c7.5-9.6,14-19.8,20-30.4c6-10.6,11.5-21.4,16.6-32.5
						c2.6-5.5,5-11.1,7.4-16.7C778.8,419.1,781.1,413.5,783.3,407.8z"/>
				</g>
				<path class="st0" d="M732.8,503.6c0,0,20.8-25.1,52.4-3.1C785.2,500.5,759.8,530.7,732.8,503.6z"/>
				<path class="st0" d="M731.4,428.4c0,0,31.3,9.3,23.4,47C754.9,475.4,717.1,463.9,731.4,428.4z"/>
			</g>
			<path class="st1" d="M761.8,378.9c0,0-9.4,32.1,23.3,37.1c32.7,5,54-43.6,42.9-46.3s-18,11.1-18,11.1s15.2-25.1,3.3-25.7
				c-11.9-0.7-21.5,19.5-21.5,19.5s15.4-33,4.8-28.8c-10.5,4.2-16.6,30.7-16.6,30.7s3.3-33.1-5-25.5
				C766.8,358.4,761.8,378.9,761.8,378.9z"/>
		</g>
		<g>
			<g>
				<g>
					<path class="st0" d="M789.5,490.9c-4.9,5.5-10.1,10.9-15.2,16.2c-5.2,5.3-10.4,10.5-15.7,15.7C748,533.1,737,543,725.8,552.6
						c-11.4,9.5-23,18.7-35.3,26.9c-6.2,4.1-12.5,8-19.1,11.3c-3.3,1.7-6.7,3.2-10.2,4.5l-1.3,0.5c-0.4,0.2-0.9,0.3-1.3,0.4
						l-2.7,0.8c-0.9,0.3-1.8,0.5-2.7,0.7l-2.7,0.6c7.2-1.8,13.9-4.9,20.4-8.4c6.5-3.5,12.7-7.5,18.7-11.7
						c12.1-8.4,23.7-17.6,34.9-27.2c5.6-4.8,11.2-9.6,16.7-14.5c5.5-4.9,10.9-10,16.4-14.9c5.4-5,10.8-10.1,16.1-15.2
						C779,501.3,784.2,496.1,789.5,490.9z"/>
				</g>
				<path class="st0" d="M738,540.9c0,0,27.4-12.3,43.9,5.8C781.8,546.7,759.5,551,738,540.9z"/>
				<path class="st0" d="M694.6,540.5c0,0,7.8,29-12.7,42.4C681.9,582.8,681.2,560.1,694.6,540.5z"/>
			</g>
			<g>
				<path class="st2" d="M817.1,487.1c0,0,42.4,17.3,25.6,43.1c-16.9,25.8-44.4-23.5-44.4-23.5s11,34.8-16.7,31.4
					c-27.7-3.4-6-38.2-6-38.2s-26.9,26.9-34.5,5.5c-7.6-21.4-1.2-43.3,33.5-33.3c0,0-30.5-14.7-15.6-27.5
					c14.9-12.8,51.2-10.4,40.8,28.3c0,0,12.8-42.7,31.9-25.2C850.9,465.1,817.1,487.1,817.1,487.1z"/>
				<g>
					<path class="st3" d="M807.4,496.1c2.2,1,4.3,2.2,6.3,3.6c2,1.4,3.8,3,5.5,4.7c1.7,1.7,3.2,3.6,4.5,5.6c1.3,2,2.5,4.2,3.3,6.4
						c-0.6-1-1.2-2.1-1.9-3c-0.6-1-1.3-2-2-2.9c-1.4-1.9-3-3.7-4.6-5.4c-1.6-1.7-3.4-3.3-5.3-4.8c-0.9-0.8-1.9-1.5-2.8-2.1
						C809.4,497.5,808.4,496.8,807.4,496.1z"/>
				</g>
				<g>
					<path class="st3" d="M823.6,459c-0.6,2.3-1.4,4.6-2.5,6.8c-1,2.2-2.3,4.3-3.7,6.2c-1.4,1.9-3,3.8-4.8,5.4
						c-1.8,1.6-3.7,3.1-5.8,4.3c0.9-0.8,1.8-1.6,2.7-2.4c0.9-0.8,1.7-1.6,2.5-2.5c1.6-1.7,3.2-3.5,4.5-5.5c1.4-1.9,2.7-3.9,3.8-6
						c0.6-1,1.1-2.1,1.6-3.2C822.6,461.2,823.1,460.1,823.6,459z"/>
				</g>
				<g>
					<path class="st3" d="M773.7,453.8c2.1,1.2,4,2.6,5.9,4.2c1.8,1.6,3.5,3.4,5,5.2c1.5,1.9,2.8,3.9,3.9,6.1c1.1,2.1,2,4.4,2.6,6.7
						c-0.5-1.1-1-2.2-1.6-3.2c-0.5-1.1-1.1-2.1-1.7-3.1c-1.2-2-2.6-4-4-5.8c-1.5-1.9-3.1-3.6-4.7-5.3c-0.8-0.8-1.7-1.6-2.6-2.4
						C775.6,455.3,774.7,454.5,773.7,453.8z"/>
				</g>
				<g>
					<path class="st3" d="M789,502.2c-0.1,2.4-0.6,4.8-1.2,7.1c-0.6,2.3-1.5,4.6-2.5,6.8c-1.1,2.2-2.3,4.3-3.7,6.2
						c-1.4,1.9-3.1,3.7-4.9,5.3c0.7-0.9,1.5-1.9,2.2-2.8c0.7-0.9,1.4-1.9,2-2.9c1.3-2,2.5-4.1,3.5-6.2c1-2.1,1.9-4.3,2.7-6.6
						c0.4-1.1,0.7-2.3,1-3.4C788.5,504.5,788.8,503.3,789,502.2z"/>
				</g>
				<g>
					<path class="st3" d="M754.1,497c1.9-1.5,3.9-2.8,6-4c2.1-1.2,4.4-2.1,6.7-2.8c2.3-0.7,4.7-1.2,7.1-1.5c2.4-0.3,4.8-0.3,7.2-0.1
						c-1.2,0.1-2.4,0.2-3.6,0.3c-1.2,0.1-2.4,0.3-3.5,0.5c-2.3,0.4-4.6,1-6.9,1.7c-2.3,0.7-4.5,1.6-6.6,2.5c-1.1,0.5-2.2,1-3.2,1.6
						C756.2,495.8,755.2,496.4,754.1,497z"/>
				</g>
				<path class="st3" d="M804.6,486.2c-1.1,0-2.2,1-2.3,2.2c-0.1,1.6,1.9,2.9,3.4,2.7c0.1,0,1.1-0.2,1.5-0.9
					C807.9,488.9,806.4,486.2,804.6,486.2z"/>
				<path class="st3" d="M795.2,484.9c-1.1,0-2.2,1-2.3,2.2c-0.1,1.6,1.9,2.9,3.4,2.7c0.1,0,1.1-0.2,1.5-0.9
					C798.6,487.6,797.1,484.9,795.2,484.9z"/>
				<path class="st3" d="M793.4,492.3c-1.1,0-2.2,1-2.3,2.2c-0.1,1.6,1.9,2.9,3.4,2.7c0.1,0,1.1-0.2,1.5-0.9
					C796.7,495,795.2,492.3,793.4,492.3z"/>
				<path class="st3" d="M785.9,483.6c-1.1,0-2.2,1-2.3,2.2c-0.1,1.6,1.9,2.9,3.4,2.7c0.1,0,1.1-0.2,1.5-0.9
					C789.2,486.3,787.8,483.5,785.9,483.6z"/>
				<path class="st3" d="M785.4,492c-1.1,0-2.2,1-2.3,2.2c-0.1,1.6,1.9,2.9,3.4,2.7c0.1,0,1.1-0.2,1.5-0.9
					C788.7,494.7,787.2,492,785.4,492z"/>
				<path class="st3" d="M800.3,478.5c-1.1,0-2.2,1-2.3,2.2c-0.1,1.6,1.9,2.9,3.4,2.7c0.1,0,1.1-0.2,1.5-0.9
					C803.6,481.2,802.1,478.5,800.3,478.5z"/>
				<path class="st3" d="M791,477.3c-1.1,0-2.2,1-2.3,2.2c-0.1,1.6,1.9,2.9,3.4,2.7c0.2,0,1.1-0.2,1.5-0.9
					C794.3,479.9,792.9,477.2,791,477.3z"/>
				<path class="st3" d="M801.5,494.5c-1.1,0-2.2,1-2.3,2.2c-0.1,1.6,1.9,2.9,3.4,2.7c0.1,0,1.1-0.2,1.5-0.9
					C804.8,497.2,803.3,494.4,801.5,494.5z"/>
			</g>
		</g>
		<g>
			<g>
				<g>
					<path class="st0" d="M723.4,446c-1.1,12.4-2.9,24.7-5.3,37c-1.2,6.1-2.6,12.2-4,18.3c-1.5,6-3.2,12.1-5,18
						c-1.9,6-3.9,11.8-6.2,17.7c-2.3,5.8-4.8,11.5-7.7,17.1c-2.8,5.6-6,11-9.6,16.1c-3.6,5.1-7.7,9.9-12.3,14
						c4.3-4.5,8.1-9.4,11.5-14.6c3.4-5.2,6.4-10.6,9-16.2c5.3-11.2,9.6-22.8,13.3-34.7c3.7-11.8,6.8-23.9,9.5-36
						c1.3-6.1,2.6-12.1,3.7-18.2C721.5,458.3,722.5,452.2,723.4,446z"/>
				</g>
				<path class="st0" d="M667.7,495.7c0,0,33.6,7.7,36.2,35.8C703.9,531.4,680.4,519.9,667.7,495.7z"/>
				<path class="st0" d="M697,550.7c0,0,25.1-23.6,49.9-10.2C746.8,540.5,724.1,553.6,697,550.7z"/>
			</g>
			<path class="st4" d="M736.4,432.5c0,0,65,4,62.4,30.3c-2.6,26.4-68.4-18.8-68.4-18.8s33.5,78.4,7.8,68.6
				c-25.7-9.8-18.1-62.3-18.1-62.3s-27.5,57.8-46,24.5c-18.5-33.3,39.7-34.8,39.7-34.8s-66.7-11.4-46.3-21.5
				c20.4-10.1,52.3,10,52.3,10s-12.3-47.2,6.9-45.3C745.9,385,736.4,432.5,736.4,432.5z"/>
			<g>
				<g>
					<g>
						<path class="st2" d="M724.6,441.1c3.8-3.3,7.8-6.4,12-9.1c4.2-2.7,8.7-5.1,13.3-7.2c4.6-2,9.4-3.7,14.2-5
							c4.9-1.3,9.8-2.2,14.8-2.6c-2.5,0.4-4.9,0.9-7.4,1.4c-2.4,0.5-4.9,1.2-7.3,1.9c-4.8,1.5-9.5,3.1-14,5.2c-4.6,2-9,4.4-13.3,6.9
							c-2.2,1.3-4.2,2.6-6.3,4.1C728.7,438.1,726.7,439.6,724.6,441.1z"/>
					</g>
					<path class="st2" d="M778,414.7c-1.1,0.4-1.8,1.8-1.5,2.9c0.4,1.6,2.8,2.2,4.2,1.5c0.1-0.1,1-0.5,1.2-1.4
						C782.1,416.2,779.7,414,778,414.7z"/>
				</g>
				<g>
					<g>
						<path class="st2" d="M725.6,440.4c4.4-2.5,9-4.6,13.7-6.3c4.7-1.8,9.6-3.1,14.5-4.2c4.9-1,9.9-1.7,15-1.9
							c5-0.2,10.1-0.1,15.1,0.6c-2.5-0.1-5-0.2-7.5-0.1c-2.5,0-5,0.1-7.5,0.3c-5,0.4-9.9,1.1-14.8,2.1c-4.9,1-9.7,2.4-14.4,4
							c-2.4,0.8-4.7,1.7-7,2.6C730.2,438.4,727.9,439.4,725.6,440.4z"/>
					</g>
					<path class="st2" d="M783.3,425.9c-1.1,0.2-2.1,1.3-2.1,2.5c0.1,1.7,2.3,2.8,3.8,2.3c0.1,0,1.1-0.3,1.4-1.1
						C787,428.2,785.2,425.6,783.3,425.9z"/>
				</g>
				<g>
					<g>
						<path class="st2" d="M724.9,441.1c2.9-4.1,6.1-8,9.5-11.7c3.5-3.7,7.2-7,11.2-10.1c4-3.1,8.2-5.8,12.6-8.3
							c4.4-2.4,9-4.5,13.8-6c-2.3,1-4.6,2-6.8,3.1c-2.2,1.1-4.5,2.3-6.6,3.6c-4.3,2.5-8.5,5.3-12.4,8.4c-4,3-7.7,6.4-11.3,9.9
							c-1.8,1.7-3.5,3.6-5.2,5.4C728.2,437.3,726.5,439.2,724.9,441.1z"/>
					</g>
					<path class="st2" d="M770.6,402.9c-0.9,0.6-1.3,2.1-0.8,3.2c0.8,1.5,3.2,1.5,4.5,0.4c0.1-0.1,0.9-0.8,0.8-1.6
						C774.9,403.4,772.1,401.9,770.6,402.9z"/>
				</g>
			</g>
		</g>
	</g>
	<g>
		<g>
			<g>
				<g>
					<path class="st0" d="M124.6,470.5c6.4,3.7,12.7,7.6,19,11.5c6.2,4,12.4,8,18.6,12.1c12.3,8.3,24.3,16.9,36,26
						c11.6,9.2,23.1,18.6,33.7,29c5.3,5.2,10.4,10.6,15,16.4c2.3,2.9,4.5,5.9,6.5,9l0.8,1.2c0.2,0.4,0.5,0.8,0.7,1.2l1.4,2.4
						c0.5,0.8,0.8,1.7,1.2,2.5l1.1,2.5c-3.2-6.7-7.6-12.6-12.4-18.2c-4.8-5.6-10-10.9-15.3-15.9c-10.8-10.1-22.1-19.5-33.8-28.5
						c-5.8-4.5-11.7-9-17.7-13.4c-5.9-4.4-12-8.6-18-12.9c-6-4.3-12.1-8.5-18.2-12.6C136.9,478.7,130.8,474.6,124.6,470.5z"/>
				</g>
				<path class="st0" d="M184.1,510.6c0,0-17.6-24.2-3.4-44.1C180.8,466.5,189.5,487.5,184.1,510.6z"/>
				<path class="st0" d="M192.7,553.2c0,0,26.7-13.6,44.1,3.7C236.8,556.9,214.7,562.2,192.7,553.2z"/>
			</g>
			<g>
				<path class="st1" d="M115.2,444.3c0,0,8.2-45.1,36.9-33.9c28.7,11.2-13.9,48.3-13.9,48.3s31.8-18,34.2,9.8
					c2.4,27.8-36.2,13.8-36.2,13.8s31.9,20.8,12.5,32.6c-19.4,11.8-42.2,10.1-39.5-25.9c0,0-8.1,32.8-23.7,20.9
					c-15.6-11.9-20.8-48,19.3-45.8c0,0-44.4-3.7-31.2-26C86.6,415.8,115.2,444.3,115.2,444.3z"/>
				<g>
					<path class="st5" d="M126,451.9c0.5-2.4,1.2-4.6,2.2-6.9c0.9-2.2,2.1-4.3,3.4-6.4c1.4-2,2.9-3.9,4.6-5.6
						c1.7-1.7,3.6-3.3,5.6-4.6c-0.9,0.8-1.8,1.6-2.6,2.5c-0.8,0.8-1.7,1.7-2.4,2.6c-1.5,1.8-3,3.7-4.3,5.6c-1.3,2-2.5,4-3.6,6.1
						c-0.5,1.1-1,2.1-1.5,3.2C126.9,449.7,126.5,450.8,126,451.9z"/>
				</g>
				<g>
					<path class="st5" d="M86.4,443.8c2.4,0.1,4.8,0.4,7.1,1c2.4,0.5,4.6,1.4,6.9,2.3c2.2,1,4.3,2.2,6.3,3.6c2,1.4,3.8,3,5.4,4.7
						c-1-0.7-1.9-1.5-2.9-2.1c-1-0.7-2-1.4-3-2c-2-1.2-4.1-2.4-6.3-3.3c-2.2-1-4.4-1.8-6.6-2.5c-1.1-0.4-2.3-0.7-3.4-0.9
						C88.7,444.3,87.5,444,86.4,443.8z"/>
				</g>
				<g>
					<path class="st5" d="M91.5,493.6c0.7-2.3,1.7-4.5,2.9-6.6c1.2-2.1,2.6-4.1,4.1-6c1.6-1.8,3.3-3.6,5.1-5.1c1.9-1.5,3.9-2.9,6-4
						c-1,0.7-1.9,1.4-2.8,2.2c-0.9,0.7-1.8,1.5-2.7,2.3c-1.7,1.6-3.4,3.3-4.9,5.2c-1.5,1.8-2.9,3.7-4.2,5.7c-0.7,1-1.3,2-1.8,3.1
						C92.6,491.5,92.1,492.6,91.5,493.6z"/>
				</g>
				<g>
					<path class="st5" d="M135.7,468.7c2.4-0.4,4.8-0.4,7.2-0.3c2.4,0.1,4.8,0.5,7.2,1.1c2.3,0.6,4.6,1.4,6.8,2.4
						c2.2,1,4.3,2.2,6.2,3.7c-1.1-0.5-2.1-1.1-3.2-1.6c-1.1-0.5-2.2-1-3.3-1.4c-2.2-0.8-4.5-1.6-6.8-2.1c-2.3-0.6-4.6-1-7-1.3
						c-1.2-0.2-2.4-0.2-3.6-0.3C138.1,468.7,136.9,468.7,135.7,468.7z"/>
				</g>
				<g>
					<path class="st5" d="M137.8,503.9c-1.9-1.5-3.6-3.2-5.1-5.1c-1.6-1.8-2.9-3.9-4.1-6c-1.2-2.1-2.2-4.3-2.9-6.6
						c-0.7-2.3-1.3-4.7-1.5-7c0.3,1.2,0.7,2.3,1.1,3.4c0.4,1.1,0.8,2.3,1.2,3.4c0.9,2.2,1.9,4.3,3.1,6.4c1.2,2.1,2.4,4.1,3.8,6
						c0.7,1,1.4,1.9,2.2,2.8C136.2,502.1,137,503,137.8,503.9z"/>
				</g>
				<g>
					<path class="st5" d="M116.9,456.8c0.3,1.1,1.5,2,2.6,1.8c1.6-0.2,2.5-2.4,2-3.9c-0.1-0.1-0.4-1.1-1.2-1.3
						C118.9,453,116.5,455,116.9,456.8z"/>
				</g>
				<g>
					<path class="st5" d="M117.5,466.2c0.3,1.1,1.5,2,2.6,1.8c1.6-0.2,2.5-2.4,2-3.9c-0.1-0.1-0.4-1.1-1.2-1.3
						C119.5,462.4,117.1,464.4,117.5,466.2z"/>
				</g>
				<g>
					<path class="st5" d="M125.2,466.4c0.3,1.1,1.5,2,2.6,1.8c1.6-0.2,2.5-2.4,2-3.9c-0.1-0.1-0.4-1.1-1.2-1.3
						C127.1,462.6,124.8,464.6,125.2,466.4z"/>
				</g>
				<g>
					<path class="st5" d="M118.2,475.5c0.3,1.1,1.5,2,2.6,1.8c1.6-0.2,2.5-2.4,2-3.9c-0.1-0.1-0.4-1.1-1.2-1.3
						C120.1,471.8,117.7,473.7,118.2,475.5z"/>
				</g>
				<g>
					<path class="st5" d="M126.6,474.4c0.3,1.1,1.5,2,2.6,1.8c1.6-0.2,2.5-2.4,2-3.9c-0.1-0.1-0.4-1.1-1.2-1.3
						C128.5,470.6,126.1,472.6,126.6,474.4z"/>
				</g>
				<g>
					<path class="st5" d="M110.3,462.6c0.3,1.1,1.5,2,2.6,1.8c1.6-0.2,2.5-2.4,2-3.9c-0.1-0.1-0.4-1.1-1.2-1.3
						C112.2,458.8,109.9,460.8,110.3,462.6z"/>
				</g>
				<g>
					<path class="st5" d="M110.9,471.9c0.3,1.1,1.5,2,2.6,1.8c1.6-0.2,2.5-2.4,2-3.9c-0.1-0.1-0.4-1.1-1.2-1.3
						C112.9,468.1,110.5,470.1,110.9,471.9z"/>
				</g>
				<g>
					<path class="st5" d="M125.6,458.1c0.3,1.1,1.5,2,2.6,1.8c1.6-0.2,2.5-2.4,2-3.9c-0.1-0.1-0.4-1.1-1.2-1.3
						C127.6,454.3,125.2,456.3,125.6,458.1z"/>
				</g>
			</g>
		</g>
		<g>
			<g>
				<g>
					<path class="st0" d="M94.3,544.5c12.4-1.5,24.8-2.3,37.3-2.4c6.2-0.1,12.5,0,18.7,0.2c6.2,0.2,12.5,0.6,18.7,1.2
						c6.2,0.6,12.4,1.4,18.6,2.4c6.2,1,12.3,2.3,18.3,4c6,1.6,12,3.6,17.7,6.1c5.7,2.5,11.3,5.4,16.3,9.2c-5.3-3.3-10.9-6-16.7-8.2
						c-5.8-2.2-11.7-4-17.7-5.5c-12-2.9-24.3-4.7-36.7-5.9c-12.3-1.2-24.7-1.7-37.2-1.8c-6.2-0.1-12.4,0-18.6,0.1
						C106.7,543.9,100.5,544.1,94.3,544.5z"/>
				</g>
				<path class="st0" d="M154.4,588.7c0,0,0.6-34.5,27.5-42.8C181.9,545.9,175.4,571.3,154.4,588.7z"/>
				<path class="st0" d="M202.2,548.7c0,0-28.3-19.7-20.2-46.7C182,502.1,199.4,521.6,202.2,548.7z"/>
			</g>
			<path class="st2" d="M78.4,534.6c0,0-9.5-64.4,16.8-67.3c26.4-2.9-4.3,70.8-4.3,70.8s69.8-48.9,65.5-21.8
				c-4.3,27.1-57.2,30.6-57.2,30.6s62.3,14.9,33.5,39.9c-28.8,25-42.3-31.7-42.3-31.7s2.6,67.6-11.5,49.8c-14.1-17.8-1-53.2-1-53.2
				s-43.7,21.8-45.8,2.6C30,535.1,78.4,534.6,78.4,534.6z"/>
			<g>
				<g>
					<g>
						<path class="st4" d="M89.2,544.3c-4-3-7.8-6.3-11.4-9.9c-3.6-3.6-6.8-7.5-9.8-11.5c-2.9-4.1-5.6-8.4-7.9-12.9
							c-2.3-4.5-4.2-9.2-5.6-14c0.9,2.3,1.9,4.7,2.9,6.9c1,2.3,2.1,4.5,3.4,6.7c2.4,4.4,5,8.6,8,12.7c2.9,4.1,6.1,7.9,9.5,11.6
							c1.7,1.8,3.5,3.6,5.3,5.3C85.5,541,87.3,542.6,89.2,544.3z"/>
					</g>
					<path class="st4" d="M52.4,497.6c0.6,0.9,2.1,1.4,3.1,0.9c1.5-0.7,1.6-3.2,0.6-4.4c-0.1-0.1-0.7-0.9-1.6-0.9
						C53,493.2,51.4,496,52.4,497.6z"/>
				</g>
				<g>
					<g>
						<path class="st4" d="M88.4,543.4c-3.3-3.8-6.3-7.8-9-12.1c-2.7-4.2-5.1-8.7-7.1-13.3c-2-4.6-3.7-9.4-5-14.3
							c-1.3-4.9-2.1-9.8-2.5-14.9c0.4,2.5,0.8,4.9,1.4,7.4c0.5,2.4,1.1,4.9,1.9,7.3c1.4,4.8,3.1,9.5,5.2,14.1c2,4.6,4.3,9,6.9,13.3
							c1.3,2.2,2.6,4.3,4,6.3C85.4,539.4,86.9,541.4,88.4,543.4z"/>
					</g>
					<path class="st4" d="M62.3,490c0.4,1.1,1.8,1.8,2.9,1.5c1.6-0.4,2.2-2.8,1.5-4.2c-0.1-0.1-0.5-1-1.4-1.2
						C63.8,485.9,61.6,488.2,62.3,490z"/>
				</g>
				<g>
					<g>
						<path class="st4" d="M89.2,544c-4.6-2-9.1-4.3-13.4-6.9c-4.3-2.6-8.3-5.6-12.2-8.9c-3.8-3.3-7.4-6.8-10.7-10.7
							c-3.3-3.8-6.2-7.9-8.7-12.3c1.4,2.1,2.9,4.1,4.5,6c1.5,2,3.2,3.9,4.8,5.7c3.4,3.7,6.9,7.2,10.8,10.4c3.8,3.3,7.8,6.2,12,9
							c2.1,1.4,4.2,2.7,6.4,3.9C84.8,541.6,87,542.8,89.2,544z"/>
					</g>
					<path class="st4" d="M42.4,507.2c0.8,0.8,2.4,0.9,3.3,0.1c1.3-1.1,0.8-3.5-0.5-4.5c-0.1-0.1-0.9-0.7-1.8-0.5
						C42,502.9,41.1,505.9,42.4,507.2z"/>
				</g>
			</g>
		</g>
	</g>
	<g>
		<path class="st6" d="M348.7,86.8c0,0,7.9,82.3-38,114.6c0,0,22,80.8,214.2,68.8L506.1,84.1L348.7,86.8z"/>
		<path class="st7" d="M377.7,197.3l28.6,66.4c0,0,48.2,12.5,103.9,6.9l23.7-48.4L377.7,197.3z"/>
		<g>
			<path class="st8" d="M444.3,254.7c0,0-94.1-0.2-156.2,46.8C247.1,332.6,191.8,384.1,183,453c-3.5,27,9.8,59.5,9.8,59.5l61.6-31.1
				c0,0,24.4-73.4,96.1-117.7c0,0-33.9,57.3-15.5,102.3c32.6,79.8-5.4,127.8-5.4,127.8s173.3,53.6,239.6,3.8
				c0,0-28.9-47.3-0.8-133.5c11.5-35.4,4.7-71.2,4-93.5c0,0,55.6,30.3,41.9,49.6c-23.9,33.5-2.5,52.7-2.5,52.7l35.9,39.2
				c0,0,97.4-15.4,11.3-149.9C568.3,220.6,444.3,254.7,444.3,254.7z"/>
			<path class="st9" d="M622.2,464.8c0,0-4.8-0.9-8.9-0.4c0,0,0.4,9.4,6.4,13.1L622.2,464.8z"/>
			<path class="st9" d="M416.6,452.3c0,0-28.1,17.3-53.7,9.8c0,0,18.4,19.9,27.2,18.9S416.6,452.3,416.6,452.3z"/>
			<path class="st9" d="M477.4,457c0,0,28.7,16.3,54,7.9c0,0-17.6,20.5-26.6,19.8C495.9,484,477.4,457,477.4,457z"/>
			<path class="st10" d="M444.3,254.7c0,0-18.4,0-44.2,4l60,82.8l58.1-86C475.6,246.1,444.3,254.7,444.3,254.7z"/>
			<path class="st9" d="M514.8,254.7c0,0,41.1,3.7,18.1,40.4c-15.7,25-35,3.7-42.7,29.5c-4.5,15.1-30.2,16.8-30.2,16.8L514.8,254.7z
				"/>
		</g>
		<path class="st2" d="M611.8,473c0,0,84.5,13.4,60.7,119.7c0,0-114.8,36.7-211.7,13.3c0,0-5.2-161.2,107.6-141.9L611.8,473z"/>
		<path class="st11" d="M477.4,605.1c0,0,5.8-66.8,15.9-79.5l-5.7,81.3L477.4,605.1z"/>
		<path class="st11" d="M636.7,548.6c4.7,8.8,4.2,31.2,3.2,47.3c-3,0.2-6.3,0.4-9.6,0.6L636.7,548.6z"/>
		<path class="st4" d="M283.3,469.7c0,0-84.9,10.6-64.7,117.6c0,0,114.9,29.4,212.5,9.3c0,0,2.5-152-110.8-136.6L283.3,469.7z"/>
		<path class="st12" d="M439.6,224.1c0,0-6.2,38.5-9,46.4c0,0,24.7,37.8,50.4,2.2l-5.5-49.3L439.6,224.1z"/>
		<polygon class="st13" points="437.6,240 479.3,258.2 476.8,233.7 		"/>
		<g>
			<path class="st12" d="M365.8,179.4c-4.8,1.9-10.7-0.6-14.1-4c-7.2-7.3-6-22.2,2.4-26.8c5-2.7,11.9-1.5,16,2.3
				C378.2,158.5,374.8,176,365.8,179.4z"/>
			<path class="st10" d="M346,168.3c-2.5,3.8-1.5,8.9,2.3,11.4c3.8,2.5,8.9,1.5,11.4-2.3c2.5-3.8,1.5-8.9-2.3-11.4
				C353.6,163.5,348.5,164.5,346,168.3z"/>
		</g>
		<polygon class="st7" points="349.1,93.9 369.5,142.4 383.8,91.2 		"/>
		<path class="st12" d="M367.5,112.3c-9.1,31.4-15.4,87.1,36.2,115.9c62.5,34.8,161.5,0.7,177.3-64.8c9.3-38.6-11.6-83.5-44.6-104.1
			C470.8,18.3,394.2,20.3,367.5,112.3z"/>
		<g>
			<path class="st13" d="M442.2,126c0,0,48.4,1.9,89.6-0.3l0.3-6.6C532,119.2,502.7,126.7,442.2,126z"/>
		</g>
		<path class="st6" d="M532,119.2c0,0-141.3,30.4-190.1-33.3c0,0,20.5-88.1,118-80.7c97.5,7.4,148.2,52.4,148.2,138.6
			c0.1,86.2-13.1,146.5-13.1,146.5s-67.7,37-110.7-21.6C484.5,268.7,528.2,234.2,532,119.2z"/>
		<path class="st12" d="M516.7,189.6c3.4,4.6,10.2,5.8,15.3,4.7c10.9-2.5,18.7-17,13.6-26.2c-3-5.4-10.2-8.4-16.1-7.3
			C517.6,162.9,510.5,181.1,516.7,189.6z"/>
		<g>
			<path class="st14" d="M457.9,174.1c1.5-3,3.9-5.7,6.9-7.7c1.5-1,3.1-1.8,4.9-2.2c1.8-0.4,3.7-0.5,5.6-0.2c1.8,0.3,3.6,1.1,5.1,2
				c1.5,1,2.9,2.2,4.1,3.5c2.4,2.6,4.1,5.6,5.3,8.8c-2.3-2.5-4.4-5.1-6.9-7.1c-1.3-1-2.5-2-3.9-2.7c-1.4-0.7-2.8-1.3-4.2-1.5
				c-2.9-0.6-6,0.1-8.8,1.5C463.1,169.8,460.4,171.8,457.9,174.1z"/>
		</g>
		<g>
			<path class="st14" d="M377.1,162.9c1.3-2.7,3.3-5,5.9-6.8c1.3-0.9,2.7-1.6,4.3-2c1.6-0.4,3.3-0.5,4.9-0.2
				c1.6,0.3,3.1,0.9,4.5,1.8c1.3,0.9,2.5,1.9,3.5,3c2,2.3,3.5,4.9,4.4,7.7c-2-2.2-3.9-4.3-6.1-6c-1.1-0.9-2.2-1.7-3.3-2.3
				c-1.2-0.6-2.4-1.1-3.6-1.3c-2.5-0.5-5,0-7.5,1.2C381.6,159.3,379.3,160.9,377.1,162.9z"/>
		</g>
		<path class="st13" d="M429.9,155c0,0-8.9,32.7-17.7,41.4c0,0,6.5,8.8,26.2,4.5L429.9,155z"/>
		<g>
			<path class="st6" d="M425.6,211.6c4.5,1.7,9.1,2.7,13.8,3.1c1.2,0.1,2.3,0.2,3.5,0.2c1.2,0,2.3,0.1,3.5,0
				c1.2-0.1,2.3-0.1,3.5-0.2l3.5-0.4c1.2-0.1,2.3-0.4,3.4-0.7l1.7-0.4l1.7-0.5c1.1-0.3,2.3-0.6,3.4-1c1.1-0.4,2.2-0.8,3.3-1.2
				l1.7-0.6l1.6-0.8l3.2-1.5c2.1-1.1,4.2-2.3,6.3-3.4c-1.9,1.4-3.8,2.9-5.8,4.2l-3.1,1.8l-1.6,0.9l-1.7,0.7c-1.1,0.5-2.2,1-3.3,1.5
				c-1.1,0.4-2.3,0.8-3.4,1.1l-1.7,0.5l-1.8,0.4c-1.2,0.2-2.4,0.6-3.6,0.7c-4.8,0.7-9.7,0.7-14.5,0
				C434.5,215.5,429.8,214.1,425.6,211.6z"/>
		</g>
		<g>
			<path class="st6" d="M511.4,153.5c-3.8-2.9-8-5.1-12.4-6.8c-1.1-0.4-2.2-0.9-3.3-1.2c-1.1-0.3-2.2-0.8-3.4-1
				c-1.1-0.2-2.3-0.6-3.4-0.8l-3.5-0.5c-1.2-0.2-2.3-0.2-3.5-0.3l-1.8-0.1l-1.8,0c-1.2,0-2.3,0-3.5,0c-1.2,0.1-2.3,0.2-3.5,0.3
				l-1.8,0.1l-1.7,0.3l-3.5,0.5c-2.3,0.4-4.6,1-7,1.5c2.2-0.9,4.5-1.7,6.8-2.4l3.5-0.9l1.8-0.4l1.8-0.2c1.2-0.2,2.4-0.3,3.6-0.5
				c1.2-0.1,2.4-0.1,3.6-0.1l1.8,0l1.8,0.1c1.2,0.1,2.4,0.1,3.6,0.3c4.8,0.6,9.5,2,13.9,4C504,147.3,508.1,150,511.4,153.5z"/>
		</g>
		<g>
			<path class="st6" d="M419.1,140.8c-3.4-2.4-7.1-4.2-10.9-5.6c-1-0.3-1.9-0.7-2.9-0.9c-1-0.3-1.9-0.6-2.9-0.8c-1-0.2-2-0.5-3-0.6
				l-3-0.4c-1-0.1-2-0.1-3-0.2l-1.5-0.1l-1.5,0c-1,0-2,0-3.1,0.1c-1,0.1-2,0.2-3,0.3l-1.5,0.1l-1.5,0.3l-3,0.5c-2,0.4-4,1-6.1,1.4
				c1.9-0.8,3.8-1.6,5.8-2.3l3-0.8l1.5-0.4l1.6-0.3c1-0.2,2.1-0.3,3.1-0.5c1-0.1,2.1-0.1,3.2-0.2l1.6-0.1l1.6,0.1
				c1.1,0.1,2.1,0.1,3.2,0.2c4.2,0.5,8.3,1.6,12.2,3.3C412.6,135.5,416.2,137.8,419.1,140.8z"/>
		</g>
		<path class="st10" d="M541.6,191c0.1,5-3.9,9.1-8.9,9.2s-9.1-3.9-9.2-8.9c-0.1-5,3.9-9.1,8.9-9.2C537.4,182,541.5,186,541.6,191z"
			/>
		<path class="st15" d="M351.3,85c0,0,2.3-11.7,13.2-28.5c0,0,30.3,37.6,137.4,55.9C501.9,112.5,417.4,134.1,351.3,85z"/>
		<g>
			<path class="st12" d="M574.9,442.2c0,0-6.6,24.2-10,30c0,0,18.9,17.7,37.4,5.2l1.3-30.2L574.9,442.2z"/>
			<polygon class="st13" points="570.8,454.5 602.4,470.4 603.1,455.5 			"/>
			<path class="st12" d="M534.8,342c-12.1,23.6-25.8,67,10.9,97.8c44.4,37.4,128.5,25.5,151.1-24.2c13.4-29.3,3.6-68.3-19.4-89.8
				C631.5,283.1,570.2,272.9,534.8,342z"/>
			<g>
				<path class="st14" d="M601.9,392.1c2-2,4.5-3.4,7.4-4.1c1.4-0.3,2.9-0.5,4.5-0.3c1.5,0.2,3,0.7,4.4,1.5c1.3,0.8,2.5,1.9,3.4,3.1
					c0.9,1.2,1.6,2.5,2.1,3.9c1,2.7,1.4,5.5,1.3,8.3c-1.1-2.6-2.1-5.1-3.4-7.3c-0.7-1.1-1.3-2.2-2.2-3.1c-0.8-0.9-1.7-1.7-2.7-2.3
					c-2-1.2-4.4-1.6-6.9-1.4C607.1,390.5,604.5,391.2,601.9,392.1z"/>
			</g>
			<g>
				<path class="st14" d="M543.8,360.5c1.7-1.8,3.9-3,6.3-3.7c1.2-0.3,2.6-0.4,3.9-0.3c1.3,0.1,2.7,0.6,3.9,1.3
					c1.2,0.7,2.2,1.7,3,2.7c0.8,1.1,1.4,2.2,1.8,3.4c0.8,2.4,1.1,4.8,0.9,7.2c-1-2.2-1.9-4.3-3.1-6.2c-1.1-1.9-2.5-3.5-4.2-4.5
					c-1.7-1-3.7-1.4-5.8-1.2C548.4,359.2,546.1,359.8,543.8,360.5z"/>
			</g>
			<path class="st13" d="M586.1,369.6c0,0-16.1,22.2-25.3,26.3c0,0,2.4,8.5,18.6,10.9L586.1,369.6z"/>
			<g>
				<path class="st6" d="M566.7,411.4c2.9,2.5,6.2,4.5,9.6,6.2c0.9,0.4,1.7,0.8,2.6,1.1c0.9,0.3,1.7,0.7,2.7,1
					c0.9,0.3,1.8,0.6,2.7,0.8l2.8,0.7c0.9,0.2,1.9,0.3,2.8,0.5l1.4,0.2l1.4,0.1c0.9,0.1,1.9,0.2,2.8,0.2c0.9,0,1.9,0,2.9,0l1.4,0
					l1.4-0.1l2.9-0.2c1.9-0.2,3.8-0.5,5.8-0.7c-1.8,0.6-3.7,1.2-5.6,1.6l-2.9,0.5l-1.5,0.2l-1.5,0.1c-1,0.1-2,0.1-2.9,0.2
					c-1,0-2-0.1-3-0.1l-1.5-0.1l-1.5-0.2c-1-0.2-2-0.3-2.9-0.5c-3.9-0.8-7.6-2.2-11-4.2C572.2,417,569.1,414.5,566.7,411.4z"/>
			</g>
			<g>
				<path class="st6" d="M648.4,391.9c-2.1-3.2-4.7-6.1-7.5-8.6c-0.7-0.6-1.4-1.3-2.2-1.8c-0.8-0.6-1.5-1.2-2.3-1.7
					c-0.8-0.5-1.5-1.1-2.4-1.6l-2.5-1.4c-0.8-0.5-1.7-0.8-2.5-1.2l-1.3-0.6l-1.3-0.5c-0.9-0.3-1.8-0.7-2.7-1
					c-0.9-0.3-1.8-0.5-2.7-0.8l-1.4-0.4l-1.4-0.3l-2.8-0.6c-1.9-0.4-3.8-0.6-5.7-1c1.9-0.1,3.9-0.1,5.8,0l2.9,0.3l1.5,0.2l1.4,0.3
					c1,0.2,1.9,0.4,2.9,0.7c0.9,0.3,1.9,0.6,2.8,0.9l1.4,0.5l1.3,0.6c0.9,0.4,1.8,0.8,2.7,1.3c3.5,1.9,6.7,4.3,9.4,7.1
					C644.7,385,647,388.2,648.4,391.9z"/>
			</g>
			<g>
				<path class="st6" d="M582,355.8c-2-2.8-4.3-5.1-6.8-7.3c-1.3-1.1-2.6-2-3.9-2.9c-0.7-0.4-1.4-0.9-2.1-1.3l-2.2-1.2
					c-0.7-0.4-1.5-0.7-2.2-1l-1.1-0.5l-1.2-0.4c-0.8-0.3-1.5-0.6-2.3-0.8c-0.8-0.2-1.6-0.4-2.4-0.7l-1.2-0.3l-1.2-0.2l-2.4-0.5
					c-1.6-0.3-3.3-0.5-5-0.8c1.7-0.1,3.4-0.2,5.1-0.2l2.5,0.2l1.3,0.1l1.3,0.2c0.8,0.2,1.7,0.3,2.5,0.5c0.8,0.2,1.6,0.5,2.5,0.7
					l1.2,0.4l1.2,0.5c0.8,0.4,1.6,0.6,2.4,1c3.1,1.6,5.9,3.6,8.3,6C578.7,349.8,580.8,352.6,582,355.8z"/>
			</g>
			<path class="st16" d="M625.1,416.1c-1,1.9,1.5,5.3,5.7,7.7s8.5,2.7,9.5,0.8c1-1.9-1.5-5.3-5.7-7.7
				C630.4,414.5,626.1,414.2,625.1,416.1z"/>
			<path class="st16" d="M529.9,367.4c-1,1.9,1.5,5.3,5.7,7.7c4.2,2.3,8.5,2.7,9.5,0.8c1-1.9-1.5-5.3-5.7-7.7
				C535.2,365.8,530.9,365.5,529.9,367.4z"/>
			<path class="st15" d="M683.8,362.2c0,0-123.1-4.9-128.8-62.8c-5.7-57.8,30.1-62,30.1-62s45.4,31.5,97.8,71.6
				c52.3,40.1,32,67.3,32,67.3L683.8,362.2z"/>
			<path class="st15" d="M640.8,356.9c0,0,42.3,9.8,41,34.4c-1.2,24.6-18.8,26.9-18.3,35.5c0.4,8.6-23.5,25.3,7.8,33.9
				c30,8.3,52.9-89.4,46.8-105.2L640.8,356.9z"/>
			<path class="st17" d="M681.7,387.8L681.7,387.8c0.1,1.1,0.2,2.3,0.1,3.5c-1.2,24.6-18.8,26.9-18.3,35.5
				c0.4,8.6-23.5,25.3,7.8,33.9c5.9,1.6,11.5-0.8,16.7-6c-6.7-1.1-16.3-5.5-9.9-21.8C687.6,409.2,681.7,387.8,681.7,387.8z"/>
			<path class="st12" d="M656.9,434c1.2,4.4,6.1,7.3,10.3,7.9c9,1.3,19.1-7.5,17.8-16c-0.7-5-5.3-9.3-10.2-10.2
				C665.2,414.1,654.6,425.8,656.9,434z"/>
			<path class="st18" d="M583.9,243.1c0,0-50.1,50.1,5.5,84.4C589.4,327.5,567,280.9,583.9,243.1z"/>
		</g>
		<g>
			<path class="st19" d="M237.6,566.8c0,0-10.2-18.1-1.7-45c0,0,5.7,7.4,17.1,5l-33.9-38.1l-0.5,50.8L237.6,566.8z"/>
			<path class="st12" d="M246.4,460.3c0,0,2.3,39.7,6.7,66.5c0,0-19.8,1.1-24.2-22.5c0,0-13.9,38.4,8.8,61.1c0,0-5.1,9.2-13.1,6.9
				c-8-2.2-20.2-24.7-19.4-33c0.8-8.2,1.3-26,4.5-32.3c0,0,3.2,47.5,7.1,56.2c0,0-6.6,4.3-14.4-1.6c-7.9-5.9-11.5-34.6-9.2-42.5
				c2.3-7.9,8.7-21.8,8.7-21.8l-3.1,55.6c0,0-6,5-12-1.4c-6-6.4-7.8-29-6-34.8c1.8-5.8,4.2-21.3,13.3-27.6S246.4,460.3,246.4,460.3z
				"/>
		</g>
		<g>
			<g>
				<path class="st6" d="M162.1,328.2c0,0-45.6,110.1,66.2,144.2c111.9,34.1,117.4-131.1,117.4-131.1s-47.3-83.3-52.1-80.7
					C288.9,263.2,162.1,328.2,162.1,328.2z"/>
				<path class="st7" d="M193.5,422.5c0,0,37.4,55.5,101.5,43l-15.7-49.7L193.5,422.5z"/>
				<path class="st12" d="M305.2,421.3c0,0,11.8,34,15.7,40.2c0,0-15.8,19.2-37.8,10.6l-8.7-44.3L305.2,421.3z"/>
				<polygon class="st13" points="310.1,434.5 280.2,457.5 275.9,436.3 				"/>
				<path class="st12" d="M344.8,311.4c14,25.1,30.4,71.5-8.1,106.3c-46.6,42.1-138,32.5-164.4-20.4c-15.6-31.2-6.5-73.7,17.6-97.9
					C237.9,251.3,303.8,238,344.8,311.4z"/>
				<g>
					<path class="st14" d="M274.1,368.2c-2.8-0.9-5.7-1.6-8.4-1.7c-2.8-0.1-5.4,0.4-7.5,1.8c-1.1,0.7-2,1.6-2.9,2.6
						c-0.9,1-1.5,2.2-2.2,3.4c-1.3,2.5-2.2,5.2-3.3,8.1c-0.2-3,0.1-6,1.1-9c0.5-1.5,1.2-2.9,2.1-4.2c0.9-1.3,2.1-2.5,3.5-3.4
						c1.4-0.9,3-1.5,4.6-1.8c1.6-0.2,3.3-0.2,4.8,0.1C269,364.7,271.8,366.1,274.1,368.2z"/>
				</g>
				<g>
					<path class="st14" d="M335.7,331.7c-2.5-0.7-4.9-1.3-7.3-1.3c-2.4-0.1-4.6,0.4-6.4,1.6c-0.9,0.6-1.7,1.3-2.4,2.2
						c-0.7,0.9-1.3,1.9-1.9,2.9c-1.2,2.1-2,4.5-3,6.9c-0.2-2.6,0-5.3,0.8-7.8c0.4-1.3,1-2.5,1.8-3.7c0.8-1.2,1.8-2.2,3.1-3
						c1.2-0.8,2.6-1.3,4.1-1.5c1.4-0.2,2.9-0.1,4.2,0.2C331.4,328.7,333.8,329.9,335.7,331.7z"/>
				</g>
				<path class="st13" d="M290.3,343.2c0,0,18.3,23.5,28.4,27.5c0,0-2.3,9.3-19.7,12.5L290.3,343.2z"/>
				<g>
					<path class="st6" d="M312.9,387.7c-2.5,3.4-5.8,6.2-9.4,8.5c-3.6,2.2-7.6,3.9-11.8,4.9c-1,0.3-2.1,0.4-3.1,0.6L287,402
						l-1.6,0.1c-1.1,0.1-2.1,0.2-3.2,0.2c-1.1,0-2.1,0-3.2-0.1l-1.6,0l-1.6-0.2l-3.1-0.4c-2.1-0.4-4.1-1-6.1-1.5
						c2.1,0.1,4.2,0.4,6.3,0.5l3.1,0.1l1.5,0.1l1.5-0.1c1-0.1,2.1-0.1,3.1-0.1c1-0.1,2-0.2,3.1-0.4l1.5-0.2l1.5-0.3
						c1-0.2,2-0.4,3-0.6l3-0.8c1-0.3,1.9-0.7,2.9-1c1-0.3,1.9-0.8,2.8-1.2c1-0.4,1.9-0.9,2.8-1.3
						C306.4,392.8,309.8,390.5,312.9,387.7z"/>
				</g>
				<g>
					<path class="st6" d="M223.8,369.7c1.4-4,3.8-7.6,6.7-10.7c2.9-3.2,6.2-5.9,9.9-8c0.9-0.5,1.9-1,2.8-1.5l1.4-0.7l1.5-0.6
						c1-0.4,2-0.8,3-1.1c1-0.3,2.1-0.6,3.1-0.8l1.5-0.4l1.6-0.3l3.1-0.5c2.1-0.2,4.2-0.2,6.3-0.3c-2.1,0.5-4.1,0.8-6.2,1.2l-3,0.8
						l-1.5,0.4l-1.5,0.5c-1,0.3-2,0.7-2.9,1c-1,0.4-1.9,0.8-2.8,1.2l-1.4,0.6l-1.4,0.7c-0.9,0.5-1.8,0.9-2.7,1.4l-2.6,1.6
						c-0.9,0.6-1.7,1.2-2.5,1.8c-0.9,0.6-1.6,1.3-2.4,1.9c-0.8,0.6-1.5,1.4-2.3,2.1C228.6,362.9,225.9,366,223.8,369.7z"/>
				</g>
				<g>
					<path class="st6" d="M294.2,328.1c1.3-3.5,3.4-6.6,5.9-9.3c2.5-2.7,5.5-5,8.8-6.8c0.8-0.5,1.7-0.8,2.5-1.2l1.3-0.6l1.3-0.5
						c0.9-0.3,1.8-0.6,2.6-0.9c0.9-0.2,1.8-0.4,2.7-0.6l1.4-0.3l1.4-0.2l2.7-0.3c1.8-0.1,3.7-0.1,5.5,0c-1.8,0.4-3.6,0.6-5.4,1
						l-2.6,0.6l-1.3,0.3l-1.3,0.4c-0.9,0.3-1.7,0.5-2.6,0.8c-0.8,0.3-1.7,0.7-2.5,1l-1.2,0.5l-1.2,0.6c-0.8,0.4-1.6,0.8-2.4,1.2
						l-2.3,1.3c-0.8,0.5-1.5,1-2.2,1.5c-0.8,0.5-1.4,1.1-2.1,1.6c-0.7,0.5-1.4,1.1-2,1.7C298.6,322.3,296.2,325,294.2,328.1z"/>
				</g>
				<path class="st6" d="M248.1,287.1c0,0-19.5,94.1-76.1,149.8c0,0-114.6-120,54.2-163.9c0,0,36.8-75.5,103.7,11.5
					C330,284.6,301,305.6,248.1,287.1z"/>
				<path class="st12" d="M208.7,422.4c-1.2,4.8-6.3,8.2-10.8,9c-9.7,1.7-20.9-7.4-19.9-16.6c0.6-5.4,5.4-10.2,10.6-11.4
					C198.9,401.1,210.9,413.4,208.7,422.4z"/>
				<path class="st15" d="M232.3,274.7c0,0,20.9-42.5,55-21.5s34.1,27.5,34.1,27.5S278,249.8,232.3,274.7z"/>
				<path class="st15" d="M222.3,282.4c0,0-76.9,19.2-65.7,64.3C156.6,346.8,177,313,222.3,282.4z"/>
			</g>
			<path class="st16" d="M249.9,395c1.2,2-1.4,5.8-5.9,8.5c-4.5,2.7-9.1,3.2-10.3,1.2s1.4-5.8,5.9-8.5S248.7,393,249.9,395z"/>
			<path class="st16" d="M351.1,338.6c1.2,2-1.4,5.8-5.9,8.5c-4.5,2.7-9.1,3.2-10.3,1.2c-1.2-2,1.4-5.8,5.9-8.5
				C345.3,337.2,349.9,336.6,351.1,338.6z"/>
		</g>
		<path class="st19" d="M410.8,595.8c0,0-1.2-56.5-10.8-69.6l0.6,71L410.8,595.8z"/>
		<path class="st19" d="M255.8,544.4c-4.9,8.6-5.3,31.1-4.8,47.1c3,0.3,6.2,0.6,9.6,1L255.8,544.4z"/>
		<g>
			<path class="st11" d="M592.7,562.2c0,0,18.2-13.5,21.5-44c0,0-9,4.9-19.3-2.5l50.6-22.9l-21.9,50.7L592.7,562.2z"/>
			<path class="st12" d="M622.2,464.8c0,0-11,26.1-27.2,50.8c0,0,19.2,9.8,34-11.7c0,0-3.2,44.3-35.8,56.9c0,0,1,11.3,10,12.6
				c9,1.3,31.1-15.7,33.9-24.2c2.8-8.5,10.2-26.4,9.7-34.1c0,0-24.2,45.8-31.9,52.7c0,0,4.6,7.2,15.1,4.8
				c10.4-2.4,26.7-29.4,27.9-38.2c1.2-8.9,1-25.5,1-25.5l-21.4,56.7c0,0,3.7,7.6,12.5,3.9c8.8-3.7,20.5-25.4,21.3-32
				c0.8-6.6,11.1-36.9,4.7-47.1C662.3,468.6,622.2,464.8,622.2,464.8z"/>
		</g>
		<path class="st11" d="M514.9,509.8c0,0-11.8,27.2,12.2,31.7c24,4.5,26.9-23.7,26.9-23.7L514.9,509.8z"/>
		<path class="st9" d="M400.1,258.6c0,0-42.3,3.3-18,39.1c16.5,24.4,35.1,2.5,43.7,28c5.1,15,34.3,15.7,34.3,15.7L400.1,258.6z"/>
		<path class="st20" d="M252.9,467.2c0,0-37.2,52,49,95.8C301.9,563,319,523.6,252.9,467.2z"/>
		<g class="st21">
			<path d="M216.6,582.2c0,0,53-17.1,244.2,6.3c41.7,5.1,64.9,4,92.9,3.6c40.6-0.6,74.3-6.3,121.4-13.7l-81.9,40.4l-271.9-21.6
				L216.6,582.2z"/>
		</g>
		<path class="st11" d="M564.9,472.2c0,0,12.8,17,37.4,5.2"/>
		<g>
			<path class="st19" d="M283.1,472.1c3.6,0.2,7,0.3,10.3,0.1c3.3-0.2,6.6-0.7,9.8-1.5c1.6-0.4,3.1-0.9,4.7-1.5
				c1.5-0.6,3-1.3,4.5-2.1c2.9-1.6,5.7-3.5,8.6-5.6c-1.6,3.2-4,6-6.9,8.3c-1.4,1.1-3,2.1-4.7,2.9c-1.7,0.8-3.4,1.4-5.2,1.9
				c-3.6,0.9-7.3,1.1-10.9,0.7C289.8,474.9,286.2,473.9,283.1,472.1z"/>
		</g>
	</g>
	<path class="st22" d="M665.6,176.9c0,0,12.1-15.7,19.3-7c7.2,8.7-25,28.2-25,28.2s-30.2-44.1-13.2-39.8
		C663.5,162.6,665.6,176.9,665.6,176.9z"/>
	<path class="st22" d="M852.4,263.3c0,0,4.5-19.3,14.6-14.4S855.9,285,855.9,285s-45.7-27.7-28.5-30.8
		C844.6,251.1,852.4,263.3,852.4,263.3z"/>
	<path class="st22" d="M29.4,429.3c0,0,12.1-15.7,19.3-7c7.2,8.7-25,28.2-25,28.2s-30.2-44.1-13.2-39.8
		C27.3,415,29.4,429.3,29.4,429.3z"/>
	<path class="st22" d="M905.5,425.8c0,0,12.1-15.7,19.3-7c7.2,8.7-25,28.2-25,28.2s-30.2-44.1-13.2-39.8
		C903.4,411.5,905.5,425.8,905.5,425.8z"/>
	<path class="st22" d="M92.5,276.1c0,0-7.3-18.4,3.8-20.1c11.1-1.8,11.6,35.9,11.6,35.9s-53.3,3.5-41-8.9
		C79.1,270.7,92.5,276.1,92.5,276.1z"/>
	<path class="st22" d="M254.5,82.5c0,0,1.8-19.7,12.5-16.3c10.7,3.5-5.9,37.3-5.9,37.3s-49.1-21-32.6-26.5
		C245,71.6,254.5,82.5,254.5,82.5z"/>
</g>
</svg>
