<?xml version="1.0" encoding="utf-8"?>
<!-- Generator: Adobe Illustrator 22.0.1, SVG Export Plug-In . SVG Version: 6.00 Build 0)  -->
<svg version="1.1" id="Capa_1" xmlns="http://www.w3.org/2000/svg" xmlns:xlink="http://www.w3.org/1999/xlink" x="0px" y="0px"
	 viewBox="0 0 477.9 444.2" style="enable-background:new 0 0 477.9 444.2;" xml:space="preserve">
<style type="text/css">
	.st0{fill:#FFFFFF;}
	.st1{opacity:0.5;}
	.st2{fill:#828343;}
	.st3{fill:#FF8F8F;}
	.st4{fill:#FDF57A;}
	.st5{fill:#FFB57D;}
	.st6{fill:#1E160E;}
	.st7{opacity:0.5;fill:#EDBF91;}
	.st8{fill:#56572D;}
	.st9{fill:#EDBF91;}
	.st10{fill:#FFDCB3;}
	.st11{opacity:0.2;}
	.st12{fill:none;stroke:#EDBF91;stroke-miterlimit:10;}
	.st13{opacity:0.1;}
	.st14{fill:#3A342E;}
</style>
<g>
	<g>
		<path class="st0" d="M432.6,120.2c46.8,146.8-61.5,300.3-61.5,300.3s-183.9,38.3-300-63.1C-44.9,256,22.6,178.7,31.3,168.9
			c8.7-9.8,61.3-63.8,161.2-20.6c0.1-108.8,70.6-135.6,83-139.7C288,4.6,385.8-26.6,432.6,120.2z"/>
	</g>
	<g>
		<g>
			<g>
				<g class="st1">
					<path class="st2" d="M102,378c1.1,1.3,2.4,2.4,3.7,3.5c1.3,1.1,2.6,2.2,3.9,3.2c2.7,2,5.6,3.8,8.5,5.4
						c5.9,3.2,12.3,5.4,18.9,6.6c3.3,0.6,6.6,1,10,1.1c3.3,0.1,6.7,0,10-0.3c6.7-0.7,13.5-1.3,20.3-1.6c3.4-0.2,6.8-0.2,10.2-0.1
						c3.4,0.1,6.8,0.3,10.2,0.7c3.4,0.4,6.8,1,10.1,1.9c0.8,0.2,1.7,0.4,2.5,0.7l2.5,0.8l2.4,0.9c0.8,0.3,1.6,0.7,2.4,1
						c3.1,1.4,6.2,3,9,4.9c2.9,1.9,5.5,4,8,6.4c2.5,2.3,4.8,4.9,6.9,7.5c2.2,2.6,4,5.5,5.8,8.3c-3.9-5.5-8.2-10.8-13.3-15.2
						c-2.5-2.2-5.2-4.2-8.1-6c-2.9-1.8-5.8-3.3-8.9-4.6c-6.2-2.6-12.8-4-19.4-4.7c-6.7-0.7-13.4-0.8-20.1-0.5
						c-6.7,0.3-13.5,0.9-20.2,1.5c-6.8,0.6-13.7,0.3-20.4-1.1c-6.7-1.4-13.2-3.9-19.1-7.3c-2.9-1.7-5.8-3.6-8.4-5.8
						C106.6,383,104.1,380.6,102,378z"/>
					<path class="st2" d="M131,355.5c3.3-8.7,28.3,10.7,28.3,10.7S127.8,363.9,131,355.5z"/>
					<path class="st2" d="M84.4,356.5c7.2-5.9,19.1,23.4,19.1,23.4S77.5,362.1,84.4,356.5z"/>
					<path class="st2" d="M122.3,375.1c7.2-5.9,19.1,23.4,19.1,23.4S115.3,380.7,122.3,375.1z"/>
					<path class="st2" d="M151.7,380.1c4.9-7.9,25.6,16.1,25.6,16.1S147,387.6,151.7,380.1z"/>
					<path class="st2" d="M171.2,356c9-2.1,6.9,29.4,6.9,29.4S162.6,358.1,171.2,356z"/>
					<path class="st2" d="M195.8,378.2c7.2-5.9,19.2,23.3,19.2,23.3S188.9,383.9,195.8,378.2z"/>
					<path class="st2" d="M151.9,427.2c-4-8.3,27.2-13.2,27.2-13.2S155.8,435.2,151.9,427.2z"/>
					<path class="st2" d="M165.5,405.2c0.6-9.3,30.2,1.8,30.2,1.8S165,414.1,165.5,405.2z"/>
					<path class="st2" d="M192.2,426c-6.9-6.2,20.3-22.4,20.3-22.4S198.8,432,192.2,426z"/>
					<path class="st2" d="M91.5,398.9c-1.9-9.1,29.6-6.1,29.6-6.1S93.3,407.6,91.5,398.9z"/>
					<path class="st2" d="M135.5,415.4c-5.6-7.4,24-18.4,24-18.4S140.9,422.5,135.5,415.4z"/>
					<path class="st2" d="M150.5,362.2c2.6,0.5,5.2,1.5,7.5,2.9c2.3,1.4,4.4,3.1,6.4,5c3.9,3.7,7.3,7.9,11,11.7
						c1.8,1.9,3.8,3.7,5.9,5.3c2.1,1.6,4.3,3,6.6,4.4c2.3,1.4,4.6,2.6,7.1,3.7c2.4,1.1,4.9,2.1,7.5,2.8c-2.7-0.4-5.2-1.2-7.8-2.2
						c-2.5-1-5-2.1-7.3-3.4c-2.4-1.3-4.6-2.7-6.9-4.3c-2.2-1.6-4.2-3.5-6.1-5.4c-1.9-2-3.6-4-5.4-6c-1.7-2-3.5-4-5.4-5.9
						c-0.9-1-1.9-1.9-2.9-2.7c-1-0.9-2-1.7-3.1-2.4C155.5,364.2,153.1,363,150.5,362.2z"/>
					<path class="st2" d="M173.5,416.8c4-2.5,8.2-4.7,12.5-6.7c4.3-2,8.7-3.9,13.2-5.3c2.3-0.7,4.6-1.3,7-1.6c2.4-0.3,4.8-0.3,7.2,0
						c2.4,0.3,4.7,0.8,7,1.5c2.3,0.7,4.5,1.6,6.5,2.8c-2.2-0.9-4.4-1.6-6.7-2.1c-2.3-0.5-4.6-0.9-6.9-1.1c-2.3-0.1-4.6-0.1-6.9,0.3
						c-2.3,0.3-4.5,0.9-6.8,1.6l-1.7,0.5l-1.7,0.6c-1.1,0.4-2.2,0.8-3.3,1.2c-2.2,0.8-4.4,1.7-6.6,2.6
						C182.1,413,177.8,414.9,173.5,416.8z"/>
				</g>
				<g>
					<path class="st3" d="M92.6,366.3c0,0,4.4,22.1-1.6,21.6C85,387.5,92.6,366.3,92.6,366.3z"/>
					<path class="st3" d="M92.6,366.3c0,0-7.2,21.4-12.2,17.9C75.4,380.9,92.6,366.3,92.6,366.3z"/>
					<path class="st3" d="M92.6,366.3c0,0-16.9,14.9-19.5,9.4S92.6,366.3,92.6,366.3z"/>
					<path class="st3" d="M92.6,366.3c0,0-22.1,4.4-21.6-1.6C71.4,358.7,92.6,366.3,92.6,366.3z"/>
					<path class="st3" d="M92.6,366.3c0,0-21.4-7.2-17.9-12.2C78.1,349.1,92.6,366.3,92.6,366.3z"/>
					<path class="st3" d="M92.6,366.3c0,0-14.9-16.9-9.4-19.5C88.6,344.2,92.6,366.3,92.6,366.3z"/>
					<path class="st3" d="M92.6,366.3c0,0-4.4-22.1,1.6-21.6C100.3,345.1,92.6,366.3,92.6,366.3z"/>
					<path class="st3" d="M92.6,366.3c0,0,7.2-21.4,12.2-17.9C109.8,351.8,92.6,366.3,92.6,366.3z"/>
					<path class="st3" d="M92.6,366.3c0,0,16.9-14.9,19.5-9.4C114.8,362.4,92.6,366.3,92.6,366.3z"/>
					<path class="st3" d="M92.6,366.3c0,0,22.1-4.4,21.6,1.6C113.8,374,92.6,366.3,92.6,366.3z"/>
					<path class="st3" d="M92.6,366.3c0,0,21.4,7.2,17.9,12.2C107.1,383.6,92.6,366.3,92.6,366.3z"/>
					<path class="st3" d="M92.6,366.3c0,0,14.9,16.9,9.4,19.5C96.6,388.5,92.6,366.3,92.6,366.3z"/>
					<path class="st4" d="M92.1,371.5c4.1,0.3,7.2-6.9,0.7-7.4C86,363.6,88.4,371.2,92.1,371.5z"/>
				</g>
				<path class="st3" d="M133.8,397c-2.7-3.4-15.9,0.2-17.1,3.6c-1.2,3.3,9.5-0.8,10.1-1c-0.6,0.3-14.1,7.8-11.1,11.7
					c3,3.9,13.5-7.5,13.9-8c-0.4,0.5-6.9,10-3.4,9.6C129.9,412.3,136.5,400.4,133.8,397z"/>
			</g>
			<g>
				<g class="st1">
					<path class="st2" d="M437.2,134.7c0.8,1.3,1.6,2.6,2.3,4c0.7,1.4,1.3,2.7,1.9,4.1c1.2,2.8,2.1,5.7,2.8,8.6c1.5,5.9,2,12,1.7,18
						c-0.2,3-0.6,6-1.2,9c-0.6,2.9-1.5,5.8-2.5,8.7c-2.1,5.7-4.1,11.5-5.8,17.4c-0.9,2.9-1.6,5.9-2.3,8.9c-0.7,3-1.2,6-1.6,9.1
						c-0.4,3.1-0.6,6.1-0.6,9.2c0,0.8,0,1.5,0.1,2.3l0.1,2.3l0.3,2.3c0.1,0.8,0.2,1.5,0.3,2.3c0.5,3,1.3,6,2.3,8.9
						c1,2.9,2.3,5.7,3.8,8.4c1.5,2.7,3.2,5.2,5.1,7.6c1.8,2.5,3.9,4.7,6,6.9c-4-4.6-7.7-9.5-10.4-14.9c-1.4-2.7-2.6-5.5-3.5-8.3
						c-0.9-2.9-1.6-5.8-2.1-8.8c-0.9-6-0.7-12,0.1-18c0.8-6,2.2-11.9,3.9-17.7c1.7-5.8,3.7-11.6,5.7-17.3c2-5.8,3.3-11.9,3.4-18.1
						c0.2-6.2-0.6-12.3-2.2-18.3c-0.9-2.9-1.9-5.8-3.2-8.6C440.5,139.8,439,137.1,437.2,134.7z"/>
					<path class="st2" d="M411.3,155.2c-8.3,1,3.3,27,3.3,27S419.2,154.2,411.3,155.2z"/>
					<path class="st2" d="M422.2,114.6c-6.7,5,16.4,21.8,16.4,21.8S428.6,109.8,422.2,114.6z"/>
					<path class="st2" d="M430.3,151.8c-6.7,5,16.4,21.8,16.4,21.8S436.7,147,430.3,151.8z"/>
					<path class="st2" d="M428.2,178.7c-7.9,2.6,8.5,25.9,8.5,25.9S435.8,176.1,428.2,178.7z"/>
					<path class="st2" d="M403,190.5c-3.8,7.4,24.3,12.4,24.3,12.4S406.6,183.4,403,190.5z"/>
					<path class="st2" d="M417.1,216.8c-6.7,5,16.3,21.9,16.3,21.9S423.5,212,417.1,216.8z"/>
					<path class="st2" d="M469.4,189c-6.4-5.3-17.4,20.9-17.4,20.9S475.5,194.1,469.4,189z"/>
					<path class="st2" d="M447.2,196.2c-8.2-1.5-4.9,26.8-4.9,26.8S455.1,197.6,447.2,196.2z"/>
					<path class="st2" d="M459.7,224c-4-7.4-24,12.9-24,12.9S463.5,231,459.7,224z"/>
					<path class="st2" d="M457.7,130c-7.5-3.6-11.8,24.6-11.8,24.6S464.9,133.5,457.7,130z"/>
					<path class="st2" d="M462.7,172.1c-5.2-6.5-21.3,17-21.3,17S467.7,178.4,462.7,172.1z"/>
					<path class="st2" d="M412.9,173.8c-0.2,2.4,0.2,4.9,0.9,7.2c0.7,2.3,1.8,4.6,3,6.7c2.4,4.3,5.3,8.1,7.9,12.2
						c1.3,2,2.4,4.1,3.4,6.3c0.9,2.2,1.7,4.5,2.4,6.7c0.7,2.3,1.3,4.6,1.7,7c0.4,2.4,0.8,4.7,0.9,7.2c0.2-2.4,0-4.8-0.2-7.3
						c-0.3-2.4-0.8-4.8-1.4-7.2c-0.6-2.4-1.4-4.7-2.3-6.9c-0.9-2.3-2.1-4.4-3.4-6.5c-1.3-2.1-2.7-4-4.1-6c-1.4-2-2.8-3.9-4-6
						c-0.6-1-1.2-2.1-1.8-3.1c-0.6-1.1-1-2.1-1.5-3.3C413.5,178.5,413,176.2,412.9,173.8z"/>
					<path class="st2" d="M455.7,205.6c-3,3-5.9,6.2-8.6,9.5c-2.7,3.3-5.2,6.8-7.5,10.4c-1.1,1.8-2.2,3.7-2.9,5.8
						c-0.8,2-1.3,4.2-1.6,6.3c-0.3,2.1-0.3,4.3-0.2,6.5c0.2,2.1,0.5,4.3,1.1,6.3c-0.3-2.1-0.4-4.2-0.4-6.3c0-2.1,0.2-4.2,0.6-6.3
						c0.4-2.1,0.9-4.1,1.7-6c0.8-1.9,1.8-3.8,2.9-5.6l0.8-1.3l0.9-1.3c0.6-0.9,1.2-1.7,1.8-2.6c1.2-1.7,2.5-3.5,3.7-5.2
						C450.5,212.4,453.1,209,455.7,205.6z"/>
				</g>
				<g>
					<path class="st5" d="M454.2,139.1c0,0,3.2-20.1-2.2-19.4C446.6,120.3,454.2,139.1,454.2,139.1z"/>
					<path class="st5" d="M454.2,139.1c0,0-7.2-19-11.6-15.7C438.2,126.6,454.2,139.1,454.2,139.1z"/>
					<path class="st5" d="M454.2,139.1c0,0-15.8-12.8-17.9-7.8C434.1,136.3,454.2,139.1,454.2,139.1z"/>
					<path class="st5" d="M454.2,139.1c0,0-20.1-3.2-19.4,2.2C435.4,146.7,454.2,139.1,454.2,139.1z"/>
					<path class="st5" d="M454.2,139.1c0,0-19,7.2-15.7,11.6C441.7,155.1,454.2,139.1,454.2,139.1z"/>
					<path class="st5" d="M454.2,139.1c0,0-12.8,15.8-7.8,17.9C451.4,159.2,454.2,139.1,454.2,139.1z"/>
					<path class="st5" d="M454.2,139.1c0,0-3.2,20.1,2.2,19.4C461.8,157.9,454.2,139.1,454.2,139.1z"/>
					<path class="st5" d="M454.2,139.1c0,0,7.2,19,11.6,15.7C470.2,151.5,454.2,139.1,454.2,139.1z"/>
					<path class="st5" d="M454.2,139.1c0,0,15.8,12.8,17.9,7.8C474.3,141.9,454.2,139.1,454.2,139.1z"/>
					<path class="st5" d="M454.2,139.1c0,0,20.1,3.2,19.4-2.2S454.2,139.1,454.2,139.1z"/>
					<path class="st5" d="M454.2,139.1c0,0,19-7.2,15.7-11.6C466.7,123,454.2,139.1,454.2,139.1z"/>
					<path class="st5" d="M454.2,139.1c0,0,12.8-15.8,7.8-17.9C457,118.9,454.2,139.1,454.2,139.1z"/>
					<path class="st4" d="M453.6,134.4c3.7-0.4,6.8,5.9,0.9,6.6C448.3,141.7,450.2,134.8,453.6,134.4z"/>
				</g>
				<path class="st5" d="M448.4,215.5c-2.3-4.9,17.9-14,19.3-11c1.4,3-12.5,8.9-12.5,8.9s9.1-3.5,10-1.5
					C466.2,213.9,450.9,220.9,448.4,215.5z"/>
			</g>
			<g>
				<g>
					<g>
						<path class="st6" d="M291.4,73.7c43.4,1.8,65.9,36.1,87.5,98.6C391.2,208,469.3,259,468,323.1
							C466.9,377,432.7,424,312.9,429.3c-105.2,4.6-128.6-56.1-122.1-87.9c6.5-31.8,27.9-53.4,29.8-83.5
							c2-30.2-31.1-115.1,10.4-159.4C251.7,76.5,275.5,73.1,291.4,73.7z"/>
						<path class="st6" d="M406,211c14.4,11.4,27.4,24.5,38.8,38.9c5.7,7.2,10.9,14.8,15.4,22.9c4.5,8,8.3,16.5,10.7,25.4
							c5,17.8,4.1,37.2-2.9,54.3c-3.4,8.5-8.2,16.5-14,23.7c-2.9,3.6-6,7-9.3,10.2c-3.3,3.2-6.8,6.2-10.6,8.8
							c3.7-2.7,7.2-5.7,10.4-8.9c3.3-3.2,6.3-6.7,9.1-10.3c5.6-7.2,10.3-15.2,13.6-23.7c6.7-17,7.7-36.2,2.6-53.7
							c-2.5-8.8-6.1-17.2-10.6-25.2c-4.4-8-9.6-15.6-15.2-22.8c-5.6-7.2-11.6-14.1-18-20.7C419.8,223.1,413.1,216.8,406,211z"/>
						<path class="st6" d="M209.7,297.3c-2.2,2.8-4.3,5.7-6.2,8.7c-2,2.9-3.9,6-5.7,9c-3.6,6.1-6.8,12.5-9.3,19.1
							c-2.5,6.6-4.3,13.6-4.7,20.6c-0.4,7.1,1,14.2,4.5,20.5c-1.9-3-3.3-6.4-4.2-9.8c-0.9-3.5-1.2-7.1-1.1-10.7
							c0.2-7.2,2-14.3,4.5-21c2.6-6.7,5.8-13.1,9.6-19.2C200.9,308.5,205,302.7,209.7,297.3z"/>
					</g>
				</g>
				<path class="st7" d="M240.5,190c0,1.4-0.4,2.7-1.1,3.8c-1.9-3.4-3.9-7.2-5.8-11.3C237.5,182.7,240.6,186,240.5,190z"/>
				<g>
					<g>
						<path class="st2" d="M229.8,420.8c-1.5-4.1-2.7-8.3-3.9-12.5c-1.1-4.2-2.1-8.5-2.9-12.8c-1.5-8.6-2.5-17.4-2.2-26.2
							c0.1-4.4,0.6-8.8,1.4-13.1c0.8-4.3,2.2-8.5,3.7-12.6c3-8.3,6.4-16.3,9.8-24.4c6.7-16.1,12.9-32.5,16.9-49.5
							c4.1-17,5.9-34.5,4.4-52c0.9,8.7,1,17.5,0.3,26.2c-0.7,8.7-2,17.4-4,25.9c-3.9,17.1-10.1,33.6-16.7,49.7
							c-3.3,8.1-6.7,16.1-9.7,24.3c-1.5,4.1-2.9,8.2-3.7,12.5c-0.8,4.3-1.3,8.6-1.5,12.9c-0.3,8.7,0.4,17.4,1.9,26
							C225.2,403.9,227.1,412.5,229.8,420.8z"/>
						<path class="st2" d="M250.4,278.7c0,0,5.5-14.4,8.9-11.9C262.7,269.3,250.4,278.7,250.4,278.7z"/>
						<path class="st2" d="M236.8,318.9c0,0,6.7-13.9,9.8-11.1C249.9,310.6,236.8,318.9,236.8,318.9z"/>
						<path class="st2" d="M225,346.8c0,0,6.7-13.9,9.8-11.1C238,338.5,225,346.8,225,346.8z"/>
						<path class="st2" d="M222.1,384.2c0,0,2.4-15.3,6.2-13.5C232.2,372.5,222.1,384.2,222.1,384.2z"/>
						<path class="st2" d="M255.6,257.5c0,0-8.8-12.7-4.8-14.1C254.8,242.1,255.6,257.5,255.6,257.5z"/>
						<path class="st2" d="M245.7,296.4c0,0-7.2-13.7-3.1-14.5C246.8,281,245.7,296.4,245.7,296.4z"/>
						<path class="st2" d="M231.2,332.1c0,0-5.4-14.5-1.2-14.8C234.3,317,231.2,332.1,231.2,332.1z"/>
						<path class="st2" d="M221,369.2c0,0-7.3-13.6-3.2-14.5C222,353.7,221,369.2,221,369.2z"/>
						<path class="st3" d="M258.6,240.3c-6.6,0.2-7.1-26.4-3-26.6c4-0.1,3.9,18,3.9,18s0.4-11.8,3.1-11.8
							C265.3,219.9,265.7,240.1,258.6,240.3z"/>
					</g>
					<g>
						<path class="st2" d="M425.1,287.4c3.8,9.8,6.2,20,7.9,30.4c1.7,10.4,2.4,20.9,2.4,31.4c0,5.3-0.3,10.5-0.9,15.7
							c-0.6,5.2-1.9,10.4-3.7,15.3c-3.7,9.9-9.1,19.1-16,27c3.3-4.1,6.1-8.5,8.6-13.1c2.5-4.6,4.7-9.3,6.4-14.2
							c1.7-4.9,3-10,3.6-15.1c0.5-5.2,0.7-10.4,0.8-15.6c0.2-10.4-0.6-20.9-2.1-31.2c-0.7-5.2-1.7-10.3-2.9-15.4
							C428.2,297.4,426.8,292.3,425.1,287.4z"/>
						<path class="st2" d="M431.3,311.6c0,0-12.9-10.1-9.3-12.7C425.7,296.2,431.3,311.6,431.3,311.6z"/>
						<path class="st2" d="M434.8,351.9c0,0-12.9-10.1-9.3-12.7C429.2,336.5,434.8,351.9,434.8,351.9z"/>
						<path class="st2" d="M426.1,390.1c0,0-6.4-15.1-2-15.6C428.6,373.9,426.1,390.1,426.1,390.1z"/>
						<path class="st2" d="M434.1,328.7c0,0,0.5-16.4,4.8-15C443.2,315.1,434.1,328.7,434.1,328.7z"/>
						<path class="st2" d="M433.3,371.6c0,0,4.4-15.8,8.2-13.4C445.3,360.5,433.3,371.6,433.3,371.6z"/>
						<g>
							<path class="st5" d="M424.8,286.9c0,0,3.6-11.9,0.2-12C421.6,274.8,424.8,286.9,424.8,286.9z"/>
							<path class="st5" d="M424.8,286.9c0,0-2.9-12.1-5.8-10.5C416,278,424.8,286.9,424.8,286.9z"/>
							<path class="st5" d="M424.8,286.9c0,0-8.6-9.1-10.3-6.2C412.7,283.6,424.8,286.9,424.8,286.9z"/>
							<path class="st5" d="M424.8,286.9c0,0-11.9-3.6-12-0.2C412.7,290,424.8,286.9,424.8,286.9z"/>
							<path class="st5" d="M424.8,286.9c0,0-12.1,2.9-10.5,5.8C415.9,295.7,424.8,286.9,424.8,286.9z"/>
							<path class="st5" d="M424.8,286.9c0,0-9.1,8.6-6.2,10.3C421.4,298.9,424.8,286.9,424.8,286.9z"/>
							<path class="st5" d="M424.8,286.9c0,0-3.6,11.9-0.2,12C427.9,299,424.8,286.9,424.8,286.9z"/>
							<path class="st5" d="M424.8,286.9c0,0,2.9,12.1,5.8,10.5C433.5,295.8,424.8,286.9,424.8,286.9z"/>
							<path class="st5" d="M424.8,286.9c0,0,8.6,9.1,10.3,6.2C436.8,290.3,424.8,286.9,424.8,286.9z"/>
							<path class="st5" d="M424.8,286.9c0,0,11.9,3.6,12,0.2C436.8,283.8,424.8,286.9,424.8,286.9z"/>
							<path class="st5" d="M424.8,286.9c0,0,12.1-2.9,10.5-5.8C433.7,278.2,424.8,286.9,424.8,286.9z"/>
							<path class="st5" d="M424.8,286.9c0,0,9.1-8.6,6.2-10.3C428.1,274.9,424.8,286.9,424.8,286.9z"/>
							<path class="st4" d="M424.7,284c2.3,0,3.6,4.2,0,4.1C421,288.1,422.7,284,424.7,284z"/>
						</g>
					</g>
					<g>
						<g>
							<path class="st2" d="M349.8,204.6c4,9.7,7.8,19.6,11.5,29.4c3.7,9.9,7.2,19.8,10.6,29.8c3.4,10,6.6,20,9.6,30.1
								c2.9,10.1,5.7,20.3,7.9,30.6c1.1,5.2,2,10.4,2.7,15.6c0.7,5.2,1.1,10.6,0.9,15.8c-0.3,10.6-2,21.2-6.1,31
								c-2,4.9-4.7,9.5-7.8,13.8c-3.1,4.3-6.8,8.1-10.9,11.5c-8.2,6.7-17.8,11.5-27.8,14.8c9.9-3.5,19.4-8.4,27.4-15.2
								c4-3.4,7.6-7.2,10.7-11.5c3-4.3,5.6-8.9,7.6-13.7c3.9-9.7,5.6-20.2,5.8-30.7c0.1-5.2-0.2-10.5-1-15.7
								c-0.7-5.2-1.6-10.4-2.8-15.5c-4.4-20.6-10.6-40.7-17.2-60.7c-3.3-10-6.7-20-10.3-29.9C357.2,224.4,353.6,214.5,349.8,204.6z"
								/>
							<path class="st2" d="M364.1,242.4c0,0-16.4-7.2-13.3-10.9C353.9,227.7,364.1,242.4,364.1,242.4z"/>
							<path class="st2" d="M374.8,274.2c0,0-16.4-7.2-13.3-10.9C364.6,259.4,374.8,274.2,374.8,274.2z"/>
							<path class="st2" d="M384.3,307.1c0,0-16.4-7.2-13.3-10.9C374.1,292.3,384.3,307.1,384.3,307.1z"/>
							<path class="st2" d="M392.7,347.8c0,0-15-9.7-11.4-12.9C385,331.7,392.7,347.8,392.7,347.8z"/>
							<path class="st2" d="M358.2,226.6c0,0-1.9-17.8,2.9-16.9C366,210.4,358.2,226.6,358.2,226.6z"/>
							<path class="st2" d="M369.7,257.9c0,0-1.9-17.8,2.9-16.9C377.4,241.8,369.7,257.9,369.7,257.9z"/>
							<path class="st2" d="M380.2,290.3c0,0-1.9-17.8,2.9-16.9C387.9,274.2,380.2,290.3,380.2,290.3z"/>
							<path class="st2" d="M391.6,369.2c0,0,5.1-17.1,9.3-14.5C405,357.4,391.6,369.2,391.6,369.2z"/>
							<path class="st2" d="M389.4,325.6c0,0,1.2-17.8,5.8-16.2C399.8,311.1,389.4,325.6,389.4,325.6z"/>
						</g>
						<path class="st5" d="M354.1,218c-5.4,1.5-16.5-12.6-15.2-17.2c1.3-4.5,9.4,8.3,9.8,9c-0.4-0.8-8.8-19.2-2.6-20.9
							c6.2-1.7,8.3,18.4,8.4,19.3c0-0.8,0.5-15.9,3.9-12.7C362,198.8,359.6,216.5,354.1,218z"/>
					</g>
					<g>
						<g>
							<path class="st8" d="M398.8,274.9c2.5,6.3,4.7,12.7,6.7,19.2c2,6.5,3.7,13.1,5.2,19.7c0.7,3.3,1.5,6.6,2,10l0.9,5l0.7,5.1
								l0.3,2.5l0.2,2.5l0.4,5.1c0.1,1.7,0.1,3.4,0.2,5.1c0,1.7,0.2,3.4,0.1,5.1l-0.2,5.1c0,0.9-0.1,1.7-0.2,2.6l-0.3,2.5
								c-0.2,1.7-0.3,3.4-0.7,5.1c-0.3,1.7-0.6,3.4-1,5c-1.6,6.6-4.1,13.1-7.7,18.9c-1.7,2.9-3.8,5.7-6,8.3c-2.3,2.5-4.6,5-7.2,7.3
								c-5.1,4.5-10.8,8.3-16.7,11.6c5.8-3.6,11.4-7.4,16.4-12c2.5-2.2,4.8-4.7,7-7.3c2.1-2.6,4.1-5.4,5.8-8.3
								c3.4-5.8,5.9-12.1,7.5-18.7c0.5-1.6,0.7-3.3,1-5c0.4-1.6,0.5-3.3,0.6-5l0.3-2.5c0.1-0.8,0.2-1.7,0.2-2.5l0.1-5.1
								c0.1-1.7,0-3.4,0-5.1c-0.1-1.7-0.1-3.4-0.2-5.1l-0.4-5.1l-0.2-2.5l-0.3-2.5l-0.6-5l-0.8-5c-0.3-1.7-0.6-3.3-0.9-5l-1-5
								C407,300.8,403.3,287.7,398.8,274.9z"/>
							<path class="st8" d="M410.5,314.9c-4.4-6.4,5.1-14.6,5.1-14.6S417.9,312.7,410.5,314.9z"/>
							<path class="st8" d="M415.6,353c-3.5-7,7.1-13.7,7.1-13.7S423.3,351.8,415.6,353z"/>
							<path class="st8" d="M406,392.5c0.9-7.7,13.4-7.6,13.4-7.6S413.1,395.7,406,392.5z"/>
							<path class="st8" d="M406.2,299.3c-7.6,1.8-11.7-10.1-11.7-10.1S406.9,291.5,406.2,299.3z"/>
							<path class="st8" d="M413.5,331.9c-7.6,1.8-11.7-10.1-11.7-10.1S414.1,324.1,413.5,331.9z"/>
							<path class="st8" d="M413.1,373.8c-7.8-0.6-8-13.2-8-13.2S416.1,366.6,413.1,373.8z"/>
						</g>
						<path class="st3" d="M401.2,279.8c-6.7,1.7-13.4-25.7-9.3-26.8c4.1-1.1,8.3,17.8,8.3,17.8s-2.3-12.3,0.4-12.9
							C403.3,257.1,408.5,277.9,401.2,279.8z"/>
					</g>
					<g>
						<g>
							<path class="st8" d="M410.9,231.7c9.6,10.6,18.1,22.2,25.4,34.5c3.7,6.2,6.9,12.6,9.7,19.2c2.8,6.6,5.1,13.4,6.7,20.4
								c0.8,3.5,1.4,7.1,1.7,10.6c0.2,1.8,0.3,3.6,0.4,5.4c0,1.8,0.2,3.6,0.2,5.4l0,5.4c-0.1,1.8-0.2,3.6-0.3,5.4
								c-0.1,1.8-0.3,3.6-0.5,5.4l-0.3,2.7c-0.1,0.9-0.3,1.8-0.4,2.7c-2.1,14.2-6.1,28.1-12.2,41c2.9-6.5,5.2-13.3,7-20.2
								c1.9-6.9,3.3-13.9,4.3-20.9c0.9-7.1,1.5-14.2,1.3-21.3c0.1-1.8-0.1-3.6-0.2-5.3c-0.1-1.8-0.2-3.6-0.4-5.3
								c-0.3-3.5-1-7-1.8-10.5c-3.1-13.9-9-27-16.1-39.4c-3.5-6.2-7.4-12.2-11.5-18C419.9,242.8,415.5,237.1,410.9,231.7z"/>
							<path class="st8" d="M439.8,272.9c-6.4-4.9,0.3-15.9,0.3-15.9S446.4,268.3,439.8,272.9z"/>
							<path class="st8" d="M452.4,304.3c-4.5-6.6,5.3-15,5.3-15S460.1,302,452.4,304.3z"/>
							<path class="st8" d="M454.6,338.2c-4.1-6.9,6.3-14.6,6.3-14.6S462.4,336.4,454.6,338.2z"/>
							<path class="st8" d="M423.7,247.3c-6.4-4.9,0.3-15.9,0.3-15.9S430.2,242.7,423.7,247.3z"/>
							<path class="st8" d="M445.2,286.1c-7.1,3.7-14.3-7-14.3-7S443.9,278.2,445.2,286.1z"/>
							<path class="st8" d="M453.7,320.6c-8,0.6-10.3-12.1-10.3-12.1S455.5,312.8,453.7,320.6z"/>
							<path class="st8" d="M452.1,351.5c-8-0.6-8.4-13.5-8.4-13.5S455.1,344,452.1,351.5z"/>
							<path class="st8" d="M430.9,258.7c-7.1,3.7-14.3-7-14.3-7S429.5,250.8,430.9,258.7z"/>
						</g>
						<g>
							<path class="st3" d="M398.4,225.1c0,0-6.7,17-0.2,19.7C403.8,247.1,398.4,225.1,398.4,225.1z"/>
							<path class="st3" d="M399.8,223.4c0,0,15.6-9.5,19.4-3.5C422.4,225,399.8,223.4,399.8,223.4z"/>
							<path class="st3" d="M398.8,224.6c0,0,3.5,21.8,12.3,23.5C419.8,249.9,398.8,224.6,398.8,224.6z"/>
							<path class="st3" d="M399.4,223.9c0,0,22.1-0.2,25.3,8.1C427.9,240.4,399.4,223.9,399.4,223.9z"/>
							<path class="st3" d="M399.1,224.3c0,0,18.3,23.6,22.3,18.8C425.4,238.3,399.1,224.3,399.1,224.3z"/>
							<path class="st4" d="M395.8,221.7c2.5-3,11.9,1,7.5,6.3C398.9,233.3,393.8,224.2,395.8,221.7z"/>
						</g>
					</g>
					<g>
						<g>
							<path class="st8" d="M232.4,250.2c-2.2-7.3,9.2-12.1,9.2-12.1S240,250.3,232.4,250.2z"/>
							<path class="st8" d="M221,291c1.2-7.5,13.5-6.9,13.5-6.9S227.8,294.5,221,291z"/>
							<path class="st8" d="M204.3,327.7c1.2-7.5,13.5-6.9,13.5-6.9S211.1,331.2,204.3,327.7z"/>
							<path class="st8" d="M228.4,271.7c-7.4-1.9-5.6-14.1-5.6-14.1S232.5,265.3,228.4,271.7z"/>
							<path class="st8" d="M212.8,306.5c-7.4-1.9-5.6-14.1-5.6-14.1S216.9,300,212.8,306.5z"/>
							<path class="st8" d="M200.1,356.9c-7.4-1.9-5.6-14.1-5.6-14.1S204.2,350.4,200.1,356.9z"/>
							<path class="st8" d="M209.1,398.7c-5.9-13.5-9.2-28.2-9.5-42.9c-0.1-7.4,0.6-14.8,2.3-22c1.9-7.2,4.6-14.1,7.5-20.8
								c3-6.7,6.4-13.3,9.7-19.9c3.2-6.6,6.1-13.4,8.3-20.4c0.5-1.8,1.1-3.5,1.5-5.3l1.3-5.3c0.7-3.6,1.4-7.2,1.8-10.9
								c0.6-3.6,0.8-7.3,1.2-11c0.3-3.7,0.4-7.3,0.6-11c-0.1,3.7-0.1,7.4-0.3,11c-0.3,3.7-0.4,7.4-0.9,11c-0.4,3.7-1.1,7.3-1.7,10.9
								l-1.2,5.4c-0.4,1.8-1,3.6-1.5,5.3c-2.1,7.1-5,13.9-8.2,20.5c-3.2,6.6-6.6,13.2-9.6,19.9c-3,6.7-5.7,13.5-7.6,20.6
								c-1.7,7.1-2.4,14.4-2.4,21.8c0,7.3,0.8,14.6,2.3,21.8C204.3,384.8,206.3,391.9,209.1,398.7z"/>
						</g>
						<g>
							<path class="st5" d="M233.3,231c0,0-17.3,4-15.8,10.7C218.6,247.5,233.3,231,233.3,231z"/>
							<path class="st5" d="M235.3,231.2c0,0,16.2,7.2,13.5,13.6C246.5,250.2,235.3,231.2,235.3,231.2z"/>
							<path class="st5" d="M233.8,231.1c0,0-15.5,14.8-12,22.8C225.2,261.8,233.8,231.1,233.8,231.1z"/>
							<path class="st5" d="M234.8,231.2c0,0,12.3,17.5,7.4,24.7C237.3,263,234.8,231.2,234.8,231.2z"/>
							<path class="st5" d="M234.3,231.1c0,0-8.8,27.6-2.7,28.1S234.3,231.1,234.3,231.1z"/>
							<path class="st4" d="M234.5,227.1c3.8,0.4,5.7,10.1-0.9,9.4C227,235.9,231.4,226.8,234.5,227.1z"/>
						</g>
					</g>
				</g>
				<path class="st9" d="M322.3,162.3c-0.1-0.8-0.2-1.5-0.5-2.2c-0.3-0.7-0.8-1.2-1.4-1.5c-0.6-0.3-1.3-0.3-2-0.3
					c-0.4,0.1-0.7,0.1-1.1,0.2l-1,0.3l-0.7,0.2l0.1-0.7c0.1-1.5,0.5-3,1-4.5c0.5-1.4,1.2-2.9,2.5-4c1.2-1.1,3-1.5,4.5-1.1
					c0.8,0.2,1.5,0.6,2,1.1c0.6,0.5,1,1.2,1.1,1.9c-0.5-1.4-2-2.2-3.3-2.5c-1.4-0.3-2.8,0.3-3.8,1.2c-1,1-1.6,2.3-2.1,3.6
					c-0.5,1.3-0.8,2.8-1,4.2l-0.6-0.5l1.1-0.3c0.4-0.1,0.8-0.1,1.2-0.1c0.8,0,1.7,0.1,2.4,0.5c0.7,0.4,1.2,1.2,1.5,1.9
					C322.3,160.7,322.4,161.5,322.3,162.3z"/>
				<g>
					<path class="st10" d="M385.3,388.2c-6.6,15.9-90.7,48.8-119.9,52.1c0,0-24.1,4-39.2-6.4c-2.3-1.6-1.4-3.4,8.8,0.2
						c-1.3-0.4-11.3-3.7-10.8-5.8c0.4-1.7,8.2,0.9,11.4,1.8c-2.8-0.9-9.3-3.1-9.2-4.3c0.1-1.5,2.7-1.2,2.7-1.2s0,0,0,0
						c-0.3-0.1-2.7-1.1-3.8-1.7c0,0,0.5,1.7-0.7,1.9c-1.2,0.1-5.4-2.6-8.9-6.5c0.4,0.5,2.1,2.6,4.2,4.2c2.1,1.7,4.6,3.1,4.3,3.6
						c-1,1.6-6.9-0.9-12.2-5.2c1.1,1,1.9,1.9,4.7,3.3c1.6,0.8,5.3,2.2,5.1,3c-0.6,1.8-18.7-1.5-25-25.3c-5-18.7,9.3-36.7,9.3-36.7
						s0.1-1.1,0.3-2.9c1-6.8,5-24.4,20.7-36.9c0,0,7.2-47.2,26.1-66.1c9.9-9.9,28.1-21.6,34-28.7c0,0,0-0.1,0-0.1
						c0.5-0.6,0.9-1.2,1.3-1.8c1.1-2,1.6-4.9,1.8-7.9c0-0.2,0-0.4,0-0.6c0,0,0,0,0-0.1c0,0,0,0,0,0c0-0.1,0-0.3,0-0.4l0-0.1
						c0-0.1,0-0.2,0-0.3c0,0,0-0.1,0-0.1c0-0.1,0-0.3,0-0.4c0-6.7-1.3-13.6-1.3-13.6l0,0c-0.9,0.3-30.3,10.9-40.3,1.2
						c-2.5-2.5-5.8-7-9.1-12.8c-1.9-3.4-3.9-7.2-5.8-11.3c-7.8-17.1-14.1-39.3-9.6-56.1c7.4-27.7,26-39.1,52-39.9
						c24.9-0.7,49.5,19.8,44.6,57.1c0,0,9.1-1,10.2,8.4c1,8.3-4.4,15.5-11.4,14.5c0,0,2.8,41.6,4.8,58.2c0.1,0.6,0.2,1.2,0.5,1.9
						c3.3,8.8,21.1,23.8,27.6,37.1C359.4,278.1,392.5,370.9,385.3,388.2z"/>
					<path class="st6" d="M241.2,112.3c0.6-2.6,12.1,20.7,37.5,30.9c14.6,5.9,24.5,5.1,27.3,6.9c2.8,1.9,3.5,6.9,5.5,6.9
						c1.9-0.1-1.1-11.7,9.1-13.5c10.3-1.8,2.5-70.6-53.8-60.7c-40.9,7.2-51.3,38.9-43.2,74.3C223.6,157.2,234.4,144.4,241.2,112.3z"
						/>
					<path class="st6" d="M266.7,164.9c1.4,1.7,3,3.3,4.8,4.4c1.8,1.1,3.8,1.5,5.6,1c1.8-0.5,3.2-2.1,4.2-3.9
						c1.1-1.8,1.8-3.9,2.4-5.9l0.2-0.6l0.5,0.1c0.9,0.1,1.9,0.2,2.8,0.2c0.9,0,1.9-0.1,2.8-0.5c-0.7,0.7-1.7,1-2.7,1.2
						c-1,0.2-2,0.3-3,0.3l0.7-0.5c-0.3,2.3-0.9,4.5-2,6.6c-0.5,1-1.3,2-2.1,2.9c-0.9,0.9-2,1.6-3.3,1.9c-2.5,0.7-5.2-0.2-7-1.8
						C268.8,169,267.5,167,266.7,164.9z"/>
					<path class="st6" d="M241.6,172c0.5,1.6,0.6,3.3,0.3,5c-0.2,0.9-0.4,1.7-0.8,2.6c-0.5,0.8-1.2,1.6-2.2,2
						c-1,0.4-2.1,0.4-3.1,0.1c-1-0.3-1.8-0.8-2.4-1.4c-1.4-1.2-2.4-2.5-3.2-4l1.1-0.1c-0.3,0.4-0.6,0.7-0.9,1
						c-0.3,0.3-0.7,0.5-1.1,0.6c-0.8,0.3-1.6,0.4-2.4,0.2c0.8-0.1,1.5-0.4,2-0.9c0.3-0.2,0.5-0.5,0.7-0.7c0.2-0.2,0.4-0.6,0.5-0.8
						l0.4-0.9l0.8,0.9c1,1.2,2.1,2.3,3.3,3.1c1.2,0.9,2.5,1.3,3.6,0.9c1.1-0.3,1.9-1.6,2.4-3.1C241,175.2,241.3,173.6,241.6,172z"/>
					<path class="st6" d="M264.5,188.2c1.3,0.4,2.7,0.5,4,0.6c1.3,0,2.6-0.2,3.8-0.7c0.3-0.1,0.6-0.3,0.9-0.4
						c0.3-0.2,0.6-0.3,0.8-0.5l0.8-0.6c0.2-0.2,0.5-0.5,0.7-0.7c0.3-0.2,0.5-0.5,0.7-0.7l0.7-0.8c0.4-0.5,0.8-1.1,1.2-1.7
						c-0.2,0.6-0.5,1.3-0.8,1.9c-0.4,0.6-0.7,1.2-1.2,1.8c-0.9,1.1-2.1,2-3.4,2.6c-1.3,0.6-2.8,0.7-4.2,0.6
						C267,189.4,265.6,188.9,264.5,188.2z"/>
					<path class="st6" d="M223.5,164.5c1.6,2.1,14.8-6.9,12.7-9.7C234,152.1,220.8,161,223.5,164.5z"/>
					<path class="st6" d="M265.4,147.3c-0.2,3.2,18.8,5.6,19.1,1.4C284.8,144.5,265.8,142,265.4,147.3z"/>
					<path class="st9" d="M250.9,177.3c2.8-1.1,6.1,3.9,5.6,5.6c-0.6,2.1-4.4,3.1-5.8,1.9C249.3,183.7,249.4,177.8,250.9,177.3z"/>
					<path class="st7" d="M303.8,172.6c-0.1,4.5-3.8,8.2-8.4,8.1c-4.5-0.1-8.2-3.8-8.1-8.4c0.1-4.5,3.8-8.2,8.4-8.1
						C300.3,164.3,303.9,168.1,303.8,172.6z"/>
					<g>
						<path class="st9" d="M303.3,198.3c0,0-0.1,5.9-2.7,11.7c-0.1,0.2-0.1,0.3-0.2,0.5c0,0.1-0.1,0.2-0.2,0.3
							c-0.1,0.2-0.2,0.5-0.3,0.7c0,0,0,0.1-0.1,0.1c-0.1,0.2-0.2,0.3-0.3,0.5c0,0,0,0,0,0l0,0.1c-0.6,1.1-1.4,2.2-2.2,3.1l0,0
							l-0.2,0.2c-0.7,0.8-1.5,1.5-2.4,2.1l0,0c-0.1,0.1-0.2,0.2-0.4,0.3c0,0,0,0,0,0c-0.1,0.1-0.1,0.1-0.2,0.1
							c-0.2,0.1-0.3,0.2-0.5,0.3c0,0-0.1,0-0.1,0.1l0,0c-0.5,0.3-1.1,0.6-1.7,0.8l0,0c-0.5,0.2-1.1,0.4-1.7,0.6l0-0.1
							c0-0.1,0-0.2,0-0.3c0,0,0-0.1,0-0.1c0-0.1,0-0.3,0-0.4c0-6.7-1.3-13.6-1.3-13.6c0,0,0,0,0,0c0.1,0,0.1,0,0.2,0
							c0.1,0,0.1,0,0.2-0.1c0,0,0.1,0,0.1,0c0.1,0,0.2,0,0.3-0.1l0.1,0c1.9-0.6,7-2.5,11.9-5.5c0,0,0,0,0,0c0,0,0.1,0,0.1-0.1
							c0,0,0.1,0,0.1-0.1c0.1,0,0.1-0.1,0.2-0.1C302.4,198.9,302.9,198.6,303.3,198.3z"/>
						<g>
							<path class="st9" d="M300.5,208.8c0-0.1,0-0.1,0-0.2c-0.1,0.4-0.3,0.7-0.5,1.1c0.1,0,0.3-0.3,0.2-0.1
								c0.1-0.1,0.2-0.4,0.1-0.4l0,0.1c0-0.3,0.3-0.4,0.3-0.2l0,0l-0.1-0.9C300.4,208.5,300.6,208.5,300.5,208.8z"/>
							<path class="st9" d="M290.6,204.8c0.2-0.1,0.2-0.1,0.2-0.1C290.7,204.7,290.6,204.7,290.6,204.8z"/>
							<path class="st9" d="M300.5,208l0-0.3C300.5,207.8,300.5,207.9,300.5,208z"/>
							<path class="st9" d="M301.7,210.4C301.7,210.4,301.7,210.4,301.7,210.4l0-0.1l0,0L301.7,210.4z"/>
							<path class="st9" d="M301.5,202.7C301.5,202.7,301.5,202.7,301.5,202.7C301.5,202.7,301.5,202.7,301.5,202.7z"/>
							<path class="st9" d="M300.8,213.9l0.2-0.6c0,0.1,0.1-0.2,0.1,0c0,0,0.1-0.2,0-0.2l-0.1,0.1c0-0.4-0.2-0.2,0-0.7
								c-0.2,0.2-0.2,0.4-0.2,0.6c0,0.1,0,0.1-0.1,0.1l0,0.5L300.8,213.9z"/>
							<path class="st9" d="M297.4,201.4L297.4,201.4C297.4,201.4,297.4,201.4,297.4,201.4z"/>
							<path class="st9" d="M297.4,201.4L297.4,201.4C297.4,201.4,297.5,201.3,297.4,201.4z"/>
							<path class="st9" d="M300.6,208.1c0,0-0.1-0.1-0.1-0.1L300.6,208.1C300.5,208.2,300.6,208.2,300.6,208.1z"/>
							<path class="st9" d="M300.8,208.6l-0.1,0.4l0,0.2C300.7,209.1,300.7,208.9,300.8,208.6z"/>
							<path class="st9" d="M301.3,203.4c0.2-0.9,0.1,0.3,0.3-0.1c0-0.3,0-0.4,0-0.5c-0.1,0.7-0.3-0.1-0.4,0.6c-0.1-0.1,0-0.5,0-0.8
								c0.2-0.2,0.1,0.3,0.2,0.4c0-0.3,0-0.2-0.1-0.4c0.1-0.2,0.1-0.5,0.1-0.7c0-0.2,0.1-0.4,0.2-0.4c0-0.1-0.1-0.1-0.2-0.1
								c-0.2,0-0.1,0.1-0.2,0.1c0,0,0,0,0.1,0c0,0,0,0.1-0.1,0.2c0.1-0.3,0.2,0.1,0.1,0.2c0,0.1-0.1,0.3-0.1,0.3l0-0.2
								c-0.1,0.2,0,0.5-0.1,0.7c0,0,0-0.1-0.1-0.1c0.1,0.3,0,0.5,0,0.9l-0.1-0.2c0.1,0.3-0.1,0.9-0.3,1.4c0,0,0.1-0.1,0.1-0.1
								c0,0.3-0.2,0.4-0.3,0.3c0.1,0.3-0.4,0.9-0.3,1.3c0.1,0.6,0.2,1.2,0.3,1.8c0-0.1,0-0.1,0-0.2c0.2-0.1,0.2-0.2,0.3,0.1
								c0-0.3-0.1-0.2,0-0.6c0,0.2,0.2,0.3,0.3-0.1c0.2-0.9-0.1-1.7-0.1-2.5c0.1,0,0.3-0.7,0.4-1c0.1,0.1,0.1,0.4,0,0.6
								c0-0.2,0.1-0.4,0.2-0.6L301.3,203.4z"/>
							<path class="st9" d="M301.1,205.6C301.1,205.5,301.1,205.5,301.1,205.6C301.1,205.5,301.1,205.5,301.1,205.6z"/>
							<path class="st9" d="M301.3,204.2C301.3,204.2,301.3,204.2,301.3,204.2L301.3,204.2C301.3,204.2,301.3,204.2,301.3,204.2z"/>
							<path class="st9" d="M300.9,208c0,0.1,0,0.1,0,0.2L300.9,208C300.9,208,300.9,208,300.9,208z"/>
							<path class="st9" d="M300.6,208.1L300.6,208.1C300.6,208.1,300.6,208.1,300.6,208.1C300.6,208.1,300.6,208.2,300.6,208.1z"/>
							<path class="st9" d="M302.8,200.3L302.8,200.3C302.8,200.3,302.8,200.3,302.8,200.3z"/>
							<path class="st9" d="M301.7,202.4c-0.1,0.3,0.2,0.1,0.1,0.5l0-0.1c0,0.3-0.2,0.9-0.2,1.3c-0.1-0.1-0.1,0.2-0.2,0.1
								c0,0.3-0.1,0.5,0,0.7c-0.1,0.1,0,0.4-0.2,0.6c0.1-0.1,0.1,0.3,0.2-0.2c0,0,0,0,0,0.1c0.2-0.3,0.1-0.5,0.1-0.7
								c0.1-0.1,0,0.3,0.1,0.1c0-0.4,0.3-1.1,0.1-1.1c0-0.3,0.1-0.3,0.2-0.3c-0.1-0.4,0.4-1.5,0.1-1.5c0,0.1-0.1,0.4,0,0.6
								L301.7,202.4z"/>
							<path class="st9" d="M301.1,207.5L301.1,207.5L301.1,207.5z"/>
							<path class="st9" d="M300,207.4C300,207.4,300,207.4,300,207.4c-0.1,0,0-0.1-0.1-0.1c0,0.1,0,0.2-0.1,0.2
								c0-0.2-0.2,0.2-0.3,0.3c0,0.3-0.3,1-0.5,1.4c0,0,0-0.1,0-0.1c-0.3,0.6-0.4,0.8-0.7,1.5l0.1,0.1c0,0.1,0,0.1,0.1,0.1
								c0,0,0.1-0.1,0.1-0.3c0,0.1,0.1,0.1,0.1-0.1c0.2-0.3,0.1-0.5,0.3-0.8l0,0.1c0.1-0.2,0.3-0.5,0.3-0.7c0.3-0.1-0.3,0.7,0.1,0.4
								c-0.2,0.2-0.2,0.6-0.3,0.8c0.2-0.3,0.5-0.5,0.6-0.3c0.2-0.7-0.4-0.2-0.2-0.8c0.1-0.1,0.2-0.3,0.2-0.4l-0.1-0.2
								c0.1-0.2,0.1,0.2,0.2-0.2c0-0.1,0.1-0.4,0.1-0.5c0,0,0.1,0.1,0.2-0.2c0,0-0.1,0,0-0.2c0.2,0-0.1,0.4,0.1,0.3
								C300.3,207.4,300.1,207.5,300,207.4z M298.7,210.4c0-0.1,0.1-0.2,0.1-0.2L298.7,210.4z"/>
							<path class="st9" d="M294.4,219.2l-0.1,0.1C294.3,219.2,294.3,219.2,294.4,219.2z"/>
							<path class="st9" d="M291.4,221.3c-0.1,0-0.1,0.1-0.2,0.1C291.3,221.4,291.4,221.3,291.4,221.3z"/>
							<path class="st9" d="M291.5,221.3C291.4,221.3,291.4,221.3,291.5,221.3L291.5,221.3L291.5,221.3z"/>
							<path class="st9" d="M296,218.8C296.1,218.8,296.1,218.8,296,218.8C296.1,218.8,296,218.8,296,218.8z"/>
							<path class="st9" d="M295.5,218.5C295.5,218.4,295.5,218.4,295.5,218.5L295.5,218.5z"/>
							<path class="st9" d="M299.6,214.9l0.1-0.2C299.6,214.8,299.6,214.8,299.6,214.9z"/>
							<path class="st9" d="M296,218.2C296,218.2,296,218.2,296,218.2C296,218.2,296,218.2,296,218.2z"/>
							<path class="st9" d="M297.3,213.2L297.3,213.2C297.2,213.2,297.2,213.2,297.3,213.2z"/>
							<path class="st9" d="M286,209L286,209C286,209,286,209,286,209z"/>
							<path class="st9" d="M296.4,214.3L296.4,214.3C296.4,214.3,296.4,214.3,296.4,214.3z"/>
							<path class="st9" d="M298.4,216.7C298.4,216.7,298.4,216.7,298.4,216.7C298.4,216.6,298.4,216.6,298.4,216.7z"/>
							<path class="st9" d="M296.4,214.3L296.4,214.3L296.4,214.3z"/>
							<path class="st9" d="M291.1,218.7C291.1,218.7,291.2,218.8,291.1,218.7C291.2,218.8,291.2,218.7,291.1,218.7z"/>
							<path class="st9" d="M292.5,218.4L292.5,218.4L292.5,218.4z"/>
							<path class="st9" d="M296.4,214.3C296.4,214.3,296.4,214.3,296.4,214.3C296.4,214.3,296.4,214.3,296.4,214.3z"/>
							<path class="st9" d="M300.5,209.6c0,0-0.3,0.3-0.2,0.3L300.5,209.6L300.5,209.6z"/>
							<path class="st9" d="M289.7,205L289.7,205C289.7,205,289.7,205,289.7,205C289.7,205,289.7,205,289.7,205z M290.2,220.3
								C290.2,220.3,290.2,220.3,290.2,220.3c0.1-0.1,0.3-0.1,0.3-0.1C290.3,220.2,290.2,220.3,290.2,220.3z M293.8,219.7
								c0-0.2-0.3,0.2-0.6,0.3l0.1-0.2l-0.6,0.4c-0.1,0.3,0.1,0.2-0.3,0.5c-0.2,0-0.3-0.1-0.4-0.2c-0.1,0.2-0.5,0.4-0.9,0.5l0.2-0.1
								c-0.4,0.1-0.5,0.2-0.6,0.3c0,0,0,0-0.1,0c-0.3,0.1-0.4,0.3-0.3,0.3l0.1-0.1l0.3,0c0-0.2,0.7-0.3,1-0.5
								c-0.2,0.2-0.3,0.5-0.7,0.4l0.1,0.1c-0.3,0.1-0.5,0-0.7,0.2l0.3-0.1l0,0.1c0.2-0.1,0.5-0.2,0.7-0.2c0.2-0.1,0.3-0.3,0.8-0.5
								l0,0c0.2-0.3,1-0.3,1.2-0.5c0-0.3-0.6,0.1-0.8,0.1c0.2-0.2,0.4-0.2,0.2-0.2c0.4-0.3,0.4,0,0.7-0.3l-0.2,0
								C293.4,219.9,293.7,219.9,293.8,219.7z M303.1,208.3c0-0.3-0.1-0.1-0.2-0.1c0.2-0.2,0.3-0.8,0.3-0.3c0.1-0.2,0.2-0.7,0.2-0.9
								l-0.1,0.2c0.1-0.4,0.1-0.7,0-0.9c-0.1,0.5,0.1,0.5-0.1,1.1c-0.3,0.6-0.1-0.2-0.3,0.2l0,0.5l0.1-0.2c0.1,0.1-0.2,0.7,0,0.7
								c-0.3,0.4-0.2,0.5-0.6,1c0,0.1,0.1,0,0.1-0.2c-0.1,0.2,0.1,0.3-0.1,0.6c-0.1,0.1,0.1,0.1,0.2-0.2c-0.1,0.2-0.2,0.5-0.3,0.8
								l0.2-0.2l-0.1,0.3l0.2-0.2c-0.2,0.5-0.4,1-0.7,1.3c0.3-0.3,0.6-0.5,0.7-1c0,0.1-0.1,0.3-0.1,0.2c0-0.5,0.4-0.5,0.5-1l-0.2,0
								c0-0.1,0.1-0.4,0.1-0.6c0.1,0,0.3-0.4,0.3-0.1c0.3-0.7-0.1-0.7,0.2-1.5C303.2,208,303.2,208.1,303.1,208.3z M304,198.5
								C304,198.6,304.1,198.8,304,198.5L304,198.5z M304.1,198.1c0-0.3,0-0.6,0-0.9c-0.1-0.2-0.2-0.2-0.4-0.2
								c0.3,0.1-0.2,0.2,0,0.3c-0.1,0-0.2,0-0.3,0c-0.1,0.1-0.3,0.2-0.4,0.3c0.4-0.3-0.3,0,0.5-0.5c0-0.2-0.5,0.4-0.8,0.6
								c0.1-0.1,0.3-0.3,0.4-0.4c-0.7,0.6-1.6,1-1.8,1.3c-0.2,0.2-0.5,0.4-0.7,0.7c-0.2,0.2-0.5,0.4-0.6,0.5c-0.3,0.1-0.7,0.4-1,0.6
								l0-0.1c-0.2,0.1-0.5,0.3-0.8,0.5l-0.1,0c-0.2,0.1-0.6,0.4-0.9,0.5c0,0,0.3-0.1,0.2,0c0.2-0.1,0.3-0.2,0.2-0.2
								c0.2-0.1,0.2,0,0.3-0.1l-0.6,0.4c0,0-0.1,0-0.1,0l0,0.1c-0.2,0.1-0.2,0.1-0.2,0c-0.3,0.2-0.4,0.3-0.8,0.5
								c0.1-0.1,0.2-0.2,0.5-0.3l-0.4,0.2c0.2-0.1,0.9-0.5,0.7-0.5c-0.4,0.3-1.1,0.7-1.4,0.9c-0.3,0-0.5,0.3-0.9,0.4
								c-0.1,0-0.2,0-0.1,0c-0.4,0.2-0.9,0.5-1.3,0.7l-0.2,0.1c-0.7,0.3,0.2,0-0.6,0.3c-0.2,0-0.9,0.4-1,0.4
								c-0.1,0.1-0.2,0.1-0.2,0.1c0.1,0,0.4-0.2,0.3-0.1c-0.3,0.1-0.4,0.1-0.6,0.2c-0.4,0.1-1,0.4-1.4,0.6c0,0,0.1,0,0.1,0l-0.2,0.1
								l0.2,0c-0.1,0-0.3,0.1-0.4,0.1c0.4-0.1,0.8-0.3,1.2-0.4l0,0c0,0,0,0,0,0c0.2-0.1,0.5-0.2,0.6-0.2l0,0c0,0,0,0,0,0l0.3-0.1
								c0,0-0.1,0.1-0.2,0.1c1.1-0.4,1.9-0.8,3-1.2c0,0,0,0,0,0c0.1,0,0.1-0.1,0.2-0.1c0,0,0,0,0.1,0c0,0,0,0,0,0
								c0.5-0.2,0.9-0.3,1.2-0.5c0,0,0,0,0,0c0.5-0.2,0.7-0.4,1.2-0.7c-0.2,0.2,0.2,0,0.3,0c0.5-0.3,1.5-0.8,2.1-1.2
								c-0.1,0.3,0.8-0.4,0.9-0.3c0.2-0.1,0.3-0.2,0.3-0.3c-0.1,0.1-0.3,0.1-0.3,0.1c0.2-0.1,0.5-0.3,0.5-0.4l0.3-0.1
								c0-0.1,0.1-0.2,0.2-0.2c0,0,0,0,0,0c0,0,0.1-0.1,0.1-0.1c0,0,0,0,0,0c0.1,0,0.1,0,0.1-0.1c0-0.1,0.1-0.2,0.3-0.3
								c0,0.1-0.1,0.1-0.1,0.1c-0.1,0.1-0.2,0.2-0.2,0.3c0.2-0.1,0.2-0.2,0.4-0.3c0,0.1-0.2,0.3-0.4,0.5l0.2-0.1
								c0.1-0.2,0.4-0.4,0.6-0.6c0.1-0.1,0.3-0.2,0.4-0.3c0.1-0.1,0.3-0.3,0.2,0c-0.1,0-0.1,0-0.1,0c-0.1,0.1-0.1,0.1-0.1,0.2
								c0,0.1,0.2,0.2,0.1,0.6c0,0,0,0,0,0c0.1,0.3-0.1,0.4-0.1,0.8c0,0,0,0,0,0l0.1,0.2c0.1,0.5-0.2,0.7-0.3,0.9l0-0.1
								c-0.1,0.1-0.1,0.9-0.2,1.1c0.1-0.2,0.1-0.1,0.3-0.2c0-0.2-0.2-0.2-0.1-0.6c0.1,0.1,0.1,0.6,0.2,0.7c0,0.2-0.3,0.3-0.3,0.3
								c-0.1,0.5-0.2,0.8-0.3,1.5c0,0.3,0.3,0.5,0,1l0,0c0,0.1-0.1,0.2-0.1,0.4c0.2-0.2,0,0.3,0.2,0.1c-0.1,0.3-0.3,0.3-0.4,0.3
								c0.1,0.3-0.3,0.6-0.3,1.1c0-0.1,0.1-0.6-0.1-0.4l0,0.7l0.1-0.3c0,0.5-0.2,0.6-0.4,0.8c-0.1,0-0.1-0.1,0-0.2
								c0,0.1-0.1,0.3-0.1,0.5l0,0.1c0,0.2-0.1,0.6-0.1,0.8l0,0.1c0,0,0,0,0-0.1c0,0,0,0.1,0,0.1l-0.1,0.2l0-0.1l0,0.1l-0.1,0.2
								l0,0.1l0-0.1c0.1,0,0.1,0.2,0.1,0.3c0,0.1,0,0.3-0.1,0.4c0,0,0.1-0.2,0.3-0.5l0,0.1c-0.2,0.4-0.4,0.7-0.6,1.1
								c0-0.1,0.1-0.3,0.2-0.4c0,0,0,0-0.1,0.1c-0.2,0.2-0.2,0.5-0.3,0.7c0,0,0,0.1-0.1,0.1c-0.1,0.1-0.1,0.1-0.2,0.2
								c0.1-0.6,0.3-0.8,0.6-1.4c0.3-0.2-0.1,0.4,0,0.5l0.2-0.3c-0.1,0,0.2-0.7,0-0.6c-0.4,0.7-0.8,1.4-1.1,2
								c-0.2-0.4-0.4-0.7-0.7-1.1c0,0,0,0-0.1-0.1c-0.3,0.6,0.2,0.5,0.2,0.6c-0.1,0.1,0,0.3-0.2,0.4l0-0.1c-0.1,0.4,0.1,0.2-0.1,0.5
								c-0.1,0.3,0.2-0.2,0.1,0c-0.2,0.3,0.1,0.4-0.3,0.8c0-0.1-0.2,0,0-0.4c-0.1,0.1-0.2,0.2-0.3,0.2c0.2-0.4,0.1-0.2,0.3-0.5
								c0-0.3-0.2-0.3-0.2-0.5c-0.1,0.2,0.1,0.2-0.1,0.4c-0.2,0.2-0.1,0-0.1-0.1c-0.1,0.4-0.3,0.3-0.4,0.6c0.2,0.1,0.2,0.1,0.4,0
								c-0.1,0.2-0.4,0.4-0.5,0.3l0.1,0.1c-0.1,0-0.2,0.2-0.2,0.2l0,0.1c0.2-0.1,0.3-0.2,0.4-0.4c0,0.2,0.3,0,0.1,0.3
								c-0.1,0.1-0.1,0-0.1,0c-0.4,0.8-0.7,0.5-1.1,1.1c0.1-0.2,0.4-0.4,0.5-0.8c-0.2,0.1-0.2,0.3-0.4,0.5c0.1-0.2,0-0.2-0.1-0.1
								l0,0.1c-0.1,0.1-0.2,0.3-0.2,0.3c0,0,0.1,0,0.2-0.1c-0.1,0.3-0.4,0.8-0.9,1.1c-0.1-0.1,0.4-0.6,0.1-0.4
								c-0.1,0.2-0.1,0.4-0.5,0.6c0-0.2-0.2,0-0.2,0c-0.1,0.2-0.2,0.3-0.2,0.5c-0.2,0.1-0.3,0.3-0.5,0.4c0,0,0.1-0.1,0.1-0.1
								c-0.1,0.4-0.6,0.3-0.9,0.7l0.1-0.2c-0.3,0.2-0.5,0.4-0.7,0.6l-0.1-0.1c0,0.1-0.3,0.4-0.4,0.5c0.6-0.4,0.6-0.2,1.2-0.7
								c-0.1,0.4-0.3,0.5-0.5,0.8c-0.1,0-0.2,0-0.2,0c-0.1,0.1,0,0.2-0.2,0.4l-0.1,0c-0.6,0.2-0.3,0.5-0.9,0.7
								c-0.2-0.1,0.3-0.4,0.6-0.7c-0.3,0,0.5-0.3,0.1-0.4l-0.1,0.2c-0.1,0.1-0.2,0-0.1,0c-0.1,0.1-0.1,0-0.1,0.2
								c-0.8,0.4,0-0.2-0.8,0.1c0.1-0.1,0.3-0.2,0.2-0.2l0.4-0.2l0-0.1c-0.5,0.3-0.7,0.5-0.9,0.8c0.4-0.3,0.1,0.1,0.4,0.1
								c-0.1,0.1-0.2,0.1-0.2,0.1c0,0.1-0.3,0.2-0.2,0.2c-0.1-0.1-0.5-0.1-0.8-0.1c0,0.1,0,0.3,0,0.4c0.1,0,0.3-0.1,0.4,0
								c-0.1,0-0.2,0.1-0.4,0.1c0,0.1,0,0.2,0,0.3c0.2-0.1,0.5-0.3,0.7-0.3l-0.1,0.1c0.5-0.2,0.8-0.3,1-0.3l0,0
								c0.2,0,0.4,0.1,0.6,0.1c-0.1,0.1-0.3,0.2-0.4,0.2l-0.1-0.1c-0.7,0.2-1.1,0.7-1.8,0.8c0,0.2,0,0.4,0,0.6c0,0,0,0,0,0
								c0.3-0.1,0.6-0.2,0.9-0.3c0.3-0.1,0.6-0.2,0.9-0.3c0-0.1,0-0.1,0-0.2c0.2,0,0.5-0.2,0.5-0.1c0.1-0.2,0.6-0.5,0.4-0.6l0.1,0
								c0.3,0,0.6,0,1.2-0.3c0.1-0.1,0.1-0.1,0-0.2c0.1,0,0.3-0.1,0.4-0.1c0,0.1-0.1,0.2-0.2,0.3c0.3-0.1,0.6-0.3,0.9-0.5l0,0.1
								l0.3-0.3c-0.2,0.2-0.5,0.3-0.5,0.2c0.3-0.3,0.6-0.4,0.8-0.7c0.2,0.2,0.3,0.1,0.3,0.3c0,0,0,0,0,0c0,0.2-0.2,0.5-0.4,0.7
								c0.8-0.4,0.5-0.4,1.1-0.8c0.1,0.1-0.4,0.6-0.2,0.5c-0.2,0.1-0.4,0.3-0.6,0.4c0.1-0.1,0.1-0.1,0.1-0.2
								c-0.3,0.4-0.6,0.4-0.8,0.7c-0.2,0.1,0.2-0.3,0-0.2c0.2-0.1,0.3-0.4,0.3-0.5c-0.5,0.3-0.2,0.3-0.5,0.6c-0.1,0-0.3,0.1-0.4,0.1
								c-0.1,0.1,0.1,0.1,0.1,0.1c-0.2,0.2-0.3,0.1-0.5,0.2c0.1,0,0.2,0,0.2,0c-0.3,0.1-0.6,0.3-1,0.3c0.2,0-0.1,0.3-0.2,0.4
								c0.2,0,0.4-0.1,0.7-0.1c0.7-0.4,1.2-0.6,1.8-1.2l0,0.1c0.7-0.3,0.8-0.6,0.9-0.8c0.1-0.3,0.2-0.5,0.6-0.9
								c0.2,0.1,0.4-0.4,0.5-0.2c-0.3,0.2-0.2,0.2,0,0.2c0.1-0.2,0.1-0.4,0.4-0.6c0,0.2,0.3,0,0,0.3c0.4-0.4,0.6-0.6,0.6-0.9
								c0.4-0.8,0.3-0.1,0.8-0.8l0,0.1c0.1-0.1,0.2-0.3,0.3-0.5l-0.2,0.1l0.3-0.6c0.1-0.4-0.2,0.1-0.2,0l0,0.2
								c-0.2,0.2-0.3,0.6-0.4,0.5c0.2-0.3,0.1-0.3,0.1-0.5c-0.1,0.1-0.1,0.2-0.2,0.3l-0.2,0c-0.2,0.3-0.4,0.5-0.5,0.8
								c0.1-0.1,0.1-0.3,0.2-0.3c0,0.3-0.3,0.6-0.6,1c0,0-0.1,0.1-0.1,0c0,0,0.1-0.1,0.1-0.1c-0.1,0,0.1-0.3-0.3,0
								c0-0.2,0.1-0.6,0-0.6c0.1-0.2,0.4-0.5,0.5-0.6l0,0c0.1-0.2,0.3-0.6,0.5-0.6c0.1-0.1,0.2-0.5,0-0.2l0.3-0.5
								c0.1,0.2,0.5-0.2,0.3,0.4c0,0,0.1-0.1,0.2-0.4c0-0.1,0.1-0.1,0.1-0.2l0,0c0,0,0,0,0,0.1c-0.1,0.1-0.1,0.1-0.1,0.1
								c0,0.3,0.2,0,0.4-0.3l-0.1-0.1c0.2-0.2,0.4-0.3,0.6-0.7l0-1l0.1-0.2c0.1-0.1,0.2-0.5,0.3-0.2c0.1,0,0,0.1-0.1,0.3
								c0,0,0,0,0,0c0.1,0.1,0.1,0.1,0.3,0c-0.1,0.2-0.1,0.2-0.2,0.4l0.1-0.2c-0.1,0.3-0.2,0.8-0.1,0.9c-0.1-0.2,0.2-0.3,0.3-0.4
								c0,0.1-0.1,0.4,0,0.2c0-0.1,0.2-0.7-0.1-0.3c0.1-0.2,0.1-0.4,0.2-0.6c0,0.2,0.1,0.1,0.1,0.2c0-0.2-0.1-0.3-0.1-0.3
								c0.1-0.1,0.1-0.1,0.2-0.2c0,0-0.1,0.1-0.1,0.1c0.1-0.5,0.5-1.3,0.4-1.6c-0.1,0.1,0,0.4-0.2,0.5l0.1,0.2
								c0,0.2-0.2,0.6-0.3,0.6c0.1-0.5,0.1-0.7,0.1-0.9c0,0,0-0.1,0-0.1c0-0.1,0.2-0.4,0.2-0.5c0.1-0.1,0.1,0,0.1,0
								c0.4-0.5,0.1-1,0.4-1.5c0.1,0,0.3-0.4,0.3-0.3c0.1-0.3,0.1-0.6,0.1-0.8c0.1,0,0.2-0.5,0.2-0.3l-0.1-0.4
								c0.1-0.2,0.2-0.7,0.3-0.7c0-0.2-0.1-0.1,0-0.4c0,0,0,0,0,0.1c0.1-0.1,0.2-0.5,0.1-0.7c-0.1,0.2,0,0.1-0.1,0.3
								c-0.1,0-0.1-0.3,0.1-0.6c0.1,0.5,0.2-0.3,0.3-0.1c0.1-0.7,0-1.1,0-1.7c0-0.4,0.1-0.7,0.1-1.1c0-0.5,0.1-0.9,0-1.2l0,0.1
								l0-0.4c0-0.2,0.1-0.1,0.1-0.4c0.1,0,0,0.6,0,0.9c0.2-0.7,0.1,0.6,0.2,0.1c-0.2-0.2,0.1-1.5-0.1-1.9c0-0.2,0-0.2,0-0.2
								C304,198.3,304.1,198.2,304.1,198.1z M298,213.5c0-0.1,0.3-0.5,0.3-0.3c-0.2,0.2,0.1,0.4-0.2,0.5c0.1,0.1,0.1,0.1,0.2,0
								c0,0,0,0.1,0,0.1c-0.1,0.1-0.1,0.2-0.2,0.3c-0.1,0.1-0.1,0.1-0.1,0.1C297.9,214,298.1,213.7,298,213.5z M296.4,215.9
								C296.4,215.9,296.5,215.9,296.4,215.9l-0.1,0.3C296.3,216.1,296.2,216.1,296.4,215.9z M294.7,217.7c0,0.1-0.2,0.2-0.4,0.3
								c0,0,0,0,0,0c-0.1,0-0.1,0-0.2,0.1c0.1-0.1,0-0.1,0-0.1c-0.2,0.2-0.1,0.2,0,0.2c0.1,0,0.1,0,0.2-0.1
								c-0.1,0.1-0.2,0.2-0.3,0.3c-0.1,0.1-0.2,0.2-0.3,0.2c-0.1-0.1-0.1-0.1-0.1-0.1l0,0c0,0,0,0,0.1-0.1l-0.2,0l0.3-0.2
								c-0.2,0-0.3,0.2-0.5,0.3c-0.2,0,0.3-0.3,0.4-0.6c0.1-0.2,0.5-0.3,0.5-0.2c-0.1-0.2,0.5-0.4,0.6-0.7c0.4-0.4,0.5,0,0.8-0.4
								l-0.2,0c0.3-0.3,0.4-0.5,0.8-0.8c0.1,0.1-0.2,0.1-0.2,0.3l0.3-0.1c-0.1,0.1-0.2,0.3-0.2,0.2c0,0.1,0,0.2,0.2,0l-0.1,0.2
								c0,0,0.1,0,0.1,0l-0.1,0.2c-0.1,0-0.2,0.1-0.4,0.1c0,0,0.1-0.1,0.1-0.2c-0.2,0.1-0.3,0.2-0.4,0.3c0.3-0.2,0.2,0,0.3,0
								c-0.1,0.2-0.4,0.4-0.5,0.5c-0.3,0.1-0.5,0.2-0.4,0c-0.1,0.2-0.3,0.2-0.4,0.4C294.4,217.5,294.3,218,294.7,217.7
								C294.7,217.6,294.7,217.7,294.7,217.7L294.7,217.7z M297.1,216l0.1,0c-0.1,0.1-0.2,0.3-0.3,0.3c0,0,0-0.2,0.1-0.5
								c0-0.1,0-0.2,0.1-0.2c0.1-0.2,0.1-0.4,0.1-0.4c0.2-0.2,0.4-0.5,0.5-0.6l0,0.1c-0.5,0.6-0.6,0.7-0.4,0.8l0,0
								c0.1,0,0.5-0.2,0.9-0.4C297.8,215.3,297.4,215.6,297.1,216z M299.4,212.3l-0.1-0.1c0.1-0.1,0.1-0.1,0.2,0
								C299.5,212.1,299.5,212.2,299.4,212.3L299.4,212.3z M299.8,211.7C299.8,211.7,299.8,211.7,299.8,211.7
								c0.1-0.1,0.1-0.2,0.1-0.2C299.9,211.6,299.8,211.7,299.8,211.7z"/>
							<path class="st9" d="M296.2,201.6c-0.5,0.3-1.1,0.6-1.7,1C295,202.2,295.4,202,296.2,201.6z"/>
							<path class="st9" d="M292.7,220.9c-0.4,0.1-0.5,0.1-0.5,0c-0.4,0.1-0.3,0.2-0.5,0.3C292.2,221.1,292.3,221.1,292.7,220.9z"/>
							<path class="st9" d="M291.8,221.3c0,0-0.1,0-0.1,0.1C291.7,221.3,291.7,221.3,291.8,221.3z"/>
							<path class="st9" d="M293.3,220.7c-0.1,0-0.2,0.1-0.3,0.1C293.1,220.8,293.4,220.6,293.3,220.7z"/>
							<path class="st9" d="M291.2,219.6c-0.1,0-0.3,0.1-0.4,0.1C291,219.7,291.2,219.8,291.2,219.6z"/>
							<path class="st9" d="M294.2,219.8c-0.1,0-0.2,0-0.2-0.1C293.9,219.8,293.9,220.1,294.2,219.8z"/>
							<polygon class="st9" points="291.9,219.4 291.8,219.4 291.6,219.5 							"/>
							<path class="st9" d="M290.6,218.5c-0.2,0.2,0.5,0.1,0.1,0.3c0.6-0.1-0.1-0.1,0.3-0.3C290.7,218.6,290.6,218.5,290.6,218.5z"
								/>
							<path class="st9" d="M291,218.5c0,0,0.1,0,0.1,0C291,218.5,291,218.5,291,218.5z"/>
							<path class="st9" d="M294.6,217.3C294.6,217.3,294.6,217.4,294.6,217.3C294.6,217.4,294.6,217.3,294.6,217.3z"/>
							<path class="st9" d="M292.2,217.9l-0.3,0.3c0.2-0.2,0.8-0.5,0.7-0.6C292.4,217.7,292.2,217.8,292.2,217.9L292.2,217.9z"/>
							<path class="st9" d="M298,217.4l-0.1,0.2L298,217.4C298,217.4,298,217.2,298,217.4z"/>
							<path class="st9" d="M298.1,217.3L298.1,217.3C298.1,217.4,298.1,217.4,298.1,217.3z"/>
							<path class="st9" d="M294,217.8c-0.1,0.1-0.2,0.1-0.3,0.2C293.8,218,294.1,217.9,294,217.8z"/>
							<path class="st9" d="M298.8,216.1l-0.2,0.3C298.6,216.3,298.7,216.2,298.8,216.1L298.8,216.1z"/>
							<polygon class="st9" points="299.9,215.1 300,215.1 300.1,214.8 300.1,214.8 							"/>
							<path class="st9" d="M296.2,214.5c-0.1,0.1-0.1,0.3-0.1,0.3l0.2-0.3c-0.2,0-0.1,0.1-0.2,0.2L296.2,214.5z"/>
							<path class="st9" d="M303.9,204.7c0.1,0.1-0.1,0.5-0.2,0.6c0-0.1,0-0.3-0.1-0.2l0.1,0.4c-0.2,0.4-0.2-0.4-0.2-0.7
								c-0.1,0.5,0,0.6-0.1,1.1c0.1-0.1,0.1-0.2,0.2-0.3c0.1,0,0,0.5-0.1,0.8c0.1-0.2,0.1-0.1,0.1,0.1c0,0,0,0.1,0,0.1l0,0.1l0,0
								c0,0,0,0,0.1,0c0-0.3,0.2-0.5,0.2-0.7c-0.3,0.1,0.1-0.6,0.1-0.9l0-0.3l0-0.1c0,0,0.1,0,0.1,0.2c0-0.1,0.1-0.6,0-0.5l0.2-1
								c0,0,0-0.1,0-0.1c0,0,0,0,0,0l0.1-1.1l0-0.3c0-0.1,0-0.3,0-0.4l0.1-0.9c0.1-1.3,0.1-2.4,0.1-3.4c0,0.3-0.1,0.7-0.1,1
								c-0.1-0.4,0,0.5-0.1,0.5c0-0.2,0-0.5,0-0.7c-0.1,0-0.1,0.3-0.2,0.4c-0.1,0.8,0.2,0.7,0.1,1.5c-0.1,0-0.1-0.2-0.2,0.3l0-0.1
								c0,0.8-0.2,0.7-0.1,1.2l-0.1,0c0,0.1,0,0.2,0,0.3c0,0.1,0,0.3,0,0.4c0,0.2,0,0.4,0,0.5l0,0c0,0.8,0,0.4-0.1,1.3l-0.1-0.4
								c-0.1,0.3,0,0.4,0,0.6c0,0-0.1,0-0.1-0.2l0,1.1C303.8,205,303.9,204.7,303.9,204.7z"/>
							<path class="st9" d="M303.5,205.9c0,0.1,0,0.1-0.1,0.2C303.5,206,303.5,206,303.5,205.9z"/>
							<path class="st9" d="M304.7,196.7l0,0.4C304.7,197,304.7,196.8,304.7,196.7z"/>
							<path class="st9" d="M303.4,207.5c0.1-0.2,0.1,0.2,0.1,0.2l0.2-0.6c0,0-0.1-0.1-0.1-0.1L303.4,207.5z"/>
							<path class="st9" d="M303.8,206.9c0,0,0-0.1,0-0.2l-0.1,0.4C303.7,207,303.7,207,303.8,206.9z"/>
							<polygon class="st9" points="301.2,206.2 301.3,206.1 301.3,205.9 							"/>
							<path class="st9" d="M301.9,204.6c-0.1,0.1-0.1,0.4-0.1,0.4C301.8,204.8,301.8,204.9,301.9,204.6z"/>
							<polygon class="st9" points="301,204.8 301.1,204.5 301,204.5 							"/>
							<path class="st9" d="M302.1,197.8c-0.1,0.1-0.1,0.1-0.2,0.2C302,197.9,302.1,197.9,302.1,197.8z"/>
							<path class="st9" d="M304.4,197.5c0.1-1.1,0.1,0.5,0.3,0l-0.1-0.5l0,0c0-0.2,0-0.5,0-0.6c-0.1,0.2-0.1,0.3-0.1,0.4
								c-0.1-0.7,0.1-0.3,0.1-1l0-0.2l-1,0.8l0.1-0.1c-0.1,0.1-0.2,0.1-0.2,0.2l-0.5,0.4l-0.5,0.4l-1,0.7l-0.9,0.7
								c-0.2,0.1-0.3,0.2-0.4,0.4l-0.3,0.2c-0.3,0.3,0.2,0,0,0.2c0,0,0.1-0.1,0.2-0.1c0.1,0,0.2-0.1,0.3-0.2
								c0.2-0.2,0.4-0.3,0.6-0.4c0.4-0.3,0.6-0.5,0.7-0.6c0,0-0.1,0.1,0.1,0l0.5-0.5l-0.4,0.2c0.2-0.2,0.7-0.6,1.2-1
								c0.5-0.4,1-0.7,1.1-0.7c-0.5,0.4-0.6,0.6-0.8,0.7c-0.2,0.2-0.4,0.3-0.9,0.7c0,0,0.2,0,0,0.2c0.6-0.5,1.3-1,2-1.5
								c0.1,0.1,0.1,0.3,0.2,0.4c0,0,0,0.2,0.1,0.3C304.4,197.2,304.4,197.3,304.4,197.5z"/>
							<path class="st9" d="M296.3,201.6L296.3,201.6C296.3,201.6,296.3,201.6,296.3,201.6z"/>
							<path class="st9" d="M296.6,201.5l0.3-0.3l-0.5,0.3l0,0.1C296.4,201.5,296.5,201.4,296.6,201.5L296.6,201.5z"/>
							<path class="st9" d="M297.2,200.9c-0.3,0.2-0.2,0.3,0,0.2c-0.2,0.2-0.2,0-0.3,0.2c0,0,0.3-0.2,0.4-0.2L297.2,200.9z"/>
							<polygon class="st9" points="299.2,199.7 299.2,199.8 299.4,199.7 							"/>
							<path class="st9" d="M299.2,199.8l-0.2,0.1c0,0,0.1,0,0.1,0L299.2,199.8z"/>
							<path class="st9" d="M298.5,200.2c-0.1,0-0.2,0.1-0.3,0.2L298.5,200.2z"/>
							<path class="st9" d="M298.7,200.1L298.7,200.1l-0.2,0.1C298.6,200.1,298.6,200.1,298.7,200.1z"/>
							<path class="st9" d="M299,199.9c-0.1,0-0.1-0.1-0.4,0.1l0.1,0.1L299,199.9z"/>
							<polygon class="st9" points="301.6,202.9 301.6,202.6 301.6,202.7 301.6,202.9 							"/>
							<path class="st9" d="M302,201.5C302,201.5,302,201.4,302,201.5C302,201.5,302,201.5,302,201.5z"/>
							<path class="st9" d="M301.4,201.3c0.1-0.1,0.1,0,0.2-0.1c0.1-0.1,0.2,0,0.1,0.1c-0.1,0,0-0.1-0.1,0c0.1,0,0,0.1,0.2,0
								c0.1,0.1,0.2,0.1,0.2,0.2c0-0.1,0.1-0.5,0-0.6C301.8,200.9,301.6,201.1,301.4,201.3C301.3,201.3,301.3,201.3,301.4,201.3z"/>
							<path class="st9" d="M301.2,201.4C301.2,201.4,301.2,201.4,301.2,201.4C301.3,201.4,301.2,201.4,301.2,201.4z"/>
							<path class="st9" d="M302.7,198.9c0,0.1-0.3,0.2-0.3,0.3L302.7,198.9C302.7,199,302.7,199,302.7,198.9z"/>
							<path class="st9" d="M302.9,198.9l-0.1,0.1C302.8,199,302.8,198.9,302.9,198.9z"/>
							<path class="st9" d="M302.7,198.9L302.7,198.9C302.7,198.9,302.7,198.9,302.7,198.9z"/>
							<path class="st9" d="M297.7,200.6c0,0-0.1,0.1-0.2,0.1C297.6,200.7,297.6,200.7,297.7,200.6z"/>
							<path class="st9" d="M292.3,203.7l-0.1,0.1C292.2,203.7,292.2,203.7,292.3,203.7z"/>
							<path class="st9" d="M290.3,204.9L290.3,204.9C290.2,204.9,290.2,204.9,290.3,204.9z"/>
							<path class="st9" d="M290.2,204.9c-0.2,0.1-0.2,0.1-0.5,0.2l0,0l-0.2,0.1C289.7,205,290.1,204.9,290.2,204.9z"/>
						</g>
					</g>
					<path class="st5" d="M385.3,388.2c-5.4,13-46.9,35.7-85,46.3c-2.7,0.8-5.3,1.4-8,2.1c-0.1,0-0.2,0.1-0.4,0.1c0,0,0,0-0.1,0
						c-0.2,0-0.3,0.1-0.5,0.1c0,0,0,0-0.1,0c-0.1,0-0.3,0.1-0.4,0.1c0,0,0,0,0,0c-5.1,1.2-3.8,1.1-8.5,1.7
						c-5.1-3.4-7.1-12.6-5.8-18.3c0,0-6.4,3.3-10.9,1.6c-2.3-0.9-19.2-9.7-22-7.4c-2.8,2.3,10.4,9.1,9.6,10.3
						c-0.8,1.3-19.6,0.5-24.2-0.2c0,0,0,0,0,0c-0.3-0.1-1.5,0.1-3.8-1.7c0,0-0.6-1.6-5.2-8.2c-4.7-6.5-7.7-12.1-7.7-12.9
						c0.1-0.9,9.8,5.7,10.9,2.5c1.2-3.2-13.2-10.9-14.6-13.1c-2.9-4.5-4.3-14.4-2.7-26c0.1-0.8,0.2-1.7,0.3-2.9
						c1-6.8,5-24.4,20.7-36.9c0,0,7.2-47.2,26.1-66.1c9.9-9.9,28.1-21.6,34-28.7c-0.6,0.9-9.4,14.9-3.9,19.4
						c5.8,4.6,27.8-6.2,41.5-23.5c3.3,8.8,21.1,23.8,27.6,37.1c2.5,5.1,8.4,20.4,14.6,38.7l0,0C378,335,389.9,377.1,385.3,388.2z"/>
					<g class="st11">
						<path class="st6" d="M260.8,262.6c-2.2,2.4-4.4,4.9-6.4,7.4c-2.1,2.5-4.1,5.1-6,7.7c-1.8,2.7-3.6,5.4-4.8,8.3
							c-0.6,1.4-1.1,2.9-1.2,4.4c-0.1,1.6,0,3.2,0.2,4.7c0.3,3.2,1.1,6.3,2,9.4c0.4,1.6,1,3.1,1.3,4.9c0,0.2,0.1,0.5,0,0.9
							c0,0.1,0,0.2-0.1,0.3c0,0.1-0.1,0.3-0.2,0.4l-0.3,0.3c-0.4,0.4-0.7,0.6-1,0.9c-0.6,0.5-1.3,1-1.9,1.6c-5.2,4-10.5,7.8-15.5,12
							c4.5-4.8,9.6-9,14.5-13.2c0.6-0.5,1.2-1.1,1.8-1.6c0.3-0.3,0.6-0.6,0.8-0.8l0.1-0.1c0,0,0,0,0,0.1c0,0,0,0,0,0
							c0,0,0-0.2,0-0.4c-0.3-1.4-0.9-3-1.3-4.6c-1-3.1-1.8-6.4-2.2-9.7c-0.2-1.7-0.3-3.4-0.2-5.1c0.1-1.8,0.7-3.5,1.4-5.1
							c1.4-3.1,3.3-5.8,5.3-8.4C251.2,271.5,255.9,266.8,260.8,262.6z"/>
						<path class="st6" d="M278.2,310.6c3,1.5,6.2,2.7,9.4,3.6c3.2,0.9,6.5,1.4,9.7,1.5c1.6,0.1,3.3,0,4.9-0.1
							c1.6-0.2,3.3-0.4,4.8-0.8c0.8-0.2,1.6-0.3,2.4-0.6l2.4-0.8c0.8-0.2,1.5-0.6,2.3-0.9c0.8-0.3,1.5-0.7,2.3-1
							c-0.7,0.5-1.4,1-2.1,1.5c-0.7,0.5-1.4,1-2.2,1.4l-2.3,1.2c-0.4,0.2-0.8,0.4-1.2,0.5l-1.2,0.4c-1.6,0.7-3.4,0.9-5.1,1.2
							c-1.7,0.1-3.5,0.4-5.2,0.2c-3.5-0.1-6.9-0.8-10.2-2C283.9,314.5,280.8,312.9,278.2,310.6z"/>
						<path class="st6" d="M311.9,283.3c1.2,0.3,2.3,0.9,3.3,1.6c1,0.7,1.9,1.4,2.7,2.5c-1.2-0.3-2.3-0.9-3.3-1.6
							C313.6,285.1,312.7,284.3,311.9,283.3z"/>
						<path class="st6" d="M353,374.5l0,0.2l0,0l0,0.1l0,0c0,0,0,0.1,0,0.1c0,0,0,0,0,0c0,0,0,0,0,0c0,0,0,0,0,0c0,0,0,0,0,0
							s0,0,0,0l0,0c0,0,0,0,0,0l-0.1,0.1c0,0,0,0,0,0c0,0,0,0.1-0.1,0.1c0,0,0,0,0,0.1c0,0,0,0,0,0c0,0,0,0,0,0l0,0l0,0c0,0,0,0,0,0
							c0,0,0,0,0,0c0,0,0,0,0,0c0,0,0,0,0,0c-0.1,0.1-0.2,0.3-0.3,0.4c-0.1,0.1-0.1,0.1-0.2,0.2c0,0,0,0,0,0c0,0,0,0,0,0l0,0
							c0,0,0,0-0.1,0.1l0,0c0,0,0,0,0,0c0,0,0,0-0.1,0.1c0,0,0,0-0.1,0.1c0,0,0,0-0.1,0l-0.2,0.2c0,0-0.1,0-0.1,0.1l-0.1,0.1
							c0,0,0,0,0,0l0,0l0,0l-0.1,0.1c0,0,0,0,0,0l0,0l0,0l-0.1,0.1c-0.1,0-0.1,0.1-0.2,0.1l0,0c-0.1,0.1-0.3,0.2-0.4,0.4
							c-0.1,0.1-0.3,0.2-0.5,0.4c-0.1,0.1-0.1,0.1-0.2,0.2c0,0,0,0-0.1,0.1c0,0-0.1,0.1-0.1,0.1c0,0,0,0,0,0c0,0-0.1,0-0.1,0.1
							c0,0,0,0,0,0l0,0c0,0,0,0,0,0c0,0,0,0,0,0l0,0c0,0,0,0,0,0l0,0l0,0c0,0,0,0-0.1,0.1c0,0,0,0,0,0l0,0c0,0,0,0,0,0l0,0
							c0,0,0,0,0,0l0,0c0,0,0,0,0,0c0,0,0,0,0,0l0,0c0,0,0,0,0,0c-0.3,0.2-0.6,0.5-0.9,0.7c0,0-0.1,0.1-0.1,0.1
							c-0.1,0-0.1,0.1-0.2,0.1c-0.2,0.2-0.4,0.3-0.6,0.5c-3.2,2.4-6.5,4.8-9.9,7.1c-1.3,0.9-2.7,1.8-4,2.7c-1.2,0.8-2.3,1.6-3.5,2.3
							c-0.3,0.2-0.7,0.4-1,0.7c-1.1,0.7-2.2,1.4-3.2,2.1c-0.3,0.2-0.5,0.4-0.8,0.5c-1.1,0.7-2.2,1.4-3.3,2.1
							c-0.1,0.1-0.2,0.1-0.3,0.2c0,0,0,0-0.1,0c-0.1,0.1-0.2,0.2-0.4,0.2c0,0,0,0,0,0c-0.8,0.5-1.6,1-2.4,1.5c0,0-0.1,0-0.1,0.1
							c-0.3,0.2-0.7,0.4-1,0.6c-0.1,0.1-0.2,0.1-0.3,0.2c-0.7,0.4-1.5,0.9-2.2,1.3c0,0,0,0,0,0c-0.7,0.4-1.4,0.8-2.1,1.2
							c0,0-0.1,0.1-0.2,0.1c-0.4,0.2-0.8,0.5-1.2,0.7l0,0c-0.5,0.3-0.9,0.6-1.4,0.8c0,0,0,0,0,0c-0.1,0.1-0.3,0.2-0.4,0.2
							c-0.1,0-0.2,0.1-0.2,0.1c-1.1,0.6-2.2,1.3-3.4,1.9c-1.5,0.8-2.9,1.6-4.4,2.4c-0.6,0.3-1.1,0.6-1.7,0.9c0,0-0.1,0-0.2,0.1
							c-1.1,0.6-2.2,1.2-3.3,1.8c-0.9,0.5-1.8,0.9-2.7,1.4c-0.5,0.2-0.9,0.4-1.4,0.7c-0.1,0.1-0.2,0.1-0.3,0.2l0,0
							c-0.5,0.2-1,0.5-1.5,0.7c-0.6,0.3-1.1,0.5-1.7,0.8c-0.5,0.2-1,0.4-1.4,0.6c-0.4,0.2-0.9,0.4-1.4,0.6c0,0,0,0,0,0
							c-0.2,0.1-0.3,0.2-0.5,0.2c-0.4,0.2-0.8,0.4-1.2,0.5c0,0,0,0-0.1,0c-0.2,0.1-0.5,0.2-0.7,0.3c0,0,0,0,0,0
							c-0.1,0-0.1,0.1-0.2,0.1l0,0c-0.3,0.1-0.6,0.2-0.8,0.3l0,0c-0.1,0-0.2,0.1-0.3,0.1c-0.3,0.1-0.5,0.2-0.8,0.3
							c-0.1,0.1-0.3,0.1-0.4,0.2c0,0,0,0,0,0l0,0l0,0l0,0l0,0c-2.2,0.8-4.4,1.5-6.6,2.1c2.2-0.7,4.4-1.5,6.5-2.4l0,0l0,0
							c1.1-0.4,2.1-0.9,3.1-1.4c0,0,0.1,0,0.1,0c0.5-0.2,1.1-0.5,1.6-0.8c0.1-0.1,0.2-0.1,0.3-0.2c0,0,0,0,0,0
							c0.3-0.2,0.7-0.3,1-0.5c0.1-0.1,0.3-0.1,0.4-0.2c0,0,0,0,0,0c3-1.5,5.9-3,8.8-4.6c7.1-3.9,14-8,20.7-12.4
							c6.8-4.4,13.5-8.8,20.1-13.4c3.3-2.3,6.6-4.7,9.8-7.1c1.6-1.2,3.2-2.5,4.5-3.8c0.1-0.1,0.2-0.2,0.3-0.3l0,0
							c-0.1-0.4-0.2-0.9-0.4-1.4c-0.3-0.9-0.6-1.9-1-2.8c-5.4-15.2-11.5-30.1-17.3-45.2l-0.6-1.5c0,0,0,0,0,0l-0.2-0.4l-8-20.6
							c-2.9-7.5-5.8-15.1-8.6-22.6c3.3,7.4,6.4,14.8,9.6,22.2l8.7,21c0,0,0,0,0,0l0,0.1l0.2,0.5l0.1,0.3l0,0l0.2,0.5
							c0.5,1.3,1,2.5,1.6,3.8c0.4,0.9,0.8,1.9,1.2,2.8c1.1,2.8,2.3,5.7,3.4,8.5c0.2,0.6,0.5,1.2,0.7,1.8c0,0.1,0.1,0.2,0.1,0.4
							c0.7,1.7,1.4,3.4,2.1,5.2c0.4,1,0.8,2.1,1.2,3.1c0.1,0.4,0.3,0.8,0.5,1.3c0.2,0.4,0.3,0.8,0.5,1.2c0.1,0.2,0.2,0.5,0.3,0.7
							c0.1,0.2,0.1,0.3,0.2,0.5c0,0,0,0,0,0c0.1,0.3,0.2,0.5,0.3,0.8c0.1,0.3,0.2,0.5,0.3,0.8c0,0,0,0,0,0.1l0.9,2.2c0,0,0,0,0,0
							c0.1,0.2,0.1,0.3,0.2,0.5c0.7,1.7,1.3,3.4,2,5.1c0.1,0.2,0.1,0.3,0.2,0.5c0.5,1.4,1,2.7,1.5,4.1c0.1,0.3,0.2,0.6,0.3,1l0,0.1
							c0,0,0,0,0,0l0.1,0.2c0,0,0,0,0,0.1c0,0.1,0.1,0.2,0.1,0.3c0,0.1,0.1,0.2,0.1,0.2c0,0,0,0,0,0.1c0,0,0,0,0,0.1c0,0,0,0,0,0
							c0,0,0,0.1,0,0.1c0,0,0,0.1,0,0.1c0,0,0,0,0,0l0.1,0.4c0,0,0,0,0,0l0,0.1c0,0,0,0,0,0l0,0c0,0,0,0,0,0l0,0c0,0,0,0,0,0l0,0
							c0,0,0,0.1,0,0.1l0,0c0,0,0,0,0,0c0,0,0,0,0,0c0,0,0,0,0,0c0,0,0,0,0,0.1l0,0l0,0c0,0,0,0,0,0.1c0,0,0,0,0,0l0,0
							c0,0,0,0.1,0,0.1c0,0,0,0,0,0c0,0.1,0.1,0.2,0.1,0.4c0,0,0,0,0,0l0,0c0,0,0,0,0,0c0,0,0,0,0,0.1c0,0,0,0,0,0l0,0c0,0,0,0,0,0
							l0,0c0,0,0,0,0,0c0,0,0,0,0,0c0,0,0,0,0,0c0,0,0,0,0,0c0,0,0,0,0,0c0,0,0,0,0,0c0,0,0,0,0,0c0,0,0,0,0,0c0,0,0,0,0,0l0,0
							c0,0,0,0,0,0c0,0,0,0,0,0c0,0,0,0,0,0.1c0,0,0,0,0,0c0,0,0,0,0,0l0,0c0,0,0,0,0,0l0,0c0,0,0,0,0,0l0,0c0,0,0,0,0,0
							c0,0,0,0,0,0c0,0,0,0,0,0c0,0,0,0,0,0c0,0,0,0,0,0l0,0c0,0,0,0,0,0c0,0,0,0,0,0c0,0,0,0,0,0c0,0,0,0,0,0c0,0,0,0,0,0l0,0
							c0,0,0,0,0,0.1c0,0,0,0,0,0c0,0,0,0,0,0c0,0,0,0.1,0,0.1c0,0,0,0,0,0c0,0,0,0,0,0c0,0,0,0,0,0l0,0c0,0,0,0,0,0.1c0,0,0,0,0,0
							c0,0,0,0,0,0c0,0,0,0.1,0,0.1c0.1,0.2,0.1,0.4,0.2,0.6l0,0l0,0l0,0c0,0,0,0,0,0.1l0,0.1c0,0,0,0,0,0c0,0,0,0,0,0
							c0,0,0,0.1,0,0.1l0,0c0,0,0,0.1,0,0.1c0,0,0,0,0,0.1C353,374.4,353,374.4,353,374.5z"/>
					</g>
					<path class="st12" d="M324.7,160.4c-1-1-2.2-1.9-3.6-2.1c-0.7-0.1-1.3-0.1-1.9,0.1c-0.6,0.2-1.2,0.6-1.7,1l-0.8,0.6l0-1
						c-0.1-1.2,0-2.4,0.2-3.6c0.2-1.2,0.6-2.4,1.3-3.4c0.7-1,1.8-1.9,3.1-2.1c1.2-0.3,2.5,0.1,3.6,0.4c-0.6,0-1.2-0.2-1.7-0.1
						l-0.9,0.1c-0.3,0-0.5,0.1-0.8,0.2c-1.1,0.3-1.9,1.1-2.4,2c-0.6,0.9-0.9,2-1.1,3.1c-0.2,1.1-0.3,2.3-0.3,3.4l-0.8-0.3
						c0.6-0.5,1.3-0.9,2.1-1.1c0.8-0.2,1.6-0.2,2.4,0c0.7,0.2,1.4,0.6,2,1.1C323.9,159.2,324.4,159.8,324.7,160.4z"/>
					<g class="st13">
						<path class="st6" d="M385.3,388.2c-5.4,13-46.9,35.7-85,46.3c-2.7,0.8-5.3,1.4-8,2.1c-0.1,0-0.2,0.1-0.4,0.1c0,0,0,0-0.1,0
							c-0.2,0-0.3,0.1-0.5,0.1c0.1,0,0.1,0,0.2-0.1c0.1,0,0.2,0,0.2-0.1c2.4-0.8,5-1.8,7.6-2.9c0,0,0,0,0,0c0.3-0.1,0.7-0.3,1-0.4
							c4.2-1.8,8.7-4,13.2-6.3l1.3-0.7c0,0,0,0,0,0c1.6-0.9,3.2-1.7,4.9-2.6c0.9-0.5,1.7-1,2.6-1.4c2.9-1.6,5.7-3.3,8.5-5
							c0.7-0.4,1.4-0.8,2.1-1.3c0,0,0,0,0,0c3.9-2.4,7.7-4.9,11.4-7.4c0,0,0,0,0,0c1-0.7,2-1.4,2.9-2c4.9-3.4,9.3-6.8,13.2-9.9
							c0.1-0.1,0.3-0.2,0.4-0.4c0.2-0.1,0.3-0.3,0.5-0.4c1-0.8,1.9-1.6,2.8-2.4c0,0,0,0,0,0c0.5-0.4,0.9-0.8,1.3-1.2
							c0,0,0.1-0.1,0.1-0.1c1.5-1.4,2.9-2.7,4-3.9c0,0,0,0,0,0c1.2-1.2,2.1-2.4,2.9-3.4c0,0,0,0,0,0c0.1-0.1,0.2-0.3,0.3-0.4
							c0.1-0.1,0.2-0.3,0.3-0.4c0,0,0-0.1,0.1-0.1c0.3-0.6,0.6-1.3,0.9-2c0,0,0,0,0,0c0.5-1.5,0.8-3.2,1.1-5.2c0,0,0,0,0,0
							c0-0.3,0.1-0.6,0.1-0.9c2.3-22.5-8.5-73.1-8.5-73.1l0,0C378,335,389.9,377.1,385.3,388.2z"/>
						<g>
							<path class="st6" d="M291.9,436.7c-0.2,0-0.3,0.1-0.5,0.1c0,0,0,0-0.1,0c-0.1,0-0.3,0.1-0.4,0.1c0.2-0.1,0.4-0.1,0.7-0.2
								C291.6,436.7,291.8,436.7,291.9,436.7z"/>
							<path class="st6" d="M361.5,395.7c-0.2,0.2-0.3,0.4-0.5,0.5l0-0.1l0-0.2c-0.1,0.2-0.3,0.4-0.4,0.6c-0.9,1.2-2.6,2.6-3.8,3.8
								c-3.4,1-5.2,5-9.2,6.7l-0.2-0.5l-0.1-0.3c-1.9,1.6-3.2,1.9-5.2,3.3c-0.7,0.5-0.2,0.5-0.6,1c1-0.7,2-1.3,2.9-1.9c0,0,0,0,0,0
								c0.9-0.6,1.7-1,2.2-1.4c0,0.8-1.5,1.8-3.3,2.9c-1.8,1-3.8,2.2-4.9,3.4c-1,0.5-1-0.2-2.2,0.8c-0.4,1-2.2,1.6-3.5,2.4
								c0.4-0.3,0.6-0.6,0.8-0.8c0-0.1-0.3,0-0.7,0.2c0,0,0,0,0,0c-0.5,0.2-1.2,0.6-1.7,0.9c-0.1,0.1-0.3,0.3-0.4,0.4
								c-0.7,0.8-1.7,1.7-2.7,2.5c-1.3,0.9-2.7,1.7-4.1,2.1l-1.4,1.7c-1.8,0.5-3.8,1.7-5.3,2.4l0.3,0.3c-1,0-1.7,0.9-2.4,1.5
								c-0.3,0-0.4-0.1-0.6-0.2c-2.2,1-3.8,2.7-5.1,3.1c1.4-1.3-0.3,0,1.3-1.5c-1.2,1-2.6,0.9-3.4,1.9c-1.8,1-1.8,0.4-2.6,0.5
								c0.4,0.2,0,0.6-0.6,1c-0.6,0.4-1.3,0.8-1.3,1c-0.9,0.1-1.7,0.5-2.2,1c-0.1,0.1-0.2,0.1-0.2,0.2c-2.7,0.8-5.3,1.4-8,2.1
								c-0.1,0-0.2,0-0.4,0.1c0,0,0,0-0.1,0c-0.3,0-0.6,0.1-0.9,0.2c1.1-0.5,3.1-1.3,4.7-1.8c1.7-0.6,3-1.1,3.5-1.6
								c0,0.2-0.1,0.3-0.1,0.5c0.2,0,0.3-0.1,0.4-0.1c0,0,0,0,0,0c0.4-0.1,0.7-0.3,1-0.4c0.6-0.3,1.1-0.6,1.7-1c1-0.6,2-1.4,3.5-1.9
								c1.3-0.5-1,0.9,0.6,0.2c1.4-0.8,2.9-1.7,4.4-2.5c1.5-0.8,2.9-1.6,4.2-2.2c-0.3,0.4-0.7,0.8-1.2,1.1c-0.8,0.6-1.8,1.2-2.9,2
								c3-0.9-2,0.9-0.1,0.7c3-1.8,2.1-1.9,5.5-3.6c1.1-0.9-0.8,0-1.2,0.2c1.2-1.1,3-1.7,3-2.4c1.1-0.2,1.3-0.1,1.9-0.2
								c0.4-0.1,1-0.3,2.1-0.9c0.3-0.2,0.4-0.4,0.4-0.5c0.2-0.5-1-0.2,1.2-1.3c1.4-0.1,1.7-1.3,3.1-1.8c-0.2,0.2-0.8,0.5-0.7,0.6
								c3.5-1.7,0.5-0.5,3.6-1.8c-0.2-0.7,1.3-1.6,2.8-2.4c1.5-0.8,3-1.6,3.1-2.3c0,0.6,2.6-1.6,1.8-0.5c1.9-1.6,4.1-2.9,5.6-4.2
								c1.6-0.3,3.3-1.8,4.7-3.1c1.4-1.3,2.6-2.3,3.4-1.7c1.1-0.9,1.3-2,3-3.2c-0.1,0.3,0,0.6,0.7,0.1c1.8-1,2.2-2.7,4-4.2
								c1.6-1.1,1.6,0,3.2-1.9l0.2-0.5C363.8,393.1,362.4,394.7,361.5,395.7z"/>
							<path class="st6" d="M330.7,417.9l1.8-0.6l-0.4-0.2C331.7,417.5,331.2,417.8,330.7,417.9z"/>
							<path class="st6" d="M332.1,417.1c0.3-0.2,0.6-0.5,0.8-0.7C332.6,416.6,332.3,416.8,332.1,417.1L332.1,417.1z"/>
							<path class="st6" d="M362.3,395.6c0.3-0.2,1-0.7,1.5-1.2C363.3,394.6,362.5,395.2,362.3,395.6z"/>
							<polygon class="st6" points="363.7,394 362.9,394.5 362.9,394.7 							"/>
							<path class="st6" d="M373.6,346.1l-0.9-2.8c0.2-0.5-0.5-3.7,0.1-2.7c-0.8-1.6-0.8-5.3-1.5-3.9c1.5,8.3,2.3,19.8,3.3,29.4
								l-0.4-1.5c0.2,1.2,0.3,2.3,0.3,3.2c0,0.9-0.1,1.8-0.2,2.6c-0.1,1.6-0.2,3,0.3,5.1l-0.7-0.6c-0.2,1.1-0.1,2.2-0.1,3.3
								c0,0.6,0,1.1-0.2,1.6c-0.1,0.5-0.3,1.1-0.7,1.5l0.4-0.1c-0.2,0.6-0.4,0.7-0.6,1.3c0.1,0,0.1-0.1,0.2-0.2
								c-0.1,0.4-0.2,0.7-0.3,1c-0.1,0.2-0.1,0.3-0.2,0.4c-0.1,0.1-0.2,0.3-0.3,0.4c-0.4,0.5-0.9,1-1.4,1.6
								c-0.2-0.1,0.4-0.7,0.7-1.1c-0.6,0.4-1,1.8-1.9,2.7c-0.8,0.6-0.2-0.2-0.2-0.4c-0.6,0.7-1.2,1.3-1.7,1.9
								c-0.5,0.5-1.1,0.9-1.5,1.4c-0.9,0.8-1.7,1.7-2.4,3c-0.1,0.3,1-0.4,0,0.6c1.1-0.7,1.9-1.5,2.7-2.4c0.7-0.9,1.5-1.7,2.2-2.7
								l-0.4,0.5c0.3-1,0.5-1.2,1-1.5c0.4-0.3,1.1-0.5,1.8-1.8c-0.1,0.9-1.1,1.8-1.3,2.3c0.7-0.5,1.3-1,1.7-1.5c0.4-0.5,0.7-1,1-1.5
								c0.6-0.9,1-1.7,1.9-2.6l-0.1,0.3c0.1-0.2,0.2-0.6,0.3-1c0.1-0.4,0.2-0.8,0.2-1.2c-0.1,0.1-0.2,0.3-0.3,0.6
								c-0.1,0.3-0.3,0.5-0.4,0.8c0.2-0.8-0.1-1.3-0.3-1.6c0.6-0.7,0.1-1.1,0.5-2.4c0.5-0.4,0.2,1.2,0.3,1.8c0.1-0.6,0-1.1,0-1.7
								c0.2-1.5,0.7-1.4,1-2.2c-0.2-1.3-0.3,0.7-0.7-0.4c0.2-0.4,0.4-1.1,0.5-2.1c0.1-0.9,0.2-2.1,0.2-3.3c0-2.4-0.2-5-0.4-6.7
								c0.1,1.2,0.5,0.4,0.4,1.8c0.1-0.5-0.2-2.3-0.5-2.3c-0.4-2.3-0.4-5.3-0.3-7.5l-0.3,0.7c-0.7-1.8,0-4.6-0.7-7.8l0,0.1
								c-0.2-1-1.1-1.8-1.1-3.7C373.1,345.3,373.2,346.3,373.6,346.1z"/>
							<path class="st6" d="M371.4,335l0.6,1c-0.1-1.2-0.9-2.5-1.1-2.2c0.2,0.8,0.2,1.8,0.4,1.9C371.3,335.5,371.5,335.5,371.4,335z
								"/>
							<path class="st6" d="M367.7,313.6c-0.2-0.4-0.3-0.3-0.5-0.4c0.9,4.5,2,10,2,11.9c0.1,1.5,0.8,1.7,1.3,3.6l-0.3,0.9
								c0.5,1,0.4,4.2,1,3c0-0.1-0.5-0.8-0.5-1.8l0.3,0.1l-0.4-2l0.4,0.6c0-2.9-1.3-1.8-1.5-5.3l0.7-0.1c-0.3-2.3-0.8-3.4-0.7-5.5
								c0,0-0.3,0-0.1,0.4c0,0.4-0.1,0.9-0.4,0.7c-1.1-3.4,0.5,0.5,0.3-2c-1-2.9-2.4-8.4-2.2-10.1c-0.1,1.5-0.9-0.5-1.2-2.2
								c0.1-0.8,0.5,0.4,0.7,0.7c-0.1-0.8,0-1.4-0.3-2.2c-0.2,1.1-0.8,0.5-1.4-1.2C365.3,306.8,367.1,309.7,367.7,313.6z"/>
							<path class="st6" d="M366.9,312.6c0.1,0.4,0.2,0.6,0.3,0.6c-0.1-0.5-0.2-1.1-0.3-1.6L366.9,312.6z"/>
						</g>
					</g>
					<g class="st13">
						<path class="st6" d="M331.8,323.5C331.8,323.5,331.8,323.5,331.8,323.5C331.8,323.5,331.8,323.5,331.8,323.5L331.8,323.5z"/>
						<path class="st6" d="M351,374.3L351,374.3c-0.1,0.1-0.2,0.2-0.3,0.3c-1.4,1.3-3,2.5-4.5,3.8c-3.2,2.4-6.5,4.8-9.8,7.1
							c-6.6,4.6-13.3,9-20.1,13.4c-6.8,4.3-13.7,8.5-20.7,12.4c-2.9,1.6-5.8,3.2-8.8,4.6c0,0,0,0,0,0c-0.1,0.1-0.3,0.1-0.4,0.2
							c-0.3,0.2-0.7,0.3-1,0.5c0,0,0,0,0,0c-0.1,0.1-0.2,0.1-0.3,0.2c0.1-0.1,0.3-0.2,0.5-0.3l0,0c0.3-0.2,0.6-0.3,0.8-0.5
							c1.2-0.7,2.4-1.5,3.5-2.3c0,0,0.1-0.1,0.1-0.1c0.3-0.2,0.6-0.4,0.8-0.6c0,0,0,0,0,0c0.9-0.7,1.9-1.4,2.8-2.1c0,0,0,0,0,0
							c1-0.8,2-1.6,3-2.4l0,0c0.3-0.3,0.6-0.5,1-0.8c0.5-0.4,1-0.8,1.4-1.3c0,0,0.1-0.1,0.1-0.1c0,0,0,0,0,0
							c0.1-0.1,0.3-0.2,0.4-0.4c0.2-0.2,0.4-0.4,0.6-0.5c1.4-1.2,2.7-2.5,4-3.9c0.5-0.5,0.9-0.9,1.4-1.4c1.3-1.4,2.6-2.8,3.9-4.2
							c0.1,0,0.1-0.1,0.1-0.1c0.4-0.5,0.9-0.9,1.3-1.4c0.8-0.8,1.5-1.7,2.2-2.5c0,0,0.1,0,0.1-0.1c0.1-0.1,0.1-0.1,0.2-0.2
							c0,0,0,0,0,0c0.2-0.2,0.3-0.4,0.5-0.6c0,0,0,0,0,0c0.3-0.3,0.6-0.6,0.8-1l0,0c0,0,0.1-0.1,0.1-0.1c1.6-2,3.2-4,4.8-6
							c0.1-0.1,0.2-0.3,0.4-0.5c0.3-0.4,0.6-0.8,0.9-1.2c0.8-1.1,1.6-2.3,2.3-3.5c1-1.6,1.8-3.3,2.6-5.1c0.1-0.3,0.2-0.5,0.4-0.8
							c0,0,0,0,0,0c0.1-0.2,0.2-0.5,0.3-0.7c0,0,0,0,0,0c0.1-0.3,0.2-0.6,0.4-1c0.3-0.7,0.5-1.5,0.8-2.2c0.1-0.3,0.2-0.6,0.3-1
							c0.1-0.3,0.2-0.5,0.3-0.8c0,0,0,0,0,0c0.1-0.3,0.2-0.6,0.3-0.9c0,0,0,0,0,0c0.1-0.5,0.3-1,0.4-1.5c0.1-0.6,0.3-1.2,0.4-1.8
							c0,0,0,0,0,0c0.1-0.4,0.2-0.7,0.2-1.1c0.2-0.8,0.3-1.5,0.5-2.3c0-0.1,0-0.2,0.1-0.4c0,0,0,0,0,0c0.2-1.2,0.4-2.4,0.6-3.6
							c0.1-0.9,0.3-1.8,0.4-2.7c0,0,0,0,0,0c0-0.2,0-0.3,0.1-0.5c0,0,0,0,0,0c0,0,0,0,0,0c0.1-0.4,0.1-0.8,0.2-1.2l0,0
							c0.2-1.4,0.3-2.8,0.4-4.2l0,0c0-0.3,0.1-0.6,0.1-0.9c0.2-1.9,0.3-3.8,0.3-5.6c0,0,0,0,0,0c0-0.4,0-0.8,0-1.2l0-0.2
							c0-0.8,0.1-1.6,0-2.4c0-0.6,0-1.1,0-1.7l0-0.1c0-1,0-2,0-2.9c0-0.3,0-0.5,0-0.8l0-0.1c0-0.7,0-1.4-0.1-2c0-0.3,0-0.5,0-0.8
							l0,0c-0.1-2.9-0.3-4.7-0.3-4.9l0.6,1.5c5.8,15,11.9,30,17.3,45.2c0.3,0.9,0.7,1.9,1,2.8C350.7,373.4,350.9,373.9,351,374.3z"
							/>
						<g>
							<path class="st14" d="M332.2,332C332.2,332,332.2,332,332.2,332c-0.2,0.1-0.3-0.7-0.4,0.2c-0.1-0.5-0.1-1.4-0.3-1.5
								c0,0.8,0,1.1-0.2,1.2c0-0.5,0-2.3,0.3-1.6c-0.1-0.8-0.3-1.8-0.5-2.4c0.1-0.2,0.1-0.8,0.1-1.1c0.1,0.6,0.1,2.5,0.4,1.8
								c-0.1-1.4,0.1-2.5-0.1-3.9l-0.2,0.4c0-0.3,0-0.4,0-0.7c0-0.3-0.1-0.6-0.1-0.9c0-0.1,0-0.1,0-0.2c0,0,0-0.1,0.1-0.1
								c0,0,0.1,0,0.2,0l0.2,0.4l0,0c0,0,0,0,0,0c-0.1,0-0.1,0.1,0,0.3c0,1.3,0.2,3.2,0.3,4.6l0,0c0,0.2,0,0.5,0.1,0.7
								c0,0,0,0.1-0.1,0.1c0,0.1-0.1,0.1-0.1,0c0,0.9,0.1,1.4,0.2,2l0,0.1C332.2,331.5,332.2,331.7,332.2,332z"/>
							<path class="st14" d="M331.2,327.9c0-0.2-0.1-0.3-0.1-0.4C331.1,327.6,331.1,327.8,331.2,327.9
								C331.1,328,331.2,328,331.2,327.9z"/>
							<path class="st14" d="M331.3,331.9C331.3,331.9,331.3,331.9,331.3,331.9C331.3,332.1,331.3,332,331.3,331.9z"/>
							<path class="st14" d="M331.7,323.6c0,0.1,0,0.1,0,0.2c0,0.1,0,0.2,0,0.2L331.7,323.6z"/>
							<polygon class="st14" points="331.2,329.5 331.2,330.6 331.3,331 							"/>
							<path class="st14" d="M331.3,351.7c0.5-0.9,0.4-2.4,0.6-3.6c0-2.2-0.7-0.3-0.6-2.4l0.7,0.4c0.1-2.1,0.4-5-0.1-6.8
								c0.1-0.2,0.2-0.5,0.3,0c0-1.4-0.8-0.7-0.6-2.6c0.3,1.7,0.4-0.6,0.7-0.1l0,0.3c0-1.2-0.2-2.7-0.2-3.5c-0.1,0-0.4,0.6-0.4-0.4
								c0,0.4-0.2,0.3-0.3,0.2c0.1,1.1,0,1.7,0.2,2.3c-0.2,0.6,0-0.4-0.3,0.2l0.2,0.9c-0.1,0.6-0.2-0.7-0.3,0.3
								c0.1,0.1,0.2,0.9,0.2,1.7l-0.1-0.2c0.1,0.6-0.1,1.4,0.3,1.1l-0.4,0.7l0.2-0.1c-0.2,1.6-0.8,2.2-0.7,4.3
								c0.1-0.5,0.2,0,0.2,0.2c0.3-0.9-0.1-1.1-0.1-1.9c0.3-0.1,0.5,1.3,0.7,0.3c-0.4,1.1-0.1,2.1-0.8,2.5c-0.2,1.3,0.1,1.8-0.2,3.2
								l-0.1,0c0.4,0.3-0.3,1.1,0,2.1l0.2-0.7c0.2,0.1,0.2,0.4,0.1,0.9c-0.1-0.1-0.1-0.1-0.2,0.1c0.3,0.2,0.2,1.7,0.3,1.9
								c0.1-0.6-0.1-1.4,0-2.2C331.1,351.1,331.4,351.1,331.3,351.7z"/>
							<path class="st14" d="M331.2,338l0.1,0.4C331.3,338.3,331.3,338.1,331.2,338z"/>
							<path class="st14" d="M329.8,357.5c-0.2,0.8-0.3-0.3-0.6,0.5c0.1,0.9,0.7-0.9,1,0c-0.3,0.5-0.1,1.4-0.2,1.7
								c-0.2-0.4-0.7-0.3-0.8-0.2c0.1,0.3-0.3,1-0.5,1.5c0.6-1.3-0.1,1.2,0.6,0c0.3,0.2,0.2,1.5-0.1,1.9c-0.2-0.1-0.1-0.5,0-0.8
								c-0.4-0.4-0.4,0.8-0.9,0.9c0.3,1.4-0.9,5.4,0.4,4.6c0.3-0.4,0.2-0.8,0.3-1.3c-0.6,1.3-0.5-0.1-0.6-0.3
								c0.3-0.5,0.3-1.6,0.6-1.2c0,0.3,0.1,0.7,0.1,1c1-2.8,1.7-6.8,2.1-10.2l-0.3,1.4c-0.2-0.2-0.1-0.9-0.1-1.4l-0.7,0.6
								c0.1-0.4,0.1-0.8,0.3-0.7c-0.2-0.5-0.3-0.3-0.6-0.1c0.1-1.1,0.3-1.2,0.1-2.1c-0.8,1.7,0.2,1.6-0.6,3.5L329.8,357.5z"/>
							<polygon class="st14" points="330.1,353.6 330.3,354.1 330.3,353.4 							"/>
							<path class="st14" d="M331.3,354.4c-0.1,0-0.1-0.3-0.3-0.3C330.8,355,331,354.9,331.3,354.4z"/>
							<path class="st14" d="M327.9,364.2c-0.1,0.4-0.1,0.7-0.2,1.1c0.1-0.2,0.2-0.4,0.3-0.6C327.9,364.6,327.9,364.3,327.9,364.2z"
								/>
							<path class="st14" d="M327.3,372c0.5-1.5,0.4-2.2,1.2-3.7c-0.2-0.9-0.9,0.1-1.2-0.3c-0.4,0.8,0.4,0.9,0.2,1.8
								c-0.5,0.2-0.4,1.2-0.7,2C327,371.7,327.2,371.8,327.3,372z"/>
							<path class="st14" d="M323.8,376.2c-0.3,0.6-0.4,1.4-0.8,1.7c-0.2-0.2-0.1-0.6,0.2-0.9c-0.6,0-0.3,0.7-1,1.1
								c0.1,0,0.3-0.2,0.3,0c-0.5,0.7-0.6,1-0.7,1.3c-0.1,0.3-0.2,0.7-1.1,1.6c-0.1,0.4-0.3,0.7,0.1,0.8c-1.2,0.8-0.8,0.2-2.2,1.3
								c0.2,0.1,1,0,1.3,0.3c-2,1.4-1.4,1.9-2.7,2.8c0.1-0.1,0.1-0.4,0.4-0.7c-0.7-0.3-0.7,1.1-1.3,1.6l-0.4-0.4
								c-0.4,0.6-0.9,1.9-1.9,2.4l-0.1-0.4c-0.9,1.8-2.5,3.4-3.5,4.8l-0.9,0.4c-1.2,2,1.7-1.6,1.2,0.3c-1-0.5-0.5,1.1-1.7,1.8
								c-0.7,0.2,0.7-1.1-0.1-1c0.2,0.6-0.3,0.6-0.7,1.2c-0.3-0.5-1,1-1.2,0.3l-1,2.4c-0.5,0.1-0.9,0.6-1.3,1
								c0.9-0.9,0.3,0.8,1.5-0.1c1.3-1.7,3.7-4.5,5.6-6.4c-0.3-0.7,1.2-1.3,1-2c0.2,0.1,0.5,0.1,0.7,0.2c1-1.4-0.6,0.1-0.5-0.4
								c0.4-0.6,1.1-0.8,1.3-0.6c0.8-0.9-0.1-0.2,0-1l1.1-0.1c1.1-1.6,2.4-3.5,3.8-5.4c1.4-1.9,2.8-3.9,4.1-5.7l-0.6,0
								c0.6-0.8,0.8-1.7,1-2.5c0.2-0.8,0.5-1.5,1.3-2.1l-0.1-0.7c0.1,0.4,0.8,0,0.9,0.6c0.1-0.6,0.5-1,0.5-1.6l-0.6,0.8
								c-0.1-0.8,0.4-1.4,0.8-1.5c0.1-1.6-1,0.6-1.6,0.7c0,2.3-1.6,1.6-2.1,3.5C322.8,377.1,323.6,376,323.8,376.2z"/>
							<path class="st14" d="M326,374.4c0-0.1,0-0.2,0-0.3C326,374.2,326,374.3,326,374.4z"/>
							<path class="st14" d="M304.9,400.2c-0.1,0.1-0.2,0.2-0.4,0.4C304.5,400.9,304.6,400.6,304.9,400.2z"/>
							<path class="st14" d="M326.8,371.8C326.8,371.8,326.8,371.8,326.8,371.8C326.8,371.8,326.8,371.8,326.8,371.8
								C326.8,371.8,326.8,371.8,326.8,371.8z"/>
							<polygon class="st14" points="326.1,370.4 325.9,370.9 326.1,370.9 							"/>
							<path class="st14" d="M300.3,403.9l0.2,0.2C300.4,404,300.4,403.9,300.3,403.9z"/>
							<path class="st14" d="M287.8,413.8l0.3-0.2C288,413.6,287.9,413.7,287.8,413.8z"/>
							<polygon class="st14" points="280.1,418.9 280.1,418.9 279.9,418.5 							"/>
							<path class="st14" d="M283.2,417.5c-1,0.5-2.1,0.9-3.1,1.4l-0.1-0.1c0.3-0.2,0.6-0.3,0.1-0.4c-0.1,0.1-0.1,0.1-0.2,0.1l0-0.1
								c0.3-0.3,0.6-0.5,0.9-0.6c-0.7,0.9,0.2,0-0.6,1c0.6-0.6,1.4-0.4,1.8-1.1C282.8,417.2,282.9,417.5,283.2,417.5z"/>
							<path class="st14" d="M304.2,401.5c-1.2,2.3-4.2,4.3-6.5,6.3l-0.1-0.2l0-0.1c-0.6,0.3-0.8,0.6-0.9,0.9l0,0
								c-0.1,0.4-0.2,0.8-0.8,1.3l0-0.6c-0.4,0.8-1.8,1.6-2.5,2.4c0.2-0.3,0.3-0.5,0.3-0.7c0,0,0,0,0,0c0.2-0.5,0.2-1,1.2-1.5
								c-0.1-0.1-0.2-0.4-0.5-0.3c-0.7,0.7-1.7,1.8-1.3,2.2c-0.9,0.3-1.6,1.1-2.1,1.6c0,0,0,0,0,0c-0.3,0.4-0.6,0.6-0.8,0.6
								c-0.1,0-0.1,0-0.2-0.1c-0.1,0.1,0,0.2,0.1,0.2c0.1,0,0.2,0,0.3,0c-1,0.9-2.5,1.6-3.4,2.2c0,0,0,0,0,0
								c-0.1,0.1-0.3,0.1-0.4,0.2l0-0.2c0,0,0,0,0,0c-0.3,0.1-0.6,0.3-0.8,0.5l0,0c0,0-0.1,0.1-0.1,0.1c0,0,0,0,0,0
								c-0.1,0.1-0.2,0.1-0.3,0.2c-0.5,0.3-1.1,0.5-1.6,0.8c-0.4-0.3,0.8-1,0.9-1.3c1.2-0.2,1.6-1.4,2.7-2.1
								c-0.2,0.2-0.5,0.4-0.4,0.5c0.7-0.1,0.5-0.5,0.9-0.7c0,0,0,0.1,0,0.1l0.5-0.3c-0.1,0.1-0.2,0.3-0.3,0.3
								c0.1,0.2,0.8-0.1,1.2-0.5c-0.1-0.3,1.6-1.1,1.4-1.7c0.4,0.3,1.8-1.1,2-0.5c0.8-0.6,0.8-1.3,1.3-2c0.8-0.4,1-0.6,1.6-0.6
								c0.3-0.3,0.7-0.7,0.5-0.9l-0.8,0.5c1.1-1.3,2.2-1.1,3-2.7c-0.1,0.3,0.5-0.2,0.5,0.1c0.2-0.3,0.3-0.5,0.5-0.8
								c0.3,0.3-0.1,0.8,0.2,1.3c0,0,0,0,0,0c0,0,0.1-0.1,0.1-0.1c0,0,0,0,0,0c0.2-0.2,0.3-0.3,0.4-0.4c0.3-0.1,0.6,0,0.9-0.5
								c-0.2,0.1-0.3,0.1-0.3,0c-0.1-0.2,0.4-0.9,0.3-1.2l0.4,0.4c0.7-0.9,0.9-1.9,1.8-3.1C302.7,401.5,304,401.2,304.2,401.5
								C304.2,401.5,304.2,401.5,304.2,401.5z"/>
						</g>
					</g>
					<g>
						<path class="st9" d="M205.5,415c1.1,1.1,2.3,2.1,3.5,3.1c1.2,1,2.4,2,3.7,2.9c1.2,0.9,2.5,1.8,3.9,2.6c1.3,0.9,2.7,1.6,4,2.5
							c-1.5-0.5-3-1-4.4-1.8c-1.4-0.7-2.8-1.6-4.1-2.5c-1.3-0.9-2.5-2-3.6-3.1C207.3,417.6,206.3,416.4,205.5,415z"/>
					</g>
					<g>
						<path class="st9" d="M210.7,411.7c0.9,1.2,1.9,2.3,2.8,3.4c0.9,1.1,1.9,2.2,2.9,3.3c1,1.1,2,2.1,3.1,3.1
							c1.1,1,2.2,1.9,3.3,2.9c-1.3-0.6-2.6-1.3-3.8-2.3c-1.2-0.9-2.3-1.9-3.3-3C213.6,416.8,211.9,414.4,210.7,411.7z"/>
					</g>
					<g>
						<path class="st9" d="M232.5,429.3c2.2,0,4.4,0.2,6.6,0.3c2.2,0.2,4.3,0.4,6.6,0.7c-2.2,0.5-4.4,0.5-6.6,0.3
							C236.8,430.4,234.6,430,232.5,429.3z"/>
					</g>
					<g>
						<path class="st9" d="M230.6,432.9c2.4,0.2,4.8,0.5,7.1,0.8l3.5,0.4l3.6,0.4c-2.4,0.6-4.8,0.5-7.2,0.2
							c-1.2-0.2-2.4-0.4-3.6-0.7C232.9,433.7,231.7,433.4,230.6,432.9z"/>
					</g>
				</g>
			</g>
		</g>
	</g>
</g>
</svg>
