<?xml version="1.0" encoding="utf-8"?>
<!-- Generator: Adobe Illustrator 22.0.1, SVG Export Plug-In . SVG Version: 6.00 Build 0)  -->
<svg version="1.1" id="Capa_1" xmlns="http://www.w3.org/2000/svg" xmlns:xlink="http://www.w3.org/1999/xlink" x="0px" y="0px"
	 viewBox="0 0 672.9 623.5" style="enable-background:new 0 0 672.9 623.5;" xml:space="preserve">
<style type="text/css">
	.st0{fill:#FFFFFF;}
	.st1{opacity:0.5;}
	.st2{fill:#828343;}
	.st3{fill:#FF8F8F;}
	.st4{fill:#FDF57A;}
	.st5{fill:#FFB57D;}
	.st6{fill:#1E160E;}
	.st7{opacity:0.5;fill:#EDBF91;}
	.st8{fill:#56572D;}
	.st9{fill:#EDBF91;}
	.st10{fill:#FFDCB3;}
	.st11{opacity:0.2;}
	.st12{fill:none;stroke:#EDBF91;stroke-miterlimit:10;}
	.st13{opacity:0.1;}
	.st14{fill:#3A342E;}
</style>
<g>
	<g>
		<path class="st0" d="M607.9,169c66,207-86.7,423.5-86.7,423.5s-259.4,54-423-89c-163.7-143-68.4-252-56.2-265.9
			c12.2-13.9,86.4-90,227.3-29.1c0.1-153.5,99.5-191.2,117.1-196.9S541.9-38,607.9,169z"/>
	</g>
	<g>
		<g>
			<g>
				<g class="st1">
					<path class="st2" d="M141.7,532.6c1.6,1.8,3.4,3.4,5.2,4.9c1.8,1.6,3.7,3.1,5.6,4.5c3.8,2.8,7.9,5.3,12.1,7.6
						c8.4,4.4,17.4,7.6,26.7,9.4c4.6,0.9,9.3,1.4,14,1.6c4.7,0.2,9.4,0,14.1-0.5c9.5-1,19-1.9,28.6-2.3c4.8-0.2,9.6-0.3,14.4-0.2
						c4.8,0.1,9.6,0.4,14.4,1c4.8,0.6,9.5,1.4,14.2,2.6c1.2,0.3,2.3,0.6,3.5,0.9l3.5,1.1l3.4,1.2c1.1,0.4,2.2,0.9,3.3,1.4
						c4.4,1.9,8.7,4.2,12.7,6.9c4,2.7,7.8,5.7,11.3,9c3.5,3.3,6.7,6.9,9.7,10.6c3,3.7,5.6,7.7,8.2,11.8
						c-5.5-7.8-11.6-15.2-18.8-21.4c-3.6-3.1-7.3-6-11.4-8.5c-4-2.5-8.2-4.6-12.6-6.4c-8.7-3.6-18-5.6-27.4-6.7
						c-9.4-1-18.9-1.1-28.4-0.7c-9.5,0.4-19,1.3-28.5,2.1c-9.6,0.8-19.4,0.5-28.8-1.6c-9.4-2-18.5-5.5-26.9-10.3
						c-4.1-2.4-8.1-5.1-11.8-8.1C148.2,539.5,144.7,536.3,141.7,532.6z"/>
					<path class="st2" d="M182.6,500.9c4.6-12.2,39.9,15.1,39.9,15.1S178.1,512.6,182.6,500.9z"/>
					<path class="st2" d="M116.9,502.2c10.1-8.3,26.9,33.1,26.9,33.1S107.1,510.2,116.9,502.2z"/>
					<path class="st2" d="M170.3,528.5c10.1-8.3,26.9,33.1,26.9,33.1S160.5,536.4,170.3,528.5z"/>
					<path class="st2" d="M211.8,535.4c6.9-11.1,36.1,22.7,36.1,22.7S205.2,546.1,211.8,535.4z"/>
					<path class="st2" d="M239.3,501.6c12.7-3,9.7,41.5,9.7,41.5S227.1,504.4,239.3,501.6z"/>
					<path class="st2" d="M273.9,532.8c10.1-8.3,27.1,32.9,27.1,32.9S264.3,540.8,273.9,532.8z"/>
					<path class="st2" d="M212.1,601.9c-5.7-11.8,38.4-18.6,38.4-18.6S217.6,613.1,212.1,601.9z"/>
					<path class="st2" d="M231.3,570.9c0.8-13.1,42.6,2.6,42.6,2.6S230.5,583.4,231.3,570.9z"/>
					<path class="st2" d="M268.9,600.3c-9.7-8.8,28.7-31.6,28.7-31.6S278.2,608.7,268.9,600.3z"/>
					<path class="st2" d="M126.9,562c-2.7-12.8,41.7-8.6,41.7-8.6S129.5,574.3,126.9,562z"/>
					<path class="st2" d="M189,585.3c-8-10.4,33.8-25.9,33.8-25.9S196.6,595.3,189,585.3z"/>
					<path class="st2" d="M210.2,510.3c3.7,0.7,7.3,2.1,10.6,4.1c3.3,2,6.3,4.4,9,7c5.6,5.2,10.3,11.1,15.5,16.5
						c2.6,2.7,5.3,5.3,8.3,7.5c3,2.2,6.1,4.3,9.3,6.2c3.2,1.9,6.5,3.7,10,5.2c3.4,1.6,6.9,3,10.6,4c-3.7-0.6-7.4-1.7-10.9-3.1
						c-3.5-1.4-7-3-10.3-4.8c-3.4-1.8-6.5-3.9-9.7-6c-3.1-2.3-5.9-4.9-8.6-7.6c-2.6-2.8-5.1-5.6-7.6-8.4c-2.5-2.9-5-5.7-7.6-8.3
						c-1.3-1.3-2.7-2.6-4.1-3.9c-1.4-1.2-2.9-2.4-4.4-3.4C217.2,513,213.8,511.4,210.2,510.3z"/>
					<path class="st2" d="M242.5,587.3c5.7-3.5,11.6-6.6,17.7-9.4c6-2.9,12.2-5.4,18.6-7.5c3.2-1,6.5-1.9,9.9-2.3
						c3.4-0.4,6.8-0.4,10.2,0c3.4,0.4,6.7,1.1,9.9,2.1c3.2,1,6.3,2.3,9.2,4c-3.1-1.3-6.3-2.3-9.5-3c-3.2-0.8-6.5-1.3-9.8-1.5
						c-3.3-0.2-6.6-0.1-9.8,0.4c-3.2,0.4-6.4,1.3-9.5,2.3l-2.4,0.7l-2.3,0.8c-1.6,0.5-3.1,1.2-4.7,1.7c-3.1,1.2-6.2,2.4-9.2,3.7
						C254.7,581.9,248.6,584.6,242.5,587.3z"/>
				</g>
				<g>
					<path class="st3" d="M128.5,516.1c0,0,6.3,31.2-2.3,30.5C117.7,546,128.5,516.1,128.5,516.1z"/>
					<path class="st3" d="M128.5,516.1c0,0-10.2,30.1-17.2,25.3C104.2,536.6,128.5,516.1,128.5,516.1z"/>
					<path class="st3" d="M128.5,516.1c0,0-23.8,21-27.6,13.3S128.5,516.1,128.5,516.1z"/>
					<path class="st3" d="M128.5,516.1c0,0-31.2,6.3-30.5-2.3C98.6,505.3,128.5,516.1,128.5,516.1z"/>
					<path class="st3" d="M128.5,516.1c0,0-30.1-10.2-25.3-17.2C108,491.8,128.5,516.1,128.5,516.1z"/>
					<path class="st3" d="M128.5,516.1c0,0-21-23.8-13.3-27.6C122.9,484.8,128.5,516.1,128.5,516.1z"/>
					<path class="st3" d="M128.5,516.1c0,0-6.3-31.2,2.3-30.5C139.2,486.2,128.5,516.1,128.5,516.1z"/>
					<path class="st3" d="M128.5,516.1c0,0,10.2-30.1,17.2-25.3C152.7,495.6,128.5,516.1,128.5,516.1z"/>
					<path class="st3" d="M128.5,516.1c0,0,23.8-21,27.6-13.3C159.7,510.5,128.5,516.1,128.5,516.1z"/>
					<path class="st3" d="M128.5,516.1c0,0,31.2-6.3,30.5,2.3C158.4,526.9,128.5,516.1,128.5,516.1z"/>
					<path class="st3" d="M128.5,516.1c0,0,30.1,10.2,25.3,17.2C149,540.4,128.5,516.1,128.5,516.1z"/>
					<path class="st3" d="M128.5,516.1c0,0,21,23.8,13.3,27.6C134.1,547.4,128.5,516.1,128.5,516.1z"/>
					<path class="st4" d="M127.8,523.4c5.8,0.4,10.2-9.7,0.9-10.4C119.1,512.3,122.5,523,127.8,523.4z"/>
				</g>
				<path class="st3" d="M186.6,559.3c-3.7-4.8-22.4,0.3-24.1,5.1c-1.7,4.7,13.4-1.2,14.2-1.5c-0.8,0.4-19.9,11-15.6,16.4
					c4.3,5.4,19-10.6,19.6-11.3c-0.5,0.7-9.8,14.1-4.8,13.5C181,581,190.3,564.1,186.6,559.3z"/>
			</g>
			<g>
				<g class="st1">
					<path class="st2" d="M614.4,189.4c1.2,1.8,2.2,3.7,3.2,5.6c1,1.9,1.9,3.9,2.7,5.8c1.7,3.9,3,8,4,12.2
						c2.1,8.3,2.9,16.9,2.4,25.3c-0.2,4.2-0.8,8.5-1.7,12.6c-0.9,4.2-2,8.2-3.5,12.2c-2.9,8.1-5.7,16.2-8.2,24.5
						c-1.2,4.1-2.3,8.3-3.2,12.6c-0.9,4.2-1.7,8.5-2.3,12.8c-0.5,4.3-0.8,8.7-0.8,13c0,1.1,0,2.2,0.1,3.3l0.2,3.3l0.4,3.2
						c0.1,1.1,0.3,2.2,0.5,3.2c0.7,4.3,1.8,8.5,3.3,12.6c1.4,4.1,3.3,8,5.4,11.8c2.1,3.8,4.6,7.4,7.2,10.8c2.6,3.5,5.5,6.6,8.5,9.7
						c-5.6-6.5-10.8-13.4-14.7-21c-1.9-3.8-3.7-7.7-4.9-11.8c-1.3-4.1-2.3-8.2-2.9-12.4c-1.3-8.4-1-17,0.1-25.4
						c1.1-8.4,3.1-16.8,5.6-25c2.4-8.2,5.2-16.3,8-24.4c2.8-8.2,4.6-16.8,4.9-25.6c0.3-8.7-0.8-17.4-3.2-25.7
						c-1.2-4.2-2.7-8.2-4.6-12.1C619.1,196.7,617,192.9,614.4,189.4z"/>
					<path class="st2" d="M577.8,218.4c-11.7,1.4,4.6,38.1,4.6,38.1S589.1,217,577.8,218.4z"/>
					<path class="st2" d="M593.2,161.2c-9.4,7.1,23.1,30.7,23.1,30.7S602.3,154.4,593.2,161.2z"/>
					<path class="st2" d="M604.6,213.6c-9.4,7.1,23.1,30.7,23.1,30.7S613.7,206.8,604.6,213.6z"/>
					<path class="st2" d="M601.7,251.4c-11.2,3.7,12,36.5,12,36.5S612.5,247.9,601.7,251.4z"/>
					<path class="st2" d="M566.2,268.2c-5.4,10.5,34.2,17.5,34.2,17.5S571.3,258.1,566.2,268.2z"/>
					<path class="st2" d="M586,305.2c-9.5,7,22.9,30.8,22.9,30.8S595.1,298.4,586,305.2z"/>
					<path class="st2" d="M659.8,266c-9.1-7.5-24.6,29.5-24.6,29.5S668.5,273.3,659.8,266z"/>
					<path class="st2" d="M628.6,276.1c-11.6-2.1-6.9,37.8-6.9,37.8S639.7,278.2,628.6,276.1z"/>
					<path class="st2" d="M646.1,315.3c-5.6-10.4-33.8,18.2-33.8,18.2S651.5,325.3,646.1,315.3z"/>
					<path class="st2" d="M643.3,182.9c-10.6-5.1-16.6,34.7-16.6,34.7S653.5,187.8,643.3,182.9z"/>
					<path class="st2" d="M650.3,242.2c-7.4-9.2-30,24-30,24S657.4,251,650.3,242.2z"/>
					<path class="st2" d="M580.1,244.5c-0.2,3.4,0.2,6.9,1.3,10.2c1,3.3,2.5,6.4,4.2,9.4c3.4,6,7.5,11.4,11.1,17.2
						c1.8,2.9,3.4,5.8,4.8,8.9c1.3,3.1,2.4,6.3,3.4,9.5c1,3.2,1.8,6.5,2.4,9.8c0.6,3.3,1.1,6.7,1.2,10.1c0.3-3.4,0.1-6.8-0.3-10.2
						c-0.4-3.4-1.1-6.8-2-10.1c-0.8-3.3-2-6.6-3.2-9.8c-1.3-3.2-3-6.2-4.8-9.2c-1.8-2.9-3.8-5.7-5.7-8.5c-2-2.8-3.9-5.6-5.7-8.4
						c-0.9-1.4-1.7-2.9-2.5-4.4c-0.8-1.5-1.5-3-2.1-4.6C581,251.3,580.3,247.9,580.1,244.5z"/>
					<path class="st2" d="M640.5,289.5c-4.3,4.2-8.3,8.8-12.1,13.4c-3.8,4.7-7.4,9.5-10.6,14.7c-1.5,2.6-3.1,5.3-4.1,8.2
						c-1.1,2.9-1.8,5.9-2.2,8.9c-0.4,3-0.5,6.1-0.3,9.1c0.2,3,0.6,6,1.5,8.9c-0.4-3-0.6-6-0.6-8.9c0-3,0.3-5.9,0.8-8.9
						c0.5-2.9,1.3-5.8,2.4-8.5c1.1-2.7,2.6-5.3,4.1-7.8l1.2-1.9l1.2-1.9c0.8-1.3,1.7-2.5,2.5-3.7c1.7-2.5,3.5-4.9,5.2-7.3
						C633.1,299,636.8,294.2,640.5,289.5z"/>
				</g>
				<g>
					<path class="st5" d="M638.4,195.6c0,0,4.5-28.3-3.1-27.4C627.6,169.1,638.4,195.6,638.4,195.6z"/>
					<path class="st5" d="M638.4,195.6c0,0-10.2-26.7-16.4-22.2C615.8,178,638.4,195.6,638.4,195.6z"/>
					<path class="st5" d="M638.4,195.6c0,0-22.2-18.1-25.3-11C610,191.7,638.4,195.6,638.4,195.6z"/>
					<path class="st5" d="M638.4,195.6c0,0-28.3-4.5-27.4,3.1C611.8,206.4,638.4,195.6,638.4,195.6z"/>
					<path class="st5" d="M638.4,195.6c0,0-26.7,10.2-22.2,16.4C620.8,218.2,638.4,195.6,638.4,195.6z"/>
					<path class="st5" d="M638.4,195.6c0,0-18.1,22.2-11,25.3C634.4,224,638.4,195.6,638.4,195.6z"/>
					<path class="st5" d="M638.4,195.6c0,0-4.5,28.3,3.1,27.4C649.2,222.1,638.4,195.6,638.4,195.6z"/>
					<path class="st5" d="M638.4,195.6c0,0,10.2,26.7,16.4,22.2C661,213.2,638.4,195.6,638.4,195.6z"/>
					<path class="st5" d="M638.4,195.6c0,0,22.2,18.1,25.3,11C666.7,199.5,638.4,195.6,638.4,195.6z"/>
					<path class="st5" d="M638.4,195.6c0,0,28.3,4.5,27.4-3.1C664.9,184.8,638.4,195.6,638.4,195.6z"/>
					<path class="st5" d="M638.4,195.6c0,0,26.7-10.2,22.2-16.4C656,173,638.4,195.6,638.4,195.6z"/>
					<path class="st5" d="M638.4,195.6c0,0,18.1-22.2,11-25.3C642.3,167.2,638.4,195.6,638.4,195.6z"/>
					<path class="st4" d="M637.5,189.1c5.2-0.6,9.5,8.4,1.2,9.3C630.1,199.4,632.8,189.6,637.5,189.1z"/>
				</g>
				<path class="st5" d="M630.2,303.4c-3.2-7,25.2-19.8,27.2-15.5c2,4.3-17.6,12.6-17.6,12.6s12.9-5,14.2-2.2
					C655.2,301.1,633.7,311,630.2,303.4z"/>
			</g>
			<g>
				<g>
					<g>
						<path class="st6" d="M408.8,103.5c61.1,2.5,93,50.9,123.4,139.1c17.3,50.2,127.4,122.2,125.6,212.6
							c-1.5,76-49.8,142.3-218.7,149.8c-148.3,6.5-181.3-79.2-172.1-124c9.2-44.8,39.3-75.2,42.1-117.8
							c2.8-42.5-43.8-162.4,14.7-224.8C352.8,107.4,386.4,102.6,408.8,103.5z"/>
						<path class="st6" d="M570.4,297.1c20.3,16.1,38.7,34.5,54.8,54.8c8,10.2,15.3,20.9,21.7,32.3c6.3,11.3,11.6,23.3,15.1,35.8
							c7,25,5.7,52.4-4.1,76.5c-4.8,12.1-11.6,23.3-19.7,33.4c-4.1,5.1-8.4,9.8-13.1,14.3c-4.7,4.5-9.6,8.7-14.9,12.4
							c5.3-3.8,10.1-8.1,14.7-12.6c4.6-4.5,8.9-9.4,12.8-14.5c7.9-10.2,14.5-21.4,19.2-33.4c9.5-24,10.8-51,3.7-75.7
							c-3.5-12.4-8.6-24.3-14.9-35.6c-6.2-11.3-13.5-22-21.4-32.2c-7.9-10.2-16.4-19.9-25.4-29.2
							C589.8,314.2,580.4,305.3,570.4,297.1z"/>
						<path class="st6" d="M293.6,418.7c-3.1,4-6,8.1-8.8,12.2c-2.8,4.2-5.5,8.4-8,12.7c-5.1,8.7-9.6,17.6-13.1,27
							c-3.5,9.3-6.1,19.1-6.6,29.1c-0.6,10,1.5,20.1,6.3,28.9c-2.7-4.3-4.6-9-5.9-13.9c-1.3-4.9-1.7-10-1.5-15.1
							c0.2-10.2,2.9-20.1,6.3-29.6c3.7-9.4,8.2-18.5,13.5-27.1C281.2,434.5,287,426.3,293.6,418.7z"/>
					</g>
				</g>
				<path class="st7" d="M337.1,267.4c0,2-0.6,3.8-1.6,5.3c-2.7-4.8-5.5-10.1-8.2-15.9C332.8,257.1,337.2,261.8,337.1,267.4z"/>
				<g>
					<g>
						<path class="st2" d="M322,592.9c-2.1-5.8-3.9-11.7-5.5-17.7c-1.6-6-3-12-4-18.1c-2.2-12.1-3.5-24.5-3.1-36.9
							c0.2-6.2,0.8-12.4,2-18.5c1.2-6.1,3.1-12,5.2-17.8c4.2-11.6,9.1-23,13.8-34.4c9.4-22.7,18.2-45.8,23.9-69.8
							c5.7-23.9,8.3-48.7,6.2-73.3c1.2,12.3,1.4,24.6,0.5,37c-0.9,12.3-2.9,24.5-5.7,36.6c-5.4,24.1-14.2,47.3-23.6,70.1
							c-4.7,11.4-9.5,22.8-13.7,34.3c-2.1,5.8-4,11.6-5.2,17.6c-1.2,6-1.8,12.1-2.1,18.2c-0.4,12.3,0.6,24.6,2.6,36.7
							C315.4,569.1,318.1,581.2,322,592.9z"/>
						<path class="st2" d="M351,392.5c0,0,7.7-20.4,12.5-16.8C368.3,379.3,351,392.5,351,392.5z"/>
						<path class="st2" d="M331.8,449.2c0,0,9.4-19.7,13.9-15.7C350.2,437.4,331.8,449.2,331.8,449.2z"/>
						<path class="st2" d="M315.1,488.6c0,0,9.4-19.7,13.9-15.7C333.5,476.9,315.1,488.6,315.1,488.6z"/>
						<path class="st2" d="M311.1,541.3c0,0,3.3-21.5,8.8-19C325.3,524.8,311.1,541.3,311.1,541.3z"/>
						<path class="st2" d="M358.3,362.6c0,0-12.4-17.9-6.8-19.8C357.1,340.8,358.3,362.6,358.3,362.6z"/>
						<path class="st2" d="M344.4,417.5c0,0-10.2-19.3-4.3-20.5C345.9,395.8,344.4,417.5,344.4,417.5z"/>
						<path class="st2" d="M324,467.8c0,0-7.6-20.4-1.7-20.9C328.3,446.5,324,467.8,324,467.8z"/>
						<path class="st2" d="M309.5,520.1c0,0-10.3-19.2-4.5-20.5C310.9,498.3,309.5,520.1,309.5,520.1z"/>
						<path class="st3" d="M362.6,338.4c-9.2,0.3-9.9-37.3-4.3-37.5c5.7-0.2,5.6,25.5,5.6,25.5s0.6-16.6,4.3-16.7
							C371.9,309.6,372.6,338.1,362.6,338.4z"/>
					</g>
					<g>
						<path class="st2" d="M597.3,404.8c5.4,13.8,8.8,28.3,11.2,42.8c2.4,14.6,3.4,29.4,3.3,44.2c0,7.4-0.5,14.8-1.2,22.2
							c-0.9,7.4-2.7,14.7-5.3,21.6c-5.2,13.9-12.9,26.9-22.5,38.1c4.6-5.8,8.6-12,12.2-18.4c3.6-6.4,6.7-13.1,9.1-20.1
							c2.4-6.9,4.2-14.1,5-21.4c0.7-7.3,1-14.7,1.1-22c0.2-14.7-0.9-29.5-2.9-44c-1-7.3-2.4-14.5-4-21.7
							C601.7,418.9,599.8,411.7,597.3,404.8z"/>
						<path class="st2" d="M606.1,438.9c0,0-18.2-14.2-13.1-17.9C598.2,417.2,606.1,438.9,606.1,438.9z"/>
						<path class="st2" d="M611,495.7c0,0-18.2-14.2-13.1-17.9C603.1,474.1,611,495.7,611,495.7z"/>
						<path class="st2" d="M598.8,549.7c0,0-9.1-21.2-2.8-22C602.3,526.8,598.8,549.7,598.8,549.7z"/>
						<path class="st2" d="M610.1,463.1c0,0,0.8-23.1,6.8-21.1C622.9,443.9,610.1,463.1,610.1,463.1z"/>
						<path class="st2" d="M608.8,523.5c0,0,6.2-22.2,11.6-18.9C625.9,507.9,608.8,523.5,608.8,523.5z"/>
						<g>
							<path class="st5" d="M596.8,404.1c0,0,5.1-16.8,0.3-16.9C592.4,387.1,596.8,404.1,596.8,404.1z"/>
							<path class="st5" d="M596.8,404.1c0,0-4-17.1-8.2-14.8C584.5,391.5,596.8,404.1,596.8,404.1z"/>
							<path class="st5" d="M596.8,404.1c0,0-12.1-12.8-14.5-8.8C579.9,399.4,596.8,404.1,596.8,404.1z"/>
							<path class="st5" d="M596.8,404.1c0,0-16.8-5.1-16.9-0.3C579.8,408.5,596.8,404.1,596.8,404.1z"/>
							<path class="st5" d="M596.8,404.1c0,0-17.1,4-14.8,8.2C584.3,416.4,596.8,404.1,596.8,404.1z"/>
							<path class="st5" d="M596.8,404.1c0,0-12.8,12.1-8.8,14.5C592.1,421,596.8,404.1,596.8,404.1z"/>
							<path class="st5" d="M596.8,404.1c0,0-5.1,16.8-0.3,16.9C601.2,421.1,596.8,404.1,596.8,404.1z"/>
							<path class="st5" d="M596.8,404.1c0,0,4,17.1,8.2,14.8C609.2,416.6,596.8,404.1,596.8,404.1z"/>
							<path class="st5" d="M596.8,404.1c0,0,12.1,12.8,14.5,8.8C613.8,408.8,596.8,404.1,596.8,404.1z"/>
							<path class="st5" d="M596.8,404.1c0,0,16.8,5.1,16.9,0.3C613.9,399.7,596.8,404.1,596.8,404.1z"/>
							<path class="st5" d="M596.8,404.1c0,0,17.1-4,14.8-8.2C609.4,391.8,596.8,404.1,596.8,404.1z"/>
							<path class="st5" d="M596.8,404.1c0,0,12.8-12.1,8.8-14.5C601.5,387.1,596.8,404.1,596.8,404.1z"/>
							<path class="st4" d="M596.8,400c3.2,0.1,5.1,5.9,0,5.8C591.5,405.7,593.9,400,596.8,400z"/>
						</g>
					</g>
					<g>
						<g>
							<path class="st2" d="M491.2,288.1c5.6,13.7,11,27.6,16.3,41.5c5.2,13.9,10.2,27.9,15,42c4.8,14.1,9.3,28.2,13.5,42.5
								c4.2,14.3,8.1,28.6,11.2,43.2c1.6,7.3,2.9,14.6,3.8,22c1,7.4,1.5,14.9,1.3,22.3c-0.4,14.9-2.8,29.9-8.6,43.7
								c-2.9,6.9-6.6,13.4-11,19.5c-4.4,6-9.6,11.4-15.4,16.2c-11.5,9.5-25.1,16.1-39.2,20.8c14-4.9,27.4-11.8,38.7-21.5
								c5.6-4.8,10.7-10.2,15-16.2c4.3-6,7.9-12.5,10.7-19.3c5.5-13.7,7.9-28.5,8.2-43.3c0.2-7.4-0.3-14.8-1.4-22.1
								c-1-7.3-2.3-14.6-3.9-21.9c-6.2-29-15-57.4-24.2-85.6c-4.6-14.1-9.5-28.1-14.5-42.1C501.7,315.9,496.5,301.9,491.2,288.1z"/>
							<path class="st2" d="M511.2,341.3c0,0-23.1-10.1-18.7-15.4C497,320.5,511.2,341.3,511.2,341.3z"/>
							<path class="st2" d="M526.4,386.1c0,0-23.1-10.1-18.7-15.4C512.1,365.4,526.4,386.1,526.4,386.1z"/>
							<path class="st2" d="M539.8,432.5c0,0-23.1-10.1-18.7-15.4C525.5,411.7,539.8,432.5,539.8,432.5z"/>
							<path class="st2" d="M551.6,490c0,0-21.2-13.6-16-18.2C540.8,467.2,551.6,490,551.6,490z"/>
							<path class="st2" d="M503,319c0,0-2.7-25.1,4.1-23.9C513.9,296.3,503,319,503,319z"/>
							<path class="st2" d="M519.2,363.2c0,0-2.7-25.1,4.1-23.9C530.1,340.5,519.2,363.2,519.2,363.2z"/>
							<path class="st2" d="M534,408.9c0,0-2.7-25.1,4.1-23.9C544.9,386.2,534,408.9,534,408.9z"/>
							<path class="st2" d="M550.1,520.2c0,0,7.2-24.1,13.1-20.4C569,503.5,550.1,520.2,550.1,520.2z"/>
							<path class="st2" d="M546.9,458.6c0,0,1.7-25.2,8.2-22.8C561.7,438.2,546.9,458.6,546.9,458.6z"/>
						</g>
						<path class="st5" d="M497.2,306.9c-7.7,2.1-23.3-17.7-21.4-24.2c1.9-6.3,13.2,11.7,13.8,12.7c-0.5-1.1-12.3-27.1-3.6-29.4
							c8.7-2.4,11.7,26,11.8,27.2c0-1.2,0.7-22.4,5.5-17.9C508.3,279.8,504.9,304.8,497.2,306.9z"/>
					</g>
					<g>
						<g>
							<path class="st8" d="M560.2,387.1c3.6,8.9,6.6,18,9.5,27.1c2.8,9.2,5.2,18.4,7.4,27.8c1,4.7,2.1,9.4,2.8,14.1l1.2,7.1l1,7.1
								l0.5,3.6l0.3,3.6l0.6,7.2c0.2,2.4,0.2,4.8,0.3,7.2c0.1,2.4,0.2,4.8,0.1,7.2l-0.2,7.2c0,1.2-0.2,2.4-0.3,3.6l-0.4,3.6
								c-0.3,2.4-0.4,4.8-1,7.2c-0.5,2.4-0.8,4.8-1.5,7.1c-2.3,9.4-5.8,18.4-10.9,26.7c-2.5,4.2-5.4,8-8.4,11.7
								c-3.2,3.6-6.5,7.1-10.2,10.2c-7.2,6.4-15.3,11.6-23.6,16.4c8.1-5,16.1-10.5,23.1-17c3.6-3.2,6.8-6.7,9.9-10.3
								c3-3.7,5.8-7.6,8.2-11.7c4.8-8.2,8.4-17.1,10.5-26.4c0.7-2.3,0.9-4.7,1.4-7c0.5-2.3,0.6-4.7,0.9-7.1l0.4-3.5
								c0.1-1.2,0.3-2.4,0.3-3.6l0.2-7.1c0.1-2.4,0-4.8-0.1-7.1c-0.1-2.4-0.1-4.8-0.3-7.1l-0.6-7.1l-0.3-3.6l-0.5-3.6l-0.9-7.1
								l-1.2-7.1c-0.4-2.4-0.8-4.7-1.3-7l-1.4-7C571.8,423.6,566.6,405.1,560.2,387.1z"/>
							<path class="st8" d="M576.7,443.6c-6.2-9.1,7.3-20.5,7.3-20.5S587.2,440.4,576.7,443.6z"/>
							<path class="st8" d="M584,497.2c-4.9-9.8,10-19.3,10-19.3S594.8,495.6,584,497.2z"/>
							<path class="st8" d="M570.4,553c1.3-10.9,19-10.7,19-10.7S580.4,557.5,570.4,553z"/>
							<path class="st8" d="M570.7,421.5c-10.7,2.5-16.5-14.2-16.5-14.2S571.6,410.6,570.7,421.5z"/>
							<path class="st8" d="M580.9,467.5c-10.7,2.5-16.5-14.2-16.5-14.2S581.9,456.5,580.9,467.5z"/>
							<path class="st8" d="M580.4,526.7c-10.9-0.9-11.4-18.6-11.4-18.6S584.6,516.5,580.4,526.7z"/>
						</g>
						<path class="st3" d="M563.6,394c-9.5,2.4-18.9-36.3-13.1-37.8c5.8-1.5,11.6,25,11.6,25s-3.2-17.3,0.6-18.3
							C566.6,362.1,573.9,391.4,563.6,394z"/>
					</g>
					<g>
						<g>
							<path class="st8" d="M577.3,326.2c13.6,14.9,25.5,31.3,35.8,48.7c5.2,8.7,9.7,17.7,13.7,27c4,9.3,7.2,18.9,9.5,28.8
								c1.1,5,2,10,2.4,15c0.3,2.5,0.4,5.1,0.5,7.6c0.1,2.5,0.3,5.1,0.2,7.6l-0.1,7.6c-0.1,2.5-0.3,5-0.4,7.6
								c-0.1,2.5-0.4,5-0.7,7.6l-0.4,3.8c-0.2,1.3-0.4,2.5-0.6,3.7c-3,20-8.6,39.6-17.2,57.8c4.1-9.2,7.3-18.8,9.9-28.5
								c2.7-9.7,4.7-19.6,6-29.5c1.2-10,2.1-20,1.9-30c0.1-2.5-0.2-5-0.3-7.5c-0.1-2.5-0.2-5-0.5-7.5c-0.5-5-1.4-9.9-2.5-14.8
								c-4.4-19.6-12.8-38.1-22.7-55.6c-5-8.7-10.4-17.2-16.2-25.4C590,341.8,583.8,333.8,577.3,326.2z"/>
							<path class="st8" d="M618.1,384.4c-9-6.8,0.4-22.4,0.4-22.4S627.3,377.9,618.1,384.4z"/>
							<path class="st8" d="M635.9,428.7c-6.4-9.3,7.5-21.1,7.5-21.1S646.7,425.4,635.9,428.7z"/>
							<path class="st8" d="M639,476.3c-5.7-9.8,8.9-20.6,8.9-20.6S650,473.9,639,476.3z"/>
							<path class="st8" d="M595.3,348.2c-9-6.8,0.4-22.4,0.4-22.4S604.6,341.7,595.3,348.2z"/>
							<path class="st8" d="M625.7,403c-10,5.3-20.1-9.9-20.1-9.9S623.8,391.8,625.7,403z"/>
							<path class="st8" d="M637.6,451.5c-11.3,0.8-14.5-17.1-14.5-17.1S640.2,440.5,637.6,451.5z"/>
							<path class="st8" d="M635.4,495.1c-11.3-0.8-11.8-19.1-11.8-19.1S639.7,484.6,635.4,495.1z"/>
							<path class="st8" d="M605.5,364.4c-10,5.3-20.1-9.9-20.1-9.9S603.6,353.2,605.5,364.4z"/>
						</g>
						<g>
							<path class="st3" d="M559.7,316.9c0,0-9.5,23.9-0.2,27.8C567.3,347.9,559.7,316.9,559.7,316.9z"/>
							<path class="st3" d="M561.6,314.6c0,0,22-13.4,27.4-4.9C593.5,316.8,561.6,314.6,561.6,314.6z"/>
							<path class="st3" d="M560.2,316.3c0,0,4.9,30.7,17.3,33.2C589.9,351.9,560.2,316.3,560.2,316.3z"/>
							<path class="st3" d="M561.1,315.2c0,0,31.1-0.3,35.6,11.5S561.1,315.2,561.1,315.2z"/>
							<path class="st3" d="M560.6,315.8c0,0,25.7,33.2,31.4,26.5C597.7,335.5,560.6,315.8,560.6,315.8z"/>
							<path class="st4" d="M556.1,312.1c3.6-4.3,16.8,1.5,10.5,8.9C560.3,328.4,553.1,315.6,556.1,312.1z"/>
						</g>
					</g>
					<g>
						<g>
							<path class="st8" d="M325.6,352.3c-3.1-10.3,12.9-17,12.9-17S336.4,352.5,325.6,352.3z"/>
							<path class="st8" d="M309.5,409.9c1.7-10.6,19.1-9.7,19.1-9.7S319.1,414.8,309.5,409.9z"/>
							<path class="st8" d="M285.9,461.7C287.7,451,305,452,305,452S295.6,466.5,285.9,461.7z"/>
							<path class="st8" d="M320,382.7c-10.4-2.7-7.9-19.9-7.9-19.9S325.7,373.6,320,382.7z"/>
							<path class="st8" d="M297.9,431.7c-10.4-2.7-7.9-19.9-7.9-19.9S303.7,422.6,297.9,431.7z"/>
							<path class="st8" d="M280.1,502.8c-10.4-2.7-7.9-19.9-7.9-19.9S285.8,493.7,280.1,502.8z"/>
							<path class="st8" d="M292.8,561.8c-8.3-19-12.9-39.7-13.3-60.5c-0.2-10.4,0.9-20.9,3.3-31c2.6-10.1,6.4-19.8,10.6-29.4
								c4.2-9.5,9.1-18.7,13.6-28c4.6-9.3,8.6-18.8,11.7-28.7c0.7-2.5,1.6-4.9,2.1-7.4l1.8-7.5c0.9-5.1,2-10.2,2.6-15.3
								c0.8-5.1,1.2-10.3,1.7-15.4c0.4-5.2,0.6-10.4,0.9-15.5c-0.2,5.2-0.2,10.4-0.5,15.6c-0.4,5.2-0.6,10.4-1.3,15.5
								c-0.5,5.2-1.5,10.3-2.4,15.4l-1.7,7.6c-0.5,2.6-1.4,5-2.1,7.5c-2.9,10-7,19.6-11.5,29c-4.5,9.4-9.3,18.6-13.5,28
								c-4.2,9.4-8,19.1-10.7,29.1c-2.4,10-3.4,20.4-3.4,30.7c0,10.3,1.2,20.7,3.3,30.8C286,542.2,288.8,552.2,292.8,561.8z"/>
						</g>
						<g>
							<path class="st5" d="M326.8,325.3c0,0-24.3,5.6-22.3,15.1C306.2,348.5,326.8,325.3,326.8,325.3z"/>
							<path class="st5" d="M329.7,325.6c0,0,22.8,10.2,19,19.2C345.5,352.3,329.7,325.6,329.7,325.6z"/>
							<path class="st5" d="M327.6,325.4c0,0-21.8,20.9-17,32.1C315.5,368.7,327.6,325.4,327.6,325.4z"/>
							<path class="st5" d="M328.9,325.5c0,0,17.4,24.7,10.5,34.8C332.5,370.4,328.9,325.5,328.9,325.5z"/>
							<path class="st5" d="M328.2,325.4c0,0-12.4,38.9-3.9,39.7C332.9,365.9,328.2,325.4,328.2,325.4z"/>
							<path class="st4" d="M328.6,319.8c5.4,0.5,8.1,14.2-1.3,13.3C317.9,332.2,324.2,319.4,328.6,319.8z"/>
						</g>
					</g>
				</g>
				<path class="st9" d="M452.4,228.3c-0.1-1.1-0.3-2.1-0.7-3c-0.4-0.9-1.1-1.7-2-2.1c-0.9-0.4-1.9-0.5-2.9-0.4
					c-0.5,0.1-1,0.2-1.5,0.3l-1.5,0.5l-1,0.3l0.1-1c0.2-2.2,0.7-4.3,1.4-6.3c0.7-2,1.8-4.1,3.5-5.6c1.7-1.5,4.2-2.2,6.4-1.6
					c1.1,0.3,2.1,0.8,2.9,1.6c0.8,0.7,1.5,1.7,1.6,2.7c-0.7-2-2.8-3.1-4.7-3.5c-2-0.4-3.9,0.5-5.3,1.7c-1.4,1.4-2.3,3.2-3,5.1
					c-0.7,1.9-1.1,3.9-1.4,5.9l-0.9-0.7l1.6-0.4c0.6-0.1,1.1-0.2,1.7-0.2c1.1,0,2.3,0.1,3.4,0.7c1,0.6,1.7,1.6,2,2.7
					C452.4,226.2,452.5,227.3,452.4,228.3z"/>
				<g>
					<path class="st10" d="M541.2,546.9c-9.2,22.4-127.8,68.8-169.1,73.5c0,0-34,5.7-55.3-9.1c-3.3-2.3-1.9-4.8,12.4,0.3
						c-1.8-0.5-15.9-5.3-15.2-8.1c0.6-2.4,11.5,1.3,16,2.6c-4-1.3-13-4.3-12.9-6c0.2-2.2,3.8-1.7,3.8-1.7s0,0-0.1,0
						c-0.5-0.2-3.8-1.6-5.3-2.4c0,0,0.7,2.4-1,2.6c-1.7,0.2-7.6-3.7-12.5-9.2c0.5,0.7,3,3.6,5.9,6c3,2.4,6.5,4.3,6.1,5.1
						c-1.3,2.2-9.7-1.3-17.1-7.4c1.5,1.4,2.7,2.7,6.6,4.7c2.3,1.2,7.5,3,7.2,4.3c-0.8,2.6-26.4-2.2-35.3-35.7
						c-7.1-26.4,13.1-51.8,13.1-51.8s0.1-1.5,0.4-4.1c1.4-9.6,7.1-34.5,29.2-52c0,0,10.2-66.5,36.8-93.2
						c13.9-13.9,39.6-30.5,48-40.5c0,0,0-0.1,0-0.1c0.7-0.9,1.3-1.7,1.8-2.5c1.6-2.8,2.3-6.9,2.5-11.2c0-0.3,0-0.6,0-0.9
						c0,0,0,0,0-0.1c0,0,0,0,0,0c0-0.2,0-0.4,0-0.6l0-0.2c0-0.2,0-0.3,0-0.5c0,0,0-0.1,0-0.1c0-0.2,0-0.4,0-0.6
						c0-9.5-1.9-19.2-1.9-19.2l0,0c-1.2,0.4-42.8,15.4-56.8,1.8c-3.6-3.5-8.2-9.8-12.9-18c-2.7-4.8-5.5-10.1-8.2-15.9
						c-11.1-24.1-19.8-55.5-13.5-79.1c10.4-39,36.6-55.2,73.3-56.3c35.2-1.1,69.8,27.9,62.9,80.5c0,0,12.9-1.4,14.4,11.9
						c1.4,11.7-6.3,21.9-16.1,20.4c0,0,4,58.7,6.7,82.1c0.1,0.8,0.3,1.7,0.7,2.7c4.6,12.5,29.7,33.5,38.9,52.3
						C504.7,391.6,551.3,522.6,541.2,546.9z"/>
					<path class="st6" d="M338,157.9c0.8-3.7,17,29.2,52.9,43.6c20.7,8.3,34.6,7.1,38.5,9.8c4,2.7,5,9.8,7.7,9.7
						c2.7-0.1-1.6-16.5,12.9-19c14.5-2.5,3.5-99.5-75.9-85.6c-57.7,10.1-72.4,54.9-60.9,104.8C313.2,221.2,328.4,203.1,338,157.9z"
						/>
					<path class="st6" d="M373.9,232.1c2,2.5,4.2,4.7,6.7,6.2c2.5,1.6,5.4,2.2,7.9,1.4c2.5-0.7,4.5-3,5.9-5.5
						c1.5-2.5,2.6-5.4,3.4-8.3l0.3-0.9l0.7,0.1c1.3,0.2,2.6,0.3,4,0.3c1.3,0,2.7-0.1,4-0.7c-1,0.9-2.5,1.4-3.8,1.8
						c-1.4,0.3-2.8,0.5-4.3,0.5l1-0.8c-0.4,3.3-1.3,6.4-2.8,9.4c-0.8,1.5-1.8,2.9-3,4.1c-1.2,1.3-2.9,2.2-4.6,2.7
						c-3.6,1-7.3-0.3-9.9-2.5C376.9,237.8,375.1,235.1,373.9,232.1z"/>
					<path class="st6" d="M338.5,242c0.6,2.3,0.8,4.7,0.5,7.1c-0.2,1.2-0.5,2.5-1.2,3.6c-0.7,1.2-1.7,2.3-3.1,2.9
						c-1.4,0.6-3,0.6-4.3,0.2c-1.3-0.4-2.5-1.1-3.4-1.9c-1.9-1.6-3.4-3.5-4.6-5.7l1.6-0.1c-0.4,0.6-0.8,1-1.3,1.4
						c-0.5,0.4-1,0.7-1.5,0.9c-1.1,0.4-2.3,0.5-3.3,0.3c1.1-0.2,2.1-0.6,2.8-1.2c0.4-0.3,0.7-0.6,1-1c0.3-0.4,0.6-0.8,0.7-1.1
						l0.5-1.3l1.1,1.2c1.4,1.6,3,3.3,4.7,4.4c1.7,1.2,3.5,1.9,5,1.3c1.5-0.5,2.7-2.3,3.4-4.3C337.7,246.6,338.1,244.3,338.5,242z"/>
					<path class="st6" d="M370.8,264.9c1.9,0.5,3.8,0.8,5.6,0.8c1.9,0,3.7-0.3,5.3-1c0.4-0.1,0.8-0.4,1.2-0.6
						c0.4-0.2,0.8-0.4,1.2-0.7l1.1-0.8c0.3-0.3,0.7-0.6,1-0.9c0.4-0.3,0.7-0.6,1-1l0.9-1.1c0.6-0.7,1.1-1.6,1.7-2.3
						c-0.3,0.9-0.7,1.8-1.1,2.7c-0.5,0.8-0.9,1.7-1.6,2.5c-1.2,1.6-2.9,2.8-4.8,3.6c-1.9,0.8-4,1-6,0.8
						C374.4,266.6,372.4,266,370.8,264.9z"/>
					<path class="st6" d="M313,231.5c2.3,3,20.9-9.7,17.8-13.6C327.9,213.9,309.2,226.6,313,231.5z"/>
					<path class="st6" d="M372.1,207.2c-0.3,4.6,26.5,7.9,26.9,2C399.5,203.3,372.7,199.8,372.1,207.2z"/>
					<path class="st9" d="M351.7,249.5c3.9-1.5,8.6,5.5,8,7.9c-0.8,3-6.1,4.4-8.2,2.7C349.5,258.5,349.6,250.3,351.7,249.5z"/>
					<path class="st7" d="M426.3,242.9c-0.1,6.4-5.4,11.5-11.8,11.4c-6.4-0.1-11.5-5.4-11.4-11.8c0.1-6.4,5.4-11.5,11.8-11.4
						C421.3,231.2,426.4,236.5,426.3,242.9z"/>
					<g>
						<path class="st9" d="M425.5,279.2c0,0-0.2,8.4-3.8,16.5c-0.1,0.2-0.2,0.5-0.3,0.7c-0.1,0.2-0.1,0.3-0.2,0.5
							c-0.2,0.3-0.3,0.6-0.5,0.9c0,0.1-0.1,0.1-0.1,0.2c-0.1,0.2-0.2,0.4-0.4,0.7c0,0,0,0,0,0l-0.1,0.1c-0.9,1.6-1.9,3.1-3.1,4.4
							l0,0l-0.3,0.3c-1,1.1-2.1,2.1-3.4,3l0,0c-0.2,0.1-0.3,0.2-0.5,0.4c0,0,0,0,0,0c-0.1,0.1-0.2,0.1-0.3,0.2
							c-0.2,0.1-0.4,0.3-0.7,0.4c0,0-0.1,0.1-0.1,0.1l0,0c-0.7,0.4-1.5,0.8-2.3,1.2l0,0c-0.8,0.3-1.6,0.6-2.4,0.9l0-0.2
							c0-0.2,0-0.3,0-0.5c0,0,0-0.1,0-0.1c0-0.2,0-0.4,0-0.6c0-9.5-1.9-19.2-1.9-19.2c0,0,0,0,0,0c0.1,0,0.2,0,0.3-0.1
							c0.1,0,0.2-0.1,0.3-0.1c0,0,0.1,0,0.1,0c0.1,0,0.2-0.1,0.4-0.1l0.1,0c2.7-0.9,9.8-3.5,16.8-7.8c0,0,0,0,0,0
							c0.1,0,0.1-0.1,0.2-0.1c0.1,0,0.1-0.1,0.2-0.1c0.1,0,0.2-0.1,0.3-0.2C424.4,280,424.9,279.6,425.5,279.2z"/>
						<g>
							<path class="st9" d="M421.6,293.9c0.1-0.1,0-0.2,0-0.2c-0.2,0.5-0.4,1-0.7,1.6c0.1,0,0.4-0.4,0.3-0.1
								c0.1-0.1,0.3-0.5,0.2-0.6l0.1,0.2c0-0.4,0.4-0.6,0.4-0.3l0,0l-0.2-1.2C421.5,293.5,421.7,293.5,421.6,293.9z"/>
							<path class="st9" d="M407.6,288.3c0.2-0.1,0.2-0.1,0.2-0.1C407.8,288.2,407.7,288.2,407.6,288.3z"/>
							<path class="st9" d="M421.6,292.8l-0.1-0.4C421.6,292.6,421.6,292.7,421.6,292.8z"/>
							<path class="st9" d="M423.4,296.1C423.4,296.1,423.4,296.1,423.4,296.1l0-0.2l0,0L423.4,296.1z"/>
							<path class="st9" d="M423.1,285.4c0,0,0-0.1,0-0.1C423.1,285.3,423.1,285.3,423.1,285.4z"/>
							<path class="st9" d="M422,301.1l0.3-0.8c0,0.1,0.2-0.2,0.2,0c0-0.1,0.1-0.3,0.1-0.3l-0.1,0.2c0-0.5-0.2-0.3,0-1.1
								c-0.3,0.3-0.3,0.6-0.3,0.8c0,0.1-0.1,0.1-0.1,0.2l-0.1,0.8L422,301.1z"/>
							<path class="st9" d="M417.2,283.6L417.2,283.6C417.2,283.6,417.2,283.6,417.2,283.6z"/>
							<path class="st9" d="M417.2,283.5L417.2,283.5C417.3,283.5,417.4,283.4,417.2,283.5z"/>
							<path class="st9" d="M421.7,293c0,0-0.1-0.1-0.1-0.2l0,0.3C421.7,293.1,421.7,293,421.7,293z"/>
							<path class="st9" d="M422,293.7l-0.2,0.6l0,0.3C421.9,294.4,422,294.1,422,293.7z"/>
							<path class="st9" d="M422.7,286.3c0.3-1.3,0.2,0.4,0.4-0.2c0-0.4,0-0.5,0-0.7c-0.1,1-0.4-0.2-0.5,0.8
								c-0.2-0.2-0.1-0.8,0.1-1.1c0.3-0.3,0.1,0.4,0.3,0.5c0.1-0.4,0-0.3-0.1-0.5c0.1-0.3,0.1-0.7,0.1-1c0-0.3,0.1-0.6,0.2-0.6
								c0-0.1-0.1-0.1-0.2-0.1c-0.2,0-0.1,0.1-0.3,0.1c0,0,0.1,0,0.1,0c0,0-0.1,0.1-0.1,0.3c0.2-0.4,0.2,0.1,0.2,0.3
								c0,0.1-0.1,0.4-0.1,0.4l0-0.2c-0.1,0.3,0,0.7-0.2,0.9c-0.1,0-0.1-0.1-0.1-0.1c0.1,0.4,0,0.7,0,1.2l-0.2-0.3
								c0.2,0.4-0.1,1.3-0.4,1.9c0.1-0.1,0.1-0.2,0.1-0.1c0,0.4-0.3,0.6-0.4,0.4c0.1,0.4-0.6,1.3-0.5,1.8c0.2,0.8,0.3,1.7,0.5,2.6
								c0-0.1,0-0.2,0-0.3c0.3-0.1,0.3-0.2,0.4,0.2c0-0.4-0.2-0.3,0-0.8c0,0.2,0.3,0.4,0.5-0.1c0.2-1.3-0.2-2.3-0.1-3.6
								c0.2,0,0.4-0.9,0.5-1.4c0.1,0.2,0.1,0.6,0,0.9c0.1-0.2,0.2-0.6,0.2-0.9L422.7,286.3z"/>
							<path class="st9" d="M422.5,289.4C422.5,289.3,422.5,289.3,422.5,289.4C422.5,289.3,422.5,289.3,422.5,289.4z"/>
							<path class="st9" d="M422.8,287.5C422.8,287.5,422.8,287.5,422.8,287.5l0-0.1C422.8,287.4,422.8,287.4,422.8,287.5z"/>
							<path class="st9" d="M422.2,292.8c0,0.1,0,0.1,0,0.2L422.2,292.8C422.2,292.9,422.2,292.8,422.2,292.8z"/>
							<path class="st9" d="M421.8,293L421.8,293C421.8,293,421.7,293,421.8,293C421.8,293,421.8,293,421.8,293z"/>
							<path class="st9" d="M424.9,281.9L424.9,281.9C424.9,281.9,424.9,281.9,424.9,281.9z"/>
							<path class="st9" d="M423.3,284.9c-0.1,0.4,0.2,0.1,0.1,0.7l0.1-0.2c0,0.5-0.2,1.3-0.3,1.8c-0.1-0.1-0.2,0.3-0.3,0.2
								c-0.1,0.4-0.1,0.7,0,1c-0.1,0.2-0.1,0.6-0.2,0.9c0.1-0.1,0.2,0.5,0.3-0.2c0,0.1,0,0,0,0.1c0.2-0.4,0.1-0.7,0.2-1
								c0.1-0.2,0,0.4,0.1,0.2c0.1-0.5,0.5-1.5,0.1-1.5c0.1-0.4,0.1-0.4,0.2-0.5c-0.2-0.6,0.6-2.1,0.1-2.1c0,0.2-0.1,0.5-0.1,0.9
								L423.3,284.9z"/>
							<path class="st9" d="M422.4,292.1L422.4,292.1L422.4,292.1z"/>
							<path class="st9" d="M421,292c0,0,0,0.1-0.1,0.1c-0.1,0,0.1-0.3,0-0.3c0,0.1-0.1,0.2-0.1,0.3c0-0.2-0.3,0.2-0.4,0.4
								c0,0.5-0.5,1.4-0.7,2c0-0.1,0-0.2,0-0.1c-0.4,0.8-0.6,1.1-1,2.1l0.1,0.2c0,0.1,0.1,0.1,0.1,0.1c0.1,0,0.1-0.2,0.2-0.4
								c0,0.1,0.1,0.1,0.2-0.1c0.3-0.4,0.2-0.8,0.4-1.1l0,0.1c0.2-0.3,0.4-0.7,0.4-1c0.4-0.2-0.4,0.9,0.1,0.5
								c-0.2,0.3-0.3,0.9-0.4,1.1c0.3-0.4,0.7-0.7,0.8-0.5c0.3-1-0.5-0.2-0.3-1.1c0.1-0.2,0.2-0.4,0.3-0.6l-0.2-0.3
								c0.1-0.3,0.1,0.3,0.3-0.2c-0.1-0.2,0.2-0.5,0.1-0.6c0.1,0,0.1,0.1,0.2-0.2c0,0-0.1,0-0.1-0.3c0.3-0.1-0.2,0.6,0.2,0.4
								C421.3,291.9,421.1,292.1,421,292z M419,296.2c0-0.1,0.1-0.2,0.2-0.3L419,296.2z"/>
							<path class="st9" d="M413,308.6l-0.2,0.1C412.9,308.6,412.9,308.6,413,308.6z"/>
							<path class="st9" d="M408.8,311.6c-0.1,0.1-0.2,0.1-0.3,0.2C408.6,311.7,408.7,311.6,408.8,311.6z"/>
							<path class="st9" d="M408.9,311.5C408.9,311.5,408.8,311.5,408.9,311.5L408.9,311.5L408.9,311.5z"/>
							<path class="st9" d="M415.3,308.1c0,0,0.1-0.1,0.1-0.1C415.4,308,415.4,308,415.3,308.1z"/>
							<path class="st9" d="M414.5,307.6c0,0,0.1-0.1,0.1-0.1L414.5,307.6z"/>
							<path class="st9" d="M420.3,302.5l0.1-0.3C420.4,302.4,420.4,302.5,420.3,302.5z"/>
							<path class="st9" d="M415.3,307.2C415.3,307.2,415.3,307.2,415.3,307.2C415.3,307.2,415.3,307.2,415.3,307.2z"/>
							<path class="st9" d="M417,300.2l0-0.1C417,300.2,417,300.2,417,300.2z"/>
							<path class="st9" d="M401.1,294.2L401.1,294.2C401.1,294.2,401.1,294.2,401.1,294.2z"/>
							<path class="st9" d="M415.8,301.7L415.8,301.7C415.8,301.7,415.8,301.7,415.8,301.7z"/>
							<path class="st9" d="M418.6,305C418.6,305,418.6,305,418.6,305C418.7,305,418.7,305,418.6,305z"/>
							<path class="st9" d="M415.8,301.8L415.8,301.8L415.8,301.8z"/>
							<path class="st9" d="M408.4,308C408.4,308,408.5,308,408.4,308C408.5,308,408.5,308,408.4,308z"/>
							<path class="st9" d="M410.3,307.4L410.3,307.4L410.3,307.4z"/>
							<path class="st9" d="M415.8,301.7c0,0,0-0.1,0-0.1C415.8,301.7,415.8,301.7,415.8,301.7z"/>
							<path class="st9" d="M421.6,295c-0.1,0-0.4,0.4-0.2,0.5L421.6,295L421.6,295z"/>
							<path class="st9" d="M406.3,288.6L406.3,288.6C406.3,288.6,406.3,288.6,406.3,288.6C406.4,288.6,406.4,288.6,406.3,288.6z
								 M407,310.2C407.1,310.2,407,310.2,407,310.2c0.2-0.1,0.4-0.1,0.4-0.2C407.2,310.1,407.1,310.1,407,310.2z M412.2,309.3
								c-0.1-0.2-0.4,0.2-0.9,0.4l0.1-0.2l-0.8,0.6c-0.2,0.4,0.1,0.3-0.4,0.7c-0.3,0-0.5-0.1-0.6-0.3c-0.1,0.2-0.7,0.5-1.3,0.7
								l0.2-0.2c-0.5,0.1-0.7,0.3-0.8,0.4c0,0,0,0-0.1-0.1c-0.4,0.2-0.6,0.4-0.4,0.5l0.1-0.1l0.4,0.1c0-0.3,1-0.4,1.5-0.7
								c-0.3,0.2-0.5,0.7-1,0.6l0.1,0.1c-0.4,0.1-0.7,0-0.9,0.3l0.5-0.2l0,0.1c0.3-0.1,0.7-0.3,1-0.3c0.2-0.2,0.4-0.5,1.1-0.7l0,0
								c0.3-0.4,1.3-0.4,1.6-0.7c0.1-0.4-0.8,0.2-1.1,0.2c0.2-0.2,0.6-0.2,0.3-0.3c0.6-0.4,0.5,0.1,0.9-0.4l-0.3,0.1
								C411.6,309.6,412,309.5,412.2,309.3z M425.2,293.3c0-0.5-0.1-0.1-0.2-0.2c0.2-0.2,0.4-1.1,0.4-0.5c0.1-0.3,0.3-1,0.3-1.2
								l-0.2,0.3c0.2-0.5,0.1-1.1,0-1.3c-0.1,0.6,0.2,0.7-0.1,1.5c-0.4,0.8-0.1-0.3-0.5,0.2l0,0.7l0.1-0.3c0.2,0.2-0.3,0.9,0,1
								c-0.4,0.5-0.3,0.8-0.8,1.4c0,0.2,0.1-0.1,0.2-0.2c-0.1,0.3,0.1,0.5-0.2,0.9c-0.1,0.2,0.2,0.1,0.3-0.3
								c-0.1,0.3-0.2,0.7-0.4,1.1l0.3-0.3l-0.2,0.4l0.2-0.3c-0.3,0.7-0.6,1.4-1,1.8c0.4-0.4,0.8-0.7,1-1.4c-0.1,0.2-0.2,0.4-0.2,0.3
								c0-0.7,0.6-0.8,0.7-1.4l-0.3,0.1c0-0.2,0.1-0.6,0.2-0.9c0.1,0,0.5-0.6,0.4-0.1c0.4-1-0.2-1,0.2-2.1
								C425.4,292.8,425.4,292.9,425.2,293.3z M426.6,279.5C426.6,279.6,426.7,279.8,426.6,279.5L426.6,279.5z M426.7,278.9
								c0-0.4,0-0.9,0-1.3c-0.1-0.3-0.3-0.3-0.5-0.2c0.4,0.1-0.3,0.3,0,0.5c-0.1,0-0.2,0-0.4,0c-0.2,0.1-0.4,0.3-0.6,0.4
								c0.6-0.5-0.5,0,0.7-0.7c0-0.2-0.6,0.5-1.1,0.9c0.1-0.1,0.4-0.4,0.6-0.6c-1,0.9-2.2,1.4-2.6,1.8c-0.3,0.3-0.6,0.6-1,0.9
								c-0.3,0.3-0.7,0.6-0.8,0.8c-0.5,0.2-0.9,0.5-1.5,0.8l0.1-0.1c-0.3,0.1-0.7,0.4-1.1,0.7l-0.1,0c-0.3,0.2-0.8,0.5-1.2,0.8
								c0.1,0,0.4-0.2,0.2,0c0.2-0.1,0.4-0.2,0.3-0.2c0.2-0.1,0.3,0,0.5-0.1l-0.8,0.5c-0.1,0-0.1,0-0.1,0l0,0.1
								c-0.2,0.1-0.3,0.1-0.3,0.1c-0.5,0.3-0.6,0.5-1.1,0.7c0.2-0.2,0.3-0.3,0.7-0.5l-0.6,0.3c0.2-0.2,1.2-0.7,1-0.8
								c-0.6,0.4-1.5,1-2,1.3c-0.4,0.1-0.8,0.4-1.3,0.6c-0.1,0-0.2,0.1-0.2,0c-0.6,0.3-1.3,0.7-1.8,0.9l-0.3,0.1
								c-1,0.4,0.2,0-0.8,0.5c-0.3,0.1-1.3,0.5-1.4,0.5c-0.2,0.1-0.3,0.1-0.3,0.2c0.2-0.1,0.6-0.2,0.4-0.1c-0.4,0.2-0.5,0.2-0.8,0.3
								c-0.5,0.2-1.3,0.5-2,0.8c0.1,0,0.1,0,0.2-0.1l-0.2,0.1l0.3-0.1c-0.2,0.1-0.4,0.1-0.6,0.2c0.6-0.2,1.1-0.4,1.7-0.6l0.1,0
								c0,0,0,0,0,0c0.3-0.1,0.6-0.2,0.8-0.3l0,0c0.1,0,0.1,0,0.1,0l0.4-0.1c0,0-0.1,0.1-0.3,0.2c1.5-0.5,2.7-1.1,4.3-1.7
								c0,0,0,0,0,0c0.1,0,0.2-0.1,0.3-0.2c0,0,0.1,0,0.1,0s0,0,0.1,0c0.7-0.3,1.2-0.4,1.7-0.7c0,0,0,0,0,0c0.7-0.3,1-0.6,1.7-0.9
								c-0.2,0.2,0.2,0,0.5-0.1c0.7-0.4,2.1-1.1,3-1.7c-0.1,0.4,1.1-0.6,1.3-0.5c0.2-0.1,0.4-0.3,0.4-0.4c-0.1,0.1-0.4,0.2-0.4,0.1
								c0.3-0.2,0.7-0.5,0.8-0.6l0.4-0.1c0-0.1,0.1-0.2,0.2-0.3c0,0,0,0,0,0c0,0,0.1-0.1,0.1-0.1c0,0,0,0,0,0c0.1,0,0.2,0,0.2-0.1
								c0-0.1,0.1-0.2,0.4-0.4c-0.1,0.1-0.1,0.1-0.2,0.2c-0.2,0.2-0.3,0.3-0.3,0.4c0.3-0.2,0.3-0.2,0.5-0.4c0,0.1-0.3,0.4-0.6,0.6
								l0.3-0.1c0.2-0.2,0.5-0.5,0.9-0.8c0.2-0.2,0.4-0.3,0.5-0.4c0.1-0.1,0.4-0.4,0.3,0c-0.1,0-0.1,0-0.1,0
								c-0.1,0.1-0.1,0.1-0.2,0.2c0.1,0.2,0.3,0.3,0.1,0.9c0,0,0,0,0,0c0.1,0.5-0.1,0.5-0.2,1.1c0,0,0,0-0.1,0l0.1,0.3
								c0.2,0.7-0.3,0.9-0.5,1.3l0-0.1c-0.2,0.1-0.2,1.3-0.3,1.6c0.2-0.3,0.1-0.1,0.4-0.3c0-0.3-0.2-0.3-0.1-0.8
								c0.2,0.1,0.1,0.8,0.2,1c0,0.3-0.4,0.5-0.5,0.5c-0.1,0.8-0.3,1.2-0.5,2.1c0.1,0.4,0.4,0.7-0.1,1.4l0,0
								c0.1,0.1-0.1,0.3-0.1,0.5c0.3-0.2,0.1,0.4,0.3,0.1c-0.1,0.5-0.4,0.4-0.6,0.5c0.2,0.4-0.4,0.8-0.5,1.5
								c-0.1-0.2,0.1-0.9-0.1-0.6l0,1l0.1-0.4c0,0.7-0.3,0.8-0.5,1.2c-0.1,0-0.1-0.1,0-0.2c-0.1,0.2-0.1,0.4-0.1,0.6l0,0.1
								c0,0.3-0.1,0.9-0.1,1.2l-0.1,0.1c0,0,0,0,0-0.1c0,0.1,0,0.1,0,0.1l-0.2,0.3l0-0.1l0,0.1l-0.2,0.3l0,0.2l0-0.1
								c0.1,0.1,0.1,0.2,0.1,0.5c0,0.2-0.1,0.4-0.2,0.6c0,0,0.2-0.3,0.4-0.6l0,0.2c-0.3,0.5-0.6,1-0.9,1.5c0-0.2,0.1-0.4,0.2-0.6
								c0,0-0.1,0.1-0.1,0.1c-0.2,0.3-0.3,0.7-0.5,0.9c0,0.1-0.1,0.1-0.1,0.2c-0.1,0.1-0.2,0.2-0.3,0.2c0.2-0.9,0.5-1.2,0.8-2
								c0.4-0.3-0.1,0.6,0,0.7l0.3-0.4c-0.1,0,0.3-1-0.1-0.8c-0.6,1-1.1,2-1.6,2.8c-0.3-0.5-0.6-1.1-1-1.6c0,0,0,0-0.1-0.1
								c-0.4,0.8,0.3,0.7,0.3,0.9c-0.1,0.2-0.1,0.4-0.2,0.5l0-0.1c-0.2,0.6,0.1,0.3-0.2,0.7c-0.1,0.4,0.2-0.3,0.2,0
								c-0.3,0.4,0.2,0.5-0.4,1.1c0-0.1-0.3-0.1,0-0.5c-0.1,0.1-0.3,0.2-0.4,0.3c0.2-0.5,0.1-0.2,0.4-0.7c-0.1-0.4-0.2-0.4-0.2-0.7
								c-0.1,0.2,0.1,0.3-0.1,0.5c-0.2,0.3-0.1,0-0.1-0.1c-0.1,0.5-0.5,0.4-0.6,0.9c0.3,0.1,0.2,0.1,0.5,0c-0.1,0.3-0.5,0.6-0.7,0.4
								l0.1,0.2c-0.1,0-0.2,0.2-0.3,0.2l0,0.2c0.3-0.1,0.4-0.2,0.6-0.6c0,0.2,0.4,0,0.1,0.5c-0.1,0.2-0.1,0-0.2-0.1
								c-0.6,1.1-1,0.8-1.5,1.6c0.1-0.2,0.5-0.6,0.7-1.1c-0.3,0.1-0.3,0.5-0.5,0.7c0.1-0.2,0-0.3-0.2-0.2l0,0.2
								c-0.1,0.1-0.3,0.4-0.3,0.4c0,0,0.1,0,0.2-0.1c-0.2,0.4-0.6,1.1-1.2,1.6c-0.1-0.2,0.6-0.9,0.1-0.6c-0.2,0.2-0.2,0.6-0.6,0.9
								c0.1-0.3-0.3,0.1-0.3,0c-0.1,0.3-0.2,0.5-0.3,0.7c-0.2,0.2-0.5,0.4-0.7,0.6c0,0,0.1-0.1,0.2-0.1c-0.2,0.6-0.8,0.5-1.2,1
								l0.2-0.3c-0.4,0.2-0.7,0.5-1,0.8L411,306c0,0.2-0.4,0.5-0.6,0.7c0.8-0.6,0.9-0.2,1.7-1c-0.2,0.5-0.5,0.7-0.7,1.1
								c-0.2,0.1-0.3,0.1-0.3,0c-0.1,0.2-0.1,0.3-0.3,0.5l-0.1,0c-0.8,0.3-0.5,0.7-1.2,1c-0.2-0.2,0.5-0.6,0.8-0.9
								c-0.4,0,0.6-0.4,0.1-0.5l-0.1,0.2c-0.2,0.1-0.2,0-0.2,0c-0.2,0.1-0.2,0.1-0.2,0.2c-1.1,0.6,0-0.3-1.1,0.1
								c0.1-0.1,0.4-0.3,0.3-0.3l0.6-0.2l-0.1-0.2c-0.7,0.4-1,0.7-1.3,1.1c0.6-0.4,0.1,0.1,0.5,0.1c-0.1,0.1-0.3,0.1-0.3,0.1
								c0,0.1-0.4,0.2-0.3,0.3c-0.2-0.2-0.8-0.1-1.2-0.1c0,0.2,0,0.4,0,0.6c0.2,0,0.5-0.1,0.5,0c-0.1,0.1-0.3,0.1-0.5,0.1
								c0,0.2,0,0.3,0,0.5c0.3-0.2,0.7-0.4,1-0.4l-0.1,0.1c0.7-0.3,1.1-0.4,1.5-0.4l0,0c0.3,0,0.6,0.1,0.8,0.2
								c-0.2,0.1-0.4,0.2-0.6,0.3l-0.1-0.1c-1,0.3-1.5,1-2.6,1.2c0,0.3,0,0.6,0,0.9c0,0,0,0,0,0c0.4-0.1,0.9-0.2,1.3-0.4
								c0.4-0.1,0.9-0.3,1.3-0.4c0-0.1-0.1-0.1,0-0.2c0.3,0,0.7-0.3,0.7-0.1c0.2-0.3,0.9-0.8,0.6-0.9l0.1-0.1c0.4,0.1,0.9,0,1.7-0.5
								c0.2-0.1,0.1-0.2,0-0.3c0.2-0.1,0.4-0.1,0.5-0.2c-0.1,0.2-0.1,0.3-0.3,0.4c0.4-0.2,0.8-0.5,1.2-0.7l0,0.1l0.4-0.4
								c-0.2,0.2-0.7,0.5-0.7,0.2c0.4-0.5,0.9-0.5,1.1-1c0.2,0.3,0.4,0.2,0.4,0.5c0,0,0,0-0.1,0c0,0.3-0.3,0.7-0.5,0.9
								c1.1-0.6,0.7-0.6,1.6-1.2c0.2,0.1-0.6,0.8-0.4,0.7c-0.3,0.2-0.6,0.4-0.9,0.5c0.1-0.1,0.1-0.2,0.2-0.2c-0.5,0.5-0.8,0.5-1.1,1
								c-0.3,0.1,0.3-0.4,0-0.2c0.2-0.2,0.4-0.5,0.4-0.8c-0.7,0.4-0.2,0.5-0.7,0.9c-0.2,0-0.4,0.1-0.5,0.1c-0.2,0.2,0.1,0.1,0.2,0.1
								c-0.3,0.2-0.5,0.2-0.7,0.3c0.1,0,0.3-0.1,0.3,0c-0.5,0.1-0.8,0.4-1.3,0.4c0.3,0-0.1,0.4-0.3,0.5c0.3,0,0.6-0.1,0.9-0.1
								c1-0.6,1.7-0.9,2.6-1.7l0,0.1c0.9-0.4,1.1-0.8,1.3-1.2c0.2-0.4,0.3-0.7,0.9-1.3c0.2,0.2,0.5-0.5,0.7-0.3
								c-0.4,0.3-0.2,0.3,0,0.3c0.1-0.3,0.1-0.5,0.6-0.9c0,0.2,0.4,0,0.1,0.4c0.6-0.5,0.8-0.8,0.9-1.3c0.6-1.1,0.5-0.1,1.1-1.1
								l0,0.2c0.2-0.2,0.3-0.4,0.4-0.6l-0.3,0.1l0.4-0.8c0.2-0.5-0.3,0.1-0.3,0l0.1,0.3c-0.2,0.3-0.4,0.8-0.6,0.8
								c0.3-0.5,0.1-0.5,0.2-0.7c-0.1,0.2-0.2,0.3-0.3,0.5l-0.2,0c-0.3,0.4-0.6,0.7-0.7,1.1c0.2-0.1,0.1-0.4,0.3-0.5
								c0,0.4-0.4,0.9-0.8,1.5c-0.1,0-0.2,0.1-0.2,0c0,0,0.1-0.1,0.1-0.1c-0.1,0,0.1-0.4-0.4,0.1c0-0.3,0.1-0.8,0.1-0.8
								c0.2-0.3,0.5-0.7,0.7-0.9l0,0c0.2-0.2,0.5-0.8,0.6-0.8c0.1-0.2,0.3-0.6-0.1-0.3l0.4-0.8c0.2,0.3,0.7-0.3,0.4,0.5
								c0,0,0.1-0.2,0.3-0.5c0-0.1,0.1-0.2,0.1-0.2l0,0c0,0,0,0.1,0,0.1c-0.1,0.1-0.1,0.1-0.1,0.1c0,0.4,0.3,0.1,0.6-0.4l-0.1-0.2
								c0.3-0.3,0.6-0.4,0.8-0.9l0-1.5l0.1-0.3c0.2-0.1,0.3-0.6,0.4-0.3c0.1,0,0.1,0.2-0.1,0.4c0,0,0,0-0.1,0c0.1,0.1,0.2,0.2,0.4,0
								c-0.2,0.3-0.2,0.3-0.2,0.5l0.2-0.3c-0.2,0.4-0.3,1.2-0.2,1.2c-0.1-0.2,0.2-0.4,0.4-0.6c0,0.2-0.1,0.6,0,0.4
								c0-0.1,0.3-0.9-0.1-0.5c0.1-0.2,0.1-0.6,0.3-0.8c-0.1,0.4,0.1,0.2,0.2,0.3c0-0.3-0.1-0.4-0.2-0.5c0.1-0.1,0.2-0.2,0.2-0.3
								c-0.1,0-0.1,0.1-0.2,0.1c0.2-0.7,0.7-1.8,0.6-2.3c-0.1,0.1,0,0.6-0.4,0.7l0.1,0.3c0,0.2-0.2,0.8-0.4,0.8
								c0.2-0.7,0.1-0.9,0.1-1.3c0,0,0-0.1,0-0.2c0.1-0.2,0.2-0.5,0.2-0.7c0.1-0.2,0.1,0,0.2,0c0.5-0.7,0.2-1.4,0.6-2.2
								c0.1,0,0.4-0.6,0.4-0.4c0.2-0.5,0.1-0.8,0.1-1.1c0.1,0,0.2-0.7,0.3-0.4l-0.1-0.5c0.2-0.3,0.2-0.9,0.4-1c0-0.3-0.2-0.2,0-0.6
								c0,0,0.1,0,0,0.1c0.1-0.2,0.2-0.7,0.2-0.9c-0.1,0.3,0,0.1-0.2,0.5c-0.1,0-0.1-0.5,0.1-0.9c0.1,0.6,0.3-0.4,0.4-0.1
								c0.2-0.9,0-1.6,0-2.4c0.1-0.5,0.1-0.9,0.2-1.6c0.1-0.7,0.1-1.3,0-1.8l0,0.1l-0.1-0.5c0-0.3,0.2-0.1,0.2-0.6
								c0.2,0,0,0.8,0.1,1.3c0.3-1,0.1,0.9,0.3,0.2c-0.3-0.3,0.1-2.1-0.1-2.7c0-0.2,0-0.3,0.1-0.3
								C426.6,279.1,426.7,279,426.7,278.9z M418.1,300.6c0-0.1,0.4-0.7,0.4-0.5c-0.3,0.3,0.1,0.6-0.4,0.8c0.1,0.1,0.2,0.1,0.3,0
								c0,0.1,0,0.1,0,0.1c-0.1,0.1-0.2,0.2-0.3,0.4c-0.1,0.1-0.2,0.2-0.2,0.1C417.9,301.3,418.2,300.8,418.1,300.6z M415.9,303.9
								c0,0.1,0.1,0.1,0.1,0l-0.3,0.3C415.7,304.2,415.6,304.2,415.9,303.9z M413.4,306.5c0,0.1-0.3,0.2-0.5,0.4c0,0,0,0,0,0
								c-0.1,0-0.2,0.1-0.2,0.1c0.1-0.1,0-0.1-0.1-0.2c-0.3,0.3-0.2,0.3,0,0.3c0.1,0,0.2,0,0.3-0.1c-0.1,0.2-0.3,0.3-0.4,0.5
								c-0.1,0.1-0.3,0.2-0.4,0.3c-0.1-0.1-0.2-0.1-0.2-0.2l0,0c0,0,0-0.1,0.1-0.1l-0.4,0l0.4-0.3c-0.2,0-0.5,0.3-0.7,0.4
								c-0.3,0,0.5-0.5,0.6-0.8c0.2-0.2,0.7-0.4,0.7-0.3c-0.1-0.2,0.6-0.6,0.8-0.9c0.6-0.5,0.6,0,1.1-0.6l-0.3,0.1
								c0.4-0.4,0.6-0.7,1.2-1.1c0.2,0.1-0.3,0.2-0.3,0.4l0.4-0.1c-0.1,0.1-0.2,0.5-0.3,0.3c0.1,0.1,0,0.4,0.3,0l-0.2,0.3
								c0,0,0.1,0,0.1,0l-0.2,0.2c-0.1,0-0.3,0.2-0.6,0.2c0,0,0.1-0.2,0.2-0.3c-0.3,0.1-0.5,0.3-0.6,0.5c0.4-0.3,0.2,0,0.4,0
								c-0.2,0.2-0.6,0.5-0.7,0.7c-0.4,0.2-0.8,0.2-0.6-0.1c-0.2,0.2-0.4,0.3-0.6,0.6C413,306.2,412.9,307,413.4,306.5
								C413.4,306.4,413.4,306.4,413.4,306.5L413.4,306.5z M416.8,304.1l0.1,0c-0.2,0.1-0.2,0.4-0.4,0.4c0,0,0.1-0.3,0.2-0.7
								c0-0.1,0.1-0.2,0.1-0.3c0.1-0.3,0.1-0.5,0.2-0.6c0.3-0.3,0.6-0.7,0.8-0.9l0,0.1c-0.6,0.8-0.8,1.1-0.6,1.1l0,0
								c0.2,0,0.7-0.3,1.2-0.6C417.9,303.1,417.3,303.6,416.8,304.1z M420.1,298.8l-0.1-0.2c0.1-0.1,0.2-0.1,0.2-0.1
								c0,0,0,0.1,0,0.1L420.1,298.8z M420.6,298.1C420.6,298.1,420.6,298.1,420.6,298.1c0.1-0.2,0.1-0.2,0.2-0.3
								C420.7,297.9,420.7,298,420.6,298.1z"/>
							<path class="st9" d="M415.5,283.7c-0.8,0.5-1.5,0.9-2.3,1.3C413.9,284.7,414.5,284.4,415.5,283.7z"/>
							<path class="st9" d="M410.7,311c-0.6,0.2-0.7,0.2-0.7,0.1c-0.5,0.1-0.4,0.3-0.7,0.5C409.9,311.3,410,311.3,410.7,311z"/>
							<path class="st9" d="M409.3,311.5c-0.1,0-0.1,0.1-0.2,0.1C409.2,311.6,409.2,311.6,409.3,311.5z"/>
							<path class="st9" d="M411.5,310.7c-0.1,0-0.3,0.1-0.4,0.1C411.2,310.9,411.6,310.6,411.5,310.7z"/>
							<path class="st9" d="M408.5,309.2c-0.1-0.1-0.4,0.1-0.5,0.1C408.2,309.3,408.5,309.4,408.5,309.2z"/>
							<path class="st9" d="M412.7,309.5c-0.1,0-0.3,0.1-0.3-0.1C412.4,309.5,412.3,309.8,412.7,309.5z"/>
							<polygon class="st9" points="409.5,308.9 409.4,308.9 409.1,309.1 							"/>
							<path class="st9" d="M407.6,307.6c-0.3,0.3,0.7,0.1,0.1,0.5c0.8-0.2-0.1-0.2,0.4-0.4C407.8,307.8,407.6,307.6,407.6,307.6z"
								/>
							<path class="st9" d="M408.2,307.7c0.1,0,0.1,0,0.2-0.1C408.3,307.6,408.2,307.7,408.2,307.7z"/>
							<path class="st9" d="M413.3,305.9c0,0-0.1,0.1-0.1,0.1C413.3,306,413.3,306,413.3,305.9z"/>
							<path class="st9" d="M409.9,306.8l-0.4,0.5c0.3-0.3,1.1-0.7,0.9-0.9c-0.3,0.1-0.6,0.3-0.7,0.5L409.9,306.8z"/>
							<path class="st9" d="M418.1,306l-0.1,0.3l0.3-0.2C418.1,306.1,418.1,305.8,418.1,306z"/>
							<path class="st9" d="M418.3,306L418.3,306C418.2,306,418.2,306,418.3,306z"/>
							<path class="st9" d="M412.5,306.7c-0.2,0.1-0.3,0.2-0.4,0.3C412.2,307,412.6,306.7,412.5,306.7z"/>
							<path class="st9" d="M419.2,304.3l-0.3,0.4C419,304.5,419.1,304.4,419.2,304.3L419.2,304.3z"/>
							<polygon class="st9" points="420.8,302.8 420.9,302.8 421.1,302.4 421,302.4 							"/>
							<path class="st9" d="M415.5,301.9c-0.2,0.2-0.2,0.5-0.1,0.5l0.3-0.4c-0.2,0-0.1,0.1-0.3,0.3L415.5,301.9z"/>
							<path class="st9" d="M426.5,288.1c0.1,0.2-0.1,0.8-0.2,0.8c0-0.1,0-0.4-0.1-0.2l0.2,0.6c-0.3,0.6-0.2-0.6-0.3-0.9
								c-0.2,0.7,0,0.9-0.2,1.6c0.1-0.2,0.2-0.3,0.3-0.4c0.2,0,0,0.7-0.1,1.1c0.2-0.3,0.2-0.1,0.2,0.2c0,0,0,0.1,0,0.1l0,0.1l0-0.1
								c0,0,0.1,0,0.1,0c0-0.4,0.3-0.7,0.3-0.9c-0.4,0.2,0.1-0.9,0.1-1.3l0-0.4l0-0.1c0,0,0.1,0,0.1,0.3c0-0.2,0.1-0.8,0-0.8
								l0.2-1.4c0,0,0-0.1,0.1-0.1c0-0.1,0-0.1,0-0.1l0.2-1.5l0-0.4c0-0.1,0-0.4,0-0.6l0.1-1.3c0.1-1.8,0.1-3.3,0.1-4.8
								c0,0.5-0.1,0.9-0.1,1.4c-0.2-0.5,0,0.8-0.2,0.7c-0.1-0.3,0-0.7,0-1c-0.1,0-0.2,0.4-0.3,0.5c-0.1,1.1,0.3,0.9,0.2,2.2
								c-0.1,0-0.2-0.3-0.2,0.4l0-0.2c0.1,1.1-0.3,1-0.1,1.7l-0.2,0c0,0.1,0,0.3,0,0.5c0,0.2,0,0.4,0,0.5c0,0.3,0,0.5-0.1,0.7l0,0
								c0,1.1,0,0.6-0.2,1.8l-0.1-0.6c-0.2,0.4,0,0.5,0,0.8c0,0-0.2,0-0.1-0.3l0,1.5C426.3,288.6,426.4,288.2,426.5,288.1z"/>
							<path class="st9" d="M425.8,289.9c0,0.1-0.1,0.2-0.1,0.3C425.8,290.1,425.8,290,425.8,289.9z"/>
							<path class="st9" d="M427.6,276.8l0,0.6C427.6,277.3,427.6,277.1,427.6,276.8z"/>
							<path class="st9" d="M425.7,292.1c0.2-0.2,0.1,0.2,0.1,0.3l0.3-0.9c-0.1,0-0.1-0.1-0.2-0.1L425.7,292.1z"/>
							<path class="st9" d="M426.2,291.2c0,0-0.1-0.2-0.1-0.3l-0.1,0.5C426.1,291.5,426.2,291.4,426.2,291.2z"/>
							<polygon class="st9" points="422.6,290.3 422.7,290.1 422.7,289.9 							"/>
							<path class="st9" d="M423.6,288c-0.1,0.2-0.2,0.5-0.2,0.6C423.5,288.3,423.5,288.5,423.6,288z"/>
							<polygon class="st9" points="422.4,288.3 422.4,287.9 422.4,287.9 							"/>
							<path class="st9" d="M423.9,278.5c-0.1,0.1-0.2,0.1-0.3,0.2C423.8,278.6,423.8,278.5,423.9,278.5z"/>
							<path class="st9" d="M427.1,278c0.2-1.6,0.1,0.7,0.4,0.1l-0.1-0.7l0.1,0c0-0.3,0-0.6,0-0.9c-0.1,0.3-0.1,0.5-0.2,0.6
								c-0.1-1,0.1-0.5,0.2-1.4l0-0.2l-1.4,1.1l0.2-0.2c-0.2,0.1-0.2,0.2-0.3,0.3l-0.8,0.6l-0.7,0.5l-1.3,1l-1.3,1
								c-0.2,0.2-0.4,0.3-0.6,0.5l-0.5,0.3c-0.4,0.4,0.3,0,0.1,0.3c0.1,0,0.1-0.1,0.2-0.1c0.1-0.1,0.3-0.1,0.4-0.3
								c0.2-0.2,0.5-0.4,0.8-0.6c0.5-0.4,0.9-0.7,1-0.8c0,0.1-0.1,0.2,0.1,0.1l0.6-0.7l-0.6,0.4c0.3-0.3,1-0.9,1.7-1.3
								c0.7-0.5,1.4-1,1.5-1.1c-0.7,0.6-0.9,0.8-1.1,1c-0.3,0.3-0.5,0.5-1.3,0.9c0.1,0,0.3,0-0.1,0.3c0.9-0.6,1.9-1.4,2.8-2.1
								c0.1,0.2,0.2,0.4,0.3,0.6c0.1,0.1,0.1,0.3,0.1,0.5C427.1,277.6,427.1,277.8,427.1,278z"/>
							<path class="st9" d="M415.7,283.8L415.7,283.8C415.7,283.8,415.7,283.8,415.7,283.8z"/>
							<path class="st9" d="M416.1,283.6l0.4-0.4l-0.7,0.4l0,0.1c0.1-0.1,0.3-0.2,0.4-0.3L416.1,283.6z"/>
							<path class="st9" d="M417,282.8c-0.4,0.3-0.3,0.4-0.1,0.3c-0.3,0.3-0.2,0-0.4,0.2c0,0.1,0.5-0.2,0.6-0.3L417,282.8z"/>
							<polygon class="st9" points="419.8,281.1 419.7,281.2 420,281.1 							"/>
							<path class="st9" d="M419.7,281.2l-0.3,0.2c0,0,0.1,0,0.1,0L419.7,281.2z"/>
							<path class="st9" d="M418.8,281.8c-0.1,0.1-0.2,0.1-0.4,0.2L418.8,281.8z"/>
							<path class="st9" d="M419.1,281.6L419.1,281.6l-0.3,0.2C418.9,281.7,419,281.7,419.1,281.6z"/>
							<path class="st9" d="M419.5,281.4c-0.1-0.1-0.2-0.1-0.5,0.1l0.1,0.1L419.5,281.4z"/>
							<polygon class="st9" points="423.2,285.6 423.2,285.3 423.2,285.3 423.2,285.6 							"/>
							<path class="st9" d="M423.7,283.7c0-0.1,0-0.1-0.1-0.1C423.7,283.6,423.7,283.6,423.7,283.7z"/>
							<path class="st9" d="M422.9,283.3c0.1-0.1,0.2,0,0.2-0.1c0.1-0.1,0.3,0,0.2,0.1c-0.1,0-0.1-0.1-0.2,0c0.1,0,0,0.1,0.2,0
								c0.1,0.1,0.2,0.1,0.3,0.2c0-0.2,0.2-0.7,0-0.8C423.5,282.7,423.1,283.1,422.9,283.3C422.7,283.3,422.7,283.4,422.9,283.3z"/>
							<path class="st9" d="M422.6,283.4C422.6,283.5,422.6,283.4,422.6,283.4C422.7,283.4,422.6,283.4,422.6,283.4z"/>
							<path class="st9" d="M424.7,280c-0.1,0.1-0.4,0.3-0.4,0.4L424.7,280C424.7,280.1,424.7,280.1,424.7,280z"/>
							<path class="st9" d="M425,280l-0.2,0.1C424.8,280.1,424.9,280,425,280z"/>
							<path class="st9" d="M424.7,280L424.7,280C424.7,280,424.8,280,424.7,280z"/>
							<path class="st9" d="M417.7,282.4c0-0.1-0.2,0.1-0.3,0.2C417.5,282.5,417.6,282.5,417.7,282.4z"/>
							<path class="st9" d="M410,286.8l-0.2,0.1C409.9,286.8,409.9,286.8,410,286.8z"/>
							<path class="st9" d="M407.2,288.4L407.2,288.4C407.2,288.4,407.2,288.4,407.2,288.4z"/>
							<path class="st9" d="M407.1,288.4c-0.3,0.1-0.3,0.1-0.7,0.2l0,0l-0.3,0.1C406.4,288.6,407,288.5,407.1,288.4z"/>
						</g>
					</g>
					<path class="st5" d="M541.2,546.9c-7.6,18.3-66.2,50.3-119.9,65.3c-3.8,1.1-7.5,2-11.3,2.9c-0.2,0.1-0.3,0.1-0.5,0.1
						c0,0-0.1,0-0.1,0c-0.2,0.1-0.5,0.1-0.7,0.2c0,0-0.1,0-0.1,0c-0.2,0.1-0.4,0.1-0.6,0.1c0,0,0,0-0.1,0c-7.2,1.6-5.4,1.6-12,2.4
						c-7.2-4.8-10-17.8-8.1-25.8c0,0-9,4.7-15.4,2.2c-3.2-1.3-27.1-13.6-31.1-10.4c-3.9,3.2,14.7,12.8,13.6,14.6
						c-1.1,1.8-27.7,0.8-34.1-0.2c0,0,0,0-0.1,0c-0.4-0.1-2.1,0.1-5.3-2.4c0,0-0.8-2.3-7.4-11.5c-6.6-9.2-10.9-17-10.8-18.2
						c0.1-1.2,13.8,8,15.4,3.6c1.7-4.5-18.6-15.4-20.6-18.4c-4.1-6.4-6-20.3-3.9-36.6c0.1-1.1,0.3-2.4,0.5-4.1
						c1.4-9.6,7.1-34.4,29.2-52c0,0,10.2-66.5,36.8-93.2c13.9-13.9,39.6-30.5,48-40.5c-0.8,1.3-13.3,21.1-5.5,27.3
						c8.1,6.4,39.2-8.8,58.5-33.1c4.6,12.5,29.7,33.5,38.9,52.3c3.6,7.3,11.9,28.8,20.6,54.6l0,0C530.9,472,547.7,531.3,541.2,546.9
						z"/>
					<g class="st11">
						<path class="st6" d="M365.7,369.8c-3.1,3.4-6.2,6.8-9.1,10.4c-2.9,3.5-5.8,7.1-8.4,10.9c-2.6,3.7-5.1,7.6-6.8,11.7
							c-0.8,2-1.5,4.1-1.6,6.2c-0.1,2.2,0,4.4,0.3,6.7c0.5,4.5,1.6,8.9,2.9,13.2c0.6,2.2,1.4,4.3,1.8,6.9c0,0.3,0.1,0.7,0,1.2
							c0,0.1,0,0.3-0.1,0.4c-0.1,0.2-0.1,0.4-0.2,0.5l-0.4,0.5c-0.5,0.5-0.9,0.9-1.4,1.3c-0.9,0.8-1.8,1.5-2.7,2.2
							c-7.3,5.7-14.8,11-21.9,16.9c6.4-6.7,13.5-12.7,20.5-18.7c0.9-0.8,1.7-1.5,2.5-2.3c0.4-0.4,0.8-0.8,1.1-1.1l0.2-0.2
							c0,0-0.1,0.1-0.1,0.1c0,0,0,0,0,0c0-0.1,0-0.3,0-0.5c-0.4-2-1.2-4.2-1.9-6.4c-1.4-4.4-2.6-9-3.1-13.7
							c-0.3-2.4-0.4-4.7-0.2-7.1c0.2-2.6,1-4.9,1.9-7.1c2-4.4,4.7-8.2,7.5-11.9C352.1,382.4,358.7,375.8,365.7,369.8z"/>
						<path class="st6" d="M390.3,437.5c4.3,2.1,8.7,3.8,13.2,5.1c4.5,1.2,9.1,2,13.7,2.1c2.3,0.2,4.6-0.1,6.9-0.2
							c2.3-0.3,4.6-0.6,6.8-1.2c1.1-0.3,2.3-0.5,3.4-0.9l3.3-1.1c1.2-0.3,2.2-0.9,3.3-1.3c1.1-0.5,2.2-0.9,3.3-1.4
							c-1,0.7-1.9,1.4-2.9,2.1c-1,0.7-2,1.4-3.1,1.9l-3.3,1.6c-0.5,0.3-1.1,0.5-1.7,0.7l-1.7,0.6c-2.3,0.9-4.7,1.2-7.1,1.8
							c-2.4,0.2-4.9,0.5-7.3,0.3c-4.9-0.2-9.8-1.1-14.3-2.9C398.2,443,393.9,440.7,390.3,437.5z"/>
						<path class="st6" d="M437.7,399c1.7,0.5,3.2,1.3,4.6,2.3c1.4,1,2.7,2,3.8,3.5c-1.7-0.5-3.2-1.3-4.6-2.3
							C440.1,401.5,438.8,400.4,437.7,399z"/>
						<path class="st6" d="M495.7,527.5l0,0.2l0,0l0,0.1l0,0c0,0.1,0,0.1,0,0.1c0,0,0,0,0,0c0,0,0,0,0,0c0,0,0,0,0,0c0,0,0,0,0,0
							s0,0,0,0l0,0c0,0,0,0,0,0l-0.1,0.1c0,0,0,0,0,0c0,0.1,0,0.1-0.1,0.1c0,0,0,0.1,0,0.1c0,0,0,0,0,0c0,0,0,0,0,0.1l0,0l0,0
							c0,0,0,0,0,0c0,0,0,0,0,0c0,0,0,0-0.1,0.1c0,0,0,0,0,0c-0.1,0.2-0.3,0.4-0.4,0.5c-0.1,0.1-0.1,0.1-0.2,0.2c0,0,0,0-0.1,0.1
							c0,0,0,0,0,0l0,0c0,0-0.1,0.1-0.1,0.1l0,0c0,0,0,0-0.1,0.1c0,0-0.1,0.1-0.1,0.1c0,0-0.1,0.1-0.1,0.1c0,0,0,0-0.1,0.1l-0.3,0.3
							c0,0-0.1,0.1-0.1,0.1l-0.2,0.2c0,0,0,0,0,0l0,0l0,0l-0.2,0.2c0,0,0,0,0,0l0,0l0,0L493,531c-0.1,0.1-0.2,0.1-0.2,0.2l-0.1,0.1
							c-0.2,0.2-0.4,0.4-0.6,0.5c-0.2,0.2-0.4,0.4-0.6,0.5c-0.1,0.1-0.2,0.2-0.3,0.2c0,0-0.1,0.1-0.1,0.1c-0.1,0-0.1,0.1-0.2,0.2
							c0,0,0,0,0,0c0,0-0.1,0.1-0.1,0.1c0,0,0,0,0,0l0,0c0,0,0,0,0,0c0,0,0,0,0,0l0,0c0,0,0,0,0,0l0,0l0,0c0,0-0.1,0.1-0.1,0.1
							c0,0-0.1,0-0.1,0.1l0,0c0,0,0,0,0,0l0,0c0,0,0,0,0,0l0,0c0,0,0,0,0,0c0,0,0,0,0,0l0,0c0,0,0,0-0.1,0.1c-0.4,0.3-0.8,0.7-1.3,1
							c-0.1,0.1-0.1,0.1-0.2,0.1c-0.1,0.1-0.2,0.1-0.3,0.2c-0.3,0.2-0.5,0.4-0.8,0.6c-4.6,3.4-9.2,6.7-13.9,10
							c-1.9,1.3-3.8,2.6-5.7,3.9c-1.6,1.1-3.3,2.2-4.9,3.3c-0.5,0.3-0.9,0.6-1.4,0.9c-1.5,1-3,2-4.6,3c-0.4,0.3-0.8,0.5-1.2,0.8
							c-1.6,1-3.1,2-4.7,3c-0.1,0.1-0.3,0.2-0.4,0.3c0,0,0,0-0.1,0c-0.2,0.1-0.3,0.2-0.5,0.3c0,0,0,0-0.1,0
							c-1.2,0.7-2.3,1.4-3.5,2.1c-0.1,0-0.1,0.1-0.2,0.1c-0.5,0.3-1,0.6-1.4,0.9c-0.2,0.1-0.3,0.2-0.5,0.3c-1,0.6-2.1,1.2-3.1,1.9
							c0,0,0,0-0.1,0c-1,0.6-2,1.2-3,1.8c-0.1,0-0.2,0.1-0.2,0.1c-0.6,0.3-1.2,0.7-1.7,1l0,0c-0.7,0.4-1.3,0.8-2,1.2c0,0,0,0,0,0
							c-0.2,0.1-0.4,0.2-0.6,0.3c-0.1,0.1-0.2,0.1-0.3,0.2c-1.6,0.9-3.2,1.8-4.8,2.7c-2.1,1.2-4.1,2.3-6.2,3.4
							c-0.8,0.4-1.6,0.9-2.4,1.3c-0.1,0-0.2,0.1-0.2,0.1c-1.6,0.8-3.1,1.7-4.7,2.5c-1.3,0.7-2.6,1.3-3.9,1.9
							c-0.6,0.3-1.3,0.6-1.9,0.9c-0.2,0.1-0.3,0.2-0.5,0.2l0,0c-0.7,0.3-1.4,0.7-2.1,1c-0.8,0.4-1.6,0.8-2.4,1.1
							c-0.7,0.3-1.3,0.6-2,0.9c-0.6,0.3-1.3,0.6-1.9,0.8c0,0,0,0,0,0c-0.2,0.1-0.4,0.2-0.7,0.3c-0.6,0.3-1.2,0.5-1.7,0.7
							c0,0-0.1,0-0.1,0.1c-0.3,0.1-0.7,0.3-1,0.4c0,0,0,0,0,0c-0.1,0.1-0.2,0.1-0.3,0.1l0,0c-0.4,0.2-0.8,0.3-1.2,0.5l0,0
							c-0.1,0.1-0.3,0.1-0.4,0.2c-0.4,0.2-0.8,0.3-1.2,0.4c-0.2,0.1-0.4,0.2-0.6,0.2c0,0,0,0-0.1,0l0,0l0,0l0,0l0,0
							c-3.1,1.2-6.2,2.2-9.4,3c3.1-1,6.2-2.2,9.2-3.4l0,0l0,0c1.5-0.6,3-1.3,4.4-1.9c0,0,0.1,0,0.1-0.1c0.8-0.3,1.5-0.7,2.3-1.1
							c0.2-0.1,0.3-0.1,0.5-0.2c0,0,0,0,0,0c0.5-0.2,0.9-0.4,1.4-0.7c0.2-0.1,0.4-0.2,0.5-0.3c0,0,0,0,0.1,0
							c4.2-2.1,8.3-4.3,12.4-6.5c10-5.5,19.7-11.3,29.3-17.4c9.5-6.2,19.1-12.3,28.4-18.9c4.7-3.3,9.3-6.6,13.8-10
							c2.2-1.7,4.5-3.5,6.4-5.3c0.2-0.1,0.3-0.3,0.4-0.5l0,0c-0.1-0.6-0.3-1.3-0.5-1.9c-0.4-1.3-0.9-2.7-1.4-4
							c-7.6-21.4-16.2-42.5-24.3-63.7l-0.8-2.1c0,0,0,0,0,0l-0.2-0.6l-11.3-29.1c-4-10.6-8.2-21.2-12.2-31.9
							c4.6,10.4,9,20.9,13.5,31.4l12.3,29.6c0,0,0,0,0,0l0,0.1l0.3,0.6l0.2,0.4l0,0.1l0.3,0.8c0.7,1.8,1.5,3.6,2.2,5.3
							c0.6,1.3,1.1,2.7,1.6,4c1.6,4,3.2,8,4.8,12c0.3,0.8,0.7,1.7,1,2.5c0.1,0.2,0.1,0.3,0.2,0.5c1,2.4,1.9,4.9,2.9,7.3
							c0.6,1.4,1.1,2.9,1.7,4.3c0.2,0.5,0.4,1.1,0.7,1.9c0.2,0.6,0.5,1.1,0.7,1.7c0.1,0.3,0.3,0.7,0.4,1c0.1,0.2,0.2,0.5,0.3,0.7
							c0,0,0,0.1,0,0.1c0.1,0.4,0.3,0.8,0.4,1.1c0.1,0.4,0.3,0.8,0.4,1.2c0,0,0,0.1,0.1,0.1l1.2,3.1c0,0,0,0,0,0.1
							c0.1,0.2,0.2,0.4,0.3,0.7c0.9,2.4,1.8,4.8,2.8,7.2c0.1,0.2,0.2,0.4,0.3,0.7c0.7,1.9,1.5,3.8,2.1,5.8c0.2,0.4,0.3,0.9,0.5,1.3
							l0,0.1c0,0,0,0,0,0l0.1,0.3c0,0,0,0.1,0,0.1c0.1,0.1,0.1,0.3,0.1,0.4c0,0.1,0.1,0.2,0.1,0.3c0,0,0,0,0.1,0.1c0,0,0,0.1,0,0.1
							c0,0,0,0,0,0c0,0.1,0,0.1,0.1,0.2c0,0.1,0,0.1,0,0.1c0,0,0,0,0,0l0.2,0.5c0,0,0,0,0,0l0,0.1c0,0,0,0,0,0l0,0c0,0,0,0,0,0
							l0,0.1c0,0,0,0,0,0l0,0.1c0,0,0,0.1,0.1,0.2l0,0c0,0,0,0,0,0c0,0,0,0,0,0c0,0,0,0,0,0c0,0,0,0.1,0,0.1l0,0l0,0
							c0,0,0,0.1,0,0.1c0,0,0,0,0,0.1l0,0c0,0.1,0,0.1,0.1,0.2c0,0,0,0,0,0c0.1,0.2,0.1,0.3,0.2,0.5c0,0,0,0,0,0.1l0,0
							c0,0,0,0,0,0.1c0,0,0,0.1,0,0.1c0,0,0,0,0,0l0,0c0,0,0,0,0,0l0,0c0,0,0,0,0,0c0,0,0,0,0,0c0,0,0,0,0,0c0,0,0,0,0,0
							c0,0,0,0,0,0c0,0,0,0,0,0.1c0,0,0,0,0,0c0,0,0,0,0,0c0,0,0,0,0,0l0,0c0,0,0,0,0,0.1c0,0,0,0,0,0c0,0,0,0.1,0,0.1c0,0,0,0,0,0
							c0,0,0,0,0,0l0,0c0,0,0,0,0,0l0,0c0,0,0,0,0,0.1l0,0c0,0,0,0,0,0c0,0,0,0,0,0c0,0,0,0,0,0c0,0,0,0,0,0c0,0,0,0,0,0l0,0
							c0,0,0,0,0,0c0,0,0,0,0,0c0,0,0,0,0,0c0,0,0,0,0,0c0,0,0,0,0,0l0,0c0,0,0,0.1,0,0.1c0,0,0,0,0,0c0,0,0,0,0,0c0,0,0,0.1,0,0.1
							c0,0,0,0,0,0.1c0,0,0,0,0,0c0,0,0,0,0,0l0,0c0,0,0,0.1,0,0.1c0,0,0,0,0,0.1c0,0,0,0,0,0.1c0,0.1,0,0.1,0.1,0.2
							c0.1,0.3,0.2,0.6,0.2,0.9l0,0l0,0l0,0c0,0,0,0.1,0,0.1l0,0.1c0,0,0,0,0,0c0,0,0,0,0,0c0,0.1,0,0.1,0,0.2l0,0c0,0,0,0.1,0,0.1
							c0,0,0,0.1,0,0.1C495.7,527.4,495.7,527.5,495.7,527.5z"/>
					</g>
					<path class="st12" d="M455.8,225.7c-1.4-1.5-3.2-2.7-5-3c-0.9-0.2-1.9-0.1-2.7,0.2c-0.9,0.3-1.7,0.8-2.4,1.4l-1.1,0.9l-0.1-1.3
						c-0.1-1.7,0-3.4,0.3-5.1c0.3-1.7,0.9-3.4,1.9-4.8c1-1.5,2.6-2.6,4.3-2.9c1.7-0.4,3.5,0.1,5,0.6c-0.8,0-1.6-0.2-2.5-0.2
						l-1.2,0.1c-0.4,0-0.8,0.2-1.1,0.3c-1.5,0.5-2.7,1.5-3.5,2.8c-0.8,1.3-1.3,2.9-1.5,4.4c-0.3,1.6-0.4,3.2-0.4,4.8l-1.1-0.5
						c0.9-0.6,1.8-1.3,2.9-1.5c1.1-0.3,2.3-0.3,3.3,0c1.1,0.3,2,0.9,2.8,1.6C454.6,224,455.3,224.8,455.8,225.7z"/>
					<g class="st13">
						<path class="st6" d="M541.2,546.9c-7.6,18.3-66.2,50.3-119.9,65.3c-3.8,1.1-7.5,2-11.3,2.9c-0.2,0.1-0.3,0.1-0.5,0.1
							c0,0-0.1,0-0.1,0c-0.2,0.1-0.5,0.1-0.7,0.2c0.1,0,0.2-0.1,0.3-0.1c0.1,0,0.2-0.1,0.3-0.1c3.4-1.2,7-2.6,10.8-4.1
							c0,0,0,0,0.1,0c0.5-0.2,0.9-0.4,1.4-0.6c6-2.6,12.2-5.6,18.6-8.9l1.8-1c0,0,0,0,0,0c2.3-1.2,4.6-2.5,6.9-3.7
							c1.2-0.7,2.4-1.4,3.6-2c4-2.3,8.1-4.7,12-7.1c1-0.6,2-1.2,2.9-1.8c0,0,0,0,0,0c5.5-3.4,10.9-7,16.1-10.5c0,0,0,0,0,0
							c1.4-1,2.8-1.9,4.1-2.9c6.9-4.8,13.2-9.5,18.6-14c0.2-0.2,0.4-0.3,0.6-0.5c0.2-0.2,0.5-0.4,0.7-0.5c1.4-1.2,2.7-2.3,4-3.4
							c0,0,0.1,0,0.1-0.1c0.6-0.6,1.3-1.1,1.9-1.7c0.1-0.1,0.1-0.1,0.2-0.1c2.1-1.9,4-3.8,5.6-5.5c0,0,0,0,0,0
							c1.7-1.7,3-3.4,4.1-4.8c0,0,0,0,0,0c0.1-0.2,0.3-0.4,0.4-0.5c0.1-0.2,0.2-0.4,0.4-0.6c0,0,0.1-0.1,0.1-0.1
							c0.5-0.8,0.9-1.8,1.2-2.9c0,0,0,0,0,0c0.7-2.1,1.2-4.5,1.5-7.4c0,0,0,0,0,0c0-0.4,0.1-0.8,0.1-1.2
							c3.2-31.8-11.9-103.1-11.9-103.1l0,0C530.9,472,547.7,531.3,541.2,546.9z"/>
						<g>
							<path class="st6" d="M409.4,615.3c-0.2,0.1-0.5,0.1-0.7,0.2c0,0-0.1,0-0.1,0c-0.2,0.1-0.4,0.1-0.6,0.1
								c0.3-0.1,0.6-0.2,0.9-0.3C409.1,615.3,409.3,615.3,409.4,615.3z"/>
							<path class="st6" d="M507.7,557.4c-0.3,0.3-0.5,0.5-0.6,0.7l0-0.2l-0.1-0.3c-0.2,0.2-0.4,0.5-0.6,0.8
								c-1.3,1.7-3.6,3.7-5.4,5.3c-4.8,1.4-7.4,7-13,9.4l-0.2-0.7l-0.1-0.5c-2.6,2.3-4.5,2.7-7.3,4.7c-1,0.8-0.2,0.7-0.9,1.4
								c1.4-1,2.9-1.9,4.2-2.7c0,0,0,0,0,0c1.3-0.8,2.4-1.4,3.2-2c0,1.2-2.1,2.6-4.6,4c-2.5,1.5-5.3,3.1-6.8,4.8
								c-1.5,0.7-1.5-0.3-3.1,1.1c-0.6,1.4-3.1,2.3-4.9,3.4c0.5-0.5,0.9-0.9,1.1-1.1c-0.1-0.1-0.4,0-0.9,0.3c0,0,0,0,0,0
								c-0.7,0.3-1.7,0.8-2.4,1.2c-0.2,0.2-0.4,0.4-0.6,0.6c-1,1.1-2.4,2.4-3.9,3.5c-1.8,1.3-3.8,2.5-5.8,3l-2,2.4
								c-2.5,0.8-5.3,2.4-7.5,3.3l0.4,0.4c-1.4,0-2.4,1.3-3.4,2.2c-0.4,0-0.5-0.2-0.9-0.2c-3.1,1.4-5.3,3.7-7.2,4.4
								c2-1.9-0.4,0,1.9-2.1c-1.7,1.5-3.6,1.2-4.8,2.6c-2.6,1.4-2.5,0.5-3.6,0.7c0.6,0.2,0,0.8-0.8,1.4c-0.8,0.6-1.8,1.2-1.9,1.4
								c-1.3,0.1-2.4,0.8-3.2,1.4c-0.1,0.1-0.2,0.2-0.4,0.3c-3.8,1.1-7.5,2-11.3,2.9c-0.2,0-0.3,0-0.6,0.1c0,0-0.1,0-0.1,0
								c-0.4,0.1-0.8,0.2-1.3,0.3c1.6-0.8,4.4-1.8,6.7-2.6c2.3-0.8,4.2-1.6,4.9-2.3c0,0.2-0.1,0.5-0.1,0.7c0.2-0.1,0.4-0.1,0.6-0.2
								c0,0,0,0,0.1,0c0.5-0.2,1-0.4,1.4-0.6c0.8-0.4,1.5-0.9,2.3-1.4c1.4-0.9,2.8-1.9,5-2.7c1.8-0.8-1.5,1.2,0.9,0.3
								c2-1.2,4.1-2.4,6.1-3.5c2.1-1.2,4.1-2.2,6-3.2c-0.4,0.6-1,1.1-1.8,1.6c-1.1,0.8-2.5,1.6-4,2.8c4.3-1.2-2.8,1.2-0.1,1.1
								c4.3-2.5,3-2.7,7.7-5c1.6-1.3-1.2,0-1.7,0.2c1.7-1.5,4.3-2.4,4.2-3.4c1.6-0.3,1.8-0.1,2.7-0.3c0.6-0.1,1.4-0.5,3-1.3
								c0.4-0.3,0.6-0.6,0.6-0.8c0.3-0.7-1.4-0.2,1.7-1.9c2-0.1,2.4-1.8,4.4-2.5c-0.3,0.2-1.1,0.7-1,0.9c4.9-2.3,0.7-0.7,5-2.6
								c-0.3-1,1.8-2.2,4-3.4c2.1-1.1,4.2-2.3,4.3-3.2c0,0.8,3.7-2.2,2.6-0.7c2.6-2.3,5.8-4.2,7.9-5.9c2.3-0.4,4.6-2.6,6.6-4.4
								c2-1.8,3.7-3.2,4.8-2.4c1.5-1.3,1.8-2.8,4.2-4.5c-0.1,0.5-0.1,0.9,0.9,0.1c2.5-1.4,3.1-3.8,5.6-5.9c2.3-1.5,2.3,0,4.6-2.6
								l0.3-0.7C510.8,553.8,509,556,507.7,557.4z"/>
							<path class="st6" d="M464.2,588.8l2.5-0.8l-0.5-0.3C465.6,588.2,464.9,588.6,464.2,588.8z"/>
							<path class="st6" d="M466.2,587.7c0.4-0.3,0.8-0.6,1.1-1c-0.5,0.3-0.9,0.6-1.3,0.9L466.2,587.7z"/>
							<path class="st6" d="M508.7,557.3c0.5-0.3,1.4-1,2.1-1.8C510.2,555.9,509,556.8,508.7,557.3z"/>
							<polygon class="st6" points="510.7,555.2 509.7,555.8 509.6,556.1 							"/>
							<path class="st6" d="M524.7,487.6l-1.2-3.9c0.3-0.8-0.8-5.2,0.1-3.8c-1.2-2.3-1.1-7.5-2-5.4c2.1,11.6,3.3,27.9,4.7,41.4
								l-0.6-2.2c0.3,1.8,0.4,3.2,0.4,4.6c0,1.3-0.1,2.5-0.2,3.6c-0.2,2.2-0.3,4.3,0.4,7.1l-0.9-0.8c-0.3,1.6-0.1,3.1-0.1,4.6
								c0,0.8,0,1.6-0.2,2.3c-0.2,0.7-0.4,1.5-1,2.2l0.5-0.2c-0.3,0.8-0.6,1-0.9,1.8c0.1-0.1,0.2-0.2,0.3-0.2
								c-0.1,0.6-0.3,1-0.5,1.4c-0.1,0.2-0.2,0.4-0.3,0.6c-0.1,0.2-0.3,0.4-0.4,0.6c-0.6,0.7-1.2,1.4-2,2.2
								c-0.3-0.1,0.6-0.9,0.9-1.5c-0.9,0.6-1.4,2.5-2.7,3.7c-1.2,0.8-0.3-0.3-0.3-0.6c-0.8,1-1.6,1.9-2.4,2.6
								c-0.8,0.7-1.5,1.3-2.1,1.9c-1.3,1.2-2.3,2.4-3.3,4.2c-0.1,0.5,1.4-0.5,0,0.9c1.6-1,2.7-2.1,3.8-3.3c1.1-1.2,2.1-2.4,3-3.7
								l-0.6,0.7c0.4-1.5,0.8-1.7,1.4-2.1c0.6-0.4,1.5-0.8,2.6-2.6c-0.2,1.3-1.5,2.5-1.8,3.3c1-0.7,1.9-1.4,2.5-2.1
								c0.6-0.7,1-1.4,1.4-2.1c0.9-1.3,1.4-2.4,2.7-3.7l-0.1,0.4c0.2-0.3,0.3-0.8,0.5-1.4c0.1-0.6,0.2-1.2,0.3-1.7
								c-0.1,0.2-0.3,0.5-0.5,0.9c-0.2,0.4-0.4,0.8-0.6,1.1c0.3-1.1-0.2-1.8-0.4-2.2c0.9-1,0.1-1.6,0.8-3.4c0.7-0.6,0.3,1.7,0.4,2.5
								c0.1-0.8,0.1-1.6,0.1-2.4c0.3-2.1,1-2,1.4-3c-0.3-1.9-0.4,1-0.9-0.5c0.3-0.6,0.5-1.6,0.6-2.9c0.2-1.3,0.3-2.9,0.3-4.6
								c0.1-3.4-0.3-7.1-0.6-9.4c0.1,1.6,0.7,0.6,0.6,2.5c0.1-0.7-0.3-3.3-0.7-3.3c-0.6-3.3-0.5-7.4-0.4-10.5l-0.4,0.9
								c-1-2.5,0-6.5-0.9-11l0,0.1c-0.3-1.4-1.5-2.6-1.6-5.3C524.1,486.4,524.2,487.8,524.7,487.6z"/>
							<path class="st6" d="M521.5,471.8l0.9,1.4c-0.1-1.6-1.2-3.5-1.6-3.1c0.3,1.1,0.2,2.5,0.6,2.7
								C521.5,472.6,521.7,472.6,521.5,471.8z"/>
							<path class="st6" d="M516.4,441.8c-0.3-0.6-0.5-0.4-0.7-0.6c1.3,6.3,2.9,14.1,2.8,16.8c0.2,2.2,1.2,2.4,1.8,5.1l-0.5,1.3
								c0.6,1.4,0.6,6,1.4,4.2c0.1-0.2-0.7-1.2-0.7-2.5l0.4,0.1l-0.6-2.9l0.6,0.8c0-4-1.8-2.5-2.2-7.4l0.9-0.1
								c-0.5-3.2-1.1-4.8-1-7.7c0,0-0.5,0.1-0.2,0.6c0,0.5-0.2,1.3-0.5,1c-1.6-4.7,0.7,0.7,0.5-2.8c-1.4-4-3.4-11.8-3.1-14.2
								c-0.2,2-1.3-0.7-1.7-3c0.1-1.1,0.7,0.6,1,0.9c-0.1-1.1-0.1-2-0.4-3.1c-0.2,1.5-1.1,0.7-1.9-1.7
								C513,432.2,515.5,436.2,516.4,441.8z"/>
							<path class="st6" d="M515.3,440.3c0.1,0.6,0.3,0.8,0.4,0.9c-0.1-0.7-0.3-1.5-0.4-2.2L515.3,440.3z"/>
						</g>
					</g>
					<g class="st13">
						<path class="st6" d="M465.8,455.6C465.8,455.6,465.7,455.6,465.8,455.6C465.7,455.6,465.7,455.6,465.8,455.6L465.8,455.6z"/>
						<path class="st6" d="M492.8,527.3L492.8,527.3c-0.1,0.2-0.3,0.3-0.4,0.5c-1.9,1.8-4.2,3.6-6.4,5.3c-4.5,3.4-9.1,6.8-13.8,10
							c-9.3,6.5-18.8,12.7-28.4,18.9c-9.6,6.1-19.3,12-29.3,17.4c-4.1,2.2-8.2,4.5-12.4,6.5c0,0,0,0-0.1,0c-0.2,0.1-0.4,0.2-0.5,0.3
							c-0.5,0.2-0.9,0.5-1.4,0.7c0,0,0,0,0,0c-0.2,0.1-0.3,0.1-0.5,0.2c0.2-0.1,0.4-0.3,0.6-0.4l0,0c0.4-0.2,0.8-0.5,1.2-0.7
							c1.7-1,3.3-2.1,5-3.2c0.1,0,0.1-0.1,0.2-0.1c0.4-0.3,0.8-0.6,1.2-0.8c0,0,0,0,0,0c1.3-0.9,2.6-1.9,3.9-2.9c0,0,0,0,0,0
							c1.4-1.1,2.8-2.2,4.2-3.4l0,0c0.5-0.4,0.9-0.8,1.4-1.2c0.7-0.6,1.4-1.2,2-1.8c0.1,0,0.1-0.1,0.1-0.1c0,0,0,0,0,0
							c0.2-0.2,0.4-0.3,0.6-0.5c0.3-0.2,0.6-0.5,0.8-0.8c1.9-1.8,3.8-3.6,5.7-5.4c0.7-0.6,1.3-1.3,1.9-1.9c1.9-1.9,3.7-3.9,5.6-5.9
							c0.1-0.1,0.1-0.1,0.2-0.2c0.6-0.7,1.2-1.3,1.8-2c1.1-1.2,2.1-2.3,3.1-3.5c0,0,0.1-0.1,0.1-0.1c0.1-0.1,0.2-0.2,0.3-0.3
							c0,0,0,0,0,0c0.2-0.3,0.5-0.5,0.7-0.8c0,0,0,0,0,0c0.4-0.4,0.8-0.9,1.2-1.4l0,0c0-0.1,0.1-0.1,0.1-0.2
							c2.3-2.8,4.5-5.6,6.8-8.5c0.2-0.2,0.3-0.4,0.5-0.6c0.4-0.6,0.9-1.1,1.3-1.7c1.2-1.5,2.3-3.2,3.3-4.9c1.3-2.3,2.5-4.7,3.6-7.1
							c0.2-0.4,0.3-0.8,0.5-1.1c0,0,0,0,0-0.1c0.1-0.3,0.3-0.6,0.4-1c0,0,0,0,0,0c0.2-0.5,0.4-0.9,0.5-1.4c0.4-1,0.8-2.1,1.1-3.1
							c0.2-0.4,0.3-0.9,0.4-1.4c0.1-0.4,0.2-0.7,0.4-1.1c0,0,0,0,0-0.1c0.1-0.4,0.3-0.9,0.4-1.3c0,0,0,0,0,0
							c0.2-0.7,0.4-1.4,0.6-2.1c0.2-0.8,0.4-1.7,0.6-2.5c0,0,0,0,0,0c0.1-0.5,0.2-1,0.3-1.5c0.2-1.1,0.5-2.1,0.7-3.2
							c0-0.2,0.1-0.3,0.1-0.5c0,0,0,0,0,0c0.3-1.7,0.6-3.4,0.9-5.1c0.2-1.3,0.4-2.6,0.6-3.9c0,0,0,0,0,0c0-0.2,0.1-0.5,0.1-0.7
							c0,0,0,0,0,0c0,0,0,0,0-0.1c0.1-0.6,0.2-1.1,0.2-1.7l0,0c0.2-2,0.4-3.9,0.6-5.9l0,0c0-0.4,0.1-0.9,0.1-1.3
							c0.2-2.7,0.4-5.3,0.5-7.9c0,0,0,0,0,0c0-0.6,0-1.1,0.1-1.7l0-0.3c0-1.2,0.1-2.3,0.1-3.4c0-0.8,0-1.6,0-2.4l0-0.1
							c0-1.4,0-2.8,0-4.1c0-0.4,0-0.7,0-1.1l0-0.1c0-1,0-2-0.1-2.9c0-0.4,0-0.7,0-1.1l0,0c-0.2-4.1-0.4-6.6-0.4-6.9l0.8,2.1
							c8.2,21.2,16.7,42.3,24.3,63.7c0.5,1.3,0.9,2.7,1.4,4C492.4,526,492.6,526.7,492.8,527.3z"/>
						<g>
							<path class="st14" d="M466.3,467.6C466.3,467.7,466.3,467.7,466.3,467.6c-0.3,0.2-0.4-1-0.6,0.3c-0.2-0.6-0.1-2-0.4-2.1
								c0,1.1-0.1,1.6-0.3,1.7c0-0.7,0-3.3,0.5-2.3c-0.2-1.1-0.5-2.5-0.7-3.4c0.1-0.3,0.1-1.1,0.2-1.6c0.2,0.8,0.2,3.5,0.5,2.5
								c-0.1-2,0.1-3.6-0.1-5.4l-0.2,0.5c0-0.4,0-0.6,0-1c-0.1-0.4-0.1-0.8-0.1-1.3c0-0.1,0-0.2,0-0.3c0-0.1,0-0.2,0.1-0.2
								c0.1,0,0.1,0,0.2-0.1l0.2,0.6l0,0c0,0,0,0,0,0c-0.1,0-0.1,0.1,0,0.4c0,1.8,0.2,4.5,0.4,6.5l0,0c0,0.3,0.1,0.7,0.1,1
								c0,0.1,0,0.1-0.1,0.1c-0.1,0.1-0.1,0.1-0.2,0c0,1.2,0.2,1.9,0.3,2.8l0,0.1C466.3,466.9,466.3,467.3,466.3,467.6z"/>
							<path class="st14" d="M464.9,461.9c-0.1-0.2-0.1-0.5-0.2-0.6c0,0.2,0.1,0.4,0,0.7C464.8,462,464.9,462,464.9,461.9z"/>
							<path class="st14" d="M465.1,467.5C465.1,467.5,465.1,467.6,465.1,467.5C465.1,467.8,465.1,467.7,465.1,467.5z"/>
							<path class="st14" d="M465.7,455.8c0,0.1,0,0.2,0,0.3c0,0.1,0,0.2,0,0.3L465.7,455.8z"/>
							<polygon class="st14" points="464.9,464.1 464.9,465.7 465,466.2 							"/>
							<path class="st14" d="M465.1,495.4c0.7-1.3,0.6-3.3,0.8-5c0-3.1-1-0.5-0.8-3.4l1,0.6c0.2-2.9,0.5-7.1-0.2-9.6
								c0.1-0.2,0.3-0.7,0.4,0c0-2-1.2-1-0.8-3.6c0.5,2.4,0.5-0.8,1-0.1l0.1,0.4c0-1.7-0.3-3.9-0.3-4.9c-0.2,0-0.5,0.9-0.5-0.6
								c0,0.6-0.3,0.4-0.5,0.3c0.2,1.5,0,2.3,0.3,3.2c-0.3,0.8-0.1-0.6-0.4,0.3l0.2,1.2c-0.1,0.9-0.2-0.9-0.4,0.5
								c0.2,0.2,0.3,1.3,0.2,2.4l-0.1-0.3c0.1,0.8-0.1,2,0.4,1.6l-0.5,1l0.3-0.2c-0.2,2.3-1.1,3.1-0.9,6c0.2-0.7,0.3,0,0.4,0.3
								c0.4-1.2-0.2-1.5-0.1-2.7c0.4-0.2,0.7,1.8,1,0.4c-0.5,1.5-0.2,2.9-1.1,3.5c-0.2,1.8,0.2,2.6-0.3,4.4l-0.1-0.1
								c0.6,0.4-0.5,1.5,0,3l0.3-1c0.3,0.1,0.2,0.6,0.2,1.2c-0.1-0.1-0.1-0.1-0.3,0.1c0.5,0.3,0.3,2.4,0.4,2.7
								c0.2-0.9-0.1-2-0.1-3.1C464.8,494.7,465.3,494.6,465.1,495.4z"/>
							<path class="st14" d="M465,476.1l0.2,0.6C465.1,476.5,465.1,476.3,465,476.1z"/>
							<path class="st14" d="M462.9,503.7c-0.3,1.1-0.4-0.4-0.8,0.7c0.1,1.3,1-1.2,1.3,0c-0.5,0.7-0.1,1.9-0.2,2.4
								c-0.2-0.6-1-0.4-1.2-0.2c0.1,0.5-0.5,1.4-0.7,2.2c0.9-1.8-0.1,1.6,0.8,0.1c0.4,0.2,0.3,2.1-0.2,2.7c-0.3-0.1-0.1-0.7,0-1.2
								c-0.5-0.5-0.6,1.1-1.2,1.2c0.4,2-1.3,7.6,0.5,6.4c0.4-0.5,0.3-1.2,0.4-1.8c-0.8,1.8-0.7-0.2-0.9-0.4c0.5-0.7,0.4-2.2,0.8-1.8
								c0.1,0.5,0.1,0.9,0.2,1.4c1.4-4,2.5-9.6,3-14.4l-0.4,2c-0.3-0.3-0.2-1.3-0.2-2l-1,0.9c0.2-0.6,0.1-1.1,0.4-1.1
								c-0.2-0.8-0.5-0.5-0.8-0.1c0.1-1.5,0.5-1.7,0.1-3c-1.1,2.4,0.2,2.2-0.9,5L462.9,503.7z"/>
							<polygon class="st14" points="463.4,498.1 463.7,498.8 463.6,497.8 							"/>
							<path class="st14" d="M465,499.3c-0.2,0-0.2-0.4-0.4-0.4C464.3,500.1,464.6,500,465,499.3z"/>
							<path class="st14" d="M460.3,513c-0.1,0.5-0.1,1-0.2,1.5c0.2-0.3,0.3-0.6,0.4-0.9C460.3,513.6,460.3,513.2,460.3,513z"/>
							<path class="st14" d="M459.4,524.1c0.7-2.1,0.6-3.1,1.7-5.3c-0.2-1.3-1.3,0.2-1.7-0.5c-0.5,1.1,0.5,1.3,0.3,2.5
								c-0.6,0.3-0.5,1.8-1,2.8C459,523.7,459.3,523.8,459.4,524.1z"/>
							<path class="st14" d="M454.4,530c-0.5,0.8-0.5,1.9-1.2,2.5c-0.3-0.3-0.1-0.8,0.3-1.3c-0.9-0.1-0.4,1-1.4,1.6
								c0.1,0,0.4-0.3,0.4,0.1c-0.8,1-0.8,1.4-0.9,1.9c-0.1,0.5-0.4,1-1.5,2.2c-0.1,0.5-0.4,0.9,0.1,1.2c-1.7,1.1-1.1,0.3-3,1.8
								c0.3,0.1,1.4,0,1.9,0.4c-2.8,2-2,2.7-3.8,3.9c0.1-0.2,0.2-0.5,0.6-0.9c-0.9-0.4-1,1.5-1.8,2.3l-0.6-0.6
								c-0.6,0.9-1.3,2.7-2.7,3.4l-0.1-0.5c-1.3,2.5-3.6,4.8-4.9,6.7l-1.2,0.6c-1.7,2.8,2.3-2.2,1.7,0.4c-1.4-0.7-0.7,1.6-2.4,2.5
								c-1,0.2,1-1.6-0.1-1.3c0.3,0.8-0.5,0.9-1,1.8c-0.4-0.7-1.5,1.4-1.7,0.4l-1.4,3.4c-0.7,0.1-1.3,0.9-1.8,1.5
								c1.3-1.3,0.4,1.1,2.1-0.1c1.9-2.5,5.2-6.3,8-9c-0.5-1,1.6-1.8,1.4-2.9c0.3,0.1,0.7,0.1,1,0.2c1.4-2-0.8,0.1-0.7-0.6
								c0.6-0.9,1.6-1.2,1.8-0.9c1.2-1.3-0.1-0.3,0.1-1.4l1.6-0.2c1.6-2.2,3.4-4.9,5.3-7.6c1.9-2.7,3.9-5.4,5.8-8l-0.8,0.1
								c0.9-1.1,1.1-2.4,1.4-3.5c0.3-1.1,0.7-2.1,1.8-3l-0.2-1c0.1,0.6,1.1-0.1,1.2,0.8c0.1-0.8,0.6-1.5,0.8-2.3l-0.8,1.2
								c-0.1-1.1,0.6-2,1.2-2.1c0.1-2.2-1.5,0.8-2.2,1c0,3.2-2.3,2.2-3,4.9C453,531.3,454.2,529.7,454.4,530z"/>
							<path class="st14" d="M457.6,527.5c0-0.2,0-0.3,0-0.5C457.6,527.1,457.6,527.3,457.6,527.5z"/>
							<path class="st14" d="M427.8,563.9c-0.2,0.2-0.3,0.3-0.6,0.6C427.2,564.8,427.4,564.4,427.8,563.9z"/>
							<path class="st14" d="M458.8,523.7C458.8,523.7,458.7,523.7,458.8,523.7C458.7,523.7,458.7,523.8,458.8,523.7
								C458.7,523.8,458.8,523.7,458.8,523.7z"/>
							<polygon class="st14" points="457.8,521.9 457.5,522.6 457.8,522.6 							"/>
							<path class="st14" d="M421.3,569.1l0.2,0.3C421.5,569.2,421.5,569.1,421.3,569.1z"/>
							<path class="st14" d="M403.8,583l0.4-0.3C404,582.8,403.9,582.9,403.8,583z"/>
							<polygon class="st14" points="392.9,590.2 392.8,590.2 392.6,589.7 							"/>
							<path class="st14" d="M397.3,588.3c-1.5,0.7-2.9,1.3-4.4,1.9l-0.1-0.2c0.4-0.2,0.8-0.5,0.1-0.5c-0.1,0.1-0.2,0.1-0.3,0.2
								l-0.1-0.1c0.5-0.4,0.9-0.7,1.3-0.8c-0.9,1.2,0.2,0-0.9,1.4c0.9-0.9,2-0.6,2.5-1.5C396.6,587.8,396.8,588.2,397.3,588.3z"/>
							<path class="st14" d="M426.8,565.7c-1.7,3.2-6,6.1-9.2,8.9l-0.1-0.3l-0.1-0.2c-0.9,0.4-1.2,0.9-1.3,1.3l0,0
								c-0.2,0.6-0.2,1.2-1.2,1.8l0-0.8c-0.6,1.2-2.5,2.3-3.5,3.4c0.3-0.4,0.4-0.7,0.5-1c0,0,0,0,0,0c0.2-0.8,0.3-1.4,1.6-2.1
								c-0.1-0.2-0.3-0.5-0.8-0.4c-1,0.9-2.4,2.6-1.8,3.1c-1.2,0.4-2.2,1.5-3,2.3c0,0,0,0,0,0c-0.5,0.5-0.9,0.9-1.2,0.8
								c-0.1,0-0.2-0.1-0.2-0.2c-0.1,0.2,0,0.2,0.1,0.3c0.1,0,0.2,0,0.4,0.1c-1.4,1.3-3.6,2.2-4.7,3.1c0,0,0,0-0.1,0
								c-0.2,0.1-0.4,0.2-0.5,0.3l0-0.2c0,0-0.1,0-0.1,0c-0.5,0.2-0.9,0.4-1.2,0.7l0,0c-0.1,0.1-0.1,0.1-0.2,0.1c0,0,0,0,0,0
								c-0.2,0.1-0.3,0.1-0.5,0.2c-0.8,0.4-1.5,0.7-2.3,1.1c-0.5-0.5,1.2-1.4,1.3-1.8c1.7-0.2,2.2-2,3.8-2.9
								c-0.3,0.3-0.7,0.5-0.6,0.7c1-0.2,0.7-0.6,1.2-1c-0.1,0.1,0,0.1,0,0.2l0.7-0.4c-0.2,0.2-0.3,0.4-0.4,0.4
								c0.2,0.3,1.1-0.2,1.7-0.8c-0.1-0.4,2.2-1.5,2-2.3c0.6,0.4,2.6-1.5,2.8-0.7c1.2-0.9,1.2-1.8,1.8-2.8c1.1-0.6,1.4-0.9,2.3-0.9
								c0.4-0.5,1-0.9,0.7-1.3l-1.1,0.8c1.6-1.9,3.1-1.5,4.3-3.8c-0.1,0.5,0.8-0.3,0.7,0.2c0.2-0.4,0.5-0.8,0.7-1.1
								c0.4,0.5-0.1,1.1,0.2,1.8c0,0,0,0,0,0c0-0.1,0.1-0.1,0.1-0.2c0,0,0,0,0,0c0.2-0.3,0.4-0.5,0.6-0.5c0.4-0.2,0.8,0,1.2-0.8
								c-0.2,0.1-0.4,0.1-0.4,0c-0.2-0.2,0.5-1.3,0.4-1.7l0.5,0.6c0.9-1.3,1.3-2.7,2.5-4.3C424.8,565.7,426.6,565.3,426.8,565.7
								C426.8,565.7,426.8,565.7,426.8,565.7z"/>
						</g>
					</g>
					<g>
						<path class="st9" d="M287.6,584.8c1.6,1.6,3.2,3.1,4.8,4.6c1.7,1.4,3.4,2.8,5.2,4.1c1.8,1.3,3.6,2.6,5.5,3.7
							c1.9,1.2,3.8,2.2,5.8,3.3c-1.1-0.4-2.1-0.7-3.1-1.2c-1-0.5-2-0.9-3-1.5c-2-1-3.9-2.3-5.7-3.6c-1.8-1.3-3.5-2.8-5.1-4.4
							c-0.8-0.8-1.6-1.6-2.3-2.4C288.9,586.6,288.2,585.7,287.6,584.8z"/>
					</g>
					<g>
						<path class="st9" d="M295,580c1.2,1.7,2.5,3.3,3.8,4.9c1.3,1.6,2.6,3.1,4,4.6c1.4,1.5,2.9,2.9,4.4,4.3
							c1.5,1.4,3.1,2.7,4.8,3.9c-1.9-0.9-3.6-2-5.3-3.3c-1.6-1.3-3.2-2.7-4.6-4.2C299.3,587.1,296.8,583.7,295,580z"/>
					</g>
					<g>
						<path class="st9" d="M325.8,604.8c3.1,0.2,6.2,0.4,9.3,0.7l9.3,0.8c-3.1,0.5-6.2,0.5-9.3,0.2
							C331.9,606.2,328.8,605.8,325.8,604.8z"/>
					</g>
					<g>
						<path class="st9" d="M323.1,609.9l10,1.4c1.7,0.2,3.3,0.4,5,0.6c1.7,0.1,3.3,0.3,5,0.3c-3.3,0.6-6.8,0.5-10.2,0.1
							C329.6,611.8,326.3,611.1,323.1,609.9z"/>
					</g>
				</g>
			</g>
		</g>
	</g>
</g>
</svg>
