<?xml version="1.0" encoding="utf-8"?>
<!-- Generator: Adobe Illustrator 22.0.1, SVG Export Plug-In . SVG Version: 6.00 Build 0)  -->
<svg version="1.1" id="Capa_1" xmlns="http://www.w3.org/2000/svg" xmlns:xlink="http://www.w3.org/1999/xlink" x="0px" y="0px"
	 viewBox="0 0 355.9 617.2" style="enable-background:new 0 0 355.9 617.2;" xml:space="preserve">
<style type="text/css">
	.st0{fill:#02B277;}
	.st1{fill:#4DB5BA;}
	.st2{fill:#98A3A8;}
	.st3{fill:#FCDBC0;}
	.st4{fill:#FC990B;}
	.st5{fill:#E8DBC8;}
	.st6{fill:#3A3D3F;}
	.st7{fill:#68CED8;}
	.st8{fill:#7B8488;}
	.st9{fill:#55A6AE;}
	.st10{fill:#039061;}
	.st11{fill:#CB7C0A;}
	.st12{fill:#F4D3B5;}
	.st13{fill:#FFC69F;}
	.st14{fill:#422E1F;}
	.st15{fill:#36261A;}
	.st16{fill:#3F9296;}
	.st17{fill:#303234;}
	.st18{fill:#423630;}
	.st19{fill:#FFB583;}
	.st20{fill:#4C3522;}
	.st21{fill:#3E2C1D;}
	.st22{fill:#302218;}
	.st23{fill:#533D2B;}
	.st24{fill:#5A4533;}
	.st25{fill:#513420;}
	.st26{fill:#492F1D;}
	.st27{fill:#634028;}
	.st28{fill:#FFD6BB;}
	.st29{fill:#933127;}
	.st30{fill:#5A3A25;}
	.st31{fill:#513521;}
	.st32{fill:#694730;}
	.st33{fill:#6F4E38;}
	.st34{fill:#CDCDCD;}
	.st35{fill:#FFFFFF;}
</style>
<g>
	<path class="st0" d="M60.2,420.8c-2.9-6.3-5.7-12.5-8.6-18.8c-10.9-24.1-22-48.6-26.1-74.8c-2.3-14.5-2.4-29.2-1.2-43.8
		c1.3-15.7,4.4-32.3,15.1-44c22-24,52.2-5.3,66.7,15.7c11.3,16.2,19.6,34.5,24.4,53.7c5.4-22.3,11.3-45.7,26.5-62.9
		c10.2-11.6,24.8-19.7,40.2-20.4c15.4-0.7,31.4,7,39,20.4c4.1,7.3,5.6,15.9,6.4,24.3c2.3,26.1-2.5,52.3-8.5,77.7
		c-11.8,50.4-28.7,99.6-50.3,146.7c-7,15.4-16.4,34.4-31.8,43.1c-25.5,14.3-50.8-38.3-60.4-54.8C80,462.8,69.9,441.9,60.2,420.8"/>
	<path class="st1" d="M164.8,447.7c6,3.5,11.9,7,17.9,10.5c14.7,8.6,30,17.8,39,32.2c4.7,7.6,9.3,18.1,11.6,26.7
		c1.1,3.9,1.9,8.6-0.9,11.6c-1.1,1.2-3.5,1.1-5.7,0.9c-1.1-0.1-2.1-0.1-2.9-0.1c-11.3,1.2-22.5-4.1-30.9-11.7
		c-8.4-7.6-14.5-17.4-20.4-27.2c-5.8-9.7-11.7-19.7-19.7-27.7c-3.4-3.4-7.2-6.5-10.1-10.4c-3-4.3-6.7-13.5,0.5-14.2
		C150,437.8,159.2,444.5,164.8,447.7"/>
	<path class="st2" d="M131.6,570.2c-7.4,11.8-12.8,24.8-15.8,38.4c27.2,3.6,55,3.4,82.1-0.7c0.6-14.5-0.3-29.1-3-43.4L131.6,570.2"
		/>
	<path class="st3" d="M105.3,513.3c0,0,4.1,2,6.6,1.4l0.1,9.6l-6.4,1.4l-4.7-5.7L105.3,513.3z"/>
	<path class="st4" d="M94.2,529c0.2,1.4,0.5,3.1,1.8,3.7c0.4,0.2,0.9,0.2,1.4,0.2c3.6,0,7.1-1.5,9.5-4.2c0.7-0.7,1.3-1.6,1.3-2.6
		c0-2.8-4.2-4.2-4.1-7c0-1.6,1.5-2.8,2-4.3c0.6-2.1-0.8-4.2-2.2-5.9c-1.7-2.2-3.4-4.3-5.1-6.5c-1.4-1.9-2.9-3.8-5-4.9
		c-1.5-0.9-3.3-1.4-5.1-1.3c-7.3,0.3-0.4,9.6,0.8,12.8C91.8,515.4,93.4,522.2,94.2,529z"/>
	<path class="st5" d="M97.4,532.9c-0.5,0-0.9,0-1.4-0.2c-1.3-0.6-1.6-2.3-1.8-3.7c-0.8-6.8-2.4-13.6-4.8-20
		c-1.2-3.1-8-12.5-0.8-12.8c1.8-0.1,3.6,0.4,5.1,1.3c-0.3,2.1-1.1,4.1-2.6,5.6c-0.3,0.3-0.6,0.6-0.6,1c0,0.3,0.1,0.5,0.3,0.7
		c3.5,6.4,3.1,14.1,4.2,21.3C95.4,528.6,95.8,530.9,97.4,532.9z"/>
	<path class="st5" d="M98.7,501.9c-0.2,1.4-0.9,2.7-1.9,3.7c-0.2,0.1-0.2,0.4,0,0.5c0.1,0.2,0.4,0.2,0.5,0c1.2-1.1,1.9-2.6,2.1-4.2
		c0-0.2-0.1-0.4-0.3-0.4C98.9,501.5,98.7,501.7,98.7,501.9L98.7,501.9z"/>
	<path class="st5" d="M101.1,504.5c-0.6,1.3-1.3,2.5-2.1,3.6c-0.1,0.2-0.1,0.4,0.1,0.5c0.2,0.1,0.4,0.1,0.5-0.1
		c0.9-1.2,1.7-2.4,2.2-3.8c0.1-0.2,0-0.4-0.2-0.5C101.4,504.2,101.2,504.3,101.1,504.5L101.1,504.5z"/>
	<path class="st5" d="M102.8,506.9c-0.4,1.3-1,2.5-1.9,3.5c-0.1,0.2-0.1,0.4,0,0.5c0.2,0.1,0.4,0.1,0.5,0c1-1.1,1.7-2.4,2-3.8
		c0.1-0.2-0.1-0.4-0.3-0.5C103.1,506.5,102.9,506.7,102.8,506.9L102.8,506.9z"/>
	<polygon class="st6" points="110.1,514 111.2,525.6 125.2,525.3 124.3,514.6 	"/>
	<path class="st7" d="M174.6,457.3c10.4,9.2,20.5,20.8,20.6,34.7c0,4.8-1.9,8.9-2.4,13.5c-0.7,6.6,1.1,14.5,1.6,21.1
		c1.1,13.9,2.1,27.7,3.2,41.6c0.1,1.3,0.2,2.8-0.6,3.9c-0.7,0.9-1.9,1.3-3,1.7c-18.6,5.8-44.9,8.7-63,0c-0.5-0.2-1-0.5-1.3-1
		c-0.3-0.5-0.2-1.1,0-1.7c2.5-13.4,2.6-28.6-2.6-41.3c-5.7-14-10.7-27.2-21.3-38.4c-3-3.2-6.4-6.2-8.8-9.9
		c-4.1-6.1-5.3-13.8-4.9-21.1c0.2-3.9,0.9-8,3.2-11.2c2-2.9,5.1-4.9,8.3-6.4c11.2-5.4,24.5-8,36.6-4.4c2.9,0.8,5.6,2,8.4,3.2
		C158.4,445.8,166.7,450.3,174.6,457.3"/>
	<path class="st8" d="M187.6,575.5c-4,1-8.2,1.8-12.5,2.5c7.7,3.7,15.5,6.3,14.1,17.6c-0.1,1.2-0.4,2.4-0.1,3.6
		c0.3,1.2,1.2,2.3,2.4,2.3c0,0,0,0,0,0c1.4,0,2.4-1.5,2.9-2.8c2.2-5.5,2.1-11.7,1.9-17.6c0-0.4,0-0.9-0.1-1.4
		C193.4,578.2,190.5,576.9,187.6,575.5"/>
	<path class="st9" d="M172.6,530.9c-2,0.8-4.1,3.8-5.2,5.2c-3.5,4.6-5.9,10.1-6.7,15.9c-1,7.3,0.6,15.4,6,20.6
		c2.4,2.3,5.4,3.9,8.4,5.4c4.3-0.6,8.5-1.5,12.5-2.5c-2.2-1-4.3-2-6.5-3c-6.9-3.2-14.3-6.8-18.3-13.3c-1.3-2.1-2.2-4.6-2-7
		c0.2-1.5,0.8-3,1.5-4.3C165.1,541.9,168.6,536.2,172.6,530.9"/>
	<path class="st4" d="M197.8,596.2c-0.3,1.5-0.6,3-0.5,4.6c0.1,1.5,0.8,3.1,2,4c1,0.7,2.3,1,3.6,1c3.6,0,6.9-2.1,9.2-4.8
		c2.4-2.7,3.9-6,5.5-9.2c0.3-0.7,0.7-1.4,1-2.1c1.6-3.3,3.2-7.3,1.5-10.6c-1.6-3-5.5-4.1-8.8-3.3
		C202.8,577.9,199.4,588.7,197.8,596.2z"/>
	<path class="st4" d="M211.6,575.7c2.4-0.1,5.1,1.2,5.9,3.5c0.2,0.7,0.3,1.4,0.3,2.1c0.1,8.1-4,16.2-10.7,20.8
		c-0.7-2.1-1.9-4.2-3.9-5.2c-1.3-0.7-3.1-0.7-4.4,0c-1.6,0.9-1.6,2.2-1.4,3.9c0.1,1.5,0.8,3.1,2,4c1,0.7,2.3,1,3.6,1
		c3.6,0,6.9-2.1,9.2-4.8c2.4-2.7,3.9-6,5.5-9.2c0.3-0.7,0.7-1.4,1-2.1c1.6-3.3,3.2-7.3,1.5-10.6c-1.6-3-5.5-4.1-8.8-3.3"/>
	<path class="st3" d="M213,577.7c0.2,0.1,0.5,0.2,0.6,0.5c0.1,0.1,0.1,0.3,0.1,0.4c0.1,0.8,0.1,1.6-0.2,2.3c-0.3,0.9-1.1,1.6-1.9,2
		c-0.9,0.4-1.8,0.6-2.8,0.6c-0.9,0-1.8,0-2.6-0.4c-0.8-0.3-1.5-1-1.7-1.8c-0.1-0.4-0.1-0.8-0.1-1.2c0-0.9,0.1-1.9,0.6-2.5
		c0.2-0.3,0.5-0.5,0.8-0.7c1.3-0.8,2.8-1,4.3-0.8C211.4,576.4,211.9,577.1,213,577.7z"/>
	<path class="st5" d="M203.5,585.7c0.1,0.1,0.3,0.2,0.4,0.3c1.6,1.3,3.7,2,5.7,2c0.2,0,0.5,0,0.7,0c0.2,0,0.4-0.2,0.4-0.4
		c0-0.2-0.2-0.4-0.4-0.4c-0.2,0-0.4,0-0.6,0c-1.9,0-3.8-0.6-5.3-1.8c-0.1-0.1-0.3-0.2-0.4-0.3c-0.2-0.1-0.4-0.1-0.5,0.1
		C203.3,585.3,203.3,585.5,203.5,585.7L203.5,585.7z"/>
	<path class="st5" d="M201.8,588.2c0.7,1.2,1.9,2.1,3.2,2.7c1.1,0.5,2.3,0.7,3.5,0.7c0.2,0,0.4,0,0.6,0c0.2,0,0.4-0.2,0.4-0.4
		c0-0.2-0.2-0.4-0.4-0.4c-0.2,0-0.4,0-0.5,0c-1.1,0-2.2-0.2-3.2-0.6c-1.1-0.5-2.2-1.3-2.8-2.4c-0.1-0.2-0.3-0.2-0.5-0.1
		C201.8,587.8,201.7,588,201.8,588.2L201.8,588.2z"/>
	<path class="st5" d="M200.5,591.9c0.5,0.9,1.3,1.6,2.2,2.2c0.3,0.2,0.6,0.4,1,0.5c0.2,0,0.4,0.1,0.6,0.1l0,0c0.2,0,0.3,0.1,0.6,0.2
		c0.5,0.2,1,0.3,1.5,0.3c0.1,0,0.2,0,0.3,0c0.2,0,0.4-0.2,0.4-0.4c0-0.2-0.2-0.4-0.4-0.4l-0.2,0c-0.4,0-0.8-0.1-1.2-0.2
		c-0.2-0.1-0.4-0.1-0.6-0.2l0,0c-0.2,0-0.4-0.1-0.6-0.1c-0.3-0.1-0.5-0.2-0.8-0.4c-0.8-0.5-1.4-1.2-1.9-1.9
		c-0.1-0.2-0.3-0.2-0.5-0.1C200.5,591.5,200.4,591.7,200.5,591.9L200.5,591.9z"/>
	<path class="st5" d="M216.2,585.9c0,1-0.6,1.8-1.4,1.8c-0.8,0-1.4-0.8-1.4-1.8c0-1,0.6-1.8,1.4-1.8
		C215.6,584.1,216.2,584.9,216.2,585.9z"/>
	<path class="st4" d="M183.4,424.5c-5.1-9.2-8.1-19.4-11.1-29.4c-0.3-1-0.6-2.1-1.3-2.9c-2.3-2.6-6.6-0.8-9.6,1.1
		c-0.3,0.2-0.4,1-0.4,2.1c0.3,4.8,3.7,16.1,4.3,17.9c2.1,7.1,4.9,14,8.3,20.6c6.5,12.4,16.8,21.7,22.4,34.8
		c-0.1-0.2,9.4-5.8,10.1-6.3c2.2-1.6,4.4-3.4,5.6-5.8c1.1-2.2,1.2-4.8,1.3-7.3c0-0.6,0-1.2-0.2-1.7c-0.4-0.9-1.3-1.3-2.2-1.7
		c-4-1.5-7.9-1.5-11.6-4C192.3,437.6,187.2,431.3,183.4,424.5"/>
	<path class="st10" d="M170.8,392.1C170.8,392.1,170.9,392.2,170.8,392.1L170.8,392.1C170.9,392.2,170.8,392.1,170.8,392.1
		 M170.4,391.8L170.4,391.8c0.1,0.1,0.3,0.2,0.4,0.4C170.7,392,170.6,391.9,170.4,391.8"/>
	<path class="st11" d="M170.4,391.8c-0.3,0.4-0.6,0.7-1,1.1c0,0.5,0.1,1,0.1,1.5c1-1.1,1.3-2.2,1.3-2.2c0,0,0,0,0,0c0,0,0,0,0,0
		C170.7,392,170.6,391.9,170.4,391.8"/>
	<path class="st12" d="M173.8,386.9c1.9-2.8,3.9-6.2,2.9-9.4c-1.2-0.7-2.5,0.7-3.1,2c-0.6,1.3-1.6,2.8-2.9,2.5
		c0.3-5.6,0.2-11.1-0.4-16.7c-0.8-0.8-2.3-0.4-2.9,0.5c-0.7,0.9-0.8,2.1-0.8,3.2c-0.2,2.5-0.3,5.1-0.5,7.6c-0.6-4.2-2-8.3-3.9-12.1
		c-0.9-0.5-2.1,0-2.6,0.9c-0.5,0.9-0.4,2-0.3,3c0.3,2.7,0.8,5.5,1.6,8.1c-1.2-2.4-2.5-4.8-3.7-7.1c-0.3-0.5-0.6-1.1-1.2-1.3
		c-0.7-0.2-1.4,0.4-1.6,1.1c-0.2,0.7-0.1,1.4,0.1,2.1c0.6,2.8,1.6,5.4,2.9,7.9c-1.1-1.3-2.4-2.4-3.8-3.4c-0.5-0.3-1-0.6-1.5-0.6
		c-1.1,0-1.7,1.5-1.4,2.6c0.3,1.1,1.2,1.9,1.9,2.7c2.6,2.8,4,6.5,5.8,10c0.6,1.2,1.3,2.4,2.4,3.2C167,398.5,171,391.2,173.8,386.9"
		/>
	<path class="st13" d="M173.8,386.9c1.9-2.8,3.9-6.2,2.9-9.4c-1.2-0.7-2.5,0.7-3.1,2c-0.6,1.3-1.6,2.8-2.9,2.5
		c0.3-5.6,0.2-11.1-0.4-16.7c-0.8-0.8-2.3-0.4-2.9,0.5c-0.7,0.9-0.8,2.1-0.8,3.2c-0.2,2.5-0.3,5.1-0.5,7.6c-0.6-4.2-2-8.3-3.9-12.1
		c-0.9-0.5-2.1,0-2.6,0.9c-0.5,0.9-0.4,2-0.3,3c0.3,2.7,0.8,5.5,1.6,8.1c-1.2-2.4-2.5-4.8-3.7-7.1c-0.3-0.5-0.6-1.1-1.2-1.3
		c-0.7-0.2-1.4,0.4-1.6,1.1c-0.2,0.7-0.1,1.4,0.1,2.1c0.6,2.8,1.6,5.4,2.9,7.9c-1.1-1.3-2.4-2.4-3.8-3.4c-0.5-0.3-1-0.6-1.5-0.6
		c-1.1,0-1.7,1.5-1.4,2.6c0.3,1.1,1.2,1.9,1.9,2.7c2.6,2.8,4,6.5,5.8,10c0.6,1.2,1.3,2.4,2.4,3.2C167,398.5,171,391.2,173.8,386.9"
		/>
	<path class="st14" d="M170,375.9c-2.5,18,1.2,36.8,10.3,52.6c-2.8,3.9-7.3,6.4-11.9,7.7c-4.6,1.3-9.5,1.5-14.4,1.6
		c-8.9,0.1-17.8-0.1-26.5-1.9c-8.7-1.8-17.2-5.3-24-10.9c-2.3-1.9-4.4-4.1-5.3-6.9c-0.6-1.9-0.7-4-0.6-6c0.2-14.3,3.4-28.5,9.3-41.5
		c2.6-5.7,5.7-11.3,10.6-15.2c3.5-2.8,7.6-4.7,11.7-6.4c4.9-2.1,10.1-4.1,15.5-3.6c5.8,0.6,10.8,4.3,15.5,7.9L170,375.9"/>
	<path class="st10" d="M133.1,436.8c0,0.1,0,0.1,0.1,0.2c1.4,0.1,2.8,0.2,4.2,0.3C136,437.1,134.6,437,133.1,436.8"/>
	<path class="st15" d="M166,399.7c-5.5,11.5-16.3,19.8-32.7,20.5c-0.5,0-1.1,0-1.6,0c-0.2,0-0.4,0-0.7,0c-0.1,3.5-0.1,10.8,2.1,16.6
		c1.4,0.2,2.9,0.4,4.3,0.5c2.8,0.2,5.7,0.2,8.5,0.2c1.3,0,2.6,0,3.8,0c4.8-0.1,9.7-0.3,14.4-1.6c4.6-1.3,9.1-3.8,11.9-7.7
		C171,419.4,167.6,409.7,166,399.7"/>
	<path class="st14" d="M144.4,340.9c6.9,4.4,14,8.9,18.6,15.7c3.9,5.8,5.6,12.7,7.3,19.5c2.4-10.5,4.4-21.6,1-31.9
		c-2.7-8.2-8.7-15.2-16.2-19.6c-7.5-4.3-16.4-6.1-25-5.6c-2.5,0.2-5.2,0.5-7.3,1.9c-2.1,1.4-3.6,4-3,6.5c0.7,2.6,3.3,4.1,5.7,5.2
		C132,335.5,138.3,337,144.4,340.9"/>
	<path class="st3" d="M131.1,418.2c0,0-1.4,14.1,3.6,21.9c0,0,13.7,3,25.8,13c12.1,10-39.4,11.4-39.4,11.4s-4.3,0.2-5.2-5l-5.2-25.5
		l-2.1-21.2L131.1,418.2"/>
	<path class="st13" d="M130.8,420.2c0,0-5.9,2.9-13.7,1.5c0,0-0.8,12.9,7.9,23.7c0,0-3.2,1.8-9.7,0.8l-5.6-33.3L130.8,420.2"/>
	<path class="st4" d="M232.4,445.6c1.5,1.1,2.3,3.2,2.8,5.1c4.7,16.8,2.1,33.9,6.2,50.7c0.3,1.2,0.6,2.5,0.2,3.6
		c-0.6,1.5-2.2,2.3-3.7,2.9c-12.4,4.8-29.5,6.4-41.7-0.1c-1.7-0.9-3.4-2.1-4.5-3.7c-3.1-4-2.5-9.7-1.9-14.7
		c1.1-8.4,2.2-16.8,3.4-25.2c0.7-5.2,0.5-14.9,5.3-18.4c2-1.4,4.6-1.4,7.1-1.3c7.7,0.2,15.3,0.6,23,0.2c0.9,0,1.8-0.1,2.6,0.2
		C231.6,445.1,232,445.3,232.4,445.6"/>
	<path class="st6" d="M188.8,514.1c-11.2,9.1-20.4,20.7-26.5,33.8c-0.7,1.4-1.3,2.8-1.5,4.3c-0.3,2.5,0.6,4.9,2,7
		c4.1,6.5,11.4,10.1,18.3,13.3c5.7,2.7,11.4,5.3,17.1,8c2.6,1.2,5.3,2.4,8.2,2.2c2.8-0.2,5.7-2.5,5.5-5.4c-0.2-2.2-2-3.9-3.8-5.3
		c-7.9-6.4-15.8-12.9-23.8-19.3c8.1-4.6,16.3-9.2,24.4-13.7c5.5-3.1,11-6.2,15.3-10.8c4.3-4.5,7.3-10.8,6.4-17L188.8,514.1"/>
	<path class="st16" d="M192.7,507.4c-0.1,2.1,0,4.2,0.2,6.4l22-1.5c-0.3-0.1-0.6-0.1-0.8-0.2c-5.9-0.1-11.7-1.3-16.7-3.7
		C195.8,508.1,194.3,507.7,192.7,507.4"/>
	<path class="st9" d="M101.3,484.6c7.2,5.5,14.5,11,21.7,16.5c9.2,7,18.6,14,29.4,18c8.6,3.1,17.6,4.1,26.7,4.2
		c3-3.2,6.3-6.3,9.7-9.1l4.2-0.3c-0.2-2.2-0.3-4.4-0.2-6.4c-9.9-2.3-19.8-4.8-29.6-7.5c-1.6-0.4-3.1-0.9-4.7-1.3
		c-13.6-3.9-27.2-8.1-40.6-12.7L101.3,484.6"/>
	<path class="st11" d="M197.4,508.5c5,2.4,10.8,3.5,16.7,3.7c-5-1-9.9-2.1-14.9-3.2C198.6,508.7,198,508.6,197.4,508.5"/>
	<path class="st17" d="M214.9,512.3l-22,1.5l-4.2,0.3c-3.4,2.8-6.7,5.8-9.7,9.1c1,0,1.9,0,2.9,0c1.6,0,3.2,0,4.9-0.1
		c6.3-0.1,12.6-0.5,18.8-1.2c3.2-0.3,6.4-0.7,9.5-1.2c3.1-0.5,5.7-1.5,8.7-2.1c1.1-0.2,2.3-0.3,3.4-0.6c0.7-0.2,3-1,3-2
		c0-1.2-2.8-1.2-3.7-1.4c-3-0.6-6.1-1.2-9.1-1.9C216.6,512.6,215.8,512.5,214.9,512.3"/>
	<path class="st15" d="M145.9,328.8c-0.2,0-0.4,0-0.6,0c0.1,0.2,0.2,0.5,0.3,0.8c0.5,1.7,0.8,3.4,0.8,5.1c0.7,0.4,1.4,0.8,2,1.2
		c9.5,6.2,16.1,15.9,19.5,26.5c-0.3-4.8-1.2-9.6-2.5-14.2c-1.7-5.9-4.4-11.8-9.1-15.7C153.5,330.4,149.6,328.8,145.9,328.8"/>
	<path class="st3" d="M169.1,390.9c-3.7,15.7-15.4,28.5-35.8,29.3c-23,0.9-49.1-17.1-51.3-40.7c-1.2-12.7,1.6-26.1,9.6-36
		c13.2-16.2,39.2-18.9,56.7-7.5C166.3,347.6,173.7,371.5,169.1,390.9"/>
	<path class="st18" d="M119.6,380.7c-0.8-1.2-1.1-2.7-1.1-4.2c0-1.5,0.4-3,1.1-4.4c0.7-1.4,1.8-2.6,3.1-3.5c1.4-0.9,3-1.3,4.5-1.4
		c1.6,0,3.2,0.2,4.7,1c1.4,0.8,2.7,1.9,3.4,3.2c1.6,2.7,1.8,5.6,1.7,8.4l-0.2,0c-0.5-2.7-1-5.5-2.6-7.8c-0.8-1.1-1.8-2.1-3.1-2.6
		c-1.2-0.6-2.6-0.8-4-0.8c-1.4,0.1-2.7,0.4-3.9,1.1c-1.2,0.7-2.1,1.7-2.9,2.9c-0.7,1.2-1.2,2.5-1.4,3.8c-0.2,1.4,0,2.8,0.5,4
		L119.6,380.7z"/>
	<path class="st18" d="M152,375.5c-0.4-1-0.8-2-1.1-3c-0.3-1-0.6-2.1-0.5-3.3c0-1.2,0.4-2.4,0.9-3.5c0.6-1.1,1.5-2,2.7-2.7
		c1.2-0.6,2.5-0.8,3.8-0.6c1.3,0.2,2.6,1,3.3,2c1.4,1.9,1.9,4.3,1.4,6.4l-0.2,0c-0.1-2-0.9-4.1-2.2-5.6c-0.7-0.8-1.6-1.3-2.6-1.4
		c-1-0.1-2,0.1-2.9,0.5c-1.8,0.9-2.9,2.9-3.1,4.9c-0.2,2,0.3,4.1,0.6,6.1L152,375.5z"/>
	<path class="st19" d="M153.5,380.4c0.5,0.1,1,0.3,1.3,0.7c0.2,0.3,0.3,0.7,0.3,1.1c0,2.5-2.2,4.6-4.6,4.9c-0.9,0.1-1.8,0-2.5-0.5
		c-1.2-0.9-1.3-2.6-1.2-4c0-0.8,0.1-1.6,0.3-2.3c0.6-1.7,1.2-1.3,2.4-0.9C150.8,379.7,152.1,380.1,153.5,380.4z"/>
	<path class="st20" d="M132.2,356.8c-2.5,1.9-5,3.7-7.5,5.5c-4.4,3.2-11,7.6-13,12.9c-1.7,4.3-1.1,10.7-1.3,15.3
		c-0.4,9.2-0.9,18.6,0.7,27.7c1.6,9.1,6.3,17.5,9.8,26c0.6,1.4,1.3,1.9,2.4,3.5c-4.7,0.5-8.6,0.8-13.4,0.1
		c-12.3-1.9-25.3-4.3-34.4-12.5c-1-0.9-1.9-1.9-2.1-3.2c-0.1-0.8,0.2-1.6,0.4-2.4c4.8-16.2-1.3-28.5-7.6-43.1
		c-4.2-9.9-5.9-20.9-3.8-31.5c1.3-6.7,3.6-16.7,8.2-22c11.7-13.7,33.1-18.9,50.4-17.7c10.1,0.7,21.5,4.7,24.6,14.3
		c2.2,6.6-0.5,14-4.9,19.4C138.2,352,135.2,354.5,132.2,356.8"/>
	<path class="st21" d="M111.6,375.2c-4.2,4.5-5.3,14.4-5.3,20.5c0,6.2,0.3,12.4,0.8,18.6c0.5,6.7,1.3,13.4,3.7,19.6
		s6.5,10.7,12.4,13.9c-1.2-1.6-1.8-2.1-2.4-3.5c-3.6-8.5-8.2-16.9-9.8-26c-0.9-4.9-1.1-9.8-1.1-14.8c0-4.3,0.2-8.7,0.4-13
		C110.5,385.8,109.9,379.5,111.6,375.2"/>
	<path class="st18" d="M124.1,391.9c0.8,0.2,1.6,0.5,2.4,0.6c0.8,0.2,1.6,0.4,2.3,0.6c1.6,0.3,3.1,0.6,4.6,0.8
		c1.5,0.2,3.1,0.2,4.7,0.2l1.2,0l1.2-0.1c0.8,0,1.6-0.2,2.5-0.3l0,0.1c-1.5,0.6-3.1,1.1-4.8,1.3c-1.6,0.2-3.3,0.3-4.9,0.1
		c-1.6-0.2-3.3-0.6-4.8-1.1c-1.6-0.5-3.1-1.2-4.5-2.1L124.1,391.9z"/>
	<path class="st22" d="M145.7,350.7c0,0,3-8.9,10.5-1.1C156.2,349.6,151,346.6,145.7,350.7z"/>
	<path class="st20" d="M140.8,324c2.9,3,4.5,6.9,5,10.8c0.5,3.9-0.1,7.8-1.4,11.5c-1.4,3.6-3.6,6.8-6.2,9.5c-2.6,2.7-5.5,5-8.6,7
		c-3.1,2-6.4,3.6-9.6,5.4c-1.6,0.9-3.1,1.8-4.5,2.9c-1.4,1.1-2.7,2.3-3.8,3.7c-2.3,2.8-4,6-5.4,9.3c-1.4,3.3-2.5,6.8-3.5,10.3
		c0.9-3.5,1.8-7,3.1-10.5c1.2-3.4,2.8-6.8,5.1-9.7c1.1-1.5,2.4-2.8,3.8-4.1c1.4-1.2,3-2.2,4.5-3.2c3.1-1.9,6.3-3.6,9.2-5.7
		c2.9-2.1,5.6-4.4,7.9-7c2.3-2.6,4.2-5.7,5.2-8.9c1-3.2,1.4-6.7,0.8-10c-0.6-3.3-2-6.3-4.4-8.5L140.8,324z"/>
	<path class="st23" d="M127.5,341.7c-0.1,0-0.1,0-0.2,0c1.1-1.4,2.1-3,2.3-4.8c0.1-1.2-0.2-2.5-0.9-3.5c-0.4-0.6-1.1-1-1.3-1.7
		c0.1,0,0.3-0.1,0.5-0.1c1.1,0,2.4,0.9,3.1,1.7c1,1.1,1.5,2.5,1.6,4c0.1,1.7-0.3,3.5-1.5,4.7c-0.6,0.6-1.5,1-2.3,1.4
		c-0.6,0.3-1.3,0.6-1.9,0.6c-0.1,0-0.3,0-0.4,0c0.7-0.8,1.4-1.6,2-2.5C128.1,341.6,127.8,341.7,127.5,341.7 M115.1,321.2
		c-7.1,0-14.1,2.1-20.9,4.2c-5.7,1.8-11.9,3.9-15.2,9c5.2-2.1,10.8-3.2,16.4-3.2c0.7,0,1.4,0,2.1,0.1c-1.5,0.6-2.7,1.8-3.4,3.2
		c6.4,0,12.8,0.3,19.1,0.7c0.8,0.1,1.6,0.1,2.4,0.4c3.1,1.3,3,5.9,1.6,9c-2.8,6.3-8.1,11.4-14.6,13.9c2.1,0.3,4.1,0.5,6.2,0.5
		c4.8,0,9.5-0.9,13.9-2.9c6.2-2.9,11.4-8,13.9-14.4c1.4-3.7,1.9-7.9,0.1-11.4c-2.9-5.7-11.1-7.7-17-8.6
		C118.2,321.3,116.6,321.2,115.1,321.2"/>
	<path class="st22" d="M117.5,358.3c0,0,4.8-13,13-3.9C130.5,354.4,124.1,351.9,117.5,358.3z"/>
	<path class="st24" d="M127.9,331.6c-0.2,0-0.3,0-0.5,0.1c0.1,0.7,0.9,1.1,1.3,1.7c0.7,1,1,2.3,0.9,3.5c-0.2,1.8-1.1,3.4-2.3,4.8
		c0.1,0,0.1,0,0.2,0c0.3,0,0.6-0.1,0.9-0.2c-0.6,0.9-1.3,1.7-2,2.5c0.1,0,0.3,0,0.4,0c0.7,0,1.3-0.3,1.9-0.6
		c0.8-0.4,1.6-0.8,2.3-1.4c1.2-1.2,1.6-3,1.5-4.7c-0.1-1.4-0.6-2.9-1.6-4C130.2,332.5,129,331.6,127.9,331.6"/>
	<path class="st12" d="M202.2,429.8c2.5,5.5,3.8,11.6,3.6,17.6c0,0.5,0,1-0.3,1.4c-0.2,0.3-0.5,0.5-0.7,0.6
		c-1.1,0.7-2.1,1.4-3.2,2.2c1,3.8,5.1,6.2,9.1,6.2s7.6-1.9,10.9-4.2c1.4-1,2.1-2.3,3-3.8c0.9-1.5,1.4-3.4,1.4-5.4
		c-2.5,0-5.1,0.5-7.6,0.4c-0.8-4.6-1-9.1-0.4-13.7L202.2,429.8z"/>
	<path class="st13" d="M217.6,437l-13.3-1.5C204.4,435.5,206.1,445.9,217.6,437z"/>
	<path class="st25" d="M211.9,363.5c-5.8-2.6-13.1-4-18.2-0.2c-2.8,2.1-4.4,5.3-6.8,7.9c-2.3,2.6-6.2,4.6-9.2,3
		c-1.5,5.2,1.2,11,5.4,14.5c4.2,3.4,9.7,4.9,15.1,5.7c3,0.4,6,0.7,9,0.1c5.1-1,9.7-4.5,12-9.2C223,377.2,220.1,367.1,211.9,363.5"/>
	<path class="st26" d="M177.7,374.1c-0.3,1-0.4,2-0.4,3c0,4.3,2.4,8.6,5.8,11.4c0.8,0.7,1.6,1.2,2.5,1.8c0.9-1.1,1.8-2.1,2.7-3.1
		c2.1-2.3,4.4-4.6,6.8-6.8c-1.7,0.3-3.4,0.4-5.1,0.4c-3.6,0-7-0.8-9.7-3.1C178.9,376.8,177.9,375.8,177.7,374.1L177.7,374.1"/>
	<path class="st3" d="M216.8,370.9c-3.1,0.1-6.2,0.6-9.1,1.7c-7.7,2.8-13.9,8.6-19.4,14.7c-3,3.3-6,6.8-7.8,11
		c-3.1,7-2.4,15.5,1.3,22.2c8,14.5,29.4,18.4,44.6,15.8c23.5-4.1,28.6-33.2,17.2-51.4C237.9,375.9,227.2,370.6,216.8,370.9"/>
	<path class="st18" d="M207.3,401.9c0.7-2.2,2.1-4.3,4.3-5.6c1.1-0.7,2.4-1,3.8-1.1c1.4,0,2.8,0.4,4,1.2c2.3,1.7,3.4,4.3,3.4,6.9
		c0,2.5-0.9,4.8-2.2,6.7l-0.2-0.1c0.7-2.1,1.2-4.3,1-6.5c-0.2-2.2-1.2-4.3-3-5.6c-1.8-1.3-4.2-1.2-6.2-0.3c-2,0.9-3.5,2.6-4.7,4.5
		L207.3,401.9z"/>
	<path class="st18" d="M198.7,394.4c0.7-1.3,1.4-2.7,1.6-4.1c0.1-0.7,0-1.5-0.4-2.1c-0.4-0.6-1-1.1-1.7-1.3
		c-1.4-0.5-2.9-0.2-4.3,0.3c-1.4,0.5-2.7,1.4-3.4,2.7l-0.1-0.1c0.1-0.8,0.6-1.5,1.1-2.1c0.6-0.6,1.3-1.1,2-1.4
		c1.5-0.7,3.2-1.2,5.1-0.6c0.9,0.3,1.8,1,2.3,1.9c0.5,0.9,0.6,2,0.4,2.8c-0.4,1.7-1.4,3-2.5,4.1L198.7,394.4z"/>
	<path class="st19" d="M196.5,398.2c-0.8-0.2-1.9-0.3-2.5,0.4c-0.2,0.3-0.3,0.7-0.3,1.1c-0.1,1.4,0.5,2.9,1.7,3.7s3,0.6,3.8-0.5
		c0.5-0.7,0.6-1.7,0.7-2.6C199.9,397.9,198.1,398.6,196.5,398.2z"/>
	<path class="st25" d="M260,384.6c1.2,2.6,2,5.4,2.7,8.1c0.7,2.6,1.4,5.2,1.7,7.8c1,7.3-0.3,14.9-3.7,21.4c-1.2,2.3-2.7,4.6-4.7,6.2
		c-1.1,0.9-2.4,1.6-3.7,2.2c-7.6,3.9-16.3,7.1-24.7,5.3c2.4,0.5,7.1-5.7,8.6-7.1c1.7-1.6,3.6-3.6,3.5-6c0-0.9-0.3-1.7-0.6-2.6
		c-3-9-2.4-18-4.3-27.1c-0.6-2.8-1.9-5.3-2.8-8c-1.6-4.3-2.2-8.8-2.7-13.3c-0.1-1.2-1-4.9-0.1-5.8c0.8-0.8,4-0.1,5.1,0
		c7,0.9,13.8,4.2,18.8,9.1C256.1,377.9,258.4,381.1,260,384.6"/>
	<path class="st27" d="M222.9,389.6c0.5,0.4,1,0.9,1.6,0.7c0.4-0.1,0.6-0.4,0.9-0.6c1.1-1.2,2.2-2.3,3.3-3.5
		c1.1,2.6,1.2,5.6,0.4,8.3c-0.3,0.8-0.6,1.7-0.4,2.5c0.1,0.7,0.6,1.3,1.1,1.9c2.8,3.5,5,7.4,6.6,11.5c4.1,0.1,6.9-4,8.2-7.9
		c1.6-4.5,2.3-9.4,2.1-14.1c-0.2-5-2.7-11.8-8.9-11.5c1.9-9.2-8.2-18.7-16.4-20.4c-5.9-1.2-12.1-0.1-17.7,2.3
		c-7.7,3.3-14.8,9.6-16.2,17.9c4-0.4,7.9,0.3,11.9,0.7C207.9,378.3,216.8,383.9,222.9,389.6"/>
	<path class="st28" d="M236.4,414.5c1.9-1.2,4.3-1.7,6.5-1.2s4.2,2,5.1,4c1.3,2.9,0.3,6.4-1.4,9.1c-1.9,3.1-4.8,5.8-8.4,6.5
		c-3.6,0.8-7.7-0.7-9.3-4L236.4,414.5z"/>
	<ellipse transform="matrix(0.5 -0.866 0.866 0.5 -246.8194 418.9281)" class="st19" cx="239.4" cy="423.2" rx="3.6" ry="1.8"/>
	<path class="st29" d="M257.5,383.8c-0.7,0.4-1.3,1-1.8,1.5c-3.7,4-5.9,9.3-6,14.8c0,1.8,0.2,3.7,1.3,5.1c1.1,1.5,3.2,2.3,5.1,2.1
		c1.9-0.2,3.6-1.3,4.9-2.7c0.5-0.6,0.9-1.2,1.3-1.9c2.3-4,4.3-9.8,3.5-14.5C265,384.6,261.2,381.6,257.5,383.8"/>
	<path class="st27" d="M268,382.9c5-0.9,10.3,1.3,13.5,5.1c3.3,3.8,4.6,9.2,4,14.2c-0.4,3.7-1.8,7.3-2.4,11c-0.6,3.7-0.4,7.9,2,10.8
		c0.4,0.4,0.8,1,0.6,1.5c-0.1,0.2-0.3,0.4-0.5,0.5c-7.1,5-17.4,3.9-24-1.8c-6.5-5.6-9.1-15.1-7.5-23.5c0.8-4,3.3-7,5.1-10.4
		C260.7,386.6,263.7,383.7,268,382.9"/>
	<path class="st30" d="M268,420.4c-0.9,2.2-1.8,4.4-2.8,6.6c2.9,1.5,6.3,2.3,9.5,2.3c3.7,0,7.4-1,10.5-3.2c-0.8,0.1-1.5,0.1-2.3,0.1
		C277.4,426.2,272.2,424,268,420.4 M258.8,390.4c-1.8,3.5-4.3,6.5-5.1,10.4c-0.3,1.7-0.5,3.4-0.5,5.1c0,3,0.5,6.1,1.5,8.9
		c1.4-3.2,2.7-6.4,3.9-9.7C257.6,400.4,257.7,395.3,258.8,390.4"/>
	<path class="st18" d="M196.8,410.4c2.8,1.2,5.7,2.1,8.7,2.4c1.5,0.2,3,0.4,4.5,0.3c1.5-0.1,3.1-0.2,4.2-1.2l0.1,0.1
		c-0.4,0.7-1.2,1.1-1.9,1.5c-0.8,0.3-1.6,0.5-2.4,0.6c-1.6,0.2-3.2,0.1-4.7-0.1c-1.6-0.2-3.1-0.6-4.5-1.2c-1.4-0.6-2.8-1.4-4-2.4
		L196.8,410.4z"/>
	<path class="st14" d="M200.6,378.7c0,0,5-5.3,6.4,1.4C207,380.1,205.1,377.3,200.6,378.7z"/>
	<path class="st14" d="M219.4,387.2c0,0,5-4.1,5,4.4C224.4,391.6,223.5,386.9,219.4,387.2z"/>
	<path class="st4" d="M251.5,421.4c5.8-10.4,9.1-21.9,12.6-33.3c0.4-1.1,0.7-2.3,1.5-3.2c2.6-3,7.5-0.9,10.8,1.3
		c0.4,0.3,0.5,1.1,0.4,2.4c-0.4,5.5-4.2,18.2-4.8,20.2c-2.3,8-5.5,15.8-9.4,23.3c-7.3,14-19,24.5-25.3,39.4c0.1-0.3-6.8-4.2-7.3-4.6
		c-2.4-1.5-7-3.2-7.1-6.4c-0.1-4,1.5-8.6,2.5-12.5c0.2-1,0-3.3,0.6-4.1c0.5-0.7,1.3-1.1,2-1.5c2.3-1.3,6-0.8,8-2.5
		c1.9-1.6,3.8-3.6,5.5-5.3C245.5,430.7,248.8,426.2,251.5,421.4"/>
	<path class="st31" d="M276.3,386.1C276.4,386.1,276.4,386.1,276.3,386.1C276.4,386.1,276.4,386.1,276.3,386.1 M276.2,386
		C276.2,386,276.2,386,276.2,386C276.2,386,276.2,386,276.2,386 M265.6,384.9C265.6,384.9,265.6,384.9,265.6,384.9L265.6,384.9
		C265.6,384.9,265.6,384.9,265.6,384.9 M269.2,383.4c-1.3,0-2.5,0.4-3.5,1.4C266.6,383.8,267.8,383.4,269.2,383.4 M269.2,383.4
		L269.2,383.4C269.2,383.4,269.2,383.4,269.2,383.4C269.2,383.4,269.2,383.4,269.2,383.4"/>
	<path class="st11" d="M269.2,383.4C269.2,383.4,269.2,383.4,269.2,383.4c-1.3,0-2.5,0.4-3.5,1.4c0,0,0,0,0,0c0,0,0,0,0,0
		c0,0,1,4.5,6.7,4.5c1.1,0,2.3-0.2,3.7-0.6l0.8-0.3c0-0.3,0-0.5,0-0.8c0-0.9-0.1-1.5-0.4-1.7l0,0c0,0,0,0-0.1,0c0,0,0,0,0,0
		c-0.1,0-0.1-0.1-0.2-0.1c0,0,0,0,0,0C274.1,384.7,271.5,383.4,269.2,383.4C269.2,383.4,269.2,383.4,269.2,383.4"/>
	<path class="st3" d="M262.3,379c-2.1-3.2-4.4-7-3.2-10.7c1.4-0.8,2.9,0.8,3.5,2.2c0.7,1.4,1.8,3.2,3.3,2.8
		c-0.3-6.3-0.2-12.6,0.4-18.9c0.9-0.9,2.5-0.5,3.3,0.5c0.8,1,0.9,2.4,1,3.6c0.2,2.9,0.4,5.7,0.6,8.6c0.7-4.8,2.2-9.4,4.5-13.6
		c1-0.6,2.3,0.1,2.9,1.1c0.5,1,0.5,2.2,0.4,3.4c-0.3,3.1-0.9,6.2-1.8,9.1c1.4-2.7,2.8-5.4,4.2-8.1c0.3-0.6,0.7-1.3,1.4-1.5
		c0.8-0.2,1.6,0.4,1.9,1.2c0.3,0.8,0.1,1.6-0.1,2.4c-0.7,3.1-1.8,6.2-3.3,9c1.3-1.4,2.7-2.7,4.3-3.8c0.5-0.4,1.1-0.7,1.7-0.7
		c1.3,0,2,1.7,1.6,2.9c-0.4,1.2-1.3,2.1-2.2,3.1c-2.9,3.2-4.5,7.4-6.5,11.3c-0.7,1.3-1.5,2.7-2.7,3.6
		C270.1,392.1,265.5,383.8,262.3,379z"/>
	<path class="st27" d="M236.4,377.1c0.3-3.4,0.5-6.7-0.6-9.7c-1.1-3-3.6-5.4-6.3-7.3c-5.6-3.7-12.4-5.6-19.2-5.3
		c6.8-0.7,13.8,0.8,19.8,4.3c3,1.8,5.8,4.2,7.3,7.6c0.8,1.7,1.1,3.5,1.3,5.2c0.1,1.8,0.1,3.5,0.1,5.2L236.4,377.1"/>
	<path class="st27" d="M236.7,375.8c1.8-0.6,3.6-0.4,5.1,0.2c1.5,0.6,2.8,1.7,3.7,3c0.9,1.2,1.5,2.6,1.9,4c0.4,1.4,0.7,2.8,0.7,4.2
		c-0.3-1.4-0.8-2.7-1.4-4c-0.6-1.2-1.4-2.4-2.4-3.3c-1-0.9-2.1-1.5-3.2-1.8c-1.2-0.3-2.4-0.1-3.2,0.4L236.7,375.8"/>
	<path class="st32" d="M210.9,363.2c2-1.1,4.4-1.4,6.7-1.4c0.2,0,0.4,0,0.6,0c1.2,0,2.8,0.1,3.7,0.9c1,0.9,0.2,2.1,0.9,3.1
		c0.4,0.6,1.6,0.6,1.8,1.3c0.1,0.4-0.1,0.9,0.1,1.3c0.2,0.4,0.8,0.3,1.2,0.4c1.1,0.2,1.8,1.8,1.1,2.7c-0.2-0.9-0.5-1.9-1.4-2.1
		c-0.3-0.1-0.6-0.1-0.9-0.2c-0.3-0.1-0.5-0.5-0.8-0.7c-0.4-0.4-1-0.7-1.6-0.7c-0.1,0-0.3,0-0.4,0c0.3-0.6-0.2-1.5-0.9-1.7
		c-0.2-0.1-0.5-0.1-0.7-0.1c-0.5,0-0.9,0.1-1.4,0.2c0.2-0.3,0.1-0.8-0.2-1.1c-0.3-0.3-0.7-0.4-1.1-0.4c-0.6-0.1-1.2-0.1-1.8-0.1
		c-0.3,0-0.6,0-0.9,0c0.1-0.5,0.2-0.9,0.3-1.4c-0.9-0.1-1.9-0.2-2.8-0.2C211.8,363.2,211.4,363.2,210.9,363.2 M214.1,360.2
		c-1.4,0-2.8,0.1-3.9,0.1c-4.1,0.3-8.2,1.5-11.2,4.1c2.5-0.8,5.1-1.3,7.7-1.5c-1,1.1-1.7,2.3-2.2,3.7c2.2,0,4.4,0,6.6,0
		c0,0.8,0,1.5,0,2.3c2.5-0.4,5.1-0.6,7.6-0.7c0.2,0.7,0.2,1.5,0.1,2.3c1.6-0.1,3.2-0.1,4.8-0.2c0.1,1,0.3,2,0.4,3.1
		c1,0.5,1.7,1.8,1.4,2.9c1.6-0.5,3.2-1,4.8-1.5c0,1,0,1.9-0.1,2.9c0.4-0.2,0.9-0.3,1.4-0.3c1.4,0,2.8,0.9,3.6,2.2
		c1,1.6,1.2,3.7,1.3,5.6c0.7-0.5,1.5-0.8,2.3-0.9c0.4,1.8,0.6,3.6,0.4,5.4c1.7-2.4,2-5.6,0.9-8.3c-0.4-0.9-1.3-1.8-2.1-1.8
		c-0.2,0-0.4,0.1-0.6,0.2c0.3-0.9,0.1-1.9-0.6-2.6l-0.3,0c0-0.1,0-0.2,0-0.3c-0.2-0.2-0.4-0.3-0.7-0.3c-0.4-0.1-0.9-0.1-1.2-0.4
		c-0.5-0.4-0.4-1.2-0.3-1.8c0.2-2.3-1.2-4.6-3.3-5.5c-0.7-0.3-1.5-0.5-2.1-0.9c-1-0.7-1.4-2-2-3.1
		C224.6,360.9,218.8,360.2,214.1,360.2"/>
	<path class="st32" d="M236.4,376.8c0,0.1,0,0.2,0,0.3l0.3,0C236.6,377,236.5,376.9,236.4,376.8"/>
	<path class="st33" d="M218.2,361.8c-0.2,0-0.4,0-0.6,0c-2.3,0-4.7,0.4-6.7,1.4c0.4,0,0.8,0,1.3,0c0.9,0,1.9,0.1,2.8,0.2
		c-0.1,0.5-0.2,0.9-0.3,1.4c0.3,0,0.6,0,0.9,0c0.6,0,1.2,0,1.8,0.1c0.4,0.1,0.8,0.2,1.1,0.4c0.3,0.3,0.5,0.7,0.2,1.1
		c0.5-0.1,0.9-0.2,1.4-0.2c0.3,0,0.5,0,0.7,0.1c0.7,0.2,1.2,1.1,0.9,1.7c0.1,0,0.3,0,0.4,0c0.6,0,1.2,0.2,1.6,0.7
		c0.2,0.2,0.5,0.6,0.8,0.7c0.3,0.1,0.6,0.1,0.9,0.2c0.9,0.2,1.2,1.3,1.4,2.1c0.6-1,0-2.5-1.1-2.7c-0.4-0.1-1-0.1-1.2-0.4
		c-0.2-0.4,0-0.9-0.1-1.3c-0.2-0.7-1.4-0.7-1.8-1.3c-0.7-1,0.1-2.1-0.9-3.1C221,361.9,219.4,361.8,218.2,361.8"/>
	<path class="st34" d="M224.6,529.5c-0.3,0-0.6,0-0.8,0c-0.4,0-0.8,0.1-1.1,0.1c-4.1,3.8-9,6.6-13.9,9.3c-3.1,1.7-6.1,3.5-9.2,5.2
		c0.1,0,0.1,0,0.2-0.1c8.5-3,17.1-6.1,24.7-10.9c1.4-0.9,2.9-2,3.3-3.5c-0.4,0-0.8,0-1.1-0.1C225.9,529.5,225.2,529.5,224.6,529.5"
		/>
	<path class="st16" d="M226,525.8c-0.6,0.8-1.3,1.6-2,2.4c-0.5,0.5-0.9,1-1.4,1.4c0.4,0,0.8-0.1,1.1-0.1c0.3,0,0.5,0,0.8,0
		c0.6,0,1.3,0.1,2.1,0.1c0.4,0,0.8,0.1,1.1,0.1c0.1-0.4,0.1-0.7,0.1-1.1C227.8,527.4,227,526.4,226,525.8"/>
	<path class="st17" d="M215.8,524.1c-0.6,0-1.3,0-1.9,0.1c-1.4,0.1-5.9,2.2-3.2,4c0.3,0.2,0.7,0.3,1.1,0.3c0.4,0,0.8-0.1,1.2-0.1
		c0.1,0,0.1,0,0.2,0c0.8,0,1.6,0.3,1.7,1.1c0.1,0.8-0.8,1.3-1.5,1.6c-3.7,1.5-7.1,3.6-10.2,6c-2.1,1.6-4.2,3.7-4.5,6.4
		c0,0.2,0,0.5,0.1,0.7c0.1,0.1,0.3,0.2,0.5,0.2c0.1,0,0.3,0,0.4-0.1c3.1-1.7,6.1-3.5,9.2-5.2c4.9-2.7,9.8-5.5,13.9-9.3
		c0.5-0.5,1-0.9,1.4-1.4c0.7-0.7,1.4-1.5,2-2.4c0,0-0.1,0-0.1-0.1c-1-0.6-2.2-0.9-3.4-1C220.4,524.4,218.1,524.1,215.8,524.1"/>
	<path class="st3" d="M212.6,524.4c-1.1,0.7-2.4,1.9-2,3.2c3.9,0.5,7.9,0.6,11.9,0.5c-1,0-3.3,3.1-4.3,3.8c-1.7,1.2-3.5,1.9-5.4,2.9
		c-4,2-7.8,4.5-11.6,6.9c-5.1,3.2-1.9,5,2.6,4.6c6.3-0.7,12.8-1.4,18.6-4.2c6.1-3,16.9-15.2,8.8-21.7
		C226.2,516.2,217,521.5,212.6,524.4z"/>
	<path class="st11" d="M236.3,478.7c-1.6,2.5-2.8,5.2-4.4,7.7c-0.6,1-1.2,1.9-2,2.7c-1.2,1.2-2.8,2.1-4.3,2.9
		c-2,1.1-4.1,2.2-6.1,3.3c1.8,1.1,4,1.3,6.1,1.4c0.4,0,0.9,0,1.4,0c1.4,0,2.8-0.2,4.1-0.8c1.8-0.9,3.1-2.6,3.9-4.4
		c0.8-1.9,1.1-3.9,1.3-5.9C236.5,483.9,237.6,480,236.3,478.7"/>
	<path class="st3" d="M237.6,475.6c0.4-1.1,1.1-2.4,2.3-2.4c1.3,0.1,1.7,1.8,1.8,3.1c0.1,2.6,0.2,5.2,0.2,7.8
		c-0.4-1.5,1.4-2.9,2.9-2.6c1.5,0.3,2.6,1.7,3,3.2c0.4,1.5,0.3,3.1,0.3,4.6c0.1,4.7,1.3,9.5,0.7,14.2c-0.6,4.7-3.9,9.6-8.7,9.7
		c-4.1,0.1-7.4-3.6-8.4-7.6C229.8,496.9,234.7,483.7,237.6,475.6z"/>
	<path class="st7" d="M162.6,484.1c4,3,8.1,6.1,12.9,7.4c3.4,0.9,7,0.9,10.5,0.8c10.1-0.1,20.1,0,30.2,0.2
		c6.8,0.1,19.6-2.4,24.3,3.7c2,2.6,2.8,6,2.8,9.3c0,1.8-0.2,3.5-0.7,5.2c-3.4,9.5-14.2,6-21.8,6.1c-11.3,0.2-22.6,0.4-33.9,0.5
		c-8.2,0.1-16.4,0.2-24.4-1.6c-4.3-0.9-8.5-2.4-12.6-4c-18-6.9-34.9-16.4-50.2-28.1c-3.7-2.8-7.4-5.9-9.1-10.2
		c-1-2.6-1.3-5.4-1.3-8.2c0-3.7,0.4-7.5,2.2-10.7c7.8-14,22.4-3.1,31.3,2.4C136.5,465.3,149.8,474.4,162.6,484.1z"/>
	<path class="st0" d="M331.9,365.9c5.3-4.9,10.3-10.1,14.5-16.2c4.1-6.1,8.3-15.8,4.9-23.2c-3.3-7.2-11.7-5.1-16.6-1.4
		c-3.8,2.9-7.1,6.5-9.7,10.6c0.4-5.6,0.8-11.4-1.4-16.6c-1.5-3.4-4.3-6.4-7.8-7.7c-3.5-1.3-7.8-0.7-10.6,1.8
		c-1.5,1.4-2.5,3.3-3.3,5.1c-2.5,5.9-3.3,12.3-3.9,18.6c-1.5,18.2-1.7,39.5,3.3,57.2c-0.3-1.1,8.2-8.4,9.1-9.2
		C317.2,378.4,324.8,372.4,331.9,365.9z"/>
	<path class="st0" d="M290.6,261c1.3-0.5,2.7-0.8,4-0.6c2.7,0.4,4.7,2.7,5.7,5.3c2.6,7.2,0.7,15.5-3.4,21.7
		c-1.9,2.9-4.2,5.4-6.6,7.9c-8.3,8.8-16.6,17.7-24.8,26.5c-5.5-16.2-8.9-33-10.2-50c-0.5-6.4-0.7-12.8,5.6-15.9c2.1-1,4.2-2,6.5-1.9
		c2.5,0.2,4.6,1.8,6,3.8c1.4,2,2.1,4.5,2.6,6.9c0.9,4.4,1.2,8.8,0.9,13.3c1.7-6.1,5.6-11.7,10.9-15.3
		C288.6,262,289.6,261.4,290.6,261z"/>
	<path class="st0" d="M26.9,513.5c-2-0.1-3.9,0.1-5.7,1c-3.4,1.8-5.1,5.9-5.3,9.7c-0.3,10.9,6.1,21.2,14.4,27.7
		c3.8,3,8.2,5.4,12.5,7.7c15.2,8.2,30.4,16.3,45.6,24.5c0.1-24.3-3-48.6-8.9-72.2c-2.3-8.9-4.9-17.6-14.9-18.9
		c-3.2-0.4-6.7-0.8-9.7,0.4c-3.2,1.4-5.4,4.5-6.4,7.9c-0.9,3.4-0.8,7-0.3,10.4c0.8,6.3,2.4,12.5,4.8,18.3
		c-5.1-7.5-12.9-13.2-21.6-15.7C30,514,28.4,513.6,26.9,513.5z"/>
	<path class="st0" d="M24.2,455.6c-4.6-2.6-9.1-5.5-13.1-9.2c-4-3.6-8.6-10-7.4-15.8c1.1-5.7,7.5-5.7,11.7-3.8
		c3.2,1.4,6.2,3.5,8.7,6c-1.2-3.9-2.5-8.1-1.8-12.1c0.5-2.7,2-5.3,4.3-6.9c2.3-1.5,5.5-1.8,7.9-0.5c1.3,0.7,2.3,1.9,3.2,3.1
		c2.8,3.8,4.5,8.2,5.9,12.7c4.1,12.8,7.9,28,7.3,41.6c0-0.8-7.3-4.6-8-5.1C36.8,462.1,30.4,459.1,24.2,455.6z"/>
	<path class="st0" d="M296.8,466.8c1.4-0.2,2.8-0.2,4,0.3c2.5,1,4.1,3.7,4.4,6.4c1.1,7.6-2.6,15.2-7.9,20.4
		c-2.4,2.4-5.3,4.4-8.1,6.3c-10,6.9-19.9,13.8-29.9,20.7c-1.9-17-1.7-34.2,0.6-51.1c0.9-6.4,2-12.7,8.9-14.4
		c2.2-0.6,4.6-1.1,6.8-0.4c2.4,0.7,4.1,2.7,5.1,5c0.9,2.3,1.1,4.8,1.1,7.3c-0.1,4.4-0.7,8.9-1.9,13.2c3-5.6,8-10.2,13.9-12.7
		C294.7,467.3,295.8,467,296.8,466.8z"/>
	<polygon class="st35" points="152.4,45.6 149.2,45.6 149.2,55.6 151.3,55.6 151.3,57.1 149.2,57.1 149.2,67.9 147.7,67.9 
		147.7,44.1 152.4,44.1 	"/>
	<polygon class="st35" points="152.4,45.6 152.4,45.2 148.8,45.2 148.8,56 150.9,56 150.9,56.7 148.8,56.7 148.8,67.5 148.1,67.5 
		148.1,44.4 152.1,44.4 152.1,45.6 152.4,45.6 152.4,45.2 152.4,45.6 152.8,45.6 152.8,43.7 147.3,43.7 147.3,68.3 149.5,68.3 
		149.5,57.5 151.7,57.5 151.7,55.2 149.5,55.2 149.5,45.9 152.8,45.9 152.8,45.6 	"/>
	<polygon class="st35" points="165.8,45.6 165.8,55.6 168,55.6 168,57.1 165.8,57.1 165.8,66.4 169.1,66.4 169.1,67.9 164.3,67.9 
		164.3,44.1 169.1,44.1 169.1,45.6 	"/>
	<polygon class="st35" points="165.8,45.6 165.5,45.6 165.5,56 167.6,56 167.6,56.7 165.5,56.7 165.5,66.8 168.7,66.8 168.7,67.5 
		164.7,67.5 164.7,44.4 168.7,44.4 168.7,45.2 165.5,45.2 165.5,45.6 165.8,45.6 165.8,45.9 169.5,45.9 169.5,43.7 164,43.7 
		164,68.3 169.5,68.3 169.5,66 166.2,66 166.2,57.5 168.3,57.5 168.3,55.2 166.2,55.2 166.2,45.6 165.8,45.6 165.8,45.9 	"/>
	<polygon class="st35" points="182.5,66.4 185.7,66.4 185.7,67.9 181,67.9 181,44.1 182.5,44.1 	"/>
	<polygon class="st35" points="182.5,66.4 182.5,66.8 185.3,66.8 185.3,67.5 181.4,67.5 181.4,44.4 182.1,44.4 182.1,66.8 
		182.5,66.8 182.5,66.4 182.9,66.4 182.9,43.7 180.6,43.7 180.6,68.3 186.1,68.3 186.1,66 182.5,66 182.5,66.4 182.9,66.4 	"/>
	<rect x="197.6" y="44.1" class="st35" width="1.5" height="23.8"/>
	<polygon class="st35" points="197.6,67.9 198,67.9 198,44.4 198.7,44.4 198.7,67.5 197.6,67.5 197.6,67.9 198,67.9 197.6,67.9 
		197.6,68.3 199.5,68.3 199.5,43.7 197.2,43.7 197.2,68.3 197.6,68.3 	"/>
	<polygon class="st35" points="216.6,44.1 212.7,66.4 216.6,66.4 216.6,67.9 211,67.9 214.8,45.6 211,45.6 211,44.1 216.6,44.1 	"/>
	<polygon class="st35" points="216.6,44.1 216.2,44 212.3,66.8 216.2,66.8 216.2,67.5 211.4,67.5 215.3,45.2 211.4,45.2 211.4,44.4 
		216.6,44.4 216.6,44.1 216.2,44.1 216.2,44.1 216.6,44.1 216.2,44 216.6,44.1 217,44.1 217,44.1 217,43.7 210.6,43.7 210.6,45.9 
		214.4,45.9 210.5,68.3 217,68.3 217,66 213.2,66 217,44.1 217,44.1 	"/>
	<path class="st35" d="M243,44.1c1,0,1.6,0.2,2.1,0.7c0.5,0.4,0.8,1.1,0.8,1.9v18.5c0,0.8-0.3,1.5-0.8,1.9c-0.5,0.5-1.2,0.7-2.1,0.7
		h-2.6V44.1H243z M243,66.6c0.4,0,0.8-0.1,1.1-0.4c0.2-0.3,0.4-0.6,0.4-1V46.7c0-0.4-0.1-0.7-0.4-1c-0.2-0.3-0.7-0.4-1.1-0.4h-1.2
		v21.3H243z"/>
	<path class="st35" d="M243,44.1v0.4c0.9,0,1.4,0.2,1.9,0.6l0,0c0.4,0.4,0.7,0.9,0.7,1.7v18.5c0,0.7-0.2,1.2-0.7,1.7l0.3,0.3
		l-0.2-0.3c-0.5,0.4-1,0.6-1.9,0.6h-2.3V44.5h2.3V44.1v-0.4h-3v24.6h3c1,0,1.8-0.3,2.4-0.8l0,0l0,0c0.6-0.5,0.9-1.3,0.9-2.2V46.7
		c0-0.9-0.3-1.7-0.9-2.2l0,0c-0.6-0.5-1.4-0.8-2.4-0.8V44.1z M243,66.6V67c0.5,0,1-0.1,1.4-0.5l0,0l0,0c0.2-0.3,0.4-0.7,0.4-1.2
		V46.7c0-0.5-0.2-0.9-0.5-1.2l0,0l0,0c-0.4-0.4-0.9-0.5-1.3-0.5l0,0h-1.2h-0.4v22h1.5V66.6v-0.4h-0.8V45.7l0.8,0v-0.4l0,0.4
		c0.4,0,0.7,0.1,0.8,0.3l0,0c0.2,0.2,0.3,0.4,0.3,0.7v18.5c0,0.3-0.1,0.5-0.3,0.8l0.3,0.2l-0.3-0.2c-0.1,0.1-0.4,0.3-0.8,0.3V66.6z"
		/>
	<path class="st35" d="M257.9,67.9V44.1h1.5v23.8H257.9z M261.3,39.6l-1.9,2.8h-1.4l1.9-2.8H261.3z"/>
	<path class="st35" d="M257.9,67.9h0.4V44.4h0.7v23.1l-1.1,0V67.9h0.4H257.9v0.4h1.9V43.7h-2.2v24.6h0.4V67.9z M261.3,39.6l-0.3-0.2
		l-1.8,2.6h-0.5l1.4-2l1.3,0V39.6l-0.3-0.2L261.3,39.6v-0.4h-1.7l-2.4,3.5h2.3l2.5-3.5h-0.7V39.6z"/>
	<path class="st35" d="M275.4,67.9l-0.4-4.1h-2l-0.4,4.1h-1.5l2.1-23.8h1.5l2.1,23.8H275.4z M273.3,62.3h1.7l-0.9-9.7L273.3,62.3z"
		/>
	<path class="st35" d="M275.4,67.9l0.4,0l-0.4-4.4h-2.7l-0.4,4.1h-0.7l2-23.1h0.8l2,23.1h-1.1V67.9l0.4,0L275.4,67.9v0.4h1.9
		l-2.1-24.6H273l-2.1,24.6h2.2l0.4-4.1h1.3l0.4,4.1h0.3V67.9z M273.3,62.3v0.4h2.1l-0.9-10.1l-0.7,0l-0.9,10.1h0.4V62.3l0.4,0
		l0.5-5.4l0.4,5h-1.3V62.3l0.4,0L273.3,62.3z"/>
	<path class="st35" d="M131.4,62.9c-4.7,18.4-10.2,49.2-10.2,63.4c0,5.1,0.7,5.5,1.7,9.2c-7.7,0-9.2-3.4-9.2-12.6
		c0-17.8,5.4-38.5,11.2-60.5c-10.8,13.8-25.5,49.3-30.1,63c-0.9,0.3-1,0.4-1.7,0.4c-4,0-4.9-5.1-4.9-13.7c0-12.3,1.8-35.8,1.8-47.7
		c0-2.9-0.1-4.7-0.2-6.3c-23.9,55.8-30.4,77.3-38.6,77.3c1.8-4,17.4-38.1,35.6-78.9c0.4-1,1.1-2.9,1.1-4.6c0-1.7-0.7-2.9-3.8-2.9
		c-9.5,0-13.9,11.3-13.9,20.4c0,1.5,0.1,2.5,0.2,3.5c-4.3,0-5.9-5.5-5.9-9.2c0-9.9,12-18.9,21.9-18.9c7.3,0,11.3,4.8,11.3,25.1
		c0,14-1.9,31.7-2.4,44.2c6-22.9,26.9-55.9,32-63.3c2-2.9,3.1-4.6,5.6-4.6c0.9,0,2.1,0.2,3.6,0.8C135.3,49.9,133.3,55.3,131.4,62.9z
		"/>
	<path class="st35" d="M131.4,62.9l-1.5-0.4c-2.4,9.3-4.9,21.6-6.9,33.4c-2,11.8-3.4,23.1-3.4,30.4c0,2.6,0.2,4.1,0.5,5.5
		c0.2,0.7,0.4,1.3,0.6,1.9c0.2,0.6,0.4,1.3,0.7,2.2l1.4-0.4v-1.5c-1.8,0-3.2-0.2-4.2-0.6c-0.7-0.3-1.3-0.6-1.7-1.1
		c-0.6-0.7-1.1-1.7-1.4-3.3c-0.3-1.6-0.4-3.6-0.4-6.1c0-17.5,5.3-38.1,11.2-60.1c0.2-0.7-0.1-1.4-0.8-1.7s-1.4-0.1-1.8,0.4
		c-2.8,3.6-5.7,8.4-8.7,13.9c-9,16.6-18.1,39.1-21.6,49.5l1.4,0.5l-0.5-1.4c-0.5,0.2-0.8,0.3-0.8,0.3l-0.1,0c0,0-0.1,0-0.2,0
		c-0.7,0-1.1-0.2-1.5-0.5c-0.3-0.3-0.6-0.7-0.8-1.3c-0.4-1-0.7-2.3-0.9-4.1c-0.2-1.7-0.3-3.9-0.3-6.3c0-6.1,0.4-15.1,0.9-23.9
		c0.4-8.9,0.9-17.7,0.9-23.8c0-3-0.1-4.8-0.2-6.4c0-0.7-0.6-1.3-1.2-1.4s-1.4,0.3-1.6,0.9c-12,27.9-19.6,47.3-25.2,59.6
		c-2.8,6.1-5.1,10.5-7.1,13.2c-1,1.4-1.9,2.3-2.7,2.9c-0.8,0.6-1.5,0.8-2.2,0.8v1.5l1.4,0.6c0.9-2,5.2-11.5,11.6-25.6
		C70.5,96.4,79,77.7,88.1,57.3l0,0c0.3-0.6,0.6-1.4,0.8-2.3c0.2-0.9,0.4-1.9,0.4-3c0-0.5,0-1.1-0.2-1.6c-0.1-0.4-0.3-0.8-0.7-1.2
		c-0.5-0.6-1.1-1-1.9-1.2c-0.7-0.2-1.6-0.4-2.6-0.4c-2.7,0-5.1,0.8-7.1,2.2c-3,2.1-5,5.2-6.4,8.8c-1.3,3.5-2,7.4-2,11
		c0,1.5,0.1,2.6,0.2,3.6l1.5-0.2v-1.5c-0.7,0-1.3-0.2-1.8-0.6c-0.8-0.6-1.5-1.7-1.9-3c-0.5-1.3-0.7-2.8-0.7-4.1
		c0-2.2,0.7-4.3,1.8-6.4c1.8-3.1,4.7-5.9,8.1-7.8c3.4-2,7.1-3.2,10.5-3.2c1.7,0,3,0.3,4.1,0.9c0.8,0.5,1.6,1.1,2.3,2.1
		c1,1.5,1.9,3.8,2.5,7.2c0.6,3.4,0.9,7.8,0.9,13.4c0,13.9-1.9,31.5-2.4,44.2c0,0.8,0.5,1.4,1.3,1.5c0.8,0.1,1.5-0.4,1.7-1.1
		c2.9-11.2,9.6-25.1,16.2-37.1c6.6-12,13.1-22.1,15.6-25.7l0,0c1-1.5,1.8-2.6,2.4-3.2c0.3-0.3,0.6-0.5,0.9-0.6
		c0.3-0.1,0.6-0.2,1.1-0.2c0.7,0,1.7,0.2,3.1,0.7l0.5-1.4l-1.4-0.6c-1.1,2.8-3.2,8.2-5.1,15.9l0,0L131.4,62.9l1.5,0.4
		c1.9-7.6,3.9-12.9,5-15.5c0.2-0.4,0.2-0.8,0-1.2c-0.2-0.4-0.5-0.7-0.8-0.8c-1.6-0.6-3-0.9-4.1-0.9c-0.8,0-1.5,0.1-2.2,0.4
		c-1,0.4-1.8,1.1-2.5,2c-0.7,0.8-1.4,1.8-2.1,2.9l0,0c-2.6,3.8-9.1,13.9-15.7,26c-6.7,12.1-13.4,26.1-16.5,37.8l1.5,0.4l1.5,0.1
		c0.4-12.5,2.4-30.1,2.4-44.3c0-5.1-0.3-9.3-0.8-12.7c-0.4-2.6-0.9-4.7-1.6-6.5c-1-2.7-2.5-4.6-4.3-5.8c-1.8-1.2-4-1.6-6.2-1.6
		c-5.4,0-11.1,2.4-15.6,6.1c-2.2,1.8-4.2,4-5.6,6.4c-1.4,2.4-2.2,5.1-2.2,7.9c0,2.1,0.4,4.5,1.5,6.7c0.6,1.1,1.3,2.1,2.3,2.8
		c1,0.8,2.2,1.2,3.6,1.2c0.4,0,0.8-0.2,1.1-0.5c0.3-0.3,0.4-0.7,0.4-1.2c-0.1-1-0.2-1.9-0.2-3.3c0-4.3,1.1-9.2,3.2-12.9
		c1.1-1.8,2.4-3.4,3.9-4.4c1.5-1,3.3-1.6,5.4-1.6c0.7,0,1.2,0.1,1.5,0.2c0.2,0.1,0.4,0.1,0.5,0.2c0.1,0.1,0.2,0.1,0.2,0.3
		c0.1,0.1,0.1,0.4,0.1,0.8c0,0.6-0.1,1.4-0.3,2.2c-0.2,0.7-0.5,1.4-0.7,1.8l0,0c-9.1,20.4-17.5,39.1-23.9,53.3
		C55,123.4,50.7,132.9,49.8,135c-0.2,0.5-0.2,1,0.1,1.4c0.3,0.4,0.8,0.7,1.3,0.7c1.4,0,2.7-0.5,3.9-1.3c2.1-1.5,4-4,6-7.6
		c3.1-5.5,6.7-13.6,11.5-25c4.8-11.4,10.7-26,18.6-44.3l-1.4-0.6l-1.5,0.1c0.1,1.6,0.2,3.3,0.2,6.2c0,5.9-0.4,14.7-0.9,23.6
		c-0.4,8.9-0.9,17.9-0.9,24.1c0,4.4,0.2,7.9,1,10.5c0.4,1.3,1,2.5,1.9,3.3c0.9,0.9,2.2,1.3,3.5,1.3c0.2,0,0.4,0,0.6,0
		c0.3,0,0.6-0.1,0.8-0.2c0.2-0.1,0.4-0.2,0.8-0.3c0.4-0.2,0.8-0.5,0.9-0.9c2.3-6.8,7.1-19,12.7-31.3c2.8-6.1,5.8-12.3,8.7-17.7
		c2.9-5.4,5.9-10.2,8.5-13.5l-1.2-0.9l-1.4-0.4c-5.8,22-11.3,42.7-11.3,60.9c0,2.3,0.1,4.3,0.4,6.1c0.2,1.3,0.5,2.5,1,3.5
		c0.4,0.8,0.9,1.5,1.4,2.1c0.9,0.9,2,1.5,3.3,1.9c1.3,0.4,2.8,0.5,4.5,0.5c0.5,0,0.9-0.2,1.2-0.6c0.3-0.4,0.4-0.9,0.3-1.3
		c-0.3-1-0.5-1.7-0.7-2.4c-0.3-1-0.5-1.7-0.7-2.6c-0.2-0.9-0.2-2.1-0.2-3.9c0-7,1.4-18.2,3.3-29.9c2-11.7,4.5-24,6.8-33.1l0,0
		L131.4,62.9z"/>
	<path class="st35" d="M183.5,109c-3.3,7.5-7.5,9.7-11.2,9.7c-4.2,0-8.3-2.7-10.6-7.9c-4.7,11-11.8,18.6-19.6,18.6c-5.7,0-9-4-9-9.8
		c0-11.9,13.8-33.3,27.2-33.3c2.8,0,4.2,1,4.8,2.4c0.2-0.1,0.4-0.1,0.8-0.1c2.8,0,3.8,3,3.8,4.4c0,2.8-4.4,8.2-4.4,14.1
		c0,5.7,3.9,9.3,7.9,9.3c3.1,0,5.9-2.4,8.9-8.5L183.5,109z M160.6,107.3c-0.4-1.8-0.7-3.8-0.7-6.4c0-5.1,0.9-8.3,2.1-10.2
		c-12.7,0-21.8,19.6-21.8,28.2c0,3.5,1.6,5.7,4.3,5.7C149.6,124.6,156.5,116.9,160.6,107.3z"/>
	<path class="st35" d="M183.5,109l-1.4-0.6c-1.6,3.6-3.3,5.8-5,7c-1.7,1.3-3.3,1.7-4.9,1.7c-1.8,0-3.5-0.6-5.1-1.7
		c-1.6-1.1-3-2.9-4.1-5.2c-0.2-0.5-0.8-0.9-1.4-0.9c-0.6,0-1.1,0.4-1.4,0.9c-2.3,5.4-5.2,9.9-8.3,13c-1.6,1.5-3.2,2.7-4.9,3.5
		c-1.7,0.8-3.4,1.2-5.1,1.2c-2.5,0-4.3-0.8-5.5-2.2c-1.2-1.4-2-3.4-2-6c0-2.7,0.8-6.1,2.3-9.7c2.2-5.3,5.8-11,10-15.2
		c2.1-2.1,4.4-3.9,6.6-5.1c2.3-1.2,4.6-1.9,6.8-1.9c1.2,0,2,0.2,2.5,0.5c0.5,0.3,0.8,0.6,1,1c0.4,0.7,1.3,1,2,0.7l-0.3-0.5l0.2,0.6
		l0.1,0l-0.3-0.5l0.2,0.6l-0.1-0.4l0.1,0.4l0,0l-0.1-0.4l0.1,0.4l0,0l0,0l0,0l0,0l0,0c0,0,0.1,0,0.3,0c0.4,0,0.7,0.1,1,0.3
		c0.4,0.2,0.8,0.7,1,1.2c0.2,0.5,0.3,1.1,0.3,1.4c0,0.3-0.2,1.1-0.6,2c-0.6,1.4-1.5,3.2-2.3,5.3c-0.8,2.1-1.5,4.4-1.5,6.9
		c0,3.2,1.1,5.9,2.8,7.8c1.7,1.9,4.1,3,6.5,3c1,0,2-0.2,2.9-0.6c1.4-0.6,2.7-1.6,3.9-3.1c1.2-1.5,2.3-3.3,3.5-5.7l-1.4-0.6l-0.9,1.2
		l1.5,1.1L183.5,109l-1.4-0.6L183.5,109l0.9-1.2l-1.5-1.1c-0.4-0.3-0.8-0.4-1.3-0.3s-0.8,0.4-1,0.8c-1.4,3-2.8,5-4,6.1
		c-0.6,0.6-1.2,1-1.8,1.2c-0.6,0.2-1.1,0.3-1.7,0.3c-1.5,0-3.1-0.7-4.3-2c-1.2-1.3-2.1-3.3-2.1-5.8c0-2.6,1-5.3,2.1-7.6
		c0.5-1.2,1.1-2.3,1.5-3.4c0.4-1.1,0.8-2,0.8-3.1c0-0.5-0.1-1.1-0.3-1.7c-0.3-0.9-0.7-1.9-1.5-2.7c-0.4-0.4-0.9-0.8-1.5-1.1
		c-0.6-0.3-1.3-0.4-2-0.4c-0.2,0-0.4,0-0.6,0c-0.2,0-0.6,0.1-0.9,0.2l0.7,1.3l1.3-0.7c-0.4-0.9-1.2-1.8-2.2-2.3
		c-1.1-0.6-2.4-0.9-3.9-0.9c-3.7,0-7.4,1.5-10.7,3.8c-5,3.5-9.4,8.8-12.7,14.5c-1.6,2.8-2.9,5.8-3.8,8.6c-0.9,2.8-1.4,5.5-1.4,8
		c0,3.1,0.9,6,2.7,8c1.8,2.1,4.5,3.3,7.8,3.2c2.2,0,4.4-0.5,6.4-1.5c3-1.5,5.8-3.9,8.2-7c2.5-3.1,4.6-6.8,6.4-11.1l-1.4-0.6
		l-1.4,0.6c1.2,2.8,3,5,5.1,6.5c2.1,1.5,4.5,2.3,6.9,2.3c2.1,0,4.5-0.6,6.7-2.3c2.2-1.7,4.2-4.3,5.9-8.2c0.3-0.6,0.1-1.4-0.5-1.8
		L183.5,109z M160.6,107.3l1.5-0.4c-0.4-1.7-0.6-3.5-0.6-6c0-4.9,0.9-7.9,1.9-9.4c0.3-0.5,0.3-1,0.1-1.5s-0.8-0.8-1.3-0.8
		c-3.6,0-6.8,1.4-9.7,3.5c-4.2,3.2-7.6,8-9.9,12.9c-1.2,2.4-2.1,4.9-2.7,7.1c-0.6,2.3-1,4.4-1,6.2c0,2,0.4,3.7,1.4,5.1
		c0.5,0.7,1.1,1.2,1.9,1.6c0.7,0.4,1.6,0.6,2.5,0.6c1.6,0,3.3-0.6,4.9-1.6c2.4-1.4,4.7-3.7,6.9-6.6c2.2-2.9,4.1-6.3,5.7-10
		c0.1-0.3,0.1-0.6,0.1-0.9L160.6,107.3l-1.4-0.6c-2,4.7-4.6,8.9-7.4,11.8c-1.4,1.5-2.7,2.6-4,3.4c-1.3,0.8-2.4,1.1-3.3,1.1
		c-0.5,0-0.8-0.1-1.1-0.2c-0.5-0.2-0.8-0.6-1.1-1.3c-0.3-0.7-0.5-1.6-0.5-2.7c0-1.9,0.5-4.6,1.5-7.5c1.5-4.4,4.1-9.3,7.4-13
		c1.6-1.9,3.5-3.4,5.4-4.5c1.9-1.1,3.9-1.7,6-1.7v-1.5l-1.3-0.8c-1.5,2.3-2.4,5.8-2.4,11c0,2.7,0.2,4.8,0.7,6.8L160.6,107.3
		l-1.4-0.6L160.6,107.3z"/>
	<path class="st35" d="M203.2,126c0-2,7.1-18,7.1-25.8c0-2.6-0.8-4.3-2.8-4.3c-6.5,0-20,17.7-25.5,32.9c-2.1,0-6.1-1.2-6.1-2.4
		c0-1.7,7.6-20.1,7.7-30c0.9-1,3-2.4,5.2-2.4c2,0,3,1.1,3,2.9c0,2-1.2,7.2-2.9,12.8c6.1-9.5,15.6-21.3,23.7-21.3
		c4.6,0,6.1,3.9,6.1,8.5c0,5.7-2.2,12.8-3.5,15.8c4.7-8.5,11-17.3,18.6-17.3c4.7,0,6.4,3.4,6.4,7.2c0,5.9-4.2,14-4.2,18.7
		c0,2,0.8,3.8,3.4,3.8c6.2,0,11.6-10.1,15-17.7l1.3,1.6c-3.6,9.4-10.4,20.1-19.4,20.1c-5.3,0-7.5-3.7-7.5-8.2
		c0-5.5,3.4-11.6,3.4-15.9c0-2.9-1.6-4-3.3-4c-3.7,0-7.7,6.1-14.7,16.7c-2.4,3.6-3.9,7.4-5.4,10.4
		C207.2,128.3,203.2,127.6,203.2,126z"/>
	<path class="st35" d="M203.2,126h1.5h-0.3l0.3,0l0,0h-0.3l0.3,0c0,0,0-0.2,0.1-0.4c0.2-0.8,0.7-2.4,1.4-4.3c1-2.9,2.4-6.8,3.5-10.6
		c0.6-1.9,1.1-3.8,1.4-5.6c0.4-1.8,0.6-3.5,0.6-5c0-1.4-0.2-2.7-0.9-3.9c-0.3-0.6-0.8-1.1-1.4-1.4c-0.6-0.3-1.3-0.5-2-0.5
		c-1.2,0-2.3,0.4-3.4,1c-2,1-4.1,2.7-6.2,5c-6.4,6.6-13.5,17.8-17.2,28l1.4,0.5v-1.5c-0.4,0-1-0.1-1.6-0.2c-0.9-0.2-1.9-0.5-2.5-0.8
		c-0.3-0.1-0.6-0.3-0.6-0.4l0,0l-0.4,0.3l0.4-0.2l-0.1-0.1l-0.4,0.3l0.4-0.2l-0.8,0.4l0.9,0c0-0.2,0-0.3-0.1-0.4l-0.8,0.4l0.9,0
		h-0.6l0.6,0.1l0-0.1h-0.6l0.6,0.1l0,0c0-0.2,0.2-0.7,0.4-1.4c0.8-2.6,2.6-7.5,4.2-12.9c0.8-2.7,1.6-5.5,2.1-8.2
		c0.6-2.7,0.9-5.2,1-7.5l-1.5,0l1.1,1c0.3-0.3,0.9-0.8,1.7-1.2c0.8-0.4,1.6-0.6,2.4-0.6c0.4,0,0.6,0.1,0.8,0.1
		c0.3,0.1,0.4,0.2,0.5,0.4c0.1,0.2,0.2,0.5,0.2,0.9c0,0.4-0.1,1-0.2,1.8c-0.4,2.4-1.4,6.4-2.7,10.5c-0.2,0.7,0.1,1.5,0.8,1.8
		c0.7,0.3,1.5,0.1,1.9-0.6c3-4.7,6.8-10,10.9-14c2-2,4.1-3.7,6-4.9c2-1.2,3.8-1.8,5.5-1.8c0.9,0,1.6,0.2,2.2,0.5
		c0.4,0.2,0.7,0.5,1,0.9c0.4,0.6,0.8,1.4,1,2.3c0.2,1,0.3,2.1,0.3,3.3c0,2.7-0.5,5.8-1.2,8.6c-0.7,2.8-1.6,5.3-2.1,6.7
		c-0.3,0.7,0,1.6,0.7,1.9c0.7,0.3,1.6,0.1,2-0.6c2.3-4.2,5-8.4,8-11.5c1.5-1.5,3-2.8,4.6-3.7c1.6-0.9,3.1-1.3,4.7-1.3
		c1,0,1.8,0.2,2.4,0.4c0.9,0.4,1.5,1,1.9,1.9c0.4,0.9,0.6,2,0.6,3.3c0,2.6-1,6.1-2,9.4c-0.5,1.7-1,3.3-1.4,4.9
		c-0.4,1.6-0.7,3.1-0.7,4.5c0,1.2,0.2,2.5,1,3.6c0.4,0.5,1,1,1.6,1.3c0.7,0.3,1.4,0.4,2.2,0.4c2,0,3.8-0.8,5.4-2
		c2.4-1.8,4.5-4.5,6.3-7.5c1.8-3,3.4-6.2,4.7-9.1l-1.4-0.6l-1.1,1l1.3,1.6l1.1-1l-1.4-0.5c-1.7,4.6-4.3,9.5-7.4,13.1
		c-1.6,1.8-3.3,3.3-5,4.4c-1.8,1-3.6,1.6-5.6,1.6c-1.1,0-2.1-0.2-2.8-0.5c-1.1-0.5-1.9-1.2-2.4-2.3c-0.5-1-0.8-2.4-0.8-3.9
		c0-2.4,0.8-5.2,1.6-8c0.4-1.4,0.8-2.7,1.2-4.1c0.3-1.3,0.6-2.6,0.6-3.9c0-0.9-0.1-1.6-0.4-2.3c-0.3-1-1-1.9-1.8-2.4
		c-0.8-0.5-1.7-0.8-2.6-0.8c-1.3,0-2.6,0.6-3.8,1.4c-1.7,1.3-3.4,3.3-5.4,6c-2,2.7-4.2,6-6.8,10l0,0c-2.5,3.7-4.1,7.6-5.5,10.6
		l1.4,0.7v-1.5c-0.7,0-2.1-0.2-3.1-0.5c-0.5-0.1-0.9-0.3-1.1-0.5l-0.1-0.1l0,0l-0.1,0.1l0.1-0.1l0,0l-0.1,0.1l0.1-0.1l-0.4,0.3
		l0.5,0c0-0.1,0-0.2-0.1-0.3l-0.4,0.3l0.5,0H203.2h-1.5c0,0.5,0.2,1,0.4,1.4c0.4,0.6,1,1,1.6,1.3c0.9,0.4,1.8,0.7,2.7,0.8
		c0.9,0.2,1.8,0.2,2.5,0.3c0.6,0,1.1-0.3,1.4-0.8c1.5-3.1,3-6.8,5.3-10.3l0,0c3.5-5.3,6.2-9.5,8.5-12.2c1.1-1.4,2.1-2.4,3-3
		c0.9-0.6,1.5-0.8,2-0.8c0.3,0,0.5,0,0.7,0.1c0.3,0.1,0.5,0.3,0.7,0.6c0.2,0.3,0.4,0.9,0.4,1.8c0,0.9-0.2,2-0.5,3.2
		c-0.4,1.8-1.2,3.9-1.8,6c-0.6,2.2-1.1,4.4-1.1,6.7c0,2.5,0.6,4.9,2.1,6.7c0.8,0.9,1.7,1.7,2.9,2.2c1.2,0.5,2.5,0.8,4,0.8
		c2.5,0,4.9-0.8,7.1-2c3.2-1.9,5.9-4.9,8.2-8.2c2.3-3.4,4.1-7.2,5.5-10.8c0.2-0.5,0.1-1.1-0.3-1.5l-1.3-1.6
		c-0.3-0.4-0.8-0.6-1.3-0.5c-0.5,0.1-0.9,0.4-1.2,0.9c-1.7,3.8-3.9,8.1-6.4,11.5c-1.2,1.7-2.5,3.1-3.8,4c-1.3,0.9-2.4,1.4-3.6,1.4
		c-0.5,0-0.8-0.1-1-0.2c-0.3-0.1-0.5-0.3-0.6-0.7c-0.2-0.3-0.3-0.9-0.3-1.5c0-1,0.2-2.3,0.6-3.7c0.6-2.2,1.4-4.7,2.2-7.3
		c0.7-2.6,1.4-5.2,1.4-7.7c0-2.1-0.5-4.2-1.7-5.9c-0.6-0.8-1.5-1.6-2.5-2c-1-0.5-2.3-0.7-3.6-0.7c-2.2,0-4.3,0.6-6.2,1.7
		c-2.9,1.6-5.4,4.1-7.7,7c-2.3,2.9-4.3,6.2-6.1,9.4l1.3,0.7l1.4,0.6c0.6-1.6,1.5-4.2,2.3-7.1c0.7-2.9,1.3-6.2,1.3-9.3
		c0-2.5-0.4-4.8-1.5-6.8c-0.6-1-1.4-1.8-2.4-2.4c-1-0.6-2.3-0.9-3.6-0.9c-2.4,0-4.7,0.9-7,2.2c-3.4,2-6.7,5.2-9.8,8.7
		c-3.1,3.5-5.9,7.5-8.2,11.1l1.3,0.8l1.4,0.4c0.8-2.8,1.6-5.6,2.1-7.8c0.3-1.1,0.5-2.2,0.6-3.1c0.1-0.9,0.2-1.7,0.2-2.3
		c0-0.6-0.1-1.2-0.3-1.7c-0.3-0.8-0.9-1.6-1.6-2c-0.8-0.5-1.7-0.7-2.6-0.7c-1.4,0-2.7,0.4-3.7,1c-1.1,0.5-1.9,1.2-2.6,1.9
		c-0.2,0.3-0.4,0.6-0.4,1c0,2.3-0.5,5.2-1.2,8.3c-1.1,4.6-2.7,9.6-4,13.6c-0.7,2-1.3,3.7-1.7,5.1c-0.2,0.7-0.4,1.2-0.5,1.7
		c-0.1,0.2-0.1,0.4-0.2,0.6c0,0.2-0.1,0.4-0.1,0.7c0,0.6,0.3,1,0.5,1.4c0.4,0.5,0.9,0.8,1.5,1.1c0.8,0.4,1.8,0.7,2.8,1
		c1,0.2,2,0.4,2.8,0.4c0.6,0,1.2-0.4,1.4-1c2.7-7.4,7.4-15.5,12.1-21.7c2.4-3.1,4.8-5.7,6.9-7.5c1.1-0.9,2.1-1.6,2.9-2
		c0.9-0.4,1.6-0.6,2.1-0.6c0.3,0,0.5,0.1,0.6,0.1c0.1,0,0.2,0.1,0.2,0.2c0.1,0.2,0.3,0.4,0.4,0.8c0.1,0.4,0.2,1,0.2,1.6
		c0,1.7-0.4,4.1-1.1,6.7c-1,3.9-2.4,8.1-3.7,11.6c-0.6,1.8-1.2,3.3-1.6,4.6c-0.2,0.6-0.4,1.2-0.5,1.6c-0.1,0.2-0.1,0.4-0.2,0.7
		c0,0.2-0.1,0.4-0.1,0.7H203.2z"/>
	<path class="st35" d="M288.4,104.8c0,2.6-6.5,10.2-6.5,15.6c0,2.2,1.1,4.9,3.8,4.9c4,0,11.2-5.8,18-17.7l1.1,1.1
		c-4.7,12.1-14.3,20.4-22.2,20.4c-5.5,0-8.1-3.9-8.1-7.9c0-0.9,0.1-2,0.3-3.3c-6.5,8.6-11.5,13-17,13c-4.7,0-8.3-3-8.3-9.3
		c0-13.4,16.5-34.5,31.1-34.5c5.8,0,10.2,3.4,10.2,8.4c0,3.7-2.2,4.8-5.5,4.8c0.3-1.2,0.6-2.7,0.6-3.9c0-3.4-1.5-6.3-5.5-6.3
		c-10.6,0-23.1,20.9-23.1,31.8c0,3,1,4.4,3,4.4c7,0,18.1-16.4,23.6-24.5C285.3,102.2,288.4,103.1,288.4,104.8z M286,79
		c-1.1-0.6-1.6-2.2-1.6-2.9c0-2.6,7.2-13.6,11.7-13.6c1.2,0,2.2,0.8,2.5,3.5C293.1,70.7,289.2,74.6,286,79z"/>
	<path class="st35" d="M288.4,104.8h-1.5c0,0,0,0.3-0.2,0.7c-0.3,0.7-0.8,1.6-1.4,2.8c-1,1.7-2.2,3.7-3.1,5.8
		c-1,2.1-1.8,4.2-1.8,6.4c0,1.4,0.3,2.8,1.1,4.1c0.4,0.6,1,1.2,1.7,1.6c0.7,0.4,1.6,0.7,2.5,0.7c1.4,0,2.8-0.5,4.3-1.3
		c2.2-1.2,4.7-3.3,7.2-6.1c2.5-2.9,5.2-6.6,7.8-11.1l-1.3-0.7l-1.1,1.1l1.1,1.1l1.1-1.1l-1.4-0.5c-2.3,5.9-5.7,10.8-9.5,14.2
		c-1.9,1.7-3.9,3-5.8,3.9c-1.9,0.9-3.8,1.3-5.5,1.3c-2.4,0-3.9-0.8-5-2c-1-1.2-1.6-2.8-1.6-4.4c0-0.8,0.1-1.8,0.3-3
		c0.1-0.7-0.2-1.4-0.9-1.6c-0.6-0.3-1.4-0.1-1.8,0.5c-3.2,4.3-6,7.4-8.6,9.5c-1.3,1-2.5,1.8-3.7,2.2c-1.2,0.5-2.3,0.7-3.5,0.7
		c-1,0-1.9-0.2-2.8-0.5c-1.2-0.5-2.2-1.2-2.9-2.4c-0.7-1.2-1.2-2.8-1.2-4.9c0-3,1-6.7,2.7-10.4c2.6-5.6,6.8-11.3,11.7-15.6
		c2.4-2.1,5-3.9,7.6-5.1c2.6-1.2,5.2-1.9,7.7-1.9c2.6,0,4.9,0.8,6.4,2c0.8,0.6,1.3,1.3,1.7,2.1c0.4,0.8,0.6,1.7,0.6,2.8
		c0,0.8-0.1,1.3-0.3,1.7c-0.1,0.3-0.3,0.5-0.5,0.7c-0.3,0.3-0.6,0.5-1.2,0.6c-0.5,0.2-1.2,0.2-2.1,0.2v1.5l1.4,0.4
		c0.4-1.4,0.6-2.9,0.6-4.3c0-1.9-0.4-3.8-1.5-5.3c-0.6-0.8-1.3-1.4-2.3-1.8c-0.9-0.4-2-0.6-3.2-0.6c-1.6,0-3.1,0.4-4.6,1
		c-2.6,1.2-5.1,3.1-7.5,5.6c-3.5,3.7-6.6,8.4-8.8,13.2c-1.1,2.4-2,4.8-2.7,7.1c-0.6,2.3-1,4.5-1,6.4c0,0.8,0.1,1.6,0.2,2.3
		c0.1,0.5,0.3,1,0.5,1.5c0.4,0.7,0.9,1.3,1.6,1.6c0.7,0.4,1.4,0.5,2.2,0.5c1.2,0,2.3-0.3,3.4-0.9c2-0.9,3.9-2.5,5.9-4.4
		c2.9-2.8,5.9-6.5,8.6-10.1c2.7-3.6,5.1-7.2,6.9-9.8l-1.2-0.8l-0.2,1.5c0.5,0.1,1.6,0.4,2.3,0.7c0.4,0.2,0.7,0.4,0.8,0.5l0.1,0.1
		l0.1,0l-0.1,0l0,0l0.1,0l-0.1,0l0.2,0l-0.2,0l0,0l0.2,0l-0.2,0H288.4h1.5c0-0.4-0.1-0.9-0.3-1.2c-0.3-0.6-0.8-1.1-1.2-1.4
		c-0.7-0.5-1.5-0.9-2.2-1.1c-0.7-0.3-1.4-0.4-2-0.5c-0.6-0.1-1.2,0.2-1.5,0.6c-2.7,4-6.9,10.1-11.1,15.1c-2.1,2.5-4.3,4.7-6.3,6.3
		c-1,0.8-1.9,1.4-2.8,1.8c-0.8,0.4-1.6,0.6-2.1,0.6c-0.3,0-0.6-0.1-0.7-0.1c-0.1-0.1-0.2-0.1-0.3-0.2c-0.1-0.1-0.3-0.4-0.4-0.8
		c-0.1-0.4-0.2-1-0.2-1.8c0-2.4,0.7-5.7,2-9c1.9-5.1,5.1-10.5,8.8-14.6c1.8-2,3.7-3.7,5.6-4.9c1.9-1.2,3.7-1.8,5.3-1.8
		c0.8,0,1.5,0.1,1.9,0.4c0.7,0.3,1.2,0.8,1.5,1.6c0.3,0.7,0.5,1.7,0.5,2.8c0,1.1-0.2,2.4-0.5,3.5c-0.1,0.4,0,0.9,0.3,1.3
		c0.3,0.4,0.7,0.6,1.2,0.6c0.9,0,1.8-0.1,2.6-0.3c0.6-0.2,1.2-0.4,1.8-0.7c0.8-0.5,1.5-1.2,2-2.1c0.5-0.9,0.7-2,0.7-3.2
		c0-1.5-0.3-2.9-0.9-4.1c-0.9-1.9-2.4-3.3-4.3-4.3c-1.9-1-4.1-1.5-6.5-1.5c-4,0-8,1.4-11.8,3.7c-5.6,3.4-10.8,8.8-14.6,14.6
		c-1.9,2.9-3.4,6-4.5,8.9c-1.1,3-1.7,5.9-1.7,8.7c0,1.7,0.2,3.3,0.7,4.6c0.7,2,2,3.6,3.6,4.7c1.6,1,3.5,1.5,5.5,1.5
		c1.6,0,3.1-0.3,4.6-0.9c2.3-0.9,4.4-2.5,6.6-4.6c2.2-2.1,4.5-4.8,6.9-8.1l-1.2-0.9l-1.5-0.3c-0.2,1.3-0.4,2.5-0.4,3.5
		c0,2.3,0.7,4.6,2.4,6.4c1.6,1.8,4.1,3,7.2,2.9c2.3,0,4.6-0.6,6.8-1.6c3.4-1.6,6.7-4.2,9.6-7.5c2.9-3.4,5.4-7.5,7.3-12.2
		c0.2-0.6,0.1-1.2-0.3-1.6l-1.1-1.1c-0.3-0.3-0.8-0.5-1.3-0.4c-0.5,0.1-0.9,0.3-1.1,0.7c-3.3,5.8-6.7,10.2-9.7,13
		c-1.5,1.4-2.9,2.4-4.1,3.1c-1.2,0.7-2.2,0.9-2.8,0.9c-0.4,0-0.7-0.1-1-0.2c-0.4-0.2-0.7-0.6-1-1.2c-0.2-0.6-0.4-1.3-0.4-2
		c0-1,0.3-2.4,0.9-3.8c0.9-2.1,2.2-4.4,3.3-6.4c0.6-1,1.1-2,1.5-2.8c0.2-0.4,0.4-0.9,0.5-1.3c0.1-0.4,0.2-0.8,0.2-1.3H288.4z
		 M286,79l0.7-1.3c0,0-0.1-0.1-0.2-0.2c-0.1-0.2-0.3-0.5-0.4-0.8c-0.1-0.3-0.1-0.6-0.1-0.6l0-0.1c0-0.2,0.1-0.6,0.3-1.1
		c0.7-1.8,2.5-4.7,4.6-7c1-1.2,2.1-2.2,3-2.9c0.5-0.4,0.9-0.6,1.3-0.8c0.4-0.2,0.7-0.2,0.9-0.2c0.2,0,0.2,0,0.3,0
		c0.1,0,0.1,0.1,0.3,0.3c0.1,0.3,0.3,0.8,0.4,1.7l1.5-0.1l-1-1.1c-5.4,4.7-9.4,8.8-12.8,13.3L286,79l0.7-1.3L286,79l1.2,0.9
		c3.2-4.3,7-8.1,12.4-12.8c0.4-0.3,0.5-0.8,0.5-1.3c-0.1-1.5-0.5-2.7-1.2-3.6c-0.4-0.4-0.8-0.8-1.3-1c-0.5-0.2-1-0.3-1.5-0.3
		c-0.9,0-1.7,0.3-2.4,0.6c-1.3,0.7-2.6,1.7-3.8,2.9c-1.8,1.8-3.5,4.1-4.7,6.2c-0.6,1-1.1,2-1.5,2.9c-0.2,0.4-0.3,0.9-0.5,1.2
		c-0.1,0.4-0.2,0.8-0.2,1.2c0,0.3,0,0.6,0.1,1c0.1,0.5,0.3,1.1,0.7,1.7c0.3,0.6,0.8,1.2,1.6,1.6c0.7,0.3,1.4,0.1,1.9-0.4L286,79z"/>
	<path class="st35" d="M176.3,203.7c0,0,19-6.3,17.7-19.1s-13.1-7.3-15.6-0.2c0,0-3.7-12.6-12.9-6
		C155.2,185.7,170.6,199.8,176.3,203.7z"/>
	<path class="st35" d="M60.8,8.5h234.3c1.4,0,2.5-1.1,2.5-2.5s-1.1-2.5-2.5-2.5H60.8c-1.4,0-2.5,1.1-2.5,2.5S59.4,8.5,60.8,8.5"/>
	<path class="st35" d="M60.8,165.5h234.3c1.4,0,2.5-1.1,2.5-2.5c0-1.4-1.1-2.5-2.5-2.5H60.8c-1.4,0-2.5,1.1-2.5,2.5
		C58.3,164.4,59.4,165.5,60.8,165.5"/>
</g>
</svg>
