<?xml version="1.0" encoding="utf-8"?>
<!-- Generator: Adobe Illustrator 22.0.1, SVG Export Plug-In . SVG Version: 6.00 Build 0)  -->
<svg version="1.1" id="Capa_1" xmlns="http://www.w3.org/2000/svg" xmlns:xlink="http://www.w3.org/1999/xlink" x="0px" y="0px"
	 viewBox="0 0 961.9 636.5" style="enable-background:new 0 0 961.9 636.5;" xml:space="preserve">
<style type="text/css">
	.st0{fill:#02B277;}
	.st1{fill:#4DB5BA;}
	.st2{fill:#98A3A8;}
	.st3{fill:#FCDBC0;}
	.st4{fill:#FC990B;}
	.st5{fill:#E8DBC8;}
	.st6{fill:#3A3D3F;}
	.st7{fill:#68CED8;}
	.st8{fill:#7B8488;}
	.st9{fill:#55A6AE;}
	.st10{fill:#039061;}
	.st11{fill:#CB7C0A;}
	.st12{fill:#F4D3B5;}
	.st13{fill:#FFC69F;}
	.st14{fill:#422E1F;}
	.st15{fill:#36261A;}
	.st16{fill:#3F9296;}
	.st17{fill:#303234;}
	.st18{fill:#423630;}
	.st19{fill:#FFB583;}
	.st20{fill:#4C3522;}
	.st21{fill:#3E2C1D;}
	.st22{fill:#302218;}
	.st23{fill:#533D2B;}
	.st24{fill:#5A4533;}
	.st25{fill:#513420;}
	.st26{fill:#492F1D;}
	.st27{fill:#634028;}
	.st28{fill:#FFD6BB;}
	.st29{fill:#933127;}
	.st30{fill:#5A3A25;}
	.st31{fill:#513521;}
	.st32{fill:#694730;}
	.st33{fill:#6F4E38;}
	.st34{fill:#CDCDCD;}
	.st35{fill:#FFFFFF;}
</style>
<g>
	<path class="st0" d="M97.7,322.4c-4.7-10.2-9.3-20.4-14-30.7c-17.8-39.4-35.8-79.3-42.5-122c-3.7-23.6-3.8-47.7-1.9-71.5
		c2-25.7,7.2-52.7,24.6-71.8C99.7-12.6,149,17.9,172.7,52c18.4,26.5,31.9,56.3,39.8,87.5c8.8-36.4,18.4-74.5,43.3-102.5
		c16.7-18.9,40.4-32.2,65.6-33.3c25.2-1.1,51.2,11.4,63.6,33.3c6.7,12,9.2,25.9,10.4,39.6c3.7,42.5-4,85.2-13.8,126.8
		c-19.3,82.2-46.8,162.4-82,239.2c-11.5,25.1-26.8,56.2-51.9,70.2c-41.6,23.3-82.8-62.4-98.5-89.3
		C129.9,390.8,113.5,356.8,97.7,322.4"/>
	<path class="st1" d="M268.3,366.3c9.7,5.7,19.4,11.4,29.1,17.1c24,14.1,48.9,29,63.6,52.5c7.7,12.3,15.1,29.4,18.9,43.5
		c1.7,6.4,3.1,14-1.4,18.9c-1.9,2-5.7,1.8-9.3,1.5c-1.7-0.1-3.4-0.2-4.7-0.1c-18.4,1.9-36.7-6.7-50.4-19.1
		c-13.7-12.4-23.7-28.4-33.2-44.3c-9.5-15.9-19-32.1-32.1-45.2c-5.6-5.6-11.8-10.6-16.4-17c-5-6.9-11-22,0.8-23.1
		C244.1,350.1,259.2,361,268.3,366.3"/>
	<path class="st2" d="M214.1,566.1c-12,19.2-20.8,40.5-25.8,62.6c44.4,5.9,89.6,5.5,133.9-1.2c1.1-23.7-0.6-47.5-4.8-70.8
		L214.1,566.1"/>
	<path class="st3" d="M171.3,473.3c0,0,6.7,3.3,10.7,2.3l0.2,15.6l-10.4,2.3l-7.6-9.3L171.3,473.3z"/>
	<path class="st4" d="M153.2,498.9c0.3,2.3,0.8,5.1,2.9,6c0.7,0.3,1.5,0.4,2.2,0.4c5.8,0.1,11.6-2.5,15.4-6.8
		c1.1-1.2,2.1-2.7,2.1-4.3c0.1-4.5-6.9-6.8-6.8-11.4c0.1-2.6,2.5-4.6,3.3-7.1c1-3.4-1.3-6.8-3.5-9.6c-2.8-3.5-5.5-7.1-8.3-10.6
		c-2.4-3-4.8-6.1-8.1-8.1c-2.5-1.5-5.5-2.2-8.4-2.1c-11.9,0.5-0.7,15.7,1.2,20.9C149.3,476.7,151.9,487.7,153.2,498.9z"/>
	<path class="st5" d="M158.3,505.2c-0.8,0-1.5-0.1-2.2-0.4c-2.2-0.9-2.6-3.7-2.9-6c-1.3-11.2-3.9-22.2-7.9-32.7
		c-1.9-5.1-13.1-20.4-1.2-20.9c2.9-0.1,5.9,0.6,8.4,2.1c-0.4,3.5-1.9,6.7-4.3,9.2c-0.4,0.5-0.9,1-0.9,1.6c0,0.4,0.2,0.8,0.4,1.2
		c5.8,10.4,5.1,23,6.9,34.8C155.1,498.2,155.8,502,158.3,505.2z"/>
	<path class="st5" d="M160.7,454.6c-0.3,2.3-1.4,4.6-3.1,6.2c-0.2,0.1-0.2,0.4,0,0.5c0.1,0.2,0.4,0.2,0.5,0c1.8-1.7,3-4.1,3.4-6.6
		c0-0.2-0.1-0.4-0.3-0.4C160.9,454.3,160.7,454.4,160.7,454.6L160.7,454.6z"/>
	<path class="st5" d="M164.6,459c-0.9,2.1-2.1,4.1-3.5,6c-0.1,0.2-0.1,0.4,0.1,0.5c0.2,0.1,0.4,0.1,0.5-0.1c1.5-1.9,2.7-3.9,3.6-6.1
		c0.1-0.2,0-0.4-0.2-0.5C164.9,458.8,164.7,458.8,164.6,459L164.6,459z"/>
	<path class="st5" d="M167.4,462.8c-0.6,2.1-1.7,4.2-3.1,5.8c-0.1,0.2-0.1,0.4,0,0.5c0.2,0.1,0.4,0.1,0.5,0c1.5-1.8,2.7-3.9,3.3-6.1
		c0.1-0.2-0.1-0.4-0.3-0.5C167.7,462.5,167.5,462.6,167.4,462.8L167.4,462.8z"/>
	<polygon class="st6" points="179.1,474.4 180.9,493.3 203.8,492.8 202.3,475.3 	"/>
	<path class="st7" d="M284.4,381.9c17,15,33.5,33.9,33.7,56.5c0.1,7.9-3.1,14.5-3.9,22c-1.2,10.8,1.8,23.6,2.6,34.5
		c1.7,22.6,3.5,45.2,5.2,67.8c0.2,2.2,0.3,4.6-1,6.3c-1.1,1.5-3,2.2-4.8,2.8c-30.3,9.4-73.2,14.2-102.7,0c-0.8-0.4-1.7-0.8-2.1-1.6
		c-0.4-0.8-0.2-1.8-0.1-2.7c4.1-21.9,4.3-46.6-4.2-67.3c-9.3-22.9-17.4-44.3-34.7-62.6c-5-5.2-10.4-10.1-14.4-16.1
		c-6.6-10-8.6-22.5-7.9-34.5c0.4-6.4,1.5-13,5.2-18.2c3.3-4.7,8.4-7.9,13.6-10.4c18.2-8.8,39.9-13,59.6-7.2
		c4.7,1.4,9.2,3.3,13.6,5.2C257.8,363.1,271.5,370.5,284.4,381.9"/>
	<path class="st8" d="M305.4,574.7c-6.5,1.6-13.3,3-20.3,4c12.5,6,25.3,10.3,23,28.7c-0.2,1.9-0.6,3.9-0.1,5.8c0.5,1.9,2,3.7,4,3.7
		c0,0,0,0,0,0c2.3,0,3.9-2.4,4.7-4.6c3.6-9,3.4-19.1,3.1-28.8c0-0.7,0-1.5-0.1-2.2C314.9,579.2,310.2,576.9,305.4,574.7"/>
	<path class="st9" d="M281,501.9c-3.3,1.3-6.7,6.2-8.5,8.5c-5.8,7.5-9.6,16.5-11,25.9c-1.7,12,1,25.2,9.7,33.6
		c3.9,3.8,8.8,6.4,13.7,8.8c7-1,13.9-2.4,20.3-4c-3.5-1.6-7-3.3-10.5-4.9c-11.3-5.3-23.3-11.1-29.9-21.7c-2.1-3.4-3.7-7.4-3.2-11.4
		c0.3-2.5,1.3-4.8,2.4-7.1C268.8,519.9,274.5,510.6,281,501.9"/>
	<path class="st4" d="M322.1,608.5c-0.5,2.5-1,5-0.8,7.5c0.2,2.5,1.3,5,3.3,6.5c1.6,1.2,3.8,1.6,5.8,1.6c5.8-0.1,11.2-3.4,15.1-7.8
		c3.9-4.4,6.4-9.7,8.9-15c0.6-1.2,1.1-2.3,1.7-3.5c2.6-5.4,5.2-11.9,2.4-17.2c-2.6-4.9-9-6.8-14.4-5.4
		C330.3,578.6,324.8,596.3,322.1,608.5z"/>
	<path class="st4" d="M344.6,575.1c4-0.1,8.3,1.9,9.6,5.7c0.4,1.1,0.4,2.3,0.5,3.5c0.2,13.2-6.6,26.4-17.5,33.9
		c-1.1-3.5-3.1-6.9-6.4-8.6c-2.2-1.1-5-1.1-7.1,0.1c-2.6,1.4-2.5,3.6-2.3,6.3c0.2,2.5,1.3,5,3.3,6.5c1.6,1.2,3.8,1.6,5.8,1.6
		c5.8-0.1,11.2-3.4,15.1-7.8c3.9-4.4,6.4-9.7,8.9-15c0.6-1.2,1.1-2.3,1.7-3.5c2.6-5.4,5.2-11.9,2.4-17.2c-2.6-4.9-9-6.8-14.4-5.4"/>
	<path class="st3" d="M346.9,578.2c0.4,0.2,0.8,0.4,1,0.8c0.1,0.2,0.1,0.4,0.2,0.7c0.1,1.3,0.1,2.6-0.3,3.8
		c-0.6,1.5-1.8,2.6-3.2,3.3c-1.4,0.7-3,1-4.5,1c-1.4,0.1-2.9-0.1-4.2-0.6c-1.3-0.6-2.4-1.6-2.8-3c-0.2-0.6-0.2-1.3-0.2-1.9
		c0-1.5,0.1-3,1-4.1c0.4-0.5,0.8-0.8,1.3-1.1c2.1-1.3,4.6-1.6,7.1-1.2C344.3,576.2,345.2,577.3,346.9,578.2z"/>
	<path class="st5" d="M331.5,591.1c0.2,0.2,0.5,0.4,0.7,0.6c2.6,2,5.9,3.1,9.2,3.1c0.4,0,0.7,0,1.1,0c0.2,0,0.4-0.2,0.4-0.4
		c0-0.2-0.2-0.4-0.4-0.4c-0.4,0-0.7,0-1.1,0c-3.1,0-6.3-1.1-8.7-3c-0.2-0.2-0.4-0.4-0.7-0.5c-0.2-0.1-0.4-0.1-0.5,0.1
		C331.3,590.7,331.3,590.9,331.5,591.1L331.5,591.1z"/>
	<path class="st5" d="M328.9,595.3c1.2,1.9,3,3.4,5,4.2c1.8,0.8,3.7,1.1,5.6,1.1c0.3,0,0.6,0,0.9,0c0.2,0,0.4-0.2,0.4-0.4
		c0-0.2-0.2-0.4-0.4-0.4c-0.3,0-0.6,0-0.9,0c-1.8,0-3.6-0.3-5.3-1c-1.9-0.8-3.6-2.2-4.7-3.9c-0.1-0.2-0.3-0.2-0.5-0.1
		C328.8,594.9,328.8,595.1,328.9,595.3L328.9,595.3z"/>
	<path class="st5" d="M326.8,601.3c0.9,1.4,2.1,2.6,3.5,3.5c0.5,0.3,1,0.6,1.6,0.7c0.4,0.1,0.7,0.1,1,0.1c0.3,0.1,0.6,0.2,0.9,0.3
		c0.7,0.3,1.5,0.4,2.3,0.4c0.2,0,0.3,0,0.5,0c0.2,0,0.4-0.2,0.4-0.4c0-0.2-0.2-0.4-0.4-0.4c-0.1,0-0.3,0-0.4,0
		c-0.7,0-1.4-0.1-2.1-0.4c-0.3-0.1-0.6-0.2-1-0.3c-0.4-0.1-0.7-0.1-1-0.1c-0.5-0.1-0.9-0.3-1.4-0.6c-1.3-0.8-2.4-1.9-3.2-3.2
		c-0.1-0.2-0.3-0.2-0.5-0.1C326.7,600.9,326.7,601.1,326.8,601.3L326.8,601.3z"/>
	<path class="st5" d="M352.1,591.6c0,1.6-1,2.9-2.2,2.9s-2.2-1.3-2.2-2.9c0-1.6,1-2.9,2.2-2.9S352.1,590,352.1,591.6z"/>
	<path class="st4" d="M298.6,328.4c-8.3-15-13.2-31.6-18.2-48c-0.5-1.7-1-3.4-2.2-4.7c-3.8-4.3-10.8-1.3-15.6,1.8
		c-0.6,0.4-0.7,1.6-0.6,3.5c0.5,7.9,6.1,26.3,6.9,29.2c3.4,11.6,7.9,22.8,13.5,33.6c10.6,20.2,27.4,35.3,36.5,56.8
		c-0.1-0.3,15.3-9.4,16.5-10.3c3.6-2.6,7.2-5.5,9.1-9.5c1.8-3.6,2-7.8,2.1-11.9c0-0.9,0.1-1.9-0.3-2.8c-0.6-1.4-2.2-2.2-3.6-2.8
		c-6.5-2.5-12.9-2.4-18.9-6.4C313.1,349.8,304.8,339.5,298.6,328.4"/>
	<path class="st10" d="M277.5,275.1L277.5,275.1c0.2,0.2,0.4,0.4,0.6,0.6C277.9,275.5,277.7,275.2,277.5,275.1"/>
	<path class="st11" d="M277.5,275.1c-0.5,0.6-1,1.2-1.6,1.8c0.1,0.8,0.1,1.7,0.2,2.5c1.7-1.7,2.1-3.6,2.1-3.6l0,0c0,0,0,0,0-0.1
		C277.9,275.5,277.7,275.2,277.5,275.1"/>
	<path class="st12" d="M283.1,267.1c3.1-4.6,6.3-10.1,4.7-15.4c-1.9-1.2-4.1,1.2-5.1,3.2c-1,2.1-2.6,4.6-4.8,4.1
		c0.5-9.1,0.3-18.2-0.6-27.2c-1.3-1.3-3.7-0.7-4.8,0.8c-1.1,1.5-1.3,3.4-1.4,5.2c-0.3,4.1-0.5,8.3-0.8,12.4
		c-1-6.9-3.2-13.5-6.4-19.7c-1.4-0.9-3.4,0.1-4.2,1.5c-0.8,1.5-0.7,3.2-0.6,4.9c0.4,4.5,1.3,8.9,2.6,13.2c-2-3.9-4.1-7.8-6.1-11.6
		c-0.5-0.9-1-1.9-2-2.1c-1.1-0.3-2.3,0.6-2.7,1.8c-0.4,1.1-0.2,2.3,0.1,3.5c1,4.5,2.6,8.9,4.8,13c-1.8-2.1-3.9-3.9-6.2-5.5
		c-0.7-0.5-1.6-1.1-2.5-1c-1.8,0.1-2.8,2.4-2.3,4.2c0.5,1.8,1.9,3.1,3.2,4.4c4.2,4.6,6.5,10.7,9.4,16.2c1,1.9,2.1,3.9,3.9,5.2
		C271.8,286.1,278.4,274.1,283.1,267.1"/>
	<path class="st13" d="M283.1,267.1c3.1-4.6,6.3-10.1,4.7-15.4c-1.9-1.2-4.1,1.2-5.1,3.2c-1,2.1-2.6,4.6-4.8,4.1
		c0.5-9.1,0.3-18.2-0.6-27.2c-1.3-1.3-3.7-0.7-4.8,0.8c-1.1,1.5-1.3,3.4-1.4,5.2c-0.3,4.1-0.5,8.3-0.8,12.4
		c-1-6.9-3.2-13.5-6.4-19.7c-1.4-0.9-3.4,0.1-4.2,1.5c-0.8,1.5-0.7,3.2-0.6,4.9c0.4,4.5,1.3,8.9,2.6,13.2c-2-3.9-4.1-7.8-6.1-11.6
		c-0.5-0.9-1-1.9-2-2.1c-1.1-0.3-2.3,0.6-2.7,1.8c-0.4,1.1-0.2,2.3,0.1,3.5c1,4.5,2.6,8.9,4.8,13c-1.8-2.1-3.9-3.9-6.2-5.5
		c-0.7-0.5-1.6-1.1-2.5-1c-1.8,0.1-2.8,2.4-2.3,4.2c0.5,1.8,1.9,3.1,3.2,4.4c4.2,4.6,6.5,10.7,9.4,16.2c1,1.9,2.1,3.9,3.9,5.2
		C271.8,286.1,278.4,274.1,283.1,267.1"/>
	<path class="st14" d="M276.8,249.1c-4,29.4,2,60.1,16.8,85.8c-4.6,6.4-11.9,10.4-19.5,12.5c-7.6,2.1-15.5,2.4-23.4,2.5
		c-14.5,0.2-29.1-0.2-43.2-3.1c-14.2-3-28-8.6-39.1-17.8c-3.7-3.1-7.2-6.7-8.7-11.3c-1.1-3.1-1.1-6.5-1.1-9.9
		c0.4-23.3,5.5-46.4,15.1-67.6c4.2-9.3,9.4-18.4,17.2-24.8c5.6-4.6,12.4-7.6,19.1-10.4c8-3.4,16.5-6.7,25.2-5.8
		c9.5,1,17.7,7,25.2,12.9L276.8,249.1"/>
	<path class="st10" d="M216.7,348.5c0,0.1,0.1,0.2,0.1,0.3c2.3,0.2,4.6,0.4,6.9,0.5C221.3,349,219,348.8,216.7,348.5"/>
	<path class="st15" d="M270.3,288c-9,18.7-26.6,32.3-53.4,33.4c-0.9,0-1.8,0-2.6,0c-0.4,0-0.7,0-1.1,0c-0.2,5.6-0.2,17.6,3.5,27.1
		c2.3,0.3,4.7,0.6,7,0.8c4.6,0.2,9.2,0.3,13.8,0.3c2.1,0,4.2,0,6.3-0.1c7.9-0.1,15.8-0.4,23.4-2.5c7.6-2.1,14.9-6.2,19.5-12.5
		C278.4,320.1,272.9,304.3,270.3,288"/>
	<path class="st14" d="M235.1,192.1c11.3,7.1,22.8,14.6,30.3,25.6c6.3,9.4,9.1,20.7,11.8,31.8c3.9-17.1,7.1-35.3,1.7-52
		c-4.4-13.4-14.2-24.8-26.5-31.9c-12.2-7.1-26.7-9.9-40.8-9.1c-4.2,0.3-8.4,0.9-11.9,3.1c-3.5,2.3-5.9,6.6-4.9,10.6
		c1.1,4.2,5.3,6.7,9.3,8.4C214.8,183.3,225.1,185.8,235.1,192.1"/>
	<path class="st3" d="M213.4,318.2c0,0-2.2,23,5.9,35.7c0,0,22.3,4.8,42,21.2c19.7,16.4-64.3,18.6-64.3,18.6s-7.1,0.4-8.5-8.2
		l-8.5-41.6l-3.3-34.6L213.4,318.2"/>
	<path class="st13" d="M212.9,321.4c0,0-9.7,4.7-22.3,2.5c0,0-1.2,21.1,12.9,38.6c0,0-5.2,3-15.9,1.2l-9.2-54.3L212.9,321.4"/>
	<path class="st4" d="M378.5,362.9c2.4,1.8,3.7,5.2,4.6,8.3c7.6,27.4,3.4,55.2,10.1,82.7c0.5,1.9,1,4,0.3,5.9
		c-0.9,2.5-3.6,3.8-6.1,4.8c-20.2,7.9-48.1,10.4-68-0.2c-2.8-1.5-5.5-3.4-7.4-6c-5-6.6-4.1-15.8-3-24c1.8-13.7,3.7-27.4,5.5-41.1
		c1.1-8.4,0.7-24.3,8.7-29.9c3.3-2.3,7.6-2.3,11.6-2.2c12.6,0.4,24.9,1,37.5,0.4c1.4-0.1,2.9-0.1,4.3,0.3
		C377.2,362.1,377.9,362.4,378.5,362.9"/>
	<path class="st6" d="M307.5,474.6c-18.3,14.8-33.2,33.8-43.3,55.1c-1.1,2.3-2.1,4.6-2.4,7.1c-0.5,4,1,8,3.2,11.4
		c6.6,10.6,18.6,16.4,29.9,21.7c9.3,4.3,18.6,8.7,27.9,13c4.2,2,8.7,4,13.3,3.6c4.6-0.4,9.3-4.1,9-8.8c-0.3-3.7-3.3-6.4-6.2-8.7
		c-12.9-10.5-25.8-21-38.8-31.4c13.3-7.5,26.5-14.9,39.8-22.4c8.9-5,17.9-10.1,24.9-17.5c7-7.4,11.8-17.6,10.4-27.7L307.5,474.6"/>
	<path class="st16" d="M313.9,463.6c-0.1,3.4,0.1,6.9,0.4,10.5l35.8-2.5c-0.4-0.1-0.9-0.2-1.3-0.3c-9.6-0.2-19.1-2.1-27.3-6
		C318.9,464.8,316.4,464.2,313.9,463.6"/>
	<path class="st9" d="M164.8,426.4c11.8,8.9,23.6,17.9,35.3,26.8c15,11.4,30.3,22.9,48,29.3c13.9,5,28.7,6.6,43.5,6.9
		c4.9-5.3,10.2-10.2,15.9-14.8l6.8-0.5c-0.3-3.6-0.5-7.1-0.4-10.5c-16.2-3.8-32.3-7.9-48.3-12.3c-2.5-0.7-5.1-1.4-7.6-2.1
		c-22.2-6.3-44.3-13.2-66.2-20.7L164.8,426.4"/>
	<path class="st11" d="M321.4,465.4c8.2,3.9,17.6,5.7,27.3,6c-8.1-1.7-16.2-3.5-24.2-5.3C323.5,465.8,322.4,465.6,321.4,465.4"/>
	<path class="st17" d="M350,471.6l-35.8,2.5l-6.8,0.5c-5.6,4.6-10.9,9.5-15.9,14.8c1.6,0,3.1,0,4.7,0c2.7,0,5.3,0,7.9-0.1
		c10.3-0.2,20.5-0.9,30.7-1.9c5.2-0.5,10.4-1.2,15.6-1.9c5-0.7,9.3-2.5,14.2-3.5c1.8-0.4,3.7-0.5,5.5-1c1.1-0.3,4.9-1.7,4.9-3.2
		c-0.1-1.9-4.5-2-6-2.3c-5-1-9.9-2-14.9-3C352.8,472.2,351.4,471.9,350,471.6"/>
	<path class="st15" d="M237.4,172.4c-0.3,0-0.6,0-0.9,0c0.2,0.4,0.3,0.8,0.4,1.2c0.9,2.7,1.3,5.5,1.2,8.3c1.1,0.6,2.2,1.3,3.3,2
		c15.6,10.2,26.3,25.9,31.8,43.3c-0.5-7.8-1.9-15.6-4.1-23.1c-2.8-9.6-7.1-19.2-14.9-25.5C249.8,175,243.5,172.4,237.4,172.4"/>
	<path class="st3" d="M275.4,273.6c-6.1,25.7-25.1,46.5-58.4,47.7c-37.6,1.4-80.1-27.9-83.6-66.4c-1.9-20.7,2.6-42.6,15.7-58.7
		c21.5-26.4,63.9-30.8,92.4-12.2C270.7,203,282.8,242,275.4,273.6"/>
	<path class="st18" d="M194.6,257c-1.1-2-1.5-4.4-1.5-6.8c0.2-2.4,0.9-4.7,2-6.8c1.1-2.1,2.9-4,4.9-5.3c2.1-1.3,4.6-2,7-2.2
		c2.5-0.1,5,0.4,7.2,1.5c2.2,1.1,4.1,2.9,5.4,5c1.3,2.1,2,4.3,2.6,6.5c0.4,2.3,0.7,4.5,0.8,6.8l-0.2,0c-0.7-4.4-1.6-9-4.2-12.7
		c-1.3-1.9-3-3.4-5-4.3c-2-1-4.3-1.4-6.5-1.3c-2.2,0.1-4.4,0.7-6.3,1.9c-1.9,1.2-3.5,2.8-4.7,4.7c-1.2,1.9-1.9,4.1-2.2,6.3
		c-0.2,2.2,0,4.5,0.8,6.6L194.6,257z"/>
	<path class="st18" d="M247.4,248.5c-0.6-1.6-1-3.2-1.4-4.9c-0.4-1.7-0.7-3.4-0.6-5.3c0.1-1.8,0.6-3.6,1.6-5.3
		c0.9-1.6,2.3-3.1,4.1-4c1.8-0.9,3.8-1.2,5.7-0.9c1,0.2,1.9,0.5,2.8,1c0.9,0.5,1.6,1.2,2.2,1.9c2.2,2.9,3.2,6.6,2.8,10l-0.2,0
		c-0.2-3.3-1.4-6.7-3.6-9.2c-1.1-1.3-2.6-2.1-4.3-2.3c-1.6-0.2-3.3,0.1-4.8,0.9c-3,1.5-4.8,4.8-5.1,8.1c-0.2,1.7,0,3.3,0.2,5l0.8,5
		L247.4,248.5z"/>
	<path class="st19" d="M249.8,256.5c0.8,0.2,1.6,0.4,2.1,1.1c0.4,0.5,0.5,1.2,0.5,1.8c0,4-3.5,7.5-7.5,8.1c-1.4,0.2-2.9,0-4.1-0.8
		c-1.9-1.4-2.1-4.2-2-6.5c0-1.3,0.1-2.6,0.5-3.8c1-2.8,1.9-2.2,4-1.5C245.5,255.4,247.6,256,249.8,256.5z"/>
	<path class="st20" d="M215.1,218.1c-4,3.1-8.2,6-12.3,8.9c-7.1,5.2-17.9,12.4-21.2,21c-2.8,7.1-1.8,17.4-2.2,25
		c-0.7,15.1-1.5,30.3,1.2,45.2c2.6,14.8,10.2,28.5,16,42.4c0.9,2.2,2,3.2,3.9,5.7c-7.6,0.9-14.1,1.3-21.9,0.1
		c-20.1-3.1-41.3-7-56.1-20.4c-1.6-1.4-3.2-3.1-3.4-5.2c-0.2-1.3,0.3-2.7,0.7-4c7.8-26.4-2.2-46.5-12.3-70.3
		c-6.9-16.1-9.5-34.1-6.2-51.4c2.1-11,5.9-27.2,13.4-35.9c19.2-22.4,54-30.8,82.2-28.8c16.4,1.2,35.1,7.6,40.2,23.3
		c3.5,10.8-0.9,22.9-8.1,31.6C224.9,210.2,220.1,214.3,215.1,218.1"/>
	<path class="st21" d="M181.5,248c-6.8,7.4-8.7,23.5-8.6,33.5c0.1,10.1,0.5,20.2,1.3,30.3c0.9,10.9,2.2,21.8,6.1,32
		c3.9,10.2,10.6,17.5,20.2,22.7c-1.9-2.5-3-3.5-3.9-5.7c-5.8-13.9-13.4-27.6-16-42.4c-1.4-8-1.8-16-1.8-24.1
		c0-7.1,0.3-14.1,0.7-21.2C179.7,265.4,178.7,255.1,181.5,248"/>
	<path class="st18" d="M201.9,275.4c1.3,0.5,2.5,1,3.8,1.4c1.3,0.4,2.5,0.8,3.8,1.2c2.5,0.7,5.1,1.2,7.7,1.5
		c2.6,0.3,5.2,0.4,7.8,0.2l2-0.2l1.9-0.3c1.3-0.1,2.6-0.6,3.9-0.8l0,0.1c-2.5,0.9-5.1,1.8-7.7,2.1l-1,0.1l-1,0.1
		c-0.7,0-1.3,0.1-2,0.1c-1.3,0-2.7,0-4-0.2c-2.7-0.3-5.3-0.9-7.8-1.8c-2.5-0.9-5-2-7.3-3.4L201.9,275.4z"/>
	<path class="st22" d="M237.2,208.2c0,0,4.8-14.5,17.1-1.9C254.3,206.3,245.7,201.5,237.2,208.2z"/>
	<path class="st20" d="M228.4,165.4c4.5,4.6,7.1,10.7,7.9,16.8c0.9,6.2,0,12.5-2.1,18.2c-2.1,5.8-5.6,10.9-9.7,15.3
		c-4.1,4.4-8.9,8.2-13.9,11.5c-2.5,1.6-5.1,3.2-7.7,4.6c-2.6,1.4-5.2,2.8-7.8,4.2c-2.6,1.5-5.1,3-7.3,4.8c-2.3,1.8-4.4,3.9-6.2,6.2
		c-3.7,4.6-6.5,9.9-8.7,15.3c-2.2,5.5-3.9,11.2-5.6,16.8c1.5-5.7,3.1-11.5,5.2-17c2.1-5.6,4.7-11,8.4-15.7c1.8-2.4,3.9-4.5,6.2-6.5
		c2.3-1.9,4.8-3.6,7.4-5.1c2.6-1.5,5.2-3,7.7-4.5c2.5-1.5,5-3.1,7.4-4.7c4.8-3.3,9.3-7.1,13.2-11.5c3.8-4.3,7-9.3,8.8-14.7
		c1.8-5.4,2.4-11.2,1.5-16.8c-0.9-5.5-3.4-10.8-7.3-14.6L228.4,165.4z"/>
	<path class="st23" d="M207.4,193.4c-0.1,0-0.2,0-0.4,0c1.9-2.3,3.4-4.9,3.7-7.8c0.2-2-0.3-4-1.5-5.7c-0.7-0.9-1.8-1.7-2-2.8
		c0.2-0.1,0.5-0.1,0.7-0.1c1.8,0,3.9,1.5,5,2.7c1.6,1.8,2.4,4.1,2.6,6.5c0.2,2.8-0.5,5.7-2.4,7.7c-1.1,1-2.4,1.7-3.7,2.4
		c-1,0.5-2.1,1-3.2,1c-0.2,0-0.5,0-0.7-0.1c1.2-1.3,2.3-2.6,3.3-4C208.4,193.3,207.9,193.4,207.4,193.4 M187.2,160
		c-11.6,0-23.1,3.4-34,6.8c-9.3,2.9-19.4,6.4-24.7,14.6c8.5-3.5,17.7-5.3,26.8-5.3c1.1,0,2.3,0,3.4,0.1c-2.4,1-4.4,2.9-5.5,5.3
		c10.4,0.1,20.8,0.4,31.2,1.1c1.3,0.1,2.7,0.2,3.9,0.7c5.1,2.2,4.8,9.6,2.6,14.7c-4.5,10.3-13.2,18.6-23.7,22.6
		c3.4,0.6,6.8,0.9,10.2,0.9c7.8,0,15.6-1.5,22.6-4.8c10.1-4.7,18.7-13.1,22.7-23.6c2.3-6,3-12.9,0.1-18.6
		c-4.8-9.3-18.1-12.6-27.7-14C192.4,160.2,189.8,160,187.2,160"/>
	<path class="st22" d="M191.1,220.4c0,0,7.8-21.2,21.2-6.3C212.3,214.1,201.9,210,191.1,220.4z"/>
	<path class="st24" d="M208.1,177c-0.3,0-0.5,0-0.7,0.1c0.2,1.1,1.4,1.9,2,2.8c1.2,1.7,1.7,3.7,1.5,5.7c-0.3,2.9-1.9,5.6-3.7,7.8
		c0.1,0,0.2,0,0.4,0c0.5,0,1-0.1,1.5-0.3c-1,1.4-2.1,2.7-3.3,4c0.2,0.1,0.5,0.1,0.7,0.1c1.1,0,2.2-0.5,3.2-1
		c1.3-0.6,2.7-1.3,3.7-2.4c2-1.9,2.7-4.9,2.4-7.7c-0.2-2.4-1-4.7-2.6-6.5C211.9,178.4,209.9,177,208.1,177"/>
	<path class="st12" d="M329.3,337.2c4.1,9,6.1,18.9,5.8,28.7c0,0.8-0.1,1.6-0.5,2.3c-0.3,0.4-0.8,0.8-1.2,1.1
		c-1.7,1.2-3.5,2.4-5.2,3.5c1.6,6.2,8.3,10.2,14.8,10.1c6.4,0,12.5-3.1,17.7-6.9c2.3-1.6,3.4-3.8,4.9-6.2c1.5-2.4,2.3-5.5,2.3-8.8
		c-4,0-8.4,0.8-12.4,0.6c-1.3-7.4-1.6-14.8-0.7-22.3L329.3,337.2z"/>
	<path class="st13" d="M354.5,348.8l-21.6-2.4C332.8,346.4,335.6,363.4,354.5,348.8z"/>
	<path class="st25" d="M345.2,228.9c-9.5-4.3-21.4-6.6-29.8-0.4c-4.6,3.4-7.2,8.7-11.1,12.9c-3.8,4.2-10,7.4-15.1,4.8
		c-2.5,8.5,1.9,18,8.8,23.6c6.9,5.6,15.8,8.1,24.6,9.3c4.9,0.7,9.8,1.1,14.7,0.2c8.4-1.6,15.9-7.3,19.6-15
		C363.2,251.3,358.5,234.9,345.2,228.9"/>
	<path class="st26" d="M289.3,246.3c-0.5,1.6-0.7,3.3-0.7,5c0,7,3.9,14.1,9.5,18.6c1.3,1.1,2.7,2,4.1,2.9c1.4-1.7,2.9-3.4,4.4-5
		c3.5-3.8,7.1-7.6,11-11c-2.7,0.4-5.5,0.7-8.3,0.7c-5.8,0-11.5-1.3-15.9-5C291.3,250.7,289.7,249,289.3,246.3L289.3,246.3"/>
	<path class="st3" d="M353.1,241c-5.1,0.1-10.1,1-14.9,2.8c-12.6,4.6-22.6,14.1-31.7,24c-5,5.4-9.8,11.2-12.7,17.9
		c-5,11.5-4,25.2,2.1,36.2c13,23.6,47.9,30.1,72.7,25.8c38.2-6.7,46.6-54.2,28-83.8C387.5,249.2,370.1,240.6,353.1,241"/>
	<path class="st18" d="M337.7,291.7c0.7-1.7,1.7-3.3,2.9-4.8c1.2-1.4,2.7-2.8,4.4-3.7c1.7-1,3.7-1.5,5.8-1.6c2.1,0,4.2,0.6,6,1.8
		c3.5,2.5,5.2,6.5,5.3,10.4c0.1,3.9-1.2,7.6-2.9,10.8l-0.2-0.1c1.2-3.4,2-7,1.7-10.6c-0.3-3.6-2-7.1-4.9-9.1c-1.5-1-3.2-1.6-5-1.6
		c-1.8,0-3.6,0.4-5.2,1.2c-3.3,1.6-5.8,4.4-7.7,7.3L337.7,291.7z"/>
	<path class="st18" d="M323.6,279.5c1.2-2.1,2.3-4.3,2.6-6.8c0.1-1.2,0-2.4-0.7-3.5l-0.2-0.4l-0.3-0.3c-0.2-0.2-0.4-0.4-0.6-0.6
		c-0.5-0.4-1-0.7-1.6-0.9c-2.3-0.8-4.8-0.4-7.1,0.5c-2.2,0.9-4.5,2.2-5.5,4.4l-0.1-0.1c0.3-1.2,1.1-2.3,2.1-3.2
		c1-0.9,2.1-1.6,3.2-2.1c2.3-1.1,5.1-1.7,7.9-0.8c0.7,0.3,1.3,0.6,1.9,1.1c0.3,0.2,0.6,0.5,0.8,0.8c0.3,0.3,0.5,0.6,0.6,0.9
		c0.7,1.3,0.9,2.9,0.6,4.2c-0.5,2.7-1.9,4.8-3.5,6.7L323.6,279.5z"/>
	<path class="st19" d="M320,285.5c-1.4-0.4-3.1-0.5-4,0.6c-0.4,0.5-0.5,1.1-0.5,1.7c-0.2,2.3,0.8,4.7,2.7,6c1.9,1.3,4.8,1,6.2-0.9
		c0.9-1.2,1-2.7,1.1-4.2C325.5,285.1,322.5,286.3,320,285.5z"/>
	<path class="st25" d="M423.5,263.4c1.9,4.3,3.2,8.7,4.4,13.2c1.1,4.2,2.2,8.5,2.8,12.8c1.6,11.9-0.5,24.3-6,35
		c-1.9,3.8-4.4,7.4-7.7,10.1c-1.8,1.5-3.9,2.6-6,3.7c-12.4,6.4-26.6,11.7-40.2,8.7c3.9,0.8,11.6-9.3,14-11.6
		c2.8-2.7,5.9-5.9,5.8-9.8c0-1.4-0.5-2.8-1-4.2c-4.9-14.6-3.8-29.3-6.9-44.1c-0.9-4.5-3.1-8.7-4.6-13c-2.5-6.9-3.7-14.3-4.3-21.6
		c-0.2-2-1.7-8-0.1-9.5c1.3-1.3,6.6-0.2,8.3,0c11.5,1.4,22.4,6.8,30.7,14.9C417.1,252.4,420.9,257.6,423.5,263.4"/>
	<path class="st27" d="M363,271.5c0.8,0.7,1.7,1.5,2.7,1.2c0.6-0.1,1-0.6,1.4-1c1.8-1.9,3.6-3.8,5.5-5.7c1.8,4.3,2,9.2,0.6,13.6
		c-0.4,1.4-1,2.8-0.7,4.2c0.2,1.2,1,2.1,1.8,3c4.5,5.7,8.2,12,10.7,18.8c6.6,0.1,11.2-6.6,13.4-12.9c2.6-7.4,3.8-15.3,3.5-23.1
		c-0.3-8.2-4.5-19.2-14.6-18.8c3.1-15-13.4-30.5-26.7-33.3c-9.6-2-19.8-0.1-28.8,3.8c-12.6,5.4-24.2,15.7-26.5,29.2
		c6.6-0.7,13,0.5,19.4,1.1C338.5,253.2,353,262.3,363,271.5"/>
	<path class="st28" d="M385.1,312.2c3.1-1.9,7-2.8,10.6-2c3.6,0.8,6.8,3.2,8.3,6.6c2.1,4.8,0.4,10.5-2.3,14.9
		c-3.1,5-7.9,9.4-13.7,10.7c-5.8,1.3-12.6-1.2-15.1-6.5L385.1,312.2z"/>
	<path class="st19" d="M392.5,327.8c-1.6,2.8-4.1,4.5-5.5,3.7c-1.4-0.8-1.2-3.8,0.4-6.6c1.6-2.8,4.1-4.5,5.5-3.7
		C394.3,322,394.1,325,392.5,327.8z"/>
	<path class="st29" d="M419.4,262.1c-1.1,0.7-2.1,1.6-2.9,2.5c-6.1,6.5-9.6,15.2-9.7,24.1c0,2.9,0.3,6,2.1,8.3
		c1.9,2.5,5.1,3.7,8.2,3.4c3.1-0.3,5.9-2,7.9-4.4c0.8-0.9,1.4-2,2-3c3.7-6.5,6.9-16,5.7-23.6C431.7,263.4,425.5,258.5,419.4,262.1"
		/>
	<path class="st27" d="M436.5,260.7c8.1-1.5,16.7,2.1,22.1,8.4c5.3,6.3,7.5,14.9,6.6,23.1c-0.7,6.1-2.9,12-4,18
		c-1,6.1-0.6,12.8,3.3,17.6c0.6,0.7,1.3,1.6,0.9,2.4c-0.2,0.4-0.5,0.6-0.9,0.9c-11.5,8.1-28.4,6.3-39.1-2.9
		c-10.6-9.2-14.9-24.6-12.2-38.4c1.3-6.5,5.4-11.3,8.3-17C424.7,266.7,429.6,262,436.5,260.7"/>
	<path class="st30" d="M436.6,321.8c-1.4,3.6-3,7.2-4.6,10.7c4.8,2.4,10.2,3.7,15.6,3.7c6.1,0,12.1-1.7,17-5.2
		c-1.3,0.1-2.5,0.2-3.7,0.2C451.9,331.3,443.5,327.6,436.6,321.8 M421.6,272.8c-2.9,5.7-7,10.5-8.3,17c-0.5,2.7-0.8,5.5-0.8,8.3
		c0,5,0.9,9.9,2.5,14.6c2.3-5.1,4.4-10.4,6.3-15.8C419.6,289.1,419.7,280.8,421.6,272.8"/>
	<path class="st18" d="M320.5,305.4c4.5,1.9,9.3,3.4,14.2,4c2.4,0.3,4.9,0.6,7.4,0.5c1.2,0,2.5-0.1,3.7-0.4c1.2-0.3,2.4-0.7,3.3-1.5
		l0.1,0.1c-0.8,1-2,1.6-3.2,2.1c-1.2,0.4-2.5,0.6-3.8,0.8c-2.5,0.2-5.1,0-7.6-0.3c-2.5-0.4-5-1-7.3-1.8c-2.4-0.8-4.6-2-6.7-3.3
		L320.5,305.4z"/>
	<path class="st14" d="M326.6,253.8c0,0,8.2-8.7,10.4,2.2C337,256,334.1,251.5,326.6,253.8z"/>
	<path class="st14" d="M357.4,267.6c0,0,8.2-6.7,8.2,7.2C365.5,274.8,364,267.1,357.4,267.6z"/>
	<path class="st4" d="M409.7,323.4c9.4-16.9,14.9-35.7,20.6-54.3c0.6-1.9,1.2-3.8,2.5-5.3c4.3-4.8,12.2-1.5,17.6,2
		c0.6,0.4,0.8,1.9,0.7,3.9c-0.6,8.9-6.9,29.7-7.9,33c-3.8,13.1-8.9,25.8-15.3,37.9c-11.9,22.9-31,39.9-41.3,64.2
		c0.2-0.6-11-6.9-11.9-7.4c-3.9-2.4-11.5-5.2-11.6-10.5c-0.2-6.6,2.5-14,4.1-20.3c0.4-1.6,0-5.3,1.1-6.6c0.9-1.1,2.1-1.8,3.3-2.5
		c3.8-2.1,9.7-1.3,13-4c3.1-2.6,6.1-5.8,9-8.7C399.8,338.5,405.3,331.3,409.7,323.4"/>
	<path class="st31" d="M450.2,265.8C450.2,265.9,450.3,265.9,450.2,265.8C450.3,265.9,450.2,265.9,450.2,265.8 M438.5,261.5
		c-2.2,0-4.2,0.7-5.7,2.4C434.3,262.2,436.3,261.5,438.5,261.5 M438.5,261.5L438.5,261.5C438.5,261.5,438.5,261.5,438.5,261.5
		C438.5,261.5,438.5,261.5,438.5,261.5"/>
	<path class="st11" d="M438.5,261.5C438.5,261.5,438.5,261.5,438.5,261.5c-2.2,0-4.2,0.7-5.7,2.4c0,0,0,0,0,0l0,0
		c0,0,1.7,7.4,10.9,7.4c1.8,0,3.8-0.3,6.1-0.9l1.3-0.5c0-0.4,0-0.9,0-1.2c0-1.4-0.2-2.4-0.7-2.7l0,0c0,0,0,0-0.1,0c0,0,0,0-0.1,0
		C446.8,263.6,442.3,261.5,438.5,261.5C438.5,261.5,438.5,261.5,438.5,261.5"/>
	<path class="st3" d="M427.2,254.2c-3.5-5.2-7.1-11.4-5.3-17.4c2.2-1.3,4.7,1.3,5.7,3.7c1.1,2.3,2.9,5.3,5.4,4.6
		c-0.5-10.3-0.3-20.5,0.7-30.8c1.4-1.5,4.1-0.8,5.4,0.9c1.2,1.7,1.4,3.9,1.6,5.9c0.3,4.7,0.6,9.3,0.9,14c1.2-7.8,3.6-15.3,7.3-22.2
		c1.6-1,3.8,0.1,4.7,1.7s0.8,3.6,0.6,5.5c-0.5,5.1-1.5,10.1-2.9,14.9c2.3-4.4,4.6-8.8,6.9-13.2c0.5-1,1.2-2.1,2.3-2.4
		c1.3-0.3,2.6,0.7,3,2c0.4,1.3,0.2,2.6-0.1,3.9c-1.1,5.1-2.9,10-5.4,14.6c2.1-2.3,4.4-4.4,7-6.3c0.8-0.6,1.8-1.2,2.8-1.2
		c2.1,0.1,3.2,2.7,2.6,4.7c-0.6,2-2.2,3.5-3.6,5c-4.8,5.2-7.4,12.1-10.7,18.3c-1.1,2.2-2.4,4.4-4.4,5.9
		C440,275.6,432.5,262.1,427.2,254.2z"/>
	<path class="st27" d="M385.7,251.2c0.2-2.8,0.4-5.5,0.3-8.2c-0.1-2.7-0.5-5.4-1.5-7.8c-1.9-5-6-9-10.6-12c-9.2-6-20.5-8.9-31.6-8.3
		c11.1-1,22.5,1.5,32.2,7.3c2.4,1.5,4.7,3.2,6.7,5.2c2,2,3.7,4.4,4.9,7.1c1.2,2.7,1.7,5.6,1.9,8.4c0.2,2.8,0.1,5.7,0,8.5
		L385.7,251.2"/>
	<path class="st27" d="M386,250c2.6-1,5.4-0.8,7.7,0.1c2.4,0.9,4.4,2.5,5.9,4.4c1.5,1.9,2.5,4.1,3.3,6.3c0.8,2.2,1.2,4.5,1.4,6.8
		c-0.4-2.3-1.2-4.5-2.1-6.5c-1-2.1-2.2-4-3.7-5.6c-1.5-1.6-3.4-2.8-5.4-3.3c-2-0.5-4.2-0.4-5.8,0.5L386,250"/>
	<path class="st32" d="M343.5,228.5c3.3-1.7,7.2-2.2,10.9-2.3c0.3,0,0.6,0,0.9,0c2,0,4.6,0.2,6,1.5c1.7,1.5,0.4,3.4,1.5,5
		c0.7,1,2.6,1,2.9,2.2c0.2,0.7-0.2,1.5,0.1,2.2c0.4,0.6,1.2,0.6,1.9,0.7c1.8,0.4,2.9,2.9,1.8,4.4c-0.3-1.4-0.9-3.1-2.3-3.5
		c-0.5-0.1-1-0.1-1.4-0.3c-0.5-0.2-0.9-0.7-1.3-1.1c-0.7-0.7-1.7-1.1-2.7-1.1c-0.2,0-0.5,0-0.7,0.1c0.5-1.1-0.3-2.4-1.4-2.8
		c-0.4-0.1-0.8-0.2-1.2-0.2c-0.8,0-1.5,0.2-2.3,0.4c0.4-0.5,0.1-1.3-0.4-1.8c-0.5-0.4-1.2-0.6-1.8-0.7c-1-0.2-2-0.2-2.9-0.2
		c-0.5,0-1,0-1.5,0.1c0.2-0.8,0.3-1.5,0.5-2.3c-1.5-0.2-3.1-0.3-4.6-0.3C344.9,228.4,344.2,228.5,343.5,228.5 M348.6,223.6
		c-2.3,0-4.5,0.1-6.4,0.2c-6.6,0.4-13.3,2.4-18.3,6.7c4-1.4,8.2-2.2,12.5-2.4c-1.6,1.7-2.8,3.8-3.6,6c3.6,0,7.2,0,10.8,0
		c0,1.2,0,2.5,0,3.7c4.1-0.7,8.3-1,12.5-1.1c0.3,1.2,0.4,2.5,0.1,3.7c2.6-0.1,5.3-0.2,7.9-0.3c0.2,1.7,0.4,3.3,0.6,5
		c1.7,0.8,2.7,2.9,2.4,4.8c2.6-0.8,5.2-1.7,7.8-2.5c0,1.6-0.1,3.1-0.1,4.7c0.7-0.4,1.5-0.5,2.2-0.5c2.3,0,4.6,1.5,5.9,3.5
		c1.7,2.7,1.9,6,2,9.2c1.2-0.7,2.5-1.2,3.8-1.4c0.7,2.9,0.9,5.9,0.7,8.9c2.7-3.9,3.3-9.1,1.5-13.5c-0.6-1.5-2.1-3-3.5-3
		c-0.4,0-0.7,0.1-1.1,0.3c0.8-2.1-0.5-4.7-2.6-5.3c-0.7-0.2-1.4-0.2-1.9-0.7c-0.8-0.7-0.6-1.9-0.5-3c0.3-3.7-2-7.5-5.4-9
		c-1.1-0.5-2.4-0.8-3.4-1.5c-1.6-1.2-2.2-3.3-3.2-5.1C365.9,224.8,356.4,223.6,348.6,223.6"/>
	<path class="st33" d="M355.4,226.2c-0.3,0-0.6,0-0.9,0c-3.8,0.1-7.6,0.6-10.9,2.3c0.7,0,1.4-0.1,2-0.1c1.5,0,3.1,0.1,4.6,0.3
		c-0.2,0.8-0.3,1.5-0.5,2.3c0.5,0,1-0.1,1.5-0.1c1,0,2,0.1,2.9,0.2c0.6,0.1,1.3,0.3,1.8,0.7c0.5,0.4,0.7,1.2,0.4,1.8
		c0.7-0.2,1.5-0.4,2.3-0.4c0.4,0,0.8,0.1,1.2,0.2c1.1,0.4,2,1.7,1.4,2.8c0.2,0,0.5-0.1,0.7-0.1c1,0,2,0.4,2.7,1.1
		c0.4,0.4,0.7,0.9,1.3,1.1c0.4,0.2,1,0.2,1.4,0.3c1.4,0.4,2,2.1,2.3,3.5c1-1.6,0-4-1.8-4.4c-0.7-0.1-1.6-0.1-1.9-0.7
		c-0.4-0.6,0.1-1.5-0.1-2.2c-0.4-1.2-2.2-1.1-2.9-2.2c-1.1-1.6,0.2-3.5-1.5-5C359.9,226.4,357.3,226.2,355.4,226.2"/>
	<path class="st34" d="M365.8,499.6c-0.5,0-0.9,0-1.3,0.1c-0.6,0.1-1.2,0.1-1.9,0.2c-6.6,6.2-14.7,10.8-22.6,15.2
		c-5,2.8-10,5.6-15,8.4c0.1,0,0.2-0.1,0.3-0.1c13.9-5,27.8-10,40.3-17.8c2.3-1.4,4.7-3.3,5.4-5.7c-0.6,0-1.2-0.1-1.8-0.1
		C368,499.7,366.8,499.6,365.8,499.6"/>
	<path class="st16" d="M368.2,493.7c-1,1.4-2.1,2.7-3.3,3.9c-0.8,0.8-1.5,1.6-2.3,2.3c0.6,0,1.2-0.1,1.9-0.2c0.4,0,0.9-0.1,1.3-0.1
		c1,0,2.2,0.1,3.4,0.2c0.6,0,1.2,0.1,1.8,0.1c0.2-0.6,0.2-1.2,0.2-1.8C371,496.3,369.7,494.7,368.2,493.7"/>
	<path class="st17" d="M351.5,490.8c-1.1,0-2.1,0-3.1,0.1c-2.3,0.2-9.6,3.5-5.3,6.5c0.5,0.4,1.2,0.5,1.8,0.5c0.7,0,1.3-0.1,2-0.1
		c0.1,0,0.2,0,0.3,0c1.2,0,2.7,0.5,2.8,1.7c0.1,1.3-1.3,2.1-2.5,2.6c-6,2.5-11.6,5.8-16.7,9.8c-3.5,2.7-6.9,6.1-7.4,10.4
		c0,0.4-0.1,0.8,0.2,1.1c0.2,0.2,0.5,0.3,0.7,0.3c0.2,0,0.4,0,0.6-0.1c5-2.8,10-5.6,15-8.4c7.9-4.5,16-9,22.6-15.2
		c0.8-0.7,1.6-1.5,2.3-2.3c1.2-1.2,2.3-2.5,3.3-3.9c-0.1,0-0.1-0.1-0.2-0.1c-1.7-1-3.6-1.4-5.5-1.7
		C359,491.3,355.2,490.8,351.5,490.8"/>
	<path class="st3" d="M346.3,491.3c-1.8,1.2-3.9,3.1-3.2,5.2c6.4,0.8,12.9,1.1,19.4,0.8c-1.6,0.1-5.4,5.1-6.9,6.2
		c-2.8,1.9-5.7,3.1-8.7,4.7c-6.5,3.3-12.8,7.3-19,11.2c-8.2,5.2-3.1,8.2,4.3,7.5c10.3-1.1,20.9-2.3,30.3-6.9
		c9.9-4.9,27.5-24.8,14.3-35.4C368.4,477.9,353.4,486.7,346.3,491.3z"/>
	<path class="st11" d="M384.9,416.8c-2.6,4-4.6,8.5-7.1,12.5c-1,1.6-2,3.1-3.3,4.4c-2,2-4.5,3.4-7,4.7c-3.3,1.8-6.7,3.5-10,5.3
		c3,1.7,6.5,2.1,10,2.3c0.7,0,1.5,0.1,2.2,0.1c2.3,0,4.6-0.2,6.7-1.2c3-1.4,5.1-4.2,6.4-7.2c1.3-3,1.7-6.3,2.1-9.6
		C385.2,425.3,387,419,384.9,416.8"/>
	<path class="st3" d="M387,411.8c0.7-1.8,1.8-4,3.8-3.8c2.1,0.2,2.8,2.9,3,5c0.2,4.2,0.4,8.5,0.3,12.8c-0.6-2.5,2.2-4.8,4.7-4.3
		c2.5,0.4,4.3,2.8,5,5.2c0.7,2.4,0.5,5,0.5,7.5c0.1,7.7,2.2,15.4,1.2,23.1c-1,7.7-6.4,15.7-14.1,15.8c-6.6,0.1-12.1-5.9-13.7-12.4
		C374.3,446.6,382.2,424.9,387,411.8z"/>
	<path class="st7" d="M264.8,425.6c6.5,4.9,13.2,10,21.1,12.1c5.6,1.5,11.4,1.4,17.2,1.4c16.4-0.1,32.8,0,49.2,0.3
		c11.1,0.2,32-4,39.6,6c3.3,4.2,4.5,9.7,4.6,15.1c0,2.9-0.3,5.7-1.2,8.4c-5.5,15.5-23.1,9.7-35.6,10c-18.4,0.4-36.9,0.7-55.3,0.9
		c-13.3,0.2-26.7,0.3-39.7-2.6c-7-1.5-13.8-3.9-20.5-6.5c-29.3-11.3-56.9-26.8-81.9-45.9c-6-4.6-12-9.7-14.8-16.6
		c-1.7-4.2-2.1-8.9-2-13.4c0-6,0.7-12.2,3.7-17.5c12.8-22.8,36.5-5,51,4C222.2,395.1,243.8,409.9,264.8,425.6z"/>
	<path class="st0" d="M540.7,232.9c8.7-8,16.8-16.5,23.6-26.4c6.7-9.9,13.5-25.8,8-37.8c-5.4-11.8-19.1-8.4-27.1-2.2
		c-6.2,4.8-11.6,10.6-15.8,17.3c0.7-9.1,1.3-18.6-2.3-27c-2.5-5.6-7-10.5-12.7-12.6c-5.7-2.1-12.7-1.2-17.2,2.9
		c-2.5,2.3-4.1,5.3-5.4,8.4c-4,9.6-5.5,20-6.3,30.4c-2.5,29.7-2.7,64.4,5.3,93.3c-0.5-1.7,13.4-13.7,14.8-15
		C516.8,253.2,529.2,243.5,540.7,232.9z"/>
	<path class="st0" d="M473.4,61.8c2.1-0.9,4.3-1.3,6.6-0.9c4.4,0.7,7.7,4.5,9.3,8.6c4.3,11.7,1.1,25.2-5.5,35.3
		c-3.1,4.7-6.9,8.8-10.7,12.9c-13.5,14.4-27,28.9-40.5,43.3c-8.9-26.4-14.6-53.8-16.7-81.6c-0.8-10.5-1.2-20.9,9.2-26
		c3.4-1.7,6.9-3.3,10.6-3.1c4,0.3,7.6,2.9,9.8,6.2c2.3,3.3,3.4,7.3,4.2,11.2c1.5,7.1,1.9,14.4,1.5,21.6c2.8-10,9.2-19,17.7-25
		C470.2,63.4,471.7,62.5,473.4,61.8z"/>
	<path class="st0" d="M43.4,473.7c-3.2-0.2-6.4,0.2-9.3,1.7c-5.6,2.9-8.4,9.5-8.6,15.8c-0.5,17.7,10,34.5,23.5,45.1
		c6.3,4.9,13.3,8.7,20.3,12.5c24.8,13.3,49.6,26.7,74.4,40c0.1-39.6-4.8-79.3-14.6-117.7c-3.7-14.5-7.9-28.7-24.2-30.9
		c-5.3-0.7-10.9-1.4-15.7,0.7c-5.3,2.2-8.9,7.4-10.4,12.9s-1.3,11.3-0.6,17c1.3,10.2,3.9,20.3,7.8,29.9c-8.3-12.2-21-21.5-35.2-25.6
		C48.4,474.4,45.9,473.8,43.4,473.7z"/>
	<path class="st0" d="M39,379.2c-7.6-4.3-14.9-9-21.4-15c-6.5-5.9-14-16.2-12.1-25.7c1.9-9.3,12.3-9.2,19.1-6.2
		c5.3,2.4,10.1,5.7,14.2,9.7c-2-6.4-4.1-13.1-2.9-19.8c0.8-4.4,3.2-8.7,7-11.2c3.8-2.5,8.9-3,12.9-0.8c2.1,1.2,3.8,3.1,5.3,5.1
		c4.5,6.2,7.3,13.5,9.7,20.7c6.8,20.9,12.8,45.7,11.9,67.8c0.1-1.3-11.9-7.5-13.1-8.3C59.6,389.8,49.1,384.9,39,379.2z"/>
	<path class="st0" d="M483.6,397.4c2.2-0.4,4.5-0.4,6.6,0.5c4.1,1.6,6.6,6,7.2,10.4c1.8,12.3-4.3,24.9-12.9,33.3
		c-4,3.9-8.6,7.1-13.2,10.3c-16.3,11.2-32.5,22.5-48.8,33.7c-3.2-27.7-2.8-55.7,0.9-83.3c1.4-10.4,3.3-20.7,14.5-23.5
		c3.6-0.9,7.5-1.8,11-0.7c3.8,1.1,6.8,4.5,8.3,8.2c1.5,3.7,1.8,7.8,1.7,11.8c-0.1,7.2-1.1,14.5-3.1,21.5c4.9-9.2,13-16.6,22.6-20.6
		C480.2,398.3,481.9,397.7,483.6,397.4z"/>
	<polygon class="st35" points="751.2,299.4 746.8,299.4 746.8,313 749.7,313 749.7,315 746.8,315 746.8,329.5 744.8,329.5 
		744.8,297.4 751.2,297.4 	"/>
	<polygon class="st35" points="751.2,299.4 751.2,299.1 746.4,299.1 746.4,313.3 749.3,313.3 749.3,314.6 746.4,314.6 746.4,329.1 
		745.2,329.1 745.2,297.8 750.8,297.8 750.8,299.4 751.2,299.4 751.2,299.1 751.2,299.4 751.6,299.4 751.6,297 744.4,297 
		744.4,329.9 747.2,329.9 747.2,315.3 750,315.3 750,312.6 747.2,312.6 747.2,299.8 751.6,299.8 751.6,299.4 	"/>
	<polygon class="st35" points="769.2,299.4 769.2,313 772.1,313 772.1,315 769.2,315 769.2,327.5 773.7,327.5 773.7,329.5 
		767.2,329.5 767.2,297.4 773.7,297.4 773.7,299.4 	"/>
	<polygon class="st35" points="769.2,299.4 768.9,299.4 768.9,313.3 771.8,313.3 771.8,314.6 768.9,314.6 768.9,327.9 773.3,327.9 
		773.3,329.1 767.6,329.1 767.6,297.8 773.3,297.8 773.3,299.1 768.9,299.1 768.9,299.4 769.2,299.4 769.2,299.8 774,299.8 774,297 
		766.9,297 766.9,329.9 774,329.9 774,327.1 769.6,327.1 769.6,315.3 772.5,315.3 772.5,312.6 769.6,312.6 769.6,299.4 769.2,299.4 
		769.2,299.8 	"/>
	<polygon class="st35" points="791.7,327.5 796,327.5 796,329.5 789.7,329.5 789.7,297.4 791.7,297.4 	"/>
	<polygon class="st35" points="791.7,327.5 791.7,327.9 795.7,327.9 795.7,329.1 790.1,329.1 790.1,297.8 791.3,297.8 791.3,327.9 
		791.7,327.9 791.7,327.5 792.1,327.5 792.1,297 789.3,297 789.3,329.9 796.4,329.9 796.4,327.1 791.7,327.1 791.7,327.5 
		792.1,327.5 	"/>
	<rect x="812.1" y="297.4" class="st35" width="2" height="32.1"/>
	<polygon class="st35" points="812.1,329.5 812.5,329.5 812.5,297.8 813.7,297.8 813.7,329.1 812.1,329.1 812.1,329.5 812.5,329.5 
		812.1,329.5 812.1,329.9 814.5,329.9 814.5,297 811.7,297 811.7,329.9 812.1,329.9 	"/>
	<polygon class="st35" points="837.7,297.4 832.5,327.5 837.7,327.5 837.7,329.5 830.2,329.5 835.3,299.4 830.2,299.4 830.2,297.4 
		837.7,297.4 	"/>
	<polygon class="st35" points="837.7,297.4 837.3,297.4 832.1,327.9 837.3,327.9 837.3,329.1 830.6,329.1 835.8,299.1 830.5,299.1 
		830.5,297.8 837.7,297.8 837.7,297.4 837.3,297.4 837.3,297.4 837.7,297.4 837.3,297.4 837.7,297.4 838.1,297.4 838.1,297.4 
		838.1,297 829.8,297 829.8,299.8 834.9,299.8 829.7,329.9 838.1,329.9 838.1,327.1 833,327.1 838.1,297.5 838.1,297.4 	"/>
	<path class="st35" d="M873.4,297.4c1.3,0,2.2,0.3,2.9,1c0.7,0.6,1.1,1.5,1.1,2.6v25c0,1.1-0.4,2-1.1,2.6c-0.7,0.6-1.6,1-2.9,1h-3.6
		v-32.1H873.4z M873.4,327.8c0.6,0,1.1-0.2,1.4-0.5c0.3-0.4,0.5-0.8,0.5-1.3v-25c0-0.6-0.2-1-0.5-1.3c-0.3-0.4-0.9-0.5-1.4-0.6h-1.6
		v28.7H873.4z"/>
	<path class="st35" d="M873.4,297.4v0.4c1.3,0,2,0.3,2.6,0.9c0.6,0.5,1,1.3,1,2.3v25c0,1-0.4,1.8-1,2.3l0.3,0.3l-0.2-0.3
		c-0.7,0.6-1.4,0.9-2.6,0.9h-3.2v-31.3l3.2,0V297.4v-0.4h-3.9v32.8h3.9c1.4,0,2.4-0.4,3.1-1.1l0,0l0,0c0.8-0.7,1.2-1.7,1.2-2.9v-25
		c0-1.2-0.4-2.2-1.2-2.9c-0.8-0.7-1.8-1.1-3.1-1.1V297.4z M873.4,327.8v0.4c0.6,0,1.3-0.2,1.7-0.6l0,0l0,0c0.3-0.4,0.6-0.9,0.6-1.6
		v-25c0-0.7-0.2-1.2-0.6-1.6l0,0c-0.4-0.5-1.1-0.6-1.7-0.7l0,0h-2v29.4h1.9V327.8v-0.4h-1.2v-27.9l1.2,0v-0.4l0,0.4
		c0.5,0,1,0.2,1.2,0.4l0,0l0,0c0.2,0.3,0.4,0.6,0.4,1.1v25c0,0.4-0.2,0.8-0.4,1.1l0.3,0.2l-0.3-0.2c-0.2,0.2-0.7,0.4-1.2,0.4V327.8z
		"/>
	<path class="st35" d="M893.4,329.5v-32.1h2v32.1H893.4z M898,291.5l-2.6,3.8h-1.9l2.6-3.8H898z"/>
	<path class="st35" d="M893.4,329.5h0.4v-31.8h1.3v31.4l-1.6,0V329.5h0.4H893.4v0.4h2.4V297H893v32.9h0.4V329.5z M898,291.5
		l-0.3-0.2l-2.5,3.6h-1l2.1-3l1.8,0V291.5l-0.3-0.2L898,291.5v-0.4h-2.2l-3.1,4.5h2.8l3.1-4.5H898V291.5z"/>
	<path class="st35" d="M917.1,329.5l-0.5-5.5h-2.6l-0.5,5.5h-2l2.8-32.1h2l2.8,32.1H917.1z M914.1,322h2.3l-1.2-13L914.1,322z"/>
	<path class="st35" d="M917.1,329.5l0.4,0l-0.5-5.8h-3.3l-0.5,5.5h-1.3l2.7-31.4h1.3l2.7,31.4l-1.6,0V329.5l0.4,0L917.1,329.5v0.4
		h2.4l-2.9-32.9h-2.7l-2.9,32.9h2.8l0.5-5.5h2l0.5,5.5h0.3V329.5z M914.1,322v0.4h2.7l-1.2-13.4l-0.7,0l-1.2,13.4h0.4V322l0.4,0
		l0.8-8.8l0.7,8.4l-1.9,0V322l0.4,0L914.1,322z"/>
	<path class="st35" d="M722.8,322.9c-6.4,24.8-13.8,66.3-13.8,85.5c0,6.8,0.9,7.4,2.3,12.4c-10.4,0-12.4-4.5-12.4-17
		c0-24.1,7.3-51.9,15.1-81.6c-14.5,18.6-34.4,66.5-40.6,84.9c-1.2,0.5-1.4,0.6-2.3,0.6c-5.5,0-6.7-6.8-6.7-18.5
		c0-16.7,2.4-48.3,2.4-64.3c0-3.9-0.2-6.4-0.3-8.5c-32.2,75.2-41,104.3-52.1,104.3c2.4-5.4,23.5-51.3,48-106.4
		c0.6-1.4,1.5-3.9,1.5-6.2c0-2.3-0.9-3.9-5.1-3.9c-12.9,0-18.8,15.3-18.8,27.6c0,2,0.2,3.3,0.3,4.7c-5.8,0-8-7.4-8-12.4
		c0-13.3,16.2-25.4,29.5-25.4c9.8,0,15.3,6.5,15.3,33.9c0,18.9-2.6,42.7-3.2,59.6c8-30.9,36.3-75.4,43.1-85.4
		c2.7-3.9,4.2-6.2,7.6-6.2c1.2,0,2.9,0.3,4.8,1.1C728.1,305.3,725.4,312.6,722.8,322.9z"/>
	<path class="st35" d="M722.8,322.9l-1.5-0.4c-3.2,12.5-6.6,29.1-9.3,45c-2.7,15.9-4.5,31.1-4.5,40.9c0,3.5,0.2,5.5,0.7,7.2
		c0.2,0.9,0.5,1.7,0.7,2.5c0.3,0.9,0.6,1.8,0.9,3l1.4-0.4v-1.5c-2.5,0-4.4-0.3-5.8-0.8c-1.1-0.4-1.8-0.9-2.5-1.6
		c-0.9-1-1.6-2.5-2-4.7c-0.4-2.2-0.6-4.9-0.6-8.4c0-23.8,7.2-51.5,15.1-81.2c0.2-0.7-0.1-1.4-0.8-1.7c-0.6-0.3-1.4-0.1-1.8,0.4
		c-3.7,4.8-7.7,11.3-11.7,18.7c-12.1,22.3-24.4,52.7-29.1,66.6l1.4,0.5l-0.5-1.4c-0.6,0.2-1,0.4-1.2,0.4l-0.2,0c-0.1,0-0.2,0-0.4,0
		c-1.1,0-1.7-0.3-2.3-0.8c-0.5-0.4-0.9-1.1-1.3-2c-0.6-1.4-1-3.3-1.2-5.7c-0.3-2.4-0.3-5.2-0.3-8.5c0-8.3,0.6-20.3,1.2-32.3
		c0.6-12,1.2-23.9,1.2-32c0-4-0.2-6.5-0.3-8.6c0-0.7-0.6-1.3-1.2-1.4c-0.7-0.1-1.4,0.3-1.6,0.9c-16.1,37.6-26.4,63.7-34,80.3
		c-3.8,8.3-6.9,14.2-9.7,18c-1.4,1.9-2.7,3.2-3.8,4c-1.2,0.8-2.2,1.1-3.2,1.1v1.5l1.4,0.6c1.2-2.7,7.1-15.5,15.7-34.6
		c8.6-19,20-44.3,32.3-71.8c0.3-0.7,0.7-1.8,1.1-3c0.3-1.2,0.6-2.5,0.6-3.8c0-0.7-0.1-1.3-0.3-2c-0.2-0.5-0.4-1-0.8-1.5
		c-0.6-0.7-1.3-1.2-2.3-1.5c-0.9-0.3-2-0.4-3.3-0.4c-3.5,0-6.6,1.1-9.2,2.8c-3.9,2.7-6.6,6.9-8.4,11.6c-1.8,4.7-2.6,9.9-2.6,14.6
		c0,2,0.2,3.5,0.3,4.9l1.5-0.2V335c-1.1,0-2-0.3-2.8-0.9c-1.2-0.9-2.2-2.5-2.8-4.3c-0.6-1.9-0.9-3.9-0.9-5.6c0-3,0.9-6,2.5-8.8
		c2.4-4.2,6.4-8,11-10.8c4.6-2.7,9.8-4.3,14.4-4.3c2.3,0,4.2,0.4,5.8,1.3c1.2,0.7,2.3,1.6,3.2,3c1.5,2.1,2.7,5.3,3.5,9.9
		c0.8,4.6,1.2,10.6,1.2,18.2c0,18.8-2.6,42.6-3.2,59.6c0,0.8,0.5,1.4,1.3,1.5s1.5-0.4,1.7-1.1c3.9-15.2,13-34,21.9-50.2
		c8.9-16.2,17.7-29.8,21-34.7l0,0c1.4-2,2.4-3.5,3.3-4.3c0.5-0.4,0.9-0.7,1.4-0.9c0.5-0.2,1-0.3,1.6-0.3c1,0,2.5,0.3,4.3,1l0.5-1.4
		l-1.4-0.6c-1.5,3.7-4.3,11-6.9,21.4l0,0L722.8,322.9l1.5,0.4c2.6-10.2,5.3-17.4,6.7-21c0.2-0.4,0.2-0.8,0-1.2
		c-0.2-0.4-0.5-0.7-0.8-0.8c-2.1-0.8-3.9-1.2-5.4-1.2c-1,0-1.9,0.2-2.8,0.5c-1.3,0.5-2.3,1.4-3.2,2.5c-0.9,1.1-1.8,2.3-2.8,3.8l0,0
		c-3.4,5-12.2,18.7-21.2,35c-9,16.3-18.1,35.2-22.2,50.9l1.5,0.4l1.5,0.1c0.6-16.9,3.2-40.7,3.2-59.7c0-6.9-0.3-12.5-1-17.1
		c-0.5-3.4-1.2-6.3-2.1-8.6c-1.4-3.5-3.2-6-5.6-7.6c-2.4-1.6-5.1-2.1-8.1-2.1c-7.1,0-14.7,3.2-20.7,8.1c-3,2.4-5.5,5.3-7.4,8.5
		c-1.8,3.2-2.9,6.7-2.9,10.3c0,2.7,0.6,6,2,8.8c0.7,1.4,1.7,2.7,2.9,3.6c1.2,1,2.8,1.5,4.6,1.5c0.4,0,0.8-0.2,1.1-0.5
		c0.3-0.3,0.4-0.7,0.4-1.2c-0.2-1.4-0.3-2.6-0.3-4.5c0-5.9,1.4-12.6,4.4-17.6c1.5-2.5,3.3-4.6,5.4-6.1c2.1-1.5,4.6-2.3,7.5-2.3
		c1,0,1.7,0.1,2.2,0.2c0.4,0.1,0.6,0.2,0.8,0.4c0.3,0.2,0.4,0.3,0.5,0.6c0.1,0.3,0.2,0.7,0.2,1.2c0,0.9-0.2,2-0.5,3
		c-0.3,1-0.6,1.9-0.9,2.6c-12.3,27.5-23.7,52.8-32.3,71.8c-8.6,19-14.5,31.9-15.7,34.6c-0.2,0.5-0.2,1,0.1,1.4
		c0.3,0.4,0.8,0.7,1.3,0.7c1.7,0,3.4-0.6,4.9-1.7c2.7-1.9,5.2-5.2,8-10.1c4.2-7.3,9-18.4,15.4-33.7c6.4-15.4,14.5-35.1,25.1-59.7
		l-1.4-0.6l-1.5,0.1c0.2,2.1,0.3,4.5,0.3,8.4c0,8-0.6,19.9-1.2,31.9c-0.6,12-1.2,24.1-1.2,32.5c0,5.9,0.3,10.6,1.4,14.1
		c0.5,1.7,1.3,3.2,2.4,4.3c1.1,1.1,2.7,1.7,4.4,1.6c0.3,0,0.5,0,0.8,0c0.4,0,0.7-0.2,1-0.3c0.3-0.1,0.6-0.2,1-0.4
		c0.4-0.2,0.8-0.5,0.9-0.9c3.1-9.2,9.6-25.7,17.1-42.3c3.8-8.3,7.8-16.5,11.8-23.9c4-7.3,7.9-13.8,11.5-18.3l-1.2-0.9l-1.4-0.4
		c-7.9,29.7-15.2,57.6-15.2,82c0,3.1,0.1,5.8,0.5,8.1c0.3,1.7,0.7,3.2,1.3,4.6c0.5,1,1.1,1.9,1.8,2.6c1.1,1.1,2.6,1.9,4.3,2.4
		c1.7,0.5,3.7,0.7,6,0.7c0.5,0,0.9-0.2,1.2-0.6s0.4-0.9,0.3-1.3c-0.3-1.3-0.7-2.3-0.9-3.2c-0.4-1.3-0.7-2.3-0.9-3.5
		c-0.2-1.3-0.3-2.8-0.3-5.4c0-9.4,1.8-24.6,4.5-40.4c2.6-15.8,6.1-32.4,9.2-44.7l0,0L722.8,322.9z"/>
	<path class="st35" d="M793,384.9c-4.4,10.1-10.1,13-15.1,13c-5.6,0-11.2-3.6-14.2-10.6c-6.4,14.8-15.9,25.1-26.5,25.1
		c-7.7,0-12.1-5.5-12.1-13.2c0-16,18.6-45,36.6-45c3.8,0,5.6,1.4,6.5,3.2c0.3-0.2,0.6-0.2,1.1-0.2c3.8,0,5.1,4.1,5.1,5.9
		c0,3.8-5.9,11.1-5.9,19.1c0,7.7,5.3,12.6,10.6,12.6c4.2,0,8-3.2,12-11.5L793,384.9z M762.2,382.7c-0.6-2.4-0.9-5.1-0.9-8.6
		c0-6.8,1.2-11.2,2.9-13.8c-17.1,0-29.4,26.5-29.4,38c0,4.7,2.1,7.7,5.8,7.7C747.3,406,756.7,395.7,762.2,382.7z"/>
	<path class="st35" d="M793,384.9l-1.4-0.6c-2.1,4.9-4.5,7.9-6.9,9.7c-2.4,1.8-4.7,2.4-6.9,2.4c-2.5,0-5-0.8-7.2-2.4
		c-2.2-1.6-4.2-4-5.6-7.3c-0.2-0.5-0.8-0.9-1.4-0.9c-0.6,0-1.1,0.4-1.4,0.9c-3.1,7.3-7,13.4-11.3,17.6c-2.2,2.1-4.4,3.8-6.7,4.9
		c-2.3,1.1-4.7,1.7-7.1,1.7c-3.5,0-6.1-1.2-7.8-3.2c-1.8-2-2.8-4.9-2.8-8.5c0-3.7,1.1-8.4,3.1-13.2c3-7.3,7.9-14.9,13.6-20.7
		c2.9-2.9,6-5.3,9.1-7c3.1-1.7,6.3-2.6,9.4-2.6c1.7,0,2.9,0.3,3.6,0.7c0.8,0.4,1.2,0.9,1.6,1.6c0.2,0.4,0.5,0.6,0.9,0.8
		c0.4,0.1,0.8,0.1,1.1-0.1l-0.1-0.2l0.1,0.2l0,0l-0.1-0.2l0.1,0.2l0,0c0,0,0.2,0,0.4,0c0.7,0,1.2,0.2,1.6,0.4
		c0.7,0.4,1.2,1.1,1.5,1.9c0.4,0.8,0.5,1.6,0.5,2.1c0,0.6-0.3,1.6-0.8,2.9c-0.8,1.9-2,4.3-3.1,7.1c-1.1,2.7-2,5.8-2,9.1
		c0,4.2,1.5,7.7,3.7,10.2c2.2,2.5,5.3,3.9,8.4,3.9c1.2,0,2.5-0.2,3.7-0.7c1.8-0.8,3.5-2.1,5-4c1.6-1.9,3.1-4.4,4.6-7.6l-1.4-0.6
		l-0.9,1.2l2,1.5L793,384.9l-1.4-0.6L793,384.9l0.9-1.2l-2-1.5c-0.4-0.3-0.8-0.4-1.3-0.3c-0.4,0.1-0.8,0.4-1,0.8
		c-1.9,4.1-3.8,6.8-5.5,8.4c-0.9,0.8-1.7,1.4-2.6,1.7c-0.8,0.3-1.6,0.5-2.5,0.5c-2.2,0-4.4-1-6.2-2.9c-1.7-1.9-2.9-4.7-2.9-8.2
		c0-3.6,1.4-7.3,2.8-10.5c0.7-1.6,1.5-3.1,2-4.5c0.6-1.4,1-2.7,1-4c0-0.6-0.1-1.3-0.3-2.1c-0.3-1.1-0.9-2.4-1.9-3.5
		c-0.5-0.5-1.1-1-1.9-1.3c-0.7-0.3-1.6-0.5-2.5-0.5c-0.2,0-0.5,0-0.8,0c-0.3,0-0.6,0.1-1,0.3l0.7,1.3l1.3-0.7
		c-0.6-1.1-1.5-2.2-2.8-2.9c-1.3-0.7-3-1.1-5.1-1.1c-4.9,0-9.7,2-14.2,5c-6.7,4.6-12.6,11.8-16.9,19.4c-2.2,3.8-3.9,7.7-5.1,11.4
		c-1.2,3.8-1.9,7.3-1.9,10.6c0,4.1,1.2,7.8,3.5,10.5c2.4,2.7,5.9,4.2,10.1,4.2c2.9,0,5.7-0.7,8.4-2c4-1.9,7.6-5.1,10.9-9.2
		c3.3-4.1,6.2-9.1,8.6-14.8l-1.4-0.6l-1.4,0.6c1.6,3.7,3.9,6.6,6.7,8.5c2.7,2,5.8,3,9,3c2.8,0,5.8-0.8,8.7-3
		c2.9-2.2,5.5-5.7,7.8-10.9c0.3-0.6,0.1-1.4-0.5-1.8L793,384.9z M762.2,382.7l1.5-0.4c-0.6-2.3-0.9-4.9-0.9-8.3
		c0-6.6,1.2-10.8,2.6-13c0.3-0.5,0.3-1,0.1-1.5s-0.8-0.8-1.3-0.8c-4.7,0-9,1.8-12.7,4.6c-5.6,4.2-10.1,10.7-13.2,17.1
		c-1.6,3.3-2.8,6.5-3.6,9.6c-0.8,3-1.3,5.8-1.3,8.2c0,2.6,0.6,4.8,1.8,6.5c0.6,0.8,1.4,1.5,2.3,2c0.9,0.5,2,0.7,3.1,0.7
		c2.1,0,4.2-0.8,6.3-2c3.1-1.9,6.2-5,9.1-8.8c2.9-3.8,5.5-8.4,7.6-13.4c0.1-0.3,0.1-0.6,0.1-0.9L762.2,382.7l-1.4-0.6
		c-2.7,6.4-6.3,12.1-10,16.1c-1.9,2-3.8,3.6-5.5,4.7c-1.8,1.1-3.4,1.6-4.7,1.6c-0.7,0-1.3-0.1-1.8-0.4c-0.7-0.4-1.3-1-1.8-2
		c-0.4-1-0.7-2.3-0.7-3.9c0-2.6,0.7-6.3,2.1-10.3c2.1-6,5.6-12.6,10.1-17.7c2.2-2.5,4.7-4.7,7.4-6.2c2.6-1.5,5.4-2.3,8.3-2.3v-1.5
		l-1.3-0.8c-1.9,3-3.1,7.6-3.1,14.6c0,3.6,0.3,6.4,1,9L762.2,382.7l-1.4-0.6L762.2,382.7z"/>
	<path class="st35" d="M819.7,407.9c0-2.7,9.5-24.2,9.5-34.8c0-3.5-1.1-5.8-3.8-5.8c-8.8,0-26.9,23.9-34.4,44.4
		c-2.9,0-8.2-1.7-8.2-3.2c0-2.3,10.3-27.1,10.4-40.4c1.2-1.4,4.1-3.2,7-3.2c2.7,0,4.1,1.5,4.1,3.9c0,2.7-1.7,9.7-3.9,17.3
		c8.2-12.9,21-28.8,31.9-28.8c6.2,0,8.2,5.3,8.2,11.5c0,7.7-3,17.3-4.7,21.3c6.4-11.5,14.8-23.3,25.1-23.3c6.4,0,8.6,4.5,8.6,9.7
		c0,8-5.6,18.9-5.6,25.3c0,2.7,1.1,5.1,4.5,5.1c8.3,0,15.6-13.6,20.3-23.9l1.8,2.1c-4.8,12.7-14.1,27.1-26.2,27.1
		c-7.1,0-10.1-5-10.1-11.1c0-7.4,4.5-15.6,4.5-21.5c0-3.9-2.1-5.4-4.4-5.4c-5,0-10.4,8.2-19.8,22.6c-3.2,4.8-5.3,10-7.3,14.1
		C825,411,819.7,410.1,819.7,407.9z"/>
	<path class="st35" d="M819.7,407.9h1.5h-0.1l0.1,0l0,0h-0.1l0.1,0c0,0,0-0.2,0.1-0.5c0.1-0.5,0.4-1.3,0.7-2.3
		c1.2-3.5,3.3-9.2,5.2-15.2c0.9-3,1.8-6,2.5-8.9c0.6-2.9,1.1-5.6,1.1-7.9c0-1.9-0.3-3.6-1.1-5c-0.4-0.7-1-1.3-1.7-1.7
		c-0.7-0.4-1.6-0.6-2.5-0.6c-1.4,0-2.9,0.5-4.4,1.2c-2.6,1.3-5.4,3.6-8.3,6.6c-8.6,8.9-18.2,23.9-23.1,37.5l1.4,0.5v-1.5
		c-0.6,0-1.4-0.1-2.2-0.3c-1.2-0.2-2.6-0.7-3.5-1.1c-0.5-0.2-0.8-0.4-1-0.6l-0.1-0.1l0,0l-0.1,0.1l0.1-0.1l0,0l-0.1,0.1l0.1-0.1
		l-0.6,0.3l0.7,0c0-0.2-0.1-0.3-0.1-0.3l-0.6,0.3l0.7,0h-0.6l0.6,0l0,0h-0.6l0.6,0l-0.1,0l0.1,0l0,0l-0.1,0l0.1,0c0,0,0-0.3,0.1-0.6
		c0.3-1.2,1.1-3.5,2.1-6.5c1.5-4.5,3.5-10.4,5.2-16.4c1.6-6,2.9-12.1,3-16.9l-1.5,0l1.1,1c0.4-0.5,1.3-1.2,2.4-1.8
		c1.1-0.5,2.3-0.9,3.4-0.9c0.5,0,1,0.1,1.3,0.2c0.5,0.2,0.7,0.4,0.9,0.7c0.2,0.3,0.4,0.8,0.4,1.5c0,0.5-0.1,1.4-0.3,2.5
		c-0.6,3.3-1.9,8.7-3.6,14.3c-0.2,0.7,0.1,1.5,0.8,1.8c0.7,0.3,1.5,0.1,1.9-0.6c4-6.4,9.3-13.5,14.7-18.9c2.7-2.7,5.5-5,8.3-6.6
		c2.7-1.6,5.3-2.5,7.7-2.5c1.3,0,2.4,0.3,3.2,0.7c0.6,0.3,1.1,0.8,1.6,1.4c0.7,0.8,1.2,2,1.5,3.3c0.3,1.4,0.5,2.9,0.5,4.6
		c0,3.7-0.7,7.9-1.7,11.7c-0.9,3.8-2.1,7.1-2.9,9.1c-0.3,0.7,0,1.6,0.7,1.9c0.7,0.3,1.6,0.1,2-0.6c3.1-5.7,6.8-11.4,10.9-15.7
		c2-2.1,4.1-3.9,6.3-5c2.2-1.2,4.4-1.8,6.7-1.8c1.4,0,2.5,0.3,3.4,0.7c1.3,0.6,2.2,1.6,2.8,2.8c0.6,1.3,0.9,2.9,0.9,4.7
		c0,3.7-1.3,8.3-2.7,12.8c-0.7,2.3-1.4,4.5-1.9,6.6c-0.5,2.1-0.9,4.1-0.9,5.9c0,1.5,0.3,3.1,1.3,4.5c0.5,0.7,1.2,1.2,2,1.6
		c0.8,0.4,1.8,0.6,2.8,0.6c2.5,0,4.8-1,6.9-2.6c3.1-2.4,5.9-6,8.4-10c2.5-4,4.6-8.4,6.4-12.3l-1.4-0.6l-1.1,1l1.8,2.1l1.1-1
		l-1.4-0.5c-2.4,6.2-5.8,12.9-10.1,17.9c-2.1,2.5-4.5,4.6-6.9,6c-2.5,1.4-5,2.2-7.8,2.2c-1.6,0-2.9-0.3-4-0.7
		c-1.6-0.7-2.7-1.8-3.5-3.3c-0.8-1.5-1.2-3.4-1.2-5.5c0-3.4,1.1-7.2,2.2-10.9c0.6-1.8,1.1-3.7,1.6-5.5c0.4-1.8,0.8-3.5,0.8-5.2
		c0-1.1-0.1-2.1-0.4-3c-0.4-1.3-1.2-2.4-2.2-3c-1-0.7-2.1-0.9-3.2-0.9c-1.7,0-3.3,0.7-4.8,1.8c-2.3,1.7-4.5,4.3-7.2,7.9
		c-2.6,3.6-5.6,8.1-9.1,13.5l0,0c-3.3,5-5.4,10.2-7.4,14.3l1.4,0.7v-1.5c-1,0-2.9-0.2-4.3-0.7c-0.7-0.2-1.3-0.5-1.6-0.7
		c-0.2-0.1-0.2-0.2-0.3-0.2l0,0l-0.2,0.1h0.2l0-0.1l-0.2,0.1h0.2H819.7h-1.5c0,0.6,0.2,1.1,0.5,1.6c0.5,0.7,1.2,1.2,1.9,1.6
		c1.1,0.5,2.3,0.9,3.5,1.1c1.2,0.2,2.4,0.3,3.3,0.3c0.6,0,1.1-0.3,1.4-0.8c2-4.1,4.1-9.2,7.2-13.9l0,0c4.7-7.2,8.4-12.8,11.5-16.5
		c1.5-1.9,2.9-3.3,4.1-4.1c1.2-0.9,2.2-1.2,3-1.2c0.4,0,0.8,0.1,1.1,0.2c0.5,0.2,0.9,0.5,1.2,1.1c0.3,0.6,0.6,1.4,0.6,2.7
		c0,1.3-0.3,2.8-0.7,4.4c-0.6,2.5-1.6,5.3-2.4,8.1c-0.8,2.9-1.5,5.9-1.5,8.9c0,3.3,0.8,6.4,2.7,8.7c1,1.2,2.2,2.1,3.7,2.8
		c1.5,0.7,3.2,1,5.2,1c3.3,0,6.4-1,9.3-2.7c4.2-2.5,7.9-6.4,10.9-10.9c3.1-4.5,5.5-9.6,7.4-14.5c0.2-0.5,0.1-1.1-0.3-1.5l-1.8-2.1
		c-0.3-0.4-0.8-0.6-1.3-0.5c-0.5,0.1-0.9,0.4-1.2,0.9c-2.3,5.1-5.3,11-8.6,15.6c-1.7,2.3-3.4,4.2-5.2,5.5c-1.8,1.3-3.5,2-5.1,2
		c-0.7,0-1.2-0.1-1.6-0.3c-0.5-0.3-0.8-0.6-1.1-1.1c-0.3-0.6-0.4-1.3-0.4-2.2c0-1.4,0.3-3.1,0.8-5.1c0.8-3,1.9-6.4,2.9-9.9
		c1-3.5,1.8-7,1.8-10.3c0-2.8-0.6-5.5-2.2-7.7c-0.8-1.1-1.9-2-3.2-2.6c-1.3-0.6-2.9-0.9-4.7-0.9c-2.9,0-5.6,0.8-8.1,2.2
		c-3.8,2.1-7.1,5.4-10.2,9.2c-3,3.9-5.8,8.3-8.2,12.6l1.3,0.7l1.4,0.6c0.9-2.1,2.1-5.6,3-9.5c1-3.9,1.8-8.3,1.8-12.4
		c0-3.3-0.5-6.4-2-8.9c-0.7-1.2-1.8-2.3-3.1-3c-1.3-0.7-2.9-1.1-4.6-1.1c-3.1,0-6.2,1.1-9.2,2.9c-4.5,2.7-8.9,6.9-13.1,11.6
		c-4.1,4.8-7.9,10.1-11,14.9l1.3,0.8l1.4,0.4c1.1-3.8,2.1-7.5,2.8-10.5c0.4-1.5,0.6-2.9,0.8-4.1c0.2-1.2,0.3-2.2,0.3-3
		c0-0.7-0.1-1.5-0.3-2.1c-0.3-1-1-1.9-2-2.5c-0.9-0.6-2.1-0.8-3.3-0.8c-1.8,0-3.4,0.5-4.8,1.2c-1.4,0.7-2.5,1.6-3.3,2.4
		c-0.2,0.3-0.4,0.6-0.4,1c0,3.1-0.7,7.1-1.7,11.3c-1.5,6.3-3.6,13-5.4,18.4c-0.9,2.7-1.7,5-2.3,6.9c-0.3,0.9-0.5,1.7-0.7,2.3
		c-0.1,0.3-0.2,0.6-0.2,0.8c-0.1,0.3-0.1,0.5-0.1,0.8c0,0.6,0.3,1.1,0.6,1.5c0.5,0.6,1.1,1,1.8,1.4c1,0.5,2.3,1,3.6,1.3
		c1.3,0.3,2.6,0.5,3.7,0.5c0.6,0,1.2-0.4,1.4-1c3.6-10,10-21,16.5-29.4c3.2-4.2,6.5-7.8,9.4-10.2c1.5-1.2,2.8-2.2,4.1-2.8
		c1.2-0.6,2.3-0.9,3-0.9c0.5,0,0.8,0.1,1,0.2c0.2,0.1,0.3,0.2,0.5,0.4c0.2,0.3,0.4,0.7,0.6,1.3c0.1,0.6,0.2,1.4,0.2,2.3
		c0,2.4-0.6,5.7-1.4,9.2c-1.3,5.2-3.3,11-5,15.7c-0.8,2.4-1.6,4.5-2.1,6.1c-0.3,0.8-0.5,1.6-0.7,2.2c-0.1,0.3-0.1,0.6-0.2,0.8
		c0,0.3-0.1,0.5-0.1,0.8H819.7z"/>
	<path class="st35" d="M934.6,379.3c0,3.5-8.8,13.8-8.8,21c0,3,1.5,6.7,5.1,6.7c5.5,0,15.1-7.9,24.2-23.9l1.5,1.5
		c-6.4,16.3-19.2,27.6-30,27.6c-7.4,0-10.9-5.3-10.9-10.6c0-1.2,0.2-2.7,0.5-4.4c-8.8,11.7-15.4,17.6-22.9,17.6
		c-6.4,0-11.2-4.1-11.2-12.6c0-18,22.3-46.5,41.9-46.5c7.9,0,13.8,4.5,13.8,11.4c0,5-3,6.5-7.4,6.5c0.5-1.7,0.8-3.6,0.8-5.3
		c0-4.5-2-8.5-7.4-8.5c-14.2,0-31.2,28.2-31.2,42.8c0,4.1,1.4,5.9,4.1,5.9c9.4,0,24.4-22.1,31.8-33
		C930.3,375.8,934.6,377.1,934.6,379.3z M931.3,344.5c-1.5-0.8-2.1-3-2.1-3.9c0-3.5,9.7-18.3,15.7-18.3c1.7,0,3,1.1,3.3,4.7
		C940.9,333.3,935.6,338.6,931.3,344.5z"/>
	<path class="st35" d="M934.6,379.3h-1.5c0,0.1-0.1,0.5-0.3,1.1c-0.4,0.9-1.1,2.3-1.9,3.8c-1.3,2.3-2.9,5-4.2,7.8
		c-1.3,2.8-2.3,5.6-2.4,8.4c0,1.8,0.4,3.7,1.5,5.3c0.5,0.8,1.2,1.5,2.1,2.1c0.9,0.5,1.9,0.8,3.1,0.8c1.7,0,3.6-0.6,5.5-1.7
		c2.9-1.6,6.2-4.3,9.6-8.1c3.4-3.8,7-8.8,10.4-14.9l-1.3-0.7l-1.1,1.1l1.5,1.5l1.1-1.1l-1.4-0.5c-3.1,8-7.8,14.7-12.9,19.3
		c-2.6,2.3-5.3,4.2-7.9,5.4c-2.7,1.2-5.3,1.9-7.7,1.9c-3.4,0-5.6-1.2-7.1-2.8c-1.5-1.7-2.3-4-2.3-6.3c0-1.1,0.1-2.5,0.4-4.1
		c0.1-0.7-0.2-1.4-0.9-1.6c-0.6-0.3-1.4-0.1-1.8,0.5c-4.4,5.8-8.2,10.1-11.7,12.9c-1.8,1.4-3.4,2.4-5.1,3.1c-1.6,0.7-3.2,1-4.9,1
		c-1.4,0-2.7-0.2-3.9-0.7c-1.7-0.7-3.1-1.8-4.2-3.5c-1-1.7-1.7-4-1.7-6.9c0-4.2,1.3-9.2,3.6-14.2c3.5-7.6,9.2-15.4,15.9-21.2
		c3.3-2.9,6.8-5.3,10.4-7c3.6-1.7,7.1-2.6,10.5-2.6c3.7,0,6.8,1.1,8.9,2.8c1.1,0.9,1.9,1.9,2.5,3.1c0.6,1.2,0.9,2.5,0.9,4
		c0,1.1-0.2,1.9-0.4,2.5c-0.2,0.5-0.4,0.8-0.7,1.1c-0.4,0.4-1,0.8-1.8,1c-0.8,0.2-1.8,0.3-2.9,0.3v1.5l1.4,0.4
		c0.5-1.8,0.8-3.8,0.8-5.7c0-2.5-0.5-4.9-2-6.8c-0.7-1-1.7-1.8-2.9-2.3c-1.2-0.5-2.5-0.8-4.1-0.8c-2,0-4.1,0.5-6,1.4
		c-3.5,1.5-6.8,4.1-9.9,7.4c-4.7,4.9-8.8,11.2-11.8,17.6c-1.5,3.2-2.7,6.4-3.6,9.4c-0.9,3-1.3,5.9-1.3,8.5c0,1.1,0.1,2.1,0.3,3
		c0.2,0.7,0.4,1.3,0.7,1.8c0.4,0.8,1.1,1.5,1.9,2c0.8,0.4,1.7,0.6,2.7,0.6c1.5,0,2.9-0.4,4.4-1.1c2.6-1.2,5.1-3.3,7.8-5.8
		c3.9-3.8,7.9-8.7,11.5-13.5c3.6-4.8,6.9-9.6,9.3-13.2l-1.2-0.8l-0.2,1.5c0.8,0.1,2.2,0.5,3.3,1c0.5,0.3,1,0.6,1.2,0.8
		c0.1,0.1,0.2,0.2,0.2,0.3l0,0.2H934.6h1.5c0-0.5-0.1-1-0.3-1.4c-0.4-0.8-0.9-1.3-1.5-1.7c-0.9-0.7-1.9-1.1-2.9-1.4
		c-1-0.3-1.9-0.5-2.6-0.7c-0.6-0.1-1.2,0.2-1.5,0.6c-3.7,5.4-9.3,13.7-15.1,20.5c-2.9,3.4-5.8,6.4-8.5,8.6c-1.4,1.1-2.7,1.9-3.8,2.5
		c-1.2,0.6-2.2,0.8-3.1,0.8c-0.5,0-0.9-0.1-1.2-0.2c-0.2-0.1-0.4-0.2-0.5-0.4c-0.2-0.3-0.5-0.6-0.6-1.3c-0.2-0.6-0.3-1.5-0.3-2.5
		c0-3.4,1-7.8,2.8-12.3c2.6-6.9,7-14.3,11.9-19.8c2.5-2.8,5.1-5.1,7.6-6.7c2.6-1.6,5.1-2.5,7.4-2.5c1.2,0,2.1,0.2,2.8,0.5
		c1.1,0.5,1.8,1.3,2.3,2.4c0.5,1.1,0.8,2.5,0.8,4c0,1.5-0.3,3.4-0.7,4.9c-0.1,0.4,0,0.9,0.3,1.3c0.3,0.4,0.7,0.6,1.2,0.6
		c1.2,0,2.3-0.1,3.4-0.4c0.8-0.2,1.5-0.5,2.2-0.9c1-0.6,1.9-1.5,2.5-2.7c0.6-1.2,0.8-2.5,0.8-4.1c0-1.9-0.4-3.7-1.2-5.3
		c-1.2-2.4-3.1-4.3-5.6-5.6c-2.4-1.3-5.4-2-8.5-2c-5.3,0-10.6,1.9-15.6,4.9c-7.5,4.6-14.4,11.8-19.5,19.6c-2.5,3.9-4.6,8-6,11.9
		c-1.4,4-2.3,7.9-2.3,11.5c0,2.3,0.3,4.3,0.9,6c0.9,2.6,2.5,4.7,4.6,6c2.1,1.3,4.5,2,7.2,2c2.1,0,4.1-0.4,6-1.2
		c3-1.2,5.8-3.3,8.7-6.1c2.9-2.8,6-6.4,9.3-10.9l-1.2-0.9l-1.5-0.3c-0.3,1.7-0.5,3.3-0.5,4.7c0,3,1,6,3.1,8.3
		c2.1,2.3,5.3,3.8,9.3,3.8c2.9,0,6-0.8,9-2.1c4.5-2.1,8.8-5.5,12.7-10c3.9-4.5,7.3-10,9.7-16.3c0.2-0.6,0.1-1.2-0.3-1.6l-1.5-1.5
		c-0.3-0.3-0.8-0.5-1.3-0.4c-0.5,0.1-0.9,0.3-1.1,0.7c-4.5,7.9-9.1,13.8-13.2,17.6c-2,1.9-4,3.3-5.6,4.2c-1.7,0.9-3.1,1.3-4.1,1.3
		c-0.7,0-1.1-0.2-1.6-0.4c-0.6-0.4-1.2-1-1.5-1.9c-0.4-0.9-0.6-1.9-0.6-2.9c0-1.5,0.5-3.4,1.3-5.3c1.2-2.9,3-6,4.5-8.7
		c0.8-1.4,1.5-2.6,2-3.8c0.3-0.6,0.5-1.1,0.7-1.6c0.2-0.5,0.3-1,0.3-1.6H934.6z M931.3,344.5l0.7-1.3c-0.1-0.1-0.3-0.2-0.5-0.4
		c-0.2-0.3-0.5-0.8-0.6-1.2c-0.1-0.4-0.2-0.9-0.2-1c0,0,0-0.2,0.1-0.4c0.1-0.4,0.3-1,0.7-1.8c1.2-2.6,3.6-6.4,6.3-9.4
		c1.3-1.5,2.7-2.9,4-3.8c0.6-0.5,1.3-0.8,1.8-1c0.5-0.2,1-0.3,1.4-0.3c0.3,0,0.4,0,0.6,0.1c0.2,0.1,0.4,0.2,0.7,0.7
		c0.2,0.5,0.5,1.3,0.6,2.5l1.5-0.1l-1-1.1c-7.3,6.4-12.7,11.8-17.2,17.8L931.3,344.5l0.7-1.3L931.3,344.5l1.2,0.9
		c4.3-5.8,9.5-11,16.7-17.3c0.4-0.3,0.5-0.8,0.5-1.3c-0.2-2-0.6-3.4-1.5-4.5c-0.4-0.5-1-0.9-1.6-1.2c-0.6-0.3-1.2-0.3-1.8-0.3
		c-1.1,0-2.1,0.3-3.1,0.8c-1.7,0.8-3.4,2.2-5,3.8c-2.4,2.4-4.6,5.5-6.3,8.2c-0.8,1.4-1.5,2.7-2,3.8c-0.3,0.6-0.5,1.1-0.6,1.6
		c-0.1,0.5-0.2,1-0.2,1.5c0,0.4,0.1,0.8,0.2,1.2c0.2,0.7,0.4,1.4,0.8,2.1c0.4,0.7,1,1.5,2,1.9c0.7,0.3,1.4,0.1,1.9-0.4L931.3,344.5z
		"/>
	<path class="st35" d="M783.3,512.6c0,0,25.6-8.5,23.9-25.7c-1.7-17.2-17.7-9.8-21-0.3c0,0-5-17-17.4-8.1
		C754.9,488.5,775.7,507.4,783.3,512.6z"/>
	<path class="st35" d="M627.6,248.6h316c1.4,0,2.5-1.1,2.5-2.5c0-1.4-1.1-2.5-2.5-2.5h-316c-1.4,0-2.5,1.1-2.5,2.5
		C625.1,247.5,626.2,248.6,627.6,248.6"/>
	<path class="st35" d="M627.6,460.3h316c1.4,0,2.5-1.1,2.5-2.5c0-1.4-1.1-2.5-2.5-2.5h-316c-1.4,0-2.5,1.1-2.5,2.5
		C625.1,459.1,626.2,460.3,627.6,460.3"/>
</g>
</svg>
