<?xml version="1.0" encoding="utf-8"?>
<!-- Generator: Adobe Illustrator 22.0.1, SVG Export Plug-In . SVG Version: 6.00 Build 0)  -->
<svg version="1.1" id="Capa_1" xmlns="http://www.w3.org/2000/svg" xmlns:xlink="http://www.w3.org/1999/xlink" x="0px" y="0px"
	 viewBox="0 0 119.4 40.4" style="enable-background:new 0 0 119.4 40.4;" xml:space="preserve">
<style type="text/css">
	.st0{fill:#FFFFFF;}
</style>
<g>
	<path class="st0" d="M54.6,12c2.1,0,3.7-1.7,3.7-3.7c0-2.1-1.7-3.7-3.7-3.7c-2.1,0-3.7,1.7-3.7,3.7C50.9,10.3,52.5,12,54.6,12"/>
	<path class="st0" d="M69.4,33.8c-0.5,0-1-0.4-1-1V1.5h-6.1v32.8c0,2.6,2.1,4.7,4.7,4.7h4.6v-5.1H69.4z"/>
	<polygon class="st0" points="1.2,3.7 1.2,11.7 6.3,11.7 6.3,9.6 14.1,9.6 14.1,33.8 11.8,33.8 11.8,39 22.9,39 22.9,33.8 
		20.5,33.8 20.5,9.6 28.4,9.6 28.4,11.7 33.5,11.7 33.5,3.7 	"/>
	<polygon class="st0" points="57.7,33.8 57.7,15.6 44.6,15.6 44.6,20.8 51.6,20.8 51.6,33.8 44.6,33.8 44.6,39 60.1,39 60.1,33.8 	
		"/>
	<polygon class="st0" points="28.4,15.6 28.4,33.8 25.9,33.8 25.9,39 41.6,39 41.6,33.8 34.4,33.8 34.4,20.8 41.6,20.8 41.6,15.6 
		32.1,15.6 	"/>
	<path class="st0" d="M101.5,24.9c0.1-0.8,0.3-1.5,0.6-2.1c0.4-0.6,0.8-1.1,1.4-1.5s1.2-0.7,1.9-0.9c0.7-0.2,1.4-0.3,2.2-0.3
		c1.7,0,2.9,0.4,3.8,1.3c0.8,0.9,1.2,2.1,1.2,3.6H101.5z M117.2,20.3c-0.6-1.2-1.5-2.2-2.5-3c-1-0.7-2.1-1.3-3.4-1.6
		c-1.2-0.3-2.4-0.5-3.6-0.5c-1.7,0-3.3,0.2-4.8,0.7c-1.5,0.5-2.8,1.2-3.9,2.2c-1.1,1-2,2.2-2.6,3.7c-0.6,1.5-0.9,3.2-0.9,5.2
		c0,0.7,0,1.3,0.1,1.9c0.1,1.1,0.4,2.1,0.7,3.1c0.1,0.4,1.3,3.2,4.3,5c2,1.2,4.8,1.7,8.7,1.7c3.9,0,5.8-0.2,5.8-0.2v-5v0
		c0,0-2.7,0-6,0c-4.9,0-6.5-3-6.9-3.8c-0.1-0.3-0.2-0.5-0.3-0.8h16C118.5,27,118.3,22.5,117.2,20.3"/>
	<path class="st0" d="M93.2,25v-7.5v-0.1c0-0.2-0.1-0.5-0.4-0.5c-0.8-0.3-1.8-0.6-3-1c-1.5-0.4-3.1-0.6-4.8-0.6
		c-1.8,0-3.5,0.3-5,0.8c-1.5,0.5-2.9,1.3-4,2.3c-1.1,1-2,2.3-2.7,3.8c-0.6,1.5-1,3.2-1,5.1c0,1.8,0.3,3.4,0.8,4.9
		c0.5,1.5,1.2,2.6,2.2,3.6c1.7,1.7,4.9,3,8.6,3.1l7.5,0v-5.1h-5.8c-2.4,0-4.8-1.1-5.4-1.7c-0.6-0.6-1.1-1.3-1.4-2.1
		c-0.3-0.8-0.5-1.7-0.5-2.7c0-1.2,0.2-2.2,0.6-3c0.4-0.8,0.9-1.5,1.6-2.1c0.6-0.6,1.4-1,2.2-1.2c0.8-0.3,1.7-0.4,2.5-0.4
		c0.9,0,1.9,0.1,2.8,0.3V25H93.2z"/>
</g>
</svg>
