<svg id="Capa_1" data-name="Capa 1" xmlns="http://www.w3.org/2000/svg" viewBox="0 0 116.94 60.9"><title>logo-trilce-academia</title><path d="M15.61,55.53a25,25,0,0,1-.5-3.12c0,.22-.33,2.38-.53,3.1L14,57.43h2.17Zm.29-5.4a.51.51,0,0,1,.55.43l3.19,10.8c.08.27,0,.43-.31.43H17.78c-.29,0-.41-.16-.49-.43l-.6-2.09H13.5l-.6,2.09c-.09.27-.21.43-.52.43H11c-.31,0-.42-.16-.33-.43l3.21-10.8a.49.49,0,0,1,.53-.43Z" transform="translate(-0.04 -1.02)" style="fill:#f4633a"/><path d="M29.65,59.13c0,1.44-.93,2.79-4,2.79s-4-1.35-4-2.79V52.79c0-1.44.93-2.8,4-2.8s4,1.36,4,2.8v.82c0,.31-.11.43-.4.43H27.83c-.31,0-.43-.12-.43-.43V53.2c0-.86-.6-1.29-1.75-1.29s-1.73.43-1.73,1.29v5.52c0,.86.58,1.28,1.73,1.28s1.75-.42,1.75-1.28v-.65c0-.31.12-.43.43-.43h1.42c.29,0,.4.12.4.43Z" transform="translate(-0.04 -1.02)" style="fill:#f4633a"/><path d="M36.38,55.53a24.67,24.67,0,0,1-.49-3.12c0,.22-.33,2.38-.53,3.1l-.59,1.92H37Zm.3-5.4a.5.5,0,0,1,.54.43l3.19,10.8c.09.27,0,.43-.31.43H38.56c-.29,0-.41-.16-.5-.43l-.6-2.09H34.28l-.6,2.09c-.09.27-.21.43-.52.43H31.77c-.31,0-.41-.16-.32-.43l3.2-10.8a.5.5,0,0,1,.53-.43Z" transform="translate(-0.04 -1.02)" style="fill:#f4633a"/><path d="M45,52.05v7.82h1.84c1.16,0,1.86-.43,1.86-1.29V53.34c0-.86-.7-1.29-1.86-1.29Zm-1.95,9.74c-.28,0-.36-.16-.36-.45V50.58c0-.31.1-.45.41-.45h3.74c3.1,0,4.18,1.35,4.18,2.79V59c0,1.44-1.08,2.8-4.18,2.8Z" transform="translate(-0.04 -1.02)" style="fill:#f4633a"/><path d="M54.54,61.79c-.31,0-.41-.14-.41-.45V50.58c0-.31.1-.45.41-.45H60.4c.29,0,.43.1.43.41v1.08c0,.31-.14.43-.43.43h-4v2.78h3.67c.31,0,.44.1.44.41v1c0,.29-.13.41-.44.41H56.44v3.19h4.13c.31,0,.43.1.43.41v1.08c0,.31-.12.43-.43.43Z" transform="translate(-0.04 -1.02)" style="fill:#f4633a"/><path d="M74.17,61.36c0,.29-.11.43-.42.43H72.33c-.31,0-.41-.14-.41-.43V54.84c0,.06-.33,1.1-.5,1.56l-1.3,3.19a.57.57,0,0,1-.57.43H68.34a.57.57,0,0,1-.55-.43l-1.46-3.44a7,7,0,0,1-.39-1.27v6.48c0,.29-.11.43-.41.43H64.17c-.31,0-.41-.14-.41-.43V50.56c0-.29.1-.43.41-.43h1.36a.35.35,0,0,1,.37.24l2.63,6c.2.47.42,1.2.42,1.2s.23-.67.45-1.18l2.54-6c.07-.16.19-.21.39-.21h1.42c.31,0,.42.14.42.43Z" transform="translate(-0.04 -1.02)" style="fill:#f4633a"/><path d="M79.72,61.34c0,.31-.1.45-.41.45H77.82c-.31,0-.41-.14-.41-.45V50.58c0-.31.1-.45.41-.45h1.49c.31,0,.41.14.41.45Z" transform="translate(-0.04 -1.02)" style="fill:#f4633a"/><path d="M87,55.53a24.67,24.67,0,0,1-.49-3.12c0,.22-.33,2.38-.53,3.1l-.59,1.92h2.18Zm.3-5.4a.5.5,0,0,1,.54.43L91,61.36c.09.27,0,.43-.31.43H89.13c-.29,0-.41-.16-.5-.43L88,59.27H84.85l-.6,2.09c-.09.27-.21.43-.52.43H82.34c-.31,0-.41-.16-.32-.43l3.2-10.8a.5.5,0,0,1,.53-.43Z" transform="translate(-0.04 -1.02)" style="fill:#f4633a"/><path d="M53.38,11.51a3.73,3.73,0,1,0-3.73-3.73,3.73,3.73,0,0,0,3.73,3.73" transform="translate(-0.04 -1.02)" style="fill:#f4633a"/><path d="M68.23,33.35a1,1,0,0,1-1-1V1H61.18V33.74a4.74,4.74,0,0,0,4.74,4.73h4.6V33.35Z" transform="translate(-0.04 -1.02)" style="fill:#f4633a"/><polygon points="0 2.28 0 10.21 5.12 10.21 5.12 8.15 12.95 8.15 12.95 32.33 10.6 32.33 10.6 37.45 21.68 37.45 21.68 32.33 19.33 32.33 19.33 8.15 27.16 8.15 27.16 10.21 32.24 10.21 32.24 2.28 0 2.28" style="fill:#f4633a"/><polygon points="56.41 32.33 56.41 14.14 43.4 14.14 43.4 19.29 50.36 19.29 50.36 32.33 43.4 32.33 43.4 37.45 58.86 37.45 58.86 32.33 56.41 32.33" style="fill:#f4633a"/><polygon points="27.16 14.14 27.16 32.33 24.71 32.33 24.71 37.45 40.37 37.45 40.37 32.33 33.22 32.33 33.22 19.29 40.37 19.29 40.37 14.14 30.84 14.16 27.16 14.14" style="fill:#f4633a"/><path d="M100.28,24.46a4.82,4.82,0,0,1,.63-2.07,5.51,5.51,0,0,1,1.38-1.54,6.26,6.26,0,0,1,1.88-.94,7.25,7.25,0,0,1,2.21-.33,5,5,0,0,1,3.78,1.32,5,5,0,0,1,1.24,3.56Zm15.62-4.6a8.31,8.31,0,0,0-2.51-3A9.68,9.68,0,0,0,110,15.34a14.88,14.88,0,0,0-8.34.29,10.85,10.85,0,0,0-3.86,2.24,10.3,10.3,0,0,0-2.6,3.73,13.31,13.31,0,0,0-1,5.21,17.36,17.36,0,0,0,.11,2,13.16,13.16,0,0,0,.73,3.06,10.36,10.36,0,0,0,4.3,5c2,1.19,4.84,1.67,8.7,1.67s5.81-.16,5.81-.16v-5s-2.7,0-6,0c-4.88,0-6.53-3-6.87-3.81a6.48,6.48,0,0,1-.26-.78h16c.46-2.25.26-6.74-.85-8.9" transform="translate(-0.04 -1.02)" style="fill:#f4633a"/><path d="M92,24.57V17a.6.6,0,0,0-.35-.55,26.25,26.25,0,0,0-3-1,18.57,18.57,0,0,0-4.75-.58,15.38,15.38,0,0,0-5,.79,11.39,11.39,0,0,0-4,2.33,10.77,10.77,0,0,0-2.65,3.75,12.84,12.84,0,0,0-1,5.07A13.94,13.94,0,0,0,72,31.72a9.75,9.75,0,0,0,2.22,3.62c1.66,1.74,4.88,3,8.62,3.12h7.48V33.35H84.6a9.36,9.36,0,0,1-5.41-1.72,6.34,6.34,0,0,1-1.41-2.13,7,7,0,0,1-.49-2.67,6.91,6.91,0,0,1,.61-3,6.2,6.2,0,0,1,3.8-3.33,8.63,8.63,0,0,1,2.51-.38,12.89,12.89,0,0,1,2.81.32v4.16Z" transform="translate(-0.04 -1.02)" style="fill:#f4633a"/></svg>