<?xml version="1.0" encoding="utf-8"?>
<!-- Generator: Adobe Illustrator 22.0.1, SVG Export Plug-In . SVG Version: 6.00 Build 0)  -->
<svg version="1.1" id="OBJECTS" xmlns="http://www.w3.org/2000/svg" xmlns:xlink="http://www.w3.org/1999/xlink" x="0px" y="0px"
	 viewBox="0 0 271.1 469.3" style="enable-background:new 0 0 271.1 469.3;" xml:space="preserve">
<style type="text/css">
	.st0{fill:none;stroke:#092533;stroke-width:2;stroke-miterlimit:10;}
	.st1{fill:#FF5712;}
	.st2{fill:#FF7900;}
	.st3{fill:#6C5BE8;}
	.st4{fill:#FF6643;}
	.st5{fill:#98C4F9;}
	.st6{fill:#092533;}
	.st7{opacity:0.25;}
	.st8{fill:url(#SVGID_1_);}
	.st9{fill:url(#SVGID_2_);}
	.st10{fill:#4D5AFF;}
	.st11{fill:url(#SVGID_3_);}
	.st12{opacity:0.25;fill:none;stroke:#FFFFFF;stroke-width:0.4597;stroke-miterlimit:10;}
	.st13{fill:#F2F2F2;}
	.st14{fill:none;stroke:#092533;stroke-width:2;stroke-linecap:round;stroke-linejoin:round;stroke-miterlimit:10;}
</style>
<g>
	<g>
		<line class="st0" x1="204.9" y1="131.3" x2="137.1" y2="74.4"/>
		<line class="st0" x1="137.1" y1="74.4" x2="76.2" y2="156.4"/>
	</g>
	<polygon class="st1" points="26.4,163 37.5,221 74.3,214 71.1,197.3 127.2,186.5 160.5,361 143.8,364.2 150.9,401 230.1,385.9 
		223.1,349.1 206.4,352.3 173,177.8 229.1,167.1 232.3,183.8 269.1,176.8 258,118.7 	"/>
	<path class="st2" d="M65.1,81.6c0,4.8-3.9,8.6-8.6,8.6c-4.8,0-8.6-3.9-8.6-8.6c0-4.8,3.9-8.6,8.6-8.6C61.3,73,65.1,76.9,65.1,81.6z
		"/>
	<path class="st3" d="M259.3,315.8c0,4.8-3.9,8.6-8.6,8.6c-4.8,0-8.6-3.9-8.6-8.6c0-4.8,3.9-8.6,8.6-8.6
		C255.5,307.1,259.3,311,259.3,315.8z"/>
	<path class="st4" d="M114.2,366.9c0,4.8-3.9,8.6-8.6,8.6c-4.8,0-8.6-3.9-8.6-8.6c0-4.8,3.9-8.6,8.6-8.6
		C110.3,358.3,114.2,362.2,114.2,366.9z"/>
	<circle class="st2" cx="207.7" cy="278.6" r="3.3"/>
	<circle class="st5" cx="110.8" cy="134.2" r="3.3"/>
	<path class="st3" d="M9.5,70.3c0,1.8-1.5,3.3-3.3,3.3c-1.8,0-3.3-1.5-3.3-3.3c0-1.8,1.5-3.3,3.3-3.3C8,67,9.5,68.4,9.5,70.3z"/>
	<g>
		<g>
			<path class="st4" d="M96.8,120c-1.2,0-2.1-0.1-2.5-0.2c-0.5-0.2-1.8-0.8-13.9-22.3l2.2-1.2c4.5,8,11.3,19.7,12.8,21.2
				c1.3,0.2,8.5-0.3,14.9-0.9l0.2,2.5C106.5,119.5,100.4,120,96.8,120z"/>
		</g>
		<path class="st6" d="M140.5,130.5v0.7c0,0-0.7,13.6-10.9,13.1c0,0,0,0-0.1,0c-6.3-0.4-14.1-3.4-19.4-5.5c-3.3-1.4-5.6-2.5-5.8-2.4
			c-0.7,0.1,7.7,35.1,7.6,37.1c0,0.3-0.1,0.6-0.2,0.8c-0.6,1.9-2.7,4.2-3.9,4.4c-0.1,0-0.4-0.2-0.8-0.7
			c-3.8-4.7-18.8-32.2-19.2-41.1c-0.4-9.8,4.5-15.8,11.3-16.9c5-0.8,19.5,1.2,26.8,2.3c2.6,0.4,4.3,0.7,4.3,0.7L140.5,130.5z"/>
		<g>
			<path class="st7" d="M112,173.3c0,0.3-0.1,0.6-0.2,0.8c-0.6,1.9-2.7,4.2-3.9,4.4c-0.1,0-0.4-0.2-0.8-0.7
				c5.4-7.6-8.6-44.3-5.6-44.4c1.5,0,4.8,2.5,8.7,5.3c-3.3-1.4-5.6-2.5-5.8-2.4C103.7,136.4,112.1,171.3,112,173.3z"/>
			<path class="st7" d="M140.5,130.5v0.7c0,0-0.7,13.6-10.9,13.1c2-1.6,2.4-4.4,2.2-7.9c-0.2-4-3.8-10.8-5.9-14.3
				c2.6,0.4,4.3,0.7,4.3,0.7L140.5,130.5z"/>
		</g>
		<path class="st6" d="M118.8,85.7c-0.3,0.5-0.6,1-0.6,1.3c0,0,0,0,0-0.1c-0.1-0.2-0.5-0.9-1.1-1.8c-0.9-1.4-2.2-3.2-3-3.4
			c-1.2-0.3-4.6,3.9-9.1,4.2c-0.3,0-0.6,0-0.9,0c-4.9-0.2-10.2-7.2-6-15.5c1.5,3,4.5,3.1,4.5,3.1s-1.8-0.4-1.9-2.7
			c5.4,1,8.2-3.1,12.8-1.6c4.6,1.5,4.4,4.3,4.4,4.3s3.5-1.4,4.6,3C123.4,80,120.1,83.5,118.8,85.7z"/>
		<linearGradient id="SVGID_1_" gradientUnits="userSpaceOnUse" x1="111.0001" y1="92.0157" x2="112.2169" y2="80.5114">
			<stop  offset="0" style="stop-color:#FFC5AE"/>
			<stop  offset="1" style="stop-color:#EA8B6A"/>
		</linearGradient>
		<path class="st8" d="M118.2,86.9c-0.3,1.1-0.9,2.3-1.7,3.3c-1,1.2-2.3,2.1-3.8,2c-3.1-0.1-6.3-4.3-7.7-6.4
			c4.5-0.3,7.8-4.5,9.1-4.2c0.8,0.2,2.1,2,3,3.4C117.6,86,118.1,86.7,118.2,86.9z"/>
		<linearGradient id="SVGID_2_" gradientUnits="userSpaceOnUse" x1="126.3323" y1="88.1681" x2="115.7129" y2="88.9424">
			<stop  offset="0" style="stop-color:#FFC5AE"/>
			<stop  offset="1" style="stop-color:#EA8B6A"/>
		</linearGradient>
		<path class="st9" d="M122.7,87.3c0,0-2.4,5.4-3.2,4.2c-0.5-0.6-1.9-1.1-3-1.3c0.8-1,1.4-2.2,1.7-3.3c0,0,0,0.1,0,0.1
			c0-0.3,0.2-0.8,0.6-1.3C120.5,86.9,122.7,87.3,122.7,87.3z"/>
		<path class="st10" d="M139.3,132.8c-3.8-0.6-13.9-11.6-13.9-16.4c0-0.7-0.1-1.4-0.2-2.2c-0.8-5-3.6-12.2-4.8-17.3
			c-1.4-6,0.6-8.2,0.6-8.2c4.6-8,15.1,7.8,21.1,20.5l0,0c2,4.3,3.3,8.2,3.5,10.9C145.9,129,143.1,133.4,139.3,132.8z"/>
		<path class="st7" d="M139.3,132.8c-3.8-0.6-13.9-11.6-13.9-16.4c0-0.7-0.1-1.4-0.2-2.2l0-2.1l3.7-19.3c0,0,5.1,6.1,5.9,16.9
			c0.8,10.8,12.7,13.2,7.3-0.5c2,4.3,3.3,8.2,3.5,10.9C145.9,129,143.1,133.4,139.3,132.8z"/>
		<path class="st10" d="M131.4,109c-0.1,0.1-0.3,0.2-0.5,0.2c-1.7,0.5-6.8,0.4-8.9,0c-0.3-0.1-0.6-0.1-0.7-0.2
			c-1.4-0.7,0-2.3-0.4-5.2c-0.4-2.9-1.5-11.3,2.7-13.9c4.5-2.7,7.7,7.5,7.9,12.6C131.6,107.6,132.4,108.1,131.4,109z"/>
		<linearGradient id="SVGID_3_" gradientUnits="userSpaceOnUse" x1="112.4293" y1="131.514" x2="122.1637" y2="96.5587">
			<stop  offset="0" style="stop-color:#FFC5AE"/>
			<stop  offset="1" style="stop-color:#EA8B6A"/>
		</linearGradient>
		<path class="st11" d="M130.9,109.2c0,0-0.2,12.4-2.6,18.3c0,0,0,0,0,0c-0.7,1.8-1.7,3-2.9,3c-5.1-0.1-16.7-12.3-17.8-12.8
			c-1-0.4-6.3,0.3-6.1-0.4c0.2-0.8,2.2-2.5,4.4-3.3c2.2-0.8,1.8-0.3,16,6.2c-0.2-1.3-0.1-6.7,0-9.8c0-0.5,0-0.9,0-1.2
			C124.1,109.6,129.2,109.7,130.9,109.2z"/>
		<path class="st10" d="M116.2,181.7c0.4,2.2-14.5,17.4-13.7,13.4c0.8-4,5.4-16.6,5.4-16.6c1.2-0.2,3.3-2.5,3.9-4.4
			C113,176.3,115.9,179.9,116.2,181.7z"/>
		<path class="st12" d="M129.6,135.2c0,0-23.9-4.5-28.6-2.3c-4.7,2.2,8.6,39.9,8.6,39.9"/>
		<path class="st7" d="M128.3,127.5c0.5-2.5,0.8-9.8-0.5-12.6c-0.8-1.9-4-3.6-5.9-4.5c0-0.5,0-0.9,0-1.2c2.1,0.4,7.2,0.5,8.9,0
			C130.9,109.2,130.7,121.6,128.3,127.5z"/>
	</g>
	<ellipse class="st13" cx="185.3" cy="455.6" rx="81.6" ry="11.6"/>
	<path class="st14" d="M131.9,66.9c-1,2.9,0.4,6,3,7.1c3.1,1.3,6.6-0.6,7.5-3.3c1-3-0.4-6.9-5.2-7.6V6.1"/>
	<rect x="132.4" y="1.4" class="st6" width="9.5" height="9.5"/>
</g>
</svg>
