<?xml version="1.0" encoding="utf-8"?>
<!-- Generator: Adobe Illustrator 22.0.1, SVG Export Plug-In . SVG Version: 6.00 Build 0)  -->
<svg version="1.1" id="OBJECTS" xmlns="http://www.w3.org/2000/svg" xmlns:xlink="http://www.w3.org/1999/xlink" x="0px" y="0px"
	 viewBox="0 0 409.8 836.7" style="enable-background:new 0 0 409.8 836.7;" xml:space="preserve">
<style type="text/css">
	.st0{fill:none;stroke:#092533;stroke-width:3;stroke-miterlimit:10;}
	.st1{fill:#FF5712;}
	.st2{fill:#FF7900;}
	.st3{fill:#6C5BE8;}
	.st4{fill:#FF6643;}
	.st5{fill:#98C4F9;}
	.st6{fill:#092533;}
	.st7{opacity:0.25;}
	.st8{fill:url(#SVGID_1_);}
	.st9{fill:url(#SVGID_2_);}
	.st10{fill:#4D5AFF;}
	.st11{fill:url(#SVGID_3_);}
	.st12{opacity:0.25;fill:none;stroke:#FFFFFF;stroke-width:0.4597;stroke-miterlimit:10;}
	.st13{fill:#F2F2F2;}
	.st14{fill:none;stroke:#092533;stroke-width:3;stroke-linecap:round;stroke-linejoin:round;stroke-miterlimit:10;}
</style>
<g>
	<g>
		<line class="st0" x1="309.5" y1="323.6" x2="206.7" y2="237.3"/>
		<line class="st0" x1="206.7" y1="237.3" x2="114.2" y2="361.7"/>
	</g>
	<polygon class="st1" points="38.7,371.7 55.5,459.8 111.4,449.2 106.5,423.7 191.6,407.5 242.3,672.3 216.9,677.2 227.5,733 
		347.9,710 337.2,654.2 311.8,659 261.1,394.2 346.3,377.9 351.1,403.3 407,392.6 390.1,304.5 	"/>
	<path class="st2" d="M97.5,248.3c0,7.2-5.9,13.1-13.1,13.1c-7.2,0-13.1-5.9-13.1-13.1c0-7.2,5.9-13.1,13.1-13.1
		C91.6,235.2,97.5,241,97.5,248.3z"/>
	<path class="st3" d="M392.2,603.6c0,7.2-5.9,13.1-13.1,13.1c-7.2,0-13.1-5.9-13.1-13.1c0-7.2,5.9-13.1,13.1-13.1
		C386.3,590.5,392.2,596.4,392.2,603.6z"/>
	<path class="st4" d="M171.9,681.2c0,7.2-5.9,13.1-13.1,13.1c-7.2,0-13.1-5.9-13.1-13.1c0-7.2,5.9-13.1,13.1-13.1
		C166,668.1,171.9,674,171.9,681.2z"/>
	<circle class="st2" cx="313.8" cy="547.1" r="5.1"/>
	<circle class="st5" cx="166.8" cy="328" r="5.1"/>
	<path class="st3" d="M13,231c0,2.8-2.3,5.1-5.1,5.1c-2.8,0-5.1-2.3-5.1-5.1c0-2.8,2.3-5.1,5.1-5.1C10.7,226,13,228.2,13,231z"/>
	<g>
		<g>
			<path class="st4" d="M145.6,306.5c-1.8,0-3.2-0.1-3.8-0.3c-0.7-0.3-2.8-1.2-21.1-33.8l3.3-1.8c6.8,12.2,17.2,29.9,19.4,32.2
				c2,0.3,12.9-0.4,22.6-1.4l0.4,3.7C160.3,305.7,150.9,306.5,145.6,306.5z"/>
		</g>
		<path class="st6" d="M211.9,322.4v1.1c0,0-1,20.7-16.5,19.8c0,0-0.1,0-0.1,0c-9.6-0.6-21.5-5.1-29.4-8.4c-5-2.1-8.5-3.7-8.9-3.7
			c-1,0.2,11.7,53.2,11.6,56.2c0,0.4-0.1,0.8-0.3,1.3c-0.9,2.9-4.1,6.3-6,6.6c-0.2,0-0.6-0.3-1.2-1.1c-5.8-7.2-28.6-48.8-29.2-62.4
			c-0.7-14.9,6.9-23.9,17.1-25.7c7.6-1.3,29.6,1.8,40.7,3.5c3.9,0.6,6.5,1,6.5,1L211.9,322.4z"/>
		<g>
			<path class="st7" d="M168.5,387.4c0,0.4-0.1,0.8-0.3,1.3c-0.9,2.9-4.1,6.3-6,6.6c-0.2,0-0.6-0.3-1.2-1.1
				c8.1-11.5-13.1-67.3-8.5-67.4c2.3-0.1,7.3,3.8,13.2,8c-5-2.1-8.5-3.7-8.9-3.7C156,331.3,168.7,384.4,168.5,387.4z"/>
			<path class="st7" d="M211.9,322.4v1.1c0,0-1,20.7-16.5,19.8c3.1-2.4,3.6-6.7,3.4-11.9c-0.3-6-5.8-16.3-9-21.7
				c3.9,0.6,6.5,1,6.5,1L211.9,322.4z"/>
		</g>
		<path class="st6" d="M178.9,254.4c-0.5,0.8-0.9,1.5-0.9,2c0,0,0,0-0.1-0.1c-0.2-0.3-0.8-1.4-1.7-2.7c-1.4-2.2-3.4-4.9-4.5-5.2
			c-1.9-0.5-6.9,5.9-13.7,6.4c-0.5,0-0.9,0-1.4,0c-7.5-0.3-15.4-11-9.1-23.5c2.2,4.6,6.8,4.7,6.8,4.7s-2.8-0.6-2.9-4
			c8.2,1.5,12.4-4.7,19.5-2.5c7,2.2,6.6,6.5,6.6,6.5s5.4-2.1,7,4.6C186,245.8,180.9,251.1,178.9,254.4z"/>
		<linearGradient id="SVGID_1_" gradientUnits="userSpaceOnUse" x1="167.0642" y1="264.0129" x2="168.9109" y2="246.5528">
			<stop  offset="0" style="stop-color:#FFC5AE"/>
			<stop  offset="1" style="stop-color:#EA8B6A"/>
		</linearGradient>
		<path class="st8" d="M177.9,256.3c-0.5,1.7-1.4,3.5-2.6,5c-1.5,1.8-3.5,3.2-5.7,3.1c-4.8-0.1-9.5-6.5-11.6-9.8
			c6.8-0.5,11.9-6.9,13.7-6.4c1.2,0.3,3.1,3,4.5,5.2C177.1,254.8,177.8,255.9,177.9,256.3z"/>
		<linearGradient id="SVGID_2_" gradientUnits="userSpaceOnUse" x1="190.334" y1="258.1733" x2="174.2168" y2="259.3485">
			<stop  offset="0" style="stop-color:#FFC5AE"/>
			<stop  offset="1" style="stop-color:#EA8B6A"/>
		</linearGradient>
		<path class="st9" d="M184.8,256.9c0,0-3.6,8.2-4.9,6.4c-0.7-1-2.8-1.6-4.6-2c1.2-1.5,2.1-3.3,2.6-5c0,0.1,0.1,0.1,0.1,0.1
			c0-0.5,0.3-1.2,0.9-2C181.5,256.3,184.8,256.9,184.8,256.9z"/>
		<path class="st10" d="M210,326c-5.7-0.8-21.1-17.6-21.1-24.9c0-1-0.1-2.1-0.3-3.4c-1.2-7.5-5.5-18.5-7.3-26.3
			c-2.1-9.1,0.9-12.5,0.9-12.5c7-12.1,22.9,11.9,32,31.1l0,0c3.1,6.5,5.1,12.5,5.3,16.5C220.1,320.2,215.7,326.8,210,326z"/>
		<path class="st7" d="M210,326c-5.7-0.8-21.1-17.6-21.1-24.9c0-1-0.1-2.1-0.3-3.4l0-3.2l5.6-29.3c0,0,7.7,9.2,9,25.6
			c1.2,16.4,19.3,20,11.1-0.8c3.1,6.5,5.1,12.5,5.3,16.5C220.1,320.2,215.7,326.8,210,326z"/>
		<path class="st10" d="M198,289.7c-0.2,0.1-0.4,0.2-0.8,0.3c-2.6,0.7-10.4,0.6-13.6,0c-0.5-0.1-0.9-0.2-1.1-0.3
			c-2.1-1,0-3.5-0.7-7.8c-0.7-4.4-2.3-17.1,4.1-21c6.8-4.1,11.7,11.4,12,19.1C198.3,287.7,199.5,288.5,198,289.7z"/>
		<linearGradient id="SVGID_3_" gradientUnits="userSpaceOnUse" x1="169.2334" y1="323.9595" x2="184.0073" y2="270.9079">
			<stop  offset="0" style="stop-color:#FFC5AE"/>
			<stop  offset="1" style="stop-color:#EA8B6A"/>
		</linearGradient>
		<path class="st11" d="M197.3,290c0,0-0.3,18.9-3.9,27.8c0,0,0,0,0,0c-1.1,2.8-2.6,4.6-4.4,4.5c-7.8-0.2-25.3-18.7-27-19.4
			c-1.6-0.7-9.6,0.5-9.3-0.7c0.3-1.2,3.4-3.8,6.7-5c3.4-1.3,2.8-0.5,24.3,9.4c-0.3-1.9-0.2-10.1-0.1-14.8c0-0.7,0-1.3,0-1.8
			C186.9,290.7,194.6,290.8,197.3,290z"/>
		<path class="st10" d="M175,400.2c0.5,3.4-22,26.4-20.9,20.3c1.2-6,8.2-25.2,8.2-25.2c1.9-0.3,5-3.7,6-6.6
			C170.1,391.9,174.5,397.4,175,400.2z"/>
		<path class="st12" d="M195.4,329.6c0,0-36.3-6.8-43.4-3.5c-7.2,3.3,13.1,60.6,13.1,60.6"/>
		<path class="st7" d="M193.4,317.8c0.7-3.8,1.2-14.8-0.7-19.2c-1.3-2.9-6-5.5-9-6.8c0-0.7,0-1.3,0-1.8c3.2,0.6,10.9,0.7,13.6,0
			C197.3,290,197,308.9,193.4,317.8z"/>
	</g>
	<ellipse class="st13" cx="279.8" cy="815.9" rx="123.8" ry="17.6"/>
	<path class="st14" d="M198.7,225.9c-1.4,4.4,0.7,9,4.6,10.8c4.7,2,10-0.9,11.4-5.1c1.5-4.6-0.7-10.4-7.9-11.6V3.2"/>
</g>
</svg>
