<svg width="87" height="27" viewBox="0 0 87 27" fill="none" xmlns="http://www.w3.org/2000/svg">
<g clip-path="url(#clip0_517_25)">
<path d="M62.3998 3.55982L54.9798 17.6898C54.8598 18.0398 54.3898 18.0398 54.1598 17.6898L46.7398 3.55982C46.6198 3.43982 46.4998 3.31982 46.3898 3.31982H42.7398C42.4998 3.31982 42.3898 3.55982 42.4998 3.78982L54.2698 25.6898C54.3898 26.0398 54.8598 26.0398 55.0898 25.6898L66.8698 3.79982C66.9898 3.55982 66.8698 3.32982 66.6298 3.32982H62.9798C62.6298 3.32982 62.5098 3.32982 62.3898 3.56982L62.3998 3.55982Z" fill="#0074BC"/>
<path d="M66.6401 22.4001L74.0601 8.27006C74.1801 7.92006 74.6501 7.92006 74.8801 8.27006L82.3001 22.4001C82.4201 22.5201 82.5401 22.6401 82.6501 22.6401H86.3001C86.5401 22.6401 86.6501 22.4001 86.5401 22.1701L74.7601 0.260059C74.6401 -0.0899414 74.1701 -0.0899414 73.9401 0.260059L62.1701 22.1601C62.0501 22.4001 62.1701 22.6301 62.4101 22.6301H66.0601C66.4101 22.6301 66.5301 22.5101 66.6501 22.3901L66.6401 22.4001Z" fill="#0074BC"/>
<path d="M15.78 13.6901C17.31 12.8701 18.25 11.2201 18.25 9.22008C18.25 5.69008 15.54 3.33008 11.66 3.33008H0.47C0.23 3.33008 0 3.57008 0 3.80008V25.5801C0 25.8201 0.24 26.0501 0.47 26.0501H11.18C16.48 26.0501 19.3 23.8101 19.3 19.2201C19.3 14.6301 15.77 13.6901 15.77 13.6901H15.78ZM4.24 6.62008H10.83C13.3 6.62008 14.48 7.68008 14.48 9.56008C14.48 11.4401 13.18 12.5001 10.83 12.5001H4.24C4 12.5001 3.77 12.2601 3.77 12.0301V6.98008C3.77 6.74008 4.01 6.63008 4.24 6.63008V6.62008ZM10.95 22.6301H4.24C4 22.6301 3.77 22.3901 3.77 22.1601V16.1601C3.77 15.9201 4.01 15.6901 4.24 15.6901H10.95C14.13 15.6901 15.54 16.6301 15.54 19.1001C15.54 21.8101 14.24 22.6301 10.95 22.6301Z" fill="#0074BC"/>
<path d="M38.62 13.6901C40.15 12.8701 41.09 11.2201 41.09 9.22008C41.09 5.69008 38.38 3.33008 34.5 3.33008H23.43C23.19 3.33008 22.96 3.57008 22.96 3.80008V25.5801C22.96 25.8201 23.2 26.0501 23.43 26.0501H34.03C39.33 26.0501 42.15 23.8101 42.15 19.2201C42.27 14.7501 38.62 13.6901 38.62 13.6901ZM27.2 6.63008H33.79C36.26 6.63008 37.44 7.69008 37.44 9.57008C37.44 11.4501 36.14 12.5101 33.79 12.5101H27.2C26.96 12.5101 26.73 12.2701 26.73 12.0401V6.98008C26.73 6.74008 26.85 6.63008 27.2 6.63008ZM33.79 22.6401H27.08C26.84 22.6401 26.61 22.4001 26.61 22.1701V16.1701C26.61 15.9301 26.85 15.7001 27.08 15.7001H33.79C36.97 15.7001 38.38 16.6401 38.38 19.1101C38.5 21.8201 37.08 22.6401 33.79 22.6401Z" fill="#0074BC"/>
</g>
<defs>
<clipPath id="clip0_517_25">
<rect width="86.58" height="26.05" fill="white"/>
</clipPath>
</defs>
</svg>
