<svg width="100" height="26" viewBox="0 0 100 26" fill="none" xmlns="http://www.w3.org/2000/svg">
<g clip-path="url(#clip0_517_17)">
<path d="M46.8401 2.64978C50.0201 0.0197768 54.6302 -0.530223 58.5802 0.459777C60.0102 0.899777 61.7601 1.44978 62.2001 3.08978C62.2001 4.29978 61.6501 5.49978 61.4301 6.70978C59.6701 5.05978 56.8201 4.73978 54.1901 5.05978C51.4501 5.49978 49.5801 7.68978 48.6001 9.66978C47.3901 12.2998 46.9501 15.0498 48.0501 17.6798C48.6001 19.1098 49.8101 20.3098 51.4501 20.6398C54.0801 21.1898 56.8301 20.4198 58.8001 18.8798C58.3601 20.5298 58.2502 21.8398 57.8102 23.4898C57.3702 24.6998 55.8401 25.1398 54.4101 25.2498C50.7901 25.7998 46.8401 25.2498 44.2101 22.8398C41.8001 20.4298 41.2501 17.2498 41.4701 14.2798C41.4701 9.88978 43.1201 5.49978 46.8501 2.64978" fill="#00298B"/>
<path d="M26.1096 14.0601C25.6696 15.7101 25.3396 17.2401 24.8996 18.8901C24.6796 19.4401 24.3496 20.3201 24.8996 20.8601C26.6596 20.8601 28.7396 21.0801 30.4896 20.0901C32.4596 19.1001 33.1196 16.4701 31.4796 14.9301C30.0496 13.8301 27.8596 14.0501 26.0996 14.0501M28.0696 4.5101C27.6296 6.1601 27.2996 7.9101 27.0796 9.5601C27.0796 10.0001 27.6296 10.1101 28.0696 10.1101C29.8296 10.1101 31.9096 9.8901 33.1196 8.9001C34.3296 7.9101 34.5496 5.7201 32.6796 4.9501C31.2496 4.0701 29.7196 4.5101 28.0696 4.5101ZM23.3596 0.900098C25.9896 0.460098 28.5196 0.350098 31.1496 0.350098C33.5596 0.570098 36.1996 0.900098 37.9496 2.5401C40.1396 4.3001 40.1396 7.5901 38.3896 9.5601C37.3996 10.7701 35.7596 11.7501 34.2196 11.9701C35.6496 12.4101 36.8496 13.1801 37.6196 14.3801C39.2696 17.1201 38.3896 20.7401 35.6496 22.7201C33.4596 24.3701 30.5996 24.9101 27.8596 25.1301C25.8896 25.1301 23.6896 25.1301 21.7196 24.5801C20.7296 24.3601 19.9596 23.5901 19.5296 22.6101C18.9796 21.1801 19.0896 19.8701 19.5296 18.4401C20.7396 12.6301 21.9396 6.8101 23.3696 0.890098" fill="#00298B"/>
<path d="M71.4097 4.62982C70.8597 7.03982 70.4197 9.23982 69.7597 11.6498C69.5397 12.0898 69.9796 12.6398 70.3096 12.8598C71.7396 13.0798 73.2697 12.8598 74.4797 12.3098C76.8897 11.0998 77.8796 8.35982 76.6696 6.16982C75.7896 4.30982 73.2697 4.51982 71.3997 4.62982M66.0196 1.11982C67.7796 0.679824 69.8596 0.569824 71.6096 0.569824C74.2396 0.569824 76.9897 0.569824 79.3997 1.77982C81.1597 2.54982 82.1397 4.40982 82.3596 6.16982C82.9096 10.0098 80.7096 14.1798 76.7696 15.9298C74.1396 17.1398 70.9596 17.3598 68.2096 17.1398C67.7696 19.1098 67.4396 20.9798 66.7796 22.9498C66.5596 23.9398 65.7896 24.9198 64.5896 25.3598C63.1596 25.5798 61.8496 25.3598 60.6396 25.3598C62.6096 17.0198 64.2596 9.01982 66.0196 1.11982Z" fill="#00298B"/>
<path d="M85.2305 6.49003C86.0005 4.63002 87.2005 2.87003 89.1805 2.32003C90.1705 1.88003 91.3705 2.54003 91.9205 3.09003C93.1305 5.72003 92.9105 8.68003 91.9205 11.43C90.2705 9.24003 87.8605 7.70003 85.2305 6.49003Z" fill="#00298B"/>
<path d="M92.0302 3.08984C94.4402 4.07984 95.9802 6.04984 97.6202 7.91984C98.8302 9.34984 99.5902 10.8798 99.3802 12.7498C99.1602 14.1798 98.3902 15.4898 97.4102 16.6998C95.4402 19.1098 93.0202 20.8698 90.1702 22.7298C88.9602 23.2798 87.7602 23.9398 86.3302 23.4998C84.5702 23.0598 83.3702 21.7398 82.4902 20.0998C86.4402 18.1298 90.0602 15.2698 91.9202 11.5398C93.0202 8.68984 93.2402 5.72984 92.0302 3.08984Z" fill="#FF7800"/>
<path d="M2.74023 6.49003C3.51023 4.63002 4.71023 2.87003 6.69023 2.32003C7.68023 1.88003 8.88023 2.54003 9.43023 3.09003C10.6402 5.72003 10.4202 8.68003 9.43023 11.43C7.57023 9.24003 5.37023 7.70003 2.74023 6.49003Z" fill="#00298B"/>
<path d="M9.54 3.08984C11.95 4.07984 13.49 6.04984 15.13 7.91984C16.34 9.34984 17.1 10.8798 16.89 12.7498C16.67 14.1798 15.9 15.4898 14.92 16.6998C12.95 19.1098 10.53 20.8698 7.68 22.7298C6.47 23.2798 5.27 23.9398 3.84 23.4998C2.08 23.0598 0.88 21.7398 0 20.0998C3.95 18.1298 7.57 15.2698 9.43 11.5398C10.31 8.68984 10.75 5.72984 9.54 3.08984Z" fill="#FF7800"/>
</g>
<defs>
<clipPath id="clip0_517_17">
<rect width="99.42" height="25.46" fill="white"/>
</clipPath>
</defs>
</svg>
