<svg width="20" height="21" viewBox="0 0 20 21" fill="none" xmlns="http://www.w3.org/2000/svg">
<path opacity="0.6" d="M3.875 0V0.875H0.375V20.125H19.625V0.875H16.125V0H14.375V0.875H5.625V0H3.875ZM2.125 2.625H3.875V3.5H5.625V2.625H14.375V3.5H16.125V2.625H17.875V4.375H2.125V2.625ZM2.125 6.125H17.875V18.375H2.125V6.125ZM7.375 7.875V9.625H9.125V7.875H7.375ZM10.875 7.875V9.625H12.625V7.875H10.875ZM14.375 7.875V9.625H16.125V7.875H14.375ZM3.875 11.375V13.125H5.625V11.375H3.875ZM7.375 11.375V13.125H9.125V11.375H7.375ZM10.875 11.375V13.125H12.625V11.375H10.875ZM14.375 11.375V13.125H16.125V11.375H14.375ZM3.875 14.875V16.625H5.625V14.875H3.875ZM7.375 14.875V16.625H9.125V14.875H7.375ZM10.875 14.875V16.625H12.625V14.875H10.875Z" fill="#53565A"/>
</svg>
