<svg width="50" height="49" viewBox="0 0 50 49" fill="none" xmlns="http://www.w3.org/2000/svg">
<path d="M25 0.125C20.5859 0.125 16.4844 1.23828 12.6953 3.46484C9.02344 5.61328 6.11328 8.52344 3.96484 12.1953C1.73828 15.9844 0.625 20.0859 0.625 24.5C0.625 28.9141 1.73828 33.0156 3.96484 36.8047C6.11328 40.4766 9.02344 43.3867 12.6953 45.5352C16.4844 47.7617 20.5859 48.875 25 48.875C29.4141 48.875 33.5156 47.7617 37.3047 45.5352C40.9766 43.3867 43.8867 40.4766 46.0352 36.8047C48.2617 33.0156 49.375 28.9141 49.375 24.5C49.375 20.0859 48.2617 15.9844 46.0352 12.1953C43.8867 8.52344 40.9766 5.61328 37.3047 3.46484C33.5156 1.23828 29.4141 0.125 25 0.125ZM25 3.875C28.7109 3.875 32.1875 4.8125 35.4297 6.6875C38.5156 8.52344 40.9766 10.9844 42.8125 14.0703C44.6875 17.3125 45.625 20.7891 45.625 24.5C45.625 28.2109 44.6875 31.6875 42.8125 34.9297C40.9766 38.0156 38.5156 40.4766 35.4297 42.3125C32.1875 44.1875 28.7109 45.125 25 45.125C21.2891 45.125 17.8125 44.1875 14.5703 42.3125C11.4844 40.4766 9.02344 38.0156 7.1875 34.9297C5.3125 31.6875 4.375 28.2109 4.375 24.5C4.375 20.7891 5.3125 17.3125 7.1875 14.0703C9.02344 10.9844 11.4844 8.52344 14.5703 6.6875C17.8125 4.8125 21.2891 3.875 25 3.875ZM16.5625 17C15.7812 17 15.1172 17.2734 14.5703 17.8203C14.0234 18.3672 13.75 19.0312 13.75 19.8125C13.75 20.5938 14.0234 21.2578 14.5703 21.8047C15.1172 22.3516 15.7812 22.625 16.5625 22.625C17.3438 22.625 18.0078 22.3516 18.5547 21.8047C19.1016 21.2578 19.375 20.5938 19.375 19.8125C19.375 19.0312 19.1016 18.3672 18.5547 17.8203C18.0078 17.2734 17.3438 17 16.5625 17ZM33.4375 17C32.6562 17 31.9922 17.2734 31.4453 17.8203C30.8984 18.3672 30.625 19.0312 30.625 19.8125C30.625 20.5938 30.8984 21.2578 31.4453 21.8047C31.9922 22.3516 32.6562 22.625 33.4375 22.625C34.2188 22.625 34.8828 22.3516 35.4297 21.8047C35.9766 21.2578 36.25 20.5938 36.25 19.8125C36.25 19.0312 35.9766 18.3672 35.4297 17.8203C34.8828 17.2734 34.2188 17 33.4375 17ZM11.875 30.125C11.9922 30.4375 12.1289 30.7695 12.2852 31.1211C12.6367 31.9023 13.0664 32.6641 13.5742 33.4062C14.2773 34.4609 15.0977 35.3984 16.0352 36.2188C17.168 37.1953 18.3984 37.957 19.7266 38.5039C21.3672 39.168 23.125 39.5 25 39.5C26.875 39.5 28.6328 39.168 30.2734 38.5039C31.6016 37.957 32.832 37.1953 33.9648 36.2188C34.9023 35.3984 35.7227 34.4609 36.4258 33.4062C36.9336 32.6641 37.3633 31.9023 37.7148 31.1211L38.125 30.125H11.875Z" fill="white"/>
</svg>
