<svg width="41" height="46" viewBox="0 0 41 46" fill="none" xmlns="http://www.w3.org/2000/svg">
<path d="M29.875 0C28.5469 0 27.2578 0.253906 26.0078 0.761719C24.7969 1.26953 23.7031 2.01172 22.7266 2.98828L5.14844 20.5664C3.3125 22.4023 2.0625 24.5508 1.39844 27.0117C0.773438 29.4336 0.773438 31.875 1.39844 34.3359C2.0625 36.7969 3.3125 38.9453 5.14844 40.7812C6.98437 42.6172 9.13281 43.8672 11.5938 44.5312C14.0547 45.1562 16.4961 45.1562 18.918 44.5312C21.3789 43.8672 23.5273 42.6172 25.3633 40.7812L37.082 29.0625L34.4453 26.4258L22.7266 38.1445C21.3594 39.5117 19.7578 40.4297 17.9219 40.8984C16.125 41.3672 14.3281 41.3672 12.5312 40.8984C10.7344 40.4297 9.15234 39.5117 7.78516 38.1445C6.41797 36.7773 5.5 35.1953 5.03125 33.3984C4.5625 31.6016 4.5625 29.8047 5.03125 28.0078C5.5 26.1719 6.41797 24.5703 7.78516 23.2031L25.3633 5.625C26.1836 4.80469 27.1406 4.25781 28.2344 3.98438C29.3281 3.67187 30.4219 3.67187 31.5156 3.98438C32.6484 4.25781 33.625 4.80469 34.4453 5.625C35.2656 6.44531 35.8125 7.42187 36.0859 8.55469C36.3984 9.64844 36.3984 10.7422 36.0859 11.8359C35.8125 12.9297 35.2656 13.8867 34.4453 14.707L16.8672 32.2852C16.3984 32.7539 15.8516 32.9883 15.2266 32.9883C14.6406 32.9883 14.1133 32.7539 13.6445 32.2852C13.1758 31.8164 12.9414 31.2891 12.9414 30.7031C12.9414 30.0781 13.1758 29.5312 13.6445 29.0625L29.7578 12.9492L27.1211 10.3125L11.0078 26.4258C9.83594 27.5977 9.25 29.0234 9.25 30.7031C9.25 32.3438 9.83594 33.75 11.0078 34.9219C12.1797 36.0938 13.5859 36.6797 15.2266 36.6797C16.9062 36.6797 18.332 36.0938 19.5039 34.9219L37.082 17.3438C38.3711 16.0547 39.2305 14.5312 39.6602 12.7734C40.1289 11.0156 40.1289 9.27734 39.6602 7.55859C39.2305 5.80078 38.3711 4.27734 37.082 2.98828C36.1055 2.01172 34.9922 1.26953 33.7422 0.761719C32.4922 0.253906 31.2031 0 29.875 0Z" fill="white"/>
</svg>
