<svg width="46" height="45" viewBox="0 0 46 45" fill="none" xmlns="http://www.w3.org/2000/svg">
<path d="M23 0C18.9375 0 15.1484 1.03516 11.6328 3.10547C8.23438 5.05859 5.55859 7.73438 3.60547 11.1328C1.53516 14.6484 0.5 18.4375 0.5 22.5C0.5 26.5625 1.53516 30.3516 3.60547 33.8672C5.55859 37.2656 8.23438 39.9609 11.6328 41.9531C15.1484 43.9844 18.9375 45 23 45C27.0625 45 30.8516 43.9844 34.3672 41.9531C37.7656 39.9609 40.4609 37.2656 42.4531 33.8672C44.4844 30.3516 45.5 26.5625 45.5 22.5C45.5 18.4375 44.4844 14.6484 42.4531 11.1328C40.4609 7.73438 37.7656 5.05859 34.3672 3.10547C30.8516 1.03516 27.0625 0 23 0ZM23 3.75C26.3984 3.75 29.5625 4.60937 32.4922 6.32812C35.3047 7.96875 37.5312 10.1953 39.1719 13.0078C40.8906 15.9375 41.75 19.1016 41.75 22.5C41.75 25.8984 40.8906 29.0625 39.1719 31.9922C37.5312 34.8047 35.3047 37.0312 32.4922 38.6719C29.5625 40.3906 26.3984 41.25 23 41.25C19.6016 41.25 16.4375 40.3906 13.5078 38.6719C10.6953 37.0312 8.46875 34.8047 6.82812 31.9922C5.10938 29.0625 4.25 25.8984 4.25 22.5C4.25 19.1016 5.10938 15.9375 6.82812 13.0078C8.46875 10.1953 10.6953 7.96875 13.5078 6.32812C16.4375 4.60937 19.6016 3.75 23 3.75ZM21.125 11.25V26.25H24.875V11.25H21.125ZM21.125 30V33.75H24.875V30H21.125Z" fill="white"/>
</svg>
