<svg width="26" height="19" viewBox="0 0 26 19" fill="none" xmlns="http://www.w3.org/2000/svg">
<path opacity="0.6" d="M3.375 0.75C2.66406 0.75 2.04427 1.01432 1.51562 1.54297C1.00521 2.05339 0.75 2.66406 0.75 3.375V15.625C0.75 16.3359 1.00521 16.9557 1.51562 17.4844C2.04427 17.9948 2.66406 18.25 3.375 18.25H22.625C23.3359 18.25 23.9466 17.9948 24.457 17.4844C24.9857 16.9557 25.25 16.3359 25.25 15.625V3.375C25.25 2.66406 24.9857 2.05339 24.457 1.54297C23.9466 1.01432 23.3359 0.75 22.625 0.75H3.375ZM3.375 2.5H22.625C22.8802 2.5 23.0898 2.58203 23.2539 2.74609C23.418 2.91016 23.5 3.11979 23.5 3.375V5.125H3.375V6.875H23.5V15.625C23.5 15.8802 23.418 16.0898 23.2539 16.2539C23.0898 16.418 22.8802 16.5 22.625 16.5H3.375C3.11979 16.5 2.91016 16.418 2.74609 16.2539C2.58203 16.0898 2.5 15.8802 2.5 15.625V3.375C2.5 3.11979 2.58203 2.91016 2.74609 2.74609C2.91016 2.58203 3.11979 2.5 3.375 2.5Z" fill="#53565A"/>
</svg>
