<svg width="7" height="11" viewBox="0 0 7 11" fill="none" xmlns="http://www.w3.org/2000/svg">
<path d="M0.191256 0.531829C0.0765023 0.638195 -5.10933e-07 0.780015 -5.18682e-07 0.957292C-5.26431e-07 1.13457 0.0765023 1.27639 0.191256 1.38276L4.62841 5.49557L0.191256 9.60838C0.0765019 9.71475 -9.07681e-07 9.85657 -9.1543e-07 10.0338C-9.23179e-07 10.2111 0.0765019 10.3529 0.191256 10.4593L0.57377 10.8139C0.841529 11.062 1.22404 11.062 1.4918 10.8139L6.80874 5.95649C6.9235 5.85012 7 5.7083 7 5.53102C7 5.35375 6.9235 5.21193 6.80874 5.10556L1.4918 0.177276C1.37705 0.0709103 1.18579 -2.54147e-07 1.03279 -2.60835e-07C0.84153 -2.69195e-07 0.688524 0.0709103 0.57377 0.177276L0.191256 0.531829Z" fill="#F3744A"/>
</svg>
