<svg width="7" height="11" viewBox="0 0 7 11" fill="none" xmlns="http://www.w3.org/2000/svg">
<path d="M6.80874 10.4682C6.9235 10.3618 7 10.22 7 10.0427C7 9.86543 6.9235 9.72361 6.80874 9.61724L2.37158 5.50443L6.80874 1.39162C6.9235 1.28525 7 1.14343 7 0.966155C7 0.788878 6.9235 0.647058 6.80874 0.540693L6.42623 0.18614C6.15847 -0.0620473 5.77596 -0.0620473 5.5082 0.18614L0.191257 5.04351C0.0765025 5.14988 -2.49518e-07 5.2917 -2.41769e-07 5.46898C-2.3402e-07 5.64625 0.0765025 5.78807 0.191257 5.89444L5.5082 10.8227C5.62295 10.9291 5.81421 11 5.96721 11C6.15847 11 6.31148 10.9291 6.42623 10.8227L6.80874 10.4682Z" fill="#F3744A"/>
</svg>
