<svg width="20" height="22" viewBox="0 0 20 22" fill="none" xmlns="http://www.w3.org/2000/svg">
<path d="M7.375 0V1.75H12.625V0H7.375ZM10 2.625C8.26823 2.625 6.65495 3.0625 5.16016 3.9375C3.70182 4.79427 2.54427 5.95182 1.6875 7.41016C0.8125 8.90495 0.375 10.5182 0.375 12.25C0.375 13.9818 0.8125 15.5951 1.6875 17.0898C2.54427 18.5482 3.70182 19.7057 5.16016 20.5625C6.65495 21.4375 8.26823 21.875 10 21.875C11.7318 21.875 13.3451 21.4375 14.8398 20.5625C16.2982 19.7057 17.4557 18.5482 18.3125 17.0898C19.1875 15.5951 19.625 13.9818 19.625 12.25C19.625 10.9922 19.3971 9.79818 18.9414 8.66797C18.4857 7.51953 17.8385 6.50781 17 5.63281L18.5039 4.12891L17.2461 2.87109L15.6602 4.45703C14.8581 3.8737 13.974 3.42708 13.0078 3.11719C12.0417 2.78906 11.0391 2.625 10 2.625ZM10 4.375C11.4219 4.375 12.7526 4.73047 13.9922 5.44141C15.1771 6.13411 16.1159 7.07292 16.8086 8.25781C17.5195 9.4974 17.875 10.8281 17.875 12.25C17.875 13.6719 17.5195 15.0026 16.8086 16.2422C16.1159 17.4271 15.1771 18.3659 13.9922 19.0586C12.7526 19.7695 11.4219 20.125 10 20.125C8.57812 20.125 7.2474 19.7695 6.00781 19.0586C4.82292 18.3659 3.88411 17.4271 3.19141 16.2422C2.48047 15.0026 2.125 13.6719 2.125 12.25C2.125 10.8281 2.48047 9.4974 3.19141 8.25781C3.88411 7.07292 4.82292 6.13411 6.00781 5.44141C7.2474 4.73047 8.57812 4.375 10 4.375ZM9.125 6.125V10.7461C8.85156 10.9102 8.63281 11.1289 8.46875 11.4023C8.32292 11.6576 8.25 11.9401 8.25 12.25C8.25 12.5599 8.32292 12.8516 8.46875 13.125C8.63281 13.3802 8.85156 13.5898 9.125 13.7539V14.875H10.875V13.7539C11.1484 13.5898 11.3581 13.3802 11.5039 13.125C11.668 12.8516 11.75 12.5599 11.75 12.25C11.75 11.9401 11.668 11.6576 11.5039 11.4023C11.3581 11.1289 11.1484 10.9102 10.875 10.7461V6.125H9.125Z" fill="black"/>
</svg>
