<svg width="20" height="20" viewBox="0 0 20 20" fill="none" xmlns="http://www.w3.org/2000/svg">
<path d="M12.3984 0.921875L11.8828 1.625L8.20312 6.64062C7.1875 6.46875 6.20312 6.52344 5.25 6.80469C4.25 7.10156 3.375 7.625 2.625 8.375L2.08594 8.89062L6.07031 12.875L0 18.9453V20H1.05469L7.125 13.9297L11.1094 17.9141L11.625 17.375C12.375 16.625 12.8984 15.75 13.1953 14.75C13.4766 13.7969 13.5312 12.8125 13.3594 11.7969L19.0781 7.60156L12.3984 0.921875ZM12.5859 3.21875L16.7812 7.41406L11.6953 11.1406L11.8359 11.6328C12.0078 12.3047 12.0156 12.9922 11.8594 13.6953C11.6875 14.3672 11.3828 15.0156 10.9453 15.6406L4.35938 9.05469C4.98438 8.61719 5.63281 8.3125 6.30469 8.14062C7.00781 7.98438 7.69531 7.99219 8.36719 8.16406L8.85938 8.30469L9.16406 7.88281L12.5859 3.21875Z" fill="#53565A"/>
</svg>
