<svg width="46" height="53" viewBox="0 0 46 53" fill="none" xmlns="http://www.w3.org/2000/svg">
<path d="M17.375 0.25C15.8516 0.25 14.5234 0.816406 13.3906 1.94922C12.2969 3.04297 11.75 4.35156 11.75 5.875V28.0234L10.5195 26.7344L10.0508 26.3242C8.95703 25.2305 7.64844 24.6836 6.125 24.6836C4.60156 24.6836 3.29297 25.2305 2.19922 26.3242C1.10547 27.418 0.558594 28.7266 0.558594 30.25C0.558594 31.7734 1.10547 33.082 2.19922 34.1758V34.2344L17.5508 49.4102L17.668 49.4688L17.7266 49.5859C19.0547 50.5625 20.4805 51.3242 22.0039 51.8711C23.6445 52.457 25.3438 52.75 27.1016 52.75H30.3242C33.0977 52.75 35.6562 52.0664 38 50.6992C40.3828 49.332 42.2578 47.4766 43.625 45.1328C44.9922 42.75 45.6758 40.1719 45.6758 37.3984V22.75C45.6758 21.2266 45.1094 19.918 43.9766 18.8242C42.8828 17.6914 41.5742 17.125 40.0508 17.125C39.3477 17.125 38.6055 17.3008 37.8242 17.6523C37.5117 16.4023 36.8477 15.3867 35.832 14.6055C34.8164 13.7852 33.6641 13.375 32.375 13.375C30.9688 13.375 29.7188 13.8633 28.625 14.8398C27.5312 13.8633 26.2812 13.375 24.875 13.375C24.2891 13.375 23.6641 13.4922 23 13.7266V5.875C23 4.35156 22.4336 3.04297 21.3008 1.94922C20.207 0.816406 18.8984 0.25 17.375 0.25ZM17.375 4C17.8828 4 18.3125 4.19531 18.6641 4.58594C19.0547 4.9375 19.25 5.36719 19.25 5.875V26.5H23V19C23 18.4922 23.1758 18.0625 23.5273 17.7109C23.918 17.3203 24.3672 17.125 24.875 17.125C25.3828 17.125 25.8125 17.3203 26.1641 17.7109C26.5547 18.0625 26.75 18.4922 26.75 19V26.5H30.5V19C30.5 18.4922 30.6758 18.0625 31.0273 17.7109C31.418 17.3203 31.8672 17.125 32.375 17.125C32.8828 17.125 33.3125 17.3203 33.6641 17.7109C34.0547 18.0625 34.25 18.4922 34.25 19V26.5H38.1758V22.75C38.1758 22.2422 38.3516 21.8125 38.7031 21.4609C39.0938 21.0703 39.543 20.875 40.0508 20.875C40.5586 20.875 40.9883 21.0703 41.3398 21.4609C41.7305 21.8125 41.9258 22.2422 41.9258 22.75V37.3984C41.9258 39.5469 41.3984 41.5 40.3438 43.2578C39.3281 45.0156 37.9414 46.4219 36.1836 47.4766C34.4258 48.4922 32.4727 49 30.3242 49H27.1016C24.5625 49 22.1992 48.1797 20.0117 46.5391L4.83594 31.5391C4.40625 31.1094 4.19141 30.6797 4.19141 30.25C4.19141 29.8203 4.40625 29.3906 4.83594 28.9609C5.26562 28.5312 5.69531 28.3164 6.125 28.3164C6.55469 28.3164 6.98438 28.5312 7.41406 28.9609L15.5 37.0469V5.875C15.5 5.36719 15.6758 4.9375 16.0273 4.58594C16.418 4.19531 16.8672 4 17.375 4Z" fill="white"/>
</svg>
