<svg width="18" height="18" viewBox="0 0 18 18" fill="none" xmlns="http://www.w3.org/2000/svg">
<path d="M2.625 2.67188C4.40625 0.890625 6.53125 0 9 0C11.4688 0 13.5781 0.890625 15.3281 2.67188C17.1094 4.42188 18 6.53125 18 9C18 11.4688 17.1094 13.5938 15.3281 15.375C13.5781 17.125 11.4688 18 9 18C6.53125 18 4.40625 17.125 2.625 15.375C0.875 13.5938 0 11.4688 0 9C0 6.53125 0.875 4.42188 2.625 2.67188ZM14.2969 3.70312C12.8281 2.23438 11.0625 1.5 9 1.5C6.9375 1.5 5.17188 2.23438 3.70312 3.70312C2.23438 5.17188 1.5 6.9375 1.5 9C1.5 11.0625 2.23438 12.8281 3.70312 14.2969C5.17188 15.7656 6.9375 16.5 9 16.5C11.0625 16.5 12.8281 15.7656 14.2969 14.2969C15.7656 12.8281 16.5 11.0625 16.5 9C16.5 6.9375 15.7656 5.17188 14.2969 3.70312ZM8.25 4.5H9.75V10.5H8.25V4.5ZM8.25 12H9.75V13.5H8.25V12Z" fill="white"/>
</svg>
