<svg width="81" height="28" viewBox="0 0 81 28" fill="none" xmlns="http://www.w3.org/2000/svg">
<g clip-path="url(#clip0_517_45)">
<path d="M4.4298 7.12012H0.549805V21.3601H4.4298V7.12012Z" fill="#FF4240"/>
<path d="M4.19 0.71C3.95 0.47 3.72 0.31 3.4 0.16C3.08 0.00999999 2.77 0 2.45 0C2.13 0 1.82 0.08 1.5 0.16C1.18 0.32 0.95 0.48 0.71 0.71C0.47 0.95 0.31 1.18 0.16 1.5C0 1.82 0 2.13 0 2.45C0 2.77 0.08 3.08 0.16 3.4C0.32 3.72 0.48 3.95 0.71 4.19C0.95 4.43 1.18 4.59 1.5 4.74C1.82 4.89 2.13 4.9 2.45 4.9C2.77 4.9 3.08 4.82 3.4 4.74C3.72 4.58 3.95 4.42 4.19 4.19C4.43 3.96 4.59 3.72 4.74 3.4C4.89 3.08 4.9 2.77 4.9 2.45C4.9 2.13 4.82 1.82 4.74 1.5C4.58 1.18 4.34 0.95 4.19 0.71Z" fill="#FF4240"/>
<path d="M27.0504 0.71C26.8104 0.47 26.5804 0.31 26.2604 0.16C25.9404 0.00999999 25.6304 0 25.3104 0C24.9904 0 24.6804 0.08 24.3604 0.16C24.0404 0.32 23.8104 0.48 23.5704 0.71C23.3304 0.95 23.1704 1.18 23.0204 1.5C22.8704 1.82 22.8604 2.13 22.8604 2.45C22.8604 2.77 22.9404 3.08 23.0204 3.4C23.1804 3.72 23.3404 3.95 23.5704 4.19C23.8104 4.43 24.0404 4.59 24.3604 4.74C24.6804 4.89 24.9904 4.9 25.3104 4.9C25.6304 4.9 25.9404 4.82 26.2604 4.74C26.5804 4.58 26.8104 4.42 27.0504 4.19C27.2903 3.96 27.4504 3.72 27.6004 3.4C27.7504 3.08 27.7604 2.77 27.7604 2.45C27.7604 2.13 27.6804 1.82 27.6004 1.5C27.4404 1.18 27.2804 0.95 27.0504 0.71Z" fill="#FF4240"/>
<path d="M27.2902 7.12012H23.4102V21.3601H27.2902V7.12012Z" fill="#FF4240"/>
<path d="M43.5003 8.94006C42.8703 8.31006 42.1603 7.75006 41.2903 7.36006C40.4203 6.97006 39.5503 6.81006 38.5203 6.81006C37.5703 6.81006 36.7003 6.97006 35.9903 7.36006C35.2803 7.76006 34.7203 8.23006 34.2503 8.78006V7.20006H30.5303V27.3701H34.3303V20.0101C34.8003 20.5601 35.3603 21.0401 36.0703 21.3501C36.7803 21.6701 37.5703 21.8201 38.5203 21.8201C39.4703 21.8201 40.4203 21.6601 41.2903 21.2701C42.1603 20.8801 42.8703 20.4001 43.5003 19.6901C44.1303 19.0601 44.6103 18.2701 44.9203 17.3201C45.2403 16.3701 45.4703 15.4201 45.4703 14.3101C45.4703 13.2001 45.3103 12.2501 44.9203 11.3001C44.6003 10.3501 44.1303 9.56006 43.5003 8.93006V8.94006ZM41.2903 15.8201C41.1303 16.2901 40.8903 16.6901 40.5803 17.0901C40.2603 17.4101 39.8703 17.7201 39.3903 17.9601C38.9103 18.2001 38.4403 18.2801 37.8903 18.2801C37.3403 18.2801 36.8603 18.2001 36.3903 17.9601C35.9203 17.8001 35.5203 17.4901 35.2003 17.1701C34.8803 16.8501 34.6503 16.3801 34.4903 15.9001C34.3303 15.4301 34.2503 14.8701 34.2503 14.3201C34.2503 13.7701 34.3303 13.2101 34.4903 12.7401C34.6503 12.2701 34.8903 11.8701 35.2003 11.4701C35.5203 11.1501 35.9103 10.8401 36.3903 10.6801C36.8703 10.5201 37.3403 10.3601 37.8903 10.3601C38.4403 10.3601 39.0003 10.4401 39.3903 10.6801C39.8603 10.9201 40.2603 11.1501 40.5803 11.5501C40.9003 11.8701 41.1303 12.3401 41.2903 12.8201C41.4503 13.3001 41.5303 13.8501 41.5303 14.3201C41.5303 14.7901 41.4503 15.3501 41.2903 15.8201Z" fill="#2AD2C9"/>
<path d="M58.7698 8.69998C58.2998 8.14998 57.7398 7.66998 57.0298 7.27998C56.3198 6.88998 55.5298 6.72998 54.4998 6.72998C53.5498 6.72998 52.5998 6.88998 51.7298 7.27998C50.8598 7.66998 50.1498 8.14998 49.5198 8.85998C48.8898 9.48998 48.4098 10.28 48.0998 11.23C47.7798 12.18 47.5498 13.13 47.5498 14.24C47.5498 15.35 47.7098 16.3 48.0998 17.25C48.4198 18.2 48.9698 18.99 49.5198 19.62C50.1498 20.25 50.8598 20.81 51.7298 21.2C52.5998 21.59 53.4698 21.75 54.4998 21.75C55.4498 21.75 56.3198 21.59 57.0298 21.2C57.7398 20.81 58.2998 20.41 58.7698 19.78V21.36H62.4898V7.11998H58.7698V8.69998ZM58.6098 15.82C58.4498 16.29 58.2098 16.69 57.8998 17.09C57.5798 17.41 57.1898 17.72 56.7098 17.88C56.2298 18.04 55.7598 18.2 55.2098 18.2C54.6598 18.2 54.1798 18.12 53.7098 17.88C53.2398 17.64 52.8398 17.41 52.5198 17.01C52.1998 16.69 51.9698 16.22 51.8098 15.74C51.6498 15.26 51.5698 14.71 51.5698 14.24C51.5698 13.69 51.6498 13.21 51.8098 12.74C51.9698 12.27 52.2098 11.87 52.5198 11.47C52.8398 11.15 53.2298 10.84 53.7098 10.6C54.1898 10.36 54.6598 10.28 55.2098 10.28C55.7598 10.28 56.2398 10.36 56.7098 10.6C57.1798 10.76 57.5798 11.07 57.8998 11.39C58.2198 11.71 58.4498 12.18 58.6098 12.66C58.7698 13.14 58.8498 13.69 58.8498 14.24C58.8498 14.79 58.7698 15.35 58.6098 15.82Z" fill="#2AD2C9"/>
<path d="M76.3305 7.12012L72.5305 14.4701L68.5805 7.12012H64.2305L70.4005 18.3501L65.4105 27.3701H69.6105L80.5205 7.12012H76.3305Z" fill="#2AD2C9"/>
<path d="M12.0204 18.19L13.5304 16.77L11.8604 14L7.44043 18.19L8.23043 21.36L20.3304 21.44L19.5404 18.19H12.0204Z" fill="#FF4240"/>
<path d="M20.33 10.4402L19.54 7.2002H7.75L8.62 10.3602L15.74 10.4402L14.24 11.7902L15.82 14.6302L20.33 10.4402Z" fill="#FF4240"/>
</g>
<defs>
<clipPath id="clip0_517_45">
<rect width="80.52" height="27.37" fill="white"/>
</clipPath>
</defs>
</svg>
