<svg width="108" height="37" viewBox="0 0 108 37" fill="none" xmlns="http://www.w3.org/2000/svg">
<g clip-path="url(#clip0_317_1910)">
<path d="M5.90023 9.47998H0.740234V28.44H5.90023V9.47998Z" fill="#FF4240"/>
<path d="M5.57977 0.95C5.25977 0.63 4.94977 0.42 4.52977 0.21C4.10977 0 3.68977 0 3.26977 0C2.84977 0 2.42977 0.11 2.00977 0.21C1.58977 0.42 1.26977 0.63 0.959766 0.95C0.639766 1.27 0.429766 1.58 0.219766 2C0.00976562 2.42 0.00976562 2.84 0.00976562 3.26C0.00976562 3.68 0.119766 4.1 0.219766 4.52C0.429766 4.94 0.639766 5.26 0.959766 5.57C1.27977 5.89 1.58977 6.1 2.00977 6.31C2.42977 6.52 2.84977 6.52 3.26977 6.52C3.68977 6.52 4.10977 6.41 4.52977 6.31C4.94977 6.1 5.26977 5.89 5.57977 5.57C5.88977 5.25 6.10977 4.94 6.31977 4.52C6.52977 4.1 6.52977 3.68 6.52977 3.26C6.52977 2.84 6.41977 2.42 6.31977 2C6.10977 1.58 5.78977 1.26 5.57977 0.95Z" fill="#FF4240"/>
<path d="M36.0202 0.95C35.7002 0.63 35.3902 0.42 34.9702 0.21C34.5502 0 34.1302 0 33.7102 0C33.2902 0 32.8702 0.11 32.4502 0.21C32.0302 0.42 31.7102 0.63 31.4002 0.95C31.0802 1.27 30.8702 1.58 30.6602 2C30.4502 2.42 30.4502 2.84 30.4502 3.26C30.4502 3.68 30.5602 4.1 30.6602 4.52C30.8702 4.94 31.0802 5.26 31.4002 5.57C31.7202 5.89 32.0302 6.1 32.4502 6.31C32.8702 6.52 33.2902 6.52 33.7102 6.52C34.1302 6.52 34.5502 6.41 34.9702 6.31C35.3902 6.1 35.7102 5.89 36.0202 5.57C36.3302 5.25 36.5502 4.94 36.7602 4.52C36.9702 4.1 36.9702 3.68 36.9702 3.26C36.9702 2.84 36.8602 2.42 36.7602 2C36.5502 1.58 36.3402 1.26 36.0202 0.95Z" fill="#FF4240"/>
<path d="M36.3299 9.47998H31.1699V28.44H36.3299V9.47998Z" fill="#FF4240"/>
<path d="M57.9196 11.8998C57.0796 11.0598 56.1297 10.3198 54.9697 9.7898C53.8097 9.2598 52.6496 9.0498 51.2796 9.0498C50.0196 9.0498 48.8596 9.2598 47.9096 9.7898C46.9596 10.3198 46.2296 10.9498 45.5896 11.6898V9.5798H40.6396V36.4298H45.6896V26.6398C46.3196 27.3798 47.0596 28.0098 48.0096 28.4298C48.9596 28.8498 50.0096 29.0598 51.2696 29.0598C52.5296 29.0598 53.7996 28.8498 54.9596 28.3198C56.1196 27.7898 57.0696 27.1598 57.9096 26.2098C58.7496 25.3698 59.3797 24.3098 59.8097 23.0498C60.2297 21.7898 60.5496 20.5198 60.5496 19.0498C60.5496 17.5798 60.3397 16.3098 59.8097 15.0498C59.3897 13.7898 58.7596 12.7298 57.9096 11.8898L57.9196 11.8998ZM54.9697 21.0598C54.7597 21.6898 54.4396 22.2198 54.0196 22.7398C53.5996 23.1598 53.0696 23.5798 52.4396 23.8998C51.8096 24.2198 51.1796 24.3198 50.4396 24.3198C49.6996 24.3198 49.0696 24.2098 48.4396 23.8998C47.8096 23.6898 47.2796 23.2698 46.8596 22.8498C46.4396 22.4298 46.1196 21.7998 45.9096 21.1698C45.6996 20.5398 45.5896 19.7998 45.5896 19.0598C45.5896 18.3198 45.6996 17.5898 45.9096 16.9498C46.1196 16.3198 46.4396 15.7898 46.8596 15.2698C47.2796 14.8498 47.8096 14.4298 48.4396 14.2198C49.0696 14.0098 49.6996 13.7998 50.4396 13.7998C51.1796 13.7998 51.9096 13.9098 52.4396 14.2198C53.0696 14.5398 53.5996 14.8498 54.0196 15.3798C54.4396 15.7998 54.7597 16.4298 54.9697 17.0598C55.1797 17.6898 55.2896 18.4298 55.2896 19.0598C55.2896 19.6898 55.1797 20.4298 54.9697 21.0598Z" fill="#2AD2C9"/>
<path d="M78.2503 11.5799C77.6203 10.8399 76.8803 10.2099 75.9303 9.67994C74.9803 9.14994 73.9303 8.93994 72.5603 8.93994C71.3003 8.93994 70.0303 9.14994 68.8703 9.67994C67.7103 10.2099 66.7603 10.8399 65.9203 11.7899C65.0803 12.6299 64.4503 13.6899 64.0203 14.9499C63.6003 16.2099 63.2803 17.4799 63.2803 18.9499C63.2803 20.4199 63.4903 21.6899 64.0203 22.9499C64.4403 24.2099 65.1803 25.2699 65.9203 26.1099C66.7603 26.9499 67.7103 27.6899 68.8703 28.2199C70.0303 28.7499 71.1903 28.9599 72.5603 28.9599C73.8203 28.9599 74.9803 28.7499 75.9303 28.2199C76.8803 27.6899 77.6103 27.1699 78.2503 26.3199V28.4299H83.2003V9.47994H78.2503V11.5899V11.5799ZM78.0403 21.0599C77.8303 21.6899 77.5103 22.2199 77.0903 22.7399C76.6703 23.1599 76.1403 23.5799 75.5103 23.7899C74.8803 23.9999 74.2503 24.2099 73.5103 24.2099C72.7703 24.2099 72.1403 24.0999 71.5103 23.7899C70.8803 23.4699 70.3503 23.1599 69.9303 22.6299C69.5103 22.2099 69.1903 21.5799 68.9803 20.9499C68.7703 20.3199 68.6603 19.5799 68.6603 18.9499C68.6603 18.2099 68.7703 17.5799 68.9803 16.9499C69.1903 16.3199 69.5103 15.7899 69.9303 15.2699C70.3503 14.8499 70.8803 14.4299 71.5103 14.1099C72.1403 13.7899 72.7703 13.6899 73.5103 13.6899C74.2503 13.6899 74.8803 13.7999 75.5103 14.1099C76.1403 14.3199 76.6703 14.7399 77.0903 15.1599C77.5103 15.5799 77.8303 16.2099 78.0403 16.8399C78.2503 17.4699 78.3603 18.2099 78.3603 18.9499C78.3603 19.6899 78.2503 20.4199 78.0403 21.0599Z" fill="#2AD2C9"/>
<path d="M101.63 9.47998L96.5698 19.27L91.3098 9.47998H85.5098L93.7298 24.43L87.0898 36.44H92.6698L107.21 9.47998H101.63Z" fill="#2AD2C9"/>
<path d="M16.0104 24.2201L18.0104 22.3301L15.8004 18.6401L9.90039 24.2201L10.9504 28.4301L27.0704 28.5401L26.0104 24.2201H16.0104Z" fill="#FF4240"/>
<path d="M27.0703 13.9001L26.0103 9.58008H10.3203L11.4803 13.8001L20.9603 13.9001L18.9603 15.6901L21.0603 19.4801L27.0703 13.9001Z" fill="#FF4240"/>
</g>
<defs>
<clipPath id="clip0_317_1910">
<rect width="107.21" height="36.44" fill="white"/>
</clipPath>
</defs>
</svg>
