<svg width="205" height="171" viewBox="0 0 205 171" fill="none" xmlns="http://www.w3.org/2000/svg">
<g clip-path="url(#clip0_164_656)">
<path d="M8.91761 81.6186L18.6745 105.643C19.0942 106.692 19.1991 107.426 19.4089 108.265H19.5138C19.8286 106.692 20.1433 105.852 20.563 104.908L30.0051 81.6186H38.608V84.4511H34.6213L34.936 109.944H38.7129V112.776H27.697V109.944H31.0543L31.1592 87.0738H31.0543C30.7395 87.9131 30.5297 88.7523 30.3199 89.4867L20.8777 112.671H17.5205L8.28813 89.9063C7.97339 89.172 7.65865 88.4376 7.34391 87.3885H7.239L7.13408 109.839H10.911V112.671H0.419651V109.839H3.98669L4.30143 84.3462H0.524564V81.5137H8.91761V81.6186Z" fill="#FEFEFE"/>
<path d="M60.7446 97.5646C60.7446 97.7744 60.4299 107.846 60.4299 109.839H63.6822V112.671H57.0727V112.252C57.0727 110.363 57.2825 108.895 57.4923 107.636H57.3874C56.0235 111.308 53.7155 113.091 49.7288 113.091C45.2175 113.091 42.5947 110.783 42.5947 106.482C42.5947 101.656 46.1617 99.4529 56.2334 99.4529H57.0727V97.8793C57.0727 93.5781 55.499 91.8996 51.827 91.8996C50.0435 91.8996 48.1551 92.2143 46.6863 92.8437V96.5155H43.434V91.0603C45.9519 90.0112 48.6796 89.2769 51.5123 89.2769C58.1218 89.2769 60.7446 91.8996 60.7446 97.5646ZM50.7779 110.363C54.6597 110.363 57.3874 107.531 57.3874 102.076H55.499C47.3158 102.076 46.5814 104.384 46.5814 106.482C46.4765 108.79 48.1551 110.363 50.7779 110.363Z" fill="#FEFEFE"/>
<path d="M74.4882 89.8011H81.6223V92.6336H74.3833L74.2784 98.1938C74.1735 101.866 74.2784 103.649 74.2784 105.013C74.2784 107.321 74.4882 110.258 77.5307 110.258C79.5241 110.258 81.0977 109.734 82.2518 109.314L82.1469 112.147C80.8879 112.671 78.7897 113.196 77.0061 113.196C74.1735 113.196 70.6064 112.566 70.6064 106.481C70.6064 102.915 70.8163 95.1514 70.8163 92.5287H67.1443V89.6962H70.8163L71.0261 84.1361L74.6981 83.9263L74.4882 89.8011Z" fill="#FEFEFE"/>
<path d="M101.556 89.6966L101.241 92.9487C100.507 92.7389 99.5624 92.634 98.7231 92.634C94.5266 92.634 91.9038 96.6205 91.9038 101.132L91.694 109.839H95.4708V112.671H84.7697V109.839H88.022L88.2318 92.5291H84.3501V89.6966H91.9038V90.2211C91.9038 92.5291 91.589 95.1518 91.3792 96.9352H91.4841C92.848 91.0604 95.4708 89.3818 99.2477 89.3818C99.4575 89.3818 101.346 89.5917 101.556 89.6966Z" fill="#FEFEFE"/>
<path d="M110.683 89.8013L110.473 109.839H114.145V112.671H103.234V109.839H106.906L107.116 92.5289H102.92V89.6964H110.683V89.8013ZM112.991 77.1074L115.299 79.1007L107.011 86.0246L104.808 84.1363L112.991 77.1074Z" fill="#FEFEFE"/>
<path d="M136.387 90.4309V96.4106H133.135V92.8437C132.295 92.529 130.512 92.3192 129.358 92.3192C124.217 92.3192 121.384 95.7812 121.384 101.236C121.384 106.377 124.217 110.258 130.092 110.258C132.4 110.258 134.184 109.629 136.282 109L136.072 112.147C134.394 112.671 131.981 113.301 129.463 113.301C121.699 113.301 117.503 108.685 117.503 101.341C117.503 93.683 122.643 89.3818 128.938 89.3818C131.456 89.2769 134.079 89.5916 136.387 90.4309Z" fill="#FEFEFE"/>
<path d="M147.193 89.8011C147.193 92.3189 146.983 99.6625 146.983 102.915C146.983 107.635 148.137 110.153 152.019 110.153C156.425 110.153 158.733 107.216 158.733 99.9772V92.5287H155.271V89.6962H162.615L162.405 109.734H165.553V112.566H158.733C158.733 111.202 158.838 109.943 158.943 109.419L159.258 107.426H159.153C157.894 110.783 154.747 112.986 151.389 112.986C146.144 112.986 143.311 110.678 143.311 103.334C143.311 101.761 143.311 98.1938 143.521 92.4238H139.849V89.5913H147.193V89.8011Z" fill="#FEFEFE"/>
<path d="M176.464 78.5761L176.254 109.839H179.926V112.671H169.33V109.839H172.582L172.792 81.3037H168.385V78.4712H176.464V78.5761Z" fill="#FEFEFE"/>
<path d="M201.958 97.5646C201.958 97.7744 201.643 107.846 201.643 109.839H204.895V112.671H198.286V112.252C198.286 110.363 198.495 108.895 198.705 107.636H198.6C197.236 111.308 194.928 113.091 190.942 113.091C186.43 113.091 183.808 110.783 183.808 106.482C183.808 101.656 187.375 99.4529 197.446 99.4529H198.286V97.8793C198.286 93.5781 196.712 91.8996 193.04 91.8996C191.256 91.8996 189.368 92.2143 187.899 92.8437V96.5155H184.647V91.0603C187.165 90.0112 189.893 89.2769 192.725 89.2769C199.335 89.2769 201.958 91.8996 201.958 97.5646ZM191.886 110.363C195.768 110.363 198.495 107.531 198.495 102.076H196.607C188.424 102.076 187.689 104.384 187.689 106.482C187.584 108.79 189.368 110.363 191.886 110.363Z" fill="#FEFEFE"/>
<path d="M22.3465 171C8.70778 171 1.04913 162.502 1.04913 148.76C1.04913 136.38 9.33726 126.519 22.3465 126.519C35.6704 126.519 43.6438 134.807 43.6438 148.76C43.6438 162.607 35.9852 171 22.3465 171ZM33.8869 148.76C33.8869 139.423 29.6904 133.548 22.2416 133.548C15.2124 133.548 10.7011 139.213 10.7011 148.76C10.7011 158.621 14.8976 163.971 22.2416 163.971C29.6904 163.971 33.8869 158.621 33.8869 148.76Z" fill="#FEFEFE"/>
<path d="M81.9371 163.971H85.609V170.265H69.8721V163.971H73.3342V150.543C73.3342 146.556 71.131 144.668 67.7738 144.668C62.9478 144.668 60.2201 148.025 60.2201 152.955V163.866H63.892V170.16H48.4698V163.866H51.6172V144.248H47.4207V137.954H60.0102C60.0102 140.366 60.0102 142.15 59.4857 144.563H59.5906C61.2692 140.366 65.0461 137.219 70.7114 137.219C78.37 137.219 81.8321 142.36 81.8321 149.493V163.971H81.9371Z" fill="#FEFEFE"/>
<path d="M101.871 122.952V163.971H105.542V170.266H89.7006V163.971H93.1628V129.247H88.2318V122.952H101.871Z" fill="#FEFEFE"/>
<path d="M121.699 138.059V163.971H125.371V170.265H109.529V163.971H112.991V144.353H108.795V138.059H121.699ZM117.083 132.708C113.411 132.708 111.313 130.505 111.313 127.358C111.313 124.106 113.516 122.008 117.083 122.008C120.65 122.008 122.853 124.211 122.853 127.358C122.853 130.61 120.755 132.708 117.083 132.708Z" fill="#FEFEFE"/>
<path d="M163.874 163.971H167.546V170.265H151.704V163.971H155.166V150.543C155.166 146.556 152.963 144.668 149.606 144.668C144.78 144.668 142.052 148.025 142.052 152.955V163.866H145.724V170.16H130.302V163.866H133.449V144.248H129.253V137.954H141.842C141.842 140.366 141.842 142.15 141.318 144.563H141.423C143.101 140.366 146.878 137.219 152.543 137.219C160.202 137.219 163.664 142.36 163.664 149.493V163.971H163.874Z" fill="#FEFEFE"/>
<path d="M181.08 156.103C181.29 161.243 185.171 164.39 191.361 164.39C195.348 164.39 197.971 163.866 201.748 162.187L201.328 169.006C197.341 170.475 193.879 171 189.473 171C178.247 171 171.743 164.495 171.743 154.319C171.743 144.038 178.142 137.324 187.899 137.324C197.446 137.324 203.426 143.724 203.426 156.103H181.08ZM194.089 150.228C194.089 145.822 191.676 143.304 187.48 143.304C183.703 143.304 181.395 145.717 180.975 150.228H194.089Z" fill="#FEFEFE"/>
<path d="M69.6622 0V37.7669L76.0619 44.1663C77.4258 45.5301 78.0553 47.1037 78.0553 48.992C78.0553 50.8804 77.4258 52.454 76.0619 53.7129C74.803 54.9718 73.1244 55.7061 71.3408 55.7061H6.71443C4.826 55.7061 3.2523 55.0767 1.99335 53.7129C0.629478 52.454 0 50.8804 0 48.992C0 47.1037 0.629478 45.5301 1.99335 44.1663L8.39304 37.7669V0H69.6622ZM5.87513 48.1528C5.6653 48.3626 5.56039 48.6773 5.56039 48.992C5.56039 49.3068 5.6653 49.6215 5.87513 49.8313C6.08495 50.0411 6.39969 50.146 6.71443 50.146H71.3408C71.6556 50.146 71.9703 50.0411 72.1801 49.8313C72.39 49.6215 72.4949 49.3068 72.4949 48.992C72.4949 48.6773 72.39 48.3626 72.1801 48.1528L65.7804 41.7534H12.3797L5.87513 48.1528ZM13.9534 36.1933H64.1018V5.56012H13.9534V36.1933Z" fill="#FEFEFE"/>
</g>
<defs>
<clipPath id="clip0_164_656">
<rect width="205" height="171" fill="white"/>
</clipPath>
</defs>
</svg>
