<svg width="134" height="73" viewBox="0 0 134 73" fill="none" xmlns="http://www.w3.org/2000/svg">
<path d="M4.37063 35.5815L9.29274 47.609C9.5049 48.1101 9.54733 48.486 9.67462 48.9036H9.71706C9.88678 48.1101 10.0565 47.6925 10.2687 47.2331L15.0635 35.5815H19.434V36.9597H17.3972L17.5245 49.6971H19.434V51.0753H13.9602V49.6971H15.6575L15.7 38.3378H15.6575C15.5302 38.7972 15.4029 39.2148 15.2756 39.5489L10.4808 51.117H8.78355L4.07361 39.716C3.90388 39.3819 3.77659 38.9643 3.60686 38.4631H3.56443L3.52199 49.6971H5.43143V51.0753H0.127441V49.6971H1.95201L2.07931 36.9597H0.127441V35.5815H4.37063Z" fill="#F3744A"/>
<path d="M30.721 43.5578C30.721 43.6413 30.5937 48.6945 30.5937 49.7386H32.2485V51.1167H28.8964V50.9079C28.8964 49.9892 29.0237 49.2374 29.1085 48.611H29.0661C28.3872 50.4903 27.1991 51.3673 25.2048 51.3673C22.9135 51.3673 21.5557 50.198 21.5557 48.0681C21.5557 45.6877 23.3802 44.5601 28.4721 44.5601H28.9388V43.7666C28.9388 41.595 28.1326 40.7598 26.2656 40.7598C25.3745 40.7598 24.3986 40.9268 23.6773 41.2191V42.9731H22.0648V40.2168C23.3378 39.7157 24.7381 39.3398 26.1807 39.3398C29.4056 39.3816 30.721 40.718 30.721 43.5578ZM25.6291 49.9892C27.581 49.9892 28.9813 48.611 28.9813 45.8547H28.0053C23.847 45.8547 23.4651 47.0241 23.4651 48.0681C23.4651 49.1957 24.3562 49.9892 25.6291 49.9892Z" fill="#F3744A"/>
<path d="M37.7222 39.6738H41.3713V41.052H37.6798L37.5949 43.85C37.5525 45.7293 37.5525 46.5646 37.5525 47.2328C37.5525 48.4021 37.6798 49.8638 39.2073 49.8638C40.2257 49.8638 40.9894 49.6132 41.6259 49.4044L41.5411 50.8661C40.9046 51.1584 39.8438 51.409 38.9103 51.409C37.4676 51.409 35.6855 51.0749 35.6855 48.068C35.6855 46.2722 35.7703 42.4301 35.7703 41.0937H33.9033V39.6738H35.7703L35.8552 36.8758L37.7222 36.7505V39.6738Z" fill="#F3744A"/>
<path d="M51.4699 39.6324L51.3002 41.2611C50.9607 41.1358 50.4516 41.0941 50.0272 41.0941C47.9057 41.0941 46.5903 43.0986 46.5478 45.3538L46.463 49.697H48.4148V51.0752H42.9411V49.697H44.596L44.6808 41.0523H42.6865V39.6741H46.5054V39.883C46.5054 41.0523 46.3357 42.3469 46.2508 43.2239H46.3357C47.0146 40.3006 48.3724 39.4653 50.2394 39.4653C50.4091 39.4653 51.3851 39.5489 51.4699 39.6324Z" fill="#F3744A"/>
<path d="M56.1376 39.674L56.0527 49.7386H57.9197V51.1168H52.3611V49.6969H54.2281L54.313 41.0521H52.1914V39.674H56.1376ZM57.3257 33.3262L58.5138 34.2867L54.313 37.7529L53.2098 36.8342L57.3257 33.3262Z" fill="#F3744A"/>
<path d="M69.2068 39.9664V42.9732H67.552V41.1775C67.0852 41.0104 66.2366 40.9269 65.6001 40.9269C62.9693 40.9269 61.5691 42.6391 61.5691 45.3954C61.5691 47.9847 63.0542 49.9057 65.982 49.9057C67.1276 49.9057 68.0611 49.6134 69.1219 49.2793L69.0371 50.8662C68.146 51.1168 66.9579 51.4092 65.6849 51.4092C61.7388 51.4092 59.6172 49.1122 59.6172 45.4372C59.6172 41.5951 62.248 39.4652 65.4728 39.4652C66.7033 39.3817 68.0187 39.5487 69.2068 39.9664Z" fill="#F3744A"/>
<path d="M74.6804 39.6738C74.6804 40.9267 74.5955 44.6017 74.5955 46.2722C74.5955 48.6527 75.1896 49.9055 77.1839 49.9055C79.4328 49.9055 80.6209 48.4439 80.6209 44.8106V41.0937H78.7963V39.6738H82.5303L82.4454 49.7385H84.0578V51.1166H80.6209C80.6209 50.4484 80.6633 49.822 80.7057 49.5714L80.8755 48.6109H80.833C80.1965 50.2814 78.5841 51.409 76.9293 51.409C74.2561 51.409 72.8134 50.2396 72.8134 46.5646C72.8134 45.7711 72.8558 43.9753 72.8983 41.0937H71.0312V39.6738H74.6804Z" fill="#F3744A"/>
<path d="M89.5315 34.0361L89.4466 49.6969H91.3136V51.075H85.9672V49.6969H87.622L87.7069 35.4143H85.458V34.0361H89.5315Z" fill="#F3744A"/>
<path d="M102.516 43.5578C102.516 43.6413 102.389 48.6945 102.389 49.7386H104.043V51.1167H100.691V50.9079C100.691 49.9892 100.819 49.2374 100.903 48.611H100.861C100.182 50.4903 98.994 51.3673 96.9997 51.3673C94.7084 51.3673 93.3506 50.198 93.3506 48.0681C93.3506 45.6877 95.1752 44.5601 100.267 44.5601H100.734V43.7666C100.734 41.595 99.9275 40.7598 98.0605 40.7598C97.1695 40.7598 96.1935 40.9268 95.4722 41.2191V42.9731H93.8173V40.2168C95.0903 39.7157 96.4906 39.3398 97.9332 39.3398C101.158 39.3816 102.516 40.718 102.516 43.5578ZM97.4241 49.9892C99.3759 49.9892 100.776 48.611 100.776 45.8547H99.8002C95.6419 45.8547 95.26 47.0241 95.26 48.0681C95.26 49.1957 96.1511 49.9892 97.4241 49.9892Z" fill="#F3744A"/>
<path d="M7.89243 72.8745C2.9279 72.8745 0.0849609 69.8259 0.0849609 64.8562C0.0849609 60.3877 3.14006 56.8379 7.89243 56.8379C12.7721 56.8379 15.6999 59.803 15.6999 64.8562C15.6999 69.8259 12.857 72.8745 7.89243 72.8745ZM12.1356 64.8562C12.1356 61.4735 10.5656 59.3436 7.89243 59.3436C5.30409 59.3436 3.69167 61.3899 3.69167 64.8562C3.69167 68.406 5.26166 70.3688 7.93487 70.3688C10.5656 70.3688 12.1356 68.406 12.1356 64.8562Z" fill="#F3744A"/>
<path d="M29.7448 70.3687H31.1026V72.6238H25.2895V70.3687H26.5624V65.5243C26.5624 64.0626 25.7562 63.4362 24.5257 63.4362C22.7435 63.4362 21.7676 64.6473 21.7676 66.443V70.4104H23.1254V72.6656H17.482V70.4104H18.6276V63.3527H17.1001V61.0975H21.7252C21.7252 61.9745 21.7252 62.6427 21.5555 63.4779H21.5979C22.1919 61.9327 23.5922 60.8052 25.6713 60.8052C28.4719 60.8052 29.7448 62.6427 29.7448 65.2319V70.3687Z" fill="#F3744A"/>
<path d="M37.0007 55.5435V70.3272H38.3585V72.5824H32.5878V70.3272H33.8608V57.7986H32.0786V55.5435H37.0007Z" fill="#F3744A"/>
<path d="M44.2988 61.0141V70.3688H45.6566V72.624H39.8435V70.3688H41.1164V63.3111H39.5889V61.0559H44.2988V61.0141ZM42.6015 59.0931C41.2861 59.0931 40.4799 58.2996 40.4799 57.172C40.4799 56.0027 41.2861 55.251 42.6015 55.251C43.9169 55.251 44.7231 56.0445 44.7231 57.172C44.7231 58.2996 43.9169 59.0931 42.6015 59.0931Z" fill="#F3744A"/>
<path d="M59.7443 70.3687H61.1021V72.6238H55.289V70.3687H56.5619V65.5243C56.5619 64.0626 55.7557 63.4362 54.5252 63.4362C52.7431 63.4362 51.7671 64.6473 51.7671 66.443V70.4104H53.1249V72.6656H47.4815V70.4104H48.6272V63.3527H47.0996V61.0975H51.7247C51.7247 61.9745 51.7247 62.6427 51.555 63.4779H51.5974C52.1914 61.9327 53.5917 60.8052 55.6709 60.8052C58.4714 60.8052 59.7443 62.6427 59.7443 65.2319V70.3687Z" fill="#F3744A"/>
<path d="M66.0244 67.5291C66.1093 69.4084 67.5519 70.4942 69.8008 70.4942C71.2435 70.4942 72.2194 70.2854 73.5773 69.7007L73.4075 72.1647C71.9224 72.7076 70.6919 72.9164 69.0795 72.9164C64.9636 72.9164 62.5874 70.5777 62.5874 66.9027C62.5874 63.1859 64.9212 60.7637 68.5279 60.7637C72.0073 60.7637 74.2137 63.0606 74.2137 67.5291H66.0244ZM70.7768 65.3993C70.7768 63.8123 69.8857 62.8935 68.3581 62.8935C67.0003 62.8935 66.1093 63.7705 65.982 65.3993H70.7768Z" fill="#F3744A"/>
<path d="M86.5188 70.16V70.2018C87.4523 70.0765 87.7493 70.0765 88.0463 70.0765H93.9444V72.624H82.021V70.4941C86.9855 66.9443 90.1679 63.4781 90.1679 61.39C90.1679 60.0536 89.1496 59.2601 87.9615 59.2601C86.3491 59.2601 85.4155 60.3877 85.2458 61.8911H82.1059C82.2756 58.6754 84.6093 56.7544 88.0888 56.7544C91.1863 56.7544 93.4776 58.3831 93.4776 61.2647C93.4776 63.6869 91.653 66.2344 86.5188 70.16Z" fill="#F3744A"/>
<path d="M101.285 73.0001C97.5084 73.0001 95.4717 70.4108 95.4717 65.2741C95.4717 59.7198 97.8054 56.7129 101.794 56.7129C105.358 56.7129 107.522 59.678 107.522 64.8565C107.522 69.9097 104.976 73.0001 101.285 73.0001ZM104.085 64.8565C104.085 61.2232 103.322 59.2604 101.539 59.2604C99.927 59.2604 98.9087 61.0144 98.9087 65.0235C98.9087 68.9074 99.63 70.4944 101.539 70.4944C103.237 70.4526 104.085 68.5315 104.085 64.8565Z" fill="#F3744A"/>
<path d="M113.209 70.16V70.2018C114.142 70.0765 114.439 70.0765 114.736 70.0765H120.634V72.624H108.711V70.4941C113.675 66.9443 116.858 63.4781 116.858 61.39C116.858 60.0536 115.839 59.2601 114.651 59.2601C113.039 59.2601 112.105 60.3877 111.936 61.8911H108.796C108.966 58.6754 111.299 56.7544 114.779 56.7544C117.876 56.7544 120.168 58.3831 120.168 61.2647C120.168 63.6869 118.343 66.2344 113.209 70.16Z" fill="#F3744A"/>
<path d="M126.532 70.16V70.2018C127.465 70.0765 127.762 70.0765 128.06 70.0765H133.958V72.624H122.034V70.4941C126.999 66.9443 130.181 63.4781 130.181 61.39C130.181 60.0536 129.163 59.2601 127.975 59.2601C126.362 59.2601 125.429 60.3877 125.259 61.8911H122.119C122.289 58.6754 124.623 56.7544 128.102 56.7544C131.199 56.7544 133.491 58.3831 133.491 61.2647C133.491 63.6869 131.666 66.2344 126.532 70.16Z" fill="#F3744A"/>
<path d="M1.95187 1.87929L20.1127 19.7952L12.1355 20.7557L14.2147 24.7649L14.7239 25.7672L9.25016 28.5235L8.69854 27.5629L6.40722 23.0944L0 28.3564V0L1.95187 1.87929ZM2.24889 23.5538L7.12856 19.5446L7.80747 20.7975L10.2261 25.6001L11.7112 24.8484L8.65611 19.0017L10.2261 18.7929L15.3179 18.2082L2.24889 5.3873V23.5538Z" fill="#F3744A"/>
</svg>
