<svg width="126" height="105" viewBox="0 0 126 105" fill="none" xmlns="http://www.w3.org/2000/svg">
<g clip-path="url(#clip0_306_613)">
<path d="M5.48094 50.1167L11.4779 64.8682C11.7358 65.5124 11.8003 65.9633 11.9293 66.4786H11.9937C12.1872 65.5124 12.3806 64.997 12.6386 64.4173L18.4421 50.1167H23.7297V51.8559H21.2793L21.4728 67.5093H23.7941V69.2486H17.0234V67.5093H19.0869L19.1514 53.4664H19.0869C18.8934 53.9817 18.7645 54.497 18.6355 54.948L12.832 69.1842H10.7686L5.09405 55.2056C4.9006 54.7547 4.70715 54.3038 4.5137 53.6596H4.44921L4.38473 67.4449H6.70612V69.1842H0.257812V67.4449H2.45024L2.64369 51.7915H0.322296V50.0522H5.48094V50.1167Z" fill="#FEFEFE"/>
<path d="M37.3355 59.9078C37.3355 60.0366 37.1421 66.2207 37.1421 67.4446H39.141V69.1839H35.0786V68.9262C35.0786 67.7667 35.2076 66.8649 35.3365 66.0919H35.2721C34.4338 68.3465 33.0151 69.4416 30.5648 69.4416C27.792 69.4416 26.1799 68.0244 26.1799 65.3833C26.1799 62.4201 28.3724 61.0673 34.5627 61.0673H35.0786V60.1011C35.0786 57.46 34.1114 56.4293 31.8544 56.4293C30.7582 56.4293 29.5975 56.6225 28.6948 57.009V59.2636H26.6958V55.9139C28.2434 55.2698 29.92 54.8188 31.661 54.8188C35.7234 54.8188 37.3355 56.4293 37.3355 59.9078ZM31.2096 67.7667C33.5955 67.7667 35.2721 66.0274 35.2721 62.6777H34.1114C29.0817 62.6777 28.6303 64.0949 28.6303 65.3833C28.5658 66.8004 29.5975 67.7667 31.2096 67.7667Z" fill="#FEFEFE"/>
<path d="M45.7829 55.1411H50.1677V56.8803H45.7184L45.6539 60.2944C45.5894 62.549 45.6539 63.6441 45.6539 64.4815C45.6539 65.8987 45.7829 67.7024 47.6529 67.7024C48.8781 67.7024 49.8453 67.3803 50.5546 67.1226L50.4901 68.8619C49.7163 69.184 48.4267 69.5061 47.3305 69.5061C45.5894 69.5061 43.397 69.1196 43.397 65.3834C43.397 63.1932 43.526 58.4263 43.526 56.8159H41.269V55.0766H43.526L43.6549 51.6625L45.9118 51.5337L45.7829 55.1411Z" fill="#FEFEFE"/>
<path d="M62.4195 55.0766L62.226 57.0735C61.7746 56.9447 61.1943 56.8802 60.6784 56.8802C58.0991 56.8802 56.487 59.3281 56.487 62.098L56.3581 67.4447H58.6794V69.1839H52.1022V67.4447H54.1011L54.2301 56.8158H51.8442V55.0766H56.487V55.3986C56.487 56.8158 56.2936 58.4262 56.1646 59.5213H56.2291C57.0674 55.914 58.6794 54.8833 61.0008 54.8833C61.1298 54.8833 62.2905 55.0121 62.4195 55.0766Z" fill="#FEFEFE"/>
<path d="M68.0296 55.1412L67.9006 67.4448H70.1575V69.1841H63.4513V67.4448H65.7082L65.8371 56.816H63.2578V55.0767H68.0296V55.1412ZM69.4482 47.3467L70.8668 48.5706L65.7727 52.8221L64.4185 51.6626L69.4482 47.3467Z" fill="#FEFEFE"/>
<path d="M83.8279 55.5277V59.1995H81.8289V57.0093C81.3131 56.8161 80.2169 56.6872 79.5075 56.6872C76.3479 56.6872 74.6068 58.813 74.6068 62.1627C74.6068 65.3191 76.3479 67.7026 79.9589 67.7026C81.3775 67.7026 82.4738 67.3161 83.7634 66.9296L83.6345 68.8621C82.6027 69.1842 81.1196 69.5707 79.572 69.5707C74.8003 69.5707 72.2209 66.7363 72.2209 62.2271C72.2209 57.5246 75.3806 54.8835 79.2496 54.8835C80.7972 54.8191 82.4093 55.0124 83.8279 55.5277Z" fill="#FEFEFE"/>
<path d="M90.4696 55.141C90.4696 56.6871 90.3407 61.1963 90.3407 63.1932C90.3407 66.092 91.05 67.638 93.4358 67.638C96.1441 67.638 97.5628 65.8343 97.5628 61.3895V56.8159H95.4348V55.0766H99.9486L99.8197 67.3803H101.754V69.1196H97.5628C97.5628 68.2821 97.6273 67.5091 97.6917 67.1871L97.8852 65.9631H97.8207C97.0469 68.0245 95.1124 69.3772 93.049 69.3772C89.8248 69.3772 88.0838 67.9601 88.0838 63.4509C88.0838 62.4846 88.0838 60.2944 88.2127 56.7515H85.9558V55.0122H90.4696V55.141Z" fill="#FEFEFE"/>
<path d="M108.461 48.2485L108.332 67.4448H110.589V69.1841H104.076V67.4448H106.075L106.204 49.9233H103.495V48.1841H108.461V48.2485Z" fill="#FEFEFE"/>
<path d="M124.13 59.9078C124.13 60.0366 123.936 66.2207 123.936 67.4446H125.935V69.1839H121.873V68.9262C121.873 67.7667 122.002 66.8649 122.131 66.0919H122.066C121.228 68.3465 119.81 69.4416 117.359 69.4416C114.586 69.4416 112.974 68.0244 112.974 65.3833C112.974 62.4201 115.167 61.0673 121.357 61.0673H121.873V60.1011C121.873 57.46 120.906 56.4293 118.649 56.4293C117.553 56.4293 116.392 56.6225 115.489 57.009V59.2636H113.49V55.9139C115.038 55.2698 116.714 54.8188 118.455 54.8188C122.518 54.8188 124.13 56.4293 124.13 59.9078ZM117.94 67.7667C120.325 67.7667 122.002 66.0274 122.002 62.6777H120.841C115.812 62.6777 115.36 64.0949 115.36 65.3833C115.296 66.8004 116.392 67.7667 117.94 67.7667Z" fill="#FEFEFE"/>
<path d="M13.7348 105C5.35204 105 0.644775 99.7821 0.644775 91.3435C0.644775 83.7422 5.73894 77.687 13.7348 77.687C21.9242 77.687 26.8249 82.776 26.8249 91.3435C26.8249 99.8465 22.1177 105 13.7348 105ZM20.828 91.3435C20.828 85.6103 18.2487 82.003 13.6704 82.003C9.35 82.003 6.57722 85.4815 6.57722 91.3435C6.57722 97.3987 9.15655 100.684 13.6704 100.684C18.2487 100.684 20.828 97.3987 20.828 91.3435Z" fill="#FEFEFE"/>
<path d="M50.3612 100.684H52.6181V104.549H42.9456V100.684H45.0736V92.4383C45.0736 89.9905 43.7194 88.8309 41.656 88.8309C38.6897 88.8309 37.0132 90.8923 37.0132 93.9199V100.619H39.2701V104.484H29.7911V100.619H31.7256V88.5733H29.1462V84.7082H36.8842C36.8842 86.1898 36.8842 87.2849 36.5618 88.7665H36.6263C37.658 86.1898 39.9794 84.2573 43.4615 84.2573C48.1688 84.2573 50.2967 87.4138 50.2967 91.7941V100.684H50.3612Z" fill="#FEFEFE"/>
<path d="M62.613 75.4966V100.684H64.8699V104.549H55.133V100.684H57.2609V79.3616H54.2302V75.4966H62.613Z" fill="#FEFEFE"/>
<path d="M74.8003 84.7728V100.684H77.0572V104.549H67.3203V100.684H69.4482V88.6379H66.8689V84.7728H74.8003ZM71.9631 81.4875C69.7062 81.4875 68.4165 80.1348 68.4165 78.2023C68.4165 76.2053 69.7706 74.917 71.9631 74.917C74.1555 74.917 75.5096 76.2698 75.5096 78.2023C75.5096 80.1992 74.22 81.4875 71.9631 81.4875Z" fill="#FEFEFE"/>
<path d="M100.723 100.684H102.979V104.549H93.2425V100.684H95.3704V92.4383C95.3704 89.9905 94.0163 88.8309 91.9528 88.8309C88.9866 88.8309 87.3101 90.8923 87.3101 93.9199V100.619H89.567V104.484H80.0879V100.619H82.0224V88.5733H79.4431V84.7082H87.1811C87.1811 86.1898 87.1811 87.2849 86.8587 88.7665H86.9232C87.9549 86.1898 90.2763 84.2573 93.7584 84.2573C98.4656 84.2573 100.594 87.4138 100.594 91.7941V100.684H100.723Z" fill="#FEFEFE"/>
<path d="M111.298 95.8525C111.427 99.0089 113.813 100.941 117.617 100.941C120.068 100.941 121.68 100.619 124.001 99.5887L123.743 103.776C121.293 104.678 119.165 105 116.456 105C109.557 105 105.559 101.006 105.559 94.7574C105.559 88.4445 109.492 84.3218 115.489 84.3218C121.357 84.3218 125.033 88.2512 125.033 95.8525H111.298ZM119.294 92.2451C119.294 89.5396 117.811 87.9936 115.231 87.9936C112.91 87.9936 111.491 89.4752 111.233 92.2451H119.294Z" fill="#FEFEFE"/>
<path d="M42.8168 0V23.1902L46.7503 27.1196C47.5885 27.9571 47.9754 28.9233 47.9754 30.0828C47.9754 31.2423 47.5885 32.2086 46.7503 32.9816C45.9765 33.7546 44.9447 34.2055 43.8485 34.2055H4.12692C2.96622 34.2055 1.99898 33.819 1.22518 32.9816C0.386899 32.2086 0 31.2423 0 30.0828C0 28.9233 0.386899 27.9571 1.22518 27.1196L5.15865 23.1902V0H42.8168ZM3.61105 29.5675C3.48209 29.6963 3.41761 29.8896 3.41761 30.0828C3.41761 30.2761 3.48209 30.4693 3.61105 30.5982C3.74002 30.727 3.93347 30.7914 4.12692 30.7914H43.8485C44.042 30.7914 44.2354 30.727 44.3644 30.5982C44.4934 30.4693 44.5578 30.2761 44.5578 30.0828C44.5578 29.8896 44.4934 29.6963 44.3644 29.5675L40.4309 25.638H7.60901L3.61105 29.5675ZM8.57625 22.2239H39.3992V3.41411H8.57625V22.2239Z" fill="#FEFEFE"/>
</g>
<defs>
<clipPath id="clip0_306_613">
<rect width="126" height="105" fill="white"/>
</clipPath>
</defs>
</svg>
