<svg width="223" height="88" viewBox="0 0 223 88" fill="none" xmlns="http://www.w3.org/2000/svg">
<path d="M223 0H0V88H223V0Z" fill="white"/>
<path d="M82.6569 40.0002C82.6569 39.3335 82.3898 38.8002 81.8557 38.5335C81.3216 38.2669 80.5204 38.1335 79.4521 38.1335C79.185 38.1335 78.7844 38.1335 78.2503 38.1335C77.7162 38.1335 77.4491 38.1335 77.3156 38.1335L76.2473 43.8669C77.0485 43.8669 77.7162 44.0002 78.3838 44.0002C79.5856 44.0002 80.5204 43.7335 81.188 43.2002C81.8557 42.6669 82.2563 42.0002 82.5234 41.0669V40.8002C82.6569 40.5335 82.6569 40.2669 82.6569 40.0002ZM85.9952 40.0002C85.9952 40.4002 85.9952 40.6669 85.8617 40.8002V41.0669C85.5946 42.5335 84.9269 43.7335 84.2593 44.5335C83.4581 45.3335 82.6569 45.8669 81.5886 46.2669C80.5204 46.5335 79.3186 46.8002 77.9832 46.8002C77.8497 46.8002 77.5826 46.8002 77.4491 46.8002C77.182 46.8002 77.0485 46.8002 76.7814 46.8002C76.6479 46.8002 76.3808 46.8002 76.2473 46.8002C76.1138 46.8002 75.9802 46.8002 75.8467 46.8002L74.7784 52.8002C74.7784 52.9335 74.6449 53.0669 74.6449 53.2002C74.5114 53.3335 74.3778 53.3335 74.2443 53.3335H71.8407C71.7072 53.3335 71.7072 53.3335 71.5737 53.2002C71.4401 53.0669 71.4401 53.0669 71.4401 52.9335V52.8002L74.3779 36.2669C74.3779 36.0002 74.5114 35.8669 74.6449 35.7335C74.7784 35.6002 75.0455 35.6002 75.179 35.4669C76.5144 35.2002 78.1168 35.2002 79.9862 35.2002C81.8557 35.2002 83.3246 35.6002 84.3928 36.2669C85.4611 37.0669 85.9952 38.1335 85.9952 39.4669V40.0002Z" fill="black"/>
<path d="M92.1377 50.9334L92.8054 47.3334H91.0695C90.1347 47.3334 89.4671 47.4667 89.0665 47.7334C88.6659 48.0001 88.3988 48.4001 88.2653 49.2001C88.2653 49.4667 88.2653 49.6001 88.2653 49.7334C88.2653 50.1334 88.3988 50.5334 88.7994 50.8001C89.2 51.0667 89.7341 51.0667 90.5353 51.0667C91.0695 51.0667 91.6036 51.0667 92.1377 50.9334ZM91.4701 42.2667C90.8024 42.2667 90.1347 42.2667 89.6006 42.4001C88.9329 42.5334 88.3988 42.6667 87.7311 42.8001C87.5976 42.8001 87.4641 42.9334 87.3305 42.9334C87.197 42.9334 87.0635 42.8001 87.0635 42.6667C87.0635 42.5334 87.0635 42.4001 87.197 42.1334L87.4641 40.9334C87.4641 40.8001 87.4641 40.8001 87.5976 40.6667C87.5976 40.5334 87.7311 40.5334 87.7311 40.5334C87.8647 40.5334 87.9982 40.4001 88.1317 40.4001C89.4671 40.0001 90.9359 39.7334 92.4048 39.7334C93.7401 39.7334 94.8084 40.0001 95.476 40.6667C96.1437 41.2001 96.5443 42.1334 96.5443 43.3334C96.5443 43.7334 96.5443 44.1334 96.4108 44.4001L94.9419 52.5334C94.9419 52.6667 94.8084 52.8001 94.8084 52.9334C94.8084 53.0667 94.6749 53.0667 94.5413 53.0667C94.0072 53.2001 93.4731 53.3334 93.206 53.3334C92.8054 53.4667 92.4048 53.4667 91.8707 53.4667C91.3365 53.4667 90.6689 53.6001 90.0012 53.6001C86.6629 53.6001 84.9269 52.5334 84.9269 50.2667C84.9269 50.0001 84.9269 49.6001 85.0605 49.2001C85.194 48.5334 85.3275 47.8667 85.5946 47.4667C85.8617 46.9334 86.2623 46.5334 86.6629 46.2667C87.197 46.0001 87.7311 45.7334 88.5323 45.6001C89.3335 45.4667 90.1347 45.3334 91.203 45.3334H93.0724C93.206 44.4001 93.3395 43.8667 93.3395 43.6001C93.3395 43.0667 93.206 42.8001 92.9389 42.5334C92.6719 42.2667 92.1377 42.2667 91.4701 42.2667Z" fill="black"/>
<path d="M106.826 42.4001C106.559 42.4001 106.159 42.2668 105.892 42.2668C105.491 42.2668 105.09 42.2668 104.69 42.2668C104.022 42.2668 103.488 42.4001 103.087 42.6668C102.687 42.9335 102.286 43.3335 102.019 43.7335C101.752 44.2668 101.619 44.9335 101.485 45.7335L101.218 47.6001C101.084 48.2668 101.084 48.8001 101.084 49.0668C101.084 49.7335 101.218 50.2668 101.619 50.5335C101.886 50.8001 102.553 51.0668 103.221 51.0668C103.889 51.0668 104.556 51.0668 105.491 50.9335L106.826 42.4001ZM102.019 58.1335C101.218 58.1335 100.417 58.0001 99.6156 57.8668C98.8144 57.6001 98.0132 57.3335 97.479 57.0668C97.212 56.9335 97.0784 56.8001 97.0784 56.5335V56.4001L97.212 55.3335C97.212 55.0668 97.3455 54.9335 97.6126 54.9335C97.7461 54.9335 97.7461 54.9335 97.8796 54.9335C98.5473 55.0668 99.215 55.2001 99.8826 55.3335C100.684 55.4668 101.351 55.4668 102.153 55.4668C103.087 55.4668 103.755 55.3335 104.156 54.9335C104.556 54.6668 104.823 54.0001 104.823 53.2001V53.0668C104.022 53.2001 103.221 53.3335 102.687 53.3335C101.218 53.3335 100.016 52.9335 99.0814 52.2668C98.1467 51.4668 97.7461 50.4001 97.7461 48.8001C97.7461 48.2668 97.7461 47.7335 97.8796 47.3335L98.1467 45.4668C98.4138 44.0001 98.8144 42.8001 99.3485 41.8668C99.8826 40.9335 100.684 40.4001 101.619 40.0001C102.553 39.6001 103.622 39.4668 104.957 39.4668C105.758 39.4668 106.559 39.4668 107.36 39.6001C108.162 39.7335 108.963 39.8668 109.631 40.0001C109.764 40.0001 110.031 40.1335 110.031 40.1335C110.165 40.1335 110.165 40.2668 110.165 40.4001C110.165 40.4001 110.165 40.4001 110.165 40.5335C110.165 40.5335 110.165 40.5335 110.165 40.6668L108.028 53.0668C107.761 54.2668 107.494 55.2001 107.093 55.8668C106.693 56.5335 106.025 57.0668 105.224 57.3335C104.423 57.8668 103.354 58.1335 102.019 58.1335Z" fill="black"/>
<path d="M119.779 44.5335C119.779 43.8668 119.646 43.2001 119.245 42.9335C118.844 42.5335 118.31 42.4001 117.643 42.4001C116.841 42.4001 116.174 42.6668 115.64 43.2001C115.105 43.7335 114.705 44.5335 114.438 45.7335L114.037 47.6001C114.037 48.0001 113.904 48.2668 113.904 48.6668C113.904 50.1335 114.571 50.8001 116.04 50.8001C117.776 50.8001 118.711 49.7335 119.111 47.6001L119.512 45.7335C119.779 45.2001 119.779 44.9335 119.779 44.5335ZM122.984 44.2668C122.984 44.6668 122.984 45.0668 122.85 45.4668L122.45 47.3335C121.648 51.3335 119.512 53.3335 115.64 53.3335C114.571 53.3335 113.77 53.0668 112.969 52.6668C112.301 52.2668 111.634 51.6001 111.366 50.9335C110.966 50.2668 110.832 49.4668 110.832 48.5335C110.832 48.1335 110.832 47.7335 110.966 47.3335L111.366 45.4668C111.767 43.4668 112.435 42.0001 113.637 40.9335C114.838 40.0001 116.307 39.4668 118.177 39.4668C119.245 39.4668 120.18 39.7335 120.847 40.1335C121.515 40.5335 122.049 41.0668 122.45 41.8668C122.717 42.6668 122.984 43.4668 122.984 44.2668Z" fill="black"/>
<path d="M137.272 36.0001C137.272 36.1334 137.272 36.1334 137.272 36.1334L137.005 37.7334C137.005 37.8668 136.871 38.0001 136.738 38.1334C136.604 38.2668 136.471 38.2668 136.337 38.2668H131.396C130.729 38.2668 130.195 38.4001 129.794 38.6668C129.527 38.9334 129.26 39.4668 129.126 40.2668L128.726 42.8001H135.269C135.402 42.8001 135.536 42.8001 135.536 42.9334C135.669 43.0668 135.669 43.0668 135.669 43.2001L135.402 44.9334C135.402 45.0668 135.269 45.2001 135.135 45.3334C135.002 45.4668 134.868 45.4668 134.735 45.4668H128.192L127.657 48.5334C127.657 48.8001 127.524 49.0668 127.524 49.3334C127.524 49.8668 127.657 50.1334 127.925 50.2668C128.192 50.4001 128.592 50.5334 129.126 50.5334H134.067C134.334 50.5334 134.468 50.6668 134.468 50.9334V51.0668L134.201 52.6668C134.201 52.9334 133.934 53.0668 133.666 53.2001C133.533 53.2001 133.266 53.2001 132.999 53.3334C132.732 53.3334 132.331 53.4668 131.797 53.4668C131.263 53.4668 130.862 53.6001 130.595 53.6001C130.328 53.6001 129.794 53.6001 128.993 53.6001C127.524 53.6001 126.456 53.3334 125.521 52.6668C124.586 52.0001 124.186 51.0668 124.186 49.8668C124.186 49.4668 124.186 49.0668 124.319 48.8001L125.788 40.4001C125.922 39.3334 126.322 38.5334 126.589 37.8668C126.99 37.2001 127.39 36.6668 127.925 36.4001C128.459 36.0001 128.993 35.8668 129.66 35.7334C130.328 35.6001 131.129 35.6001 132.064 35.6001C133.399 35.6001 134.334 35.6001 134.868 35.7334C135.402 35.7334 136.07 35.8668 136.604 36.0001C137.138 35.6001 137.272 35.7334 137.272 36.0001Z" fill="black"/>
<path d="M146.886 35.3332L146.619 36.7998C146.619 36.9332 146.486 37.0665 146.486 37.0665C146.352 37.1998 146.352 37.1998 146.219 37.1998H145.15C144.75 37.1998 144.483 37.1998 144.216 37.3332C143.949 37.4665 143.815 37.5998 143.681 37.7332C143.548 37.9998 143.414 38.2665 143.414 38.6665L143.147 39.8665H145.417C145.684 39.8665 145.818 39.9998 145.818 40.2665V40.3998L145.551 41.8665C145.551 41.9998 145.417 42.1332 145.417 42.1332C145.284 42.2665 145.15 42.2665 145.017 42.2665H142.88L140.877 53.5998C140.744 54.6665 140.343 55.4665 139.943 55.9998C139.542 56.5332 139.008 56.9332 138.34 57.0665C137.672 57.1998 137.005 57.3332 136.07 57.3332C135.669 57.3332 135.269 57.3332 134.601 57.1998C134.468 57.1998 134.468 57.1998 134.334 57.0665C134.201 57.0665 134.201 56.9332 134.201 56.7998L134.468 55.3332C134.468 55.0665 134.601 54.9332 134.868 54.9332H135.937C136.471 54.9332 136.871 54.7998 137.138 54.6665C137.405 54.5332 137.539 54.1332 137.672 53.4665L139.675 42.1332L137.539 41.7332C137.272 41.7332 137.138 41.5998 137.138 41.3332L137.272 40.2665C137.272 40.1332 137.405 39.9998 137.405 39.8665C137.539 39.7332 137.672 39.7332 137.806 39.7332H139.943L140.21 38.5332C140.343 37.7332 140.61 37.0665 140.877 36.5332C141.144 35.9998 141.545 35.5998 141.946 35.3332C142.346 35.0665 142.747 34.9332 143.281 34.7998C143.815 34.6665 144.349 34.6665 145.15 34.6665C145.417 34.6665 145.952 34.6665 146.619 34.7998C146.753 34.7998 146.753 34.7998 146.886 34.9332C146.886 35.0665 146.886 35.1998 146.886 35.3332Z" fill="black"/>
<path d="M153.83 44.4001C153.83 43.7334 153.696 43.2001 153.296 42.8001C152.895 42.4001 152.361 42.2667 151.693 42.2667C149.957 42.2667 148.889 43.3334 148.622 45.3334H153.696C153.83 44.9334 153.83 44.6667 153.83 44.4001ZM150.091 53.4667C149.29 53.4667 148.622 53.3334 147.955 53.2001C147.287 53.0667 146.753 52.6667 146.352 52.2667C145.952 51.8667 145.551 51.3334 145.284 50.8001C145.017 50.2667 144.883 49.4667 144.883 48.8001C144.883 48.2667 144.883 47.7334 145.017 47.3334L145.284 45.8667C145.684 43.7334 146.486 42.1334 147.554 41.2001C148.756 40.2667 150.225 39.7334 152.094 39.7334C153.696 39.7334 154.765 40.1334 155.566 41.0667C156.367 42.0001 156.768 43.2001 156.768 44.6667C156.768 45.0667 156.768 45.4667 156.634 46.0001L156.501 47.2001C156.367 47.6001 156.234 47.8667 155.966 47.8667H148.222C148.088 48.4001 148.088 48.8001 148.088 48.8001C148.088 49.4667 148.355 50.0001 148.756 50.4001C149.156 50.8001 149.824 50.9334 150.892 50.9334C152.094 50.9334 153.563 50.6667 155.165 50.1334C155.165 50.1334 155.299 50.1334 155.432 50.1334C155.566 50.1334 155.699 50.2667 155.699 50.4001V50.5334L155.432 52.1334C155.432 52.2667 155.299 52.4001 155.299 52.5334C155.165 52.6667 155.032 52.6667 154.765 52.8001C154.364 52.9334 153.963 53.0667 153.429 53.2001C153.029 53.3334 152.495 53.4667 151.96 53.4667C151.293 53.4667 150.625 53.4667 150.091 53.4667Z" fill="black"/>
<path d="M162.51 53.4668C161.842 53.4668 161.174 53.3334 160.64 53.2001C160.106 52.9334 159.572 52.6668 159.171 52.2668C158.771 51.8668 158.37 51.3334 158.237 50.8001C157.969 50.2668 157.969 49.6001 157.969 48.9334C157.969 48.6668 157.969 48.1334 158.103 47.7334L158.504 45.4668C158.771 44.0001 159.171 42.9334 159.839 42.0001C160.507 41.2001 161.174 40.5334 161.975 40.1334C162.777 39.7334 163.845 39.6001 164.78 39.6001C165.848 39.6001 166.916 39.8668 167.851 40.4001C168.118 40.5334 168.252 40.6668 168.252 40.9334C168.252 40.9334 168.252 40.9334 168.252 41.0668L167.984 42.5334C167.984 42.8001 167.851 42.9334 167.584 42.9334C167.45 42.9334 167.45 42.9334 167.45 42.9334C166.249 42.5334 165.314 42.4001 164.646 42.4001C163.845 42.4001 163.177 42.6668 162.643 43.0668C162.109 43.4668 161.842 44.4001 161.575 45.4668L161.174 47.7334C161.041 48.2668 161.041 48.6668 161.041 48.9334C161.041 49.6001 161.174 50.1334 161.575 50.4001C161.975 50.6668 162.51 50.9334 163.177 50.9334C163.845 50.9334 164.913 50.8001 166.115 50.4001C166.115 50.4001 166.249 50.4001 166.382 50.4001C166.516 50.4001 166.649 50.5334 166.649 50.6668V50.8001L166.382 52.4001C166.382 52.5334 166.249 52.6668 166.249 52.8001C166.115 52.9334 165.981 52.9334 165.848 53.0668C165.447 53.2001 164.913 53.3334 164.379 53.4668C163.711 53.4668 163.177 53.4668 162.51 53.4668Z" fill="black"/>
<path d="M177.599 40.1331L177.332 41.5998C177.332 41.7331 177.198 41.8665 177.065 41.9998C176.931 42.1331 176.798 42.1331 176.664 42.1331H174.528L173.192 49.5998C173.059 49.9998 173.059 50.2665 173.059 50.3998C173.059 50.6665 173.059 50.7998 173.192 50.7998C173.326 50.9331 173.459 50.9331 173.86 50.9331H175.195C175.462 50.9331 175.596 51.0665 175.596 51.1998V51.3331L175.329 52.7998C175.329 53.0665 175.062 53.1998 174.795 53.1998C174.127 53.3331 173.593 53.3331 173.192 53.3331C172.124 53.3331 171.323 53.0665 170.789 52.6665C170.255 52.2665 169.987 51.5998 169.987 50.6665C169.987 50.3998 169.987 49.9998 170.121 49.4665L171.456 41.9998L169.186 41.5998C168.919 41.5998 168.786 41.4665 168.786 41.1998V41.3331L168.919 40.2665C168.919 40.1331 169.053 39.9998 169.053 39.8665C169.186 39.7331 169.32 39.7331 169.453 39.7331H171.723L172.124 37.7331C172.124 37.4665 172.391 37.3331 172.658 37.1998L174.928 36.7998H175.062C175.329 36.7998 175.329 36.9331 175.329 37.0665V37.3331L174.928 39.8665H177.065C177.198 39.8665 177.332 39.8665 177.332 39.9998C177.599 39.9998 177.599 39.9998 177.599 40.1331Z" fill="black"/>
<path d="M183.207 35.3331L182.807 37.4665C182.807 37.5998 182.673 37.7331 182.673 37.8665C182.54 37.9998 182.406 37.9998 182.272 37.9998H180.002C179.869 37.9998 179.735 37.9998 179.735 37.8665C179.602 37.7331 179.602 37.7331 179.602 37.5998V37.4665L180.002 35.3331C180.002 35.1998 180.136 35.0665 180.269 34.9331C180.403 34.7998 180.537 34.7998 180.67 34.7998H182.94C183.074 34.9331 183.207 35.0665 183.207 35.3331ZM182.272 40.1331L180.002 52.7998C180.002 52.9331 179.869 53.0665 179.735 53.1998C179.602 53.3331 179.468 53.3331 179.335 53.3331H177.065C176.931 53.3331 176.798 53.3331 176.798 53.1998C176.664 53.0665 176.664 53.0665 176.664 52.9331V52.7998L178.934 40.2665C178.934 40.1331 179.068 39.9998 179.068 39.8665C179.201 39.7331 179.335 39.7331 179.468 39.7331H181.738C182.139 39.7331 182.272 39.8665 182.272 40.1331Z" fill="black"/>
<path d="M195.759 40.1334C195.759 40.2668 195.759 40.2668 195.759 40.4001L190.819 51.3334C190.418 52.1334 190.017 52.6668 189.35 53.0668C188.816 53.4668 188.148 53.6001 187.347 53.6001C185.744 53.6001 184.943 52.8001 184.81 51.3334L183.741 40.4001C183.741 40.2668 183.741 40.1334 183.875 40.0001C184.008 39.8668 184.008 39.8668 184.142 39.8668H186.412C186.679 39.8668 186.813 40.0001 186.813 40.4001L187.347 50.4001C187.347 50.8001 187.48 50.9334 187.747 50.9334C187.881 50.9334 188.148 50.8001 188.281 50.4001L192.421 40.4001C192.555 40.1334 192.688 39.8668 192.955 39.8668H195.492C195.626 39.7334 195.759 39.8668 195.759 40.1334Z" fill="black"/>
<path d="M203.504 44.5335C203.504 43.8668 203.371 43.2001 202.97 42.9335C202.569 42.5335 202.035 42.4001 201.368 42.4001C200.566 42.4001 199.899 42.6668 199.365 43.2001C198.831 43.7335 198.43 44.5335 198.163 45.7335L197.762 47.6001C197.762 48.0001 197.629 48.2668 197.629 48.6668C197.629 50.1335 198.296 50.8001 199.765 50.8001C201.501 50.8001 202.436 49.7335 202.837 47.6001L203.237 45.7335C203.504 45.2001 203.504 44.9335 203.504 44.5335ZM206.709 44.2668C206.709 44.6668 206.709 45.0668 206.575 45.4668L206.175 47.3335C205.374 51.3335 203.237 53.3335 199.365 53.3335C198.296 53.3335 197.495 53.0668 196.694 52.6668C196.026 52.2668 195.359 51.6001 195.092 50.9335C194.691 50.2668 194.557 49.4668 194.557 48.5335C194.557 48.1335 194.558 47.7335 194.691 47.3335L195.092 45.4668C195.492 43.4668 196.16 42.0001 197.362 40.9335C198.563 40.0001 200.032 39.4668 201.902 39.4668C202.97 39.4668 203.905 39.7335 204.572 40.1335C205.24 40.5335 205.774 41.0668 206.175 41.8668C206.442 42.6668 206.709 43.4668 206.709 44.2668Z" fill="black"/>
<path d="M46.0688 26.5334C38.3239 22.2667 31.3802 19.8667 27.5078 19.8667C26.4395 19.8667 25.5048 20 24.9706 20.4C21.6323 22.5334 19.4958 35.7334 20.297 49.7334C20.9647 60.9334 23.1012 66.8 24.9706 67.7334C28.309 69.3334 40.1934 64.8 51.9443 57.4667C61.8257 51.2 66.2323 46.4 66.2323 44.2667C66.3659 40.5334 57.4191 32.8 46.0688 26.5334Z" fill="#FFCC00"/>
<path d="M51.9443 57.4664C40.1934 64.7998 28.309 69.3331 24.9707 67.7331C23.1012 66.7998 20.9647 60.9331 20.297 49.7331C19.4958 35.7331 21.6324 22.5331 24.9707 20.3998C25.6383 19.9998 26.4395 19.8664 27.5078 19.8664C31.5138 19.8664 38.324 22.2664 46.0689 26.5331C57.4192 32.7998 66.2324 40.5331 66.2324 44.2664C66.3659 46.3998 61.9593 51.1998 51.9443 57.4664ZM47.0036 24.9331C42.8641 22.6664 29.1102 15.5998 23.9024 18.9331C18.6946 22.2664 17.7599 39.3331 18.4276 49.8664C18.6946 55.0664 19.8964 67.3331 24.1695 69.3331C24.8371 69.7331 25.7719 69.8664 26.8401 69.8664C32.8491 69.8664 44.0659 64.6664 53.0126 58.9331C57.5527 55.9998 68.2353 48.9331 68.2353 44.2664C68.2353 38.9331 57.1521 30.5331 47.0036 24.9331Z" fill="white"/>
<path d="M49.4072 34.5331C47.5377 33.3331 44.8671 32.7998 41.5288 32.7998C38.324 32.7998 35.5198 32.9331 33.1162 33.3331C32.7156 33.3331 32.315 33.4665 32.0479 33.7331C31.7808 33.8665 31.6473 34.1331 31.5138 34.5331L30.8461 37.7331H40.0599L40.594 34.7998L46.603 42.1331L38.1904 49.3331L38.7246 45.9998H29.1102L26.306 59.8665V59.9998C26.306 60.1331 26.306 60.2665 26.4395 60.3998C26.5731 60.5331 26.7066 60.5331 26.9737 60.5331H31.2467C31.5138 60.5331 31.6473 60.3998 31.9144 60.2665C32.0479 60.1331 32.1814 59.9998 32.315 59.7331L34.318 51.4665C34.4515 51.4665 34.7186 51.4665 34.9856 51.4665C35.2527 51.4665 35.6533 51.4665 35.9204 51.4665C36.321 51.4665 36.588 51.4665 36.9886 51.4665C37.3892 51.4665 37.6563 51.4665 37.9234 51.4665C40.327 51.4665 42.33 51.0665 44.1994 50.6665C49.9413 49.4665 52.0779 43.7331 52.0779 39.3331C52.2114 37.3331 51.2767 35.7331 49.4072 34.5331Z" fill="black"/>
</svg>
