<svg width="167" height="66" viewBox="0 0 167 66" fill="none" xmlns="http://www.w3.org/2000/svg">
<path d="M167 0H0V66H167V0Z" fill="white"/>
<path d="M61.9 29.9999C61.9 29.4999 61.7 29.0999 61.3 28.8999C60.9 28.6999 60.3 28.5999 59.5 28.5999C59.3 28.5999 59 28.5999 58.6 28.5999C58.2 28.5999 58 28.5999 57.9 28.5999L57.1 32.8999C57.7 32.8999 58.2 32.9999 58.7 32.9999C59.6 32.9999 60.3 32.7999 60.8 32.3999C61.3 31.9999 61.6 31.4999 61.8 30.7999V30.5999C61.9 30.3999 61.9 30.1999 61.9 29.9999ZM64.4 29.9999C64.4 30.2999 64.4 30.4999 64.3 30.5999V30.7999C64.1 31.8999 63.6 32.7999 63.1 33.3999C62.5 33.9999 61.9 34.3999 61.1 34.6999C60.3 34.8999 59.4 35.0999 58.4 35.0999C58.3 35.0999 58.1 35.0999 58 35.0999C57.8 35.0999 57.7 35.0999 57.5 35.0999C57.4 35.0999 57.2 35.0999 57.1 35.0999C57 35.0999 56.9 35.0999 56.8 35.0999L56 39.5999C56 39.6999 55.9 39.7999 55.9 39.8999C55.8 39.9999 55.7 39.9999 55.6 39.9999H53.8C53.7 39.9999 53.7 39.9999 53.6 39.8999C53.5 39.7999 53.5 39.7999 53.5 39.6999V39.5999L55.7 27.1999C55.7 26.9999 55.8 26.8999 55.9 26.7999C56 26.6999 56.2 26.6999 56.3 26.5999C57.3 26.3999 58.5 26.3999 59.9 26.3999C61.3 26.3999 62.4 26.6999 63.2 27.1999C64 27.7999 64.4 28.5999 64.4 29.5999V29.9999Z" fill="black"/>
<path d="M69.0001 38.1998L69.5001 35.4998H68.2001C67.5001 35.4998 67.0001 35.5998 66.7001 35.7998C66.4001 35.9998 66.2001 36.2998 66.1001 36.8998C66.1001 37.0998 66.1001 37.1998 66.1001 37.2998C66.1001 37.5998 66.2001 37.8998 66.5001 38.0998C66.8001 38.2998 67.2001 38.2998 67.8001 38.2998C68.2001 38.2998 68.6001 38.2998 69.0001 38.1998ZM68.5001 31.6998C68.0001 31.6998 67.5001 31.6998 67.1001 31.7998C66.6001 31.8998 66.2001 31.9998 65.7001 32.0998C65.6001 32.0998 65.5001 32.1998 65.4001 32.1998C65.3001 32.1998 65.2001 32.0998 65.2001 31.9998C65.2001 31.8998 65.2001 31.7998 65.3001 31.5998L65.5001 30.6998C65.5001 30.5998 65.5001 30.5998 65.6001 30.4998C65.6001 30.3998 65.7001 30.3998 65.7001 30.3998C65.8001 30.3998 65.9001 30.2998 66.0001 30.2998C67.0001 29.9998 68.1001 29.7998 69.2001 29.7998C70.2001 29.7998 71.0001 29.9998 71.5001 30.4998C72.0001 30.8998 72.3001 31.5998 72.3001 32.4998C72.3001 32.7998 72.3001 33.0998 72.2001 33.2998L71.1001 39.3998C71.1001 39.4998 71.0001 39.5998 71.0001 39.6998C71.0001 39.7998 70.9001 39.7998 70.8001 39.7998C70.4001 39.8998 70.0001 39.9998 69.8001 39.9998C69.5001 40.0998 69.2001 40.0998 68.8001 40.0998C68.4001 40.0998 67.9001 40.1998 67.4001 40.1998C64.9001 40.1998 63.6001 39.3998 63.6001 37.6998C63.6001 37.4998 63.6001 37.1998 63.7001 36.8998C63.8001 36.3998 63.9001 35.8998 64.1001 35.5998C64.3001 35.1998 64.6001 34.8998 64.9001 34.6998C65.3001 34.4998 65.7001 34.2998 66.3001 34.1998C66.9001 34.0998 67.5001 33.9998 68.3001 33.9998H69.7001C69.8001 33.2998 69.9001 32.8998 69.9001 32.6998C69.9001 32.2998 69.8001 32.0998 69.6001 31.8998C69.4001 31.6998 69.0001 31.6998 68.5001 31.6998Z" fill="black"/>
<path d="M80.0002 31.8001C79.8002 31.8001 79.5002 31.7001 79.3002 31.7001C79.0002 31.7001 78.7002 31.7001 78.4002 31.7001C77.9002 31.7001 77.5002 31.8001 77.2002 32.0001C76.9002 32.2001 76.6002 32.5001 76.4002 32.8001C76.2002 33.2001 76.1002 33.7001 76.0002 34.3001L75.8002 35.7001C75.7002 36.2001 75.7002 36.6001 75.7002 36.8001C75.7002 37.3001 75.8002 37.7001 76.1002 37.9001C76.3002 38.1001 76.8002 38.3001 77.3002 38.3001C77.8002 38.3001 78.3002 38.3001 79.0002 38.2001L80.0002 31.8001ZM76.4002 43.6001C75.8002 43.6001 75.2002 43.5001 74.6002 43.4001C74.0002 43.2001 73.4002 43.0001 73.0002 42.8001C72.8002 42.7001 72.7002 42.6001 72.7002 42.4001V42.3001L72.8002 41.5001C72.8002 41.3001 72.9002 41.2001 73.1002 41.2001C73.2002 41.2001 73.2002 41.2001 73.3002 41.2001C73.8002 41.3001 74.3002 41.4001 74.8002 41.5001C75.4002 41.6001 75.9002 41.6001 76.5002 41.6001C77.2002 41.6001 77.7002 41.5001 78.0002 41.2001C78.3002 41.0001 78.5002 40.5001 78.5002 39.9001V39.8001C77.9002 39.9001 77.3002 40.0001 76.9002 40.0001C75.8002 40.0001 74.9002 39.7001 74.2002 39.2001C73.5002 38.6001 73.2002 37.8001 73.2002 36.6001C73.2002 36.2001 73.2002 35.8001 73.3002 35.5001L73.5002 34.1001C73.7002 33.0001 74.0002 32.1001 74.4002 31.4001C74.8002 30.7001 75.4002 30.3001 76.1002 30.0001C76.8002 29.7001 77.6002 29.6001 78.6002 29.6001C79.2002 29.6001 79.8002 29.6001 80.4002 29.7001C81.0002 29.8001 81.6002 29.9001 82.1002 30.0001C82.2002 30.0001 82.4002 30.1001 82.4002 30.1001C82.5002 30.1001 82.5002 30.2001 82.5002 30.3001C82.5002 30.3001 82.5002 30.3001 82.5002 30.4001C82.5002 30.4001 82.5002 30.4001 82.5002 30.5001L80.9002 39.8001C80.7002 40.7001 80.5002 41.4001 80.2002 41.9001C79.9002 42.4001 79.4002 42.8001 78.8002 43.0001C78.2002 43.4001 77.4002 43.6001 76.4002 43.6001Z" fill="black"/>
<path d="M89.7 33.4001C89.7 32.9001 89.6 32.4001 89.3 32.2001C89 31.9001 88.6 31.8001 88.1 31.8001C87.5 31.8001 87 32.0001 86.6 32.4001C86.2 32.8001 85.9 33.4001 85.7 34.3001L85.4 35.7001C85.4 36.0001 85.3 36.2001 85.3 36.5001C85.3 37.6001 85.8 38.1001 86.9 38.1001C88.2 38.1001 88.9 37.3001 89.2 35.7001L89.5 34.3001C89.7 33.9001 89.7 33.7001 89.7 33.4001ZM92.1 33.2001C92.1 33.5001 92.1 33.8001 92 34.1001L91.7 35.5001C91.1 38.5001 89.5 40.0001 86.6 40.0001C85.8 40.0001 85.2 39.8001 84.6 39.5001C84.1 39.2001 83.6 38.7001 83.4 38.2001C83.1 37.7001 83 37.1001 83 36.4001C83 36.1001 83 35.8001 83.1 35.5001L83.4 34.1001C83.7 32.6001 84.2 31.5001 85.1 30.7001C86 30.0001 87.1 29.6001 88.5 29.6001C89.3 29.6001 90 29.8001 90.5 30.1001C91 30.4001 91.4 30.8001 91.7 31.4001C91.9 32.0001 92.1 32.6001 92.1 33.2001Z" fill="black"/>
<path d="M102.8 27.0002C102.8 27.1002 102.8 27.1002 102.8 27.1002L102.6 28.3002C102.6 28.4002 102.5 28.5002 102.4 28.6002C102.3 28.7002 102.2 28.7002 102.1 28.7002H98.4C97.9 28.7002 97.5 28.8002 97.2 29.0002C97 29.2002 96.8 29.6002 96.7 30.2002L96.4 32.1002H101.3C101.4 32.1002 101.5 32.1002 101.5 32.2002C101.6 32.3002 101.6 32.3002 101.6 32.4002L101.4 33.7002C101.4 33.8002 101.3 33.9002 101.2 34.0002C101.1 34.1002 101 34.1002 100.9 34.1002H96L95.6 36.4002C95.6 36.6002 95.5 36.8002 95.5 37.0002C95.5 37.4002 95.6 37.6002 95.8 37.7002C96 37.8002 96.3 37.9002 96.7 37.9002H100.4C100.6 37.9002 100.7 38.0002 100.7 38.2002V38.3002L100.5 39.5002C100.5 39.7002 100.3 39.8002 100.1 39.9002C100 39.9002 99.8 39.9002 99.6 40.0002C99.4 40.0002 99.1 40.1002 98.7 40.1002C98.3 40.1002 98 40.2002 97.8 40.2002C97.6 40.2002 97.2 40.2002 96.6 40.2002C95.5 40.2002 94.7 40.0002 94 39.5002C93.3 39.0002 93 38.3002 93 37.4002C93 37.1002 93 36.8002 93.1 36.6002L94.2 30.3002C94.3 29.5002 94.6 28.9002 94.8 28.4002C95.1 27.9002 95.4 27.5002 95.8 27.3002C96.2 27.0002 96.6 26.9002 97.1 26.8002C97.6 26.7002 98.2 26.7002 98.9 26.7002C99.9 26.7002 100.6 26.7002 101 26.8002C101.4 26.8002 101.9 26.9002 102.3 27.0002C102.7 26.7002 102.8 26.8002 102.8 27.0002Z" fill="black"/>
<path d="M110 26.5L109.8 27.6C109.8 27.7 109.7 27.8 109.7 27.8C109.6 27.9 109.6 27.9 109.5 27.9H108.7C108.4 27.9 108.2 27.9 108 28C107.8 28.1 107.7 28.2 107.6 28.3C107.5 28.5 107.4 28.7 107.4 29L107.2 29.9H108.9C109.1 29.9 109.2 30 109.2 30.2V30.3L109 31.4C109 31.5 108.9 31.6 108.9 31.6C108.8 31.7 108.7 31.7 108.6 31.7H107L105.5 40.2C105.4 41 105.1 41.6 104.8 42C104.5 42.4 104.1 42.7 103.6 42.8C103.1 42.9 102.6 43 101.9 43C101.6 43 101.3 43 100.8 42.9C100.7 42.9 100.7 42.9 100.6 42.8C100.5 42.8 100.5 42.7 100.5 42.6L100.7 41.5C100.7 41.3 100.8 41.2 101 41.2H101.8C102.2 41.2 102.5 41.1 102.7 41C102.9 40.9 103 40.6 103.1 40.1L104.6 31.6L103 31.3C102.8 31.3 102.7 31.2 102.7 31L102.8 30.2C102.8 30.1 102.9 30 102.9 29.9C103 29.8 103.1 29.8 103.2 29.8H104.8L105 28.9C105.1 28.3 105.3 27.8 105.5 27.4C105.7 27 106 26.7 106.3 26.5C106.6 26.3 106.9 26.2 107.3 26.1C107.7 26 108.1 26 108.7 26C108.9 26 109.3 26 109.8 26.1C109.9 26.1 109.9 26.1 110 26.2C110 26.3 110 26.4 110 26.5Z" fill="black"/>
<path d="M115.2 33.2998C115.2 32.7998 115.1 32.3998 114.8 32.0998C114.5 31.7998 114.1 31.6998 113.6 31.6998C112.3 31.6998 111.5 32.4998 111.3 33.9998H115.1C115.2 33.6998 115.2 33.4998 115.2 33.2998ZM112.4 40.0998C111.8 40.0998 111.3 39.9998 110.8 39.8998C110.3 39.7998 109.9 39.4998 109.6 39.1998C109.3 38.8998 109 38.4998 108.8 38.0998C108.6 37.6998 108.5 37.0998 108.5 36.5998C108.5 36.1998 108.5 35.7998 108.6 35.4998L108.8 34.3998C109.1 32.7998 109.7 31.5998 110.5 30.8998C111.4 30.1998 112.5 29.7998 113.9 29.7998C115.1 29.7998 115.9 30.0998 116.5 30.7998C117.1 31.4998 117.4 32.3998 117.4 33.4998C117.4 33.7998 117.4 34.0998 117.3 34.4998L117.2 35.3998C117.1 35.6998 117 35.8998 116.8 35.8998H111C110.9 36.2998 110.9 36.5998 110.9 36.5998C110.9 37.0998 111.1 37.4998 111.4 37.7998C111.7 38.0998 112.2 38.1998 113 38.1998C113.9 38.1998 115 37.9998 116.2 37.5998C116.2 37.5998 116.3 37.5998 116.4 37.5998C116.5 37.5998 116.6 37.6998 116.6 37.7998V37.8998L116.4 39.0998C116.4 39.1998 116.3 39.2998 116.3 39.3998C116.2 39.4998 116.1 39.4998 115.9 39.5998C115.6 39.6998 115.3 39.7998 114.9 39.8998C114.6 39.9998 114.2 40.0998 113.8 40.0998C113.3 40.0998 112.8 40.0998 112.4 40.0998Z" fill="black"/>
<path d="M121.7 40.1002C121.2 40.1002 120.7 40.0002 120.3 39.9002C119.9 39.7002 119.5 39.5002 119.2 39.2002C118.9 38.9002 118.6 38.5002 118.5 38.1002C118.3 37.7002 118.3 37.2002 118.3 36.7002C118.3 36.5002 118.3 36.1002 118.4 35.8002L118.7 34.1002C118.9 33.0002 119.2 32.2002 119.7 31.5002C120.2 30.9002 120.7 30.4002 121.3 30.1002C121.9 29.8002 122.7 29.7002 123.4 29.7002C124.2 29.7002 125 29.9002 125.7 30.3002C125.9 30.4002 126 30.5002 126 30.7002C126 30.7002 126 30.7002 126 30.8002L125.8 31.9002C125.8 32.1002 125.7 32.2002 125.5 32.2002C125.4 32.2002 125.4 32.2002 125.4 32.2002C124.5 31.9002 123.8 31.8002 123.3 31.8002C122.7 31.8002 122.2 32.0002 121.8 32.3002C121.4 32.6002 121.2 33.3002 121 34.1002L120.7 35.8002C120.6 36.2002 120.6 36.5002 120.6 36.7002C120.6 37.2002 120.7 37.6002 121 37.8002C121.3 38.0002 121.7 38.2002 122.2 38.2002C122.7 38.2002 123.5 38.1002 124.4 37.8002C124.4 37.8002 124.5 37.8002 124.6 37.8002C124.7 37.8002 124.8 37.9002 124.8 38.0002V38.1002L124.6 39.3002C124.6 39.4002 124.5 39.5002 124.5 39.6002C124.4 39.7002 124.3 39.7002 124.2 39.8002C123.9 39.9002 123.5 40.0002 123.1 40.1002C122.6 40.1002 122.2 40.1002 121.7 40.1002Z" fill="black"/>
<path d="M133 30.1001L132.8 31.2001C132.8 31.3001 132.7 31.4001 132.6 31.5001C132.5 31.6001 132.4 31.6001 132.3 31.6001H130.7L129.7 37.2001C129.6 37.5001 129.6 37.7001 129.6 37.8001C129.6 38.0001 129.6 38.1001 129.7 38.1001C129.8 38.2001 129.9 38.2001 130.2 38.2001H131.2C131.4 38.2001 131.5 38.3001 131.5 38.4001V38.5001L131.3 39.6001C131.3 39.8001 131.1 39.9001 130.9 39.9001C130.4 40.0001 130 40.0001 129.7 40.0001C128.9 40.0001 128.3 39.8001 127.9 39.5001C127.5 39.2001 127.3 38.7001 127.3 38.0001C127.3 37.8001 127.3 37.5001 127.4 37.1001L128.4 31.5001L126.7 31.2001C126.5 31.2001 126.4 31.1001 126.4 30.9001V31.0001L126.5 30.2001C126.5 30.1001 126.6 30.0001 126.6 29.9001C126.7 29.8001 126.8 29.8001 126.9 29.8001H128.6L128.9 28.3001C128.9 28.1001 129.1 28.0001 129.3 27.9001L131 27.6001H131.1C131.3 27.6001 131.3 27.7001 131.3 27.8001V28.0001L131 29.9001H132.6C132.7 29.9001 132.8 29.9001 132.8 30.0001C133 30.0001 133 30.0001 133 30.1001Z" fill="black"/>
<path d="M137.2 26.5001L136.9 28.1001C136.9 28.2001 136.8 28.3001 136.8 28.4001C136.7 28.5001 136.6 28.5001 136.5 28.5001H134.8C134.7 28.5001 134.6 28.5001 134.6 28.4001C134.5 28.3001 134.5 28.3001 134.5 28.2001V28.1001L134.8 26.5001C134.8 26.4001 134.9 26.3001 135 26.2001C135.1 26.1001 135.2 26.1001 135.3 26.1001H137C137.1 26.2001 137.2 26.3001 137.2 26.5001ZM136.5 30.1001L134.8 39.6001C134.8 39.7001 134.7 39.8001 134.6 39.9001C134.5 40.0001 134.4 40.0001 134.3 40.0001H132.6C132.5 40.0001 132.4 40.0001 132.4 39.9001C132.3 39.8001 132.3 39.8001 132.3 39.7001V39.6001L134 30.2001C134 30.1001 134.1 30.0001 134.1 29.9001C134.2 29.8001 134.3 29.8001 134.4 29.8001H136.1C136.4 29.8001 136.5 29.9001 136.5 30.1001Z" fill="black"/>
<path d="M146.6 30.1001C146.6 30.2001 146.6 30.2001 146.6 30.3001L142.9 38.5001C142.6 39.1001 142.3 39.5001 141.8 39.8001C141.4 40.1001 140.9 40.2001 140.3 40.2001C139.1 40.2001 138.5 39.6001 138.4 38.5001L137.6 30.3001C137.6 30.2001 137.6 30.1001 137.7 30.0001C137.8 29.9001 137.8 29.9001 137.9 29.9001H139.6C139.8 29.9001 139.9 30.0001 139.9 30.3001L140.3 37.8001C140.3 38.1001 140.4 38.2001 140.6 38.2001C140.7 38.2001 140.9 38.1001 141 37.8001L144.1 30.3001C144.2 30.1001 144.3 29.9001 144.5 29.9001H146.4C146.5 29.8001 146.6 29.9001 146.6 30.1001Z" fill="black"/>
<path d="M152.4 33.4001C152.4 32.9001 152.3 32.4001 152 32.2001C151.7 31.9001 151.3 31.8001 150.8 31.8001C150.2 31.8001 149.7 32.0001 149.3 32.4001C148.9 32.8001 148.6 33.4001 148.4 34.3001L148.1 35.7001C148.1 36.0001 148 36.2001 148 36.5001C148 37.6001 148.5 38.1001 149.6 38.1001C150.9 38.1001 151.6 37.3001 151.9 35.7001L152.2 34.3001C152.4 33.9001 152.4 33.7001 152.4 33.4001ZM154.8 33.2001C154.8 33.5001 154.8 33.8001 154.7 34.1001L154.4 35.5001C153.8 38.5001 152.2 40.0001 149.3 40.0001C148.5 40.0001 147.9 39.8001 147.3 39.5001C146.8 39.2001 146.3 38.7001 146.1 38.2001C145.8 37.7001 145.7 37.1001 145.7 36.4001C145.7 36.1001 145.7 35.8001 145.8 35.5001L146.1 34.1001C146.4 32.6001 146.9 31.5001 147.8 30.7001C148.7 30.0001 149.8 29.6001 151.2 29.6001C152 29.6001 152.7 29.8001 153.2 30.1001C153.7 30.4001 154.1 30.8001 154.4 31.4001C154.6 32.0001 154.8 32.6001 154.8 33.2001Z" fill="black"/>
<path d="M34.5 19.8999C28.7 16.6999 23.5 14.8999 20.6 14.8999C19.8 14.8999 19.1 14.9999 18.7 15.2999C16.2 16.8999 14.6 26.7999 15.2 37.2999C15.7 45.6999 17.3 50.0999 18.7 50.7999C21.2 51.9999 30.1 48.5999 38.9 43.0999C46.3 38.3999 49.6 34.7999 49.6 33.1999C49.7 30.3999 43 24.5999 34.5 19.8999Z" fill="#FFCC00"/>
<path d="M38.8999 43.0998C30.0999 48.5998 21.1999 51.9998 18.6999 50.7998C17.2999 50.0998 15.6999 45.6998 15.1999 37.2998C14.5999 26.7998 16.1999 16.8998 18.6999 15.2998C19.1999 14.9998 19.7999 14.8998 20.5999 14.8998C23.5999 14.8998 28.6999 16.6998 34.4999 19.8998C42.9999 24.5998 49.5999 30.3998 49.5999 33.1998C49.6999 34.7998 46.3999 38.3998 38.8999 43.0998ZM35.1999 18.6998C32.0999 16.9998 21.7999 11.6998 17.8999 14.1998C13.9999 16.6998 13.2999 29.4998 13.7999 37.3998C13.9999 41.2998 14.8999 50.4998 18.0999 51.9998C18.5999 52.2998 19.2999 52.3998 20.0999 52.3998C24.5999 52.3998 32.9999 48.4998 39.6999 44.1998C43.0999 41.9998 51.0999 36.6998 51.0999 33.1998C51.0999 29.1998 42.7999 22.8998 35.1999 18.6998Z" fill="white"/>
<path d="M37.0002 25.9001C35.6002 25.0001 33.6002 24.6001 31.1002 24.6001C28.7002 24.6001 26.6002 24.7001 24.8002 25.0001C24.5002 25.0001 24.2002 25.1001 24.0002 25.3001C23.8002 25.4001 23.7002 25.6001 23.6002 25.9001L23.1002 28.3001H30.0002L30.4002 26.1001L34.9002 31.6001L28.6002 37.0001L29.0002 34.5001H21.8002L19.7002 44.9001V45.0001C19.7002 45.1001 19.7002 45.2001 19.8002 45.3001C19.9002 45.4001 20.0002 45.4001 20.2002 45.4001H23.4002C23.6002 45.4001 23.7002 45.3001 23.9002 45.2001C24.0002 45.1001 24.1002 45.0001 24.2002 44.8001L25.7002 38.6001C25.8002 38.6001 26.0002 38.6001 26.2002 38.6001C26.4002 38.6001 26.7002 38.6001 26.9002 38.6001C27.2002 38.6001 27.4002 38.6001 27.7002 38.6001C28.0002 38.6001 28.2002 38.6001 28.4002 38.6001C30.2002 38.6001 31.7002 38.3001 33.1002 38.0001C37.4002 37.1001 39.0002 32.8001 39.0002 29.5001C39.1002 28.0001 38.4002 26.8001 37.0002 25.9001Z" fill="black"/>
</svg>
