<svg width="170" height="25" viewBox="0 0 170 25" fill="none" xmlns="http://www.w3.org/2000/svg">
<g clip-path="url(#clip0_517_30)">
<path d="M41.3599 7.35986C36.6599 7.35986 32.9199 11.0999 32.9199 15.7999C32.9199 20.4999 36.7799 24.2399 41.3599 24.2399C45.9399 24.2399 49.7999 20.4999 49.7999 15.7999C49.7999 11.0999 46.0599 7.35986 41.3599 7.35986ZM41.3599 19.5399C39.3099 19.5399 37.7399 17.8499 37.7399 15.7999C37.7399 13.7499 39.4299 12.1799 41.4799 12.1799C43.5299 12.1799 45.0999 13.8699 45.0999 15.9199C45.0999 16.8899 44.7299 17.8499 44.0099 18.5699C43.4099 19.0499 42.4499 19.5399 41.3599 19.5399Z" fill="#FF031D"/>
<path d="M60.54 7.8299H58.24V2.8999H53.3V7.8499H51V12.4299H53.3V23.8899H58.25V12.4299H60.55V7.8299H60.54Z" fill="#FF031D"/>
<path d="M62.8301 7.83008H67.7801V23.7501H62.8301V7.83008Z" fill="#FF031D"/>
<path d="M65.2399 0C64.0299 0 63.0599 0.72 62.7099 1.69C62.3399 2.78 62.5899 3.99 63.3099 4.83C64.1499 5.67 65.3599 5.92 66.4499 5.43C67.5399 5.06 68.1399 3.99 68.1399 2.9C68.1399 1.34 66.8199 0 65.2399 0Z" fill="#FF031D"/>
<path d="M137.12 12.0601C138.81 12.0601 140.14 13.3901 140.14 15.0801V23.7701H145.09V14.3601C145.09 10.1401 142.68 7.37012 138.82 7.37012C137.26 7.37012 135.57 8.09012 134.12 10.2701V7.73012H129.17V23.6501H134.12V14.9601C134.12 14.1201 134.49 13.4001 135.09 12.7801C135.57 12.3001 136.41 12.0601 137.13 12.0601H137.12Z" fill="#FF031D"/>
<path d="M163.42 23.76L157.27 15.8L163.06 7.83998H157.27L152.69 14.35V0.47998H147.74V23.76H152.69V17.25L157.75 23.76H163.42Z" fill="#FF031D"/>
<path d="M15.8 19.4199C16.17 18.4499 16.4 17.4899 16.4 16.5199C16.4 15.0799 15.92 13.6199 14.96 12.4099C13.87 11.1999 12.06 10.2299 9.53 9.50986C9.05 9.38986 8.56 9.13986 8.09 9.02986C7.72 8.90986 7.36 8.54986 7 8.30986C6.63 7.93986 6.51 7.46986 6.51 6.97986C6.51 6.25986 6.88 5.64986 7.48 5.28986C8.69 4.68986 10.25 4.68986 11.46 5.28986C12.06 5.40986 12.55 5.76986 13.02 6.00986L15.2 1.80986C14.23 1.20986 13.15 0.719863 12.06 0.479863C10.97 0.239863 9.76 0.109863 8.69 0.109863C7.62 0.109863 6.51 0.229863 5.55 0.589863C4.58 0.959863 3.86 1.55986 3.14 2.14986C2.42 2.89986 1.93 3.73986 1.45 4.69986C1.08 5.66986 0.96 6.62986 0.96 7.59986C1.08 9.15986 1.68 10.7399 2.89 11.8199C3.98 12.7899 5.3 13.5099 6.63 13.8699C7.35 14.1099 8.07 14.3499 8.44 14.5899C8.92 14.7099 9.41 14.9599 9.77 15.3099C10.14 15.5499 10.37 15.7899 10.49 16.1499C10.61 16.5199 10.61 16.8699 10.61 17.1199C10.49 17.5999 10.24 18.0899 9.89 18.5599C9.17 19.0399 8.45 19.2799 7.59 19.2799C6.62 19.2799 5.66 19.0399 4.82 18.5599C4.1 18.1899 3.38 17.8399 2.52 17.3499L0 21.8099C2.05 23.4999 4.46 24.3399 7.11 24.3399C8.32 24.3399 9.64 24.2199 10.85 23.7399C11.94 23.3699 12.9 22.7699 13.62 22.1799C14.83 21.2299 15.43 20.3799 15.8 19.4199Z" fill="#FF031D"/>
<path d="M166.91 18.21C165.7 18.21 164.73 18.93 164.38 19.9C164.01 20.99 164.26 22.2 164.98 23.04C165.7 23.88 167.03 24.13 168.12 23.64C169.21 23.27 169.81 22.2 169.81 21.11C169.69 19.42 168.48 18.21 166.91 18.21ZM166.91 23.16C165.94 23.16 165.22 22.68 164.86 21.72C164.49 20.88 164.74 19.91 165.34 19.31C166.06 18.59 166.9 18.47 167.75 18.83C168.59 19.2 169.19 20.04 169.19 20.88C169.19 21.48 168.95 22.09 168.47 22.44C168.01 23.03 167.39 23.15 166.92 23.15L166.91 23.16Z" fill="#FF031D"/>
<path d="M166.91 21.4699H166.54V22.5599H165.94V19.4199H167.15C167.75 19.4199 168.12 19.7899 168.12 20.3899C168.12 20.7599 167.88 21.1099 167.52 21.3599L168.24 22.5699H167.52L166.91 21.4799V21.4699ZM166.42 20.8599H167.14C167.38 20.8599 167.62 20.6199 167.62 20.3799C167.62 20.1399 167.38 19.8999 167.14 19.8999H166.42V20.8499V20.8599Z" fill="#FF031D"/>
<path d="M29.5501 18.0898C28.3401 19.6498 25.9301 19.8998 24.3701 18.6898C22.8101 17.4798 22.5601 15.0698 23.7701 13.5098C24.9801 11.9498 27.3901 11.6998 28.9501 12.9098C29.1901 13.0298 29.3201 13.2798 29.5501 13.5098L32.9201 10.1398C31.3601 8.4498 29.0601 7.3698 26.7701 7.3698C22.0701 7.2498 18.0801 10.6198 18.0801 15.6898C18.0801 20.7598 22.1901 24.1298 26.7701 24.1298C29.0701 24.1298 31.3501 23.1598 33.0401 21.3598L29.5501 18.0998V18.0898Z" fill="#FF031D"/>
<path d="M87.4303 23.76V7.82998H82.4803V9.51998L82.0003 9.14998C80.7903 8.06998 79.3503 7.47998 77.7803 7.47998C73.4403 7.47998 69.8203 11.34 69.8203 15.92C69.8203 20.5 73.4403 24.36 77.7803 24.36C79.3403 24.36 80.9203 23.76 82.0003 22.67L82.4803 22.3V23.99H87.4303V23.75V23.76ZM78.6303 19.54C76.5803 19.54 74.8903 17.85 74.8903 15.68C74.8903 13.63 76.5803 11.94 78.7503 11.94C80.8003 11.94 82.4903 13.63 82.4903 15.8C82.4903 16.77 82.1203 17.85 81.4003 18.45C80.5603 19.17 79.7103 19.54 78.6303 19.54Z" fill="#FF031D"/>
<path d="M126.74 23.76V7.82996H121.79V9.51996L121.31 9.14996C120.1 8.05996 118.66 7.45996 117.09 7.45996C112.75 7.45996 109.13 11.32 109.13 15.9C109.13 20.48 112.75 24.34 117.09 24.34C118.65 24.34 120.23 23.74 121.31 22.65L121.79 22.28V23.97H126.74V23.74V23.76ZM117.94 19.54C115.89 19.54 114.08 17.85 114.08 15.8C114.08 13.75 115.77 11.94 117.82 11.94C119.87 11.94 121.56 13.63 121.56 15.68C121.8 17.86 120 19.54 117.94 19.54Z" fill="#FF031D"/>
<path d="M94.91 23.7601V22.0701L95.28 22.4401C96.49 23.5301 97.93 24.1301 99.5 24.1301C103.84 24.1301 107.46 20.2701 107.46 15.6901C107.46 11.1101 103.84 7.25012 99.5 7.25012C97.94 7.25012 96.36 7.85012 95.28 8.94012L94.91 9.31012V0.370117H89.96V23.7701H94.91V23.7601ZM94.91 15.7901C94.91 14.3501 95.88 12.8901 97.21 12.3001C98.65 11.7001 100.35 12.0601 101.32 13.1401C102.41 14.2301 102.76 15.9101 102.16 17.2501C101.56 18.6901 100.11 19.5501 98.67 19.5501C96.73 19.5401 94.92 17.8501 94.92 15.8001L94.91 15.7901Z" fill="#FF031D"/>
</g>
<defs>
<clipPath id="clip0_517_30">
<rect width="169.81" height="24.37" fill="white"/>
</clipPath>
</defs>
</svg>
