<svg width="46" height="45" viewBox="0 0 46 45" fill="none" xmlns="http://www.w3.org/2000/svg">
<path d="M39.875 0.0585938C38.3516 0.0585938 37.043 0.605469 35.9492 1.69922L16.9648 20.625L15.5586 27.7734L14.9727 30.5273L17.7266 29.9414L24.875 28.5352L43.8008 9.55078C44.8945 8.45703 45.4414 7.14844 45.4414 5.625C45.4414 4.10156 44.8945 2.79297 43.8008 1.69922C42.707 0.605469 41.3984 0.0585938 39.875 0.0585938ZM39.875 3.69141C40.3047 3.69141 40.7344 3.90625 41.1641 4.33594C41.5938 4.76563 41.8086 5.19531 41.8086 5.625C41.8086 6.05469 41.5938 6.48437 41.1641 6.91406L23 25.0781L19.7773 25.7227L20.4219 22.5L38.5859 4.33594C39.0156 3.90625 39.4453 3.69141 39.875 3.69141ZM0.5 7.5V45H38V20.2734L34.25 24.0234V41.25H4.25V11.25H21.4766L25.2266 7.5H0.5Z" fill="#F3744A"/>
</svg>
