<svg id="Capa_1" data-name="Capa 1" xmlns="http://www.w3.org/2000/svg" viewBox="0 0 355.52 228.31"><title>error-404</title><path d="M58,189.2h54V103c0-3.21,1.15-4.59,4.37-4.59h14c3,0,4.13,1.38,4.13,4.59V250.1c0,3.22-1.14,4.6-4.13,4.6h-14c-3.22,0-4.37-1.38-4.37-4.6V208.28H39.11c-3,0-4.36-1.15-4.36-4.37v-9.65a15,15,0,0,1,.92-4.83L65.08,103c.92-3,2.3-4.59,5.29-4.59h14c3.21,0,4.13,1.84,3.21,4.59Z" transform="translate(-34.75 -32.33)" style="fill:#53565a"/><path d="M166.89,132c0-18.84,11.49-35.39,49.87-35.39s50.09,16.55,50.09,35.39v89.17c0,18.84-11.72,35.39-50.09,35.39S166.89,240,166.89,221.15Zm77.44,3.68c0-12.41-7.12-20-27.57-20s-27.35,7.59-27.35,20v81.81c0,12.41,6.89,20,27.35,20s27.57-7.59,27.57-20Z" transform="translate(-34.75 -32.33)" style="fill:#53565a"/><path d="M313.73,189.2h54V103c0-3.21,1.15-4.59,4.37-4.59h14c3,0,4.14,1.38,4.14,4.59V250.1c0,3.22-1.15,4.6-4.14,4.6h-14c-3.22,0-4.37-1.38-4.37-4.6V208.28H294.89c-3,0-4.37-1.15-4.37-4.37v-9.65a15,15,0,0,1,.92-4.83L320.86,103c.92-3,2.3-4.59,5.28-4.59h14c3.22,0,4.14,1.84,3.22,4.59Z" transform="translate(-34.75 -32.33)" style="fill:#53565a"/><path d="M236.76,154.86l-24,7.38,4.8,15.64,6.93-2.13,7.33,23.83-42.37,13v4.87c0,6.18,1.71,11.16,5.94,14.6l42.41-13,7.32,23.83L238.15,245,243,260.64l24-7.39Z" transform="translate(-34.75 -32.33)" style="fill:#f4633a"/><path d="M171.69,239.35a33.58,33.58,0,0,1-4.8-18.2v-1.63l-7.35,2.25-2.18-7.1-15.23,4.68L152.48,253l15.23-4.68-2.19-7.11Z" transform="translate(-34.75 -32.33)" style="fill:#f4633a"/><path d="M282.47,54.18c0,11.48-7.08,20.07-18.46,20.07-10.95,0-17.88-7.35-17.88-18.78,0-11.92,7.62-20.08,18.95-20.08C275.66,35.39,282.47,42.37,282.47,54.18Zm-18.25,15c7.46,0,11.6-5.75,11.6-14.71S272,40.44,264.65,40.44c-6.92,0-11.86,5.2-11.86,14.76C252.79,63.57,257.19,69.21,264.22,69.21Z" transform="translate(-34.75 -32.33)" style="fill:#53565a"/><path d="M314.73,59.81c0,8.32-5.26,14.44-14.38,14.44s-13.91-5.9-13.91-14c0-9.07,6.12-15.19,14.61-15.19C310,45.05,314.73,51.28,314.73,59.81Zm-14.22,9.4c4.94,0,7.89-3.81,7.89-10,0-5.64-2.79-9.07-7.51-9.07-4.94,0-8.11,3.76-8.11,9.93C292.78,65.18,295.57,69.21,300.51,69.21Z" transform="translate(-34.75 -32.33)" style="fill:#53565a"/><path d="M348.07,58.31c0,9.61-5.85,15.94-15,15.94a15.4,15.4,0,0,1-5.53-.91l-.11,9.34h4.46v4.4H318.49v-4.4h3.12l.21-32.58H317.9V45.7h9.61a29.36,29.36,0,0,1-.54,5.69h.11a9.31,9.31,0,0,1,9.29-6.34C343.35,45.05,348.07,50.31,348.07,58.31Zm-20.35,10A10.33,10.33,0,0,0,333,69.53c5.31,0,8.69-4.51,8.69-10.31,0-5.63-2.57-9.12-6.81-9.12-4.78,0-7.2,4-7.2,10.2Z" transform="translate(-34.75 -32.33)" style="fill:#53565a"/><path d="M374.26,46.88l.11,6.81H369l-.1-3.32a8.73,8.73,0,0,0-4.57-.92c-3.86,0-5.63,1.18-5.63,3.39s1.39,2.68,6.38,3.7c3.23.64,7.2,1.13,9,3.17A7.29,7.29,0,0,1,375.82,65c0,6.06-4.45,9.28-12.56,9.28a31,31,0,0,1-10.09-1.66L353.06,65h5.37l.11,3.7a15.26,15.26,0,0,0,5.9,1.13c3.49,0,5.69-1.39,5.69-3.92,0-2.25-1.66-3.27-5.1-3.75-6.39-.92-12.34-2.21-12.34-8.32,0-5.59,4.4-8.81,11.86-8.81C367.66,45.05,369.92,45.48,374.26,46.88Z" transform="translate(-34.75 -32.33)" style="fill:#53565a"/><path d="M390.26,70.28a4.14,4.14,0,1,1-4.13-4.13A4.09,4.09,0,0,1,390.26,70.28Zm-.64-37.95L389,61.21h-5.69l-.64-28.88Z" transform="translate(-34.75 -32.33)" style="fill:#53565a"/></svg>