<svg id="Capa_1" data-name="Capa 1" xmlns="http://www.w3.org/2000/svg" viewBox="0 0 16.5 22"><title>marca-mapa</title><path d="M10.14,21.57Q9,19.94,7.26,17.45C5.83,15.38,4.88,14,4.43,13.28a12.19,12.19,0,0,1-1.34-2.6,7.79,7.79,0,0,1-.34-2.43A7.9,7.9,0,0,1,3.87,4.13a8.2,8.2,0,0,1,3-3A7.9,7.9,0,0,1,11,0a7.9,7.9,0,0,1,4.12,1.12,8.2,8.2,0,0,1,3,3,7.9,7.9,0,0,1,1.12,4.12,7.79,7.79,0,0,1-.34,2.43,12.19,12.19,0,0,1-1.34,2.6c-.45.71-1.4,2.1-2.83,4.17l-2.88,4.12a1.08,1.08,0,0,1-1.72,0Z" transform="translate(-2.75)" style="fill:#df633a"/><polygon points="3.84 5 3.84 7.21 5.24 7.21 5.24 6.58 7.38 6.58 7.38 13.22 6.74 13.22 6.74 14.62 9.76 14.62 9.76 13.22 9.12 13.22 9.12 6.58 11.26 6.58 11.26 7.21 12.66 7.21 12.66 5 3.84 5" style="fill:#fff"/></svg>