<svg width="167" height="53" viewBox="0 0 167 53" fill="none" xmlns="http://www.w3.org/2000/svg">
<g clip-path="url(#clip0_934_264)">
<path d="M40.7369 11.4686C44.4447 11.5174 44.4447 5.80747 40.7369 5.85627C37.0291 5.80747 37.0291 11.5174 40.7369 11.4686Z" fill="white"/>
<path d="M52.0574 27.9152C51.6619 27.9152 51.3159 27.5736 51.3159 27.1831V3.5625H46.7182V28.208C46.6687 32.0146 51.0687 31.9658 53.8372 31.7706V27.9152H52.0574Z" fill="white"/>
<path d="M0 5.27051V11.2733H3.90557V9.71158H9.88751V27.9151H8.10776V31.7705H16.5616V27.9151H14.7818V9.71158H20.7143V11.2733H24.6199V5.27051H0Z" fill="white"/>
<path d="M43.06 27.9153V14.2017H33.123V18.1059H38.4623V27.9153H33.123V31.7707H44.9386V27.9153H43.06Z" fill="white"/>
<path d="M20.7146 14.2017V27.9153H18.8359V31.7707H30.7998V27.9153H25.3617V18.1059H30.7998V14.2017C28.8223 14.2017 22.6426 14.2505 20.7146 14.2017Z" fill="white"/>
<path d="M76.5295 21.2291C76.7767 16.5928 85.3788 16.0559 85.0328 21.2291H76.5295ZM88.444 17.7641C85.8732 12.9814 78.3587 13.0302 74.6509 16.2512C70.9431 20.3018 70.3498 26.695 75.8868 30.5016C77.0239 31.9169 85.9226 31.8681 86.9608 31.6241V27.8663C84.2912 28.0615 77.4194 28.3055 76.925 24.4501H89.1361C89.4327 22.7908 89.2844 19.3746 88.444 17.7641Z" fill="white"/>
<path d="M70.2015 21.3268C70.0532 14.7872 71.6846 14.6896 63.9724 14.0063C52.2062 13.0303 50.5254 32.161 63.2308 31.7706H68.9161V27.9152H64.5162C55.4197 27.8176 58.5343 15.6168 66.3454 18.1546V21.278H70.2015V21.3268Z" fill="white"/>
<path d="M14.2384 47.3389C14.7327 50.1207 7.61374 50.1207 8.10812 47.3389C8.55306 44.85 6.47668 40.2625 11.1732 40.4577C13.9417 40.5065 14.3372 41.629 14.2384 43.1907C14.2384 43.4347 14.1395 43.5323 13.9417 43.5323C13.6451 43.4347 12.4586 43.7763 12.5081 43.1907C13.0024 41.629 9.73956 41.4338 9.83843 42.8978V47.0461C9.64068 48.3638 12.6564 48.315 12.5081 47.0461C12.5575 46.7533 12.3597 46.1676 12.8541 46.2164C13.9912 46.2652 14.3867 45.9724 14.2384 47.3389Z" fill="white"/>
<path d="M20.7633 42.8977C20.9116 41.6288 17.7971 41.58 17.9454 42.8977V47.0459C17.7971 48.3636 20.9116 48.3148 20.7633 47.0459V42.8977ZM16.2151 42.5561C15.7701 39.7743 22.988 39.7743 22.5925 42.5561V47.3387C23.0375 50.1205 15.8196 50.1205 16.2151 47.3387V42.5561Z" fill="white"/>
<path d="M26.6963 47.9244C26.9435 48.0708 30.1075 47.5828 29.9592 48.2172C29.9097 48.5101 30.1569 49.4373 29.6131 49.3397C29.4153 49.1933 24.6199 49.7301 24.9165 48.9981V40.8968C24.8177 40.3112 26.103 40.6528 26.3502 40.5552C26.5974 40.5552 26.6468 40.6528 26.6468 40.8968V47.9244H26.6963Z" fill="white"/>
<path d="M32.1345 49.3395C31.8873 49.3395 31.8379 49.2419 31.8379 48.9979V40.8966C31.8379 40.6526 31.9368 40.5549 32.1345 40.5549C32.3323 40.7014 37.1771 40.2133 36.93 40.8478C36.8805 41.1406 37.1277 42.0678 36.5839 41.9702H33.5682V44.0688C33.8648 44.2152 36.8311 43.7271 36.7322 44.3616C36.6828 44.6544 36.93 45.5328 36.3861 45.4352H33.5682V47.8266C33.8648 47.973 37.2266 47.485 37.0288 48.1194C36.9794 48.4122 37.2266 49.3395 36.6828 49.2419H32.1345" fill="white"/>
<path d="M44.8401 44.7522C45.4828 44.6058 45.0378 47.0947 45.1861 47.3387C45.6805 50.1205 38.5615 50.1205 39.0559 47.3387V42.556C38.8087 39.1398 47.0648 40.1647 44.8895 43.3857C42.2693 43.7273 44.5434 41.9216 42.121 41.8728C39.8469 41.5312 41.0828 45.9235 40.7862 46.9971C40.5884 48.3148 43.6041 48.266 43.4558 46.9971V46.1187C42.3188 46.0699 41.6266 46.5579 41.8244 44.9962C41.6761 44.4106 44.5434 44.8986 44.8401 44.7522Z" fill="white"/>
<path d="M49.1908 48.9981C49.2897 49.5837 48.0043 49.2421 47.7571 49.3397C47.5099 49.3397 47.4605 49.2421 47.4605 48.9981V40.8968C47.3616 40.3112 48.647 40.6528 48.8942 40.5552C49.1414 40.5552 49.1908 40.6528 49.1908 40.8968V48.9981Z" fill="white"/>
<path d="M56.1116 42.8977C56.2599 41.6288 53.1453 41.58 53.2937 42.8977V47.0459C53.1453 48.3636 56.2599 48.3148 56.1116 47.0459V42.8977ZM51.5139 42.5561C51.069 39.7743 58.2869 39.7743 57.8914 42.5561V47.3387C58.3363 50.1205 51.1184 50.1205 51.5139 47.3387V42.5561Z" fill="white"/>
<path d="M105.351 11.5176H105.055V35.2358H105.351V11.5176Z" fill="white"/>
<path d="M162.502 16.9346C159.486 14.0064 155.877 12.4936 151.625 12.4936C148.313 12.4936 145.347 13.4208 142.825 15.2265L146.484 1.6105H166.061V0H145.297L140.452 17.7643L141.787 18.1059H142.084V17.9595C144.704 15.4217 147.917 14.1041 151.675 14.1041C155.432 14.1041 158.695 15.4217 161.364 18.0571C164.034 20.6924 165.369 23.9134 165.369 27.6225C165.369 31.3315 164.034 34.5525 161.364 37.1878C158.695 39.8232 155.432 41.1409 151.675 41.1409C147.917 41.1409 144.655 39.8232 141.985 37.139C141.441 36.651 140.996 36.1142 140.601 35.5774L140.502 35.4309L139.167 36.407L139.266 36.5534C139.711 37.139 140.205 37.7735 140.798 38.3103C143.765 41.2385 147.423 42.7514 151.675 42.7514C155.877 42.7514 159.535 41.2385 162.551 38.3103C165.517 35.3821 167.05 31.7707 167.05 27.5737C167 23.4742 165.468 19.8628 162.502 16.9346Z" fill="white"/>
<path d="M137.436 25.4754V2.34277H136.151V25.4754H122.605L131.158 2.34277H129.774L121.221 25.4754H121.122V26.7442H136.151V33.235H137.436V26.7442H143.072V25.4754H137.436Z" fill="white"/>
<path d="M144.358 51.9266H140.403L140.007 52.8051H139.414L142.183 46.9487H142.628L145.396 52.8051H144.803L144.358 51.9266ZM144.111 51.3898L142.38 47.7296L140.65 51.3898H144.111Z" fill="white"/>
<path d="M146.138 46.9485H146.533L150.29 51.7312V46.9485H150.834V52.8048H150.439L146.731 48.0222V52.8048H146.187V46.9485H146.138ZM149.846 45.582V46.1188C149.598 46.2164 149.351 46.2652 149.153 46.2652C148.956 46.2652 148.758 46.2164 148.511 46.1676C148.313 46.1188 148.066 46.07 147.868 46.07C147.67 46.07 147.423 46.1188 147.176 46.2164V45.6796C147.423 45.582 147.67 45.5332 147.868 45.5332C148.115 45.5332 148.313 45.582 148.56 45.6308C148.758 45.6796 148.956 45.7284 149.153 45.7284C149.351 45.7284 149.549 45.6796 149.846 45.582Z" fill="white"/>
<path d="M158.2 49.8768C158.2 50.7553 157.903 51.4873 157.261 52.0729C156.668 52.6586 155.926 53.0002 155.036 53.0002C154.146 53.0002 153.405 52.7074 152.811 52.0729C152.218 51.4873 151.872 50.7553 151.872 49.8768C151.872 48.9984 152.169 48.2663 152.811 47.6807C153.405 47.095 154.146 46.7534 155.036 46.7534C155.926 46.7534 156.668 47.0462 157.261 47.6807C157.903 48.3151 158.2 49.0472 158.2 49.8768ZM155.036 47.2902C154.295 47.2902 153.701 47.5343 153.207 48.0223C152.712 48.5103 152.465 49.1448 152.465 49.828C152.465 50.56 152.712 51.1457 153.207 51.6337C153.701 52.1217 154.344 52.3658 155.036 52.3658C155.778 52.3658 156.371 52.1217 156.865 51.6337C157.36 51.1457 157.607 50.5112 157.607 49.828C157.607 49.096 157.36 48.5103 156.865 48.0223C156.371 47.5831 155.778 47.2902 155.036 47.2902Z" fill="white"/>
<path d="M162.6 47.9735C162.451 47.7783 162.204 47.6319 161.957 47.5343C161.66 47.3879 161.364 47.3391 161.067 47.3391C160.622 47.3391 160.276 47.4367 160.029 47.6319C159.782 47.8271 159.634 48.0711 159.634 48.3639C159.634 48.6079 159.732 48.8519 159.93 49.0472C160.128 49.2424 160.326 49.3888 160.622 49.4864L162.105 49.8768C162.451 49.9744 162.748 50.1696 162.995 50.4136C163.242 50.6577 163.341 50.9993 163.341 51.3897C163.341 51.8289 163.144 52.2193 162.798 52.5122C162.402 52.8538 161.908 53.0002 161.265 53.0002C160.721 53.0002 160.276 52.9026 159.881 52.6586C159.485 52.4146 159.189 52.1217 158.941 51.7801L159.386 51.4873C159.584 51.8289 159.881 52.0729 160.227 52.2193C160.573 52.4146 160.919 52.4634 161.265 52.4634C161.809 52.4634 162.204 52.3658 162.451 52.1217C162.699 51.8777 162.847 51.6337 162.847 51.3409C162.847 51.0969 162.748 50.9017 162.6 50.7065C162.451 50.5112 162.204 50.4136 161.957 50.316L160.573 49.9256C160.177 49.7792 159.831 49.584 159.584 49.34C159.337 49.0472 159.189 48.7543 159.189 48.3639C159.189 47.9247 159.386 47.5831 159.732 47.2414C160.078 46.9486 160.573 46.7534 161.166 46.7534C161.611 46.7534 162.007 46.851 162.353 46.9974C162.699 47.1438 162.995 47.3879 163.193 47.6319L162.6 47.9735Z" fill="white"/>
</g>
<defs>
<clipPath id="clip0_934_264">
<rect width="167" height="53" fill="white"/>
</clipPath>
</defs>
</svg>
