<?xml version="1.0" encoding="utf-8"?>
<!-- Generator: Adobe Illustrator 22.0.1, SVG Export Plug-In . SVG Version: 6.00 Build 0)  -->
<svg version="1.1" id="Capa_1" xmlns="http://www.w3.org/2000/svg" xmlns:xlink="http://www.w3.org/1999/xlink" x="0px" y="0px"
	 viewBox="0 0 265.5 82.8" style="enable-background:new 0 0 265.5 82.8;" xml:space="preserve">
<style type="text/css">
	.st0{fill:#FFFFFF;stroke:#FFFFFF;stroke-miterlimit:10;}
</style>
<g>
	<g>
		<path class="st0" d="M5.2,36.1l-0.1-4.2c0-4,0.5-6,1.6-6c0.6,0,1.2,0.7,1.7,2.2c0.5,1.4,0.8,3.2,0.8,5.4L8.8,48l0.4,28.9
			c0,0.9-0.4,1.7-1.2,2.4c-0.8,0.7-1.5,1-2.3,1c-0.8,0-1.4-0.2-1.8-0.6c-0.4-0.4-0.6-0.9-0.6-1.5c0-4.7,0.3-11.7,0.9-21.1
			C4.9,47.8,5.2,40.8,5.2,36.1z M4,13.8c0-2.1,1.4-3.1,4.3-3.1c0.7,0,1.3,0.3,2,0.9c0.6,0.6,1,1.4,1,2.5c0,1-0.4,1.9-1.1,2.8
			c-0.7,0.8-1.6,1.2-2.7,1.2c-1.1,0-1.9-0.4-2.6-1.2C4.3,16,4,15,4,13.8z"/>
		<path class="st0" d="M43.6,37.6l0.2,1.8c0,4.2-1.1,9.1-3.3,14.7c-2.5,6.5-5.5,11-8.9,13.7c-2,1.5-4,2.3-6,2.4
			c-1.1,0-2.1-0.3-3-0.8c-0.9-0.5-1.3-1.3-1.3-2.3c1.3-1.3,1.9-4.8,1.9-10.4c0-3.3-0.3-8.1-0.8-14.6c-0.5-6.5-0.8-11.3-0.8-14.5
			l0.3-9.6c0-1.5-0.3-3.6-1-6.3c-0.6-2.6-1-4.5-1-5.6c0-2,2.3-3.1,6.8-3.1h1.3c6,0,10.3,3.4,13,10.1c1.9,4.7,2.8,11.1,2.8,19.4v4.1
			C43.6,37,43.6,37.3,43.6,37.6z M27.3,56.7v8.4c2.2-1.4,4.1-3.4,5.8-6c1.6-2.6,2.9-5.4,3.7-8.4c1.6-5.8,2.4-11.6,2.4-17.4
			c0-6.7-0.8-11.9-2.5-15.7c-1.7-4-3.8-6.6-6.3-7.8c-1.5-0.8-3.3-1.2-5.2-1.2v0.1c0,5.3,0.4,13.3,1.1,24
			C27,43.3,27.3,51.3,27.3,56.7z"/>
		<path class="st0" d="M70.6,70c-1.8,0-2.7-0.8-2.7-2.3V56.2c-0.8-0.6-2.3-1.1-4.5-1.5c-2.2-0.4-4.1-0.7-5.8-0.8
			c-0.6,1-1.1,2.5-1.5,4.5s-0.8,3.9-1.2,5.9c-0.4,2-1,3.5-1.7,4.7c-2.3,0-3.6-0.6-3.9-1.8c0.8-1.1,2.1-7,3.9-17.6
			c1.8-10.6,3.3-18.9,4.5-24.8c1.2-6,2.4-11,3.8-15.1c1.3-4.1,2.6-6.1,3.9-6.1c1.2,0,2.2,0.3,2.8,0.8c0,2.1,0.6,7.8,1.7,17
			s1.7,15.2,1.7,17.9c0,2.7,0.3,7.2,0.9,13.5c0.6,6.3,0.9,11,0.9,14.2C73.6,69,72.6,70,70.6,70z M66.9,41.2
			c-0.5-5.2-1-10.2-1.4-14.9c-0.4-4.7-0.6-7.6-0.6-8.6s0-1.6,0-1.7c-0.9,0.9-2.2,6.2-4,15.8s-2.7,15.6-2.8,18.2c2.4,0.7,4.5,1,6.1,1
			c1.6,0,2.8-0.1,3.5-0.3C67.7,49.6,67.4,46.4,66.9,41.2z"/>
		<path class="st0" d="M88.8,36.7l0.1,2.8v0.4c0.2,5.1,0.3,12.8,0.3,23v2.2h6.7c1.3,0.9,1.9,1.7,1.9,2.5c0,0.8-0.2,1.4-0.6,1.9
			c-0.4,0.5-0.9,0.8-1.3,0.8c-0.5,0-1-0.1-1.6-0.3c-0.5,0.1-1,0.2-1.7,0.2l-2.8-0.1c-0.6,0.7-1.4,1.1-2.3,1.1
			c-0.9,0-1.7-0.3-2.3-0.8c-0.6-0.6-0.9-1.2-0.9-2l0.6-3.9c0-6.7-0.3-16.7-0.9-30c-0.6-13.3-0.9-23.4-0.9-30c0-0.5,0.2-1,0.6-1.3
			c0.4-0.3,1-0.5,1.6-0.5s1.2,0.2,1.8,0.7c0.5,0.5,0.8,1.1,0.8,1.8L88.8,36.7z"/>
		<path class="st0" d="M116.1,37.8l-2.2-0.1c-0.9,0-1.5,0.2-1.8,0.6v27.2c3-0.2,4.6-0.3,4.9-0.3c3.4,0,5,0.8,5,2.3v0.3
			c-0.4,0.8-1.1,1.4-2.1,1.8c-1,0.4-1.8,0.7-2.6,0.7c-0.7,0.1-1.7,0.1-2.9,0.1h-2.8c-2.2,0-3.5-0.4-4-1.3c-0.2-0.4-0.3-0.9-0.3-1.6
			V16.5c0-1-0.2-2.5-0.6-4.5c-0.4-2-0.6-3.5-0.6-4.5V7.2c1-1.6,1.7-2.6,2.2-3.1l6.5-0.8c0.9,0,1.8,0.3,2.7,0.8
			c0.9,0.5,1.4,1.2,1.4,2.1c0,1.7-1.3,2.6-4,2.6l-2.5-0.1c-0.4,0-0.7,0-0.9,0l0.7,14.5c0,1.2-0.1,2.9-0.2,5.1
			c-0.1,2.3-0.2,3.9-0.2,4.9c0.3-0.1,0.7-0.2,1.3-0.3c1.2-0.3,2.1-0.5,2.8-0.5c0.7,0,1.3,0.2,1.8,0.7c0.5,0.5,0.8,1.1,0.8,1.8
			s-0.2,1.3-0.6,1.8C117.3,37.5,116.8,37.8,116.1,37.8z"/>
		<path class="st0" d="M149.5,27.1l-0.8,6.2v2.1c0,6.8,0.2,11.3,0.5,13.5s0.6,4.2,0.9,5.9c0.3,1.7,0.7,3.2,1.2,4.5s1.1,2.4,1.8,3.5
			c1.4,2.2,3.3,3.3,5.7,3.3c1,0,2.3-0.5,3.7-1.6c1.5-1,2.6-1.6,3.4-1.6s1.6,0.4,2.5,1.3c0,3-1.7,5.1-5,6.3c-1.7,0.6-3.5,0.9-5.4,0.9
			c-2,0-3.6-0.4-5-1.2c-1.4-0.8-2.5-1.8-3.4-3.1s-1.7-2.8-2.4-4.8c-0.7-2-1.2-3.9-1.6-5.8c-0.3-2-0.6-4.2-0.9-6.7
			c-0.3-4.2-0.5-8.9-0.6-13.9l0.1-10.5c0-3.4,0.2-6.1,0.6-8.1c-0.2-0.9-0.3-1.9-0.3-2.8c0-3.6,1.3-6.5,4-8.6c2.7-2.1,6-3.2,10-3.2
			c1.4,0,2.8,0.4,4.1,1.2c1.3,0.8,2,1.8,2,3.1c0,0.6-0.2,1.1-0.7,1.5c-0.5,0.3-1.3,0.5-2.5,0.5c-1.2,0-2-0.4-2.4-1.1v0H158V7.7
			c-3.4,0-5.7,1.1-7,3.2c-1.1,2-1.7,5.3-1.7,10.1L149.5,27.1z"/>
		<path class="st0" d="M182.5,36.7l0.1,2.8v0.4c0.2,5.1,0.3,12.8,0.3,23v2.2h6.7c1.3,0.9,1.9,1.7,1.9,2.5c0,0.8-0.2,1.4-0.6,1.9
			c-0.4,0.5-0.9,0.8-1.3,0.8c-0.5,0-1-0.1-1.6-0.3c-0.5,0.1-1,0.2-1.7,0.2l-2.8-0.1c-0.6,0.7-1.4,1.1-2.3,1.1s-1.7-0.3-2.3-0.8
			c-0.6-0.6-0.9-1.2-0.9-2l0.6-3.9c0-6.7-0.3-16.7-0.9-30c-0.6-13.3-0.9-23.4-0.9-30c0-0.5,0.2-1,0.6-1.3c0.4-0.3,1-0.5,1.6-0.5
			s1.2,0.2,1.8,0.7c0.5,0.5,0.8,1.1,0.8,1.8L182.5,36.7z"/>
		<path class="st0" d="M210.1,8l-1.5,0c-0.6,0-1,0.1-1.3,0.4c-0.3,0.2-0.4,0.7-0.4,1.4c0,5.7,0.4,14.3,1.1,25.8s1.1,20,1.1,25.8v3.4
			c0.6-0.1,1.2-0.1,1.8-0.1c2.4,0,3.7,1,3.7,3.1v0.5l-2.2,1.5l-6,0.2c-5.1,0-7.6-0.9-7.6-2.6c0-1.4,0.9-2.1,2.7-2.1l1.8,0.1
			c0.9,0,1.3-0.7,1.3-2.1c0-4.5-0.3-11.3-0.8-20.4c-0.5-9-0.8-15.8-0.8-20.4l0.2-9c0-1.9-0.1-3.5-0.2-4.9c-0.8,0.3-1.5,0.4-2.1,0.4
			c-1.4,0-2.1-0.7-2.1-2.1c0-0.7,0.4-1.3,1.3-1.9c0.9-0.5,2-0.9,3.3-1.1c2.5-0.4,4.3-0.6,5.5-0.6s2,0.2,2.6,0.7
			c0.5,0.5,0.8,1,0.8,1.7s-0.2,1.2-0.6,1.7C211.2,7.8,210.7,8,210.1,8z"/>
		<path class="st0" d="M227.7,27.1l-0.8,6.2v2.1c0,6.8,0.2,11.3,0.5,13.5c0.3,2.2,0.6,4.2,0.9,5.9c0.3,1.7,0.7,3.2,1.2,4.5
			c0.5,1.2,1.1,2.4,1.8,3.5c1.4,2.2,3.3,3.3,5.7,3.3c1,0,2.3-0.5,3.7-1.6c1.5-1,2.6-1.6,3.4-1.6c0.8,0,1.6,0.4,2.5,1.3
			c0,3-1.7,5.1-5,6.3c-1.7,0.6-3.5,0.9-5.4,0.9c-2,0-3.6-0.4-5-1.2c-1.4-0.8-2.5-1.8-3.4-3.1c-0.9-1.2-1.7-2.8-2.4-4.8
			c-0.7-2-1.2-3.9-1.6-5.8c-0.3-2-0.6-4.2-0.9-6.7c-0.3-4.2-0.5-8.9-0.6-13.9l0.1-10.5c0-3.4,0.2-6.1,0.6-8.1
			c-0.2-0.9-0.3-1.9-0.3-2.8c0-3.6,1.3-6.5,4-8.6c2.7-2.1,6-3.2,10-3.2c1.4,0,2.8,0.4,4.1,1.2c1.3,0.8,2,1.8,2,3.1
			c0,0.6-0.2,1.1-0.7,1.5S240.9,9,239.8,9c-1.2,0-2-0.4-2.4-1.1v0h-1.2V7.7c-3.4,0-5.7,1.1-7,3.2c-1.1,2-1.7,5.3-1.7,10.1
			L227.7,27.1z"/>
		<path class="st0" d="M261.5,68.9c0,2.1-1.4,3.1-4.3,3.1c-0.7,0-1.3-0.3-2-0.9c-0.6-0.6-1-1.4-1-2.5s0.4-1.9,1.1-2.8
			c0.7-0.8,1.6-1.2,2.7-1.2c1.1,0,1.9,0.4,2.6,1.2C261.2,66.7,261.5,67.7,261.5,68.9z M260.3,46.7l0.1,4.2c0,4-0.5,6-1.6,6
			c-0.6,0-1.2-0.7-1.7-2.2c-0.5-1.4-0.8-3.2-0.8-5.4l0.3-14.6l-0.4-28.9c0-0.9,0.4-1.7,1.2-2.4s1.5-1,2.3-1c0.8,0,1.4,0.2,1.8,0.6
			c0.4,0.4,0.6,0.9,0.6,1.5c0,4.7-0.3,11.7-0.9,21.1C260.6,35,260.3,42,260.3,46.7z"/>
	</g>
</g>
</svg>
