<svg width="151" height="151" viewBox="0 0 151 151" fill="none" xmlns="http://www.w3.org/2000/svg">
<g clip-path="url(#clip0)">
<path d="M75.1423 150.285C116.642 150.285 150.285 116.642 150.285 75.1423C150.285 33.6424 116.642 0 75.1423 0C33.6424 0 0 33.6424 0 75.1423C0 116.642 33.6424 150.285 75.1423 150.285Z" fill="#4783CE"/>
<path d="M77.391 120.49H71.3009C70.3639 120.49 69.6144 119.741 69.6144 118.804V89.7585H79.1711V118.804C79.1711 119.741 78.4216 120.49 77.391 120.49Z" fill="#E29E7A"/>
<path d="M79.1711 89.7585H69.6144V103.532H79.1711V89.7585Z" fill="#CE8A6B"/>
<path d="M64.2738 32.8865L50.8756 122.458C50.6882 123.676 51.6252 124.706 52.8432 124.706H57.809C58.7459 124.706 59.5891 123.957 59.7765 123.02L73.1747 33.4486C73.3621 32.2306 72.4252 31.2 71.2072 31.2H66.2414C65.2108 31.2 64.3675 31.9495 64.2738 32.8865Z" fill="#E29E7A"/>
<path d="M84.1368 31.2H79.1711C77.9531 31.2 77.1098 32.2306 77.2035 33.4486L90.6017 123.02C90.7891 123.957 91.5386 124.706 92.5693 124.706H97.535C98.7531 124.706 99.5963 123.676 99.5026 122.458L86.0107 32.8865C85.917 31.9495 85.0738 31.2 84.1368 31.2Z" fill="#E29E7A"/>
<path d="M87.791 103.532H96.5982L93.9747 85.9171H85.0739L87.791 103.532Z" fill="#CE8A6B"/>
<path d="M53.5928 103.532H62.4937L65.1171 85.9171H56.3099L53.5928 103.532Z" fill="#CE8A6B"/>
<path d="M108.404 94.2558H41.7873C38.5081 94.2558 35.8846 91.6324 35.8846 88.3531V45.4414C35.8846 42.1621 38.5081 39.5387 41.7873 39.5387H108.404C111.683 39.5387 114.306 42.1621 114.306 45.4414V88.3531C114.306 91.6324 111.683 94.2558 108.404 94.2558Z" fill="#E29E7A"/>
<path d="M59.8702 51.7189C63.7117 46.6594 68.3027 42.6306 73.3621 39.6324H41.7873C38.5081 39.6324 35.8846 42.2558 35.8846 45.5351V88.4468C35.8846 91.7261 38.5081 94.3495 41.7873 94.3495H52.1873C47.7837 80.4829 50.1261 64.5549 59.8702 51.7189Z" fill="#CE8A6B"/>
<path d="M41.7874 89.2901C41.2252 89.2901 40.8505 88.8216 40.8505 88.3531V45.4414C40.8505 44.8793 41.3189 44.5045 41.7874 44.5045H108.404C108.966 44.5045 109.341 44.973 109.341 45.4414V88.3531C109.341 88.9153 108.872 89.2901 108.404 89.2901H41.7874Z" fill="#5EE2C5"/>
<path d="M59.8703 51.7189C61.9315 49.0018 64.1802 46.5657 66.7099 44.5045H41.7874C41.2252 44.5045 40.8505 44.973 40.8505 45.4414V88.3531C40.8505 88.9153 41.3189 89.2901 41.7874 89.2901H50.8757C48.4397 76.8288 51.2505 63.0558 59.8703 51.7189Z" fill="#0BDDAB"/>
<path d="M90.227 96.4108H60.0577C58.9333 96.4108 58.0901 95.5676 58.0901 94.4432V87.2288C58.0901 86.1982 59.027 85.2613 60.0577 85.2613H90.1333C91.2577 85.2613 92.1009 86.1045 92.1009 87.2288V94.4432C92.1009 95.5676 91.2577 96.4108 90.227 96.4108Z" fill="#E29E7A"/>
<path d="M66.7099 94.5369V87.3225C66.7099 86.1982 67.5532 85.355 68.6775 85.355H60.1513C59.027 85.2613 58.0901 86.1982 58.0901 87.2288V94.4432C58.0901 95.5676 58.9333 96.4108 60.0577 96.4108H68.5838C67.5531 96.4108 66.7099 95.5676 66.7099 94.5369Z" fill="#CE8A6B"/>
<path d="M108.404 38.227H102.22C101.47 38.227 100.814 38.8829 100.814 39.6324C100.814 40.382 101.47 41.0378 102.22 41.0378H108.404C110.84 41.0378 112.807 43.0054 112.807 45.4414V88.3532C112.807 90.7892 110.84 92.7567 108.404 92.7567H93.5063V90.6955H108.404C109.715 90.6955 110.746 89.6649 110.746 88.3532V45.4414C110.746 44.1297 109.715 43.0991 108.404 43.0991H41.7874C40.4756 43.0991 39.445 44.1297 39.445 45.4414V88.3532C39.445 89.6649 40.4756 90.6955 41.7874 90.6955H56.6847V92.7567H41.7874C39.3513 92.7567 37.3838 90.7892 37.3838 88.3532V45.4414C37.3838 43.0054 39.3513 41.0378 41.7874 41.0378H96.1297C96.8793 41.0378 97.5351 40.382 97.5351 39.6324C97.5351 38.8829 96.8793 38.227 96.1297 38.227H88.2594L87.4162 32.6991C87.1351 31.0126 85.7297 29.7946 84.1369 29.7946H79.1711C78.2342 29.7946 77.2973 30.2631 76.6414 30.9189C75.9856 31.6685 75.7045 32.6054 75.8919 33.636L76.5477 38.1333H73.7369L74.3928 33.636C74.5802 32.6991 74.2991 31.6685 73.6432 30.9189C72.9874 30.1694 72.0504 29.7946 71.1135 29.7946H66.1477C64.4612 29.7946 63.0558 31.0126 62.8684 32.6991L62.0252 38.227H41.7874C37.7585 38.227 34.4792 41.5063 34.4792 45.5351V88.4468C34.4792 92.4757 37.7585 95.7549 41.7874 95.7549H53.4054L51.2504 109.622C51.1567 110.371 51.6252 111.121 52.4684 111.214C52.5621 111.214 53.8738 111.495 54.0612 109.996L56.2162 95.5676H56.872C57.3405 96.8793 58.5585 97.8162 60.0576 97.8162H61.9315L58.1838 122.739C58.1838 123.02 57.9027 123.207 57.6216 123.207H52.6558C52.0937 123.207 52.0937 122.832 52.0937 122.551L53.0306 116.274C53.1243 115.524 52.6558 114.775 51.8126 114.681C51.063 114.587 50.3135 115.056 50.2198 115.899L49.2829 122.177C49.0955 123.114 49.3765 124.144 50.0324 124.894C50.6883 125.643 51.6252 126.018 52.5621 126.018H57.5279C59.2144 126.018 60.6198 124.8 60.8072 123.114L64.6486 97.7225H68.1153V118.71C68.1153 120.396 69.5207 121.802 71.2072 121.802H77.2973C78.9838 121.802 80.3892 120.396 80.3892 118.71V97.7225H85.3549L89.1964 123.114C89.4774 124.8 90.8829 126.018 92.4756 126.018H97.4414C98.3783 126.018 99.3153 125.55 99.9711 124.894C100.627 124.144 100.908 123.207 100.721 122.177L96.6919 95.5676H108.216C112.245 95.5676 115.524 92.2883 115.524 88.2595V45.4414C115.712 41.4126 112.432 38.227 108.404 38.227ZM78.609 33.2613C78.609 33.0739 78.5153 32.6991 79.1711 32.6054H84.1369C84.418 32.6054 84.6054 32.7928 84.6991 33.0739L85.4486 38.227H79.4522L78.609 33.2613ZM65.5856 33.0739C65.5856 32.7928 65.8666 32.6054 66.1477 32.6054H71.1135C71.6756 32.6054 71.6756 32.9802 71.6756 33.2613L70.9261 38.227H64.9297L65.5856 33.0739ZM59.5892 94.5369V87.3225C59.5892 87.0414 59.8702 86.7604 60.1513 86.7604H79.1711C79.9207 86.7604 80.5765 86.1045 80.5765 85.3549C80.5765 84.6054 79.9207 83.9495 79.1711 83.9495H60.0576C58.1838 83.9495 56.6847 85.4486 56.6847 87.3225V87.9784H42.2558V45.9099H108.029V87.9784H93.5063V87.3225C93.5063 85.4486 92.0072 83.9495 90.1333 83.9495H85.0738C84.3243 83.9495 83.6684 84.6054 83.6684 85.3549C83.6684 86.1045 84.3243 86.7604 85.0738 86.7604H90.1333C90.4144 86.7604 90.6955 87.0414 90.6955 87.3225V94.5369C90.6955 94.818 90.4144 95.0991 90.1333 95.0991H60.0576C59.7765 95.0054 59.5892 94.818 59.5892 94.5369ZM77.7657 118.804C77.7657 118.991 77.672 119.085 77.4847 119.085H71.3946C71.2072 119.085 71.1135 118.991 71.1135 118.804V97.8162H77.7657V118.804ZM98.0973 122.645C98.0973 122.832 98.0973 123.301 97.5351 123.301H92.5693C92.2883 123.301 92.1009 123.114 92.0072 122.832L88.2594 97.9099H90.1333C91.6324 97.9099 92.8504 96.973 93.3189 95.6613H93.9747L98.0973 122.645Z" fill="black"/>
<path d="M94.2557 62.2126H92.8503C91.5386 62.2126 90.508 63.2432 90.508 64.555C90.508 65.8667 91.5386 66.8973 92.8503 66.8973H95.8485C96.317 66.8973 96.7855 66.5225 96.7855 65.9604C96.7855 65.4919 96.4107 65.0234 95.8485 65.0234H92.8503C92.4756 65.0234 92.2882 64.7423 92.2882 64.4613C92.2882 64.0865 92.5693 63.8991 92.8503 63.8991H94.2557C95.5675 63.8991 96.5981 62.8685 96.5981 61.5568C96.5981 60.245 95.5675 59.2144 94.2557 59.2144H91.3512C90.8828 59.2144 90.4143 59.5892 90.4143 60.1513C90.4143 60.6198 90.7891 61.0883 91.3512 61.0883H94.2557C94.6305 61.0883 94.8179 61.3694 94.8179 61.6505C94.9116 61.9315 94.6305 62.2126 94.2557 62.2126Z" fill="black"/>
<path d="M56.4035 62.8685H60.6197C61.0882 62.8685 61.5567 62.4937 61.5567 61.9315C61.5567 61.4631 61.1819 60.9946 60.6197 60.9946H56.4035C54.8107 60.9946 53.499 62.3063 53.499 63.8991V64.0865C53.499 64.836 53.7801 65.5856 54.3423 66.1477C53.8738 66.7099 53.499 67.3658 53.499 68.209V68.3964C53.499 69.9892 54.8107 71.3009 56.4035 71.3009H60.6197C61.0882 71.3009 61.5567 70.9261 61.5567 70.364C61.5567 69.8955 61.1819 69.427 60.6197 69.427H56.4035C55.7477 69.427 55.2792 68.9586 55.2792 68.3027V68.1153C55.2792 67.4595 55.7477 66.991 56.4035 66.991H58.7459C59.2143 66.991 59.6828 66.6162 59.6828 66.0541C59.6828 65.5856 59.308 65.1171 58.7459 65.1171H56.4035C55.7477 65.1171 55.2792 64.6487 55.2792 63.9928V63.8054C55.2792 63.4306 55.8414 62.8685 56.4035 62.8685Z" fill="black"/>
<path d="M80.108 70.1766C80.5765 70.1766 81.045 69.8018 81.045 69.2396V65.0234C81.045 63.4306 79.7332 62.1189 78.1404 62.1189H77.9531C77.2035 62.1189 76.454 62.4 75.8918 62.9622C75.3296 62.4937 74.6738 62.1189 73.8305 62.1189H73.6432C72.0504 62.1189 70.7386 63.4306 70.7386 65.0234V69.3333C70.7386 69.8018 71.1134 70.2703 71.6756 70.2703C72.2377 70.2703 72.6125 69.8955 72.6125 69.3333V65.1171C72.6125 64.4613 73.081 63.9928 73.7368 63.9928H73.9242C74.5801 63.9928 75.0486 64.4613 75.0486 65.1171V67.4595C75.0486 67.9279 75.4233 68.3964 75.9855 68.3964C76.5477 68.3964 76.9224 68.0216 76.9224 67.4595V65.1171C76.9224 64.4613 77.3909 63.9928 78.0468 63.9928H78.2341C78.89 63.9928 79.3585 64.4613 79.3585 65.1171V69.3333C79.2648 69.8018 79.6395 70.1766 80.108 70.1766Z" fill="black"/>
<path d="M68.2089 63.8054H63.899C63.4305 63.8054 62.962 64.1802 62.962 64.7423C62.962 65.2108 63.3368 65.6793 63.899 65.6793H68.2089C68.6774 65.6793 69.1458 65.3045 69.1458 64.7423C69.0521 64.2739 68.6774 63.8054 68.2089 63.8054Z" fill="black"/>
<path d="M86.3855 63.9928H87.5098C87.9783 63.9928 88.4468 63.618 88.4468 63.0559C88.4468 62.5874 88.072 62.1189 87.5098 62.1189H86.3855C84.1369 62.1189 82.3567 63.8991 82.3567 66.1478C82.3567 68.3027 84.1369 70.1766 86.3855 70.1766H87.5098C87.9783 70.1766 88.4468 69.8018 88.4468 69.2396C88.4468 68.7712 88.072 68.3027 87.5098 68.3027H86.3855C85.1675 68.3027 84.1369 67.2721 84.1369 66.0541C84.2306 65.0234 85.1675 63.9928 86.3855 63.9928Z" fill="black"/>
</g>
<defs>
<clipPath id="clip0">
<rect width="150.285" height="150.285" fill="white"/>
</clipPath>
</defs>
</svg>
