<svg width="70" height="68" viewBox="0 0 70 68" fill="none" xmlns="http://www.w3.org/2000/svg">
<path d="M12.0312 0.9375L17.1875 6.25L13.75 9.6875L8.4375 4.53125L12.0312 0.9375ZM57.9688 0.9375L61.5625 4.53125L56.25 9.6875L52.8125 6.25L57.9688 0.9375ZM35 2.5C41.1458 2.5 46.4062 4.73958 50.7812 9.21875C55.2604 13.5938 57.5 18.8542 57.5 25C57.5 31.3542 55.1042 36.9792 50.3125 41.875C46.9792 44.8958 45.3125 48.2812 45.3125 52.0312V52.5V55H45V62.5V65H42.5H39.375C38.3333 66.6667 36.875 67.5 35 67.5C33.125 67.5 31.6667 66.6667 30.625 65H27.5H25V62.5V52.5V50C24.4792 46.9792 23.0208 44.4792 20.625 42.5C17.7083 40 15.5208 36.9792 14.0625 33.4375C12.7083 29.8958 12.2917 26.1458 12.8125 22.1875C13.5417 17.0833 15.7292 12.7083 19.375 9.0625C23.0208 5.41667 27.3958 3.33333 32.5 2.8125C33.3333 2.70833 34.1667 2.60417 35 2.5ZM35 7.5C34.4792 7.60417 33.8542 7.70833 33.125 7.8125C29.1667 8.22917 25.7292 9.84375 22.8125 12.6562C20 15.4688 18.3333 18.8542 17.8125 22.8125C16.875 29.0625 18.9062 34.3229 23.9062 38.5938C27.2396 41.4062 29.1667 45.2083 29.6875 50H40.625C41.25 45.4167 43.3333 41.5104 46.875 38.2812L46.7188 38.125C50.5729 34.375 52.5 30 52.5 25C52.5 20.2083 50.7812 16.0938 47.3438 12.6562C43.9062 9.21875 39.7917 7.5 35 7.5ZM0 25H7.5V30H0V25ZM62.5 25H70V30H62.5V25ZM13.75 45.3125L17.1875 48.75L12.0312 54.0625L8.4375 50.4688L13.75 45.3125ZM56.25 45.3125L61.5625 50.4688L57.9688 54.0625L52.8125 48.75L56.25 45.3125ZM30 55V60H40V55H30Z" fill="white"/>
</svg>
