<svg width="116" height="116" viewBox="0 0 116 116" fill="none" xmlns="http://www.w3.org/2000/svg">
<path d="M58 116C90.0325 116 116 90.0325 116 58C116 25.9675 90.0325 0 58 0C25.9675 0 0 25.9675 0 58C0 90.0325 25.9675 116 58 116Z" fill="#5EE2C5"/>
<path d="M72.3 80.4H68.2V88.5H72.3V80.4Z" fill="#969FAA"/>
<path d="M68.2 80.4H59V88.5H68.2V80.4Z" fill="#969FAA"/>
<path d="M62.1001 39.7V45.8H53.7001C53.2001 43.4 52.1001 40.9 51.4001 39.7H62.1001Z" fill="#E6E9ED"/>
<path d="M86.5001 49.9V79.4C86.5001 80 86.0001 80.4 85.5001 80.4H53.9001L58.7001 75.6C59.5001 74.8 60.0001 73.7 60.0001 72.6V72.5C60.0001 72.4 60.0001 72.4 60.0001 72.3H80.4001V49.9H86.5001Z" fill="#E6E9ED"/>
<path d="M88.5 29.5V47.8C88.5 48.9 87.6 49.8 86.5 49.8H84.5C84.5 45.3 80.9001 41.7 76.4001 41.7H75.4001C78.2001 41.7 80.5 39.4 80.5 36.6C80.5 33.8 78.2001 31.5 75.4001 31.5C72.6001 31.5 70.3001 33.8 70.3001 36.6C70.3001 39.4 72.6001 41.7 75.4001 41.7H74.4001C69.9001 41.7 66.3001 45.3 66.3001 49.8H64.3001C63.2001 49.8 62.3 48.9 62.3 47.8V29.5C62.3 28.4 63.2001 27.5 64.3001 27.5H86.7C87.6 27.5 88.5 28.4 88.5 29.5Z" fill="#E6E9ED"/>
<path d="M51.9 51.9001C51.9 51.7001 51.9 51.6001 51.9 51.4001V48.8L53.9 47.8C53.9 47.1 53.8 46.4 53.7 45.8H62.0999V47.8C62.0999 48.9 62.9999 49.8 64.0999 49.8H74.3V52.4001C74.3 53.2001 74.8999 53.8 75.6999 53.8C76.0999 53.8 76.4999 53.6001 76.6999 53.4001L80.4 49.7001V72.1H60C59.9 69.8 58.0999 68 55.7999 68H55.5999C54.4999 68 53.5 68.4 52.7 69.2L50.9 71L49.5999 68.1C48.3999 65.4 46.4 63.2001 43.7 61.9001V58V57.7001L46.2999 57.5C49.2999 57.2 51.6 54.8001 51.9 51.9001Z" fill="#5AE0FF"/>
<path d="M70.2 57C70.2 60.9 67 64.1 63.1 64.1C59.2 64.1 56 60.9 56 57C56 53.1 59.2 49.9 63.1 49.9C67 49.9 70.2 53 70.2 57Z" fill="#FC5A36"/>
<path d="M37 28C34.9 29.9 33.6 32.7 33.6 35.6V41.7C32.5 41.7 31.6 42.6 31.6 43.7V50.8L29.8 48C28.3 45.8 27.6 43.3 27.6 40.6C27.5 34.7 31.5 29.6 37 28Z" fill="#993028"/>
<path d="M44.7999 39.7C44.7999 39.7 41.7 39.7 41.7 43.8C41.7 42.7 40.8 41.8 39.7 41.8H37.7V36.5C37.7 32.8 39.5999 29.4 42.7999 27.5H47.9C49.6 27.5 51.1 28.2 52.2 29.3C53.3 30.4 54 31.9 54 33.6C54 35.8 52.8 37.8 51 38.8C50.1 39.4 49 39.7 47.9 39.7H45.2C45 39.7 44.8999 39.7 44.7999 39.7Z" fill="#993028"/>
<path d="M37.6 41.7V53.9H33.5C32.4 53.9 31.5 53 31.5 51.9V43.8C31.5 42.7 32.4 41.8 33.5 41.8H37.6V41.7Z" fill="#969FAA"/>
<path d="M41.7 43.7V51.8C41.7 52.9 40.8 53.8 39.7 53.8H37.7V41.7H39.7C40.8 41.7 41.7 42.6 41.7 43.7Z" fill="#969FAA"/>
<path d="M40.7 27.5H42.7C39.5 29.4 37.6 32.8 37.6 36.5V41.8H33.5V35.7C33.5 32.8 34.8 30 36.9 28.1C38.2 27.7 39.4 27.5 40.7 27.5Z" fill="#CCD1D9"/>
<path d="M45.8001 76.3L49.9001 72.2L56.0001 78.3L47.7001 86.6C46.5001 87.8 44.9001 88.4 43.3001 88.4C41.9001 88.4 40.7001 88 39.6001 87.2C38.6001 86.4 37.7001 85.4 37.3001 84.1L31.8001 67.7C31.6001 67.3 31.6001 66.8 31.6001 66.3C31.6001 65.1 32.1001 64 32.9001 63.2C33.6001 62.5 34.6001 62 35.7001 61.9C35.8001 61.9 35.9001 61.9 36.0001 61.9C37.4001 61.9 38.8001 62.3 39.9001 63.1C40.2001 63.3 40.5001 63.6 40.8001 63.9C41.5001 64.6 42.0001 65.4 42.4001 66.4L45.8001 76.3Z" fill="#FC5A36"/>
<path d="M49.5999 68.3L50.9 71.2L45.7999 76.3L42.2999 66.5C41.9999 65.5 41.4 64.7 40.7 64L43.7 62C46.4 63.4 48.4999 65.6 49.5999 68.3Z" fill="#FC5A36"/>
<path d="M84.5 49.9H80.4L76.7 53.6C76.4 53.9 76.1 54 75.7 54C74.9 54 74.3 53.4 74.3 52.6V50H66.2C66.2 45.5 69.8 41.9 74.3 41.9H76.3C80.8 41.7 84.5 45.4 84.5 49.9Z" fill="#5EE2C5"/>
<path d="M80.4 36.6C80.4 39.4 78.1 41.7 75.3 41.7C72.5 41.7 70.2 39.4 70.2 36.6C70.2 33.8 72.5 31.5 75.3 31.5C78.1 31.5 80.4 33.8 80.4 36.6Z" fill="#FBC4AC"/>
<path d="M60.0001 72.4C60.0001 73.6 59.5001 74.7 58.7001 75.5L56.0001 78.4L49.9001 72.3L52.8001 69.4C53.6001 68.6 54.6001 68.2 55.7001 68.2H55.9001C58.2001 68.2 60.1001 70 60.1001 72.3C60.0001 72.3 60.0001 72.4 60.0001 72.4Z" fill="#F0D0B4"/>
<path d="M51.9 51.9001C51.7 54.8001 49.3 57.2001 46.4 57.5L43.7999 57.7001V58V62.1L40.7999 64.1C40.4999 63.8 40.2 63.6 39.9 63.3C38.8 62.5 37.4 62.1 36 62.1C35.9 62.1 35.8 62.1 35.7 62.1V53.9001H39.7999C40.8999 53.9001 41.7999 53.0001 41.7999 51.9001V43.8C41.7999 39.7 44.9 39.7001 44.9 39.7001C45 39.7001 45.0999 39.7001 45.2999 39.7001H48C49.2 39.7001 50.1999 39.4 51.0999 38.8C51.0999 38.8 51.2999 39.1001 51.5999 39.7001C52.2999 40.9001 53.4 43.4 53.9 45.8C54 46.5 54.0999 47.2 54.0999 47.8L52.0999 48.8V51.4001C51.8999 51.6001 51.9 51.7001 51.9 51.9001Z" fill="#FBC4AC"/>
<path d="M49.9001 43.7C49.9001 44.3 49.4001 44.7 48.9001 44.7C48.4001 44.7 47.9001 44.2 47.9001 43.7C47.9001 43.2 48.4001 42.7 48.9001 42.7C49.4001 42.7 49.9001 43.2 49.9001 43.7Z" fill="black"/>
<path d="M86.5 26.4H64.1C62.4 26.4 61 27.8 61 29.5V38.7H52.7001C54 37.4 54.8 35.6 54.8 33.6C54.8 29.7 51.6 26.5 47.7001 26.5H40.6C32.7 26.5 26.3 32.9 26.3 40.8C26.3 43.6 27.1001 46.4 28.7001 48.7L30.4 51.2V51.9C30.4 53.6 31.8 55 33.5 55H34.5V61.3C32.2 61.9 30.4 64 30.4 66.5C30.4 67.1 30.5001 67.7 30.7001 68.2L36.2001 84.6C37.2001 87.6 40 89.6 43.1 89.6C45 89.6 46.9 88.8 48.3 87.5L54.3 81.5H58V87.6H53.9001V89.6H77.3001V87.6H73.2V81.5H85.4001C86.5 81.5 87.4001 80.6 87.4001 79.5V50.7C88.6001 50.3 89.4001 49.2 89.4001 47.8V29.5C89.6001 27.8 88.2001 26.4 86.5 26.4ZM75.3001 40.7C73.1001 40.7 71.2 38.9 71.2 36.6C71.2 34.3 73.0001 32.5 75.3001 32.5C77.5001 32.5 79.4001 34.3 79.4001 36.6C79.4001 38.9 77.6001 40.7 75.3001 40.7ZM76.3001 42.7C79.9001 42.7 82.8001 45.4 83.3001 48.8H80L76 52.7C75.8 52.9 75.3001 52.7 75.3001 52.4V48.7H67.2C67.7 45.3 70.7 42.6 74.2 42.6H76.3001V42.7ZM60.9001 71.2C60.4001 68.9 58.3 67.1 55.8 67.1H55.6C54.2 67.1 52.9 67.6 52 68.6L51.2001 69.4L50.5 67.8C49.3 65.1 47.3001 62.8 44.7001 61.4V58.6L46.4001 58.4C50.1001 58.1 52.9001 55 52.9001 51.3V49.4L54.9001 48.4V47.8C54.9001 47.5 54.9 47.1 54.8 46.8H61V47.8C61 48.2 61.1 48.6 61.3 49C57.7 49.8 54.9001 53.1 54.9001 56.9C54.9001 61.4 58.6 65 63 65C67.4001 65 71.1 61.3 71.1 56.9C71.1 54.5 70.0001 52.3 68.3001 50.8H73.1V52.4C73.1 53.8 74.2 54.9 75.6 54.9C76.2 54.9 76.9001 54.6 77.3001 54.2L79.2 52.3V71.2H60.9001ZM56 76.9L51.3 72.2L53.4001 70.1C54.0001 69.5 54.8 69.2 55.6 69.2H55.8C57.6 69.2 59 70.6 59 72.5C59 73.4 58.7001 74.2 58 74.8L56 76.9ZM43.8 63.3C46 64.5 47.7001 66.4 48.7001 68.7L49.7001 71L46.2001 74.5L43.3 66.3C43 65.6 42.7 65 42.3 64.4L43.8 63.3ZM69.2 57C69.2 60.4 66.5 63.1 63.1 63.1C59.7 63.1 57 60.4 57 57C57 53.6 59.7 50.9 63.1 50.9C66.5 50.9 69.2 53.6 69.2 57ZM61.1 44.8H54.6C54.2 43.3 53.7 41.9 53.1 40.7H61.1V44.8ZM36.6 40.7H34.6V35.6C34.6 33.1 35.7 30.7 37.5 28.9C38.2 28.7 39 28.6 39.8 28.5C37.8 30.6 36.6 33.5 36.6 36.4V40.7ZM28.5 40.7C28.5 36.6 30.6001 32.9 33.7001 30.7C33.0001 32.2 32.6 33.9 32.6 35.6V40.9C31.4 41.3 30.6 42.4 30.6 43.8V47.6C29.2 45.5 28.5 43.2 28.5 40.7ZM32.6 51.9V43.8C32.6 43.2 33.1 42.8 33.6 42.8H36.7001V53H33.6C33 52.9 32.6 52.5 32.6 51.9ZM38.7001 42.7H39.7001C40.3001 42.7 40.7001 43.2 40.7001 43.7V51.8C40.7001 52.4 40.2001 52.8 39.7001 52.8H38.7001V42.7ZM39.7001 54.9C41.4001 54.9 42.8 53.5 42.8 51.8V43.7C42.8 42 41.4001 40.6 39.7001 40.6H38.7001V36.4C38.7001 33.2 40.4 30.2 43.1 28.4H47.9001C50.7001 28.4 53 30.7 53 33.5C53 36.3 50.7001 38.6 47.9001 38.6H45.2001C43.9001 38.6 42.8 37.5 42.8 36.2C42.8 35.1 43.6 34.1 44.6 33.9L46.1 33.5L45.6 31.5L44.1 31.9C42.1 32.4 40.7001 34.2 40.7001 36.2C40.7001 38.7 42.7 40.6 45.1 40.6H47.8C48.8 40.6 49.7001 40.4 50.5 40.1C51.2001 41.5 52.6 44.5 52.8 47.2L50.8 48.2V50.9H50C49 50.9 48.1 50.3 47.6 49.4L45.8 50.3C46.6 51.9 48.2001 52.9 50 52.9H50.5C49.9 54.8 48.2 56.3 46.1 56.5L40.6 57L40.8 59L42.7001 58.8V61.5L40.8 62.8C39.6 61.8 38.2 61.2 36.6 61.1V54.9H39.7001ZM46.9001 86C45.9001 87 44.6 87.5 43.2001 87.5C40.9001 87.5 38.9001 86.1 38.2001 83.9L32.7001 67.5C32.6001 67.2 32.5 66.8 32.5 66.4C32.5 64.5 34.0001 63 35.9001 63C38.3001 63 40.5 64.5 41.3 66.8L44.6 75.9L40 80.7L41.4001 82.1L49.8 73.7L54.5 78.4L46.9001 86ZM60 81.4H67.1V87.5H60V81.4ZM71.2 87.5H69.2V81.4H71.2V87.5ZM56.4001 79.4L59.5 76.3C60.3 75.5 60.8 74.5 61 73.3H81.4001V50.9H85.5V79.4H56.4001ZM87.5 47.8C87.5 48.4 87 48.8 86.5 48.8H85.4001C85 45.2 82.6001 42.3 79.3001 41.2C80.6001 40.1 81.4001 38.4 81.4001 36.6C81.4001 33.2 78.7001 30.5 75.3001 30.5C71.9001 30.5 69.2 33.2 69.2 36.6C69.2 38.4 70.0001 40.1 71.3001 41.2C68.0001 42.3 65.6 45.3 65.2 48.8H64.1C63.5 48.8 63.1 48.3 63.1 47.8V29.5C63.1 28.9 63.6 28.5 64.1 28.5H86.5C87.1 28.5 87.5 29 87.5 29.5V47.8Z" fill="black"/>
<path d="M69.2 67.2H67.2V69.2H69.2V67.2Z" fill="black"/>
<path d="M73.2 67.2H71.2V69.2H73.2V67.2Z" fill="black"/>
<path d="M65.1001 67.2H63.1001V69.2H65.1001V67.2Z" fill="black"/>
<path d="M79.4 75.3H75.3V77.3H79.4V75.3Z" fill="black"/>
<path d="M73.2 75.3H71.2V77.3H73.2V75.3Z" fill="black"/>
</svg>
