<svg width="116" height="116" viewBox="0 0 116 116" fill="none" xmlns="http://www.w3.org/2000/svg">
<path d="M58 116C90.0325 116 116 90.0325 116 58C116 25.9675 90.0325 0 58 0C25.9675 0 0 25.9675 0 58C0 90.0325 25.9675 116 58 116Z" fill="#4783CE"/>
<path d="M47.3999 53.7C47.8999 53.4 48.0999 52.9 47.7999 52.4L46.8999 50.6C46.5999 50.1 45.9999 49.9 45.5999 50.2L41.8999 52.2V32C41.8999 29.8 43.6999 28 45.8999 28H83.8999C86.0999 28 87.8999 29.8 87.8999 32V56H46.5999L45.7999 54.5L47.3999 53.7Z" fill="#FC5A36"/>
<path d="M69.8 43L62 46.9V39.1L69.8 43Z" fill="black"/>
<path d="M42.8999 68H83.8999C86.0999 68 87.8999 66.2 87.8999 64V56H42.8999V68Z" fill="#E6E9ED"/>
<path d="M64.8999 68V74.1C64.6999 74 64.4999 74 64.1999 74C63.3999 74 62.5999 74.4 62.0999 75L57.8999 80H56.8999L53.1999 74.8C53.0999 74.6 52.9999 74.5 52.8999 74.3V60H64.8999V68Z" fill="#E6E9ED"/>
<path d="M49.8999 80.7V88H32.8999V80C32.8999 74.5 37.3999 70 42.8999 70H44.0999C47.5999 70 50.7999 71.6 52.8999 74.3C52.9999 74.5 53.0999 74.6 53.1999 74.8L56.8999 80H57.8999L62.0999 75C62.5999 74.4 63.3999 74 64.1999 74C64.4999 74 64.6999 74 64.8999 74.1C65.9999 74.4 66.8999 75.5 66.8999 76.7V77.1C66.8999 77.7 66.6999 78.3 66.3999 78.7L62.9999 83.2C62.2999 84.1 61.4999 84.8 60.4999 85.3C59.4999 85.8 58.4999 86 57.3999 86C55.1999 86 53.0999 85 51.7999 83.2L49.8999 80.7Z" fill="#5EE2C5"/>
<path d="M48.8999 64C48.8999 67.3 46.1999 70 42.8999 70C39.7999 70 37.2999 67.7 36.8999 64.7C38.2999 64.3 40.4999 63.6 42.1999 62.7C43.8999 61.8 45.6999 60.4 46.7999 59.5C48.0999 60.6 48.8999 62.2 48.8999 64Z" fill="#FBC4AC"/>
<path d="M33.7998 61.1L32.2998 61.9C31.7998 62.2 31.1998 62 30.9998 61.5L30.8998 61.3L29.9998 59.7C29.6998 59.2 29.8998 58.6 30.3998 58.4L41.8998 52.1L45.5998 50.1C46.0998 49.8 46.6998 50 46.8998 50.5L47.7998 52.3C48.0998 52.8 47.8998 53.4 47.3998 53.6L45.8998 54.4L33.7998 61.1Z" fill="#969FAA"/>
<path d="M46.5999 56L47.9 58.6C47.9 58.6 47.4999 59 46.7999 59.5C45.6999 60.4 43.9 61.8 42.2 62.7C40.5 63.6 38.3 64.3 36.9 64.7C36.1 64.9 35.7 65 35.7 65L33.7 61.1L45.7999 54.5L46.5999 56Z" fill="#969FAA"/>
<path d="M29.8999 69C30.9999 69 31.8999 70.9 31.8999 72C31.8999 73.1 30.9999 74 29.8999 74C28.7999 74 27.8999 73.1 27.8999 72C27.8999 70.9 28.7999 69 29.8999 69Z" fill="#FCEE21"/>
<path d="M61.0999 37.6V48.5L71.9999 43L61.0999 37.6ZM62.9999 40.7L67.5999 43L62.9999 45.3V40.7Z" fill="black"/>
<path d="M83.8999 27H45.8999C43.0999 27 40.8999 29.2 40.8999 32V51.5L29.9999 57.5C28.9999 58 28.5999 59.2 29.0999 60.2L29.5999 61.2C29.1999 61.7 28.8999 62.4 28.8999 63.1V68.4C27.6999 69.1 26.8999 70.8 26.8999 72.1C26.8999 73.8 28.1999 75.1 29.8999 75.1C31.5999 75.1 32.8999 73.8 32.8999 72.1C32.8999 70.8 32.0999 69.1 30.8999 68.4V63C30.8999 62.9 30.8999 62.9 30.8999 62.8C30.9999 62.8 31.0999 62.9 31.1999 62.9C31.3999 63 31.5999 63 31.7999 63C32.0999 63 32.3999 62.9 32.6999 62.8L33.2999 62.5L35.0999 66.2L35.9999 66C35.9999 66 36.0999 66 36.2999 65.9C36.6999 67.5 37.6999 68.8 39.0999 69.7C34.9999 71.3 32.0999 75.3 32.0999 79.9V88.9H51.0999V83.6L51.1999 83.7C52.6999 85.7 55.0999 86.9 57.5999 86.9C60.0999 86.9 62.4999 85.7 63.9999 83.7L67.3999 79.2C67.8999 78.6 68.0999 77.8 68.0999 77V76.6C68.0999 75.2 67.2999 73.9 66.0999 73.3V69H84.0999C86.8999 69 89.0999 66.8 89.0999 64V32C88.8999 29.2 86.6999 27 83.8999 27ZM42.8999 32C42.8999 30.3 44.1999 29 45.8999 29H83.8999C85.5999 29 86.8999 30.3 86.8999 32V55H47.2999L47.1999 54.9L47.7999 54.6C48.7999 54.1 49.1999 52.9 48.6999 51.9L47.7999 50.1C47.5999 49.6 47.0999 49.3 46.5999 49.1C46.0999 48.9 45.5999 49 45.0999 49.2L42.8999 50.4V32ZM29.8999 73C29.2999 73 28.8999 72.6 28.8999 72C28.8999 71.2 29.5999 70 29.8999 70C30.1999 70 30.8999 71.2 30.8999 72C30.8999 72.6 30.4999 73 29.8999 73ZM31.7999 61L30.9999 59.2L45.9999 51L46.8999 52.8L31.7999 61ZM35.0999 61.5L45.4999 55.8L46.6999 58.3C45.6999 59.1 43.5999 60.8 41.7999 61.8C39.9999 62.7 37.4999 63.5 36.1999 63.8L35.0999 61.5ZM38.0999 65.4C39.4999 65 41.2999 64.4 42.6999 63.6C44.0999 62.9 45.5999 61.8 46.7999 60.9C47.4999 61.8 47.8999 62.9 47.8999 64.1C47.8999 66.9 45.6999 69.1 42.8999 69.1C40.6999 69 38.6999 67.5 38.0999 65.4ZM63.8999 73C62.8999 73.1 61.9999 73.5 61.2999 74.3L57.4999 79L54.0999 74.2C54.0999 74.1 53.9999 74.1 53.8999 74V61H63.8999V73ZM51.8999 71.9C50.5999 70.8 48.9999 70 47.2999 69.5C47.4999 69.3 47.6999 69.1 47.8999 68.9V69H51.8999V71.9ZM65.8999 77.1C65.8999 77.5 65.7999 77.8 65.5999 78.1L62.1999 82.6C61.0999 84.1 59.2999 85 57.3999 85C55.4999 85 53.6999 84.1 52.5999 82.6L48.6999 77.4L47.0999 78.6L48.8999 81V87H33.8999V80C33.8999 75 37.8999 71 42.8999 71H44.0999C47.3999 71 50.4999 72.6 52.3999 75.3L56.3999 81H58.3999L62.8999 75.6C63.1999 75.2 63.6999 75 64.1999 75C65.1999 75 65.8999 75.8 65.8999 76.7V77.1ZM83.8999 67H65.8999V63H84.8999V61H65.8999V59H51.8999V67H49.1999C49.5999 66.1 49.8999 65.1 49.8999 64C49.8999 62.4 49.2999 60.8 48.2999 59.6C48.3999 59.5 48.4999 59.4 48.5999 59.4L49.1999 58.9L48.2999 57H86.9999V64C86.8999 65.7 85.5999 67 83.8999 67Z" fill="black"/>
<path d="M61.8999 67H55.8999V69H61.8999V67Z" fill="black"/>
<path d="M59.8999 71H55.8999V73H59.8999V71Z" fill="black"/>
<path d="M61.8999 63H55.8999V65H61.8999V63Z" fill="black"/>
<path d="M46.8999 39H44.8999V41H46.8999V39Z" fill="black"/>
<path d="M84.8999 51H82.8999V53H84.8999V51Z" fill="black"/>
<path d="M84.8999 47H82.8999V49H84.8999V47Z" fill="black"/>
<path d="M84.8999 43H82.8999V45H84.8999V43Z" fill="black"/>
<path d="M46.8999 33H54.8999V31H46.8999C45.7999 31 44.8999 31.9 44.8999 33V37H46.8999V33Z" fill="black"/>
</svg>
