<svg width="116" height="116" viewBox="0 0 116 116" fill="none" xmlns="http://www.w3.org/2000/svg">
<path d="M58 116C90.0325 116 116 90.0325 116 58C116 25.9675 90.0325 0 58 0C25.9675 0 0 25.9675 0 58C0 90.0325 25.9675 116 58 116Z" fill="#FC5A36"/>
<path d="M50.1001 81.2L46.4001 82.9C44.1001 83.9 42.4001 85.9 41.8001 88.4L41.7001 88.6H53.9001L54.2001 87.8C55.2001 84.8 57.9001 82.7 61.1001 82.5L50.1001 81.2Z" fill="#5EE2C5"/>
<path d="M69 87.8L69.3 88.6H53.9L54.2 87.8C55.2 84.8 57.9 82.7 61.1 82.5C61.3 82.5 61.4 82.5 61.6 82.5C62.5 82.5 63.3 82.7 64.1 82.9C64.8 83.1 65.5 83.5 66.1 83.9C67.4 84.9 68.4 86.2 69 87.8Z" fill="#5EE2C5"/>
<path d="M64.1 72.3V82.9C63.3 82.6 62.4 82.5 61.6 82.5C61.4 82.5 61.3 82.5 61.1 82.5L50.1 81.3L50.6 80.8C51.4 79.9 51.9 78.8 51.9 77.6V75L45.6 76.3C45.1 76.4 44.5 76.5 44 76.5C39.4 76.5 35.6 72.8 35.6 68.1V61.2H31.5C31.5 55.1 34.6 45.7 34.6 45.7C35.2 45.8 35.9 45.9 36.6 45.9H46.4C47.4 45.9 48.3 46.4 48.8 47.1C49.1 47.4 49.2 47.8 49.3 48.3L50.8 55.1L51.8 54.1C52.5 53.4 53.4 53 54.4 53H54.5C56.5 53 58 54.6 58 56.5V56.6C58 58.9 57.1 61 55.5 62.6L54.9 63.2L64.1 72.3Z" fill="#FBC4AC"/>
<path d="M47.8 43.7C47.8 44.9 48.2 46 48.9 46.9L48.8 47C48.2 46.2 47.3 45.8 46.4 45.8H36.6C35.9 45.8 35.2 45.7 34.6 45.6C30.5 44.7 27.4 41 27.4 36.6C27.4 34.1 28.4 31.8 30.1 30.1C31.8 28.4 34 27.4 36.6 27.4H52.5C54.3 27.4 56.1 27.6 57.8 28.1C54.9 29.3 52.9 32.2 52.9 35.6C52.9 36.7 53.1 37.7 53.5 38.7C53.3 38.7 53.1 38.7 52.9 38.7C50.1 38.6 47.8 40.9 47.8 43.7Z" fill="#993028"/>
<path d="M48.9001 46.9C49.8001 48.1 51.3001 48.8 52.9001 48.8H61.5C63.2 52.4 66.2 54.6 68.2 60V68.2L64.1 72.3L54.9001 63.1L55.5 62.5C57.1 60.9 58 58.7 58 56.5V56.4C58 54.4 56.4 52.9 54.5 52.9H54.4001C53.4001 52.9 52.5 53.3 51.8 54C51.3 54.5 50.8 55 50.8 55L49.3 48.2C49.2 47.8 49 47.4 48.8 47L48.9001 46.9Z" fill="#993028"/>
<path d="M80.4001 76.4L77.0001 84.5H71.6001L68.2001 76.3H80.4001V76.4Z" fill="#5EE2C5"/>
<path d="M77 84.5L75.7 87.6C75.5 88.2 74.9 88.5 74.3 88.5C73.7 88.5 73.1 88.1 72.9 87.6L71.6 84.5H77Z" fill="#5EE2C5"/>
<path d="M80.4001 60H68.2001V64.1H80.4001V60Z" fill="#FCEE21"/>
<path d="M80.4001 64.1H68.2001V68.2H80.4001V64.1Z" fill="#FCEE21"/>
<path d="M80.4 68.2H74.3V76.4H80.4V68.2Z" fill="#5EE2C5"/>
<path d="M74.3001 68.2H68.2001V76.4H74.3001V68.2Z" fill="#5EE2C5"/>
<path d="M74.3 27.4C71.5 27.4 68.9 28.2 66.6 29.6C67.4 30.4 68.1 31.4 68.6 32.5C69.7 31.9 70.9 31.5 72.3 31.5C76.2 31.5 79.4 34.7 79.4 38.6C79.4 39.4 79.3 40.2 79 40.9C79.4 40.7 79.9 40.6 80.4 40.6C82.7 40.6 84.5 42.4 84.5 44.7C84.5 47 82.7 48.8 80.4 48.8H61.5C63.2 52.4 66.2 54.6 68.2 60H80.4C83.5 51.8 88.6 50.8 88.6 41.6C88.6 33.8 82.2 27.4 74.3 27.4Z" fill="#FCEE21"/>
<path d="M68.6 32.5C69.7 31.9 70.9001 31.5 72.3001 31.5C76.2001 31.5 79.4001 34.7 79.4001 38.6C79.4001 39.4 79.3 40.2001 79 40.9001C79.4 40.7001 79.9001 40.6 80.4001 40.6C82.7001 40.6 84.5 42.4001 84.5 44.7001C84.5 47 82.7001 48.8 80.4001 48.8H52.9001C51.3001 48.8 49.9001 48.1001 48.9001 46.9001C48.2001 46.0001 47.8 44.9001 47.8 43.7001C47.8 40.9001 50.1001 38.6 52.9001 38.6C53.1001 38.6 53.3 38.6 53.5 38.6C53.1 37.6 52.9001 36.6 52.9001 35.5C52.9001 32.1 54.9 29.2 57.8 28C58.8 27.6 59.9 27.3 61 27.3C63.2 27.3 65.1 28.1 66.6 29.5C67.5 30.4 68.2 31.4 68.6 32.5Z" fill="#E6E9ED"/>
<path d="M74.3 26.4C71.6 26.4 69 27.1 66.7 28.4C65.1 27.1 63.1 26.4 61 26.4C59.8 26.4 58.7 26.6 57.7 27C56 26.6 54.2 26.4 52.4 26.4H36.6C31 26.4 26.4 31 26.4 36.6C26.4 39.3 27.5 41.9 29.4 43.8C30.5 44.9 31.9 45.7 33.3 46.2C32.5 48.8 30.5 55.9 30.5 61V62H34.6V68C34.6 73.2 38.8 77.4 44 77.4C44.6 77.4 45.2 77.3 45.8 77.2L50.9 76.2V78.5C50.9 79.3 50.4 80 49.7 80.4L45.9 82C43.3 83.2 41.4 85.4 40.7 88.2L40.3 89.7H70.6L69.9 87.6C69.1 85.2 67.3 83.3 65.1 82.4V72.9L67.1 70.9V76.8L72 88C72.4 89 73.3 89.6 74.4 89.6C75.4 89.6 76.4 89 76.8 88L81.6 76.5V60.2C82.8 57.2 84.2 55.2 85.6 53.3C87.8 50.3 89.8 47.5 89.8 41.6C89.6 33.2 82.8 26.4 74.3 26.4ZM67.3 32.2C65.6 33.5 64.4 35.5 64.1 37.8C62.3 38.2 61 39.8 61 41.8H63C63 40.7 63.9 39.8 65 39.8C66.1 39.8 67 40.7 67 41.8H69C69 39.9 67.7 38.4 66 37.9C66.4 34.9 69 32.6 72.1 32.6C75.5 32.6 78.2 35.3 78.2 38.7C78.2 39.2 78.1 39.8 78 40.3C76.3 41.1 75.2 42.9 75.2 44.8V45.8H77.2V44.8C77.2 43.1 78.6 41.7 80.3 41.7C82 41.7 83.4 43.1 83.4 44.8C83.4 46.5 82 47.9 80.3 47.9H52.9C50.7 47.9 48.8 46.1 48.8 43.8C48.8 41.6 50.6 39.7 52.9 39.7C55.1 39.7 57 41.5 57 43.8H59C59 40.9 57 38.5 54.3 37.8C54.1 37.1 53.9 36.4 53.9 35.6C53.9 31.7 57.1 28.5 61 28.5C63.7 28.4 66.1 29.9 67.3 32.2ZM73.3 52.9V59H68.9C67.7 56 66.2 54 64.9 52.1C64.3 51.3 63.8 50.6 63.3 49.8H70.3C71.9 49.8 73.3 51.2 73.3 52.9ZM69.7 77.4H78.9L76.4 83.5H72.3L69.7 77.4ZM69.2 75.3V69.2H73.3V75.3H69.2ZM75.3 75.3V69.2H79.4V75.3H75.3ZM69.2 67.2V65.2H79.4V67.2H69.2ZM69.2 63.1V61.1H79.4V63.1H69.2ZM28.4 36.6C28.4 32.1 32.1 28.4 36.6 28.4H52.5C53.4 28.4 54.3 28.5 55.1 28.6C53.1 30.3 51.9 32.8 51.9 35.6C51.9 36.3 52 37 52.1 37.7C49.1 38.1 46.8 40.7 46.8 43.8C46.8 44.2 46.8 44.5 46.9 44.9C46.7 44.9 46.6 44.9 46.4 44.9H36.6C34.4 44.9 32.4 44.1 30.8 42.5C29.3 40.8 28.4 38.8 28.4 36.6ZM67.8 87.6H55.4C56.5 85.1 58.9 83.5 61.6 83.5C64.3 83.5 66.7 85.1 67.8 87.6ZM61.6 81.5C57.8 81.5 54.5 83.9 53.2 87.5V87.6H43.1C43.8 85.9 45.1 84.6 46.8 83.9L50.5 82.2C52 81.5 52.9 80.1 52.9 78.5V75.8L55.1 75.4L54.7 73.4L45.3 75.3C44.8 75.4 44.3 75.4 43.9 75.4C40.6 75.4 37.9 73.3 36.9 70.3H39.1C42.3 70.3 45.2 68.5 46.6 65.7L44.8 64.8C43.7 67 41.5 68.3 39.1 68.3H36.5C36.5 68.2 36.5 68.2 36.5 68.1V60.1H32.4C32.6 55.3 34.5 49 35.2 46.8C35.6 46.9 36.1 46.9 36.5 46.9H46.3C47.3 46.9 48.1 47.6 48.3 48.5L50.2 57.1L52.5 54.8C53 54.3 53.6 54 54.4 54C55.1 54 55.7 54.3 56.2 54.7C56.7 55.2 56.9 55.8 56.9 56.6C56.9 58.6 56.1 60.5 54.7 61.9L53.4 63.2L63 72.8V81.7C62.6 81.5 62.1 81.5 61.6 81.5ZM64.1 70.8L56.4 63.1C58.1 61.3 59 59 59 56.4C59 55.2 58.5 54 57.7 53.2C56.8 52.3 55.7 51.9 54.4 51.9C53.3 51.9 52.3 52.3 51.5 52.9L50.7 49.4C51.4 49.7 52.1 49.8 52.9 49.8H60.9C61.6 51.1 62.4 52.2 63.2 53.3C64.6 55.2 66 57.2 67.2 60.2V67.7L64.1 70.8ZM73.8 87.3L73.1 85.6H75.5L74.8 87.3C74.6 87.6 74 87.6 73.8 87.3ZM83.8 52.2C82.4 54 81 56 79.7 59H75.3V52.9C75.3 51.7 74.9 50.7 74.3 49.8H80.4C83.2 49.8 85.5 47.5 85.5 44.7C85.5 41.9 83.2 39.6 80.4 39.6H80.3C80.3 39.3 80.4 38.9 80.4 38.6C80.4 34.1 76.7 30.4 72.2 30.4C71.1 30.4 70 30.6 69 31.1C68.8 30.7 68.5 30.3 68.2 29.9C70.1 28.9 72.1 28.4 74.2 28.4C81.5 28.4 87.5 34.3 87.5 41.7C87.6 46.9 85.9 49.2 83.8 52.2Z" fill="black"/>
<path d="M41.7001 52.7C41.3001 53.5 40.5001 54 39.7001 54C38.9001 54 38.0001 53.5 37.7001 52.7L37.6 52.5L35.8 53.4L35.9001 53.6C36.5001 55 38 56 39.6 56C41.2 56 42.7 55.1 43.5 53.6L43.6 53.4L41.8 52.5L41.7001 52.7Z" fill="black"/>
</svg>
