<svg width="116" height="116" viewBox="0 0 116 116" fill="none" xmlns="http://www.w3.org/2000/svg">
<path d="M58 116C90.0325 116 116 90.0325 116 58C116 25.9675 90.0325 0 58 0C25.9675 0 0 25.9675 0 58C0 90.0325 25.9675 116 58 116Z" fill="#5AE0FF"/>
<path d="M85.6001 83.9V46.2C85.6001 44.2 84.0001 42.6 82.0001 42.6H34.0001C32.0001 42.6 30.4001 44.2 30.4001 46.2V83.9H85.6001Z" fill="#CCD1D9"/>
<path d="M80.8 47.4H35.2V76.2H80.8V47.4Z" fill="#5AE0FF"/>
<path d="M66.5 81.1C66.5 82 65.7 82.8 64.8 82.8H51.2C50.3 82.8 49.5 82 49.5 81.1H28.2V84.2C28.2 86.2 29.7999 87.8 31.7999 87.8H84.1999C86.1999 87.8 87.8 86.2 87.8 84.2V81.1H66.5Z" fill="#969FAA"/>
<path d="M85.4001 65.6H76.8001V71.5L67.4001 65.6H57.8001C56.5001 65.6 55.4001 64.5 55.4001 63.2V41.4C55.4001 40.1 56.5001 39 57.8001 39H85.4001C86.7001 39 87.8001 40.1 87.8001 41.4V63.1C87.8001 64.5 86.7001 65.6 85.4001 65.6Z" fill="#FCEE21"/>
<path d="M30.6 54.8H39.2V60.7L48.5999 54.8H58.2C59.5 54.8 60.5999 53.7 60.5999 52.4V30.6C60.5999 29.3 59.5 28.2 58.2 28.2H30.6C29.3 28.2 28.2 29.3 28.2 30.6V52.3C28.2 53.7 29.3 54.8 30.6 54.8Z" fill="white"/>
<path d="M88.7 63.2V41.4C88.7 39.6 87.2001 38.1 85.4001 38.1H61.5V30.6C61.5 28.8 60 27.3 58.2001 27.3H30.6C28.8001 27.3 27.3 28.8 27.3 30.6V52.3C27.3 53.7 28.2 54.9 29.5 55.4V80.1H27.3V84.1C27.3 86.6 29.3 88.6 31.8 88.6H84.2C86.7 88.6 88.7 86.6 88.7 84.1V80.1H86.5V66.3C87.8 65.8 88.7 64.6 88.7 63.2ZM29.1 52.4V30.6C29.1 29.8 29.8001 29.1 30.6 29.1H58.2001C59 29.1 59.7001 29.8 59.7001 30.6V52.3C59.7001 53.1 59 53.8 58.2001 53.8H48.3L40.2001 59V53.8H30.7001C29.8001 53.9 29.1 53.2 29.1 52.4ZM31.3 80.2V55.7H34.3V77.2H81.7V66.5H84.7V80.2H65.6V81.1C65.6 81.5 65.2001 81.9 64.8001 81.9H51.2001C50.8001 81.9 50.4001 81.5 50.4001 81.1V80.2H31.3ZM79.9001 75.4H36.1V55.7H38.4001V62.3L48.9001 55.7H54.5V63.2C54.5 65 56 66.5 57.8 66.5H67.1L77.6 73.1V66.5H79.9001V75.4ZM86.9001 82V84.2C86.9001 85.7 85.7 86.9 84.2 86.9H31.8C30.3 86.9 29.1 85.7 29.1 84.2V82H48.7001C49.1 83 50 83.7 51.1 83.7H64.8001C65.9001 83.7 66.9 83 67.2 82H86.9001ZM85.4001 64.7H75.9001V69.9L67.7 64.7H57.8C57 64.7 56.3 64 56.3 63.2V55.7H58.3C60.1 55.7 61.6 54.2 61.6 52.4V39.9H85.4001C86.2001 39.9 86.9001 40.6 86.9001 41.4V63.1C86.9001 64 86.2001 64.7 85.4001 64.7Z" fill="black"/>
<path d="M77.2001 48.2L71.4001 54L69.2001 51.7L67.1001 53.8L71.4001 58.2L79.3001 50.3L77.2001 48.2Z" fill="black"/>
</svg>
