<svg width="116" height="116" viewBox="0 0 116 116" fill="none" xmlns="http://www.w3.org/2000/svg">
<path d="M58 116C90.0325 116 116 90.0325 116 58C116 25.9675 90.0325 0 58 0C25.9675 0 0 25.9675 0 58C0 90.0325 25.9675 116 58 116Z" fill="#4783CE"/>
<path d="M78.2001 34.7H39.6001V78.1H78.2001V34.7Z" fill="#5AE0FF"/>
<path d="M28 43.3V67.5H44.9L45 67.8C45.7 69.1 47 70 48.5 70C50 70 51.3 69.2 52 67.8L52.1 67.5H69V43.3H28Z" fill="#FC5A36"/>
<path d="M39.6001 81.8C39.6001 83.8 41.2001 85.4 43.2001 85.4H74.6001C76.6001 85.4 78.2001 83.8 78.2001 81.8V78.2H39.6001V81.8Z" fill="white"/>
<path d="M74.5999 27.5H43.2999C41.2999 27.5 39.7 29.1 39.7 31.1V34.7H78.3V31.1C78.2 29.1 76.5999 27.5 74.5999 27.5Z" fill="white"/>
<path d="M71.2 88.3V84.8L70 82.3C67.9 77.7 69.5 72.2 73.8 69.4V62.3C73.8 60.6 75.2 59.2 76.9 59.2C77.4 59.2 77.8 59.3 78.2 59.5V54.8L82.5 55.2L87.8 69.6L83.2 81.8V88.3H71.2Z" fill="white"/>
<path d="M53.4 39.7C50.7 39.7 48.5999 41.9 48.5999 44.5C48.5999 41.8 46.4 39.7 43.7999 39.7H31.7V63.9H65.5V39.7H53.4Z" fill="#FC5A36"/>
<path d="M77.7999 54.8V58.7C77.7999 58.7 74.6999 57.9 73.8999 61.1C73.0999 64.2 73.8999 68.2 73.8999 68.2L73.5999 69.5C73.5999 69.5 68.3999 73.7 69.1999 78.4C69.9999 83.1 70.7999 84.7 70.7999 84.7L71.5999 88.6H83.3999V81.5L88.0999 69L82.5999 54.8H77.7999Z" fill="#FBC4AC"/>
<path d="M55.3001 30.2H62.5001V32H55.3001V30.2ZM58.0001 82.7H59.8001V80.9H58.0001V82.7ZM88.9001 69.6L84.3001 81.9V89.4H71.5001V87.8H82.4001V81.5L86.9001 69.5L81.9001 55.9L79.1001 55.6V58.7C80.2001 59.4 80.9001 60.6 80.9001 62V73.1H79.1001V62.2C79.1001 61 78.1001 60 76.9001 60C75.7001 60 74.7001 61 74.7001 62.2V69.8L74.3001 70.1C70.4001 72.7 68.9001 77.6 70.9001 81.9L72.1001 84.6V88.3L84.1001 89.5H70.3001V86.3H43.3001C40.8001 86.3 38.8001 84.3 38.8001 81.8V68.4H27.1001V42.4H30.7001V38.8H38.7001V31.1C38.7001 28.6 40.7001 26.6 43.2001 26.6H74.6001C77.1001 26.6 79.1001 28.6 79.1001 31.1V53.9L83.2001 54.3L88.9001 69.6ZM32.6001 58.2H43.8001C45.3001 58.2 46.7001 58.8 47.7001 59.8V44.5C47.7001 42.3 45.9001 40.6 43.8001 40.6H32.6001V58.2ZM32.6001 63H47.6001C47.2001 61.3 45.6001 60 43.8001 60H32.6001V63ZM45.5001 66.6L45.9001 67.4C46.4001 68.4 47.4001 69.1 48.6001 69.1C49.7001 69.1 50.8001 68.5 51.3001 67.4L51.7001 66.6H68.2001V44.2H66.4001V64.8H30.8001V44.2H29.0001V66.6H45.5001ZM64.5001 58.2V40.6H53.4001C51.2001 40.6 49.5001 42.4 49.5001 44.5V59.8C50.5001 58.8 51.9001 58.2 53.4001 58.2H64.5001ZM53.4001 60C51.5001 60 50.0001 61.3 49.6001 63H64.6001V60H53.4001ZM69.3001 82.6C68.8001 81.5 68.5001 80.3 68.4001 79H40.5001V81.7C40.5001 83.2 41.7001 84.4 43.2001 84.4H70.1001L69.3001 82.6ZM77.3001 35.6H40.5001V38.7H43.7001C45.7001 38.7 47.5001 39.8 48.5001 41.3C49.5001 39.7 51.3001 38.7 53.3001 38.7H66.3001V42.3H70.0001V68.4H52.7001C51.8001 69.9 50.3001 70.8 48.5001 70.8C46.8001 70.8 45.2001 69.9 44.3001 68.4H40.4001V77.2H68.1001C68.2001 76.4 68.3001 75.6 68.5001 74.8C69.2001 72.4 70.7001 70.3 72.7001 68.8V62.2C72.7001 60 74.5001 58.2 76.7001 58.2C76.8001 58.2 77.0001 58.2 77.1001 58.2V35.6H77.3001ZM77.3001 31.1C77.3001 29.6 76.1001 28.4 74.6001 28.4H43.3001C41.8001 28.4 40.6001 29.6 40.6001 31.1V33.8H77.4001V31.1H77.3001ZM44.9001 45.4H35.2001V47.2H44.9001V45.4ZM35.3001 50.8H41.3001V49H35.3001V50.8ZM52.2001 47.2H61.9001V45.4H52.2001V47.2ZM52.2001 50.8H58.2001V49H52.2001V50.8Z" fill="black"/>
</svg>
