<svg width="124" height="40" viewBox="0 0 124 40" fill="none" xmlns="http://www.w3.org/2000/svg">
<path d="M56.5333 11.2C54.4 11.2 52.5333 9.33333 52.5333 7.2C52.5333 5.06667 54.4 3.2 56.5333 3.2C58.6667 3.2 60.5333 5.06667 60.5333 7.2C60.5333 9.33333 58.9333 11.2 56.5333 11.2ZM72.5333 34.1333C72 34.1333 71.4667 33.6 71.4667 33.0667V0H64.8V34.6667C64.8 37.3333 66.9333 39.7333 69.8667 39.7333H74.6667V34.4H72.5333V34.1333ZM0 2.66667V11.2H5.33333V8.8H13.6V34.6667H11.2V40H22.9333V34.6667H20.5333V8.8H28.8V11.2H34.1333V2.66667H0ZM28.8 14.9333V34.1333H26.4V39.4667H42.6667V34.1333H35.4667V20.5333H42.6667V15.2H28.8V14.9333ZM45.8667 14.9333V20.2667H53.3333V34.1333H46.1333V39.4667H62.6667V34.1333H60.2667V14.9333H45.8667ZM88.8 34.1333C86.6667 33.8667 81.8667 33.0667 81.8667 27.2C81.8667 21.3333 86.9333 20 88.8 20C90.6667 20 91.2 20 92 20.2667V24.8H97.3333V16.5333C97.3333 16.5333 95.2 15.7333 93.6 15.2C92.2667 14.9333 90.9333 14.6667 88.5333 14.6667C85.6 14.6667 75.2 15.7333 75.2 27.2C75.2 38.6667 85.6 39.4667 88.5333 39.4667H95.4667V34.1333H88.8ZM124 27.2C124 28 124 28.8 123.733 29.6H106.4C106.667 32.8 110.933 34.1333 112.8 34.1333H120.267V39.4667H113.333C110.4 39.4667 100 38.6667 100 27.2C100 16.8 108.533 14.6667 112 14.6667C116 14.6667 124 17.6 124 27.2ZM117.6 24.8C117.6 22.1333 114.933 20 112 20C109.067 20 106.4 22.1333 106.4 24.5333V24.8H117.6Z" fill="#333333"/>
</svg>
