<svg width="182" height="58" viewBox="0 0 182 58" fill="none" xmlns="http://www.w3.org/2000/svg">
<g clip-path="url(#clip0_3185_56)">
<path d="M44.3954 12.5523C48.4362 12.6057 48.4362 6.35709 44.3954 6.4105C40.3545 6.35709 40.3545 12.6057 44.3954 12.5523Z" fill="#FF4E0E"/>
<path d="M56.7333 30.5485C56.3023 30.5485 55.9252 30.1747 55.9252 29.7474V3.89844H50.9145V30.869C50.8606 35.0347 55.6558 34.9813 58.673 34.7677V30.5485H56.7333Z" fill="#FF4E0E"/>
<path d="M0 5.76953V12.3386H4.25636V10.6296H10.7756V30.5504H8.836V34.7695H18.0491V30.5504H16.1095V10.6296H22.5749V12.3386H26.8313V5.76953H0Z" fill="#FF4E0E"/>
<path d="M46.9276 30.5503V15.543H36.0981V19.8155H41.917V30.5503H36.0981V34.7695H48.975V30.5503H46.9276Z" fill="#FF4E0E"/>
<path d="M22.5747 15.543V30.5503H20.5273V34.7695H33.5658V30.5503H27.6392V19.8155H33.5658V15.543C31.4107 15.543 24.676 15.5964 22.5747 15.543Z" fill="#FF4E0E"/>
<path d="M83.4033 23.2327C83.6726 18.159 93.0474 17.5715 92.6703 23.2327H83.4033ZM96.3879 19.4408C93.5862 14.2069 85.3967 14.2603 81.3559 17.7852C77.315 22.2179 76.6685 29.2143 82.7028 33.38C83.942 34.9288 93.6401 34.8754 94.7715 34.6084V30.496C91.8621 30.7096 84.3731 30.9767 83.8343 26.7575H97.1422C97.4654 24.9417 97.3038 21.2032 96.3879 19.4408Z" fill="#FF4E0E"/>
<path d="M76.5068 23.3396C76.3452 16.1831 78.1232 16.0763 69.7182 15.3286C56.8952 14.2605 55.0634 35.196 68.91 34.7687H75.106V30.5496H70.3109C60.3973 30.4428 63.7916 17.091 72.3043 19.8682V23.2862H76.5068V23.3396Z" fill="#FF4E0E"/>
<path d="M15.5169 51.8026C16.0557 54.8468 8.29725 54.8468 8.83603 51.8026C9.32093 49.0789 7.05805 44.0586 12.1765 44.2722C15.1936 44.3256 15.6247 45.554 15.5169 47.263C15.5169 47.5301 15.4091 47.6369 15.1936 47.6369C14.8704 47.5301 13.5773 47.9039 13.6312 47.263C14.17 45.554 10.614 45.3404 10.7218 46.9426V51.4822C10.5062 52.9242 13.7928 52.8708 13.6312 51.4822C13.685 51.1617 13.4695 50.5208 14.0083 50.5743C15.2475 50.6277 15.6785 50.3072 15.5169 51.8026Z" fill="#FF4E0E"/>
<path d="M22.6287 46.9461C22.7903 45.5575 19.396 45.5041 19.5577 46.9461V51.4857C19.396 52.9276 22.7903 52.8742 22.6287 51.4857V46.9461ZM17.6719 46.5722C17.187 43.528 25.0532 43.528 24.6222 46.5722V51.8061C25.1071 54.8503 17.2409 54.8503 17.6719 51.8061V46.5722Z" fill="#FF4E0E"/>
<path d="M29.0941 52.445C29.3635 52.6052 32.8117 52.0711 32.6501 52.7654C32.5962 53.0859 32.8656 54.1006 32.2729 53.9938C32.0574 53.8336 26.8313 54.4211 27.1545 53.62V44.7544C27.0468 44.1135 28.4476 44.4874 28.717 44.3805C28.9864 44.3805 29.0403 44.4874 29.0403 44.7544V52.445H29.0941Z" fill="#FF4E0E"/>
<path d="M35.0205 53.996C34.7511 53.996 34.6973 53.8892 34.6973 53.6221V44.7566C34.6973 44.4895 34.805 44.3827 35.0205 44.3827C35.236 44.5429 40.5161 44.0089 40.2467 44.7031C40.1928 45.0236 40.4622 46.0383 39.8696 45.9315H36.583V48.228C36.9063 48.3882 40.1389 47.8542 40.0312 48.5485C39.9773 48.8689 40.2467 49.8302 39.654 49.7234H36.583V52.3403C36.9063 52.5006 40.57 51.9665 40.3545 52.6608C40.3006 52.9812 40.57 53.996 39.9773 53.8892H35.0205" fill="#FF4E0E"/>
<path d="M48.8672 48.9755C49.5676 48.8152 49.0827 51.539 49.2443 51.806C49.7831 54.8502 42.0247 54.8502 42.5635 51.806V46.5721C42.2941 42.8337 51.2917 43.9552 48.9211 47.4801C46.0655 47.8539 48.5439 45.8779 45.9039 45.8245C43.4255 45.4506 44.7725 50.2572 44.4492 51.4322C44.2337 52.8742 47.5202 52.8208 47.3586 51.4322V50.4709C46.1194 50.4175 45.3651 50.9515 45.5806 49.2425C45.419 48.6016 48.5439 49.1357 48.8672 48.9755Z" fill="#FF4E0E"/>
<path d="M53.6084 53.62C53.7162 54.2608 52.3154 53.887 52.046 53.9938C51.7766 53.9938 51.7227 53.887 51.7227 53.62V44.7544C51.6149 44.1135 53.0158 44.4874 53.2852 44.3805C53.5545 44.3805 53.6084 44.4874 53.6084 44.7544V53.62Z" fill="#FF4E0E"/>
<path d="M61.1513 46.9461C61.313 45.5575 57.9187 45.5041 58.0803 46.9461V51.4857C57.9187 52.9276 61.313 52.8742 61.1513 51.4857V46.9461ZM56.1407 46.5722C55.6558 43.528 63.522 43.528 63.091 46.5722V51.8061C63.5759 54.8503 55.7097 54.8503 56.1407 51.8061V46.5722Z" fill="#FF4E0E"/>
<path d="M114.814 12.6055H114.491V38.5613H114.814V12.6055Z" fill="#FF4E0E"/>
<path d="M177.097 18.5322C173.81 15.3278 169.877 13.6722 165.244 13.6722C161.634 13.6722 158.401 14.6869 155.653 16.663L159.64 1.76243H180.976V0H158.347L153.067 19.4401L154.522 19.814H154.845V19.6538C157.701 16.8766 161.203 15.4346 165.298 15.4346C169.392 15.4346 172.948 16.8766 175.858 19.7606C178.767 22.6446 180.222 26.1694 180.222 30.2284C180.222 34.2873 178.767 37.8122 175.858 40.6961C172.948 43.5801 169.392 45.0221 165.298 45.0221C161.203 45.0221 157.647 43.5801 154.738 40.6427C154.145 40.1087 153.66 39.5212 153.229 38.9337L153.121 38.7735L151.667 39.8416L151.774 40.0018C152.259 40.6427 152.798 41.337 153.444 41.9245C156.677 45.1289 160.664 46.7845 165.298 46.7845C169.877 46.7845 173.864 45.1289 177.151 41.9245C180.383 38.7201 182.054 34.768 182.054 30.175C182 25.6888 180.33 21.7367 177.097 18.5322Z" fill="#FF4E0E"/>
<path d="M149.781 27.8774V2.5625H148.38V27.8774H133.617L142.938 2.5625H141.43L132.109 27.8774H132.001V29.266H148.38V36.3691H149.781V29.266H155.923V27.8774H149.781Z" fill="#FF4E0E"/>
<path d="M157.324 56.8225H153.014L152.583 57.7838H151.936L154.953 51.375H155.438L158.455 57.7838H157.809L157.324 56.8225ZM157.054 56.235L155.169 52.2295L153.283 56.235H157.054Z" fill="#FF4E0E"/>
<path d="M159.264 51.3769H159.695L163.789 56.6108V51.3769H164.382V57.7858H163.951L159.91 52.5519V57.7858H159.318V51.3769H159.264ZM163.305 49.8815V50.469C163.035 50.5758 162.766 50.6292 162.55 50.6292C162.335 50.6292 162.119 50.5758 161.85 50.5224C161.634 50.469 161.365 50.4156 161.149 50.4156C160.934 50.4156 160.665 50.469 160.395 50.5758V49.9883C160.665 49.8815 160.934 49.8281 161.149 49.8281C161.419 49.8281 161.634 49.8815 161.904 49.9349C162.119 49.9883 162.335 50.0417 162.55 50.0417C162.766 50.0417 162.981 49.9883 163.305 49.8815Z" fill="#FF4E0E"/>
<path d="M172.41 54.5821C172.41 55.5434 172.086 56.3445 171.386 56.9854C170.739 57.6263 169.931 58.0002 168.961 58.0002C167.992 58.0002 167.183 57.6797 166.537 56.9854C165.89 56.3445 165.513 55.5434 165.513 54.5821C165.513 53.6208 165.836 52.8197 166.537 52.1788C167.183 51.5379 167.992 51.1641 168.961 51.1641C169.931 51.1641 170.739 51.4845 171.386 52.1788C172.086 52.8731 172.41 53.6742 172.41 54.5821ZM168.961 51.7515C168.153 51.7515 167.507 52.0186 166.968 52.5526C166.429 53.0867 166.16 53.781 166.16 54.5287C166.16 55.3298 166.429 55.9707 166.968 56.5048C167.507 57.0388 168.207 57.3059 168.961 57.3059C169.77 57.3059 170.416 57.0388 170.955 56.5048C171.494 55.9707 171.763 55.2764 171.763 54.5287C171.763 53.7276 171.494 53.0867 170.955 52.5526C170.416 52.072 169.77 51.7515 168.961 51.7515Z" fill="#FF4E0E"/>
<path d="M177.205 52.4992C177.043 52.2856 176.774 52.1254 176.504 52.0186C176.181 51.8584 175.858 51.8049 175.535 51.8049C175.05 51.8049 174.672 51.9118 174.403 52.1254C174.134 52.339 173.972 52.606 173.972 52.9265C173.972 53.1935 174.08 53.4606 174.295 53.6742C174.511 53.8878 174.726 54.048 175.05 54.1549L176.666 54.5821C177.043 54.6889 177.366 54.9026 177.636 55.1696C177.905 55.4366 178.013 55.8105 178.013 56.2377C178.013 56.7184 177.797 57.1456 177.42 57.4661C176.989 57.8399 176.45 58.0002 175.75 58.0002C175.157 58.0002 174.672 57.8933 174.241 57.6263C173.81 57.3593 173.487 57.0388 173.218 56.665L173.703 56.3445C173.918 56.7184 174.241 56.9854 174.619 57.1456C174.996 57.3593 175.373 57.4127 175.75 57.4127C176.343 57.4127 176.774 57.3059 177.043 57.0388C177.313 56.7718 177.474 56.5048 177.474 56.1843C177.474 55.9173 177.366 55.7037 177.205 55.49C177.043 55.2764 176.774 55.1696 176.504 55.0628L174.996 54.6355C174.565 54.4753 174.188 54.2617 173.918 53.9946C173.649 53.6742 173.487 53.3537 173.487 52.9265C173.487 52.4458 173.703 52.072 174.08 51.6981C174.457 51.3777 174.996 51.1641 175.642 51.1641C176.127 51.1641 176.558 51.2709 176.935 51.4311C177.313 51.5913 177.636 51.8584 177.851 52.1254L177.205 52.4992Z" fill="#FF4E0E"/>
</g>
<defs>
<clipPath id="clip0_3185_56">
<rect width="182" height="58" fill="white"/>
</clipPath>
</defs>
</svg>
