<?xml version="1.0" encoding="utf-8"?>
<!-- Generator: Adobe Illustrator 24.1.1, SVG Export Plug-In . SVG Version: 6.00 Build 0)  -->
<svg version="1.1" id="Capa_1" xmlns="http://www.w3.org/2000/svg" xmlns:xlink="http://www.w3.org/1999/xlink" x="0px" y="0px"
	 viewBox="0 0 149 48" style="enable-background:new 0 0 149 48;" xml:space="preserve">
<style type="text/css">
	.st0{clip-path:url(#SVGID_2_);}
	.st1{fill:#FF4E0E;}
</style>
<g>
	<g>
		<defs>
			<rect id="SVGID_1_" width="149" height="48"/>
		</defs>
		<clipPath id="SVGID_2_">
			<use xlink:href="#SVGID_1_"  style="overflow:visible;"/>
		</clipPath>
		<g class="st0">
			<path class="st1" d="M36.3,10.4c3.3,0,3.3-5.1,0-5.1C33,5.3,33,10.4,36.3,10.4z"/>
			<path class="st1" d="M46.4,25.3c-0.4,0-0.7-0.3-0.7-0.7V3.2h-4.1v22.3c0,3.4,3.9,3.4,6.4,3.2v-3.5L46.4,25.3L46.4,25.3z"/>
			<path class="st1" d="M0,4.8v5.4h3.5V8.8h5.3v16.5H7.2v3.5h7.5v-3.5h-1.6V8.8h5.3v1.4H22V4.8H0z"/>
			<path class="st1" d="M38.4,25.3V12.9h-8.9v3.5h4.8v8.9h-4.8v3.5H40v-3.5H38.4z"/>
			<path class="st1" d="M18.5,12.9v12.4h-1.7v3.5h10.7v-3.5h-4.9v-8.9h4.9v-3.5C25.7,12.9,20.2,12.9,18.5,12.9z"/>
			<path class="st1" d="M68.3,19.2c0.2-4.2,7.9-4.7,7.6,0H68.3z M78.9,16.1c-2.3-4.3-9-4.3-12.3-1.4c-3.3,3.7-3.8,9.5,1.1,12.9
				c1,1.3,9,1.2,9.9,1v-3.4c-2.4,0.2-8.5,0.4-9-3.1h10.9C79.8,20.6,79.7,17.5,78.9,16.1z"/>
			<path class="st1" d="M62.6,19.3c-0.1-5.9,1.3-6-5.6-6.6c-10.5-0.9-12,16.4-0.7,16.1h5.1v-3.5h-3.9c-8.1-0.1-5.3-11.1,1.6-8.8v2.8
				H62.6L62.6,19.3z"/>
			<path class="st1" d="M12.7,42.9c0.4,2.5-5.9,2.5-5.5,0c0.4-2.3-1.5-6.4,2.7-6.2c2.5,0,2.8,1.1,2.7,2.5c0,0.2-0.1,0.3-0.3,0.3
				C12,39.4,11,39.7,11,39.2c0.4-1.4-2.5-1.6-2.4-0.3v3.8c-0.2,1.2,2.5,1.1,2.4,0c0-0.3-0.1-0.8,0.3-0.8
				C12.5,41.9,12.8,41.6,12.7,42.9z"/>
			<path class="st1" d="M18.5,38.9c0.1-1.1-2.6-1.2-2.5,0v3.8c-0.1,1.2,2.6,1.1,2.5,0V38.9z M14.5,38.5c-0.4-2.5,6-2.5,5.7,0v4.3
				c0.4,2.5-6,2.5-5.7,0C14.5,42.8,14.5,38.5,14.5,38.5z"/>
			<path class="st1" d="M23.8,43.4c0.2,0.1,3-0.3,2.9,0.3c0,0.3,0.2,1.1-0.3,1c-0.2-0.1-4.5,0.4-4.2-0.3V37
				c-0.1-0.5,1.1-0.2,1.3-0.3c0.2,0,0.3,0.1,0.3,0.3V43.4L23.8,43.4z"/>
			<path class="st1" d="M28.7,44.7c-0.2,0-0.3-0.1-0.3-0.3V37c0-0.2,0.1-0.3,0.3-0.3c0.2,0.1,4.5-0.3,4.3,0.3c0,0.3,0.2,1.1-0.3,1
				H30v1.9c0.3,0.1,2.9-0.3,2.8,0.3c0,0.3,0.2,1.1-0.3,1H30v2.2c0.3,0.1,3.3-0.3,3.1,0.3c0,0.3,0.2,1.1-0.3,1H28.7"/>
			<path class="st1" d="M40,40.5c0.6-0.1,0.2,2.1,0.3,2.3c0.4,2.5-5.9,2.5-5.5,0v-4.3c-0.2-3.1,7.1-2.2,5.2,0.8
				c-2.3,0.3-0.3-1.3-2.5-1.4c-2-0.3-0.9,3.7-1.2,4.6c-0.2,1.2,2.5,1.1,2.4,0v-0.8c-1,0-1.6,0.4-1.5-1C37.2,40.2,39.7,40.7,40,40.5z
				"/>
			<path class="st1" d="M43.9,44.4c0.1,0.5-1.1,0.2-1.3,0.3c-0.2,0-0.3-0.1-0.3-0.3V37c-0.1-0.5,1.1-0.2,1.3-0.3
				c0.2,0,0.3,0.1,0.3,0.3V44.4z"/>
			<path class="st1" d="M50.1,38.9c0.1-1.1-2.6-1.2-2.5,0v3.8c-0.1,1.2,2.6,1.1,2.5,0V38.9z M46,38.5c-0.4-2.5,6-2.5,5.7,0v4.3
				c0.4,2.5-6,2.5-5.7,0V38.5z"/>
			<path class="st1" d="M94,10.4h-0.3v21.5H94V10.4z"/>
			<path class="st1" d="M145,15.3c-2.7-2.7-5.9-4-9.7-4c-3,0-5.6,0.8-7.9,2.5l3.3-12.3h17.5V0h-18.5l-4.3,16.1l1.2,0.3h0.3v-0.1
				c2.3-2.3,5.2-3.5,8.6-3.5c3.4,0,6.3,1.2,8.6,3.6c2.4,2.4,3.6,5.3,3.6,8.7s-1.2,6.3-3.6,8.7c-2.4,2.4-5.3,3.6-8.6,3.6
				c-3.4,0-6.3-1.2-8.6-3.6c-0.5-0.4-0.9-0.9-1.2-1.4l-0.1-0.1l-1.2,0.9l0.1,0.1c0.4,0.5,0.8,1.1,1.4,1.6c2.6,2.7,5.9,4,9.7,4
				c3.7,0,7-1.4,9.7-4c2.6-2.7,4-5.9,4-9.7C149,21.3,147.6,18,145,15.3z"/>
			<path class="st1" d="M122.6,23.1v-21h-1.1v21h-12.1l7.6-21h-1.2l-7.6,21h-0.1v1.1h13.4v5.9h1.1v-5.9h5v-1.1H122.6z"/>
			<path class="st1" d="M128.8,47h-3.5l-0.4,0.8h-0.5l2.5-5.3h0.4l2.5,5.3h-0.5L128.8,47z M128.6,46.5l-1.5-3.3l-1.5,3.3H128.6z"/>
			<path class="st1" d="M130.4,42.5h0.4l3.4,4.3v-4.3h0.5v5.3h-0.4l-3.3-4.3v4.3h-0.5L130.4,42.5L130.4,42.5z M133.7,41.3v0.5
				c-0.2,0.1-0.4,0.1-0.6,0.1c-0.2,0-0.4,0-0.6-0.1c-0.2,0-0.4-0.1-0.6-0.1c-0.2,0-0.4,0-0.6,0.1v-0.5c0.2-0.1,0.4-0.1,0.6-0.1
				c0.2,0,0.4,0,0.6,0.1c0.2,0,0.4,0.1,0.5,0.1C133.3,41.4,133.4,41.4,133.7,41.3z"/>
			<path class="st1" d="M141.1,45.2c0,0.8-0.3,1.5-0.8,2s-1.2,0.8-2,0.8s-1.5-0.3-2-0.8s-0.8-1.2-0.8-2s0.3-1.5,0.8-2s1.2-0.8,2-0.8
				s1.5,0.3,2,0.8C140.9,43.8,141.1,44.4,141.1,45.2z M138.3,42.8c-0.7,0-1.2,0.2-1.6,0.7c-0.4,0.4-0.7,1-0.7,1.6
				c0,0.7,0.2,1.2,0.7,1.6c0.4,0.4,1,0.7,1.6,0.7c0.7,0,1.2-0.2,1.6-0.7c0.4-0.4,0.7-1,0.7-1.6c0-0.7-0.2-1.2-0.7-1.6
				C139.5,43.1,139,42.8,138.3,42.8z"/>
			<path class="st1" d="M145.1,43.4c-0.1-0.2-0.4-0.3-0.6-0.4c-0.3-0.1-0.5-0.2-0.8-0.2c-0.4,0-0.7,0.1-0.9,0.3s-0.4,0.4-0.4,0.7
				c0,0.2,0.1,0.4,0.3,0.6c0.2,0.2,0.4,0.3,0.6,0.4l1.3,0.4c0.3,0.1,0.6,0.3,0.8,0.5s0.3,0.5,0.3,0.9s-0.2,0.8-0.5,1
				c-0.4,0.3-0.8,0.4-1.4,0.4c-0.5,0-0.9-0.1-1.2-0.3c-0.4-0.2-0.6-0.5-0.8-0.8l0.4-0.3c0.2,0.3,0.4,0.5,0.8,0.7
				c0.3,0.2,0.6,0.2,0.9,0.2c0.5,0,0.8-0.1,1.1-0.3c0.2-0.2,0.4-0.4,0.4-0.7c0-0.2-0.1-0.4-0.2-0.6c-0.1-0.2-0.4-0.3-0.6-0.4
				l-1.2-0.4c-0.4-0.1-0.7-0.3-0.9-0.5c-0.2-0.3-0.4-0.5-0.4-0.9s0.2-0.7,0.5-1s0.8-0.4,1.3-0.4c0.4,0,0.8,0.1,1.1,0.2
				c0.3,0.1,0.6,0.4,0.8,0.6L145.1,43.4z"/>
		</g>
	</g>
</g>
</svg>
