<svg width="53" height="41" viewBox="0 0 53 41" fill="none" xmlns="http://www.w3.org/2000/svg">
<path d="M0.136719 0.09375H48.1367V36.0938H52.1367V40.0938H16.1367V36.0938H44.1367V4.09375H0.136719V0.09375ZM8.13672 6.09375C9.59505 6.09375 10.9284 6.46875 12.1367 7.21875C13.3451 7.92708 14.3034 8.88542 15.0117 10.0938C15.7617 11.3021 16.1367 12.6354 16.1367 14.0938C16.1367 15.5521 15.7617 16.8854 15.0117 18.0938C14.3034 19.3021 13.3451 20.2812 12.1367 21.0312C10.9284 21.7396 9.59505 22.0938 8.13672 22.0938C6.67839 22.0938 5.34505 21.7396 4.13672 21.0312C2.92839 20.2812 1.94922 19.3021 1.19922 18.0938C0.490885 16.8854 0.136719 15.5521 0.136719 14.0938C0.136719 12.6354 0.490885 11.3021 1.19922 10.0938C1.94922 8.88542 2.92839 7.92708 4.13672 7.21875C5.34505 6.46875 6.67839 6.09375 8.13672 6.09375ZM20.1367 8.09375H30.1367V12.0938H20.1367V8.09375ZM34.1367 8.09375H40.1367V12.0938H34.1367V8.09375ZM8.13672 10.0938C7.01172 10.0938 6.05339 10.4896 5.26172 11.2812C4.51172 12.0312 4.13672 12.9688 4.13672 14.0938C4.13672 15.2188 4.51172 16.1771 5.26172 16.9688C6.05339 17.7188 7.01172 18.0938 8.13672 18.0938C9.26172 18.0938 10.1992 17.7188 10.9492 16.9688C11.7409 16.1771 12.1367 15.2188 12.1367 14.0938C12.1367 12.9688 11.7409 12.0312 10.9492 11.2812C10.1992 10.4896 9.26172 10.0938 8.13672 10.0938ZM20.1367 16.0938H40.1367V20.0938H20.1367V16.0938ZM0.136719 24.0938H11.1367C12.1367 24.0938 13.0742 24.3229 13.9492 24.7812L20.1367 28.0312L27.1992 24.3438L29.0742 27.8438L22.0117 31.5938C21.4284 31.8854 20.8034 32.0312 20.1367 32.0312C19.4701 32.0312 18.8451 31.8854 18.2617 31.5938L14.1367 29.4062V40.0938H10.1367V28.0938H4.13672V40.0938H0.136719V24.0938Z" fill="#333333"/>
</svg>
