<svg width="9" height="5" viewBox="0 0 9 5" fill="none" xmlns="http://www.w3.org/2000/svg">
<path d="M8.25726 0.136611C8.1799 0.0546441 8.07676 -4.27179e-07 7.94783 -4.15893e-07C7.8189 -4.04607e-07 7.71576 0.0546442 7.6384 0.136612L4.64727 3.30601L1.65613 0.136612C1.57877 0.0546447 1.47563 1.50662e-07 1.3467 1.61948e-07C1.21777 1.73234e-07 1.11463 0.0546448 1.03727 0.136612L0.779418 0.409836C0.598918 0.601093 0.598918 0.874316 0.779418 1.06557L4.31205 4.86339C4.38941 4.94536 4.49255 5 4.62148 5C4.75041 5 4.85355 4.94536 4.93091 4.86339L8.51511 1.06557C8.59247 0.983605 8.64404 0.846994 8.64404 0.737705C8.64404 0.601093 8.59247 0.491803 8.51511 0.409835L8.25726 0.136611Z" fill="black"/>
</svg>
