<svg width="30" height="18" viewBox="0 0 30 18" fill="none" xmlns="http://www.w3.org/2000/svg">
<path d="M1.65436 16.6675C1.93553 16.9485 2.31041 17.1358 2.77902 17.1358C3.24763 17.1358 3.62252 16.9485 3.90368 16.6675L14.7754 5.80427L25.6472 16.6675C25.9283 16.9485 26.3032 17.1358 26.7718 17.1358C27.2404 17.1358 27.6153 16.9485 27.8965 16.6675L28.8337 15.731C29.4897 15.0755 29.4897 14.139 28.8337 13.4835L15.9938 0.466293C15.7126 0.185347 15.3378 -0.00195049 14.8691 -0.00195057C14.4005 -0.00195065 14.0256 0.185347 13.7445 0.466293L0.717142 13.4835C0.435976 13.7644 0.248533 14.2326 0.248533 14.6072C0.248533 15.0755 0.435976 15.4501 0.717142 15.731L1.65436 16.6675Z" fill="#333333"/>
</svg>
