<svg width="36" height="37" viewBox="0 0 36 37" fill="none" xmlns="http://www.w3.org/2000/svg">
<path d="M18 0.625C21.237 0.625 24.2448 1.44141 27.0234 3.07422C29.7161 4.64974 31.8503 6.78385 33.4258 9.47656C35.0586 12.2552 35.875 15.263 35.875 18.5C35.875 21.737 35.0586 24.7448 33.4258 27.5234C31.8503 30.2161 29.7161 32.3503 27.0234 33.9258C24.2448 35.5586 21.237 36.375 18 36.375C14.763 36.375 11.7552 35.5586 8.97656 33.9258C6.28385 32.3503 4.14974 30.2161 2.57422 27.5234C0.941406 24.7448 0.125 21.737 0.125 18.5C0.125 15.263 0.941406 12.2552 2.57422 9.47656C4.14974 6.78385 6.28385 4.64974 8.97656 3.07422C11.7552 1.44141 14.763 0.625 18 0.625ZM18 3.375C15.2786 3.375 12.7292 4.0625 10.3516 5.4375C8.08854 6.78385 6.28385 8.58854 4.9375 10.8516C3.5625 13.2292 2.875 15.7786 2.875 18.5C2.875 21.2214 3.5625 23.7708 4.9375 26.1484C6.28385 28.4115 8.08854 30.2161 10.3516 31.5625C12.7292 32.9375 15.2786 33.625 18 33.625C20.7214 33.625 23.2708 32.9375 25.6484 31.5625C27.9115 30.2161 29.7161 28.4115 31.0625 26.1484C32.4375 23.7708 33.125 21.2214 33.125 18.5C33.125 15.7786 32.4375 13.2292 31.0625 10.8516C29.7161 8.58854 27.9115 6.78385 25.6484 5.4375C23.2708 4.0625 20.7214 3.375 18 3.375ZM11.125 13C12.2995 13 13.4596 13.2578 14.6055 13.7734C15.1784 14.0599 15.6654 14.3607 16.0664 14.6758H16.1094L14.4336 16.8242L13.9609 16.5664C13.5885 16.3372 13.2018 16.1654 12.8008 16.0508C12.2279 15.8503 11.6693 15.75 11.125 15.75C10.5807 15.75 10.0365 15.8503 9.49219 16.0508C9.0625 16.1654 8.66146 16.3372 8.28906 16.5664L7.85938 16.8242L6.14062 14.6758L6.82812 14.2461C7.3724 13.9023 7.94531 13.6302 8.54688 13.4297C9.40625 13.1432 10.2656 13 11.125 13ZM24.875 13C26.0495 13 27.2096 13.2578 28.3555 13.7734C28.9284 14.0599 29.4154 14.3607 29.8164 14.6758H29.8594L28.1836 16.8242L27.7109 16.5664C27.3385 16.3372 26.9518 16.1654 26.5508 16.0508C25.9779 15.8503 25.4193 15.75 24.875 15.75C24.3307 15.75 23.7865 15.8503 23.2422 16.0508C22.8125 16.1654 22.4115 16.3372 22.0391 16.5664L21.6094 16.8242L19.9336 14.6758L20.5781 14.2461C21.1224 13.9023 21.6953 13.6302 22.2969 13.4297C23.1562 13.1432 24.0156 13 24.875 13ZM8.375 22.625H27.625L27.3242 23.3555C27.0664 23.9284 26.7513 24.487 26.3789 25.0312C25.8633 25.8047 25.2617 26.4922 24.5742 27.0938C23.7435 27.8099 22.8411 28.3685 21.8672 28.7695C20.6641 29.2565 19.375 29.5 18 29.5C16.625 29.5 15.3359 29.2565 14.1328 28.7695C13.1589 28.3685 12.2565 27.8099 11.4258 27.0938C10.7383 26.4922 10.1367 25.8047 9.62109 25.0312C9.2487 24.487 8.93359 23.9284 8.67578 23.3555C8.5612 23.0977 8.46094 22.8542 8.375 22.625Z" fill="#62348C"/>
</svg>
