<svg width="289" height="137" viewBox="0 0 289 137" fill="none" xmlns="http://www.w3.org/2000/svg">
<path d="M7.29734 3.95735L15.7899 24.9376C16.1674 25.817 16.2303 26.508 16.419 27.199H16.4819C16.7336 25.817 17.0481 25.0633 17.4256 24.2467L25.6036 3.89453H33.0897V6.34433H29.5668L29.8185 28.5181H33.0897V30.9679H23.7793V28.5181H26.6731L26.736 8.66849H26.6731C26.4214 9.42227 26.2327 10.1761 26.044 10.7414L17.8659 30.9051H14.9092L6.79408 11.1811C6.54245 10.5529 6.29081 9.86198 6.03918 8.98256H5.91337L5.85046 28.5809H9.12168V31.0307H0V28.5809H3.14541L3.39704 6.40714H0V3.95735H7.29734Z" fill="#FEFEFE"/>
<path d="M52.6544 17.8395C52.6544 17.9651 52.4027 26.8221 52.4027 28.5809H55.2965V31.0307H49.5719V30.6538C49.5719 29.0206 49.7606 27.7015 49.9493 26.6964H49.8864C48.6912 29.9628 46.6781 31.4704 43.2181 31.4704C39.3178 31.4704 36.9902 29.3975 36.9902 25.7542C36.9902 21.6084 40.1356 19.6611 48.8799 19.6611H49.6348V18.2792C49.6348 14.5103 48.2508 13.0027 45.0425 13.0027C43.4698 13.0027 41.8342 13.3168 40.576 13.8193V16.9601H37.7451V12.1861C39.9469 11.3067 42.3374 10.6157 44.7908 10.6157C50.3268 10.6157 52.6544 12.8771 52.6544 17.8395ZM43.8472 29.0206C47.2443 29.0206 49.5719 26.5708 49.5719 21.8596H47.9362C40.7647 21.8596 40.1356 23.9325 40.1356 25.7542C40.1356 27.7015 41.6454 29.0206 43.8472 29.0206Z" fill="#FEFEFE"/>
<path d="M64.6067 11.0555H70.8975V13.5053H64.6067L64.4808 18.4049C64.4179 21.6713 64.4179 23.116 64.4179 24.3095C64.4179 26.3824 64.6067 28.895 67.3117 28.895C69.0731 28.895 70.3942 28.4553 71.4636 28.0784L71.3378 30.591C70.2684 31.0935 68.3811 31.5333 66.8713 31.5333C64.4179 31.5333 61.2725 30.9679 61.2725 25.6914C61.2725 22.5507 61.3983 15.8294 61.3983 13.5681H58.2529V11.1183H61.4612L61.5871 6.21872L64.7325 6.03027L64.6067 11.0555Z" fill="#FEFEFE"/>
<path d="M88.2601 10.9925L87.9455 13.882C87.3164 13.6936 86.4986 13.568 85.8066 13.568C82.158 13.568 79.8933 17.0228 79.8304 20.9802L79.7046 28.5808H83.1016V31.0306H73.6025V28.5808H76.4333L76.5591 13.5052H73.1621V11.0554H79.7675V11.4322C79.7675 13.5052 79.5158 15.7037 79.3271 17.2741H79.4529C80.5853 12.186 82.9129 10.6785 86.1841 10.6785C86.4357 10.7413 88.0713 10.9297 88.2601 10.9925Z" fill="#FEFEFE"/>
<path d="M96.2496 11.0555L96.1237 28.5809H99.2692V31.0307H89.77V28.5809H92.9154L93.0412 13.5053H89.3926V11.0555H96.2496ZM98.2626 0L100.276 1.69601L93.0412 7.72627L91.154 6.09308L98.2626 0Z" fill="#FEFEFE"/>
<path d="M118.708 11.6208V16.8344H115.814V13.6937C115.059 13.3796 113.549 13.254 112.48 13.254C107.95 13.254 105.56 16.2691 105.56 21.043C105.56 25.5657 108.076 28.895 113.172 28.895C115.122 28.895 116.757 28.3296 118.582 27.7643L118.456 30.5281C116.946 30.9679 114.87 31.4704 112.668 31.4704C105.874 31.4704 102.226 27.513 102.226 21.043C102.226 14.3846 106.692 10.6157 112.228 10.6157C114.43 10.6157 116.694 10.867 118.708 11.6208Z" fill="#FEFEFE"/>
<path d="M128.144 11.0554C128.144 13.254 128.018 19.6611 128.018 22.5506C128.018 26.6964 129.088 28.8321 132.422 28.8321C136.259 28.8321 138.335 26.2567 138.335 19.9124V13.5052H135.19V11.0554H141.544L141.418 28.5809H144.186V31.0307H138.272C138.272 29.9 138.335 28.7693 138.398 28.3296L138.65 26.6336H138.587C137.455 29.5231 134.75 31.5332 131.856 31.5332C127.263 31.5332 124.81 29.4603 124.81 23.1159C124.81 21.734 124.873 18.5932 124.936 13.568H121.728V11.1182H128.144V11.0554Z" fill="#FEFEFE"/>
<path d="M153.684 1.25635L153.496 28.581H156.641V31.0308H147.393V28.581H150.287L150.413 3.70614H146.513V1.25635H153.684Z" fill="#FEFEFE"/>
<path d="M175.954 17.8395C175.954 17.9651 175.703 26.8221 175.703 28.5809H178.596V31.0307H172.872V30.6538C172.872 29.0206 173.06 27.7015 173.249 26.6964H173.186C171.991 29.9628 169.978 31.4704 166.518 31.4704C162.618 31.4704 160.29 29.3975 160.29 25.7542C160.29 21.6084 163.435 19.6611 172.18 19.6611H172.935V18.2792C172.935 14.5103 171.551 13.0027 168.342 13.0027C166.77 13.0027 165.134 13.3168 163.876 13.8193V16.9601H161.045V12.1861C163.247 11.3067 165.637 10.6157 168.091 10.6157C173.627 10.6157 175.954 12.8771 175.954 17.8395ZM167.21 29.0206C170.607 29.0206 172.935 26.5708 172.935 21.8596H171.299C164.127 21.8596 163.498 23.9325 163.498 25.7542C163.435 27.7015 165.008 29.0206 167.21 29.0206Z" fill="#FEFEFE"/>
<path d="M0.692383 98.1802C7.17192 93.6575 31.7061 74.9385 31.7061 63.0665C31.7061 56.9106 26.7993 54.8377 23.3393 54.8377C17.1743 54.8377 13.6515 59.2976 13.0853 64.9509H1.06983C1.06983 58.1041 5.78794 45.1013 23.8426 45.1013C33.0272 45.1013 44.2248 49.624 44.2248 62.4383C44.2248 74.4988 32.2094 85.4915 17.8034 96.9867V97.1751C19.7535 96.9239 22.0812 96.6726 23.9684 96.6726H46.0492V106.409H0.755291V98.1802H0.692383Z" fill="#FEFEFE"/>
<path d="M75.8052 45.1013C88.8272 45.1013 97.5714 55.5286 97.5714 76.4461C97.5714 97.7405 86.4366 107.791 73.9179 107.791C62.2799 107.791 51.8372 101.132 51.8372 78.0165C51.7743 53.1417 63.4752 45.1013 75.8052 45.1013ZM74.7357 98.0546C79.5168 98.0546 84.4865 93.7831 84.4865 76.4461C84.4865 58.2297 79.5167 54.8377 74.9245 54.8377C69.7031 54.8377 64.7962 59.6116 64.7962 77.0743C64.7962 92.7781 68.0675 98.0546 74.7357 98.0546Z" fill="#FEFEFE"/>
<path d="M102.037 98.1802C108.517 93.6575 133.051 74.9385 133.051 63.0665C133.051 56.9106 128.144 54.8377 124.684 54.8377C118.519 54.8377 114.996 59.2976 114.43 64.9509H102.415C102.415 58.1041 107.133 45.1013 125.187 45.1013C134.372 45.1013 145.57 49.624 145.57 62.4383C145.57 74.4988 133.554 85.4915 119.148 96.9867V97.1751C121.098 96.9239 123.426 96.6726 125.313 96.6726H147.394V106.409H102.1V98.1802H102.037Z" fill="#FEFEFE"/>
<path d="M179.351 90.3284H151.986V81.0945L175.891 46.5461H191.367V81.0945H201.81V90.3284H191.367V97.6777H197.28V106.409H173.564V97.6777H179.414V90.3284H179.351ZM179.351 57.476H179.163L163.31 81.3458C164.442 81.1573 165.512 81.0945 166.644 81.0945H179.288V57.476H179.351Z" fill="#FEFEFE"/>
<path d="M3.39669 135.116H6.91955C7.17118 135.116 7.29699 135.241 7.29699 135.492V136.498C7.29699 136.812 7.17118 136.874 6.91955 136.874H1.57235C1.32072 136.874 1.25781 136.749 1.25781 136.435V126.573C1.25781 126.321 1.32072 126.196 1.63526 126.196H3.01924C3.33378 126.196 3.39669 126.321 3.39669 126.573V135.116Z" fill="white"/>
<path d="M16.9846 136.498C16.9846 136.812 16.8588 136.937 16.6071 136.937H15.2232C14.9086 136.937 14.8457 136.812 14.8457 136.498V126.636C14.8457 126.384 14.9086 126.259 15.2232 126.259H16.6071C16.9217 126.259 16.9846 126.384 16.9846 126.636V136.498Z" fill="white"/>
<path d="M30.3843 128.96C30.3843 128.206 29.881 127.829 28.8745 127.829C27.868 127.829 27.3647 128.206 27.3647 128.96V129.211C27.3647 129.776 27.7422 129.965 27.9938 130.028L30.6988 130.97C31.7683 131.347 32.5232 132.038 32.5232 133.231V134.425C32.5232 135.744 31.5796 137 28.8116 137C26.0436 137 25.0371 135.744 25.0371 134.425V133.42C25.0371 133.168 25.1629 133.043 25.4146 133.043H26.7356C26.9873 133.043 27.1131 133.168 27.1131 133.42V134.111C27.1131 134.864 27.7422 135.241 28.7487 135.241C29.7552 135.241 30.4472 134.864 30.4472 134.111V133.608C30.4472 132.917 29.6923 132.666 29.1261 132.477L26.6727 131.535C25.9178 131.221 25.2258 130.467 25.2258 129.525V128.646C25.2258 127.327 26.0436 126.07 28.8116 126.07C31.5166 126.07 32.3974 127.327 32.3974 128.646V129.274C32.3974 129.525 32.2715 129.651 32.0199 129.651H30.6988C30.3843 129.651 30.3214 129.525 30.3214 129.274V128.96H30.3843Z" fill="white"/>
<path d="M46.7402 126.196C46.9918 126.196 47.1177 126.321 47.1177 126.573V127.578C47.1177 127.829 46.9918 127.955 46.7402 127.955H44.5384V136.435C44.5384 136.749 44.4126 136.874 44.161 136.874H42.777C42.5254 136.874 42.3995 136.749 42.3995 136.435V127.955H40.1978C39.8832 127.955 39.8203 127.829 39.8203 127.578V126.573C39.8203 126.321 39.9461 126.196 40.1978 126.196H46.7402Z" fill="white"/>
<path d="M58.6933 126.196C58.9449 126.196 59.1336 126.321 59.1965 126.573L62.0903 136.435C62.1532 136.686 62.0903 136.812 61.7757 136.812H60.3918C60.0772 136.812 60.0143 136.686 59.9514 136.435L59.3852 134.55H56.4915L55.9253 136.435C55.8624 136.686 55.7366 136.812 55.4849 136.812H54.2268C53.9751 136.812 53.8493 136.686 53.9751 136.435L56.9318 126.573C56.9947 126.321 57.1205 126.196 57.4351 126.196H58.6933ZM58.4416 131.158C58.2529 130.404 58.0642 129.085 58.0013 128.269C57.9383 129.085 57.7496 130.404 57.498 131.095L56.9947 132.854H59.0078L58.4416 131.158Z" fill="white"/>
<path d="M79.4522 136.874C79.2006 136.874 79.1377 136.749 79.1377 136.435V126.573C79.1377 126.321 79.2006 126.196 79.5151 126.196H82.9122C85.7431 126.196 86.7496 127.452 86.7496 128.771V134.299C86.7496 135.618 85.7431 136.874 82.9122 136.874H79.4522ZM81.2137 127.955V135.116H82.9122C83.9816 135.116 84.6107 134.739 84.6107 133.922V129.148C84.6107 128.332 83.9816 127.955 82.9122 127.955H81.2137Z" fill="white"/>
<path d="M95.4312 136.874C95.1166 136.874 95.0537 136.749 95.0537 136.435V126.573C95.0537 126.321 95.1166 126.196 95.4312 126.196H100.778C101.03 126.196 101.156 126.321 101.156 126.573V127.578C101.156 127.829 101.03 127.955 100.778 127.955H97.1297V130.467H100.464C100.715 130.467 100.841 130.53 100.841 130.844V131.786C100.841 132.038 100.715 132.163 100.464 132.163H97.1297V135.053H100.904C101.219 135.053 101.282 135.178 101.282 135.43V136.435C101.282 136.749 101.156 136.812 100.904 136.812H95.4312V136.874Z" fill="white"/>
<path d="M119.084 136.874C118.77 136.874 118.707 136.749 118.707 136.435V126.573C118.707 126.321 118.77 126.196 119.084 126.196H124.432C124.683 126.196 124.809 126.321 124.809 126.573V127.578C124.809 127.829 124.683 127.955 124.432 127.955H120.783V130.467H124.117C124.369 130.467 124.495 130.53 124.495 130.844V131.786C124.495 132.038 124.369 132.163 124.117 132.163H120.783V135.053H124.557C124.872 135.053 124.935 135.178 124.935 135.43V136.435C124.935 136.749 124.809 136.812 124.557 136.812H119.084V136.874Z" fill="white"/>
<path d="M137.958 128.96C137.958 128.206 137.454 127.829 136.448 127.829C135.441 127.829 134.938 128.206 134.938 128.96V129.211C134.938 129.776 135.315 129.965 135.567 130.028L138.272 130.97C139.342 131.347 140.096 132.038 140.096 133.231V134.425C140.096 135.744 139.153 137 136.385 137C133.617 137 132.61 135.744 132.61 134.425V133.42C132.61 133.168 132.736 133.043 132.988 133.043H134.309C134.561 133.043 134.686 133.168 134.686 133.42V134.111C134.686 134.864 135.315 135.241 136.322 135.241C137.328 135.241 138.02 134.864 138.02 134.111V133.608C138.02 132.917 137.266 132.666 136.699 132.477L134.246 131.535C133.491 131.221 132.799 130.467 132.799 129.525V128.646C132.799 127.327 133.617 126.07 136.385 126.07C139.09 126.07 139.971 127.327 139.971 128.646V129.274C139.971 129.525 139.845 129.651 139.593 129.651H138.272C137.958 129.651 137.895 129.525 137.895 129.274V128.96H137.958Z" fill="white"/>
<path d="M150.35 133.106V136.498C150.35 136.812 150.224 136.937 149.972 136.937H148.588C148.274 136.937 148.211 136.812 148.211 136.498V126.636C148.211 126.384 148.274 126.259 148.588 126.259H151.86C154.69 126.259 155.634 127.515 155.634 128.834V130.593C155.634 131.912 154.69 133.168 151.86 133.168H150.35V133.106ZM150.35 127.955V131.347H151.923C152.992 131.347 153.621 130.97 153.621 130.216V129.211C153.621 128.395 152.992 128.018 151.923 128.018H150.35V127.955Z" fill="white"/>
<path d="M164.064 136.874C163.749 136.874 163.687 136.749 163.687 136.435V126.573C163.687 126.321 163.749 126.196 164.064 126.196H169.411C169.663 126.196 169.789 126.321 169.789 126.573V127.578C169.789 127.829 169.663 127.955 169.411 127.955H165.762V130.467H169.097C169.348 130.467 169.474 130.53 169.474 130.844V131.786C169.474 132.038 169.348 132.163 169.097 132.163H165.762V135.053H169.537C169.789 135.053 169.914 135.178 169.914 135.43V136.435C169.914 136.749 169.789 136.812 169.537 136.812H164.064V136.874Z" fill="white"/>
<path d="M178.344 136.874C178.03 136.874 177.967 136.749 177.967 136.435V126.573C177.967 126.321 178.03 126.196 178.344 126.196H181.615C184.446 126.196 185.39 127.452 185.39 128.771V130.279C185.39 131.221 184.887 132.1 183.691 132.54L185.39 136.498C185.516 136.749 185.327 136.937 185.013 136.937H183.566C183.314 136.937 183.251 136.749 183.125 136.498L181.615 132.854H180.106V136.498C180.106 136.812 179.98 136.937 179.728 136.937H178.344V136.874ZM180.106 127.955V131.033H181.678C182.748 131.033 183.377 130.656 183.377 129.839V129.085C183.377 128.269 182.748 127.892 181.678 127.892H180.106V127.955Z" fill="white"/>
<path d="M197.594 126.196C197.846 126.196 198.034 126.321 198.097 126.573L200.991 136.435C201.054 136.686 200.991 136.812 200.676 136.812H199.292C198.978 136.812 198.915 136.686 198.852 136.435L198.286 134.55H195.392L194.826 136.435C194.763 136.686 194.637 136.812 194.386 136.812H193.127C192.876 136.812 192.75 136.686 192.813 136.435L195.77 126.573C195.833 126.321 195.958 126.196 196.273 126.196H197.594ZM197.279 131.158C197.028 130.404 196.902 129.085 196.839 128.269C196.776 129.085 196.587 130.404 196.336 131.095L195.832 132.854H197.846L197.279 131.158Z" fill="white"/>
<path d="M252.954 46.9859C256.036 48.8075 258.49 51.2573 260.314 54.3352C262.138 57.4132 263.019 60.8052 263.019 64.4485C263.019 67.8405 262.201 71.0441 260.629 73.9964C259.056 76.9487 256.854 79.3357 254.086 81.2202C257.357 82.6021 260.251 84.5494 262.83 86.9992L274.28 75.5668C275.978 73.9336 277.991 73.117 280.382 73.117C282.772 73.117 284.785 73.9336 286.484 75.6296C288.182 77.3256 289 79.3357 289 81.7855C289 84.1725 288.182 86.2454 286.484 87.9414L257.357 117.025L246.286 119.161L242.071 120.04L242.951 115.831L245.09 104.776L258.741 91.145C256.602 89.1349 254.149 87.5645 251.507 86.4338C248.739 85.2403 245.845 84.6122 242.826 84.6122C238.611 84.6122 234.773 85.6172 231.25 87.6901C227.728 89.763 224.96 92.5269 222.884 96.0445C220.808 99.5622 219.801 103.394 219.801 107.603H214.014C214.014 103.708 214.769 100.002 216.278 96.4214C217.725 93.0294 219.801 89.9515 222.443 87.3132C225.148 84.675 228.168 82.6021 231.628 81.0945C228.86 79.2101 226.658 76.8231 225.085 73.8708C223.513 70.9185 222.695 67.7149 222.695 64.3229C222.695 60.6796 223.576 57.2876 225.4 54.2096C227.224 51.1317 229.678 48.6819 232.76 46.8602C235.843 45.0386 239.24 44.1592 242.889 44.1592C246.474 44.2848 249.871 45.1642 252.954 46.9859ZM235.528 51.9483C233.326 53.2674 231.565 54.9634 230.307 57.1619C228.986 59.3605 228.357 61.7474 228.357 64.3857C228.357 67.0239 228.986 69.4737 230.307 71.6094C231.628 73.808 233.326 75.5668 235.528 76.8231C237.73 78.1422 240.121 78.7704 242.763 78.7704C245.405 78.7704 247.858 78.1422 249.997 76.8231C252.199 75.504 253.96 73.808 255.219 71.6094C256.54 69.4109 257.169 67.0239 257.169 64.3857C257.169 61.7474 256.54 59.2976 255.219 57.1619C253.897 54.9634 252.199 53.2046 249.997 51.9483C247.795 50.6291 245.405 50.001 242.763 50.001C240.183 50.001 237.73 50.692 235.528 51.9483ZM278.369 79.6498L250.375 107.603L249.305 112.753L254.464 111.686L282.395 83.7956C283.024 83.1674 283.276 82.5393 283.276 81.7855C283.276 81.0317 282.961 80.4036 282.395 79.7754C281.829 79.2101 281.137 78.896 280.256 78.896C279.564 78.8332 278.872 79.0844 278.369 79.6498Z" fill="white"/>
</svg>
