<?xml version="1.0" encoding="utf-8"?>
<!-- Generator: Adobe Illustrator 24.1.1, SVG Export Plug-In . SVG Version: 6.00 Build 0)  -->
<svg version="1.1" id="Capa_1" xmlns="http://www.w3.org/2000/svg" xmlns:xlink="http://www.w3.org/1999/xlink" x="0px" y="0px"
	 viewBox="0 0 289 137" style="enable-background:new 0 0 289 137;" xml:space="preserve">
<style type="text/css">
	.st0{fill:#FEFEFE;}
	.st1{fill:#FFFFFF;}
</style>
<path class="st0" d="M7.3,4l8.5,21c0.4,0.9,0.4,1.6,0.6,2.3h0.1c0.3-1.4,0.6-2.1,0.9-3l8.2-20.4h7.5v2.4h-3.5l0.3,22.2h3.3V31h-9.3
	v-2.4h2.9l0.1-19.8h-0.1c-0.3,0.8-0.4,1.5-0.6,2.1l-8.2,20.2h-3L6.8,11.2C6.5,10.6,6.3,9.9,6,9H5.9L5.9,28.6h3.3V31H0v-2.4h3.1
	L3.4,6.4H0V4H7.3z"/>
<path class="st0" d="M52.7,17.8c0,0.1-0.3,9-0.3,10.7h2.9V31h-5.7v-0.4c0-1.6,0.2-3,0.4-4h-0.1c-1.2,3.3-3.2,4.8-6.7,4.8
	c-3.9,0-6.2-2.1-6.2-5.7c0-4.1,3.1-6.1,11.9-6.1h0.8v-1.4c0-3.8-1.4-5.3-4.6-5.3c-1.6,0-3.2,0.3-4.5,0.8V17h-2.8v-4.8
	c2.2-0.9,4.6-1.6,7-1.6C50.3,10.6,52.7,12.9,52.7,17.8z M43.8,29c3.4,0,5.7-2.4,5.7-7.2h-1.6c-7.2,0-7.8,2.1-7.8,3.9
	C40.1,27.7,41.6,29,43.8,29z"/>
<path class="st0" d="M64.6,11.1h6.3v2.4h-6.3l-0.1,4.9c-0.1,3.3-0.1,4.7-0.1,5.9c0,2.1,0.2,4.6,2.9,4.6c1.8,0,3.1-0.4,4.2-0.8
	l-0.1,2.5c-1.1,0.5-3,0.9-4.5,0.9c-2.5,0-5.6-0.6-5.6-5.8c0-3.1,0.1-9.9,0.1-12.1h-3.1v-2.4h3.2l0.1-4.9L64.7,6L64.6,11.1z"/>
<path class="st0" d="M88.3,11l-0.3,2.9c-0.6-0.2-1.4-0.3-2.1-0.3c-3.6,0-5.9,3.5-6,7.4l-0.1,7.6h3.4V31h-9.5v-2.4h2.8l0.1-15.1h-3.4
	v-2.4h6.6v0.4c0,2.1-0.3,4.3-0.4,5.8h0.1c1.1-5.1,3.5-6.6,6.7-6.6C86.4,10.7,88.1,10.9,88.3,11z"/>
<path class="st0" d="M96.2,11.1l-0.1,17.5h3.1V31h-9.5v-2.4h3.1L93,13.5h-3.6v-2.4H96.2z M98.3,0l2,1.7l-7.2,6l-1.9-1.6L98.3,0z"/>
<path class="st0" d="M118.7,11.6v5.2h-2.9v-3.1c-0.8-0.3-2.3-0.4-3.3-0.4c-4.5,0-6.9,3-6.9,7.8c0,4.5,2.5,7.9,7.6,7.9
	c2,0,3.6-0.6,5.4-1.1l-0.1,2.8c-1.5,0.4-3.6,0.9-5.8,0.9c-6.8,0-10.4-4-10.4-10.4c0-6.7,4.5-10.4,10-10.4
	C114.4,10.6,116.7,10.9,118.7,11.6z"/>
<path class="st0" d="M128.1,11.1c0,2.2-0.1,8.6-0.1,11.5c0,4.1,1.1,6.3,4.4,6.3c3.8,0,5.9-2.6,5.9-8.9v-6.4h-3.1v-2.4h6.4l-0.1,17.5
	h2.8V31h-5.9c0-1.1,0.1-2.3,0.1-2.7l0.3-1.7h-0.1c-1.1,2.9-3.8,4.9-6.7,4.9c-4.6,0-7-2.1-7-8.4c0-1.4,0.1-4.5,0.1-9.5h-3.2v-2.4
	L128.1,11.1L128.1,11.1z"/>
<path class="st0" d="M153.7,1.3l-0.2,27.3h3.1V31h-9.2v-2.4h2.9l0.1-24.9h-3.9V1.3H153.7z"/>
<path class="st0" d="M176,17.8c0,0.1-0.3,9-0.3,10.7h2.9V31h-5.7v-0.4c0-1.6,0.2-3,0.4-4h-0.1c-1.2,3.3-3.2,4.8-6.7,4.8
	c-3.9,0-6.2-2.1-6.2-5.7c0-4.1,3.1-6.1,11.9-6.1h0.8v-1.4c0-3.8-1.4-5.3-4.6-5.3c-1.6,0-3.2,0.3-4.5,0.8V17H161v-4.8
	c2.2-0.9,4.6-1.6,7-1.6C173.6,10.6,176,12.9,176,17.8z M167.2,29c3.4,0,5.7-2.4,5.7-7.2h-1.6c-7.2,0-7.8,2.1-7.8,3.9
	C163.4,27.7,165,29,167.2,29z"/>
<path class="st0" d="M0.7,98.2c6.5-4.5,31-23.2,31-35.1c0-6.2-4.9-8.2-8.4-8.2c-6.2,0-9.7,4.5-10.3,10.1h-12
	c0-6.8,4.7-19.8,22.8-19.8c9.2,0,20.4,4.5,20.4,17.3c0,12.1-12,23.1-26.4,34.5v0.2c2-0.3,4.3-0.5,6.2-0.5H46v9.7H0.8L0.7,98.2
	L0.7,98.2z"/>
<path class="st0" d="M75.8,45.1c13,0,21.8,10.4,21.8,31.3c0,21.3-11.1,31.3-23.7,31.3c-11.6,0-22.1-6.7-22.1-29.8
	C51.8,53.1,63.5,45.1,75.8,45.1z M74.7,98.1c4.8,0,9.8-4.3,9.8-21.6c0-18.2-5-21.6-9.6-21.6c-5.2,0-10.1,4.8-10.1,22.2
	C64.8,92.8,68.1,98.1,74.7,98.1z"/>
<path class="st0" d="M102,98.2c6.5-4.5,31-23.2,31-35.1c0-6.2-4.9-8.2-8.4-8.2c-6.2,0-9.7,4.5-10.3,10.1h-12
	c0-6.8,4.7-19.8,22.8-19.8c9.2,0,20.4,4.5,20.4,17.3c0,12.1-12,23.1-26.4,34.5v0.2c1.9-0.3,4.3-0.5,6.2-0.5h22.1v9.7h-45.3L102,98.2
	L102,98.2z"/>
<path class="st0" d="M179.4,90.3H152v-9.2l23.9-34.5h15.5v34.5h10.4v9.2h-10.4v7.3h5.9v8.7h-23.7v-8.7h5.9L179.4,90.3L179.4,90.3z
	 M179.4,57.5h-0.2l-15.9,23.9c1.1-0.2,2.2-0.3,3.3-0.3h12.6L179.4,57.5L179.4,57.5z"/>
<path class="st1" d="M253,47c3.1,1.8,5.5,4.3,7.4,7.3c1.8,3.1,2.7,6.5,2.7,10.1c0,3.4-0.8,6.6-2.4,9.5c-1.6,3-3.8,5.3-6.5,7.2
	c3.3,1.4,6.2,3.3,8.7,5.8l11.5-11.4c1.7-1.6,3.7-2.4,6.1-2.4c2.4,0,4.4,0.8,6.1,2.5c1.7,1.7,2.5,3.7,2.5,6.2c0,2.4-0.8,4.5-2.5,6.2
	L257.4,117l-11.1,2.1l-4.2,0.9l0.9-4.2l2.1-11.1l13.7-13.6c-2.1-2-4.6-3.6-7.2-4.7c-2.8-1.2-5.7-1.8-8.7-1.8c-4.2,0-8.1,1-11.6,3.1
	c-3.5,2.1-6.3,4.8-8.4,8.4c-2.1,3.5-3.1,7.3-3.1,11.6H214c0-3.9,0.8-7.6,2.3-11.2c1.4-3.4,3.5-6.5,6.2-9.1c2.7-2.6,5.7-4.7,9.2-6.2
	c-2.8-1.9-5-4.3-6.5-7.2c-1.6-3-2.4-6.2-2.4-9.5c0-3.6,0.9-7,2.7-10.1c1.8-3.1,4.3-5.5,7.4-7.3c3.1-1.8,6.5-2.7,10.1-2.7
	C246.5,44.3,249.9,45.2,253,47z M235.5,51.9c-2.2,1.3-4,3-5.2,5.2c-1.3,2.2-2,4.6-2,7.2c0,2.6,0.6,5.1,2,7.2c1.3,2.2,3,4,5.2,5.2
	c2.2,1.3,4.6,1.9,7.2,1.9s5.1-0.6,7.2-1.9c2.2-1.3,4-3,5.2-5.2c1.3-2.2,2-4.6,2-7.2c0-2.6-0.6-5.1-2-7.2c-1.3-2.2-3-4-5.2-5.2
	c-2.2-1.3-4.6-1.9-7.2-1.9C240.2,50,237.7,50.7,235.5,51.9z M278.4,79.6l-28,28l-1.1,5.2l5.2-1.1l27.9-27.9c0.6-0.6,0.9-1.3,0.9-2
	s-0.3-1.4-0.9-2c-0.6-0.6-1.3-0.9-2.1-0.9C279.6,78.8,278.9,79.1,278.4,79.6z"/>
</svg>
