<svg xmlns="http://www.w3.org/2000/svg" viewBox="0 0 27.72 27.7"><defs><style>.cls-1{fill:#fff;}</style></defs><g id="Capa_2" data-name="Capa 2"><g id="Capa_1-2" data-name="Capa 1"><path class="cls-1" d="M4.54.53A2.6,2.6,0,0,1,6.07,0,2.69,2.69,0,0,1,7.66.53L7.73.6l.06.06L12,5.05l.07.06L12,5.18a2,2,0,0,1,.73,1.59,2.21,2.21,0,0,1-.66,1.6L10,10.49a13.47,13.47,0,0,0,3,4.39,15.73,15.73,0,0,0,4.32,2.92l2.06-2.06.07-.07a2.37,2.37,0,0,1,1.66-.6,2.4,2.4,0,0,1,1.66.6l.06.13,4.25,4.25a2.4,2.4,0,0,1,0,3.33L23.8,26.7h-.07a3.63,3.63,0,0,1-3.72.79,35.72,35.72,0,0,1-12.08-7.7A32.89,32.89,0,0,1,.22,7.7a3.09,3.09,0,0,1,.93-3.58V4.05L4.47.66V.6ZM6.33,2.26a.36.36,0,0,0-.26-.13c-.05,0-.11,0-.2.13L2.61,5.51v.07A1.18,1.18,0,0,0,2.22,7,29.86,29.86,0,0,0,9.45,18.26a32.63,32.63,0,0,0,11.23,7.17,1.55,1.55,0,0,0,1.66-.33l3.25-3.19a.23.23,0,0,0,0-.33l-4.38-4.31q-.13-.21-.27,0l-2.65,2.65-.53.47-.67-.34a17.75,17.75,0,0,1-5.38-3.45l-.2-.2A12.89,12.89,0,0,1,9.39,14a18.76,18.76,0,0,1-1.33-2.4l-.4-.86L7.46,10l.47-.47,2.65-2.65c.14-.09.18-.18.14-.27h-.07l-.07-.07Z"/></g></g></svg>