<?xml version="1.0" encoding="utf-8"?>
<!-- Generator: Adobe Illustrator 24.0.2, SVG Export Plug-In . SVG Version: 6.00 Build 0)  -->
<svg version="1.1" id="Capa_1" xmlns="http://www.w3.org/2000/svg" xmlns:xlink="http://www.w3.org/1999/xlink" x="0px" y="0px"
	 viewBox="0 0 450.3 452.9" style="enable-background:new 0 0 450.3 452.9;" xml:space="preserve">
<style type="text/css">
	.st0{fill:#FFFFFF;}
	.st1{fill:#FF0013;}
</style>
<g>
	<circle class="st0" cx="225.1" cy="226.4" r="222"/>
	<g>
		<g>
			<rect x="298.3" y="226.5" class="st1" width="7" height="9.6"/>
			<rect x="305.3" y="226.5" class="st0" width="7" height="9.6"/>
			<rect x="312.3" y="226.5" class="st1" width="7" height="9.6"/>
		</g>
		<g>
			<rect x="131" y="226.5" class="st1" width="7" height="9.6"/>
			<rect x="138" y="226.5" class="st0" width="7" height="9.6"/>
			<rect x="145" y="226.5" class="st1" width="7" height="9.6"/>
		</g>
	</g>
	<g>
		<g>
			<path class="st1" d="M74.2,292.9v-47.8h20.6c2.3,0,4.5,0.5,6.5,1.4c2,1,3.7,2.2,5.1,3.8s2.5,3.3,3.3,5.3c0.8,2,1.2,4,1.2,6
				c0,2.1-0.4,4.2-1.1,6.2c-0.8,2-1.8,3.8-3.2,5.3c-1.4,1.5-3,2.8-5,3.7c-2,0.9-4.1,1.4-6.4,1.4h-7.8v14.7H74.2z M87.3,266.8h6.9
				c0.8,0,1.6-0.4,2.3-1.1c0.7-0.7,1-2.1,1-4c0-2-0.4-3.3-1.2-4c-0.8-0.7-1.6-1.1-2.4-1.1h-6.6V266.8z"/>
			<path class="st1" d="M131.8,293.6c-3.1,0-5.9-0.5-8.3-1.4c-2.4-1-4.5-2.3-6.1-3.9c-1.6-1.7-2.9-3.6-3.7-5.7
				c-0.9-2.2-1.3-4.4-1.3-6.8c0-2.6,0.4-5,1.2-7.3c0.8-2.3,2.1-4.3,3.7-6c1.6-1.7,3.7-3.1,6.1-4.1c2.4-1,5.2-1.5,8.4-1.5
				c3.1,0,5.9,0.5,8.3,1.5c2.4,1,4.5,2.4,6.1,4c1.6,1.7,2.9,3.6,3.7,5.9c0.8,2.2,1.2,4.5,1.2,7c0,0.7,0,1.4-0.1,2.1
				c-0.1,0.7-0.1,1.3-0.2,1.9h-24.8c0.1,1.9,0.8,3.2,2.1,4.1c1.3,0.8,2.6,1.2,4.1,1.2c1.4,0,2.7-0.3,3.9-0.9
				c1.2-0.6,2.1-1.5,2.5-2.6l10.8,3.1c-1.4,2.8-3.6,5.1-6.6,6.9C139.9,292.7,136.2,293.6,131.8,293.6z M137.5,271.4
				c-0.2-1.7-0.9-3-1.9-4c-1-1-2.4-1.5-4-1.5c-1.6,0-2.9,0.5-4,1.5c-1,1-1.7,2.3-1.9,4H137.5z"/>
			<path class="st1" d="M179.4,268.4c-2.5,0-4.7,0.3-6.7,0.8c-2,0.5-3.5,1.4-4.5,2.7v21h-12.8v-35.4h11.7v6.7
				c1.3-2.4,2.8-4.2,4.7-5.5c1.9-1.3,3.9-1.9,6-1.9c0.9,0,1.4,0,1.6,0.1V268.4z"/>
			<path class="st1" d="M194.1,293.6c-3.6,0-6.3-1.1-8.2-3.3c-1.9-2.2-2.8-5.3-2.8-9.5v-23.3h12.8v20.4c0,1.6,0.3,2.8,1,3.6
				c0.7,0.9,1.6,1.3,2.9,1.3c1,0,2-0.2,3-0.7c1-0.4,2.1-1.4,3.1-3v-21.7h12.8v21.3c0,1.2,0.2,2.1,0.5,2.5c0.4,0.5,1,0.8,1.9,0.8
				v10.8c-2.2,0.4-4,0.7-5.4,0.7c-4.4,0-6.9-1.6-7.5-4.9l-0.3-1.3c-1.7,2.2-3.6,3.8-5.9,4.7C199.7,293.1,197,293.6,194.1,293.6z"/>
			<path class="st1" d="M236.7,293.6c-1.8,0-3.4-0.3-4.9-0.9c-1.5-0.6-2.8-1.4-3.9-2.4c-1.1-1-2-2.2-2.6-3.6
				c-0.6-1.4-0.9-2.9-0.9-4.5c0-1.8,0.4-3.4,1.1-4.9c0.8-1.5,1.8-2.8,3.2-3.8c1.3-1.1,2.9-1.9,4.8-2.5c1.9-0.6,3.9-0.9,6.2-0.9
				c2.9,0,5.2,0.4,7.1,1.3v-1.1c0-1.7-0.5-2.9-1.4-3.7c-1-0.8-2.5-1.2-4.7-1.2c-2,0-3.9,0.3-5.6,1c-1.7,0.7-3.5,1.6-5.4,2.9
				l-3.7-7.9c4.7-3,10-4.5,15.9-4.5c5.7,0,10,1.3,13.1,3.8c3,2.5,4.6,6.3,4.6,11.3v6.9c0,1.2,0.2,2.1,0.5,2.5c0.4,0.5,1,0.8,1.9,0.8
				v10.8c-1,0.2-2,0.4-2.9,0.5c-0.9,0.1-1.7,0.2-2.5,0.2c-2.3,0-4-0.4-5.2-1.2c-1.2-0.8-2-2.1-2.3-3.7l-0.3-1.3
				c-1.6,2-3.4,3.6-5.5,4.6C241.3,293,239.1,293.6,236.7,293.6z M240.6,284.4c0.8,0,1.5-0.1,2.4-0.4c0.8-0.2,1.5-0.6,2.2-1
				c0.5-0.4,0.9-0.8,1.2-1.2c0.3-0.4,0.5-0.9,0.5-1.3v-2.6c-0.8-0.3-1.6-0.5-2.5-0.7c-0.9-0.2-1.7-0.3-2.4-0.3
				c-1.6,0-2.9,0.4-3.9,1.1c-1,0.8-1.5,1.7-1.5,2.9c0,1,0.4,1.8,1.2,2.4C238.4,284.1,239.4,284.4,240.6,284.4z"/>
			<path class="st1" d="M302.2,292.9h-12.8V273c0-1.8-0.4-3-1.2-3.8c-0.8-0.8-1.7-1.2-2.7-1.2c-1.1,0-2.2,0.5-3.4,1.4
				c-1.2,0.9-2.1,2.2-2.7,3.6v19.9h-12.8v-35.4h11.5v5.2c1.3-1.9,3-3.4,5.3-4.4c2.3-1,4.9-1.5,8-1.5c2.4,0,4.3,0.4,5.8,1.3
				s2.5,2,3.2,3.3c0.7,1.3,1.2,2.7,1.4,4.2s0.3,2.8,0.3,4V292.9z"/>
			<path class="st1" d="M325.8,293.6c-3.2,0-6-0.5-8.4-1.5c-2.4-1-4.4-2.4-6.1-4c-1.6-1.7-2.9-3.6-3.7-5.9c-0.8-2.2-1.2-4.5-1.2-7
				c0-2.4,0.4-4.7,1.2-7c0.8-2.2,2.1-4.2,3.7-5.9c1.6-1.7,3.7-3,6.1-4c2.4-1,5.2-1.5,8.4-1.5c3.1,0,5.9,0.5,8.3,1.5
				c2.4,1,4.5,2.4,6.1,4c1.6,1.7,2.9,3.6,3.7,5.9s1.2,4.5,1.2,7c0,2.4-0.4,4.7-1.2,7c-0.8,2.2-2.1,4.2-3.7,5.9c-1.6,1.7-3.7,3-6.1,4
				C331.8,293,329,293.6,325.8,293.6z M319.6,275.2c0,2.4,0.6,4.2,1.7,5.6s2.7,2,4.5,2c1.8,0,3.3-0.7,4.5-2c1.2-1.3,1.7-3.2,1.7-5.6
				s-0.6-4.2-1.7-5.6c-1.2-1.3-2.7-2-4.5-2c-1.8,0-3.3,0.7-4.5,2C320.2,270.9,319.6,272.8,319.6,275.2z"/>
			<path class="st1" d="M364.3,293.6c-3.1,0-6.1-0.5-9.1-1.5c-3-1-5.5-2.5-7.5-4.4l4.4-7.7c2.2,1.5,4.3,2.6,6.4,3.4
				c2,0.8,3.9,1.2,5.6,1.2c1.8,0,2.7-0.6,2.7-1.7c0-0.6-0.3-1.2-1-1.6c-0.7-0.4-2.1-1-4.1-1.5c-2.5-0.7-4.6-1.4-6.3-2.1
				c-1.7-0.7-3.1-1.4-4.1-2.3c-1.1-0.8-1.8-1.7-2.3-2.7c-0.4-1-0.7-2.2-0.7-3.5c0-1.8,0.4-3.5,1.1-5c0.7-1.5,1.7-2.8,3-4
				c1.3-1.1,2.8-2,4.6-2.6c1.8-0.6,3.7-0.9,5.8-0.9c2.6,0,5.1,0.3,7.4,1c2.4,0.7,4.7,2,7.1,4.1l-4.8,7.7c-2.2-1.4-4-2.5-5.5-3.1
				c-1.5-0.6-2.9-0.9-4.2-0.9c-0.8,0-1.4,0.1-1.9,0.4c-0.5,0.3-0.7,0.8-0.7,1.4c0,0.7,0.4,1.2,1.1,1.6c0.7,0.4,2.1,0.9,4.2,1.4
				c2.6,0.7,4.7,1.4,6.5,2.1c1.7,0.7,3.2,1.5,4.2,2.4c1.1,0.9,1.8,1.9,2.3,3c0.4,1.1,0.7,2.4,0.7,3.8c0,1.8-0.3,3.5-1,4.9
				s-1.6,2.7-2.9,3.7c-1.3,1-2.8,1.8-4.6,2.4C368.7,293.3,366.6,293.6,364.3,293.6z"/>
		</g>
	</g>
	<g>
		<g>
			<path class="st1" d="M69.1,198.8c-3.6,0-6.9-0.7-9.9-2.1c-3-1.4-5.5-3.2-7.6-5.5c-2.1-2.3-3.7-4.9-4.9-7.8
				c-1.2-2.9-1.7-5.9-1.7-9c0-3.1,0.6-6.2,1.8-9.1c1.2-2.9,2.9-5.5,5.1-7.7c2.2-2.2,4.8-4,7.7-5.3c3-1.3,6.2-2,9.8-2
				c3.6,0,6.9,0.7,9.9,2.1c3,1.4,5.5,3.2,7.6,5.5c2.1,2.3,3.7,4.9,4.9,7.8c1.1,2.9,1.7,5.9,1.7,8.9c0,3.1-0.6,6.2-1.8,9.1
				c-1.2,2.9-2.9,5.5-5,7.7s-4.7,4-7.7,5.3C75.9,198.1,72.6,198.8,69.1,198.8z M58.2,174.6c0,1.6,0.2,3.2,0.7,4.7
				c0.4,1.5,1.1,2.8,2,4c0.9,1.2,2,2.1,3.4,2.8c1.4,0.7,3,1.1,4.9,1.1s3.5-0.4,4.9-1.1c1.4-0.7,2.5-1.7,3.4-2.9s1.5-2.5,2-4.1
				c0.4-1.5,0.6-3.1,0.6-4.6c0-1.6-0.2-3.2-0.7-4.7c-0.4-1.5-1.1-2.8-2.1-4c-0.9-1.1-2.1-2.1-3.4-2.8c-1.4-0.7-3-1-4.8-1
				c-1.9,0-3.5,0.4-4.9,1.1c-1.4,0.7-2.5,1.7-3.4,2.9c-0.9,1.2-1.6,2.5-2,4C58.4,171.5,58.2,173,58.2,174.6z"/>
			<path class="st1" d="M121.8,173.9c-2.5,0-4.7,0.3-6.7,0.8c-2,0.5-3.5,1.4-4.5,2.7v21H97.8V163h11.7v6.7c1.3-2.4,2.8-4.2,4.7-5.5
				c1.9-1.3,3.9-1.9,6-1.9c0.9,0,1.4,0,1.6,0.1V173.9z"/>
			<path class="st1" d="M139.4,198.4c-2.3,0-4.4-0.5-6.3-1.4c-1.9-0.9-3.5-2.2-4.9-3.8c-1.3-1.6-2.4-3.5-3.1-5.6s-1.1-4.5-1.1-7
				c0-2.6,0.4-5.1,1.2-7.3c0.8-2.2,1.9-4.2,3.4-5.8c1.5-1.6,3.2-2.9,5.2-3.8c2-0.9,4.2-1.4,6.7-1.4c2.6,0,4.8,0.5,6.7,1.5
				c1.9,1,3.5,2.5,4.6,4.4V163h11.1v32.2c0,2.8-0.5,5.3-1.5,7.5c-1,2.2-2.5,4.1-4.4,5.7c-1.9,1.6-4.1,2.8-6.8,3.7
				c-2.6,0.9-5.6,1.3-8.8,1.3c-3.8,0-7-0.6-9.8-1.7c-2.8-1.2-5.2-2.8-7.4-5l6.7-7c1.3,1.2,2.9,2.2,4.7,3.1c1.8,0.8,3.8,1.2,5.8,1.2
				c1.2,0,2.3-0.2,3.3-0.5c1.1-0.3,2-0.8,2.8-1.5c0.8-0.7,1.4-1.6,1.9-2.7c0.5-1.1,0.7-2.5,0.7-4v-2.3c-1,1.9-2.5,3.3-4.4,4.2
				C143.8,198,141.7,198.4,139.4,198.4z M144,188.3c1.3,0,2.4-0.3,3.4-0.9c1-0.6,1.9-1.5,2.7-2.7v-6.3c-0.6-1.6-1.6-2.9-2.8-3.8
				c-1.2-0.9-2.5-1.4-3.9-1.4c-0.9,0-1.7,0.2-2.5,0.6c-0.8,0.4-1.5,1-2.1,1.7c-0.6,0.7-1,1.5-1.3,2.5c-0.3,1-0.5,2-0.5,3.1
				c0,2.2,0.6,4,2,5.3C140.3,187.6,141.9,188.3,144,188.3z"/>
			<path class="st1" d="M180,199.1c-3.6,0-6.3-1.1-8.2-3.3c-1.9-2.2-2.8-5.3-2.8-9.5V163h12.8v20.4c0,1.6,0.3,2.8,1,3.6
				c0.7,0.9,1.6,1.3,2.9,1.3c1,0,2-0.2,3-0.7c1-0.4,2.1-1.4,3.1-3V163h12.8v21.3c0,1.2,0.2,2.1,0.5,2.5c0.4,0.5,1,0.8,1.9,0.8v10.8
				c-2.2,0.4-4,0.7-5.4,0.7c-4.4,0-6.9-1.6-7.5-4.9l-0.3-1.3c-1.7,2.2-3.6,3.8-5.9,4.7C185.6,198.6,183,199.1,180,199.1z"/>
			<path class="st1" d="M212,149.3h12.8v35.1c0,2.7,1.1,4,3.3,4c0.5,0,1.1-0.1,1.8-0.3c0.6-0.2,1.2-0.4,1.8-0.7l1.6,9.4
				c-1.5,0.7-3.2,1.3-5.1,1.7c-1.9,0.4-3.7,0.6-5.4,0.6c-3.4,0-6-0.9-7.9-2.6c-1.8-1.8-2.8-4.3-2.8-7.6V149.3z"/>
			<path class="st1" d="M235.9,149.3h12.8v35.1c0,2.7,1.1,4,3.3,4c0.5,0,1.1-0.1,1.8-0.3c0.6-0.2,1.2-0.4,1.8-0.7l1.6,9.4
				c-1.5,0.7-3.2,1.3-5.1,1.7c-1.9,0.4-3.7,0.6-5.4,0.6c-3.4,0-6-0.9-7.9-2.6c-1.8-1.8-2.8-4.3-2.8-7.6V149.3z"/>
			<path class="st1" d="M277.5,199.1c-3.2,0-6-0.5-8.4-1.5c-2.4-1-4.4-2.4-6.1-4c-1.6-1.7-2.9-3.6-3.7-5.9c-0.8-2.2-1.2-4.5-1.2-7
				c0-2.4,0.4-4.7,1.2-7c0.8-2.2,2.1-4.2,3.7-5.9c1.6-1.7,3.7-3,6.1-4c2.4-1,5.2-1.5,8.4-1.5c3.1,0,5.9,0.5,8.3,1.5
				c2.4,1,4.5,2.4,6.1,4c1.6,1.7,2.9,3.6,3.7,5.9s1.2,4.5,1.2,7c0,2.4-0.4,4.7-1.2,7c-0.8,2.2-2.1,4.2-3.7,5.9c-1.6,1.7-3.7,3-6.1,4
				C283.4,198.6,280.6,199.1,277.5,199.1z M271.2,180.7c0,2.4,0.6,4.2,1.7,5.6s2.7,2,4.5,2c1.8,0,3.3-0.7,4.5-2
				c1.2-1.3,1.7-3.2,1.7-5.6c0-2.4-0.6-4.2-1.7-5.6c-1.2-1.3-2.7-2-4.5-2c-1.8,0-3.3,0.7-4.5,2S271.2,178.3,271.2,180.7z"/>
			<path class="st1" d="M315.9,199.1c-3.1,0-6.1-0.5-9.1-1.5c-3-1-5.5-2.5-7.5-4.4l4.4-7.7c2.2,1.5,4.3,2.6,6.4,3.4
				c2,0.8,3.9,1.2,5.6,1.2c1.8,0,2.7-0.6,2.7-1.7c0-0.6-0.3-1.2-1-1.6c-0.7-0.4-2.1-1-4.1-1.5c-2.5-0.7-4.6-1.4-6.3-2.1
				c-1.7-0.7-3.1-1.4-4.1-2.3c-1.1-0.8-1.8-1.7-2.3-2.7c-0.4-1-0.7-2.2-0.7-3.5c0-1.8,0.4-3.5,1.1-5c0.7-1.5,1.7-2.8,3-4
				c1.3-1.1,2.8-2,4.6-2.6c1.8-0.6,3.7-0.9,5.8-0.9c2.6,0,5.1,0.3,7.4,1c2.4,0.7,4.7,2,7.1,4.1l-4.8,7.7c-2.2-1.4-4-2.5-5.5-3.1
				c-1.5-0.6-2.9-0.9-4.2-0.9c-0.8,0-1.4,0.1-1.9,0.4c-0.5,0.3-0.7,0.8-0.7,1.4c0,0.7,0.4,1.2,1.1,1.6c0.7,0.4,2.1,0.9,4.2,1.4
				c2.6,0.7,4.7,1.4,6.5,2.1c1.7,0.7,3.2,1.5,4.2,2.4c1.1,0.9,1.8,1.9,2.3,3c0.4,1.1,0.7,2.4,0.7,3.8c0,1.8-0.3,3.5-1,4.9
				s-1.6,2.7-2.9,3.7c-1.3,1-2.8,1.8-4.6,2.4C320.3,198.8,318.2,199.1,315.9,199.1z"/>
			<path class="st1" d="M352.5,199.1c-3.2,0-6-0.5-8.4-1.5c-2.4-1-4.4-2.4-6.1-4c-1.6-1.7-2.9-3.6-3.7-5.9c-0.8-2.2-1.2-4.5-1.2-7
				c0-2.4,0.4-4.7,1.2-7c0.8-2.2,2.1-4.2,3.7-5.9c1.6-1.7,3.7-3,6.1-4c2.4-1,5.2-1.5,8.4-1.5c3.1,0,5.9,0.5,8.3,1.5
				c2.4,1,4.5,2.4,6.1,4c1.6,1.7,2.9,3.6,3.7,5.9s1.2,4.5,1.2,7c0,2.4-0.4,4.7-1.2,7c-0.8,2.2-2.1,4.2-3.7,5.9c-1.6,1.7-3.7,3-6.1,4
				C358.4,198.6,355.6,199.1,352.5,199.1z M346.2,180.7c0,2.4,0.6,4.2,1.7,5.6s2.7,2,4.5,2c1.8,0,3.3-0.7,4.5-2
				c1.2-1.3,1.7-3.2,1.7-5.6c0-2.4-0.6-4.2-1.7-5.6c-1.2-1.3-2.7-2-4.5-2c-1.8,0-3.3,0.7-4.5,2S346.2,178.3,346.2,180.7z"/>
			<path class="st1" d="M391,199.1c-3.1,0-6.1-0.5-9.1-1.5c-3-1-5.5-2.5-7.5-4.4l4.4-7.7c2.2,1.5,4.3,2.6,6.4,3.4
				c2,0.8,3.9,1.2,5.6,1.2c1.8,0,2.7-0.6,2.7-1.7c0-0.6-0.3-1.2-1-1.6c-0.7-0.4-2.1-1-4.1-1.5c-2.5-0.7-4.6-1.4-6.3-2.1
				c-1.7-0.7-3.1-1.4-4.1-2.3c-1.1-0.8-1.8-1.7-2.3-2.7c-0.4-1-0.7-2.2-0.7-3.5c0-1.8,0.4-3.5,1.1-5c0.7-1.5,1.7-2.8,3-4
				c1.3-1.1,2.8-2,4.6-2.6c1.8-0.6,3.7-0.9,5.8-0.9c2.6,0,5.1,0.3,7.4,1c2.4,0.7,4.7,2,7.1,4.1l-4.8,7.7c-2.2-1.4-4-2.5-5.5-3.1
				c-1.5-0.6-2.9-0.9-4.2-0.9c-0.8,0-1.4,0.1-1.9,0.4c-0.5,0.3-0.7,0.8-0.7,1.4c0,0.7,0.4,1.2,1.1,1.6c0.7,0.4,2.1,0.9,4.2,1.4
				c2.6,0.7,4.7,1.4,6.5,2.1c1.7,0.7,3.2,1.5,4.2,2.4c1.1,0.9,1.8,1.9,2.3,3c0.4,1.1,0.7,2.4,0.7,3.8c0,1.8-0.3,3.5-1,4.9
				s-1.6,2.7-2.9,3.7c-1.3,1-2.8,1.8-4.6,2.4C395.3,198.8,393.3,199.1,391,199.1z"/>
		</g>
	</g>
	<g>
		<g>
			<path d="M170.6,243.3c-1.6,0-3-0.3-4.4-0.9c-1.3-0.6-2.5-1.4-3.5-2.5c-1-1.1-1.7-2.3-2.3-3.8c-0.5-1.5-0.8-3.1-0.8-4.9
				c0-1.7,0.2-3.3,0.7-4.8c0.5-1.5,1.2-2.7,2.1-3.8c0.9-1.1,2-1.9,3.2-2.5c1.2-0.6,2.6-0.9,4.1-0.9s2.9,0.3,4.1,1
				c1.2,0.7,2.2,1.6,2.9,2.9v-12.4h8.4v22.9c0,0.8,0.1,1.3,0.4,1.7c0.2,0.3,0.6,0.5,1.2,0.6v7c-1.4,0.3-2.6,0.4-3.5,0.4
				c-2.8,0-4.5-1.1-4.9-3.2l-0.2-0.8c-0.8,1.4-1.9,2.4-3.2,3.1C173.5,243,172.1,243.3,170.6,243.3z M172.9,236.2
				c1.5,0,2.8-0.8,4-2.4v-4.1c-0.4-1-1-1.9-1.8-2.5c-0.8-0.6-1.6-0.9-2.5-0.9c-0.6,0-1.2,0.1-1.7,0.4c-0.5,0.3-1,0.6-1.3,1.1
				c-0.4,0.5-0.7,1-0.9,1.6c-0.2,0.6-0.3,1.3-0.3,2c0,1.5,0.4,2.6,1.3,3.5S171.5,236.2,172.9,236.2z"/>
			<path d="M201.6,243.3c-2,0-3.8-0.3-5.4-0.9c-1.6-0.6-2.9-1.5-4-2.6c-1.1-1.1-1.9-2.3-2.4-3.7c-0.6-1.4-0.8-2.9-0.8-4.4
				c0-1.7,0.3-3.3,0.8-4.8c0.5-1.5,1.4-2.8,2.4-3.9c1.1-1.1,2.4-2,4-2.7c1.6-0.7,3.4-1,5.5-1c2.1,0,3.9,0.3,5.5,1
				c1.6,0.7,2.9,1.5,4,2.6c1.1,1.1,1.9,2.4,2.4,3.8c0.5,1.5,0.8,3,0.8,4.6c0,0.4,0,0.9-0.1,1.3c0,0.5-0.1,0.9-0.2,1.2h-16.3
				c0.1,1.2,0.5,2.1,1.4,2.7c0.8,0.5,1.7,0.8,2.7,0.8c0.9,0,1.8-0.2,2.6-0.6c0.8-0.4,1.3-1,1.6-1.7l7.1,2c-0.9,1.8-2.4,3.4-4.3,4.5
				C206.8,242.7,204.4,243.3,201.6,243.3z M205.3,228.8c-0.1-1.1-0.6-2-1.2-2.6c-0.7-0.6-1.5-1-2.6-1c-1.1,0-1.9,0.3-2.6,1
				c-0.7,0.6-1.1,1.5-1.2,2.6H205.3z"/>
			<path d="M236.5,243.3c-2,0-4-0.3-5.9-1c-1.9-0.7-3.6-1.6-4.9-2.9l2.9-5c1.4,1,2.8,1.7,4.2,2.2s2.6,0.8,3.7,0.8
				c1.2,0,1.8-0.4,1.8-1.1c0-0.4-0.2-0.8-0.7-1.1c-0.5-0.3-1.3-0.6-2.7-1c-1.6-0.5-3-0.9-4.1-1.4s-2-0.9-2.7-1.5
				c-0.7-0.5-1.2-1.1-1.5-1.8c-0.3-0.6-0.4-1.4-0.4-2.3c0-1.2,0.2-2.3,0.7-3.3s1.1-1.9,2-2.6c0.8-0.7,1.8-1.3,3-1.7s2.4-0.6,3.8-0.6
				c1.7,0,3.3,0.2,4.9,0.7c1.5,0.4,3.1,1.3,4.6,2.7l-3.2,5c-1.4-0.9-2.6-1.6-3.6-2c-1-0.4-1.9-0.6-2.7-0.6c-0.5,0-0.9,0.1-1.2,0.3
				c-0.3,0.2-0.5,0.5-0.5,0.9c0,0.4,0.2,0.8,0.7,1.1c0.5,0.3,1.4,0.6,2.8,0.9c1.7,0.4,3.1,0.9,4.2,1.4c1.1,0.5,2.1,1,2.8,1.6
				s1.2,1.2,1.5,1.9c0.3,0.7,0.4,1.5,0.4,2.5c0,1.2-0.2,2.3-0.7,3.2c-0.4,0.9-1.1,1.7-1.9,2.4c-0.8,0.7-1.8,1.2-3,1.5
				S238,243.3,236.5,243.3z"/>
			<path d="M260.4,243.3c-2,0-3.8-0.3-5.4-0.9c-1.6-0.6-2.9-1.5-4-2.6c-1.1-1.1-1.9-2.3-2.4-3.7c-0.6-1.4-0.8-2.9-0.8-4.4
				c0-1.7,0.3-3.3,0.8-4.8c0.5-1.5,1.4-2.8,2.4-3.9c1.1-1.1,2.4-2,4-2.7c1.6-0.7,3.4-1,5.5-1c2.1,0,3.9,0.3,5.5,1
				c1.6,0.7,2.9,1.5,4,2.6c1.1,1.1,1.9,2.4,2.4,3.8c0.5,1.5,0.8,3,0.8,4.6c0,0.4,0,0.9-0.1,1.3c0,0.5-0.1,0.9-0.2,1.2h-16.3
				c0.1,1.2,0.5,2.1,1.4,2.7c0.8,0.5,1.7,0.8,2.7,0.8c0.9,0,1.8-0.2,2.6-0.6c0.8-0.4,1.3-1,1.6-1.7l7.1,2c-0.9,1.8-2.4,3.4-4.3,4.5
				C265.6,242.7,263.2,243.3,260.4,243.3z M264.1,228.8c-0.1-1.1-0.6-2-1.2-2.6c-0.7-0.6-1.5-1-2.6-1c-1.1,0-1.9,0.3-2.6,1
				c-0.7,0.6-1.1,1.5-1.2,2.6H264.1z"/>
			<path d="M291.5,226.8c-1.6,0-3.1,0.2-4.4,0.5s-2.3,0.9-3,1.8v13.7h-8.4v-23.2h7.7v4.4c0.8-1.6,1.8-2.8,3.1-3.6
				c1.2-0.8,2.5-1.3,3.9-1.3c0.6,0,0.9,0,1.1,0V226.8z"/>
		</g>
	</g>
	<path class="st1" d="M287.5,335.3H162.8c-10.1,0-18.2,8.2-18.2,18.2v0c0,10.1,8.2,18.2,18.2,18.2h124.7c10.1,0,18.2-8.2,18.2-18.2
		v0C305.7,343.5,297.5,335.3,287.5,335.3z"/>
	<g>
		<path class="st0" d="M173.8,364.6l0-3.9l0.7-5.8l2.6,0l0.8,5.8l0,3.9L173.8,364.6z M173.8,351.3c0-1.2,0.8-2.1,2-2.1
			c1.2,0,2,0.8,2,2.1c0,1.2-0.8,2-2,2C174.7,353.4,173.8,352.5,173.8,351.3z"/>
		<path class="st0" d="M194.6,353.5c0,4.6-3.3,7.6-8.3,7.6l-6.5,0l-0.1-15.2l6.6,0C191.3,346,194.6,349,194.6,353.5z M190,353.6
			c0-2.4-1.5-4.1-3.7-4.1l-2.1,0l0,8.1l2.3,0C188.6,357.6,190,356,190,353.6z"/>
		<path class="st0" d="M206.9,353.5l0,7.6l-4.3,0l0-1.3c-0.7,1-1.9,1.5-3.4,1.5c-2.5,0-4-1.5-4-3.7c0-2.3,1.6-3.5,4.5-3.6l2.9,0v0
			c0-1-0.7-1.6-2-1.6c-0.9,0-2.3,0.3-3.5,0.9l-1.1-2.9c1.9-0.8,3.8-1.2,5.7-1.2C205,349.2,206.9,350.7,206.9,353.5z M202.7,357.2
			l0-1.1l-2,0c-0.9,0-1.3,0.4-1.3,1.1c0,0.7,0.5,1.2,1.3,1.2C201.6,358.5,202.3,358,202.7,357.2z"/>
		<path class="st0" d="M213.5,345l0.1,16.1l-4.4,0l-0.1-16.1L213.5,345z"/>
		<path class="st0" d="M227.5,356.2l-7.9,0c0.4,1.1,1.2,1.8,2.3,1.7c0.9,0,1.8-0.4,2.6-1.1l2.3,2.2c-1.2,1.4-3,2.1-5.2,2.1
			c-3.9,0-6.4-2.4-6.4-6c0-3.7,2.5-6.1,6.2-6.1C225.5,349.1,227.8,351.9,227.5,356.2z M221.4,352.1c-1,0-1.7,0.8-1.9,2l3.7,0
			C223.2,352.9,222.5,352.1,221.4,352.1z"/>
		<path class="st0" d="M240.8,352.6c-1.2,0-1.9,1-1.9,2.5c0,1.5,0.8,2.6,2,2.5c0.8,0,1.5-0.4,1.9-1.3l3.4,1.7
			c-0.9,2-2.9,3.1-5.5,3.1c-3.7,0-6.1-2.4-6.1-6c0-3.7,2.4-6.1,6.1-6.1c2.5,0,4.4,1.1,5.4,3.1l-3.4,1.7
			C242.3,353,241.6,352.6,240.8,352.6z"/>
		<path class="st0" d="M251.7,344.9l0.1,16.1l-4.4,0l-0.1-16.1L251.7,344.9z"/>
		<path class="st0" d="M258.7,349.1l0,11.8l-4.4,0l0-11.8L258.7,349.1z M258.4,345.9c0,1.1-0.8,1.8-1.9,1.8c-1.1,0-1.9-0.8-1.9-1.8
			c0-1.1,0.8-1.9,1.9-1.9C257.6,344,258.4,344.8,258.4,345.9z"/>
		<path class="st0" d="M266.6,352.5c-1.2,0-1.9,1-1.9,2.5c0,1.5,0.8,2.6,2,2.5c0.8,0,1.5-0.4,1.9-1.3l3.4,1.7
			c-0.9,2-2.9,3.1-5.5,3.1c-3.7,0-6.1-2.4-6.1-6c0-3.7,2.4-6.1,6.2-6.1c2.5,0,4.4,1.1,5.4,3.1l-3.3,1.7
			C268,352.9,267.4,352.5,266.6,352.5z"/>
		<path class="st0" d="M276.9,345.7l0,3.9l-0.7,5.8l-2.6,0l-0.8-5.8l0-3.9L276.9,345.7z M276.8,359c0,1.2-0.8,2.1-2,2.1
			c-1.2,0-2-0.8-2-2c0-1.2,0.8-2,2-2C275.9,357,276.8,357.8,276.8,359z"/>
	</g>
</g>
</svg>
