<?xml version="1.0" encoding="utf-8"?>
<!-- Generator: Adobe Illustrator 22.0.1, SVG Export Plug-In . SVG Version: 6.00 Build 0)  -->
<svg version="1.1" id="Capa_1" xmlns="http://www.w3.org/2000/svg" xmlns:xlink="http://www.w3.org/1999/xlink" x="0px" y="0px"
	 viewBox="0 0 544 422.9" style="enable-background:new 0 0 544 422.9;" xml:space="preserve">
<style type="text/css">
	.st0{fill:#00BC7B;}
	.st1{enable-background:new    ;}
	.st2{fill:#F4F4F4;}
	.st3{fill:#D8D8D8;}
	.st4{fill:#FFFFFF;}
	.st5{fill:#FF0600;}
	.st6{fill:#E4332A;}
	.st7{fill:#575756;}
	.st8{fill:#1C1C1B;}
	.st9{fill:#FDC99A;}
	.st10{fill:#1A364F;}
	.st11{opacity:0.39;fill:#274F6D;enable-background:new    ;}
	.st12{fill:#672482;}
	.st13{fill:#FDF28B;}
	.st14{fill:#FCCA66;}
	.st15{fill:#FDEB00;}
	.st16{fill:#FC5E5A;}
	.st17{fill:none;stroke:#1C1C1B;stroke-miterlimit:10;}
	.st18{fill:#FF9F98;}
	.st19{fill:#FFF6EF;}
	.st20{fill:#432918;}
	.st21{fill:#683C11;}
</style>
<g>
	<path id="XMLID_475_" class="st0" d="M396.1,164.6H167c0,0,11.5-27.6,25.8-28.8c14.3-1.1,18.3,7.7,22.9,6.8
		c4.6-0.9,12-23.7,30.4-24.8c18.3-1.1,25.5,15.9,35.5,19.1c10,3.2,29.8,1.4,45.3-23.5s44.8,1.8,45.5,21
		c1.1,29.5,46.1,13.1,46.1,30.2H396.1z"/>
	<ellipse id="XMLID_706_" class="st0" cx="251.9" cy="397" rx="217.5" ry="9.3"/>
	<g id="XMLID_705_">
		<g class="st1">
			<path class="st0" d="M9.4,268.3c-0.9-1.4-1.7-3.3-2.4-5.6c-0.8-2.4-1.1-4.9-1.1-7.5c0-4.9,1.1-8.4,3.3-10.5
				c2.2-2.1,5-3.2,8.5-3.2h81.8c0.9,1.4,1.7,3.3,2.4,5.6c0.8,2.4,1.1,4.9,1.1,7.5c0,4.9-1.1,8.4-3.3,10.5c-2.2,2.1-5,3.2-8.5,3.2
				H70.4v86.7c-1.4,0.4-3.5,0.8-6.5,1.1c-2.9,0.4-5.8,0.6-8.7,0.6c-2.9,0-5.4-0.2-7.6-0.7c-2.2-0.4-4-1.2-5.5-2.3
				c-1.5-1.1-2.6-2.7-3.4-4.7c-0.8-2-1.1-4.6-1.1-7.9v-72.8H9.4z"/>
			<path class="st0" d="M144.7,318.9v36c-1.4,0.4-3.5,0.8-6.5,1.1c-2.9,0.4-5.8,0.6-8.7,0.6c-2.9,0-5.4-0.2-7.6-0.7
				c-2.2-0.4-4-1.2-5.4-2.3c-1.4-1.1-2.5-2.7-3.3-4.7c-0.8-2-1.1-4.6-1.1-7.9v-88.3c0-2.6,0.7-4.7,2.2-6.1c1.4-1.4,3.4-2.6,5.9-3.5
				c4.2-1.5,9.2-2.6,14.8-3.3c5.6-0.7,11.6-1,18-1c17.3,0,30.3,3.6,39,10.9c8.8,7.3,13.1,17.1,13.1,29.4c0,7.8-2,14.4-6,19.9
				c-4,5.5-8.8,9.8-14.3,12.8c4.5,6.1,8.9,11.9,13.3,17.3c4.4,5.4,7.8,10.3,10.3,14.6c-1.3,4.4-3.5,7.7-6.8,10
				c-3.3,2.3-7,3.5-11.2,3.5c-2.8,0-5.1-0.3-7.1-0.9c-2-0.6-3.8-1.5-5.3-2.6c-1.5-1.1-2.9-2.5-4.1-4.1c-1.3-1.6-2.4-3.4-3.6-5.3
				l-15.8-25.3H144.7z M156.5,294c4.8,0,8.5-1.2,11.3-3.7c2.7-2.4,4.1-6,4.1-10.8c0-4.8-1.5-8.3-4.6-10.8c-3.1-2.4-7.9-3.7-14.5-3.7
				c-1.9,0-3.4,0.1-4.5,0.2c-1.1,0.1-2.4,0.3-3.8,0.6V294H156.5z"/>
			<path class="st0" d="M252.1,354.9c-1.4,0.4-3.5,0.8-6.5,1.1c-2.9,0.4-5.8,0.6-8.7,0.6c-2.9,0-5.4-0.2-7.6-0.7
				c-2.2-0.4-4-1.2-5.5-2.3c-1.5-1.1-2.6-2.7-3.4-4.7c-0.8-2-1.1-4.6-1.1-7.9v-99c1.4-0.2,3.6-0.6,6.6-1c3-0.4,5.9-0.7,8.6-0.7
				c2.9,0,5.4,0.2,7.6,0.7c2.2,0.4,4,1.2,5.5,2.3c1.5,1.1,2.6,2.7,3.4,4.7c0.8,2,1.1,4.6,1.1,7.9V354.9z"/>
			<path class="st0" d="M287,356.2c-5.4,0-9.6-1.6-12.8-4.7c-3.1-3.1-4.7-7.4-4.7-12.8v-97c1.4-0.2,3.6-0.6,6.6-1
				c3-0.4,5.9-0.7,8.6-0.7c2.9,0,5.4,0.2,7.6,0.7c2.2,0.4,4,1.2,5.5,2.3c1.5,1.1,2.6,2.7,3.4,4.7c0.8,2,1.1,4.6,1.1,7.9v74.1h43
				c0.9,1.4,1.7,3.2,2.4,5.5c0.8,2.3,1.1,4.7,1.1,7.2c0,5-1.1,8.5-3.2,10.6c-2.1,2.1-4.9,3.1-8.4,3.1H287z"/>
			<path class="st0" d="M411.2,264.9c-9.6,0-17,2.9-22.1,8.8c-5.1,5.9-7.7,14.2-7.7,24.9c0,10.9,2.8,19.3,8.5,25.1
				c5.7,5.9,13.3,8.8,23,8.8c5.1,0,9.5-0.7,13-2.1c3.6-1.4,7-2.9,10.2-4.7c2.1,1.8,3.8,3.8,5,6.3c1.2,2.4,1.8,5.3,1.8,8.5
				c0,5.1-2.8,9.5-8.5,13c-5.7,3.6-14.3,5.3-26,5.3c-8.4,0-16.3-1.2-23.6-3.6c-7.4-2.4-13.8-6-19.3-11c-5.5-4.9-9.8-11.2-13-18.8
				c-3.2-7.6-4.8-16.6-4.8-27.1c0-9.8,1.5-18.3,4.6-25.8c3.1-7.4,7.3-13.7,12.6-18.9c5.3-5.1,11.5-9,18.7-11.6
				c7.1-2.6,14.8-3.9,22.9-3.9c11.5,0,20.4,1.9,26.7,5.6c6.3,3.8,9.5,8.6,9.5,14.4c0,3.3-0.8,6.1-2.4,8.4c-1.6,2.4-3.5,4.3-5.6,5.6
				c-3.3-2.1-6.7-3.9-10.4-5.4C420.3,265.6,416.1,264.9,411.2,264.9z"/>
			<path class="st0" d="M453.4,259.4c0-5.4,1.6-9.6,4.7-12.8c3.1-3.1,7.4-4.7,12.8-4.7h61.9c0.9,1.4,1.7,3.2,2.3,5.4
				c0.7,2.3,1,4.6,1,7.1c0,4.8-1,8.1-3.1,10.1c-2.1,2-4.8,3-8.2,3h-39.6v17.4h42.2c0.9,1.4,1.7,3.2,2.3,5.3c0.7,2.2,1,4.5,1,7
				c0,4.8-1,8.1-3,10.1c-2,2-4.7,3-8.1,3h-34.5v19.7h48.2c0.9,1.4,1.7,3.2,2.3,5.4s1,4.6,1,7.1c0,4.8-1,8.2-3.1,10.2
				s-4.8,3.1-8.2,3.1h-54.8c-5.4,0-9.6-1.6-12.8-4.7c-3.1-3.1-4.7-7.4-4.7-12.8V259.4z"/>
		</g>
	</g>
	<g id="XMLID_632_">
		<g id="XMLID_703_">
			<polyline id="XMLID_704_" class="st2" points="332.4,8.3 323.7,8.3 323.7,17.8 333.1,8.4 			"/>
		</g>
		<g id="XMLID_701_">
			<path id="XMLID_702_" class="st2" d="M315.3,231h-148V19.5c0-6.2,5-11.2,11.2-11.2h145.3v214.2C323.7,227.2,320,231,315.3,231z"
				/>
		</g>
		<g id="XMLID_699_">
			<path id="XMLID_700_" class="st3" d="M341,47.5h-17.3V17c0-4.8,3.9-8.6,8.6-8.6l0,0c4.8,0,8.6,3.9,8.6,8.6L341,47.5L341,47.5z"/>
		</g>
		<g id="XMLID_697_">
			<path id="XMLID_698_" class="st4" d="M158.6,191.8h17.3v30.5c0,4.8-3.9,8.6-8.6,8.6l0,0c-4.8,0-8.6-3.9-8.6-8.6L158.6,191.8
				L158.6,191.8z"/>
		</g>
		<g id="XMLID_695_">
			<rect id="XMLID_696_" x="167.3" y="191.8" class="st4" width="147.8" height="39.1"/>
		</g>
		<g id="XMLID_693_">
			<path id="XMLID_694_" class="st3" d="M306.4,191.8h17.3v30.5c0,4.8-3.9,8.6-8.6,8.6l0,0c-4.8,0-8.6-3.9-8.6-8.6L306.4,191.8
				L306.4,191.8z"/>
		</g>
		<g id="XMLID_689_">
			<path id="XMLID_690_" class="st5" d="M287.9,42.5h-7.3c-1.6,0-2.9-1.3-2.9-2.9v-7.3c0-1.6,1.3-2.9,2.9-2.9h7.3
				c1.6,0,2.9,1.3,2.9,2.9v7.3C290.7,41.2,289.4,42.5,287.9,42.5z M280.5,30.5c-1,0-1.8,0.8-1.8,1.8v7.3c0,1,0.8,1.8,1.8,1.8h7.3
				c1,0,1.8-0.8,1.8-1.8v-7.3c0-1-0.8-1.8-1.8-1.8H280.5z"/>
		</g>
		<g id="XMLID_685_">
			<path id="XMLID_686_" class="st5" d="M287.9,65.6h-7.3c-1.6,0-2.9-1.3-2.9-2.9v-7.3c0-1.6,1.3-2.9,2.9-2.9h7.3
				c1.6,0,2.9,1.3,2.9,2.9v7.3C290.7,64.4,289.4,65.6,287.9,65.6z M280.5,53.6c-1,0-1.8,0.8-1.8,1.8v7.3c0,1,0.8,1.8,1.8,1.8h7.3
				c1,0,1.8-0.8,1.8-1.8v-7.3c0-1-0.8-1.8-1.8-1.8C287.8,53.6,280.5,53.6,280.5,53.6z"/>
		</g>
		<g id="XMLID_681_">
			<path id="XMLID_682_" class="st5" d="M287.9,88.8h-7.3c-1.6,0-2.9-1.3-2.9-2.9v-7.3c0-1.6,1.3-2.9,2.9-2.9h7.3
				c1.6,0,2.9,1.3,2.9,2.9v7.3C290.7,87.5,289.4,88.8,287.9,88.8z M280.5,76.8c-1,0-1.8,0.8-1.8,1.8v7.3c0,1,0.8,1.8,1.8,1.8h7.3
				c1,0,1.8-0.8,1.8-1.8v-7.3c0-1-0.8-1.8-1.8-1.8H280.5z"/>
		</g>
		<g id="XMLID_677_">
			<path id="XMLID_678_" class="st5" d="M287.9,112h-7.3c-1.6,0-2.9-1.3-2.9-2.9v-7.3c0-1.6,1.3-2.9,2.9-2.9h7.3
				c1.6,0,2.9,1.3,2.9,2.9v7.3C290.7,110.7,289.4,112,287.9,112z M280.5,100c-1,0-1.8,0.8-1.8,1.8v7.3c0,1,0.8,1.8,1.8,1.8h7.3
				c1,0,1.8-0.8,1.8-1.8v-7.3c0-1-0.8-1.8-1.8-1.8H280.5z"/>
		</g>
		<g id="XMLID_673_">
			<path id="XMLID_674_" class="st5" d="M287.9,135.1h-7.3c-1.6,0-2.9-1.3-2.9-2.9v-7.3c0-1.6,1.3-2.9,2.9-2.9h7.3
				c1.6,0,2.9,1.3,2.9,2.9v7.3C290.7,133.8,289.4,135.1,287.9,135.1z M280.5,123.1c-1,0-1.8,0.8-1.8,1.8v7.3c0,1,0.8,1.8,1.8,1.8
				h7.3c1,0,1.8-0.8,1.8-1.8v-7.3c0-1-0.8-1.8-1.8-1.8C287.8,123.1,280.5,123.1,280.5,123.1z"/>
		</g>
		<g id="XMLID_669_">
			<path id="XMLID_670_" class="st5" d="M287.9,158.3h-7.3c-1.6,0-2.9-1.3-2.9-2.9v-7.3c0-1.6,1.3-2.9,2.9-2.9h7.3
				c1.6,0,2.9,1.3,2.9,2.9v7.3C290.7,157,289.4,158.3,287.9,158.3z M280.5,146.3c-1,0-1.8,0.8-1.8,1.8v7.3c0,1,0.8,1.8,1.8,1.8h7.3
				c1,0,1.8-0.8,1.8-1.8v-7.3c0-1-0.8-1.8-1.8-1.8H280.5z"/>
		</g>
		<g id="XMLID_665_">
			<path id="XMLID_666_" class="st6" d="M287.9,181.5h-7.3c-1.6,0-2.9-1.3-2.9-2.9v-7.3c0-1.6,1.3-2.9,2.9-2.9h7.3
				c1.6,0,2.9,1.3,2.9,2.9v7.3C290.7,180.2,289.4,181.5,287.9,181.5z M280.5,169.4c-1,0-1.8,0.8-1.8,1.8v7.3c0,1,0.8,1.8,1.8,1.8
				h7.3c1,0,1.8-0.8,1.8-1.8v-7.3c0-1-0.8-1.8-1.8-1.8H280.5z"/>
		</g>
		<g id="XMLID_663_">
			<rect id="XMLID_664_" x="186.6" y="29.9" class="st3" width="80.7" height="6"/>
		</g>
		<g id="XMLID_661_">
			<rect id="XMLID_662_" x="186.6" y="53.5" class="st3" width="80.7" height="6"/>
		</g>
		<g id="XMLID_659_">
			<rect id="XMLID_660_" x="186.6" y="63.2" class="st3" width="32.6" height="6"/>
		</g>
		<g id="XMLID_657_">
			<rect id="XMLID_658_" x="186.6" y="78.7" class="st3" width="80.7" height="6"/>
		</g>
		<g id="XMLID_655_">
			<rect id="XMLID_656_" x="186.6" y="98.5" class="st3" width="80.7" height="6"/>
		</g>
		<g id="XMLID_653_">
			<rect id="XMLID_654_" x="186.6" y="122.6" class="st3" width="80.7" height="6"/>
		</g>
		<g id="XMLID_651_">
			<rect id="XMLID_652_" x="186.6" y="131.6" class="st3" width="80.7" height="6"/>
		</g>
		<g id="XMLID_649_">
			<rect id="XMLID_650_" x="186.6" y="145.8" class="st3" width="80.7" height="6"/>
		</g>
		<g id="XMLID_647_">
			<rect id="XMLID_648_" x="186.6" y="154.8" class="st3" width="43.3" height="6"/>
		</g>
		<g id="XMLID_645_">
			<rect id="XMLID_646_" x="186.6" y="167.4" class="st3" width="80.7" height="6"/>
		</g>
		<g id="XMLID_643_">
			<rect id="XMLID_644_" x="186.6" y="176.4" class="st3" width="43.3" height="6"/>
		</g>
		<g id="XMLID_641_">
			<rect id="XMLID_642_" x="186.6" y="108.2" class="st3" width="32.6" height="6"/>
		</g>
		<g id="XMLID_639_">
			<path id="XMLID_640_" class="st7" d="M284.3,39.7h-0.1c-0.5,0-1-0.4-1.3-0.8c-0.6-1.1-1.3-2-2.1-2.9c-0.6-0.6-0.6-1.6,0-2.2
				c0.6-0.6,1.6-0.6,2.2,0c0.5,0.5,1,1.1,1.4,1.7c2.7-3.3,5.6-6.5,8.6-9.6c0.6-0.6,1.6-0.6,2.2,0s0.6,1.6,0,2.2
				c-3.5,3.5-6.7,7.2-9.7,11C285.2,39.5,284.8,39.7,284.3,39.7z"/>
		</g>
		<g id="XMLID_637_">
			<path id="XMLID_638_" class="st7" d="M284.3,63.6h-0.1c-0.5,0-1-0.4-1.3-0.8c-0.6-1.1-1.3-2-2.1-2.9c-0.6-0.6-0.6-1.6,0-2.2
				c0.6-0.6,1.6-0.6,2.2,0c0.5,0.5,1,1.1,1.4,1.7c2.7-3.3,5.6-6.5,8.6-9.6c0.6-0.6,1.6-0.6,2.2,0s0.6,1.6,0,2.2
				c-3.5,3.5-6.7,7.2-9.7,11C285.2,63.4,284.8,63.6,284.3,63.6z"/>
		</g>
		<g id="XMLID_635_">
			<path id="XMLID_636_" class="st7" d="M284.3,132.4h-0.1c-0.5,0-1-0.4-1.3-0.8c-0.6-1.1-1.3-2-2.1-2.9c-0.6-0.6-0.6-1.6,0-2.2
				s1.6-0.6,2.2,0c0.5,0.5,1,1.1,1.4,1.7c2.7-3.3,5.6-6.5,8.6-9.6c0.6-0.6,1.6-0.6,2.2,0s0.6,1.6,0,2.2c-3.5,3.5-6.7,7.2-9.7,11
				C285.2,132.2,284.8,132.4,284.3,132.4z"/>
		</g>
		<g id="XMLID_633_">
			<path id="XMLID_634_" class="st7" d="M284.3,177.6h-0.1c-0.5,0-1-0.4-1.3-0.8c-0.6-1.1-1.3-2-2.1-2.9c-0.6-0.6-0.6-1.6,0-2.2
				c0.6-0.6,1.6-0.6,2.2,0c0.5,0.5,1,1.1,1.4,1.7c2.7-3.3,5.6-6.5,8.6-9.6c0.6-0.6,1.6-0.6,2.2,0s0.6,1.6,0,2.2
				c-3.5,3.5-6.7,7.2-9.7,11C285.2,177.4,284.8,177.6,284.3,177.6z"/>
		</g>
	</g>
	<path id="XMLID_631_" d="M346.7,318.6l1.3,5.3c0,0,1.6,8,4.7,9.5c3.2,1.5,1.6-10.5,1.3-11.2c-0.3-0.7-1.2-8-1.9-9.1
		c-0.7-1.1-1-0.4-4.7,0.7C347.5,313.8,345.9,315.1,346.7,318.6z"/>
	<path id="XMLID_630_" d="M380.5,268.2c0,0-4.3,1.5-4.7,4.7c-0.5,3.2,19.3,11.8,19.3,11.8s0.9,0,0-1.2l-6.9-8.1c0,0-2.6-4.1-4.6-4.8
		C381.8,269.9,380.5,268.2,380.5,268.2z"/>
	<path id="XMLID_628_" class="st4" d="M346.7,309.5l1.1,5.5l0.8,0.5c1.2,0.7,2.7,0.3,3.3-0.9l0,0v-5.8L346.7,309.5z"/>
	<circle id="XMLID_627_" class="st8" cx="326.1" cy="118.8" r="4.3"/>
	<circle id="XMLID_625_" class="st8" cx="330" cy="130.1" r="4.3"/>
	<circle id="XMLID_567_" class="st8" cx="328" cy="124.3" r="4.3"/>
	<g id="XMLID_623_">
		<path id="XMLID_624_" class="st9" d="M333.2,159.9c0.3-0.4,0.4-0.6,0.6-0.8l0,0c0.4,0,0.9,0,1.3,0c0.3-0.1,0.6-0.1,0.8-0.1
			c0.3,0,0.4,0,0.4,0c0.3,0,0.6,0.1,0.8,0.1c1,0.1,2,0.3,3,0.6c1.2,0.3,5.8,3.4,6.8,2.8l27.7,44l-2.4,4.1l-46.9-46
			C325.4,164.4,332.3,161.1,333.2,159.9z"/>
	</g>
	<g id="XMLID_621_">
		<path id="XMLID_622_" class="st9" d="M282.4,174.5c-0.3-0.3-0.5-0.5-0.7-0.7l0,0c-0.4,0.1-0.9,0.2-1.3,0.2c-0.3,0-0.6,0-0.8,0
			c-0.3,0-0.4,0-0.4,0c-0.3,0.1-0.6,0.2-0.8,0.2c-1,0.3-1.9,0.6-2.9,1c-1.1,0.4-2.3,0.3-3.3-0.1l-23.6,51.6l3,3.7l39.3-52.6
			C290.8,177.8,283.5,175.6,282.4,174.5z"/>
	</g>
	<path id="XMLID_620_" class="st4" d="M382.9,263.5l-2.4,4.7c-0.3,1.3,1.6,4.5,2.9,4.7l2.2,0.3L388,263L382.9,263.5z"/>
	<path id="XMLID_619_" class="st10" d="M402.7,208.1c-7.6-0.3-30.9,0.4-49.5,11c-13.7,7.8-56.1,6.2-56.1,6.2s-14.5,19.1,10.7,31.8
		c25.2,12.7,23.7,19.6,27.1,27.5c2.7,6.3,8.7,17.5,11.1,24c0.7,1.8,2.7,2.7,4.5,2h0.1c1.1-0.5,1.9-1.5,2.1-2.7
		c1.2-9.3,4.5-35.5,4.2-39c-0.3-4.3-14.1-22.7-14.1-22.7s28.8-2.3,40.4-10.7c0,0,1.2,15.8-0.1,20.7c-0.5,2-1.2,4.9-1.9,7.6
		c2.2,1,4.3,2.2,6.5,3.4c5.1-8.3,19.5-32.3,22.1-42.6C412.5,211.8,408.4,208.3,402.7,208.1z"/>
	<path id="XMLID_618_" class="st11" d="M324.7,234.2c0,0-2.8,9.9,9.8,20.4c12.6,10.5,22.2,18.5,21.2,26.9l-3.2,26.4
		c0,0-1.9,5.2-6,1.8l-7.6-16.1c0,0-5-9.8-6.8-16c0,0-0.9-5.5-13-13.9c-12.1-8.3-18.9-8.1-24.5-18.1c-5.5-10,2.3-20.2,2.3-20.2
		L324.7,234.2z"/>
	<g id="XMLID_615_">
		<path id="XMLID_617_" class="st12" d="M323.5,161.5l4.3,4.8c9.7,10.7,15.5,26.1,16.3,43.1l0.4,8.4l-56.3,10.5l5.3-57.3
			L323.5,161.5z"/>
		<path id="XMLID_616_" class="st12" d="M349.7,216.4c0,0-3.8,1.3-10.9,11.3c-11.2,15.9-51.5,10-55.3-3
			C279.6,211.7,349.7,216.4,349.7,216.4z"/>
	</g>
	<path id="XMLID_614_" class="st12" d="M288.9,184.4l-4.7,5.5l-16.3-7.5c0,0,10.5-23.5,33.9-25.6l19.4-0.4l3.1,6.5L288.9,184.4z"/>
	<path id="XMLID_613_" class="st12" d="M341.6,181.4l5.1,8.5l14.9-7.5c0,0-8.1-26.4-33.9-25.6l-19.4-0.4l-3.1,6.5L341.6,181.4z"/>
	<g id="XMLID_604_">
		
			<rect id="XMLID_612_" x="168.7" y="206.4" transform="matrix(0.9852 -0.1713 0.1713 0.9852 -32.9992 53.6864)" class="st13" width="251.8" height="23.3"/>
		<path id="XMLID_611_" class="st14" d="M420.6,208l32.5-17.5l-36.5-5.5l0,0c-1.8,5.9-1.2,12.2,1.5,17.8L420.6,208z"/>
		<path id="XMLID_610_" class="st8" d="M443.5,189.1c0,0-1.3,2.1-0.8,3.7c0.6,1.6,1.8,2.4,1.8,2.4l8.5-4.6L443.5,189.1z"/>
		
			<rect id="XMLID_609_" x="146.5" y="230.1" transform="matrix(0.9853 -0.1711 0.1711 0.9853 -39.0261 30.702)" class="st8" width="24.2" height="23.3"/>
		
			<rect id="XMLID_608_" x="150.2" y="231.2" transform="matrix(0.9853 -0.1711 0.1711 0.9853 -39.3114 29.5871)" class="st15" width="3.6" height="23.3"/>
		
			<rect id="XMLID_607_" x="160.6" y="229.4" transform="matrix(0.9853 -0.1711 0.1711 0.9853 -38.8505 31.3404)" class="st15" width="3.6" height="23.3"/>
		<path id="XMLID_606_" class="st16" d="M142.2,256.4l6.5-1.1l-4-22.9l-6.5,1.1c-6.3,1.1-10.6,7.1-9.5,13.5l0,0
			C129.8,253.2,135.9,257.5,142.2,256.4z"/>
		<path id="XMLID_605_" class="st8" d="M195.9,239.9l-13.5,2.3c-2,0.4-4-1-4.3-3l0,0c-0.4-2,1-4,3-4.3l13.5-2.3c2-0.4,4,1,4.3,3l0,0
			C199.3,237.6,197.9,239.5,195.9,239.9z"/>
	</g>
	<path id="XMLID_603_" class="st9" d="M246,240c0.4,0,0.8,0,1.1,0.1c0.9-0.9,3.7-3.6,4-4c0.3-0.5,0.2-1.1-0.6-0.9
		c-0.8,0.2-4.2,3.6-4.2,3.6s2.1-4.4,2.8-5.5s0.4-2.9-0.6-1.9c-0.9,1-3.6,6.1-3.6,6.1s1.7-6.3,2.2-7.5c0.6-1.2-0.4-1.8-1.2-1.5
		S242,238,242,238s1-5.9,1.6-7.7c0.5-1.9-0.8-2.6-1.5-1.7c-0.6,0.8-2.6,9.6-3.1,11.6C240.6,240.7,244.7,240,246,240z"/>
	<path id="XMLID_602_" class="st9" d="M298.5,125.8c0,0-3.8-1.5-4.9,1.9s-0.3,10.1,5.5,11.9s5-4.3,5-4.3L298.5,125.8z"/>
	<path id="XMLID_601_" class="st9" d="M379.3,217.8c-0.4,0.1-0.7,0.1-1.1,0.2c-1-0.7-4.2-3-4.5-3.4c-0.4-0.4-0.4-1,0.5-0.9
		s4.7,2.9,4.7,2.9s-2.8-4-3.6-5c-0.8-1-0.8-2.8,0.3-1.9c1.1,0.8,4.5,5.5,4.5,5.5s-2.6-5.9-3.4-7.1c-0.8-1.1,0.1-1.8,0.9-1.7
		c0.8,0.2,5.3,8.8,5.3,8.8s-1.9-5.6-2.8-7.4c-0.8-1.8,0.4-2.7,1.2-1.9c0.7,0.6,4.1,9.1,4.8,11C384.7,217.7,380.6,217.7,379.3,217.8z
		"/>
	<path id="XMLID_600_" class="st9" d="M332.4,132c0.5,6-0.4,11.6-8.9,16.8c0,0-4.1,5.2-1.9,11.4c2.1,6.2-15.3,7.8-13.8-1.3
		c1.6-9.1-4-18.7-7.9-24.1c-3.9-5.4-4-17.5,2.8-22.3c2.7-1.9,9.8-2,14.7-0.3C325.7,115,331.7,123.3,332.4,132z"/>
	<path id="XMLID_599_" class="st17" d="M322.1,123.8c0,3.5,2.9,6.2,6.3,6.2c3.5,0,6.2-2.9,6.2-6.3c0-3.5-2.9-6.2-6.3-6.2
		C324.9,117.5,322.1,120.4,322.1,123.8z"/>
	<path id="XMLID_598_" class="st17" d="M306.4,124c0,3.5,2.9,6.2,6.3,6.2c3.5,0,6.2-2.9,6.2-6.3c0-3.5-2.9-6.2-6.3-6.2
		C309.1,117.7,306.4,120.5,306.4,124z"/>
	<polygon id="XMLID_597_" class="st18" points="320.6,118.8 325.3,131 318.7,131.1 	"/>
	<line id="XMLID_596_" class="st17" x1="323.4" y1="120" x2="317.6" y2="120.1"/>
	<path id="XMLID_595_" d="M324.7,123.8c0.2,0.7,0.7,1.1,1.2,1s0.7-0.8,0.5-1.4c-0.2-0.7-0.7-1.1-1.2-1S324.5,123.1,324.7,123.8z"/>
	<path id="XMLID_594_" d="M314,124.4c0.2,0.7,0.7,1.1,1.2,1s0.7-0.8,0.5-1.4c-0.2-0.7-0.7-1.1-1.2-1C314,123,313.8,123.7,314,124.4z
		"/>
	<circle id="XMLID_591_" class="st8" cx="300.2" cy="125.8" r="4.3"/>
	<circle id="XMLID_557_" class="st8" cx="302.1" cy="129.8" r="4.3"/>
	<circle id="XMLID_415_" class="st8" cx="301.4" cy="120.3" r="4.3"/>
	<circle id="XMLID_590_" class="st8" cx="321.9" cy="114.5" r="4.3"/>
	<g id="XMLID_574_">
		<g id="XMLID_575_">
			<path id="XMLID_576_" class="st19" d="M323.2,136.4c0,0,1.5-1,2.7-1.1c1.3-0.1,2.6,0.3,2.9,1.9c0.4,1.6-1.2,2.9-3,4
				c-1.1,0.7-4.9,1.6-7.1,0.7c-2.2-0.9-3.3-1.6-3.9-3s0.5-2.9,1.6-3.4s2.3,0,2.9,0.4C319.9,136.3,321.3,137.3,323.2,136.4z"/>
		</g>
	</g>
	<path id="XMLID_573_" class="st20" d="M296.1,118.6l-0.2-0.5c-3-7,0.2-15.2,7.2-18.3l0,0c7.1-3.2,15.4,0,18.6,7.1l0.7,1.5
		L296.1,118.6z"/>
	<path id="XMLID_572_" class="st21" d="M296.5,124.7l28.1-10.6c1.8-0.7,3-2.5,2.9-4.4l-0.1-2c-0.1-1.8-1.9-2.9-3.6-2.2l-32.6,12.9
		c-1.8,0.8-2.1,3.2-0.6,4.4l1.6,1.3C293.5,125,295.1,125.2,296.5,124.7z"/>
	<polygon id="XMLID_570_" class="st4" points="294.8,113 319.4,103.3 320.5,104.7 294.8,115.1 	"/>
	<path id="XMLID_563_" class="st0" d="M458.5,41.8h-84.8c0,0,4.2-10.2,9.5-10.7c5.3-0.4,6.8,2.8,8.5,2.5s4.4-8.8,11.2-9.2
		c6.8-0.4,9.4,5.9,13.1,7.1c3.7,1.2,11,0.5,16.7-8.7s16.6,0.7,16.8,7.8c0.4,10.9,17.1,4.9,17.1,11.2H458.5z"/>
	<path id="XMLID_562_" class="st0" d="M122.6,136.5H37.9c0,0,4.2-10.2,9.5-10.7c5.3-0.4,6.8,2.8,8.5,2.5s4.4-8.8,11.2-9.2
		c6.8-0.4,9.4,5.9,13.1,7.1s11,0.5,16.7-8.7s16.6,0.7,16.8,7.8c0.4,10.9,17.1,4.9,17.1,11.2L122.6,136.5L122.6,136.5z"/>
</g>
</svg>
