<?xml version="1.0" encoding="utf-8"?>
<!-- Generator: Adobe Illustrator 24.0.2, SVG Export Plug-In . SVG Version: 6.00 Build 0)  -->
<svg version="1.1" id="Capa_1" xmlns="http://www.w3.org/2000/svg" xmlns:xlink="http://www.w3.org/1999/xlink" x="0px" y="0px"
	 viewBox="0 0 644.3 428.9" style="enable-background:new 0 0 644.3 428.9;" xml:space="preserve">
<style type="text/css">
	.st0{fill:#F72300;}
	.st1{fill:#47446F;}
	.st2{fill:#00CDCF;}
	.st3{fill:#BBF1E6;}
	.st4{clip-path:url(#SVGID_2_);fill:#BBF1E6;}
	.st5{clip-path:url(#SVGID_2_);fill:#00CDCF;}
	.st6{fill:#FF3C57;}
	.st7{fill:#001F3D;}
	.st8{fill:#0084AA;}
	.st9{fill:#282649;}
	.st10{fill:#00B4DC;}
	.st11{fill:#FFFFFF;}
	.st12{clip-path:url(#SVGID_4_);fill:#FFD4B4;}
	.st13{clip-path:url(#SVGID_4_);}
	.st14{clip-path:url(#SVGID_6_);fill:#F2A7A2;}
	.st15{clip-path:url(#SVGID_4_);fill:#FF3C57;}
	.st16{clip-path:url(#SVGID_4_);fill:#F2A7A2;}
	.st17{clip-path:url(#SVGID_8_);fill:#DE2035;}
	.st18{clip-path:url(#SVGID_4_);fill:#47446F;}
	.st19{clip-path:url(#SVGID_4_);fill:#FFFFFF;}
	.st20{clip-path:url(#SVGID_4_);fill:#0084AA;}
	.st21{clip-path:url(#SVGID_4_);fill:#99A0B9;}
	.st22{clip-path:url(#SVGID_4_);fill:#E2EBF2;}
	.st23{clip-path:url(#SVGID_4_);fill:#7CBAD0;}
	.st24{clip-path:url(#SVGID_10_);fill:#F2A7A2;}
	.st25{clip-path:url(#SVGID_12_);fill:#DE2035;}
	.st26{clip-path:url(#SVGID_4_);fill:#172327;}
	.st27{clip-path:url(#SVGID_14_);fill:#FF3C57;}
	.st28{clip-path:url(#SVGID_14_);fill:#FFFFFF;}
	.st29{clip-path:url(#SVGID_4_);fill:#001F3D;}
	.st30{clip-path:url(#SVGID_4_);fill:#DE2035;}
	.st31{clip-path:url(#SVGID_16_);fill:#DE2035;}
	.st32{clip-path:url(#SVGID_4_);fill:#00CDCF;}
	.st33{fill:#FFC793;}
	.st34{fill:#F79D95;}
	.st35{fill:#005E88;}
	.st36{fill:#631900;}
</style>
<g>
	<path class="st0" d="M636.3,330.9c0,31.7-4.7,62.3-13.5,91.2H23.9c-8.8-28.8-13.5-59.5-13.5-91.2c0-172.8,140.1-313,313-313
		C496.2,17.9,636.3,158,636.3,330.9"/>
	<path class="st1" d="M597.5,38.4c-10.2-4.2-26.7-9.3-47.2-8.9c-21.5,0.4-38,6.5-47.3,10.8c-9.6-4.4-27.8-11.2-51.4-10.8
		c-18.5,0.3-33.4,4.9-43.1,8.9c-2.6,1.1-4.2,3.5-4.2,6.3v119.2c0,4.5,4.3,7.8,8.6,6.5c10.9-3,25.3-5.7,42.3-5.6
		c17.9,0.2,32.8,3.5,43.6,6.8c2.8,0.9,5.7,0.9,8.5,0c11.3-3.5,27.3-7.1,46.7-6.9c15.6,0.2,28.9,2.7,39.2,5.6c4.3,1.2,8.6-2,8.6-6.5
		V44.7C601.7,41.9,600.1,39.4,597.5,38.4"/>
	<path class="st2" d="M545.8,31.4c-19.4,0.3-34.4,5.9-42.8,9.8c-8.6-4-25.1-10.1-46.5-9.8c-19.4,0.3-34.4,5.9-42.8,9.8v106.7
		l3.9,6.8c1.5,2.7,4.6,4,7.6,3.2c9.3-2.3,21.1-4.2,34.6-4.1c16.5,0.2,30.3,3.3,40.1,6.4c2.1,0.7,4.3,0.7,6.4,0
		c10.2-3.2,25-6.6,42.9-6.4c12.3,0.1,23,1.9,31.8,4.1c3,0.7,6.1-0.6,7.6-3.2l3.9-6.8V41.1C583.6,37.2,567.2,31,545.8,31.4"/>
	<path class="st3" d="M592.3,32v115.9c-9.9-3.4-24.8-7.3-43.3-7.5c-19.8-0.2-35.8,3.9-46.1,7.5V27.7c8.4-3.9,23.4-9.4,42.8-9.8
		c18.4-0.3,33.2,4.2,42.5,8C590.7,26.9,592.3,29.3,592.3,32"/>
	<g>
		<defs>
			<path id="SVGID_1_" d="M503,27.7v120.1c-9.9-3.4-24.8-7.3-43.3-7.5c-19.8-0.2-35.8,3.9-46.1,7.5c0-40,0-80.1,0-120.1
				c8.4-3.9,23.4-9.4,42.8-9.8C477.9,17.6,494.3,23.7,503,27.7"/>
		</defs>
		<clipPath id="SVGID_2_">
			<use xlink:href="#SVGID_1_"  style="overflow:visible;"/>
		</clipPath>
		<path class="st4" d="M503,27.7v120.1c-9.9-3.4-24.8-7.3-43.3-7.5c-19.8-0.2-35.8,3.9-46.1,7.5V32c0-2.6,1.6-5,4-6
			c8.8-3.6,22.1-7.7,38.8-8C477.9,17.6,494.3,23.7,503,27.7"/>
		<polyline class="st5" points="503,27.7 503,147.8 461.7,147.8 503,27.7 		"/>
	</g>
	
		<rect x="503.7" y="303.4" transform="matrix(0.3094 -0.9509 0.9509 0.3094 77.1295 726.4459)" class="st6" width="70.1" height="13.3"/>
	<polygon class="st7" points="523.8,355.9 534.3,345.3 521.6,341.2 	"/>
	<path class="st7" d="M552.6,267.4L552.6,267.4c3.5,1.1,5.4,4.9,4.3,8.4l-1,3.1l-12.7-4.1l1-3.1
		C545.3,268.1,549.1,266.2,552.6,267.4z"/>
	<path class="st2" d="M519.5,229.5H498c-1,0-1.7,0.8-1.7,1.7v90.3h25v-90.3C521.2,230.3,520.5,229.5,519.5,229.5z"/>
	<polyline class="st7" points="496.3,237 503,237 503,236 496.3,236 	"/>
	<polyline class="st7" points="496.3,240.7 503,240.7 503,239.7 496.3,239.7 	"/>
	<polyline class="st7" points="496.3,244.5 503,244.5 503,243.5 496.3,243.5 	"/>
	<polyline class="st7" points="496.3,248.2 503,248.2 503,247.2 496.3,247.2 	"/>
	<polyline class="st7" points="496.3,252 503,252 503,251 496.3,251 	"/>
	<polyline class="st7" points="496.3,255.7 503,255.7 503,254.7 496.3,254.7 	"/>
	<polyline class="st7" points="496.3,259.5 503,259.5 503,258.5 496.3,258.5 	"/>
	<polyline class="st7" points="496.3,263.2 503,263.2 503,262.2 496.3,262.2 	"/>
	<polyline class="st7" points="496.3,267 503,267 503,266 496.3,266 	"/>
	<polyline class="st7" points="496.3,270.7 503,270.7 503,269.7 496.3,269.7 	"/>
	<polyline class="st7" points="496.3,274.5 503,274.5 503,273.5 496.3,273.5 	"/>
	<polyline class="st7" points="496.3,278.2 503,278.2 503,277.2 496.3,277.2 	"/>
	<polyline class="st7" points="496.3,282 503,282 503,281 496.3,281 	"/>
	<polyline class="st7" points="496.3,285.7 503,285.7 503,284.7 496.3,284.7 	"/>
	<polyline class="st7" points="496.3,289.5 503,289.5 503,288.5 496.3,288.5 	"/>
	<polyline class="st7" points="496.3,293.2 503,293.2 503,292.2 496.3,292.2 	"/>
	<polyline class="st7" points="496.3,297 503,297 503,296 496.3,296 	"/>
	<polyline class="st7" points="496.3,300.7 503,300.7 503,299.7 496.3,299.7 	"/>
	<polyline class="st7" points="496.3,304.5 503,304.5 503,303.5 496.3,303.5 	"/>
	<polyline class="st7" points="496.3,308.2 503,308.2 503,307.2 496.3,307.2 	"/>
	<polyline class="st7" points="496.3,312 503,312 503,311 496.3,311 	"/>
	<polyline class="st7" points="496.3,315.7 503,315.7 503,314.7 496.3,314.7 	"/>
	<polyline class="st7" points="496.3,319.5 503,319.5 503,318.5 496.3,318.5 	"/>
	<path class="st8" d="M535.5,307.7H514v21.7c0,2.3,1.8,4.1,4.1,4.1h13.3c2.3,0,4.1-1.8,4.1-4.1V307.7z"/>
	<path class="st3" d="M532.8,301h-16.3c-1.4,0-2.6,1.2-2.6,2.6v4.1h21.5v-4.1C535.5,302.2,534.3,301,532.8,301z"/>
	<path class="st1" d="M550.9,321.5h-59.3c-3.5,0-6.3,2.8-6.3,6.3v77.8c0,3.5,2.8,6.3,6.3,6.3h59.3c3.5,0,6.3-2.8,6.3-6.3v-77.8
		C557.2,324.3,554.4,321.5,550.9,321.5"/>
	<polyline class="st9" points="489.8,322.4 489.8,335.3 491.8,411.8 544.3,411.8 489.8,322.4 	"/>
	<path class="st8" d="M330.5,14.7v84.9c0,4.3-3.5,7.8-7.8,7.8H208.1c-4.3,0-7.8-3.5-7.8-7.8V14.7c0-4.3,3.5-7.8,7.8-7.8h114.6
		C327,6.8,330.5,10.3,330.5,14.7z"/>
	<path class="st10" d="M330.5,21.7v77.8c0,4.3-3.5,7.8-7.8,7.8H208.1c-4.3,0-7.8-3.5-7.8-7.8V21.7H330.5z"/>
	<path class="st11" d="M323.1,14.5c0,1.5-1.2,2.7-2.7,2.7c-1.5,0-2.7-1.2-2.7-2.7s1.2-2.7,2.7-2.7C321.9,11.8,323.1,13,323.1,14.5z"
		/>
	<path class="st11" d="M314.7,14.5c0,1.5-1.2,2.7-2.7,2.7s-2.7-1.2-2.7-2.7s1.2-2.7,2.7-2.7S314.7,13,314.7,14.5z"/>
	<path class="st11" d="M306.2,14.5c0,1.5-1.2,2.7-2.7,2.7c-1.5,0-2.7-1.2-2.7-2.7s1.2-2.7,2.7-2.7C305,11.8,306.2,13,306.2,14.5z"/>
	<rect x="208.9" y="30.4" class="st8" width="114.2" height="64.7"/>
	<path class="st2" d="M265.4,52.6v264.5c0,7.6-6.2,13.8-13.8,13.8H49.8c-7.6,0-13.8-6.2-13.8-13.8V52.6c0-7.6,6.2-13.8,13.8-13.8
		h201.8C259.2,38.8,265.4,45,265.4,52.6"/>
	<path class="st3" d="M265.4,65v252c0,7.6-6.2,13.8-13.8,13.8H49.8c-7.6,0-13.8-6.2-13.8-13.8V65H265.4"/>
	<circle class="st11" cx="247.6" cy="52.4" r="4.7"/>
	<circle class="st11" cx="232.7" cy="52.4" r="4.7"/>
	<path class="st11" d="M222.6,52.4c0,2.6-2.1,4.7-4.7,4.7s-4.7-2.1-4.7-4.7s2.1-4.7,4.7-4.7S222.6,49.7,222.6,52.4z"/>
	<rect x="51.3" y="80.3" class="st11" width="201.1" height="113.9"/>
	<polyline class="st11" points="51.3,217.1 252.3,217.1 252.3,212.1 51.3,212.1 	"/>
	<polyline class="st11" points="51.3,233.4 252.3,233.4 252.3,228.4 51.3,228.4 	"/>
	<polyline class="st11" points="213.1,249.8 252.3,249.8 252.3,244.8 213.1,244.8 	"/>
	<polyline class="st11" points="51.3,249.8 200.8,249.8 200.8,244.8 51.3,244.8 	"/>
	<polyline class="st11" points="51.3,266.2 252.3,266.2 252.3,261.2 51.3,261.2 	"/>
	<polyline class="st11" points="160.2,282.5 252.3,282.5 252.3,277.5 160.2,277.5 160.2,282.5 	"/>
	<polyline class="st11" points="51.3,282.5 138.5,282.5 138.5,277.5 51.3,277.5 	"/>
	<polyline class="st11" points="51.3,298.9 117.7,298.9 117.7,293.9 51.3,293.9 	"/>
	<path class="st1" d="M518.8,413.5H109.8c-4.7,0-8.5-3.8-8.5-8.5v-11.2h425.8v11.2C527.2,409.7,523.4,413.5,518.8,413.5z"/>
	<path class="st8" d="M482,186.2H146.6c-4.3,0-7.8,3.5-7.8,7.8v191.2h351V194C489.8,189.7,486.3,186.2,482,186.2"/>
	<polyline class="st7" points="477.4,196.8 151.2,196.8 151.2,374.6 477.4,374.6 477.4,196.8 	"/>
	<rect x="101.4" y="385.2" class="st2" width="425.8" height="8.7"/>
	<g>
		<defs>
			<polyline id="SVGID_3_" points="566,29.5 72.4,29.5 72.4,374.6 566,374.6 566,29.5 			"/>
		</defs>
		<clipPath id="SVGID_4_">
			<use xlink:href="#SVGID_3_"  style="overflow:visible;"/>
		</clipPath>
		<path class="st12" d="M270,278.2l-44.3,21.5c-7.3,3.5-16,0.9-20.2-6c-4.6-7.7-1.8-17.6,6.1-21.8l45.8-24.2L270,278.2"/>
		<path class="st12" d="M167.1,175.9l17.7,112.3c0.9,5.7,4,10.8,8.7,14.2c6.4,4.6,14.8,5.4,22,2l10.2-4.8l-42.9-125.9L167.1,175.9z"
			/>
		<g class="st13">
			<defs>
				<path id="SVGID_5_" d="M257.3,247.7l-41.8,22.1l-32.7-96l-15.8,2.1l17.7,112.3c0.9,5.7,4,10.8,8.7,14.2c6.4,4.6,14.8,5.4,22,2
					l10.2-4.8l44.3-21.5L257.3,247.7"/>
			</defs>
			<clipPath id="SVGID_6_">
				<use xlink:href="#SVGID_5_"  style="overflow:visible;"/>
			</clipPath>
			<path class="st14" d="M222.1,264.5c0,0-0.1,20.8,1.1,26.1l-29.3,17.7l30.7,6.9l18.9-27.5l-18.4-24.2L222.1,264.5"/>
		</g>
		<path class="st15" d="M269,235.7l-45.9,28.9c0.5,4.9,1.9,11.6,5.2,19c5.9,12.7,14,14.8,18.9,18.4c19.6-7.3,38.9-18.8,58.5-26.1
			L269,235.7"/>
		<path class="st16" d="M173.1,155.2c0,0-5.7-17.3-11.3-18c-5.3-0.6-0.1,14.1-0.1,14.1L173.1,155.2z"/>
		<path class="st16" d="M147.5,148.9c-0.3-1-14.1-12.9-19.7-13.9c-3.4-0.6-2.4,4.1,0.4,6.9C131.1,144.8,147.5,148.9,147.5,148.9z"/>
		<path class="st12" d="M167.1,175.9c0,0-6-6.6-20.4-14.8c-14.4-8.2-32.9-19.5-27.8-24.7c3.1-3.3,16.1,8.2,27.7,10
			c11.6,1.8,17.1,2.7,22.7,5.8c8.3,4.5,13.5,21.7,13.5,21.7L167.1,175.9z"/>
		<g class="st13">
			<defs>
				<path id="SVGID_7_" d="M269,235.7l-45.9,28.9c0.5,4.9,1.9,11.6,5.2,19c5.9,12.7,14,14.8,18.9,18.4c19.6-7.3,38.9-18.8,58.5-26.1
					L269,235.7"/>
			</defs>
			<clipPath id="SVGID_8_">
				<use xlink:href="#SVGID_7_"  style="overflow:visible;"/>
			</clipPath>
			<path class="st17" d="M258.8,273.6l-25.7,17.7c5,6.1,10.5,8,14.2,10.7c4-1.5,8-3.2,12-4.9C259.2,289.2,258.9,281.2,258.8,273.6"
				/>
		</g>
		<path class="st18" d="M426.2,88.6l23.4,56.5c0.8,1.9,2.9,2.7,4.8,2l79-32.7c1.9-0.8,2.7-2.9,2-4.8l-23.4-56.5
			c-0.8-1.9-2.9-2.7-4.8-2l-79,32.7C426.3,84.6,425.4,86.8,426.2,88.6"/>
		<path class="st19" d="M431.8,90.7l23,55.7c0.7,1.7,0.5-2.5,2.2-3.2l71.5-29.5c0.7-0.3,1.7,0.1,2.5,0.6c1,0.5,1.7,1.1,1.3,0.2
			l-23-55.7c-0.7-1.7-2.6-2.5-4.3-1.8l-71.5,29.5C431.9,87.1,431.1,89,431.8,90.7"/>
		<path class="st20" d="M432.1,103l23.4,56.5c0.8,1.9,2.9,2.7,4.8,2l79-32.7c1.9-0.8,2.7-2.9,2-4.8l-23.4-56.5
			c-0.8-1.9-2.9-2.7-4.8-2l-79,32.7C432.3,99,431.4,101.1,432.1,103"/>
		<polyline class="st21" points="511.4,63.3 511.3,63.3 512.4,65.8 512.4,65.8 511.4,63.3 		"/>
		<polyline class="st22" points="511.3,63.3 433.8,95.3 434.8,97.9 495.8,72.7 512.4,65.8 511.3,63.3 		"/>
		<polyline class="st23" points="495.8,72.7 434.8,97.9 434.8,97.9 495.8,72.7 		"/>
		<path class="st21" d="M431.7,90.2L431.7,90.2l0.1,0.4C431.8,90.5,431.7,90.3,431.7,90.2 M509.2,58.1L509.2,58.1
			c0,0.2,0.1,0.3,0.2,0.5l0.9,2.1l0,0L509.2,58.1"/>
		<path class="st22" d="M509.2,58.1l-77.5,32c0,0.1,0.1,0.3,0.1,0.4l0.9,2.1l77.6-32.1l-0.9-2.1C509.3,58.4,509.3,58.3,509.2,58.1"
			/>
		
			<rect x="490.8" y="80.8" transform="matrix(0.9241 -0.3821 0.3821 0.9241 -2.2172 200.9114)" class="st19" width="27.8" height="50.4"/>
		<path class="st12" d="M364.2,278.2l44.3,21.5c7.3,3.5,16,0.9,20.2-6c4.6-7.7,1.8-17.6-6.1-21.8l-45.8-24.2L364.2,278.2"/>
		<path class="st12" d="M467.1,175.9l-17.7,112.3c-0.9,5.7-4,10.8-8.7,14.2c-6.4,4.6-14.8,5.4-22,2l-10.2-4.8l42.9-125.9
			L467.1,175.9z"/>
		<g class="st13">
			<defs>
				<path id="SVGID_9_" d="M376.9,247.7l41.8,22.1l32.7-96l15.8,2.1l-17.7,112.3c-0.9,5.7-4,10.8-8.7,14.2c-6.4,4.6-14.8,5.4-22,2
					l-10.2-4.8l-44.3-21.5L376.9,247.7"/>
			</defs>
			<clipPath id="SVGID_10_">
				<use xlink:href="#SVGID_9_"  style="overflow:visible;"/>
			</clipPath>
			<path class="st24" d="M412.1,264.5c0,0,0.1,20.8-1.1,26.1l29.3,17.7l-30.7,6.9l-18.9-27.5l18.4-24.2L412.1,264.5"/>
		</g>
		<path class="st15" d="M365.2,235.7l45.9,28.9c-0.5,4.9-1.9,11.6-5.2,19c-5.9,12.7-14,14.8-18.9,18.4
			c-19.6-7.3-38.9-18.8-58.5-26.1L365.2,235.7"/>
		<path class="st12" d="M467.1,175.9c0,0,6-6.6,20.4-14.8c14.4-8.2,32.9-19.5,27.8-24.7c-3.1-3.3-16.1,8.2-27.7,10
			c-11.6,1.8-17.1,2.7-22.7,5.8c-8.2,4.5-13.5,21.7-13.5,21.7L467.1,175.9z"/>
		<g class="st13">
			<defs>
				<path id="SVGID_11_" d="M365.2,235.7l45.9,28.9c-0.5,4.9-1.9,11.6-5.2,19c-5.9,12.7-14,14.8-18.9,18.4
					c-19.6-7.3-38.9-18.8-58.5-26.1L365.2,235.7"/>
			</defs>
			<clipPath id="SVGID_12_">
				<use xlink:href="#SVGID_11_"  style="overflow:visible;"/>
			</clipPath>
			<path class="st25" d="M371.4,270.8c1.7,8.8,3.1,15.3,3.7,26.3c3.9,1.7,7.9,3.4,11.8,4.9c3.7-2.7,9.2-4.6,14.2-10.7L371.4,270.8"
				/>
		</g>
		<path class="st15" d="M375.4,305.9c-0.4-28.5-4.8-29.8-8.7-67.9c-0.8-8.3-40.2-3.6-40.2-3.6h-8.6h-0.5h-0.5c0,0-6.4,0.1-8.6,0
			c-17.3-0.8-31.6-1.9-39.2,1.3c-14.2,6-9.3,41.7-9.7,70.2c-0.2,11.8-0.8,115.2-4.8,119.6h53.7h8.6h0.5h0.5h8.6h53.7
			C376.2,421.1,375.5,317.7,375.4,305.9"/>
		<path class="st12" d="M326.1,220.1c0.5,5.9,1.5,11.1,2.7,15.3c-1.5,1.1-5.6,3.6-11.4,3.7c-6.3,0.1-10.7-2.7-12.2-3.7
			c1.8-4.5,4-11.4,4.4-20c0.1-2.2,0.1-4.3-0.1-6.2c-0.5-8.3-2.7-14.9-4.3-18.9h23.6c-0.1,0.5-0.3,1-0.4,1.5
			c-1.6,6.2-2.9,14.6-2.5,24.4C325.9,217.5,326,218.8,326.1,220.1z"/>
		<path class="st16" d="M325.8,216.2c0.1,1.3,0.1,2.7,0.2,3.9c-7.3-2.5-12.7-6.5-16.6-10.9c-0.5-8.3-2.7-14.9-4.3-18.9h21.1
			c0.6,0.4,1.3,0.9,2.1,1.5C326.8,197.9,325.5,206.3,325.8,216.2z"/>
		<path class="st12" d="M354.1,154.4c-0.1,6-1.1,10.9,3.6,11c4.7,0.1,13.3-4.6,13.5-10.6c0.1-6-3.6-11-8.3-11.1
			C358.1,143.5,354.2,148.3,354.1,154.4z"/>
		<path class="st12" d="M364.3,145.8c-0.7,31.7-24.5,63-46.1,62.6c-17.8-0.4-44.1-32.7-43.5-64.4c0.7-31.7,21.1-50.9,45.9-50.3
			C345.3,94.1,365,114.1,364.3,145.8z"/>
		<path class="st12" d="M279.5,152.8c-0.1,6,0.7,10.9-4,10.8c-4.7-0.1-13.1-5.2-13-11.2c0.1-6,4-10.8,8.8-10.7
			S279.6,146.8,279.5,152.8z"/>
		<path class="st26" d="M319.2,153.1c0,0.1-0.6,1.6-0.6,3.5c0,1,0.2,2.2,0.9,3.3c0.3,0.4,0.9,0.6,1.4,0.5l0,0c0.1,0,1-0.2,2.1-0.2
			c0.8,0,1.7,0.1,2.3,0.4c0.3,0.1,0.5,0.3,0.7,0.6c0.2,0.2,0.4,0.5,0.5,0.9c0.1,0.4,0.1,0.7,0.1,1.1c0,1.4-0.6,2.7-1.7,3.8
			c-1,1.1-2.4,1.8-3.7,1.9c-0.7,0.1-1.2,0.7-1.2,1.5c0.1,0.7,0.7,1.2,1.5,1.2c2-0.2,3.9-1.2,5.3-2.7c1.4-1.5,2.4-3.4,2.4-5.6
			c0-0.6-0.1-1.2-0.2-1.7c-0.2-0.8-0.5-1.5-1-2c-0.7-0.8-1.6-1.3-2.5-1.6c-0.9-0.3-1.8-0.3-2.5-0.3c-1.5,0-2.6,0.3-2.7,0.3l0.3,1.3
			l1.1-0.8c-0.3-0.4-0.5-1.1-0.5-1.8c0-0.6,0.1-1.3,0.2-1.8c0.1-0.2,0.1-0.4,0.2-0.6l0-0.1l0,0l0,0c0.3-0.7-0.1-1.4-0.8-1.7
			C320.2,152.1,319.5,152.5,319.2,153.1L319.2,153.1z"/>
		<path class="st26" d="M292.2,140.6c0,0,5.8-10.6,16-4.7L292.2,140.6z"/>
		<path class="st26" d="M347.1,140.6c0,0-5.8-10.6-16-4.7L347.1,140.6z"/>
		<path class="st26" d="M346.4,150.9c0-3.7-3-6.8-6.8-6.8c-3.7,0-6.8,3-6.8,6.8c0,0.7,0.6,1.3,1.3,1.3c0.7,0,1.3-0.6,1.3-1.3
			c0-1.1,0.5-2.2,1.2-2.9c0.8-0.8,1.8-1.2,2.9-1.2c1.1,0,2.2,0.5,2.9,1.2c0.8,0.8,1.2,1.8,1.2,2.9c0,0.7,0.6,1.3,1.3,1.3
			C345.8,152.2,346.4,151.6,346.4,150.9L346.4,150.9z"/>
		<path class="st26" d="M309.6,150.9c0-3.7-3-6.8-6.8-6.8c-3.7,0-6.8,3-6.8,6.8c0,0.7,0.6,1.3,1.3,1.3c0.7,0,1.3-0.6,1.3-1.3
			c0-1.1,0.5-2.2,1.2-2.9c0.8-0.8,1.8-1.2,2.9-1.2c1.1,0,2.2,0.5,2.9,1.2c0.8,0.8,1.2,1.8,1.2,2.9c0,0.7,0.6,1.3,1.3,1.3
			C309,152.2,309.6,151.6,309.6,150.9L309.6,150.9z"/>
		<g class="st13">
			<defs>
				<path id="SVGID_13_" d="M325.8,182.6c0,4.2-2.7,7.6-5.9,7.6c-3.3,0-5.9-3.4-5.9-7.6c0-4.2,2.7-4.6,5.9-4.6
					C323.2,178,325.8,178.4,325.8,182.6"/>
			</defs>
			<clipPath id="SVGID_14_">
				<use xlink:href="#SVGID_13_"  style="overflow:visible;"/>
			</clipPath>
			<path class="st27" d="M325.8,182.6c0,4.2-2.7,7.6-5.9,7.6s-5.9-3.4-5.9-7.6c0-4.2,2.7-4.6,5.9-4.6S325.8,178.4,325.8,182.6z"/>
			<path class="st28" d="M331.1,177.3c0,2.8-5,5.1-11.2,5.1s-11.2-2.3-11.2-5.1s5-5.1,11.2-5.1S331.1,174.5,331.1,177.3z"/>
		</g>
		<path class="st29" d="M274.7,143.9c0.7,4,2.9,13.6,4.1,18.5c0.4,1.8,1.8,3.3,3.6,3.8l3.6,1c1,0.3,2-0.7,1.7-1.7
			c-1.4-4.9-4.2-17-3.2-31.3c0,0,12.8-3.4,12.8-19c0,0,20.6,14.5,36.9,15.5c16.2,1,22.2-1.2,22.2-1.2s1.3,19.3-0.8,32.7
			c-0.2,1.1,1,1.8,1.9,1.3l3.1-1.9c1.2-0.7,1.9-1.9,2.1-3.3c0.5-3.8,1.4-11.6,1.7-14.7c0.5-6,0.9-14.6-3.1-24s-15-28-41.8-28
			C292.6,91.6,269.8,114,274.7,143.9z"/>
		<path class="st29" d="M361.7,126.5c0,0,6.3-1,9.4-9.5c3.1-8.5-8.6-35.7-43.2-35.7c-37.7,0-37.6,15.7-37.6,15.7
			s-14.7,5.6-19.3,12.8c-4.6,7.2-5.3,22.5,6.2,24.4l23.1-24.4l37.2,3.9L361.7,126.5z"/>
		<path class="st30" d="M329.6,239.3c0,0-4.1,4.8-12.1,4.8c-8,0-13.8-4.8-13.8-4.8s4.3,9,13.8,9C327,248.3,329.6,239.3,329.6,239.3"
			/>
		<g class="st13">
			<defs>
				<path id="SVGID_15_" d="M375.4,305.9c-0.4-28.5-4.8-29.8-8.7-67.9c-0.8-8.3-40.2-3.6-40.2-3.6h-8.6h-0.5h-0.5c0,0-6.4,0.1-8.6,0
					c-17.3-0.8-31.6-1.9-39.2,1.3c-14.2,6-9.3,41.7-9.7,70.2c-0.2,11.8-0.8,115.2-4.8,119.6h53.7h8.6h0.5h0.5h8.6h53.7
					C376.2,421.1,375.5,317.7,375.4,305.9"/>
			</defs>
			<clipPath id="SVGID_16_">
				<use xlink:href="#SVGID_15_"  style="overflow:visible;"/>
			</clipPath>
			<path class="st31" d="M259.4,256.4c-0.4,4.5-0.6,9.5-0.6,14.8c0,9.9,0.5,20.7,0.5,30.9c0,1.3,0,2.6,0,3.9
				c-0.1,6.3-0.3,39.1-1.1,68.7h26.9c-1.5-4.7-3-9.6-4.5-14.5C269.3,321.9,263,286.8,259.4,256.4"/>
			<path class="st31" d="M286,311.4c0,0,5.4,39.8,59.5,41.3C345.5,352.7,323.1,342.5,286,311.4"/>
		</g>
		<polyline class="st32" points="475.2,98 489.5,132.5 492.3,131.4 478,96.9 		"/>
	</g>
	<path class="st7" d="M208,84.3H82.1c-2.2,0-3.9-1.8-3.9-3.9c0-2.2,1.8-3.9,3.9-3.9H208c2.2,0,3.9,1.8,3.9,3.9
		C211.9,82.5,210.2,84.3,208,84.3z"/>
	<path class="st7" d="M187.2,116.5c-11.6,2.2-26,4-42.5,3.9c-16.2,0-30.3-1.8-41.8-3.9c-0.9-3.2-1.8-13.4-1.8-18.8
		c0-5.5,0.9-10.1,1.8-13.4c28.1,0,56.2,0,84.2,0c0.8,3.5,1.5,8.1,1.5,13.4C188.6,102.9,188,113,187.2,116.5z"/>
	<path class="st7" d="M151.3,76.4c0,1.4-2.9,2.5-6.4,2.5s-6.4-1.1-6.4-2.5c0-1.4,2.9-2.5,6.4-2.5S151.3,75,151.3,76.4z"/>
	<rect x="200.8" y="84.3" class="st33" width="3" height="39.3"/>
	<circle class="st34" cx="202.3" cy="125.6" r="3"/>
	<path class="st33" d="M202.3,125.6c-4.2,0-7.5,6.4-7.5,10.6c0,2.6,1.4,3.7,3.4,4.2c-0.1-1.2-0.2-3.3,0.1-4.6l1.2,4.8
		c0.9,0.1,1.8,0.1,2.8,0.1c4.2,0,7.5-0.3,7.5-4.5C209.8,132,206.4,125.6,202.3,125.6z"/>
	<polyline class="st11" points="245,364.2 477.4,364.2 477.4,361.2 245,361.2 	"/>
	<polyline class="st6" points="151.2,364.2 245,364.2 245,361.2 151.2,361.2 	"/>
	<path class="st6" d="M248.4,362.7c0,2.2-1.8,4-4,4c-2.2,0-4-1.8-4-4c0-2.2,1.8-4,4-4C246.6,358.7,248.4,360.5,248.4,362.7z"/>
	<path class="st8" d="M598.9,358.8h-55.3c-4.5,0-8.2,3.7-8.2,8.2v9c0,19.8,16,35.8,35.8,35.8c19.8,0,35.8-16,35.8-35.8v-9
		C607.1,362.5,603.4,358.8,598.9,358.8"/>
	<polyline class="st35" points="607.1,369.6 602.5,370.2 607.1,376.4 607.1,369.6 	"/>
	<path class="st8" d="M607.1,385.5c-7.3,0-13.1-4.3-13.1-9.7c0-5.5,5.7-9.7,13.1-9.7c7.3,0,13.1,4.3,13.1,9.7
		C620.2,381.2,614.4,385.5,607.1,385.5z M607.1,370.8c-4.4,0-8.3,2.3-8.3,5c0,2.7,3.9,5,8.3,5c4.4,0,8.3-2.3,8.3-5
		C615.4,373.1,611.5,370.8,607.1,370.8z"/>
	<polyline class="st36" points="571.4,411.8 571.3,411.8 571.4,411.8 	"/>
	<path class="st35" d="M559,358.8h-1.8h-13.5c-4.5,0-8.2,3.7-8.2,8.2v9c0,19.8,16,35.8,35.8,35.8c0,0,0,0,0.1,0c0,0,0,0,0,0
		c2.6,0,5.1-0.3,7.6-0.8c-16.1-3.5-28.2-17.8-28.2-35v-9C550.8,362.5,554.4,358.8,559,358.8"/>
	<rect x="6.6" y="411.8" class="st7" width="631.2" height="10.2"/>
	
		<rect x="33.7" y="292.2" transform="matrix(0.7595 -0.6505 0.6505 0.7595 -205.0634 106.1489)" class="st8" width="14.6" height="76.5"/>
	<polygon class="st7" points="75.2,370.4 71.3,354.6 60.2,364 	"/>
	<path class="st7" d="M9.1,293.1L9.1,293.1c3.1-2.6,7.7-2.3,10.3,0.8l2.3,2.7l-11.1,9.5l-2.3-2.7C5.7,300.4,6,295.8,9.1,293.1z"/>
	<path class="st6" d="M587.8,241.5l3,8c0.2,0.5,0.6,0.8,1,1l8,3c1.5,0.6,1.5,2.7,0,3.3l-8,3c-0.5,0.2-0.8,0.6-1,1l-3,8
		c-0.6,1.5-2.7,1.5-3.3,0l-3-8c-0.2-0.5-0.6-0.8-1-1l-8-3c-1.5-0.6-1.5-2.7,0-3.3l8-3c0.5-0.2,0.8-0.6,1-1l3-8
		C585.1,240,587.2,240,587.8,241.5z"/>
	<path class="st2" d="M548.7,200.1l1.7,4.4c0.1,0.3,0.3,0.5,0.6,0.6l4.4,1.7c0.8,0.3,0.8,1.5,0,1.8l-4.4,1.7
		c-0.3,0.1-0.5,0.3-0.6,0.6l-1.7,4.4c-0.3,0.8-1.5,0.8-1.8,0l-1.7-4.4c-0.1-0.3-0.3-0.5-0.6-0.6l-4.4-1.7c-0.8-0.3-0.8-1.5,0-1.8
		l4.4-1.7c0.3-0.1,0.5-0.3,0.6-0.6l1.7-4.4C547.2,199.3,548.3,199.3,548.7,200.1z"/>
</g>
</svg>
