<?xml version="1.0" encoding="utf-8"?>
<!-- Generator: Adobe Illustrator 24.0.2, SVG Export Plug-In . SVG Version: 6.00 Build 0)  -->
<svg version="1.1" id="Capa_1" xmlns="http://www.w3.org/2000/svg" xmlns:xlink="http://www.w3.org/1999/xlink" x="0px" y="0px"
	 viewBox="0 0 350 280" style="enable-background:new 0 0 350 280;" xml:space="preserve">
<style type="text/css">
	.st0{clip-path:url(#SVGID_2_);fill:#FF5E3E;}
	.st1{clip-path:url(#SVGID_2_);fill:#FFFFFF;}
	.st2{clip-path:url(#SVGID_2_);fill:#D95035;}
	.st3{clip-path:url(#SVGID_2_);fill:#7E4C30;}
	.st4{clip-path:url(#SVGID_2_);fill:#FFD2C0;}
	.st5{clip-path:url(#SVGID_2_);fill:#F1E1DD;}
	.st6{clip-path:url(#SVGID_2_);fill:#638589;}
	.st7{clip-path:url(#SVGID_2_);fill:#F4B8A8;}
	.st8{clip-path:url(#SVGID_2_);fill:#DDCAC7;}
	.st9{clip-path:url(#SVGID_2_);fill:#404061;}
	.st10{clip-path:url(#SVGID_2_);fill:#EEAE99;}
	.st11{clip-path:url(#SVGID_2_);fill:#27160A;}
	.st12{clip-path:url(#SVGID_2_);fill:#B1E2DC;}
	.st13{clip-path:url(#SVGID_2_);fill:#E79F89;}
	.st14{clip-path:url(#SVGID_2_);fill:#262929;}
	.st15{clip-path:url(#SVGID_2_);fill:#878787;}
	.st16{clip-path:url(#SVGID_2_);fill:#9E9E9E;}
	.st17{clip-path:url(#SVGID_2_);fill:#401313;}
	.st18{clip-path:url(#SVGID_2_);fill:#873B3B;}
	.st19{clip-path:url(#SVGID_2_);fill:#682727;}
	.st20{clip-path:url(#SVGID_2_);fill:#E1AB3B;}
	.st21{clip-path:url(#SVGID_2_);fill:#99513B;}
</style>
<g>
	<defs>
		<polyline id="SVGID_1_" points="0,0 350,0 350,280 0,280 0,0 		"/>
	</defs>
	<clipPath id="SVGID_2_">
		<use xlink:href="#SVGID_1_"  style="overflow:visible;"/>
	</clipPath>
	<polygon class="st0" points="0,0 0,230.9 95.2,252.3 94.7,254.6 0,233.2 0,280 350,280 350,0 	"/>
	<polygon class="st1" points="37.5,96 182.1,93.8 181.3,125.8 40.8,137.9 	"/>
	<path class="st0" d="M53.6,105.8l3.2,10.2l4.7-10.5c1.2-0.3,2.3-0.4,3.4-0.1l-0.5,18.1l-4,0.2l0.2-8.7l-3.4,8.6
		c-0.6,0.3-1.2,0.2-1.7-0.3l-2.3-8.2l-0.3,8.8l-3.9,0.1l0.6-18.2C50.5,105.4,51.8,105.4,53.6,105.8z"/>
	<path class="st0" d="M76.3,104.6l5.5,17.4c-1.1,0.8-2.5,1-4.3,0.7l-1-3.2l-4.5,0.7l-1,3.3c-1.8,0.3-3.2,0.1-4.1-0.6l5.8-18.1
		C73.9,104,75.1,103.9,76.3,104.6z M74.4,110.5l-1.7,6.1l3-0.5L74.4,110.5z"/>
	<path class="st0" d="M95.7,104c0.4,1.3,0.4,2.5-0.1,3.6l-8,0.5l-0.1,3.1l6.6-0.4c0.7,1.2,0.6,2.3,0,3.4l-6.7,0.5l-0.2,3.8l8.2-0.5
		c0.7,1.4,0.7,2.8-0.1,4.1L83.8,123c-0.4-0.1-0.6-0.3-0.7-0.7l0.5-16.8c0.1-0.3,0.3-0.6,0.5-0.7L95.7,104z"/>
	<path class="st0" d="M99.1,120.3c-0.6-1.8-0.3-3.3,0.8-4.3c2.1,1.2,3.7,1.9,4.6,2.1c1.8-0.1,2.7-0.6,2.8-1.4c0-0.7-0.5-1.3-1.7-1.9
		l-3.2-1.4c-2-1-3.1-2.4-3.2-4.3c0-1.1,0.4-2.1,1-3c0.6-0.9,1.4-1.5,2.2-1.8c0.8-0.3,1.8-0.4,3-0.4c2.2,0.1,4.1,0.6,5.7,1.6
		c0.1,1.5-0.3,2.9-1.3,4.1c-2-1.4-3.6-2-4.8-1.9c-1.1-0.1-1.7,0.3-1.7,1.3c0,0.5,0.8,1.2,2.4,2c1.9,0.7,3.3,1.5,4.2,2.4
		c0.9,0.9,1.4,2.1,1.3,3.5c-0.1,1.9-0.9,3.3-2.5,4.4c-1,0.8-2.5,1.1-4.4,1C102.6,122,100.8,121.4,99.1,120.3z"/>
	<path class="st0" d="M127,102.9c0.6,1.3,0.6,2.6,0,3.9l-4.5,0.2l-0.2,14.2c-1.2,0.6-2.6,0.6-4.1,0.1l0.3-14l-4.4,0.3
		c-1-1.5-1-2.8-0.2-3.9L127,102.9z"/>
	<path class="st0" d="M132.1,103c4-0.5,6.9-0.7,8.5-0.5c1.6,0.2,2.7,0.9,3.1,2.1c0.5,1.2,0.6,2.8,0.2,4.9c-0.3,2.1-1.8,3.5-4.4,4.2
		l4.5,5.4c-0.7,1.6-2.1,2.2-3.9,1.7l-4.5-6.1l-1.4,0.2l-0.4,5.8c-1.6,0.6-3,0.6-4-0.2l1-16.8L132.1,103z M134.8,106.3l-0.3,5.1
		c3.4-0.3,5.2-1,5.6-2c0.4-1,0.4-1.9,0-2.6C139.6,106,137.9,105.8,134.8,106.3z"/>
	<path class="st0" d="M154.9,101.9c2.2-0.1,4,0.7,5.4,2.4c1.4,1.7,2,3.9,1.8,6.6c-0.1,2.7-1,4.9-2.5,6.7c-1.5,1.8-3.4,2.7-5.6,2.8
		c-2.3,0.1-4.1-0.7-5.6-2.4c-1.5-1.6-2.2-3.8-2-6.5c0.1-2.7,1-4.9,2.7-6.8C150.7,102.9,152.6,102,154.9,101.9z M154.7,106.5
		c-1.1,0-2,0.5-2.9,1.4s-1.3,2.1-1.4,3.5s0.2,2.7,1,3.6c0.8,0.9,1.8,1.3,2.9,1.2c1.1-0.1,2-0.6,2.7-1.5c0.7-0.9,1.1-2.1,1.2-3.5
		c0.1-1.4-0.2-2.5-0.9-3.4C156.6,106.9,155.8,106.5,154.7,106.5z"/>
	<path class="st0" d="M166.1,115.4c0.3,0,0.7,0.1,1,0.2c0.3,0.2,0.6,0.4,0.8,0.7c0.2,0.3,0.3,0.6,0.3,1c0,0.3-0.1,0.7-0.2,1
		c-0.2,0.3-0.4,0.6-0.7,0.8s-0.6,0.3-1,0.3c-0.3,0-0.7-0.1-1-0.2c-0.3-0.2-0.6-0.4-0.8-0.7c-0.2-0.3-0.3-0.6-0.3-1
		c0-0.3,0.1-0.7,0.2-1c0.2-0.3,0.4-0.6,0.7-0.8C165.4,115.5,165.7,115.4,166.1,115.4z M165.4,101.4l-0.2,12.8
		c0.7,0.4,1.6,0.5,2.6,0.1l2-12.4C168.6,101,167.1,100.9,165.4,101.4z"/>
	<polygon class="st1" points="43.3,57.8 180.1,56.7 179.7,88.2 39.5,96 	"/>
	<path class="st0" d="M47.2,85.2l2-12.4c1-0.4,1.9-0.4,2.6,0.1l-0.2,12.8C50,86.2,48.5,86.1,47.2,85.2z M52,71.4
		c0.3-0.2,0.5-0.4,0.7-0.8c0.2-0.3,0.2-0.7,0.2-1c0-0.3-0.1-0.7-0.3-1c-0.2-0.3-0.4-0.5-0.8-0.7c-0.3-0.2-0.7-0.2-1-0.2
		c-0.3,0-0.7,0.1-1,0.3c-0.3,0.2-0.5,0.4-0.7,0.8c-0.2,0.3-0.2,0.7-0.2,1c0,0.4,0.1,0.7,0.3,1c0.2,0.3,0.4,0.5,0.8,0.7
		c0.3,0.2,0.7,0.2,1,0.2C51.3,71.6,51.6,71.5,52,71.4z"/>
	<path class="st0" d="M67.4,67.5c0.4,1.3,0.4,2.5-0.1,3.6l-8,0.5l-0.1,4.1l6.5-0.4c0.7,1.2,0.7,2.3,0,3.4l-6.7,0.5l-0.2,6.9
		c-1.5,0.7-2.9,0.8-4,0.1l0.5-17.3c0.1-0.3,0.3-0.6,0.5-0.7L67.4,67.5z"/>
	<path class="st0" d="M82.5,66.9c0.4,1.3,0.4,2.5-0.1,3.6l-8,0.5l-0.1,3.1l6.6-0.4c0.7,1.2,0.6,2.3,0,3.4l-6.7,0.5L74,81.5l8.2-0.5
		c0.7,1.4,0.7,2.8-0.1,4.1l-11.4,0.9c-0.4-0.1-0.6-0.3-0.7-0.7l0.5-16.8c0.1-0.3,0.3-0.6,0.5-0.7L82.5,66.9z"/>
	<path class="st0" d="M89.7,66.8L89.3,81l7.3-0.5c0.7,1.4,0.7,2.8-0.1,4.1l-10.6,0.8c-0.4-0.1-0.6-0.3-0.7-0.7l0.4-17.4
		C86.5,66.7,87.9,66.6,89.7,66.8z"/>
	<path class="st0" d="M100.2,66.5c1.2-0.3,2.6-0.3,4,0l-0.8,18c-1.6,0.5-3,0.5-4.2,0L100.2,66.5z"/>
	<path class="st0" d="M107.7,66l11.7-0.4c0.8,1.1,1,2.4,0.4,3.8l-7.6,11l7.5-0.4c0.6,1.3,0.6,2.7,0.2,4.2l-12.5,0.5
		c-0.8-0.7-1-1.9-0.6-3.6l7.8-11.2l-7.4,0.3C106.9,68.6,107,67.2,107.7,66z"/>
	<path class="st0" d="M129.6,67l0.1-1.5l1.2-0.3l4.7,0c4.7,0.7,7.1,3.4,7.2,8.3c0,2.5-0.5,4.6-1.6,6.4c-1.3,2.3-4.6,3.6-10.1,3.8
		l-1.4-0.3l-0.3-1.7L129.6,67z M133.5,68.9l-0.1,10.8c2.1,0.1,3.6-0.4,4.4-1.2c0.8-0.9,1.3-2.3,1.3-4.1c0.1-1.8-0.2-3.2-0.9-4.1
		C137.6,69.3,136,68.9,133.5,68.9z"/>
	<path class="st0" d="M145.7,64.8c1.2-0.3,2.6-0.3,4,0l-0.8,18c-1.6,0.5-3,0.5-4.2,0L145.7,64.8z M150.3,59.8l-4,2.8
		c0,0.9,0.4,1.5,1.1,1.8l3.9-2.7C151.1,61,150.8,60.4,150.3,59.8z"/>
	<path class="st0" d="M161.2,64.1l5.5,17.4c-1.1,0.8-2.5,1-4.3,0.7l-1-3.2l-4.5,0.7l-1,3.3c-1.8,0.3-3.2,0.1-4.1-0.6l5.8-18.1
		C158.8,63.5,160,63.4,161.2,64.1z M159.3,70l-1.7,6.1l3-0.5L159.3,70z"/>
	<path class="st0" d="M170.2,77.9c0.4,0,0.7,0.1,1.1,0.3c0.4,0.2,0.6,0.5,0.9,0.9c0.2,0.4,0.3,0.8,0.3,1.2c0.2,0.7-0.3,2.3-1.5,5
		l-1.7-0.4l0.1-2c-0.5-0.4-0.8-0.8-1-1.2c-0.2-0.4-0.3-0.8-0.3-1.2c0-0.4,0.1-0.8,0.3-1.2c0.2-0.4,0.5-0.7,0.8-0.9
		C169.4,78,169.8,77.9,170.2,77.9z"/>
	<path class="st1" d="M86.5,187.4c4.1,6.6,9,12.8,14.4,18.4c0.5,0.5,1.2,0,1.1-0.7c-1-6.7-1.9-13.5-2.9-20.2
		c-0.2,0.3-0.3,0.6-0.5,0.8c11.4-2.8,22.8-5.6,34.2-8.5c-0.3-0.2-0.6-0.4-0.9-0.7c0,2,0,4,0,5.9c0,0.9,1.4,0.9,1.4,0c0-2,0-4,0-5.9
		c0-0.4-0.4-0.8-0.9-0.7c-11.4,2.8-22.8,5.6-34.2,8.5c-0.4,0.1-0.5,0.5-0.5,0.8c1,6.7,1.9,13.5,2.9,20.2c0.4-0.2,0.8-0.4,1.1-0.7
		c-5.4-5.5-10.1-11.6-14.2-18.1C87.2,185.9,86.1,186.6,86.5,187.4z"/>
	<path class="st1" d="M113.1,190.4c6.4,2.9,12.3,6.8,17.5,11.5c0.6,0.6,1.6-0.4,1-1c-5.3-4.8-11.3-8.8-17.8-11.7
		C113,188.9,112.3,190,113.1,190.4z"/>
	<path class="st1" d="M124,185.3c-1.7,7.4-3.9,14.6-6.8,21.7c-0.3,0.8,1,1.2,1.3,0.4c2.8-7,5.1-14.3,6.8-21.7
		C125.5,184.8,124.2,184.5,124,185.3z"/>
	<path class="st2" d="M0,233.4v2.3l80.7,18.2c0.2-1.1,0.3-1.8,0.3-1.8l0.1-0.4l-1.1-0.3c-2.1-0.2-6.2-0.6-8.2-1.8L0,233.4"/>
	<path class="st2" d="M145.4,234.8l-57.6,10.3c5.4,0.6,10.7,2.1,13.4,4.5c0,0,1.6,4.7-5.1,7.8c-1,0.5-2,0.7-3,0.7
		c-5.9,0-11.7-6.6-11.7-6.6s0,0-0.1,0l0,0.2l-0.1,0.4c0,0-0.1,0.7-0.3,1.8c-0.4,2.3-0.9,6.6-0.4,10.8c0.4,3.4,1.8,4.2,3,4.2
		c1,0,1.8-0.5,1.8-0.5c0.7,1.4,1.8,1.8,2.8,1.8c1.9,0,3.7-1.3,3.7-1.3c0.9,0.7,1.7,1,2.4,1c2,0,3.2-2.1,3.2-2.1
		c0.3,0.9,0.9,1.2,1.6,1.2c1.7,0,4.1-2.1,4.1-2.1c2.8-4.4,1.7-9.9,1.7-9.9l51.8-3.7L145.4,234.8"/>
	<path class="st2" d="M81.4,244.7c-5.3,0-9.8,0.9-10.6,2.5c-0.5,1,0,1.8,0.9,2.3c2,1.2,6.1,1.7,8.2,1.8c0.6,0,1,0.1,1.2,0.1
		c0.1,0,0.1,0,0.1,0s5.8,6.6,11.7,6.6c1,0,2-0.2,3-0.7c6.7-3.2,5.1-7.8,5.1-7.8c-2.7-2.4-8-3.9-13.4-4.5
		C85.6,244.9,83.5,244.7,81.4,244.7"/>
	<path class="st2" d="M193.4,170.7l-37.7,59.1c0.9,1.3,8.5,12,14.9,21c5.5-2,17-15.8,25.2-26.5c-1-19.1-2-38.5-2.3-51.2
		c0-0.7-0.1-1-0.1-1V170.7"/>
	<path class="st2" d="M155.6,229.6l-11.1,3.8l0.9,1.4l11,18.4l0.7,1.2l15.5-0.9c-0.6-0.9-1.3-1.9-2-2.8c-6.3-9-14-19.7-14.9-21
		C155.6,229.7,155.6,229.6,155.6,229.6"/>
	<path class="st2" d="M257.3,150.3c-6.3,2.1-13.1,3.1-18.3,3.1c-0.9,0-1.7,0-2.5-0.1c-0.8-0.1-1.6-0.2-2.3-0.3l-0.1,4.2l8.7,6.4
		l0,0.6c2.1-0.1,3.4-0.3,3.4-0.3l0.4,0.9l0.7-2.1l9.7-5.9L257.3,150.3"/>
	<path class="st2" d="M308.8,275.4c-0.4,0.3-0.9,0.5-1.4,0.7C307.9,275.9,308.3,275.7,308.8,275.4 M304.4,168.1L304.4,168.1
		c0,0-2.5,3.9-5.4,10.1c-4.4,9.4-9.7,24.4-8.9,40.2l0,0l0,0l0,0.1l3.7,31.1l4,1.6c0,0-0.1,0.5-0.2,1.4c5.5,2.7,11.4,6.5,16.4,11.6
		c0,0,0,0.3,0,0.7C319.9,241.5,304.4,168.1,304.4,168.1"/>
	<polyline class="st2" points="247.4,162.6 246.7,164.7 247.1,165.6 248.3,164.6 247.4,162.6 	"/>
	<path class="st2" d="M242.8,163.6L242.8,163.6l-0.5,0.7c0.2,0,0.3,0,0.5,0L242.8,163.6"/>
	<path class="st2" d="M230.4,154.5l-4.1,6c0.7,0,1.5,0,2.2-0.1c3,0.9,5.5,3,7.4,5.2l1.2-1.7c1.7,0.3,3.3,0.4,4.7,0.4
		c0.2,0,0.4,0,0.6,0l0.5-0.7l-8.7-6.4L230.4,154.5"/>
	<path class="st2" d="M261.8,153.9l-4.6,2.8l-9.7,5.9l0.9,2l5.9-5.2c3.9,0.1,7.6,0.3,11,0.6L261.8,153.9"/>
	<path class="st2" d="M290.5,99.2c0.8,1.9,0.9,4.2,0.3,6.7c1.1,4.8-3.3,13.4-9.2,13.4c-0.5,0-1-0.1-1.5-0.2
		c-1.1,0.4-2.3,0.6-3.5,0.6c-0.1,0-0.1,0-0.2,0c-0.1,0.9-0.2,1.8-0.3,2.6c1.3,0.4,2.5,0.6,3.7,0.6c11.6,0,19.1-19.1,11.2-23.4
		C291,99.4,290.7,99.3,290.5,99.2"/>
	<path class="st2" d="M290.9,105.9c-1.2,5.5-5.2,11.4-10.7,13.2c0.5,0.1,1,0.2,1.5,0.2C287.6,119.3,292,110.6,290.9,105.9"/>
	<path class="st2" d="M240.5,95.3c-0.4,0.1-0.7,0.3-1.1,0.6c0,0.3-0.1,0.6-0.2,0.9C239.6,96.3,240.1,95.8,240.5,95.3 M241.2,132.3
		c-0.6,0-1.2,0-1.8-0.1c-13.5-0.8-14.5-10.6-14.5-10.6l34,2.8C258.9,124.4,253.4,132.3,241.2,132.3 M243.3,95l-3.1,21.6
		c0,0,0,0-9.7-3.6c0.4-2,1.1-3.9,2-5.7c-2,1.4-4.4,2.2-7,2.3c-0.1,0-0.2,0-0.3,0c0,0,0,0,0,0c-2.7,0-5.3-0.9-7.5-2.4
		c-2.6,12.5-4.4,23.6-3.3,26.8c2.3,6.7,5.7,16.8,19.8,18.9c0.7,0.1,1.5,0.2,2.3,0.3c0.8,0.1,1.6,0.1,2.5,0.1c5.1,0,11.9-1,18.3-3.1
		c8.5-2.8,16.2-7.4,17.5-13.9c0.2-0.8,0.8-6.6,1.5-14.1c0.1-0.8,0.2-1.7,0.3-2.6c-1.4,0-2.8-0.3-4.3-0.9c-0.1,0.5-0.2,0.9-0.3,1.4
		c-1.6-4.4-0.3-9.6,1.7-14.4c0.2-1.4,0.4-2.8,0.6-4.3c-0.7,2.6-1.9,4.9-3.5,6.8c-2.5,3-6.1,4.9-10,5c-0.1,0-0.2,0-0.3,0c0,0,0,0,0,0
		c-4,0-7.6-1.9-10.2-4.8c-2.6-2.9-4.2-7-4.3-11.5c0-0.1,0-0.1,0-0.2c0,0,0-0.1-0.1-0.1c-0.2-0.2-0.4-0.5-0.8-0.8
		C244.6,95.6,244,95.2,243.3,95 M265.6,68.1c-3.2,0-7.3,0.5-12.2,2.3c-5.3,1.9-12.1,3.4-18.4,3.4c-3.1,0-6.2-0.4-9-1.2
		c-0.3,1.2-0.6,2.4-1,3.8c4,0,7.6,1.9,10.2,4.8c2.6,2.9,4.2,7,4.3,11.5l0,0c0,0.1,0,0.2,0,0.3c1-0.4,1.9-0.6,2.7-0.6c0,0,0,0,0,0
		c0.3,0,0.6,0,0.9,0.1c0.4-0.4,0.6-0.6,0.6-0.6l0,0l0,0l-0.1,0.7c1,0.2,1.8,0.7,2.5,1.1c0.5-3.2,1.9-6.2,3.8-8.5c2.5-3,6.1-4.9,10-5
		c0.1,0,0.2,0,0.3,0c0,0,0,0,0,0c4,0,7.6,1.9,10.2,4.8c2.6,2.9,4.2,7,4.3,11.5l-1.3,0l0,0l1.3,0c0,0.1,0,0.3,0,0.4
		c0,0.1,0,0.3,0,0.4c0.7-5.2,1.3-9.6,1.3-9.6s-7-4.2-2.3-18.1C273.8,69.6,270.9,68.1,265.6,68.1"/>
	<path class="st2" d="M224.9,121.6c0,0,1,9.8,14.5,10.6c0.6,0,1.2,0.1,1.8,0.1c12.3,0,17.8-7.8,17.8-7.8L224.9,121.6"/>
	<path class="st2" d="M276.4,100.1l-1.8,0c-0.1,0.5-0.2,0.9-0.3,1.4c-0.2,1.4-0.4,2.9-0.6,4.3C274.5,103.8,275.5,101.9,276.4,100.1
		 M233.8,27.6c-16.3,0-16.9,15.8-16,20.4c-1.6-4.5-0.9-7.2-0.9-7.2c-6.4,14.1,6,23.9,6,23.9c-6.1-2.2-8.8-10.7-8.8-10.7
		c-0.3,10.9,4.8,16.4,11.8,18.7c2.8,0.9,5.8,1.2,9,1.2c6.3,0,13.1-1.5,18.4-3.4c4.9-1.8,9-2.3,12.2-2.3c5.3,0,8.2,1.5,8.2,1.5
		c-4.7,13.9,2.3,18.1,2.3,18.1s-0.6,4.4-1.3,9.6c0,0,0,0.1,0,0.1l3.3-0.1c1.6-1.2,3.5-2.1,5.5-2.2c2.7-6,5.9-12.5,10.3-21.5
		c8.2-16.8-9-20-9-20C282,38.4,271.6,35,260.8,35c-4.5,0-9.1,0.6-13.2,1.2c-4.1,0.6-7.7,1.2-10.4,1.2c-2.1,0-3.6-0.4-4.2-1.5
		c-3.4-6.4,1.4-8.2,3.9-8.2c0.1,0,0.3,0,0.4,0C236.1,27.6,234.9,27.6,233.8,27.6"/>
	<path class="st2" d="M256.2,100.6c-0.1-1.7,0.2-3.4,0.8-5c0.3-0.8,0.7-1.6,1.3-2.4c0.6-0.7,1.5-1.5,2.7-1.6c0.1,0,0.3,0,0.4,0
		l0.5,0.1l0.4,0.1c0.1,0.1,0.3,0.1,0.4,0.2l0.4,0.2c0.1,0.1,0.2,0.2,0.3,0.3l0.3,0.3c0.1,0.1,0.2,0.2,0.2,0.3c0.6,0.9,0.9,1.8,1,2.6
		c0.3,1.7,0.2,3.4-0.3,5.1c-0.4-1.6-0.8-3.2-1.3-4.6c-0.3-0.7-0.6-1.4-1-1.8c-0.3-0.4-0.7-0.5-1-0.5c-0.1,0-0.1,0-0.2,0
		c-0.4,0-0.9,0.3-1.4,0.8c-0.5,0.5-0.9,1.1-1.3,1.7C257.7,97.7,257,99.1,256.2,100.6 M260.3,82.7l-0.2,0c-3.2,0.1-6.1,1.6-8.2,4.1
		c-2.1,2.5-3.4,6-3.4,9.9c0,0.1,0,0.3,0,0.4c0.1,3.9,1.5,7.4,3.7,9.9c2.2,2.5,5.1,4,8.3,4l0.2,0c3.2-0.1,6.1-1.6,8.2-4.1
		c2.1-2.5,3.4-6,3.4-9.9c0-0.1,0-0.3,0-0.4l1.3,0l0,0l-1.3,0c-0.1-3.9-1.5-7.4-3.7-9.9C266.4,84.2,263.5,82.7,260.3,82.7"/>
	<path class="st2" d="M260.3,80.2C260.3,80.2,260.3,80.2,260.3,80.2c-0.1,0-0.2,0-0.3,0c-4,0.1-7.5,2-10,5c-1.9,2.3-3.3,5.2-3.8,8.5
		c0.2,0.1,0.4,0.3,0.6,0.4c1,0.8,1.5,1.6,1.5,1.7l-2.2,1.3l0.4-0.3l-0.4,0.3l0,0l0-0.1c0,0-0.1-0.1-0.1-0.2c0,0.1,0,0.1,0,0.2
		c0.1,4.5,1.7,8.5,4.3,11.5c2.6,2.9,6.2,4.8,10.2,4.8c0,0,0,0,0,0c0.1,0,0.2,0,0.3,0c4-0.1,7.5-2,10-5c1.6-1.9,2.8-4.2,3.5-6.8
		c0.1-0.5,0.2-0.9,0.3-1.4l-1.1,0l0-2.7l1.4,0c0,0,0-0.1,0-0.1c0-0.1,0-0.3,0-0.4c0-0.1,0-0.3,0-0.4l-1.3,0l-1.3,0
		c0,0.1,0,0.3,0,0.4c0,3.9-1.3,7.3-3.4,9.9c-2.1,2.5-5,4.1-8.2,4.1l-0.2,0c-3.2,0-6.1-1.5-8.3-4c-2.2-2.5-3.6-6-3.7-9.9
		c0-0.1,0-0.3,0-0.4c0-3.9,1.3-7.3,3.4-9.9c2.1-2.5,5-4.1,8.2-4.1l0.2,0c3.2,0,6.1,1.5,8.3,4c2.2,2.5,3.6,6,3.7,9.9l1.3,0l1.3,0
		c-0.1-4.5-1.7-8.5-4.3-11.5C267.9,82,264.3,80.2,260.3,80.2"/>
	<path class="st2" d="M220.9,96.8c-0.1-1.7,0.2-3.4,0.8-5c0.3-0.8,0.7-1.6,1.3-2.4c0.6-0.7,1.5-1.5,2.7-1.6c0.1,0,0.3,0,0.4,0
		l0.5,0.1l0.4,0.1c0.1,0.1,0.3,0.1,0.4,0.2l0.4,0.2c0.1,0.1,0.2,0.2,0.3,0.3l0.3,0.3c0.1,0.1,0.2,0.2,0.2,0.3c0.6,0.9,0.9,1.8,1,2.6
		c0.3,1.7,0.2,3.4-0.3,5.1c-0.4-1.6-0.8-3.2-1.3-4.6c-0.3-0.7-0.6-1.4-1-1.8c-0.3-0.4-0.7-0.5-1-0.5c-0.1,0-0.1,0-0.2,0
		c-0.4,0-0.9,0.3-1.4,0.8c-0.5,0.5-0.9,1.1-1.3,1.7C222.4,93.9,221.7,95.3,220.9,96.8 M225,78.9l-0.2,0c-3.2,0.1-6.1,1.6-8.2,4.1
		c-2.1,2.5-3.4,6-3.4,9.9c0,0.1,0,0.3,0,0.4c0.1,3.9,1.5,7.4,3.7,9.9c2.2,2.5,5.1,4,8.3,4l0.2,0c3.2-0.1,6.1-1.6,8.2-4.1
		c2.1-2.5,3.4-6,3.4-9.9c0-0.1,0-0.3,0-0.4l1.3,0l0,0l-1.3,0c-0.1-3.9-1.5-7.4-3.7-9.9C231.1,80.4,228.2,78.9,225,78.9"/>
	<path class="st2" d="M225.2,107.1c-3.2,0-6.1-1.5-8.3-4c-2.2-2.5-3.6-6-3.7-9.9c0-0.1,0-0.3,0-0.4c0-3.9,1.3-7.3,3.4-9.9
		c2.1-2.5,5-4.1,8.2-4.1l0.2,0c3.2,0,6.1,1.5,8.3,4c2.2,2.5,3.6,6,3.7,9.9l1.3,0l1.3,0l-1.3,0l-1.3,0c0,0.1,0,0.3,0,0.4
		c0,3.9-1.3,7.3-3.4,9.9c-2.1,2.5-5,4.1-8.2,4.1L225.2,107.1 M225,76.4C225,76.4,225,76.4,225,76.4c-0.1,0-0.2,0-0.3,0
		c-4,0.1-7.5,2-10,5c-2.5,3-4,7-4,11.5c0,0.1,0,0.3,0,0.4c0.1,4.5,1.7,8.5,4.3,11.5c0.8,0.9,1.7,1.7,2.7,2.4
		c2.2,1.5,4.7,2.4,7.5,2.4c0,0,0,0,0,0c0.1,0,0.2,0,0.3,0c2.6-0.1,4.9-0.9,7-2.3c1.9-4.1,4.5-7.8,6.7-10.5c0.1-0.3,0.1-0.6,0.2-0.9
		c-0.2,0.1-0.4,0.3-0.7,0.5l-1.5-2c0.8-0.6,1.6-1.1,2.4-1.4c0-0.1,0-0.2,0-0.3l0,0c-0.1-4.5-1.7-8.5-4.3-11.5
		C232.6,78.3,229,76.4,225,76.4C225,76.4,225,76.4,225,76.4"/>
	<path class="st2" d="M242.3,94.9C242.3,94.9,242.3,94.9,242.3,94.9c-0.5,0-1.1,0.1-1.8,0.4c-0.4,0.5-0.9,1-1.3,1.5
		c-2.2,2.7-4.9,6.4-6.7,10.5c-0.8,1.8-1.5,3.8-2,5.7c9.7,3.6,9.7,3.6,9.7,3.6l3.1-21.6C243,95,242.7,94.9,242.3,94.9 M243.8,91.9
		c0,0-0.2,0.2-0.6,0.6c0.2,0,0.3,0.1,0.5,0.1L243.8,91.9"/>
	<path class="st2" d="M242.3,92.4c-0.9,0-1.8,0.2-2.7,0.6c-0.8,0.3-1.6,0.8-2.4,1.4l1.5,2c0.2-0.2,0.5-0.3,0.7-0.5
		c0.4-0.3,0.8-0.5,1.1-0.6c0.7-0.3,1.3-0.4,1.8-0.4c0,0,0,0,0,0c0.4,0,0.7,0,1,0.1c0.7,0.2,1.3,0.6,1.8,1c0.3,0.3,0.6,0.6,0.8,0.8
		c0,0,0,0.1,0.1,0.1c0.1,0.1,0.1,0.1,0.1,0.2l0,0.1l0,0l0.4-0.3l-0.4,0.3l2.2-1.3c0-0.1-0.5-0.9-1.5-1.7c-0.2-0.1-0.4-0.3-0.6-0.4
		c-0.7-0.5-1.5-0.9-2.5-1.1c-0.2,0-0.3-0.1-0.5-0.1C242.9,92.4,242.6,92.4,242.3,92.4C242.3,92.4,242.3,92.4,242.3,92.4"/>
	<path class="st2" d="M278.1,97.4l-3.3,0.1l-1.4,0l0,2.7l1.1,0l1.8,0c0.4-0.8,0.8-1.6,1.2-2.3C277.8,97.7,277.9,97.5,278.1,97.4"/>
	<path class="st2" d="M261.5,91.6c-0.1,0-0.3,0-0.4,0c-1.2,0.1-2.1,0.9-2.7,1.6c-0.6,0.8-1,1.6-1.3,2.4c-0.6,1.6-0.9,3.3-0.8,5
		c0.8-1.5,1.5-2.9,2.3-4.3c0.4-0.6,0.8-1.3,1.3-1.7c0.5-0.5,1-0.8,1.4-0.8c0.1,0,0.1,0,0.2,0c0.4,0,0.7,0.1,1,0.5
		c0.4,0.4,0.7,1.1,1,1.8c0.5,1.4,0.9,3,1.3,4.6c0.5-1.6,0.6-3.3,0.3-5.1c-0.1-0.9-0.4-1.8-1-2.6c-0.1-0.1-0.1-0.2-0.2-0.3l-0.3-0.3
		c-0.1-0.1-0.2-0.2-0.3-0.3l-0.4-0.2c-0.1-0.1-0.3-0.1-0.4-0.2l-0.4-0.1L261.5,91.6"/>
	<path class="st2" d="M226.2,87.8c-0.1,0-0.3,0-0.4,0c-1.2,0.1-2.1,0.9-2.7,1.6c-0.6,0.8-1,1.6-1.3,2.4c-0.6,1.6-0.9,3.3-0.8,5
		c0.8-1.5,1.5-2.9,2.3-4.3c0.4-0.6,0.8-1.3,1.3-1.7c0.5-0.5,1-0.8,1.4-0.8c0.1,0,0.1,0,0.2,0c0.4,0,0.7,0.1,1,0.5
		c0.4,0.4,0.7,1.1,1,1.8c0.5,1.4,0.9,3,1.3,4.6c0.5-1.6,0.6-3.3,0.3-5.1c-0.1-0.9-0.4-1.8-1-2.6c-0.1-0.1-0.1-0.2-0.2-0.3l-0.3-0.3
		c-0.1-0.1-0.2-0.2-0.3-0.3l-0.4-0.2c-0.1-0.1-0.3-0.1-0.4-0.2l-0.4-0.1L226.2,87.8"/>
	<path class="st2" d="M277.3,268.9l-2,11.1h3.8l1.4-8l-2.3-1.1l0.3-1.4C278,269.3,277.6,269.1,277.3,268.9 M286.6,209
		c-0.1,2.1,0,4.1,0.2,6.2l-5.5,31.2c0.5,0.2,0.9,0.4,1.4,0.6l0.3-1.5l2.2,0.9l4.9-27.7l0-0.1l0,0l-1.1,5
		C289,223.4,286.8,218.4,286.6,209 M304.4,168.1c0,0-2.5,3.8-5.4,10.1C301.9,172.1,304.4,168.1,304.4,168.1L304.4,168.1L304.4,168.1
		L304.4,168.1 M300.1,166.9L300.1,166.9l4.2,1.3C303,167.7,301.6,167.3,300.1,166.9"/>
	<path class="st2" d="M300.1,167l-6.2,12.1c-3.5,8.2-7,19.1-7.3,30c0.2,9.3,2.4,14.4,2.4,14.4l1.1-5c-0.8-15.8,4.5-30.7,8.9-40.2
		c2.9-6.3,5.4-10.1,5.4-10.1l0,0L300.1,167"/>
	<path class="st2" d="M277.3,268.8l0,0.1c0.4,0.2,0.8,0.4,1.2,0.5l0-0.1C278.1,269.2,277.7,269,277.3,268.8 M297.6,252.7
		c-0.5,4-2,15.4-4.4,22.7c3.6,1.1,6.5,1.6,9,1.6c2.1,0,3.8-0.3,5.2-0.9c0.5-0.2,1-0.4,1.4-0.7c4.6-2.8,5.2-8.3,5.2-10.3
		c0-0.5,0-0.7,0-0.7C309,259.2,303.1,255.5,297.6,252.7"/>
	<path class="st2" d="M281.3,246.4l-4,22.4c0.4,0.2,0.8,0.4,1.2,0.5l4.2-22.4C282.2,246.8,281.7,246.6,281.3,246.4"/>
	<path class="st2" d="M283,245.4l-0.3,1.5l-4.2,22.4l0,0.1l-0.3,1.4l2.3,1.1l11.8,5.7c0.3-0.7,0.6-1.5,0.9-2.3
		c2.4-7.3,4-18.7,4.4-22.7c0.1-0.9,0.2-1.4,0.2-1.4l-4-1.6l-8.6-3.4L283,245.4"/>
	<polygon class="st3" points="95.2,252.3 0,230.9 0,233.2 94.7,254.6 	"/>
	<path class="st4" d="M166.3,249.1l-65,4.6c0,0,1.1,5.4-1.7,9.9c0,0-4.6,4.1-5.7,0.9c0,0-2.2,3.8-5.6,1.1c0,0-4.6,3.3-6.6-0.5
		c0,0-4.1,2.6-4.8-3.6c-0.7-6.2,0.7-12.6,0.7-12.6l1.5-6.1l81.2-14.5L166.3,249.1z"/>
	<path class="st4" d="M97.9,246.4c0,0,1.6,4.7-5.1,7.8c-6.7,3.2-14.7-6-14.7-6s-12.3-0.4-10.4-4.3C69.5,240.2,91.3,240.6,97.9,246.4
		z"/>
	<path class="st1" d="M193.4,162.3l-43.4,68c0,0,13.4,18.5,17.2,17.2c9.1-3.1,34.6-39.2,34.6-39.2L193.4,162.3z"/>
	<path class="st5" d="M141.3,230.2l11.1-3.8c0,0,9.9,14,17,24l-15.5,0.9L141.3,230.2z"/>
	<path class="st6" d="M294,497.6l-24.2-222.9l-1.3,0.1c-9.7-19.1-46.9-1.7-61.5,6l-5.4-0.7c-0.8,4.2-18.2,104.7,2.6,213.8
		c0,0,11.9,3.7,21.9-3.2c-8.3-47.8-7.8-127.8-2-166.5c8.4,1.3,11.9,0.2,21.4-0.4c0,0,20.3,156.4,24.4,176.2
		C283,504.8,294,497.6,294,497.6z"/>
	<path class="st1" d="M272.8,284.6c0,0-22,18.1-35.3,20.7l-1.7-11.6l-12.5,8.2l-23.7-14.5l25-31.2L272.8,284.6z"/>
	<polygon class="st7" points="231.1,142.6 230.5,177 253.6,168.5 254.3,133.1 	"/>
	<path class="st1" d="M193.4,172c0,0,5.6,81.4,8.7,117.4c0,0,10.6,3.9,37.9,3.8c19.3-0.1,17.8-43.3,17.8-43.3l43.3-84.9
		c0,0-17.6-4.4-46.9-5.5l-14.1,12.3c0,0-4.4-9.1-11.6-11.4c-11.1,0.4-22.1,0.3-35.1,2V172"/>
	<path class="st1" d="M292.6,264.3l-11.2-93.9l19.7-5.5c0,0,15.6,73.4,9.7,97S292.6,264.3,292.6,264.3z"/>
	<polygon class="st8" points="240.2,171.8 244.2,159.4 251.8,163.3 	"/>
	<polygon class="st8" points="239.6,160.3 240.2,171.8 234.1,163.4 	"/>
	<polygon class="st5" points="221.9,158.9 231,172.4 239.6,160.3 227.2,151.2 	"/>
	<polygon class="st5" points="263.1,158.7 250.4,172.4 244.2,159.4 258.5,150.6 	"/>
	<path class="st9" d="M246.3,163.9c0,0-4,0.8-9.2,0l-2.5,3.5l2.5,7.2l-17.4,87.7l9.3,11.9l12.3-9.8l2.1-88.9l4.3-8.7L246.3,163.9"/>
	<path class="st4" d="M272,120.1c-2.5-7.1,2.4-16.2,5.6-22.3c2.8-2.3,6.4-3.7,10.4-1.6c8.8,4.8-1.6,28.3-15.7,22.5
		C272.2,119.2,272.1,119.7,272,120.1"/>
	<path class="st10" d="M283.5,99.4c-4,0-7.1,5.4-7.7,6.4c3.2,2.7,3.2,7.6,0.5,9.9c0.7,0.2,1.4,0.3,2.1,0.3c7.3,0,12.3-13.1,7.4-16
		C285.1,99.6,284.3,99.4,283.5,99.4"/>
	<path class="st4" d="M277.2,76.2c-1.5-9.3,7.4-11.3-25.1-18.1c-11.3-2.4-26.7,1.3-26.7,1.3s-17.2,62.8-14.3,71.4
		c2.4,7.1,6.1,17.9,22.1,19.2c11.3,0.9,35.8-4.9,38.2-16.9C272,130.4,277.2,76.2,277.2,76.2z"/>
	<path class="st1" d="M221.7,118.4l34,2.8c0,0-6,8.6-19.5,7.8S221.7,118.4,221.7,118.4z"/>
	<path class="st11" d="M269.8,108.1c0.9-7.4,3.1-23.6,3.1-23.6s-7-4.2-2.3-18.1c0,0-7.6-3.8-20.5,0.8c-14.8,5.3-40,7.4-39.2-16.5
		c0,0,2.7,8.6,8.8,10.7c0,0-12.3-9.7-6-23.9c0,0-0.7,2.7,0.9,7.2c-1-4.9-0.3-22.6,19.5-20.2c-2.2-0.2-7.8,1.4-4.2,8.1
		c3.7,7,45.5-15.3,51.9,17.7c0,0,17.2,3.3,9,20c-8.5,17.3-12.6,25.3-16.6,38.2C272.4,108.1,271.7,108,269.8,108.1z"/>
	<path class="st12" d="M270.3,93.2c0.2,8.5-5.6,15.5-12.8,15.7s-13.4-6.6-13.5-15c-0.2-8.5,5.6-15.5,12.8-15.7
		C264.1,78,270.2,84.8,270.3,93.2z"/>
	<path class="st3" d="M270.3,93.2l-1.3,0c0,0.1,0,0.3,0,0.4c0,3.9-1.3,7.3-3.4,9.9c-2.1,2.5-5,4.1-8.2,4.1l-0.2,0
		c-3.2,0-6.1-1.5-8.3-4c-2.2-2.5-3.6-6-3.7-9.9c0-0.1,0-0.3,0-0.4c0-3.9,1.3-7.3,3.4-9.9c2.1-2.5,5-4.1,8.2-4.1l0.2,0
		c3.2,0,6.1,1.5,8.3,4c2.2,2.5,3.6,6,3.7,9.9L270.3,93.2l1.3,0c-0.1-4.5-1.7-8.5-4.3-11.5c-2.6-2.9-6.2-4.8-10.2-4.8
		c-0.1,0-0.2,0-0.3,0c-4,0.1-7.5,2-10,5c-2.5,3-4,7-4,11.5c0,0.1,0,0.3,0,0.4c0.1,4.5,1.7,8.5,4.3,11.5c2.6,2.9,6.2,4.8,10.2,4.8
		c0.1,0,0.2,0,0.3,0c4-0.1,7.5-2,10-5c2.5-3,4-7,4-11.5c0-0.1,0-0.3,0-0.4L270.3,93.2z"/>
	<path class="st12" d="M235.1,89.5c0.2,8.5-5.6,15.5-12.8,15.7c-7.3,0.2-13.4-6.6-13.5-15c-0.2-8.5,5.6-15.5,12.8-15.7
		C228.8,74.2,234.9,81,235.1,89.5z"/>
	<path class="st3" d="M235.1,89.5l-1.3,0c0,0.1,0,0.3,0,0.4c0,3.9-1.3,7.3-3.4,9.9c-2.1,2.5-5,4.1-8.2,4.1l-0.2,0
		c-3.2,0-6.1-1.5-8.3-4c-2.2-2.5-3.6-6-3.7-9.9c0-0.1,0-0.3,0-0.4c0-3.9,1.3-7.3,3.4-9.9c2.1-2.5,5-4.1,8.2-4.1l0.2,0
		c3.2,0,6.1,1.5,8.3,4c2.2,2.5,3.6,6,3.7,9.9L235.1,89.5l1.3,0c-0.1-4.5-1.7-8.5-4.3-11.5c-2.6-2.9-6.2-4.8-10.2-4.8
		c-0.1,0-0.2,0-0.3,0c-4,0.1-7.5,2-10,5c-2.5,3-4,7-4,11.5c0,0.1,0,0.3,0,0.4c0.1,4.5,1.7,8.5,4.3,11.5c2.6,2.9,6.2,4.8,10.2,4.8
		c0.1,0,0.2,0,0.3,0c4-0.1,7.5-2,10-5c2.5-3,4-7,4-11.5c0-0.1,0-0.3,0-0.4L235.1,89.5z"/>
	<path class="st13" d="M240.5,88.6c0,0-10.8,9.9-13.3,21.2c9.7,3.6,9.7,3.6,9.7,3.6L240.5,88.6z"/>
	<path class="st3" d="M245,92.6c0-0.1-0.5-0.9-1.5-1.7c-1-0.8-2.5-1.7-4.4-1.7c-1.6,0-3.3,0.6-5.1,2l1.5,2c1.5-1.1,2.7-1.4,3.6-1.5
		c1.2,0,2.1,0.5,2.8,1.1c0.3,0.3,0.6,0.6,0.8,0.8c0.1,0.1,0.1,0.2,0.2,0.3l0,0.1l0,0l0.4-0.3l-0.4,0.3l0,0l0.4-0.3l-0.4,0.3
		L245,92.6L245,92.6z"/>
	<polyline class="st3" points="283.1,94 270.2,94.2 270.3,96.9 283.1,96.7 	"/>
	<path class="st14" d="M261.5,97.5c-0.4-1.6-0.8-3.2-1.3-4.6c-0.3-0.7-0.6-1.4-1-1.8c-0.4-0.4-0.7-0.6-1.2-0.5
		c-0.4,0-0.9,0.3-1.4,0.8c-0.5,0.5-0.9,1.1-1.3,1.7c-0.8,1.3-1.5,2.8-2.3,4.3c-0.1-1.7,0.2-3.4,0.8-5c0.3-0.8,0.7-1.6,1.3-2.4
		c0.6-0.7,1.5-1.5,2.7-1.6c0.1,0,0.3,0,0.4,0l0.5,0.1l0.4,0.1c0.1,0.1,0.3,0.1,0.4,0.2l0.4,0.2c0.1,0.1,0.2,0.2,0.3,0.3l0.3,0.3
		c0.1,0.1,0.2,0.2,0.2,0.3c0.6,0.9,0.9,1.8,1,2.6C262.1,94.2,262,95.9,261.5,97.5z"/>
	<path class="st14" d="M226.2,93.7c-0.4-1.6-0.8-3.2-1.3-4.6c-0.3-0.7-0.6-1.4-1-1.8c-0.4-0.4-0.7-0.6-1.2-0.5
		c-0.4,0-0.9,0.3-1.4,0.8c-0.5,0.5-0.9,1.1-1.3,1.7c-0.8,1.3-1.5,2.8-2.3,4.3c-0.1-1.7,0.2-3.4,0.8-5c0.3-0.8,0.7-1.6,1.3-2.4
		c0.6-0.7,1.5-1.5,2.7-1.6c0.1,0,0.3,0,0.4,0l0.5,0.1l0.4,0.1c0.1,0.1,0.3,0.1,0.4,0.2l0.4,0.2c0.1,0.1,0.2,0.2,0.3,0.3l0.3,0.3
		c0.1,0.1,0.2,0.2,0.2,0.3c0.6,0.9,0.9,1.8,1,2.6C226.8,90.4,226.7,92.1,226.2,93.7z"/>
	<path class="st15" d="M301.1,164.9c0,0-16.6,26.2-14.3,50.3l-12.3,69.1c0,0-38,21-75,3c0,0-6.6-102.9-6.1-125
		c16-3.4,24.2-2.1,24.2-2.1l20.7,35.6l29.3-36.2C267.6,159.6,288.1,160.4,301.1,164.9"/>
	<path class="st16" d="M273,159.8l-5.4-0.2c0,0-25,31.2-29.3,36.2l-20.7-35.6c0,0-3-0.4-5.5-0.1c-0.2,1.3,21.1,40.4,26.3,41.9
		C243.6,203.5,256.9,179.9,273,159.8z"/>
	<path class="st16" d="M301.1,164.9c0,0-15.6,24-14.3,50.3l-1.1,5c0,0-9.3-21.3,8.8-57.1L301.1,164.9z"/>
	<path class="st16" d="M197.8,161.6c0,0-3,45.5-3,47.6c0,2.2-2.7-44.8-1.4-46.8L197.8,161.6z"/>
	<path class="st1" d="M310.8,261.1c0,0,1.2,20-24.6,9.7c-25.9-10.3-14.9-8.2-14.9-8.2l4.3-19.6C275.6,243,296.5,246.6,310.8,261.1z"
		/>
	<polyline class="st17" points="217.1,254.1 258.4,267.4 261.3,260.8 223.9,241.2 217.1,254.1 	"/>
	<path class="st1" d="M218.1,252.9l39.3,12.6l3.8-2.7l-34.8-13.2C226.4,249.6,219.7,249.3,218.1,252.9z"/>
	<path class="st18" d="M275.4,227.3l-12.7,36L225,251.9c0,0-5.7-1.6-7.9,2.2c0,0,17.7-52.6,19.6-56.3c1.9-3.7,8.3-1.7,8.3-1.7
		l36.5,13.2L275.4,227.3"/>
	<path class="st19" d="M217.1,254.1c0,0,17.7-52.6,19.6-56.3s8.3-1.7,8.3-1.7l-20,55.9C225,251.9,219.3,250.3,217.1,254.1z"/>
	<path class="st20" d="M248.5,209.9l-0.9,1.4l-0.6-0.2l3.1-4.3l0.8,0.2l0.2,5.3l-0.7-0.2l-0.1-1.7L248.5,209.9z M250.3,209.9
		l-0.1-1.5c0-0.3,0-0.7,0-1l0,0c-0.2,0.3-0.3,0.5-0.5,0.8l-0.9,1.3L250.3,209.9z M251.8,206.1l-1.2,0.6l-0.5-0.2l0.9-0.6
		L251.8,206.1z"/>
	<polygon class="st20" points="253.1,207.6 253.7,207.8 252.5,212.1 254.5,212.7 254.4,213.3 251.7,212.5 	"/>
	<path class="st20" d="M258.5,214.2c-0.3,0-0.9,0-1.6-0.2c-0.7-0.2-1.3-0.6-1.6-1.2c-0.3-0.5-0.4-1.2-0.1-2c0.4-1.4,1.7-2.2,3.3-1.7
		c0.6,0.2,1,0.4,1.1,0.6l-0.3,0.5c-0.2-0.2-0.5-0.4-1-0.5c-1.2-0.3-2.2,0.2-2.5,1.4c-0.4,1.2,0.2,2.2,1.3,2.5
		c0.4,0.1,0.7,0.1,0.9,0.1l0.4-1.4l-1-0.3l0.1-0.5l1.6,0.5L258.5,214.2z"/>
	<polygon class="st20" points="262.6,213.2 260.7,212.7 260.2,214.4 262.3,215 262.1,215.5 259.4,214.7 260.8,209.9 263.4,210.7 
		263.3,211.2 261.3,210.6 260.9,212.1 262.7,212.7 	"/>
	<path class="st20" d="M264.3,211c0.3,0,0.7,0.1,1.2,0.2c0.6,0.2,1,0.4,1.2,0.7c0.2,0.3,0.3,0.6,0.2,1c-0.1,0.5-0.6,0.8-1.1,0.8l0,0
		c0.4,0.3,0.8,0.8,0.6,1.5c-0.1,0.4-0.4,0.7-0.7,0.8c-0.4,0.2-1,0.2-1.8,0c-0.4-0.1-0.8-0.3-0.9-0.3L264.3,211z M263.7,215.5
		c0.1,0.1,0.3,0.1,0.5,0.2c0.6,0.2,1.3,0.1,1.5-0.6c0.2-0.7-0.3-1.1-1-1.3l-0.5-0.2L263.7,215.5z M264.4,213.2l0.6,0.2
		c0.7,0.2,1.1,0,1.3-0.5c0.2-0.6-0.2-0.9-0.8-1.1c-0.3-0.1-0.5-0.1-0.6-0.1L264.4,213.2z"/>
	<path class="st20" d="M268.2,212.2c0.3,0,0.8,0.1,1.2,0.3c0.7,0.2,1.1,0.4,1.3,0.8c0.2,0.3,0.2,0.7,0.1,1c-0.2,0.6-0.7,0.9-1.3,1
		l0,0c0.3,0.2,0.5,0.6,0.4,1.2c0,0.7-0.1,1.2,0,1.4l-0.6-0.2c0-0.2,0-0.6,0-1.2c0.1-0.7-0.1-1-0.7-1.2l-0.6-0.2l-0.6,2.1l-0.6-0.2
		L268.2,212.2z M268.2,214.5l0.6,0.2c0.7,0.2,1.2,0,1.4-0.6c0.2-0.6-0.2-1-0.8-1.2c-0.3-0.1-0.5-0.1-0.6-0.1L268.2,214.5z"/>
	<path class="st20" d="M271.9,216.8l-0.9,1.4l-0.6-0.2l3.1-4.3l0.8,0.2l0.2,5.3l-0.7-0.2l-0.1-1.7L271.9,216.8z M273.7,216.8
		l-0.1-1.5c0-0.3,0-0.7,0-1l0,0c-0.2,0.3-0.3,0.5-0.5,0.8l-0.9,1.3L273.7,216.8z"/>
	<polyline class="st21" points="245.5,215.7 233.1,247.6 258.6,254.7 270.7,223.1 245.5,215.7 	"/>
	<path class="st4" d="M239.6,237.8c0,0,6-11.6-9.8-17.7c0,0-6.4-1.2-4.4,2.4l1.8,1.4c0,0-8,0.7-3.2,4.1c0,0-5.8,1.6-2,5.4
		c0,0-5.7,0.9-1.4,3.9c4.3,3,10.2,7.6,14,3.4C238.4,236.5,239.6,237.8,239.6,237.8z"/>
	<path class="st4" d="M238.5,232.6c0,0,5.7-13.6,2.9-14.6s-7.4,8.7-6.8,11.2C235.2,231.8,238.5,232.6,238.5,232.6z"/>
	<path class="st4" d="M286.2,259.6c0.3,4.5-1.1,7-1,10.5c0,2.5,0,0-9.7-3.9c-22.2-10.1-42.7-24.9-42.7-24.9l6-13.6
		c0,0,26.7,10.4,45.6,18C283.7,247.8,286,257.2,286.2,259.6z"/>
	<path class="st5" d="M279.7,242.2l14.8,5.9c0,0-1.9,18.1-5.5,26.4l-14.1-6.8L279.7,242.2z"/>
</g>
</svg>
