<?xml version="1.0" encoding="utf-8"?>
<!-- Generator: Adobe Illustrator 24.0.2, SVG Export Plug-In . SVG Version: 6.00 Build 0)  -->
<svg version="1.1" id="Capa_1" xmlns="http://www.w3.org/2000/svg" xmlns:xlink="http://www.w3.org/1999/xlink" x="0px" y="0px"
	 viewBox="0 0 900 1080" style="enable-background:new 0 0 900 1080;" xml:space="preserve">
<style type="text/css">
	.st0{fill:#FF5E3E;}
	.st1{fill:#FFFFFF;}
	.st2{clip-path:url(#SVGID_2_);fill:#D95035;}
	.st3{clip-path:url(#SVGID_2_);fill:#D9D9D9;}
	.st4{clip-path:url(#SVGID_2_);fill:#7E4C30;}
	.st5{clip-path:url(#SVGID_2_);fill:#FFD2C0;}
	.st6{clip-path:url(#SVGID_2_);fill:#FFFFFF;}
	.st7{clip-path:url(#SVGID_2_);fill:#F1E1DD;}
	.st8{clip-path:url(#SVGID_2_);fill:#638589;}
	.st9{clip-path:url(#SVGID_2_);fill:#F4B8A8;}
	.st10{clip-path:url(#SVGID_2_);fill:#DDCAC7;}
	.st11{clip-path:url(#SVGID_2_);fill:#404061;}
	.st12{clip-path:url(#SVGID_2_);fill:#EEAE99;}
	.st13{clip-path:url(#SVGID_2_);fill:#27160A;}
	.st14{clip-path:url(#SVGID_2_);fill:#B1E2DC;}
	.st15{clip-path:url(#SVGID_2_);fill:#E79F89;}
	.st16{clip-path:url(#SVGID_2_);fill:#262929;}
	.st17{clip-path:url(#SVGID_2_);fill:#878787;}
	.st18{clip-path:url(#SVGID_2_);fill:#9E9E9E;}
	.st19{clip-path:url(#SVGID_2_);fill:#401313;}
	.st20{clip-path:url(#SVGID_2_);fill:#873B3B;}
	.st21{clip-path:url(#SVGID_2_);fill:#682727;}
	.st22{clip-path:url(#SVGID_2_);fill:#E1AB3B;}
	.st23{clip-path:url(#SVGID_2_);fill:#99513B;}
</style>
<g>
	<polyline class="st0" points="0,0 900,0 900,1080 0,1080 0,0 	"/>
	<polyline class="st1" points="118.6,231.9 530.7,225.5 528.5,316.7 128.3,351.3 118.6,231.9 	"/>
	<path class="st0" d="M164.5,259.6l9.1,28.9l13.3-29.8c3.3-1,6.5-1.1,9.7-0.4l-1.3,51.7l-11.3,0.5l0.6-24.7l-9.8,24.6
		c-1.7,0.9-3.3,0.7-4.7-0.8l-6.5-23.2l-1,25.1l-11.2,0.3L153,260C155.8,258.6,159.7,258.5,164.5,259.6z"/>
	<path class="st0" d="M229.2,256.3l15.7,49.6c-3.1,2.2-7.2,2.9-12.3,2.1l-2.8-9.2l-12.8,2.1l-2.9,9.5c-5.1,0.9-9,0.3-11.6-1.8
		l16.4-51.5C222.4,254.6,225.8,254.4,229.2,256.3z M223.8,273.1l-4.9,17.3l8.5-1.3L223.8,273.1z"/>
	<path class="st0" d="M284.6,254.6c1.3,3.6,1.2,7-0.2,10.2l-22.7,1.5l-0.3,8.9l18.7-1c1.9,3.3,1.8,6.5-0.1,9.6l-19,1.5l-0.6,10.8
		l23.3-1.5c2.1,4,1.9,7.9-0.4,11.6l-32.5,2.4c-1-0.2-1.6-0.9-1.9-2.1l1.4-47.8c0.2-0.9,0.7-1.6,1.6-2L284.6,254.6z"/>
	<path class="st0" d="M294.2,301.1c-1.7-5.2-1-9.3,2.2-12.3c6.1,3.3,10.5,5.3,13.2,6c5-0.2,7.7-1.6,8.1-4c0-2-1.6-3.8-4.8-5.5
		l-9.1-4c-5.7-2.8-8.7-6.9-9.1-12.2c0.1-3.1,1.1-5.9,2.9-8.5c1.8-2.5,4-4.3,6.4-5.1c2.4-0.9,5.3-1.2,8.6-1.2
		c6.1,0.2,11.6,1.7,16.3,4.6c0.3,4.4-0.9,8.2-3.7,11.6c-5.8-4-10.4-5.8-13.7-5.4c-3.2-0.3-4.8,0.9-4.9,3.6c-0.1,1.5,2.2,3.4,6.9,5.6
		c5.3,1.9,9.3,4.3,12,6.9c2.6,2.7,3.9,6,3.7,9.9c-0.2,5.3-2.5,9.5-7,12.5c-2.8,2.1-7,3.1-12.6,3C304.3,306,299.2,304.2,294.2,301.1z
		"/>
	<path class="st0" d="M373.8,251.5c1.7,3.7,1.8,7.4,0.1,11.2l-12.8,0.6l-0.5,40.5c-3.5,1.6-7.3,1.7-11.6,0.3l0.9-40l-12.6,0.7
		c-2.7-4.2-3-7.9-0.7-11L373.8,251.5z"/>
	<path class="st0" d="M388.3,251.7c11.5-1.5,19.6-1.9,24.2-1.3c4.6,0.6,7.6,2.6,9,6.1c1.4,3.4,1.6,8.1,0.7,14
		c-0.9,5.9-5.1,10-12.5,12.1l12.9,15.5c-2.1,4.6-5.9,6.3-11.3,4.8l-12.8-17.3l-4.1,0.6l-1.1,16.5c-4.7,1.8-8.5,1.6-11.4-0.7
		l2.7-47.7L388.3,251.7z M396,261.2l-1,14.4c9.6-1,14.9-2.9,15.9-5.7c1.1-2.8,1-5.3-0.1-7.5C409.7,260.3,404.8,259.9,396,261.2z"/>
	<path class="st0" d="M453.2,248.6c6.4-0.2,11.5,2.1,15.5,6.9c3.9,4.9,5.7,11.1,5.3,18.8c-0.4,7.7-2.8,14.1-7,19.2
		c-4.2,5.1-9.6,7.8-16,8c-6.4,0.2-11.8-2-16-6.7c-4.3-4.7-6.2-10.8-5.8-18.4c0.4-7.6,2.9-14.1,7.6-19.4
		C441.3,251.6,446.8,248.8,453.2,248.6z M452.7,261.7c-3.1,0.1-5.8,1.4-8.1,4c-2.4,2.6-3.7,5.9-4.1,10.1c-0.4,4.2,0.6,7.6,2.9,10.2
		c2.3,2.6,5.1,3.8,8.2,3.6c3.1-0.3,5.7-1.7,7.8-4.4c2-2.7,3.2-5.9,3.4-9.8s-0.6-7.2-2.6-9.8C458.2,262.9,455.7,261.7,452.7,261.7z"
		/>
	<path class="st0" d="M485.1,287.2c1,0,1.9,0.2,2.8,0.6c0.9,0.5,1.7,1.1,2.2,2c0.5,0.9,0.8,1.8,0.9,2.8c0,1-0.2,1.9-0.6,2.8
		s-1.1,1.6-2,2.2c-0.9,0.5-1.8,0.8-2.8,0.8c-1,0-2-0.2-2.9-0.6c-0.9-0.5-1.6-1.1-2.2-2c-0.5-0.9-0.8-1.8-0.8-2.8c0-1,0.2-2,0.7-2.9
		c0.5-0.9,1.2-1.6,2-2.2C483.2,287.5,484.1,287.2,485.1,287.2z M483.3,247.3l-0.5,36.5c2,1.2,4.5,1.3,7.5,0.2l5.6-35.4
		C492.2,246.1,488,245.7,483.3,247.3z"/>
	<polygon class="st1" points="135.4,123 525,119.8 524,209.5 124.4,231.8 	"/>
	<path class="st0" d="M146.4,201.2l5.6-35.4c3-1.1,5.4-1,7.5,0.2l-0.5,36.5C154.3,203.9,150.1,203.5,146.4,201.2z M160,161.6
		c0.9-0.5,1.6-1.2,2-2.2c0.5-0.9,0.7-1.9,0.7-2.9c0-1-0.3-1.9-0.8-2.8s-1.3-1.6-2.2-2c-0.9-0.5-1.9-0.7-2.9-0.6
		c-1,0-1.9,0.3-2.8,0.8c-0.9,0.5-1.6,1.2-2,2.2c-0.5,0.9-0.7,1.9-0.6,2.8c0,1,0.3,1.9,0.9,2.8c0.5,0.9,1.3,1.6,2.2,2
		c0.9,0.5,1.9,0.7,2.8,0.6C158.2,162.4,159.1,162.2,160,161.6z"/>
	<path class="st0" d="M203.9,150.6c1.3,3.6,1.2,7-0.2,10.2l-22.7,1.5l-0.3,11.6l18.6-1c1.9,3.3,1.9,6.5,0,9.6l-19,1.5l-0.6,19.7
		c-4.4,2.1-8.2,2.1-11.4,0.3l1.3-49.3c0.2-0.9,0.7-1.6,1.6-2L203.9,150.6z"/>
	<path class="st0" d="M247.1,149c1.3,3.6,1.2,7-0.2,10.2l-22.7,1.5l-0.3,8.9l18.7-1c1.9,3.3,1.8,6.5-0.1,9.6l-19,1.5l-0.6,10.8
		l23.3-1.5c2.1,4,1.9,7.9-0.4,11.6l-32.5,2.4c-1-0.2-1.6-0.9-1.9-2.1l1.4-47.8c0.2-0.9,0.7-1.6,1.6-2L247.1,149z"/>
	<path class="st0" d="M267.4,148.7l-1.1,40.3l20.8-1.3c2.1,4,1.9,7.9-0.4,11.6l-30.3,2.2c-1-0.2-1.6-0.9-1.9-2.1l1.1-49.6
		C258.4,148.4,262.3,148,267.4,148.7z"/>
	<path class="st0" d="M297.4,147.7c3.5-1,7.3-0.9,11.4,0.1l-2.3,51.3c-4.7,1.5-8.7,1.5-12-0.1L297.4,147.7z"/>
	<path class="st0" d="M318.9,146.5l33.5-1.1c2.4,3.2,2.7,6.8,1,10.9l-21.8,31.3l21.4-1.1c1.6,3.6,1.8,7.6,0.5,11.9l-35.5,1.4
		c-2.4-2-3-5.4-1.8-10.2l22.1-32l-21,0.9C316.4,153.9,316.9,149.9,318.9,146.5z"/>
	<path class="st0" d="M381.3,149.2l0.4-4.2l3.5-0.9l13.4-0.1c13.3,1.9,20.2,9.8,20.6,23.7c-0.1,7.1-1.5,13.1-4.4,18.1
		c-3.6,6.6-13.1,10.2-28.7,10.8l-4-1l-0.9-4.8L381.3,149.2z M392.3,154.7l-0.3,30.7c6,0.2,10.2-1,12.6-3.5c2.4-2.5,3.6-6.4,3.8-11.7
		c0.2-5.2-0.7-9.2-2.5-11.8C404.1,155.8,399.6,154.5,392.3,154.7z"/>
	<path class="st0" d="M427.1,143.1c3.5-1,7.3-0.9,11.4,0.1l-2.3,51.3c-4.7,1.5-8.7,1.5-12-0.1L427.1,143.1z M440,128.9l-11.4,7.9
		c0.1,2.5,1.2,4.2,3.1,5.1L443,134C442.5,132.1,441.5,130.4,440,128.9z"/>
	<path class="st0" d="M471.1,140.8l15.7,49.6c-3.1,2.2-7.2,2.9-12.3,2.1l-2.8-9.2l-12.8,2.1l-2.9,9.5c-5.1,0.9-9,0.3-11.6-1.8
		l16.4-51.5C464.3,139.2,467.8,138.9,471.1,140.8z M465.8,157.6l-4.9,17.3l8.5-1.3L465.8,157.6z"/>
	<path class="st0" d="M496.8,180.2c1.1,0,2.1,0.2,3.1,0.8s1.8,1.4,2.5,2.5c0.6,1.1,0.9,2.3,1,3.5c0.5,1.9-1,6.6-4.3,14.2l-4.8-1.1
		l0.3-5.8c-1.3-1.2-2.3-2.3-2.9-3.4c-0.6-1.1-0.9-2.2-1-3.4c0-1.2,0.2-2.4,0.7-3.5c0.5-1.1,1.3-2,2.3-2.7
		C494.7,180.6,495.7,180.3,496.8,180.2z"/>
	<g>
		<defs>
			<polyline id="SVGID_1_" points="0,0 900,0 900,1080 0,1080 0,0 			"/>
		</defs>
		<clipPath id="SVGID_2_">
			<use xlink:href="#SVGID_1_"  style="overflow:visible;"/>
		</clipPath>
		<path class="st2" d="M0,860.6v7.4l91.6,20.6c0.6-3.6,1-5.7,1-5.7l0.3-1.4l-3.5-0.8c-6.6-0.5-19.7-2-26-5.8L0,860.6"/>
		<path class="st2" d="M296.3,828.2l-182.4,32.5c17.1,2,33.9,6.7,42.5,14.3c0,0,5,14.8-16.3,24.7c-3.1,1.5-6.4,2.1-9.6,2.1
			c-18.6,0-37.1-21-37.1-21s-0.1,0-0.3,0l-0.1,0.6l-0.3,1.4c0,0-0.5,2.1-1,5.7c-1.2,7.4-2.7,20.9-1.2,34.2
			c1.2,10.7,5.6,13.2,9.4,13.2c3.1,0,5.8-1.7,5.8-1.7c2.2,4.4,5.6,5.8,9,5.8c5.9,0,11.8-4.3,11.8-4.3c2.8,2.3,5.3,3.1,7.5,3.1
			c6.3,0,10.1-6.6,10.1-6.6c0.9,2.9,2.8,3.9,4.9,3.9c5.5,0,13-6.7,13-6.7c8.9-14.1,5.3-31.3,5.3-31.3l164-11.6L296.3,828.2"/>
		<path class="st2" d="M93.9,859.6c-16.9,0-30.9,2.7-33.4,7.9c-1.5,3.1-0.1,5.6,3,7.4c6.3,3.9,19.4,5.3,26,5.8
			c1.8,0.1,3.1,0.2,3.7,0.2c0.2,0,0.3,0,0.3,0s18.4,21,37.1,21c3.2,0,6.4-0.6,9.6-2.1c21.3-10,16.3-24.7,16.3-24.7
			c-8.6-7.6-25.3-12.3-42.5-14.3C107.1,860,100.3,859.6,93.9,859.6"/>
		<path class="st2" d="M448.5,625L329,812.1c2.9,4.1,27,37.9,47.1,66.5c17.5-6.2,53.8-50.1,79.8-84c-3.3-60.6-6.2-121.8-7.2-162.1
			c-0.1-2.2-0.2-3.3-0.2-3.3V625"/>
		<path class="st2" d="M328.7,811.7l-35.1,12l2.7,4.5l34.8,58.4l2.2,3.7l49.1-2.8c-2-2.9-4.2-5.9-6.3-9
			c-20.1-28.5-44.2-62.4-47.1-66.5C328.8,811.8,328.7,811.7,328.7,811.7"/>
		<path class="st2" d="M704.5,1000.4C704.5,1000.4,704.4,1000.5,704.5,1000.4c-17.4,13.7-71.2,54.2-106.3,61l-5-34.1
			c-1.6,0.1-3.2,0.1-4.9,0.2l-35.1,23l-62.7-38.3c-2.8-0.8-4.1-1.3-4.1-1.3c0-0.4-0.1-0.9-0.1-1.3l-5.3-3.2c-2.5,17-5.8,42-9,73.6
			h241.2L704.5,1000.4"/>
		<path class="st2" d="M490.4,1012.2l62.7,38.3l35.1-23c-2.4,0.1-4.9,0.1-7.4,0.1c-24.3,0-50.3-3.4-76.6-12.2
			C497.9,1014.2,493.4,1013.1,490.4,1012.2 M478,1004.6L478,1004.6l2.9,1.8l5.3,3.2c0-0.4-0.1-0.8-0.1-1.3
			C483.4,1007.2,480.7,1006,478,1004.6 M704.4,1000.5c-19,8.6-60.7,24.6-111.3,26.9l5,34.1C633.2,1054.7,687.1,1014.1,704.4,1000.5"
			/>
		<path class="st2" d="M650.6,560.4c-20,6.5-41.6,9.8-57.8,9.8c-2.8,0-5.4-0.1-7.9-0.3c-2.6-0.2-5-0.5-7.4-0.9l-0.2,13.2l27.5,20.2
			l0.1,2c6.7-0.2,10.9-1.1,10.9-1.1l1.3,2.8l2.1-6.6l30.8-18.8L650.6,560.4"/>
		<path class="st2" d="M486.1,1008.4c0,0.4,0.1,0.8,0.1,1.3c0,0.4,0.1,0.9,0.1,1.3c0,0,1.3,0.5,4.1,1.3c2.9,0.8,7.5,2,13.9,3.2
			C498.2,1013.4,492.2,1011,486.1,1008.4"/>
		<path class="st2" d="M813.8,956.5c-1.4,0.8-2.9,1.6-4.5,2.2C810.8,958.3,812.3,957.6,813.8,956.5 M799.7,617.1L799.7,617.1
			c0,0-7.9,12.4-17.1,32c-13.8,29.9-30.7,77.3-28.2,127.3l0,0l0,0l-0.1,0.4l11.7,98.5l12.8,5.1c0,0-0.2,1.7-0.5,4.5
			c17.4,8.6,36,20.5,52,36.7c0,0,0.1,0.9,0,2.4C848.9,849.3,799.7,617.1,799.7,617.1"/>
		<polyline class="st2" points="619.3,599.6 617.1,606.3 618.5,609.1 622.3,605.9 619.3,599.6 		"/>
		<path class="st2" d="M604.8,602.5L604.8,602.5l-1.5,2.1c0.5,0,1.1,0,1.6,0L604.8,602.5"/>
		<path class="st2" d="M565.6,573.7l-13,19c2.3-0.1,4.6-0.1,7-0.2c9.4,2.9,17.3,9.6,23.3,16.3l3.8-5.3c5.5,0.9,10.5,1.1,14.8,1.1
			c0.6,0,1.3,0,1.9,0l1.5-2.1l-27.5-20.2L565.6,573.7"/>
		<path class="st2" d="M664.8,571.9l-14.7,8.9l-30.8,18.8l3,6.2l18.7-16.4c12.3,0.4,24,1.1,34.9,1.8L664.8,571.9"/>
		<path class="st2" d="M755.8,398.8c2.5,5.9,2.7,13.3,1.1,21.1c3.6,15.1-10.4,42.4-29.1,42.4c-1.5,0-3-0.2-4.6-0.6
			c-3.5,1.2-7.2,1.8-11,1.8c-0.2,0-0.4,0-0.6,0c-0.3,2.8-0.6,5.6-0.8,8.2c4,1.4,7.9,2,11.7,2c36.8,0,60.5-60.4,35.5-74
			C757.2,399.4,756.5,399.1,755.8,398.8"/>
		<path class="st2" d="M756.9,419.9c-3.7,17.3-16.5,36-33.7,41.9c1.6,0.4,3.1,0.6,4.6,0.6C746.5,462.3,760.5,435,756.9,419.9"/>
		<path class="st2" d="M597.4,386.5c-1.1,0.5-2.3,1.1-3.6,1.9c-0.1,1-0.3,2-0.5,3C594.7,389.6,596.1,388,597.4,386.5 M599.5,503.4
			c-1.8,0-3.7-0.1-5.6-0.2c-42.8-2.5-45.9-33.5-45.9-33.5l107.8,8.9C655.8,478.7,638.4,503.4,599.5,503.4 M606.4,385.7l-9.9,68.4
			c0,0,0,0-30.6-11.3c1.4-6.2,3.5-12.3,6.2-18.1c-1.4,1-2.9,1.8-4.5,2.6c-5.4,2.8-11.4,4.4-17.6,4.5c-0.3,0-0.6,0-0.9,0c0,0,0,0,0,0
			c-6.3,0-12.3-1.5-17.8-4.1c-2-1-4-2.1-5.9-3.4c-8.4,39.5-14,74.6-10.5,84.9c7.3,21.3,18.1,53.3,62.6,60c2.4,0.4,4.8,0.6,7.4,0.9
			c2.4,0.2,5.1,0.3,7.9,0.3c16.2,0,37.8-3.3,57.8-9.8c27.1-8.8,51.2-23.6,55.3-44c0.5-2.6,2.5-20.8,4.9-44.6
			c0.3-2.7,0.6-5.4,0.8-8.2c-4.3-0.1-8.8-1-13.5-2.9c-0.3,1.5-0.6,3-0.9,4.4c-5-13.9-0.8-30.4,5.4-45.5c0.6-4.3,1.2-8.9,1.8-13.5
			c-1.3,5-3.2,9.7-5.6,14c-4.7,8.3-11.4,14.9-19.5,19.1c-5.4,2.8-11.4,4.4-17.6,4.5c-0.3,0-0.6,0-0.9,0c0,0,0,0,0,0
			c-6.3,0-12.3-1.5-17.8-4.1c-5.5-2.6-10.4-6.4-14.5-11.1c-8.2-9.3-13.4-22.1-13.7-36.3c0-0.2,0-0.4,0-0.7c-0.3-0.4-0.7-0.9-1.2-1.4
			c-1.2-1.3-3.1-2.9-5.3-3.8C607.6,386,607,385.8,606.4,385.7 M676.9,300.5c-10.2,0-23.3,1.7-38.7,7.3
			c-16.9,6.1-38.2,10.8-58.3,10.8c-10,0-19.6-1.2-28.4-3.9c-1,3.7-2,7.8-3.1,12c6.3,0,12.3,1.5,17.7,4.1c5.5,2.6,10.4,6.4,14.5,11.1
			c8.2,9.3,13.4,22.1,13.7,36.3l-4,0.1l0,0l4-0.1c0,0.3,0,0.6,0,0.9c0.3-0.1,0.6-0.2,0.9-0.4c2.7-1,5.4-1.5,7.8-1.5c0,0,0,0,0,0
			c0,0,0,0,0,0c0.9,0,1.8,0.1,2.7,0.2c1.2-1.2,1.9-1.9,1.9-1.9l0,0l0,0l-0.3,2.2c1.4,0.3,2.7,0.8,3.9,1.3c1.5,0.7,2.9,1.5,4,2.3
			c1.1-6.9,3.4-13.4,6.7-19.1c4.7-8.3,11.4-14.9,19.5-19.1c5.4-2.8,11.4-4.4,17.6-4.5c0.3,0,0.6,0,0.9,0c0,0,0,0,0,0
			c6.3,0,12.3,1.5,17.8,4.1c5.5,2.6,10.4,6.4,14.5,11.1c8.2,9.3,13.4,22.1,13.7,36.3l-4,0.1l0,0l4-0.1c0,0.5,0,0.9,0,1.4
			c0,0.4,0,0.8,0,1.2c2.2-16.6,4.2-30.4,4.2-30.4s-22.2-13.3-7.3-57.3C703,305.1,693.7,300.5,676.9,300.5"/>
		<path class="st2" d="M548.1,469.8c0,0,3,31,45.9,33.5c1.9,0.1,3.8,0.2,5.6,0.2c38.9,0,56.3-24.7,56.3-24.7L548.1,469.8"/>
		<path class="st2" d="M523,214c-1.8,4-3.1,7.9-4.1,11.7l4.1-0.1C521.9,218.2,523,214,523,214 M576.3,172
			c-42.2,0-51.1,33.3-51.4,53.6l5.8-0.1l-1.2,50.4c6.2,8.8,12.4,13.7,12.4,13.7c-4.9-1.7-9-4.7-12.6-8.3l-0.5,19.9
			c6.2,6.3,14,10.7,22.7,13.4c8.7,2.7,18.4,3.9,28.4,3.9c20.1,0,41.3-4.7,58.3-10.8c15.4-5.5,28.4-7.3,38.7-7.3
			c16.8,0,26.1,4.6,26.1,4.6c-14.9,44,7.3,57.3,7.3,57.3s-1.9,13.8-4.2,30.4c0,0.2,0,0.3,0,0.5l10.4-0.2c5.1-3.8,11-6.6,17.4-6.9
			c8.4-19,18.6-39.5,32.7-68.1c26.1-53.1-28.4-63.4-28.4-63.4c-9.3-48.2-42.4-59.2-76.5-59.2c-14.3,0-28.8,1.9-41.7,3.9
			c-13,1.9-24.5,3.9-32.9,3.9c-6.7,0-11.3-1.2-13.2-4.7c-10.7-20.2,4.5-25.8,12.2-25.8c0.4,0,0.8,0,1.2,0.1
			C583.5,172.2,579.8,172,576.3,172"/>
		<path class="st3" d="M514.1,255.6c-0.7,21.1,5.1,35.8,14.7,45.7l0.5-19.9C518.8,270.8,514.1,255.6,514.1,255.6 M530.7,225.5
			l-5.8,0.1c-0.1,4.6,0.3,8.5,0.8,11.1c-1.5-4.2-2.3-8-2.8-11.1l-4.1,0.1c-5.3,21.5,2.6,39,10.6,50.3L530.7,225.5"/>
		<path class="st2" d="M711.1,401.7l-5.8,0.1c-0.3,1.5-0.6,3-0.9,4.4c-0.6,4.6-1.2,9.1-1.8,13.5
			C705.3,413.3,708.3,407.2,711.1,401.7"/>
		<path class="st2" d="M647.2,403.3c-0.1-1.3-0.1-2.7,0-4c0.1-1.3,0.2-2.7,0.4-4c0.4-2.6,1.1-5.3,2-7.9c1-2.6,2.3-5.1,4.2-7.5
			c1-1.2,2.1-2.3,3.6-3.2c1.4-0.9,3.2-1.6,5.1-1.8c0.4,0,0.7-0.1,1.1-0.1c1.5,0,3.1,0.3,4.5,1c1.7,0.9,3.1,2.2,4.1,3.5
			c1,1.4,1.6,2.8,2.1,4.2c0.5,1.4,0.8,2.8,1.1,4.2c0.5,2.8,0.5,5.5,0.4,8.2c-0.1,1.3-0.2,2.7-0.5,4c-0.2,1.3-0.5,2.6-0.9,3.9l-2-7.6
			c-0.7-2.5-1.4-4.9-2.2-7.1c-0.8-2.2-1.9-4.3-3.1-5.7c-0.6-0.7-1.2-1.2-1.8-1.4c-0.4-0.2-0.9-0.3-1.4-0.3c-0.2,0-0.4,0-0.5,0
			c-1.4,0.1-2.9,1.1-4.4,2.6c-1.5,1.5-2.9,3.5-4.2,5.5C651.9,394,649.7,398.6,647.2,403.3 M660.2,346.5c-0.2,0-0.5,0-0.7,0
			c-5.1,0.1-9.8,1.4-14.2,3.6c-4.4,2.2-8.3,5.4-11.7,9.4c-6.7,8-10.9,19-10.9,31.2c0,0.4,0,0.8,0,1.2c0.2,9.3,2.8,17.8,7,24.8
			c4.2,7,10.1,12.5,16.7,15.7c4.5,2.1,9.3,3.3,14.3,3.3c0.3,0,0.5,0,0.8,0c5.1-0.1,9.8-1.4,14.2-3.6c4.4-2.2,8.3-5.4,11.7-9.4
			c6.7-8,10.9-19,10.9-31.2c0-0.4,0-0.8,0-1.2l0,0c-0.2-9.3-2.8-17.8-7-24.8c-4.2-7-10.1-12.5-16.7-15.7
			C670.1,347.7,665.2,346.5,660.2,346.5"/>
		<path class="st2" d="M660.7,435.8c-5.1,0-9.9-1.2-14.3-3.3c-6.7-3.2-12.5-8.7-16.7-15.7c-4.2-7-6.8-15.5-7-24.8c0-0.4,0-0.8,0-1.2
			c0-12.2,4.2-23.3,10.9-31.2c3.3-4,7.3-7.2,11.7-9.4c4.4-2.2,9.2-3.5,14.2-3.6c0.3,0,0.5,0,0.7,0c5.1,0,9.9,1.2,14.3,3.3
			c6.7,3.2,12.5,8.7,16.7,15.7c4.2,7,6.8,15.5,7,24.8l0,0c0,0.4,0,0.8,0,1.2c0,12.2-4.2,23.2-10.9,31.2c-3.3,4-7.3,7.2-11.7,9.4
			c-4.4,2.2-9.2,3.5-14.2,3.6C661.2,435.8,661,435.8,660.7,435.8 M660.2,338.6C660.2,338.6,660.2,338.6,660.2,338.6
			c-0.3,0-0.6,0-0.9,0c-6.3,0.1-12.3,1.7-17.6,4.5c-8.1,4.1-14.8,10.8-19.5,19.1c-3.3,5.7-5.6,12.2-6.7,19.1
			c0.7,0.5,1.3,0.9,1.8,1.4c3.1,2.7,4.6,5.2,4.8,5.4l-4.9,3l-1.9,1.2l0,0l-0.1-0.1c-0.1-0.1-0.2-0.3-0.3-0.5c0-0.1-0.1-0.1-0.2-0.2
			c0,0.2,0,0.4,0,0.7c0.3,14.2,5.5,27,13.7,36.3c4.1,4.7,9,8.5,14.5,11.1c5.5,2.6,11.5,4.1,17.8,4.1c0,0,0,0,0,0c0.3,0,0.6,0,0.9,0
			c6.3-0.1,12.3-1.7,17.6-4.5c8.1-4.1,14.8-10.8,19.5-19.1c2.4-4.3,4.3-9,5.6-14c0.4-1.5,0.7-2.9,0.9-4.4l-3.4,0.1l-0.1-8.5l4.3-0.1
			c0-0.2,0-0.3,0-0.5c0-0.4,0-0.8,0-1.2c0-0.5,0-0.9,0-1.4l-4,0.1l4-0.1c-0.3-14.2-5.5-27-13.7-36.3c-4.1-4.7-9-8.5-14.5-11.1
			C672.5,340.1,666.5,338.6,660.2,338.6"/>
		<path class="st2" d="M535.4,391.3c-0.1-1.3-0.1-2.7,0-4c0.1-1.3,0.2-2.7,0.4-4c0.4-2.6,1.1-5.3,2-7.9c1-2.6,2.3-5.1,4.2-7.5
			c1-1.2,2.1-2.3,3.6-3.2c1.4-0.9,3.2-1.6,5.1-1.8c0.4,0,0.7-0.1,1.1-0.1c1.5,0,3.1,0.3,4.5,1c1.7,0.9,3.1,2.2,4.1,3.5
			c1,1.4,1.6,2.8,2.1,4.2c0.5,1.4,0.8,2.8,1.1,4.2c0.5,2.8,0.5,5.5,0.4,8.2c-0.1,1.3-0.2,2.7-0.5,4c-0.2,1.3-0.5,2.6-0.9,3.9l-2-7.6
			c-0.7-2.5-1.4-4.9-2.2-7.1c-0.8-2.2-1.9-4.3-3.1-5.7c-0.6-0.7-1.2-1.2-1.8-1.4c-0.4-0.2-0.9-0.3-1.4-0.3c-0.2,0-0.4,0-0.5,0
			c-1.4,0.1-2.9,1.1-4.4,2.6c-1.5,1.5-2.9,3.5-4.2,5.5C540.2,382,538,386.6,535.4,391.3 M548.4,334.6c-0.2,0-0.5,0-0.8,0
			c-5.1,0.1-9.8,1.4-14.2,3.6c-4.4,2.2-8.3,5.4-11.7,9.4c-6.7,8-10.9,19-10.9,31.2c0,0.4,0,0.8,0,1.2c0.2,9.3,2.8,17.8,7,24.8
			c4.2,7,10.1,12.5,16.7,15.7c4.5,2.2,9.3,3.3,14.3,3.3c0.3,0,0.5,0,0.7,0c5.1-0.1,9.8-1.4,14.2-3.6c4.4-2.2,8.3-5.4,11.7-9.4
			c6.7-8,10.9-19,10.9-31.2c0-0.4,0-0.8,0-1.2l0,0c-0.2-9.3-2.8-17.8-7-24.8c-4.2-7-10.1-12.5-16.7-15.7
			C558.3,335.7,553.5,334.6,548.4,334.6"/>
		<path class="st2" d="M549,423.8c-5.1,0-9.9-1.2-14.3-3.3c-6.7-3.2-12.5-8.7-16.7-15.7c-4.2-7-6.8-15.5-7-24.8c0-0.4,0-0.8,0-1.2
			c0-12.2,4.2-23.2,10.9-31.2c3.3-4,7.3-7.2,11.7-9.4c4.4-2.2,9.2-3.5,14.2-3.6c0.3,0,0.5,0,0.8,0c5.1,0,9.9,1.2,14.3,3.3
			c6.7,3.2,12.5,8.7,16.7,15.7c4.2,7,6.8,15.5,7,24.8l0,0c0,0.4,0,0.8,0,1.2c0,12.2-4.2,23.2-10.9,31.2c-3.3,4-7.3,7.2-11.7,9.4
			c-4.4,2.2-9.2,3.5-14.2,3.6C549.5,423.8,549.2,423.8,549,423.8 M548.4,326.6C548.4,326.6,548.4,326.6,548.4,326.6
			c-0.3,0-0.6,0-0.9,0c-6.3,0.1-12.3,1.7-17.6,4.5c-8.1,4.1-14.8,10.8-19.5,19.1c-4.7,8.3-7.4,18.1-7.4,28.6c0,0.5,0,0.9,0,1.4
			c0.3,14.2,5.5,27,13.7,36.3c2.6,2.9,5.5,5.5,8.6,7.7c1.9,1.3,3.8,2.4,5.9,3.4c5.5,2.6,11.5,4.1,17.8,4.1c0,0,0,0,0,0
			c0.3,0,0.6,0,0.9,0c6.3-0.1,12.3-1.7,17.6-4.5c1.5-0.8,3-1.7,4.5-2.6c5.9-13,14.2-24.6,21.3-33.3c0.2-1,0.4-2,0.5-3
			c-0.7,0.4-1.4,0.9-2.1,1.5l-4.8-6.4c2.6-1.9,5.1-3.4,7.6-4.4c0-0.3,0-0.6,0-0.9l-4,0.1l4-0.1c-0.3-14.2-5.5-27-13.7-36.3
			c-4.1-4.7-9-8.5-14.5-11.1C560.8,328.1,554.8,326.6,548.4,326.6C548.5,326.6,548.5,326.6,548.4,326.6"/>
		<path class="st2" d="M603.2,385.2c-1.5,0-3.2,0.3-5.1,1c-0.2,0.1-0.5,0.2-0.7,0.3c-1.3,1.5-2.7,3.1-4.1,4.9
			c-7.1,8.7-15.4,20.3-21.3,33.3c-2.6,5.8-4.8,11.9-6.2,18.1c30.6,11.3,30.6,11.3,30.6,11.3l9.9-68.4
			C605.4,385.4,604.3,385.2,603.2,385.2 M607.8,375.6c0,0-0.7,0.7-1.9,1.9c0.6,0.1,1.1,0.2,1.6,0.3L607.8,375.6"/>
		<path class="st2" d="M603.2,377.3C603.2,377.3,603.2,377.3,603.2,377.3C603.2,377.3,603.2,377.3,603.2,377.3
			c-2.5,0-5.1,0.4-7.8,1.5c-0.3,0.1-0.6,0.2-0.9,0.4c-2.4,1-5,2.4-7.6,4.4l4.8,6.4c0.7-0.5,1.4-1,2.1-1.5c1.3-0.8,2.5-1.4,3.6-1.9
			c0.2-0.1,0.5-0.2,0.7-0.3c1.9-0.7,3.6-1,5.1-1c1.1,0,2.2,0.2,3.2,0.4c0.6,0.2,1.2,0.4,1.8,0.6c2.2,1,4,2.5,5.3,3.8
			c0.5,0.6,0.9,1.1,1.2,1.4c0.1,0.1,0.1,0.1,0.2,0.2c0.1,0.2,0.3,0.4,0.3,0.5l0.1,0.1l0,0l1.9-1.2l4.9-3c-0.1-0.2-1.7-2.8-4.8-5.4
			c-0.6-0.5-1.2-0.9-1.8-1.4c-1.2-0.8-2.5-1.6-4-2.3c-1.2-0.5-2.5-1-3.9-1.3c-0.5-0.1-1.1-0.2-1.6-0.3
			C605,377.3,604.1,377.3,603.2,377.3"/>
		<path class="st2" d="M716.6,393.1l-10.4,0.2l-4.3,0.1l0.1,8.5l3.4-0.1l5.8-0.1c1.3-2.5,2.5-4.9,3.7-7.2
			C715.4,394,716,393.5,716.6,393.1"/>
		<path class="st2" d="M663.5,374.8c-0.4,0-0.7,0-1.1,0.1c-1.9,0.2-3.6,0.9-5.1,1.8c-1.4,1-2.6,2.1-3.6,3.2
			c-1.9,2.4-3.2,4.9-4.2,7.5c-1,2.6-1.6,5.2-2,7.9c-0.2,1.3-0.4,2.6-0.4,4c-0.1,1.3-0.1,2.7,0,4c2.5-4.7,4.8-9.3,7.4-13.5
			c1.3-2.1,2.7-4,4.2-5.5c1.5-1.5,3.1-2.4,4.4-2.6c0.2,0,0.4,0,0.5,0c0.5,0,1,0.1,1.4,0.3c0.6,0.2,1.2,0.7,1.8,1.4
			c1.2,1.4,2.3,3.5,3.1,5.7c0.9,2.2,1.6,4.6,2.2,7.1l2,7.6c0.4-1.3,0.7-2.6,0.9-3.9c0.2-1.3,0.4-2.6,0.5-4c0.2-2.7,0.1-5.4-0.4-8.2
			c-0.2-1.4-0.6-2.8-1.1-4.2c-0.5-1.4-1.2-2.8-2.1-4.2c-1-1.4-2.3-2.7-4.1-3.5C666.6,375.1,665,374.8,663.5,374.8"/>
		<path class="st2" d="M551.8,362.8c-0.4,0-0.7,0-1.1,0.1c-1.9,0.2-3.6,0.9-5.1,1.8c-1.4,1-2.6,2.1-3.6,3.2
			c-1.9,2.4-3.2,4.9-4.2,7.5c-1,2.6-1.6,5.2-2,7.9c-0.2,1.3-0.4,2.6-0.4,4c-0.1,1.3-0.1,2.7,0,4c2.5-4.7,4.8-9.3,7.4-13.5
			c1.3-2.1,2.7-4,4.2-5.5c1.5-1.5,3.1-2.4,4.4-2.6c0.2,0,0.4,0,0.5,0c0.5,0,1,0.1,1.4,0.3c0.6,0.2,1.2,0.7,1.8,1.4
			c1.2,1.4,2.3,3.5,3.1,5.7c0.9,2.2,1.6,4.6,2.2,7.1l2,7.6c0.4-1.3,0.7-2.6,0.9-3.9c0.2-1.3,0.4-2.6,0.5-4c0.2-2.7,0.1-5.4-0.4-8.2
			c-0.2-1.4-0.6-2.8-1.1-4.2c-0.5-1.4-1.2-2.8-2.1-4.2c-1-1.4-2.3-2.7-4.1-3.5C554.9,363.1,553.3,362.8,551.8,362.8"/>
		<path class="st2" d="M713.9,936.1l-8.7,48.7c0,0-59,32.6-134.6,32.6c-24.3,0-50.3-3.4-76.6-12.2c-8.5-1.6-13.8-3.1-16.3-3.9
			c0.1,2.2,0.2,3.4,0.2,3.4l0,0c2.7,1.3,5.4,2.6,8.1,3.7c6.1,2.7,12.2,5,18.2,7c26.3,8.9,52.3,12.2,76.6,12.2c2.5,0,4.9,0,7.4-0.1
			c1.6,0,3.3-0.1,4.9-0.2c50.6-2.3,92.3-18.3,111.3-26.9c0,0,0,0,0,0c7.1-3.2,11-5.4,11-5.4l8.7-49.2l-7.4-3.6l0.8-4.5
			C716.3,937.2,715.1,936.6,713.9,936.1 M743.5,746.6c-0.2,6.5,0,13,0.6,19.5l-17.6,98.8c1.5,0.6,3,1.2,4.4,1.8l0.9-4.8l6.8,2.7
			l15.6-87.7l0.1-0.4l0,0L751,792C751,792,744,776,743.5,746.6 M799.7,617.1c0,0-7.9,12.1-17.1,32
			C791.8,629.5,799.7,617.1,799.7,617.1L799.7,617.1L799.7,617.1L799.7,617.1 M786.2,613l-0.1,0.2l13.6,3.8
			C795.4,615.6,790.9,614.3,786.2,613"/>
		<path class="st2" d="M786.1,613.3l-19.5,38.3c-11.1,26-22.2,60.4-23.1,95C744,776,751,792,751,792l3.4-15.7
			c-2.5-50,14.4-97.4,28.2-127.3c9.2-19.9,17.1-32,17.1-32l0,0L786.1,613.3"/>
		<path class="st2" d="M713.9,935.8l-0.1,0.3c1.2,0.5,2.4,1.1,3.8,1.7l0.1-0.3C716.5,936.9,715.2,936.3,713.9,935.8 M778.3,884.9
			c-1.5,12.6-6.4,48.7-14,71.7c11.3,3.6,20.6,5.1,28.4,5.1c6.6,0,12.1-1.1,16.6-2.9c1.6-0.7,3.1-1.4,4.5-2.2
			c14.6-8.8,16.4-26.2,16.5-32.5c0-1.5,0-2.4,0-2.4C814.3,905.4,795.7,893.5,778.3,884.9"/>
		<path class="st2" d="M726.6,864.8l-12.6,70.9c1.3,0.6,2.5,1.2,3.8,1.7l13.3-70.9C729.5,866,728,865.4,726.6,864.8"/>
		<path class="st2" d="M731.9,861.8l-0.9,4.8l-13.3,70.9l-0.1,0.3l-0.8,4.5l7.4,3.6l37.3,18c0.9-2.2,1.8-4.6,2.7-7.2
			c7.7-23.1,12.5-59.1,14-71.7c0.3-2.9,0.5-4.5,0.5-4.5l-12.8-5.1l-27.3-10.8L731.9,861.8"/>
		
			<rect x="-42.1" y="668" transform="matrix(0.2196 -0.9756 0.9756 0.2196 -857.0323 624.0281)" class="st4" width="7.2" height="359.3"/>
		<path class="st5" d="M362.7,873.4L156.9,888c0,0,3.5,17.2-5.3,31.3c0,0-14.7,13-17.9,2.7c0,0-7.1,12.2-17.6,3.5
			c0,0-14.7,10.5-20.8-1.5c0,0-13,8.2-15.2-11.5c-2.2-19.7,2.3-39.9,2.3-39.9l4.7-19.2l257.1-45.9L362.7,873.4z"/>
		<path class="st5" d="M146.1,864.9c0,0,5,14.8-16.3,24.7c-21.3,10-46.7-18.9-46.7-18.9s-38.9-1.4-32.9-13.5
			C56.2,845.1,125.2,846.4,146.1,864.9z"/>
		<path class="st6" d="M448.5,598.7L311.1,813.9c0,0,42.5,58.6,54.6,54.5c28.9-9.9,109.7-124.1,109.7-124.1L448.5,598.7z"/>
		<path class="st7" d="M283.4,813.4l35.1-12c0,0,31.5,44.2,53.7,75.8l-49.1,2.8L283.4,813.4z"/>
		<path class="st8" d="M766.8,1660.1l-76.5-705.8l-4.1,0.3c-30.6-60.3-148.5-5.4-194.6,19l-17.1-2.4c-2.4,13.4-57.5,331.3,8.4,677
			c0,0,37.6,11.6,69.4-10.3c-26.3-151.2-24.5-404.6-6.2-527.2c26.5,4.1,37.8,0.7,67.9-1.3c0,0,64.2,495.1,77.4,557.8
			C731.9,1682.8,766.8,1660.1,766.8,1660.1z"/>
		<path class="st6" d="M699.8,985.7c0,0-69.6,57.3-111.9,65.5l-5.5-36.8l-39.6,25.9l-75.2-45.9l79.3-98.7L699.8,985.7z"/>
		<polygon class="st9" points="567.6,536.3 565.9,645.3 638.8,618.3 641.3,506.1 		"/>
		<path class="st6" d="M448.5,629.2c0,0,17.6,257.8,27.5,371.6c0,0,33.6,12.3,119.9,12c61-0.2,56.5-137,56.5-137l136.9-268.9
			c0,0-55.6-14-148.5-17.3l-44.6,39.1c0,0-13.9-28.9-36.8-36.1c-35.1,1.2-70,0.9-111.1,6.2V629.2"/>
		<path class="st6" d="M762.5,921.6l-35.5-297.4l62.4-17.4c0,0,49.3,232.3,30.6,307S762.5,921.6,762.5,921.6z"/>
		<polygon class="st10" points="596.4,628.6 609,589.4 633.4,601.9 		"/>
		<polygon class="st10" points="594.5,592.3 596.4,628.6 577.1,602.2 		"/>
		<polygon class="st7" points="538.7,587.8 567.5,630.7 594.5,592.3 555.4,563.5 		"/>
		<polygon class="st7" points="669.1,587.1 628.9,630.7 609,589.4 654.5,561.7 		"/>
		<path class="st11" d="M615.8,603.5c0,0-12.8,2.6-29.1,0l-7.9,11.2l8,22.9l-55,277.7l29.4,37.7l39-30.9l6.7-281.5l13.5-27.7
			L615.8,603.5"/>
		<path class="st5" d="M697.2,465.1c-8.1-22.4,7.7-51.3,17.6-70.7c8.9-7.2,20.3-11.8,32.8-4.9c28,15.3-5.2,89.5-49.6,71.1
			C697.8,462.2,697.5,463.6,697.2,465.1"/>
		<path class="st12" d="M733.7,399.4c-12.5,0-22.5,17.2-24.2,20.3c10.2,8.4,10.2,24.2,1.6,31.2c2.2,0.8,4.4,1.1,6.5,1.1
			c23.1,0,39-41.6,23.5-50.5C738.5,400,736.1,399.4,733.7,399.4"/>
		<path class="st5" d="M713.8,326c-4.7-29.4,23.5-35.7-79.6-57.2c-35.8-7.4-84.5,4.1-84.5,4.1s-54.4,198.8-45.1,226
			c7.7,22.5,19.3,56.7,70.1,60.8c35.7,2.9,113.3-15.4,120.9-53.6C697.3,497.5,713.8,326,713.8,326z"/>
		<path class="st6" d="M537.8,459.5l107.7,8.9c0,0-19,27.1-61.9,24.6C540.9,490.5,537.8,459.5,537.8,459.5z"/>
		<path class="st13" d="M690.2,427c2.7-23.6,9.9-74.9,9.9-74.9s-22.2-13.3-7.3-57.3c0,0-24.1-12-64.8,2.6
			c-46.8,16.8-126.5,23.4-124.1-52.1c0,0,8.4,27.2,27.8,34c0,0-39.1-30.9-18.9-75.6c0,0-2.1,8.6,2.8,22.8c-3-15.6-0.9-71.6,61.7-64
			c-7.1-0.6-24.7,4.5-13.4,25.8c11.8,22.3,144-48.6,164.2,56.2c0,0,54.5,10.3,28.4,63.4c-26.8,54.6-39.8,80-52.6,120.9
			C698.4,427.1,696.1,426.7,690.2,427z"/>
		<path class="st14" d="M692,380c0.6,26.8-17.6,49-40.7,49.6c-23.1,0.5-42.3-20.8-42.9-47.6c-0.6-26.8,17.6-49,40.7-49.6
			C672.2,331.8,691.4,353.1,692,380z"/>
		<path class="st4" d="M692,380l-4,0.1c0,0.4,0,0.8,0,1.2c0,12.2-4.2,23.2-10.9,31.2c-3.3,4-7.3,7.2-11.7,9.4
			c-4.4,2.2-9.2,3.5-14.2,3.6c-0.3,0-0.5,0-0.7,0c-5.1,0-9.9-1.2-14.3-3.3c-6.7-3.2-12.5-8.7-16.7-15.7c-4.2-7-6.8-15.5-7-24.8
			c0-0.4,0-0.8,0-1.2c0-12.2,4.2-23.3,10.9-31.2c3.3-4,7.3-7.2,11.7-9.4c4.4-2.2,9.2-3.5,14.2-3.6c0.3,0,0.5,0,0.8,0
			c5.1,0,9.9,1.2,14.3,3.3c6.7,3.2,12.5,8.7,16.7,15.7c4.2,7,6.8,15.5,7,24.8L692,380l4-0.1c-0.3-14.2-5.5-27-13.7-36.3
			c-4.1-4.7-9-8.5-14.5-11.1c-5.5-2.6-11.5-4.1-17.8-4.1c-0.3,0-0.6,0-0.9,0c-6.3,0.1-12.3,1.7-17.6,4.5
			c-8.1,4.1-14.8,10.8-19.5,19.1c-4.7,8.3-7.4,18.1-7.4,28.6c0,0.5,0,0.9,0,1.4c0.3,14.2,5.5,27,13.7,36.3c4.1,4.7,9,8.5,14.5,11.1
			c5.5,2.6,11.5,4.1,17.8,4.1c0.3,0,0.6,0,0.9,0c6.3-0.1,12.3-1.7,17.6-4.5c8.1-4.1,14.8-10.8,19.5-19.1c4.7-8.3,7.4-18.1,7.4-28.6
			c0-0.5,0-0.9,0-1.4L692,380z"/>
		<path class="st14" d="M580.2,368c0.6,26.8-17.6,49-40.7,49.6c-23.1,0.5-42.3-20.8-42.9-47.6c-0.6-26.8,17.6-49,40.7-49.6
			C560.4,319.8,579.6,341.1,580.2,368z"/>
		<path class="st4" d="M580.2,368l-4,0.1c0,0.4,0,0.8,0,1.2c0,12.2-4.2,23.2-10.9,31.2c-3.3,4-7.3,7.2-11.7,9.4
			c-4.4,2.2-9.2,3.5-14.2,3.6c-0.3,0-0.5,0-0.7,0c-5.1,0-9.9-1.2-14.3-3.3c-6.7-3.2-12.5-8.7-16.7-15.7c-4.2-7-6.8-15.5-7-24.8
			c0-0.4,0-0.8,0-1.2c0-12.2,4.2-23.2,10.9-31.2c3.3-4,7.3-7.2,11.7-9.4c4.4-2.2,9.2-3.5,14.2-3.6c0.3,0,0.5,0,0.7,0
			c5.1,0,9.9,1.2,14.3,3.3c6.7,3.2,12.5,8.7,16.7,15.7c4.2,7,6.8,15.5,7,24.8L580.2,368l4-0.1c-0.3-14.2-5.5-27-13.7-36.3
			c-4.1-4.7-9-8.5-14.5-11.1c-5.5-2.6-11.5-4.1-17.8-4.1c-0.3,0-0.6,0-0.9,0c-6.3,0.1-12.3,1.7-17.6,4.5
			c-8.1,4.1-14.8,10.8-19.5,19.1c-4.7,8.3-7.4,18.1-7.4,28.6c0,0.5,0,0.9,0,1.4c0.3,14.2,5.5,27,13.7,36.3c4.1,4.7,9,8.5,14.5,11.1
			c5.5,2.6,11.5,4.1,17.8,4.1c0.3,0,0.6,0,0.9,0c6.3-0.1,12.3-1.7,17.6-4.5c8.1-4.1,14.8-10.8,19.5-19.1c4.7-8.3,7.4-18.1,7.4-28.6
			c0-0.5,0-0.9,0-1.4L580.2,368z"/>
		<path class="st15" d="M597.6,365.3c0,0-34.1,31.5-42,67.2c30.6,11.3,30.6,11.3,30.6,11.3L597.6,365.3z"/>
		<path class="st4" d="M611.8,377.9c-0.1-0.2-1.7-2.8-4.8-5.4c-1.5-1.3-3.5-2.7-5.8-3.7c-2.3-1-5.1-1.7-8.2-1.7
			c-2.5,0-5.1,0.4-7.8,1.5c-2.7,1-5.6,2.6-8.5,4.7l4.8,6.4c2.4-1.8,4.5-2.9,6.4-3.6c1.9-0.7,3.6-1,5.1-1c1.9,0,3.5,0.4,5,1.1
			c2.2,1,4,2.5,5.3,3.8c0.6,0.7,1.1,1.2,1.4,1.7c0.1,0.2,0.3,0.4,0.3,0.5l0.1,0.1l0,0l1.9-1.2l-1.9,1.1l0,0l1.9-1.2l-1.9,1.1
			L611.8,377.9L611.8,377.9z"/>
		<polyline class="st4" points="732.3,382.4 691.6,383 691.7,391.6 732.5,390.9 		"/>
		<path class="st16" d="M664,393.5l-2-7.6c-0.7-2.5-1.4-4.9-2.2-7.1c-0.8-2.2-1.9-4.3-3.1-5.7c-0.6-0.7-1.2-1.2-1.8-1.4
			c-0.6-0.2-1.2-0.3-2-0.2c-1.4,0.1-2.9,1.1-4.4,2.6c-1.5,1.5-2.9,3.5-4.2,5.5c-2.6,4.2-4.8,8.8-7.4,13.5c-0.1-1.3-0.1-2.7,0-4
			c0.1-1.3,0.2-2.7,0.4-4c0.4-2.6,1.1-5.3,2-7.9c1-2.6,2.3-5.1,4.2-7.5c1-1.2,2.1-2.3,3.6-3.2c1.4-0.9,3.2-1.6,5.1-1.8
			c1.8-0.2,3.8,0.1,5.6,1c1.7,0.9,3.1,2.2,4.1,3.5c1,1.4,1.6,2.8,2.1,4.2c0.5,1.4,0.8,2.8,1.1,4.2c0.5,2.8,0.5,5.5,0.4,8.2
			c-0.1,1.3-0.2,2.7-0.5,4C664.7,390.9,664.4,392.2,664,393.5z"/>
		<path class="st16" d="M552.2,381.5l-2-7.6c-0.7-2.5-1.4-4.9-2.2-7.1c-0.8-2.2-1.9-4.3-3.1-5.7c-0.6-0.7-1.2-1.2-1.8-1.4
			c-0.6-0.2-1.2-0.3-2-0.2c-1.4,0.1-2.9,1.1-4.4,2.6c-1.5,1.5-2.9,3.5-4.2,5.5c-2.6,4.2-4.8,8.8-7.4,13.5c-0.1-1.3-0.1-2.7,0-4
			c0.1-1.3,0.2-2.7,0.4-4c0.4-2.6,1.1-5.3,2-7.9c1-2.6,2.3-5.1,4.2-7.5c1-1.2,2.1-2.3,3.6-3.2c1.4-0.9,3.2-1.6,5.1-1.8
			c1.8-0.2,3.8,0.1,5.6,1c1.7,0.9,3.1,2.2,4.1,3.5c1,1.4,1.6,2.8,2.1,4.2c0.5,1.4,0.8,2.8,1.1,4.2c0.5,2.8,0.5,5.5,0.4,8.2
			c-0.1,1.3-0.2,2.7-0.5,4C552.9,378.9,552.7,380.2,552.2,381.5z"/>
		<path class="st17" d="M789.4,606.8c0,0-52.6,82.9-45.3,159.3l-38.9,218.7c0,0-120.3,66.5-237.5,9.6c0,0-21-325.8-19.2-395.7
			c50.7-10.6,76.6-6.8,76.6-6.8l65.5,112.8l92.8-114.6C683.4,590.1,748.1,592.6,789.4,606.8"/>
		<path class="st18" d="M700.5,590.8l-17.1-0.7c0,0-79.1,98.9-92.8,114.6l-65.5-112.8c0,0-9.5-1.1-17.4-0.5
			c-0.7,4.1,66.8,127.9,83.2,132.7S649.3,654.2,700.5,590.8z"/>
		<path class="st18" d="M789.4,606.8c0,0-49.4,76.1-45.3,159.3l-3.4,15.7c0,0-29.3-67.5,28-180.8L789.4,606.8z"/>
		<path class="st18" d="M462.4,596.3c0,0-9.5,143.9-9.5,150.7c0,6.8-8.7-141.8-4.3-148.3L462.4,596.3z"/>
		<path class="st6" d="M820,911.4c0,0,3.9,63.4-77.9,30.7S695,916.1,695,916.1l13.6-62.1C708.6,854.1,774.8,865.6,820,911.4z"/>
		<polyline class="st19" points="523.3,889 654.2,931.4 663.2,910.5 545.1,848.2 523.3,889 		"/>
		<path class="st6" d="M526.5,885.3l124.3,40l12.2-8.5L552.9,875C552.9,875,531.6,874.1,526.5,885.3z"/>
		<path class="st20" d="M708,804.4l-40.1,114l-119.5-36.3c0,0-18.2-5-25.1,6.9c0,0,56-166.5,62.1-178.3c6.2-11.8,26.2-5.5,26.2-5.5
			l115.7,41.8L708,804.4"/>
		<path class="st21" d="M523.3,889c0,0,56-166.5,62.1-178.3c6.2-11.8,26.2-5.5,26.2-5.5l-63.3,176.9
			C548.4,882.2,530.2,877.2,523.3,889z"/>
		<path class="st22" d="M622.9,749.2l-3,4.3l-2-0.6l9.7-13.7l2.4,0.7l0.7,16.8l-2.1-0.6l-0.2-5.3L622.9,749.2z M628.4,749.2
			l-0.2-4.8c0-1.1,0-2.1,0-3l0,0c-0.5,0.8-1,1.7-1.6,2.5l-2.8,4L628.4,749.2z M633.1,737.1l-3.7,1.8l-1.6-0.5l2.9-2L633.1,737.1z"/>
		<polygon class="st22" points="637.4,742.1 639.4,742.7 635.4,756.3 641.9,758.2 641.4,759.9 632.9,757.4 		"/>
		<path class="st22" d="M654.6,763c-1,0.1-2.9,0.1-4.9-0.5c-2.3-0.7-4-1.8-5.1-3.7c-0.9-1.7-1.2-3.9-0.5-6.3c1.4-4.5,5.5-7,10.6-5.4
			c1.8,0.5,3,1.3,3.6,1.8l-0.9,1.5c-0.7-0.6-1.6-1.2-3.2-1.7c-3.7-1.1-6.8,0.5-7.9,4.3c-1.1,3.9,0.5,6.9,4.1,7.9
			c1.3,0.4,2.2,0.5,2.7,0.4l1.3-4.6l-3.1-0.9l0.5-1.6l5,1.5L654.6,763z"/>
		<polygon class="st22" points="667.4,759.8 661.5,758 659.8,763.5 666.4,765.5 666,767.1 657.4,764.6 661.9,749.3 670.1,751.7 
			669.6,753.4 663.4,751.5 661.9,756.4 667.9,758.1 		"/>
		<path class="st22" d="M673,752.8c0.9,0.1,2.3,0.3,3.7,0.7c2,0.6,3.1,1.3,3.9,2.3c0.6,0.8,0.8,1.9,0.5,3.1
			c-0.4,1.5-1.8,2.5-3.6,2.6l0,0c1.3,0.8,2.7,2.5,2,4.8c-0.4,1.3-1.2,2.2-2.2,2.7c-1.4,0.7-3.2,0.6-5.7-0.1c-1.4-0.4-2.4-0.8-3-1.1
			L673,752.8z M670.9,766.9c0.4,0.2,0.9,0.4,1.6,0.6c2,0.6,4.1,0.4,4.8-1.8c0.6-2.1-0.9-3.5-3.1-4.1l-1.6-0.5L670.9,766.9z
			 M673.1,759.6l1.8,0.5c2.1,0.6,3.6-0.1,4.1-1.6c0.5-1.8-0.6-2.9-2.6-3.5c-0.9-0.3-1.4-0.4-1.8-0.4L673.1,759.6z"/>
		<path class="st22" d="M685.2,756.4c1.1,0.1,2.5,0.4,3.9,0.8c2.1,0.6,3.4,1.4,4,2.5c0.6,0.9,0.7,2.1,0.3,3.3c-0.6,2-2.3,3-4,3
			l0,0.1c1.1,0.8,1.4,2,1.3,3.7c-0.1,2.3-0.2,3.9-0.1,4.5l-2-0.6c-0.1-0.5-0.1-1.9,0.1-3.9c0.2-2.2-0.4-3.3-2.2-3.9l-1.9-0.5
			l-1.9,6.6l-2-0.6L685.2,756.4z M685.2,763.9l2,0.6c2.1,0.6,3.8-0.1,4.3-1.9c0.6-2-0.6-3.3-2.7-3.9c-1-0.3-1.7-0.4-2-0.4
			L685.2,763.9z"/>
		<path class="st22" d="M697,771l-3,4.3l-2-0.6l9.7-13.7l2.4,0.7l0.7,16.8l-2.1-0.6l-0.2-5.3L697,771z M702.4,771l-0.2-4.8
			c0-1.1,0-2.1,0-3l0,0c-0.5,0.8-1,1.7-1.6,2.5l-2.8,4L702.4,771z"/>
		<polyline class="st23" points="613.1,767.5 574.1,868.5 654.7,891 693.1,791 613.1,767.5 		"/>
		<path class="st5" d="M594.7,837.7c0,0,19.1-36.8-31.1-56.2c0,0-20.2-3.8-13.8,7.6l5.7,4.4c0,0-25.3,2.1-10,12.9
			c0,0-18.4,5.2-6.4,17.2c0,0-18.2,3-4.6,12.4s32.4,24,44.4,10.7C591,833.5,594.7,837.7,594.7,837.7z"/>
		<path class="st5" d="M591.3,821c0,0,18.1-43.2,9.3-46.1c-8.7-2.9-23.3,27.4-21.6,35.6C580.8,818.7,591.3,821,591.3,821z"/>
		<path class="st5" d="M742.1,906.5c1,14.3-3.4,22.2-3.2,33.3c0.1,7.9,0,0-30.7-12.2c-70.4-31.9-135.3-78.9-135.3-78.9l19.1-43
			c0,0,84.6,32.8,144.4,57C734.4,869.3,741.6,899.1,742.1,906.5z"/>
		<path class="st7" d="M721.6,851.5l47,18.6c0,0-6.1,57.1-17.3,83.5L706.6,932L721.6,851.5z"/>
		<path class="st6" d="M119,706.3c10.8,17.3,23,33.7,36.5,48.9c3.8,4.3,7.7,8.5,11.7,12.6c0.7,0.7,1.9,0.9,2.7,0.4
			c0.9-0.6,1.2-1.5,1-2.6c-2.5-17.6-5-35.1-7.4-52.7c-0.7-5-1.4-10.1-2.1-15.1c-0.5,0.9-1.1,1.9-1.6,2.8
			c29.8-7.4,59.6-14.7,89.5-22.1c8.4-2.1,16.8-4.1,25.1-6.2c-1-0.7-1.9-1.5-2.9-2.2c0,6.6,0,13.3,0,19.9c0,2.9,4.5,2.9,4.5,0
			c0-6.6,0-13.3,0-19.9c0-1.5-1.4-2.5-2.9-2.2c-29.8,7.4-59.6,14.7-89.5,22.1c-8.4,2.1-16.8,4.1-25.1,6.2c-1.3,0.3-1.8,1.6-1.6,2.8
			c2.5,17.6,5,35.1,7.4,52.7c0.7,5,1.4,10.1,2.1,15.1c1.3-0.7,2.5-1.5,3.8-2.2c-14-14.3-26.8-29.7-38.1-46.2
			c-3.3-4.7-6.4-9.5-9.4-14.4C121.4,701.5,117.4,703.8,119,706.3z"/>
		<path class="st6" d="M207.9,716.4c16.7,7.5,32.5,17,46.8,28.5c4.1,3.2,8,6.6,11.8,10.1c2.1,2,5.4-1.2,3.2-3.2
			c-13.7-12.6-29-23.5-45.4-32.3c-4.6-2.5-9.4-4.8-14.2-7c-1.1-0.5-2.4-0.3-3.1,0.8C206.5,714.3,206.8,715.9,207.9,716.4z"/>
		<path class="st6" d="M244.3,699.4c-4.3,19.3-9.9,38.3-16.6,56.8c-1.9,5.3-3.9,10.6-6,15.8c-0.5,1.1,0.5,2.5,1.6,2.8
			c1.3,0.4,2.3-0.4,2.8-1.6c7.4-18.3,13.6-37.1,18.7-56.2c1.4-5.4,2.8-10.9,4-16.4C249.3,697.8,245,696.5,244.3,699.4z"/>
	</g>
</g>
</svg>
