<?xml version="1.0" encoding="utf-8"?>
<!-- Generator: Adobe Illustrator 24.0.2, SVG Export Plug-In . SVG Version: 6.00 Build 0)  -->
<svg version="1.1" id="Capa_1" xmlns="http://www.w3.org/2000/svg" xmlns:xlink="http://www.w3.org/1999/xlink" x="0px" y="0px"
	 viewBox="0 0 350 280" style="enable-background:new 0 0 350 280;" xml:space="preserve">
<style type="text/css">
	.st0{fill:#7CE8E0;}
	.st1{clip-path:url(#SVGID_2_);fill:#FDDA4A;}
	.st2{clip-path:url(#SVGID_2_);fill:#EDEDED;}
	.st3{clip-path:url(#SVGID_2_);fill:#FFFFFF;}
	.st4{clip-path:url(#SVGID_2_);fill:#1B173C;}
	.st5{clip-path:url(#SVGID_2_);fill:#E04718;}
	.st6{clip-path:url(#SVGID_2_);fill:#EFBB95;}
	.st7{clip-path:url(#SVGID_2_);fill:#FDAC4E;}
	.st8{clip-path:url(#SVGID_2_);fill:#D18B66;}
	.st9{clip-path:url(#SVGID_2_);fill:#201C2E;}
	.st10{clip-path:url(#SVGID_2_);fill:#141C35;}
	.st11{clip-path:url(#SVGID_2_);fill:#F0C09C;}
	.st12{clip-path:url(#SVGID_2_);fill:#2B274A;}
	.st13{clip-path:url(#SVGID_2_);fill:#252C43;}
	.st14{clip-path:url(#SVGID_2_);fill:#F2C8A9;}
	.st15{clip-path:url(#SVGID_2_);fill:#464361;}
	.st16{clip-path:url(#SVGID_2_);fill:#41475B;}
	.st17{fill:#FFFFFF;}
</style>
<g>
	<polyline class="st0" points="0,0 350,0 350,280 0,280 0,0 	"/>
	<g>
		<defs>
			<polyline id="SVGID_1_" points="0,0 350,0 350,280 0,280 0,0 			"/>
		</defs>
		<clipPath id="SVGID_2_">
			<use xlink:href="#SVGID_1_"  style="overflow:visible;"/>
		</clipPath>
		<path class="st1" d="M224.5,206.7l-78.3,65.6c-8,6.8-22.5,3.6-28.7-4.8c-4.9-6.8-4.6-16,0.9-22.4l63.3-68.5L224.5,206.7z"/>
		<polygon class="st2" points="53.7,61.2 75.4,104.5 44.6,105.8 43.7,92 		"/>
		<polygon class="st3" points="39.5,97.7 47.7,60.4 53.7,61.2 44.6,101.4 42.1,100.7 		"/>
		<path class="st3" d="M125.9,99.5c0,0-75.2-14.3-81.3,0.6l74.8,8.6l1.2-2.8L125.9,99.5z"/>
		<polygon class="st4" points="120.7,106 154,187.3 92.1,177.6 51.6,99 		"/>
		<path class="st5" d="M51.6,99c0,0-8.6,3.3-12.1-1.3L79.8,175c0,0,4.3,6.2,12.3,2.6L51.6,99z"/>
		<polygon class="st3" points="112.7,121.5 118.3,134.5 80.9,130.5 74.7,117.7 		"/>
		<polygon class="st2" points="120.7,106 125.9,99.5 159.3,180.8 154,187.3 		"/>
		<path class="st6" d="M99.3,187.5c0,0,0.2-10.9-18.2-15.4c0,0-6.2-2.1-8.5-14.6c-0.6-3.3-3.2-6-6.6-6.4
			c-6.9-0.8-17.1,0.3-14.7,15.5c3.6,22.5,7.6,20.7,28.8,26.8L99.3,187.5z"/>
		<polygon class="st1" points="148,234.6 103.2,179.4 69.5,199.2 117.8,267.7 		"/>
		<polyline class="st7" points="138.2,223.6 147.5,235 148.5,234.2 139.2,222.7 		"/>
		<path class="st1" d="M209.8,168.6l-23.6,5.9c-3.5,0.9-6.6,3.4-7.4,6.9c-12.3,50.9-22.9,132.1-22.9,132.1l45,1.7
			c3.7-47.4,7.9-121.7,14.6-140.6C216.2,172.2,209.3,169.9,209.8,168.6z"/>
		<path class="st7" d="M164.8,257.4c0,0,0.1-0.5,0.2-1.5c1.1-6.7,5.7-35.1,12.4-60.3l-1.3-0.3c-7.7,28.9-12.7,61.9-12.7,61.9
			L164.8,257.4L164.8,257.4z"/>
		<path class="st3" d="M209.8,168.6c0,0-19.8,17.5-24,44.2c0,0-5.7,22.3,7.3,42.6l-13.2,48.8l79.2,12.4l23.6-150.1L209.8,168.6z"/>
		<path class="st4" d="M194,70.7c0,0-8.8,50.7-17.8,59.7c0,0,38.3,20.4,59.5,6.5c0,0,20.7,10.4,50.2,3c0,0,16.2-51.9-8.4-88.2
			L231,50.4L194,70.7"/>
		<path class="st6" d="M256.8,167.4l-4-40c0,0-6.1-0.8-12.6,0.2c-6.5,1-11.5-0.2-11.6,2.8c0,0.1-5.2-4.5-5.2-4.5l-3.6,41.1
			c0,0.5-0.1,0.9-0.2,1.4l37.1,0.2C256.8,168.2,256.8,167.8,256.8,167.4z"/>
		<path class="st6" d="M223.3,164l-13.6,4.6c0,0-5.8,23.2,22.5,22.7c28.2-0.5,36.3-26.9,36.3-26.9l-12-0.6L223.3,164z"/>
		<path class="st8" d="M252.8,127.4c0,0-10.4,19.1-30.5,11.9l1.5-18.9C223.6,121,252.8,127.4,252.8,127.4z"/>
		<path class="st4" d="M283.7,75.9c-0.6,25.7-21.1,46.1-45.8,45.5c-24.7-0.6-44.7-21.8-44.1-47.5c0.6-25.7,20.8-45.2,45.4-44.7
			C264,29.8,284.3,50.2,283.7,75.9"/>
		<path class="st6" d="M272.5,74.8c-0.3,14.2-2.6,26.4-4.9,35.1c-2.2,8.5-7.9,14.3-15.9,18.9l-1.5,0.8c-8.4,4.9-19.2,4.7-27.5-0.3
			l0,0c-8.4-5.1-14.2-11.8-15.9-20.9c-3-16.7-2.9-35.1-2.9-35.1s-2.4-35.9,34.5-34.4C275.5,40.3,272.5,74.8,272.5,74.8"/>
		<path class="st6" d="M207.2,107.7c-6.6,5.3-23.1-13.4-13.3-22c6.4-5.7,11,5.8,11,5.8l0.8,4.8l1.7,9.1l0.4,2.1L207.2,107.7"/>
		<path class="st9" d="M197.2,93.6L197.2,93.6L197.2,93.6L197.2,93.6L197.2,93.6L197.2,93.6c0,0,0.2-0.4,0.5-0.6
			c0.3-0.3,0.7-0.5,1.2-0.5c0.5,0,1.2,0.2,2.2,1.1c1,0.8,2.2,2.3,3.5,4.7c0.2,0.4,0.7,0.5,1,0.3s0.5-0.7,0.3-1
			c-1.4-2.5-2.7-4.1-3.9-5.1c-1.1-1-2.2-1.4-3.2-1.4c-1.1,0-1.9,0.5-2.3,1c-0.5,0.5-0.7,0.9-0.7,1c-0.2,0.4,0,0.8,0.3,1
			C196.6,94.1,197,94,197.2,93.6L197.2,93.6"/>
		<path class="st6" d="M268,109.1c6.4,5.6,23-13,14.3-21.4c-6.2-6-11.2,5.3-11.2,5.3l-1,4.8l-2.1,9.1l-0.5,2L268,109.1z"/>
		<path class="st9" d="M280,94.8c0,0-0.2-0.5-0.7-1.1c-0.5-0.5-1.3-1.1-2.4-1.1c-0.9,0-2,0.4-3.2,1.4c-1.2,1-2.5,2.5-4,4.8
			c-0.2,0.4-0.1,0.8,0.2,1.1c0.4,0.2,0.8,0.1,1.1-0.2c1.5-2.3,2.7-3.7,3.7-4.5c1-0.8,1.7-1,2.2-1c0.6,0,1,0.3,1.3,0.6
			c0.2,0.2,0.3,0.3,0.3,0.5l0.1,0.1l0,0l0,0l0,0v0l0,0l0,0c0.2,0.4,0.6,0.6,1,0.4C280,95.7,280.2,95.2,280,94.8L280,94.8z"/>
		<path class="st4" d="M226.1,49.3c0,0,17.2,20.4,52.5,27.9c0,0,4.4-38.7-31.2-43C247.3,34.2,235.3,29.4,226.1,49.3z"/>
		<path class="st4" d="M237,51.4c0,0-12,17.2-37.3,24.6c0,0-2.7-33.1,32.7-40.5C232.4,35.4,233.1,32.2,237,51.4z"/>
		<path class="st10" d="M223.3,88.8c0,1.9-1.6,3.4-3.5,3.3c-1.9,0-3.4-1.6-3.3-3.5c0-1.9,1.6-3.4,3.5-3.3
			C221.9,85.3,223.4,86.9,223.3,88.8"/>
		<path class="st4" d="M254.8,89.5c0,1.9-1.6,3.4-3.5,3.3c-1.9,0-3.4-1.6-3.3-3.5c0-1.9,1.6-3.4,3.5-3.3
			C253.4,86.1,254.9,87.6,254.8,89.5"/>
		<path class="st9" d="M232.9,96.4l-0.6,4l0,0c0,0.1,0,0.2,0,0.3c0,0.7,0.3,1.3,0.8,1.7c0.5,0.4,1.2,0.7,1.9,0.7l0.1,0l0-0.8l0,0.8
			l2.4,0c0.4,0,0.8-0.3,0.8-0.8c0-0.4-0.3-0.8-0.8-0.8l-2.4,0l0,0l-0.1,0c-0.4,0-0.7-0.1-0.9-0.3c-0.2-0.2-0.3-0.4-0.3-0.6l0-0.1
			l0,0l0.6-4c0.1-0.4-0.2-0.8-0.6-0.9C233.3,95.7,232.9,96,232.9,96.4L232.9,96.4z"/>
		<path class="st4" d="M218,73.6c0,0,7.6-2.5,8.4,0.8c0,0,0.5,2.2-6.1,4.2c-6.6,2-8.5,1.9-9.6,0C209.5,76.7,214.3,74.5,218,73.6"/>
		<path class="st4" d="M251.4,72.7c0,0-7.6-2.3-8.4,0.9c0,0-0.5,2.2,6.2,4.1c6.7,1.9,10.4,1.9,11.5-0.1
			C261.8,75.7,255,73.5,251.4,72.7"/>
		<path class="st3" d="M226,108l19.8,0.1c0,0-0.2,6.9-9.4,6.8C228.5,114.8,226,108,226,108z"/>
		<path class="st11" d="M249.2,79.8c-4.8,1.8-8.2,6.4-8.2,11.8l0,0.2l-0.2,0c0,0,0,0,0,0l0.2,0c0.1,6.9,5.7,12.4,12.6,12.4
			c0,0,0,0,0,0l0.2,0c1,0,2-0.1,2.9-0.4l-3.5-11.4c-0.5,0.3-1.1,0.4-1.7,0.4c0,0-0.1,0-0.1,0c-1.9,0-3.4-1.6-3.3-3.5
			c0-1.8,1.4-3.2,3.1-3.3L249.2,79.8 M253.6,79C253.6,79,253.6,79,253.6,79l-0.2,0c-0.4,0-0.8,0-1.2,0.1l7.3,23.6
			c1.1-0.6,2-1.3,2.9-2.1l-6.3-21.3C255.3,79.1,254.4,79,253.6,79"/>
		<path class="st12" d="M251.1,86c-1.7,0.1-3.1,1.6-3.1,3.3c0,1.9,1.4,3.4,3.3,3.5c0,0,0.1,0,0.1,0c0.6,0,1.2-0.2,1.7-0.4L251.1,86"
			/>
		<path class="st11" d="M223.2,89.6c-0.4,1.3-1.6,2.3-3,2.5l3.5,11.3c1-0.6,1.9-1.3,2.7-2.2c0,0,0.1-0.1,0.1-0.1L223.2,89.6
			 M213.5,80.8c-1.5,0.7-2.9,1.6-4.1,2.9c-2.2,2.3-3.5,5.5-3.5,8.9l0,0.1v0c0,3.4,1.3,6.5,3.5,8.7c2.1,2.2,5.1,3.6,8.3,3.6l0.2,0
			c1,0,2-0.2,2.9-0.4L213.5,80.8 M218.1,79.9l-0.2,0c-0.5,0-1,0-1.4,0.1l1.8,5.7c0.5-0.3,1.1-0.4,1.7-0.4c0,0,0.1,0,0.1,0
			c0.8,0,1.6,0.3,2.2,0.8l-1.8-6.1C219.6,79.9,218.9,79.9,218.1,79.9"/>
		<path class="st13" d="M219.9,85.3c-0.6,0-1.2,0.2-1.7,0.4l2,6.4c1.4-0.1,2.6-1.1,3-2.5l-1-3.5C221.6,85.6,220.8,85.3,219.9,85.3
			C220,85.3,219.9,85.3,219.9,85.3"/>
		<path class="st3" d="M239.8,91.8l-1.1,0c0.1,8.2,6.7,14.7,14.9,14.7l0.2,0c8.2-0.1,14.7-6.7,14.7-14.9l0-0.2v0
			c-0.1-8.2-6.7-14.7-14.9-14.7l-0.2,0c-8.1,0.1-14.7,6.7-14.7,14.9l0,0.2L239.8,91.8l1.1,0l0-0.2c0-6.9,5.5-12.5,12.4-12.6l0.2,0
			c6.9,0,12.5,5.5,12.6,12.4v0l0,0.2c0,6.9-5.5,12.5-12.4,12.6l-0.2,0c-6.9,0-12.5-5.5-12.6-12.4L239.8,91.8"/>
		<path class="st3" d="M204.8,92.7l-1.1,0c0,4,1.6,7.7,4.1,10.3c2.5,2.6,6.1,4.3,10,4.3l0.3,0c3.9-0.1,7.5-1.8,10.1-4.5
			c2.6-2.7,4.1-6.4,4.1-10.5l0-0.1v0c0-4-1.6-7.7-4.1-10.3c-2.5-2.6-6.1-4.3-10-4.3c-0.1,0-0.2,0-0.3,0c-3.9,0.1-7.5,1.8-10.1,4.5
			c-2.6,2.7-4.1,6.4-4.1,10.5l0,0.1v0L204.8,92.7l1.1,0l0-0.1c0-3.5,1.3-6.6,3.5-8.9c2.2-2.3,5.1-3.7,8.4-3.8l0.2,0
			c3.2,0,6.2,1.4,8.3,3.6c2.1,2.2,3.5,5.3,3.5,8.7v0l0,0.1c0,3.5-1.3,6.6-3.5,8.9c-2.2,2.3-5.1,3.7-8.4,3.8l-0.2,0
			c-3.2,0-6.2-1.4-8.3-3.6c-2.1-2.2-3.5-5.3-3.5-8.7v0L204.8,92.7"/>
		<path class="st3" d="M240.3,90.2c-0.1,0-2.4-1.3-5.4-1.3c-1.4,0-3,0.3-4.5,1.2c-0.5,0.3-0.7,1-0.4,1.6c0.3,0.5,1,0.7,1.6,0.4
			c1.1-0.6,2.2-0.9,3.3-0.9c1.2,0,2.3,0.3,3,0.5c0.4,0.1,0.7,0.3,0.9,0.4c0.1,0,0.2,0.1,0.2,0.1l0.1,0l0,0l0.1-0.3l-0.1,0.3l0,0
			l0.1-0.3l-0.1,0.3c0.6,0.3,1.2,0.1,1.6-0.5C241,91.2,240.8,90.5,240.3,90.2"/>
		<path class="st14" d="M256.1,79.3l6.3,21.3c2.3-2.3,3.7-5.5,3.7-9l0-0.2v0C266.1,85.4,261.8,80.4,256.1,79.3"/>
		<path class="st3" d="M255.8,77.9C255.7,77.9,255.7,77.9,255.8,77.9l0.4,1.4c5.7,1.2,9.9,6.2,10,12.2v0l0,0.2c0,3.5-1.4,6.7-3.7,9
			l0.4,1.2c0,0,7.1-6.4,3.6-15.3C263,78.1,256.4,77.9,255.8,77.9"/>
		<path class="st14" d="M252.2,79.1c-1,0.1-2,0.4-3,0.7l1.9,6.2c0.1,0,0.2,0,0.3,0c0,0,0.1,0,0.1,0c1.9,0,3.4,1.6,3.3,3.5
			c0,1.2-0.7,2.3-1.7,2.9l3.5,11.4c1-0.3,2-0.6,2.9-1.1L252.2,79.1"/>
		<path class="st15" d="M251.4,86c-0.1,0-0.2,0-0.3,0l2,6.4c1-0.6,1.7-1.6,1.7-2.9C254.9,87.6,253.4,86.1,251.4,86
			C251.5,86,251.4,86,251.4,86"/>
		<path class="st3" d="M259.5,102.7c-0.9,0.5-1.8,0.9-2.9,1.1l0.4,1.1l2.9-0.9L259.5,102.7 M252,78.6l-2.9,0.9l0.1,0.3
			c0.9-0.3,1.9-0.6,3-0.7L252,78.6"/>
		<path class="st14" d="M220.4,80.1l1.8,6.1c0.7,0.6,1.2,1.6,1.2,2.6c0,0.3-0.1,0.6-0.1,0.9l3.4,11.4c2.1-2.3,3.4-5.4,3.4-8.8l0-0.1
			v0c0-0.3,0-0.5,0-0.8c0-0.1,0-0.3,0-0.4c-0.3-2.9-1.5-5.6-3.4-7.5C224.8,81.7,222.7,80.5,220.4,80.1"/>
		<path class="st16" d="M222.2,86.1l1,3.5c0.1-0.3,0.1-0.6,0.1-0.9C223.3,87.7,222.9,86.8,222.2,86.1"/>
		<path class="st3" d="M229.9,91.4c0,0.3,0,0.5,0,0.8v0l0,0.1c0,3.4-1.3,6.5-3.4,8.8l0.4,1.3c0,0,4.5-4.1,4.5-10.2
			c-0.1,0.1-0.3,0.1-0.5,0.1c-0.4,0-0.8-0.2-1-0.6C230,91.5,229.9,91.5,229.9,91.4 M219.9,78.5C219.9,78.5,219.9,78.5,219.9,78.5
			l0.4,1.6c2.3,0.5,4.4,1.7,6.1,3.4c1.9,1.9,3.1,4.6,3.4,7.5c0-0.4,0.2-0.7,0.6-0.9c0.3-0.2,0.5-0.3,0.8-0.4
			c-0.2-0.8-0.4-1.7-0.8-2.6C227.2,78.7,220.6,78.5,219.9,78.5"/>
		<path class="st3" d="M231.2,89.7c-0.3,0.1-0.5,0.3-0.8,0.4c-0.3,0.2-0.5,0.5-0.6,0.9c0,0.1,0,0.3,0,0.4c0,0.1,0.1,0.2,0.1,0.3
			c0.2,0.4,0.6,0.6,1,0.6c0.2,0,0.3,0,0.5-0.1C231.5,91.3,231.4,90.5,231.2,89.7"/>
		<path class="st14" d="M216.5,80c-1,0.1-2,0.4-2.9,0.8l7.4,23.7c1-0.3,1.9-0.7,2.8-1.2l-3.5-11.3c-0.1,0-0.2,0-0.3,0
			c0,0-0.1,0-0.1,0c-1.9,0-3.4-1.6-3.3-3.5c0-1.2,0.7-2.3,1.7-2.9L216.5,80"/>
		<path class="st16" d="M218.2,85.7c-1,0.6-1.7,1.6-1.7,2.9c0,1.9,1.4,3.4,3.3,3.5c0,0,0.1,0,0.1,0c0.1,0,0.2,0,0.3,0L218.2,85.7"/>
		<path class="st3" d="M223.7,103.3c-0.9,0.5-1.8,0.9-2.8,1.2l0.3,0.9l2.9-0.9L223.7,103.3 M216.2,79.1l-2.9,0.9l0.2,0.8
			c0.9-0.4,1.9-0.7,2.9-0.8L216.2,79.1"/>
		<path class="st1" d="M268.5,164.4l23,2c5.2,0.1,9.5,4.1,10.1,9.4l7.3,29.4c0,0-15.9,70.2-16.7,124.2l-44.9-0.2
			C247.3,329.1,239.3,226.2,268.5,164.4z"/>
		<path class="st1" d="M296.6,167.8L399.1,215c9.6,4.2,13.2,18.6,8.3,27.9c-3.9,7.4-12.4,11.2-20.5,9l-95.3-30.3L296.6,167.8z"/>
		<polyline class="st7" points="304.9,225 291.9,220.9 291.5,222.2 304.5,226.2 		"/>
	</g>
	<polygon class="st17" points="37.5,96 182.1,93.8 181.3,125.8 40.8,137.9 	"/>
	<path class="st0" d="M53.6,105.8l3.2,10.2l4.7-10.5c1.2-0.3,2.3-0.4,3.4-0.1l-0.5,18.1l-4,0.2l0.2-8.7l-3.4,8.6
		c-0.6,0.3-1.2,0.2-1.7-0.3l-2.3-8.2l-0.3,8.8l-3.9,0.1l0.6-18.2C50.5,105.4,51.9,105.4,53.6,105.8z"/>
	<path class="st0" d="M76.3,104.6l5.5,17.4c-1.1,0.8-2.5,1-4.3,0.7l-1-3.2l-4.5,0.7l-1,3.3c-1.8,0.3-3.2,0.1-4.1-0.6l5.8-18.1
		C73.9,104,75.1,103.9,76.3,104.6z M74.4,110.5l-1.7,6.1l3-0.5L74.4,110.5z"/>
	<path class="st0" d="M95.7,104c0.4,1.3,0.4,2.5-0.1,3.6l-8,0.5l-0.1,3.1l6.6-0.4c0.7,1.2,0.6,2.3,0,3.4l-6.7,0.5l-0.2,3.8l8.2-0.5
		c0.7,1.4,0.7,2.8-0.1,4.1L83.9,123c-0.4-0.1-0.6-0.3-0.7-0.7l0.5-16.8c0.1-0.3,0.3-0.6,0.5-0.7L95.7,104z"/>
	<path class="st0" d="M99.1,120.3c-0.6-1.8-0.3-3.3,0.8-4.3c2.1,1.2,3.7,1.9,4.6,2.1c1.8-0.1,2.7-0.6,2.8-1.4c0-0.7-0.5-1.3-1.7-1.9
		l-3.2-1.4c-2-1-3.1-2.4-3.2-4.3c0-1.1,0.4-2.1,1-3c0.6-0.9,1.4-1.5,2.2-1.8c0.8-0.3,1.8-0.4,3-0.4c2.2,0.1,4.1,0.6,5.7,1.6
		c0.1,1.5-0.3,2.9-1.3,4.1c-2-1.4-3.6-2-4.8-1.9c-1.1-0.1-1.7,0.3-1.7,1.3c0,0.5,0.8,1.2,2.4,2c1.9,0.7,3.3,1.5,4.2,2.4
		c0.9,0.9,1.4,2.1,1.3,3.5c-0.1,1.9-0.9,3.3-2.5,4.4c-1,0.8-2.5,1.1-4.4,1C102.6,122,100.8,121.4,99.1,120.3z"/>
	<path class="st0" d="M127,102.9c0.6,1.3,0.6,2.6,0,3.9l-4.5,0.2l-0.2,14.2c-1.2,0.6-2.6,0.6-4.1,0.1l0.3-14l-4.4,0.3
		c-1-1.5-1-2.8-0.2-3.9L127,102.9z"/>
	<path class="st0" d="M132.1,103c4-0.5,6.9-0.7,8.5-0.5c1.6,0.2,2.7,0.9,3.1,2.1c0.5,1.2,0.6,2.8,0.2,4.9c-0.3,2.1-1.8,3.5-4.4,4.2
		l4.5,5.4c-0.7,1.6-2.1,2.2-4,1.7l-4.5-6.1l-1.4,0.2l-0.4,5.8c-1.6,0.6-3,0.6-4-0.3l1-16.8L132.1,103z M134.8,106.3l-0.3,5.1
		c3.4-0.3,5.2-1,5.6-2c0.4-1,0.4-1.9,0-2.6C139.6,106,137.9,105.9,134.8,106.3z"/>
	<path class="st0" d="M154.9,101.9c2.2-0.1,4,0.7,5.4,2.4c1.4,1.7,2,3.9,1.8,6.6c-0.1,2.7-1,4.9-2.5,6.7c-1.5,1.8-3.4,2.7-5.6,2.8
		c-2.3,0.1-4.1-0.7-5.6-2.3c-1.5-1.6-2.2-3.8-2-6.5c0.1-2.7,1-4.9,2.7-6.8C150.7,103,152.7,102,154.9,101.9z M154.7,106.5
		c-1.1,0-2,0.5-2.9,1.4c-0.8,0.9-1.3,2.1-1.4,3.5c-0.1,1.5,0.2,2.7,1,3.6c0.8,0.9,1.8,1.3,2.9,1.3c1.1-0.1,2-0.6,2.7-1.5
		c0.7-0.9,1.1-2.1,1.2-3.5c0.1-1.4-0.2-2.5-0.9-3.4C156.7,106.9,155.8,106.5,154.7,106.5z"/>
	<path class="st0" d="M166.1,115.4c0.3,0,0.7,0.1,1,0.2c0.3,0.2,0.6,0.4,0.8,0.7c0.2,0.3,0.3,0.6,0.3,1c0,0.3-0.1,0.7-0.2,1
		c-0.2,0.3-0.4,0.6-0.7,0.8c-0.3,0.2-0.6,0.3-1,0.3c-0.4,0-0.7-0.1-1-0.2c-0.3-0.2-0.6-0.4-0.8-0.7c-0.2-0.3-0.3-0.6-0.3-1
		c0-0.3,0.1-0.7,0.2-1c0.2-0.3,0.4-0.6,0.7-0.8S165.8,115.5,166.1,115.4z M165.5,101.4l-0.2,12.8c0.7,0.4,1.6,0.5,2.6,0.1l2-12.4
		C168.6,101,167.1,100.9,165.5,101.4z"/>
	<polygon class="st17" points="43.3,57.8 180.1,56.7 179.7,88.2 39.5,96 	"/>
	<path class="st0" d="M47.2,85.2l2-12.4c1-0.4,1.9-0.4,2.6,0.1l-0.2,12.8C50,86.2,48.5,86.1,47.2,85.2z M52,71.4
		c0.3-0.2,0.5-0.4,0.7-0.8s0.2-0.7,0.2-1c0-0.3-0.1-0.7-0.3-1c-0.2-0.3-0.4-0.5-0.8-0.7c-0.3-0.2-0.7-0.2-1-0.2
		c-0.3,0-0.7,0.1-1,0.3c-0.3,0.2-0.5,0.4-0.7,0.8c-0.2,0.3-0.2,0.7-0.2,1c0,0.3,0.1,0.7,0.3,1c0.2,0.3,0.4,0.5,0.8,0.7
		c0.3,0.2,0.7,0.2,1,0.2C51.3,71.7,51.7,71.6,52,71.4z"/>
	<path class="st0" d="M67.4,67.5c0.4,1.3,0.4,2.5-0.1,3.6l-8,0.5l-0.1,4.1l6.5-0.4c0.7,1.2,0.7,2.3,0,3.4l-6.7,0.5l-0.2,6.9
		c-1.5,0.7-2.9,0.8-4,0.1l0.5-17.3c0.1-0.3,0.3-0.6,0.5-0.7L67.4,67.5z"/>
	<path class="st0" d="M82.6,67c0.4,1.3,0.4,2.5-0.1,3.6l-8,0.5l-0.1,3.1l6.6-0.4c0.7,1.2,0.6,2.3,0,3.4l-6.7,0.5l-0.2,3.8l8.2-0.5
		c0.7,1.4,0.7,2.8-0.1,4.1l-11.4,0.9c-0.4-0.1-0.6-0.3-0.7-0.7l0.5-16.8c0.1-0.3,0.3-0.6,0.5-0.7L82.6,67z"/>
	<path class="st0" d="M89.7,66.8L89.3,81l7.3-0.5c0.7,1.4,0.7,2.8-0.1,4.1l-10.6,0.8c-0.4-0.1-0.6-0.3-0.7-0.7l0.4-17.4
		C86.5,66.7,87.9,66.6,89.7,66.8z"/>
	<path class="st0" d="M100.2,66.5c1.2-0.3,2.6-0.3,4,0l-0.8,18c-1.6,0.5-3,0.5-4.2,0L100.2,66.5z"/>
	<path class="st0" d="M107.7,66l11.7-0.4c0.8,1.1,1,2.4,0.4,3.8l-7.6,11l7.5-0.4c0.6,1.3,0.6,2.7,0.2,4.2l-12.5,0.5
		c-0.8-0.7-1-1.9-0.6-3.6l7.8-11.2l-7.4,0.3C106.9,68.6,107.1,67.2,107.7,66z"/>
	<path class="st0" d="M129.7,67l0.1-1.5l1.2-0.3l4.7,0c4.7,0.7,7.1,3.4,7.2,8.3c0,2.5-0.5,4.6-1.6,6.4c-1.3,2.3-4.6,3.6-10.1,3.8
		l-1.4-0.3l-0.3-1.7L129.7,67z M133.5,68.9l-0.1,10.8c2.1,0.1,3.6-0.4,4.4-1.2c0.8-0.9,1.3-2.3,1.3-4.1c0.1-1.8-0.2-3.2-0.9-4.1
		C137.7,69.3,136.1,68.9,133.5,68.9z"/>
	<path class="st0" d="M145.7,64.9c1.2-0.3,2.6-0.3,4,0l-0.8,18c-1.6,0.5-3,0.5-4.2,0L145.7,64.9z M150.3,59.9l-4,2.8
		c0,0.9,0.4,1.5,1.1,1.8l3.9-2.7C151.1,61,150.8,60.4,150.3,59.9z"/>
	<path class="st0" d="M161.2,64.1l5.5,17.4c-1.1,0.8-2.5,1-4.3,0.7l-1-3.2l-4.5,0.7l-1,3.3c-1.8,0.3-3.2,0.1-4.1-0.6l5.8-18.1
		C158.8,63.5,160,63.4,161.2,64.1z M159.3,70l-1.7,6.1l3-0.5L159.3,70z"/>
	<path class="st0" d="M170.2,77.9c0.4,0,0.7,0.1,1.1,0.3c0.4,0.2,0.6,0.5,0.9,0.9c0.2,0.4,0.3,0.8,0.3,1.2c0.2,0.7-0.3,2.3-1.5,5
		l-1.7-0.4l0.1-2c-0.5-0.4-0.8-0.8-1-1.2c-0.2-0.4-0.3-0.8-0.3-1.2c0-0.4,0.1-0.8,0.3-1.2c0.2-0.4,0.5-0.7,0.8-0.9
		C169.5,78,169.8,77.9,170.2,77.9z"/>
</g>
</svg>
