<?xml version="1.0" encoding="utf-8"?>
<!-- Generator: Adobe Illustrator 24.0.2, SVG Export Plug-In . SVG Version: 6.00 Build 0)  -->
<svg version="1.1" id="Capa_1" xmlns="http://www.w3.org/2000/svg" xmlns:xlink="http://www.w3.org/1999/xlink" x="0px" y="0px"
	 viewBox="0 0 900 1080" style="enable-background:new 0 0 900 1080;" xml:space="preserve">
<style type="text/css">
	.st0{clip-path:url(#SVGID_2_);fill:#7CE8E0;}
	.st1{clip-path:url(#SVGID_2_);fill:#FFFFFF;}
	.st2{clip-path:url(#SVGID_2_);fill:#FDDA4A;}
	.st3{clip-path:url(#SVGID_2_);fill:#1B173C;}
	.st4{clip-path:url(#SVGID_2_);fill:#EDEDED;}
	.st5{clip-path:url(#SVGID_2_);fill:#FDAC4E;}
	.st6{clip-path:url(#SVGID_2_);fill:#5980E3;}
	.st7{clip-path:url(#SVGID_2_);fill:#EFBB95;}
	.st8{clip-path:url(#SVGID_2_);fill:#D18B66;}
	.st9{clip-path:url(#SVGID_2_);fill:#201C2E;}
	.st10{clip-path:url(#SVGID_2_);fill:#141C35;}
	.st11{clip-path:url(#SVGID_2_);fill:#F0C09C;}
	.st12{clip-path:url(#SVGID_2_);fill:#2B274A;}
	.st13{clip-path:url(#SVGID_2_);fill:#252C43;}
	.st14{clip-path:url(#SVGID_2_);fill:#F2C8A9;}
	.st15{clip-path:url(#SVGID_2_);fill:#464361;}
	.st16{clip-path:url(#SVGID_2_);fill:#41475B;}
</style>
<g>
	<g>
		<defs>
			<polyline id="SVGID_1_" points="0,0 900,0 900,1080 0,1080 0,0 			"/>
		</defs>
		<clipPath id="SVGID_2_">
			<use xlink:href="#SVGID_1_"  style="overflow:visible;"/>
		</clipPath>
		<polyline class="st0" points="0,0 900,0 900,1080 0,1080 0,0 		"/>
		<polygon class="st1" points="118.6,231.9 530.7,225.5 528.5,316.7 128.3,351.3 		"/>
		<path class="st0" d="M164.5,259.6l9.1,28.9l13.3-29.8c3.3-1,6.5-1.1,9.7-0.4l-1.3,51.7l-11.3,0.5l0.6-24.7l-9.8,24.6
			c-1.7,0.9-3.3,0.7-4.7-0.8l-6.5-23.2l-1,25.1l-11.2,0.3L153,260C155.8,258.6,159.7,258.5,164.5,259.6z"/>
		<path class="st0" d="M229.2,256.3l15.7,49.6c-3.1,2.2-7.2,2.9-12.3,2.1l-2.8-9.2l-12.8,2.1l-2.9,9.5c-5.1,0.9-9,0.3-11.6-1.8
			l16.4-51.5C222.4,254.6,225.8,254.4,229.2,256.3z M223.8,273.1l-4.9,17.3l8.5-1.3L223.8,273.1z"/>
		<path class="st0" d="M284.6,254.6c1.3,3.6,1.2,7-0.2,10.2l-22.7,1.5l-0.3,8.9l18.7-1c1.9,3.3,1.8,6.5-0.1,9.6l-19,1.5l-0.6,10.8
			l23.3-1.5c2.1,4,1.9,7.9-0.4,11.6l-32.5,2.4c-1-0.2-1.6-0.9-1.9-2.1l1.4-47.8c0.2-0.9,0.7-1.6,1.6-2L284.6,254.6z"/>
		<path class="st0" d="M294.2,301.1c-1.7-5.2-1-9.3,2.2-12.3c6.1,3.3,10.5,5.3,13.2,6c5-0.2,7.7-1.6,8.1-4c0-2-1.6-3.8-4.8-5.5
			l-9.1-4c-5.7-2.8-8.7-6.9-9.1-12.2c0.1-3.1,1.1-5.9,2.9-8.5c1.8-2.5,4-4.3,6.4-5.1c2.4-0.9,5.3-1.2,8.6-1.2
			c6.1,0.2,11.6,1.7,16.3,4.6c0.3,4.4-0.9,8.2-3.7,11.6c-5.8-4-10.4-5.8-13.7-5.4c-3.2-0.3-4.8,0.9-4.9,3.6
			c-0.1,1.5,2.2,3.4,6.9,5.6c5.3,1.9,9.3,4.3,12,6.9c2.6,2.7,3.9,6,3.7,9.9c-0.2,5.3-2.5,9.5-7,12.5c-2.8,2.1-7,3.1-12.6,3
			C304.3,306,299.2,304.2,294.2,301.1z"/>
		<path class="st0" d="M373.8,251.5c1.7,3.7,1.8,7.4,0.1,11.2l-12.8,0.6l-0.5,40.5c-3.5,1.6-7.3,1.7-11.6,0.3l0.9-40l-12.6,0.7
			c-2.7-4.2-3-7.9-0.7-11L373.8,251.5z"/>
		<path class="st0" d="M388.3,251.7c11.5-1.5,19.6-1.9,24.2-1.3c4.6,0.6,7.6,2.6,9,6.1c1.4,3.4,1.6,8.1,0.7,14
			c-0.9,5.9-5.1,10-12.5,12.1l12.9,15.5c-2.1,4.6-5.9,6.3-11.3,4.8l-12.8-17.3l-4.1,0.6l-1.1,16.5c-4.7,1.8-8.5,1.6-11.4-0.7
			l2.7-47.7L388.3,251.7z M396,261.2l-1,14.4c9.6-1,14.9-2.9,15.9-5.7c1.1-2.8,1-5.3-0.1-7.5C409.7,260.3,404.8,259.9,396,261.2z"/>
		<path class="st0" d="M453.2,248.6c6.4-0.2,11.5,2.1,15.5,6.9c3.9,4.9,5.7,11.1,5.3,18.8c-0.4,7.7-2.8,14.1-7,19.2
			c-4.2,5.1-9.6,7.8-16,8c-6.4,0.2-11.8-2-16-6.7c-4.3-4.7-6.2-10.8-5.8-18.4c0.4-7.6,2.9-14.1,7.6-19.4
			C441.3,251.6,446.8,248.8,453.2,248.6z M452.7,261.7c-3.1,0.1-5.8,1.4-8.1,4c-2.4,2.6-3.7,5.9-4.1,10.1c-0.4,4.2,0.6,7.6,2.9,10.2
			c2.3,2.6,5.1,3.8,8.2,3.6c3.1-0.3,5.7-1.7,7.8-4.4c2-2.7,3.2-5.9,3.4-9.8s-0.6-7.2-2.6-9.8C458.2,262.9,455.7,261.7,452.7,261.7z"
			/>
		<path class="st0" d="M485.1,287.2c1,0,1.9,0.2,2.8,0.6c0.9,0.5,1.7,1.1,2.2,2c0.5,0.9,0.8,1.8,0.9,2.8c0,1-0.2,1.9-0.6,2.8
			s-1.1,1.6-2,2.2c-0.9,0.5-1.8,0.8-2.8,0.8c-1,0-2-0.2-2.9-0.6s-1.6-1.1-2.2-2c-0.5-0.9-0.8-1.8-0.8-2.8c0-1,0.2-2,0.7-2.9
			c0.5-0.9,1.2-1.6,2-2.2C483.2,287.5,484.1,287.2,485.1,287.2z M483.3,247.3l-0.5,36.5c2,1.2,4.5,1.3,7.5,0.2l5.6-35.4
			C492.2,246.1,488,245.7,483.3,247.3z"/>
		<polygon class="st1" points="135.4,123 525,119.8 524,209.5 124.4,231.8 		"/>
		<path class="st0" d="M146.4,201.2l5.6-35.4c3-1.1,5.4-1,7.5,0.2l-0.5,36.5C154.3,203.9,150.1,203.5,146.4,201.2z M160,161.6
			c0.9-0.5,1.6-1.2,2-2.2c0.5-0.9,0.7-1.9,0.7-2.9c0-1-0.3-1.9-0.8-2.8s-1.3-1.6-2.2-2c-0.9-0.5-1.9-0.7-2.9-0.6
			c-1,0-1.9,0.3-2.8,0.8c-0.9,0.5-1.6,1.2-2,2.2c-0.5,0.9-0.7,1.9-0.6,2.8c0,1,0.3,1.9,0.9,2.8c0.5,0.9,1.3,1.6,2.2,2
			c0.9,0.5,1.9,0.7,2.8,0.6C158.2,162.4,159.1,162.2,160,161.6z"/>
		<path class="st0" d="M203.9,150.6c1.3,3.6,1.2,7-0.2,10.2l-22.7,1.5l-0.3,11.6l18.6-1c1.9,3.3,1.9,6.5,0,9.6l-19,1.5l-0.6,19.7
			c-4.4,2.1-8.2,2.1-11.4,0.3l1.3-49.3c0.2-0.9,0.7-1.6,1.6-2L203.9,150.6z"/>
		<path class="st0" d="M247.1,149c1.3,3.6,1.2,7-0.2,10.2l-22.7,1.5l-0.3,8.9l18.7-1c1.9,3.3,1.8,6.5-0.1,9.6l-19,1.5l-0.6,10.8
			l23.3-1.5c2.1,4,1.9,7.9-0.4,11.6l-32.5,2.4c-1-0.2-1.6-0.9-1.9-2.1l1.4-47.8c0.2-0.9,0.7-1.6,1.6-2L247.1,149z"/>
		<path class="st0" d="M267.4,148.7l-1.1,40.3l20.8-1.3c2.1,4,1.9,7.9-0.4,11.6l-30.3,2.2c-1-0.2-1.6-0.9-1.9-2.1l1.1-49.6
			C258.4,148.4,262.3,148,267.4,148.7z"/>
		<path class="st0" d="M297.4,147.7c3.5-1,7.3-0.9,11.4,0.1l-2.3,51.3c-4.7,1.5-8.7,1.5-12-0.1L297.4,147.7z"/>
		<path class="st0" d="M318.9,146.5l33.5-1.1c2.4,3.2,2.7,6.8,1,10.9l-21.8,31.3l21.4-1.1c1.6,3.6,1.8,7.6,0.5,11.9l-35.5,1.4
			c-2.4-2-3-5.4-1.8-10.2l22.1-32l-21,0.9C316.4,153.9,316.9,149.9,318.9,146.5z"/>
		<path class="st0" d="M381.3,149.2l0.4-4.2l3.5-0.9l13.4-0.1c13.3,1.9,20.2,9.8,20.6,23.7c-0.1,7.1-1.5,13.1-4.4,18.1
			c-3.6,6.6-13.1,10.2-28.7,10.8l-4-1l-0.9-4.8L381.3,149.2z M392.3,154.7l-0.3,30.7c6,0.2,10.2-1,12.6-3.5
			c2.4-2.5,3.6-6.4,3.8-11.7c0.2-5.2-0.7-9.2-2.5-11.8C404.1,155.8,399.6,154.5,392.3,154.7z"/>
		<path class="st0" d="M427.1,143.1c3.5-1,7.3-0.9,11.4,0.1l-2.3,51.3c-4.7,1.5-8.7,1.5-12-0.1L427.1,143.1z M440,128.9l-11.4,7.9
			c0.1,2.5,1.2,4.2,3.1,5.1L443,134C442.5,132.1,441.5,130.4,440,128.9z"/>
		<path class="st0" d="M471.1,140.8l15.7,49.6c-3.1,2.2-7.2,2.9-12.3,2.1l-2.8-9.2l-12.8,2.1l-2.9,9.5c-5.1,0.9-9,0.3-11.6-1.8
			l16.4-51.5C464.3,139.2,467.8,138.9,471.1,140.8z M465.8,157.6l-4.9,17.3l8.5-1.3L465.8,157.6z"/>
		<path class="st0" d="M496.8,180.2c1.1,0,2.1,0.2,3.1,0.8c1,0.6,1.8,1.4,2.5,2.5c0.6,1.1,0.9,2.3,1,3.5c0.5,1.9-1,6.6-4.3,14.2
			l-4.8-1.1l0.3-5.8c-1.3-1.2-2.3-2.3-2.9-3.4c-0.6-1.1-0.9-2.2-1-3.4c0-1.2,0.2-2.4,0.7-3.5c0.5-1.1,1.3-2,2.3-2.7
			S495.7,180.3,496.8,180.2z"/>
		<path class="st2" d="M613.8,688.3l198.8,227.8c20.2,23.5,64.2,20.9,86.1-0.9c17.5-17.5,20.7-44.8,7.6-65.8L752.7,620.2
			L613.8,688.3z"/>
		<polygon class="st3" points="963.6,441.5 828.9,664 1014.3,664 1168.6,452.8 		"/>
		<polygon class="st4" points="963.6,441.5 951.1,420.3 816.4,642.7 828.9,664 		"/>
		<polygon class="st2" points="824.7,805.1 981,664.1 1070.3,737.7 897.8,915.6 		"/>
		<polyline class="st5" points="855.8,774.4 823.4,803.6 825.9,806.5 858.4,777.3 		"/>
		<path class="st2" d="M674.4,583.7l66.3,28c9.8,4.2,17.6,13,18.5,23.6c12.6,154.6,6.5,396.7,6.5,396.7l-132.2-15.5
			c10.8-140.3,32.6-359.4,21.7-417.7C653.8,591.2,675.3,587.7,674.4,583.7z"/>
		<path class="st5" d="M769.1,864c0,0,0-0.9,0-2.5c0-16-0.4-104.6-8.7-184.4l-3.8,0.4c8.3,79.6,8.6,168,8.6,184c0,1.7,0,2.5,0,2.5
			L769.1,864L769.1,864z"/>
		<path class="st1" d="M674.4,583.7c0,0,49.8,60.2,49.8,140.2c0,0,6.3,67.9-40.9,121.1l16,148.8H462.1V544.4L674.4,583.7z"/>
		<path class="st6" d="M699.3,993.9c0,0,77.1,154.6,115.2,352.6H382.2c0,0,3-212.3,79.9-352.6H699.3z"/>
		<path class="st3" d="M765.4,304.8c0,0,2.5,152.2,24.7,182.8c0,0-121.2,42.2-176.9-8.3c0,0-65.4,20.9-148.2-14.2
			c0,0-23.5-159.1,65.1-254.1l136.5,17.2L765.4,304.8"/>
		<path class="st7" d="M537.4,558.5l30-115c0,0,18.3,0.4,36.7,6.4c18.4,6,33.6,4.8,32.5,13.4c0,0.3,17.2-10.7,17.2-10.7l-8.3,121.9
			c-0.2,1.4-0.2,2.7-0.2,4L536.6,562C537,560.9,537.2,559.7,537.4,558.5z"/>
		<path class="st7" d="M636.9,563.9l37.5,19.7c0,0,6.2,70.5-76.1,56c-82.2-14.5-93.7-95.3-93.7-95.3l35.5,3.7L636.9,563.9z"/>
		<path class="st8" d="M567.4,443.5c0,0,21.7,60.7,83.7,48.8l4.2-56.1C655.8,438.4,567.4,443.5,567.4,443.5z"/>
		<path class="st3" d="M500.9,278.8c-10.1,75.4,40.5,144.4,112.9,154.1c72.4,9.7,140.6-43.2,150.6-118.7
			c10.1-75.4-39.9-141.8-112.3-151.5C579.7,153.1,511,203.4,500.9,278.8"/>
		<path class="st7" d="M534,280.6c-5.6,41.7-4.4,78.4-1.9,104.7c2.5,25.8,16.5,45.4,37.7,62.5l3.9,3.1
			c22.4,18.1,53.9,22.7,80.6,11.7h0c26.9-11.1,47-27.8,56-53.9c16.3-47.5,24.6-101.3,24.6-101.3s23.4-103.9-85.2-116.4
			C541.1,178.7,534,280.6,534,280.6"/>
		<path class="st7" d="M709.8,406.8c17,18.5,73.7-28.7,49.1-58.3c-16.2-19.5-34.7,11.9-34.7,11.9l-4.5,13.7l-9.1,25.9l-2.2,5.8
			L709.8,406.8"/>
		<path class="st9" d="M749.8,368.9c-0.1-0.2-0.6-1.8-2-3.6c-0.7-0.9-1.7-1.8-2.9-2.6c-1.3-0.7-2.8-1.2-4.6-1.2
			c-1.4,0-2.8,0.3-4.4,0.8c-2.4,0.9-4.9,2.4-7.8,4.8c-2.9,2.4-6.1,5.8-9.8,10.3c-0.8,1-0.6,2.4,0.3,3.2c1,0.8,2.4,0.6,3.2-0.3
			c4.7-5.8,8.6-9.4,11.7-11.5c1.5-1.1,2.9-1.8,4-2.2c1.1-0.4,2.1-0.6,2.8-0.6c1,0,1.8,0.2,2.4,0.6c1,0.5,1.7,1.4,2.2,2.3
			c0.2,0.4,0.4,0.8,0.5,1c0.1,0.1,0.1,0.2,0.1,0.3l0,0.1l0,0l1.3-0.4l-1.3,0.4l0,0l1.3-0.4l-1.3,0.4c0.4,1.2,1.6,1.9,2.8,1.5
			C749.5,371.3,750.1,370.1,749.8,368.9L749.8,368.9"/>
		<path class="st7" d="M531.5,383c-21.3,13.4-61.3-48.5-32.1-69.1c20.7-14.6,30.4,20.6,30.4,20.6l0.7,14.4l1.9,27.4l0.6,6.2
			L531.5,383z"/>
		<path class="st9" d="M506.6,338.3l-1-0.6L506.6,338.3L506.6,338.3l-1-0.6L506.6,338.3l0.1-0.1c0.2-0.3,0.8-1.1,1.7-1.7
			c0.4-0.3,0.9-0.6,1.4-0.8c0.5-0.2,1.1-0.3,1.7-0.3c0.7,0,1.5,0.2,2.6,0.7c1.5,0.7,3.4,2.3,5.6,5.1c2.2,2.9,4.7,7.1,7.3,13
			c0.5,1.1,1.8,1.7,3,1.2c1.1-0.5,1.7-1.8,1.2-3c-3.6-8.2-7.1-13.5-10.3-16.8c-1.6-1.7-3.2-2.8-4.8-3.6c-1.6-0.8-3.1-1.1-4.5-1.1
			c-1.4,0-2.7,0.3-3.8,0.8c-1.6,0.7-2.8,1.7-3.6,2.6c-0.8,0.8-1.2,1.5-1.3,1.6c-0.7,1.1-0.4,2.4,0.7,3.1
			C504.6,339.7,506,339.4,506.6,338.3L506.6,338.3z"/>
		<path class="st3" d="M681.4,227.5c0,0-59.6,51.6-166.2,57.4c0,0,4.8-115.2,111-111.2C626.2,173.7,663.7,165.1,681.4,227.5z"/>
		<path class="st3" d="M648.6,228.6c0,0,27.1,55.6,97.7,88.9c0,0,23-95.4-77-133.4C669.3,184.1,668.8,174.4,648.6,228.6z"/>
		<path class="st10" d="M671.4,344.2c-0.7,5.5,3.1,10.6,8.7,11.3c5.5,0.7,10.6-3.1,11.3-8.7c0.7-5.5-3.1-10.6-8.7-11.3
			C677.2,334.8,672.1,338.7,671.4,344.2"/>
		<path class="st3" d="M579,331.8c-0.7,5.5,3.1,10.6,8.7,11.3c5.5,0.7,10.6-3.1,11.3-8.7c0.7-5.5-3.1-10.6-8.7-11.3
			C584.8,322.5,579.7,326.3,579,331.8"/>
		<path class="st9" d="M635.5,362.1l0,12.1l2.1,0l-2.1,0l0,0h2.1l-2.1,0l0,0c0,0.2-0.1,0.5-0.2,0.7c-0.2,0.4-0.6,0.8-1.1,1.1
			c-0.5,0.3-1.2,0.5-2,0.5c-0.3,0-0.6,0-0.9-0.1l-0.1,0l-6.9-1.1c-1.2-0.2-2.4,0.6-2.6,1.9c-0.2,1.2,0.6,2.4,1.9,2.6l6.9,1.1
			l0.4-2.2l-0.4,2.2c0.6,0.1,1.2,0.2,1.7,0.2c2.1,0,3.9-0.7,5.4-1.9c0.7-0.6,1.3-1.3,1.8-2.2c0.4-0.8,0.7-1.8,0.7-2.8h-2.1l2.1,0
			l0,0h-2.1l2.1,0l0,0l0-12.1c0-1.2-1-2.3-2.3-2.3C636.5,359.8,635.5,360.8,635.5,362.1L635.5,362.1z"/>
		<path class="st3" d="M694,302.4c0,0-20.9-10.6-24.9-1.6c0,0-2.5,6.2,15.9,15.1c18.4,8.9,23.9,9.5,28,4.4
			C717.2,315.1,704.2,306.6,694,302.4"/>
		<path class="st3" d="M596.6,284.3c0,0,23.3-3.3,24.1,6.5c0,0,0.4,6.7-20,9.1c-20.3,2.5-31.3,0.6-33.5-5.5
			C565,288.3,585.7,285,596.6,284.3"/>
		<path class="st1" d="M654.7,399l-58-8.8c0,0-2.7,20.2,24.5,24.3C644.2,418,654.7,399,654.7,399z"/>
		<path class="st11" d="M599.9,306l-8.5,17.3c4.9,1.2,8.3,6,7.6,11.1c-0.7,5.1-5,8.7-10,8.7c-0.4,0-0.9,0-1.3-0.1
			c-1.9-0.3-3.6-1-4.9-2.1l-15.6,31.7c2.6,1.1,5.5,2,8.4,2.5c2.1,0.4,4.2,0.5,6.2,0.5c8.9,0,17.3-3.2,23.9-8.7
			c6.6-5.5,11.3-13.2,12.8-22.3l0,0c0.4-2.1,0.5-4.2,0.5-6.2c0-8.9-3.2-17.3-8.7-23.9C607.4,311.2,603.9,308.3,599.9,306
			 M581.7,301.3c-0.6,0-1.2,0-1.8,0l-28.1,59.3c0.4,0.6,0.9,1.2,1.4,1.8c1.8,2.1,3.8,4.1,6.1,5.8l32.2-65.6
			c-1.2-0.3-2.4-0.6-3.6-0.8C585.8,301.5,583.7,301.3,581.7,301.3"/>
		<path class="st12" d="M591.3,323.4l-8.7,17.7c1.4,1.1,3.1,1.9,4.9,2.1c0.5,0.1,0.9,0.1,1.3,0.1c5,0,9.3-3.7,10-8.7
			C599.6,329.4,596.3,324.6,591.3,323.4"/>
		<path class="st11" d="M671.4,346.7l-15.1,31.8c0.6,0.9,1.3,1.9,2,2.7c1.6,2,3.3,3.7,5.2,5.3l15.4-31.3
			C674.9,354.3,671.9,350.8,671.4,346.7 M703.7,325.4l-32.4,66c2.6,1.2,5.4,2.1,8.3,2.6c2,0.4,4,0.5,5.9,0.5
			c8.4,0,16.4-3.2,22.7-8.7c6.2-5.5,10.8-13.2,12.2-22.3l0,0c0.3-2.1,0.5-4.2,0.5-6.3c0-8.9-3.1-17.4-8.3-23.9
			C710,330.2,707,327.5,703.7,325.4 M685.4,320.1c-0.5,0-0.9,0-1.4,0l-8,16.9c1.6-1,3.4-1.6,5.4-1.6c0.4,0,0.9,0,1.3,0.1
			c1.9,0.2,3.5,1,4.9,2.1l7.9-16c-1.4-0.4-2.8-0.8-4.2-1C689.3,320.3,687.3,320.1,685.4,320.1"/>
		<path class="st13" d="M681.4,335.4c-2,0-3.8,0.6-5.4,1.6l-4.6,9.7c0.5,4.1,3.5,7.5,7.5,8.5l8.7-17.7c-1.4-1.1-3-1.8-4.9-2.1
			C682.3,335.5,681.8,335.4,681.4,335.4"/>
		<path class="st1" d="M621.7,345.3l-3.3-0.6c-1.5,9.1-6.2,16.8-12.8,22.3c-6.6,5.5-14.9,8.7-23.9,8.7c-2.1,0-4.1-0.2-6.2-0.5
			c-9.1-1.5-16.8-6.2-22.3-12.8c-5.5-6.6-8.7-15-8.7-23.9c0-2.1,0.2-4.1,0.5-6.2c1.5-9.1,6.2-16.8,12.8-22.3
			c6.6-5.5,15-8.7,23.9-8.7c2.1,0,4.1,0.2,6.2,0.5c9.1,1.5,16.8,6.2,22.3,12.8c5.5,6.6,8.7,14.9,8.7,23.9c0,2.1-0.2,4.1-0.5,6.2
			L621.7,345.3l3.3,0.6c0.4-2.5,0.6-4.9,0.6-7.4c0-10.5-3.8-20.5-10.3-28.2c-6.5-7.7-15.7-13.3-26.4-15.1c-2.5-0.4-4.9-0.6-7.4-0.6
			c-10.5,0-20.5,3.8-28.2,10.3c-7.7,6.5-13.3,15.7-15.1,26.4c-0.4,2.5-0.6,4.9-0.6,7.4c0,10.5,3.8,20.5,10.3,28.2
			c6.5,7.7,15.7,13.3,26.4,15.1c2.5,0.4,4.9,0.6,7.4,0.6c10.5,0,20.5-3.8,28.2-10.3c7.7-6.5,13.3-15.7,15.1-26.4L621.7,345.3"/>
		<path class="st1" d="M723.7,364.1l-3.3-0.5c-1.5,9.1-6,16.9-12.2,22.3c-6.3,5.5-14.2,8.6-22.7,8.7c-2,0-3.9-0.2-5.9-0.5
			c-8.6-1.5-16-6.2-21.2-12.7c-5.2-6.5-8.3-15-8.3-23.9c0-2.1,0.2-4.2,0.5-6.3c1.5-9.1,6-16.9,12.2-22.3c6.3-5.5,14.2-8.6,22.7-8.7
			c2,0,3.9,0.2,5.9,0.5c8.6,1.5,16,6.2,21.2,12.7c5.2,6.5,8.3,15,8.3,23.9c0,2.1-0.2,4.2-0.5,6.3L723.7,364.1l3.3,0.5
			c0.4-2.5,0.6-4.9,0.6-7.4c0-10.5-3.6-20.4-9.8-28.1c-6.2-7.7-15-13.3-25.3-15.2c-2.4-0.4-4.8-0.6-7.1-0.6
			c-10.2,0-19.7,3.8-27.1,10.3c-7.4,6.5-12.7,15.7-14.4,26.4c-0.4,2.5-0.6,4.9-0.6,7.4c0,10.5,3.6,20.4,9.8,28.1
			c6.2,7.7,15,13.3,25.3,15.2c2.4,0.4,4.8,0.6,7.1,0.6c10.2,0,19.7-3.8,27.1-10.3c7.4-6.5,12.7-15.7,14.4-26.4L723.7,364.1"/>
		<path class="st1" d="M623.5,347l-0.5-1.3L623.5,347L623.5,347l-0.5-1.3L623.5,347c0,0,4-1.4,9-1.4c2.1,0,4.4,0.2,6.7,0.9
			c2.3,0.7,4.5,1.7,6.6,3.4c1.5,1.2,3.6,0.9,4.8-0.5c1.2-1.5,0.9-3.6-0.5-4.8c-2.9-2.3-5.9-3.8-9-4.6c-3-0.9-6-1.2-8.6-1.2
			c-6.4,0-11,1.7-11.3,1.8c-1.8,0.6-2.7,2.6-2,4.3C619.8,346.7,621.7,347.7,623.5,347"/>
		<path class="st14" d="M579.9,301.4c-8.2,0.4-16,3.5-22.1,8.7c-6.6,5.5-11.3,13.2-12.8,22.3c-0.4,2.1-0.5,4.2-0.5,6.2
			c0,8.1,2.7,15.8,7.3,22.1L579.9,301.4"/>
		<path class="st1" d="M578.4,297.3c-6.4,0-20.8,2.2-31.6,20.6c-14.3,24.3,3.4,46.2,3.4,46.2l1.6-3.4c-4.6-6.3-7.3-14-7.3-22.1
			c0-2.1,0.2-4.1,0.5-6.2c1.5-9.1,6.2-16.8,12.8-22.3c6.1-5.1,13.8-8.3,22.1-8.7l1.8-3.9C581.7,297.5,580.5,297.3,578.4,297.3"/>
		<path class="st14" d="M591.5,302.6l-32.2,65.6c2.4,1.8,5,3.3,7.8,4.5l15.6-31.7c-2.7-2.1-4.2-5.6-3.7-9.2c0.7-5.1,5-8.7,10-8.7
			c0.4,0,0.9,0,1.3,0.1c0.4,0,0.7,0.1,1.1,0.2l8.5-17.3C597.3,304.6,594.5,303.4,591.5,302.6"/>
		<path class="st15" d="M588.9,323.1c-5,0-9.3,3.7-10,8.7c-0.5,3.6,1,7.1,3.7,9.2l8.7-17.7c-0.3-0.1-0.7-0.2-1.1-0.2
			C589.8,323.1,589.4,323.1,588.9,323.1"/>
		<path class="st1" d="M559.2,368.2l-1.8,3.7l8.1,4l1.6-3.2C564.3,371.6,561.6,370,559.2,368.2 M592.2,301.2l-0.7,1.5
			c3,0.8,5.8,2,8.4,3.4l0.5-0.9L592.2,301.2"/>
		<path class="st14" d="M684,320.1c-7.9,0.3-15.4,3.4-21.3,8.6c-5.4,4.7-9.5,11.2-11.5,18.7c0,0.4-0.1,0.8-0.3,1.2
			c-0.2,0.8-0.3,1.6-0.5,2.4c-0.3,2.1-0.5,4.2-0.5,6.3c0,7.7,2.3,15.1,6.3,21.2l15.1-31.8c-0.1-0.8-0.1-1.7,0-2.6
			c0.4-3.1,2.2-5.6,4.6-7.2L684,320.1"/>
		<path class="st16" d="M676,337c-2.4,1.5-4.2,4.1-4.6,7.2c-0.1,0.9-0.1,1.7,0,2.6L676,337"/>
		<path class="st1" d="M651,348.7c-0.1,0.3-0.3,0.5-0.4,0.7c-0.7,0.8-1.6,1.3-2.6,1.3c-0.6,0-1.3-0.2-1.8-0.5c-2.7,18,8.6,32,8.6,32
			l1.7-3.6c-4-6.1-6.3-13.4-6.3-21.2c0-2.1,0.2-4.2,0.5-6.3C650.6,350.3,650.8,349.5,651,348.7 M682.8,315.4
			c-6.4,0-20.8,2.2-31.6,20.6c-1.4,2.4-2.5,4.8-3.4,7.2c0.7,0.5,1.4,1,2.2,1.6c0.9,0.7,1.3,1.8,1.3,2.8c2-7.6,6.1-14,11.5-18.7
			c5.9-5.2,13.4-8.3,21.3-8.6l2.1-4.5C686.1,315.6,684.9,315.3,682.8,315.4"/>
		<path class="st1" d="M647.8,343.1c-0.9,2.4-1.4,4.8-1.8,7.1c0.6,0.4,1.2,0.5,1.8,0.5c1,0,2-0.4,2.6-1.3c0.2-0.2,0.3-0.5,0.4-0.7
			c0.2-0.4,0.3-0.8,0.3-1.2c0-1-0.4-2.1-1.3-2.8C649.3,344.1,648.6,343.6,647.8,343.1"/>
		<path class="st14" d="M695.5,321.6l-7.9,16c2.7,2.1,4.2,5.6,3.8,9.3c-0.7,5.1-5,8.7-10,8.7c-0.4,0-0.9,0-1.3-0.1
			c-0.4-0.1-0.8-0.1-1.1-0.2l-15.4,31.3c2.3,1.9,4.9,3.6,7.7,4.8l32.4-66C701.1,323.8,698.4,322.5,695.5,321.6"/>
		<path class="st16" d="M687.6,337.6l-8.7,17.7c0.4,0.1,0.7,0.2,1.1,0.2c0.5,0.1,0.9,0.1,1.3,0.1c5,0,9.3-3.7,10-8.7
			C691.9,343.2,690.3,339.7,687.6,337.6"/>
		<path class="st1" d="M663.5,386.6l-1.7,3.5l8.1,4l1.3-2.6C668.5,390.1,665.9,388.5,663.5,386.6 M696.6,319.2l-1.2,2.4
			c2.9,0.9,5.7,2.2,8.2,3.8l1.1-2.2L696.6,319.2"/>
		<path class="st2" d="M504.7,544.4l-68.2-4.8c-15.4-2-29.8,7.7-33.8,22.7L367.9,645c0,0,14.2,212.5-8.2,370.6l131.4,20.1
			C491.2,1035.8,561.7,738.6,504.7,544.4z"/>
		<path class="st2" d="M420.9,541.7L99.5,632.4c-30,7.7-47.1,48.4-37.1,77.7c8,23.5,31.1,38.3,55.8,35.8l292.4-45L420.9,541.7z"/>
		<polyline class="st5" points="371.1,708.8 410.9,702.8 410.3,699 370.6,705 		"/>
		<path class="st7" d="M154.5,372.6l-9.4-101.5c-0.7-8.9-9.3-15-17.9-12.7c-6.6,1.7-11,7.9-10.6,14.6l7.4,107.7L154.5,372.6z"/>
		<path class="st7" d="M131,331.6c0,0-43.7,12.4-71.9,28.4c-7.1,4-11.8,10.8-12.4,18.4c-1.3,17.9,0.5,54.2,28.7,90.9l69.6-5.4
			l-3.9-119L131,331.6z"/>
		<path class="st7" d="M145.1,463.8l19.6-53.2c1.3-3.6,1.3-7.5,0-11.1l-10.2-27c-2.7-7.3-10.4-11.5-18-9.9l-43,8.8
			c-7.2,1.9-11.5,9.2-9.8,16.4c1.5,6.5,7.5,11,14.2,10.6l20.1-1.3c0,0-21.4,8-26.5,47.9L145.1,463.8z"/>
		<path class="st8" d="M154.7,370.6c-0.1-0.2-1-2.6-3.3-5.2c-1.2-1.3-2.7-2.6-4.6-3.6c-1.9-1-4.3-1.7-7-1.7c-1.2,0-2.4,0.1-3.7,0.4
			c-9.2,1.9-25.5,5-37.1,7.3c-3.8,0.7-7,2.8-9.3,5.6c-2.3,2.8-3.6,6.3-3.6,10.1c0,1.1,0.1,2.2,0.3,3.3c1.5,7.3,8,12.6,15.5,12.7
			l16.2,0.1l0-2.3l-0.7-2.1c-0.3,0.1-5.4,2-11.4,8.5c-5.9,6.5-12.6,17.7-15.9,36.1c-0.2,1.2,0.6,2.4,1.8,2.6
			c1.2,0.2,2.4-0.6,2.6-1.8c3.2-17.7,9.4-28,14.8-33.8c2.7-2.9,5.1-4.8,6.9-5.9c0.9-0.5,1.6-0.9,2-1.1c0.2-0.1,0.4-0.2,0.5-0.2
			l0.1,0l0,0l-0.4-1l0.3,1l0,0l-0.4-1l0.3,1c1-0.4,1.7-1.4,1.5-2.5c-0.2-1.1-1.1-1.9-2.2-1.9l-16.2-0.1c-5.4,0-10-3.8-11.1-9.1
			c-0.2-0.8-0.2-1.6-0.2-2.3c0-2.7,0.9-5.2,2.6-7.2c1.6-2,3.9-3.4,6.7-4c11.7-2.2,28-5.4,37.2-7.3c1-0.2,1.9-0.3,2.8-0.3
			c2,0,3.5,0.5,4.9,1.2c2,1,3.5,2.7,4.4,4c0.5,0.7,0.8,1.3,1,1.8c0.1,0.2,0.2,0.4,0.2,0.5l0,0.1l0,0l0.7-0.3l-0.7,0.3l0,0l0.7-0.3
			l-0.7,0.3c0.4,1.2,1.7,1.7,2.9,1.3C154.5,373.1,155.1,371.8,154.7,370.6L154.7,370.6z"/>
		<polygon class="st2" points="61.2,706.9 52.2,469.7 164.9,452 186.8,684.8 		"/>
		<polyline class="st5" points="177.9,610.4 182.3,665 186.1,664.7 181.7,610.1 		"/>
	</g>
</g>
</svg>
