<?xml version="1.0" encoding="utf-8"?>
<!-- Generator: Adobe Illustrator 24.0.2, SVG Export Plug-In . SVG Version: 6.00 Build 0)  -->
<svg version="1.1" id="Capa_1" xmlns="http://www.w3.org/2000/svg" xmlns:xlink="http://www.w3.org/1999/xlink" x="0px" y="0px"
	 viewBox="0 0 350 280" style="enable-background:new 0 0 350 280;" xml:space="preserve">
<style type="text/css">
	.st0{fill:#7272DD;}
	.st1{clip-path:url(#SVGID_2_);fill:#334549;}
	.st2{clip-path:url(#SVGID_2_);fill:#B8B8F4;}
	.st3{clip-path:url(#SVGID_2_);fill:#C8CCF7;}
	.st4{clip-path:url(#SVGID_2_);fill:#7272DD;}
	.st5{clip-path:url(#SVGID_2_);fill:#9494ED;}
	.st6{clip-path:url(#SVGID_2_);fill:#F98094;}
	.st7{clip-path:url(#SVGID_2_);fill:#FFFFFF;}
	.st8{clip-path:url(#SVGID_2_);fill:#854DCE;}
	.st9{clip-path:url(#SVGID_2_);fill:#F7B59C;}
	.st10{clip-path:url(#SVGID_2_);fill:#01263A;}
	.st11{clip-path:url(#SVGID_2_);fill:#003051;}
	.st12{clip-path:url(#SVGID_2_);fill:#ED9780;}
	.st13{clip-path:url(#SVGID_2_);fill:#8D1612;}
	.st14{clip-path:url(#SVGID_2_);fill:#F9796B;}
	.st15{clip-path:url(#SVGID_2_);fill:#FAFFF7;}
	.st16{clip-path:url(#SVGID_2_);fill:#452E17;}
	.st17{clip-path:url(#SVGID_2_);fill:#F4F4F4;}
	.st18{fill:#FFFFFF;}
</style>
<g>
	<polyline class="st0" points="0,0 350,0 350,280 0,280 0,0 	"/>
	<g>
		<defs>
			<polyline id="SVGID_1_" points="0,0 350,0 350,280 0,280 0,0 			"/>
		</defs>
		<clipPath id="SVGID_2_">
			<use xlink:href="#SVGID_1_"  style="overflow:visible;"/>
		</clipPath>
		<path class="st1" d="M380.9,113.8v184.8c0,4.4-3.6,8-8,8H68.1c-4.4,0-8-3.6-8-8V113.8c0-4.4,3.6-8,8-8H373
			C377.4,105.8,380.9,109.4,380.9,113.8"/>
		<polyline class="st2" points="374.5,274.6 66,274.6 66,111.7 374.5,111.7 374.5,274.6 		"/>
		<polyline class="st3" points="344,111.7 335.3,111.7 335.3,250.2 344,250.2 344,111.7 		"/>
		<polyline class="st3" points="81.1,111.7 72.4,111.7 72.4,250.2 81.1,250.2 81.1,111.7 		"/>
		<polyline class="st3" points="103,111.7 94.3,111.7 94.3,250.2 103,250.2 103,111.7 		"/>
		<polyline class="st3" points="124.9,111.7 116.2,111.7 116.2,250.2 124.9,250.2 124.9,111.7 		"/>
		<polyline class="st3" points="146.8,111.7 138.1,111.7 138.1,250.2 146.8,250.2 146.8,111.7 		"/>
		<polyline class="st3" points="168.7,111.7 160.1,111.7 160.1,250.2 168.7,250.2 168.7,111.7 		"/>
		<polyline class="st3" points="190.6,111.7 182,111.7 182,250.2 190.6,250.2 190.6,111.7 		"/>
		<polyline class="st3" points="212.5,111.7 203.9,111.7 203.9,250.2 212.5,250.2 212.5,111.7 		"/>
		<polyline class="st3" points="234.4,111.7 225.8,111.7 225.8,250.2 234.4,250.2 234.4,111.7 		"/>
		<polyline class="st3" points="256.3,111.7 247.7,111.7 247.7,250.2 256.3,250.2 256.3,111.7 		"/>
		<polyline class="st3" points="278.2,111.7 269.6,111.7 269.6,250.2 278.2,250.2 278.2,111.7 		"/>
		<polyline class="st3" points="300.1,111.7 291.5,111.7 291.5,250.2 300.1,250.2 300.1,111.7 		"/>
		<polyline class="st3" points="322.1,111.7 313.4,111.7 313.4,250.2 322.1,250.2 322.1,111.7 		"/>
		<rect x="66" y="250.2" class="st4" width="308.4" height="24.4"/>
		<path class="st5" d="M362.7,264.8H109.6c-1.3,0-2.4-1.1-2.4-2.4s1.1-2.4,2.4-2.4h253.1c1.3,0,2.4,1.1,2.4,2.4
			S364,264.8,362.7,264.8z"/>
		<path class="st6" d="M236.1,260v4.8H109.6c-1.3,0-2.4-1.1-2.4-2.4c0-1.3,1.1-2.4,2.4-2.4H236.1z"/>
		<path class="st7" d="M240.5,262.4c0,2.4-1.9,4.3-4.3,4.3s-4.3-1.9-4.3-4.3c0-2.4,1.9-4.3,4.3-4.3S240.5,260,240.5,262.4z"/>
		<circle class="st7" cx="86.7" cy="262.4" r="9.6"/>
		<path class="st8" d="M85.2,258.1l5.3,4.1c0.2,0.1,0.2,0.4,0,0.5l-5.3,4.1c-0.2,0.2-0.5,0-0.5-0.3v-8.1
			C84.7,258.1,85,257.9,85.2,258.1z"/>
		<path class="st9" d="M167.6,235.8l-15-25.7l-23.8,1.9l-6.5,5.9c-0.8-1-0.7-0.7-1.3-1.5c-5-5.6-16.8-15-26.1-24.6
			C84.5,180.9,76.5,170,76.5,170l-1.9,0.9c0-1,0-1.6,0-1.6l-8.4-11.2l-10.1-0.7l-7.5,9.2l0.4,4.9c0,0,0.1,7.5,6,8.3
			c1.8,0.2,6.2,1.1,7.7,2c4,2.8,7.2,6.6,9.5,11c6.6,13,16.3,31.6,25.4,47.5c0,0,0.3,0.7,1,1.7c3.2,5,13,19.6,21,20.3
			C129.3,263.2,167.6,235.8,167.6,235.8z"/>
		<path class="st10" d="M201.7,100.5c0,0,3.2-4.8,7.6-5.9c4.4-1.1-4.8,10.2-4.8,10.2s-2.5,1.1-2.8,0.9S201.7,100.5,201.7,100.5z"/>
		<path class="st11" d="M283.5,66.4c0,0,31.3,11.2-6,43.6l-5.6-1.7L283.5,66.4z"/>
		<path class="st9" d="M204.3,163.7c14.9,18.2,34.9,21.1,34.9,21.1c34.7-0.7,40.6-19.8,40.6-19.8l-19.4-4.3c0,0-0.6-25.3,10.2-40.9
			c8.1,1.6,11.8-11.2,9.6-14.6c-2.4-3.7-5.1-3.2-5.1-3.2c-2.3,2.5-4.4,8.3-5.4,11.2l-48.3,25c0,0,0.6,1.2,1.3,3.5
			c0.7,2.4,1.6,5.9,2.2,10.5c0.3,2.8,0.5,6,0.4,9.5L204.3,163.7z M266.3,118.7c1-1.7,2.1-3.5,3.4-5.3c-0.4,1.2-0.8,2.3-1,3.3
			C267.3,117.8,266.3,118.7,266.3,118.7z"/>
		<path class="st12" d="M222.7,141.7c0.7,2.4,1.6,5.9,2.2,10.5c40.3-8.8,41.4-30.6,41.4-30.6l-20.7,8.4L222.7,141.7z"/>
		<path class="st10" d="M216.3,52.8c0,0-8.8,16.3-2.7,27l14-18.1"/>
		<path class="st9" d="M201,135.6c9.3,14.7,43.3,14.3,59.2-6.7c16-21,18.6-45.1,10.6-59.9c-4.4-8.2-15-13-25.5-13.8
			c-2.8-0.2-5.6,0-8.3,0.6c-6.4,1.4-12.1,5-16.4,10c-0.4,0.5-0.8,0.9-1.1,1.4l-2.4,3.2c-0.3,0.4-0.6,0.8-0.9,1.3
			c-1.5,2.3-2.7,4.8-3.5,7.4c-0.4,1.4-0.8,2.8-1,4.2c-0.6,3.9-2.1,8.9-5.7,13.4C198.8,105.5,191.7,120.9,201,135.6z"/>
		<path class="st12" d="M220.6,65.9c2.3,1,6.1,2.2,10.8,2.8c8.1,1,24.5,2.6,30,8.6c0,0,2.3,2.1,3.7,6.8c1.3,4.7-3-15.9-3-15.9
			L237,55.9C230.7,57.3,224.9,60.8,220.6,65.9z"/>
		<path class="st12" d="M268,90.5c0,0-0.1,21.2-11.3,26.8c-11.2,5.6-18.9-1.3-24-5c-2.9-2.1-4,3.3-4,3.3s5.9,9.7,8.8,9.7
			c2.9,0,14.7-0.2,15.6-0.7s7.6-3.8,7.6-3.8s4.6-7.9,5-8.8c0.3-0.8,5.6-9.9,5.4-11c-0.2-1.1-0.2-8.6-0.2-8.6L268,90.5z"/>
		<path class="st11" d="M216.6,25c-2.6,0.5-5,5.9-6.1,8.4c-1.6,3.5-4.5,11.9,2.2,21.2c7.6,10.6,24.2,10.6,36.5,13.8
			c11,2.8,16.4,9.9,15.7,17.9c-0.2,2.2,0.6,4.4,2,6.1l0.2,0.3c1.4,1.6,1.9,3.6,1.5,5.7c-1.3,6.4-5.3,19.4-15.2,22.3
			c-8.5,2.5-12-0.7-13.5-1.8c-5-3.8-7.8-8-17.5-12.7c-5-2.5-10.5-2.1-17.6-3.2c-1.3-0.2-3.1-0.4-3.3-2.5c0,0-15.4,18.1-4.6,37
			c2.7,4.7,7.2,8.1,12.5,9.4c7.3,1.8,19.3,2.8,33.3-3.6c22.9-10.4,30.5-34,33.6-41.5c3.1-7.4,11-27.5,5.1-46
			c-3.7-11.4-15.2-21-34.1-21.9C234.3,33.3,224.5,23.4,216.6,25z"/>
		<path class="st13" d="M231.7,117.3c0,0-0.3,0.6-1,1.5c-2.1,2.7-7.5,7.8-16.8,3.3c-2.9-1.4-4.4-3.3-5.1-5.3c-1.4-4,0.7-8.1,0.7-8.1
			s3.4,2.3,8.1,4.5c4,1.9,9,3.8,13.5,4.1C231.3,117.3,231.5,117.3,231.7,117.3z"/>
		<path class="st14" d="M231.4,116.5l-0.2,0.8l-0.4,1.5c-2.1,2.7-7.5,7.8-16.8,3.3c-2.9-1.4-4.4-3.3-5.1-5.3
			c3.8-3.7,7.6-3.7,7.6-3.7h6.2L231.4,116.5z"/>
		<path class="st15" d="M210,108.7c0,0-2.6,3.2-2.6,4.2c0,1.4,17.1,9.5,18,9.5c0.9,0.1,2.5-3.2,2.5-3.2L221,115"/>
		<path class="st11" d="M210.8,74.1c-0.4,0.9-0.1,0.1-0.4,1.3c-0.4,1.3,0.5,2.5,1.8,3c3.2,1.1,12.9,5,12.9,5c1,0.6,1-0.5,0.7-1.2
			c-1.3-2.7-2.6-6-11.8-9.1C212.7,72.7,211.4,72.8,210.8,74.1z"/>
		<path class="st11" d="M256.5,92.5c-0.4,0.9,0,0.1-0.7,1.3c-0.7,1.2-2.1,1.4-3.4,0.8c-3-1.5-12.5-5.9-12.5-5.9
			c-1.1-0.3-0.3-1.1,0.4-1.3c2.8-0.9,6.1-2.3,14.7,2.3C256.2,90.1,257,91.2,256.5,92.5z"/>
		<path class="st11" d="M206,109.3c0,0,5.4,6.9,12.9,4.8c0,0,0.1,5.6,12.6,7.4l1.1-4.4c0,0-8.1-4.3-8.6-4c-0.5,0.3-8.2-2.1-9.7-2.3
			s-6.5-4.2-6.5-4.2L206,109.3z"/>
		<path class="st12" d="M276.3,106.4c0,0-4.6,6.5-3.9,9.3c0,0,0.2-1.6,4.4-1.6c0,0,2.7-3.8,1.3-6.6
			C277.5,106.1,276.3,106.4,276.3,106.4z"/>
		<path class="st16" d="M240.4,94.5c-1.4,2.3-2,4.9,0.3,6.7c0.8,0.6,2.1,0.3,2.7-0.3c1.2-1.1,1.4-1.7,2.1-3
			C247,94.9,242.2,91.5,240.4,94.5z"/>
		<path class="st7" d="M240.8,95.9c-0.4,0.6-0.5,1.3,0.1,1.8c0.2,0.2,0.5,0.1,0.7-0.1c0.3-0.3,0.2-0.6,0.4-1
			C242.4,95.8,241.2,95.1,240.8,95.9z"/>
		<path class="st16" d="M215.4,86.1c-1.2,1.8-1.7,3.8,0.1,5.3c0.6,0.5,1.6,0.3,2.1-0.2c1-0.9,1.1-1.6,1.6-2.6
			C220.6,86.3,216.9,83.8,215.4,86.1z"/>
		<path class="st7" d="M215.6,87.2c-0.3,0.5-0.4,1,0,1.4c0.2,0.1,0.4,0.1,0.6,0c0.3-0.2,0.2-0.5,0.3-0.7
			C216.9,87.1,216,86.5,215.6,87.2z"/>
		<path class="st9" d="M76.9,170.5c0,0-12-25.8-20.4-31.8c0,0-2.9,0.5-2.6,4s5.4,8,5.7,11.3s-2,2.9-4.8,2.3
			c-2.8-0.6-23.3-12-25.3-11c-2.1,1,0.1,3.1,1.5,4.3c1.4,1.2,12.4,8,12.4,8s-19.7-10.8-21.2-7.1c-1,2.4,17.4,11.8,17.4,11.8
			s-15.7-8.8-16.5-5.5c-0.6,2.8,12.7,9.1,12.7,9.1s-8.2-4.3-8.9-2.4c-0.8,2.4,10.7,8.6,14,10.8c3.3,2.2,11.4,5.6,14.6,5.6
			c3.2-0.1,5.6-0.4,7.3,1.4"/>
		<path class="st7" d="M296.4,225.7l6.6,24.5H182.7c0-6.3-0.3-13.9-0.8-21.4L156,244.7c-8.5-16.8-26.9-32.7-27.2-32.7
			c18-17.6,40-37.6,52-45.9c5.7-4,33.3-5.6,36.9-5.9c3.1-0.3,5.9-2.2,7.4-4.9c0,0,3.8,8.9,10.1,12.1c1.7,0.7,1.9,10.8,4,10.8
			c0.6,0,5.3-10.6,5.9-10.7c0,0,7.4-1.3,15.6-13.6l1.5,2c1.3,1.8,3.3,3.1,5.5,3.6c4.2,1,11.6,3,19,5.9c10.3,4.2,21.7,24,21.7,24
			l2.6,36.3l-15.2-0.7L296.4,225.7z"/>
		<polygon class="st17" points="285.3,219.5 288.2,250.2 303,250.2 300.4,230.2 		"/>
		<polyline class="st9" points="329.6,214.6 343,250.2 303,250.2 296.4,235.8 		"/>
		<path class="st7" d="M271.1,160.4c0,0,30.6,4.4,39.8,13.5c4.6,4.5,8.3,13.2,14,26.3c9.4,21.4,13.8,33,13.8,33
			s-23.2,16.1-46.4,11.3l-11.4-32.8L271.1,160.4z"/>
		<path class="st7" d="M225.7,91.4l-0.4-0.2c-1.5,3.7-4.9,6-8.3,6c-0.9,0-1.9-0.2-2.8-0.5c-3.1-1.2-4.9-4.4-4.9-7.8
			c0-1.2,0.2-2.5,0.7-3.8c1.5-3.7,4.9-6,8.3-6c0.9,0,1.9,0.2,2.8,0.5c3.1,1.2,4.9,4.4,4.9,7.8c0,1.2-0.2,2.5-0.7,3.8L225.7,91.4
			l0.4,0.2c0.6-1.4,0.8-2.8,0.8-4.1c0-3.8-2-7.3-5.5-8.7c-1-0.4-2.1-0.6-3.2-0.6c-3.8,0-7.5,2.5-9.2,6.6c-0.6,1.4-0.8,2.8-0.8,4.1
			c0,3.8,2,7.3,5.5,8.7c1,0.4,2.1,0.6,3.2,0.6c3.8,0,7.5-2.5,9.2-6.6L225.7,91.4z"/>
		<path class="st7" d="M249.3,101l-0.4-0.2c-1.5,3.7-4.9,6-8.3,6c-0.9,0-1.9-0.2-2.8-0.5c-3.1-1.2-4.9-4.4-4.9-7.8
			c0-1.2,0.2-2.5,0.7-3.8c1.5-3.7,4.9-6,8.3-6c0.9,0,1.9,0.2,2.8,0.5c3.1,1.2,4.9,4.4,4.9,7.8c0,1.2-0.2,2.5-0.7,3.8L249.3,101
			l0.4,0.2c0.6-1.4,0.8-2.8,0.8-4.1c0-3.8-2-7.3-5.5-8.7c-1-0.4-2.1-0.6-3.2-0.6c-3.8,0-7.5,2.5-9.2,6.6c-0.6,1.4-0.8,2.8-0.8,4.1
			c0,3.8,2,7.3,5.5,8.7c1,0.4,2.1,0.6,3.2,0.6c3.8,0,7.5-2.5,9.2-6.6L249.3,101z"/>
		<path class="st7" d="M226,91.2L226,91.2c0.1,0,0.3,0,0.5,0c0.7,0,1.9,0.1,3.1,0.6c1.2,0.5,2.4,1.3,3.1,2.9l0.9-0.4
			c-0.8-1.8-2.3-2.8-3.6-3.4c-1.4-0.5-2.7-0.6-3.4-0.6c-0.4,0-0.6,0-0.6,0L226,91.2L226,91.2z"/>
		<path class="st7" d="M249.6,100.6l26.8,1.7c0.3,0,0.5-0.2,0.5-0.4c0-0.3-0.2-0.5-0.4-0.5l-26.8-1.7c-0.3,0-0.5,0.2-0.5,0.4
			S249.3,100.5,249.6,100.6"/>
		<path class="st17" d="M189.3,250.2h-6.6c0-6.3-0.3-13.9-0.8-21.4l5.3-3C187.2,225.9,189.5,243.5,189.3,250.2z"/>
		<path class="st12" d="M228.4,93c0,0-1.8,1.4-3.6,3.1c-0.9,0.9-1.9,1.8-2.7,2.7c-0.8,0.9-1.4,1.8-1.6,2.7c0,0.2-0.1,0.3-0.1,0.5
			c0,0.5,0.2,1,0.4,1.4c0.8,1.2,2.1,2.1,2.2,2.1c0.2,0.1,0.5,0.1,0.7-0.1c0.1-0.2,0.1-0.5-0.1-0.7l-0.1-0.1
			c-0.2-0.1-0.8-0.6-1.2-1.1c-0.5-0.5-0.9-1.1-0.8-1.6l0-0.2c0.1-0.6,0.7-1.4,1.4-2.3c1.1-1.3,2.7-2.8,3.9-3.8
			c0.6-0.5,1.2-1,1.6-1.3c0.4-0.3,0.6-0.5,0.6-0.5c0.2-0.2,0.2-0.5,0.1-0.7C228.9,92.9,228.6,92.8,228.4,93L228.4,93z"/>
	</g>
	<polygon class="st18" points="37.5,96 182.1,93.8 181.3,125.8 40.8,137.9 	"/>
	<path class="st0" d="M53.6,105.8l3.2,10.2l4.7-10.5c1.2-0.3,2.3-0.4,3.4-0.1l-0.5,18.1l-4,0.2l0.2-8.7l-3.4,8.6
		c-0.6,0.3-1.2,0.2-1.7-0.3l-2.3-8.2l-0.3,8.8l-3.9,0.1l0.6-18.2C50.5,105.4,51.8,105.4,53.6,105.8z"/>
	<path class="st0" d="M76.3,104.6l5.5,17.4c-1.1,0.8-2.5,1-4.3,0.7l-1-3.2l-4.5,0.7l-1,3.3c-1.8,0.3-3.2,0.1-4.1-0.6l5.8-18.1
		C73.9,104,75.1,103.9,76.3,104.6z M74.4,110.5l-1.7,6.1l3-0.5L74.4,110.5z"/>
	<path class="st0" d="M95.7,104c0.4,1.3,0.4,2.5-0.1,3.6l-8,0.5l-0.1,3.1l6.6-0.4c0.7,1.2,0.6,2.3,0,3.4l-6.7,0.5l-0.2,3.8l8.2-0.5
		c0.7,1.4,0.7,2.8-0.1,4.1L83.8,123c-0.4-0.1-0.6-0.3-0.7-0.7l0.5-16.8c0.1-0.3,0.3-0.6,0.5-0.7L95.7,104z"/>
	<path class="st0" d="M99.1,120.3c-0.6-1.8-0.3-3.3,0.8-4.3c2.1,1.2,3.7,1.9,4.6,2.1c1.8-0.1,2.7-0.6,2.8-1.4c0-0.7-0.5-1.3-1.7-1.9
		l-3.2-1.4c-2-1-3.1-2.4-3.2-4.3c0-1.1,0.4-2.1,1-3c0.6-0.9,1.4-1.5,2.2-1.8c0.8-0.3,1.8-0.4,3-0.4c2.2,0.1,4.1,0.6,5.7,1.6
		c0.1,1.5-0.3,2.9-1.3,4.1c-2-1.4-3.6-2-4.8-1.9c-1.1-0.1-1.7,0.3-1.7,1.3c0,0.5,0.8,1.2,2.4,2c1.9,0.7,3.3,1.5,4.2,2.4
		c0.9,0.9,1.4,2.1,1.3,3.5c-0.1,1.9-0.9,3.3-2.5,4.4c-1,0.8-2.5,1.1-4.4,1C102.6,122,100.8,121.4,99.1,120.3z"/>
	<path class="st0" d="M127,102.9c0.6,1.3,0.6,2.6,0,3.9l-4.5,0.2l-0.2,14.2c-1.2,0.6-2.6,0.6-4.1,0.1l0.3-14l-4.4,0.3
		c-1-1.5-1-2.8-0.2-3.9L127,102.9z"/>
	<path class="st0" d="M132.1,103c4-0.5,6.9-0.7,8.5-0.5c1.6,0.2,2.7,0.9,3.1,2.1c0.5,1.2,0.6,2.8,0.2,4.9c-0.3,2.1-1.8,3.5-4.4,4.2
		l4.5,5.4c-0.7,1.6-2.1,2.2-3.9,1.7l-4.5-6.1l-1.4,0.2l-0.4,5.8c-1.6,0.6-3,0.6-4-0.2l1-16.8L132.1,103z M134.8,106.3l-0.3,5.1
		c3.4-0.3,5.2-1,5.6-2c0.4-1,0.4-1.9,0-2.6C139.6,106,137.9,105.8,134.8,106.3z"/>
	<path class="st0" d="M154.9,101.9c2.2-0.1,4,0.7,5.4,2.4c1.4,1.7,2,3.9,1.8,6.6c-0.1,2.7-1,4.9-2.5,6.7c-1.5,1.8-3.4,2.7-5.6,2.8
		c-2.3,0.1-4.1-0.7-5.6-2.4c-1.5-1.6-2.2-3.8-2-6.5c0.1-2.7,1-4.9,2.7-6.8C150.7,102.9,152.6,102,154.9,101.9z M154.7,106.5
		c-1.1,0-2,0.5-2.9,1.4s-1.3,2.1-1.4,3.5s0.2,2.7,1,3.6c0.8,0.9,1.8,1.3,2.9,1.2c1.1-0.1,2-0.6,2.7-1.5c0.7-0.9,1.1-2.1,1.2-3.5
		c0.1-1.4-0.2-2.5-0.9-3.4C156.6,106.9,155.8,106.5,154.7,106.5z"/>
	<path class="st0" d="M166.1,115.4c0.3,0,0.7,0.1,1,0.2c0.3,0.2,0.6,0.4,0.8,0.7c0.2,0.3,0.3,0.6,0.3,1c0,0.3-0.1,0.7-0.2,1
		c-0.2,0.3-0.4,0.6-0.7,0.8s-0.6,0.3-1,0.3c-0.3,0-0.7-0.1-1-0.2c-0.3-0.2-0.6-0.4-0.8-0.7c-0.2-0.3-0.3-0.6-0.3-1
		c0-0.3,0.1-0.7,0.2-1c0.2-0.3,0.4-0.6,0.7-0.8C165.4,115.5,165.7,115.4,166.1,115.4z M165.4,101.4l-0.2,12.8
		c0.7,0.4,1.6,0.5,2.6,0.1l2-12.4C168.6,101,167.1,100.9,165.4,101.4z"/>
	<polygon class="st18" points="43.3,57.8 180.1,56.7 179.7,88.2 39.5,96 	"/>
	<path class="st0" d="M47.2,85.2l2-12.4c1-0.4,1.9-0.4,2.6,0.1l-0.2,12.8C50,86.2,48.5,86.1,47.2,85.2z M52,71.4
		c0.3-0.2,0.5-0.4,0.7-0.8c0.2-0.3,0.2-0.7,0.2-1c0-0.3-0.1-0.7-0.3-1c-0.2-0.3-0.4-0.5-0.8-0.7c-0.3-0.2-0.7-0.2-1-0.2
		c-0.3,0-0.7,0.1-1,0.3c-0.3,0.2-0.5,0.4-0.7,0.8c-0.2,0.3-0.2,0.7-0.2,1c0,0.4,0.1,0.7,0.3,1c0.2,0.3,0.4,0.5,0.8,0.7
		c0.3,0.2,0.7,0.2,1,0.2C51.3,71.6,51.6,71.5,52,71.4z"/>
	<path class="st0" d="M67.4,67.5c0.4,1.3,0.4,2.5-0.1,3.6l-8,0.5l-0.1,4.1l6.5-0.4c0.7,1.2,0.7,2.3,0,3.4l-6.7,0.5l-0.2,6.9
		c-1.5,0.7-2.9,0.8-4,0.1l0.5-17.3c0.1-0.3,0.3-0.6,0.5-0.7L67.4,67.5z"/>
	<path class="st0" d="M82.5,66.9c0.4,1.3,0.4,2.5-0.1,3.6l-8,0.5l-0.1,3.1l6.6-0.4c0.7,1.2,0.6,2.3,0,3.4l-6.7,0.5L74,81.5l8.2-0.5
		c0.7,1.4,0.7,2.8-0.1,4.1l-11.4,0.9c-0.4-0.1-0.6-0.3-0.7-0.7l0.5-16.8c0.1-0.3,0.3-0.6,0.5-0.7L82.5,66.9z"/>
	<path class="st0" d="M89.7,66.8L89.3,81l7.3-0.5c0.7,1.4,0.7,2.8-0.1,4.1l-10.6,0.8c-0.4-0.1-0.6-0.3-0.7-0.7l0.4-17.4
		C86.5,66.7,87.9,66.6,89.7,66.8z"/>
	<path class="st0" d="M100.2,66.5c1.2-0.3,2.6-0.3,4,0l-0.8,18c-1.6,0.5-3,0.5-4.2,0L100.2,66.5z"/>
	<path class="st0" d="M107.7,66l11.7-0.4c0.8,1.1,1,2.4,0.4,3.8l-7.6,11l7.5-0.4c0.6,1.3,0.6,2.7,0.2,4.2l-12.5,0.5
		c-0.8-0.7-1-1.9-0.6-3.6l7.8-11.2l-7.4,0.3C106.9,68.6,107,67.2,107.7,66z"/>
	<path class="st0" d="M129.6,67l0.1-1.5l1.2-0.3l4.7,0c4.7,0.7,7.1,3.4,7.2,8.3c0,2.5-0.5,4.6-1.6,6.4c-1.3,2.3-4.6,3.6-10.1,3.8
		l-1.4-0.3l-0.3-1.7L129.6,67z M133.5,68.9l-0.1,10.8c2.1,0.1,3.6-0.4,4.4-1.2c0.8-0.9,1.3-2.3,1.3-4.1c0.1-1.8-0.2-3.2-0.9-4.1
		C137.6,69.3,136,68.9,133.5,68.9z"/>
	<path class="st0" d="M145.7,64.8c1.2-0.3,2.6-0.3,4,0l-0.8,18c-1.6,0.5-3,0.5-4.2,0L145.7,64.8z M150.3,59.8l-4,2.8
		c0,0.9,0.4,1.5,1.1,1.8l3.9-2.7C151.1,61,150.8,60.4,150.3,59.8z"/>
	<path class="st0" d="M161.2,64.1l5.5,17.4c-1.1,0.8-2.5,1-4.3,0.7l-1-3.2l-4.5,0.7l-1,3.3c-1.8,0.3-3.2,0.1-4.1-0.6l5.8-18.1
		C158.8,63.5,160,63.4,161.2,64.1z M159.3,70l-1.7,6.1l3-0.5L159.3,70z"/>
	<path class="st0" d="M170.2,77.9c0.4,0,0.7,0.1,1.1,0.3c0.4,0.2,0.6,0.5,0.9,0.9c0.2,0.4,0.3,0.8,0.3,1.2c0.2,0.7-0.3,2.3-1.5,5
		l-1.7-0.4l0.1-2c-0.5-0.4-0.8-0.8-1-1.2c-0.2-0.4-0.3-0.8-0.3-1.2c0-0.4,0.1-0.8,0.3-1.2c0.2-0.4,0.5-0.7,0.8-0.9
		C169.4,78,169.8,77.9,170.2,77.9z"/>
</g>
</svg>
