<?xml version="1.0" encoding="utf-8"?>
<!-- Generator: Adobe Illustrator 24.0.2, SVG Export Plug-In . SVG Version: 6.00 Build 0)  -->
<svg version="1.1" id="Capa_1" xmlns="http://www.w3.org/2000/svg" xmlns:xlink="http://www.w3.org/1999/xlink" x="0px" y="0px"
	 viewBox="0 0 900 1080" style="enable-background:new 0 0 900 1080;" xml:space="preserve">
<style type="text/css">
	.st0{clip-path:url(#SVGID_2_);fill:#7272DD;}
	.st1{clip-path:url(#SVGID_2_);fill:#334549;}
	.st2{clip-path:url(#SVGID_2_);fill:#B8B8F4;}
	.st3{clip-path:url(#SVGID_2_);fill:#C8CCF7;}
	.st4{clip-path:url(#SVGID_2_);fill:#FFFFFF;}
	.st5{clip-path:url(#SVGID_2_);fill:#9494ED;}
	.st6{clip-path:url(#SVGID_2_);fill:#F98094;}
	.st7{clip-path:url(#SVGID_2_);fill:#854DCE;}
	.st8{clip-path:url(#SVGID_2_);fill:#F7B59C;}
	.st9{clip-path:url(#SVGID_2_);fill:#01263A;}
	.st10{clip-path:url(#SVGID_2_);fill:#003051;}
	.st11{clip-path:url(#SVGID_2_);fill:#ED9780;}
	.st12{clip-path:url(#SVGID_2_);fill:#8D1612;}
	.st13{clip-path:url(#SVGID_2_);fill:#F9796B;}
	.st14{clip-path:url(#SVGID_2_);fill:#FAFFF7;}
	.st15{clip-path:url(#SVGID_2_);fill:#452E17;}
	.st16{clip-path:url(#SVGID_2_);fill:#F4F4F4;}
</style>
<g>
	<g>
		<defs>
			<polyline id="SVGID_1_" points="0,0 900,0 900,1080 0,1080 0,0 			"/>
		</defs>
		<clipPath id="SVGID_2_">
			<use xlink:href="#SVGID_1_"  style="overflow:visible;"/>
		</clipPath>
		<polyline class="st0" points="0,0 900,0 900,1080 0,1080 0,0 		"/>
		<polygon class="st1" points="753.8,1160.3 462.8,1160.3 494.4,1036 501.6,1007.8 515.5,953.2 701.2,953.2 715.1,1007.8 
			722.2,1036 		"/>
		<path class="st1" d="M1083.2,425.1v547.1c0,13-10.6,23.6-23.6,23.6H157c-13.1,0-23.6-10.6-23.6-23.6V425.1
			c0-13,10.5-23.6,23.6-23.6h902.6C1072.7,401.5,1083.2,412.1,1083.2,425.1"/>
		<polyline class="st2" points="1064.1,901.1 150.8,901.1 150.8,418.8 1064.1,418.8 1064.1,901.1 		"/>
		<polyline class="st3" points="195.3,418.8 169.7,418.8 169.7,829 195.3,829 195.3,418.8 		"/>
		<polyline class="st3" points="260.2,418.8 234.6,418.8 234.6,829 260.2,829 260.2,418.8 		"/>
		<polyline class="st3" points="325,418.8 299.4,418.8 299.4,829 325,829 325,418.8 		"/>
		<polyline class="st3" points="389.9,418.8 364.3,418.8 364.3,829 389.9,829 389.9,418.8 		"/>
		<polyline class="st3" points="454.8,418.8 429.2,418.8 429.2,829 454.8,829 454.8,418.8 		"/>
		<polyline class="st3" points="519.6,418.8 494,418.8 494,829 519.6,829 519.6,418.8 		"/>
		<polyline class="st3" points="584.5,418.8 558.9,418.8 558.9,829 584.5,829 584.5,418.8 		"/>
		<polyline class="st3" points="649.4,418.8 623.8,418.8 623.8,829 649.4,829 649.4,418.8 		"/>
		<polyline class="st3" points="714.2,418.8 688.6,418.8 688.6,829 714.2,829 714.2,418.8 		"/>
		<polyline class="st3" points="779.1,418.8 753.5,418.8 753.5,829 779.1,829 779.1,418.8 		"/>
		<polyline class="st3" points="844,418.8 818.4,418.8 818.4,829 844,829 844,418.8 		"/>
		<polyline class="st3" points="900,418.8 883.2,418.8 883.2,829 900,829 900,418.8 		"/>
		<rect x="150.8" y="829" class="st0" width="913.3" height="72.1"/>
		<path class="st4" d="M608.3,968.8L608.3,968.8c-12,0-21.9-9.9-21.9-21.9c0-12,9.9-21.9,21.9-21.9c12,0,21.9,9.9,21.9,21.9
			C630.2,959,620.3,968.8,608.3,968.8z"/>
		<path class="st5" d="M1029.1,872.1H279.8c-3.9,0-7.1-3.2-7.1-7.1s3.2-7.1,7.1-7.1h749.3c3.9,0,7.1,3.2,7.1,7.1
			S1033,872.1,1029.1,872.1z"/>
		<path class="st6" d="M654.4,858v14.2H279.8c-3.9,0-7.1-3.2-7.1-7.1c0-3.9,3.2-7.1,7.1-7.1H654.4z"/>
		<path class="st4" d="M667.4,865.1c0,7-5.7,12.8-12.7,12.8c-7,0-12.7-5.7-12.7-12.8c0-7,5.7-12.7,12.7-12.7
			C661.6,852.3,667.4,858,667.4,865.1z"/>
		<path class="st4" d="M240.4,865.1c0,15.7-12.7,28.5-28.5,28.5c-15.7,0-28.5-12.7-28.5-28.5s12.7-28.5,28.5-28.5
			C227.6,836.6,240.4,849.4,240.4,865.1z"/>
		<path class="st7" d="M207.6,852.3l15.6,12c0.5,0.4,0.5,1.1,0,1.5l-15.6,12c-0.6,0.5-1.5,0-1.5-0.7v-24
			C206.1,852.3,207,851.8,207.6,852.3z"/>
		<path class="st8" d="M451.6,786.2l-44.3-76l-70.4,5.5l-19.2,17.5c-2.5-2.9-1.9-2.2-3.9-4.4c-14.9-16.6-49.6-44.3-77.2-72.8
			c-31.3-32.3-54.7-64.7-54.7-64.7l-5.6,2.8c0-3,0-4.9,0-4.9l-24.8-33.1l-30-2l-22.3,27.1l1.1,14.5c0,0,0.4,22.3,17.8,24.6
			c5.2,0.7,18.5,3.2,22.7,6.1c12,8.2,21.4,19.5,28,32.4c19.7,38.6,48.4,93.6,75.3,140.8c0,0,1,2,3.1,5.1
			c9.4,14.9,38.4,58.1,62.2,60.2C338.2,867.5,451.6,786.2,451.6,786.2z"/>
		<path class="st9" d="M552.4,385.5c0,0,9.5-14.1,22.5-17.5c13-3.4-14.3,30.2-14.3,30.2s-7.3,3.3-8.2,2.7
			C551.6,400.5,552.4,385.5,552.4,385.5z"/>
		<path class="st10" d="M794.8,284.6c0,0,92.8,33.3-17.7,129l-16.6-5.1L794.8,284.6z"/>
		<path class="st8" d="M560.2,572.7c44.2,53.9,103.4,62.5,103.4,62.5c102.8-2,120.3-58.6,120.3-58.6L726.5,564
			c0,0-1.7-74.9,30.1-121.2c23.9,4.6,35-33,28.5-43.1c-7.1-11-15.1-9.5-15.1-9.5c-6.8,7.3-12.9,24.6-16,33.2l-143.2,74
			c0,0,1.7,3.6,3.8,10.3c2.2,7,4.9,17.5,6.4,31c0.9,8.3,1.5,17.7,1.2,28.1L560.2,572.7z M743.8,439.6c3-5.2,6.3-10.4,10-15.7
			c-1.3,3.6-2.2,6.9-2.9,9.6C746.8,437,743.9,439.6,743.8,439.6z"/>
		<path class="st11" d="M614.7,507.6c2.2,7,4.9,17.5,6.4,31c119.2-26.1,122.6-90.7,122.6-90.7l-61.2,24.8L614.7,507.6z"/>
		<path class="st9" d="M595.8,244.4c0,0-26,48.3-8.1,80.1l41.3-53.6"/>
		<path class="st8" d="M550.3,489.5c27.5,43.4,128.2,42.4,175.4-19.8c47.2-62.2,54.9-133.5,31.3-177.3
			c-13.1-24.4-44.5-38.5-75.4-40.7c-8.3-0.6-16.6,0-24.6,1.8c-18.8,4.1-36,14.7-48.7,29.6c-1.2,1.4-2.2,2.7-3.3,4.1l-7.3,9.6
			c-1,1.2-1.8,2.5-2.7,3.8c-4.6,6.8-8.1,14.2-10.5,22c-1.3,4.1-2.3,8.2-2.9,12.5c-1.8,11.4-6.2,26.4-16.9,39.7
			C544,400.3,522.9,446.2,550.3,489.5z"/>
		<path class="st11" d="M608.3,283.2c6.9,2.9,18,6.6,32,8.3c24,2.9,72.4,7.7,88.7,25.4c0,0,6.8,6.2,10.8,20c4,13.9-9-47.2-9-47.2
			L657,253.5C638.2,257.7,621,268.2,608.3,283.2z"/>
		<path class="st11" d="M748.8,356.2c0,0-0.2,62.9-33.5,79.5c-33.2,16.6-56-3.9-71.2-14.7c-8.7-6.2-11.8,9.8-11.8,9.8
			s17.3,28.8,26,28.8s43.6-0.5,46.3-2.2c2.7-1.7,22.6-11.3,22.6-11.3s13.7-23.5,14.7-25.9c1-2.5,16.6-29.2,15.9-32.6
			c-0.7-3.4-0.5-25.5-0.5-25.5L748.8,356.2z"/>
		<path class="st10" d="M596.7,162c-7.8,1.5-14.9,17.6-18.1,24.8c-4.6,10.4-13.4,35.1,6.6,62.8c22.6,31.4,71.6,31.4,108,40.8
			c32.4,8.3,48.6,29.3,46.5,53.1c-0.6,6.5,1.7,13,6,17.9l0.7,0.8c4,4.6,5.6,10.8,4.4,16.7c-3.8,18.8-15.7,57.5-45,66.1
			c-25.3,7.5-35.7-2-39.8-5.2c-14.7-11.2-23-23.6-51.8-37.6c-14.9-7.3-31-6.3-52-9.3c-3.9-0.6-9.3-1.1-9.9-7.4
			c0,0-45.7,53.7-13.7,109.4c8,14,21.3,24.1,37,27.9c21.5,5.2,57.2,8.2,98.7-10.6c67.9-30.7,90.3-100.8,99.4-122.9
			s32.5-81.4,15-136.1c-10.8-33.8-45.1-62.3-101-64.8C648.9,186.8,620,157.5,596.7,162z"/>
		<path class="st12" d="M641.2,435.5c0,0-1,1.8-2.9,4.3c-6.1,8-22.2,23.1-49.7,9.8c-8.6-4.2-13-9.8-15-15.6
			c-4.2-11.9,2.1-24.1,2.1-24.1s10.2,6.7,24,13.2c12,5.7,26.7,11.2,40,12.2C640.1,435.5,640.7,435.5,641.2,435.5z"/>
		<path class="st13" d="M640.3,433l-0.7,2.4l-1.3,4.5c-6.1,8-22.2,23.1-49.7,9.8c-8.6-4.2-13-9.8-15-15.6
			c11.3-10.9,22.6-10.9,22.6-10.9h18.4L640.3,433z"/>
		<path class="st14" d="M577,410c0,0-7.7,9.6-7.7,12.3c0,4.2,50.6,28,53.3,28.2c2.7,0.2,7.4-9.6,7.4-9.6l-20.5-12.2"/>
		<path class="st10" d="M579.5,307.4c-1.2,2.7-0.2,0.2-1.3,4c-1.1,3.9,1.4,7.4,5.2,8.8c9.5,3.4,38.2,14.8,38.2,14.8
			c3,1.7,3-1.5,2.1-3.4c-3.8-7.9-7.6-17.7-34.8-27C585.1,303.2,581.1,303.7,579.5,307.4z"/>
		<path class="st10" d="M714.7,361.8c-1.1,2.7,0,0.3-2,3.7c-2.1,3.5-6.3,4.1-10,2.3c-9-4.6-37-17.6-37-17.6c-3.3-1-1-3.2,1-3.9
			c8.3-2.7,18.1-6.7,43.5,6.7C713.8,354.9,716.2,358.1,714.7,361.8z"/>
		<path class="st10" d="M565.3,411.8c0,0,15.9,20.3,38.1,14.1c0,0,0.2,16.6,37.4,22l3.3-13c0,0-24-12.8-25.5-11.8
			c-1.6,1-24.3-6.1-28.7-6.9c-4.3-0.8-19.2-12.4-19.2-12.4L565.3,411.8z"/>
		<path class="st11" d="M773.5,403.1c0,0-13.5,19.3-11.4,27.6c0,0,0.5-4.9,12.9-4.8c0,0,8-11.2,4-19.5
			C777,402.2,773.5,403.1,773.5,403.1z"/>
		<path class="st15" d="M667,368c-4.2,6.9-6,14.5,0.9,19.9c2.2,1.8,6.1,1,8-0.8c3.5-3.4,4-5,6.1-8.9
			C686.7,369.2,672.4,359.1,667,368z"/>
		<path class="st4" d="M668.1,372c-1.1,1.8-1.6,3.8,0.2,5.2c0.6,0.5,1.6,0.3,2.1-0.2c0.9-0.9,0.7-1.8,1.2-2.8
			C672.9,371.8,669.5,369.7,668.1,372z"/>
		<path class="st15" d="M592.9,343c-3.5,5.4-5.1,11.3,0.3,15.8c1.7,1.4,4.8,0.9,6.3-0.5c2.9-2.6,3.1-4.7,4.8-7.7
			C608.3,343.5,597.4,336.1,592.9,343z"/>
		<path class="st4" d="M593.7,346.2c-0.9,1.4-1.3,3,0.1,4.1c0.5,0.4,1.3,0.2,1.7-0.1c0.8-0.7,0.6-1.4,1-2.2
			C597.5,346.1,594.9,344.4,593.7,346.2z"/>
		<path class="st8" d="M182.9,593.1c0,0-35.5-76.3-60.3-94.3c0,0-8.7,1.4-7.7,12c1,10.6,16.1,23.6,16.7,33.5c0.7,9.9-6,8.5-14.2,6.7
			c-8.2-1.9-68.9-35.7-74.9-32.7c-6.1,3,0.2,9.3,4.4,12.7c4.3,3.4,36.7,23.8,36.7,23.8s-58.4-32-62.7-20.9
			C18,541.1,72.3,569,72.3,569s-46.6-26.1-48.8-16.4c-1.8,8.3,37.7,26.8,37.7,26.8s-24.4-12.8-26.2-7.2
			c-2.3,7.1,31.6,25.5,41.4,31.9c9.8,6.4,33.8,16.7,43.3,16.4s16.5-1.2,21.7,4.1"/>
		<path class="st4" d="M832.9,756.4l19.6,72.6H496.3c0-18.8-1-41.1-2.5-63.2l-76.6,46.9c-25-49.6-79.6-96.9-80.4-96.9
			c53.2-52.2,118.4-111.3,153.9-135.9c17-11.8,98.7-16.6,109.3-17.6c9.2-0.9,17.4-6.4,21.8-14.5c0,0,11.4,26.4,29.9,36
			c5,2.1,5.5,32,11.8,31.8c1.9-0.1,15.6-31.3,17.4-31.6c0,0,21.9-3.7,46.2-40.2l4.3,5.9c4,5.4,9.7,9.2,16.2,10.7
			c12.4,2.9,34.5,8.8,56.2,17.6c30.5,12.3,64.2,70.9,64.2,70.9l7.6,107.6l-44.9-2L832.9,756.4z"/>
		<polygon class="st16" points="800.1,738 808.5,829 852.5,829 844.7,769.7 		"/>
		<polyline class="st8" points="931.1,723.7 970.7,829 852.5,829 832.9,786.2 		"/>
		<path class="st4" d="M757.8,562.9c0,0,90.7,13.1,117.8,40.1c13.5,13.5,24.6,39.2,41.5,77.9c27.7,63.3,40.8,97.7,40.8,97.7
			s-68.6,47.7-137.4,33.5l-33.7-97L757.8,562.9z"/>
		<path class="st4" d="M623.6,358.8l-1.3-0.5c-4.4,11-14.5,17.7-24.5,17.7c-2.8,0-5.6-0.5-8.3-1.6c-4.6-1.8-8.2-5.1-10.7-9.1
			c-2.5-4.1-3.9-9-3.9-14.1c0-3.7,0.7-7.5,2.2-11.2c4.4-11,14.5-17.7,24.5-17.7c2.8,0,5.6,0.5,8.3,1.6c4.6,1.8,8.2,5.1,10.7,9.1
			c2.5,4.1,3.9,9,3.9,14.1c0,3.7-0.7,7.5-2.2,11.2L623.6,358.8l1.3,0.5c1.6-4,2.4-8.2,2.4-12.2c0-5.6-1.5-11-4.3-15.6
			c-2.8-4.5-6.9-8.2-12.1-10.3c-3-1.2-6.2-1.8-9.4-1.8c-11.3,0-22.3,7.5-27.2,19.5c-1.6,4-2.4,8.2-2.4,12.2c0,5.6,1.5,11,4.3,15.6
			c2.8,4.5,6.9,8.2,12.1,10.3c3,1.2,6.2,1.8,9.4,1.8c11.3,0,22.3-7.5,27.2-19.5L623.6,358.8z"/>
		<path class="st4" d="M693.5,387.2l-1.3-0.5c-4.4,11-14.5,17.7-24.5,17.7c-2.8,0-5.6-0.5-8.3-1.6c-4.6-1.8-8.2-5.1-10.7-9.1
			c-2.5-4.1-3.9-9-3.9-14.1c0-3.7,0.7-7.5,2.2-11.2c4.4-11,14.5-17.7,24.5-17.7c2.8,0,5.6,0.5,8.3,1.6c4.6,1.8,8.2,5.1,10.7,9.1
			c2.5,4.1,3.9,9,3.9,14.1c0,3.7-0.7,7.5-2.2,11.2L693.5,387.2l1.3,0.5c1.6-4,2.4-8.2,2.4-12.2c0-5.6-1.5-11-4.3-15.6
			c-2.8-4.5-6.9-8.2-12.1-10.3c-3-1.2-6.2-1.8-9.4-1.8c-11.3,0-22.3,7.5-27.2,19.5c-1.6,4-2.4,8.2-2.4,12.2c0,5.6,1.5,11,4.3,15.6
			c2.8,4.5,6.9,8.2,12.1,10.3c3,1.2,6.2,1.8,9.4,1.8c11.3,0,22.3-7.5,27.2-19.5L693.5,387.2z"/>
		<path class="st4" d="M624.5,358.3L624.5,358.3c0.1,0,0.7-0.1,1.6-0.1c2,0,5.6,0.3,9.1,1.7c1.8,0.7,3.5,1.7,5.1,3.1
			c1.6,1.4,3,3.2,4.1,5.5l2.6-1.2c-1.2-2.7-2.9-4.8-4.8-6.4c-2.8-2.4-6-3.8-8.9-4.6c-2.9-0.8-5.5-0.9-7.2-0.9
			c-1.2,0-1.9,0.1-1.9,0.1L624.5,358.3L624.5,358.3z"/>
		<path class="st4" d="M694.3,385.8l79.4,5c0.8,0,1.5-0.5,1.5-1.3c0-0.8-0.5-1.5-1.3-1.5l-79.4-5c-0.8,0-1.5,0.5-1.5,1.3
			C693,385.1,693.6,385.8,694.3,385.8"/>
		<path class="st16" d="M515.8,829h-19.4c0-18.8-1-41.1-2.5-63.2l15.8-8.8C509.6,756.9,516.2,809,515.8,829z"/>
		<path class="st11" d="M631.4,363.4c0,0-5.2,4-10.7,9.1c-2.8,2.5-5.6,5.4-7.9,8.1c-1.2,1.4-2.2,2.7-3,4c-0.8,1.3-1.5,2.6-1.8,3.8
			c-0.1,0.5-0.2,1-0.2,1.5c0,1.5,0.6,2.9,1.3,4.1c1.1,1.8,2.7,3.4,4,4.5c1.3,1.1,2.4,1.8,2.4,1.8c0.7,0.4,1.5,0.3,2-0.4
			c0.4-0.7,0.3-1.5-0.4-2l0,0c-0.2-0.1-1.9-1.3-3.5-2.9c-0.8-0.8-1.6-1.7-2.1-2.6c-0.6-0.9-0.9-1.8-0.8-2.6c0-0.3,0-0.5,0.1-0.7
			c0.2-0.8,0.7-1.9,1.5-3.1c1.3-2,3.2-4.4,5.5-6.7c3.3-3.5,7.2-7,10.3-9.6c1.5-1.3,2.8-2.4,3.8-3.1c0.5-0.4,0.8-0.7,1.1-0.9
			c0.3-0.2,0.4-0.3,0.4-0.3c0.6-0.5,0.7-1.4,0.3-2C633,363.1,632.1,363,631.4,363.4L631.4,363.4z"/>
		<polygon class="st4" points="118.6,231.9 530.7,225.5 528.5,316.7 128.3,351.3 		"/>
		<path class="st0" d="M164.5,259.6l9.1,28.9l13.3-29.8c3.3-1,6.5-1.1,9.7-0.4l-1.3,51.7l-11.3,0.5l0.6-24.7l-9.8,24.6
			c-1.7,0.9-3.3,0.7-4.7-0.8l-6.5-23.2l-1,25.1l-11.2,0.3L153,260C155.8,258.6,159.7,258.5,164.5,259.6z"/>
		<path class="st0" d="M229.2,256.3l15.7,49.6c-3.1,2.2-7.2,2.9-12.3,2.1l-2.8-9.2l-12.8,2.1l-2.9,9.5c-5.1,0.9-9,0.3-11.6-1.8
			l16.4-51.5C222.4,254.6,225.8,254.4,229.2,256.3z M223.8,273.1l-4.9,17.3l8.5-1.3L223.8,273.1z"/>
		<path class="st0" d="M284.6,254.6c1.3,3.6,1.2,7-0.2,10.2l-22.7,1.5l-0.3,8.9l18.7-1c1.9,3.3,1.8,6.5-0.1,9.6l-19,1.5l-0.6,10.8
			l23.3-1.5c2.1,4,1.9,7.9-0.4,11.6l-32.5,2.4c-1-0.2-1.6-0.9-1.9-2.1l1.4-47.8c0.2-0.9,0.7-1.6,1.6-2L284.6,254.6z"/>
		<path class="st0" d="M294.2,301.1c-1.7-5.2-1-9.3,2.2-12.3c6.1,3.3,10.5,5.3,13.2,6c5-0.2,7.7-1.6,8.1-4c0-2-1.6-3.8-4.8-5.5
			l-9.1-4c-5.7-2.8-8.7-6.9-9.1-12.2c0.1-3.1,1.1-5.9,2.9-8.5c1.8-2.5,4-4.3,6.4-5.1c2.4-0.9,5.3-1.2,8.6-1.2
			c6.1,0.2,11.6,1.7,16.3,4.6c0.3,4.4-0.9,8.2-3.7,11.6c-5.8-4-10.4-5.8-13.7-5.4c-3.2-0.3-4.8,0.9-4.9,3.6
			c-0.1,1.5,2.2,3.4,6.9,5.6c5.3,1.9,9.3,4.3,12,6.9c2.6,2.7,3.9,6,3.7,9.9c-0.2,5.3-2.5,9.5-7,12.5c-2.8,2.1-7,3.1-12.6,3
			C304.3,306,299.2,304.2,294.2,301.1z"/>
		<path class="st0" d="M373.8,251.5c1.7,3.7,1.8,7.4,0.1,11.2l-12.8,0.6l-0.5,40.5c-3.5,1.6-7.3,1.7-11.6,0.3l0.9-40l-12.6,0.7
			c-2.7-4.2-3-7.9-0.7-11L373.8,251.5z"/>
		<path class="st0" d="M388.3,251.7c11.5-1.5,19.6-1.9,24.2-1.3c4.6,0.6,7.6,2.6,9,6.1c1.4,3.4,1.6,8.1,0.7,14
			c-0.9,5.9-5.1,10-12.5,12.1l12.9,15.5c-2.1,4.6-5.9,6.3-11.3,4.8l-12.8-17.3l-4.1,0.6l-1.1,16.5c-4.7,1.8-8.5,1.6-11.4-0.7
			l2.7-47.7L388.3,251.7z M396,261.2l-1,14.4c9.6-1,14.9-2.9,15.9-5.7c1.1-2.8,1-5.3-0.1-7.5C409.7,260.3,404.8,259.9,396,261.2z"/>
		<path class="st0" d="M453.2,248.6c6.4-0.2,11.5,2.1,15.5,6.9c3.9,4.9,5.7,11.1,5.3,18.8c-0.4,7.7-2.8,14.1-7,19.2
			c-4.2,5.1-9.6,7.8-16,8c-6.4,0.2-11.8-2-16-6.7c-4.3-4.7-6.2-10.8-5.8-18.4c0.4-7.6,2.9-14.1,7.6-19.4
			C441.3,251.6,446.8,248.8,453.2,248.6z M452.7,261.7c-3.1,0.1-5.8,1.4-8.1,4c-2.4,2.6-3.7,5.9-4.1,10.1c-0.4,4.2,0.6,7.6,2.9,10.2
			c2.3,2.6,5.1,3.8,8.2,3.6c3.1-0.3,5.7-1.7,7.8-4.4c2-2.7,3.2-5.9,3.4-9.8s-0.6-7.2-2.6-9.8C458.2,262.9,455.7,261.7,452.7,261.7z"
			/>
		<path class="st0" d="M485.1,287.2c1,0,1.9,0.2,2.8,0.6c0.9,0.5,1.7,1.1,2.2,2c0.5,0.9,0.8,1.8,0.9,2.8c0,1-0.2,1.9-0.6,2.8
			s-1.1,1.6-2,2.2c-0.9,0.5-1.8,0.8-2.8,0.8c-1,0-2-0.2-2.9-0.6c-0.9-0.5-1.6-1.1-2.2-2c-0.5-0.9-0.8-1.8-0.8-2.8c0-1,0.2-2,0.7-2.9
			c0.5-0.9,1.2-1.6,2-2.2C483.2,287.5,484.1,287.2,485.1,287.2z M483.3,247.3l-0.5,36.5c2,1.2,4.5,1.3,7.5,0.2l5.6-35.4
			C492.2,246.1,488,245.7,483.3,247.3z"/>
		<polygon class="st4" points="135.4,123 525,119.8 524,209.5 124.4,231.8 		"/>
		<path class="st0" d="M146.4,201.2l5.6-35.4c3-1.1,5.4-1,7.5,0.2l-0.5,36.5C154.3,203.9,150.1,203.5,146.4,201.2z M160,161.6
			c0.9-0.5,1.6-1.2,2-2.2c0.5-0.9,0.7-1.9,0.7-2.9c0-1-0.3-1.9-0.8-2.8s-1.3-1.6-2.2-2c-0.9-0.5-1.9-0.7-2.9-0.6
			c-1,0-1.9,0.3-2.8,0.8c-0.9,0.5-1.6,1.2-2,2.2c-0.5,0.9-0.7,1.9-0.6,2.8c0,1,0.3,1.9,0.9,2.8c0.5,0.9,1.3,1.6,2.2,2
			c0.9,0.5,1.9,0.7,2.8,0.6C158.2,162.4,159.1,162.2,160,161.6z"/>
		<path class="st0" d="M203.9,150.6c1.3,3.6,1.2,7-0.2,10.2l-22.7,1.5l-0.3,11.6l18.6-1c1.9,3.3,1.9,6.5,0,9.6l-19,1.5l-0.6,19.7
			c-4.4,2.1-8.2,2.1-11.4,0.3l1.3-49.3c0.2-0.9,0.7-1.6,1.6-2L203.9,150.6z"/>
		<path class="st0" d="M247.1,149c1.3,3.6,1.2,7-0.2,10.2l-22.7,1.5l-0.3,8.9l18.7-1c1.9,3.3,1.8,6.5-0.1,9.6l-19,1.5l-0.6,10.8
			l23.3-1.5c2.1,4,1.9,7.9-0.4,11.6l-32.5,2.4c-1-0.2-1.6-0.9-1.9-2.1l1.4-47.8c0.2-0.9,0.7-1.6,1.6-2L247.1,149z"/>
		<path class="st0" d="M267.4,148.7l-1.1,40.3l20.8-1.3c2.1,4,1.9,7.9-0.4,11.6l-30.3,2.2c-1-0.2-1.6-0.9-1.9-2.1l1.1-49.6
			C258.4,148.4,262.3,148,267.4,148.7z"/>
		<path class="st0" d="M297.4,147.7c3.5-1,7.3-0.9,11.4,0.1l-2.3,51.3c-4.7,1.5-8.7,1.5-12-0.1L297.4,147.7z"/>
		<path class="st0" d="M318.9,146.5l33.5-1.1c2.4,3.2,2.7,6.8,1,10.9l-21.8,31.3l21.4-1.1c1.6,3.6,1.8,7.6,0.5,11.9l-35.5,1.4
			c-2.4-2-3-5.4-1.8-10.2l22.1-32l-21,0.9C316.4,153.9,316.9,149.9,318.9,146.5z"/>
		<path class="st0" d="M381.3,149.2l0.4-4.2l3.5-0.9l13.4-0.1c13.3,1.9,20.2,9.8,20.6,23.7c-0.1,7.1-1.5,13.1-4.4,18.1
			c-3.6,6.6-13.1,10.2-28.7,10.8l-4-1l-0.9-4.8L381.3,149.2z M392.3,154.7l-0.3,30.7c6,0.2,10.2-1,12.6-3.5
			c2.4-2.5,3.6-6.4,3.8-11.7c0.2-5.2-0.7-9.2-2.5-11.8C404.1,155.8,399.6,154.5,392.3,154.7z"/>
		<path class="st0" d="M427.1,143.1c3.5-1,7.3-0.9,11.4,0.1l-2.3,51.3c-4.7,1.5-8.7,1.5-12-0.1L427.1,143.1z M440,128.9l-11.4,7.9
			c0.1,2.5,1.2,4.2,3.1,5.1L443,134C442.5,132.1,441.5,130.4,440,128.9z"/>
		<path class="st0" d="M471.1,140.8l15.7,49.6c-3.1,2.2-7.2,2.9-12.3,2.1l-2.8-9.2l-12.8,2.1l-2.9,9.5c-5.1,0.9-9,0.3-11.6-1.8
			l16.4-51.5C464.3,139.2,467.8,138.9,471.1,140.8z M465.8,157.6l-4.9,17.3l8.5-1.3L465.8,157.6z"/>
		<path class="st0" d="M496.8,180.2c1.1,0,2.1,0.2,3.1,0.8s1.8,1.4,2.5,2.5c0.6,1.1,0.9,2.3,1,3.5c0.5,1.9-1,6.6-4.3,14.2l-4.8-1.1
			l0.3-5.8c-1.3-1.2-2.3-2.3-2.9-3.4c-0.6-1.1-0.9-2.2-1-3.4c0-1.2,0.2-2.4,0.7-3.5c0.5-1.1,1.3-2,2.3-2.7
			C494.7,180.6,495.7,180.3,496.8,180.2z"/>
	</g>
</g>
</svg>
