<?xml version="1.0" encoding="utf-8"?>
<!-- Generator: Adobe Illustrator 24.0.2, SVG Export Plug-In . SVG Version: 6.00 Build 0)  -->
<svg version="1.1" id="Capa_1" xmlns="http://www.w3.org/2000/svg" xmlns:xlink="http://www.w3.org/1999/xlink" x="0px" y="0px"
	 viewBox="0 0 350 280" style="enable-background:new 0 0 350 280;" xml:space="preserve">
<style type="text/css">
	.st0{fill:#FFCDC7;}
	.st1{clip-path:url(#SVGID_2_);}
	.st2{fill:#1C1E36;}
	.st3{fill:#FFFFFF;}
	.st4{fill:#FFE7E1;}
	.st5{fill:#EFEFF4;}
	.st6{clip-path:url(#SVGID_4_);}
	.st7{fill:#9D4024;}
	.st8{fill:#F7B59C;}
	.st9{fill:#E76A70;}
	.st10{fill:#756343;}
	.st11{fill:#EF9E86;}
	.st12{fill:#ED8E93;}
	.st13{fill:#B682C7;}
	.st14{fill:#F9BBA7;}
	.st15{clip-path:url(#SVGID_6_);fill:#1C1E36;}
	.st16{clip-path:url(#SVGID_8_);fill:#C7C7C7;}
	.st17{clip-path:url(#SVGID_10_);fill:#459DCF;}
	.st18{clip-path:url(#SVGID_12_);fill:#FFFFFF;}
	.st19{fill:none;}
	.st20{fill:#FC8391;}
</style>
<g>
	<rect class="st0" width="350" height="280"/>
	<g>
		<g>
			<defs>
				<rect id="SVGID_1_" width="350" height="280"/>
			</defs>
			<clipPath id="SVGID_2_">
				<use xlink:href="#SVGID_1_"  style="overflow:visible;"/>
			</clipPath>
			<g class="st1">
				<path class="st2" d="M544.8,323.6H130.5c-6.8,0-12.2-5.5-12.2-12.2V57.5c0-6.8,5.5-12.2,12.2-12.2h414.3
					c6.8,0,12.2,5.5,12.2,12.2v253.9C557,318.1,551.5,323.6,544.8,323.6z"/>
				<path class="st3" d="M526.5,308.5H148.8c-6.8,0-12.2-5.5-12.2-12.2V77.7c0-6.8,5.5-12.2,12.2-12.2h377.8
					c6.8,0,12.2,5.5,12.2,12.2v218.6C538.8,303,533.3,308.5,526.5,308.5z"/>
				<rect x="148.2" y="101.5" class="st4" width="249.8" height="178.7"/>
				<rect x="149.8" y="82.5" class="st5" width="269.9" height="9.3"/>
				<path class="st0" d="M148.2,280.2c0,0-0.8-58.8,26.8-66s61-14,84.6-36.6s62.2-52.7,98.9-47.7C395.3,135,398,153,398,153v127.2
					H148.2z"/>
				<g>
					<g>
						<defs>
							<path id="SVGID_3_" d="M526.5,308.5H148.8c-6.8,0-12.2-5.5-12.2-12.2V77.7c0-6.8,5.5-12.2,12.2-12.2h377.8
								c6.8,0,12.2,5.5,12.2,12.2v218.6C538.8,303,533.3,308.5,526.5,308.5z"/>
						</defs>
						<clipPath id="SVGID_4_">
							<use xlink:href="#SVGID_3_"  style="overflow:visible;"/>
						</clipPath>
						<g class="st6">
							<g>
								<g>
									<path class="st7" d="M299.2,205.1c0-0.1,0-0.3,0-0.4c-6.8-36.9,1.1-74.6-14.6-111.6c-0.2-0.6-0.3-0.4-0.8-0.2
										c-0.1-0.7-0.7-1.2-1.5-1c-5.2,1-10.5,1.9-15.8,1.9c-6.8,0-12.7-2.4-19-4.7c-9.5-3.4-20.1-6.3-30.3-5.9
										c-0.4-0.1-0.8,0-1.1,0.4c-9.8,15.2-14.3,39.3-14.4,60.9c-0.1,10.7,0.7,21.4,2.2,32c0.9,6.5,1.8,13.5,3.7,20.1
										c1.3,3.4,2.9,6.7,4.9,9.8c16.4-3.3,32.8,2.9,49,4.8c11.4,1.3,28.4,3.9,37.5-5.2C299.4,205.8,299.4,205.4,299.2,205.1z"/>
									<path class="st8" d="M216.3,212.6c-2.3-6.4-2.8-12.6-0.5-19.4c0.3-0.8-0.2-1.8-1.2-1.7c-1.5,0.2-2.8,0.6-4.1,1.3
										c-0.3-0.2-0.7-0.1-0.8,0.2c-0.1,0.1-0.1,0.3-0.2,0.4c-0.1,0.1-0.2,0.1-0.3,0.2c-0.5,0.4-0.5,0.9-0.3,1.4
										c-1.9,5-3.1,10.2-3.9,15.5c-0.8,5-1.7,10.5-0.5,15.5c1.6,6.4,6.6,10.2,12.5,9.9C214,228.7,214.2,220.2,216.3,212.6z"/>
									<path class="st9" d="M230.9,165.9c0-0.2-0.1-0.4-0.4-0.5c-16.1-2.5-22,19.7-24.9,31.6c-0.2,0.7,0.7,1.5,1.3,1.1
										c3.4-1.7,6.6-1.7,10.2-0.8c0.5,0.1,1-0.2,1.3-0.7c5.6-9.2,10.3-19.1,12.9-29.6C231.5,166.6,231.2,166.2,230.9,165.9z"/>
									<path class="st8" d="M268.2,165.7c-2.9-0.3-5.8-0.5-8.7-0.6c-1.9-0.1-2.5,0.2-3.7-1.3c-1.3-1.6-0.9-3.8-0.6-5.7
										c0.1-0.8-0.5-1.5-1.3-1.4c-3.9,0.4-7.7,0.7-11.6,1.1c-0.5-0.4-1.5-0.3-1.6,0.5c-0.1,2.8,1.2,5.1-2,7
										c-1.6,0.9-5.3,0.6-7.1,1.2c-2.4,0.8-2.9,1.4-3.2,3.8c-0.4,2.8,1.3,8.3,2.7,10.7s3.4,3.7,5.9,4.7c6.3,2.5,14.4,2.6,20.5-0.6
										c6.8-3.6,9.5-10.8,11.6-17.7C269.3,166.5,268.8,165.7,268.2,165.7z"/>
									<path class="st8" d="M292.6,125.2c-0.1-3.1-1.5-6.5-4.6-7.5c-2-0.7-3.9-0.5-5.7,0.2c-0.1-0.9-0.2-1.9-0.3-2.8
										c-2.1-15-9.4-28-25.8-32.2c-9.5-2.4-20.1-0.5-28.1,5.4c-9.3,6.9-13.6,18.7-15.8,29.7c-0.3,1.3-0.5,2.6-0.6,3.9
										c-1.9-0.5-3.8-0.5-5.4,0.9c-2,1.7-2.8,5.1-2.3,7.6c0.5,3,3.2,4.8,6,5.6c0.8,0.2,1.8,0.4,2.7,0.4c1.1,4.3,3,8.5,5.9,12.4
										c10.8,14.8,30.2,16.6,45.9,8.9c10.4-5.1,15.6-14.5,17.4-25C286.4,133.2,292.7,129.5,292.6,125.2z"/>
									<g>
										<path class="st10" d="M221.1,131.2c0.6-1.7,1.2-3.4,1.8-5.1c0.6-1.8,1.9-4.3,4.2-3.7c2.1,0.5,2.8,3.2,3,5.1
											c0.1,1.1-0.4,3.9,0.7,4.6c1,0.7,1.7-0.9,1.8-1.7c0.3-1.8,0-4.1-0.6-5.8c-1-3.2-4.2-6-7.7-4.3c-3.8,1.9-4.1,7-4.2,10.7
											C220,131.5,220.9,131.7,221.1,131.2L221.1,131.2z"/>
									</g>
									<g>
										<path class="st10" d="M256.4,130.5c2.5-2.4-0.2-9.7,4.8-9.7c2.2,0,2.9,2.3,3.2,4.1c0.2,1.2-0.3,3.4,0.7,4.3
											c0.2,0.1,0.4,0.2,0.6,0.1c1.9-0.8,1-4.6,0.7-6c-0.6-2.3-2.1-4.5-4.7-4.8s-4.9,1.3-5.8,3.7c-0.8,2.1-1.3,5.9-0.5,8.1
											C255.6,130.8,256.1,130.8,256.4,130.5L256.4,130.5z"/>
									</g>
									<path class="st11" d="M245.5,139.8c-1.3,0.4-2.8,0.9-4.2,0.8c-2.5-0.3-1-2.6,0.1-3.5c1.7-1.3,2.5-3.2,3-5.3
										c1.3-5.5,0.9-11.7-1.4-16.9c-0.3-0.7-1.6-0.6-1.5,0.3c1.1,5.4,2.3,11.2,0.4,16.6c-0.9,2.6-2.4,3.4-4.2,5.3
										c-0.6,0.6-1.5,1.5-1.6,2.5c-0.4,4.4,7.9,3,10.1,1.7C247.2,140.7,246.4,139.5,245.5,139.8z"/>
									<path class="st7" d="M263.7,140.6c-8.8,3.1-18,4.4-27.3,5.3c-1,0.1-8,0.1-7.9,1.3c0.2,2.9,6.4,9.1,16.8,9.2
										c5.6,0,9.5-2,13-5.1C264,146.2,266.4,139.7,263.7,140.6z"/>
									<path class="st3" d="M259.8,141.8c-7.6,2.2-15.5,3.3-23.4,4.1c-0.3,0-1.5,0.1-2.8,0.1C238.6,151,258,147.8,259.8,141.8z"/>
									<path class="st7" d="M282.5,89c-4.1-7.6-13.6-14.8-21.7-9.4c-1.7-5.9-7.6-8.9-13.6-9.6c-8.4-1.1-16.2-0.3-23.2,4.8
										c-14.7,10.8-18,29.5-14,46.4c0.8,0.4,1.5,0.8,2.2,1.4c1.3-1.7,3.2-7.2,3.6-8.9c8.7-1.7,17.1-6.9,24.2-11.8
										c4.6-3.2,10.5-7.3,13.9-12.5c2.4,5.6,5.7,10.8,9.7,15.4c4.7,5.4,11.2,12.1,18,14.6l0,0c0.4,0.4,1,0.5,1.5,0.1
										C292.1,112.5,286.9,97.2,282.5,89z"/>
									<path class="st7" d="M265.3,114.3c-0.2-1.5-1.9-2.1-3.3-2.5c-1.7-0.4-3.4-0.2-4.9,0.4c-0.8,0.3-0.6,1.5,0.3,1.5
										c1.3-0.1,2.6,0.1,3.9,0.4c1.1,0.3,2.1,1.2,3.3,1C265,115.1,265.4,114.8,265.3,114.3z"/>
									<path class="st7" d="M228.5,114c-2.6-1.3-7.2-0.6-7.8,2.8c-0.1,0.4,0.1,0.9,0.4,1.1c1,0.8,2.1-0.4,2.9-0.9
										c1-0.6,2.2-1.1,3.4-0.7C228.9,116.9,230.1,114.8,228.5,114z"/>
									<path class="st10" d="M285.7,115.2c-4.5,0.8-8.3,3.7-12.4,5.6v-0.1c-2-8.4-12.1-13.4-19.7-9.1l-0.1,0.1
										c-4.4,1.9-7.1,6.6-7.7,11.5c-1.2-0.6-2.8-0.7-3.9-0.6c-1.1,0.1-2,0.6-2.6,1.3c-1.9-8.2-11.6-13.3-19.2-9L220,115
										c-3.1,1.4-5.3,4.1-6.5,7.4c-0.1-0.2-0.3-0.3-0.4-0.4c0.1-0.5,0.2-1.1,0.2-1.6c-0.1-1-1.6-1.3-2-0.4
										c-0.3,0.7-0.4,1.4-0.4,2.2c0,0.5,0.1,1,0.6,1.2c0.4,0.2,0.8,0.4,1.2,0.5c0.1,0,0.3,0.1,0.4,0.1c-0.9,3.2-0.9,6.7,0.2,9.7
										c2.6,6.7,11.1,10.3,17.7,7.6c5.7-2.3,9.1-8.7,8.8-14.7l0,0c0.6-1.3,1.6-1.9,3-1.9c1.1,0,2,0.6,3,0.8c0,1.7,0.3,3.4,0.9,5
										c2.7,6.9,11.9,10.5,18.6,7.5c5.7-2.6,9.1-9.2,8.4-15.3c1.3-0.1,2.3-0.7,3.5-1.3c1.8-0.9,3.6-1.7,5.4-2.6
										c1.9-0.9,5.5-3.1,6.2-0.1c0.2,0.7,1.3,0.7,1.5,0.1C291.3,115.3,287.9,114.8,285.7,115.2z M230.1,138.3
										c-5.7,2.7-13.7,0.1-15-6.5c-0.6-3.2-0.3-6.5,1.3-9.4c3.5-6.3,10.8-9.1,16.8-4c2.3,2,3.7,4.9,3.8,8
										C237.2,131.2,234.5,136.2,230.1,138.3z M264.7,134.8c-5.5,3.1-14.1,1-16.1-5.4c-2.3-7.3,1.8-13,7.6-16.6
										c6.6,0,13.4,1.6,14.6,9.5C271.6,127.1,269,132.3,264.7,134.8z"/>
									<path class="st12" d="M279,256.5c-5.1-20.2-2.4-39.3,2.5-59.4c1.2-4.8,2.5-9.5,3.5-14.3c0.5-2.6,1.6-6.1,0.7-8.7
										c-4.3-5.7-10.6-8.3-20.1-9.3c-0.1,0.1-0.5,0.8-0.6,1c-2.9,7.1-7.2,14.3-14.6,17.2c-4.3,1.7-10.3,1.9-14.3-0.6
										c-5.3-3.2-4.6-11.2-4.1-16.6c0-0.3-2.3-1-2.8-0.1c-4.7,7.6-8.7,15.9-12.5,23.9c-2.3,4.9-4.6,10.3-4.9,15.8
										c0.1,0.2,0.1,0.4,0.1,0.6c-0.4,5.9,3.2,10.7,6,15.5c2.2,3.7,3.8,7.5,4.8,11.7c1.9,8.2,1,18.1-1.1,26.5
										c7.7,4.4,17,5.4,25.8,5.4c10,0,21.7-1.3,30.3-6.7c0.1,0,0.1-0.1,0.1-0.1C278.5,258.3,279.2,257.5,279,256.5z"/>
									<path class="st13" d="M294,298.3c-0.9-2.9-1.8-5.8-2.6-8.7c-4.3-12-9.4-24-12.1-36.4c-6.2,3.7-14.8,5.4-20.4,6.3
										c-12.8,2-25.5,0.5-37.3-4.8c-6.9,33-18.2,65.5-25.9,98.4c19.2,9,39.8,13.4,60.6,9.2c11.1-2.3,37.4-8.9,50.7-21.9
										C302.7,326.2,298.3,312.2,294,298.3z"/>
									<path class="st8" d="M279.7,159.3c-0.6,0.5-1.3,0.9-1.9,1.4c0.5-1,0.9-2.1,1.3-3.2c0.4-1.1-0.7-2.2-1.8-1.5
										c-2,1.2-5.2,4.8-6.6,6.6c0.6-1.2,4.1-6.6,2.5-6.9c-2-0.4-3.7,2.2-5,3.9c-1.8,2.2-2.6,3.4-4.4,5.6c0-0.3-0.1-0.7-0.1-1
										c0.1-0.1,0.1-0.2,0.2-0.2c0.6-0.7-0.3-2-1.2-1.3c-8.2,6.8-11.9,17.1-17.5,25.9c-3.4,5.3-6.8,9.5-11.4,13.8
										c-4.5,4.3-8.2,10-19.7,13.9c-5.5,5.3-4.9,9.6-5.7,16.6c3.4,3.1,8.2,4.1,13.2,2c8.9-3.7,14.8-15.3,19.8-22.9
										c6.8-10.3,12.7-21.2,18.5-32c9.7-1.5,16.9-11.3,21.3-19.3C281.8,159.7,280.6,158.6,279.7,159.3z"/>
									<path class="st14" d="M284.8,189.3c-2.7-2.6-6.6-2.6-10-1.8c-0.1-0.3-0.5-0.4-0.8-0.1c-1.9,1.9-3.2,4.5-4.7,6.8
										c-1.6,2.4-3.3,4.9-5.1,7.2c-2.7,3.8-5.8,7.3-8.6,11c0.5-2.2,0.9-4.3,1.4-6.5c1.3-6.5,2.5-13,4-19.5c0-0.2,0.1-0.4,0.1-0.5
										c3.1-1.4,6.4-3.5,8.6-6.4c2.3-3,4.6-6.1,6.8-9.2c2-2.8,4-5.3,5.3-8.5c0.4-1-0.3-1.4-0.8-1c-1.4,1.1-4.7,4.6-6,5.8
										c1.8-2.3,5.5-6.9,6.1-9.8c0.1-0.6-0.6-1.1-1.4-0.4c-2.1,1.9-6.2,7.4-8.1,9.4c1-1.5,4.4-6.6,4.6-8.5
										c0.1-0.5-0.3-0.7-0.7-0.6c-2.1,0.5-3.6,3-5,4.5c-1.4,1.6-2.8,3.1-4.3,4.7c1.1-2.4,2.1-4.9,2.7-7.6c0.1-0.2-0.1-0.5-0.4-0.5
										c-1.6-0.3-2.3,0.9-3.2,2.1c-1.8,2.4-3.6,4.9-5.2,7.4c-2.1,3.3-4,6.6-5.7,10c-5.1,7.9-8.4,17.2-11.9,25.8
										c-1.9,4.7-3.5,9.4-5.2,14.1c-1.5,4.2-3.2,8.6-2.6,13.1c1,7.6,8.1,10.9,14.9,7.6c3.7-1.8,6.7-4.8,9.7-7.6
										c3.2-3,6.3-6.1,9.3-9.4c0.6-0.6,1.1-1.2,1.6-1.8c2.9-3.4,5.6-6.9,8-10.7c0.9-1.3,1.7-2.7,2.5-4.2c1.6-2.3,3.1-4.6,4.4-7.1
										C286.7,194.7,287.3,191.8,284.8,189.3z"/>
									<path class="st9" d="M290.6,180.5c0-0.1,0-0.1,0-0.1c-0.1-0.5-0.3-1.1-0.5-1.6c-1.4-3.9-4.2-6.3-8.1-8.4
										c-4,3.1-7.4,7.3-10.3,11.5c-3.9,5.5-9.3,13.4-10.9,20.1c0.1,0.1,10.5,8.2,14.8,12.3c2.9,2.8,12.2-15.5,14.6-24
										C291,187.1,291.1,183.8,290.6,180.5z"/>
								</g>
							</g>
						</g>
					</g>
					<g>
						<defs>
							<path id="SVGID_5_" d="M526.5,308.5H148.8c-6.8,0-12.2-5.5-12.2-12.2V77.7c0-6.8,5.5-12.2,12.2-12.2h377.8
								c6.8,0,12.2,5.5,12.2,12.2v218.6C538.8,303,533.3,308.5,526.5,308.5z"/>
						</defs>
						<clipPath id="SVGID_6_">
							<use xlink:href="#SVGID_5_"  style="overflow:visible;"/>
						</clipPath>
						<rect x="148.2" y="265.8" class="st15" width="249.8" height="14.5"/>
					</g>
					<g>
						<defs>
							<path id="SVGID_7_" d="M526.5,308.5H148.8c-6.8,0-12.2-5.5-12.2-12.2V77.7c0-6.8,5.5-12.2,12.2-12.2h377.8
								c6.8,0,12.2,5.5,12.2,12.2v218.6C538.8,303,533.3,308.5,526.5,308.5z"/>
						</defs>
						<clipPath id="SVGID_8_">
							<use xlink:href="#SVGID_7_"  style="overflow:visible;"/>
						</clipPath>
						<rect x="148.2" y="263.8" class="st16" width="249.8" height="2"/>
					</g>
					<g>
						<defs>
							<path id="SVGID_9_" d="M526.5,308.5H148.8c-6.8,0-12.2-5.5-12.2-12.2V77.7c0-6.8,5.5-12.2,12.2-12.2h377.8
								c6.8,0,12.2,5.5,12.2,12.2v218.6C538.8,303,533.3,308.5,526.5,308.5z"/>
						</defs>
						<clipPath id="SVGID_10_">
							<use xlink:href="#SVGID_9_"  style="overflow:visible;"/>
						</clipPath>
						<rect x="148.2" y="263.8" class="st17" width="40.9" height="2"/>
					</g>
					<g>
						<defs>
							<path id="SVGID_11_" d="M526.5,308.5H148.8c-6.8,0-12.2-5.5-12.2-12.2V77.7c0-6.8,5.5-12.2,12.2-12.2h377.8
								c6.8,0,12.2,5.5,12.2,12.2v218.6C538.8,303,533.3,308.5,526.5,308.5z"/>
						</defs>
						<clipPath id="SVGID_12_">
							<use xlink:href="#SVGID_11_"  style="overflow:visible;"/>
						</clipPath>
						<polygon class="st18" points="153.2,275.7 153.2,270.7 158.1,273.2 						"/>
					</g>
				</g>
			</g>
		</g>
	</g>
	<rect class="st19" width="350" height="280"/>
	<g>
		<polygon class="st3" points="37.5,96 182.1,93.8 181.3,125.8 40.8,137.9 		"/>
		<g>
			<path class="st20" d="M53.6,105.8l3.2,10.2l4.7-10.5c1.2-0.3,2.3-0.4,3.4-0.1l-0.5,18.1l-4,0.2l0.2-8.7l-3.4,8.6
				c-0.6,0.3-1.2,0.2-1.7-0.3l-2.3-8.2l-0.3,8.8L49,124l0.6-18.2C50.5,105.4,51.9,105.4,53.6,105.8z"/>
			<path class="st20" d="M76.3,104.6l5.5,17.4c-1.1,0.8-2.5,1-4.3,0.7l-1-3.2l-4.5,0.7l-1,3.3c-1.8,0.3-3.2,0.1-4.1-0.6l5.8-18.1
				C73.9,104,75.1,103.9,76.3,104.6z M74.4,110.5l-1.7,6.1l3-0.5L74.4,110.5z"/>
			<path class="st20" d="M95.7,104c0.4,1.3,0.4,2.5-0.1,3.6l-8,0.5l-0.1,3.1l6.6-0.4c0.7,1.2,0.6,2.3,0,3.4l-6.7,0.5l-0.2,3.8
				l8.2-0.5c0.7,1.4,0.7,2.8-0.1,4.1L83.9,123c-0.4-0.1-0.6-0.3-0.7-0.7l0.5-16.8c0.1-0.3,0.3-0.6,0.5-0.7L95.7,104z"/>
			<path class="st20" d="M99.1,120.3c-0.6-1.8-0.3-3.3,0.8-4.3c2.1,1.2,3.7,1.9,4.6,2.1c1.8-0.1,2.7-0.6,2.8-1.4
				c0-0.7-0.5-1.3-1.7-1.9l-3.2-1.4c-2-1-3.1-2.4-3.2-4.3c0-1.1,0.4-2.1,1-3s1.4-1.5,2.2-1.8c0.8-0.3,1.8-0.4,3-0.4
				c2.2,0.1,4.1,0.6,5.7,1.6c0.1,1.5-0.3,2.9-1.3,4.1c-2-1.4-3.6-2-4.8-1.9c-1.1-0.1-1.7,0.3-1.7,1.3c0,0.5,0.8,1.2,2.4,2
				c1.9,0.7,3.3,1.5,4.2,2.4c0.9,0.9,1.4,2.1,1.3,3.5c-0.1,1.9-0.9,3.3-2.5,4.4c-1,0.8-2.5,1.1-4.4,1
				C102.6,122,100.8,121.4,99.1,120.3z"/>
			<path class="st20" d="M127,102.9c0.6,1.3,0.6,2.6,0,3.9l-4.5,0.2l-0.2,14.2c-1.2,0.6-2.6,0.6-4.1,0.1l0.3-14l-4.4,0.3
				c-1-1.5-1-2.8-0.2-3.9L127,102.9z"/>
			<path class="st20" d="M132.1,103c4-0.5,6.9-0.7,8.5-0.5s2.7,0.9,3.1,2.1c0.5,1.2,0.6,2.8,0.2,4.9c-0.3,2.1-1.8,3.5-4.4,4.2
				l4.5,5.4c-0.7,1.6-2.1,2.2-4,1.7l-4.5-6.1l-1.4,0.2l-0.4,5.8c-1.6,0.6-3,0.6-4-0.3l1-16.8L132.1,103z M134.8,106.3l-0.3,5.1
				c3.4-0.3,5.2-1,5.6-2c0.4-1,0.4-1.9,0-2.6C139.6,106,137.9,105.9,134.8,106.3z"/>
			<path class="st20" d="M154.9,101.9c2.2-0.1,4,0.7,5.4,2.4c1.4,1.7,2,3.9,1.8,6.6c-0.1,2.7-1,4.9-2.5,6.7
				c-1.5,1.8-3.4,2.7-5.6,2.8c-2.3,0.1-4.1-0.7-5.6-2.3c-1.5-1.6-2.2-3.8-2-6.5c0.1-2.7,1-4.9,2.7-6.8
				C150.7,103,152.7,102,154.9,101.9z M154.7,106.5c-1.1,0-2,0.5-2.9,1.4c-0.8,0.9-1.3,2.1-1.4,3.5c-0.1,1.5,0.2,2.7,1,3.6
				s1.8,1.3,2.9,1.3c1.1-0.1,2-0.6,2.7-1.5s1.1-2.1,1.2-3.5c0.1-1.4-0.2-2.5-0.9-3.4C156.7,106.9,155.8,106.5,154.7,106.5z"/>
			<path class="st20" d="M166.1,115.4c0.3,0,0.7,0.1,1,0.2c0.3,0.2,0.6,0.4,0.8,0.7c0.2,0.3,0.3,0.6,0.3,1c0,0.3-0.1,0.7-0.2,1
				c-0.2,0.3-0.4,0.6-0.7,0.8c-0.3,0.2-0.6,0.3-1,0.3s-0.7-0.1-1-0.2c-0.3-0.2-0.6-0.4-0.8-0.7c-0.2-0.3-0.3-0.6-0.3-1
				c0-0.3,0.1-0.7,0.2-1c0.2-0.3,0.4-0.6,0.7-0.8S165.8,115.5,166.1,115.4z M165.5,101.4l-0.2,12.8c0.7,0.4,1.6,0.5,2.6,0.1l2-12.4
				C168.6,101,167.1,100.9,165.5,101.4z"/>
		</g>
		<polygon class="st3" points="43.3,57.8 180.1,56.7 179.7,88.2 39.5,96 		"/>
		<g>
			<path class="st20" d="M47.2,85.2l2-12.4c1-0.4,1.9-0.4,2.6,0.1l-0.2,12.8C50,86.2,48.5,86.1,47.2,85.2z M52,71.4
				c0.3-0.2,0.5-0.4,0.7-0.8s0.2-0.7,0.2-1s-0.1-0.7-0.3-1s-0.4-0.5-0.8-0.7c-0.3-0.2-0.7-0.2-1-0.2s-0.7,0.1-1,0.3
				c-0.3,0.2-0.5,0.4-0.7,0.8c-0.2,0.3-0.2,0.7-0.2,1s0.1,0.7,0.3,1s0.4,0.5,0.8,0.7c0.3,0.2,0.7,0.2,1,0.2
				C51.3,71.7,51.7,71.6,52,71.4z"/>
			<path class="st20" d="M67.4,67.5c0.4,1.3,0.4,2.5-0.1,3.6l-8,0.5l-0.1,4.1l6.5-0.4c0.7,1.2,0.7,2.3,0,3.4L59,79.2l-0.2,6.9
				c-1.5,0.7-2.9,0.8-4,0.1l0.5-17.3c0.1-0.3,0.3-0.6,0.5-0.7L67.4,67.5z"/>
			<path class="st20" d="M82.6,67c0.4,1.3,0.4,2.5-0.1,3.6l-8,0.5l-0.1,3.1l6.6-0.4c0.7,1.2,0.6,2.3,0,3.4l-6.7,0.5l-0.2,3.8
				l8.2-0.5c0.7,1.4,0.7,2.8-0.1,4.1L70.8,86c-0.4-0.1-0.6-0.3-0.7-0.7l0.5-16.8c0.1-0.3,0.3-0.6,0.5-0.7L82.6,67z"/>
			<path class="st20" d="M89.7,66.8L89.3,81l7.3-0.5c0.7,1.4,0.7,2.8-0.1,4.1l-10.6,0.8c-0.4-0.1-0.6-0.3-0.7-0.7l0.4-17.4
				C86.5,66.7,87.9,66.6,89.7,66.8z"/>
			<path class="st20" d="M100.2,66.5c1.2-0.3,2.6-0.3,4,0l-0.8,18c-1.6,0.5-3,0.5-4.2,0L100.2,66.5z"/>
			<path class="st20" d="M107.7,66l11.7-0.4c0.8,1.1,1,2.4,0.4,3.8l-7.6,11l7.5-0.4c0.6,1.3,0.6,2.7,0.2,4.2l-12.5,0.5
				c-0.8-0.7-1-1.9-0.6-3.6l7.8-11.2l-7.4,0.3C106.9,68.6,107.1,67.2,107.7,66z"/>
			<path class="st20" d="M129.7,67l0.1-1.5l1.2-0.3h4.7c4.7,0.7,7.1,3.4,7.2,8.3c0,2.5-0.5,4.6-1.6,6.4c-1.3,2.3-4.6,3.6-10.1,3.8
				l-1.4-0.3l-0.3-1.7L129.7,67z M133.5,68.9l-0.1,10.8c2.1,0.1,3.6-0.4,4.4-1.2c0.8-0.9,1.3-2.3,1.3-4.1c0.1-1.8-0.2-3.2-0.9-4.1
				C137.7,69.3,136.1,68.9,133.5,68.9z"/>
			<path class="st20" d="M145.7,64.9c1.2-0.3,2.6-0.3,4,0l-0.8,18c-1.6,0.5-3,0.5-4.2,0L145.7,64.9z M150.3,59.9l-4,2.8
				c0,0.9,0.4,1.5,1.1,1.8l3.9-2.7C151.1,61,150.8,60.4,150.3,59.9z"/>
			<path class="st20" d="M161.2,64.1l5.5,17.4c-1.1,0.8-2.5,1-4.3,0.7l-1-3.2l-4.5,0.7l-1,3.3c-1.8,0.3-3.2,0.1-4.1-0.6l5.8-18.1
				C158.8,63.5,160,63.4,161.2,64.1z M159.3,70l-1.7,6.1l3-0.5L159.3,70z"/>
			<path class="st20" d="M170.2,77.9c0.4,0,0.7,0.1,1.1,0.3c0.4,0.2,0.6,0.5,0.9,0.9c0.2,0.4,0.3,0.8,0.3,1.2c0.2,0.7-0.3,2.3-1.5,5
				l-1.7-0.4l0.1-2c-0.5-0.4-0.8-0.8-1-1.2c-0.2-0.4-0.3-0.8-0.3-1.2c0-0.4,0.1-0.8,0.3-1.2c0.2-0.4,0.5-0.7,0.8-0.9
				C169.5,78,169.8,77.9,170.2,77.9z"/>
		</g>
	</g>
</g>
</svg>
