<?xml version="1.0" encoding="utf-8"?>
<!-- Generator: Adobe Illustrator 24.0.2, SVG Export Plug-In . SVG Version: 6.00 Build 0)  -->
<svg version="1.1" id="Capa_1" xmlns="http://www.w3.org/2000/svg" xmlns:xlink="http://www.w3.org/1999/xlink" x="0px" y="0px"
	 viewBox="0 0 900 1080" style="enable-background:new 0 0 900 1080;" xml:space="preserve">
<style type="text/css">
	.st0{clip-path:url(#SVGID_2_);fill:#FFCDC7;}
	.st1{clip-path:url(#SVGID_2_);fill:#1C1E36;}
	.st2{clip-path:url(#SVGID_2_);fill:#FFFFFF;}
	.st3{clip-path:url(#SVGID_2_);fill:#FFE7E1;}
	.st4{clip-path:url(#SVGID_2_);fill:#315F83;}
	.st5{clip-path:url(#SVGID_2_);fill:#EFEFF4;}
	.st6{clip-path:url(#SVGID_2_);}
	.st7{clip-path:url(#SVGID_4_);fill:#EFC2A4;}
	.st8{clip-path:url(#SVGID_4_);fill:#9D4024;}
	.st9{clip-path:url(#SVGID_4_);fill:#F7B59C;}
	.st10{clip-path:url(#SVGID_4_);fill:#E76A70;}
	.st11{clip-path:url(#SVGID_4_);fill:#714629;}
	.st12{clip-path:url(#SVGID_4_);fill:#E88E6A;}
	.st13{clip-path:url(#SVGID_4_);fill:#FFFFFF;}
	.st14{clip-path:url(#SVGID_4_);fill:#756343;}
	.st15{clip-path:url(#SVGID_4_);fill:#ED8E93;}
	.st16{clip-path:url(#SVGID_4_);fill:#B682C7;}
	.st17{clip-path:url(#SVGID_4_);fill:#F9BBA7;}
	.st18{clip-path:url(#SVGID_4_);fill:#1C1E36;}
	.st19{clip-path:url(#SVGID_4_);fill:#C7C7C7;}
	.st20{clip-path:url(#SVGID_4_);fill:#459DCF;}
	.st21{clip-path:url(#SVGID_2_);fill:#FC8391;}
</style>
<g>
	<g>
		<defs>
			<polyline id="SVGID_1_" points="0,0 900,0 900,1080 0,1080 0,0 			"/>
		</defs>
		<clipPath id="SVGID_2_">
			<use xlink:href="#SVGID_1_"  style="overflow:visible;"/>
		</clipPath>
		<polyline class="st0" points="0,0 900,0 900,1080 0,1080 0,0 		"/>
		<path class="st1" d="M1523.1,960.5H300.4c-6.8,0-12.2-5.5-12.2-12.2V181.6c0-6.8,5.5-12.2,12.2-12.2h1222.6
			c6.8,0,12.2,5.5,12.2,12.2v766.7C1535.3,955,1529.9,960.5,1523.1,960.5"/>
		<path class="st2" d="M1471.2,917.6H352.3c-6.8,0-12.2-5.5-12.2-12.2V238.9c0-6.8,5.5-12.2,12.2-12.2h1118.9
			c6.8,0,12.2,5.5,12.2,12.2v666.5C1483.5,912.1,1478,917.6,1471.2,917.6"/>
		<polyline class="st3" points="1083.4,837.2 373.3,837.2 373.3,329.1 1083.4,329.1 1083.4,837.2 		"/>
		<path class="st4" d="M1634.9,1001.9H164.5c-1.5,0-2.7-1.2-2.7-2.7v-35.9c0-1.5,1.2-2.7,2.7-2.7h1470.4c1.5,0,2.7,1.2,2.7,2.7v35.9
			C1637.6,1000.7,1636.4,1001.9,1634.9,1001.9z"/>
		<path class="st1" d="M183.7,1001.9l13.5,20.2c6.7,10,17.9,16,30,16h1335.2c10.1,0,19.8-4.5,26.3-12.2l20.4-24.1H183.7z"/>
		<rect x="377.8" y="275.2" class="st5" width="767.1" height="26.4"/>
		<path class="st0" d="M373.3,837.2c0,0-2.3-167,76.3-187.6c78.6-20.5,173.5-39.7,240.5-104c67-64.3,176.8-149.9,281.1-135.7
			c104.3,14.3,112.2,65.5,112.2,65.5v361.6H373.3z"/>
		<g class="st6">
			<defs>
				<path id="SVGID_3_" d="M1471.2,917.6H352.3c-6.8,0-12.2-5.5-12.2-12.2V238.9c0-6.8,5.5-12.2,12.2-12.2h1118.9
					c6.8,0,12.2,5.5,12.2,12.2v666.5C1483.5,912.1,1478,917.6,1471.2,917.6"/>
			</defs>
			<clipPath id="SVGID_4_">
				<use xlink:href="#SVGID_3_"  style="overflow:visible;"/>
			</clipPath>
			<path class="st7" d="M686.9,1254.9c5.9-26.8,19.6-51.5,26.8-78c12.5-45.8,14.2-101.4-8.3-144.9l-0.1-0.1
				c-11.3-11.9-41.5-1.6-54.5,1.8c-0.7,0.2-1.3,0.5-1.8,0.9c-2.6,2-0.5,28.5-0.7,32.9c-1.7,37.3,0.6,75,0,112.4
				c-0.4,25.4-1.2,50.8-2.5,76.2c-1.2,23-0.9,47.1-9.3,68.9c-4.8,13-14.9,24.2-22.8,35.6c-9.1,13.1-18.4,26.1-27.3,39.4
				c-1,1.5-0.3,3.5,1.1,4.4c11.6,7.6,35.4-9.2,45.3-14.9c16.3-9.5,34.4-21.7,46.2-36.7c7.1-9.1,9-18.5,8.8-28.2
				C683.4,1301.5,681.8,1278.1,686.9,1254.9z"/>
			<path class="st8" d="M802,623.5c0.1-0.3,0.1-0.7,0-1.2c-19.4-105,3.2-212.2-41.5-317.1c-0.7-1.6-0.9-1-2.1-0.6
				c-0.4-1.9-1.9-3.4-4.4-2.9c-14.8,2.9-29.8,5.5-44.9,5.4c-19.5-0.1-36-6.8-54-13.3c-27-9.8-57.1-18-86-16.8
				c-1.1-0.4-2.3-0.1-3.2,1.3c-27.9,43.1-40.7,111.7-41,173c-0.2,30.4,1.9,60.9,6.2,91c2.6,18.4,5.2,38.5,10.6,57.2
				c3.7,9.8,8.3,19.2,14.1,27.9c46.6-9.3,93.2,8.3,139.3,13.7c32.4,3.8,80.7,11,106.7-14.7C802.5,625.6,802.5,624.5,802,623.5"/>
			<path class="st9" d="M566.3,645.1c-6.6-18.1-7.9-35.9-1.4-55.2c0.8-2.3-0.5-5.1-3.3-4.8c-4.4,0.5-8,1.6-11.6,3.6
				c-0.8-0.4-1.9-0.4-2.3,0.6c-0.2,0.4-0.3,0.8-0.5,1.2c-0.3,0.2-0.6,0.4-0.9,0.6c-1.4,1.1-1.5,2.6-0.9,3.8
				c-5.4,14.2-8.7,29-11.1,44c-2.3,14.2-4.9,29.9-1.4,44.1c4.5,18.1,18.8,28.9,35.4,28.1C559.7,690.8,560.4,666.6,566.3,645.1z"/>
			<path class="st10" d="M607.7,512.3c0-0.6-0.4-1.3-1.1-1.4c-45.9-7-62.6,56-70.7,89.8c-0.5,2,1.8,4.2,3.8,3.2
				c9.6-4.7,18.8-5,28.9-2.3c1.5,0.4,2.9-0.6,3.7-1.9c15.9-26.3,29.4-54.2,36.8-84.1C609.4,514.3,608.7,513.1,607.7,512.3z"/>
			<path class="st7" d="M554.1,1247.6c9.8-25.6,27.1-48,38.2-73.1c19.2-43.4,29.3-98.1,13.6-144.5l-0.1-0.2
				c-9.4-13.5-40.8-7.8-54.2-6.4c-0.7,0.1-1.4,0.3-1.9,0.6c-2.9,1.6-4.8,28.1-5.6,32.4c-7.3,36.6-10.7,74.2-16.9,111.1
				c-4.2,25.1-8.9,50.1-14,75c-4.6,22.6-8,46.4-19.5,66.7c-6.8,12.1-18.3,21.7-27.9,31.8c-11,11.6-22.1,23-32.9,34.8
				c-1.2,1.3-0.8,3.4,0.4,4.5c10.3,9.2,36.4-3.7,47-7.9c17.6-7,37.3-16.3,51.2-29.3c8.4-7.9,11.6-16.9,12.9-26.5
				C543.6,1293,545.6,1269.7,554.1,1247.6z"/>
			<path class="st9" d="M713.7,511.6c-8.2-0.9-16.5-1.3-24.8-1.8c-5.3-0.3-7.1,0.4-10.5-3.8c-3.7-4.7-2.5-10.7-1.6-16.3
				c0.4-2.1-1.4-4.2-3.6-4c-11,1-21.9,2-32.9,3.1c-1.4-1.2-4.3-0.9-4.5,1.4c-0.4,8.1,3.5,14.5-5.7,19.8c-4.6,2.6-15,1.7-20.1,3.3
				c-6.9,2.2-8.2,4.1-9.1,10.9c-1.1,8,3.6,23.5,7.6,30.5c3.9,6.8,9.6,10.4,16.8,13.2c18,7,41,7.5,58.3-1.8
				c19.3-10.3,26.9-30.6,32.8-50.4C717.1,514,715.5,511.8,713.7,511.6z"/>
			<path class="st9" d="M783.1,396.6c-0.2-8.8-4.2-18.4-13-21.2c-5.8-1.9-11.2-1.4-16.1,0.5c-0.3-2.6-0.6-5.3-0.9-7.9
				c-6.1-42.5-26.8-79.7-73.3-91.6c-27.1-7-57.3-1.5-80,15.3c-26.5,19.6-38.6,53.1-44.8,84.3c-0.7,3.7-1.3,7.4-1.7,11.1
				c-5.3-1.5-10.8-1.5-15.4,2.4c-5.7,4.8-7.8,14.5-6.5,21.6c1.6,8.4,9.2,13.7,17,16c2.3,0.7,5,1.1,7.8,1.1
				c3.2,12.3,8.6,24.2,16.7,35.2c30.8,41.9,85.8,47.2,130.5,25.3c29.4-14.4,44.4-41.2,49.5-70.9
				C765.6,419.2,783.3,408.7,783.1,396.6"/>
			<path class="st11" d="M595,381c-2,0-4,0.5-6.1,1.5c-10.8,5.4-11.7,20-12,30.3c0,0.9,0.8,1.4,1.7,1.4c0.6,0,1.1-0.3,1.4-0.9
				c1.7-4.8,3.3-9.8,5-14.6c1.6-4.6,4.6-10.7,10-10.7c0.6,0,1.3,0.1,2,0.3c6,1.5,7.9,9.2,8.5,14.5c0.4,3.1-1.2,11.1,1.9,13.2
				c0.5,0.3,1,0.5,1.4,0.5c2.1,0,3.4-3.5,3.8-5.4c1-5.2-0.1-11.5-1.7-16.6C608.5,387.5,602.3,381,595,381"/>
			<path class="st11" d="M693.7,377.3c-6.8,0-12.5,4.4-14.8,10.7c-2.3,6.1-3.7,16.7-1.5,23c0.3,0.8,0.9,1.1,1.6,1.1
				c0.5,0,1-0.2,1.4-0.6c7-6.8-0.7-27.5,13.6-27.5c6.1,0,8.4,6.6,9.2,11.7c0.5,3.5-1,9.7,2,12.1c0.3,0.3,0.7,0.4,1.1,0.4
				c0.2,0,0.4,0,0.5-0.1c5.3-2.1,3-13,1.9-17.2c-1.7-6.7-5.9-12.8-13.2-13.6C694.9,377.4,694.3,377.3,693.7,377.3"/>
			<path class="st12" d="M640.3,366c-1.2,0-2.3,0.8-2,2.2c3,15.4,6.4,31.9,1.2,47.2c-2.5,7.5-6.9,9.7-12,15c-1.7,1.7-4.4,4.4-4.6,7
				c-0.6,6.5,5.3,8.6,12,8.6c6.4,0,13.6-1.9,16.7-3.9c2.2-1.4,0.7-4.3-1.5-4.3c-0.2,0-0.4,0-0.7,0.1c-3.3,0.9-7,2.3-10.6,2.3
				c-0.4,0-0.8,0-1.3-0.1c-7.2-0.7-3-7.4,0.3-9.9c4.8-3.8,7.2-9.2,8.5-15.1c3.7-15.6,2.6-33.3-3.9-47.9
				C642.1,366.5,641.2,366,640.3,366"/>
			<path class="st8" d="M700.9,440.4c-25,8.7-51.2,12.4-77.5,15c-2.8,0.3-22.8,0.3-22.5,3.8c0.6,8.3,18.1,26,47.7,26
				c15.9,0,27.1-5.6,37-14.5C701.9,456.1,708.6,437.7,700.9,440.4z"/>
			<path class="st13" d="M690,443.8c-21.7,6.3-44.1,9.4-66.6,11.6c-1,0.1-4.2,0.2-7.8,0.4C629.8,469.8,684.8,460.8,690,443.8z"/>
			<path class="st8" d="M754.3,293.6c-11.6-21.7-38.5-42.2-61.8-26.8c-4.8-16.8-21.5-25.3-38.5-27.4c-23.9-3-46.1-0.9-65.8,13.7
				c-41.7,30.7-51.2,84-39.9,131.9c2.3,1.1,4.4,2.4,6.3,3.9c3.8-4.9,9.2-20.6,10.1-25.2c24.8-4.9,48.5-19.5,68.7-33.4
				c13-9,29.8-20.7,39.4-35.4c6.7,15.9,16.3,30.6,27.6,43.7c13.4,15.4,31.8,34.4,51.2,41.6l0,0c1.1,1,2.8,1.4,4.1,0.4
				C781.7,360.5,766.8,317.1,754.3,293.6z"/>
			<path class="st8" d="M705.6,365.7c-0.7-4.4-5.5-6-9.4-7c-4.7-1.2-9.5-0.7-14,1.2c-2.3,1-1.6,4.4,0.9,4.2
				c3.8-0.2,7.5,0.1,11.1,1.2c3,0.9,6,3.4,9.3,2.8C704.7,367.9,705.8,367,705.6,365.7z"/>
			<path class="st8" d="M601,364.7c-7.5-3.6-20.5-1.7-22.2,8.1c-0.2,1.2,0.2,2.5,1.1,3.3c2.9,2.4,5.9-1.1,8.3-2.6
				c2.9-1.8,6.1-3.1,9.5-1.9C602.2,373.1,605.5,366.9,601,364.7z"/>
			<path class="st14" d="M763.4,368c-12.8,2.2-23.7,10.6-35.4,15.8l0-0.2c-5.6-23.7-34.4-38-56-25.9c-0.1,0.1-0.2,0.1-0.3,0.2
				c-12.4,5.4-20.3,18.9-21.9,32.7c-3.3-1.7-8-2.1-11-1.7c-3.1,0.4-5.6,1.6-7.4,3.6c-5.4-23.4-33.1-37.7-54.5-25.6
				c-0.1,0.1-0.2,0.1-0.3,0.2c-8.7,3.9-15,11.8-18.6,20.9c-0.4-0.5-0.7-0.9-1.2-1.3c0.3-1.5,0.6-3.1,0.5-4.6c-0.2-2.8-4.5-3.8-5.7-1
				c-0.8,1.9-1,4.1-1.2,6.1c-0.1,1.3,0.3,2.8,1.7,3.3c1.1,0.5,2.1,1.2,3.3,1.5c0.4,0.1,0.8,0.1,1.2,0.2c-2.6,9.2-2.6,19.2,0.6,27.6
				c7.3,18.9,31.5,29.3,50.2,21.6c16.1-6.6,25.8-24.8,25-41.9l0-0.1c1.6-3.6,4.5-5.5,8.5-5.4c3.1,0.1,5.7,1.7,8.6,2.3
				c0,4.9,0.8,9.7,2.6,14.1c7.7,19.6,33.8,29.9,52.9,21.3c16.2-7.3,25.8-26.1,23.9-43.5c3.7-0.3,6.6-2,9.9-3.8
				c5-2.7,10.2-4.9,15.3-7.3c5.5-2.6,15.6-8.9,17.7-0.2c0.5,1.9,3.6,2,4.3,0.2C779.6,368.5,769.9,366.9,763.4,368z M605.6,433.9
				c-16.2,7.8-39,0.2-42.7-18.6c-1.8-9.1-0.9-18.4,3.6-26.6c9.8-18,30.8-25.9,47.7-11.3c6.6,5.7,10.4,13.9,10.8,22.6
				C625.7,413.6,618,427.9,605.6,433.9z M704,423.7c-15.7,8.9-40,2.7-45.7-15.4c-6.5-20.8,5.1-37,21.6-47.3c18.9,0,38.1,4.4,41.5,27
				C723.4,401.9,716.1,416.8,704,423.7z"/>
			<path class="st15" d="M744.4,769.7c-14.4-57.5-6.8-111.8,7-168.7c3.3-13.5,7.1-27.1,9.9-40.7c1.5-7.3,4.5-17.5,2.1-24.7
				c-12.2-16.1-30.1-23.7-57.1-26.6c-0.4,0.3-1.3,2.3-1.6,3c-8.3,20.1-20.4,40.5-41.6,49c-12.1,4.9-29.2,5.3-40.7-1.6
				c-15.1-9.1-12.9-31.8-11.8-47.2c0.1-0.8-6.5-2.7-8.1-0.2c-13.4,21.6-24.6,45.2-35.5,68.1c-6.6,13.9-13,29.3-13.9,44.9
				c0.2,0.5,0.4,1,0.3,1.6c-1.3,16.6,9,30.4,17,44c6.1,10.4,10.9,21.3,13.6,33.2c5.3,23.4,2.7,51.4-3.1,75.4
				c21.9,12.5,48.4,15.3,73.3,15.4c28.3,0.1,61.8-3.7,86.2-19.1c0.2-0.1,0.3-0.3,0.4-0.4C743.2,774.7,745.1,772.6,744.4,769.7z"/>
			<path class="st16" d="M787.1,888.5c-2.5-8.2-5-16.5-7.5-24.8c-12.1-34.2-26.8-68.2-34.4-103.5c-17.6,10.6-42.1,15.3-58.1,17.9
				c-36.3,5.8-72.4,1.4-105.9-13.7c-19.5,93.9-51.8,186.2-73.6,279.7c54.7,25.5,113.2,38.1,172.2,26c31.4-6.4,106.2-25.3,144.1-62.3
				C811.8,968,799.4,928.2,787.1,888.5z"/>
			<path class="st9" d="M746.5,493.4c-1.8,1.4-3.6,2.7-5.4,4c1.3-3,2.6-6,3.7-9.1c1.2-3.2-2-6.2-5-4.3c-5.7,3.5-14.7,13.7-18.8,18.7
				c1.7-3.4,11.7-18.7,7.1-19.6c-5.8-1.1-10.6,6.4-14.3,11c-5.1,6.4-7.5,9.6-12.5,16c-0.1-1-0.2-1.9-0.3-2.9
				c0.2-0.2,0.3-0.4,0.5-0.6c1.6-2.1-1-5.6-3.3-3.7c-23.4,19.3-33.8,48.7-49.7,73.6c-9.6,15.1-19.4,27-32.3,39.2
				c-12.9,12.2-23.4,28.3-55.9,39.4c-15.7,15.2-13.8,27.2-16.1,47.3c9.5,8.8,23.3,11.6,37.5,5.8c25.3-10.4,42.2-43.5,56.4-65.1
				c19.2-29.2,36.1-60.2,52.5-91.1c27.5-4.2,48.1-32,60.6-54.8C752.5,494.6,748.9,491.6,746.5,493.4z"/>
			<path class="st17" d="M760.9,578.9c-7.6-7.5-18.8-7.3-28.5-5c-0.4-0.7-1.4-1.1-2.2-0.3c-5.4,5.5-9.1,12.9-13.4,19.3
				c-4.7,7-9.5,13.8-14.4,20.6c-7.8,10.7-16.4,20.9-24.4,31.4c1.3-6.2,2.6-12.3,3.9-18.5c3.8-18.4,7.2-37.1,11.3-55.4
				c0.1-0.6,0.2-1.1,0.3-1.5c8.8-4.1,18.1-10,24.5-18.1c6.7-8.5,13-17.3,19.3-26.1c5.7-8,11.4-15,15.1-24.2c1.1-2.8-0.8-3.9-2.2-2.9
				c-4,3-13.3,13.1-17,16.4c5.1-6.4,15.7-19.5,17.3-27.9c0.3-1.7-1.8-3.2-3.9-1.1c-5.8,5.4-17.6,21-23,26.8
				c2.7-4.3,12.4-18.8,13.1-24.1c0.2-1.3-0.9-2.1-2.1-1.8c-6,1.5-10.2,8.4-14.1,12.8c-4,4.5-8.1,8.9-12.1,13.4
				c3.2-6.9,6-14,7.8-21.5c0.2-0.7-0.4-1.4-1.1-1.5c-4.5-0.9-6.6,2.7-9.2,6.1c-5.2,6.8-10.2,13.8-14.9,21
				c-6.1,9.2-11.3,18.8-16.2,28.5c-14.5,22.4-24,48.8-33.8,73.4c-5.3,13.3-10.1,26.7-14.8,40.2c-4.2,11.9-9.2,24.5-7.4,37.4
				c2.9,21.6,23.1,31,42.3,21.7c10.5-5.1,19.1-13.6,27.5-21.5c9.1-8.6,18-17.4,26.4-26.8c1.6-1.6,3.1-3.3,4.5-5.1
				c8.2-9.6,15.9-19.7,22.7-30.4c2.4-3.8,4.9-7.8,7.2-11.8c4.5-6.5,8.8-13.2,12.6-20.1C766.3,594.1,768.1,585.9,760.9,578.9z"/>
			<path class="st10" d="M777.5,553.7c0-0.1,0-0.3,0-0.4c-0.4-1.5-0.8-3-1.3-4.5c-3.9-11.2-12-17.9-23.1-24
				c-11.3,8.7-20.9,20.8-29.3,32.8c-11,15.8-26.4,38.1-31,57c0.2,0.3,29.9,23.4,42,34.9c8.4,8,34.7-43.9,41.4-68.1
				C778.7,572.5,778.8,563,777.5,553.7z"/>
			<rect x="340.1" y="837.2" class="st13" width="743.3" height="80.4"/>
			<rect x="373.3" y="796.1" class="st18" width="710.1" height="41.1"/>
			<rect x="373.3" y="790.4" class="st19" width="710.1" height="5.7"/>
			<rect x="373.3" y="790.4" class="st20" width="116.2" height="5.7"/>
			<polygon class="st13" points="387.3,824.2 387.3,810.1 401.4,817.4 			"/>
		</g>
		<rect x="373.3" y="862.1" class="st5" width="710.1" height="20.5"/>
		<polygon class="st2" points="118.6,231.9 530.7,225.5 528.5,316.7 128.3,351.3 		"/>
		<path class="st21" d="M164.5,259.6l9.1,28.9l13.3-29.8c3.3-1,6.5-1.1,9.7-0.4l-1.3,51.7l-11.3,0.5l0.6-24.7l-9.8,24.6
			c-1.7,0.9-3.3,0.7-4.7-0.8l-6.5-23.2l-1,25.1l-11.2,0.3L153,260C155.8,258.6,159.7,258.5,164.5,259.6z"/>
		<path class="st21" d="M229.2,256.3l15.7,49.6c-3.1,2.2-7.2,2.9-12.3,2.1l-2.8-9.2l-12.8,2.1l-2.9,9.5c-5.1,0.9-9,0.3-11.6-1.8
			l16.4-51.5C222.4,254.6,225.8,254.4,229.2,256.3z M223.8,273.1l-4.9,17.3l8.5-1.3L223.8,273.1z"/>
		<path class="st21" d="M284.6,254.6c1.3,3.6,1.2,7-0.2,10.2l-22.7,1.5l-0.3,8.9l18.7-1c1.9,3.3,1.8,6.5-0.1,9.6l-19,1.5l-0.6,10.8
			l23.3-1.5c2.1,4,1.9,7.9-0.4,11.6l-32.5,2.4c-1-0.2-1.6-0.9-1.9-2.1l1.4-47.8c0.2-0.9,0.7-1.6,1.6-2L284.6,254.6z"/>
		<path class="st21" d="M294.2,301.1c-1.7-5.2-1-9.3,2.2-12.3c6.1,3.3,10.5,5.3,13.2,6c5-0.2,7.7-1.6,8.1-4c0-2-1.6-3.8-4.8-5.5
			l-9.1-4c-5.7-2.8-8.7-6.9-9.1-12.2c0.1-3.1,1.1-5.9,2.9-8.5c1.8-2.5,4-4.3,6.4-5.1c2.4-0.9,5.3-1.2,8.6-1.2
			c6.1,0.2,11.6,1.7,16.3,4.6c0.3,4.4-0.9,8.2-3.7,11.6c-5.8-4-10.4-5.8-13.7-5.4c-3.2-0.3-4.8,0.9-4.9,3.6
			c-0.1,1.5,2.2,3.4,6.9,5.6c5.3,1.9,9.3,4.3,12,6.9c2.6,2.7,3.9,6,3.7,9.9c-0.2,5.3-2.5,9.5-7,12.5c-2.8,2.1-7,3.1-12.6,3
			C304.3,306,299.2,304.2,294.2,301.1z"/>
		<path class="st21" d="M373.8,251.5c1.7,3.7,1.8,7.4,0.1,11.2l-12.8,0.6l-0.5,40.5c-3.5,1.6-7.3,1.7-11.6,0.3l0.9-40l-12.6,0.7
			c-2.7-4.2-3-7.9-0.7-11L373.8,251.5z"/>
		<path class="st21" d="M388.3,251.7c11.5-1.5,19.6-1.9,24.2-1.3c4.6,0.6,7.6,2.6,9,6.1c1.4,3.4,1.6,8.1,0.7,14
			c-0.9,5.9-5.1,10-12.5,12.1l12.9,15.5c-2.1,4.6-5.9,6.3-11.3,4.8l-12.8-17.3l-4.1,0.6l-1.1,16.5c-4.7,1.8-8.5,1.6-11.4-0.7
			l2.7-47.7L388.3,251.7z M396,261.2l-1,14.4c9.6-1,14.9-2.9,15.9-5.7c1.1-2.8,1-5.3-0.1-7.5C409.8,260.3,404.8,259.9,396,261.2z"/>
		<path class="st21" d="M453.2,248.6c6.4-0.2,11.5,2.1,15.5,6.9c3.9,4.9,5.7,11.1,5.3,18.8c-0.4,7.7-2.8,14.1-7,19.2
			c-4.2,5.1-9.6,7.8-16,8c-6.4,0.2-11.8-2-16-6.7c-4.3-4.7-6.2-10.8-5.8-18.4c0.4-7.6,2.9-14.1,7.6-19.4
			C441.3,251.6,446.8,248.8,453.2,248.6z M452.7,261.7c-3.1,0.1-5.8,1.4-8.1,4c-2.4,2.6-3.7,5.9-4.1,10.1c-0.4,4.2,0.6,7.6,2.9,10.2
			c2.3,2.6,5.1,3.8,8.2,3.6c3.1-0.3,5.7-1.7,7.8-4.4c2-2.7,3.2-5.9,3.4-9.8s-0.6-7.2-2.6-9.8S455.7,261.7,452.7,261.7z"/>
		<path class="st21" d="M485.1,287.2c1,0,1.9,0.2,2.8,0.6c0.9,0.5,1.7,1.1,2.2,2c0.5,0.9,0.8,1.8,0.9,2.8c0,1-0.2,1.9-0.6,2.8
			s-1.1,1.6-2,2.2c-0.9,0.5-1.8,0.8-2.8,0.8c-1,0-2-0.2-2.9-0.6c-0.9-0.5-1.6-1.1-2.2-2s-0.8-1.8-0.8-2.8c0-1,0.2-2,0.7-2.9
			c0.5-0.9,1.2-1.6,2-2.2C483.2,287.5,484.1,287.2,485.1,287.2z M483.3,247.3l-0.5,36.5c2,1.2,4.5,1.3,7.5,0.2l5.6-35.4
			C492.2,246.1,488,245.7,483.3,247.3z"/>
		<polygon class="st2" points="135.4,123 525,119.8 524,209.5 124.4,231.8 		"/>
		<path class="st21" d="M146.4,201.2l5.6-35.4c3-1.1,5.4-1,7.5,0.2l-0.5,36.5C154.3,203.9,150.1,203.5,146.4,201.2z M160,161.6
			c0.9-0.5,1.6-1.2,2-2.2c0.5-0.9,0.7-1.9,0.7-2.9c0-1-0.3-1.9-0.8-2.8c-0.5-0.9-1.3-1.6-2.2-2c-0.9-0.5-1.9-0.7-2.9-0.6
			c-1,0-1.9,0.3-2.8,0.8c-0.9,0.5-1.6,1.2-2,2.2c-0.5,0.9-0.7,1.9-0.6,2.8c0,1,0.3,1.9,0.9,2.8c0.5,0.9,1.3,1.6,2.2,2
			c0.9,0.5,1.9,0.7,2.8,0.6C158.2,162.4,159.1,162.2,160,161.6z"/>
		<path class="st21" d="M203.9,150.6c1.3,3.6,1.2,7-0.2,10.2l-22.7,1.5l-0.3,11.6l18.6-1c1.9,3.3,1.9,6.5,0,9.6l-19,1.5l-0.6,19.7
			c-4.4,2.1-8.2,2.1-11.4,0.3l1.3-49.3c0.2-0.9,0.7-1.6,1.6-2L203.9,150.6z"/>
		<path class="st21" d="M247.1,149c1.3,3.6,1.2,7-0.2,10.2l-22.7,1.5l-0.3,8.9l18.7-1c1.9,3.3,1.8,6.5-0.1,9.6l-19,1.5l-0.6,10.8
			l23.3-1.5c2.1,4,1.9,7.9-0.4,11.6l-32.5,2.4c-1-0.2-1.6-0.9-1.9-2.1l1.4-47.8c0.2-0.9,0.7-1.6,1.6-2L247.1,149z"/>
		<path class="st21" d="M267.4,148.7l-1.1,40.3l20.8-1.3c2.1,4,1.9,7.9-0.4,11.6l-30.3,2.2c-1-0.2-1.6-0.9-1.9-2.1l1.1-49.6
			C258.4,148.4,262.3,148,267.4,148.7z"/>
		<path class="st21" d="M297.4,147.7c3.5-1,7.3-0.9,11.4,0.1l-2.3,51.3c-4.7,1.5-8.7,1.5-12-0.1L297.4,147.7z"/>
		<path class="st21" d="M318.9,146.5l33.5-1.1c2.4,3.2,2.7,6.8,1,10.9l-21.8,31.3l21.4-1.1c1.6,3.6,1.8,7.6,0.5,11.9l-35.5,1.4
			c-2.4-2-3-5.4-1.8-10.2l22.1-32l-21,0.9C316.4,153.9,316.9,149.9,318.9,146.5z"/>
		<path class="st21" d="M381.3,149.2l0.4-4.2l3.5-0.9l13.4-0.1c13.3,1.9,20.2,9.8,20.6,23.7c-0.1,7.1-1.5,13.1-4.4,18.1
			c-3.6,6.6-13.1,10.2-28.7,10.8l-4-1l-0.9-4.8L381.3,149.2z M392.3,154.7l-0.3,30.7c6,0.2,10.2-1,12.6-3.5
			c2.4-2.5,3.6-6.4,3.8-11.7c0.2-5.2-0.7-9.2-2.5-11.8C404.1,155.8,399.6,154.5,392.3,154.7z"/>
		<path class="st21" d="M427.1,143.1c3.5-1,7.3-0.9,11.4,0.1l-2.3,51.3c-4.7,1.5-8.7,1.5-12-0.1L427.1,143.1z M440,128.9l-11.4,7.9
			c0.1,2.5,1.2,4.2,3.1,5.1L443,134C442.5,132.1,441.5,130.4,440,128.9z"/>
		<path class="st21" d="M471.1,140.8l15.7,49.6c-3.1,2.2-7.2,2.9-12.3,2.1l-2.8-9.2l-12.8,2.1l-2.9,9.5c-5.1,0.9-9,0.3-11.6-1.8
			l16.4-51.5C464.3,139.2,467.8,138.9,471.1,140.8z M465.8,157.6l-4.9,17.3l8.5-1.3L465.8,157.6z"/>
		<path class="st21" d="M496.8,180.2c1.1,0,2.1,0.2,3.1,0.8s1.8,1.4,2.5,2.5c0.6,1.1,0.9,2.3,1,3.5c0.5,1.9-1,6.6-4.3,14.2l-4.8-1.1
			l0.3-5.8c-1.3-1.2-2.3-2.3-2.9-3.4c-0.6-1.1-0.9-2.2-1-3.4c0-1.2,0.2-2.4,0.7-3.5c0.5-1.1,1.3-2,2.3-2.7S495.7,180.3,496.8,180.2z
			"/>
	</g>
</g>
</svg>
