<?xml version="1.0" encoding="utf-8"?>
<!-- Generator: Adobe Illustrator 24.0.2, SVG Export Plug-In . SVG Version: 6.00 Build 0)  -->
<svg version="1.1" id="Capa_1" xmlns="http://www.w3.org/2000/svg" xmlns:xlink="http://www.w3.org/1999/xlink" x="0px" y="0px"
	 viewBox="0 0 350 280" style="enable-background:new 0 0 350 280;" xml:space="preserve">
<style type="text/css">
	.st0{fill:#2FC288;}
	.st1{fill:#FFFFFF;}
	.st2{clip-path:url(#SVGID_2_);fill:#FF9A77;}
	.st3{clip-path:url(#SVGID_2_);fill:#75A076;}
	.st4{clip-path:url(#SVGID_2_);fill:#F2886C;}
	.st5{clip-path:url(#SVGID_2_);fill:#352836;}
	.st6{clip-path:url(#SVGID_2_);fill:#CE6655;}
	.st7{clip-path:url(#SVGID_2_);fill:#181B34;}
	.st8{clip-path:url(#SVGID_2_);fill:#FFFFFF;}
	.st9{clip-path:url(#SVGID_2_);fill:#5996BF;}
	.st10{clip-path:url(#SVGID_2_);fill:#F2CBB2;}
	.st11{clip-path:url(#SVGID_2_);fill:#438584;}
	.st12{clip-path:url(#SVGID_2_);fill:#3C7071;}
	.st13{clip-path:url(#SVGID_2_);fill:#FFDEBF;}
	.st14{clip-path:url(#SVGID_2_);fill:#FFEDEE;}
	.st15{clip-path:url(#SVGID_2_);fill:#7F5E6A;}
	.st16{clip-path:url(#SVGID_2_);fill:#5C4654;}
	.st17{clip-path:url(#SVGID_2_);fill:#9B687D;}
	.st18{clip-path:url(#SVGID_2_);fill:#FFEFDD;}
	.st19{clip-path:url(#SVGID_2_);fill:#7E9F7E;}
	.st20{clip-path:url(#SVGID_2_);fill:#E68B76;}
</style>
<g>
	<polyline class="st0" points="0,0 350,0 350,280 0,280 0,0 	"/>
	<polygon class="st1" points="37.5,96 182.1,93.8 181.3,125.8 40.8,137.9 	"/>
	<path class="st0" d="M53.6,105.8l3.2,10.2l4.7-10.5c1.2-0.3,2.3-0.4,3.4-0.1l-0.5,18.1l-4,0.2l0.2-8.7l-3.4,8.6
		c-0.6,0.3-1.2,0.2-1.7-0.3l-2.3-8.2l-0.3,8.8l-3.9,0.1l0.6-18.2C50.5,105.4,51.8,105.4,53.6,105.8z"/>
	<path class="st0" d="M76.3,104.6l5.5,17.4c-1.1,0.8-2.5,1-4.3,0.7l-1-3.2l-4.5,0.7l-1,3.3c-1.8,0.3-3.2,0.1-4.1-0.6l5.8-18.1
		C73.9,104,75.1,103.9,76.3,104.6z M74.4,110.5l-1.7,6.1l3-0.5L74.4,110.5z"/>
	<path class="st0" d="M95.7,104c0.4,1.3,0.4,2.5-0.1,3.6l-8,0.5l-0.1,3.1l6.6-0.4c0.7,1.2,0.6,2.3,0,3.4l-6.7,0.5l-0.2,3.8l8.2-0.5
		c0.7,1.4,0.7,2.8-0.1,4.1L83.8,123c-0.4-0.1-0.6-0.3-0.7-0.7l0.5-16.8c0.1-0.3,0.3-0.6,0.5-0.7L95.7,104z"/>
	<path class="st0" d="M99.1,120.3c-0.6-1.8-0.3-3.3,0.8-4.3c2.1,1.2,3.7,1.9,4.6,2.1c1.8-0.1,2.7-0.6,2.8-1.4c0-0.7-0.5-1.3-1.7-1.9
		l-3.2-1.4c-2-1-3.1-2.4-3.2-4.3c0-1.1,0.4-2.1,1-3c0.6-0.9,1.4-1.5,2.2-1.8c0.8-0.3,1.8-0.4,3-0.4c2.2,0.1,4.1,0.6,5.7,1.6
		c0.1,1.5-0.3,2.9-1.3,4.1c-2-1.4-3.6-2-4.8-1.9c-1.1-0.1-1.7,0.3-1.7,1.3c0,0.5,0.8,1.2,2.4,2c1.9,0.7,3.3,1.5,4.2,2.4
		c0.9,0.9,1.4,2.1,1.3,3.5c-0.1,1.9-0.9,3.3-2.5,4.4c-1,0.8-2.5,1.1-4.4,1C102.6,122,100.8,121.4,99.1,120.3z"/>
	<path class="st0" d="M127,102.9c0.6,1.3,0.6,2.6,0,3.9l-4.5,0.2l-0.2,14.2c-1.2,0.6-2.6,0.6-4.1,0.1l0.3-14l-4.4,0.3
		c-1-1.5-1-2.8-0.2-3.9L127,102.9z"/>
	<path class="st0" d="M132.1,103c4-0.5,6.9-0.7,8.5-0.5c1.6,0.2,2.7,0.9,3.1,2.1c0.5,1.2,0.6,2.8,0.2,4.9c-0.3,2.1-1.8,3.5-4.4,4.2
		l4.5,5.4c-0.7,1.6-2.1,2.2-3.9,1.7l-4.5-6.1l-1.4,0.2l-0.4,5.8c-1.6,0.6-3,0.6-4-0.2l1-16.8L132.1,103z M134.8,106.3l-0.3,5.1
		c3.4-0.3,5.2-1,5.6-2c0.4-1,0.4-1.9,0-2.6C139.6,106,137.9,105.8,134.8,106.3z"/>
	<path class="st0" d="M154.9,101.9c2.2-0.1,4,0.7,5.4,2.4c1.4,1.7,2,3.9,1.8,6.6c-0.1,2.7-1,4.9-2.5,6.7c-1.5,1.8-3.4,2.7-5.6,2.8
		c-2.3,0.1-4.1-0.7-5.6-2.4c-1.5-1.6-2.2-3.8-2-6.5c0.1-2.7,1-4.9,2.7-6.8C150.7,102.9,152.6,102,154.9,101.9z M154.7,106.5
		c-1.1,0-2,0.5-2.9,1.4s-1.3,2.1-1.4,3.5s0.2,2.7,1,3.6c0.8,0.9,1.8,1.3,2.9,1.2c1.1-0.1,2-0.6,2.7-1.5c0.7-0.9,1.1-2.1,1.2-3.5
		c0.1-1.4-0.2-2.5-0.9-3.4C156.6,106.9,155.8,106.5,154.7,106.5z"/>
	<path class="st0" d="M166.1,115.4c0.3,0,0.7,0.1,1,0.2c0.3,0.2,0.6,0.4,0.8,0.7c0.2,0.3,0.3,0.6,0.3,1c0,0.3-0.1,0.7-0.2,1
		c-0.2,0.3-0.4,0.6-0.7,0.8s-0.6,0.3-1,0.3c-0.3,0-0.7-0.1-1-0.2c-0.3-0.2-0.6-0.4-0.8-0.7c-0.2-0.3-0.3-0.6-0.3-1
		c0-0.3,0.1-0.7,0.2-1c0.2-0.3,0.4-0.6,0.7-0.8C165.4,115.5,165.7,115.4,166.1,115.4z M165.4,101.4l-0.2,12.8
		c0.7,0.4,1.6,0.5,2.6,0.1l2-12.4C168.6,101,167.1,100.9,165.4,101.4z"/>
	<polygon class="st1" points="43.3,57.8 180.1,56.7 179.7,88.2 39.5,96 	"/>
	<path class="st0" d="M47.2,85.2l2-12.4c1-0.4,1.9-0.4,2.6,0.1l-0.2,12.8C50,86.2,48.5,86.1,47.2,85.2z M52,71.4
		c0.3-0.2,0.5-0.4,0.7-0.8c0.2-0.3,0.2-0.7,0.2-1c0-0.3-0.1-0.7-0.3-1c-0.2-0.3-0.4-0.5-0.8-0.7c-0.3-0.2-0.7-0.2-1-0.2
		c-0.3,0-0.7,0.1-1,0.3c-0.3,0.2-0.5,0.4-0.7,0.8c-0.2,0.3-0.2,0.7-0.2,1c0,0.4,0.1,0.7,0.3,1c0.2,0.3,0.4,0.5,0.8,0.7
		c0.3,0.2,0.7,0.2,1,0.2C51.3,71.6,51.6,71.5,52,71.4z"/>
	<path class="st0" d="M67.4,67.5c0.4,1.3,0.4,2.5-0.1,3.6l-8,0.5l-0.1,4.1l6.5-0.4c0.7,1.2,0.7,2.3,0,3.4l-6.7,0.5l-0.2,6.9
		c-1.5,0.7-2.9,0.8-4,0.1l0.5-17.3c0.1-0.3,0.3-0.6,0.5-0.7L67.4,67.5z"/>
	<path class="st0" d="M82.5,66.9c0.4,1.3,0.4,2.5-0.1,3.6l-8,0.5l-0.1,3.1l6.6-0.4c0.7,1.2,0.6,2.3,0,3.4l-6.7,0.5L74,81.5l8.2-0.5
		c0.7,1.4,0.7,2.8-0.1,4.1l-11.4,0.9c-0.4-0.1-0.6-0.3-0.7-0.7l0.5-16.8c0.1-0.3,0.3-0.6,0.5-0.7L82.5,66.9z"/>
	<path class="st0" d="M89.7,66.8L89.3,81l7.3-0.5c0.7,1.4,0.7,2.8-0.1,4.1l-10.6,0.8c-0.4-0.1-0.6-0.3-0.7-0.7l0.4-17.4
		C86.5,66.7,87.9,66.6,89.7,66.8z"/>
	<path class="st0" d="M100.2,66.5c1.2-0.3,2.6-0.3,4,0l-0.8,18c-1.6,0.5-3,0.5-4.2,0L100.2,66.5z"/>
	<path class="st0" d="M107.7,66l11.7-0.4c0.8,1.1,1,2.4,0.4,3.8l-7.6,11l7.5-0.4c0.6,1.3,0.6,2.7,0.2,4.2l-12.5,0.5
		c-0.8-0.7-1-1.9-0.6-3.6l7.8-11.2l-7.4,0.3C106.9,68.6,107,67.2,107.7,66z"/>
	<path class="st0" d="M129.6,67l0.1-1.5l1.2-0.3l4.7,0c4.7,0.7,7.1,3.4,7.2,8.3c0,2.5-0.5,4.6-1.6,6.4c-1.3,2.3-4.6,3.6-10.1,3.8
		l-1.4-0.3l-0.3-1.7L129.6,67z M133.5,68.9l-0.1,10.8c2.1,0.1,3.6-0.4,4.4-1.2c0.8-0.9,1.3-2.3,1.3-4.1c0.1-1.8-0.2-3.2-0.9-4.1
		C137.6,69.3,136,68.9,133.5,68.9z"/>
	<path class="st0" d="M145.7,64.8c1.2-0.3,2.6-0.3,4,0l-0.8,18c-1.6,0.5-3,0.5-4.2,0L145.7,64.8z M150.3,59.8l-4,2.8
		c0,0.9,0.4,1.5,1.1,1.8l3.9-2.7C151.1,61,150.8,60.4,150.3,59.8z"/>
	<path class="st0" d="M161.2,64.1l5.5,17.4c-1.1,0.8-2.5,1-4.3,0.7l-1-3.2l-4.5,0.7l-1,3.3c-1.8,0.3-3.2,0.1-4.1-0.6l5.8-18.1
		C158.8,63.5,160,63.4,161.2,64.1z M159.3,70l-1.7,6.1l3-0.5L159.3,70z"/>
	<path class="st0" d="M170.2,77.9c0.4,0,0.7,0.1,1.1,0.3c0.4,0.2,0.6,0.5,0.9,0.9c0.2,0.4,0.3,0.8,0.3,1.2c0.2,0.7-0.3,2.3-1.5,5
		l-1.7-0.4l0.1-2c-0.5-0.4-0.8-0.8-1-1.2c-0.2-0.4-0.3-0.8-0.3-1.2c0-0.4,0.1-0.8,0.3-1.2c0.2-0.4,0.5-0.7,0.8-0.9
		C169.4,78,169.8,77.9,170.2,77.9z"/>
	<g>
		<defs>
			<polyline id="SVGID_1_" points="0,0 350,0 350,280 0,280 0,0 			"/>
		</defs>
		<clipPath id="SVGID_2_">
			<use xlink:href="#SVGID_1_"  style="overflow:visible;"/>
		</clipPath>
		<path class="st2" d="M263.7,161.7c1.2,0.9,8.8,2.7,17.4,4.6c-19.8,25.1-61.8,22-85.4,0.6c10.1-1.8,21.6-3.7,24.6-4.1
			c5.7-0.7,2.6-31.1,2.6-31.1l43.9-4.4C266.8,127.3,260.6,159.5,263.7,161.7"/>
		<path class="st3" d="M222.9,131.7c0.1,1.1,2.6,26.7-1.6,30.6h0C225.5,158.4,223,132.8,222.9,131.7 M222.9,131.7L222.9,131.7
			L222.9,131.7 M222.9,131.7L222.9,131.7L222.9,131.7 M222.9,131.7L222.9,131.7L222.9,131.7 M222.9,131.7L222.9,131.7L222.9,131.7
			 M222.9,131.7L222.9,131.7L222.9,131.7 M222.9,131.7L222.9,131.7L222.9,131.7 M222.9,131.7L222.9,131.7L222.9,131.7 M222.9,131.7
			L222.9,131.7 M266.8,127.3c-0.1,0.7-3.5,18.1-3.9,27.9l0,0C263.3,145.4,266.6,128,266.8,127.3 M266.8,127.3L266.8,127.3
			L266.8,127.3 M266.8,127.3L266.8,127.3L266.8,127.3 M266.8,127.3L266.8,127.3L266.8,127.3 M266.8,127.3L266.8,127.3"/>
		<path class="st4" d="M266.8,127.3l-43.9,4.4v0v0l0,0v0v0l0,0l0,0v0l0,0v0l0,0v0l0,0l0,0c0.1,1.1,2.6,26.7-1.6,30.6
			c14.7-0.5,29.2-2.3,41.6-7.1C263.3,145.4,266.6,128,266.8,127.3L266.8,127.3L266.8,127.3L266.8,127.3L266.8,127.3"/>
		<path class="st2" d="M270.3,72.2c0,0-12.4-22-39.8-15.4c-27.4,6.6-29.4,31.3-31.1,52.9c-1.7,21.6,4.6,45.6,30.1,44.7
			C248.5,153.7,281,146.3,270.3,72.2z"/>
		<path class="st2" d="M270.6,97.2c0,0,1.2-4.1,7.7-0.1c8.3,5,1.8,25.9-7.8,24.5C260.8,120.1,270.6,97.2,270.6,97.2z"/>
		<path class="st5" d="M266.3,47.5c-12.8,0.8-20.9,9.6-13,9.5c-6.3,8.3,10.5,7.7,0.8,10.6c-3.4,16.2,9.3,26.5,9.3,26.5l0.9,17.2
			l4.7,0c0,0-1.6-13.1,3.9-14.8c5.6-1.8,8.1,4.7,8.1,4.7C289.5,85.4,290.3,46,266.3,47.5z"/>
		<path class="st5" d="M263.5,94.1c0,0,2.9,39.3-7.6,42.3c-10.5,3-1.5-12.5-15.5-12c-14,0.5-34.5-2-33,9.5c1.5,11.5-3,7.5-6-2
			c0,0-6,22.5,18,26.5c24,4,53.9-0.8,49.7-47.2C264.8,65,269.3,87,269.3,87L263.5,94.1z"/>
		<path class="st5" d="M257.8,68c0,0-27,13.5-38,10.5c-11-3-3-10.5-3-10.5s-10.5,10.5-22,1.5c-11.5-9,13-18.5,13-18.5
			s-15.5,5.5-18.5,0c-3-5.5,23.5-4.5,23.5-4.5s-16-4-14-12c2-8,31,6.5,31,6.5s-23.5-8-12-14.5c11.5-6.5,47.5,6,47.5,25.5
			S257.8,68,257.8,68z"/>
		<path class="st5" d="M228.7,91.7c1.2-1.9,3.1-3.2,5.2-4c2.1-0.8,4.4-1.2,6.8-0.9c2.3,0.3,4.6,1.2,6.3,2.7c0.9,0.6,1.6,1.6,2.3,2.4
			c0.4,0.4,0.6,0.9,0.9,1.4c0.3,0.5,0.5,1,0.7,1.5c-1.1-0.4-2-0.9-2.9-1.3c-1-0.4-1.8-0.8-2.7-1.1c-1.7-0.7-3.5-1.1-5.2-1.3
			c-1.7-0.2-3.5-0.3-5.4-0.1C232.8,91.1,230.9,91.4,228.7,91.7z"/>
		<path class="st5" d="M201.8,93c0.4-1.8,1.4-3.3,2.7-4.5c1.4-1.2,3.2-2.1,5.2-2.2c0.5-0.1,1,0,1.5,0c0.5,0.1,1,0.1,1.4,0.3
			c0.5,0.2,0.9,0.3,1.4,0.5c0.4,0.2,0.8,0.5,1.2,0.7c0.4,0.2,0.7,0.5,1.1,0.9c0.3,0.3,0.6,0.6,0.9,1c0.5,0.7,1,1.5,1.4,2.3
			c-0.9-0.2-1.7-0.6-2.4-0.8c-0.4-0.1-0.8-0.2-1.1-0.3c-0.4-0.1-0.7-0.3-1.1-0.3c-0.4-0.1-0.7-0.2-1-0.3l-1-0.1
			c-0.3-0.1-0.7-0.1-1-0.1c-0.3,0-0.6,0-1,0c-1.3,0.1-2.6,0.4-3.9,1C204.8,91.4,203.4,92.1,201.8,93z"/>
		<path class="st6" d="M218.4,94c0,2.5,0,5-0.2,7.4c-0.1,2.5-0.3,4.9-0.5,7.4c-0.2,2.5-0.5,4.9-0.8,7.3c-0.3,2.4-0.6,4.9-1,7.3
			l-0.6-0.9c1.2,0.5,2.4,1,3.6,1.6c1.2,0.6,2.4,1.1,3.5,1.8c-1.3-0.2-2.6-0.5-3.9-0.8c-1.3-0.3-2.5-0.7-3.8-1l-0.6-0.2l0.1-0.7
			c0.2-2.5,0.4-4.9,0.7-7.4c0.2-2.5,0.6-4.9,0.9-7.3c0.3-2.4,0.7-4.9,1.1-7.3C217.3,98.8,217.8,96.4,218.4,94z"/>
		<path class="st6" d="M272.5,117.2c0.5-0.5,0.9-1.1,1.2-1.7c0.4-0.6,0.6-1.2,0.7-1.8c0.1-0.6,0-1.2-0.3-1.6c-0.3-0.5-0.9-0.7-1.4-1
			l-0.3-0.2l-0.1-0.3c-0.3-1.6-0.4-3.3-0.4-5c0-0.8,0-1.7,0.2-2.5c0.1-0.8,0.3-1.7,0.7-2.6c0.2-0.4,0.5-0.9,0.9-1.2
			c0.4-0.4,1.1-0.5,1.6-0.4c0.6,0.1,0.9,0.3,1.3,0.4l0.6,0.3l0.5,0.4c1.4,1.2,1.8,3.1,1.5,4.7c-0.1-1.6-0.8-3.2-2.1-3.9l-0.5-0.3
			l-0.5-0.2c-0.3-0.1-0.8-0.2-1-0.2c-0.3,0-0.5,0.1-0.7,0.3c-0.2,0.2-0.4,0.4-0.5,0.8c-0.5,1.3-0.6,3-0.6,4.5c0,1.6,0.1,3.2,0.2,4.8
			l-0.4-0.5c0.6,0.4,1.3,0.8,1.8,1.6c0.5,0.7,0.5,1.7,0.2,2.4c-0.2,0.7-0.7,1.3-1.2,1.9C273.6,116.4,273.1,116.8,272.5,117.2z"/>
		<path class="st7" d="M243.6,102.1c0.2,1.8-0.1,3.9-1.3,5.6c-1.1,1.7-3.3,2.9-5.5,2.8c-2.2-0.1-4.3-1.6-5.1-3.5
			c-0.9-1.9-0.7-4-0.2-5.7c0.3,1.9,0.7,3.6,1.6,4.9c0.9,1.3,2.3,2.1,3.7,2.2c1.5,0,2.9-0.6,4.1-1.7
			C242.2,105.4,243,103.8,243.6,102.1z"/>
		<path class="st7" d="M214.6,100.5c0.2,1.8-0.1,3.8-1.2,5.5c-1.1,1.7-3.1,3-5.3,2.9c-2.2-0.1-4.2-1.7-4.9-3.5
			c-0.8-1.9-0.6-3.9-0.1-5.6c0.3,1.8,0.6,3.5,1.5,4.9c0.9,1.3,2.1,2.1,3.6,2.2c1.4,0,2.8-0.6,3.9-1.8
			C213.3,103.8,214,102.2,214.6,100.5z"/>
		<path class="st8" d="M212.7,131.7l31.9-2.9C244.5,128.8,230.5,146.4,212.7,131.7z"/>
		<path class="st9" d="M182.9,294.1c0,0-23.4,195.8-18.8,354.3c0,0,28,8.2,35.4,2.2c6.3-37.6,5.5-110.5,15-164.9
			c9-51.2,12.5-101.5,12.5-101.5l3,0c0,0,19.3,252.6,23.5,271.4c24.3,5.9,32-1,32-1s11.1-309.6,4.3-359.6
			C280.8,229.6,182.9,294.1,182.9,294.1"/>
		<path class="st10" d="M167.8,170.7c0,0-10.7-1-14.1,23c-3.4,24-8.2,84.7-8.2,84.7l27.5,11.9c0,0,14.1-47.1,15.6-52.7
			C190.1,231.9,167.8,170.7,167.8,170.7"/>
		<path class="st11" d="M176.5,303.9c-3-39-8.7-133.2-8.7-133.2l36.6-7c8.4,9.2,14.1,14.6,26.8,16c15.7,1.6,32.6-4.6,39.6-16.6
			c14.8,3.5,18,4.8,24.5,6.9c7.9,2.5,5.8,152.2-2.8,161.8c-8.6,9.6-113,3.9-119.1-15.4C172.6,314,177.1,311.8,176.5,303.9"/>
		<path class="st12" d="M288.6,167.8c-16.7,50.6-57.5,89-105.9,104.7c-2.8,0.9-5.5,1.7-8.3,2.4c0.1,1.7,0.2,3.4,0.3,5.1h124.4
			c0.7-15.5,1.1-32.7,1.1-48.7c0-32.4-1.6-60.2-4.9-61.3C292.9,169.2,290.9,168.5,288.6,167.8"/>
		<polygon class="st13" points="199.1,164.2 220.4,194.6 226.5,179.2 230.9,179.8 227.7,170.8 205.4,155.1 		"/>
		<polygon class="st13" points="236.8,180.1 240.1,171.2 270.5,153.4 275.9,163.5 244.8,197 242.4,179.9 		"/>
		<polygon class="st10" points="227.6,170.7 226.5,179.2 230.9,179.8 227.7,170.8 		"/>
		<polygon class="st10" points="236.8,180.1 242.4,179.9 240,171.3 		"/>
		<path class="st8" d="M137.5,210c0,0,5.4-17.5-19.9-37.7l-3.8,10.3L137.5,210"/>
		<path class="st14" d="M136.3,206.4c0,0-5.6-21.6-23.6-29.9l-4.9,6.6L136.3,206.4"/>
		<path class="st8" d="M135.9,209.4c0,0-5-18.2,30.7-34.4l3.8,10.8L135.9,209.4"/>
		<path class="st14" d="M178.5,182.2l-3.9-6.1c0,0-35.1,11.2-38.3,30.3L178.5,182.2"/>
		<polyline class="st15" points="108.5,180.6 135.1,200.5 178.3,178.2 199.1,225.9 160.2,245.9 153.8,244.2 135.8,249.3 
			108.5,180.6 		"/>
		<polyline class="st16" points="108.5,180.6 138.5,248.2 153.8,244.2 160.2,245.9 135.1,200.5 133.7,199.5 109.2,181.2 
			108.5,180.6 		"/>
		<polygon class="st17" points="133.1,199 137.6,199.4 160.2,245.9 154.4,245.7 		"/>
		<path class="st2" d="M109.3,191.2c-1.3,2.4,26.6,96.7,35.3,105.4c8.7,8.7,20.8,4.2,24.4-5.5s-45.5-92.8-45.5-92.8s27.7-21-2.5-3.7
			c0,0,31-24.1-3.2-2.3c0,0,31.2-30.7-2.9-2.6C114.8,189.6,134.6,154,109.3,191.2z"/>
		<path class="st13" d="M144.8,228.4c12.4,20.6,30.4,57.3,28.3,61.9c-4.7,10-19.6,15-29.9,6.5c-5.1-4.2-18.9-39.5-25-58.8
			C127.2,235.1,136,231.9,144.8,228.4z"/>
		<path class="st18" d="M119.1,247.5c0,0,24.3-6.1,29.9-12.4l-6.8-13.7l-28.5,9.9L119.1,247.5z"/>
		<path class="st2" d="M343.4,269.2l-4,1.9l-43.4,51c0,0-7.8-10.9-10.9-11.3c-1.2-0.2-7.7,2.6-13.1,5.3c-8.9,4.5-14.6,9,12,0.6
			c0,0-30.2,13.2,0.1,5.2c0,0-36.5,11.4,1.6,3.9c0,0-25,15.7,4.6,5.8c0,0,1.1,11.5,8.1,11c10.8-0.7,73-44.9,70.4-54.3
			S343.4,269.2,343.4,269.2"/>
		<path class="st19" d="M343.4,269.2l-4,1.9l-7.5,8.8l7.5-8.8L343.4,269.2c0,0,2.8,1.2,6.6,3.2C346.2,270.4,343.4,269.2,343.4,269.2
			"/>
		<path class="st20" d="M343.4,269.2l-4,1.9l-7.5,8.8H350v-7.6C346.2,270.4,343.4,269.2,343.4,269.2"/>
		<path class="st13" d="M338.6,251.9c0,0,45.8,12,42.4,20.4c-13.1,32.5-46.9,51.4-46.9,51.4L315,299.7l24.3-31.3L338.6,251.9z"/>
		<path class="st13" d="M333.4,188.5c-12.1-16-26-20-36.6-20.8c-4.6,0.7-10.5,3.1-12.3,10.1c-2.8,10.9,2.1,24.3,15.6,42.4
			c4.3,4.1,49.9,68.9,55.5,77c17.7-6.7,15.5-13.9,25.3-24.9C372.4,236.9,335.7,191.5,333.4,188.5z"/>
	</g>
</g>
</svg>
