<?xml version="1.0" encoding="utf-8"?>
<!-- Generator: Adobe Illustrator 24.0.2, SVG Export Plug-In . SVG Version: 6.00 Build 0)  -->
<svg version="1.1" id="Capa_1" xmlns="http://www.w3.org/2000/svg" xmlns:xlink="http://www.w3.org/1999/xlink" x="0px" y="0px"
	 viewBox="0 0 900 1080" style="enable-background:new 0 0 900 1080;" xml:space="preserve">
<style type="text/css">
	.st0{clip-path:url(#SVGID_2_);fill:#2FC288;}
	.st1{clip-path:url(#SVGID_2_);fill:#FFFFFF;}
	.st2{clip-path:url(#SVGID_2_);fill:#FF9A77;}
	.st3{clip-path:url(#SVGID_2_);fill:#75A076;}
	.st4{clip-path:url(#SVGID_2_);fill:#F2886C;}
	.st5{clip-path:url(#SVGID_2_);fill:#352836;}
	.st6{clip-path:url(#SVGID_2_);fill:#CE6655;}
	.st7{clip-path:url(#SVGID_2_);fill:#181B34;}
	.st8{clip-path:url(#SVGID_2_);fill:#5996BF;}
	.st9{clip-path:url(#SVGID_2_);fill:#F2CBB2;}
	.st10{clip-path:url(#SVGID_2_);fill:#FFDEBF;}
	.st11{clip-path:url(#SVGID_2_);fill:#438584;}
	.st12{clip-path:url(#SVGID_2_);fill:#2CA074;}
	.st13{clip-path:url(#SVGID_2_);fill:#3C7071;}
	.st14{clip-path:url(#SVGID_2_);fill:#FFEDEE;}
	.st15{clip-path:url(#SVGID_2_);fill:#7F5E6A;}
	.st16{clip-path:url(#SVGID_2_);fill:#5C4654;}
	.st17{clip-path:url(#SVGID_2_);fill:#9B687D;}
	.st18{clip-path:url(#SVGID_2_);fill:#FFEFDD;}
	.st19{clip-path:url(#SVGID_2_);fill:#7E9F7E;}
	.st20{clip-path:url(#SVGID_2_);fill:#E68B76;}
</style>
<g>
	<g>
		<defs>
			<polyline id="SVGID_1_" points="0,0 900,0 900,1080 0,1080 0,0 			"/>
		</defs>
		<clipPath id="SVGID_2_">
			<use xlink:href="#SVGID_1_"  style="overflow:visible;"/>
		</clipPath>
		<polyline class="st0" points="0,0 900,0 900,1080 0,1080 0,0 		"/>
		<polygon class="st1" points="118.6,231.9 530.7,225.5 528.5,316.7 128.3,351.3 		"/>
		<path class="st0" d="M164.5,259.6l9.1,28.9l13.3-29.8c3.3-1,6.5-1.1,9.7-0.4l-1.3,51.7l-11.3,0.5l0.6-24.7l-9.8,24.6
			c-1.7,0.9-3.3,0.7-4.7-0.8l-6.5-23.2l-1,25.1l-11.2,0.3L153,260C155.8,258.6,159.7,258.5,164.5,259.6z"/>
		<path class="st0" d="M229.2,256.3l15.7,49.6c-3.1,2.2-7.2,2.9-12.3,2.1l-2.8-9.2l-12.8,2.1l-2.9,9.5c-5.1,0.9-9,0.3-11.6-1.8
			l16.4-51.5C222.4,254.6,225.8,254.4,229.2,256.3z M223.8,273.1l-4.9,17.3l8.5-1.3L223.8,273.1z"/>
		<path class="st0" d="M284.6,254.6c1.3,3.6,1.2,7-0.2,10.2l-22.7,1.5l-0.3,8.9l18.7-1c1.9,3.3,1.8,6.5-0.1,9.6l-19,1.5l-0.6,10.8
			l23.3-1.5c2.1,4,1.9,7.9-0.4,11.6l-32.5,2.4c-1-0.2-1.6-0.9-1.9-2.1l1.4-47.8c0.2-0.9,0.7-1.6,1.6-2L284.6,254.6z"/>
		<path class="st0" d="M294.2,301.1c-1.7-5.2-1-9.3,2.2-12.3c6.1,3.3,10.5,5.3,13.2,6c5-0.2,7.7-1.6,8.1-4c0-2-1.6-3.8-4.8-5.5
			l-9.1-4c-5.7-2.8-8.7-6.9-9.1-12.2c0.1-3.1,1.1-5.9,2.9-8.5c1.8-2.5,4-4.3,6.4-5.1c2.4-0.9,5.3-1.2,8.6-1.2
			c6.1,0.2,11.6,1.7,16.3,4.6c0.3,4.4-0.9,8.2-3.7,11.6c-5.8-4-10.4-5.8-13.7-5.4c-3.2-0.3-4.8,0.9-4.9,3.6
			c-0.1,1.5,2.2,3.4,6.9,5.6c5.3,1.9,9.3,4.3,12,6.9c2.6,2.7,3.9,6,3.7,9.9c-0.2,5.3-2.5,9.5-7,12.5c-2.8,2.1-7,3.1-12.6,3
			C304.3,306,299.2,304.2,294.2,301.1z"/>
		<path class="st0" d="M373.8,251.5c1.7,3.7,1.8,7.4,0.1,11.2l-12.8,0.6l-0.5,40.5c-3.5,1.6-7.3,1.7-11.6,0.3l0.9-40l-12.6,0.7
			c-2.7-4.2-3-7.9-0.7-11L373.8,251.5z"/>
		<path class="st0" d="M388.3,251.7c11.5-1.5,19.6-1.9,24.2-1.3c4.6,0.6,7.6,2.6,9,6.1c1.4,3.4,1.6,8.1,0.7,14
			c-0.9,5.9-5.1,10-12.5,12.1l12.9,15.5c-2.1,4.6-5.9,6.3-11.3,4.8l-12.8-17.3l-4.1,0.6l-1.1,16.5c-4.7,1.8-8.5,1.6-11.4-0.7
			l2.7-47.7L388.3,251.7z M396,261.2l-1,14.4c9.6-1,14.9-2.9,15.9-5.7c1.1-2.8,1-5.3-0.1-7.5C409.8,260.3,404.8,259.9,396,261.2z"/>
		<path class="st0" d="M453.2,248.6c6.4-0.2,11.5,2.1,15.5,6.9c3.9,4.9,5.7,11.1,5.3,18.8c-0.4,7.7-2.8,14.1-7,19.2
			c-4.2,5.1-9.6,7.8-16,8c-6.4,0.2-11.8-2-16-6.7c-4.3-4.7-6.2-10.8-5.8-18.4c0.4-7.6,2.9-14.1,7.6-19.4
			C441.3,251.6,446.8,248.8,453.2,248.6z M452.7,261.7c-3.1,0.1-5.8,1.4-8.1,4c-2.4,2.6-3.7,5.9-4.1,10.1c-0.4,4.2,0.6,7.6,2.9,10.2
			c2.3,2.6,5.1,3.8,8.2,3.6c3.1-0.3,5.7-1.7,7.8-4.4c2-2.7,3.2-5.9,3.4-9.8s-0.6-7.2-2.6-9.8C458.2,262.9,455.7,261.7,452.7,261.7z"
			/>
		<path class="st0" d="M485.1,287.2c1,0,1.9,0.2,2.8,0.6c0.9,0.5,1.7,1.1,2.2,2c0.5,0.9,0.8,1.8,0.9,2.8c0,1-0.2,1.9-0.6,2.8
			s-1.1,1.6-2,2.2c-0.9,0.5-1.8,0.8-2.8,0.8c-1,0-2-0.2-2.9-0.6c-0.9-0.5-1.6-1.1-2.2-2c-0.5-0.9-0.8-1.8-0.8-2.8c0-1,0.2-2,0.7-2.9
			c0.5-0.9,1.2-1.6,2-2.2C483.2,287.5,484.1,287.2,485.1,287.2z M483.3,247.3l-0.5,36.5c2,1.2,4.5,1.3,7.5,0.2l5.6-35.4
			C492.2,246.1,488,245.7,483.3,247.3z"/>
		<polygon class="st1" points="135.4,123 525,119.8 524,209.5 124.4,231.8 		"/>
		<path class="st0" d="M146.4,201.2l5.6-35.4c3-1.1,5.4-1,7.5,0.2l-0.5,36.5C154.3,203.9,150.1,203.5,146.4,201.2z M160,161.6
			c0.9-0.5,1.6-1.2,2-2.2c0.5-0.9,0.7-1.9,0.7-2.9c0-1-0.3-1.9-0.8-2.8s-1.3-1.6-2.2-2c-0.9-0.5-1.9-0.7-2.9-0.6
			c-1,0-1.9,0.3-2.8,0.8c-0.9,0.5-1.6,1.2-2,2.2c-0.5,0.9-0.7,1.9-0.6,2.8c0,1,0.3,1.9,0.9,2.8c0.5,0.9,1.3,1.6,2.2,2
			c0.9,0.5,1.9,0.7,2.8,0.6C158.2,162.4,159.1,162.2,160,161.6z"/>
		<path class="st0" d="M203.9,150.6c1.3,3.6,1.2,7-0.2,10.2l-22.7,1.5l-0.3,11.6l18.6-1c1.9,3.3,1.9,6.5,0,9.6l-19,1.5l-0.6,19.7
			c-4.4,2.1-8.2,2.1-11.4,0.3l1.3-49.3c0.2-0.9,0.7-1.6,1.6-2L203.9,150.6z"/>
		<path class="st0" d="M247.1,149c1.3,3.6,1.2,7-0.2,10.2l-22.7,1.5l-0.3,8.9l18.7-1c1.9,3.3,1.8,6.5-0.1,9.6l-19,1.5l-0.6,10.8
			l23.3-1.5c2.1,4,1.9,7.9-0.4,11.6l-32.5,2.4c-1-0.2-1.6-0.9-1.9-2.1l1.4-47.8c0.2-0.9,0.7-1.6,1.6-2L247.1,149z"/>
		<path class="st0" d="M267.4,148.7l-1.1,40.3l20.8-1.3c2.1,4,1.9,7.9-0.4,11.6l-30.3,2.2c-1-0.2-1.6-0.9-1.9-2.1l1.1-49.6
			C258.4,148.4,262.3,148,267.4,148.7z"/>
		<path class="st0" d="M297.4,147.7c3.5-1,7.3-0.9,11.4,0.1l-2.3,51.3c-4.7,1.5-8.7,1.5-12-0.1L297.4,147.7z"/>
		<path class="st0" d="M318.9,146.5l33.5-1.1c2.4,3.2,2.7,6.8,1,10.9l-21.8,31.3l21.4-1.1c1.6,3.6,1.8,7.6,0.5,11.9l-35.5,1.4
			c-2.4-2-3-5.4-1.8-10.2l22.1-32l-21,0.9C316.4,153.9,316.9,149.9,318.9,146.5z"/>
		<path class="st0" d="M381.3,149.2l0.4-4.2l3.5-0.9l13.4-0.1c13.3,1.9,20.2,9.8,20.6,23.7c-0.1,7.1-1.5,13.1-4.4,18.1
			c-3.6,6.6-13.1,10.2-28.7,10.8l-4-1l-0.9-4.8L381.3,149.2z M392.3,154.7l-0.3,30.7c6,0.2,10.2-1,12.6-3.5
			c2.4-2.5,3.6-6.4,3.8-11.7c0.2-5.2-0.7-9.2-2.5-11.8C404.1,155.8,399.6,154.5,392.3,154.7z"/>
		<path class="st0" d="M427.1,143.1c3.5-1,7.3-0.9,11.4,0.1l-2.3,51.3c-4.7,1.5-8.7,1.5-12-0.1L427.1,143.1z M440,128.9l-11.4,7.9
			c0.1,2.5,1.2,4.2,3.1,5.1L443,134C442.5,132.1,441.5,130.4,440,128.9z"/>
		<path class="st0" d="M471.1,140.8l15.7,49.6c-3.1,2.2-7.2,2.9-12.3,2.1l-2.8-9.2l-12.8,2.1l-2.9,9.5c-5.1,0.9-9,0.3-11.6-1.8
			l16.4-51.5C464.3,139.2,467.8,138.9,471.1,140.8z M465.8,157.6l-4.9,17.3l8.5-1.3L465.8,157.6z"/>
		<path class="st0" d="M496.8,180.2c1.1,0,2.1,0.2,3.1,0.8s1.8,1.4,2.5,2.5c0.6,1.1,0.9,2.3,1,3.5c0.5,1.9-1,6.6-4.3,14.2l-4.8-1.1
			l0.3-5.8c-1.3-1.2-2.3-2.3-2.9-3.4c-0.6-1.1-0.9-2.2-1-3.4c0-1.2,0.2-2.4,0.7-3.5c0.5-1.1,1.3-2,2.3-2.7
			C494.7,180.6,495.7,180.3,496.8,180.2z"/>
		<path class="st2" d="M704.1,548c3.5,2.4,24.7,7.6,49.2,13c-56,70.8-174.5,62-241.2,1.7c28.6-4.9,61-10.5,69.5-11.6
			c16-2.1,7.3-87.9,7.3-87.9l123.9-12.4C712.8,450.8,695.3,541.8,704.1,548"/>
		<path class="st3" d="M589,463.7c0.6,6.4,7.1,75.4-4.6,86.1c0,0,0,0,0,0C596,539.1,589.6,470.1,589,463.7 M588.9,463.6
			c0,0,0,0.1,0,0.1C588.9,463.7,588.9,463.6,588.9,463.6 M588.9,463.6C588.9,463.6,588.9,463.6,588.9,463.6
			C588.9,463.6,588.9,463.6,588.9,463.6 M588.9,463.5C588.9,463.5,588.9,463.6,588.9,463.5C588.9,463.6,588.9,463.5,588.9,463.5
			 M588.9,463.5C588.9,463.5,588.9,463.5,588.9,463.5C588.9,463.5,588.9,463.5,588.9,463.5 M588.9,463.5
			C588.9,463.5,588.9,463.5,588.9,463.5C588.9,463.5,588.9,463.5,588.9,463.5 M588.9,463.4C588.9,463.4,588.9,463.4,588.9,463.4
			C588.9,463.4,588.9,463.4,588.9,463.4 M588.9,463.4C588.9,463.4,588.9,463.4,588.9,463.4C588.9,463.4,588.9,463.4,588.9,463.4
			 M588.9,463.3C588.9,463.3,588.9,463.3,588.9,463.3C588.9,463.3,588.9,463.3,588.9,463.3 M588.9,463.3
			C588.9,463.3,588.9,463.3,588.9,463.3C588.9,463.3,588.9,463.3,588.9,463.3 M588.9,463.3C588.9,463.3,588.9,463.3,588.9,463.3
			C588.9,463.3,588.9,463.3,588.9,463.3 M588.9,463.3C588.9,463.3,588.9,463.3,588.9,463.3C588.9,463.3,588.9,463.3,588.9,463.3
			 M588.9,463.3C588.9,463.3,588.9,463.3,588.9,463.3C588.9,463.3,588.9,463.3,588.9,463.3 M588.9,463.2
			C588.9,463.2,588.9,463.3,588.9,463.2C588.9,463.3,588.9,463.2,588.9,463.2 M588.9,463.2C588.9,463.2,588.9,463.2,588.9,463.2
			C588.9,463.2,588.9,463.2,588.9,463.2 M588.9,463.2C588.9,463.2,588.9,463.2,588.9,463.2C588.9,463.2,588.9,463.2,588.9,463.2
			 M588.9,463.2C588.9,463.2,588.9,463.2,588.9,463.2C588.9,463.2,588.9,463.2,588.9,463.2 M712.8,450.8c-0.2,1.3-9.7,50.9-11,78.9
			c0,0,0,0,0,0C703.1,501.8,712.6,452.1,712.8,450.8 M712.8,450.8C712.8,450.8,712.8,450.8,712.8,450.8
			C712.8,450.8,712.8,450.8,712.8,450.8 M712.8,450.8C712.8,450.8,712.8,450.8,712.8,450.8C712.8,450.8,712.8,450.8,712.8,450.8
			 M712.8,450.8C712.8,450.8,712.8,450.8,712.8,450.8C712.8,450.8,712.8,450.8,712.8,450.8 M712.8,450.8
			C712.8,450.8,712.8,450.8,712.8,450.8C712.8,450.8,712.8,450.8,712.8,450.8"/>
		<path class="st4" d="M712.8,450.8l-123.9,12.4l0,0c0,0,0,0,0,0s0,0,0,0c0,0,0,0,0,0c0,0,0,0,0,0c0,0,0,0,0,0c0,0,0,0,0,0
			c0,0,0,0,0,0v0c0,0,0,0,0,0c0,0,0,0,0,0c0,0,0,0,0,0c0,0,0,0,0,0c0,0,0,0,0,0c0,0,0,0,0,0c0,0,0,0,0,0c0,0,0,0,0,0c0,0,0,0,0,0
			c0,0,0,0,0,0c0,0,0,0,0,0c0,0,0,0,0,0c0,0,0,0,0,0c0,0,0,0,0,0c0,0,0,0,0,0c0,0,0,0,0,0c0,0,0,0,0,0c0,0,0,0,0,0c0,0,0,0,0,0
			c0,0,0,0,0,0c0,0,0,0,0,0c0,0,0,0,0,0c0,0,0,0.1,0,0.1c0,0,0,0,0,0c0.6,6.4,7.1,75.3-4.6,86.1c41.6-1.5,82.4-6.4,117.4-20
			C703.1,501.8,712.6,452.1,712.8,450.8C712.8,450.8,712.8,450.8,712.8,450.8C712.8,450.8,712.8,450.8,712.8,450.8
			C712.8,450.8,712.8,450.8,712.8,450.8C712.8,450.8,712.8,450.8,712.8,450.8C712.8,450.8,712.8,450.8,712.8,450.8
			C712.8,450.8,712.8,450.8,712.8,450.8C712.8,450.8,712.8,450.8,712.8,450.8C712.8,450.8,712.8,450.8,712.8,450.8L712.8,450.8"/>
		<path class="st2" d="M722.7,295.4c0,0-35.1-62.1-112.4-43.6c-77.3,18.5-83.1,88.2-87.8,149.2c-4.7,61,13,128.6,84.9,126.2
			C661.3,525.5,753.1,504.5,722.7,295.4z"/>
		<path class="st2" d="M723.7,365.8c0,0,3.4-11.5,21.8-0.4c23.4,14.1,5.2,73.2-22.1,69.2C696.1,430.6,723.7,365.8,723.7,365.8z"/>
		<path class="st5" d="M711.7,225.7c-36.1,2.3-59.1,27.1-36.7,26.8c-17.8,23.6,29.8,21.8,2.3,30c-9.7,45.8,26.3,74.8,26.3,74.8
			l2.6,48.4l13.2,0.1c0,0-4.6-36.9,11.1-41.8c15.7-4.9,22.7,13.3,22.7,13.3C777,332.6,779.4,221.4,711.7,225.7z"/>
		<path class="st5" d="M703.5,357.3c0,0,8.1,111.1-21.5,119.5c-29.6,8.5-4.2-35.3-43.7-33.9c-39.5,1.4-97.4-5.6-93.1,26.8
			c4.2,32.5-8.5,21.2-16.9-5.6c0,0-16.9,63.5,50.8,74.8c67.7,11.3,152.2-2.4,140.3-133.1c-11.9-130.7,0.8-68.7,0.8-68.7L703.5,357.3
			z"/>
		<path class="st5" d="M687.7,283.5c0,0-76.2,38.1-107.2,29.6c-31-8.5-8.5-29.6-8.5-29.6s-29.6,29.6-62.1,4.2
			c-32.5-25.4,36.7-52.2,36.7-52.2s-43.7,15.5-52.2,0c-8.5-15.5,66.3-12.7,66.3-12.7s-45.2-11.3-39.5-33.9
			c5.6-22.6,87.5,18.3,87.5,18.3s-66.3-22.6-33.9-40.9c32.5-18.3,134,16.9,134,72C708.8,293.4,687.7,283.5,687.7,283.5z"/>
		<path class="st5" d="M605.4,350.5c0.8-1.3,1.9-2.6,2.9-3.7c1.1-1.1,2.3-2.1,3.5-3.1c2.5-1.9,5.3-3.4,8.2-4.6
			c5.9-2.4,12.5-3.3,19.1-2.5c6.5,0.8,12.8,3.5,17.8,7.5c5,4,8.9,9.1,10.9,15c-5.7-2.6-10.7-5-15.7-6.9c-4.9-1.8-9.7-3.1-14.6-3.7
			c-4.9-0.6-9.9-0.7-15.2-0.3C617,348.6,611.5,349.5,605.4,350.5z"/>
		<path class="st5" d="M529.5,353.9c0.4-2.5,1.5-4.8,2.8-7c1.3-2.1,3-4.1,4.9-5.8c1.9-1.7,4.2-3.2,6.7-4.3c2.5-1.1,5.2-1.8,8-2
			c0.7,0,1.4-0.1,2.1-0.1l2.1,0.1c1.4,0.2,2.8,0.4,4.1,0.8c2.6,0.7,5.1,1.9,7.2,3.4c4.3,3,7.6,6.9,9.5,11.6c-4.8-1.6-9-3.2-13-4.2
			c-1-0.3-2-0.4-2.9-0.7c-0.5-0.1-1-0.1-1.4-0.2c-0.5-0.1-0.9-0.2-1.4-0.2c-0.9-0.1-1.8-0.1-2.8-0.2c-0.9,0-1.8,0-2.7,0.1
			c-3.6,0.3-7.2,1.2-11,2.8C537.8,349.5,533.9,351.6,529.5,353.9z"/>
		<path class="st6" d="M576.2,356.9c0.1,7-0.1,14-0.5,20.9c-0.4,7-0.9,13.9-1.5,20.8c-1.3,13.9-2.9,27.7-5.1,41.4l-1.6-2.5
			c3.4,1.4,6.7,2.9,10.1,4.5c1.7,0.8,3.3,1.6,5,2.5c1.6,0.9,3.3,1.7,4.9,2.7c-1.8-0.3-3.7-0.7-5.5-1c-1.8-0.4-3.6-0.8-5.4-1.2
			c-3.6-0.9-7.1-1.8-10.7-2.9l-1.7-0.5l0.1-2c1-13.9,2.5-27.7,4.4-41.5c0.9-6.9,2-13.8,3.2-20.6
			C573.2,370.5,574.5,363.7,576.2,356.9z"/>
		<path class="st6" d="M729.1,422.4c1.3-1.5,2.5-3,3.5-4.7c1-1.6,1.8-3.4,2.1-5.1c0.3-1.7,0-3.3-0.9-4.5c-0.9-1.2-2.4-2.1-4-2.9
			l-0.8-0.4l-0.2-1c-0.7-4.7-1.1-9.3-1.1-14c0-2.4,0.1-4.7,0.4-7.1c0.3-2.4,0.8-4.8,1.9-7.2c0.6-1.2,1.3-2.4,2.6-3.4
			c0.6-0.5,1.4-0.9,2.2-1.1c0.8-0.2,1.6-0.2,2.4-0.2l1.1,0.2c0.4,0.1,0.6,0.2,0.9,0.3c0.6,0.2,1.2,0.4,1.7,0.7
			c0.6,0.3,1.1,0.6,1.7,0.9l1.5,1.1c0.5,0.4,0.9,0.9,1.4,1.3c0.4,0.5,0.8,1,1.1,1.5c0.6,1.1,1.2,2.2,1.5,3.4
			c0.4,1.2,0.5,2.4,0.6,3.5c0,1.2-0.1,2.4-0.3,3.5c-0.1-2.3-0.7-4.5-1.7-6.5c-1-1.9-2.4-3.6-4.1-4.7l-1.4-0.7l-1.4-0.6
			c-0.5-0.2-1-0.3-1.5-0.4c-0.2-0.1-0.5-0.2-0.7-0.2c-0.2,0-0.4,0-0.6-0.1c-0.8,0-1.3,0.2-1.9,0.7c-0.5,0.5-1,1.3-1.4,2.1
			c-0.7,1.8-1.1,4-1.3,6.1c-0.3,2.2-0.3,4.4-0.4,6.6c0,4.5,0.2,9,0.5,13.5l-1-1.4c1.9,1,3.7,2.4,5,4.5c0.6,1,1,2.2,1.1,3.4
			c0.1,1.2-0.1,2.3-0.5,3.4c-0.7,2.1-2,3.8-3.3,5.3C732.2,420.1,730.7,421.4,729.1,422.4z"/>
		<path class="st7" d="M647.6,379.7c0.4,2.6,0.3,5.4-0.2,8.1c-0.5,2.7-1.7,5.4-3.3,7.8c-1.7,2.4-3.9,4.5-6.6,5.9
			c-2.7,1.4-5.8,2.1-8.9,2c-3.1-0.1-6.2-1.2-8.7-2.9c-2.6-1.7-4.5-4.2-5.7-6.9c-1.2-2.7-1.8-5.5-1.8-8.3c0-2.8,0.5-5.4,1.4-7.9
			c0.4,2.6,0.8,5.2,1.5,7.5c0.7,2.4,1.7,4.5,3,6.4c2.5,3.8,6.4,5.9,10.6,6.1c4.1,0.2,8.4-1.6,11.6-4.8c1.6-1.6,3-3.6,4.2-5.7
			C645.7,384.5,646.6,382.2,647.6,379.7z"/>
		<path class="st7" d="M565.7,375.3c0.4,2.6,0.3,5.2-0.2,7.9c-0.5,2.6-1.5,5.3-3.1,7.6c-1.5,2.4-3.7,4.5-6.3,6
			c-2.6,1.5-5.7,2.3-8.7,2.2c-3.1-0.1-6.1-1.2-8.6-3c-2.5-1.8-4.3-4.3-5.4-7c-1.1-2.7-1.6-5.4-1.5-8.1c0.1-2.7,0.6-5.3,1.5-7.8
			c0.4,2.6,0.8,5.1,1.4,7.4c0.7,2.3,1.6,4.5,2.8,6.4c2.4,3.8,6.1,6,10.1,6.2c2,0.1,4-0.4,5.9-1.2c1.9-0.9,3.7-2.2,5.2-3.9
			c1.5-1.6,2.9-3.6,4-5.8C563.9,380.1,564.8,377.7,565.7,375.3z"/>
		<path class="st1" d="M560.1,463.4l89.9-8.3C650,455.1,610.5,504.8,560.1,463.4z"/>
		<path class="st8" d="M476,921.9c0,0-66.2,552.9-53.2,1000.2c0,0,79.1,23,100,6.3c17.9-106.1,15.5-312.1,42.3-465.6
			c25.3-144.6,35.3-286.4,35.3-286.4l8.5,0c0,0,54.4,713.1,66.3,766.2c68.6,16.7,90.3-2.8,90.3-2.8s31.3-874.1,12.2-1015.2
			C752.6,739.6,476,921.9,476,921.9"/>
		<path class="st9" d="M433.6,573.4c0,0-30.2-2.8-39.8,65c-9.5,67.7-23.3,239.2-23.3,239.2l77.6,33.5c0,0,39.9-133,44.1-148.8
			C496.5,746.3,433.6,573.4,433.6,573.4"/>
		<path class="st10" d="M466.9,974.2c0,0,21.2,66.9,82.8,122.1l58.4-91.3l34,111.5c0,0,138-72.2,143.3-122.1
			C790.7,944.5,466.9,974.2,466.9,974.2"/>
		<path class="st11" d="M458,949.4c-8.6-110-24.4-376-24.4-376L537,553.7c23.6,25.9,39.9,41.3,75.7,45.1
			c44.3,4.6,92-12.9,111.9-46.9c41.9,9.8,50.8,13.7,69.1,19.4c22.3,7,16.4,429.7-7.9,456.9c-24.3,27.2-319.1,10.9-336.3-43.5
			C447,977.8,459.8,971.9,458,949.4"/>
		<path class="st12" d="M456.5,928.8c0.5,7.3,1.1,14.3,1.6,20.6C457.5,943,457,936.1,456.5,928.8 M456.4,928.5c0,0.1,0,0.1,0,0.2
			C456.4,928.6,456.4,928.5,456.4,928.5 M456.4,928.3C456.4,928.3,456.4,928.3,456.4,928.3C456.4,928.3,456.4,928.3,456.4,928.3
			 M785.4,568.8c2.6,0.9,5.3,1.7,8.2,2.6c9.5,3,13.9,81.7,13.9,173.1c0-91.4-4.4-170-13.9-173.1
			C790.7,570.5,788.1,569.6,785.4,568.8"/>
		<path class="st13" d="M774.6,565.2c-47.1,142.7-162.4,251.1-299,295.6c-7.8,2.5-15.6,4.8-23.4,6.8c1.5,22,2.9,42.7,4.3,60.7
			c0,0,0,0,0,0c0,0.1,0,0.1,0,0.2c0,0.1,0,0.1,0,0.2c0,0,0,0.1,0,0.1c0.5,7.3,1.1,14.3,1.6,20.6l0,0c0.1,1.4,0.2,2.8,0.2,4.1
			c0,17.3-9.1,23.6-9.1,29.4c0,0.6,0.1,1.2,0.3,1.8c11.7,37.1,152.2,56.4,248.3,56.4c37.7,0,68.6-3,82.2-9.1
			c-0.5-2.7-0.7-4.5-0.7-4.5c-20.1,6.8-31.3,9.3-36.6,9.3c-17,0,23.6-25.6,23.6-25.6c-26.8,5.3-40.6,7.3-46.1,7.3
			c-16.8,0,41.5-18.2,41.5-18.2c-19.8,5.2-30.4,7.2-35,7.2c-15.3,0,34.9-22,34.9-22c-30.7,9.7-46.2,13.3-52,13.3
			c-8.4,0,3.3-7.5,18.1-14.9c14.8-7.5,32.7-14.9,36.7-14.9c0.1,0,0.2,0,0.3,0c7.5,1.1,25.2,24.5,29.7,30.5
			c8.6-51.4,13.4-160.2,13.4-255.2c0-91.4-4.4-170-13.9-173.1c-2.9-0.9-5.6-1.8-8.2-2.6C781.8,567.6,778.4,566.4,774.6,565.2"/>
		<polygon class="st10" points="521.8,555.1 582,641 599.2,597.4 611.7,599.2 602.5,573.6 539.7,529.3 		"/>
		<polygon class="st10" points="628.2,600 637.5,574.9 723.4,524.7 738.6,553.1 650.7,647.6 644.1,599.3 		"/>
		<polygon class="st9" points="602.2,573.4 599.2,597.4 611.7,599.2 602.5,573.6 		"/>
		<polygon class="st9" points="628.2,600 644.1,599.3 637.4,575.1 		"/>
		<path class="st1" d="M348.1,684.4c0,0,15.1-49.3-56.2-106.6L281,606.9L348.1,684.4"/>
		<path class="st14" d="M344.5,674.1c0,0-15.9-61.1-66.6-84.3l-13.7,18.6L344.5,674.1"/>
		<path class="st1" d="M343.5,682.6c0,0-14-51.3,86.5-97l10.8,30.6L343.5,682.6"/>
		<path class="st14" d="M463.7,605.8l-11-17.2c0,0-99,31.7-108.2,85.4L463.7,605.8"/>
		<polyline class="st15" points="266,601.5 341.2,657.6 463.1,594.7 521.8,729.3 411.9,785.6 394,780.8 343.2,795.4 266,601.5 		"/>
		<polyline class="st16" points="266,601.5 350.7,792.3 394,780.8 411.9,785.6 341.2,657.6 337.3,654.7 268.1,603 266,601.5 		"/>
		<polygon class="st17" points="335.5,653.4 348.2,654.4 411.9,785.6 395.8,785.1 		"/>
		<path class="st2" d="M268.2,631.3c-3.8,6.7,75,272.9,99.5,297.5c24.6,24.7,58.8,11.8,68.9-15.6S308.1,651.1,308.1,651.1
			s78.3-59.3-7.1-10.4c0,0,87.5-67.9-9.1-6.6c0,0,88.1-86.8-8.1-7.4C283.9,626.7,339.9,526.2,268.2,631.3z"/>
		<path class="st10" d="M368.4,736.3c34.9,58.3,85.9,161.8,79.8,174.8c-13.3,28.2-55.3,42.4-84.4,18.3
			c-14.3-11.9-53.4-111.6-70.5-166.1C318.7,755.2,343.8,746.3,368.4,736.3z"/>
		<path class="st18" d="M296,790.3c0,0,68.5-17.2,84.3-34.9l-19.1-38.7l-80.6,27.9L296,790.3z"/>
		<path class="st2" d="M929.1,851.5l-11.2,5.5l-122.7,144.1c0,0-22.1-30.7-30.7-32c-3.3-0.5-21.8,7.2-37,14.9
			c-25,12.7-41.2,25.3,33.9,1.7c0,0-85.1,37.3,0.2,14.7c0,0-103.2,32.2,4.6,10.9c0,0-70.5,44.4,13,16.2c0,0,3.2,32.5,22.8,31.1
			c30.4-2.1,206-126.8,198.9-153.4C993.7,878.7,929.1,851.5,929.1,851.5"/>
		<path class="st19" d="M900,1002.5c-7.2,5.2-14.5,10.2-21.6,15c0.1,0.1,0.2,0.2,0.3,0.3c7-4.7,14.2-9.7,21.3-14.8V1002.5 M900,878
			l-66.9,78.6l0,0L900,878L900,878"/>
		<path class="st20" d="M900,878l-66.9,78.6c13.2,21.7,28.3,42.1,45.3,60.8c7.1-4.8,14.3-9.8,21.6-15V878"/>
		<path class="st10" d="M915.6,802.8c0,0,129.2,33.8,119.6,57.7c-37.1,91.9-132.5,145.1-132.5,145.1l-53.5-68.1l68.5-88.4
			L915.6,802.8z"/>
		<polygon class="st18" points="837.2,924.1 902.1,1014.4 952.9,983.4 871.1,893.1 		"/>
		<path class="st10" d="M901.1,623.8c-34.1-45.1-73.5-56.5-103.4-58.6c-12.9,2.1-29.6,8.7-34.7,28.5c-7.9,30.7,6,68.7,44,119.7
			c12,11.5,140.8,194.6,156.6,217.4c50-18.9,43.9-39.2,71.5-70.2C1011.1,760.2,907.4,632.2,901.1,623.8z"/>
	</g>
</g>
</svg>
