<?xml version="1.0" encoding="utf-8"?>
<!-- Generator: Adobe Illustrator 24.0.2, SVG Export Plug-In . SVG Version: 6.00 Build 0)  -->
<svg version="1.1" id="Capa_1" xmlns="http://www.w3.org/2000/svg" xmlns:xlink="http://www.w3.org/1999/xlink" x="0px" y="0px"
	 viewBox="0 0 350 280" style="enable-background:new 0 0 350 280;" xml:space="preserve">
<style type="text/css">
	.st0{fill:#FFAB15;}
	.st1{clip-path:url(#SVGID_2_);fill-rule:evenodd;clip-rule:evenodd;fill:#210309;}
	.st2{clip-path:url(#SVGID_2_);fill-rule:evenodd;clip-rule:evenodd;fill:#EF8871;}
	.st3{clip-path:url(#SVGID_2_);fill-rule:evenodd;clip-rule:evenodd;fill:#F4AD85;}
	.st4{clip-path:url(#SVGID_2_);fill-rule:evenodd;clip-rule:evenodd;fill:#B36237;}
	.st5{clip-path:url(#SVGID_2_);fill-rule:evenodd;clip-rule:evenodd;fill:#8A3D27;}
	.st6{clip-path:url(#SVGID_2_);fill-rule:evenodd;clip-rule:evenodd;fill:#C76D40;}
	.st7{clip-path:url(#SVGID_2_);fill-rule:evenodd;clip-rule:evenodd;fill:#A95635;}
	.st8{clip-path:url(#SVGID_2_);fill-rule:evenodd;clip-rule:evenodd;fill:#D97B4E;}
	.st9{clip-path:url(#SVGID_2_);fill-rule:evenodd;clip-rule:evenodd;fill:#F9D8CF;}
	.st10{clip-path:url(#SVGID_2_);fill-rule:evenodd;clip-rule:evenodd;fill:#FFFFFF;}
	.st11{clip-path:url(#SVGID_2_);fill-rule:evenodd;clip-rule:evenodd;fill:#CD7244;}
	.st12{clip-path:url(#SVGID_2_);fill-rule:evenodd;clip-rule:evenodd;fill:#EB6B5D;}
	.st13{clip-path:url(#SVGID_2_);fill-rule:evenodd;clip-rule:evenodd;fill:#E8685B;}
	.st14{clip-path:url(#SVGID_2_);fill-rule:evenodd;clip-rule:evenodd;fill:#2D010B;}
	.st15{clip-path:url(#SVGID_2_);fill-rule:evenodd;clip-rule:evenodd;fill:#FDF3F2;}
	.st16{clip-path:url(#SVGID_2_);fill-rule:evenodd;clip-rule:evenodd;fill:#7272DD;}
	.st17{clip-path:url(#SVGID_2_);fill-rule:evenodd;clip-rule:evenodd;fill:#6262C4;}
	.st18{clip-path:url(#SVGID_2_);fill-rule:evenodd;clip-rule:evenodd;fill:#5959AA;}
	.st19{clip-path:url(#SVGID_2_);fill-rule:evenodd;clip-rule:evenodd;fill:#3C0212;}
	.st20{clip-path:url(#SVGID_2_);fill-rule:evenodd;clip-rule:evenodd;fill:#FCE6D7;}
	.st21{fill:#FFFFFF;}
</style>
<g>
	<rect x="0" y="0" class="st0" width="350" height="280"/>
	<g>
		<defs>
			<rect id="SVGID_1_" x="0" y="0" width="350" height="280"/>
		</defs>
		<clipPath id="SVGID_2_">
			<use xlink:href="#SVGID_1_"  style="overflow:visible;"/>
		</clipPath>
		<path class="st1" d="M279.6,72.8l13.9,7.9c0,0-18.6,21.4-4.9,41.9c13.6,20.5,2,25.5-2.4,25.5c0,0,11.2,25.3-14.5,33.4
			c-25.7,8.1-64-6.2-64-6.2s-19.4-18-1.5-47.1C223.9,99.2,279.6,72.8,279.6,72.8z"/>
		<path class="st2" d="M137.5,129.3c0,0,4.4,0.8,7.8,0.9c3.4,0.1,3.5,0.1,4.3,0.9c0.8,0.8,3.1,4.1,3.3,6.1c0.3,1.9-1.6,5.5-3.4,7.7
			s-5.5,4.4-6.3,9.6l-2.9,2.9l-11.3-1.6c0,0,0.2-1.1,0.4-3c0.3-1.9-2.3-3.3-2.6-5.8c-0.3-2.4,0.1-4.5,0.5-7.2
			c0.4-2.7,1.4-9.5,1.4-9.5S130.8,128.7,137.5,129.3z"/>
		<path class="st3" d="M145.4,133.2l2.9-2.7c0,0-1.3-1.4-0.9-4.4c0.4-3,3.8-26.4,4.2-28.9c0.4-2.6-5.6-0.8-7,5.5
			c-1.5,6.2-1.9,12.7-2.6,17c0,0-16.9,5.7-18.2,7.3c-1.2,1.6-1.4,9.9-0.9,12c0.5,2.1,5.5,4.6,5.5,4.6L145.4,133.2z"/>
		<path class="st2" d="M146.4,132.3l1.9-1.8c0,0-1.3-1.4-0.9-4.4l0.7-5.2c-1.3,9.3-9.9,8.6-9.9,8.6l1.5,3.6L146.4,132.3z"/>
		<path class="st2" d="M137.9,137.7l4.1-2.5l-4.6-4.3l-2.4-1.2c0,0-1.1,1.3-0.5,3.7C135,135.3,137.1,137,137.9,137.7z"/>
		<path class="st3" d="M137.5,129.3c0,0,4.4,0.8,7.8,0.9c3.4,0.1,3.5,0.1,4.3,0.9c0.8,0.8,3.1,4.1,3.3,6.1c0.3,1.9-1.6,5.5-3.4,7.7
			s-5.5,4.4-6.3,9.6l-2.9,2.9l-1.9-0.3l1-6.9c0.3-1.7-2.7-2.9-2.1-7.1c0.6-4.2,5.1-6.7,5.1-6.7c-7.3-1.1-7.8-4.4-7.6-5.8
			c0.2-1.4,0.9-1.4,1-1.4C136.3,129.2,136.9,129.3,137.5,129.3z"/>
		<path class="st4" d="M210,159.8c-4.1,2.5-8.8,5.8-12.9,9.9c-9.9,10.1-52.2,60-53.2,60.6c-1,0.7-1.7,0.1-2.1-0.7
			c-0.4-0.8,2.9-74.6,2.9-74.6s-0.2-1-1.3-1.3c0,0-5.8,2.3-13.9-0.9c0,0-0.9,0.3-1.2,0.7c-0.3,0.5-13.6,85.6-13.6,92.6
			c0,7,5.7,14.7,13.6,18.9c11.6,6.1,59.9-30.7,70.6-37.6l15.7-44.9C213,173.7,210.2,160.8,210,159.8z"/>
		<path class="st5" d="M210,159.8c-4.1,2.5-8.8,5.8-12.9,9.9c-4.1,4.2-14,15.5-24.1,27.1c-2,12.2-8.6,49.1-14,53.5
			c-6.5,5.3-24.7,15.2-24.8,15.2c17.2-3.1,55.3-32,64.6-38l15.7-44.9C213,173.7,210.2,160.8,210,159.8z M138.7,154.5L138.7,154.5
			c0,0-3.3,0.7-5.8,7c-2.5,6.2-17.3,75.4-17.3,75.6c3.1-23.6,12.4-83.2,12.7-83.6c0.3-0.5,1.2-0.7,1.2-0.7
			C133.1,154.3,136.3,154.6,138.7,154.5z"/>
		<path class="st6" d="M285.8,170.4c-2-2-4-3.7-6.1-5.1c-7.4-2.4-19.9-6.5-20.1-6.6c-10.2-1.1-22.3-0.6-38.2-2.2
			c-7.4,0.2-12.6,3.2-16.9,7.6c-8.1,8.5-18.8,26.9-26.9,38.4c-3.8,5.4-3.5,14.3-0.7,23v0c0,0,3.5,11.2,5.8,27.2
			c1.9,13.7,2.1,58.9,1.2,75c-0.1,2.7,1.4,3.6,1.2,4.2c0,0,65.6,19.9,95.4-8.6c-22.8-58.3-12.5-72.5,1.2-112.6c0.5-1.5,1-3,1.5-4.6
			C286.3,192.5,286.7,177.1,285.8,170.4z"/>
		<path class="st7" d="M176.9,203.6c-3,5.5-2.6,13.8,0,21.8v0c0,0,0.6,1.8,1.4,4.9c0.6-1.5,1.4-2.8,2.3-2.8
			c2.3-0.2,59,7.4,65.1,15.3s13.7,69.5,8,80.5c-5.2,10.1-36.4,13.4-41.8,13.9c5.9,0.8,12.5,1.3,19.2,1.3c17.4-0.1,35.7-3.6,48-15.3
			c-22.8-58.3-12.5-72.5,1.2-112.6c2.2-6.4,4.1-13.7,4.8-20.3c0.4-3.8,0.7-7.1,1-10c0-0.8,0-1.5,0-2.2c-5.7-5.1-12.6-8.1-16.1,2.4
			c-6.6,19.9-18.7,38.3-28.4,38.9c-9.7,0.5-52.7-7.2-59.8-9.7C177.8,208.4,176.9,205.7,176.9,203.6z"/>
		<path class="st8" d="M220.7,165.8c0,0-2.1,1.5-4.3,3.1c-1.7,1.3-3.4,2.7-3.9,3.4c-1.1,1.5,7.2,35.5,7.2,35.5l11.3-3L220.7,165.8z"
			/>
		<polygon class="st9" points="222.5,167.2 222.1,214.6 244,181.5 238.4,181.8 227.6,185.8 		"/>
		<path class="st10" d="M222.2,193l-0.1,8.9c2.1-0.1,6-0.8,7-1.1c0.4-0.2,2-1.3,3.8-2.7l11-16.6l-5.6,0.4l-8.8,3.2l-3.8,2.5
			C225.8,187.5,223.7,190.1,222.2,193z"/>
		<path class="st4" d="M259.9,158.5c-1,0-2,0-2.9-0.1c-7,12.1-16,21-26.5,31.5c-19.8,20-24.6,19.9-19.4,49.3
			c1.2,6.8,8.3,63.5,5.9,98.7c21,2.1,47.5,0.8,63.6-14.6c-20.8-53.2-14-69.7-2.3-102.7l0-0.1h0l0-0.1c0-0.1,0.1-0.2,0.2-0.3
			c8.9-17.7,8.6-52.4,6.3-53.2c-2.4-0.8-25.2-8.2-25.2-8.2L259.9,158.5z"/>
		<path class="st5" d="M209.8,215.6c-0.9,4.1-0.9,9.1,0.1,16.3c15.8,2.9,32.7,6.9,35.9,11c6.1,7.9,13.7,69.5,8,80.5
			c-4.3,8.3-26.2,12-36.8,13.4c0,0.4,0,0.7-0.1,1.1c4.6,0.5,9.4,0.7,14.4,0.8c17.3-0.1,39.8,3.4,52.1-8.3
			c-22.8-58.3-15.3-79.5-1.6-119.6c2.2-6.4,2.8-13.7,3.5-20.3c0.4-3.8,0.7-7.1,1-10c0-0.8,0-1.5,0-2.2c-5.7-5.1-11.9-0.6-11.9-0.6
			s-25.3,41.5-32.6,41.9C234.3,219.9,222.9,217.8,209.8,215.6z"/>
		<path class="st4" d="M284.8,166.9c0,0,5.5,2.3,9,8.6c10,18.4,21.7,73.6,23.3,97.3c1.5,23-17.8,24.7-24.7,6.1
			c-5.4-14.6-17.1-55.1-17.1-55.1S260.7,177.9,284.8,166.9z"/>
		<path class="st5" d="M316.2,263.8c0.4,3.3,0.7,6.4,0.9,9c1.5,23-17.8,24.7-24.7,6.1c-5.4-14.6-17.1-55.1-17.1-55.1
			s-9.1-28.9-0.9-46.3c-0.1,0.5-1.7,14.5,3.3,28c5.1,13.7,20,53.6,21.5,58.7C299.9,266.9,308.2,265.7,316.2,263.8z"/>
		<path class="st11" d="M251.6,166.6c-6,8.2-13.2,15.3-21.1,23.3c-8,8.1-13.6,12.9-17,17.7c0.1-0.1,41.9-25.5,44-26.6
			c2.1-1.1-1.1-13-1.1-13L251.6,166.6z"/>
		<path class="st2" d="M252.6,123.2l-0.4,9.2c0,0-0.1,18.8-0.1,21.7c0,1.4,1.4,3,3.8,4.3c-3.6,5.5-21.1,28.3-27.6,27.6
			c-6.5-0.7-6.1-28.6-6.1-28.6c0.9-0.5,1.7-1.1,2.5-2c0.9-0.9,1.5-2.7,1.9-4.9c1-5.9,0.4-14.9-1.9-17.8
			C221.5,128.6,252.6,123.2,252.6,123.2z"/>
		<path class="st12" d="M252.6,123.2l-0.4,9.2c0,0-0.1,18.8-0.1,21.7c0,1.4,1.4,3,3.8,4.3c-3.6,5.5-21.1,28.3-27.6,27.6
			c-0.4,0-0.7-0.2-1.1-0.4c-0.3-0.3-0.5-0.4-0.6-0.4l0,0c0,0,21.1-25.6,19-26.4c-1.6-0.6-13.3-5-19.2-7.2c0.1-0.3,0.1-0.7,0.2-1.1
			c1-5.9,0.4-14.9-1.9-17.8C221.5,128.6,252.6,123.2,252.6,123.2z"/>
		<path class="st13" d="M276.3,96.4c0.3,0,0.5,0.1,0.8,0.2l0,0l0,0c4.9,1.2,8.4,5.6,8.3,10.8c-0.1,6.1-5.1,10.9-11.2,10.8
			c-6.1-0.1-10.9-5.1-10.8-11.2c0.1-3.5,1.8-6.6,4.4-8.6c-0.4,3.2,0,7.3,4.1,7.8l0.1-6.3C272.1,97.3,274.6,96.2,276.3,96.4z"/>
		<path class="st13" d="M197.1,93.6c-0.3,0-0.5,0.1-0.8,0.1l0,0l0,0c-4.9,0.9-8.8,5-9.1,10.2c-0.3,6.1,4.3,11.2,10.4,11.6
			c6.1,0.3,11.2-4.3,11.6-10.4c0.2-3.5-1.3-6.7-3.8-8.9c0.2,3.3-0.5,7.2-4.6,7.5l0.3-6.3C201.2,94.8,198.8,93.6,197.1,93.6z"/>
		<path class="st3" d="M238.6,40.1L238.6,40.1c20.7,0.7,37,18.2,36.3,38.9l-1.2,34.2c-0.7,20.7-18.2,37-38.9,36.3
			c-20.7-0.7-37-18.2-36.3-38.9l1.2-34.2C200.4,55.7,217.9,39.4,238.6,40.1z"/>
		<path class="st2" d="M267.8,55.8c4.7,6.5,7.4,14.6,7.1,23.3l-1.2,34.2c-0.7,20.7-18.2,37-38.9,36.3c-3.5-0.1-6.8-0.7-9.9-1.7
			c33.8,1.8,39.3-25.4,39.4-29.1c0.2-3.7,0.4-9.2,0.4-14.1c0-4.8-1.6-7.6-1.6-7.6s-9.8-12.2-11.5-13.9c-1.7-1.7-3.1-2.6-4.4-2.6
			s-1.9,0-1.9,0c-5.4,6-20.4,8.7-24.2,8.7c-3.8,0-4.9,0-12.2,0c-7.3,0-9.7,3.6-9.7,3.6v0l0.5-14.2c5.9-6.8,18.9-20.9,27.7-22.5
			C234.9,54.9,249.7,55.3,267.8,55.8z"/>
		<path class="st10" d="M239.7,122c0,5.4-4.3,9.8-9.7,9.8c-5.4,0-9.8-4.3-9.8-9.7l0,0c0-0.9,0.7-1.7,1.7-1.7l16.1-0.1
			C238.9,120.4,239.7,121.1,239.7,122L239.7,122z"/>
		<path class="st13" d="M209,112.6c2.7,0,4.9,2.3,4.9,5c0,2.7-2.3,4.9-5,4.9c-2.7,0-4.9-2.3-4.9-5C204,114.7,206.3,112.5,209,112.6z
			"/>
		<path class="st13" d="M251.6,113.3c2.7,0,4.9,2.3,4.9,5c0,2.7-2.3,4.9-5,4.9c-2.7,0-4.9-2.3-4.9-5
			C246.6,115.4,248.8,113.2,251.6,113.3z"/>
		<path class="st1" d="M245.8,107.8c0-0.9,0.4-1.7,1.1-2.4c0.7-0.6,1.5-0.9,2.4-0.9c0.9,0,1.7,0.4,2.4,1.1c0.6,0.7,0.9,1.5,0.9,2.4
			c0,0.8,0.6,1.5,1.4,1.5c0.8,0,1.5-0.6,1.5-1.4c0.1-1.7-0.5-3.3-1.7-4.5c-1.1-1.2-2.7-1.9-4.4-2c-1.7-0.1-3.3,0.5-4.5,1.7
			c-1.2,1.1-1.9,2.7-2,4.4c0,0.8,0.6,1.5,1.4,1.5C245.1,109.2,245.8,108.6,245.8,107.8z"/>
		<path class="st1" d="M207.1,106.5c0-0.9,0.4-1.7,1.1-2.4c0.7-0.6,1.5-0.9,2.4-0.9c0.9,0,1.7,0.4,2.4,1.1c0.6,0.7,0.9,1.5,0.9,2.4
			c0,0.8,0.6,1.5,1.4,1.5c0.8,0,1.5-0.6,1.5-1.4c0.1-1.7-0.5-3.3-1.7-4.5c-1.1-1.2-2.7-1.9-4.4-2c-1.7-0.1-3.3,0.5-4.5,1.7
			c-1.2,1.1-1.9,2.7-2,4.4c0,0.8,0.6,1.5,1.4,1.5S207.1,107.3,207.1,106.5z"/>
		<path class="st1" d="M254.2,95.9c0.7,0.4,1.6,0.1,1.9-0.6c0.4-0.7,0.1-1.6-0.6-1.9c-3.6-1.9-8.2-2.4-11.8-0.4
			c-0.7,0.4-0.9,1.3-0.6,2c0.4,0.7,1.3,0.9,2,0.6C247.8,94.1,251.6,94.4,254.2,95.9z"/>
		<path class="st1" d="M206.3,94.2c2.9-1.2,6.3-1.5,9.1,0.3c0.7,0.4,1.6,0.2,2-0.4c0.4-0.7,0.2-1.6-0.4-2c-3.4-2.2-8.2-2.2-11.8-0.5
			c-0.7,0.3-1,1.2-0.7,1.9C204.7,94.2,205.6,94.6,206.3,94.2z"/>
		<path class="st1" d="M198.9,98.7c0,0-0.6-3.9-5.4-4.1c-14.2-17.5-11.3-44.5,5-57.9c16.3-13.4,50.2-13.1,56.1-11
			c5.9,2.2,11.6,12.4,11.6,12.4s5.2-4.3,9.8-1.8c4.6,2.5,19.2,32.5,18.9,39.8c-0.3,7.4-15,21.4-15,21.4c-4.8-0.2-5.7,3.7-5.7,3.7
			l-0.2,5.3c-4.8-0.2-5-6.3-4.9-9.9c0,0-7.7-7.3-7.4-14.3l3-10.1l-4.4-11l-19.8-9l-36,7.2L203,80.4v0v0
			C203,80.4,202.7,95.2,198.9,98.7z"/>
		<path class="st14" d="M185.2,76.5c-2.8-14.7,2-30.5,13.3-39.9c16.3-13.4,50.2-13.1,56.1-11c5.9,2.2,11.6,12.4,11.6,12.4
			s5.2-4.3,9.8-1.8c3.1,1.7,11,16.4,15.6,27.8c-2.6,4.9-6.4,9.1-11.9,8.6c-5-0.4-11.2-2.7-16.8-5.3l-2.5-6.2l-19.8-9l-36,7.2L203,80
			C196.1,79.4,189.9,77.9,185.2,76.5z"/>
		<path class="st1" d="M210.4,90.1c4.1,0.1,7.9,1.9,10.5,4.6c2.4,2.5,3.9,5.9,4.1,9.6l11.1,0.3c0.4-3.7,2.1-7,4.6-9.4
			c2.8-2.7,6.6-4.3,10.7-4.2c4.1,0.1,7.9,1.9,10.5,4.6c2.4,2.5,3.9,5.9,4.1,9.6l9.4,0.2l-0.1,2.3l-9.4-0.2c-0.4,3.7-2.1,7-4.6,9.4
			c-2.8,2.7-6.6,4.3-10.7,4.2s-7.9-1.9-10.5-4.6c-2.4-2.5-3.9-5.9-4.1-9.6l-11.1-0.3c-0.4,3.7-2.1,7-4.6,9.4
			c-2.8,2.7-6.6,4.3-10.7,4.2c-4.1-0.1-7.9-1.9-10.5-4.6c-2.7-2.8-4.3-6.6-4.2-10.7c0.1-4.1,1.9-7.9,4.6-10.5
			C202.5,91.6,206.2,90,210.4,90.1z M260.3,97.3c-2.3-2.4-5.4-3.9-8.9-3.9c-3.5-0.1-6.7,1.3-9.1,3.5c-2.4,2.3-3.9,5.4-3.9,8.9
			c-0.1,3.5,1.3,6.7,3.5,9.1c2.2,2.4,5.4,3.9,8.9,3.9c3.5,0.1,6.7-1.3,9.1-3.5c2.4-2.3,3.9-5.4,3.9-8.9
			C263.9,102.9,262.5,99.7,260.3,97.3z M219.3,96.4c-2.3-2.4-5.4-3.9-8.9-3.9c-3.5-0.1-6.7,1.3-9.1,3.5c-2.4,2.3-3.9,5.4-3.9,8.9
			c-0.1,3.5,1.3,6.7,3.5,9.1c2.3,2.4,5.4,3.9,8.9,3.9c3.5,0.1,6.7-1.3,9.1-3.5c2.4-2.3,3.9-5.4,3.9-8.9
			C222.9,101.9,221.5,98.7,219.3,96.4z"/>
		<path class="st15" d="M225.9,168.1l2.4,17.9l-1.7,0.9c0,0-8.3-15.1-8.5-15.5c-0.2-0.4-0.1-0.7,0.2-1c0.3-0.3,3.2-3.3,3.2-3.3
			L225.9,168.1z"/>
		<path class="st10" d="M225.4,154.4c0,0-1.2-0.5-1.6-0.4s-2.3,1.4-2.7,1.6c-0.4,0.3-3.5,10.6-3.4,11.1c0.1,0.5,0.6,0.6,0.9,0.6
			c0.3,0,7.3,0.7,7.3,0.7l-1.7-12.1C224.2,156,225,155.3,225.4,154.4z"/>
		<path class="st15" d="M243.5,170.3l-17.6,17.2c0,0,28.6-9.5,29.1-9.8c0.5-0.3,0.6-0.5,0.7-1.2c0-0.7-1.7-7-1.7-7L243.5,170.3z"/>
		<path class="st10" d="M252.5,155.4c0,0,1.7-1,2.8-1c1.1,0,4.3,4.2,4.3,4.2s0,10.3-0.7,12.6c0,0-0.1,0.4-0.7,0.4
			c-0.6,0-14.7-1.4-14.7-1.4s10.8-9.4,11.4-12.6C254.8,157.7,253.2,156.8,252.5,155.4z"/>
		<path class="st10" d="M243,219.1l-4-2.9c0,0,3.9-4.1,4.9-4.9c1-0.8,2.5-1.5,6.1-1.8c3.6-0.2,24.4-0.7,42.8,10c0,0,2.8,1.9,5,3.9
			c0,0,0.4,0.1,1.2-0.1c0.8-0.2,2.9-0.6,3.7-1.7c0.1-0.2,0.3-0.9,0.6-1.9c3.5-11.7,9.5-25.1,23-29c0,0,1.1-0.1,1.9,0.2
			c0.8,0.3,2.4,1.8,2.4,1.8l-11.7,31.9c0,0-9.8,9.6-11.1,11.3c-1.3,1.7-10.7,5.6-19.2,3C280,236.3,243,219.1,243,219.1z"/>
		<path class="st16" d="M236.6,215.7c0,0-1.5,0.9-1.4,2.8c0.1,1.8,5.2,44.1,5.5,46.1c0.4,2,0.9,3.1,2.8,3c1.9-0.1,34.6-0.3,59.1,7.2
			c0,0,1.6,0.5,2.9,0c1.3-0.5,4.8-2.9,5.3-3.7c0.5-0.8,8-17.1,14.1-19.6c0,0,1.6-0.9,1.8-2.8c0.1-2,1-13.5,1.6-22.8
			c0.7-9.2,2.2-27.7,4.8-33.8c0,0,0.2-1-0.7-1.3c-0.9-0.3-20.2,7.1-27,33c0,0-4.8,3.3-10,2.5C295.4,226.2,267.4,209.3,236.6,215.7z"
			/>
		<path class="st17" d="M239.9,258.4c0.4,3.3,0.7,5.6,0.8,6c0.4,2,0.9,3.1,2.8,3c1.9-0.1,34.6-0.3,59.1,7.2c0,0,1.6,0.5,2.9,0
			c1.3-0.5,4.8-2.9,5.3-3.7c0.5-0.8,8-17.1,14.1-19.6c0,0,1.6-0.9,1.8-2.8l0.3-3.7c-11.1,3.2-14.9-0.8-15.6-4.6
			c-0.7-3.6-1.9-17.3-2.7-25.9c-1.3,2.8-2.4,5.9-3.3,9.3c0,0-4.8,3.3-10,2.5c0,0-2.3-1.4-6.3-3.2c2.5,7,4.6,15.1,4.3,21.9
			c-0.6,15.6-3.7,19.7-10.2,20.1c-6.5,0.4-24.5-1.5-33.8-2.3C245.4,262.3,242.2,260.4,239.9,258.4z"/>
		<path class="st18" d="M300,273.9c0.9,0.3,1.8,0.5,2.7,0.8c0,0,1.6,0.5,2.9,0c1.1-0.4,3.7-2.2,4.9-3.2c-0.7-9.8-3.2-42.2-3.3-44.3
			c-0.1-2.6-1.7-3.5-1.7-3.5s-4.8,3.3-10,2.5c0,0,0.7,0.8,0.7,1.7C296.2,228.7,300,273.9,300,273.9z"/>
		<path class="st3" d="M308.7,283.3c0,0-3.1,0.8-5.6-0.9c-2.5-1.7-3-3.8-3.3-6.3c-0.3-2.5-0.4-4.1-0.4-4.1s-2.6-5.4-3.3-6
			c-0.7-0.5-4.6-3.3-5.4-4.3c-0.7-0.9-0.6-3.1,1.5-3c0,0-1.9-1-2.5-1.8c-0.6-0.8-0.8-2.6-0.5-3.2c0.3-0.7,3.5-0.2,3.5-0.2
			s-2.3-1.7-2.7-2.7c-0.4-1-0.3-2.5,0.1-3c0.4-0.5,6,1.1,11.1,2.4c0,0,2.5,0.5,4.5,1.9c2,1.5,3.3,2.4,3.3,2.4s-2.8-4.5-4.4-6
			c-1.5-1.4-5.9-5-6.6-6.1s-0.7-2.8-0.6-3.3s0.6-1.1,2.1-0.4c1.4,0.7,5.6,3.5,9.3,5.8c3.7,2.3,4,3.3,5.4,6.2
			c1.5,2.9,3.2,8.6,3.9,10.7c0.7,2.2-1.4,7.8-2.9,11.9C313.9,277.6,312.3,282.8,308.7,283.3z"/>
		<path class="st2" d="M308.7,283.3c0,0-3.1,0.8-5.6-0.9c-2.5-1.7-3-3.8-3.3-6.3c-0.3-2.5-0.4-4.1-0.4-4.1s-2.6-5.4-3.3-6
			c-0.7-0.5-4.6-3.3-5.4-4.3c-0.4-0.5-0.5-1.3-0.3-1.9c0.7,0.6,2.1,1.4,4.4,2.5c5,2.5,7.8,5.5,8.2,9.8c0.3,3.9,5.2,9,11.5,3.8
			C313.2,279.5,311.6,282.9,308.7,283.3z M291.9,258.8c3.3,0.6,12.3,4,12.3,4s-1-1.1-4.2-2.7c-2.4-1.2-8-3-10.8-4.5
			c0.1,0.5,0.3,1,0.5,1.3c0.6,0.8,2.5,1.8,2.5,1.8C292.2,258.8,292,258.8,291.9,258.8z M289.9,253.4c1-0.2,2.9,0.1,2.9,0.1
			s-2.3-1.7-2.7-2.7c-0.2-0.5-0.3-1.2-0.2-1.8c6.2,3.4,14.6,5.2,15.7,7.1c1.2,2,1.8,2.3,1.2,2.3c-0.6-0.1-11.4-4.8-15-4.9
			C291,253.5,290.4,253.5,289.9,253.4z M305.2,251.8c1.8,1.3,3.1,2.3,3.1,2.3l0.1,0c-0.6-0.4-1.5-1.1-2.7-1.9
			C305.6,252.1,305.4,251.9,305.2,251.8z M308.8,254.2c0.2,0,0.6-0.2,0.9-0.5c0.6-0.7-0.8-3.6-4.5-7.2c-3.3-3.1-5.8-7-6.4-7.9
			c-0.8-0.1-1.1,0.3-1.2,0.7c-0.1,0.5-0.2,2.2,0.6,3.3s5,4.6,6.6,6.1C306,249.8,308,253,308.8,254.2z"/>
		<path class="st1" d="M194.6,76.3l4,12.2c0,0,38.9,2,48.4-19.6c0,0,5.1,20.5,24.9,18.7s-2.9-36.7-6-38.2c-3.1-1.5-31.5-5.1-35.6-4
			c-4.1,1.1-22.5,3.4-24.3,6.7c-1.8,3.3-2,5.7-2,8.4C203.9,63,194.6,76.3,194.6,76.3z"/>
		<path class="st14" d="M194.6,76.3l0.9,2.7c16.6,3,39.9,2.4,51.4-19.9c0,0,20.3,12.7,32.7,13.7c-2.2-11.3-10.6-25-12.4-25.9
			c-3.1-1.5-33.7-7.1-37.8-5.9c-4.1,1.1-26.8,3.7-28.6,7c-1.8,3.3-2,5.7-2,8.4S194.6,76.3,194.6,76.3z"/>
		<path class="st19" d="M196.8,66.9c-4.4-0.2-8.7-0.8-12.3-1.7c-0.1,0.8-0.1,1.6-0.1,2.4c3.3,1.1,7.2,2.1,11.6,2.6
			c0.8,0.1,1.6,0.2,2.5,0.3c0.6,0.1,1.2,0.1,1.9,0.1c1.1,0.1,2.2,0.1,3.3,0.1c1.1,0,2.2,0,3.3,0c4.1-0.2,8.6-0.7,13.3-1.8
			c8.7-2,14.7-7.2,18.8-13.6c0.6-0.9,1.2-1.9,1.7-2.9c1.2-2.1,2.1-4.4,3-6.6c0.4-1.2,0.8-2.3,1.2-3.5c0.1-0.4,0.3-0.9,0.4-1.3
			c1.7-6.2,2.4-12.2,2.7-16.3c-4.4-0.3-10.3-0.2-16.8,0.5c0.3,4,0.4,9.6-0.3,15.4l0,0.2c-0.2,1.5-0.5,3-0.8,4.6
			c-0.7,3.4-1.9,6.7-3.5,9.7c-0.3,0.5-0.6,1.1-0.9,1.6c-2.7,4.2-7.4,7-13,8.6c-2.8,0.8-5.8,1.3-8.8,1.5c-0.9,0.1-1.7,0.1-2.6,0.2
			c-0.2,0-0.3,0-0.5,0C199.4,66.9,198.1,66.9,196.8,66.9z"/>
		<path class="st10" d="M144.3,162.3c0.6-0.2,0.7-0.6,0.7-0.8c0.2-4-0.3-6.5-0.3-6.5s-0.2-1-1.3-1.3c0,0-5.8,2.3-13.9-0.9
			c0,0-0.9,0.3-1.2,0.7c0,0.1-1.1,2.3-1.7,6.1c0,0.3,0.1,0.7,0.5,0.9C129.3,161.7,135.9,164.5,144.3,162.3z"/>
		<path class="st20" d="M135.9,154.4c-1.9-0.2-4.1-0.7-6.5-1.6c0,0-0.9,0.3-1.2,0.7c0,0.1-1.1,2.3-1.7,6.1c0,0.3,0.1,0.7,0.5,0.9
			c1,0.5,2.9,1.4,5.5,1.9C133.3,157.5,134.8,155.3,135.9,154.4z"/>
		<path class="st17" d="M246.4,240.4c-1.3,0-1.5-1.4-1.5-1.4l-1.4-13.8c0,0-0.1-1,0.8-1.4c0.9-0.3,24.5-1.8,44.5,10
			c0,0,0.7,0.3,0.8,1.3c0.1,1,0.1,5.6,0.1,5.8c0,0.2,0,1.3,0,2.6c0,1.3,0,1.2,0,1.6c0,0.4-0.2,0.5-0.5,0.6
			C288.8,245.8,265.4,239.8,246.4,240.4z"/>
	</g>
	<polygon class="st21" points="37.5,96 182.1,93.8 181.3,125.8 40.8,137.9 	"/>
	<path class="st0" d="M53.6,105.8l3.2,10.2l4.7-10.5c1.2-0.3,2.3-0.4,3.4-0.1l-0.5,18.1l-4,0.2l0.2-8.7l-3.4,8.6
		c-0.6,0.3-1.2,0.2-1.7-0.3l-2.3-8.2l-0.3,8.8l-3.9,0.1l0.6-18.2C50.5,105.4,51.8,105.4,53.6,105.8z"/>
	<path class="st0" d="M76.3,104.6l5.5,17.4c-1.1,0.8-2.5,1-4.3,0.7l-1-3.2l-4.5,0.7l-1,3.3c-1.8,0.3-3.2,0.1-4.1-0.6l5.8-18.1
		C73.9,104,75.1,103.9,76.3,104.6z M74.4,110.5l-1.7,6.1l3-0.5L74.4,110.5z"/>
	<path class="st0" d="M95.7,104c0.4,1.3,0.4,2.5-0.1,3.6l-8,0.5l-0.1,3.1l6.6-0.4c0.7,1.2,0.6,2.3,0,3.4l-6.7,0.5l-0.2,3.8l8.2-0.5
		c0.7,1.4,0.7,2.8-0.1,4.1L83.8,123c-0.4-0.1-0.6-0.3-0.7-0.7l0.5-16.8c0.1-0.3,0.3-0.6,0.5-0.7L95.7,104z"/>
	<path class="st0" d="M99.1,120.3c-0.6-1.8-0.3-3.3,0.8-4.3c2.1,1.2,3.7,1.9,4.6,2.1c1.8-0.1,2.7-0.6,2.8-1.4c0-0.7-0.5-1.3-1.7-1.9
		l-3.2-1.4c-2-1-3.1-2.4-3.2-4.3c0-1.1,0.4-2.1,1-3c0.6-0.9,1.4-1.5,2.2-1.8c0.8-0.3,1.8-0.4,3-0.4c2.2,0.1,4.1,0.6,5.7,1.6
		c0.1,1.5-0.3,2.9-1.3,4.1c-2-1.4-3.6-2-4.8-1.9c-1.1-0.1-1.7,0.3-1.7,1.3c0,0.5,0.8,1.2,2.4,2c1.9,0.7,3.3,1.5,4.2,2.4
		c0.9,0.9,1.4,2.1,1.3,3.5c-0.1,1.9-0.9,3.3-2.5,4.4c-1,0.8-2.5,1.1-4.4,1C102.6,122,100.8,121.4,99.1,120.3z"/>
	<path class="st0" d="M127,102.9c0.6,1.3,0.6,2.6,0,3.9l-4.5,0.2l-0.2,14.2c-1.2,0.6-2.6,0.6-4.1,0.1l0.3-14l-4.4,0.3
		c-1-1.5-1-2.8-0.2-3.9L127,102.9z"/>
	<path class="st0" d="M132.1,103c4-0.5,6.9-0.7,8.5-0.5c1.6,0.2,2.7,0.9,3.1,2.1c0.5,1.2,0.6,2.8,0.2,4.9c-0.3,2.1-1.8,3.5-4.4,4.2
		l4.5,5.4c-0.7,1.6-2.1,2.2-3.9,1.7l-4.5-6.1l-1.4,0.2l-0.4,5.8c-1.6,0.6-3,0.6-4-0.2l1-16.8L132.1,103z M134.8,106.3l-0.3,5.1
		c3.4-0.3,5.2-1,5.6-2c0.4-1,0.4-1.9,0-2.6C139.6,106,137.9,105.8,134.8,106.3z"/>
	<path class="st0" d="M154.9,101.9c2.2-0.1,4,0.7,5.4,2.4c1.4,1.7,2,3.9,1.8,6.6c-0.1,2.7-1,4.9-2.5,6.7c-1.5,1.8-3.4,2.7-5.6,2.8
		c-2.3,0.1-4.1-0.7-5.6-2.4c-1.5-1.6-2.2-3.8-2-6.5c0.1-2.7,1-4.9,2.7-6.8C150.7,102.9,152.6,102,154.9,101.9z M154.7,106.5
		c-1.1,0-2,0.5-2.9,1.4s-1.3,2.1-1.4,3.5s0.2,2.7,1,3.6c0.8,0.9,1.8,1.3,2.9,1.2c1.1-0.1,2-0.6,2.7-1.5c0.7-0.9,1.1-2.1,1.2-3.5
		c0.1-1.4-0.2-2.5-0.9-3.4C156.6,106.9,155.8,106.5,154.7,106.5z"/>
	<path class="st0" d="M166.1,115.4c0.3,0,0.7,0.1,1,0.2c0.3,0.2,0.6,0.4,0.8,0.7c0.2,0.3,0.3,0.6,0.3,1c0,0.3-0.1,0.7-0.2,1
		c-0.2,0.3-0.4,0.6-0.7,0.8s-0.6,0.3-1,0.3c-0.3,0-0.7-0.1-1-0.2c-0.3-0.2-0.6-0.4-0.8-0.7c-0.2-0.3-0.3-0.6-0.3-1
		c0-0.3,0.1-0.7,0.2-1c0.2-0.3,0.4-0.6,0.7-0.8C165.4,115.5,165.7,115.4,166.1,115.4z M165.4,101.4l-0.2,12.8
		c0.7,0.4,1.6,0.5,2.6,0.1l2-12.4C168.6,101,167.1,100.9,165.4,101.4z"/>
	<polygon class="st21" points="43.3,57.8 180.1,56.7 179.7,88.2 39.5,96 	"/>
	<path class="st0" d="M47.2,85.2l2-12.4c1-0.4,1.9-0.4,2.6,0.1l-0.2,12.8C50,86.2,48.5,86.1,47.2,85.2z M52,71.4
		c0.3-0.2,0.5-0.4,0.7-0.8c0.2-0.3,0.2-0.7,0.2-1c0-0.3-0.1-0.7-0.3-1c-0.2-0.3-0.4-0.5-0.8-0.7c-0.3-0.2-0.7-0.2-1-0.2
		c-0.3,0-0.7,0.1-1,0.3c-0.3,0.2-0.5,0.4-0.7,0.8c-0.2,0.3-0.2,0.7-0.2,1c0,0.4,0.1,0.7,0.3,1c0.2,0.3,0.4,0.5,0.8,0.7
		c0.3,0.2,0.7,0.2,1,0.2C51.3,71.6,51.6,71.5,52,71.4z"/>
	<path class="st0" d="M67.4,67.5c0.4,1.3,0.4,2.5-0.1,3.6l-8,0.5l-0.1,4.1l6.5-0.4c0.7,1.2,0.7,2.3,0,3.4l-6.7,0.5l-0.2,6.9
		c-1.5,0.7-2.9,0.8-4,0.1l0.5-17.3c0.1-0.3,0.3-0.6,0.5-0.7L67.4,67.5z"/>
	<path class="st0" d="M82.5,66.9c0.4,1.3,0.4,2.5-0.1,3.6l-8,0.5l-0.1,3.1l6.6-0.4c0.7,1.2,0.6,2.3,0,3.4l-6.7,0.5L74,81.5l8.2-0.5
		c0.7,1.4,0.7,2.8-0.1,4.1l-11.4,0.9c-0.4-0.1-0.6-0.3-0.7-0.7l0.5-16.8c0.1-0.3,0.3-0.6,0.5-0.7L82.5,66.9z"/>
	<path class="st0" d="M89.7,66.8L89.3,81l7.3-0.5c0.7,1.4,0.7,2.8-0.1,4.1l-10.6,0.8c-0.4-0.1-0.6-0.3-0.7-0.7l0.4-17.4
		C86.5,66.7,87.9,66.6,89.7,66.8z"/>
	<path class="st0" d="M100.2,66.5c1.2-0.3,2.6-0.3,4,0l-0.8,18c-1.6,0.5-3,0.5-4.2,0L100.2,66.5z"/>
	<path class="st0" d="M107.7,66l11.7-0.4c0.8,1.1,1,2.4,0.4,3.8l-7.6,11l7.5-0.4c0.6,1.3,0.6,2.7,0.2,4.2l-12.5,0.5
		c-0.8-0.7-1-1.9-0.6-3.6l7.8-11.2l-7.4,0.3C106.9,68.6,107,67.2,107.7,66z"/>
	<path class="st0" d="M129.6,67l0.1-1.5l1.2-0.3l4.7,0c4.7,0.7,7.1,3.4,7.2,8.3c0,2.5-0.5,4.6-1.6,6.4c-1.3,2.3-4.6,3.6-10.1,3.8
		l-1.4-0.3l-0.3-1.7L129.6,67z M133.5,68.9l-0.1,10.8c2.1,0.1,3.6-0.4,4.4-1.2c0.8-0.9,1.3-2.3,1.3-4.1c0.1-1.8-0.2-3.2-0.9-4.1
		C137.6,69.3,136,68.9,133.5,68.9z"/>
	<path class="st0" d="M145.7,64.8c1.2-0.3,2.6-0.3,4,0l-0.8,18c-1.6,0.5-3,0.5-4.2,0L145.7,64.8z M150.3,59.8l-4,2.8
		c0,0.9,0.4,1.5,1.1,1.8l3.9-2.7C151.1,61,150.8,60.4,150.3,59.8z"/>
	<path class="st0" d="M161.2,64.1l5.5,17.4c-1.1,0.8-2.5,1-4.3,0.7l-1-3.2l-4.5,0.7l-1,3.3c-1.8,0.3-3.2,0.1-4.1-0.6l5.8-18.1
		C158.8,63.5,160,63.4,161.2,64.1z M159.3,70l-1.7,6.1l3-0.5L159.3,70z"/>
	<path class="st0" d="M170.2,77.9c0.4,0,0.7,0.1,1.1,0.3c0.4,0.2,0.6,0.5,0.9,0.9c0.2,0.4,0.3,0.8,0.3,1.2c0.2,0.7-0.3,2.3-1.5,5
		l-1.7-0.4l0.1-2c-0.5-0.4-0.8-0.8-1-1.2c-0.2-0.4-0.3-0.8-0.3-1.2c0-0.4,0.1-0.8,0.3-1.2c0.2-0.4,0.5-0.7,0.8-0.9
		C169.4,78,169.8,77.9,170.2,77.9z"/>
</g>
</svg>
