<?xml version="1.0" encoding="utf-8"?>
<!-- Generator: Adobe Illustrator 24.0.2, SVG Export Plug-In . SVG Version: 6.00 Build 0)  -->
<svg version="1.1" id="Capa_1" xmlns="http://www.w3.org/2000/svg" xmlns:xlink="http://www.w3.org/1999/xlink" x="0px" y="0px"
	 viewBox="0 0 900 1080" style="enable-background:new 0 0 900 1080;" xml:space="preserve">
<style type="text/css">
	.st0{clip-path:url(#SVGID_2_);fill:#FFAB15;}
	.st1{clip-path:url(#SVGID_2_);fill:#FFFFFF;}
	.st2{clip-path:url(#SVGID_2_);fill-rule:evenodd;clip-rule:evenodd;fill:#210309;}
	.st3{clip-path:url(#SVGID_2_);fill-rule:evenodd;clip-rule:evenodd;fill:#EF8871;}
	.st4{clip-path:url(#SVGID_2_);fill-rule:evenodd;clip-rule:evenodd;fill:#F4AD85;}
	.st5{clip-path:url(#SVGID_2_);fill-rule:evenodd;clip-rule:evenodd;fill:#B36237;}
	.st6{clip-path:url(#SVGID_2_);fill-rule:evenodd;clip-rule:evenodd;fill:#8A3D27;}
	.st7{clip-path:url(#SVGID_2_);fill-rule:evenodd;clip-rule:evenodd;fill:#C76D40;}
	.st8{clip-path:url(#SVGID_2_);fill-rule:evenodd;clip-rule:evenodd;fill:#A95635;}
	.st9{clip-path:url(#SVGID_2_);fill-rule:evenodd;clip-rule:evenodd;fill:#D97B4E;}
	.st10{clip-path:url(#SVGID_2_);fill-rule:evenodd;clip-rule:evenodd;fill:#F9D8CF;}
	.st11{clip-path:url(#SVGID_2_);fill-rule:evenodd;clip-rule:evenodd;fill:#FFFFFF;}
	.st12{clip-path:url(#SVGID_2_);fill-rule:evenodd;clip-rule:evenodd;fill:#CD7244;}
	.st13{clip-path:url(#SVGID_2_);fill-rule:evenodd;clip-rule:evenodd;fill:#EB6B5D;}
	.st14{clip-path:url(#SVGID_2_);fill-rule:evenodd;clip-rule:evenodd;fill:#E8685B;}
	.st15{clip-path:url(#SVGID_2_);fill-rule:evenodd;clip-rule:evenodd;fill:#2D010B;}
	.st16{clip-path:url(#SVGID_2_);fill-rule:evenodd;clip-rule:evenodd;fill:#FDF3F2;}
	.st17{clip-path:url(#SVGID_2_);fill-rule:evenodd;clip-rule:evenodd;fill:#7272DD;}
	.st18{clip-path:url(#SVGID_2_);fill-rule:evenodd;clip-rule:evenodd;fill:#6262C4;}
	.st19{clip-path:url(#SVGID_2_);fill-rule:evenodd;clip-rule:evenodd;fill:#5959AA;}
	.st20{clip-path:url(#SVGID_2_);fill-rule:evenodd;clip-rule:evenodd;fill:#3C0212;}
	.st21{clip-path:url(#SVGID_2_);fill-rule:evenodd;clip-rule:evenodd;fill:#FCE6D7;}
</style>
<g>
	<g>
		<defs>
			<rect id="SVGID_1_" width="900" height="1080"/>
		</defs>
		<clipPath id="SVGID_2_">
			<use xlink:href="#SVGID_1_"  style="overflow:visible;"/>
		</clipPath>
		<rect class="st0" width="900" height="1080"/>
		<polygon class="st1" points="118.6,231.9 530.7,225.5 528.5,316.7 128.3,351.3 		"/>
		<path class="st0" d="M164.5,259.6l9.1,28.9l13.3-29.8c3.3-1,6.5-1.1,9.7-0.4l-1.3,51.7l-11.3,0.5l0.6-24.7l-9.8,24.6
			c-1.7,0.9-3.3,0.7-4.7-0.8l-6.5-23.2l-1,25.1l-11.2,0.3L153,260C155.8,258.6,159.7,258.5,164.5,259.6z"/>
		<path class="st0" d="M229.2,256.3l15.7,49.6c-3.1,2.2-7.2,2.9-12.3,2.1l-2.8-9.2l-12.8,2.1l-2.9,9.5c-5.1,0.9-9,0.3-11.6-1.8
			l16.4-51.5C222.4,254.6,225.8,254.4,229.2,256.3z M223.8,273.1l-4.9,17.3l8.5-1.3L223.8,273.1z"/>
		<path class="st0" d="M284.6,254.6c1.3,3.6,1.2,7-0.2,10.2l-22.7,1.5l-0.3,8.9l18.7-1c1.9,3.3,1.8,6.5-0.1,9.6l-19,1.5l-0.6,10.8
			l23.3-1.5c2.1,4,1.9,7.9-0.4,11.6l-32.5,2.4c-1-0.2-1.6-0.9-1.9-2.1l1.4-47.8c0.2-0.9,0.7-1.6,1.6-2L284.6,254.6z"/>
		<path class="st0" d="M294.2,301.1c-1.7-5.2-1-9.3,2.2-12.3c6.1,3.3,10.5,5.3,13.2,6c5-0.2,7.7-1.6,8.1-4c0-2-1.6-3.8-4.8-5.5
			l-9.1-4c-5.7-2.8-8.7-6.9-9.1-12.2c0.1-3.1,1.1-5.9,2.9-8.5c1.8-2.5,4-4.3,6.4-5.1c2.4-0.9,5.3-1.2,8.6-1.2
			c6.1,0.2,11.6,1.7,16.3,4.6c0.3,4.4-0.9,8.2-3.7,11.6c-5.8-4-10.4-5.8-13.7-5.4c-3.2-0.3-4.8,0.9-4.9,3.6
			c-0.1,1.5,2.2,3.4,6.9,5.6c5.3,1.9,9.3,4.3,12,6.9c2.6,2.7,3.9,6,3.7,9.9c-0.2,5.3-2.5,9.5-7,12.5c-2.8,2.1-7,3.1-12.6,3
			C304.3,306,299.2,304.2,294.2,301.1z"/>
		<path class="st0" d="M373.8,251.5c1.7,3.7,1.8,7.4,0.1,11.2l-12.8,0.6l-0.5,40.5c-3.5,1.6-7.3,1.7-11.6,0.3l0.9-40l-12.6,0.7
			c-2.7-4.2-3-7.9-0.7-11L373.8,251.5z"/>
		<path class="st0" d="M388.3,251.7c11.5-1.5,19.6-1.9,24.2-1.3c4.6,0.6,7.6,2.6,9,6.1c1.4,3.4,1.6,8.1,0.7,14
			c-0.9,5.9-5.1,10-12.5,12.1l12.9,15.5c-2.1,4.6-5.9,6.3-11.3,4.8l-12.8-17.3l-4.1,0.6l-1.1,16.5c-4.7,1.8-8.5,1.6-11.4-0.7
			l2.7-47.7L388.3,251.7z M396,261.2l-1,14.4c9.6-1,14.9-2.9,15.9-5.7c1.1-2.8,1-5.3-0.1-7.5C409.7,260.3,404.8,259.9,396,261.2z"/>
		<path class="st0" d="M453.2,248.6c6.4-0.2,11.5,2.1,15.5,6.9c3.9,4.9,5.7,11.1,5.3,18.8c-0.4,7.7-2.8,14.1-7,19.2
			c-4.2,5.1-9.6,7.8-16,8c-6.4,0.2-11.8-2-16-6.7c-4.3-4.7-6.2-10.8-5.8-18.4c0.4-7.6,2.9-14.1,7.6-19.4
			C441.3,251.6,446.8,248.8,453.2,248.6z M452.7,261.7c-3.1,0.1-5.8,1.4-8.1,4c-2.4,2.6-3.7,5.9-4.1,10.1c-0.4,4.2,0.6,7.6,2.9,10.2
			c2.3,2.6,5.1,3.8,8.2,3.6c3.1-0.3,5.7-1.7,7.8-4.4c2-2.7,3.2-5.9,3.4-9.8s-0.6-7.2-2.6-9.8C458.2,262.9,455.7,261.7,452.7,261.7z"
			/>
		<path class="st0" d="M485.1,287.2c1,0,1.9,0.2,2.8,0.6c0.9,0.5,1.7,1.1,2.2,2c0.5,0.9,0.8,1.8,0.9,2.8c0,1-0.2,1.9-0.6,2.8
			s-1.1,1.6-2,2.2c-0.9,0.5-1.8,0.8-2.8,0.8c-1,0-2-0.2-2.9-0.6c-0.9-0.5-1.6-1.1-2.2-2c-0.5-0.9-0.8-1.8-0.8-2.8c0-1,0.2-2,0.7-2.9
			c0.5-0.9,1.2-1.6,2-2.2C483.2,287.5,484.1,287.2,485.1,287.2z M483.3,247.3l-0.5,36.5c2,1.2,4.5,1.3,7.5,0.2l5.6-35.4
			C492.2,246.1,488,245.7,483.3,247.3z"/>
		<polygon class="st1" points="135.4,123 525,119.8 524,209.5 124.4,231.8 		"/>
		<path class="st0" d="M146.4,201.2l5.6-35.4c3-1.1,5.4-1,7.5,0.2l-0.5,36.5C154.3,203.9,150.1,203.5,146.4,201.2z M160,161.6
			c0.9-0.5,1.6-1.2,2-2.2c0.5-0.9,0.7-1.9,0.7-2.9c0-1-0.3-1.9-0.8-2.8s-1.3-1.6-2.2-2c-0.9-0.5-1.9-0.7-2.9-0.6
			c-1,0-1.9,0.3-2.8,0.8c-0.9,0.5-1.6,1.2-2,2.2c-0.5,0.9-0.7,1.9-0.6,2.8c0,1,0.3,1.9,0.9,2.8c0.5,0.9,1.3,1.6,2.2,2
			c0.9,0.5,1.9,0.7,2.8,0.6C158.2,162.4,159.1,162.2,160,161.6z"/>
		<path class="st0" d="M203.9,150.6c1.3,3.6,1.2,7-0.2,10.2l-22.7,1.5l-0.3,11.6l18.6-1c1.9,3.3,1.9,6.5,0,9.6l-19,1.5l-0.6,19.7
			c-4.4,2.1-8.2,2.1-11.4,0.3l1.3-49.3c0.2-0.9,0.7-1.6,1.6-2L203.9,150.6z"/>
		<path class="st0" d="M247.1,149c1.3,3.6,1.2,7-0.2,10.2l-22.7,1.5l-0.3,8.9l18.7-1c1.9,3.3,1.8,6.5-0.1,9.6l-19,1.5l-0.6,10.8
			l23.3-1.5c2.1,4,1.9,7.9-0.4,11.6l-32.5,2.4c-1-0.2-1.6-0.9-1.9-2.1l1.4-47.8c0.2-0.9,0.7-1.6,1.6-2L247.1,149z"/>
		<path class="st0" d="M267.4,148.7l-1.1,40.3l20.8-1.3c2.1,4,1.9,7.9-0.4,11.6l-30.3,2.2c-1-0.2-1.6-0.9-1.9-2.1l1.1-49.6
			C258.4,148.4,262.3,148,267.4,148.7z"/>
		<path class="st0" d="M297.4,147.7c3.5-1,7.3-0.9,11.4,0.1l-2.3,51.3c-4.7,1.5-8.7,1.5-12-0.1L297.4,147.7z"/>
		<path class="st0" d="M318.9,146.5l33.5-1.1c2.4,3.2,2.7,6.8,1,10.9l-21.8,31.3l21.4-1.1c1.6,3.6,1.8,7.6,0.5,11.9l-35.5,1.4
			c-2.4-2-3-5.4-1.8-10.2l22.1-32l-21,0.9C316.4,153.9,316.9,149.9,318.9,146.5z"/>
		<path class="st0" d="M381.3,149.2l0.4-4.2l3.5-0.9l13.4-0.1c13.3,1.9,20.2,9.8,20.6,23.7c-0.1,7.1-1.5,13.1-4.4,18.1
			c-3.6,6.6-13.1,10.2-28.7,10.8l-4-1l-0.9-4.8L381.3,149.2z M392.3,154.7l-0.3,30.7c6,0.2,10.2-1,12.6-3.5
			c2.4-2.5,3.6-6.4,3.8-11.7c0.2-5.2-0.7-9.2-2.5-11.8C404.1,155.8,399.6,154.5,392.3,154.7z"/>
		<path class="st0" d="M427.1,143.1c3.5-1,7.3-0.9,11.4,0.1l-2.3,51.3c-4.7,1.5-8.7,1.5-12-0.1L427.1,143.1z M440,128.9l-11.4,7.9
			c0.1,2.5,1.2,4.2,3.1,5.1L443,134C442.5,132.1,441.5,130.4,440,128.9z"/>
		<path class="st0" d="M471.1,140.8l15.7,49.6c-3.1,2.2-7.2,2.9-12.3,2.1l-2.8-9.2l-12.8,2.1l-2.9,9.5c-5.1,0.9-9,0.3-11.6-1.8
			l16.4-51.5C464.3,139.2,467.8,138.9,471.1,140.8z M465.8,157.6l-4.9,17.3l8.5-1.3L465.8,157.6z"/>
		<path class="st0" d="M496.8,180.2c1.1,0,2.1,0.2,3.1,0.8s1.8,1.4,2.5,2.5c0.6,1.1,0.9,2.3,1,3.5c0.5,1.9-1,6.6-4.3,14.2l-4.8-1.1
			l0.3-5.8c-1.3-1.2-2.3-2.3-2.9-3.4c-0.6-1.1-0.9-2.2-1-3.4c0-1.2,0.2-2.4,0.7-3.5c0.5-1.1,1.3-2,2.3-2.7
			C494.7,180.6,495.7,180.3,496.8,180.2z"/>
		<path class="st2" d="M776.4,309.3l41.7,23.8c0,0-55.8,64.4-14.8,125.9c41,61.5,6,76.8-7.3,76.8c0,0,33.8,76.1-43.7,100.6
			c-77.4,24.5-192.6-18.5-192.6-18.5s-58.3-54-4.6-141.6C608.8,388.7,776.4,309.3,776.4,309.3z"/>
		<path class="st3" d="M349.1,479.3c0,0,13.2,2.4,23.5,2.9c10.4,0.4,10.5,0.3,12.8,2.8c2.3,2.5,9.2,12.4,9.9,18.3
			c0.8,5.9-4.8,16.6-10.3,23.1s-16.6,13.4-18.9,29l-8.9,8.6l-33.9-4.9c0,0,0.5-3.3,1.3-9c0.8-5.8-7.1-10.1-7.9-17.3
			c-0.9-7.3,0.2-13.5,1.4-21.7c1.2-8.3,4.1-28.7,4.1-28.7S329,477.3,349.1,479.3z"/>
		<path class="st4" d="M372.8,490.8l8.8-8.1c0,0-4-4.2-2.7-13.3c1.3-9.1,11.4-79.3,12.5-87c1.1-7.7-16.8-2.3-21.1,16.4
			c-4.4,18.8-5.9,38.3-7.7,51.1c0,0-51,17.2-54.7,22c-3.7,4.8-4.3,29.6-2.7,36.1c1.6,6.4,16.5,13.9,16.5,13.9L372.8,490.8z"/>
		<path class="st3" d="M375.7,488.1l5.9-5.4c0,0-4-4.2-2.7-13.3l2.2-15.5c-4,28-29.9,25.8-29.9,25.8l4.5,10.9L375.7,488.1z"/>
		<path class="st3" d="M350.3,504.5l12.3-7.5l-13.8-12.9l-7.1-3.7c0,0-3.2,3.9-1.6,11.1C341.4,497.3,347.7,502.5,350.3,504.5z"/>
		<path class="st4" d="M349.1,479.3c0,0,13.2,2.4,23.5,2.9c10.4,0.4,10.5,0.3,12.8,2.8c2.3,2.5,9.2,12.4,9.9,18.3
			c0.8,5.9-4.8,16.6-10.3,23.1s-16.6,13.4-18.9,29l-8.9,8.6l-5.8-0.8l3-20.9c0.8-5.2-8.1-8.7-6.3-21.4c1.8-12.7,15.5-20.2,15.5-20.2
			c-22-3.2-23.5-13.2-22.9-17.5c0.6-4.1,2.7-4.2,2.9-4.2C345.4,479,347.2,479.1,349.1,479.3z"/>
		<path class="st5" d="M567.1,570.9c-12.4,7.4-26.6,17.4-38.8,29.9c-29.8,30.4-157.2,180.3-160.1,182.3c-3,2-5,0.3-6.3-2
			c-1.3-2.3,8.6-224.5,8.6-224.5s-0.5-3.1-3.8-3.8c0,0-17.3,6.8-41.9-2.8c0,0-2.8,0.8-3.6,2.2c-0.8,1.4-41,257.4-41,278.6
			c0,21.2,17.2,44.3,41,56.9c34.9,18.4,180.2-92.3,212.4-113.2l47.3-135C576.1,612.7,567.8,574,567.1,570.9z"/>
		<path class="st6" d="M567.1,570.9c-12.4,7.4-26.6,17.4-38.8,29.9c-12.5,12.8-42.1,46.5-72.5,81.5c-6.1,36.6-25.7,147.7-42,160.9
			c-19.5,15.8-74.3,45.6-74.7,45.8c51.7-9.3,166.3-96.2,194.4-114.4l47.3-135C576.1,612.7,567.8,574,567.1,570.9z M352.7,555.1
			L352.7,555.1c0,0-9.9,2.2-17.6,21c-7.7,18.8-52,226.7-52.2,227.5c9.2-71.1,37.4-250.2,38.1-251.3c0.8-1.4,3.6-2.2,3.6-2.2
			C335.9,554.3,345.5,555.3,352.7,555.1z"/>
		<path class="st7" d="M795.2,602.7c-6-6.1-12.1-11.1-18.3-15.3c-22.2-7.3-60-19.6-60.5-19.8c-30.6-3.3-67.2-1.9-114.9-6.6
			c-22.2,0.7-38,9.5-50.8,22.8c-24.4,25.5-56.6,80.8-80.9,115.5c-11.4,16.3-10.4,43.1-2,69v0c0,0,10.6,33.7,17.4,81.9
			c5.8,41.3,6.4,177.3,3.6,225.7c-0.4,8,4.2,10.9,3.5,12.6c0,0,197.4,59.8,287.1-25.9c-68.6-175.3-37.5-218.2,3.6-338.7
			c1.5-4.5,3-9.2,4.5-13.9C796.7,669.4,797.7,623,795.2,602.7z"/>
		<path class="st8" d="M467.7,702.7c-9.2,16.5-7.8,41.4,0.1,65.7v0c0,0,1.7,5.4,4.1,14.9c1.8-4.5,4.2-8.3,7-8.5
			c6.8-0.5,177.4,22.2,195.8,46c18.4,23.7,41.3,209.1,24.1,242.3c-15.7,30.3-109.6,40.4-125.6,41.9c17.9,2.3,37.5,3.9,57.7,4
			c52.2-0.2,107.5-10.8,144.5-46.1c-68.6-175.3-37.5-218.2,3.6-338.7c6.6-19.3,12.3-41.1,14.4-61c1.2-11.4,2.2-21.3,2.9-30.2
			c0-2.3,0.1-4.5,0.1-6.7c-17.2-15.4-38-24.3-48.5,7.3c-20,59.7-56.1,115.3-85.4,116.9c-29.3,1.6-158.5-21.7-179.9-29
			C470.3,717.1,467.7,708.9,467.7,702.7z"/>
		<path class="st9" d="M599.4,589.1c0,0-6.4,4.6-12.8,9.5c-5.2,4-10.3,8.1-11.8,10.1c-3.4,4.5,21.7,106.7,21.7,106.7l33.9-9
			L599.4,589.1z"/>
		<polygon class="st10" points="604.6,593.4 603.4,735.8 669.4,636.1 652.6,637.2 620.1,649.2 		"/>
		<path class="st11" d="M604,670.8l-0.2,26.7c6.2-0.3,18.2-2.3,21.1-3.3c1.3-0.5,5.9-3.8,11.4-8l33.1-50.1l-16.7,1.1l-26.3,9.6
			l-11.5,7.5C614.8,654.4,608.4,662.3,604,670.8z"/>
		<path class="st5" d="M717.1,567c-3.1,0.1-6.1,0.1-8.8-0.2c-21,36.2-48.2,63.1-79.6,94.7c-59.7,60.2-74.1,59.8-58.4,148.3
			c3.6,20.4,25.1,190.9,17.7,296.7c63.2,6.2,143,2.4,191.4-43.8c-62.6-160.1-42.2-209.7-6.8-308.9c0-0.1,0.1-0.3,0.1-0.4h0l0.1-0.2
			c0.1-0.3,0.3-0.6,0.5-0.9c26.9-53.4,26-157.6,18.9-160c-7.1-2.4-75.7-24.8-75.7-24.8L717.1,567z"/>
		<path class="st6" d="M566.4,738.7c-2.8,12.4-2.6,27.4,0.4,49c47.5,8.7,98.4,20.8,107.9,33.1c18.4,23.7,41.3,209.1,24.1,242.3
			c-12.9,24.9-78.7,36.2-110.6,40.2c-0.1,1.1-0.1,2.2-0.2,3.3c13.8,1.4,28.4,2.2,43.2,2.3c52.1-0.3,119.8,10.2,156.7-25
			c-68.6-175.3-46.1-239.3-4.9-359.8c6.6-19.3,8.4-41.1,10.4-61c1.2-11.4,2.2-21.3,2.9-30.2c0-2.3,0.1-4.5,0.1-6.7
			c-17.2-15.4-35.8-1.8-35.8-1.8s-76,124.7-98.1,125.9C640.3,751.6,606,745.5,566.4,738.7z"/>
		<path class="st5" d="M792.1,592.4c0,0,16.7,6.8,27,25.8c30,55.4,65.3,221.2,70.1,292.7c4.6,69.1-53.7,74.2-74.4,18.5
			c-16.3-43.8-51.5-165.6-51.5-165.6S719.6,625.4,792.1,592.4z"/>
		<path class="st6" d="M886.5,883.8c1.2,10.1,2.2,19.2,2.7,27.2c4.6,69.1-53.7,74.2-74.4,18.5c-16.3-43.8-51.5-165.6-51.5-165.6
			s-27.4-86.9-2.7-139.4c-0.2,1.5-5.1,43.7,10,84.2c15.4,41.3,60.2,161.3,64.8,176.7C837.6,893.1,862.4,889.4,886.5,883.8z"/>
		<path class="st12" d="M692.2,591.4c-18.2,24.8-39.6,46.1-63.5,70.2c-24.1,24.3-40.8,38.7-51.1,53.1c0.3-0.2,125.9-76.8,132.3-80
			c6.4-3.2-3.2-39.2-3.2-39.2L692.2,591.4z"/>
		<path class="st3" d="M695.2,460.7l-1.3,27.7c0,0-0.2,56.7-0.2,65.3c0,4.3,4.2,9,11.5,13c-10.9,16.6-63.6,85.2-83.1,83
			c-19.6-2.1-18.3-86-18.3-86c2.6-1.4,5.1-3.3,7.6-6c2.6-2.8,4.4-8.2,5.6-14.9c3.1-17.9,1.1-44.7-5.8-53.5
			C601.8,477.2,695.2,460.7,695.2,460.7z"/>
		<path class="st13" d="M695.2,460.7l-1.3,27.7c0,0-0.2,56.7-0.2,65.3c0,4.3,4.2,9,11.5,13c-10.9,16.6-63.6,85.2-83.1,83
			c-1.1-0.1-2.2-0.5-3.2-1.2c-1-0.8-1.5-1.2-1.7-1.4l-0.1-0.1c0.1-0.1,63.4-77.1,57-79.5c-4.7-1.8-40-15-57.8-21.6
			c0.2-1,0.4-2.1,0.6-3.2c3.1-17.9,1.1-44.7-5.8-53.5C601.8,477.2,695.2,460.7,695.2,460.7z"/>
		<path class="st14" d="M766.6,380.2c0.8,0.1,1.6,0.3,2.4,0.5l0,0l0,0c14.6,3.6,25.4,16.9,25.1,32.6c-0.3,18.2-15.3,32.8-33.6,32.5
			c-18.2-0.3-32.8-15.3-32.5-33.6c0.2-10.6,5.3-20,13.2-25.9c-1.2,9.7-0.1,21.8,12.3,23.5l0.3-19.1
			C754,383.1,761.3,379.8,766.6,380.2z"/>
		<path class="st14" d="M528.2,371.8c-0.8,0.1-1.6,0.2-2.4,0.3l0,0l0,0c-14.8,2.6-26.5,15.1-27.3,30.8c-1,18.2,13,33.8,31.2,34.8
			c18.2,1,33.8-13,34.8-31.2c0.6-10.6-3.9-20.3-11.3-26.7c0.5,9.8-1.5,21.8-14,22.6l1-19C540.6,375.6,533.5,371.8,528.2,371.8z"/>
		<path class="st4" d="M653.2,211.1L653.2,211.1c62.2,2.2,111.3,54.9,109.1,117l-3.6,102.8c-2.2,62.2-54.9,111.3-117,109.1
			c-62.2-2.2-111.3-54.9-109.1-117l3.6-102.8C538.4,258,591,208.9,653.2,211.1z"/>
		<path class="st3" d="M740.9,258c14.2,19.7,22.3,44,21.4,70.1l-3.6,102.8c-2.2,62.2-54.9,111.3-117,109.1
			c-10.4-0.4-20.4-2.2-29.9-5.2c101.5,5.3,118.1-76.3,118.6-87.4c0.5-11.1,1.3-27.8,1.3-42.3c0-14.6-4.8-22.8-4.8-22.8
			s-29.4-36.7-34.5-41.9c-5-5.2-9.3-7.8-13.2-7.8c-4,0-5.8,0-5.8,0c-16.1,18-61.5,26.2-72.8,26.2c-11.4,0-14.8,0-36.8,0
			c-22,0-29.3,10.9-29.3,10.9v0l1.5-42.7c17.7-20.5,56.9-62.8,83.2-67.6C642,255.4,686.7,256.6,740.9,258z"/>
		<path class="st11" d="M656.5,457.4c0.1,16.2-13,29.3-29.2,29.4c-16.2,0.1-29.3-13-29.4-29.2l0.1,0c0-2.8,2.3-5.1,5-5.1l48.3-0.2
			C654.2,452.4,656.5,454.6,656.5,457.4L656.5,457.4z"/>
		<path class="st14" d="M564.2,429c8.2,0.1,14.8,6.9,14.6,15.1c-0.1,8.2-6.9,14.8-15.1,14.6c-8.2-0.1-14.8-6.9-14.6-15.1
			C549.2,435.4,556,428.8,564.2,429z"/>
		<path class="st14" d="M692.2,431c8.2,0.1,14.8,6.9,14.6,15.1c-0.1,8.2-6.9,14.8-15.1,14.6c-8.2-0.1-14.8-6.9-14.6-15.1
			C677.2,437.5,683.9,430.9,692.2,431z"/>
		<path class="st2" d="M674.9,414.6c0.1-2.7,1.3-5.2,3.2-7.1c2-1.8,4.6-2.8,7.3-2.7c2.7,0.1,5.2,1.3,7.1,3.2c1.8,2,2.8,4.6,2.7,7.3
			c-0.1,2.4,1.8,4.4,4.2,4.5c2.4,0.1,4.4-1.8,4.5-4.2c0.2-5-1.6-9.8-5-13.5c-3.4-3.7-8.1-5.8-13.1-6c-5-0.2-9.8,1.6-13.5,5
			c-3.7,3.4-5.8,8.1-6,13.1c-0.1,2.4,1.8,4.4,4.2,4.5C672.8,418.9,674.8,417,674.9,414.6z"/>
		<path class="st2" d="M558.4,410.6c0.1-2.7,1.3-5.2,3.2-7.1c2-1.8,4.6-2.8,7.3-2.7c2.7,0.1,5.2,1.3,7.1,3.2c1.8,2,2.8,4.6,2.7,7.3
			c-0.1,2.4,1.8,4.4,4.2,4.5c2.4,0.1,4.4-1.8,4.5-4.2c0.2-5-1.6-9.8-5-13.5c-3.4-3.7-8.1-5.8-13.1-6c-5-0.2-9.8,1.6-13.5,5
			c-3.7,3.4-5.8,8.1-6,13.1c-0.1,2.4,1.8,4.4,4.2,4.5C556.3,414.8,558.3,412.9,558.4,410.6z"/>
		<path class="st2" d="M700.1,378.8c2.1,1.1,4.7,0.4,5.9-1.7c1.1-2.1,0.4-4.7-1.7-5.9c-10.7-5.8-24.7-7.1-35.6-1.1
			c-2.1,1.2-2.8,3.8-1.7,5.9c1.2,2.1,3.8,2.9,5.9,1.7C680.9,373.3,692.3,374.3,700.1,378.8z"/>
		<path class="st2" d="M556,373.8c8.8-3.7,19-4.6,27.3,0.8c2,1.3,4.7,0.7,6-1.3c1.3-2,0.7-4.7-1.3-6c-10.3-6.7-24.7-6.6-35.6-1.4
			c-2.2,1-3.1,3.6-2.1,5.7C551.3,373.8,553.9,374.7,556,373.8z"/>
		<path class="st2" d="M533.8,387.1c0,0-1.9-11.8-16.4-12.3c-42.7-52.7-34-133.7,15-174.2c49-40.4,151.1-39.5,168.7-33
			c17.6,6.6,34.9,37.4,34.9,37.4s15.6-13,29.4-5.4c13.8,7.5,57.6,97.7,56.9,119.8c-0.8,22.1-45.2,64.5-45.2,64.5
			c-14.5-0.5-17.2,11.2-17.2,11.2l-0.6,15.9c-14.5-0.5-15.1-18.9-14.7-29.8c0,0-23.1-22-22.4-43.1l9.2-30.3l-13.2-33.1l-59.6-27.1
			l-108.4,21.8l-4.3,62.9v0v0C546,332.3,545.2,376.6,533.8,387.1z"/>
		<path class="st15" d="M492.4,320.5c-8.6-44.2,6-91.8,40.1-119.9c49-40.4,151.1-39.5,168.7-33c17.6,6.6,34.9,37.4,34.9,37.4
			s15.6-13,29.4-5.4c9.5,5.2,33.1,49.4,46.8,83.7c-7.8,14.7-19.4,27.4-35.8,26c-14.9-1.3-33.6-8.1-50.6-15.8l-7.5-18.8l-59.6-27.1
			l-108.4,21.8L546,331C525.4,329.2,506.6,324.7,492.4,320.5z"/>
		<path class="st2" d="M568.3,361.4c12.5,0.3,23.7,5.6,31.7,14c7.2,7.6,11.9,17.7,12.5,28.8l33.2,0.8c1.1-11.1,6.2-21,13.8-28.2
			c8.4-8,19.8-12.8,32.3-12.5c12.5,0.3,23.7,5.6,31.7,14c7.2,7.6,11.9,17.7,12.5,28.8l28.2,0.6l-0.2,6.9l-28.2-0.6
			c-1.1,11.1-6.2,21-13.8,28.2c-8.4,8-19.8,12.8-32.3,12.5c-12.5-0.3-23.7-5.6-31.7-14c-7.2-7.6-11.9-17.7-12.5-28.8l-33.2-0.8
			c-1.1,11.1-6.2,21-13.8,28.2c-8.4,8-19.8,12.8-32.3,12.5c-12.5-0.3-23.7-5.6-31.7-14c-8-8.4-12.8-19.8-12.5-32.3
			c0.3-12.5,5.6-23.7,14-31.7C544.4,365.9,555.9,361.1,568.3,361.4z M718.4,383c-6.8-7.1-16.2-11.6-26.8-11.8
			c-10.6-0.2-20.2,3.8-27.3,10.6c-7.1,6.8-11.6,16.2-11.8,26.8c-0.2,10.6,3.8,20.2,10.6,27.3c6.8,7.1,16.2,11.6,26.8,11.8
			c10.6,0.2,20.2-3.8,27.3-10.6c7.1-6.8,11.6-16.2,11.8-26.8C729.2,399.7,725.1,390,718.4,383z M595,380.2
			c-6.8-7.1-16.2-11.6-26.8-11.8c-10.6-0.2-20.2,3.8-27.3,10.6c-7.1,6.8-11.6,16.2-11.8,26.8c-0.2,10.6,3.8,20.2,10.6,27.3
			c6.8,7.1,16.2,11.6,26.8,11.8c10.6,0.2,20.2-3.8,27.3-10.6c7.1-6.8,11.6-16.2,11.8-26.8C605.8,396.9,601.8,387.2,595,380.2z"/>
		<path class="st16" d="M614.8,595.9l7.3,53.8l-5.3,2.7c0,0-25.1-45.4-25.6-46.5c-0.5-1.1-0.2-2.1,0.6-3.1c0.8-1,9.7-10.1,9.7-10.1
			L614.8,595.9z"/>
		<path class="st11" d="M613.4,554.8c0,0-3.5-1.4-4.9-1.1c-1.5,0.3-6.9,4.1-8.1,4.9c-1.2,0.8-10.5,31.9-10.2,33.5
			c0.3,1.6,1.7,1.9,2.6,1.9c0.9,0,22,2,22,2l-5.1-36.5C609.7,559.4,612.4,557.6,613.4,554.8z"/>
		<path class="st16" d="M667.8,602.5l-53,51.8c0,0,86.1-28.7,87.7-29.6c1.6-0.9,1.9-1.5,2-3.7c0.1-2.3-5-21-5-21L667.8,602.5z"/>
		<path class="st11" d="M695,557.8c0,0,5-3,8.5-3c3.4,0,13,12.8,13,12.8s-0.1,31.1-2.2,38c0,0-0.4,1.1-2.2,1.1
			c-1.9,0-44.2-4.1-44.2-4.1s32.6-28.1,34.1-37.9C701.9,564.6,697.2,561.9,695,557.8z"/>
		<path class="st11" d="M666.2,749.2l-12.2-8.6c0,0,11.7-12.2,14.8-14.7c3.1-2.5,7.6-4.7,18.3-5.4c10.7-0.7,73.5-2.2,128.7,30.2
			c0,0,8.4,5.6,15.1,11.7c0,0,1.2,0.4,3.5-0.3c2.4-0.7,8.8-1.7,11-5.2c0.4-0.6,1-2.7,1.9-5.9c10.4-35.2,28.6-75.6,69.1-87.2
			c0,0,3.2-0.3,5.7,0.6c2.5,0.8,7.1,5.4,7.1,5.4L894.1,766c0,0-29.3,28.8-33.3,33.8c-3.9,5.1-32.1,16.7-57.6,9
			C777.6,801,666.2,749.2,666.2,749.2z"/>
		<path class="st17" d="M647.2,739c0,0-4.6,2.8-4.3,8.3c0.3,5.5,15.5,132.6,16.6,138.6c1.1,6,2.8,9.2,8.6,9.1
			c5.8-0.2,104.1-0.8,177.9,21.7c0,0,4.8,1.4,8.6-0.1c3.8-1.5,14.6-8.8,16.1-11.2c1.5-2.4,24-51.4,42.3-59c0,0,4.9-2.6,5.4-8.5
			c0.4-5.9,2.9-40.8,4.9-68.5c2-27.8,6.5-83.2,14.3-101.7c0,0,0.7-3.1-2.1-3.9c-2.8-0.8-60.8,21.3-81.1,99.3c0,0-14.4,10-30.2,7.6
			C824.1,770.7,739.8,719.9,647.2,739z"/>
		<path class="st18" d="M657.2,867.7c1.2,10,2.1,16.9,2.3,18.2c1.1,6,2.8,9.2,8.6,9.1c5.8-0.2,104.1-0.8,177.9,21.7
			c0,0,4.8,1.4,8.6-0.1c3.8-1.5,14.6-8.8,16.1-11.2c1.5-2.4,24-51.4,42.3-59c0,0,4.9-2.6,5.4-8.5l0.8-11.3
			c-33.5,9.6-44.8-2.4-46.9-13.7c-2-10.9-5.8-51.9-8.1-77.8c-3.8,8.4-7.1,17.8-9.8,28.1c0,0-14.4,10-30.2,7.6c0,0-7-4.2-19.1-9.7
			c7.5,21.2,13.8,45.6,12.9,65.7c-1.9,46.8-11.2,59.2-30.8,60.6c-19.5,1.3-73.8-4.6-101.6-7C673.5,879.3,664,873.7,657.2,867.7z"/>
		<path class="st19" d="M837.8,914.3c2.7,0.8,5.4,1.5,8.1,2.3c0,0,4.8,1.4,8.6-0.1c3.2-1.3,11.2-6.5,14.6-9.6
			c-2.2-29.3-9.5-126.8-9.8-133.4c-0.3-7.7-5.1-10.4-5.1-10.4s-14.4,10-30.2,7.6c0,0,2,2.4,2.1,5
			C826.3,778.3,837.8,914.3,837.8,914.3z"/>
		<path class="st4" d="M863.9,942.4c0,0-9.2,2.3-16.9-2.7c-7.7-5-9-11.3-9.8-18.8c-0.8-7.5-1.2-12.3-1.2-12.3s-7.9-16.3-9.9-17.9
			c-2-1.6-14-10-16.1-12.9c-2.2-2.8-1.9-9.3,4.7-9.2c0,0-5.7-3.1-7.6-5.4c-1.9-2.4-2.4-7.7-1.4-9.7s10.6-0.6,10.6-0.6
			s-7.1-5.1-8.2-8c-1.1-2.9-1-7.5,0.2-9c1.1-1.6,18.2,3.2,33.5,7.1c0,0,7.5,1.4,13.5,5.9c6.1,4.4,9.9,7.2,9.9,7.2s-8.5-13.7-13.1-18
			c-4.6-4.3-17.6-15-19.8-18.3s-2.1-8.5-1.7-9.9c0.4-1.5,1.9-3.3,6.2-1.2c4.3,2.1,16.8,10.5,28,17.4c11.2,6.9,11.9,10,16.3,18.7
			c4.4,8.6,9.6,25.7,11.7,32.3c2.1,6.5-4.2,23.4-8.6,35.9C879.7,925.4,874.7,940.9,863.9,942.4z"/>
		<path class="st3" d="M863.9,942.4c0,0-9.2,2.3-16.9-2.7c-7.7-5-9-11.3-9.8-18.8c-0.8-7.5-1.2-12.3-1.2-12.3s-7.9-16.3-9.9-17.9
			c-2-1.6-14-10-16.1-12.9c-1.1-1.4-1.6-3.8-0.9-5.8c2.1,1.8,6.4,4.3,13.1,7.6c15.1,7.5,23.6,16.5,24.5,29.4
			c0.9,11.7,15.6,27.2,34.6,11.4C877.5,931,872.6,941.2,863.9,942.4z M813.4,868.8c10,1.7,37.1,11.9,37.1,11.9s-3.2-3.2-12.6-8
			c-7.3-3.7-24.1-8.9-32.3-13.4c0.3,1.6,0.8,3,1.6,4c1.9,2.4,7.6,5.4,7.6,5.4C814.2,868.7,813.8,868.7,813.4,868.8z M807.4,852.7
			c3-0.6,8.9,0.3,8.9,0.3s-7.1-5.1-8.2-8c-0.6-1.5-0.8-3.5-0.7-5.3c18.6,10.4,43.8,15.6,47.2,21.4c3.6,6.1,5.3,7.1,3.6,6.8
			c-1.7-0.2-34.3-14.6-45.2-14.8C810.8,853,809,852.8,807.4,852.7z M853.6,847.8c5.3,3.9,9.5,6.9,9.5,6.9s0.1,0,0.2,0.1
			c-1.7-1.2-4.5-3.3-8-5.9C854.8,848.5,854.2,848.1,853.6,847.8z M864.3,854.8c0.7-0.1,1.7-0.5,2.6-1.5c1.9-2.2-2.4-10.9-13.6-21.6
			c-9.9-9.5-17.5-21.2-19.1-23.8c-2.4-0.4-3.3,1-3.6,2.1c-0.4,1.5-0.5,6.6,1.7,9.9s15.2,14,19.8,18.3
			C855.8,841.6,862.1,851.2,864.3,854.8z"/>
		<path class="st2" d="M520.7,319.8l11.9,36.7c0,0,117.1,6,145.6-58.9c0,0,15.2,61.5,74.8,56.2c59.6-5.3-8.9-110.4-18.1-115
			c-9.3-4.6-94.6-15.5-106.9-12c-12.3,3.4-67.8,10.1-73.1,20c-5.3,9.9-6,17.2-6,25.1C548.9,279.9,520.7,319.8,520.7,319.8z"/>
		<path class="st15" d="M520.7,319.8l2.6,8.2c49.9,9.1,120,7.3,154.5-59.9c0,0,60.9,38.2,98.5,41.3c-6.7-33.9-31.8-75.1-37.3-77.9
			c-9.3-4.6-101.5-21.3-113.8-17.9c-12.3,3.4-80.7,11.2-86,21.2c-5.3,9.9-6,17.2-6,25.1S520.7,319.8,520.7,319.8z"/>
		<path class="st20" d="M527.3,291.5c-13.3-0.5-26.1-2.3-37-5.2c-0.2,2.4-0.3,4.9-0.3,7.3c9.9,3.3,21.6,6.2,35,7.9
			c2.4,0.3,4.9,0.6,7.5,0.8c1.8,0.2,3.7,0.3,5.6,0.4c3.2,0.2,6.5,0.3,9.8,0.4c3.3,0,6.6,0,10.1-0.1c12.4-0.5,25.8-2.1,40-5.4
			c26.2-6,44.2-21.7,56.7-40.8c1.8-2.8,3.6-5.7,5.2-8.7c3.5-6.4,6.4-13.1,8.9-19.9c1.3-3.5,2.5-7.1,3.5-10.6
			c0.4-1.4,0.8-2.7,1.2-4.1c5.2-18.7,7.3-36.6,8.2-49c-13.2-0.8-31.1-0.6-50.4,1.5c0.9,12.1,1.3,29-1,46.4c0,0.2,0,0.3-0.1,0.5
			c-0.6,4.6-1.4,9.2-2.4,13.7c-2.2,10.2-5.6,20.1-10.4,29.1c-0.9,1.6-1.8,3.2-2.8,4.7c-8.1,12.8-22.4,21-39.2,25.7
			c-8.4,2.4-17.4,3.9-26.6,4.6c-2.6,0.2-5.3,0.4-7.9,0.5c-0.5,0-1,0-1.5,0C535.4,291.6,531.3,291.6,527.3,291.5z"/>
		<path class="st11" d="M369.5,578.6c1.9-0.5,2-1.7,2-2.5c0.5-12.1-1-19.5-1-19.5s-0.5-3.1-3.8-3.8c0,0-17.3,6.8-41.9-2.8
			c0,0-2.8,0.8-3.6,2.2c-0.1,0.2-3.2,6.9-5,18.3c-0.1,0.9,0.3,2.2,1.5,2.8C324.4,576.8,344.2,585,369.5,578.6z"/>
		<path class="st21" d="M344.2,554.8c-5.7-0.6-12.3-2-19.4-4.8c0,0-2.8,0.8-3.6,2.2c-0.1,0.2-3.2,6.9-5,18.3
			c-0.1,0.9,0.3,2.2,1.5,2.8c3.1,1.6,8.8,4.1,16.5,5.9C336.5,564,340.8,557.5,344.2,554.8z"/>
		<path class="st18" d="M676.6,813.5c-4,0-4.7-4.3-4.7-4.3l-4.3-41.4c0,0-0.4-3.1,2.4-4.1c2.8-1,73.7-5.4,133.9,30.1
			c0,0,2.2,1,2.4,3.9c0.2,2.9,0.2,17,0.2,17.5c0,0.5,0,3.8,0,7.8c0,4,0,3.6,0,4.7c0,1.1-0.7,1.6-1.6,1.8
			C804.1,829.8,733.9,811.5,676.6,813.5z"/>
	</g>
</g>
</svg>
