<?xml version="1.0" encoding="utf-8"?>
<!-- Generator: Adobe Illustrator 24.0.2, SVG Export Plug-In . SVG Version: 6.00 Build 0)  -->
<svg version="1.1" id="Capa_1" xmlns="http://www.w3.org/2000/svg" xmlns:xlink="http://www.w3.org/1999/xlink" x="0px" y="0px"
	 viewBox="0 0 882 760" style="enable-background:new 0 0 882 760;" xml:space="preserve">
<style type="text/css">
	.st0{fill:#FF5E3E;}
	.st1{fill:#FFFFFF;}
	.st2{clip-path:url(#SVGID_2_);fill:#2D4456;}
	.st3{fill:#253847;}
	.st4{fill:#86DCFF;}
	.st5{fill:#56CAED;}
	.st6{fill:#FF5876;}
	.st7{fill:#E6485D;}
	.st8{fill:#F9E0A6;}
	.st9{fill:#EABD8C;}
	.st10{fill:#E4EEF9;}
	.st11{clip-path:url(#SVGID_4_);}
	.st12{fill:#8C95A4;}
	.st13{fill:#798699;}
	.st14{fill:#FCD770;}
	.st15{fill:#FFC729;}
	.st16{fill:#FEA82F;}
</style>
<g>
	<polygon class="st0" points="8.5,6.5 8.5,528.3 87.4,528.3 87.4,661.5 180.8,528.3 873.5,528.3 873.5,6.5 	"/>
	<path class="st1" d="M189,116.4c0,1-0.2,2-0.6,2.9c-0.4,0.9-0.9,1.7-1.6,2.3c-0.7,0.7-1.5,1.2-2.5,1.6c-0.9,0.4-1.9,0.6-3,0.6
		c-1,0-2-0.2-3-0.6c-0.9-0.4-1.7-0.9-2.4-1.6c-0.7-0.7-1.2-1.5-1.6-2.3c-0.4-0.9-0.6-1.8-0.6-2.9c0-1,0.2-2,0.6-2.9
		c0.4-0.9,1-1.7,1.6-2.3c0.7-0.7,1.5-1.2,2.4-1.6c0.9-0.4,1.9-0.5,2.9-0.5c1,0,2,0.2,3,0.6c0.9,0.4,1.8,0.9,2.5,1.6
		c0.7,0.7,1.2,1.4,1.6,2.3C188.8,114.4,189,115.4,189,116.4z M174.8,165v-36.7h13V165H174.8z"/>
	<path class="st1" d="M238.7,149.5c-3.6,0.9-7.6,1.3-11.8,1.3c-4.4,0-8.5-0.7-12.2-2.1c-3.7-1.4-6.9-3.4-9.6-5.9
		c-2.7-2.5-4.8-5.6-6.3-9.2c-1.5-3.6-2.3-7.5-2.3-11.9c0-4.4,0.8-8.4,2.3-12c1.5-3.6,3.7-6.6,6.4-9.2c2.7-2.5,5.9-4.5,9.5-5.8
		c3.6-1.4,7.6-2,11.8-2c4.4,0,8.4,0.7,12.2,2c3.7,1.3,6.8,3.1,9.1,5.3l-8.4,9.6c-1.3-1.5-3-2.7-5.1-3.7c-2.1-1-4.6-1.4-7.3-1.4
		c-2.3,0-4.5,0.4-6.5,1.3c-2,0.9-3.7,2.1-5.1,3.6c-1.5,1.5-2.6,3.4-3.4,5.5c-0.8,2.1-1.2,4.4-1.2,6.9c0,2.5,0.4,4.9,1.1,7
		c0.7,2.1,1.8,4,3.2,5.5c1.4,1.5,3.2,2.7,5.3,3.6c2.1,0.9,4.5,1.3,7.2,1.3c1.6,0,3-0.1,4.4-0.4c1.4-0.2,2.7-0.6,3.9-1.1v-10.1h-10.5
		v-10.8h22.8v29.3C245.4,147.5,242.3,148.6,238.7,149.5z"/>
	<path class="st1" d="M281.6,121.1c-0.6-0.2-1.1-0.3-1.7-0.3c-0.5-0.1-1.1-0.1-1.6-0.1c-1.7,0-3.2,0.3-4.3,0.9
		c-1.2,0.6-2.1,1.4-2.8,2.3c-0.7,0.9-1.2,1.8-1.5,2.9c-0.3,1-0.5,1.9-0.5,2.7v19.9h-12.8v-38.8h12.3v5.6h0.2c1-2,2.4-3.6,4.2-4.9
		c1.8-1.3,3.9-1.9,6.3-1.9c0.5,0,1,0,1.5,0.1c0.5,0.1,0.9,0.1,1.2,0.2L281.6,121.1z"/>
	<path class="st1" d="M283.6,115.9c2.3-2.2,5-3.8,8-4.9c3-1.1,6.1-1.6,9.3-1.6c3.3,0,6,0.4,8.3,1.2c2.3,0.8,4.1,2.1,5.5,3.7
		c1.4,1.7,2.4,3.8,3.1,6.4c0.6,2.6,1,5.6,1,9.2v19.6H307v-4.1h-0.2c-1,1.6-2.5,2.9-4.5,3.7c-2,0.9-4.2,1.3-6.5,1.3
		c-1.6,0-3.2-0.2-4.8-0.6c-1.7-0.4-3.2-1.1-4.6-2c-1.4-0.9-2.5-2.2-3.4-3.7c-0.9-1.6-1.3-3.5-1.3-5.8c0-2.8,0.8-5.1,2.3-6.8
		c1.5-1.7,3.5-3,5.9-4s5.1-1.6,8.1-1.9s5.8-0.5,8.7-0.5v-0.6c0-1.9-0.7-3.3-2-4.3c-1.4-0.9-3-1.4-5-1.4c-1.8,0-3.6,0.4-5.3,1.2
		c-1.7,0.8-3.1,1.7-4.3,2.8L283.6,115.9z M307,132.5h-1.6c-1.4,0-2.8,0.1-4.3,0.2c-1.4,0.1-2.7,0.4-3.8,0.7c-1.1,0.4-2,0.9-2.8,1.6
		c-0.7,0.7-1.1,1.6-1.1,2.8c0,0.7,0.2,1.4,0.5,1.9c0.3,0.5,0.8,0.9,1.3,1.2c0.5,0.3,1.1,0.5,1.8,0.7c0.7,0.1,1.3,0.2,1.9,0.2
		c2.6,0,4.6-0.7,6-2.1c1.4-1.4,2.1-3.4,2.1-5.8V132.5z"/>
	<path class="st1" d="M353.1,123.1c-0.7-0.9-1.7-1.7-3-2.3c-1.2-0.6-2.5-0.9-3.8-0.9c-1.4,0-2.6,0.3-3.7,0.8s-2,1.3-2.8,2.2
		c-0.8,0.9-1.4,2-1.8,3.2c-0.4,1.2-0.7,2.5-0.7,3.8c0,1.4,0.2,2.6,0.6,3.8c0.4,1.2,1,2.3,1.8,3.2c0.8,0.9,1.8,1.6,2.9,2.1
		c1.1,0.5,2.4,0.8,3.8,0.8c1.3,0,2.6-0.2,3.9-0.7c1.3-0.5,2.3-1.2,3.1-2.1l7.1,8.7c-1.6,1.6-3.7,2.8-6.2,3.7
		c-2.5,0.9-5.3,1.3-8.1,1.3c-3.1,0-5.9-0.5-8.6-1.4c-2.7-0.9-5-2.3-6.9-4.1c-2-1.8-3.5-4-4.6-6.5c-1.1-2.5-1.7-5.4-1.7-8.7
		c0-3.2,0.6-6,1.7-8.6c1.1-2.5,2.7-4.7,4.6-6.5c2-1.8,4.3-3.2,6.9-4.1c2.7-1,5.5-1.4,8.5-1.4c1.4,0,2.8,0.1,4.2,0.4
		c1.4,0.3,2.7,0.6,4,1.1c1.3,0.4,2.4,1,3.5,1.6c1.1,0.7,2,1.4,2.8,2.1L353.1,123.1z"/>
	<path class="st1" d="M377.5,98.2c0,1-0.2,1.9-0.6,2.8s-0.9,1.6-1.6,2.2c-0.7,0.6-1.4,1.1-2.3,1.5c-0.9,0.4-1.9,0.5-2.8,0.5
		c-2.1,0-3.8-0.7-5.2-2.1c-1.4-1.4-2.1-3-2.1-5c0-0.9,0.2-1.8,0.5-2.7c0.4-0.9,0.9-1.6,1.6-2.2c0.7-0.6,1.5-1.1,2.3-1.5
		c0.9-0.4,1.8-0.6,2.9-0.6c1,0,1.9,0.2,2.8,0.5c0.9,0.4,1.7,0.9,2.3,1.5c0.6,0.6,1.2,1.4,1.6,2.2S377.5,97.2,377.5,98.2z
		 M363.7,149.4v-38.8h12.8v38.8H363.7z"/>
	<path class="st1" d="M384.2,115.9c2.3-2.2,5-3.8,8-4.9c3-1.1,6.1-1.6,9.3-1.6c3.3,0,6,0.4,8.3,1.2c2.3,0.8,4.1,2.1,5.5,3.7
		c1.4,1.7,2.4,3.8,3.1,6.4c0.6,2.6,1,5.6,1,9.2v19.6h-11.7v-4.1h-0.2c-1,1.6-2.5,2.9-4.5,3.7c-2,0.9-4.2,1.3-6.5,1.3
		c-1.6,0-3.2-0.2-4.8-0.6c-1.7-0.4-3.2-1.1-4.6-2c-1.4-0.9-2.5-2.2-3.4-3.7c-0.9-1.6-1.3-3.5-1.3-5.8c0-2.8,0.8-5.1,2.3-6.8
		c1.5-1.7,3.5-3,5.9-4s5.1-1.6,8.1-1.9s5.8-0.5,8.7-0.5v-0.6c0-1.9-0.7-3.3-2-4.3c-1.4-0.9-3-1.4-5-1.4c-1.8,0-3.6,0.4-5.3,1.2
		c-1.7,0.8-3.1,1.7-4.3,2.8L384.2,115.9z M407.7,132.5H406c-1.4,0-2.8,0.1-4.3,0.2c-1.4,0.1-2.7,0.4-3.8,0.7c-1.1,0.4-2,0.9-2.8,1.6
		c-0.7,0.7-1.1,1.6-1.1,2.8c0,0.7,0.2,1.4,0.5,1.9c0.3,0.5,0.8,0.9,1.3,1.2c0.5,0.3,1.1,0.5,1.8,0.7c0.7,0.1,1.3,0.2,1.9,0.2
		c2.6,0,4.6-0.7,6-2.1c1.4-1.4,2.1-3.4,2.1-5.8V132.5z"/>
	<path class="st1" d="M449.8,122c-1-1-2.3-1.8-3.7-2.5c-1.4-0.7-2.9-1-4.4-1c-1.2,0-2.3,0.2-3.3,0.7c-1,0.5-1.5,1.3-1.5,2.4
		c0,1.1,0.6,1.9,1.7,2.3c1.1,0.5,2.9,1,5.4,1.6c1.5,0.3,2.9,0.8,4.4,1.3c1.5,0.6,2.8,1.3,4,2.3c1.2,0.9,2.2,2.1,2.9,3.4
		c0.7,1.4,1.1,3,1.1,4.8c0,2.4-0.5,4.5-1.5,6.2c-1,1.7-2.3,3.1-3.9,4.1c-1.6,1-3.4,1.8-5.3,2.3c-2,0.5-4,0.7-5.9,0.7
		c-3.2,0-6.3-0.5-9.3-1.5s-5.6-2.5-7.6-4.5l7.2-7.6c1.1,1.2,2.5,2.3,4.2,3.1c1.7,0.8,3.4,1.2,5.3,1.2c1,0,2.1-0.2,3.1-0.7
		c1-0.5,1.5-1.4,1.5-2.6c0-1.2-0.6-2.1-1.9-2.7c-1.2-0.6-3.2-1.2-5.9-1.8c-1.4-0.3-2.7-0.7-4.1-1.2c-1.4-0.5-2.6-1.2-3.6-2.1
		c-1.1-0.9-1.9-2-2.6-3.3c-0.7-1.3-1-2.9-1-4.7c0-2.3,0.5-4.3,1.5-6c1-1.6,2.3-3,3.8-4c1.6-1,3.3-1.8,5.2-2.3
		c1.9-0.5,3.8-0.7,5.7-0.7c2.9,0,5.8,0.5,8.5,1.4c2.8,0.9,5.1,2.3,7.1,4.1L449.8,122z"/>
	<polygon class="st1" points="468.9,159.1 458.4,159.1 464.2,136.9 476.5,136.9 	"/>
	<path class="st1" d="M541.7,129.8c0,2.7-0.4,5.3-1.2,7.8c-0.8,2.5-2,4.7-3.6,6.6c-1.6,1.9-3.5,3.4-5.8,4.6s-4.9,1.7-7.8,1.7
		c-2.4,0-4.7-0.5-6.8-1.4c-2.1-1-3.8-2.3-5-3.9h-0.2v23h-12.8v-57.6h12.2v4.8h0.2c1.2-1.6,2.8-2.9,5-4.1c2.1-1.2,4.6-1.8,7.4-1.8
		c2.8,0,5.4,0.5,7.6,1.6c2.3,1.1,4.2,2.6,5.8,4.4c1.6,1.9,2.8,4,3.7,6.5C541.2,124.6,541.7,127.1,541.7,129.8z M529.3,129.8
		c0-1.2-0.2-2.5-0.6-3.7c-0.4-1.2-1-2.2-1.7-3.2c-0.8-0.9-1.7-1.7-2.8-2.2c-1.1-0.6-2.5-0.9-4-0.9c-1.5,0-2.8,0.3-3.9,0.9
		c-1.1,0.6-2.1,1.3-2.9,2.3c-0.8,0.9-1.4,2-1.9,3.2c-0.4,1.2-0.7,2.4-0.7,3.7s0.2,2.5,0.7,3.7c0.4,1.2,1.1,2.3,1.9,3.2
		c0.8,0.9,1.8,1.7,2.9,2.3c1.1,0.6,2.4,0.9,3.9,0.9c1.5,0,2.8-0.3,4-0.9c1.1-0.6,2.1-1.3,2.8-2.3c0.8-0.9,1.3-2,1.7-3.2
		C529.1,132.3,529.3,131.1,529.3,129.8z"/>
	<path class="st1" d="M572.9,121.1c-0.6-0.2-1.1-0.3-1.7-0.3c-0.5-0.1-1.1-0.1-1.6-0.1c-1.7,0-3.2,0.3-4.3,0.9
		c-1.2,0.6-2.1,1.4-2.8,2.3c-0.7,0.9-1.2,1.8-1.5,2.9c-0.3,1-0.5,1.9-0.5,2.7v19.9h-12.8v-38.8h12.3v5.6h0.2c1-2,2.4-3.6,4.2-4.9
		c1.8-1.3,3.9-1.9,6.3-1.9c0.5,0,1,0,1.5,0.1c0.5,0.1,0.9,0.1,1.2,0.2L572.9,121.1z"/>
	<path class="st1" d="M616.5,129.8c0,3.2-0.6,6-1.7,8.6c-1.1,2.6-2.7,4.8-4.7,6.6c-2,1.8-4.3,3.2-6.9,4.2c-2.6,1-5.4,1.5-8.3,1.5
		c-2.9,0-5.7-0.5-8.3-1.5s-4.9-2.4-6.9-4.2c-2-1.8-3.5-4-4.6-6.6c-1.1-2.6-1.7-5.4-1.7-8.6c0-3.2,0.6-6,1.7-8.6
		c1.1-2.5,2.7-4.7,4.6-6.5c1.9-1.8,4.2-3.1,6.9-4.1s5.4-1.4,8.3-1.4c3,0,5.7,0.5,8.3,1.4c2.6,0.9,4.9,2.3,6.9,4.1
		c2,1.8,3.5,3.9,4.7,6.5C615.9,123.8,616.5,126.7,616.5,129.8z M604.1,129.8c0-1.2-0.2-2.5-0.6-3.7c-0.4-1.2-1-2.2-1.8-3.2
		c-0.8-0.9-1.7-1.7-2.9-2.2c-1.1-0.6-2.5-0.9-4-0.9c-1.5,0-2.8,0.3-4,0.9c-1.1,0.6-2.1,1.3-2.8,2.2c-0.8,0.9-1.3,2-1.7,3.2
		c-0.4,1.2-0.6,2.4-0.6,3.7s0.2,2.5,0.6,3.7c0.4,1.2,1,2.3,1.8,3.2c0.8,1,1.7,1.7,2.9,2.3c1.1,0.6,2.5,0.9,4,0.9
		c1.5,0,2.8-0.3,4-0.9c1.1-0.6,2.1-1.3,2.9-2.3c0.8-1,1.4-2,1.8-3.2C603.9,132.3,604.1,131.1,604.1,129.8z"/>
	<path class="st1" d="M646.7,99.9c-0.5-0.2-1-0.3-1.6-0.4c-0.6-0.1-1.2-0.2-1.9-0.2c-1.2,0-2.2,0.2-2.9,0.6c-0.7,0.4-1.3,1-1.7,1.7
		c-0.4,0.7-0.7,1.5-0.9,2.4c-0.2,0.9-0.2,1.8-0.2,2.7v3.9h8.7v9.5h-8.7v29.3h-12.8v-29.3h-7.1v-9.5h7.1v-3.7c0-2.4,0.3-4.7,0.8-6.8
		c0.5-2.2,1.4-4.1,2.7-5.7c1.3-1.6,3-2.9,5.1-3.9c2.2-1,4.8-1.4,8.1-1.4c1.1,0,2.2,0.1,3.2,0.2c1.1,0.1,2,0.3,2.9,0.6L646.7,99.9z"
		/>
	<path class="st1" d="M687.6,130.5c0,0.5,0,1,0,1.6c0,0.5,0,1-0.1,1.5h-28.2c0.1,1.1,0.4,2.1,1,3c0.5,0.9,1.2,1.7,2.1,2.3
		c0.9,0.7,1.8,1.2,2.9,1.5c1.1,0.4,2.2,0.5,3.3,0.5c2,0,3.7-0.4,5.1-1.1c1.4-0.8,2.5-1.7,3.4-2.9l8.9,5.6c-1.8,2.7-4.2,4.7-7.2,6.1
		c-3,1.4-6.5,2.1-10.4,2.1c-2.9,0-5.7-0.5-8.3-1.4c-2.6-0.9-4.9-2.2-6.8-4c-2-1.7-3.5-3.9-4.6-6.4c-1.1-2.5-1.7-5.5-1.7-8.7
		c0-3.2,0.5-6,1.6-8.6c1.1-2.6,2.6-4.8,4.4-6.6s4.1-3.2,6.6-4.2c2.5-1,5.3-1.5,8.3-1.5c2.9,0,5.5,0.5,7.9,1.4c2.4,1,4.4,2.4,6.2,4.2
		c1.7,1.8,3.1,4,4,6.6C687.1,124.2,687.6,127.1,687.6,130.5z M675.8,125.6c0-2-0.6-3.8-1.9-5.2c-1.3-1.5-3.2-2.2-5.7-2.2
		c-1.2,0-2.4,0.2-3.4,0.6c-1,0.4-2,0.9-2.7,1.6c-0.8,0.7-1.4,1.5-1.9,2.4c-0.5,0.9-0.7,1.9-0.8,2.8H675.8z"/>
	<path class="st1" d="M710.1,142.8c0,1-0.2,2-0.6,2.9c-0.4,0.9-0.9,1.7-1.6,2.3c-0.7,0.7-1.5,1.2-2.5,1.6c-0.9,0.4-1.9,0.6-3,0.6
		c-1,0-2-0.2-2.9-0.5c-0.9-0.4-1.7-0.9-2.4-1.6c-0.7-0.7-1.2-1.5-1.6-2.3c-0.4-0.9-0.6-1.8-0.6-2.9c0-1,0.2-1.9,0.6-2.8
		c0.4-0.9,0.9-1.7,1.6-2.4c0.7-0.7,1.5-1.2,2.4-1.6c0.9-0.4,1.9-0.6,3-0.6c1,0,2,0.2,3,0.6c0.9,0.4,1.8,0.9,2.5,1.6
		c0.7,0.7,1.2,1.4,1.6,2.3C709.9,140.9,710.1,141.8,710.1,142.8z M695.9,130.9V94.2h13v36.7H695.9z"/>
	<path class="st1" d="M139.5,210.3h7.9c2,0,3.6,0.5,4.7,1.5s1.7,2.4,1.7,4.2c0,1.8-0.6,3.2-1.7,4.2c-1.1,1-2.7,1.5-4.7,1.5h-5.1v7.6
		h-2.8V210.3z M147,219.5c2.7,0,4-1.2,4-3.5c0-2.3-1.3-3.5-4-3.5h-4.8v6.9H147z"/>
	<path class="st1" d="M158.6,228.7c-1-0.6-1.7-1.4-2.3-2.4c-0.5-1-0.8-2.2-0.8-3.6c0-1.4,0.3-2.6,0.8-3.6c0.5-1,1.3-1.8,2.3-2.4
		c1-0.6,2.1-0.8,3.4-0.8s2.4,0.3,3.4,0.8c1,0.6,1.7,1.4,2.3,2.4c0.5,1,0.8,2.2,0.8,3.6c0,1.4-0.3,2.6-0.8,3.6
		c-0.5,1-1.3,1.8-2.3,2.4c-1,0.6-2.1,0.8-3.4,0.8S159.6,229.2,158.6,228.7z M164.8,226.2c0.6-0.8,1-2,1-3.5c0-1.5-0.3-2.7-1-3.5
		c-0.6-0.8-1.6-1.2-2.8-1.2c-1.2,0-2.1,0.4-2.8,1.2c-0.6,0.8-1,2-1,3.5c0,1.5,0.3,2.7,1,3.5c0.6,0.8,1.6,1.2,2.8,1.2
		C163.2,227.4,164.1,227,164.8,226.2z"/>
	<path class="st1" d="M179.5,218.1l-1.6,0.2c-1.3,0.1-2.2,0.5-2.8,1.2c-0.6,0.7-0.9,1.5-0.9,2.5v7.3h-2.7v-13.2h2.6v2.3
		c0.7-1.5,2.1-2.4,4.3-2.6l0.9-0.1L179.5,218.1z"/>
	<path class="st1" d="M199.7,227.3l-0.1,2.1c-0.5,0.1-0.9,0.1-1.4,0.1c-1.7,0-3-0.4-3.8-1.3s-1.3-2-1.3-3.6v-6.4h-2.6v-2.1h2.6v-4
		h2.7v4h3.6v2.1h-3.6v6.3c0,1.9,0.9,2.9,2.7,2.9C198.9,227.4,199.4,227.4,199.7,227.3z"/>
	<path class="st1" d="M213.4,216.2v13.2h-2.6v-2.1c-0.4,0.8-1,1.3-1.7,1.7c-0.7,0.4-1.5,0.6-2.4,0.6c-3.2,0-4.8-1.8-4.8-5.3v-8.1
		h2.7v8c0,1.1,0.2,1.8,0.6,2.3s1.1,0.8,2,0.8c1.1,0,1.9-0.3,2.6-1c0.6-0.7,1-1.6,1-2.7v-7.4H213.4z"/>
	<polygon class="st1" points="237.4,216.2 240.2,216.2 234.4,229.3 232,229.3 226.3,216.2 229.2,216.2 233.3,226.3 	"/>
	<path class="st1" d="M244.3,228.7c-1-0.6-1.7-1.4-2.3-2.4c-0.5-1-0.8-2.2-0.8-3.6c0-1.4,0.3-2.6,0.8-3.6c0.5-1,1.3-1.8,2.3-2.4
		c1-0.6,2.1-0.8,3.4-0.8s2.4,0.3,3.4,0.8c1,0.6,1.7,1.4,2.3,2.4c0.5,1,0.8,2.2,0.8,3.6c0,1.4-0.3,2.6-0.8,3.6
		c-0.5,1-1.3,1.8-2.3,2.4c-1,0.6-2.1,0.8-3.4,0.8S245.2,229.2,244.3,228.7z M250.4,226.2c0.6-0.8,1-2,1-3.5c0-1.5-0.3-2.7-1-3.5
		c-0.6-0.8-1.6-1.2-2.8-1.2c-1.2,0-2.1,0.4-2.8,1.2c-0.6,0.8-1,2-1,3.5c0,1.5,0.3,2.7,1,3.5c0.6,0.8,1.6,1.2,2.8,1.2
		C248.9,227.4,249.8,227,250.4,226.2z"/>
	<rect x="257.2" y="210.3" class="st1" width="2.7" height="19"/>
	<path class="st1" d="M275.3,216.2v13.2h-2.6v-2.1c-0.4,0.8-1,1.3-1.7,1.7c-0.7,0.4-1.5,0.6-2.4,0.6c-3.2,0-4.8-1.8-4.8-5.3v-8.1
		h2.7v8c0,1.1,0.2,1.8,0.6,2.3s1.1,0.8,2,0.8c1.1,0,1.9-0.3,2.6-1c0.6-0.7,1-1.6,1-2.7v-7.4H275.3z"/>
	<path class="st1" d="M290.9,221.2v8.2h-2.7v-8c0-1.1-0.2-1.9-0.7-2.5s-1.1-0.8-2.1-0.8c-1.1,0-2,0.3-2.6,1c-0.7,0.7-1,1.6-1,2.8
		v7.5h-2.7v-13.2h2.7v2.1c0.4-0.8,1-1.4,1.8-1.8c0.8-0.4,1.6-0.6,2.6-0.6C289.3,215.8,290.9,217.6,290.9,221.2z"/>
	<path class="st1" d="M302.1,227.3l-0.1,2.1c-0.5,0.1-0.9,0.1-1.4,0.1c-1.7,0-3-0.4-3.8-1.3s-1.3-2-1.3-3.6v-6.4h-2.6v-2.1h2.6v-4
		h2.7v4h3.6v2.1h-3.6v6.3c0,1.9,0.9,2.9,2.7,2.9C301.3,227.4,301.7,227.4,302.1,227.3z"/>
	<path class="st1" d="M313.6,217.2c0.9,0.9,1.3,2.2,1.3,4v8.2h-2.6v-2.2c-0.3,0.8-0.9,1.4-1.5,1.8c-0.7,0.4-1.5,0.6-2.4,0.6
		c-0.9,0-1.7-0.2-2.4-0.5s-1.3-0.8-1.7-1.5c-0.4-0.6-0.6-1.3-0.6-2.1c0-1,0.2-1.7,0.7-2.3c0.5-0.5,1.3-0.9,2.5-1.2
		c1.1-0.2,2.7-0.4,4.7-0.4h0.6v-0.8c0-1-0.2-1.7-0.6-2.2c-0.4-0.4-1.1-0.7-2.1-0.7c-1.5,0-3,0.5-4.5,1.4l-0.8-1.9
		c0.7-0.5,1.6-0.9,2.6-1.2c1-0.3,2-0.4,2.9-0.4C311.4,215.8,312.7,216.3,313.6,217.2z M311.3,226.5c0.6-0.7,0.9-1.5,0.9-2.6v-0.7
		h-0.5c-1.4,0-2.5,0.1-3.2,0.2s-1.3,0.3-1.6,0.6s-0.5,0.7-0.5,1.3c0,0.6,0.2,1.2,0.7,1.6c0.5,0.4,1,0.6,1.8,0.6
		C309.8,227.5,310.7,227.2,311.3,226.5z"/>
	<path class="st1" d="M330.8,210.3v19h-2.7v-2.3c-0.4,0.8-1,1.4-1.7,1.8s-1.6,0.6-2.6,0.6c-1.1,0-2.1-0.3-3-0.9
		c-0.9-0.6-1.6-1.4-2.1-2.4c-0.5-1-0.7-2.2-0.7-3.6c0-1.4,0.2-2.6,0.7-3.6c0.5-1,1.2-1.8,2.1-2.4c0.9-0.6,1.9-0.8,3.1-0.8
		c1,0,1.9,0.2,2.6,0.6c0.7,0.4,1.3,1,1.7,1.8v-8H330.8z M327.1,226.1c0.6-0.8,1-2,1-3.5c0-1.5-0.3-2.6-1-3.5
		c-0.6-0.8-1.6-1.2-2.7-1.2c-1.2,0-2.1,0.4-2.8,1.2s-1,1.9-1,3.4s0.3,2.6,1,3.5s1.6,1.3,2.8,1.3C325.5,227.4,326.5,227,327.1,226.1z
		"/>
	<polygon class="st1" points="354.8,216.2 357.5,216.2 349.7,234.2 346.9,234.2 349.2,229 343.7,216.2 346.6,216.2 350.7,226.3 	"/>
	<path class="st1" d="M381.7,223.2h-9.3c0.2,2.8,1.6,4.2,4.2,4.2c1.5,0,2.9-0.5,4.1-1.5l0.8,1.9c-0.6,0.5-1.4,0.9-2.3,1.2
		c-0.9,0.3-1.8,0.5-2.8,0.5c-2.1,0-3.8-0.6-5-1.8c-1.2-1.2-1.8-2.9-1.8-5c0-1.3,0.3-2.5,0.8-3.6c0.5-1,1.3-1.9,2.2-2.4
		c1-0.6,2.1-0.9,3.3-0.9c1.8,0,3.2,0.6,4.2,1.7c1,1.2,1.5,2.7,1.5,4.8V223.2z M373.5,218.8c-0.6,0.7-1,1.6-1.1,2.8h6.9
		c-0.1-1.2-0.4-2.2-0.9-2.8c-0.6-0.7-1.4-1-2.4-1C375,217.8,374.2,218.2,373.5,218.8z"/>
	<path class="st1" d="M396.5,221.2v8.2h-2.7v-8c0-1.1-0.2-1.9-0.7-2.5s-1.1-0.8-2.1-0.8c-1.1,0-2,0.3-2.6,1c-0.7,0.7-1,1.6-1,2.8
		v7.5h-2.7v-13.2h2.7v2.1c0.4-0.8,1-1.4,1.8-1.8c0.8-0.4,1.6-0.6,2.6-0.6C395,215.8,396.5,217.6,396.5,221.2z"/>
	<path class="st1" d="M407.7,227.3l-0.1,2.1c-0.5,0.1-0.9,0.1-1.4,0.1c-1.7,0-3-0.4-3.8-1.3s-1.3-2-1.3-3.6v-6.4h-2.6v-2.1h2.6v-4
		h2.7v4h3.6v2.1h-3.6v6.3c0,1.9,0.9,2.9,2.7,2.9C406.9,227.4,407.3,227.4,407.7,227.3z"/>
	<path class="st1" d="M417.8,218.1l-1.6,0.2c-1.3,0.1-2.2,0.5-2.8,1.2c-0.6,0.7-0.9,1.5-0.9,2.5v7.3h-2.7v-13.2h2.6v2.3
		c0.7-1.5,2.1-2.4,4.3-2.6l0.9-0.1L417.8,218.1z"/>
	<path class="st1" d="M430.7,223.2h-9.3c0.2,2.8,1.6,4.2,4.2,4.2c1.5,0,2.9-0.5,4.1-1.5l0.8,1.9c-0.6,0.5-1.4,0.9-2.3,1.2
		c-0.9,0.3-1.8,0.5-2.8,0.5c-2.1,0-3.8-0.6-5-1.8c-1.2-1.2-1.8-2.9-1.8-5c0-1.3,0.3-2.5,0.8-3.6c0.5-1,1.3-1.9,2.2-2.4
		c1-0.6,2.1-0.9,3.3-0.9c1.8,0,3.2,0.6,4.2,1.7c1,1.2,1.5,2.7,1.5,4.8V223.2z M422.5,218.8c-0.6,0.7-1,1.6-1.1,2.8h6.9
		c-0.1-1.2-0.4-2.2-0.9-2.8c-0.6-0.7-1.4-1-2.4-1C424,217.8,423.1,218.2,422.5,218.8z"/>
	<path class="st1" d="M445.9,216.2v12.1c0,2-0.5,3.5-1.6,4.6c-1.1,1-2.7,1.5-4.7,1.5c-1.1,0-2.2-0.1-3.2-0.4s-1.9-0.7-2.7-1.3l0.8-2
		c0.9,0.6,1.7,1,2.5,1.2c0.8,0.2,1.7,0.4,2.6,0.4c2.5,0,3.7-1.3,3.7-3.8v-2.1c-0.4,0.8-1,1.4-1.7,1.8c-0.8,0.4-1.7,0.7-2.7,0.7
		c-1.2,0-2.2-0.3-3.1-0.8s-1.6-1.3-2.1-2.3c-0.5-1-0.7-2.1-0.7-3.4s0.3-2.4,0.8-3.4c0.5-1,1.2-1.8,2.1-2.3c0.9-0.5,1.9-0.8,3.1-0.8
		c1,0,1.9,0.2,2.7,0.6c0.8,0.4,1.3,1,1.7,1.8v-2.2H445.9z M442.2,225.6c0.7-0.8,1-1.8,1-3.2c0-1.4-0.3-2.4-1-3.2
		c-0.7-0.8-1.6-1.2-2.8-1.2c-1.2,0-2.1,0.4-2.8,1.2s-1,1.8-1,3.2c0,1.4,0.3,2.4,1,3.2c0.7,0.8,1.6,1.2,2.8,1.2
		C440.7,226.8,441.6,226.4,442.2,225.6z"/>
	<path class="st1" d="M459.2,217.2c0.9,0.9,1.3,2.2,1.3,4v8.2h-2.6v-2.2c-0.3,0.8-0.9,1.4-1.5,1.8c-0.7,0.4-1.5,0.6-2.4,0.6
		c-0.9,0-1.7-0.2-2.4-0.5s-1.3-0.8-1.7-1.5c-0.4-0.6-0.6-1.3-0.6-2.1c0-1,0.2-1.7,0.7-2.3c0.5-0.5,1.3-0.9,2.5-1.2
		c1.1-0.2,2.7-0.4,4.7-0.4h0.6v-0.8c0-1-0.2-1.7-0.6-2.2c-0.4-0.4-1.1-0.7-2.1-0.7c-1.5,0-3,0.5-4.5,1.4l-0.8-1.9
		c0.7-0.5,1.6-0.9,2.6-1.2c1-0.3,2-0.4,2.9-0.4C457,215.8,458.3,216.3,459.2,217.2z M456.9,226.5c0.6-0.7,0.9-1.5,0.9-2.6v-0.7h-0.5
		c-1.4,0-2.5,0.1-3.2,0.2s-1.3,0.3-1.6,0.6s-0.5,0.7-0.5,1.3c0,0.6,0.2,1.2,0.7,1.6c0.5,0.4,1,0.6,1.8,0.6
		C455.4,227.5,456.2,227.2,456.9,226.5z"/>
	<path class="st1" d="M467.1,226.1v2.2c0,0.8-0.1,1.6-0.4,2.3c-0.3,0.7-0.8,1.4-1.4,2l-1.2-0.9c0.8-0.8,1.2-1.6,1.3-2.4h-1.5v-3.2
		H467.1z"/>
	<path class="st1" d="M491.6,216.7c0.9,0.6,1.6,1.4,2.1,2.4c0.5,1,0.7,2.3,0.7,3.6c0,1.4-0.2,2.5-0.7,3.6c-0.5,1-1.2,1.8-2.1,2.4
		c-0.9,0.6-1.9,0.8-3.1,0.8c-1,0-1.9-0.2-2.6-0.6s-1.3-1-1.7-1.8v7.1h-2.7v-18h2.7v2.2c0.4-0.8,1-1.4,1.7-1.8s1.6-0.6,2.6-0.6
		C489.7,215.8,490.7,216.1,491.6,216.7z M490.7,226.2c0.6-0.8,1-1.9,1-3.4c0-1.5-0.3-2.7-1-3.5c-0.7-0.8-1.6-1.2-2.7-1.2
		c-1.2,0-2.1,0.4-2.7,1.2s-1,2-1,3.5c0,1.5,0.3,2.6,1,3.5s1.6,1.2,2.7,1.2C489.1,227.4,490.1,227,490.7,226.2z"/>
	<path class="st1" d="M499.8,228.7c-1-0.6-1.7-1.4-2.3-2.4c-0.5-1-0.8-2.2-0.8-3.6c0-1.4,0.3-2.6,0.8-3.6c0.5-1,1.3-1.8,2.3-2.4
		c1-0.6,2.1-0.8,3.4-0.8s2.4,0.3,3.4,0.8c1,0.6,1.7,1.4,2.3,2.4c0.5,1,0.8,2.2,0.8,3.6c0,1.4-0.3,2.6-0.8,3.6
		c-0.5,1-1.3,1.8-2.3,2.4c-1,0.6-2.1,0.8-3.4,0.8S500.8,229.2,499.8,228.7z M506,226.2c0.6-0.8,1-2,1-3.5c0-1.5-0.3-2.7-1-3.5
		c-0.6-0.8-1.6-1.2-2.8-1.2c-1.2,0-2.1,0.4-2.8,1.2c-0.6,0.8-1,2-1,3.5c0,1.5,0.3,2.7,1,3.5c0.6,0.8,1.6,1.2,2.8,1.2
		C504.4,227.4,505.3,227,506,226.2z"/>
	<path class="st1" d="M520.7,218.1l-1.6,0.2c-1.3,0.1-2.2,0.5-2.8,1.2c-0.6,0.7-0.9,1.5-0.9,2.5v7.3h-2.7v-13.2h2.6v2.3
		c0.7-1.5,2.1-2.4,4.3-2.6l0.9-0.1L520.7,218.1z"/>
	<path class="st1" d="M545.7,210.3v19H543v-2.3c-0.4,0.8-1,1.4-1.7,1.8s-1.6,0.6-2.6,0.6c-1.1,0-2.1-0.3-3-0.9
		c-0.9-0.6-1.6-1.4-2.1-2.4c-0.5-1-0.7-2.2-0.7-3.6c0-1.4,0.2-2.6,0.7-3.6c0.5-1,1.2-1.8,2.1-2.4c0.9-0.6,1.9-0.8,3.1-0.8
		c1,0,1.9,0.2,2.6,0.6c0.7,0.4,1.3,1,1.7,1.8v-8H545.7z M542,226.1c0.6-0.8,1-2,1-3.5c0-1.5-0.3-2.6-1-3.5c-0.6-0.8-1.6-1.2-2.7-1.2
		c-1.2,0-2.1,0.4-2.8,1.2s-1,1.9-1,3.4s0.3,2.6,1,3.5s1.6,1.3,2.8,1.3C540.4,227.4,541.4,227,542,226.1z"/>
	<path class="st1" d="M560.7,223.2h-9.3c0.2,2.8,1.6,4.2,4.2,4.2c1.5,0,2.9-0.5,4.1-1.5l0.8,1.9c-0.6,0.5-1.4,0.9-2.3,1.2
		c-0.9,0.3-1.8,0.5-2.8,0.5c-2.1,0-3.8-0.6-5-1.8c-1.2-1.2-1.8-2.9-1.8-5c0-1.3,0.3-2.5,0.8-3.6c0.5-1,1.3-1.9,2.2-2.4
		c1-0.6,2.1-0.9,3.3-0.9c1.8,0,3.2,0.6,4.2,1.7c1,1.2,1.5,2.7,1.5,4.8V223.2z M552.6,218.8c-0.6,0.7-1,1.6-1.1,2.8h6.9
		c-0.1-1.2-0.4-2.2-0.9-2.8c-0.6-0.7-1.4-1-2.4-1C554,217.8,553.2,218.2,552.6,218.8z"/>
	<path class="st1" d="M575.9,210.3v19h-2.7v-2.3c-0.4,0.8-1,1.4-1.7,1.8s-1.6,0.6-2.6,0.6c-1.1,0-2.1-0.3-3-0.9
		c-0.9-0.6-1.6-1.4-2.1-2.4c-0.5-1-0.7-2.2-0.7-3.6c0-1.4,0.2-2.6,0.7-3.6c0.5-1,1.2-1.8,2.1-2.4c0.9-0.6,1.9-0.8,3.1-0.8
		c1,0,1.9,0.2,2.6,0.6c0.7,0.4,1.3,1,1.7,1.8v-8H575.9z M572.2,226.1c0.6-0.8,1-2,1-3.5c0-1.5-0.3-2.6-1-3.5
		c-0.6-0.8-1.6-1.2-2.7-1.2c-1.2,0-2.1,0.4-2.8,1.2s-1,1.9-1,3.4s0.3,2.6,1,3.5s1.6,1.3,2.8,1.3C570.7,227.4,571.6,227,572.2,226.1z
		"/>
	<path class="st1" d="M579.5,210.3h3.1v2.8h-3.1V210.3z M579.7,229.3v-13.2h2.7v13.2H579.7z"/>
	<path class="st1" d="M588.5,228.7c-1-0.6-1.7-1.3-2.3-2.4c-0.5-1-0.8-2.2-0.8-3.6c0-1.4,0.3-2.6,0.8-3.6c0.5-1,1.3-1.9,2.3-2.4
		c1-0.6,2.2-0.9,3.5-0.9c0.9,0,1.8,0.2,2.7,0.5c0.9,0.3,1.6,0.7,2.1,1.2l-0.8,1.9c-1.2-1-2.4-1.5-3.7-1.5c-1.3,0-2.2,0.4-3,1.2
		c-0.7,0.8-1.1,2-1.1,3.5c0,1.5,0.4,2.6,1.1,3.4c0.7,0.8,1.7,1.2,3,1.2c1.3,0,2.5-0.5,3.7-1.5l0.8,2c-0.6,0.5-1.3,0.9-2.2,1.2
		c-0.9,0.3-1.8,0.4-2.7,0.4C590.7,229.5,589.5,229.2,588.5,228.7z"/>
	<path class="st1" d="M608.7,217.2c0.9,0.9,1.3,2.2,1.3,4v8.2h-2.6v-2.2c-0.3,0.8-0.9,1.4-1.5,1.8c-0.7,0.4-1.5,0.6-2.4,0.6
		c-0.9,0-1.7-0.2-2.4-0.5s-1.3-0.8-1.7-1.5c-0.4-0.6-0.6-1.3-0.6-2.1c0-1,0.2-1.7,0.7-2.3c0.5-0.5,1.3-0.9,2.5-1.2
		c1.1-0.2,2.7-0.4,4.7-0.4h0.6v-0.8c0-1-0.2-1.7-0.6-2.2c-0.4-0.4-1.1-0.7-2.1-0.7c-1.5,0-3,0.5-4.5,1.4l-0.8-1.9
		c0.7-0.5,1.6-0.9,2.6-1.2c1-0.3,2-0.4,2.9-0.4C606.6,215.8,607.9,216.3,608.7,217.2z M606.4,226.5c0.6-0.7,0.9-1.5,0.9-2.6v-0.7
		h-0.5c-1.4,0-2.5,0.1-3.2,0.2s-1.3,0.3-1.6,0.6s-0.5,0.7-0.5,1.3c0,0.6,0.2,1.2,0.7,1.6c0.5,0.4,1,0.6,1.8,0.6
		C605,227.5,605.8,227.2,606.4,226.5z"/>
	<path class="st1" d="M621.7,218.1l-1.6,0.2c-1.3,0.1-2.2,0.5-2.8,1.2c-0.6,0.7-0.9,1.5-0.9,2.5v7.3h-2.7v-13.2h2.6v2.3
		c0.7-1.5,2.1-2.4,4.3-2.6l0.9-0.1L621.7,218.1z"/>
	<path class="st1" d="M642,227.3l-0.1,2.1c-0.5,0.1-0.9,0.1-1.4,0.1c-1.7,0-3-0.4-3.8-1.3s-1.3-2-1.3-3.6v-6.4h-2.6v-2.1h2.6v-4h2.7
		v4h3.6v2.1h-3.6v6.3c0,1.9,0.9,2.9,2.7,2.9C641.2,227.4,641.6,227.4,642,227.3z"/>
	<path class="st1" d="M655.6,216.2v13.2H653v-2.1c-0.4,0.8-1,1.3-1.7,1.7c-0.7,0.4-1.5,0.6-2.4,0.6c-3.2,0-4.8-1.8-4.8-5.3v-8.1h2.7
		v8c0,1.1,0.2,1.8,0.6,2.3s1.1,0.8,2,0.8c1.1,0,1.9-0.3,2.6-1c0.6-0.7,1-1.6,1-2.7v-7.4H655.6z"/>
	<polygon class="st1" points="679.7,216.2 682.4,216.2 676.7,229.3 674.2,229.3 668.5,216.2 671.4,216.2 675.5,226.3 	"/>
	<path class="st1" d="M684.2,210.3h3.1v2.8h-3.1V210.3z M684.4,229.3v-13.2h2.7v13.2H684.4z"/>
	<path class="st1" d="M703,210.3v19h-2.7v-2.3c-0.4,0.8-1,1.4-1.7,1.8s-1.6,0.6-2.6,0.6c-1.1,0-2.1-0.3-3-0.9
		c-0.9-0.6-1.6-1.4-2.1-2.4c-0.5-1-0.7-2.2-0.7-3.6c0-1.4,0.2-2.6,0.7-3.6c0.5-1,1.2-1.8,2.1-2.4c0.9-0.6,1.9-0.8,3.1-0.8
		c1,0,1.9,0.2,2.6,0.6c0.7,0.4,1.3,1,1.7,1.8v-8H703z M699.4,226.1c0.6-0.8,1-2,1-3.5c0-1.5-0.3-2.6-1-3.5c-0.6-0.8-1.6-1.2-2.7-1.2
		c-1.2,0-2.1,0.4-2.8,1.2s-1,1.9-1,3.4s0.3,2.6,1,3.5s1.6,1.3,2.8,1.3C697.8,227.4,698.7,227,699.4,226.1z"/>
	<path class="st1" d="M716.3,217.2c0.9,0.9,1.3,2.2,1.3,4v8.2H715v-2.2c-0.3,0.8-0.9,1.4-1.5,1.8c-0.7,0.4-1.5,0.6-2.4,0.6
		c-0.9,0-1.7-0.2-2.4-0.5s-1.3-0.8-1.7-1.5c-0.4-0.6-0.6-1.3-0.6-2.1c0-1,0.2-1.7,0.7-2.3c0.5-0.5,1.3-0.9,2.5-1.2
		c1.1-0.2,2.7-0.4,4.7-0.4h0.6v-0.8c0-1-0.2-1.7-0.6-2.2c-0.4-0.4-1.1-0.7-2.1-0.7c-1.5,0-3,0.5-4.5,1.4l-0.8-1.9
		c0.7-0.5,1.6-0.9,2.6-1.2c1-0.3,2-0.4,2.9-0.4C714.1,215.8,715.4,216.3,716.3,217.2z M714,226.5c0.6-0.7,0.9-1.5,0.9-2.6v-0.7h-0.5
		c-1.4,0-2.5,0.1-3.2,0.2s-1.3,0.3-1.6,0.6s-0.5,0.7-0.5,1.3c0,0.6,0.2,1.2,0.7,1.6c0.5,0.4,1,0.6,1.8,0.6
		C712.5,227.5,713.3,227.2,714,226.5z"/>
	<path class="st1" d="M741.6,217.2c0.9,0.9,1.3,2.2,1.3,4v8.2h-2.6v-2.2c-0.3,0.8-0.9,1.4-1.5,1.8c-0.7,0.4-1.5,0.6-2.4,0.6
		c-0.9,0-1.7-0.2-2.4-0.5s-1.3-0.8-1.7-1.5c-0.4-0.6-0.6-1.3-0.6-2.1c0-1,0.2-1.7,0.7-2.3c0.5-0.5,1.3-0.9,2.5-1.2
		c1.1-0.2,2.7-0.4,4.7-0.4h0.6v-0.8c0-1-0.2-1.7-0.6-2.2c-0.4-0.4-1.1-0.7-2.1-0.7c-1.5,0-3,0.5-4.5,1.4l-0.8-1.9
		c0.7-0.5,1.6-0.9,2.6-1.2c1-0.3,2-0.4,2.9-0.4C739.5,215.8,740.8,216.3,741.6,217.2z M739.3,226.5c0.6-0.7,0.9-1.5,0.9-2.6v-0.7
		h-0.5c-1.4,0-2.5,0.1-3.2,0.2s-1.3,0.3-1.6,0.6s-0.5,0.7-0.5,1.3c0,0.6,0.2,1.2,0.7,1.6c0.5,0.4,1,0.6,1.8,0.6
		C737.9,227.5,738.7,227.2,739.3,226.5z"/>
	<path class="st1" d="M142.7,248.2h3.6v2.1h-3.6v11.1H140v-11.1h-2.6v-2.1h2.6v-0.2c0-1.8,0.5-3.2,1.4-4.1s2.3-1.4,4.3-1.5l1.2-0.1
		l0.2,2.1l-1.2,0.1c-1.1,0.1-1.9,0.3-2.3,0.8c-0.5,0.5-0.7,1.3-0.7,2.3V248.2z"/>
	<path class="st1" d="M150.5,260.7c-1-0.6-1.7-1.4-2.3-2.4c-0.5-1-0.8-2.2-0.8-3.6c0-1.4,0.3-2.6,0.8-3.6c0.5-1,1.3-1.8,2.3-2.4
		c1-0.6,2.1-0.8,3.4-0.8s2.4,0.3,3.4,0.8c1,0.6,1.7,1.4,2.3,2.4c0.5,1,0.8,2.2,0.8,3.6c0,1.4-0.3,2.6-0.8,3.6
		c-0.5,1-1.3,1.8-2.3,2.4c-1,0.6-2.1,0.8-3.4,0.8S151.5,261.3,150.5,260.7z M156.7,258.2c0.6-0.8,1-2,1-3.5c0-1.5-0.3-2.7-1-3.5
		c-0.6-0.8-1.6-1.2-2.8-1.2c-1.2,0-2.1,0.4-2.8,1.2c-0.6,0.8-1,2-1,3.5c0,1.5,0.3,2.7,1,3.5c0.6,0.8,1.6,1.2,2.8,1.2
		C155.2,259.4,156.1,259,156.7,258.2z"/>
	<path class="st1" d="M171.5,250.1l-1.6,0.2c-1.3,0.1-2.2,0.5-2.8,1.2c-0.6,0.7-0.9,1.5-0.9,2.5v7.3h-2.7v-13.2h2.6v2.3
		c0.7-1.5,2.1-2.4,4.3-2.6l0.9-0.1L171.5,250.1z"/>
	<path class="st1" d="M192.9,253.2v8.2h-2.7v-8.1c0-1.1-0.2-1.9-0.6-2.4c-0.4-0.5-1-0.8-1.9-0.8c-1,0-1.8,0.3-2.3,1
		c-0.6,0.7-0.9,1.6-0.9,2.8v7.5h-2.7v-8.1c0-1.1-0.2-1.9-0.6-2.4c-0.4-0.5-1-0.8-1.9-0.8c-1,0-1.8,0.3-2.4,1
		c-0.6,0.7-0.9,1.6-0.9,2.8v7.5h-2.7v-13.2h2.7v2c0.4-0.7,1-1.3,1.7-1.7c0.7-0.4,1.5-0.6,2.4-0.6c2,0,3.4,0.8,4,2.5
		c0.4-0.8,1-1.4,1.8-1.9c0.8-0.4,1.6-0.7,2.6-0.7C191.4,247.9,192.9,249.6,192.9,253.2z"/>
	<path class="st1" d="M206.1,249.2c0.9,0.9,1.3,2.2,1.3,4v8.2h-2.6v-2.2c-0.3,0.8-0.9,1.4-1.5,1.8c-0.7,0.4-1.5,0.6-2.4,0.6
		c-0.9,0-1.7-0.2-2.4-0.5s-1.3-0.8-1.7-1.5c-0.4-0.6-0.6-1.3-0.6-2.1c0-1,0.2-1.7,0.7-2.3c0.5-0.5,1.3-0.9,2.5-1.2
		c1.1-0.2,2.7-0.4,4.7-0.4h0.6v-0.8c0-1-0.2-1.7-0.6-2.2c-0.4-0.4-1.1-0.7-2.1-0.7c-1.5,0-3,0.5-4.5,1.4l-0.8-1.9
		c0.7-0.5,1.6-0.9,2.6-1.2c1-0.3,2-0.4,2.9-0.4C203.9,247.9,205.2,248.3,206.1,249.2z M203.7,258.5c0.6-0.7,0.9-1.5,0.9-2.6v-0.7
		h-0.5c-1.4,0-2.5,0.1-3.2,0.2s-1.3,0.3-1.6,0.6s-0.5,0.7-0.5,1.3c0,0.6,0.2,1.2,0.7,1.6c0.5,0.4,1,0.6,1.8,0.6
		C202.3,259.5,203.1,259.2,203.7,258.5z"/>
	<path class="st1" d="M219.1,250.1l-1.6,0.2c-1.3,0.1-2.2,0.5-2.8,1.2c-0.6,0.7-0.9,1.5-0.9,2.5v7.3h-2.7v-13.2h2.6v2.3
		c0.7-1.5,2.1-2.4,4.3-2.6l0.9-0.1L219.1,250.1z"/>
	<path class="st1" d="M223.3,258.1v2.2c0,0.8-0.1,1.6-0.4,2.3c-0.3,0.7-0.8,1.4-1.4,2l-1.2-0.9c0.8-0.8,1.2-1.6,1.3-2.4h-1.5v-3.2
		H223.3z"/>
	<path class="st1" d="M247.9,255.2h-9.3c0.2,2.8,1.6,4.2,4.2,4.2c1.5,0,2.9-0.5,4.1-1.5l0.8,1.9c-0.6,0.5-1.4,0.9-2.3,1.2
		c-0.9,0.3-1.8,0.5-2.8,0.5c-2.1,0-3.8-0.6-5-1.8c-1.2-1.2-1.8-2.9-1.8-5c0-1.3,0.3-2.5,0.8-3.6c0.5-1,1.3-1.9,2.2-2.4
		c1-0.6,2.1-0.9,3.3-0.9c1.8,0,3.2,0.6,4.2,1.7c1,1.2,1.5,2.7,1.5,4.8V255.2z M239.7,250.8c-0.6,0.7-1,1.6-1.1,2.8h6.9
		c-0.1-1.2-0.4-2.2-0.9-2.8c-0.6-0.7-1.4-1-2.4-1C241.1,249.8,240.3,250.2,239.7,250.8z"/>
	<path class="st1" d="M263,242.3v19h-2.7v-2.3c-0.4,0.8-1,1.4-1.7,1.8s-1.6,0.6-2.6,0.6c-1.1,0-2.1-0.3-3-0.9
		c-0.9-0.6-1.6-1.4-2.1-2.4c-0.5-1-0.7-2.2-0.7-3.6c0-1.4,0.2-2.6,0.7-3.6c0.5-1,1.2-1.8,2.1-2.4c0.9-0.6,1.9-0.8,3.1-0.8
		c1,0,1.9,0.2,2.6,0.6c0.7,0.4,1.3,1,1.7,1.8v-8H263z M259.3,258.2c0.6-0.8,1-2,1-3.5c0-1.5-0.3-2.6-1-3.5c-0.6-0.8-1.6-1.2-2.7-1.2
		c-1.2,0-2.1,0.4-2.8,1.2s-1,1.9-1,3.4s0.3,2.6,1,3.5s1.6,1.3,2.8,1.3C257.8,259.4,258.7,259,259.3,258.2z"/>
	<path class="st1" d="M278.4,248.2v13.2h-2.6v-2.1c-0.4,0.8-1,1.3-1.7,1.7c-0.7,0.4-1.5,0.6-2.4,0.6c-3.2,0-4.8-1.8-4.8-5.3v-8.1
		h2.7v8c0,1.1,0.2,1.8,0.6,2.3s1.1,0.8,2,0.8c1.1,0,1.9-0.3,2.6-1c0.6-0.7,1-1.6,1-2.7v-7.4H278.4z"/>
	<path class="st1" d="M284.5,260.7c-1-0.6-1.7-1.3-2.3-2.4c-0.5-1-0.8-2.2-0.8-3.6c0-1.4,0.3-2.6,0.8-3.6c0.5-1,1.3-1.9,2.3-2.4
		c1-0.6,2.2-0.9,3.5-0.9c0.9,0,1.8,0.2,2.7,0.5c0.9,0.3,1.6,0.7,2.1,1.2l-0.8,1.9c-1.2-1-2.4-1.5-3.7-1.5c-1.3,0-2.2,0.4-3,1.2
		c-0.7,0.8-1.1,2-1.1,3.5c0,1.5,0.4,2.6,1.1,3.4c0.7,0.8,1.7,1.2,3,1.2c1.3,0,2.5-0.5,3.7-1.5l0.8,2c-0.6,0.5-1.3,0.9-2.2,1.2
		c-0.9,0.3-1.8,0.4-2.7,0.4C286.6,261.5,285.5,261.3,284.5,260.7z"/>
	<path class="st1" d="M304.7,249.2c0.9,0.9,1.3,2.2,1.3,4v8.2h-2.6v-2.2c-0.3,0.8-0.9,1.4-1.5,1.8c-0.7,0.4-1.5,0.6-2.4,0.6
		c-0.9,0-1.7-0.2-2.4-0.5s-1.3-0.8-1.7-1.5c-0.4-0.6-0.6-1.3-0.6-2.1c0-1,0.2-1.7,0.7-2.3c0.5-0.5,1.3-0.9,2.5-1.2
		c1.1-0.2,2.7-0.4,4.7-0.4h0.6v-0.8c0-1-0.2-1.7-0.6-2.2c-0.4-0.4-1.1-0.7-2.1-0.7c-1.5,0-3,0.5-4.5,1.4l-0.8-1.9
		c0.7-0.5,1.6-0.9,2.6-1.2c1-0.3,2-0.4,2.9-0.4C302.5,247.9,303.8,248.3,304.7,249.2z M302.3,258.5c0.6-0.7,0.9-1.5,0.9-2.6v-0.7
		h-0.5c-1.4,0-2.5,0.1-3.2,0.2s-1.3,0.3-1.6,0.6s-0.5,0.7-0.5,1.3c0,0.6,0.2,1.2,0.7,1.6c0.5,0.4,1,0.6,1.8,0.6
		C300.9,259.5,301.7,259.2,302.3,258.5z"/>
	<path class="st1" d="M317.7,250.1l-1.6,0.2c-1.3,0.1-2.2,0.5-2.8,1.2c-0.6,0.7-0.9,1.5-0.9,2.5v7.3h-2.7v-13.2h2.6v2.3
		c0.7-1.5,2.1-2.4,4.3-2.6l0.9-0.1L317.7,250.1z"/>
	<polygon class="st1" points="338.7,248.2 341.4,248.2 333.5,266.2 330.8,266.2 333.1,261 327.6,248.2 330.4,248.2 334.5,258.3 	"/>
	<path class="st1" d="M362.6,249.2c0.9,0.9,1.3,2.2,1.3,4v8.2h-2.6v-2.2c-0.3,0.8-0.9,1.4-1.5,1.8c-0.7,0.4-1.5,0.6-2.4,0.6
		c-0.9,0-1.7-0.2-2.4-0.5s-1.3-0.8-1.7-1.5c-0.4-0.6-0.6-1.3-0.6-2.1c0-1,0.2-1.7,0.7-2.3c0.5-0.5,1.3-0.9,2.5-1.2
		c1.1-0.2,2.7-0.4,4.7-0.4h0.6v-0.8c0-1-0.2-1.7-0.6-2.2c-0.4-0.4-1.1-0.7-2.1-0.7c-1.5,0-3,0.5-4.5,1.4l-0.8-1.9
		c0.7-0.5,1.6-0.9,2.6-1.2c1-0.3,2-0.4,2.9-0.4C360.4,247.9,361.8,248.3,362.6,249.2z M360.3,258.5c0.6-0.7,0.9-1.5,0.9-2.6v-0.7
		h-0.5c-1.4,0-2.5,0.1-3.2,0.2s-1.3,0.3-1.6,0.6s-0.5,0.7-0.5,1.3c0,0.6,0.2,1.2,0.7,1.6c0.5,0.4,1,0.6,1.8,0.6
		C358.9,259.5,359.7,259.2,360.3,258.5z"/>
	<path class="st1" d="M369.9,260.7c-1-0.6-1.7-1.3-2.3-2.4c-0.5-1-0.8-2.2-0.8-3.6c0-1.4,0.3-2.6,0.8-3.6c0.5-1,1.3-1.9,2.3-2.4
		c1-0.6,2.2-0.9,3.5-0.9c0.9,0,1.8,0.2,2.7,0.5c0.9,0.3,1.6,0.7,2.1,1.2l-0.8,1.9c-1.2-1-2.4-1.5-3.7-1.5c-1.3,0-2.2,0.4-3,1.2
		c-0.7,0.8-1.1,2-1.1,3.5c0,1.5,0.4,2.6,1.1,3.4c0.7,0.8,1.7,1.2,3,1.2c1.3,0,2.5-0.5,3.7-1.5l0.8,2c-0.6,0.5-1.3,0.9-2.2,1.2
		c-0.9,0.3-1.8,0.4-2.7,0.4C372.1,261.5,370.9,261.3,369.9,260.7z"/>
	<path class="st1" d="M383,260.7c-1-0.6-1.7-1.4-2.3-2.4c-0.5-1-0.8-2.2-0.8-3.6c0-1.4,0.3-2.6,0.8-3.6c0.5-1,1.3-1.8,2.3-2.4
		c1-0.6,2.1-0.8,3.4-0.8s2.4,0.3,3.4,0.8c1,0.6,1.7,1.4,2.3,2.4c0.5,1,0.8,2.2,0.8,3.6c0,1.4-0.3,2.6-0.8,3.6
		c-0.5,1-1.3,1.8-2.3,2.4c-1,0.6-2.1,0.8-3.4,0.8S383.9,261.3,383,260.7z M389.2,258.2c0.6-0.8,1-2,1-3.5c0-1.5-0.3-2.7-1-3.5
		c-0.6-0.8-1.6-1.2-2.8-1.2c-1.2,0-2.1,0.4-2.8,1.2c-0.6,0.8-1,2-1,3.5c0,1.5,0.3,2.7,1,3.5c0.6,0.8,1.6,1.2,2.8,1.2
		C387.6,259.4,388.5,259,389.2,258.2z"/>
	<path class="st1" d="M415.4,253.2v8.2h-2.7v-8.1c0-1.1-0.2-1.9-0.6-2.4c-0.4-0.5-1-0.8-1.9-0.8c-1,0-1.8,0.3-2.3,1
		c-0.6,0.7-0.9,1.6-0.9,2.8v7.5h-2.7v-8.1c0-1.1-0.2-1.9-0.6-2.4c-0.4-0.5-1-0.8-1.9-0.8c-1,0-1.8,0.3-2.4,1
		c-0.6,0.7-0.9,1.6-0.9,2.8v7.5h-2.7v-13.2h2.7v2c0.4-0.7,1-1.3,1.7-1.7c0.7-0.4,1.5-0.6,2.4-0.6c2,0,3.4,0.8,4,2.5
		c0.4-0.8,1-1.4,1.8-1.9c0.8-0.4,1.6-0.7,2.6-0.7C414,247.9,415.4,249.6,415.4,253.2z"/>
	<path class="st1" d="M429.3,248.7c0.9,0.6,1.6,1.4,2.1,2.4c0.5,1,0.7,2.3,0.7,3.6c0,1.4-0.2,2.5-0.7,3.6c-0.5,1-1.2,1.8-2.1,2.4
		c-0.9,0.6-1.9,0.8-3.1,0.8c-1,0-1.9-0.2-2.6-0.6s-1.3-1-1.7-1.8v7.1h-2.7v-18h2.7v2.2c0.4-0.8,1-1.4,1.7-1.8s1.6-0.6,2.6-0.6
		C427.4,247.9,428.4,248.1,429.3,248.7z M428.3,258.2c0.6-0.8,1-1.9,1-3.4c0-1.5-0.3-2.7-1-3.5c-0.7-0.8-1.6-1.2-2.7-1.2
		c-1.2,0-2.1,0.4-2.7,1.2s-1,2-1,3.5c0,1.5,0.3,2.6,1,3.5s1.6,1.2,2.7,1.2C426.8,259.4,427.7,259,428.3,258.2z"/>
	<path class="st1" d="M444.6,249.2c0.9,0.9,1.3,2.2,1.3,4v8.2h-2.6v-2.2c-0.3,0.8-0.9,1.4-1.5,1.8c-0.7,0.4-1.5,0.6-2.4,0.6
		c-0.9,0-1.7-0.2-2.4-0.5s-1.3-0.8-1.7-1.5c-0.4-0.6-0.6-1.3-0.6-2.1c0-1,0.2-1.7,0.7-2.3c0.5-0.5,1.3-0.9,2.5-1.2
		c1.1-0.2,2.7-0.4,4.7-0.4h0.6v-0.8c0-1-0.2-1.7-0.6-2.2c-0.4-0.4-1.1-0.7-2.1-0.7c-1.5,0-3,0.5-4.5,1.4l-0.8-1.9
		c0.7-0.5,1.6-0.9,2.6-1.2c1-0.3,2-0.4,2.9-0.4C442.4,247.9,443.7,248.3,444.6,249.2z M442.2,258.5c0.6-0.7,0.9-1.5,0.9-2.6v-0.7
		h-0.5c-1.4,0-2.5,0.1-3.2,0.2s-1.3,0.3-1.6,0.6s-0.5,0.7-0.5,1.3c0,0.6,0.2,1.2,0.7,1.6c0.5,0.4,1,0.6,1.8,0.6
		C440.8,259.5,441.6,259.2,442.2,258.5z"/>
	<path class="st1" d="M461.4,253.2v8.2h-2.7v-8c0-1.1-0.2-1.9-0.7-2.5s-1.1-0.8-2.1-0.8c-1.1,0-2,0.3-2.6,1c-0.7,0.7-1,1.6-1,2.8
		v7.5h-2.7v-13.2h2.7v2.1c0.4-0.8,1-1.4,1.8-1.8c0.8-0.4,1.6-0.6,2.6-0.6C459.8,247.9,461.4,249.6,461.4,253.2z M451.7,242.8
		c0.5-0.6,1.1-0.9,1.9-0.9c0.4,0,0.7,0.1,1,0.2c0.3,0.1,0.7,0.4,1.2,0.6c0.4,0.2,0.7,0.4,0.9,0.5c0.2,0.1,0.4,0.1,0.6,0.1
		c0.4,0,0.6-0.1,0.9-0.4s0.3-0.6,0.4-1h1.4c0,1.1-0.2,1.9-0.7,2.5c-0.5,0.6-1.1,0.9-1.9,0.9c-0.4,0-0.7-0.1-1-0.2
		c-0.3-0.1-0.7-0.4-1.2-0.6c-0.3-0.2-0.6-0.4-0.9-0.5c-0.2-0.1-0.5-0.2-0.7-0.2c-0.4,0-0.6,0.1-0.9,0.4c-0.2,0.3-0.3,0.6-0.4,1H451
		C451,244.2,451.3,243.4,451.7,242.8z"/>
	<path class="st1" d="M474.6,249.2c0.9,0.9,1.3,2.2,1.3,4v8.2h-2.6v-2.2c-0.3,0.8-0.9,1.4-1.5,1.8c-0.7,0.4-1.5,0.6-2.4,0.6
		c-0.9,0-1.7-0.2-2.4-0.5s-1.3-0.8-1.7-1.5c-0.4-0.6-0.6-1.3-0.6-2.1c0-1,0.2-1.7,0.7-2.3c0.5-0.5,1.3-0.9,2.5-1.2
		c1.1-0.2,2.7-0.4,4.7-0.4h0.6v-0.8c0-1-0.2-1.7-0.6-2.2c-0.4-0.4-1.1-0.7-2.1-0.7c-1.5,0-3,0.5-4.5,1.4l-0.8-1.9
		c0.7-0.5,1.6-0.9,2.6-1.2c1-0.3,2-0.4,2.9-0.4C472.4,247.9,473.7,248.3,474.6,249.2z M472.2,258.5c0.6-0.7,0.9-1.5,0.9-2.6v-0.7
		h-0.5c-1.4,0-2.5,0.1-3.2,0.2s-1.3,0.3-1.6,0.6s-0.5,0.7-0.5,1.3c0,0.6,0.2,1.2,0.7,1.6c0.5,0.4,1,0.6,1.8,0.6
		C470.8,259.5,471.6,259.2,472.2,258.5z"/>
	<path class="st1" d="M487.6,250.1l-1.6,0.2c-1.3,0.1-2.2,0.5-2.8,1.2c-0.6,0.7-0.9,1.5-0.9,2.5v7.3h-2.7v-13.2h2.6v2.3
		c0.7-1.5,2.1-2.4,4.3-2.6l0.9-0.1L487.6,250.1z"/>
	<path class="st1" d="M511.4,242.3v19h-2.7v-2.3c-0.4,0.8-1,1.4-1.7,1.8s-1.6,0.6-2.6,0.6c-1.1,0-2.1-0.3-3-0.9
		c-0.9-0.6-1.6-1.4-2.1-2.4c-0.5-1-0.7-2.2-0.7-3.6c0-1.4,0.2-2.6,0.7-3.6c0.5-1,1.2-1.8,2.1-2.4c0.9-0.6,1.9-0.8,3.1-0.8
		c1,0,1.9,0.2,2.6,0.6c0.7,0.4,1.3,1,1.7,1.8v-8H511.4z M507.7,258.2c0.6-0.8,1-2,1-3.5c0-1.5-0.3-2.6-1-3.5
		c-0.6-0.8-1.6-1.2-2.7-1.2c-1.2,0-2.1,0.4-2.8,1.2s-1,1.9-1,3.4s0.3,2.6,1,3.5s1.6,1.3,2.8,1.3C506.2,259.4,507.1,259,507.7,258.2z
		"/>
	<path class="st1" d="M515.2,261.4v-13.2h2.7v13.2H515.2z M517.5,246.4h-1.8l2.7-5.5h2.9L517.5,246.4z"/>
	<path class="st1" d="M531.2,249.2c0.9,0.9,1.3,2.2,1.3,4v8.2h-2.6v-2.2c-0.3,0.8-0.9,1.4-1.5,1.8c-0.7,0.4-1.5,0.6-2.4,0.6
		c-0.9,0-1.7-0.2-2.4-0.5s-1.3-0.8-1.7-1.5c-0.4-0.6-0.6-1.3-0.6-2.1c0-1,0.2-1.7,0.7-2.3c0.5-0.5,1.3-0.9,2.5-1.2
		c1.1-0.2,2.7-0.4,4.7-0.4h0.6v-0.8c0-1-0.2-1.7-0.6-2.2c-0.4-0.4-1.1-0.7-2.1-0.7c-1.5,0-3,0.5-4.5,1.4l-0.8-1.9
		c0.7-0.5,1.6-0.9,2.6-1.2c1-0.3,2-0.4,2.9-0.4C529,247.9,530.3,248.3,531.2,249.2z M528.9,258.5c0.6-0.7,0.9-1.5,0.9-2.6v-0.7h-0.5
		c-1.4,0-2.5,0.1-3.2,0.2s-1.3,0.3-1.6,0.6s-0.5,0.7-0.5,1.3c0,0.6,0.2,1.2,0.7,1.6c0.5,0.4,1,0.6,1.8,0.6
		C527.4,259.5,528.2,259.2,528.9,258.5z"/>
	<path class="st1" d="M555.4,249.2c0.9,0.9,1.3,2.2,1.3,4v8.2h-2.6v-2.2c-0.3,0.8-0.9,1.4-1.5,1.8c-0.7,0.4-1.5,0.6-2.4,0.6
		c-0.9,0-1.7-0.2-2.4-0.5s-1.3-0.8-1.7-1.5c-0.4-0.6-0.6-1.3-0.6-2.1c0-1,0.2-1.7,0.7-2.3c0.5-0.5,1.3-0.9,2.5-1.2
		c1.1-0.2,2.7-0.4,4.7-0.4h0.6v-0.8c0-1-0.2-1.7-0.6-2.2c-0.4-0.4-1.1-0.7-2.1-0.7c-1.5,0-3,0.5-4.5,1.4l-0.8-1.9
		c0.7-0.5,1.6-0.9,2.6-1.2c1-0.3,2-0.4,2.9-0.4C553.2,247.9,554.6,248.3,555.4,249.2z M553.1,258.5c0.6-0.7,0.9-1.5,0.9-2.6v-0.7
		h-0.5c-1.4,0-2.5,0.1-3.2,0.2s-1.3,0.3-1.6,0.6s-0.5,0.7-0.5,1.3c0,0.6,0.2,1.2,0.7,1.6c0.5,0.4,1,0.6,1.8,0.6
		C551.7,259.5,552.5,259.2,553.1,258.5z"/>
	<path class="st1" d="M582.4,242.3v19h-2.7v-2.3c-0.4,0.8-1,1.4-1.7,1.8s-1.6,0.6-2.6,0.6c-1.1,0-2.1-0.3-3-0.9
		c-0.9-0.6-1.6-1.4-2.1-2.4c-0.5-1-0.7-2.2-0.7-3.6c0-1.4,0.2-2.6,0.7-3.6c0.5-1,1.2-1.8,2.1-2.4c0.9-0.6,1.9-0.8,3.1-0.8
		c1,0,1.9,0.2,2.6,0.6c0.7,0.4,1.3,1,1.7,1.8v-8H582.4z M578.7,258.2c0.6-0.8,1-2,1-3.5c0-1.5-0.3-2.6-1-3.5
		c-0.6-0.8-1.6-1.2-2.7-1.2c-1.2,0-2.1,0.4-2.8,1.2s-1,1.9-1,3.4s0.3,2.6,1,3.5s1.6,1.3,2.8,1.3C577.2,259.4,578.1,259,578.7,258.2z
		"/>
	<path class="st1" d="M586.2,261.4v-13.2h2.7v13.2H586.2z M588.4,246.4h-1.8l2.7-5.5h2.9L588.4,246.4z"/>
	<path class="st1" d="M602.1,249.2c0.9,0.9,1.3,2.2,1.3,4v8.2h-2.6v-2.2c-0.3,0.8-0.9,1.4-1.5,1.8c-0.7,0.4-1.5,0.6-2.4,0.6
		c-0.9,0-1.7-0.2-2.4-0.5s-1.3-0.8-1.7-1.5c-0.4-0.6-0.6-1.3-0.6-2.1c0-1,0.2-1.7,0.7-2.3c0.5-0.5,1.3-0.9,2.5-1.2
		c1.1-0.2,2.7-0.4,4.7-0.4h0.6v-0.8c0-1-0.2-1.7-0.6-2.2c-0.4-0.4-1.1-0.7-2.1-0.7c-1.5,0-3,0.5-4.5,1.4l-0.8-1.9
		c0.7-0.5,1.6-0.9,2.6-1.2c1-0.3,2-0.4,2.9-0.4C600,247.9,601.3,248.3,602.1,249.2z M599.8,258.5c0.6-0.7,0.9-1.5,0.9-2.6v-0.7h-0.5
		c-1.4,0-2.5,0.1-3.2,0.2s-1.3,0.3-1.6,0.6s-0.5,0.7-0.5,1.3c0,0.6,0.2,1.2,0.7,1.6c0.5,0.4,1,0.6,1.8,0.6
		C598.4,259.5,599.2,259.2,599.8,258.5z"/>
	<path class="st1" d="M626.4,249.2c0.9,0.9,1.3,2.2,1.3,4v8.2H625v-2.2c-0.3,0.8-0.9,1.4-1.5,1.8c-0.7,0.4-1.5,0.6-2.4,0.6
		c-0.9,0-1.7-0.2-2.4-0.5s-1.3-0.8-1.7-1.5c-0.4-0.6-0.6-1.3-0.6-2.1c0-1,0.2-1.7,0.7-2.3c0.5-0.5,1.3-0.9,2.5-1.2
		c1.1-0.2,2.7-0.4,4.7-0.4h0.6v-0.8c0-1-0.2-1.7-0.6-2.2c-0.4-0.4-1.1-0.7-2.1-0.7c-1.5,0-3,0.5-4.5,1.4l-0.8-1.9
		c0.7-0.5,1.6-0.9,2.6-1.2c1-0.3,2-0.4,2.9-0.4C624.2,247.9,625.5,248.3,626.4,249.2z M624.1,258.5c0.6-0.7,0.9-1.5,0.9-2.6v-0.7
		h-0.5c-1.4,0-2.5,0.1-3.2,0.2s-1.3,0.3-1.6,0.6s-0.5,0.7-0.5,1.3c0,0.6,0.2,1.2,0.7,1.6c0.5,0.4,1,0.6,1.8,0.6
		C622.6,259.5,623.4,259.2,624.1,258.5z"/>
	<path class="st1" d="M653,253.2v8.2h-2.7v-8c0-1.1-0.2-1.9-0.7-2.5s-1.1-0.8-2.1-0.8c-1.1,0-2,0.3-2.6,1c-0.7,0.7-1,1.6-1,2.8v7.5
		h-2.7v-13.2h2.7v2.1c0.4-0.8,1-1.4,1.8-1.8c0.8-0.4,1.6-0.6,2.6-0.6C651.4,247.9,653,249.6,653,253.2z"/>
	<path class="st1" d="M668.3,248.2v13.2h-2.6v-2.1c-0.4,0.8-1,1.3-1.7,1.7c-0.7,0.4-1.5,0.6-2.4,0.6c-3.2,0-4.8-1.8-4.8-5.3v-8.1
		h2.7v8c0,1.1,0.2,1.8,0.6,2.3s1.1,0.8,2,0.8c1.1,0,1.9-0.3,2.6-1c0.6-0.7,1-1.6,1-2.7v-7.4H668.3z"/>
	<path class="st1" d="M683.4,255.2h-9.3c0.2,2.8,1.6,4.2,4.2,4.2c1.5,0,2.9-0.5,4.1-1.5l0.8,1.9c-0.6,0.5-1.4,0.9-2.3,1.2
		c-0.9,0.3-1.8,0.5-2.8,0.5c-2.1,0-3.8-0.6-5-1.8c-1.2-1.2-1.8-2.9-1.8-5c0-1.3,0.3-2.5,0.8-3.6c0.5-1,1.3-1.9,2.2-2.4
		c1-0.6,2.1-0.9,3.3-0.9c1.8,0,3.2,0.6,4.2,1.7c1,1.2,1.5,2.7,1.5,4.8V255.2z M675.2,250.8c-0.6,0.7-1,1.6-1.1,2.8h6.9
		c-0.1-1.2-0.4-2.2-0.9-2.8c-0.6-0.7-1.4-1-2.4-1C676.7,249.8,675.8,250.2,675.2,250.8z"/>
	<path class="st1" d="M685.5,259.9l0.8-2c1.4,1,2.9,1.6,4.7,1.6c0.9,0,1.6-0.1,2-0.4s0.7-0.7,0.7-1.3c0-0.5-0.2-0.8-0.5-1.1
		c-0.3-0.3-0.9-0.5-1.6-0.7l-2.2-0.5c-1.2-0.3-2.1-0.7-2.6-1.3c-0.6-0.6-0.9-1.4-0.9-2.3c0-1.2,0.5-2.2,1.4-2.9
		c1-0.7,2.2-1.1,3.8-1.1c0.9,0,1.8,0.1,2.7,0.4c0.8,0.3,1.6,0.7,2.2,1.3l-0.8,1.9c-1.3-1-2.6-1.5-4-1.5c-0.8,0-1.5,0.2-2,0.5
		c-0.5,0.3-0.7,0.8-0.7,1.3c0,0.5,0.1,0.8,0.4,1.1c0.3,0.3,0.8,0.5,1.4,0.6l2.2,0.5c1.3,0.3,2.2,0.7,2.8,1.3
		c0.6,0.6,0.9,1.4,0.9,2.4c0,1.2-0.5,2.1-1.4,2.8c-1,0.7-2.3,1-3.9,1C688.7,261.5,686.9,261,685.5,259.9z"/>
	<path class="st1" d="M706.7,259.4l-0.1,2.1c-0.5,0.1-0.9,0.1-1.4,0.1c-1.7,0-3-0.4-3.8-1.3s-1.3-2-1.3-3.6v-6.4h-2.6v-2.1h2.6v-4
		h2.7v4h3.6v2.1h-3.6v6.3c0,1.9,0.9,2.9,2.7,2.9C705.9,259.4,706.3,259.4,706.7,259.4z"/>
	<path class="st1" d="M716.8,250.1l-1.6,0.2c-1.3,0.1-2.2,0.5-2.8,1.2c-0.6,0.7-0.9,1.5-0.9,2.5v7.3h-2.7v-13.2h2.6v2.3
		c0.7-1.5,2.1-2.4,4.3-2.6l0.9-0.1L716.8,250.1z"/>
	<path class="st1" d="M720.7,260.7c-1-0.6-1.7-1.4-2.3-2.4c-0.5-1-0.8-2.2-0.8-3.6c0-1.4,0.3-2.6,0.8-3.6c0.5-1,1.3-1.8,2.3-2.4
		c1-0.6,2.1-0.8,3.4-0.8s2.4,0.3,3.4,0.8c1,0.6,1.7,1.4,2.3,2.4c0.5,1,0.8,2.2,0.8,3.6c0,1.4-0.3,2.6-0.8,3.6
		c-0.5,1-1.3,1.8-2.3,2.4c-1,0.6-2.1,0.8-3.4,0.8S721.7,261.3,720.7,260.7z M726.9,258.2c0.6-0.8,1-2,1-3.5c0-1.5-0.3-2.7-1-3.5
		c-0.6-0.8-1.6-1.2-2.8-1.2c-1.2,0-2.1,0.4-2.8,1.2c-0.6,0.8-1,2-1,3.5c0,1.5,0.3,2.7,1,3.5c0.6,0.8,1.6,1.2,2.8,1.2
		C725.3,259.4,726.3,259,726.9,258.2z"/>
	<path class="st1" d="M732.8,259.9l0.8-2c1.4,1,2.9,1.6,4.7,1.6c0.9,0,1.6-0.1,2-0.4s0.7-0.7,0.7-1.3c0-0.5-0.2-0.8-0.5-1.1
		c-0.3-0.3-0.9-0.5-1.6-0.7l-2.2-0.5c-1.2-0.3-2.1-0.7-2.6-1.3c-0.6-0.6-0.9-1.4-0.9-2.3c0-1.2,0.5-2.2,1.4-2.9
		c1-0.7,2.2-1.1,3.8-1.1c0.9,0,1.8,0.1,2.7,0.4c0.8,0.3,1.6,0.7,2.2,1.3l-0.8,1.9c-1.3-1-2.6-1.5-4-1.5c-0.8,0-1.5,0.2-2,0.5
		c-0.5,0.3-0.7,0.8-0.7,1.3c0,0.5,0.1,0.8,0.4,1.1c0.3,0.3,0.8,0.5,1.4,0.6l2.2,0.5c1.3,0.3,2.2,0.7,2.8,1.3
		c0.6,0.6,0.9,1.4,0.9,2.4c0,1.2-0.5,2.1-1.4,2.8c-1,0.7-2.3,1-3.9,1C736,261.5,734.2,261,732.8,259.9z"/>
	<path class="st1" d="M150.4,287.2h-9.3c0.2,2.8,1.6,4.2,4.2,4.2c1.5,0,2.9-0.5,4.1-1.5l0.8,1.9c-0.6,0.5-1.4,0.9-2.3,1.2
		c-0.9,0.3-1.8,0.5-2.8,0.5c-2.1,0-3.8-0.6-5-1.8c-1.2-1.2-1.8-2.9-1.8-5c0-1.3,0.3-2.5,0.8-3.6c0.5-1,1.3-1.9,2.2-2.4
		c1-0.6,2.1-0.9,3.3-0.9c1.8,0,3.2,0.6,4.2,1.7c1,1.2,1.5,2.7,1.5,4.8V287.2z M142.3,282.9c-0.6,0.7-1,1.6-1.1,2.8h6.9
		c-0.1-1.2-0.4-2.2-0.9-2.8s-1.4-1-2.4-1C143.7,281.9,142.9,282.2,142.3,282.9z"/>
	<path class="st1" d="M152.6,291.9l0.8-2c1.4,1,2.9,1.6,4.7,1.6c0.9,0,1.6-0.1,2-0.4c0.5-0.3,0.7-0.7,0.7-1.3c0-0.5-0.2-0.8-0.5-1.1
		c-0.3-0.3-0.9-0.5-1.6-0.7l-2.2-0.5c-1.2-0.3-2.1-0.7-2.6-1.3c-0.6-0.6-0.9-1.4-0.9-2.3c0-1.2,0.5-2.2,1.4-2.9s2.2-1.1,3.8-1.1
		c0.9,0,1.8,0.1,2.7,0.4s1.6,0.7,2.2,1.3l-0.8,1.9c-1.3-1-2.6-1.5-4-1.5c-0.8,0-1.5,0.2-2,0.5c-0.5,0.3-0.7,0.8-0.7,1.3
		c0,0.5,0.1,0.8,0.4,1.1c0.3,0.3,0.8,0.5,1.4,0.6l2.2,0.5c1.3,0.3,2.2,0.7,2.8,1.3c0.6,0.6,0.9,1.4,0.9,2.4c0,1.2-0.5,2.1-1.4,2.8
		c-1,0.7-2.3,1-3.9,1C155.8,293.6,153.9,293,152.6,291.9z"/>
	<path class="st1" d="M173.7,291.4l-0.1,2.1c-0.5,0.1-0.9,0.1-1.4,0.1c-1.7,0-3-0.4-3.8-1.3s-1.3-2-1.3-3.6v-6.4h-2.6v-2.1h2.6v-4
		h2.7v4h3.6v2.1h-3.6v6.3c0,1.9,0.9,2.9,2.7,2.9C172.9,291.4,173.4,291.4,173.7,291.4z"/>
	<path class="st1" d="M187.4,280.2v13.2h-2.6v-2.1c-0.4,0.8-1,1.3-1.7,1.7c-0.7,0.4-1.5,0.6-2.4,0.6c-3.2,0-4.8-1.8-4.8-5.3v-8.1
		h2.7v8c0,1.1,0.2,1.8,0.6,2.3s1.1,0.8,2,0.8c1.1,0,1.9-0.3,2.6-1c0.6-0.7,1-1.6,1-2.7v-7.4H187.4z"/>
	<path class="st1" d="M203.3,274.3v19h-2.7v-2.3c-0.4,0.8-1,1.4-1.7,1.8s-1.6,0.6-2.6,0.6c-1.1,0-2.1-0.3-3-0.9
		c-0.9-0.6-1.6-1.4-2.1-2.4c-0.5-1-0.7-2.2-0.7-3.6c0-1.4,0.2-2.6,0.7-3.6c0.5-1,1.2-1.8,2.1-2.4c0.9-0.6,1.9-0.8,3.1-0.8
		c1,0,1.9,0.2,2.6,0.6s1.3,1,1.7,1.8v-8H203.3z M199.7,290.2c0.6-0.8,1-2,1-3.5s-0.3-2.6-1-3.5c-0.6-0.8-1.6-1.2-2.7-1.2
		c-1.2,0-2.1,0.4-2.8,1.2s-1,1.9-1,3.4c0,1.5,0.3,2.6,1,3.5s1.6,1.3,2.8,1.3C198.1,291.4,199,291,199.7,290.2z"/>
	<path class="st1" d="M207,274.3h3.1v2.8H207V274.3z M207.1,293.4v-13.2h2.7v13.2H207.1z"/>
	<path class="st1" d="M223.1,281.2c0.9,0.9,1.3,2.2,1.3,4v8.2h-2.6v-2.2c-0.3,0.8-0.9,1.4-1.5,1.8c-0.7,0.4-1.5,0.6-2.4,0.6
		c-0.9,0-1.7-0.2-2.4-0.5c-0.7-0.4-1.3-0.8-1.7-1.5c-0.4-0.6-0.6-1.3-0.6-2.1c0-1,0.2-1.7,0.7-2.3c0.5-0.5,1.3-0.9,2.5-1.2
		c1.1-0.2,2.7-0.4,4.7-0.4h0.6v-0.8c0-1-0.2-1.7-0.6-2.2c-0.4-0.4-1.1-0.7-2.1-0.7c-1.5,0-3,0.5-4.5,1.4l-0.8-1.9
		c0.7-0.5,1.6-0.9,2.6-1.2s2-0.4,2.9-0.4C221,279.9,222.3,280.3,223.1,281.2z M220.8,290.5c0.6-0.7,0.9-1.5,0.9-2.6v-0.7h-0.5
		c-1.4,0-2.5,0.1-3.2,0.2s-1.3,0.3-1.6,0.6c-0.3,0.3-0.5,0.7-0.5,1.3c0,0.6,0.2,1.2,0.7,1.6c0.5,0.4,1,0.6,1.8,0.6
		C219.4,291.5,220.2,291.2,220.8,290.5z"/>
	<path class="st1" d="M240,285.2v8.2h-2.7v-8c0-1.1-0.2-1.9-0.7-2.5c-0.4-0.5-1.1-0.8-2.1-0.8c-1.1,0-2,0.3-2.6,1
		c-0.7,0.7-1,1.6-1,2.8v7.5h-2.7v-13.2h2.7v2.1c0.4-0.8,1-1.4,1.8-1.8c0.8-0.4,1.6-0.6,2.6-0.6C238.4,279.9,240,281.6,240,285.2z"/>
	<path class="st1" d="M251.1,291.4l-0.1,2.1c-0.5,0.1-0.9,0.1-1.4,0.1c-1.7,0-3-0.4-3.8-1.3s-1.3-2-1.3-3.6v-6.4h-2.6v-2.1h2.6v-4
		h2.7v4h3.6v2.1h-3.6v6.3c0,1.9,0.9,2.9,2.7,2.9C250.3,291.4,250.7,291.4,251.1,291.4z"/>
	<path class="st1" d="M264.5,287.2h-9.3c0.2,2.8,1.6,4.2,4.2,4.2c1.5,0,2.9-0.5,4.1-1.5l0.8,1.9c-0.6,0.5-1.4,0.9-2.3,1.2
		c-0.9,0.3-1.8,0.5-2.8,0.5c-2.1,0-3.8-0.6-5-1.8c-1.2-1.2-1.8-2.9-1.8-5c0-1.3,0.3-2.5,0.8-3.6c0.5-1,1.3-1.9,2.2-2.4
		c1-0.6,2.1-0.9,3.3-0.9c1.8,0,3.2,0.6,4.2,1.7c1,1.2,1.5,2.7,1.5,4.8V287.2z M256.3,282.9c-0.6,0.7-1,1.6-1.1,2.8h6.9
		c-0.1-1.2-0.4-2.2-0.9-2.8s-1.4-1-2.4-1C257.8,281.9,256.9,282.2,256.3,282.9z"/>
	<path class="st1" d="M266.7,291.9l0.8-2c1.4,1,2.9,1.6,4.7,1.6c0.9,0,1.6-0.1,2-0.4c0.5-0.3,0.7-0.7,0.7-1.3c0-0.5-0.2-0.8-0.5-1.1
		c-0.3-0.3-0.9-0.5-1.6-0.7l-2.2-0.5c-1.2-0.3-2.1-0.7-2.6-1.3c-0.6-0.6-0.9-1.4-0.9-2.3c0-1.2,0.5-2.2,1.4-2.9s2.2-1.1,3.8-1.1
		c0.9,0,1.8,0.1,2.7,0.4s1.6,0.7,2.2,1.3l-0.8,1.9c-1.3-1-2.6-1.5-4-1.5c-0.8,0-1.5,0.2-2,0.5c-0.5,0.3-0.7,0.8-0.7,1.3
		c0,0.5,0.1,0.8,0.4,1.1c0.3,0.3,0.8,0.5,1.4,0.6l2.2,0.5c1.3,0.3,2.2,0.7,2.8,1.3c0.6,0.6,0.9,1.4,0.9,2.4c0,1.2-0.5,2.1-1.4,2.8
		c-1,0.7-2.3,1-3.9,1C269.8,293.6,268,293,266.7,291.9z"/>
	<rect x="280.1" y="290.2" class="st1" width="3.2" height="3.2"/>
	<path class="st1" d="M141.6,357c-1.2-0.4-2.3-1-3.2-1.8l1-2.1c0.9,0.8,1.9,1.3,2.9,1.6c1,0.3,2.1,0.5,3.4,0.5
		c1.4,0,2.5-0.3,3.3-0.8c0.8-0.5,1.2-1.3,1.2-2.3c0-0.8-0.4-1.4-1.1-1.8c-0.7-0.4-1.9-0.8-3.5-1.1c-1.5-0.3-2.8-0.7-3.7-1.1
		s-1.7-1-2.3-1.7c-0.5-0.7-0.8-1.6-0.8-2.7c0-1.1,0.3-2.1,0.9-2.9s1.4-1.5,2.5-2c1.1-0.5,2.3-0.7,3.8-0.7c1.3,0,2.6,0.2,3.8,0.6
		c1.2,0.4,2.1,1,2.9,1.7l-1,2.1c-0.9-0.7-1.8-1.3-2.7-1.6c-0.9-0.4-1.9-0.5-3-0.5c-1.4,0-2.4,0.3-3.2,0.9c-0.8,0.6-1.2,1.4-1.2,2.4
		c0,0.9,0.3,1.5,1,2c0.7,0.4,1.8,0.8,3.3,1.2c1.6,0.4,2.9,0.7,3.8,1.1s1.8,0.9,2.3,1.6c0.6,0.7,0.9,1.6,0.9,2.6
		c0,1.1-0.3,2.1-0.9,2.9c-0.6,0.8-1.4,1.5-2.5,1.9s-2.4,0.7-3.9,0.7C144.2,357.6,142.9,357.4,141.6,357z"/>
	<path class="st1" d="M165.5,345.2c0.9,0.9,1.3,2.2,1.3,4v8.2h-2.6v-2.2c-0.3,0.8-0.9,1.4-1.5,1.8c-0.7,0.4-1.5,0.6-2.4,0.6
		c-0.9,0-1.7-0.2-2.4-0.5c-0.7-0.4-1.3-0.8-1.7-1.5c-0.4-0.6-0.6-1.3-0.6-2.1c0-1,0.2-1.7,0.7-2.3c0.5-0.5,1.3-0.9,2.5-1.2
		c1.1-0.2,2.7-0.4,4.7-0.4h0.6v-0.8c0-1-0.2-1.7-0.6-2.2c-0.4-0.4-1.1-0.7-2.1-0.7c-1.5,0-3,0.5-4.5,1.4l-0.8-1.9
		c0.7-0.5,1.6-0.9,2.6-1.2s2-0.4,2.9-0.4C163.3,343.9,164.6,344.3,165.5,345.2z M163.2,354.5c0.6-0.7,0.9-1.5,0.9-2.6v-0.7h-0.5
		c-1.4,0-2.5,0.1-3.2,0.2s-1.3,0.3-1.6,0.6c-0.3,0.3-0.5,0.7-0.5,1.3c0,0.6,0.2,1.2,0.7,1.6c0.5,0.4,1,0.6,1.8,0.6
		C161.8,355.6,162.6,355.2,163.2,354.5z"/>
	<path class="st1" d="M180.6,344.7c0.9,0.6,1.6,1.3,2.1,2.4s0.7,2.2,0.7,3.6c0,1.4-0.2,2.5-0.7,3.6c-0.5,1-1.2,1.9-2.1,2.4
		c-0.9,0.6-1.9,0.9-3,0.9c-1,0-1.9-0.2-2.6-0.6s-1.3-1-1.7-1.8v2.3h-2.7v-19h2.7v8c0.4-0.8,1-1.4,1.7-1.8c0.8-0.4,1.6-0.6,2.6-0.6
		C178.7,343.9,179.7,344.2,180.6,344.7z M179.7,354.2c0.7-0.8,1-2,1-3.5c0-1.5-0.3-2.6-1-3.4c-0.6-0.8-1.6-1.2-2.8-1.2
		c-1.2,0-2.1,0.4-2.7,1.2c-0.6,0.8-1,2-1,3.5s0.3,2.6,1,3.5c0.6,0.8,1.6,1.2,2.7,1.2C178.1,355.4,179,355,179.7,354.2z"/>
	<path class="st1" d="M186.3,338.3h3.1v2.8h-3.1V338.3z M186.5,357.4v-13.2h2.7v13.2H186.5z"/>
	<path class="st1" d="M204.3,351.3H195c0.2,2.8,1.6,4.2,4.2,4.2c1.5,0,2.9-0.5,4.1-1.5l0.8,1.9c-0.6,0.5-1.4,0.9-2.3,1.2
		c-0.9,0.3-1.8,0.5-2.8,0.5c-2.1,0-3.8-0.6-5-1.8c-1.2-1.2-1.8-2.9-1.8-5c0-1.3,0.3-2.5,0.8-3.6c0.5-1,1.3-1.9,2.2-2.4
		c1-0.6,2.1-0.9,3.3-0.9c1.8,0,3.2,0.6,4.2,1.7c1,1.2,1.5,2.7,1.5,4.8V351.3z M196.1,346.9c-0.6,0.7-1,1.6-1.1,2.8h6.9
		c-0.1-1.2-0.4-2.2-0.9-2.8s-1.4-1-2.4-1C197.6,345.9,196.7,346.2,196.1,346.9z"/>
	<path class="st1" d="M219.1,349.2v8.2h-2.7v-8c0-1.1-0.2-1.9-0.7-2.5c-0.4-0.5-1.1-0.8-2.1-0.8c-1.1,0-2,0.3-2.6,1
		c-0.7,0.7-1,1.6-1,2.8v7.5h-2.7v-13.2h2.7v2.1c0.4-0.8,1-1.4,1.8-1.8c0.8-0.4,1.6-0.6,2.6-0.6C217.5,343.9,219.1,345.7,219.1,349.2
		z"/>
	<path class="st1" d="M235,338.4v19h-2.7v-2.3c-0.4,0.8-1,1.4-1.7,1.8s-1.6,0.6-2.6,0.6c-1.1,0-2.1-0.3-3-0.9
		c-0.9-0.6-1.6-1.4-2.1-2.4c-0.5-1-0.7-2.2-0.7-3.6c0-1.4,0.2-2.6,0.7-3.6c0.5-1,1.2-1.8,2.1-2.4c0.9-0.6,1.9-0.8,3.1-0.8
		c1,0,1.9,0.2,2.6,0.6s1.3,1,1.7,1.8v-8H235z M231.3,354.2c0.6-0.8,1-2,1-3.5s-0.3-2.6-1-3.5c-0.6-0.8-1.6-1.2-2.7-1.2
		c-1.2,0-2.1,0.4-2.8,1.2s-1,1.9-1,3.4c0,1.5,0.3,2.6,1,3.5s1.6,1.3,2.8,1.3C229.8,355.4,230.7,355,231.3,354.2z"/>
	<path class="st1" d="M241.1,356.7c-1-0.6-1.7-1.4-2.3-2.4c-0.5-1-0.8-2.2-0.8-3.6c0-1.4,0.3-2.6,0.8-3.6c0.5-1,1.3-1.8,2.3-2.4
		c1-0.6,2.1-0.8,3.4-0.8s2.4,0.3,3.4,0.8c1,0.6,1.7,1.4,2.3,2.4c0.5,1,0.8,2.2,0.8,3.6c0,1.4-0.3,2.6-0.8,3.6
		c-0.5,1-1.3,1.8-2.3,2.4c-1,0.6-2.1,0.8-3.4,0.8S242.1,357.3,241.1,356.7z M247.3,354.2c0.6-0.8,1-2,1-3.5c0-1.5-0.3-2.7-1-3.5
		c-0.6-0.8-1.6-1.2-2.8-1.2c-1.2,0-2.1,0.4-2.8,1.2c-0.6,0.8-1,2-1,3.5c0,1.5,0.3,2.7,1,3.5c0.6,0.8,1.6,1.2,2.8,1.2
		C245.7,355.4,246.6,355,247.3,354.2z"/>
	<rect x="264.3" y="338.4" class="st1" width="2.7" height="19"/>
	<path class="st1" d="M273.2,356.7c-1-0.6-1.7-1.4-2.3-2.4c-0.5-1-0.8-2.2-0.8-3.6c0-1.4,0.3-2.6,0.8-3.6c0.5-1,1.3-1.8,2.3-2.4
		c1-0.6,2.1-0.8,3.4-0.8s2.4,0.3,3.4,0.8c1,0.6,1.7,1.4,2.3,2.4c0.5,1,0.8,2.2,0.8,3.6c0,1.4-0.3,2.6-0.8,3.6
		c-0.5,1-1.3,1.8-2.3,2.4c-1,0.6-2.1,0.8-3.4,0.8S274.2,357.3,273.2,356.7z M279.4,354.2c0.6-0.8,1-2,1-3.5c0-1.5-0.3-2.7-1-3.5
		c-0.6-0.8-1.6-1.2-2.8-1.2c-1.2,0-2.1,0.4-2.8,1.2c-0.6,0.8-1,2-1,3.5c0,1.5,0.3,2.7,1,3.5c0.6,0.8,1.6,1.2,2.8,1.2
		C277.8,355.4,278.7,355,279.4,354.2z"/>
	<path class="st1" d="M300,344.2h3.6v2.1H300v11.1h-2.7v-11.1h-2.6v-2.1h2.6V344c0-1.8,0.5-3.2,1.4-4.1s2.3-1.4,4.3-1.5l1.2-0.1
		l0.2,2.1l-1.2,0.1c-1.1,0.1-1.9,0.3-2.3,0.8c-0.5,0.5-0.7,1.3-0.7,2.3V344.2z"/>
	<path class="st1" d="M317.2,344.2v13.2h-2.6v-2.1c-0.4,0.8-1,1.3-1.7,1.7c-0.7,0.4-1.5,0.6-2.4,0.6c-3.2,0-4.8-1.8-4.8-5.3v-8.1
		h2.7v8c0,1.1,0.2,1.8,0.6,2.3s1.1,0.8,2,0.8c1.1,0,1.9-0.3,2.6-1c0.6-0.7,1-1.6,1-2.7v-7.4H317.2z"/>
	<path class="st1" d="M332.8,349.2v8.2h-2.7v-8c0-1.1-0.2-1.9-0.7-2.5c-0.4-0.5-1.1-0.8-2.1-0.8c-1.1,0-2,0.3-2.6,1
		c-0.7,0.7-1,1.6-1,2.8v7.5H321v-13.2h2.7v2.1c0.4-0.8,1-1.4,1.8-1.8c0.8-0.4,1.6-0.6,2.6-0.6C331.3,343.9,332.8,345.7,332.8,349.2z
		"/>
	<path class="st1" d="M348.7,338.4v19H346v-2.3c-0.4,0.8-1,1.4-1.7,1.8s-1.6,0.6-2.6,0.6c-1.1,0-2.1-0.3-3-0.9
		c-0.9-0.6-1.6-1.4-2.1-2.4c-0.5-1-0.7-2.2-0.7-3.6c0-1.4,0.2-2.6,0.7-3.6c0.5-1,1.2-1.8,2.1-2.4c0.9-0.6,1.9-0.8,3.1-0.8
		c1,0,1.9,0.2,2.6,0.6s1.3,1,1.7,1.8v-8H348.7z M345.1,354.2c0.6-0.8,1-2,1-3.5s-0.3-2.6-1-3.5c-0.6-0.8-1.6-1.2-2.7-1.2
		c-1.2,0-2.1,0.4-2.8,1.2s-1,1.9-1,3.4c0,1.5,0.3,2.6,1,3.5s1.6,1.3,2.8,1.3C343.5,355.4,344.4,355,345.1,354.2z"/>
	<path class="st1" d="M362,345.2c0.9,0.9,1.3,2.2,1.3,4v8.2h-2.6v-2.2c-0.3,0.8-0.9,1.4-1.5,1.8c-0.7,0.4-1.5,0.6-2.4,0.6
		c-0.9,0-1.7-0.2-2.4-0.5c-0.7-0.4-1.3-0.8-1.7-1.5c-0.4-0.6-0.6-1.3-0.6-2.1c0-1,0.2-1.7,0.7-2.3c0.5-0.5,1.3-0.9,2.5-1.2
		c1.1-0.2,2.7-0.4,4.7-0.4h0.6v-0.8c0-1-0.2-1.7-0.6-2.2c-0.4-0.4-1.1-0.7-2.1-0.7c-1.5,0-3,0.5-4.5,1.4l-0.8-1.9
		c0.7-0.5,1.6-0.9,2.6-1.2s2-0.4,2.9-0.4C359.8,343.9,361.1,344.3,362,345.2z M359.6,354.5c0.6-0.7,0.9-1.5,0.9-2.6v-0.7h-0.5
		c-1.4,0-2.5,0.1-3.2,0.2s-1.3,0.3-1.6,0.6c-0.3,0.3-0.5,0.7-0.5,1.3c0,0.6,0.2,1.2,0.7,1.6c0.5,0.4,1,0.6,1.8,0.6
		C358.2,355.6,359,355.2,359.6,354.5z"/>
	<path class="st1" d="M386.5,349.2v8.2h-2.7v-8.1c0-1.1-0.2-1.9-0.6-2.4c-0.4-0.5-1-0.8-1.9-0.8c-1,0-1.8,0.3-2.3,1
		c-0.6,0.7-0.9,1.6-0.9,2.8v7.5h-2.7v-8.1c0-1.1-0.2-1.9-0.6-2.4s-1-0.8-1.9-0.8c-1,0-1.8,0.3-2.4,1c-0.6,0.7-0.9,1.6-0.9,2.8v7.5
		H367v-13.2h2.7v2c0.4-0.7,1-1.3,1.7-1.7s1.5-0.6,2.4-0.6c2,0,3.4,0.8,4,2.5c0.4-0.8,1-1.4,1.8-1.9c0.8-0.4,1.6-0.7,2.6-0.7
		C385,343.9,386.5,345.7,386.5,349.2z"/>
	<path class="st1" d="M401.5,351.3h-9.3c0.2,2.8,1.6,4.2,4.2,4.2c1.5,0,2.9-0.5,4.1-1.5l0.8,1.9c-0.6,0.5-1.4,0.9-2.3,1.2
		c-0.9,0.3-1.8,0.5-2.8,0.5c-2.1,0-3.8-0.6-5-1.8c-1.2-1.2-1.8-2.9-1.8-5c0-1.3,0.3-2.5,0.8-3.6c0.5-1,1.3-1.9,2.2-2.4
		c1-0.6,2.1-0.9,3.3-0.9c1.8,0,3.2,0.6,4.2,1.7c1,1.2,1.5,2.7,1.5,4.8V351.3z M393.4,346.9c-0.6,0.7-1,1.6-1.1,2.8h6.9
		c-0.1-1.2-0.4-2.2-0.9-2.8s-1.4-1-2.4-1C394.8,345.9,394,346.2,393.4,346.9z"/>
	<path class="st1" d="M416.3,349.2v8.2h-2.7v-8c0-1.1-0.2-1.9-0.7-2.5c-0.4-0.5-1.1-0.8-2.1-0.8c-1.1,0-2,0.3-2.6,1
		c-0.7,0.7-1,1.6-1,2.8v7.5h-2.7v-13.2h2.7v2.1c0.4-0.8,1-1.4,1.8-1.8c0.8-0.4,1.6-0.6,2.6-0.6C414.8,343.9,416.3,345.7,416.3,349.2
		z"/>
	<path class="st1" d="M427.5,355.4l-0.1,2.1c-0.5,0.1-0.9,0.1-1.4,0.1c-1.7,0-3-0.4-3.8-1.3s-1.3-2-1.3-3.6v-6.4h-2.6v-2.1h2.6v-4
		h2.7v4h3.6v2.1h-3.6v6.3c0,1.9,0.9,2.9,2.7,2.9C426.7,355.5,427.1,355.5,427.5,355.4z"/>
	<path class="st1" d="M439,345.2c0.9,0.9,1.3,2.2,1.3,4v8.2h-2.6v-2.2c-0.3,0.8-0.9,1.4-1.5,1.8c-0.7,0.4-1.5,0.6-2.4,0.6
		c-0.9,0-1.7-0.2-2.4-0.5c-0.7-0.4-1.3-0.8-1.7-1.5c-0.4-0.6-0.6-1.3-0.6-2.1c0-1,0.2-1.7,0.7-2.3c0.5-0.5,1.3-0.9,2.5-1.2
		c1.1-0.2,2.7-0.4,4.7-0.4h0.6v-0.8c0-1-0.2-1.7-0.6-2.2c-0.4-0.4-1.1-0.7-2.1-0.7c-1.5,0-3,0.5-4.5,1.4l-0.8-1.9
		c0.7-0.5,1.6-0.9,2.6-1.2s2-0.4,2.9-0.4C436.9,343.9,438.2,344.3,439,345.2z M436.7,354.5c0.6-0.7,0.9-1.5,0.9-2.6v-0.7h-0.5
		c-1.4,0-2.5,0.1-3.2,0.2s-1.3,0.3-1.6,0.6c-0.3,0.3-0.5,0.7-0.5,1.3c0,0.6,0.2,1.2,0.7,1.6c0.5,0.4,1,0.6,1.8,0.6
		C435.3,355.6,436.1,355.2,436.7,354.5z"/>
	<rect x="444" y="338.4" class="st1" width="2.7" height="19"/>
	<path class="st1" d="M472.2,351.3h-9.3c0.2,2.8,1.6,4.2,4.2,4.2c1.5,0,2.9-0.5,4.1-1.5l0.8,1.9c-0.6,0.5-1.4,0.9-2.3,1.2
		c-0.9,0.3-1.8,0.5-2.8,0.5c-2.1,0-3.8-0.6-5-1.8c-1.2-1.2-1.8-2.9-1.8-5c0-1.3,0.3-2.5,0.8-3.6c0.5-1,1.3-1.9,2.2-2.4
		c1-0.6,2.1-0.9,3.3-0.9c1.8,0,3.2,0.6,4.2,1.7c1,1.2,1.5,2.7,1.5,4.8V351.3z M464,346.9c-0.6,0.7-1,1.6-1.1,2.8h6.9
		c-0.1-1.2-0.4-2.2-0.9-2.8s-1.4-1-2.4-1C465.5,345.9,464.6,346.2,464,346.9z"/>
	<path class="st1" d="M485.3,338.3h3.1v2.8h-3.1V338.3z M485.5,357.4v-13.2h2.7v13.2H485.5z"/>
	<path class="st1" d="M503.9,349.2v8.2h-2.7v-8c0-1.1-0.2-1.9-0.7-2.5c-0.4-0.5-1.1-0.8-2.1-0.8c-1.1,0-2,0.3-2.6,1
		c-0.7,0.7-1,1.6-1,2.8v7.5H492v-13.2h2.7v2.1c0.4-0.8,1-1.4,1.8-1.8c0.8-0.4,1.6-0.6,2.6-0.6C502.3,343.9,503.9,345.7,503.9,349.2z
		"/>
	<path class="st1" d="M519.7,338.4v19H517v-2.3c-0.4,0.8-1,1.4-1.7,1.8s-1.6,0.6-2.6,0.6c-1.1,0-2.1-0.3-3-0.9
		c-0.9-0.6-1.6-1.4-2.1-2.4c-0.5-1-0.7-2.2-0.7-3.6c0-1.4,0.2-2.6,0.7-3.6c0.5-1,1.2-1.8,2.1-2.4c0.9-0.6,1.9-0.8,3.1-0.8
		c1,0,1.9,0.2,2.6,0.6s1.3,1,1.7,1.8v-8H519.7z M516.1,354.2c0.6-0.8,1-2,1-3.5s-0.3-2.6-1-3.5c-0.6-0.8-1.6-1.2-2.7-1.2
		c-1.2,0-2.1,0.4-2.8,1.2s-1,1.9-1,3.4c0,1.5,0.3,2.6,1,3.5s1.6,1.3,2.8,1.3C514.5,355.4,515.4,355,516.1,354.2z"/>
	<path class="st1" d="M523.4,338.3h3.1v2.8h-3.1V338.3z M523.5,357.4v-13.2h2.7v13.2H523.5z"/>
	<path class="st1" d="M529.2,355.9l0.8-2c1.4,1,2.9,1.6,4.7,1.6c0.9,0,1.6-0.1,2-0.4c0.5-0.3,0.7-0.7,0.7-1.3c0-0.5-0.2-0.8-0.5-1.1
		c-0.3-0.3-0.9-0.5-1.6-0.7l-2.2-0.5c-1.2-0.3-2.1-0.7-2.6-1.3c-0.6-0.6-0.9-1.4-0.9-2.3c0-1.2,0.5-2.2,1.4-2.9s2.2-1.1,3.8-1.1
		c0.9,0,1.8,0.1,2.7,0.4s1.6,0.7,2.2,1.3l-0.8,1.9c-1.3-1-2.6-1.5-4-1.5c-0.8,0-1.5,0.2-2,0.5c-0.5,0.3-0.7,0.8-0.7,1.3
		c0,0.5,0.1,0.8,0.4,1.1c0.3,0.3,0.8,0.5,1.4,0.6l2.2,0.5c1.3,0.3,2.2,0.7,2.8,1.3c0.6,0.6,0.9,1.4,0.9,2.4c0,1.2-0.5,2.1-1.4,2.8
		c-1,0.7-2.3,1-3.9,1C532.4,357.6,530.6,357,529.2,355.9z"/>
	<path class="st1" d="M553.2,344.8c0.9,0.6,1.6,1.4,2.1,2.4s0.7,2.3,0.7,3.6c0,1.3-0.2,2.5-0.7,3.6c-0.5,1-1.2,1.8-2.1,2.4
		c-0.9,0.6-1.9,0.8-3.1,0.8c-1,0-1.9-0.2-2.6-0.6s-1.3-1-1.7-1.8v7.1h-2.7v-18h2.7v2.2c0.4-0.8,1-1.4,1.7-1.8
		c0.8-0.4,1.6-0.6,2.6-0.6C551.3,343.9,552.3,344.2,553.2,344.8z M552.3,354.2c0.6-0.8,1-1.9,1-3.4c0-1.5-0.3-2.7-1-3.5
		c-0.7-0.8-1.6-1.2-2.7-1.2c-1.2,0-2.1,0.4-2.7,1.2c-0.6,0.8-1,2-1,3.5s0.3,2.6,1,3.5c0.6,0.8,1.6,1.2,2.7,1.2
		C550.7,355.4,551.6,355,552.3,354.2z"/>
	<path class="st1" d="M570.3,351.3H561c0.2,2.8,1.6,4.2,4.2,4.2c1.5,0,2.9-0.5,4.1-1.5l0.8,1.9c-0.6,0.5-1.4,0.9-2.3,1.2
		c-0.9,0.3-1.8,0.5-2.8,0.5c-2.1,0-3.8-0.6-5-1.8c-1.2-1.2-1.8-2.9-1.8-5c0-1.3,0.3-2.5,0.8-3.6c0.5-1,1.3-1.9,2.2-2.4
		c1-0.6,2.1-0.9,3.3-0.9c1.8,0,3.2,0.6,4.2,1.7c1,1.2,1.5,2.7,1.5,4.8V351.3z M562.2,346.9c-0.6,0.7-1,1.6-1.1,2.8h6.9
		c-0.1-1.2-0.4-2.2-0.9-2.8s-1.4-1-2.4-1C563.6,345.9,562.8,346.2,562.2,346.9z"/>
	<path class="st1" d="M585.2,349.2v8.2h-2.7v-8c0-1.1-0.2-1.9-0.7-2.5c-0.4-0.5-1.1-0.8-2.1-0.8c-1.1,0-2,0.3-2.6,1
		c-0.7,0.7-1,1.6-1,2.8v7.5h-2.7v-13.2h2.7v2.1c0.4-0.8,1-1.4,1.8-1.8c0.8-0.4,1.6-0.6,2.6-0.6C583.6,343.9,585.2,345.7,585.2,349.2
		z"/>
	<path class="st1" d="M588,355.9l0.8-2c1.4,1,2.9,1.6,4.7,1.6c0.9,0,1.6-0.1,2-0.4c0.5-0.3,0.7-0.7,0.7-1.3c0-0.5-0.2-0.8-0.5-1.1
		c-0.3-0.3-0.9-0.5-1.6-0.7l-2.2-0.5c-1.2-0.3-2.1-0.7-2.6-1.3c-0.6-0.6-0.9-1.4-0.9-2.3c0-1.2,0.5-2.2,1.4-2.9s2.2-1.1,3.8-1.1
		c0.9,0,1.8,0.1,2.7,0.4s1.6,0.7,2.2,1.3l-0.8,1.9c-1.3-1-2.6-1.5-4-1.5c-0.8,0-1.5,0.2-2,0.5c-0.5,0.3-0.7,0.8-0.7,1.3
		c0,0.5,0.1,0.8,0.4,1.1c0.3,0.3,0.8,0.5,1.4,0.6l2.2,0.5c1.3,0.3,2.2,0.7,2.8,1.3c0.6,0.6,0.9,1.4,0.9,2.4c0,1.2-0.5,2.1-1.4,2.8
		c-1,0.7-2.3,1-3.9,1C591.2,357.6,589.4,357,588,355.9z"/>
	<path class="st1" d="M611.3,345.2c0.9,0.9,1.3,2.2,1.3,4v8.2H610v-2.2c-0.3,0.8-0.9,1.4-1.5,1.8c-0.7,0.4-1.5,0.6-2.4,0.6
		c-0.9,0-1.7-0.2-2.4-0.5c-0.7-0.4-1.3-0.8-1.7-1.5c-0.4-0.6-0.6-1.3-0.6-2.1c0-1,0.2-1.7,0.7-2.3c0.5-0.5,1.3-0.9,2.5-1.2
		c1.1-0.2,2.7-0.4,4.7-0.4h0.6v-0.8c0-1-0.2-1.7-0.6-2.2c-0.4-0.4-1.1-0.7-2.1-0.7c-1.5,0-3,0.5-4.5,1.4l-0.8-1.9
		c0.7-0.5,1.6-0.9,2.6-1.2s2-0.4,2.9-0.4C609.2,343.9,610.5,344.3,611.3,345.2z M609,354.5c0.6-0.7,0.9-1.5,0.9-2.6v-0.7h-0.5
		c-1.4,0-2.5,0.1-3.2,0.2s-1.3,0.3-1.6,0.6c-0.3,0.3-0.5,0.7-0.5,1.3c0,0.6,0.2,1.2,0.7,1.6c0.5,0.4,1,0.6,1.8,0.6
		C607.6,355.6,608.4,355.2,609,354.5z"/>
	<path class="st1" d="M626.5,344.7c0.9,0.6,1.6,1.3,2.1,2.4s0.7,2.2,0.7,3.6c0,1.4-0.2,2.5-0.7,3.6c-0.5,1-1.2,1.9-2.1,2.4
		c-0.9,0.6-1.9,0.9-3,0.9c-1,0-1.9-0.2-2.6-0.6s-1.3-1-1.7-1.8v2.3h-2.7v-19h2.7v8c0.4-0.8,1-1.4,1.7-1.8c0.8-0.4,1.6-0.6,2.6-0.6
		C624.6,343.9,625.6,344.2,626.5,344.7z M625.5,354.2c0.7-0.8,1-2,1-3.5c0-1.5-0.3-2.6-1-3.4c-0.6-0.8-1.6-1.2-2.8-1.2
		c-1.2,0-2.1,0.4-2.7,1.2c-0.6,0.8-1,2-1,3.5s0.3,2.6,1,3.5c0.6,0.8,1.6,1.2,2.7,1.2C623.9,355.4,624.9,355,625.5,354.2z"/>
	<rect x="632.3" y="338.4" class="st1" width="2.7" height="19"/>
	<path class="st1" d="M650.1,351.3h-9.3c0.2,2.8,1.6,4.2,4.2,4.2c1.5,0,2.9-0.5,4.1-1.5l0.8,1.9c-0.6,0.5-1.4,0.9-2.3,1.2
		c-0.9,0.3-1.8,0.5-2.8,0.5c-2.1,0-3.8-0.6-5-1.8c-1.2-1.2-1.8-2.9-1.8-5c0-1.3,0.3-2.5,0.8-3.6c0.5-1,1.3-1.9,2.2-2.4
		c1-0.6,2.1-0.9,3.3-0.9c1.8,0,3.2,0.6,4.2,1.7c1,1.2,1.5,2.7,1.5,4.8V351.3z M642,346.9c-0.6,0.7-1,1.6-1.1,2.8h6.9
		c-0.1-1.2-0.4-2.2-0.9-2.8s-1.4-1-2.4-1C643.4,345.9,642.6,346.2,642,346.9z"/>
	<path class="st1" d="M675.6,344.2v18h-2.7v-7.1c-0.4,0.8-1,1.4-1.7,1.8s-1.6,0.6-2.6,0.6c-1.2,0-2.2-0.3-3.1-0.8
		c-0.9-0.6-1.6-1.3-2.1-2.4c-0.5-1-0.7-2.2-0.7-3.6c0-1.4,0.2-2.6,0.7-3.6c0.5-1,1.2-1.9,2.1-2.4c0.9-0.6,1.9-0.9,3-0.9
		c1,0,1.9,0.2,2.6,0.6c0.8,0.4,1.3,1,1.7,1.8v-2.2H675.6z M671.9,354.2c0.6-0.8,1-2,1-3.5s-0.3-2.6-1-3.5c-0.6-0.8-1.6-1.2-2.7-1.2
		c-1.2,0-2.1,0.4-2.8,1.3s-1,2-1,3.5s0.3,2.6,1,3.4c0.7,0.8,1.6,1.2,2.8,1.2C670.4,355.4,671.3,355,671.9,354.2z"/>
	<path class="st1" d="M690.9,344.2v13.2h-2.6v-2.1c-0.4,0.8-1,1.3-1.7,1.7c-0.7,0.4-1.5,0.6-2.4,0.6c-3.2,0-4.8-1.8-4.8-5.3v-8.1
		h2.7v8c0,1.1,0.2,1.8,0.6,2.3s1.1,0.8,2,0.8c1.1,0,1.9-0.3,2.6-1c0.6-0.7,1-1.6,1-2.7v-7.4H690.9z"/>
	<path class="st1" d="M706,351.3h-9.3c0.2,2.8,1.6,4.2,4.2,4.2c1.5,0,2.9-0.5,4.1-1.5l0.8,1.9c-0.6,0.5-1.4,0.9-2.3,1.2
		c-0.9,0.3-1.8,0.5-2.8,0.5c-2.1,0-3.8-0.6-5-1.8c-1.2-1.2-1.8-2.9-1.8-5c0-1.3,0.3-2.5,0.8-3.6c0.5-1,1.3-1.9,2.2-2.4
		c1-0.6,2.1-0.9,3.3-0.9c1.8,0,3.2,0.6,4.2,1.7c1,1.2,1.5,2.7,1.5,4.8V351.3z M697.9,346.9c-0.6,0.7-1,1.6-1.1,2.8h6.9
		c-0.1-1.2-0.4-2.2-0.9-2.8s-1.4-1-2.4-1C699.3,345.9,698.5,346.2,697.9,346.9z"/>
	<path class="st1" d="M730.6,351.3h-9.3c0.2,2.8,1.6,4.2,4.2,4.2c1.5,0,2.9-0.5,4.1-1.5l0.8,1.9c-0.6,0.5-1.4,0.9-2.3,1.2
		c-0.9,0.3-1.8,0.5-2.8,0.5c-2.1,0-3.8-0.6-5-1.8c-1.2-1.2-1.8-2.9-1.8-5c0-1.3,0.3-2.5,0.8-3.6c0.5-1,1.3-1.9,2.2-2.4
		c1-0.6,2.1-0.9,3.3-0.9c1.8,0,3.2,0.6,4.2,1.7c1,1.2,1.5,2.7,1.5,4.8V351.3z M722.5,346.9c-0.6,0.7-1,1.6-1.1,2.8h6.9
		c-0.1-1.2-0.4-2.2-0.9-2.8s-1.4-1-2.4-1C723.9,345.9,723.1,346.2,722.5,346.9z"/>
	<path class="st1" d="M732.8,355.9l0.8-2c1.4,1,2.9,1.6,4.7,1.6c0.9,0,1.6-0.1,2-0.4c0.5-0.3,0.7-0.7,0.7-1.3c0-0.5-0.2-0.8-0.5-1.1
		c-0.3-0.3-0.9-0.5-1.6-0.7l-2.2-0.5c-1.2-0.3-2.1-0.7-2.6-1.3c-0.6-0.6-0.9-1.4-0.9-2.3c0-1.2,0.5-2.2,1.4-2.9s2.2-1.1,3.8-1.1
		c0.9,0,1.8,0.1,2.7,0.4s1.6,0.7,2.2,1.3l-0.8,1.9c-1.3-1-2.6-1.5-4-1.5c-0.8,0-1.5,0.2-2,0.5c-0.5,0.3-0.7,0.8-0.7,1.3
		c0,0.5,0.1,0.8,0.4,1.1c0.3,0.3,0.8,0.5,1.4,0.6l2.2,0.5c1.3,0.3,2.2,0.7,2.8,1.3c0.6,0.6,0.9,1.4,0.9,2.4c0,1.2-0.5,2.1-1.4,2.8
		c-1,0.7-2.3,1-3.9,1C736,357.6,734.2,357,732.8,355.9z"/>
	<path class="st1" d="M146.6,387.4l-0.1,2.1c-0.5,0.1-0.9,0.1-1.4,0.1c-1.7,0-3-0.4-3.8-1.3s-1.3-2-1.3-3.6v-6.4h-2.6v-2.1h2.6v-4
		h2.7v4h3.6v2.1h-3.6v6.3c0,1.9,0.9,2.9,2.7,2.9C145.8,387.5,146.2,387.5,146.6,387.4z"/>
	<path class="st1" d="M160.2,376.2v13.2h-2.6v-2.1c-0.4,0.8-1,1.3-1.7,1.7c-0.7,0.4-1.5,0.6-2.4,0.6c-3.2,0-4.8-1.8-4.8-5.3v-8.1
		h2.7v8c0,1.1,0.2,1.8,0.6,2.3s1.1,0.8,2,0.8c1.1,0,1.9-0.3,2.6-1c0.6-0.7,1-1.6,1-2.7v-7.4H160.2z"/>
	<rect x="176.9" y="370.4" class="st1" width="2.7" height="19"/>
	<path class="st1" d="M192.8,377.2c0.9,0.9,1.3,2.2,1.3,4v8.2h-2.6v-2.2c-0.3,0.8-0.9,1.4-1.5,1.8c-0.7,0.4-1.5,0.6-2.4,0.6
		c-0.9,0-1.7-0.2-2.4-0.5c-0.7-0.4-1.3-0.8-1.7-1.5c-0.4-0.6-0.6-1.3-0.6-2.1c0-1,0.2-1.7,0.7-2.3c0.5-0.5,1.3-0.9,2.5-1.2
		c1.1-0.2,2.7-0.4,4.7-0.4h0.6v-0.8c0-1-0.2-1.7-0.6-2.2c-0.4-0.4-1.1-0.7-2.1-0.7c-1.5,0-3,0.5-4.5,1.4l-0.8-1.9
		c0.7-0.5,1.6-0.9,2.6-1.2s2-0.4,2.9-0.4C190.7,375.9,192,376.4,192.8,377.2z M190.5,386.6c0.6-0.7,0.9-1.5,0.9-2.6v-0.7H191
		c-1.4,0-2.5,0.1-3.2,0.2s-1.3,0.3-1.6,0.6c-0.3,0.3-0.5,0.7-0.5,1.3c0,0.6,0.2,1.2,0.7,1.6c0.5,0.4,1,0.6,1.8,0.6
		C189.1,387.6,189.9,387.2,190.5,386.6z"/>
	<path class="st1" d="M208,376.7c0.9,0.6,1.6,1.3,2.1,2.4s0.7,2.2,0.7,3.6c0,1.4-0.2,2.5-0.7,3.6c-0.5,1-1.2,1.9-2.1,2.4
		c-0.9,0.6-1.9,0.9-3,0.9c-1,0-1.9-0.2-2.6-0.6s-1.3-1-1.7-1.8v2.3h-2.7v-19h2.7v8c0.4-0.8,1-1.4,1.7-1.8c0.8-0.4,1.6-0.6,2.6-0.6
		C206.1,375.9,207.1,376.2,208,376.7z M207,386.2c0.7-0.8,1-2,1-3.5c0-1.5-0.3-2.6-1-3.4c-0.6-0.8-1.6-1.2-2.8-1.2
		c-1.2,0-2.1,0.4-2.7,1.2c-0.6,0.8-1,2-1,3.5s0.3,2.6,1,3.5c0.6,0.8,1.6,1.2,2.7,1.2C205.4,387.4,206.3,387,207,386.2z"/>
	<path class="st1" d="M216.1,388.8c-1-0.6-1.7-1.4-2.3-2.4c-0.5-1-0.8-2.2-0.8-3.6c0-1.4,0.3-2.6,0.8-3.6c0.5-1,1.3-1.8,2.3-2.4
		c1-0.6,2.1-0.8,3.4-0.8s2.4,0.3,3.4,0.8c1,0.6,1.7,1.4,2.3,2.4c0.5,1,0.8,2.2,0.8,3.6c0,1.4-0.3,2.6-0.8,3.6
		c-0.5,1-1.3,1.8-2.3,2.4c-1,0.6-2.1,0.8-3.4,0.8S217.1,389.3,216.1,388.8z M222.3,386.3c0.6-0.8,1-2,1-3.5c0-1.5-0.3-2.7-1-3.5
		c-0.6-0.8-1.6-1.2-2.8-1.2c-1.2,0-2.1,0.4-2.8,1.2c-0.6,0.8-1,2-1,3.5c0,1.5,0.3,2.7,1,3.5c0.6,0.8,1.6,1.2,2.8,1.2
		C220.7,387.4,221.6,387,222.3,386.3z"/>
	<path class="st1" d="M237,378.2l-1.6,0.2c-1.3,0.1-2.2,0.5-2.8,1.2c-0.6,0.7-0.9,1.5-0.9,2.5v7.3H229v-13.2h2.6v2.3
		c0.7-1.5,2.1-2.4,4.3-2.6l0.9-0.1L237,378.2z"/>
	<path class="st1" d="M263,383.3h-9.3c0.2,2.8,1.6,4.2,4.2,4.2c1.5,0,2.9-0.5,4.1-1.5l0.8,1.9c-0.6,0.5-1.4,0.9-2.3,1.2
		c-0.9,0.3-1.8,0.5-2.8,0.5c-2.1,0-3.8-0.6-5-1.8c-1.2-1.2-1.8-2.9-1.8-5c0-1.3,0.3-2.5,0.8-3.6c0.5-1,1.3-1.9,2.2-2.4
		c1-0.6,2.1-0.9,3.3-0.9c1.8,0,3.2,0.6,4.2,1.7c1,1.2,1.5,2.7,1.5,4.8V383.3z M254.9,378.9c-0.6,0.7-1,1.6-1.1,2.8h6.9
		c-0.1-1.2-0.4-2.2-0.9-2.8s-1.4-1-2.4-1C256.3,377.9,255.5,378.2,254.9,378.9z"/>
	<path class="st1" d="M277.8,381.2v8.2h-2.7v-8c0-1.1-0.2-1.9-0.7-2.5c-0.4-0.5-1.1-0.8-2.1-0.8c-1.1,0-2,0.3-2.6,1
		c-0.7,0.7-1,1.6-1,2.8v7.5H266v-13.2h2.7v2.1c0.4-0.8,1-1.4,1.8-1.8c0.8-0.4,1.6-0.6,2.6-0.6C276.3,375.9,277.8,377.7,277.8,381.2z
		"/>
	<path class="st1" d="M305.7,383.3h-9.3c0.2,2.8,1.6,4.2,4.2,4.2c1.5,0,2.9-0.5,4.1-1.5l0.8,1.9c-0.6,0.5-1.4,0.9-2.3,1.2
		c-0.9,0.3-1.8,0.5-2.8,0.5c-2.1,0-3.8-0.6-5-1.8c-1.2-1.2-1.8-2.9-1.8-5c0-1.3,0.3-2.5,0.8-3.6c0.5-1,1.3-1.9,2.2-2.4
		c1-0.6,2.1-0.9,3.3-0.9c1.8,0,3.2,0.6,4.2,1.7c1,1.2,1.5,2.7,1.5,4.8V383.3z M297.5,378.9c-0.6,0.7-1,1.6-1.1,2.8h6.9
		c-0.1-1.2-0.4-2.2-0.9-2.8s-1.4-1-2.4-1C299,377.9,298.1,378.2,297.5,378.9z"/>
	<path class="st1" d="M307.8,387.9l0.8-2c1.4,1,2.9,1.6,4.7,1.6c0.9,0,1.6-0.1,2-0.4c0.5-0.3,0.7-0.7,0.7-1.3c0-0.5-0.2-0.8-0.5-1.1
		c-0.3-0.3-0.9-0.5-1.6-0.7l-2.2-0.5c-1.2-0.3-2.1-0.7-2.6-1.3c-0.6-0.6-0.9-1.4-0.9-2.3c0-1.2,0.5-2.2,1.4-2.9s2.2-1.1,3.8-1.1
		c0.9,0,1.8,0.1,2.7,0.4s1.6,0.7,2.2,1.3l-0.8,1.9c-1.3-1-2.6-1.5-4-1.5c-0.8,0-1.5,0.2-2,0.5c-0.5,0.3-0.7,0.8-0.7,1.3
		c0,0.5,0.1,0.8,0.4,1.1c0.3,0.3,0.8,0.5,1.4,0.6l2.2,0.5c1.3,0.3,2.2,0.7,2.8,1.3c0.6,0.6,0.9,1.4,0.9,2.4c0,1.2-0.5,2.1-1.4,2.8
		c-1,0.7-2.3,1-3.9,1C311,389.6,309.2,389,307.8,387.9z"/>
	<path class="st1" d="M329,387.4l-0.1,2.1c-0.5,0.1-0.9,0.1-1.4,0.1c-1.7,0-3-0.4-3.8-1.3s-1.3-2-1.3-3.6v-6.4h-2.6v-2.1h2.6v-4h2.7
		v4h3.6v2.1h-3.6v6.3c0,1.9,0.9,2.9,2.7,2.9C328.2,387.5,328.6,387.5,329,387.4z"/>
	<path class="st1" d="M333.4,388.8c-1-0.6-1.7-1.4-2.3-2.4c-0.5-1-0.8-2.2-0.8-3.6c0-1.4,0.3-2.6,0.8-3.6c0.5-1,1.3-1.8,2.3-2.4
		c1-0.6,2.1-0.8,3.4-0.8s2.4,0.3,3.4,0.8c1,0.6,1.7,1.4,2.3,2.4c0.5,1,0.8,2.2,0.8,3.6c0,1.4-0.3,2.6-0.8,3.6
		c-0.5,1-1.3,1.8-2.3,2.4c-1,0.6-2.1,0.8-3.4,0.8S334.4,389.3,333.4,388.8z M339.6,386.3c0.6-0.8,1-2,1-3.5c0-1.5-0.3-2.7-1-3.5
		c-0.6-0.8-1.6-1.2-2.8-1.2c-1.2,0-2.1,0.4-2.8,1.2c-0.6,0.8-1,2-1,3.5c0,1.5,0.3,2.7,1,3.5c0.6,0.8,1.6,1.2,2.8,1.2
		C338,387.4,338.9,387,339.6,386.3z"/>
	<path class="st1" d="M345.5,387.9l0.8-2c1.4,1,2.9,1.6,4.7,1.6c0.9,0,1.6-0.1,2-0.4c0.5-0.3,0.7-0.7,0.7-1.3c0-0.5-0.2-0.8-0.5-1.1
		c-0.3-0.3-0.9-0.5-1.6-0.7l-2.2-0.5c-1.2-0.3-2.1-0.7-2.6-1.3c-0.6-0.6-0.9-1.4-0.9-2.3c0-1.2,0.5-2.2,1.4-2.9s2.2-1.1,3.8-1.1
		c0.9,0,1.8,0.1,2.7,0.4s1.6,0.7,2.2,1.3l-0.8,1.9c-1.3-1-2.6-1.5-4-1.5c-0.8,0-1.5,0.2-2,0.5c-0.5,0.3-0.7,0.8-0.7,1.3
		c0,0.5,0.1,0.8,0.4,1.1c0.3,0.3,0.8,0.5,1.4,0.6l2.2,0.5c1.3,0.3,2.2,0.7,2.8,1.3c0.6,0.6,0.9,1.4,0.9,2.4c0,1.2-0.5,2.1-1.4,2.8
		c-1,0.7-2.3,1-3.9,1C348.7,389.6,346.9,389,345.5,387.9z"/>
	<path class="st1" d="M379.6,387.4l-0.1,2.1c-0.5,0.1-0.9,0.1-1.4,0.1c-1.7,0-3-0.4-3.8-1.3s-1.3-2-1.3-3.6v-6.4h-2.6v-2.1h2.6v-4
		h2.7v4h3.6v2.1h-3.6v6.3c0,1.9,0.9,2.9,2.7,2.9C378.8,387.5,379.2,387.5,379.6,387.4z"/>
	<path class="st1" d="M381.5,370.4h3.1v2.8h-3.1V370.4z M381.7,389.4v-13.2h2.7v13.2H381.7z"/>
	<path class="st1" d="M399.5,383.3h-9.3c0.2,2.8,1.6,4.2,4.2,4.2c1.5,0,2.9-0.5,4.1-1.5l0.8,1.9c-0.6,0.5-1.4,0.9-2.3,1.2
		c-0.9,0.3-1.8,0.5-2.8,0.5c-2.1,0-3.8-0.6-5-1.8c-1.2-1.2-1.8-2.9-1.8-5c0-1.3,0.3-2.5,0.8-3.6c0.5-1,1.3-1.9,2.2-2.4
		c1-0.6,2.1-0.9,3.3-0.9c1.8,0,3.2,0.6,4.2,1.7c1,1.2,1.5,2.7,1.5,4.8V383.3z M391.4,378.9c-0.6,0.7-1,1.6-1.1,2.8h6.9
		c-0.1-1.2-0.4-2.2-0.9-2.8s-1.4-1-2.4-1C392.8,377.9,392,378.2,391.4,378.9z"/>
	<path class="st1" d="M422.1,381.2v8.2h-2.7v-8.1c0-1.1-0.2-1.9-0.6-2.4c-0.4-0.5-1-0.8-1.9-0.8c-1,0-1.8,0.3-2.3,1
		c-0.6,0.7-0.9,1.6-0.9,2.8v7.5h-2.7v-8.1c0-1.1-0.2-1.9-0.6-2.4s-1-0.8-1.9-0.8c-1,0-1.8,0.3-2.4,1c-0.6,0.7-0.9,1.6-0.9,2.8v7.5
		h-2.7v-13.2h2.7v2c0.4-0.7,1-1.3,1.7-1.7s1.5-0.6,2.4-0.6c2,0,3.4,0.8,4,2.5c0.4-0.8,1-1.4,1.8-1.9c0.8-0.4,1.6-0.7,2.6-0.7
		C420.6,375.9,422.1,377.7,422.1,381.2z"/>
	<path class="st1" d="M435.9,376.8c0.9,0.6,1.6,1.4,2.1,2.4s0.7,2.3,0.7,3.6c0,1.3-0.2,2.5-0.7,3.6c-0.5,1-1.2,1.8-2.1,2.4
		c-0.9,0.6-1.9,0.8-3.1,0.8c-1,0-1.9-0.2-2.6-0.6s-1.3-1-1.7-1.8v7.1h-2.7v-18h2.7v2.2c0.4-0.8,1-1.4,1.7-1.8
		c0.8-0.4,1.6-0.6,2.6-0.6C434,375.9,435,376.2,435.9,376.8z M435,386.2c0.6-0.8,1-1.9,1-3.4c0-1.5-0.3-2.7-1-3.5
		c-0.7-0.8-1.6-1.2-2.7-1.2c-1.2,0-2.1,0.4-2.7,1.2c-0.6,0.8-1,2-1,3.5s0.3,2.6,1,3.5c0.6,0.8,1.6,1.2,2.7,1.2
		C433.4,387.4,434.3,387,435,386.2z"/>
	<path class="st1" d="M444.1,388.8c-1-0.6-1.7-1.4-2.3-2.4c-0.5-1-0.8-2.2-0.8-3.6c0-1.4,0.3-2.6,0.8-3.6c0.5-1,1.3-1.8,2.3-2.4
		c1-0.6,2.1-0.8,3.4-0.8s2.4,0.3,3.4,0.8c1,0.6,1.7,1.4,2.3,2.4c0.5,1,0.8,2.2,0.8,3.6c0,1.4-0.3,2.6-0.8,3.6
		c-0.5,1-1.3,1.8-2.3,2.4c-1,0.6-2.1,0.8-3.4,0.8S445,389.3,444.1,388.8z M450.2,386.3c0.6-0.8,1-2,1-3.5c0-1.5-0.3-2.7-1-3.5
		c-0.6-0.8-1.6-1.2-2.8-1.2c-1.2,0-2.1,0.4-2.8,1.2c-0.6,0.8-1,2-1,3.5c0,1.5,0.3,2.7,1,3.5c0.6,0.8,1.6,1.2,2.8,1.2
		C448.7,387.4,449.6,387,450.2,386.3z"/>
	<path class="st1" d="M456.1,387.9l0.8-2c1.4,1,2.9,1.6,4.7,1.6c0.9,0,1.6-0.1,2-0.4c0.5-0.3,0.7-0.7,0.7-1.3c0-0.5-0.2-0.8-0.5-1.1
		c-0.3-0.3-0.9-0.5-1.6-0.7l-2.2-0.5c-1.2-0.3-2.1-0.7-2.6-1.3c-0.6-0.6-0.9-1.4-0.9-2.3c0-1.2,0.5-2.2,1.4-2.9s2.2-1.1,3.8-1.1
		c0.9,0,1.8,0.1,2.7,0.4s1.6,0.7,2.2,1.3l-0.8,1.9c-1.3-1-2.6-1.5-4-1.5c-0.8,0-1.5,0.2-2,0.5c-0.5,0.3-0.7,0.8-0.7,1.3
		c0,0.5,0.1,0.8,0.4,1.1c0.3,0.3,0.8,0.5,1.4,0.6l2.2,0.5c1.3,0.3,2.2,0.7,2.8,1.3c0.6,0.6,0.9,1.4,0.9,2.4c0,1.2-0.5,2.1-1.4,2.8
		c-1,0.7-2.3,1-3.9,1C459.3,389.6,457.5,389,456.1,387.9z"/>
	<path class="st1" d="M495,370.4v19h-2.7v-2.3c-0.4,0.8-1,1.4-1.7,1.8s-1.6,0.6-2.6,0.6c-1.1,0-2.1-0.3-3-0.9
		c-0.9-0.6-1.6-1.4-2.1-2.4c-0.5-1-0.7-2.2-0.7-3.6c0-1.4,0.2-2.6,0.7-3.6c0.5-1,1.2-1.8,2.1-2.4c0.9-0.6,1.9-0.8,3.1-0.8
		c1,0,1.9,0.2,2.6,0.6s1.3,1,1.7,1.8v-8H495z M491.3,386.2c0.6-0.8,1-2,1-3.5s-0.3-2.6-1-3.5c-0.6-0.8-1.6-1.2-2.7-1.2
		c-1.2,0-2.1,0.4-2.8,1.2s-1,1.9-1,3.4c0,1.5,0.3,2.6,1,3.5s1.6,1.3,2.8,1.3C489.8,387.4,490.7,387,491.3,386.2z"/>
	<path class="st1" d="M498.6,370.4h3.1v2.8h-3.1V370.4z M498.8,389.4v-13.2h2.7v13.2H498.8z"/>
	<path class="st1" d="M508.9,376.2h3.6v2.1h-3.6v11.1h-2.7v-11.1h-2.6v-2.1h2.6V376c0-1.8,0.5-3.2,1.4-4.1s2.3-1.4,4.3-1.5l1.2-0.1
		l0.2,2.1l-1.2,0.1c-1.1,0.1-1.9,0.3-2.3,0.8c-0.5,0.5-0.7,1.3-0.7,2.3V376.2z"/>
	<path class="st1" d="M514.5,389.4v-13.2h2.7v13.2H514.5z M516.8,374.5H515l2.7-5.5h2.9L516.8,374.5z"/>
	<path class="st1" d="M523.4,388.8c-1-0.6-1.7-1.3-2.3-2.4c-0.5-1-0.8-2.2-0.8-3.6s0.3-2.6,0.8-3.6c0.5-1,1.3-1.9,2.3-2.4
		s2.2-0.9,3.5-0.9c0.9,0,1.8,0.2,2.7,0.5c0.9,0.3,1.6,0.7,2.1,1.2l-0.8,1.9c-1.2-1-2.4-1.5-3.7-1.5c-1.3,0-2.2,0.4-3,1.2
		c-0.7,0.8-1.1,2-1.1,3.5c0,1.5,0.4,2.6,1.1,3.4c0.7,0.8,1.7,1.2,3,1.2c1.3,0,2.5-0.5,3.7-1.5l0.8,2c-0.6,0.5-1.3,0.9-2.2,1.2
		s-1.8,0.4-2.7,0.4C525.5,389.6,524.4,389.3,523.4,388.8z"/>
	<path class="st1" d="M533.9,370.4h3.1v2.8h-3.1V370.4z M534.1,389.4v-13.2h2.7v13.2H534.1z"/>
	<rect x="540.7" y="370.4" class="st1" width="2.7" height="19"/>
	<path class="st1" d="M558.5,383.3h-9.3c0.2,2.8,1.6,4.2,4.2,4.2c1.5,0,2.9-0.5,4.1-1.5l0.8,1.9c-0.6,0.5-1.4,0.9-2.3,1.2
		c-0.9,0.3-1.8,0.5-2.8,0.5c-2.1,0-3.8-0.6-5-1.8c-1.2-1.2-1.8-2.9-1.8-5c0-1.3,0.3-2.5,0.8-3.6c0.5-1,1.3-1.9,2.2-2.4
		c1-0.6,2.1-0.9,3.3-0.9c1.8,0,3.2,0.6,4.2,1.7c1,1.2,1.5,2.7,1.5,4.8V383.3z M550.3,378.9c-0.6,0.7-1,1.6-1.1,2.8h6.9
		c-0.1-1.2-0.4-2.2-0.9-2.8s-1.4-1-2.4-1C551.8,377.9,550.9,378.2,550.3,378.9z"/>
	<path class="st1" d="M560.6,387.9l0.8-2c1.4,1,2.9,1.6,4.7,1.6c0.9,0,1.6-0.1,2-0.4c0.5-0.3,0.7-0.7,0.7-1.3c0-0.5-0.2-0.8-0.5-1.1
		c-0.3-0.3-0.9-0.5-1.6-0.7l-2.2-0.5c-1.2-0.3-2.1-0.7-2.6-1.3c-0.6-0.6-0.9-1.4-0.9-2.3c0-1.2,0.5-2.2,1.4-2.9s2.2-1.1,3.8-1.1
		c0.9,0,1.8,0.1,2.7,0.4s1.6,0.7,2.2,1.3l-0.8,1.9c-1.3-1-2.6-1.5-4-1.5c-0.8,0-1.5,0.2-2,0.5c-0.5,0.3-0.7,0.8-0.7,1.3
		c0,0.5,0.1,0.8,0.4,1.1c0.3,0.3,0.8,0.5,1.4,0.6l2.2,0.5c1.3,0.3,2.2,0.7,2.8,1.3c0.6,0.6,0.9,1.4,0.9,2.4c0,1.2-0.5,2.1-1.4,2.8
		c-1,0.7-2.3,1-3.9,1C563.8,389.6,562,389,560.6,387.9z"/>
	<path class="st1" d="M597.4,376.8c0.9,0.6,1.6,1.4,2.1,2.4s0.7,2.3,0.7,3.6c0,1.3-0.2,2.5-0.7,3.6c-0.5,1-1.2,1.8-2.1,2.4
		c-0.9,0.6-1.9,0.8-3.1,0.8c-1,0-1.9-0.2-2.6-0.6s-1.3-1-1.7-1.8v7.1h-2.7v-18h2.7v2.2c0.4-0.8,1-1.4,1.7-1.8
		c0.8-0.4,1.6-0.6,2.6-0.6C595.5,375.9,596.5,376.2,597.4,376.8z M596.5,386.2c0.6-0.8,1-1.9,1-3.4c0-1.5-0.3-2.7-1-3.5
		c-0.7-0.8-1.6-1.2-2.7-1.2c-1.2,0-2.1,0.4-2.7,1.2c-0.6,0.8-1,2-1,3.5s0.3,2.6,1,3.5c0.6,0.8,1.6,1.2,2.7,1.2
		C594.9,387.4,595.9,387,596.5,386.2z"/>
	<path class="st1" d="M612.7,377.2c0.9,0.9,1.3,2.2,1.3,4v8.2h-2.6v-2.2c-0.3,0.8-0.9,1.4-1.5,1.8c-0.7,0.4-1.5,0.6-2.4,0.6
		c-0.9,0-1.7-0.2-2.4-0.5c-0.7-0.4-1.3-0.8-1.7-1.5c-0.4-0.6-0.6-1.3-0.6-2.1c0-1,0.2-1.7,0.7-2.3c0.5-0.5,1.3-0.9,2.5-1.2
		c1.1-0.2,2.7-0.4,4.7-0.4h0.6v-0.8c0-1-0.2-1.7-0.6-2.2c-0.4-0.4-1.1-0.7-2.1-0.7c-1.5,0-3,0.5-4.5,1.4l-0.8-1.9
		c0.7-0.5,1.6-0.9,2.6-1.2s2-0.4,2.9-0.4C610.5,375.9,611.9,376.4,612.7,377.2z M610.4,386.6c0.6-0.7,0.9-1.5,0.9-2.6v-0.7h-0.5
		c-1.4,0-2.5,0.1-3.2,0.2s-1.3,0.3-1.6,0.6c-0.3,0.3-0.5,0.7-0.5,1.3c0,0.6,0.2,1.2,0.7,1.6c0.5,0.4,1,0.6,1.8,0.6
		C609,387.6,609.8,387.2,610.4,386.6z"/>
	<path class="st1" d="M625.7,378.2l-1.6,0.2c-1.3,0.1-2.2,0.5-2.8,1.2c-0.6,0.7-0.9,1.5-0.9,2.5v7.3h-2.7v-13.2h2.6v2.3
		c0.7-1.5,2.1-2.4,4.3-2.6l0.9-0.1L625.7,378.2z"/>
	<path class="st1" d="M637,377.2c0.9,0.9,1.3,2.2,1.3,4v8.2h-2.6v-2.2c-0.3,0.8-0.9,1.4-1.5,1.8c-0.7,0.4-1.5,0.6-2.4,0.6
		c-0.9,0-1.7-0.2-2.4-0.5c-0.7-0.4-1.3-0.8-1.7-1.5c-0.4-0.6-0.6-1.3-0.6-2.1c0-1,0.2-1.7,0.7-2.3c0.5-0.5,1.3-0.9,2.5-1.2
		c1.1-0.2,2.7-0.4,4.7-0.4h0.6v-0.8c0-1-0.2-1.7-0.6-2.2c-0.4-0.4-1.1-0.7-2.1-0.7c-1.5,0-3,0.5-4.5,1.4l-0.8-1.9
		c0.7-0.5,1.6-0.9,2.6-1.2s2-0.4,2.9-0.4C634.8,375.9,636.1,376.4,637,377.2z M634.6,386.6c0.6-0.7,0.9-1.5,0.9-2.6v-0.7h-0.5
		c-1.4,0-2.5,0.1-3.2,0.2s-1.3,0.3-1.6,0.6c-0.3,0.3-0.5,0.7-0.5,1.3c0,0.6,0.2,1.2,0.7,1.6c0.5,0.4,1,0.6,1.8,0.6
		C633.2,387.6,634,387.2,634.6,386.6z"/>
	<path class="st1" d="M666.6,381.2v8.2h-2.7v-8c0-1.1-0.2-1.9-0.7-2.5c-0.4-0.5-1.1-0.8-2.1-0.8c-1.1,0-2,0.3-2.6,1
		c-0.7,0.7-1,1.6-1,2.8v7.5h-2.7v-13.2h2.7v2.1c0.4-0.8,1-1.4,1.8-1.8c0.8-0.4,1.6-0.6,2.6-0.6C665,375.9,666.6,377.7,666.6,381.2z"
		/>
	<path class="st1" d="M681.9,376.2v13.2h-2.6v-2.1c-0.4,0.8-1,1.3-1.7,1.7c-0.7,0.4-1.5,0.6-2.4,0.6c-3.2,0-4.8-1.8-4.8-5.3v-8.1
		h2.7v8c0,1.1,0.2,1.8,0.6,2.3s1.1,0.8,2,0.8c1.1,0,1.9-0.3,2.6-1c0.6-0.7,1-1.6,1-2.7v-7.4H681.9z"/>
	<path class="st1" d="M697,383.3h-9.3c0.2,2.8,1.6,4.2,4.2,4.2c1.5,0,2.9-0.5,4.1-1.5l0.8,1.9c-0.6,0.5-1.4,0.9-2.3,1.2
		c-0.9,0.3-1.8,0.5-2.8,0.5c-2.1,0-3.8-0.6-5-1.8c-1.2-1.2-1.8-2.9-1.8-5c0-1.3,0.3-2.5,0.8-3.6c0.5-1,1.3-1.9,2.2-2.4
		c1-0.6,2.1-0.9,3.3-0.9c1.8,0,3.2,0.6,4.2,1.7c1,1.2,1.5,2.7,1.5,4.8V383.3z M688.8,378.9c-0.6,0.7-1,1.6-1.1,2.8h6.9
		c-0.1-1.2-0.4-2.2-0.9-2.8s-1.4-1-2.4-1C690.3,377.9,689.5,378.2,688.8,378.9z"/>
	<path class="st1" d="M699.2,387.9l0.8-2c1.4,1,2.9,1.6,4.7,1.6c0.9,0,1.6-0.1,2-0.4c0.5-0.3,0.7-0.7,0.7-1.3c0-0.5-0.2-0.8-0.5-1.1
		c-0.3-0.3-0.9-0.5-1.6-0.7l-2.2-0.5c-1.2-0.3-2.1-0.7-2.6-1.3c-0.6-0.6-0.9-1.4-0.9-2.3c0-1.2,0.5-2.2,1.4-2.9s2.2-1.1,3.8-1.1
		c0.9,0,1.8,0.1,2.7,0.4s1.6,0.7,2.2,1.3l-0.8,1.9c-1.3-1-2.6-1.5-4-1.5c-0.8,0-1.5,0.2-2,0.5c-0.5,0.3-0.7,0.8-0.7,1.3
		c0,0.5,0.1,0.8,0.4,1.1c0.3,0.3,0.8,0.5,1.4,0.6l2.2,0.5c1.3,0.3,2.2,0.7,2.8,1.3c0.6,0.6,0.9,1.4,0.9,2.4c0,1.2-0.5,2.1-1.4,2.8
		c-1,0.7-2.3,1-3.9,1C702.4,389.6,700.5,389,699.2,387.9z"/>
	<path class="st1" d="M720.3,387.4l-0.1,2.1c-0.5,0.1-0.9,0.1-1.4,0.1c-1.7,0-3-0.4-3.8-1.3s-1.3-2-1.3-3.6v-6.4h-2.6v-2.1h2.6v-4
		h2.7v4h3.6v2.1h-3.6v6.3c0,1.9,0.9,2.9,2.7,2.9C719.5,387.5,719.9,387.5,720.3,387.4z"/>
	<path class="st1" d="M730.4,378.2l-1.6,0.2c-1.3,0.1-2.2,0.5-2.8,1.2c-0.6,0.7-0.9,1.5-0.9,2.5v7.3h-2.7v-13.2h2.6v2.3
		c0.7-1.5,2.1-2.4,4.3-2.6l0.9-0.1L730.4,378.2z"/>
	<path class="st1" d="M741.6,377.2c0.9,0.9,1.3,2.2,1.3,4v8.2h-2.6v-2.2c-0.3,0.8-0.9,1.4-1.5,1.8c-0.7,0.4-1.5,0.6-2.4,0.6
		c-0.9,0-1.7-0.2-2.4-0.5c-0.7-0.4-1.3-0.8-1.7-1.5c-0.4-0.6-0.6-1.3-0.6-2.1c0-1,0.2-1.7,0.7-2.3c0.5-0.5,1.3-0.9,2.5-1.2
		c1.1-0.2,2.7-0.4,4.7-0.4h0.6v-0.8c0-1-0.2-1.7-0.6-2.2c-0.4-0.4-1.1-0.7-2.1-0.7c-1.5,0-3,0.5-4.5,1.4l-0.8-1.9
		c0.7-0.5,1.6-0.9,2.6-1.2s2-0.4,2.9-0.4C739.5,375.9,740.8,376.4,741.6,377.2z M739.3,386.6c0.6-0.7,0.9-1.5,0.9-2.6v-0.7h-0.5
		c-1.4,0-2.5,0.1-3.2,0.2s-1.3,0.3-1.6,0.6c-0.3,0.3-0.5,0.7-0.5,1.3c0,0.6,0.2,1.2,0.7,1.6c0.5,0.4,1,0.6,1.8,0.6
		C737.9,387.6,738.7,387.2,739.3,386.6z"/>
	<path class="st1" d="M138.3,419.9l0.8-2c1.4,1,2.9,1.6,4.7,1.6c0.9,0,1.6-0.1,2-0.4c0.5-0.3,0.7-0.7,0.7-1.3c0-0.5-0.2-0.8-0.5-1.1
		c-0.3-0.3-0.9-0.5-1.6-0.7l-2.2-0.5c-1.2-0.3-2.1-0.7-2.6-1.3c-0.6-0.6-0.9-1.4-0.9-2.3c0-1.2,0.5-2.2,1.4-2.9s2.2-1.1,3.8-1.1
		c0.9,0,1.8,0.1,2.7,0.4s1.6,0.7,2.2,1.3l-0.8,1.9c-1.3-1-2.6-1.5-4-1.5c-0.8,0-1.5,0.2-2,0.5c-0.5,0.3-0.7,0.8-0.7,1.3
		c0,0.5,0.1,0.8,0.4,1.1c0.3,0.3,0.8,0.5,1.4,0.6l2.2,0.5c1.3,0.3,2.2,0.7,2.8,1.3c0.6,0.6,0.9,1.4,0.9,2.4c0,1.2-0.5,2.1-1.4,2.8
		c-1,0.7-2.3,1-3.9,1C141.5,421.6,139.7,421.1,138.3,419.9z"/>
	<path class="st1" d="M154.5,420.8c-1-0.6-1.7-1.4-2.3-2.4c-0.5-1-0.8-2.2-0.8-3.6c0-1.4,0.3-2.6,0.8-3.6c0.5-1,1.3-1.8,2.3-2.4
		c1-0.6,2.1-0.8,3.4-0.8s2.4,0.3,3.4,0.8c1,0.6,1.7,1.4,2.3,2.4c0.5,1,0.8,2.2,0.8,3.6c0,1.4-0.3,2.6-0.8,3.6
		c-0.5,1-1.3,1.8-2.3,2.4c-1,0.6-2.1,0.8-3.4,0.8S155.4,421.3,154.5,420.8z M160.6,418.3c0.6-0.8,1-2,1-3.5c0-1.5-0.3-2.7-1-3.5
		c-0.6-0.8-1.6-1.2-2.8-1.2c-1.2,0-2.1,0.4-2.8,1.2c-0.6,0.8-1,2-1,3.5c0,1.5,0.3,2.7,1,3.5c0.6,0.8,1.6,1.2,2.8,1.2
		C159.1,419.5,160,419.1,160.6,418.3z"/>
	<path class="st1" d="M169.7,420.8c-1-0.6-1.7-1.3-2.3-2.4c-0.5-1-0.8-2.2-0.8-3.6s0.3-2.6,0.8-3.6c0.5-1,1.3-1.9,2.3-2.4
		s2.2-0.9,3.5-0.9c0.9,0,1.8,0.2,2.7,0.5c0.9,0.3,1.6,0.7,2.1,1.2l-0.8,1.9c-1.2-1-2.4-1.5-3.7-1.5c-1.3,0-2.2,0.4-3,1.2
		c-0.7,0.8-1.1,2-1.1,3.5c0,1.5,0.4,2.6,1.1,3.4c0.7,0.8,1.7,1.2,3,1.2c1.3,0,2.5-0.5,3.7-1.5l0.8,2c-0.6,0.5-1.3,0.9-2.2,1.2
		s-1.8,0.4-2.7,0.4C171.8,421.6,170.7,421.3,169.7,420.8z"/>
	<path class="st1" d="M180.2,402.4h3.1v2.8h-3.1V402.4z M180.4,421.4v-13.2h2.7v13.2H180.4z"/>
	<path class="st1" d="M198.2,415.3h-9.3c0.2,2.8,1.6,4.2,4.2,4.2c1.5,0,2.9-0.5,4.1-1.5l0.8,1.9c-0.6,0.5-1.4,0.9-2.3,1.2
		c-0.9,0.3-1.8,0.5-2.8,0.5c-2.1,0-3.8-0.6-5-1.8c-1.2-1.2-1.8-2.9-1.8-5c0-1.3,0.3-2.5,0.8-3.6c0.5-1,1.3-1.9,2.2-2.4
		c1-0.6,2.1-0.9,3.3-0.9c1.8,0,3.2,0.6,4.2,1.7c1,1.2,1.5,2.7,1.5,4.8V415.3z M190.1,410.9c-0.6,0.7-1,1.6-1.1,2.8h6.9
		c-0.1-1.2-0.4-2.2-0.9-2.8s-1.4-1-2.4-1C191.5,409.9,190.7,410.3,190.1,410.9z"/>
	<path class="st1" d="M213.4,402.4v19h-2.7v-2.3c-0.4,0.8-1,1.4-1.7,1.8s-1.6,0.6-2.6,0.6c-1.1,0-2.1-0.3-3-0.9
		c-0.9-0.6-1.6-1.4-2.1-2.4c-0.5-1-0.7-2.2-0.7-3.6c0-1.4,0.2-2.6,0.7-3.6c0.5-1,1.2-1.8,2.1-2.4c0.9-0.6,1.9-0.8,3.1-0.8
		c1,0,1.9,0.2,2.6,0.6s1.3,1,1.7,1.8v-8H213.4z M209.7,418.2c0.6-0.8,1-2,1-3.5s-0.3-2.6-1-3.5c-0.6-0.8-1.6-1.2-2.7-1.2
		c-1.2,0-2.1,0.4-2.8,1.2s-1,1.9-1,3.4c0,1.5,0.3,2.6,1,3.5s1.6,1.3,2.8,1.3C208.2,419.5,209.1,419.1,209.7,418.2z"/>
	<path class="st1" d="M226.6,409.3c0.9,0.9,1.3,2.2,1.3,4v8.2h-2.6v-2.2c-0.3,0.8-0.9,1.4-1.5,1.8c-0.7,0.4-1.5,0.6-2.4,0.6
		c-0.9,0-1.7-0.2-2.4-0.5c-0.7-0.4-1.3-0.8-1.7-1.5c-0.4-0.6-0.6-1.3-0.6-2.1c0-1,0.2-1.7,0.7-2.3c0.5-0.5,1.3-0.9,2.5-1.2
		c1.1-0.2,2.7-0.4,4.7-0.4h0.6V413c0-1-0.2-1.7-0.6-2.2c-0.4-0.4-1.1-0.7-2.1-0.7c-1.5,0-3,0.5-4.5,1.4l-0.8-1.9
		c0.7-0.5,1.6-0.9,2.6-1.2s2-0.4,2.9-0.4C224.5,407.9,225.8,408.4,226.6,409.3z M224.3,418.6c0.6-0.7,0.9-1.5,0.9-2.6v-0.7h-0.5
		c-1.4,0-2.5,0.1-3.2,0.2s-1.3,0.3-1.6,0.6c-0.3,0.3-0.5,0.7-0.5,1.3c0,0.6,0.2,1.2,0.7,1.6c0.5,0.4,1,0.6,1.8,0.6
		C222.9,419.6,223.7,419.3,224.3,418.6z"/>
	<path class="st1" d="M243.8,402.4v19h-2.7v-2.3c-0.4,0.8-1,1.4-1.7,1.8s-1.6,0.6-2.6,0.6c-1.1,0-2.1-0.3-3-0.9
		c-0.9-0.6-1.6-1.4-2.1-2.4c-0.5-1-0.7-2.2-0.7-3.6c0-1.4,0.2-2.6,0.7-3.6c0.5-1,1.2-1.8,2.1-2.4c0.9-0.6,1.9-0.8,3.1-0.8
		c1,0,1.9,0.2,2.6,0.6s1.3,1,1.7,1.8v-8H243.8z M240.1,418.2c0.6-0.8,1-2,1-3.5s-0.3-2.6-1-3.5c-0.6-0.8-1.6-1.2-2.7-1.2
		c-1.2,0-2.1,0.4-2.8,1.2s-1,1.9-1,3.4c0,1.5,0.3,2.6,1,3.5s1.6,1.3,2.8,1.3C238.6,419.5,239.5,419.1,240.1,418.2z"/>
	<path class="st1" d="M250.5,418.2v2.2c0,0.8-0.1,1.6-0.4,2.3c-0.3,0.7-0.8,1.4-1.4,2l-1.2-0.9c0.8-0.8,1.2-1.6,1.3-2.4h-1.5v-3.2
		H250.5z"/>
	<path class="st1" d="M276.3,413.2v8.2h-2.7v-8c0-1.1-0.2-1.9-0.7-2.5c-0.4-0.5-1.1-0.8-2.1-0.8c-1.1,0-2,0.3-2.6,1
		c-0.7,0.7-1,1.6-1,2.8v7.5h-2.7v-19h2.7v7.9c0.4-0.8,1.1-1.3,1.8-1.7c0.8-0.4,1.6-0.6,2.6-0.6C274.7,407.9,276.3,409.7,276.3,413.2
		z"/>
	<path class="st1" d="M289.4,409.3c0.9,0.9,1.3,2.2,1.3,4v8.2h-2.6v-2.2c-0.3,0.8-0.9,1.4-1.5,1.8c-0.7,0.4-1.5,0.6-2.4,0.6
		c-0.9,0-1.7-0.2-2.4-0.5c-0.7-0.4-1.3-0.8-1.7-1.5c-0.4-0.6-0.6-1.3-0.6-2.1c0-1,0.2-1.7,0.7-2.3c0.5-0.5,1.3-0.9,2.5-1.2
		c1.1-0.2,2.7-0.4,4.7-0.4h0.6V413c0-1-0.2-1.7-0.6-2.2c-0.4-0.4-1.1-0.7-2.1-0.7c-1.5,0-3,0.5-4.5,1.4l-0.8-1.9
		c0.7-0.5,1.6-0.9,2.6-1.2s2-0.4,2.9-0.4C287.3,407.9,288.6,408.4,289.4,409.3z M287.1,418.6c0.6-0.7,0.9-1.5,0.9-2.6v-0.7h-0.5
		c-1.4,0-2.5,0.1-3.2,0.2s-1.3,0.3-1.6,0.6c-0.3,0.3-0.5,0.7-0.5,1.3c0,0.6,0.2,1.2,0.7,1.6c0.5,0.4,1,0.6,1.8,0.6
		C285.7,419.6,286.5,419.3,287.1,418.6z"/>
	<path class="st1" d="M296.7,420.8c-1-0.6-1.7-1.3-2.3-2.4c-0.5-1-0.8-2.2-0.8-3.6s0.3-2.6,0.8-3.6c0.5-1,1.3-1.9,2.3-2.4
		s2.2-0.9,3.5-0.9c0.9,0,1.8,0.2,2.7,0.5c0.9,0.3,1.6,0.7,2.1,1.2l-0.8,1.9c-1.2-1-2.4-1.5-3.7-1.5c-1.3,0-2.2,0.4-3,1.2
		c-0.7,0.8-1.1,2-1.1,3.5c0,1.5,0.4,2.6,1.1,3.4c0.7,0.8,1.7,1.2,3,1.2c1.3,0,2.5-0.5,3.7-1.5l0.8,2c-0.6,0.5-1.3,0.9-2.2,1.2
		s-1.8,0.4-2.7,0.4C298.9,421.6,297.7,421.3,296.7,420.8z"/>
	<path class="st1" d="M318.8,415.3h-9.3c0.2,2.8,1.6,4.2,4.2,4.2c1.5,0,2.9-0.5,4.1-1.5l0.8,1.9c-0.6,0.5-1.4,0.9-2.3,1.2
		c-0.9,0.3-1.8,0.5-2.8,0.5c-2.1,0-3.8-0.6-5-1.8c-1.2-1.2-1.8-2.9-1.8-5c0-1.3,0.3-2.5,0.8-3.6c0.5-1,1.3-1.9,2.2-2.4
		c1-0.6,2.1-0.9,3.3-0.9c1.8,0,3.2,0.6,4.2,1.7c1,1.2,1.5,2.7,1.5,4.8V415.3z M310.6,410.9c-0.6,0.7-1,1.6-1.1,2.8h6.9
		c-0.1-1.2-0.4-2.2-0.9-2.8s-1.4-1-2.4-1C312,409.9,311.2,410.3,310.6,410.9z"/>
	<path class="st1" d="M341.3,413.2v8.2h-2.7v-8.1c0-1.1-0.2-1.9-0.6-2.4c-0.4-0.5-1-0.8-1.9-0.8c-1,0-1.8,0.3-2.3,1
		c-0.6,0.7-0.9,1.6-0.9,2.8v7.5h-2.7v-8.1c0-1.1-0.2-1.9-0.6-2.4s-1-0.8-1.9-0.8c-1,0-1.8,0.3-2.4,1c-0.6,0.7-0.9,1.6-0.9,2.8v7.5
		h-2.7v-13.2h2.7v2c0.4-0.7,1-1.3,1.7-1.7s1.5-0.6,2.4-0.6c2,0,3.4,0.8,4,2.5c0.4-0.8,1-1.4,1.8-1.9c0.8-0.4,1.6-0.7,2.6-0.7
		C339.8,407.9,341.3,409.7,341.3,413.2z"/>
	<path class="st1" d="M347.3,420.8c-1-0.6-1.7-1.4-2.3-2.4c-0.5-1-0.8-2.2-0.8-3.6c0-1.4,0.3-2.6,0.8-3.6c0.5-1,1.3-1.8,2.3-2.4
		c1-0.6,2.1-0.8,3.4-0.8s2.4,0.3,3.4,0.8c1,0.6,1.7,1.4,2.3,2.4c0.5,1,0.8,2.2,0.8,3.6c0,1.4-0.3,2.6-0.8,3.6
		c-0.5,1-1.3,1.8-2.3,2.4c-1,0.6-2.1,0.8-3.4,0.8S348.3,421.3,347.3,420.8z M353.5,418.3c0.6-0.8,1-2,1-3.5c0-1.5-0.3-2.7-1-3.5
		c-0.6-0.8-1.6-1.2-2.8-1.2c-1.2,0-2.1,0.4-2.8,1.2c-0.6,0.8-1,2-1,3.5c0,1.5,0.3,2.7,1,3.5c0.6,0.8,1.6,1.2,2.8,1.2
		C352,419.5,352.9,419.1,353.5,418.3z"/>
	<path class="st1" d="M359.4,419.9l0.8-2c1.4,1,2.9,1.6,4.7,1.6c0.9,0,1.6-0.1,2-0.4c0.5-0.3,0.7-0.7,0.7-1.3c0-0.5-0.2-0.8-0.5-1.1
		c-0.3-0.3-0.9-0.5-1.6-0.7l-2.2-0.5c-1.2-0.3-2.1-0.7-2.6-1.3c-0.6-0.6-0.9-1.4-0.9-2.3c0-1.2,0.5-2.2,1.4-2.9s2.2-1.1,3.8-1.1
		c0.9,0,1.8,0.1,2.7,0.4s1.6,0.7,2.2,1.3l-0.8,1.9c-1.3-1-2.6-1.5-4-1.5c-0.8,0-1.5,0.2-2,0.5c-0.5,0.3-0.7,0.8-0.7,1.3
		c0,0.5,0.1,0.8,0.4,1.1c0.3,0.3,0.8,0.5,1.4,0.6l2.2,0.5c1.3,0.3,2.2,0.7,2.8,1.3c0.6,0.6,0.9,1.4,0.9,2.4c0,1.2-0.5,2.1-1.4,2.8
		c-1,0.7-2.3,1-3.9,1C362.6,421.6,360.8,421.1,359.4,419.9z"/>
	<path class="st1" d="M395.3,408.3v13.2h-2.6v-2.1c-0.4,0.8-1,1.3-1.7,1.7c-0.7,0.4-1.5,0.6-2.4,0.6c-3.2,0-4.8-1.8-4.8-5.3v-8.1
		h2.7v8c0,1.1,0.2,1.8,0.6,2.3s1.1,0.8,2,0.8c1.1,0,1.9-0.3,2.6-1c0.6-0.7,1-1.6,1-2.7v-7.4H395.3z"/>
	<path class="st1" d="M410.9,413.2v8.2h-2.7v-8c0-1.1-0.2-1.9-0.7-2.5c-0.4-0.5-1.1-0.8-2.1-0.8c-1.1,0-2,0.3-2.6,1
		c-0.7,0.7-1,1.6-1,2.8v7.5h-2.7v-13.2h2.7v2.1c0.4-0.8,1-1.4,1.8-1.8c0.8-0.4,1.6-0.6,2.6-0.6C409.3,407.9,410.9,409.7,410.9,413.2
		z"/>
	<path class="st1" d="M424,409.3c0.9,0.9,1.3,2.2,1.3,4v8.2h-2.6v-2.2c-0.3,0.8-0.9,1.4-1.5,1.8c-0.7,0.4-1.5,0.6-2.4,0.6
		c-0.9,0-1.7-0.2-2.4-0.5c-0.7-0.4-1.3-0.8-1.7-1.5c-0.4-0.6-0.6-1.3-0.6-2.1c0-1,0.2-1.7,0.7-2.3c0.5-0.5,1.3-0.9,2.5-1.2
		c1.1-0.2,2.7-0.4,4.7-0.4h0.6V413c0-1-0.2-1.7-0.6-2.2c-0.4-0.4-1.1-0.7-2.1-0.7c-1.5,0-3,0.5-4.5,1.4l-0.8-1.9
		c0.7-0.5,1.6-0.9,2.6-1.2s2-0.4,2.9-0.4C421.9,407.9,423.2,408.4,424,409.3z M421.7,418.6c0.6-0.7,0.9-1.5,0.9-2.6v-0.7h-0.5
		c-1.4,0-2.5,0.1-3.2,0.2s-1.3,0.3-1.6,0.6c-0.3,0.3-0.5,0.7-0.5,1.3c0,0.6,0.2,1.2,0.7,1.6c0.5,0.4,1,0.6,1.8,0.6
		C420.3,419.6,421.1,419.3,421.7,418.6z"/>
	<path class="st1" d="M449.6,408.8c0.9,0.6,1.6,1.4,2.1,2.4s0.7,2.3,0.7,3.6c0,1.3-0.2,2.5-0.7,3.6c-0.5,1-1.2,1.8-2.1,2.4
		c-0.9,0.6-1.9,0.8-3.1,0.8c-1,0-1.9-0.2-2.6-0.6s-1.3-1-1.7-1.8v7.1h-2.7v-18h2.7v2.2c0.4-0.8,1-1.4,1.7-1.8
		c0.8-0.4,1.6-0.6,2.6-0.6C447.7,407.9,448.7,408.2,449.6,408.8z M448.7,418.3c0.6-0.8,1-1.9,1-3.4c0-1.5-0.3-2.7-1-3.5
		c-0.7-0.8-1.6-1.2-2.7-1.2c-1.2,0-2.1,0.4-2.7,1.2c-0.6,0.8-1,2-1,3.5s0.3,2.6,1,3.5c0.6,0.8,1.6,1.2,2.7,1.2
		C447.1,419.5,448,419.1,448.7,418.3z"/>
	<path class="st1" d="M464.9,409.3c0.9,0.9,1.3,2.2,1.3,4v8.2h-2.6v-2.2c-0.3,0.8-0.9,1.4-1.5,1.8c-0.7,0.4-1.5,0.6-2.4,0.6
		c-0.9,0-1.7-0.2-2.4-0.5c-0.7-0.4-1.3-0.8-1.7-1.5c-0.4-0.6-0.6-1.3-0.6-2.1c0-1,0.2-1.7,0.7-2.3c0.5-0.5,1.3-0.9,2.5-1.2
		c1.1-0.2,2.7-0.4,4.7-0.4h0.6V413c0-1-0.2-1.7-0.6-2.2c-0.4-0.4-1.1-0.7-2.1-0.7c-1.5,0-3,0.5-4.5,1.4l-0.8-1.9
		c0.7-0.5,1.6-0.9,2.6-1.2s2-0.4,2.9-0.4C462.7,407.9,464,408.4,464.9,409.3z M462.6,418.6c0.6-0.7,0.9-1.5,0.9-2.6v-0.7H463
		c-1.4,0-2.5,0.1-3.2,0.2s-1.3,0.3-1.6,0.6c-0.3,0.3-0.5,0.7-0.5,1.3c0,0.6,0.2,1.2,0.7,1.6c0.5,0.4,1,0.6,1.8,0.6
		C461.1,419.6,461.9,419.3,462.6,418.6z"/>
	<path class="st1" d="M481.4,408.3v13.2h-2.6v-2.1c-0.4,0.8-1,1.3-1.7,1.7c-0.7,0.4-1.5,0.6-2.4,0.6c-3.2,0-4.8-1.8-4.8-5.3v-8.1
		h2.7v8c0,1.1,0.2,1.8,0.6,2.3s1.1,0.8,2,0.8c1.1,0,1.9-0.3,2.6-1c0.6-0.7,1-1.6,1-2.7v-7.4H481.4z"/>
	<path class="st1" d="M484.4,419.9l0.8-2c1.4,1,2.9,1.6,4.7,1.6c0.9,0,1.6-0.1,2-0.4c0.5-0.3,0.7-0.7,0.7-1.3c0-0.5-0.2-0.8-0.5-1.1
		c-0.3-0.3-0.9-0.5-1.6-0.7l-2.2-0.5c-1.2-0.3-2.1-0.7-2.6-1.3c-0.6-0.6-0.9-1.4-0.9-2.3c0-1.2,0.5-2.2,1.4-2.9s2.2-1.1,3.8-1.1
		c0.9,0,1.8,0.1,2.7,0.4s1.6,0.7,2.2,1.3l-0.8,1.9c-1.3-1-2.6-1.5-4-1.5c-0.8,0-1.5,0.2-2,0.5c-0.5,0.3-0.7,0.8-0.7,1.3
		c0,0.5,0.1,0.8,0.4,1.1c0.3,0.3,0.8,0.5,1.4,0.6l2.2,0.5c1.3,0.3,2.2,0.7,2.8,1.3c0.6,0.6,0.9,1.4,0.9,2.4c0,1.2-0.5,2.1-1.4,2.8
		c-1,0.7-2.3,1-3.9,1C487.6,421.6,485.8,421.1,484.4,419.9z"/>
	<path class="st1" d="M507.7,409.3c0.9,0.9,1.3,2.2,1.3,4v8.2h-2.6v-2.2c-0.3,0.8-0.9,1.4-1.5,1.8c-0.7,0.4-1.5,0.6-2.4,0.6
		c-0.9,0-1.7-0.2-2.4-0.5c-0.7-0.4-1.3-0.8-1.7-1.5c-0.4-0.6-0.6-1.3-0.6-2.1c0-1,0.2-1.7,0.7-2.3c0.5-0.5,1.3-0.9,2.5-1.2
		c1.1-0.2,2.7-0.4,4.7-0.4h0.6V413c0-1-0.2-1.7-0.6-2.2c-0.4-0.4-1.1-0.7-2.1-0.7c-1.5,0-3,0.5-4.5,1.4l-0.8-1.9
		c0.7-0.5,1.6-0.9,2.6-1.2s2-0.4,2.9-0.4C505.5,407.9,506.8,408.4,507.7,409.3z M505.4,418.6c0.6-0.7,0.9-1.5,0.9-2.6v-0.7h-0.5
		c-1.4,0-2.5,0.1-3.2,0.2s-1.3,0.3-1.6,0.6c-0.3,0.3-0.5,0.7-0.5,1.3c0,0.6,0.2,1.2,0.7,1.6c0.5,0.4,1,0.6,1.8,0.6
		C503.9,419.6,504.8,419.3,505.4,418.6z"/>
	<polygon class="st1" points="532.5,408.3 535.2,408.3 527.3,426.3 524.6,426.3 526.9,421.1 521.3,408.3 524.2,408.3 528.3,418.4 	
		"/>
	<path class="st1" d="M555,419.4l-0.1,2.1c-0.5,0.1-0.9,0.1-1.4,0.1c-1.7,0-3-0.4-3.8-1.3s-1.3-2-1.3-3.6v-6.4h-2.6v-2.1h2.6v-4h2.7
		v4h3.6v2.1h-3.6v6.3c0,1.9,0.9,2.9,2.7,2.9C554.2,419.5,554.6,419.5,555,419.4z"/>
	<path class="st1" d="M568.4,415.3h-9.3c0.2,2.8,1.6,4.2,4.2,4.2c1.5,0,2.9-0.5,4.1-1.5l0.8,1.9c-0.6,0.5-1.4,0.9-2.3,1.2
		c-0.9,0.3-1.8,0.5-2.8,0.5c-2.1,0-3.8-0.6-5-1.8c-1.2-1.2-1.8-2.9-1.8-5c0-1.3,0.3-2.5,0.8-3.6c0.5-1,1.3-1.9,2.2-2.4
		c1-0.6,2.1-0.9,3.3-0.9c1.8,0,3.2,0.6,4.2,1.7c1,1.2,1.5,2.7,1.5,4.8V415.3z M560.2,410.9c-0.6,0.7-1,1.6-1.1,2.8h6.9
		c-0.1-1.2-0.4-2.2-0.9-2.8s-1.4-1-2.4-1C561.7,409.9,560.9,410.3,560.2,410.9z"/>
	<path class="st1" d="M594,402.4v19h-2.7v-2.3c-0.4,0.8-1,1.4-1.7,1.8s-1.6,0.6-2.6,0.6c-1.1,0-2.1-0.3-3-0.9
		c-0.9-0.6-1.6-1.4-2.1-2.4c-0.5-1-0.7-2.2-0.7-3.6c0-1.4,0.2-2.6,0.7-3.6c0.5-1,1.2-1.8,2.1-2.4c0.9-0.6,1.9-0.8,3.1-0.8
		c1,0,1.9,0.2,2.6,0.6s1.3,1,1.7,1.8v-8H594z M590.3,418.2c0.6-0.8,1-2,1-3.5s-0.3-2.6-1-3.5c-0.6-0.8-1.6-1.2-2.7-1.2
		c-1.2,0-2.1,0.4-2.8,1.2s-1,1.9-1,3.4c0,1.5,0.3,2.6,1,3.5s1.6,1.3,2.8,1.3C588.8,419.5,589.7,419.1,590.3,418.2z"/>
	<path class="st1" d="M609.1,415.3h-9.3c0.2,2.8,1.6,4.2,4.2,4.2c1.5,0,2.9-0.5,4.1-1.5l0.8,1.9c-0.6,0.5-1.4,0.9-2.3,1.2
		c-0.9,0.3-1.8,0.5-2.8,0.5c-2.1,0-3.8-0.6-5-1.8c-1.2-1.2-1.8-2.9-1.8-5c0-1.3,0.3-2.5,0.8-3.6c0.5-1,1.3-1.9,2.2-2.4
		c1-0.6,2.1-0.9,3.3-0.9c1.8,0,3.2,0.6,4.2,1.7c1,1.2,1.5,2.7,1.5,4.8V415.3z M600.9,410.9c-0.6,0.7-1,1.6-1.1,2.8h6.9
		c-0.1-1.2-0.4-2.2-0.9-2.8s-1.4-1-2.4-1C602.3,409.9,601.5,410.3,600.9,410.9z"/>
	<path class="st1" d="M611.2,419.9l0.8-2c1.4,1,2.9,1.6,4.7,1.6c0.9,0,1.6-0.1,2-0.4c0.5-0.3,0.7-0.7,0.7-1.3c0-0.5-0.2-0.8-0.5-1.1
		c-0.3-0.3-0.9-0.5-1.6-0.7l-2.2-0.5c-1.2-0.3-2.1-0.7-2.6-1.3c-0.6-0.6-0.9-1.4-0.9-2.3c0-1.2,0.5-2.2,1.4-2.9s2.2-1.1,3.8-1.1
		c0.9,0,1.8,0.1,2.7,0.4s1.6,0.7,2.2,1.3l-0.8,1.9c-1.3-1-2.6-1.5-4-1.5c-0.8,0-1.5,0.2-2,0.5c-0.5,0.3-0.7,0.8-0.7,1.3
		c0,0.5,0.1,0.8,0.4,1.1c0.3,0.3,0.8,0.5,1.4,0.6l2.2,0.5c1.3,0.3,2.2,0.7,2.8,1.3c0.6,0.6,0.9,1.4,0.9,2.4c0,1.2-0.5,2.1-1.4,2.8
		c-1,0.7-2.3,1-3.9,1C614.4,421.6,612.6,421.1,611.2,419.9z"/>
	<path class="st1" d="M636.4,415.3H627c0.2,2.8,1.6,4.2,4.2,4.2c1.5,0,2.9-0.5,4.1-1.5l0.8,1.9c-0.6,0.5-1.4,0.9-2.3,1.2
		c-0.9,0.3-1.8,0.5-2.8,0.5c-2.1,0-3.8-0.6-5-1.8c-1.2-1.2-1.8-2.9-1.8-5c0-1.3,0.3-2.5,0.8-3.6c0.5-1,1.3-1.9,2.2-2.4
		c1-0.6,2.1-0.9,3.3-0.9c1.8,0,3.2,0.6,4.2,1.7c1,1.2,1.5,2.7,1.5,4.8V415.3z M628.2,410.9c-0.6,0.7-1,1.6-1.1,2.8h6.9
		c-0.1-1.2-0.4-2.2-0.9-2.8s-1.4-1-2.4-1C629.6,409.9,628.8,410.3,628.2,410.9z"/>
	<path class="st1" d="M648.8,409.3c0.9,0.9,1.3,2.2,1.3,4v8.2h-2.6v-2.2c-0.3,0.8-0.9,1.4-1.5,1.8c-0.7,0.4-1.5,0.6-2.4,0.6
		c-0.9,0-1.7-0.2-2.4-0.5c-0.7-0.4-1.3-0.8-1.7-1.5c-0.4-0.6-0.6-1.3-0.6-2.1c0-1,0.2-1.7,0.7-2.3c0.5-0.5,1.3-0.9,2.5-1.2
		c1.1-0.2,2.7-0.4,4.7-0.4h0.6V413c0-1-0.2-1.7-0.6-2.2c-0.4-0.4-1.1-0.7-2.1-0.7c-1.5,0-3,0.5-4.5,1.4l-0.8-1.9
		c0.7-0.5,1.6-0.9,2.6-1.2s2-0.4,2.9-0.4C646.6,407.9,647.9,408.4,648.8,409.3z M646.5,418.6c0.6-0.7,0.9-1.5,0.9-2.6v-0.7h-0.5
		c-1.4,0-2.5,0.1-3.2,0.2s-1.3,0.3-1.6,0.6c-0.3,0.3-0.5,0.7-0.5,1.3c0,0.6,0.2,1.2,0.7,1.6c0.5,0.4,1,0.6,1.8,0.6
		C645,419.6,645.9,419.3,646.5,418.6z"/>
	<path class="st1" d="M673.3,413.2v8.2h-2.7v-8.1c0-1.1-0.2-1.9-0.6-2.4c-0.4-0.5-1-0.8-1.9-0.8c-1,0-1.8,0.3-2.3,1
		c-0.6,0.7-0.9,1.6-0.9,2.8v7.5h-2.7v-8.1c0-1.1-0.2-1.9-0.6-2.4s-1-0.8-1.9-0.8c-1,0-1.8,0.3-2.4,1c-0.6,0.7-0.9,1.6-0.9,2.8v7.5
		h-2.7v-13.2h2.7v2c0.4-0.7,1-1.3,1.7-1.7s1.5-0.6,2.4-0.6c2,0,3.4,0.8,4,2.5c0.4-0.8,1-1.4,1.8-1.9c0.8-0.4,1.6-0.7,2.6-0.7
		C671.9,407.9,673.3,409.7,673.3,413.2z"/>
	<path class="st1" d="M679.4,420.8c-1-0.6-1.7-1.4-2.3-2.4c-0.5-1-0.8-2.2-0.8-3.6c0-1.4,0.3-2.6,0.8-3.6c0.5-1,1.3-1.8,2.3-2.4
		c1-0.6,2.1-0.8,3.4-0.8s2.4,0.3,3.4,0.8c1,0.6,1.7,1.4,2.3,2.4c0.5,1,0.8,2.2,0.8,3.6c0,1.4-0.3,2.6-0.8,3.6
		c-0.5,1-1.3,1.8-2.3,2.4c-1,0.6-2.1,0.8-3.4,0.8S680.4,421.3,679.4,420.8z M685.6,418.3c0.6-0.8,1-2,1-3.5c0-1.5-0.3-2.7-1-3.5
		c-0.6-0.8-1.6-1.2-2.8-1.2c-1.2,0-2.1,0.4-2.8,1.2c-0.6,0.8-1,2-1,3.5c0,1.5,0.3,2.7,1,3.5c0.6,0.8,1.6,1.2,2.8,1.2
		C684,419.5,684.9,419.1,685.6,418.3z"/>
	<path class="st1" d="M691.5,419.9l0.8-2c1.4,1,2.9,1.6,4.7,1.6c0.9,0,1.6-0.1,2-0.4c0.5-0.3,0.7-0.7,0.7-1.3c0-0.5-0.2-0.8-0.5-1.1
		c-0.3-0.3-0.9-0.5-1.6-0.7l-2.2-0.5c-1.2-0.3-2.1-0.7-2.6-1.3c-0.6-0.6-0.9-1.4-0.9-2.3c0-1.2,0.5-2.2,1.4-2.9s2.2-1.1,3.8-1.1
		c0.9,0,1.8,0.1,2.7,0.4s1.6,0.7,2.2,1.3l-0.8,1.9c-1.3-1-2.6-1.5-4-1.5c-0.8,0-1.5,0.2-2,0.5c-0.5,0.3-0.7,0.8-0.7,1.3
		c0,0.5,0.1,0.8,0.4,1.1c0.3,0.3,0.8,0.5,1.4,0.6l2.2,0.5c1.3,0.3,2.2,0.7,2.8,1.3c0.6,0.6,0.9,1.4,0.9,2.4c0,1.2-0.5,2.1-1.4,2.8
		c-1,0.7-2.3,1-3.9,1C694.7,421.6,692.8,421.1,691.5,419.9z"/>
	<path class="st1" d="M727.3,408.3v13.2h-2.6v-2.1c-0.4,0.8-1,1.3-1.7,1.7c-0.7,0.4-1.5,0.6-2.4,0.6c-3.2,0-4.8-1.8-4.8-5.3v-8.1
		h2.7v8c0,1.1,0.2,1.8,0.6,2.3s1.1,0.8,2,0.8c1.1,0,1.9-0.3,2.6-1c0.6-0.7,1-1.6,1-2.7v-7.4H727.3z"/>
	<path class="st1" d="M742.9,413.2v8.2h-2.7v-8c0-1.1-0.2-1.9-0.7-2.5c-0.4-0.5-1.1-0.8-2.1-0.8c-1.1,0-2,0.3-2.6,1
		c-0.7,0.7-1,1.6-1,2.8v7.5h-2.7v-13.2h2.7v2.1c0.4-0.8,1-1.4,1.8-1.8c0.8-0.4,1.6-0.6,2.6-0.6C741.3,407.9,742.9,409.7,742.9,413.2
		z"/>
	<path class="st1" d="M139.5,446.3h2.5l1.3,11.9l-5,0L139.5,446.3z M138.6,444.5v-4.3h4.4v4.3H138.6z"/>
	<polygon class="st1" points="146.2,453.4 146.2,434.4 159,434.4 159,437.7 150.3,437.7 150.3,442.1 158.5,442.1 158.5,445.4 
		150.3,445.4 150.3,453.4 	"/>
	<path class="st1" d="M172.9,447.6h-8.6c0.1,1.1,0.5,1.8,1,2.3c0.6,0.5,1.4,0.7,2.4,0.7c0.7,0,1.4-0.1,2-0.3c0.7-0.2,1.3-0.5,1.8-1
		l1.1,2.7c-0.6,0.5-1.4,0.9-2.4,1.2c-0.9,0.3-1.9,0.4-2.8,0.4c-2.2,0-4-0.6-5.3-1.8c-1.3-1.2-1.9-2.9-1.9-5c0-1.3,0.3-2.5,0.8-3.6
		s1.3-1.9,2.3-2.4c1-0.6,2.1-0.9,3.4-0.9c1.9,0,3.3,0.6,4.4,1.8c1.1,1.2,1.6,2.8,1.6,4.9V447.6z M165.1,443.4
		c-0.5,0.5-0.7,1.2-0.9,2.1h5.2c-0.1-1-0.3-1.7-0.7-2.2s-1-0.7-1.8-0.7C166.2,442.7,165.6,442.9,165.1,443.4z"/>
	<rect x="175.4" y="434.4" class="st1" width="4.1" height="19"/>
	<path class="st1" d="M182.5,433.8h4.4v3.8h-4.4V433.8z M182.6,453.4v-13.3h4.1v13.3H182.6z"/>
	<polygon class="st1" points="194.3,450.4 201.2,450.4 201.2,453.4 189.5,453.4 189.5,450.6 196.1,443.2 189.6,443.2 189.6,440.2 
		201,440.2 201,442.9 	"/>
	<path class="st1" d="M224.6,434.4v19h-4.1v-2c-0.4,0.7-1,1.2-1.7,1.6c-0.7,0.4-1.6,0.6-2.5,0.6c-1.1,0-2.1-0.3-3-0.9
		c-0.9-0.6-1.6-1.4-2.1-2.5c-0.5-1.1-0.7-2.3-0.7-3.6s0.2-2.6,0.7-3.6s1.2-1.8,2.1-2.4c0.9-0.6,1.9-0.8,3.1-0.8
		c0.9,0,1.7,0.2,2.4,0.6c0.7,0.4,1.3,0.9,1.7,1.6v-7.6H224.6z M219.8,449.6c0.5-0.7,0.8-1.6,0.8-2.8c0-1.2-0.3-2.2-0.8-2.8
		c-0.5-0.6-1.2-1-2.2-1s-1.7,0.3-2.2,1c-0.5,0.6-0.8,1.6-0.8,2.8c0,1.2,0.3,2.2,0.8,2.8c0.5,0.7,1.3,1,2.2,1
		S219.3,450.2,219.8,449.6z"/>
	<path class="st1" d="M227.8,453.4v-13.3h4.1v13.3H227.8z M231.1,438.5h-2.5l2.6-5.5h4L231.1,438.5z"/>
	<path class="st1" d="M245.3,441.3c0.9,0.9,1.4,2.4,1.4,4.3v7.8h-3.9v-2c-0.3,0.7-0.7,1.2-1.4,1.6s-1.4,0.6-2.2,0.6
		c-0.9,0-1.7-0.2-2.4-0.5c-0.7-0.4-1.3-0.9-1.7-1.5c-0.4-0.6-0.6-1.4-0.6-2.2c0-1,0.2-1.7,0.7-2.3c0.5-0.6,1.3-1,2.4-1.2
		c1.1-0.3,2.6-0.4,4.5-0.4h0.7v-0.5c0-0.8-0.2-1.3-0.5-1.7c-0.3-0.3-0.9-0.5-1.8-0.5c-0.6,0-1.4,0.1-2.2,0.4c-0.8,0.2-1.5,0.6-2.3,1
		l-1.1-2.7c0.8-0.5,1.7-0.9,2.8-1.2c1.1-0.3,2.1-0.5,3.1-0.5C242.8,439.9,244.3,440.3,245.3,441.3z M242.1,450.1
		c0.5-0.5,0.7-1.2,0.7-2.1v-0.5h-0.5c-1.5,0-2.5,0.1-3.1,0.4c-0.6,0.2-0.9,0.7-0.9,1.3c0,0.5,0.2,0.9,0.5,1.2
		c0.3,0.3,0.8,0.5,1.3,0.5C240.9,450.9,241.6,450.6,242.1,450.1z"/>
	<path class="st1" d="M250.4,447.3l-1.3-12.9l5,0l-1.3,12.9H250.4z M249.5,449.1h4.4v4.3h-4.4V449.1z"/>
	<g>
		<defs>
			<rect id="SVGID_1_" x="451" y="649.2" width="43.6" height="66"/>
		</defs>
		<clipPath id="SVGID_2_">
			<use xlink:href="#SVGID_1_"  style="overflow:visible;"/>
		</clipPath>
		<path class="st2" d="M490.4,674c6.1-23.8-10.3-21.4-10.3-21.4s-4.8-4.2-13.4-1.6c-8.8,2.7-9.2,8.9-14.7,11.6c0,0,1.5,2.1,4.9,2.1
			c-0.2,2.7,0.2,5.8,1.1,9.3H490.4z"/>
	</g>
	<path class="st3" d="M461.6,669.4c-2,0-3.6,1.4-4,3.3c0.1,0.4,0.2,0.9,0.3,1.4h4.1v-4.6C461.9,669.4,461.8,669.4,461.6,669.4z"/>
	<path class="st3" d="M490.4,674c0.1-0.5,0.2-0.9,0.3-1.3c-0.4-1.9-2-3.3-4-3.3c-0.1,0-0.3,0-0.4,0v4.6L490.4,674L490.4,674z"/>
	<path class="st4" d="M493.6,714.2h-38.9v-10.4c0-8.3,6.7-15,15-15h8.9c8.3,0,15,6.7,15,15V714.2z"/>
	<rect x="454.8" y="711.8" class="st5" width="38.9" height="2.3"/>
	<polygon class="st6" points="471.9,694.3 476.5,694.3 478.5,705.7 474.2,710.1 469.9,705.7 	"/>
	<path class="st7" d="M473.7,707.3l-3.5-3.6l-0.4,2l4.3,4.4l4.3-4.4l-0.4-2l-3.5,3.6C474.4,707.6,474,707.6,473.7,707.3z"/>
	<polygon class="st7" points="476.5,694.3 471.9,694.3 469.8,688.8 478.6,688.8 	"/>
	<path class="st8" d="M478.9,659.3c-5,6.6-16.9,7.9-16.9,7.9v9.5c0,6.7,5.4,12.2,12.2,12.2c6.7,0,12.2-5.4,12.2-12.2v-9.2
		C486.4,667.4,481.4,665.8,478.9,659.3z"/>
	<path class="st9" d="M474.2,686.5c-6.7,0-12.2-5.4-12.2-12.2v2.3c0,6.7,5.4,12.2,12.2,12.2c6.7,0,12.2-5.4,12.2-12.2v-2.3
		C486.4,681,480.9,686.5,474.2,686.5z"/>
	<path class="st8" d="M462,676.6v-4.9c-0.1,0-0.3,0-0.4,0c-2.2,0-4.1,1.8-4.1,4.1s1.8,4.1,4.1,4.1c0.3,0,0.6,0,0.8-0.1
		C462.2,678.8,462,677.7,462,676.6z"/>
	<path class="st8" d="M486.8,671.7c-0.1,0-0.3,0-0.4,0v4.9c0,1.1-0.1,2.1-0.4,3.1c0.3,0.1,0.5,0.1,0.8,0.1c2.2,0,4.1-1.8,4.1-4.1
		S489,671.7,486.8,671.7z"/>
	<path class="st9" d="M461.6,677.5c-1.8,0-3.4-1.2-3.9-2.9c-0.1,0.4-0.2,0.8-0.2,1.2c0,2.2,1.8,4.1,4.1,4.1c0.3,0,0.6,0,0.8-0.1
		c-0.2-0.7-0.3-1.5-0.4-2.3C461.9,677.5,461.8,677.5,461.6,677.5z"/>
	<path class="st9" d="M486.8,677.5c-0.2,0-0.3,0-0.5,0c-0.1,0.8-0.2,1.5-0.4,2.3c0.3,0.1,0.5,0.1,0.8,0.1c2.2,0,4.1-1.8,4.1-4.1
		c0-0.4-0.1-0.8-0.2-1.2C490.2,676.3,488.6,677.5,486.8,677.5z"/>
	<path class="st10" d="M469,669.7c2.5,1.1,3.7,4,2.6,6.6c-1.1,2.5-4,3.7-6.6,2.6c-2.5-1.1-3.7-4-2.6-6.6
		C463.5,669.8,466.5,668.6,469,669.7z"/>
	<path class="st10" d="M486,672.3c1.1,2.5-0.1,5.5-2.6,6.6c-2.5,1.1-5.5-0.1-6.6-2.6c-1.1-2.5,0.1-5.5,2.6-6.6
		C482,668.6,484.9,669.7,486,672.3z"/>
	<g>
		<defs>
			<rect id="SVGID_3_" x="451" y="649.2" width="43.6" height="66"/>
		</defs>
		<clipPath id="SVGID_4_">
			<use xlink:href="#SVGID_3_"  style="overflow:visible;"/>
		</clipPath>
		<path class="st11" d="M491.4,694.2c-0.3-0.4-0.9-0.5-1.4-0.2c-0.4,0.3-0.5,0.9-0.2,1.4c1.9,2.5,2.9,5.4,2.9,8.5v9.4H487v-7.5
			c0-0.5-0.4-1-1-1c-0.5,0-1,0.4-1,1v7.5h-21.6v-7.5c0-0.5-0.4-1-1-1c-0.5,0-1,0.4-1,1v7.5h-5.8v-3.5c0-0.5-0.4-1-1-1
			c-0.5,0-1,0.4-1,1v4.5c0,0.5,0.4,1,1,1h38.9c0.5,0,1-0.4,1-1v-10.4C494.6,700.3,493.5,697,491.4,694.2z"/>
		<path class="st11" d="M456.9,674c-0.2,0.6-0.4,1.2-0.4,1.8c0,2.8,2.3,5,5,5l0.1,0c1,3,3.1,5.6,5.9,7.2
			c-7.8,1.1-13.8,7.8-13.8,15.8v2c0,0.5,0.4,1,1,1c0.5,0,1-0.4,1-1v-2c0-7.5,6-13.7,13.4-14l1.8,4.6l-2,11.1c-0.1,0.3,0,0.6,0.3,0.9
			l4.3,4.4c0.4,0.4,1,0.4,1.4,0l4.3-4.4c0.2-0.2,0.3-0.5,0.3-0.9l-2-11.1l1.8-4.6c2.9,0.1,5.7,1.1,8,2.9c0.4,0.3,1,0.3,1.4-0.2
			c0.3-0.4,0.3-1-0.2-1.4c-2.3-1.8-4.9-2.8-7.7-3.2c2.7-1.6,4.8-4.1,5.9-7.2l0.1,0c2.8,0,5-2.3,5-5c0-0.7-0.1-1.3-0.4-1.8
			c2.2-8.8,1.6-15.2-1.7-18.9c-3.2-3.6-7.9-3.5-9.4-3.4c-1.3-1-6.2-3.9-14-1.5c-0.9,0.3-1.8,0.6-2.6,1c-0.5,0.2-0.7,0.8-0.5,1.3
			c0.2,0.5,0.8,0.7,1.3,0.5c0.7-0.3,1.5-0.7,2.4-0.9c3.3-1,6.5-1.1,9.3-0.2c2.1,0.6,3.2,1.6,3.2,1.6c0.2,0.2,0.5,0.3,0.8,0.2
			c0,0,5-0.7,8.1,2.7c1.3,1.4,2.1,3.4,2.4,5.9c0.3,2.7,0.1,5.9-0.7,9.7c-0.7-0.6-1.6-1-2.6-1.1v-3.4c0-0.4-0.3-0.8-0.7-0.9
			c0,0-4.6-1.6-6.9-7.6c-0.1-0.3-0.4-0.6-0.8-0.6c-0.4,0-0.7,0.1-0.9,0.4c-4.7,6.2-16.1,7.5-16.2,7.5c-0.5,0.1-0.9,0.5-0.9,1v3.6
			c-1,0.1-1.9,0.5-2.6,1.1c-0.5-2.6-0.7-4.9-0.6-7.1c0-0.3-0.1-0.5-0.3-0.7s-0.4-0.3-0.7-0.3c-1.5,0-2.6-0.5-3.3-0.9
			c1.8-1.2,3.1-2.7,4.3-4.3c1-1.3,2.1-2.6,3.6-3.8c0.4-0.3,0.5-0.9,0.1-1.4c-0.3-0.4-0.9-0.5-1.4-0.1c-1.6,1.3-2.8,2.7-3.9,4.1
			c-1.5,1.8-2.8,3.4-4.9,4.4c-0.5,0.2-0.7,1-0.4,1.4c0.1,0.1,1.5,2.1,4.7,2.4C455.8,668.2,456.2,671,456.9,674z M477.2,689.8
			l-1.4,3.6h-3.2l-1.4-3.6H477.2z M474.2,708.8l-3.3-3.3l1.8-10.1h2.9l1.8,10.1L474.2,708.8z M474.2,687.9c-5.4,0-10-3.9-11-9
			c1,0.9,2.4,1.4,3.8,1.4c3,0,5.4-2.2,5.9-5h2.5c0.5,2.8,2.9,5,5.9,5c1.5,0,2.8-0.5,3.8-1.4C484.2,684,479.6,687.9,474.2,687.9z
			 M463,674.3c0-2.2,1.8-4.1,4.1-4.1c2.2,0,4.1,1.8,4.1,4.1s-1.8,4.1-4.1,4.1C464.8,678.3,463,676.5,463,674.3z M481.4,678.3
			c-2.2,0-4.1-1.8-4.1-4.1s1.8-4.1,4.1-4.1s4.1,1.8,4.1,4.1S483.6,678.3,481.4,678.3z M489.9,675.8c0,1.6-1.2,2.9-2.7,3.1
			c0.1-0.7,0.2-1.5,0.2-2.2v-3.9C488.8,673,489.9,674.3,489.9,675.8z M478.6,661.1c2.1,4.4,5.4,6.3,6.8,7v1.8
			c-1.1-1-2.5-1.6-4.1-1.6c-3,0-5.4,2.2-5.9,5H473c-0.5-2.8-2.9-5-5.9-5c-1.6,0-3,0.6-4.1,1.6V668
			C465.7,667.6,473.9,666,478.6,661.1z M461,672.8v3.9c0,0.8,0.1,1.5,0.2,2.2c-1.5-0.2-2.7-1.5-2.7-3.1
			C458.5,674.3,459.6,673,461,672.8z"/>
	</g>
	<path d="M477.2,679.6c-0.5-0.2-1.1,0-1.3,0.5c0,0-0.4,0.8-1.8,0.8c-1.4,0-1.8-0.8-1.8-0.8c-0.2-0.5-0.8-0.7-1.3-0.5
		c-0.5,0.2-0.7,0.8-0.5,1.3c0.3,0.7,1.4,2,3.6,2c2.2,0,3.3-1.3,3.6-2C478,680.3,477.7,679.8,477.2,679.6z"/>
	<path class="st12" d="M409.6,651c-8.2,0-14.8,6.6-14.8,14.8v26.4h29.6v-26.4C424.4,657.6,417.7,651,409.6,651z"/>
	<path class="st13" d="M419.1,667.9c0,10.6-9.5,16.9-9.5,16.9v7.4h14.8v-26.4c0-8.2-6.6-14.8-14.8-14.8
		C409.6,651,419.1,657.3,419.1,667.9z"/>
	<rect x="404.3" y="683.8" class="st8" width="10.6" height="11.6"/>
	<path class="st9" d="M404.3,687.9c1.6,0.7,3.4,1.2,5.3,1.2c1.9,0,3.7-0.4,5.3-1.2v-4.1h-10.6V687.9z"/>
	<path class="st8" d="M420.1,668.9h-2.9c-2.9,0-5.6-1.1-7.7-3.2c-2,2-4.8,3.2-7.7,3.2H399v7.4c0,5.8,4.7,10.6,10.6,10.6
		c5.8,0,10.6-4.7,10.6-10.6V668.9z"/>
	<path class="st8" d="M399,670c-2.3,0-4.2,1.9-4.2,4.2s1.9,4.2,4.2,4.2h21.1c2.3,0,4.2-1.9,4.2-4.2s-1.9-4.2-4.2-4.2H399z"/>
	<path class="st14" d="M426.4,692.9l-11.5-3.8l-5.3,5.3l-5.3-5.3l-11.5,3.8c-2.6,0.9-4.3,3.3-4.3,6v15.5h42.3v-15.5
		C430.7,696.2,429,693.7,426.4,692.9z"/>
	<path class="st15" d="M426.4,692.9l-11.5-3.8l-2.5,2.5l11.3,5.6c1.7,0.9,2.8,2.6,2.8,4.6v12.7h4.2v-15.5
		C430.7,696.2,429,693.7,426.4,692.9z"/>
	<path class="st10" d="M406.4,668.9H399v6.3h7.4c0.6,0,1.1-0.5,1.1-1.1V670C407.4,669.4,407,668.9,406.4,668.9z"/>
	<path class="st10" d="M412.7,668.9c-0.6,0-1.1,0.5-1.1,1.1v4.2c0,0.6,0.5,1.1,1.1,1.1h7.4v-6.3H412.7z"/>
	<polygon class="st16" points="417,690.1 415.9,698.6 409.6,694.3 403.2,698.6 402.2,690.1 404.3,689 409.6,694.3 414.8,689 	"/>
	<path d="M426.7,691.9l-1.3-0.4v-25.7c0-8.7-7.1-15.9-15.9-15.9c-8.7,0-15.9,7.1-15.9,15.9v25.7l-1.3,0.4c-3,1-5.1,3.8-5.1,7v16.6
		h44.4v-16.6C431.8,695.7,429.7,692.9,426.7,691.9z M415.9,688.3v-2.2c2.3-1.5,4.1-3.9,4.9-6.6c1-0.1,1.8-0.5,2.5-1v12.3
		L415.9,688.3z M398,677.2c-1.3-0.4-2.2-1.6-2.2-3c0-1.4,0.9-2.5,2.1-3v5.1C397.9,676.6,397.9,676.9,398,677.2z M421.2,671.3
		c1.2,0.4,2.1,1.6,2.1,3c0,1.4-0.9,2.6-2.2,3c0-0.3,0-0.6,0-0.9V671.3z M419.1,674.2h-6.3V670h4.5h1.9V674.2z M410.6,670v1.1h-2.1
		V670c0-0.6-0.3-1.2-0.7-1.6c0.6-0.4,1.2-0.8,1.8-1.2c0.6,0.5,1.1,0.9,1.8,1.2C410.9,668.8,410.6,669.4,410.6,670z M406.4,670v4.2
		H400V670h1.9H406.4z M406.4,676.3c1.2,0,2.1-0.9,2.1-2.1v-1.1h2.1v1.1c0,1.2,0.9,2.1,2.1,2.1h6.3c0,5.2-4.3,9.5-9.5,9.5
		c-5.2,0-9.5-4.3-9.5-9.5H406.4z M409.6,688c1.5,0,2.9-0.3,4.2-0.8v1.4l-4.2,4.2l-4.2-4.2v-1.4C406.6,687.7,408.1,688,409.6,688z
		 M404,690.2l3.9,3.9l-3.8,2.6l-0.8-6.2L404,690.2z M415.1,690.2l0.7,0.2l-0.8,6.2l-3.8-2.6L415.1,690.2z M409.6,652
		c7.6,0,13.7,6.2,13.7,13.7v4.3c-0.6-0.5-1.3-0.8-2.1-1v-3.3h-2.1v2.1h-1.9c-2.6,0-5.1-1-6.9-2.9l-0.7-0.7l-0.7,0.7
		c-1.8,1.8-4.3,2.9-6.9,2.9H400v-2.1h-2.1v3.3c-0.8,0.2-1.5,0.5-2.1,1v-4.3C395.8,658.2,402,652,409.6,652z M395.8,678.4
		c0.7,0.6,1.6,0.9,2.5,1c0.8,2.8,2.5,5.1,4.9,6.6v2.2l-7.4,2.5V678.4z M429.6,713.4h-6.3v-2.7c1.4-1.4,2.1-3.2,2.1-5.2
		s-0.8-3.8-2.1-5.2v-1.7h-2.1v2.6l0.6,0.6c1,1,1.6,2.3,1.6,3.8c0,1.4-0.6,2.8-1.6,3.8l-0.6,0.6v3.6h-23.3v-3.6l-0.6-0.6
		c-1-1-1.6-2.3-1.6-3.8c0-1.4,0.6-2.8,1.6-3.8l0.6-0.6v-2.6h-2.1v1.7c-1.4,1.4-2.1,3.2-2.1,5.2s0.8,3.8,2.1,5.2v2.7h-6.3v-14.5
		c0-2.3,1.5-4.3,3.6-5l8.1-2.7l1.2,9.2l7-4.7l0.1,0.1l0.1-0.1l7,4.7l1.2-9.2l8.1,2.7c2.2,0.7,3.6,2.7,3.6,5V713.4z"/>
	<path d="M409.6,682.7c2.3,0,4.2-1.9,4.2-4.2h-2.1c0,1.2-0.9,2.1-2.1,2.1c-1.2,0-2.1-0.9-2.1-2.1h-2.1
		C405.3,680.8,407.2,682.7,409.6,682.7z"/>
	<rect x="408.5" y="700.7" width="2.1" height="2.1"/>
	<rect x="408.5" y="704.9" width="2.1" height="2.1"/>
	<rect x="408.5" y="709.1" width="2.1" height="2.1"/>
</g>
</svg>
