<?xml version="1.0" encoding="utf-8"?>
<!-- Generator: Adobe Illustrator 24.0.2, SVG Export Plug-In . SVG Version: 6.00 Build 0)  -->
<svg version="1.1" id="Capa_1" xmlns="http://www.w3.org/2000/svg" xmlns:xlink="http://www.w3.org/1999/xlink" x="0px" y="0px"
	 viewBox="0 0 177 90" style="enable-background:new 0 0 177 90;" xml:space="preserve">
<style type="text/css">
	.st0{fill:#FF5E3E;}
</style>
<g>
	<path class="st0" d="M11.7,16.5c0,0.6-0.1,1.1-0.3,1.6c-0.2,0.5-0.5,0.9-0.9,1.3c-0.4,0.4-0.9,0.7-1.4,0.9
		c-0.5,0.2-1.1,0.3-1.7,0.3c-0.6,0-1.1-0.1-1.7-0.3c-0.5-0.2-1-0.5-1.4-0.9c-0.4-0.4-0.7-0.8-0.9-1.3c-0.2-0.5-0.3-1-0.3-1.6
		c0-0.6,0.1-1.1,0.4-1.6c0.2-0.5,0.5-0.9,0.9-1.3c0.4-0.4,0.8-0.7,1.3-0.9c0.5-0.2,1.1-0.3,1.7-0.3c0.6,0,1.1,0.1,1.7,0.3
		s1,0.5,1.4,0.9c0.4,0.4,0.7,0.8,0.9,1.3C11.6,15.4,11.7,16,11.7,16.5z M3.7,44V23.2h7.3V44H3.7z"/>
	<path class="st0" d="M39.7,35.2c-2,0.5-4.3,0.7-6.7,0.7c-2.5,0-4.8-0.4-6.9-1.2c-2.1-0.8-3.9-1.9-5.4-3.3c-1.5-1.4-2.7-3.2-3.5-5.2
		c-0.9-2-1.3-4.2-1.3-6.7c0-2.5,0.4-4.8,1.3-6.8c0.9-2,2.1-3.7,3.6-5.2c1.5-1.4,3.3-2.5,5.4-3.3c2.1-0.8,4.3-1.1,6.6-1.1
		c2.5,0,4.8,0.4,6.9,1.1c2.1,0.7,3.8,1.8,5.1,3l-4.8,5.4c-0.7-0.8-1.7-1.5-2.9-2.1c-1.2-0.5-2.6-0.8-4.1-0.8c-1.3,0-2.5,0.2-3.7,0.7
		c-1.1,0.5-2.1,1.2-2.9,2c-0.8,0.9-1.5,1.9-1.9,3.1c-0.5,1.2-0.7,2.5-0.7,3.9c0,1.4,0.2,2.8,0.6,4c0.4,1.2,1,2.2,1.8,3.1
		s1.8,1.5,3,2c1.2,0.5,2.5,0.7,4.1,0.7c0.9,0,1.7-0.1,2.5-0.2s1.5-0.3,2.2-0.6v-5.7h-5.9v-6.1h12.8v16.5
		C43.5,34.1,41.8,34.7,39.7,35.2z"/>
	<path class="st0" d="M63.9,19.2C63.6,19.1,63.3,19,63,19c-0.3,0-0.6,0-0.9,0c-1,0-1.8,0.2-2.4,0.5s-1.2,0.8-1.6,1.3
		c-0.4,0.5-0.7,1-0.9,1.6S57,23.5,57,23.9v11.2h-7.2V13.3h7v3.2h0.1c0.6-1.1,1.3-2,2.4-2.7c1-0.7,2.2-1.1,3.6-1.1c0.3,0,0.6,0,0.9,0
		c0.3,0,0.5,0.1,0.7,0.1L63.9,19.2z"/>
	<path class="st0" d="M65,16.2c1.3-1.2,2.8-2.2,4.5-2.8c1.7-0.6,3.5-0.9,5.3-0.9c1.8,0,3.4,0.2,4.7,0.7s2.3,1.2,3.1,2.1
		c0.8,1,1.4,2.2,1.7,3.6c0.4,1.5,0.5,3.2,0.5,5.2v11h-6.6v-2.3h-0.1c-0.6,0.9-1.4,1.6-2.5,2.1c-1.1,0.5-2.4,0.7-3.7,0.7
		c-0.9,0-1.8-0.1-2.7-0.4c-0.9-0.2-1.8-0.6-2.6-1.1c-0.8-0.5-1.4-1.2-1.9-2.1c-0.5-0.9-0.7-2-0.7-3.3c0-1.6,0.4-2.9,1.3-3.8
		s2-1.7,3.3-2.2c1.4-0.5,2.9-0.9,4.6-1.1c1.7-0.2,3.3-0.3,4.9-0.3v-0.4c0-1.1-0.4-1.9-1.1-2.4c-0.8-0.5-1.7-0.8-2.8-0.8
		c-1,0-2,0.2-3,0.7c-1,0.4-1.8,1-2.4,1.6L65,16.2z M78.3,25.6h-0.9c-0.8,0-1.6,0-2.4,0.1c-0.8,0.1-1.5,0.2-2.2,0.4
		c-0.6,0.2-1.2,0.5-1.6,0.9c-0.4,0.4-0.6,0.9-0.6,1.6c0,0.4,0.1,0.8,0.3,1.1c0.2,0.3,0.4,0.5,0.7,0.7c0.3,0.2,0.6,0.3,1,0.4
		c0.4,0.1,0.7,0.1,1.1,0.1c1.5,0,2.6-0.4,3.4-1.2c0.8-0.8,1.2-1.9,1.2-3.3V25.6z"/>
	<path class="st0" d="M104.3,20.3c-0.4-0.5-1-1-1.7-1.3c-0.7-0.3-1.4-0.5-2.2-0.5c-0.8,0-1.5,0.2-2.1,0.5c-0.6,0.3-1.1,0.7-1.6,1.2
		c-0.4,0.5-0.8,1.1-1,1.8c-0.3,0.7-0.4,1.4-0.4,2.2s0.1,1.5,0.4,2.2c0.2,0.7,0.6,1.3,1,1.8c0.5,0.5,1,0.9,1.6,1.2
		c0.6,0.3,1.3,0.4,2.1,0.4c0.7,0,1.5-0.1,2.2-0.4c0.7-0.3,1.3-0.7,1.7-1.2l4,4.9c-0.9,0.9-2.1,1.6-3.5,2.1c-1.4,0.5-3,0.7-4.6,0.7
		c-1.7,0-3.3-0.3-4.8-0.8s-2.8-1.3-3.9-2.3c-1.1-1-2-2.2-2.6-3.7c-0.6-1.4-1-3.1-1-4.9c0-1.8,0.3-3.4,1-4.8c0.6-1.4,1.5-2.7,2.6-3.7
		c1.1-1,2.4-1.8,3.9-2.3s3.1-0.8,4.8-0.8c0.8,0,1.6,0.1,2.4,0.2c0.8,0.1,1.5,0.3,2.2,0.6s1.4,0.6,2,0.9c0.6,0.4,1.1,0.8,1.6,1.2
		L104.3,20.3z"/>
	<path class="st0" d="M118,6.2c0,0.6-0.1,1.1-0.3,1.6c-0.2,0.5-0.5,0.9-0.9,1.3c-0.4,0.4-0.8,0.6-1.3,0.8c-0.5,0.2-1,0.3-1.6,0.3
		c-1.2,0-2.2-0.4-2.9-1.2c-0.8-0.8-1.2-1.7-1.2-2.8c0-0.5,0.1-1,0.3-1.5c0.2-0.5,0.5-0.9,0.9-1.3c0.4-0.4,0.8-0.6,1.3-0.9
		s1-0.3,1.6-0.3c0.6,0,1.1,0.1,1.6,0.3c0.5,0.2,1,0.5,1.3,0.8c0.4,0.4,0.7,0.8,0.9,1.3C117.9,5.2,118,5.7,118,6.2z M110.3,35.2V13.2
		h7.2v21.9H110.3z"/>
	<path class="st0" d="M121.8,16.2c1.3-1.2,2.8-2.2,4.5-2.8c1.7-0.6,3.5-0.9,5.3-0.9c1.8,0,3.4,0.2,4.7,0.7s2.3,1.2,3.1,2.1
		c0.8,1,1.4,2.2,1.7,3.6c0.4,1.5,0.5,3.2,0.5,5.2v11h-6.6v-2.3h-0.1c-0.6,0.9-1.4,1.6-2.5,2.1c-1.1,0.5-2.4,0.7-3.7,0.7
		c-0.9,0-1.8-0.1-2.7-0.4c-0.9-0.2-1.8-0.6-2.6-1.1c-0.8-0.5-1.4-1.2-1.9-2.1c-0.5-0.9-0.7-2-0.7-3.3c0-1.6,0.4-2.9,1.3-3.8
		s2-1.7,3.3-2.2c1.4-0.5,2.9-0.9,4.6-1.1c1.7-0.2,3.3-0.3,4.9-0.3v-0.4c0-1.1-0.4-1.9-1.1-2.4c-0.8-0.5-1.7-0.8-2.8-0.8
		c-1,0-2,0.2-3,0.7c-1,0.4-1.8,1-2.4,1.6L121.8,16.2z M135.1,25.6h-0.9c-0.8,0-1.6,0-2.4,0.1c-0.8,0.1-1.5,0.2-2.2,0.4
		c-0.6,0.2-1.2,0.5-1.6,0.9c-0.4,0.4-0.6,0.9-0.6,1.6c0,0.4,0.1,0.8,0.3,1.1c0.2,0.3,0.4,0.5,0.7,0.7c0.3,0.2,0.6,0.3,1,0.4
		c0.4,0.1,0.7,0.1,1.1,0.1c1.5,0,2.6-0.4,3.4-1.2c0.8-0.8,1.2-1.9,1.2-3.3V25.6z"/>
	<path class="st0" d="M158.8,19.7c-0.6-0.6-1.3-1-2.1-1.4s-1.6-0.6-2.5-0.6c-0.7,0-1.3,0.1-1.9,0.4c-0.6,0.3-0.9,0.7-0.9,1.4
		c0,0.6,0.3,1.1,0.9,1.3c0.6,0.3,1.7,0.6,3.1,0.9c0.8,0.2,1.6,0.4,2.5,0.7c0.8,0.3,1.6,0.7,2.3,1.3c0.7,0.5,1.2,1.2,1.6,1.9
		c0.4,0.8,0.6,1.7,0.6,2.7c0,1.4-0.3,2.5-0.8,3.5c-0.6,1-1.3,1.7-2.2,2.3s-1.9,1-3,1.3c-1.1,0.3-2.2,0.4-3.3,0.4
		c-1.8,0-3.5-0.3-5.3-0.9c-1.7-0.6-3.1-1.4-4.3-2.5l4-4.3c0.6,0.7,1.4,1.3,2.4,1.8c0.9,0.5,1.9,0.7,3,0.7c0.6,0,1.2-0.1,1.7-0.4
		c0.6-0.3,0.9-0.8,0.9-1.5c0-0.7-0.4-1.2-1.1-1.5c-0.7-0.3-1.8-0.7-3.3-1c-0.8-0.2-1.5-0.4-2.3-0.7s-1.4-0.7-2-1.2
		c-0.6-0.5-1.1-1.1-1.5-1.8c-0.4-0.7-0.6-1.6-0.6-2.6c0-1.3,0.3-2.4,0.8-3.4s1.3-1.7,2.2-2.3c0.9-0.6,1.9-1,2.9-1.3
		c1.1-0.3,2.1-0.4,3.2-0.4c1.6,0,3.2,0.3,4.8,0.8c1.6,0.5,2.9,1.3,4,2.3L158.8,19.7z"/>
	<path class="st0" d="M169.6,40.6h-5.9l3.3-12.5h6.9L169.6,40.6z"/>
	<path class="st0" d="M51.4,66.1c0,1.5-0.2,3-0.7,4.4c-0.5,1.4-1.2,2.6-2,3.7c-0.9,1.1-2,1.9-3.3,2.6c-1.3,0.6-2.8,1-4.4,1
		c-1.3,0-2.6-0.3-3.8-0.8c-1.2-0.5-2.1-1.3-2.8-2.2h-0.1v13H27V55.2h6.9v2.7H34c0.7-0.9,1.6-1.7,2.8-2.3c1.2-0.7,2.6-1,4.2-1
		c1.6,0,3,0.3,4.3,0.9c1.3,0.6,2.4,1.5,3.3,2.5c0.9,1.1,1.6,2.3,2.1,3.7C51.2,63.1,51.4,64.6,51.4,66.1z M44.4,66.1
		c0-0.7-0.1-1.4-0.3-2.1c-0.2-0.7-0.5-1.3-1-1.8c-0.4-0.5-1-0.9-1.6-1.3c-0.6-0.3-1.4-0.5-2.2-0.5c-0.8,0-1.6,0.2-2.2,0.5
		c-0.6,0.3-1.2,0.7-1.6,1.3c-0.5,0.5-0.8,1.1-1.1,1.8c-0.2,0.7-0.4,1.4-0.4,2.1s0.1,1.4,0.4,2.1s0.6,1.3,1.1,1.8
		c0.5,0.5,1,1,1.6,1.3c0.6,0.3,1.4,0.5,2.2,0.5c0.9,0,1.6-0.2,2.2-0.5c0.6-0.3,1.2-0.7,1.6-1.3c0.4-0.5,0.7-1.1,1-1.8
		C44.3,67.5,44.4,66.8,44.4,66.1z"/>
	<path class="st0" d="M69.1,61.2c-0.3-0.1-0.6-0.1-0.9-0.2c-0.3,0-0.6,0-0.9,0c-1,0-1.8,0.2-2.4,0.5s-1.2,0.8-1.6,1.3
		c-0.4,0.5-0.7,1-0.9,1.6s-0.3,1.1-0.3,1.5v11.2h-7.2V55.3h7v3.2h0.1c0.6-1.1,1.3-2,2.4-2.7c1-0.7,2.2-1.1,3.6-1.1
		c0.3,0,0.6,0,0.9,0c0.3,0,0.5,0.1,0.7,0.1L69.1,61.2z"/>
	<path class="st0" d="M93.6,66.1c0,1.8-0.3,3.4-1,4.9c-0.6,1.5-1.5,2.7-2.6,3.7c-1.1,1-2.4,1.8-3.9,2.4c-1.5,0.6-3,0.8-4.7,0.8
		c-1.6,0-3.2-0.3-4.7-0.8s-2.8-1.3-3.9-2.4c-1.1-1-2-2.2-2.6-3.7c-0.6-1.5-1-3.1-1-4.9s0.3-3.4,1-4.8s1.5-2.7,2.6-3.7
		c1.1-1,2.4-1.8,3.9-2.3c1.5-0.5,3-0.8,4.7-0.8c1.7,0,3.2,0.3,4.7,0.8c1.5,0.5,2.8,1.3,3.9,2.3c1.1,1,2,2.2,2.6,3.7
		C93.3,62.7,93.6,64.3,93.6,66.1z M86.7,66.1c0-0.7-0.1-1.4-0.4-2.1c-0.2-0.7-0.6-1.3-1-1.8c-0.4-0.5-1-0.9-1.6-1.3
		c-0.6-0.3-1.4-0.5-2.2-0.5c-0.9,0-1.6,0.2-2.2,0.5c-0.6,0.3-1.2,0.7-1.6,1.3c-0.4,0.5-0.7,1.1-1,1.8c-0.2,0.7-0.3,1.4-0.3,2.1
		s0.1,1.4,0.3,2.1s0.5,1.3,1,1.8c0.4,0.5,1,1,1.6,1.3c0.6,0.3,1.4,0.5,2.2,0.5c0.9,0,1.6-0.2,2.2-0.5c0.6-0.3,1.2-0.8,1.6-1.3
		c0.4-0.5,0.8-1.2,1-1.8C86.5,67.5,86.7,66.8,86.7,66.1z"/>
	<path class="st0" d="M110.7,49.2c-0.3-0.1-0.6-0.2-0.9-0.2c-0.4-0.1-0.7-0.1-1.1-0.1c-0.7,0-1.2,0.1-1.6,0.4
		c-0.4,0.2-0.7,0.6-1,0.9c-0.2,0.4-0.4,0.8-0.5,1.3c-0.1,0.5-0.1,1-0.1,1.5v2.2h4.9v5.4h-4.9v16.5h-7.2V60.6h-4v-5.4h4v-2.1
		c0-1.3,0.1-2.6,0.4-3.8c0.3-1.2,0.8-2.3,1.5-3.2s1.7-1.7,2.9-2.2c1.2-0.5,2.7-0.8,4.6-0.8c0.6,0,1.2,0,1.8,0.1
		c0.6,0.1,1.2,0.2,1.7,0.3L110.7,49.2z"/>
	<path class="st0" d="M133.7,66.5c0,0.3,0,0.6,0,0.9s0,0.6,0,0.8h-15.9c0.1,0.6,0.2,1.2,0.5,1.7c0.3,0.5,0.7,0.9,1.2,1.3
		c0.5,0.4,1,0.7,1.6,0.9c0.6,0.2,1.2,0.3,1.9,0.3c1.1,0,2.1-0.2,2.9-0.6c0.8-0.4,1.4-1,1.9-1.7l5,3.2c-1,1.5-2.4,2.6-4.1,3.5
		c-1.7,0.8-3.6,1.2-5.9,1.2c-1.6,0-3.2-0.3-4.7-0.8c-1.5-0.5-2.8-1.3-3.9-2.2c-1.1-1-2-2.2-2.6-3.6c-0.6-1.4-0.9-3.1-0.9-4.9
		c0-1.8,0.3-3.4,0.9-4.9c0.6-1.5,1.5-2.7,2.5-3.7c1.1-1,2.3-1.8,3.7-2.4c1.4-0.6,3-0.8,4.7-0.8c1.6,0,3.1,0.3,4.4,0.8
		c1.3,0.5,2.5,1.3,3.5,2.4c1,1,1.7,2.3,2.3,3.7C133.5,62.9,133.7,64.6,133.7,66.5z M127.1,63.7c0-1.1-0.4-2.1-1.1-2.9
		c-0.7-0.8-1.8-1.2-3.2-1.2c-0.7,0-1.3,0.1-1.9,0.3c-0.6,0.2-1.1,0.5-1.5,0.9c-0.4,0.4-0.8,0.8-1.1,1.3c-0.3,0.5-0.4,1-0.4,1.6
		H127.1z"/>
	<path class="st0" d="M146.4,73.4c0,0.6-0.1,1.1-0.3,1.7c-0.2,0.5-0.5,1-0.9,1.3c-0.4,0.4-0.9,0.7-1.4,0.9c-0.5,0.2-1.1,0.3-1.7,0.3
		c-0.6,0-1.1-0.1-1.7-0.3s-1-0.5-1.3-0.9c-0.4-0.4-0.7-0.8-0.9-1.3c-0.2-0.5-0.4-1-0.4-1.6c0-0.6,0.1-1.1,0.3-1.6
		c0.2-0.5,0.5-1,0.9-1.3c0.4-0.4,0.8-0.7,1.4-0.9s1.1-0.3,1.7-0.3c0.6,0,1.1,0.1,1.7,0.3s1,0.5,1.4,0.9c0.4,0.4,0.7,0.8,0.9,1.3
		C146.3,72.3,146.4,72.9,146.4,73.4z M138.4,66.7V46h7.3v20.7H138.4z"/>
</g>
</svg>
