<?xml version="1.0" encoding="utf-8"?>
<!-- Generator: Adobe Illustrator 24.0.2, SVG Export Plug-In . SVG Version: 6.00 Build 0)  -->
<svg version="1.1" id="Capa_1" xmlns="http://www.w3.org/2000/svg" xmlns:xlink="http://www.w3.org/1999/xlink" x="0px" y="0px"
	 viewBox="0 0 882 148" style="enable-background:new 0 0 882 148;" xml:space="preserve">
<style type="text/css">
	.st0{fill:#FF5E3E;}
	.st1{fill:none;stroke:#FF5E3E;stroke-miterlimit:10;}
</style>
<g>
	<g>
		<g>
			<path class="st0" d="M281.1,52c2.8,0,5-2.2,5-5c0-2.8-2.2-5-5-5s-5,2.2-5,5C276.1,49.8,278.3,52,281.1,52"/>
			<path class="st0" d="M300.9,81.3c-0.7,0-1.3-0.6-1.3-1.3V38h-8.1v43.8c0,3.5,2.8,6.3,6.3,6.3h6.2v-6.9H300.9z"/>
			<polygon class="st0" points="209.6,41 209.6,51.7 216.4,51.7 216.4,48.9 226.9,48.9 226.9,81.3 223.8,81.3 223.8,88.2 
				238.6,88.2 238.6,81.3 235.5,81.3 235.5,48.9 246,48.9 246,51.7 252.8,51.7 252.8,41 			"/>
			<polygon class="st0" points="285.2,81.3 285.2,56.9 267.7,56.9 267.7,63.8 277.1,63.8 277.1,81.3 267.7,81.3 267.7,88.2 
				288.5,88.2 288.5,81.3 			"/>
			<polygon class="st0" points="246,56.9 246,81.3 242.7,81.3 242.7,88.2 263.7,88.2 263.7,81.3 254.1,81.3 254.1,63.8 263.7,63.8 
				263.7,56.9 250.9,56.9 			"/>
			<path class="st0" d="M343.9,69.4c0.1-1,0.4-2,0.8-2.8s1.1-1.5,1.8-2.1c0.7-0.6,1.6-1,2.5-1.3c0.9-0.3,1.9-0.4,3-0.4
				c2.3,0,3.9,0.6,5.1,1.8c1.1,1.2,1.7,2.8,1.7,4.8H343.9z M364.8,63.2c-0.9-1.7-2-3-3.4-4c-1.4-1-2.9-1.7-4.5-2.1
				c-1.6-0.4-3.2-0.6-4.8-0.6c-2.3,0-4.4,0.3-6.4,1c-2,0.7-3.7,1.7-5.2,3c-1.5,1.3-2.6,3-3.5,5c-0.8,2-1.3,4.3-1.3,7
				c0,0.9,0.1,1.8,0.1,2.6c0.2,1.5,0.5,2.8,1,4.1c0.2,0.5,1.7,4.3,5.8,6.7c2.7,1.6,6.5,2.2,11.7,2.2c5.2,0,7.8-0.2,7.8-0.2v-6.6v0
				c0,0-3.6,0-8.1,0c-6.5,0-8.7-4-9.2-5.1c-0.1-0.3-0.3-0.7-0.3-1H366C366.6,72.1,366.3,66.1,364.8,63.2"/>
			<path class="st0" d="M332.8,69.5v-10v-0.1c0-0.3-0.2-0.6-0.5-0.7c-1-0.4-2.4-0.9-4.1-1.3c-2-0.5-4.1-0.8-6.4-0.8
				c-2.4,0-4.7,0.4-6.7,1.1c-2.1,0.7-3.8,1.7-5.4,3.1c-1.5,1.4-2.7,3.1-3.5,5S305,70,305,72.6c0,2.4,0.4,4.6,1.1,6.5
				c0.7,2,1.6,3.4,3,4.9c2.2,2.3,6.5,4,11.6,4.2l10,0v-6.9h-7.7c-3.3,0-6.4-1.5-7.3-2.3c-0.8-0.8-1.4-1.8-1.9-2.9
				c-0.4-1.1-0.7-2.3-0.7-3.6c0-1.6,0.3-2.9,0.8-4.1c0.5-1.1,1.3-2.1,2.1-2.8c0.9-0.7,1.9-1.3,3-1.6c1.1-0.3,2.2-0.5,3.4-0.5
				c1.3,0,2.5,0.1,3.8,0.4v5.6H332.8z"/>
		</g>
	</g>
	<g>
		<g>
			<path class="st1" d="M483.3,63.4l-0.8,5.6h4.8v5.9h-5.5l-1.7,11.3h-6.2l1.6-11.3h-4.5l-1.6,11.3h-6.2l1.6-11.3h-4.8V69h5.6
				l0.8-5.6h-4.8v-5.9h5.5l1.6-11.3h6.3l-1.6,11.3h4.4l1.6-11.3h6.2l-1.6,11.3h4.7v5.9H483.3z M472.7,63.4l-0.7,5.6h4.4l0.8-5.6
				H472.7z"/>
		</g>
	</g>
	<g>
		<g>
			<path class="st0" d="M513,84.6l0.1-10H513l-3.7,10h-2.4l-3.6-10h-0.1l0.1,10h-3.2V70.4h4.9l3.2,9.1h0.1l3.1-9.1h5v14.2H513z"/>
			<path class="st0" d="M522.6,71.4c0,0.3-0.1,0.5-0.2,0.7c-0.1,0.2-0.2,0.4-0.4,0.6s-0.4,0.3-0.6,0.4c-0.2,0.1-0.5,0.1-0.7,0.1
				c-0.5,0-1-0.2-1.3-0.5c-0.4-0.4-0.5-0.8-0.5-1.3c0-0.2,0-0.5,0.1-0.7c0.1-0.2,0.2-0.4,0.4-0.6c0.2-0.2,0.4-0.3,0.6-0.4
				c0.2-0.1,0.5-0.2,0.7-0.2c0.3,0,0.5,0,0.7,0.1c0.2,0.1,0.4,0.2,0.6,0.4c0.2,0.2,0.3,0.4,0.4,0.6
				C522.5,70.9,522.6,71.1,522.6,71.4z M519,84.6v-10h3.3v10H519z"/>
			<path class="st0" d="M532.5,74.1c-0.3-0.4-0.7-0.7-1.2-0.9s-0.9-0.3-1.4-0.3c-0.2,0-0.5,0-0.7,0.1c-0.2,0-0.4,0.1-0.6,0.2
				c-0.2,0.1-0.3,0.3-0.5,0.4S528,74,528,74.3c0,0.2,0,0.4,0.2,0.6c0.1,0.2,0.2,0.3,0.4,0.4c0.2,0.1,0.4,0.2,0.7,0.3
				c0.3,0.1,0.6,0.2,0.9,0.3c0.5,0.2,1,0.3,1.5,0.5c0.5,0.2,1,0.5,1.4,0.8c0.4,0.3,0.8,0.7,1.1,1.2c0.3,0.5,0.4,1.1,0.4,1.8
				c0,0.8-0.2,1.5-0.5,2.1c-0.3,0.6-0.7,1.1-1.2,1.5s-1.1,0.7-1.7,0.9c-0.7,0.2-1.3,0.3-2,0.3c-1,0-2-0.2-2.9-0.5
				c-0.9-0.4-1.7-0.9-2.4-1.5l2.2-2.3c0.3,0.4,0.8,0.8,1.4,1.1c0.6,0.3,1.1,0.4,1.7,0.4c0.3,0,0.5,0,0.7-0.1s0.5-0.1,0.6-0.3
				s0.3-0.3,0.4-0.5c0.1-0.2,0.2-0.4,0.2-0.7c0-0.3-0.1-0.5-0.2-0.7c-0.1-0.2-0.3-0.4-0.6-0.5s-0.6-0.3-0.9-0.4
				c-0.4-0.1-0.8-0.3-1.3-0.4c-0.5-0.1-0.9-0.3-1.3-0.5c-0.4-0.2-0.8-0.5-1.2-0.8s-0.6-0.7-0.8-1.1c-0.2-0.4-0.3-1-0.3-1.6
				c0-0.8,0.2-1.5,0.5-2c0.3-0.6,0.7-1,1.3-1.4c0.5-0.4,1.1-0.6,1.8-0.8c0.7-0.2,1.3-0.3,2-0.3c0.8,0,1.6,0.1,2.5,0.4
				c0.8,0.3,1.6,0.7,2.2,1.3L532.5,74.1z"/>
			<path class="st0" d="M536.5,75.9c0.6-0.6,1.3-1,2.1-1.3c0.8-0.3,1.6-0.4,2.4-0.4c0.8,0,1.6,0.1,2.1,0.3c0.6,0.2,1.1,0.5,1.4,1
				c0.4,0.4,0.6,1,0.8,1.6c0.2,0.7,0.3,1.4,0.3,2.4v5h-3v-1.1h-0.1c-0.3,0.4-0.6,0.7-1.2,1c-0.5,0.2-1.1,0.3-1.7,0.3
				c-0.4,0-0.8-0.1-1.2-0.2c-0.4-0.1-0.8-0.3-1.2-0.5c-0.4-0.2-0.6-0.6-0.9-1c-0.2-0.4-0.3-0.9-0.3-1.5c0-0.7,0.2-1.3,0.6-1.7
				c0.4-0.4,0.9-0.8,1.5-1c0.6-0.2,1.3-0.4,2.1-0.5c0.8-0.1,1.5-0.1,2.2-0.1v-0.2c0-0.5-0.2-0.9-0.5-1.1c-0.3-0.2-0.8-0.4-1.3-0.4
				c-0.5,0-0.9,0.1-1.4,0.3c-0.4,0.2-0.8,0.4-1.1,0.7L536.5,75.9z M542.5,80.2h-0.4c-0.4,0-0.7,0-1.1,0c-0.4,0-0.7,0.1-1,0.2
				c-0.3,0.1-0.5,0.2-0.7,0.4s-0.3,0.4-0.3,0.7c0,0.2,0,0.3,0.1,0.5s0.2,0.2,0.3,0.3c0.1,0.1,0.3,0.1,0.5,0.2s0.3,0,0.5,0
				c0.7,0,1.2-0.2,1.5-0.6c0.4-0.4,0.5-0.9,0.5-1.5V80.2z"/>
			<path class="st0" d="M547.9,84.6V69.4h3.3v15.2H547.9z"/>
			<path class="st0" d="M560.3,84.6v-1.4h0c-0.1,0.2-0.3,0.4-0.5,0.6c-0.2,0.2-0.4,0.4-0.7,0.5c-0.3,0.1-0.5,0.3-0.9,0.4
				c-0.3,0.1-0.6,0.1-1,0.1c-0.7,0-1.2-0.1-1.7-0.4c-0.5-0.2-0.8-0.6-1.1-0.9c-0.3-0.4-0.5-0.8-0.6-1.3c-0.1-0.5-0.2-1-0.2-1.5v-6.2
				h3.3V80c0,0.3,0,0.5,0.1,0.8s0.1,0.5,0.2,0.7c0.1,0.2,0.3,0.4,0.5,0.5s0.4,0.2,0.7,0.2c0.6,0,1-0.2,1.3-0.6
				c0.3-0.4,0.5-0.9,0.5-1.5v-5.4h3.3v10H560.3z"/>
			<path class="st0" d="M573.5,84.6v-1.3h0c-0.3,0.5-0.8,0.9-1.4,1.2c-0.6,0.3-1.2,0.4-1.9,0.4c-0.7,0-1.4-0.1-2-0.4
				c-0.6-0.3-1.1-0.7-1.5-1.2c-0.4-0.5-0.7-1.1-0.9-1.7c-0.2-0.6-0.3-1.3-0.3-2c0-0.7,0.1-1.4,0.3-2s0.5-1.2,0.9-1.7
				c0.4-0.5,0.9-0.9,1.5-1.1c0.6-0.3,1.2-0.4,2-0.4c0.7,0,1.4,0.1,1.9,0.4c0.5,0.3,0.9,0.6,1.2,0.9h0v-6.2h3.3v15.2H573.5z
				 M573.4,79.6c0-0.3-0.1-0.6-0.2-0.9c-0.1-0.3-0.3-0.6-0.5-0.8c-0.2-0.2-0.5-0.4-0.8-0.6c-0.3-0.1-0.6-0.2-1-0.2
				c-0.4,0-0.7,0.1-1,0.2c-0.3,0.1-0.5,0.3-0.7,0.6c-0.2,0.2-0.4,0.5-0.5,0.8c-0.1,0.3-0.2,0.6-0.2,0.9c0,0.3,0,0.6,0.2,1
				c0.1,0.3,0.3,0.6,0.5,0.8c0.2,0.2,0.4,0.4,0.7,0.6c0.3,0.1,0.6,0.2,1,0.2c0.4,0,0.7-0.1,1-0.2c0.3-0.1,0.5-0.3,0.8-0.6
				c0.2-0.2,0.4-0.5,0.5-0.8C573.3,80.2,573.4,79.9,573.4,79.6z"/>
			<path class="st0" d="M590,74.7c0,0.8-0.2,1.5-0.5,2.1s-0.7,1-1.2,1.4s-1.1,0.6-1.8,0.8c-0.7,0.2-1.4,0.2-2.1,0.2h-1.7v5.4h-3.4
				V70.4h5.2c0.8,0,1.5,0.1,2.2,0.2c0.7,0.2,1.3,0.4,1.8,0.7s0.9,0.8,1.2,1.3C589.8,73.2,590,73.9,590,74.7z M586.5,74.8
				c0-0.3-0.1-0.6-0.2-0.8s-0.3-0.4-0.5-0.5c-0.2-0.1-0.5-0.2-0.8-0.2c-0.3,0-0.6-0.1-0.9-0.1h-1.5v3.3h1.4c0.3,0,0.6,0,0.9-0.1
				s0.6-0.1,0.8-0.3c0.2-0.1,0.4-0.3,0.6-0.5S586.5,75.1,586.5,74.8z"/>
			<path class="st0" d="M598.2,77.3c-0.1,0-0.3-0.1-0.4-0.1c-0.1,0-0.3,0-0.4,0c-0.4,0-0.8,0.1-1.1,0.2c-0.3,0.2-0.5,0.4-0.7,0.6
				c-0.2,0.2-0.3,0.5-0.4,0.7c-0.1,0.3-0.1,0.5-0.1,0.7v5.1h-3.3v-10h3.2V76h0c0.3-0.5,0.6-0.9,1.1-1.3s1-0.5,1.6-0.5
				c0.1,0,0.3,0,0.4,0s0.2,0,0.3,0.1L598.2,77.3z"/>
			<path class="st0" d="M603.2,71.4c0,0.3-0.1,0.5-0.2,0.7c-0.1,0.2-0.2,0.4-0.4,0.6s-0.4,0.3-0.6,0.4c-0.2,0.1-0.5,0.1-0.7,0.1
				c-0.5,0-1-0.2-1.3-0.5c-0.4-0.4-0.5-0.8-0.5-1.3c0-0.2,0-0.5,0.1-0.7c0.1-0.2,0.2-0.4,0.4-0.6c0.2-0.2,0.4-0.3,0.6-0.4
				c0.2-0.1,0.5-0.2,0.7-0.2c0.3,0,0.5,0,0.7,0.1c0.2,0.1,0.4,0.2,0.6,0.4c0.2,0.2,0.3,0.4,0.4,0.6
				C603.1,70.9,603.2,71.1,603.2,71.4z M599.6,84.6v-10h3.3v10H599.6z"/>
			<path class="st0" d="M618.2,84.6v-5.5c0-0.3,0-0.6-0.1-0.8s-0.1-0.5-0.2-0.7c-0.1-0.2-0.3-0.3-0.4-0.5c-0.2-0.1-0.4-0.2-0.7-0.2
				c-0.3,0-0.5,0.1-0.7,0.2c-0.2,0.1-0.4,0.3-0.5,0.5c-0.1,0.2-0.2,0.4-0.3,0.7c-0.1,0.3-0.1,0.5-0.1,0.8v5.4h-3.3v-5.7
				c0-0.6-0.1-1-0.3-1.4c-0.2-0.3-0.6-0.5-1.1-0.5c-0.5,0-0.9,0.2-1.2,0.6c-0.3,0.4-0.4,0.9-0.4,1.5v5.4h-3.3v-10h3.2V76h0
				c0.1-0.2,0.3-0.4,0.5-0.6c0.2-0.2,0.4-0.4,0.7-0.5c0.3-0.2,0.5-0.3,0.9-0.4s0.7-0.1,1-0.1c0.7,0,1.3,0.1,1.8,0.4
				c0.5,0.3,0.9,0.7,1.2,1.3c0.3-0.5,0.8-0.9,1.3-1.2s1.2-0.5,1.9-0.5c0.7,0,1.3,0.1,1.7,0.4c0.5,0.2,0.8,0.6,1.1,1
				c0.3,0.4,0.5,0.8,0.6,1.3c0.1,0.5,0.2,1,0.2,1.4v6.2H618.2z"/>
			<path class="st0" d="M633.8,79.7c0,0.1,0,0.3,0,0.4c0,0.1,0,0.3,0,0.4h-7.2c0,0.3,0.1,0.5,0.3,0.8s0.3,0.4,0.5,0.6
				s0.5,0.3,0.7,0.4c0.3,0.1,0.6,0.1,0.9,0.1c0.5,0,1-0.1,1.3-0.3c0.4-0.2,0.7-0.4,0.9-0.8l2.3,1.4c-0.5,0.7-1.1,1.2-1.9,1.6
				c-0.8,0.4-1.7,0.6-2.7,0.6c-0.7,0-1.5-0.1-2.1-0.4c-0.7-0.2-1.3-0.6-1.8-1c-0.5-0.4-0.9-1-1.2-1.7c-0.3-0.7-0.4-1.4-0.4-2.2
				c0-0.8,0.1-1.6,0.4-2.2c0.3-0.7,0.7-1.2,1.1-1.7c0.5-0.5,1-0.8,1.7-1.1c0.7-0.3,1.4-0.4,2.1-0.4c0.7,0,1.4,0.1,2,0.4
				c0.6,0.2,1.1,0.6,1.6,1.1s0.8,1,1,1.7C633.7,78.1,633.8,78.8,633.8,79.7z M630.8,78.4c0-0.5-0.2-1-0.5-1.3
				c-0.3-0.4-0.8-0.6-1.5-0.6c-0.3,0-0.6,0-0.9,0.2s-0.5,0.2-0.7,0.4c-0.2,0.2-0.4,0.4-0.5,0.6c-0.1,0.2-0.2,0.5-0.2,0.7H630.8z"/>
			<path class="st0" d="M642.2,77.3c-0.1,0-0.3-0.1-0.4-0.1c-0.1,0-0.3,0-0.4,0c-0.4,0-0.8,0.1-1.1,0.2c-0.3,0.2-0.5,0.4-0.7,0.6
				c-0.2,0.2-0.3,0.5-0.4,0.7c-0.1,0.3-0.1,0.5-0.1,0.7v5.1h-3.3v-10h3.2V76h0c0.3-0.5,0.6-0.9,1.1-1.3s1-0.5,1.6-0.5
				c0.1,0,0.3,0,0.4,0s0.2,0,0.3,0.1L642.2,77.3z"/>
			<path class="st0" d="M654.2,79.5c0,0.8-0.1,1.6-0.4,2.2c-0.3,0.7-0.7,1.2-1.2,1.7c-0.5,0.5-1.1,0.8-1.8,1.1
				c-0.7,0.3-1.4,0.4-2.1,0.4c-0.7,0-1.5-0.1-2.1-0.4c-0.7-0.3-1.3-0.6-1.8-1.1c-0.5-0.5-0.9-1-1.2-1.7c-0.3-0.7-0.4-1.4-0.4-2.2
				c0-0.8,0.1-1.6,0.4-2.2c0.3-0.7,0.7-1.2,1.2-1.7c0.5-0.5,1.1-0.8,1.8-1c0.7-0.2,1.4-0.4,2.1-0.4c0.8,0,1.5,0.1,2.1,0.4
				c0.7,0.2,1.3,0.6,1.8,1c0.5,0.5,0.9,1,1.2,1.7C654,78,654.2,78.7,654.2,79.5z M651,79.5c0-0.3-0.1-0.6-0.2-0.9
				c-0.1-0.3-0.3-0.6-0.5-0.8c-0.2-0.2-0.4-0.4-0.7-0.6c-0.3-0.1-0.6-0.2-1-0.2s-0.7,0.1-1,0.2c-0.3,0.1-0.5,0.3-0.7,0.6
				c-0.2,0.2-0.3,0.5-0.4,0.8c-0.1,0.3-0.2,0.6-0.2,0.9c0,0.3,0.1,0.6,0.2,0.9c0.1,0.3,0.3,0.6,0.5,0.8c0.2,0.2,0.4,0.4,0.7,0.6
				c0.3,0.1,0.6,0.2,1,0.2c0.4,0,0.7-0.1,1-0.2c0.3-0.1,0.5-0.3,0.7-0.6c0.2-0.2,0.4-0.5,0.5-0.8C650.9,80.2,651,79.9,651,79.5z"/>
		</g>
	</g>
	<g>
		<g>
			<path class="st0" d="M507.6,52.6c-0.3-0.4-0.7-0.7-1.2-0.9s-0.9-0.3-1.4-0.3c-0.2,0-0.5,0-0.7,0.1c-0.2,0-0.4,0.1-0.6,0.2
				c-0.2,0.1-0.3,0.3-0.5,0.4s-0.2,0.4-0.2,0.7c0,0.2,0,0.4,0.2,0.6c0.1,0.2,0.2,0.3,0.4,0.4c0.2,0.1,0.4,0.2,0.7,0.3
				c0.3,0.1,0.6,0.2,0.9,0.3c0.5,0.2,1,0.3,1.5,0.5c0.5,0.2,1,0.5,1.4,0.8c0.4,0.3,0.8,0.7,1.1,1.2c0.3,0.5,0.4,1.1,0.4,1.8
				c0,0.8-0.2,1.5-0.5,2.1c-0.3,0.6-0.7,1.1-1.2,1.5s-1.1,0.7-1.7,0.9c-0.7,0.2-1.3,0.3-2,0.3c-1,0-2-0.2-2.9-0.5
				c-0.9-0.4-1.7-0.9-2.4-1.5l2.2-2.3c0.3,0.4,0.8,0.8,1.4,1.1c0.6,0.3,1.1,0.4,1.7,0.4c0.3,0,0.5,0,0.7-0.1s0.5-0.1,0.6-0.3
				s0.3-0.3,0.4-0.5c0.1-0.2,0.2-0.4,0.2-0.7c0-0.3-0.1-0.5-0.2-0.7c-0.1-0.2-0.3-0.4-0.6-0.5s-0.6-0.3-0.9-0.4
				c-0.4-0.1-0.8-0.3-1.3-0.4c-0.5-0.1-0.9-0.3-1.3-0.5c-0.4-0.2-0.8-0.5-1.2-0.8s-0.6-0.7-0.8-1.1c-0.2-0.4-0.3-1-0.3-1.6
				c0-0.8,0.2-1.5,0.5-2c0.3-0.6,0.7-1,1.3-1.4c0.5-0.4,1.1-0.6,1.8-0.8c0.7-0.2,1.3-0.3,2-0.3c0.8,0,1.6,0.1,2.5,0.4
				c0.8,0.3,1.6,0.7,2.2,1.3L507.6,52.6z"/>
			<path class="st0" d="M521.6,58.2c0,0.1,0,0.3,0,0.4c0,0.1,0,0.3,0,0.4h-7.2c0,0.3,0.1,0.5,0.3,0.8s0.3,0.4,0.5,0.6
				s0.5,0.3,0.7,0.4c0.3,0.1,0.6,0.1,0.9,0.1c0.5,0,1-0.1,1.3-0.3c0.4-0.2,0.7-0.4,0.9-0.8l2.3,1.4c-0.5,0.7-1.1,1.2-1.9,1.6
				c-0.8,0.4-1.7,0.6-2.7,0.6c-0.7,0-1.5-0.1-2.1-0.4c-0.7-0.2-1.3-0.6-1.8-1c-0.5-0.4-0.9-1-1.2-1.7c-0.3-0.7-0.4-1.4-0.4-2.2
				c0-0.8,0.1-1.6,0.4-2.2c0.3-0.7,0.7-1.2,1.1-1.7c0.5-0.5,1-0.8,1.7-1.1c0.7-0.3,1.4-0.4,2.1-0.4c0.7,0,1.4,0.1,2,0.4
				c0.6,0.2,1.1,0.6,1.6,1.1s0.8,1,1,1.7C521.5,56.6,521.6,57.3,521.6,58.2z M518.6,56.9c0-0.5-0.2-1-0.5-1.3
				c-0.3-0.4-0.8-0.6-1.5-0.6c-0.3,0-0.6,0-0.9,0.2s-0.5,0.2-0.7,0.4c-0.2,0.2-0.4,0.4-0.5,0.6c-0.1,0.2-0.2,0.5-0.2,0.7H518.6z"/>
			<path class="st0" d="M530,55.8c-0.1,0-0.3-0.1-0.4-0.1c-0.1,0-0.3,0-0.4,0c-0.4,0-0.8,0.1-1.1,0.2c-0.3,0.2-0.5,0.4-0.7,0.6
				c-0.2,0.2-0.3,0.5-0.4,0.7c-0.1,0.3-0.1,0.5-0.1,0.7v5.1h-3.3v-10h3.2v1.4h0c0.3-0.5,0.6-0.9,1.1-1.3s1-0.5,1.6-0.5
				c0.1,0,0.3,0,0.4,0s0.2,0,0.3,0.1L530,55.8z"/>
			<path class="st0" d="M544.5,63.1l0.1-10h-0.1l-3.7,10h-2.4l-3.6-10h-0.1l0.1,10h-3.2V48.9h4.9l3.2,9.1h0.1l3.1-9.1h5v14.2H544.5z
				"/>
			<path class="st0" d="M560.4,58.2c0,0.1,0,0.3,0,0.4c0,0.1,0,0.3,0,0.4h-7.2c0,0.3,0.1,0.5,0.3,0.8s0.3,0.4,0.5,0.6
				s0.5,0.3,0.7,0.4c0.3,0.1,0.6,0.1,0.9,0.1c0.5,0,1-0.1,1.3-0.3c0.4-0.2,0.7-0.4,0.9-0.8l2.3,1.4c-0.5,0.7-1.1,1.2-1.9,1.6
				c-0.8,0.4-1.7,0.6-2.7,0.6c-0.7,0-1.5-0.1-2.1-0.4c-0.7-0.2-1.3-0.6-1.8-1c-0.5-0.4-0.9-1-1.2-1.7c-0.3-0.7-0.4-1.4-0.4-2.2
				c0-0.8,0.1-1.6,0.4-2.2c0.3-0.7,0.7-1.2,1.1-1.7c0.5-0.5,1-0.8,1.7-1.1c0.7-0.3,1.4-0.4,2.1-0.4c0.7,0,1.4,0.1,2,0.4
				c0.6,0.2,1.1,0.6,1.6,1.1s0.8,1,1,1.7C560.2,56.6,560.4,57.3,560.4,58.2z M557.3,56.9c0-0.5-0.2-1-0.5-1.3
				c-0.3-0.4-0.8-0.6-1.5-0.6c-0.3,0-0.6,0-0.9,0.2s-0.5,0.2-0.7,0.4c-0.2,0.2-0.4,0.4-0.5,0.6c-0.1,0.2-0.2,0.5-0.2,0.7H557.3z"/>
			<path class="st0" d="M565.7,63.3c0,0.6-0.1,1.2-0.2,1.8c-0.1,0.6-0.3,1-0.6,1.5c-0.3,0.4-0.7,0.7-1.2,1c-0.5,0.2-1.2,0.4-2,0.4
				c-0.2,0-0.5,0-0.7,0c-0.3,0-0.5-0.1-0.7-0.1l0.2-2.7c0.1,0,0.2,0.1,0.4,0.1s0.2,0,0.3,0c0.5,0,0.8-0.2,1-0.5
				c0.2-0.3,0.2-0.7,0.2-1.3V53.1h3.3V63.3z M565.9,49.9c0,0.3,0,0.5-0.2,0.7c-0.1,0.2-0.2,0.4-0.4,0.6c-0.2,0.2-0.4,0.3-0.6,0.4
				c-0.2,0.1-0.5,0.1-0.7,0.1c-0.5,0-1-0.2-1.3-0.5s-0.5-0.8-0.5-1.3c0-0.2,0-0.5,0.1-0.7s0.2-0.4,0.4-0.6c0.2-0.2,0.4-0.3,0.6-0.4
				c0.2-0.1,0.5-0.2,0.7-0.2c0.3,0,0.5,0,0.7,0.1c0.2,0.1,0.4,0.2,0.6,0.4c0.2,0.2,0.3,0.4,0.4,0.6
				C565.9,49.4,565.9,49.6,565.9,49.9z"/>
			<path class="st0" d="M578.8,58c0,0.8-0.1,1.6-0.4,2.2c-0.3,0.7-0.7,1.2-1.2,1.7c-0.5,0.5-1.1,0.8-1.8,1.1
				c-0.7,0.3-1.4,0.4-2.1,0.4c-0.7,0-1.5-0.1-2.1-0.4c-0.7-0.3-1.3-0.6-1.8-1.1c-0.5-0.5-0.9-1-1.2-1.7c-0.3-0.7-0.4-1.4-0.4-2.2
				c0-0.8,0.1-1.6,0.4-2.2c0.3-0.7,0.7-1.2,1.2-1.7c0.5-0.5,1.1-0.8,1.8-1c0.7-0.2,1.4-0.4,2.1-0.4c0.8,0,1.5,0.1,2.1,0.4
				c0.7,0.2,1.3,0.6,1.8,1c0.5,0.5,0.9,1,1.2,1.7C578.6,56.5,578.8,57.2,578.8,58z M575.6,58c0-0.3-0.1-0.6-0.2-0.9
				c-0.1-0.3-0.3-0.6-0.5-0.8c-0.2-0.2-0.4-0.4-0.7-0.6c-0.3-0.1-0.6-0.2-1-0.2s-0.7,0.1-1,0.2c-0.3,0.1-0.5,0.3-0.7,0.6
				c-0.2,0.2-0.3,0.5-0.4,0.8c-0.1,0.3-0.2,0.6-0.2,0.9c0,0.3,0.1,0.6,0.2,0.9c0.1,0.3,0.3,0.6,0.5,0.8c0.2,0.2,0.4,0.4,0.7,0.6
				c0.3,0.1,0.6,0.2,1,0.2c0.4,0,0.7-0.1,1-0.2c0.3-0.1,0.5-0.3,0.7-0.6c0.2-0.2,0.4-0.5,0.5-0.8C575.6,58.7,575.6,58.3,575.6,58z"
				/>
			<path class="st0" d="M587.3,55.8c-0.1,0-0.3-0.1-0.4-0.1c-0.1,0-0.3,0-0.4,0c-0.4,0-0.8,0.1-1.1,0.2c-0.3,0.2-0.5,0.4-0.7,0.6
				c-0.2,0.2-0.3,0.5-0.4,0.7c-0.1,0.3-0.1,0.5-0.1,0.7v5.1h-3.3v-10h3.2v1.4h0c0.3-0.5,0.6-0.9,1.1-1.3s1-0.5,1.6-0.5
				c0.1,0,0.3,0,0.4,0s0.2,0,0.3,0.1L587.3,55.8z"/>
			<path class="st0" d="M598.5,58.2c0,0.1,0,0.3,0,0.4c0,0.1,0,0.3,0,0.4h-7.2c0,0.3,0.1,0.5,0.3,0.8s0.3,0.4,0.5,0.6
				s0.5,0.3,0.7,0.4c0.3,0.1,0.6,0.1,0.9,0.1c0.5,0,1-0.1,1.3-0.3c0.4-0.2,0.7-0.4,0.9-0.8l2.3,1.4c-0.5,0.7-1.1,1.2-1.9,1.6
				c-0.8,0.4-1.7,0.6-2.7,0.6c-0.7,0-1.5-0.1-2.1-0.4c-0.7-0.2-1.3-0.6-1.8-1c-0.5-0.4-0.9-1-1.2-1.7c-0.3-0.7-0.4-1.4-0.4-2.2
				c0-0.8,0.1-1.6,0.4-2.2c0.3-0.7,0.7-1.2,1.1-1.7c0.5-0.5,1-0.8,1.7-1.1c0.7-0.3,1.4-0.4,2.1-0.4c0.7,0,1.4,0.1,2,0.4
				c0.6,0.2,1.1,0.6,1.6,1.1s0.8,1,1,1.7C598.4,56.6,598.5,57.3,598.5,58.2z M595.5,56.9c0-0.5-0.2-1-0.5-1.3
				c-0.3-0.4-0.8-0.6-1.5-0.6c-0.3,0-0.6,0-0.9,0.2s-0.5,0.2-0.7,0.4c-0.2,0.2-0.4,0.4-0.5,0.6c-0.1,0.2-0.2,0.5-0.2,0.7H595.5z"/>
			<path class="st0" d="M606.3,56c-0.3-0.3-0.6-0.5-0.9-0.6c-0.4-0.2-0.7-0.3-1.1-0.3c-0.3,0-0.6,0.1-0.9,0.2
				c-0.3,0.1-0.4,0.3-0.4,0.6c0,0.3,0.1,0.5,0.4,0.6c0.3,0.1,0.8,0.3,1.4,0.4c0.4,0.1,0.8,0.2,1.1,0.3c0.4,0.1,0.7,0.3,1,0.6
				c0.3,0.2,0.6,0.5,0.7,0.9s0.3,0.8,0.3,1.2c0,0.6-0.1,1.2-0.4,1.6s-0.6,0.8-1,1.1c-0.4,0.3-0.9,0.5-1.4,0.6s-1,0.2-1.5,0.2
				c-0.8,0-1.6-0.1-2.4-0.4s-1.4-0.6-2-1.2l1.8-1.9c0.3,0.3,0.7,0.6,1.1,0.8s0.9,0.3,1.4,0.3c0.3,0,0.5-0.1,0.8-0.2s0.4-0.4,0.4-0.7
				c0-0.3-0.2-0.5-0.5-0.7c-0.3-0.1-0.8-0.3-1.5-0.5c-0.3-0.1-0.7-0.2-1-0.3s-0.7-0.3-0.9-0.5c-0.3-0.2-0.5-0.5-0.7-0.8
				s-0.3-0.7-0.3-1.2c0-0.6,0.1-1.1,0.4-1.5c0.3-0.4,0.6-0.8,1-1s0.8-0.5,1.3-0.6c0.5-0.1,1-0.2,1.5-0.2c0.7,0,1.5,0.1,2.2,0.4
				c0.7,0.2,1.3,0.6,1.8,1.1L606.3,56z"/>
			<path class="st0" d="M617.6,60c-0.1,0.6-0.4,1.2-0.7,1.7s-0.8,0.9-1.4,1.3s-1.4,0.5-2.4,0.5c-1.2,0-2.2-0.3-3-0.9
				c-0.8-0.6-1.3-1.4-1.6-2.4l3-1c0.1,0.4,0.3,0.7,0.5,0.9s0.6,0.3,0.9,0.3c0.6,0,0.9-0.2,1.1-0.6c0.2-0.4,0.3-0.9,0.3-1.5v-9.4h3.5
				v9.3C617.8,58.8,617.7,59.4,617.6,60z"/>
			<path class="st0" d="M626.9,63.1v-1.4h0c-0.1,0.2-0.3,0.4-0.5,0.6c-0.2,0.2-0.4,0.4-0.7,0.5c-0.3,0.1-0.5,0.3-0.9,0.4
				c-0.3,0.1-0.6,0.1-1,0.1c-0.7,0-1.2-0.1-1.7-0.4c-0.5-0.2-0.8-0.6-1.1-0.9c-0.3-0.4-0.5-0.8-0.6-1.3c-0.1-0.5-0.2-1-0.2-1.5v-6.2
				h3.3v5.4c0,0.3,0,0.5,0.1,0.8s0.1,0.5,0.2,0.7c0.1,0.2,0.3,0.4,0.5,0.5s0.4,0.2,0.7,0.2c0.6,0,1-0.2,1.3-0.6
				c0.3-0.4,0.5-0.9,0.5-1.5v-5.4h3.3v10H626.9z"/>
			<path class="st0" d="M639.1,63.1v-5.5c0-0.3,0-0.5-0.1-0.8s-0.1-0.5-0.2-0.7c-0.1-0.2-0.3-0.3-0.5-0.5c-0.2-0.1-0.4-0.2-0.7-0.2
				s-0.6,0.1-0.8,0.2c-0.2,0.1-0.4,0.3-0.6,0.5c-0.1,0.2-0.3,0.4-0.3,0.7c-0.1,0.3-0.1,0.5-0.1,0.8v5.4h-3.3v-10h3.2v1.4h0
				c0.1-0.2,0.3-0.4,0.5-0.6c0.2-0.2,0.4-0.4,0.7-0.5s0.5-0.3,0.9-0.4s0.6-0.1,1-0.1c0.7,0,1.2,0.1,1.7,0.4s0.8,0.6,1.1,0.9
				c0.3,0.4,0.5,0.8,0.6,1.3c0.1,0.5,0.2,1,0.2,1.5v6.2H639.1z"/>
			<path class="st0" d="M648.4,55.5v3.8c0,0.5,0.1,0.8,0.3,1.1c0.2,0.2,0.5,0.4,1,0.4c0.2,0,0.3,0,0.5,0c0.2,0,0.3-0.1,0.5-0.1
				l0,2.4c-0.2,0.1-0.5,0.2-0.9,0.2s-0.7,0.1-1,0.1c-0.7,0-1.2-0.1-1.7-0.3c-0.5-0.2-0.8-0.4-1.1-0.7c-0.3-0.3-0.5-0.7-0.6-1.1
				s-0.2-0.9-0.2-1.5v-4.2h-1.6v-2.4h1.6v-2.6h3.2v2.6h2.3v2.4H648.4z"/>
			<path class="st0" d="M662.8,58c0,0.8-0.1,1.6-0.4,2.2c-0.3,0.7-0.7,1.2-1.2,1.7c-0.5,0.5-1.1,0.8-1.8,1.1
				c-0.7,0.3-1.4,0.4-2.1,0.4c-0.7,0-1.5-0.1-2.1-0.4c-0.7-0.3-1.3-0.6-1.8-1.1c-0.5-0.5-0.9-1-1.2-1.7c-0.3-0.7-0.4-1.4-0.4-2.2
				c0-0.8,0.1-1.6,0.4-2.2c0.3-0.7,0.7-1.2,1.2-1.7c0.5-0.5,1.1-0.8,1.8-1c0.7-0.2,1.4-0.4,2.1-0.4c0.8,0,1.5,0.1,2.1,0.4
				c0.7,0.2,1.3,0.6,1.8,1c0.5,0.5,0.9,1,1.2,1.7C662.6,56.5,662.8,57.2,662.8,58z M659.6,58c0-0.3-0.1-0.6-0.2-0.9
				c-0.1-0.3-0.3-0.6-0.5-0.8c-0.2-0.2-0.4-0.4-0.7-0.6c-0.3-0.1-0.6-0.2-1-0.2s-0.7,0.1-1,0.2c-0.3,0.1-0.5,0.3-0.7,0.6
				c-0.2,0.2-0.3,0.5-0.4,0.8c-0.1,0.3-0.2,0.6-0.2,0.9c0,0.3,0.1,0.6,0.2,0.9c0.1,0.3,0.3,0.6,0.5,0.8c0.2,0.2,0.4,0.4,0.7,0.6
				c0.3,0.1,0.6,0.2,1,0.2c0.4,0,0.7-0.1,1-0.2c0.3-0.1,0.5-0.3,0.7-0.6c0.2-0.2,0.4-0.5,0.5-0.8C659.5,58.7,659.6,58.3,659.6,58z"
				/>
			<path class="st0" d="M670.6,56c-0.3-0.3-0.6-0.5-0.9-0.6c-0.4-0.2-0.7-0.3-1.1-0.3c-0.3,0-0.6,0.1-0.9,0.2
				c-0.3,0.1-0.4,0.3-0.4,0.6c0,0.3,0.1,0.5,0.4,0.6c0.3,0.1,0.8,0.3,1.4,0.4c0.4,0.1,0.8,0.2,1.1,0.3c0.4,0.1,0.7,0.3,1,0.6
				c0.3,0.2,0.6,0.5,0.7,0.9s0.3,0.8,0.3,1.2c0,0.6-0.1,1.2-0.4,1.6s-0.6,0.8-1,1.1c-0.4,0.3-0.9,0.5-1.4,0.6s-1,0.2-1.5,0.2
				c-0.8,0-1.6-0.1-2.4-0.4s-1.4-0.6-2-1.2l1.8-1.9c0.3,0.3,0.7,0.6,1.1,0.8s0.9,0.3,1.4,0.3c0.3,0,0.5-0.1,0.8-0.2s0.4-0.4,0.4-0.7
				c0-0.3-0.2-0.5-0.5-0.7c-0.3-0.1-0.8-0.3-1.5-0.5c-0.3-0.1-0.7-0.2-1-0.3s-0.7-0.3-0.9-0.5c-0.3-0.2-0.5-0.5-0.7-0.8
				s-0.3-0.7-0.3-1.2c0-0.6,0.1-1.1,0.4-1.5c0.3-0.4,0.6-0.8,1-1s0.8-0.5,1.3-0.6c0.5-0.1,1-0.2,1.5-0.2c0.7,0,1.5,0.1,2.2,0.4
				c0.7,0.2,1.3,0.6,1.8,1.1L670.6,56z"/>
		</g>
	</g>
</g>
</svg>
