<?xml version="1.0" encoding="utf-8"?>
<!-- Generator: Adobe Illustrator 22.0.1, SVG Export Plug-In . SVG Version: 6.00 Build 0)  -->
<svg version="1.1" id="Capa_1" xmlns="http://www.w3.org/2000/svg" xmlns:xlink="http://www.w3.org/1999/xlink" x="0px" y="0px"
	 viewBox="0 0 128.5 129.6" style="enable-background:new 0 0 128.5 129.6;" xml:space="preserve">
<style type="text/css">
	.st0{fill:none;stroke:#53565A;stroke-miterlimit:10;}
	.st1{fill:#53565A;}
</style>
<g>
	<path class="st0" d="M64.8,16.7c-26.2,0-48,21.7-48,48.2c0,4.3,0.6,8.3,1.6,12.2c6.3-1.2,7.7-3.6,12.8-4.7c2.6-0.4,5.5,0.6,4.1,2.6
		c0,0-0.6,0.4-0.6,0.6c-0.4,0.4-0.6,1.2,0,1.4c0,0.2,0.8,0.8,1.8,0.8c9.5-1,10.5-4.1,16.6-5.3c2.6-0.4,5.5,0.6,3.9,2.6
		c0,0-0.6,0.4-0.6,0.6c-0.4,0.4-0.4,1.2,0,1.4c0.2,0.2,1,0.8,1.8,0.8c9.5-1,10.5-4.1,16.4-5.3c2.8-0.4,5.5,0.6,4.1,2.6
		c0,0-0.6,0.4-0.6,0.6c-0.4,0.4-0.4,1.2,0,1.4c0,0.2,0.8,0.8,1.8,0.8c9.5-1,10.5-4.1,16.4-5.3c2.8-0.4,5.5,0.6,4.1,2.6
		c0,0-0.6,0.4-0.6,0.6c-0.4,0.4-0.6,1.2,0,1.4c0.2,0.2,0.8,0.8,1.8,0.8c3.9-0.4,7.3-1.6,9.3-2.6c0.8-3.4,1.2-6.9,1.2-10.7
		C112.2,38.2,91.1,16.7,64.8,16.7 M49.3,42.1l-6.9,0.6c0,0,2,2.2,3,3.2c0.4,0.4,0,1-0.6,0.6l-3-3c0,0-0.6,19.7-0.8,21.9
		c0,0.8-0.6,0.8-0.6,0l-0.6-21.9c-1,0.8-2,2.2-3,3c-0.6,0.4-1,0-0.6-0.6l2.8-3.2c-2.4-0.2-4.5-0.4-6.9-0.6c-1,0-1-0.8,0-1l6.9-0.6
		c0,0-2-2.2-3-3.2c-0.4-0.6,0-1,0.4-0.8l3.4,3.2v-0.2c0-2.4,0.2-4.5,0.4-6.9c0-0.8,1-1,1,0l0.6,7.1c0,0,2.2-2.2,3.4-3.2
		c0.6-0.4,1,0.2,0.4,0.8l-3.2,3.2c0,0,4.7,0.4,6.9,0.6C50.2,41.1,50.4,41.9,49.3,42.1 M78.9,31.3c-0.4,0.6-0.6,2.4,0.2,3.4
		c-1-0.6-3.6-2.2-5.7-2.6C75.5,31.7,78.9,31.3,78.9,31.3 M92.1,63.4c-4.1-3.4-7.9-2.6-11.4-1.6c0-0.2-0.2-0.4-0.4-0.6
		c0.6,1.2,1.4,2.6,2.2,3.8l0.2,0.4c0,0-8.3-0.4-15.2-6.1l-2.6-2.6c-0.8,0.2-1.6,0.8-2.4,1c0,0-0.2,1.2,0,3l-0.6,0.6
		c-2.4-4.9-5.1-13.6,0.4-21.1h7.3c0.8-1.6,2-3.2,3.4-4.5h19.3c-2.4,2.6-5.7,8.1-5.9,13C86.2,56.5,90.1,61.7,92.1,63.4
		c0.2,0.4,0.6,0.6,0.8,0.8C92.9,64.2,92.5,64,92.1,63.4"/>
	<path class="st1" d="M82.4,77.3l1-0.2l-6.9-9.3L82.4,77.3z M85.4,76.7l1-0.2l-6.5-8.7L85.4,76.7z M88.7,75.5l0.6-0.4l-5.5-7.3
		L88.7,75.5z M91.5,74.1l0.6-0.2l-4.5-6.1L91.5,74.1z M90.9,67.8l3.4,5.3l0.4-0.4L90.9,67.8z"/>
	<path class="st1" d="M106.1,57.9l-2.4-1.8h-0.4c-2.6,1-7.3,1-7.3,1h-0.2v0.2c-1,1.4-2.8,3.6-4.4,5.3c-1.8-2.4-4.9-6.7-4.9-13.4
		v-0.6c0.2-5.1,3.8-10.7,5.9-12.8l-0.2-0.4H72.9c-1.4,1.4-2.6,3-3.4,4.3h-7.3c-4.1,5.9-4.3,12.8-0.8,21.3c-0.4,0.6-1,1.2-1.8,2.4
		v0.2l0.6,1.2c1.8,3.7,2.8,5.7,6.1,10.5l0.4,0.4l1.4-0.8l0.2-0.2c1.6-0.8,3.4-1.6,6.1-2.2c1.8-0.2,3.6,0,4.1,0.8v0.6
		c0,0.2,0,0.6-0.4,1l-0.4,0.4h-0.2c-0.2,0.2-0.2,0.6-0.2,1v0.2c0,0.2,0.2,0.4,0.4,0.6c0.4,0.2,1,0.6,1.8,0.6c5.9-0.4,8.5-1.8,11.1-3
		c1.6-0.8,3.2-1.6,5.5-2.2c1.8-0.2,3.6,0,4.1,0.8c0.2,0.4,0.2,0.8,0,1.2l0.2,0.2c3.6-3.2,6.3-7.9,8.5-14.4v-0.2L106.1,57.9z
		 M96,57.5c0.6,0,4.3-0.2,6.9-1c-0.6,1-2.4,3-4.7,4.7c-1.6,1.2-3.4,2.2-5.1,2.8c-0.2-0.2-0.6-0.4-0.8-0.6c-0.2-0.2-0.2-0.4-0.6-0.6
		C93.3,61.1,95,58.9,96,57.5 M92.7,64.2c-1,0.2-1.8,0.4-2.8,0.6l1.6-1.6c0.2,0.2,0.4,0.2,0.6,0.6C92.3,63.8,92.5,64,92.7,64.2
		 M89.3,65c-0.4,0-1,0.2-1.4,0.2c-1.6,0.2-3.4,0.2-5.1,0L82.6,65c-0.6-1.2-1.2-2.2-1.8-3.2c3.4-0.8,6.7-1.6,10.5,1.2
		C90.1,64,89.5,64.8,89.3,65 M73.1,35.8h18.7c-2.2,2.6-5.5,7.7-5.5,12.8v0.6c0,6.3,2.6,10.7,4.5,13c-3.6-2.2-6.9-1.6-10.1-0.6
		c-0.2-0.2-0.4-0.4-0.4-0.6c-4.1-8.3-3.8-14-1.2-21.1l-0.2-0.2H70C70.8,38.4,71.7,37,73.1,35.8 M59.3,50c0-3.6,1-6.9,3.2-9.9h16.4
		c-0.2,0.4-0.4,0.8-0.6,1.6c-0.8,2.8-1.2,5.3-1.2,7.9c0,2,0.2,4.1,0.8,6.3c0.6,1.8,1.2,3.6,2.2,5.3c0.8,1.2,1.4,2.6,2.2,3.9h0.2
		c-1.8-0.2-8.9-1.2-14.8-6.1L65,56.5v-0.2h-0.2c-0.2,0.2-0.4,0.4-0.6,0.4c-0.2,0-0.4,0.2-0.6,0.4l-1.2,0.4l-0.2,0.2c0,0-0.2,1,0,2.6
		h-0.2c0,0.2-0.2,0.4-0.2,0.4C60.1,56.9,59.3,53.4,59.3,50 M66.8,75.3c-3.4-4.5-4.3-6.7-6.1-10.7c0,0-0.4-0.8-0.6-1
		c0.8-1.4,1.6-2.2,2.2-3c0,0.4,0,0.6,0.2,1c0.2,2.6,1,6.3,3.2,10.1c0.6,1.2,1.4,2.2,2.2,3.4C67.4,75.1,67,75.3,66.8,75.3 M63.7,66
		v-0.2c0-0.2-0.2-0.4-0.2-0.6c0-0.2-0.2-0.4-0.2-0.6v-0.2c-0.4-1.4-0.6-2.8-0.6-3.9v-2.6l1.2-0.6c0.2-0.2,0.6-0.4,0.8-0.4
		C64.1,64,65.2,67.2,68,74.5C65.8,71.7,64.5,68.8,63.7,66 M68.4,74.7C65.6,67.2,64.5,64,65,56.9c0.4,0.6,1.6,1.8,2,2.2
		c-0.2,6.7,0.4,11.2,2.2,15v0.2C68.8,74.3,68.6,74.5,68.4,74.7 M101,74.1v-0.2c0-0.4-0.2-0.6-0.4-0.8c-0.6-0.8-2.4-1.2-4.3-1
		c-2.4,0.6-4.1,1.4-5.7,2.2c-2.6,1.4-5.1,2.6-10.9,3.2c-0.6,0-1.4-0.4-1.6-0.6c-0.2-0.2-0.2-0.4-0.2-0.4v-0.2c0-0.4,0-0.6,0.2-0.8
		l0.6-0.4c0.2-0.6,0.4-0.8,0.4-1.2c0-0.4-0.2-0.6-0.2-0.8c-0.6-0.8-2.6-1.2-4.5-1c-2,0.4-3.6,1.2-4.9,2c-1.6-3.7-2.2-8.1-2-14.6
		c0.2,0,0.2,0,0.2,0.2c0.2,0,0.2,0,0.4,0.2c5.3,4.1,13,6.5,19.9,5.7c0.6,0,1.2-0.2,1.8-0.4c4.9-0.4,8.7-3.4,11.2-5.7
		c0.8-1,1.8-2,2.6-3c0.2,0.2,2.4,1.8,2.4,1.8s2.6,1.8,2.8,2C106.7,66.4,104.1,70.9,101,74.1"/>
	<path class="st1" d="M85.4,101.1c-0.4,0-0.8,0-1.4,0.2c-4.9,1.4-6.9,4.3-16.4,5.1c-3.2,0-5.1-2.8-3.9-5.3c-0.6,0-1,0-1.4,0.2
		c-4.9,1.4-6.9,4.3-16.4,5.1c-3.2,0-4.9-2.8-3.9-5.3c-0.4,0-0.8,0-1.4,0.2c-1.8,0.4-3.2,1.2-4.7,2c7.7,5.9,17.4,9.5,28,9.1
		c8.9-0.2,17-2.4,23.7-6.3C85.6,105.3,84.6,103.1,85.4,101.1 M101.8,79.6c-3.2,0-4.9-3-3.9-5.3h-1.2c-4.9,1.4-7.1,4.5-16.6,5.3
		c-3.2,0-4.9-3-3.9-5.3h-1.2c-4.9,1.4-7.1,4.5-16.6,5.3c-3,0-4.7-3-3.9-5.3h-1.2c-4.9,1.4-7.1,4.5-16.6,5.3c-2.2,0-3.8-1.4-4.1-3
		c0-0.2-0.2-0.4-0.2-0.6c0-0.6,0-1.2,0.4-1.8h-1.4C27.2,75.5,25,78,18.7,79c1.4,3.8,3,7.5,5.1,10.9c3.5-1.4,5.3-3,9.1-3.7
		c2.8-0.6,5.5,0.4,4.1,2.6c0,0-0.4,0.2-0.6,0.4c-0.4,0.4-0.4,1.2,0,1.6c0.2,0,1,0.6,2,0.6c9.5-0.8,10.5-3.9,16.4-5.1
		c2.8-0.6,5.5,0.4,4.1,2.6c0,0-0.6,0.2-0.6,0.4c-0.4,0.4-0.4,1.2,0,1.6c0,0,0.8,0.6,1.8,0.6c9.5-0.8,10.5-3.9,16.4-5.1
		c2.6-0.6,5.5,0.4,3.9,2.6c0,0-0.4,0.2-0.4,0.4c-0.4,0.4-0.6,1.2,0,1.6c0,0,0.8,0.6,1.8,0.6c9.5-0.8,10.5-3.9,16.4-5.1
		c2.8-0.6,5.5,0.4,4.1,2.6c0,0-0.6,0.2-0.6,0.4c-0.4,0.4-0.4,1.2,0,1.6c0,0,0.8,0.6,1.8,0.6h0.2c2.6-4.1,4.7-8.5,5.9-13.4
		C107.7,78.4,104.1,79.4,101.8,79.6 M99.6,88.3c-0.6,0-1,0-1.4,0.2c-4.9,1.2-6.9,4.1-16.4,5.1c-3.2,0-5.1-3-3.9-5.3
		c-0.6,0-1,0-1.4,0.2c-4.9,1.2-6.9,4.1-16.4,5.1c-3.2,0-4.9-3-3.9-5.3c-0.4,0-1,0-1.4,0.2c-4.9,1.2-6.9,4.1-16.4,5.1
		c-3.4,0-5.1-3-4.1-5.3c-0.4,0-0.8,0-1.4,0.2c-3,0.6-4.7,2.2-7.9,3.4c2.6,3.6,5.5,6.9,8.9,9.9c2.2-1,3.9-2.2,6.7-2.8
		c2.8-0.4,5.5,0.4,4.1,2.6l-0.6,0.4c-0.4,0.4-0.4,1.2,0,1.6c0.2,0,1,0.6,1.8,0.6c9.5-0.8,10.5-3.9,16.4-5.1c2.8-0.4,5.5,0.4,4.1,2.6
		l-0.6,0.4c-0.4,0.4-0.4,1.2,0,1.6c0,0,0.8,0.6,1.8,0.6c9.5-0.8,10.5-3.9,16.4-5.1c2.8-0.4,5.5,0.4,4.1,2.6l-0.6,0.4
		c-0.4,0.4-0.4,1.2,0,1.6c0.2,0,0.8,0.6,1.8,0.6c0.6,0,1.2,0,2-0.2c4.1-2.8,7.9-6.5,10.9-10.5C100,92.6,98.6,90.3,99.6,88.3"/>
	<path class="st1" d="M2.9,59.3l10.5,1.2l0.2-2L3.1,57.3l0.2-2.8l-2-0.2l-0.8,7.7l2,0.2L2.9,59.3z M17.1,44.9l-2-0.6L13.9,48
		L3.9,44.7l-0.6,1.8l11.8,4.1L17.1,44.9z M20.8,36l2-0.6l-2.2-5.1l5.3,1l0.2-2L20,28.1l-2.4-5.7l-2,0.6l2.2,4.9l-5.1-1l-0.2,2l5.9,1
		L20.8,36z M32.1,25.1l-7.9-9.7l-1.6,1.2l8.1,9.7L32.1,25.1z M35.2,23l-5.1-7.9v-0.2l9.1,5.7l1.4-1.6L34.3,8.6l-1.6,1l4.9,8.1
		l-9.3-5.7l-1.2,1.6L33.5,24L35.2,23z M44.9,6.4l3,10.3l2-0.6l-3-10.3L49.5,5l-0.4-2l-7.5,2.4l0.6,1.8L44.9,6.4z M62.5,4.6l4.7,9.7
		l2-0.6l0.4-12.2h-2l-0.2,9.5l-4.7-9.9l-1.8,0.6l-0.2,12.2l1.8,0.2V4.6z M81.6,17.1c1.8,0.8,3.6,0,4.1-2c0.6-1.6,0.2-3-0.8-3.6
		c1,0.2,2.2-0.6,2.6-2.2c0.8-1.8,0-3.5-2-4.1L82.4,4l-4.5,11.8L81.6,17.1z M83.4,6.4l1.2,0.4C85.8,7.2,86.2,8,85.8,9
		c-0.4,1.2-1.4,1.4-2.4,1.2l-1-0.4L83.4,6.4z M82.6,11.7c1.4,0.4,1.8,1.4,1.4,2.6c-0.4,1-1.2,1.4-2.4,1l-1.2-0.4l1.2-3.6L82.6,11.7z
		 M87.3,19.6l2.6-4.4l0.6,0.2c0.2,0.2,0.2,0.4,0.4,0.8V22l2.2-0.2l-0.2-5.5c1.2,0,2.6-0.6,3.4-2c0.8-1.8,0.8-3.7-1.4-4.9l-3-1.6
		l-6.1,11L87.3,19.6z M92.7,10.3l1,0.6c0.8,0.4,1.2,1.4,0.6,2.4c-0.8,1.4-1.8,1.2-2.4,1l-1-0.6L92.7,10.3z M94.8,24.4l7.3-10.1
		l-1.6-1.2l-7.3,10.1L94.8,24.4z M101.4,25.5c-0.6,0.8-1.6,0.8-2.4,0.2c-0.4-0.4-0.8-1.2-0.8-2l-1.8,0.8c0.2,1.2,0.8,2,1.4,2.8
		c1.6,1.4,3.7,1,5.1-0.6c2.8-3-1-5.3,0.6-7.1c0.8-0.8,1.8-0.8,2.4-0.2c0.6,0.6,0.8,1.4,1,2l1.8-0.6c-0.2-1.2-0.8-2.2-1.6-2.8
		c-1.6-1.4-3.6-1.2-4.9,0.2C99.2,21.4,103.1,23.6,101.4,25.5 M107.5,38.4l1.8-1.2l-2.4-3.4l8.7-6.1l-1.2-1.6l-10.5,7.3L107.5,38.4z
		 M118.5,45.3c-3.8,0.8-5.9,3.5-5.3,6.7c0.2,1.2,1,2.2,2,3l1.4-1c-0.6-0.6-1-1.2-1.4-2.4c-0.4-2,1.6-3.8,3.9-4.3
		c2.4-0.4,4.5,0.4,5.1,2.6c0,0.8-0.2,2-0.6,2.6l1.6,0.6c0.8-1.2,1.2-2.4,0.8-3.7C125.4,46.3,122.3,44.7,118.5,45.3 M126,63.4l-0.2,3
		l-10.7-0.6v2l10.7,0.4l-0.2,3l2,0.2l0.4-7.9H126z M64.3,115.3c-24.3,0-44.4-17.2-49.3-40.1h-14c5.3,30.4,31.6,53.3,63.4,53.3
		c31.6,0,58-22.9,63.2-53.3h-13.8C108.7,98.2,88.5,115.3,64.3,115.3 M43.5,124l-1.6-0.8l1.2-6.7l-3.7,2l-1-4.1l-4.5,5.1l-1.4-0.8
		l6.9-8.5l1.2,5.7l5.1-2.8L43.5,124z M48.7,125.2c-1.8-0.4-2.8-3.2-2-5.9c0.8-3,2.8-4.7,4.7-4.3c1.2,0.4,2,1.6,2.2,3.4l-1.8-0.6
		c-0.2-0.6-0.6-1-1-1c-0.8-0.2-2,1-2.6,3c-0.4,2-0.2,3.6,0.8,3.9c0.4,0,0.8-0.2,1.2-0.6l1.8,0.4C51.2,124.8,49.8,125.6,48.7,125.2
		 M64.1,127.4l-1.4-6.7l-3,3.2l-2.2-3.5l-2.4,6.5l-1.8-0.2l3.5-10.5l3,4.9l3.9-4.3l2,10.9L64.1,127.4z M74.5,126.6l-3-3.6l-2,4.1
		l-1.6,0.2l2.6-5.7l-3.9-4.9l1.8-0.2l3,3.8l2-4.3l1.8-0.2l-2.8,5.7l3.9,4.9L74.5,126.6z M83.8,124.2l-7.3-8.7l1.6-0.6l4.1,4.9
		l0.6-6.5l1.6-0.4L83.8,124.2z M90.9,121.5l-4.5-9.5l1.6-0.8l4.5,9.5L90.9,121.5z M94.8,119.5l-5.1-9.3l1.4-0.8l5.3,9.3L94.8,119.5z
		 M12.9,63.8L11,64l0.4,3.9L8,68.2l-0.2-2.8h-2l0.2,3l-3.4,0.2l-0.4-4.1l-1.8,0.2l0.2,5.9l12.6-0.8L12.9,63.8z M59.5,13.9l-0.4-2
		l-3.9,0.6l-0.6-3.2L57.4,9l-0.2-2l-3,0.4L53.8,4l3.7-0.6l-0.2-2l-5.7,1l2,12.4L59.5,13.9z M77.1,13.5l-3.9-0.8l0.6-3.2l2.8,0.4
		l0.4-2l-2.8-0.4l0.8-3.4L78.7,5l0.4-2l-5.7-1.2l-2.6,12.4l5.9,1.2L77.1,13.5z M115.2,62.6l2-0.2l-0.4-3.9l3.4-0.4l0.2,3l2-0.2
		l-0.2-2.8l3.2-0.4l0.4,3.9l2-0.2l-0.4-5.7l-12.6,1L115.2,62.6z M19.3,40.7c1-2.2,0.8-3.9-2-5.5l-6.9-3.9L9,32.6l7.5,4.3
		c1.4,0.8,1.6,1.6,1,2.8c-0.6,1.2-1.4,1.2-3,0.6L7,36.4l-0.4,2l7.1,3.5C16.3,43.3,18.1,42.9,19.3,40.7 M109.8,42.9
		c1,2.2,2.8,3.2,5.7,1.8l7.1-3.4l-0.2-2l-7.9,3.7c-1.4,0.6-2.6,0.2-3.2-1c-0.4-1.2,0-2,1.4-2.8l7.5-4.1l-1.4-1.4l-7.1,3.7
		C109.2,39,108.7,40.7,109.8,42.9"/>
</g>
</svg>
