<?xml version="1.0" encoding="utf-8"?>
<!-- Generator: Adobe Illustrator 22.0.1, SVG Export Plug-In . SVG Version: 6.00 Build 0)  -->
<svg version="1.1" id="Capa_1" xmlns="http://www.w3.org/2000/svg" xmlns:xlink="http://www.w3.org/1999/xlink" x="0px" y="0px"
	 viewBox="0 0 107.3 129.9" style="enable-background:new 0 0 107.3 129.9;" xml:space="preserve">
<style type="text/css">
	.st0{fill:none;stroke:#53565A;stroke-width:0.398;stroke-miterlimit:10;}
	.st1{fill:none;stroke:#53565A;stroke-width:0.53;stroke-miterlimit:10;}
	.st2{fill:none;stroke:#53565A;stroke-width:0.265;stroke-miterlimit:10;}
	.st3{fill:#53565A;}
</style>
<g>
	<path class="st0" d="M52.7,4.1h2c16.1,0,27.9,10.3,35,19.3c7.1,8.9,13.2,24.6,13.2,40.4v2.8c0,28.5-20.2,59.3-48.6,59.3h-1.6
		c-16.1,0-28.1-10.6-35.3-19.6C10.1,97,4.4,81.2,4.3,65c-0.1-15.9,5.9-32.2,13-41.2C24.6,14.6,36.2,4.1,52.7,4.1z"/>
	<path class="st1" d="M1.5,63.4c0-15.7,6.7-33.7,14.1-42.2c5.1-5.8,8.1-9.3,15-13.5C36,4.5,44,1.3,52.7,1.3h1.9
		c30,0,51.3,32,51.3,61.7v3.8c0,30-21.3,61.8-51.7,61.8h-1c-30.6,0-51.7-31.9-51.7-62.2V63.4z"/>
	<path class="st2" d="M15.9,63.5c0-12.2,4.8-26.1,10.2-32.6c3.7-4.5,5.9-7.2,10.9-10.4c3.9-2.5,9.7-5,16-5h1.4
		c21.7,0,37.1,24.7,37.1,47.7v3c0,23.2-15.4,47.7-37.4,47.7h-0.8c-22.1,0-37.4-24.6-37.4-48V63.5z"/>
	<path class="st3" d="M83.8,105C83.5,105.3,84.2,104.6,83.8,105"/>
	<path class="st3" d="M9,87.2l-0.1-0.3c0,0,0-0.1,0-0.1c0,0,0-0.1,0-0.1c0,0,0,0,0,0c0,0,0,0,0,0c0,0,0,0,0-0.1c0,0,0,0,0-0.1
		l-0.1-0.3l3.4-0.7c0.4-0.1,0.7-0.2,1-0.3c0.3-0.1,0.4-0.3,0.6-0.5c0.1-0.2,0.2-0.4,0.2-0.6c0-0.2,0-0.4,0-0.6
		c-0.1-0.3-0.2-0.5-0.3-0.7c-0.1-0.2-0.3-0.3-0.5-0.4c-0.2-0.1-0.4-0.1-0.7-0.2c-0.3,0-0.6,0-0.9,0.1L8,83L8,82.6c0,0,0,0,0,0
		c0,0,0,0,0,0c0,0,0,0,0,0c0,0,0,0,0,0c0,0,0,0,0,0c0,0,0,0,0,0c0,0,0,0,0,0c0,0,0,0,0,0l-0.1-0.3l3.4-0.7c0.4-0.1,0.8-0.1,1.1-0.1
		c0.3,0,0.6,0.1,0.9,0.2c0.3,0.1,0.5,0.3,0.7,0.6c0.2,0.3,0.3,0.6,0.4,1.1l0.1,0.3c0,0,0,0,0,0c0,0,0,0,0,0c0,0,0,0,0,0c0,0,0,0,0,0
		c0.1,0.4,0.1,0.8,0.1,1.2c-0.1,0.3-0.2,0.6-0.4,0.8c-0.2,0.2-0.4,0.4-0.7,0.5c-0.3,0.1-0.5,0.2-0.8,0.3l0,0L9,87.2z"/>
	<path class="st3" d="M7.4,79.4l0-0.3l0-0.4l3.7-4L7,75.1l0-0.3c0,0,0,0,0,0c0,0,0,0,0-0.1c0,0,0,0,0-0.1c0,0,0,0,0,0l0-0.3l5.9-0.6
		l0,0.3l0,0.3L9,78.4l4.2-0.5l0,0.3c0,0,0,0,0,0c0,0,0,0,0,0c0,0,0,0,0,0c0,0,0,0,0,0c0,0,0,0,0,0c0,0,0,0,0,0c0,0,0,0,0,0
		c0,0,0,0,0,0l0,0.3L7.4,79.4z"/>
	<path class="st3" d="M6.8,70.9C6.8,70.8,6.8,70.8,6.8,70.9C6.8,70.8,6.8,70.8,6.8,70.9c0-0.1,0-0.1,0-0.1c0,0,0,0,0,0c0,0,0,0,0,0
		c0,0,0-0.1,0-0.1c0,0,0-0.1,0-0.1l0-0.3l5.9,0.4l0,0.3c0,0,0,0,0,0.1c0,0,0,0.1,0,0.1c0,0,0,0,0,0c0,0,0,0,0,0c0,0,0,0,0,0
		c0,0,0,0,0,0c0,0,0,0.1,0,0.1c0,0,0,0.1,0,0.1l0,0.3l-5.9-0.4L6.8,70.9C6.8,70.9,6.8,70.9,6.8,70.9"/>
	<path class="st3" d="M6.6,67.8c0,0,0-0.1,0-0.1c0,0,0,0,0,0c0,0,0,0,0,0c0,0,0,0,0,0c0,0,0,0,0,0c0,0,0-0.1,0-0.1c0,0,0-0.1,0-0.1
		l0-0.3l4.7-1.1c-0.1,0-0.1-0.1-0.2-0.1c-0.1,0-0.1-0.1-0.2-0.2c-0.2-0.1-0.3-0.2-0.5-0.3c-0.2-0.1-0.4-0.2-0.6-0.3
		c-0.1,0-0.1-0.1-0.2-0.1c-0.1,0-0.1-0.1-0.2-0.1c0,0-0.1,0-0.1-0.1c0,0-0.1,0-0.1-0.1c0,0-0.1,0-0.1-0.1c0,0-0.1,0-0.1-0.1
		c-0.2-0.1-0.3-0.2-0.5-0.3c-0.2-0.1-0.3-0.2-0.5-0.3c-0.2-0.1-0.3-0.2-0.5-0.2c-0.2-0.1-0.3-0.1-0.4-0.2l0-0.3c0,0,0,0,0,0
		c0,0,0,0,0-0.1c0,0,0,0,0,0c0,0,0,0,0,0c0,0,0,0,0,0c0,0,0,0,0,0c0,0,0,0,0,0c0,0,0,0,0,0c0,0,0,0,0,0s0,0,0,0l0-0.3l5.4,3.3
		l-0.1,0.3c0,0,0,0,0,0c0,0,0,0,0,0c0,0,0,0,0,0c0,0,0,0,0,0c0,0,0,0,0,0c0,0,0,0,0,0l0-0.3c0,0,0,0,0,0s0,0,0,0c0,0,0,0,0,0
		c0,0,0,0,0,0c0,0,0,0,0,0c0,0,0,0,0,0l-0.1,0.3l-6.2,1.6l0.1-0.3C6.5,67.9,6.5,67.8,6.6,67.8"/>
	<path class="st3" d="M7,61.2l0-0.3l0.3-3c0,0,0.1,0,0.1,0c0,0,0,0,0.1,0c0,0,0,0,0,0c0,0,0,0,0,0c0,0,0,0,0,0c0,0,0,0,0,0l0,0l0,0
		c0,0,0.1,0,0.1,0c0,0,0,0,0.1,0c0,0,0,0,0,0c0,0,0,0,0,0c0,0,0,0,0,0c0,0,0,0,0,0l0,0.3c0,0.1,0,0.2-0.1,0.2c0,0.1,0,0.2-0.1,0.3
		c0,0.1,0,0.2,0,0.3c0,0.1,0,0.2,0,0.3l0,0c0,0,0,0,0,0.1c0,0,0,0,0,0.1c0,0,0,0,0,0.1c0,0,0,0,0,0.1c0,0,0,0,0,0.1c0,0,0,0,0,0.1
		c0,0,0,0,0,0.1c0,0,0,0,0,0.1c0,0,0,0.1,0,0.1c0,0,0,0.1,0,0.1l2.1,0.2l0.1-0.9l0-0.8l0-0.3c0,0,0.1,0,0.1,0c0,0,0,0,0.1,0
		c0,0,0,0,0.1,0c0,0,0,0,0.1,0c0,0,0,0,0,0c0,0,0,0,0,0c0,0,0,0,0,0c0,0,0,0,0,0c0,0,0,0,0.1,0c0,0,0.1,0,0.1,0l0,0.3l-0.2,1
		l-0.1,0.7l2.4,0.3c0,0,0-0.1,0-0.1c0,0,0-0.1,0-0.1c0,0,0-0.1,0-0.1c0,0,0-0.1,0-0.1c0,0,0-0.1,0-0.1c0,0,0,0,0-0.1c0,0,0,0,0-0.1
		c0,0,0,0,0-0.1c0-0.1,0-0.2,0-0.3c0-0.1,0-0.2,0-0.3c0-0.1,0-0.2,0-0.3c0-0.1,0-0.2,0-0.2l0-0.3c0,0,0.1,0,0.1,0c0,0,0,0,0.1,0
		c0,0,0,0,0.1,0c0,0,0,0,0.1,0c0,0,0,0,0.1,0c0,0,0,0,0.1,0c0,0,0,0,0.1,0c0,0,0,0,0,0l0,0.3l-0.3,3L7,61.2z"/>
	<path class="st3" d="M10.6,55.1C10.6,55.1,10.6,55.1,10.6,55.1c0-0.3,0.1-0.4,0.1-0.6c0-0.2,0-0.3-0.1-0.4c0-0.1-0.1-0.3-0.2-0.4
		c-0.1-0.1-0.1-0.2-0.2-0.2c-0.1,0-0.1-0.1-0.2-0.1c-0.1,0-0.1-0.1-0.2-0.1c-0.1,0-0.1,0-0.2,0c0,0-0.1,0-0.1,0c0,0-0.1,0-0.1,0
		c0,0-0.1,0-0.1,0c0,0-0.1,0-0.1,0c0,0-0.1,0-0.2,0c-0.1,0-0.2,0.1-0.2,0.1c-0.1,0.1-0.2,0.1-0.2,0.2c-0.1,0.1-0.1,0.2-0.2,0.3
		c-0.1,0.1-0.1,0.3-0.1,0.4l-0.1,0.4L10.6,55.1C10.6,55.1,10.6,55.1,10.6,55.1 M7.6,55.7l0.1-0.3l0.4-2c0.1-0.3,0.1-0.5,0.2-0.7
		c0.1-0.2,0.2-0.3,0.4-0.4c0.2-0.1,0.3-0.2,0.5-0.2c0.2,0,0.4,0,0.6,0c0.2,0,0.4,0.1,0.5,0.2c0.1,0.1,0.3,0.2,0.4,0.3
		c0.1,0.1,0.2,0.3,0.2,0.4c0.1,0.1,0.1,0.3,0.1,0.4c0,0.1,0,0.1,0,0.2c0,0.1,0,0.1,0,0.2c0,0.1,0,0.1,0,0.2c0,0.1,0,0.1,0,0.2
		l3.2-1.6l-0.1,0.3c0,0,0,0,0,0.1c0,0,0,0,0,0.1c0,0,0,0,0,0.1c0,0,0,0,0,0c0,0,0,0,0,0c0,0,0,0,0,0c0,0,0,0,0,0c0,0,0,0,0,0
		c0,0,0,0,0,0c0,0,0,0,0,0c0,0,0,0.1,0,0.1c0,0,0,0.1,0,0.1L14,53.7L11,55.2l2.7,0.5L13.6,56c0,0,0,0,0,0c0,0,0,0,0,0c0,0,0,0,0,0
		c0,0,0,0,0,0c0,0,0,0,0,0c0,0,0,0,0,0c0,0,0,0,0,0c0,0,0,0,0,0c0,0,0,0,0,0c0,0,0,0.1,0,0.1c0,0,0,0.1,0,0.1l-0.1,0.3L7.6,55.7z"/>
	<path class="st3" d="M9.6,49.8c-0.1-0.1-0.3-0.3-0.3-0.5c-0.1-0.2-0.1-0.4-0.1-0.5c0-0.2,0-0.4,0-0.5c0,0,0,0,0,0c0,0,0,0,0,0
		c0,0,0,0,0,0c0,0,0,0,0,0c0,0,0,0,0,0c0,0,0,0,0,0l0.1-0.3c0-0.1,0.1-0.3,0.1-0.4c0.1-0.1,0.1-0.2,0.2-0.3c0.1-0.1,0.1-0.2,0.2-0.2
		c0.1-0.1,0.2-0.1,0.2-0.1c0,0,0.1,0.1,0.1,0.1c0,0,0.1,0.1,0.1,0.1c0,0,0.1,0.1,0.1,0.1c0.1,0,0.1,0.1,0.2,0.1l0,0l0,0l-0.1,0.3
		l0,0.1c0,0,0,0-0.1,0c0,0,0,0-0.1,0c0,0-0.1,0-0.1,0c0,0-0.1,0-0.1,0c-0.1,0-0.1,0.1-0.2,0.1c-0.1,0-0.1,0.1-0.2,0.2
		c0,0-0.1,0.1-0.1,0.1c0,0.1-0.1,0.1-0.1,0.2c0,0.1,0,0.2,0,0.3c0,0.1,0.1,0.2,0.1,0.3c0.1,0.1,0.2,0.2,0.3,0.3
		c0.1,0.1,0.2,0.1,0.3,0.2c0,0,0,0,0,0c0,0,0,0,0,0c0,0,0,0,0,0s0,0,0,0c0,0,0,0,0,0c0,0,0,0,0,0c0.1,0,0.2,0,0.2,0
		c0.1,0,0.2,0,0.3-0.1c0.1,0,0.2-0.1,0.3-0.2c0.1-0.1,0.2-0.1,0.3-0.3l0.6-0.8c0.1-0.1,0.2-0.3,0.4-0.3c0.1-0.1,0.3-0.2,0.4-0.2
		c0.1,0,0.3-0.1,0.4-0.1c0.1,0,0.3,0,0.4,0.1c0,0,0,0,0,0c0,0,0,0,0,0c0,0,0,0,0,0c0,0,0,0,0,0c0,0,0,0,0,0c0,0,0,0,0,0
		c0.2,0.1,0.4,0.2,0.6,0.3c0.2,0.2,0.3,0.3,0.5,0.6c0.1,0.2,0.2,0.5,0.3,0.7c0,0.2,0,0.5-0.1,0.8L15,50l0,0l0,0c0,0,0,0,0,0
		c0,0,0,0,0,0c0,0,0,0,0,0c0,0,0,0,0,0c0,0,0,0,0,0c0,0,0,0,0,0c0,0,0,0,0,0c0,0,0,0,0,0c0,0.1-0.1,0.2-0.1,0.3
		c-0.1,0.1-0.1,0.2-0.2,0.3c-0.1,0.1-0.1,0.2-0.2,0.2c-0.1,0.1-0.1,0.1-0.2,0.2l0,0l0,0c0,0-0.1-0.1-0.1-0.1c0,0-0.1-0.1-0.1-0.1
		c0,0,0,0-0.1,0c0,0,0,0-0.1,0c0,0,0,0,0,0c0,0,0,0-0.1,0c0,0,0,0,0,0c0,0,0,0,0,0c0,0,0,0,0,0c0,0,0,0,0,0c0,0,0,0-0.1,0
		c0,0,0,0-0.1,0l0-0.1l0.1-0.3c0.3-0.1,0.5-0.2,0.6-0.2c0.2-0.1,0.3-0.2,0.3-0.3c0-0.1,0.1-0.1,0.1-0.2c0-0.1,0.1-0.1,0.1-0.2
		c0-0.1,0-0.3,0-0.4c0-0.1-0.1-0.2-0.2-0.3c-0.1-0.1-0.2-0.2-0.3-0.3c-0.1-0.1-0.2-0.1-0.4-0.2c-0.1,0-0.2,0-0.3,0s-0.2,0-0.3,0.1
		c-0.1,0-0.2,0.1-0.3,0.1c-0.1,0.1-0.2,0.2-0.3,0.3l-0.6,0.7c-0.2,0.2-0.3,0.4-0.5,0.5c-0.2,0.1-0.3,0.2-0.5,0.2c-0.1,0-0.3,0-0.4,0
		c-0.1,0-0.3,0-0.4-0.1l0,0C9.9,50,9.7,49.9,9.6,49.8"/>
	<path class="st3" d="M10.5,43.9C10.5,43.9,10.5,43.9,10.5,43.9C10.6,43.8,10.6,43.8,10.5,43.9C10.6,43.8,10.6,43.8,10.5,43.9
		c0.1-0.1,0.1-0.1,0.1-0.1c0,0,0,0,0,0c0,0,0-0.1,0-0.1c0,0,0-0.1,0-0.1l0.1-0.3l5.6,1.8l-0.1,0.3c0,0,0,0,0,0.1c0,0,0,0.1,0,0.1
		c0,0,0,0,0,0c0,0,0,0,0,0c0,0,0,0,0,0c0,0,0,0,0,0c0,0,0,0.1,0,0.1c0,0,0,0,0,0.1L16,46.1l-5.7-1.8L10.5,43.9
		C10.5,43.9,10.5,43.9,10.5,43.9"/>
	<path class="st3" d="M12.2,40l4.7,1.9c0-0.1,0.1-0.1,0.1-0.2c0-0.1,0.1-0.1,0.1-0.2c0,0,0,0,0,0c0,0,0,0,0,0c0,0,0,0,0,0
		c0,0,0,0,0,0c0.2-0.4,0.2-0.8,0.3-1.1s0-0.6-0.1-0.9c-0.1-0.3-0.3-0.5-0.6-0.8c-0.3-0.2-0.6-0.5-1.1-0.7c0,0,0,0,0,0c0,0,0,0,0,0
		c0,0,0,0,0,0c0,0,0,0,0,0c0,0,0,0-0.1,0c0,0,0,0-0.1,0c-0.4-0.1-0.7-0.2-1-0.2c-0.3,0-0.5,0-0.7,0.2c-0.2,0.1-0.4,0.3-0.6,0.4
		c-0.2,0.2-0.3,0.3-0.4,0.5c0,0,0,0,0,0.1c0,0,0,0,0,0.1c0,0,0,0.1,0,0.1c0,0,0,0,0,0.1c0,0,0,0,0,0c0,0,0,0,0,0c0,0,0,0,0,0
		c0,0,0,0,0,0c0,0,0,0,0,0c0,0,0,0,0,0c0,0,0,0,0,0.1c0,0,0,0,0,0c0,0.1,0,0.1-0.1,0.2c0,0.1,0,0.1,0,0.2c0,0,0,0.1,0,0.1
		c0,0,0,0.1,0,0.1C12.3,39.9,12.3,39.9,12.2,40C12.3,40,12.3,40,12.2,40L12.2,40z M12.6,38.1c0.2-0.4,0.4-0.8,0.7-1
		c0.3-0.3,0.5-0.4,0.9-0.5c0.3-0.1,0.7-0.1,1-0.1c0.3,0,0.7,0.1,1,0.3c0.1,0,0.2,0.1,0.3,0.1c0.1,0,0.2,0.1,0.3,0.1
		c0.1,0.1,0.2,0.1,0.3,0.2c0.1,0.1,0.2,0.1,0.3,0.2c0.2,0.2,0.3,0.3,0.5,0.6c0.1,0.2,0.3,0.4,0.4,0.7c0.1,0.3,0.2,0.5,0.1,0.8
		c0,0.3-0.1,0.6-0.2,1l-0.1,0.3l-0.9,2.2l-5.5-2.2l0.1-0.3L12.6,38.1z"/>
	<path class="st3" d="M18.6,32.8l-1.8-0.2l1.1,1.4L18.6,32.8z M15.4,31.9l0.2-0.3l0.1-0.2l6.5,0.7L22,32.4c0,0,0,0,0,0
		c0,0,0,0,0,0.1c0,0,0,0,0,0.1c0,0,0,0,0,0.1c0,0,0,0,0,0c0,0,0,0,0,0c0,0,0,0,0,0c0,0,0,0,0,0c0,0,0,0,0,0c0,0,0,0,0,0c0,0,0,0,0,0
		s0,0,0,0c0,0,0,0,0,0c0,0,0,0,0,0l-0.2,0.3L19,32.8l-0.8,1.5l1.7,1.9l-0.2,0.3c0,0,0,0,0,0c0,0,0,0,0,0l0,0c0,0,0,0,0,0
		c0,0,0,0,0,0c0,0,0,0,0,0c0,0,0,0,0,0L19.5,37c0,0,0,0,0,0c0,0,0,0,0,0L15.4,31.9z"/>
	<path class="st3" d="M19.3,26.8l4,3.2c0,0,0.1-0.1,0.1-0.1c0,0,0.1-0.1,0.1-0.1c0,0,0,0,0,0c0,0,0,0,0,0c0,0,0,0,0,0c0,0,0,0,0,0
		c0.3-0.4,0.5-0.7,0.6-1c0.1-0.3,0.2-0.6,0.1-0.9c0-0.3-0.1-0.6-0.3-0.9c-0.2-0.3-0.5-0.6-0.9-1c0,0,0,0,0,0c0,0,0,0,0,0
		c0,0,0,0,0,0c0,0,0,0,0,0c0,0,0,0,0,0c0,0,0,0,0,0c-0.3-0.2-0.6-0.4-0.9-0.5C21.9,25,21.6,25,21.4,25c-0.2,0.1-0.5,0.1-0.7,0.2
		c-0.2,0.1-0.4,0.2-0.6,0.4c0,0,0,0-0.1,0.1c0,0,0,0-0.1,0.1c0,0,0,0-0.1,0.1c0,0,0,0-0.1,0.1c0,0,0,0,0,0c0,0,0,0,0,0c0,0,0,0,0,0
		c0,0,0,0,0,0c0,0,0,0,0,0c0,0,0,0,0,0c0,0,0,0,0,0c0,0,0,0,0,0c0,0-0.1,0.1-0.1,0.1c0,0-0.1,0.1-0.1,0.1c0,0,0,0.1-0.1,0.1
		c0,0,0,0.1-0.1,0.1C19.4,26.7,19.3,26.7,19.3,26.8C19.3,26.7,19.3,26.7,19.3,26.8L19.3,26.8z M20.1,25c0.3-0.4,0.6-0.6,0.9-0.8
		c0.3-0.2,0.6-0.2,1-0.2c0.3,0,0.6,0.1,1,0.2c0.3,0.1,0.6,0.3,0.9,0.5c0.1,0.1,0.1,0.1,0.2,0.2c0.1,0.1,0.1,0.1,0.2,0.2
		c0.1,0.1,0.1,0.2,0.2,0.2c0.1,0.1,0.1,0.2,0.2,0.3c0.1,0.2,0.2,0.4,0.3,0.7c0.1,0.2,0.1,0.5,0.2,0.8c0,0.3,0,0.6-0.1,0.9
		c-0.1,0.3-0.3,0.6-0.5,0.9l-0.2,0.3l-1.5,1.9l-4.6-3.7l0.2-0.3L20.1,25z"/>
	<path class="st3" d="M27.6,16.6l0.3-0.2l0.3-0.2l5.6,1.2l-2.6-3.4l0.3-0.2c0,0,0,0,0.1,0c0,0,0,0,0.1,0c0,0,0,0,0,0c0,0,0,0,0,0
		l0.3-0.2l3.7,4.9l-0.3,0.2L35,18.6l-5.7-1.2l2.7,3.5l-0.3,0.2c0,0,0,0,0,0c0,0,0,0,0,0c0,0,0,0,0,0c0,0,0,0,0,0c0,0,0,0,0,0
		c0,0,0,0,0,0c0,0,0,0,0,0c0,0,0,0,0,0l-0.3,0.2L27.6,16.6z"/>
	<path class="st3" d="M38.5,13.4l-1.4-1.2l0.2,1.9L38.5,13.4z M36.3,10.7l0.3-0.2l0.2-0.1l5.1,4.4L41.6,15c0,0,0,0,0,0
		c0,0,0,0-0.1,0c0,0,0,0-0.1,0c0,0,0,0-0.1,0c0,0,0,0,0,0c0,0,0,0,0,0c0,0,0,0,0,0c0,0,0,0,0,0c0,0,0,0,0,0c0,0,0,0,0,0c0,0,0,0,0,0
		c0,0,0,0,0,0c0,0,0,0,0,0c0,0,0,0,0,0l-0.3,0.2l-1.9-1.8l-1.6,0.8l0.3,2.6l-0.3,0.2c0,0,0,0,0,0c0,0,0,0,0,0l0,0c0,0,0,0,0,0
		c0,0,0,0,0,0c0,0,0,0,0,0c0,0,0,0,0,0l-0.3,0.2c0,0,0,0,0,0c0,0,0,0,0,0L36.3,10.7z"/>
	<path class="st3" d="M41.7,10.5c0-0.4,0.2-0.8,0.3-1.1c0.2-0.4,0.4-0.7,0.8-0.9C43.2,8.2,43.6,8,44,7.8l0.3-0.1c0,0,0.1,0,0.1,0
		c0,0,0.1,0,0.1,0c0,0,0.1,0,0.1,0c0,0,0.1,0,0.1,0c0.1,0,0.1,0,0.2,0c0.1,0,0.1,0,0.2,0c0.1,0,0.2,0,0.4-0.1c0.1,0,0.2,0,0.4,0
		c0.1,0,0.2,0,0.3,0s0.2,0,0.3,0.1l0,0.7l-0.3,0.1l-0.1,0c-0.1-0.1-0.2-0.1-0.4-0.2c-0.1,0-0.2-0.1-0.4-0.1c-0.1,0-0.2,0-0.4,0
		c-0.1,0-0.2,0-0.4,0c0,0-0.1,0-0.1,0c0,0-0.1,0-0.1,0c0,0,0,0,0,0c0,0,0,0,0,0c0,0,0,0,0,0c-0.2,0.1-0.5,0.2-0.7,0.4
		c-0.2,0.2-0.4,0.4-0.5,0.6c-0.2,0.3-0.2,0.6-0.3,0.9c0,0.3,0,0.7,0.1,1.1l0,0.1l0,0.1c0.1,0.5,0.3,0.9,0.5,1.2
		c0.2,0.3,0.5,0.5,0.7,0.7c0.3,0.1,0.5,0.2,0.8,0.2c0.3,0,0.5,0,0.8,0c0.1-0.1,0.3-0.1,0.4-0.2c0.1-0.1,0.3-0.2,0.4-0.2
		c0.1-0.1,0.2-0.2,0.3-0.3c0.1-0.1,0.2-0.2,0.3-0.3l0.3-0.1l0.1,0.5c0,0-0.1,0.1-0.1,0.1c0,0-0.1,0.1-0.1,0.1c0,0-0.1,0.1-0.1,0.1
		c0,0-0.1,0.1-0.1,0.1c-0.1,0-0.1,0.1-0.2,0.1c-0.1,0-0.1,0.1-0.2,0.1c0,0,0,0-0.1,0c0,0,0,0,0,0c-0.1,0-0.2,0.1-0.2,0.1
		c-0.1,0-0.1,0.1-0.2,0.1c-0.1,0-0.1,0.1-0.2,0.1c-0.1,0-0.1,0-0.2,0.1L45.7,14c-0.4,0.1-0.8,0.1-1.2,0.1c-0.4,0-0.8-0.2-1.1-0.3
		c-0.4-0.2-0.7-0.5-0.9-0.8c-0.2-0.3-0.4-0.7-0.6-1.2l0,0C41.7,11.3,41.7,10.9,41.7,10.5"/>
	<path class="st3" d="M49.2,6.9C49.2,6.9,49.2,6.9,49.2,6.9c0.1,0,0.1,0,0.1,0c0,0,0,0,0,0c0,0,0,0,0,0c0,0,0,0,0,0c0,0,0.1,0,0.1,0
		c0,0,0.1,0,0.1,0l0.3,0l0.7,6.1l-0.3,0c0,0,0,0-0.1,0c0,0-0.1,0-0.1,0c0,0,0,0,0,0c0,0,0,0,0,0s0,0,0,0s0,0,0,0c0,0-0.1,0-0.1,0
		c0,0-0.1,0-0.1,0l-0.3,0l-0.7-6.1L49.2,6.9C49.1,6.9,49.1,6.9,49.2,6.9"/>
	<path class="st3" d="M53.4,9.7c0,0.5,0,0.9,0.1,1.2c0.1,0.4,0.2,0.7,0.5,0.9c0.2,0.2,0.4,0.4,0.7,0.6c0.3,0.1,0.5,0.2,0.8,0.3
		c0.3,0,0.6-0.1,0.8-0.2c0.2-0.1,0.5-0.3,0.7-0.5c0.2-0.2,0.4-0.5,0.6-0.9c0.1-0.3,0.2-0.7,0.3-1.2c0,0,0,0,0,0c0,0,0,0,0,0
		c0,0,0,0,0,0c0,0,0,0,0,0c0-0.4,0-0.7-0.1-1.1c-0.1-0.3-0.2-0.6-0.5-0.9c-0.2-0.2-0.4-0.4-0.7-0.6C56.3,7.1,56,7,55.7,6.9
		c-0.3,0-0.5,0.1-0.8,0.1c-0.2,0.1-0.4,0.2-0.6,0.4c-0.2,0.2-0.3,0.4-0.5,0.6c-0.1,0.2-0.2,0.5-0.3,0.7c0,0.1,0,0.1-0.1,0.2
		c0,0.1,0,0.1-0.1,0.2c0,0.1,0,0.1,0,0.2C53.4,9.5,53.4,9.6,53.4,9.7L53.4,9.7z M52.2,9.5C52.2,9.5,52.2,9.5,52.2,9.5
		c0-0.1,0-0.1,0-0.2c0,0,0-0.1,0-0.1c0.1-0.4,0.2-0.7,0.3-1c0.2-0.3,0.4-0.6,0.7-0.9c0.3-0.3,0.6-0.5,1-0.6c0.4-0.1,0.9-0.2,1.4-0.2
		l0.3,0c0.5,0,1,0.1,1.3,0.3C57.7,7,58,7.2,58.2,7.4c0.2,0.2,0.4,0.5,0.5,0.8C58.8,8.5,58.9,8.8,59,9c0,0,0,0.1,0,0.1
		c0,0,0,0.1,0,0.1c0,0,0,0.1,0,0.1c0,0,0,0.1,0,0.1c0,0.1,0,0.1,0,0.2c0,0.1,0,0.1,0,0.2v0l0,0l0,0l0,0c0,0.5-0.1,0.9-0.3,1.3
		c-0.2,0.4-0.4,0.7-0.8,1c-0.3,0.3-0.7,0.5-1.1,0.6c-0.4,0.1-0.8,0.2-1.2,0.1l-0.3,0c0,0,0,0,0,0c0,0,0,0,0,0c0,0,0,0,0,0
		c0,0,0,0,0,0c-0.1,0-0.1,0-0.2,0c-0.1,0-0.1,0-0.2,0c-0.1,0-0.1,0-0.2,0c-0.1,0-0.1,0-0.2-0.1c-0.3-0.1-0.5-0.2-0.8-0.4
		c-0.3-0.2-0.5-0.4-0.7-0.6c-0.2-0.3-0.4-0.6-0.5-0.9C52.2,10.5,52.2,10.1,52.2,9.5L52.2,9.5C52.2,9.6,52.2,9.5,52.2,9.5"/>
	<path class="st3" d="M62,7.4l0.3,0.1l0.4,0.1l2.3,5.2l1.3-4.1l0.3,0.1c0,0,0,0,0,0c0,0,0,0,0,0c0,0,0,0,0.1,0c0,0,0,0,0,0L67.2,9
		l-1.8,5.9l-0.3-0.1l-0.3-0.1l-2.4-5.3l-1.3,4.2l-0.3-0.1c0,0,0,0,0,0c0,0,0,0,0,0c0,0,0,0,0,0c0,0,0,0,0,0c0,0,0,0,0,0c0,0,0,0,0,0
		c0,0,0,0,0,0c0,0,0,0,0,0l-0.3-0.1L62,7.4z"/>
	<path class="st3" d="M71,14.6l0.2-1.9l-1.5,1.2L71,14.6z M71.9,11.3l0.3,0.2l0.2,0.1l-0.8,6.7L71.3,18c0,0,0,0,0,0c0,0,0,0-0.1,0
		c0,0,0,0-0.1,0c0,0,0,0-0.1,0c0,0,0,0,0,0c0,0,0,0,0,0c0,0,0,0,0,0c0,0,0,0,0,0c0,0,0,0,0,0c0,0,0,0,0,0c0,0,0,0,0,0c0,0,0,0,0,0
		c0,0,0,0,0,0c0,0,0,0,0,0l-0.3-0.2l0.4-2.6l-1.5-0.9l-2,1.7l-0.3-0.2c0,0,0,0,0,0c0,0,0,0,0,0l0,0c0,0,0,0,0,0c0,0,0,0,0,0
		c0,0,0,0,0,0c0,0,0,0,0,0l-0.3-0.2c0,0,0,0,0,0c0,0,0,0,0,0L71.9,11.3z"/>
	<path class="st3" d="M76.5,14.2l0.3,0.2c0,0,0,0.1,0,0.1c0,0,0,0,0.1,0.1c0,0,0,0,0,0c0,0,0,0,0,0c0,0,0,0,0,0c0,0,0,0,0,0
		c0,0,0,0,0,0c0,0,0.1,0,0.1,0c0,0,0,0,0.1,0l0.3,0.2l-3.5,4.4c0,0,0.1,0.1,0.1,0.1c0,0,0.1,0.1,0.1,0.1c0,0,0.1,0.1,0.1,0.1
		c0,0,0.1,0.1,0.1,0.1c0,0,0,0,0.1,0s0,0,0.1,0c0,0,0,0,0.1,0c0,0,0,0,0.1,0c0.1,0.1,0.2,0.1,0.3,0.2c0.1,0.1,0.2,0.1,0.3,0.2
		c0.1,0.1,0.2,0.1,0.2,0.2c0.1,0,0.1,0.1,0.2,0.1l0.3,0.2c0,0,0,0-0.1,0c0,0,0,0,0,0c0,0,0,0,0,0c0,0,0,0,0,0c0,0,0,0,0,0
		c0,0,0,0,0,0c0,0,0,0,0,0c0,0,0,0,0,0c0,0,0,0,0,0c0,0,0,0,0,0c0,0,0,0,0,0c0,0,0,0,0,0l0,0L75.1,21L72.6,19L76.5,14.2z"/>
	<path class="st3" d="M83.7,21.8l-3.9,3.3c0,0.1,0.1,0.1,0.1,0.2c0,0.1,0.1,0.1,0.1,0.2c0,0,0,0,0,0c0,0,0,0,0,0c0,0,0,0,0,0
		c0,0,0,0,0,0c0.3,0.3,0.6,0.6,0.9,0.8c0.3,0.2,0.6,0.3,0.9,0.3c0.3,0,0.6,0,1-0.1c0.4-0.1,0.7-0.3,1.1-0.6c0,0,0,0,0,0c0,0,0,0,0,0
		c0,0,0,0,0,0c0,0,0,0,0,0c0,0,0,0,0,0c0,0,0,0,0,0c0.3-0.2,0.5-0.5,0.7-0.7c0.1-0.2,0.2-0.5,0.2-0.7c0-0.2,0-0.5-0.1-0.7
		c-0.1-0.2-0.2-0.4-0.3-0.6c0,0,0,0,0-0.1c0,0,0,0,0-0.1c0,0,0-0.1,0-0.1c0,0,0,0,0-0.1c0,0,0,0,0,0c0,0,0,0,0,0c0,0,0,0,0,0
		c0,0,0,0,0,0c0,0,0,0,0,0c0,0,0,0,0,0c0,0,0,0,0,0c0,0,0,0,0,0c0,0-0.1-0.1-0.1-0.1c0,0-0.1-0.1-0.1-0.1c0,0-0.1,0-0.1-0.1
		c0,0,0,0-0.1-0.1C83.8,21.9,83.8,21.9,83.7,21.8C83.7,21.8,83.7,21.8,83.7,21.8L83.7,21.8z M85.2,23c0.3,0.4,0.5,0.7,0.6,1.1
		c0.1,0.3,0.1,0.7,0,1c-0.1,0.3-0.2,0.6-0.4,0.9c-0.2,0.3-0.4,0.5-0.7,0.8c-0.1,0.1-0.1,0.1-0.2,0.2c-0.1,0.1-0.2,0.1-0.3,0.2
		c-0.1,0.1-0.2,0.1-0.3,0.2c-0.1,0-0.2,0.1-0.3,0.1c-0.2,0.1-0.5,0.1-0.7,0.2c-0.3,0-0.5,0-0.8,0c-0.3,0-0.5-0.1-0.8-0.3
		c-0.3-0.2-0.5-0.4-0.8-0.7l-0.2-0.3l-1.5-1.9l4.6-3.8l0.2,0.3L85.2,23z"/>
	<path class="st3" d="M87.9,26.5l0.2,0.3l1.6,2.5c0,0-0.1,0-0.1,0c0,0,0,0-0.1,0c0,0,0,0,0,0c0,0,0,0,0,0c0,0,0,0,0,0c0,0,0,0,0,0
		l0,0l0,0c0,0,0,0-0.1,0c0,0,0,0,0,0c0,0,0,0,0,0c0,0,0,0,0,0c0,0,0,0,0,0c0,0,0,0,0,0L89,29.3c0-0.1-0.1-0.2-0.1-0.2
		c0-0.1-0.1-0.2-0.1-0.2c0-0.1-0.1-0.2-0.1-0.2c0-0.1-0.1-0.2-0.1-0.2l0,0c0,0,0,0,0,0c0,0,0,0,0-0.1c0,0,0,0,0-0.1c0,0,0,0,0,0
		c0,0,0,0,0-0.1c0,0,0,0,0-0.1c0,0,0,0,0-0.1c0,0,0,0,0-0.1c0,0-0.1-0.1-0.1-0.1c0,0-0.1-0.1-0.1-0.1l-1.7,1.1l0.5,0.8l0.5,0.6
		l0.2,0.3c0,0,0,0-0.1,0c0,0,0,0-0.1,0c0,0,0,0-0.1,0c0,0,0,0-0.1,0c0,0,0,0,0,0c0,0,0,0,0,0c0,0,0,0,0,0c0,0,0,0,0,0c0,0,0,0,0,0.1
		c0,0,0,0-0.1,0.1l-0.2-0.3l-0.5-0.9L86,29.1l-2,1.3c0,0,0,0.1,0,0.1s0,0.1,0.1,0.1c0,0,0,0.1,0.1,0.1c0,0,0,0.1,0.1,0.1
		c0,0,0,0,0,0.1c0,0,0,0,0,0c0,0,0,0,0,0.1c0,0,0,0,0,0.1c0.1,0.1,0.1,0.2,0.2,0.3c0.1,0.1,0.1,0.2,0.2,0.3c0.1,0.1,0.1,0.1,0.2,0.2
		C85,31.9,85,32,85.1,32l0.2,0.3c0,0-0.1,0-0.1,0c0,0-0.1,0-0.1,0c0,0,0,0-0.1,0c0,0,0,0-0.1,0c0,0,0,0-0.1,0c0,0,0,0-0.1,0
		c0,0,0,0,0,0c0,0,0,0,0,0l-0.2-0.3L83,29.8L87.9,26.5z"/>
	<path class="st3" d="M92.2,33.8C92.2,33.9,92.3,33.9,92.2,33.8C92.3,33.9,92.3,33.9,92.2,33.8c0,0.1,0,0.1,0,0.1c0,0,0,0,0,0
		c0,0,0,0,0,0c0,0,0,0.1,0.1,0.1c0,0,0,0,0.1,0.1l0.2,0.3l-5.3,2.7l-0.2-0.3c0,0,0,0,0-0.1c0,0,0-0.1,0-0.1c0,0,0,0,0,0c0,0,0,0,0,0
		c0,0,0,0,0,0c0,0,0,0,0,0c0,0,0-0.1-0.1-0.1c0,0,0,0,0-0.1l-0.2-0.3l5.3-2.7L92.2,33.8C92.2,33.8,92.2,33.8,92.2,33.8"/>
	<path class="st3" d="M93.7,36.7l0.1,0.3l0.2,0.4l-2.4,4.9l3.8-1.6l0.1,0.3c0,0,0,0,0,0.1c0,0,0,0,0,0.1c0,0,0,0,0,0c0,0,0,0,0,0
		l0.1,0.3l-5.5,2.3l-0.1-0.3L90,43.1l2.5-5l-3.9,1.6l-0.1-0.3c0,0,0,0,0,0c0,0,0,0,0,0c0,0,0,0,0,0c0,0,0,0,0,0c0,0,0,0,0,0
		c0,0,0,0,0,0c0,0,0,0,0,0c0,0,0,0,0,0l-0.1-0.3L93.7,36.7z"/>
	<path class="st3" d="M94.8,44.4c0.4,0,0.7,0.1,0.9,0.2c0.3,0.1,0.5,0.3,0.7,0.4c0.2,0.2,0.4,0.3,0.5,0.5c0.1,0.1,0.1,0.2,0.2,0.3
		c0.1,0.1,0.1,0.2,0.2,0.3c0,0.1,0.1,0.2,0.1,0.3c0,0.1,0.1,0.2,0.1,0.3l0.1,0.3c0,0.2,0.1,0.3,0.1,0.5c0,0.2,0.1,0.4,0.1,0.5
		c0,0.2,0,0.4,0,0.6c0,0.2,0,0.4-0.1,0.6l-0.8-0.1l-0.1-0.3c0,0,0-0.1,0-0.1c0,0,0-0.1,0.1-0.1c0,0,0-0.1,0.1-0.1c0,0,0-0.1,0.1-0.1
		c0-0.1,0.1-0.2,0.1-0.3c0-0.1,0-0.2,0.1-0.4c0-0.1,0-0.2,0-0.3c0-0.1,0-0.2-0.1-0.4c0,0,0-0.1,0-0.1c0,0,0-0.1,0-0.1
		c0-0.1,0-0.1-0.1-0.2c0-0.1-0.1-0.1-0.1-0.2c-0.1-0.2-0.3-0.3-0.4-0.5c-0.2-0.1-0.4-0.3-0.6-0.4c-0.2-0.1-0.5-0.2-0.8-0.2
		c-0.3,0-0.6,0-1,0.1l0,0l0,0l0,0l0,0c-0.4,0.1-0.8,0.3-1.1,0.5c-0.3,0.2-0.5,0.4-0.7,0.7c-0.2,0.3-0.3,0.5-0.3,0.8
		c0,0.3,0,0.6,0,0.9c0,0.1,0.1,0.2,0.1,0.3c0,0.1,0.1,0.2,0.1,0.3c0.1,0.1,0.1,0.2,0.2,0.3c0.1,0.1,0.1,0.1,0.2,0.2l2.2-0.6l0.1,0.3
		c0,0,0,0,0,0c0,0,0,0,0,0c0,0,0,0,0,0c0,0,0,0,0,0c0,0,0,0,0,0c0,0,0,0,0,0c0,0,0,0,0,0c0,0,0,0,0,0l0,0c0,0,0,0.1,0,0.1
		c0,0,0,0.1,0,0.1L95,50l-2.4,0.7l0,0l0,0c0,0,0,0-0.1-0.1c0,0,0-0.1-0.1-0.1c0,0-0.1-0.1-0.1-0.1c0,0,0-0.1-0.1-0.1
		c0-0.1-0.1-0.2-0.1-0.3c0-0.1-0.1-0.2-0.1-0.3c0-0.1-0.1-0.2-0.1-0.3c0-0.1-0.1-0.2-0.1-0.3c0-0.1-0.1-0.2-0.1-0.2
		c0-0.1,0-0.1-0.1-0.2l-0.1-0.3c0,0,0,0,0,0c0,0,0,0,0,0c0,0,0,0,0,0c0,0,0,0,0,0c-0.1-0.4-0.2-0.9-0.2-1.3c0-0.4,0.1-0.8,0.3-1.1
		c0.2-0.3,0.4-0.6,0.8-0.9c0.3-0.2,0.7-0.4,1.1-0.5l0,0C94,44.5,94.4,44.4,94.8,44.4"/>
	<path class="st3" d="M98.5,51.5l0.1,0.3l0.6,2.9c0,0-0.1,0-0.1,0c0,0,0,0-0.1,0c0,0,0,0,0,0c0,0,0,0,0,0c0,0,0,0,0,0c0,0,0,0,0,0
		l0,0l0,0c0,0-0.1,0-0.1,0c0,0,0,0-0.1,0c0,0,0,0,0,0c0,0,0,0,0,0c0,0,0,0,0,0c0,0,0,0,0,0l-0.1-0.3c0-0.1,0-0.2,0-0.2
		c0-0.1,0-0.2,0-0.3c0-0.1,0-0.2,0-0.3c0-0.1,0-0.2,0-0.3l0,0c0,0,0,0,0-0.1c0,0,0,0,0-0.1c0,0,0,0,0-0.1c0,0,0,0,0-0.1
		c0,0,0,0,0-0.1c0,0,0-0.1,0-0.1c0,0,0,0,0-0.1c0,0,0,0,0-0.1c0,0,0-0.1,0-0.1c0,0,0-0.1,0-0.1l-2,0.4l0.2,0.9l0.2,0.7l0.1,0.3
		c0,0-0.1,0-0.1,0c0,0,0,0-0.1,0c0,0,0,0-0.1,0c0,0,0,0-0.1,0c0,0,0,0,0,0c0,0,0,0,0,0c0,0,0,0,0,0c0,0,0,0,0,0c0,0,0,0-0.1,0
		c0,0,0,0-0.1,0l-0.1-0.3l-0.1-1l-0.1-0.7l-2.4,0.5c0,0,0,0.1,0,0.1c0,0,0,0.1,0,0.1c0,0,0,0.1,0,0.1c0,0,0,0.1,0,0.1
		c0,0,0,0.1,0,0.1c0,0,0,0,0,0.1c0,0,0,0,0,0.1c0,0,0,0,0,0.1c0,0.1,0.1,0.2,0.1,0.3c0,0.1,0.1,0.2,0.1,0.3c0,0.1,0.1,0.2,0.1,0.3
		c0,0.1,0,0.2,0.1,0.2l0.1,0.3c0,0-0.1,0-0.1,0c0,0-0.1,0-0.1,0c0,0,0,0-0.1,0c0,0,0,0-0.1,0c0,0,0,0-0.1,0c0,0,0,0-0.1,0
		c0,0,0,0-0.1,0c0,0,0,0,0,0l-0.1-0.3l-0.6-3L98.5,51.5z"/>
	<path class="st3" d="M99.6,57l0,0.3l0,0.4l-3.8,4l4.1-0.4l0,0.3c0,0,0,0,0,0c0,0,0,0,0,0c0,0,0,0,0,0.1c0,0,0,0,0,0l0,0.3l-5.9,0.6
		l0-0.3l0-0.3L98,58l-4.2,0.4l0-0.3c0,0,0,0,0,0c0,0,0,0,0,0c0,0,0,0,0,0c0,0,0,0,0,0c0,0,0,0,0,0c0,0,0,0,0,0c0,0,0,0,0,0
		c0,0,0,0,0,0l0-0.3L99.6,57z"/>
	<path class="st3" d="M100.2,65.2C100.1,65.2,100.1,65.2,100.2,65.2C100.1,65.2,100.1,65.2,100.2,65.2c0,0.1,0,0.1,0,0.1
		c0,0,0,0,0,0c0,0,0,0,0,0c0,0,0,0.1,0,0.1c0,0,0,0.1,0,0.1l0,0.3l-5.9,0.1l0-0.3c0,0,0,0,0-0.1c0,0,0-0.1,0-0.1c0,0,0,0,0,0
		c0,0,0,0,0,0c0,0,0,0,0,0s0,0,0,0c0,0,0-0.1,0-0.1c0,0,0-0.1,0-0.1l0-0.3l5.9-0.1L100.2,65.2C100.2,65.1,100.2,65.1,100.2,65.2"/>
	<path class="st3" d="M100.1,68.1l0,0.3l0,3c0,0-0.1,0-0.1,0c0,0,0,0-0.1,0c0,0,0,0,0,0c0,0,0,0,0,0c0,0,0,0,0,0c0,0,0,0,0,0h0h0
		c0,0-0.1,0-0.1,0c0,0,0,0-0.1,0c0,0,0,0,0,0c0,0,0,0,0,0c0,0,0,0,0,0c0,0,0,0,0,0l0-0.3c0-0.1,0-0.2,0-0.2c0-0.1,0-0.2,0-0.3
		c0-0.1,0-0.2,0-0.3c0-0.1,0-0.2,0-0.3v0c0,0,0,0,0-0.1c0,0,0,0,0-0.1c0,0,0,0,0-0.1c0,0,0,0,0-0.1c0,0,0,0,0-0.1c0,0,0-0.1,0-0.1
		c0,0,0,0,0-0.1s0,0,0-0.1c0,0,0-0.1,0-0.1c0,0,0-0.1,0-0.1l-2.1,0l0,0.9l0.1,0.8l0,0.3c0,0-0.1,0-0.1,0c0,0,0,0-0.1,0
		c0,0,0,0-0.1,0c0,0,0,0-0.1,0c0,0,0,0,0,0h0c0,0,0,0,0,0c0,0,0,0,0,0c0,0,0,0-0.1,0c0,0-0.1,0-0.1,0l0-0.3l0.1-1l0-0.7l-2.4,0
		c0,0,0,0.1,0,0.1c0,0,0,0.1,0,0.1c0,0,0,0.1,0,0.1c0,0,0,0.1,0,0.1c0,0,0,0.1,0,0.1c0,0,0,0,0,0.1c0,0,0,0,0,0.1c0,0,0,0,0,0.1
		c0,0.1,0,0.2,0,0.3c0,0.1,0,0.2,0,0.3c0,0.1,0,0.2,0,0.3s0,0.2,0,0.2l0,0.3c0,0-0.1,0-0.1,0c0,0-0.1,0-0.1,0c0,0,0,0-0.1,0
		s0,0-0.1,0s0,0-0.1,0s0,0-0.1,0c0,0,0,0-0.1,0c0,0,0,0,0,0l0-0.3l0-3L100.1,68.1z"/>
	<path class="st3" d="M97.2,74.4C97.2,74.5,97.2,74.5,97.2,74.4c0,0.3,0,0.4,0,0.6c0,0.2,0.1,0.3,0.1,0.4c0.1,0.1,0.1,0.2,0.2,0.3
		c0.1,0.1,0.2,0.2,0.2,0.2c0.1,0,0.1,0.1,0.2,0.1c0.1,0,0.1,0,0.2,0.1c0.1,0,0.1,0,0.2,0c0,0,0.1,0,0.1,0c0,0,0.1,0,0.1,0
		c0,0,0.1,0,0.1,0c0,0,0.1,0,0.1,0c0,0,0.1,0,0.2-0.1c0.1,0,0.2-0.1,0.2-0.1s0.1-0.1,0.2-0.2c0.1-0.1,0.1-0.2,0.2-0.3
		c0-0.1,0.1-0.3,0.1-0.5l0-0.4L97.2,74.4C97.3,74.4,97.3,74.4,97.2,74.4 M100.1,73.5l0,0.3l-0.2,2c0,0.3-0.1,0.5-0.2,0.7
		c-0.1,0.2-0.2,0.4-0.3,0.5c-0.1,0.1-0.3,0.2-0.5,0.3c-0.2,0-0.4,0.1-0.6,0c-0.2,0-0.4-0.1-0.5-0.1c-0.2-0.1-0.3-0.2-0.4-0.3
		c-0.1-0.1-0.2-0.2-0.3-0.4c-0.1-0.1-0.1-0.3-0.2-0.4c0-0.1,0-0.1-0.1-0.2c0-0.1,0-0.1,0-0.2c0-0.1,0-0.1,0-0.2c0-0.1,0-0.1,0-0.2
		l-3.1,2l0-0.3c0,0,0,0,0-0.1s0,0,0-0.1c0,0,0,0,0-0.1c0,0,0,0,0-0.1c0,0,0,0,0,0c0,0,0,0,0,0c0,0,0,0,0,0c0,0,0,0,0,0c0,0,0,0,0,0
		c0,0,0,0,0,0c0,0,0-0.1,0-0.1c0,0,0-0.1,0-0.1l0-0.3l2.9-1.8l-2.7-0.2l0-0.3c0,0,0,0,0,0c0,0,0,0,0,0c0,0,0,0,0,0c0,0,0,0,0,0
		c0,0,0,0,0,0c0,0,0,0,0,0c0,0,0,0,0,0c0,0,0,0,0,0c0,0,0,0,0,0c0,0,0-0.1,0-0.1c0,0,0-0.1,0-0.1l0-0.3L100.1,73.5z"/>
	<path class="st3" d="M99.3,80.3C99.3,80.3,99.3,80.3,99.3,80.3C99.3,80.4,99.3,80.4,99.3,80.3c0,0.1,0,0.1,0,0.1s0,0,0,0
		c0,0,0,0,0,0c0,0,0,0.1,0,0.1c0,0,0,0.1,0,0.1l0,0.3L93.4,80l0.1-0.3c0,0,0,0,0-0.1c0,0,0-0.1,0-0.1c0,0,0,0,0,0c0,0,0,0,0,0
		c0,0,0,0,0,0c0,0,0,0,0,0c0,0,0-0.1,0-0.1c0,0,0-0.1,0-0.1l0.1-0.3l5.9,0.9L99.3,80.3C99.4,80.3,99.4,80.3,99.3,80.3"/>
	<path class="st3" d="M95.2,85.3L97,85l-1.5-1L95.2,85.3z M98.5,85.3l-0.1,0.3l0,0.2L92,86.9l0.1-0.3c0,0,0,0,0-0.1c0,0,0,0,0-0.1
		c0,0,0,0,0-0.1c0,0,0,0,0-0.1c0,0,0,0,0,0c0,0,0,0,0,0c0,0,0,0,0,0c0,0,0,0,0,0c0,0,0,0,0,0c0,0,0,0,0,0c0,0,0,0,0,0c0,0,0,0,0,0
		c0,0,0,0,0,0c0,0,0,0,0,0l0.1-0.3l2.5-0.4l0.4-1.6L93,82.4l0.1-0.3c0,0,0,0,0,0c0,0,0,0,0,0l0,0c0,0,0,0,0,0c0,0,0,0,0,0
		c0,0,0,0,0,0c0,0,0,0,0,0l0.1-0.3c0,0,0,0,0,0c0,0,0,0,0,0L98.5,85.3z"/>
	<path class="st3" d="M22.5,96.8l0.2,0.3c0,0,0,0.1,0,0.1c0,0,0,0.1,0,0.1c0,0,0,0,0,0c0,0,0,0,0,0c0,0,0,0,0,0c0,0,0,0,0,0
		c0,0,0,0,0,0c0,0,0,0,0.1,0.1c0,0,0,0,0,0l0.2,0.3l-4.8,2.6c0,0,0,0.1,0,0.1c0,0,0,0.1,0.1,0.1c0,0,0,0.1,0.1,0.1
		c0,0,0,0.1,0.1,0.1c0,0,0,0,0,0.1c0,0,0,0,0,0.1c0,0,0,0,0,0.1c0,0,0,0,0,0.1c0.1,0.1,0.1,0.2,0.2,0.3c0.1,0.1,0.1,0.2,0.2,0.3
		c0.1,0.1,0.1,0.2,0.2,0.2c0,0.1,0.1,0.1,0.1,0.2l0.2,0.3c0,0,0,0-0.1,0c0,0,0,0,0,0c0,0,0,0,0,0c0,0,0,0,0,0c0,0,0,0,0,0
		c0,0,0,0,0,0c0,0,0,0,0,0c0,0,0,0,0,0c0,0,0,0,0,0c0,0,0,0,0,0c0,0,0,0,0,0c0,0,0,0,0,0l0,0l-0.2-0.3l-1.4-2.5L22.5,96.8z"/>
	<path class="st3" d="M25.2,101.4C25.2,101.4,25.2,101.4,25.2,101.4C25.2,101.5,25.2,101.5,25.2,101.4c0,0.1,0,0.1,0,0.1
		c0,0,0,0,0,0c0,0,0,0,0,0c0,0,0,0,0.1,0.1c0,0,0,0,0.1,0.1l0.2,0.3l-4.9,3.3l-0.2-0.3c0,0,0,0,0-0.1c0,0,0-0.1,0-0.1c0,0,0,0,0,0
		c0,0,0,0,0,0c0,0,0,0,0,0c0,0,0,0,0,0c0,0,0,0-0.1-0.1c0,0,0,0,0-0.1l-0.2-0.3L25,101L25.2,101.4C25.1,101.3,25.1,101.4,25.2,101.4
		"/>
	<path class="st3" d="M26.7,103.7L27,104l0.2,0.2l-1.8,4.3l4.5-1.2l0.2,0.2l0.2,0.2l-4.1,4.4l-0.2-0.2c0,0,0,0-0.1-0.1
		c0,0,0-0.1,0-0.1c0,0,0,0,0,0c0,0,0,0,0,0c0,0,0,0,0,0c0,0,0,0,0,0c0,0-0.1,0-0.1-0.1c0,0-0.1-0.1-0.1-0.1l-0.2-0.2l2.7-2.8l-4,1.1
		l-0.2-0.2l-0.1-0.1l1.6-3.7l-3.1,2.2l-0.2-0.2c0,0,0,0,0,0c0,0,0,0,0-0.1c0,0,0,0,0,0c0,0,0,0,0,0c0,0,0,0,0,0c0,0,0,0,0,0
		c0,0,0,0,0,0l-0.2-0.2L26.7,103.7z"/>
	<path class="st3" d="M31.8,113.2l0.5-1.7l-1.6,0.9L31.8,113.2z M33.2,110.2l0.3,0.2l0.1,0.1l-1.8,6.2l-0.3-0.2c0,0,0,0,0,0
		c0,0,0,0,0,0c0,0,0,0,0,0c0,0,0,0-0.1,0c0,0,0,0,0,0c0,0,0,0,0,0c0,0,0,0,0,0c0,0,0,0,0,0c0,0,0,0,0,0c0,0,0,0,0,0c0,0,0,0,0,0
		c0,0,0,0,0,0c0,0,0,0,0,0c0,0,0,0,0,0l-0.3-0.2l0.8-2.4l-1.3-1l-2.1,1.4l-0.3-0.2c0,0,0,0,0,0c0,0,0,0,0,0l0,0c0,0,0,0,0,0
		c0,0,0,0,0,0c0,0,0,0,0,0c0,0,0,0,0,0l-0.3-0.2c0,0,0,0,0,0c0,0,0,0,0,0L33.2,110.2z"/>
	<path class="st3" d="M42.2,116.1c0.2,0,0.3-0.1,0.5-0.1c0.2,0,0.3,0,0.4-0.1c0.1,0,0.3-0.1,0.4-0.1l0.3,0.1L44,116l-1.7,5.6
		l-0.3-0.1c0,0-0.1,0-0.1,0c0,0,0,0-0.1,0c0,0-0.1,0-0.1,0c0,0-0.1,0-0.1,0l-0.3-0.1l1.5-4.8l-0.6,0.2l-0.3-0.1c0,0,0,0,0,0
		c0,0,0,0,0,0c0,0,0,0,0,0c0,0,0,0,0,0c0,0,0,0,0,0c0,0,0,0,0,0c0,0,0,0,0,0c0,0,0,0,0,0c0,0,0,0,0,0c0,0,0,0,0,0c0,0,0,0,0-0.1
		c0,0,0,0,0,0l0,0C41.9,116.1,42,116.1,42.2,116.1"/>
	<path class="st3" d="M48.1,118.4c0,0.2,0,0.3,0,0.4c0,0.1,0.1,0.2,0.1,0.3c0.1,0.1,0.1,0.2,0.2,0.2c0.1,0.1,0.2,0.1,0.3,0.1
		c0.1,0,0.2,0,0.3-0.1c0.1,0,0.2-0.1,0.2-0.2c0.1-0.1,0.1-0.2,0.2-0.3c0-0.1,0.1-0.2,0.1-0.4c0-0.1,0-0.3,0-0.4
		c0-0.1-0.1-0.3-0.1-0.4c0-0.1-0.1-0.2-0.2-0.2c-0.1-0.1-0.2-0.1-0.3-0.1c-0.1,0-0.2,0-0.3,0.1c-0.1,0-0.2,0.1-0.2,0.2
		c-0.1,0.1-0.1,0.2-0.2,0.3C48.2,118.1,48.1,118.2,48.1,118.4L48.1,118.4z M47.5,121.1c0,0.2,0,0.4,0,0.6c0,0.2,0.1,0.3,0.1,0.4
		c0.1,0.1,0.1,0.2,0.2,0.3c0.1,0.1,0.2,0.1,0.4,0.2c0.1,0,0.2,0,0.3-0.1c0.1,0,0.2-0.1,0.3-0.2c0.1-0.1,0.2-0.2,0.2-0.3
		c0.1-0.1,0.1-0.2,0.2-0.4c0,0,0,0,0,0c0,0,0,0,0,0c0,0,0,0,0,0c0,0,0,0,0-0.1c0,0,0,0,0,0c0,0,0,0,0,0c0,0,0,0,0,0c0,0,0,0,0-0.1
		c0,0,0,0,0,0c0,0,0,0,0,0c0,0,0,0,0,0c0,0,0,0,0,0c0,0,0,0,0,0c0,0,0,0,0,0c0,0,0,0,0,0c0,0,0,0,0,0c0-0.1,0-0.3,0-0.4
		c0-0.1-0.1-0.3-0.1-0.4c-0.1-0.1-0.1-0.2-0.2-0.3c-0.1-0.1-0.2-0.1-0.3-0.2c-0.1,0-0.2,0-0.3,0c-0.1,0-0.2,0.1-0.3,0.2
		c-0.1,0.1-0.2,0.2-0.2,0.3s-0.1,0.2-0.2,0.3c0,0,0,0.1,0,0.1c0,0,0,0.1,0,0.1c0,0,0,0.1,0,0.1C47.5,121,47.5,121,47.5,121.1
		L47.5,121.1z M47.5,119.3c-0.1-0.1-0.2-0.2-0.2-0.3s-0.1-0.3-0.1-0.4c0-0.1,0-0.3,0-0.4l0,0l0,0c0-0.2,0.1-0.3,0.2-0.4
		c0.1-0.1,0.2-0.3,0.3-0.4c0.1-0.1,0.3-0.2,0.5-0.2c0.2,0,0.4,0,0.7,0l0.3,0c0.3,0,0.5,0.1,0.6,0.2c0.2,0.1,0.3,0.2,0.4,0.4
		c0.1,0.2,0.2,0.3,0.2,0.5c0,0.2,0.1,0.3,0,0.5v0l0,0c0,0.1-0.1,0.3-0.1,0.4c-0.1,0.1-0.1,0.2-0.2,0.3s-0.2,0.2-0.3,0.3
		c-0.1,0.1-0.3,0.1-0.4,0.1c0.2,0.1,0.4,0.1,0.5,0.2c0.1,0.1,0.3,0.2,0.3,0.4c0.1,0.2,0.1,0.3,0.2,0.5c0,0.2,0,0.3,0,0.5
		c0,0,0,0,0,0c0,0,0,0,0,0c0,0,0,0,0,0s0,0,0,0c0,0,0,0,0,0c0,0,0,0,0,0c0,0.2-0.1,0.4-0.2,0.6c-0.1,0.2-0.2,0.3-0.4,0.5
		c-0.2,0.2-0.4,0.3-0.6,0.3c-0.2,0.1-0.5,0.1-0.7,0l-0.3,0l0,0l0,0c-0.3,0-0.6-0.1-0.8-0.2c-0.2-0.1-0.4-0.3-0.5-0.4
		c-0.1-0.2-0.2-0.4-0.3-0.6c0-0.2-0.1-0.4,0-0.6l0,0l0,0c0-0.2,0.1-0.3,0.2-0.5c0.1-0.2,0.2-0.3,0.3-0.5c0.1-0.2,0.3-0.3,0.4-0.3
		c0.2-0.1,0.3-0.1,0.5-0.1l0,0C47.7,119.4,47.6,119.4,47.5,119.3"/>
	<path class="st3" d="M56.7,117.4l0,0.3c-0.1,0.2-0.2,0.4-0.3,0.6c-0.1,0.2-0.2,0.4-0.4,0.7c-0.1,0.1-0.1,0.2-0.2,0.3
		c-0.1,0.1-0.1,0.2-0.2,0.3c-0.1,0.1-0.1,0.2-0.2,0.3c-0.1,0.1-0.1,0.2-0.2,0.3c-0.1,0.2-0.2,0.4-0.3,0.7c-0.1,0.2-0.2,0.4-0.3,0.7
		c-0.1,0.1-0.1,0.2-0.2,0.3c-0.1,0.1-0.1,0.2-0.2,0.3c-0.1,0.1-0.1,0.2-0.2,0.3c-0.1,0.1-0.1,0.2-0.2,0.3c0,0,0,0,0,0c0,0,0,0,0,0
		c0,0,0,0,0,0c0,0,0,0,0,0c0,0,0,0,0,0c0,0,0,0,0,0l-0.3,0c0,0-0.1,0-0.1,0c0,0-0.1,0-0.1,0s-0.1,0-0.1,0c0,0,0,0-0.1,0
		c0,0,0,0-0.1,0c0,0,0,0-0.1,0c0,0,0,0-0.1,0c0,0-0.1,0-0.1,0l2.8-5.1l-2.5,0.2l-0.3,0c0,0,0,0,0,0c0,0,0,0,0,0c0,0,0,0,0-0.1
		c0,0,0,0,0-0.1c0,0,0,0,0,0c0,0,0,0,0,0c0,0,0,0,0,0c0,0,0,0,0,0c0,0,0,0,0,0c0,0,0,0,0,0c0,0,0,0,0,0c0,0,0,0,0,0c0,0,0-0.1,0-0.1
		s0-0.1,0-0.1s0-0.1,0-0.1c0,0,0-0.1,0-0.1v0l0.3,0L56.7,117.4z"/>
	<path class="st3" d="M60.2,121C60.2,121,60.2,121.1,60.2,121c0,0.1,0,0.1,0,0.1c0,0,0,0,0,0.1c0,0,0,0,0,0.1c0,0,0,0.1,0,0.1
		c0,0,0,0.1,0,0.1c0,0.1,0.1,0.3,0.2,0.4c0.1,0.1,0.2,0.2,0.3,0.3c0.1,0.1,0.2,0.1,0.3,0.2c0.1,0,0.2,0.1,0.3,0.1
		c0.1,0,0.2-0.1,0.3-0.2c0.1-0.1,0.1-0.2,0.2-0.3c0.1-0.1,0.1-0.2,0.1-0.4c0-0.1,0.1-0.3,0.1-0.4c0,0,0,0,0-0.1c0,0,0,0,0-0.1
		c0,0,0,0,0-0.1c0,0,0,0,0-0.1c0,0,0-0.1,0-0.1c0,0,0-0.1,0-0.1c0-0.2-0.1-0.4-0.2-0.5c-0.1-0.2-0.2-0.3-0.3-0.4
		c-0.1-0.1-0.2-0.1-0.3-0.2c-0.1,0-0.2-0.1-0.3-0.1c-0.1,0-0.2,0.1-0.3,0.2c-0.1,0.1-0.2,0.2-0.2,0.3c-0.1,0.1-0.1,0.3-0.2,0.4
		C60.1,120.7,60.1,120.8,60.2,121L60.2,121z M58.9,119c0.1-0.4,0.2-0.8,0.4-1.1c0.2-0.3,0.4-0.5,0.6-0.7c0.2-0.2,0.5-0.3,0.8-0.3
		l0.3-0.1c0,0,0,0,0.1,0c0,0,0,0,0.1,0c0,0,0,0,0,0c0,0,0,0,0,0c0,0,0,0,0,0c0,0,0,0,0,0c0,0,0,0,0.1,0s0,0,0.1,0c0,0,0,0,0.1,0
		s0,0,0.1,0l0.1,0.3l-0.3,0.1c0,0-0.1,0-0.1,0c0,0-0.1,0-0.1,0c0,0,0,0,0,0c0,0,0,0,0,0c-0.2,0.1-0.4,0.2-0.5,0.3
		c-0.1,0.2-0.3,0.3-0.4,0.6c-0.1,0.2-0.2,0.5-0.2,0.7c0,0.3,0,0.6,0,0.9c0,0,0,0,0,0c0,0,0,0,0,0c0,0,0,0,0,0c0,0,0,0,0,0
		c0,0,0,0,0,0c0,0,0,0,0.1,0c0.1-0.1,0.2-0.1,0.3-0.2s0.2-0.1,0.4-0.1l0.3-0.1c0.2,0,0.4,0,0.6,0c0.2,0,0.4,0.1,0.6,0.2
		c0.2,0.1,0.3,0.3,0.4,0.4c0.1,0.2,0.2,0.4,0.2,0.7l0,0l0,0l0,0l0,0c0,0.2,0,0.5,0,0.7c0,0.2-0.1,0.4-0.2,0.6
		c-0.1,0.2-0.3,0.4-0.5,0.5c-0.2,0.1-0.4,0.2-0.7,0.3l-0.3,0.1c0,0,0,0,0,0c0,0,0,0,0,0c0,0,0,0,0,0c0,0,0,0,0,0c-0.2,0-0.5,0-0.7,0
		c-0.2-0.1-0.4-0.2-0.6-0.3c-0.2-0.2-0.4-0.4-0.5-0.6c-0.1-0.3-0.2-0.6-0.3-1l0,0l0-0.1l0,0l0,0l0,0C58.9,120,58.9,119.5,58.9,119"
		/>
	<path class="st3" d="M76,113c0.2-0.1,0.3-0.2,0.4-0.4c0.1-0.1,0.1-0.3,0.1-0.5c0-0.2,0-0.3,0-0.5c0-0.2-0.1-0.3-0.2-0.4
		c0,0,0,0,0,0c0,0,0,0,0,0c0,0,0,0,0,0c0,0,0,0,0,0c0,0,0,0,0,0c0,0,0,0,0,0c-0.1-0.1-0.2-0.2-0.3-0.3c-0.1-0.1-0.2-0.1-0.4-0.2
		c-0.1,0-0.3,0-0.4,0c-0.1,0-0.3,0.1-0.4,0.2l0.3-0.2l0,0l0,0l0,0l-0.3,0.2l0,0l-0.5,0.3l1.5,2L76,113z M74.9,110.2
		c0.2-0.2,0.4-0.3,0.6-0.3c0.2-0.1,0.4-0.1,0.6-0.1c0.2,0,0.3,0.1,0.5,0.2c0.2,0.1,0.3,0.2,0.4,0.4l0,0l0,0l0,0l0,0
		c0.2,0.2,0.3,0.4,0.3,0.6c0.1,0.2,0.1,0.4,0,0.6c0,0.2-0.1,0.4-0.2,0.5c-0.1,0.2-0.2,0.3-0.3,0.5c0,0.1-0.1,0.1-0.1,0.2
		c0,0-0.1,0.1-0.1,0.1c0,0-0.1,0.1-0.1,0.1c0,0-0.1,0.1-0.1,0.1l-0.3,0.2c0,0-0.1,0.1-0.1,0.1c0,0-0.1,0-0.1,0.1l1.6,2.1l-0.3,0.2
		c0,0-0.1,0-0.1,0.1c0,0,0,0-0.1,0l0,0l0,0c0,0,0,0,0,0c0,0,0,0,0,0c0,0,0,0-0.1,0.1c0,0-0.1,0-0.1,0.1l-0.3,0.2l-3.6-4.7l0.3-0.2
		L74.9,110.2z"/>
	<path class="st3" d="M77.2,108.4l0.2-0.2l2.1-2.1c0,0,0,0,0,0.1c0,0,0,0,0,0.1c0,0,0,0,0,0c0,0,0,0,0,0c0,0,0,0,0,0c0,0,0,0,0,0
		l0,0l0,0c0,0,0,0,0.1,0.1c0,0,0,0,0.1,0c0,0,0,0,0,0c0,0,0,0,0,0c0,0,0,0,0,0c0,0,0,0,0,0l-0.2,0.2c-0.1,0-0.1,0.1-0.2,0.1
		c-0.1,0-0.1,0.1-0.2,0.2c-0.1,0.1-0.1,0.1-0.2,0.2c-0.1,0.1-0.1,0.1-0.2,0.2l0,0c0,0,0,0,0,0c0,0,0,0,0,0s0,0,0,0s0,0,0,0
		c0,0,0,0,0,0s0,0-0.1,0.1c0,0,0,0,0,0.1s0,0,0,0c0,0-0.1,0.1-0.1,0.1c0,0-0.1,0.1-0.1,0.1l1.5,1.5l0.6-0.6l0.5-0.6l0.2-0.2
		c0,0,0,0,0,0.1c0,0,0,0,0,0.1c0,0,0,0,0,0.1c0,0,0,0,0,0c0,0,0,0,0,0c0,0,0,0,0,0c0,0,0,0,0,0c0,0,0,0,0,0c0,0,0,0,0.1,0
		c0,0,0,0,0.1,0l-0.2,0.2l-0.7,0.6l-0.5,0.5l1.7,1.7c0,0,0.1,0,0.1-0.1c0,0,0.1-0.1,0.1-0.1c0,0,0.1-0.1,0.1-0.1
		c0,0,0.1-0.1,0.1-0.1c0,0,0,0,0.1,0c0,0,0,0,0-0.1c0,0,0,0,0,0c0,0,0,0,0,0c0.1-0.1,0.1-0.2,0.2-0.2c0.1-0.1,0.1-0.2,0.2-0.2
		c0.1-0.1,0.1-0.1,0.2-0.2c0.1-0.1,0.1-0.1,0.1-0.2l0.2-0.2c0,0,0,0,0,0.1c0,0,0,0,0,0.1c0,0,0,0,0,0.1c0,0,0,0,0,0c0,0,0,0,0,0
		c0,0,0,0,0.1,0c0,0,0,0,0.1,0c0,0,0,0,0,0l-0.2,0.2l-2.1,2.1L77.2,108.4z"/>
	<path class="st3" d="M83.3,105.8C83.4,105.8,83.4,105.7,83.3,105.8c0.2-0.2,0.3-0.4,0.3-0.5c0.1-0.1,0.1-0.3,0.1-0.4
		c0-0.1,0-0.3,0-0.4c0-0.1,0-0.2-0.1-0.3c0-0.1-0.1-0.1-0.1-0.2c0-0.1-0.1-0.1-0.1-0.1c0,0-0.1-0.1-0.1-0.1c0,0-0.1-0.1-0.1-0.1
		c0,0,0,0-0.1-0.1s-0.1,0-0.1-0.1c0,0-0.1,0-0.1-0.1c0,0-0.1,0-0.2,0c-0.1,0-0.2,0-0.3,0c-0.1,0-0.2,0-0.3,0.1
		c-0.1,0-0.2,0.1-0.3,0.2c-0.1,0.1-0.2,0.2-0.3,0.3l-0.2,0.3L83.3,105.8C83.3,105.8,83.3,105.8,83.3,105.8 M80.5,104.9l0.2-0.3
		l1.2-1.5c0.2-0.2,0.4-0.4,0.5-0.5c0.2-0.1,0.4-0.2,0.5-0.2c0.2,0,0.4,0,0.5,0.1c0.2,0.1,0.3,0.1,0.5,0.3c0.2,0.1,0.3,0.2,0.4,0.4
		c0.1,0.1,0.1,0.3,0.2,0.4c0,0.2,0,0.3,0,0.4c0,0.1,0,0.3-0.1,0.4c0,0.1,0,0.1-0.1,0.2c0,0.1,0,0.1-0.1,0.2c0,0.1,0,0.1-0.1,0.2
		c0,0-0.1,0.1-0.1,0.1l3.6,0.1l-0.2,0.3c0,0,0,0,0,0c0,0,0,0,0,0c0,0,0,0,0,0c0,0,0,0,0,0c0,0,0,0,0,0c0,0,0,0,0,0c0,0,0,0,0,0
		c0,0,0,0,0,0c0,0,0,0,0,0c0,0,0,0,0,0c0,0,0,0.1-0.1,0.1c0,0,0,0.1-0.1,0.1l-0.2,0.3l-3.4-0.1l2.2,1.7l-0.2,0.3c0,0,0,0,0,0
		c0,0,0,0,0,0c0,0,0,0,0,0c0,0,0,0,0,0c0,0,0,0,0,0c0,0,0,0,0,0c0,0,0,0,0,0c0,0,0,0,0,0c0,0,0,0,0,0c0,0,0,0.1,0,0.1
		c0,0,0,0.1-0.1,0.1l-0.2,0.3L80.5,104.9z"/>
	<path class="st3" d="M83.9,100.5l0.2-0.3c0,0,0.1,0,0.1-0.1c0,0,0,0,0.1-0.1c0,0,0,0,0,0c0,0,0,0,0,0c0,0,0,0,0-0.1c0,0,0,0,0-0.1
		l0.2-0.3l3,1.8c0.3,0.2,0.6,0.3,0.9,0.4c0.3,0.1,0.5,0.1,0.8,0c0.2,0,0.4-0.1,0.5-0.2c0.2-0.1,0.3-0.3,0.4-0.4
		c0.1-0.2,0.2-0.5,0.2-0.7c0-0.2,0-0.4-0.1-0.6c-0.1-0.2-0.2-0.4-0.4-0.6s-0.4-0.4-0.7-0.6l-3.1-1.9l0.2-0.3c0,0,0,0,0,0
		c0,0,0,0,0,0c0,0,0,0,0,0c0,0,0,0,0,0c0,0,0,0,0,0c0,0,0,0,0,0c0,0,0,0,0,0c0,0,0,0,0,0l0.2-0.3l2.9,1.8c0.3,0.2,0.6,0.4,0.8,0.7
		c0.2,0.2,0.4,0.5,0.5,0.8c0.1,0.3,0.2,0.6,0.1,0.9c-0.1,0.3-0.2,0.7-0.4,1l-0.2,0.3c0,0,0,0,0,0c0,0,0,0,0,0c0,0,0,0,0,0
		c0,0,0,0,0,0c-0.2,0.4-0.5,0.7-0.7,0.9c-0.3,0.2-0.5,0.3-0.8,0.3c-0.3,0-0.6,0-0.9-0.1c-0.3-0.1-0.6-0.2-0.8-0.4l0,0L83.9,100.5z"
		/>
	<path class="st3" d="M20.4,53.6c-0.1-0.1-0.2-0.2-0.3-0.3c-0.1-0.1-0.1-0.2-0.1-0.3c0-0.1,0-0.2,0-0.3c0,0,0,0,0,0c0,0,0,0,0,0
		c0,0,0,0,0,0c0,0,0,0,0,0c0,0,0,0,0,0c0,0,0,0,0,0l0-0.2c0-0.1,0-0.2,0.1-0.2c0-0.1,0.1-0.1,0.1-0.2c0-0.1,0.1-0.1,0.1-0.2
		c0,0,0.1-0.1,0.2-0.1c0,0,0,0,0.1,0.1c0,0,0,0,0.1,0.1c0,0,0.1,0,0.1,0c0,0,0.1,0,0.1,0.1l0,0l0,0l0,0.2l0,0.1c0,0,0,0,0,0
		c0,0,0,0,0,0c0,0,0,0-0.1,0c0,0,0,0-0.1,0c0,0-0.1,0-0.1,0.1c0,0-0.1,0.1-0.1,0.1c0,0-0.1,0.1-0.1,0.1c0,0,0,0.1-0.1,0.1
		c0,0.1,0,0.1,0,0.2c0,0.1,0.1,0.1,0.1,0.2c0.1,0.1,0.1,0.1,0.2,0.2c0.1,0,0.2,0.1,0.3,0.1c0,0,0,0,0,0c0,0,0,0,0,0c0,0,0,0,0,0
		c0,0,0,0,0,0c0,0,0,0,0,0c0,0,0,0,0,0c0.1,0,0.1,0,0.2,0c0.1,0,0.1,0,0.2-0.1c0.1,0,0.1-0.1,0.2-0.1c0.1,0,0.1-0.1,0.2-0.2l0.4-0.5
		c0.1-0.1,0.2-0.2,0.2-0.2c0.1-0.1,0.2-0.1,0.3-0.1c0.1,0,0.2,0,0.3,0c0.1,0,0.2,0,0.3,0c0,0,0,0,0,0c0,0,0,0,0,0c0,0,0,0,0,0
		c0,0,0,0,0,0c0,0,0,0,0,0c0,0,0,0,0,0c0.2,0,0.3,0.1,0.4,0.2c0.1,0.1,0.2,0.2,0.4,0.3c0.1,0.1,0.2,0.3,0.2,0.4c0,0.1,0,0.3,0,0.5
		l0,0.2l0,0l0,0c0,0,0,0,0,0c0,0,0,0,0,0c0,0,0,0,0,0c0,0,0,0,0,0c0,0,0,0,0,0c0,0,0,0,0,0c0,0,0,0,0,0c0,0,0,0,0,0
		c0,0.1-0.1,0.1-0.1,0.2c0,0.1-0.1,0.1-0.1,0.2c0,0.1-0.1,0.1-0.1,0.1c0,0-0.1,0.1-0.1,0.1l0,0l0,0c0,0-0.1,0-0.1-0.1
		c0,0-0.1,0-0.1,0c0,0,0,0,0,0c0,0,0,0,0,0c0,0,0,0,0,0c0,0,0,0,0,0c0,0,0,0,0,0c0,0,0,0,0,0c0,0,0,0,0,0c0,0,0,0,0,0c0,0,0,0,0,0
		c0,0,0,0,0,0l0-0.1l0-0.2c0.2-0.1,0.3-0.1,0.4-0.2c0.1-0.1,0.2-0.1,0.2-0.2c0,0,0-0.1,0.1-0.1c0,0,0-0.1,0-0.1c0-0.1,0-0.2,0-0.2
		c0-0.1-0.1-0.1-0.1-0.2c-0.1-0.1-0.2-0.1-0.2-0.2c-0.1,0-0.2-0.1-0.3-0.1c-0.1,0-0.2,0-0.2,0c-0.1,0-0.2,0-0.2,0
		c-0.1,0-0.1,0.1-0.2,0.1c-0.1,0-0.1,0.1-0.2,0.2l-0.4,0.4c-0.1,0.1-0.2,0.2-0.3,0.3c-0.1,0.1-0.2,0.1-0.3,0.1c-0.1,0-0.2,0-0.3,0
		c-0.1,0-0.2,0-0.3,0l0,0C20.7,53.7,20.6,53.7,20.4,53.6"/>
	<path class="st3" d="M21.8,50.1c-0.2-0.2-0.4-0.4-0.5-0.6c-0.1-0.2-0.2-0.5-0.2-0.7c0-0.2,0-0.5,0.1-0.8l0.1-0.2c0,0,0,0,0,0
		c0,0,0,0,0,0c0,0,0,0,0,0c0,0,0,0,0,0c0,0,0-0.1,0-0.1c0,0,0-0.1,0-0.1c0-0.1,0.1-0.1,0.1-0.2c0-0.1,0.1-0.1,0.1-0.2
		c0-0.1,0.1-0.1,0.1-0.2c0,0,0.1-0.1,0.2-0.1l0.4,0.3l-0.1,0.2l0,0c-0.1,0-0.2,0.1-0.2,0.1c-0.1,0-0.1,0.1-0.2,0.1
		c-0.1,0-0.1,0.1-0.2,0.2c0,0.1-0.1,0.1-0.1,0.2c0,0,0,0,0,0.1c0,0,0,0,0,0c0,0,0,0,0,0c0,0,0,0,0,0c0,0,0,0,0,0c0,0.1,0,0.3,0,0.5
		c0,0.2,0.1,0.3,0.2,0.5c0.1,0.2,0.2,0.3,0.4,0.5c0.2,0.1,0.4,0.3,0.7,0.4l0,0l0,0c0.3,0.1,0.6,0.2,0.9,0.2c0.3,0,0.5,0,0.7-0.1
		c0.2-0.1,0.3-0.2,0.4-0.3c0.1-0.1,0.2-0.2,0.3-0.4c0-0.1,0-0.2,0.1-0.3c0-0.1,0-0.2,0-0.3c0-0.1,0-0.2,0-0.3c0-0.1-0.1-0.2-0.1-0.3
		l0.1-0.2l0.3,0.2c0,0,0,0.1,0,0.1c0,0,0,0.1,0,0.1c0,0,0,0.1,0,0.1c0,0,0,0.1,0,0.1c0,0,0,0.1,0,0.1c0,0,0,0.1,0,0.1c0,0,0,0,0,0
		c0,0,0,0,0,0c0,0.1,0,0.1,0,0.1c0,0,0,0.1,0,0.1c0,0,0,0.1,0,0.1c0,0,0,0.1,0,0.1l-0.1,0.2c-0.1,0.2-0.2,0.4-0.4,0.6
		c-0.2,0.2-0.4,0.3-0.6,0.4c-0.2,0.1-0.5,0.1-0.8,0.1c-0.3,0-0.6-0.1-0.9-0.2l0,0C22.2,50.4,22,50.2,21.8,50.1"/>
	<path class="st3" d="M22.6,44.7C22.6,44.7,22.6,44.7,22.6,44.7C22.7,44.7,22.7,44.6,22.6,44.7C22.7,44.6,22.7,44.6,22.6,44.7
		C22.7,44.6,22.7,44.6,22.6,44.7C22.7,44.6,22.7,44.6,22.6,44.7c0.1-0.1,0.1-0.1,0.1-0.1c0,0,0,0,0,0l0.1-0.2l3.8,1.7l-0.1,0.2
		c0,0,0,0,0,0c0,0,0,0,0,0c0,0,0,0,0,0c0,0,0,0,0,0c0,0,0,0,0,0c0,0,0,0,0,0c0,0,0,0,0,0.1c0,0,0,0,0,0l-0.1,0.2l-3.8-1.7L22.6,44.7
		C22.6,44.7,22.6,44.7,22.6,44.7"/>
	<path class="st3" d="M23.7,42.5l0.1-0.2l0.8-1.6c0,0,0,0,0,0c0,0,0,0,0,0c0,0,0,0,0,0c0,0,0,0,0,0c0,0,0,0,0,0c0,0,0,0,0,0l0,0l0,0
		c0,0,0,0,0,0c0,0,0,0,0,0c0,0,0,0,0,0c0,0,0,0,0,0c0,0,0,0,0,0c0,0,0,0,0,0l-0.1,0.2c0,0-0.1,0.1-0.1,0.1c0,0-0.1,0.1-0.1,0.1
		c0,0-0.1,0.1-0.1,0.1c0,0-0.1,0.1-0.1,0.1l0,0c0,0,0,0,0,0c0,0,0,0,0,0c0,0,0,0,0,0c0,0,0,0,0,0c0,0,0,0,0,0c0,0,0,0,0,0
		c0,0,0,0,0,0c0,0,0,0,0,0c0,0,0,0.1,0,0.1c0,0,0,0,0,0.1l1.3,0.7l0.3-0.5l0.2-0.4l0.1-0.2c0,0,0,0,0,0c0,0,0,0,0,0c0,0,0,0,0,0
		c0,0,0,0,0,0c0,0,0,0,0,0c0,0,0,0,0,0c0,0,0,0,0,0c0,0,0,0,0,0c0,0,0,0,0.1,0c0,0,0,0,0.1,0L26.4,42L26,42.5l-0.2,0.4l1.5,0.8
		c0,0,0,0,0-0.1c0,0,0,0,0-0.1c0,0,0,0,0-0.1c0,0,0,0,0-0.1c0,0,0,0,0,0c0,0,0,0,0,0c0,0,0,0,0,0c0,0,0,0,0,0c0-0.1,0.1-0.1,0.1-0.2
		c0-0.1,0-0.1,0.1-0.2c0-0.1,0-0.1,0.1-0.2c0,0,0-0.1,0-0.1l0.1-0.2c0,0,0,0,0,0c0,0,0,0,0,0c0,0,0,0,0,0c0,0,0,0,0,0c0,0,0,0,0,0
		c0,0,0,0,0,0c0,0,0,0,0,0c0,0,0,0,0,0l-0.1,0.2l-0.8,1.6L23.7,42.5z"/>
	<path class="st3" d="M25.6,38.5l0.1-0.2l0.1-0.2l3.6-0.3L27,36.3l0.1-0.2c0,0,0,0,0,0c0,0,0,0,0,0c0,0,0,0,0,0c0,0,0,0,0,0l0.1-0.2
		l3.5,2.2l-0.1,0.2l-0.1,0.2l-3.7,0.3l2.5,1.6l-0.1,0.2c0,0,0,0,0,0c0,0,0,0,0,0c0,0,0,0,0,0s0,0,0,0c0,0,0,0,0,0c0,0,0,0,0,0
		c0,0,0,0,0,0c0,0,0,0,0,0l-0.1,0.2L25.6,38.5z"/>
	<path class="st3" d="M29.3,33.5C29.3,33.5,29.3,33.5,29.3,33.5C29.3,33.5,29.3,33.5,29.3,33.5C29.3,33.5,29.3,33.5,29.3,33.5
		C29.3,33.5,29.3,33.5,29.3,33.5c0,0.1-0.1,0.1-0.1,0.2c0,0-0.1,0.1-0.1,0.1c0,0,0,0,0,0c0,0,0,0,0,0c0,0,0,0,0,0c0,0,0,0,0,0
		c0,0,0,0.1,0,0.1c0,0,0,0.1,0,0.1c0,0,0,0,0,0.1c0,0,0,0,0,0.1l-0.1,0.2c0,0,0,0,0,0c0,0,0,0,0,0c0,0,0,0,0,0c0,0,0,0,0,0
		c0,0,0,0,0,0c0,0,0,0,0,0c0,0,0,0,0,0c0,0,0,0,0,0c0,0,0,0,0,0c0,0,0,0,0,0c0,0,0,0,0,0c0,0,0,0,0,0c0,0,0,0,0,0c0,0,0,0,0,0
		l1.6-2.1l0.1-0.2c0,0,0,0,0,0c0,0,0,0,0,0c0,0,0,0,0,0c0,0,0,0,0,0c0,0,0,0,0,0c0,0,0,0,0,0c0,0,0,0,0,0c0,0,0,0,0,0c0,0,0,0,0,0
		c0,0,0,0,0,0c0,0,0,0,0,0c0,0,0,0,0.1,0l-0.1,0.2c-0.1,0.1-0.2,0.2-0.3,0.2c-0.1,0.1-0.2,0.2-0.2,0.2c0,0-0.1,0.1-0.1,0.1
		c0,0-0.1,0.1-0.1,0.1l3.1,2.4l-0.1,0.2c0,0,0,0,0,0c0,0,0,0,0,0c0,0,0,0,0,0c0,0,0,0,0,0l0,0l0,0c0,0,0,0,0,0c0,0,0,0,0,0.1
		c0,0,0,0,0,0l-0.1,0.2L29.3,33.5z"/>
	<path class="st3" d="M31.5,30.4C31.5,30.4,31.5,30.4,31.5,30.4C31.6,30.4,31.6,30.4,31.5,30.4C31.6,30.4,31.6,30.4,31.5,30.4
		C31.6,30.4,31.6,30.4,31.5,30.4C31.6,30.4,31.6,30.4,31.5,30.4c0.1-0.1,0.1-0.1,0.1-0.1c0,0,0,0,0,0l0.1-0.2l3.1,2.8l-0.1,0.1
		c0,0,0,0,0,0c0,0,0,0,0,0c0,0,0,0,0,0c0,0,0,0,0,0c0,0,0,0,0,0c0,0,0,0,0,0c0,0,0,0,0,0c0,0,0,0,0,0l-0.1,0.1l-3.1-2.8L31.5,30.4
		C31.5,30.4,31.5,30.4,31.5,30.4"/>
	<path class="st3" d="M35.9,29.2l-1.1-0.5l0.6,1.1L35.9,29.2z M33.9,28l0.1-0.1l0.1-0.1l4.2,1.7l-0.1,0.1c0,0,0,0,0,0c0,0,0,0,0,0
		c0,0,0,0,0,0c0,0,0,0,0,0c0,0,0,0,0,0c0,0,0,0,0,0c0,0,0,0,0,0c0,0,0,0,0,0c0,0,0,0,0,0c0,0,0,0,0,0c0,0,0,0,0,0c0,0,0,0,0,0
		c0,0,0,0,0,0c0,0,0,0,0,0L37.8,30l-1.6-0.7L35.5,30l0.9,1.5l-0.1,0.1c0,0,0,0,0,0c0,0,0,0,0,0l0,0c0,0,0,0,0,0c0,0,0,0,0,0
		c0,0,0,0,0,0c0,0,0,0,0,0L36,31.9c0,0,0,0,0,0c0,0,0,0,0,0L33.9,28z"/>
	<path class="st3" d="M70.9,25.8l0.2,0.1l1.4,1.1c0,0,0,0,0,0c0,0,0,0,0,0c0,0,0,0,0,0c0,0,0,0,0,0c0,0,0,0,0,0c0,0,0,0,0,0l0,0l0,0
		c0,0,0,0,0,0c0,0,0,0,0,0c0,0,0,0,0,0c0,0,0,0,0,0c0,0,0,0,0,0c0,0,0,0,0,0l-0.2-0.1c0,0-0.1-0.1-0.1-0.1c0,0-0.1-0.1-0.1-0.1
		c0,0-0.1-0.1-0.1-0.1c0,0-0.1-0.1-0.1-0.1l0,0c0,0,0,0,0,0c0,0,0,0,0,0c0,0,0,0,0,0c0,0,0,0,0,0c0,0,0,0,0,0c0,0,0,0,0,0
		c0,0,0,0,0,0c0,0,0,0,0,0c0,0,0,0-0.1-0.1c0,0,0,0-0.1-0.1l-0.9,1.1l0.4,0.3l0.4,0.3l0.2,0.1c0,0,0,0,0,0c0,0,0,0,0,0c0,0,0,0,0,0
		c0,0,0,0,0,0c0,0,0,0,0,0c0,0,0,0,0,0c0,0,0,0,0,0c0,0,0,0,0,0c0,0,0,0,0,0s0,0,0,0.1l-0.2-0.1l-0.4-0.4l-0.3-0.3L69,29.1
		c0,0,0,0,0,0.1c0,0,0,0,0.1,0.1c0,0,0,0,0.1,0.1c0,0,0,0,0.1,0.1c0,0,0,0,0,0c0,0,0,0,0,0c0,0,0,0,0,0c0,0,0,0,0,0
		c0.1,0,0.1,0.1,0.2,0.1c0.1,0,0.1,0.1,0.2,0.1c0.1,0,0.1,0.1,0.1,0.1c0,0,0.1,0.1,0.1,0.1l0.2,0.1c0,0,0,0,0,0c0,0,0,0,0,0
		c0,0,0,0,0,0c0,0,0,0,0,0c0,0,0,0,0,0c0,0,0,0,0,0c0,0,0,0,0,0c0,0,0,0,0,0l-0.2-0.1L68.3,29L70.9,25.8z"/>
	<path class="st3" d="M74.7,29.1C74.7,29.1,74.7,29.1,74.7,29.1C74.7,29.1,74.7,29.1,74.7,29.1C74.7,29.1,74.7,29.1,74.7,29.1
		C74.7,29,74.7,29,74.7,29.1c-0.1-0.1-0.1-0.1-0.2-0.1c0,0-0.1-0.1-0.1-0.1c0,0,0,0,0,0c0,0,0,0,0,0c0,0,0,0,0,0c0,0,0,0,0,0
		c0,0-0.1,0-0.1-0.1c0,0-0.1,0-0.1,0c0,0,0,0-0.1,0c0,0,0,0-0.1,0l-0.1-0.1c0,0,0,0,0,0c0,0,0,0,0,0c0,0,0,0,0,0c0,0,0,0,0,0
		c0,0,0,0,0,0c0,0,0,0,0,0c0,0,0,0,0,0c0,0,0,0,0,0c0,0,0,0,0,0c0,0,0,0,0,0c0,0,0,0,0,0c0,0,0,0,0,0c0,0,0,0,0,0c0,0,0,0,0,0
		l1.9,1.9l0.1,0.1c0,0,0,0,0,0c0,0,0,0,0,0c0,0,0,0,0,0c0,0,0,0,0,0c0,0,0,0,0,0c0,0,0,0,0,0s0,0,0,0c0,0,0,0,0,0c0,0,0,0,0,0
		c0,0,0,0,0,0c0,0,0,0,0,0c0,0,0,0,0,0l-0.1-0.1c-0.1-0.1-0.1-0.2-0.2-0.3c-0.1-0.1-0.1-0.2-0.2-0.3c0,0-0.1-0.1-0.1-0.1
		c0,0-0.1-0.1-0.1-0.1l-2.8,2.7l-0.1-0.1c0,0,0,0,0,0c0,0,0,0,0,0c0,0,0,0,0,0c0,0,0,0,0,0l0,0l0,0c0,0,0,0,0,0c0,0,0,0,0,0
		c0,0,0,0,0,0L72,31.8L74.7,29.1z"/>
	<path class="st3" d="M78.8,33.3l0.1,0.2c0,0,0,0,0,0.1c0,0,0,0,0,0.1c0,0,0,0,0,0c0,0,0,0,0,0c0,0,0,0,0,0c0,0,0,0,0,0c0,0,0,0,0,0
		c0,0,0,0,0,0c0,0,0,0,0,0l0.1,0.2L76,36c0,0,0,0,0,0.1c0,0,0,0,0,0.1c0,0,0,0,0,0.1c0,0,0,0,0,0.1c0,0,0,0,0,0c0,0,0,0,0,0
		c0,0,0,0,0,0c0,0,0,0,0,0c0,0.1,0.1,0.1,0.1,0.2c0,0,0.1,0.1,0.1,0.2c0,0,0.1,0.1,0.1,0.1c0,0,0.1,0.1,0.1,0.1l0.1,0.2c0,0,0,0,0,0
		c0,0,0,0,0,0c0,0,0,0,0,0c0,0,0,0,0,0c0,0,0,0,0,0c0,0,0,0,0,0c0,0,0,0,0,0c0,0,0,0,0,0c0,0,0,0,0,0c0,0,0,0,0,0c0,0,0,0,0,0
		c0,0,0,0,0,0l0,0l-0.1-0.2l-1-1.5L78.8,33.3z"/>
	<path class="st3" d="M80,39l0.8-1l-1.2,0.3L80,39z M81.7,37.4l0.1,0.2l0.1,0.1l-2.7,3.6L79,41.1c0,0,0,0,0,0c0,0,0,0,0,0
		c0,0,0,0,0,0c0,0,0,0,0,0c0,0,0,0,0,0c0,0,0,0,0,0c0,0,0,0,0,0c0,0,0,0,0,0c0,0,0,0,0,0c0,0,0,0,0,0c0,0,0,0,0,0c0,0,0,0,0,0
		c0,0,0,0,0,0c0,0,0,0,0,0l-0.1-0.2l1.1-1.4l-0.5-0.9l-1.7,0.5l-0.1-0.2c0,0,0,0,0,0c0,0,0,0,0,0l0,0c0,0,0,0,0,0c0,0,0,0,0,0
		c0,0,0,0,0,0c0,0,0,0,0,0l-0.1-0.2c0,0,0,0,0,0c0,0,0,0,0,0L81.7,37.4z"/>
	<path class="st3" d="M82.1,42.2c0.1,0.1,0.1,0.2,0.2,0.3c0.1,0.1,0.2,0.2,0.3,0.2c0.1,0,0.2,0.1,0.3,0.1c0.1,0,0.2,0,0.4-0.1l0,0
		l0,0l0,0l0,0c0.1,0,0.2-0.1,0.3-0.2c0.1-0.1,0.1-0.2,0.1-0.3c0-0.1,0-0.2,0-0.3c0-0.1,0-0.2-0.1-0.3l-0.1-0.3L82,42.1L82.1,42.2z
		 M80.2,43.2c0,0.1,0.1,0.2,0.2,0.3c0.1,0.1,0.1,0.1,0.2,0.2c0.1,0,0.2,0.1,0.3,0.1c0.1,0,0.2,0,0.3,0c0,0,0,0,0,0c0,0,0,0,0,0
		c0,0,0,0,0,0c0,0,0,0,0,0c0,0,0,0,0,0c0,0,0,0,0,0c0.2-0.1,0.3-0.2,0.4-0.3c0.1-0.1,0.2-0.2,0.2-0.3c0-0.1,0-0.2,0-0.4
		c0-0.1-0.1-0.3-0.1-0.5l-1.7,0.7L80.2,43.2z M83.4,40.8l0.1,0.2L84,42c0,0,0,0,0,0c0,0,0,0,0,0c0,0,0,0,0,0c0,0,0,0,0,0
		c0,0.1,0.1,0.2,0.1,0.3c0,0.1,0,0.2,0,0.3c0,0.1-0.1,0.2-0.1,0.3c-0.1,0.1-0.2,0.2-0.3,0.2l0,0l0,0l0,0l0,0c-0.1,0-0.2,0.1-0.3,0.1
		c-0.1,0-0.2,0-0.3,0c-0.1,0-0.2-0.1-0.3-0.1c-0.1-0.1-0.2-0.1-0.2-0.2c0,0.1,0,0.2,0,0.3c0,0.1,0,0.2,0,0.3c0,0.1-0.1,0.2-0.2,0.3
		c-0.1,0.1-0.2,0.2-0.4,0.2c-0.2,0.1-0.4,0.1-0.5,0.1c-0.2,0-0.3,0-0.4-0.1c-0.1-0.1-0.2-0.1-0.3-0.2c-0.1-0.1-0.2-0.2-0.2-0.3
		l-0.1-0.2c0,0,0,0,0,0c0,0,0,0,0,0c0,0,0,0,0,0c0,0,0,0,0,0c0,0,0,0,0,0c0,0,0,0,0,0l-0.4-0.9L83.4,40.8z"/>
	<path class="st3" d="M83.6,46c-0.3,0.1-0.6,0.2-0.8,0.3c-0.2,0.1-0.4,0.3-0.5,0.5c-0.1,0.2-0.2,0.3-0.2,0.5c0,0.2,0,0.3,0,0.5
		c0.1,0.2,0.2,0.3,0.3,0.4c0.1,0.1,0.3,0.2,0.5,0.3c0.2,0.1,0.4,0.1,0.7,0.1c0.3,0,0.5,0,0.8-0.1c0,0,0,0,0,0c0,0,0,0,0,0
		c0,0,0,0,0,0c0,0,0,0,0,0c0.2-0.1,0.5-0.2,0.7-0.3c0.2-0.1,0.3-0.3,0.5-0.5c0.1-0.2,0.2-0.3,0.2-0.5c0-0.2,0-0.4,0-0.5
		c-0.1-0.2-0.1-0.3-0.3-0.4c-0.1-0.1-0.2-0.2-0.4-0.2c-0.2,0-0.3-0.1-0.5-0.1c-0.2,0-0.3,0-0.5,0c-0.1,0-0.1,0-0.2,0
		c0,0-0.1,0-0.1,0c0,0-0.1,0-0.1,0C83.7,46,83.6,46,83.6,46L83.6,46z M83.4,45.3C83.4,45.3,83.5,45.3,83.4,45.3c0.1,0,0.1,0,0.1,0
		c0,0,0,0,0.1,0c0.2-0.1,0.5-0.1,0.7-0.1c0.2,0,0.5,0.1,0.7,0.2c0.2,0.1,0.4,0.2,0.6,0.4c0.2,0.2,0.3,0.4,0.4,0.7l0.1,0.2
		c0.1,0.3,0.1,0.6,0.1,0.8c0,0.2-0.1,0.4-0.2,0.6c-0.1,0.2-0.2,0.3-0.4,0.5c-0.1,0.1-0.3,0.2-0.5,0.3c0,0,0,0-0.1,0c0,0,0,0-0.1,0
		c0,0,0,0-0.1,0c0,0,0,0-0.1,0c0,0-0.1,0-0.1,0.1c0,0-0.1,0-0.1,0l0,0l0,0l0,0l0,0c-0.3,0.1-0.6,0.2-0.9,0.1c-0.3,0-0.5-0.1-0.8-0.2
		c-0.2-0.1-0.4-0.3-0.6-0.5C82.1,48.4,82,48.2,82,48l-0.1-0.2c0,0,0,0,0,0c0,0,0,0,0,0c0,0,0,0,0,0c0,0,0,0,0,0c0,0,0-0.1,0-0.1
		s0-0.1,0-0.1c0,0,0-0.1,0-0.1c0,0,0-0.1,0-0.1c0-0.2,0-0.3,0.1-0.5c0.1-0.2,0.1-0.4,0.3-0.5c0.1-0.2,0.3-0.3,0.5-0.5
		C82.8,45.5,83.1,45.4,83.4,45.3L83.4,45.3C83.4,45.3,83.4,45.3,83.4,45.3"/>
	<path class="st3" d="M85.4,51.6C85.4,51.6,85.4,51.6,85.4,51.6c0,0.2,0.1,0.3,0.1,0.4c0,0.1,0.1,0.2,0.2,0.2
		c0.1,0.1,0.1,0.1,0.2,0.2c0.1,0,0.1,0.1,0.2,0.1c0,0,0.1,0,0.1,0c0,0,0.1,0,0.1,0c0,0,0.1,0,0.1,0c0,0,0.1,0,0.1,0c0,0,0,0,0.1,0
		c0,0,0,0,0.1,0c0,0,0.1,0,0.1,0c0,0,0.1,0,0.1-0.1c0,0,0.1-0.1,0.1-0.1c0-0.1,0.1-0.1,0.1-0.2c0-0.1,0-0.1,0.1-0.2
		c0-0.1,0-0.2,0-0.3l0-0.2L85.4,51.6C85.4,51.6,85.4,51.6,85.4,51.6 M87.2,50.5l0,0.2l0.3,1.2c0,0.2,0,0.3,0,0.4
		c0,0.1-0.1,0.2-0.1,0.3c-0.1,0.1-0.2,0.2-0.3,0.2c-0.1,0.1-0.2,0.1-0.4,0.1c-0.1,0-0.3,0-0.4,0c-0.1,0-0.2,0-0.3-0.1
		c-0.1,0-0.2-0.1-0.2-0.2c-0.1-0.1-0.1-0.1-0.2-0.2c0,0,0-0.1-0.1-0.1c0,0,0-0.1-0.1-0.1c0,0,0-0.1,0-0.1c0,0,0-0.1,0-0.1l-1.7,1.7
		l0-0.2c0,0,0,0,0,0c0,0,0,0,0,0c0,0,0,0,0,0c0,0,0,0,0,0c0,0,0,0,0,0c0,0,0,0,0,0c0,0,0,0,0,0c0,0,0,0,0,0c0,0,0,0,0,0c0,0,0,0,0,0
		c0,0,0,0,0-0.1c0,0,0,0,0-0.1l0-0.2l1.6-1.6l-1.9,0.4l0-0.2c0,0,0,0,0,0c0,0,0,0,0,0c0,0,0,0,0,0c0,0,0,0,0,0c0,0,0,0,0,0
		c0,0,0,0,0,0c0,0,0,0,0,0c0,0,0,0,0,0c0,0,0,0,0,0c0,0,0,0,0-0.1c0,0,0,0,0-0.1l0-0.2L87.2,50.5z"/>
	<path class="st3" d="M83.6,99.7C83.2,100.1,84,99.4,83.6,99.7"/>
	<path class="st3" d="M81.5,64.3c0-0.3,0.9-0.6,1.2-0.8c0.3,0.4,0.6,0.5,0.6,1c0,0.2-1,0.8-1,0.8C82.1,65.3,81.5,64.4,81.5,64.3
		 M64.9,77.8l-0.6-1l15.6-11.3l0.6,1L64.9,77.8z M71.7,91.1c-0.8,3.7-4.8,7.8-4.8,7.8l-6.1-7.5l-1.1,0.9l0-2.1L71.1,90l-5-6
		l-6.8,0.1l-0.6-15.4l-9.9,0.1l0.2,15.5l-6.9,0.1l-4.8,6.3l12-0.2l-0.1,2L48,91.7l-5.8,7.7c0,0,0.1,0.5-2.8-3
		c-2.9-3.5-4-9.2-3.7-13.1c0.3-3.9,2.8-8.1,2.8-8.1l4.9,3.5l1.1-1.7l-5-3.5c0,0,3.5-4.3,7.8-5.7c1.7-0.5,6.4-2.2,12.3-0.2
		c5.9,2,8.3,5.7,8.3,5.7l-4.4,3.2l1.2,1.7l4.5-3.3c0,0,2.3,3.1,2.8,6.7C72.9,87,72.5,87.4,71.7,91.1 M65.3,100.2l-3.8-4.7l0.9-0.7
		l3.9,4.6L65.3,100.2z M61.7,102.4c-1.6,0.6-3.2,1.1-3.2,1.1l-0.3-9.8l1.1,0l5.5,7C64.7,100.7,63.2,101.7,61.7,102.4 M56.4,103.9
		l-0.1-6.2l1.2,0l0.2,6L56.4,103.9z M54.6,90.5h4v2.2h-4V90.5z M53.7,104v-1h2l0,0.8L53.7,104z M51.8,103.8l-0.1-5.9l1.2-0.1L53,104
		L51.8,103.8z M55.2,97.7h-1.3v-3.9h1.3V97.7z M53.3,83.3l-2.5,0v-2.6h2.5L53.3,83.3z M54,73.3c0,0,1.7,0.2,1.6,1.5
		c-0.1,1.4-1.6,1.5-1.6,1.5L54,73.3z M54.1,76.5l0,2.7l-3.4,0l-0.2-8.5l3.5,0l0.1,2.4c0,0-1.7,0.3-1.6,1.6
		C52.5,76.1,54.1,76.5,54.1,76.5 M39.5,89.7l3.2-4.1l11.7-0.3l-0.2-6l3.5-0.2l-0.2-8.5h-3.4l0-0.9l3.9,0l0.6,15.6l-4.1,0.1l0,4.2
		L39.5,89.7z M47.2,102.6c-1.6-0.6-2.7-1.4-2.7-1.4l5.3-7.3l1.1,0l0.1,9.8C51,103.7,48.8,103.3,47.2,102.6 M43.8,100.8l-1-0.7
		l3.7-5.1l1.1,0.7L43.8,100.8z M27,66.5l0.7-1l16.4,11.7l-0.8,1L27,66.5z M25.2,65.3c0,0-0.9-0.5-1.1-0.6l0.7-1.2l1.2,0.7
		C25.9,64.5,25.5,65.3,25.2,65.3 M82.7,65.9c0-0.3,1.2-1,1.4-1.4l-1.3-1.8l-1.8,1c-1.3-0.8-6.2-6-8.4-5c0.8,1.1,6.6,5,6.6,6.3
		c0,1.2-6.9,3.9-8.2,4.8L69,68l2.1-3.8c-0.3-0.3-2.1-1.8-2.5-1.8c-0.5,0-2.7,2.7-3.1,3.2l-2.6-1.3l0.8-4.5c-0.8-0.2-2.2-0.8-2.9-0.8
		c-0.4,0-2,3.4-2.3,4l-2.6-0.5c-0.2-0.8-0.3-4.5-1.2-4.5H52l-0.7,4.5l-2.8,0.4c-0.1-0.5-1.7-3.9-2-3.9c-0.7,0-2.1,0.6-2.9,0.8
		l0.8,4.6l-2.6,1.2c-0.3-0.5-2.8-3.2-3.3-3.2c0,0-2.3,1.5-2.3,1.8c0,0.3,1.8,3.3,2,3.8l-2,2c-1.4-0.7-8-3.6-8-5
		c0-0.4,5.6-5.5,6.5-5.7c-0.6-2.3-8.5,4.6-8.6,4.6c-0.3,0-0.9-0.8-1.4-0.8c-0.3,0-1.3,1.3-1.4,1.6c0.4,0.5,1.4,1.1,1.4,1.4
		c0,0.4-2.7,4.8-2.7,7.5V75h0.6c0.2-2,2.9-6.5,3.9-7.9c1,0.7,4.1,2.2,3.9,3.4l3.2,2.9l-1.2,2.5L27.9,75c-0.2,0.8-0.8,2.1-0.8,2.8
		c0,0.4,3.6,1.9,4.1,2.2l-0.5,2.6L26,83.2l0,2.5c0,0.9,3.8,1.1,4.7,1.2l0.3,2.6c-0.5,0.3-4,1.8-4,2.2c0,0.7,0.6,2,0.8,2.8l4.7-0.8
		c0.2,0.8,1,1.9,1,2.4c0,0.2-2.7,2.6-3.1,3.2l1.7,2.4l4-2.1l2,1.8c-0.2,0.4-2,3.7-2,3.9c0,0.3,2.1,1.6,2.5,1.8l3.2-3.2l2.5,1.3
		l-0.8,4.5l3.1,0.9l1.9-4l2.8,0.4l0.7,4.3l3.2,0l0.7-4.4l2.8-0.4l1.8,4l3.1-0.9l-0.8-4.5l2.5-1.2l3.2,3.2c0.4-0.3,2.5-1.6,2.5-1.8
		c0-0.6-2-3.4-2-4c0-0.2,1.7-1.8,1.8-1.8c0.9,0,3.2,1.7,4.3,2l1.7-2.4L73.6,96l1.3-2.3l4.6,0.6l0.9-2.8l-4.2-2l0.4-2.6
		c0.9-0.2,4.7-0.2,4.7-1.2v-2.6l-4.7-0.6l-0.4-2.8c0.5-0.1,4.1-1.6,4.1-2c0-0.7-0.6-2-0.8-2.8l-4.7,0.8l-1.2-2.6
		c2.2-1.4,5-5.6,7.6-6.1l4.1,8l0.2-0.1v-1.4C85.4,70.4,82.7,66.5,82.7,65.9"/>
	<path class="st3" d="M57.1,82.1c-0.3,0-0.5,0.2-0.5,0.5c0,0.3,0.2,0.5,0.5,0.5c0.3,0,0.5-0.2,0.5-0.5
		C57.6,82.3,57.4,82.1,57.1,82.1"/>
	<path class="st3" d="M57,81.5c0.3,0,0.5-0.2,0.5-0.5c0-0.3-0.2-0.5-0.5-0.5c-0.3,0-0.5,0.2-0.5,0.5C56.4,81.3,56.7,81.5,57,81.5"/>
	<path class="st3" d="M55.7,82.2c-0.3,0-0.5,0.2-0.5,0.5s0.2,0.5,0.5,0.5s0.5-0.2,0.5-0.5S56,82.2,55.7,82.2"/>
	<path class="st3" d="M55.6,81.5c0.3,0,0.5-0.2,0.5-0.5c0-0.3-0.2-0.5-0.5-0.5c-0.3,0-0.5,0.2-0.5,0.5
		C55.1,81.3,55.3,81.5,55.6,81.5"/>
	<path class="st3" d="M64.5,53.3c0,0-6.5-1.8-11.4-1.9c-7.5-0.1-10.8,1.7-10.8,1.7s1-3.9,2.3-6.7c1.4-2.9,2.7-4.8,2.7-4.8l0.3-0.1
		l0.5-0.6c0,0-1.7-0.2-2.8-0.5c-1.1-0.3-1.6-0.5-1.6-0.5s1.8-3,1-4.1c-0.6-0.8-8-11.4,5.3-16.2c2.6-0.9,5.8,0.7,5.8,0.7
		s-6.2-0.9-7.8,4.4c-1.4,4.5,0.6,8.4,0.6,8.4l2.3-1.5c0,0-1.1-5-0.4-6.7c2.3-5.8,8.6-3.3,10.4-1.7c1.5,1.3,4,4.5,4,4.5
		s-1.4-0.1-3.1,0c-1.5,0.1-3.4,0.5-4.8,1.3c-3,1.8-2.7,2.3-2.7,2.3s0.1,2.6,0.9,4.5c0.8,1.9,1.6,2.9,1.6,2.9s-2.6,1.8-4.7,2
		c-1.4,0.2-3.3,0.2-3.3,0.2l-0.7,1.3c0,0,3.9,4.1,7.1,6.1c3.2,2,2.5,1.5,2.5,1.5s-1.2-3.1-0.8-5.6c0.4-2.5,1.2-4,1.2-4
		s4.6,1.6,4.4-0.7c-0.1-1-0.4-0.6-0.1-1.2c0.3-0.5,0.1-0.8-0.1-0.9L62,37.3l-0.1-0.2c0,0,0.6,0.1,0.8-0.1c0.2-0.2,0.2-0.8,0.1-1.2
		c-0.1-0.4-0.1-0.6,0.4-0.6c0.5,0,2,0.2,1.3-1c-0.7-1.2-1-1.2-1.3-1.9c-0.2-0.6-0.5-0.3-0.5-1c0,0,0.1-0.9-0.1-1.3
		c-0.2-0.4-1.4-2.4-1.4-2.4l0.5-0.1c0,0,0.8,1.3,1.2,2c0.8,1.4,0.1,1.6,0.3,1.8c0.2,0.2,1.3,1.8,1.6,2.4c0.2,0.6,0.8,1.3,0.2,1.5
		c-0.5,0.1-1.5,0-1.6,0.3c-0.1,0.4,0.2,0.7,0.1,1.2c-0.2,0.5-0.3,0.6-0.3,0.8c0,0.2-0.3,0.7-0.3,1.3c0,0.6,0.3,1.7-0.8,2.1
		c-0.5,0.2-1.7,0-2.5,0c-0.8,0-1.4-0.3-1.4,0.1c-0.1,0.4-1,2.3-0.9,3.9c0,1.6,0.8,4.5,1.1,4.9C58.9,50.6,64.5,53.3,64.5,53.3"/>
	<path class="st3" d="M58.5,31.2c0,0,0.6,0.1,1.2-0.4c0.7-0.5,1.5-0.4,1.8-0.2c0.3,0.2,0.7,0.2,0.9,0.1c0.1-0.1,0-1-1.2-1
		c-1.3,0-1.2,0.4-1.8,0.8C58.8,30.9,58.5,31.2,58.5,31.2"/>
	<path class="st3" d="M61.7,30.8c0.1-0.2,0.4,0,0.3,0.3c-0.1,0.3-0.4,0.4-0.4,0.5c0,0.1,0.3,0.6,0,0.7c-0.3,0.2-0.6,0-0.6-0.3
		c0-0.3-0.4-0.2-0.5,0c-0.1,0.2-0.2,0.4-0.3,0.4c-0.2,0-0.1-0.9,0.2-1C60.8,31.4,61.4,31.2,61.7,30.8"/>
</g>
</svg>
