<svg id="Capa_1" data-name="Capa 1" xmlns="http://www.w3.org/2000/svg" viewBox="0 0 51.67 41.96"><title>icono-gracias</title><path d="M22.74,35.22a2.93,2.93,0,0,1-2.08-.87l-13-13a2.92,2.92,0,0,1,0-4.16L11,13.86a3,3,0,0,1,4.15,0l7.61,7.6L42,2.24a3,3,0,0,1,4.16,0l3.33,3.32a3,3,0,0,1,.87,2.08,2.93,2.93,0,0,1-.87,2.08L24.82,34.35A3,3,0,0,1,22.74,35.22Z" transform="translate(0 -0.04)" style="fill:#f4633a;stroke:#53565a;stroke-linecap:round;stroke-linejoin:round;stroke-width:2.7px"/><path d="M8.21.4A8.22,8.22,0,0,0,0,8.61V33.79A8.23,8.23,0,0,0,8.21,42H33.39a8.22,8.22,0,0,0,8.21-8.21V24.16a.45.45,0,0,0-.29-.41.41.41,0,0,0-.17-.05.5.5,0,0,0-.35.15l-1.93,1.94a.44.44,0,0,0-.13.31v7.69a5.35,5.35,0,0,1-5.34,5.34H8.21a5.35,5.35,0,0,1-5.34-5.34V8.61A5.35,5.35,0,0,1,8.21,3.27H33.39a5.87,5.87,0,0,1,1.49.2l.15,0a.61.61,0,0,0,.34-.15l1.48-1.49A.46.46,0,0,0,37,1.44a.47.47,0,0,0-.25-.33A8,8,0,0,0,33.39.4Z" transform="translate(0 -0.04)" style="fill:#53565a"/></svg>