<?xml version="1.0" encoding="utf-8"?>
<!-- Generator: Adobe Illustrator 24.0.2, SVG Export Plug-In . SVG Version: 6.00 Build 0)  -->
<svg version="1.1" id="Capa_1" xmlns="http://www.w3.org/2000/svg" xmlns:xlink="http://www.w3.org/1999/xlink" x="0px" y="0px"
	 viewBox="0 0 474.3 534.9" style="enable-background:new 0 0 474.3 534.9;" xml:space="preserve">
<style type="text/css">
	.st0{fill:#2B2857;}
	.st1{fill:#FFFFFF;}
	.st2{fill:#1A2E35;}
	.st3{fill:#A8FF01;}
	.st4{clip-path:url(#SVGID_2_);fill:#D2FF7D;}
	.st5{clip-path:url(#SVGID_4_);fill:#D2FF7D;}
	.st6{fill:#D2FF7E;}
	.st7{clip-path:url(#SVGID_6_);fill:#D2FF7D;}
	.st8{fill:#D2FF7D;}
</style>
<g>
	<path class="st0" d="M470.1,218.9c2.1-56.1-18.1-112.8-62.5-139.8c-21.9-13.3-47.6-21.1-73.2-20c-27.5,1.2-53.4,12.4-79.3,21.6
		c-25.9,9.2-54,16.6-80.8,10.1C155,86,137.9,74.3,118.7,69c-75.4-21-141,64.6-104.1,132.6c9.1,16.7,23,30.1,34.7,45s21.6,33,20,51.9
		c-1.3,15.7-10.2,29.6-13.9,44.9c-7.1,29.2,6.9,61.4,31.2,79.3c24.2,17.8,57,22,86.1,14.7c29.2-7.3,55-25.3,75.2-47.5
		c10.9-11.9,21.4-25.8,37-29.9c15-3.9,30.4,2.4,45.6,5.3c28,5.3,58-1.5,80.9-18.4C448.2,319.7,468.2,269.6,470.1,218.9"/>
	<path class="st0" d="M238.3,340.9H126.8l-2.8,97.8c6.9,1.4,14,2,21,2c9.3,0,18.7-1.2,27.7-3.4c29.2-7.3,55-25.3,75.2-47.5
		c7.7-8.5,15.4-18,24.7-24.2c-9.7-2.1-19.1-4.1-25.2-6.8c-6.3-2.7-11.2-4.1-12.3-4.4c-0.2,0-0.2-0.1-0.2-0.1
		c-0.3-0.1-0.4-0.3-0.4-0.6c0,0,0.9-5.4,2.3-9.6C237.2,343,237.7,341.9,238.3,340.9 M313.2,340.9h-73.6c-0.7,1.1-1.3,2.3-1.7,3.5
		c-1,3-1.8,6.8-2.1,8.5c0,0.2-0.1,0.3-0.1,0.4c1.5,0.4,6.2,1.8,12.2,4.4c6.1,2.7,16,4.7,26.1,7c3.4-2.1,7-3.8,11-4.8
		c3.3-0.9,6.7-1.2,10.1-1.2c5.7,0,11.5,1,17.3,2.3c0.1-0.1,0.2-0.3,0.3-0.4c1.9-2.3,2.7-5.4,2.7-8.8
		C315.5,348.1,314.6,344.3,313.2,340.9 M339.2,340.9h-24.8c1.4,3.4,2.2,7.2,2.2,10.9c0,3.6-0.8,7-2.9,9.5l0,0
		c5.7,1.3,11.3,2.9,17,3.9c3.1,0.6,6.2,1,9.3,1.3L339.2,340.9 M163.6,268.6l0-0.2c0.3-6.8,10.9-45.4,10.9-45.4l16.8,7.8l-7.2,35.2
		c0,0,1.9,23.4,1.2,23.4l0,0C184.5,288.7,163.6,275.4,163.6,268.6 M294.9,219.3L294.9,219.3c0,0,14.3,32.6,16.4,41
		c0.7,2.9,1.2,5.4,1.2,7.7c0,4.5-1.9,8.1-8,11.4c-9.2,5-31.3,10-31.3,10l-1.5-14.3c0,0,3.4-1.5,5.8-2.9c2.4-1.5,15.2-8.4,15.2-10
		s-14.4-32.4-14.4-32.4L294.9,219.3 M207.3,153.2c0-9.3,5-18.8,12.1-25c3.6-3.1,7.4-4.4,11.2-4.4c5.6,0,11.3,2.8,16.6,6.9
		c8.2,6.3,10.4,20.1,10.4,23.3c0,0.3,0,0.6-0.1,0.6c-0.1,0.2-0.2,0.6-0.3,1.4c0.4-0.5,1-1.1,1.7-1.6c0.5-0.4,1.1-0.6,1.8-0.6h0
		c0.7,0,1.4,0.3,1.9,1c0.6,0.7,0.8,1.5,0.8,2.4v0c0,1.7-0.8,3.6-1.9,5.4c-1.1,1.7-2.3,3.2-3.4,4.1c-0.9,0.8-1.8,1.2-2.6,1.2h0
		c-0.5,0-1-0.2-1.4-0.5c-1,2.5-2.2,5.3-3.8,8.3c-6.3,11.5-10.9,17-15.1,17.7c-0.5,0.1-0.9,0.1-1.3,0.1c-3.6,0-6.7-2.5-13.7-10.3
		c-4.3-4.7-7.5-11.2-9.5-16.2l-0.1,0.1c-0.4,0.5-1,0.8-1.7,0.8h0c-0.8,0-1.7-0.4-2.6-1.2c-1-0.9-2.3-2.4-3.4-4.1
		c-1.1-1.7-1.9-3.6-1.9-5.4v0c0-0.9,0.2-1.7,0.8-2.4c0.6-0.6,1.3-1,1.9-1h0c0.7,0,1.3,0.3,1.8,0.6c0.5,0.4,1,0.8,1.4,1.3
		c0.2,0.2,0.4,0.5,0.5,0.7C207.4,155.2,207.3,154.2,207.3,153.2 M339.4,59c-1.7,0-3.3,0-5,0.1c-27.5,1.2-53.4,12.4-79.3,21.6
		c-19.1,6.8-39.3,12.6-59.3,12.6c-7.2,0-14.4-0.8-21.5-2.5C155,86,137.9,74.3,118.7,69c-7.9-2.2-15.7-3.2-23.3-3.2
		C45,65.7,4,111.3,4,160.2c0,13.8,3.3,28,10.6,41.4c9.1,16.7,23,30.1,34.7,45c10.9,13.9,20.2,30.4,20.2,47.8c0,1.3-0.1,2.7-0.2,4
		c-1.3,15.7-10.2,29.6-13.9,44.9c-1.2,5.1-1.8,10.4-1.8,15.6c0,24.5,13,49,33,63.7c9.5,7,20.4,11.9,31.8,14.8l0.4-96.5h-13.6
		c-2.2,0-3.9-1.5-4.3-3.3c-0.1-0.1-0.2-0.3-0.2-0.4v-6.9c0-0.1,0-0.2,0.1-0.3c0-0.5,0.2-0.9,0.4-1.4l15.9-34.4c1.1-2.4,3.6-4,6.4-4
		h218.8c2.8,0,5.3,1.6,6.4,4l15.9,34.4c0.3,0.6,0.4,1.2,0.4,1.7c0,0.3,0,0.6-0.1,0.9l0.1,5.6l0,0c-0.1,2.2-1.9,4.1-4.4,4.1h-13.4
		l0.1,26.1c0.8,0,1.5,0,2.3,0c22.1,0,44.2-7.1,62-20.2c36.7-27.1,56.7-77.2,58.6-127.9c0.1-2.6,0.1-5.2,0.1-7.8
		c0-53.5-20.3-106.3-62.6-132C387.1,66.6,363.4,59,339.4,59"/>
	<path class="st0" d="M411.9,492.9c0,20.2-82,36.6-183,36.6s-183-16.4-183-36.6s82-36.6,183-36.6S411.9,472.7,411.9,492.9"/>
	<path class="st0" d="M228.9,456.3c-39.3,0-75.7,2.5-105.5,6.7l0,1.4v0c0,1.3-1.1,2.4-2.5,2.4c-1.4,0-2.5-1.1-2.5-2.5v0v0v0l0-0.6
		c-44.1,6.7-72.5,17.3-72.5,29.2c0,20.2,82,36.6,183,36.6s183-16.4,183-36.6c0-11.2-25-21.2-64.4-27.9c-0.3,1-1.3,1.8-2.4,1.8
		c-1.3,0-2.4-1.1-2.5-2.4v0l0-0.2C311.4,459.3,271.9,456.3,228.9,456.3"/>
	<path class="st1" d="M424.8,167.7H289.6c-3.6,0-6.5-2.9-6.5-6.5V12.5c0-3.6,2.9-6.5,6.5-6.5h135.2c3.6,0,6.5,2.9,6.5,6.5v148.8
		C431.4,164.8,428.4,167.7,424.8,167.7z"/>
	<path class="st2" d="M424.8,167.7v-0.5H289.6c-1.7,0-3.1-0.7-4.2-1.8c-1.1-1.1-1.8-2.6-1.8-4.2V12.5c0-1.7,0.7-3.1,1.8-4.2
		c1.1-1.1,2.6-1.8,4.2-1.8h135.2c1.7,0,3.1,0.7,4.2,1.8c1.1,1.1,1.8,2.6,1.8,4.2v148.8c0,1.7-0.7,3.1-1.8,4.2
		c-1.1,1.1-2.6,1.8-4.2,1.8V167.7v0.5c3.9,0,7.1-3.2,7.1-7.1V12.5c0-3.9-3.2-7.1-7.1-7.1H289.6c-3.9,0-7.1,3.2-7.1,7.1v148.8
		c0,3.9,3.2,7.1,7.1,7.1h135.2V167.7z"/>
	<path class="st2" d="M431.4,22.6H283V12.5c0-3.6,2.9-6.5,6.5-6.5h135.2c3.6,0,6.5,2.9,6.5,6.5V22.6z"/>
	<path class="st2" d="M431.4,22.6V22H283.6v-9.6c0-1.7,0.7-3.1,1.8-4.2c1.1-1.1,2.6-1.8,4.2-1.8h135.2c1.7,0,3.1,0.7,4.2,1.8
		c1.1,1.1,1.8,2.6,1.8,4.2v10.1H431.4V22V22.6h0.5V12.5c0-3.9-3.2-7.1-7.1-7.1H289.6c-3.9,0-7.1,3.2-7.1,7.1v10.1
		c0,0.1,0.1,0.3,0.2,0.4c0.1,0.1,0.2,0.2,0.4,0.2h148.3c0.1,0,0.3-0.1,0.4-0.2c0.1-0.1,0.2-0.2,0.2-0.4H431.4z"/>
	<path class="st2" d="M291.1,92.9h59.7c0.3,0,0.5-0.2,0.5-0.5c0-0.3-0.2-0.5-0.5-0.5h-59.7c-0.3,0-0.5,0.2-0.5,0.5
		C290.6,92.6,290.8,92.9,291.1,92.9"/>
	<path class="st2" d="M291.1,100.6h59.7c0.3,0,0.5-0.2,0.5-0.5c0-0.3-0.2-0.5-0.5-0.5h-59.7c-0.3,0-0.5,0.2-0.5,0.5
		C290.6,100.3,290.8,100.6,291.1,100.6"/>
	<path class="st2" d="M291.1,108.3h59.7c0.3,0,0.5-0.2,0.5-0.5c0-0.3-0.2-0.5-0.5-0.5h-59.7c-0.3,0-0.5,0.2-0.5,0.5
		C290.6,108,290.8,108.3,291.1,108.3"/>
	<path class="st2" d="M291.1,116h59.7c0.3,0,0.5-0.2,0.5-0.5c0-0.3-0.2-0.5-0.5-0.5h-59.7c-0.3,0-0.5,0.2-0.5,0.5
		C290.6,115.7,290.8,116,291.1,116"/>
	<path class="st2" d="M291.1,123.7h59.7c0.3,0,0.5-0.2,0.5-0.5c0-0.3-0.2-0.5-0.5-0.5h-59.7c-0.3,0-0.5,0.2-0.5,0.5
		C290.6,123.4,290.8,123.7,291.1,123.7"/>
	<path class="st2" d="M291.1,131.4h59.7c0.3,0,0.5-0.2,0.5-0.5c0-0.3-0.2-0.5-0.5-0.5h-59.7c-0.3,0-0.5,0.2-0.5,0.5
		C290.6,131.1,290.8,131.4,291.1,131.4"/>
	<path class="st2" d="M291.1,139.1h59.7c0.3,0,0.5-0.2,0.5-0.5c0-0.3-0.2-0.5-0.5-0.5h-59.7c-0.3,0-0.5,0.2-0.5,0.5
		C290.6,138.9,290.8,139.1,291.1,139.1"/>
	<path class="st2" d="M291.1,146.8h59.7c0.3,0,0.5-0.2,0.5-0.5c0-0.3-0.2-0.5-0.5-0.5h-59.7c-0.3,0-0.5,0.2-0.5,0.5
		C290.6,146.6,290.8,146.8,291.1,146.8"/>
	<path class="st2" d="M291.1,154.5h59.7c0.3,0,0.5-0.2,0.5-0.5c0-0.3-0.2-0.5-0.5-0.5h-59.7c-0.3,0-0.5,0.2-0.5,0.5
		C290.6,154.3,290.8,154.5,291.1,154.5"/>
	<path class="st2" d="M361.3,92.9H421c0.3,0,0.5-0.2,0.5-0.5c0-0.3-0.2-0.5-0.5-0.5h-59.7c-0.3,0-0.5,0.2-0.5,0.5
		C360.8,92.6,361,92.9,361.3,92.9"/>
	<path class="st2" d="M361.3,100.6H421c0.3,0,0.5-0.2,0.5-0.5c0-0.3-0.2-0.5-0.5-0.5h-59.7c-0.3,0-0.5,0.2-0.5,0.5
		C360.8,100.3,361,100.6,361.3,100.6"/>
	<path class="st2" d="M361.3,108.3H421c0.3,0,0.5-0.2,0.5-0.5c0-0.3-0.2-0.5-0.5-0.5h-59.7c-0.3,0-0.5,0.2-0.5,0.5
		C360.8,108,361,108.3,361.3,108.3"/>
	<path class="st2" d="M361.3,116H421c0.3,0,0.5-0.2,0.5-0.5c0-0.3-0.2-0.5-0.5-0.5h-59.7c-0.3,0-0.5,0.2-0.5,0.5
		C360.8,115.7,361,116,361.3,116"/>
	<path class="st2" d="M361.3,123.7H421c0.3,0,0.5-0.2,0.5-0.5c0-0.3-0.2-0.5-0.5-0.5h-59.7c-0.3,0-0.5,0.2-0.5,0.5
		C360.8,123.4,361,123.7,361.3,123.7"/>
	<path class="st2" d="M361.3,131.4H421c0.3,0,0.5-0.2,0.5-0.5c0-0.3-0.2-0.5-0.5-0.5h-59.7c-0.3,0-0.5,0.2-0.5,0.5
		C360.8,131.1,361,131.4,361.3,131.4"/>
	<path class="st2" d="M361.3,139.1H421c0.3,0,0.5-0.2,0.5-0.5c0-0.3-0.2-0.5-0.5-0.5h-59.7c-0.3,0-0.5,0.2-0.5,0.5
		C360.8,138.9,361,139.1,361.3,139.1"/>
	<path class="st2" d="M361.3,146.8H421c0.3,0,0.5-0.2,0.5-0.5c0-0.3-0.2-0.5-0.5-0.5h-59.7c-0.3,0-0.5,0.2-0.5,0.5
		C360.8,146.6,361,146.8,361.3,146.8"/>
	<path class="st2" d="M361.3,154.5H421c0.3,0,0.5-0.2,0.5-0.5c0-0.3-0.2-0.5-0.5-0.5h-59.7c-0.3,0-0.5,0.2-0.5,0.5
		C360.8,154.3,361,154.5,361.3,154.5"/>
	<path class="st3" d="M331,43.5c0.3-0.9,0.5-2,0.5-2.8c0-3.5-3.6-3.7-7.1-3.7h-0.9v-0.8h15.2V37c-4,0-5.4,2.5-6.6,6.3l-8.1,24.2
		c-0.6,1.8-1.1,3.1-3,3.1h-0.2l-7.2-23.2l-6.7,20c-0.6,1.8-1.1,3.1-3,3.1h-0.2L293.5,37h-3.7v-0.8h13.4V37h-3.8l7.7,26.6h0.3
		l5.8-17.7l-2.7-8.9h-3.7v-0.8h13.4V37h-3.8l7.7,26.6h0.3L331,43.5z"/>
	<rect x="360" y="28.5" class="st3" width="61.4" height="55.5"/>
	<path class="st2" d="M421.4,84v-1.1h-60.3V29.6h59.2V84H421.4v-1.1V84h1.1V28.5c0-0.3-0.1-0.6-0.3-0.8s-0.5-0.3-0.8-0.3H360
		c-0.3,0-0.6,0.1-0.8,0.3c-0.2,0.2-0.3,0.5-0.3,0.8V84c0,0.3,0.1,0.6,0.3,0.8c0.2,0.2,0.5,0.3,0.8,0.3h61.4c0.3,0,0.6-0.1,0.8-0.3
		s0.3-0.5,0.3-0.8H421.4z"/>
	<path class="st2" d="M421.4,51.7c-1.7,0.1-3.7,0.3-6.1,0.9c-9.3,2-11.8,15.4-22.3,15.4c-9.3,0-10.1-12.6-23.5-14.2
		c-4-0.5-7.1,0.3-9.4,1.7V84h61.4V51.7z"/>
	<path class="st2" d="M421.4,51.7l0-0.5c-1.7,0.1-3.7,0.3-6.2,0.9c-2.5,0.5-4.4,1.8-6.2,3.4c-2.6,2.4-4.7,5.4-7.2,7.8
		c-2.4,2.4-5.1,4.2-8.9,4.2c-2.2,0-3.9-0.7-5.4-1.9c-2.3-1.7-4.2-4.5-6.9-7c-2.6-2.5-6-4.7-11.2-5.3c-0.8-0.1-1.6-0.1-2.4-0.1
		c-3,0-5.5,0.8-7.4,1.9c-0.2,0.1-0.3,0.3-0.3,0.5V84c0,0.1,0.1,0.3,0.2,0.4c0.1,0.1,0.2,0.2,0.4,0.2h61.4c0.1,0,0.3-0.1,0.4-0.2
		c0.1-0.1,0.2-0.2,0.2-0.4V51.7c0-0.1-0.1-0.3-0.2-0.4s-0.3-0.2-0.4-0.1L421.4,51.7h-0.5v31.8h-60.3v-28H360l0.3,0.5
		c1.8-1,4-1.8,6.9-1.8c0.7,0,1.5,0,2.2,0.1c6.5,0.8,9.9,4.2,12.9,7.5c1.5,1.7,2.9,3.3,4.6,4.6c1.7,1.3,3.6,2.1,6.1,2.1
		c2.8,0,5-0.9,6.9-2.2c2.9-2,5.1-5,7.4-7.6c2.3-2.6,4.8-4.9,8.1-5.6c2.4-0.5,4.4-0.8,6-0.9L421.4,51.7h-0.5H421.4z"/>
	<path class="st1" d="M380.4,41.2c0,3.8-3.1,6.9-6.9,6.9s-6.9-3.1-6.9-6.9c0-3.8,3.1-6.9,6.9-6.9S380.4,37.4,380.4,41.2z"/>
	<path class="st2" d="M380.4,41.2h-0.5c0,1.8-0.7,3.3-1.9,4.5c-1.2,1.2-2.7,1.9-4.5,1.9s-3.3-0.7-4.5-1.9c-1.2-1.2-1.9-2.7-1.9-4.5
		c0-1.8,0.7-3.3,1.9-4.5c1.2-1.2,2.7-1.9,4.5-1.9s3.3,0.7,4.5,1.9c1.2,1.2,1.9,2.7,1.9,4.5H380.4h0.5c0-4.1-3.3-7.4-7.4-7.4
		s-7.4,3.3-7.4,7.4c0,4.1,3.3,7.4,7.4,7.4s7.4-3.3,7.4-7.4H380.4z"/>
	<rect x="287.5" y="10.8" class="st1" width="136.7" height="5.3"/>
	<path class="st2" d="M424.2,16.1v-0.5H288v-4.2h135.6v4.7H424.2v-0.5V16.1h0.5v-5.3c0-0.1-0.1-0.3-0.2-0.4
		c-0.1-0.1-0.2-0.2-0.4-0.2H287.5c-0.1,0-0.3,0.1-0.4,0.2s-0.2,0.2-0.2,0.4v5.3c0,0.1,0.1,0.3,0.2,0.4c0.1,0.1,0.2,0.2,0.4,0.2
		h136.7c0.1,0,0.3-0.1,0.4-0.2c0.1-0.1,0.2-0.2,0.2-0.4H424.2z"/>
	<path class="st2" d="M415.7,200h-59.2c-4.8,0-8.8,3.9-8.8,8.8v31.7c0,4.8,3.9,8.8,8.8,8.8h1.8c-1.8,4.1-5.4,10.3-11.1,14
		c0,0,12-0.8,24.5-14h43.9c4.8,0,8.8-3.9,8.8-8.8v-31.7C424.4,204,420.5,200,415.7,200z"/>
	<path class="st2" d="M415.7,200v-0.5h-59.2c-5.1,0-9.3,4.2-9.3,9.3v31.7c0,5.1,4.2,9.3,9.3,9.3h1.8v-0.5l-0.5-0.2
		c-1.8,4-5.3,10.2-10.9,13.8c-0.2,0.1-0.3,0.4-0.2,0.6c0.1,0.2,0.3,0.4,0.6,0.4c0.1,0,12.2-0.9,24.9-14.2l-0.4-0.4v0.5h43.9
		c5.1,0,9.3-4.2,9.3-9.3v-31.7c0-5.1-4.2-9.3-9.3-9.3V200v0.5c2.3,0,4.3,0.9,5.8,2.4c1.5,1.5,2.4,3.5,2.4,5.8v31.7
		c0,2.3-0.9,4.3-2.4,5.8c-1.5,1.5-3.5,2.4-5.8,2.4h-43.9c-0.1,0-0.3,0.1-0.4,0.2c-6.2,6.5-12.3,10-16.8,11.8
		c-2.3,0.9-4.1,1.4-5.4,1.7c-0.6,0.1-1.2,0.2-1.5,0.3c-0.2,0-0.3,0-0.4,0l-0.1,0l0,0.5l0.3,0.5c5.8-3.8,9.4-10.1,11.3-14.2
		c0.1-0.2,0.1-0.4,0-0.5c-0.1-0.2-0.3-0.2-0.5-0.2h-1.8c-2.3,0-4.3-0.9-5.8-2.4c-1.5-1.5-2.4-3.5-2.4-5.8v-31.7
		c0-2.3,0.9-4.3,2.4-5.8c1.5-1.5,3.5-2.4,5.8-2.4h59.2V200z"/>
	<path class="st3" d="M375.9,223.5c0-2.5-2-4.5-4.5-4.5c-2.5,0-4.5,2-4.5,4.5c0,2.5,2,4.5,4.5,4.5C373.9,228,375.9,226,375.9,223.5z
		"/>
	<path class="st2" d="M375.9,223.5h0.5c0-2.8-2.3-5.1-5.1-5.1c-2.8,0-5.1,2.3-5.1,5.1c0,2.8,2.3,5.1,5.1,5.1c2.8,0,5.1-2.3,5.1-5.1
		H375.9h-0.5c0,1.1-0.4,2.1-1.2,2.8c-0.7,0.7-1.7,1.2-2.8,1.2c-2.2,0-4-1.8-4-4c0-2.2,1.8-4,4-4c1.1,0,2.1,0.4,2.8,1.2
		c0.7,0.7,1.2,1.7,1.2,2.8H375.9z"/>
	<path class="st3" d="M391.3,223.5c0-2.5-2-4.5-4.5-4.5c-2.5,0-4.5,2-4.5,4.5c0,2.5,2,4.5,4.5,4.5C389.2,228,391.3,226,391.3,223.5z
		"/>
	<path class="st2" d="M391.3,223.5h0.5c0-2.8-2.3-5.1-5.1-5.1c-2.8,0-5.1,2.3-5.1,5.1c0,2.8,2.3,5.1,5.1,5.1c2.8,0,5.1-2.3,5.1-5.1
		H391.3h-0.5c0,1.1-0.4,2.1-1.2,2.8c-0.7,0.7-1.7,1.2-2.8,1.2c-2.2,0-4-1.8-4-4c0-2.2,1.8-4,4-4c1.1,0,2.1,0.4,2.8,1.2
		c0.7,0.7,1.2,1.7,1.2,2.8H391.3z"/>
	<path class="st3" d="M406.6,223.5c0-2.5-2-4.5-4.5-4.5c-2.5,0-4.5,2-4.5,4.5c0,2.5,2,4.5,4.5,4.5C404.6,228,406.6,226,406.6,223.5z
		"/>
	<path class="st2" d="M406.6,223.5h0.5c0-2.8-2.3-5.1-5.1-5.1c-2.8,0-5.1,2.3-5.1,5.1c0,2.8,2.3,5.1,5.1,5.1c2.8,0,5.1-2.3,5.1-5.1
		H406.6h-0.5c0,1.1-0.4,2.1-1.2,2.8c-0.7,0.7-1.7,1.2-2.8,1.2c-2.2,0-4-1.8-4-4c0-2.2,1.8-4,4-4c1.1,0,2.1,0.4,2.8,1.2
		c0.7,0.7,1.2,1.7,1.2,2.8H406.6z"/>
	<path class="st3" d="M196.4,101.4H81.6V32.1c0-3.9,3.1-7,7-7h100.9c3.9,0,7,3.1,7,7V101.4z"/>
	<path class="st2" d="M196.4,101.4v-0.5H82.1V32.1c0-1.8,0.7-3.4,1.9-4.6c1.2-1.2,2.8-1.9,4.6-1.9h100.9c1.8,0,3.4,0.7,4.6,1.9
		c1.2,1.2,1.9,2.8,1.9,4.6v69.3H196.4v-0.5V101.4h0.5V32.1c0-4.2-3.4-7.5-7.5-7.5H88.6c-4.2,0-7.5,3.4-7.5,7.5v69.3
		c0,0.1,0.1,0.3,0.2,0.4c0.1,0.1,0.2,0.2,0.4,0.2h114.9c0.1,0,0.3-0.1,0.4-0.2c0.1-0.1,0.2-0.2,0.2-0.4H196.4z"/>
	<rect x="81.6" y="90.5" class="st2" width="114.9" height="10.9"/>
	<path class="st2" d="M196.4,101.4v-0.5H82.1v-9.8h113.8v10.3H196.4v-0.5V101.4h0.5V90.5c0-0.1-0.1-0.3-0.2-0.4
		c-0.1-0.1-0.2-0.2-0.4-0.2H81.6c-0.1,0-0.3,0.1-0.4,0.2c-0.1,0.1-0.2,0.2-0.2,0.4v10.9c0,0.1,0.1,0.3,0.2,0.4
		c0.1,0.1,0.2,0.2,0.4,0.2h114.9c0.1,0,0.3-0.1,0.4-0.2c0.1-0.1,0.2-0.2,0.2-0.4H196.4z"/>
	<rect x="86.8" y="94.2" class="st1" width="104.4" height="3.4"/>
	<path class="st2" d="M191.2,97.7v-0.5H87.4v-2.4h103.3v2.9H191.2v-0.5V97.7h0.5v-3.4c0-0.1-0.1-0.3-0.2-0.4
		c-0.1-0.1-0.2-0.2-0.4-0.2H86.8c-0.1,0-0.3,0.1-0.4,0.2c-0.1,0.1-0.2,0.2-0.2,0.4v3.4c0,0.1,0.1,0.3,0.2,0.4
		c0.1,0.1,0.2,0.2,0.4,0.2h104.4c0.1,0,0.3-0.1,0.4-0.2c0.1-0.1,0.2-0.2,0.2-0.4H191.2z"/>
	<path class="st2" d="M154.9,59.8c0-8.8-7.1-15.9-15.9-15.9c-8.8,0-15.9,7.1-15.9,15.9c0,8.8,7.1,15.9,15.9,15.9
		C147.8,75.6,154.9,68.5,154.9,59.8z"/>
	<path class="st2" d="M154.9,59.8h0.5c0-9.1-7.3-16.4-16.4-16.4c-9.1,0-16.4,7.3-16.4,16.4c0,9.1,7.3,16.4,16.4,16.4
		c9.1,0,16.4-7.3,16.4-16.4H154.9h-0.5c0,4.2-1.7,8.1-4.5,10.8c-2.8,2.8-6.6,4.5-10.8,4.5c-4.2,0-8.1-1.7-10.8-4.5
		c-2.8-2.8-4.5-6.6-4.5-10.8c0-4.2,1.7-8.1,4.5-10.8c2.8-2.8,6.6-4.5,10.8-4.5c4.2,0,8.1,1.7,10.8,4.5c2.8,2.8,4.5,6.6,4.5,10.8
		H154.9z"/>
	<polygon class="st1" points="131.8,49.9 148.9,59.8 131.8,69.6 	"/>
	<path class="st2" d="M131.8,49.9l-0.3,0.5l16.3,9.4l-15.5,8.9V49.9H131.8l-0.3,0.5L131.8,49.9h-0.5v19.8c0,0.2,0.1,0.4,0.3,0.5
		s0.4,0.1,0.5,0l17.1-9.9c0.2-0.1,0.3-0.3,0.3-0.5s-0.1-0.4-0.3-0.5l-17.1-9.9c-0.2-0.1-0.4-0.1-0.5,0s-0.3,0.3-0.3,0.5H131.8z"/>
	<path class="st2" d="M147.5,178.4H36.9c-1.7,0-3-1.4-3-3v-43.1c0-1.7,1.4-3,3-3h110.6c1.7,0,3,1.4,3,3v43.1
		C150.6,177,149.2,178.4,147.5,178.4z"/>
	<path class="st2" d="M147.5,178.4v-0.5H36.9c-1.4,0-2.5-1.1-2.5-2.5v-43.1c0-1.4,1.1-2.5,2.5-2.5h110.6c1.4,0,2.5,1.1,2.5,2.5v43.1
		c0,1.4-1.1,2.5-2.5,2.5V178.4v0.5c2,0,3.6-1.6,3.6-3.6v-43.1c0-2-1.6-3.6-3.6-3.6H36.9c-2,0-3.6,1.6-3.6,3.6v43.1
		c0,2,1.6,3.6,3.6,3.6h110.6V178.4z"/>
	<path class="st3" d="M47.8,135.9l0.6,0.9c-2.6,1.4-5,4-5,6.9c0,2.6,1.8,4.1,3.6,4.1c0.4,0,0.6-0.2,0.6-0.6c0-0.3-0.2-0.5-0.6-0.6
		c-0.9-0.2-1.6-1-1.6-2.4c0-1.8,1.5-3,3.3-3c1.9,0,3.4,1.6,3.4,3.5c0,2.5-2,4.2-4.5,4.2c-3.1,0-5.5-2-5.5-5.3
		C42.3,140.3,44.9,137.5,47.8,135.9z M59.4,135.9l0.6,0.9c-2.6,1.4-5,4-5,6.9c0,2.6,1.8,4.1,3.6,4.1c0.4,0,0.6-0.2,0.6-0.6
		c0-0.3-0.2-0.5-0.6-0.6c-0.9-0.2-1.6-1-1.6-2.4c0-1.8,1.5-3,3.3-3c1.9,0,3.4,1.6,3.4,3.5c0,2.5-2,4.2-4.5,4.2c-3.1,0-5.5-2-5.5-5.3
		C53.9,140.3,56.5,137.5,59.4,135.9z"/>
	<path class="st1" d="M70.5,146.4h66.4c0.3,0,0.5-0.2,0.5-0.5c0-0.3-0.2-0.5-0.5-0.5H70.5c-0.3,0-0.5,0.2-0.5,0.5
		C70,146.2,70.2,146.4,70.5,146.4"/>
	<path class="st1" d="M70.5,152.2h66.4c0.3,0,0.5-0.2,0.5-0.5s-0.2-0.5-0.5-0.5H70.5c-0.3,0-0.5,0.2-0.5,0.5S70.2,152.2,70.5,152.2"
		/>
	<path class="st1" d="M70.5,157.9h66.4c0.3,0,0.5-0.2,0.5-0.5s-0.2-0.5-0.5-0.5H70.5c-0.3,0-0.5,0.2-0.5,0.5S70.2,157.9,70.5,157.9"
		/>
	<path class="st1" d="M70.5,163.6h66.4c0.3,0,0.5-0.2,0.5-0.5s-0.2-0.5-0.5-0.5H70.5c-0.3,0-0.5,0.2-0.5,0.5S70.2,163.6,70.5,163.6"
		/>
	<path class="st2" d="M146.3,229.8c0-13.9-11.3-25.1-25.1-25.1S96,215.9,96,229.8s11.3,25.1,25.1,25.1S146.3,243.7,146.3,229.8z"/>
	<path class="st2" d="M146.3,229.8h0.5c0-14.2-11.5-25.7-25.7-25.7c-14.2,0-25.7,11.5-25.7,25.7c0,14.2,11.5,25.7,25.7,25.7
		c14.2,0,25.7-11.5,25.7-25.7H146.3h-0.5c0,6.8-2.8,12.9-7.2,17.4c-4.5,4.5-10.6,7.2-17.4,7.2c-6.8,0-12.9-2.8-17.4-7.2
		c-4.5-4.5-7.2-10.6-7.2-17.4c0-6.8,2.8-12.9,7.2-17.4c4.5-4.5,10.6-7.2,17.4-7.2c6.8,0,12.9,2.8,17.4,7.2
		c4.5,4.5,7.2,10.6,7.2,17.4H146.3z"/>
	<path class="st1" d="M142.4,229.8c0-11.7-9.5-21.2-21.2-21.2s-21.2,9.5-21.2,21.2s9.5,21.2,21.2,21.2S142.4,241.5,142.4,229.8z"/>
	<path class="st2" d="M142.4,229.8h0.5c0-12-9.7-21.8-21.8-21.8s-21.8,9.7-21.8,21.8c0,12,9.7,21.8,21.8,21.8
		c12,0,21.8-9.7,21.8-21.8H142.4h-0.5c0,5.7-2.3,10.9-6.1,14.6c-3.7,3.7-8.9,6.1-14.6,6.1c-5.7,0-10.9-2.3-14.6-6.1
		c-3.7-3.7-6.1-8.9-6.1-14.6c0-5.7,2.3-10.9,6.1-14.6c3.7-3.7,8.9-6.1,14.6-6.1c5.7,0,10.9,2.3,14.6,6.1c3.7,3.7,6.1,8.9,6.1,14.6
		H142.4z"/>
	<path class="st2" d="M120.1,214.5v15.3c0,0.3,0.1,0.6,0.3,0.8s0.5,0.3,0.8,0.3h10.4c0.6,0,1.1-0.5,1.1-1.1c0-0.6-0.5-1.1-1.1-1.1
		h-9.3v-14.3c0-0.6-0.5-1.1-1.1-1.1C120.5,213.4,120.1,213.9,120.1,214.5z"/>
	<path class="st1" d="M278.4,229.9c0,0,14.4,30.8,14.4,32.4s-12.8,8.6-15.2,10c-2.4,1.5-5.8,2.9-5.8,2.9l1.5,14.3c0,0,22-5,31.3-10
		c9.2-5,8.9-10.7,6.8-19.1s-16.4-41-16.4-41L278.4,229.9"/>
	<g>
		<defs>
			<path id="SVGID_1_" d="M278.4,229.9c0,0,14.4,30.8,14.4,32.4s-12.8,8.6-15.2,10c-2.4,1.5-5.8,2.9-5.8,2.9l1.5,14.3
				c0,0,22-5,31.3-10c9.2-5,8.9-10.7,6.8-19.1s-16.4-41-16.4-41L278.4,229.9"/>
		</defs>
		<clipPath id="SVGID_2_">
			<use xlink:href="#SVGID_1_"  style="overflow:visible;"/>
		</clipPath>
		<path class="st4" d="M294.9,219.3L294.9,219.3l-2.3,1.5l-0.7,1.4c0,0,13.3,32.6,14.1,43.4c0.5,7.3-14.1,16.4-23.9,21.6
			c4.1-1.1,9-2.5,13.5-4.1l0,0l0,0l0,0l0,0c3.3-1.2,6.4-2.4,8.7-3.6l0,0l0,0l0,0l0,0l0,0l0,0l0,0l0,0l0,0c6.1-3.3,8-6.9,8-11.4
			c0-2.3-0.5-4.9-1.2-7.7C309.2,251.9,294.9,219.3,294.9,219.3"/>
	</g>
	<path class="st2" d="M278.4,229.9l-0.5,0.2c0,0,0.2,0.5,0.6,1.3c1.4,3,4.8,10.4,7.9,17.2c1.6,3.4,3,6.7,4.1,9.2
		c0.5,1.3,1,2.3,1.3,3.1c0.2,0.4,0.3,0.7,0.3,1c0,0.1,0.1,0.2,0.1,0.3l0,0.1l0,0l0.2,0h-0.2l0,0l0.2,0h-0.2h0.2l-0.2,0l0,0h0.2
		l-0.2,0l0,0l0,0l0,0l0,0l0,0c0,0,0,0.1-0.1,0.2c-0.4,0.5-1.4,1.3-2.7,2.1c-2,1.3-4.6,2.9-6.9,4.2c-2.3,1.4-4.4,2.5-5.2,3
		c-1.2,0.7-2.6,1.4-3.8,2c-0.6,0.3-1.1,0.5-1.4,0.7c-0.4,0.2-0.6,0.2-0.6,0.2c-0.2,0.1-0.3,0.3-0.3,0.6l1.5,14.3
		c0,0.2,0.1,0.3,0.2,0.4c0.1,0.1,0.3,0.1,0.4,0.1c0,0,5.5-1.3,12.2-3.1c6.7-1.9,14.5-4.4,19.2-6.9c3.1-1.7,5.2-3.5,6.5-5.4
		c1.3-2,1.8-4.1,1.8-6.4c0-2.4-0.5-5-1.2-7.8c-0.5-2.2-1.8-5.8-3.5-10c-4.9-12.7-12.9-31-12.9-31c-0.1-0.1-0.2-0.3-0.3-0.3
		c-0.2,0-0.3,0-0.4,0.1l-16.5,10.5c-0.2,0.1-0.3,0.4-0.2,0.7L278.4,229.9l0.3,0.5l16.5-10.5l-0.3-0.5l-0.5,0.2c0,0,0.2,0.5,0.6,1.4
		c1.4,3.2,4.9,11.2,8.2,19.4c3.4,8.2,6.6,16.5,7.5,20.1c0.7,2.8,1.2,5.3,1.2,7.6c0,2.2-0.5,4.1-1.6,5.8c-1.2,1.8-3.1,3.5-6.1,5.1
		c-4.5,2.5-12.3,5-19,6.9c-3.3,0.9-6.4,1.7-8.6,2.3c-1.1,0.3-2,0.5-2.6,0.6c-0.6,0.1-1,0.2-1,0.2l0.1,0.5l0.5-0.1l-1.5-14.3
		l-0.5,0.1l0.2,0.5c0,0,3.4-1.5,5.9-2.9c1.2-0.7,5-2.8,8.5-5c1.8-1.1,3.4-2.1,4.7-3.1c0.6-0.5,1.2-0.9,1.5-1.3
		c0.2-0.2,0.4-0.4,0.5-0.6c0.1-0.2,0.2-0.4,0.2-0.7c0-0.1,0-0.2-0.1-0.4c-0.1-0.5-0.4-1.3-0.9-2.4c-3.2-7.8-13.5-29.9-13.5-29.9
		L278.4,229.9l0.3,0.5L278.4,229.9z"/>
	<path class="st1" d="M174.4,223.1c0,0-10.5,38.5-10.9,45.4c-0.3,6.8,20.9,20.2,21.7,21.1c0.8,0.8-1.2-23.4-1.2-23.4l7.2-35.2
		L174.4,223.1"/>
	<g>
		<defs>
			<path id="SVGID_3_" d="M174.4,223.1c0,0-10.5,38.5-10.9,45.4c-0.3,6.8,20.9,20.2,21.7,21.1c0.8,0.8-1.2-23.4-1.2-23.4l7.2-35.2
				L174.4,223.1"/>
		</defs>
		<clipPath id="SVGID_4_">
			<use xlink:href="#SVGID_3_"  style="overflow:visible;"/>
		</clipPath>
		<path class="st5" d="M174.4,223.1c0,0-10.5,38.5-10.9,45.4l0,0.2c0,6.9,20.9,20.1,21.7,20.9l0,0c0.1,0,0.1-0.3,0.1-0.9l0,0v0
			c0-1.3-0.1-3.9-0.3-6.9c-6.3-5.4-15.4-12.9-16.4-16l10.5-39.4l-0.2-1L174.4,223.1"/>
	</g>
	<path class="st2" d="M174.4,223.1l-0.5-0.1c0,0-2.6,9.6-5.3,20.1c-1.3,5.2-2.7,10.7-3.7,15.3c-1,4.6-1.8,8.3-1.8,10l0,0.2
		c0,1,0.4,2,1,3.1c2.1,3.7,7.2,8,11.8,11.6c2.3,1.8,4.5,3.3,6.2,4.5c0.8,0.6,1.5,1.1,2.1,1.4c0.3,0.2,0.5,0.3,0.6,0.4l0.2,0.1l0.1,0
		l0,0l0,0l0,0l0,0l0,0l0,0c0.1,0.1,0.2,0.2,0.4,0.2c0.1,0,0.2,0,0.3-0.1c0.1-0.1,0.2-0.2,0.2-0.3c0.1-0.1,0.1-0.2,0.1-0.3
		c0-0.3,0.1-0.7,0.1-1.3c0-5.2-1.4-22-1.4-22l-0.5,0l0.5,0.1l7.2-35.2c0.1-0.2-0.1-0.5-0.3-0.6l-16.8-7.8c-0.1-0.1-0.3-0.1-0.5,0
		c-0.1,0.1-0.3,0.2-0.3,0.3L174.4,223.1l-0.2,0.5l16.5,7.6l-7.1,34.8l0,0.2c0,0,0.1,1,0.2,2.7c0.4,5,1.2,15.4,1.2,19.2
		c0,0.5,0,0.8,0,1c0,0.1,0,0.2,0,0.2l0.3,0.1l-0.2-0.2l0,0.1l0.3,0.1l-0.2-0.2l0.4,0.3L185,289l-0.1,0.1l0.4,0.3L185,289l0.3,0.4
		V289c-0.1,0-0.2,0-0.3,0.1l0.3,0.4V289v0.5l0.3-0.3c0,0-0.1-0.1-0.3-0.1v0.5l0.3-0.3c-0.1-0.1-0.2-0.2-0.4-0.3
		c-1.5-1.1-6.8-4.6-11.7-8.7c-2.5-2-4.8-4.2-6.6-6.2c-1.7-2-2.8-3.9-2.8-5.3l0-0.1c0.1-1.6,0.8-5.3,1.8-9.9
		c1.5-6.8,3.8-15.7,5.7-22.8c0.9-3.6,1.8-6.7,2.4-9c0.6-2.2,1-3.6,1-3.6L174.4,223.1l-0.2,0.5L174.4,223.1z"/>
	<path class="st3" d="M223.8,184.4c0,0-4,2.9-12,3.2c-7.9,0.3-8.3-5.4-18.1-5.3c-11.9,0.1-26.9,37.7-26.9,37.7s7.5,7.3,14.7,10.4
		c7.3,3.1,12.6,3.7,12.6,3.7l1.1,24.8h80.3l1-24.8l25.1-16.4c0,0-12.3-22-18.3-30.3c-6-8.3-16-5.2-19.1-3.1
		c-3.1,2.1-12.1,2.6-15.5,2.1c-3.4-0.5-13-3.6-13-3.6S230.6,178.5,223.8,184.4z"/>
	<path class="st2" d="M223.8,184.4l-0.3-0.4l0,0c-0.4,0.3-4.3,2.8-11.7,3.1c-0.2,0-0.4,0-0.6,0c-3.5,0-5.3-1.2-7.6-2.6
		c-2.3-1.4-4.9-2.8-9.8-2.8l-0.1,0h0c-1.6,0-3.3,0.7-4.9,1.7c-2.8,1.9-5.6,5.1-8.2,8.8c-7.9,11.3-14.3,27.5-14.3,27.5
		c-0.1,0.2,0,0.4,0.1,0.6c0,0,7.5,7.3,14.9,10.5c7.4,3.1,12.7,3.8,12.8,3.8l0.1-0.5l-0.5,0l1.1,24.8c0,0.3,0.3,0.5,0.5,0.5h80.3
		c0.3,0,0.5-0.2,0.5-0.5l1-24.5l24.9-16.2c0.2-0.2,0.3-0.5,0.2-0.7c0,0-3.1-5.5-6.9-12.1c-3.8-6.5-8.4-14.1-11.4-18.3
		c-3.1-4.3-7.3-5.7-11.1-5.6c-3.8,0-7.1,1.3-8.8,2.4c-1,0.7-3.1,1.3-5.3,1.7c-2.3,0.4-4.7,0.5-6.8,0.5c-1.2,0-2.3-0.1-3.1-0.2
		c-1.6-0.2-4.9-1.1-7.7-1.9c-1.4-0.4-2.7-0.8-3.6-1.1c-0.9-0.3-1.5-0.5-1.5-0.5l-0.2,0.5l0.3-0.4c-0.1,0-2-1.7-5.2-1.7
		c-2.1,0-4.7,0.8-7.5,3.2L223.8,184.4l-0.3-0.4L223.8,184.4l0.4,0.4c2.6-2.3,5-2.9,6.8-2.9c1.4,0,2.5,0.4,3.3,0.7
		c0.4,0.2,0.7,0.4,0.9,0.5c0.1,0.1,0.2,0.1,0.2,0.2l0.1,0l0,0l0.2,0.1c0,0,2.4,0.8,5.2,1.6c2.8,0.8,6.1,1.7,7.8,2
		c0.8,0.1,1.9,0.2,3.2,0.2c2.1,0,4.6-0.2,7-0.5c2.3-0.4,4.4-0.9,5.8-1.8c1.4-1,4.6-2.3,8.2-2.3c3.5,0,7.3,1.2,10.2,5.2
		c3,4.1,7.5,11.7,11.4,18.2c1.9,3.3,3.6,6.3,4.9,8.5c1.2,2.2,2,3.6,2,3.6l0.5-0.3l-0.3-0.5l-25.1,16.4c-0.1,0.1-0.2,0.3-0.2,0.4
		l-1,24.3h-79.3l-1.1-24.3c0-0.3-0.2-0.5-0.5-0.5c0,0-0.1,0-0.2,0c-1.1-0.2-5.9-1-12.3-3.7c-3.6-1.5-7.2-4.1-10-6.3
		c-1.4-1.1-2.5-2.1-3.3-2.8c-0.4-0.4-0.7-0.7-0.9-0.9c-0.2-0.2-0.3-0.3-0.3-0.3l-0.4,0.4l0.5,0.2c0,0,0.2-0.6,0.7-1.6
		c1.5-3.6,5.4-12.6,10.3-20.7c2.4-4,5.1-7.9,7.7-10.6c1.3-1.4,2.7-2.5,4-3.3c1.3-0.8,2.5-1.2,3.7-1.2h0l0.1,0c4.6,0,7,1.3,9.2,2.6
		c2.2,1.3,4.4,2.8,8.2,2.8c0.2,0,0.4,0,0.7,0c8.1-0.3,12.2-3.3,12.3-3.3l0,0L223.8,184.4z"/>
	<path class="st2" d="M194.7,193.1l-0.3,41.1c0,0.1,0.1,0.3,0.3,0.3c0.1,0,0.3-0.1,0.3-0.3l0.3-41.1c0-0.1-0.1-0.3-0.3-0.3
		C194.8,192.8,194.7,193,194.7,193.1"/>
	<path class="st2" d="M197.6,196.8c0,0,1.1,20.1,5.4,31.3c0.1,0.1,0.2,0.2,0.3,0.2c0.1-0.1,0.2-0.2,0.2-0.3
		c-2.1-5.5-3.4-13.4-4.2-19.8c-0.4-3.2-0.7-6.1-0.8-8.1c-0.2-2.1-0.2-3.3-0.2-3.3c0-0.1-0.1-0.3-0.3-0.3
		C197.7,196.6,197.6,196.7,197.6,196.8z"/>
	<path class="st2" d="M203.8,229.8c0,0,0.5,1.5,1.2,3.2c0.7,1.7,1.5,3.7,2.2,4.7c0.1,0.1,0.3,0.2,0.4,0.1c0.1-0.1,0.2-0.3,0.1-0.4
		c-0.6-0.9-1.5-2.9-2.2-4.6c-0.3-0.9-0.6-1.7-0.9-2.3c-0.2-0.6-0.3-1-0.3-1c0-0.1-0.2-0.2-0.3-0.2
		C203.8,229.5,203.7,229.7,203.8,229.8L203.8,229.8z"/>
	<path class="st2" d="M200.2,194.6c0,0,2.4,12,6.5,21.4c0.1,0.1,0.2,0.2,0.4,0.1s0.2-0.2,0.1-0.4c-2-4.7-3.6-10-4.7-14.2
		c-0.6-2.1-1-3.9-1.3-5.1c-0.3-1.3-0.4-2-0.4-2c0-0.1-0.2-0.2-0.3-0.2C200.3,194.3,200.2,194.5,200.2,194.6z"/>
	<path class="st2" d="M270,198.1c0,0-0.2,1-0.7,2.6c-1.2,4.8-4.1,15.1-6.6,20.4c-0.1,0.1,0,0.3,0.1,0.4c0.1,0.1,0.3,0,0.4-0.1
		c3.4-7.2,7.3-23,7.3-23.1c0-0.1-0.1-0.3-0.2-0.3C270.2,197.8,270.1,197.9,270,198.1z"/>
	<path class="st2" d="M276.9,234.1l-0.2-32.1c0-0.1-0.1-0.3-0.3-0.3c-0.1,0-0.3,0.1-0.3,0.3l0.2,32.1c0,0.1,0.1,0.3,0.3,0.3
		C276.8,234.4,276.9,234.2,276.9,234.1"/>
	<path class="st2" d="M274.6,202.6c0,0,0,0.3-0.1,0.9c-0.6,4-3.7,20.7-9.9,29.9c-0.1,0.1,0,0.3,0.1,0.4s0.3,0,0.4-0.1
		c7.2-10.8,10.1-31,10.1-31c0-0.1-0.1-0.3-0.2-0.3C274.7,202.4,274.6,202.5,274.6,202.6z"/>
	<path class="st2" d="M271,229.4c0,0-0.2,0.4-0.5,1c-1,1.9-3.3,5.9-4.9,8.4c-0.1,0.1-0.1,0.3,0.1,0.4s0.3,0.1,0.4-0.1
		c2.3-3.3,5.5-9.4,5.5-9.4c0.1-0.1,0-0.3-0.1-0.4C271.3,229.2,271.1,229.3,271,229.4z"/>
	<path class="st2" d="M219,186.8c0,0,2.3,13.9,5.5,21.1c2.4,5.2,6.1,7.5,9.9,7.5c1.4,0,2.8-0.3,4.2-0.9c2.4-1.1,4.5-4,6-8.3
		c1.5-4.2,2.3-9.8,2.3-16.1c0-0.6,0-1.1,0-1.7c0-0.1-0.1-0.3-0.3-0.3c-0.1,0-0.3,0.1-0.3,0.3c0,0.6,0,1.1,0,1.7
		c0,6.2-0.9,11.7-2.3,15.9c-1.4,4.2-3.5,7-5.7,8c-1.3,0.6-2.7,0.9-4,0.9c-3.6,0-7.1-2.1-9.4-7.2c-1.6-3.5-3-8.8-4-13.1
		c-0.5-2.2-0.9-4.1-1.1-5.6c-0.3-1.4-0.4-2.3-0.4-2.3c0-0.1-0.2-0.2-0.3-0.2S219,186.7,219,186.8z"/>
	<path class="st3" d="M207.8,157.6c0,0-3.1-5.3-5.5-2.6c-2.4,2.8,1.9,9.1,4.4,11.2c2.4,2.1,4.2,0.8,4-1.5
		C210.5,162.5,207.8,157.6,207.8,157.6"/>
	<path class="st2" d="M207.8,157.6l0.5-0.3c0,0-0.5-0.9-1.3-1.8c-0.4-0.4-0.8-0.9-1.4-1.3c-0.5-0.4-1.1-0.6-1.8-0.6
		c-0.7,0-1.4,0.3-1.9,1c-0.6,0.7-0.9,1.6-0.8,2.4c0,1.7,0.8,3.6,1.9,5.4c1.1,1.7,2.3,3.2,3.4,4.1c0.9,0.8,1.8,1.2,2.6,1.2
		c0.7,0,1.3-0.3,1.7-0.8c0.4-0.5,0.6-1.2,0.6-1.9c0-0.1,0-0.2,0-0.3c0-0.7-0.3-1.4-0.6-2.2c-0.9-2.4-2.4-5.1-2.4-5.1l0,0
		L207.8,157.6l-0.5,0.3c0,0,0.2,0.3,0.4,0.8c0.4,0.7,1,1.9,1.5,3c0.5,1.2,0.9,2.4,1,3.1l0,0.2c0,0.6-0.1,1-0.4,1.3
		c-0.2,0.3-0.5,0.4-0.9,0.4c-0.5,0-1.1-0.2-1.9-0.9c-0.9-0.8-2.2-2.3-3.2-3.9c-1-1.6-1.7-3.4-1.7-4.8c0-0.7,0.2-1.3,0.6-1.7
		c0.4-0.5,0.8-0.6,1.1-0.6c0.3,0,0.8,0.2,1.2,0.4c0.6,0.4,1.2,1.1,1.6,1.7c0.2,0.3,0.4,0.5,0.5,0.7l0.1,0.2l0,0.1l0,0L207.8,157.6"
		/>
	<path class="st6" d="M203.8,154.8L203.8,154.8c-0.4,0-0.7,0.1-1.1,0.6c-0.4,0.5-0.6,1-0.6,1.7v0c0,1.4,0.7,3.2,1.7,4.8
		c1,1.6,2.3,3.1,3.2,3.9c0.8,0.7,1.5,0.9,1.9,0.9h0c0.4,0,0.7-0.1,0.9-0.4c0.2-0.2,0.3-0.5,0.3-1c-1.4-3.5-2-5.9-2-5.9l0,0
		c-0.1-0.3-0.3-0.5-0.4-0.7c-0.2-0.5-0.4-0.8-0.4-0.8l0-0.1l-0.1-0.2c-0.1-0.2-0.3-0.4-0.5-0.7c-0.4-0.6-1-1.2-1.6-1.7
		C204.6,155,204.2,154.8,203.8,154.8"/>
	<path class="st2" d="M207.8,157.6l0.5-0.3c0,0-0.5-0.9-1.3-1.8c-0.4-0.4-0.8-0.9-1.4-1.3c-0.5-0.4-1.1-0.6-1.8-0.6
		c-0.7,0-1.4,0.3-1.9,1c-0.6,0.7-0.9,1.6-0.8,2.4c0,1.7,0.8,3.6,1.9,5.4c1.1,1.7,2.3,3.2,3.4,4.1c0.9,0.8,1.8,1.2,2.6,1.2
		c0.7,0,1.3-0.3,1.7-0.8c0.4-0.5,0.6-1.2,0.6-1.9c0-0.1,0-0.2,0-0.3c0-0.7-0.3-1.4-0.6-2.2c-0.9-2.4-2.4-5.1-2.4-5.1l0,0
		L207.8,157.6l-0.5,0.3c0,0,0.2,0.3,0.4,0.8c0.4,0.7,1,1.9,1.5,3c0.5,1.2,0.9,2.4,1,3.1l0,0.2c0,0.6-0.1,1-0.4,1.3
		c-0.2,0.3-0.5,0.4-0.9,0.4c-0.5,0-1.1-0.2-1.9-0.9c-0.9-0.8-2.2-2.3-3.2-3.9c-1-1.6-1.7-3.4-1.7-4.8c0-0.7,0.2-1.3,0.6-1.7
		c0.4-0.5,0.8-0.6,1.1-0.6c0.3,0,0.8,0.2,1.2,0.4c0.6,0.4,1.2,1.1,1.6,1.7c0.2,0.3,0.4,0.5,0.5,0.7l0.1,0.2l0,0.1l0,0L207.8,157.6"
		/>
	<path class="st3" d="M256.8,157.6c0,0,3.1-5.3,5.5-2.6c2.4,2.8-1.9,9.1-4.4,11.2c-2.4,2.1-4.2,0.8-4-1.5
		C254,162.5,256.8,157.6,256.8,157.6"/>
	<path class="st2" d="M256.8,157.6l0.5,0.3l0,0c0.1-0.2,0.6-1,1.3-1.7c0.3-0.4,0.7-0.7,1.1-1c0.4-0.3,0.8-0.4,1.1-0.4
		c0.4,0,0.7,0.1,1.1,0.6c0.4,0.5,0.6,1,0.6,1.7c0,1.4-0.7,3.2-1.7,4.8c-1,1.6-2.3,3.1-3.2,3.9c-0.8,0.7-1.5,0.9-1.9,0.9
		c-0.4,0-0.7-0.1-0.9-0.4c-0.2-0.3-0.4-0.7-0.4-1.3l0-0.2c0-0.5,0.2-1.2,0.5-1.9c0.4-1.1,1-2.4,1.5-3.3c0.2-0.5,0.5-0.9,0.6-1.2
		c0.2-0.3,0.3-0.5,0.3-0.5l0,0L256.8,157.6l-0.5-0.3c0,0-0.7,1.2-1.4,2.7c-0.4,0.8-0.7,1.6-1,2.4c-0.3,0.8-0.5,1.6-0.6,2.2
		c0,0.1,0,0.2,0,0.3c0,0.8,0.2,1.4,0.6,1.9c0.4,0.5,1,0.8,1.7,0.8c0.8,0,1.7-0.4,2.6-1.2c1-0.9,2.3-2.4,3.4-4.1
		c1.1-1.7,1.9-3.6,1.9-5.4c0-0.9-0.2-1.8-0.8-2.4c-0.6-0.7-1.3-1-1.9-1c-0.7,0-1.3,0.3-1.8,0.6c-1.5,1.1-2.6,3-2.7,3l0,0
		L256.8,157.6"/>
	<path class="st6" d="M260.8,154.8c-0.3,0-0.7,0.1-1.1,0.4c-0.4,0.2-0.8,0.6-1.1,1c-0.7,0.7-1.2,1.6-1.3,1.7l0,0
		c0,0-0.1,0.2-0.3,0.5c-0.1,0.2-0.2,0.3-0.3,0.5c-0.4,1.9-1.1,4.4-2.1,7.2l0.1,0.2c0.2,0.3,0.5,0.4,0.9,0.4h0c0.5,0,1.1-0.2,1.9-0.9
		c0.9-0.8,2.2-2.3,3.2-3.9c1-1.6,1.7-3.4,1.7-4.8v0c0-0.7-0.2-1.3-0.6-1.7C261.5,154.9,261.1,154.8,260.8,154.8L260.8,154.8"/>
	<path class="st2" d="M256.8,157.6l0.5,0.3l0,0c0.1-0.2,0.6-1,1.3-1.7c0.3-0.4,0.7-0.7,1.1-1c0.4-0.3,0.8-0.4,1.1-0.4
		c0.4,0,0.7,0.1,1.1,0.6c0.4,0.5,0.6,1,0.6,1.7c0,1.4-0.7,3.2-1.7,4.8c-1,1.6-2.3,3.1-3.2,3.9c-0.8,0.7-1.5,0.9-1.9,0.9
		c-0.4,0-0.7-0.1-0.9-0.4c-0.2-0.3-0.4-0.7-0.4-1.3l0-0.2c0-0.5,0.2-1.2,0.5-1.9c0.4-1.1,1-2.4,1.5-3.3c0.2-0.5,0.5-0.9,0.6-1.2
		c0.2-0.3,0.3-0.5,0.3-0.5l0,0L256.8,157.6l-0.5-0.3c0,0-0.7,1.2-1.4,2.7c-0.4,0.8-0.7,1.6-1,2.4c-0.3,0.8-0.5,1.6-0.6,2.2
		c0,0.1,0,0.2,0,0.3c0,0.8,0.2,1.4,0.6,1.9c0.4,0.5,1,0.8,1.7,0.8c0.8,0,1.7-0.4,2.6-1.2c1-0.9,2.3-2.4,3.4-4.1
		c1.1-1.7,1.9-3.6,1.9-5.4c0-0.9-0.2-1.8-0.8-2.4c-0.6-0.7-1.3-1-1.9-1c-0.7,0-1.3,0.3-1.8,0.6c-1.5,1.1-2.6,3-2.7,3l0,0
		L256.8,157.6"/>
	<path class="st1" d="M222.4,183.2c0,0,2.9,13.1,5.8,20.4c2.9,7.3,8.4,7.3,10.7,2.6s3.7-22.2,3.7-22.2S227.4,186.1,222.4,183.2z"/>
	<path class="st2" d="M222.4,183.2l-0.5,0.1c0,0,2.9,13.1,5.9,20.5c0.8,2.1,1.9,3.6,3,4.6c1.2,1,2.4,1.5,3.7,1.5
		c2,0,3.9-1.3,4.9-3.6c0.6-1.3,1.1-3.3,1.6-5.6c1.4-7,2.2-16.8,2.2-16.8c0-0.2,0-0.3-0.2-0.4c-0.1-0.1-0.3-0.2-0.4-0.1
		c0,0-0.3,0-0.9,0.1c-1.7,0.2-5.7,0.6-9.7,0.6c-1.8,0-3.7-0.1-5.3-0.3c-1.6-0.2-3-0.6-3.9-1.2c-0.2-0.1-0.4-0.1-0.6,0
		c-0.2,0.1-0.3,0.3-0.2,0.6L222.4,183.2l-0.3,0.5c1.1,0.7,2.6,1,4.3,1.3c1.7,0.2,3.6,0.3,5.5,0.3c5.4,0,10.8-0.7,10.8-0.7l-0.1-0.5
		l-0.5,0c0,0-0.1,1.1-0.3,2.8c-0.3,2.6-0.7,6.5-1.3,10.3c-0.3,1.9-0.6,3.7-1,5.3c-0.4,1.6-0.8,2.9-1.1,3.7c-1,2-2.4,2.9-4,2.9
		c-1,0-2-0.4-3-1.3c-1-0.9-2-2.3-2.8-4.2c-1.4-3.6-2.9-8.7-4-12.9c-0.5-2.1-1-4-1.3-5.3c-0.3-1.3-0.5-2.2-0.5-2.2L222.4,183.2
		l-0.3,0.5L222.4,183.2z"/>
	<path class="st1" d="M208.1,159.4c0,0,4.2,14.9,12.1,23.6c7.9,8.7,10.9,10.9,15.1,10.2c4.2-0.6,8.7-6.2,15.1-17.7
		c6.3-11.5,6.8-20.2,7.3-21.1c0.5-0.8-1.3-17-10.4-24c-9.1-7-19.1-10-27.9-2.4C210.7,135.8,205.2,148.2,208.1,159.4"/>
	<g>
		<defs>
			<path id="SVGID_5_" d="M208.1,159.4c0,0,4.2,14.9,12.1,23.6c7.9,8.7,10.9,10.9,15.1,10.2c4.2-0.6,8.7-6.2,15.1-17.7
				c6.3-11.5,6.8-20.2,7.3-21.1c0.5-0.8-1.3-17-10.4-24c-9.1-7-19.1-10-27.9-2.4C210.7,135.8,205.2,148.2,208.1,159.4"/>
		</defs>
		<clipPath id="SVGID_6_">
			<use xlink:href="#SVGID_5_"  style="overflow:visible;"/>
		</clipPath>
		<path class="st7" d="M230.7,123.7c-3.9,0-7.7,1.3-11.2,4.4c-7.1,6.2-12.1,15.7-12.1,25c0,2.1,0.3,4.2,0.8,6.2l0,0v0
			c0,0.1,0.8,2.9,2.4,6.8c0-0.5,0.1-1,0.2-1.5c1.6-5,5.7-14,17.8-14c2.6,0,5.6,0.4,9,1.4c15.3,4.3,13.4,17.7,12,24.9
			c0.3-0.5,0.5-0.9,0.8-1.4l0,0c6.3-11.5,6.8-20.2,7.3-21.1c0-0.1,0.1-0.3,0.1-0.6c0-3.2-2.2-17-10.4-23.3
			C241.9,126.5,236.2,123.7,230.7,123.7"/>
	</g>
	<path class="st2" d="M208.1,159.4l-0.5,0.1c0,0,1.1,3.8,3.1,8.6c2.1,4.8,5.1,10.8,9.1,15.3c3.5,3.9,6.1,6.5,8.2,8.1
		c2.1,1.6,4,2.4,5.9,2.3c0.5,0,0.9,0,1.4-0.1c2.3-0.4,4.6-2,7.1-4.9c2.5-2.9,5.2-7.2,8.4-13c3.2-5.8,4.9-10.9,5.9-14.7
		c0.5-1.9,0.8-3.4,1-4.5c0.1-0.6,0.2-1,0.3-1.3c0-0.2,0.1-0.3,0.1-0.4l0-0.1l0,0l-0.1,0l0.1,0l0,0l-0.1,0l0.1,0
		c0.1-0.2,0.1-0.3,0.1-0.4c0-0.1,0-0.3,0-0.5c0-1.7-0.6-6-2.2-10.7c-1.6-4.7-4.2-9.8-8.5-13.1c-5.4-4.2-11.2-7-17-7
		c-4,0-7.9,1.4-11.6,4.6c-7.2,6.3-12.3,15.9-12.3,25.4c0,2.1,0.3,4.3,0.8,6.4l0,0L208.1,159.4l0.5-0.1c-0.5-2-0.8-4.1-0.8-6.1
		c0-9.2,4.9-18.5,11.9-24.6c3.5-3,7.1-4.3,10.9-4.3c5.4,0,11,2.7,16.3,6.8c4,3,6.5,8,8.1,12.6c1.6,4.6,2.1,8.8,2.1,10.3
		c0,0.2,0,0.3,0,0.4l0,0.1l0.1,0l-0.1,0l0,0l0.1,0l-0.1,0l0.3,0.1l-0.3-0.2l0,0.1l0.3,0.1l-0.3-0.2c-0.1,0.1-0.1,0.2-0.1,0.4
		c-0.1,0.5-0.3,1.3-0.5,2.5c-0.7,3.5-2.2,10.2-6.6,18.2c-3.1,5.7-5.9,10-8.3,12.8c-2.4,2.9-4.5,4.3-6.4,4.6
		c-0.4,0.1-0.9,0.1-1.3,0.1c-1.6,0-3.2-0.6-5.2-2.1c-2-1.6-4.6-4.1-8.1-8c-3.9-4.3-6.9-10.2-9-15c-1-2.4-1.8-4.5-2.3-6
		c-0.3-0.8-0.5-1.4-0.6-1.8s-0.2-0.6-0.2-0.6L208.1,159.4l0.5-0.1L208.1,159.4z"/>
	<path class="st2" d="M234.8,167.1c0,0-0.8,5.4-0.8,8.8c0,0.3,0,0.6,0,0.8c0,1,0.2,1.8,0.3,2.4c0.1,0.6,0.2,1.1,0.2,1.3
		c0,0.2,0,0.2,0,0.2c0,0-0.1,0.1-0.3,0.1l-0.2,0c-0.4,0-1.1-0.4-1.5-0.8c-0.2-0.2-0.4-0.5-0.6-0.6l-0.2-0.2l0-0.1l0,0
		c-0.2-0.2-0.5-0.3-0.8-0.1s-0.3,0.5-0.1,0.8c0,0,0.4,0.5,0.9,1.1c0.6,0.5,1.3,1.1,2.3,1.1c0.1,0,0.3,0,0.4,0
		c0.4-0.1,0.7-0.2,0.9-0.5c0.2-0.3,0.3-0.6,0.3-0.9c0-0.4-0.1-0.9-0.2-1.5c-0.1-0.6-0.2-1.3-0.3-2.2c0-0.2,0-0.5,0-0.8
		c0-1.6,0.2-3.8,0.4-5.6c0.1-0.9,0.2-1.7,0.3-2.2s0.1-0.9,0.1-0.9c0-0.3-0.2-0.6-0.5-0.6S234.8,166.8,234.8,167.1z"/>
	<path class="st2" d="M218.8,170.2c0,0,1.6,1.2,3.8,1.2c1,0,2.2-0.3,3.3-1.1c0.2-0.2,0.3-0.5,0.1-0.8c-0.2-0.2-0.5-0.3-0.8-0.1
		c-0.9,0.7-1.8,0.9-2.7,0.9c-0.9,0-1.7-0.3-2.3-0.5c-0.3-0.1-0.5-0.3-0.7-0.4l-0.2-0.1l0,0l0,0c-0.2-0.2-0.6-0.1-0.8,0.1
		S218.5,170,218.8,170.2z"/>
	<path class="st2" d="M239.4,170.2c0,0,1.6,1.2,3.8,1.2c1,0,2.2-0.3,3.3-1.1c0.2-0.2,0.3-0.5,0.1-0.8c-0.2-0.2-0.5-0.3-0.8-0.1
		c-0.9,0.7-1.8,0.9-2.7,0.9c-0.9,0-1.7-0.3-2.3-0.5c-0.3-0.1-0.5-0.3-0.7-0.4l-0.2-0.1l0,0l0,0c-0.2-0.2-0.6-0.1-0.8,0.1
		C239.1,169.7,239.1,170,239.4,170.2z"/>
	<path class="st2" d="M229.9,164.1c0,0-0.6-1.4-1.9-2.7c-1.4-1.3-3.6-2.7-6.8-2.7c-1.5,0-3.3,0.3-5.2,1c-0.3,0.1-0.4,0.4-0.3,0.7
		s0.4,0.4,0.7,0.3c1.9-0.7,3.5-0.9,4.9-0.9c2.9,0,4.8,1.2,6.1,2.3c0.6,0.6,1,1.2,1.3,1.6c0.1,0.2,0.2,0.4,0.3,0.5l0.1,0.1l0,0l0,0
		c0.1,0.3,0.4,0.4,0.7,0.3S230.1,164.4,229.9,164.1z"/>
	<path class="st2" d="M238.4,163.6L238.4,163.6c0-0.1,0.4-1.1,1.4-2.1c0.9-1,2.4-1.9,4.6-2c1.4,0,3,0.4,5.1,1.3
		c0.3,0.1,0.6,0,0.7-0.3c0.1-0.3,0-0.6-0.3-0.7c-2.2-1-4-1.4-5.5-1.4c-2.7,0-4.4,1.2-5.5,2.4c-1.1,1.2-1.5,2.4-1.5,2.4
		c-0.1,0.3,0.1,0.6,0.3,0.7S238.3,163.9,238.4,163.6z"/>
	<path class="st2" d="M231.4,170.3h-0.5c0,1.9-1.1,3.6-2.9,4.9c-1.8,1.3-4.4,2.1-7.2,2.1c-2.8,0-5.4-0.8-7.2-2.1
		c-1.8-1.3-2.9-3-2.9-4.9c0-0.9,0.2-1.7,0.7-2.4c0.7-1,1.8-1.7,3.4-2.2c1.6-0.5,3.5-0.7,5.7-0.7c2.9,0,5.6,0.4,7.5,1.3
		c1,0.5,1.7,1,2.2,1.7c0.5,0.7,0.8,1.4,0.8,2.4H231.4h0.5c0-1.2-0.4-2.2-1-3c-1-1.3-2.5-2.1-4.3-2.6c-1.8-0.5-4-0.8-6.2-0.8
		c-3,0-5.7,0.4-7.6,1.5c-1,0.5-1.8,1.2-2.4,2c-0.6,0.8-0.9,1.8-0.9,3c0,2.3,1.3,4.3,3.4,5.8c2,1.4,4.8,2.3,7.9,2.3
		c3.1,0,5.8-0.9,7.9-2.3c2-1.4,3.4-3.5,3.4-5.8H231.4z"/>
	<path class="st2" d="M256,170.3h-0.5c0,1.9-1.1,3.6-2.9,4.9c-1.8,1.3-4.4,2.1-7.2,2.1c-2.8,0-5.4-0.8-7.2-2.1
		c-1.8-1.3-2.9-3-2.9-4.9c0-0.9,0.2-1.7,0.7-2.4c0.7-1,1.8-1.7,3.4-2.2c1.6-0.5,3.5-0.7,5.7-0.7c2.9,0,5.6,0.4,7.5,1.3
		c1,0.5,1.7,1,2.2,1.7c0.5,0.7,0.8,1.4,0.8,2.4H256h0.5c0-1.2-0.4-2.2-1-3c-1-1.3-2.5-2.1-4.3-2.6c-1.8-0.5-4-0.8-6.2-0.8
		c-3,0-5.7,0.4-7.6,1.5c-1,0.5-1.8,1.2-2.4,2c-0.6,0.8-0.9,1.8-0.9,3c0,2.3,1.3,4.3,3.4,5.8c2,1.4,4.8,2.3,7.9,2.3
		c3.1,0,5.8-0.9,7.9-2.3c2-1.4,3.4-3.5,3.4-5.8H256z"/>
	<path class="st1" d="M119.5,300.2l-0.7,164.1c0,1.1,0.9,2,1.9,2c1,0,1.9-0.8,1.9-1.9l4.7-164L119.5,300.2"/>
	<path class="st2" d="M119.5,300.2l-0.5,0l-0.7,164.1v0v0c0,1.4,1.1,2.5,2.5,2.5c1.3,0,2.4-1.1,2.5-2.4v0l4.7-164
		c0-0.3-0.2-0.5-0.5-0.6l-7.9-0.2c-0.1,0-0.3,0.1-0.4,0.2s-0.2,0.2-0.2,0.4L119.5,300.2l0,0.5l7.4,0.2l-4.7,163.4v0
		c0,0.8-0.6,1.4-1.4,1.4c-0.8,0-1.4-0.6-1.4-1.4v0v0l0.7-164.1L119.5,300.2l0,0.5L119.5,300.2"/>
	<path class="st1" d="M108.5,338.6l-0.7,169.7c0,1.1,0.9,2,1.9,2c1,0,1.9-0.8,1.9-1.9l4.7-169.5L108.5,338.6z"/>
	<path class="st2" d="M108.5,338.6l-0.5,0l-0.7,169.7v0v0c0,1.4,1.1,2.5,2.5,2.5c1.3,0,2.4-1.1,2.5-2.4v0l4.7-169.5
		c0-0.3-0.2-0.5-0.5-0.6l-7.9-0.2c-0.1,0-0.3,0-0.4,0.2c-0.1,0.1-0.2,0.2-0.2,0.4L108.5,338.6l0,0.5l7.4,0.2l-4.7,169v0
		c0,0.8-0.6,1.4-1.4,1.4c-0.8,0-1.4-0.6-1.4-1.4v0v0l0.7-169.7L108.5,338.6l0,0.5L108.5,338.6z"/>
	<path class="st1" d="M346.4,300.2l0.7,164.1c0,1.1-0.9,2-1.9,2c-1,0-1.9-0.8-1.9-1.9l-4.7-164L346.4,300.2"/>
	<path class="st2" d="M346.4,300.2l-0.5,0l0.7,164.1v0v0c0,0.8-0.6,1.4-1.4,1.4c-0.8,0-1.4-0.6-1.4-1.4v0L339.1,301l7.4-0.2
		L346.4,300.2l-0.5,0L346.4,300.2l0-0.5l-7.9,0.2c-0.3,0-0.5,0.3-0.5,0.6l4.7,164v0c0,1.3,1.1,2.4,2.5,2.4c1.4,0,2.5-1.1,2.5-2.5v0
		v0L347,300.2c0-0.1-0.1-0.3-0.2-0.4s-0.2-0.2-0.4-0.2L346.4,300.2"/>
	<path class="st1" d="M357.5,338.6l0.7,169.7c0,1.1-0.9,2-1.9,2c-1,0-1.9-0.8-1.9-1.9l-4.7-169.5L357.5,338.6z"/>
	<path class="st2" d="M357.5,338.6l-0.5,0l0.7,169.7v0v0c0,0.8-0.6,1.4-1.4,1.4c-0.8,0-1.4-0.6-1.4-1.4l0,0l-4.7-169l7.4-0.2
		L357.5,338.6l-0.5,0L357.5,338.6l0-0.5l-7.9,0.2c-0.3,0-0.5,0.3-0.5,0.6l4.7,169.5l0,0c0,1.3,1.1,2.4,2.5,2.4
		c1.4,0,2.5-1.1,2.5-2.5v0v0L358,338.6c0-0.1-0.1-0.3-0.2-0.4s-0.2-0.2-0.4-0.2L357.5,338.6z"/>
	<path class="st1" d="M185.4,345.6L185,496.2c0,0.9,0.6,1.6,1.2,1.6c0.7,0,1.2-0.7,1.2-1.5l3-150.5L185.4,345.6z"/>
	<path class="st2" d="M185.4,345.6l-0.5,0l-0.4,150.6v0v0c0,0.6,0.2,1.1,0.5,1.5c0.3,0.4,0.8,0.7,1.3,0.7c0.5,0,1-0.3,1.3-0.7
		c0.3-0.4,0.5-0.9,0.5-1.4v0l3-150.5c0-0.3-0.2-0.5-0.5-0.6l-5-0.2c-0.1,0-0.3,0-0.4,0.2c-0.1,0.1-0.2,0.2-0.2,0.4L185.4,345.6
		l0,0.5l4.5,0.2l-3,149.9l0,0c0,0.3-0.1,0.6-0.3,0.8c-0.1,0.2-0.3,0.2-0.4,0.2c-0.1,0-0.3-0.1-0.4-0.3c-0.1-0.2-0.3-0.5-0.2-0.8v0v0
		l0.4-150.6L185.4,345.6l0,0.5L185.4,345.6z"/>
	<path class="st1" d="M280.7,340.8l0.4,131.4c0,0.7-0.5,1.4-1,1.4c-0.6,0-1-0.6-1-1.3l-2.5-131.3L280.7,340.8z"/>
	<path class="st2" d="M280.7,340.8l-0.5,0l0.4,131.4v0v0c0,0.3-0.1,0.5-0.2,0.6c-0.1,0.1-0.2,0.2-0.3,0.2c-0.1,0-0.2,0-0.3-0.2
		c-0.1-0.1-0.2-0.3-0.2-0.6v0L277,341.5l3.7-0.1L280.7,340.8l-0.5,0L280.7,340.8l0-0.5l-4.2,0.2c-0.3,0-0.5,0.3-0.5,0.6l2.5,131.3v0
		c0,0.5,0.2,0.9,0.4,1.3c0.3,0.3,0.7,0.6,1.1,0.6c0.5,0,0.9-0.3,1.2-0.6c0.3-0.4,0.4-0.8,0.4-1.3v0v0l-0.4-131.4
		c0-0.1-0.1-0.3-0.2-0.4c-0.1-0.1-0.2-0.2-0.4-0.2L280.7,340.8z"/>
	<path class="st1" d="M183.9,340.8l0.4,131.4c0,0.7-0.5,1.4-1,1.4c-0.6,0-1-0.6-1-1.3l-2.5-131.3L183.9,340.8z"/>
	<path class="st2" d="M183.9,340.8l-0.5,0l0.4,131.4v0v0c0,0.3-0.1,0.5-0.2,0.6c-0.1,0.1-0.2,0.2-0.3,0.2c-0.1,0-0.2,0-0.3-0.2
		c-0.1-0.1-0.2-0.3-0.2-0.6v0l-2.5-130.8l3.7-0.1L183.9,340.8l-0.5,0L183.9,340.8l0-0.5l-4.2,0.2c-0.3,0-0.5,0.3-0.5,0.6l2.5,131.3
		v0c0,0.5,0.2,0.9,0.4,1.3c0.3,0.3,0.7,0.6,1.1,0.6c0.5,0,0.9-0.3,1.2-0.6c0.3-0.4,0.4-0.8,0.4-1.3v0v0l-0.4-131.4
		c0-0.1-0.1-0.3-0.2-0.4c-0.1-0.1-0.2-0.2-0.4-0.2L183.9,340.8z"/>
	<path class="st1" d="M278,345.6l0.4,150.6c0,0.9-0.6,1.6-1.2,1.6c-0.7,0-1.2-0.7-1.2-1.5l-3-150.5L278,345.6z"/>
	<path class="st2" d="M278,345.6l-0.5,0l0.4,150.6v0v0c0,0.3-0.1,0.6-0.2,0.8c-0.1,0.2-0.3,0.3-0.4,0.3c-0.1,0-0.3-0.1-0.4-0.2
		c-0.1-0.2-0.3-0.5-0.3-0.8v0l-3-149.9l4.5-0.2L278,345.6l-0.5,0L278,345.6l0-0.5l-5,0.2c-0.3,0-0.5,0.3-0.5,0.6l3,150.5v0
		c0,0.5,0.2,1,0.5,1.4c0.3,0.4,0.8,0.7,1.3,0.7c0.5,0,1-0.3,1.3-0.7c0.3-0.4,0.5-0.9,0.5-1.5v0v0l-0.4-150.6c0-0.1-0.1-0.3-0.2-0.4
		c-0.1-0.1-0.2-0.2-0.4-0.2L278,345.6z"/>
	<ellipse class="st1" cx="231" cy="342.4" rx="60.2" ry="13.8"/>
	<path class="st2" d="M291.3,342.4h-0.5c0,0.8-0.3,1.6-1.1,2.4c-1.3,1.5-3.8,2.9-7.3,4.2c-10.4,3.9-29.5,6.6-51.3,6.6
		c-16.6,0-31.6-1.5-42.5-4c-5.4-1.2-9.8-2.7-12.8-4.3c-1.5-0.8-2.6-1.6-3.4-2.5c-0.7-0.8-1.1-1.6-1.1-2.4c0-0.8,0.3-1.6,1.1-2.4
		c1.3-1.5,3.8-2.9,7.3-4.2c10.4-3.9,29.5-6.6,51.3-6.6c16.6,0,31.6,1.5,42.5,4c5.4,1.2,9.8,2.7,12.8,4.3c1.5,0.8,2.6,1.6,3.4,2.5
		c0.7,0.8,1.1,1.6,1.1,2.4H291.3h0.5c0-1.1-0.5-2.2-1.4-3.1c-1.5-1.7-4.1-3.2-7.7-4.5c-10.7-4-29.8-6.7-51.7-6.7
		c-16.7,0-31.8,1.5-42.7,4c-5.5,1.3-9.9,2.7-13,4.4c-1.6,0.8-2.8,1.7-3.7,2.7c-0.9,1-1.4,2-1.4,3.1c0,1.1,0.5,2.2,1.4,3.1
		c1.5,1.7,4.1,3.2,7.7,4.5c10.7,4,29.8,6.7,51.7,6.7c16.7,0,31.8-1.5,42.7-4c5.5-1.3,9.9-2.7,13-4.4c1.6-0.8,2.8-1.7,3.7-2.7
		c0.9-1,1.4-2,1.4-3.1H291.3z"/>
	<path class="st1" d="M201.7,459.3c0,0-3.2,4.5-0.9,6.8c2.3,2.3,4.5,1.4,4.3,3.6c-0.2,2.3-3.8,9.9-7,18.1c-3.2,8.1,3.4,16.2,9.5,14
		c6.1-2.3,5.4-24.8,6.3-28.9c0.9-4.1,1.6-4.7,1.4-8.6c-0.2-3.8-0.5-7.9-3.4-8.3C208.9,455.5,203.1,457.7,201.7,459.3z"/>
	<path class="st2" d="M201.7,459.3l-0.4-0.3c0,0-0.5,0.6-0.9,1.6c-0.4,0.9-0.9,2.1-0.9,3.4c0,0.9,0.3,1.8,1,2.5
		c1.2,1.2,2.4,1.6,3.1,1.9c0.4,0.2,0.7,0.3,0.8,0.4c0.1,0.1,0.2,0.3,0.2,0.6l0,0.2v0c0,0.5-0.3,1.4-0.7,2.5
		c-1.2,3.5-3.9,9.3-6.2,15.4c-0.6,1.5-0.9,3-0.9,4.5c0,2.9,1,5.5,2.6,7.4c1.6,1.9,3.8,3.2,6.1,3.2c0.8,0,1.5-0.1,2.3-0.4
		c0.9-0.3,1.6-1,2.2-1.9c1.1-1.6,1.8-3.8,2.3-6.4c0.8-3.9,1.2-8.5,1.4-12.4c0.1-2,0.2-3.8,0.3-5.3c0.1-1.5,0.2-2.6,0.3-3.2
		c0.4-1.7,0.7-2.9,1-3.9c0.3-1,0.4-2,0.4-3.4c0-0.4,0-0.9,0-1.4c-0.1-1.9-0.2-3.9-0.7-5.6c-0.2-0.8-0.6-1.6-1.1-2.2
		c-0.5-0.6-1.2-1-2.1-1.1c-0.3,0-0.6-0.1-0.9-0.1c-1.7,0-3.7,0.5-5.5,1.2c-0.9,0.3-1.8,0.7-2.5,1.2c-0.7,0.4-1.3,0.8-1.7,1.3l0,0
		L201.7,459.3l0.4,0.4c0.2-0.3,0.7-0.7,1.4-1c2-1.1,5.3-2.2,7.5-2.2c0.3,0,0.5,0,0.8,0.1c0.6,0.1,1,0.4,1.4,0.8
		c0.5,0.6,0.9,1.7,1.1,2.9c0.2,1.3,0.3,2.7,0.4,4.1c0,0.5,0,0.9,0,1.3c0,1.3-0.1,2.2-0.4,3.2c-0.2,1-0.6,2.1-1,3.9
		c-0.2,1.1-0.4,3.3-0.5,6c-0.2,4.1-0.5,9.4-1.4,13.8c-0.4,2.2-0.9,4.2-1.6,5.8c-0.7,1.5-1.5,2.5-2.5,2.9c-0.6,0.2-1.3,0.3-1.9,0.3
		c-1.9,0-3.8-1-5.3-2.8c-1.4-1.7-2.4-4.1-2.4-6.7c0-1.3,0.2-2.7,0.8-4.1c1.6-4.1,3.3-8,4.6-11.2c0.7-1.6,1.2-3,1.7-4.2
		c0.4-1.2,0.7-2.1,0.8-2.8v0c0-0.1,0-0.2,0-0.3c0-0.6-0.2-1.1-0.5-1.4c-0.3-0.2-0.5-0.4-0.8-0.5c-0.9-0.4-2-0.7-3.1-1.8
		c-0.5-0.5-0.7-1.1-0.7-1.7c0-1,0.4-2.1,0.8-2.9c0.2-0.4,0.4-0.8,0.6-1c0.1-0.1,0.1-0.2,0.2-0.3l0.1-0.1L201.7,459.3l0.4,0.4
		L201.7,459.3z"/>
	<path class="st3" d="M211.4,495.5c-4.1-1.5-10.3-1.2-13.8-0.9c1.2,5.1,5.7,8.7,10,7.1C209.4,501.1,210.6,498.6,211.4,495.5z"/>
	<path class="st2" d="M211.4,495.5l0.2-0.5c-2.5-0.9-5.6-1.2-8.5-1.2c-2.1,0-4.1,0.1-5.6,0.3c-0.2,0-0.3,0.1-0.4,0.2
		c-0.1,0.1-0.1,0.3-0.1,0.4c0.5,2.2,1.6,4.2,3.1,5.6c1.5,1.4,3.3,2.3,5.3,2.3c0.8,0,1.5-0.1,2.3-0.4c1.1-0.4,1.9-1.3,2.5-2.4
		c0.7-1.1,1.2-2.6,1.6-4.2c0.1-0.3-0.1-0.5-0.3-0.6L211.4,495.5l-0.5-0.1c-0.4,1.6-0.9,2.9-1.5,3.9c-0.6,1-1.3,1.7-2,1.9
		c-0.6,0.2-1.3,0.3-1.9,0.3c-1.6,0-3.2-0.7-4.5-2c-1.3-1.3-2.3-3-2.8-5.1l-0.5,0.1l0.1,0.5c1.5-0.1,3.4-0.3,5.5-0.3
		c2.8,0,5.9,0.3,8.1,1.1L211.4,495.5l-0.5-0.1L211.4,495.5z"/>
	<path class="st1" d="M194.7,449.4c0,0,6.5,11.1,8.3,14c1.8,2.9,7.9,2,8.6-2c0.7-4.1-2.5-15.3-2.5-15.3l-13.5,3.4H194.7z"/>
	<path class="st2" d="M194.7,449.4l-0.5,0.3c0,0,6.5,11.1,8.4,14c0.9,1.4,2.4,2,4,2c1.2,0,2.5-0.4,3.5-1.1c1-0.7,1.8-1.8,2.1-3.2
		c0.1-0.4,0.1-0.9,0.1-1.5c0-2.5-0.7-6-1.3-8.9c-0.6-2.9-1.3-5.2-1.3-5.2c-0.1-0.3-0.4-0.4-0.7-0.4l-13.5,3.4h-0.8
		c-0.2,0-0.4,0.1-0.5,0.3c-0.1,0.2-0.1,0.4,0,0.5L194.7,449.4v0.5h0.9l0.1,0l13.5-3.4l-0.1-0.5l-0.5,0.1c0,0,0.2,0.6,0.4,1.5
		c0.7,2.8,2.2,8.9,2.2,12.3c0,0.5,0,0.9-0.1,1.3c-0.2,1.1-0.8,1.9-1.6,2.4c-0.8,0.6-1.9,0.9-2.9,0.9c-1.3,0-2.5-0.5-3.1-1.5
		c-0.9-1.5-3-5-4.8-8.1c-0.9-1.6-1.8-3-2.4-4.1c-0.6-1.1-1-1.8-1.1-1.8L194.7,449.4v0.5V449.4z"/>
	<path class="st3" d="M179.2,431.8c0,0-1.8,2.9-0.9,5c0.9,2,3.4,7.9,5,10.8c1.6,2.9,8.8,4.7,17.1,3.4c8.3-1.4,13.1-5.2,13.3-8.6
		c0.2-3.4-1.4-7.9-2.5-13.3c-1.1-5.4-4.1-5.2-8.1-5.2C199,423.9,182.5,428.6,179.2,431.8z"/>
	<path class="st2" d="M179.2,431.8l-0.5-0.3c0,0-0.3,0.5-0.6,1.2c-0.3,0.7-0.6,1.7-0.6,2.7c0,0.5,0.1,1,0.3,1.5
		c0.9,2,3.4,7.9,5,10.9c0.7,1.3,2.3,2.3,4.4,3c2.1,0.7,4.7,1.1,7.7,1.1c1.8,0,3.7-0.1,5.6-0.5c4.2-0.7,7.6-2,9.9-3.6
		c2.3-1.6,3.7-3.5,3.8-5.5c0-0.2,0-0.5,0-0.7c0-3.5-1.5-7.7-2.5-12.7c-0.3-1.3-0.6-2.3-1.1-3.1c-0.7-1.2-1.7-1.9-2.9-2.2
		c-1.1-0.3-2.4-0.3-3.7-0.3c-0.3,0-0.6,0-0.9,0c-1.1,0-2.9,0.3-5.1,0.8c-3.3,0.7-7.4,1.9-11,3.2c-1.8,0.7-3.5,1.3-4.9,2
		c-1.4,0.7-2.5,1.3-3.3,2l-0.1,0.1L179.2,431.8l0.4,0.4c0.7-0.7,2.4-1.6,4.4-2.5c3.1-1.3,7.1-2.6,10.8-3.6c1.8-0.5,3.5-0.9,5-1.2
		c1.4-0.3,2.6-0.4,3.3-0.4c0.3,0,0.6,0,0.9,0c1.8,0,3.2,0.1,4.3,0.7c0.5,0.3,1,0.7,1.4,1.4c0.4,0.6,0.7,1.5,1,2.7
		c1.1,5.1,2.5,9.4,2.5,12.5c0,0.2,0,0.4,0,0.6c-0.1,1.4-1.2,3.1-3.4,4.6c-2.2,1.5-5.4,2.8-9.5,3.4c-1.9,0.3-3.7,0.5-5.5,0.5
		c-2.9,0-5.4-0.4-7.4-1c-1.9-0.6-3.3-1.6-3.8-2.5c-1.6-2.9-4-8.8-4.9-10.8c-0.1-0.3-0.2-0.7-0.2-1.1c0-0.8,0.3-1.6,0.5-2.3
		c0.1-0.3,0.3-0.6,0.4-0.8l0.1-0.2l0-0.1L179.2,431.8l0.4,0.4L179.2,431.8z"/>
	<path class="st2" d="M203.5,365.4c0.1-5.6,3.3-8.3,3.6-12.1c0.5-7.5-0.6-12.9-1.2-15l-6.2-8.4c-17.8,0.2-30.5,0.5-30.7,0.6
		c-0.7,0.2-1.1,4.1-1.6,7.2c0,0-7.5,1-6.2,21.9c0.2,2.9,7.8,36.8,8.3,40.6c3.4,23.6,10.9,35.4,10.9,35.4s0.7,2.9,9.5,2.3
		c8.8-0.7,17.6-6.5,17.6-6.5S203.1,385.5,203.5,365.4z"/>
	<path class="st2" d="M203.5,365.4l0.5,0c0.1-2.7,0.9-4.6,1.7-6.5c0.8-1.8,1.7-3.5,1.9-5.6c0.1-1.3,0.1-2.5,0.1-3.6
		c0-5.7-0.9-9.7-1.4-11.6l-0.1-0.2l-6.2-8.4c-0.1-0.1-0.3-0.2-0.4-0.2c-8.9,0.1-16.5,0.2-21.9,0.4c-2.7,0.1-4.9,0.1-6.4,0.1
		c-0.8,0-1.3,0-1.7,0.1c-0.2,0-0.4,0-0.5,0l-0.1,0l-0.1,0l-0.1,0l0,0c-0.3,0.1-0.4,0.3-0.5,0.5c-0.2,0.3-0.3,0.7-0.4,1.2
		c-0.4,1.5-0.7,3.9-1,5.9l0.5,0.1l-0.1-0.5c-0.1,0-1.9,0.3-3.5,2.7c-1.7,2.4-3.3,6.8-3.3,15c0,1.5,0.1,3.1,0.2,4.8
		c0,0.4,0.2,1.3,0.4,2.5c0.8,4.3,2.7,13,4.4,21c0.9,4,1.7,7.9,2.3,11c0.6,3.1,1.1,5.4,1.2,6.2c3.4,23.7,11,35.5,11,35.6l0.5-0.3
		l-0.5,0.1c0,0.1,0.3,0.9,1.3,1.5c1.1,0.7,2.9,1.3,6.2,1.3c0.8,0,1.6,0,2.5-0.1c9-0.7,17.8-6.6,17.9-6.6c0.2-0.1,0.3-0.3,0.2-0.5
		c0,0-0.1-0.6-0.2-1.8c-0.8-8.2-3.9-42.4-3.9-61c0-1.1,0-2.1,0-3L203.5,365.4l-0.5,0c0,1,0,2,0,3c0,21.4,4.1,62.9,4.1,62.9l0.5-0.1
		l-0.3-0.5c0,0-0.1,0.1-0.4,0.2c-1.8,1.1-9.4,5.6-17,6.2c-0.9,0.1-1.7,0.1-2.4,0.1c-3.2,0-4.8-0.6-5.6-1.1c-0.4-0.3-0.6-0.5-0.7-0.7
		l-0.1-0.2l0,0l-0.2,0.1l0.2,0l0,0l-0.2,0.1l0.2,0l-0.1-0.2l-0.1-0.1c-0.8-1.3-7.6-13-10.8-35c-0.1-1-0.7-3.8-1.5-7.6
		c-1.2-5.6-2.9-13.4-4.3-19.9c-0.7-3.3-1.3-6.3-1.8-8.6c-0.2-1.2-0.4-2.1-0.6-2.9c-0.1-0.8-0.2-1.3-0.2-1.5
		c-0.1-1.7-0.2-3.3-0.2-4.8c0-8.1,1.6-12.3,3.1-14.4c0.7-1.1,1.5-1.6,2-1.9c0.3-0.1,0.5-0.2,0.6-0.3l0.2,0l0,0l0,0l0-0.3l0,0.3l0,0
		l0-0.3l0,0.3c0.2,0,0.4-0.2,0.5-0.5c0.2-1.6,0.5-3.3,0.7-4.7c0.1-0.7,0.3-1.3,0.4-1.7c0.1-0.2,0.1-0.3,0.2-0.4l0-0.1l-0.2-0.2
		l0.1,0.2l0.1-0.1l-0.2-0.2l0.1,0.2l0,0l-0.1-0.4l0.1,0.4l0.1,0l-0.1-0.4l0.1,0.4c0,0,0.1,0,0.2,0c1.9-0.1,14-0.4,30.4-0.6l0-0.5
		l-0.4,0.3l6.2,8.4l0.4-0.3l-0.5,0.1c0.5,1.8,1.3,5.7,1.3,11.3c0,1.1,0,2.3-0.1,3.6c-0.1,1.8-0.9,3.3-1.8,5.2
		c-0.9,1.9-1.7,4-1.8,6.9L203.5,365.4z"/>
	<path class="st1" d="M166.2,334.2c0,0-9.3,1.4-15,7.9c-5.7,6.5-0.9,10.8,10.2,9.7c11.1-1.1,23.9-12.5,24.4-13.1
		S174.3,330.4,166.2,334.2z"/>
	<path class="st2" d="M166.2,334.2l-0.1-0.5c0,0-2.4,0.4-5.5,1.5c-3.1,1.2-6.9,3.2-9.9,6.5c-1.7,1.9-2.5,3.7-2.5,5.3
		c0,0.9,0.2,1.7,0.7,2.3c0.7,1,1.9,1.8,3.4,2.3c1.5,0.5,3.4,0.8,5.7,0.8c1.1,0,2.2-0.1,3.4-0.2c5.7-0.6,11.7-3.8,16.4-6.9
		c2.3-1.5,4.4-3.1,5.8-4.3c0.7-0.6,1.3-1.1,1.8-1.5c0.2-0.2,0.4-0.3,0.5-0.5c0.1-0.1,0.2-0.2,0.3-0.3c0.1-0.1,0.2-0.3,0.2-0.4
		c0-0.3-0.1-0.4-0.2-0.5c-0.2-0.2-0.4-0.4-0.7-0.6c-1.1-0.8-3.1-2-5.6-3c-2.5-1-5.5-1.8-8.5-1.8c-1.9,0-3.7,0.3-5.4,1.1L166.2,334.2
		l-0.1-0.5L166.2,334.2l0.2,0.5c1.5-0.7,3.2-1,4.9-1c3.4,0,7,1.2,9.7,2.4c1.3,0.6,2.5,1.3,3.3,1.8c0.4,0.3,0.7,0.5,0.9,0.7l0.2,0.2
		l0,0l0.1-0.1l-0.1,0.1l0,0l0.1-0.1l-0.1,0.1l0.4-0.1h-0.4l0,0.1l0.4-0.1h-0.4h0.5l-0.3-0.3l-0.1,0.3h0.5l-0.3-0.3
		c0,0-0.1,0.1-0.2,0.2c-0.9,0.9-4.4,3.8-8.8,6.6c-4.5,2.9-10,5.6-15.1,6.1c-1.2,0.1-2.3,0.2-3.3,0.2c-2.9,0-5.1-0.5-6.6-1.2
		c-0.7-0.4-1.3-0.9-1.6-1.4c-0.4-0.5-0.5-1.1-0.5-1.7c0-1.2,0.7-2.8,2.3-4.6c2.8-3.1,6.5-5.1,9.4-6.2c1.5-0.6,2.8-0.9,3.8-1.2
		c0.5-0.1,0.9-0.2,1.1-0.2c0.1,0,0.2,0,0.3-0.1l0.1,0l0.2,0L166.2,334.2z"/>
	<path class="st1" d="M182.8,338.4c0,0,9.9,0.5,17.6,2.7c7.7,2.3,21.2,6.8,24.4,6.8c3.2,0,2.3-11.7,2.3-14c0-2.3-40.6-3.6-45.6-3.6
		S182.8,338.4,182.8,338.4z"/>
	<path class="st2" d="M182.8,338.4l0,0.5c0,0,0.6,0,1.7,0.1c3.1,0.2,10.1,0.9,15.8,2.6c3.8,1.1,9.1,2.8,13.9,4.2
		c2.4,0.7,4.6,1.3,6.5,1.8c1.9,0.5,3.3,0.8,4.2,0.8c0.4,0,0.7-0.1,1-0.3c0.5-0.3,0.8-0.9,1.1-1.5c0.4-0.9,0.6-2.1,0.7-3.5
		c0.1-1.3,0.2-2.7,0.2-4.1c0-2.3-0.1-4.4-0.1-5.2c0-0.3-0.2-0.5-0.3-0.6c-0.3-0.2-0.6-0.4-1.1-0.5c-1.6-0.5-4.9-0.9-9.1-1.3
		c-12.4-1.1-32.3-1.7-35.7-1.7c-0.8,0-1.4,0.2-1.8,0.6c-0.4,0.4-0.6,1-0.6,1.5c0,0.7,0.2,1.5,0.6,2.2c1,2.3,2.8,4.6,2.8,4.7
		c0.1,0.1,0.2,0.2,0.4,0.2L182.8,338.4l0.4-0.3c0,0,0-0.1-0.1-0.2c-0.3-0.4-1.1-1.5-1.8-2.7c-0.3-0.6-0.7-1.2-0.9-1.8
		c-0.2-0.6-0.4-1.1-0.4-1.6c0-0.4,0.1-0.6,0.3-0.7c0.2-0.2,0.5-0.3,1.1-0.3c2.5,0,13.9,0.3,24.6,1c5.4,0.3,10.6,0.7,14.5,1.1
		c1.9,0.2,3.5,0.5,4.6,0.7c0.5,0.1,1,0.2,1.2,0.4c0.1,0.1,0.2,0.1,0.2,0.1l0,0l0,0l0,0l0,0l0,0l0.2-0.2h-0.3c0,0.1,0,0.2,0.1,0.2
		l0.2-0.2h-0.3c0,0.9,0.1,2.9,0.1,5.2c0,2-0.1,4.2-0.4,5.8c-0.2,0.8-0.4,1.5-0.7,1.9c-0.1,0.2-0.3,0.4-0.4,0.4
		c-0.1,0.1-0.2,0.1-0.4,0.1c-0.7,0-2.1-0.3-3.9-0.7c-5.5-1.4-14.5-4.3-20.3-6c-7.8-2.3-17.7-2.7-17.7-2.7L182.8,338.4l0.4-0.3
		L182.8,338.4z"/>
	<path class="st3" d="M227,333.8c0,0-3.6,1.8-5,8.6c-1.4,6.8-3.2,10.4-0.5,12.2c2.7,1.8,14.4,3.2,16.2,1.4
		c1.8-1.8,6.8-10.8,7.7-16.7C246.4,333.4,227,333.8,227,333.8z"/>
	<path class="st2" d="M227,333.8l-0.2-0.5c-0.1,0-3.9,2-5.3,9c-0.8,4.2-1.9,7.1-1.9,9.4c0,0.7,0.1,1.3,0.4,1.9
		c0.3,0.6,0.7,1.1,1.3,1.5c0.5,0.4,1.3,0.6,2.2,0.9c2.7,0.8,6.7,1.4,10,1.4c1.1,0,2.1-0.1,2.9-0.2c0.8-0.2,1.5-0.4,1.9-0.8
		c0.5-0.5,1.2-1.4,1.9-2.6c2.2-3.6,5.2-9.8,5.9-14.4c0-0.2,0-0.3,0-0.5c0-0.7-0.3-1.4-0.7-1.9c-0.8-0.9-2.1-1.6-3.6-2.1
		c-4.5-1.5-11.3-1.6-13.8-1.6c-0.6,0-1,0-1,0l-0.2,0.1L227,333.8l0,0.5c0,0,0.3,0,0.9,0c1.9,0,6.2,0.1,10.1,0.7
		c1.9,0.3,3.7,0.8,5,1.5c0.6,0.3,1.1,0.7,1.4,1.1c0.3,0.4,0.5,0.8,0.5,1.2c0,0.1,0,0.2,0,0.3c-0.4,2.8-1.9,6.5-3.4,9.7
		c-0.8,1.6-1.6,3.1-2.3,4.2c-0.7,1.2-1.4,2.1-1.8,2.4c-0.1,0.2-0.6,0.4-1.4,0.5c-0.7,0.1-1.6,0.2-2.7,0.2c-2.1,0-4.5-0.2-6.7-0.6
		c-1.1-0.2-2.1-0.4-2.9-0.7c-0.8-0.3-1.5-0.5-1.9-0.8c-0.4-0.3-0.7-0.6-0.9-1c-0.2-0.4-0.3-0.9-0.3-1.4c0-1.9,1-4.9,1.8-9.2
		c0.7-3.3,1.9-5.4,2.9-6.6c0.5-0.6,1-1,1.3-1.3c0.2-0.1,0.3-0.2,0.4-0.3l0.1-0.1l0,0L227,333.8l0,0.5L227,333.8z"/>
	<path class="st2" d="M242.3,336.1c0,0-3.6,4.1-5,8.1c-1.4,4.1-2.3,9.5-2.3,9.5s5.4,1.4,12.6,4.5c7.2,3.2,19.4,5.4,31.1,8.1
		c11.7,2.7,14.9,5.4,19,5.4c4.1,0,9-3.2,15.3-10.8c6.3-7.7,0.9-23.9-5.4-28.9c-6.3-5-40.2-9-44.7-7.7
		C258.6,325.7,242.3,336.1,242.3,336.1z"/>
	<path class="st2" d="M242.3,336.1l-0.4-0.4c0,0-3.7,4.1-5.1,8.3c-1.4,4.1-2.3,9.5-2.3,9.6c0,0.3,0.1,0.5,0.4,0.6c0,0,0.1,0,0.2,0.1
		c1.1,0.3,6,1.7,12.3,4.4c7.3,3.2,19.5,5.4,31.2,8.2c5.8,1.3,9.5,2.7,12.3,3.7c2.8,1,4.6,1.7,6.8,1.7c2.2,0,4.5-0.8,7.1-2.6
		c2.6-1.8,5.4-4.5,8.6-8.4c2.1-2.6,2.9-5.9,2.9-9.5c0-3.9-1-8-2.5-11.6c-1.5-3.6-3.6-6.7-5.9-8.5c-1.5-1.2-4.2-2.2-7.6-3.2
		c-10.2-2.9-26.8-4.9-34.2-4.9c-1.5,0-2.6,0.1-3.4,0.3c-1.2,0.4-3.1,1.3-5.2,2.4c-6.5,3.5-15.6,9.3-15.6,9.3l-0.1,0.1L242.3,336.1
		l0.3,0.5c0,0,1-0.6,2.6-1.6c2.4-1.5,6.1-3.8,9.6-5.8c1.8-1,3.5-2,4.9-2.7c1.5-0.8,2.7-1.3,3.5-1.5c0.5-0.1,1.6-0.2,3-0.2
		c4.8,0,13.8,0.9,22.3,2.3c4.2,0.7,8.3,1.6,11.7,2.5c3.3,0.9,6,2,7.2,3c2.1,1.6,4.1,4.6,5.6,8.1c1.5,3.5,2.5,7.5,2.4,11.2
		c0,3.4-0.8,6.6-2.7,8.8c-3.1,3.8-5.9,6.5-8.4,8.2c-2.5,1.7-4.6,2.4-6.5,2.4c-1.9,0-3.6-0.6-6.4-1.7c-2.8-1-6.5-2.4-12.4-3.7
		c-11.7-2.7-23.9-5-31-8.1c-7.3-3.2-12.7-4.5-12.7-4.5l-0.1,0.5l0.5,0.1c0,0,0.1-0.3,0.2-0.9c0.3-1.7,1.1-5.5,2.1-8.5
		c0.6-1.9,1.9-3.9,2.9-5.4c0.5-0.7,1-1.4,1.4-1.8c0.2-0.2,0.3-0.4,0.4-0.5c0.1-0.1,0.2-0.2,0.2-0.2L242.3,336.1l0.3,0.5L242.3,336.1
		"/>
	<path class="st3" d="M157.7,352c-0.9-4.8-3.6-8.9-5.3-11.1c-0.4,0.4-0.8,0.8-1.2,1.2C146.1,347.8,149.3,351.8,157.7,352z"/>
	<path class="st2" d="M157.7,352l0.5-0.1c-0.9-4.9-3.7-9.1-5.4-11.3c-0.1-0.1-0.2-0.2-0.4-0.2c-0.2,0-0.3,0-0.4,0.1
		c-0.4,0.4-0.8,0.8-1.3,1.3c-1.7,1.9-2.5,3.7-2.5,5.3c0,0.8,0.2,1.6,0.7,2.3c0.7,1,1.8,1.8,3.3,2.3c1.5,0.5,3.3,0.8,5.5,0.8
		c0.2,0,0.3-0.1,0.4-0.2c0.1-0.1,0.1-0.3,0.1-0.4L157.7,352l0-0.5c-2.8,0-4.9-0.5-6.3-1.3c-0.7-0.4-1.2-0.8-1.6-1.3
		c-0.3-0.5-0.5-1.1-0.5-1.7c0-1.2,0.7-2.8,2.3-4.6c0.4-0.4,0.8-0.8,1.2-1.2l-0.4-0.4l-0.4,0.3c1.7,2.2,4.3,6.2,5.2,10.9L157.7,352
		l0-0.5L157.7,352z"/>
	<path class="st1" d="M202.6,355.5c0,0-0.1,0.8-0.2,2.2c-0.5,4.8-1.9,17-4.2,28.8c-1.2,5.9-2.5,11.7-4.2,16.4
		c-1.6,4.7-3.5,8.4-5.5,10c-0.1,0.1-0.1,0.3,0,0.4c0.1,0.1,0.3,0.1,0.4,0c2.5-2,4.5-6.6,6.3-12.4c5.3-17.3,7.9-45.4,8-45.4
		c0-0.1-0.1-0.3-0.2-0.3C202.7,355.2,202.6,355.4,202.6,355.5z"/>
	<path class="st1" d="M199.3,402.8c0,0-0.1,0.2-0.2,0.7c-0.8,3.2-4.7,16.3-13.1,21.8c-0.1,0.1-0.2,0.3-0.1,0.4
		c0.1,0.1,0.3,0.2,0.4,0.1c4.9-3.3,8.3-9,10.4-13.9c2.1-4.9,3.1-9,3.1-9c0-0.1-0.1-0.3-0.2-0.3C199.5,402.5,199.3,402.6,199.3,402.8
		z"/>
	<path class="st1" d="M259.5,346.2c0,0-2.1,0.1-4.1,0.6c-1,0.3-2.1,0.6-2.9,1.1c-0.8,0.5-1.4,1.1-1.4,2c0,0.6,0.3,1.2,0.8,1.8
		c0.5,0.7,1.4,1.4,2.5,2.2c9.5,6.4,26.7,10.4,26.7,10.4c0.1,0,0.3-0.1,0.3-0.2c0-0.1-0.1-0.3-0.2-0.3c0,0-1.1-0.3-2.8-0.7
		c-5.3-1.4-16.7-4.9-23.7-9.6c-1.2-0.8-1.9-1.5-2.4-2c-0.5-0.6-0.7-1.1-0.7-1.5c0-0.6,0.4-1.1,1.1-1.6c1.1-0.7,2.8-1.1,4.2-1.3
		c0.7-0.1,1.4-0.2,1.8-0.2c0.5,0,0.7-0.1,0.7-0.1c0.1,0,0.3-0.1,0.3-0.3C259.7,346.3,259.6,346.2,259.5,346.2z"/>
	<path class="st2" d="M364.4,329.4l-4.9-4.4l-11.3-24.3c-1-2.2-3.4-3.7-5.9-3.7H123.5c-2.6,0-4.9,1.4-5.9,3.7l-14,30.3l-2.3-0.9v6.9
		l0.1-0.1c0.2,1.8,1.8,3.3,3.9,3.3h255.3c2.2,0,3.8-1.7,3.9-3.6L364.4,329.4"/>
	<path class="st2" d="M364.4,329.4l0.4-0.4l-4.8-4.3l-11.2-24.2c-1.1-2.4-3.6-4-6.4-4H123.5c-2.8,0-5.3,1.6-6.4,4l-13.8,29.9
		l-1.8-0.7c-0.2-0.1-0.4,0-0.5,0.1s-0.2,0.3-0.2,0.4v6.9c0,0.2,0.1,0.4,0.3,0.5c0.2,0.1,0.4,0.1,0.6-0.1l0.1-0.1l-0.3-0.4l-0.5,0.1
		c0.2,2.1,2.1,3.8,4.4,3.8h255.3c2.5,0,4.3-1.9,4.4-4.1l0,0l-0.1-7.3c0-0.2-0.1-0.3-0.2-0.4L364.4,329.4l-0.5,0l0.1,7.3l0.5,0
		l-0.5,0c-0.1,1.6-1.4,3.1-3.4,3.1H105.3c-1.8,0-3.2-1.3-3.3-2.8c0-0.2-0.1-0.4-0.3-0.4c-0.2-0.1-0.4,0-0.5,0.1l-0.1,0.1l0.3,0.4
		h0.5v-6.2l1.6,0.6c0.3,0.1,0.6,0,0.7-0.3l14-30.3c0.9-2,3.1-3.4,5.4-3.4h218.8c2.4,0,4.5,1.3,5.4,3.4l11.3,24.3l0.1,0.2l4.9,4.4
		L364.4,329.4l-0.5,0L364.4,329.4"/>
	<path class="st1" d="M360.6,333.9H105.3c-2.8,0-4.7-2.8-3.6-5.2l15.9-34.4c1-2.2,3.4-3.7,5.9-3.7h218.8c2.6,0,4.9,1.4,5.9,3.7
		l15.9,34.4C365.3,331.2,363.4,333.9,360.6,333.9"/>
	<path class="st2" d="M360.6,333.9v-0.5H105.3c-1,0-1.8-0.4-2.4-1c-0.6-0.6-1-1.4-1-2.2c0-0.4,0.1-0.8,0.3-1.3l15.9-34.4
		c0.9-2,3.1-3.4,5.4-3.4h218.8c2.4,0,4.5,1.3,5.4,3.4l15.9,34.4c0.2,0.4,0.3,0.9,0.3,1.3c0,0.8-0.4,1.6-1,2.2c-0.6,0.6-1.4,1-2.4,1
		V333.9v0.5c2.5,0,4.5-2,4.5-4.3c0-0.6-0.1-1.2-0.4-1.7l-15.9-34.4c-1.1-2.4-3.6-4-6.4-4H123.5c-2.8,0-5.3,1.6-6.4,4l-15.9,34.4
		c-0.3,0.6-0.4,1.2-0.4,1.7c0,2.3,1.9,4.3,4.5,4.3h255.3V333.9"/>
	<path class="st8" d="M166.8,294.3c-4.4,0-37.8,2-37.8,2l-10.8,14.5c0,0-5.8,4-2.2,5.4c1.2,0.5,6.6,0.7,13.5,0.7
		c13.8,0,33.3-0.8,36.7-1.8c5.1-1.4,10.8-14.8,10.8-17c0-2.2-7.3-3.7-10-3.8C167,294.3,166.9,294.3,166.8,294.3"/>
	<path class="st8" d="M324.9,305.4c-8.2,0-14.8,2.7-14.8,6.1s6.6,6.1,14.8,6.1c8.2,0,14.8-2.8,14.8-6.1S333,305.4,324.9,305.4"/>
	<path class="st8" d="M230.6,305.4c-29.3,0-53.1,4.4-53.1,9.9c0,5.5,23.8,9.9,53.1,9.9c29.3,0,53.1-4.4,53.1-9.9
		C283.7,309.9,259.9,305.4,230.6,305.4"/>
	<path class="st3" d="M314,287.4c0,0-1-3.9-4.2-2.6c-3.2,1.3-2.9,9.9-2.3,14.7c0.6,4.9,5,2.6,5,2.6v-2.9c0,0-1.6,1.3-2.4-0.5
		c-0.8-1.8-0.6-10.7,0.2-10.5c0.8,0.2,2.4,2.9,2.4,2.9S313.2,290.8,314,287.4z"/>
	<path class="st2" d="M314,287.4l0.5-0.1c0,0-0.2-0.8-0.7-1.6c-0.3-0.4-0.6-0.8-1.1-1.1c-0.5-0.3-1-0.5-1.7-0.5
		c-0.5,0-0.9,0.1-1.5,0.3c-0.6,0.3-1.2,0.7-1.5,1.3c-0.6,0.9-0.9,2.1-1.2,3.4c-0.2,1.3-0.3,2.8-0.3,4.3c0,2.2,0.2,4.5,0.4,6.2
		c0.2,1.3,0.6,2.3,1.3,2.8c0.6,0.6,1.4,0.8,2.1,0.8c1.3,0,2.4-0.6,2.4-0.6c0.2-0.1,0.3-0.3,0.3-0.5v-2.9c0-0.2-0.1-0.4-0.3-0.5
		c-0.2-0.1-0.4-0.1-0.6,0.1l0,0.1l0-0.1l0,0l0,0.1l0-0.1c0,0-0.5,0.4-0.9,0.3c-0.1,0-0.2,0-0.3-0.1c-0.1-0.1-0.3-0.2-0.4-0.5
		c-0.1-0.3-0.3-1-0.4-1.9c-0.1-0.9-0.1-2-0.1-3.1c0-1.3,0.1-2.6,0.2-3.6c0.1-0.5,0.1-0.9,0.2-1.1c0-0.1,0.1-0.2,0.1-0.2l-0.2-0.1
		l0.1,0.2l0.1-0.1l-0.2-0.1l0.1,0.2l-0.3-0.3v0.4c0.1,0,0.2,0,0.3-0.1l-0.3-0.3v0.4v-0.4l-0.1,0.4l0.1,0v-0.4l-0.1,0.4h0l0,0l0,0
		l0,0l0,0l0,0c0,0,0.3,0.2,0.5,0.4c0.4,0.4,0.8,1,1.1,1.4c0.2,0.2,0.3,0.4,0.4,0.6c0.1,0.1,0.1,0.2,0.1,0.2c0.1,0.1,0.2,0.2,0.3,0.3
		c0.1,0,0.3,0,0.4-0.1c0.1-0.1,0.3-0.3,0.5-0.8c0.2-0.6,0.6-1.5,1-3.2l0-0.3L314,287.4l-0.5-0.1c-0.4,1.7-0.7,2.6-0.9,3
		c-0.1,0.2-0.2,0.3-0.2,0.4l0,0l0,0l0,0l0,0l0,0l0.3,0.3l-0.2-0.3l-0.1,0.1l0.3,0.3l-0.2-0.3l0.3,0.5l0.5-0.3c0,0-0.4-0.7-0.9-1.4
		c-0.3-0.4-0.6-0.7-0.8-1.1c-0.1-0.2-0.3-0.3-0.5-0.4c-0.2-0.1-0.3-0.2-0.6-0.3h0l-0.1,0c-0.2,0-0.3,0.1-0.4,0.1
		c-0.2,0.1-0.2,0.3-0.3,0.4c-0.1,0.2-0.2,0.5-0.2,0.9c-0.2,1.1-0.3,2.7-0.3,4.3c0,1.1,0,2.3,0.1,3.2c0.1,1,0.2,1.7,0.4,2.3
		c0.2,0.4,0.5,0.8,0.8,1c0.3,0.2,0.7,0.3,1,0.3c0.4,0,0.8-0.2,1.1-0.3c0.3-0.1,0.4-0.3,0.5-0.3l-0.3-0.4H312v2.9h0.5l-0.2-0.5l0,0
		c-0.2,0.1-1,0.5-1.9,0.5c-0.5,0-1-0.1-1.4-0.5c-0.4-0.4-0.8-1-0.9-2.2c-0.2-1.7-0.4-3.9-0.4-6.1c0-1.9,0.2-3.8,0.5-5.3
		c0.2-0.7,0.5-1.4,0.8-1.8c0.3-0.5,0.7-0.8,1-0.9c0.4-0.2,0.8-0.2,1.1-0.2c0.4,0,0.8,0.1,1.1,0.3c0.5,0.3,0.8,0.8,1,1.3
		c0.1,0.2,0.2,0.4,0.2,0.6l0.1,0.2l0,0l0,0L314,287.4l-0.5-0.1L314,287.4z"/>
	<path class="st3" d="M311.7,288v21.3c0,2.5,5.8,4.5,12.9,4.5c7.1,0,12.9-2,12.9-4.5V288H311.7z"/>
	<path class="st2" d="M311.7,288h-0.5v21.3c0,0.8,0.5,1.6,1.2,2.2c1.1,0.9,2.8,1.6,4.9,2.1c2.1,0.5,4.6,0.8,7.3,0.8
		c3.6,0,6.9-0.5,9.3-1.4c1.2-0.4,2.2-0.9,2.9-1.5c0.7-0.6,1.2-1.3,1.2-2.2V288c0-0.1-0.1-0.3-0.2-0.4c-0.1-0.1-0.2-0.2-0.4-0.2
		h-25.7c-0.1,0-0.3,0.1-0.4,0.2c-0.1,0.1-0.2,0.2-0.2,0.4H311.7v0.5h25.2l0,20.7c0,0.4-0.2,0.9-0.8,1.3c-0.9,0.7-2.4,1.4-4.4,1.9
		c-2,0.5-4.4,0.8-7.1,0.8c-3.5,0-6.7-0.5-8.9-1.3c-1.1-0.4-2-0.9-2.6-1.3c-0.6-0.5-0.8-0.9-0.8-1.3V288H311.7v0.5V288z"/>
	<path class="st1" d="M337.4,288c0,2.2-5.8,3.9-12.9,3.9c-7.1,0-12.9-1.8-12.9-3.9c0-2.2,5.8-3.9,12.9-3.9
		C331.7,284.1,337.4,285.9,337.4,288z"/>
	<path class="st2" d="M337.4,288h-0.5c0,0.1,0,0.3-0.2,0.5c-0.2,0.3-0.7,0.7-1.4,1.1c-2.1,1.1-6.2,1.8-10.8,1.8
		c-3.5,0-6.7-0.4-8.9-1.1c-1.1-0.3-2-0.8-2.6-1.2c-0.3-0.2-0.5-0.4-0.6-0.6c-0.1-0.2-0.2-0.3-0.2-0.5c0-0.1,0-0.3,0.2-0.5
		c0.2-0.3,0.7-0.7,1.4-1.1c2.1-1.1,6.2-1.8,10.8-1.8c3.5,0,6.7,0.4,8.9,1.1c1.1,0.3,2,0.8,2.6,1.2c0.3,0.2,0.5,0.4,0.6,0.6
		c0.1,0.2,0.2,0.3,0.2,0.5H337.4h0.5c0-0.4-0.1-0.8-0.4-1.1c-0.4-0.6-1-1-1.8-1.4c-2.4-1.2-6.5-1.9-11.2-1.9c-3.6,0-6.9,0.4-9.2,1.2
		c-1.2,0.4-2.2,0.8-2.9,1.3c-0.4,0.3-0.7,0.5-0.9,0.9c-0.2,0.3-0.4,0.7-0.4,1.1c0,0.4,0.1,0.8,0.4,1.1c0.4,0.6,1,1,1.8,1.4
		c2.4,1.2,6.5,1.9,11.2,1.9c3.6,0,6.8-0.4,9.2-1.2c1.2-0.4,2.2-0.8,2.9-1.3c0.4-0.3,0.7-0.5,0.9-0.9c0.2-0.3,0.4-0.7,0.4-1.1H337.4z
		"/>
	<ellipse class="st1" cx="324.6" cy="288" rx="11.2" ry="3.4"/>
	<path class="st2" d="M335.7,288h-0.5c0,0.1,0,0.2-0.1,0.4c-0.2,0.3-0.6,0.6-1.2,0.9c-1.8,0.9-5.3,1.6-9.3,1.6c-3,0-5.8-0.4-7.7-1
		c-1-0.3-1.7-0.6-2.2-1c-0.2-0.2-0.4-0.4-0.5-0.5c-0.1-0.2-0.1-0.3-0.1-0.4c0-0.1,0-0.2,0.1-0.4c0.2-0.3,0.6-0.6,1.2-0.9
		c1.8-0.9,5.3-1.6,9.3-1.6c3,0,5.8,0.4,7.7,1c1,0.3,1.7,0.6,2.2,1c0.2,0.2,0.4,0.4,0.5,0.5c0.1,0.2,0.1,0.3,0.1,0.4H335.7h0.5
		c0-0.4-0.1-0.7-0.3-1c-0.3-0.5-0.9-0.9-1.6-1.3c-2.1-1-5.7-1.7-9.8-1.7c-3.1,0-6,0.4-8.1,1c-1,0.3-1.9,0.7-2.6,1.2
		c-0.3,0.2-0.6,0.5-0.8,0.8c-0.2,0.3-0.3,0.6-0.3,1c0,0.4,0.1,0.7,0.3,1c0.3,0.5,0.9,0.9,1.6,1.3c2.1,1,5.7,1.7,9.8,1.7
		c3.1,0,6-0.4,8.1-1c1-0.3,1.9-0.7,2.6-1.2c0.3-0.2,0.6-0.5,0.8-0.8c0.2-0.3,0.3-0.6,0.3-1H335.7z"/>
	<path class="st2" d="M315.9,290.2c2,0.8,5.1,1.2,8.6,1.2c3.5,0,6.6-0.5,8.6-1.2c-2-0.8-5.1-1.2-8.6-1.2
		C321.1,288.9,318,289.4,315.9,290.2z"/>
	<path class="st2" d="M315.9,290.2l-0.2,0.5c2.1,0.8,5.3,1.3,8.8,1.3c3.5,0,6.7-0.5,8.8-1.3c0.2-0.1,0.4-0.3,0.4-0.5
		c0-0.2-0.1-0.4-0.4-0.5c-2.1-0.8-5.3-1.3-8.8-1.3c-3.5,0-6.7,0.5-8.8,1.3c-0.2,0.1-0.4,0.3-0.4,0.5c0,0.2,0.1,0.4,0.4,0.5
		L315.9,290.2l0.2,0.5c2-0.7,5-1.2,8.4-1.2c3.4,0,6.5,0.5,8.4,1.2l0.2-0.5l-0.2-0.5c-2,0.7-5,1.2-8.4,1.2c-3.4,0-6.5-0.5-8.4-1.2
		L315.9,290.2l0.2,0.5L315.9,290.2z"/>
	<polygon class="st1" points="116.6,297.7 116.7,305 165.8,305.5 165.8,297.1 	"/>
	<path class="st2" d="M116.6,297.7l-0.5,0l0.2,7.3c0,0.3,0.2,0.5,0.5,0.5l49.1,0.5c0.1,0,0.3-0.1,0.4-0.2c0.1-0.1,0.2-0.2,0.2-0.4
		v-8.4c0-0.1-0.1-0.3-0.2-0.4c-0.1-0.1-0.2-0.2-0.4-0.2l-49.2,0.6c-0.1,0-0.3,0.1-0.4,0.2c-0.1,0.1-0.2,0.2-0.2,0.4L116.6,297.7
		l0,0.5l48.7-0.6v7.3l-48-0.5l-0.2-6.8L116.6,297.7l0,0.5L116.6,297.7z"/>
	<polygon class="st1" points="165.8,305.5 173,290.1 173,285.6 165.5,298.5 	"/>
	<path class="st2" d="M165.8,305.5l0.5,0.2l7.1-15.4l0.1-0.2v-4.5c0-0.2-0.2-0.5-0.4-0.5c-0.2-0.1-0.5,0-0.6,0.3l-7.5,13
		c-0.1,0.1-0.1,0.2-0.1,0.3l0.3,7c0,0.3,0.2,0.5,0.4,0.5c0.2,0,0.5-0.1,0.6-0.3L165.8,305.5l0.5,0l-0.3-6.8l6.4-11.1v2.4l-7.1,15.3
		L165.8,305.5l0.5,0L165.8,305.5z"/>
	<polygon class="st1" points="116.6,304.4 116.7,311.7 165.8,312.1 165.8,303.7 	"/>
	<path class="st2" d="M116.6,304.4l-0.5,0l0.2,7.3c0,0.3,0.2,0.5,0.5,0.5l49.1,0.5c0.1,0,0.3-0.1,0.4-0.2c0.1-0.1,0.2-0.2,0.2-0.4
		v-8.4c0-0.1-0.1-0.3-0.2-0.4c-0.1-0.1-0.2-0.2-0.4-0.2l-49.2,0.6c-0.1,0-0.3,0.1-0.4,0.2c-0.1,0.1-0.2,0.2-0.2,0.4L116.6,304.4
		l0,0.5l48.7-0.6v7.3l-48-0.5l-0.2-6.8L116.6,304.4l0,0.5L116.6,304.4z"/>
	<polygon class="st1" points="165.8,312.1 173,296.8 173,292.2 165.5,305.2 	"/>
	<path class="st2" d="M165.8,312.1l0.5,0.2l7.1-15.4l0.1-0.2v-4.5c0-0.2-0.2-0.5-0.4-0.5c-0.2-0.1-0.5,0-0.6,0.3l-7.5,13
		c-0.1,0.1-0.1,0.2-0.1,0.3l0.3,7c0,0.2,0.2,0.5,0.4,0.5c0.2,0,0.5-0.1,0.6-0.3L165.8,312.1l0.5,0l-0.3-6.8l6.4-11.1v2.4l-7.1,15.3
		L165.8,312.1l0.5,0L165.8,312.1z"/>
	<path class="st1" d="M135.5,279.3c0,0,1.1-2.3-0.5-3.2c-1.6-1-3.4,1.3-4.4,2.1c-1,0.8-21.4,14.3-22,16.4c-0.6,2.1,0,6.8,4.4,7.3
		c4.4,0.5,8.3-2.4,10.2-2.9c1.9-0.5,2.8-0.6,2.8-0.6l13.4-18.1L135.5,279.3z"/>
	<path class="st2" d="M135.5,279.3l0.5,0.2c0,0,0.4-0.9,0.4-1.8c0-0.4-0.1-0.7-0.2-1.1c-0.2-0.4-0.5-0.7-0.9-1
		c-0.4-0.2-0.7-0.3-1.1-0.3c-0.9,0-1.7,0.5-2.3,1c-0.6,0.5-1.2,1.1-1.6,1.4c0,0-0.2,0.1-0.4,0.3c-1.5,1.1-6.8,4.6-11.7,8.1
		c-2.5,1.8-4.9,3.5-6.7,4.9c-0.9,0.7-1.7,1.4-2.3,1.9c-0.3,0.3-0.5,0.5-0.7,0.7c-0.2,0.2-0.3,0.4-0.4,0.7c-0.2,0.5-0.2,1.1-0.2,1.8
		c0,1.2,0.3,2.7,1.1,3.9c0.8,1.2,2.1,2.2,4,2.4c0.4,0,0.7,0.1,1.1,0.1c2.1,0,4-0.7,5.6-1.4c1.6-0.7,2.9-1.4,3.7-1.6
		c1-0.2,1.7-0.4,2.1-0.5c0.2,0,0.4-0.1,0.5-0.1c0.1,0,0.1,0,0.1,0c0.1,0,0.2-0.1,0.3-0.2l13.4-18.1c0.1-0.1,0.1-0.3,0.1-0.5
		c-0.1-0.2-0.2-0.3-0.4-0.3l-3.9-0.8L135.5,279.3l0.5,0.2L135.5,279.3l-0.1,0.5l3.1,0.6l-12.9,17.5l0.4,0.3l-0.1-0.5
		c0,0-0.8,0.2-2.8,0.7c-1,0.3-2.3,1-3.9,1.7c-1.6,0.7-3.3,1.3-5.2,1.3c-0.3,0-0.6,0-0.9-0.1c-1.6-0.2-2.6-0.9-3.2-1.9
		c-0.6-1-0.9-2.2-0.9-3.3c0-0.6,0.1-1.1,0.2-1.4l0,0c0-0.1,0.2-0.2,0.4-0.4c0.7-0.8,2.4-2.2,4.5-3.7c3.1-2.3,7.2-5.2,10.6-7.5
		c1.7-1.2,3.2-2.2,4.3-3c0.6-0.4,1-0.7,1.4-1c0.4-0.2,0.6-0.4,0.7-0.5c0.4-0.4,1-0.9,1.6-1.4c0.6-0.5,1.2-0.8,1.6-0.8
		c0.2,0,0.4,0,0.6,0.2c0.3,0.2,0.4,0.3,0.5,0.5c0.1,0.2,0.1,0.4,0.1,0.7c0,0.3-0.1,0.7-0.2,1c0,0.1-0.1,0.2-0.1,0.3l0,0.1l0,0
		c-0.1,0.2-0.1,0.3,0,0.5s0.2,0.3,0.4,0.3L135.5,279.3z"/>
	<path class="st1" d="M113,301.8c4.4,0.5,8.3-2.4,10.2-2.9c1.9-0.5,2.8-0.6,2.8-0.6l0.5-0.7l-12.6-2.6c0,0-2.3-2.3-5.2-0.5
		C108,296.6,108.7,301.3,113,301.8z"/>
	<path class="st2" d="M113,301.8l-0.1,0.5c0.4,0,0.7,0.1,1.1,0.1c2.1,0,4-0.7,5.6-1.4c1.6-0.7,2.9-1.4,3.7-1.6
		c1-0.2,1.7-0.4,2.1-0.5c0.2,0,0.4-0.1,0.5-0.1c0.1,0,0.1,0,0.1,0c0.1,0,0.2-0.1,0.3-0.2l0.5-0.7c0.1-0.1,0.1-0.3,0.1-0.5
		c-0.1-0.2-0.2-0.3-0.4-0.3l-12.6-2.6l-0.1,0.5l0.4-0.4c0,0-0.3-0.3-0.9-0.7c-0.6-0.3-1.4-0.7-2.4-0.7c-0.8,0-1.7,0.2-2.6,0.8
		c-0.1,0.1-0.2,0.2-0.2,0.3c-0.2,0.5-0.2,1.1-0.2,1.8c0,1.2,0.3,2.7,1.1,3.9c0.8,1.2,2.1,2.2,4,2.4L113,301.8l0.1-0.5
		c-1.6-0.2-2.6-0.9-3.2-1.9c-0.6-1-0.9-2.2-0.9-3.3c0-0.6,0.1-1.1,0.2-1.4l-0.5-0.2l0.3,0.5c0.7-0.5,1.4-0.6,2-0.6
		c0.7,0,1.4,0.3,1.8,0.5c0.2,0.1,0.4,0.3,0.5,0.4l0.1,0.1l0,0l0,0l0.1-0.1l-0.1,0.1l0,0l0.1-0.1l-0.1,0.1c0.1,0.1,0.2,0.1,0.3,0.1
		l12.6,2.6l0.1-0.5l-0.4-0.3l-0.5,0.7l0.4,0.3l-0.1-0.5c0,0-0.8,0.2-2.8,0.7c-1,0.3-2.3,1-3.9,1.7c-1.6,0.7-3.3,1.3-5.2,1.3
		c-0.3,0-0.6,0-0.9-0.1L113,301.8z"/>
	<path class="st1" d="M113.8,295c0,0,26.1,0,37.9,0s15.4-0.6,15.4-0.6l7.3-15.1c0,0-23,1.5-30.1,1c-7.1-0.5-8.7-1-8.7-1L113.8,295z"
		/>
	<path class="st2" d="M113.8,295v0.5c0,0,26.1,0,37.9,0c11.8,0,15.4-0.6,15.5-0.7c0.2,0,0.3-0.1,0.4-0.3l7.3-15.1
		c0.1-0.2,0.1-0.4,0-0.5c-0.1-0.2-0.3-0.3-0.5-0.2c0,0-1.1,0.1-2.8,0.2c-5.2,0.3-16.4,0.9-23.4,0.9c-1.5,0-2.9,0-3.9-0.1
		c-3.6-0.2-5.7-0.5-7-0.7c-0.6-0.1-1.1-0.2-1.3-0.2c-0.1,0-0.2,0-0.3-0.1l-0.1,0l0,0l-0.1,0.2l0.1-0.2l0,0l-0.1,0.2l0.1-0.2
		c-0.2,0-0.3,0-0.5,0.1l-21.7,15.7c-0.2,0.1-0.3,0.4-0.2,0.6c0.1,0.2,0.3,0.4,0.5,0.4V295l0.3,0.4l21.7-15.7l-0.3-0.4l-0.2,0.5
		c0.1,0,1.7,0.5,8.9,1c1,0.1,2.4,0.1,3.9,0.1c9.3,0,26.2-1.1,26.3-1.1l0-0.5l-0.5-0.2l-7.3,15.1l0.5,0.2l-0.1-0.5l0,0
		c-0.4,0.1-4.2,0.6-15.3,0.6c-5.9,0-15.4,0-23.4,0c-4,0-7.6,0-10.3,0s-4.3,0-4.3,0V295l0.3,0.4L113.8,295z"/>
	<path class="st1" d="M113.8,295l0.6,2.9c0,0,30.8,0.2,38.9,0.2c8.1,0,14.3,0.3,14.3,0.3l-0.5-4L113.8,295z"/>
	<path class="st2" d="M113.8,295l-0.5,0.1l0.6,2.9c0.1,0.2,0.3,0.4,0.5,0.4c0,0,30.8,0.2,38.9,0.2c4,0,7.6,0.1,10.1,0.2
		c1.3,0,2.3,0.1,3,0.1s1.1,0.1,1.1,0.1c0.2,0,0.3-0.1,0.4-0.2c0.1-0.1,0.2-0.3,0.1-0.4l-0.5-4c0-0.3-0.3-0.5-0.5-0.5l-53.3,0.6
		c-0.2,0-0.3,0.1-0.4,0.2c-0.1,0.1-0.1,0.3-0.1,0.5L113.8,295l0,0.5l52.8-0.6l0.4,3.6l0.5-0.1l0-0.5c0,0-6.2-0.3-14.3-0.3
		c-4,0-13.8,0-22.5-0.1c-4.4,0-8.5,0-11.5-0.1c-3,0-4.9,0-4.9,0l0,0.5l0.5-0.1l-0.6-2.9L113.8,295l0,0.5L113.8,295z"/>
	<polygon class="st1" points="167.6,298.4 174.4,282.8 174.4,279.3 167.1,294.3 	"/>
	<path class="st2" d="M167.6,298.4l0.5,0.2l6.8-15.5l0-0.2v-3.6c0-0.3-0.2-0.5-0.4-0.5c-0.2-0.1-0.5,0.1-0.6,0.3l-7.3,15.1
		c0,0.1-0.1,0.2,0,0.3l0.5,4c0,0.2,0.2,0.4,0.5,0.5c0.2,0,0.5-0.1,0.6-0.3L167.6,298.4l0.5-0.1l-0.5-3.9l6.2-12.8v1.1l-6.8,15.4
		L167.6,298.4l0.5-0.1L167.6,298.4z"/>
	<path class="st1" d="M276.9,316.6h-92.8c-0.9,0-1.6-0.7-1.6-1.6c0-0.9,0.7-1.6,1.6-1.6h92.8c0.9,0,1.6,0.7,1.6,1.6
		C278.5,315.9,277.8,316.6,276.9,316.6z"/>
	<path class="st2" d="M276.9,316.6V316h-92.8c-0.6,0-1-0.5-1-1c0-0.6,0.5-1,1-1h92.8c0.6,0,1,0.5,1,1c0,0.6-0.5,1-1,1V316.6v0.5
		c1.2,0,2.1-0.9,2.1-2.1c0-1.2-0.9-2.1-2.1-2.1h-92.8c-1.2,0-2.1,0.9-2.1,2.1c0,1.2,0.9,2.1,2.1,2.1h92.8V316.6z"/>
	<path class="st1" d="M277.7,313.4h-94.4c-0.7,0-1.3-0.6-1.4-1.3l-5.1-61.7c-0.1-0.8,0.6-1.5,1.4-1.5h104.7c0.8,0,1.5,0.7,1.4,1.5
		l-5.1,61.7C279.1,312.9,278.5,313.4,277.7,313.4z"/>
	<path class="st2" d="M277.7,313.4v-0.5h-94.4c-0.4,0-0.8-0.3-0.9-0.8l-5.1-61.7l0-0.1c0-0.5,0.4-0.9,0.9-0.9h104.7
		c0.5,0,0.9,0.4,0.9,0.9l0,0.1v0l-5.1,61.7c0,0.4-0.4,0.8-0.9,0.8V313.4v0.5c1,0,1.9-0.8,1.9-1.8l5.1-61.7v0l0-0.2
		c0-1.1-0.9-1.9-1.9-1.9H178.2c-1.1,0-1.9,0.9-1.9,1.9l0,0.2l5.1,61.7c0.1,1,0.9,1.8,1.9,1.8h94.4V313.4z"/>
	<path class="st2" d="M332,234.5c1.5-1.3,2.6-2.8,3.1-4.8c0.1-0.7,0.2-1.3,0.2-2c0-0.8-0.1-1.6-0.3-2.3c-0.1-0.3-0.4-0.5-0.7-0.4
		c-0.3,0.1-0.5,0.4-0.4,0.7c0.2,0.6,0.3,1.3,0.3,2c0,0.6-0.1,1.1-0.2,1.7c-0.4,1.7-1.3,3-2.7,4.2c-0.2,0.2-0.3,0.5-0.1,0.8
		C331.5,234.7,331.8,234.7,332,234.5z"/>
	<path class="st2" d="M321.2,282.9c0,0,1.7-1,3.4-2.7c0.9-0.8,1.7-1.8,2.4-3c0.7-1.1,1.1-2.4,1.1-3.8c0-0.9-0.2-1.9-0.6-2.8
		c-1.6-3.3-4.8-5.9-7.6-8.8c-2.8-3-5.2-6.2-5.2-10.9c0-2,0.5-3.6,1.4-5.1c1.3-2.1,3.4-3.8,5.8-5.3c2.4-1.4,4.9-2.7,7.1-3.9
		c0.3-0.1,0.3-0.5,0.2-0.7c-0.1-0.3-0.5-0.3-0.7-0.2c-2.8,1.6-6.5,3.3-9.5,5.5c-1.5,1.1-2.8,2.5-3.8,4c-1,1.6-1.6,3.4-1.5,5.6
		c0,5,2.6,8.6,5.5,11.6c2.9,3,6.1,5.6,7.4,8.5c0.4,0.8,0.5,1.6,0.5,2.3c0,1.1-0.4,2.3-1,3.3c-0.9,1.5-2.2,2.9-3.4,3.8
		c-0.6,0.5-1.1,0.8-1.5,1.1c-0.2,0.1-0.3,0.2-0.4,0.3c-0.1,0.1-0.2,0.1-0.2,0.1c-0.3,0.2-0.3,0.5-0.2,0.7
		C320.6,282.9,320.9,283,321.2,282.9L321.2,282.9z"/>
	<path class="st2" d="M329.5,282.7c0,0,1.3-0.9,2.6-2.4c1.3-1.6,2.6-3.8,2.6-6.7c0-1-0.3-1.9-0.7-2.8c-0.7-1.3-1.8-2.5-3.2-4
		c-1.4-1.4-3.1-3.1-5-5.2c-0.2-0.2-0.5-0.2-0.8,0s-0.2,0.5,0,0.8c2.5,2.9,4.8,4.9,6.3,6.6c0.8,0.9,1.4,1.6,1.8,2.4
		c0.4,0.7,0.6,1.5,0.6,2.3c0,2.5-1.2,4.5-2.4,6c-0.6,0.7-1.2,1.3-1.7,1.7c-0.2,0.2-0.4,0.3-0.5,0.4l-0.1,0.1l0,0
		c-0.2,0.2-0.3,0.5-0.2,0.8C328.9,282.8,329.2,282.8,329.5,282.7z"/>
	<path class="st2" d="M322.9,258.1L322.9,258.1L322.9,258.1L322.9,258.1L322.9,258.1L322.9,258.1c0,0-0.4-0.3-0.8-1
		c-0.4-0.6-0.8-1.5-0.8-2.7c0-0.9,0.2-1.9,0.8-3.2c0.1-0.3,0-0.6-0.2-0.7c-0.3-0.1-0.6,0-0.7,0.2c-0.7,1.4-0.9,2.6-0.9,3.7
		c0,1.4,0.5,2.6,1,3.3c0.5,0.7,1,1.1,1,1.2c0.2,0.2,0.6,0.1,0.8-0.1C323.2,258.6,323.2,258.2,322.9,258.1z"/>
	<path class="st2" d="M246.4,116.7c1.6-0.3,5.1-1.7,7.4-7.1c0.1-0.3,0-0.7-0.4-0.9c-0.3-0.1-0.7,0-0.9,0.4c-2.1,4.9-5.2,6-6.5,6.3
		c2.2-2.8,3.6-6.1,3.6-9.8c0-9.4-8.7-17-19.4-17s-19.4,7.6-19.4,17c0,3.5,1.2,6.7,3.3,9.4c-2-0.1-5.5,0.8-9.9,5.9
		c-0.2,0.3-0.2,0.7,0.1,1c0.1,0.1,0.3,0.2,0.4,0.2c0.2,0,0.4-0.1,0.5-0.2c5.6-6.5,9.3-5.4,10-5.1c-1.4,0.8-2.6,1.6-3.5,2.5
		c-6.2,5.6-10,16.2-9.6,25.1c0.5,8.9,6.2,16.2,6.2,16.2s6.3-4,11-12.3c2.4-4.3,4.2-8.2,5.4-11.1c0,4,0.5,8.8,2.6,12.2
		c4.7,7.6,11.3,8.9,15.2,8.9c1.9,0,3.2-0.3,3.2-0.3c0.2,0,0.3-0.2,0.4-0.3c5.2,1.1,10.4,1,11.2-0.1c1.3-1.8,3.1-7.3,3.7-14.1
		C262.1,131.9,254.8,121.9,246.4,116.7z M228.5,148.5c-2.6-4.3-2.5-11.3-2.2-15.3c0.1-0.3,0.2-0.5,0.2-0.5s-0.3,12.7,11,21.2
		c1.6,1.2,3.7,2.1,6,2.8C240.1,156.9,233.3,156.3,228.5,148.5z"/>
	<path class="st1" d="M228.4,127.2c0,0,0,0.3,0,0.8c0,2.2,0.8,9.1,9.5,15.8c5.9,4.5,11.6,5.5,15.5,5.5c3.1,0,5.1-0.6,5.1-0.6
		c0.1,0,0.2-0.2,0.2-0.3c0-0.1-0.2-0.2-0.3-0.2l-0.1,0c-0.4,0.1-2.2,0.6-4.8,0.6c-3.8,0-9.4-1-15.1-5.4c-8.5-6.6-9.2-13.2-9.2-15.3
		c0-0.2,0-0.4,0-0.5c0-0.1,0-0.2,0-0.2c0-0.1-0.1-0.3-0.2-0.3C228.6,126.9,228.4,127,228.4,127.2z"/>
	<path class="st1" d="M230,124.6c0,0,2.2,3.2,5.9,6.3c3.7,3.1,9.1,6.3,15.4,6.3c1.7,0,3.4-0.2,5.1-0.7c0.1,0,0.2-0.2,0.2-0.3
		c0-0.1-0.2-0.2-0.3-0.2c-1.7,0.5-3.4,0.7-5,0.7c-6.1,0-11.4-3.1-15-6.2c-1.8-1.6-3.3-3.1-4.3-4.3c-0.5-0.6-0.9-1.1-1.1-1.4
		c-0.3-0.3-0.4-0.5-0.4-0.5c-0.1-0.1-0.3-0.2-0.4-0.1C229.9,124.3,229.9,124.4,230,124.6z"/>
	<path class="st1" d="M224.9,118.9c0,0-2-1.2-4.9-1.2c-1.8,0-4.1,0.5-6.4,2c-6,4-8.9,13.2-8.9,13.2c0,0.1,0,0.3,0.2,0.3
		c0.1,0,0.3,0,0.3-0.2c0,0,0-0.1,0.1-0.4c0.6-1.8,3.5-9.2,8.5-12.5c2.2-1.5,4.3-1.9,6.1-1.9c1.4,0,2.5,0.3,3.3,0.6
		c0.4,0.1,0.7,0.3,0.9,0.4c0.1,0.1,0.2,0.1,0.2,0.1l0.1,0c0.1,0.1,0.3,0,0.4-0.1C225.1,119.1,225.1,119,224.9,118.9z"/>
	<path class="st1" d="M225.1,123.3c0,0-1-0.3-2.4-0.3c-1.6,0-3.8,0.4-5.5,2c-2.9,2.9-3.7,4.5-3.7,4.5c-0.1,0.1,0,0.3,0.1,0.4
		c0.1,0.1,0.3,0,0.4-0.1l0-0.1c0.2-0.3,1-1.8,3.5-4.3c1.5-1.5,3.5-1.9,5.1-1.9c0.7,0,1.2,0.1,1.7,0.1c0.2,0,0.4,0.1,0.5,0.1
		c0.1,0,0.2,0,0.2,0c0.1,0,0.3,0,0.3-0.2S225.3,123.4,225.1,123.3z"/>
	<polygon class="st1" points="221.4,275.6 221.4,280.1 224.3,280.1 224.3,278.9 228.7,278.9 228.7,292.7 227.4,292.7 227.4,295.6 
		233.7,295.6 233.7,292.7 232.3,292.7 232.3,278.9 236.8,278.9 236.8,280.1 239.7,280.1 239.7,275.6 	"/>
	<path class="st2" d="M221.4,273.9h-0.5v4.5c0,0.1,0.1,0.3,0.2,0.4c0.1,0.1,0.2,0.2,0.4,0.2h2.9c0.1,0,0.3-0.1,0.4-0.2
		c0.1-0.1,0.2-0.2,0.2-0.4v-0.6h3.4v12.6h-0.8c-0.1,0-0.3,0.1-0.4,0.2c-0.1,0.1-0.2,0.2-0.2,0.4v2.9c0,0.1,0.1,0.3,0.2,0.4
		c0.1,0.1,0.2,0.2,0.4,0.2h6.3c0.1,0,0.3-0.1,0.4-0.2c0.1-0.1,0.2-0.2,0.2-0.4v-2.9c0-0.1-0.1-0.3-0.2-0.4c-0.1-0.1-0.2-0.2-0.4-0.2
		h-0.8v-12.6h3.4v0.6c0,0.1,0.1,0.3,0.2,0.4c0.1,0.1,0.2,0.2,0.4,0.2h2.9c0.1,0,0.3-0.1,0.4-0.2c0.1-0.1,0.2-0.2,0.2-0.4v-4.5
		c0-0.1-0.1-0.3-0.2-0.4c-0.1-0.1-0.2-0.2-0.4-0.2h-18.3c-0.1,0-0.3,0.1-0.4,0.2c-0.1,0.1-0.2,0.2-0.2,0.4H221.4v0.5h17.7v3.4h-1.8
		v-0.6c0-0.1-0.1-0.3-0.2-0.4c-0.1-0.1-0.2-0.2-0.4-0.2h-4.4c-0.1,0-0.3,0.1-0.4,0.2c-0.1,0.1-0.2,0.2-0.2,0.4v13.7
		c0,0.1,0.1,0.3,0.2,0.4c0.1,0.1,0.2,0.2,0.4,0.2h0.8v1.8h-5.2v-1.8h0.8c0.1,0,0.3-0.1,0.4-0.2c0.1-0.1,0.2-0.2,0.2-0.4v-13.7
		c0-0.1-0.1-0.3-0.2-0.4c-0.1-0.1-0.2-0.2-0.4-0.2h-4.4c-0.1,0-0.3,0.1-0.4,0.2c-0.1,0.1-0.2,0.2-0.2,0.4v0.6h-1.8v-4H221.4v0.5
		V273.9z"/>
</g>
</svg>
