<?xml version="1.0" encoding="utf-8"?>
<!-- Generator: Adobe Illustrator 24.0.2, SVG Export Plug-In . SVG Version: 6.00 Build 0)  -->
<svg version="1.1" id="Capa_1" xmlns="http://www.w3.org/2000/svg" xmlns:xlink="http://www.w3.org/1999/xlink" x="0px" y="0px"
	 viewBox="0 0 485.3 545.9" style="enable-background:new 0 0 485.3 545.9;" xml:space="preserve">
<style type="text/css">
	.st0{fill:#0068BA;}
	.st1{fill:#FAFAFA;}
	.st2{fill-rule:evenodd;clip-rule:evenodd;fill:#0068BA;}
	.st3{fill:#263238;}
	.st4{fill:#FD5000;}
	.st5{fill:#E8505B;}
	.st6{fill:#C13C06;}
	.st7{fill:#FFFFFF;}
	.st8{fill:#EBEBEB;}
	.st9{fill:#E0E0E0;}
	.st10{fill:#F5F5F5;}
	.st11{fill:#455A64;}
	.st12{fill:#FFBE9D;}
	.st13{fill:#EB996E;}
	.st14{fill:#B2B2B2;}
	.st15{fill:#A23840;}
	.st16{fill:#1B2327;}
	.st17{fill:#303F46;}
</style>
<g>
	<path class="st0" d="M347.8,521.8c0,10.7-43.4,19.4-96.9,19.4c-53.5,0-96.9-8.7-96.9-19.4c0-10.7,43.4-19.4,96.9-19.4
		C304.4,502.4,347.8,511.1,347.8,521.8"/>
	<path class="st0" d="M250.9,502.4c-2.4,0-4.7,0-7.1,0.1l0,16.4l-43.3,0.3c0.2-4.1,22.6-12.6,22.6-12.6l-0.1-3.4
		c-39.9,2.4-68.9,9.8-68.9,18.6c0,10.7,43.4,19.4,96.9,19.4c53.5,0,96.9-8.7,96.9-19.4c0-8-24-14.8-58.3-17.8l0.6,14.3l-19.8,0.4
		l-0.7-16C263.6,502.5,257.3,502.4,250.9,502.4"/>
	<path class="st1" d="M57.1,166.2c-1.3,0-2.9,0-4.7,0c-0.5,0-1,0-1.4,0.2c-0.5,0.2-0.9,0.5-1.1,1c-0.1,0.2-0.2,0.5-0.3,0.8
		c0,0.3,0,0.5,0,0.8c0,0.3,0,0.6,0,0.9c0,0.3,0,0.6-0.1,0.9c-0.1,0.6-0.5,1.2-1.1,1.5c-0.3,0.2-0.6,0.3-0.9,0.3c-0.3,0-0.7,0-1,0
		c-1.3,0-2.8,0-4.2,0c-3,0-6.2,0-9.6,0c-0.9,0-1.7,0-2.6,0c-0.2,0-0.4,0-0.7,0c-0.2,0-0.5,0-0.7-0.1c-0.5-0.1-0.9-0.4-1.2-0.7
		c-0.3-0.4-0.5-0.8-0.6-1.3c0-0.2,0-0.5,0-0.7c0-0.2,0-0.5,0-0.7c0-0.5,0-1-0.1-1.4c-0.2-0.4-0.5-0.8-0.8-1.1
		c-0.4-0.3-0.9-0.4-1.4-0.4c-0.5,0-1,0-1.5,0c-1,0-2,0-3.1,0c-2.1,0-4.2,0-6.4,0c-1.1,0-2.2,0.1-3.2,0.6c-1,0.4-1.9,1.1-2.6,2
		c-0.7,0.9-1.2,1.9-1.5,3c-0.1,0.3-0.1,0.6-0.1,0.8c0,0.2,0,0.5,0,0.7v47.3c0,0.6,0,1.2,0,1.9c0,1.9,0,3.9,0,5.8v61.4
		c0,0.8,0.1,1.5,0.3,2.3c0.5,1.5,1.5,2.9,2.8,3.9c1.4,0.9,3,1.4,4.6,1.3c1.6,0,3.3,0,4.9,0c3.3,0,6.5,0,9.8,0c6.5,0,12.8,0,19.1,0
		c3.1,0,6.2,0,9.3,0c1.5,0,3.1,0,4.6,0c1.5-0.1,2.9-0.7,4.1-1.6c0.6-0.5,1.1-1,1.5-1.6c0.4-0.6,0.7-1.3,0.9-2
		c0.2-0.7,0.3-1.4,0.3-2.2c0-0.7,0-1.5,0-2.2c0-2.9,0-5.8,0-8.7c0-22.9,0-43.5,0-60.8c0-17.3,0-31.3,0-41c0-1.2,0-2.4,0-3.4
		c0-1.1-0.2-2.1-0.5-2.9c-0.4-0.9-0.8-1.6-1.4-2.2c-0.5-0.6-1.1-1-1.6-1.3c-1.1-0.7-2.1-0.9-2.7-1c-0.3-0.1-0.6,0-0.7-0.1
		c-0.2,0-0.2,0-0.2,0s-0.3,0-1,0C59.3,166.2,58.4,166.2,57.1,166.2z"/>
	<path class="st1" d="M468.1,166.2c-1.3,0-2.9,0-4.7,0c-0.5,0-1,0-1.4,0.2c-0.5,0.2-0.9,0.5-1.1,1c-0.1,0.2-0.2,0.5-0.3,0.8
		c-0.1,0.3,0,0.5,0,0.8c0,0.3,0,0.6,0,0.9c0,0.3,0,0.6-0.1,0.9c-0.1,0.6-0.5,1.2-1.1,1.5c-0.3,0.2-0.6,0.3-0.9,0.3c-0.3,0-0.7,0-1,0
		c-1.3,0-2.8,0-4.2,0c-3,0-6.2,0-9.6,0c-0.9,0-1.7,0-2.6,0c-0.2,0-0.4,0-0.7,0c-0.2,0-0.5,0-0.7-0.1c-0.5-0.1-0.9-0.4-1.2-0.7
		c-0.3-0.4-0.5-0.8-0.6-1.3c0-0.2,0-0.5,0-0.7c0-0.2,0-0.5,0-0.7c0-0.5,0-1-0.1-1.4c-0.2-0.4-0.5-0.8-0.8-1.1
		c-0.4-0.3-0.9-0.4-1.4-0.4c-0.5,0-1,0-1.5,0c-1,0-2,0-3.1,0c-2.1,0-4.2,0-6.4,0c-1.1,0-2.2,0.1-3.2,0.6c-1,0.4-1.9,1.1-2.6,2
		c-0.7,0.9-1.2,1.9-1.5,3c-0.1,0.3-0.1,0.6-0.1,0.8c0,0.2,0,0.5,0,0.7v47.3c0,0.6,0,1.2,0,1.9c0,1.9,0,3.9,0,5.8v61.4
		c0,0.8,0.1,1.5,0.3,2.3c0.5,1.5,1.5,2.9,2.8,3.9c1.4,0.9,3,1.4,4.6,1.3c1.6,0,3.3,0,4.9,0c3.3,0,6.5,0,9.8,0c6.5,0,12.8,0,19.1,0
		c3.1,0,6.2,0,9.3,0c1.5,0,3.1,0,4.6,0c1.5-0.1,2.9-0.7,4.1-1.6c0.6-0.5,1.1-1,1.5-1.6c0.4-0.6,0.7-1.3,0.9-2
		c0.2-0.7,0.3-1.4,0.3-2.2c0-0.7,0-1.5,0-2.2c0-2.9,0-5.8,0-8.7c0-22.9,0-43.5,0-60.8c0-17.3,0-31.3,0-41c0-1.2,0-2.4,0-3.4
		c0-1.1-0.2-2.1-0.5-2.9c-0.4-0.9-0.8-1.6-1.4-2.2c-0.5-0.6-1.1-1-1.6-1.3c-1.1-0.7-2.1-0.9-2.7-1c-0.3-0.1-0.6,0-0.7-0.1
		c-0.2,0-0.2,0-0.2,0s-0.3,0-1,0C470.3,166.2,469.3,166.2,468.1,166.2z"/>
	<path class="st2" d="M199.7,73.3c0.3,2.1,0.4,4.2,0.2,6.3l4.8,3.2l-3.5,9l-5.8-0.8c-1.2,1.7-2.7,3.2-4.3,4.6l1.1,5.7l-8.8,3.9
		l-3.5-4.7c-2.1,0.3-4.2,0.4-6.3,0.2l-3.2,4.8l-9-3.5l0.8-5.8c-1.7-1.2-3.2-2.7-4.6-4.3l-5.7,1.1l-3.9-8.8l4.7-3.5
		c-0.3-2.1-0.4-4.2-0.2-6.3l-4.8-3.2l3.5-9l5.8,0.8c1.2-1.7,2.7-3.2,4.3-4.6l-1.1-5.7l8.8-3.9l3.5,4.7c2.1-0.3,4.2-0.4,6.3-0.2
		l3.2-4.8l9,3.5l-0.8,5.8c1.7,1.2,3.2,2.7,4.6,4.3l5.7-1.1l3.9,8.8L199.7,73.3z M185.9,73.2c-2.3-5.2-8.4-7.6-13.6-5.3
		c-5.2,2.3-7.6,8.4-5.3,13.6c2.3,5.2,8.4,7.6,13.6,5.3C185.9,84.6,188.2,78.5,185.9,73.2z"/>
	<path class="st2" d="M192.7,21.1c0.2,1.4,0.3,2.8,0.1,4.1l3.2,2.1l-2.3,5.9l-3.8-0.6c-0.8,1.1-1.8,2.1-2.9,3l0.7,3.8l-5.8,2.6
		l-2.3-3.1c-1.4,0.2-2.8,0.3-4.2,0.1l-2.1,3.2l-5.9-2.3l0.6-3.8c-1.1-0.8-2.1-1.8-3-2.9l-3.8,0.7l-2.6-5.8l3.1-2.3
		c-0.2-1.4-0.3-2.8-0.1-4.2l-3.2-2.1l2.3-5.9l3.8,0.6c0.8-1.1,1.8-2.1,2.9-3l-0.7-3.8l5.8-2.6l2.3,3.1c1.4-0.2,2.8-0.3,4.2-0.1
		l2.1-3.2L187,7l-0.6,3.8c1.1,0.8,2.1,1.8,3,2.9l3.8-0.7l2.6,5.8L192.7,21.1z M183.6,21c-1.5-3.4-5.6-5-9-3.5s-5,5.6-3.5,9
		c1.5,3.4,5.6,5,9,3.5C183.6,28.5,185.1,24.5,183.6,21z"/>
	<path class="st2" d="M359.2,407.8c0.4,2.5,0.4,4.9,0.2,7.4l5.7,3.8l-4.1,10.5l-6.8-1c-1.4,2-3.1,3.8-5.1,5.3l1.3,6.7l-10.3,4.6
		l-4.1-5.5c-2.5,0.4-4.9,0.4-7.4,0.2l-3.8,5.7l-10.5-4.1l1-6.8c-2-1.4-3.8-3.1-5.3-5.1l-6.7,1.3l-4.6-10.3l5.5-4.1
		c-0.4-2.5-0.4-4.9-0.2-7.4l-5.7-3.8l4.1-10.5l6.8,1c1.4-2,3.1-3.8,5.1-5.3l-1.3-6.7l10.3-4.6l4.1,5.5c2.5-0.4,4.9-0.4,7.4-0.2
		l3.8-5.7l10.5,4.1l-1,6.8c2,1.4,3.8,3.1,5.3,5.1l6.7-1.3l4.6,10.3L359.2,407.8z M343,407.7c-2.7-6.1-9.9-8.9-16-6.2
		c-6.1,2.7-8.9,9.9-6.2,16c2.7,6.1,9.9,8.9,16,6.2C342.9,421,345.7,413.9,343,407.7z"/>
	<path class="st2" d="M231.4,50c0.2,1.3,0.2,2.5,0.1,3.7l2.9,1.9l-2.1,5.4l-3.4-0.5c-0.7,1-1.6,1.9-2.6,2.7l0.7,3.4l-5.3,2.3
		l-2.1-2.8c-1.3,0.2-2.5,0.2-3.7,0.1l-1.9,2.9l-5.4-2.1l0.5-3.4c-1-0.7-1.9-1.6-2.7-2.6l-3.4,0.7l-2.3-5.3l2.8-2.1
		c-0.2-1.3-0.2-2.5-0.1-3.7l-2.9-1.9l2.1-5.4l3.4,0.5c0.7-1,1.6-1.9,2.6-2.7l-0.7-3.4l5.3-2.3l2.1,2.8c1.3-0.2,2.5-0.2,3.7-0.1
		l1.9-2.9l5.4,2.1l-0.5,3.4c1,0.7,1.9,1.6,2.7,2.6l3.4-0.7l2.3,5.3L231.4,50z M223.2,49.9c-1.4-3.1-5-4.5-8.1-3.1
		c-3.1,1.4-4.5,5-3.1,8.1c1.4,3.1,5,4.5,8.1,3.1C223.2,56.7,224.6,53.1,223.2,49.9z"/>
	<path class="st1" d="M121.3,117.1c-2,0-4.6,0-7.5,0c-0.7,0-1.5-0.1-2.3,0.2c-0.7,0.3-1.4,0.9-1.8,1.6c-0.2,0.4-0.3,0.8-0.4,1.2
		c-0.1,0.4-0.1,0.9-0.1,1.3c0,0.5,0,0.9,0,1.4c0,0.5,0,1-0.1,1.4c-0.2,1-0.8,1.9-1.7,2.4c-0.4,0.3-0.9,0.5-1.5,0.5
		c-0.5,0-1.1,0-1.6,0c-2.2,0-4.4,0-6.8,0c-4.7,0-9.8,0-15.3,0c-1.4,0-2.8,0-4.2,0c-0.4,0-0.7,0-1.1,0c-0.4,0-0.7,0-1.1-0.1
		c-0.7-0.2-1.4-0.6-1.9-1.2c-0.5-0.6-0.8-1.3-0.9-2c-0.1-0.4,0-0.8,0-1.1c0-0.4,0-0.8,0-1.1c0-0.8,0.1-1.5-0.2-2.2
		c-0.2-0.7-0.7-1.3-1.3-1.8c-0.6-0.4-1.4-0.6-2.2-0.6c-0.8,0-1.6,0-2.4,0c-1.6,0-3.2,0-4.9,0c-3.3,0-6.7,0-10.1,0
		c-1.7,0-3.5,0.2-5.1,1c-1.6,0.7-3.1,1.8-4.2,3.2c-1.2,1.4-2,3-2.4,4.8c-0.1,0.4-0.2,0.9-0.2,1.4c0,0.4,0,0.8-0.1,1.2V204
		c0,1,0,2,0,3c0,3,0,6.1,0,9.2v98c0,1.2,0.1,2.5,0.5,3.7c0.7,2.5,2.3,4.7,4.5,6.2c2.2,1.5,4.8,2.2,7.4,2c2.6,0,5.2,0,7.9,0
		c5.2,0,10.4,0,15.6,0c10.3,0,20.4,0,30.4,0c5,0,9.9,0,14.8,0c2.4,0,4.9,0,7.3,0c2.4-0.1,4.7-1.1,6.5-2.5c0.9-0.8,1.7-1.6,2.4-2.6
		c0.7-1,1.1-2.1,1.4-3.2c0.3-1.1,0.4-2.3,0.4-3.5c0-1.2,0-2.3,0-3.5c0-4.7,0-9.3,0-13.9c0-36.5,0-69.4,0.1-97c0-27.6,0-50,0.1-65.4
		c0-1.9,0-3.8,0-5.5c0-1.7-0.3-3.3-0.8-4.7c-0.6-1.4-1.3-2.5-2.2-3.4c-0.8-0.9-1.7-1.6-2.6-2.1c-1.7-1.1-3.3-1.4-4.3-1.5
		c-0.5-0.1-0.9-0.1-1.2-0.1c-0.3,0-0.4,0-0.4,0s-0.5,0-1.6,0C124.9,117.1,123.3,117.1,121.3,117.1z"/>
	<path class="st3" d="M127.6,117.2c0,0,0.1,0,0.4,0c0.3,0,0.7,0,1.2,0.1c1,0.1,2.6,0.5,4.3,1.5c0.9,0.5,1.8,1.2,2.6,2.1
		c0.9,0.9,1.6,2.1,2.2,3.5c0.6,1.4,0.9,3,0.9,4.7c0,1.7,0,3.5,0,5.5c0,15.4,0,37.8,0,65.4c0,27.6,0,60.5,0,97c0,4.6,0,9.2,0,13.9
		c0,1.2,0,2.3,0,3.5c0,1.2-0.1,2.4-0.4,3.5c-0.3,1.1-0.8,2.3-1.5,3.3c-0.7,1-1.5,1.9-2.4,2.7c-1.9,1.5-4.2,2.5-6.7,2.6
		c-2.4,0.1-4.8,0-7.3,0c-4.9,0-9.8,0-14.8,0c-9.9,0-20,0-30.3,0c-5.1,0-10.3,0-15.5,0c-2.6,0-5.2,0-7.8,0c-2.6,0.1-5.4-0.6-7.6-2.1
		c-2.2-1.5-3.8-3.8-4.6-6.3c-0.4-1.3-0.5-2.6-0.5-3.9c0-1.3,0-2.6,0-3.9c0-5.2,0-10.4,0-15.5c0-10.3,0-20.4,0-30.3
		c0-19.9,0-39,0-57.3c0-18.3,0-35.6,0-51.8c0-8.1,0-16,0-23.5c0-0.9,0-1.9,0-2.8c0-0.5,0-0.9,0.1-1.4c0.1-0.5,0.1-0.9,0.2-1.4
		c0.4-1.8,1.3-3.5,2.4-4.9c1.2-1.4,2.7-2.5,4.3-3.2c1.6-0.7,3.4-1,5.2-1c3.5,0,6.8,0,10.1,0c1.6,0,3.3,0,4.9,0c0.8,0,1.6,0,2.4,0
		c0.8,0,1.6,0.2,2.3,0.6c0.7,0.5,1.2,1.1,1.4,1.9c0.3,0.7,0.2,1.5,0.2,2.3c0,0.4,0,0.8,0,1.1c0,0.4,0,0.7,0,1.1
		c0.1,0.7,0.4,1.4,0.9,1.9c0.5,0.5,1.1,0.9,1.8,1.1c0.3,0.1,0.7,0.1,1,0.1c0.4,0,0.7,0,1.1,0c1.4,0,2.8,0,4.2,0c5.5,0,10.6,0,15.3,0
		c2.3,0,4.6,0,6.7,0c0.5,0,1.1,0,1.6,0c0.5-0.1,1-0.2,1.4-0.5c0.9-0.5,1.4-1.4,1.6-2.3c0.1-0.5,0.1-0.9,0.1-1.4c0-0.5,0-0.9,0-1.4
		c0-0.5,0-0.9,0.1-1.4c0.1-0.4,0.2-0.9,0.4-1.2c0.4-0.8,1.1-1.3,1.9-1.6c0.8-0.3,1.6-0.2,2.3-0.2c3,0,5.5,0,7.5,0c2,0,3.6,0,4.6,0
		C127.1,117.2,127.6,117.2,127.6,117.2s-0.5,0-1.6,0c-1,0-2.6,0-4.6,0c-2,0-4.5,0-7.5,0c-0.7,0-1.5-0.1-2.3,0.2
		c-0.7,0.3-1.4,0.9-1.8,1.6c-0.2,0.4-0.3,0.8-0.4,1.2c-0.1,0.4-0.1,0.9-0.1,1.3c0,0.5,0,0.9,0,1.4c0,0.5,0,1-0.1,1.4
		c-0.2,1-0.8,1.9-1.7,2.4c-0.4,0.3-0.9,0.5-1.5,0.5c-0.5,0-1.1,0-1.6,0c-2.1,0-4.4,0-6.7,0c-4.7,0-9.8,0-15.3,0c-1.4,0-2.8,0-4.2,0
		c-0.4,0-0.7,0-1.1,0c-0.4,0-0.7,0-1.1-0.1c-0.7-0.2-1.4-0.6-1.9-1.2c-0.5-0.6-0.8-1.3-0.9-2c-0.1-0.4,0-0.8,0-1.1
		c0-0.4,0-0.8,0-1.1c0-0.8,0.1-1.5-0.2-2.2c-0.2-0.7-0.7-1.3-1.3-1.8c-0.6-0.4-1.4-0.6-2.2-0.6c-0.8,0-1.6,0-2.4,0
		c-1.6,0-3.2,0-4.9,0c-3.3,0-6.7,0-10.1,0c-1.7,0-3.5,0.2-5.1,1c-1.6,0.7-3.1,1.8-4.2,3.2c-1.1,1.4-2,3-2.4,4.8
		c-0.1,0.4-0.2,0.9-0.2,1.4c0,0.5-0.1,0.9-0.1,1.4c0,0.9,0,1.9,0,2.8c0,7.5,0,15.4,0,23.5c0,16.2,0,33.6,0,51.8
		c0,18.3,0,37.4,0,57.3c0,9.9,0,20,0,30.3c0,5.1,0,10.3,0,15.5c0,1.3,0,2.6,0,3.9c0,1.3,0.1,2.6,0.5,3.8c0.7,2.5,2.3,4.7,4.5,6.2
		c2.1,1.5,4.8,2.2,7.4,2c2.6,0,5.2,0,7.8,0c5.2,0,10.4,0,15.5,0c10.3,0,20.4,0,30.3,0c5,0,9.9,0,14.8,0c2.4,0,4.9,0,7.3,0
		c2.4-0.1,4.7-1.1,6.5-2.5c0.9-0.8,1.7-1.6,2.4-2.6c0.7-1,1.1-2.1,1.4-3.2c0.3-1.1,0.4-2.3,0.4-3.5c0-1.2,0-2.3,0-3.5
		c0-4.7,0-9.3,0-13.9c0-36.5,0-69.4,0.1-97c0-27.6,0-50,0.1-65.4c0-1.9,0-3.8,0-5.5c0-1.7-0.3-3.3-0.8-4.7c-0.6-1.4-1.3-2.5-2.2-3.4
		c-0.8-0.9-1.7-1.6-2.6-2.1c-1.7-1.1-3.3-1.4-4.3-1.5c-0.5-0.1-0.9-0.1-1.2-0.1C127.8,117.3,127.6,117.2,127.6,117.2z"/>
	<path class="st3" d="M129.9,136c0,0-1.9,0.1-4.3,0.1c-2.4,0-4.3,0-4.3-0.1c0,0,1.9-0.1,4.3-0.1C127.9,135.9,129.9,136,129.9,136z"
		/>
	<path class="st3" d="M129.9,138.2c0,0-1.9,0.1-4.3,0.1c-2.4,0-4.3,0-4.3-0.1c0,0,1.9-0.1,4.3-0.1
		C128,138.1,129.9,138.2,129.9,138.2z"/>
	<path class="st3" d="M129.9,140.4c0,0-1.9,0.1-4.3,0.1c-2.4,0-4.3,0-4.3-0.1c0,0,1.9-0.1,4.3-0.1
		C128,140.3,129.9,140.4,129.9,140.4z"/>
	<path class="st3" d="M52,142.9c0,0,0.1,0,0.2,0c0.1,0,0.3,0,0.5,0c0.5,0,1.1,0,1.8,0l-0.1,0.1c0-0.4,0-0.8,0-1.3c0-0.2,0-0.5,0-0.8
		c0-0.3,0.3-0.5,0.6-0.6c0.3,0,0.6,0,0.9,0c0.3,0,0.6,0.4,0.6,0.7c0,0.6,0,1.3,0,1.9l-0.1-0.1c0.7,0,1.5,0,2.3,0l-0.1,0.1
		c0-0.9,0-1.9,0-2.9c0-0.2,0-0.5,0-0.7c0-0.2-0.1-0.4-0.3-0.5c-0.3-0.3-0.7-0.7-1-1c-0.3-0.3-0.7-0.6-1-1c-0.2-0.2-0.3-0.3-0.5-0.5
		c-0.2-0.2-0.3-0.3-0.5-0.4c-0.2,0-0.4,0-0.5,0.1c-0.1,0.1-0.3,0.3-0.4,0.4c-0.3,0.3-0.6,0.6-0.8,0.8c-0.5,0.5-1.1,1-1.5,1.5
		c-0.2,0.3-0.1,0.6-0.1,0.9c0,0.3,0,0.6,0,0.8c0,0.5,0,0.9,0,1.3c0,0.3,0,0.6,0,0.8C52,142.8,52,142.9,52,142.9c0,0,0-0.1,0-0.3
		c0-0.2,0-0.5,0-0.8c0-0.4,0-0.8,0-1.3c0-0.3,0-0.5,0-0.8c0-0.1,0-0.3,0-0.5c0-0.2,0-0.3,0.1-0.5c0.4-0.5,0.9-1,1.5-1.5
		c0.3-0.3,0.5-0.6,0.8-0.8c0.1-0.1,0.3-0.3,0.4-0.4c0.2-0.1,0.4-0.2,0.7-0.1c0.2,0.1,0.4,0.3,0.6,0.4c0.2,0.2,0.3,0.3,0.5,0.5
		c0.3,0.3,0.6,0.6,1,1c0.3,0.3,0.7,0.7,1,1c0.1,0.1,0.2,0.2,0.3,0.3c0.1,0.1,0.1,0.3,0.1,0.4c0,0.2,0,0.5,0,0.7c0,1,0,1.9,0,2.9
		l0,0.1l-0.1,0c-0.8,0-1.6,0-2.3,0l-0.1,0l0-0.1c0-0.7,0-1.3,0-1.9c0-0.3-0.2-0.5-0.5-0.6c-0.3,0-0.6,0-0.8,0
		c-0.2,0-0.5,0.2-0.5,0.4c0,0.2,0,0.5,0,0.7c0,0.5,0,0.9,0,1.3v0.1h-0.1c-0.8,0-1.4,0-1.9,0c-0.2,0-0.3,0-0.5,0
		C52.1,142.9,52,142.9,52,142.9z"/>
	<path class="st3" d="M110.1,219.6c0,0.3-9.2,0.6-20.5,0.6c-11.3,0-20.5-0.3-20.5-0.6c0-0.3,9.2-0.6,20.5-0.6
		C101,219,110.1,219.3,110.1,219.6z"/>
	
		<rect x="69.8" y="159.5" transform="matrix(5.566136e-03 -1 1 5.566136e-03 -96.7724 274.676)" class="st4" width="39.8" height="52.9"/>
	<polygon class="st5" points="63.2,205.7 81.8,181.1 93.1,196.6 100.9,188.4 116.1,206 	"/>
	<path class="st5" d="M98.1,178.2c0,2.3-1.9,4.2-4.2,4.1s-4.2-1.9-4.1-4.2s1.9-4.2,4.2-4.1C96.3,174,98.1,175.9,98.1,178.2z"/>
	<polygon class="st6" points="63.2,205.7 81.8,181.1 93.1,196.6 100.9,188.4 116.1,206 	"/>
	<path class="st6" d="M98.1,178.2c0,2.3-1.9,4.2-4.2,4.1s-4.2-1.9-4.1-4.2s1.9-4.2,4.2-4.1C96.3,174,98.1,175.9,98.1,178.2z"/>
	<path class="st3" d="M126.1,234.2c0,0.3-16.3,0.6-36.3,0.6c-20.1,0-36.3-0.3-36.3-0.6c0-0.3,16.3-0.6,36.3-0.6
		C109.8,233.6,126.1,233.9,126.1,234.2z"/>
	<path class="st3" d="M126.1,244.4c0,0.3-16.3,0.6-36.3,0.6c-20.1,0-36.3-0.3-36.3-0.6c0-0.3,16.3-0.6,36.3-0.6
		C109.8,243.8,126.1,244,126.1,244.4z"/>
	<path class="st3" d="M126.1,254.5c0,0.3-16.3,0.6-36.3,0.6c-20.1,0-36.3-0.3-36.3-0.6c0-0.3,16.3-0.6,36.3-0.6
		C109.8,253.9,126.1,254.2,126.1,254.5z"/>
	<path class="st3" d="M126.1,264.6c0,0.3-16.3,0.6-36.3,0.6c-20.1,0-36.3-0.3-36.3-0.6c0-0.3,16.3-0.6,36.3-0.6
		C109.8,264,126.1,264.3,126.1,264.6z"/>
	<path class="st3" d="M126.1,274.7c0,0.3-16.3,0.6-36.3,0.6c-20.1,0-36.3-0.3-36.3-0.6s16.3-0.6,36.3-0.6
		C109.8,274.1,126.1,274.4,126.1,274.7z"/>
	<path class="st3" d="M110.5,284c0,0.2-2.3,0.3-6.1,0.4c-3.8,0.1-9,0.2-14.7,0.2c-5.8,0-11-0.1-14.7-0.2c-3.8-0.1-6.1-0.3-6.1-0.4
		s2.3-0.3,6.1-0.4c3.8-0.1,9-0.2,14.7-0.2c5.8,0,11,0.1,14.7,0.2C108.1,283.7,110.5,283.8,110.5,284z"/>
	<path class="st1" d="M193.9,100.1c-2.3,0-5.1,0-8.4,0c-0.8,0-1.7-0.1-2.5,0.3c-0.8,0.3-1.5,0.9-2,1.8c-0.2,0.4-0.4,0.9-0.5,1.3
		c-0.1,0.5-0.1,1-0.1,1.5c0,0.5,0,1,0,1.5c0,0.5,0,1.1-0.1,1.6c-0.2,1.1-0.9,2.1-1.9,2.7c-0.5,0.3-1.1,0.5-1.6,0.6
		c-0.6,0.1-1.2,0-1.8,0c-2.4,0-4.9,0-7.5,0c-5.2,0-10.9,0-17,0c-1.5,0-3.1,0-4.7,0c-0.4,0-0.8,0-1.2,0c-0.4,0-0.8,0-1.2-0.1
		c-0.8-0.2-1.5-0.7-2.1-1.3c-0.6-0.6-0.9-1.4-1-2.3c-0.1-0.4,0-0.8,0-1.3c0-0.4,0-0.8,0-1.3c0-0.8,0.1-1.7-0.3-2.5
		c-0.3-0.8-0.8-1.5-1.5-2c-0.7-0.5-1.5-0.7-2.4-0.7c-0.9,0-1.8,0-2.7,0c-1.8,0-3.6,0-5.4,0c-3.7,0-7.4,0-11.3,0
		c-1.9,0-3.9,0.3-5.6,1.1c-1.8,0.8-3.4,2-4.7,3.5c-1.3,1.5-2.2,3.4-2.7,5.4c-0.1,0.5-0.2,1-0.3,1.5c0,0.4,0,0.9-0.1,1.3V197
		c0,1.1,0,2.2,0,3.4c0,3.4,0,6.9,0,10.3v109.2c0,1.4,0.1,2.8,0.5,4.1c0.8,2.8,2.6,5.2,5,6.9c2.4,1.7,5.3,2.4,8.2,2.3
		c2.9,0,5.8,0,8.7,0c5.8,0,11.6,0,17.3,0c11.4,0,22.7,0,33.8,0c5.5,0,11,0,16.5,0c2.7,0,5.4,0,8.1,0c2.7-0.1,5.2-1.2,7.3-2.8
		c1-0.8,1.9-1.8,2.6-2.9c0.7-1.1,1.2-2.3,1.6-3.5c0.4-1.2,0.5-2.6,0.5-3.9c0-1.3,0-2.6,0-3.9c0-5.2,0-10.4,0-15.5
		c0-40.7,0-77.4,0.1-108.2c0-30.8,0.1-55.7,0.1-73c0-2.2,0-4.2,0-6.1c0-1.9-0.3-3.7-0.9-5.2c-0.6-1.5-1.5-2.8-2.4-3.8
		c-0.9-1-1.9-1.8-2.9-2.4c-1.9-1.2-3.7-1.6-4.8-1.7c-0.6-0.1-1-0.1-1.3-0.1c-0.3,0-0.4,0-0.4,0s-0.6,0-1.8,0
		C197.9,100.1,196.1,100.1,193.9,100.1z"/>
	<path class="st3" d="M200.9,100c0,0,0.1,0,0.4,0c0.3,0,0.7,0,1.3,0.1c1.1,0.1,2.9,0.5,4.9,1.7c1,0.6,2,1.4,2.9,2.4
		c0.9,1,1.8,2.3,2.5,3.9c0.6,1.5,1,3.3,1,5.2c0,1.9,0,3.9,0,6.1c0,17.2,0,42.2,0,73c0,30.8,0,67.5,0,108.2c0,5.1,0,10.2,0,15.5
		c0,1.3,0,2.6,0,3.9c0,1.3-0.1,2.7-0.5,3.9c-0.4,1.3-0.9,2.5-1.7,3.6c-0.7,1.1-1.7,2.1-2.7,3c-2.1,1.7-4.7,2.8-7.5,2.9
		c-2.7,0.1-5.4,0-8.1,0c-5.4,0-10.9,0-16.5,0c-11.1,0-22.4,0-33.8,0c-5.7,0-11.5,0-17.3,0c-2.9,0-5.8,0-8.7,0
		c-2.9,0.1-6-0.6-8.4-2.3c-2.5-1.7-4.3-4.2-5.1-7.1c-0.5-1.4-0.5-2.9-0.5-4.4c0-1.5,0-2.9,0-4.4c0-5.8,0-11.6,0-17.3
		c0-11.4,0-22.7,0-33.8c0-22.2,0-43.5,0-63.9c0-20.4,0-39.7,0-57.8c0-9.1,0-17.8,0-26.2c0-1.1,0-2.1,0-3.1c0-0.5,0-1,0.1-1.6
		c0.1-0.5,0.1-1,0.3-1.5c0.5-2,1.4-3.9,2.7-5.5c1.3-1.6,3-2.8,4.8-3.6c1.8-0.8,3.8-1.1,5.7-1.1c3.8,0,7.6,0,11.3,0
		c1.8,0,3.6,0,5.4,0c0.9,0,1.8,0,2.7,0c0.9,0,1.8,0.2,2.5,0.7c0.7,0.5,1.3,1.2,1.6,2.1c0.3,0.8,0.3,1.7,0.3,2.6c0,0.4,0,0.8,0,1.3
		c0,0.4,0,0.8,0,1.2c0.1,0.8,0.4,1.6,1,2.2c0.5,0.6,1.2,1,2,1.2c0.4,0.1,0.8,0.1,1.2,0.1c0.4,0,0.8,0,1.2,0c1.6,0,3.1,0,4.7,0
		c6.1,0,11.8,0,17,0c2.6,0,5.1,0,7.5,0c0.6,0,1.2,0,1.8,0c0.6-0.1,1.1-0.3,1.6-0.6c0.9-0.6,1.6-1.6,1.8-2.6c0.1-0.5,0.1-1,0.1-1.6
		c0-0.5,0-1,0-1.5c0-0.5,0-1,0.1-1.5c0.1-0.5,0.3-1,0.5-1.4c0.5-0.9,1.2-1.5,2.1-1.8c0.8-0.4,1.8-0.3,2.6-0.3c3.3,0,6.1,0,8.4,0
		c2.3,0,4,0,5.2,0C200.3,100,200.9,100,200.9,100s-0.6,0-1.8,0c-1.2,0-2.9,0-5.2,0c-2.3,0-5.1,0-8.4,0c-0.8,0-1.7-0.1-2.5,0.3
		c-0.8,0.3-1.5,0.9-2,1.8c-0.2,0.4-0.4,0.9-0.5,1.3c-0.1,0.5-0.1,1-0.1,1.5c0,0.5,0,1,0,1.5c0,0.5,0,1.1-0.1,1.6
		c-0.2,1.1-0.9,2.1-1.9,2.7c-0.5,0.3-1.1,0.5-1.6,0.6c-0.6,0.1-1.2,0-1.8,0c-2.4,0-4.9,0-7.5,0c-5.2,0-10.9,0-17.1,0
		c-1.5,0-3.1,0-4.7,0c-0.4,0-0.8,0-1.2,0c-0.4,0-0.8,0-1.2-0.1c-0.8-0.2-1.5-0.7-2.1-1.3c-0.6-0.6-0.9-1.4-1-2.3
		c-0.1-0.4,0-0.8,0-1.3c0-0.4,0-0.8,0-1.3c0-0.8,0.1-1.7-0.3-2.5c-0.3-0.8-0.8-1.5-1.5-2c-0.7-0.5-1.5-0.7-2.4-0.7
		c-0.9,0-1.8,0-2.7,0c-1.8,0-3.6,0-5.4,0c-3.7,0-7.4,0-11.3,0c-1.9,0-3.9,0.3-5.6,1.1c-1.8,0.8-3.4,2-4.7,3.5
		c-1.3,1.5-2.2,3.4-2.7,5.4c-0.1,0.5-0.2,1-0.3,1.5c0,0.5-0.1,1-0.1,1.5c0,1,0,2.1,0,3.1c0,8.4,0,17.2,0,26.2c0,18.1,0,37.5,0,57.8
		c0,20.4,0,41.7,0,63.9c0,11.1,0,22.4,0,33.8c0,5.7,0,11.5,0,17.3c0,1.5,0,2.9,0,4.4c0,1.4,0.1,2.9,0.5,4.3c0.8,2.8,2.6,5.2,5,6.9
		c2.4,1.7,5.3,2.4,8.2,2.3c2.9,0,5.8,0,8.7,0c5.8,0,11.6,0,17.3,0c11.4,0,22.7,0,33.8,0c5.5,0,11,0,16.5,0c2.7,0,5.4,0,8.1,0
		c2.7-0.1,5.2-1.2,7.3-2.8c1-0.8,1.9-1.8,2.6-2.9c0.7-1.1,1.2-2.3,1.6-3.5c0.4-1.2,0.5-2.6,0.5-3.9c0-1.3,0-2.6,0-3.9
		c0-5.2,0-10.4,0-15.5c0-40.7,0-77.4,0.1-108.2c0-30.8,0.1-55.7,0.1-73c0-2.2,0-4.2,0-6.1c0-1.9-0.3-3.7-0.9-5.2
		c-0.6-1.5-1.5-2.8-2.4-3.8c-0.9-1-1.9-1.8-2.9-2.4c-1.9-1.2-3.7-1.6-4.8-1.7c-0.6-0.1-1-0.1-1.3-0.1C201,100,200.9,100,200.9,100z"
		/>
	<path class="st3" d="M203.4,120.9c0,0.1-2.1,0.1-4.8,0.1c-2.6,0-4.8,0-4.8-0.1s2.1-0.1,4.8-0.1
		C201.2,120.9,203.4,120.9,203.4,120.9z"/>
	<path class="st3" d="M203.4,123.4c0,0.1-2.1,0.1-4.8,0.1c-2.6,0-4.8,0-4.8-0.1c0-0.1,2.1-0.1,4.8-0.1
		C201.2,123.3,203.4,123.3,203.4,123.4z"/>
	<path class="st3" d="M203.4,125.8c0,0.1-2.1,0.1-4.8,0.1c-2.6,0-4.8,0-4.8-0.1c0-0.1,2.1-0.1,4.8-0.1
		C201.3,125.7,203.4,125.8,203.4,125.8z"/>
	<path class="st3" d="M116.5,128.6c0,0,0.1,0,0.2,0c0.2,0,0.3,0,0.6,0c0.5,0,1.2,0,2,0l-0.1,0.1c0-0.5,0-0.9,0-1.5
		c0-0.3,0-0.5,0-0.9c0.1-0.3,0.3-0.6,0.7-0.6c0.3,0,0.6,0,1,0c0.4,0,0.7,0.4,0.7,0.8c0,0.7,0,1.4,0,2.2l-0.1-0.1c0.8,0,1.7,0,2.6,0
		l-0.1,0.1c0-1,0-2.1,0-3.2c0-0.3,0-0.5,0-0.8c0-0.3-0.2-0.4-0.4-0.6c-0.4-0.4-0.8-0.7-1.1-1.1c-0.4-0.4-0.7-0.7-1.1-1.1
		c-0.2-0.2-0.4-0.3-0.5-0.5c-0.2-0.2-0.3-0.4-0.5-0.4c-0.2-0.1-0.4,0-0.6,0.1c-0.2,0.1-0.3,0.3-0.5,0.5c-0.3,0.3-0.6,0.6-0.9,0.9
		c-0.6,0.6-1.2,1.2-1.6,1.7c-0.2,0.3-0.1,0.6-0.1,1c0,0.3,0,0.6,0,0.9c0,0.6,0,1,0,1.5c0,0.4,0,0.7,0,0.9
		C116.5,128.5,116.5,128.6,116.5,128.6c0,0,0-0.1,0-0.3c0-0.2,0-0.6,0-0.9c0-0.4,0-0.9,0-1.5c0-0.3,0-0.6,0-0.9c0-0.2,0-0.3,0-0.5
		c0-0.2,0-0.4,0.1-0.5c0.5-0.6,1-1.1,1.6-1.7c0.3-0.3,0.6-0.6,0.9-0.9c0.2-0.2,0.3-0.3,0.5-0.5c0.2-0.2,0.5-0.2,0.7-0.1
		c0.3,0.1,0.5,0.3,0.6,0.4c0.2,0.2,0.4,0.3,0.5,0.5c0.4,0.3,0.7,0.7,1.1,1.1c0.4,0.4,0.7,0.7,1.1,1.1c0.1,0.1,0.2,0.2,0.3,0.3
		c0.1,0.1,0.1,0.3,0.1,0.4c0,0.3,0,0.5,0,0.8c0,1.1,0,2.2,0,3.2l0,0.1l-0.1,0c-0.9,0-1.7,0-2.6,0l-0.1,0l0-0.1c0-0.7,0-1.5,0-2.2
		c0-0.3-0.2-0.6-0.5-0.6c-0.3,0-0.6,0-0.9,0c-0.3,0-0.5,0.2-0.6,0.5c0,0.3,0,0.6,0,0.8c0,0.5,0,1,0,1.5v0.1h-0.1c-0.9,0-1.5,0-2.1,0
		c-0.2,0-0.4,0-0.5,0C116.6,128.6,116.5,128.6,116.5,128.6z"/>
	<path class="st4" d="M168.5,142c0,4.8-3.9,8.6-8.6,8.6s-8.6-3.9-8.6-8.6s3.9-8.6,8.6-8.6S168.5,137.2,168.5,142z"/>
	<path class="st7" d="M162.9,145.5h-5.9v-0.7c0-1.6,1.3-3,3-3s3,1.3,3,3V145.5z"/>
	<path class="st7" d="M161.6,140.2c0,1-0.8,1.7-1.7,1.7s-1.7-0.8-1.7-1.7s0.8-1.7,1.7-1.7S161.6,139.3,161.6,140.2z"/>
	<path class="st3" d="M181.4,164.8c0,0.4-10.2,0.7-22.8,0.7c-12.6,0-22.8-0.3-22.8-0.7s10.2-0.7,22.8-0.7
		C171.1,164.1,181.4,164.4,181.4,164.8z"/>
	
		<rect x="116.7" y="182.7" transform="matrix(5.571841e-03 -1 1 5.571841e-03 -71.5524 332.8246)" class="st4" width="29.6" height="39.4"/>
	<polygon class="st5" points="111.8,217.1 125.6,198.8 134.1,210.3 139.9,204.2 151.2,217.3 	"/>
	<path class="st5" d="M137.8,196.6c0,1.7-1.4,3.1-3.1,3.1c-1.7,0-3.1-1.4-3.1-3.1c0-1.7,1.4-3.1,3.1-3.1
		C136.4,193.4,137.8,194.8,137.8,196.6z"/>
	<polygon class="st6" points="111.8,217.1 125.6,198.8 134.1,210.3 139.9,204.2 151.2,217.3 	"/>
	<path class="st6" d="M137.8,196.6c0,1.7-1.4,3.1-3.1,3.1c-1.7,0-3.1-1.4-3.1-3.1c0-1.7,1.4-3.1,3.1-3.1
		C136.4,193.4,137.8,194.8,137.8,196.6z"/>
	
		<rect x="122.9" y="215.2" transform="matrix(5.570258e-03 -1 1 5.570258e-03 -104.4486 416.4811)" class="st4" width="68.5" height="91.2"/>
	<polygon class="st5" points="111.4,294.8 143.5,252.3 163.1,279.1 176.5,264.9 202.6,295.3 	"/>
	<path class="st5" d="M171.6,247.3c0,4-3.3,7.2-7.2,7.1c-4,0-7.2-3.3-7.1-7.2c0-4,3.3-7.2,7.2-7.1
		C168.4,240.1,171.6,243.3,171.6,247.3z"/>
	<polygon class="st6" points="111.4,294.8 143.5,252.3 163.1,279.1 176.5,264.9 202.6,295.3 	"/>
	<path class="st6" d="M171.6,247.3c0,4-3.3,7.2-7.2,7.1c-4,0-7.2-3.3-7.1-7.2c0-4,3.3-7.2,7.2-7.1
		C168.4,240.1,171.6,243.3,171.6,247.3z"/>
	
		<rect x="168.8" y="182.7" transform="matrix(5.571841e-03 -1 1 5.571841e-03 -19.7809 384.8855)" class="st4" width="29.6" height="39.4"/>
	<polygon class="st5" points="163.8,217.1 177.7,198.8 186.2,210.3 192,204.2 203.3,217.3 	"/>
	<path class="st5" d="M189.9,196.6c0,1.7-1.4,3.1-3.1,3.1c-1.7,0-3.1-1.4-3.1-3.1c0-1.7,1.4-3.1,3.1-3.1
		C188.5,193.4,189.9,194.8,189.9,196.6z"/>
	<polygon class="st6" points="163.8,217.1 177.7,198.8 186.2,210.3 192,204.2 203.3,217.3 	"/>
	<path class="st6" d="M189.9,196.6c0,1.7-1.4,3.1-3.1,3.1c-1.7,0-3.1-1.4-3.1-3.1c0-1.7,1.4-3.1,3.1-3.1
		C188.5,193.4,189.9,194.8,189.9,196.6z"/>
	<path class="st1" d="M438.8,111.7c-2,0-4.5,0-7.5,0c-0.7,0-1.5-0.1-2.3,0.2c-0.7,0.3-1.4,0.9-1.8,1.6c-0.2,0.4-0.3,0.8-0.4,1.2
		c-0.1,0.4-0.1,0.9-0.1,1.3c0,0.5,0,0.9,0,1.4c0,0.5,0,1-0.1,1.4c-0.2,1-0.8,1.9-1.7,2.4c-0.4,0.3-0.9,0.5-1.5,0.5
		c-0.5,0-1.1,0-1.6,0c-2.1,0-4.4,0-6.7,0c-4.7,0-9.8,0-15.3,0c-1.4,0-2.8,0-4.2,0c-0.4,0-0.7,0-1.1,0c-0.4,0-0.7,0-1.1-0.1
		c-0.7-0.2-1.4-0.6-1.9-1.2c-0.5-0.6-0.8-1.3-0.9-2c-0.1-0.4,0-0.8,0-1.1c0-0.4,0-0.8,0-1.1c0-0.8,0.1-1.5-0.2-2.2
		c-0.2-0.7-0.7-1.3-1.3-1.8c-0.6-0.4-1.4-0.6-2.2-0.6c-0.8,0-1.6,0-2.4,0c-1.6,0-3.2,0-4.9,0c-3.3,0-6.7,0-10.1,0
		c-1.7,0-3.5,0.2-5.1,1c-1.6,0.7-3.1,1.8-4.2,3.2c-1.1,1.4-2,3-2.4,4.8c-0.1,0.4-0.2,0.9-0.2,1.4c0,0.4,0,0.8-0.1,1.2v75.4
		c0,1,0,2,0,3c0,3,0,6.1,0,9.2v98c0,1.2,0.1,2.5,0.5,3.7c0.7,2.5,2.3,4.7,4.5,6.2c2.1,1.5,4.8,2.2,7.4,2c2.6,0,5.2,0,7.8,0
		c5.2,0,10.4,0,15.5,0c10.3,0,20.4,0,30.3,0c5,0,9.9,0,14.8,0c2.4,0,4.9,0,7.3,0c2.4-0.1,4.7-1.1,6.5-2.5c0.9-0.8,1.7-1.6,2.4-2.6
		c0.7-1,1.1-2.1,1.4-3.2c0.3-1.1,0.4-2.3,0.4-3.5c0-1.2,0-2.3,0-3.5c0-4.7,0-9.3,0-13.9c0-36.5,0-69.4,0.1-97c0-27.6,0-50,0.1-65.4
		c0-1.9,0-3.8,0-5.5c0-1.7-0.3-3.3-0.8-4.7c-0.6-1.4-1.3-2.5-2.2-3.4c-0.8-0.9-1.7-1.6-2.6-2.1c-1.7-1.1-3.3-1.4-4.3-1.5
		c-0.5-0.1-0.9-0.1-1.2-0.1c-0.3,0-0.4,0-0.4,0s-0.5,0-1.6,0C442.3,111.7,440.8,111.7,438.8,111.7z"/>
	<rect x="373.9" y="190.3" class="st8" width="65.3" height="13.3"/>
	<path class="st3" d="M445.2,111.6c0,0,0.1,0,0.4,0c0.3,0,0.7,0,1.2,0.1c1,0.1,2.6,0.5,4.3,1.5c0.9,0.5,1.8,1.2,2.6,2.1
		c0.9,0.9,1.6,2.1,2.2,3.5c0.6,1.4,0.9,3,0.9,4.7c0,1.7,0,3.5,0,5.5c0,15.4,0,37.8,0,65.4c0,27.6,0,60.5,0,97c0,4.6,0,9.2,0,13.9
		c0,1.2,0,2.3,0,3.5c0,1.2-0.1,2.4-0.4,3.5c-0.3,1.1-0.8,2.3-1.5,3.3c-0.7,1-1.5,1.9-2.4,2.7c-1.9,1.5-4.2,2.5-6.7,2.6
		c-2.4,0.1-4.8,0-7.3,0c-4.9,0-9.8,0-14.8,0c-9.9,0-20,0-30.3,0c-5.1,0-10.3,0-15.5,0c-2.6,0-5.2,0-7.8,0c-2.6,0.1-5.4-0.6-7.6-2.1
		c-2.2-1.5-3.8-3.8-4.6-6.3c-0.4-1.3-0.5-2.6-0.5-3.9c0-1.3,0-2.6,0-3.9c0-5.2,0-10.4,0-15.5c0-10.3,0-20.4,0-30.3
		c0-19.9,0-39,0-57.3c0-18.3,0-35.6,0-51.8c0-8.1,0-16,0-23.5c0-0.9,0-1.9,0-2.8c0-0.5,0-0.9,0.1-1.4c0.1-0.5,0.1-0.9,0.2-1.4
		c0.4-1.8,1.3-3.5,2.4-4.9c1.2-1.4,2.7-2.5,4.3-3.2c1.6-0.7,3.4-1,5.2-1c3.5,0,6.8,0,10.1,0c1.6,0,3.3,0,4.9,0c0.8,0,1.6,0,2.4,0
		c0.8,0,1.6,0.2,2.3,0.6c0.7,0.5,1.2,1.1,1.4,1.9c0.3,0.7,0.2,1.5,0.2,2.3c0,0.4,0,0.8,0,1.1c0,0.4,0,0.7,0,1.1
		c0.1,0.7,0.4,1.4,0.9,1.9c0.5,0.5,1.1,0.9,1.8,1.1c0.3,0.1,0.7,0.1,1,0.1c0.4,0,0.7,0,1.1,0c1.4,0,2.8,0,4.2,0c5.5,0,10.6,0,15.3,0
		c2.3,0,4.6,0,6.7,0c0.5,0,1.1,0,1.6,0c0.5-0.1,1-0.2,1.4-0.5c0.9-0.5,1.4-1.4,1.6-2.3c0.1-0.5,0.1-0.9,0.1-1.4c0-0.5,0-0.9,0-1.4
		c0-0.5,0-0.9,0.1-1.4c0.1-0.4,0.2-0.9,0.4-1.2c0.4-0.8,1.1-1.3,1.9-1.6c0.8-0.3,1.6-0.2,2.3-0.2c3,0,5.5,0,7.5,0c2,0,3.6,0,4.6,0
		C444.6,111.6,445.2,111.6,445.2,111.6s-0.5,0-1.6,0c-1,0-2.6,0-4.6,0c-2,0-4.5,0-7.5,0c-0.7,0-1.5-0.1-2.3,0.2
		c-0.7,0.3-1.4,0.9-1.8,1.6c-0.2,0.4-0.3,0.8-0.4,1.2c-0.1,0.4-0.1,0.9-0.1,1.3c0,0.5,0,0.9,0,1.4c0,0.5,0,1-0.1,1.4
		c-0.2,1-0.8,1.9-1.7,2.4c-0.4,0.3-0.9,0.5-1.5,0.5c-0.5,0-1.1,0-1.6,0c-2.1,0-4.4,0-6.7,0c-4.7,0-9.8,0-15.3,0c-1.4,0-2.8,0-4.2,0
		c-0.4,0-0.7,0-1.1,0c-0.4,0-0.7,0-1.1-0.1c-0.7-0.2-1.4-0.6-1.9-1.2c-0.5-0.6-0.8-1.3-0.9-2c-0.1-0.4,0-0.8,0-1.1
		c0-0.4,0-0.8,0-1.1c0-0.8,0.1-1.5-0.2-2.2c-0.2-0.7-0.7-1.3-1.3-1.8c-0.6-0.4-1.4-0.6-2.2-0.6c-0.8,0-1.6,0-2.4,0
		c-1.6,0-3.2,0-4.9,0c-3.3,0-6.7,0-10.1,0c-1.7,0-3.5,0.2-5.1,1c-1.6,0.7-3.1,1.8-4.2,3.2c-1.1,1.4-2,3-2.4,4.8
		c-0.1,0.4-0.2,0.9-0.2,1.4c0,0.5-0.1,0.9-0.1,1.4c0,0.9,0,1.9,0,2.8c0,7.5,0,15.4,0,23.5c0,16.2,0,33.6,0,51.8
		c0,18.3,0,37.4,0,57.3c0,9.9,0,20,0,30.3c0,5.1,0,10.3,0,15.5c0,1.3,0,2.6,0,3.9c0,1.3,0.1,2.6,0.5,3.8c0.7,2.5,2.3,4.7,4.5,6.2
		c2.1,1.5,4.8,2.2,7.4,2c2.6,0,5.2,0,7.8,0c5.2,0,10.4,0,15.5,0c10.3,0,20.4,0,30.3,0c5,0,9.9,0,14.8,0c2.4,0,4.9,0,7.3,0
		c2.4-0.1,4.7-1.1,6.5-2.5c0.9-0.8,1.7-1.6,2.4-2.6c0.7-1,1.1-2.1,1.4-3.2c0.3-1.1,0.4-2.3,0.4-3.5c0-1.2,0-2.3,0-3.5
		c0-4.7,0-9.3,0-13.9c0-36.5,0-69.4,0.1-97c0-27.6,0-50,0.1-65.4c0-1.9,0-3.8,0-5.5c0-1.7-0.3-3.3-0.8-4.7c-0.6-1.4-1.3-2.5-2.2-3.4
		c-0.8-0.9-1.7-1.6-2.6-2.1c-1.7-1.1-3.3-1.4-4.3-1.5c-0.5-0.1-0.9-0.1-1.2-0.1C445.3,111.6,445.2,111.6,445.2,111.6z"/>
	<path class="st3" d="M447.4,130.3c0,0-1.9,0.1-4.3,0.1c-2.4,0-4.3,0-4.3-0.1s1.9-0.1,4.3-0.1C445.5,130.3,447.4,130.3,447.4,130.3z
		"/>
	<path class="st3" d="M447.4,132.5c0,0-1.9,0.1-4.3,0.1c-2.4,0-4.3,0-4.3-0.1c0,0,1.9-0.1,4.3-0.1
		C445.5,132.5,447.4,132.5,447.4,132.5z"/>
	<path class="st3" d="M447.5,134.7c0,0-1.9,0.1-4.3,0.1c-2.4,0-4.3,0-4.3-0.1s1.9-0.1,4.3-0.1C445.5,134.6,447.4,134.7,447.5,134.7z
		"/>
	<path class="st3" d="M369.6,137.2c0,0,0.1,0,0.2,0c0.1,0,0.3,0,0.5,0c0.5,0,1.1,0,1.8,0l-0.1,0.1c0-0.4,0-0.8,0-1.3
		c0-0.2,0-0.5,0-0.8c0-0.3,0.3-0.5,0.6-0.6c0.3,0,0.6,0,0.9,0c0.3,0,0.6,0.4,0.6,0.7c0,0.6,0,1.3,0,1.9l-0.1-0.1c0.7,0,1.5,0,2.3,0
		l-0.1,0.1c0-0.9,0-1.9,0-2.9c0-0.2,0-0.5,0-0.7c0-0.2-0.1-0.4-0.3-0.5c-0.3-0.3-0.7-0.7-1-1c-0.3-0.3-0.7-0.6-1-1
		c-0.2-0.2-0.3-0.3-0.5-0.5c-0.2-0.2-0.3-0.3-0.5-0.4c-0.2,0-0.4,0-0.5,0.1c-0.1,0.1-0.3,0.3-0.4,0.4c-0.3,0.3-0.6,0.6-0.8,0.8
		c-0.5,0.5-1.1,1-1.5,1.5c-0.2,0.3-0.1,0.6-0.1,0.9c0,0.3,0,0.6,0,0.8c0,0.5,0,0.9,0,1.3c0,0.3,0,0.6,0,0.8
		C369.6,137.1,369.6,137.2,369.6,137.2c0,0,0-0.1,0-0.3c0-0.2,0-0.5,0-0.8c0-0.4,0-0.8,0-1.3c0-0.3,0-0.5,0-0.8c0-0.1,0-0.3,0-0.5
		c0-0.2,0-0.3,0.1-0.5c0.4-0.5,0.9-1,1.5-1.5c0.3-0.3,0.5-0.6,0.8-0.8c0.1-0.1,0.3-0.3,0.4-0.4c0.2-0.1,0.4-0.2,0.7-0.1
		c0.2,0.1,0.4,0.3,0.6,0.4c0.2,0.2,0.3,0.3,0.5,0.5c0.3,0.3,0.6,0.6,1,1c0.3,0.3,0.7,0.7,1,1c0.1,0.1,0.2,0.2,0.3,0.3
		c0.1,0.1,0.1,0.3,0.1,0.4c0,0.2,0,0.5,0,0.7c0,1,0,1.9,0,2.9l0,0.1l-0.1,0c-0.8,0-1.6,0-2.3,0l-0.1,0l0-0.1c0-0.7,0-1.3,0-1.9
		c0-0.3-0.2-0.5-0.5-0.6c-0.3,0-0.6,0-0.8,0c-0.2,0-0.5,0.2-0.5,0.4c0,0.2,0,0.5,0,0.7c0,0.5,0,0.9,0,1.3v0.1h-0.1
		c-0.8,0-1.4,0-1.9,0c-0.2,0-0.3,0-0.5,0C369.6,137.2,369.6,137.2,369.6,137.2z"/>
	<rect x="374" y="210.2" class="st8" width="65.3" height="13.3"/>
	<rect x="374" y="229.5" class="st8" width="65.3" height="13.3"/>
	<path class="st4" d="M423.6,269.3h-32.8c-3.7,0-6.7-3-6.7-6.7c0-3.7,3-6.7,6.7-6.7h32.8c3.7,0,6.7,3,6.7,6.7
		C430.3,266.4,427.3,269.3,423.6,269.3z"/>
	<path class="st3" d="M427.5,176.5c0,0.3-9.2,0.6-20.5,0.6c-11.3,0-20.5-0.3-20.5-0.6c0-0.3,9.2-0.6,20.5-0.6
		C418.4,175.9,427.5,176.2,427.5,176.5z"/>
	<path class="st1" d="M385.3,97.9c-2.3,0-5.1,0-8.4,0c-0.8,0-1.7-0.1-2.5,0.3c-0.8,0.3-1.5,0.9-2,1.8c-0.2,0.4-0.4,0.9-0.5,1.3
		c-0.1,0.5-0.1,1-0.1,1.5c0,0.5,0,1,0,1.5c0,0.5,0,1.1-0.1,1.6c-0.2,1.1-0.9,2.1-1.9,2.7c-0.5,0.3-1.1,0.5-1.6,0.6
		c-0.6,0.1-1.2,0-1.8,0c-2.4,0-4.9,0-7.5,0c-5.2,0-10.9,0-17,0c-1.5,0-3.1,0-4.7,0c-0.4,0-0.8,0-1.2,0c-0.4,0-0.8,0-1.2-0.1
		c-0.8-0.2-1.5-0.7-2.1-1.3c-0.6-0.6-0.9-1.4-1-2.3c-0.1-0.4,0-0.8,0-1.3c0-0.4,0-0.8,0-1.3c0-0.8,0.1-1.7-0.3-2.5
		c-0.3-0.8-0.8-1.5-1.5-2c-0.7-0.5-1.5-0.7-2.4-0.7c-0.9,0-1.8,0-2.7,0c-1.8,0-3.6,0-5.4,0c-3.7,0-7.4,0-11.3,0
		c-1.9,0-3.9,0.3-5.6,1.1c-1.8,0.8-3.4,2-4.7,3.5c-1.3,1.5-2.2,3.4-2.7,5.4c-0.1,0.5-0.2,1-0.3,1.5c0,0.4,0,0.9-0.1,1.3v84.1
		c0,1.1,0,2.2,0,3.4c0,3.4,0,6.9,0,10.3v109.2c0,1.4,0.1,2.8,0.5,4.1c0.8,2.8,2.6,5.2,5,6.9c2.4,1.7,5.3,2.4,8.2,2.3
		c2.9,0,5.8,0,8.7,0c5.8,0,11.6,0,17.3,0c11.4,0,22.7,0,33.8,0c5.5,0,11,0,16.5,0c2.7,0,5.4,0,8.1,0c2.7-0.1,5.2-1.2,7.3-2.8
		c1-0.8,1.9-1.8,2.6-2.9c0.7-1.1,1.2-2.3,1.6-3.5c0.4-1.2,0.5-2.6,0.5-3.9c0-1.3,0-2.6,0-3.9c0-5.2,0-10.4,0-15.5
		c0-40.7,0-77.4,0.1-108.2c0-30.8,0.1-55.7,0.1-73c0-2.2,0-4.2,0-6.1c0-1.9-0.3-3.7-0.9-5.2c-0.6-1.5-1.5-2.8-2.4-3.8
		c-0.9-1-1.9-1.8-2.9-2.4c-1.9-1.2-3.7-1.6-4.8-1.7c-0.6-0.1-1-0.1-1.3-0.1c-0.3,0-0.4,0-0.4,0s-0.6,0-1.8,0
		C389.3,97.9,387.5,97.9,385.3,97.9z"/>
	<path class="st3" d="M392.3,98c0,0,0.1,0,0.4,0c0.3,0,0.7,0,1.3,0.1c1.1,0.1,2.9,0.5,4.9,1.7c1,0.6,2,1.4,2.9,2.4
		c0.9,1,1.8,2.3,2.5,3.9c0.6,1.5,1,3.3,1,5.2c0,1.9,0,3.9,0,6.1c0,17.2,0,42.2,0,73c0,30.8,0,67.5,0,108.2c0,5.1,0,10.2,0,15.5
		c0,1.3,0,2.6,0,3.9c0,1.3-0.1,2.7-0.5,3.9c-0.4,1.3-0.9,2.5-1.7,3.6c-0.7,1.1-1.7,2.1-2.7,3c-2.1,1.7-4.7,2.8-7.5,2.9
		c-2.7,0.1-5.4,0-8.1,0c-5.4,0-10.9,0-16.5,0c-11.1,0-22.4,0-33.8,0c-5.7,0-11.5,0-17.3,0c-2.9,0-5.8,0-8.7,0
		c-2.9,0.1-6-0.6-8.4-2.3c-2.5-1.7-4.3-4.2-5.1-7.1c-0.5-1.4-0.5-2.9-0.5-4.4c0-1.5,0-2.9,0-4.4c0-5.8,0-11.6,0-17.3
		c0-11.4,0-22.7,0-33.8c0-22.2,0-43.5,0-63.9c0-20.4,0-39.7,0-57.8c0-9.1,0-17.8,0-26.2c0-1.1,0-2.1,0-3.1c0-0.5,0-1,0.1-1.6
		c0.1-0.5,0.1-1,0.3-1.5c0.5-2,1.4-3.9,2.7-5.5c1.3-1.6,3-2.8,4.8-3.6c1.8-0.8,3.8-1.1,5.7-1.1c3.9,0,7.6,0,11.3,0
		c1.8,0,3.6,0,5.4,0c0.9,0,1.8,0,2.7,0c0.9,0,1.8,0.2,2.5,0.7c0.7,0.5,1.3,1.2,1.6,2.1c0.3,0.8,0.3,1.7,0.3,2.6c0,0.4,0,0.8,0,1.3
		c0,0.4,0,0.8,0,1.2c0.1,0.8,0.4,1.6,1,2.2c0.5,0.6,1.2,1,2,1.2c0.4,0.1,0.8,0.1,1.2,0.1c0.4,0,0.8,0,1.2,0c1.6,0,3.1,0,4.7,0
		c6.1,0,11.8,0,17,0c2.6,0,5.1,0,7.5,0c0.6,0,1.2,0,1.8,0c0.6-0.1,1.1-0.3,1.6-0.6c0.9-0.6,1.6-1.6,1.8-2.6c0.1-0.5,0.1-1,0.1-1.6
		c0-0.5,0-1,0-1.5c0-0.5,0-1,0.1-1.5c0.1-0.5,0.3-1,0.5-1.4c0.5-0.9,1.2-1.5,2.1-1.8c0.8-0.4,1.8-0.3,2.6-0.3c3.3,0,6.1,0,8.4,0
		c2.3,0,4,0,5.2,0C391.7,98,392.3,98,392.3,98s-0.6,0-1.8,0c-1.2,0-2.9,0-5.2,0c-2.3,0-5.1,0-8.4,0c-0.8,0-1.7-0.1-2.5,0.3
		c-0.8,0.3-1.5,0.9-2,1.8c-0.2,0.4-0.4,0.9-0.5,1.3c-0.1,0.5-0.1,1-0.1,1.5c0,0.5,0,1,0,1.5c0,0.5,0,1.1-0.1,1.6
		c-0.2,1.1-0.9,2.1-1.9,2.7c-0.5,0.3-1.1,0.5-1.6,0.6c-0.6,0.1-1.2,0-1.8,0c-2.4,0-4.9,0-7.5,0c-5.2,0-10.9,0-17,0
		c-1.5,0-3.1,0-4.7,0c-0.4,0-0.8,0-1.2,0c-0.4,0-0.8,0-1.2-0.1c-0.8-0.2-1.5-0.7-2.1-1.3c-0.6-0.6-0.9-1.4-1-2.3
		c-0.1-0.4,0-0.8,0-1.3c0-0.4,0-0.8,0-1.3c0-0.8,0.1-1.7-0.3-2.5c-0.3-0.8-0.8-1.5-1.5-2c-0.7-0.5-1.5-0.7-2.4-0.7
		c-0.9,0-1.8,0-2.7,0c-1.8,0-3.6,0-5.4,0c-3.7,0-7.4,0-11.3,0c-1.9,0-3.9,0.3-5.6,1.1c-1.8,0.8-3.4,2-4.7,3.5
		c-1.3,1.5-2.2,3.4-2.7,5.4c-0.1,0.5-0.2,1-0.3,1.5c0,0.5-0.1,1-0.1,1.5c0,1,0,2.1,0,3.1c0,8.4,0,17.2,0,26.2c0,18.1,0,37.5,0,57.8
		c0,20.4,0,41.7,0,63.9c0,11.1,0,22.4,0,33.8c0,5.7,0,11.5,0,17.3c0,1.5,0,2.9,0,4.4c0,1.4,0.1,2.9,0.5,4.3c0.8,2.8,2.6,5.2,5,6.9
		c2.4,1.7,5.3,2.4,8.2,2.3c2.9,0,5.8,0,8.7,0c5.8,0,11.6,0,17.3,0c11.4,0,22.7,0,33.8,0c5.5,0,11,0,16.5,0c2.7,0,5.4,0,8.1,0
		c2.7-0.1,5.2-1.2,7.3-2.8c1-0.8,1.9-1.8,2.6-2.9c0.7-1.1,1.2-2.3,1.6-3.5c0.4-1.2,0.5-2.6,0.5-3.9c0-1.3,0-2.6,0-3.9
		c0-5.2,0-10.4,0-15.5c0-40.7,0-77.4,0.1-108.2c0-30.8,0.1-55.7,0.1-73c0-2.2,0-4.2,0-6.1c0-1.9-0.3-3.7-0.9-5.2
		c-0.6-1.5-1.5-2.8-2.4-3.8c-0.9-1-1.9-1.8-2.9-2.4c-1.9-1.2-3.7-1.6-4.8-1.7c-0.6-0.1-1-0.1-1.3-0.1C392.4,98,392.3,98,392.3,98z"
		/>
	<path class="st3" d="M394.8,119c0,0.1-2.1,0.1-4.8,0.1c-2.6,0-4.8,0-4.8-0.1s2.1-0.1,4.8-0.1C392.6,118.9,394.8,118.9,394.8,119z"
		/>
	<path class="st3" d="M394.8,121.4c0,0.1-2.1,0.1-4.8,0.1c-2.6,0-4.8,0-4.8-0.1c0-0.1,2.1-0.1,4.8-0.1
		C392.6,121.3,394.8,121.3,394.8,121.4z"/>
	<path class="st3" d="M394.8,123.8c0,0.1-2.1,0.1-4.8,0.1c-2.6,0-4.8,0-4.8-0.1s2.1-0.1,4.8-0.1
		C392.7,123.8,394.8,123.8,394.8,123.8z"/>
	<path class="st3" d="M307.9,126.6c0,0,0.1,0,0.2,0c0.2,0,0.3,0,0.6,0c0.5,0,1.2,0,2,0l-0.1,0.1c0-0.5,0-0.9,0-1.5
		c0-0.3,0-0.5,0-0.9c0.1-0.3,0.3-0.6,0.7-0.6c0.3,0,0.6,0,1,0c0.4,0,0.7,0.4,0.7,0.8c0,0.7,0,1.4,0,2.2l-0.1-0.1c0.8,0,1.7,0,2.6,0
		l-0.1,0.1c0-1,0-2.1,0-3.2c0-0.3,0-0.5,0-0.8c0-0.3-0.2-0.4-0.4-0.6c-0.4-0.4-0.8-0.7-1.1-1.1c-0.4-0.4-0.7-0.7-1.1-1.1
		c-0.2-0.2-0.4-0.3-0.5-0.5c-0.2-0.2-0.3-0.4-0.5-0.4c-0.2-0.1-0.4,0-0.6,0.1c-0.2,0.1-0.3,0.3-0.5,0.5c-0.3,0.3-0.6,0.6-0.9,0.9
		c-0.6,0.6-1.2,1.2-1.6,1.7c-0.2,0.3-0.1,0.6-0.1,1c0,0.3,0,0.6,0,0.9c0,0.6,0,1,0,1.5c0,0.4,0,0.7,0,0.9
		C307.9,126.5,307.9,126.6,307.9,126.6c0,0,0-0.1,0-0.3c0-0.2,0-0.6,0-0.9c0-0.4,0-0.9,0-1.5c0-0.3,0-0.6,0-0.9c0-0.2,0-0.3,0-0.5
		c0-0.2,0-0.4,0.1-0.5c0.5-0.6,1-1.1,1.6-1.7c0.3-0.3,0.6-0.6,0.9-0.9c0.2-0.2,0.3-0.3,0.5-0.5c0.2-0.2,0.5-0.2,0.7-0.1
		c0.3,0.1,0.5,0.3,0.6,0.4c0.2,0.2,0.4,0.3,0.5,0.5c0.4,0.3,0.7,0.7,1.1,1.1c0.4,0.4,0.7,0.7,1.1,1.1c0.1,0.1,0.2,0.2,0.3,0.3
		c0.1,0.1,0.1,0.3,0.1,0.4c0,0.3,0,0.5,0,0.8c0,1.1,0,2.2,0,3.2l0,0.1l-0.1,0c-0.9,0-1.7,0-2.6,0l-0.1,0l0-0.1c0-0.7,0-1.5,0-2.2
		c0-0.3-0.2-0.6-0.5-0.6c-0.3,0-0.6,0-0.9,0c-0.3,0-0.5,0.2-0.6,0.5c0,0.3,0,0.6,0,0.8c0,0.5,0,1,0,1.5v0.1h-0.1c-0.9,0-1.5,0-2.1,0
		c-0.2,0-0.4,0-0.5,0C308,126.6,307.9,126.6,307.9,126.6z"/>
	<path class="st4" d="M373,174.8c0,11.9-9.7,21.6-21.6,21.6s-21.6-9.7-21.6-21.6c0-11.9,9.7-21.6,21.6-21.6S373,162.9,373,174.8z"/>
	<rect x="312.9" y="221.1" class="st8" width="72.8" height="14.9"/>
	<rect x="312.9" y="242.7" class="st8" width="72.8" height="14.9"/>
	<path class="st4" d="M368.2,287.1h-36.5c-4.1,0-7.4-3.3-7.4-7.4c0-4.1,3.3-7.4,7.4-7.4h36.5c4.1,0,7.4,3.3,7.4,7.4
		C375.6,283.8,372.3,287.1,368.2,287.1z"/>
	<path class="st3" d="M372.8,212.2c0,0.4-10.2,0.7-22.8,0.7c-12.6,0-22.8-0.3-22.8-0.7c0-0.4,10.2-0.7,22.8-0.7
		C362.5,211.5,372.8,211.8,372.8,212.2z"/>
	<path class="st9" d="M323,231.9h-3.2c-0.3,0-0.6-0.3-0.6-0.6c0-1.2,1-2.1,2.1-2.1h0.1c1.2,0,2.1,1,2.1,2.1
		C323.5,231.6,323.3,231.9,323,231.9z"/>
	<path class="st9" d="M322.6,228c0,0.7-0.6,1.3-1.3,1.3s-1.3-0.6-1.3-1.3c0-0.7,0.6-1.3,1.3-1.3S322.6,227.3,322.6,228z"/>
	<rect x="319.4" y="250.4" class="st9" width="3.8" height="2.7"/>
	<path class="st9" d="M323.7,251h-1.3v-0.8c0-0.6-0.5-1.1-1.1-1.1c-0.6,0-1.1,0.5-1.1,1.1v0.8H319v-0.8c0-1.3,1.1-2.4,2.4-2.4
		c1.3,0,2.4,1.1,2.4,2.4V251z"/>
	<path class="st1" d="M308.2,52.3c-3.4,0-7.6,0-12.5,0c-0.3,0-0.5,0-0.8,0c-1,0-2,0-3,0.4c-1.2,0.5-2.3,1.4-3,2.6
		c-0.3,0.6-0.6,1.3-0.7,2c-0.1,0.7-0.1,1.5-0.1,2.2c0,0.8,0,1.5,0,2.3c0,0.8,0,1.6-0.1,2.4c-0.3,1.6-1.3,3.1-2.8,4
		c-0.7,0.5-1.6,0.8-2.5,0.9c-0.6,0.1-1.1,0-1.7,0c-0.3,0-0.6,0-0.9,0c-3.6,0-7.3,0-11.2,0c-7.8,0-16.3,0-25.4,0c-2.3,0-4.6,0-7,0
		c-0.6,0-1.2,0-1.8,0c-0.6,0-1.2,0-1.8-0.2c-1.2-0.3-2.3-1-3.1-1.9c-0.8-0.9-1.4-2.1-1.5-3.4c-0.1-0.6-0.1-1.3-0.1-1.9
		c0-0.6,0-1.2,0-1.9c0-1.3,0.1-2.5-0.4-3.7c-0.4-1.2-1.2-2.2-2.2-2.9c-1-0.7-2.3-1.1-3.6-1c-1.3,0-2.6,0-4,0c-2.7,0-5.3,0-8.1,0
		c-5.5,0-11.1,0-16.8,0c-2.8,0-5.7,0.4-8.4,1.6c-2.7,1.2-5.1,3-7,5.2c-1.9,2.3-3.3,5-4,8c-0.2,0.7-0.3,1.5-0.4,2.2
		c0,0.6-0.1,1.3-0.1,1.9v125.1c0,1.7,0,3.3,0,5c0,5.1,0,10.2,0,15.3v162.6c0,2.1,0.1,4.1,0.8,6.1c1.2,4.1,3.9,7.8,7.4,10.2
		c3.6,2.5,7.9,3.6,12.2,3.4c4.3,0,8.7,0,13,0c8.6,0,17.2,0,25.7,0c17,0,33.8,0,50.3,0c8.2,0,16.4,0,24.5,0c1.4,0,2.9,0,4.3,0
		c2.6,0,5.2,0,7.8-0.1c4-0.2,7.8-1.8,10.8-4.2c1.5-1.3,2.8-2.7,3.9-4.3c1.1-1.6,1.9-3.4,2.4-5.3c0.6-1.9,0.7-3.8,0.7-5.7
		c0-2,0-3.9,0-5.8c0-7.8,0-15.4,0-23c0-60.6,0.1-115.2,0.1-161c0-45.8,0.1-82.9,0.1-108.6c0-3.2,0-6.2,0-9.1c0-2.8-0.5-5.5-1.4-7.8
		c-0.9-2.3-2.2-4.2-3.6-5.7c-1.4-1.5-2.9-2.7-4.3-3.6c-2.9-1.7-5.5-2.3-7.2-2.5c-0.9-0.2-1.5-0.1-1.9-0.2c-0.4,0-0.7,0-0.7,0
		s-0.9,0-2.6,0C314.1,52.2,311.6,52.2,308.2,52.3"/>
	<path class="st3" d="M318.7,52.3c0,0,0.2,0,0.7,0c0.4,0,1.1,0,1.9,0.2c1.7,0.2,4.3,0.8,7.2,2.5c1.5,0.8,3,2,4.4,3.6
		c1.4,1.5,2.7,3.4,3.7,5.7c1,2.3,1.5,5,1.4,7.8c0,2.8,0,5.9,0,9.1c0,25.6,0,62.6,0.1,108.4c0,45.8,0,100.2,0,160.7
		c0,7.6,0,15.2,0,23c0,1.9,0,3.9,0,5.8c0,2-0.1,4-0.7,5.9c-0.6,1.9-1.3,3.8-2.5,5.4c-1.1,1.7-2.5,3.2-4,4.4c-3.1,2.5-7,4.1-11.1,4.3
		c-2.6,0.1-5.2,0.1-7.8,0.1c-1.4,0-2.9,0-4.3,0c-8.1,0-16.2,0-24.5,0c-16.5,0-33.2,0-50.2,0c-8.5,0-17.1,0-25.7,0c-4.3,0-8.6,0-13,0
		c-4.4,0.2-8.9-0.9-12.5-3.5c-3.7-2.5-6.4-6.3-7.6-10.5c-0.7-2.1-0.8-4.3-0.8-6.5c0-2.2,0-4.3,0-6.5c0-8.6,0-17.2,0-25.7
		c0-17,0-33.8,0-50.2c0-32.9,0-64.7,0-94.9c0-30.3,0-59,0-85.9c0-13.5,0-26.4,0-38.9c0-1.6,0-3.1,0-4.7c0-0.8,0.1-1.6,0.1-2.3
		c0.1-0.8,0.2-1.5,0.4-2.3c0.7-3,2.1-5.8,4-8.1c2-2.3,4.4-4.1,7.1-5.3c2.7-1.2,5.7-1.7,8.5-1.6c5.7,0,11.3,0,16.7,0
		c2.7,0,5.4,0,8.1,0c1.3,0,2.6,0,3.9,0c1.3-0.1,2.7,0.3,3.8,1.1c1.1,0.8,1.9,1.9,2.4,3.1c0.5,1.2,0.4,2.6,0.4,3.8c0,0.6,0,1.2,0,1.9
		c0,0.6,0,1.2,0.1,1.8c0.2,1.2,0.7,2.3,1.4,3.2c0.8,0.9,1.8,1.5,2.9,1.8c0.6,0.1,1.1,0.2,1.7,0.2c0.6,0,1.2,0,1.8,0
		c2.4,0,4.7,0,6.9,0c9.1,0,17.5,0,25.3,0c3.9,0,7.6,0,11.2,0c0.3,0,0.6,0,0.9,0c0.6,0,1.1,0,1.7,0c0.8-0.1,1.7-0.4,2.4-0.8
		c1.4-0.9,2.4-2.3,2.7-3.9c0.2-0.8,0.1-1.6,0.2-2.3c0-0.8,0-1.5,0-2.3c0-0.7,0-1.5,0.1-2.2c0.1-0.7,0.4-1.4,0.7-2.1
		c0.7-1.3,1.8-2.2,3.1-2.7c1-0.4,2-0.4,3-0.4c0.3,0,0.5,0,0.8,0c4.9,0,9.1,0,12.5,0c3.4,0,5.9,0,7.7,0
		C317.8,52.3,318.7,52.3,318.7,52.3s-0.9,0-2.6,0c-1.7,0-4.3,0-7.7,0c-3.4,0-7.5,0-12.5,0c-0.3,0-0.5,0-0.8,0c-1,0-2,0-3,0.4
		c-1.2,0.5-2.3,1.4-3,2.6c-0.3,0.6-0.6,1.3-0.7,2c-0.1,0.7-0.1,1.5-0.1,2.2c0,0.8,0,1.5,0,2.3c0,0.8,0,1.6-0.1,2.4
		c-0.3,1.6-1.3,3.1-2.8,4c-0.7,0.5-1.6,0.8-2.4,0.9c-0.6,0.1-1.1,0-1.7,0c-0.3,0-0.6,0-0.9,0c-3.6,0-7.3,0-11.2,0
		c-7.8,0-16.2,0-25.3,0c-2.3,0-4.6,0-6.9,0c-0.6,0-1.2,0-1.8,0c-0.6,0-1.2,0-1.8-0.2c-1.2-0.3-2.3-1-3.1-1.9
		c-0.8-0.9-1.4-2.1-1.5-3.4c-0.1-0.6-0.1-1.3-0.1-1.9c0-0.6,0-1.2,0-1.9c0-1.3,0.1-2.5-0.4-3.7c-0.4-1.2-1.2-2.2-2.2-2.9
		c-1-0.7-2.3-1.1-3.6-1c-1.3,0-2.6,0-3.9,0c-2.6,0-5.3,0-8.1,0c-5.4,0-11,0-16.7,0c-2.8,0-5.7,0.4-8.4,1.6c-2.6,1.2-5.1,3-7,5.2
		c-1.9,2.3-3.3,5-3.9,8c-0.2,0.7-0.2,1.5-0.4,2.2c0,0.8-0.1,1.5-0.1,2.3c0,1.5,0,3.1,0,4.7c0,12.5,0,25.5,0,38.9
		c0,26.9,0,55.7,0,85.9c0,30.3,0,62,0,94.9c0,16.5,0,33.2,0,50.2c0,8.5,0,17.1,0,25.7c0,2.2,0,4.3,0,6.5c0,2.2,0.1,4.3,0.8,6.3
		c1.2,4.1,3.8,7.8,7.4,10.2c3.6,2.5,7.9,3.6,12.2,3.4c4.3,0,8.7,0,13,0c8.6,0,17.2,0,25.7,0c17,0,33.7,0,50.2,0c8.2,0,16.4,0,24.5,0
		c1.4,0,2.9,0,4.3,0c2.6,0,5.2,0,7.8-0.1c3.9-0.2,7.8-1.7,10.8-4.2c1.5-1.2,2.8-2.7,3.9-4.3c1.1-1.6,1.8-3.4,2.4-5.3
		c0.6-1.9,0.7-3.8,0.7-5.7c0-1.9,0-3.9,0-5.8c0-7.7,0-15.4,0-23c0-60.5,0.1-115,0.1-160.7c0-45.8,0.1-82.8,0.1-108.4
		c0-3.2,0-6.2,0-9.1c0-2.8-0.5-5.5-1.4-7.7c-0.9-2.3-2.2-4.2-3.6-5.7c-1.4-1.5-2.9-2.7-4.3-3.5c-2.9-1.7-5.5-2.3-7.2-2.5
		c-0.8-0.2-1.5-0.1-1.9-0.2C318.9,52.3,318.7,52.3,318.7,52.3"/>
	<path class="st3" d="M322.4,83.4c0,0.1-3.2,0.2-7.1,0.2c-3.9,0-7.1,0-7.1-0.1c0-0.1,3.2-0.2,7.1-0.2
		C319.2,83.3,322.4,83.3,322.4,83.4z"/>
	<path class="st3" d="M322.4,87.1c0,0.1-3.2,0.2-7.1,0.2c-3.9,0-7.1,0-7.1-0.1s3.2-0.2,7.1-0.2C319.2,86.9,322.4,87,322.4,87.1z"/>
	<path class="st3" d="M322.4,90.7c0,0.1-3.2,0.2-7.1,0.2c-3.9,0-7.1,0-7.1-0.1c0-0.1,3.2-0.2,7.1-0.2
		C319.3,90.6,322.4,90.6,322.4,90.7z"/>
	<path class="st3" d="M193.4,94.8c0,0,0.1,0,0.3,0c0.2,0,0.5,0,0.8,0c0.8,0,1.8,0,3-0.1l-0.1,0.1c0-0.7,0-1.4,0-2.2
		c0-0.4,0-0.8,0-1.3c0.1-0.5,0.5-0.9,1-0.9c0.5,0,0.9,0,1.4,0c0.5,0.1,1,0.6,1,1.2c0,1,0,2.1,0,3.2l-0.1-0.1c1.2,0,2.5,0,3.8,0
		l-0.1,0.1c0-1.5,0-3.1,0-4.8c0-0.4,0-0.8,0-1.2c0-0.4-0.2-0.6-0.5-0.9c-0.6-0.6-1.1-1.1-1.7-1.6c-0.5-0.5-1.1-1.1-1.6-1.6
		c-0.3-0.3-0.5-0.5-0.8-0.8c-0.3-0.3-0.5-0.5-0.8-0.6c-0.3-0.1-0.6,0-0.9,0.2c-0.2,0.2-0.5,0.5-0.7,0.7c-0.5,0.5-0.9,0.9-1.4,1.4
		c-0.9,0.9-1.8,1.7-2.4,2.5c-0.3,0.4-0.2,0.9-0.2,1.4c0,0.5,0,0.9,0,1.3c0,0.8,0,1.5,0,2.2c0,0.6,0,1,0,1.4
		C193.4,94.7,193.4,94.8,193.4,94.8c0,0,0-0.2,0-0.5c0-0.4,0-0.8,0-1.4c0-0.6,0-1.4,0-2.2c0-0.4,0-0.9,0-1.4c0-0.2,0-0.5,0-0.8
		c0-0.3,0.1-0.6,0.2-0.8c0.7-0.9,1.5-1.6,2.4-2.6c0.4-0.5,0.9-0.9,1.4-1.4c0.2-0.2,0.4-0.5,0.7-0.7c0.3-0.2,0.7-0.3,1.1-0.2
		c0.4,0.1,0.7,0.4,0.9,0.7c0.3,0.3,0.5,0.5,0.8,0.8c0.5,0.5,1.1,1,1.6,1.6c0.5,0.5,1.1,1.1,1.7,1.6c0.1,0.1,0.3,0.3,0.4,0.5
		c0.1,0.2,0.2,0.4,0.2,0.6c0,0.4,0,0.8,0,1.2c0,1.6,0,3.2,0,4.8l0,0.1l-0.1,0c-1.3,0-2.6,0-3.8,0l-0.1,0l0-0.1c0-1.1,0-2.2,0-3.2
		c0-0.5-0.3-0.9-0.8-0.9c-0.4,0-1,0-1.4,0c-0.4,0-0.8,0.4-0.8,0.7c0,0.4,0,0.8,0,1.2c0,0.8,0,1.5,0,2.2v0.1l-0.1,0
		c-1.3,0-2.3,0-3.1,0c-0.3,0-0.6,0-0.8,0C193.5,94.8,193.4,94.8,193.4,94.8z"/>
	<path class="st10" d="M311.4,138.4H198c-5.7,0-10.3-4.6-10.3-10.3v-3.8c0-5.7,4.6-10.3,10.3-10.3h113.4c5.7,0,10.3,4.6,10.3,10.3
		v3.8C321.6,133.8,317,138.4,311.4,138.4z"/>
	<path class="st3" d="M311.4,138.4c0,0,0.3,0,0.8-0.1c0.5,0,1.3-0.2,2.2-0.4c0.9-0.3,2.1-0.8,3.2-1.7c1.1-0.9,2.3-2.2,3.1-3.9
		c0.4-0.9,0.7-1.8,0.8-2.8c0.1-1,0.1-2.1,0.1-3.3c0-1.2,0.1-2.4-0.2-3.6c-0.2-1.2-0.6-2.4-1.3-3.6c-1.4-2.3-3.8-4.2-6.8-4.7
		c-1.5-0.3-3-0.1-4.7-0.2c-1.6,0-3.3,0-4.9,0c-27.1,0-64.4,0-105.7,0.1c-2.5,0-5,1-6.8,2.7c-1.8,1.7-3,4.1-3.2,6.5
		c-0.1,1.2,0,2.5,0,3.7c0,1.3,0,2.5,0.4,3.6c0.6,2.3,2.2,4.4,4.1,5.7c1,0.7,2.1,1.1,3.2,1.4c1.2,0.3,2.3,0.3,3.5,0.3
		c2.4,0,4.8,0,7.1,0c4.7,0,9.3,0,13.7,0c17.9,0,34,0,47.5,0.1c13.5,0,24.5,0.1,32,0.1c3.8,0,6.7,0,8.7,0c1,0,1.7,0,2.3,0
		C311.1,138.4,311.4,138.4,311.4,138.4s-0.3,0-0.8,0c-0.5,0-1.3,0-2.3,0c-2,0-4.9,0-8.7,0c-7.6,0-18.5,0-32,0.1
		c-13.5,0-29.6,0-47.5,0.1c-4.5,0-9.1,0-13.7,0c-2.3,0-4.7,0-7.1,0c-1.2,0-2.4,0-3.6-0.3c-1.2-0.3-2.4-0.8-3.4-1.4
		c-2.1-1.4-3.7-3.5-4.4-6c-0.4-1.2-0.4-2.5-0.4-3.8c0-1.3,0-2.5,0-3.8c0.2-2.6,1.4-5.1,3.3-6.8c1.9-1.8,4.5-2.8,7.2-2.8
		c41.3,0,78.6,0.1,105.7,0.1c1.7,0,3.3,0,4.9,0c1.6,0,3.2-0.1,4.7,0.2c3.1,0.6,5.6,2.5,6.9,4.9c0.7,1.2,1.1,2.4,1.3,3.7
		c0.2,1.3,0.1,2.5,0.1,3.6c0,1.1,0,2.3-0.1,3.3c-0.1,1.1-0.5,2-0.8,2.9c-0.8,1.7-2,3-3.1,3.9c-1.2,0.9-2.3,1.4-3.3,1.7
		c-1,0.3-1.7,0.4-2.2,0.4C311.6,138.4,311.4,138.4,311.4,138.4z"/>
	<path class="st3" d="M313.4,125.6c0,0,0-0.4-0.2-1.1c-0.2-0.6-0.6-1.6-1.6-2.3c-0.9-0.7-2.5-1.1-4-0.6c-1.5,0.5-2.8,2.1-2.7,3.9
		c0,1.8,1.3,3.4,2.7,3.9c1.5,0.6,3,0.2,4-0.6c1-0.7,1.4-1.7,1.6-2.3C313.4,126,313.4,125.6,313.4,125.6c0,0,0,0.1,0,0.3
		c0,0.2,0,0.5-0.1,0.8c-0.1,0.7-0.6,1.7-1.6,2.5c-1,0.8-2.7,1.3-4.4,0.7c-1.7-0.5-3.1-2.3-3.1-4.4c0-2.1,1.4-3.8,3.1-4.4
		c1.7-0.6,3.4-0.1,4.4,0.7c1,0.8,1.5,1.9,1.6,2.5c0.1,0.4,0.1,0.6,0.1,0.8C313.5,125.5,313.4,125.6,313.4,125.6z"/>
	<path class="st3" d="M315.9,133.2c-0.1,0.1-1.1-0.8-2.2-2c-1.1-1.2-1.9-2.2-1.8-2.3c0.1-0.1,1.1,0.8,2.2,2
		C315.2,132.1,316,133.1,315.9,133.2z"/>
	<polygon class="st9" points="205.8,123.8 203.4,123.8 203.4,123.1 208.9,123.1 208.9,123.8 206.5,123.8 206.5,129.9 205.8,129.9 	
		"/>
	<path class="st9" d="M213.8,127.6h-4.3c0.1,1.1,0.9,1.8,2,1.8c0.6,0,1.2-0.2,1.6-0.7l0.4,0.4c-0.5,0.5-1.2,0.8-2,0.8
		c-1.6,0-2.7-1.1-2.7-2.6s1.1-2.6,2.5-2.6c1.4,0,2.5,1.1,2.5,2.6L213.8,127.6z M209.5,127.1h3.6c-0.1-1-0.8-1.7-1.8-1.7
		C210.3,125.4,209.6,126.1,209.5,127.1z"/>
	<polygon class="st9" points="218.3,129.9 216.7,127.8 215.1,129.9 214.3,129.9 216.3,127.3 214.4,124.8 215.2,124.8 216.7,126.8 
		218.2,124.8 219,124.8 217.1,127.3 219.1,129.9 	"/>
	<path class="st9" d="M222.9,129.6c-0.3,0.2-0.7,0.4-1.1,0.4c-1,0-1.5-0.5-1.5-1.5v-3.1h-0.9v-0.6h0.9v-1.1h0.7v1.1h1.6v0.6h-1.6v3
		c0,0.6,0.3,0.9,0.9,0.9c0.3,0,0.6-0.1,0.8-0.3L222.9,129.6z"/>
	<path class="st5" d="M279.1,161.6c0,0.1-9.8,0.2-21.9,0.2c-12.1,0-21.9-0.1-21.9-0.2c0-0.1,9.8-0.2,21.9-0.2
		C269.3,161.3,279.1,161.4,279.1,161.6z"/>
	<path class="st3" d="M314,170.6c0,0.1-17.6,0.2-39.4,0.2c-21.7,0-39.4-0.1-39.4-0.2s17.6-0.2,39.4-0.2
		C296.4,170.3,314,170.4,314,170.6z"/>
	<path class="st3" d="M313.1,177c0,0.1-17.4,0.2-38.9,0.2c-21.5,0-38.9-0.1-38.9-0.2s17.4-0.2,38.9-0.2
		C295.6,176.7,313.1,176.8,313.1,177z"/>
	<path class="st3" d="M281.2,183.1c0,0.1-10.3,0.2-23,0.2c-12.7,0-23-0.1-23-0.2s10.3-0.2,23-0.2C270.9,182.9,281.2,183,281.2,183.1
		z"/>
	<path class="st5" d="M279.1,210.4c0,0.1-9.8,0.2-21.9,0.2c-12.1,0-21.9-0.1-21.9-0.2s9.8-0.2,21.9-0.2
		C269.3,210.2,279.1,210.3,279.1,210.4z"/>
	<path class="st3" d="M314,219.4c0,0.1-17.6,0.2-39.4,0.2c-21.7,0-39.4-0.1-39.4-0.2c0-0.1,17.6-0.2,39.4-0.2
		C296.4,219.2,314,219.3,314,219.4z"/>
	<path class="st3" d="M313.1,225.8c0,0.1-17.4,0.2-38.9,0.2c-21.5,0-38.9-0.1-38.9-0.2s17.4-0.2,38.9-0.2
		C295.6,225.6,313.1,225.7,313.1,225.8z"/>
	<path class="st3" d="M281.2,231.9c0,0.1-10.3,0.2-23,0.2c-12.7,0-23-0.1-23-0.2s10.3-0.2,23-0.2
		C270.9,231.7,281.2,231.8,281.2,231.9z"/>
	<path class="st5" d="M279.1,259.3c0,0.1-9.8,0.2-21.9,0.2c-12.1,0-21.9-0.1-21.9-0.2s9.8-0.2,21.9-0.2
		C269.3,259,279.1,259.1,279.1,259.3z"/>
	<path class="st3" d="M314,268.3c0,0.1-17.6,0.2-39.4,0.2c-21.7,0-39.4-0.1-39.4-0.2s17.6-0.2,39.4-0.2
		C296.4,268,314,268.1,314,268.3z"/>
	<path class="st3" d="M313.1,274.7c0,0.1-17.4,0.2-38.9,0.2c-21.5,0-38.9-0.1-38.9-0.2c0-0.1,17.4-0.2,38.9-0.2
		C295.6,274.4,313.1,274.5,313.1,274.7"/>
	<path class="st3" d="M281.2,280.8c0,0.1-10.3,0.2-23,0.2c-12.7,0-23-0.1-23-0.2c0-0.1,10.3-0.2,23-0.2
		C270.9,280.5,281.2,280.7,281.2,280.8"/>
	<path class="st5" d="M279.1,308.1c0,0.1-9.8,0.2-21.9,0.2c-12.1,0-21.9-0.1-21.9-0.2c0-0.1,9.8-0.2,21.9-0.2
		C269.3,307.9,279.1,308,279.1,308.1z"/>
	<path class="st3" d="M314,317.1c0,0.1-17.6,0.2-39.4,0.2c-21.7,0-39.4-0.1-39.4-0.2c0-0.1,17.6-0.2,39.4-0.2
		C296.4,316.8,314,317,314,317.1z"/>
	<path class="st3" d="M313.1,323.5c0,0.1-17.4,0.2-38.9,0.2c-21.5,0-38.9-0.1-38.9-0.2c0-0.1,17.4-0.2,38.9-0.2
		C295.6,323.3,313.1,323.4,313.1,323.5z"/>
	<path class="st3" d="M281.2,329.6c0,0.1-10.3,0.2-23,0.2c-12.7,0-23-0.1-23-0.2s10.3-0.2,23-0.2
		C270.9,329.4,281.2,329.5,281.2,329.6z"/>
	<path class="st5" d="M279.1,356.6c0,0.1-9.8,0.2-21.9,0.2c-12.1,0-21.9-0.1-21.9-0.2s9.8-0.2,21.9-0.2
		C269.3,356.4,279.1,356.5,279.1,356.6z"/>
	<path class="st3" d="M314,365.6c0,0.1-17.6,0.2-39.4,0.2c-21.7,0-39.4-0.1-39.4-0.2s17.6-0.2,39.4-0.2
		C296.4,365.4,314,365.5,314,365.6z"/>
	<path class="st3" d="M313.1,372c0,0.1-17.4,0.2-38.9,0.2c-21.5,0-38.9-0.1-38.9-0.2c0-0.1,17.4-0.2,38.9-0.2
		C295.6,371.8,313.1,371.9,313.1,372z"/>
	<path class="st3" d="M281.2,378.1c0,0.1-10.3,0.2-23,0.2c-12.7,0-23-0.1-23-0.2c0-0.1,10.3-0.2,23-0.2
		C270.9,377.9,281.2,378,281.2,378.1z"/>
	
		<rect x="192.7" y="156.9" transform="matrix(5.571516e-03 -1 1 5.571516e-03 30.2752 379.876)" class="st4" width="26.8" height="35.7"/>
	<polygon class="st5" points="188.2,188 200.8,171.4 208.4,181.9 213.7,176.4 223.9,188.2 	"/>
	<path class="st5" d="M211.8,169.4c0,1.6-1.3,2.8-2.8,2.8c-1.6,0-2.8-1.3-2.8-2.8c0-1.6,1.3-2.8,2.8-2.8
		C210.5,166.6,211.8,167.9,211.8,169.4z"/>
	<polygon class="st6" points="188.2,188 200.8,171.4 208.4,181.9 213.7,176.4 223.9,188.2 	"/>
	<path class="st6" d="M211.8,169.4c0,1.6-1.3,2.8-2.8,2.8c-1.6,0-2.8-1.3-2.8-2.8c0-1.6,1.3-2.8,2.8-2.8
		C210.5,166.6,211.8,167.9,211.8,169.4z"/>
	
		<rect x="192.7" y="205.1" transform="matrix(5.571516e-03 -1 1 5.571516e-03 -17.948 427.8314)" class="st4" width="26.8" height="35.7"/>
	<polygon class="st5" points="188.2,236.2 200.8,219.6 208.4,230.1 213.7,224.6 223.9,236.4 	"/>
	<path class="st5" d="M211.8,217.7c0,1.6-1.3,2.8-2.8,2.8c-1.6,0-2.8-1.3-2.8-2.8s1.3-2.8,2.8-2.8
		C210.5,214.9,211.8,216.1,211.8,217.7z"/>
	<polygon class="st6" points="188.2,236.2 200.8,219.6 208.4,230.1 213.7,224.6 223.9,236.4 	"/>
	<path class="st6" d="M211.8,217.7c0,1.6-1.3,2.8-2.8,2.8c-1.6,0-2.8-1.3-2.8-2.8s1.3-2.8,2.8-2.8
		C210.5,214.9,211.8,216.1,211.8,217.7z"/>
	
		<rect x="192.7" y="253.3" transform="matrix(5.557827e-03 -1 1 5.557827e-03 -66.168 475.7899)" class="st4" width="26.8" height="35.7"/>
	<polygon class="st5" points="188.2,284.5 200.8,267.9 208.4,278.3 213.7,272.8 223.9,284.7 	"/>
	<path class="st5" d="M211.8,265.9c0,1.6-1.3,2.8-2.8,2.8c-1.6,0-2.8-1.3-2.8-2.8s1.3-2.8,2.8-2.8
		C210.5,263.1,211.8,264.3,211.8,265.9z"/>
	<polygon class="st6" points="188.2,284.5 200.8,267.9 208.4,278.3 213.7,272.8 223.9,284.7 	"/>
	<path class="st6" d="M211.8,265.9c0,1.6-1.3,2.8-2.8,2.8c-1.6,0-2.8-1.3-2.8-2.8s1.3-2.8,2.8-2.8
		C210.5,263.1,211.8,264.3,211.8,265.9z"/>
	
		<rect x="192.7" y="301.6" transform="matrix(5.571516e-03 -1 1 5.571516e-03 -114.3939 523.7414)" class="st4" width="26.8" height="35.7"/>
	<polygon class="st5" points="188.2,332.7 200.8,316.1 208.4,326.6 213.7,321 223.9,332.9 	"/>
	<path class="st5" d="M211.8,314.1c0,1.6-1.3,2.8-2.8,2.8c-1.6,0-2.8-1.3-2.8-2.8s1.3-2.8,2.8-2.8
		C210.5,311.3,211.8,312.6,211.8,314.1z"/>
	<polygon class="st6" points="188.2,332.7 200.8,316.1 208.4,326.6 213.7,321 223.9,332.9 	"/>
	<path class="st6" d="M211.8,314.1c0,1.6-1.3,2.8-2.8,2.8c-1.6,0-2.8-1.3-2.8-2.8s1.3-2.8,2.8-2.8
		C210.5,311.3,211.8,312.6,211.8,314.1z"/>
	
		<rect x="192.7" y="349.5" transform="matrix(5.571516e-03 -1 1 5.571516e-03 -162.3824 571.4633)" class="st4" width="26.8" height="35.7"/>
	<polygon class="st5" points="188.2,380.7 200.8,364.1 208.4,374.6 213.7,369 223.9,380.9 	"/>
	<path class="st5" d="M211.8,362.1c0,1.6-1.3,2.8-2.8,2.8c-1.6,0-2.8-1.3-2.8-2.8s1.3-2.8,2.8-2.8
		C210.5,359.3,211.8,360.6,211.8,362.1z"/>
	<polygon class="st6" points="188.2,380.7 200.8,364.1 208.4,374.6 213.7,369 223.9,380.9 	"/>
	<path class="st6" d="M211.8,362.1c0,1.6-1.3,2.8-2.8,2.8c-1.6,0-2.8-1.3-2.8-2.8s1.3-2.8,2.8-2.8
		C210.5,359.3,211.8,360.6,211.8,362.1z"/>
	<path class="st4" d="M469.2,115.3c0,7-5.7,12.7-12.7,12.7c-7,0-12.7-5.7-12.7-12.7c0-7,5.7-12.7,12.7-12.7
		C463.5,102.6,469.2,108.2,469.2,115.3z"/>
	<path class="st7" d="M455.7,119.4c-0.1,0-0.3,0-0.4-0.1l-4.3-3.5c-0.3-0.2-0.3-0.6-0.1-0.8c0.2-0.3,0.6-0.3,0.8-0.1l3.8,3.2
		l5.4-6.6c0.2-0.3,0.6-0.3,0.8-0.1c0.3,0.2,0.3,0.6,0.1,0.8l-5.8,7.1C456.1,119.3,455.9,119.4,455.7,119.4L455.7,119.4z"/>
	<path class="st4" d="M419.1,97.8c0,9.6-7.8,17.4-17.4,17.4s-17.4-7.8-17.4-17.4s7.8-17.4,17.4-17.4S419.1,88.2,419.1,97.8z"/>
	<path class="st7" d="M400.6,103.9c-0.3,0-0.5-0.1-0.7-0.3l-5.9-4.8c-0.5-0.4-0.6-1.1-0.2-1.6c0.4-0.5,1.1-0.6,1.6-0.2l5,4.1
		l7.2-8.8c0.4-0.5,1.1-0.6,1.6-0.2c0.5,0.4,0.6,1.1,0.2,1.6l-8,9.7c-0.2,0.2-0.5,0.4-0.8,0.4L400.6,103.9z"/>
	<path class="st3" d="M327.7,334.6c-18.4-5.2-29.4-23.7-25.7-42.1c-0.3,0.9-0.6,1.8-0.9,2.7c-5.5,19.3,5.7,39.4,25,44.9
		s39.4-5.7,44.9-25c0.3-0.9,0.5-1.9,0.7-2.8C365.1,329.9,346,339.8,327.7,334.6z"/>
	<path class="st11" d="M345.6,270.4c18.4,5.2,29.4,23.7,25.7,42.1c0.3-0.9,0.6-1.8,0.9-2.7c5.5-19.3-5.7-39.4-25-44.9
		c-19.3-5.5-39.4,5.7-44.9,25c-0.3,0.9-0.5,1.9-0.7,2.8C308.1,275,327.2,265.2,345.6,270.4z"/>
	<path class="st3" d="M372.6,309.5c0,0,0-0.2,0.1-0.6c0.1-0.4,0.2-1,0.4-1.7c0.1-0.4,0.2-0.8,0.3-1.2c0.1-0.5,0.1-1,0.2-1.5
		c0.1-1.1,0.3-2.4,0.3-3.8c0.1-2.9-0.2-6.4-1.2-10.4c-1.1-3.9-3-8.3-6-12.4c-3.1-4.1-7.3-8-12.8-10.6c-1.4-0.6-2.7-1.3-4.2-1.8
		c-0.7-0.2-1.5-0.5-2.2-0.7c-0.8-0.2-1.5-0.4-2.3-0.5c-0.4-0.1-0.8-0.2-1.2-0.3l-1.2-0.2c-0.8-0.1-1.6-0.2-2.4-0.3
		c-1.6,0-3.3-0.2-5,0c-1.7,0.1-3.4,0.4-5.1,0.7c-0.8,0.2-1.7,0.5-2.5,0.7c-0.9,0.2-1.7,0.5-2.5,0.8c-1.7,0.6-3.3,1.4-4.9,2.2
		c-1.5,1-3.1,1.9-4.5,3.1c-2.9,2.3-5.6,5-7.7,8.1c-2.1,3.2-3.8,6.7-4.9,10.4c-1,3.8-1.5,7.6-1.3,11.4c0.1,3.8,1,7.5,2.2,11
		c0.6,1.8,1.5,3.4,2.3,5c1,1.5,1.8,3.1,3,4.5c0.5,0.7,1.1,1.4,1.7,2c0.6,0.6,1.2,1.3,1.8,1.9c1.3,1.1,2.5,2.3,4,3.3
		c1.3,1.1,2.8,1.8,4.2,2.7c0.7,0.4,1.5,0.7,2.2,1l1.1,0.5c0.4,0.2,0.8,0.3,1.1,0.4c0.8,0.3,1.5,0.5,2.3,0.8c0.8,0.2,1.5,0.4,2.3,0.6
		c1.5,0.4,3,0.5,4.5,0.7c6,0.6,11.7-0.5,16.5-2.3c4.8-1.9,8.7-4.5,11.6-7.3c3-2.8,5.1-5.6,6.5-8.2c0.8-1.2,1.3-2.4,1.8-3.4
		c0.2-0.5,0.5-1,0.6-1.4c0.2-0.4,0.3-0.8,0.4-1.2c0.3-0.7,0.4-1.2,0.6-1.6C372.5,309.6,372.6,309.5,372.6,309.5s0,0.2-0.2,0.6
		c-0.1,0.4-0.3,0.9-0.5,1.6c-0.1,0.4-0.3,0.8-0.4,1.2c-0.2,0.4-0.4,0.9-0.6,1.4c-0.5,1-0.9,2.2-1.7,3.4c-1.4,2.6-3.5,5.4-6.5,8.3
		c-3,2.8-6.9,5.6-11.7,7.5c-4.8,1.9-10.6,3-16.7,2.4c-1.5-0.2-3.1-0.3-4.6-0.7c-0.8-0.2-1.6-0.3-2.3-0.6c-0.8-0.3-1.5-0.5-2.3-0.8
		c-0.4-0.1-0.8-0.2-1.2-0.4l-1.1-0.5c-0.7-0.4-1.5-0.7-2.3-1.1c-1.4-0.9-3-1.6-4.3-2.7c-1.4-1-2.7-2.2-4-3.3
		c-0.6-0.6-1.2-1.3-1.8-1.9c-0.6-0.6-1.2-1.3-1.7-2.1c-1.2-1.4-2.1-3-3-4.5c-0.8-1.6-1.7-3.3-2.3-5.1c-1.3-3.5-2.2-7.3-2.3-11.1
		c-0.1-3.9,0.3-7.8,1.3-11.6c1.1-3.8,2.8-7.4,5-10.6c2.1-3.2,4.9-6,7.8-8.3c1.4-1.2,3.1-2.1,4.6-3.1c1.6-0.8,3.3-1.7,5-2.3
		c0.8-0.3,1.7-0.7,2.5-0.9c0.9-0.2,1.7-0.5,2.6-0.7c1.7-0.3,3.4-0.7,5.2-0.7c1.7-0.2,3.4-0.1,5.1,0c0.8,0.1,1.7,0.2,2.5,0.3l1.2,0.2
		c0.4,0.1,0.8,0.2,1.2,0.3c0.8,0.2,1.6,0.4,2.4,0.5c0.8,0.2,1.5,0.5,2.3,0.7c1.5,0.4,2.9,1.2,4.3,1.8c5.5,2.7,9.8,6.7,12.9,10.8
		c3.1,4.2,5,8.6,6,12.5c1,4,1.3,7.6,1.2,10.5c0,1.5-0.2,2.7-0.3,3.8c-0.1,0.6-0.1,1.1-0.2,1.5c-0.1,0.5-0.2,0.9-0.3,1.2
		c-0.2,0.7-0.3,1.3-0.4,1.7C372.7,309.3,372.6,309.5,372.6,309.5z"/>
	<path class="st3" d="M358.8,330.2c0.5,0.3,34.9,32,47.5,43.9c2.1,2,5.5,2,7.6-0.1v0c2.3-2.2,2.2-5.8-0.1-8l-47.2-43.6L358.8,330.2z
		"/>
	<path class="st12" d="M182,215l0.7-2.8c0.5-1.8,0.4-3.7-0.1-5.5l-2.9-9.6c-0.3-0.9-0.9-1.6-1.7-2.1c-2.2-1.3-6.5-3.7-6.9-3.4
		c-2.7,2.2,3.3,6.1,3.3,6.1s2.3,2.5,0.5,4.4c-2.1,2.2-5.9-2.6-5.9-2.6s0.2-0.5,0.4-0.4c0.1,0,2,1.6,3.7,1.6l0-3.1l-3.5-2.2
		c-0.8-0.5-1.7-0.7-2.6-0.5l-1.2,0.3c-0.8,0.2-1.5,0.6-1.9,1.3l-1.2,1.7l-0.5,0.7c-0.5,0.6-0.6,1.5-0.2,2.2l0.6,1.2l-0.8,1.1
		c-0.6,0.9-0.8,2.1-0.4,3.1l5.9,8.1l8.8,14.3l9.5-10.2L182,215z"/>
	<path class="st13" d="M163.6,206.6c0,0-0.2-0.2-0.3-0.6c-0.1-0.4-0.1-1,0.3-1.5l0-0.1l0-0.1l-0.1-0.2c-0.6-1.3-1.2-2.3-1.3-2.3
		s0.4,1.1,1.1,2.4l0.1,0.2l0-0.1c-0.4,0.6-0.4,1.3-0.3,1.7C163.4,206.5,163.6,206.6,163.6,206.6z"/>
	<path class="st13" d="M164.4,196c0.1,0-0.4,0.6-0.2,1.6c0.2,1,0.8,2.4,1.6,3.8c0.2,0.3,0.4,0.7,0.6,1.1c0.1,0.4,0.1,0.8,0.1,1.2
		c-0.1,0.7,0,1.3,0.2,1.8c0.5,0.9,1.2,1.1,1.1,1.2c0,0-0.8-0.1-1.4-1.1c-0.3-0.5-0.4-1.2-0.3-1.9c0-0.3,0-0.7-0.1-1
		c-0.1-0.3-0.3-0.7-0.5-1c-0.9-1.4-1.4-2.8-1.5-3.9C163.8,196.5,164.3,195.9,164.4,196z"/>
	<path class="st13" d="M169,199.5c-0.1,0-0.1-0.6-0.4-1.3c-0.4-0.7-0.8-1.2-0.7-1.3c0.1-0.1,0.6,0.4,1,1.1
		C169.4,198.8,169.2,199.6,169,199.5z"/>
	<polygon class="st11" points="185.3,264 188.9,268.5 207.6,246 183.1,213.7 170.9,223.2 	"/>
	<polyline class="st5" points="268.8,482.1 270.3,518.8 290.1,518.3 288.6,481.6 268.8,482.1 	"/>
	<path class="st3" d="M280,517.2c0.2,0-0.1-8-0.7-17.9c-0.5-9.9-1.1-17.9-1.3-17.9c-0.2,0,0.1,8,0.7,17.9
		C279.3,509.2,279.9,517.2,280,517.2"/>
	<polygon class="st3" points="270.2,516.2 290,515.7 290.1,518.3 270.3,518.8 	"/>
	<path class="st3" d="M289.6,506.6c0,0-0.2-0.3-0.5-0.8c-0.4-0.5-1-1.1-1.8-1.8c-0.8-0.7-1.9-1.4-3.3-2c-1.3-0.6-3-0.9-4.7-0.9
		c-3.4,0.2-6.2,2-7.5,3.7c-0.7,0.9-1.1,1.7-1.3,2.2c-0.2,0.6-0.3,0.9-0.3,0.9c0.1,0.1,0.5-1.3,1.9-2.8c1.4-1.6,4-3.2,7.3-3.4
		c3.2-0.2,6,1.3,7.7,2.6C288.7,505.6,289.5,506.7,289.6,506.6z"/>
	<path class="st14" d="M289.1,494.5l0.1,1.6h0L289.1,494.5 M269.2,493.4L269.2,493.4l0.1,3L269.2,493.4"/>
	<path class="st15" d="M278.4,492.8l-9.2,0.6l0.1,3l9.2-0.2C278.5,495.1,278.5,493.9,278.4,492.8 M289,492.1l-10.1,0.7
		c0.1,1.1,0.1,2.3,0.2,3.5l10-0.2l-0.1-1.6L289,492.1"/>
	<path class="st16" d="M279,492.7l-0.6,0c0.1,1.1,0.1,2.3,0.2,3.5l0.6,0C279.1,495,279,493.9,279,492.7"/>
	<path class="st5" d="M222.2,484.3l1,22.3c0,0-22.3,8.5-22.6,12.6l43.3-0.3l-0.1-34.8L222.2,484.3"/>
	<path class="st9" d="M236.3,504.7c0.8,0.2,1.4,1.2,1.2,2s-1.1,1.5-2,1.3c-0.8-0.2-1.6-1.3-1.3-2.1c0.3-0.8,1.4-1.5,2.2-1.1"/>
	<path class="st3" d="M243.9,518.9l0-3.5L202,517c0,0-1.9,0.9-1.7,2.2L243.9,518.9z"/>
	<path class="st3" d="M222.8,506.8c0,0.2,1.1,0.3,2.1,1c1.1,0.6,1.6,1.6,1.8,1.5c0.2,0-0.1-1.3-1.4-2.1
		C224,506.3,222.7,506.6,222.8,506.8z"/>
	<path class="st3" d="M218.2,508.7c0,0.2,0.9,0.6,1.6,1.5c0.8,0.9,0.9,1.8,1.2,1.8c0.2,0,0.3-1.2-0.6-2.3
		C219.5,508.6,218.2,508.5,218.2,508.7z"/>
	<path class="st3" d="M215.7,514.2c0.2,0,0.5-1-0.1-2.2c-0.5-1.2-1.6-1.6-1.6-1.4c-0.1,0.2,0.5,0.8,1,1.8
		C215.4,513.3,215.4,514.2,215.7,514.2z"/>
	<path class="st3" d="M223.1,501.6c0.1,0.1,0.4,0.1,0.9,0c0.4,0,0.9-0.1,1.4,0c1.2,0,2.1,0.4,2.3,0.3c0.1-0.2-0.8-0.9-2.2-1
		C224,500.8,223,501.4,223.1,501.6"/>
	<path class="st3" d="M222.3,496.8c0,0.1,0.8,0.2,2.2,0c0.7-0.1,1.5-0.3,2.3-0.7c0.4-0.2,0.8-0.4,1.2-0.7c0.2-0.1,0.4-0.3,0.7-0.5
		c0.2-0.2,0.4-0.8,0.1-1.1c-0.2-0.3-0.6-0.5-0.9-0.5c-0.3,0-0.6,0.1-0.8,0.1c-0.5,0.1-0.9,0.3-1.4,0.5c-0.8,0.4-1.5,0.9-2,1.3
		c-1,0.9-1.3,1.7-1.3,1.8c0.1,0.1,0.6-0.6,1.6-1.4c0.5-0.4,1.2-0.8,1.9-1.1c0.4-0.2,0.8-0.3,1.3-0.4c0.5-0.1,0.9-0.1,1,0.1
		c0,0.1,0,0.1,0,0.2c-0.1,0.1-0.3,0.2-0.5,0.4c-0.4,0.3-0.8,0.5-1.1,0.7c-0.8,0.4-1.5,0.6-2.1,0.8
		C223.1,496.6,222.3,496.7,222.3,496.8z"/>
	<path class="st3" d="M222.6,497.1c0.1,0,0.5-0.7,0.6-2.1c0-0.7,0-1.5-0.3-2.4c-0.1-0.4-0.3-0.9-0.6-1.3c-0.3-0.4-0.6-1-1.4-1.1
		c-0.4,0-0.8,0.3-0.9,0.6c-0.1,0.3-0.2,0.5-0.2,0.8c-0.1,0.5-0.1,1,0,1.5c0.1,0.9,0.5,1.7,0.9,2.2c0.9,1.1,1.8,1.4,1.8,1.3
		c0.1-0.1-0.7-0.5-1.3-1.6c-0.3-0.5-0.6-1.2-0.7-2c0-0.4,0-0.8,0-1.3c0.1-0.5,0.2-0.8,0.4-0.8c0.2,0,0.6,0.3,0.8,0.7
		c0.2,0.4,0.4,0.8,0.5,1.2c0.3,0.8,0.4,1.5,0.4,2.2C222.7,496.3,222.5,497.1,222.6,497.1z"/>
	<polyline class="st14" points="243.9,497.5 243.9,497.5 243.9,502.4 243.9,502.4 243.9,497.5 	"/>
	<path class="st15" d="M223.3,501.7c-0.1,0-0.2,0-0.2-0.1c-0.1-0.2,0.8-0.8,2.1-0.8c0.1,0,0.1,0,0.2,0c1.4,0.1,2.3,0.8,2.2,1
		c0,0-0.1,0-0.1,0c-0.3,0-1.1-0.3-2.1-0.3c-0.1,0-0.3,0-0.4,0c-0.4,0-0.7,0-1,0.1C223.7,501.7,223.5,501.7,223.3,501.7 M243.9,497.5
		l-20.9,0.5v4.5h20.9L243.9,497.5"/>
	<path class="st16" d="M225.2,500.8c-1.3,0-2.2,0.6-2.1,0.8c0,0,0.1,0.1,0.2,0.1c0.2,0,0.4,0,0.7-0.1c0.3,0,0.6-0.1,1-0.1
		c0.1,0,0.3,0,0.4,0c1,0,1.8,0.3,2.1,0.3c0.1,0,0.1,0,0.1,0c0.1-0.2-0.8-0.9-2.2-1C225.4,500.8,225.3,500.8,225.2,500.8"/>
	<path class="st12" d="M313.9,126.4l3.1,12c0,0,1.2,6.6-1.9,6.6c-2.7,0-3-3.6-3-3.6s1.4-7.3-2.2-6.9c-0.5,0.1-1.8,5.1-2.4,7.6
		c-0.2,0.9-0.1,1.9,0.4,2.8l5.2,9.1c1,1.7,2.4,3.1,4,4.1l2.6,1.5l0.3,5.4l14.5,0.2l-4.4-16.9l-1.8-10.3c-0.5-1-1.5-1.8-2.6-1.9
		l-1.4-0.2l-0.5-1.3c-0.3-0.8-1-1.3-1.8-1.4l-0.8-0.1l-1.2-2.9c-0.4-1-3.2-7.4-4.3-7.4C315.5,122.8,313.1,123.5,313.9,126.4z"/>
	<path class="st13" d="M324.3,141c0,0,0-0.5-0.3-1.3c-0.3-0.8-0.9-1.7-2-2.5c-0.6-1.2-0.9-2.3-1.1-3.1c-0.2-0.8-0.2-1.4-0.2-1.4
		c0,0,0.1,0.5,0.3,1.3c0.2,0.8,0.6,2,1.1,3c0.2,0.2,0.5,0.4,0.7,0.6c0.2,0.2,0.4,0.4,0.6,0.7c0.3,0.5,0.5,0.9,0.6,1.4
		c0.1,0.4,0.1,0.8,0.1,1C324.3,140.9,324.3,141,324.3,141z"/>
	<path class="st13" d="M326.5,139.8c0,0,0-0.3-0.2-0.7c-0.2-0.4-0.7-0.8-1.3-0.9l-0.1,0l0-0.1l-0.1-0.2c-0.5-1.4-0.9-2.6-0.8-2.6
		c0.1,0,0.5,1.1,1.1,2.5l0.1,0.2l-0.1-0.1c0.8,0.1,1.3,0.6,1.5,1C326.6,139.5,326.5,139.8,326.5,139.8z"/>
	<path class="st12" d="M241.1,197.9l26.3-0.3l-2.9-22.4c0,0,1.8-0.4,1.9-10.1c0.1-9.7,0.6-26.3,0.6-26.3c-11.3-4.8-24.3-3.2-34,4.3
		l-1.4,1.1L241.1,197.9z"/>
	<path class="st12" d="M234.5,156.1c-0.2-0.1-6.7-2-6.5,4.7c0.2,6.7,6.9,5.1,6.9,4.9S234.5,156.1,234.5,156.1z"/>
	<path class="st12" d="M265.8,154.7c0.2-0.1,6.1-1.7,5.9,5c-0.2,6.7-6.9,5.1-6.9,4.9S265.8,154.7,265.8,154.7z"/>
	<path class="st3" d="M232.4,155.3c1,5.6,0.8,8.5,1.7,12.2c1.5,5.9,4.4,10.4,9.7,13.4c5.3,2.9,12.5,2.9,17.1-1.1
		c3.2-2.8,5.4-5.9,5.9-10.1s0.9-11.6,1-15.8c0.1-7.6,0.6-14.9,0.6-14.9l-21.7-3.9l-12.4,7.4L232.4,155.3z"/>
	<path class="st3" d="M254.8,184.3c0,0.2-1.7,0.6-3.8,0.3c-2.1-0.2-3.7-1-3.6-1.2c0.1-0.2,1.7,0.3,3.7,0.6
		C253.1,184.3,254.7,184.1,254.8,184.3z"/>
	<path class="st3" d="M233.4,164.8c-0.6-5.7-1-12.3-1.9-18.3c-0.3-2.3-1.1-5.5-0.9-7.8c0.2-2.3,0.4-4.6,1.4-6.7
		c1.3-2.6,3.8-4.5,6.6-5.1c2.8-0.6,5.9,0.3,8.1,2.1c1.6-2.4,4.7-3.6,7.5-3c2.8,0.6,5,3.1,5.4,5.9c1.5-1.5,4.1-1.7,5.9-0.6
		s2.8,3.5,2.2,5.5c1.6,0.3,3,1.3,3.6,2.8c0.6,1.4,0.5,3.2-0.4,4.5c-1,1.5-2.8,2.4-3.9,3.9c-1.3,1.7-1.4,4.2-0.3,6"/>
	<path class="st11" d="M263.6,144.2c0,0,0,0.2-0.2,0.6c-0.2,0.4-0.6,0.9-1.3,1.4c-0.7,0.5-1.6,0.9-2.8,0.9c-1.2,0-2.5-0.5-3.5-1.6
		l0.5-0.1c-0.2,1.4-1.4,2.7-2.9,3.3c-1.5,0.7-3.5,0.4-4.9-0.6c-1.3-0.9-2.3-2.2-2.8-3.6l0.5,0.1c-1.2,1.8-3.2,2.7-4.9,2.7
		c-1.8,0.1-3.3-0.8-4.1-1.7c-0.9-0.9-1.3-1.9-1.5-2.5c-0.2-0.7-0.2-1.1-0.1-1.1c0,0,0.1,0.4,0.3,1c0.2,0.6,0.7,1.5,1.6,2.3
		c0.9,0.8,2.2,1.5,3.9,1.5c1.6-0.1,3.4-0.9,4.4-2.5l0.3-0.5l0.2,0.6c0.5,1.3,1.3,2.5,2.5,3.3c1.3,0.9,3,1.1,4.3,0.6
		c1.4-0.5,2.4-1.7,2.6-2.9l0.1-0.6l0.4,0.4c0.8,1,2,1.5,3.1,1.5c1.1,0.1,2-0.3,2.6-0.7C263.2,145.1,263.5,144.1,263.6,144.2z"/>
	<path class="st11" d="M263.5,141.5c-0.1,0,0-1.1-0.9-2.4c-0.5-0.6-1.2-1.3-2.3-1.5c-1-0.2-2.3-0.1-3.3,0.6l-0.5,0.4l0.1-0.7
		c0.1-0.6,0-1.3-0.2-1.9c-0.5-1.4-1.5-2.6-2.7-3.1c-1.2-0.6-2.4-0.5-3.4-0.3c-2,0.5-2.7,1.7-2.8,1.6c0,0,0.1-0.3,0.5-0.7
		c0.4-0.4,1.1-0.9,2.2-1.3c1-0.3,2.4-0.4,3.7,0.2c1.3,0.6,2.5,1.8,3,3.4c0.2,0.7,0.3,1.5,0.2,2.2l-0.5-0.3c1.2-0.8,2.6-1,3.8-0.7
		c1.2,0.3,2,1.1,2.5,1.8c0.5,0.7,0.6,1.4,0.7,1.9C263.6,141.3,263.6,141.5,263.5,141.5z"/>
	<path class="st11" d="M249.7,141.7c-0.1,0,0-0.4,0-0.9c0-0.5-0.2-1.3-0.7-2c-0.4-0.7-1-1.4-1.3-1.8c-0.3-0.3-0.6-0.1-0.7-0.1
		c0,0,0-0.1,0.1-0.3c0.2-0.1,0.5-0.1,0.8,0.1c0.3,0.2,0.5,0.5,0.8,0.8c0.3,0.3,0.5,0.6,0.8,1c0.5,0.8,0.7,1.7,0.6,2.3
		C250,141.4,249.8,141.8,249.7,141.7z"/>
	<path class="st11" d="M236.8,133.3c-0.1,0,0-0.5,0.4-1.2c0.2-0.3,0.5-0.7,1-1c0.5-0.3,1.1-0.5,1.8-0.4c1.3,0.2,2.2,1.1,2.6,1.7
		c0.5,0.6,0.7,1,0.6,1.1c-0.1,0.1-0.4-0.3-1-0.8c-0.5-0.5-1.3-1.2-2.4-1.3c-1.1-0.2-1.9,0.5-2.3,1.1
		C237.1,133,236.9,133.4,236.8,133.3z"/>
	<path class="st11" d="M240.2,161.6c-0.1,0.1-1.4-1.7-2.3-4.2c-0.9-2.5-1-4.8-0.8-4.8c0.2,0,0.5,2.1,1.4,4.6
		C239.3,159.6,240.3,161.5,240.2,161.6z"/>
	<path class="st11" d="M243.1,163.2c-0.1,0.1-0.9-1.3-1.6-3c-0.7-1.8-1-3.3-0.8-3.3c0.2,0,0.7,1.4,1.4,3.1
		C242.7,161.7,243.3,163.1,243.1,163.2z"/>
	<path class="st11" d="M261.4,163.6c0.1,0,0.4,2.7-0.8,5.9c-1.2,3.1-3.2,5-3.3,4.9c-0.1-0.1,1.6-2.1,2.7-5.1
		C261.2,166.3,261.2,163.6,261.4,163.6z"/>
	<path class="st11" d="M264.3,158.8c0.1-0.1,1,2.3,0.4,5.3c-0.5,3-2.2,4.9-2.3,4.8c-0.2-0.1,1.2-2.1,1.7-4.9
		C264.7,161.1,264.1,158.8,264.3,158.8z"/>
	<polyline class="st3" points="255.9,342.4 262.3,404.1 266.9,496.9 291.4,496.9 292.1,299.3 221.9,304.3 207.4,408 220,498.7 
		246.8,498.7 240.6,412.4 255.9,342.4 	"/>
	<path class="st11" d="M255.9,342.4c0.1,0.1-2,2.2-4.8,4.7c-2.7,2.5-5.1,4.4-5.2,4.2c-0.1-0.1,2-2.2,4.8-4.7
		C253.5,344.2,255.8,342.3,255.9,342.4z"/>
	<path class="st11" d="M255.8,341.2c-0.2,0,0-3.6,0.1-7.9c0.2-4.4,0.3-7.9,0.5-7.9c0.2,0,0.3,3.6,0.2,7.9
		C256.4,337.7,256,341.2,255.8,341.2z"/>
	<path class="st11" d="M263.9,318.2c0,0,0.1,0,0.4,0c0.3,0,0.7,0,1.2-0.1c1.1-0.1,2.7-0.1,4.6-0.2c4.1-0.2,9.8-0.4,16.6-0.7l0.3,0
		l0,0.3c0,5.2,0,11,0,17.2v0.3v0.2l-0.2,0.1c-3.8,1.5-7.4,3-10.8,4.3l-0.1,0l-0.1,0c-3.4-1.2-6.6-2.3-9.6-3.3l-0.1-0.1l0-0.2
		c-0.7-5.4-1.3-9.9-1.7-13.1c-0.2-1.5-0.3-2.7-0.4-3.6C264,318.6,263.9,318.1,263.9,318.2c0,0,0,0.1,0.1,0.4c0,0.3,0.1,0.6,0.2,1
		c0.1,0.9,0.3,2.1,0.6,3.6c0.5,3.2,1.1,7.6,1.9,12.9l-0.2-0.2c2.9,1,6.2,2.1,9.6,3.3l-0.2,0c3.4-1.4,7-2.8,10.8-4.4l-0.2,0.3v-0.3
		c0-6.2,0-12.1,0-17.2l0.3,0.3c-6.7,0.2-12.4,0.3-16.4,0.4c-2,0-3.6,0.1-4.7,0.1c-0.5,0-0.9,0-1.3,0
		C264.1,318.2,264,318.2,263.9,318.2z"/>
	<path class="st11" d="M228.6,318.5c0,0,0.1,0,0.4,0c0.3,0,0.7,0,1.1,0c1,0,2.4-0.1,4.2-0.1c3.7-0.1,8.9-0.2,15.2-0.4l0.3,0l0,0.3
		c-0.2,5.1-0.4,11-0.6,17.3l0,0.2l-0.1,0.1c-0.6,0.4-1.2,0.8-1.8,1.1c-3.1,2-6.1,4-8.9,5.8l-0.2,0.1l-0.2-0.1c-3.6-2.2-7-4.2-10-6.1
		l-0.1-0.1l0-0.1c0.2-5.4,0.3-9.9,0.5-13.1c0.1-1.5,0.1-2.7,0.2-3.6C228.5,318.9,228.5,318.4,228.6,318.5c0,0,0,0.1,0,0.4
		c0,0.3,0,0.6,0,1c0,0.9,0,2.1,0,3.6c0,3.2-0.1,7.6-0.2,12.9l-0.1-0.2c3,1.8,6.4,3.9,10,6l-0.3,0c2.8-1.8,5.8-3.8,8.9-5.8
		c0.6-0.4,1.2-0.8,1.8-1.1l-0.1,0.2c0.2-6.3,0.4-12.2,0.6-17.3l0.3,0.3c-6.1,0-11.3,0.1-15,0.1c-1.8,0-3.2,0-4.3,0
		c-0.5,0-0.8,0-1.1,0C228.7,318.5,228.6,318.5,228.6,318.5z"/>
	<path class="st11" d="M284.5,346.4c0,0.1-1.3,0-3.3-0.1c-2-0.2-4.9-0.4-8-0.8c-3.1-0.4-5.9-0.9-7.9-1.2c-2-0.4-3.3-0.7-3.2-0.7
		c0-0.1,1.3,0.1,3.3,0.3c2.2,0.3,4.9,0.7,7.9,1c3,0.4,5.7,0.7,7.9,1C283.2,346.1,284.5,346.3,284.5,346.4z"/>
	<path class="st11" d="M283.9,415.1c0,0-0.1,0.4-0.6,0.8c-0.5,0.4-1.4,0.9-2.5,0.9c-1.2,0-2.5-0.5-3.7-1.4c-1.2-0.9-2.2-2.1-3.3-3.4
		c-2.2-2.5-3.9-5.1-5-7c-1.1-1.9-1.6-3.2-1.6-3.2c0.1,0,0.7,1.1,1.9,3c1.2,1.8,2.9,4.3,5.1,6.8c1.1,1.2,2.1,2.4,3.2,3.3
		c1.1,0.9,2.3,1.4,3.3,1.4c1,0.1,1.9-0.3,2.4-0.6C283.7,415.4,283.9,415.1,283.9,415.1z"/>
	<path class="st11" d="M235.5,417.3c0,0,0,0.3-0.3,0.8c-0.3,0.5-0.8,1.1-1.7,1.6c-0.9,0.5-2,0.9-3.4,0.9c-1.3,0-2.8-0.5-4-1.3
		c-2.6-1.6-4-4.1-4.9-5.8c-0.9-1.7-1.3-2.9-1.2-2.9c0.1,0,0.6,1,1.6,2.7c1,1.6,2.4,4,4.8,5.5c1.2,0.8,2.5,1.2,3.7,1.2
		c1.2,0,2.3-0.3,3.1-0.7C235,418.4,235.4,417.2,235.5,417.3z"/>
	<path class="st11" d="M237.1,408c0,0.1-0.7,0.6-2,1.2c-1.3,0.6-3.3,1.1-5.5,1.2c-2.2,0.1-4.2-0.3-5.6-0.8c-1.4-0.5-2.1-0.9-2.1-1
		c0.1-0.2,3.3,1.4,7.7,1.2C233.9,409.6,237,407.8,237.1,408z"/>
	<path class="st11" d="M316.8,190.4h-35.7c0,0-4.9-2.8-7.2-2.3c-2.3,0.5-4.4,3-4.4,3l4.7,39.4l11.6-8.6l43.1-4.5
		c3.7,0,7.3-1.6,9.8-4.3c2.8-3,4.1-7,3.6-11l-8-42.3l-16.3,0.5l-0.6,10.7L316.8,190.4z"/>
	<path class="st11" d="M218.5,200.3c0,0-5.8,3.2-8.6,10c-2.1,5-16.3,30-23.8,43c-2.7,4.8-2,10.7,1.8,14.7c4.6,4.8,10,2.9,16.7,0.7
		c3-1,16.4-21.6,16.4-21.6L218.5,200.3z"/>
	<polyline class="st11" points="224.7,289.6 216.5,219.1 218.5,200.3 239.3,191.4 266.4,189.6 292.1,192.5 286.1,264.8 292.6,305.5 
		220.6,308.8 224.7,289.6 	"/>
	<path class="st3" d="M224.7,289.3c-0.2,0-2.1-15.7-4.4-35.1c-2.3-19.4-3.9-35.1-3.8-35.1s2.1,15.7,4.4,35.1
		C223.1,273.5,224.8,289.2,224.7,289.3z"/>
	<path class="st3" d="M291.5,208.3c0,0,0,0.2,0,0.6c0,0.5-0.1,1.1-0.2,1.8c-0.2,1.7-0.4,3.9-0.7,6.6c-0.6,5.7-1.3,13.4-2.2,21.9
		c-0.8,8.6-1.5,16.3-1.9,22c-0.2,2.7-0.4,5-0.5,6.7c-0.1,0.7-0.1,1.3-0.1,1.8c0,0.4-0.1,0.6-0.1,0.6s0-0.2,0-0.6c0-0.5,0-1.1,0-1.8
		c0-1.6,0.1-3.9,0.3-6.7c0.3-5.6,0.9-13.4,1.7-22c0.8-8.6,1.7-16.3,2.4-21.9c0.3-2.8,0.6-5.1,0.9-6.6c0.1-0.7,0.2-1.3,0.3-1.8
		C291.5,208.5,291.5,208.3,291.5,208.3z"/>
	<path class="st3" d="M279.1,278.5c0,0-0.4,0.5-1.1,1.4c-0.4,0.4-0.9,1-1.5,1.5c-0.6,0.6-1.3,1.2-2.1,1.9c-0.8,0.7-1.7,1.4-2.7,2.1
		c-1,0.7-2.1,1.4-3.3,2.1c-2.4,1.3-5.2,2.5-8.2,3.5c-3.1,0.9-6.1,1.4-8.8,1.6c-1.4,0.1-2.7,0.2-3.9,0.1c-1.2,0-2.4-0.1-3.4-0.2
		c-1-0.1-2-0.3-2.8-0.4c-0.8-0.1-1.5-0.3-2.1-0.5c-1.1-0.3-1.7-0.5-1.7-0.5c0-0.1,2.5,0.6,6.6,1c1,0.1,2.1,0.2,3.4,0.2
		c1.2,0,2.5-0.1,3.9-0.1c2.7-0.3,5.7-0.8,8.7-1.6c3-0.9,5.7-2.1,8.1-3.4c1.2-0.7,2.3-1.3,3.3-2c1-0.6,1.9-1.3,2.7-2
		C277.4,280.4,279,278.4,279.1,278.5"/>
	<path class="st17" d="M259.7,291c-2.9,0.8-5.7,1.3-8.3,1.5c-1,0-2,0.1-2.9,0.1c-0.3,0-0.7,0-1,0c-0.1,0-0.3,0-0.4,0
		c0.7,0,1.4,0.1,2.1,0.1C252.7,292.6,256.3,292.1,259.7,291 M268.8,273.7c-1.1,0-2.3,0.2-3.3,0.7c-2.9,1.3-5,3.9-7.3,6.2
		c-2.2,2.3-4.9,4.5-8.1,4.8c-0.2,0-0.4,0-0.5,0c-1.8,0-3.5-0.6-5.3-0.8c-0.5-0.1-1-0.1-1.5-0.1c-1.5,0-3,0.4-4,1.4
		c-1.3,1.3-1.2,4.3,1.7,5.5c1,0.2,2.3,0.4,3.8,0.5c0.9,0.1,1.9,0.2,3,0.2c0.1,0,0.2,0,0.4,0c0.2,0,0.4,0,0.6,0c1,0,2.1-0.1,3.2-0.1
		c2.7-0.3,5.7-0.8,8.7-1.6c3-0.9,5.7-2.1,8.1-3.4c0.8-0.4,1.5-0.9,2.2-1.3c1.3-1,2.4-2.1,3.2-3.4c1-1.8,1.3-4.1,0.3-5.9
		C272.9,274.5,270.9,273.7,268.8,273.7"/>
	<path class="st16" d="M270.4,285.6c-0.7,0.4-1.5,0.8-2.2,1.3c-2.4,1.3-5.1,2.5-8.1,3.4c-3,0.9-6,1.4-8.7,1.6
		c-1.1,0.1-2.2,0.1-3.2,0.1c-0.2,0-0.4,0-0.6,0c-0.1,0-0.2,0-0.4,0c-1.1,0-2.1-0.1-3-0.2c-1.5-0.1-2.7-0.3-3.8-0.5
		c0.2,0.1,0.4,0.2,0.7,0.2c2,0.5,4,0.8,6,0.9c0.1,0,0.3,0,0.4,0c0.3,0,0.6,0,1,0c0.9,0,1.9-0.1,2.9-0.1c2.6-0.2,5.4-0.7,8.3-1.5
		c3.4-1,6.6-2.6,9.5-4.6C269.6,286.2,270,285.9,270.4,285.6"/>
	<path class="st3" d="M283.7,191.8c0-0.1,2.7,0.9,4.7,3.7c2,2.8,2.2,5.6,2.1,5.6c-0.2,0-0.6-2.6-2.6-5.3
		C286,193.2,283.6,192,283.7,191.8z"/>
	<path class="st1" d="M281.2,191c0,0-0.2-0.2-0.6-0.4c-0.4-0.2-1.1-0.3-1.9-0.1c-0.8,0.2-1.8,0.7-2.7,1.6c-0.9,0.9-1.7,2-2.9,3
		c-1.3,1-3,1.4-4.8,1.5c-1.8,0.1-3.8-0.1-5.8-0.2c-4.1-0.1-8.6-0.1-13.3,0.3c-9.5,0.8-17.8,2.9-23.6,5.2c-2.9,1.1-5.2,2.2-6.7,3
		c-0.7,0.4-1.3,0.7-1.8,0.9c-0.4,0.2-0.6,0.3-0.6,0.3s0.2-0.1,0.6-0.4c0.5-0.3,1-0.6,1.8-1c1.5-0.8,3.8-1.9,6.7-3.1
		c5.8-2.3,14.2-4.5,23.6-5.3c4.7-0.4,9.3-0.4,13.4-0.3c2.1,0.1,4,0.3,5.8,0.2c1.8-0.1,3.5-0.5,4.7-1.4c1.2-0.9,2.1-2.1,3-3
		c0.9-0.9,1.9-1.4,2.7-1.6c0.9-0.2,1.6,0,2,0.2C281,190.8,281.2,191,281.2,191z"/>
	<path class="st1" d="M289.3,205.5c0,0-0.2-0.1-0.7-0.2c-0.5-0.1-1.2-0.2-2.1-0.1c-0.9,0.1-2,0.4-3.2,0.9c-1.2,0.5-2.5,1.2-4,2
		c-1.4,0.8-3.1,1.6-5,2.1c-1.9,0.5-4,0.8-6.1,1c-4.4,0.3-9.2,0.3-14.2,0.7c-10.1,0.7-19.1,1.9-25.7,3c-3.3,0.5-5.9,1-7.7,1.3
		c-0.9,0.2-1.6,0.3-2.1,0.4c-0.5,0.1-0.7,0.1-0.7,0.1s0.2-0.1,0.7-0.2c0.5-0.1,1.2-0.3,2.1-0.4c1.8-0.4,4.4-0.9,7.7-1.4
		c6.5-1.1,15.6-2.4,25.7-3c5-0.4,9.9-0.5,14.2-0.7c2.2-0.2,4.2-0.4,6.1-1c1.9-0.5,3.5-1.3,4.9-2.1c1.4-0.8,2.8-1.5,4-2
		c1.2-0.5,2.3-0.7,3.3-0.8c0.9-0.1,1.7,0,2.1,0.1C289,205.3,289.3,205.5,289.3,205.5z"/>
	<path class="st1" d="M289.4,225.3c0,0-0.9,0.4-2.6,1.1c-1.7,0.7-4.2,1.5-7.3,2.4c-6.2,1.8-15.1,3.3-24.9,3.7
		c-9.9,0.4-18.8-0.2-25.2-0.6c-3.2-0.2-5.8-0.4-7.6-0.6c-0.8-0.1-1.5-0.1-2.1-0.2c-0.5,0-0.7-0.1-0.7-0.1s0.3,0,0.7,0
		c0.5,0,1.2,0.1,2.1,0.1c1.9,0.1,4.5,0.3,7.6,0.5c6.4,0.4,15.4,0.9,25.2,0.5c9.9-0.4,18.7-1.9,24.9-3.7c3.1-0.9,5.6-1.7,7.3-2.3
		c0.9-0.3,1.5-0.6,1.9-0.7C289.2,225.4,289.4,225.3,289.4,225.3z"/>
	<path class="st1" d="M286.7,248.3c0,0-0.8,0.4-2.4,0.9c-1.6,0.5-3.9,1.2-6.9,1.8c-2.9,0.6-6.5,0.9-10.4,1.1
		c-3.9,0.1-8.3,0-12.8-0.3c-9.1-0.6-17.3-1.2-23.3-1c-3,0.1-5.4,0.3-7,0.5c-0.8,0.1-1.5,0.2-1.9,0.2c-0.4,0.1-0.7,0.1-0.7,0.1
		s3.6-0.8,9.6-0.9c6-0.3,14.2,0.4,23.3,1c4.5,0.3,8.9,0.4,12.8,0.3c3.9-0.1,7.5-0.5,10.4-1c2.9-0.5,5.3-1.2,6.9-1.7
		c0.8-0.2,1.4-0.5,1.8-0.6C286.5,248.3,286.7,248.3,286.7,248.3z"/>
	<path class="st1" d="M284.5,266c0,0-3.3,1.1-8.8,2.3c-2.7,0.6-6,1.3-9.7,1.8c-3.7,0.5-7.7,1-12,1.3c-4.3,0.2-8.4,0.3-12.1,0.2
		c-3.7-0.1-7-0.3-9.8-0.7c-5.6-0.6-9-1.3-9-1.3s0.2,0,0.6,0.1c0.5,0.1,1.1,0.1,1.8,0.2c1.5,0.2,3.8,0.5,6.6,0.8
		c2.8,0.3,6.1,0.5,9.8,0.6c3.7,0.1,7.8,0,12-0.2c4.3-0.3,8.3-0.7,12-1.2c3.7-0.6,6.9-1.2,9.7-1.8c2.7-0.6,4.9-1.1,6.4-1.6
		c0.7-0.2,1.3-0.3,1.7-0.5C284.3,266.1,284.5,266,284.5,266z"/>
	<path class="st1" d="M287,272.5c0,0-0.2,0.1-0.6,0.2c-0.5,0.2-1,0.4-1.8,0.6c-1.5,0.6-3.7,1.4-6.4,2.6c-2.7,1.2-5.8,2.6-9.3,4.1
		c-3.6,1.5-7.6,2.8-11.9,3.7c-8.7,1.7-16.9,1.5-22.6,1.3c-2.9-0.1-5.2-0.3-6.9-0.4c-0.8-0.1-1.4-0.1-1.9-0.1c-0.4,0-0.6-0.1-0.6-0.1
		s0.2,0,0.7,0c0.5,0,1.1,0.1,1.9,0.1c1.7,0.1,4,0.2,6.9,0.3c5.8,0.2,13.9,0.4,22.6-1.3c4.4-0.8,8.4-2.2,11.9-3.6
		c3.6-1.4,6.7-2.9,9.4-4.1c2.7-1.2,4.9-2,6.4-2.6C286.1,272.7,287,272.5,287,272.5z"/>
	<path class="st1" d="M290.6,291.8c0,0-0.8,0.5-2.3,1.4c-1.5,0.9-3.8,2-6.7,3.1c-5.9,2.2-14.5,3.9-24.1,4.1
		c-9.6,0.2-18.2-0.6-24.5-0.9c-3.1-0.2-5.7-0.2-7.4-0.3c-0.8,0-1.5,0-2,0c-0.5,0-0.7,0-0.7,0s0.2,0,0.7,0c0.5,0,1.2,0,2,0
		c1.8,0,4.3,0.1,7.4,0.2c6.3,0.2,14.9,1,24.5,0.8c9.6-0.2,18.1-1.8,24-4c2.9-1.1,5.2-2.2,6.8-3c0.8-0.4,1.3-0.8,1.8-1
		C290.4,292,290.6,291.8,290.6,291.8z"/>
	<path class="st1" d="M301.5,220.5c0,0,0-0.1,0.1-0.3c0.1-0.3,0.1-0.5,0.2-0.8c0.2-0.7,0.5-1.8,0.7-3.1c0.5-2.6,1-6.3,1-10.3
		c-0.1-4.1-0.7-7.7-1.3-10.3c-0.3-1.3-0.6-2.3-0.8-3c-0.1-0.3-0.2-0.6-0.2-0.8c-0.1-0.2-0.1-0.3-0.1-0.3c0,0,0,0.1,0.1,0.3
		c0.1,0.2,0.2,0.5,0.3,0.8c0.3,0.7,0.6,1.7,0.9,3c0.7,2.6,1.3,6.2,1.4,10.3c0.1,4.1-0.5,7.8-1.1,10.4c-0.3,1.3-0.6,2.3-0.8,3.1
		c-0.1,0.3-0.2,0.6-0.3,0.8C301.5,220.4,301.5,220.5,301.5,220.5z"/>
	<path class="st1" d="M318.8,216.3c0,0,0-0.1,0-0.3c0-0.2,0-0.5,0-0.8c0-0.7,0.1-1.6,0-2.8c0-2.4-0.3-5.6-1.1-9.2
		c-0.8-3.5-2-6.6-3-8.7c-0.5-1.1-0.9-1.9-1.3-2.5c-0.1-0.2-0.2-0.5-0.4-0.7c-0.1-0.2-0.1-0.2-0.1-0.2c0,0,0.1,0.1,0.2,0.2
		c0.1,0.2,0.3,0.4,0.4,0.7c0.3,0.6,0.8,1.4,1.3,2.5c1.1,2.1,2.3,5.2,3.1,8.7c0.8,3.5,1,6.8,1,9.2c0,1.2-0.1,2.1-0.1,2.8
		c0,0.3-0.1,0.5-0.1,0.8C318.8,216.2,318.8,216.3,318.8,216.3z"/>
	<path class="st1" d="M342.2,208.2c0,0-0.1-0.1-0.2-0.2c-0.2-0.2-0.4-0.4-0.6-0.7c-0.5-0.6-1.3-1.5-2.2-2.5
		c-1.9-2.1-4.8-4.8-8.3-7.3c-3.5-2.5-7-4.4-9.6-5.5c-1.3-0.6-2.4-1-3.1-1.3c-0.3-0.1-0.6-0.2-0.9-0.3c-0.2-0.1-0.3-0.1-0.3-0.1
		c0,0,0.1,0,0.3,0.1c0.3,0.1,0.6,0.2,0.9,0.3c0.8,0.3,1.8,0.7,3.1,1.2c2.6,1.1,6.1,3,9.7,5.5c3.5,2.5,6.4,5.3,8.3,7.4
		c1,1.1,1.7,1.9,2.2,2.6c0.2,0.3,0.4,0.5,0.6,0.7C342.1,208.1,342.2,208.1,342.2,208.2z"/>
	<path class="st1" d="M336.9,175c0,0-0.3,0-0.7,0c-0.6,0-1.3,0-2,0c-1.7,0-4.1-0.1-6.7,0c-2.6,0-5,0.1-6.7,0.2c-0.7,0-1.4,0.1-2,0.1
		c-0.5,0-0.7,0-0.7,0c0,0,0.3-0.1,0.7-0.1c0.5-0.1,1.2-0.1,2-0.2c1.7-0.1,4.1-0.3,6.7-0.3c2.6,0,5,0,6.7,0.1c0.9,0,1.5,0.1,2,0.1
		C336.6,175,336.9,175,336.9,175z"/>
	<path class="st1" d="M204.5,221.4c0,0,0.2,0.2,0.4,0.5c0.3,0.3,0.7,0.7,1.2,1.3c1,1,2.5,2.4,4.4,3.6c1.8,1.3,3.6,2.3,4.9,3
		c0.5,0.3,1,0.6,1.5,0.8c0.4,0.2,0.6,0.3,0.5,0.3c0,0-0.2-0.1-0.6-0.2c-0.4-0.2-0.9-0.4-1.6-0.8c-1.3-0.7-3.1-1.6-4.9-2.9
		c-1.8-1.3-3.4-2.6-4.4-3.7c-0.5-0.5-0.9-1-1.1-1.3C204.6,221.6,204.5,221.4,204.5,221.4z"/>
	<path class="st1" d="M209.4,212.1c0,0,0.3,0.4,0.8,0.9c0.5,0.5,1.4,1.2,2.4,1.9c1,0.7,1.9,1.2,2.6,1.6c0.7,0.4,1.1,0.6,1.1,0.6
		c0,0.1-1.9-0.6-3.8-2c-1-0.7-1.8-1.4-2.3-1.9C209.6,212.5,209.4,212.1,209.4,212.1z"/>
	<path class="st1" d="M217.7,251.9c0,0-0.1,0-0.3-0.1c-0.2-0.1-0.5-0.2-0.7-0.4c-0.6-0.3-1.5-0.8-2.5-1.5c-2.1-1.3-4.9-3.4-7.6-6
		c-2.7-2.6-4.9-5.3-6.3-7.4c-0.7-1-1.2-1.9-1.6-2.5c-0.1-0.3-0.3-0.5-0.4-0.7c-0.1-0.2-0.1-0.2-0.1-0.3c0,0,0.1,0.1,0.2,0.2
		c0.1,0.2,0.3,0.4,0.4,0.7c0.4,0.6,0.9,1.4,1.6,2.4c1.4,2,3.6,4.7,6.4,7.3c2.7,2.6,5.5,4.7,7.5,6.1c1,0.7,1.9,1.2,2.5,1.6
		c0.2,0.1,0.5,0.3,0.7,0.4C217.7,251.9,217.7,251.9,217.7,251.9z"/>
	<path class="st3" d="M185.3,264c0,0-0.1-0.5-0.2-1.3c-0.1-0.9-0.2-2.1-0.1-3.7c0.2-3.1,1.2-7.5,3.9-11.5c2.5-4,4.8-7.6,6.5-10.2
		c0.8-1.2,1.5-2.2,2-3.1c0.5-0.7,0.8-1.1,0.8-1.1c0,0-0.2,0.5-0.6,1.2c-0.5,0.9-1.1,1.9-1.9,3.2c-1.6,2.7-3.8,6.3-6.4,10.3
		c-2.6,3.9-3.7,8.1-4,11.2C185.1,262.1,185.4,264,185.3,264z"/>
	<path class="st1" d="M205.7,268.7c0,0-1.6,0.1-4-0.6c-2.4-0.6-5.7-2.1-8.5-4.9c-2.8-2.8-4.3-6.1-4.9-8.5c-0.7-2.5-0.6-4-0.6-4
		c0,0,0,0.1,0,0.3c0,0.2,0,0.5,0.1,0.8c0.1,0.7,0.3,1.7,0.6,2.9c0.7,2.4,2.2,5.6,4.9,8.4c2.7,2.7,6,4.2,8.4,4.9
		c1.2,0.3,2.2,0.5,2.9,0.6c0.3,0.1,0.6,0.1,0.8,0.1C205.6,268.7,205.7,268.7,205.7,268.7z"/>
	<path class="st1" d="M194,228.8c0,0-0.1,0.1-0.2,0.1c-0.2,0.1-0.4,0.2-0.6,0.4c-0.5,0.3-1.3,0.8-2.2,1.4c-1.8,1.3-4.1,3.3-6.2,5.9
		c-2.1,2.6-3.5,5.3-4.4,7.4c-0.4,1-0.7,1.9-0.9,2.4c-0.1,0.2-0.2,0.5-0.2,0.7c-0.1,0.2-0.1,0.2-0.1,0.2c0,0,0-0.1,0-0.2
		c0.1-0.2,0.1-0.4,0.2-0.7c0.2-0.6,0.4-1.5,0.8-2.5c0.8-2.1,2.2-4.8,4.3-7.5c2.1-2.6,4.5-4.6,6.3-5.9c0.9-0.6,1.7-1.1,2.2-1.4
		c0.2-0.1,0.4-0.2,0.6-0.3C193.9,228.9,194,228.8,194,228.8z"/>
	<path class="st1" d="M187.4,220.2c0,0-0.2,0.1-0.7,0.2c-0.4,0.1-1,0.3-1.8,0.7c-1.5,0.6-3.5,1.7-5.4,3.2c-1.9,1.6-3.3,3.3-4.3,4.6
		c-0.5,0.6-0.9,1.2-1.2,1.5c-0.3,0.4-0.4,0.6-0.4,0.6c0,0,0.1-0.2,0.4-0.6c0.2-0.4,0.6-0.9,1.1-1.6c1-1.3,2.4-3,4.3-4.6
		c1.9-1.6,3.9-2.7,5.5-3.2c0.8-0.3,1.4-0.5,1.8-0.6C187.2,220.2,187.4,220.2,187.4,220.2z"/>
	<polygon class="st1" points="342.6,166.9 342.6,171.3 345.4,171.3 345.4,170.1 349.7,170.1 349.7,183.3 348.4,183.3 348.4,186.1 
		354.4,186.1 354.4,183.3 353.2,183.3 353.2,170.1 357.4,170.1 357.4,171.3 360.2,171.3 360.2,166.9 	"/>
</g>
</svg>
