<svg width="234" height="144" viewBox="0 0 234 144" fill="none" xmlns="http://www.w3.org/2000/svg">
<g clip-path="url(#clip0)">
<path d="M223.894 135.055C221.932 135.055 220.068 133.985 219.087 132.138L216.438 127.276L214.966 130.096C214.868 130.193 214.868 130.193 214.868 130.29C213.887 131.652 212.317 132.138 211.042 132.138C209.668 132.138 208.294 131.554 207.411 130.582C206.43 129.61 205.842 128.151 205.842 126.79V104.329C205.842 102.288 207.019 100.44 208.883 99.5651C210.747 98.69 212.906 98.9817 214.377 100.343L225.955 108.802C226.74 109.386 226.936 110.455 226.249 111.233C225.66 112.011 224.581 112.205 223.796 111.525L212.219 103.065L212.121 102.968C211.336 102.288 210.453 102.677 210.257 102.677C209.962 102.774 209.275 103.26 209.275 104.329V126.79C209.275 127.957 210.257 128.637 211.042 128.735C211.336 128.735 211.826 128.637 211.925 128.443L214.868 122.803C215.162 122.22 215.751 121.831 216.438 121.831C217.125 121.831 217.615 122.123 218.008 122.803L222.226 130.582C222.226 130.582 222.226 130.679 222.325 130.679C222.717 131.554 223.796 131.943 224.679 131.554C225.072 131.36 225.464 130.971 225.66 130.582C225.758 130.096 225.758 129.61 225.562 129.221L221.343 121.734C221.049 121.151 221.049 120.567 221.343 119.984C221.638 119.4 222.226 119.109 222.815 119.109H228.8C229.781 119.011 230.174 118.234 230.37 118.039C230.468 117.747 230.762 116.872 230.075 116.192C229.389 115.511 229.487 114.344 230.174 113.761C230.86 113.08 232.038 113.178 232.626 113.858C234 115.414 234.491 117.553 233.608 119.4C232.823 121.345 231.057 122.512 228.898 122.609H228.8H225.759L228.604 127.568C228.604 127.568 228.604 127.665 228.702 127.665C229.291 128.929 229.389 130.388 228.898 131.749C228.408 133.11 227.426 134.18 226.151 134.763C225.366 134.86 224.581 135.055 223.894 135.055Z" fill="white"/>
<path d="M27.0792 43.8514C23.3509 41.7123 20.5057 38.7954 18.2491 35.1978C15.9925 31.6975 14.9132 27.8082 14.9132 23.7245C14.9132 19.738 15.9925 15.946 18.2491 12.3484C20.5057 8.84805 23.3509 5.93111 27.0792 3.88924C30.8075 1.84738 34.7321 0.777832 38.8528 0.777832C42.9736 0.777832 46.8981 1.84738 50.5283 3.88924C54.1585 5.93111 57.1019 8.84805 59.2604 12.3484C61.4189 15.8487 62.4981 19.738 62.4981 23.8217C62.4981 28.0027 61.4189 31.7947 59.2604 35.3923C57.1019 38.9898 54.1585 41.8096 50.5283 43.9487C46.8981 46.0878 43.0717 47.1573 38.8528 47.1573C34.634 47.1573 30.7094 45.9905 27.0792 43.8514ZM44.3472 33.5449C46.2113 32.5726 47.5849 31.2113 48.6641 29.4612C49.7434 27.711 50.3321 25.7664 50.3321 23.7245C50.3321 21.6826 49.7434 19.738 48.6641 18.0851C47.5849 16.4321 46.2113 15.0709 44.3472 14.0986C42.483 13.1262 40.5208 12.7373 38.2641 12.7373C36.2038 12.7373 34.2415 13.2235 32.4755 14.0986C30.8075 15.0709 29.434 16.3349 28.4528 17.9878C27.4717 19.6408 26.9811 21.4882 26.9811 23.6273C26.9811 25.7664 27.4717 27.8082 28.4528 29.5584C29.434 31.3086 30.8075 32.6698 32.4755 33.6421C34.1434 34.6144 36.1057 35.1006 38.3623 35.1006C40.6189 35.1006 42.6792 34.6144 44.3472 33.5449Z" fill="white"/>
<path d="M90.166 3.01416C93.3056 4.47263 95.7585 6.5145 97.6226 9.13975C99.4868 11.765 100.468 14.6819 100.468 17.8906C100.468 21.002 99.683 23.8217 98.0151 26.447C96.3472 29.0722 94.0906 31.1141 91.1472 32.6698C88.2038 34.2255 85.0641 34.9061 81.6302 34.9061C80.5509 34.9061 79.3736 34.8089 78 34.6144L78.2943 46.6711H66.1283L64.9509 4.95879C70.4453 2.23631 75.5472 0.777832 80.1585 0.777832C83.7887 0.777832 87.1245 1.55568 90.166 3.01416ZM80.649 24.1134C81.9245 24.1134 83.2 23.8217 84.3773 23.2383C85.5547 22.6549 86.5358 21.8771 87.3207 21.002C88.1056 20.0297 88.4 18.9601 88.4 17.8906C88.4 15.946 87.6151 14.293 86.2415 13.029C84.7698 11.765 83.1019 11.0844 81.1396 11.0844C79.9622 11.0844 78.7849 11.3761 77.6075 11.9595L77.9019 23.6273C78.7849 24.0162 79.766 24.1134 80.649 24.1134Z" fill="white"/>
<path d="M136.77 33.9338V45.9905L104.785 46.7684L103.215 1.06955L135.2 0L136.083 12.0567L115.577 12.3484L115.872 17.1128L132.943 16.8211L133.532 28.8778L116.558 29.1695L116.853 34.8089L136.77 33.9338Z" fill="white"/>
<path d="M182.589 0.291695L182.294 46.6712H170.521L151.389 21.0993L151.683 46.5739L139.909 46.9629L139.517 0L151.291 0.486158L170.717 25.7664L170.913 0.58339L182.589 0.291695Z" fill="white"/>
<path d="M11.1849 103.163C7.75094 101.024 5.00377 98.1067 3.04151 94.6063C0.981132 90.9115 0 87.1195 0 82.9385C0 78.7576 0.981132 74.8683 3.13962 71.368C5.2 67.8676 8.04528 65.0479 11.4792 63.0061C15.0113 60.9642 18.8377 59.8947 23.0566 59.8947C26.0981 59.8947 29.0415 60.478 31.8868 61.6448C34.7321 62.8116 37.1849 64.5618 39.1472 66.8953C41.2075 69.2289 42.6792 72.0486 43.5623 75.3545L33.0642 78.5631C32.4755 76.813 31.2 75.2572 29.434 73.9932C27.5698 72.632 25.4113 71.9514 23.0566 71.9514C19.917 71.9514 17.4642 72.9237 15.3057 74.7711C13.2453 76.6185 12.2642 79.341 12.2642 82.8413C12.2642 85.1749 12.7547 87.2167 13.7358 88.9669C14.717 90.7171 15.9925 92.0783 17.6604 92.9534C19.3283 93.8285 20.9962 94.3146 22.9585 94.3146C24.6264 94.3146 26.2943 94.0229 27.6679 93.2451C29.1396 92.4672 30.317 91.5922 31.2 90.5226C32.1811 89.4531 32.7698 88.4807 33.0642 87.5084L42.9736 90.8143C42.483 93.634 41.2075 96.2593 39.1472 98.5928C37.0868 100.926 34.634 102.774 31.6906 104.232C28.7472 105.594 25.6075 106.274 22.4679 106.274C18.2491 106.371 14.5208 105.302 11.1849 103.163Z" fill="white"/>
<path d="M74.0755 94.0229V106.08H45.6226V60.2836H57.7887V94.0229H74.0755Z" fill="white"/>
<path d="M108.121 95.8703L92.717 95.7731L88.7924 105.302L76.6264 100.343L96.6415 60.2836L108.808 60.3808L123.034 103.065L110.868 105.982L108.121 95.8703ZM104.883 83.9109L101.94 73.1181L97.5245 83.9109H104.883Z" fill="white"/>
<path d="M132.551 104.232C129.215 102.871 126.566 100.926 124.408 98.5928L132.551 89.7448C133.826 91.2032 135.396 92.2728 137.162 93.1479C138.928 93.9257 140.694 94.3146 142.46 94.3146C144.128 94.3146 145.404 94.0229 146.385 93.4396C147.366 92.8562 147.857 92.1755 147.857 91.3977C147.857 90.6198 147.366 90.0364 146.385 89.6475C145.404 89.3558 144.128 89.0641 142.558 89.0641C139.615 89.0641 136.77 88.4807 134.219 87.2167C131.766 85.9527 129.706 84.2998 128.136 82.0635C126.664 79.8271 125.879 77.4936 125.879 74.6739C125.879 71.8541 126.664 69.3261 128.234 67.0898C129.804 64.8535 131.962 63.1033 134.611 61.8393C137.358 60.5753 140.204 59.8947 143.343 59.8947C146.483 59.8947 149.623 60.478 152.664 61.7421C155.706 62.9088 158.355 64.659 160.709 66.9926L153.841 76.1323C150.015 73.4099 146.385 71.9514 143.049 71.9514C141.577 71.9514 140.302 72.2431 139.125 72.7292C138.045 73.3126 137.457 73.896 137.457 74.5766C137.457 75.2572 138.143 75.9379 139.419 76.3268C140.694 76.7157 142.264 76.9102 144.03 76.9102C147.268 76.9102 150.211 77.4936 152.664 78.3687C155.215 79.341 157.177 80.7994 158.649 82.7441C160.121 84.6887 160.808 87.1195 160.808 89.9392C160.808 92.9534 159.925 95.6759 158.257 98.2039C156.589 100.635 154.234 102.677 151.389 104.135C148.445 105.594 145.404 106.274 142.068 106.274C139.125 106.371 135.789 105.691 132.551 104.232Z" fill="white"/>
<path d="M168.951 104.232C165.615 102.871 162.966 100.926 160.808 98.5928L168.951 89.7448C170.226 91.2032 171.796 92.2728 173.562 93.1479C175.328 93.9257 177.094 94.3146 178.86 94.3146C180.528 94.3146 181.804 94.0229 182.785 93.4396C183.766 92.8562 184.257 92.1755 184.257 91.3977C184.257 90.6198 183.766 90.0364 182.785 89.6475C181.804 89.3558 180.528 89.0641 178.959 89.0641C176.015 89.0641 173.17 88.4807 170.619 87.2167C168.166 85.9527 166.106 84.2998 164.536 82.0635C163.064 79.8271 162.279 77.4936 162.279 74.6739C162.279 71.8541 163.064 69.3261 164.634 67.0898C166.204 64.8535 168.362 63.1033 171.011 61.8393C173.759 60.5753 176.604 59.8947 179.743 59.8947C182.883 59.8947 186.023 60.478 189.064 61.7421C192.106 62.9088 194.755 64.659 197.109 66.9926L190.536 76.1323C186.709 73.4099 183.079 71.9514 179.743 71.9514C178.272 71.9514 176.996 72.2431 175.819 72.7292C174.74 73.3126 174.151 73.896 174.151 74.5766C174.151 75.2572 174.838 75.9379 176.113 76.3268C177.389 76.7157 178.959 76.9102 180.725 76.9102C183.962 76.9102 186.906 77.4936 189.359 78.3687C191.909 79.341 193.872 80.7994 195.343 82.7441C196.815 84.6887 197.502 87.1195 197.502 89.9392C197.502 92.9534 196.619 95.6759 194.951 98.2039C193.283 100.635 190.928 102.677 188.083 104.135C185.14 105.594 182.098 106.274 178.762 106.274C175.426 106.371 172.189 105.691 168.951 104.232Z" fill="white"/>
<path d="M49.9396 137.68H47.8792V144H43.7585V127.179H50.0377C53.8641 127.179 56.7094 128.54 56.7094 132.332C56.7094 136.221 53.4717 137.68 49.9396 137.68ZM49.7434 130.388H47.8792V134.374H49.6453C51.2151 134.374 52.5887 133.888 52.5887 132.332C52.5887 130.777 51.117 130.388 49.7434 130.388Z" fill="white"/>
<path d="M67.2075 143.903L63.4792 137.291H62.1056V143.903H57.9849V127.082H64.5585C67.8943 127.082 71.132 128.248 71.132 132.235C71.132 134.471 69.7585 136.027 67.6 136.805L72.1132 144L67.2075 143.903ZM64.3622 130.388H62.2037V134.277H64.166C65.5396 134.277 67.1094 133.985 67.1094 132.235C67.0113 130.776 65.5396 130.388 64.3622 130.388Z" fill="white"/>
<path d="M72.9962 143.903V127.082H77.2151V143.903H72.9962Z" fill="white"/>
<path d="M95.0717 143.903L95.1698 131.943H95.0717L90.6566 143.903H87.7132L83.3962 132.04H83.2981L83.3962 143.903H79.4717V127.082H85.3585L89.1849 137.874H89.283L93.1094 127.082H99.0943V143.903H95.0717Z" fill="white"/>
<path d="M113.026 143.903L111.653 140.597H105.079L103.902 143.903H99.3887L106.551 127.082H110.574L117.736 143.903H113.026ZM108.415 131.652L106.257 137.388H110.574L108.415 131.652Z" fill="white"/>
<path d="M127.057 143.903L123.328 137.291H121.955V143.903H117.834V127.082H124.408C127.743 127.082 130.981 128.248 130.981 132.235C130.981 134.471 129.607 136.027 127.449 136.805L131.962 144L127.057 143.903ZM124.211 130.388H122.053V134.277H124.015C125.389 134.277 126.958 133.985 126.958 132.235C126.958 130.776 125.389 130.388 124.211 130.388Z" fill="white"/>
<path d="M132.845 143.903V127.082H137.064V143.903H132.845Z" fill="white"/>
<path d="M150.996 143.903L149.623 140.597H143.049L141.774 143.903H137.26L144.423 127.082H148.445L155.608 143.903H150.996ZM146.385 131.652L144.226 137.388H148.543L146.385 131.652Z" fill="white"/>
<path d="M31.2981 139.43C33.1622 139.43 34.7321 137.972 34.7321 136.027C34.7321 134.18 33.2604 132.624 31.2981 132.624C29.4339 132.624 27.8641 134.082 27.8641 136.027C27.9622 137.874 29.4339 139.43 31.2981 139.43Z" fill="white"/>
<path d="M166.204 139.43C168.068 139.43 169.638 137.972 169.638 136.027C169.638 134.18 168.166 132.624 166.204 132.624C164.34 132.624 162.77 134.082 162.77 136.027C162.868 137.874 164.34 139.43 166.204 139.43Z" fill="white"/>
</g>
<defs>
<clipPath id="clip0">
<rect width="234" height="144" fill="white"/>
</clipPath>
</defs>
</svg>
