<svg width="236" height="152" viewBox="0 0 236 152" fill="none" xmlns="http://www.w3.org/2000/svg">
<path d="M225.727 138.874C223.73 138.874 221.802 137.773 220.837 135.847L218.152 130.826L216.637 133.715C216.568 133.784 216.568 133.852 216.499 133.921C215.466 135.297 213.882 135.778 212.643 135.778C211.266 135.778 209.888 135.159 208.924 134.196C207.891 133.165 207.34 131.72 207.34 130.276V107.164C207.34 105.032 208.511 103.174 210.439 102.28C212.367 101.386 214.502 101.661 216.086 103.037L227.861 111.773C228.619 112.392 228.825 113.492 228.206 114.249C227.586 115.005 226.484 115.212 225.727 114.593L213.882 105.926L213.813 105.857C212.987 105.169 212.161 105.513 211.885 105.582C211.61 105.719 210.852 106.132 210.852 107.233V130.344C210.852 131.514 211.816 132.27 212.643 132.339C212.987 132.339 213.4 132.202 213.538 131.995L216.568 126.217C216.843 125.598 217.463 125.254 218.152 125.254C218.84 125.254 219.391 125.598 219.736 126.217L224.005 134.265C224.005 134.265 224.005 134.334 224.074 134.334C224.487 135.228 225.589 135.641 226.484 135.228C226.897 135.022 227.242 134.678 227.448 134.196C227.586 133.715 227.586 133.233 227.379 132.821L223.041 125.117C222.697 124.566 222.766 123.879 223.041 123.328C223.385 122.778 223.936 122.434 224.556 122.434H230.685C231.718 122.365 232.131 121.54 232.269 121.334C232.406 121.058 232.682 120.164 231.924 119.408C231.236 118.72 231.305 117.55 231.993 116.863C232.682 116.175 233.852 116.244 234.541 116.931C235.987 118.513 236.4 120.715 235.574 122.64C234.748 124.635 232.957 125.873 230.823 125.942H230.754H227.655L230.547 131.032C230.547 131.032 230.547 131.101 230.616 131.101C231.236 132.408 231.305 133.921 230.823 135.297C230.34 136.673 229.308 137.773 227.999 138.392C227.242 138.667 226.484 138.874 225.727 138.874Z" fill="white"/>
<path d="M12.395 45.0528C8.60762 42.8518 5.6466 39.8941 3.37419 36.1798C1.10178 32.5343 0 28.5449 0 24.418C0 20.291 1.10178 16.3703 3.37419 12.7249C5.6466 9.07936 8.60762 6.12169 12.395 3.98942C16.1823 1.85715 20.1763 0.756622 24.3768 0.756622C28.5773 0.756622 32.5712 1.85715 36.2897 3.98942C40.0082 6.12169 42.9692 9.07936 45.1728 12.6561C47.3763 16.3016 48.4781 20.2222 48.4781 24.418C48.4781 28.6825 47.3763 32.6031 45.1728 36.3174C42.9692 40.0317 40.0082 42.9206 36.2897 45.1216C32.5712 47.3227 28.6462 48.4232 24.3768 48.4232C20.1074 48.4232 16.1135 47.3227 12.395 45.0528ZM30.0234 34.529C31.8826 33.4973 33.3287 32.1216 34.4305 30.3333C35.5323 28.5449 36.0831 26.5502 36.0831 24.418C36.0831 22.2857 35.5323 20.3598 34.4305 18.6402C33.3287 16.9206 31.8826 15.545 30.0234 14.582C28.1641 13.619 26.0983 13.1376 23.8259 13.1376C21.6912 13.1376 19.7631 13.619 17.9727 14.582C16.2512 15.545 14.874 16.9206 13.8411 18.5714C12.877 20.291 12.3261 22.2169 12.3261 24.3492C12.3261 26.5502 12.8081 28.6137 13.8411 30.4021C14.874 32.1904 16.2512 33.5661 17.9727 34.5978C19.6942 35.6296 21.6912 36.1111 23.9636 36.1111C26.1672 36.1111 28.233 35.5608 30.0234 34.529Z" fill="white"/>
<path d="M76.7111 3.09525C79.8787 4.60847 82.4266 6.74074 84.3547 9.42328C86.2828 12.1058 87.2468 15.1323 87.2468 18.4338C87.2468 21.5979 86.4205 24.5555 84.699 27.2381C82.9775 29.9206 80.705 32.0529 77.744 33.6349C74.783 35.2169 71.5465 35.9735 68.0346 35.9735C66.9329 35.9735 65.6934 35.9047 64.3161 35.6984L64.5916 48.1481H52.1966L51.026 5.08995C56.6037 2.26985 61.7683 0.825409 66.5197 0.825409C70.1693 0.825409 73.5435 1.58202 76.7111 3.09525ZM67.0017 24.8307C68.3101 24.8307 69.6184 24.5555 70.7891 23.9365C72.0286 23.3862 72.9926 22.5608 73.7501 21.5979C74.5076 20.6349 74.8519 19.5344 74.8519 18.3651C74.8519 16.3704 74.0944 14.6508 72.6483 13.3439C71.1334 12.037 69.4118 11.3492 67.4837 11.3492C66.2442 11.3492 65.0736 11.6243 63.903 12.2434L64.1784 24.2116C65.0736 24.6931 66.0377 24.8307 67.0017 24.8307Z" fill="white"/>
<path d="M124.156 34.9417V47.3227L91.5162 48.0793L89.9324 1.10053L122.573 0L123.468 12.3809L102.534 12.6561L102.809 17.5396L120.162 17.1957L120.782 29.5767L103.498 29.9206L103.773 35.7671L124.156 34.9417Z" fill="white"/>
<path d="M170.913 0.275135L170.569 48.0105H158.587L139.099 21.7354L139.375 47.9417L127.393 48.3544L126.98 0.0687866L138.961 0.550267L158.793 26.5502L159 0.687833L170.913 0.275135Z" fill="white"/>
<path d="M11.3621 106.063C7.85015 103.862 5.09571 100.905 3.09874 97.2591C1.03291 93.5448 0 89.5554 0 85.2908C0 80.9575 1.03291 76.9681 3.1676 73.3914C5.30229 69.8147 8.12559 66.9258 11.7064 64.7935C15.2871 62.6613 19.2122 61.6295 23.4816 61.6295C26.5803 61.6295 29.5414 62.2486 32.4335 63.4179C35.3257 64.5872 37.8047 66.3755 39.8705 68.7829C42.0052 71.1903 43.4513 74.0792 44.3465 77.5184L33.6042 80.82C32.9844 79.0316 31.7449 77.4496 29.8857 76.1427C28.0264 74.7671 25.8229 74.0792 23.3439 74.0792C20.1763 74.0792 17.6284 75.0422 15.4937 76.9681C13.4279 78.894 12.395 81.6453 12.395 85.2908C12.395 87.6982 12.877 89.8305 13.9099 91.6189C14.874 93.4072 16.2512 94.7829 17.9039 95.6771C19.5565 96.5712 21.3469 97.0527 23.275 97.0527C24.9965 97.0527 26.6492 96.7088 28.0953 95.9522C29.6102 95.1956 30.7809 94.3014 31.7449 93.2009C32.709 92.1003 33.3287 91.0686 33.6042 90.1056L43.6579 93.5448C43.1758 96.4337 41.8675 99.1162 39.8016 101.524C37.7358 103.931 35.188 105.857 32.1581 107.301C29.1282 108.746 25.9606 109.434 22.7241 109.434C18.5925 109.365 14.8051 108.264 11.3621 106.063Z" fill="white"/>
<path d="M75.5405 96.7088V109.09H46.4812V61.9734H58.8761V96.7088H75.5405Z" fill="white"/>
<path d="M110.246 98.6347L94.5461 98.5659L90.5522 108.402L78.1572 103.312L98.4712 61.9734L110.866 62.111L125.396 105.994L113.001 108.952L110.246 98.6347ZM106.941 86.2538L103.98 75.111L99.5041 86.185L106.941 86.2538Z" fill="white"/>
<path d="M135.105 107.233C131.731 105.788 129.045 103.793 126.842 101.386L135.174 92.238C136.482 93.7512 138.066 94.8517 139.857 95.7459C141.647 96.5713 143.437 96.984 145.297 96.984C146.949 96.984 148.258 96.7088 149.291 96.0898C150.323 95.4708 150.806 94.7829 150.806 93.9575C150.806 93.1321 150.323 92.5131 149.291 92.1692C148.327 91.8253 147.018 91.6189 145.434 91.6189C142.404 91.6189 139.581 90.9999 136.964 89.693C134.417 88.3861 132.351 86.6665 130.767 84.3967C129.252 82.1269 128.426 79.6507 128.426 76.8306C128.426 73.9417 129.252 71.3279 130.836 69.0581C132.42 66.7195 134.623 64.9311 137.309 63.6243C140.063 62.3174 143.024 61.6295 146.192 61.6295C149.428 61.6295 152.596 62.2486 155.695 63.4867C158.793 64.7248 161.479 66.5131 163.889 68.9205L156.865 78.3438C153.009 75.5237 149.291 74.0793 145.848 74.0793C144.333 74.0793 143.024 74.3544 141.854 74.9047C140.752 75.4549 140.201 76.074 140.201 76.8306C140.201 77.5872 140.89 78.2062 142.198 78.6189C143.506 79.0316 145.09 79.238 146.88 79.238C150.186 79.238 153.147 79.7882 155.695 80.7512C158.311 81.7829 160.308 83.2962 161.823 85.2909C163.338 87.2856 164.027 89.7618 164.027 92.6507C164.027 95.7459 163.132 98.566 161.41 101.18C159.689 103.725 157.347 105.788 154.386 107.301C151.425 108.815 148.258 109.502 144.883 109.502C141.785 109.434 138.411 108.677 135.105 107.233Z" fill="white"/>
<path d="M172.152 107.233C168.778 105.788 166.093 103.793 163.889 101.386L172.221 92.238C173.53 93.7512 175.113 94.8517 176.904 95.7459C178.694 96.5713 180.485 96.984 182.344 96.984C183.996 96.984 185.305 96.7088 186.338 96.0898C187.371 95.4708 187.853 94.7829 187.853 93.9575C187.853 93.1321 187.371 92.5131 186.338 92.1692C185.374 91.8253 184.065 91.6189 182.482 91.6189C179.452 91.6189 176.628 90.9999 174.012 89.693C171.464 88.3861 169.398 86.6665 167.814 84.3967C166.299 82.1269 165.473 79.6507 165.473 76.8306C165.473 73.9417 166.299 71.3279 167.883 69.0581C169.467 66.7195 171.67 64.9311 174.356 63.6243C177.11 62.3174 180.071 61.6295 183.239 61.6295C186.475 61.6295 189.643 62.2486 192.742 63.4867C195.841 64.7248 198.526 66.5131 200.936 68.9205L194.188 78.3438C190.332 75.5237 186.613 74.0793 183.17 74.0793C181.655 74.0793 180.347 74.3544 179.176 74.9047C178.074 75.4549 177.524 76.074 177.524 76.8306C177.524 77.5872 178.212 78.2062 179.521 78.6189C180.829 79.0316 182.413 79.238 184.203 79.238C187.508 79.238 190.469 79.7882 193.017 80.7512C195.634 81.7829 197.631 83.2962 199.146 85.2909C200.661 87.2856 201.349 89.7618 201.349 92.6507C201.349 95.7459 200.454 98.566 198.733 101.18C197.011 103.725 194.67 105.788 191.709 107.301C188.748 108.815 185.58 109.502 182.206 109.502C178.832 109.434 175.458 108.677 172.152 107.233Z" fill="white"/>
<g clip-path="url(#clip0)">
<path d="M22.4569 141.55H20.3182V148.048H16.1229V130.774H22.5392C26.4054 130.774 29.3668 132.172 29.3668 136.12C29.3668 140.069 26.0764 141.55 22.4569 141.55ZM22.2102 134.146H20.3182V138.259H22.1279C23.6908 138.259 25.1715 137.766 25.1715 136.12C25.1715 134.475 23.6908 134.146 22.2102 134.146Z" fill="white"/>
<path d="M40.0605 148.048L36.2766 141.221H34.8782V148.048H30.6829V130.774H37.346C40.7186 130.774 44.0913 132.008 44.0913 136.038C44.0913 138.342 42.6929 139.987 40.4718 140.727L45.0784 148.13H40.0605V148.048ZM37.0992 134.146H34.8782V138.177H36.8524C38.2508 138.177 39.896 137.848 39.896 136.038C39.896 134.475 38.3331 134.146 37.0992 134.146Z" fill="white"/>
<path d="M45.8999 148.048V130.774H50.1774V148.048H45.8999Z" fill="white"/>
<path d="M68.439 148.048L68.5212 135.791H68.439L63.9147 148.048H60.8711L56.5113 135.791H56.429L56.5113 148.048H52.5628V130.774H58.5678L62.5163 141.879H62.5985L66.4647 130.774H72.552V148.048H68.439Z" fill="white"/>
<path d="M86.7824 148.048L85.384 144.676H78.6387L77.4048 148.048H72.7983L80.1194 130.774H84.2324L91.5535 148.048H86.7824ZM82.0936 135.38L79.8726 141.303H84.3146L82.0936 135.38Z" fill="white"/>
<path d="M101.095 148.048L97.3113 141.221H95.9128V148.048H91.7176V130.774H98.3806C101.753 130.774 105.126 132.008 105.126 136.038C105.126 138.342 103.728 139.987 101.507 140.727L106.113 148.13H101.095V148.048ZM98.1339 134.146H95.9128V138.177H97.8871C99.2855 138.177 100.931 137.848 100.931 136.038C100.931 134.475 99.3678 134.146 98.1339 134.146Z" fill="white"/>
<path d="M106.935 148.048V130.774H111.213V148.048H106.935Z" fill="white"/>
<path d="M125.444 148.048L124.045 144.676H117.3L115.984 148.048H111.377L118.698 130.774H122.811L130.132 148.048H125.444ZM120.755 135.38L118.534 141.303H122.976L120.755 135.38Z" fill="white"/>
<path d="M3.45491 143.359C5.36301 143.359 6.90983 141.813 6.90983 139.904C6.90983 137.996 5.36301 136.45 3.45491 136.45C1.54682 136.45 0 137.996 0 139.904C0 141.813 1.54682 143.359 3.45491 143.359Z" fill="white"/>
<path d="M140.99 143.359C142.898 143.359 144.445 141.812 144.445 139.904C144.445 137.996 142.898 136.449 140.99 136.449C139.082 136.449 137.535 137.996 137.535 139.904C137.535 141.812 139.082 143.359 140.99 143.359Z" fill="white"/>
</g>
<defs>
<clipPath id="clip0">
<rect width="177.493" height="21.2264" fill="white" transform="translate(0 130.774)"/>
</clipPath>
</defs>
</svg>
