<?xml version="1.0" encoding="UTF-8"?><svg xmlns="http://www.w3.org/2000/svg" viewBox="0 0 272.09 272.09"><defs><style>.d{fill:#fff;}.e{fill:#ff5027;}</style></defs><g id="a"/><g id="b"><g id="c"><circle class="d" cx="136.04" cy="136.04" r="136.04"/><g><path class="e" d="M52.78,91.47h-6.9c-2.36,0-4.1-.47-5.24-1.41-1.14-.94-1.71-2.39-1.71-4.35v-8.79c0-1.96,.57-3.41,1.71-4.37,1.14-.95,2.89-1.43,5.24-1.43h6.9c.36,0,.62,.08,.78,.24,.16,.16,.24,.42,.24,.78v3.42c0,.36-.08,.62-.24,.78-.16,.16-.42,.24-.78,.24h-5.68c-.58,0-1.02,.12-1.3,.35-.28,.24-.42,.59-.42,1.06v6.73c0,.47,.14,.82,.42,1.03,.28,.22,.72,.33,1.3,.33h5.68c.36,0,.62,.08,.78,.24,.16,.16,.24,.42,.24,.78v3.36c0,.36-.08,.62-.24,.78-.16,.16-.42,.24-.78,.24Z"/><path class="e" d="M71.12,91.47h-13.11c-.36,0-.62-.08-.78-.24s-.24-.42-.24-.78v-18.31c0-.36,.08-.62,.24-.78s.42-.24,.78-.24h13.11c.36,0,.62,.08,.78,.24s.24,.42,.24,.78v3.31c0,.36-.08,.62-.24,.78-.16,.16-.42,.24-.78,.24h-7.8v2.18h5.51c.36,0,.62,.08,.78,.24,.16,.16,.24,.42,.24,.78v3.02c0,.36-.08,.62-.24,.78-.16,.16-.42,.24-.78,.24h-5.51v2.43h7.8c.36,0,.62,.08,.78,.24s.24,.42,.24,.78v3.31c0,.36-.08,.62-.24,.78s-.42,.24-.78,.24Z"/><path class="e" d="M90.87,91.47h-14.38c-.36,0-.62-.08-.78-.24s-.24-.42-.24-.78v-18.31c0-.36,.08-.62,.24-.78s.42-.24,.78-.24h4.38c.36,0,.62,.08,.78,.24,.16,.16,.24,.42,.24,.78v13.99h3.87v-4.58c0-.36,.08-.62,.24-.78,.16-.16,.42-.24,.78-.24h4.1c.36,0,.62,.08,.78,.24,.16,.16,.24,.42,.24,.78v8.9c0,.36-.08,.62-.24,.78-.16,.16-.42,.24-.78,.24Z"/><path class="e" d="M109.24,91.47h-13.11c-.36,0-.62-.08-.78-.24s-.24-.42-.24-.78v-18.31c0-.36,.08-.62,.24-.78s.42-.24,.78-.24h13.11c.36,0,.62,.08,.78,.24s.24,.42,.24,.78v3.31c0,.36-.08,.62-.24,.78-.16,.16-.42,.24-.78,.24h-7.8v2.18h5.51c.36,0,.62,.08,.78,.24,.16,.16,.24,.42,.24,.78v3.02c0,.36-.08,.62-.24,.78-.16,.16-.42,.24-.78,.24h-5.51v2.43h7.8c.36,0,.62,.08,.78,.24s.24,.42,.24,.78v3.31c0,.36-.08,.62-.24,.78s-.42,.24-.78,.24Z"/><path class="e" d="M125.46,91.47h-10.85c-.36,0-.62-.08-.78-.24s-.24-.42-.24-.78v-18.31c0-.36,.08-.62,.24-.78s.42-.24,.78-.24h9.01c1.85,0,3.21,.35,4.1,1.06,.89,.71,1.33,1.79,1.33,3.26v1.36c0,.79-.14,1.44-.41,1.94-.27,.5-.69,.87-1.26,1.12,1.21,.11,2.1,.53,2.69,1.24,.58,.72,.88,1.76,.88,3.14v2.6c0,1.58-.45,2.75-1.34,3.5-.9,.75-2.27,1.13-4.14,1.13Zm-5.51-15.54v3.05h2.4c.36,0,.63-.09,.81-.28,.18-.19,.27-.47,.27-.85v-.79c0-.38-.09-.66-.27-.85-.18-.19-.45-.28-.81-.28h-2.4Zm0,7.4v3.33h3.67c.36,0,.63-.09,.81-.28,.18-.19,.27-.47,.27-.85v-1.1c0-.38-.09-.66-.27-.83s-.45-.27-.81-.27h-3.67Z"/><path class="e" d="M139.45,91.47h-4.35c-.36,0-.62-.08-.78-.24s-.24-.42-.24-.78v-18.31c0-.36,.08-.62,.24-.78s.42-.24,.78-.24h9.41c2.11,0,3.57,.44,4.37,1.31s1.2,2.01,1.2,3.41v1.3c0,.79-.12,1.46-.35,2.02s-.64,.96-1.23,1.2c1.02,.11,1.84,.53,2.47,1.24,.63,.72,.95,1.67,.95,2.85v5.99c0,.36-.08,.62-.24,.78s-.42,.24-.78,.24h-4.38c-.36,0-.62-.08-.78-.24-.16-.16-.24-.42-.24-.78v-4.32c0-.41-.08-.72-.24-.92-.16-.2-.44-.3-.83-.3h-3.96v5.54c0,.36-.08,.62-.24,.78s-.42,.24-.78,.24Zm1.02-15.26v3.62h2.12c.49,0,.82-.13,.99-.38,.17-.25,.25-.57,.25-.95v-.96c0-.38-.08-.69-.25-.95-.17-.25-.5-.38-.99-.38h-2.12Z"/><path class="e" d="M169.21,91.47h-13.11c-.36,0-.62-.08-.78-.24-.16-.16-.24-.42-.24-.78v-18.31c0-.36,.08-.62,.24-.78,.16-.16,.42-.24,.78-.24h13.11c.36,0,.62,.08,.78,.24s.24,.42,.24,.78v3.31c0,.36-.08,.62-.24,.78-.16,.16-.42,.24-.78,.24h-7.8v2.18h5.51c.36,0,.62,.08,.78,.24,.16,.16,.24,.42,.24,.78v3.02c0,.36-.08,.62-.24,.78-.16,.16-.42,.24-.78,.24h-5.51v2.43h7.8c.36,0,.62,.08,.78,.24s.24,.42,.24,.78v3.31c0,.36-.08,.62-.24,.78s-.42,.24-.78,.24Z"/><path class="e" d="M178.79,91.47h-4.21c-.36,0-.62-.08-.78-.24-.16-.16-.24-.42-.24-.78v-18.31c0-.36,.08-.62,.24-.78,.16-.16,.42-.24,.78-.24h4.55c.3,0,.55,.07,.75,.2,.2,.13,.38,.35,.55,.65l2.54,4.61c.09,.17,.17,.29,.24,.37,.07,.08,.16,.11,.27,.11h.25c.11,0,.2-.04,.27-.11,.07-.08,.15-.2,.24-.37l2.52-4.61c.17-.3,.35-.52,.55-.65,.2-.13,.45-.2,.75-.2h4.58c.36,0,.62,.08,.78,.24s.24,.42,.24,.78v18.31c0,.36-.08,.62-.24,.78s-.42,.24-.78,.24h-4.35c-.36,0-.62-.08-.78-.24s-.24-.42-.24-.78v-9.95l-1.67,3.08c-.17,.32-.37,.55-.61,.69-.24,.14-.53,.21-.89,.21h-1.13c-.36,0-.66-.07-.89-.21-.24-.14-.44-.37-.61-.69l-1.67-3.08v9.95c0,.36-.08,.62-.24,.78s-.42,.24-.78,.24Z"/><path class="e" d="M214.79,86.13c0,.87-.13,1.65-.38,2.36-.25,.71-.71,1.31-1.36,1.81-.65,.5-1.54,.89-2.68,1.17-1.14,.28-2.59,.42-4.34,.42s-3.2-.14-4.35-.42c-1.15-.28-2.05-.67-2.7-1.17s-1.1-1.1-1.36-1.81c-.25-.71-.38-1.49-.38-2.36v-9.64c0-.87,.13-1.65,.38-2.36,.25-.71,.71-1.31,1.36-1.82s1.55-.9,2.7-1.19c1.15-.28,2.6-.42,4.35-.42s3.2,.14,4.34,.42c1.14,.28,2.03,.68,2.68,1.19,.65,.51,1.1,1.12,1.36,1.82,.25,.71,.38,1.49,.38,2.36v9.64Zm-11.13-1.02c0,.38,.14,.69,.42,.95,.28,.25,.93,.38,1.95,.38s1.67-.13,1.95-.38c.28-.25,.42-.57,.42-.95v-7.6c0-.36-.14-.66-.42-.92-.28-.25-.93-.38-1.95-.38s-1.67,.13-1.95,.38c-.28,.25-.42,.56-.42,.92v7.6Z"/><path class="e" d="M227.82,91.47h-8.93c-.36,0-.62-.08-.78-.24-.16-.16-.24-.42-.24-.78v-3.31c0-.36,.08-.62,.24-.78,.16-.16,.42-.24,.78-.24h7.6c.24,0,.43-.08,.55-.24,.12-.16,.18-.35,.18-.58,0-.32-.06-.56-.18-.71-.12-.15-.31-.24-.55-.25l-4.24-.59c-1.32-.19-2.38-.62-3.18-1.3-.8-.68-1.2-1.81-1.2-3.39v-2.97c0-1.6,.52-2.83,1.55-3.69s2.47-1.29,4.3-1.29h7.91c.36,0,.62,.08,.78,.24s.24,.42,.24,.78v3.36c0,.36-.08,.62-.24,.78s-.42,.24-.78,.24h-6.58c-.25,0-.43,.08-.57,.24s-.2,.36-.2,.61,.07,.45,.2,.62c.13,.17,.32,.26,.57,.28l4.21,.57c1.32,.19,2.38,.62,3.19,1.3,.81,.68,1.21,1.81,1.21,3.39v2.97c0,1.6-.52,2.83-1.57,3.69-1.05,.86-2.47,1.29-4.28,1.29Z"/></g><g><path class="e" d="M40.12,135.76h-4.58c-.36,0-.62-.08-.78-.24-.16-.16-.24-.42-.24-.78v-13.88h-4.15c-.36,0-.62-.08-.78-.24s-.24-.42-.24-.78v-3.42c0-.36,.08-.62,.24-.78s.42-.24,.78-.24h14.92c.36,0,.62,.08,.78,.24,.16,.16,.24,.42,.24,.78v3.42c0,.36-.08,.62-.24,.78-.16,.16-.42,.24-.78,.24h-4.15v13.88c0,.36-.08,.62-.24,.78s-.42,.24-.78,.24Z"/><path class="e" d="M53.68,134.74c0,.36-.08,.62-.24,.78-.16,.16-.42,.24-.78,.24h-4.15c-.36,0-.62-.08-.78-.24s-.24-.42-.24-.78v-7.46c0-.57,.09-1.22,.27-1.95,.18-.73,.46-1.59,.83-2.57l2.46-6.42c.11-.32,.29-.56,.52-.71,.24-.15,.54-.23,.92-.23h7.6c.36,0,.65,.08,.89,.23,.24,.15,.41,.39,.52,.71l2.46,6.42c.38,.98,.65,1.84,.83,2.57,.18,.73,.27,1.38,.27,1.95v7.46c0,.36-.08,.62-.24,.78-.16,.16-.42,.24-.78,.24h-4.27c-.38,0-.65-.08-.83-.24-.18-.16-.27-.42-.27-.78v-3.96h-5v3.96Zm1.61-13.39l-1.33,4.29h4.44l-1.33-4.29c-.08-.17-.16-.29-.24-.37s-.18-.11-.3-.11h-.71c-.11,0-.21,.04-.3,.11-.08,.08-.17,.2-.24,.37Z"/><path class="e" d="M73.8,135.76h-4.24c-.36,0-.62-.08-.78-.24s-.24-.42-.24-.78v-18.31c0-.36,.08-.62,.24-.78s.42-.24,.78-.24h2.94c.36,0,.66,.06,.92,.17,.25,.11,.5,.31,.75,.59l5.48,6.27v-6.02c0-.36,.08-.62,.24-.78s.42-.24,.78-.24h4.24c.36,0,.62,.08,.78,.24,.16,.16,.24,.42,.24,.78v18.31c0,.36-.08,.62-.24,.78-.16,.16-.42,.24-.78,.24h-4.24c-.36,0-.62-.08-.78-.24s-.24-.42-.24-.78v-3.48l-4.83-5.85v9.33c0,.36-.08,.62-.24,.78-.16,.16-.42,.24-.78,.24Z"/><path class="e" d="M110.32,135.76h-13.11c-.36,0-.62-.08-.78-.24s-.24-.42-.24-.78v-18.31c0-.36,.08-.62,.24-.78s.42-.24,.78-.24h13.11c.36,0,.62,.08,.78,.24s.24,.42,.24,.78v3.31c0,.36-.08,.62-.24,.78-.16,.16-.42,.24-.78,.24h-7.8v2.18h5.51c.36,0,.62,.08,.78,.24,.16,.16,.24,.42,.24,.78v3.02c0,.36-.08,.62-.24,.78-.16,.16-.42,.24-.78,.24h-5.51v2.43h7.8c.36,0,.62,.08,.78,.24s.24,.42,.24,.78v3.31c0,.36-.08,.62-.24,.78s-.42,.24-.78,.24Z"/><path class="e" d="M124.11,135.76h-8.93c-.36,0-.62-.08-.78-.24-.16-.16-.24-.42-.24-.78v-3.31c0-.36,.08-.62,.24-.78,.16-.16,.42-.24,.78-.24h7.6c.24,0,.43-.08,.55-.24s.18-.35,.18-.58c0-.32-.06-.56-.18-.71-.12-.15-.31-.24-.55-.25l-4.24-.59c-1.32-.19-2.38-.62-3.18-1.3-.8-.68-1.2-1.81-1.2-3.39v-2.97c0-1.6,.52-2.83,1.55-3.69,1.04-.86,2.47-1.29,4.3-1.29h7.91c.36,0,.62,.08,.78,.24s.24,.42,.24,.78v3.36c0,.36-.08,.62-.24,.78s-.42,.24-.78,.24h-6.58c-.25,0-.43,.08-.57,.24s-.2,.36-.2,.61,.07,.45,.2,.62c.13,.17,.32,.26,.57,.28l4.21,.57c1.32,.19,2.38,.62,3.19,1.3,.81,.68,1.22,1.81,1.22,3.39v2.97c0,1.6-.52,2.83-1.57,3.69-1.05,.86-2.47,1.29-4.28,1.29Z"/><path class="e" d="M138.43,135.76h-4.38c-.36,0-.62-.08-.78-.24s-.24-.42-.24-.78v-18.31c0-.36,.08-.62,.24-.78s.42-.24,.78-.24h8.65c2.56,0,4.31,.51,5.26,1.53,.94,1.02,1.41,2.34,1.41,3.98v3.62c0,1.64-.47,2.97-1.41,3.98-.94,1.02-2.7,1.53-5.26,1.53h-3.25v4.69c0,.36-.08,.62-.24,.78s-.42,.24-.78,.24Zm.96-15.06v4.27h2.54c.55,0,.9-.14,1.07-.42,.17-.28,.25-.6,.25-.96v-1.5c0-.36-.08-.68-.25-.96-.17-.28-.53-.42-1.07-.42h-2.54Z"/><path class="e" d="M166.44,135.76h-13.11c-.36,0-.62-.08-.78-.24-.16-.16-.24-.42-.24-.78v-18.31c0-.36,.08-.62,.24-.78,.16-.16,.42-.24,.78-.24h13.11c.36,0,.62,.08,.78,.24s.24,.42,.24,.78v3.31c0,.36-.08,.62-.24,.78-.16,.16-.42,.24-.78,.24h-7.8v2.18h5.51c.36,0,.62,.08,.78,.24,.16,.16,.24,.42,.24,.78v3.02c0,.36-.08,.62-.24,.78-.16,.16-.42,.24-.78,.24h-5.51v2.43h7.8c.36,0,.62,.08,.78,.24s.24,.42,.24,.78v3.31c0,.36-.08,.62-.24,.78s-.42,.24-.78,.24Z"/><path class="e" d="M184.18,135.76h-6.9c-2.36,0-4.1-.47-5.24-1.41-1.14-.94-1.71-2.39-1.71-4.35v-8.79c0-1.96,.57-3.41,1.71-4.37,1.14-.95,2.89-1.43,5.24-1.43h6.9c.36,0,.62,.08,.78,.24,.16,.16,.24,.42,.24,.78v3.42c0,.36-.08,.62-.24,.78-.16,.16-.42,.24-.78,.24h-5.68c-.58,0-1.02,.12-1.3,.35-.28,.24-.42,.59-.42,1.06v6.73c0,.47,.14,.82,.42,1.03,.28,.22,.72,.33,1.3,.33h5.68c.36,0,.62,.08,.78,.24,.16,.16,.24,.42,.24,.78v3.36c0,.36-.08,.62-.24,.78-.16,.16-.42,.24-.78,.24Z"/><path class="e" d="M188.96,135.76c-.36,0-.62-.08-.78-.24-.16-.16-.24-.42-.24-.78v-3.36c0-.36,.08-.62,.24-.78,.16-.16,.42-.24,.78-.24h2.8v-9.5h-2.8c-.36,0-.62-.08-.78-.24-.16-.16-.24-.42-.24-.78v-3.42c0-.36,.08-.62,.24-.78,.16-.16,.42-.24,.78-.24h12.04c.36,0,.62,.08,.78,.24,.16,.16,.24,.42,.24,.78v3.42c0,.36-.08,.62-.24,.78-.16,.16-.42,.24-.78,.24h-2.74v9.5h2.74c.36,0,.62,.08,.78,.24,.16,.16,.24,.42,.24,.78v3.36c0,.36-.08,.62-.24,.78-.16,.16-.42,.24-.78,.24h-12.04Z"/><path class="e" d="M211.26,134.74c0,.36-.08,.62-.24,.78s-.42,.24-.78,.24h-4.15c-.36,0-.62-.08-.78-.24-.16-.16-.24-.42-.24-.78v-7.46c0-.57,.09-1.22,.27-1.95,.18-.73,.46-1.59,.83-2.57l2.46-6.42c.11-.32,.29-.56,.52-.71,.24-.15,.54-.23,.92-.23h7.6c.36,0,.65,.08,.89,.23,.24,.15,.41,.39,.52,.71l2.46,6.42c.38,.98,.65,1.84,.83,2.57,.18,.73,.27,1.38,.27,1.95v7.46c0,.36-.08,.62-.24,.78-.16,.16-.42,.24-.78,.24h-4.27c-.38,0-.65-.08-.83-.24-.18-.16-.27-.42-.27-.78v-3.96h-5v3.96Zm1.61-13.39l-1.33,4.29h4.44l-1.33-4.29c-.08-.17-.16-.29-.24-.37-.08-.08-.18-.11-.3-.11h-.71c-.11,0-.21,.04-.3,.11-.08,.08-.17,.2-.24,.37Z"/><path class="e" d="M241.52,135.76h-14.38c-.36,0-.62-.08-.78-.24-.16-.16-.24-.42-.24-.78v-18.31c0-.36,.08-.62,.24-.78,.16-.16,.42-.24,.78-.24h4.38c.36,0,.62,.08,.78,.24,.16,.16,.24,.42,.24,.78v13.99h3.87v-4.58c0-.36,.08-.62,.24-.78s.42-.24,.78-.24h4.1c.36,0,.62,.08,.78,.24s.24,.42,.24,.78v8.9c0,.36-.08,.62-.24,.78s-.42,.24-.78,.24Z"/></g><g><path class="e" d="M131.73,173.32c1.73,0,3.14-1.4,3.14-3.14s-1.4-3.14-3.14-3.14-3.14,1.4-3.14,3.14,1.4,3.14,3.14,3.14"/><path class="e" d="M144.21,191.68c-.46,0-.83-.37-.83-.83v-26.36h-5.09v27.52c0,2.2,1.78,3.98,3.98,3.98h3.87v-4.31h-1.93Z"/><polygon class="e" points="86.86 166.41 86.86 173.08 91.17 173.08 91.17 171.35 97.76 171.35 97.76 191.68 95.78 191.68 95.78 195.99 105.1 195.99 105.1 191.68 103.12 191.68 103.12 171.35 109.71 171.35 109.71 173.08 113.98 173.08 113.98 166.41 86.86 166.41"/><polygon class="e" points="134.31 191.68 134.31 176.38 123.36 176.38 123.36 180.72 129.22 180.72 129.22 191.68 123.36 191.68 123.36 195.99 136.37 195.99 136.37 191.68 134.31 191.68"/><polygon class="e" points="109.71 176.38 109.71 191.68 107.65 191.68 107.65 195.99 120.82 195.99 120.82 191.68 114.8 191.68 114.8 180.72 120.82 180.72 120.82 176.38 112.81 176.4 109.71 176.38"/><path class="e" d="M171.18,184.21c.05-.64,.23-1.23,.53-1.74,.3-.52,.69-.95,1.16-1.3,.47-.35,1-.61,1.58-.79,.58-.18,1.2-.27,1.86-.27,1.42,0,2.48,.37,3.17,1.1,.7,.74,1.05,1.74,1.05,3h-9.35Zm13.13-3.88c-.54-1.04-1.25-1.87-2.11-2.49-.86-.62-1.8-1.06-2.83-1.31-1.03-.25-2.02-.38-2.98-.38-1.44,0-2.79,.21-4.03,.63-1.24,.42-2.33,1.05-3.25,1.88-.93,.84-1.65,1.88-2.19,3.14-.53,1.25-.8,2.72-.8,4.39,0,.57,.03,1.11,.09,1.63,.11,.91,.31,1.77,.61,2.58,.12,.33,1.07,2.68,3.62,4.19,1.69,1,4.07,1.4,7.32,1.4s4.88-.14,4.88-.14v-4.2s-2.27,.03-5.07,.03c-4.1,0-5.49-2.5-5.78-3.21-.09-.21-.16-.43-.22-.66h13.45c.39-1.89,.22-5.66-.72-7.49"/><path class="e" d="M164.2,184.3v-6.37c0-.2-.12-.38-.3-.46-.64-.26-1.49-.54-2.55-.82-1.24-.33-2.58-.5-4-.5-1.52,0-2.93,.22-4.23,.67-1.29,.44-2.42,1.1-3.37,1.96-.95,.86-1.69,1.92-2.23,3.16-.53,1.24-.8,2.66-.8,4.26,0,1.5,.23,2.87,.68,4.11,.46,1.24,1.02,2.15,1.87,3.05,1.39,1.46,4.11,2.52,7.26,2.62h6.29v-4.3h-4.84c-2.05,0-4.05-.94-4.56-1.45-.51-.51-.9-1.1-1.18-1.79-.28-.68-.42-1.43-.42-2.24,0-.99,.17-1.84,.52-2.55,.34-.71,.79-1.3,1.33-1.77,.54-.47,1.17-.81,1.86-1.03,.7-.22,1.4-.32,2.11-.32,.79,0,1.57,.09,2.36,.27v3.5h4.19Z"/></g><g><path d="M101.02,108.64c.23,.32,.53,.58,.9,.78s.82,.29,1.35,.29,1.04-.13,1.48-.39c.44-.26,.85-.6,1.22-1.03,.37-.42,.69-.89,.98-1.42s.55-1.04,.78-1.57c.06-.12,.13-.21,.23-.27,.1-.06,.21-.09,.33-.09,.19,0,.34,.07,.46,.2,.12,.13,.18,.28,.18,.43,0,.06,0,.1-.02,.14-.01,.04-.03,.08-.05,.12-.77,1.69-1.6,2.96-2.51,3.82-.91,.86-1.93,1.29-3.08,1.32-.73,0-1.37-.14-1.9-.42-.53-.28-.97-.65-1.32-1.1-.34-.45-.6-.96-.77-1.53-.17-.57-.25-1.13-.25-1.7s.07-1.09,.21-1.57c.14-.48,.34-.89,.6-1.25s.57-.63,.93-.83,.76-.3,1.19-.3c.26,0,.51,.05,.76,.16,.25,.11,.48,.26,.68,.45,.2,.19,.36,.43,.48,.71,.12,.28,.18,.59,.18,.95,0,.46-.08,.88-.23,1.28-.16,.4-.37,.77-.64,1.12-.27,.34-.6,.66-.98,.95s-.78,.54-1.22,.75Zm-.5-1.08c.34-.14,.66-.33,.94-.55,.28-.22,.53-.47,.73-.73,.2-.27,.36-.55,.47-.84,.11-.29,.17-.59,.17-.89,0-.33-.08-.59-.25-.76-.17-.17-.36-.26-.58-.26-.3,0-.56,.08-.77,.25-.21,.17-.38,.38-.52,.65-.13,.27-.23,.56-.29,.89-.06,.33-.09,.65-.09,.98,0,.2,.02,.41,.06,.63,.04,.22,.09,.43,.14,.63Z"/><path d="M109.59,104.31c-.07,.18-.15,.38-.24,.6-.09,.22-.2,.46-.33,.7-.1,.19-.2,.34-.31,.44s-.24,.16-.41,.16c-.19,0-.34-.06-.45-.17-.11-.12-.17-.25-.17-.41,0-.06,0-.1,.02-.14s.04-.1,.08-.19c.29-.56,.5-1.04,.64-1.46,.14-.42,.25-.85,.34-1.31-.08-.26-.13-.47-.17-.65s-.05-.36-.05-.55c0-.37,.08-.66,.23-.89,.16-.23,.37-.34,.65-.34,.26,0,.46,.11,.61,.33s.23,.49,.23,.82c0,.18-.02,.36-.05,.53-.03,.18-.08,.4-.13,.67,.26,.63,.51,1.19,.77,1.68,.26,.49,.48,.94,.68,1.34,.2,.41,.36,.79,.49,1.14s.19,.71,.19,1.07c0,.47-.09,.91-.28,1.33-.19,.42-.5,.78-.93,1.07,.06,.01,.11,.02,.17,.02h.17c.63,0,1.22-.14,1.75-.43,.53-.29,1.01-.66,1.44-1.12s.81-.97,1.14-1.53c.33-.56,.62-1.12,.87-1.68,.11-.25,.27-.38,.47-.38,.19,0,.34,.07,.44,.2,.11,.13,.16,.28,.16,.43,0,.09-.02,.17-.05,.25-.12,.3-.28,.64-.48,1.03-.19,.38-.43,.78-.7,1.18-.27,.41-.59,.8-.94,1.19-.36,.39-.75,.74-1.19,1.04-.44,.31-.92,.55-1.44,.73s-1.09,.28-1.72,.28c-.74,0-1.44-.13-2.08-.39-.64-.26-1.16-.69-1.56-1.29-.07-.1-.1-.21-.1-.32,0-.17,.06-.31,.19-.44,.13-.13,.27-.19,.44-.19,.18,0,.33,.06,.45,.18,.01,.02,.05,.06,.12,.11,.07,.05,.15,.11,.24,.17,.09,.06,.21,.11,.33,.16,.13,.04,.26,.07,.39,.07,.27,0,.49-.06,.68-.17,.18-.11,.33-.25,.44-.41,.11-.16,.19-.33,.24-.52,.05-.18,.08-.34,.08-.48,0-.28-.04-.56-.13-.83-.09-.28-.2-.56-.34-.83s-.29-.56-.45-.86c-.16-.29-.31-.6-.44-.92Z"/><path d="M129.91,93.79c0,.18-.06,.32-.18,.42-.12,.11-.27,.16-.45,.16h-8.45v.18c0,.68-.05,1.4-.15,2.17-.1,.77-.24,1.53-.41,2.29-.17,.76-.37,1.5-.58,2.23-.22,.72-.44,1.39-.67,2-.23,.61-.45,1.14-.68,1.59-.22,.45-.42,.79-.6,1.01,.14,.51,.32,.99,.52,1.42,.2,.44,.43,.82,.68,1.15,.25,.33,.52,.59,.81,.78,.29,.19,.6,.28,.93,.28,.39,0,.78-.16,1.16-.49,.38-.33,.74-.72,1.07-1.17,.33-.45,.62-.91,.87-1.37,.25-.46,.43-.83,.54-1.11,.11-.27,.31-.4,.58-.4,.19,0,.34,.07,.46,.2,.12,.13,.18,.28,.18,.43,0,.08-.02,.16-.05,.23-.03,.08-.11,.26-.24,.53-.13,.28-.29,.6-.5,.97-.21,.37-.44,.75-.72,1.16-.27,.41-.58,.78-.92,1.11-.34,.33-.7,.61-1.09,.83-.39,.22-.8,.33-1.23,.33-.77,0-1.46-.25-2.07-.75-.61-.5-1.13-1.2-1.56-2.1-.43-.9-.75-1.97-.98-3.2-.22-1.23-.33-2.58-.33-4.05,0-.37,0-.8,.02-1.29,.01-.5,.03-1.02,.07-1.57,.03-.55,.08-1.12,.15-1.7,.07-.58,.16-1.15,.27-1.71h-5.99c-.18,0-.33-.05-.45-.16-.12-.11-.18-.25-.18-.42s.06-.32,.18-.43c.12-.11,.27-.16,.45-.16h6.27c.11-.4,.24-.77,.39-1.1,.15-.33,.32-.62,.52-.87,.19-.24,.41-.44,.65-.58,.24-.14,.5-.21,.79-.21s.52,.07,.73,.21c.21,.14,.38,.33,.52,.58,.14,.25,.26,.53,.34,.87,.08,.33,.15,.7,.19,1.1h8.52c.18,0,.33,.05,.45,.16,.12,.11,.18,.25,.18,.43Zm-12.55,10.39c.33-.73,.64-1.53,.91-2.38,.27-.85,.51-1.71,.7-2.58,.19-.87,.34-1.72,.45-2.55,.11-.83,.16-1.6,.16-2.3h-1.97c-.16,.69-.28,1.54-.38,2.56-.09,1.02-.14,2.25-.14,3.71,0,.81,.02,1.49,.07,2.04,.04,.55,.11,1.05,.2,1.49Zm1.55-12.47c-.1,0-.24,.11-.43,.33-.19,.22-.38,.61-.57,1.18h1.6c-.06-.47-.14-.83-.24-1.1-.11-.27-.23-.4-.36-.4Z"/><path d="M126.38,108.64c.23,.32,.53,.58,.9,.78s.82,.29,1.35,.29,1.04-.13,1.48-.39c.44-.26,.85-.6,1.22-1.03,.37-.42,.69-.89,.98-1.42s.55-1.04,.78-1.57c.06-.12,.13-.21,.23-.27,.1-.06,.21-.09,.33-.09,.19,0,.34,.07,.46,.2,.12,.13,.18,.28,.18,.43,0,.06,0,.1-.02,.14-.01,.04-.03,.08-.05,.12-.77,1.69-1.6,2.96-2.51,3.82-.91,.86-1.93,1.29-3.08,1.32-.73,0-1.37-.14-1.9-.42-.53-.28-.97-.65-1.32-1.1-.34-.45-.6-.96-.77-1.53-.17-.57-.25-1.13-.25-1.7s.07-1.09,.21-1.57c.14-.48,.34-.89,.6-1.25s.57-.63,.93-.83,.76-.3,1.19-.3c.26,0,.51,.05,.76,.16,.25,.11,.48,.26,.68,.45,.2,.19,.36,.43,.48,.71,.12,.28,.18,.59,.18,.95,0,.46-.08,.88-.23,1.28-.16,.4-.37,.77-.64,1.12-.27,.34-.6,.66-.98,.95s-.78,.54-1.22,.75Zm-.5-1.08c.34-.14,.66-.33,.94-.55,.28-.22,.53-.47,.73-.73,.2-.27,.36-.55,.47-.84,.11-.29,.17-.59,.17-.89,0-.33-.08-.59-.25-.76-.17-.17-.36-.26-.58-.26-.3,0-.56,.08-.77,.25-.21,.17-.38,.38-.52,.65-.13,.27-.23,.56-.29,.89-.06,.33-.09,.65-.09,.98,0,.2,.02,.41,.06,.63,.04,.22,.09,.43,.14,.63Z"/><path d="M147.07,105.62c.54,2.57,1.33,3.85,2.37,3.85,.4,0,.78-.15,1.15-.44,.37-.29,.71-.66,1.03-1.08,.32-.43,.6-.88,.84-1.36,.24-.48,.44-.89,.6-1.25,.11-.27,.3-.4,.58-.4,.18,0,.33,.07,.45,.2,.12,.13,.18,.28,.18,.43,0,.09-.02,.17-.05,.23-.08,.19-.19,.44-.34,.76-.15,.32-.33,.66-.55,1.02s-.46,.73-.72,1.11c-.27,.38-.56,.72-.88,1.02-.32,.3-.67,.55-1.03,.74-.36,.19-.74,.29-1.14,.29-.75,0-1.38-.26-1.92-.78-.53-.52-1-1.37-1.38-2.56-.53,1.13-1.07,1.96-1.62,2.47-.54,.51-1.13,.77-1.77,.77-.33,0-.66-.05-.97-.16-.31-.11-.58-.28-.82-.53-.23-.25-.42-.56-.57-.94s-.22-.85-.22-1.41c0-.77,.13-1.47,.4-2.12s.61-1.2,1.03-1.66c.42-.46,.89-.82,1.41-1.08s1.03-.38,1.54-.38c.17,0,.31,.06,.43,.18,.12,.12,.18,.26,.18,.44,0,.16-.05,.29-.15,.42-.1,.12-.23,.19-.4,.22-.33,.04-.69,.15-1.07,.32-.38,.17-.73,.41-1.04,.73s-.58,.72-.78,1.21c-.21,.49-.31,1.07-.31,1.75,0,.56,.11,.99,.34,1.3,.23,.31,.56,.47,.99,.47,.18,0,.37-.05,.57-.14,.2-.09,.41-.28,.64-.56,.23-.28,.48-.67,.75-1.18,.27-.51,.58-1.18,.91-2.02-.19-.98-.36-2.11-.52-3.38-.16-1.28-.23-2.71-.23-4.29,0-.69,.02-1.41,.07-2.16,.04-.75,.12-1.48,.22-2.2,.1-.72,.23-1.4,.4-2.04s.37-1.21,.61-1.7,.52-.88,.84-1.16c.32-.28,.69-.42,1.1-.42,.37,0,.68,.1,.93,.3,.26,.2,.46,.48,.63,.83s.28,.78,.36,1.28c.08,.5,.12,1.05,.12,1.65,0,1.29-.11,2.58-.33,3.87-.22,1.29-.5,2.52-.83,3.7-.33,1.18-.68,2.27-1.04,3.27-.37,1-.7,1.86-1,2.58Zm1.95-13.44c0-.28,0-.58-.03-.9s-.06-.63-.12-.91c-.06-.28-.14-.52-.24-.71-.1-.19-.23-.28-.4-.28-.28,0-.54,.25-.78,.73-.24,.49-.45,1.13-.62,1.93-.18,.79-.32,1.7-.42,2.7-.11,1.01-.16,2.02-.16,3.04s.04,1.96,.12,2.93c.08,.98,.17,1.85,.27,2.62,.32-.86,.63-1.74,.92-2.64,.29-.91,.54-1.83,.76-2.78,.22-.95,.39-1.9,.52-2.86,.13-.96,.19-1.92,.19-2.88Z"/><path d="M153.09,107.16c0-1.6,.1-3.2,.3-4.79,.02-.16,.09-.29,.21-.41s.27-.17,.46-.17c.17,0,.31,.06,.42,.19s.17,.28,.17,.44c0,.07-.01,.27-.04,.6-.03,.33-.06,.73-.1,1.19-.04,.46-.07,.95-.1,1.47-.03,.52-.04,.99-.04,1.43,0,.59,.06,1.06,.18,1.43,.12,.36,.27,.64,.45,.84,.18,.2,.38,.33,.58,.4s.4,.1,.59,.1c.31,0,.63-.11,.97-.33,.33-.22,.67-.53,1.03-.93,.35-.4,.7-.88,1.06-1.44,.36-.56,.71-1.19,1.05-1.88,.06-.11,.13-.2,.23-.26,.1-.06,.21-.09,.33-.09,.18,0,.33,.07,.44,.2,.12,.13,.18,.28,.18,.43,0,.11-.02,.21-.07,.28-.13,.26-.3,.57-.5,.93-.2,.37-.43,.74-.68,1.13-.26,.39-.54,.78-.84,1.16-.31,.38-.63,.73-.98,1.03s-.71,.55-1.08,.74c-.38,.19-.76,.28-1.15,.28-.5,0-.94-.11-1.32-.32-.38-.21-.7-.5-.96-.85-.26-.36-.46-.78-.58-1.26s-.19-1-.19-1.56Zm.23-7.37l2.67-2.53c.11-.1,.24-.15,.38-.15s.27,.06,.38,.17,.17,.24,.17,.4-.06,.28-.17,.38l-2.67,2.54c-.12,.1-.25,.15-.38,.15-.16,0-.29-.06-.39-.17-.11-.11-.16-.24-.16-.38,0-.16,.06-.29,.17-.4Z"/><path d="M173.13,105.82c-.04,.09-.14,.27-.27,.56-.14,.28-.32,.61-.53,.97-.22,.37-.47,.75-.76,1.15-.29,.4-.61,.77-.97,1.1-.36,.33-.74,.61-1.15,.83s-.84,.33-1.3,.33c-.65,0-1.19-.21-1.63-.62-.44-.41-.76-.93-.96-1.55-.38,.63-.83,1.14-1.35,1.51s-1.04,.56-1.57,.56c-.41,0-.78-.08-1.12-.23-.33-.15-.62-.36-.85-.63s-.41-.59-.54-.96c-.13-.37-.19-.77-.19-1.2,0-.87,.15-1.63,.44-2.29,.29-.66,.67-1.21,1.12-1.66,.46-.44,.96-.78,1.51-1,.55-.22,1.08-.33,1.59-.33,.34,0,.66,.05,.95,.14,.29,.09,.54,.2,.74,.31,.21,.11,.36,.21,.48,.31,.11,.09,.17,.15,.18,.16,.12,.14,.18,.29,.18,.45,0,.17-.06,.31-.18,.44s-.27,.19-.43,.19c-.18,0-.33-.06-.45-.18-.02-.02-.07-.06-.15-.12-.08-.06-.18-.12-.32-.19-.13-.07-.29-.12-.47-.17-.18-.05-.39-.08-.62-.08-.34,0-.71,.08-1.1,.23-.39,.16-.75,.4-1.07,.73-.32,.33-.59,.74-.81,1.23-.22,.5-.33,1.08-.33,1.76,0,.21,.02,.43,.07,.64,.04,.22,.12,.42,.23,.59s.26,.32,.45,.43c.19,.11,.42,.17,.7,.17,.2,0,.43-.07,.69-.2,.26-.13,.51-.34,.75-.62,.24-.28,.46-.63,.65-1.05,.19-.42,.33-.92,.41-1.5,.02-.16,.09-.29,.22-.39,.12-.11,.27-.16,.43-.16,.16,0,.29,.06,.41,.18,.12,.12,.18,.26,.19,.42,.01,.21,.03,.51,.07,.89s.11,.76,.23,1.14c.12,.38,.29,.71,.53,.98,.23,.28,.56,.42,.97,.42,.27,0,.53-.07,.79-.22,.26-.14,.52-.34,.77-.58s.49-.51,.72-.82,.44-.61,.63-.92c.19-.31,.36-.61,.5-.9s.27-.54,.37-.75c.06-.12,.14-.22,.24-.28s.22-.1,.34-.1c.19,0,.34,.07,.46,.21,.12,.14,.18,.29,.18,.44,0,.08-.02,.16-.05,.23Z"/></g><g><path d="M67.7,151.1c0,1.02-.18,1.89-.55,2.62s-.82,1.27-1.35,1.65h.07c.66,0,1.25-.15,1.79-.44s1.03-.67,1.46-1.13,.82-.98,1.17-1.54c.34-.57,.65-1.12,.92-1.65,.06-.12,.14-.22,.24-.28,.11-.07,.22-.1,.34-.1,.19,0,.34,.07,.45,.2,.11,.13,.17,.28,.17,.43,0,.09-.02,.17-.05,.25-.29,.64-.63,1.29-1.03,1.94-.4,.65-.87,1.24-1.4,1.76-.53,.52-1.13,.95-1.8,1.28-.67,.33-1.41,.49-2.22,.49-.59,0-1.16-.09-1.72-.28-.56-.18-1.04-.47-1.47-.86-.16-.12-.29-.25-.4-.39-.11-.14-.2-.27-.27-.39-.02-.02-.03-.04-.03-.07-.07-.1-.1-.21-.1-.32,0-.14,.05-.28,.15-.4,.01-.02,.02-.04,.03-.04,.01,0,.02-.01,.03-.03,.11-.1,.23-.16,.37-.17h.05c.06,0,.09,0,.12,.02,.01,0,.02,0,.02,0,0,0,.01,0,.02,0,.03,0,.07,.01,.12,.03,.01,.01,.02,.02,.03,.02,.1,.07,.18,.15,.25,.25,.08,.13,.17,.26,.27,.37,.09,.09,.19,.17,.32,.24,.12,.07,.26,.11,.42,.11,.28,0,.56-.08,.83-.25,.28-.17,.53-.41,.75-.72,.22-.31,.4-.69,.54-1.13,.14-.44,.21-.94,.21-1.48,0-.4-.04-.74-.12-1.03-.08-.28-.19-.51-.32-.69-.13-.18-.26-.31-.41-.39-.14-.08-.28-.12-.42-.12-.3,0-.6,.16-.91,.47-.31,.31-.61,.71-.91,1.18-.3,.48-.6,1.01-.89,1.58-.29,.58-.59,1.14-.89,1.68-.02,1.8-.05,3.52-.09,5.15s-.11,3.15-.2,4.55c-.09,1.4-.23,2.67-.39,3.8s-.39,2.1-.68,2.91-.65,1.43-1.07,1.86c-.42,.43-.94,.65-1.55,.65-.19,0-.41-.04-.65-.12-.24-.08-.47-.24-.68-.48-.21-.24-.39-.58-.53-1.03-.14-.44-.22-1.04-.22-1.78,0-.95,.12-2.04,.35-3.29s.56-2.56,.99-3.96c.43-1.39,.94-2.83,1.53-4.29,.59-1.47,1.24-2.9,1.95-4.29,0-.39,0-.77,0-1.15,0-.38,0-.74,0-1.1-.14,.17-.32,.25-.52,.25-.19,0-.34-.07-.45-.2-.11-.13-.17-.28-.17-.43,0-.08,.02-.16,.05-.25,.27-.61,.47-1.19,.62-1.74,.14-.55,.25-1.03,.33-1.45s.11-.75,.12-.99c.01-.24,.02-.37,.02-.38,0-.17,.06-.31,.18-.43,.12-.12,.27-.18,.45-.18,.17,0,.31,.06,.43,.17,.12,.12,.18,.26,.18,.44v5.12c.26-.43,.51-.86,.77-1.28,.26-.42,.52-.8,.81-1.13,.28-.33,.59-.6,.92-.81,.33-.21,.69-.31,1.09-.31,.38,0,.72,.09,1.03,.27,.31,.18,.58,.42,.8,.73,.22,.31,.39,.68,.51,1.11s.18,.89,.18,1.38Zm-7.4,5.35c-.54,1.22-1.04,2.45-1.48,3.68-.44,1.23-.81,2.42-1.12,3.57s-.54,2.22-.71,3.22c-.17,1-.25,1.88-.25,2.63,0,.19,.01,.39,.03,.62,.02,.22,.07,.43,.13,.62s.16,.35,.28,.48c.12,.13,.28,.19,.48,.19,.37,0,.68-.23,.95-.69,.27-.46,.49-1.08,.68-1.87,.18-.78,.34-1.68,.46-2.7,.12-1.02,.22-2.08,.29-3.19,.07-1.11,.12-2.23,.16-3.36,.03-1.13,.06-2.19,.08-3.19Z"/><path d="M84.09,151.1c-.04,.09-.14,.27-.28,.56-.14,.28-.32,.61-.53,.97-.22,.37-.47,.75-.76,1.15-.29,.4-.61,.77-.97,1.1-.36,.33-.74,.61-1.15,.83-.41,.22-.85,.33-1.3,.33-.64,0-1.19-.21-1.63-.62-.44-.41-.76-.93-.96-1.55-.38,.63-.83,1.14-1.35,1.51s-1.04,.56-1.57,.56c-.41,0-.78-.08-1.12-.23-.33-.15-.62-.36-.85-.63s-.41-.59-.54-.96c-.13-.37-.19-.77-.19-1.2,0-.87,.15-1.63,.44-2.29,.29-.66,.67-1.21,1.13-1.66,.46-.44,.96-.78,1.51-1s1.08-.33,1.59-.33c.34,0,.66,.05,.95,.14,.29,.09,.54,.2,.74,.31,.21,.11,.36,.21,.48,.31,.11,.09,.17,.15,.18,.16,.12,.14,.18,.29,.18,.45,0,.17-.06,.31-.18,.44-.12,.13-.27,.19-.43,.19-.18,0-.33-.06-.45-.18-.02-.02-.07-.06-.15-.12-.08-.06-.18-.12-.32-.19s-.29-.12-.48-.17c-.18-.05-.39-.08-.63-.08-.34,0-.71,.08-1.1,.23s-.74,.4-1.07,.73c-.32,.33-.59,.74-.81,1.23-.22,.5-.33,1.08-.33,1.76,0,.21,.02,.43,.07,.64,.04,.22,.12,.42,.23,.59,.11,.18,.26,.32,.45,.43,.19,.11,.42,.17,.7,.17,.2,0,.43-.07,.69-.2,.26-.13,.51-.34,.75-.62,.24-.28,.46-.63,.65-1.05,.19-.42,.33-.92,.41-1.5,.02-.16,.09-.29,.22-.39,.12-.11,.27-.16,.43-.16,.16,0,.29,.06,.41,.18s.18,.26,.19,.42c.01,.21,.03,.51,.07,.89,.03,.38,.11,.76,.23,1.14s.29,.71,.53,.98c.23,.28,.56,.42,.97,.42,.27,0,.53-.07,.79-.22s.52-.34,.77-.58,.49-.51,.72-.82c.23-.31,.44-.61,.62-.92,.19-.31,.36-.61,.5-.9s.27-.54,.37-.75c.06-.12,.14-.22,.24-.28,.11-.07,.22-.1,.34-.1,.19,0,.34,.07,.46,.21,.12,.14,.17,.29,.17,.44,0,.08-.02,.16-.05,.23Z"/><path d="M84.69,148.9c-.04,.3-.1,.58-.17,.84-.07,.26-.13,.49-.19,.68-.06,.19-.11,.35-.16,.48s-.07,.19-.08,.2c-.11,.26-.31,.38-.58,.38-.16,0-.3-.06-.43-.17-.13-.12-.2-.26-.2-.44,0-.07,.01-.12,.03-.15s.06-.1,.1-.2,.1-.27,.17-.5c.07-.23,.15-.59,.25-1.08-.19,0-.38,0-.58-.02-.2-.01-.39-.05-.56-.12-.17-.07-.31-.17-.43-.32-.11-.14-.17-.34-.17-.6,0-.19,.05-.44,.16-.77,.11-.32,.25-.64,.43-.95s.38-.58,.6-.81c.22-.23,.44-.34,.67-.34,.26,0,.46,.09,.62,.28,.16,.19,.29,.42,.38,.69,.09,.27,.15,.56,.19,.86s.06,.56,.06,.78c.19,0,.38,0,.56,0,.18,0,.36,0,.52,0,.63,0,1.12,.14,1.45,.42,.33,.28,.5,.73,.5,1.37,0,.26-.02,.52-.05,.8-.03,.28-.07,.56-.12,.86s-.08,.59-.12,.88-.05,.57-.05,.85c0,.4,.06,.73,.17,.99,.11,.26,.25,.47,.42,.62,.17,.16,.34,.26,.53,.33,.19,.06,.36,.09,.52,.09,.48,0,.93-.16,1.35-.47,.42-.31,.81-.69,1.17-1.13,.36-.44,.68-.9,.96-1.39,.28-.49,.52-.92,.71-1.28,.06-.1,.13-.18,.23-.23s.21-.08,.32-.08c.2,0,.36,.06,.47,.19,.11,.13,.17,.27,.17,.42,0,.11-.02,.21-.07,.3-.26,.46-.55,.97-.89,1.54-.34,.57-.73,1.11-1.16,1.61-.43,.5-.92,.92-1.46,1.27-.54,.34-1.13,.52-1.78,.52-.4,0-.78-.07-1.13-.22-.36-.15-.66-.37-.93-.65s-.47-.63-.62-1.05c-.16-.42-.23-.89-.23-1.41,0-.56,.06-1.11,.17-1.66,.11-.55,.17-1.08,.17-1.58,0-.21-.05-.37-.14-.48-.09-.11-.3-.16-.62-.16h-.51c-.18,0-.38,0-.59,.02Zm-1.12-1.23c0-.08,0-.18,0-.31,0-.13-.02-.25-.03-.38-.02-.12-.04-.23-.07-.32s-.06-.13-.09-.13-.07,.04-.12,.13c-.05,.08-.1,.18-.16,.3-.06,.12-.11,.24-.15,.38-.04,.13-.08,.24-.1,.33h.73Z"/><path d="M106.18,151.1c-.04,.09-.14,.27-.28,.56-.14,.28-.32,.61-.53,.97-.22,.37-.47,.75-.76,1.15-.29,.4-.61,.77-.97,1.1-.36,.33-.74,.61-1.15,.83-.41,.22-.85,.33-1.3,.33-.64,0-1.19-.21-1.63-.62-.44-.41-.76-.93-.96-1.55-.38,.63-.83,1.14-1.35,1.51s-1.04,.56-1.57,.56c-.41,0-.78-.08-1.12-.23-.33-.15-.62-.36-.85-.63s-.41-.59-.54-.96c-.13-.37-.19-.77-.19-1.2,0-.87,.15-1.63,.44-2.29,.29-.66,.67-1.21,1.13-1.66,.46-.44,.96-.78,1.51-1s1.08-.33,1.59-.33c.34,0,.66,.05,.95,.14,.29,.09,.54,.2,.74,.31,.21,.11,.36,.21,.48,.31,.11,.09,.17,.15,.18,.16,.12,.14,.18,.29,.18,.45,0,.17-.06,.31-.18,.44-.12,.13-.27,.19-.43,.19-.18,0-.33-.06-.45-.18-.02-.02-.07-.06-.15-.12-.08-.06-.18-.12-.32-.19s-.29-.12-.48-.17c-.18-.05-.39-.08-.63-.08-.34,0-.71,.08-1.1,.23s-.74,.4-1.07,.73c-.32,.33-.59,.74-.81,1.23-.22,.5-.33,1.08-.33,1.76,0,.21,.02,.43,.07,.64,.04,.22,.12,.42,.23,.59,.11,.18,.26,.32,.45,.43,.19,.11,.42,.17,.7,.17,.2,0,.43-.07,.69-.2,.26-.13,.51-.34,.75-.62,.24-.28,.46-.63,.65-1.05,.19-.42,.33-.92,.41-1.5,.02-.16,.09-.29,.22-.39,.12-.11,.27-.16,.43-.16,.16,0,.29,.06,.41,.18s.18,.26,.19,.42c.01,.21,.03,.51,.07,.89,.03,.38,.11,.76,.23,1.14s.29,.71,.53,.98c.23,.28,.56,.42,.97,.42,.27,0,.53-.07,.79-.22s.52-.34,.77-.58,.49-.51,.72-.82c.23-.31,.44-.61,.62-.92,.19-.31,.36-.61,.5-.9s.27-.54,.37-.75c.06-.12,.14-.22,.24-.28,.11-.07,.22-.1,.34-.1,.19,0,.34,.07,.46,.21,.12,.14,.17,.29,.17,.44,0,.08-.02,.16-.05,.23Z"/><path d="M122.02,151.13c-.12,.26-.27,.56-.46,.91-.18,.35-.39,.71-.63,1.09-.23,.38-.49,.75-.78,1.13-.29,.37-.6,.71-.94,1-.34,.29-.7,.53-1.08,.72-.38,.18-.79,.28-1.23,.28-.67,0-1.24-.21-1.72-.62-.48-.41-.88-.95-1.22-1.62s-.6-1.42-.81-2.28-.36-1.72-.48-2.6c-.11-.88-.19-1.74-.23-2.58-.04-.83-.06-1.57-.06-2.22,0-.93,.03-1.9,.09-2.9s.16-1.98,.29-2.93,.3-1.86,.51-2.72c.21-.86,.45-1.61,.73-2.25,.28-.64,.61-1.16,.98-1.53s.78-.57,1.25-.57c.37,0,.7,.09,.99,.26,.29,.17,.54,.45,.74,.84,.2,.39,.36,.89,.47,1.52,.11,.62,.17,1.38,.17,2.28,0,1.11-.12,2.26-.35,3.44-.23,1.18-.55,2.38-.95,3.58-.4,1.2-.87,2.4-1.42,3.59s-1.13,2.36-1.75,3.49c.28,1.41,.65,2.52,1.12,3.33s1.03,1.21,1.68,1.21c.44,0,.87-.18,1.28-.53,.41-.35,.79-.76,1.13-1.24,.34-.48,.65-.96,.91-1.46,.26-.49,.46-.89,.61-1.19,.06-.11,.13-.2,.23-.26,.1-.06,.21-.09,.33-.09,.19,0,.34,.07,.46,.2,.12,.13,.18,.28,.18,.45,0,.07-.02,.16-.07,.27Zm-8.35-6.7c0,.71,.02,1.4,.05,2.05,.03,.66,.08,1.28,.13,1.88,.47-.9,.91-1.86,1.33-2.88,.42-1.02,.79-2.04,1.12-3.08,.32-1.04,.58-2.07,.78-3.1,.19-1.03,.29-2.01,.29-2.94,0-1.31-.11-2.25-.32-2.82-.21-.57-.49-.85-.85-.85-.23,0-.46,.16-.68,.48s-.42,.76-.61,1.32c-.19,.56-.36,1.21-.52,1.97s-.29,1.57-.39,2.43c-.11,.87-.19,1.77-.25,2.72s-.09,1.88-.09,2.82Z"/><path d="M133.78,151.1c-.04,.09-.14,.27-.28,.56-.14,.28-.32,.61-.53,.97-.22,.37-.47,.75-.76,1.15-.29,.4-.61,.77-.97,1.1-.36,.33-.74,.61-1.15,.83-.41,.22-.85,.33-1.3,.33-.64,0-1.19-.21-1.63-.62-.44-.41-.76-.93-.96-1.55-.38,.63-.83,1.14-1.35,1.51s-1.04,.56-1.57,.56c-.41,0-.78-.08-1.12-.23-.33-.15-.62-.36-.85-.63s-.41-.59-.54-.96c-.13-.37-.19-.77-.19-1.2,0-.87,.15-1.63,.44-2.29,.29-.66,.67-1.21,1.13-1.66,.46-.44,.96-.78,1.51-1s1.08-.33,1.59-.33c.34,0,.66,.05,.95,.14,.29,.09,.54,.2,.74,.31,.21,.11,.36,.21,.48,.31,.11,.09,.17,.15,.18,.16,.12,.14,.18,.29,.18,.45,0,.17-.06,.31-.18,.44-.12,.13-.27,.19-.43,.19-.18,0-.33-.06-.45-.18-.02-.02-.07-.06-.15-.12-.08-.06-.18-.12-.32-.19s-.29-.12-.48-.17c-.18-.05-.39-.08-.63-.08-.34,0-.71,.08-1.1,.23s-.74,.4-1.07,.73c-.32,.33-.59,.74-.81,1.23-.22,.5-.33,1.08-.33,1.76,0,.21,.02,.43,.07,.64,.04,.22,.12,.42,.23,.59,.11,.18,.26,.32,.45,.43,.19,.11,.42,.17,.7,.17,.2,0,.43-.07,.69-.2,.26-.13,.51-.34,.75-.62,.24-.28,.46-.63,.65-1.05,.19-.42,.33-.92,.41-1.5,.02-.16,.09-.29,.22-.39,.12-.11,.27-.16,.43-.16,.16,0,.29,.06,.41,.18s.18,.26,.19,.42c.01,.21,.03,.51,.07,.89,.03,.38,.11,.76,.23,1.14s.29,.71,.53,.98c.23,.28,.56,.42,.97,.42,.27,0,.53-.07,.79-.22s.52-.34,.77-.58,.49-.51,.72-.82c.23-.31,.44-.61,.62-.92,.19-.31,.36-.61,.5-.9s.27-.54,.37-.75c.06-.12,.14-.22,.24-.28,.11-.07,.22-.1,.34-.1,.19,0,.34,.07,.46,.21,.12,.14,.17,.29,.17,.44,0,.08-.02,.16-.05,.23Z"/><path d="M141.43,156.57c.82-.37,1.57-.79,2.24-1.27s1.27-.98,1.8-1.51,.98-1.07,1.35-1.62c.37-.55,.67-1.08,.89-1.58,.1-.24,.29-.37,.57-.37,.19,0,.34,.06,.46,.19,.12,.13,.18,.27,.18,.42,0,.09-.02,.17-.05,.25-.24,.54-.55,1.11-.93,1.69-.38,.58-.84,1.16-1.38,1.72s-1.17,1.1-1.89,1.63-1.55,1-2.48,1.43c.6,.62,1.12,1.31,1.57,2.08,.44,.76,.81,1.55,1.11,2.38,.29,.82,.52,1.65,.67,2.49,.15,.84,.23,1.64,.23,2.41,0,.7-.06,1.36-.19,1.98-.13,.62-.32,1.15-.57,1.61-.25,.46-.55,.81-.91,1.08-.36,.26-.76,.39-1.22,.39-.67,0-1.18-.25-1.55-.74-.37-.5-.64-1.18-.81-2.05-.17-.87-.27-1.9-.3-3.08-.03-1.18-.04-2.47-.04-3.86v-2.41c0-.92,0-1.9,0-2.95,0-1.05,.01-2.15,.02-3.3,0-1.15,.01-2.3,.02-3.46,.01-1.16,.02-2.29,.03-3.41,.01-1.12,.03-2.18,.05-3.18,.03-1.91,.1-3.62,.2-5.12,.1-1.5,.26-2.77,.48-3.8,.22-1.03,.53-1.82,.91-2.36,.38-.54,.87-.81,1.46-.81,.47,0,.86,.13,1.18,.39,.32,.26,.58,.61,.78,1.05s.34,.95,.43,1.54c.09,.59,.13,1.21,.13,1.85,0,1.36-.12,2.67-.35,3.94-.23,1.27-.55,2.5-.95,3.68-.4,1.19-.87,2.35-1.41,3.48s-1.11,2.25-1.73,3.35v3.06c0,.53,0,1.03,0,1.52,0,.48,0,.9,0,1.26Zm0,2.05c0,.7,0,1.35,0,1.96,0,.61,0,1.16,0,1.66,0,1.03,0,2.06,.02,3.07,.01,1.01,.06,1.92,.16,2.73,.09,.81,.24,1.46,.43,1.95,.19,.49,.47,.74,.84,.74,.33,0,.61-.15,.82-.45,.21-.3,.38-.66,.49-1.07,.12-.41,.2-.83,.24-1.26,.04-.43,.07-.78,.07-1.04,0-.68-.06-1.39-.19-2.13-.13-.75-.32-1.48-.58-2.21-.26-.73-.58-1.43-.96-2.11-.38-.68-.82-1.29-1.32-1.83Zm.05-10.45c.46-.86,.88-1.76,1.26-2.71s.71-1.93,.99-2.94c.28-1.01,.49-2.04,.65-3.1,.16-1.06,.23-2.12,.23-3.18,0-.53-.03-1.02-.08-1.45s-.13-.8-.23-1.11c-.11-.31-.24-.54-.4-.72-.16-.17-.35-.26-.56-.26-.22,0-.42,.13-.58,.4-.17,.27-.31,.62-.43,1.07-.12,.44-.23,.96-.31,1.53-.08,.58-.15,1.18-.21,1.81s-.1,1.26-.13,1.88-.06,1.22-.08,1.77c-.02,.55-.03,1.04-.03,1.46,0,.42,0,.74,0,.95-.01,.45-.02,.84-.02,1.18,0,.34-.01,.68-.03,1.02-.01,.33-.02,.69-.02,1.07,0,.38,0,.82,0,1.33Z"/><path d="M160.6,151.1c-.04,.09-.14,.27-.27,.56-.14,.28-.32,.61-.53,.97-.22,.37-.47,.75-.76,1.15-.29,.4-.61,.77-.97,1.1-.36,.33-.74,.61-1.15,.83s-.84,.33-1.3,.33c-.65,0-1.19-.21-1.63-.62-.44-.41-.76-.93-.96-1.55-.38,.63-.83,1.14-1.35,1.51s-1.04,.56-1.57,.56c-.41,0-.78-.08-1.12-.23-.33-.15-.62-.36-.85-.63s-.41-.59-.54-.96c-.13-.37-.19-.77-.19-1.2,0-.87,.15-1.63,.44-2.29,.29-.66,.67-1.21,1.12-1.66,.46-.44,.96-.78,1.51-1,.55-.22,1.08-.33,1.59-.33,.34,0,.66,.05,.95,.14,.29,.09,.54,.2,.74,.31,.21,.11,.36,.21,.48,.31,.11,.09,.17,.15,.18,.16,.12,.14,.18,.29,.18,.45,0,.17-.06,.31-.18,.44s-.27,.19-.43,.19c-.18,0-.33-.06-.45-.18-.02-.02-.07-.06-.15-.12-.08-.06-.18-.12-.32-.19-.13-.07-.29-.12-.47-.17-.18-.05-.39-.08-.62-.08-.34,0-.71,.08-1.1,.23-.39,.16-.75,.4-1.07,.73-.32,.33-.59,.74-.81,1.23-.22,.5-.33,1.08-.33,1.76,0,.21,.02,.43,.07,.64,.04,.22,.12,.42,.23,.59s.26,.32,.45,.43c.19,.11,.42,.17,.7,.17,.2,0,.43-.07,.69-.2,.26-.13,.51-.34,.75-.62,.24-.28,.46-.63,.65-1.05,.19-.42,.33-.92,.41-1.5,.02-.16,.09-.29,.22-.39,.12-.11,.27-.16,.43-.16,.16,0,.29,.06,.41,.18,.12,.12,.18,.26,.19,.42,.01,.21,.03,.51,.07,.89s.11,.76,.23,1.14c.12,.38,.29,.71,.53,.98,.23,.28,.56,.42,.97,.42,.27,0,.53-.07,.79-.22,.26-.14,.52-.34,.77-.58s.49-.51,.72-.82,.44-.61,.63-.92c.19-.31,.36-.61,.5-.9s.27-.54,.37-.75c.06-.12,.14-.22,.24-.28s.22-.1,.34-.1c.19,0,.34,.07,.46,.21,.12,.14,.18,.29,.18,.44,0,.08-.02,.16-.05,.23Z"/><path d="M163.3,154.27c.17-.33,.38-.75,.64-1.24,.26-.5,.53-.99,.82-1.49,.28-.5,.56-.97,.83-1.42,.27-.44,.5-.78,.69-1.02,.32-.39,.66-.67,1-.83s.66-.25,.95-.25,.54,.06,.74,.18,.38,.29,.51,.49c.13,.21,.23,.45,.3,.72,.07,.27,.1,.56,.1,.88,0,.18,0,.41-.03,.7s-.03,.6-.05,.93c-.02,.33-.03,.68-.05,1.03s-.03,.69-.04,1c.17-.33,.36-.7,.57-1.11,.21-.41,.43-.81,.64-1.21s.42-.78,.62-1.13c.2-.35,.38-.64,.55-.86,.48-.66,.93-1.09,1.34-1.32,.42-.22,.79-.33,1.11-.33,.38,0,.69,.07,.93,.21,.25,.14,.44,.32,.58,.53,.14,.22,.24,.46,.29,.72,.06,.27,.08,.52,.08,.77,0,.38-.03,.77-.08,1.18s-.08,.9-.08,1.47c0,.23,.01,.47,.03,.7s.07,.44,.14,.62,.19,.32,.34,.43,.37,.17,.63,.17c.29,0,.57-.08,.85-.23,.28-.15,.54-.35,.8-.59,.26-.24,.5-.52,.73-.83,.23-.31,.44-.62,.62-.93,.19-.31,.36-.61,.5-.89s.26-.53,.35-.73c.06-.12,.13-.22,.23-.28,.1-.07,.21-.1,.33-.1,.19,0,.34,.07,.46,.21,.12,.14,.17,.29,.17,.44,0,.08-.02,.16-.05,.23-.04,.09-.13,.27-.27,.56-.13,.28-.31,.61-.53,.97s-.48,.74-.78,1.14c-.29,.4-.62,.77-.97,1.11-.36,.34-.74,.62-1.15,.83-.41,.22-.85,.33-1.3,.33-.49,0-.89-.09-1.19-.26-.31-.17-.55-.4-.73-.69s-.31-.62-.38-1c-.07-.38-.1-.77-.1-1.18,0-.54,.03-1.05,.08-1.51,.05-.46,.08-.82,.08-1.08,0-.28-.03-.49-.08-.63-.05-.14-.11-.25-.18-.31-.07-.06-.14-.09-.21-.1s-.12,0-.15,0c-.27,0-.55,.15-.84,.44s-.6,.69-.91,1.18c-.31,.49-.63,1.04-.96,1.67-.33,.62-.66,1.26-.99,1.9-.19,.36-.35,.65-.48,.88s-.25,.42-.37,.55c-.12,.13-.23,.23-.34,.28-.11,.06-.23,.08-.37,.08-.29,0-.51-.1-.66-.3-.15-.2-.23-.46-.23-.78,0-.17,0-.39,.02-.67,.01-.28,.02-.58,.03-.92,.01-.33,.03-.68,.05-1.03,.02-.36,.04-.7,.05-1.03,.01-.33,.02-.62,.03-.88s.02-.45,.02-.58c0-.29-.05-.5-.15-.62-.1-.13-.22-.19-.35-.19-.12,0-.26,.04-.41,.13-.15,.09-.33,.26-.53,.52-.16,.2-.35,.49-.59,.88-.24,.38-.49,.81-.76,1.28s-.53,.94-.79,1.43c-.26,.49-.49,.93-.68,1.32-.23,.47-.47,.79-.7,.96-.23,.17-.46,.26-.68,.26-.32,0-.56-.1-.72-.29-.16-.19-.23-.45-.23-.78,0-.03,0-.23,.03-.6,.02-.37,.04-.81,.06-1.34,.02-.53,.05-1.09,.07-1.69,.03-.6,.05-1.16,.08-1.68,.01-.28,0-.53-.03-.77s-.08-.37-.13-.42c-.09,.02-.26,.23-.53,.62-.26,.39-.59,1.07-.99,2.03-.06,.12-.14,.22-.25,.28-.11,.07-.23,.1-.35,.1-.19,0-.34-.06-.45-.19s-.17-.28-.17-.44c0-.08,.02-.16,.05-.25,.5-1.19,.98-2.06,1.43-2.63,.46-.56,.9-.84,1.33-.84,.26,0,.47,.06,.64,.17,.17,.12,.31,.27,.41,.45,.1,.18,.17,.39,.22,.63,.04,.23,.07,.46,.07,.68,0,.99-.03,1.89-.08,2.72-.05,.82-.1,1.65-.16,2.48Z"/><path d="M184,142.66c0,.42-.15,.78-.44,1.08s-.65,.44-1.08,.44-.78-.15-1.08-.44-.44-.65-.44-1.08c0-.21,.04-.41,.12-.59,.08-.18,.19-.34,.33-.48s.3-.25,.48-.33c.18-.08,.38-.12,.59-.12s.41,.04,.59,.12c.18,.08,.34,.19,.48,.33,.14,.14,.25,.3,.33,.48,.08,.18,.12,.38,.12,.59Zm-2.7,9.77c0-1.6,.1-3.2,.3-4.79,.02-.16,.09-.29,.21-.41s.27-.17,.46-.17c.17,0,.31,.06,.42,.19s.17,.28,.17,.44c0,.07-.01,.27-.04,.6-.03,.33-.06,.73-.1,1.19-.04,.46-.07,.95-.1,1.47-.03,.52-.04,.99-.04,1.43,0,.59,.06,1.06,.18,1.43,.12,.36,.27,.64,.45,.84,.18,.2,.38,.33,.58,.4s.4,.1,.59,.1c.31,0,.63-.11,.97-.33,.33-.22,.67-.53,1.03-.93,.35-.4,.7-.88,1.06-1.44,.36-.56,.71-1.19,1.05-1.88,.06-.11,.13-.2,.23-.26,.1-.06,.21-.09,.33-.09,.18,0,.33,.07,.44,.2,.12,.13,.18,.28,.18,.43,0,.11-.02,.21-.07,.28-.13,.26-.3,.57-.5,.93-.2,.37-.43,.74-.68,1.13-.26,.39-.54,.78-.84,1.16-.31,.38-.63,.73-.98,1.03s-.71,.55-1.08,.74c-.38,.19-.76,.28-1.15,.28-.5,0-.94-.11-1.32-.32-.38-.21-.7-.5-.96-.85-.26-.36-.46-.78-.58-1.26s-.19-1-.19-1.56Zm1.77-9.77c0-.16-.06-.29-.18-.41s-.25-.17-.41-.17-.29,.06-.4,.17c-.11,.12-.17,.25-.17,.41s.05,.29,.17,.4c.11,.11,.25,.17,.4,.17s.29-.06,.41-.17c.12-.11,.18-.24,.18-.4Z"/><path d="M197.93,151.13c-.12,.26-.28,.56-.46,.91-.18,.35-.39,.71-.62,1.09-.23,.38-.5,.75-.78,1.13s-.6,.71-.94,1c-.34,.29-.7,.53-1.08,.72-.38,.18-.79,.28-1.23,.28-.67,0-1.24-.21-1.72-.62-.48-.41-.88-.95-1.22-1.62-.33-.67-.6-1.42-.81-2.28s-.36-1.72-.48-2.6c-.11-.88-.19-1.74-.22-2.58-.04-.83-.06-1.57-.06-2.22,0-.93,.03-1.9,.09-2.9s.16-1.98,.29-2.93c.13-.96,.3-1.86,.51-2.72,.21-.86,.45-1.61,.73-2.25,.28-.64,.61-1.16,.98-1.53,.37-.38,.78-.57,1.25-.57,.37,0,.7,.09,.99,.26,.29,.17,.54,.45,.74,.84,.2,.39,.36,.89,.47,1.52,.11,.62,.17,1.38,.17,2.28,0,1.11-.12,2.26-.35,3.44-.23,1.18-.55,2.38-.95,3.58-.4,1.2-.87,2.4-1.42,3.59-.54,1.2-1.13,2.36-1.75,3.49,.28,1.41,.65,2.52,1.12,3.33s1.03,1.21,1.68,1.21c.44,0,.87-.18,1.28-.53,.41-.35,.79-.76,1.13-1.24s.65-.96,.91-1.46c.26-.49,.46-.89,.61-1.19,.05-.11,.13-.2,.23-.26,.1-.06,.21-.09,.33-.09,.19,0,.34,.07,.46,.2,.12,.13,.17,.28,.17,.45,0,.07-.02,.16-.07,.27Zm-8.35-6.7c0,.71,.02,1.4,.05,2.05,.03,.66,.08,1.28,.13,1.88,.47-.9,.91-1.86,1.33-2.88,.42-1.02,.79-2.04,1.12-3.08s.58-2.07,.78-3.1,.29-2.01,.29-2.94c0-1.31-.11-2.25-.32-2.82-.21-.57-.5-.85-.85-.85-.23,0-.46,.16-.68,.48s-.42,.76-.61,1.32c-.19,.56-.36,1.21-.52,1.97-.16,.76-.29,1.57-.39,2.43-.11,.87-.19,1.77-.25,2.72-.06,.94-.09,1.88-.09,2.82Z"/><path d="M199.52,142.66c0,.42-.15,.78-.44,1.08s-.65,.44-1.08,.44-.78-.15-1.08-.44-.44-.65-.44-1.08c0-.21,.04-.41,.12-.59,.08-.18,.19-.34,.33-.48s.3-.25,.48-.33c.18-.08,.38-.12,.59-.12s.41,.04,.59,.12c.18,.08,.34,.19,.48,.33,.14,.14,.25,.3,.33,.48,.08,.18,.12,.38,.12,.59Zm-2.7,9.77c0-1.6,.1-3.2,.3-4.79,.02-.16,.09-.29,.21-.41s.27-.17,.46-.17c.17,0,.31,.06,.42,.19s.17,.28,.17,.44c0,.07-.01,.27-.04,.6-.03,.33-.06,.73-.1,1.19-.04,.46-.07,.95-.1,1.47-.03,.52-.04,.99-.04,1.43,0,.59,.06,1.06,.18,1.43,.12,.36,.27,.64,.45,.84,.18,.2,.38,.33,.58,.4s.4,.1,.59,.1c.31,0,.63-.11,.97-.33,.33-.22,.67-.53,1.03-.93,.35-.4,.7-.88,1.06-1.44,.36-.56,.71-1.19,1.05-1.88,.06-.11,.13-.2,.23-.26,.1-.06,.21-.09,.33-.09,.18,0,.33,.07,.44,.2,.12,.13,.18,.28,.18,.43,0,.11-.02,.21-.07,.28-.13,.26-.3,.57-.5,.93-.2,.37-.43,.74-.68,1.13-.26,.39-.54,.78-.84,1.16-.31,.38-.63,.73-.98,1.03s-.71,.55-1.08,.74c-.38,.19-.76,.28-1.15,.28-.5,0-.94-.11-1.32-.32-.38-.21-.7-.5-.96-.85-.26-.36-.46-.78-.58-1.26s-.19-1-.19-1.56Zm1.77-9.77c0-.16-.06-.29-.18-.41s-.25-.17-.41-.17-.29,.06-.4,.17c-.11,.12-.17,.25-.17,.41s.05,.29,.17,.4c.11,.11,.25,.17,.4,.17s.29-.06,.41-.17c.12-.11,.18-.24,.18-.4Z"/><path d="M216.86,151.1c-.04,.09-.14,.27-.27,.56-.14,.28-.32,.61-.53,.97-.22,.37-.47,.75-.76,1.15-.29,.4-.61,.77-.97,1.1-.36,.33-.74,.61-1.15,.83s-.84,.33-1.3,.33c-.65,0-1.19-.21-1.63-.62-.44-.41-.76-.93-.96-1.55-.38,.63-.83,1.14-1.35,1.51s-1.04,.56-1.57,.56c-.41,0-.78-.08-1.12-.23-.33-.15-.62-.36-.85-.63s-.41-.59-.54-.96c-.13-.37-.19-.77-.19-1.2,0-.87,.15-1.63,.44-2.29,.29-.66,.67-1.21,1.12-1.66,.46-.44,.96-.78,1.51-1,.55-.22,1.08-.33,1.59-.33,.34,0,.66,.05,.95,.14,.29,.09,.54,.2,.74,.31,.21,.11,.36,.21,.48,.31,.11,.09,.17,.15,.18,.16,.12,.14,.18,.29,.18,.45,0,.17-.06,.31-.18,.44s-.27,.19-.43,.19c-.18,0-.33-.06-.45-.18-.02-.02-.07-.06-.15-.12-.08-.06-.18-.12-.32-.19-.13-.07-.29-.12-.47-.17-.18-.05-.39-.08-.62-.08-.34,0-.71,.08-1.1,.23-.39,.16-.75,.4-1.07,.73-.32,.33-.59,.74-.81,1.23-.22,.5-.33,1.08-.33,1.76,0,.21,.02,.43,.07,.64,.04,.22,.12,.42,.23,.59s.26,.32,.45,.43c.19,.11,.42,.17,.7,.17,.2,0,.43-.07,.69-.2,.26-.13,.51-.34,.75-.62,.24-.28,.46-.63,.65-1.05,.19-.42,.33-.92,.41-1.5,.02-.16,.09-.29,.22-.39,.12-.11,.27-.16,.43-.16,.16,0,.29,.06,.41,.18,.12,.12,.18,.26,.19,.42,.01,.21,.03,.51,.07,.89s.11,.76,.23,1.14c.12,.38,.29,.71,.53,.98,.23,.28,.56,.42,.97,.42,.27,0,.53-.07,.79-.22,.26-.14,.52-.34,.77-.58s.49-.51,.72-.82,.44-.61,.63-.92c.19-.31,.36-.61,.5-.9s.27-.54,.37-.75c.06-.12,.14-.22,.24-.28s.22-.1,.34-.1c.19,0,.34,.07,.46,.21,.12,.14,.18,.29,.18,.44,0,.08-.02,.16-.05,.23Z"/></g><rect class="e" x="69.06" y="208.38" width="134.05" height="22.9" rx="11.45" ry="11.45"/><g><path class="d" d="M100.98,220.58c.03-.36,.12-.52,.48-.52h1.33c.36,0,.47,.15,.5,.51l.29,2.94,.02,4.5c0,.36-.14,.52-.5,.52h-1.89c-.36,0-.49-.15-.49-.51l-.02-4.5,.27-2.94Zm-.25-3.3c0-.36,.12-.5,.48-.5h1.87c.36,0,.5,.13,.5,.49v1.44c0,.36-.13,.52-.5,.52h-1.87c-.36,0-.49-.15-.49-.51v-1.44Z"/><path class="d" d="M113.81,222.56c0,1.49-.99,2.96-4.25,2.97-3.25,.01-4.26-1.46-4.27-2.94l-.02-6.13c0-1.49,.99-2.96,4.25-2.97,3.25-.01,4.26,1.46,4.27,2.94v.8c0,.36-.12,.52-.48,.52h-1.78c-.36,0-.5-.15-.5-.51v-.29c0-.8-.61-1.12-1.46-1.12-.85,0-1.44,.33-1.43,1.13l.02,5.12c0,.8,.59,1.12,1.44,1.12,.85,0,1.45-.33,1.45-1.13v-.55c0-.36,.13-.52,.5-.52h1.78c.36,0,.48,.15,.49,.51v1.06Z"/><path class="d" d="M118.02,224.85c0,.36-.12,.52-.48,.52h-1.78c-.36,0-.5-.15-.5-.51l-.04-11.06c0-.36,.14-.52,.5-.52h1.78c.36,0,.48,.15,.49,.51l.04,11.06Z"/><path class="d" d="M122.45,215.21c0,.36-.12,.5-.48,.5h-1.78c-.36,0-.5-.13-.5-.49v-1.44c0-.36,.13-.52,.5-.52h1.78c.36,0,.48,.15,.49,.51v1.44Zm.04,9.62c0,.36-.12,.52-.48,.52h-1.78c-.36,0-.5-.15-.5-.51l-.03-7.61c0-.36,.14-.52,.5-.52h1.78c.36,0,.48,.15,.49,.51l.03,7.61Z"/><path class="d" d="M131.51,219.23v.26c0,.36-.14,.5-.5,.5h-1.64c-.36,0-.5-.13-.5-.5v-.05c0-.57-.31-.74-1.04-.74-.73,0-1.04,.18-1.04,.75v3.1c.01,.57,.32,.76,1.05,.76,.73,0,1.04-.19,1.04-.77v-.21c0-.36,.14-.5,.5-.5h1.64c.36,0,.5,.13,.5,.5v.43c0,1.64-1.13,2.7-3.74,2.71-2.61,0-3.74-1.04-3.75-2.69v-3.53c-.02-1.64,1.12-2.7,3.73-2.71s3.74,1.04,3.75,2.69Z"/><path class="d" d="M135.97,219.13c0-1.64,1.12-2.62,3.66-2.62,2.61,0,3.65,.96,3.66,2.6l.02,5.66c0,.36-.14,.52-.5,.52h-1.59c-.38,0-.45-.15-.5-.51l-.04-.26c-.5,.42-1.29,.92-2.42,.92-1.75,0-2.55-1.06-2.55-2.21v-.74c0-1.18,.96-2.24,2.76-2.24h2.11v-.96c0-.54-.27-.79-.99-.79-.73,0-1.04,.18-1.04,.71v.12c0,.36-.14,.5-.5,.5h-1.57c-.36,0-.5-.13-.5-.5v-.21Zm4.61,3.51v-.57h-1.59c-.5,0-.59,.29-.59,.54v.22c0,.4,.33,.45,.59,.45,.59,0,1.19-.37,1.59-.65Z"/><path class="d" d="M150.08,217.13c.03-.36,.14-.52,.5-.52h1.66c.36,0,.5,.15,.5,.51l.04,11.06c0,.36-.14,.52-.5,.52h-1.78c-.36,0-.48-.15-.49-.51v-3.67c-.51,.37-1.32,.89-2.6,.89-1.75,0-2.56-1.01-2.57-2.66v-3.6c-.02-1.64,.79-2.67,2.54-2.67,1.35,0,2.18,.58,2.67,.94l.03-.29Zm-2.47,5.18c0,.35,.02,.73,.68,.72s1.35-.45,1.71-.71v-2.77c-.37-.26-1.07-.71-1.73-.7s-.67,.38-.67,.73v2.73Z"/><path class="d" d="M159.53,224.45c-.45,.38-1.23,.92-2.58,.93-1.57,0-2.55-1-2.55-2.4l-.02-5.87c0-.36,.14-.52,.5-.52h1.75c.36,0,.52,.15,.52,.51l.02,5.16c0,.54,.11,.74,.66,.74,.66,0,1.3-.42,1.62-.68l-.02-5.23c0-.36,.12-.52,.48-.52h1.78c.36,0,.5,.15,.5,.51l.03,7.63c0,.36-.14,.5-.5,.5h-1.66c-.36,0-.45-.13-.5-.5l-.04-.28Z"/><path class="d" d="M166.69,224.68c0,.36-.12,.52-.48,.52h-1.78c-.36,0-.5-.15-.5-.51l-.03-7.61c0-.36,.14-.52,.5-.52h1.78c.36,0,.49,.15,.49,.51l.03,7.61Zm-.15-9.46c-.1,.16-.31,.35-.67,.35h-1.37c-.31,0-.43-.13-.28-.5l.69-1.59c.14-.31,.34-.52,.71-.52h1.85c.36,0,.47,.22,.26,.51l-1.19,1.75Z"/><path class="d" d="M171.06,221.38c-.03,.36-.12,.52-.48,.52h-1.33c-.36,0-.47-.15-.5-.51l-.29-2.94-.02-4.5c0-.36,.14-.52,.5-.52h1.89c.36,0,.48,.15,.49,.51l.02,4.5-.27,2.94Zm.25,3.3c0,.36-.12,.5-.48,.5h-1.87c-.36,0-.5-.13-.5-.49v-1.44c0-.36,.13-.52,.5-.52h1.87c.36,0,.48,.15,.49,.51v1.44Z"/></g></g></g></svg>