<?xml version="1.0" encoding="UTF-8"?><svg xmlns="http://www.w3.org/2000/svg" viewBox="0 0 408.97 408.97"><defs><style>.d{fill:#fff;}.e{fill:#ff5027;}</style></defs><g id="a"/><g id="b"><g id="c"><circle class="d" cx="204.49" cy="204.49" r="204.49"/><g><path class="e" d="M79.33,137.49h-10.36c-3.54,0-6.17-.71-7.88-2.12-1.71-1.42-2.57-3.6-2.57-6.54v-13.21c0-2.94,.86-5.13,2.57-6.56,1.71-1.43,4.34-2.15,7.88-2.15h10.36c.54,0,.93,.12,1.17,.36,.24,.24,.36,.63,.36,1.17v5.14c0,.54-.12,.93-.36,1.17-.24,.24-.63,.36-1.17,.36h-8.54c-.88,0-1.53,.18-1.95,.53-.42,.35-.64,.89-.64,1.59v10.11c0,.71,.21,1.23,.64,1.55,.42,.33,1.08,.49,1.95,.49h8.54c.54,0,.93,.12,1.17,.36,.24,.24,.36,.63,.36,1.17v5.05c0,.54-.12,.93-.36,1.17s-.63,.36-1.17,.36Z"/><path class="e" d="M106.9,137.49h-19.71c-.54,0-.93-.12-1.17-.36-.24-.24-.36-.63-.36-1.17v-27.52c0-.54,.12-.93,.36-1.17,.24-.24,.63-.36,1.17-.36h19.71c.54,0,.93,.12,1.17,.36,.24,.24,.36,.63,.36,1.17v4.97c0,.54-.12,.93-.36,1.17-.24,.24-.63,.36-1.17,.36h-11.72v3.27h8.28c.54,0,.93,.12,1.17,.36,.24,.24,.36,.63,.36,1.17v4.54c0,.54-.12,.93-.36,1.17-.24,.24-.63,.36-1.17,.36h-8.28v3.65h11.72c.54,0,.93,.12,1.17,.36,.24,.24,.36,.63,.36,1.17v4.97c0,.54-.12,.93-.36,1.17s-.63,.36-1.17,.36Z"/><path class="e" d="M136.59,137.49h-21.62c-.54,0-.93-.12-1.17-.36-.24-.24-.36-.63-.36-1.17v-27.52c0-.54,.12-.93,.36-1.17,.24-.24,.63-.36,1.17-.36h6.58c.54,0,.93,.12,1.17,.36,.24,.24,.36,.63,.36,1.17v21.03h5.82v-6.88c0-.54,.12-.93,.36-1.17,.24-.24,.63-.36,1.17-.36h6.16c.54,0,.93,.12,1.17,.36,.24,.24,.36,.63,.36,1.17v13.38c0,.54-.12,.93-.36,1.17-.24,.24-.63,.36-1.17,.36Z"/><path class="e" d="M164.2,137.49h-19.71c-.54,0-.93-.12-1.17-.36-.24-.24-.36-.63-.36-1.17v-27.52c0-.54,.12-.93,.36-1.17,.24-.24,.63-.36,1.17-.36h19.71c.54,0,.93,.12,1.17,.36,.24,.24,.36,.63,.36,1.17v4.97c0,.54-.12,.93-.36,1.17-.24,.24-.63,.36-1.17,.36h-11.72v3.27h8.28c.54,0,.93,.12,1.17,.36,.24,.24,.36,.63,.36,1.17v4.54c0,.54-.12,.93-.36,1.17-.24,.24-.63,.36-1.17,.36h-8.28v3.65h11.72c.54,0,.93,.12,1.17,.36,.24,.24,.36,.63,.36,1.17v4.97c0,.54-.12,.93-.36,1.17s-.63,.36-1.17,.36Z"/><path class="e" d="M188.58,137.49h-16.31c-.54,0-.93-.12-1.17-.36-.24-.24-.36-.63-.36-1.17v-27.52c0-.54,.12-.93,.36-1.17,.24-.24,.63-.36,1.17-.36h13.55c2.77,0,4.83,.53,6.16,1.59,1.33,1.06,2,2.7,2,4.91v2.04c0,1.19-.21,2.16-.62,2.91-.41,.75-1.04,1.31-1.89,1.68,1.81,.17,3.16,.79,4.04,1.87,.88,1.08,1.32,2.65,1.32,4.71v3.91c0,2.38-.67,4.14-2.02,5.27-1.35,1.13-3.42,1.7-6.22,1.7Zm-8.28-23.36v4.59h3.61c.54,0,.94-.14,1.21-.42,.27-.28,.4-.71,.4-1.27v-1.19c0-.57-.13-.99-.4-1.27-.27-.28-.67-.42-1.21-.42h-3.61Zm0,11.13v5.01h5.52c.54,0,.94-.14,1.21-.42,.27-.28,.4-.71,.4-1.27v-1.66c0-.57-.13-.98-.4-1.25-.27-.27-.67-.4-1.21-.4h-5.52Z"/><path class="e" d="M209.6,137.49h-6.54c-.54,0-.93-.12-1.17-.36-.24-.24-.36-.63-.36-1.17v-27.52c0-.54,.12-.93,.36-1.17,.24-.24,.63-.36,1.17-.36h14.14c3.17,0,5.36,.66,6.56,1.98,1.2,1.32,1.81,3.02,1.81,5.12v1.95c0,1.19-.18,2.2-.53,3.04-.36,.84-.97,1.44-1.85,1.81,1.53,.17,2.77,.79,3.72,1.87,.95,1.08,1.42,2.51,1.42,4.29v9c0,.54-.12,.93-.36,1.17-.24,.24-.63,.36-1.17,.36h-6.58c-.54,0-.93-.12-1.17-.36-.24-.24-.36-.63-.36-1.17v-6.5c0-.62-.12-1.08-.36-1.38-.24-.3-.66-.45-1.25-.45h-5.95v8.33c0,.54-.12,.93-.36,1.17-.24,.24-.63,.36-1.17,.36Zm1.53-22.94v5.44h3.19c.74,0,1.23-.19,1.49-.57,.25-.38,.38-.86,.38-1.42v-1.44c0-.57-.13-1.04-.38-1.42-.26-.38-.75-.57-1.49-.57h-3.19Z"/><path class="e" d="M254.33,137.49h-19.71c-.54,0-.93-.12-1.17-.36-.24-.24-.36-.63-.36-1.17v-27.52c0-.54,.12-.93,.36-1.17,.24-.24,.63-.36,1.17-.36h19.71c.54,0,.93,.12,1.17,.36,.24,.24,.36,.63,.36,1.17v4.97c0,.54-.12,.93-.36,1.17s-.63,.36-1.17,.36h-11.72v3.27h8.28c.54,0,.93,.12,1.17,.36,.24,.24,.36,.63,.36,1.17v4.54c0,.54-.12,.93-.36,1.17-.24,.24-.63,.36-1.17,.36h-8.28v3.65h11.72c.54,0,.93,.12,1.17,.36,.24,.24,.36,.63,.36,1.17v4.97c0,.54-.12,.93-.36,1.17-.24,.24-.63,.36-1.17,.36Z"/><path class="e" d="M268.73,137.49h-6.33c-.54,0-.93-.12-1.17-.36-.24-.24-.36-.63-.36-1.17v-27.52c0-.54,.12-.93,.36-1.17,.24-.24,.63-.36,1.17-.36h6.84c.45,0,.83,.1,1.12,.3,.3,.2,.57,.52,.83,.98l3.82,6.92c.14,.25,.26,.44,.36,.55,.1,.11,.23,.17,.4,.17h.38c.17,0,.3-.06,.4-.17,.1-.11,.22-.3,.36-.55l3.78-6.92c.25-.45,.53-.78,.83-.98,.3-.2,.67-.3,1.12-.3h6.88c.54,0,.93,.12,1.17,.36,.24,.24,.36,.63,.36,1.17v27.52c0,.54-.12,.93-.36,1.17-.24,.24-.63,.36-1.17,.36h-6.54c-.54,0-.93-.12-1.17-.36-.24-.24-.36-.63-.36-1.17v-14.95l-2.51,4.63c-.25,.48-.56,.83-.91,1.04-.35,.21-.8,.32-1.34,.32h-1.7c-.54,0-.98-.11-1.34-.32-.35-.21-.66-.56-.91-1.04l-2.51-4.63v14.95c0,.54-.12,.93-.36,1.17-.24,.24-.63,.36-1.17,.36Z"/><path class="e" d="M322.84,129.46c0,1.3-.19,2.48-.57,3.55-.38,1.06-1.06,1.97-2.04,2.72-.98,.75-2.32,1.34-4.04,1.76s-3.89,.64-6.52,.64-4.81-.21-6.54-.64c-1.73-.42-3.08-1.01-4.06-1.76-.98-.75-1.66-1.66-2.04-2.72-.38-1.06-.57-2.24-.57-3.55v-14.48c0-1.3,.19-2.48,.57-3.55,.38-1.06,1.06-1.98,2.04-2.74,.98-.76,2.33-1.36,4.06-1.78,1.73-.42,3.91-.64,6.54-.64s4.81,.21,6.52,.64c1.71,.42,3.06,1.02,4.04,1.78,.98,.76,1.66,1.68,2.04,2.74,.38,1.06,.57,2.24,.57,3.55v14.48Zm-16.74-1.53c0,.57,.21,1.04,.64,1.42s1.4,.57,2.93,.57,2.51-.19,2.93-.57,.64-.86,.64-1.42v-11.43c0-.54-.21-1-.64-1.38s-1.4-.57-2.93-.57-2.51,.19-2.93,.57-.64,.84-.64,1.38v11.43Z"/><path class="e" d="M342.43,137.49h-13.42c-.54,0-.93-.12-1.17-.36-.24-.24-.36-.63-.36-1.17v-4.97c0-.54,.12-.93,.36-1.17s.63-.36,1.17-.36h11.43c.37,0,.64-.12,.83-.36,.18-.24,.28-.53,.28-.87,0-.48-.09-.83-.28-1.06-.18-.23-.46-.35-.83-.38l-6.37-.89c-1.98-.28-3.58-.93-4.78-1.95-1.2-1.02-1.81-2.72-1.81-5.1v-4.46c0-2.41,.78-4.25,2.34-5.54,1.56-1.29,3.71-1.93,6.46-1.93h11.89c.54,0,.93,.12,1.17,.36,.24,.24,.36,.63,.36,1.17v5.05c0,.54-.12,.93-.36,1.17s-.63,.36-1.17,.36h-9.9c-.37,0-.65,.12-.85,.36-.2,.24-.3,.55-.3,.91s.1,.68,.3,.93,.48,.4,.85,.42l6.33,.85c1.98,.28,3.58,.93,4.8,1.95,1.22,1.02,1.83,2.72,1.83,5.1v4.46c0,2.41-.79,4.25-2.36,5.54-1.57,1.29-3.72,1.93-6.43,1.93Z"/></g><g><path class="e" d="M60.3,204.06h-6.88c-.54,0-.93-.12-1.17-.36-.24-.24-.36-.63-.36-1.17v-20.86h-6.24c-.54,0-.93-.12-1.17-.36-.24-.24-.36-.63-.36-1.17v-5.14c0-.54,.12-.93,.36-1.17s.63-.36,1.17-.36h22.43c.54,0,.93,.12,1.17,.36,.24,.24,.36,.63,.36,1.17v5.14c0,.54-.12,.93-.36,1.17-.24,.24-.63,.36-1.17,.36h-6.24v20.86c0,.54-.12,.93-.36,1.17s-.63,.36-1.17,.36Z"/><path class="e" d="M80.69,202.53c0,.54-.12,.93-.36,1.17-.24,.24-.63,.36-1.17,.36h-6.24c-.54,0-.93-.12-1.17-.36-.24-.24-.36-.63-.36-1.17v-11.21c0-.85,.13-1.83,.4-2.93,.27-1.1,.69-2.39,1.25-3.87l3.7-9.64c.17-.48,.43-.83,.79-1.06,.35-.23,.81-.34,1.38-.34h11.43c.54,0,.98,.11,1.34,.34,.35,.23,.62,.58,.79,1.06l3.7,9.64c.57,1.47,.98,2.76,1.25,3.87,.27,1.1,.4,2.08,.4,2.93v11.21c0,.54-.12,.93-.36,1.17-.24,.24-.63,.36-1.17,.36h-6.41c-.57,0-.98-.12-1.25-.36-.27-.24-.4-.63-.4-1.17v-5.95h-7.52v5.95Zm2.42-20.13l-2,6.46h6.67l-2-6.46c-.11-.25-.23-.44-.36-.55-.13-.11-.28-.17-.45-.17h-1.06c-.17,0-.32,.06-.45,.17-.13,.11-.25,.3-.36,.55Z"/><path class="e" d="M110.93,204.06h-6.37c-.54,0-.93-.12-1.17-.36-.24-.24-.36-.63-.36-1.17v-27.52c0-.54,.12-.93,.36-1.17,.24-.24,.63-.36,1.17-.36h4.42c.54,0,1,.08,1.38,.25s.76,.47,1.13,.89l8.24,9.43v-9.05c0-.54,.12-.93,.36-1.17s.63-.36,1.17-.36h6.37c.54,0,.93,.12,1.17,.36,.24,.24,.36,.63,.36,1.17v27.52c0,.54-.12,.93-.36,1.17-.24,.24-.63,.36-1.17,.36h-6.37c-.54,0-.93-.12-1.17-.36-.24-.24-.36-.63-.36-1.17v-5.22l-7.26-8.79v14.02c0,.54-.12,.93-.36,1.17-.24,.24-.63,.36-1.17,.36Z"/><path class="e" d="M165.81,204.06h-19.71c-.54,0-.93-.12-1.17-.36-.24-.24-.36-.63-.36-1.17v-27.52c0-.54,.12-.93,.36-1.17,.24-.24,.63-.36,1.17-.36h19.71c.54,0,.93,.12,1.17,.36,.24,.24,.36,.63,.36,1.17v4.97c0,.54-.12,.93-.36,1.17-.24,.24-.63,.36-1.17,.36h-11.72v3.27h8.28c.54,0,.93,.12,1.17,.36,.24,.24,.36,.63,.36,1.17v4.54c0,.54-.12,.93-.36,1.17-.24,.24-.63,.36-1.17,.36h-8.28v3.65h11.72c.54,0,.93,.12,1.17,.36,.24,.24,.36,.63,.36,1.17v4.97c0,.54-.12,.93-.36,1.17-.24,.24-.63,.36-1.17,.36Z"/><path class="e" d="M186.54,204.06h-13.42c-.54,0-.93-.12-1.17-.36-.24-.24-.36-.63-.36-1.17v-4.97c0-.54,.12-.93,.36-1.17,.24-.24,.63-.36,1.17-.36h11.43c.37,0,.64-.12,.83-.36,.18-.24,.28-.53,.28-.87,0-.48-.09-.83-.28-1.06-.18-.23-.46-.35-.83-.38l-6.37-.89c-1.98-.28-3.58-.93-4.78-1.95-1.2-1.02-1.81-2.72-1.81-5.1v-4.46c0-2.41,.78-4.25,2.34-5.54,1.56-1.29,3.71-1.93,6.46-1.93h11.89c.54,0,.93,.12,1.17,.36,.24,.24,.36,.63,.36,1.17v5.05c0,.54-.12,.93-.36,1.17-.24,.24-.63,.36-1.17,.36h-9.9c-.37,0-.65,.12-.85,.36-.2,.24-.3,.55-.3,.91s.1,.68,.3,.93c.2,.25,.48,.4,.85,.42l6.33,.85c1.98,.28,3.58,.93,4.8,1.95,1.22,1.02,1.83,2.72,1.83,5.1v4.46c0,2.41-.79,4.25-2.36,5.54-1.57,1.29-3.72,1.93-6.44,1.93Z"/><path class="e" d="M208.08,204.06h-6.58c-.54,0-.93-.12-1.17-.36-.24-.24-.36-.63-.36-1.17v-27.52c0-.54,.12-.93,.36-1.17,.24-.24,.63-.36,1.17-.36h13c3.85,0,6.48,.76,7.9,2.29,1.41,1.53,2.12,3.53,2.12,5.99v5.44c0,2.46-.71,4.46-2.12,5.99-1.42,1.53-4.05,2.29-7.9,2.29h-4.88v7.05c0,.54-.12,.93-.36,1.17-.24,.24-.63,.36-1.17,.36Zm1.44-22.64v6.41h3.82c.82,0,1.36-.21,1.62-.64,.25-.42,.38-.91,.38-1.44v-2.25c0-.54-.13-1.02-.38-1.44-.26-.42-.79-.64-1.62-.64h-3.82Z"/><path class="e" d="M250.17,204.06h-19.71c-.54,0-.93-.12-1.17-.36-.24-.24-.36-.63-.36-1.17v-27.52c0-.54,.12-.93,.36-1.17,.24-.24,.63-.36,1.17-.36h19.71c.54,0,.93,.12,1.17,.36,.24,.24,.36,.63,.36,1.17v4.97c0,.54-.12,.93-.36,1.17s-.63,.36-1.17,.36h-11.72v3.27h8.28c.54,0,.93,.12,1.17,.36,.24,.24,.36,.63,.36,1.17v4.54c0,.54-.12,.93-.36,1.17-.24,.24-.63,.36-1.17,.36h-8.28v3.65h11.72c.54,0,.93,.12,1.17,.36,.24,.24,.36,.63,.36,1.17v4.97c0,.54-.12,.93-.36,1.17s-.63,.36-1.17,.36Z"/><path class="e" d="M276.84,204.06h-10.36c-3.54,0-6.17-.71-7.88-2.12-1.71-1.42-2.57-3.6-2.57-6.54v-13.21c0-2.94,.86-5.13,2.57-6.56,1.71-1.43,4.34-2.15,7.88-2.15h10.36c.54,0,.93,.12,1.17,.36,.24,.24,.36,.63,.36,1.17v5.14c0,.54-.12,.93-.36,1.17s-.63,.36-1.17,.36h-8.54c-.88,0-1.53,.18-1.95,.53-.42,.35-.64,.89-.64,1.59v10.11c0,.71,.21,1.23,.64,1.55,.42,.33,1.08,.49,1.95,.49h8.54c.54,0,.93,.12,1.17,.36,.24,.24,.36,.63,.36,1.17v5.05c0,.54-.12,.93-.36,1.17s-.63,.36-1.17,.36Z"/><path class="e" d="M284.02,204.06c-.54,0-.93-.12-1.17-.36-.24-.24-.36-.63-.36-1.17v-5.05c0-.54,.12-.93,.36-1.17s.63-.36,1.17-.36h4.21v-14.27h-4.21c-.54,0-.93-.12-1.17-.36-.24-.24-.36-.63-.36-1.17v-5.14c0-.54,.12-.93,.36-1.17,.24-.24,.63-.36,1.17-.36h18.09c.54,0,.93,.12,1.17,.36,.24,.24,.36,.63,.36,1.17v5.14c0,.54-.12,.93-.36,1.17-.24,.24-.63,.36-1.17,.36h-4.12v14.27h4.12c.54,0,.93,.12,1.17,.36,.24,.24,.36,.63,.36,1.17v5.05c0,.54-.12,.93-.36,1.17-.24,.24-.63,.36-1.17,.36h-18.09Z"/><path class="e" d="M317.54,202.53c0,.54-.12,.93-.36,1.17s-.63,.36-1.17,.36h-6.24c-.54,0-.93-.12-1.17-.36-.24-.24-.36-.63-.36-1.17v-11.21c0-.85,.13-1.83,.4-2.93,.27-1.1,.69-2.39,1.25-3.87l3.7-9.64c.17-.48,.43-.83,.79-1.06,.35-.23,.81-.34,1.38-.34h11.43c.54,0,.98,.11,1.34,.34,.35,.23,.62,.58,.79,1.06l3.7,9.64c.57,1.47,.98,2.76,1.25,3.87,.27,1.1,.4,2.08,.4,2.93v11.21c0,.54-.12,.93-.36,1.17-.24,.24-.63,.36-1.17,.36h-6.41c-.57,0-.98-.12-1.25-.36-.27-.24-.4-.63-.4-1.17v-5.95h-7.52v5.95Zm2.42-20.13l-2,6.46h6.67l-2-6.46c-.11-.25-.23-.44-.36-.55-.13-.11-.28-.17-.45-.17h-1.06c-.17,0-.32,.06-.45,.17-.13,.11-.25,.3-.36,.55Z"/><path class="e" d="M363.03,204.06h-21.62c-.54,0-.93-.12-1.17-.36-.24-.24-.36-.63-.36-1.17v-27.52c0-.54,.12-.93,.36-1.17,.24-.24,.63-.36,1.17-.36h6.58c.54,0,.93,.12,1.17,.36,.24,.24,.36,.63,.36,1.17v21.03h5.82v-6.88c0-.54,.12-.93,.36-1.17,.24-.24,.63-.36,1.17-.36h6.16c.54,0,.93,.12,1.17,.36,.24,.24,.36,.63,.36,1.17v13.38c0,.54-.12,.93-.36,1.17-.24,.24-.63,.36-1.17,.36Z"/></g><g><path class="e" d="M198,260.51c2.61,0,4.72-2.11,4.72-4.72s-2.11-4.72-4.72-4.72-4.72,2.11-4.72,4.72,2.11,4.72,4.72,4.72"/><path class="e" d="M216.76,288.12c-.69,0-1.25-.56-1.25-1.25v-39.62h-7.65v41.36c0,3.31,2.68,5.99,5.98,5.99h5.81v-6.48h-2.9Z"/><polygon class="e" points="130.56 250.13 130.56 260.15 137.04 260.15 137.04 257.55 146.94 257.55 146.94 288.12 143.97 288.12 143.97 294.59 157.98 294.59 157.98 288.12 155 288.12 155 257.55 164.9 257.55 164.9 260.15 171.32 260.15 171.32 250.13 130.56 250.13"/><polygon class="e" points="201.88 288.12 201.88 265.12 185.42 265.12 185.42 271.63 194.23 271.63 194.23 288.12 185.42 288.12 185.42 294.59 204.98 294.59 204.98 288.12 201.88 288.12"/><polygon class="e" points="164.9 265.12 164.9 288.12 161.81 288.12 161.81 294.59 181.6 294.59 181.6 288.12 172.56 288.12 172.56 271.64 181.6 271.64 181.6 265.12 169.56 265.15 164.9 265.12"/><path class="e" d="M257.29,276.88c.08-.97,.34-1.84,.8-2.62,.46-.78,1.04-1.42,1.74-1.95,.7-.52,1.5-.92,2.37-1.19,.88-.27,1.81-.41,2.8-.41,2.13,0,3.72,.56,4.77,1.66,1.05,1.1,1.57,2.61,1.57,4.51h-14.05Zm19.74-5.83c-.82-1.56-1.88-2.81-3.17-3.74-1.3-.93-2.71-1.59-4.26-1.97-1.54-.38-3.04-.57-4.49-.57-2.17,0-4.19,.32-6.05,.94-1.87,.63-3.5,1.57-4.88,2.83-1.39,1.26-2.49,2.83-3.29,4.71-.8,1.89-1.2,4.08-1.2,6.6,0,.85,.05,1.67,.14,2.46,.17,1.37,.47,2.66,.92,3.87,.18,.49,1.61,4.03,5.44,6.3,2.54,1.5,6.12,2.11,11,2.11s7.34-.2,7.34-.2v-6.32s-3.41,.05-7.62,.05c-6.16,0-8.25-3.76-8.68-4.82-.13-.32-.24-.65-.33-.99h20.22c.58-2.84,.33-8.51-1.08-11.25"/><path class="e" d="M246.81,277.02v-9.57c0-.3-.18-.57-.45-.69-.96-.4-2.24-.81-3.84-1.23-1.87-.5-3.87-.74-6.01-.74-2.29,0-4.41,.33-6.35,1-1.95,.67-3.63,1.65-5.06,2.95-1.43,1.3-2.55,2.88-3.35,4.75-.8,1.87-1.2,4-1.2,6.41,0,2.25,.34,4.31,1.03,6.18,.69,1.87,1.53,3.23,2.81,4.58,2.09,2.2,6.18,3.79,10.91,3.94l9.45,.02v-6.48h-7.28c-3.07,0-6.08-1.41-6.85-2.18-.76-.76-1.35-1.66-1.77-2.69-.42-1.03-.63-2.15-.63-3.37,0-1.49,.26-2.77,.77-3.84,.51-1.07,1.18-1.95,2-2.66,.82-.71,1.75-1.22,2.8-1.54,1.05-.32,2.11-.49,3.18-.49,1.18,0,2.36,.14,3.55,.4v5.26h6.29Z"/></g><g><path d="M151.84,163.3c.35,.48,.8,.87,1.35,1.17,.55,.29,1.23,.44,2.03,.44s1.56-.2,2.23-.59c.67-.39,1.28-.91,1.83-1.54,.55-.63,1.04-1.34,1.48-2.13s.83-1.57,1.18-2.36c.08-.18,.2-.32,.35-.41,.15-.09,.32-.14,.5-.14,.28,0,.51,.1,.69,.3s.26,.42,.26,.65c0,.08,0,.15-.02,.21-.02,.06-.04,.12-.08,.19-1.15,2.54-2.41,4.45-3.77,5.74s-2.9,1.95-4.62,1.98c-1.1,0-2.06-.21-2.86-.64-.8-.43-1.46-.98-1.98-1.65-.52-.68-.9-1.44-1.15-2.29s-.38-1.7-.38-2.56,.1-1.64,.31-2.36c.21-.72,.51-1.34,.9-1.88,.39-.53,.86-.95,1.4-1.25s1.14-.45,1.79-.45c.38,0,.76,.08,1.14,.24,.38,.16,.71,.38,1.01,.68,.3,.29,.54,.65,.73,1.07,.18,.42,.28,.89,.28,1.43,0,.69-.12,1.33-.35,1.93-.23,.6-.56,1.16-.96,1.68-.41,.52-.9,.99-1.47,1.43-.57,.43-1.18,.81-1.83,1.13Zm-.75-1.63c.52-.22,.99-.49,1.42-.83,.43-.33,.79-.7,1.09-1.1s.53-.82,.7-1.27c.17-.44,.25-.89,.25-1.34,0-.5-.13-.88-.38-1.14-.25-.26-.54-.39-.88-.39-.45,0-.84,.13-1.15,.38s-.58,.58-.78,.98c-.2,.4-.35,.85-.44,1.34s-.14,.98-.14,1.47c0,.3,.03,.62,.09,.95,.06,.33,.13,.65,.21,.95Z"/><path d="M164.72,156.78c-.1,.27-.22,.57-.36,.9-.14,.33-.3,.69-.49,1.05-.15,.28-.3,.51-.46,.66s-.36,.24-.61,.24c-.28,0-.51-.09-.68-.26-.17-.18-.25-.38-.25-.61,0-.08,0-.15,.03-.21,.02-.06,.06-.15,.12-.29,.43-.84,.76-1.57,.96-2.19s.38-1.28,.51-1.97c-.12-.38-.2-.71-.25-.98-.05-.27-.08-.54-.08-.83,0-.55,.12-1,.35-1.34,.23-.34,.56-.51,.98-.51,.38,0,.69,.17,.91,.5,.23,.33,.34,.74,.34,1.23,0,.27-.03,.53-.08,.8-.05,.27-.12,.6-.2,1,.38,.95,.77,1.8,1.15,2.53,.38,.74,.73,1.41,1.03,2.02,.3,.61,.55,1.18,.74,1.72,.19,.53,.29,1.07,.29,1.6,0,.7-.14,1.37-.43,2-.28,.64-.75,1.17-1.4,1.6,.08,.02,.17,.03,.25,.03h.25c.95,0,1.83-.22,2.63-.65,.8-.43,1.52-1,2.17-1.69s1.22-1.46,1.72-2.31c.5-.84,.94-1.68,1.3-2.52,.17-.38,.4-.58,.7-.58,.28,0,.51,.1,.66,.3s.24,.42,.24,.65c0,.13-.02,.26-.08,.38-.18,.45-.42,.96-.71,1.54-.29,.58-.64,1.17-1.05,1.78-.41,.61-.88,1.21-1.42,1.79-.54,.58-1.13,1.11-1.79,1.57-.66,.46-1.38,.83-2.17,1.1-.79,.28-1.65,.41-2.58,.41-1.12,0-2.16-.2-3.12-.59-.96-.39-1.74-1.04-2.34-1.94-.1-.15-.15-.31-.15-.48,0-.25,.1-.47,.29-.66,.19-.19,.41-.29,.66-.29,.27,0,.49,.09,.68,.28,.02,.03,.08,.09,.18,.16,.1,.08,.22,.16,.36,.25,.14,.09,.31,.17,.5,.24,.19,.07,.39,.1,.59,.1,.4,0,.74-.08,1.02-.25,.28-.17,.5-.37,.66-.61s.29-.5,.36-.78c.08-.28,.11-.51,.11-.71,0-.42-.07-.84-.2-1.25-.13-.42-.31-.84-.51-1.25-.21-.42-.43-.85-.68-1.29-.24-.44-.46-.91-.66-1.39Z"/><path d="M195.27,140.97c0,.27-.09,.48-.28,.64-.18,.16-.41,.24-.68,.24h-12.71v.28c0,1.02-.08,2.11-.23,3.26s-.36,2.3-.61,3.45c-.26,1.14-.55,2.26-.88,3.35s-.66,2.09-1,3.01c-.34,.92-.68,1.72-1.02,2.39-.33,.68-.64,1.18-.9,1.52,.22,.77,.48,1.48,.78,2.14,.3,.66,.64,1.24,1.02,1.73,.38,.49,.78,.88,1.22,1.17,.43,.28,.9,.43,1.4,.43,.58,0,1.17-.25,1.74-.74,.58-.49,1.11-1.08,1.6-1.75,.49-.68,.93-1.36,1.3-2.06,.38-.69,.65-1.25,.81-1.67,.17-.4,.46-.6,.88-.6,.28,0,.51,.1,.69,.3,.18,.2,.26,.42,.26,.65,0,.12-.02,.23-.08,.35-.05,.12-.17,.38-.36,.8-.19,.42-.44,.9-.75,1.45s-.67,1.13-1.08,1.74c-.41,.61-.87,1.17-1.38,1.67-.51,.5-1.06,.92-1.64,1.25-.58,.33-1.2,.5-1.85,.5-1.15,0-2.19-.38-3.11-1.13-.92-.75-1.7-1.8-2.34-3.16-.64-1.35-1.13-2.96-1.47-4.81-.33-1.85-.5-3.88-.5-6.09,0-.55,0-1.2,.03-1.94,.02-.74,.05-1.53,.1-2.36s.13-1.68,.23-2.56c.1-.88,.23-1.73,.4-2.57h-9c-.27,0-.49-.08-.68-.24-.18-.16-.28-.37-.28-.64s.09-.48,.28-.64c.18-.16,.41-.24,.68-.24h9.42c.17-.6,.36-1.15,.59-1.65,.23-.5,.48-.94,.78-1.3,.29-.37,.62-.66,.98-.86s.76-.31,1.19-.31,.78,.1,1.09,.31,.57,.5,.79,.86c.22,.37,.39,.8,.51,1.3,.13,.5,.22,1.05,.29,1.65h12.81c.27,0,.49,.08,.68,.24,.18,.16,.28,.37,.28,.64Zm-18.87,15.61c.5-1.1,.96-2.29,1.37-3.57,.41-1.28,.76-2.57,1.05-3.87,.29-1.3,.52-2.58,.68-3.83,.16-1.25,.24-2.41,.24-3.46h-2.96c-.23,1.04-.42,2.32-.56,3.85-.14,1.53-.21,3.39-.21,5.58,0,1.22,.03,2.24,.1,3.07,.07,.83,.17,1.58,.3,2.24Zm2.33-18.75c-.15,0-.37,.16-.65,.49-.28,.33-.57,.91-.85,1.77h2.41c-.08-.7-.21-1.25-.36-1.65-.16-.4-.34-.6-.54-.6Z"/><path d="M189.96,163.3c.35,.48,.8,.87,1.35,1.17,.55,.29,1.23,.44,2.03,.44s1.56-.2,2.23-.59c.67-.39,1.28-.91,1.83-1.54,.55-.63,1.04-1.34,1.48-2.13s.83-1.57,1.18-2.36c.08-.18,.2-.32,.35-.41,.15-.09,.32-.14,.5-.14,.28,0,.51,.1,.69,.3s.26,.42,.26,.65c0,.08,0,.15-.02,.21-.02,.06-.04,.12-.08,.19-1.15,2.54-2.41,4.45-3.77,5.74s-2.9,1.95-4.62,1.98c-1.1,0-2.06-.21-2.86-.64-.8-.43-1.46-.98-1.98-1.65-.52-.68-.9-1.44-1.15-2.29s-.38-1.7-.38-2.56,.1-1.64,.31-2.36c.21-.72,.51-1.34,.9-1.88,.39-.53,.86-.95,1.4-1.25s1.14-.45,1.79-.45c.38,0,.76,.08,1.14,.24,.38,.16,.71,.38,1.01,.68,.3,.29,.54,.65,.73,1.07,.18,.42,.28,.89,.28,1.43,0,.69-.12,1.33-.35,1.93-.23,.6-.56,1.16-.96,1.68-.41,.52-.9,.99-1.47,1.43-.57,.43-1.18,.81-1.83,1.13Zm-.75-1.63c.52-.22,.99-.49,1.42-.83,.43-.33,.79-.7,1.09-1.1s.53-.82,.7-1.27c.17-.44,.25-.89,.25-1.34,0-.5-.13-.88-.38-1.14-.25-.26-.54-.39-.88-.39-.45,0-.84,.13-1.15,.38s-.58,.58-.78,.98c-.2,.4-.35,.85-.44,1.34s-.14,.98-.14,1.47c0,.3,.03,.62,.09,.95,.06,.33,.13,.65,.21,.95Z"/><path d="M221.06,158.76c.82,3.86,2,5.79,3.56,5.79,.6,0,1.18-.22,1.73-.66,.55-.44,1.07-.99,1.54-1.63,.48-.64,.9-1.32,1.27-2.04,.37-.72,.67-1.34,.9-1.88,.17-.4,.46-.6,.88-.6,.27,0,.49,.1,.68,.3s.28,.42,.28,.65c0,.13-.03,.25-.08,.35-.12,.28-.29,.66-.51,1.14-.22,.48-.5,.99-.83,1.53-.33,.54-.69,1.1-1.09,1.67-.4,.57-.84,1.08-1.33,1.53s-1,.82-1.54,1.12-1.12,.44-1.72,.44c-1.12,0-2.08-.39-2.88-1.17-.8-.78-1.5-2.06-2.08-3.85-.8,1.7-1.61,2.94-2.43,3.71-.82,.77-1.71,1.15-2.66,1.15-.5,0-.99-.08-1.45-.24-.47-.16-.88-.42-1.23-.79-.35-.37-.63-.84-.85-1.42-.22-.58-.33-1.28-.33-2.12,0-1.15,.2-2.21,.6-3.18,.4-.97,.92-1.8,1.55-2.49s1.34-1.23,2.12-1.62c.78-.38,1.55-.58,2.32-.58,.25,0,.47,.09,.65,.26,.18,.18,.28,.4,.28,.66,0,.23-.08,.44-.23,.63-.15,.18-.35,.29-.6,.33-.5,.07-1.04,.23-1.6,.48-.57,.25-1.09,.61-1.57,1.09-.48,.48-.87,1.08-1.18,1.82-.31,.74-.46,1.61-.46,2.63,0,.84,.17,1.49,.51,1.96,.34,.47,.84,.7,1.49,.7,.27,0,.55-.07,.85-.21,.3-.14,.62-.42,.97-.84,.34-.42,.72-1.01,1.13-1.78,.41-.77,.87-1.78,1.37-3.03-.28-1.47-.54-3.17-.78-5.09-.23-1.92-.35-4.07-.35-6.44,0-1.04,.03-2.12,.1-3.25,.07-1.13,.17-2.23,.33-3.31s.35-2.1,.6-3.07c.25-.97,.56-1.82,.92-2.56,.36-.73,.78-1.32,1.27-1.74,.48-.43,1.04-.64,1.65-.64,.55,0,1.02,.15,1.4,.45,.38,.3,.7,.72,.94,1.25,.24,.54,.42,1.18,.54,1.93,.12,.75,.18,1.58,.18,2.48,0,1.94-.17,3.88-.5,5.81-.33,1.94-.75,3.79-1.24,5.56-.49,1.77-1.01,3.41-1.57,4.91-.55,1.5-1.05,2.8-1.5,3.88Zm2.93-20.2c0-.42-.01-.87-.04-1.35-.02-.48-.08-.94-.17-1.37-.09-.43-.21-.78-.36-1.06-.15-.28-.35-.43-.6-.43-.42,0-.81,.37-1.17,1.1-.36,.74-.67,1.7-.94,2.89-.27,1.19-.48,2.55-.64,4.06-.16,1.51-.24,3.04-.24,4.57s.06,2.94,.17,4.41c.12,1.47,.25,2.78,.4,3.93,.48-1.29,.94-2.61,1.38-3.97s.82-2.75,1.14-4.17c.33-1.42,.58-2.85,.78-4.3,.19-1.44,.29-2.89,.29-4.32Z"/><path d="M230.1,161.07c0-2.41,.15-4.8,.45-7.19,.03-.23,.14-.44,.31-.61,.17-.18,.4-.26,.69-.26,.25,0,.46,.1,.63,.29,.17,.19,.25,.41,.25,.66,0,.1-.02,.4-.06,.9-.04,.5-.09,1.1-.15,1.79-.06,.69-.11,1.43-.15,2.21s-.06,1.49-.06,2.14c0,.89,.09,1.6,.26,2.14,.17,.54,.4,.96,.68,1.27,.28,.3,.57,.5,.88,.6,.31,.1,.61,.15,.89,.15,.47,0,.95-.17,1.45-.5,.5-.33,1.02-.8,1.54-1.4,.53-.6,1.06-1.32,1.59-2.17,.53-.84,1.06-1.78,1.58-2.82,.08-.17,.2-.3,.35-.39,.15-.09,.32-.14,.5-.14,.27,0,.49,.1,.66,.3,.18,.2,.26,.42,.26,.65,0,.17-.03,.31-.1,.43-.2,.38-.45,.85-.75,1.4s-.64,1.12-1.03,1.7c-.38,.58-.81,1.17-1.27,1.74-.46,.58-.95,1.09-1.47,1.55-.52,.46-1.06,.83-1.63,1.11-.57,.28-1.14,.43-1.73,.43-.75,0-1.41-.16-1.98-.48-.57-.32-1.05-.74-1.44-1.28-.39-.53-.69-1.17-.88-1.89-.19-.73-.29-1.51-.29-2.34Zm.35-11.08l4.01-3.81c.17-.15,.36-.23,.58-.23s.41,.08,.58,.25c.17,.17,.25,.37,.25,.6s-.08,.43-.25,.58l-4.01,3.81c-.18,.15-.38,.23-.58,.23-.23,0-.43-.08-.59-.25s-.24-.36-.24-.58c0-.23,.08-.43,.25-.6Z"/><path d="M260.23,159.06c-.07,.13-.2,.41-.41,.84-.21,.43-.48,.91-.8,1.47-.33,.55-.71,1.13-1.14,1.73-.43,.6-.92,1.15-1.45,1.65-.54,.5-1.11,.91-1.73,1.24-.62,.33-1.27,.49-1.96,.49-.97,0-1.78-.31-2.44-.93-.66-.62-1.14-1.39-1.44-2.33-.57,.95-1.25,1.71-2.03,2.27-.79,.56-1.57,.84-2.36,.84-.62,0-1.18-.11-1.68-.34s-.93-.54-1.28-.95c-.35-.41-.62-.89-.81-1.44s-.29-1.15-.29-1.8c0-1.3,.22-2.45,.66-3.45,.44-.99,1.01-1.82,1.69-2.49,.68-.67,1.44-1.17,2.27-1.5,.83-.33,1.62-.5,2.39-.5,.52,0,.99,.07,1.43,.21,.43,.14,.81,.3,1.12,.46,.31,.17,.55,.32,.71,.46,.17,.14,.26,.22,.28,.24,.18,.22,.28,.44,.28,.68,0,.25-.09,.47-.28,.66-.18,.19-.4,.29-.65,.29-.27,0-.49-.09-.68-.28-.03-.03-.11-.1-.23-.19-.12-.09-.28-.19-.48-.29-.2-.1-.44-.19-.71-.26s-.59-.11-.94-.11c-.52,0-1.07,.12-1.65,.35s-1.12,.6-1.6,1.09c-.49,.49-.89,1.11-1.22,1.85-.33,.74-.49,1.62-.49,2.64,0,.32,.03,.64,.1,.96s.18,.62,.35,.89c.17,.27,.39,.48,.68,.65s.63,.25,1.05,.25c.3,0,.65-.1,1.04-.3s.77-.51,1.13-.93c.36-.42,.68-.94,.98-1.58,.29-.63,.5-1.39,.61-2.26,.03-.23,.14-.43,.33-.59,.18-.16,.4-.24,.65-.24,.23,0,.44,.09,.61,.28,.18,.18,.27,.39,.29,.63,.02,.32,.05,.76,.1,1.34,.05,.58,.16,1.15,.34,1.72,.18,.57,.44,1.06,.79,1.48,.35,.42,.83,.63,1.45,.63,.4,0,.8-.11,1.19-.33,.39-.22,.78-.51,1.15-.86,.38-.36,.73-.77,1.08-1.23,.34-.46,.66-.92,.94-1.39,.28-.47,.53-.92,.75-1.35,.22-.43,.4-.81,.55-1.13,.08-.18,.2-.33,.36-.43s.33-.15,.51-.15c.28,0,.51,.1,.69,.31s.26,.43,.26,.66c0,.12-.02,.23-.08,.35Z"/></g><g><path d="M101.76,227.11c0,1.54-.28,2.85-.83,3.93-.55,1.09-1.23,1.91-2.03,2.48h.1c.99,0,1.88-.22,2.69-.66,.81-.44,1.54-1.01,2.19-1.7,.65-.69,1.24-1.47,1.75-2.32,.52-.85,.98-1.68,1.38-2.48,.08-.18,.2-.33,.36-.43,.16-.1,.33-.15,.51-.15,.28,0,.51,.1,.68,.3,.17,.2,.25,.42,.25,.65,0,.13-.02,.26-.08,.38-.43,.97-.95,1.94-1.55,2.92s-1.3,1.86-2.11,2.64c-.8,.79-1.7,1.42-2.71,1.92-1,.49-2.11,.74-3.33,.74-.89,0-1.75-.14-2.58-.41-.84-.28-1.57-.71-2.21-1.29-.23-.18-.43-.38-.6-.59-.17-.21-.3-.4-.4-.59-.03-.03-.05-.07-.05-.1-.1-.15-.15-.31-.15-.48,0-.22,.08-.42,.23-.6,.02-.03,.03-.05,.05-.06,.02,0,.03-.02,.05-.04,.17-.15,.35-.23,.55-.25h.08c.08,0,.14,0,.18,.03,.02,0,.03,0,.04,.01,0,0,.02,.01,.04,.01,.05,0,.11,.02,.18,.05,.02,.02,.03,.03,.05,.03,.15,.1,.28,.23,.38,.38,.12,.2,.25,.38,.4,.55,.13,.13,.29,.25,.48,.36,.18,.11,.39,.16,.63,.16,.42,0,.84-.13,1.25-.38,.42-.25,.79-.61,1.13-1.08,.33-.47,.61-1.04,.81-1.7,.21-.67,.31-1.41,.31-2.23,0-.6-.06-1.12-.19-1.54s-.28-.77-.48-1.04c-.19-.27-.4-.46-.61-.59-.22-.13-.43-.19-.63-.19-.45,0-.91,.23-1.37,.7-.46,.47-.91,1.06-1.37,1.78-.45,.72-.9,1.51-1.34,2.38-.44,.87-.89,1.71-1.34,2.53-.03,2.71-.08,5.29-.14,7.74-.06,2.46-.16,4.74-.3,6.84-.14,2.11-.34,4.01-.59,5.71-.25,1.7-.59,3.16-1.03,4.37-.43,1.21-.97,2.14-1.6,2.79s-1.41,.98-2.33,.98c-.28,0-.61-.06-.98-.18-.37-.12-.71-.35-1.03-.71-.32-.36-.58-.87-.8-1.54-.22-.67-.33-1.56-.33-2.68,0-1.42,.18-3.07,.53-4.94,.35-1.87,.85-3.86,1.49-5.95,.64-2.1,1.41-4.25,2.29-6.45,.89-2.21,1.86-4.35,2.93-6.44,0-.58,0-1.16,.01-1.73,0-.57,.01-1.12,.01-1.65-.22,.25-.48,.38-.78,.38-.28,0-.51-.1-.68-.3-.17-.2-.25-.42-.25-.65,0-.12,.02-.24,.08-.38,.4-.92,.71-1.79,.93-2.62,.22-.83,.38-1.55,.49-2.18,.11-.63,.17-1.12,.19-1.49s.03-.56,.03-.58c0-.25,.09-.47,.28-.65,.18-.18,.41-.28,.68-.28,.25,0,.47,.09,.65,.26,.18,.17,.28,.4,.28,.66v7.69c.38-.65,.77-1.29,1.15-1.93s.79-1.2,1.22-1.7c.43-.5,.89-.91,1.38-1.22,.49-.31,1.04-.46,1.64-.46,.57,0,1.09,.13,1.55,.4,.47,.27,.87,.64,1.2,1.1,.33,.47,.59,1.02,.76,1.67,.18,.64,.26,1.33,.26,2.07Zm-11.13,8.04c-.82,1.84-1.56,3.68-2.22,5.54-.66,1.85-1.22,3.64-1.68,5.36s-.81,3.33-1.07,4.84c-.25,1.5-.38,2.82-.38,3.96,0,.28,.02,.59,.05,.93,.03,.33,.1,.64,.2,.93,.1,.28,.24,.52,.43,.71,.18,.19,.43,.29,.73,.29,.55,0,1.03-.35,1.43-1.04s.74-1.63,1.02-2.81,.5-2.53,.69-4.06c.18-1.53,.33-3.13,.44-4.8,.11-1.67,.19-3.35,.24-5.05,.05-1.7,.09-3.29,.13-4.8Z"/><path d="M126.39,227.11c-.07,.13-.21,.41-.41,.84-.21,.43-.48,.92-.8,1.47-.33,.55-.71,1.13-1.14,1.73s-.92,1.15-1.45,1.65c-.53,.5-1.11,.91-1.73,1.24-.62,.33-1.27,.49-1.95,.49-.97,0-1.78-.31-2.44-.93-.66-.62-1.14-1.4-1.44-2.33-.57,.95-1.24,1.71-2.03,2.27-.79,.56-1.57,.84-2.36,.84-.62,0-1.18-.11-1.68-.34-.5-.23-.93-.54-1.28-.95-.35-.41-.62-.89-.81-1.44-.19-.55-.29-1.15-.29-1.8,0-1.3,.22-2.45,.66-3.45,.44-.99,1.01-1.83,1.69-2.49,.69-.67,1.44-1.17,2.27-1.5s1.62-.5,2.39-.5c.52,0,.99,.07,1.43,.21,.43,.14,.81,.3,1.12,.46s.55,.32,.71,.46c.17,.14,.26,.22,.28,.24,.18,.22,.28,.44,.28,.68,0,.25-.09,.47-.28,.66-.18,.19-.4,.29-.65,.29-.27,0-.49-.09-.68-.28-.03-.03-.11-.1-.23-.19-.12-.09-.28-.19-.48-.29s-.44-.19-.71-.26c-.28-.08-.59-.11-.94-.11-.52,0-1.07,.12-1.65,.35-.58,.23-1.12,.6-1.6,1.09-.48,.49-.89,1.11-1.22,1.85s-.49,1.62-.49,2.64c0,.32,.03,.64,.1,.96,.07,.33,.18,.62,.35,.89,.17,.27,.39,.48,.68,.65,.28,.17,.63,.25,1.05,.25,.3,0,.65-.1,1.04-.3,.39-.2,.77-.51,1.13-.93,.36-.42,.69-.94,.98-1.58,.29-.63,.5-1.39,.61-2.26,.03-.23,.14-.43,.33-.59,.18-.16,.4-.24,.65-.24,.23,0,.44,.09,.61,.28,.18,.18,.27,.39,.29,.63,.02,.32,.05,.76,.1,1.34s.16,1.15,.34,1.72,.44,1.06,.79,1.48c.35,.42,.83,.63,1.45,.63,.4,0,.8-.11,1.19-.33s.78-.5,1.15-.86c.38-.36,.74-.77,1.08-1.23,.34-.46,.66-.92,.94-1.39s.53-.92,.75-1.35c.22-.43,.4-.81,.55-1.13,.08-.18,.2-.33,.36-.43s.33-.15,.51-.15c.28,0,.51,.1,.69,.31s.26,.43,.26,.66c0,.12-.03,.23-.08,.35Z"/><path d="M127.3,223.81c-.07,.45-.15,.87-.25,1.27-.1,.39-.2,.74-.29,1.03s-.17,.53-.24,.71c-.07,.18-.11,.28-.12,.3-.17,.38-.46,.58-.88,.58-.23,0-.45-.09-.65-.26s-.3-.4-.3-.66c0-.1,.02-.18,.05-.23,.03-.05,.08-.15,.15-.3,.07-.15,.15-.4,.25-.75s.23-.89,.38-1.63c-.28,0-.58,0-.88-.03-.3-.02-.58-.08-.84-.17-.26-.1-.47-.26-.64-.48-.17-.22-.25-.52-.25-.9,0-.28,.08-.67,.24-1.15s.37-.96,.64-1.43,.57-.87,.9-1.22c.33-.34,.67-.51,1-.51,.38,0,.7,.14,.94,.43,.24,.28,.43,.63,.56,1.04,.13,.41,.23,.84,.29,1.29,.06,.45,.09,.84,.09,1.18,.28,0,.56,0,.84-.01,.28,0,.54-.01,.79-.01,.95,0,1.68,.21,2.18,.63,.5,.42,.75,1.1,.75,2.06,0,.38-.03,.79-.08,1.2-.05,.42-.11,.85-.18,1.29s-.12,.88-.18,1.32c-.05,.43-.08,.86-.08,1.28,0,.6,.08,1.1,.25,1.49s.38,.71,.63,.94c.25,.23,.52,.4,.8,.49,.28,.09,.54,.14,.78,.14,.72,0,1.4-.23,2.03-.7,.63-.47,1.22-1.03,1.75-1.69s1.02-1.36,1.44-2.09c.43-.73,.78-1.38,1.07-1.93,.08-.15,.2-.27,.35-.35,.15-.08,.31-.12,.48-.12,.3,0,.53,.1,.7,.29,.17,.19,.25,.41,.25,.64,0,.17-.03,.32-.1,.45-.38,.69-.83,1.46-1.34,2.32-.51,.86-1.09,1.67-1.74,2.42-.65,.75-1.38,1.39-2.19,1.91s-1.7,.78-2.67,.78c-.6,0-1.17-.11-1.7-.34s-1-.55-1.39-.98c-.39-.43-.71-.95-.94-1.58-.23-.63-.35-1.33-.35-2.12,0-.84,.08-1.67,.25-2.49,.17-.83,.25-1.62,.25-2.37,0-.32-.07-.55-.21-.71-.14-.16-.46-.24-.94-.24h-.76c-.28,0-.57,0-.89,.03Zm-1.68-1.85c0-.12,0-.27-.01-.46,0-.19-.02-.38-.05-.56-.02-.18-.06-.34-.1-.48-.04-.13-.09-.2-.14-.2s-.11,.06-.19,.19-.15,.28-.24,.45-.16,.36-.23,.56c-.07,.2-.12,.37-.15,.5h1.1Z"/><path d="M159.6,227.11c-.07,.13-.21,.41-.41,.84-.21,.43-.48,.92-.8,1.47-.33,.55-.71,1.13-1.14,1.73s-.92,1.15-1.45,1.65c-.53,.5-1.11,.91-1.73,1.24-.62,.33-1.27,.49-1.95,.49-.97,0-1.78-.31-2.44-.93-.66-.62-1.14-1.4-1.44-2.33-.57,.95-1.24,1.71-2.03,2.27-.79,.56-1.57,.84-2.36,.84-.62,0-1.18-.11-1.68-.34-.5-.23-.93-.54-1.28-.95-.35-.41-.62-.89-.81-1.44-.19-.55-.29-1.15-.29-1.8,0-1.3,.22-2.45,.66-3.45,.44-.99,1.01-1.83,1.69-2.49,.69-.67,1.44-1.17,2.27-1.5s1.62-.5,2.39-.5c.52,0,.99,.07,1.43,.21,.43,.14,.81,.3,1.12,.46s.55,.32,.71,.46c.17,.14,.26,.22,.28,.24,.18,.22,.28,.44,.28,.68,0,.25-.09,.47-.28,.66-.18,.19-.4,.29-.65,.29-.27,0-.49-.09-.68-.28-.03-.03-.11-.1-.23-.19-.12-.09-.28-.19-.48-.29s-.44-.19-.71-.26c-.28-.08-.59-.11-.94-.11-.52,0-1.07,.12-1.65,.35-.58,.23-1.12,.6-1.6,1.09-.48,.49-.89,1.11-1.22,1.85s-.49,1.62-.49,2.64c0,.32,.03,.64,.1,.96,.07,.33,.18,.62,.35,.89,.17,.27,.39,.48,.68,.65,.28,.17,.63,.25,1.05,.25,.3,0,.65-.1,1.04-.3,.39-.2,.77-.51,1.13-.93,.36-.42,.69-.94,.98-1.58,.29-.63,.5-1.39,.61-2.26,.03-.23,.14-.43,.33-.59,.18-.16,.4-.24,.65-.24,.23,0,.44,.09,.61,.28,.18,.18,.27,.39,.29,.63,.02,.32,.05,.76,.1,1.34s.16,1.15,.34,1.72,.44,1.06,.79,1.48c.35,.42,.83,.63,1.45,.63,.4,0,.8-.11,1.19-.33s.78-.5,1.15-.86c.38-.36,.74-.77,1.08-1.23,.34-.46,.66-.92,.94-1.39s.53-.92,.75-1.35c.22-.43,.4-.81,.55-1.13,.08-.18,.2-.33,.36-.43s.33-.15,.51-.15c.28,0,.51,.1,.69,.31s.26,.43,.26,.66c0,.12-.03,.23-.08,.35Z"/><path d="M183.41,227.16c-.18,.38-.41,.84-.69,1.37s-.59,1.07-.94,1.64c-.35,.57-.74,1.13-1.18,1.69-.43,.56-.91,1.06-1.42,1.5-.51,.44-1.05,.8-1.63,1.08-.58,.28-1.19,.41-1.84,.41-1,0-1.86-.31-2.58-.93-.72-.62-1.33-1.43-1.83-2.43s-.91-2.14-1.22-3.42-.55-2.58-.71-3.91-.28-2.62-.34-3.87-.09-2.36-.09-3.33c0-1.4,.05-2.86,.14-4.36,.09-1.5,.24-2.97,.44-4.41,.2-1.44,.46-2.8,.76-4.08,.31-1.29,.68-2.41,1.1-3.38,.43-.97,.91-1.74,1.47-2.31,.55-.57,1.18-.85,1.88-.85,.55,0,1.05,.13,1.49,.39,.44,.26,.81,.68,1.12,1.27,.3,.58,.53,1.35,.7,2.28,.17,.94,.25,2.08,.25,3.43,0,1.67-.18,3.4-.53,5.17-.35,1.78-.83,3.57-1.43,5.38-.6,1.8-1.31,3.6-2.13,5.4-.82,1.8-1.7,3.55-2.63,5.25,.42,2.12,.98,3.79,1.68,5,.7,1.21,1.54,1.82,2.53,1.82,.67,0,1.31-.26,1.93-.79,.62-.53,1.19-1.15,1.7-1.87,.52-.72,.97-1.45,1.37-2.19s.7-1.34,.91-1.79c.08-.17,.2-.3,.35-.39s.32-.14,.5-.14c.28,0,.51,.1,.69,.3s.26,.43,.26,.68c0,.1-.03,.23-.1,.4Zm-12.56-10.07c0,1.07,.03,2.1,.08,3.08,.05,.99,.12,1.93,.2,2.83,.7-1.35,1.37-2.79,2-4.32,.63-1.53,1.19-3.07,1.68-4.64,.48-1.56,.87-3.12,1.17-4.66s.44-3.02,.44-4.42c0-1.97-.16-3.38-.48-4.23-.32-.85-.74-1.28-1.28-1.28-.35,0-.69,.24-1.02,.73s-.63,1.14-.91,1.98c-.28,.84-.54,1.82-.78,2.96-.23,1.14-.43,2.36-.59,3.66-.16,1.3-.28,2.67-.38,4.08-.09,1.42-.14,2.83-.14,4.24Z"/><path d="M201.08,227.11c-.07,.13-.21,.41-.41,.84-.21,.43-.48,.92-.8,1.47-.33,.55-.71,1.13-1.14,1.73s-.92,1.15-1.45,1.65c-.53,.5-1.11,.91-1.73,1.24-.62,.33-1.27,.49-1.95,.49-.97,0-1.78-.31-2.44-.93-.66-.62-1.14-1.4-1.44-2.33-.57,.95-1.24,1.71-2.03,2.27-.79,.56-1.57,.84-2.36,.84-.62,0-1.18-.11-1.68-.34-.5-.23-.93-.54-1.28-.95-.35-.41-.62-.89-.81-1.44-.19-.55-.29-1.15-.29-1.8,0-1.3,.22-2.45,.66-3.45,.44-.99,1.01-1.83,1.69-2.49,.69-.67,1.44-1.17,2.27-1.5s1.62-.5,2.39-.5c.52,0,.99,.07,1.43,.21,.43,.14,.81,.3,1.12,.46s.55,.32,.71,.46c.17,.14,.26,.22,.28,.24,.18,.22,.28,.44,.28,.68,0,.25-.09,.47-.28,.66-.18,.19-.4,.29-.65,.29-.27,0-.49-.09-.68-.28-.03-.03-.11-.1-.23-.19-.12-.09-.28-.19-.48-.29s-.44-.19-.71-.26c-.28-.08-.59-.11-.94-.11-.52,0-1.07,.12-1.65,.35-.58,.23-1.12,.6-1.6,1.09-.48,.49-.89,1.11-1.22,1.85s-.49,1.62-.49,2.64c0,.32,.03,.64,.1,.96,.07,.33,.18,.62,.35,.89,.17,.27,.39,.48,.68,.65,.28,.17,.63,.25,1.05,.25,.3,0,.65-.1,1.04-.3,.39-.2,.77-.51,1.13-.93,.36-.42,.69-.94,.98-1.58,.29-.63,.5-1.39,.61-2.26,.03-.23,.14-.43,.33-.59,.18-.16,.4-.24,.65-.24,.23,0,.44,.09,.61,.28,.18,.18,.27,.39,.29,.63,.02,.32,.05,.76,.1,1.34s.16,1.15,.34,1.72,.44,1.06,.79,1.48c.35,.42,.83,.63,1.45,.63,.4,0,.8-.11,1.19-.33s.78-.5,1.15-.86c.38-.36,.74-.77,1.08-1.23,.34-.46,.66-.92,.94-1.39s.53-.92,.75-1.35c.22-.43,.4-.81,.55-1.13,.08-.18,.2-.33,.36-.43s.33-.15,.51-.15c.28,0,.51,.1,.69,.31s.26,.43,.26,.66c0,.12-.03,.23-.08,.35Z"/><path d="M212.58,235.33c1.24-.55,2.36-1.19,3.37-1.9,1.01-.72,1.91-1.47,2.71-2.27,.79-.79,1.47-1.6,2.03-2.43,.56-.83,1.01-1.62,1.34-2.37,.15-.37,.43-.55,.85-.55,.28,0,.51,.1,.69,.29s.26,.41,.26,.64c0,.13-.02,.26-.08,.38-.37,.82-.83,1.67-1.4,2.54s-1.26,1.74-2.07,2.58-1.76,1.66-2.84,2.44-2.33,1.5-3.73,2.16c.9,.94,1.69,1.98,2.36,3.12s1.22,2.33,1.67,3.57c.44,1.24,.78,2.49,1,3.75,.23,1.26,.34,2.47,.34,3.62,0,1.05-.1,2.04-.29,2.97s-.48,1.73-.85,2.42c-.38,.69-.83,1.22-1.37,1.62-.54,.39-1.14,.59-1.83,.59-1,0-1.78-.37-2.33-1.12-.55-.74-.96-1.77-1.21-3.08-.26-1.31-.41-2.86-.45-4.64-.04-1.78-.06-3.71-.06-5.8v-3.62c0-1.38,0-2.86,.01-4.44,0-1.58,.02-3.23,.03-4.96,0-1.73,.02-3.46,.04-5.2,.02-1.74,.03-3.45,.05-5.12s.04-3.27,.08-4.77c.05-2.87,.15-5.44,.3-7.69s.39-4.16,.73-5.71c.33-1.55,.79-2.74,1.37-3.55,.58-.81,1.31-1.22,2.19-1.22,.7,0,1.29,.2,1.78,.59s.88,.92,1.18,1.58c.3,.66,.52,1.43,.65,2.32,.13,.89,.2,1.81,.2,2.78,0,2.04-.18,4.01-.53,5.91-.35,1.91-.83,3.75-1.43,5.54s-1.31,3.53-2.12,5.24c-.81,1.7-1.68,3.38-2.59,5.04v4.6c0,.79,0,1.55-.01,2.28,0,.73-.01,1.36-.01,1.89Zm0,3.08c0,1.05,0,2.03-.01,2.94,0,.91-.01,1.74-.01,2.49,0,1.55,0,3.09,.03,4.61,.02,1.52,.1,2.89,.24,4.1,.14,1.21,.36,2.19,.65,2.93,.29,.74,.71,1.12,1.27,1.12,.5,0,.91-.23,1.23-.68s.56-.99,.74-1.6c.18-.62,.3-1.25,.36-1.89,.07-.64,.1-1.17,.1-1.57,0-1.02-.1-2.09-.29-3.21-.19-1.12-.48-2.23-.88-3.32s-.87-2.15-1.44-3.17c-.57-1.02-1.23-1.94-1.98-2.76Zm.08-15.71c.68-1.29,1.32-2.64,1.89-4.07,.58-1.43,1.07-2.9,1.49-4.42s.74-3.07,.98-4.66c.23-1.59,.35-3.18,.35-4.79,0-.8-.04-1.53-.11-2.18s-.19-1.21-.35-1.67c-.16-.46-.36-.82-.6-1.08-.24-.26-.52-.39-.84-.39-.33,0-.63,.2-.88,.6s-.47,.94-.65,1.6c-.18,.67-.34,1.44-.46,2.31-.12,.87-.23,1.77-.31,2.72-.08,.94-.15,1.89-.2,2.83-.05,.94-.09,1.83-.11,2.66-.02,.83-.04,1.56-.05,2.19,0,.63-.01,1.11-.01,1.43-.02,.67-.03,1.26-.04,1.78,0,.52-.02,1.03-.04,1.53s-.03,1.04-.04,1.6c0,.57-.01,1.24-.01,2.01Z"/><path d="M241.4,227.11c-.07,.13-.2,.41-.41,.84s-.48,.92-.8,1.47c-.33,.55-.71,1.13-1.14,1.73s-.92,1.15-1.45,1.65c-.54,.5-1.11,.91-1.73,1.24-.62,.33-1.27,.49-1.96,.49-.97,0-1.78-.31-2.44-.93-.66-.62-1.14-1.4-1.44-2.33-.57,.95-1.25,1.71-2.03,2.27s-1.57,.84-2.36,.84c-.62,0-1.18-.11-1.68-.34s-.93-.54-1.28-.95c-.35-.41-.62-.89-.81-1.44s-.29-1.15-.29-1.8c0-1.3,.22-2.45,.66-3.45s1.01-1.83,1.69-2.49c.68-.67,1.44-1.17,2.27-1.5s1.62-.5,2.39-.5c.52,0,.99,.07,1.43,.21,.43,.14,.81,.3,1.12,.46,.31,.17,.55,.32,.71,.46,.17,.14,.26,.22,.28,.24,.18,.22,.28,.44,.28,.68,0,.25-.09,.47-.28,.66s-.4,.29-.65,.29c-.27,0-.49-.09-.68-.28-.03-.03-.11-.1-.23-.19s-.28-.19-.48-.29c-.2-.1-.44-.19-.71-.26s-.59-.11-.94-.11c-.52,0-1.07,.12-1.65,.35-.58,.23-1.12,.6-1.6,1.09-.49,.49-.89,1.11-1.22,1.85s-.49,1.62-.49,2.64c0,.32,.03,.64,.1,.96s.18,.62,.35,.89c.17,.27,.39,.48,.68,.65,.28,.17,.63,.25,1.05,.25,.3,0,.65-.1,1.04-.3s.77-.51,1.13-.93c.36-.42,.68-.94,.98-1.58,.29-.63,.5-1.39,.61-2.26,.03-.23,.14-.43,.33-.59,.18-.16,.4-.24,.65-.24,.23,0,.44,.09,.61,.28,.18,.18,.27,.39,.29,.63,.02,.32,.05,.76,.1,1.34s.16,1.15,.34,1.72c.18,.57,.44,1.06,.79,1.48,.35,.42,.83,.63,1.45,.63,.4,0,.8-.11,1.19-.33s.78-.5,1.15-.86,.73-.77,1.08-1.23c.34-.46,.66-.92,.94-1.39,.28-.47,.53-.92,.75-1.35,.22-.43,.4-.81,.55-1.13,.08-.18,.2-.33,.36-.43s.33-.15,.51-.15c.28,0,.51,.1,.69,.31s.26,.43,.26,.66c0,.12-.02,.23-.08,.35Z"/><path d="M245.46,231.88c.25-.5,.57-1.12,.96-1.87,.39-.74,.8-1.49,1.23-2.24,.43-.75,.84-1.46,1.25-2.13,.41-.67,.76-1.18,1.04-1.53,.48-.58,.99-1,1.5-1.25,.52-.25,.99-.38,1.43-.38s.81,.09,1.12,.28c.31,.18,.56,.43,.76,.74,.2,.31,.35,.67,.45,1.08,.1,.41,.15,.85,.15,1.32,0,.27-.01,.62-.04,1.05-.02,.44-.05,.9-.07,1.4-.03,.5-.05,1.02-.08,1.55-.03,.53-.05,1.04-.06,1.5,.25-.5,.54-1.06,.85-1.67,.32-.61,.64-1.22,.96-1.82s.64-1.17,.94-1.69,.58-.96,.83-1.29c.72-.99,1.39-1.64,2.02-1.98,.63-.33,1.18-.5,1.67-.5,.57,0,1.04,.1,1.4,.31,.37,.21,.66,.48,.86,.8,.21,.33,.35,.69,.44,1.09,.08,.4,.12,.79,.12,1.15,0,.57-.04,1.16-.12,1.78-.08,.62-.12,1.35-.12,2.21,0,.35,.02,.7,.05,1.05s.1,.66,.21,.93c.11,.27,.28,.49,.51,.65,.23,.17,.55,.25,.95,.25,.43,0,.86-.11,1.28-.34s.82-.52,1.2-.89c.38-.37,.75-.79,1.09-1.25,.34-.47,.66-.94,.94-1.4,.28-.47,.53-.92,.75-1.34,.22-.43,.39-.79,.53-1.09,.08-.18,.2-.33,.35-.43s.32-.15,.5-.15c.28,0,.51,.1,.69,.31,.17,.21,.26,.43,.26,.66,0,.12-.02,.23-.08,.35-.07,.13-.2,.41-.4,.84-.2,.43-.47,.91-.8,1.45-.33,.54-.72,1.12-1.17,1.72s-.93,1.16-1.47,1.67c-.54,.51-1.11,.93-1.73,1.25-.62,.33-1.27,.49-1.96,.49-.74,0-1.33-.13-1.79-.39-.46-.26-.83-.6-1.1-1.04-.28-.43-.46-.93-.56-1.5s-.15-1.16-.15-1.78c0-.82,.04-1.58,.12-2.27,.08-.69,.13-1.23,.13-1.62,0-.42-.04-.74-.11-.95s-.17-.37-.28-.46c-.11-.09-.21-.14-.31-.15-.1,0-.17-.01-.23-.01-.4,0-.82,.22-1.27,.66-.44,.44-.9,1.03-1.37,1.77-.47,.74-.95,1.57-1.44,2.51-.49,.94-.99,1.89-1.49,2.86-.28,.54-.52,.98-.71,1.33-.19,.35-.38,.63-.55,.83-.18,.2-.35,.34-.51,.43-.17,.08-.35,.12-.55,.12-.43,0-.76-.15-.99-.45s-.34-.69-.34-1.18c0-.25,0-.58,.03-1,.02-.42,.03-.88,.05-1.38s.04-1.02,.08-1.55,.06-1.05,.08-1.54c.02-.49,.03-.93,.05-1.32,.02-.38,.02-.68,.02-.88,0-.43-.08-.75-.23-.94s-.33-.29-.53-.29c-.18,0-.39,.07-.61,.2s-.49,.39-.79,.78c-.23,.3-.53,.74-.89,1.32-.36,.58-.74,1.21-1.14,1.92-.4,.7-.8,1.42-1.19,2.16-.39,.74-.73,1.4-1.02,1.98-.35,.7-.7,1.18-1.05,1.44-.35,.26-.69,.39-1.03,.39-.48,0-.84-.15-1.08-.44-.23-.29-.35-.68-.35-1.17,0-.05,.01-.35,.04-.9,.03-.55,.05-1.22,.09-2.02,.03-.79,.07-1.64,.11-2.54s.08-1.75,.11-2.53c.02-.42,0-.8-.05-1.15-.05-.35-.12-.56-.2-.63-.13,.03-.4,.34-.79,.93-.39,.58-.89,1.6-1.49,3.06-.08,.18-.21,.33-.38,.43-.17,.1-.34,.15-.53,.15-.28,0-.51-.1-.68-.29-.17-.19-.25-.41-.25-.66,0-.12,.02-.24,.08-.38,.75-1.79,1.47-3.1,2.16-3.95,.68-.84,1.35-1.27,2-1.27,.38,0,.71,.09,.96,.26,.26,.18,.46,.4,.61,.68,.15,.28,.26,.59,.33,.94,.07,.35,.1,.69,.1,1.03,0,1.49-.04,2.85-.11,4.08-.08,1.24-.15,2.48-.24,3.73Z"/><path d="M276.56,214.43c0,.63-.22,1.17-.66,1.62-.44,.44-.98,.66-1.62,.66s-1.17-.22-1.62-.66c-.44-.44-.66-.98-.66-1.62,0-.32,.06-.61,.17-.89s.28-.52,.49-.73c.21-.21,.45-.37,.73-.49,.28-.12,.57-.17,.89-.17s.61,.06,.89,.17c.28,.12,.52,.28,.73,.49s.37,.45,.49,.73c.12,.28,.17,.57,.17,.89Zm-4.06,14.69c0-2.41,.15-4.8,.45-7.19,.03-.23,.14-.44,.31-.61s.4-.26,.69-.26c.25,0,.46,.1,.63,.29s.25,.41,.25,.66c0,.1-.02,.4-.06,.9s-.09,1.1-.15,1.79-.11,1.43-.15,2.21-.06,1.49-.06,2.14c0,.89,.09,1.6,.26,2.14,.17,.54,.4,.96,.68,1.27,.28,.3,.57,.5,.88,.6,.31,.1,.61,.15,.89,.15,.47,0,.95-.17,1.45-.5s1.02-.8,1.54-1.4c.53-.6,1.06-1.32,1.59-2.17,.53-.84,1.06-1.78,1.58-2.82,.08-.17,.2-.3,.35-.39s.32-.14,.5-.14c.27,0,.49,.1,.66,.3,.18,.2,.26,.42,.26,.65,0,.17-.03,.31-.1,.43-.2,.38-.45,.85-.75,1.4-.3,.55-.64,1.12-1.03,1.7-.38,.58-.81,1.17-1.27,1.74s-.95,1.09-1.47,1.55c-.52,.46-1.06,.83-1.63,1.12-.57,.28-1.14,.43-1.73,.43-.75,0-1.41-.16-1.98-.48-.57-.32-1.05-.74-1.44-1.28-.39-.53-.69-1.17-.88-1.89-.19-.73-.29-1.51-.29-2.34Zm2.66-14.69c0-.23-.09-.44-.26-.61-.18-.18-.38-.26-.61-.26s-.43,.09-.6,.26-.25,.38-.25,.61,.08,.43,.25,.6,.37,.25,.6,.25,.44-.08,.61-.25c.17-.17,.26-.37,.26-.6Z"/><path d="M297.51,227.16c-.18,.38-.41,.84-.69,1.37-.28,.53-.59,1.07-.94,1.64-.35,.57-.74,1.13-1.18,1.69-.43,.56-.91,1.06-1.42,1.5s-1.05,.8-1.63,1.08c-.58,.28-1.19,.41-1.84,.41-1,0-1.86-.31-2.58-.93-.72-.62-1.33-1.43-1.83-2.43-.5-1-.91-2.14-1.21-3.42-.31-1.28-.55-2.58-.71-3.91s-.28-2.62-.34-3.87c-.06-1.25-.09-2.36-.09-3.33,0-1.4,.05-2.86,.14-4.36,.09-1.5,.24-2.97,.44-4.41s.46-2.8,.76-4.08c.31-1.29,.68-2.41,1.1-3.38,.43-.97,.92-1.74,1.47-2.31,.55-.57,1.18-.85,1.88-.85,.55,0,1.05,.13,1.49,.39,.44,.26,.81,.68,1.12,1.27,.3,.58,.53,1.35,.7,2.28,.17,.94,.25,2.08,.25,3.43,0,1.67-.18,3.4-.53,5.17s-.83,3.57-1.43,5.38c-.6,1.8-1.31,3.6-2.13,5.4s-1.7,3.55-2.63,5.25c.42,2.12,.98,3.79,1.68,5,.7,1.21,1.54,1.82,2.53,1.82,.67,0,1.31-.26,1.93-.79s1.19-1.15,1.7-1.87c.52-.72,.97-1.45,1.37-2.19s.7-1.34,.92-1.79c.08-.17,.2-.3,.35-.39s.32-.14,.5-.14c.28,0,.51,.1,.69,.3,.18,.2,.26,.43,.26,.68,0,.1-.03,.23-.1,.4Zm-12.56-10.07c0,1.07,.03,2.1,.08,3.08,.05,.99,.12,1.93,.2,2.83,.7-1.35,1.37-2.79,2-4.32,.63-1.53,1.19-3.07,1.68-4.64,.48-1.56,.87-3.12,1.17-4.66s.44-3.02,.44-4.42c0-1.97-.16-3.38-.48-4.23s-.74-1.28-1.28-1.28c-.35,0-.69,.24-1.01,.73-.33,.48-.63,1.14-.92,1.98-.28,.84-.54,1.82-.78,2.96-.23,1.14-.43,2.36-.59,3.66-.16,1.3-.28,2.67-.38,4.08s-.14,2.83-.14,4.24Z"/><path d="M299.89,214.43c0,.63-.22,1.17-.66,1.62-.44,.44-.98,.66-1.62,.66s-1.17-.22-1.62-.66c-.44-.44-.66-.98-.66-1.62,0-.32,.06-.61,.17-.89s.28-.52,.49-.73c.21-.21,.45-.37,.73-.49,.28-.12,.57-.17,.89-.17s.61,.06,.89,.17c.28,.12,.52,.28,.73,.49s.37,.45,.49,.73c.12,.28,.17,.57,.17,.89Zm-4.06,14.69c0-2.41,.15-4.8,.45-7.19,.03-.23,.14-.44,.31-.61s.4-.26,.69-.26c.25,0,.46,.1,.63,.29s.25,.41,.25,.66c0,.1-.02,.4-.06,.9s-.09,1.1-.15,1.79-.11,1.43-.15,2.21-.06,1.49-.06,2.14c0,.89,.09,1.6,.26,2.14,.17,.54,.4,.96,.68,1.27,.28,.3,.57,.5,.88,.6,.31,.1,.61,.15,.89,.15,.47,0,.95-.17,1.45-.5s1.02-.8,1.54-1.4c.53-.6,1.06-1.32,1.59-2.17,.53-.84,1.06-1.78,1.58-2.82,.08-.17,.2-.3,.35-.39s.32-.14,.5-.14c.27,0,.49,.1,.66,.3,.18,.2,.26,.42,.26,.65,0,.17-.03,.31-.1,.43-.2,.38-.45,.85-.75,1.4-.3,.55-.64,1.12-1.03,1.7-.38,.58-.81,1.17-1.27,1.74s-.95,1.09-1.47,1.55c-.52,.46-1.06,.83-1.63,1.12-.57,.28-1.14,.43-1.73,.43-.75,0-1.41-.16-1.98-.48-.57-.32-1.05-.74-1.44-1.28-.39-.53-.69-1.17-.88-1.89-.19-.73-.29-1.51-.29-2.34Zm2.66-14.69c0-.23-.09-.44-.26-.61-.18-.18-.38-.26-.61-.26s-.43,.09-.6,.26-.25,.38-.25,.61,.08,.43,.25,.6,.37,.25,.6,.25,.44-.08,.61-.25c.17-.17,.26-.37,.26-.6Z"/><path d="M325.95,227.11c-.07,.13-.2,.41-.41,.84s-.48,.92-.8,1.47c-.33,.55-.71,1.13-1.14,1.73s-.92,1.15-1.45,1.65c-.54,.5-1.11,.91-1.73,1.24-.62,.33-1.27,.49-1.96,.49-.97,0-1.78-.31-2.44-.93-.66-.62-1.14-1.4-1.44-2.33-.57,.95-1.25,1.71-2.03,2.27s-1.57,.84-2.36,.84c-.62,0-1.18-.11-1.68-.34s-.93-.54-1.28-.95c-.35-.41-.62-.89-.81-1.44s-.29-1.15-.29-1.8c0-1.3,.22-2.45,.66-3.45s1.01-1.83,1.69-2.49c.68-.67,1.44-1.17,2.27-1.5s1.62-.5,2.39-.5c.52,0,.99,.07,1.43,.21,.43,.14,.81,.3,1.12,.46,.31,.17,.55,.32,.71,.46,.17,.14,.26,.22,.28,.24,.18,.22,.28,.44,.28,.68,0,.25-.09,.47-.28,.66s-.4,.29-.65,.29c-.27,0-.49-.09-.68-.28-.03-.03-.11-.1-.23-.19s-.28-.19-.48-.29c-.2-.1-.44-.19-.71-.26s-.59-.11-.94-.11c-.52,0-1.07,.12-1.65,.35-.58,.23-1.12,.6-1.6,1.09-.49,.49-.89,1.11-1.22,1.85s-.49,1.62-.49,2.64c0,.32,.03,.64,.1,.96s.18,.62,.35,.89c.17,.27,.39,.48,.68,.65,.28,.17,.63,.25,1.05,.25,.3,0,.65-.1,1.04-.3s.77-.51,1.13-.93c.36-.42,.68-.94,.98-1.58,.29-.63,.5-1.39,.61-2.26,.03-.23,.14-.43,.33-.59,.18-.16,.4-.24,.65-.24,.23,0,.44,.09,.61,.28,.18,.18,.27,.39,.29,.63,.02,.32,.05,.76,.1,1.34s.16,1.15,.34,1.72c.18,.57,.44,1.06,.79,1.48,.35,.42,.83,.63,1.45,.63,.4,0,.8-.11,1.19-.33s.78-.5,1.15-.86,.73-.77,1.08-1.23c.34-.46,.66-.92,.94-1.39,.28-.47,.53-.92,.75-1.35,.22-.43,.4-.81,.55-1.13,.08-.18,.2-.33,.36-.43s.33-.15,.51-.15c.28,0,.51,.1,.69,.31s.26,.43,.26,.66c0,.12-.02,.23-.08,.35Z"/></g><rect class="e" x="103.81" y="313.21" width="201.49" height="34.42" rx="17.21" ry="17.21"/><g><path class="d" d="M151.84,331.62c.05-.55,.18-.78,.73-.78h2c.55,0,.7,.22,.76,.77l.43,4.42,.02,6.76c0,.55-.21,.78-.75,.78h-2.83c-.55,.01-.73-.22-.73-.77l-.02-6.76,.4-4.42Zm-.38-4.96c0-.55,.18-.76,.73-.76h2.81c.55-.01,.75,.2,.76,.74v2.16c0,.55-.2,.78-.74,.78h-2.81c-.55,.01-.73-.22-.73-.77v-2.16Z"/><path class="d" d="M171.11,334.6c0,2.24-1.49,4.45-6.38,4.47-4.89,.02-6.4-2.19-6.41-4.42l-.03-9.2c0-2.24,1.49-4.45,6.38-4.47,4.89-.02,6.4,2.19,6.41,4.42v1.2c0,.55-.18,.78-.72,.78h-2.68c-.55,.01-.75-.22-.76-.77v-.44c0-1.2-.92-1.69-2.19-1.68-1.27,0-2.16,.5-2.15,1.7l.03,7.7c0,1.2,.89,1.69,2.16,1.68,1.27,0,2.18-.5,2.18-1.7v-.83c0-.55,.2-.78,.75-.78h2.68c.55-.01,.73,.22,.73,.77v1.59Z"/><path class="d" d="M177.44,338.03c0,.55-.18,.78-.73,.78h-2.68c-.55,.01-.75-.22-.76-.77l-.06-16.61c0-.55,.21-.78,.75-.78h2.68c.55-.01,.73,.22,.73,.77l.06,16.61Z"/><path class="d" d="M184.1,323.55c0,.55-.18,.75-.73,.76h-2.68c-.55,.01-.76-.2-.76-.74v-2.16c0-.55,.2-.78,.74-.78h2.68c.55-.01,.73,.22,.73,.77v2.16Zm.06,14.46c0,.55-.18,.78-.73,.78h-2.68c-.55,.01-.75-.22-.76-.77l-.04-11.44c0-.55,.21-.78,.75-.78h2.68c.55-.01,.73,.22,.73,.77l.04,11.44Z"/><path class="d" d="M197.72,329.59v.39c0,.55-.2,.75-.75,.76h-2.47c-.55,0-.75-.2-.76-.74v-.08c0-.86-.47-1.12-1.56-1.11-1.09,0-1.56,.26-1.56,1.12l.02,4.65c0,.86,.47,1.14,1.56,1.14,1.09,0,1.56-.29,1.56-1.15v-.31c0-.55,.2-.75,.75-.76h2.47c.55,0,.75,.2,.76,.74v.65c.01,2.47-1.7,4.06-5.63,4.08s-5.62-1.57-5.63-4.04l-.02-5.3c0-2.47,1.7-4.06,5.63-4.08,3.93-.01,5.62,1.57,5.63,4.04Z"/><path class="d" d="M204.43,329.44c0-2.47,1.68-3.93,5.5-3.95,3.93-.01,5.49,1.44,5.5,3.91l.03,8.5c0,.55-.21,.78-.75,.78h-2.39c-.57,0-.68-.22-.76-.77l-.05-.39c-.75,.63-1.95,1.38-3.63,1.39-2.63,0-3.83-1.6-3.83-3.32v-1.12c0-1.77,1.44-3.36,4.15-3.37h3.17v-1.44c0-.81-.4-1.19-1.49-1.19-1.09,0-1.56,.27-1.56,1.07v.18c0,.55-.21,.76-.75,.76h-2.37c-.55,0-.75-.2-.76-.74v-.31Zm6.93,5.28v-.86h-2.39c-.75,.01-.88,.43-.88,.82v.34c0,.6,.5,.67,.89,.67,.88,0,1.79-.55,2.39-.97Z"/><path class="d" d="M225.63,326.43c.05-.55,.21-.78,.75-.78h2.5c.55,0,.75,.22,.76,.77l.06,16.62c0,.55-.21,.78-.75,.78h-2.68c-.55,.01-.73-.22-.73-.77l-.02-5.51c-.75,.55-1.97,1.33-3.9,1.34-2.63,0-3.85-1.52-3.86-3.99l-.02-5.41c0-2.47,1.21-4.01,3.83-4.02,2.03,0,3.28,.87,4.01,1.42l.05-.44Zm-3.72,7.79c0,.52,.03,1.09,1.02,1.09,.99,0,2.03-.68,2.57-1.07v-4.16c-.56-.39-1.6-1.06-2.59-1.06-.99,0-1.01,.58-1.01,1.09v4.11Z"/><path class="d" d="M239.84,337.43c-.67,.58-1.84,1.38-3.87,1.39-2.37,0-3.83-1.5-3.83-3.6l-.03-8.81c0-.55,.21-.78,.75-.78h2.62c.55-.01,.78,.22,.78,.77l.03,7.75c0,.81,.16,1.12,.99,1.11,.99,0,1.95-.63,2.44-1.02l-.03-7.85c0-.55,.18-.78,.72-.78h2.68c.55-.01,.75,.22,.76,.77l.04,11.47c0,.55-.21,.75-.75,.76h-2.5c-.55,0-.68-.2-.76-.74l-.05-.42Z"/><path class="d" d="M250.61,337.78c0,.55-.18,.78-.73,.78h-2.68c-.55,.01-.75-.22-.76-.77l-.04-11.44c0-.55,.21-.78,.75-.78h2.68c.55-.01,.73,.22,.73,.77l.04,11.44Zm-.23-14.22c-.16,.24-.47,.52-1.01,.52h-2.05c-.47,0-.65-.2-.42-.75l1.03-2.4c.21-.47,.52-.78,1.06-.78h2.78c.55-.01,.7,.33,.39,.77l-1.79,2.63Z"/><path class="d" d="M257.17,332.82c-.05,.55-.18,.78-.73,.78h-2c-.55,0-.7-.22-.76-.77l-.43-4.42-.02-6.76c0-.55,.21-.78,.75-.78h2.83c.55-.01,.73,.22,.73,.77l.02,6.76-.4,4.42Zm.38,4.96c0,.55-.18,.75-.72,.76h-2.81c-.55,.01-.75-.2-.76-.74v-2.16c0-.55,.2-.78,.74-.78h2.81c.55-.01,.73,.22,.73,.77v2.16Z"/></g></g></g></svg>