<svg width="167" height="53" viewBox="0 0 167 53" fill="none" xmlns="http://www.w3.org/2000/svg">
<g clip-path="url(#clip0_4151_79)">
<path d="M40.7364 11.4681C44.4442 11.5169 44.4442 5.80698 40.7364 5.85578C37.0286 5.80698 37.0286 11.5169 40.7364 11.4681Z" fill="white"/>
<path d="M52.0579 27.9152C51.6624 27.9152 51.3164 27.5736 51.3164 27.1831V3.5625H46.7187V28.208C46.6692 32.0146 51.0692 31.9658 53.8377 31.7706V27.9152H52.0579Z" fill="white"/>
<path d="M0 5.27148V11.2742H3.90557V9.71255H9.88751V27.9161H8.10776V31.7715H16.5616V27.9161H14.7818V9.71255H20.7143V11.2742H24.6199V5.27148H0Z" fill="white"/>
<path d="M43.06 27.9148V14.2012H33.123V18.1054H38.4623V27.9148H33.123V31.7702H44.9386V27.9148H43.06Z" fill="white"/>
<path d="M20.7146 14.2012V27.9148H18.8359V31.7702H30.7998V27.9148H25.3617V18.1054H30.7998V14.2012C28.8223 14.2012 22.6426 14.25 20.7146 14.2012Z" fill="white"/>
<path d="M76.5295 21.2286C76.7767 16.5923 85.3788 16.0555 85.0328 21.2286H76.5295ZM88.444 17.7636C85.8732 12.9809 78.3587 13.0297 74.6509 16.2507C70.9431 20.3013 70.3498 26.6945 75.8868 30.5011C77.0239 31.9164 85.9226 31.8676 86.9608 31.6236V27.8658C84.2912 28.061 77.4194 28.305 76.925 24.4496H89.1361C89.4327 22.7903 89.2844 19.3741 88.444 17.7636Z" fill="white"/>
<path d="M70.2015 21.3273C70.0532 14.7877 71.6846 14.6901 63.9724 14.0068C52.2062 13.0308 50.5254 32.1615 63.2308 31.7711H68.9161V27.9157H64.5162C55.4197 27.8181 58.5343 15.6173 66.3454 18.1551V21.2785H70.2015V21.3273Z" fill="white"/>
<path d="M14.2379 47.3384C14.7323 50.1202 7.61325 50.1202 8.10763 47.3384C8.55257 44.8495 6.47619 40.262 11.1728 40.4572C13.9413 40.506 14.3368 41.6285 14.2379 43.1902C14.2379 43.4342 14.139 43.5318 13.9413 43.5318C13.6446 43.4342 12.4581 43.7758 12.5076 43.1902C13.0019 41.6285 9.73907 41.4333 9.83794 42.8974V47.0456C9.64019 48.3633 12.6559 48.3145 12.5076 47.0456C12.557 46.7528 12.3593 46.1672 12.8536 46.216C13.9907 46.2648 14.3862 45.9719 14.2379 47.3384Z" fill="white"/>
<path d="M20.7638 42.8967C20.9121 41.6278 17.7976 41.579 17.9459 42.8967V47.0449C17.7976 48.3626 20.9121 48.3138 20.7638 47.0449V42.8967ZM16.2156 42.5551C15.7706 39.7733 22.9885 39.7733 22.593 42.5551V47.3378C23.0379 50.1195 15.8201 50.1195 16.2156 47.3378V42.5551Z" fill="white"/>
<path d="M26.6963 47.9244C26.9435 48.0708 30.1075 47.5828 29.9592 48.2172C29.9097 48.5101 30.1569 49.4373 29.6131 49.3397C29.4153 49.1933 24.6199 49.7301 24.9165 48.9981V40.8968C24.8177 40.3112 26.103 40.6528 26.3502 40.5552C26.5974 40.5552 26.6468 40.6528 26.6468 40.8968V47.9244H26.6963Z" fill="white"/>
<path d="M32.1345 49.339C31.8873 49.339 31.8379 49.2414 31.8379 48.9974V40.8961C31.8379 40.6521 31.9368 40.5545 32.1345 40.5545C32.3323 40.7009 37.1771 40.2128 36.93 40.8473C36.8805 41.1401 37.1277 42.0673 36.5839 41.9697H33.5682V44.0683C33.8648 44.2147 36.8311 43.7266 36.7322 44.3611C36.6828 44.6539 36.93 45.5324 36.3861 45.4347H33.5682V47.8261C33.8648 47.9725 37.2266 47.4845 37.0288 48.1189C36.9794 48.4117 37.2266 49.339 36.6828 49.2414H32.1345" fill="white"/>
<path d="M44.8401 44.7517C45.4828 44.6053 45.0378 47.0942 45.1861 47.3382C45.6805 50.12 38.5615 50.12 39.0559 47.3382V42.5556C38.8087 39.1394 47.0648 40.1642 44.8895 43.3852C42.2693 43.7268 44.5434 41.9211 42.121 41.8723C39.8469 41.5307 41.0828 45.923 40.7862 46.9966C40.5884 48.3143 43.6041 48.2655 43.4558 46.9966V46.1182C42.3188 46.0694 41.6266 46.5574 41.8244 44.9957C41.6761 44.4101 44.5434 44.8981 44.8401 44.7517Z" fill="white"/>
<path d="M49.1903 48.9981C49.2892 49.5837 48.0038 49.2421 47.7566 49.3397C47.5094 49.3397 47.46 49.2421 47.46 48.9981V40.8968C47.3611 40.3112 48.6465 40.6528 48.8937 40.5552C49.1409 40.5552 49.1903 40.6528 49.1903 40.8968V48.9981Z" fill="white"/>
<path d="M56.1116 42.8967C56.2599 41.6278 53.1453 41.579 53.2937 42.8967V47.0449C53.1453 48.3626 56.2599 48.3138 56.1116 47.0449V42.8967ZM51.5139 42.5551C51.069 39.7733 58.2869 39.7733 57.8914 42.5551V47.3378C58.3363 50.1195 51.1184 50.1195 51.5139 47.3378V42.5551Z" fill="white"/>
<path d="M105.351 11.5176H105.055V35.2358H105.351V11.5176Z" fill="white"/>
<path d="M162.502 16.9346C159.486 14.0064 155.877 12.4936 151.625 12.4936C148.313 12.4936 145.347 13.4208 142.825 15.2265L146.484 1.6105H166.061V0H145.297L140.452 17.7643L141.787 18.1059H142.084V17.9595C144.704 15.4217 147.917 14.1041 151.675 14.1041C155.432 14.1041 158.695 15.4217 161.364 18.0571C164.034 20.6924 165.369 23.9134 165.369 27.6225C165.369 31.3315 164.034 34.5525 161.364 37.1878C158.695 39.8232 155.432 41.1409 151.675 41.1409C147.917 41.1409 144.655 39.8232 141.985 37.139C141.441 36.651 140.996 36.1142 140.601 35.5774L140.502 35.4309L139.167 36.407L139.266 36.5534C139.711 37.139 140.205 37.7735 140.798 38.3103C143.765 41.2385 147.423 42.7514 151.675 42.7514C155.877 42.7514 159.535 41.2385 162.551 38.3103C165.517 35.3821 167.05 31.7707 167.05 27.5737C167 23.4742 165.468 19.8628 162.502 16.9346Z" fill="white"/>
<path d="M137.436 25.4744V2.3418H136.151V25.4744H122.605L131.158 2.3418H129.774L121.221 25.4744H121.122V26.7433H136.151V33.2341H137.436V26.7433H143.072V25.4744H137.436Z" fill="white"/>
<path d="M144.358 51.9271H140.403L140.007 52.8056H139.414L142.183 46.9492H142.628L145.396 52.8056H144.803L144.358 51.9271ZM144.111 51.3903L142.38 47.7301L140.65 51.3903H144.111Z" fill="white"/>
<path d="M146.138 46.9485H146.533L150.29 51.7312V46.9485H150.834V52.8048H150.439L146.731 48.0222V52.8048H146.187V46.9485H146.138ZM149.846 45.582V46.1188C149.598 46.2164 149.351 46.2652 149.153 46.2652C148.956 46.2652 148.758 46.2164 148.511 46.1676C148.313 46.1188 148.066 46.07 147.868 46.07C147.67 46.07 147.423 46.1188 147.176 46.2164V45.6796C147.423 45.582 147.67 45.5332 147.868 45.5332C148.115 45.5332 148.313 45.582 148.56 45.6308C148.758 45.6796 148.956 45.7284 149.153 45.7284C149.351 45.7284 149.549 45.6796 149.846 45.582Z" fill="white"/>
<path d="M158.201 49.8773C158.201 50.7557 157.904 51.4878 157.261 52.0734C156.668 52.6591 155.926 53.0007 155.037 53.0007C154.147 53.0007 153.405 52.7079 152.812 52.0734C152.219 51.4878 151.873 50.7557 151.873 49.8773C151.873 48.9988 152.169 48.2668 152.812 47.6812C153.405 47.0955 154.147 46.7539 155.037 46.7539C155.926 46.7539 156.668 47.0467 157.261 47.6812C157.904 48.3156 158.201 49.0476 158.201 49.8773ZM155.037 47.2907C154.295 47.2907 153.702 47.5348 153.207 48.0228C152.713 48.5108 152.466 49.1452 152.466 49.8285C152.466 50.5605 152.713 51.1462 153.207 51.6342C153.702 52.1222 154.344 52.3662 155.037 52.3662C155.778 52.3662 156.371 52.1222 156.866 51.6342C157.36 51.1462 157.607 50.5117 157.607 49.8285C157.607 49.0964 157.36 48.5108 156.866 48.0228C156.371 47.5836 155.778 47.2907 155.037 47.2907Z" fill="white"/>
<path d="M162.6 47.974C162.452 47.7788 162.205 47.6324 161.958 47.5348C161.661 47.3883 161.364 47.3395 161.068 47.3395C160.623 47.3395 160.277 47.4371 160.03 47.6324C159.782 47.8276 159.634 48.0716 159.634 48.3644C159.634 48.6084 159.733 48.8524 159.931 49.0476C160.128 49.2429 160.326 49.3893 160.623 49.4869L162.106 49.8773C162.452 49.9749 162.749 50.1701 162.996 50.4141C163.243 50.6581 163.342 50.9998 163.342 51.3902C163.342 51.8294 163.144 52.2198 162.798 52.5127C162.403 52.8543 161.908 53.0007 161.265 53.0007C160.722 53.0007 160.277 52.9031 159.881 52.6591C159.486 52.415 159.189 52.1222 158.942 51.7806L159.387 51.4878C159.585 51.8294 159.881 52.0734 160.227 52.2198C160.573 52.415 160.919 52.4638 161.265 52.4638C161.809 52.4638 162.205 52.3662 162.452 52.1222C162.699 51.8782 162.847 51.6342 162.847 51.3414C162.847 51.0974 162.749 50.9022 162.6 50.7069C162.452 50.5117 162.205 50.4141 161.958 50.3165L160.573 49.9261C160.178 49.7797 159.832 49.5845 159.585 49.3405C159.337 49.0476 159.189 48.7548 159.189 48.3644C159.189 47.9252 159.387 47.5836 159.733 47.2419C160.079 46.9491 160.573 46.7539 161.167 46.7539C161.612 46.7539 162.007 46.8515 162.353 46.9979C162.699 47.1443 162.996 47.3883 163.194 47.6324L162.6 47.974Z" fill="white"/>
</g>
<defs>
<clipPath id="clip0_4151_79">
<rect width="167" height="53" fill="white"/>
</clipPath>
</defs>
</svg>
