<svg width="410" height="300" viewBox="0 0 410 300" fill="none" xmlns="http://www.w3.org/2000/svg">
<g clip-path="url(#clip0)">
<path d="M241.607 299.906C324.447 299.906 391.603 232.77 391.603 149.953C391.603 67.1363 324.447 0 241.607 0C158.767 0 91.6117 67.1363 91.6117 149.953C91.6117 232.77 158.767 299.906 241.607 299.906Z" fill="#06AFBB"/>
<path d="M241.607 243.979C326.676 243.979 395.639 239.105 395.639 233.094C395.639 227.082 326.676 222.208 241.607 222.208C156.538 222.208 87.5756 227.082 87.5756 233.094C87.5756 239.105 156.538 243.979 241.607 243.979Z" fill="#029093"/>
<path d="M321.955 190.116H153.187C148.494 190.116 144.645 186.268 144.645 181.577V76.9472C144.645 72.2553 148.494 68.408 153.187 68.408H321.955C326.648 68.408 330.497 72.2553 330.497 76.9472V181.577C330.497 186.268 326.648 190.116 321.955 190.116Z" fill="#2C4775"/>
<path d="M322.706 76.9473H152.342V185.049H322.706V76.9473Z" fill="#FCFCFC"/>
<path d="M327.118 190.491C326.836 190.21 326.461 190.116 326.179 190.116H237.571H148.963C148.587 190.116 148.212 190.21 148.024 190.491L110.854 225.024C109.915 225.868 110.572 227.463 111.793 227.463H237.571H363.349C364.663 227.463 365.321 225.868 364.288 225.024L327.118 190.491Z" fill="#FCFCFC"/>
<path d="M364.57 226.9V233.563C364.288 233.938 363.913 234.22 363.349 234.22H237.571H111.793C111.323 234.22 110.948 234.032 110.666 233.657V227.557" fill="#2C4775"/>
<path d="M334.158 206.631L322.331 193.869C322.049 193.588 321.674 193.4 321.298 193.4H237.571H153.844C153.468 193.4 153.093 193.588 152.811 193.869L140.984 206.631C140.14 207.476 140.797 208.883 142.017 208.883H237.571H333.125C334.345 208.883 334.908 207.476 334.158 206.631Z" fill="#2C4775"/>
<path d="M237.571 212.449H198.523C197.96 212.449 197.491 212.731 197.303 213.294L193.361 222.302C192.985 223.241 193.642 224.179 194.581 224.179H237.571H280.561C281.5 224.179 282.157 223.147 281.781 222.302L277.839 213.294C277.651 212.825 277.182 212.449 276.619 212.449H237.571Z" fill="#C7ECFF"/>
<path d="M237.571 74.3198C238.349 74.3198 238.979 73.6896 238.979 72.9122C238.979 72.1348 238.349 71.5046 237.571 71.5046C236.793 71.5046 236.163 72.1348 236.163 72.9122C236.163 73.6896 236.793 74.3198 237.571 74.3198Z" fill="#FCFCFC"/>
<path d="M297.081 93.8381H175.151V180.075H297.081V93.8381Z" fill="#C7ECFF"/>
<path d="M297.081 169.565H175.151V180.075H297.081V169.565Z" fill="#98D2F0"/>
<path d="M182.003 172.568L182.097 176.415L184.819 174.538L182.003 172.568Z" fill="white"/>
<path d="M188.386 172.661V176.415" stroke="white" stroke-width="0.7902" stroke-miterlimit="10" stroke-linecap="round" stroke-linejoin="round"/>
<path d="M190.076 172.568L190.169 176.416" stroke="white" stroke-width="0.7902" stroke-miterlimit="10" stroke-linecap="round" stroke-linejoin="round"/>
<path d="M194.769 174.07L193.924 173.413V175.665L194.863 175.008L196.458 176.603L196.365 172.474L194.769 174.07Z" fill="white"/>
<path d="M196.646 175.196C197.022 175.196 197.303 174.914 197.303 174.445C197.303 174.07 197.022 173.788 196.552 173.788L196.646 175.196Z" fill="white"/>
<path d="M196.645 172.944C197.302 173.131 197.866 173.694 197.866 174.445C197.866 175.196 197.396 175.853 196.645 176.04" stroke="white" stroke-width="0.3266" stroke-miterlimit="10" stroke-linecap="round" stroke-linejoin="round"/>
<path d="M286.381 173.882V172.662V172.568H287.507" stroke="white" stroke-width="0.6655" stroke-miterlimit="10" stroke-linecap="round" stroke-linejoin="round"/>
<path d="M290.229 173.788V172.568C290.229 172.568 290.229 172.568 290.135 172.568H289.009" stroke="white" stroke-width="0.6655" stroke-miterlimit="10" stroke-linecap="round" stroke-linejoin="round"/>
<path d="M290.229 175.196V176.416V176.509H289.103" stroke="white" stroke-width="0.6655" stroke-miterlimit="10" stroke-linecap="round" stroke-linejoin="round"/>
<path d="M286.381 175.196V176.416C286.381 176.416 286.381 176.416 286.474 176.416H287.601" stroke="white" stroke-width="0.6655" stroke-miterlimit="10" stroke-linecap="round" stroke-linejoin="round"/>
<path d="M284.222 174.163L283.846 173.975V173.881L284.034 173.506C284.034 173.412 284.034 173.225 283.94 173.225L283.846 173.131C283.752 173.037 283.658 173.037 283.565 173.037L283.189 173.225H283.095L282.908 172.849C282.814 172.755 282.72 172.661 282.626 172.661H282.532C282.438 172.661 282.344 172.755 282.251 172.849L282.063 173.225H281.969L281.593 173.037C281.5 173.037 281.312 173.037 281.312 173.131L281.218 173.225C281.124 173.318 281.124 173.412 281.124 173.506L281.312 173.881V173.975L280.936 174.163C280.843 174.257 280.749 174.351 280.749 174.444V174.538C280.749 174.632 280.843 174.726 280.936 174.82L281.312 175.007V175.101L281.124 175.477C281.124 175.57 281.124 175.758 281.218 175.758L281.312 175.852C281.406 175.946 281.5 175.946 281.593 175.946L281.969 175.758H282.063L282.251 176.133C282.344 176.227 282.438 176.321 282.532 176.321H282.626C282.72 176.321 282.814 176.227 282.908 176.133L283.095 175.758H283.189L283.565 175.946C283.658 175.946 283.846 175.946 283.846 175.852L283.94 175.758C284.034 175.664 284.034 175.57 284.034 175.477L283.846 175.101V175.007L284.222 174.82C284.316 174.726 284.409 174.632 284.409 174.538V174.444C284.409 174.351 284.316 174.257 284.222 174.163ZM282.438 175.289C281.969 175.289 281.687 174.914 281.687 174.538C281.687 174.069 282.063 173.788 282.438 173.788C282.908 173.788 283.189 174.163 283.189 174.538C283.189 174.914 282.908 175.289 282.438 175.289Z" fill="white"/>
<path d="M322.706 76.9473H152.342V88.9585H322.706V76.9473Z" fill="#C7ECFF"/>
<path d="M166.14 80.7947V86.3311L169.519 83.6098L166.14 80.7947Z" fill="#2C4775"/>
<path d="M162.855 86.3311V80.7947L159.57 83.6098L162.855 86.3311Z" fill="#2C4775"/>
<path d="M291.919 86.3312H178.155C176.653 86.3312 175.433 85.1113 175.433 83.6099C175.433 82.1084 176.653 80.8885 178.155 80.8885H291.919C293.42 80.8885 294.641 82.1084 294.641 83.6099C294.641 85.1113 293.42 86.3312 291.919 86.3312Z" fill="#FCFCFC"/>
<path d="M302.713 85.2989C303.646 85.2989 304.402 84.5427 304.402 83.6099C304.402 82.677 303.646 81.9208 302.713 81.9208C301.78 81.9208 301.023 82.677 301.023 83.6099C301.023 84.5427 301.78 85.2989 302.713 85.2989Z" fill="#F66F5B"/>
<path d="M308.345 85.2989C309.278 85.2989 310.034 84.5427 310.034 83.6099C310.034 82.677 309.278 81.9208 308.345 81.9208C307.412 81.9208 306.655 82.677 306.655 83.6099C306.655 84.5427 307.412 85.2989 308.345 85.2989Z" fill="#4EA6D1"/>
<path d="M313.883 85.2989C314.816 85.2989 315.572 84.5427 315.572 83.6099C315.572 82.677 314.816 81.9208 313.883 81.9208C312.95 81.9208 312.193 82.677 312.193 83.6099C312.193 84.5427 312.95 85.2989 313.883 85.2989Z" fill="#2C4775"/>
<path d="M263.29 128.651C269.016 120.018 274.741 108.289 274.741 97.1218C274.741 74.413 256.344 56.0208 233.629 56.0208C210.913 56.0208 192.516 74.413 192.516 97.1218C192.516 119.831 210.913 138.223 233.629 138.223V159.993C233.629 159.993 255.03 141.132 263.29 128.651Z" fill="#06B26B"/>
<path d="M233.629 55.9275C233.159 55.9275 232.596 55.9275 232.127 55.9275V138.13C232.596 138.13 233.159 138.13 233.629 138.13V159.9C233.629 159.9 255.03 141.132 263.29 128.558C269.016 119.925 274.741 108.195 274.741 97.0285C274.835 74.4136 256.344 55.9275 233.629 55.9275Z" fill="#0A9154"/>
<path d="M261.506 84.7358L252.026 88.677V85.1111C252.026 82.9528 250.243 81.1699 248.084 81.1699H212.509C210.35 81.1699 208.567 82.9528 208.567 85.1111V106.882C208.567 109.04 210.35 110.823 212.509 110.823H248.084C250.243 110.823 252.026 109.04 252.026 106.882V103.222L261.506 107.163V84.7358Z" fill="white"/>
<path d="M252.026 88.677V85.1111C252.026 82.9528 250.243 81.1699 248.084 81.1699H232.127V110.729H248.084C250.243 110.729 252.026 108.946 252.026 106.788V103.222L261.506 107.163V84.7358L252.026 88.677Z" fill="#E9EDF5"/>
<path d="M87.294 71.9737L62.2322 46.2621L87.951 21.2074L70.4922 3.37818L44.7734 28.3391L19.7115 2.72131L1.87729 20.0813L26.8452 45.7929L1.12637 70.8477L18.5852 88.7707L44.304 63.716L69.3659 89.4276L87.294 71.9737Z" stroke="#FF5E34" stroke-width="1.7661" stroke-miterlimit="10"/>
<path d="M395.357 48.2328C387.285 48.2328 380.714 41.6641 380.714 33.594C380.714 25.524 387.285 18.9553 395.357 18.9553C403.43 18.9553 410 25.524 410 33.594C410 41.6641 403.43 48.2328 395.357 48.2328ZM395.357 21.4889C388.693 21.4889 383.155 26.9316 383.155 33.6879C383.155 40.4442 388.599 45.8868 395.357 45.8868C402.115 45.8868 407.56 40.4442 407.56 33.6879C407.56 26.9316 402.115 21.4889 395.357 21.4889Z" fill="#06AFBB"/>
</g>
<defs>
<clipPath id="clip0">
<rect width="410" height="300" fill="white"/>
</clipPath>
</defs>
</svg>
