<svg width="543" height="357" viewBox="0 0 543 357" fill="none" xmlns="http://www.w3.org/2000/svg">
<g clip-path="url(#clip0)">
<path d="M543 0H0V295.154H543V0Z" fill="white"/>
<path d="M286.625 197.062H256.375V237.971H286.625V197.062Z" fill="#FBB98B"/>
<path d="M310.824 322.074V251.607L286.625 227.238H256.375L232.176 251.607V322.074H310.824Z" fill="#036DC4"/>
<path d="M256.375 227.238L263.916 240.17L271.544 227.238H256.375Z" fill="#EAEAEA"/>
<path d="M271.544 227.238L279.084 240.17L286.625 227.238H271.544Z" fill="#EAEAEA"/>
<path d="M362.029 322.074L332.043 239.466L309.334 247.824L336.251 322.074H362.029Z" fill="#3C3C3A"/>
<path d="M332.043 322.074V239.466L286.625 227.238V322.074H332.043Z" fill="#3C3C3A"/>
<path d="M256.375 322.074V227.238L210.957 239.466V322.074H256.375Z" fill="#3C3C3A"/>
<path d="M206.749 322.074L233.666 247.824L210.957 239.466L180.971 322.074H206.749Z" fill="#3C3C3A"/>
<path d="M355.979 153.515C355.979 164.424 347.124 173.222 336.339 173.222C325.467 173.222 316.699 164.336 316.699 153.515C316.699 142.607 325.555 133.809 336.339 133.809C347.211 133.721 355.979 142.607 355.979 153.515Z" fill="#FBB98B"/>
<path d="M226.389 153.515C226.389 164.424 217.621 173.222 206.749 173.222C195.876 173.222 187.108 164.336 187.108 153.515C187.108 142.607 195.964 133.809 206.749 133.809C217.533 133.721 226.389 142.607 226.389 153.515Z" fill="#FBB98B"/>
<path d="M345.984 138.296V72.3149H197.016V138.296C197.016 144.278 201.926 149.205 207.888 149.205H335.112C341.161 149.205 345.984 144.278 345.984 138.296Z" fill="#ED4E3C"/>
<path d="M336.339 111.992C336.339 76.098 307.317 46.9785 271.544 46.9785C235.771 46.9785 206.749 76.098 206.749 111.992V152.46C206.749 188.353 235.771 217.473 271.544 217.473C307.317 217.473 336.339 188.353 336.339 152.46V111.992Z" fill="#FDCDA4"/>
<path d="M244.977 144.806C244.977 149.557 241.119 153.428 236.384 153.428C231.65 153.428 227.792 149.557 227.792 144.806C227.792 140.055 231.65 136.185 236.384 136.185C241.119 136.185 244.977 140.055 244.977 144.806Z" fill="#3C3C3A"/>
<path d="M244.1 129.234H228.493C226.301 129.234 224.46 127.475 224.46 125.187C224.46 122.988 226.213 121.141 228.493 121.141H244.1C246.292 121.141 248.133 122.9 248.133 125.187C248.133 127.475 246.292 129.234 244.1 129.234Z" fill="#3C3C3A"/>
<path d="M315.296 144.806C315.296 149.557 311.438 153.428 306.703 153.428C301.969 153.428 298.111 149.557 298.111 144.806C298.111 140.055 301.969 136.185 306.703 136.185C311.438 136.185 315.296 140.055 315.296 144.806Z" fill="#3C3C3A"/>
<path d="M314.507 129.234H298.9C296.708 129.234 294.867 127.475 294.867 125.187C294.867 122.988 296.62 121.141 298.9 121.141H314.507C316.699 121.141 318.54 122.9 318.54 125.187C318.54 127.475 316.699 129.234 314.507 129.234Z" fill="#3C3C3A"/>
<path d="M251.816 173.397C251.816 184.306 260.584 193.104 271.456 193.104C282.328 193.104 291.096 184.218 291.096 173.397H251.816Z" fill="white"/>
<path d="M355.716 57.0075V37.3013H231.913C212.623 37.3013 197.016 52.9607 197.016 72.3151V92.0213H320.82C340.022 92.0213 355.716 76.2739 355.716 57.0075Z" fill="#FF7258"/>
<path d="M263.916 158.882C263.916 163.105 267.335 166.536 271.544 166.536C275.752 166.536 279.172 163.105 279.172 158.882V143.838C279.172 139.616 275.752 136.185 271.544 136.185C267.335 136.185 263.916 139.616 263.916 143.838V158.882Z" fill="#FBB98B"/>
<path d="M543 295.154H0V357H543V295.154Z" fill="#444058"/>
<path d="M523.009 306.415H17.6236V309.23H523.009V306.415Z" fill="#D8E2E8"/>
<path d="M224.021 306.415H17.6236V309.23H224.021V306.415Z" fill="#FF4C41"/>
<path d="M114.422 322.162V341.077L127.749 331.663L114.422 322.162Z" fill="white"/>
<path d="M133.273 322.162H130.117V341.077H133.273V322.162Z" fill="white"/>
<path d="M76.4566 322.162V341.077L89.784 331.663L76.4566 322.162Z" fill="white"/>
<path d="M51.8187 322.162V341.077L38.4914 331.663L51.8187 322.162Z" fill="white"/>
<path d="M32.9936 341.096H36.1501V322.182H32.9936V341.096Z" fill="white"/>
<path d="M427.789 328.144L427.175 326.648C427.175 326.648 428.578 323.393 428.49 323.305L426.561 321.458C426.386 321.37 423.23 322.778 423.23 322.778L421.739 322.162C421.739 322.162 420.424 318.907 420.249 318.907H417.53C417.355 318.907 416.128 322.25 416.128 322.25L414.637 322.866C414.637 322.866 411.305 321.458 411.218 321.546L409.289 323.393C409.113 323.481 410.691 326.736 410.691 326.736L410.078 328.232C410.078 328.232 406.746 329.552 406.746 329.728V332.367C406.746 332.543 410.078 333.774 410.078 333.774L410.691 335.27C410.691 335.27 409.289 338.525 409.376 338.613L411.305 340.46C411.393 340.548 414.637 339.141 414.637 339.141L416.128 339.757C416.128 339.757 417.443 343.012 417.618 343.012H420.336C420.512 343.012 421.739 339.669 421.739 339.669L423.23 339.053C423.23 339.053 426.561 340.46 426.649 340.372L428.578 338.525C428.666 338.437 427.175 335.182 427.175 335.182L427.789 333.686C427.789 333.686 431.121 332.367 431.121 332.191V329.552C431.209 329.376 427.789 328.144 427.789 328.144ZM422.879 330.871C422.879 332.983 421.125 334.742 418.933 334.742C416.741 334.742 414.988 332.983 414.988 330.871C414.988 328.76 416.741 327 418.933 327C421.125 327.088 422.879 328.76 422.879 330.871Z" fill="white"/>
<path d="M476.451 339.933H448.569V321.546H476.451V339.933ZM450.586 337.909H474.347V323.569H450.586V337.909Z" fill="white"/>
<path d="M506.35 321.634H513.452V328.76H515.556V319.611H506.35V321.634Z" fill="white"/>
<path d="M495.302 328.76V321.634H502.404V319.611H493.286V328.76H495.302Z" fill="white"/>
<path d="M513.452 332.719V339.845H506.35V341.957H515.556V332.719H513.452Z" fill="white"/>
<path d="M502.404 339.845H495.302V332.719H493.286V341.957H502.404V339.845Z" fill="white"/>
<path d="M229.019 307.734C229.019 310.461 226.827 312.573 224.197 312.573C221.479 312.573 219.374 310.373 219.374 307.734C219.374 305.095 221.566 302.896 224.197 302.896C226.827 302.896 229.019 305.095 229.019 307.734Z" fill="#FF4C41"/>
<path d="M331.254 157.034C331.166 155.627 331.166 154.131 330.991 152.723C330.552 146.565 329.851 139.615 325.818 134.689C322.398 130.466 317.05 129.586 311.964 128.97C305.564 128.267 299.075 127.827 292.587 127.563C279.523 127.035 266.371 127.387 253.306 127.651C246.555 127.827 239.892 127.915 233.14 128.531C224.898 129.146 216.393 130.378 212.623 138.648C209.204 146.037 209.642 155.451 209.554 163.456C209.554 170.582 209.467 177.796 209.817 184.922C210.168 194.159 210.694 206.3 220.69 210.347C226.038 212.546 232.439 212.986 238.138 213.338C244.188 213.69 250.238 213.69 256.288 213.778C268.913 213.954 281.627 213.514 294.253 213.25C303.021 213.074 312.052 212.986 320.469 210.083C327.747 207.619 329.588 199.702 330.64 192.84C331.604 186.066 331.341 179.116 331.341 172.254C331.341 167.151 331.429 162.049 331.254 157.034ZM258.129 188.881C258.129 176.477 258.129 164.16 258.129 151.668C268.65 157.826 278.997 163.984 289.694 170.23C279.084 176.565 268.65 182.723 258.129 188.881Z" fill="#FF4C41"/>
</g>
<defs>
<clipPath id="clip0">
<rect width="543" height="357" fill="white"/>
</clipPath>
</defs>
</svg>
