<svg width="413" height="292" viewBox="0 0 413 292" fill="none" xmlns="http://www.w3.org/2000/svg">
<g clip-path="url(#clip0)">
<path d="M25.3745 291.787C25.3745 291.787 -25.3746 222.856 16.7748 148.181C54.1465 81.909 97.7822 86.4831 129.739 113.29C143.329 124.778 182.612 114.673 216.161 47.337C261.814 -44.5712 419.901 11.1695 391.023 152.542C377.115 220.941 433.491 223.494 404.719 291.894L25.3745 291.787Z" fill="#7C4FB8"/>
<path d="M166.532 72.6473C187.997 53.5125 194.245 25.4404 180.487 9.94664C166.729 -5.54712 138.174 -2.59543 116.709 16.5394C95.2434 35.6743 88.9956 63.7463 102.754 79.2401C116.512 94.7339 145.067 91.7822 166.532 72.6473Z" fill="#7C4FB8"/>
<path d="M77.2121 78.1777C81.987 73.9212 81.0869 65.0978 75.2017 58.4702C69.3164 51.8425 60.6746 49.9204 55.8996 54.1769C51.1247 58.4334 52.0248 67.2568 57.91 73.8844C63.7953 80.5121 72.4371 82.4343 77.2121 78.1777Z" fill="#7C4FB8"/>
<path d="M387.201 47.1243C385.29 38.4015 388.687 30.317 394.951 28.8278C401.215 27.4449 407.798 33.2955 409.815 42.0183C411.726 50.741 408.329 58.8256 402.065 60.3148C395.801 61.6977 389.112 55.8471 387.201 47.1243Z" fill="#7C4FB8"/>
<path d="M267.229 143.607C267.229 143.607 253.109 171.796 238.882 191.263C233.149 199.028 227.522 205.411 222.638 208.07C217.86 210.623 213.826 214.665 210.428 219.133C201.722 230.728 197.794 245.195 197.794 245.195L161.272 189.773C161.272 189.773 162.546 135.628 166.899 126.586C173.269 113.396 176.348 86.6958 178.79 81.377C180.595 77.4411 185.797 57.1235 186.328 55.6342C186.54 54.996 188.239 54.0386 190.575 54.0386C192.379 54.0386 195.458 55.7406 196.202 59.3573C200.13 77.5475 195.458 89.4615 195.458 89.9934C196.839 103.929 192.698 114.353 195.565 117.013C195.671 117.119 195.883 117.119 196.202 116.906C201.192 113.715 232.512 67.9737 236.334 67.0164C240.368 65.9526 267.229 143.607 267.229 143.607Z" fill="#FFB792"/>
<path d="M208.73 234.238C208.73 234.238 208.199 258.811 206.819 292H114.663C135.685 247.003 154.052 209.027 154.052 209.027C154.052 209.027 206.5 210.729 208.73 234.238Z" fill="#FF7042"/>
<path d="M299.186 48.0815L287.826 64.6761L276.678 80.9515C276.041 81.8025 275.192 82.0152 274.342 82.0152C271.688 81.8025 268.397 77.8666 265.849 75.7391L265.637 75.5264C262.239 72.7606 261.814 67.6546 264.575 64.2506L281.562 43.7202L286.552 37.6568C289.312 34.2528 294.409 33.8273 297.806 36.593L298.018 36.8058C301.522 39.6779 301.947 44.6775 299.186 48.0815Z" fill="#FFB792"/>
<path d="M287.826 64.7825L276.678 81.0579C276.041 81.9089 275.192 82.1216 274.342 82.1216L281.456 43.8265C281.562 44.0393 282.73 61.1657 287.826 64.7825Z" fill="#F2AC8C"/>
<path d="M238.882 191.263C233.149 199.028 227.522 205.411 222.638 208.07C217.86 210.623 213.826 214.665 210.428 219.133C206.606 217.325 202.147 215.197 197.9 213.176C192.698 210.623 192.486 203.177 197.582 200.411L197.688 200.305C202.466 197.539 207.349 187.859 207.349 187.859L238.882 191.263Z" fill="#F2AC8C"/>
<path d="M186.009 56.4852L183.036 68.5056C183.036 68.5056 185.585 69.5694 187.283 68.7184C188.982 67.8674 190.256 57.1235 186.009 56.4852Z" fill="#F9C9B4"/>
<path d="M239.306 196.901C215.524 196.901 196.095 177.434 196.095 153.606V77.122C196.095 53.2939 215.524 33.8273 239.306 33.8273C263.088 33.8273 282.517 53.2939 282.517 77.122V153.606C282.517 177.434 263.088 196.901 239.306 196.901Z" fill="#56309E"/>
<path d="M278.271 46.3796V183.391C278.271 188.071 274.555 191.794 269.883 191.794H208.73C204.164 191.794 200.342 187.965 200.342 183.391V46.3796C200.342 41.699 204.058 37.9759 208.73 37.9759H269.883C274.449 37.8695 278.271 41.699 278.271 46.3796Z" fill="#F9F9F9"/>
<path d="M269.883 37.8695L209.473 191.794H208.73C204.164 191.794 200.342 187.965 200.342 183.391V46.3795C200.342 41.699 204.058 37.9759 208.73 37.9759H269.883V37.8695Z" fill="#F9F9F9"/>
<path d="M251.834 42.9755H226.885C224.655 42.9755 222.85 41.1671 222.85 38.9332C222.85 36.6994 224.655 34.891 226.885 34.891H251.834C254.064 34.891 255.869 36.6994 255.869 38.9332C255.869 41.1671 254.064 42.9755 251.834 42.9755Z" fill="#56309E"/>
<path d="M198.728 70.3096H279.898V138.093H198.728V70.3096Z" fill="#0F9D58"/>
<path d="M257.355 106.462C260.157 106.462 262.424 104.191 262.424 101.383C262.424 98.5759 260.157 96.3043 257.355 96.3043C254.553 96.3043 252.285 98.5759 252.285 101.383C252.285 104.169 254.553 106.462 257.355 106.462ZM257.355 109.848C251.922 109.848 246.083 112.72 246.083 116.299V120.006H268.626V116.299C268.626 112.72 262.787 109.848 257.355 109.848ZM221.293 106.462C224.095 106.462 226.362 104.191 226.362 101.383C226.362 98.5759 224.095 96.3043 221.293 96.3043C218.491 96.3043 216.224 98.5759 216.224 101.383C216.203 104.169 218.491 106.462 221.293 106.462ZM221.293 109.848C215.86 109.848 210.021 112.72 210.021 116.299V120.006H232.565V116.299C232.565 112.72 226.705 109.848 221.293 109.848Z" fill="#57BB8A"/>
<path d="M239.324 101.94C243.067 101.94 246.083 98.9188 246.083 95.1685C246.083 91.4183 243.067 88.3966 239.324 88.3966C235.581 88.3966 232.565 91.4183 232.565 95.1685C232.565 98.9188 235.581 101.94 239.324 101.94ZM239.324 106.462C231.71 106.462 223.539 110.513 223.539 115.506V120.028H255.109V115.506C255.109 110.513 246.938 106.462 239.324 106.462Z" fill="#F7F7F7"/>
<path d="M248.35 133.571H268.648V138.093H248.35V133.571Z" fill="#F1F1F1"/>
<path d="M282.166 61.266H196.482C192.739 61.266 189.723 64.2876 189.723 68.0379V140.343C189.723 144.094 192.739 147.115 196.482 147.115H282.166C285.909 147.115 288.924 144.094 288.924 140.343V68.0593C288.924 64.3091 285.909 61.266 282.166 61.266ZM279.92 138.093H198.728V70.3095H279.898V138.093H279.92Z" fill="#F4B400"/>
<path opacity="0.2" d="M282.166 61.266H196.482C192.739 61.266 189.723 64.2876 189.723 68.0379V68.5951C189.723 64.8448 192.739 61.8232 196.482 61.8232H282.166C285.909 61.8232 288.924 64.8448 288.924 68.5951V68.0594C288.924 64.3091 285.909 61.266 282.166 61.266Z" fill="white"/>
<path opacity="0.2" d="M282.166 146.558H196.482C192.739 146.558 189.723 143.536 189.723 139.786V140.343C189.723 144.093 192.739 147.115 196.482 147.115H282.166C285.909 147.115 288.924 144.093 288.924 140.343V139.786C288.924 143.536 285.909 146.558 282.166 146.558Z" fill="#BF360C"/>
<path d="M268.605 138.093H248.307L257.333 147.137H277.61L268.605 138.093Z" fill="url(#paint0_linear)"/>
<path opacity="0.2" d="M198.728 69.7523H279.898V70.3095H198.728V69.7523Z" fill="#263238"/>
<path opacity="0.2" d="M198.728 138.093H279.898V138.65H198.728V138.093Z" fill="white"/>
<path d="M293.559 110.949L291.86 111.588L280.5 115.949C280.182 116.055 279.969 116.162 279.651 116.162C275.935 117.119 271.901 115.098 270.52 111.375L270.308 110.949C268.822 107.013 270.839 102.439 274.767 100.95L285.384 96.9078L286.127 96.5886L287.826 95.9504C291.754 94.4611 296.32 96.4823 297.806 100.418L298.018 100.844C299.505 104.886 297.487 109.354 293.559 110.949Z" fill="#FFB792"/>
<path d="M284.322 111.162C282.411 111.907 279.014 113.183 277.209 113.396C276.678 113.502 275.723 113.183 274.873 112.226C274.342 111.588 273.812 110.843 273.493 109.673C273.281 109.141 273.175 108.609 273.068 108.077C272.962 107.439 273.068 106.801 273.175 106.162C273.281 105.631 273.705 105.099 274.236 104.78C276.147 103.822 278.802 102.758 281.137 102.12C282.73 101.695 284.322 102.333 284.853 103.822L285.066 104.46L286.233 107.758C286.658 109.035 285.809 110.63 284.322 111.162Z" fill="#FCEBE3"/>
<path d="M284.322 111.162C282.411 111.907 279.014 113.183 277.209 113.396C276.678 113.502 275.723 113.183 274.873 112.226C274.767 112.013 274.661 111.8 274.555 111.481C274.342 110.949 274.236 110.417 274.13 109.886C274.024 109.247 274.13 108.609 274.236 107.971C274.342 107.439 274.767 106.907 275.298 106.588C277.209 105.631 279.863 104.567 282.199 103.929C283.261 103.609 284.216 103.822 284.959 104.354L286.127 107.652C286.658 109.035 285.809 110.63 284.322 111.162Z" fill="#F9C9B4"/>
<path d="M288.357 126.906L279.651 129.246C276.997 129.99 274.236 128.395 273.493 125.735L273.175 124.778C272.431 122.119 274.024 119.353 276.678 118.608L285.384 116.268C288.038 115.523 290.799 117.119 291.542 119.778L291.86 120.736C292.604 123.395 291.011 126.161 288.357 126.906Z" fill="#FFB792"/>
<path d="M283.685 126.48C282.093 126.906 279.12 127.65 277.634 127.757C277.103 127.757 275.935 127.331 275.298 125.842C275.086 125.523 274.979 125.097 274.873 124.565C274.767 124.14 274.661 123.714 274.661 123.289C274.661 122.757 274.767 122.331 274.873 121.8C274.979 121.374 275.404 120.949 275.829 120.842C277.528 120.204 279.757 119.566 281.668 119.247C283.048 119.034 284.322 119.672 284.641 120.736L284.853 121.48L285.49 123.821C285.703 124.991 284.959 126.161 283.685 126.48Z" fill="#FCEBE3"/>
<path d="M283.685 126.48C282.093 126.906 279.12 127.65 277.634 127.757C277.103 127.757 275.935 127.331 275.298 125.842C275.192 125.416 275.086 124.991 275.086 124.672C275.086 124.14 275.192 123.714 275.298 123.182C275.404 122.757 275.829 122.331 276.253 122.225C277.952 121.587 280.182 120.949 282.093 120.629C283.155 120.417 284.216 120.842 284.747 121.587L285.384 123.927C285.703 124.991 284.959 126.161 283.685 126.48Z" fill="#F9C9B4"/>
<path d="M145.028 227.749C145.028 227.749 163.077 245.089 175.18 251.684L184.417 245.195V254.875C184.417 254.875 202.466 258.066 208.199 254.875V228.6L157.45 203.07L145.028 227.749Z" fill="#FF4A1E"/>
<path d="M212.021 252.747C205.014 254.237 189.938 248.705 189.938 248.705L192.379 225.196L175.286 244.663C166.58 241.472 153.097 232.962 145.028 227.749C140.993 225.09 138.339 223.282 138.339 223.282C149.699 204.985 161.166 187.752 161.166 187.752C164.563 194.454 172.42 200.304 181.125 204.985C195.458 212.75 211.596 217.325 211.596 217.325C211.49 231.366 212.021 252.747 212.021 252.747Z" fill="#EAEAEA"/>
<path d="M293.241 94.1421C293.134 94.1421 293.134 94.1421 293.028 94.2484L281.562 97.2269C276.466 98.5034 271.263 95.7377 269.989 91.1635L269.352 88.8233C268.078 84.3555 270.839 79.675 275.51 78.1858L279.332 77.2284L286.977 75.2073C292.073 73.9308 297.275 76.6965 298.549 81.2707L299.186 83.6109C300.46 87.9723 297.806 92.5464 293.241 94.1421Z" fill="#FFB792"/>
<path d="M288.038 90.8444L282.411 93.3974C282.199 93.5037 281.987 93.5037 281.774 93.5037C281.668 93.5037 281.562 93.5037 281.456 93.5037H281.35C280.713 93.5037 280.288 92.8655 280.606 92.2272C281.137 91.0571 281.243 89.7806 280.925 88.3977L280.819 87.8659L280.394 86.2702C280.076 84.9937 279.332 83.93 278.377 83.1853C278.271 83.079 278.164 82.9726 278.058 82.9726C276.997 82.228 277.209 80.526 278.483 80.1005L284.641 79.1431C286.127 78.7176 287.614 79.8877 288.038 81.377L288.569 83.1853L289.631 87.0149C289.843 88.7169 289.525 90.5252 288.038 90.8444Z" fill="#FCEBE3"/>
<path d="M288.038 90.8445L282.411 93.3975C282.305 93.3975 281.88 93.5038 281.35 93.6102C280.713 93.6102 280.288 92.972 280.606 92.3337C281.137 91.1636 281.243 89.8871 280.925 88.5042L280.819 87.9723L280.394 86.3767C280.076 85.1002 279.332 84.0364 278.377 83.2918C278.589 82.9727 278.908 82.7599 279.226 82.6536L285.384 81.6962C286.658 81.3771 287.932 82.1217 288.463 83.2918L289.525 87.1213C289.843 88.717 289.525 90.5253 288.038 90.8445Z" fill="#F9C9B4"/>
<path d="M371.169 292H303.539C300.248 289.872 283.473 278.278 276.466 269.768C274.979 267.959 269.565 252.322 265.424 239.557C262.876 231.579 260.753 224.771 260.328 223.282C260.222 222.75 260.116 221.686 260.116 220.197C259.903 214.984 260.222 204.985 260.434 197.007V196.901C260.434 196.581 260.434 196.156 260.434 195.837V195.73C260.434 194.348 260.54 193.071 260.54 191.901C260.647 188.922 260.753 186.689 260.753 185.838V185.412C260.859 185.306 264.15 183.604 268.503 186.795C269.565 187.54 270.52 189.348 271.37 191.795C271.901 193.284 272.431 195.092 272.962 196.901C274.873 204.028 276.253 212.538 276.997 214.772C278.165 218.495 291.967 234.557 292.816 235.621V210.091L282.411 182.114L278.165 170.626L276.041 164.882C276.041 164.882 272.75 159.456 269.989 152.968C268.822 150.095 267.654 147.011 267.017 144.138C266.804 143.394 266.698 142.756 266.592 142.117C266.167 139.671 266.167 137.33 266.698 135.522C267.76 132.224 269.989 131.586 271.688 131.693C271.901 131.693 272.007 131.693 272.219 131.693C272.431 131.693 272.538 131.693 272.75 131.799C273.068 131.905 273.387 132.012 273.599 132.118C274.024 132.331 274.449 132.756 274.767 133.182C274.767 133.182 276.254 135.097 278.271 137.756C279.545 139.458 281.137 141.479 282.518 143.394C285.172 146.798 287.507 149.989 288.251 150.946C291.86 156.052 301.522 172.541 301.522 172.541L312.882 172.966C314.687 173.073 316.386 173.711 317.66 174.987C321.694 178.71 330.4 186.901 331.462 188.071C331.462 188.497 338.257 191.688 343.459 194.56C347.175 196.156 354.288 201.687 354.288 201.687C355.775 202.964 356.836 204.24 357.473 205.517C359.915 210.836 366.498 256.79 369.577 279.554C370.426 286.681 371.063 291.681 371.169 292Z" fill="#FFB792"/>
<path d="M301.522 172.221C301.522 172.221 312.033 189.348 313.413 190.092C314.793 190.837 320.208 191.901 320.845 190.092C321.376 188.284 301.522 172.221 301.522 172.221Z" fill="#F2AC8C"/>
<path d="M354.182 201.581C354.182 201.581 347.069 195.943 343.353 194.347C338.575 191.688 332.523 188.71 331.568 187.965C332.63 189.241 340.486 198.071 343.459 198.709C346.113 199.347 352.059 201.049 354.182 201.581Z" fill="#F2AC8C"/>
<path d="M293.028 235.515V209.985C293.028 209.985 299.08 220.09 299.505 225.728C299.929 231.26 296.957 240.195 293.028 235.515Z" fill="#F2AC8C"/>
<path d="M271.051 141.904C270.202 140.415 268.609 137.649 268.078 136.054C267.972 135.628 267.972 134.777 268.503 133.82C268.822 133.288 269.352 132.65 270.096 132.118C270.414 131.905 270.839 131.692 271.157 131.48C271.582 131.267 272.113 131.267 272.538 131.267C272.962 131.267 273.493 131.48 273.705 132.012C274.767 133.501 276.041 135.628 276.997 137.543C277.634 138.82 277.421 140.309 276.466 141.053L276.041 141.373L273.812 142.968C273.068 143.606 271.794 143.075 271.051 141.904Z" fill="#FCEBE3"/>
<path d="M271.051 141.905C270.202 140.415 268.609 137.65 268.078 136.054C267.972 135.628 267.972 134.777 268.503 133.82C268.609 133.714 268.822 133.607 268.928 133.501C269.246 133.288 269.671 133.075 269.989 132.863C270.414 132.65 270.945 132.65 271.37 132.65C271.794 132.65 272.325 132.863 272.538 133.395C273.599 134.884 274.873 137.011 275.829 138.926C276.253 139.777 276.253 140.628 276.041 141.373L273.812 142.968C273.068 143.607 271.794 143.075 271.051 141.905Z" fill="#F9C9B4"/>
<path d="M315.536 151.797L342.185 160.52L326.259 144.883L324.561 148.712H317.766L315.536 151.797Z" fill="#6139BC"/>
<path d="M342.185 160.52L321.482 144.777L299.292 139.671L342.185 160.52Z" fill="#EBE7F7"/>
<path d="M326.259 144.883L342.185 160.52L331.568 138.607L326.259 144.883Z" fill="#EBE7F7"/>
<path d="M157.98 52.1239L133.031 55.6343L149.593 44.3585L150.442 47.9753L156.494 49.039L157.98 52.1239Z" fill="#6139BC"/>
<path d="M133.031 55.6343L153.84 44.8904L174.224 43.933L133.031 55.6343Z" fill="#EBE7F7"/>
<path d="M149.593 44.3585L133.031 55.6342L145.877 37.976L149.593 44.3585Z" fill="#EBE7F7"/>
<path d="M337.195 281.575L317.023 292H303.539C300.248 289.872 283.473 278.278 276.466 269.768C274.979 267.959 269.565 252.322 265.424 239.557C265.955 241.259 277.528 265.938 280.819 268.81C284.11 271.576 301.416 287.958 306.193 287.851C310.971 287.639 335.602 281.894 337.195 281.575C337.089 281.575 337.195 281.575 337.195 281.575Z" fill="#F2AC8C"/>
<path d="M377.858 292H305.025C308.635 290.617 322.65 285.192 337.089 281.575C337.089 281.575 337.089 281.575 337.195 281.575C349.617 278.384 362.463 276.469 369.364 279.341V279.448L377.858 292Z" fill="#C8D1CE"/>
<path d="M260.54 195.624C261.814 195.198 263.513 194.879 264.362 196.262C265.637 198.496 260.859 217.75 260.222 220.09L260.54 195.624Z" fill="#F2AC8C"/>
<path d="M260.859 185.306L260.434 196.9C260.434 196.9 262.876 197.326 264.256 196.262C265.743 195.305 264.999 185.199 260.859 185.306Z" fill="#F9C9B4"/>
<path d="M212.021 252.748C205.014 254.237 189.938 248.705 189.938 248.705L192.379 225.196L175.286 244.663C166.58 241.472 153.097 232.962 145.028 227.749C165.731 225.515 181.125 205.091 181.125 205.091C195.458 212.857 211.596 217.431 211.596 217.431C211.49 231.366 212.021 252.748 212.021 252.748Z" fill="#C8D1CE"/>
<path d="M163.926 231.366C163.926 229.77 165.2 228.494 166.793 228.6C168.385 228.6 169.659 229.877 169.553 231.472C169.553 233.068 168.279 234.345 166.686 234.238C165.2 234.238 163.926 232.962 163.926 231.366Z" fill="#FF4A1E"/>
</g>
<defs>
<linearGradient id="paint0_linear" x1="262.947" y1="138.195" x2="262.947" y2="140.01" gradientUnits="userSpaceOnUse">
<stop stop-color="#BF360C" stop-opacity="0.2"/>
<stop offset="1" stop-color="#BF360C" stop-opacity="0.02"/>
</linearGradient>
<clipPath id="clip0">
<rect width="413" height="292" fill="white"/>
</clipPath>
</defs>
</svg>
