<svg width="396" height="353" viewBox="0 0 396 353" fill="none" xmlns="http://www.w3.org/2000/svg">
<g clip-path="url(#clip0)">
<path d="M384.9 317.3C391.7 297.8 395.4 276.8 395.4 255C395.4 150.4 310.6 65.6001 206 65.6001C101.4 65.6001 16.6 150.4 16.6 255C16.6 276.8 20.3 297.8 27.1 317.3H384.9Z" fill="#C7ECFF"/>
<path d="M51.5 111.5H0.8C0.3 111.5 0 111.1 0 110.7V59.9001C0 59.4001 0.4 59.1001 0.8 59.1001H51.5C52 59.1001 52.3 59.5001 52.3 59.9001V110.6C52.4 111.1 52 111.5 51.5 111.5ZM1.7 109.8H50.8V60.8001H1.7V109.8Z" fill="#FD425F"/>
<path d="M205.2 352.8C292.351 352.8 363 348.054 363 342.2C363 336.346 292.351 331.6 205.2 331.6C118.049 331.6 47.4 336.346 47.4 342.2C47.4 348.054 118.049 352.8 205.2 352.8Z" fill="#C7ECFF"/>
<path d="M210.9 26.6H194.2L180.7 41.9L187.3 26.6H175.2C174.2 26.6 173.4 25.8 173.4 24.8V1.8C173.4 0.8 174.2 0 175.2 0H210.9C211.9 0 212.7 0.8 212.7 1.8V24.8C212.7 25.8 211.9 26.6 210.9 26.6Z" fill="#B3B2DA"/>
<path d="M188.4 19.9H184.1V15.8H188.4V19.9Z" fill="white"/>
<path d="M195.3 19.9H191V15.8H195.3V19.9Z" fill="white"/>
<path d="M202.1 19.9H197.8V15.8H202.1V19.9Z" fill="white"/>
<path d="M296.6 175.1H113.6C109.4 175.1 105.9 171.7 105.9 167.4V59.4C105.9 55.2 109.3 51.7 113.6 51.7H296.6C300.8 51.7 304.3 55.1 304.3 59.4V167.4C304.2 171.6 300.8 175.1 296.6 175.1Z" fill="#111B34"/>
<path d="M292.5 60.2H117.2V157.1H292.5V60.2Z" fill="#F9F9F9"/>
<path d="M280.3 75.2H223.6V147H280.3V75.2Z" fill="#CECDE9"/>
<path d="M274.9 82H228.9V89.2H274.9V82Z" fill="#FD425F"/>
<path d="M274.9 95.2H228.9V102.4H274.9V95.2Z" fill="#3C49B9"/>
<path d="M274.9 108.5H228.9V115.7H274.9V108.5Z" fill="white"/>
<path d="M274.9 121.7H228.9V128.9H274.9V121.7Z" fill="white"/>
<path d="M274.9 135H228.9V142.2H274.9V135Z" fill="white"/>
<path d="M159.8 83.9999C159.8 83.9999 169.1 84.0999 170.4 90.0999C171.7 96.1999 170.5 103 172.1 107.3C173.7 111.6 178.7 123.5 168 124.2C157.4 124.9 155.6 121.8 153 121.7C150.4 121.6 146.5 127.9 138.8 124.3C131.1 120.7 134.5 112.6 137.8 111.6C141.1 110.6 139.8 104.9 139 103C137.3 98.9999 136.1 86.7999 147.5 83.1999C156.7 80.2999 159.8 83.9999 159.8 83.9999Z" fill="#111B34"/>
<path d="M150.8 106.1C150.1 114.3 149.6 124 146.2 130.9C146.6 134.2 148.4 140.5 157 140.3C164.3 140.1 166.4 135.6 167 132.2C163.6 126.4 161.6 118.7 161.1 111.1C157.7 111.1 153.1 107.8 150.8 106.1Z" fill="#EF8B67"/>
<path d="M153.2 87.0998C153.2 87.0998 164.9 87.6998 167.4 90.0998C169.8 92.4998 169.7 97.3998 170.4 104.7C171.1 111.9 166.6 119.9 162.7 120.9C158.8 122 148 115.2 146.5 104C145 92.6998 148.7 86.6998 153.2 87.0998Z" fill="#F4BCA3"/>
<path d="M241.4 120.1C241.4 120.1 247.1 113.7 249.4 110.2C251.6 106.7 259.8 95.2998 261.5 97.0998C263.2 98.8998 256.1 108.3 256.1 108.3C256.1 108.3 262.9 96.0998 265.3 97.3998C267.7 98.6998 259 109.5 259 109.5C259 109.5 266.4 99.1998 267.7 100.6C269 102 267.5 104.3 261.4 111.9C261.4 111.9 266.6 105.4 267.9 107.4C269.2 109.4 263.2 115.2 261.1 116.5C259 117.8 248.7 123.2 245.9 125.9C245.8 125.9 240.9 123.4 241.4 120.1Z" fill="#F4BCA3"/>
<path d="M260.4 109.7C259.8 108.1 257.4 108.3 255.9 108.4C254.1 108.6 252.5 109.2 251.3 110.6C250.7 111.3 250.2 112.1 249.5 112.8C248.2 114.2 249.1 115.3 249.5 116.8C249.6 117.2 252.5 117.7 255.2 116.6C257.2 115.8 259.2 113.6 259.6 112.8C260.2 111.7 260.6 110.2 260.4 109.7Z" fill="#EF8B67"/>
<path d="M250.8 111.5C250.8 111.5 257.3 107.1 259.4 108.4C261.4 109.8 259.6 111.5 252.7 114.3C252.7 114.3 250.4 117.7 248.9 118.1C248.9 118.1 246.5 113.9 250.8 111.5Z" fill="#F4BCA3"/>
<path d="M158.5 84.4C158.5 84.4 161.7 98.4 151.7 100.2C151.7 100.2 149.1 103.8 150.5 108.1C151.9 112.5 155.1 121.8 149.4 123.9C143.6 126.1 139.3 122.5 141.6 113.5C143.9 104.4 143.9 99.5 145.4 92.8C146.7 86.2 149.4 81.4 158.5 84.4Z" fill="#111B34"/>
<path d="M152.7 83.9C152.7 83.9 153.4 96.6 164.4 97.1C175.4 97.6 175.5 89.9 174.1 88C172.8 86.1 167.8 78.7 152.7 83.9Z" fill="#111B34"/>
<path d="M163.8 125.3C163.8 125.3 159.9 130.3 157.9 131C155.9 131.8 148.2 125.5 148.2 125.5C148.2 125.5 137.5 131.5 128.7 132.5C128.7 132.5 120.8 135.4 117.8 157.1H188.7C188.7 157.1 188.2 152.5 188.7 152.5C189.2 152.5 192.6 157.1 198.1 157.1C203.6 157.1 222.2 157.1 222.2 157.1C222.2 157.1 242 137.9 251.1 124.5L242.6 116C242.6 116 213.7 147 211.3 147C208.9 147 190.5 131.5 189.7 131.1C189 130.7 170 130.4 163.8 125.3Z" fill="#0400A3"/>
<path opacity="0.55" d="M263.5 157.1H242.9C242.9 157.1 291.6 119 292.5 118V128.9C287.1 134.4 263.5 157.1 263.5 157.1Z" fill="#F9F9F9"/>
<path opacity="0.55" d="M292.5 70.0999V85.4999C288.8 89.9999 206.3 152.3 201.3 157.1H164.1C174 149.2 288.7 72.9999 292.5 70.0999Z" fill="#F9F9F9"/>
<path opacity="0.55" d="M217.1 60.2H236.7C236.6 60.3 236.4 60.3999 236.3 60.5999C228.2 67.5999 147.7 147.4 138.6 157.2H119.9C131.9 144.6 194.5 81.9 217.1 60.2Z" fill="#F9F9F9"/>
<path opacity="0.55" d="M117.2 108.1V89.1999C127 79.4999 137.3 69.2999 146.6 60.0999H165.7C151.7 73.8999 132.9 92.4999 117.2 108.1Z" fill="#F9F9F9"/>
<path d="M178.1 175.6C178.1 175.6 175.8 172.3 169 173.4C162.2 174.5 158.2 186 158.2 186H177.6C177.6 186 179.3 177.2 178.1 175.6Z" fill="#455114"/>
<path d="M232 175.6C232 175.6 234.3 172.3 241.1 173.4C247.9 174.5 251.9 186 251.9 186H232.5C232.6 186 230.8 177.2 232 175.6Z" fill="#455114"/>
<path d="M178.4 142.6C178.4 142.6 171.6 142.7 166.7 146.5C161.7 150.3 142.4 181.1 141.5 183.6C140.6 186.1 145.5 188.2 151.9 188.2C158.3 188.2 161.3 188.8 163.7 186.1C166.1 183.5 180.3 171.6 184.1 163C187.8 154.4 181.9 142.1 178.4 142.6Z" fill="#627427"/>
<path d="M232.9 142.6C232.9 142.6 239.7 142.7 244.6 146.5C249.6 150.3 268.9 181.1 269.8 183.6C270.7 186.1 265.8 188.2 259.4 188.2C253 188.2 250 188.8 247.6 186.1C245.2 183.5 231 171.6 227.2 163C223.5 154.4 229.4 142.1 232.9 142.6Z" fill="#627427"/>
<path d="M211.3 124.4H200L198 134.9H213.3L211.3 124.4Z" fill="#EF8B67"/>
<path d="M205.8 93.0999H205.7H205.6C199.4 93.0999 190.9 96.5999 190.9 106.7C190.9 116.8 193.4 130 205.7 130C205.7 130 205.7 130 205.8 130C205.8 130 205.8 130 205.9 130C218.2 130 220.7 116.8 220.7 106.7C220.5 96.6999 211.9 93.0999 205.8 93.0999Z" fill="#111B34"/>
<path d="M188.5 299L179.2 304.7C179.2 304.7 182.5 310.4 181.2 312.1C179.9 313.8 172.6 322.1 172.3 326.2C172 330.3 174.3 332.8 175.5 332.4C176.7 332 198.6 316.4 198.1 313.7C197.6 311 188.5 299 188.5 299Z" fill="black"/>
<path d="M221.8 299L231.1 304.7C231.1 304.7 227.8 310.4 229.1 312.1C230.4 313.8 237.7 322.1 238 326.2C238.3 330.3 236 332.8 234.8 332.4C233.6 332 211.7 316.4 212.2 313.7C212.7 311 221.8 299 221.8 299Z" fill="black"/>
<path d="M91.4 186H83.2V342.2H91.4V186Z" fill="#C1CE06"/>
<path d="M326.4 186H318.2V342.2H326.4V186Z" fill="#C1CE06"/>
<path d="M342 186H68.2V190.1H342V186Z" fill="#B3B2DA"/>
<path d="M226.4 210.8C220.5 207.4 189.8 207.4 183.9 210.8C178 214.2 147.6 236.5 147.6 241.9C147.6 247.3 180.6 309.2 180.6 309.2L192.7 303C192.7 303 172.6 251.2 175 248.9C177.4 246.6 205.2 244.9 205.2 244.9C205.2 244.9 232.9 246.6 235.4 248.9C237.8 251.2 217.7 303 217.7 303L229.8 309.2C229.8 309.2 262.8 247.3 262.8 241.9C262.7 236.5 232.3 214.2 226.4 210.8Z" fill="#0C4376"/>
<path d="M212.7 130.7C212.2 130.2 207.8 130.5 205.6 130.5C203.4 130.5 199.1 130.2 198.5 130.7C198 131.2 194.5 139 194.5 139L205.6 141.3L216.7 139C216.7 139 213.2 131.3 212.7 130.7Z" fill="#3C4DB5"/>
<path d="M238.8 332.5C235.9 328.3 213.8 312.3 213.8 312.3H205.1H196.4C196.4 312.3 174.3 328.4 171.4 332.5C168.5 336.7 169.1 341 172.5 341H183.3C183.9 341 184.5 340.6 184.6 339.9C184.7 339.2 184.9 338.2 184.9 336.9C184.9 336.2 184.4 335.6 183.7 335.5C183 335.4 182.3 335.2 182.2 335C182.1 334.4 182.5 333.4 184.7 331.5C188.7 328.2 198.2 320.9 198.2 320.9L204.9 321.1L211.6 320.9C211.6 320.9 221.1 328.2 225.1 331.5C227.3 333.3 227.7 334.4 227.6 335C227.6 335.3 226.8 335.4 226.1 335.5C225.4 335.6 224.9 336.2 224.9 336.9C224.9 338.1 225 339.2 225.2 339.9C225.3 340.5 225.9 341 226.5 341H237.3C241.1 340.9 241.7 336.6 238.8 332.5Z" fill="#111B34"/>
<path d="M205.2 245H197.2L201.2 316.8H205.2H209.1L213.1 245H205.2Z" fill="#111B34"/>
<path d="M205.2 241.9H183.9C183.9 241.9 186.1 266.4 205.2 266.4C224.3 266.4 226.5 241.9 226.5 241.9H205.2Z" fill="#111B34"/>
<path d="M242.3 144C236.9 136.8 205.1 135.4 205.1 135.4C205.1 135.4 173.3 136.8 167.9 144C162.5 151.2 177.3 210.8 182.3 220.4C187.3 230 205.1 229.8 205.1 229.8C205.1 229.8 222.9 230 227.9 220.4C232.9 210.8 247.7 151.2 242.3 144Z" fill="#B3B2DA"/>
<path d="M216 207.5C214.2 206.3 196.2 206.3 194.3 207.5C192.2 208.9 197.3 242.8 198.1 246.2C198.9 249.6 211.4 249.6 212.2 246.2C213 242.8 218.1 208.9 216 207.5Z" fill="#111B34"/>
<path d="M246.7 237.8H163.5V248.9H246.7V237.8Z" fill="#111B34"/>
<path d="M135.4 177.8H84V186H135.4V177.8Z" fill="#0400A3"/>
<path d="M129.8 169.6H78.4V177.8H129.8V169.6Z" fill="#FD425F"/>
<path d="M310.8 166.5H307.9V168.1H310C312.4 168.1 314.4 170.1 314.4 172.5V172.6C314.4 175 312.4 177 310 177H307.9V178.6H310.8C314.1 178.6 316.8 175.9 316.8 172.6V172.5C316.8 169.2 314.1 166.5 310.8 166.5Z" fill="#8494AB"/>
<path d="M306.9 186H293.6C291.7 186 290.1 184.4 290.1 182.5V162.9H310.4V182.5C310.5 184.5 308.9 186 306.9 186Z" fill="#8494AB"/>
<path d="M299.6 183.4V164.6H291.9V181.4C291.9 183.1 293.3 184.4 294.9 184.4H299.7C299.7 184.1 299.6 183.7 299.6 183.4Z" fill="#4D6486"/>
<path d="M304.2 164.6V182.3C304.2 183.1 303.9 183.8 303.4 184.4H305.7C307.4 184.4 308.7 183 308.7 181.4V164.6H304.2Z" fill="#C8CED9"/>
<path d="M170.4 72.2999H129.5C128.4 72.2999 127.5 71.3999 127.5 70.2999V43.8999C127.5 42.7999 128.4 41.8999 129.5 41.8999H170.4C171.5 41.8999 172.4 42.7999 172.4 43.8999V70.1999C172.4 71.3999 171.5 72.2999 170.4 72.2999Z" fill="#0400A3"/>
<path d="M170.4 44.2998H129.5V69.8998H170.4V44.2998Z" fill="white"/>
<path d="M143.8 51.7998V64.2998L156 57.9998L143.8 51.7998Z" fill="#FD425F"/>
<path d="M227.8 54.0001H251.8L241.9 66.0001L263.3 54.0001H270C271.2 54.0001 272.1 53.1001 272.1 51.9001V24.7001C272.1 23.5001 271.2 22.6001 270 22.6001H227.8C226.6 22.6001 225.7 23.5001 225.7 24.7001V51.9001C225.7 53.0001 226.6 54.0001 227.8 54.0001Z" fill="#FD425F"/>
<path d="M255.7 34.8C255.7 38.3 251.3 39.4 251.3 40.7V41.2H246.9V40C246.9 38.1 250.3 37 250.3 34.9C250.3 33.9 249.7 33.1 248.6 33.1C247.2 33.1 246.9 34.2 246.9 35.3C246.9 35.5 246.9 35.8 246.9 36H242.1C242.1 35.7 242 35.4 242 35C242 31.6 245 29.5 249.1 29.5C253.1 29.5 255.7 31.6 255.7 34.8ZM251.7 47.6H246.6V42.8H251.7V47.6Z" fill="white"/>
</g>
<defs>
<clipPath id="clip0">
<rect width="395.4" height="352.8" fill="white"/>
</clipPath>
</defs>
</svg>
