<svg width="401" height="430" viewBox="0 0 401 430" fill="none" xmlns="http://www.w3.org/2000/svg">
<path d="M39.3656 222.289C39.3656 222.289 16.843 191.763 35.5465 158.694C52.1936 129.342 71.4847 131.397 85.7817 143.235C91.853 148.323 109.284 143.822 124.168 113.982C144.438 73.2809 214.65 97.9362 201.822 160.553C195.653 190.883 220.721 191.959 207.893 222.289H39.3656Z" fill="#AAC9F8"/>
<path d="M102.072 125.338C111.608 116.862 114.384 104.427 108.272 97.564C102.161 90.7012 89.477 92.0093 79.9415 100.486C70.4059 108.962 67.63 121.397 73.7412 128.26C79.8524 135.122 92.5366 133.814 102.072 125.338Z" fill="#AAC9F8"/>
<path d="M62.406 127.728C64.5071 125.86 64.083 121.957 61.4587 119.01C58.8345 116.063 55.0039 115.188 52.9029 117.056C50.8018 118.923 51.2259 122.826 53.8502 125.773C56.4744 128.72 60.305 129.595 62.406 127.728Z" fill="#AAC9F8"/>
<path d="M200.059 113.982C199.178 110.166 200.745 106.546 203.487 105.861C206.229 105.274 209.166 107.818 210.048 111.732C210.929 115.547 209.362 119.167 206.62 119.852C203.878 120.439 200.941 117.798 200.059 113.982Z" fill="#AAC9F8"/>
<path d="M321.388 195.97H369.175C371.525 195.97 373.483 197.927 373.483 200.275V228.942C373.483 231.29 371.525 233.247 369.175 233.247H338.328L329.417 243.52V233.247H321.29C318.939 233.247 316.981 231.29 316.981 228.942V200.275C317.079 197.927 318.939 195.97 321.388 195.97Z" fill="#86ACFF"/>
<path d="M353.409 214.853C353.409 216.223 354.486 217.397 355.955 217.397C357.326 217.397 358.501 216.32 358.501 214.853C358.501 213.483 357.424 212.309 355.955 212.309C354.584 212.309 353.409 213.385 353.409 214.853Z" fill="white"/>
<path d="M342.735 214.853C342.735 216.223 343.812 217.397 345.281 217.397C346.75 217.397 347.827 216.32 347.827 214.853C347.827 213.483 346.75 212.309 345.281 212.309C343.812 212.309 342.735 213.385 342.735 214.853Z" fill="white"/>
<path d="M332.061 214.853C332.061 216.223 333.138 217.397 334.607 217.397C335.978 217.397 337.153 216.32 337.153 214.853C337.153 213.483 336.076 212.309 334.607 212.309C333.236 212.309 332.061 213.385 332.061 214.853Z" fill="white"/>
<path d="M358.109 320.91H392.187C394.341 320.91 391.991 322.671 391.991 324.823C391.991 326.976 394.341 328.737 392.187 328.737H358.109V320.91Z" fill="#AAC9F8"/>
<path d="M359.48 328.639H395.125C396.985 328.639 394.929 331.281 394.929 333.14C394.929 334.999 396.985 337.64 395.125 337.64H359.48V328.639Z" fill="#86ACFF"/>
<path d="M359.48 314.746H395.125C396.985 314.746 395.027 316.214 395.027 318.073C395.027 319.932 396.985 321.399 395.125 321.399H359.48V314.746Z" fill="#86ACFF"/>
<path d="M350.079 337.053L356.836 302.027C357.228 300.168 358.305 302.418 360.068 302.81C361.928 303.201 363.789 301.538 363.397 303.299L356.64 338.325L350.079 337.053Z" fill="#86ACFF"/>
<path d="M322.758 326.878C322.758 332.161 326.969 336.368 332.257 336.368C337.545 336.368 341.756 332.161 341.756 326.878C341.756 321.595 337.545 317.388 332.257 317.388C326.969 317.388 322.758 321.595 322.758 326.878Z" fill="#86ACFF"/>
<path d="M325.99 326.878C325.99 330.302 328.83 333.139 332.257 333.139C335.684 333.139 338.524 330.302 338.524 326.878C338.524 323.454 335.684 320.616 332.257 320.616C328.83 320.616 325.99 323.454 325.99 326.878Z" fill="#AAC9F8"/>
<path d="M332.257 327.172H332.355C332.453 327.172 332.551 327.074 332.551 326.878V321.888C332.551 321.693 332.453 321.595 332.257 321.595C332.061 321.595 331.963 321.693 331.963 321.888V326.291L329.319 324.139C329.221 324.041 329.026 324.041 328.928 324.139C328.83 324.236 328.83 324.432 328.928 324.53L332.061 326.976C332.159 327.172 332.159 327.172 332.257 327.172Z" fill="#86ACFF"/>
<path d="M326.284 337.053C326.382 337.053 326.48 337.053 326.48 336.956L328.438 334.51C328.536 334.412 328.536 334.216 328.438 334.118C328.34 334.02 328.144 334.02 328.046 334.118L326.088 336.564C325.99 336.662 325.99 336.858 326.088 336.956C326.088 337.053 326.186 337.053 326.284 337.053Z" fill="#86ACFF"/>
<path d="M338.72 337.053C338.622 337.053 338.524 337.053 338.524 336.956L336.566 334.51C336.468 334.412 336.468 334.216 336.566 334.118C336.664 334.02 336.86 334.02 336.957 334.118L338.916 336.564C339.014 336.662 339.014 336.858 338.916 336.956C338.818 337.053 338.72 337.053 338.72 337.053Z" fill="#86ACFF"/>
<path d="M384.647 393.506C384.94 394.68 386.213 395.365 387.291 395.071C388.466 394.778 389.151 393.506 388.857 392.43L379.261 357.697C378.967 356.523 377.694 355.838 376.617 356.132C375.442 356.425 374.756 357.697 375.05 358.773L384.647 393.506Z" fill="#86ACFF"/>
<path d="M323.248 393.506C322.954 394.68 321.681 395.365 320.604 395.071C319.429 394.778 318.744 393.506 319.037 392.43L328.634 357.697C328.928 356.523 330.201 355.838 331.278 356.132C332.453 356.425 333.138 357.697 332.845 358.773L323.248 393.506Z" fill="#86ACFF"/>
<path d="M309.832 339.988V354.273C309.832 360.437 314.827 365.426 320.996 365.426H386.997C393.166 365.426 398.16 360.437 398.16 354.273V339.988H309.832Z" fill="#AAC9F8"/>
<path opacity="0.3" d="M398.062 339.988H309.832V343.706H398.062V339.988Z" fill="#88ADFF"/>
<path d="M401 339.499C401 340.967 399.825 342.239 398.258 342.239H309.539C308.07 342.239 306.797 341.065 306.797 339.499C306.797 338.032 307.972 336.76 309.539 336.76H398.258C399.825 336.858 401 338.032 401 339.499Z" fill="#AAC9F8"/>
<path opacity="0.3" d="M326.284 353.392C326.284 349.479 329.417 346.348 333.334 346.348H374.56C378.477 346.348 381.611 349.479 381.611 353.392C381.611 357.306 378.477 360.436 374.56 360.436H333.334C329.417 360.436 326.284 357.306 326.284 353.392ZM333.334 347.424C330.005 347.424 327.361 350.066 327.361 353.392C327.361 356.719 330.005 359.36 333.334 359.36H374.56C377.89 359.36 380.534 356.719 380.534 353.392C380.534 350.066 377.89 347.424 374.56 347.424H333.334Z" fill="#88ADFF"/>
<path opacity="0.3" d="M351.94 353.392C351.94 354.468 352.821 355.447 353.996 355.447C355.074 355.447 356.053 354.566 356.053 353.392C356.053 352.316 355.171 351.337 353.996 351.337C352.821 351.337 351.94 352.218 351.94 353.392Z" fill="#88ADFF"/>
<path d="M284.568 430C334.864 430 375.638 420.713 375.638 409.258C375.638 397.802 334.864 388.516 284.568 388.516C234.272 388.516 193.498 397.802 193.498 409.258C193.498 420.713 234.272 430 284.568 430Z" fill="#AAC9F8"/>
<path d="M215.238 407.693C215.238 398.789 250.98 393.995 284.568 393.995C318.156 393.995 353.898 398.789 353.898 407.693C353.898 416.596 318.156 421.39 284.568 421.39C250.98 421.39 215.238 416.596 215.238 407.693ZM236.977 399.963C223.169 402.507 218.273 405.638 218.273 407.693C218.273 409.747 223.169 412.878 236.977 415.422C249.707 417.77 266.55 419.042 284.568 419.042C302.586 419.042 319.527 417.77 332.159 415.422C345.967 412.878 350.863 409.747 350.863 407.693C350.863 405.638 345.967 402.507 332.159 399.963C319.429 397.615 302.586 396.343 284.568 396.343C266.648 396.343 249.707 397.615 236.977 399.963Z" fill="#86ACFF"/>
<path opacity="0.4" d="M158.833 316.703C158.931 316.899 159.421 317.388 159.127 317.29C158.735 317.192 158.441 317.192 158.05 317.094C157.266 316.997 156.483 316.899 155.602 316.899C153.447 316.801 148.747 317.094 150.705 320.519C152.174 322.965 154.622 324.628 156.973 325.998C158.539 326.976 160.106 327.759 161.477 328.933C162.358 329.618 164.709 331.085 164.415 332.455C164.219 333.433 162.75 333.923 161.967 334.412C161.085 334.901 160.204 335.488 159.617 336.368C158.637 337.836 159.91 339.401 160.988 340.38C162.652 341.75 164.611 342.728 166.373 343.706C168.528 344.88 171.172 346.25 172.347 348.5C172.249 348.598 172.543 348.892 172.738 348.598C172.934 348.403 177.047 344.196 178.712 342.043C179.789 340.576 181.454 338.717 181.454 336.858C181.454 334.999 179.985 334.314 178.418 334.216C177.439 334.118 176.264 334.314 175.382 333.825C174.109 333.14 174.501 331.672 175.089 330.596C176.068 328.933 178.026 327.465 178.32 325.411C178.516 323.845 177.635 322.475 175.97 322.28C174.893 322.182 173.914 322.28 172.836 322.378C172.347 322.475 171.857 322.573 171.368 322.671C171.172 322.671 171.27 320.225 171.27 320.127C171.465 317.584 172.053 315.138 172.249 312.594C172.347 311.028 172.543 309.072 171.857 307.604C171.27 306.528 170.094 307.213 169.703 307.995C168.919 309.267 168.234 313.083 166.275 310.637C165.492 309.659 164.904 308.68 164.219 307.702C161.967 304.473 159.617 301.147 156.581 298.701C154.525 297.037 149.041 293.515 147.082 296.94C146.495 298.016 147.768 299.875 148.257 300.755C149.237 302.321 150.412 303.788 151.489 305.354C153.741 308.582 155.993 311.811 157.952 315.138C158.148 315.627 158.539 316.116 158.833 316.703Z" fill="#8DB1FF"/>
<g opacity="0.4">
<path opacity="0.4" d="M152.272 300.56C160.694 309.756 167.744 319.736 171.074 331.966C172.641 337.934 173.032 344 172.934 350.066C172.934 356.132 173.032 362.296 172.738 368.362C172.738 368.557 172.445 368.557 172.347 368.362C171.465 362.687 172.249 356.621 172.347 350.946C172.445 344.587 172.151 338.325 170.584 332.161C167.548 320.029 160.302 309.854 152.272 300.56C152.174 300.56 152.272 300.56 152.272 300.56Z" fill="#8DB1FF"/>
</g>
<path opacity="0.4" d="M177.047 358.774C177.243 359.067 177.733 358.773 177.635 358.48C180.474 357.306 183.412 356.23 186.154 354.762C188.015 353.784 192.03 351.631 191.638 348.99C191.54 348.207 191.05 347.62 190.463 347.131C189.483 346.348 187.231 344.783 188.994 343.511C190.952 342.141 193.988 342.337 196.24 342.141C198.003 342.043 200.255 341.847 201.724 340.771C203.291 339.695 203.095 337.738 201.626 336.564C200.647 335.781 199.472 335.39 198.395 334.803C197.807 334.51 197.22 334.216 196.73 333.727C195.653 332.748 196.534 332.161 197.415 331.574C199.766 330.107 202.801 329.324 204.76 327.27C206.424 325.508 206.914 322.965 205.151 321.008C203.095 318.66 197.807 319.442 194.673 324.921C193.596 326.78 192.03 329.226 189.875 327.27C188.015 325.606 185.273 320.91 182.335 323.552C181.258 324.53 181.454 326.193 181.747 327.465C182.237 329.422 183.216 331.281 183.608 333.336C183.804 334.216 184 335.292 183.608 336.173C182.825 337.445 181.16 337.151 179.887 337.151C177.341 337.151 175.578 338.717 174.795 341.163C173.914 343.902 173.718 346.935 173.816 349.772C174.109 353.001 174.991 356.132 177.047 358.774Z" fill="#8DB1FF"/>
<g opacity="0.4">
<path opacity="0.4" d="M198.884 328.052C191.736 333.042 185.86 340.184 181.65 347.816C177.243 355.936 177.145 364.938 175.284 373.743C175.187 374.037 174.697 373.939 174.795 373.645C175.578 364.84 176.851 355.447 181.062 347.424C185.077 339.695 191.442 332.455 198.786 327.857C198.884 327.759 198.982 327.955 198.884 328.052Z" fill="#8DB1FF"/>
</g>
<path d="M170.976 369.438C170.878 366.992 170.094 364.84 168.821 363.47C170.29 362.589 172.053 362.1 174.011 362.1C175.97 362.1 177.733 362.589 179.201 363.47C178.026 364.84 177.243 366.992 177.145 369.438C183.51 371.395 188.21 379.026 188.21 388.125C188.21 398.692 181.845 407.301 174.109 407.301C166.275 407.301 160.008 398.692 160.008 388.125C159.812 378.928 164.611 371.297 170.976 369.438Z" fill="#86ACFF"/>
<path opacity="0.3" d="M177.145 369.438C177.243 366.992 178.026 364.84 179.201 363.47C177.928 362.687 176.46 362.198 174.795 362.1C173.62 368.655 173.032 375.308 174.697 381.766C176.851 390.278 175.872 399.279 172.445 407.204C172.934 407.301 173.522 407.301 174.011 407.301C181.845 407.301 188.113 398.692 188.113 388.125C188.113 378.928 183.412 371.297 177.145 369.438Z" fill="#88ADFF"/>
<path d="M309.049 405.442L329.221 404.953L332.453 397.713L312.966 392.136L309.049 405.442Z" fill="#3947DC"/>
<path d="M311.105 393.115L329.221 398.789C329.221 398.789 327.361 404.562 327.557 405.442C327.753 406.225 336.076 404.758 338.035 401.04C338.035 401.04 339.014 401.235 339.308 400.844C339.601 400.453 341.266 399.181 334.509 397.224C327.851 395.267 313.358 389.984 313.358 389.984L311.105 393.115Z" fill="#F4E9D7"/>
<path opacity="0.2" d="M320.506 392.625C316.491 391.157 313.358 390.081 313.358 390.081L311.105 393.114L312.574 393.603L309.049 405.442L319.037 405.148C319.429 403.387 319.723 401.626 319.919 399.767C320.212 397.517 320.506 395.071 320.506 392.625Z" fill="#212155"/>
<path d="M263.514 370.417C263.514 370.417 227.086 374.721 223.855 387.343C220.623 400.062 229.926 410.335 247.553 407.497C265.277 404.66 275.069 394.093 275.069 394.093L263.514 370.417Z" fill="#282828"/>
<path d="M269.292 375.993C269.292 375.993 244.909 384.016 240.992 394.68C237.075 405.247 240.208 417.966 262.927 421.586C285.645 425.206 313.358 414.346 316.002 394.582C316.002 394.582 323.934 383.233 316.589 368.949L269.292 375.993Z" fill="#282828"/>
<path d="M316.295 393.702C311.008 400.648 305.23 403.388 297.788 407.399C297.69 407.497 297.592 407.497 297.396 407.595C294.165 409.063 291.227 411.019 287.799 412.193C283.883 413.661 279.77 414.248 275.853 415.324C275.265 415.52 275.559 416.205 276.049 416.205C281.336 415.422 286.331 414.15 291.031 411.9C289.366 413.367 287.8 415.128 286.624 417.085C286.624 417.183 286.624 417.183 286.722 417.183C291.227 412.096 297.298 408.671 303.174 405.54C308.853 402.507 312.574 398.985 316.491 393.8C316.785 393.702 316.491 393.506 316.295 393.702Z" fill="black"/>
<path d="M244.517 398.397C247.944 396.636 252.057 398.691 255.289 399.669C259.01 400.648 262.143 400.256 265.473 398.104C269.488 395.267 273.111 391.744 277.028 388.614C280.651 389.396 283.883 390.962 287.506 391.157C292.696 391.451 297.788 389.298 302.39 387.048C308.461 384.113 312.378 379.71 315.316 373.742C315.904 372.666 316.491 371.394 317.079 370.122C316.883 369.731 316.785 369.437 316.589 369.046L269.292 376.09C269.292 376.09 244.909 384.113 240.992 394.777C239.523 398.691 239.033 402.898 240.208 406.812C239.915 403.191 240.992 399.963 244.517 398.397Z" fill="black"/>
<path d="M253.134 374.917L278.79 382.059C278.79 382.059 282.218 391.647 300.138 387.636C318.058 383.625 324.619 366.796 316.589 343.706C308.559 320.617 306.503 311.518 306.503 311.518C306.503 311.518 296.906 298.994 286.526 299.288C276.146 299.581 268.41 309.952 267.627 313.083C266.844 316.214 260.087 340.576 257.149 348.794C254.211 357.012 253.134 374.917 253.134 374.917Z" fill="#FF7961"/>
<path d="M314.337 336.956C314.239 340.282 314.827 343.706 314.827 346.837C314.827 355.056 311.399 360.632 305.622 366.111C300.725 370.71 294.85 374.232 288.975 377.363C285.841 379.026 282.12 380.298 278.986 382.157C279.182 382.646 280.161 384.701 282.903 386.364C287.604 385.092 292.304 383.135 296.025 381.179C302.39 377.754 308.266 373.449 313.26 368.362C316.198 365.427 318.45 362.002 319.919 358.284C319.527 353.784 318.45 348.892 316.687 343.706C315.806 341.26 315.022 339.01 314.337 336.956Z" fill="#F6513E"/>
<path d="M269.684 324.922C271.054 333.923 271.838 343.022 270.271 352.023C268.313 362.883 261.164 368.949 252.938 375.406C252.449 375.798 253.036 376.482 253.526 376.189C262.535 371.101 268.998 364.253 271.74 354.273C274.384 344.685 272.621 334.216 269.977 324.824C269.977 324.53 269.684 324.628 269.684 324.922Z" fill="#F6513E"/>
<path d="M228.947 380.983C228.947 380.983 255.778 370.417 257.345 370.417C258.912 370.417 285.351 378.146 285.841 379.613C286.331 380.983 284.96 381.766 284.96 381.766C284.96 381.766 256.757 393.996 255.387 393.702C253.918 393.311 228.947 380.983 228.947 380.983Z" fill="#F3FDFF"/>
<path d="M253.232 389.202C253.232 389.202 275.853 380.298 277.224 379.809C278.595 379.32 260.772 373.254 258.618 372.863C256.464 372.471 241.677 379.222 241.677 379.222L253.232 389.202Z" fill="#D8E2E5"/>
<path d="M255.289 393.604C255.289 393.604 255.289 393.702 255.289 393.604C256.757 393.898 284.96 381.668 284.96 381.668C284.96 381.668 286.331 380.885 285.841 379.516C285.841 379.418 285.645 379.32 285.449 379.222C278.301 380.983 260.381 388.712 257.443 389.984C255.289 390.963 255.093 392.528 255.289 393.604Z" fill="#D8E2E5"/>
<path d="M262.927 379.222C262.927 379.222 286.624 385.679 306.405 370.416C326.186 355.153 324.913 318.758 302.488 307.115C302.488 307.115 297.592 339.891 288.289 353.49C278.986 367.09 261.458 376.287 261.458 376.287L262.927 379.222Z" fill="#FF7961"/>
<path d="M263.612 376.287C274.286 370.416 283.295 363.959 289.954 353.588C295.927 344.098 301.999 330.694 299.942 319.443C299.844 318.66 298.669 318.758 298.473 319.443C295.829 331.085 293.479 341.652 287.408 352.121C281.336 362.589 271.25 367.481 263.318 375.895C263.123 376.091 263.318 376.482 263.612 376.287Z" fill="#FF8579"/>
<path d="M264.689 381.863C266.648 379.515 264.004 374.721 260.772 374.721C257.541 374.721 252.057 376.874 250.784 380.396C249.511 383.918 249.707 386.657 251.274 386.755C252.743 386.755 253.722 383.527 254.995 383.82C256.268 384.016 260.185 387.147 264.689 381.863Z" fill="#FFB494"/>
<path opacity="0.5" d="M250.784 380.396C249.511 383.918 249.707 386.657 251.274 386.755C252.743 386.755 253.722 383.527 254.995 383.82C255.68 383.918 257.149 384.994 259.108 384.994C259.695 382.646 260.479 380.396 261.36 378.146C261.752 377.167 262.143 376.189 262.535 375.21C262.045 374.917 261.458 374.721 260.87 374.721C257.639 374.721 252.155 376.874 250.784 380.396Z" fill="#EB8F5E"/>
<path d="M204.466 332.455C203.291 332.553 209.558 366.503 215.238 379.32C215.727 380.494 251.274 393.8 255.289 393.702C255.289 393.702 256.757 393.017 256.464 390.669C256.17 388.418 261.262 351.436 265.473 340.282C266.158 338.227 246.671 329.52 204.466 332.455Z" fill="white"/>
<path d="M263.318 338.325C262.535 338.912 261.654 340.086 260.577 342.532C258.422 347.522 248.826 385.483 255.484 393.408C255.876 393.017 256.562 392.234 256.366 390.669C256.072 388.418 261.164 351.436 265.375 340.282C265.571 339.891 264.885 339.206 263.318 338.325Z" fill="#D8E2E5"/>
<path d="M220.819 361.904C220.819 362.1 220.819 362.393 221.015 362.785C221.113 363.176 221.407 363.567 221.701 364.057C221.896 364.252 222.092 364.448 222.288 364.644C222.582 364.839 222.778 365.035 223.072 365.133C223.659 365.426 224.345 365.622 225.226 365.72C226.009 365.818 226.793 365.622 227.576 365.328C228.359 364.937 229.045 364.546 229.632 363.861C230.122 363.176 230.416 362.491 230.514 361.513C230.514 360.73 230.22 359.849 229.632 359.165C229.143 358.48 228.359 357.991 227.576 357.697C226.793 357.403 225.911 357.208 225.226 357.306C224.442 357.306 223.757 357.599 223.072 357.893C222.778 357.991 222.484 358.284 222.288 358.382C222.092 358.578 221.896 358.773 221.701 358.969C221.407 359.458 221.113 359.849 221.015 360.241C220.819 360.632 220.819 360.926 220.819 361.121C220.819 361.317 220.819 361.415 220.819 361.415C220.819 361.415 220.819 361.708 220.819 361.904ZM220.819 361.317C220.819 361.121 220.819 360.828 221.015 360.436C221.113 360.045 221.407 359.654 221.701 359.165C221.896 358.969 222.092 358.675 222.288 358.48C222.582 358.284 222.778 358.088 223.072 357.893C223.659 357.599 224.442 357.306 225.226 357.208C226.107 357.11 226.891 357.208 227.772 357.403C228.653 357.697 229.437 358.186 230.122 358.969C230.71 359.752 231.101 360.632 231.199 361.708C231.199 362.589 230.808 363.665 230.122 364.35C229.535 365.133 228.653 365.524 227.772 365.915C226.891 366.111 226.009 366.307 225.226 366.111C224.442 366.013 223.659 365.72 223.072 365.426C222.778 365.231 222.484 365.035 222.288 364.839C221.994 364.644 221.896 364.35 221.701 364.154C221.407 363.665 221.113 363.274 221.015 362.882C220.819 362.491 220.819 362.198 220.819 362.002C220.819 361.806 220.819 361.708 220.819 361.708C220.819 361.708 220.819 361.513 220.819 361.317Z" fill="#D8E2E5"/>
<path d="M250.294 277.959L253.526 304.962C253.526 304.962 309.343 283.634 309.245 289.015L296.221 257.804L263.416 257.021L250.294 277.959Z" fill="#141D1C"/>
<path d="M277.126 293.809C277.126 293.809 280.553 303.495 281.043 304.082C281.532 304.669 289.366 302.027 289.366 299.483C289.366 296.94 287.31 287.156 287.31 287.156L277.126 293.809Z" fill="#FFB494"/>
<path d="M287.897 290.189C287.506 288.428 287.31 287.156 287.31 287.156L277.126 293.809C277.126 293.809 277.713 295.472 278.497 297.527C281.826 297.135 287.016 293.417 287.897 290.189Z" fill="#EB8F5E"/>
<path d="M239.621 265.533C239.621 265.533 245.007 296.646 270.271 295.765C295.535 294.885 303.076 272.186 302.096 260.837C301.019 249.488 287.31 244.694 287.31 244.694L239.621 265.533Z" fill="#FFB494"/>
<path d="M254.309 286.08C254.211 286.667 254.016 287.351 253.82 287.939C253.624 288.721 253.036 289.113 252.253 288.917C251.861 288.819 251.763 289.406 252.057 289.504C252.938 289.797 253.722 289.504 254.211 288.721C254.603 287.939 254.603 287.058 254.407 286.177C254.407 286.08 254.309 286.08 254.309 286.08Z" fill="#56272F"/>
<path d="M265.571 284.612C266.844 285.982 268.508 287.156 270.467 286.275C272.132 285.59 273.6 284.025 273.209 282.068C273.209 281.872 272.915 281.872 272.915 282.068C272.23 283.242 271.936 284.221 270.761 284.905C269.194 285.982 267.235 285.199 265.766 284.416C265.571 284.318 265.473 284.514 265.571 284.612Z" fill="#56272F"/>
<path d="M272.23 295.179C273.111 294.787 274.09 294.689 274.873 294.004C275.559 293.417 276.049 292.733 276.244 291.754C276.636 289.993 275.265 288.33 273.6 287.938C272.915 287.743 272.425 288.526 272.915 289.015C273.698 289.797 274.873 290.287 274.971 291.559C275.069 293.026 273.307 294.494 272.132 294.983C272.132 295.081 272.132 295.179 272.23 295.179Z" fill="#F7796B"/>
<path d="M255.778 284.514C255.387 285.003 257.835 289.895 255.778 291.069C253.722 292.243 254.701 295.276 257.737 295.178C260.674 295.081 262.731 291.265 260.87 288.134C258.912 285.101 256.268 283.927 255.778 284.514Z" fill="#F7796B"/>
<path d="M256.562 293.417C257.541 293.221 258.52 292.732 258.716 291.754C259.01 290.775 257.933 289.993 257.051 290.482C256.366 290.873 256.072 291.656 255.68 292.243C255.289 292.928 255.974 293.613 256.562 293.417Z" fill="#FF928D"/>
<path d="M258.422 289.797C258.618 289.21 258.716 288.819 258.226 288.33C257.933 288.036 257.247 288.134 257.247 288.623C257.149 289.112 257.247 289.406 257.443 289.797C257.541 290.286 258.226 290.286 258.422 289.797Z" fill="#FF928D"/>
<path d="M264.983 279.133C278.301 275.904 287.995 267.099 289.366 264.457C293.283 261.424 294.36 258.098 298.277 252.129C293.871 246.846 287.114 244.498 287.114 244.498L239.523 265.435C239.523 265.435 240.698 271.991 244.321 278.937C251.078 280.6 257.835 280.894 264.983 279.133Z" fill="#EB8F5E"/>
<path d="M231.689 271.208C232.374 272.578 260.87 285.688 285.547 265.338L292.696 299.288C292.696 299.288 311.693 294.396 320.017 275.317C320.604 273.947 317.862 226.496 285.939 220.625C253.918 214.755 242.363 235.106 242.265 242.052C242.265 242.052 222.974 252.717 231.689 271.208Z" fill="#141D1C"/>
<path d="M238.935 251.64C235.508 254.184 232.178 258.098 233.06 262.598C234.333 268.762 242.754 266.121 245.986 264.164C251.176 260.935 252.351 264.555 256.268 267.392C258.912 269.349 261.85 269.936 264.885 268.762C270.467 266.708 271.838 259.174 273.307 254.184C273.698 252.912 271.936 252.228 271.25 253.304C269.292 256.435 267.627 260.055 264.591 262.403C261.654 264.653 256.268 257.217 253.428 255.945C250.588 254.576 247.651 255.554 245.104 257.022C243.44 258 242.069 259.37 240.502 260.446C237.271 260.25 236.193 259.076 237.173 257.119C237.662 255.554 238.641 253.891 239.719 252.619C240.012 252.13 239.523 251.249 238.935 251.64Z" fill="#394442"/>
<g opacity="0.7">
<path opacity="0.7" d="M289.072 244.792C290.15 243.324 290.15 241.759 291.814 240.78C293.675 239.704 295.829 239.509 297.2 237.552C299.355 234.421 297.004 228.746 292.696 230.018C292.01 230.214 291.814 230.801 291.912 231.486C292.108 232.66 293.185 233.736 293.185 235.008C293.185 235.693 289.856 236.867 289.268 237.454C287.31 239.215 286.429 242.542 287.897 244.89C288.093 245.281 288.779 245.183 289.072 244.792Z" fill="#723635"/>
</g>
<path d="M254.897 240.291C244.811 247.922 241.285 259.076 241.775 271.404C241.775 272.089 242.754 272.089 242.754 271.404C242.852 259.37 245.398 248.51 255.093 240.585C255.289 240.389 255.093 240.095 254.897 240.291Z" fill="#394442"/>
<path d="M255.778 239.9C250.882 250.271 253.918 263.675 261.654 271.893C261.947 272.187 262.339 271.795 262.143 271.404C255.387 262.99 251.861 250.369 256.17 240.096C256.268 239.9 255.876 239.704 255.778 239.9Z" fill="#394442"/>
<path d="M258.52 239.606C264.2 242.248 268.606 244.987 272.23 250.368C275.461 255.26 277.322 260.935 279.476 266.316C279.672 266.805 280.455 266.61 280.259 266.12C278.105 259.957 275.755 253.891 272.034 248.412C268.802 243.618 263.808 241.367 258.618 239.313C258.422 239.215 258.324 239.508 258.52 239.606Z" fill="#394442"/>
<path d="M259.597 237.845C272.132 237.062 283.197 241.269 291.814 250.564C301.117 260.544 302.488 274.339 305.132 287.058C305.23 287.547 306.013 287.449 306.013 286.96C304.936 273.556 301.803 260.054 292.696 249.684C284.274 240.095 272.034 236.084 259.597 237.649C259.401 237.649 259.401 237.845 259.597 237.845Z" fill="#394442"/>
<path d="M258.716 234.812C267.529 226.692 278.595 226.594 289.66 229.333C290.15 229.431 290.541 228.648 290.052 228.453C279.672 223.854 266.256 226.398 258.52 234.617C258.324 234.714 258.618 234.91 258.716 234.812Z" fill="#394442"/>
<path d="M255.876 235.791C253.428 232.17 254.995 228.648 256.268 224.93C256.366 224.539 255.778 224.343 255.582 224.637C253.722 227.768 251.861 233.442 255.582 235.986C255.778 236.084 255.974 235.888 255.876 235.791Z" fill="#394442"/>
<path d="M294.948 234.616C306.405 243.911 311.301 258 314.141 271.991C314.239 272.48 314.925 272.284 314.827 271.795C312.868 257.511 306.993 243.226 295.242 234.323C294.948 234.225 294.752 234.519 294.948 234.616Z" fill="#394442"/>
<path d="M292.794 290.678C299.175 290.678 304.349 285.158 304.349 278.35C304.349 271.542 299.175 266.022 292.794 266.022C286.412 266.022 281.239 271.542 281.239 278.35C281.239 285.158 286.412 290.678 292.794 290.678Z" fill="#FFB494"/>
<path opacity="0.5" d="M285.547 280.209C285.547 284.025 288.681 287.156 292.598 287.156C296.515 287.156 299.648 284.025 299.648 280.209C299.648 276.394 296.515 273.263 292.598 273.263C288.681 273.263 285.547 276.394 285.547 280.209Z" fill="#EB8F5E"/>
<path d="M285.449 280.698C285.449 280.992 285.547 281.285 285.547 281.579C285.547 281.872 285.645 282.166 285.743 282.361C285.841 282.851 286.135 283.242 286.233 283.633C286.624 284.22 286.918 284.612 286.918 284.612C287.114 284.905 287.31 285.101 287.604 285.394C287.995 285.688 288.485 285.981 289.073 286.079C289.268 286.079 289.366 286.177 289.562 286.177H289.954C290.248 286.177 290.639 286.079 290.933 285.981C291.521 285.688 292.108 285.297 292.5 284.71C292.696 284.416 292.892 284.122 292.892 283.731C292.989 283.34 292.989 283.144 293.087 282.655C293.087 282.166 292.892 281.285 292.5 280.698C292.108 280.111 291.521 279.622 290.933 279.426C290.346 279.231 289.66 279.133 289.073 279.231C288.877 279.231 288.485 279.328 288.289 279.426C287.995 279.524 287.8 279.72 287.604 279.818C287.212 280.111 286.918 280.502 286.722 280.796C286.624 280.992 286.526 281.09 286.526 281.285C286.526 281.09 286.526 280.894 286.526 280.698C286.526 280.502 286.624 280.111 286.624 279.915C286.624 279.622 286.722 279.328 286.82 279.035C286.918 278.741 287.016 278.448 287.114 278.154C287.31 277.861 287.408 277.567 287.604 277.274C287.8 276.98 288.093 276.687 288.289 276.491C288.485 276.198 288.877 276.002 289.073 275.806C289.366 275.513 289.66 275.415 290.052 275.219C290.346 275.024 290.737 274.926 291.031 274.828L291.521 274.632C291.716 274.632 291.912 274.534 292.108 274.534L292.696 274.437C292.794 274.437 292.892 274.437 292.989 274.437H293.283C293.675 274.437 294.067 274.437 294.36 274.534C294.752 274.632 295.046 274.73 295.34 274.828C295.927 275.121 296.613 275.415 297.102 275.904C297.69 276.295 297.984 276.785 298.375 277.176C298.669 277.665 298.963 278.057 299.061 278.546C299.159 278.937 299.355 279.328 299.355 279.72C299.452 280.405 299.452 280.796 299.452 280.796C299.452 280.992 299.648 281.089 299.844 281.089C300.04 281.089 300.138 280.894 300.138 280.796C300.138 280.796 300.138 280.405 300.04 279.72C300.04 279.426 299.844 278.937 299.746 278.448C299.648 277.959 299.257 277.469 298.963 276.882C298.571 276.393 298.179 275.806 297.592 275.415C297.102 274.926 296.319 274.534 295.633 274.241C295.242 274.143 294.85 274.045 294.458 273.849C294.067 273.752 293.675 273.752 293.185 273.654H292.892C292.696 273.654 292.696 273.654 292.5 273.654L291.912 273.752C291.716 273.752 291.521 273.752 291.325 273.849L290.737 274.045C290.346 274.143 289.856 274.339 289.562 274.534C289.17 274.73 288.779 274.926 288.485 275.219C288.191 275.513 287.799 275.708 287.506 276.002C287.212 276.295 286.918 276.589 286.722 276.98C286.526 277.372 286.331 277.665 286.135 278.057C285.939 278.448 285.841 278.741 285.743 279.133C285.645 279.524 285.547 279.818 285.547 280.209C285.547 280.013 285.449 280.307 285.449 280.698ZM287.31 283.927C287.212 283.731 287.114 283.535 287.016 283.242C286.918 283.046 286.918 282.851 286.918 282.655C286.918 282.557 286.918 282.459 286.918 282.459C286.918 282.459 286.918 282.361 286.918 282.264C286.918 282.166 286.918 281.97 287.016 281.774C287.016 281.677 287.114 281.579 287.114 281.383C287.212 281.285 287.212 281.09 287.31 280.992C287.506 280.698 287.702 280.502 288.093 280.209C288.289 280.111 288.485 280.013 288.583 280.013C288.779 280.013 288.877 279.915 289.17 279.915C289.562 279.818 290.052 280.013 290.443 280.209C290.835 280.405 291.129 280.796 291.423 281.187C291.619 281.677 291.716 281.872 291.814 282.557C291.814 282.851 291.716 283.438 291.423 283.829C291.129 284.22 290.835 284.514 290.443 284.807C290.248 284.905 290.15 285.003 289.856 285.003L289.464 285.101C289.464 285.101 289.268 285.101 289.17 285.101C288.779 285.101 288.387 284.905 287.995 284.71C287.799 284.514 287.506 284.22 287.31 283.927Z" fill="#EB8F5E"/>
<path d="M286.526 281.09C286.233 281.579 285.841 283.927 287.212 284.905C287.212 284.905 282.805 290.286 282.512 290.873C282.218 291.461 283.491 293.515 284.862 292.928C286.233 292.341 293.283 285.884 294.067 282.949C294.948 280.013 289.268 276.98 286.526 281.09Z" fill="#F3FDFF"/>
<path d="M286.429 281.383C286.135 282.264 286.037 284.025 287.31 284.808C287.31 284.808 282.903 290.189 282.609 290.776C282.512 290.971 282.609 291.363 282.805 291.656C284.274 289.895 289.758 283.34 289.758 283.34C287.604 283.438 286.722 282.362 286.429 281.383Z" fill="#D8E2E5"/>
<path d="M288.877 142.648H233.354C230.416 142.648 227.968 145.094 227.968 148.03V199.297C227.968 202.232 230.416 204.678 233.354 204.678H267.431L278.595 217.593V204.678H288.877C291.912 204.678 294.263 202.232 294.263 199.297V148.03C294.36 145.094 291.912 142.648 288.877 142.648Z" fill="#86ACFF"/>
<path d="M280.063 172.88C280.063 183.251 271.642 191.763 261.164 191.763C250.784 191.763 242.265 183.349 242.265 172.88C242.265 162.51 250.686 153.998 261.164 153.998C271.544 153.998 280.063 162.51 280.063 172.88Z" fill="white"/>
<path d="M270.859 169.945C270.369 169.945 270.075 169.554 270.075 169.162C270.075 167.793 268.998 166.716 267.627 166.716C266.256 166.716 265.179 167.793 265.179 169.162C265.179 169.652 264.787 169.945 264.396 169.945C263.906 169.945 263.612 169.554 263.612 169.162C263.612 166.912 265.473 165.053 267.725 165.053C269.977 165.053 271.838 166.912 271.838 169.162C271.642 169.652 271.348 169.945 270.859 169.945Z" fill="#86ACFF"/>
<path d="M258.031 169.945C257.541 169.945 257.247 169.554 257.247 169.162C257.247 167.793 256.17 166.716 254.799 166.716C253.428 166.716 252.351 167.793 252.351 169.162C252.351 169.652 251.959 169.945 251.568 169.945C251.078 169.945 250.784 169.554 250.784 169.162C250.784 166.912 252.645 165.053 254.897 165.053C257.149 165.053 259.01 166.912 259.01 169.162C258.814 169.652 258.422 169.945 258.031 169.945Z" fill="#86ACFF"/>
<path d="M261.164 186.284C252.938 186.284 246.182 179.533 246.182 171.315C246.182 170.826 246.573 170.532 246.965 170.532C247.455 170.532 247.748 170.924 247.748 171.315C247.748 178.653 253.722 184.621 261.066 184.621C268.41 184.621 274.384 178.653 274.384 171.315C274.384 170.826 274.776 170.532 275.167 170.532C275.657 170.532 275.951 170.924 275.951 171.315C276.146 179.631 269.39 186.284 261.164 186.284Z" fill="#86ACFF"/>
<path d="M156.777 176.794C154.525 154.683 142.186 141.768 135.527 136.387C134.254 135.213 132.785 134.137 131.316 133.256C127.595 131.299 123.189 130.614 117.803 131.495C69.2325 139.518 85.2921 221.311 85.2921 221.311C131.316 233.345 145.613 220.43 145.418 221.017C145.32 221.311 148.845 199.199 147.866 176.794H156.777Z" fill="#282828"/>
<path d="M141.794 158.009C139.934 165.641 141.892 173.761 144.145 181.099C144.34 181.686 145.222 181.491 145.124 180.806C143.459 173.174 142.088 165.934 141.99 158.009C141.99 157.912 141.794 157.912 141.794 158.009Z" fill="black"/>
<path d="M120.055 204.874C110.361 202.134 104.583 194.601 102.331 185.208C102.821 184.817 103.114 184.23 103.114 183.447C103.016 172.294 105.464 161.433 106.444 150.378C106.444 149.986 105.856 149.889 105.758 150.28C102.429 160.455 98.9035 170.435 98.2181 181.099C97.2388 181.588 96.8471 182.958 96.945 184.034C98.6098 195.383 106.346 208.005 118.684 209.766C121.818 210.255 123.287 205.754 120.055 204.874Z" fill="black"/>
<path d="M131.708 135.213C134.45 140.203 138.563 144.508 141.599 149.302C145.026 154.879 147.376 160.651 149.53 166.815C150.216 168.772 153.643 168.576 153.252 166.326C152.37 160.064 149.041 154.389 145.515 149.302C141.99 144.214 137.584 137.953 132.1 134.92C131.806 134.724 131.512 135.017 131.708 135.213Z" fill="#394442"/>
<path opacity="0.2" d="M116.334 136.093C119.272 139.322 125.833 140.203 129.652 138.344C130.729 137.854 130.337 136.191 129.358 135.898C127.302 135.311 125.147 135.604 122.993 135.213C121.034 134.919 119.076 134.43 117.02 134.234C116.138 134.234 115.747 135.506 116.334 136.093Z" fill="#212155"/>
<path d="M154.818 170.337C148.845 169.065 143.067 169.848 136.996 170.044C130.533 170.239 124.266 170.533 117.901 171.609C116.922 171.805 116.334 172.783 116.334 173.664C115.844 181.491 115.844 189.122 116.628 196.949C116.922 200.08 117.509 203.113 118.097 206.146C118.88 209.864 120.937 213.386 121.622 217.104C121.72 217.495 122.21 217.397 122.307 217.104C124.07 211.918 121.132 204.678 120.741 199.297C120.153 191.372 120.741 183.35 120.643 175.425C126.029 174.251 131.512 174.348 136.996 174.348C142.578 174.348 148.062 173.664 153.545 174.936C156.483 175.523 157.756 170.924 154.818 170.337Z" fill="black"/>
<path d="M79.9052 178.164C79.9052 178.555 78.8281 212.701 123.384 211.429V204.678C123.384 204.678 102.526 206.537 99.2943 178.947L79.9052 178.164Z" fill="#FAC6B1"/>
<path d="M92.6364 186.578C95.3783 186.187 97.8264 185.404 100.177 184.524C99.7849 182.86 99.4911 181.001 99.1973 179.045L79.8083 178.164C79.8083 178.262 79.7104 182.175 81.1792 187.165C85.0962 187.459 89.1111 186.97 92.6364 186.578Z" fill="#F4AB9D"/>
<path d="M116.53 132.082C116.53 132.082 99.4911 133.647 88.1319 147.247C76.7726 160.749 75.01 180.121 75.01 180.121C75.01 180.121 80.7875 185.893 101.743 182.567C101.743 182.567 101.45 162.901 105.66 157.129C109.675 151.454 116.53 132.082 116.53 132.082Z" fill="#282828"/>
<path d="M119.37 174.74C118.391 176.305 121.035 216.712 122.112 217.886C123.189 218.963 147.18 218.473 149.041 216.615C150.901 214.853 161.477 173.468 160.792 172C160.106 170.435 157.952 170.239 157.952 170.239C157.952 170.239 122.993 169.261 119.37 174.74Z" fill="#626970"/>
<path d="M122.797 176.11C128.868 171.903 154.427 172 160.89 172.098V172C160.204 170.435 158.05 170.239 158.05 170.239C158.05 170.239 122.993 169.261 119.37 174.838C118.391 176.403 121.035 216.81 122.112 217.985C122.21 218.082 122.405 218.18 122.699 218.18C122.014 210.744 121.72 176.795 122.797 176.11Z" fill="#454A50"/>
<path opacity="0.3" d="M156.973 170.141C151.097 170.043 122.699 169.75 119.37 174.739C118.488 176.011 120.251 205.069 121.524 214.755C127.595 206.243 133.96 197.829 140.619 189.611C145.711 183.251 151.097 176.403 156.973 170.141Z" fill="#626970"/>
<path d="M153.839 195.97C152.958 196.557 151.979 196.851 150.901 196.948C150.51 196.948 150.02 196.948 149.628 196.851C149.335 196.753 149.041 196.557 148.747 196.948C148.453 197.34 148.747 197.829 148.943 198.22C149.433 198.905 150.118 199.003 150.901 199.003C152.272 199.101 153.937 198.612 154.916 197.731C155.014 197.34 155.112 196.948 155.21 196.557C155.014 195.97 154.427 195.579 153.839 195.97Z" fill="#454A50"/>
<path d="M152.762 202.819C151.979 203.015 151.195 203.21 150.412 203.21C149.726 203.21 148.845 203.21 148.355 202.721C148.257 202.623 148.062 202.623 147.964 202.819C147.18 204.091 148.355 205.069 149.432 205.558C150.412 205.95 151.783 205.95 152.86 205.558C153.056 204.678 153.349 203.797 153.643 202.917C153.349 202.721 153.056 202.721 152.762 202.819Z" fill="#454A50"/>
<path d="M149.53 208.787C148.747 208.591 147.768 208.591 147.082 208.004C146.886 207.808 146.593 207.906 146.495 208.2C146.005 209.57 147.18 210.45 148.257 211.233C149.041 211.722 149.922 212.016 150.901 212.113C151.195 211.135 151.587 210.059 151.881 208.885C150.999 208.983 150.314 208.983 149.53 208.787Z" fill="#454A50"/>
<path d="M124.266 198.416C124.853 197.34 125.735 196.166 125.637 194.894C125.637 194.698 125.343 194.503 125.147 194.796C124.56 195.775 123.189 196.264 122.405 197.046C121.72 197.731 120.643 198.71 120.153 199.786C120.153 200.373 120.251 200.96 120.251 201.547C120.447 201.743 120.643 201.841 120.937 201.841C122.601 201.841 123.678 199.688 124.266 198.416Z" fill="#454A50"/>
<path d="M123.972 204.189C125.049 203.015 125.637 201.743 125.343 200.08C125.343 199.884 125.049 199.884 124.951 199.982C124.266 201.058 123.091 201.841 122.014 202.428C121.622 202.623 121.034 202.917 120.545 203.21C120.643 204.384 120.741 205.559 120.839 206.635C121.916 206.048 123.091 205.069 123.972 204.189Z" fill="#454A50"/>
<path d="M122.503 212.113C123.091 211.428 123.776 210.939 124.266 210.254C125.245 208.983 125.637 207.613 124.364 206.439C124.07 206.243 123.678 206.341 123.58 206.634C123.287 207.711 121.916 208.493 120.839 209.178C121.034 211.135 121.23 212.798 121.328 214.168C121.426 214.07 121.426 213.972 121.524 213.874C121.916 213.287 122.014 212.7 122.503 212.113Z" fill="#454A50"/>
<path d="M156.091 200.569C156.091 200.569 160.302 194.405 156.777 193.035C153.252 191.666 147.572 195.971 149.041 197.438C150.412 198.906 155.014 197.536 155.014 197.536L153.937 201.547L156.091 200.569Z" fill="#FAC6B1"/>
<path d="M154.818 196.753C153.741 196.851 152.762 197.34 151.685 197.634C150.999 197.732 150.314 197.829 149.726 197.829C151.489 198.612 155.112 197.536 155.112 197.536L154.035 201.547L155.406 200.96C155.993 199.003 156.581 196.558 154.818 196.753Z" fill="#F4AB9D"/>
<path d="M152.272 207.222C152.272 207.222 156.483 204.972 156.483 201.841C156.483 198.71 153.349 198.123 150.901 199.101C148.453 199.982 146.886 203.211 148.845 203.798C150.803 204.385 152.272 203.7 152.566 204.385C152.86 205.167 152.272 207.222 152.272 207.222Z" fill="#FAC6B1"/>
<path d="M152.37 202.722C151.391 202.722 150.412 203.015 149.432 203.113C148.943 203.113 148.453 203.113 148.062 203.113C148.159 203.407 148.453 203.7 148.845 203.896C150.803 204.483 152.272 203.798 152.566 204.483C152.86 205.265 152.272 207.32 152.272 207.32C152.272 207.32 152.664 207.124 153.154 206.831C153.545 205.168 153.937 202.82 152.37 202.722Z" fill="#F4AB9D"/>
<path d="M146.495 208.201C146.397 209.668 150.314 210.744 152.272 209.668C154.133 208.592 154.231 206.733 151.783 205.95C149.335 205.07 146.495 205.95 146.495 208.201Z" fill="#FAC6B1"/>
<path d="M150.314 195.383C151.293 195.09 152.37 194.796 153.349 194.503C154.035 194.307 154.72 194.209 155.406 194.307C155.993 194.405 156.385 194.796 156.875 194.992C157.168 195.09 157.56 194.796 157.462 194.405C157.071 193.231 155.504 192.742 154.329 192.937C152.664 193.231 151.391 194.014 150.118 195.188C150.118 195.286 150.216 195.481 150.314 195.383Z" fill="#FFD6CA"/>
<path d="M153.154 199.395C153.741 199.786 154.133 200.178 154.525 200.765C155.014 201.548 154.916 202.526 155.112 203.406C155.21 203.798 155.798 203.798 155.895 203.504C156.385 202.33 156.483 201.156 155.798 199.982C155.308 199.102 154.035 199.102 153.154 199.102C153.154 199.199 153.056 199.297 153.154 199.395Z" fill="#FFD6CA"/>
<path d="M150.999 206.635C151.293 207.026 151.685 207.32 151.978 207.711C152.174 208.005 152.37 208.494 152.86 208.396C153.154 208.298 153.251 208.102 153.251 207.907C153.349 206.831 151.978 206.439 151.097 206.341C150.999 206.341 150.901 206.537 150.999 206.635Z" fill="#FFD6CA"/>
<path d="M119.173 201.841C119.173 201.841 114.668 197.927 119.173 194.307C123.677 190.589 127.496 194.209 125.734 195.481C123.971 196.753 121.621 200.177 121.621 200.177L119.173 201.841Z" fill="#FAC6B1"/>
<path d="M122.014 195.677C120.251 197.047 120.153 199.004 120.349 201.058L121.72 200.08C121.72 200.08 124.07 196.655 125.833 195.383C126.42 194.992 126.42 194.307 125.833 193.72C124.364 194.112 123.091 194.796 122.014 195.677Z" fill="#F4AB9D"/>
<path d="M117.999 197.145C118.195 196.753 118.488 196.362 118.782 195.97C119.076 195.579 119.566 195.383 119.761 194.894C119.761 194.796 119.663 194.601 119.566 194.503C119.076 194.405 118.684 194.894 118.39 195.286C117.999 195.873 117.901 196.362 117.901 197.047C117.803 197.242 117.999 197.242 117.999 197.145Z" fill="#FFD6CA"/>
<path d="M119.761 207.222C119.761 207.222 115.061 204.287 118.097 200.569C121.034 196.851 126.616 198.514 125.735 200.275C124.853 201.938 121.426 204.874 121.426 204.874L119.761 207.222Z" fill="#FAC6B1"/>
<path d="M121.23 202.623C119.761 203.993 119.468 205.461 119.566 207.124C119.761 207.222 119.859 207.32 119.859 207.32L121.524 204.874C121.524 204.874 124.951 202.036 125.833 200.275C125.931 200.08 125.931 199.786 125.833 199.59C124.07 200.275 122.601 201.254 121.23 202.623Z" fill="#F4AB9D"/>
<path d="M117.607 204.385C117.999 203.211 118.195 201.841 118.978 200.862C119.761 199.982 120.936 199.591 121.916 199.004C122.21 198.906 122.014 198.416 121.72 198.514C118.88 199.395 116.824 201.156 117.313 204.287C117.411 204.482 117.607 204.482 117.607 204.385Z" fill="#FFD6CA"/>
<path d="M121.328 213.483C121.328 213.483 116.726 212.016 117.411 208.885C118.097 205.852 122.503 204.189 123.776 205.167C125.147 206.146 126.029 207.124 121.622 210.059C121.034 210.548 121.328 213.483 121.328 213.483Z" fill="#FAC6B1"/>
<path d="M117.803 210.157C118.293 209.179 118.782 208.2 119.566 207.418C120.643 206.341 121.916 206.341 123.189 205.754C123.385 205.657 123.385 205.265 123.091 205.167C120.447 204.776 117.215 207.32 117.803 210.157C117.705 210.157 117.803 210.157 117.803 210.157Z" fill="#FFD6CA"/>
<path d="M116.53 122.69C116.53 122.69 118.586 133.843 118.978 135.213C119.37 136.583 128.085 138.148 128.575 135.996C129.064 133.843 129.75 121.809 129.75 121.809L116.53 122.69Z" fill="#FAC6B1"/>
<path d="M116.53 122.69C116.53 122.69 117.02 125.331 117.607 128.169C121.524 128.56 125.441 128.756 129.358 128.853C129.652 125.233 129.75 121.809 129.75 121.809L116.53 122.69Z" fill="#F4AB9D"/>
<path d="M156.875 108.699C156.679 115.352 150.51 120.537 142.969 120.342C135.429 120.146 129.554 114.667 129.652 108.014C129.848 101.361 136.017 96.1754 143.557 96.3711C151.097 96.5668 157.071 102.046 156.875 108.699Z" fill="#FCC2B6"/>
<path d="M158.05 84.6302C156.091 98.6211 133.373 123.57 122.503 124.842C101.254 124.842 83.9211 108.111 83.9211 87.4676C83.9211 66.8236 101.156 50.0933 122.503 50.0933C143.851 50.1911 158.05 60.0728 158.05 84.6302Z" fill="#141D1C"/>
<path d="M142.48 77.1946C136.8 78.6622 110.948 69.2697 110.948 69.2697C95.4762 78.2709 99.2952 102.046 99.2952 102.046C99.2952 102.046 100.862 103.122 103.016 105.959C105.171 108.699 100.862 111.242 100.862 111.242C100.862 111.242 148.062 99.3061 154.525 90.1093C157.266 86.1958 157.952 82.1844 157.756 78.6622C157.658 77.4882 157.462 76.3141 157.266 75.2379C156.581 72.2049 155.308 69.9546 154.622 69.2697C152.958 67.7043 148.747 75.5314 142.48 77.1946Z" fill="#394442"/>
<path d="M97.043 83.9455C95.7699 84.8261 96.4554 82.4779 95.77 81.9887C95.1824 81.4996 94.6928 81.4995 94.0073 81.6952C93.3218 81.8909 92.6364 82.4779 91.9509 82.9671C92.1468 81.0104 92.2447 78.9557 90.6779 77.7817C89.6986 76.999 88.2298 77.8795 87.5443 78.6622C87.6422 77.6839 87.8381 76.7055 88.1319 76.2163C88.3277 75.7271 87.7402 75.5314 87.4464 75.8249C85.9775 76.999 83.0398 85.2174 87.2505 84.0434C87.8381 83.8477 88.3277 83.4563 88.7194 83.065C88.7194 84.4347 88.6215 85.7066 88.9153 86.9785C89.209 88.2504 91.2654 88.5439 91.7551 87.3699C92.1467 86.3915 92.3426 86.1958 93.0281 85.1196C93.4198 84.5325 93.9094 84.0433 94.399 83.652C94.9866 83.065 94.5949 83.8477 94.5949 84.4347C94.5949 85.3153 95.1824 85.8044 95.9658 86.0001C96.8471 86.2936 97.5326 85.2174 97.8264 84.6304C98.0222 84.1412 97.5326 83.652 97.043 83.9455Z" fill="#394442"/>
<path d="M139.934 55.6701C139.248 55.4744 138.955 56.355 139.444 56.7463C142.578 58.9966 142.676 67.1172 138.269 63.6928C136.996 62.7145 135.821 61.6382 134.548 60.7577C132.589 59.3879 130.239 58.6052 128.379 60.4642C127.302 61.5404 126.91 63.3015 126.616 64.7691C126.126 66.8237 121.622 64.182 120.545 63.7907C117.999 63.008 116.726 65.0626 116.236 67.1172C116.138 67.4107 116.53 67.5085 116.628 67.3129C119.957 62.8123 124.658 73.3788 128.966 69.074C129.652 68.3891 131.414 62.9101 132.002 63.1058C134.156 64.0842 135.331 67.0194 137.388 68.2913C146.299 73.868 148.159 57.7247 139.934 55.6701Z" fill="#394442"/>
<path d="M100.96 110.166C100.96 110.166 103.702 110.949 104.681 108.111C105.66 105.274 101.939 102.632 101.939 102.632C101.939 102.632 99.4911 80.0317 111.242 71.4219C112.221 70.737 133.667 81.4014 142.969 78.0749C152.272 74.7484 152.566 70.5413 154.231 70.8349C155.895 71.1284 157.854 74.9441 158.637 87.8588C159.421 100.676 149.041 120.243 133.079 123.961C115.746 128.07 106.15 122.396 102.625 120.243L100.96 110.166Z" fill="#FAC6B1"/>
<path d="M158.539 87.9565C157.756 75.1396 155.798 71.3239 154.133 70.9326C153.349 70.8347 152.958 71.5196 151.783 72.7915C152.468 75.4331 152.958 79.2488 153.349 84.8256C154.133 97.6425 143.753 117.21 127.791 120.928C115.844 123.765 107.619 121.906 102.429 119.852L102.527 120.341C106.052 122.493 115.551 128.168 132.981 124.059C148.943 120.243 159.421 100.773 158.539 87.9565Z" fill="#FFCAC0"/>
<path d="M137.192 111.145C138.171 113.59 141.696 114.373 143.459 112.514C145.32 110.655 144.047 108.796 142.676 108.307C141.305 107.818 141.011 105.568 141.99 104.296C142.872 103.024 141.109 103.317 139.248 104.687C137.682 105.959 136.115 108.503 137.192 111.145Z" fill="#F7796B"/>
<path d="M142.186 108.699C141.599 108.209 141.109 107.916 141.109 107.035C141.109 106.742 140.717 106.546 140.521 106.742C139.444 107.916 139.64 110.166 141.305 110.655C141.794 110.851 142.284 110.558 142.578 110.166C142.969 109.677 142.676 109.09 142.186 108.699Z" fill="#FF9792"/>
<path d="M144.047 110.949C143.851 110.166 142.774 110.362 142.774 111.047V111.144C142.676 112.123 144.243 111.927 144.047 110.949Z" fill="#FF9792"/>
<path d="M125.049 112.514C122.405 113.982 120.741 117.21 122.601 119.95C123.972 122.102 127.497 122.2 129.652 121.613C130.043 121.515 130.141 120.733 129.652 120.635C127.889 120.341 126.126 120.635 124.462 119.852C121.426 118.482 123.287 114.177 125.147 112.612C125.343 112.612 125.245 112.416 125.049 112.514Z" fill="#F7796B"/>
<path d="M118.097 103.513C119.174 105.861 120.741 108.307 123.678 108.405C126.42 108.503 129.162 107.133 130.141 104.491C130.337 104.002 129.652 103.806 129.358 104.002C127.497 105.47 126.224 106.839 123.678 106.937C121.426 107.035 119.566 104.98 118.293 103.415C118.195 103.317 117.999 103.415 118.097 103.513Z" fill="#56272F"/>
<path d="M153.937 100.48C153.252 101.556 152.468 102.535 151.489 103.22C149.824 104.198 148.159 103.317 146.886 102.241C146.299 101.752 145.711 102.437 146.103 103.024C147.278 104.491 149.335 104.883 151.097 104.296C152.86 103.807 153.545 102.143 154.035 100.48C154.035 100.382 153.937 100.382 153.937 100.48Z" fill="#56272F"/>
<path d="M93.126 125.135C86.3692 124.353 82.8439 118.678 83.5294 112.514C84.2149 106.35 89.0132 102.045 95.77 102.828C102.527 103.611 107.325 109.286 106.64 115.449C105.856 121.515 99.7848 125.918 93.126 125.135Z" fill="#FAC6B1"/>
<path d="M103.898 114.569C103.898 118.678 100.568 122.005 96.4554 122.005C92.3426 122.005 89.0132 118.678 89.0132 114.569C89.0132 110.46 92.3426 107.133 96.4554 107.133C100.568 107.133 103.898 110.46 103.898 114.569Z" fill="#F4AB9D"/>
<path d="M103.898 113.493C103.898 113.199 103.8 112.808 103.702 112.417C103.604 112.123 103.506 111.732 103.31 111.34C103.114 111.047 102.918 110.655 102.723 110.362C102.527 110.068 102.233 109.775 101.939 109.481C101.645 109.188 101.352 108.992 101.058 108.699C100.764 108.405 100.372 108.307 99.9807 108.014C99.589 107.818 99.1973 107.622 98.8056 107.525L98.2181 107.329C98.0222 107.329 97.8264 107.329 97.6305 107.231L97.043 107.133C96.945 107.133 96.8471 107.133 96.7492 107.133H96.4554C96.0637 107.231 95.672 107.231 95.2803 107.329C94.8886 107.427 94.4969 107.525 94.1052 107.72C93.4198 108.014 92.7343 108.405 92.2447 108.894C91.6571 109.286 91.2654 109.873 90.8737 110.362C90.58 110.949 90.2862 111.34 90.1883 111.927C90.0903 112.417 89.8945 112.906 89.8945 113.199C89.7966 113.884 89.7966 114.276 89.7966 114.276C89.7966 114.471 89.8945 114.569 90.0903 114.569C90.2862 114.569 90.3841 114.471 90.3841 114.276C90.3841 114.276 90.3841 113.884 90.482 113.199C90.482 112.808 90.6779 112.514 90.7758 112.123C90.8737 111.732 91.2654 111.243 91.4613 110.753C91.853 110.362 92.1468 109.873 92.7343 109.481C93.2239 109.09 93.8115 108.797 94.399 108.503C94.6928 108.405 95.0845 108.307 95.3783 108.21C95.77 108.112 96.0637 108.112 96.4554 108.112H96.7492H96.945L97.5326 108.21C97.7284 108.21 97.9243 108.21 98.1201 108.307L98.6098 108.503C98.9035 108.601 99.2952 108.699 99.589 108.894C99.8828 109.09 100.274 109.188 100.47 109.481C100.764 109.677 101.058 109.873 101.254 110.166C101.45 110.46 101.743 110.655 101.939 110.949C102.135 111.243 102.233 111.536 102.429 111.83C102.625 112.123 102.625 112.417 102.723 112.71C102.821 113.004 102.821 113.297 102.918 113.591C102.918 113.884 103.016 114.178 103.016 114.373C103.016 114.569 103.016 114.765 103.016 114.863C102.918 114.765 102.918 114.569 102.821 114.373C102.625 114.08 102.331 113.688 101.939 113.395C101.743 113.297 101.547 113.101 101.254 113.004C100.96 112.906 100.666 112.808 100.47 112.808C99.8828 112.71 99.2952 112.808 98.7077 113.004C98.1201 113.199 97.5326 113.688 97.1409 114.276C96.7492 114.765 96.5533 115.645 96.5533 116.134C96.5533 116.624 96.5534 116.819 96.7492 117.211C96.8471 117.504 97.043 117.896 97.1409 118.189C97.5326 118.776 98.0222 119.167 98.6098 119.461C98.9035 119.559 99.2952 119.657 99.589 119.657H99.9807C100.177 119.657 100.274 119.657 100.47 119.559C101.058 119.461 101.547 119.167 101.939 118.972C102.233 118.776 102.429 118.483 102.625 118.189C102.625 118.189 102.918 117.896 103.31 117.308C103.408 117.015 103.702 116.624 103.8 116.134C103.898 115.841 103.996 115.547 103.996 115.352C103.996 115.058 104.094 114.765 104.094 114.471C103.996 114.178 103.898 113.884 103.898 113.493ZM101.352 118.483C101.058 118.678 100.666 118.776 100.274 118.776C100.177 118.776 99.9807 118.776 99.9807 118.776L99.589 118.678C99.2952 118.678 99.1973 118.58 99.0015 118.483C98.6098 118.287 98.316 117.896 98.1201 117.504C97.9243 117.113 97.8264 116.624 97.7284 116.232C97.7284 115.547 97.8264 115.352 98.1201 114.863C98.316 114.471 98.7077 114.178 99.0015 113.884C99.3932 113.688 99.7849 113.591 100.274 113.591C100.568 113.591 100.666 113.688 100.862 113.688C101.058 113.786 101.254 113.884 101.352 113.884C101.645 114.08 101.939 114.373 102.037 114.569C102.135 114.667 102.233 114.863 102.233 114.96C102.233 115.058 102.331 115.254 102.331 115.352C102.429 115.547 102.429 115.743 102.429 115.841C102.429 115.939 102.429 116.037 102.429 116.037C102.429 116.037 102.429 116.134 102.429 116.232C102.429 116.33 102.429 116.624 102.331 116.819C102.233 117.113 102.135 117.308 102.037 117.406C102.037 117.406 102.037 117.406 102.037 117.504C101.939 117.993 101.645 118.287 101.352 118.483Z" fill="#DD847A"/>
<path d="M102.723 114.373C103.016 114.862 103.408 117.21 102.037 118.091C102.037 118.091 106.248 123.374 106.64 123.961C106.933 124.548 105.758 126.505 104.387 126.016C103.016 125.429 96.1617 119.167 95.3783 116.33C94.497 113.395 100.079 110.362 102.723 114.373Z" fill="#232528"/>
<path d="M102.821 114.765C103.114 115.547 103.212 117.308 102.037 118.091C102.037 118.091 106.248 123.374 106.64 123.961C106.738 124.157 106.64 124.451 106.444 124.842C104.975 123.081 99.687 116.721 99.687 116.721C101.645 116.721 102.527 115.645 102.821 114.765Z" fill="#626970"/>
<path d="M173.032 0H233.256C236.977 0 240.012 3.03299 240.012 6.75085V61.7361C240.012 65.4539 236.977 68.4869 233.256 68.4869H199.863L185.86 84.6303V68.5848H173.032C169.311 68.5848 166.275 65.5518 166.275 61.8339V6.75085C166.275 3.03299 169.311 0 173.032 0Z" fill="#86ACFF"/>
<path d="M179.495 36.2981L184.489 25.9272C184.587 13.9909 192.519 4.69629 202.605 4.69629C216.902 4.69629 225.422 11.6428 225.422 23.1878C225.422 31.6997 223.169 37.6679 221.505 41.9727C220.526 44.5165 219.742 46.5711 219.742 48.2344V58.6053C219.742 59.0945 219.35 59.4858 218.861 59.4858H195.849C195.359 59.4858 194.967 59.0945 194.967 58.6053V48.4301H193.792C187.721 48.4301 184.391 48.4301 184.391 44.5165V37.6678H180.377C180.083 37.6678 179.789 37.4722 179.593 37.2765C179.397 36.983 179.299 36.5916 179.495 36.2981Z" fill="white"/>
<path d="M198.688 21.9158C198.688 26.3186 202.41 29.9386 202.41 29.9386C202.41 29.9386 206.131 26.3186 206.131 21.9158C206.131 17.5131 202.41 13.8931 202.41 13.8931C202.41 13.8931 198.688 17.4153 198.688 21.9158Z" fill="white"/>
<path d="M202.018 30.3298C201.822 30.1342 198.101 26.5141 198.101 21.8179C198.101 17.2195 201.822 13.5016 202.018 13.3059C202.214 13.1103 202.605 13.1103 202.899 13.3059C203.095 13.5016 206.816 17.1216 206.816 21.8179C206.816 26.4163 203.095 30.1342 202.899 30.3298C202.801 30.4277 202.605 30.5255 202.507 30.5255C202.214 30.5255 202.116 30.4277 202.018 30.3298ZM199.276 21.9157C199.276 25.1444 201.43 27.9817 202.41 29.0579C203.389 27.9817 205.543 25.1444 205.543 21.9157C205.543 18.6871 203.389 15.8497 202.41 14.7735C201.43 15.7519 199.276 18.5892 199.276 21.9157Z" fill="#86ACFF"/>
<path d="M194.086 26.9055C197.22 30.0363 202.41 29.9385 202.41 29.9385C202.41 29.9385 202.507 24.753 199.374 21.6222C196.24 18.4914 191.05 18.5892 191.05 18.5892C191.05 18.5892 190.952 23.7746 194.086 26.9055Z" fill="white"/>
<path d="M193.596 27.2968C190.267 23.9703 190.365 18.7848 190.365 18.4913C190.365 18.1978 190.659 17.9043 191.05 17.9043C191.638 17.9043 196.632 18.0021 199.766 21.133C203.095 24.4595 202.997 29.6449 202.997 29.9384C202.997 30.2319 202.703 30.5255 202.41 30.5255H202.312C201.822 30.5255 196.73 30.4276 193.596 27.2968ZM194.478 26.4162C196.828 28.7644 200.353 29.1557 201.724 29.2536C201.626 27.8838 201.234 24.2638 198.884 22.0135C196.534 19.6654 193.009 19.274 191.638 19.1762C191.736 20.5459 192.225 24.166 194.478 26.4162Z" fill="#86ACFF"/>
<path d="M205.445 21.6222C202.312 24.753 202.41 29.9385 202.41 29.9385C202.41 29.9385 207.6 30.0363 210.733 26.9055C213.867 23.7746 213.769 18.5892 213.769 18.5892C213.769 18.5892 208.579 18.4914 205.445 21.6222Z" fill="white"/>
<path d="M202.41 30.5255C202.116 30.5255 201.822 30.2319 201.822 29.9384C201.822 29.7427 201.724 24.4595 205.053 21.133C208.187 18.0021 213.181 17.9043 213.769 17.9043C214.063 17.9043 214.356 18.1978 214.356 18.4913C214.356 18.687 214.454 23.9703 211.125 27.2968C207.991 30.4276 202.997 30.5255 202.41 30.5255ZM205.837 22.0135C203.487 24.3616 203.095 27.8838 202.997 29.2536C204.368 29.1557 207.991 28.7644 210.243 26.4162C212.594 24.0681 212.985 20.5459 213.083 19.1762C211.712 19.274 208.187 19.6654 205.837 22.0135Z" fill="#86ACFF"/>
<path d="M64.5321 269.154H5.28791C2.35018 269.154 0 266.806 0 263.87V228.453C0 225.518 2.35018 223.17 5.28791 223.17H43.4784L54.4459 210.451V223.17H64.5321C67.4698 223.17 69.82 225.518 69.82 228.453V263.87C69.82 266.806 67.4698 269.154 64.5321 269.154Z" fill="#86ACFF"/>
<path d="M29.2794 245.77C28.8877 248.021 28.9856 250.369 29.6711 252.521L33.686 251.347C34.0777 252.815 34.861 254.087 35.8403 255.261L32.7067 258C34.1756 259.663 36.1341 261.033 38.2884 261.816L39.7573 257.902C40.3448 258.098 41.0303 258.294 41.6178 258.392C42.4991 258.587 43.2825 258.587 44.1639 258.489L44.4576 262.599C46.7099 262.403 48.9621 261.718 50.9206 260.544L48.7663 257.022C50.0393 256.239 51.1165 255.261 51.9978 253.989L55.4251 256.337C56.6002 254.674 57.2857 252.815 57.6774 250.76C57.6774 250.467 57.7753 250.271 57.7753 249.977L53.6625 249.488C53.8584 247.923 53.6625 246.455 53.2708 245.086L57.1878 243.814C56.5023 241.661 55.2293 239.704 53.6625 238.041L50.7248 240.976C49.6476 239.9 48.3746 239.117 47.0037 238.628L48.3746 234.715C46.2203 233.932 43.968 233.638 41.7157 233.932L42.2054 238.041C40.7365 238.237 39.2676 238.726 37.9946 239.509L35.7424 235.987C33.7839 237.161 32.2171 238.824 31.042 240.781L34.5673 242.933C33.9797 244.009 33.4901 245.183 33.2943 246.357L29.2794 245.77ZM38.6801 247.532C39.1697 244.89 41.6178 243.129 44.2618 243.618C46.9057 244.107 48.6684 246.553 48.1787 249.195C47.6891 251.836 45.241 253.597 42.5971 253.108C39.9531 252.619 38.2884 250.173 38.6801 247.532Z" fill="white"/>
<path d="M12.2405 238.139C11.9468 239.509 12.0447 240.976 12.5343 242.346L15.0803 241.563C15.3741 242.444 15.8637 243.324 16.4513 244.009L14.4928 245.77C15.472 246.847 16.6471 247.629 18.0181 248.216L18.9973 245.77C19.389 245.966 19.7807 246.064 20.1724 246.064C20.662 246.162 21.2496 246.162 21.7392 246.162L21.935 248.803C23.4039 248.706 24.7748 248.314 25.9499 247.531L24.579 245.281C25.3624 244.792 26.0479 244.107 26.6354 243.324L28.7897 244.792C29.4752 243.716 29.9648 242.542 30.1607 241.27C30.1607 241.074 30.2586 240.976 30.2586 240.781L27.7126 240.487C27.8105 239.509 27.7126 238.53 27.4188 237.748L29.8669 236.965C29.4752 235.595 28.6918 234.323 27.6147 233.345L25.7541 235.204C25.0686 234.519 24.2852 234.03 23.4039 233.736L24.2852 231.29C22.9143 230.801 21.4454 230.605 20.0745 230.801L20.3683 233.345C19.389 233.443 18.5077 233.834 17.7243 234.323L16.3534 232.073C15.1783 232.856 14.1011 233.834 13.4156 235.106L15.6679 236.476C15.2762 237.161 14.9824 237.845 14.8845 238.628L12.2405 238.139ZM18.116 239.215C18.4098 237.552 19.9766 236.476 21.6413 236.769C23.306 237.063 24.3831 238.628 24.0894 240.291C23.7956 241.955 22.2288 243.031 20.5641 242.737C18.9973 242.444 17.8222 240.878 18.116 239.215Z" fill="white"/>
<path d="M55.9148 78.9556H7.14848C4.0149 78.9556 1.37094 81.4994 1.37094 84.728V122.983C1.37094 126.114 3.91697 128.755 7.14848 128.755H33.1963L45.0452 142.453V128.755H55.9148C59.0484 128.755 61.6923 126.212 61.6923 122.983V84.6302C61.5944 81.4994 59.0484 78.9556 55.9148 78.9556Z" fill="#86ACFF"/>
<path d="M32.1192 97.7405V122.102C32.1192 122.298 32.2171 122.494 32.5109 122.592C32.6088 122.592 33.7839 123.081 35.6444 123.081C38.778 123.081 43.3805 121.809 47.2974 116.036C47.4933 115.645 47.5912 115.254 47.6891 114.764C47.7871 114.177 47.885 113.59 48.2767 113.101C49.0601 112.221 48.7663 111.144 48.4725 110.46C48.7663 109.09 50.2352 101.654 46.612 98.4254C46.4161 97.5449 45.241 93.4357 42.7929 91.8702C42.3033 90.8919 39.3656 85.5107 34.7631 85.5107C33.9797 85.5107 33.1963 85.7064 32.4129 85.9999C32.2171 86.0978 32.0212 86.2934 32.0212 86.4891V97.7405H32.1192ZM33.2943 121.711V113.982C35.6444 113.101 37.8967 113.493 40.051 115.058C41.7157 116.232 42.695 117.797 42.695 117.797C42.7929 117.993 42.9888 118.091 43.1846 118.091C43.2825 118.091 43.3805 118.091 43.4784 117.993C43.7722 117.797 43.8701 117.504 43.6742 117.21C43.6742 117.113 39.7573 110.851 33.3922 112.808V106.35C37.505 104.002 41.422 106.057 42.5971 106.742C42.4012 107.524 42.4012 108.405 42.695 109.481C42.7929 109.775 42.9888 109.873 43.1846 109.873H43.2825C43.5763 109.775 43.7722 109.481 43.6742 109.188C43.3805 108.209 43.4784 107.329 43.6742 106.644C43.6742 106.644 43.6742 106.644 43.6742 106.546C43.968 105.372 44.6535 104.785 44.6535 104.785C44.8493 104.589 44.8493 104.198 44.6535 104.002C44.4576 103.807 44.0659 103.807 43.8701 104.002C43.8701 104.002 43.1846 104.589 42.7929 105.665C41.324 104.785 37.4071 103.122 33.2943 105.078V97.9362C37.8967 95.0011 41.422 98.4254 41.5199 98.6211C41.6178 98.7189 41.8137 98.8168 41.9116 98.8168C42.0095 98.8168 42.2054 98.7189 42.3033 98.6211C42.4991 98.4254 42.4991 98.0341 42.3033 97.8384C42.3033 97.8384 38.3863 93.9248 33.2943 96.6643V86.8805C33.8818 86.6848 34.3714 86.587 34.959 86.587C38.5822 86.587 41.1282 90.6962 41.8137 91.9681C40.9324 92.4573 38.5822 93.24 35.8403 90.9897C35.6444 90.794 35.2527 90.794 35.0569 91.0875C34.861 91.2832 34.861 91.6746 35.1548 91.8702C36.8195 93.1421 38.2884 93.6313 39.5614 93.6313C40.9324 93.6313 42.0095 93.1421 42.4991 92.8486C44.4576 94.3162 45.4369 97.8384 45.6327 98.6211C45.3389 99.1103 44.4576 100.48 42.695 101.067C41.1282 101.556 39.2676 101.263 37.2112 100.089C36.9175 99.9908 36.6237 100.089 36.4278 100.284C36.3299 100.578 36.4278 100.871 36.6237 101.067C38.1905 101.948 39.7573 102.339 41.1282 102.339C41.8137 102.339 42.4012 102.241 42.9888 102.045C44.7514 101.458 45.7306 100.284 46.3182 99.5016C48.9621 102.535 47.6891 108.894 47.4933 110.068C46.514 110.655 41.422 113.297 37.2112 107.818C37.0154 107.622 36.7216 107.524 36.4278 107.72C36.232 107.916 36.1341 108.209 36.3299 108.503C38.5822 111.438 41.1282 112.416 43.4784 112.416C45.1431 112.416 46.7099 111.927 47.7871 111.242C47.885 111.536 47.885 111.927 47.5912 112.221C47.0037 112.906 46.8078 113.786 46.7099 114.471C46.612 114.862 46.612 115.156 46.514 115.351C44.7514 117.993 42.7929 119.656 40.9324 120.635C38.5822 119.069 39.1697 116.428 39.1697 116.428C39.2676 116.134 39.0718 115.841 38.778 115.743C38.4842 115.645 38.1905 115.841 38.0925 116.134C37.7988 117.21 37.8967 119.559 39.7573 121.124C38.2884 121.711 36.9175 121.907 35.7424 121.907C34.5673 122.004 33.686 121.907 33.2943 121.711Z" fill="white"/>
<path d="M30.8462 97.7405V86.4891C30.8462 86.2934 30.7482 86.0978 30.4545 85.9999C29.6711 85.7064 28.8877 85.5107 28.1043 85.5107C23.5018 85.5107 20.5641 90.8919 20.0745 91.8702C17.7243 93.5335 16.5492 97.5449 16.2554 98.4254C12.6322 101.654 14.1011 109.09 14.3949 110.46C14.0032 111.047 13.8073 112.221 14.5907 113.101C14.9824 113.493 15.0803 114.177 15.1783 114.764C15.2762 115.254 15.3741 115.743 15.57 116.036C19.4869 121.907 24.0894 123.081 27.223 123.081C29.0835 123.081 30.3565 122.592 30.3565 122.592C30.5524 122.494 30.7482 122.298 30.7482 122.102V97.7405H30.8462ZM27.3209 122.004C26.1458 122.004 24.7748 121.809 23.306 121.222C25.1665 119.656 25.2645 117.308 24.9707 116.232C24.8728 115.938 24.579 115.743 24.2852 115.841C23.9914 115.938 23.7956 116.232 23.8935 116.526C23.8935 116.526 24.579 119.167 22.1309 120.733C20.2703 119.754 18.3118 118.091 16.5492 115.449C16.4513 115.254 16.3534 114.96 16.3534 114.569C16.2554 113.884 16.0596 113.003 15.472 112.318C15.1783 112.025 15.1783 111.634 15.2762 111.34C16.3534 111.927 17.9201 112.514 19.5849 112.514C21.8371 112.514 24.4811 111.536 26.7333 108.601C26.9292 108.405 26.8313 108.014 26.6354 107.818C26.4396 107.622 26.0479 107.72 25.852 107.916C21.6413 113.493 16.5492 110.851 15.57 110.166C15.2762 108.992 14.0032 102.535 16.7451 99.5995C17.2347 100.382 18.3118 101.556 20.0745 102.143C20.662 102.339 21.3475 102.437 21.935 102.437C23.306 102.437 24.7748 102.045 26.4396 101.165C26.7333 101.067 26.8313 100.676 26.6354 100.382C26.5375 100.089 26.1458 99.9908 25.852 100.187C23.7956 101.361 21.935 101.654 20.3682 101.165C18.6056 100.578 17.7243 99.2081 17.4305 98.7189C17.6264 97.8384 18.6056 94.414 20.5641 92.9465C21.0537 93.24 22.1309 93.7292 23.5018 93.7292C24.7748 93.7292 26.3416 93.3378 27.9084 91.9681C28.1043 91.7724 28.2022 91.4789 28.0063 91.1854C27.8105 90.9897 27.5167 90.8919 27.223 91.0875C24.4811 93.3378 22.1309 92.5551 21.2496 92.0659C22.033 90.6962 24.4811 86.6848 28.1043 86.6848C28.5939 86.6848 29.1814 86.7826 29.769 86.9783V96.86C24.6769 94.1205 20.7599 98.0341 20.7599 98.0341C20.5641 98.2297 20.5641 98.6211 20.7599 98.8168C20.8579 98.9146 20.9558 99.0124 21.1516 99.0124C21.2496 99.0124 21.4454 98.9146 21.5433 98.8168C21.7392 98.6211 25.1665 95.1967 29.769 98.1319V105.274C25.6562 103.219 21.7392 104.981 20.2703 105.861C19.8786 104.785 19.1932 104.198 19.1932 104.198C18.9973 104.002 18.6056 104.002 18.4098 104.198C18.2139 104.394 18.2139 104.785 18.4098 104.981C18.4098 104.981 19.0952 105.665 19.389 106.742C19.389 106.742 19.389 106.742 19.389 106.84C19.5849 107.524 19.6828 108.405 19.389 109.383C19.2911 109.677 19.4869 109.97 19.7807 110.068H19.8786C20.0745 110.068 20.3682 109.873 20.3682 109.677C20.662 108.601 20.662 107.72 20.4662 106.937C21.5433 106.252 25.5582 104.198 29.6711 106.546V113.003C23.306 111.047 19.4869 117.308 19.389 117.406C19.1932 117.7 19.2911 117.993 19.5849 118.189C19.6828 118.287 19.7807 118.287 19.8786 118.287C20.0745 118.287 20.2703 118.189 20.3682 117.993C20.3682 117.993 21.3475 116.428 23.0122 115.254C25.0686 113.688 27.3209 113.395 29.769 114.177V121.907C29.2794 121.907 28.398 122.004 27.3209 122.004Z" fill="white"/>
</svg>
