<svg width="395" height="364" viewBox="0 0 395 364" fill="none" xmlns="http://www.w3.org/2000/svg">
<g clip-path="url(#clip0)">
<path opacity="0.3015" d="M192.9 364C288.556 364 366.1 352.27 366.1 337.8C366.1 323.33 288.556 311.6 192.9 311.6C97.2443 311.6 19.7 323.33 19.7 337.8C19.7 352.27 97.2443 364 192.9 364Z" fill="url(#paint0_linear)"/>
<path d="M324.4 226.8L64.5 241.9C62.6 242 61 240.6 60.9 238.7L51.1 72.1C50.8 66.3 55.2 61.3 61 61L306.7 46.7C312.5 46.4 317.5 50.8 317.8 56.6L327.5 223.2C327.7 225 326.3 226.6 324.4 226.8Z" fill="url(#paint1_linear)"/>
<path d="M317.2 217.7L70.5 232.1L61.1 70.4L307.8 56L317.2 217.7Z" fill="url(#paint2_linear)"/>
<path d="M387.2 282L8.8 304.1C4.2 304.4 0.3 300.9 0 296.3V296L394.9 273V273.3C395.2 277.8 391.7 281.8 387.2 282Z" fill="#939598"/>
<path d="M385.9 275.7L9.2 297.7C2.4 298.1 -1.5 297 0.5 295.1L57.7 244.7C59.8 242.9 65.1 241.2 69.7 240.9L320.3 226.3C324.9 226 330.3 227.1 332.6 228.7L394.4 272.2C396.5 273.7 392.8 275.3 385.9 275.7Z" fill="#D1D3D4"/>
<path d="M269.8 279L125 287.4L133.7 268.1L259.3 260.8L269.8 279Z" fill="#BCBEC0"/>
<path d="M86.2 246.8L74.6 247.5C73.9 247.5 73.6 247.4 73.8 247.1L78 242.8C78.2 242.5 79 242.3 79.6 242.3L90.7 241.7C91.3 241.7 91.7 241.8 91.5 242.1L87.8 246.4C87.6 246.6 86.9 246.8 86.2 246.8Z" fill="#939598"/>
<path d="M102.6 245.9L91 246.6C90.3 246.6 89.9 246.5 90.2 246.2L93.8 241.9C94 241.7 94.7 241.4 95.4 241.4L106.5 240.8C107.1 240.8 107.5 240.9 107.3 241.2L104.2 245.4C104 245.6 103.3 245.8 102.6 245.9Z" fill="#939598"/>
<path d="M119 244.9L107.4 245.6C106.7 245.6 106.3 245.5 106.5 245.2L109.5 241C109.7 240.8 110.3 240.5 111 240.5L122.1 239.9C122.7 239.9 123.2 240 123 240.3L120.5 244.5C120.3 244.7 119.6 244.9 119 244.9Z" fill="#939598"/>
<path d="M135.3 244L123.7 244.7C123 244.7 122.6 244.6 122.7 244.3L125.1 240.1C125.2 239.9 125.9 239.6 126.5 239.6L137.6 239C138.2 239 138.7 239.1 138.6 239.4L136.7 243.6C136.6 243.7 136 243.9 135.3 244Z" fill="#939598"/>
<path d="M151.7 243L140.1 243.7C139.4 243.7 139 243.6 139.1 243.3L140.9 239.2C141 239 141.6 238.7 142.3 238.7L153.4 238.1C154 238.1 154.5 238.2 154.4 238.5L153.1 242.6C153 242.7 152.4 243 151.7 243Z" fill="#939598"/>
<path d="M168.1 242.1L156.5 242.8C155.8 242.8 155.3 242.7 155.4 242.4L156.6 238.3C156.7 238.1 157.3 237.8 157.9 237.8L169 237.2C169.6 237.2 170.1 237.3 170.1 237.6L169.4 241.7C169.4 241.8 168.8 242 168.1 242.1Z" fill="#939598"/>
<path d="M184.5 241.1L172.9 241.8C172.2 241.8 171.7 241.7 171.7 241.4L172.3 237.3C172.3 237.1 172.9 236.8 173.5 236.8L184.6 236.2C185.2 236.2 185.8 236.3 185.8 236.6L185.7 240.7C185.8 240.8 185.2 241.1 184.5 241.1Z" fill="#939598"/>
<path d="M200.9 240.1L189.3 240.8C188.6 240.8 188.1 240.7 188.1 240.4L188.2 236.4C188.2 236.2 188.7 235.9 189.4 235.9L200.5 235.3C201.1 235.3 201.7 235.4 201.7 235.7L202.1 239.7C202.1 239.9 201.6 240.1 200.9 240.1Z" fill="#939598"/>
<path d="M217.3 239.2L205.7 239.9C205 239.9 204.4 239.8 204.4 239.5L203.9 235.5C203.9 235.3 204.4 235 205 235L216.1 234.4C216.7 234.4 217.3 234.5 217.4 234.8L218.4 238.8C218.4 238.9 217.9 239.1 217.3 239.2Z" fill="#939598"/>
<path d="M233.6 238.2L222 238.9C221.3 238.9 220.7 238.8 220.7 238.5L219.6 234.5C219.5 234.3 220 234 220.7 234L231.8 233.4C232.4 233.4 233.1 233.5 233.1 233.8L234.7 237.7C234.8 238 234.3 238.2 233.6 238.2Z" fill="#939598"/>
<path d="M250.8 237.2L239.2 237.9C238.5 237.9 237.9 237.8 237.8 237.6L236.1 233.7C236 233.5 236.4 233.3 237.1 233.2L248.2 232.6C248.8 232.6 249.5 232.7 249.6 232.9L251.8 236.8C251.9 237 251.5 237.2 250.8 237.2Z" fill="#939598"/>
<path d="M267.2 236.3L255.6 237C254.9 237 254.3 236.9 254.1 236.7L251.8 232.8C251.7 232.6 252.1 232.4 252.7 232.3L263.8 231.7C264.4 231.7 265.1 231.8 265.3 232L268.1 235.9C268.3 236 267.9 236.2 267.2 236.3Z" fill="#939598"/>
<path d="M283.5 235.3L272 236C271.3 236 270.6 235.9 270.5 235.7L267.6 231.8C267.4 231.6 267.8 231.4 268.5 231.3L279.6 230.7C280.2 230.7 280.9 230.8 281.1 231L284.5 234.8C284.6 235.1 284.2 235.3 283.5 235.3Z" fill="#939598"/>
<path d="M299.9 234.4L288.3 235.1C287.6 235.1 286.9 235 286.7 234.8L283.2 231C283 230.8 283.4 230.6 284 230.5L295.1 229.9C295.7 229.9 296.5 230 296.7 230.2L300.7 234C301 234.1 300.6 234.3 299.9 234.4Z" fill="#939598"/>
<path d="M316.3 233.4L304.7 234.1C304 234.1 303.3 234 303 233.8L298.9 230C298.7 229.8 299 229.6 299.6 229.5L310.7 228.9C311.3 228.9 312.1 229 312.4 229.2L317 233C317.3 233.2 317 233.4 316.3 233.4Z" fill="#939598"/>
<path d="M88.2 252.3L68.9 253.4C68.2 253.4 67.8 253.3 68.1 253L72.3 248.7C72.5 248.4 73.3 248.2 74 248.2L92.5 247.1C93.2 247.1 93.6 247.2 93.4 247.5L90 251.7C89.7 252.1 88.9 252.3 88.2 252.3Z" fill="#939598"/>
<path d="M105.2 251.3L93.1 252C92.4 252 92 251.9 92.2 251.6L95.5 247.4C95.7 247.2 96.4 246.9 97.1 246.9L108.7 246.2C109.4 246.2 109.8 246.3 109.6 246.6L106.8 250.8C106.7 251.1 105.9 251.3 105.2 251.3Z" fill="#939598"/>
<path d="M122.4 250.3L110.3 251C109.6 251 109.1 250.9 109.3 250.6L112.1 246.4C112.3 246.2 112.9 245.9 113.6 245.9L125.2 245.2C125.9 245.2 126.3 245.3 126.2 245.6L123.9 249.8C123.8 250.1 123.1 250.3 122.4 250.3Z" fill="#939598"/>
<path d="M139.6 249.3L127.5 250C126.8 250 126.3 249.9 126.4 249.6L128.6 245.4C128.7 245.2 129.4 244.9 130.1 244.9L141.7 244.2C142.4 244.2 142.9 244.3 142.8 244.6L141.1 248.7C141 249.1 140.3 249.3 139.6 249.3Z" fill="#939598"/>
<path d="M156.9 248.3L144.8 249C144.1 249 143.6 248.9 143.7 248.6L145.3 244.5C145.4 244.3 146 244 146.7 244L158.3 243.3C159 243.3 159.5 243.4 159.4 243.7L158.3 247.8C158.2 248.1 157.6 248.3 156.9 248.3Z" fill="#939598"/>
<path d="M174.1 247.3L162 248C161.3 248 160.8 247.9 160.8 247.6L161.8 243.5C161.9 243.3 162.5 243 163.1 243L174.7 242.3C175.4 242.3 175.9 242.4 175.9 242.7L175.4 246.8C175.4 247.1 174.8 247.3 174.1 247.3Z" fill="#939598"/>
<path d="M191.3 246.3L179.2 247C178.5 247 177.9 246.9 178 246.6L178.4 242.5C178.4 242.3 179 242 179.7 242L191.3 241.3C192 241.3 192.5 241.4 192.5 241.7L192.6 245.7C192.5 246 192 246.3 191.3 246.3Z" fill="#939598"/>
<path d="M208.4 245.3L196.3 246C195.6 246 195 245.9 195 245.6L194.8 241.6C194.8 241.4 195.3 241.1 196 241.1L207.6 240.4C208.3 240.4 208.9 240.5 208.9 240.8L209.6 244.8C209.7 245 209.2 245.3 208.4 245.3Z" fill="#939598"/>
<path d="M225.6 244.3L213.5 245C212.8 245 212.2 244.9 212.1 244.7L211.3 240.7C211.3 240.5 211.8 240.2 212.5 240.2L224.1 239.5C224.8 239.5 225.4 239.6 225.5 239.8L226.8 243.8C226.9 244 226.4 244.3 225.6 244.3Z" fill="#939598"/>
<path d="M243.7 243.3L231.6 244C230.9 244 230.2 243.9 230.2 243.7L228.8 239.7C228.7 239.5 229.2 239.2 229.9 239.2L241.5 238.5C242.2 238.5 242.8 238.6 242.9 238.8L244.8 242.7C244.9 243 244.4 243.2 243.7 243.3Z" fill="#939598"/>
<path d="M260.8 242.3L248.7 243C248 243 247.3 242.9 247.2 242.7L245.2 238.8C245.1 238.6 245.5 238.3 246.2 238.3L257.8 237.6C258.5 237.6 259.2 237.7 259.3 237.9L261.8 241.8C262 242 261.6 242.2 260.8 242.3Z" fill="#939598"/>
<path d="M278 241.3L265.9 242C265.2 242 264.5 241.9 264.3 241.7L261.7 237.8C261.5 237.6 262 237.4 262.7 237.3L274.3 236.6C275 236.6 275.7 236.7 275.9 236.9L279 240.8C279.2 241 278.7 241.2 278 241.3Z" fill="#939598"/>
<path d="M295.2 240.2L283.1 240.9C282.4 240.9 281.7 240.8 281.5 240.6L278.4 236.7C278.2 236.5 278.6 236.3 279.3 236.2L290.9 235.5C291.6 235.5 292.3 235.6 292.5 235.8L296.2 239.6C296.3 240 295.9 240.2 295.2 240.2Z" fill="#939598"/>
<path d="M322.6 238.7L300.3 240C299.6 240 298.8 239.9 298.6 239.7L294.9 235.9C294.7 235.7 295.1 235.5 295.7 235.4L317.1 234.2C317.8 234.2 318.6 234.3 318.8 234.5L323.4 238.3C323.7 238.4 323.3 238.6 322.6 238.7Z" fill="#939598"/>
<path d="M73.6 270.2L51.5 271.5C50.7 271.5 50.2 271.4 50.5 271.1L54.7 266.8C54.9 266.5 55.8 266.3 56.6 266.3L77.9 265.1C78.7 265.1 79.2 265.2 79 265.5L75.6 269.7C75.2 269.9 74.4 270.2 73.6 270.2Z" fill="#939598"/>
<path d="M93.1 269.1L79.2 269.9C78.4 269.9 77.9 269.8 78.1 269.5L81.4 265.3C81.6 265.1 82.4 264.8 83.2 264.8L96.6 264C97.4 264 97.9 264.1 97.7 264.4L94.9 268.6C94.7 268.8 93.9 269 93.1 269.1Z" fill="#939598"/>
<path d="M112.7 267.9L98.8 268.7C98 268.7 97.5 268.6 97.6 268.3L100.4 264.1C100.6 263.9 101.3 263.6 102.1 263.6L115.5 262.8C116.3 262.8 116.8 262.9 116.7 263.2L114.4 267.4C114.3 267.6 113.5 267.9 112.7 267.9Z" fill="#939598"/>
<path d="M132.4 266.8L118.5 267.6C117.7 267.6 117.1 267.5 117.3 267.2L119.5 263C119.6 262.8 120.4 262.5 121.2 262.5L134.6 261.7C135.4 261.7 135.9 261.8 135.8 262.1L134.1 266.2C134 266.5 133.2 266.7 132.4 266.8Z" fill="#939598"/>
<path d="M242.2 260.4L138.6 266.4C137.8 266.4 137.2 266.3 137.3 266L138.9 261.9C139 261.7 139.7 261.4 140.5 261.4L240.4 255.6C241.2 255.6 241.9 255.7 242 255.9L243.6 259.8C243.6 260.1 243 260.3 242.2 260.4Z" fill="#939598"/>
<path d="M261.9 259.2L248 260C247.2 260 246.4 259.9 246.3 259.7L244.6 255.8C244.5 255.6 245.1 255.3 245.8 255.3L259.2 254.5C260 254.5 260.7 254.6 260.9 254.8L263.1 258.7C263.3 258.9 262.7 259.2 261.9 259.2Z" fill="#939598"/>
<path d="M281.6 258.1L267.7 258.9C266.9 258.9 266.1 258.8 266 258.6L263.7 254.7C263.6 254.5 264.1 254.2 264.9 254.2L278.3 253.4C279.1 253.4 279.9 253.5 280 253.7L282.8 257.6C282.9 257.8 282.4 258 281.6 258.1Z" fill="#939598"/>
<path d="M301.2 256.9L287.3 257.7C286.5 257.7 285.7 257.6 285.5 257.4L282.6 253.5C282.4 253.3 282.9 253.1 283.7 253L297.1 252.2C297.9 252.2 298.7 252.3 298.9 252.5L302.3 256.3C302.6 256.6 302.1 256.9 301.2 256.9Z" fill="#939598"/>
<path d="M320.9 255.8L307 256.6C306.2 256.6 305.4 256.5 305.2 256.3L301.7 252.5C301.5 252.3 302 252.1 302.8 252L316.2 251.2C317 251.2 317.8 251.3 318 251.5L322 255.3C322.2 255.5 321.7 255.7 320.9 255.8Z" fill="#939598"/>
<path d="M340.6 254.6L326.7 255.4C325.9 255.4 325 255.3 324.8 255.1L320.7 251.3C320.5 251.1 320.9 250.9 321.7 250.8L335.1 250C335.9 250 336.7 250.1 337 250.3L341.6 254.1C341.9 254.4 341.4 254.6 340.6 254.6Z" fill="#939598"/>
<path d="M93.5 257.6L63.2 259.4C62.5 259.4 62 259.3 62.3 259L66.5 254.7C66.7 254.4 67.5 254.2 68.2 254.2L97.3 252.5C98 252.5 98.5 252.6 98.3 252.9L95.2 257.1C95 257.3 94.3 257.6 93.5 257.6Z" fill="#939598"/>
<path d="M111.7 256.6L99 257.3C98.3 257.3 97.8 257.2 98 256.9L101 252.7C101.2 252.5 101.9 252.2 102.6 252.2L114.8 251.5C115.5 251.5 116 251.6 115.8 251.9L113.3 256.1C113.1 256.3 112.4 256.5 111.7 256.6Z" fill="#939598"/>
<path d="M129.7 255.5L117 256.2C116.3 256.2 115.8 256.1 115.9 255.8L118.3 251.6C118.4 251.4 119.1 251.1 119.9 251.1L132.1 250.4C132.8 250.4 133.3 250.5 133.2 250.8L131.3 255C131.1 255.2 130.4 255.5 129.7 255.5Z" fill="#939598"/>
<path d="M147.8 254.5L135.1 255.2C134.4 255.2 133.8 255.1 133.9 254.8L135.7 250.7C135.8 250.5 136.5 250.2 137.2 250.2L149.4 249.5C150.1 249.5 150.6 249.6 150.6 249.9L149.3 254C149.2 254.2 148.5 254.4 147.8 254.5Z" fill="#939598"/>
<path d="M165.8 253.4L153.1 254.1C152.4 254.1 151.8 254 151.9 253.7L153.1 249.6C153.2 249.4 153.8 249.1 154.5 249.1L166.7 248.4C167.4 248.4 168 248.5 167.9 248.8L167.2 252.9C167.2 253.1 166.5 253.4 165.8 253.4Z" fill="#939598"/>
<path d="M183.8 252.4L171.1 253.1C170.4 253.1 169.8 253 169.8 252.7L170.5 248.6C170.5 248.4 171.2 248.1 171.9 248.1L184.1 247.4C184.8 247.4 185.4 247.5 185.4 247.8L185.2 251.9C185.1 252.1 184.5 252.3 183.8 252.4Z" fill="#939598"/>
<path d="M201.8 251.3L189.1 252C188.4 252 187.8 251.9 187.8 251.6L187.9 247.6C187.9 247.4 188.5 247.1 189.2 247.1L201.4 246.4C202.1 246.4 202.7 246.5 202.7 246.8L203.1 250.8C203.1 251 202.5 251.3 201.8 251.3Z" fill="#939598"/>
<path d="M219.8 250.3L207.1 251C206.4 251 205.7 250.9 205.7 250.7L205.2 246.7C205.2 246.5 205.7 246.2 206.4 246.2L218.6 245.5C219.3 245.5 219.9 245.6 220 245.8L221 249.8C221.1 250 220.5 250.2 219.8 250.3Z" fill="#939598"/>
<path d="M237.8 249.2L225.1 249.9C224.4 249.9 223.7 249.8 223.6 249.6L222.5 245.6C222.4 245.4 223 245.1 223.7 245.1L235.9 244.4C236.6 244.4 237.3 244.5 237.4 244.7L239 248.6C239.1 248.9 238.5 249.2 237.8 249.2Z" fill="#939598"/>
<path d="M255.8 248.2L243.1 248.9C242.4 248.9 241.7 248.8 241.6 248.6L239.9 244.7C239.8 244.5 240.3 244.2 241 244.2L253.2 243.5C253.9 243.5 254.6 243.6 254.7 243.8L256.9 247.7C257 247.9 256.5 248.1 255.8 248.2Z" fill="#939598"/>
<path d="M273.8 247.1L261.1 247.8C260.4 247.8 259.6 247.7 259.5 247.5L257.2 243.6C257.1 243.4 257.5 243.2 258.3 243.1L270.5 242.4C271.2 242.4 271.9 242.5 272.1 242.7L274.9 246.6C275 246.8 274.5 247.1 273.8 247.1Z" fill="#939598"/>
<path d="M291.8 246.1L279.1 246.8C278.4 246.8 277.6 246.7 277.4 246.5L274.5 242.6C274.3 242.4 274.8 242.2 275.5 242.1L287.7 241.4C288.4 241.4 289.2 241.5 289.4 241.7L292.8 245.5C293 245.8 292.6 246 291.8 246.1Z" fill="#939598"/>
<path d="M309.8 245L297.1 245.7C296.4 245.7 295.6 245.6 295.4 245.4L291.9 241.6C291.7 241.4 292.1 241.2 292.8 241.1L305 240.4C305.7 240.4 306.5 240.5 306.7 240.7L310.7 244.5C311 244.7 310.6 245 309.8 245Z" fill="#939598"/>
<path d="M327.9 244L315.2 244.7C314.5 244.7 313.7 244.6 313.4 244.4L309.3 240.6C309.1 240.4 309.5 240.2 310.2 240.1L322.4 239.4C323.1 239.4 323.9 239.5 324.2 239.7L328.8 243.5C329 243.7 328.6 243.9 327.9 244Z" fill="#939598"/>
<path d="M100 263L57.3 265.5C56.5 265.5 56.1 265.4 56.3 265.1L60.5 260.8C60.7 260.5 61.6 260.3 62.3 260.3L103.4 257.9C104.2 257.9 104.6 258 104.5 258.3L101.7 262.5C101.5 262.7 100.8 262.9 100 263Z" fill="#939598"/>
<path d="M118.8 261.9L105.5 262.7C104.7 262.7 104.2 262.6 104.4 262.3L107.1 258.1C107.3 257.9 108 257.6 108.7 257.6L121.5 256.9C122.3 256.9 122.8 257 122.6 257.3L120.4 261.5C120.3 261.6 119.6 261.8 118.8 261.9Z" fill="#939598"/>
<path d="M137.7 260.8L124.4 261.6C123.6 261.6 123.1 261.5 123.2 261.2L125.3 257C125.4 256.8 126.1 256.5 126.9 256.5L139.7 255.8C140.5 255.8 141 255.9 140.9 256.2L139.3 260.3C139.2 260.5 138.5 260.7 137.7 260.8Z" fill="#939598"/>
<path d="M156.6 259.7L143.3 260.5C142.5 260.5 142 260.4 142 260.1L143.5 256C143.6 255.8 144.3 255.5 145 255.5L157.8 254.8C158.6 254.8 159.1 254.9 159.1 255.2L158.1 259.3C158 259.4 157.3 259.6 156.6 259.7Z" fill="#939598"/>
<path d="M175.4 258.6L162.1 259.4C161.3 259.4 160.7 259.3 160.8 259L161.7 254.9C161.8 254.7 162.4 254.4 163.2 254.4L176 253.7C176.8 253.7 177.3 253.8 177.3 254.1L176.9 258.2C176.8 258.3 176.2 258.5 175.4 258.6Z" fill="#939598"/>
<path d="M194.2 257.5L180.9 258.3C180.1 258.3 179.5 258.2 179.5 258L179.8 253.9C179.8 253.7 180.4 253.4 181.2 253.4L194 252.7C194.8 252.7 195.4 252.8 195.4 253L195.6 257C195.6 257.2 195 257.4 194.2 257.5Z" fill="#939598"/>
<path d="M213.1 256.4L199.8 257.2C199 257.2 198.4 257.1 198.4 256.9L198.1 252.9C198.1 252.7 198.7 252.4 199.4 252.4L212.2 251.7C213 251.7 213.6 251.8 213.6 252L214.4 256C214.5 256.1 213.9 256.3 213.1 256.4Z" fill="#939598"/>
<path d="M231.9 255.3L218.6 256.1C217.8 256.1 217.1 256 217.1 255.8L216.2 251.8C216.1 251.6 216.7 251.3 217.5 251.3L230.3 250.6C231.1 250.6 231.7 250.7 231.8 250.9L233.2 254.9C233.3 255 232.7 255.2 231.9 255.3Z" fill="#939598"/>
<path d="M250.8 254.2L237.5 255C236.7 255 236 254.9 235.9 254.7L234.5 250.7C234.4 250.5 235 250.2 235.7 250.2L248.5 249.5C249.3 249.5 250 249.6 250.1 249.8L252 253.7C252.1 253.9 251.5 254.1 250.8 254.2Z" fill="#939598"/>
<path d="M269.6 253.1L256.3 253.9C255.5 253.9 254.8 253.8 254.7 253.6L252.7 249.7C252.6 249.5 253.1 249.2 253.8 249.2L266.6 248.5C267.4 248.5 268.1 248.6 268.2 248.8L270.7 252.7C270.9 252.8 270.4 253 269.6 253.1Z" fill="#939598"/>
<path d="M288.4 252L275.1 252.8C274.3 252.8 273.6 252.7 273.4 252.5L270.8 248.6C270.6 248.4 271.1 248.2 271.9 248.1L284.7 247.4C285.5 247.4 286.2 247.5 286.4 247.7L289.5 251.6C289.7 251.7 289.2 251.9 288.4 252Z" fill="#939598"/>
<path d="M307.3 250.9L294 251.7C293.2 251.7 292.4 251.6 292.2 251.4L289 247.5C288.8 247.3 289.3 247.1 290 247L302.8 246.3C303.6 246.3 304.3 246.4 304.6 246.6L308.3 250.4C308.5 250.6 308.1 250.8 307.3 250.9Z" fill="#939598"/>
<path d="M334.3 249.3L312.9 250.5C312.1 250.5 311.3 250.4 311.1 250.2L307.3 246.4C307.1 246.2 307.5 246 308.3 245.9L328.9 244.7C329.7 244.7 330.5 244.8 330.7 245L335.3 248.8C335.5 249 335.1 249.3 334.3 249.3Z" fill="#939598"/>
<path d="M394.5 272.4C393.5 273.4 390.4 274.2 385.8 274.4L9.1 296.4C4.6 296.7 1.3 296.2 0.300002 295.4C-1.1 297.1 2.7 298.1 9.2 297.7L385.9 275.7C392.5 275.3 396.2 273.9 394.5 272.4Z" fill="#F1F2F2"/>
<path opacity="0.3015" d="M395 273.3V273C395 272.7 394.8 272.5 394.4 272.2L332.6 228.7C331.2 227.7 328.5 226.9 325.5 226.5C326.9 226 327.8 224.6 327.7 223.1L318 56.4999C317.7 50.6999 312.7 46.2999 306.9 46.5999L61 60.8999C55.2 61.1999 50.8 66.1999 51.1 71.9999L60.8 238.6C60.9 240.3 62.3 241.7 63.9 241.8C61.2 242.5 58.9 243.5 57.7 244.6L0.599997 295.1C0.499997 295.2 0.399997 295.3 0.399997 295.4L0.299997 295.5C0.299997 295.6 0.199997 295.6 0.199997 295.7V295.8V295.9V296.2C0.499997 300.8 4.4 304.3 9 304L387.2 282C391.7 281.8 395.2 277.8 395 273.3Z" fill="url(#paint3_linear)"/>
<path d="M91.6 101.5C86.3 103.9 80.4 106.7 78.4 111.9C74 123 90.3 133.3 88.6 145C87.1 155 74.1 159.2 66.9 166.8C61.1 172.8 59.1 181.7 61.7 189.4C64.3 197.1 71.5 203.3 79.9 205.1C93.2 208 108.5 201 120.1 207.7C128.6 212.6 131.8 223.5 140.9 227.4C150.6 231.6 161.8 225.8 170.5 219.9C179.2 214 189.5 207.5 199.8 210.5C209.7 213.3 216 224.3 226.4 224.7C236.8 225.2 244 214.8 254 212.1C264.1 209.3 274.5 214.9 285 216.3C300.2 218.4 316.3 210.8 323.5 198.2C325.4 194.9 326.7 191.3 328 187.7C330.1 181.9 332.2 176.1 334.3 170.4C337.2 162.4 340.1 154.3 340.2 145.8C340.4 134.5 335.4 123.3 326.6 115.4C317.8 107.5 305.6 103.3 293.5 103.9C288.1 104.2 281.8 105 278.2 101.3C273.1 95.9999 279 87.3999 277.1 80.3999C275.6 74.8999 269.2 71.4999 263.1 71.2999C257 71.0999 251.1 73.2999 245.5 75.4999C239.9 77.7999 234.2 80.1999 228.1 80.3999C218.1 80.6999 209.1 75.1999 199.7 72.1999C190.3 69.0999 177.5 69.6999 173.1 78.0999C170.4 83.3999 171.3 91.0999 165.6 93.5999C160.1 96.0999 154.3 90.8999 150.7 86.2999C148.1 82.8999 143.7 77.7999 138.6 78.7999C135 79.4999 130.4 83.9999 127 85.5999C115.3 91.1999 103.4 96.2999 91.6 101.5Z" fill="#C6E4FF"/>
<path d="M47.2 135.9C42 126.4 42.1 112.6 45.8 102.4C54.2 105.4 63 108.5 69.4 114.8C76.1 121.3 80.1 132.1 78.3 141.4C76.3 151.7 64.4 151.5 57.1 146.4C52.3 143.1 50 141.1 47.2 135.9Z" fill="#13B789"/>
<path d="M70 139.5C68.9 130 70.1 128.3 70.5 125.8C68.5 129.2 67.6 133.3 68 137.2C65.6 134.4 63.2 131.6 61 128.7C60.3 122 61.3 120.7 61.6 118.7C60.2 121.1 59.5 123.9 59.4 126.6C56.4 122.6 53.6 118.5 51 114.3C53.7 121 57.1 127.4 61.1 133.4C58.1 132.9 55 133.2 52.1 134.3C54.1 134.2 55.7 133.5 62.3 135.3C65.6 140 69.3 144.4 73.4 148.4C74.5 147.8 75.4 147 76.2 146C74.1 143.9 72.1 141.7 70 139.5Z" fill="white"/>
<path d="M56.4 170.3C45.6 170 33.7 162.9 26.9 154.5C33.8 148.7 40.9 142.8 49.5 140.5C58.5 138 69.8 140.1 77 146.4C84.8 153.3 78.6 163.5 70.5 167.2C65.1 169.5 62.2 170.5 56.4 170.3Z" fill="#B1EDB7"/>
<path d="M71 152.4C62.2 148.6 61.4 146.7 59.5 145C61.5 148.4 64.5 151.3 68 153C64.4 153.7 60.8 154.2 57.1 154.7C51 151.9 50.3 150.4 48.8 149.1C50.2 151.5 52.2 153.6 54.5 155C49.6 155.5 44.6 155.9 39.7 156C46.8 157.1 54.1 157.4 61.3 157C59.3 159.3 58 162.2 57.5 165.2C58.5 163.4 58.6 161.7 63.5 156.9C69.2 156.4 74.9 155.5 80.4 154C80.4 152.8 80.2 151.6 79.8 150.4C76.9 151.1 74 151.8 71 152.4Z" fill="white"/>
<path d="M66.6 194.4C56.6 198.6 42.9 197 33.2 192.3C37 184.2 41.1 175.9 48 170.2C55.2 164.2 66.3 161.4 75.4 164.1C85.4 167.1 84 179 78.1 185.7C74.3 190.1 72 192.1 66.6 194.4Z" fill="#008E5D"/>
<path d="M72.6 172C63 172.1 61.5 170.8 59.1 170C62.3 172.3 66.2 173.6 70.2 173.7C67.2 175.8 64.1 177.8 61 179.8C54.3 179.7 53 178.7 51.1 178.1C53.4 179.7 56 180.8 58.8 181.1C54.5 183.6 50.2 186 45.7 188.2C52.7 186.2 59.4 183.5 65.8 180.1C65 183 64.9 186.2 65.7 189.1C65.8 187.1 65.3 185.5 67.7 179C72.7 176.2 77.5 173 81.9 169.4C81.4 168.3 80.7 167.3 79.8 166.4C77.4 168.4 75 170.2 72.6 172Z" fill="white"/>
<path d="M339.3 135.9C344.5 126.4 344.4 112.6 340.7 102.4C332.3 105.4 323.5 108.5 317.1 114.8C310.4 121.3 306.4 132.1 308.2 141.4C310.2 151.7 322.1 151.5 329.4 146.4C334.2 143.1 336.5 141.1 339.3 135.9Z" fill="#13B789"/>
<path d="M316.4 139.5C317.5 130 316.3 128.3 315.9 125.8C317.9 129.2 318.8 133.3 318.4 137.2C320.8 134.4 323.2 131.6 325.4 128.7C326.1 122 325.1 120.7 324.8 118.7C326.2 121.1 326.9 123.9 327 126.6C330 122.6 332.8 118.5 335.4 114.3C332.7 121 329.3 127.4 325.3 133.4C328.3 132.9 331.4 133.2 334.3 134.3C332.3 134.2 330.7 133.5 324.1 135.3C320.8 140 317.1 144.4 313 148.4C311.9 147.8 311 147 310.2 146C312.3 143.9 314.4 141.7 316.4 139.5Z" fill="white"/>
<path d="M330.1 170.3C340.9 170 352.8 162.9 359.6 154.5C352.7 148.7 345.6 142.8 337 140.5C328 138 316.7 140.1 309.5 146.4C301.7 153.3 307.9 163.5 316 167.2C321.4 169.5 324.2 170.5 330.1 170.3Z" fill="#B1EDB7"/>
<path d="M315.4 152.4C324.2 148.6 325 146.7 326.9 145C324.9 148.4 321.9 151.3 318.4 153C322 153.7 325.6 154.2 329.3 154.7C335.4 151.9 336.1 150.4 337.6 149.1C336.2 151.5 334.2 153.6 331.9 155C336.8 155.5 341.8 155.9 346.7 156C339.6 157.1 332.3 157.4 325.1 157C327.1 159.3 328.4 162.2 328.9 165.2C327.9 163.4 327.8 161.7 322.9 156.9C317.2 156.4 311.5 155.5 306 154C306 152.8 306.2 151.6 306.6 150.4C309.5 151.1 312.5 151.8 315.4 152.4Z" fill="white"/>
<path d="M319.8 194.4C329.8 198.6 343.5 197 353.2 192.3C349.4 184.2 345.3 175.9 338.4 170.2C331.2 164.2 320.1 161.4 311 164.1C301 167.1 302.4 179 308.3 185.7C312.2 190.1 314.4 192.1 319.8 194.4Z" fill="#008E5D"/>
<path d="M313.9 172C323.5 172.1 325 170.8 327.4 170C324.2 172.3 320.3 173.6 316.3 173.7C319.3 175.8 322.4 177.8 325.5 179.8C332.2 179.7 333.5 178.7 335.4 178.1C333.1 179.7 330.5 180.8 327.7 181.1C332 183.6 336.3 186 340.8 188.2C333.8 186.2 327.1 183.5 320.7 180.1C321.5 183 321.6 186.2 320.8 189.1C320.7 187.1 321.2 185.5 318.8 179C313.8 176.2 309 173 304.6 169.4C305.1 168.3 305.8 167.3 306.7 166.4C309.1 168.4 311.4 170.2 313.9 172Z" fill="white"/>
<path d="M292.5 190.5C292.5 190.5 293.9 198.3 305.9 229.8C305.8 231.2 305.8 233.5 306.9 234.6C308.1 235.7 314.7 230.4 312.6 228.4C306.2 222.1 306.5 196.6 305 189.4L301 187.6L292.5 190.5Z" fill="#F69EA7"/>
<path opacity="0.32" d="M292.5 190.5C292.5 190.5 293.9 198.3 305.9 229.8C305.8 231.2 305.8 233.5 306.9 234.6C308.1 235.7 314.7 230.4 312.6 228.4C306.2 222.1 306.5 196.6 305 189.4L301 187.6L292.5 190.5Z" fill="#F69EA7"/>
<path d="M311.3 225.8C309.2 227.8 308.3 228.1 305.6 229.2L303 234.8C303 234.8 299.9 240.9 301 242.1C302.2 243.2 313.7 232.3 313.7 232.3C313.7 232.3 315.6 230.5 313.6 228.5C312.4 227.2 311.8 227.1 311.3 225.8Z" fill="#68396B"/>
<path d="M292.2 193.9C292.2 193.9 289.6 201.4 285 234.8C284.2 236 283.1 238 283.6 239.5C284.1 241 291.7 239.7 291.6 236.8C291.5 228 299.8 208 302.1 201L301.2 195.5L292.2 193.9Z" fill="#F69EA7"/>
<path d="M291.7 233.9C288.9 234.6 288 234.5 285.1 234.1L280.1 237.7C280.1 237.7 274.4 241.6 274.8 243.1C275.3 244.6 290.6 240.7 290.6 240.7C290.6 240.7 293.2 240 292.4 237.3C292 235.6 291.5 235.3 291.7 233.9Z" fill="#68396B"/>
<path d="M310.6 140.5C310.6 140.5 315.2 145.3 315.7 155.3C316.4 167.8 293 224 293 224C293 224 286.8 236.2 285.6 234.1C284.4 232 296.6 157 296.6 157L283.9 151.9C283.9 151.9 284.4 145 287.8 141.5C290.1 144.9 310.6 140.5 310.6 140.5Z" fill="#F69EA7"/>
<path opacity="0.32" d="M309.5 172.7C311.6 171.3 313.1 168.8 312.9 166.2C311.6 167.5 309.6 167.9 307.8 168.3C305 168.8 302.3 169.4 299.5 169.9C297.6 170.3 296.4 170.6 297.8 172.5C300.2 175.8 306.6 174.5 309.5 172.7Z" fill="#F69EA7"/>
<path d="M289 136.8C290.2 133.9 291.3 131 292.2 128C292.2 127.9 300.7 129.8 301.4 129.9C304.2 130.5 305.9 132.1 307.6 134.4C308.8 136.2 310.7 136.2 312.1 137.7C313.7 139.4 314.1 143.1 315 145.2C317.3 150.9 320.3 156.4 323.8 161.5C317.6 168.3 308.4 172.3 299.2 172C290 171.8 281 167.3 275.2 160.2C274.9 159.7 279.4 153.6 280 153C281.5 151.5 283.1 150 283.9 147.9C284.6 145.9 285.4 144.1 286.4 142.2C287.3 140.6 288.2 138.7 289 136.8Z" fill="#3B89C4"/>
<path d="M296.1 101.5C293.2 109.5 287.5 116.5 280.4 120.9C273.6 125.1 266.1 126.7 258.2 126.9C257.4 126.9 256.6 126.9 255.8 126.7C255.4 126.6 250.2 124.3 252.4 126.7C252.7 127.1 253.2 127.3 253.4 127.7C253.1 127.2 248.6 127.1 247.9 127C247.6 127 247.3 127 247 127.1C246.7 127.2 246.6 127.6 246.7 127.8C246.8 127.9 246.9 128 247 128.1C247.6 128.5 248.2 129 248.8 129.4C248.5 129.9 248.6 130.6 249 131.2C249.3 131.7 249.9 132 250.4 132.3C254.9 134.5 258 131.4 262.5 130.8C264.3 130.6 266.1 130.8 268 130.8C285.2 130.8 299.1 120.1 307.1 104.8C307.3 104.4 307.3 103.6 306.8 103.7" fill="#F69EA7"/>
<path d="M307.6 107.1C305.3 110.8 302.1 113.7 299 116.6C295.1 120.2 291.2 123.8 286.6 126.2C283 128.1 279.1 129.2 275.2 130C269.9 131.1 264.5 131.5 259.2 131.3C258.8 129.7 258.3 128.1 257.9 126.5C262.6 126 267.1 124.6 271.6 123.2C275.6 121.9 279.6 120.6 283.2 118.3C286.8 116 289.9 112.8 291.2 108.6C292.2 105.6 294.1 102.9 296.7 101.1C298.6 99.7998 301.1 99.3998 303.4 99.9998C305.6 100.6 307.6 102.3 308.5 104.5" fill="#EB4A78"/>
<path opacity="0.32" d="M307.6 107.1C305.3 110.8 302.1 113.7 299 116.6C295.1 120.2 291.2 123.8 286.6 126.2C283 128.1 279.1 129.2 275.2 130C269.9 131.1 264.5 131.5 259.2 131.3C258.8 129.7 258.3 128.1 257.9 126.5C262.6 126 267.1 124.6 271.6 123.2C275.6 121.9 279.6 120.6 283.2 118.3C286.8 116 289.9 112.8 291.2 108.6C292.2 105.6 294.1 102.9 296.7 101.1C298.6 99.7998 301.1 99.3998 303.4 99.9998C305.6 100.6 307.6 102.3 308.5 104.5" fill="#F69EA7"/>
<path d="M292.4 121.8C293.1 126.3 292.2 131 289.7 134.8C296 139.8 305.1 140.9 312.3 137.5C309.3 133.2 309.4 125.1 312.6 120.6C316 115.9 314.8 111.2 316.5 105.8C316.8 104.7 317.2 103.6 317.2 102.5C317.1 98.8999 313.4 98.0999 310.1 97.8999C308 97.7999 306.1 97.0999 304.2 97.6999C301.5 98.4999 297.4 99.5999 295.7 102.1C294.4 104.1 293.3 106.6 292.2 108.9C291.8 109.7 291.4 110.6 291 111.3C290.1 113 289.1 114.8 289 116.7C288.8 119.4 290.2 122.2 292.6 123.6C294.2 124.5 296.2 124.8 298.1 124.8C300.8 124.9 305 126.4 307.5 125.4C309.8 124.5 311.4 122.8 312.5 120.8" fill="#EB4A78"/>
<path d="M305.7 104.2L317.2 124.8L307.1 141.8C307.1 141.8 311.1 145.4 312.5 144.7C313.9 144.1 328.1 123.8 327.7 122.2C327.3 120.5 314.1 100.9 314.1 100.9L305.7 104.2Z" fill="#EB4A78"/>
<path d="M313.6 100.8C314.5 102.6 315.5 104.4 315.9 106.4C316.3 108.5 316 111 314.6 112.2C316.9 111.9 319.2 111.7 321.2 110.3C323.2 108.9 324.8 106.2 324.6 103.3C324.4 101.1 323.3 99.1998 322.9 97.0998C322.3 93.6998 323.6 90.2998 324 86.7998C324.6 80.9998 322.3 74.8998 318.4 71.8998C315.3 69.4998 311.2 69.3998 308 71.2998C306.6 72.0998 304.2 73.6998 304.9 76.1998C305.4 77.9998 307.5 79.2998 308.6 80.3998C310.1 81.8998 311.8 83.6998 312.4 86.1998C312.9 88.1998 312.4 90.0998 312 92.0998C311.6 95.4998 312.3 97.9998 313.6 100.8Z" fill="url(#paint4_linear)"/>
<path opacity="0.32" d="M314.8 80.7999C314.8 81.7999 314.6 82.8999 314.2 83.7999C313.8 84.6999 312.9 85.4999 311.9 85.7999C310.6 86.0999 309.2 85.5999 308.2 84.6999C307.2 83.7999 306.6 82.5999 305.9 81.3999C304.4 78.5999 303.1 73.0999 307.8 72.8999C312.3 72.6999 314.8 76.8999 314.8 80.7999Z" fill="#F69EA7"/>
<path d="M313 86C314.1 81.5 312.4 76.3 308.8 73.4C305.2 70.5 299.8 69.8 295.6 71.9C294 72.7 292.4 74.5 293.3 76C293.9 77.2 295.5 77.3 296.8 77.8C299.3 78.7 300.8 81.1 302.1 83.4C303.1 85 304 86.7 304.3 88.5C304.6 90.8 303.8 92.8 302.4 94.5C306.5 97.3 312.1 89.4 313 86Z" fill="url(#paint5_linear)"/>
<path d="M302.7 91.8999C303.2 92.9999 303.8 94.0999 304.3 95.1999C304.3 95.2999 305.9 97.7999 306.1 97.2999C304.9 99.4999 303.5 101.5 301.8 103.4C301.4 103.8 301 104.2 300.5 104.5C300 104.7 299.3 104.7 298.9 104.3C298.4 103.8 298.5 103 298.5 102.4C298.7 101.2 299 99.8999 298.6 98.7999C298.3 97.9999 297.9 97.1999 297.5 96.4999C297.2 95.7999 296 92.6999 295 92.7999C295.2 92.5999 302.7 91.8999 302.7 91.8999Z" fill="#F69EA7"/>
<path opacity="0.32" d="M298.8 98.4998L295.6 92.4998L302.8 91.7998L305 96.5998C303.2 97.7998 301.1 98.3998 298.8 98.4998Z" fill="#F69EA7"/>
<path d="M290.3 90.7995C290.6 92.2995 291.3 93.5995 292.1 94.6995C293 95.7995 294 96.0995 295.2 96.4995C299.1 97.5995 304.5 96.6995 305.8 91.5995C306.5 91.9995 307.3 91.2995 307.6 90.4995C307.8 89.6995 307.6 88.9995 307.5 88.1995C307.5 87.4995 307.5 86.8995 307.4 86.1995C307.2 84.5995 307 82.8995 306.3 81.4995C305.5 79.9995 304.3 78.8995 303 78.1995C301.7 77.4995 300.3 77.0995 298.9 76.6995C296.5 76.0995 293 75.2995 291.3 78.0995C290.3 79.6995 290.9 82.6995 290.6 84.6995C290.4 86.5995 289.9 88.6995 290.3 90.7995Z" fill="#F69EA7"/>
<path d="M309.4 85.4C310 85.7 310.3 86.5 310.3 87.3C310.4 89.5 308.8 91.4999 306.7 92.0999C306.1 92.2999 305.3 92.1999 304.9 91.6999C304.5 91.1999 304.7 90.4 305 89.8C305.6 88.6 307.7 84.5 309.4 85.4Z" fill="#F69EA7"/>
<path d="M309.7 87.1997C309.7 87.1997 309.4 87.1997 308.9 87.3997C308.4 87.5997 307.8 88.0997 307.4 88.7997C307 89.4997 306.8 90.1997 306.7 90.6997C306.6 91.1997 306.6 91.4997 306.6 91.4997C306.6 91.4997 306.7 91.1997 306.9 90.6997C307.1 90.1997 307.3 89.4997 307.7 88.8997C308.1 88.2997 308.6 87.7997 309.1 87.4997C309.4 87.2997 309.7 87.1997 309.7 87.1997Z" fill="#68396B"/>
<path d="M307.2 91.0999C307.2 91.0999 307.3 90.9999 307.5 90.7999C307.7 90.5999 307.9 90.2999 308 89.8999C308.1 89.4999 308.1 89.0999 308.1 88.7999C308 88.4999 307.9 88.3999 307.9 88.3999C307.9 88.3999 307.9 88.5999 308 88.7999C308 89.0999 308 89.3999 307.9 89.7999C307.8 90.1999 307.6 90.4999 307.5 90.6999C307.3 90.9999 307.2 91.0999 307.2 91.0999Z" fill="#68396B"/>
<path d="M303.5 84.7996C303.6 84.7996 303.5 84.5996 303.2 84.2996C302.9 83.9996 302.4 83.7996 301.8 83.5996C301.1 83.3996 300.5 83.4996 300.1 83.4996C299.7 83.5996 299.4 83.6996 299.5 83.7996C299.6 83.8996 300.5 83.7996 301.6 84.0996C302.7 84.3996 303.4 84.8996 303.5 84.7996Z" fill="#68396B"/>
<path d="M294.7 83.6998C294.7 83.5998 294.5 83.4998 294.2 83.4998C293.9 83.3998 293.4 83.3998 292.9 83.4998C292.4 83.5998 292.1 83.7998 291.9 83.9998C291.7 84.1998 291.7 84.3998 291.8 84.3998C291.9 84.3998 292 84.3998 292.3 84.2998C292.5 84.1998 292.9 84.0998 293.3 83.9998C293.9 83.7998 294.7 83.7998 294.7 83.6998Z" fill="#68396B"/>
<path d="M295.8 85.5996C295.9 86.0996 296 86.6996 296 87.1996C296 87.6996 296 88.2996 296 88.7996V89.1996V89.2996V89.3996C296 89.4996 295.9 89.5996 295.9 89.5996C295.8 89.6996 295.7 89.8996 295.5 89.9996C295.4 89.9996 295.3 90.0996 295.2 90.0996H295.1C295 90.1996 294.9 90.3996 295 90.5996C295.1 90.7996 295.2 90.9996 295.4 91.1996C295.2 91.0996 294.9 90.8996 294.8 90.6996C294.7 90.5996 294.7 90.3996 294.7 90.1996C294.7 89.9996 294.8 89.7996 294.9 89.6996C295 89.5996 295.1 89.5996 295.2 89.5996C295.3 89.5996 295.3 89.5996 295.3 89.4996C295.4 89.4996 295.4 89.3996 295.5 89.2996V89.1996C295.5 89.1996 295.5 89.1996 295.5 89.0996V88.9996V88.5996L295.7 86.9996C295.7 86.5996 295.7 86.0996 295.8 85.5996Z" fill="#68396B"/>
<path d="M298.4 88.1999C298.7 87.8999 299 87.6999 299.3 87.5999C299.6 87.4999 300 87.4999 300.3 87.4999C300.6 87.4999 301 87.5999 301.3 87.7999C301.6 87.8999 301.9 88.0999 302.2 88.3999H302.3C302.4 88.2999 302.6 88.1999 302.7 87.9999C302.5 87.9999 302.3 88.0999 302.2 88.1999H302.4C302.2 87.7999 301.9 87.4999 301.6 87.2999C301.2 87.0999 300.8 86.8999 300.4 86.8999C300 86.8999 299.5 86.8999 299.2 87.1999C298.8 87.4999 298.5 87.8999 298.4 88.1999Z" fill="#68396B"/>
<path d="M302.2 88.1999L302.4 87.8999L302 87.9999C301.9 87.9999 301.9 88.0999 301.9 88.1999C301.9 88.2999 302 88.2999 302.1 88.2999C302.1 88.1999 302.2 88.1999 302.2 88.1999Z" fill="#68396B"/>
<path d="M294.5 88.1996C294.3 87.8996 294.1 87.5996 293.9 87.3996C293.6 87.1996 293.4 87.1996 293.1 87.0996C292.8 87.0996 292.5 87.0996 292.2 87.1996C291.9 87.2996 291.6 87.3996 291.3 87.5996H291.2C291.1 87.4996 291 87.2996 290.9 87.1996C291 87.2996 291.2 87.3996 291.3 87.4996H291.1C291.4 87.1996 291.7 86.8996 292.1 86.7996C292.5 86.6996 292.9 86.5996 293.2 86.5996C293.6 86.5996 293.9 86.7996 294.2 87.0996C294.4 87.3996 294.6 87.7996 294.5 88.1996Z" fill="#68396B"/>
<path d="M291.3 87.3995L291.2 86.9995L291.5 87.0995C291.6 87.0995 291.6 87.1995 291.6 87.2995C291.5 87.3995 291.5 87.4995 291.3 87.3995C291.4 87.3995 291.3 87.3995 291.3 87.3995Z" fill="#68396B"/>
<path d="M293.9 92.4L299.5 91.5C299.5 91.5 300.2 93.7 298 94.3C295 95.3 293.9 92.4 293.9 92.4Z" fill="#68396B"/>
<path d="M297.2 93.1996C297.9 92.7996 298.7 92.5997 299.5 92.7997C299.4 93.3997 299 93.9997 297.9 94.2997C297.2 94.4997 296.6 94.4997 296.1 94.3997C296.4 93.8997 296.7 93.4996 297.2 93.1996Z" fill="#EB4A78"/>
<path d="M298 80.5998C296.4 81.5998 291.9 82.9998 290.2 81.8998C289 81.0998 288.8 79.3998 289.3 78.0998C291.5 72.0998 298.3 69.2998 303.8 72.6998C306.1 74.0998 307.5 75.9998 308.5 78.2998C309.1 79.6998 310.8 81.4998 310.6 83.0998C310.4 85.0998 307.4 85.8998 305.9 86.7998C305.5 85.4998 304.5 83.9998 303.3 83.2998C302.4 82.7998 301.1 82.9998 299.9 82.3998C299.8 82.2998 297.8 80.7998 298 80.5998Z" fill="url(#paint6_linear)"/>
<path d="M309.5 72.6999C308.7 73.8999 306.3 73.6999 305.1 72.8999C303.9 72.0999 304.4 70.9999 305.2 69.7999C306 68.5999 306.9 67.7999 308.1 68.5999C309.3 69.3999 310.3 71.4999 309.5 72.6999Z" fill="#EB4A78"/>
<path d="M308.5 71.9999C309.3 70.7999 311.7 70.9999 312.9 71.7999C314.1 72.5999 313.6 73.6999 312.8 74.8999C312 76.0999 311.1 76.8999 309.9 76.0999C308.7 75.2999 307.7 73.1999 308.5 71.9999Z" fill="#EB4A78"/>
<path d="M310.1 73.0998C309.6 73.7998 308.6 73.9998 307.9 73.4998C307.2 72.9998 307 71.9998 307.5 71.2998C308 70.5998 309 70.3998 309.7 70.8998C310.4 71.3998 310.6 72.3998 310.1 73.0998Z" fill="#EB4A78"/>
<path opacity="0.32" d="M310.1 73.0998C309.6 73.7998 308.6 73.9998 307.9 73.4998C307.2 72.9998 307 71.9998 307.5 71.2998C308 70.5998 309 70.3998 309.7 70.8998C310.4 71.3998 310.6 72.3998 310.1 73.0998Z" fill="#F69EA7"/>
<path d="M79.5 63.5C74.4 67.6 77.8 78.4 80.6 82.9C82.6 86.1 86.1 89 90.1 89C92.1 89 93.9 88.1 95.4 86.8C97.1 85.2 96.9 82.8 96.8 80.5C96.7 77.7 96.7 74.9 96.6 72.1C96.6 71 96.5 69.8 96.1 68.9C95.4 67.3 93.9 67.1 92.6 67.1C88.4 67 84.1 66.9 79.9 66.8" fill="#68396B"/>
<path d="M85.7 83.5L81.1 93.2L83.3 94.9C86 97.1 90.1 95.8 91.1 92.5L93.8 84L85.7 83.5Z" fill="#CB9399"/>
<path opacity="0.32" d="M90.8 92.2L94.2 84.1L85.8 83.5L83.5 90C85.7 91.5 88.2 92.1 90.8 92.2Z" fill="#CB9399"/>
<path d="M99.2 81.7002C99.1 83.3002 98.4 84.8002 97.6 86.1002C96.8 87.4002 95.7 87.8002 94.5 88.3002C90.9 89.7002 84.1 89.2002 82.1 85.1002C81.8 84.5002 81.7 83.9002 81.6 83.3002C80.8 78.4002 79.6 72.8002 84.3 69.5002C85.6 68.6002 87.1 68.0002 88.5 67.5002C91 66.6002 94.7 65.4002 96.7 68.2002C97.9 69.8002 97.6 73.1002 98.1 75.1002C98.7 77.3002 99.4 79.5002 99.2 81.7002Z" fill="#CB9399"/>
<path d="M85.2 76.4C85.1 76.4 85.2 76.2 85.4 75.9C85.6 75.6 86.1 75.2 86.7 74.9C87.3 74.6 87.9 74.5 88.3 74.5C88.7 74.5 89 74.6 89 74.6C89 74.8 88 74.8 87 75.3C85.9 75.8 85.4 76.4 85.2 76.4Z" fill="#68396B"/>
<path d="M93.4 73.2002C93.4 73.1002 93.6 73.0002 93.9 72.9002C94.2 72.8002 94.7 72.7002 95.2 72.8002C95.7 72.8002 96.1 73.0002 96.3 73.1002C96.5 73.3002 96.6 73.5002 96.5 73.5002C96.4 73.5002 96.3 73.5002 96 73.4002C95.8 73.4002 95.4 73.3002 95 73.3002C94.2 73.3002 93.5 73.4002 93.4 73.2002Z" fill="#68396B"/>
<path d="M92.2 76.1001C92.4 76.6001 92.6 77.1001 92.7 77.6001L93.2 79.1001L93.3 79.5001L93.4 79.7001V79.8001C93.4 79.9001 93.5 79.9001 93.6 79.9001H93.7C93.8 79.9001 93.9 79.9001 94 80.0001C94.2 80.1001 94.3 80.3001 94.3 80.4001C94.3 80.6001 94.3 80.7001 94.3 80.9001C94.2 81.2001 94 81.4001 93.8 81.6001C93.9 81.4001 94 81.1001 94 80.9001C94 80.7001 93.9 80.5001 93.8 80.4001H93.7C93.6 80.4001 93.5 80.4001 93.4 80.4001C93.2 80.4001 93.1 80.3001 92.9 80.1001C93 80.0001 93 79.9001 93 79.8001L92.9 79.6001L92.8 79.2001C92.6 78.7001 92.5 78.2001 92.4 77.7001C92.3 77.2001 92.2 76.7001 92.2 76.1001Z" fill="#68396B"/>
<path d="M95.4 82.1001L87.8 83.1001C87.8 83.1001 87.7 86.2001 90.8 86.2001C95.1 86.2001 95.4 82.1001 95.4 82.1001Z" fill="#68396B"/>
<path d="M91.3 84.4001C90.2 84.1001 89.1 84.2001 88.2 84.8001C88.6 85.5001 89.3 86.2001 90.8 86.2001C91.8 86.2001 92.6 86.0001 93.2 85.6001C92.7 85.1001 92.1 84.6001 91.3 84.4001Z" fill="#EB4A78"/>
<path d="M90 78.1005C89.7 77.9005 89.4 77.7004 89 77.7004C88.7 77.7004 88.3 77.7005 88 77.8005C87.7 77.9005 87.4 78.1004 87.1 78.2004C86.8 78.4004 86.5 78.6005 86.3 78.9005H86.2C86 78.8005 86.1 78.6004 86.3 78.7004L86.1 78.8005C86.2 78.4005 86.5 78.1005 86.8 77.8005C87.1 77.5005 87.5 77.3004 87.9 77.2004C88.3 77.1004 88.8 77.1005 89.2 77.3005C89.6 77.4005 89.9 77.7005 90 78.1005Z" fill="#68396B"/>
<path d="M94 77.7003C94.2 77.3003 94.4 77.0003 94.7 76.9003C95 76.7003 95.3 76.6003 95.6 76.5003C95.9 76.4003 96.3 76.4003 96.6 76.5003C96.9 76.5003 97.3 76.6003 97.6 76.8003H97.7C97.8 76.6003 97.7 76.5003 97.5 76.6003H97.7C97.4 76.3003 97 76.1003 96.6 76.0003C96.2 75.9003 95.8 75.9003 95.4 76.0003C95 76.1003 94.6 76.3003 94.3 76.6003C94.1 76.9003 93.9 77.3003 94 77.7003Z" fill="#68396B"/>
<path d="M78.7 75.2001C78 75.5001 77.7 76.3001 77.7 77.0001C77.5 79.1001 78.9 81.3001 81 82.0001C81.6 82.2001 82.4 82.2001 82.8 81.7001C83.2 81.2001 83.1 80.4001 82.8 79.8001C82.4 78.7001 80.5 74.4001 78.7 75.2001Z" fill="#CB9399"/>
<path d="M78.4 77C78.4 77 78.7 77 79.2 77.3C79.7 77.5 80.2 78.1 80.6 78.8C81 79.5 81.1 80.2 81.2 80.7C81.3 81.2 81.3 81.5 81.3 81.5C81.3 81.5 81.2 81.2 81.1 80.7C81 80.2 80.8 79.5 80.4 78.9C80 78.2 79.5 77.7 79.1 77.5C78.7 77.1 78.4 77 78.4 77Z" fill="#68396B"/>
<path d="M80.6 81.0998C80.6 81.0998 80.5 80.9998 80.3 80.7998C80.2 80.5998 80 80.2998 79.9 79.7998C79.8 79.3998 79.8 78.9998 79.9 78.6998C80 78.3998 80.1 78.2998 80.1 78.2998C80.1 78.2998 80.1 78.4998 80 78.6998C80 78.8998 79.9 79.2998 80 79.6998C80.1 80.0998 80.3 80.3998 80.4 80.5998C80.6 80.8998 80.6 80.9998 80.6 81.0998Z" fill="#68396B"/>
<path d="M83.4 74.2C83.4 73.5 83.6 72.8 84 72.2C88.2 73.4 92.5 73.8 96.8 73.5C97.2 72.9 97.5 72.4 97.9 71.8C98.7 71.8 99.4 72.4 99.6 73.1C100.8 70.5 100.3 67.3 98.6 65C96.9 62.7 94.2 61.3 91.4 60.7C86.9 59.7 78.4 60.7 77.3 66.1C76.4 70.6 80.7 75.6 84.8 77.1C83.9 76.3 83.4 75.2 83.4 74.2Z" fill="#68396B"/>
<path d="M80.4 244.8C83.3 247.4 90.6 249.6 92.1 246.3C92.7 244.9 91.8 243.4 91 242.1C88.5 238.4 86.1 235.8 86.9 231.1C84.5 231.4 82.2 231.8 79.8 232.1C80.2 232 79.7 236.1 79.6 236.5C79.1 238.9 78.1 241.1 79.2 243.5C79.5 243.9 79.9 244.4 80.4 244.8Z" fill="#68396B"/>
<path d="M103.6 230.9C106.8 231.6 107.9 231.4 111.2 230.9L117.1 234.8C117.1 234.8 123.8 239 123.3 240.8C122.8 242.6 105 238.6 105 238.6C105 238.6 102 237.9 102.9 234.8C103.4 232.9 104 232.5 103.6 230.9Z" fill="#68396B"/>
<path d="M73.8 149.7C73.8 149.7 73.2 165.1 74.1 166.5C75 167.9 79.2 235.3 79.2 235.3C79.2 235.3 84.1 236.5 87.1 234.6C90.1 232.7 92.9 170.4 92.9 170.4L96.2 170L102.8 193.8C102.8 193.8 101.2 231.6 102.4 231.7C103.6 231.9 112.1 233.3 112.6 231.2C113.1 229.1 116 190.8 116 190.8L102.2 148.3L73.8 149.7Z" fill="#3B89C4"/>
<path opacity="0.32" d="M106.5 161.4C103.8 166.6 96.2 170 96.2 170L102.8 193.8C102.8 193.8 101.2 231.6 102.4 231.7C103.6 231.9 112.1 233.3 112.6 231.2C113.1 229.1 116 190.8 116 190.8L106.5 161.4Z" fill="#CB9399"/>
<path d="M145.5 55.9998C145.6 55.6998 145.8 55.4998 146 55.1998C146.3 54.7998 146.7 53.8998 147.2 53.6998C147.2 53.6998 148.4 53.5998 148.2 53.8998C149.6 51.8998 150.3 54.6998 150.3 55.7998C150.4 58.1998 149.7 61.8998 148.5 63.9998C147.5 65.8998 145.3 69.4998 142.7 68.0998C139.1 66.1998 141.2 59.9998 141.9 57.0998C143.1 57.6998 143.1 58.7998 143.6 59.7998C144.1 59.1998 145 56.8998 145.5 55.9998Z" fill="#CB9399"/>
<path d="M94.2 93.5998L103.1 94.2998L121.8 85.5998L139.3 62.7998C139.3 62.7998 146.7 65.7998 145.9 67.5998C145 69.3998 128.3 96.3998 128.3 96.3998L101.5 110.5L94.2 93.5998Z" fill="url(#paint7_linear)"/>
<path opacity="0.32" d="M102.2 110.1L98.7 99.2L124.3 92.6L146 67.5L128.4 96.3L102.2 110.1Z" fill="#CB9399"/>
<path d="M65.3 98.1999C67.8 105 71.7 107.1 71.3 114.3C70.8 122.7 73.9 131.4 73.5 139.9C73.4 142.5 72.5 145.2 72.8 147.8C73.2 150.7 77 150.9 79.5 151.4C87.3 153.2 95.6 152.6 103.1 149.7C103.7 149.5 102.9 139.4 102.9 138.4C102.8 133.4 102.6 128.4 102.4 123.5C102.1 115.2 102.3 105.8 101.6 100.2C101.1 95.9999 96 92.9999 95.2 92.7999C91.2 91.7999 88.2 90.8999 84.1 90.6999C74.1 90.0999 65.4 98.2999 65.3 98.1999Z" fill="url(#paint8_linear)"/>
<path opacity="0.32" d="M92 91.2999C94.3 91.6999 96.2 92.2999 96 93.5999C95.9 94.3999 95.2 95.1999 94.3 95.7999C90.4 98.1999 79.4 96.3999 77.9 92.8999C76.4 89.4999 82.5 90.1999 85.2 90.5999C86.6 90.7999 89.5 90.8999 92 91.2999Z" fill="#CB9399"/>
<path d="M92.4 90.5996C93.2 90.5996 94 90.6996 94.7 90.8996C97.2 91.5996 96.6 93.2996 94.7 94.3996C91.9 96.0996 87.2 95.5996 84.1 94.7996C81.7 94.1996 75 91.3996 79.6 89.0996C80.5 88.5996 81.7 88.4996 82.6 88.7996C83.6 89.0996 84.3 89.7996 85.3 90.0996C86.1 90.3996 87.1 90.3996 88 90.3996C89.2 90.3996 90.5 90.4996 91.7 90.4996C92 90.5996 92.2 90.5996 92.4 90.5996Z" fill="url(#paint9_linear)"/>
<path opacity="0.32" d="M78.3 110.9C78.9 113.7 77 129.7 79.1 130.8C85.8 134.1 91.6 138.6 93.2 140.1C94.7 141.6 93.4 144.1 91.3 143.7C86.4 142.8 81 139.9 78.1 137.2C73.9 133.3 71.6 127.7 71.1 122C70.7 117.8 71.2 113.1 72.7 109.1C74.6 104.1 77.5 106.9 78.3 110.9Z" fill="#CB9399"/>
<path d="M149.9 193.9C149.9 193.9 152.5 201.4 157.1 234.8C157.9 236 159 238 158.5 239.5C158 241 149.7 239.5 150.5 236.8C153.1 228.2 142.8 211 140.5 203.9L140.9 195.4L149.9 193.9Z" fill="#F69EA7"/>
<path d="M150.4 233.9C153.2 234.6 154.1 234.5 157 234.1L162 237.7C162 237.7 167.7 241.6 167.3 243.1C166.8 244.6 151.5 240.7 151.5 240.7C151.5 240.7 148.9 240 149.7 237.3C150.2 235.6 150.7 235.3 150.4 233.9Z" fill="#13B789"/>
<path d="M150 191.8C150 191.8 148.6 199.6 136.6 231.1C136.7 232.5 136.7 234.8 135.6 235.9C134.4 237 127.8 231.7 129.9 229.7C136.3 223.4 135.6 203.3 137 196.1L141.4 188.9L150 191.8Z" fill="#F69EA7"/>
<path d="M131.2 227C133.3 229 134.2 229.3 136.9 230.4L139.5 236C139.5 236 142.6 242.1 141.5 243.3C140.3 244.4 128.8 233.5 128.8 233.5C128.8 233.5 126.9 231.7 128.9 229.7C130.1 228.4 130.7 228.4 131.2 227Z" fill="#13B789"/>
<path d="M148.2 76.9996C145.8 86.0996 147.6 96.0996 153.1 103.8C154.2 105.3 155.4 106.7 156.1 108.4C156.8 110.1 156.8 112.2 155.5 113.6C155.6 111.4 154.2 109.4 152.5 108.1C150.8 106.8 148.7 106 146.9 104.8C142 101.9 138.6 96.6996 137.6 91.0996C136.7 85.4996 138.3 79.4996 141.9 75.0996" fill="#DB857D"/>
<path opacity="0.32" d="M148.2 76.9996C145.8 86.0996 147.6 96.0996 153.1 103.8C154.2 105.3 155.4 106.7 156.1 108.4C156.8 110.1 156.8 112.2 155.5 113.6C155.6 111.4 154.2 109.4 152.5 108.1C150.8 106.8 148.7 106 146.9 104.8C142 101.9 138.6 96.6996 137.6 91.0996C136.7 85.4996 138.3 79.4996 141.9 75.0996" fill="#F69EA7"/>
<path d="M158.2 151.4C158.2 151.4 158.4 153.2 158.4 157.4C158.4 164.2 156.4 172.3 155.6 175.2C154.2 180 140.8 222.5 140.8 222.5C140.8 222.5 132.7 222.3 132.2 218.8C131.7 215.3 143.7 155.4 143.7 155.4L158.2 151.4Z" fill="#68396B"/>
<path opacity="0.32" d="M158.2 151.4C158.2 151.4 158.4 153.2 158.4 157.4C158.4 164.2 156.4 172.3 155.6 175.2C154.2 180 140.8 222.5 140.8 222.5C140.8 222.5 132.7 222.3 132.2 218.8C131.7 215.3 143.7 155.4 143.7 155.4L158.2 151.4Z" fill="#F69EA7"/>
<path d="M130.7 142.6C134.4 145.4 137.1 146.1 140.4 145.9C144.5 145.7 153.8 145.9 154.3 141.3C152.2 134.4 152.7 126 152.6 118.3C149.2 119.3 145.8 120.2 142.3 121.2C140.1 121.8 135.2 122.2 134.5 124.4C134.1 125.7 134.6 127.7 134.5 129.1C134.4 130.7 134.2 132.2 133.8 133.7C133.7 134.9 131.8 142.6 130.7 142.6Z" fill="#F69EA7"/>
<path d="M138.4 100.3C146.8 98.4997 154.4 93.7997 159.7 87.2997C164.8 81.0997 167.3 73.8997 168.6 66.0997C168.7 65.2997 168.9 64.4997 168.7 63.6997C168.6 63.2997 167.1 57.7997 169.1 60.2997C169.4 60.6997 169.6 61.0997 170 61.4997C169.5 61.0997 170 56.6997 170.1 55.8997C170.1 55.5997 170.1 55.2997 170.3 55.0997C170.5 54.8997 170.8 54.6997 171.1 54.8997C171.2 54.9997 171.3 55.0997 171.4 55.1997C171.7 55.8997 172.1 56.4997 172.4 57.1997C173 56.9997 173.7 57.1997 174.1 57.5997C174.6 57.9997 174.8 58.5997 175 59.1997C176.6 63.9997 173.1 66.5997 172 70.9997C171.5 72.7997 171.5 74.5997 171.2 76.3997C168.9 93.3997 156.5 105.9 140.3 111.8C139.9 112 139.1 111.8 139.3 111.4" fill="#F69EA7"/>
<path d="M146.1 96.2996C150.4 95.5996 154 92.8996 156.7 89.5996C159.4 86.3996 161.3 82.4996 163.1 78.6996C165.1 74.3996 167.1 70.0996 168.2 65.5996C169.7 66.2996 171.2 66.8996 172.8 67.5996C172.3 72.8996 171.2 78.1996 169.4 83.2996C168.1 87.0996 166.4 90.7996 164.1 94.0996C161.1 98.3996 157 101.8 152.9 105.2C149.6 107.9 146.3 110.7 142.4 112.5" fill="#EB4A78"/>
<path d="M135.2 97.8997C127.1 95.1997 120 89.6997 115.4 82.6997C111 75.9997 109.2 68.4997 108.8 60.6997C108.8 59.8997 108.7 59.0997 109 58.2997C109.1 57.8997 111.2 52.5997 108.9 54.8997C108.6 55.1997 108.3 55.6997 107.9 55.9997C108.4 55.6997 108.4 51.1997 108.4 50.4997C108.4 50.1997 108.4 49.8997 108.3 49.5997C108.2 49.2997 107.8 49.1997 107.5 49.2997C107.4 49.3997 107.3 49.4997 107.2 49.5997C106.8 50.1997 106.4 50.7997 106 51.3997C105.5 51.0997 104.7 51.2997 104.2 51.5997C103.7 51.9997 103.4 52.4997 103.1 53.0997C101 57.6997 104.2 60.6997 104.9 65.0997C105.2 66.8997 105 68.6997 105.1 70.5997C105.6 87.7997 116.7 101.4 132.1 109C132.5 109.2 133.3 109.1 133.2 108.7" fill="#F69EA7"/>
<path d="M133.9 95.7997C129.7 94.5997 119.9 88.7997 117.6 85.2997C115.2 81.7997 113.8 77.7997 112.4 73.7997C110.8 69.3997 109.3 64.8997 108.7 60.1997C107.1 60.6997 105.5 61.1997 104 61.6997C103.9 67.0997 104.5 72.3997 105.7 77.6997C106.6 81.5997 107.9 85.4997 109.9 88.9997C112.5 93.5997 116.2 97.3997 119.9 101.2C122.9 104.3 125.9 107.4 129.6 109.6" fill="#EB4A78"/>
<path d="M135.8 127.6C142.9 126.6 150 125.6 157.2 124.6C157.2 124.6 157.1 116.6 157.1 116C157.2 113.8 157.4 112.1 157.9 110C158.2 108.4 157.6 106.8 156.7 105.5C155.5 103.9 154 102.6 152.8 101C152 99.7998 150.7 97.3998 149.6 96.2998C148.3 94.9998 144.3 97.3998 142.5 96.5998C142.8 96.1998 143.1 95.2998 142.4 95.6998C140.3 96.7998 141.4 97.7998 139.4 96.5998C138.7 96.1998 134.7 95.8998 133.9 95.6998C132.1 95.2998 129.5 96.4998 128.6 97.9998C126.5 101.6 128.2 107.2 128.6 111.1C129.1 116.2 129.9 123.1 130.4 128.2C132.1 128.1 134 127.8 135.8 127.6Z" fill="#EB4A78"/>
<path d="M136.7 88.7997C136.8 91.6997 135.7 94.8997 137.5 97.3997C139 99.4997 141.2 101.1 143.4 102.5C143.9 102.8 145.8 104.3 146.4 103.8C147.2 103.2 145.5 99.9997 145.1 99.0997C144.1 96.6997 143.8 94.7997 143.9 92.0997C143.9 89.9997 144 87.7997 144 85.6997C144 85.6997 136.7 88.7997 136.7 88.7997Z" fill="#F69EA7"/>
<path opacity="0.32" d="M143.9 92.7997L144 85.6997L136.7 88.6997L136.9 94.1997C139.4 94.3997 141.7 93.6997 143.9 92.7997Z" fill="#F69EA7"/>
<path d="M150 86.3997C149.7 87.8997 148.9 89.2997 148 90.3997C147.1 91.4997 146 91.7997 144.7 92.1997C140.6 93.1997 135.1 92.0997 133.9 86.7997C133.2 87.1997 132.3 86.4997 132.1 85.5997C131.9 84.7997 132.2 84.0997 132.2 83.1997C132.3 82.4997 132.2 81.8997 132.3 81.1997C132.5 79.4997 132.8 77.7997 133.6 76.2997C134.4 74.7997 135.7 73.6997 137.1 72.9997C138.5 72.2997 139.9 71.8997 141.4 71.5997C143.9 70.9997 147.6 70.2997 149.2 73.2997C150.1 74.9997 149.5 78.0997 149.7 80.0997C150 82.0997 150.5 84.2997 150 86.3997Z" fill="#F69EA7"/>
<path d="M130.3 80.2995C129.6 80.5995 129.3 81.4995 129.3 82.1995C129.2 84.3995 130.7 86.5995 132.9 87.2995C133.5 87.4995 134.3 87.4995 134.8 86.9995C135.2 86.4995 135 85.6995 134.8 84.9995C134.2 83.6995 132.2 79.3995 130.3 80.2995Z" fill="#F69EA7"/>
<path d="M130 82.0996C130 82.0996 130.3 82.0996 130.8 82.2996C131.3 82.4996 131.9 82.9996 132.3 83.7996C132.7 84.4996 132.9 85.1996 133 85.7996C133.1 86.2996 133.1 86.6996 133.1 86.6996C133.1 86.6996 133 86.3996 132.8 85.8996C132.7 85.3996 132.4 84.6996 132 83.9996C131.6 83.2996 131.1 82.7996 130.6 82.5996C130.4 82.1996 130 82.0996 130 82.0996Z" fill="#68396B"/>
<path d="M132.5 86.2995C132.5 86.2995 132.4 86.1995 132.2 85.9995C132 85.7995 131.8 85.3995 131.7 84.9995C131.6 84.5995 131.6 84.1995 131.7 83.8995C131.8 83.5995 131.9 83.4995 131.9 83.4995C131.9 83.4995 131.9 83.6995 131.8 83.8995C131.8 84.1995 131.8 84.4995 131.9 84.8995C132 85.2995 132.2 85.5995 132.3 85.8995C132.4 86.0995 132.5 86.2995 132.5 86.2995Z" fill="#68396B"/>
<path d="M136.5 79.8995C136.4 79.8995 136.5 79.6995 136.8 79.3995C137.1 79.0995 137.6 78.8995 138.3 78.6995C139 78.5995 139.6 78.5995 140.1 78.6995C140.5 78.7995 140.8 78.8995 140.7 78.9995C140.6 79.0995 139.6 78.9995 138.5 79.1995C137.3 79.3995 136.6 79.9995 136.5 79.8995Z" fill="#DB857D"/>
<path d="M140.2 87.0996C140.3 87.0996 140.4 87.2996 140.7 87.4996C141 87.6996 141.4 87.9996 142 88.1996C142.6 88.3996 143.2 88.3996 143.6 88.3996C144 88.3996 144.3 88.2996 144.3 88.3996C144.3 88.3996 144.1 88.5996 143.6 88.6996C143.2 88.7996 142.5 88.7996 141.8 88.5996C141.1 88.3996 140.6 87.9996 140.4 87.6996C140.1 87.2996 140.1 87.0996 140.2 87.0996Z" fill="#68396B"/>
<path d="M145.7 78.8997C145.7 78.7997 145.9 78.6997 146.2 78.6997C146.5 78.6997 147 78.6997 147.5 78.7997C148 78.8997 148.4 79.0997 148.6 79.2997C148.8 79.4997 148.8 79.6997 148.7 79.6997C148.6 79.6997 148.5 79.5997 148.2 79.5997C148 79.4997 147.6 79.3997 147.2 79.2997C146.4 79.0997 145.7 79.0997 145.7 78.8997Z" fill="#68396B"/>
<path d="M144.4 80.7993C144.2 81.2993 144.2 81.8993 144.1 82.3993C144.1 82.8993 144.1 83.4993 144.1 83.9993V84.3993V84.4993V84.5993C144.1 84.6993 144.2 84.7993 144.2 84.8993C144.3 85.0993 144.4 85.1993 144.6 85.2993C144.7 85.2993 144.8 85.3993 144.9 85.3993H145C145.1 85.4993 145.2 85.6993 145.1 85.8993C145 86.0993 144.8 86.2993 144.7 86.5993C144.9 86.4993 145.2 86.2993 145.4 86.0993C145.5 85.9993 145.5 85.7993 145.5 85.5993C145.5 85.3993 145.4 85.1993 145.3 85.0993C145.2 84.9993 145.1 84.9993 145 84.8993C144.9 84.8993 144.9 84.8993 144.9 84.7993C144.8 84.7993 144.8 84.6993 144.7 84.5993V84.4993C144.7 84.4993 144.7 84.4993 144.7 84.3993V84.2993V83.8993L144.6 82.2993C144.6 81.8993 144.5 81.3993 144.4 80.7993Z" fill="#68396B"/>
<path d="M141.6 83.4996C141.3 83.1996 141 82.9996 140.7 82.7996C140.4 82.6996 140 82.6996 139.7 82.6996C139.3 82.6996 139 82.7996 138.7 82.9996C138.4 83.0996 138 83.2996 137.8 83.5996H137.7C137.6 83.4996 137.4 83.2996 137.3 83.1996C137.5 83.2996 137.7 83.2996 137.8 83.3996H137.6C137.8 82.9996 138.1 82.6996 138.5 82.4996C138.9 82.2996 139.3 82.0996 139.7 82.0996C140.1 82.0996 140.6 82.1996 141 82.3996C141.3 82.6996 141.6 83.0996 141.6 83.4996Z" fill="#68396B"/>
<path d="M137.8 83.2995L137.6 82.9995L138 83.0995C138.1 83.0995 138.1 83.1995 138.1 83.2995C138.1 83.3995 138 83.3995 137.9 83.3995C137.8 83.3995 137.8 83.3995 137.8 83.2995Z" fill="#68396B"/>
<path d="M145.7 83.5994C145.9 83.2994 146.1 82.9994 146.4 82.7994C146.7 82.5994 147 82.5994 147.3 82.5994C147.6 82.5994 147.9 82.5994 148.3 82.6994C148.6 82.7994 148.9 82.8994 149.2 83.0994H149.3C149.4 82.9994 149.5 82.7994 149.6 82.5994C149.4 82.6994 149.3 82.7994 149.2 82.8994H149.4C149.1 82.5994 148.8 82.2994 148.4 82.0994C148 81.8994 147.6 81.8994 147.2 81.8994C146.8 81.8994 146.4 82.0994 146.1 82.3994C145.8 82.7994 145.7 83.1994 145.7 83.5994Z" fill="#68396B"/>
<path d="M149 82.8995L149.1 82.4995L148.8 82.5995C148.7 82.5995 148.7 82.6995 148.7 82.7995C148.8 82.8995 148.9 82.9995 149 82.8995Z" fill="#68396B"/>
<path d="M144.2 67.2996C145.6 67.8996 146.9 68.7996 147.9 69.8996C148.8 70.8996 149.7 72.0996 149.8 73.3996C149.9 74.1996 149.7 74.9996 149.7 75.6996C149.7 77.2996 151.2 78.0996 151.3 79.6996C151.3 80.1996 151.3 80.6996 151.1 81.0996C150.9 81.4996 150.5 81.8996 150 81.8996C150.7 81.2996 150.3 79.9996 149.3 79.7996C148.2 79.4996 147.3 79.4996 146.2 79.4996C143 79.4996 139.8 77.8996 137.9 75.3996C137.6 76.9996 136.6 78.4996 135.1 79.4996C134.8 79.6996 134.4 79.9996 134.2 80.2996C134 80.7996 134.2 81.2996 134.4 81.7996C135.4 84.4996 134.9 87.6996 133.1 89.9996C133.7 87.5996 133.4 85.0996 132.3 82.8996C132 82.2996 131.5 81.5996 130.8 81.3996C130.1 81.1996 129.2 81.6996 129.3 82.3996C128.2 79.4996 127.4 76.4996 128 73.4996C129.5 66.7996 138.1 64.5996 144.2 67.2996Z" fill="#DB857D"/>
<path d="M131.6 140.5C131.6 140.5 127 145.3 126.5 155.3C125.8 167.8 147.3 223.1 147.3 223.1C147.3 223.1 154.5 224.3 155.8 222.2C157 220.1 145.6 156.9 145.6 156.9L158.3 151.8C158.3 151.8 157.8 144.9 154.4 141.4C152 144.9 131.6 140.5 131.6 140.5Z" fill="#68396B"/>
<path d="M131.6 68.4995C128 71.0995 127.3 75.9995 127 80.3995C126.7 84.3995 126.3 88.3995 126.8 92.2995C127.3 96.1995 128.6 100.2 131.2 103.2C133.4 105.7 136.5 107.4 139.1 109.6C141.7 111.8 144 114.8 143.9 118.1C147.2 115.4 147.4 110.3 146 106.2C144.6 102.2 141.8 98.6995 139.9 94.8995C137 89.1995 136.1 82.4995 137.2 76.1995C137.4 74.8995 137.8 73.4995 137.6 72.1995C137.4 70.8995 136.6 69.4995 135.3 69.0995" fill="#DB857D"/>
<path opacity="0.32" d="M148.6 121.5C150.8 121 152.9 120.2 155 119.2C154.8 120.4 154 121.4 153 121.9C152.1 122.4 151 122.6 149.9 122.8C148.1 123.1 135.6 126.5 136.5 122.1C137 119.5 139.4 121 140.6 121.4C143.4 122.3 145.9 122.2 148.6 121.5Z" fill="#F69EA7"/>
<path opacity="0.32" d="M144.5 129.2C146.3 129.2 148.2 128.9 149.9 128.1C151.5 127.2 152.8 125.6 152.9 123.8C147.4 124.6 141.8 125.4 136.3 126.2C132.7 126.7 135.2 128.1 137.3 128.6C139.6 129.1 142.1 129.2 144.5 129.2Z" fill="#F69EA7"/>
<path opacity="0.32" d="M129.7 96.5996C131.1 101.4 134.4 105.2 138.1 106.3C135.5 102.5 133.5 97.9996 132.2 93.1996C133 94.1996 133.8 95.1996 134.7 96.1996C133.6 94.7996 133.2 90.8996 132.9 88.9996C132.6 86.7996 132.2 84.7996 132.1 82.5996C132 80.5996 131.8 78.3996 130.7 77.0996C129.2 83.2996 127.8 89.9996 129.7 96.5996Z" fill="#F69EA7"/>
<path d="M130.9 76.7998C131.3 78.1998 129.6 79.8998 128.2 80.1998C126.8 80.5998 126.3 79.4998 125.9 78.0998C125.5 76.6998 125.5 75.4998 126.9 75.1998C128.2 74.7998 130.5 75.3998 130.9 76.7998Z" fill="#EB4A78"/>
<path d="M129.7 77.0998C129.3 75.6998 131 73.9998 132.4 73.6998C133.8 73.2998 134.3 74.3998 134.7 75.7998C135.1 77.1998 135.1 78.3998 133.7 78.6998C132.4 79.0998 130.1 78.4998 129.7 77.0998Z" fill="#EB4A78"/>
<path d="M131.6 76.6999C131.8 77.5999 131.3 78.3999 130.5 78.6999C129.6 78.8999 128.8 78.3999 128.5 77.5999C128.3 76.6999 128.8 75.8999 129.6 75.5999C130.5 75.2999 131.4 75.7999 131.6 76.6999Z" fill="#EB4A78"/>
<path opacity="0.32" d="M131.6 76.6999C131.8 77.5999 131.3 78.3999 130.5 78.6999C129.6 78.8999 128.8 78.3999 128.5 77.5999C128.3 76.6999 128.8 75.8999 129.6 75.5999C130.5 75.2999 131.4 75.7999 131.6 76.6999Z" fill="#F69EA7"/>
<path d="M213 232.7C216.2 233.7 217.2 233.6 220.6 233.4L226.1 237.9C226.1 237.9 232.4 242.7 231.8 244.5C231.2 246.2 213.8 240.6 213.8 240.6C213.8 240.6 210.9 239.7 212 236.6C212.7 234.7 213.3 234.4 213 232.7Z" fill="#68396B"/>
<path d="M198.2 233.2C195 233.9 193.9 233.7 190.6 233.2L184.7 237.1C184.7 237.1 178 241.3 178.5 243.1C179 244.9 196.8 240.9 196.8 240.9C196.8 240.9 199.8 240.2 198.9 237.1C198.4 235.2 197.9 234.8 198.2 233.2Z" fill="#68396B"/>
<path d="M241.8 42.4999C241.9 42.1999 242 41.8999 242.1 41.5999C242.3 41.1999 242.4 40.1999 242.8 39.8999C242.8 39.8999 243.9 39.3999 243.8 39.7999C244.6 37.4999 246 39.9999 246.4 41.0999C247.1 43.3999 247.4 47.0999 246.9 49.4999C246.4 51.5999 245.3 55.6999 242.4 54.9999C238.5 54.0999 238.8 47.5999 238.7 44.5999C240 44.7999 240.3 45.8999 241.1 46.7999C241.3 45.8999 241.5 43.3999 241.8 42.4999Z" fill="#EEBEBE"/>
<path d="M203.3 92.5001L212.1 90.7001L227.8 77.3001L238.6 50.6001C238.6 50.6001 246.5 51.5001 246.2 53.4001C245.8 55.3001 237 85.9001 237 85.9001L214.9 106.7L203.3 92.5001Z" fill="#3B89C4"/>
<path opacity="0.32" d="M215.4 106.3L212.6 90.7L232 83.5L246.1 53.5L236.9 86L215.4 106.3Z" fill="#EEBEBE"/>
<path d="M218.4 142.3L222.5 233.7C222.5 233.7 212.3 235.3 211.2 232.5C210.1 229.7 202.4 146.9 202.4 146.9L218.4 142.3Z" fill="#13B789"/>
<path opacity="0.32" d="M218.2 144.9L222.4 233.7C222.4 233.7 212.2 235.3 211.1 232.5C210 229.7 202.3 148.1 202.3 148.1L218.2 144.9Z" fill="#EEBEBE"/>
<path d="M184.9 146.7L187.2 234.1C187.2 234.1 198.5 236 199.6 234.1C200.7 232.2 203.5 161.7 203.5 161.7L207.4 155.5L217.3 142.4L184.9 146.7Z" fill="#13B789"/>
<path d="M186.9 134.9C187.5 139.5 188.3 144.1 187.7 148.7C194.9 151.3 202.9 151.3 210.1 148.9C212.5 148.1 215 146.9 216.4 144.7C218.5 141.6 217.8 137.5 217 133.8C214.7 123.1 212.2 112.4 209.5 101.9C208.9 99.6002 208.2 96.4002 206.7 94.6002C204.2 91.6002 200.1 91.7002 196.5 92.0002C194.1 92.2002 190.5 90.0002 188.6 91.6002C186 93.7002 186.1 101 185.9 103.9C185.6 108.7 185.5 113.6 185.7 118.4C185.8 124 186.2 129.5 186.9 134.9Z" fill="url(#paint10_linear)"/>
<path d="M175.9 99.3999L167.6 130.8L183.6 144.9L175.9 99.3999Z" fill="#3B89C4"/>
<path opacity="0.32" d="M175.9 99.3999L167.6 130.8L183.6 144.9L175.9 99.3999Z" fill="#EEBEBE"/>
<path d="M183.5 72.1997C182.8 72.4997 182.5 73.3997 182.4 74.1997C182.2 76.4997 183.8 78.8997 186 79.5997C186.7 79.7997 187.5 79.7997 187.9 79.2997C188.4 78.7997 188.2 77.8997 187.9 77.2997C187.4 75.8997 185.4 71.2997 183.5 72.1997Z" fill="#EEBEBE"/>
<path d="M183.1 73.9995C183.1 73.9995 183.5 73.9995 184 74.2995C184.5 74.5995 185.1 75.0995 185.5 75.8995C185.9 76.6995 186.1 77.3995 186.2 77.9995C186.3 78.4995 186.3 78.8995 186.3 78.8995C186.3 78.8995 186.2 78.5995 186.1 77.9995C186 77.4995 185.8 76.6995 185.4 75.9995C185 75.2995 184.5 74.6995 184 74.4995C183.4 74.1995 183.1 74.0995 183.1 73.9995Z" fill="#68396B"/>
<path d="M185.5 78.4995C185.5 78.4995 185.4 78.3995 185.2 78.0995C185 77.8995 184.8 77.4995 184.7 77.0995C184.6 76.6995 184.6 76.1995 184.7 75.8995C184.8 75.5995 184.9 75.4995 185 75.4995C185 75.4995 184.9 75.6995 184.9 75.8995C184.8 76.1995 184.8 76.4995 185 76.9995C185.1 77.3995 185.3 77.7995 185.4 77.9995C185.5 78.2995 185.5 78.3995 185.5 78.4995Z" fill="#68396B"/>
<path d="M207.5 72.1997C208.2 72.4997 208.5 73.3997 208.6 74.1997C208.8 76.4997 207.2 78.8997 205 79.5997C204.3 79.7997 203.5 79.7997 203.1 79.2997C202.6 78.7997 202.8 77.8997 203.1 77.2997C203.6 75.8997 205.5 71.2997 207.5 72.1997Z" fill="#EEBEBE"/>
<path d="M207.9 73.9995C207.9 73.9995 207.5 73.9995 207 74.2995C206.5 74.5995 205.9 75.0995 205.5 75.8995C205.1 76.6995 204.9 77.3995 204.8 77.9995C204.7 78.4995 204.7 78.8995 204.7 78.8995C204.7 78.8995 204.8 78.5995 204.9 77.9995C205 77.4995 205.2 76.6995 205.6 75.9995C206 75.2995 206.5 74.6995 207 74.4995C207.5 74.1995 207.9 74.0995 207.9 73.9995Z" fill="#68396B"/>
<path d="M205.5 78.4995C205.5 78.4995 205.6 78.3995 205.8 78.0995C206 77.8995 206.2 77.4995 206.3 77.0995C206.4 76.6995 206.4 76.1995 206.3 75.8995C206.2 75.5995 206.1 75.4995 206 75.4995C206 75.4995 206.1 75.6995 206.1 75.8995C206.2 76.1995 206.2 76.4995 206 76.9995C205.9 77.3995 205.7 77.7995 205.6 77.9995C205.5 78.2995 205.4 78.3995 205.5 78.4995Z" fill="#68396B"/>
<path d="M199.8 83.7999L200.2 90.1999C200.3 91.9999 198.9 93.4999 197.1 93.4999H195.6C194 93.4999 192.7 92.2999 192.5 90.7999L191.4 81.3999L199.8 83.7999Z" fill="#EEBEBE"/>
<path opacity="0.32" d="M192.4 88.9998L191.5 81.2998L199.8 83.7998L200.2 89.7998C197.6 90.2998 195 89.7998 192.4 88.9998Z" fill="#EEBEBE"/>
<path d="M204.9 78.8997C204.7 81.0997 203.7 83.1997 202.1 84.6997C199.2 87.4997 195.6 87.5997 192 86.0997C189 84.7997 187.6 83.2997 187.1 79.9997C186.7 76.6997 185.7 73.2997 187 70.0997C187.7 68.2997 188.9 66.8997 190.3 65.8997C191.7 64.8997 193.2 64.2997 194.7 63.6997C197.3 62.6997 201.1 61.3997 203.2 64.4997C205.6 67.9997 205.3 74.5997 205 78.6997C204.9 78.7997 204.9 78.7997 204.9 78.8997Z" fill="#EEBEBE"/>
<path d="M190.1 78.5C188.8 77.7 189 74.1 187.9 73.7C187.5 73.5 187.1 73.8 187 74.2C186.9 74.6 186.9 75 187 75.4C187.3 77.7 186 80.4 186.6 82.6C187.3 85.1 191 87.1 193.2 87.8C196.1 88.7 199.3 88.5 202 87.2C203.2 86.6 204.4 85.8 205.1 84.7C205.9 83.5 206.6 80.1 205.1 79.1C205.6 78 205.4 76.6 204.6 75.7C205.1 74.7 205.1 73.5 204.6 72.5C203.6 73.8 204 76.2 203.1 77.6C202 79.3 198.6 79.6 196.8 79.6C194.9 79.5 191.7 79.5 190.1 78.5Z" fill="#68396B"/>
<path d="M190 71.4999C189.9 71.4999 190 71.1999 190.3 70.9999C190.6 70.6999 191.1 70.3999 191.8 70.1999C192.5 69.9999 193.2 69.9999 193.6 70.0999C194.1 70.1999 194.3 70.2999 194.3 70.3999C194.2 70.5999 193.2 70.3999 192 70.6999C191 70.9999 190.2 71.5999 190 71.4999Z" fill="#68396B"/>
<path d="M198.1 70.6C198.1 70.5 198.4 70.5 199 70.5C199.5 70.5 200.2 70.6 200.9 70.9C201.6 71.1 202.1 71.4 202.3 71.7C202.6 72 202.5 72.2 202.3 72.2C202.2 72.2 202 72.1 201.6 72C201.3 71.9 200.8 71.7 200.2 71.5C199.2 70.9 198.1 70.8 198.1 70.6Z" fill="#68396B"/>
<path d="M199.9 75.2998C200.3 75.2998 200.6 74.7998 200.5 74.2998C200.5 73.6998 200 73.2998 199.7 73.2998C199.3 73.2998 199.2 73.7998 199.2 74.2998C199.3 74.8998 199.5 75.2998 199.9 75.2998Z" fill="#68396B"/>
<path d="M192 75.8C192.3 75.9 192.8 75.5 192.8 74.9C192.9 74.3 192.5 73.8 192.2 73.8C191.8 73.7 191.6 74.2 191.6 74.7C191.5 75.2 191.7 75.7 192 75.8Z" fill="#68396B"/>
<path d="M196.2 73.2998C196.3 73.8998 196.4 74.3998 196.4 74.9998L196.6 76.6998V77.0998V77.2998V77.3998C196.6 77.4998 196.7 77.4998 196.8 77.5998C196.8 77.5998 196.9 77.5998 196.9 77.6998C197 77.6998 197.1 77.7998 197.2 77.8998C197.4 78.0998 197.4 78.2998 197.4 78.3998C197.4 78.5998 197.4 78.6998 197.3 78.8998C197.1 79.1998 196.9 79.2998 196.6 79.4998C196.8 79.2998 197 78.9998 197 78.7998C197.1 78.5998 197 78.2998 196.9 78.2998H196.8C196.7 78.2998 196.6 78.2998 196.5 78.1998C196.3 78.0998 196.2 77.9998 196.1 77.7998C196 77.6998 196 77.5998 196 77.4998V77.2998L195.9 76.8998C195.8 76.2998 195.8 75.7998 195.9 75.1998C196 74.3998 196.1 73.7998 196.2 73.2998Z" fill="#68396B"/>
<path d="M198.1 81.8999C198 81.8999 197.9 81.9999 197.6 82.0999C197.3 82.2999 196.9 82.3999 196.4 82.4999C195.9 82.4999 195.4 82.4999 195 82.3999C194.7 82.2999 194.4 82.1999 194.4 82.2999C194.4 82.2999 194.5 82.4999 194.9 82.5999C195.3 82.7999 195.8 82.8999 196.5 82.7999C197.1 82.6999 197.6 82.4999 197.8 82.2999C198.1 82.0999 198.2 81.8999 198.1 81.8999Z" fill="white"/>
<path d="M189.8 68.4999C190.5 68.5999 191.2 68.5999 191.9 68.3999C191.4 67.7999 192 66.7999 192.8 66.9999C194.3 68.7999 196.9 69.5999 199.1 68.9999C198.6 68.2999 199.3 67.1999 200.1 67.2999C200.5 68.1999 201 69.0999 201.4 69.9999C204.2 69.7999 206.5 67.1999 206.5 64.3999C206.5 57.5999 196.9 57.7999 192.3 58.2999C189 58.5999 184.9 60.2999 185.5 64.3999C186 66.3999 187.8 68.0999 189.8 68.4999Z" fill="#68396B"/>
<path d="M188.1 61.2997C186.4 61.4997 185.2 63.0997 184.6 64.6997C183.7 67.1997 183.9 69.9997 185 72.2997C185.3 72.7997 185.5 73.2997 185.8 73.7997C186.3 74.6997 187.4 77.2997 188.3 75.4997C188.6 74.9997 188.2 73.3997 188.2 72.6997C188.2 71.7997 188.3 70.7997 188.4 69.8997C188.8 67.5997 189.9 65.2997 191.9 63.9997C193.6 62.7997 195.9 62.5997 197.9 63.1997C199.9 63.8997 201.5 65.3997 202.3 67.2997C203.6 70.3997 202.8 74.0997 204 77.1997C203.4 75.6997 205.4 73.8997 206.1 72.6997C207 71.3997 207.3 69.6997 207.3 68.0997C207.2 65.7997 206.6 62.7997 205.1 60.9997C203.7 59.2997 199.5 59.9997 198.2 61.4997" fill="#68396B"/>
<path opacity="0.32" d="M204.4 93.8997C204.7 92.4997 203.5 91.2997 202.2 91.4997C199.4 91.7997 196.6 91.8997 193.8 91.7997C192.6 91.6997 190.3 90.9997 189.2 91.3997C188 91.6997 188 92.5997 188.1 93.9997C188.2 94.8997 188.5 95.7997 189.2 96.3997C189.9 96.9997 190.8 97.0997 191.7 97.1997C195.4 97.5997 199.8 97.7997 203.1 96.8997C204.4 96.4997 204.1 95.1997 204.4 93.8997Z" fill="#EEBEBE"/>
<path d="M188.6 91.6001L175.9 99.4001L182.6 165.4C182.6 165.4 190.2 162.6 190.9 160.1C191.6 157.6 188.6 91.6001 188.6 91.6001Z" fill="#3B89C4"/>
<path d="M203.3 92.5L215.2 153.2C215.2 153.2 217.1 158.8 220.8 159.4C224.5 159.9 213.1 94.6 213.1 94.6L203.3 92.5Z" fill="#3B89C4"/>
<path d="M204.1 91.0999C204.4 89.6999 203.2 88.4999 201.9 88.6999C199.1 88.9999 196.3 89.0999 193.5 88.9999C192.3 88.8999 190 88.1999 188.9 88.5999C187.7 88.8999 187.7 89.7999 187.8 91.1999C187.9 92.0999 188.2 92.9999 188.9 93.5999C189.6 94.1999 190.5 94.2999 191.4 94.3999C195.1 94.7999 199.5 94.9999 202.8 94.0999C204.2 93.6999 203.9 92.4999 204.1 91.0999Z" fill="url(#paint11_linear)"/>
<path opacity="0.32" d="M198.1 139.3C196.9 139.4 195.7 139.4 194.6 139.7C193.5 140 192.7 140.7 193.2 141.3C193.7 141.9 195.1 142 196.2 142C197.5 142 198.8 142 200 141.9C203 141.8 206.3 141.4 208.2 140.1C209.4 139.3 209.9 138.1 209.5 137.1C209.3 136.5 208.4 135.3 207.2 135.1C205.4 134.8 205.3 135.6 204.7 136.3C203.4 137.8 201.2 139 198.1 139.3Z" fill="#EEBEBE"/>
<path d="M219.8 46C215 46 211.1 49.8 211.1 54.3C211.1 55.6 211.4 56.7 212 57.8L209.4 61.5L214.3 60.5C215.8 61.7 217.9 62.5 220.1 62.5C224.9 62.5 228.8 58.7 228.8 54.2C228.6 49.6 224.7 46 219.8 46Z" fill="#EB4A78"/>
<path d="M224.4 53.5002C224.3 52.1002 223.1 51.1002 221.8 51.2002C221 51.3002 220.3 51.7002 219.9 52.3002C219.4 51.7002 218.7 51.4002 217.9 51.5002C216.5 51.6002 215.5 52.8002 215.6 54.1002C215.7 55.9002 218.4 57.3002 219.7 58.3002C220 58.5002 220.4 58.5002 220.7 58.2002C221.9 57.0002 224.5 55.5002 224.4 53.5002Z" fill="white"/>
<path d="M252.1 243.5C252.7 245.2 253.4 246.6 254.1 247.1C255.2 248 256.9 248.4 258.1 247.6C259.3 246.9 259.8 245.5 259.8 244.1C259.8 242 258.7 240.8 257.8 239C256.6 236.6 256 233.6 255.1 231C254.8 230 254.3 228.8 253.3 228.4C248.4 226.5 249.9 237.5 252.1 243.5Z" fill="#EB4A78"/>
<path opacity="0.32" d="M252.1 243.5C252.7 245.2 253.4 246.6 254.1 247.1C255.2 248 256.9 248.4 258.1 247.6C259.3 246.9 259.8 245.5 259.8 244.1C259.8 242 258.7 240.8 257.8 239C256.6 236.6 256 233.6 255.1 231C254.8 230 254.3 228.8 253.3 228.4C248.4 226.5 249.9 237.5 252.1 243.5Z" fill="#AD7075"/>
<path d="M262.2 139.9C262.2 139.9 268 148.2 266.7 180C265.6 204.8 255.8 231.1 255.8 231.1C255.8 231.1 249.2 231.5 247.8 229.4C246.4 227.3 252.4 179.2 251.7 175.3C251.1 171.3 248.8 147.8 248.8 147.8L249.6 137.2L262.2 139.9Z" fill="#68396B"/>
<path opacity="0.32" d="M262.2 139.9C262.2 139.9 268 148.2 266.7 180C265.6 204.8 255.8 231.1 255.8 231.1C255.8 231.1 249.2 231.5 247.8 229.4C246.4 227.3 252.4 179.2 251.7 175.3C251.1 171.3 248.8 147.8 248.8 147.8L249.6 137.2L262.2 139.9Z" fill="#AD7075"/>
<path d="M237.7 139.5C245 143.1 254.7 140.5 262.4 139.5C260.6 139.7 258.3 118.7 258 116.6C257.9 115.9 242.2 118.2 240.3 118.4C240.6 122.6 240.5 126.6 240.3 130.8C240.2 131.8 239 140.1 237.7 139.5Z" fill="#AD7075"/>
<path d="M239.3 196.1C239.3 196.1 240.1 204 249.9 236.2C249.7 237.6 249.5 239.9 250.6 241.1C251.7 242.3 258.6 237.4 256.8 235.3C250.9 228.6 253 208.6 252 201.3L248.1 193.8L239.3 196.1Z" fill="#AD7075"/>
<path d="M255.6 232.5C253.4 234.3 252.4 234.6 249.7 235.5L246.7 240.9C246.7 240.9 243.1 246.8 244.2 248C245.3 249.2 257.5 239.1 257.5 239.1C257.5 239.1 259.6 237.4 257.7 235.3C256.6 234 256 234 255.6 232.5Z" fill="#EB4A78"/>
<path d="M262.7 104.1C265 111.1 266.3 118.5 266.7 125.9C268.5 125.8 270.3 125.8 272.1 125.7C272.6 125.7 273.2 125.7 273.6 125.4C274.4 124.9 274.6 123.8 274.7 122.8C275.1 118.5 274.8 114.2 273.8 109.9C273.3 107.8 272.8 105.7 271.9 103.8C271.2 102.2 270.7 100.4 269.3 99.2001C268.3 98.4001 266.9 98.0001 265.6 98.1001C264.3 98.2001 263 98.6001 261.8 99.3001" fill="#13B789"/>
<path d="M227.9 121.2C227.5 122.2 227.2 123.3 227.7 124.2C228.1 124.8 228.7 125.1 229.4 125.3C230.6 125.8 231.9 126.2 233.2 125.9C234.7 125.5 235.8 124.2 236.8 122.9C239.3 119.3 241.2 115.3 242.3 111C242.9 108.6 243.3 106 242.6 103.7C241.8 101.2 237.6 97.3997 235.8 101.1C233.8 105.3 232.4 109.8 230.7 114.1C229.8 116.4 228.8 118.8 227.9 121.2Z" fill="#13B789"/>
<path opacity="0.32" d="M227.9 121.2C227.5 122.2 227.2 123.3 227.7 124.2C228.1 124.8 228.7 125.1 229.4 125.3C230.6 125.8 231.9 126.2 233.2 125.9C234.7 125.5 235.8 124.2 236.8 122.9C239.3 119.3 241.2 115.3 242.3 111C242.9 108.6 243.3 106 242.6 103.7C241.8 101.2 237.6 97.3997 235.8 101.1C233.8 105.3 232.4 109.8 230.7 114.1C229.8 116.4 228.8 118.8 227.9 121.2Z" fill="#AD7075"/>
<path d="M261.8 92.4001C260.3 93.8001 257.8 94.8001 255.7 94.5001C254.8 94.4001 254.2 93.7001 253.3 93.5001C252.2 93.2001 251 93.4001 249.9 93.7001C248.2 94.1001 246.5 94.8001 244.8 94.8001C242 94.7001 239.5 92.4001 239.1 89.6001C238.1 89.5001 237 89.3001 236.1 88.8001C235.2 88.3001 234.5 87.4001 234.5 86.4001C234.5 85.4001 235.3 84.5001 235.3 83.5001C235.4 81.9001 234.2 80.5001 234.2 78.9001C234.3 76.9001 235.2 75.9001 236.9 75.0001C237.6 74.6001 238.4 74.1001 238.8 73.4001C239.3 72.4001 239 71.2001 239.6 70.3001C240.1 69.4001 241.2 69.1001 242.2 68.8001C244.8 68.1001 247.3 67.4001 249.9 66.7001C251.9 66.2001 254.1 65.6001 256.1 66.3001C256.8 66.5001 257.5 66.9001 258.2 67.3001C261.1 68.8001 263.4 70.1001 264.7 73.2001C265.4 74.9001 266.2 76.6001 266.9 78.2001C267.4 79.5001 268 80.9001 267.3 82.1001C266.8 82.9001 265.9 83.4001 265.7 84.2001C265.5 85.0001 266.1 85.8001 266.5 86.6001C267.7 89.7001 264.8 92.6001 261.8 92.4001Z" fill="#68396B"/>
<path d="M237.5 139.5C233.2 151 232.2 162.4 234.2 174.6C234.4 176 234.7 178.5 235 179.8C235.3 181.4 235.5 183.1 235.7 184.7C236.2 188 236.8 191.2 237.5 194.5C238.7 200.5 240.2 206.5 241.7 212.4C243.3 218.5 245.6 226.5 247.6 232.5C247.6 232.5 253.6 232 255 229.9C256.4 227.8 249.2 178.6 249.8 174.7C250.9 166.9 251.2 159 251.9 151.1C252.9 150.8 264.8 147.5 264.8 147.5C263.7 144 262.7 140.5 261.6 136.9C254 138.8 246 139 238.3 137.5C238.1 138.1 237.8 138.8 237.5 139.5Z" fill="#68396B"/>
<path opacity="0.32" d="M256.3 129.8C257.3 129.5 258.3 129.1 259.1 128.3C259.8 127.5 260.1 126.3 259.6 125.4C259.6 125.4 250.5 127.4 249.6 127.5C246.3 127.8 243.1 127.4 239.8 127.5C240.8 129.3 244.5 130 246.4 130.4C249.7 130.9 253.1 130.8 256.3 129.8Z" fill="#AD7075"/>
<path d="M248.6 94.7997C244.7 96.3997 240.7 98.0997 236.8 99.6997C239.1 101.2 239.3 104.5 238.7 107.2C238.1 109.9 236.9 112.5 237.2 115.3C237.5 117.3 238.6 119.2 239.1 121.1C239.6 122.9 237.8 125.8 238.2 126.8C238.9 128.5 243.9 128.6 245.5 128.7C249 129 261.1 129 262.7 125C263.3 123.6 261.8 120.9 261.8 119.3C261.8 116 263.1 112.2 264.1 109.1C265.1 106.3 266.3 103.5 267.7 100.9C268.1 100.2 269 99.4997 268.4 98.8997C268.1 98.4997 267.1 98.2997 266.6 98.1997C265.3 97.7997 264 97.2997 262.6 96.8997C260 95.9997 257.3 95.0997 254.7 94.1997" fill="#13B789"/>
<path d="M252.9 87.7002C254 90.5002 255 94.1002 257.9 95.1002C256.4 98.7002 253.3 101.6 249.6 102.9C249.1 103.1 248.6 103.2 248.2 102.9C248 102.7 247.8 102.5 247.7 102.2C247.2 101.2 246.7 100.1 246.4 98.9002C246.2 98.1002 246 97.3002 246.2 96.6002C246.4 95.5002 247.7 95.3002 247.8 94.4002C247.9 93.5002 246.8 92.4002 246.5 91.7002C245.9 90.4002 245.3 89.1002 244.7 87.9002L252.9 87.7002Z" fill="#AD7075"/>
<path opacity="0.32" d="M247.9 94.5002L244.8 87.9002L252.9 87.7002L255 92.9002C252.8 94.1002 250.4 94.4002 247.9 94.5002Z" fill="#AD7075"/>
<path d="M239.7 85.6C239.9 87.2 240.5 88.7 241.4 89.9C242.2 91.2 243.3 91.6 244.6 92C248.7 93.5 254.5 92.9 256.3 87.6C257 88.1 258 87.4 258.3 86.5C258.6 85.7 258.4 84.9 258.4 84.1C258.4 83.4 258.5 82.7 258.5 82C258.4 80.3 258.3 78.5 257.7 76.9C257 75.2 255.8 74 254.5 73.1C253.2 72.2 251.7 71.7 250.2 71.2C247.7 70.3 244 69.3 242.1 72.1C241 73.7 241.3 77 240.9 79C240.2 81.2 239.5 83.3 239.7 85.6Z" fill="#AD7075"/>
<path d="M260.5 81.2999C261.2 81.6999 261.4 82.5999 261.3 83.3999C261.2 85.6999 259.4 87.7999 257.1 88.1999C256.4 88.2999 255.6 88.1999 255.2 87.6999C254.8 87.0999 255.1 86.2999 255.5 85.6999C256.2 84.4999 258.7 80.1999 260.5 81.2999Z" fill="#AD7075"/>
<path d="M260.6 83.1997C260.6 83.1997 260.2 83.1997 259.7 83.3997C259.2 83.5997 258.5 84.0997 258 84.6997C257.5 85.3997 257.2 86.0997 257.1 86.5997C256.9 87.0997 256.9 87.4997 256.9 87.4997C256.9 87.4997 257 87.1997 257.2 86.6997C257.4 86.1997 257.7 85.4997 258.2 84.7997C258.7 84.0997 259.3 83.6997 259.8 83.4997C260.3 83.2997 260.6 83.2997 260.6 83.1997Z" fill="#68396B"/>
<path d="M257.7 87.2996C257.7 87.2996 257.9 87.1996 258 86.9996C258.2 86.7996 258.4 86.4996 258.6 86.0996C258.8 85.6996 258.8 85.2996 258.7 84.9996C258.6 84.6996 258.5 84.5996 258.5 84.5996C258.5 84.5996 258.5 84.7996 258.5 84.9996C258.5 85.2996 258.5 85.5996 258.3 85.9996C258.1 86.3996 257.9 86.6996 257.8 86.8996C257.8 87.0996 257.7 87.1996 257.7 87.2996Z" fill="#68396B"/>
<path d="M253.2 81.4001C253.3 81.4001 253.2 81.1001 252.9 80.9001C252.6 80.6001 252.1 80.3001 251.4 80.1001C250.7 79.9001 250 79.8001 249.6 79.9001C249.1 80.0001 248.9 80.1001 248.9 80.1001C249 80.3001 250 80.2001 251.1 80.6001C252.4 80.9001 253.1 81.5001 253.2 81.4001Z" fill="#68396B"/>
<path d="M249.8 87.2998C249.7 87.2998 249.6 87.3998 249.3 87.5998C249 87.7998 248.5 88.0998 247.9 88.1998C247.3 88.2998 246.7 88.2998 246.3 88.1998C245.9 88.0998 245.6 87.9998 245.6 88.0998C245.6 88.0998 245.8 88.2998 246.2 88.4998C246.6 88.6998 247.4 88.7998 248.1 88.5998C248.8 88.4998 249.4 88.0998 249.6 87.8998C249.8 87.4998 249.8 87.2998 249.8 87.2998Z" fill="#68396B"/>
<path d="M244.7 79.3999C244.7 79.2999 244.5 79.1999 244.2 79.0999C243.9 78.9999 243.4 78.9999 242.8 79.0999C242.3 79.1999 241.9 79.2999 241.7 79.4999C241.5 79.6999 241.4 79.8999 241.5 79.8999C241.6 79.8999 241.7 79.8999 242 79.7999C242.3 79.6999 242.6 79.5999 243.1 79.5999C243.9 79.4999 244.7 79.4999 244.7 79.3999Z" fill="#68396B"/>
<path d="M246 80.5C246.1 81.1 246.1 81.6 246.1 82.2C246.1 82.8 246 83.3 245.9 83.9L245.8 84.3V84.4V84.5C245.8 84.6 245.7 84.7 245.7 84.7C245.6 84.9 245.4 85 245.3 85.1C245.2 85.1 245.1 85.2 245 85.2H244.9C244.8 85.3 244.7 85.5 244.7 85.7C244.7 85.9 244.9 86.2 245.1 86.4C244.9 86.3 244.6 86.1 244.5 85.8C244.4 85.7 244.4 85.5 244.4 85.3C244.4 85.1 244.5 84.9 244.7 84.8C244.8 84.7 244.9 84.7 245 84.7C245.1 84.7 245.1 84.7 245.1 84.7C245.2 84.7 245.2 84.6 245.3 84.5C245.3 84.5 245.3 84.4 245.4 84.4C245.4 84.4 245.4 84.4 245.4 84.3V84.2L245.5 83.8L245.8 82.2C245.8 81.6 245.9 81 246 80.5Z" fill="#68396B"/>
<path d="M249.9 84.0997C250.2 84.1997 250.6 83.7997 250.6 83.3997C250.7 82.8997 250.4 82.4997 250.1 82.3997C249.8 82.2997 249.6 82.6997 249.5 83.1997C249.5 83.5997 249.6 83.9997 249.9 84.0997Z" fill="#68396B"/>
<path d="M250.1 82.7998C250.4 82.6998 250.7 82.4998 250.8 82.2998C250.9 82.5998 250.7 83.0998 250.3 83.0998C250.6 83.1998 251 83.1998 251.3 82.9998C251 83.3998 250.4 83.4998 250 83.2998" fill="#68396B"/>
<path d="M243.5 83.5999C243.2 83.5999 242.9 83.2999 242.9 82.7999C242.9 82.2999 243.2 81.8999 243.5 81.8999C243.8 81.8999 244 82.2999 244 82.6999C244 83.1999 243.8 83.5999 243.5 83.5999Z" fill="#68396B"/>
<path d="M243.4 82.2997C243.1 82.1997 242.9 81.9997 242.7 81.6997C242.5 81.9997 242.7 82.4997 243.1 82.5997C242.7 82.6997 242.4 82.5997 242.1 82.2997C242.3 82.6997 242.9 82.8997 243.3 82.7997" fill="#68396B"/>
<path d="M244.9 82.4001C244.8 84.5001 243 86.2001 240.8 86.1001C238.7 86.0001 237 84.2001 237.1 82.0001C237.2 79.9001 239 78.2001 241.2 78.3001C243.4 78.5001 245 80.3001 244.9 82.4001Z" stroke="white" stroke-width="1.101" stroke-miterlimit="10"/>
<path d="M254.5 83.5998C254.4 85.6998 252.6 87.3998 250.4 87.2998C248.3 87.1998 246.6 85.3998 246.7 83.1998C246.8 81.0998 248.6 79.3998 250.8 79.4998C252.9 79.5998 254.6 81.3998 254.5 83.5998Z" stroke="white" stroke-width="1.101" stroke-miterlimit="10"/>
<path d="M244.2 83.3998C245.1 82.8998 246.3 82.8998 247.2 83.2998" stroke="white" stroke-width="1.101" stroke-miterlimit="10"/>
<path d="M254.3 83.1C256.1 82.2 257.9 81.5 259.9 81.1C260.2 81 260.7 81.1 260.8 81.4" stroke="white" stroke-width="1.101" stroke-miterlimit="10"/>
<path d="M245.3 77.3999C246.4 78.0999 247.7 78.4999 249 78.1999C250.1 77.9999 251.1 77.2999 252.2 77.4999C254.4 77.8999 253.2 80.0999 254.3 81.0999C254.5 81.2999 254.8 81.3999 255 81.5999C255.8 82.2999 255.1 83.5999 254.4 84.3999C253.7 85.1999 253 86.3999 253.7 87.1999C254.4 87.9999 255.8 87.2999 256.3 86.2999C256.8 85.3999 256.9 84.1999 257.6 83.3999C258 82.9999 258.5 82.6999 258.9 82.2999C260.5 80.8999 261.1 78.6999 261 76.5999C260.8 72.8999 258.8 69.2999 255.7 67.1999C252.6 65.0999 248.6 64.5999 245.1 65.7999C244.2 66.0999 243.2 66.5999 242.7 67.3999C242.1 68.1999 242 69.2999 241.5 70.1999C240.8 71.5999 238.5 73.4999 238.6 75.1999C238.7 77.5999 242.7 77.3999 244.2 76.1999C244.5 76.6999 244.9 77.0999 245.3 77.3999Z" fill="#68396B"/>
<path opacity="0.32" d="M246.2 121.8C245.7 121.9 245.2 122.2 245.2 122.7C245.2 123.1 245.8 123.3 246.2 123.4C250.3 124.2 254.9 122.7 257.7 119.6C255.5 117.7 248.8 121.1 246.2 121.8Z" fill="#AD7075"/>
<path d="M101 158.8C102.2 170.4 101.7 182.1 101.1 193.8C169.3 190 237.8 190.7 305.9 195.9C303.7 171.8 304.8 146.7 310.3 123.1C246.9 122.6 184 122.9 120.6 122.4C115.9 122.4 111.2 122.3 106.6 122.3C103 122.3 98.4 121.5 95.1 123.2C91.5 125 93.4 128.2 94.4 131.1C96 135.3 97.3 139.6 98.4 144C99.6 148.8 100.5 153.8 101 158.8Z" fill="#F8FBFC"/>
<path d="M105 151.9C104.9 147.7 100.6 142.6 96.2 144.4C95 144.9 94 145.6 93.4 146.7C92.4 148.4 93 148.7 94.5 149.9C96.7 151.8 105 159 105 151.9Z" fill="#CB9399"/>
<path d="M75.6 106.3L75 130.1L97.6 143.9C97.6 143.9 95 148.8 93 148.8C91 148.8 62.9 137.1 62.4 134.9C61.9 132.7 65.3 98.1997 65.3 98.1997L75.6 106.3Z" fill="url(#paint12_linear)"/>
<path d="M308.2 141.8C309.6 141.9 310.9 142.4 310.9 144C310.9 145.5 308.7 146.7 307.6 147.4C306.2 148.2 304.7 149 303.3 149.9C302.4 150.4 301.1 150.9 300.4 150.1C300 149.6 300 148.9 300.1 148.3C300.6 145.8 302.4 143.6 304.7 142.5C305.5 142.1 306.9 141.8 308.2 141.8Z" fill="#F69EA7"/>
<path d="M316.7 125.7L307.1 141.9C307.1 141.9 311.1 145.5 312.5 144.8C313.6 144.3 323.9 129.8 326.9 124.3C323.5 124.7 320.1 125.1 316.7 125.7Z" fill="#EB4A78"/>
<path d="M168.7 119.5C167.2 119.5 165.7 119.9 164.7 121.1C163 123.1 164.5 126 165.8 127.4C166.7 128.4 167.7 129.7 168.9 130.3C170.3 131.2 172.1 131.7 173.7 132.4C174.6 132.8 175.4 131 175.5 130.4C175.7 129.4 175.4 128.3 175.1 127.4C174.6 125.8 173.6 123.6 172.1 122.7C172.4 122.6 175.8 122.8 176 122.6C176 122.6 173.8 120.7 173.2 120.4C171.6 119.8 170.3 119.5 168.7 119.5Z" fill="#F69EA7"/>
<path d="M229.3 120.5C228.2 120.5 227.1 120.8 226.4 121.6C225.1 123 226.3 125.2 227.2 126.2C227.8 126.9 228.6 127.8 229.4 128.3C230.4 128.9 231.8 129.3 232.9 129.8C233.5 130.1 234.2 128.8 234.2 128.4C234.3 127.7 234.1 126.9 233.9 126.2C233.5 125 232.8 123.4 231.7 122.8C231.9 122.7 234.4 122.8 234.6 122.7C234.6 122.7 233 121.3 232.6 121.1C231.5 120.8 230.6 120.5 229.3 120.5Z" fill="#AD7075"/>
<path d="M273.4 120.5C274.5 120.5 275.6 120.8 276.3 121.6C277.6 123 276.4 125.2 275.5 126.2C274.9 126.9 274.1 127.8 273.3 128.3C272.3 128.9 270.9 129.3 269.8 129.8C269.2 130.1 268.5 128.8 268.5 128.4C268.4 127.7 268.6 126.9 268.8 126.2C269.2 125 269.9 123.4 271 122.8C270.8 122.7 268.3 122.8 268.1 122.7C268.1 122.7 269.7 121.3 270.1 121.1C271.3 120.8 272.2 120.5 273.4 120.5Z" fill="#AD7075"/>
<path opacity="0.1" d="M123.3 172.5C124.5 174.8 127.9 176.6 131.7 177.5C135.5 178.4 139.6 178.6 143.6 178.7C183.1 180.2 222.8 179.4 262.1 176.3C264.1 176.1 266.4 175.9 267.4 174.9C268.8 173.6 267.2 171.7 264.8 171C262.4 170.3 259.6 170.5 257 170.7C225.4 173.1 193.5 174.2 161.6 173.8C157.4 173.8 153.1 173.7 149.1 173C145 172.3 141.1 171 138.9 168.8C136.5 166.5 135.1 159.3 128.2 160.9C122.7 162.4 122 169.8 123.3 172.5Z" fill="#CCCCCC"/>
<path d="M54.6 75.1997L66 75.2997C67.4 75.2997 68.5 76.2997 68.5 77.3997L68.4 85.6997C68.4 86.7997 67.3 87.6997 65.9 87.6997H64.4C64.5 88.5997 64.8 89.3997 65.4 90.0997C64.4 89.8997 63.3 89.7997 62.4 89.2997C61.7 88.8997 61.2 88.3997 60.9 87.6997L54.6 87.5997C53.2 87.5997 52.1 86.5997 52.1 85.4997L52.2 77.1997C52.1 76.0997 53.2 75.1997 54.6 75.1997Z" fill="#3B89C4"/>
<path d="M63.1 81.4996C63.1 82.2996 63.7 82.8996 64.5 82.8996C65.3 82.8996 65.9 82.2996 65.9 81.4996C65.9 80.6996 65.3 80.0996 64.5 80.0996C63.7 80.0996 63.1 80.7996 63.1 81.4996Z" fill="white"/>
<path d="M58.8 81.4996C58.8 82.2996 59.4 82.8996 60.2 82.8996C61 82.8996 61.6 82.2996 61.6 81.4996C61.6 80.6996 61 80.0996 60.2 80.0996C59.4 80.0996 58.8 80.6996 58.8 81.4996Z" fill="white"/>
<path d="M54.5 81.4996C54.5 82.2996 55.1 82.8996 55.9 82.8996C56.7 82.8996 57.3 82.2996 57.3 81.4996C57.3 80.6996 56.7 80.0996 55.9 80.0996C55.1 80.0996 54.5 80.6996 54.5 81.4996Z" fill="white"/>
<path d="M344.3 80.6001L332.9 80.7001C331.5 80.7001 330.4 81.7001 330.4 82.8001L330.5 91.1001C330.5 92.2001 331.6 93.1001 333 93.1001H334.5C334.4 94.0001 334.1 94.8001 333.5 95.5001C334.5 95.3001 335.6 95.2001 336.5 94.7001C337.2 94.3001 337.7 93.8001 338 93.1001L344.3 93.0001C345.7 93.0001 346.8 92.0001 346.8 90.9001L346.7 82.6001C346.8 81.5001 345.6 80.6001 344.3 80.6001Z" fill="#68396B"/>
<path d="M335.8 86.9C335.8 87.7 335.2 88.3 334.4 88.3C333.6 88.3 333 87.7 333 86.9C333 86.1 333.6 85.5 334.4 85.5C335.1 85.5 335.8 86.1 335.8 86.9Z" fill="white"/>
<path d="M340.1 86.9C340.1 87.7 339.5 88.3 338.7 88.3C337.9 88.3 337.3 87.7 337.3 86.9C337.3 86.1 337.9 85.5 338.7 85.5C339.5 85.5 340.1 86.1 340.1 86.9Z" fill="white"/>
<path d="M344.4 86.7999C344.4 87.5999 343.8 88.1999 343 88.1999C342.2 88.1999 341.6 87.5999 341.6 86.7999C341.6 85.9999 342.2 85.3999 343 85.3999C343.8 85.3999 344.4 86.0999 344.4 86.7999Z" fill="white"/>
<path d="M282.3 70.4L283.2 68.7L285 67.7L283.2 66.7L282.3 65L281.3 66.7L279.6 67.7L281.3 68.7L282.3 70.4Z" fill="url(#paint13_linear)"/>
<path d="M282.3 57.4999L282.9 56.3999L284.1 55.6999L282.9 55.0999L282.3 53.8999L281.6 55.0999L280.4 55.6999L281.6 56.3999L282.3 57.4999Z" fill="url(#paint14_linear)"/>
<path d="M271.4 64.1997L272.9 61.5997L275.4 60.1997L272.9 58.7997L271.4 56.1997L270 58.7997L267.4 60.1997L270 61.5997L271.4 64.1997Z" fill="url(#paint15_linear)"/>
<path d="M121.6 62.1002L120.6 60.3002L118.9 59.4002L120.6 58.4002L121.6 56.7002L122.6 58.4002L124.3 59.4002L122.6 60.3002L121.6 62.1002Z" fill="url(#paint16_linear)"/>
<path d="M121.6 49.2L121 48L119.8 47.4L121 46.7L121.6 45.5L122.3 46.7L123.5 47.4L122.3 48L121.6 49.2Z" fill="url(#paint17_linear)"/>
<path d="M132.4 55.8999L131 53.2999L128.4 51.8999L131 50.4999L132.4 47.8999L133.9 50.4999L136.4 51.8999L133.9 53.2999L132.4 55.8999Z" fill="url(#paint18_linear)"/>
<path d="M371.4 25.7002L360.7 16.4002C360 15.8002 359 15.8002 358.3 16.4002L348.8 24.6002L339.3 16.4002C338.6 15.8002 337.6 15.8002 336.9 16.4002L327.4 24.6002L317.9 16.4002C317.2 15.8002 316.2 15.8002 315.5 16.4002L306 24.6002L296.5 16.4002C295.8 15.8002 294.8 15.8002 294.1 16.4002L284.6 24.6002L275.1 16.4002C274.4 15.8002 273.4 15.8002 272.7 16.4002L262 25.7002C261.2 26.4002 261.1 27.6002 261.8 28.3002C262.2 28.7002 262.7 28.9002 263.2 28.9002C263.6 28.9002 264.1 28.8002 264.4 28.4002L273.9 20.2002L283.4 28.4002C283.4 28.4002 283.5 28.4002 283.5 28.5002L283.6 28.6002C283.7 28.6002 283.7 28.7002 283.8 28.7002C283.8 28.7002 283.9 28.7002 283.9 28.8002C284 28.8002 284 28.9002 284.1 28.9002H284.2C284.3 28.9002 284.3 28.9002 284.4 28.9002H284.5C284.5 28.9002 284.5 28.9002 284.6 28.9002H284.7C284.8 28.9002 284.8 28.9002 284.9 28.9002H285C285.1 28.9002 285.1 28.9002 285.2 28.8002C285.2 28.8002 285.3 28.8002 285.3 28.7002C285.4 28.7002 285.4 28.6002 285.5 28.6002C285.5 28.6002 285.6 28.6002 285.6 28.5002C285.6 28.5002 285.6 28.5002 285.7 28.5002L295.2 20.3002L304.7 28.5002C304.7 28.5002 304.8 28.5002 304.8 28.6002L304.9 28.7002C305 28.7002 305 28.8002 305.1 28.8002C305.1 28.8002 305.2 28.8002 305.2 28.9002C305.3 28.9002 305.3 29.0002 305.4 29.0002H305.5C305.6 29.0002 305.6 29.0002 305.7 29.0002H305.8C305.8 29.0002 305.8 29.0002 305.9 29.0002H306C306.1 29.0002 306.1 29.0002 306.2 29.0002H306.3C306.4 29.0002 306.4 29.0002 306.5 28.9002C306.5 28.9002 306.6 28.9002 306.6 28.8002C306.7 28.8002 306.7 28.7002 306.8 28.7002C306.8 28.7002 306.9 28.7002 306.9 28.6002C306.9 28.6002 306.9 28.6002 307 28.6002L316.5 20.4002L326 28.6002C326 28.6002 326.1 28.6002 326.1 28.7002L326.2 28.8002C326.3 28.8002 326.3 28.9002 326.4 28.9002C326.4 28.9002 326.5 28.9002 326.5 29.0002C326.6 29.0002 326.6 29.1002 326.7 29.1002H326.8C326.9 29.1002 326.9 29.1002 327 29.1002H327.1C327.1 29.1002 327.1 29.1002 327.2 29.1002H327.3C327.4 29.1002 327.4 29.1002 327.5 29.1002H327.6C327.7 29.1002 327.7 29.1002 327.8 29.0002C327.8 29.0002 327.9 29.0002 327.9 28.9002C328 28.9002 328 28.8002 328.1 28.8002C328.1 28.8002 328.2 28.8002 328.2 28.7002C328.2 28.7002 328.2 28.7002 328.3 28.7002L337.8 20.5002L347.3 28.7002C347.3 28.7002 347.3 28.7002 347.4 28.7002L347.5 28.8002C347.6 28.8002 347.6 28.9002 347.7 28.9002C347.7 28.9002 347.8 28.9002 347.8 29.0002C347.9 29.0002 347.9 29.1002 348 29.1002H348.1C348.2 29.1002 348.2 29.1002 348.3 29.1002C348.4 29.1002 348.4 29.1002 348.5 29.1002C348.6 29.1002 348.6 29.1002 348.7 29.1002C348.8 29.1002 348.8 29.1002 348.9 29.1002C349 29.1002 349 29.1002 349.1 29.1002C349.2 29.1002 349.2 29.1002 349.3 29.0002C349.3 29.0002 349.4 29.0002 349.4 28.9002C349.5 28.9002 349.5 28.8002 349.6 28.8002L349.7 28.7002C349.7 28.7002 349.7 28.7002 349.8 28.7002L359.3 20.5002L368.8 28.7002C369.2 29.0002 369.6 29.2002 370 29.2002C370.5 29.2002 371 29.0002 371.4 28.6002C372.3 27.6002 372.2 26.4002 371.4 25.7002Z" fill="#F8FB35"/>
<path d="M197.3 165.5V174.7L187.4 174.9C187.4 174.9 184.5 173.5 184.3 171.3C184.1 169.2 186.8 165.5 186.8 165.5H197.3Z" fill="#78C034"/>
<path d="M183.3 172.2C181.9 169.9 177.6 162.5 177.6 162.5C177.6 162.5 177 160 178.3 158.4C179.3 157.2 180.3 155.3 180.3 155.3L177.3 152.4L187.6 152.9L192.5 161.9L189.3 160C189.2 160 181.7 168.1 183.3 172.2Z" fill="#78C034"/>
<path d="M204.3 154.4L211.4 148.5L217.9 155.9C217.9 155.9 218.6 159 217.2 160.6C215.7 162.2 211.1 162.4 211.1 162.4L204.3 154.4Z" fill="#78C034"/>
<path d="M218.5 160.8C217.6 163.3 214.7 171.4 214.7 171.4C214.7 171.4 213.2 173.5 211.1 173.5C209.5 173.6 207.4 174 207.4 174L207.2 178.2L200.9 170L204.7 160.5L205.3 164.1C205.3 164.1 216.3 164.7 218.5 160.8Z" fill="#78C034"/>
<path d="M191.3 151.7L183.2 147.2L187.8 138.5C187.8 138.5 190.4 136.7 192.4 137.5C194.4 138.3 196.3 142.5 196.3 142.5L191.3 151.7Z" fill="#78C034"/>
<path d="M192.2 136.1C194.9 136 203.5 135.8 203.5 135.8C203.5 135.8 206 136.4 206.8 138.4C207.4 139.8 208.6 141.7 208.6 141.7L212.6 140.4L207.2 149.2L197 149.1L200.2 147.2C200 147.3 196.5 136.8 192.2 136.1Z" fill="#78C034"/>
</g>
<defs>
<linearGradient id="paint0_linear" x1="19.6391" y1="337.761" x2="366.085" y2="337.761" gradientUnits="userSpaceOnUse">
<stop stop-color="#B94FFF"/>
<stop offset="1" stop-color="#B94FFF" stop-opacity="0"/>
</linearGradient>
<linearGradient id="paint1_linear" x1="45.9515" y1="247.534" x2="372.259" y2="15.4595" gradientUnits="userSpaceOnUse">
<stop offset="0.2296" stop-color="#290023"/>
<stop offset="1" stop-color="#AA286C"/>
</linearGradient>
<linearGradient id="paint2_linear" x1="-42.0925" y1="321.843" x2="313.388" y2="48.5184" gradientUnits="userSpaceOnUse">
<stop stop-color="#290023"/>
<stop offset="0.6745" stop-color="#F72783"/>
<stop offset="1" stop-color="#FFB787"/>
</linearGradient>
<linearGradient id="paint3_linear" x1="155.209" y1="320.327" x2="271.504" y2="66.5951" gradientUnits="userSpaceOnUse">
<stop stop-color="#B94FFF"/>
<stop offset="1" stop-color="#B94FFF" stop-opacity="0"/>
</linearGradient>
<linearGradient id="paint4_linear" x1="304.888" y1="91.1547" x2="324.657" y2="91.1547" gradientUnits="userSpaceOnUse">
<stop offset="0.2012" stop-color="#FFD580"/>
<stop offset="0.9175" stop-color="#FFD26B"/>
</linearGradient>
<linearGradient id="paint5_linear" x1="292.908" y1="82.8938" x2="313.296" y2="82.8938" gradientUnits="userSpaceOnUse">
<stop offset="0.2012" stop-color="#FFD580"/>
<stop offset="0.9175" stop-color="#FFD26B"/>
</linearGradient>
<linearGradient id="paint6_linear" x1="289.472" y1="81.4685" x2="309.705" y2="77.4504" gradientUnits="userSpaceOnUse">
<stop offset="0.2012" stop-color="#FFD580"/>
<stop offset="0.9175" stop-color="#FFD26B"/>
</linearGradient>
<linearGradient id="paint7_linear" x1="94.2257" y1="86.5871" x2="146.033" y2="86.5871" gradientUnits="userSpaceOnUse">
<stop offset="0.2012" stop-color="#FFD580"/>
<stop offset="0.9175" stop-color="#FFD26B"/>
</linearGradient>
<linearGradient id="paint8_linear" x1="65.3155" y1="121.501" x2="103.324" y2="121.501" gradientUnits="userSpaceOnUse">
<stop offset="0.2012" stop-color="#FFD580"/>
<stop offset="0.9175" stop-color="#FFD26B"/>
</linearGradient>
<linearGradient id="paint9_linear" x1="78.082" y1="92.126" x2="96.3542" y2="92.126" gradientUnits="userSpaceOnUse">
<stop offset="0.2012" stop-color="#FFD580"/>
<stop offset="0.9175" stop-color="#FFD26B"/>
</linearGradient>
<linearGradient id="paint10_linear" x1="185.578" y1="120.838" x2="217.796" y2="120.838" gradientUnits="userSpaceOnUse">
<stop offset="0.2012" stop-color="#FFD580"/>
<stop offset="0.9175" stop-color="#FFD26B"/>
</linearGradient>
<linearGradient id="paint11_linear" x1="187.782" y1="91.6323" x2="204.16" y2="91.6323" gradientUnits="userSpaceOnUse">
<stop offset="0.2012" stop-color="#FFD580"/>
<stop offset="0.9175" stop-color="#FFD26B"/>
</linearGradient>
<linearGradient id="paint12_linear" x1="62.3234" y1="123.476" x2="97.5872" y2="123.476" gradientUnits="userSpaceOnUse">
<stop offset="0.2012" stop-color="#FFD580"/>
<stop offset="0.9175" stop-color="#FFD26B"/>
</linearGradient>
<linearGradient id="paint13_linear" x1="285.004" y1="67.6943" x2="279.566" y2="67.6943" gradientUnits="userSpaceOnUse">
<stop offset="0.2012" stop-color="#FFD580"/>
<stop offset="0.9175" stop-color="#FFD26B"/>
</linearGradient>
<linearGradient id="paint14_linear" x1="284.095" y1="55.7071" x2="280.415" y2="55.7071" gradientUnits="userSpaceOnUse">
<stop offset="0.2012" stop-color="#FFD580"/>
<stop offset="0.9175" stop-color="#FFD26B"/>
</linearGradient>
<linearGradient id="paint15_linear" x1="275.436" y1="60.2039" x2="267.439" y2="60.2039" gradientUnits="userSpaceOnUse">
<stop offset="0.2012" stop-color="#FFD580"/>
<stop offset="0.9175" stop-color="#FFD26B"/>
</linearGradient>
<linearGradient id="paint16_linear" x1="118.874" y1="59.3762" x2="124.311" y2="59.3762" gradientUnits="userSpaceOnUse">
<stop offset="0.2012" stop-color="#FFD580"/>
<stop offset="0.9175" stop-color="#FFD26B"/>
</linearGradient>
<linearGradient id="paint17_linear" x1="119.783" y1="47.3889" x2="123.463" y2="47.3889" gradientUnits="userSpaceOnUse">
<stop offset="0.2012" stop-color="#FFD580"/>
<stop offset="0.9175" stop-color="#FFD26B"/>
</linearGradient>
<linearGradient id="paint18_linear" x1="128.442" y1="51.8858" x2="136.438" y2="51.8858" gradientUnits="userSpaceOnUse">
<stop offset="0.2012" stop-color="#FFD580"/>
<stop offset="0.9175" stop-color="#FFD26B"/>
</linearGradient>
<clipPath id="clip0">
<rect width="395" height="364" fill="white"/>
</clipPath>
</defs>
</svg>
