<svg width="282" height="200" viewBox="0 0 282 200" fill="none" xmlns="http://www.w3.org/2000/svg">
<g clip-path="url(#clip0_977_718)">
<path d="M25.7 51.6996C22.9 51.6996 20.2 50.0996 18.9 47.4996L15.1 40.4996L13 44.5996C12.9 44.6996 12.9 44.7996 12.8 44.8996C11.4 46.7996 9.1 47.4996 7.4 47.4996C5.5 47.4996 3.6 46.6996 2.2 45.2996C0.8 43.6996 0 41.7996 0 39.6996V7.49961C0 4.59961 1.7 1.99961 4.3 0.699608C6.9 -0.500392 10 -0.100392 12.2 1.69961L28.6 13.8996C29.7 14.6996 29.9 16.2996 29.1 17.3996C28.3 18.4996 26.7 18.6996 25.6 17.8996L9.2 5.69961L9.1 5.59961C8 4.59961 6.8 5.09961 6.4 5.19961C6.1 5.39961 5 5.99961 5 7.49961V39.6996C5 41.2996 6.3 42.3996 7.5 42.3996C8 42.3996 8.5 42.1996 8.8 41.8996L13 33.8996C13.4 33.0996 14.3 32.5996 15.2 32.5996C16.1 32.5996 17 33.0996 17.4 33.8996L23.4 45.0996V45.1996C24 46.3996 25.5 46.9996 26.8 46.3996C27.4 46.0996 27.9 45.5996 28.1 44.8996C28.3 44.2996 28.3 43.5996 28 42.9996L22 32.3996C21.6 31.5996 21.6 30.6996 22 29.8996C22.4 29.0996 23.3 28.6996 24.1 28.6996H32.6C34 28.5996 34.6 27.4996 34.8 27.0996C34.9 26.6996 35.3 25.4996 34.3 24.3996C33.4 23.3996 33.4 21.7996 34.4 20.8996C35.4 19.9996 37 19.9996 37.9 20.9996C39.9 23.1996 40.5 26.1996 39.4 28.9996C38.3 31.7996 35.7 33.4996 32.8 33.6996H32.7H28.4L32.4 40.7996C32.4 40.7996 32.4 40.8996 32.5 40.8996C33.4 42.6996 33.5 44.7996 32.8 46.6996C32.1 48.5996 30.7 50.0996 28.9 50.9996C27.9 51.4996 26.8 51.6996 25.7 51.6996Z" fill="white"/>
<path d="M18.9996 68.8988V73.8988H16.0996L22.7996 93.3988C23.3996 95.0988 23.6996 96.1988 23.8996 97.5988H23.9996C24.1996 96.0988 24.5996 94.6988 24.8996 93.6988L31.6996 73.7988H28.1996V68.7988H41.5996V73.7988H38.8996L27.3996 103.199H19.3996L7.79961 73.8988H5.09961V68.8988H18.9996Z" fill="white"/>
<path d="M66.5 98.2984H69.4V103.298H60.8C60.8 100.698 60.8 99.4984 61.1 98.1984H61C59.3 102.098 56.9 103.898 52.6 103.898C47.3 103.898 44 100.898 44 96.3984C44 93.8984 45.2 91.4984 47.5 90.0984C50 88.5984 53.9 88.1984 57.2 88.1984H60.2V87.2984C60.2 82.9984 58.7 81.9984 55.4 81.9984C54.4 81.9984 52.3 82.2984 51.1 82.6984V86.0984H45.2V79.5984C48.1 77.9984 52.2 76.8984 55.5 76.8984C63.1 76.8984 66.7 79.7984 66.7 87.0984C66.8 91.2984 66.7 94.4984 66.5 98.2984ZM60.2 92.3984H58.1C53.5 92.3984 50.9 93.2984 50.9 95.7984C50.9 97.2984 51.9 98.8984 54.7 98.8984C58 98.8984 60.2 96.4984 60.2 92.3984Z" fill="white"/>
<path d="M94.1996 85.7984H88.2996V82.3984C87.1996 82.0984 86.6996 81.9984 85.9996 81.9984C81.9996 81.9984 79.4996 85.3984 79.4996 89.6984C79.4996 94.8984 82.4996 98.1984 87.6996 98.1984C89.8996 98.1984 91.9996 97.7984 94.0996 96.7984L93.6996 102.598C90.9996 103.498 89.8996 103.798 86.0996 103.798C77.6996 103.798 72.5996 98.2984 72.5996 90.3984C72.5996 82.1984 77.8996 76.8984 86.1996 76.8984C89.2996 76.8984 91.7996 77.3984 94.2996 78.0984V85.7984H94.1996Z" fill="white"/>
<path d="M120.199 98.2984H123.099V103.298H114.499C114.499 100.698 114.499 99.4984 114.799 98.1984H114.699C112.999 102.098 110.599 103.898 106.299 103.898C100.999 103.898 97.6992 100.898 97.6992 96.3984C97.6992 93.8984 98.8992 91.4984 101.199 90.0984C103.699 88.5984 107.599 88.1984 110.899 88.1984H113.899V87.2984C113.899 82.9984 112.399 81.9984 109.099 81.9984C108.099 81.9984 105.999 82.2984 104.799 82.6984V86.0984H98.8992V79.5984C101.799 77.9984 105.899 76.8984 109.199 76.8984C116.799 76.8984 120.399 79.7984 120.399 87.0984C120.399 91.2984 120.299 94.4984 120.199 98.2984ZM113.799 92.3984H111.699C107.099 92.3984 104.499 93.2984 104.499 95.7984C104.499 97.2984 105.499 98.8984 108.299 98.8984C111.699 98.8984 113.799 96.4984 113.799 92.3984Z" fill="white"/>
<path d="M147.899 85.8H141.999V82.4C140.899 82.2 140.399 82.1 139.599 82.1C135.599 82.1 133.099 85.5 133.099 89.8C133.099 95 136.099 98.3 141.299 98.3C143.499 98.3 145.599 97.9 147.699 96.9L147.299 102.7C144.599 103.6 143.499 103.9 139.699 103.9C131.299 103.9 126.199 98.4 126.199 90.5C126.199 82.3 131.499 77 139.799 77C142.899 77 145.399 77.5 147.899 78.2V85.8Z" fill="white"/>
<path d="M160.899 77.5992V98.2992H163.799V103.299H151.199V98.2992H153.999V82.5992H150.699V77.5992H160.899ZM157.199 73.2992C154.299 73.2992 152.599 71.5992 152.599 68.9992C152.599 66.3992 154.299 64.6992 157.199 64.6992C160.099 64.6992 161.799 66.3992 161.799 68.9992C161.799 71.5992 160.099 73.2992 157.199 73.2992Z" fill="white"/>
<path d="M180.6 103.9C172 103.9 167.1 99 167.1 90.7C167.1 83.1 172.5 77 180.6 77C189.4 77 194.1 81.9 194.1 90.7C194.1 98.4 188.7 103.9 180.6 103.9ZM186.7 90.9C186.7 85.4 184.9 82.7 180.6 82.7C177.1 82.7 174.6 85.4 174.6 90.9C174.6 95.6 176.4 98.3 180.6 98.3C184.8 98.3 186.7 95.5 186.7 90.9Z" fill="white"/>
<path d="M224.6 98.3H227.5V103.3H214.9V98.3H217.7V87.6C217.7 84.4 215.9 82.9 213.2 82.9C209.3 82.9 207.2 85.6 207.2 89.5V98.2H210.1V103.2H197.8V98.2H200.3V82.6H197V77.6H207.1C207.1 79.5 207.1 81 206.7 82.9H206.8C208.1 79.5 211.2 77 215.7 77C221.8 77 224.6 81.1 224.6 86.8V98.3Z" fill="white"/>
<path d="M238.299 92C238.499 96.1 241.599 98.6 246.499 98.6C249.599 98.6 251.799 98.2 254.699 96.8L254.399 102.3C251.199 103.5 248.499 103.9 244.999 103.9C235.999 103.9 230.899 98.7 230.899 90.6C230.899 82.4 235.999 77 243.799 77C251.399 77 256.199 82.1 256.199 92H238.299ZM248.699 87.3C248.699 83.8 246.799 81.8 243.399 81.8C240.399 81.8 238.499 83.8 238.199 87.3H248.699Z" fill="white"/>
<path d="M280.599 85.1H274.399V82.5C272.999 82.1 271.699 81.8 270.399 81.8C267.299 81.8 265.799 83.1 265.799 84.5C265.799 86.3 266.399 86.4 273.299 87.3C279.399 88.1 281.799 90.3 281.799 95.1C281.799 100.6 277.499 104 269.699 104C266.799 104 261.999 103.3 259.599 102.4V95H265.799V98C266.999 98.4 268.899 98.8 270.399 98.8C272.999 98.8 275.399 97.8 275.399 95.7C275.399 93.7 273.999 93.4 266.099 92.3C261.299 91.6 259.399 89.2 259.399 85.4C259.399 80.1 263.799 77 270.699 77C273.399 77 276.799 77.4 280.699 78.7V85.1H280.599Z" fill="white"/>
<path d="M19.3996 119.9V124.9H16.2996V141.3C16.2996 146.8 18.3996 149.3 23.2996 149.3C28.9996 149.3 30.9996 146.4 30.9996 141.3V124.9H27.1996V119.9H40.5996V124.9H37.4996V140.7C37.4996 150.4 33.8996 154.8 22.8996 154.8C13.2996 154.8 9.19961 151.3 9.19961 142.5V124.9H6.09961V119.9H19.3996ZM29.6996 106.5L33.1996 109.9L22.7996 118L19.0996 115.1L29.6996 106.5Z" fill="white"/>
<path d="M53.4996 128.6H60.3996V133.6H53.4996V145.2C53.4996 148.2 54.1996 149.5 57.1996 149.5C58.1996 149.5 59.3996 149.2 60.5996 148.7L60.3996 153.6C57.7996 154.5 56.0996 154.8 54.3996 154.8C49.0996 154.8 46.5996 152.2 46.5996 148.1V133.6H43.0996V128.6H46.5996V123.3L53.4996 122.9V128.6Z" fill="white"/>
<path d="M71.7 128.599V149.299H74.6V154.299H62V149.299H64.8V133.599H61.5V128.599H71.7ZM68 124.299C65.1 124.299 63.4 122.599 63.4 119.999C63.4 117.399 65.1 115.699 68 115.699C70.9 115.699 72.6 117.399 72.6 119.999C72.6 122.599 70.9 124.299 68 124.299Z" fill="white"/>
<path d="M87.5998 116.5V149.3H90.4998V154.3H77.8998V149.3H80.6998V121.6H76.7998V116.6H87.5998V116.5Z" fill="white"/>
<path d="M100.799 143C100.999 147.1 104.099 149.6 108.999 149.6C112.099 149.6 114.299 149.2 117.199 147.8L116.899 153.3C113.699 154.5 110.999 154.9 107.499 154.9C98.4994 154.9 93.3994 149.7 93.3994 141.6C93.3994 133.4 98.4994 128 106.299 128C113.899 128 118.699 133.1 118.699 143H100.799ZM111.199 138.3C111.199 134.8 109.299 132.8 105.899 132.8C102.899 132.8 100.999 134.8 100.699 138.3H111.199Z" fill="white"/>
<path d="M143.2 136.1H137V133.5C135.6 133.1 134.3 132.8 133 132.8C129.9 132.8 128.4 134.1 128.4 135.5C128.4 137.3 129 137.4 135.9 138.3C142 139.1 144.4 141.3 144.4 146.1C144.4 151.6 140.1 155 132.3 155C129.4 155 124.6 154.3 122.2 153.4V146H128.4V149C129.6 149.4 131.5 149.8 133 149.8C135.6 149.8 138 148.8 138 146.7C138 144.7 136.6 144.4 128.7 143.3C123.9 142.6 122 140.2 122 136.4C122 131.1 126.4 128 133.3 128C136 128 139.4 128.4 143.3 129.7V136.1H143.2Z" fill="white"/>
<path d="M171.9 148.9C173.9 148.8 174.6 148.7 175.2 148.7H188.1V154.3H162.1V149.6C173 141.7 179.9 134.1 179.9 129.4C179.9 126.4 177.7 124.7 175.1 124.7C171.6 124.7 169.6 127.2 169.2 130.5H162.3C162.6 123.4 167.8 119.1 175.3 119.1C182.1 119.1 187 122.7 187 129.1C187 134.5 183.1 140.1 171.9 148.9Z" fill="white"/>
<path d="M204.099 155.1C195.899 155.1 191.399 149.4 191.399 138C191.399 125.7 196.499 119 205.099 119C212.899 119 217.599 125.6 217.599 137C217.599 148.3 212.099 155.1 204.099 155.1ZM210.199 137.1C210.199 129 208.599 124.7 204.699 124.7C201.199 124.7 198.999 128.6 198.999 137.5C198.999 146.1 200.599 149.6 204.699 149.6C208.299 149.5 210.199 145.2 210.199 137.1Z" fill="white"/>
<path d="M229.999 148.9C231.999 148.8 232.699 148.7 233.299 148.7H246.199V154.3H220.199V149.6C231.099 141.7 237.999 134.1 237.999 129.4C237.999 126.4 235.799 124.7 233.199 124.7C229.699 124.7 227.699 127.2 227.299 130.5H220.399C220.699 123.4 225.899 119.1 233.399 119.1C240.199 119.1 245.099 122.7 245.099 129.1C245.199 134.5 241.199 140.1 229.999 148.9Z" fill="white"/>
<path d="M259.1 148.9C261.1 148.8 261.8 148.7 262.4 148.7H275.3V154.3H249.3V149.6C260.2 141.7 267.1 134.1 267.1 129.4C267.1 126.4 264.9 124.7 262.3 124.7C258.8 124.7 256.8 127.2 256.4 130.5H249.5C249.8 123.4 255 119.1 262.5 119.1C269.3 119.1 274.2 122.7 274.2 129.1C274.2 134.5 270.3 140.1 259.1 148.9Z" fill="white"/>
<path d="M102.1 176.4C102.3 176.3 102.6 176.4 102.6 176.9V191.9H106.4C106.7 191.9 106.9 192 106.9 192.4V193.6C106.9 194 106.7 194.1 106.4 194.1H96.2002C95.9002 194.1 95.7002 194 95.7002 193.6V192.4C95.7002 192 95.9002 191.9 96.2002 191.9H100V179L96.2002 179.8C95.9002 179.9 95.7002 179.7 95.7002 179.4V178.1C95.7002 177.7 95.9002 177.6 96.2002 177.5L102.1 176.4Z" fill="white"/>
<path d="M115.1 176.4C115.3 176.3 115.6 176.4 115.6 176.9V191.9H119.4C119.7 191.9 119.9 192 119.9 192.4V193.6C119.9 194 119.7 194.1 119.4 194.1H109.3C109 194.1 108.8 194 108.8 193.6V192.4C108.8 192 109 191.9 109.3 191.9H113.1V179L109.3 179.8C109 179.9 108.8 179.7 108.8 179.4V178.1C108.8 177.7 109 177.6 109.3 177.5L115.1 176.4Z" fill="white"/>
<path d="M131.3 189.099C131.4 189.499 131.6 190.399 131.7 190.899C131.9 190.299 132 189.599 132.2 189.199L134.7 181.699C134.8 181.399 134.9 181.199 135.3 181.199H136.7C137 181.199 137.2 181.399 137.1 181.699L131.3 198.599C131.2 198.899 131.1 199.099 130.8 199.099H129.7C129.3 199.099 129.1 198.899 129.2 198.599L130.6 194.099L126.3 181.699C126.2 181.399 126.4 181.199 126.7 181.199H128.2C128.5 181.199 128.7 181.399 128.8 181.699L131.3 189.099Z" fill="white"/>
<path d="M150.6 176.4C150.8 176.3 151.1 176.4 151.1 176.9V191.9H154.9C155.2 191.9 155.4 192 155.4 192.4V193.6C155.4 194 155.2 194.1 154.9 194.1H144.8C144.5 194.1 144.3 194 144.3 193.6V192.4C144.3 192 144.5 191.9 144.8 191.9H148.6V179L144.8 179.8C144.5 179.9 144.3 179.7 144.3 179.4V178.1C144.3 177.7 144.5 177.6 144.8 177.5L150.6 176.4Z" fill="white"/>
<path d="M168 191.8C168.3 191.8 168.5 191.9 168.5 192.3V193.5C168.5 193.9 168.3 194 168 194H158.2C157.9 194 157.7 193.9 157.7 193.5V189.2C157.7 187.3 158.9 186.6 159.8 186.3L164.6 184.5C165.1 184.3 165.9 183.9 165.9 182.8V180.7C165.9 179.3 165.1 178.5 162.9 178.5C160.6 178.5 159.9 179.3 159.9 180.7V181.8C159.9 182.2 159.8 182.3 159.4 182.3H157.9C157.5 182.3 157.4 182.1 157.4 181.8V180.3C157.4 178.2 158.6 176.4 162.9 176.4C167.2 176.4 168.4 178.2 168.4 180.3V182.8C168.4 185.1 166.9 185.9 166 186.3L161.6 187.9C160.7 188.2 160.1 188.4 160.1 189.5V192H168V191.8Z" fill="white"/>
<path d="M184.8 192.6C184.1 193.2 182.7 194.1 180.5 194.1C178 194.1 176.9 192.7 176.9 190.6V184.5C176.9 182.4 178 181 180.5 181C182.6 181 183.9 181.9 184.7 182.5V176.6C184.7 176.2 184.8 176.1 185.2 176.1H186.7C187.1 176.1 187.2 176.3 187.2 176.6V193.5C187.2 193.9 187.1 194 186.7 194H185.3C184.9 194 184.8 193.8 184.8 193.5V192.6ZM179.4 190.2C179.4 191.1 179.8 191.9 181.3 191.9C182.9 191.9 184.2 191 184.8 190.6V184.5C184.2 184.1 182.9 183.2 181.3 183.2C179.8 183.2 179.4 184 179.4 184.9V190.2Z" fill="white"/>
<path d="M200.301 187.6C200.301 187.9 200.201 188.1 199.901 188.1H192.901V190.5C192.901 191.5 193.401 192.2 195.501 192.2C197.601 192.2 198.101 191.5 198.101 190.5V190.2C198.101 189.9 198.201 189.7 198.601 189.7H199.901C200.201 189.7 200.401 189.9 200.401 190.2V190.6C200.401 192.7 199.101 194.1 195.501 194.1C191.901 194.1 190.601 192.7 190.601 190.6V184.5C190.601 182.4 191.901 181 195.501 181C199.101 181 200.301 182.4 200.301 184.5V187.6ZM192.901 186.3H198.001V184.7C198.001 183.7 197.401 183 195.401 183C193.501 183 192.801 183.7 192.801 184.7V186.3H192.901Z" fill="white"/>
<path d="M218.5 187.6C218.5 187.9 218.4 188.1 218.1 188.1H211.1V190.5C211.1 191.5 211.6 192.2 213.7 192.2C215.7 192.2 216.3 191.5 216.3 190.5V190.2C216.3 189.9 216.4 189.7 216.8 189.7H218.1C218.4 189.7 218.6 189.9 218.6 190.2V190.6C218.6 192.7 217.3 194.1 213.7 194.1C210.1 194.1 208.8 192.7 208.8 190.6V184.5C208.8 182.4 210.1 181 213.7 181C217.3 181 218.5 182.4 218.5 184.5V187.6ZM211.1 186.3H216.2V184.7C216.2 183.7 215.6 183 213.6 183C211.7 183 211 183.7 211 184.7V186.3H211.1Z" fill="white"/>
<path d="M223.5 181.2C223.9 181.2 224 181.4 224 181.7L224.1 182.5C224.8 181.9 226.2 181 228.3 181C230.7 181 231.9 182.4 231.9 184.3V193.4C231.9 193.8 231.8 193.9 231.4 193.9H229.9C229.6 193.9 229.4 193.7 229.4 193.4V184.9C229.4 183.9 228.9 183.2 227.5 183.2C225.9 183.2 224.6 184.1 224 184.5V193.4C224 193.8 223.9 193.9 223.5 193.9H222C221.6 193.9 221.5 193.7 221.5 193.4V181.7C221.5 181.4 221.6 181.2 222 181.2H223.5Z" fill="white"/>
<path d="M244.9 187.6C244.9 187.9 244.8 188.1 244.5 188.1H237.5V190.5C237.5 191.5 238 192.2 240.1 192.2C242.1 192.2 242.7 191.5 242.7 190.5V190.2C242.7 189.9 242.8 189.7 243.2 189.7H244.5C244.8 189.7 245 189.9 245 190.2V190.6C245 192.7 243.7 194.1 240.1 194.1C236.5 194.1 235.2 192.7 235.2 190.6V184.5C235.2 182.4 236.5 181 240.1 181C243.7 181 244.9 182.4 244.9 184.5V187.6ZM237.5 186.3H242.6V184.7C242.6 183.7 242 183 240 183C238.1 183 237.4 183.7 237.4 184.7V186.3H237.5Z" fill="white"/>
<path d="M255 181.5V182.7C255 183.1 254.8 183.2 254.5 183.2C252.6 183.3 251.1 184.3 250.5 184.8V193.4C250.5 193.8 250.4 193.9 250 193.9H248.5C248.1 193.9 248 193.7 248 193.4V181.7C248 181.4 248.1 181.2 248.5 181.2H249.9C250.3 181.2 250.4 181.4 250.4 181.7L250.5 182.8C251.2 182.1 252.6 181 254.5 181C254.8 181 255 181.1 255 181.5Z" fill="white"/>
<path d="M257 184.5C257 182.4 258.5 181 262.1 181C265.7 181 267.2 182.4 267.2 184.5V190.6C267.2 192.7 265.7 194.1 262.1 194.1C258.5 194.1 257 192.7 257 190.6V184.5ZM264.8 184.7C264.8 183.6 264 183 262.1 183C260.2 183 259.4 183.6 259.4 184.7V190.4C259.4 191.5 260.2 192.1 262.1 192.1C264 192.1 264.8 191.5 264.8 190.4V184.7Z" fill="white"/>
<path d="M11.2 178.299H9.5V175.699H16.5V178.299H14.9V190.999H16.5V193.599H9.5V190.999H11.1V178.299H11.2Z" fill="white"/>
<path d="M19.9998 182.8H18.2998V180.2H23.4998C23.4998 181.1 23.4998 182 23.2998 183H23.3998C24.0998 181.2 25.6998 179.9 27.9998 179.9C31.1998 179.9 32.5998 181.9 32.5998 185.1V191H34.0998V193.6H27.4998V191H28.9998V185.5C28.9998 183.7 27.9998 183 26.6998 183C24.4998 183 23.5998 184.5 23.5998 186.6V191.1H25.0998V193.7H18.6998V191H19.9998V182.8Z" fill="white"/>
<path d="M37.4998 182.8H35.7998V180.2H41.0998V191H42.5998V193.6H35.9998V191H37.4998V182.8ZM39.1998 173.5C40.6998 173.5 41.5998 174.4 41.5998 175.7C41.5998 177 40.6998 177.9 39.1998 177.9C37.6998 177.9 36.7998 177 36.7998 175.7C36.7998 174.4 37.6998 173.5 39.1998 173.5Z" fill="white"/>
<path d="M52.6 182.7C52.1 182.6 51.8 182.5 51.4 182.5C49 182.5 48 184.7 48 186.5C48 188.8 49.2 191 52.3 191C53.5 191 54.6 190.7 55.7 190.3L55.5 193.3C54.2 193.8 53.3 193.9 51.5 193.9C46.9 193.9 44.5 190.8 44.5 186.9C44.5 182.6 47.3 179.9 51.5 179.9C53.1 179.9 54.5 180.2 55.7 180.5V184.4H52.6V182.7Z" fill="white"/>
<path d="M58.7996 182.8H57.0996V180.2H62.3996V191H63.8996V193.6H57.2996V191H58.7996V182.8ZM60.4996 173.5C61.9996 173.5 62.8996 174.4 62.8996 175.7C62.8996 177 61.9996 177.9 60.4996 177.9C58.9996 177.9 58.0996 177 58.0996 175.7C58.0996 174.4 58.9996 173.5 60.4996 173.5Z" fill="white"/>
<path d="M72.7002 179.9C77.2002 179.9 79.7002 182.4 79.7002 187C79.7002 191 76.9002 193.9 72.7002 193.9C68.4002 193.9 65.7002 191.6 65.7002 187C65.7002 183.2 68.3002 179.9 72.7002 179.9ZM72.7002 191C74.9002 191 75.8002 189.5 75.8002 187.1C75.8002 184.2 74.9002 182.8 72.7002 182.8C70.5002 182.8 69.6002 184.7 69.6002 187.1C69.6002 189.5 70.5002 191 72.7002 191Z" fill="white"/>
<path d="M84.3004 179.9C85.7004 179.9 86.7004 180.7 86.7004 182.2C86.7004 183.5 85.8004 184.5 84.3004 184.5C82.8004 184.5 81.9004 183.5 81.9004 182.2C81.9004 180.7 83.0004 179.9 84.3004 179.9ZM84.3004 189.4C85.7004 189.4 86.7004 190.2 86.7004 191.7C86.7004 193 85.8004 194 84.3004 194C82.8004 194 81.9004 193 81.9004 191.7C81.9004 190.2 83.0004 189.4 84.3004 189.4Z" fill="white"/>
</g>
<defs>
<clipPath id="clip0_977_718">
<rect width="281.9" height="199.1" fill="white"/>
</clipPath>
</defs>
</svg>
