<svg width="302" height="183" viewBox="0 0 302 183" fill="none" xmlns="http://www.w3.org/2000/svg">
<g clip-path="url(#clip0_727_308)">
<path d="M30.6909 83.3749H24.7164V78.067C23.0795 77.4954 21.6882 77.3321 19.9695 77.3321C12.931 77.3321 9.08442 81.905 9.08442 89.2544C9.08442 96.6855 13.1766 101.258 20.2969 101.258C21.279 101.258 23.0795 101.177 24.2253 100.768L24.4709 94.7256H30.4454L30.2817 104.933C26.6806 106.24 23.4069 106.566 19.4785 106.566C8.26599 106.566 1.63672 100.034 1.63672 89.5811C1.63672 79.4552 8.51152 72.1058 19.724 72.1058C23.9798 72.1058 27.4991 72.9224 30.6909 74.0657V83.3749Z" fill="#FEFEFE"/>
<path d="M43.7041 69.4927V81.5784C43.7041 83.1299 43.6223 84.7631 43.2949 86.3146H43.3767C44.6862 83.0482 47.6326 80.5984 51.9702 80.5984C57.9447 80.5984 60.5637 84.5181 60.5637 90.071V101.177H63.4282V105.995H51.1518V101.177H54.0163V90.8059C54.0163 87.7028 52.2976 86.3146 49.6786 86.3146C45.9139 86.3146 43.8678 88.9277 43.8678 92.7658V101.258H46.7323V106.076H34.4559V101.258H37.1567V74.3106H33.3101V69.4927H43.7041Z" fill="#FEFEFE"/>
<path d="M89.1265 101.177H91.9091V105.995H83.5611C83.5611 103.545 83.5611 102.32 83.8885 101.013H83.8067C82.1698 104.851 79.8782 106.566 75.6224 106.566C70.4663 106.566 67.2744 103.626 67.2744 99.3802C67.2744 97.012 68.4202 94.6439 70.7118 93.2557C73.0853 91.8675 76.9319 91.4592 80.1237 91.3775L82.9882 91.2958V90.4792C82.9882 86.3146 81.5151 85.4163 78.3232 85.4163C77.3411 85.4163 75.295 85.6613 74.1492 86.1513V89.4993H68.4202V83.2115C71.2847 81.66 75.2132 80.6801 78.405 80.6801C85.7709 80.6801 89.2901 83.4565 89.2901 90.5609C89.372 94.3989 89.2083 97.5837 89.1265 101.177ZM82.9882 95.4605H80.9422C76.5227 95.4605 73.9855 96.2771 73.9855 98.7269C73.9855 100.197 74.9676 101.748 77.6685 101.748C80.8603 101.748 82.9882 99.3802 82.9882 95.4605Z" fill="#FEFEFE"/>
<path d="M113.516 86.8046C112.779 86.6412 111.961 86.5596 111.388 86.5596C107.623 86.5596 105.168 89.1727 105.168 93.0107V101.177H108.278V105.995H95.756V101.177H98.4568V85.988H95.1831V81.17H104.841C104.841 82.9665 104.759 84.5997 104.431 86.8862H104.513C105.495 82.7216 107.869 80.5984 111.634 80.5984C112.452 80.5984 113.025 80.7617 113.843 80.8434L113.516 86.8046Z" fill="#FEFEFE"/>
<path d="M124.647 69.4927V101.177H127.511V105.995H115.235V101.177H117.935V74.3106H114.089V69.4927H124.647Z" fill="#FEFEFE"/>
<path d="M152.637 101.177H155.419V105.995H147.071C147.071 103.545 147.071 102.32 147.399 101.013H147.317C145.68 104.851 143.388 106.566 139.133 106.566C133.977 106.566 130.785 103.626 130.785 99.3802C130.785 97.012 131.93 94.6439 134.222 93.2557C136.596 91.8675 140.442 91.4592 143.634 91.3775L146.58 91.2958V90.4792C146.58 86.3146 145.107 85.4163 141.915 85.4163C140.933 85.4163 138.887 85.6613 137.741 86.1513V89.4993H132.012V83.2115C134.877 81.66 138.805 80.6801 141.997 80.6801C149.363 80.6801 152.882 83.4565 152.882 90.5609C152.882 94.3989 152.719 97.5837 152.637 101.177ZM146.498 95.4605H144.452C140.033 95.4605 137.496 96.2771 137.496 98.7269C137.496 100.197 138.478 101.748 141.179 101.748C144.371 101.748 146.498 99.3802 146.498 95.4605Z" fill="#FEFEFE"/>
<path d="M179.563 88.3561H173.506V85.8246C172.197 85.4163 170.969 85.0897 169.66 85.0897C166.632 85.0897 165.158 86.3146 165.158 87.7028C165.158 89.4993 165.731 89.4993 172.442 90.3976C178.335 91.2142 180.709 93.3373 180.709 97.9103C180.709 103.218 176.535 106.485 168.923 106.485C166.141 106.485 161.476 105.831 159.102 104.933V97.9103H165.077V100.85C166.222 101.258 168.105 101.667 169.496 101.667C171.951 101.667 174.325 100.687 174.325 98.6452C174.325 96.7671 172.934 96.4404 165.24 95.2972C160.657 94.6439 158.693 92.2758 158.693 88.6827C158.693 83.5381 162.949 80.5167 169.66 80.5167C172.361 80.5167 175.553 80.925 179.317 82.1499V88.3561H179.563Z" fill="#FEFEFE"/>
<path d="M11.2124 125.43V145.436H14.0769V150.254H1.80044V145.436H4.50125V130.248H1.22754V125.43H11.2124ZM7.69312 121.265C4.91047 121.265 3.19177 119.632 3.19177 117.1C3.19177 114.569 4.82862 112.936 7.69312 112.936C10.4758 112.936 12.1945 114.569 12.1945 117.1C12.1945 119.632 10.4758 121.265 7.69312 121.265Z" fill="#FEFEFE"/>
<path d="M43.8676 145.436H46.7321V150.254H34.4557V145.436H37.1565V135.066C37.1565 131.963 35.4378 130.574 32.8188 130.574C29.054 130.574 27.008 133.187 27.008 137.025V145.518H29.8725V150.336H17.9234V145.518H20.3787V130.329H17.105V125.511H26.8443C26.8443 127.39 26.8443 128.778 26.4351 130.656H26.5169C27.8264 127.39 30.7727 124.94 35.1104 124.94C41.0849 124.94 43.7039 128.86 43.7039 134.412V145.436H43.8676Z" fill="#FEFEFE"/>
<path d="M68.4203 118.407C67.2745 117.999 66.2924 117.917 65.3102 117.917C61.2999 117.917 59.3357 119.305 59.3357 123.225V125.511H64.5737V130.329H59.3357V145.518H62.9368V150.336H49.8419V145.518H52.7064V130.329H49.269V125.511H52.7064V122.735C52.7064 116.447 56.1438 113.099 63.6734 113.099C65.0647 113.099 66.3742 113.181 68.4203 113.589V118.407Z" fill="#FEFEFE"/>
<path d="M79.7965 150.826C71.4485 150.826 66.7017 146.09 66.7017 138.087C66.7017 130.738 71.9396 124.858 79.7965 124.858C88.3082 124.858 92.8914 129.594 92.8914 138.087C92.8914 145.6 87.6534 150.826 79.7965 150.826ZM85.6892 138.25C85.6892 132.942 83.9705 130.248 79.7965 130.248C76.3591 130.248 73.9857 132.942 73.9857 138.25C73.9857 142.742 75.7044 145.436 79.8784 145.436C83.9705 145.436 85.6892 142.742 85.6892 138.25Z" fill="#FEFEFE"/>
<path d="M114.416 131.064C113.68 130.901 112.861 130.819 112.288 130.819C108.524 130.819 106.068 133.432 106.068 137.27V145.436H109.178V150.254H96.6564V145.436H99.3572V130.248H96.0835V125.43H105.741C105.741 127.226 105.659 128.86 105.332 131.146H105.414C106.396 126.981 108.769 124.858 112.534 124.858C113.352 124.858 113.925 125.021 114.744 125.103L114.416 131.064Z" fill="#FEFEFE"/>
<path d="M141.588 130.411C142.816 126.981 145.516 124.776 149.936 124.776C155.91 124.776 158.529 128.696 158.529 134.249V145.355H161.394V150.173H149.445V145.355H151.9V134.984C151.9 131.881 150.181 130.493 147.563 130.493C144.289 130.493 142.243 133.269 142.243 136.944V145.436H145.107V150.254H133.158V145.436H135.613V135.066C135.613 131.963 133.895 130.574 131.276 130.574C127.92 130.574 125.956 133.351 125.956 137.025V145.518H128.821V150.336H116.544V145.518H119.245V130.329H115.971V125.511H125.71C125.71 127.308 125.71 128.859 125.301 130.574H125.383C126.774 126.981 129.803 124.94 133.977 124.94C138.151 124.94 140.606 126.818 141.342 130.574H141.588V130.411Z" fill="#FEFEFE"/>
<path d="M187.011 145.436H189.793V150.254H181.445C181.445 147.805 181.445 146.58 181.773 145.273H181.691C180.054 149.111 177.762 150.826 173.507 150.826C168.351 150.826 165.159 147.886 165.159 143.64C165.159 141.272 166.304 138.904 168.596 137.515C170.97 136.127 174.816 135.719 178.008 135.637L180.954 135.556V134.739C180.954 130.574 179.481 129.676 176.289 129.676C175.307 129.676 173.261 129.921 172.115 130.411V133.759H166.386V127.39C169.251 125.838 173.179 124.858 176.371 124.858C183.737 124.858 187.256 127.635 187.256 134.739C187.256 138.659 187.174 141.843 187.011 145.436ZM180.873 139.72H178.826C174.407 139.72 171.87 140.537 171.87 142.987C171.87 144.457 172.852 146.008 175.553 146.008C178.745 146.008 180.873 143.64 180.873 139.72Z" fill="#FEFEFE"/>
<path d="M201.824 125.43H208.536V130.248H201.824V141.517C201.824 144.456 202.561 145.681 205.426 145.681C206.408 145.681 207.553 145.355 208.699 144.946L208.454 149.683C205.998 150.581 204.28 150.908 202.643 150.908C197.569 150.908 195.113 148.458 195.113 144.375V130.329H191.758V125.511H195.113V120.367L201.743 119.958V125.43H201.824Z" fill="#FEFEFE"/>
<path d="M219.42 125.43V145.436H222.285V150.254H210.008V145.436H212.709V130.248H209.436V125.43H219.42ZM215.901 121.265C213.118 121.265 211.4 119.632 211.4 117.1C211.4 114.569 213.037 112.936 215.901 112.936C218.684 112.936 220.402 114.569 220.402 117.1C220.402 119.632 218.684 121.265 215.901 121.265Z" fill="#FEFEFE"/>
<path d="M234.48 125.43V130.248H232.106L236.608 142.497C236.853 143.232 236.853 143.15 237.099 144.538H237.181C237.426 143.15 237.426 143.15 237.672 142.497L242.091 130.248H239.308V125.43H251.258V130.248H248.966L240.454 150.254H233.252L224.577 130.248H222.285V125.43H234.48Z" fill="#FEFEFE"/>
<path d="M273.846 145.436H276.629V150.254H268.281C268.281 147.805 268.281 146.58 268.608 145.273H268.444C266.808 149.111 264.516 150.826 260.26 150.826C255.104 150.826 251.912 147.886 251.912 143.64C251.912 141.272 253.058 138.904 255.35 137.515C257.723 136.127 261.57 135.719 264.761 135.637L267.626 135.556V134.739C267.626 130.574 266.153 129.676 262.961 129.676C261.979 129.676 259.933 129.921 258.787 130.411V133.759H253.058V127.39C255.922 125.838 259.851 124.858 263.043 124.858C270.409 124.858 273.928 127.635 273.928 134.739C274.092 138.659 273.928 141.843 273.846 145.436ZM267.708 139.72H265.662C261.242 139.72 258.705 140.537 258.705 142.987C258.705 144.457 259.687 146.008 262.388 146.008C265.58 146.008 267.708 143.64 267.708 139.72Z" fill="#FEFEFE"/>
<path d="M300.772 132.616H294.798V130.084C293.488 129.676 292.261 129.349 290.951 129.349C287.923 129.349 286.45 130.574 286.45 131.963C286.45 133.759 287.023 133.759 293.734 134.657C299.627 135.474 302 137.597 302 142.17C302 147.478 297.826 150.744 290.215 150.744C287.432 150.744 282.767 150.091 280.394 149.193V142.17H286.368V145.11C287.514 145.518 289.396 145.926 290.788 145.926C293.243 145.926 295.616 144.946 295.616 142.905C295.616 141.027 294.225 140.7 286.532 139.557C281.949 138.904 279.984 136.536 279.984 132.942C279.984 127.798 284.24 124.776 290.951 124.776C293.652 124.776 296.844 125.185 300.609 126.41V132.616H300.772Z" fill="#FEFEFE"/>
<path d="M62.1185 0V40.7483H28.8904L14.486 52.1807V40.7483H3.10986V0H62.1185ZM7.69306 36.1754H18.9874V42.7082L27.2535 36.1754H57.5353V4.4913H7.69306V36.1754Z" fill="white"/>
<path d="M55.5711 172.139C55.8166 172.139 55.8984 172.221 55.9803 172.466L59.0903 182.592C59.1722 182.755 59.0903 182.918 58.8448 182.918H57.8627C57.6171 182.918 57.6171 182.837 57.5353 182.592L56.7987 180.142H53.4432L52.7066 182.592C52.6247 182.755 52.5429 182.918 52.3792 182.918H51.4789C51.2334 182.918 51.2334 182.837 51.2334 182.592L54.3434 172.466C54.4253 172.221 54.5071 172.139 54.7526 172.139H55.5711ZM55.4892 175.977C55.3255 175.569 55.1619 174.262 55.08 173.609C54.9982 174.426 54.8345 175.406 54.6708 175.896L53.7705 178.835H56.4713L55.4892 175.977Z" fill="#FEFEFE"/>
<path d="M60.9726 182.837C60.8089 182.837 60.7271 182.755 60.7271 182.51V172.384C60.7271 172.139 60.8089 172.057 60.9726 172.057H64.3281C67.0289 172.057 67.9292 173.201 67.9292 174.507V180.387C67.9292 181.693 67.0289 182.837 64.3281 182.837H60.9726ZM62.2821 173.446V181.612H64.3281C65.7195 181.612 66.3742 181.122 66.3742 180.223V174.752C66.3742 173.936 65.7195 173.364 64.3281 173.364H62.2821V173.446Z" fill="#FEFEFE"/>
<path d="M79.3875 182.592C79.3875 182.837 79.3056 182.918 79.1419 182.918H78.2417C77.9961 182.918 77.9961 182.837 77.9961 182.592V175.324C77.9143 175.732 77.7506 176.222 77.5869 176.549L75.7045 180.958C75.6227 181.203 75.459 181.285 75.2953 181.285H74.4769C74.2314 181.285 74.1495 181.122 74.0677 180.958L72.1035 176.304C72.0216 176.14 71.8579 175.732 71.7761 175.324V182.592C71.7761 182.837 71.6943 182.918 71.5306 182.918H70.6303C70.3848 182.918 70.3848 182.837 70.3848 182.592V172.466C70.3848 172.221 70.4666 172.139 70.6303 172.139H71.5306C71.6943 172.139 71.7761 172.221 71.7761 172.302L74.5587 178.672C74.6406 178.917 74.8043 179.244 74.8861 179.652C74.968 179.407 75.1316 178.917 75.2135 178.754L77.9143 172.302C77.9143 172.221 78.078 172.139 78.1598 172.139H79.0601C79.3056 172.139 79.3056 172.221 79.3056 172.466V182.592H79.3875Z" fill="#FEFEFE"/>
<path d="M83.5615 182.51C83.5615 182.755 83.4797 182.837 83.316 182.837H82.3339C82.0884 182.837 82.0884 182.755 82.0884 182.51V172.384C82.0884 172.139 82.1702 172.057 82.3339 172.057H83.316C83.5615 172.057 83.5615 172.139 83.5615 172.384V182.51Z" fill="#FEFEFE"/>
<path d="M91.1729 174.589C91.1729 173.772 90.6819 173.282 89.2905 173.282C87.8992 173.282 87.4082 173.772 87.4082 174.589V174.916C87.4082 175.651 87.8992 175.814 88.2266 175.977L91.0911 177.039C92.0732 177.365 92.8098 178.019 92.8098 179.162V180.468C92.8098 181.775 91.9095 182.918 89.2905 182.918C86.6716 182.918 85.6895 181.775 85.6895 180.468V179.652C85.6895 179.407 85.7713 179.325 86.0168 179.325H86.9171C87.1626 179.325 87.1626 179.407 87.1626 179.652V180.387C87.1626 181.203 87.7355 181.693 89.2087 181.693C90.6 181.693 91.2548 181.203 91.2548 180.387V179.652C91.2548 178.835 90.5182 178.59 89.9453 178.345L87.2445 177.284C86.5079 177.039 85.8531 176.304 85.8531 175.324V174.426C85.8531 173.119 86.6716 171.976 89.2905 171.976C91.9095 171.976 92.7279 173.119 92.7279 174.426V175.161C92.7279 175.406 92.6461 175.487 92.4824 175.487H91.5821C91.3366 175.487 91.3366 175.406 91.3366 175.161V174.589H91.1729Z" fill="#FEFEFE"/>
<path d="M96.4927 182.51C96.4927 182.755 96.4109 182.837 96.2472 182.837H95.2651C95.0195 182.837 95.0195 182.755 95.0195 182.51V172.384C95.0195 172.139 95.1014 172.057 95.2651 172.057H96.2472C96.4927 172.057 96.4927 172.139 96.4927 172.384V182.51Z" fill="#FEFEFE"/>
<path d="M98.9478 174.426C98.9478 173.119 99.848 171.976 102.549 171.976C105.25 171.976 106.15 173.119 106.15 174.426V180.55C106.15 181.857 105.25 183 102.549 183C99.848 183 98.9478 181.857 98.9478 180.55V174.426ZM104.595 174.671C104.595 173.854 103.94 173.282 102.549 173.282C101.158 173.282 100.503 173.772 100.503 174.671V180.305C100.503 181.122 101.158 181.693 102.549 181.693C103.94 181.693 104.595 181.203 104.595 180.305V174.671ZM103.122 171.078C103.04 171.159 102.958 171.241 102.713 171.241H101.976C101.812 171.241 101.73 171.159 101.812 170.996L102.713 169.281C102.794 169.118 102.958 169.036 103.122 169.036H104.104C104.349 169.036 104.349 169.199 104.268 169.363L103.122 171.078Z" fill="#FEFEFE"/>
<path d="M115.807 182.592C115.807 182.837 115.725 182.918 115.562 182.918H114.58C114.416 182.918 114.334 182.837 114.334 182.755L110.569 176.222C110.406 175.896 110.16 175.406 109.996 175.079V182.592C109.996 182.837 109.914 182.918 109.751 182.918H108.851C108.605 182.918 108.605 182.837 108.605 182.592V172.466C108.605 172.221 108.687 172.139 108.851 172.139H109.751C109.914 172.139 109.996 172.221 109.996 172.302L113.843 178.999C113.925 179.162 114.252 179.815 114.334 179.979V172.466C114.334 172.221 114.416 172.139 114.661 172.139H115.562C115.807 172.139 115.807 172.221 115.807 172.466V182.592Z" fill="#FEFEFE"/>
<path d="M127.92 181.53C128.166 181.53 128.247 181.612 128.247 181.775V182.51C128.247 182.755 128.166 182.837 127.92 182.837H121.864C121.618 182.837 121.536 182.755 121.536 182.51V179.815C121.536 178.672 122.273 178.264 122.846 178.019L125.792 176.875C126.119 176.794 126.61 176.549 126.61 175.814V174.507C126.61 173.609 126.119 173.119 124.728 173.119C123.337 173.119 122.846 173.609 122.846 174.507V175.161C122.846 175.406 122.764 175.487 122.6 175.487H121.7C121.454 175.487 121.373 175.406 121.373 175.161V174.262C121.373 172.956 122.109 171.812 124.728 171.812C127.347 171.812 128.166 172.956 128.166 174.262V175.814C128.166 177.202 127.265 177.774 126.692 177.937L123.992 178.917C123.419 179.08 123.091 179.244 123.091 179.897V181.448H127.92V181.53Z" fill="#FEFEFE"/>
<path d="M130.212 174.426C130.212 173.119 131.03 171.976 133.649 171.976C136.268 171.976 137.087 173.119 137.087 174.426V180.55C137.087 181.857 136.268 183 133.649 183C131.03 183 130.212 181.857 130.212 180.55V174.426ZM135.532 174.671C135.532 173.854 135.041 173.282 133.649 173.282C132.258 173.282 131.767 173.772 131.767 174.671V180.305C131.767 181.122 132.258 181.693 133.649 181.693C135.041 181.693 135.532 181.203 135.532 180.305V174.671Z" fill="#FEFEFE"/>
<path d="M145.598 181.53C145.844 181.53 145.926 181.612 145.926 181.775V182.51C145.926 182.755 145.844 182.837 145.598 182.837H139.542C139.296 182.837 139.214 182.755 139.214 182.51V179.815C139.214 178.672 139.951 178.264 140.524 178.019L143.47 176.875C143.798 176.794 144.289 176.549 144.289 175.814V174.507C144.289 173.609 143.798 173.119 142.406 173.119C141.015 173.119 140.524 173.609 140.524 174.507V175.161C140.524 175.406 140.442 175.487 140.278 175.487H139.378C139.133 175.487 139.051 175.406 139.051 175.161V174.262C139.051 172.956 139.787 171.812 142.406 171.812C145.025 171.812 145.844 172.956 145.844 174.262V175.814C145.844 177.202 144.943 177.774 144.371 177.937L141.67 178.917C141.097 179.08 140.769 179.244 140.769 179.897V181.448H145.598V181.53Z" fill="#FEFEFE"/>
<path d="M151 176.63C152.391 176.63 152.8 176.14 152.8 175.324V174.671C152.8 173.854 152.391 173.364 151 173.364C149.608 173.364 149.199 173.854 149.199 174.671V174.916C149.199 175.161 149.117 175.242 148.872 175.242H147.971C147.726 175.242 147.726 175.161 147.726 174.916V174.507C147.726 173.201 148.381 172.057 151.081 172.057C153.7 172.057 154.355 173.119 154.355 174.426V175.569C154.355 176.385 154.11 176.957 153.046 177.284C154.191 177.61 154.437 178.264 154.437 179.08V180.713C154.437 182.02 153.7 183.082 151.081 183.082C148.381 183.082 147.644 181.938 147.644 180.632V180.223C147.644 179.979 147.726 179.897 147.89 179.897H148.79C149.035 179.897 149.035 179.979 149.035 180.223V180.468C149.035 181.285 149.526 181.775 150.918 181.775C152.309 181.775 152.8 181.285 152.8 180.468V179.325C152.8 178.427 152.391 178.019 150.918 178.019H149.772C149.526 178.019 149.445 177.937 149.445 177.692V177.039C149.445 176.794 149.526 176.712 149.772 176.712H151V176.63Z" fill="#FEFEFE"/>
<path d="M37.3203 172.792H0V183H37.3203V172.792Z" fill="#FEFEFE"/>
</g>
<defs>
<clipPath id="clip0_727_308">
<rect width="302" height="183" fill="white"/>
</clipPath>
</defs>
</svg>
