<svg width="369" height="225" viewBox="0 0 369 225" fill="none" xmlns="http://www.w3.org/2000/svg">
<g clip-path="url(#clip0_721_209)">
<path d="M37.5 102.1H30.2V95.6C28.2 94.9 26.5 94.7 24.4 94.7C15.8 94.7 11.1 100.3 11.1 109.3C11.1 118.4 16.1 124 24.8 124C26 124 28.2 123.9 29.6 123.4L29.9 116H37.2L37 128.5C32.6 130.1 28.6 130.5 23.8 130.5C10.1 130.5 2 122.5 2 109.7C2 97.3 10.4 88.3 24.1 88.3C29.3 88.3 33.6 89.3 37.5 90.7V102.1Z" fill="#FEFEFE"/>
<path d="M53.4002 85.1V99.9C53.4002 101.8 53.3002 103.8 52.9002 105.7H53.0002C54.6002 101.7 58.2002 98.7 63.5002 98.7C70.8002 98.7 74.0002 103.5 74.0002 110.3V123.9H77.5002V129.8H62.5002V123.9H66.0002V111.2C66.0002 107.4 63.9002 105.7 60.7002 105.7C56.1002 105.7 53.6002 108.9 53.6002 113.6V124H57.1002V129.9H42.1002V124H45.4002V91H40.7002V85.1H53.4002Z" fill="#FEFEFE"/>
<path d="M108.9 123.9H112.3V129.8H102.1C102.1 126.8 102.1 125.3 102.5 123.7H102.4C100.4 128.4 97.6002 130.5 92.4002 130.5C86.1002 130.5 82.2002 126.9 82.2002 121.7C82.2002 118.8 83.6002 115.9 86.4002 114.2C89.3002 112.5 94.0002 112 97.9002 111.9L101.4 111.8V110.8C101.4 105.7 99.6002 104.6 95.7002 104.6C94.5002 104.6 92.0002 104.9 90.6002 105.5V109.6H83.6002V101.9C87.1002 100 91.9002 98.8 95.8002 98.8C104.8 98.8 109.1 102.2 109.1 110.9C109.2 115.6 109 119.5 108.9 123.9ZM101.4 116.9H98.9002C93.5002 116.9 90.4002 117.9 90.4002 120.9C90.4002 122.7 91.6002 124.6 94.9002 124.6C98.8002 124.6 101.4 121.7 101.4 116.9Z" fill="#FEFEFE"/>
<path d="M138.7 106.3C137.8 106.1 136.8 106 136.1 106C131.5 106 128.5 109.2 128.5 113.9V123.9H132.3V129.8H117V123.9H120.3V105.3H116.3V99.4H128.1C128.1 101.6 128 103.6 127.6 106.4H127.7C128.9 101.3 131.8 98.7 136.4 98.7C137.4 98.7 138.1 98.9 139.1 99L138.7 106.3Z" fill="#FEFEFE"/>
<path d="M152.3 85.1V123.9H155.8V129.8H140.8V123.9H144.1V91H139.4V85.1H152.3Z" fill="#FEFEFE"/>
<path d="M186.5 123.9H189.9V129.8H179.7C179.7 126.8 179.7 125.3 180.1 123.7H180C178 128.4 175.2 130.5 170 130.5C163.7 130.5 159.8 126.9 159.8 121.7C159.8 118.8 161.2 115.9 164 114.2C166.9 112.5 171.6 112 175.5 111.9L179.1 111.8V110.8C179.1 105.7 177.3 104.6 173.4 104.6C172.2 104.6 169.7 104.9 168.3 105.5V109.6H161.3V101.9C164.8 100 169.6 98.8 173.5 98.8C182.5 98.8 186.8 102.2 186.8 110.9C186.8 115.6 186.6 119.5 186.5 123.9ZM179 116.9H176.5C171.1 116.9 168 117.9 168 120.9C168 122.7 169.2 124.6 172.5 124.6C176.4 124.6 179 121.7 179 116.9Z" fill="#FEFEFE"/>
<path d="M219.4 108.2H212V105.1C210.4 104.6 208.9 104.2 207.3 104.2C203.6 104.2 201.8 105.7 201.8 107.4C201.8 109.6 202.5 109.6 210.7 110.7C217.9 111.7 220.8 114.3 220.8 119.9C220.8 126.4 215.7 130.4 206.4 130.4C203 130.4 197.3 129.6 194.4 128.5V119.9H201.7V123.5C203.1 124 205.4 124.5 207.1 124.5C210.1 124.5 213 123.3 213 120.8C213 118.5 211.3 118.1 201.9 116.7C196.3 115.9 193.9 113 193.9 108.6C193.9 102.3 199.1 98.6 207.3 98.6C210.6 98.6 214.5 99.1 219.1 100.6V108.2H219.4Z" fill="#FEFEFE"/>
<path d="M13.7 153.6V178.1H17.2V184H2.2V178.1H5.5V159.5H1.5V153.6H13.7ZM9.4 148.5C6 148.5 3.9 146.5 3.9 143.4C3.9 140.3 5.9 138.3 9.4 138.3C12.8 138.3 14.9 140.3 14.9 143.4C14.9 146.5 12.8 148.5 9.4 148.5Z" fill="#FEFEFE"/>
<path d="M53.5999 178.1H57.0999V184H42.0999V178.1H45.3999V165.4C45.3999 161.6 43.2999 159.9 40.0999 159.9C35.4999 159.9 32.9999 163.1 32.9999 167.8V178.2H36.4999V184.1H21.8999V178.2H24.8999V159.6H20.8999V153.7H32.7999C32.7999 156 32.7999 157.7 32.2999 160H32.3999C33.9999 156 37.5999 153 42.8999 153C50.1999 153 53.3999 157.8 53.3999 164.6V178.1H53.5999Z" fill="#FEFEFE"/>
<path d="M83.6002 145C82.2002 144.5 81.0002 144.4 79.8002 144.4C74.9002 144.4 72.5002 146.1 72.5002 150.9V153.7H78.9002V159.6H72.5002V178.2H76.9002V184.1H60.9002V178.2H64.4002V159.6H60.2002V153.7H64.4002V150.3C64.4002 142.6 68.6002 138.5 77.8002 138.5C79.5002 138.5 81.1002 138.6 83.6002 139.1V145Z" fill="#FEFEFE"/>
<path d="M97.5 184.7C87.3 184.7 81.5 178.9 81.5 169.1C81.5 160.1 87.9 152.9 97.5 152.9C107.9 152.9 113.5 158.7 113.5 169.1C113.5 178.3 107.1 184.7 97.5 184.7ZM104.7 169.3C104.7 162.8 102.6 159.5 97.5 159.5C93.3 159.5 90.4 162.8 90.4 169.3C90.4 174.8 92.5 178.1 97.6 178.1C102.6 178.1 104.7 174.8 104.7 169.3Z" fill="#FEFEFE"/>
<path d="M139.8 160.5C138.9 160.3 137.9 160.2 137.2 160.2C132.6 160.2 129.6 163.4 129.6 168.1V178.1H133.4V184H118.1V178.1H121.4V159.5H117.4V153.6H129.2C129.2 155.8 129.1 157.8 128.7 160.6H128.8C130 155.5 132.9 152.9 137.5 152.9C138.5 152.9 139.2 153.1 140.2 153.2L139.8 160.5Z" fill="#FEFEFE"/>
<path d="M173 159.7C174.5 155.5 177.8 152.8 183.2 152.8C190.5 152.8 193.7 157.6 193.7 164.4V178H197.2V183.9H182.6V178H185.6V165.3C185.6 161.5 183.5 159.8 180.3 159.8C176.3 159.8 173.8 163.2 173.8 167.7V178.1H177.3V184H162.7V178.1H165.7V165.4C165.7 161.6 163.6 159.9 160.4 159.9C156.3 159.9 153.9 163.3 153.9 167.8V178.2H157.4V184.1H142.4V178.2H145.7V159.6H141.7V153.7H153.6C153.6 155.9 153.6 157.8 153.1 159.9H153.2C154.9 155.5 158.6 153 163.7 153C168.8 153 171.8 155.3 172.7 159.9H173V159.7Z" fill="#FEFEFE"/>
<path d="M228.5 178.1H231.9V184H221.7C221.7 181 221.7 179.5 222.1 177.9H222C220 182.6 217.2 184.7 212 184.7C205.7 184.7 201.8 181.1 201.8 175.9C201.8 173 203.2 170.1 206 168.4C208.9 166.7 213.6 166.2 217.5 166.1L221.1 166V165C221.1 159.9 219.3 158.8 215.4 158.8C214.2 158.8 211.7 159.1 210.3 159.7V163.8H203.3V156C206.8 154.1 211.6 152.9 215.5 152.9C224.5 152.9 228.8 156.3 228.8 165C228.8 169.8 228.7 173.7 228.5 178.1ZM221 171.1H218.5C213.1 171.1 210 172.1 210 175.1C210 176.9 211.2 178.8 214.5 178.8C218.4 178.8 221 175.9 221 171.1Z" fill="#FEFEFE"/>
<path d="M246.6 153.6H254.8V159.5H246.6V173.3C246.6 176.9 247.5 178.4 251 178.4C252.2 178.4 253.6 178 255 177.5L254.7 183.3C251.7 184.4 249.6 184.8 247.6 184.8C241.4 184.8 238.4 181.8 238.4 176.8V159.6H234.3V153.7H238.4V147.4L246.5 146.9V153.6H246.6Z" fill="#FEFEFE"/>
<path d="M268.1 153.6V178.1H271.6V184H256.6V178.1H259.9V159.5H255.9V153.6H268.1ZM263.8 148.5C260.4 148.5 258.3 146.5 258.3 143.4C258.3 140.3 260.3 138.3 263.8 138.3C267.2 138.3 269.3 140.3 269.3 143.4C269.3 146.5 267.2 148.5 263.8 148.5Z" fill="#FEFEFE"/>
<path d="M286.5 153.6V159.5H283.6L289.1 174.5C289.4 175.4 289.4 175.3 289.7 177H289.8C290.1 175.3 290.1 175.3 290.4 174.5L295.8 159.5H292.4V153.6H307V159.5H304.2L293.8 184H285L274.4 159.5H271.6V153.6H286.5Z" fill="#FEFEFE"/>
<path d="M334.6 178.1H338V184H327.8C327.8 181 327.8 179.5 328.2 177.9H328C326 182.6 323.2 184.7 318 184.7C311.7 184.7 307.8 181.1 307.8 175.9C307.8 173 309.2 170.1 312 168.4C314.9 166.7 319.6 166.2 323.5 166.1L327 166V165C327 159.9 325.2 158.8 321.3 158.8C320.1 158.8 317.6 159.1 316.2 159.7V163.8H309.2V156C312.7 154.1 317.5 152.9 321.4 152.9C330.4 152.9 334.7 156.3 334.7 165C334.9 169.8 334.7 173.7 334.6 178.1ZM327.1 171.1H324.6C319.2 171.1 316.1 172.1 316.1 175.1C316.1 176.9 317.3 178.8 320.6 178.8C324.5 178.8 327.1 175.9 327.1 171.1Z" fill="#FEFEFE"/>
<path d="M367.5 162.4H360.2V159.3C358.6 158.8 357.1 158.4 355.5 158.4C351.8 158.4 350 159.9 350 161.6C350 163.8 350.7 163.8 358.9 164.9C366.1 165.9 369 168.5 369 174.1C369 180.6 363.9 184.6 354.6 184.6C351.2 184.6 345.5 183.8 342.6 182.7V174.1H349.9V177.7C351.3 178.2 353.6 178.7 355.3 178.7C358.3 178.7 361.2 177.5 361.2 175C361.2 172.7 359.5 172.3 350.1 170.9C344.5 170.1 342.1 167.2 342.1 162.8C342.1 156.5 347.3 152.8 355.5 152.8C358.8 152.8 362.7 153.3 367.3 154.8V162.4H367.5Z" fill="#FEFEFE"/>
<path d="M75.8998 0V49.9H35.2998L17.6998 63.9V49.9H3.7998V0H75.8998ZM9.3998 44.3H23.1998V52.3L33.2998 44.3H70.2998V5.5H9.3998V44.3Z" fill="white"/>
<path d="M67.9001 210.8C68.2001 210.8 68.3001 210.9 68.4001 211.2L72.2001 223.6C72.3001 223.8 72.2001 224 71.9001 224H70.7001C70.4001 224 70.4001 223.9 70.3001 223.6L69.4001 220.6H65.3001L64.4001 223.6C64.3001 223.8 64.2001 224 64.0001 224H62.9001C62.6001 224 62.6001 223.9 62.6001 223.6L66.4001 211.2C66.5001 210.9 66.6001 210.8 66.9001 210.8H67.9001ZM67.8001 215.5C67.6001 215 67.4001 213.4 67.3001 212.6C67.2001 213.6 67.0001 214.8 66.8001 215.4L65.7001 219H69.0001L67.8001 215.5Z" fill="#FEFEFE"/>
<path d="M74.5002 223.9C74.3002 223.9 74.2002 223.8 74.2002 223.5V211.1C74.2002 210.8 74.3002 210.7 74.5002 210.7H78.6002C81.9002 210.7 83.0002 212.1 83.0002 213.7V220.9C83.0002 222.5 81.9002 223.9 78.6002 223.9H74.5002ZM76.1002 212.4V222.4H78.6002C80.3002 222.4 81.1002 221.8 81.1002 220.7V214C81.1002 213 80.3002 212.3 78.6002 212.3H76.1002V212.4Z" fill="#FEFEFE"/>
<path d="M97 223.6C97 223.9 96.9 224 96.7 224H95.6C95.3 224 95.3 223.9 95.3 223.6V214.7C95.2 215.2 95 215.8 94.8 216.2L92.5 221.6C92.4 221.9 92.2 222 92 222H91C90.7 222 90.6 221.8 90.5 221.6L88.1 215.9C88 215.7 87.8 215.2 87.7 214.7V223.6C87.7 223.9 87.6 224 87.4 224H86.3C86 224 86 223.9 86 223.6V211.2C86 210.9 86.1 210.8 86.3 210.8H87.4C87.6 210.8 87.7 210.9 87.7 211L91.1 218.8C91.2 219.1 91.4 219.5 91.5 220C91.6 219.7 91.8 219.1 91.9 218.9L95.2 211C95.2 210.9 95.4 210.8 95.5 210.8H96.6C96.9 210.8 96.9 210.9 96.9 211.2V223.6H97Z" fill="#FEFEFE"/>
<path d="M102.1 223.5C102.1 223.8 102 223.9 101.8 223.9H100.6C100.3 223.9 100.3 223.8 100.3 223.5V211.1C100.3 210.8 100.4 210.7 100.6 210.7H101.8C102.1 210.7 102.1 210.8 102.1 211.1V223.5Z" fill="#FEFEFE"/>
<path d="M111.4 213.8C111.4 212.8 110.8 212.2 109.1 212.2C107.4 212.2 106.8 212.8 106.8 213.8V214.2C106.8 215.1 107.4 215.3 107.8 215.5L111.3 216.8C112.5 217.2 113.4 218 113.4 219.4V221C113.4 222.6 112.3 224 109.1 224C105.9 224 104.7 222.6 104.7 221V220C104.7 219.7 104.8 219.6 105.1 219.6H106.2C106.5 219.6 106.5 219.7 106.5 220V220.9C106.5 221.9 107.2 222.5 109 222.5C110.7 222.5 111.5 221.9 111.5 220.9V220C111.5 219 110.6 218.7 109.9 218.4L106.6 217.1C105.7 216.8 104.9 215.9 104.9 214.7V213.6C104.9 212 105.9 210.6 109.1 210.6C112.3 210.6 113.3 212 113.3 213.6V214.5C113.3 214.8 113.2 214.9 113 214.9H111.9C111.6 214.9 111.6 214.8 111.6 214.5V213.8H111.4Z" fill="#FEFEFE"/>
<path d="M117.9 223.5C117.9 223.8 117.8 223.9 117.6 223.9H116.4C116.1 223.9 116.1 223.8 116.1 223.5V211.1C116.1 210.8 116.2 210.7 116.4 210.7H117.6C117.9 210.7 117.9 210.8 117.9 211.1V223.5Z" fill="#FEFEFE"/>
<path d="M120.9 213.6C120.9 212 122 210.6 125.3 210.6C128.6 210.6 129.7 212 129.7 213.6V221.1C129.7 222.7 128.6 224.1 125.3 224.1C122 224.1 120.9 222.7 120.9 221.1V213.6ZM127.8 213.9C127.8 212.9 127 212.2 125.3 212.2C123.6 212.2 122.8 212.8 122.8 213.9V220.8C122.8 221.8 123.6 222.5 125.3 222.5C127 222.5 127.8 221.9 127.8 220.8V213.9ZM126 209.5C125.9 209.6 125.8 209.7 125.5 209.7H124.6C124.4 209.7 124.3 209.6 124.4 209.4L125.5 207.3C125.6 207.1 125.8 207 126 207H127.2C127.5 207 127.5 207.2 127.4 207.4L126 209.5Z" fill="#FEFEFE"/>
<path d="M141.5 223.6C141.5 223.9 141.4 224 141.2 224H140C139.8 224 139.7 223.9 139.7 223.8L135.1 215.8C134.9 215.4 134.6 214.8 134.4 214.4V223.6C134.4 223.9 134.3 224 134.1 224H133C132.7 224 132.7 223.9 132.7 223.6V211.2C132.7 210.9 132.8 210.8 133 210.8H134.1C134.3 210.8 134.4 210.9 134.4 211L139.1 219.2C139.2 219.4 139.6 220.2 139.7 220.4V211.2C139.7 210.9 139.8 210.8 140.1 210.8H141.2C141.5 210.8 141.5 210.9 141.5 211.2V223.6Z" fill="#FEFEFE"/>
<path d="M156.3 222.3C156.6 222.3 156.7 222.4 156.7 222.6V223.5C156.7 223.8 156.6 223.9 156.3 223.9H148.9C148.6 223.9 148.5 223.8 148.5 223.5V220.2C148.5 218.8 149.4 218.3 150.1 218L153.7 216.6C154.1 216.5 154.7 216.2 154.7 215.3V213.7C154.7 212.6 154.1 212 152.4 212C150.7 212 150.1 212.6 150.1 213.7V214.5C150.1 214.8 150 214.9 149.8 214.9H148.7C148.4 214.9 148.3 214.8 148.3 214.5V213.4C148.3 211.8 149.2 210.4 152.4 210.4C155.6 210.4 156.6 211.8 156.6 213.4V215.3C156.6 217 155.5 217.7 154.8 217.9L151.5 219.1C150.8 219.3 150.4 219.5 150.4 220.3V222.2H156.3V222.3Z" fill="#FEFEFE"/>
<path d="M159.1 213.6C159.1 212 160.1 210.6 163.3 210.6C166.5 210.6 167.5 212 167.5 213.6V221.1C167.5 222.7 166.5 224.1 163.3 224.1C160.1 224.1 159.1 222.7 159.1 221.1V213.6ZM165.6 213.9C165.6 212.9 165 212.2 163.3 212.2C161.6 212.2 161 212.8 161 213.9V220.8C161 221.8 161.6 222.5 163.3 222.5C165 222.5 165.6 221.9 165.6 220.8V213.9Z" fill="#FEFEFE"/>
<path d="M177.9 222.3C178.2 222.3 178.3 222.4 178.3 222.6V223.5C178.3 223.8 178.2 223.9 177.9 223.9H170.5C170.2 223.9 170.1 223.8 170.1 223.5V220.2C170.1 218.8 171 218.3 171.7 218L175.3 216.6C175.7 216.5 176.3 216.2 176.3 215.3V213.7C176.3 212.6 175.7 212 174 212C172.3 212 171.7 212.6 171.7 213.7V214.5C171.7 214.8 171.6 214.9 171.4 214.9H170.3C170 214.9 169.9 214.8 169.9 214.5V213.4C169.9 211.8 170.8 210.4 174 210.4C177.2 210.4 178.2 211.8 178.2 213.4V215.3C178.2 217 177.1 217.7 176.4 217.9L173.1 219.1C172.4 219.3 172 219.5 172 220.3V222.2H177.9V222.3Z" fill="#FEFEFE"/>
<path d="M184.5 216.3C186.2 216.3 186.7 215.7 186.7 214.7V213.9C186.7 212.9 186.2 212.3 184.5 212.3C182.8 212.3 182.3 212.9 182.3 213.9V214.2C182.3 214.5 182.2 214.6 181.9 214.6H180.8C180.5 214.6 180.5 214.5 180.5 214.2V213.7C180.5 212.1 181.3 210.7 184.6 210.7C187.8 210.7 188.6 212 188.6 213.6V215C188.6 216 188.3 216.7 187 217.1C188.4 217.5 188.7 218.3 188.7 219.3V221.3C188.7 222.9 187.8 224.2 184.6 224.2C181.3 224.2 180.4 222.8 180.4 221.2V220.7C180.4 220.4 180.5 220.3 180.7 220.3H181.8C182.1 220.3 182.1 220.4 182.1 220.7V221C182.1 222 182.7 222.6 184.4 222.6C186.1 222.6 186.7 222 186.7 221V219.6C186.7 218.5 186.2 218 184.4 218H183C182.7 218 182.6 217.9 182.6 217.6V216.8C182.6 216.5 182.7 216.4 183 216.4H184.5V216.3Z" fill="#FEFEFE"/>
<path d="M45.6 211.6H0V224.1H45.6V211.6Z" fill="#FEFEFE"/>
</g>
<defs>
<clipPath id="clip0_721_209">
<rect width="369" height="224.1" fill="white"/>
</clipPath>
</defs>
</svg>
