<svg width="401" height="267" viewBox="0 0 401 267" fill="none" xmlns="http://www.w3.org/2000/svg">
<g clip-path="url(#clip0)">
<path d="M400.111 206.611C400.111 226.826 397.125 246.339 391.534 264.768H10.9907C5.46356 246.403 2.41413 226.889 2.41413 206.611C2.41413 96.4185 91.4194 7.01465 201.262 7.01465C311.042 7.07842 400.111 96.4185 400.111 206.611Z" fill="#FF3C57"/>
<path d="M375.398 20.151C368.917 17.4727 358.435 14.2205 345.411 14.4755C331.753 14.7306 321.27 18.6205 315.362 21.3626C309.263 18.5567 297.701 14.2205 282.708 14.4755C270.955 14.6668 261.489 17.6002 255.326 20.151C253.674 20.8524 252.658 22.3829 252.658 24.1684V100.117C252.658 102.987 255.39 105.091 258.122 104.262C265.046 102.349 274.195 100.627 284.995 100.691C296.366 100.819 305.832 102.923 312.694 105.027C314.472 105.601 316.315 105.601 318.094 105.027C325.273 102.795 335.437 100.5 347.762 100.627C357.673 100.755 366.122 102.349 372.666 104.198C375.397 104.963 378.129 102.923 378.129 100.053V24.1684C378.129 22.3829 377.049 20.7887 375.398 20.151Z" fill="#47446F"/>
<path d="M342.553 15.6871C330.228 15.8784 320.698 19.4494 315.362 21.9364C309.898 19.3856 299.416 15.4957 285.82 15.6871C273.496 15.8784 263.966 19.4494 258.63 21.9364V89.9139L261.107 94.2502C262.06 95.972 264.03 96.801 265.936 96.2908C271.844 94.8241 279.34 93.6125 287.917 93.6763C298.399 93.8038 307.167 95.7807 313.392 97.7575C314.727 98.2039 316.124 98.2039 317.458 97.7575C323.938 95.7169 333.341 93.5488 344.713 93.6763C352.527 93.7401 359.324 94.8879 364.915 96.2908C366.821 96.7372 368.79 95.9082 369.743 94.2502L372.221 89.9139V21.8726C366.63 19.3856 356.148 15.432 342.553 15.6871Z" fill="#00CDCF"/>
<path d="M372.094 16.006V89.9141C365.804 87.7459 356.339 85.259 344.586 85.1314C332.007 85.0039 321.842 87.6184 315.298 89.9141V13.3278C320.635 10.8408 330.164 7.33349 342.489 7.07841C354.178 6.88711 363.581 9.7567 369.489 12.1799C371.077 12.8176 372.094 14.3481 372.094 16.006Z" fill="#BBF1E6"/>
<path d="M315.362 13.3278V89.9141C309.072 87.746 299.606 85.259 287.853 85.1315C275.275 85.0039 265.11 87.6184 258.566 89.9141V16.006C258.566 14.3481 259.583 12.8176 261.107 12.1799C266.698 9.88423 275.147 7.26971 285.757 7.07841C299.416 6.82333 309.898 10.777 315.362 13.3278Z" fill="#BBF1E6"/>
<path d="M315.362 13.3276V89.914H289.188L315.362 13.3276Z" fill="#00CDCF"/>
<path d="M340.904 170.834L327.125 213.341L335.16 215.965L348.939 173.458L340.904 170.834Z" fill="#FF3C57"/>
<path d="M328.576 222.617L335.247 215.857L327.178 213.179L328.576 222.617Z" fill="#001F3D"/>
<path d="M346.873 166.118C349.096 166.819 350.303 169.242 349.604 171.474L348.969 173.451L340.901 170.837L341.536 168.86C342.298 166.628 344.649 165.416 346.873 166.118Z" fill="#001F3D"/>
<path d="M325.908 142.013H312.249C311.614 142.013 311.169 142.523 311.169 143.097V200.68H327.051V143.097C326.988 142.46 326.48 142.013 325.908 142.013Z" fill="#00CDCF"/>
<path d="M311.105 146.796H315.362V146.158H311.105" fill="#001F3D"/>
<path d="M311.105 149.155H315.362V148.518H311.105" fill="#001F3D"/>
<path d="M311.105 151.578H315.362V150.941H311.105" fill="#001F3D"/>
<path d="M311.105 153.938H315.362V153.3H311.105" fill="#001F3D"/>
<path d="M311.105 156.361H315.362V155.723H311.105" fill="#001F3D"/>
<path d="M311.105 158.721H315.362V158.083H311.105" fill="#001F3D"/>
<path d="M311.105 161.144H315.362V160.506H311.105" fill="#001F3D"/>
<path d="M311.105 163.503H315.362V162.865H311.105" fill="#001F3D"/>
<path d="M311.105 165.926H315.362V165.289H311.105" fill="#001F3D"/>
<path d="M311.105 168.286H315.362V167.648H311.105" fill="#001F3D"/>
<path d="M311.105 170.709H315.362V170.071H311.105" fill="#001F3D"/>
<path d="M311.105 173.069H315.362V172.431H311.105" fill="#001F3D"/>
<path d="M311.105 175.492H315.362V174.854H311.105" fill="#001F3D"/>
<path d="M311.105 177.851H315.362V177.214H311.105" fill="#001F3D"/>
<path d="M311.105 180.274H315.362V179.637H311.105" fill="#001F3D"/>
<path d="M311.105 182.634H315.362V181.996H311.105" fill="#001F3D"/>
<path d="M311.105 185.057H315.362V184.419H311.105" fill="#001F3D"/>
<path d="M311.105 187.417H315.362V186.779H311.105" fill="#001F3D"/>
<path d="M311.105 189.84H315.362V189.202H311.105" fill="#001F3D"/>
<path d="M311.105 192.199H315.362V191.562H311.105" fill="#001F3D"/>
<path d="M311.105 194.622H315.362V193.985H311.105" fill="#001F3D"/>
<path d="M311.105 196.982H315.362V196.344H311.105" fill="#001F3D"/>
<path d="M311.105 199.405H315.362V198.767H311.105" fill="#001F3D"/>
<path d="M336.009 191.88H322.35V205.718C322.35 207.185 323.494 208.333 324.955 208.333H333.404C334.865 208.333 336.009 207.185 336.009 205.718V191.88Z" fill="#0084AA"/>
<path d="M334.357 187.608H324.002C323.112 187.608 322.35 188.373 322.35 189.266V191.88H336.009V189.266C336.009 188.309 335.247 187.608 334.357 187.608Z" fill="#BBF1E6"/>
<path d="M345.856 200.68H308.119C305.896 200.68 304.117 202.466 304.117 204.698V254.31C304.117 256.542 305.896 258.327 308.119 258.327H345.793C348.016 258.327 349.795 256.542 349.795 254.31V204.698C349.795 202.466 348.016 200.68 345.856 200.68Z" fill="#47446F"/>
<path d="M306.976 201.254V209.417L308.246 258.264H341.6L306.976 201.254Z" fill="#282649"/>
<path d="M205.837 4.97397V59.1137C205.837 61.8557 203.613 64.0877 200.881 64.0877H128.013C125.281 64.0877 123.057 61.8557 123.057 59.1137V4.97397C123.057 2.23191 125.281 0 128.013 0H200.818C203.613 0 205.837 2.23191 205.837 4.97397Z" fill="#0084AA"/>
<path d="M205.837 9.50146V59.1136C205.837 61.8556 203.613 64.0876 200.881 64.0876H128.013C125.281 64.0876 123.057 61.8556 123.057 59.1136V9.50146H205.837Z" fill="#00B4DC"/>
<path d="M201.135 4.91023C201.135 5.86677 200.373 6.63199 199.42 6.63199C198.467 6.63199 197.705 5.86677 197.705 4.91023C197.705 3.9537 198.467 3.18848 199.42 3.18848C200.373 3.18848 201.135 3.9537 201.135 4.91023Z" fill="white"/>
<path d="M195.735 4.91023C195.735 5.86677 194.973 6.63199 194.02 6.63199C193.067 6.63199 192.305 5.86677 192.305 4.91023C192.305 3.9537 193.067 3.18848 194.02 3.18848C194.973 3.18848 195.735 3.9537 195.735 4.91023Z" fill="white"/>
<path d="M190.335 4.91023C190.335 5.86677 189.573 6.63199 188.62 6.63199C187.667 6.63199 186.905 5.86677 186.905 4.91023C186.905 3.9537 187.667 3.18848 188.62 3.18848C189.573 3.18848 190.335 3.9537 190.335 4.91023Z" fill="white"/>
<path d="M201.072 15.0496H128.521V56.308H201.072V15.0496Z" fill="#0084AA"/>
<path d="M164.415 29.2061V197.875C164.415 202.721 160.476 206.675 155.648 206.675H27.4449C22.6166 206.675 18.6778 202.721 18.6778 197.875V29.2061C18.6778 24.3597 22.6166 20.406 27.4449 20.406H155.648C160.54 20.406 164.415 24.3597 164.415 29.2061Z" fill="#00CDCF"/>
<path d="M164.415 37.1135V197.811C164.415 202.657 160.476 206.611 155.648 206.611H27.4449C22.6166 206.611 18.6778 202.657 18.6778 197.811V37.1135H164.415Z" fill="#BBF1E6"/>
<path d="M156.156 29.0147C156.156 30.6727 154.822 32.0118 153.107 32.0118C151.391 32.0118 150.121 30.6727 150.121 29.0147C150.121 27.3567 151.455 26.0176 153.107 26.0176C154.759 26.0176 156.156 27.3567 156.156 29.0147Z" fill="white"/>
<path d="M146.69 29.0147C146.69 30.6727 145.356 32.0118 143.641 32.0118C141.926 32.0118 140.655 30.6727 140.655 29.0147C140.655 27.3567 141.989 26.0176 143.641 26.0176C145.293 26.0176 146.69 27.3567 146.69 29.0147Z" fill="white"/>
<path d="M137.224 29.0147C137.224 30.6727 135.89 32.0118 134.175 32.0118C132.46 32.0118 131.189 30.6727 131.189 29.0147C131.189 27.3567 132.523 26.0176 134.175 26.0176C135.827 26.0176 137.224 27.3567 137.224 29.0147Z" fill="white"/>
<path d="M156.156 46.8701H28.3978V119.503H156.156V46.8701Z" fill="white"/>
<path d="M28.3978 134.106H156.156V130.917H28.3978" fill="white"/>
<path d="M28.3978 144.5H156.156V141.312H28.3978" fill="white"/>
<path d="M131.189 154.958H156.156V151.77H131.189" fill="white"/>
<path d="M28.3978 154.958H123.375V151.77H28.3978" fill="white"/>
<path d="M28.3978 165.352H156.156V162.164H28.3978" fill="white"/>
<path d="M97.5817 175.811H156.156V172.622H97.5817V175.811Z" fill="white"/>
<path d="M28.3978 175.811H83.7958V172.622H28.3978" fill="white"/>
<path d="M28.3978 186.269H70.6451V183.08H28.3978" fill="white"/>
<path d="M325.4 259.348H65.6263C62.6404 259.348 60.2262 256.925 60.2262 253.928V246.785H330.736V253.928C330.8 256.925 328.385 259.348 325.4 259.348Z" fill="#47446F"/>
<path d="M302.084 114.401H88.9417C86.2099 114.401 83.9864 116.633 83.9864 119.375V241.301H306.976V119.311C306.976 116.569 304.816 114.401 302.084 114.401Z" fill="#0084AA"/>
<path d="M299.162 121.097H91.8641V234.542H299.162V121.097Z" fill="#001F3D"/>
<path d="M330.736 241.301H60.2262V246.849H330.736V241.301Z" fill="#00CDCF"/>
<path d="M167.337 173.068L139.194 186.779C134.556 189.011 129.029 187.353 126.361 182.953C123.438 178.042 125.217 171.729 130.236 169.051L159.333 153.619L167.337 173.068Z" fill="#FFD4B4"/>
<path d="M101.965 107.833L113.21 179.445C113.782 183.08 115.751 186.332 118.737 188.501C122.803 191.434 128.14 191.944 132.714 189.776L139.194 186.715L112.003 106.494L101.965 107.833Z" fill="#FFD4B4"/>
<path d="M136.907 164.268C136.907 164.268 136.843 177.532 137.606 180.912L118.991 192.199L138.495 196.599L150.502 179.063L138.813 163.631L136.907 164.268Z" fill="#F2A7A2"/>
<path d="M166.766 145.967L137.606 164.396C137.923 167.521 138.813 171.793 140.909 176.512C144.657 184.611 149.803 185.95 152.916 188.246C165.368 183.59 177.629 176.257 190.081 171.602L166.766 145.967Z" fill="#FF3C57"/>
<path d="M105.777 94.5691C105.777 94.5691 102.156 83.5371 98.5982 83.0907C95.2311 82.7081 98.5347 92.0821 98.5347 92.0821L105.777 94.5691Z" fill="#F2A7A2"/>
<path d="M89.5135 90.6153C89.3229 89.9776 80.5558 82.3891 76.9981 81.7514C74.8381 81.3688 75.4734 84.3659 77.2522 86.1514C79.1581 88.0007 89.5135 90.6153 89.5135 90.6153Z" fill="#F2A7A2"/>
<path d="M101.965 107.833C101.965 107.833 98.1535 103.624 89.0688 98.3953C79.9205 93.1662 68.1675 85.9603 71.4075 82.6444C73.3769 80.54 81.6358 87.8734 89.0052 89.0212C96.3747 90.1691 99.8688 90.743 103.426 92.7198C108.636 95.5894 112.003 106.558 112.003 106.558L101.965 107.833Z" fill="#FFD4B4"/>
<path d="M160.286 170.071L143.958 181.358C147.135 185.248 150.629 186.46 152.98 188.182C155.521 187.225 158.062 186.141 160.603 185.057C160.476 180.083 160.286 174.918 160.286 170.071Z" fill="#DE2035"/>
<path d="M266.571 52.1628L281.437 88.1922C281.945 89.4038 283.279 89.9139 284.486 89.4675L334.675 68.6151C335.882 68.105 336.39 66.7658 335.946 65.5542L321.08 29.5249C320.571 28.3132 319.237 27.8031 318.03 28.2495L267.842 49.1019C266.698 49.612 266.126 50.9512 266.571 52.1628Z" fill="#47446F"/>
<path d="M270.192 53.5019L284.804 89.0211C285.249 90.1052 285.122 87.4269 286.202 86.9805L331.625 68.1687C332.07 67.9774 332.705 68.2325 333.214 68.5513C333.849 68.8702 334.294 69.2528 334.04 68.6789L319.428 33.1597C318.983 32.0756 317.776 31.5654 316.696 32.0118L271.272 50.8236C270.256 51.1425 269.748 52.4178 270.192 53.5019Z" fill="white"/>
<path d="M270.383 61.2817L285.249 97.3111C285.757 98.5227 287.091 99.0328 288.298 98.5864L338.487 77.734C339.694 77.2239 340.202 75.8847 339.757 74.6731L324.891 38.6438C324.383 37.4321 323.049 36.922 321.842 37.3684L271.653 58.2208C270.446 58.7947 269.875 60.1338 270.383 61.2817Z" fill="#0084AA"/>
<path d="M271.653 57.073L272.098 58.0933L271.653 57.073ZM320.698 35.9656L321.334 37.6236L320.698 35.9656Z" fill="#99A0B9"/>
<path d="M320.698 35.9656L271.399 56.4354L271.653 57.073L272.098 58.0933L321.334 37.6236L320.698 35.9656Z" fill="#E2EBF2"/>
<path d="M321.397 37.6235H321.334L272.098 58.0933L321.397 37.6235Z" fill="#7CBAD0"/>
<path d="M270.065 53.1832L270.383 54.0122L270.192 53.502C270.129 53.3745 270.129 53.2469 270.065 53.1832ZM319.364 32.7134C319.364 32.8409 319.428 32.9047 319.491 33.0322L320.063 34.3714L319.364 32.7134Z" fill="#99A0B9"/>
<path d="M319.301 32.7134L270.065 53.1194C270.065 53.2469 270.129 53.3107 270.192 53.4382L270.383 53.9484L270.7 54.7774L320 34.3076L319.428 32.9685C319.428 32.9047 319.364 32.8409 319.301 32.7134Z" fill="#E2EBF2"/>
<path d="M318.539 45.0199L302.218 51.7937L314.453 81.4938L330.774 74.72L318.539 45.0199Z" fill="white"/>
<path d="M227.183 173.068L255.326 186.779C259.964 189.011 265.491 187.353 268.159 182.953C271.082 178.042 269.303 171.729 264.284 169.051L235.187 153.619L227.183 173.068Z" fill="#FFD4B4"/>
<path d="M292.618 107.833L281.373 179.445C280.802 183.08 278.832 186.332 275.846 188.501C271.78 191.434 266.444 191.944 261.87 189.776L255.39 186.715L282.58 106.494L292.618 107.833Z" fill="#FFD4B4"/>
<path d="M257.613 164.268C257.613 164.268 257.677 177.532 256.914 180.912L275.529 192.199L256.025 196.599L244.018 179.063L255.707 163.631L257.613 164.268Z" fill="#F2A7A2"/>
<path d="M227.818 145.967L256.978 164.396C256.66 167.521 255.771 171.793 253.674 176.512C249.926 184.611 244.78 185.95 241.667 188.246C229.215 183.59 216.954 176.257 204.502 171.602L227.818 145.967Z" fill="#FF3C57"/>
<path d="M292.618 107.833C292.618 107.833 296.43 103.624 305.578 98.3953C314.727 93.1662 326.48 85.9603 323.24 82.6444C321.27 80.54 313.011 87.8734 305.642 89.0212C298.272 90.1691 294.778 90.743 291.221 92.7198C286.011 95.5894 282.644 106.558 282.644 106.558L292.618 107.833Z" fill="#FFD4B4"/>
<path d="M231.757 168.35C232.837 173.961 233.726 178.106 234.107 185.121C236.585 186.205 239.126 187.289 241.604 188.245C243.954 186.524 247.449 185.312 250.625 181.422L231.757 168.35Z" fill="#DE2035"/>
<path d="M234.298 190.732C234.044 172.558 231.248 171.729 228.771 147.433C228.263 142.141 203.232 145.138 203.232 145.138H197.768H197.451H197.133C197.133 145.138 193.067 145.202 191.669 145.138C180.679 144.628 171.594 143.926 166.766 145.967C157.744 149.793 160.857 172.558 160.603 190.732C160.476 198.257 160.095 264.194 157.554 267H191.669H197.133H197.451H197.768H203.232H237.347C234.806 264.13 234.425 198.257 234.298 190.732Z" fill="#FF3C57"/>
<path d="M202.978 136.019C203.295 139.781 203.931 143.097 204.693 145.775C203.74 146.477 201.135 148.071 197.451 148.135C193.448 148.199 190.653 146.413 189.7 145.775C190.843 142.906 192.241 138.506 192.495 133.022C192.559 131.619 192.559 130.28 192.432 129.068C192.114 123.775 190.716 119.566 189.7 117.016H204.693C204.629 117.334 204.502 117.653 204.439 117.972C203.422 121.926 202.596 127.282 202.851 133.532C202.851 134.361 202.914 135.19 202.978 136.019Z" fill="#FFD4B4"/>
<path d="M202.851 133.468C202.914 134.297 202.914 135.19 202.978 135.955C198.34 134.361 194.909 131.81 192.432 129.004C192.114 123.711 190.716 119.503 189.7 116.952H203.105C203.486 117.207 203.931 117.526 204.439 117.908C203.486 121.862 202.596 127.219 202.851 133.468Z" fill="#F2A7A2"/>
<path d="M220.766 94.0589C220.702 97.885 220.067 101.01 223.053 101.073C226.039 101.137 231.503 98.1401 231.63 94.3139C231.693 90.4878 229.343 87.2994 226.357 87.2356C223.371 87.1718 220.83 90.2327 220.766 94.0589Z" fill="#FFD4B4"/>
<path d="M227.246 88.6385C226.801 108.853 211.681 128.813 197.959 128.558C186.65 128.303 169.942 107.705 170.323 87.4907C170.768 67.276 183.728 55.0323 199.483 55.415C215.239 55.7976 227.691 68.4238 227.246 88.6385Z" fill="#FFD4B4"/>
<path d="M173.373 93.1023C173.309 96.9284 173.818 100.053 170.832 99.9893C167.846 99.9255 162.509 96.6733 162.573 92.8472C162.636 89.0211 165.114 85.9602 168.163 86.0239C171.149 86.0877 173.5 89.2124 173.373 93.1023Z" fill="#FFD4B4"/>
<path d="M198.658 93.2937C198.658 93.3575 198.276 94.314 198.276 95.5257C198.276 96.1633 198.404 96.9286 198.848 97.63C199.039 97.8851 199.42 98.0126 199.738 97.9489C199.801 97.9489 200.373 97.8213 201.072 97.8213C201.58 97.8213 202.152 97.8851 202.533 98.0764C202.724 98.1402 202.851 98.2677 202.978 98.459C203.105 98.5866 203.232 98.7779 203.295 99.0329C203.359 99.288 203.359 99.4793 203.359 99.7344C203.359 100.627 202.978 101.456 202.279 102.158C201.644 102.859 200.754 103.305 199.928 103.369C199.484 103.433 199.166 103.816 199.166 104.326C199.229 104.772 199.611 105.091 200.119 105.091C201.389 104.963 202.596 104.326 203.486 103.369C204.375 102.413 205.011 101.201 205.011 99.7982C205.011 99.4155 204.947 99.0967 204.884 98.7141C204.756 98.2039 204.566 97.7576 204.248 97.4387C203.804 96.9286 203.232 96.6097 202.66 96.4184C202.088 96.2271 201.516 96.2271 201.072 96.2271C200.119 96.2271 199.42 96.4184 199.356 96.4184L199.547 97.2474L200.246 96.7373C200.055 96.4822 199.928 96.0358 199.928 95.5894C199.928 95.2068 199.992 94.7604 200.055 94.4416C200.119 94.314 200.119 94.1865 200.182 94.059V93.9952C200.373 93.5488 200.119 93.1024 199.674 92.9111C199.293 92.656 198.785 92.8474 198.658 93.2937Z" fill="#172327"/>
<path d="M181.505 85.3227C181.505 85.3227 185.189 78.5632 191.669 82.3255L181.505 85.3227Z" fill="#172327"/>
<path d="M216.319 85.3227C216.319 85.3227 212.634 78.5632 206.154 82.3255L216.319 85.3227Z" fill="#172327"/>
<path d="M215.938 91.827C215.938 89.4676 214.032 87.4907 211.618 87.4907C209.267 87.4907 207.298 89.4038 207.298 91.827C207.298 92.2734 207.679 92.656 208.124 92.656C208.568 92.656 208.949 92.2734 208.949 91.827C208.949 91.1255 209.267 90.4241 209.712 89.9777C210.22 89.4676 210.855 89.2125 211.554 89.2125C212.253 89.2125 212.952 89.5313 213.397 89.9777C213.905 90.4879 214.159 91.1255 214.159 91.827C214.159 92.2734 214.54 92.656 214.985 92.656C215.557 92.656 215.938 92.3371 215.938 91.827Z" fill="#172327"/>
<path d="M192.495 91.827C192.495 89.4676 190.589 87.4907 188.175 87.4907C185.825 87.4907 183.855 89.4038 183.855 91.827C183.855 92.2734 184.236 92.656 184.681 92.656C185.126 92.656 185.507 92.2734 185.507 91.827C185.507 91.1255 185.825 90.4241 186.269 89.9777C186.778 89.4676 187.413 89.2125 188.112 89.2125C188.811 89.2125 189.509 89.5313 189.954 89.9777C190.462 90.4879 190.716 91.1255 190.716 91.827C190.716 92.2734 191.098 92.656 191.542 92.656C192.114 92.656 192.495 92.3371 192.495 91.827Z" fill="#172327"/>
<path d="M202.851 112.105C202.851 114.784 201.136 116.952 199.103 116.952C197.07 116.952 195.355 114.784 195.355 112.105C195.355 109.427 197.07 109.172 199.103 109.172C201.136 109.172 202.851 109.363 202.851 112.105Z" fill="#FF3C57"/>
<path d="M202.786 111.468C202.532 109.363 200.944 109.172 199.038 109.172C197.132 109.172 195.544 109.363 195.29 111.468C196.37 111.787 197.641 111.978 199.038 111.978C200.436 111.914 201.706 111.723 202.786 111.468Z" fill="white"/>
<path d="M170.387 87.427C170.832 89.9778 172.229 96.0996 172.992 99.2243C173.246 100.372 174.135 101.329 175.279 101.647L177.566 102.285C178.201 102.476 178.836 101.839 178.646 101.201C177.756 98.0764 175.977 90.3604 176.613 81.2414C176.613 81.2414 184.745 79.0733 184.745 69.1254C184.745 69.1254 197.832 78.3718 208.187 79.0095C218.542 79.6472 222.291 78.2443 222.291 78.2443C222.291 78.2443 223.117 90.5517 221.782 99.0967C221.655 99.7982 222.418 100.245 222.99 99.9257L224.959 98.7141C225.721 98.2677 226.166 97.5025 226.293 96.6097C226.611 94.1865 227.182 89.2125 227.373 87.2357C227.691 83.4096 227.945 77.9255 225.404 71.9312C222.926 66.0007 215.874 54.0759 198.848 54.0759C181.759 54.0759 167.274 68.3601 170.387 87.427Z" fill="#001F3D"/>
<path d="M225.658 76.3311C225.658 76.3311 229.66 75.6934 231.63 70.273C233.599 64.8527 226.166 47.5076 204.185 47.5076C180.234 47.5076 180.298 57.5193 180.298 57.5193C180.298 57.5193 170.895 61.0903 167.973 65.6817C165.05 70.273 164.606 80.0297 171.912 81.2413L186.587 65.6817L210.22 68.1687L225.658 76.3311Z" fill="#001F3D"/>
<path d="M205.201 148.262C205.201 148.262 202.596 151.323 197.514 151.323C192.432 151.323 188.747 148.262 188.747 148.262C188.747 148.262 191.479 154.002 197.514 154.002C203.549 154.002 205.201 148.262 205.201 148.262Z" fill="#DE2035"/>
<path d="M160.667 159.103C160.413 161.973 160.286 165.161 160.286 168.477C160.286 174.79 160.603 181.741 160.603 188.245C160.603 189.074 160.603 189.903 160.603 190.732C160.54 194.75 160.413 215.666 159.904 234.542H176.994C176.041 231.544 175.088 228.42 174.135 225.295C166.956 200.935 162.89 178.489 160.667 159.103Z" fill="#DE2035"/>
<path d="M177.566 194.24C177.566 194.24 180.996 219.62 215.366 220.576C215.302 220.576 201.072 214.072 177.566 194.24Z" fill="#DE2035"/>
<path d="M297.764 58.157L306.849 80.1573L308.564 79.4558L299.543 57.4556" fill="#00CDCF"/>
<path d="M127.949 49.357H48.0285C46.6309 49.357 45.5509 48.2092 45.5509 46.87C45.5509 45.5309 46.6944 44.3831 48.0285 44.3831H128.013C129.41 44.3831 130.49 45.5309 130.49 46.87C130.49 48.2092 129.347 49.357 127.949 49.357Z" fill="#001F3D"/>
<path d="M114.735 69.9545C107.365 71.3574 98.2171 72.5052 87.7346 72.4414C77.4428 72.4414 68.4851 71.2936 61.1792 69.9545C60.6074 67.9138 60.0356 61.4094 60.0356 57.9659C60.0356 54.4586 60.6074 51.5253 61.1792 49.4209C79.0311 49.4209 96.8829 49.4209 114.671 49.4209C115.18 51.6528 115.624 54.5862 115.624 57.9659C115.688 61.2819 115.243 67.7225 114.735 69.9545Z" fill="#001F3D"/>
<path d="M91.9276 44.383C91.9276 45.2758 90.0852 45.9773 87.8617 45.9773C85.6381 45.9773 83.7958 45.2758 83.7958 44.383C83.7958 43.4903 85.6381 42.7888 87.8617 42.7888C90.0852 42.7888 91.9276 43.4903 91.9276 44.383Z" fill="#001F3D"/>
<path d="M125.281 49.3569H123.375V74.4181H125.281V49.3569Z" fill="#FFC793"/>
<path d="M124.328 77.6066C125.38 77.6066 126.234 76.7501 126.234 75.6936C126.234 74.637 125.38 73.7805 124.328 73.7805C123.275 73.7805 122.422 74.637 122.422 75.6936C122.422 76.7501 123.275 77.6066 124.328 77.6066Z" fill="#F79D95"/>
<path d="M124.328 75.6936C121.66 75.6936 119.563 79.7748 119.563 82.4531C119.563 84.1111 120.452 84.8125 121.723 85.1314C121.66 84.3662 121.596 83.027 121.787 82.198L122.549 85.2589C123.121 85.3227 123.692 85.3227 124.328 85.3227C126.996 85.3227 129.093 85.1314 129.093 82.4531C129.093 79.7748 126.996 75.6936 124.328 75.6936Z" fill="#FFC793"/>
<path d="M151.519 227.846H299.162V225.933H151.519" fill="white"/>
<path d="M91.8641 227.846H151.519V225.933H91.8641" fill="#FF3C57"/>
<path d="M153.615 226.889C153.615 228.292 152.471 229.44 151.074 229.44C149.676 229.44 148.533 228.292 148.533 226.889C148.533 225.486 149.676 224.339 151.074 224.339C152.471 224.402 153.615 225.55 153.615 226.889Z" fill="#FF3C57"/>
<path d="M376.35 224.466H341.218C338.36 224.466 336.009 226.826 336.009 229.695V235.435C336.009 248.061 346.174 258.264 358.753 258.264C371.332 258.264 381.496 248.061 381.496 235.435V229.695C381.496 226.762 379.209 224.466 376.35 224.466Z" fill="#0084AA"/>
<path d="M381.496 231.353L378.574 231.736L381.496 235.626V231.353Z" fill="#005E88"/>
<path d="M381.496 241.492C376.859 241.492 373.174 238.75 373.174 235.307C373.174 231.863 376.795 229.121 381.496 229.121C386.198 229.121 389.819 231.863 389.819 235.307C389.819 238.75 386.198 241.492 381.496 241.492ZM381.496 232.055C378.701 232.055 376.223 233.521 376.223 235.243C376.223 236.965 378.701 238.432 381.496 238.432C384.292 238.432 386.769 236.965 386.769 235.243C386.769 233.521 384.355 232.055 381.496 232.055Z" fill="#0084AA"/>
<path d="M350.939 224.466H349.795H341.218C338.36 224.466 336.009 226.826 336.009 229.695V235.435C336.009 248.061 346.174 258.264 358.753 258.264H358.816C360.468 258.264 362.056 258.072 363.581 257.754C353.353 255.522 345.666 246.403 345.666 235.435V229.695C345.729 226.762 348.08 224.466 350.939 224.466Z" fill="#005E88"/>
<path d="M401 258.264H0V264.768H401V258.264Z" fill="#001F3D"/>
<path d="M9.6192 184.759L2.57458 190.816L34.1891 227.866L41.2337 221.81L9.6192 184.759Z" fill="#0084AA"/>
<path d="M43.645 231.8L41.1038 221.724L34.1155 227.782L43.645 231.8Z" fill="#001F3D"/>
<path d="M1.58825 182.57C3.55767 180.912 6.48004 181.103 8.13181 183.08L9.593 184.802L2.54119 190.86L1.08001 189.138C-0.571766 187.161 -0.317647 184.228 1.58825 182.57Z" fill="#001F3D"/>
<path d="M369.235 149.665L371.141 154.767C371.268 155.086 371.522 155.277 371.776 155.405L376.859 157.318C377.812 157.7 377.812 159.039 376.859 159.422L371.776 161.335C371.459 161.463 371.268 161.718 371.141 161.973L369.235 167.074C368.854 168.031 367.52 168.031 367.139 167.074L365.233 161.973C365.106 161.654 364.852 161.463 364.597 161.335L359.515 159.422C358.562 159.039 358.562 157.7 359.515 157.318L364.597 155.405C364.915 155.277 365.106 155.022 365.233 154.767L367.139 149.665C367.52 148.709 368.917 148.709 369.235 149.665Z" fill="#FF3C57"/>
<path d="M344.395 123.265L345.475 126.071C345.538 126.262 345.666 126.39 345.856 126.454L348.651 127.538C349.16 127.729 349.16 128.494 348.651 128.686L345.856 129.77C345.666 129.833 345.538 129.961 345.475 130.152L344.395 132.958C344.204 133.468 343.442 133.468 343.251 132.958L342.171 130.152C342.108 129.961 341.981 129.833 341.79 129.77L338.995 128.686C338.487 128.494 338.487 127.729 338.995 127.538L341.79 126.454C341.981 126.39 342.108 126.262 342.171 126.071L343.251 123.265C343.442 122.755 344.204 122.755 344.395 123.265Z" fill="#00CDCF"/>
</g>
<defs>
<clipPath id="clip0">
<rect width="401" height="267" fill="white"/>
</clipPath>
</defs>
</svg>
