<svg width="379" height="296" viewBox="0 0 379 296" fill="none" xmlns="http://www.w3.org/2000/svg">
<g clip-path="url(#clip0)">
<path d="M21.6 47.8H2.70001L16.3 25.6L2.70001 3.5H21.6L35.2 25.6L21.6 47.8Z" fill="#FF7042"/>
<path d="M50.5 47.8H31.6L45.2 25.6L31.6 3.5H50.5L64.1 25.6L50.5 47.8Z" fill="#FF7042"/>
<path d="M79.4 47.8H60.6L74.1 25.6L60.6 3.5H79.4L93 25.6L79.4 47.8Z" fill="#FF7042"/>
<path d="M368.3 295.6C375.1 276.1 378.8 255.1 378.8 233.3C378.8 128.7 294 43.8999 189.4 43.8999C84.8 43.8999 0 128.7 0 233.3C0 255.1 3.7 276.1 10.5 295.6H368.3Z" fill="#FF7042"/>
<path d="M265.7 221.8H111.9C108.4 221.8 105.5 218.9 105.5 215.4V112.4C105.5 108.9 108.4 106 111.9 106H265.7C269.2 106 272.1 108.9 272.1 112.4V215.4C272.1 219 269.2 221.8 265.7 221.8Z" fill="white"/>
<path d="M263.927 213.647V114.247L113.727 114.247L113.727 213.647L263.927 213.647Z" fill="#FF5000"/>
<path d="M105.5 200.1V215.5C105.5 219 108.4 221.9 111.9 221.9H265.7C269.2 221.9 272.1 219 272.1 215.5V200.1H105.5Z" fill="url(#paint0_linear)"/>
<path d="M210.7 244.9L208.4 221.8H167.2L164.9 244.9H210.7Z" fill="#19244D"/>
<path fill-rule="evenodd" clip-rule="evenodd" d="M260 0L259.1 14.7L257.1 44.7L248.9 199.9L129.6 200.3L128.1 15.1L127.3 0.1L250 0.2L260 0Z" fill="url(#paint1_linear)"/>
<path opacity="0.2" fill-rule="evenodd" clip-rule="evenodd" d="M157.8 5.70005L159 16.7L227.6 15.9L228.8 5.30005L157.8 5.70005Z" fill="#3117D6"/>
<path d="M147 20.8999H142.3V25.5999H147V20.8999Z" fill="#FF3B60"/>
<path d="M147 47.2H142.3V51.9H147V47.2Z" fill="#FF3B60"/>
<path d="M147 72.7H142.3V77.4H147V72.7Z" fill="#FF3B60"/>
<path d="M147 98.7998H142.3V103.5H147V98.7998Z" fill="#FF3B60"/>
<path d="M155.5 41.0998C153.6 41.0998 152.1 39.5998 152.1 37.6998C152.1 35.7998 153.6 34.2998 155.5 34.2998C157.4 34.2998 158.9 35.7998 158.9 37.6998C158.9 39.5998 157.4 41.0998 155.5 41.0998ZM155.5 35.0998C154 35.0998 152.9 36.2998 152.9 37.6998C152.9 39.1998 154.1 40.2998 155.5 40.2998C157 40.2998 158.1 39.0998 158.1 37.6998C158.1 36.2998 157 35.0998 155.5 35.0998Z" fill="#FF3B60"/>
<path d="M155.5 67C153.6 67 152.1 65.4999 152.1 63.5999C152.1 61.6999 153.6 60.2 155.5 60.2C157.4 60.2 158.9 61.6999 158.9 63.5999C158.9 65.4999 157.4 67 155.5 67ZM155.5 61C154 61 152.9 62.1999 152.9 63.5999C152.9 65.0999 154.1 66.1999 155.5 66.1999C157 66.1999 158.1 64.9999 158.1 63.5999C158.1 62.1999 157 61 155.5 61Z" fill="#FF3B60"/>
<path d="M155.5 95.1999C153.6 95.1999 152.1 93.6999 152.1 91.7999C152.1 89.8999 153.6 88.3999 155.5 88.3999C157.4 88.3999 158.9 89.8999 158.9 91.7999C158.9 93.6999 157.4 95.1999 155.5 95.1999ZM155.5 89.1999C154 89.1999 152.9 90.3999 152.9 91.7999C152.9 93.2999 154.1 94.3999 155.5 94.3999C157 94.3999 158.1 93.1999 158.1 91.7999C158.1 90.3999 157 89.1999 155.5 89.1999Z" fill="#FF3B60"/>
<path d="M215.5 41.0998C213.6 41.0998 212.1 39.5998 212.1 37.6998C212.1 35.7998 213.6 34.2998 215.5 34.2998C217.4 34.2998 218.9 35.7998 218.9 37.6998C218.8 39.5998 217.3 41.0998 215.5 41.0998ZM215.5 35.0998C214 35.0998 212.9 36.2998 212.9 37.6998C212.9 39.1998 214.1 40.2998 215.5 40.2998C217 40.2998 218.1 39.0998 218.1 37.6998C218.1 36.2998 216.9 35.0998 215.5 35.0998Z" fill="#FF3B60"/>
<path d="M215.5 67C213.6 67 212.1 65.4999 212.1 63.5999C212.1 61.6999 213.6 60.2 215.5 60.2C217.4 60.2 218.9 61.6999 218.9 63.5999C218.8 65.4999 217.3 67 215.5 67ZM215.5 61C214 61 212.9 62.1999 212.9 63.5999C212.9 65.0999 214.1 66.1999 215.5 66.1999C217 66.1999 218.1 64.9999 218.1 63.5999C218.1 62.1999 216.9 61 215.5 61Z" fill="#FF3B60"/>
<path d="M215.5 95.1999C213.6 95.1999 212.1 93.6999 212.1 91.7999C212.1 89.8999 213.6 88.3999 215.5 88.3999C217.4 88.3999 218.9 89.8999 218.9 91.7999C218.9 93.6999 217.3 95.1999 215.5 95.1999ZM215.5 89.1999C214 89.1999 212.9 90.3999 212.9 91.7999C212.9 93.2999 214.1 94.3999 215.5 94.3999C217 94.3999 218.1 93.1999 218.1 91.7999C218.1 90.3999 216.9 89.1999 215.5 89.1999Z" fill="#FF3B60"/>
<g opacity="0.2">
<path opacity="0.2" d="M244.4 47.2H219.3V50.2999H244.4V47.2Z" fill="#6A1760"/>
<path opacity="0.2" d="M217.8 47.2H206.3V50.2999H217.8V47.2Z" fill="#6A1760"/>
<g opacity="0.2">
<path opacity="0.2" d="M204.1 20.8999H148.7V23.9999H204.1V20.8999Z" fill="#6A1760"/>
<path opacity="0.2" d="M171.3 26.2H148.7V29.2999H171.3V26.2Z" fill="#6A1760"/>
<path opacity="0.2" d="M234.2 20.8999H219.3V23.9999H234.2V20.8999Z" fill="#6A1760"/>
<path opacity="0.2" d="M208.7 26.2H173.7V29.2999H208.7V26.2Z" fill="#6A1760"/>
<path opacity="0.2" d="M211 20.8999H206.3V23.9999H211V20.8999Z" fill="#6A1760"/>
<path opacity="0.2" d="M217.8 20.8999H213.1V23.9999H217.8V20.8999Z" fill="#6A1760"/>
<path opacity="0.2" d="M204.1 47.2H148.7V50.2999H204.1V47.2Z" fill="#6A1760"/>
<path opacity="0.2" d="M171.3 52.3999H148.7V55.4999H171.3V52.3999Z" fill="#6A1760"/>
<path opacity="0.2" d="M217.9 52.3999H173.7V55.4999H217.9V52.3999Z" fill="#6A1760"/>
<path opacity="0.2" d="M244.4 98.7998H219.3V101.9H244.4V98.7998Z" fill="#6A1760"/>
<path opacity="0.2" d="M217.8 98.7998H206.3V101.9H217.8V98.7998Z" fill="#6A1760"/>
<path opacity="0.2" d="M204.1 98.7998H148.7V101.9H204.1V98.7998Z" fill="#6A1760"/>
<path opacity="0.2" d="M171.3 104H148.7V107.1H171.3V104Z" fill="#6A1760"/>
<path opacity="0.2" d="M217.9 104H173.7V107.1H217.9V104Z" fill="#6A1760"/>
<path opacity="0.2" d="M244.4 72.7H219.3V75.8H244.4V72.7Z" fill="#6A1760"/>
<path opacity="0.2" d="M217.8 72.7H206.3V75.8H217.8V72.7Z" fill="#6A1760"/>
<path opacity="0.2" d="M204.1 72.7H148.7V75.8H204.1V72.7Z" fill="#6A1760"/>
<path opacity="0.2" d="M171.3 77.8999H148.7V80.9999H171.3V77.8999Z" fill="#6A1760"/>
<path opacity="0.2" d="M217.9 77.8999H173.7V80.9999H217.9V77.8999Z" fill="#6A1760"/>
<path opacity="0.2" d="M182.2 36.3999H161V38.6999H182.2V36.3999Z" fill="#6A1760"/>
<path opacity="0.2" d="M242.4 90.7H221.2V93H242.4V90.7Z" fill="#6A1760"/>
<path opacity="0.2" d="M182.2 62.5H161V64.8H182.2V62.5Z" fill="#6A1760"/>
<path opacity="0.2" d="M182.2 89.7H161V92H182.2V89.7Z" fill="#6A1760"/>
<path opacity="0.2" d="M169.1 93.7H161V96H169.1V93.7Z" fill="#6A1760"/>
<path opacity="0.2" d="M242.4 62.5H221.2V64.8H242.4V62.5Z" fill="#6A1760"/>
<path opacity="0.2" d="M242.4 34.5999H221.2V36.8999H242.4V34.5999Z" fill="#6A1760"/>
<path opacity="0.2" d="M234.2 38.2H221.2V40.5H234.2V38.2Z" fill="#6A1760"/>
</g>
</g>
<path d="M148 39.5H146.2L145.8 40.6H144.8L147.2 35H147.3L149.7 40.6H148.5L148 39.5ZM147.7 38.6L147.2 37.3L146.7 38.6H147.7Z" fill="#967EA5"/>
<path d="M209.9 38.1999C210.1 38.3999 210.1 38.6999 210.1 38.8999C210.1 39.3999 209.9 39.7999 209.6 40.0999C209.2 40.3999 208.8 40.4999 208.3 40.4999H206.5V35.0999H208.1C208.7 35.0999 209.1 35.1999 209.4 35.3999C209.7 35.5999 209.9 35.9999 209.9 36.3999C209.9 36.6999 209.8 36.8999 209.7 37.0999C209.6 37.2999 209.4 37.4999 209.2 37.5999C209.5 37.7999 209.7 37.9999 209.9 38.1999ZM207.5 37.2999H208.1C208.3 37.2999 208.4 37.1999 208.6 37.0999C208.7 36.9999 208.8 36.7999 208.8 36.6999C208.8 36.4999 208.7 36.3999 208.6 36.2999C208.5 36.1999 208.3 36.1999 208.1 36.1999H207.5V37.2999ZM208.8 39.3999C209 39.2999 209 39.0999 209 38.8999C209 38.4999 208.7 38.2999 208.1 38.2999H207.5V39.4999H208.2C208.4 39.4999 208.6 39.4999 208.8 39.3999Z" fill="#967EA5"/>
<path d="M148 65.5999H146.2L145.8 66.6999H144.8L147.2 61.0999H147.3L149.7 66.6999H148.5L148 65.5999ZM147.7 64.6999L147.2 63.3999L146.7 64.6999H147.7Z" fill="#967EA5"/>
<path d="M209.9 64.3C210.1 64.5 210.1 64.8 210.1 65C210.1 65.5 209.9 65.8999 209.6 66.1999C209.2 66.4999 208.8 66.5999 208.3 66.5999H206.5V61.2H208.1C208.7 61.2 209.1 61.3 209.4 61.5C209.7 61.7 209.9 62.1 209.9 62.5C209.9 62.8 209.8 63 209.7 63.2C209.6 63.4 209.4 63.6 209.2 63.7C209.5 63.9 209.7 64.1 209.9 64.3ZM207.5 63.4H208.1C208.3 63.4 208.4 63.3 208.6 63.2C208.7 63.1 208.8 62.8999 208.8 62.7999C208.8 62.5999 208.7 62.5 208.6 62.4C208.5 62.3 208.3 62.2999 208.1 62.2999H207.5V63.4ZM208.8 65.5C209 65.4 209 65.2 209 65C209 64.6 208.7 64.4 208.1 64.4H207.5V65.5999H208.2C208.4 65.5999 208.6 65.6 208.8 65.5Z" fill="#967EA5"/>
<path d="M148 93.5H146.2L145.8 94.6H144.8L147.2 89H147.3L149.7 94.6H148.5L148 93.5ZM147.7 92.6L147.2 91.3L146.7 92.6H147.7Z" fill="#967EA5"/>
<path d="M209.9 92.3C210.1 92.5 210.1 92.8 210.1 93C210.1 93.5 209.9 93.9 209.6 94.2C209.2 94.5 208.8 94.6 208.3 94.6H206.5V89.2H208.1C208.7 89.2 209.1 89.3 209.4 89.5C209.7 89.7 209.9 90.1 209.9 90.5C209.9 90.8 209.8 91 209.7 91.2C209.6 91.4 209.4 91.6 209.2 91.7C209.5 91.9 209.7 92.1 209.9 92.3ZM207.5 91.4H208.1C208.3 91.4 208.4 91.3 208.6 91.2C208.7 91.1 208.8 90.9 208.8 90.8C208.8 90.6 208.7 90.5 208.6 90.4C208.5 90.3 208.3 90.3 208.1 90.3H207.5V91.4ZM208.8 93.5C209 93.4 209 93.2 209 93C209 92.6 208.7 92.4 208.1 92.4H207.5V93.6H208.2C208.4 93.6 208.6 93.6 208.8 93.5Z" fill="#967EA5"/>
<path fill-rule="evenodd" clip-rule="evenodd" d="M157 37.7C157 38.5 156.3 39.2 155.5 39.2C154.7 39.2 154 38.5 154 37.7C154 36.9 154.7 36.2 155.5 36.2C156.3 36.2 157 36.9 157 37.7Z" fill="#967EA5"/>
<path fill-rule="evenodd" clip-rule="evenodd" d="M217 63.5999C217 64.3999 216.3 65.0999 215.5 65.0999C214.7 65.0999 214 64.3999 214 63.5999C214 62.7999 214.7 62.0999 215.5 62.0999C216.3 62.0999 217 62.7999 217 63.5999Z" fill="#967EA5"/>
<path fill-rule="evenodd" clip-rule="evenodd" d="M217 92C217 92.8 216.3 93.5 215.5 93.5C214.7 93.5 214 92.8 214 92C214 91.2 214.7 90.5 215.5 90.5C216.3 90.5 217 91.2 217 92Z" fill="#967EA5"/>
<path d="M147 116.2H142.3V120.9H147V116.2Z" fill="#FF3B60"/>
<path d="M147 142.4H142.3V147.1H147V142.4Z" fill="#FF3B60"/>
<path d="M147 167.9H142.3V172.6H147V167.9Z" fill="#FF3B60"/>
<path d="M147 194H142.3V198.7H147V194Z" fill="#FF3B60"/>
<path d="M155.5 136.3C153.6 136.3 152.1 134.8 152.1 132.9C152.1 131 153.6 129.5 155.5 129.5C157.4 129.5 158.9 131 158.9 132.9C158.9 134.8 157.4 136.3 155.5 136.3ZM155.5 130.3C154 130.3 152.9 131.5 152.9 132.9C152.9 134.4 154.1 135.5 155.5 135.5C157 135.5 158.1 134.3 158.1 132.9C158.1 131.5 157 130.3 155.5 130.3Z" fill="#FF3B60"/>
<path d="M155.5 162.2C153.6 162.2 152.1 160.7 152.1 158.8C152.1 156.9 153.6 155.4 155.5 155.4C157.4 155.4 158.9 156.9 158.9 158.8C158.9 160.7 157.4 162.2 155.5 162.2ZM155.5 156.2C154 156.2 152.9 157.4 152.9 158.8C152.9 160.3 154.1 161.4 155.5 161.4C157 161.4 158.1 160.2 158.1 158.8C158.1 157.4 157 156.2 155.5 156.2Z" fill="#FF3B60"/>
<path d="M155.5 190.4C153.6 190.4 152.1 188.9 152.1 187C152.1 185.1 153.6 183.6 155.5 183.6C157.4 183.6 158.9 185.1 158.9 187C158.9 188.9 157.4 190.4 155.5 190.4ZM155.5 184.4C154 184.4 152.9 185.6 152.9 187C152.9 188.5 154.1 189.6 155.5 189.6C157 189.6 158.1 188.4 158.1 187C158.1 185.6 157 184.4 155.5 184.4Z" fill="#FF3B60"/>
<path d="M215.5 136.3C213.6 136.3 212.1 134.8 212.1 132.9C212.1 131 213.6 129.5 215.5 129.5C217.4 129.5 218.9 131 218.9 132.9C218.9 134.8 217.3 136.3 215.5 136.3ZM215.5 130.3C214 130.3 212.9 131.5 212.9 132.9C212.9 134.4 214.1 135.5 215.5 135.5C217 135.5 218.1 134.3 218.1 132.9C218.1 131.5 216.9 130.3 215.5 130.3Z" fill="#FF3B60"/>
<path d="M215.5 162.2C213.6 162.2 212.1 160.7 212.1 158.8C212.1 156.9 213.6 155.4 215.5 155.4C217.4 155.4 218.9 156.9 218.9 158.8C218.8 160.7 217.3 162.2 215.5 162.2ZM215.5 156.2C214 156.2 212.9 157.4 212.9 158.8C212.9 160.3 214.1 161.4 215.5 161.4C217 161.4 218.1 160.2 218.1 158.8C218.1 157.4 216.9 156.2 215.5 156.2Z" fill="#FF3B60"/>
<path d="M215.5 190.4C213.6 190.4 212.1 188.9 212.1 187C212.1 185.1 213.6 183.6 215.5 183.6C217.4 183.6 218.9 185.1 218.9 187C218.8 188.9 217.3 190.4 215.5 190.4ZM215.5 184.4C214 184.4 212.9 185.6 212.9 187C212.9 188.5 214.1 189.6 215.5 189.6C217 189.6 218.1 188.4 218.1 187C218.1 185.6 216.9 184.4 215.5 184.4Z" fill="#FF3B60"/>
<g opacity="0.2">
<path opacity="0.2" d="M244.4 142.4H219.3V145.5H244.4V142.4Z" fill="#6A1760"/>
<path opacity="0.2" d="M217.8 142.4H206.3V145.5H217.8V142.4Z" fill="#6A1760"/>
<g opacity="0.2">
<path opacity="0.2" d="M204.1 116.2H148.7V119.3H204.1V116.2Z" fill="#6A1760"/>
<path opacity="0.2" d="M171.3 121.4H148.7V124.5H171.3V121.4Z" fill="#6A1760"/>
<path opacity="0.2" d="M234.2 116.2H219.3V119.3H234.2V116.2Z" fill="#6A1760"/>
<path opacity="0.2" d="M208.7 121.4H173.7V124.5H208.7V121.4Z" fill="#6A1760"/>
<path opacity="0.2" d="M211 116.2H206.3V119.3H211V116.2Z" fill="#6A1760"/>
<path opacity="0.2" d="M217.8 116.2H213.1V119.3H217.8V116.2Z" fill="#6A1760"/>
<path opacity="0.2" d="M204.1 142.4H148.7V145.5H204.1V142.4Z" fill="#6A1760"/>
<path opacity="0.2" d="M171.3 147.6H148.7V150.7H171.3V147.6Z" fill="#6A1760"/>
<path opacity="0.2" d="M217.9 147.6H173.7V150.7H217.9V147.6Z" fill="#6A1760"/>
<path opacity="0.2" d="M244.4 194H219.3V197.1H244.4V194Z" fill="#6A1760"/>
<path opacity="0.2" d="M217.8 194H206.3V197.1H217.8V194Z" fill="#6A1760"/>
<path opacity="0.2" d="M204.1 194H148.7V197.1H204.1V194Z" fill="#6A1760"/>
<path opacity="0.2" d="M171.3 199.2H148.7V202.3H171.3V199.2Z" fill="#6A1760"/>
<path opacity="0.2" d="M217.9 199.2H173.7V202.3H217.9V199.2Z" fill="#6A1760"/>
<path opacity="0.2" d="M244.4 167.9H219.3V171H244.4V167.9Z" fill="#6A1760"/>
<path opacity="0.2" d="M217.8 167.9H206.3V171H217.8V167.9Z" fill="#6A1760"/>
<path opacity="0.2" d="M204.1 167.9H148.7V171H204.1V167.9Z" fill="#6A1760"/>
<path opacity="0.2" d="M171.3 173.1H148.7V176.2H171.3V173.1Z" fill="#6A1760"/>
<path opacity="0.2" d="M217.9 173.1H173.7V176.2H217.9V173.1Z" fill="#6A1760"/>
<path opacity="0.2" d="M182.2 131.7H161V134H182.2V131.7Z" fill="#6A1760"/>
<path opacity="0.2" d="M242.4 185.9H221.2V188.2H242.4V185.9Z" fill="#6A1760"/>
<path opacity="0.2" d="M182.2 157.7H161V160H182.2V157.7Z" fill="#6A1760"/>
<path opacity="0.2" d="M182.2 184.9H161V187.2H182.2V184.9Z" fill="#6A1760"/>
<path opacity="0.2" d="M169.1 188.9H161V191.2H169.1V188.9Z" fill="#6A1760"/>
<path opacity="0.2" d="M242.4 157.7H221.2V160H242.4V157.7Z" fill="#6A1760"/>
<path opacity="0.2" d="M242.4 129.9H221.2V132.2H242.4V129.9Z" fill="#6A1760"/>
<path opacity="0.2" d="M234.2 133.4H221.2V135.7H234.2V133.4Z" fill="#6A1760"/>
</g>
</g>
<path d="M148 134.7H146.2L145.8 135.8H144.8L147.2 130.2H147.3L149.7 135.8H148.5L148 134.7ZM147.7 133.8L147.2 132.5L146.7 133.8H147.7Z" fill="#967EA5"/>
<path d="M209.9 133.4C210.1 133.6 210.1 133.9 210.1 134.1C210.1 134.6 209.9 135 209.6 135.3C209.2 135.6 208.8 135.7 208.3 135.7H206.5V130.3H208.1C208.7 130.3 209.1 130.4 209.4 130.6C209.7 130.8 209.9 131.2 209.9 131.6C209.9 131.9 209.8 132.1 209.7 132.3C209.6 132.5 209.4 132.7 209.2 132.8C209.5 133 209.7 133.2 209.9 133.4ZM207.5 132.6H208.1C208.3 132.6 208.4 132.5 208.6 132.4C208.7 132.3 208.8 132.1 208.8 132C208.8 131.8 208.7 131.7 208.6 131.6C208.5 131.5 208.3 131.5 208.1 131.5H207.5V132.6ZM208.8 134.6C209 134.5 209 134.3 209 134.1C209 133.7 208.7 133.5 208.1 133.5H207.5V134.7H208.2C208.4 134.8 208.6 134.7 208.8 134.6Z" fill="#967EA5"/>
<path d="M148 160.8H146.2L145.8 161.9H144.8L147.2 156.3H147.3L149.7 161.9H148.5L148 160.8ZM147.7 159.9L147.2 158.6L146.7 159.9H147.7Z" fill="#967EA5"/>
<path d="M209.9 159.5C210.1 159.7 210.1 160 210.1 160.2C210.1 160.7 209.9 161.1 209.6 161.4C209.2 161.7 208.8 161.8 208.3 161.8H206.5V156.4H208.1C208.7 156.4 209.1 156.5 209.4 156.7C209.7 156.9 209.9 157.3 209.9 157.7C209.9 158 209.8 158.2 209.7 158.4C209.6 158.6 209.4 158.8 209.2 158.9C209.5 159.1 209.7 159.3 209.9 159.5ZM207.5 158.7H208.1C208.3 158.7 208.4 158.6 208.6 158.5C208.7 158.4 208.8 158.2 208.8 158.1C208.8 157.9 208.7 157.8 208.6 157.7C208.5 157.6 208.3 157.6 208.1 157.6H207.5V158.7ZM208.8 160.7C209 160.6 209 160.4 209 160.2C209 159.8 208.7 159.6 208.1 159.6H207.5V160.8H208.2C208.4 160.9 208.6 160.8 208.8 160.7Z" fill="#967EA5"/>
<path d="M148 188.8H146.2L145.8 189.9H144.8L147.2 184.3H147.3L149.7 189.9H148.5L148 188.8ZM147.7 187.9L147.2 186.6L146.7 187.9H147.7Z" fill="#967EA5"/>
<path d="M209.9 187.5C210.1 187.7 210.1 188 210.1 188.2C210.1 188.7 209.9 189.1 209.6 189.4C209.2 189.7 208.8 189.8 208.3 189.8H206.5V184.4H208.1C208.7 184.4 209.1 184.5 209.4 184.7C209.7 184.9 209.9 185.3 209.9 185.7C209.9 186 209.8 186.2 209.7 186.4C209.6 186.6 209.4 186.8 209.2 186.9C209.5 187.1 209.7 187.3 209.9 187.5ZM207.5 186.6H208.1C208.3 186.6 208.4 186.5 208.6 186.4C208.7 186.3 208.8 186.1 208.8 186C208.8 185.8 208.7 185.7 208.6 185.6C208.5 185.5 208.3 185.5 208.1 185.5H207.5V186.6ZM208.8 188.7C209 188.6 209 188.4 209 188.2C209 187.8 208.7 187.6 208.1 187.6H207.5V188.8H208.2C208.4 188.8 208.6 188.8 208.8 188.7Z" fill="#967EA5"/>
<path fill-rule="evenodd" clip-rule="evenodd" d="M157 132.9C157 133.7 156.3 134.4 155.5 134.4C154.7 134.4 154 133.7 154 132.9C154 132.1 154.7 131.4 155.5 131.4C156.3 131.4 157 132.1 157 132.9Z" fill="#967EA5"/>
<path fill-rule="evenodd" clip-rule="evenodd" d="M217 158.9C217 159.7 216.3 160.4 215.5 160.4C214.7 160.4 214 159.7 214 158.9C214 158.1 214.7 157.4 215.5 157.4C216.3 157.3 217 158 217 158.9Z" fill="#967EA5"/>
<path fill-rule="evenodd" clip-rule="evenodd" d="M217 187.2C217 188 216.3 188.7 215.5 188.7C214.7 188.7 214 188 214 187.2C214 186.4 214.7 185.7 215.5 185.7C216.3 185.7 217 186.4 217 187.2Z" fill="#967EA5"/>
<path d="M206.4 109.8H177.1V136.9H206.4V109.8Z" fill="#FFC09C"/>
<path d="M163.7 84.3999C163.5 82.5999 161.9 81.1999 160.1 81.3999C158.1 81.5999 156.7 83.4999 157.1 85.4999C157.1 85.4999 158.7 88.4999 160.3 92.7999C161.1 95.0999 161.1 97.4999 160.9 99.8999C160.8 101.2 161.6 102.5 163.3 102.4C166.9 102.2 163.7 84.3999 163.7 84.3999Z" fill="#FFC09C"/>
<path d="M222.4 83.9999C222.6 82.1999 224.3 80.8999 226.1 81.0999C228.1 81.2999 229.4 83.2999 228.9 85.2999C228.9 85.2999 227.2 88.1999 225.4 92.4999C224.5 94.6999 224.4 97.1999 224.5 99.5999C224.6 100.9 223.7 102.2 222 102C218.6 101.6 222.4 83.9999 222.4 83.9999Z" fill="#FFC09C"/>
<path d="M120.1 235.3H110.2V230.4C110.2 224.9 114.6 220.5 120.1 220.5V235.3Z" fill="#FFB78D"/>
<path d="M127.4 187.7L110.6 233.5C110 235.2 110.1 237.1 110.9 238.7L112.3 241.4C113.7 244.1 116.7 245.5 119.6 244.9C124.5 243.8 128.5 240.3 130.2 235.5L145.2 194.5L127.4 187.7Z" fill="#FFC09C"/>
<path d="M263.3 235.3H273.2V230.4C273.2 224.9 268.8 220.5 263.3 220.5V235.3Z" fill="#FFB78D"/>
<path d="M256 187.7L272.8 233.5C273.4 235.2 273.3 237.1 272.5 238.7L271.1 241.4C269.7 244.1 266.7 245.5 263.8 244.9C258.9 243.8 254.9 240.3 253.2 235.5L238.2 194.5L256 187.7Z" fill="#FFC09C"/>
<path d="M226.9 142.9C219.6 139.1 211.4 137.2 203.1 137.2H180.4C171.7 137.2 163.1 139.3 155.5 143.5C143.6 150 128.9 163.1 121.4 189.1L150 200.7C150 200.7 143.3 257.3 155.9 268.9C169.1 281 214.4 281 227.7 268.9C240.3 257.3 233.6 200.7 233.6 200.7L262.2 189.1C254.4 162.3 238.9 149.2 226.9 142.9Z" fill="url(#paint2_linear)"/>
<path d="M143.3 295.6H241.4L243.1 213.7C245.5 178.2 211.9 150.3 177.9 160.5C177.1 160.7 176.3 161 175.5 161.3C153.7 168.8 140 190.4 141.5 213.3C142.1 222.8 142.8 289 143.3 295.6Z" fill="#F2F0EF"/>
<path d="M200.6 208.2H182.8C177.6 208.2 173.3 204 173.3 198.7C173.3 193.5 177.5 189.2 182.8 189.2H200.6C205.8 189.2 210.1 193.4 210.1 198.7C210.1 203.9 205.9 208.2 200.6 208.2Z" fill="#FCCE2F"/>
<path d="M160.8 153.7C172.4 165.3 214.8 165.2 226.6 153.7C241.3 139.3 224.2 105.7 223.2 72.6C223 65.5 219.2 59 213.1 55.5C212.7 55.3 212.4 55.1 212.4 55.1C213.3 51.8 211.4 47.7001 206.9 47.9001C206.7 47.9001 206.5 48 206.3 48C205.7 44.5 203.1 41.4001 198.5 41.7001C193.9 41.9001 191.6 45.4 191.4 49C191.3 49.1 191.3 49.2 191.2 49.3C191.2 49.3 191.2 49.3 191.1 49.3C171.3 50.3 163.4 62.6001 163.1 81.8001C163 87.3001 162.5 92.7 161.5 98.1C158.1 115.7 151.7 144.5 160.8 153.7Z" fill="#7C4FB8"/>
</g>
<defs>
<linearGradient id="paint0_linear" x1="105.495" y1="210.95" x2="272.085" y2="210.95" gradientUnits="userSpaceOnUse">
<stop offset="0.1322" stop-color="#FF94BF"/>
<stop offset="1" stop-color="#7C00FF"/>
</linearGradient>
<linearGradient id="paint1_linear" x1="193.661" y1="200.281" x2="193.661" y2="0" gradientUnits="userSpaceOnUse">
<stop offset="0.0171145" stop-color="#C2B5D6"/>
<stop offset="0.1847" stop-color="#D3C6DE"/>
<stop offset="0.4362" stop-color="#E5D8E7"/>
<stop offset="0.7013" stop-color="#EFE2EC"/>
<stop offset="1" stop-color="#F3E6EE"/>
</linearGradient>
<linearGradient id="paint2_linear" x1="191.739" y1="278.015" x2="191.739" y2="137.251" gradientUnits="userSpaceOnUse">
<stop stop-color="#FFAC00"/>
<stop offset="1" stop-color="#FFE330"/>
</linearGradient>
<clipPath id="clip0">
<rect width="378.8" height="295.6" fill="white"/>
</clipPath>
</defs>
</svg>
