<svg width="396" height="295" viewBox="0 0 396 295" fill="none" xmlns="http://www.w3.org/2000/svg">
<g clip-path="url(#clip0)">
<path d="M215.4 294.1C314.866 294.1 395.5 288.772 395.5 282.2C395.5 275.628 314.866 270.3 215.4 270.3C115.934 270.3 35.3 275.628 35.3 282.2C35.3 288.772 115.934 294.1 215.4 294.1Z" fill="#A1B2FF"/>
<path d="M159.8 194.9H225.4C226.9 194.9 228.1 193.7 228.1 192.2V191.3C228.1 189.8 226.9 188.6 225.4 188.6H159.8C158.3 188.6 157.1 189.8 157.1 191.3V192.2C157.1 193.7 158.3 194.9 159.8 194.9Z" fill="#89CAEF"/>
<path d="M181.3 204.1H203.9C204.6 204.1 205.3 203.7 205.6 203.2L208.9 198.2C209.8 196.8 208.8 194.9 207.2 194.9H178C176.3 194.9 175.3 196.8 176.3 198.2L179.6 203.2C179.9 203.7 180.6 204.1 181.3 204.1Z" fill="#89CAEF"/>
<path d="M181.8 262.2H203.4C204.4 262.2 205.4 262.7 205.9 263.5L208 266.6C209.3 268.6 207.9 271.3 205.5 271.3H179.7C177.3 271.3 175.8 268.6 177.2 266.6L179.3 263.5C179.8 262.7 180.8 262.2 181.8 262.2Z" fill="#41364F"/>
<path d="M187.117 262.12H198.117V204.02H187.117V262.12Z" fill="#41364F"/>
<path d="M169.1 152.8L226.2 114.4L242.4 168.6L173.3 162.3L169.1 152.8Z" fill="url(#paint0_linear)"/>
<path d="M159.1 184.9H195.3L182.7 149.6H146.5L159.1 184.9Z" fill="#344F93"/>
<path d="M159.1 184.9H195.3L182.7 149.6H146.5L159.1 184.9Z" fill="#344F93"/>
<path d="M146.8 149.6H180.5L193 184.9H156.8L145.1 151.9C144.8 150.8 145.6 149.6 146.8 149.6Z" fill="#344F93"/>
<path d="M213.6 184.9V188.7H158.6C157.6 188.7 156.7 187.9 156.7 186.8V184.9H213.6Z" fill="#344F93"/>
<path d="M213.6 184.9V188.7H158.6C157.6 188.7 156.7 187.9 156.7 186.8V184.9H213.6Z" fill="#344F93"/>
<path d="M178 194.9H207.2" stroke="#41364F" stroke-miterlimit="10"/>
<path d="M104.195 208.971C123.682 189.484 123.682 157.889 104.195 138.402C84.7083 118.915 53.1137 118.915 33.6267 138.402C14.1397 157.889 14.1397 189.484 33.6267 208.971C53.1136 228.458 84.7083 228.458 104.195 208.971Z" fill="#F7E72F"/>
<path d="M68.9 223.6C91.4 223.6 110.3 208.8 116.6 188.4C104 190.5 89.8 187.1 76.7 173.8C61.1 157.9 37.3 155.5 22.4 155.7C20.2 161.3 19 167.4 19 173.8C19 201.2 41.3 223.6 68.9 223.6Z" fill="#F7E72F"/>
<path d="M39.7 149.3C39.7 149.3 34.4 151.9 34.2 163.2C34 174.5 32 179.5 25.4 182.6C18.8 185.7 17.4 213 47.4 212C77.4 210.9 71 185 63.7 176.8C56.4 168.6 69 141.5 39.7 149.3Z" fill="#41364F"/>
<path d="M44 174.4V185.1L52.4 185.4L52.7 175L44 174.4Z" fill="#EE9264"/>
<path d="M64 186.6C64 186.6 68.4 189.7 67.5 200.7C66.6 211.7 69.3 216.4 69.3 216.4C69.3 216.4 67.6 220.4 64.1 218.5C60.5 216.7 61.4 191.8 64 186.6Z" fill="white"/>
<path d="M64 186.6C64 186.6 36.1 182.1 32.7 186.6C29.3 191.1 37.4 219 37.4 219C37.4 219 48.7 225.7 60.7 219C60.7 219 64.3 202.2 64.9 195.8C65.2 191.4 65.6 187.5 64 186.6Z" fill="white"/>
<path d="M62.4 191.6C62.4 191.6 65.6 198.3 62.4 201.8C62.4 201.8 61.5 204 62.3 210.9" stroke="#344F93" stroke-width="0.5" stroke-miterlimit="10"/>
<path d="M49.4 214.4C49.4 214.4 54.4 213 56.2 213.8C58 214.6 57.7 217.3 59 218.6C59 218.6 57.8 219.7 56.8 217.4V220.8C56.8 220.8 55.7 221.1 55.5 218.4L54.3 220.8C54.3 220.8 53 220.8 53.7 218.5C53.7 218.5 50.7 220.5 48.9 218.6L49.4 214.4Z" fill="#EE9264"/>
<path d="M38.2 190.9C38.2 190.9 38.6 185.7 34.3 185.6C30 185.5 27.1 207.8 30.6 218.2C30.6 218.2 38 220.9 48.3 218.9C48.3 218.9 50.5 218.1 49.4 214.3C49.4 214.3 44 211.4 35.9 211.6C35.9 211.7 38.1 201.8 38.2 190.9Z" fill="white"/>
<path d="M30.6 218.3C30.6 218.3 38 221 48.3 219C48.3 219 50.5 218.2 49.4 214.4C49.4 214.4 46.5 210.6 38.4 210.9C38.4 210.9 41.3 201.9 39.4 191.6" stroke="#344F93" stroke-width="0.5" stroke-miterlimit="10"/>
<path d="M54 181.8C54 181.8 48.3 179.7 42.7 180.6L43 186.3L54 186.1V181.8Z" fill="white"/>
<path d="M56 152.6C56.1 152.8 59.4 156.6 58.7 163.7C57.9 170.9 56.7 178.1 53.6 178.7C50.5 179.3 43.7 176.8 41.7 169.5C39.7 162.2 40.2 149.9 44.9 149.3C48.6 149 54.2 149.6 56 152.6Z" fill="#EE9264"/>
<path d="M57.6 163.1C57.6 163.1 57.1 162 55.1 162.3" stroke="#344F93" stroke-width="0.5" stroke-miterlimit="10"/>
<path d="M47.3 163.1C47.3 163.1 47.8 162 49.8 162.3" stroke="#344F93" stroke-width="0.5" stroke-miterlimit="10"/>
<path d="M55.3 165.2C55.3 165.8 55.6 166.2 55.9 166.2C56.2 166.2 56.5 165.7 56.5 165.2C56.5 164.6 56.2 164.2 55.9 164.2C55.6 164.1 55.3 164.6 55.3 165.2Z" fill="#41364F"/>
<path d="M49.6 165.2C49.6 165.8 49.3 166.2 49 166.2C48.7 166.2 48.4 165.7 48.4 165.2C48.4 164.6 48.7 164.2 49 164.2C49.3 164.1 49.6 164.6 49.6 165.2Z" fill="#41364F"/>
<path d="M53.6 165.9C53.6 165.9 53.2 167.8 54 168.8C54 168.8 54.5 169.6 54.5 169.9C54.4 170.3 53.6 170.3 53.6 170.3" stroke="#344F93" stroke-width="0.5" stroke-miterlimit="10"/>
<path d="M56.3 223.1H90.5L98.1 200.9H63.9L56.3 223.1Z" fill="#54C3EF"/>
<path d="M56.3 223.1H90.5L98.1 200.9H63.9L56.3 223.1Z" fill="#54C3EF"/>
<path d="M65.3 200.9H97.5C98.5 200.9 99.2 201.9 98.9 202.8L92 223.1H57.7L65.3 200.9Z" fill="#54C3EF"/>
<path d="M57.9 151.3C57.9 151.3 60.8 158 54.4 159.9C48 161.8 43 163.2 43 166.2C42.9 168.8 46.9 182.3 43 184.5C40.1 186.1 34.1 153.7 39.7 149.3C45 145.3 57.7 145.6 57.9 151.3Z" fill="#41364F"/>
<path d="M43 184.6C43 184.6 49.8 188.4 54 185.5" stroke="#344F93" stroke-width="0.5" stroke-miterlimit="10"/>
<path d="M53.1 181.5V185.9" stroke="#344F93" stroke-width="0.5" stroke-miterlimit="10"/>
<path d="M51.5 181.1L51.3 186.4" stroke="#344F93" stroke-width="0.5" stroke-miterlimit="10"/>
<path d="M49.3 180.7L48.8 186.4" stroke="#344F93" stroke-width="0.5" stroke-miterlimit="10"/>
<path d="M47.3 180.4L46.7 185.9" stroke="#344F93" stroke-width="0.5" stroke-miterlimit="10"/>
<path d="M45.6 180.4L44.7 185.2" stroke="#344F93" stroke-width="0.5" stroke-miterlimit="10"/>
<path d="M79.7 215.4C81.5778 215.4 83.1 213.878 83.1 212C83.1 210.122 81.5778 208.6 79.7 208.6C77.8222 208.6 76.3 210.122 76.3 212C76.3 213.878 77.8222 215.4 79.7 215.4Z" fill="white"/>
<path d="M50.5 172.7C50.5 172.7 51.5 173.9 52.7 173.6" stroke="#344F93" stroke-width="0.5" stroke-miterlimit="10"/>
<path d="M47.3 176.6C47.3 176.6 49.9 178.9 52.7 178.9" stroke="#344F93" stroke-width="0.5" stroke-miterlimit="10"/>
<path d="M97.6 101H70.8C69.2 101 67.8 102.3 67.8 104V126.6C67.8 128.2 69.1 129.6 70.8 129.6H72.7V135.7L79.5 129.6H97.6C99.2 129.6 100.6 128.3 100.6 126.6V104C100.6 102.4 99.2 101 97.6 101Z" fill="white"/>
<path d="M76.6 109.5V123.9C76.6 124 76.6 124.1 76.7 124.2C76.8 124.3 76.9 124.3 77 124.3H91.1V123.5H77.4V109.5H76.6Z" fill="#54C3EF"/>
<path d="M91.9 112.8C92.2 112.8 92.5 112.5 92.5 112.2V109.7C92.5 109.5 92.4 109.4 92.3 109.3C92.2 109.2 92 109.1 91.9 109.1H89.6C89.3 109.1 89 109.4 89 109.7C89 110 89.3 110.3 89.6 110.3H90.4L86.1 115.3V113.8C86.1 113.5 85.9 113.3 85.7 113.2C85.5 113.1 85.2 113.2 85 113.4L79.4 120C79.2 120.3 79.2 120.6 79.5 120.9C79.8 121.1 80.1 121.1 80.4 120.8L85 115.4V116.9C85 117.2 85.2 117.4 85.4 117.5C85.6 117.6 85.9 117.5 86.1 117.3L91.4 111V112.1C91.3 112.5 91.6 112.8 91.9 112.8Z" fill="#54C3EF"/>
<path d="M180.256 128.335C203.246 119.193 214.473 93.1441 205.33 70.1535C196.188 47.1629 170.139 35.9367 147.148 45.079C124.158 54.2213 112.932 80.2701 122.074 103.261C131.216 126.251 157.265 137.478 180.256 128.335Z" fill="#54C3EF"/>
<path d="M175.8 84.9C175.8 84.9 183.9 84.9 185.8 91.3C185.8 91.3 186.4 91.8 188.3 93C190.2 94.2 188.4 89.2 190.3 86.7C190.3 86.7 188.9 84.4 190.3 83.5C191.7 82.6 198.9 81.3 200.5 84.5C200.5 84.5 201.3 86.2 200.5 87.2C200.5 87.2 201.8 102.2 197.8 105.5C193.8 108.9 193.9 114.7 186 111.8C178 108.9 175.8 84.9 175.8 84.9Z" fill="#344F93"/>
<path d="M145.7 91.6001C145.7 91.6001 135.7 98.6001 140.2 108.5C144.7 118.4 150.7 121.5 150.7 121.5L145.7 91.6001Z" fill="#344F93"/>
<path d="M162.5 54.8001C162.5 54.8001 165.5 53.1001 166.7 56.1001C166.7 56.1001 172 56.5001 170.3 61.5001C170.3 61.5001 174.2 64.9001 169.3 67.8001C169.3 67.8001 169.8 72.4001 166.5 71.7001L155.5 60.7001L162.5 54.8001Z" fill="#41364F"/>
<path d="M154.9 80.2L158 89.9L165.5 88.2L163.4 79.8L154.9 80.2Z" fill="#EE9264"/>
<path d="M164.6 84.6999L163.4 79.8999L154.9 80.2999L155.7 82.6999C157.6 83.8999 160.6 85.1999 164.6 84.6999Z" fill="#EE9264"/>
<path d="M165.2 64.2001C165.2 64.2001 172.1 80.6001 164.1 82.9001C156 85.3001 152.8 76.8001 152.8 76.8001C152.8 76.8001 145.7 65.6001 155 62.1001C163.2 59.0001 165.2 64.2001 165.2 64.2001Z" fill="#EE9264"/>
<path d="M159.1 62.2C159.2 62.4 160.1 64.9 156.6 65.5C156.6 65.5 156.8 68.2 153.9 69.4C153.9 69.4 156.6 74.6 152.3 75.9C152.3 75.9 154.8 81.1 157 82.1C157 82.1 153.7 85.2 151.5 81.6C151.5 81.6 145.2 84.3 145.1 77.5C145 70.8 145.1 76.8 145.1 76.8C145.1 76.8 138.5 74.1 142.4 67.4C142.4 67.4 136.9 59.9 146.9 57.3C146.9 57.3 147.7 51.3 156.2 54.2C156.2 54.2 160.3 51 162.9 55.3C162.8 55.3 158.2 59.4 159.1 62.2Z" fill="#41364F"/>
<path d="M158.6 68.2001C158.6 68.2001 156.6 66.5001 154.6 68.5001" stroke="#344F93" stroke-width="0.5" stroke-miterlimit="10"/>
<path d="M162.9 68C162.9 68 163.7 65.8 166.1 66.6" stroke="#344F93" stroke-width="0.5" stroke-miterlimit="10"/>
<path d="M158 72.3001C158.331 72.3001 158.6 71.8076 158.6 71.2001C158.6 70.5926 158.331 70.1001 158 70.1001C157.669 70.1001 157.4 70.5926 157.4 71.2001C157.4 71.8076 157.669 72.3001 158 72.3001Z" fill="#41364F"/>
<path d="M166 70.1C166 70.7 165.7 71.2 165.4 71.2C165.1 71.2 164.8 70.7 164.8 70.1C164.8 69.5 165.1 69 165.4 69C165.8 69 166 69.5 166 70.1Z" fill="#41364F"/>
<path d="M162.4 70.1001C162.4 70.1001 162.5 73.0001 164.4 73.4001L162.8 74.9001" stroke="#344F93" stroke-width="0.5" stroke-miterlimit="10"/>
<path d="M160.3 77C160.3 77 163.7 77.4 165.4 76" stroke="#344F93" stroke-width="0.5" stroke-miterlimit="10"/>
<path d="M146 98.9001C146 98.9001 142.6 92.1 147.3 90.6C152 89.1 175.5 84.6001 175.8 84.9001C176.1 85.2001 181.7 83.1 183.6 93.6C185.6 104.1 190.3 130.7 190.2 131C190.1 131.3 151.5 133.5 151.8 133.2C152.1 132.9 150 111.6 146 98.9001Z" fill="#344F93"/>
<path d="M153.8 76.0001C153.8 76.0001 152.1 70.8001 148.9 71.8001C145.7 72.8001 149.6 79.7001 154 77.8001L153.8 76.0001Z" fill="#EE9264"/>
<path d="M196.7 85.1001C196.7 85.1001 193.1 86.8001 191.8 83.8001C190.5 80.8001 190.4 79.1001 191.7 77.0001C193 74.9001 192.6 72.3001 192.6 72.3001C192.6 72.3001 195 72.6001 194.8 75.6001C194.8 75.6001 195.5 70.7001 198.7 70.5001C198.7 70.5001 199.1 70.4001 198.8 71.3001C198.4 72.2001 197.6 74.0001 197.6 74.0001C197.6 74.0001 200.5 70.5001 202.1 71.2001C202.1 71.2001 202.8 71.8001 202.2 72.3001C201.7 72.8001 199.8 75.1001 199.8 75.1001C199.8 75.1001 203 79.7001 196.7 85.1001Z" fill="#EE9264"/>
<path d="M199.8 75.3L198.8 74C198.8 74 196.8 74.4 197.7 76.6C198.6 78.8 195.6 77 195 82.1" stroke="#344F93" stroke-width="0.5" stroke-miterlimit="10"/>
<path d="M194.8 75.7C194.8 75.7 194.7 76.5 194.2 77.4C194.2 77.4 195.4 78.1 194.6 80.2" stroke="#344F93" stroke-width="0.5" stroke-miterlimit="10"/>
<path d="M161.1 95.6C165.5 95.6 169.1 92.1 169.1 87.9C169.1 87.2 169 86.6 168.8 86C164.1 86.9 157.8 88.1 153.1 89.2C153.8 92.8 157.1 95.6 161.1 95.6Z" fill="#54C3EF"/>
<path d="M161.1 94.3C164.7 94.3 167.7 91.5 167.7 88C167.7 87.4 167.6 86.9 167.5 86.3C163.5 87.1 158.6 88 154.6 88.9C155.1 91.9 157.8 94.3 161.1 94.3Z" fill="#EE9264"/>
<path d="M145.7 96.3C145.7 96.3 145.2 97.3 146.5 100.5C147.7 103.8 148.6 109 148.6 109" stroke="white" stroke-width="0.5" stroke-miterlimit="10"/>
<path d="M136.8 110.2C136.8 110.2 139.7 101.9 143.2 105.5C143.2 105.5 154.9 108.6 152.9 120.2C151.7 127 139 120.9 138.2 117C138.1 117 134.5 116.4 136.8 110.2Z" fill="#344F93"/>
<path d="M140 105.1C140 105.1 142.2 103.4 143.7 105.7C143.7 105.7 149.5 106.5 153.2 113.4C156.9 120.4 150.9 122.8 150.9 122.8" stroke="white" stroke-width="0.5" stroke-miterlimit="10"/>
<path d="M140 116.4C140 116.4 145 113.7 143.7 105.7" stroke="white" stroke-width="0.5" stroke-miterlimit="10"/>
<path d="M138.8 113C138.8 113 142.7 112.1 141.8 108.9C141 105.8 140 104.3 137.6 103.5C135.2 102.7 134 100.4 134 100.4C134 100.4 132.4 102.1 134.4 104.4C134.4 104.4 130.8 101 128.2 102.9C128.2 102.9 127.8 103.1 128.6 103.5C129.4 104 131.3 104.8 131.3 104.8C131.3 104.8 126.8 103.8 126 105.4C126 105.4 125.9 106.3 126.6 106.4C127.3 106.5 130.2 107.1 130.2 107.1C130.2 107.1 130.5 112.7 138.8 113Z" fill="#EE9264"/>
<path d="M130.2 107.2V105.6C130.2 105.6 132 104.6 132.7 106.9C133.4 109.2 134.6 105.9 138.2 109.5" stroke="#344F93" stroke-width="0.5" stroke-miterlimit="10"/>
<path d="M134.4 104.5C134.4 104.5 135 105.1 135.9 105.4C135.9 105.4 135.4 106.7 137.3 107.8" stroke="#344F93" stroke-width="0.5" stroke-miterlimit="10"/>
<path d="M181.2 90.8C181.2 90.8 183.8 93.2 187.1 112.1" stroke="white" stroke-width="0.5" stroke-miterlimit="10"/>
<path d="M190.8 104.6C190.8 104.6 187.5 100.7 189 93" stroke="white" stroke-width="0.5" stroke-miterlimit="10"/>
<path d="M186.4 99.7999C186.4 99.7999 186.2 96.2999 188.9 93.8999" stroke="white" stroke-width="0.5" stroke-miterlimit="10"/>
<path d="M212.5 34H185.7C184.1 34 182.7 35.3 182.7 37V59.6C182.7 61.2 184 62.6 185.7 62.6H187.6V68.7L194.4 62.6H212.5C214.1 62.6 215.5 61.3 215.5 59.6V37C215.5 35.3 214.2 34 212.5 34Z" fill="white"/>
<path d="M199.9 51.5999L200.1 51.3999H199.7L199.9 51.5999Z" fill="white"/>
<path d="M194 43.7V55.6H200.7V53.9C200.7 53.8 200.7 53.8 200.8 53.7C200.9 53.6 200.9 53.6 201 53.6H202.8V49.8L200.3 52.6C200.2 52.7 200.1 52.8 199.9 52.8C199.8 52.8 199.6 52.7 199.5 52.6L198.3 51.3H195V50.5H200.8L201.3 49.9H195V49.1H201.7V49.4L202.7 48.2V43.5H194V43.7ZM201.7 48.7H195V47.9H201.7V48.7ZM201.7 47.3H196V46.5H201.7V47.3Z" fill="white"/>
<path d="M202.8 53.5999H201C200.9 53.5999 200.9 53.6 200.8 53.7C200.7 53.8 200.7 53.8 200.7 53.9V55.5999H194V43.7H202.8V48.4L203.4 47.7999V43.5C203.4 43.4 203.4 43.3999 203.3 43.2999C203.2 43.1999 203.2 43.2 203.1 43.2H193.8C193.7 43.2 193.7 43.1999 193.6 43.2999C193.5 43.3999 193.5 43.4 193.5 43.5V56C193.5 56.1 193.5 56.1 193.6 56.2C193.7 56.3 193.7 56.2999 193.8 56.2999H201.4C201.5 56.2999 201.5 56.3 201.6 56.2L202.5 55.2999L203.3 54.5C203.4 54.4 203.4 54.4 203.4 54.2999V49.4L202.8 50V53.5999ZM201.3 55.5999V54.2H202.8L201.3 55.5999Z" fill="#54C3EF"/>
<path d="M201.3 55.5999L202.8 54.2H201.3V55.5999Z" fill="white"/>
<path d="M201.7 46.5H196V47.3H201.7V46.5Z" fill="#C3E2F7"/>
<path d="M201.7 47.8H195V48.6H201.7V47.8Z" fill="#C3E2F7"/>
<path d="M195 49.2V50H201.3L201.7 49.5V49.2H195Z" fill="#C3E2F7"/>
<path d="M195 50.6V51.4H198.4L198.2 51.2L198 50.9C198 50.9 198 50.8 198 50.7L198.1 50.6L199.4 50.9H199.5L199.8 51.3H200.1L200.8 50.5H195V50.6Z" fill="#C3E2F7"/>
<path d="M204.8 47.3999L204.3 46.8999H204.2H204.1L203.4 47.6999L202.8 48.2999L201.8 49.4999L201.3 49.9999L200.8 50.5999L200.1 51.3999L199.9 51.5999L199.7 51.3999L199.4 50.9999C199.4 50.9999 199.4 50.9999 199.3 50.9999L198 50.6999C198 50.6999 197.9 50.6999 197.9 50.7999C197.9 50.8999 197.9 50.8999 197.9 50.9999L198.1 51.2999L198.3 51.4999L199.5 52.7999C199.6 52.8999 199.7 52.9999 199.9 52.9999C200 52.9999 200.2 52.8999 200.3 52.7999L202.8 49.9999L203.4 49.3999L204.8 47.7999C204.8 47.4999 204.8 47.3999 204.8 47.3999Z" fill="#344F93"/>
<path d="M386.1 79.0999V259.6C386.1 266.7 380.4 272.4 373.3 272.4H339.7L386.1 79.0999Z" fill="#41364F"/>
<path d="M273.5 272.4H339.8L386.2 79.2H309.3L265.3 262C264 267.3 268 272.4 273.5 272.4Z" fill="#89CAEF"/>
<path d="M282.5 190.6H359.4L386.1 79.0999H309.2L282.5 190.6Z" fill="#89CAEF"/>
<path d="M353.6 176.7L373.2 94.7999C373.8 92.2999 371.9 89.8999 369.3 89.8999H317.4C315.6 89.8999 314 91.1999 313.5 92.8999L293.9 174.8C293.3 177.3 295.2 179.7 297.8 179.7H349.7C351.6 179.8 353.2 178.5 353.6 176.7Z" fill="#F7E72F"/>
<path d="M294.1 174.9C293.5 177.4 295.4 179.8 298 179.8H349.9C351.7 179.8 353.3 178.5 353.8 176.8" stroke="#344F93" stroke-width="0.5" stroke-miterlimit="10"/>
<path d="M293.2 73.1999C300.269 73.1999 306 67.4691 306 60.3999C306 53.3306 300.269 47.5999 293.2 47.5999C286.131 47.5999 280.4 53.3306 280.4 60.3999C280.4 67.4691 286.131 73.1999 293.2 73.1999Z" fill="white"/>
<path d="M317.5 80.9L317.3 80.7L313 85L313.1 85.1L314.2 86.3C314.9 87 316.5 86.7 317.7 85.5C318.9 84.3 319.3 82.7 318.6 82L317.5 80.9Z" fill="#574C68"/>
<path d="M316.3 79.7L311.9 84L313 85L317.3 80.7L317.2 80.6L316.3 79.7Z" fill="white"/>
<path d="M293.5 43.5999C284.2 43.4999 276.5 51.0999 276.5 60.3999C276.4 69.6999 283.9 77.3999 293.3 77.3999C296.8 77.3999 300 76.3999 302.7 74.5999L312 83.8999L316.4 79.5999L307.1 70.2999C309.1 67.4999 310.3 64.1999 310.3 60.4999C310.3 51.2999 302.8 43.6999 293.5 43.5999ZM293.5 72.3999C286.9 72.3999 281.6 66.9999 281.7 60.3999C281.7 53.7999 287.1 48.4999 293.7 48.5999C300.3 48.5999 305.6 53.9999 305.5 60.5999C305.4 67.1999 300.1 72.4999 293.5 72.3999Z" fill="#574C68"/>
<path d="M300.3 52.5999C298.9 51.2999 296.9 50.4999 294.8 50.3999L294.7 58.2999L300.3 52.5999Z" fill="#344F93"/>
<path d="M293.3 50.3998C287.7 50.3998 283.5 54.8998 283.5 60.4998C283.5 66.0998 288 70.6998 293.6 70.6998C297.5 70.6998 301.2 68.3998 302.6 65.3998L293.5 60.4998L293.6 50.2998C293.4 50.3998 293.3 50.3998 293.3 50.3998Z" fill="#F7E72F"/>
<path d="M297.8 61.3998L299.9 54.7998L298.5 56.2998L297 60.8998L297.8 61.3998Z" fill="#54C3EF"/>
<path d="M296.7 60.7997L298 56.6997L296.6 58.1997L295.9 60.2997L296.7 60.7997Z" fill="#54C3EF"/>
<path d="M301.1 63.1998L303.2 56.6998C303 56.2998 302.8 55.8998 302.6 55.4998L300.2 62.7998L301.1 63.1998Z" fill="#54C3EF"/>
<path d="M302.2 63.7999L303.8 58.8999C303.7 58.2999 303.6 57.6999 303.4 57.0999L301.4 63.3999L302.2 63.7999Z" fill="#54C3EF"/>
<path d="M302.9 64.1998C303.5 62.9998 303.8 61.4998 303.8 59.9998C303.8 59.7998 303.8 59.6998 303.8 59.4998L302.4 63.8998L302.9 64.1998Z" fill="#54C3EF"/>
<path d="M298.1 61.4998L298.9 61.9998L301.5 53.8998C301.4 53.7998 301.3 53.5998 301.2 53.4998L300.4 54.2998L298.1 61.4998Z" fill="#54C3EF"/>
<path d="M296.1 58.5999L294.9 59.7999L295.6 60.1999L296.1 58.5999Z" fill="#54C3EF"/>
<path d="M300 62.5999L302.4 55.0999C302.2 54.7999 302 54.3999 301.7 54.0999L299.1 62.0999L300 62.5999Z" fill="#54C3EF"/>
<path d="M350.4 202.8H290.4C288.6 202.8 287.1 201.3 287.1 199.5V198.6C287.1 196.8 288.6 195.3 290.4 195.3H350.4C352.2 195.3 353.7 196.8 353.7 198.6V199.5C353.6 201.3 352.2 202.8 350.4 202.8Z" fill="white"/>
<path d="M345.5 192.5H327.6C326.5 192.5 325.5 191.6 325.5 190.4V187.7C325.5 186.6 326.4 185.6 327.6 185.6H345.5C346.6 185.6 347.6 186.5 347.6 187.7V190.4C347.6 191.6 346.7 192.5 345.5 192.5Z" fill="#41364F"/>
<path d="M345.9 192.5H327.3C326.4 192.5 325.6 193.3 325.6 194.2C325.6 195.1 326.4 195.9 327.3 195.9H345.9C346.8 195.9 347.6 195.1 347.6 194.2C347.6 193.3 346.8 192.5 345.9 192.5Z" fill="#344F93"/>
<path d="M322.5 125.7H347.6L329.6 101.3L322.5 125.7Z" stroke="#344F93" stroke-width="0.5" stroke-miterlimit="10"/>
<path d="M348.2 143.1H324.9L328.1 131.8H351.4L348.2 143.1Z" fill="white"/>
<path d="M314.6 170.7C319.847 170.7 324.1 166.447 324.1 161.2C324.1 155.953 319.847 151.7 314.6 151.7C309.353 151.7 305.1 155.953 305.1 161.2C305.1 166.447 309.353 170.7 314.6 170.7Z" stroke="#344F93" stroke-width="0.5" stroke-miterlimit="10"/>
<path d="M332.4 158.8L341.3 151.7C341.3 151.7 343.5 153.3 343.3 158.8H332.4Z" fill="#344F93"/>
<path d="M322.5 125.7L338.2 113.5" stroke="#344F93" stroke-width="0.5" stroke-miterlimit="10"/>
<path d="M314.6 161.2L324.1 151.7H335" stroke="#344F93" stroke-width="0.5" stroke-miterlimit="10"/>
<path d="M347.6 99.0999H362.9L360 109L347.6 99.0999Z" fill="white"/>
<path d="M339.7 131.8L336.6 143.1L351.4 131.8" stroke="#344F93" stroke-width="0.5" stroke-miterlimit="10"/>
<path d="M302.2 162H345.2" stroke="#344F93" stroke-width="0.5" stroke-miterlimit="10" stroke-dasharray="2 2"/>
<path d="M274 281.1L263.7 289.2C263.7 289.2 277.8 292.4 284.5 288.2L283.6 279.1L274 281.1Z" fill="#41364F"/>
<path d="M242.4 281.1L232.1 289.2C232.1 289.2 246.2 292.4 252.9 288.2L251.4 279.2L242.4 281.1Z" fill="#41364F"/>
<path d="M276.5 173C277.6 173 279 244.8 283.6 279C283.6 279 282.1 284.5 274 281.1C274 281.1 257.4 214.4 257.1 189.3C257.1 189.3 248.7 189.6 249.8 173.3L276.5 173Z" fill="#344F93"/>
<path d="M241.9 169C241.9 169 231.9 239.9 241.1 282.2C241.1 282.2 247.6 286.3 251.5 281.3C251.5 281.3 247.2 214.6 260.7 187.4L263.7 173L241.9 169Z" fill="#344F93"/>
<path d="M249.4 115.3C249.4 115.3 240.6 115 236.9 125.5C233.3 136 230.8 145.7 230.5 148.8C230.2 151.9 240.1 156 242.7 149.5C245.4 143 249.4 115.3 249.4 115.3Z" fill="#54C3EF"/>
<path d="M280.7 120.2C280.7 120.2 288.6 121.5 290.6 127.6C292.6 133.7 294 134 294 134C294 134 295.7 126.1 296.2 119.6C296.2 119.6 295.2 116.5 297.8 115C300.4 113.5 308.9 116 308.4 120.3C308.4 120.3 309.6 121.7 308.4 123C308.4 123 311.4 141.2 304.3 149.3C297.2 157.4 292.8 151.1 292.5 150.7C292.3 150.3 279 138.4 279 138.4L280.7 120.2Z" fill="#54C3EF"/>
<path d="M267.2 79.8C267.2 79.8 257 73.5 253.4 78.6C249.8 83.6 259.5 92.9 259.5 92.9L267.2 79.8Z" fill="#41364F"/>
<path d="M271.7 103.5C271.7 103.5 269.9 111.7 269.9 115.3C269.9 115.3 262.2 116.3 259.4 114.3L261.3 102.3L271.7 103.5Z" fill="#EE9264"/>
<path d="M260.1 109.6C265.2 109.4 269.3 106.8 271.3 105.2C271.5 104.2 271.6 103.5 271.6 103.5L261.1 102.3L260.1 109.6Z" fill="#EE9264"/>
<path d="M263.5 84.1001C263.5 84.1001 257.9 86.1001 257.6 92.7001C257.3 99.3001 254.9 103.5 258.5 106.3C263.1 109.7 271.5 104.3 272.3 102.7C273.1 101.1 280.7 82.6001 263.5 84.1001Z" fill="#EE9264"/>
<path d="M262.6 80.9C262.5 81.1 265 90.6 271.8 93.4C271.8 93.4 271.3 98.6 273.7 99.2C273.7 99.2 273.5 103.8 268.9 105.5C268.9 105.5 274.3 106.3 276.4 104.7C278.6 103 284 99.2 279.3 89.2C279.3 89.2 281 79.3 277.1 84.5C277.1 84.5 267 66.9 266.7 77.9C266.7 77.9 261.7 70.3 260.4 73.8C259.7 75.4 262.6 80.9 262.6 80.9Z" fill="#41364F"/>
<path d="M266.5 92C266.5 92 268.7 89.8 269.9 92.8" stroke="#344F93" stroke-width="0.5" stroke-miterlimit="10"/>
<path d="M260.7 90.8C260.7 90.8 259.6 88.8 258.4 90.8" stroke="#344F93" stroke-width="0.5" stroke-miterlimit="10"/>
<path d="M266.2 94.5C266.2 95 266.5 95.3 266.8 95.3C267.2 95.3 267.4 94.9 267.4 94.5C267.4 94 267.1 93.7 266.8 93.7C266.5 93.7 266.2 94 266.2 94.5Z" fill="#41364F"/>
<path d="M258.7 93.6999C258.7 94.1999 259 94.4999 259.3 94.4999C259.7 94.4999 259.9 94.0999 259.9 93.6999C259.9 93.1999 259.6 92.8999 259.3 92.8999C259 92.7999 258.7 93.1999 258.7 93.6999Z" fill="#41364F"/>
<path d="M262.3 93.2V94.8C262.3 94.8 261.1 97.2 259.7 97.3C259.7 97.3 260.7 98.5 261.6 98.5" stroke="#344F93" stroke-width="0.5" stroke-miterlimit="10"/>
<path d="M264.8 100.6C264.8 100.6 261.3 100 259.1 99.1001L259.3 100.6C259.3 100.6 263 102.2 264.8 100.6Z" fill="white"/>
<path d="M259.6 101.9C259.6 101.6 257.3 105 258.5 107.4C259.7 109.8 260 106.1 260 106.1C260 106.1 259.5 109.4 260.8 109.3C260.8 109.3 261.7 109.7 261.7 108.1C261.7 108.1 263.3 110 263.3 108.3C263.3 106.7 262.6 103.8 262.6 103.8C262.6 103.8 261.3 106.2 260.7 104C260.7 104 258.9 106.3 259.6 101.9Z" fill="#41364F"/>
<path d="M272.6 99.1C272.6 99.1 273.8 94 275.9 94.7C278.1 95.4 277.9 102.5 271.7 102.3L272.6 99.1Z" fill="#EE9264"/>
<path d="M283.4 128.9C283.4 128.9 284.7 122.9 280.6 119.7C275.7 115.8 252.9 108 247.7 118C242.9 127.2 242.4 168.7 242.4 168.7C242.4 168.7 254.1 180.9 276.3 173.4L283.4 128.9Z" fill="#54C3EF"/>
<path d="M249.4 118.2C249.4 118.2 241.7 130.5 243.5 141.7" stroke="#344F93" stroke-width="0.5" stroke-miterlimit="10"/>
<path d="M271.7 110.6C271.7 110.6 263.7 113.5 258.1 109.7C258.1 109.7 252.6 109.4 253.5 113.1C253.5 113.1 251 115.7 253.7 119.5C256.4 123.3 269.5 124.2 274.6 118.4C274.6 118.4 276 115.9 273.9 114.1C274 114 275.5 110.2 271.7 110.6Z" fill="#54C3EF"/>
<path d="M275 127.8C275 127.8 274 126.8 274.7 125.4C274.7 125.4 266.3 121.7 259.5 127.4C259.5 127.4 256.9 119.9 247.4 120.6C247.4 120.6 247.6 121.5 246.3 122.2L259 131.6L275 127.8Z" fill="white"/>
<path d="M270.5 146.6L275.1 127.8C275.1 127.8 268.7 122.6 260.2 128.5L258.2 149.2C258.1 149.2 264.3 144.7 270.5 146.6Z" fill="#41364F"/>
<path d="M260.1 128.5C260.1 128.5 259 129.5 258.4 128.2L256.7 149.2C256.7 149.2 257.3 150.1 258 149.2L260.1 128.5Z" fill="#41364F"/>
<path d="M260.1 128.5C260.1 128.5 259 129.5 258.4 128.2L256.7 149.2C256.7 149.2 257.3 150.1 258 149.2L260.1 128.5Z" fill="#41364F"/>
<path d="M258.5 128.1C258.5 128.1 255.3 120.6 246.4 122.1L245.5 144.8C245.5 144.8 253.9 143 256.8 149.1L258.5 128.1Z" fill="#41364F"/>
<path d="M304.1 119.9C304.1 119.9 299.2 121 298.1 117.8C296.9 114.6 298.6 112.6 301.4 111.6C301.4 111.6 303.4 108.1 303.4 105.8C303.4 105.8 305.7 105.6 305.2 108.4C305.2 108.4 304.5 110.6 305 111.3C305 111.3 307.4 109.1 308.7 108.5C310 107.9 309.3 103.2 312.8 103.9C312.8 103.9 313.1 105.2 312.5 107.1C312.5 107.1 313.8 105.1 315.9 106.6C315.9 106.6 316 108.4 313.7 110.9C313.6 110.9 316.6 117.1 304.1 119.9Z" fill="#EE9264"/>
<path d="M301.5 115.2C301.7 115.2 304.1 112.2 309.4 114C309.4 114 309.9 113.3 311.2 113.2C311.2 113.2 311.2 110.9 312.9 109.8L313.6 110.9" stroke="#344F93" stroke-width="0.5" stroke-miterlimit="10"/>
<path d="M312.4 107C312.4 107 310.2 109 309.9 110.2C309.6 111.3 308.4 111.9 308.4 111.9" stroke="#344F93" stroke-width="0.5" stroke-miterlimit="10"/>
<path d="M253.5 113.1C253.5 113.1 256.1 117 263.8 116.6" stroke="#344F93" stroke-width="0.5" stroke-miterlimit="10"/>
<path d="M259.9 118.2C259.9 118.2 271.1 119.4 274 114" stroke="#344F93" stroke-width="0.5" stroke-miterlimit="10"/>
<path d="M252.6 114.9C252.6 114.9 251 119 255.7 121.1C260.4 123.1 273.1 124.6 275.1 116.3" stroke="#344F93" stroke-width="0.5" stroke-miterlimit="10"/>
<path d="M280.5 124.3C280.5 124.3 277.7 132 280.5 138.6" stroke="#344F93" stroke-width="0.5" stroke-miterlimit="10"/>
<path d="M294 133.9C294 133.9 292.6 138.2 293.6 142.5" stroke="#344F93" stroke-width="0.5" stroke-miterlimit="10"/>
<path d="M290.5 142.9C290.5 142.9 290 138.9 292.7 135.1" stroke="#344F93" stroke-width="0.5" stroke-miterlimit="10"/>
<path d="M237.4 138.5C237.4 138.5 241.9 138.5 243.2 141.3" stroke="#344F93" stroke-width="0.5" stroke-miterlimit="10"/>
<path d="M253.9 147.8C253.9 147.8 250.9 146.4 251.7 142.8C252.5 139.3 254.5 136.5 254.3 134.5C254.1 132.5 254.3 130.7 254.3 130.7C254.3 130.7 258.4 131.3 256.7 136L256.5 138.2C256.5 138.2 266.5 133.1 269.4 135.1C269.4 135.1 272.4 137.6 265.6 138.2C265.6 138.2 272.2 138.7 270.6 140.4C269.1 142.2 265.9 141.5 265.9 141.5C265.9 141.5 271.3 143.3 269.4 144.5C267.5 145.8 264.9 145.1 264.9 145.1C264.9 145.1 258.9 149.7 253.9 147.8Z" fill="#EE9264"/>
<path d="M253.2 140.3C253.2 140.3 251.6 139.1 250.5 140.3C249.4 141.5 248.7 140.3 247.3 141.1C245.9 141.9 231.5 142 230.5 148.8C229.5 155.5 231 159.1 238.9 158.8C246.8 158.5 254.6 150.3 254.6 150.3C254.6 150.3 256.5 151.1 256.6 149.3C256.9 147.5 256.9 141.3 253.2 140.3Z" fill="#54C3EF"/>
<path d="M241.6 158.4C241.9 158.3 251.3 155.1 254.7 150.2C254.7 150.2 257.2 151.8 256.8 147.3" stroke="#344F93" stroke-width="0.5" stroke-miterlimit="10"/>
<path d="M253.7 184.4C253.7 184.4 252 192.7 257.1 192.7" stroke="white" stroke-width="0.5" stroke-miterlimit="10"/>
<path d="M131.4 24.7C130.7 24.7 130 24.5 129.5 24L110.4 7.09995L91.1 23.5C90.8 23.9 90.4 24.1999 90 24.4C88.9 24.9 87.6 24.7999 86.7 24L67.6 7.09995L48.2 23.5C47.9 23.9 47.5 24.1999 47.1 24.4C46 24.9 44.7 24.7999 43.8 24L24.8 7.09995L5.1 23.9C3.8 25 1.9 24.7999 0.799997 23.5C-0.300003 22.2 -0.100003 20.3 1.2 19.2L22.8 0.699951C24 -0.300049 25.7 -0.300049 26.8 0.699951L45.8 17.5L65.6 0.699951C66.8 -0.300049 68.5 -0.300049 69.6 0.699951L88.6 17.5L108.4 0.699951C109.6 -0.300049 111.3 -0.300049 112.4 0.699951L133 18.9C134 19.4 134.6 20.4 134.6 21.5C134.6 22.7 133.9 23.9 132.8 24.4C132.4 24.6 131.9 24.7 131.4 24.7Z" fill="#FBD880"/>
</g>
<defs>
<linearGradient id="paint0_linear" x1="180.171" y1="155.296" x2="238.113" y2="140.556" gradientUnits="userSpaceOnUse">
<stop stop-color="#FCEE21"/>
<stop offset="1" stop-color="white" stop-opacity="0"/>
</linearGradient>
<clipPath id="clip0">
<rect width="395.5" height="294.1" fill="white"/>
</clipPath>
</defs>
</svg>
