<svg width="411" height="252" viewBox="0 0 411 252" fill="none" xmlns="http://www.w3.org/2000/svg">
<path d="M169.463 235.235C169.463 235.235 168.417 234.397 166.848 234.292C165.383 234.187 164.023 235.235 164.023 235.235L163.082 234.082C163.187 233.978 164.86 232.72 166.952 232.825C168.94 232.93 170.3 234.082 170.404 234.187L169.463 235.235Z" fill="#C41736"/>
<path d="M141.847 235.34C141.638 235.34 141.428 235.235 141.219 235.13C141.01 234.921 141.01 234.502 141.324 234.397C141.324 234.397 145.613 232.092 150.111 229.787C159.421 225.176 160.676 225.386 161.199 225.49C161.513 225.595 161.722 225.7 161.931 225.91C162.873 227.377 162.977 228.424 162.977 228.529C162.977 228.843 162.768 229.053 162.35 229.158C161.931 229.158 161.617 228.948 161.513 228.634C161.513 228.634 161.408 227.796 160.676 226.538C158.793 226.748 149.901 231.044 142.161 235.235C142.161 235.34 142.056 235.34 141.847 235.34Z" fill="#940E32"/>
<path d="M189.338 236.912C189.129 236.912 189.024 236.912 188.815 236.807C188.501 236.597 188.501 236.283 188.815 236.074C188.815 236.074 191.64 233.873 194.673 231.673C201.054 227.062 201.891 227.272 202.414 227.377C202.728 227.481 203.042 227.586 203.146 227.901C203.774 229.368 203.879 230.311 203.879 230.415C203.879 230.73 203.565 230.939 203.146 231.044C202.728 231.044 202.414 230.834 202.309 230.52C202.309 230.52 202.205 229.787 201.786 228.634C200.113 229.263 194.569 233.244 189.757 237.017C189.652 236.807 189.547 236.912 189.338 236.912Z" fill="#940E32"/>
<path d="M152.935 224.547C146.345 224.547 141.01 228.843 141.01 234.082C141.01 239.322 146.345 243.618 152.935 243.618C159.525 243.618 164.86 239.322 164.86 234.082C164.756 228.843 159.421 224.547 152.935 224.547ZM142.788 234.082C142.788 229.891 147.286 226.433 152.831 226.433C158.375 226.433 162.873 229.891 162.873 234.082C162.873 238.274 158.375 241.732 152.831 241.732C147.286 241.732 142.788 238.274 142.788 234.082Z" fill="#C41736"/>
<path d="M180.447 224.547C173.856 224.547 168.522 228.843 168.522 234.082C168.522 239.322 173.856 243.618 180.447 243.618C187.037 243.618 192.372 239.322 192.372 234.082C192.372 228.843 187.037 224.547 180.447 224.547ZM180.447 241.732C174.903 241.732 170.404 238.274 170.404 234.082C170.404 229.891 174.903 226.433 180.447 226.433C185.991 226.433 190.489 229.891 190.489 234.082C190.594 238.274 186.095 241.732 180.447 241.732Z" fill="#C41736"/>
<path d="M162.977 234.083C162.977 229.891 158.479 226.434 152.935 226.434C147.391 226.434 142.893 229.891 142.893 234.083C142.893 238.274 147.391 241.732 152.935 241.732C158.479 241.732 162.977 238.274 162.977 234.083Z" fill="#E7F2FF"/>
<path d="M157.329 227.167L148.019 240.789C148.646 241.103 149.378 241.313 150.111 241.417L159.316 228.11C158.688 227.796 158.061 227.481 157.329 227.167Z" fill="#E7F2FF"/>
<path d="M142.788 234.082C142.788 235.13 143.102 236.178 143.52 237.016L150.738 226.538C146.24 227.272 142.788 230.415 142.788 234.082Z" fill="#E7F2FF"/>
<path d="M155.027 241.627C159.525 240.893 162.977 237.75 162.977 234.082C162.977 233.034 162.664 232.091 162.245 231.148L155.027 241.627Z" fill="#E7F2FF"/>
<path d="M152.935 226.329C152.203 226.329 151.471 226.433 150.843 226.538L143.625 237.016C144.462 238.588 146.031 239.95 148.019 240.788L157.329 227.167C155.969 226.643 154.504 226.329 152.935 226.329Z" fill="#F8FBFF"/>
<path d="M159.316 228.11L150.111 241.417C150.948 241.627 151.889 241.731 152.831 241.731C153.563 241.731 154.295 241.627 154.923 241.522L162.141 231.044C161.513 229.996 160.571 228.948 159.316 228.11Z" fill="#F8FBFF"/>
<path d="M170.404 234.083C170.404 235.13 170.718 236.073 171.137 237.016L178.25 226.643C173.856 227.377 170.404 230.415 170.404 234.083Z" fill="#E7F2FF"/>
<path d="M184.945 227.167L175.635 240.789C176.262 241.103 176.995 241.313 177.727 241.417L186.932 228.11C186.2 227.691 185.572 227.377 184.945 227.167Z" fill="#E7F2FF"/>
<path d="M182.539 241.627C187.142 240.893 190.594 237.75 190.594 234.083C190.594 233.035 190.28 231.987 189.757 231.044L182.539 241.627Z" fill="#E7F2FF"/>
<path d="M180.447 226.329C179.714 226.329 178.982 226.433 178.25 226.538L171.137 236.912C171.974 238.483 173.543 239.845 175.53 240.684L184.84 227.062C183.585 226.643 182.12 226.329 180.447 226.329Z" fill="#F8FBFF"/>
<path d="M186.828 228.11L177.622 241.417C178.564 241.627 179.505 241.731 180.447 241.731C181.179 241.731 181.807 241.627 182.539 241.522L189.757 231.044C189.129 229.891 188.083 228.843 186.828 228.11Z" fill="#F8FBFF"/>
<path d="M122.39 213.545C119.043 211.973 116.741 208.411 116.741 204.324C116.741 200.133 119.043 196.571 122.39 195.104V191.541H38.4953C32.9511 191.541 28.453 195.942 28.453 201.39V207.153C28.453 212.602 32.9511 217.003 38.4953 217.003H122.39V213.545Z" fill="#D93456"/>
<path d="M122.39 213.545C119.043 211.973 116.741 208.411 116.741 204.324C116.741 200.133 119.043 196.571 122.39 195.104V191.541H78.0367C70.8188 191.541 65.0654 197.199 65.0654 204.22C65.0654 211.24 70.9234 216.898 78.0367 216.898H122.39V213.545Z" fill="#CF1C43"/>
<path d="M122.39 213.545C119.042 211.973 116.741 208.411 116.741 204.324C116.741 200.133 119.042 196.57 122.39 195.103V194.265H118.729H112.766H80.1288C74.3754 194.265 69.7727 198.771 69.7727 204.429C69.7727 209.982 74.3754 214.593 80.1288 214.593H112.766H118.729H122.39V213.545Z" fill="#FDFDFD"/>
<path d="M36.0893 193.322C36.0893 193.322 32.5327 195.418 32.0097 198.037C31.4866 200.657 31.8005 201.809 31.8005 201.809L62.7641 201.914C62.7641 201.914 62.9733 195.627 68.2036 192.693L36.0893 193.322Z" fill="#EA446B"/>
<path d="M79.815 198.352L118.729 198.142L118.101 199.19L79.815 198.352Z" fill="#CDD5E5"/>
<path d="M72.1787 204.534L116.95 203.905V204.534H72.1787Z" fill="#CDD5E5"/>
<path d="M80.9656 210.506L118.938 210.297L119.461 211.03L80.9656 210.506Z" fill="#CDD5E5"/>
<path d="M19.0384 239.74C22.3858 238.169 24.6872 234.606 24.6872 230.52C24.6872 226.328 22.3858 222.766 19.0384 221.299V217.736H102.933C108.477 217.736 112.975 222.137 112.975 227.586V233.349C112.975 238.797 108.477 243.198 102.933 243.198H19.0384V239.74Z" fill="#1D4077"/>
<path d="M19.0384 239.74C22.3858 238.169 24.6872 234.606 24.6872 230.52C24.6872 226.328 22.3858 222.766 19.0384 221.299V217.736H63.3917C70.6096 217.736 76.3629 223.395 76.3629 230.415C76.3629 237.435 70.505 243.093 63.3917 243.093H19.0384V239.74Z" fill="#2C538B"/>
<path d="M19.0384 239.74C22.3858 238.169 24.6872 234.606 24.6872 230.52C24.6872 226.328 22.3858 222.766 19.0384 221.299V220.46H22.6997H28.6623H61.2996C67.0529 220.46 71.6556 224.966 71.6556 230.624C71.6556 236.178 67.0529 240.788 61.2996 240.788H28.5576H22.5951H18.9338V239.74H19.0384Z" fill="#FDFDFD"/>
<path d="M105.234 219.203C105.234 219.203 108.791 221.299 109.314 223.919C109.837 226.538 109.523 227.691 109.523 227.691L78.5597 227.795C78.5597 227.795 78.3505 221.509 73.1201 218.575L105.234 219.203Z" fill="#2C538B"/>
<path d="M61.718 224.861L22.8043 224.652L23.4319 225.7L61.718 224.861Z" fill="#CDD5E5"/>
<path d="M69.3543 231.044L24.5826 230.415V231.149L69.3543 231.044Z" fill="#CDD5E5"/>
<path d="M60.5673 237.016L22.5951 236.911L22.072 237.54L60.5673 237.016Z" fill="#CDD5E5"/>
<path d="M67.3668 83.8254V70.3086L59.7305 77.0146L67.3668 83.8254Z" fill="#335F9B"/>
<path d="M73.0155 45.0562H12.9712V77.0146H73.0155V45.0562Z" fill="#335F9B"/>
<path d="M69.9819 49.1426H16.0048V51.6573H69.9819V49.1426Z" fill="#D0F6FF"/>
<path d="M57.4291 56.0581H16.0048V58.5729H57.4291V56.0581Z" fill="#D0F6FF"/>
<path d="M65.3792 63.0786H16.0048V65.5934H65.3792V63.0786Z" fill="#D0F6FF"/>
<path d="M64.5424 70.0991H16.0048V72.6139H64.5424V70.0991Z" fill="#D0F6FF"/>
<path d="M66.5299 137.264V124.167L59.2074 130.663L66.5299 137.264Z" fill="#335F9B"/>
<path d="M71.8649 99.9619H14.1219V130.768H71.8649V99.9619Z" fill="#335F9B"/>
<path d="M27.5116 118.089C29.187 118.089 30.5452 116.729 30.5452 115.05C30.5452 113.372 29.187 112.012 27.5116 112.012C25.8362 112.012 24.478 113.372 24.478 115.05C24.478 116.729 25.8362 118.089 27.5116 118.089Z" fill="#D0E1F9"/>
<path d="M42.9934 118.194C44.6688 118.194 46.027 116.834 46.027 115.155C46.027 113.477 44.6688 112.117 42.9934 112.117C41.318 112.117 39.9598 113.477 39.9598 115.155C39.9598 116.834 41.318 118.194 42.9934 118.194Z" fill="#D0E1F9"/>
<path d="M58.4752 118.194C60.1506 118.194 61.5088 116.834 61.5088 115.155C61.5088 113.477 60.1506 112.117 58.4752 112.117C56.7998 112.117 55.4416 113.477 55.4416 115.155C55.4416 116.834 56.7998 118.194 58.4752 118.194Z" fill="#D0E1F9"/>
<path d="M384.325 71.461V58.3633L377.003 64.9645L384.325 71.461Z" fill="#335F9B"/>
<path d="M389.765 34.1587H349.7V64.9645H389.765V34.1587Z" fill="#335F9B"/>
<path d="M356.918 52.0765C358.363 52.0765 359.533 50.9037 359.533 49.4569C359.533 48.0102 358.363 46.8374 356.918 46.8374C355.474 46.8374 354.303 48.0102 354.303 49.4569C354.303 50.9037 355.474 52.0765 356.918 52.0765Z" fill="#D0E1F9"/>
<path d="M370.308 52.1815C371.752 52.1815 372.923 51.0087 372.923 49.5619C372.923 48.1152 371.752 46.9424 370.308 46.9424C368.864 46.9424 367.693 48.1152 367.693 49.5619C367.693 51.0087 368.864 52.1815 370.308 52.1815Z" fill="#D0E1F9"/>
<path d="M383.593 52.1815C385.037 52.1815 386.208 51.0087 386.208 49.5619C386.208 48.1152 385.037 46.9424 383.593 46.9424C382.149 46.9424 380.978 48.1152 380.978 49.5619C380.978 51.0087 382.149 52.1815 383.593 52.1815Z" fill="#D0E1F9"/>
<path d="M214.13 202.019L173.333 205.372V181.167H221.034V198.352L214.13 202.019Z" fill="#15326A"/>
<path d="M216.431 184.102H168.731V200.867H216.431V184.102Z" fill="#0C245E"/>
<path d="M216.431 184.102V193.637L168.731 184.102H216.431Z" fill="#011947"/>
<path d="M237.876 223.29H142.788V218.155L168.522 200.762H212.038L237.876 218.155V223.29Z" fill="#0C245E"/>
<path d="M216.536 200.762H168.94L164.86 203.276L216.745 203.905L216.536 200.762Z" fill="#15326A"/>
<path d="M216.641 203.905L216.431 200.762L221.034 198.352L242.06 212.916L237.876 218.155L216.641 203.905Z" fill="#1B3F77"/>
<path d="M242.06 212.916L241.955 218.365L237.876 223.289V218.155L242.06 212.916Z" fill="#15326A"/>
<path d="M306.812 184.102L312.46 178.548V40.9697L306.812 46.5232V184.102Z" fill="#15326A"/>
<path d="M78.4551 46.5232L84.1038 40.9697H312.46L306.812 46.5232H78.4551Z" fill="#1F4279"/>
<path d="M306.812 46.5229H78.4551V184.101H306.812V46.5229Z" fill="#0C245E"/>
<path d="M297.711 54.6963H87.3466V163.774H297.711V54.6963Z" fill="#D0F6FF"/>
<path d="M261.622 51.9719H79.9196V48.7236H256.287L261.622 51.9719Z" fill="#12356F"/>
<path d="M303.673 178.339L81.1749 178.968V169.642L303.673 169.328V178.339Z" fill="#12356F"/>
<path d="M192.686 178.653C195.343 178.653 197.498 176.495 197.498 173.833C197.498 171.171 195.343 169.013 192.686 169.013C190.028 169.013 187.874 171.171 187.874 173.833C187.874 176.495 190.028 178.653 192.686 178.653Z" fill="#CF1C43"/>
<path d="M285.89 31.4343L283.589 38.2451C283.066 39.712 283.484 41.3885 284.635 42.4364L297.502 53.5432C298.129 54.0671 298.862 54.3815 299.698 54.3815L317.377 54.1719C318.841 54.1719 320.201 53.1241 320.62 51.5524L322.189 45.9989C322.712 44.1129 321.77 42.122 320.097 41.3885L290.284 29.3386C288.505 28.5004 286.518 29.4434 285.89 31.4343Z" fill="#2E5B95"/>
<path d="M269.362 18.3367L300.64 45.7895C300.849 45.999 301.163 46.1038 301.372 46.1038L337.984 45.3704C338.507 45.3704 338.926 44.9512 339.135 44.5321C339.344 44.0082 340.39 41.5982 339.867 41.1791L313.506 21.061C313.297 20.8514 313.088 20.8514 312.879 20.7467L270.199 13.8311C269.676 13.7263 269.258 16.241 269.049 16.5554C268.839 17.1841 268.839 17.9176 269.362 18.3367Z" fill="#1F4279"/>
<path d="M270.199 15.8219L301.477 43.2747C301.686 43.4843 302 43.5891 302.209 43.5891L338.821 42.8556C339.972 42.8556 340.39 41.2839 339.554 40.5504L314.239 18.5462C314.03 18.3367 313.82 18.3367 313.611 18.2319L270.932 13.5167C269.885 13.4119 269.258 14.9837 270.199 15.8219Z" fill="#2E5B95"/>
<path d="M271.768 14.4597L307.753 29.1292L314.239 19.1749L271.768 14.4597Z" fill="#3E75AF"/>
<path d="M307.753 29.1292L318.737 43.0651L318.109 61.7163L314.343 64.1262L314.762 43.4842L307.753 29.1292Z" fill="#CF1C43"/>
<path d="M202.623 59.3066H183.166V82.3586H202.623V59.3066Z" fill="#FF8995"/>
<path d="M183.166 60.8784V70.204C183.166 70.204 193.418 70.204 202.728 61.5071L183.166 60.8784Z" fill="#1F4279"/>
<path d="M220.302 41.8078C219.465 32.2727 212.979 38.2452 212.979 38.2452C212.979 38.2452 218.837 12.0498 198.962 6.49637C197.393 5.7629 195.615 5.44856 193.418 5.55334C191.221 5.44856 189.338 5.7629 187.874 6.49637C167.998 12.1546 173.856 38.2452 173.856 38.2452C173.856 38.2452 167.371 32.2727 166.534 41.8078C165.697 51.3429 175.844 52.286 175.844 52.286C179.191 59.2016 185.991 63.812 192.999 64.0215C200.217 64.1263 207.54 59.5159 211.096 52.286C211.096 52.286 221.243 51.3429 220.302 41.8078Z" fill="#FF9EA5"/>
<path d="M213.189 43.5894C213.189 43.5894 214.235 38.979 215.908 40.7603C217.582 42.6464 215.595 47.6759 214.13 47.4664C212.561 47.2568 213.816 46.3138 214.025 44.8468C214.235 43.3799 213.189 43.5894 213.189 43.5894Z" fill="#1F4279"/>
<path d="M173.124 42.7511C173.124 42.7511 172.078 38.1407 170.404 39.9219C168.731 41.808 170.718 46.8375 172.183 46.628C173.752 46.4184 172.497 45.4754 172.287 44.0084C172.078 42.5415 173.124 42.7511 173.124 42.7511Z" fill="#1F4279"/>
<path d="M197.707 53.7531C197.498 53.7531 197.393 53.8579 197.288 54.0674C197.288 54.1722 196.452 55.744 194.046 55.744C191.535 55.8487 190.175 53.9627 190.175 53.9627C189.966 53.7531 189.757 53.6483 189.547 53.8579C189.338 54.0674 189.338 54.3818 189.443 54.5914C189.547 54.6961 191.117 56.8966 194.15 56.7918C197.184 56.687 198.23 54.5914 198.23 54.4866C198.334 54.277 198.23 53.9627 198.021 53.8579C197.811 53.7531 197.707 53.7531 197.707 53.7531Z" fill="#1F4279"/>
<path d="M184.736 43.799C185.429 43.799 185.991 42.72 185.991 41.389C185.991 40.058 185.429 38.979 184.736 38.979C184.042 38.979 183.48 40.058 183.48 41.389C183.48 42.72 184.042 43.799 184.736 43.799Z" fill="#1F4279"/>
<path d="M180.761 36.464C180.656 36.0449 180.865 35.521 181.179 35.3114C182.12 34.6827 184.213 33.6349 185.782 34.3684C187.874 35.3114 187.142 36.2545 186.618 36.5688C186.095 36.8832 184.84 35.9401 183.062 36.7784C181.807 37.3023 180.97 37.0927 180.761 36.464Z" fill="#1F4279"/>
<path d="M203.46 43.0651C204.153 43.0651 204.715 41.9861 204.715 40.6551C204.715 39.3241 204.153 38.2451 203.46 38.2451C202.767 38.2451 202.205 39.3241 202.205 40.6551C202.205 41.9861 202.767 43.0651 203.46 43.0651Z" fill="#1F4279"/>
<path d="M206.703 35.8353C206.808 35.4161 206.598 34.8922 206.18 34.6827C205.238 34.1588 203.042 33.111 201.577 33.9492C199.59 35.1018 200.322 35.9401 200.845 36.1496C201.368 36.464 202.623 35.4161 204.402 36.1496C205.657 36.8831 206.494 36.5687 206.703 35.8353Z" fill="#1F4279"/>
<path d="M183.271 50.8189C185.004 50.8189 186.409 49.5054 186.409 47.8851C186.409 46.2647 185.004 44.9512 183.271 44.9512C181.538 44.9512 180.133 46.2647 180.133 47.8851C180.133 49.5054 181.538 50.8189 183.271 50.8189Z" fill="#E94F66"/>
<path d="M205.238 50.8189C206.972 50.8189 208.377 49.5054 208.377 47.8851C208.377 46.2647 206.972 44.9512 205.238 44.9512C203.505 44.9512 202.1 46.2647 202.1 47.8851C202.1 49.5054 203.505 50.8189 205.238 50.8189Z" fill="#E94F66"/>
<path d="M192.372 49.0379C191.953 49.0379 191.64 49.0379 191.43 48.6188C191.326 48.4092 191.43 48.0949 191.64 47.9901C191.744 47.8853 191.953 47.8853 192.058 47.9901C192.476 48.0949 193.836 47.8853 194.046 47.571C194.15 47.1519 193.941 44.218 193.627 41.4936C193.627 41.1793 193.836 40.9697 194.046 40.9697C194.255 40.9697 194.569 41.1793 194.569 41.3889C194.778 43.1701 195.196 47.2566 194.882 47.9901C194.569 49.0379 192.686 49.0379 192.372 49.0379Z" fill="#1F4279"/>
<path d="M218.419 13.6216C218.419 13.6216 220.406 9.84942 219.256 7.85857C218.105 5.86772 215.176 5.9725 215.176 5.9725C215.176 5.9725 216.536 3.56252 212.77 2.82905C209.004 2.09558 209.109 4.19121 207.644 4.71512C206.18 5.23903 192.895 -1.15266 183.794 0.314287C180.133 0.942977 178.878 3.45774 178.773 6.70597C178.145 6.70597 177.622 6.81075 177.099 7.02032C169.672 9.63986 169.045 17.0794 168.626 20.118C168.417 21.7945 168.417 24.5189 168.417 26.5097C168.417 31.0153 168.94 32.7966 169.463 36.464C170.3 36.2544 171.241 36.5688 171.974 36.8831C175.112 38.5596 175.321 46.9421 177.099 43.9035C178.145 42.1222 175.635 35.1018 176.472 29.9675C177.099 26.4049 184.213 27.348 184.631 23.9949C186.514 25.1475 190.28 26.4049 197.916 27.0336C202.519 27.348 206.389 27.1384 209.632 26.5097C213.293 30.5962 208.691 40.1313 210.155 42.5413C211.724 45.1609 211.619 40.2361 213.607 37.8261C214.339 37.3022 215.49 36.5688 216.745 36.464C217.164 31.8536 217.582 26.3001 217.373 23.5758C219.674 22.0041 220.93 20.2228 221.034 18.5463C221.243 13.9359 218.419 13.6216 218.419 13.6216Z" fill="#1F4279"/>
<path d="M192.058 41.8076L191.326 40.4455C191.43 40.3407 194.046 39.0833 196.347 40.3407L195.615 41.7028C194.046 40.8646 192.058 41.8076 192.058 41.8076Z" fill="white"/>
<path d="M209.527 43.0651L208.481 41.9125L213.189 38.2451L212.143 40.7599L209.527 43.0651Z" fill="white"/>
<path d="M178.25 42.0174L174.484 40.5504L173.438 38.5596L178.773 40.5504L178.25 42.0174Z" fill="white"/>
<path d="M192.163 45.8944H177.832V36.0449H192.267V45.8944H192.163ZM179.087 44.637H190.907V37.3023H179.087V44.637Z" fill="white"/>
<path d="M209.737 46.1039H195.301V36.2544H209.737V46.1039ZM196.661 44.8465H208.481V37.5118H196.661V44.8465Z" fill="white"/>
<path d="M117.16 17.3937C117.16 17.3937 113.08 7.22988 112.348 5.65815C111.615 4.08643 112.871 1.99079 115.381 3.87686C117.892 5.76293 122.704 18.3367 123.227 21.585C123.75 24.8332 123.75 27.9767 125.319 27.7671C126.993 27.5575 128.039 24.2045 129.817 23.471C131.595 22.7376 136.093 22.528 137.349 23.3663C138.604 24.2045 135.78 25.4619 133.583 27.2432C131.386 29.0245 129.189 32.3775 128.771 34.5779C128.352 36.6735 124.064 43.0652 121.344 43.17C118.624 43.2748 110.674 40.4457 109.209 37.0927C107.745 33.7396 103.038 26.1954 103.77 24.6236C104.502 23.0519 105.234 20.2228 106.176 19.6989C107.117 19.175 117.16 17.3937 117.16 17.3937Z" fill="#FF9EA5"/>
<path d="M117.16 34.4731C117.16 34.4731 114.649 31.9583 114.335 31.3296C114.021 30.701 115.695 32.0631 117.369 31.9583C119.042 31.7488 120.298 30.0723 122.181 30.0723C122.181 30.0723 119.461 31.7488 119.147 32.9014C118.833 34.054 118.624 35.7305 117.16 34.4731Z" fill="#1F4279"/>
<path d="M119.67 26.5096C119.461 25.5666 121.03 22.8423 120.821 22.1088C120.612 21.3753 118.101 17.3936 117.473 16.8697C116.846 16.3458 115.8 16.1362 115.8 16.1362V18.9653C114.544 18.0223 113.394 17.184 113.185 17.0793C113.185 17.0793 112.452 17.3936 111.929 17.2888C111.406 17.184 109.209 19.1749 109.209 19.1749L109.419 20.1179L106.28 19.6988C106.28 19.6988 105.653 20.6418 106.699 21.7944C106.908 22.004 107.117 22.3184 107.222 22.5279C107.013 22.7375 107.013 23.471 106.908 23.9949C106.804 25.4618 108.373 25.7761 108.373 25.7761C109.209 26.4048 111.092 27.0335 111.511 26.7192C111.825 26.7192 112.243 27.0335 112.975 27.5574C114.44 28.5005 115.381 27.4527 115.904 27.3479C116.741 27.1383 117.16 27.6622 117.578 27.8718C117.787 27.9766 118.519 27.9766 118.519 27.9766C119.356 27.9766 119.775 26.824 119.67 26.5096Z" fill="#1F4279"/>
<path d="M113.08 17.1841C113.812 15.1933 115.486 15.9268 116.532 16.3459C117.578 16.8698 120.402 21.4802 120.298 22.0041C120.298 22.528 119.356 25.5667 119.461 26.5097C119.67 27.4527 117.473 28.6053 116.218 26.5097C115.486 25.3571 116.323 22.9471 116.323 22.4232C116.323 21.6898 112.975 17.708 113.08 17.1841Z" fill="#FF9EA5"/>
<path d="M109.419 19.4894C109.419 19.4894 111.825 22.3185 111.825 22.8425C111.825 23.3664 110.988 25.9859 112.452 27.0337C113.917 27.9768 115.277 27.5576 115.381 27.3481C115.486 27.2433 115.486 24.2046 115.904 23.3664C116.323 22.5281 113.708 18.6512 112.557 17.7082C111.406 16.7651 108.477 16.7651 109.419 19.4894Z" fill="#FF9EA5"/>
<path d="M110.779 26.6146C110.046 26.6146 108.059 25.3572 108.163 24.4142C108.268 23.4711 108.163 22.5281 107.85 22.2137C107.536 21.8994 106.385 21.1659 106.176 20.5372C105.967 19.9085 106.804 18.6512 107.431 18.5464C108.059 18.4416 109.314 19.1751 109.419 19.1751C109.419 19.2798 111.406 22.2137 111.406 22.5281C111.302 23.5759 111.929 26.6146 110.779 26.6146Z" fill="#FF9EA5"/>
<path d="M126.156 39.2932C126.156 39.2932 125.005 41.7032 125.528 43.6941C126.051 45.6849 115.59 45.4754 115.59 45.4754L111.825 43.3797C111.825 43.3797 110.988 40.0267 109.942 38.0359C108.896 36.045 126.156 39.2932 126.156 39.2932Z" fill="#FF9EA5"/>
<path d="M110.883 42.8557C110.883 42.8557 120.298 43.6939 126.365 40.1313C126.365 40.1313 127.202 41.3887 127.62 44.0083C127.934 48.0948 133.478 60.3542 135.047 69.1559C136.721 77.9575 142.056 93.7796 138.29 100.905C134.524 108.03 128.771 110.545 123.122 106.773C117.369 103 113.603 93.0461 112.766 82.7775C112.243 76.7002 110.046 58.7825 110.569 47.99C110.674 45.1609 110.883 42.8557 110.883 42.8557Z" fill="#D93456"/>
<path d="M203.879 68.7368C203.879 68.7368 217.477 71.2516 225.741 75.6524C234.005 80.0532 236.097 83.3015 243.42 96.1896C248.127 104.363 258.274 115.155 261.517 120.709C264.446 125.633 265.387 126.262 265.178 131.501C264.969 136.111 259.843 139.255 254.299 140.408C248.86 141.56 236.202 126.681 229.926 118.613C223.126 109.811 222.603 111.697 215.595 104.048C212.352 100.276 190.803 76.9098 203.879 68.7368Z" fill="#D93456"/>
<path d="M182.643 67.584C182.643 67.584 169.777 69.7844 158.479 74.1852C146.345 78.9004 135.675 85.816 132.432 86.8638C126.156 88.9595 123.018 93.989 123.018 93.989C123.018 93.989 112.766 105.096 129.712 108.973C140.278 111.383 158.479 114.212 167.371 109.392C176.367 104.677 190.698 75.1283 182.643 67.584Z" fill="#D93456"/>
<path d="M159.212 136.216C159.525 142.398 160.467 150.362 160.153 156.753L221.976 156.858C225.637 136.111 229.612 106.249 229.612 106.249C231.076 80.3676 203.774 68.7368 203.774 68.7368C203.774 68.7368 201.891 73.2424 191.953 72.7185C182.016 72.2994 182.539 67.689 182.539 67.689C182.539 67.689 158.165 84.454 157.224 92.7318C156.283 101.01 158.898 128.567 159.212 136.216Z" fill="#D93456"/>
<path d="M182.643 67.584C182.643 67.584 182.957 77.2239 193.104 106.353C193.104 106.353 199.694 88.7499 203.879 68.6318C203.879 68.6318 198.334 71.0418 193.104 71.9848C187.874 72.9278 182.643 67.584 182.643 67.584Z" fill="white"/>
<path d="M182.643 67.584L172.497 83.3012L186.095 96.7133L178.355 99.4376L195.615 128.776L193.104 106.458L182.643 67.584Z" fill="#E43E64"/>
<path d="M203.774 68.6318L213.398 78.167L201.368 95.8751L207.54 95.2464L195.615 128.777L193.104 106.458L203.774 68.6318Z" fill="#E43E64"/>
<path d="M257.751 47.4661L261.935 21.3755L236.934 28.1863L230.24 77.0146L254.613 73.1377L257.751 47.4661Z" fill="#335F9B"/>
<path d="M234.215 25.9858L236.934 28.1862L261.935 21.3754L259.425 19.3845L234.215 25.9858Z" fill="#417BAF"/>
<path d="M228.043 75.1285L230.24 77.0145L236.934 28.1863L234.215 25.9858L228.043 75.1285Z" fill="#3E70A7"/>
<path d="M239.654 83.6155C239.654 83.6155 247.604 84.5585 248.127 83.4059C248.65 82.2533 253.253 66.1169 253.776 64.2308C254.299 62.3448 252.521 57.8392 252.416 51.9714C252.312 46.5227 251.998 46.6275 251.37 46.5227C250.742 46.418 250.115 47.2562 250.115 47.2562C250.115 47.2562 249.383 46.8371 248.232 46.8371C247.081 46.9419 246.454 47.361 246.349 47.4658C246.244 47.5706 245.407 51.1331 245.407 51.1331C245.407 51.1331 244.257 50.2949 243.42 50.714C242.583 51.1331 241.642 51.7618 241.537 54.6957C241.432 57.5248 241.432 59.3061 241.537 60.0396C241.642 60.773 241.955 64.9643 241.955 64.9643C241.955 64.9643 240.073 74.0803 239.445 75.4425C238.817 76.6999 237.98 83.5107 239.654 83.6155Z" fill="#FF8995"/>
<path d="M244.989 67.7933C244.989 67.7933 241.537 60.249 241.537 57.5247C241.642 54.9051 242.165 52.1808 242.688 51.4473C243.315 50.7139 243.315 50.7139 243.315 50.7139C243.315 50.7139 242.269 50.9234 241.642 51.9712C240.909 53.1238 240.596 58.4677 241.014 59.5155C241.432 60.5633 242.06 64.9642 242.06 64.9642L245.094 68.3172" fill="#1F4279"/>
<path d="M248.65 46.9417C248.65 46.9417 246.454 46.7322 246.14 47.5704C245.826 48.4087 245.094 53.9621 245.303 56.3721C245.512 58.7821 248.336 64.8594 248.336 64.8594C248.336 64.8594 246.14 58.7821 246.14 55.5338C245.931 52.3904 245.407 46.5226 248.65 46.9417Z" fill="#1F4279"/>
<path d="M250.115 47.2563C250.115 47.2563 249.383 51.762 249.906 56.1628C250.429 60.5636 251.37 62.5545 251.37 62.5545C251.37 62.5545 249.173 51.2381 250.115 47.2563Z" fill="#1F4279"/>
<path d="M238.399 83.3012C238.399 83.3012 236.934 75.9664 239.654 69.7843C241.119 66.4313 237.353 62.5544 237.248 59.4109C237.144 56.1627 238.922 55.4292 239.654 55.9531C240.491 56.5818 239.654 58.5727 241.328 61.4018C243.001 64.2309 245.094 67.4791 245.198 68.3174C245.303 69.1556 245.094 72.7182 244.466 75.3378C243.838 77.8525 244.048 85.6064 238.399 83.3012Z" fill="#FF8995"/>
<path d="M258.693 139.883C261.831 138.836 265.701 134.854 266.12 130.453C266.852 123.537 264.132 111.488 260.366 102.057C254.717 87.8068 253.985 86.4447 250.533 78.9004C250.533 78.9004 243.315 84.1395 237.353 81.5199C237.353 81.5199 236.934 87.8068 236.83 90.112C236.307 98.8089 237.562 107.191 239.026 118.613C240.596 128.776 247.395 143.551 258.693 139.883Z" fill="#E73D64"/>
<path d="M274.279 143.341H110.883V147.009H274.279V143.341Z" fill="#3E70A7"/>
<path d="M169.149 143.341H110.883V147.009H169.149V143.341Z" fill="#6494C3"/>
<path d="M274.279 147.113H110.883V159.478H274.279V147.113Z" fill="#0C245E"/>
<path d="M113.812 157.696V148.58L121.344 153.19L113.812 157.696Z" fill="#D0F6FF"/>
<path d="M263.295 152.562V150.361H265.597V148.895H261.831V152.667L263.295 152.562Z" fill="#D0F6FF"/>
<path d="M267.061 150.361H269.362V152.562H270.827V148.895H267.061V150.361Z" fill="#D0F6FF"/>
<path d="M265.597 156.334H263.295V154.134H261.831V157.906H265.597V156.334Z" fill="#D0F6FF"/>
<path d="M269.362 154.134V156.334H267.061V157.906H270.827V154.134H269.362Z" fill="#D0F6FF"/>
<path d="M323.235 193.427C323.235 193.427 321.038 214.488 321.247 220.67C321.457 226.748 320.306 231.987 327.105 231.253C333.905 230.52 336.415 203.801 335.474 199.924C334.532 196.047 332.963 187.559 323.235 193.427Z" fill="#FF8995"/>
<path d="M318.318 218.889C318.318 218.889 308.172 218.575 290.911 221.928C273.651 225.281 264.027 227.272 264.027 228.215C264.027 229.158 262.981 235.864 265.91 236.702C268.944 237.54 318.109 236.283 327.21 233.559C336.311 230.834 338.194 219.832 318.318 218.889Z" fill="#FF8995"/>
<path d="M335.055 153.191C335.055 153.191 330.662 156.125 326.164 167.756C325.013 170.689 319.992 187.874 319.992 187.874L325.118 190.074L335.16 184.206L335.055 153.191Z" fill="#CB2A50"/>
<path d="M330.662 165.136C330.662 165.136 329.616 169.851 326.896 174.252C324.072 178.653 318.737 183.997 319.469 191.855C320.201 199.714 326.792 203.172 327.21 208.725C327.733 214.278 325.222 233.558 324.281 236.178C323.34 238.797 336.52 241.417 346.144 240.579C355.768 239.74 370.622 237.33 371.459 236.492C372.296 235.654 370.203 224.023 373.132 217.003C376.061 209.878 387.359 189.026 387.359 189.026C387.359 189.026 378.99 165.031 377.107 164.298C375.12 163.564 330.662 165.136 330.662 165.136Z" fill="#D93456"/>
<path d="M348.341 148.161C348.341 148.161 348.341 154.029 356.5 153.61C364.659 153.086 372.4 144.389 372.4 144.389C372.4 144.389 382.861 153.715 391.857 160.526C399.075 166.079 358.906 186.511 358.906 186.511L329.825 168.384C329.825 168.384 332.231 154.239 334.846 153.191C337.775 151.933 341.332 149.419 348.341 148.161Z" fill="#D93456"/>
<path d="M390.706 159.897C390.706 159.897 386.94 162.412 379.723 168.803C372.505 175.195 373.446 182.53 375.538 191.227C378.258 202.543 380.873 208.83 380.873 208.83C380.873 208.83 404.305 203.801 405.142 201.6C405.979 199.609 398.029 162.202 390.706 159.897Z" fill="#CB2A50"/>
<path d="M390.602 228.738C390.602 228.738 381.083 229.053 363.613 230.624C346.144 232.196 336.311 233.244 336.206 234.187C336.206 235.13 334.323 241.731 337.252 242.779C340.181 243.932 389.242 247.494 398.552 245.818C407.862 244.141 410.268 231.672 390.602 228.738Z" fill="#FF9EA5"/>
<path d="M337.88 233.872C337.984 233.768 327.001 232.51 322.189 232.51C317.377 232.51 313.611 233.977 313.611 233.977L316.749 242.045L340.809 242.779L337.88 233.872Z" fill="#FF9EA5"/>
<path d="M403.678 202.752C399.389 204.743 387.15 207.572 382.652 208.515C384.848 216.479 388.51 229.472 390.183 234.187C392.589 241.207 392.171 248.228 400.644 244.77C403.468 243.617 406.293 241.836 406.816 235.34C407.548 225.595 405.456 210.925 403.678 202.752Z" fill="#FF9EA5"/>
<path d="M356.5 153.61C362.149 153.295 367.588 148.999 370.413 146.38C368.948 144.598 368.111 142.817 367.902 142.188V131.396L349.7 132.339V147.428C349.387 148.056 348.864 148.475 348.341 148.79C348.654 150.257 349.91 154.029 356.5 153.61Z" fill="#FF9EA5"/>
<path d="M349.7 134.12V142.608C349.7 142.608 362.462 148.371 367.797 145.332C370.622 143.76 368.843 139.045 368.53 131.187L349.7 134.12Z" fill="#1F4279"/>
<path d="M346.981 142.608C342.587 142.398 338.508 136.53 335.997 131.187C333.8 126.471 332.127 114.945 332.545 107.401C333.486 93.3603 339.867 74.9188 358.174 78.3766C388.3 84.0348 377.944 105.515 374.283 114.107C374.283 114.107 379.095 111.068 379.409 117.46C379.827 124.585 375.957 126.157 372.609 125.528C372.296 125.424 371.877 128.881 370.413 131.187C369.367 132.863 359.324 143.132 346.981 142.608Z" fill="#FF9EA5"/>
<path d="M349.596 132.339C348.027 135.063 343.842 135.692 341.646 133.282C341.123 132.653 342.169 131.815 342.692 132.444C344.366 134.33 347.399 133.492 348.55 131.501C348.968 130.872 350.014 131.606 349.596 132.339Z" fill="#052E84"/>
<path d="M345.307 127.834C345.098 127.834 342.901 128.043 342.378 127.1C341.96 126.367 341.96 121.861 341.96 119.87C341.96 119.556 342.169 119.346 342.483 119.346C342.796 119.346 343.006 119.556 343.006 119.87C343.006 122.804 343.11 126.052 343.319 126.471C343.529 126.681 345.098 126.786 345.516 126.681C345.621 126.576 345.83 126.576 346.039 126.576C346.353 126.681 346.458 126.995 346.353 127.31C346.248 127.729 345.83 127.834 345.307 127.834C345.412 127.834 345.307 127.834 345.307 127.834Z" fill="#052E84"/>
<path d="M349.805 112.326C350.433 112.116 354.199 112.012 354.826 112.221C355.977 112.64 357.232 113.164 357.651 113.479C359.743 115.155 354.931 112.64 351.583 114.002C349.805 114.736 348.759 114.736 348.759 113.793C348.759 112.955 349.282 112.536 349.805 112.326Z" fill="#052E84"/>
<path d="M355.573 119.307C355.612 117.572 354.707 116.144 353.552 116.118C352.397 116.092 351.429 117.478 351.39 119.213C351.351 120.949 352.256 122.377 353.411 122.403C354.566 122.429 355.534 121.043 355.573 119.307Z" fill="#052E84"/>
<path d="M356.5 130.139C358.58 130.139 360.266 128.544 360.266 126.576C360.266 124.609 358.58 123.014 356.5 123.014C354.42 123.014 352.734 124.609 352.734 126.576C352.734 128.544 354.42 130.139 356.5 130.139Z" fill="#E94F66"/>
<path d="M338.433 118.923C338.459 117.187 337.543 115.765 336.388 115.748C335.233 115.731 334.275 117.124 334.249 118.86C334.223 120.596 335.139 122.017 336.294 122.034C337.449 122.052 338.407 120.658 338.433 118.923Z" fill="#052E84"/>
<path d="M337.671 112.326C337.043 112.116 332.859 112.326 332.231 112.745C332.022 112.85 332.022 113.688 332.545 113.793C332.754 113.793 333.591 113.583 336.311 114.212C337.671 114.526 338.717 114.212 338.717 113.374C338.717 112.64 338.298 112.535 337.671 112.326Z" fill="#052E84"/>
<path d="M339.135 127.1C339.135 125.109 337.461 123.538 335.369 123.538C334.846 123.538 334.323 123.642 333.905 123.852C334.428 126.576 335.055 128.986 335.788 130.663C337.671 130.453 339.135 128.881 339.135 127.1Z" fill="#E94F66"/>
<path d="M340.809 100.905C340.809 100.905 340.39 105.934 350.851 104.782C359.533 103.839 363.613 106.877 365.078 119.346C365.914 126.157 363.927 150.152 363.09 154.972C362.253 159.792 387.254 156.439 390.811 152.772C394.368 149.209 396.355 142.922 396.983 139.674C397.61 136.426 389.66 120.604 387.987 111.278C386.313 101.953 385.058 90.3218 374.806 83.0919C364.555 75.8619 356.395 76.2811 349.387 77.6432C342.378 79.0054 336.52 90.5314 340.809 100.905Z" fill="#255290"/>
<path d="M345.098 80.8914C345.098 80.8914 340.39 80.577 336.625 84.454C332.963 88.3309 330.557 102.476 330.976 105.096C331.499 107.715 338.821 106.772 342.587 102.267C346.458 97.6564 345.83 81.9392 345.098 80.8914Z" fill="#255290"/>
<path d="M335.579 152.772C338.403 151.514 341.855 149.314 348.341 148.161C348.341 148.161 348.341 148.371 348.445 148.685C348.968 148.371 349.387 147.952 349.7 147.323V142.503C348.759 142.608 347.922 142.608 346.981 142.608C342.587 142.398 338.508 136.531 335.997 131.187C334.323 127.729 332.963 120.394 332.545 113.793C332.126 113.688 332.127 112.85 332.231 112.745C332.231 112.745 332.336 112.64 332.44 112.64C332.336 110.754 332.336 108.973 332.44 107.401C332.65 104.572 333.068 101.429 333.696 98.3901L330.871 103.21C330.871 103.21 328.256 135.378 328.256 143.237C328.57 148.895 332.336 151.2 335.579 152.772Z" fill="#255290"/>
<path d="M355.245 238.169L315.18 238.274V245.504H362.149L355.245 238.169Z" fill="#DE4266"/>
<path d="M224.905 245.504H317.795L300.431 185.149H210.469L224.905 245.504Z" fill="#D93456"/>
<path d="M300.431 185.149L304.092 181.167L321.457 241.522L317.795 245.503L300.431 185.149Z" fill="#DE4266"/>
<path d="M210.469 185.149L214.235 181.167H304.092L300.431 185.149H210.469Z" fill="#E64B75"/>
<path d="M261.998 224.03C265.655 223.48 268.083 219.461 267.422 215.055C266.761 210.648 263.261 207.522 259.605 208.073C255.948 208.623 253.52 212.641 254.181 217.048C254.842 221.454 258.342 224.58 261.998 224.03Z" fill="#E64B75"/>
<path d="M411 245.189H0V252H411V245.189Z" fill="#335F9B"/>
</svg>
