<svg version="1.1" id="Capa_1" xmlns="http://www.w3.org/2000/svg" xmlns:xlink="http://www.w3.org/1999/xlink" x="0px" y="0px"
	 viewBox="0 0 250 80" enable-background="new 0 0 250 80" xml:space="preserve">
<path fill="#FF632D" d="M14.7,22.3c-0.9,0-1.4,0.4-1.6,1.3L3.4,56.3c-0.3,0.8,0.1,1.3,0.9,1.3h4.3c0.9,0,1.2-0.5,1.5-1.3l1.8-6.3
	h9.7l1.9,6.3c0.3,0.8,0.6,1.3,1.5,1.3h4.7c0.9,0,1.2-0.5,0.9-1.3l-9.7-32.7c-0.3-0.9-0.7-1.3-1.7-1.3H14.7z M20,44.4h-6.6l1.8-5.8
	c0.7-2.3,1.3-6.8,1.6-9.5c0.3,2.6,0.8,7.1,1.5,9.5L20,44.4z M60.8,46.4c0-0.9-0.3-1.3-1.2-1.3h-4.3c-0.9,0-1.3,0.4-1.3,1.3v2
	c0,2.6-1.8,3.9-5.3,3.9c-3.5,0-5.2-1.3-5.2-3.9V31.6c0-2.6,1.8-3.9,5.2-3.9c3.5,0,5.3,1.3,5.3,3.9v1.2c0,0.9,0.4,1.3,1.3,1.3h4.3
	c0.9,0,1.2-0.4,1.2-1.3v-2.5c0-4.4-2.8-8.5-12.2-8.5c-9.4,0-12.2,4.1-12.2,8.5v19.2c0,4.4,2.8,8.5,12.2,8.5c9.4,0,12.2-4.1,12.2-8.5
	V46.4z M77.6,22.3c-0.9,0-1.4,0.4-1.6,1.3l-9.7,32.7c-0.3,0.8,0.1,1.3,0.9,1.3h4.3c0.9,0,1.2-0.5,1.5-1.3l1.8-6.3h9.7l1.9,6.3
	c0.3,0.8,0.6,1.3,1.5,1.3h4.7c0.9,0,1.2-0.5,0.9-1.3l-9.7-32.7c-0.3-0.9-0.7-1.3-1.7-1.3H77.6z M82.9,44.4h-6.6l1.8-5.8
	c0.7-2.3,1.3-6.8,1.6-9.5c0.3,2.6,0.8,7.1,1.5,9.5L82.9,44.4z M113,57.6c9.4,0,12.7-4.1,12.7-8.5V30.8c0-4.4-3.3-8.5-12.7-8.5h-11.3
	c-0.9,0-1.2,0.4-1.2,1.3v32.6c0,0.9,0.3,1.4,1.1,1.4H113z M113,28.1c3.5,0,5.7,1.3,5.7,3.9v15.9c0,2.6-2.1,3.9-5.7,3.9h-5.6V28.1
	H113z M154.5,57.6c0.9,0,1.3-0.4,1.3-1.3v-3.3c0-0.9-0.4-1.2-1.3-1.2H142v-9.7h11.1c0.9,0,1.4-0.4,1.4-1.2v-3.1
	c0-0.9-0.4-1.2-1.4-1.2H142v-8.4h12c0.9,0,1.3-0.4,1.3-1.3v-3.3c0-0.9-0.4-1.2-1.3-1.2h-17.8c-0.9,0-1.2,0.4-1.2,1.3v32.6
	c0,0.9,0.3,1.4,1.2,1.4H154.5z M195.6,23.6c0-0.9-0.3-1.3-1.2-1.3h-4.3c-0.6,0-1,0.2-1.2,0.6l-7.7,18.3c-0.4,0.9-0.9,2.3-1.4,3.6
	c-0.5-1.3-0.9-2.7-1.3-3.7L170.6,23c-0.2-0.5-0.5-0.7-1.1-0.7h-4.1c-0.9,0-1.2,0.4-1.2,1.3v32.7c0,0.9,0.3,1.3,1.2,1.3h4.1
	c0.9,0,1.2-0.4,1.2-1.3V36.7c0.4,1.6,0.9,3.1,1.2,3.9l4.4,10.4c0.4,0.8,0.8,1.4,1.7,1.4h3.7c0.8,0,1.3-0.5,1.7-1.4l3.9-9.6
	c0.4-1,1-2.9,1.5-4.8v19.8c0,0.9,0.3,1.3,1.2,1.3h4.3c0.9,0,1.2-0.4,1.2-1.3V23.6z M212.5,23.7c0-0.9-0.3-1.3-1.2-1.3h-4.5
	c-0.9,0-1.2,0.4-1.2,1.3v32.6c0,0.9,0.3,1.4,1.2,1.4h4.5c0.9,0,1.2-0.4,1.2-1.4V23.7z M230.8,22.3c-0.9,0-1.4,0.4-1.6,1.3l-9.7,32.7
	c-0.3,0.8,0.1,1.3,0.9,1.3h4.3c0.9,0,1.2-0.5,1.5-1.3L228,50h9.7l1.9,6.3c0.3,0.8,0.6,1.3,1.5,1.3h4.7c0.9,0,1.2-0.5,0.9-1.3
	L237,23.6c-0.3-0.9-0.7-1.3-1.7-1.3H230.8z M236.2,44.4h-6.6l1.8-5.8c0.7-2.3,1.3-6.8,1.6-9.5c0.3,2.6,0.8,7.1,1.5,9.5L236.2,44.4z"
	/>
</svg>
