<svg fill="#FF632D" version="1.1" id="Capa_1" xmlns="http://www.w3.org/2000/svg" xmlns:xlink="http://www.w3.org/1999/xlink" x="0px" y="0px"
	 viewBox="0 0 250 80" enable-background="new 0 0 250 80" xml:space="preserve">
<g>
	<path d="M50.5,49.6c0,4.4-2.8,8.5-12.2,8.5c-9.4,0-12.2-4.1-12.2-8.5V30.4c0-4.4,2.8-8.5,12.2-8.5
		c9.4,0,12.2,4.1,12.2,8.5v2.5c0,0.9-0.3,1.3-1.2,1.3H45c-0.9,0-1.3-0.4-1.3-1.3v-1.2c0-2.6-1.8-3.9-5.3-3.9c-3.5,0-5.2,1.3-5.2,3.9
		v16.7c0,2.6,1.8,3.9,5.2,3.9c3.5,0,5.3-1.3,5.3-3.9v-2c0-0.9,0.4-1.3,1.3-1.3h4.3c0.9,0,1.2,0.4,1.2,1.3V49.6z"/>
	<path d="M76.5,31.6c0-2.6-2.1-3.9-5.6-3.9c-3.5,0-5.6,1.3-5.6,3.9v16.7c0,2.6,2.1,3.9,5.6,3.9
		c3.5,0,5.6-1.3,5.6-3.9V31.6z M58.3,30.4c0-4.4,3.2-8.5,12.6-8.5c9.4,0,12.6,4.1,12.6,8.5v19.2c0,4.4-3.2,8.5-12.6,8.5
		c-9.4,0-12.6-4.1-12.6-8.5V30.4z"/>
	<path d="M99.9,51.9h11.6c0.9,0,1.3,0.3,1.3,1.2v3.3c0,0.9-0.4,1.3-1.3,1.3H94c-0.8,0-1.1-0.5-1.1-1.4V23.7
		c0-0.9,0.3-1.4,1.2-1.4h4.5c0.9,0,1.2,0.4,1.2,1.4V51.9z"/>
	<path d="M121.6,57.7c-0.9,0-1.2-0.4-1.2-1.4V23.7c0-0.9,0.3-1.4,1.2-1.4h17.8c0.9,0,1.3,0.3,1.3,1.2v3.3
		c0,0.9-0.4,1.3-1.3,1.3h-12v8.4h11.1c0.9,0,1.4,0.3,1.4,1.2v3.1c0,0.9-0.4,1.2-1.4,1.2h-11.1v9.7h12.5c0.9,0,1.3,0.3,1.3,1.2v3.3
		c0,0.9-0.4,1.3-1.3,1.3H121.6z"/>
	<path d="M172.1,39.1c0.9,0,1.3,0.3,1.3,1.2v9.3c0,4.4-2.8,8.5-12.2,8.5c-9.4,0-12.2-4.1-12.2-8.5V30.4
		c0-4.4,2.8-8.5,12.2-8.5c9.4,0,12.2,4.1,12.2,8.5v2.1c0,0.9-0.3,1.3-1.2,1.3h-4.3c-0.9,0-1.3-0.4-1.3-1.3v-0.8
		c0-2.6-1.8-3.9-5.3-3.9c-3.5,0-5.3,1.3-5.3,3.9v16.7c0,2.6,1.8,3.9,5.3,3.9c3.5,0,5.3-1.3,5.3-3.8v-3.5h-5.1
		c-0.9,0-1.4-0.3-1.4-1.2v-3.3c0-0.9,0.4-1.2,1.4-1.2H172.1z"/>
	<path d="M189.4,56.3c0,0.9-0.3,1.4-1.2,1.4h-4.5c-0.9,0-1.2-0.4-1.2-1.4V23.7c0-0.9,0.3-1.4,1.2-1.4h4.5
		c0.9,0,1.2,0.4,1.2,1.4V56.3z"/>
	<path d="M216.9,31.6c0-2.6-2.1-3.9-5.6-3.9c-3.5,0-5.6,1.3-5.6,3.9v16.7c0,2.6,2.1,3.9,5.6,3.9
		c3.5,0,5.6-1.3,5.6-3.9V31.6z M198.6,30.4c0-4.4,3.2-8.5,12.6-8.5c9.4,0,12.6,4.1,12.6,8.5v19.2c0,4.4-3.2,8.5-12.6,8.5
		c-9.4,0-12.6-4.1-12.6-8.5V30.4z"/>
	<path d="M50.5,49.6c0,4.4-2.8,8.5-12.2,8.5c-9.4,0-12.2-4.1-12.2-8.5V30.4c0-4.4,2.8-8.5,12.2-8.5
		c9.4,0,12.2,4.1,12.2,8.5v2.5c0,0.9-0.3,1.3-1.2,1.3H45c-0.9,0-1.3-0.4-1.3-1.3v-1.2c0-2.6-1.8-3.9-5.3-3.9c-3.5,0-5.2,1.3-5.2,3.9
		v16.7c0,2.6,1.8,3.9,5.2,3.9c3.5,0,5.3-1.3,5.3-3.9v-2c0-0.9,0.4-1.3,1.3-1.3h4.3c0.9,0,1.2,0.4,1.2,1.3V49.6z"/>
	<path d="M76.5,31.6c0-2.6-2.1-3.9-5.6-3.9c-3.5,0-5.6,1.3-5.6,3.9v16.7c0,2.6,2.1,3.9,5.6,3.9
		c3.5,0,5.6-1.3,5.6-3.9V31.6z M58.3,30.4c0-4.4,3.2-8.5,12.6-8.5c9.4,0,12.6,4.1,12.6,8.5v19.2c0,4.4-3.2,8.5-12.6,8.5
		c-9.4,0-12.6-4.1-12.6-8.5V30.4z"/>
	<path d="M99.9,51.9h11.6c0.9,0,1.3,0.3,1.3,1.2v3.3c0,0.9-0.4,1.3-1.3,1.3H94c-0.8,0-1.1-0.5-1.1-1.4V23.7
		c0-0.9,0.3-1.4,1.2-1.4h4.5c0.9,0,1.2,0.4,1.2,1.4V51.9z"/>
	<path d="M121.6,57.7c-0.9,0-1.2-0.4-1.2-1.4V23.7c0-0.9,0.3-1.4,1.2-1.4h17.8c0.9,0,1.3,0.3,1.3,1.2v3.3
		c0,0.9-0.4,1.3-1.3,1.3h-12v8.4h11.1c0.9,0,1.4,0.3,1.4,1.2v3.1c0,0.9-0.4,1.2-1.4,1.2h-11.1v9.7h12.5c0.9,0,1.3,0.3,1.3,1.2v3.3
		c0,0.9-0.4,1.3-1.3,1.3H121.6z"/>
	<path d="M172.1,39.1c0.9,0,1.3,0.3,1.3,1.2v9.3c0,4.4-2.8,8.5-12.2,8.5c-9.4,0-12.2-4.1-12.2-8.5V30.4
		c0-4.4,2.8-8.5,12.2-8.5c9.4,0,12.2,4.1,12.2,8.5v2.1c0,0.9-0.3,1.3-1.2,1.3h-4.3c-0.9,0-1.3-0.4-1.3-1.3v-0.8
		c0-2.6-1.8-3.9-5.3-3.9c-3.5,0-5.3,1.3-5.3,3.9v16.7c0,2.6,1.8,3.9,5.3,3.9c3.5,0,5.3-1.3,5.3-3.8v-3.5h-5.1
		c-0.9,0-1.4-0.3-1.4-1.2v-3.3c0-0.9,0.4-1.2,1.4-1.2H172.1z"/>
	<path d="M189.4,56.3c0,0.9-0.3,1.4-1.2,1.4h-4.5c-0.9,0-1.2-0.4-1.2-1.4V23.7c0-0.9,0.3-1.4,1.2-1.4h4.5
		c0.9,0,1.2,0.4,1.2,1.4V56.3z"/>
	<path d="M216.9,31.6c0-2.6-2.1-3.9-5.6-3.9c-3.5,0-5.6,1.3-5.6,3.9v16.7c0,2.6,2.1,3.9,5.6,3.9
		c3.5,0,5.6-1.3,5.6-3.9V31.6z M198.6,30.4c0-4.4,3.2-8.5,12.6-8.5c9.4,0,12.6,4.1,12.6,8.5v19.2c0,4.4-3.2,8.5-12.6,8.5
		c-9.4,0-12.6-4.1-12.6-8.5V30.4z"/>
</g>
</svg>
