<svg id="Capa_1" data-name="Capa 1" xmlns="http://www.w3.org/2000/svg" viewBox="0 0 116.94 37.45"><title>logo-trilce</title><path d="M54.34,11.55a3.73,3.73,0,1,0-3.73-3.73,3.73,3.73,0,0,0,3.73,3.73" transform="translate(-1 -1.06)" style="fill:#f4633a"/><path d="M69.19,33.39a1,1,0,0,1-1-1V1.06H62.14V33.78a4.74,4.74,0,0,0,4.74,4.73h4.6V33.39Z" transform="translate(-1 -1.06)" style="fill:#f4633a"/><polygon points="0 2.28 0 10.21 5.12 10.21 5.12 8.15 12.95 8.15 12.95 32.33 10.6 32.33 10.6 37.45 21.68 37.45 21.68 32.33 19.33 32.33 19.33 8.15 27.16 8.15 27.16 10.21 32.24 10.21 32.24 2.28 0 2.28" style="fill:#f4633a"/><polygon points="56.41 32.33 56.41 14.14 43.4 14.14 43.4 19.29 50.36 19.29 50.36 32.33 43.4 32.33 43.4 37.45 58.86 37.45 58.86 32.33 56.41 32.33" style="fill:#f4633a"/><polygon points="27.16 14.14 27.16 32.33 24.71 32.33 24.71 37.45 40.37 37.45 40.37 32.33 33.22 32.33 33.22 19.29 40.37 19.29 40.37 14.14 30.84 14.16 27.16 14.14" style="fill:#f4633a"/><path d="M101.24,24.5a4.78,4.78,0,0,1,.63-2.07,5.38,5.38,0,0,1,1.38-1.54,6.28,6.28,0,0,1,1.88-.95,7.57,7.57,0,0,1,2.21-.32,5,5,0,0,1,3.78,1.31,5,5,0,0,1,1.24,3.57Zm15.62-4.61a8.49,8.49,0,0,0-2.51-3A9.68,9.68,0,0,0,111,15.37a15,15,0,0,0-8.34.3,10.83,10.83,0,0,0-3.86,2.23,10.47,10.47,0,0,0-2.6,3.73,13.32,13.32,0,0,0-1,5.22,17.18,17.18,0,0,0,.11,1.94,13.12,13.12,0,0,0,.73,3.07,10.36,10.36,0,0,0,4.3,5c2,1.19,4.84,1.67,8.7,1.67s5.81-.16,5.81-.16v-5s-2.7,0-6,0c-4.88,0-6.53-3-6.87-3.81a7.3,7.3,0,0,1-.26-.79h16c.46-2.24.26-6.73-.85-8.9" transform="translate(-1 -1.06)" style="fill:#f4633a"/><path d="M93,24.61V17a.59.59,0,0,0-.35-.54,24.44,24.44,0,0,0-3-1,18.56,18.56,0,0,0-4.75-.59,15.65,15.65,0,0,0-5,.79,11.55,11.55,0,0,0-4,2.33,10.81,10.81,0,0,0-2.65,3.76,12.84,12.84,0,0,0-.95,5.07A13.94,13.94,0,0,0,73,31.76a9.75,9.75,0,0,0,2.22,3.62c1.66,1.74,4.88,3,8.62,3.12h7.48V33.39H85.56a9.36,9.36,0,0,1-5.41-1.72,6.54,6.54,0,0,1-1.41-2.13,7,7,0,0,1-.49-2.67,6.85,6.85,0,0,1,.61-3,6.26,6.26,0,0,1,1.58-2.11,6.18,6.18,0,0,1,2.22-1.22,8.63,8.63,0,0,1,2.51-.38,12.87,12.87,0,0,1,2.81.31v4.17Z" transform="translate(-1 -1.06)" style="fill:#f4633a"/></svg>