<?xml version="1.0" encoding="utf-8"?>
<!-- Generator: Adobe Illustrator 22.0.1, SVG Export Plug-In . SVG Version: 6.00 Build 0)  -->
<svg version="1.1" id="Capa_1" xmlns="http://www.w3.org/2000/svg" xmlns:xlink="http://www.w3.org/1999/xlink" x="0px" y="0px"
	 viewBox="0 0 350 280" style="enable-background:new 0 0 350 280;" xml:space="preserve">
<style type="text/css">
	.st0{clip-path:url(#SVGID_2_);fill-rule:evenodd;clip-rule:evenodd;fill:#FFDD52;}
	.st1{clip-path:url(#SVGID_2_);}
	.st2{fill-rule:evenodd;clip-rule:evenodd;fill:#FFFFFF;}
	.st3{fill:#040962;}
	.st4{fill:#FFFFFF;}
	.st5{fill:#3C4AA0;}
	.st6{fill:#111A75;}
	.st7{fill:#B4B0FA;}
	.st8{fill:#101A77;}
	.st9{fill:#FCC7A9;}
	.st10{fill:#FE5A75;}
	.st11{fill:#00BDFF;}
	.st12{fill:#00AEF9;}
	.st13{fill:#FFA780;}
	.st14{fill:#FF8DA3;}
	.st15{fill:#F9F9F9;}
	.st16{fill:#F9FBFC;}
	.st17{fill:#6161C9;}
	.st18{fill:#7F7FDD;}
	.st19{opacity:0.28;fill:#6161C9;}
	.st20{fill:#553F77;}
	.st21{fill:#5A91FF;}
	.st22{fill:#362656;}
	.st23{fill:#7859B5;}
	.st24{fill:#735F99;}
	.st25{fill:#FF6498;}
	.st26{fill:#FFEE4D;}
	.st27{fill:#A4A4F4;}
	.st28{fill:#FF948E;}
</style>
<g>
	<defs>
		<rect id="SVGID_1_" transform="matrix(-1 -1.224647e-16 1.224647e-16 -1 350 280)" width="350" height="280"/>
	</defs>
	<clipPath id="SVGID_2_">
		<use xlink:href="#SVGID_1_"  style="overflow:visible;"/>
	</clipPath>
	<rect x="-56.4" y="-60.9" class="st0" width="461.7" height="461.7"/>
	<g class="st1">
		<path class="st2" d="M63.9,293.8c-28.8,0-52.4-23.6-52.4-52.4l0,0c0-28.8,23.6-52.4,52.4-52.4l0,0c12.2,0,22.1-10,22.1-22.1l0,0
			c0-12.2-10-22.1-22.1-22.1h-2.6c-12.7,0-23-10.4-23-23l0,0c0-12.7,10.4-23,23-23h8.1c4.9,0,9-4,9-9l0,0c0-4.9-4-9-9-9h-5.9
			c-3.4,0-6.2-2.8-6.2-6.2l0,0c0-3.4,2.8-6.2,6.2-6.2h39.9c5.3,0,9.7-4.4,9.7-9.7l0,0c0-5.3-4.4-9.7-9.7-9.7H91.4
			c-3.4,0-6.2-2.8-6.2-6.2v0c0-3.4,2.8-6.2,6.2-6.2h170c4.4,0,8.1,3.6,8.1,8.1v0c0,4.4-3.6,8.1-8.1,8.1h-12.5
			c-7,0-12.7,5.7-12.7,12.7v0c0,7,5.7,12.7,12.7,12.7h52.5c4.4,0,8.1,3.6,8.1,8.1l0,0c0,4.4-3.6,8.1-8.1,8.1h-7.8
			c-6.4,0-11.7,5.3-11.7,11.7l0,0c0,6.4,5.3,11.7,11.7,11.7h10.5c16.5,0,30,13.5,30,30l0,0c0,16.5-13.5,30-30,30h-3.4
			c-15.9,0-28.9,13-28.9,28.9l0,0c0,15.9,13,28.9,28.9,28.9h7.4c16,0,29.1,13.1,29.1,29.1l0,0c0,16-13.1,29.1-29.1,29.1
			C225.3,293.8,146.8,293.8,63.9,293.8L63.9,293.8z M282,52.7c4.5,0,8.1-3.6,8.1-8.1c0-4.5-3.6-8.1-8.1-8.1c-4.5,0-8.1,3.6-8.1,8.1
			C273.9,49.1,277.5,52.7,282,52.7L282,52.7z M46,80.7c3.4,0,6.2-2.8,6.2-6.2c0-3.4-2.8-6.2-6.2-6.2c-3.4,0-6.2,2.8-6.2,6.2
			C39.8,78,42.6,80.7,46,80.7z"/>
	</g>
	<g class="st1">
		<g>
			<g>
				<g>
					<path class="st6" d="M90.4,155.4l23.5,127.3h27.8c0,0-7.9-2.7-9-20.6c-0.6-9,0.6-21.9,5.4-40.3h-1.4c-5.3,0-9.7-4.3-9.7-9.7
						v-67.4c0-1,0.1-2,0.4-3h-25.5C94.6,141.7,89.1,148.3,90.4,155.4z"/>
					<path class="st7" d="M101.3,155.4l23.5,127.3h16.9c0,0-7.9-2.7-9-20.6c-0.6-9,0.6-21.9,5.4-40.3h-1.4c-5.3,0-9.7-4.3-9.7-9.7
						v-67.4c0-1,0.1-2,0.4-3h-14.7C105.4,141.7,99.9,148.3,101.3,155.4z"/>
				</g>
			</g>
			<g>
				<path class="st3" d="M138,132.2L138,132.2c0,0,6.6-22.3,6.6-46.3c0-24,9.3-32.2,19.4-32.2h21.4c11.7,0,21.4,9.2,22.1,20.9
					c0.6,9.8,1.4,20.6,2.7,26.7c2.7,12.9,8.2,37.9,12.9,51c4.8,13.1,1,24.4-10.7,24.6c0,0,1,23.8-30.7,17.3
					c-30-6.1-50.2-15.2-47-51.3C135.3,139.2,136.3,135.5,138,132.2z"/>
				<path class="st8" d="M196.7,80.8c2,0,3.9-0.3,5.4-1.3c1.5-1,2.3-2.5,2.5-4.5c0.7-9-6.6-14.6-6.9-14.9c-0.2-0.2-0.5-0.1-0.6,0.1
					c-0.2,0.2-0.1,0.5,0.1,0.6c0.1,0.1,7.2,5.6,6.5,14.1c-0.1,1.7-0.8,3-2.1,3.8c-4,2.6-12.3-0.1-12.4-0.1c-0.2-0.1-0.5,0.1-0.6,0.3
					c-0.1,0.2,0.1,0.5,0.3,0.6C189.2,79.5,193,80.8,196.7,80.8z"/>
				<path class="st8" d="M165.7,77.8c0.2,0,0.5-0.2,0.5-0.4c0-0.1,0.3-8.9,1.1-11.8c0.1-0.2-0.1-0.5-0.3-0.6
					c-0.3-0.1-0.5,0.1-0.6,0.3c-0.8,3-1.1,11.7-1.1,12.1C165.2,77.6,165.4,77.8,165.7,77.8C165.7,77.8,165.7,77.8,165.7,77.8z"/>
				<path class="st9" d="M129.9,136.7c37.6,19.9,65.7,12.1,75.4,8.3c-1.2-1-2.5-1.9-3.8-2.7c-5.4-3.2-12.8-7.7-17.2-10.6
					c-3.5-2.3-4.7-6.1-5-9.6c-0.3-4,0.6-7.5,0.6-7.5h3.1c9.2,0,16.6-7.4,16.6-16.6V77.3h-33.8l-4.6,40.7c-0.9,8-7.7,14.1-15.7,14.1
					h-5.7C135.7,132,132.2,133.9,129.9,136.7z"/>
				<path class="st10" d="M166.7,246.2c-6.5,3.3-17.2,18-34,16c-0.6-9,0.6-21.9,5.4-40.3h-1.4c-5.3,0-9.7-4.3-9.7-9.7v-67.4
					c0-3,1.1-5.8,2.8-8c37.6,19.9,65.7,12.2,75.4,8.3c2.6,2.2,4.9,4.8,6.6,7.8l23.2,39.1c1.4,2.4,4,3.9,6.8,3.9h2.3v21.9H238
					c-3.5,0-6.9-1.5-9.2-4.2l-26.1-30.3c0,0-6.4,22,1.2,57.2l0,0C203.9,240.3,174.2,242.3,166.7,246.2z"/>
				<path class="st11" d="M251.1,266.7c10.6,2.9,4.1,35.6,4.1,35.6l0,0c-0.1,0.5-5,38.8-3.4,41.7c1.6,2.9,4.1,9.5-3.4,14.4
					c0,0,3.4,12.4-8.6,11h-3.4l0,0h-13.8l-0.8-86.8h-21.4C213.6,276.9,242.9,264.5,251.1,266.7z"/>
				<path class="st12" d="M166.7,246.2c7.4-3.8,37.2-5.9,37.2-5.9l0,0c0,0,0,0,0,0c0,0,34.7-7.7,42.6,0c7.9,7.7,39.7,43.3,42.4,53.2
					c1.7,6.4,0,10.6,0,10.6s6.1,2.4,7.9,6.1c3.8,7.9-3.8,14-3.8,14l0,0c0,0-4.6,1-10.8,8.5l-27.1-30.4c0,0,0,0,0,0l0,0
					c0,0,6.5-32.7-4.1-35.6c-8.1-2.3-37.5,10.2-50.6,16h-58.8c0,0-7.9-2.7-9-20.6C149.6,264.2,160.3,249.5,166.7,246.2z"/>
				<path class="st13" d="M170.1,114.6c0,0,4.6,7.6,9,7.5c-0.3-4,0.6-7.5,0.6-7.5H170.1z"/>
				<g>
					<path class="st14" d="M202.7,183.6c0.2,0,0.4-0.1,0.4-0.3c0.1-0.1,5.1-15.1-3.3-29.1c-0.1-0.2-0.4-0.3-0.6-0.2
						c-0.2,0.1-0.3,0.4-0.2,0.6c8.1,13.6,3.3,28.2,3.2,28.3c-0.1,0.2,0,0.5,0.3,0.6C202.6,183.5,202.6,183.6,202.7,183.6z"/>
					<path class="st14" d="M192,208.8c0.2,0,0.4-0.2,0.5-0.4c0-0.3-0.1-0.5-0.4-0.5l-48.3-6.7l2.9-48.7c0-0.3-0.2-0.5-0.4-0.5
						c-0.3,0-0.5,0.2-0.5,0.4l-2.9,49.2c0,0.2,0.2,0.5,0.4,0.5L192,208.8C191.9,208.8,192,208.8,192,208.8z"/>
					<path class="st14" d="M192,222.2c0.2,0,0.3-0.1,0.4-0.2l1-1.6c0.1-0.2,0.1-0.5-0.1-0.6c-0.2-0.1-0.5-0.1-0.6,0.1l-0.9,1.4
						l-52.5-0.1h0c-0.3,0-0.5,0.2-0.5,0.5c0,0.3,0.2,0.5,0.5,0.5L192,222.2L192,222.2z"/>
				</g>
				<path class="st15" d="M154.6,62.4c0.1,0.1,0.2,0.2,0.4,0.2c0.1,0,0.2,0,0.2-0.1l13.9-8c-0.3,0.9-0.5,1.9-0.5,2.9
					c0,4.7,3.8,8.5,8.5,8.5c4.7,0,8.5-3.8,8.5-8.5c0-1.5-0.4-2.9-1.1-4.2c3.5-1.6,5.5-0.6,6.2-0.1c-0.8,1.3-1.2,2.7-1.2,4.3
					c0,4.7,3.8,8.5,8.5,8.5s8.5-3.8,8.5-8.5S202.7,49,198,49c-2.8,0-5.2,1.3-6.8,3.4c-0.9-0.6-3.3-1.7-7.2,0.1
					c-1.5-2.1-4.1-3.5-6.9-3.5c-3.1,0-5.8,1.7-7.3,4.1l-15.1,8.6C154.5,61.9,154.4,62.2,154.6,62.4z M190.4,57.5
					c0-4.2,3.4-7.6,7.6-7.6c4.2,0,7.6,3.4,7.6,7.6s-3.4,7.6-7.6,7.6C193.8,65.1,190.4,61.7,190.4,57.5z M169.5,57.5
					c0-4.2,3.4-7.6,7.6-7.6c4.2,0,7.6,3.4,7.6,7.6s-3.4,7.6-7.6,7.6C172.9,65.1,169.5,61.7,169.5,57.5z"/>
			</g>
			<path class="st16" d="M86.9,214c0,3.3,2.3,6,5,6c0,0,0,0,0,0v4c0,0.4,0.3,0.8,0.8,0.8h15.8c0.4,0,0.8-0.3,0.8-0.8v-19.3
				c0-0.4-0.3-0.8-0.8-0.8H92.7c-0.4,0-0.8,0.3-0.8,0.8v3.3c0,0,0,0,0,0C89.2,208,86.9,210.7,86.9,214z M88.8,214
				c0-2.3,1.4-4.2,3.2-4.2c0,0,0,0,0,0v8.3c0,0,0,0,0,0C90.2,218.2,88.8,216.3,88.8,214z"/>
			<g>
				<polygon class="st3" points="103.6,236.9 109.6,236.9 165.8,402.8 159.9,402.8 106.6,245.4 53.3,402.8 47.4,402.8 				"/>
				<polygon class="st3" points="342.2,236.9 398.4,402.8 392.6,402.8 339.2,245.4 285.9,402.8 280,402.8 336.3,236.9 				"/>
			</g>
			<g>
				<g>
					<polygon class="st17" points="321.9,180.8 327.3,202.5 332.1,222.5 360.6,222.5 349.4,189.9 346.3,180.8 					"/>
					<polygon class="st4" points="320.1,180.8 325.7,203.4 330.3,222.5 358.8,222.5 347.9,190.7 344.5,180.8 					"/>
					<path class="st18" d="M323.6,220.1h46.3c1,0,1.7,0.8,1.7,1.7v1.3c0,1-0.8,1.7-1.7,1.7h-46.3c-1,0-1.7-0.8-1.7-1.7v-1.3
						C321.8,220.8,322.6,220.1,323.6,220.1z"/>
					<polygon class="st19" points="320.1,180.8 325.7,203.4 327.3,202.5 347.9,190.7 349.4,189.9 346.3,180.8 					"/>
				</g>
				<g>
					<path class="st18" d="M273.3,187.1h103.8c1.5,0,2.9-1.2,3.2-2.7l12.7-66.7c0.1-0.7,0-1.4-0.4-1.9l-0.3-0.4
						c-0.4-0.5-1-0.8-1.8-0.8H286.7c-1.5,0-2.9,1.2-3.2,2.7L270.8,184c-0.1,0.7,0,1.4,0.4,1.9l0.3,0.4
						C272,186.8,272.6,187.1,273.3,187.1z"/>
					<path class="st4" d="M273.3,185.1h102.2c1.5,0,2.9-1.2,3.2-2.7l12.4-65.1c0.3-1.5-0.7-2.7-2.2-2.7H286.7
						c-1.5,0-2.9,1.2-3.2,2.7l-12.4,65.1C270.8,183.9,271.8,185.1,273.3,185.1z"/>
					<path class="st20" d="M274.7,182.7H375c0.5,0,1-0.4,1.2-1l12.2-63.8c0.1-0.5-0.2-1-0.8-1H287.3c-0.5,0-1,0.4-1.2,1L274,181.8
						C273.9,182.3,274.2,182.7,274.7,182.7z"/>
					<g>
						<g>
							<path class="st23" d="M350.2,123.7h-1.5c-0.4,0-0.7-0.3-0.6-0.8c0.1-0.4,0.5-0.8,0.9-0.8h1.5c0.4,0,0.7,0.3,0.6,0.8
								C351,123.3,350.6,123.7,350.2,123.7z"/>
							<path class="st23" d="M334.9,123.7h-5c-0.4,0-0.7-0.3-0.6-0.8c0.1-0.4,0.5-0.8,0.9-0.8h5c0.4,0,0.7,0.3,0.6,0.8
								C335.7,123.3,335.3,123.7,334.9,123.7z"/>
							<path class="st24" d="M345.6,123.7H338c-0.4,0-0.7-0.3-0.6-0.8c0.1-0.4,0.5-0.8,0.9-0.8h7.6c0.4,0,0.7,0.3,0.6,0.8
								C346.4,123.3,346,123.7,345.6,123.7z"/>
							<path class="st24" d="M342.7,126.7H358c0.4,0,0.7,0.3,0.6,0.8c-0.1,0.4-0.5,0.8-0.9,0.8h-15.3c-0.4,0-0.7-0.3-0.6-0.8
								C341.9,127,342.3,126.7,342.7,126.7z"/>
							<path class="st23" d="M337.1,128.2c-0.4,0-0.7-0.3-0.6-0.8c0.1-0.4,0.5-0.8,0.9-0.8h2.3c0.4,0,0.7,0.3,0.6,0.8
								c-0.1,0.4-0.5,0.8-0.9,0.8H337.1z"/>
							<path class="st24" d="M329.3,126.7h5c0.4,0,0.7,0.3,0.6,0.8c-0.1,0.4-0.5,0.8-0.9,0.8h-5c-0.4,0-0.7-0.3-0.6-0.8
								C328.5,127,328.9,126.7,329.3,126.7z"/>
							<path class="st23" d="M346.9,132.8c-0.4,0-0.7-0.3-0.6-0.8c0.1-0.4,0.5-0.8,0.9-0.8h1.5c0.4,0,0.7,0.3,0.6,0.8
								s-0.5,0.8-0.9,0.8H346.9z"/>
							<path class="st21" d="M344.8,132c-0.1,0.4-0.5,0.8-0.9,0.8h-7.6c-0.4,0-0.7-0.3-0.6-0.8c0.1-0.4,0.5-0.8,0.9-0.8h7.6
								C344.6,131.3,344.8,131.6,344.8,132z"/>
							<path class="st21" d="M328.5,131.3h5c0.4,0,0.7,0.3,0.6,0.8c-0.1,0.4-0.5,0.8-0.9,0.8h-5c-0.4,0-0.7-0.3-0.6-0.8
								C327.6,131.6,328,131.3,328.5,131.3z"/>
							<path class="st24" d="M327.6,135.8h5c0.4,0,0.7,0.3,0.6,0.8c-0.1,0.4-0.5,0.8-0.9,0.8h-5c-0.4,0-0.7-0.3-0.6-0.8
								C326.8,136.2,327.2,135.8,327.6,135.8z"/>
							<path class="st22" d="M335.6,135.8h2.3c0.4,0,0.7,0.3,0.6,0.8c-0.1,0.4-0.5,0.8-0.9,0.8h-2.3c-0.4,0-0.7-0.3-0.6-0.8
								C334.8,136.2,335.2,135.8,335.6,135.8z"/>
							<path class="st24" d="M340.1,136.6c0.1-0.4,0.5-0.8,0.9-0.8h15.3c0.4,0,0.7,0.3,0.6,0.8c-0.1,0.4-0.5,0.8-0.9,0.8h-15.3
								C340.3,137.4,340,137,340.1,136.6z"/>
							<path class="st21" d="M326.7,140.4h2c0.4,0,0.7,0.3,0.6,0.8c-0.1,0.4-0.5,0.8-0.9,0.8h-2c-0.4,0-0.7-0.3-0.6-0.8
								C325.9,140.7,326.3,140.4,326.7,140.4z"/>
							<path class="st21" d="M343,141.2c0.1-0.4,0.5-0.8,0.9-0.8h1.5c0.4,0,0.7,0.3,0.6,0.8c-0.1,0.4-0.5,0.8-0.9,0.8h-1.5
								C343.2,141.9,342.9,141.6,343,141.2z"/>
							<path class="st24" d="M348.5,140.4h15.3c0.4,0,0.7,0.3,0.6,0.8c-0.1,0.4-0.5,0.8-0.9,0.8h-15.3c-0.4,0-0.7-0.3-0.6-0.8
								C347.7,140.7,348.1,140.4,348.5,140.4z"/>
							<path class="st24" d="M330.8,141.2c0.1-0.4,0.5-0.8,0.9-0.8h9.2c0.4,0,0.7,0.3,0.6,0.8c-0.1,0.4-0.5,0.8-0.9,0.8h-9.2
								C331,141.9,330.7,141.6,330.8,141.2z"/>
							<path class="st24" d="M333.9,145h7.6c0.4,0,0.7,0.3,0.6,0.8c-0.1,0.4-0.5,0.8-0.9,0.8h-7.6c-0.4,0-0.7-0.3-0.6-0.8
								C333.1,145.3,333.5,145,333.9,145z"/>
							<path class="st24" d="M325.9,145h5c0.4,0,0.7,0.3,0.6,0.8c-0.1,0.4-0.5,0.8-0.9,0.8h-5c-0.4,0-0.7-0.3-0.6-0.8
								C325,145.3,325.4,145,325.9,145z"/>
							<path class="st21" d="M345.8,146.5h-1.5c-0.4,0-0.7-0.3-0.6-0.8c0.1-0.4,0.5-0.8,0.9-0.8h1.5c0.4,0,0.7,0.3,0.6,0.8
								C346.7,146.1,346.3,146.5,345.8,146.5z"/>
							<path class="st24" d="M364.1,146.5h-15.3c-0.4,0-0.7-0.3-0.6-0.8c0.1-0.4,0.5-0.8,0.9-0.8h15.3c0.4,0,0.7,0.3,0.6,0.8
								C365,146.1,364.6,146.5,364.1,146.5z"/>
							<path class="st24" d="M337.5,150.3c0.1-0.4,0.5-0.8,0.9-0.8h15.3c0.4,0,0.7,0.3,0.6,0.8c-0.1,0.4-0.5,0.8-0.9,0.8h-15.3
								C337.7,151,337.4,150.7,337.5,150.3z"/>
							<path class="st22" d="M332.8,151c-0.4,0-0.7-0.3-0.6-0.8c0.1-0.4,0.5-0.8,0.9-0.8h2.3c0.4,0,0.7,0.3,0.6,0.8
								c-0.1,0.4-0.5,0.8-0.9,0.8H332.8z"/>
							<path class="st24" d="M325,149.5h5c0.4,0,0.7,0.3,0.6,0.8c-0.1,0.4-0.5,0.8-0.9,0.8h-5c-0.4,0-0.7-0.3-0.6-0.8
								C324.2,149.9,324.6,149.5,325,149.5z"/>
							<path class="st23" d="M341.9,154.8c0.1-0.4,0.5-0.8,0.9-0.8h1.5c0.4,0,0.7,0.3,0.6,0.8c-0.1,0.4-0.5,0.8-0.9,0.8h-1.5
								C342.1,155.6,341.9,155.3,341.9,154.8z"/>
							<path class="st22" d="M324.1,154.1h5c0.4,0,0.7,0.3,0.6,0.8c-0.1,0.4-0.5,0.8-0.9,0.8h-5c-0.4,0-0.7-0.3-0.6-0.8
								C323.3,154.4,323.7,154.1,324.1,154.1z"/>
							<path class="st21" d="M362.4,155.6h-15.3c-0.4,0-0.7-0.3-0.6-0.8c0.1-0.4,0.5-0.8,0.9-0.8h15.3c0.4,0,0.7,0.3,0.6,0.8
								C363.2,155.3,362.8,155.6,362.4,155.6z"/>
							<path class="st23" d="M339.5,155.6h-7.6c-0.4,0-0.7-0.3-0.6-0.8c0.1-0.4,0.5-0.8,0.9-0.8h7.6c0.4,0,0.7,0.3,0.6,0.8
								C340.3,155.3,339.9,155.6,339.5,155.6z"/>
							<path class="st23" d="M323.2,158.6h2c0.4,0,0.7,0.3,0.6,0.8c-0.1,0.4-0.5,0.8-0.9,0.8h-2c-0.4,0-0.7-0.3-0.6-0.8
								C322.4,159,322.8,158.6,323.2,158.6z"/>
							<path class="st21" d="M341.7,160.2h-1.5c-0.4,0-0.7-0.3-0.6-0.8c0.1-0.4,0.5-0.8,0.9-0.8h1.5c0.4,0,0.7,0.3,0.6,0.8
								C342.5,159.8,342.1,160.2,341.7,160.2z"/>
							<path class="st24" d="M360,160.2h-15.3c-0.4,0-0.7-0.3-0.6-0.8c0.1-0.4,0.5-0.8,0.9-0.8h15.3c0.4,0,0.7,0.3,0.6,0.8
								C360.8,159.8,360.4,160.2,360,160.2z"/>
							<path class="st24" d="M337.1,160.2H328c-0.4,0-0.7-0.3-0.6-0.8c0.1-0.4,0.5-0.8,0.9-0.8h9.2c0.4,0,0.7,0.3,0.6,0.8
								C337.9,159.8,337.5,160.2,337.1,160.2z"/>
							<path class="st23" d="M322.4,163.2h5c0.4,0,0.7,0.3,0.6,0.8s-0.5,0.8-0.9,0.8h-5c-0.4,0-0.7-0.3-0.6-0.8
								C321.5,163.5,322,163.2,322.4,163.2z"/>
							<path class="st21" d="M330.4,163.2h2.3c0.4,0,0.7,0.3,0.6,0.8c-0.1,0.4-0.5,0.8-0.9,0.8h-2.3c-0.4,0-0.7-0.3-0.6-0.8
								C329.6,163.5,330,163.2,330.4,163.2z"/>
							<path class="st24" d="M335.8,163.2H351c0.4,0,0.7,0.3,0.6,0.8c-0.1,0.4-0.5,0.8-0.9,0.8h-15.3c-0.4,0-0.7-0.3-0.6-0.8
								C334.9,163.5,335.4,163.2,335.8,163.2z"/>
							<path class="st22" d="M316.3,123.7h-15.3c-0.4,0-0.7-0.3-0.6-0.8c0.1-0.4,0.5-0.8,0.9-0.8h15.3c0.4,0,0.7,0.3,0.6,0.8
								C317.1,123.3,316.7,123.7,316.3,123.7z"/>
							<path class="st23" d="M298,123.7h-1.5c-0.4,0-0.7-0.3-0.6-0.8c0.1-0.4,0.5-0.8,0.9-0.8h1.5c0.4,0,0.7,0.3,0.6,0.8
								C298.8,123.3,298.4,123.7,298,123.7z"/>
							<path class="st24" d="M293.4,123.7H289c-0.4,0-0.7-0.3-0.6-0.8c0.1-0.4,0.5-0.8,0.9-0.8h4.5c0.4,0,0.7,0.3,0.6,0.8
								C294.3,123.3,293.8,123.7,293.4,123.7z"/>
							<path class="st24" d="M327,123.7h-7.6c-0.4,0-0.7-0.3-0.6-0.8c0.1-0.4,0.5-0.8,0.9-0.8h7.6c0.4,0,0.7,0.3,0.6,0.8
								C327.8,123.3,327.4,123.7,327,123.7z"/>
							<path class="st24" d="M308.8,127.5c0.1-0.4,0.5-0.8,0.9-0.8h16.8c0.4,0,0.7,0.3,0.6,0.8c-0.1,0.4-0.5,0.8-0.9,0.8h-16.8
								C309,128.2,308.8,127.9,308.8,127.5z"/>
							<path class="st24" d="M288.4,126.7h18.3c0.4,0,0.7,0.3,0.6,0.8c-0.1,0.4-0.5,0.8-0.9,0.8h-18.3c-0.4,0-0.7-0.3-0.6-0.8
								C287.5,127,288,126.7,288.4,126.7z"/>
							<path class="st23" d="M294.7,132.8c-0.4,0-0.7-0.3-0.6-0.8c0.1-0.4,0.5-0.8,0.9-0.8h1.5c0.4,0,0.7,0.3,0.6,0.8
								c-0.1,0.4-0.5,0.8-0.9,0.8H294.7z"/>
							<path class="st21" d="M292.6,132c-0.1,0.4-0.5,0.8-0.9,0.8h-4.1c-0.4,0-0.7-0.3-0.6-0.8c0.1-0.4,0.5-0.8,0.9-0.8h4.1
								C292.4,131.3,292.7,131.6,292.6,132z"/>
							<path class="st21" d="M325.3,132.8h-7.6c-0.4,0-0.7-0.3-0.6-0.8c0.1-0.4,0.5-0.8,0.9-0.8h7.6c0.4,0,0.7,0.3,0.6,0.8
								C326.1,132.4,325.7,132.8,325.3,132.8z"/>
							<path class="st23" d="M314.6,132.8h-15.3c-0.4,0-0.7-0.3-0.6-0.8c0.1-0.4,0.5-0.8,0.9-0.8h15.3c0.4,0,0.7,0.3,0.6,0.8
								C315.4,132.4,315,132.8,314.6,132.8z"/>
							<path class="st24" d="M286,136.6c0.1-0.4,0.5-0.8,0.9-0.8h17.2c0.4,0,0.7,0.3,0.6,0.8c-0.1,0.4-0.5,0.8-0.9,0.8h-17.2
								C286.2,137.4,285.9,137,286,136.6z"/>
							<path class="st24" d="M324.5,136.6c-0.1,0.4-0.5,0.8-0.9,0.8h-16.8c-0.4,0-0.7-0.3-0.6-0.8c0.1-0.4,0.5-0.8,0.9-0.8h16.8
								C324.3,135.8,324.6,136.2,324.5,136.6z"/>
							<path class="st21" d="M290.9,141.2c0.1-0.4,0.5-0.8,0.9-0.8h1.5c0.4,0,0.7,0.3,0.6,0.8c-0.1,0.4-0.5,0.8-0.9,0.8h-1.5
								C291.1,141.9,290.8,141.6,290.9,141.2z"/>
							<path class="st24" d="M296.3,140.4h15.3c0.4,0,0.7,0.3,0.6,0.8c-0.1,0.4-0.5,0.8-0.9,0.8h-15.3c-0.4,0-0.7-0.3-0.6-0.8
								C295.5,140.7,295.9,140.4,296.3,140.4z"/>
							<path class="st24" d="M284.8,141.2c0.1-0.4,0.5-0.8,0.9-0.8h3.1c0.4,0,0.7,0.3,0.6,0.8c-0.1,0.4-0.5,0.8-0.9,0.8h-3.1
								C284.9,141.9,284.7,141.6,284.8,141.2z"/>
							<path class="st23" d="M323.5,141.9h-9.2c-0.4,0-0.7-0.3-0.6-0.8c0.1-0.4,0.5-0.8,0.9-0.8h9.2c0.4,0,0.7,0.3,0.6,0.8
								C324.4,141.6,323.9,141.9,323.5,141.9z"/>
							<path class="st22" d="M322.7,146.5H315c-0.4,0-0.7-0.3-0.6-0.8c0.1-0.4,0.5-0.8,0.9-0.8h7.6c0.4,0,0.7,0.3,0.6,0.8
								C323.5,146.1,323.1,146.5,322.7,146.5z"/>
							<path class="st24" d="M285.4,145h4c0.4,0,0.7,0.3,0.6,0.8c-0.1,0.4-0.5,0.8-0.9,0.8h-4c-0.4,0-0.7-0.3-0.6-0.8
								C284.6,145.3,285,145,285.4,145z"/>
							<path class="st21" d="M293.7,146.5h-1.5c-0.4,0-0.7-0.3-0.6-0.8c0.1-0.4,0.5-0.8,0.9-0.8h1.5c0.4,0,0.7,0.3,0.6,0.8
								C294.5,146.1,294.1,146.5,293.7,146.5z"/>
							<path class="st24" d="M312,146.5h-15.3c-0.4,0-0.7-0.3-0.6-0.8c0.1-0.4,0.5-0.8,0.9-0.8h15.3c0.4,0,0.7,0.3,0.6,0.8
								C312.8,146.1,312.4,146.5,312,146.5z"/>
							<path class="st24" d="M321.9,150.3c-0.1,0.4-0.5,0.8-0.9,0.8h-16.8c-0.4,0-0.7-0.3-0.6-0.8c0.1-0.4,0.5-0.8,0.9-0.8h16.8
								C321.7,149.5,322,149.9,321.9,150.3z"/>
							<path class="st24" d="M283,150.3c0.1-0.4,0.5-0.8,0.9-0.8h17.6c0.4,0,0.7,0.3,0.6,0.8c-0.1,0.4-0.5,0.8-0.9,0.8h-17.6
								C283.2,151,282.9,150.7,283,150.3z"/>
							<path class="st23" d="M289.8,154.8c0.1-0.4,0.5-0.8,0.9-0.8h1.5c0.4,0,0.7,0.3,0.6,0.8c-0.1,0.4-0.5,0.8-0.9,0.8h-1.5
								C290,155.6,289.7,155.3,289.8,154.8z"/>
							<path class="st21" d="M310.2,155.6H295c-0.4,0-0.7-0.3-0.6-0.8c0.1-0.4,0.5-0.8,0.9-0.8h15.3c0.4,0,0.7,0.3,0.6,0.8
								C311.1,155.3,310.7,155.6,310.2,155.6z"/>
							<path class="st24" d="M320.9,155.6h-7.6c-0.4,0-0.7-0.3-0.6-0.8c0.1-0.4,0.5-0.8,0.9-0.8h7.6c0.4,0,0.7,0.3,0.6,0.8
								C321.7,155.3,321.3,155.6,320.9,155.6z"/>
							<path class="st23" d="M287.3,155.6h-4.6c-0.4,0-0.7-0.3-0.6-0.8c0.1-0.4,0.5-0.8,0.9-0.8h4.6c0.4,0,0.7,0.3,0.6,0.8
								C288.2,155.3,287.8,155.6,287.3,155.6z"/>
							<path class="st23" d="M310.9,160.2c-0.4,0-0.7-0.3-0.6-0.8c0.1-0.4,0.5-0.8,0.9-0.8h9.2c0.4,0,0.7,0.3,0.6,0.8
								c-0.1,0.4-0.5,0.8-0.9,0.8H310.9z"/>
							<path class="st21" d="M289.5,160.2H288c-0.4,0-0.7-0.3-0.6-0.8c0.1-0.4,0.5-0.8,0.9-0.8h1.5c0.4,0,0.7,0.3,0.6,0.8
								C290.4,159.8,289.9,160.2,289.5,160.2z"/>
							<path class="st24" d="M307.8,160.2h-15.3c-0.4,0-0.7-0.3-0.6-0.8c0.1-0.4,0.5-0.8,0.9-0.8h15.3c0.4,0,0.7,0.3,0.6,0.8
								C308.7,159.8,308.3,160.2,307.8,160.2z"/>
							<path class="st24" d="M284.9,160.2h-3.3c-0.4,0-0.7-0.3-0.6-0.8c0.1-0.4,0.5-0.8,0.9-0.8h3.3c0.4,0,0.7,0.3,0.6,0.8
								C285.8,159.8,285.4,160.2,284.9,160.2z"/>
							<path class="st21" d="M280.9,163.2h0.5c0.4,0,0.7,0.3,0.6,0.8c-0.1,0.4-0.5,0.8-0.9,0.8h-0.5c-0.4,0-0.7-0.3-0.6-0.8
								C280.1,163.5,280.5,163.2,280.9,163.2z"/>
							<path class="st22" d="M301.9,163.2h16.8c0.4,0,0.7,0.3,0.6,0.8c-0.1,0.4-0.5,0.8-0.9,0.8h-16.8c-0.4,0-0.7-0.3-0.6-0.8
								C301.1,163.5,301.5,163.2,301.9,163.2z"/>
							<path class="st24" d="M283.6,163.2h15.3c0.4,0,0.7,0.3,0.6,0.8c-0.1,0.4-0.5,0.8-0.9,0.8h-15.3c-0.4,0-0.7-0.3-0.6-0.8
								C282.8,163.5,283.2,163.2,283.6,163.2z"/>
						</g>
						<g>
							<path class="st22" d="M360,168.4h-15.3c-0.4,0-0.7-0.3-0.6-0.8c0.1-0.4,0.5-0.8,0.9-0.8h15.3c0.4,0,0.7,0.3,0.6,0.8
								C360.8,168.1,360.4,168.4,360,168.4z"/>
							<path class="st23" d="M341.6,168.4h-1.5c-0.4,0-0.7-0.3-0.6-0.8c0.1-0.4,0.5-0.8,0.9-0.8h1.5c0.4,0,0.7,0.3,0.6,0.8
								C342.5,168.1,342.1,168.4,341.6,168.4z"/>
							<path class="st23" d="M326.4,168.4h-5c-0.4,0-0.7-0.3-0.6-0.8c0.1-0.4,0.5-0.8,0.9-0.8h5c0.4,0,0.7,0.3,0.6,0.8
								C327.2,168.1,326.8,168.4,326.4,168.4z"/>
							<path class="st24" d="M337.1,168.4h-7.6c-0.4,0-0.7-0.3-0.6-0.8c0.1-0.4,0.5-0.8,0.9-0.8h7.6c0.4,0,0.7,0.3,0.6,0.8
								C337.9,168.1,337.5,168.4,337.1,168.4z"/>
							<path class="st24" d="M334.2,171.5h15.3c0.4,0,0.7,0.3,0.6,0.8c-0.1,0.4-0.5,0.8-0.9,0.8h-15.3c-0.4,0-0.7-0.3-0.6-0.8
								C333.4,171.8,333.8,171.5,334.2,171.5z"/>
							<path class="st23" d="M328.6,173c-0.4,0-0.7-0.3-0.6-0.8c0.1-0.4,0.5-0.8,0.9-0.8h2.3c0.4,0,0.7,0.3,0.6,0.8
								c-0.1,0.4-0.5,0.8-0.9,0.8H328.6z"/>
							<path class="st24" d="M320.8,171.5h5c0.4,0,0.7,0.3,0.6,0.8c-0.1,0.4-0.5,0.8-0.9,0.8h-5c-0.4,0-0.7-0.3-0.6-0.8
								C320,171.8,320.4,171.5,320.8,171.5z"/>
							<path class="st23" d="M338.4,177.6c-0.4,0-0.7-0.3-0.6-0.8c0.1-0.4,0.5-0.8,0.9-0.8h1.5c0.4,0,0.7,0.3,0.6,0.8
								c-0.1,0.4-0.5,0.8-0.9,0.8H338.4z"/>
							<path class="st21" d="M336.2,176.8c-0.1,0.4-0.5,0.8-0.9,0.8h-7.6c-0.4,0-0.7-0.3-0.6-0.8c0.1-0.4,0.5-0.8,0.9-0.8h7.6
								C336,176,336.3,176.4,336.2,176.8z"/>
							<path class="st21" d="M319.9,176h5c0.4,0,0.7,0.3,0.6,0.8c-0.1,0.4-0.5,0.8-0.9,0.8h-5c-0.4,0-0.7-0.3-0.6-0.8
								C319.1,176.4,319.5,176,319.9,176z"/>
							<path class="st23" d="M358.2,177.6H343c-0.4,0-0.7-0.3-0.6-0.8c0.1-0.4,0.5-0.8,0.9-0.8h15.3c0.4,0,0.7,0.3,0.6,0.8
								C359.1,177.2,358.6,177.6,358.2,177.6z"/>
							<path class="st22" d="M307.8,168.4h-15.3c-0.4,0-0.7-0.3-0.6-0.8c0.1-0.4,0.5-0.8,0.9-0.8h15.3c0.4,0,0.7,0.3,0.6,0.8
								C308.6,168.1,308.2,168.4,307.8,168.4z"/>
							<path class="st23" d="M289.5,168.4h-1.5c-0.4,0-0.7-0.3-0.6-0.8c0.1-0.4,0.5-0.8,0.9-0.8h1.5c0.4,0,0.7,0.3,0.6,0.8
								C290.3,168.1,289.9,168.4,289.5,168.4z"/>
							<path class="st24" d="M284.9,168.4h-5c-0.4,0-0.7-0.3-0.6-0.8c0.1-0.4,0.5-0.8,0.9-0.8h5c0.4,0,0.7,0.3,0.6,0.8
								C285.7,168.1,285.3,168.4,284.9,168.4z"/>
							<path class="st24" d="M318.5,168.4h-7.6c-0.4,0-0.7-0.3-0.6-0.8c0.1-0.4,0.5-0.8,0.9-0.8h7.6c0.4,0,0.7,0.3,0.6,0.8
								C319.3,168.1,318.9,168.4,318.5,168.4z"/>
							<path class="st24" d="M300.3,172.2c0.1-0.4,0.5-0.8,0.9-0.8H318c0.4,0,0.7,0.3,0.6,0.8c-0.1,0.4-0.5,0.8-0.9,0.8h-16.8
								C300.5,173,300.2,172.7,300.3,172.2z"/>
							<path class="st24" d="M279.5,171.5h18.7c0.4,0,0.7,0.3,0.6,0.8c-0.1,0.4-0.5,0.8-0.9,0.8h-18.7c-0.4,0-0.7-0.3-0.6-0.8
								C278.6,171.8,279,171.5,279.5,171.5z"/>
							<path class="st23" d="M286.2,177.6c-0.4,0-0.7-0.3-0.6-0.8c0.1-0.4,0.5-0.8,0.9-0.8h1.5c0.4,0,0.7,0.3,0.6,0.8
								c-0.1,0.4-0.5,0.8-0.9,0.8H286.2z"/>
							<path class="st21" d="M284.1,176.8c-0.1,0.4-0.5,0.8-0.9,0.8h-5c-0.4,0-0.7-0.3-0.6-0.8c0.1-0.4,0.5-0.8,0.9-0.8h5
								C283.9,176,284.1,176.4,284.1,176.8z"/>
							<path class="st21" d="M316.7,177.6h-7.6c-0.4,0-0.7-0.3-0.6-0.8c0.1-0.4,0.5-0.8,0.9-0.8h7.6c0.4,0,0.7,0.3,0.6,0.8
								C317.6,177.2,317.2,177.6,316.7,177.6z"/>
							<path class="st23" d="M306.1,177.6h-15.3c-0.4,0-0.7-0.3-0.6-0.8c0.1-0.4,0.5-0.8,0.9-0.8h15.3c0.4,0,0.7,0.3,0.6,0.8
								C306.9,177.2,306.5,177.6,306.1,177.6z"/>
						</g>
					</g>
				</g>
			</g>
			<path class="st17" d="M68.1,237.1h309.6c1,0,1.8-0.8,1.8-1.8l0,0c0-1-0.8-1.8-1.8-1.8H68.1c-1,0-1.8,0.8-1.8,1.8l0,0
				C66.3,236.3,67.1,237.1,68.1,237.1z"/>
			<path class="st3" d="M47,234.3h351.8c1.1,0,2-0.9,2-2v-5.4c0-1.1-0.9-2-2-2H47c-1.1,0-2,0.9-2,2v5.4
				C45,233.4,45.9,234.3,47,234.3z"/>
			<path class="st9" d="M193,208.3c0,0,7.5-2.5,11.9-3.9c4.4-1.4,11.6,1.2,16.7,5c0,0,3.6,3,2.3,4c-1.2,1-7.1-3.8-12.2-4.3
				c0,0,11.9,7.6,10.7,10.2c-0.4,0.9-1.9,0.7-3.7,0c0.3,0.5,0.4,0.9,0.1,1.2c-0.6,0.7-4.1-0.5-7.2-1.9c0.6,0.4,1,0.9,1,1.3
				c-0.1,1.7-9.7-2.7-9.7-2.7s-6.1,4-10.3,1.4C192.6,218.7,190.9,211.7,193,208.3z"/>
			<g>
				<path class="st7" d="M197.2,220.1h135.2c1.2,0,2.2,1,2.2,2.2v0.4c0,1.2-1,2.2-2.2,2.2H197.2c-1.2,0-2.2-1-2.2-2.2v-0.4
					C195,221,196,220.1,197.2,220.1z"/>
				<path class="st18" d="M236.8,150.8L223,216.4c-0.4,2,0.9,3.7,2.9,3.7h106.7c2,0,4-1.6,4.4-3.7l13.9-65.6c0.4-2-0.9-3.6-2.9-3.6
					H241.2C239.2,147.2,237.3,148.8,236.8,150.8z"/>
				<path class="st27" d="M240.2,150.8l-13.9,65.6c-0.4,2,0.9,3.7,2.9,3.7h103.3c2,0,4-1.6,4.4-3.7l13.9-65.6c0.4-2-0.9-3.6-2.9-3.6
					H244.6C242.6,147.2,240.6,148.8,240.2,150.8z"/>
				<path class="st4" d="M285.1,183.6c0-3.8,3.1-6.8,6.8-6.8c3.8,0,6.8,3.1,6.8,6.8c0,3.8-3.1,6.8-6.8,6.8
					C288.2,190.4,285.1,187.4,285.1,183.6z M287.9,183.6c0,2.2,1.8,4,4,4c2.2,0,4-1.8,4-4c0-2.2-1.8-4-4-4
					C289.7,179.6,287.9,181.4,287.9,183.6z"/>
			</g>
		</g>
		<path class="st3" d="M179.3,83.3c0,0-7.4-1.5-11.4,3.9c1.5-4.2,5.7-6,12.8-5.3L179.3,83.3z"/>
		<path class="st3" d="M196.1,80.9C196.1,80.9,196.1,80.9,196.1,80.9l-0.2,1.4c-2.1,0-4.9-0.3-7.3,2.5
			C189.5,81.6,193.3,80.7,196.1,80.9z"/>
		<path class="st3" d="M170.1,94.2c0,0-1.2-5.1,2.7-6.9c3.9-1.7,6.8,1,6.8,1s0.1,0.7-0.9,0.8c0,0,0.5,2.9-0.1,5.2l-3.7-3.4
			L170.1,94.2z"/>
		<path class="st4" d="M178.6,92.5c0,1.1-0.1,1.9-0.1,1.9c-3.4-1.3-8.5-0.2-8.5-0.2c-0.2-4.2,1.4-6.3,4.5-6.8c0.4-0.1,0.8-0.1,1.2,0
			c0,0,0,0,0,0C178.1,87.7,178.6,90.5,178.6,92.5z"/>
		<path class="st3" d="M178.5,90.8c0.1,0.6,0.1,1.1,0.1,1.6c-0.4,0.5-1,0.9-1.6,1.1c-1.7,0.4-3.4-0.6-3.8-2.3
			c-0.4-1.7,0.6-3.4,2.3-3.8c0.1,0,0.2-0.1,0.3-0.1c0,0,0,0,0,0c0.6,0.1,1.1,0.4,1.5,0.8C178,88.8,178.3,89.8,178.5,90.8z"/>
		<path class="st3" d="M186.7,94c0,0-1.2-5.1,2.7-6.9c3.9-1.7,6.8,1,6.8,1s0.1,0.7-0.9,0.8c0,0,0.5,2.9-0.1,5.2l-3.7-3.4L186.7,94z"
			/>
		<path class="st4" d="M195.3,92.2c0,1.1-0.1,1.9-0.1,1.9c-3.4-1.3-8.5-0.2-8.5-0.2c-0.2-4.2,1.4-6.3,4.5-6.8c0.4-0.1,0.8-0.1,1.2,0
			c0,0,0,0,0,0C194.8,87.4,195.2,90.2,195.3,92.2z"/>
		<path class="st3" d="M195.1,90.6c0.1,0.6,0.1,1.1,0.1,1.6c-0.4,0.5-1,0.9-1.6,1.1c-1.7,0.4-3.4-0.6-3.8-2.3
			c-0.4-1.7,0.6-3.4,2.3-3.8c0.1,0,0.2-0.1,0.3-0.1c0,0,0,0,0,0c0.6,0.1,1.1,0.4,1.5,0.8C194.6,88.5,195,89.6,195.1,90.6z"/>
		<g>
			<path class="st28" d="M182.1,106.4c-0.2,0-0.5,0.1-0.7,0.2c-0.1,0-0.2,0.1-0.3,0.2c0,0,0,0-0.1,0.1c0,0-0.1,0-0.1,0
				c-0.1,0-0.3,0-0.4,0.1c-0.1,0.1-0.2,0.2-0.2,0.3c0,0.1,0,0.2,0.1,0.3c0.2,0.1,0.3,0.3,0.5,0.4c0.2,0.1,0.4,0.2,0.7,0.3
				c0.4,0.2,0.9,0.3,1.4,0.4c0.5,0.1,0.9,0.1,1.4,0.1c0.4,0,1-0.1,1.1-0.5c0-0.1,0.1-0.2,0-0.3c0-0.1,0-0.2-0.1-0.2
				c0-0.1-0.1-0.2-0.2-0.2c-0.1-0.1-0.1-0.2-0.2-0.2c-0.2-0.2-0.4-0.3-0.7-0.5c-0.2-0.1-0.5-0.2-0.8-0.3c-0.4-0.1-0.7-0.2-1.1-0.2
				C182.4,106.4,182.3,106.4,182.1,106.4"/>
			<path class="st3" d="M186.8,103.5c-0.2,0-0.4,0-0.7,0.1c-0.3,0.1-0.5,0.1-0.7,0.2c-0.2,0.1-0.4,0.1-0.6,0.2
				c-0.1,0.1-0.3,0.1-0.4,0.2c0,0-0.1,0-0.1,0c-0.3,0-0.5,0-0.7-0.1c-0.2,0-0.3-0.1-0.5-0.1c-0.4-0.1-0.8-0.2-1.3-0.2l-0.1,0
				c-0.2,0-0.4,0-0.6,0.1c-0.3,0.1-0.5,0.2-0.7,0.4c-0.3,0.2-0.4,0.5-0.5,0.7c-0.1,0.3-0.2,0.6-0.2,0.9c0,0.5,0.1,1,0.5,1.5
				c0.3,0.4,0.7,0.7,1.3,1c0.5,0.2,1.1,0.4,1.8,0.5c0.3,0,0.6,0.1,0.9,0.1c0.3,0,0.6,0,0.9-0.1c0.5-0.1,1-0.2,1.5-0.5
				c0.4-0.2,0.7-0.4,1-0.7c0.3-0.3,0.5-0.6,0.7-1c0.2-0.3,0.3-0.6,0.4-1c0.1-0.3,0-0.6,0-1c-0.1-0.3-0.2-0.5-0.4-0.8
				c-0.2-0.2-0.5-0.4-0.8-0.5C187.2,103.5,187,103.5,186.8,103.5 M180.4,106.8L180.4,106.8c0.1-0.1,0.2-0.1,0.3-0.2
				C180.6,106.6,180.5,106.7,180.4,106.8 M184.2,108.4c-0.3,0-0.7,0-1-0.1c-0.5-0.1-0.9-0.2-1.2-0.3c-0.3-0.1-0.6-0.3-0.8-0.4
				c-0.2-0.1-0.3-0.2-0.4-0.3c0.1-0.1,0.2-0.1,0.3-0.2c0.2-0.1,0.4-0.2,0.6-0.3c0.2-0.1,0.4-0.1,0.7-0.1c0.1,0,0.1,0,0.2,0
				c0.2,0,0.4,0,0.5,0c0.3,0,0.5,0.1,0.7,0.2c0.2,0.1,0.4,0.2,0.6,0.3c0.2,0.1,0.3,0.3,0.5,0.4l0-0.1c0.1,0.2,0.3,0.4,0.4,0.6
				c0,0,0,0.1,0.1,0.1c-0.2,0.1-0.5,0.1-0.7,0.1C184.4,108.4,184.3,108.4,184.2,108.4"/>
		</g>
		<path class="st13" d="M184.2,100.2c0.9,0,1.6-0.4,2-0.7c0.1-0.1,0.1-0.2,0.1-0.3l-0.7-0.5c-0.4,0.3-1.7,1-3,0.1
			c-0.2-0.1-0.5-0.1-0.6,0.1c-0.1,0.2-0.1,0.5,0.1,0.6C182.9,100,183.6,100.2,184.2,100.2z"/>
	</g>
</g>
</svg>
