<?xml version="1.0" encoding="utf-8"?>
<!-- Generator: Adobe Illustrator 22.0.1, SVG Export Plug-In . SVG Version: 6.00 Build 0)  -->
<svg version="1.1" id="Capa_1" xmlns="http://www.w3.org/2000/svg" xmlns:xlink="http://www.w3.org/1999/xlink" x="0px" y="0px"
	 viewBox="0 0 900 1080" style="enable-background:new 0 0 900 1080;" xml:space="preserve">
<style type="text/css">
	.st0{clip-path:url(#SVGID_2_);fill-rule:evenodd;clip-rule:evenodd;fill:#FFDD52;}
	.st1{clip-path:url(#SVGID_2_);}
	.st2{fill-rule:evenodd;clip-rule:evenodd;fill:#FFFFFF;}
	.st3{fill:#040962;}
	.st4{fill:#FFFFFF;}
	.st5{fill:#3C4AA0;}
	.st6{fill:#111A75;}
	.st7{fill:#B4B0FA;}
	.st8{fill:#101A77;}
	.st9{fill:#FCC7A9;}
	.st10{fill:#FE5A75;}
	.st11{fill:#00BDFF;}
	.st12{fill:#00AEF9;}
	.st13{fill:#FFA780;}
	.st14{fill:#FF8DA3;}
	.st15{fill:#F9F9F9;}
	.st16{fill:#F9FBFC;}
	.st17{fill:#6161C9;}
	.st18{fill:#7F7FDD;}
	.st19{opacity:0.28;fill:#6161C9;}
	.st20{fill:#553F77;}
	.st21{fill:#5A91FF;}
	.st22{fill:#362656;}
	.st23{fill:#7859B5;}
	.st24{fill:#735F99;}
	.st25{fill:#FF6498;}
	.st26{fill:#FFEE4D;}
	.st27{fill:#A4A4F4;}
	.st28{clip-path:url(#SVGID_2_);fill:#040962;}
	.st29{clip-path:url(#SVGID_2_);fill:#FFFFFF;}
	.st30{fill:#FF948E;}
	.st31{clip-path:url(#SVGID_2_);fill:#FFA780;}
</style>
<g>
	<defs>
		
			<rect id="SVGID_1_" x="0.3" y="1.4" transform="matrix(-1 -1.224647e-16 1.224647e-16 -1 900.6903 1082.7688)" width="900" height="1080"/>
	</defs>
	<clipPath id="SVGID_2_">
		<use xlink:href="#SVGID_1_"  style="overflow:visible;"/>
	</clipPath>
	<rect x="-137.8" y="-71.2" class="st0" width="1166.6" height="1166.6"/>
	<g class="st1">
		<path class="st2" d="M166.3,824.9c-72.8,0-132.3-59.5-132.3-132.3l0,0c0-72.8,59.5-132.3,132.3-132.3l0,0
			c30.8,0,55.9-25.2,55.9-55.9l0,0c0-30.8-25.2-56-55.9-56h-6.7c-32,0-58.2-26.2-58.2-58.2l0,0c0-32,26.2-58.2,58.2-58.2H180
			c12.5,0,22.6-10.2,22.6-22.6l0,0c0-12.5-10.2-22.6-22.6-22.6h-15c-8.6,0-15.6-7-15.6-15.6l0,0c0-8.6,7-15.6,15.6-15.6h100.9
			c13.5,0,24.6-11.1,24.6-24.6l0,0c0-13.5-11.1-24.6-24.6-24.6h-30.2c-8.6,0-15.6-7-15.6-15.6v0c0-8.6,7-15.6,15.6-15.6h429.4
			c11.2,0,20.4,9.2,20.4,20.4v0c0,11.2-9.2,20.4-20.4,20.4h-31.5c-17.6,0-32,14.4-32,32v0c0,17.6,14.4,32,32,32h132.7
			c11.2,0,20.4,9.2,20.4,20.4l0,0c0,11.2-9.2,20.4-20.4,20.4h-19.6c-16.3,0-29.6,13.3-29.6,29.6l0,0c0,16.3,13.3,29.6,29.6,29.6
			h26.7c41.7,0,75.9,34.2,75.9,75.9l0,0c0,41.7-34.2,75.9-75.9,75.9h-8.7c-40.2,0-73,32.9-73,73l0,0c0,40.2,32.9,73,73,73h18.8
			c40.5,0,73.6,33.1,73.6,73.6l0,0c0,40.5-33.1,73.6-73.6,73.6C574.1,824.9,375.7,824.9,166.3,824.9L166.3,824.9z M717.4,215.9
			c11.3,0,20.4-9.1,20.4-20.4c0-11.3-9.1-20.4-20.4-20.4c-11.3,0-20.4,9.1-20.4,20.4C697,206.7,706.1,215.9,717.4,215.9L717.4,215.9
			z M121.2,286.7c8.6,0,15.6-7,15.6-15.6c0-8.6-7-15.6-15.6-15.6c-8.6,0-15.6,7-15.6,15.6C105.5,279.7,112.5,286.7,121.2,286.7z"/>
	</g>
	<g class="st1">
		<g>
			<g>
				<g>
					<ellipse class="st3" cx="522.9" cy="1081.7" rx="15.9" ry="19.7"/>
					<ellipse class="st3" cx="356.6" cy="1081.7" rx="15.9" ry="19.7"/>
				</g>
				<path class="st4" d="M354.7,1039h47.5c13.2,0,23.9-10.7,23.9-23.9V826.8h30.5v188.3c0,13.2,10.7,23.9,23.9,23.9h44.3h4.6
					c7.2,0,13,5.8,13,13v2.7v23.3c0,1.6-1.3,2.9-2.9,2.9h-11.8c-1.6,0-2.9-1.3-2.9-2.9v-10.3c0-7.2-5.8-13-13-13H367.7
					c-7.2,0-13,5.8-13,13v10.3c0,1.6-1.3,2.9-2.9,2.9h-11.8c-1.6,0-2.9-1.3-2.9-2.9v-23.3v-2.7c0-7.2,5.8-13,13-13H354.7z"/>
				<path class="st5" d="M421.3,848.4h42.4c1.1,0,1.9-0.9,1.9-1.9v-17.1c0-1.1-0.9-1.9-1.9-1.9h-42.4c-1.1,0-1.9,0.9-1.9,1.9v17.1
					C419.4,847.6,420.3,848.4,421.3,848.4z"/>
			</g>
			<g>
				<path class="st6" d="M289.4,804.9v19.2c0,4.8,3.9,8.6,8.6,8.6h264.8l-0.3-27.8H289.4z"/>
				<path class="st6" d="M230,482.7l59.5,322.2h70.3c0,0-19.9-6.8-22.7-52.1c-1.4-22.9,1.5-55.5,13.6-102.1h-3.5
					c-13.5,0-24.5-11-24.5-24.5V455.6c0-2.6,0.3-5.2,0.9-7.6h-64.7C240.5,448,226.6,464.6,230,482.7z"/>
				<path class="st7" d="M257.4,482.7l59.5,322.2h42.9c0,0-19.9-6.8-22.7-52.1c-1.4-22.9,1.5-55.5,13.6-102.1h-3.5
					c-13.5,0-24.5-11-24.5-24.5V455.6c0-2.6,0.3-5.2,0.9-7.6h-37.2C267.9,448,254.1,464.6,257.4,482.7z"/>
			</g>
		</g>
		<g>
			<path class="st3" d="M350.5,423.8L350.5,423.8c0,0,16.7-56.4,16.7-117.1c0-60.7,23.6-81.4,49.2-81.4h54.3
				c29.7,0,54.3,23.2,56,52.9c1.5,24.8,3.7,52.2,6.8,67.6c6.7,32.8,20.7,95.9,32.7,129.2c12.1,33.2,2.4,61.7-27,62.2
				c0,0,2.4,60.2-77.6,43.9c-75.9-15.5-127-38.4-119-129.9C343.5,441.5,346.1,432.3,350.5,423.8z"/>
			<path class="st8" d="M499.1,293.7c4.9,0,9.9-0.8,13.7-3.3c3.7-2.5,5.9-6.3,6.3-11.3c1.9-22.7-16.6-37-17.4-37.6
				c-0.5-0.4-1.2-0.3-1.6,0.2c-0.4,0.5-0.3,1.2,0.2,1.6c0.2,0.1,18.3,14.2,16.5,35.6c-0.4,4.4-2.1,7.5-5.2,9.6
				c-10.1,6.7-31.1-0.2-31.3-0.2c-0.6-0.2-1.3,0.1-1.5,0.7c-0.2,0.6,0.1,1.3,0.7,1.5C480,290.7,489.5,293.7,499.1,293.7z"/>
			<path class="st8" d="M420.5,286.2c0.6,0,1.1-0.5,1.2-1.1c0-0.2,0.8-22.5,2.8-30c0.2-0.6-0.2-1.3-0.8-1.4
				c-0.6-0.2-1.3,0.2-1.4,0.8c-2.1,7.7-2.8,29.6-2.9,30.5C419.3,285.6,419.8,286.2,420.5,286.2C420.5,286.2,420.5,286.2,420.5,286.2
				z"/>
			<path class="st9" d="M329.8,435.4c95.3,50.3,166.2,30.7,190.7,20.9c-3-2.5-6.2-4.8-9.6-6.9c-13.6-8.1-32.3-19.5-43.6-26.9
				c-8.9-5.8-12-15.5-12.7-24.2c-0.9-10.2,1.5-19.1,1.5-19.1h7.9c23.2,0,42-18.8,42-42V285h-85.5L408.9,388
				c-2.3,20.3-19.4,35.6-39.8,35.6h-14.3C344.6,423.5,335.7,428.2,329.8,435.4z"/>
			<path class="st10" d="M423.1,712.4c-16.3,8.4-43.4,45.6-86.1,40.4c-1.4-22.9,1.5-55.5,13.6-102h-3.5c-13.5,0-24.5-11-24.5-24.5
				V455.6c0-7.6,2.7-14.7,7.2-20.2c95.3,50.3,166.2,30.8,190.7,21c6.6,5.5,12.4,12.1,16.8,19.6l58.8,98.9c3.6,6.1,10.2,9.8,17.3,9.8
				h5.8v55.4h-15.7c-8.9,0-17.5-3.9-23.3-10.7l-66.1-76.8c0,0-16.3,55.8,3.2,144.8l0,0C517.3,697.6,441.9,702.7,423.1,712.4z"/>
			<path class="st9" d="M592.6,1073.8c0,0,4.2,5.1,11.5,11.4c-5,2.8-10.7,7.3-14.9,14.3c0,0-13.4-13.8-31.8-14.9
				c2.1-5.8,4.6-11.3,7.5-15.5l-0.4-44.5h34.9L592.6,1073.8z"/>
			<path class="st11" d="M636.6,764.4c26.8,7.4,10.3,90.2,10.3,90.2l0,0c-0.2,1.3-12.5,98.2-8.6,105.6c4,7.4,10.3,24-8.6,36.5
				c0,0,8.6,31.4-21.7,28h-8.6l0,0h-34.9l-1.9-219.8h-54.1C541.7,790.1,616,758.6,636.6,764.4z"/>
			<path class="st12" d="M423.1,712.4c18.8-9.7,94.2-14.8,94.2-14.8l0,0c0,0,0,0,0,0c0,0,87.9-19.4,107.9,0
				c20,19.4,100.5,109.6,107.3,134.7c4.4,16.2,0,26.8,0,26.8s15.5,6.1,20,15.4c9.7,19.9-9.6,35.3-9.7,35.4l0,0
				c0,0-11.7,2.4-27.3,21.6l-68.6-76.9c0,0,0,0,0,0l0,0c0,0,16.6-82.8-10.3-90.2c-20.6-5.7-94.9,25.7-128.1,40.5H359.7
				c0,0-19.9-6.8-22.7-52.1C379.7,758,406.8,720.8,423.1,712.4z"/>
			<path class="st9" d="M742.8,909.9L742.8,909.9L742.8,909.9l26.3,47.4c0,0,5.4-1.4,13.5-3.7c-3,6.2-5.9,14.2-4.4,19.7
				c0,0-11.7-1.5-24.1,7.7c-1.5-3.3-3-7-4.5-11.2l-34.2-38.4C731.1,912.4,742.8,909.9,742.8,909.9z"/>
			<path class="st4" d="M778.2,973.3c-1.5-5.5,1.4-13.5,4.4-19.7c16.3-4.7,43.2-13.2,58.4-22.5c2-1.3,4.7-0.9,6.2,1
				c0.7,0.9,1.1,1.9,1.1,3c0,1.1-0.4,2.1-1.1,3c-8.9,10.9-41,48.8-68.5,63.4c-5.1,2.7-11.4,1.4-14.8-3.2c-2.7-3.7-6.1-9.3-9.6-17.2
				C766.5,971.8,778.2,973.3,778.2,973.3z"/>
			<path class="st13" d="M431.8,379.3c0,0,11.6,19.2,22.9,19.1c-0.9-10.2,1.5-19.1,1.5-19.1H431.8z"/>
			<g>
				<path class="st14" d="M514.1,553.9c0.5,0,0.9-0.3,1.1-0.8c0.1-0.4,12.8-38.2-8.4-73.6c-0.3-0.6-1.1-0.7-1.6-0.4
					c-0.6,0.3-0.7,1-0.4,1.6c20.6,34.5,8.3,71.3,8.2,71.7c-0.2,0.6,0.1,1.3,0.7,1.5C513.9,553.9,514,553.9,514.1,553.9z"/>
				<path class="st14" d="M487,617.7c0.6,0,1.1-0.4,1.2-1c0.1-0.6-0.4-1.2-1-1.3l-122.2-17l7.4-123.4c0-0.6-0.5-1.2-1.1-1.2
					c-0.6,0-1.2,0.5-1.2,1.1l-7.4,124.4c0,0.6,0.4,1.1,1,1.2l123.3,17.1C486.9,617.7,487,617.7,487,617.7z"/>
				<path class="st14" d="M487,651.6c0.4,0,0.8-0.2,1-0.5l2.6-4.1c0.3-0.5,0.2-1.3-0.4-1.6c-0.5-0.3-1.3-0.2-1.6,0.4l-2.3,3.6
					l-132.8-0.3h0c-0.6,0-1.2,0.5-1.2,1.2c0,0.6,0.5,1.2,1.2,1.2L487,651.6L487,651.6z"/>
			</g>
			<path class="st15" d="M392.3,247.3c0.2,0.4,0.6,0.6,1,0.6c0.2,0,0.4,0,0.6-0.2l35.3-20.2c-0.8,2.3-1.3,4.8-1.3,7.3
				c0,11.9,9.6,21.5,21.5,21.5c11.9,0,21.5-9.6,21.5-21.5c0-3.9-1-7.5-2.8-10.6c8.8-4,13.9-1.6,15.7-0.4c-1.9,3.2-3,7-3,11
				c0,11.9,9.7,21.5,21.5,21.5s21.5-9.6,21.5-21.5s-9.6-21.5-21.5-21.5c-7,0-13.2,3.4-17.2,8.6c-2.3-1.6-8.3-4.3-18.3,0.3
				c-3.9-5.4-10.3-8.9-17.4-8.9c-7.8,0-14.7,4.2-18.4,10.5l-38.2,21.9C392.2,246,392,246.7,392.3,247.3z M483.1,234.9
				c0-10.6,8.6-19.2,19.2-19.2c10.6,0,19.2,8.6,19.2,19.2s-8.6,19.2-19.2,19.2C491.7,254,483.1,245.4,483.1,234.9z M430.2,234.9
				c0-10.6,8.6-19.2,19.2-19.2c10.6,0,19.2,8.6,19.2,19.2s-8.6,19.2-19.2,19.2C438.8,254,430.2,245.4,430.2,234.9z"/>
		</g>
		<path class="st16" d="M221.1,631c0,8.4,5.7,15.2,12.7,15.2c0,0,0.1,0,0.1,0v10.2c0,1.1,0.9,2,2,2h40c1.1,0,2-0.9,2-2v-48.9
			c0-1.1-0.9-2-2-2h-40c-1.1,0-2,0.9-2,2v8.3c0,0-0.1,0-0.1,0C226.8,615.8,221.1,622.7,221.1,631z M225.8,631c0-5.8,3.6-10.5,8-10.5
			c0,0,0.1,0,0.1,0v21c0,0-0.1,0-0.1,0C229.4,641.6,225.8,636.8,225.8,631z"/>
		<g>
			<polygon class="st3" points="263.4,688.9 278.4,688.9 420.8,1108.7 405.9,1108.7 270.9,710.5 135.9,1108.7 121.1,1108.7 			"/>
			<polygon class="st3" points="867.2,688.9 1009.5,1108.7 994.7,1108.7 859.7,710.5 724.7,1108.7 709.9,1108.7 852.2,688.9 			"/>
		</g>
		<g>
			<g>
				<polygon class="st17" points="815.9,547 829.4,601.9 841.7,652.3 913.9,652.3 885.4,569.9 877.5,547 				"/>
				<polygon class="st4" points="811.4,547 825.4,604.2 837.1,652.3 909.3,652.3 881.6,572 873,547 				"/>
				<path class="st18" d="M817.4,646.3h122.4c1,0,1.7,0.8,1.7,1.7v8.6c0,1-0.8,1.7-1.7,1.7H817.4c-1,0-1.7-0.8-1.7-1.7V648
					C815.7,647.1,816.5,646.3,817.4,646.3z"/>
				<polygon class="st19" points="811.4,547 825.4,604.2 829.4,601.9 881.6,572 885.4,569.9 877.5,547 				"/>
			</g>
			<g>
				<path class="st18" d="M692.9,562.9h262.7c3.8,0,7.5-3.1,8.2-6.9L996,387.3c0.3-1.8,0-3.6-1.1-4.9l-0.9-1.1c-1-1.3-2.7-2-4.5-2
					H726.8c-3.8,0-7.5,3.1-8.2,6.9L686.5,555c-0.3,1.8,0,3.6,1.1,4.9l0.9,1.1C689.5,562.2,691.1,562.9,692.9,562.9z"/>
				<path class="st4" d="M692.8,557.8h258.7c3.8,0,7.5-3.1,8.2-6.9l31.4-164.7c0.7-3.8-1.8-6.9-5.6-6.9H726.8
					c-3.8,0-7.5,3.1-8.2,6.9l-31.4,164.7C686.5,554.7,689,557.8,692.8,557.8z"/>
				<path class="st20" d="M696.5,551.8h253.6c1.4,0,2.7-1.1,2.9-2.4l30.8-161.5c0.3-1.4-0.6-2.4-2-2.4H728.2c-1.4,0-2.7,1.1-2.9,2.4
					l-30.8,161.5C694.3,550.7,695.1,551.8,696.5,551.8z"/>
				<g>
					<g>
						<path class="st22" d="M933.8,402.3h-38.6c-1.1,0-1.8-0.9-1.6-1.9c0.2-1.1,1.2-1.9,2.3-1.9h38.6c1.1,0,1.8,0.9,1.6,1.9
							C935.9,401.4,934.8,402.3,933.8,402.3z"/>
						<path class="st23" d="M887.4,402.3h-3.9c-1.1,0-1.8-0.9-1.6-1.9c0.2-1.1,1.2-1.9,2.3-1.9h3.9c1.1,0,1.8,0.9,1.6,1.9
							C889.5,401.4,888.5,402.3,887.4,402.3z"/>
						<path class="st23" d="M848.8,402.3h-12.7c-1.1,0-1.8-0.9-1.6-1.9c0.2-1.1,1.2-1.9,2.3-1.9h12.7c1.1,0,1.8,0.9,1.6,1.9
							C850.9,401.4,849.8,402.3,848.8,402.3z"/>
						<path class="st24" d="M875.8,402.3h-19.3c-1.1,0-1.8-0.9-1.6-1.9c0.2-1.1,1.2-1.9,2.3-1.9h19.3c1.1,0,1.8,0.9,1.6,1.9
							C877.9,401.4,876.9,402.3,875.8,402.3z"/>
						<path class="st24" d="M868.6,410h38.6c1.1,0,1.8,0.9,1.6,1.9c-0.2,1.1-1.2,1.9-2.3,1.9h-38.6c-1.1,0-1.8-0.9-1.6-1.9
							C866.5,410.9,867.5,410,868.6,410z"/>
						<path class="st23" d="M854.3,413.9c-1.1,0-1.8-0.9-1.6-1.9c0.2-1.1,1.2-1.9,2.3-1.9h5.8c1.1,0,1.8,0.9,1.6,1.9
							c-0.2,1.1-1.2,1.9-2.3,1.9H854.3z"/>
						<path class="st24" d="M834.6,410h12.7c1.1,0,1.8,0.9,1.6,1.9c-0.2,1.1-1.2,1.9-2.3,1.9h-12.7c-1.1,0-1.8-0.9-1.6-1.9
							C832.5,410.9,833.6,410,834.6,410z"/>
						<path class="st23" d="M879.1,425.4c-1.1,0-1.8-0.9-1.6-1.9c0.2-1.1,1.2-1.9,2.3-1.9h3.9c1.1,0,1.8,0.9,1.6,1.9
							c-0.2,1.1-1.2,1.9-2.3,1.9H879.1z"/>
						<path class="st21" d="M873.7,423.5c-0.2,1.1-1.2,1.9-2.3,1.9h-19.3c-1.1,0-1.8-0.9-1.6-1.9c0.2-1.1,1.2-1.9,2.3-1.9h19.3
							C873.2,421.5,873.9,422.4,873.7,423.5z"/>
						<path class="st21" d="M832.4,421.5h12.7c1.1,0,1.8,0.9,1.6,1.9c-0.2,1.1-1.2,1.9-2.3,1.9h-12.7c-1.1,0-1.8-0.9-1.6-1.9
							C830.3,422.4,831.4,421.5,832.4,421.5z"/>
						<path class="st23" d="M929.4,425.4h-38.6c-1.1,0-1.8-0.9-1.6-1.9c0.2-1.1,1.2-1.9,2.3-1.9h38.6c1.1,0,1.8,0.9,1.6,1.9
							C931.5,424.5,930.4,425.4,929.4,425.4z"/>
						<path class="st24" d="M830.2,433.1h12.7c1.1,0,1.8,0.9,1.6,1.9c-0.2,1.1-1.2,1.9-2.3,1.9h-12.7c-1.1,0-1.8-0.9-1.6-1.9
							C828.1,434,829.2,433.1,830.2,433.1z"/>
						<path class="st22" d="M850.6,433.1h5.8c1.1,0,1.8,0.9,1.6,1.9c-0.2,1.1-1.2,1.9-2.3,1.9h-5.8c-1.1,0-1.8-0.9-1.6-1.9
							C848.5,434,849.6,433.1,850.6,433.1z"/>
						<path class="st24" d="M861.9,435c0.2-1.1,1.2-1.9,2.3-1.9h38.6c1.1,0,1.8,0.9,1.6,1.9c-0.2,1.1-1.2,1.9-2.3,1.9h-38.6
							C862.4,437,861.7,436.1,861.9,435z"/>
						<path class="st21" d="M828,444.6h4.9c1.1,0,1.8,0.9,1.6,1.9c-0.2,1.1-1.2,1.9-2.3,1.9h-4.9c-1.1,0-1.8-0.9-1.6-1.9
							C825.9,445.5,827,444.6,828,444.6z"/>
						<path class="st21" d="M869.3,446.6c0.2-1.1,1.2-1.9,2.3-1.9h3.9c1.1,0,1.8,0.9,1.6,1.9c-0.2,1.1-1.2,1.9-2.3,1.9h-3.9
							C869.8,448.5,869.1,447.6,869.3,446.6z"/>
						<path class="st24" d="M883.2,444.6h38.6c1.1,0,1.8,0.9,1.6,1.9c-0.2,1.1-1.2,1.9-2.3,1.9h-38.6c-1.1,0-1.8-0.9-1.6-1.9
							C881.1,445.5,882.1,444.6,883.2,444.6z"/>
						<path class="st24" d="M838.4,446.6c0.2-1.1,1.2-1.9,2.3-1.9h23.2c1.1,0,1.8,0.9,1.6,1.9c-0.2,1.1-1.2,1.9-2.3,1.9H840
							C838.9,448.5,838.2,447.6,838.4,446.6z"/>
						<path class="st24" d="M846.2,456.2h19.3c1.1,0,1.8,0.9,1.6,1.9c-0.2,1.1-1.2,1.9-2.3,1.9h-19.3c-1.1,0-1.8-0.9-1.6-1.9
							C844.1,457.1,845.2,456.2,846.2,456.2z"/>
						<path class="st24" d="M825.8,456.2h12.7c1.1,0,1.8,0.9,1.6,1.9c-0.2,1.1-1.2,1.9-2.3,1.9h-12.7c-1.1,0-1.8-0.9-1.6-1.9
							C823.7,457.1,824.8,456.2,825.8,456.2z"/>
						<path class="st21" d="M876.4,460.1h-3.9c-1.1,0-1.8-0.9-1.6-1.9c0.2-1.1,1.2-1.9,2.3-1.9h3.9c1.1,0,1.8,0.9,1.6,1.9
							C878.5,459.2,877.5,460.1,876.4,460.1z"/>
						<path class="st24" d="M922.8,460.1h-38.6c-1.1,0-1.8-0.9-1.6-1.9c0.2-1.1,1.2-1.9,2.3-1.9h38.6c1.1,0,1.8,0.9,1.6,1.9
							C924.9,459.2,923.8,460.1,922.8,460.1z"/>
						<path class="st24" d="M855.3,469.7c0.2-1.1,1.2-1.9,2.3-1.9h38.6c1.1,0,1.8,0.9,1.6,1.9c-0.2,1.1-1.2,1.9-2.3,1.9h-38.6
							C855.8,471.6,855.1,470.7,855.3,469.7z"/>
						<path class="st22" d="M843.3,471.6c-1.1,0-1.8-0.9-1.6-1.9c0.2-1.1,1.2-1.9,2.3-1.9h5.8c1.1,0,1.8,0.9,1.6,1.9
							c-0.2,1.1-1.2,1.9-2.3,1.9H843.3z"/>
						<path class="st24" d="M823.6,467.7h12.7c1.1,0,1.8,0.9,1.6,1.9c-0.2,1.1-1.2,1.9-2.3,1.9h-12.7c-1.1,0-1.8-0.9-1.6-1.9
							C821.5,468.6,822.6,467.7,823.6,467.7z"/>
						<path class="st23" d="M866.6,481.2c0.2-1.1,1.2-1.9,2.3-1.9h3.9c1.1,0,1.8,0.9,1.6,1.9c-0.2,1.1-1.2,1.9-2.3,1.9h-3.9
							C867.1,483.2,866.4,482.3,866.6,481.2z"/>
						<path class="st22" d="M821.4,479.3h12.7c1.1,0,1.8,0.9,1.6,1.9c-0.2,1.1-1.2,1.9-2.3,1.9h-12.7c-1.1,0-1.8-0.9-1.6-1.9
							C819.3,480.2,820.4,479.3,821.4,479.3z"/>
						<path class="st21" d="M918.4,483.2h-38.6c-1.1,0-1.8-0.9-1.6-1.9c0.2-1.1,1.2-1.9,2.3-1.9h38.6c1.1,0,1.8,0.9,1.6,1.9
							C920.5,482.3,919.4,483.2,918.4,483.2z"/>
						<path class="st23" d="M860.4,483.2h-19.3c-1.1,0-1.8-0.9-1.6-1.9c0.2-1.1,1.2-1.9,2.3-1.9h19.3c1.1,0,1.8,0.9,1.6,1.9
							C862.5,482.3,861.5,483.2,860.4,483.2z"/>
						<path class="st23" d="M819.2,490.8h4.9c1.1,0,1.8,0.9,1.6,1.9c-0.2,1.1-1.2,1.9-2.3,1.9h-4.9c-1.1,0-1.8-0.9-1.6-1.9
							C817.1,491.7,818.2,490.8,819.2,490.8z"/>
						<path class="st21" d="M865.9,494.7h-3.9c-1.1,0-1.8-0.9-1.6-1.9c0.2-1.1,1.2-1.9,2.3-1.9h3.9c1.1,0,1.8,0.9,1.6,1.9
							C868,493.8,867,494.7,865.9,494.7z"/>
						<path class="st24" d="M912.3,494.7h-38.6c-1.1,0-1.8-0.9-1.6-1.9c0.2-1.1,1.2-1.9,2.3-1.9H913c1.1,0,1.8,0.9,1.6,1.9
							C914.4,493.8,913.4,494.7,912.3,494.7z"/>
						<path class="st24" d="M854.4,494.7h-23.2c-1.1,0-1.8-0.9-1.6-1.9c0.2-1.1,1.2-1.9,2.3-1.9h23.2c1.1,0,1.8,0.9,1.6,1.9
							C856.4,493.8,855.4,494.7,854.4,494.7z"/>
						<path class="st23" d="M817,502.4h12.7c1.1,0,1.8,0.9,1.6,1.9c-0.2,1.1-1.2,1.9-2.3,1.9h-12.7c-1.1,0-1.8-0.9-1.6-1.9
							C814.9,503.3,816,502.4,817,502.4z"/>
						<path class="st21" d="M837.4,502.4h5.8c1.1,0,1.8,0.9,1.6,1.9c-0.2,1.1-1.2,1.9-2.3,1.9h-5.8c-1.1,0-1.8-0.9-1.6-1.9
							C835.3,503.3,836.4,502.4,837.4,502.4z"/>
						<path class="st22" d="M897.3,502.4h42.5c1.1,0,1.8,0.9,1.6,1.9c-0.2,1.1-1.2,1.9-2.3,1.9h-42.5c-1.1,0-1.8-0.9-1.6-1.9
							C895.2,503.3,896.2,502.4,897.3,502.4z"/>
						<path class="st24" d="M851,502.4h38.6c1.1,0,1.8,0.9,1.6,1.9c-0.2,1.1-1.2,1.9-2.3,1.9h-38.6c-1.1,0-1.8-0.9-1.6-1.9
							C848.9,503.3,849.9,502.4,851,502.4z"/>
						<path class="st22" d="M801.7,402.3h-38.6c-1.1,0-1.8-0.9-1.6-1.9c0.2-1.1,1.2-1.9,2.3-1.9h38.6c1.1,0,1.8,0.9,1.6,1.9
							C803.8,401.4,802.8,402.3,801.7,402.3z"/>
						<path class="st23" d="M755.4,402.3h-3.9c-1.1,0-1.8-0.9-1.6-1.9c0.2-1.1,1.2-1.9,2.3-1.9h3.9c1.1,0,1.8,0.9,1.6,1.9
							C757.5,401.4,756.4,402.3,755.4,402.3z"/>
						<path class="st24" d="M743.8,402.3h-11.3c-1.1,0-1.8-0.9-1.6-1.9c0.2-1.1,1.2-1.9,2.3-1.9h11.3c1.1,0,1.8,0.9,1.6,1.9
							C745.9,401.4,744.8,402.3,743.8,402.3z"/>
						<path class="st24" d="M828.7,402.3h-19.3c-1.1,0-1.8-0.9-1.6-1.9c0.2-1.1,1.2-1.9,2.3-1.9h19.3c1.1,0,1.8,0.9,1.6,1.9
							C830.8,401.4,829.8,402.3,828.7,402.3z"/>
						<path class="st24" d="M782.8,411.9c0.2-1.1,1.2-1.9,2.3-1.9h42.5c1.1,0,1.8,0.9,1.6,1.9c-0.2,1.1-1.2,1.9-2.3,1.9h-42.5
							C783.3,413.9,782.6,413,782.8,411.9z"/>
						<path class="st24" d="M731,410h46.4c1.1,0,1.8,0.9,1.6,1.9c-0.2,1.1-1.2,1.9-2.3,1.9h-46.4c-1.1,0-1.8-0.9-1.6-1.9
							C728.9,410.9,729.9,410,731,410z"/>
						<path class="st23" d="M747.1,425.4c-1.1,0-1.8-0.9-1.6-1.9c0.2-1.1,1.2-1.9,2.3-1.9h3.9c1.1,0,1.8,0.9,1.6,1.9
							c-0.2,1.1-1.2,1.9-2.3,1.9H747.1z"/>
						<path class="st21" d="M741.7,423.5c-0.2,1.1-1.2,1.9-2.3,1.9H729c-1.1,0-1.8-0.9-1.6-1.9c0.2-1.1,1.2-1.9,2.3-1.9h10.4
							C741.2,421.5,741.9,422.4,741.7,423.5z"/>
						<path class="st21" d="M824.3,425.4H805c-1.1,0-1.8-0.9-1.6-1.9c0.2-1.1,1.2-1.9,2.3-1.9h19.3c1.1,0,1.8,0.9,1.6,1.9
							C826.4,424.5,825.4,425.4,824.3,425.4z"/>
						<path class="st23" d="M797.3,425.4h-38.6c-1.1,0-1.8-0.9-1.6-1.9c0.2-1.1,1.2-1.9,2.3-1.9H798c1.1,0,1.8,0.9,1.6,1.9
							C799.4,424.5,798.4,425.4,797.3,425.4z"/>
						<path class="st24" d="M725,435c0.2-1.1,1.2-1.9,2.3-1.9h43.5c1.1,0,1.8,0.9,1.6,1.9c-0.2,1.1-1.2,1.9-2.3,1.9h-43.5
							C725.5,437,724.8,436.1,725,435z"/>
						<path class="st24" d="M822.5,435c-0.2,1.1-1.2,1.9-2.3,1.9h-42.5c-1.1,0-1.8-0.9-1.6-1.9c0.2-1.1,1.2-1.9,2.3-1.9H821
							C822,433.1,822.7,434,822.5,435z"/>
						<path class="st21" d="M737.3,446.6c0.2-1.1,1.2-1.9,2.3-1.9h3.9c1.1,0,1.8,0.9,1.6,1.9c-0.2,1.1-1.2,1.9-2.3,1.9h-3.9
							C737.8,448.5,737.1,447.6,737.3,446.6z"/>
						<path class="st24" d="M751.2,444.6h38.6c1.1,0,1.8,0.9,1.6,1.9c-0.2,1.1-1.2,1.9-2.3,1.9h-38.6c-1.1,0-1.8-0.9-1.6-1.9
							C749.1,445.5,750.1,444.6,751.2,444.6z"/>
						<path class="st24" d="M721.8,446.6c0.2-1.1,1.2-1.9,2.3-1.9h7.7c1.1,0,1.8,0.9,1.6,1.9c-0.2,1.1-1.2,1.9-2.3,1.9h-7.7
							C722.3,448.5,721.6,447.6,721.8,446.6z"/>
						<path class="st23" d="M819.9,448.5h-23.2c-1.1,0-1.8-0.9-1.6-1.9c0.2-1.1,1.2-1.9,2.3-1.9h23.2c1.1,0,1.8,0.9,1.6,1.9
							C822,447.6,821,448.5,819.9,448.5z"/>
						<path class="st22" d="M817.7,460.1h-19.3c-1.1,0-1.8-0.9-1.6-1.9c0.2-1.1,1.2-1.9,2.3-1.9h19.3c1.1,0,1.8,0.9,1.6,1.9
							C819.8,459.2,818.8,460.1,817.7,460.1z"/>
						<path class="st24" d="M723.5,456.2h10c1.1,0,1.8,0.9,1.6,1.9c-0.2,1.1-1.2,1.9-2.3,1.9h-10c-1.1,0-1.8-0.9-1.6-1.9
							C721.4,457.1,722.4,456.2,723.5,456.2z"/>
						<path class="st21" d="M744.4,460.1h-3.9c-1.1,0-1.8-0.9-1.6-1.9c0.2-1.1,1.2-1.9,2.3-1.9h3.9c1.1,0,1.8,0.9,1.6,1.9
							C746.5,459.2,745.4,460.1,744.4,460.1z"/>
						<path class="st24" d="M790.7,460.1h-38.6c-1.1,0-1.8-0.9-1.6-1.9c0.2-1.1,1.2-1.9,2.3-1.9h38.6c1.1,0,1.8,0.9,1.6,1.9
							C792.8,459.2,791.8,460.1,790.7,460.1z"/>
						<path class="st24" d="M815.9,469.7c-0.2,1.1-1.2,1.9-2.3,1.9h-42.5c-1.1,0-1.8-0.9-1.6-1.9c0.2-1.1,1.2-1.9,2.3-1.9h42.5
							C815.4,467.7,816.1,468.6,815.9,469.7z"/>
						<path class="st24" d="M717.4,469.7c0.2-1.1,1.2-1.9,2.3-1.9h44.4c1.1,0,1.8,0.9,1.6,1.9c-0.2,1.1-1.2,1.9-2.3,1.9H719
							C717.9,471.6,717.2,470.7,717.4,469.7z"/>
						<path class="st23" d="M734.5,481.2c0.2-1.1,1.2-1.9,2.3-1.9h3.9c1.1,0,1.8,0.9,1.6,1.9c-0.2,1.1-1.2,1.9-2.3,1.9h-3.9
							C735,483.2,734.3,482.3,734.5,481.2z"/>
						<path class="st21" d="M786.3,483.2h-38.6c-1.1,0-1.8-0.9-1.6-1.9c0.2-1.1,1.2-1.9,2.3-1.9H787c1.1,0,1.8,0.9,1.6,1.9
							C788.4,482.3,787.4,483.2,786.3,483.2z"/>
						<path class="st24" d="M813.3,483.2H794c-1.1,0-1.8-0.9-1.6-1.9c0.2-1.1,1.2-1.9,2.3-1.9h19.3c1.1,0,1.8,0.9,1.6,1.9
							C815.4,482.3,814.4,483.2,813.3,483.2z"/>
						<path class="st23" d="M728.4,483.2h-11.6c-1.1,0-1.8-0.9-1.6-1.9c0.2-1.1,1.2-1.9,2.3-1.9h11.6c1.1,0,1.8,0.9,1.6,1.9
							C730.5,482.3,729.4,483.2,728.4,483.2z"/>
						<path class="st23" d="M788,494.7c-1.1,0-1.8-0.9-1.6-1.9c0.2-1.1,1.2-1.9,2.3-1.9h23.2c1.1,0,1.8,0.9,1.6,1.9
							c-0.2,1.1-1.2,1.9-2.3,1.9H788z"/>
						<path class="st21" d="M733.9,494.7H730c-1.1,0-1.8-0.9-1.6-1.9c0.2-1.1,1.2-1.9,2.3-1.9h3.9c1.1,0,1.8,0.9,1.6,1.9
							C736,493.8,735,494.7,733.9,494.7z"/>
						<path class="st24" d="M780.2,494.7h-38.6c-1.1,0-1.8-0.9-1.6-1.9c0.2-1.1,1.2-1.9,2.3-1.9H781c1.1,0,1.8,0.9,1.6,1.9
							C782.3,493.8,781.3,494.7,780.2,494.7z"/>
						<path class="st24" d="M722.3,494.7h-8.4c-1.1,0-1.8-0.9-1.6-1.9c0.2-1.1,1.2-1.9,2.3-1.9h8.4c1.1,0,1.8,0.9,1.6,1.9
							C724.4,493.8,723.4,494.7,722.3,494.7z"/>
						<path class="st21" d="M712.1,502.4h1.3c1.1,0,1.8,0.9,1.6,1.9c-0.2,1.1-1.2,1.9-2.3,1.9h-1.3c-1.1,0-1.8-0.9-1.6-1.9
							C710.1,503.3,711.1,502.4,712.1,502.4z"/>
						<path class="st22" d="M765.3,502.4h42.5c1.1,0,1.8,0.9,1.6,1.9c-0.2,1.1-1.2,1.9-2.3,1.9h-42.5c-1.1,0-1.8-0.9-1.6-1.9
							C763.2,503.3,764.2,502.4,765.3,502.4z"/>
						<path class="st24" d="M718.9,502.4h38.6c1.1,0,1.8,0.9,1.6,1.9c-0.2,1.1-1.2,1.9-2.3,1.9h-38.6c-1.1,0-1.8-0.9-1.6-1.9
							C716.8,503.3,717.8,502.4,718.9,502.4z"/>
					</g>
					<g>
						<path class="st22" d="M912.2,515.6h-38.6c-1.1,0-1.8-0.9-1.6-1.9c0.2-1.1,1.2-1.9,2.3-1.9h38.6c1.1,0,1.8,0.9,1.6,1.9
							C914.3,514.7,913.2,515.6,912.2,515.6z"/>
						<path class="st23" d="M865.8,515.6H862c-1.1,0-1.8-0.9-1.6-1.9c0.2-1.1,1.2-1.9,2.3-1.9h3.9c1.1,0,1.8,0.9,1.6,1.9
							C867.9,514.7,866.9,515.6,865.8,515.6z"/>
						<path class="st23" d="M827.2,515.6h-12.7c-1.1,0-1.8-0.9-1.6-1.9c0.2-1.1,1.2-1.9,2.3-1.9h12.7c1.1,0,1.8,0.9,1.6,1.9
							C829.3,514.7,828.3,515.6,827.2,515.6z"/>
						<path class="st24" d="M854.2,515.6h-19.3c-1.1,0-1.8-0.9-1.6-1.9c0.2-1.1,1.2-1.9,2.3-1.9H855c1.1,0,1.8,0.9,1.6,1.9
							S855.3,515.6,854.2,515.6z"/>
						<path class="st24" d="M891,525.2c0.2-1.1,1.2-1.9,2.3-1.9h42.5c1.1,0,1.8,0.9,1.6,1.9c-0.2,1.1-1.2,1.9-2.3,1.9h-42.5
							C891.5,527.2,890.8,526.3,891,525.2z"/>
						<path class="st24" d="M847,523.3h38.6c1.1,0,1.8,0.9,1.6,1.9c-0.2,1.1-1.2,1.9-2.3,1.9h-38.6c-1.1,0-1.8-0.9-1.6-1.9
							C844.9,524.2,845.9,523.3,847,523.3z"/>
						<path class="st23" d="M832.7,527.2c-1.1,0-1.8-0.9-1.6-1.9c0.2-1.1,1.2-1.9,2.3-1.9h5.8c1.1,0,1.8,0.9,1.6,1.9
							c-0.2,1.1-1.2,1.9-2.3,1.9H832.7z"/>
						<path class="st24" d="M813.1,523.3h12.7c1.1,0,1.8,0.9,1.6,1.9c-0.2,1.1-1.2,1.9-2.3,1.9h-12.7c-1.1,0-1.8-0.9-1.6-1.9
							C811,524.2,812,523.3,813.1,523.3z"/>
						<path class="st23" d="M857.6,538.7c-1.1,0-1.8-0.9-1.6-1.9c0.2-1.1,1.2-1.9,2.3-1.9h3.9c1.1,0,1.8,0.9,1.6,1.9
							c-0.2,1.1-1.2,1.9-2.3,1.9H857.6z"/>
						<path class="st21" d="M852.1,536.8c-0.2,1.1-1.2,1.9-2.3,1.9h-19.3c-1.1,0-1.8-0.9-1.6-1.9c0.2-1.1,1.2-1.9,2.3-1.9h19.3
							C851.6,534.8,852.3,535.7,852.1,536.8z"/>
						<path class="st21" d="M810.9,534.8h12.7c1.1,0,1.8,0.9,1.6,1.9c-0.2,1.1-1.2,1.9-2.3,1.9h-12.7c-1.1,0-1.8-0.9-1.6-1.9
							C808.8,535.7,809.8,534.8,810.9,534.8z"/>
						<path class="st23" d="M907.8,538.7h-38.6c-1.1,0-1.8-0.9-1.6-1.9c0.2-1.1,1.2-1.9,2.3-1.9h38.6c1.1,0,1.8,0.9,1.6,1.9
							C909.9,537.8,908.8,538.7,907.8,538.7z"/>
						<path class="st22" d="M780.1,515.6h-38.6c-1.1,0-1.8-0.9-1.6-1.9c0.2-1.1,1.2-1.9,2.3-1.9h38.6c1.1,0,1.8,0.9,1.6,1.9
							C782.2,514.7,781.2,515.6,780.1,515.6z"/>
						<path class="st23" d="M733.8,515.6h-3.9c-1.1,0-1.8-0.9-1.6-1.9c0.2-1.1,1.2-1.9,2.3-1.9h3.9c1.1,0,1.8,0.9,1.6,1.9
							C735.9,514.7,734.8,515.6,733.8,515.6z"/>
						<path class="st24" d="M722.2,515.6h-12.6c-1.1,0-1.8-0.9-1.6-1.9c0.2-1.1,1.2-1.9,2.3-1.9h12.6c1.1,0,1.8,0.9,1.6,1.9
							C724.3,514.7,723.3,515.6,722.2,515.6z"/>
						<path class="st24" d="M807.2,515.6h-19.3c-1.1,0-1.8-0.9-1.6-1.9c0.2-1.1,1.2-1.9,2.3-1.9h19.3c1.1,0,1.8,0.9,1.6,1.9
							C809.3,514.7,808.2,515.6,807.2,515.6z"/>
						<path class="st24" d="M761.2,525.2c0.2-1.1,1.2-1.9,2.3-1.9H806c1.1,0,1.8,0.9,1.6,1.9c-0.2,1.1-1.2,1.9-2.3,1.9h-42.5
							C761.7,527.2,761,526.3,761.2,525.2z"/>
						<path class="st24" d="M708.4,523.3h47.4c1.1,0,1.8,0.9,1.6,1.9c-0.2,1.1-1.2,1.9-2.3,1.9h-47.4c-1.1,0-1.8-0.9-1.6-1.9
							C706.3,524.2,707.4,523.3,708.4,523.3z"/>
						<path class="st23" d="M725.5,538.7c-1.1,0-1.8-0.9-1.6-1.9c0.2-1.1,1.2-1.9,2.3-1.9h3.9c1.1,0,1.8,0.9,1.6,1.9
							c-0.2,1.1-1.2,1.9-2.3,1.9H725.5z"/>
						<path class="st21" d="M720.1,536.8c-0.2,1.1-1.2,1.9-2.3,1.9h-12.6c-1.1,0-1.8-0.9-1.6-1.9c0.2-1.1,1.2-1.9,2.3-1.9h12.6
							C719.6,534.8,720.3,535.7,720.1,536.8z"/>
						<path class="st21" d="M802.8,538.7h-19.3c-1.1,0-1.8-0.9-1.6-1.9c0.2-1.1,1.2-1.9,2.3-1.9h19.3c1.1,0,1.8,0.9,1.6,1.9
							C804.9,537.8,803.8,538.7,802.8,538.7z"/>
						<path class="st23" d="M775.7,538.7h-38.6c-1.1,0-1.8-0.9-1.6-1.9c0.2-1.1,1.2-1.9,2.3-1.9h38.6c1.1,0,1.8,0.9,1.6,1.9
							C777.8,537.8,776.8,538.7,775.7,538.7z"/>
					</g>
				</g>
			</g>
		</g>
		<path class="st17" d="M173.5,689.4h783.6c2.6,0,4.6-2.1,4.6-4.6l0,0c0-2.6-2.1-4.6-4.6-4.6H173.5c-2.6,0-4.6,2.1-4.6,4.6l0,0
			C168.9,687.3,170.9,689.4,173.5,689.4z"/>
		<path class="st3" d="M117.1,682.2h896.4c1.1,0,2-0.9,2-2v-19.8c0-1.1-0.9-2-2-2H117.1c-1.1,0-2,0.9-2,2v19.8
			C115.1,681.3,116,682.2,117.1,682.2z"/>
		<path class="st9" d="M489.6,616.5c0,0,18.9-6.2,30.1-9.9c11.3-3.7,29.3,3.1,42.2,12.7c0,0,9,7.6,5.9,10.1c-3.1,2.5-18-9.6-31-11
			c0,0,30.1,19.1,27,25.9c-1,2.3-4.8,1.7-9.3,0.1c0.7,1.2,0.9,2.3,0.3,3c-1.6,1.8-10.3-1.4-18.2-4.7c1.5,1.1,2.5,2.3,2.5,3.3
			c-0.3,4.2-24.5-6.8-24.5-6.8s-15.5,10.1-26.2,3.7C488.5,642.9,484.3,625.3,489.6,616.5z"/>
		<g>
			<path class="st7" d="M496.9,646.3h348.8c1.2,0,2.2,1,2.2,2.2v7.7c0,1.2-1,2.2-2.2,2.2H496.9c-1.2,0-2.2-1-2.2-2.2v-7.7
				C494.7,647.3,495.7,646.3,496.9,646.3z"/>
			<path class="st18" d="M600.5,471l-35.1,166.1c-1.1,5.1,2.2,9.2,7.3,9.2h270c5.1,0,10.1-4.1,11.2-9.2L889,471
				c1.1-5.1-2.2-9.2-7.3-9.2h-270C606.6,461.8,601.6,465.9,600.5,471z"/>
			<path class="st27" d="M609,471L574,637.1c-1.1,5.1,2.2,9.2,7.3,9.2h261.5c5.1,0,10.1-4.1,11.2-9.2L889,471
				c1.1-5.1-2.2-9.2-7.3-9.2H620.2C615.1,461.8,610.1,465.9,609,471z"/>
			<path class="st4" d="M722.7,554.1c0-9.5,7.7-17.2,17.2-17.2c9.5,0,17.2,7.7,17.2,17.2c0,9.5-7.7,17.2-17.2,17.2
				C730.4,571.3,722.7,563.6,722.7,554.1z M729.7,554.1c0,5.6,4.6,10.2,10.2,10.2c5.6,0,10.2-4.6,10.2-10.2
				c0-5.6-4.6-10.2-10.2-10.2C734.3,543.9,729.7,548.5,729.7,554.1z"/>
		</g>
	</g>
	<path class="st28" d="M454.9,300c0,0-18.6-3.9-28.8,9.8c3.7-10.7,14.5-15.2,32.5-13.5L454.9,300z"/>
	<path class="st28" d="M497.3,294C497.3,294,497.3,294,497.3,294l-0.5,3.5c-5.4,0.1-12.4-0.8-18.5,6.4
		C480.7,295.9,490.3,293.7,497.3,294z"/>
	<path class="st28" d="M431.5,327.8c0,0-3.1-13,6.8-17.4c9.9-4.3,17.2,2.5,17.2,2.5s0.2,1.7-2.2,2.1c0,0,1.3,7.3-0.2,13.2l-9.3-8.6
		L431.5,327.8z"/>
	<path class="st29" d="M453.3,323.4c0.1,2.8-0.2,4.9-0.2,4.9c-8.6-3.3-21.5-0.4-21.5-0.4c-0.5-10.5,3.6-16,11.5-17.3
		c1.1-0.2,2.1-0.2,3-0.1c0,0,0,0,0,0C452,311.3,453.2,318.4,453.3,323.4z"/>
	<path class="st28" d="M452.9,319.3c0.2,1.4,0.3,2.8,0.4,4.1c-1,1.3-2.5,2.2-4.2,2.7c-4.3,1.1-8.6-1.5-9.7-5.7
		c-1.1-4.3,1.5-8.6,5.7-9.7c0.3-0.1,0.6-0.1,0.8-0.2c0,0,0,0,0,0c1.6,0.2,2.9,0.9,3.9,1.9C451.6,314.1,452.5,316.7,452.9,319.3z"/>
	<path class="st28" d="M473.6,327.1c0,0-3.1-13,6.8-17.4c9.9-4.3,17.2,2.5,17.2,2.5s0.2,1.7-2.2,2.1c0,0,1.3,7.3-0.2,13.2l-9.3-8.6
		L473.6,327.1z"/>
	<path class="st29" d="M495.4,322.7c0.1,2.8-0.2,4.9-0.2,4.9c-8.6-3.3-21.5-0.4-21.5-0.4c-0.5-10.5,3.6-16,11.5-17.3
		c1.1-0.2,2.1-0.2,3-0.1c0,0,0,0,0,0C494,310.6,495.3,317.7,495.4,322.7z"/>
	<path class="st28" d="M495,318.6c0.2,1.4,0.3,2.8,0.4,4.1c-1,1.3-2.5,2.2-4.2,2.7c-4.3,1.1-8.6-1.5-9.7-5.7
		c-1.1-4.3,1.5-8.6,5.7-9.7c0.3-0.1,0.6-0.1,0.8-0.2c0,0,0,0,0,0c1.6,0.2,2.9,0.9,3.9,1.9C493.7,313.4,494.6,316,495,318.6z"/>
	<g class="st1">
		<path class="st30" d="M462,358.7c-0.6,0.1-1.3,0.2-1.8,0.4c-0.3,0.1-0.6,0.3-0.9,0.5c-0.1,0-0.1,0.1-0.2,0.1c-0.1,0-0.1,0-0.2,0
			c-0.3,0-0.7,0-1,0.2c-0.3,0.2-0.5,0.4-0.5,0.7c-0.1,0.3,0,0.6,0.2,0.8c0.4,0.4,0.8,0.7,1.2,1c0.5,0.3,1.1,0.6,1.7,0.9
			c1.1,0.5,2.4,0.8,3.6,1c1.2,0.2,2.4,0.3,3.6,0.3c1.1,0,2.5-0.2,2.9-1.2c0.1-0.2,0.1-0.4,0.1-0.7c0-0.2-0.1-0.4-0.2-0.6
			c-0.1-0.2-0.2-0.4-0.4-0.6c-0.2-0.2-0.4-0.4-0.6-0.6c-0.5-0.4-1-0.8-1.6-1.2c-0.6-0.3-1.3-0.6-2-0.8c-0.9-0.3-1.9-0.4-2.8-0.4
			C462.9,358.6,462.4,358.6,462,358.7"/>
		<path class="st3" d="M473.9,351.3c-0.5,0-1.1,0.1-1.7,0.2c-0.7,0.1-1.3,0.3-1.8,0.5c-0.5,0.2-0.9,0.4-1.4,0.6
			c-0.4,0.2-0.7,0.3-1.1,0.5c-0.1,0-0.2,0-0.2,0c-0.7,0-1.4-0.1-1.8-0.1c-0.4-0.1-0.8-0.1-1.2-0.2c-1.1-0.2-2.1-0.4-3.2-0.4l-0.3,0
			c-0.6,0-1.1,0.1-1.6,0.2c-0.7,0.2-1.3,0.5-1.8,1c-0.6,0.6-1,1.3-1.3,1.8c-0.3,0.7-0.5,1.5-0.6,2.4c-0.1,1.3,0.3,2.6,1.1,3.7
			c0.8,1,1.9,1.9,3.3,2.5c1.3,0.6,2.8,1,4.6,1.3c0.8,0.1,1.6,0.2,2.4,0.2c0.8,0,1.6-0.1,2.4-0.2c1.3-0.2,2.6-0.6,3.8-1.2
			c0.9-0.5,1.8-1.1,2.6-1.9c0.7-0.7,1.3-1.5,1.8-2.4c0.4-0.8,0.7-1.6,0.9-2.6c0.1-0.8,0.1-1.6-0.1-2.4c-0.2-0.7-0.5-1.4-1.1-1.9
			c-0.5-0.5-1.3-1-2.1-1.2C474.9,351.3,474.4,351.3,473.9,351.3 M457.7,359.5L457.7,359.5c0.3-0.2,0.5-0.4,0.8-0.5
			C458.3,359.2,458,359.4,457.7,359.5 M467.3,363.8c-0.8,0-1.7-0.1-2.5-0.2c-1.2-0.2-2.2-0.5-3.2-0.8c-0.8-0.3-1.4-0.7-2-1.1
			c-0.4-0.3-0.7-0.6-1-0.9c0.3-0.2,0.5-0.4,0.8-0.5c0.5-0.3,1.1-0.5,1.6-0.7c0.5-0.2,1.1-0.3,1.7-0.3c0.2,0,0.3,0,0.5,0
			c0.5,0,0.9,0,1.4,0.1c0.6,0.1,1.3,0.3,1.9,0.5c0.5,0.2,1,0.5,1.5,0.8c0.4,0.3,0.8,0.7,1.2,1.1l-0.1-0.2c0.4,0.5,0.7,1,0.9,1.5
			c0,0.1,0.1,0.2,0.1,0.4c-0.6,0.1-1.2,0.2-1.9,0.3C467.9,363.8,467.6,363.8,467.3,363.8"/>
	</g>
	<path class="st31" d="M467.3,343c2.3,0,4.1-1,5-1.9c0.2-0.2,0.4-0.5,0.4-0.8l-1.7-1.2c-0.9,0.6-4.2,2.6-7.6,0.2
		c-0.5-0.4-1.3-0.2-1.6,0.3c-0.4,0.5-0.2,1.3,0.3,1.6C464,342.5,465.8,343,467.3,343z"/>
</g>
</svg>
