<?xml version="1.0" encoding="utf-8"?>
<!-- Generator: Adobe Illustrator 22.0.1, SVG Export Plug-In . SVG Version: 6.00 Build 0)  -->
<svg version="1.1" id="Capa_1" xmlns="http://www.w3.org/2000/svg" xmlns:xlink="http://www.w3.org/1999/xlink" x="0px" y="0px"
	 viewBox="0 0 350 280" style="enable-background:new 0 0 350 280;" xml:space="preserve">
<style type="text/css">
	.st0{clip-path:url(#SVGID_2_);fill-rule:evenodd;clip-rule:evenodd;fill:#FD7169;}
	.st1{clip-path:url(#SVGID_2_);}
	.st2{fill-rule:evenodd;clip-rule:evenodd;fill:#FFFFFF;}
	.st3{opacity:0.74;fill-rule:evenodd;clip-rule:evenodd;fill:#CCCCCC;}
	.st4{fill-rule:evenodd;clip-rule:evenodd;fill:#66A677;}
	.st5{fill-rule:evenodd;clip-rule:evenodd;fill:#4D8354;}
	.st6{fill-rule:evenodd;clip-rule:evenodd;fill:#6DBA86;}
	.st7{fill-rule:evenodd;clip-rule:evenodd;fill:#8ED9F1;}
	.st8{clip-path:url(#SVGID_4_);fill-rule:evenodd;clip-rule:evenodd;fill:#95E8FF;}
	.st9{fill-rule:evenodd;clip-rule:evenodd;fill:#CCCCCC;}
	.st10{fill-rule:evenodd;clip-rule:evenodd;fill:#65D9C8;}
	.st11{fill-rule:evenodd;clip-rule:evenodd;fill:#A7D8D7;}
	.st12{fill-rule:evenodd;clip-rule:evenodd;fill:#FFC193;}
	.st13{fill:#231915;}
	.st14{fill-rule:evenodd;clip-rule:evenodd;fill:#3E3938;}
	.st15{fill-rule:evenodd;clip-rule:evenodd;fill:#231915;stroke:#231915;stroke-width:0.6482;stroke-miterlimit:10;}
	.st16{fill-rule:evenodd;clip-rule:evenodd;fill:#1C2133;}
	.st17{fill-rule:evenodd;clip-rule:evenodd;fill:#4A2325;}
	.st18{fill-rule:evenodd;clip-rule:evenodd;fill:#441E20;}
	.st19{fill-rule:evenodd;clip-rule:evenodd;fill:#FFAC80;}
	.st20{fill-rule:evenodd;clip-rule:evenodd;fill:#EF845C;}
	.st21{fill-rule:evenodd;clip-rule:evenodd;fill:#87ACA2;}
	.st22{fill-rule:evenodd;clip-rule:evenodd;fill:#94BCB2;}
	.st23{fill-rule:evenodd;clip-rule:evenodd;fill:#FEFEFE;}
	.st24{fill-rule:evenodd;clip-rule:evenodd;fill:#0092D3;}
	.st25{fill-rule:evenodd;clip-rule:evenodd;fill:#006BB2;}
	.st26{fill-rule:evenodd;clip-rule:evenodd;fill:#231915;}
	.st27{fill-rule:evenodd;clip-rule:evenodd;fill:#3E3B3A;}
	.st28{fill-rule:evenodd;clip-rule:evenodd;fill:#782C32;}
	.st29{fill-rule:evenodd;clip-rule:evenodd;fill:#E35F50;}
	.st30{fill-rule:evenodd;clip-rule:evenodd;fill:#F7B888;}
	.st31{fill-rule:evenodd;clip-rule:evenodd;fill:#404040;}
	.st32{fill-rule:evenodd;clip-rule:evenodd;fill:#F09A6C;}
	.st33{fill-rule:evenodd;clip-rule:evenodd;fill:#6DC4BD;}
	.st34{fill-rule:evenodd;clip-rule:evenodd;fill:#F2A972;}
	.st35{fill-rule:evenodd;clip-rule:evenodd;fill:#141826;}
</style>
<g>
	<defs>
		<rect id="SVGID_1_" transform="matrix(-1 -1.224647e-16 1.224647e-16 -1 350 280)" width="350" height="280"/>
	</defs>
	<clipPath id="SVGID_2_">
		<use xlink:href="#SVGID_1_"  style="overflow:visible;"/>
	</clipPath>
	<rect x="-56.4" y="-60.9" class="st0" width="461.7" height="461.7"/>
	<g class="st1">
		<g>
			<path class="st2" d="M63.9,293.8c-28.8,0-52.4-23.6-52.4-52.4l0,0c0-28.8,23.6-52.4,52.4-52.4l0,0c12.2,0,22.1-10,22.1-22.1l0,0
				c0-12.2-10-22.1-22.1-22.1h-2.6c-12.7,0-23-10.4-23-23l0,0c0-12.7,10.4-23,23-23h8.1c4.9,0,9-4,9-9l0,0c0-4.9-4-9-9-9h-5.9
				c-3.4,0-6.2-2.8-6.2-6.2l0,0c0-3.4,2.8-6.2,6.2-6.2h39.9c5.3,0,9.7-4.4,9.7-9.7l0,0c0-5.3-4.4-9.7-9.7-9.7H91.4
				c-3.4,0-6.2-2.8-6.2-6.2v0c0-3.4,2.8-6.2,6.2-6.2h170c4.4,0,8.1,3.6,8.1,8.1v0c0,4.4-3.6,8.1-8.1,8.1h-12.5
				c-7,0-12.7,5.7-12.7,12.7v0c0,7,5.7,12.7,12.7,12.7h52.5c4.4,0,8.1,3.6,8.1,8.1l0,0c0,4.4-3.6,8.1-8.1,8.1h-7.8
				c-6.4,0-11.7,5.3-11.7,11.7l0,0c0,6.4,5.3,11.7,11.7,11.7h10.5c16.5,0,30,13.5,30,30l0,0c0,16.5-13.5,30-30,30h-3.4
				c-15.9,0-28.9,13-28.9,28.9l0,0c0,15.9,13,28.9,28.9,28.9h7.4c16,0,29.1,13.1,29.1,29.1l0,0c0,16-13.1,29.1-29.1,29.1
				C225.3,293.8,146.8,293.8,63.9,293.8L63.9,293.8z M282,52.7c4.5,0,8.1-3.6,8.1-8.1c0-4.5-3.6-8.1-8.1-8.1c-4.5,0-8.1,3.6-8.1,8.1
				C273.9,49.1,277.5,52.7,282,52.7L282,52.7z M46,80.7c3.4,0,6.2-2.8,6.2-6.2c0-3.4-2.8-6.2-6.2-6.2c-3.4,0-6.2,2.8-6.2,6.2
				C39.8,78,42.6,80.7,46,80.7z"/>
		</g>
		<g>
			<path class="st9" d="M304.9,186.1c-0.2-0.7-0.3-1.2-0.4-1.4c14.8-34.5,26.3-61.5,26.3-61.5l-0.8-0.5c-16.8,38-16.8,38-28.1,62.9
				c-0.3,0.1-0.6,0.1-1.1,0.3c0,0,0,0,0,0c-0.3,0.1-0.7,0.2-1.2,0.3c-2.9,0.8-9.3,2.4-10.1,3c-0.8,0.5-3.9,12.5-4.5,14.2l0,0
				c-5.5,2.4-21.4,9.7-33.6,16.8c-2.1-2.3-3.9-4-3.9-4c-0.3,0.1-0.6,0.3-0.9,0.5c-2.2-6.1-6.2-16.5-13.2-31.9c0.5-1.2,0.8-2.1,1-2.4
				l0.1-0.2c0,0,0,0,0,0c0,0,0,0,0,0l0-0.1l0,0c0,0,0,0,0,0l-3.6-2.6l0,0c-6-11.9-9.8-14.3-12.5-14.2c-2.2-1.5-12.1-4.8-22.1-6.5
				l-6-4.2c-0.3-0.7-0.6-1.4-0.9-2.1l4.3,2.2l0.7-3c0,0,2.1,3,2.1,3.9c0,0.9,3.7-7.3,3.7-7.3s1.3,2.2,1.4,3.3
				c0.1,1.1,0.3,0.1,1.3-2.3c1-2.4,3.9-6.3,3.9-6.3s0.2,2.5-0.2,3.2c-0.3,0.6,13.9-21.7-4.7-29.4c0,0,0,0,0,0c-0.9-2-1.7-4-2.3-6.1
				c0.3-0.1,0.5-0.2,0.8-0.3c0.2-0.1,0.3-0.2,0.5-0.3c1.9-1.2,3.1-3.8,3.6-6.4c0.5-2.6,0.4-5.3-0.3-6.7c-0.1-0.1-0.1-0.3-0.2-0.3
				c0-0.1-0.1-0.1-0.1-0.1c-0.7-0.9-2.7-1.2-5.3-1.3c-0.1-1.6-0.3-3.3-0.8-4.8c-0.7-2.5-1.7-4.5-2.6-5.9c8.1-5,9.1-12.3,4.3-17.7
				c-13.1-14.7-53.8-0.2-56.5,15.7c-0.6,0-3.6,2.7-7,5.3c-3.4,2.6,1.6,16.6,5.5,24.4c0.1,0.1,0.1,0.2,0.2,0.4c0,0.4,0.1,0.8,0.2,1.3
				c1.2,5.8,9,11.9,12.9,12.1c0.1,0,0.1,0,0.2,0c0.4,0.8,0.9,1.5,1.3,2.3c0.7,3.2,1.4,6,2.2,7.7c2.2,5,4.4,7.1,5.4,7.9
				c0.2,2.8,0.3,5.8,0.2,9.2l-1.9-1.3l-5.7,7.9l0.4,0.4c-0.7,0.1-1.4,0.3-2.1,0.4c0,0,0,0,0,0c-4.4,0.9-9,2-14.2,3.5
				c-5.7,1.5-20.2,45.8-22.8,69.9c-4.4,1.9-7.4,4.3-7.6,6.2c-0.7,5.6,10.7,24.6,15.7,21.1l28.3-3.5c0,2,0,4,0.1,6.1c0,0,0,0,0,0
				c0,10.2-0.2,21.9-0.5,36.2l0,0c-1.8,3.5-3.1,6.7-3,6.9c0.2,0.3-0.9,63.2-0.9,63.2l4.3,166.6h1.8l0,0c-1.5,5.2-4.6,16.1-5.3,20.1
				c-0.9,5.3,17.5,3.9,21.9,2.1c4.4-1.8,1.1-6.4,0.2-9c-0.7-1.9-2.1-7.6-3.7-13.3l0.6,0c0,0,0,0,0-0.1c0,0,0-0.1,0-0.2
				c0.5-6.8,12.5-165.7,15.9-198.4c-0.2,5.4,0.3,12.3,0.3,17.6c-2.1,52.2-8.4,173.4-8.8,181c0,0,0,0.1,0,0.1c0,0.2,0,0.3,0,0.3
				l1.4,0.1c-0.5,3.5-1.8,13.3,0.4,13.9c2.7,0.8,11,0.1,13.2,0.3c2.1,0.2,8.5,2.8,17.3,2.5c8.8-0.3,9.8-1.1,10.3-2.2
				c0.4-1.2-22-10.6-26.3-13.5c0,0,33.9-230.6,33.1-235.2c-0.4-1.9-1.3-4.8-2.3-7.4c2.4-24.8,3.6-46.1,3.7-64.2
				c1.1,2.3,2.2,4.4,3,6.2c0,11,9.6,16.8,19.3,11.5c3-1.6,5-4.8,6.2-8.2l0,0l25.5-23.1l9.2-8.3c0.2,0,6.1-1,9.9-2c0,0,0,0,0,0
				c0.1,0,0.2-0.1,0.3-0.1c0.1,0,0.2,0,0.2-0.1c0,0,0.1,0,0.1,0c0.9-0.3,1.7-0.6,2.1-0.9c0.1,0,0.1,0,0.2,0c0,0,0,0,0,0
				c0.1,0,0.3,0,0.4,0c0.1,0,0.3,0,0.4-0.1c0.4-0.2,0.6-0.4,0.8-0.6c0.4-0.5,0.4-1.2,0.2-1.8c0,0,0.1,0,0.1,0c0.2,0,0.4,0,0.6-0.1
				c0.5-0.1,0.8-0.3,1.1-0.6c0,0,0,0,0,0c0.7-0.7,0.8-1.7,0.3-2.5c0.2,0,0.3,0,0.5-0.1c0,0,0.1,0,0.1,0c0.1,0,0.3-0.1,0.4-0.2
				c0,0,0.1-0.1,0.1-0.1c0.1-0.1,0.2-0.1,0.2-0.2c0.1-0.1,0.1-0.1,0.2-0.2c0,0,0.1-0.1,0.1-0.2c0,0,0.1-0.1,0.1-0.1c0,0,0,0,0,0
				c0,0,0-0.1,0.1-0.1c0.1,0,0.1-0.1,0.2-0.1c1.2-0.9,0.2-3.4,0.2-3.4C309.4,195,305.3,187.4,304.9,186.1z M303.6,192.5
				c-1-0.7-2-1.3-2.9-1.7c0.7-1,1.4-2.2,2.1-3.3c0,0.3-0.1,0.5-0.1,0.8C302.6,189.4,303,191,303.6,192.5z M298.3,191.2
				c-0.4-0.1-0.7-0.1-1.1-0.1c0,0,0,0,0,0c0.6-0.3,1.2-0.5,1.8-0.8C298.7,190.5,298.5,190.9,298.3,191.2z M150.6,217.2
				c0.1-0.4,0.2-0.7,0.3-1.1c1,6.4,1.7,12.6,2.2,19c0.1,1.4,0.2,2.8,0.3,4.2c-1.7-0.2-3.4-0.5-5.1-0.7c0.2-1.4,0.2-2.4,0.2-2.4
				c-0.7-0.1-1.5-0.3-2.3-0.7c0.2-0.9,0.5-1.9,0.7-2.9C148.2,227.6,149.5,222.2,150.6,217.2z M198.5,96.7c1.1,0,2.1,0.1,2.8,0.2
				c-0.8,0.2-1.8,0.6-2.8,0.9C198.5,97.4,198.5,97,198.5,96.7z M202.9,103.3c-0.4,2.3-1.4,4.5-2.9,5.5c-0.1,0.1-0.2,0.1-0.3,0.2
				c-0.2,0.1-0.3,0.2-0.5,0.2c-0.4-1.5-0.7-2.9-0.9-4.5c0,0-0.1-0.8-0.3-2.2c0.1-0.6,0.2-1.3,0.3-2c1.9-0.3,3.9-0.6,4.9-0.8
				C203.2,100.9,203.1,102.1,202.9,103.3z M186.3,332c-0.1,0.3-0.2,0.5-0.2,0.8C186.2,332.2,186.2,331.9,186.3,332z"/>
			<g>
				<path class="st10" d="M202.4,164.1c3.3-0.3,7.4-8.6,19.5,18c12.1,26.6,15.4,38.5,15.4,38.5c-6.9-4.1-15.3,15.5-15.1,20.2
					c0,0-26.6-52.6-25-59.3C199.7,170.9,199.1,164.4,202.4,164.1L202.4,164.1z"/>
				<path class="st11" d="M246.6,228.3c1.4-3.1-10.5-14.6-10.5-14.6c-7.7,3.6-16.1,11.6-16.8,19.4c-1,12.2,9,18.8,19.3,13.3
					C244.9,243.1,246.7,233.1,246.6,228.3L246.6,228.3z"/>
				<path class="st12" d="M237.2,245.2c-3.2,2.9-16.9-5.7-12.6-15.4c4.3-9.6,50.9-29.8,50.9-29.8l4.3,6.7L237.2,245.2z"/>
				<path class="st13" d="M180.9,97.3c0.6-0.4,10.8-3.5,10.9-3.5l0.7,3.4c0,0-10.2,1.6-10.3,1.6L180.9,97.3z"/>
				<path class="st14" d="M180.6,78.2c0,0,3.6,2.4,5.7,9.6c2.1,7.2-0.7,16.2-0.7,16.2l-9.3-23.4L180.6,78.2z"/>
				<path class="st16" d="M139.2,304.2c0.2,0.3-0.9,63.2-0.9,63.2l4.3,166.6l15.6-0.2c0,0,16-213.8,16.8-204.1
					c0.7,9.7-9.4,204.6-9.4,204.6l16.2,1.1c0,0,33.9-230.6,33.1-235.2c-0.9-4.6-5.1-14.7-5.1-14.7c-36.8-22.6-55.3-6-63.7,5.4
					C142.9,295.2,139,303.9,139.2,304.2L139.2,304.2z"/>
				<path class="st17" d="M172.2,155c13.2-0.3,34.3,6.3,35.2,8.1c8.8,17.4,12,60.3,5.2,129.7l-70.3,4.5
					c1.5-66.1,0.1-76.5-13.2-135.9C145,157,155,155.4,172.2,155L172.2,155z"/>
				<path class="st18" d="M214.9,195.6L214.9,195.6l-10.4,49.2l-11.7,2.6c0,0-7.3,5.5-22.5,10.1c-7.5,2.3-18.3,3.3-27.5,3.6
					c-0.1-11.8-0.4-21.5-1.2-30.8c3.9,0.7,10.1,1.7,10.9,2c1.1,0.4,16.3-31.7,16.3-31.7L214.9,195.6z"/>
				<path class="st10" d="M172.2,155c5.9-0.1,13.5,1.1,20,2.8c2.8,4.5,6.2,11.2,4.5,16.7c-2.8,8.9-24,9.1-38-0.5
					c-8.7-5.9-13.2-12.1-15.5-16C152.3,156,160.6,155.2,172.2,155L172.2,155z"/>
				<path class="st19" d="M149.7,127c2.4,6.2,3.7,16,2.6,30.4c-1.2,15.7,18.9,12.9,31.1,19.6c2.1-5.2,3-6.6,1.7-13
					c-12.9-21.6-10.4-31.6-10.5-31.6L149.7,127z"/>
				<path class="st10" d="M143.2,196.2c6.2-22.2-7-36.7-14.2-34.8c-7.2,1.9-28.3,72-22.1,83.5c6.2,11.6,17.2,13.2,22.1,5
					C134,241.8,143.2,196.2,143.2,196.2L143.2,196.2z"/>
				<path class="st11" d="M135.1,244.3c1.5-3.1,2-10.6,2-10.6c-4-0.5-9.4-5.6-15.1-5.7c-11.2-0.2-22.9,5.6-23.4,9.4
					c-0.7,5.6,10.7,24.6,15.7,21.1L135.1,244.3z"/>
				<path class="st12" d="M186.9,102.2c1.5,13,12.5,24.3,8.9,31.6c-3.7,7.4-32.5,20-46.1-0.6C136,112.6,127,87.9,137.5,79.2
					c10.5-8.7,30-8.4,38.7-1.8C184.8,83.9,186.9,102.2,186.9,102.2L186.9,102.2z"/>
				<path class="st13" d="M172.5,94.8c0.1,0,0.1-0.1,0.1-0.1c1.1-0.7,5.5-1.5,9.8-1.9c4.4-0.4,8.9-0.3,9.9,1.1c0,0,0.1,0.1,0.1,0.1
					l0,0c0.1,0.1,0.1,0.2,0.2,0.3c0.7,1.4,0.8,4.1,0.3,6.7c-0.5,2.6-1.7,5.2-3.6,6.4c-0.1,0.1-0.3,0.2-0.5,0.3c-2,1-4.7,1.5-7.2,1.5
					c-2.5,0-4.8-0.6-6-1.6c-0.9-0.9-1.8-3-2.4-5.3c-0.9-3.2-1.3-6.6-1-7.3l0.1-0.2L172.5,94.8z M182.6,94.4c-3.9,0.3-7.8,1-8.9,1.5
					c-0.1,0.8,0.4,3.5,1.1,6.1c0.6,2,1.3,3.9,2,4.6c0.9,0.8,2.8,1.2,4.9,1.2c2.2,0,4.7-0.5,6.5-1.3c0.1-0.1,0.2-0.1,0.3-0.2
					c1.5-1,2.5-3.2,2.9-5.5c0.5-2.3,0.4-4.6-0.2-5.7c0-0.1-0.1-0.1-0.1-0.2l0,0C190.5,94,186.6,94,182.6,94.4L182.6,94.4z"/>
				<path class="st20" d="M168.9,99.1c4.4,8.8,14.4,8.5,18.7,10c4.2,1.4-6.9,12-12,8.1C170.5,113.4,168.9,99.1,168.9,99.1
					L168.9,99.1z"/>
				<path class="st14" d="M142.6,111.3l4.4-0.5c0,0-9.2-19.1-7-22c2.2-2.8,25.9,0.3,38.6-4.4c12.7-4.8,15.1-13.8,9.4-20.2
					c-13.1-14.7-53.8-0.2-56.5,15.7c-0.6,0-3.6,2.7-7,5.3s1.6,16.6,5.5,24.4c3.9,7.9,11.6,13.2,12.3,12.9
					C143,122.2,142.6,111.3,142.6,111.3L142.6,111.3z"/>
				<path class="st17" d="M162.2,99.3c1.4,0.1,2.4,1.3,2.4,2.8c0,1.4-1.1,2.6-2.4,2.5c-1.3-0.1-2.4-1.3-2.4-2.8
					C159.8,100.4,160.9,99.2,162.2,99.3L162.2,99.3z"/>
				<path class="st17" d="M179.6,97.5c1.2,0.1,2.1,1.2,2.1,2.4s-0.9,2.3-2.1,2.2c-1.2-0.1-2.1-1.1-2.1-2.4
					C177.4,98.4,178.4,97.4,179.6,97.5L179.6,97.5z"/>
				<path class="st14" d="M141.2,102.3l1.2-2.2c0,0,13.5,21.7,13.8,20.9c0.4-0.8,3-3.7,7.7-3.9c4.7-0.2,7.1,2.4,14.8,1.7
					c7.6-0.7,11.7-4.7,11.7-4.7c18.6,7.7,4.4,30,4.7,29.4c0.4-0.7,0.2-3.2,0.2-3.2s-2.9,3.9-3.9,6.3c-1,2.4-1.2,3.4-1.3,2.3
					c-0.1-1.1-1.4-3.3-1.4-3.3s-3.7,8.2-3.7,7.3c0-0.9-2.1-3.9-2.1-3.9l-0.7,3l-7.5-3.8l0.2,3.6c0,0-4.9-2.6-12.4-5.9
					c-7.5-3.3-10.1-6.8-10.1-6.8l0.5,2.4c0,0-2.9-1.6-5.9-8.3C144.1,126.6,141.2,102.3,141.2,102.3L141.2,102.3z"/>
				<path class="st21" d="M172.1,166.2c0.9-0.2,4.1,1,4.1,1l7.2,9.8l-16.4-5.8L172.1,166.2z"/>
				<polygon class="st22" points="189.6,168.3 183.4,177 178.9,152 				"/>
				<path class="st21" d="M195.9,173.7c-0.5-0.5-6.3-5.4-6.3-5.4L178.9,152l6,4.2L195.9,173.7z"/>
				<path class="st12" d="M114.4,258.5c-2.5-0.8-5.7-10.3-2.1-19.8c3.6-9.5,57.6,3.4,57.6,3.4l1.8,9.4L114.4,258.5z"/>
				<path class="st23" d="M171.2,181.2c0.2-0.9-0.3-7.7-0.3-7.7l5.8-2.9l29.2,15.1l13.6-8.9l3.6,2.6l-27.4,54l-19.1,2.2l-18.8-11.9
					L171.2,181.2z"/>
				<polygon class="st24" points="170.9,173.5 206.2,189.7 184,243.4 148.6,227.2 				"/>
				<path class="st25" d="M206.2,189.7c0,0,17.5-11.2,16.8-10.1c-0.7,1.1-22.3,58.4-22.3,58.4l-16.8,5.4L206.2,189.7z"/>
				<path class="st12" d="M172.7,251.7c-0.7-0.2-5.1-0.2-4.6-4c0.5-3.8,4-9.7,4-9.7l5.7,2.6c0,0,7.2-7.7,9-8.2
					c1.9-0.5,1.4,2.5,1.4,2.5s3.2-2.1,3.6-0.7c0.5,1.4-0.4,3.9-0.4,3.9s1-0.7,0.9,1c-0.1,1.7-4.7,7.3-7,9.3
					C183.1,250.3,172.7,251.7,172.7,251.7L172.7,251.7z"/>
				<path class="st22" d="M176.7,167.1c-0.7,0.7-11.3,10.5-11.3,10.5L145,157.1l5.7-7.9L176.7,167.1z"/>
				<path class="st26" d="M164.6,94.5c-3.4,0.2-9.5,1.1-12.5,3c0-0.9-0.2-1.4,0.6-2c2.3-1.8,10.9-3.4,11.8-3.4
					C165.3,92.1,165.2,94.1,164.6,94.5L164.6,94.5z"/>
				<path class="st26" d="M172.2,93c3.2-1,8.8-2.2,11.6-1.4c0-0.9,0.1-1.5-0.6-1.8c-2.2-0.9-10.1,0.5-10.9,0.7
					C171.6,90.8,171.7,92.8,172.2,93L172.2,93z"/>
				<path class="st12" d="M278.5,190.4c0.8-0.3,2.2-2.2,7.3-1.9s10.8,4.1,11.2,4.8c0.4,0.8-2.9,8.9-4.5,10.3
					c-1.6,1.4-12.8,3.2-12.8,3.2l-6-6L278.5,190.4z"/>
				<path class="st12" d="M273.6,200.8c0.6-1.7,3.7-13.6,4.5-14.2c0.8-0.5,7.2-2.1,10.1-3c2.9-0.8,2.9-0.7,2.9-0.7s0.3,1-1.2,3
					c-1.5,2.1-8.7,4.3-8.7,4.3c0.5,2.7,1.6,4.5,0.2,8.3c-1,2.6-3.5,4.1-5.5,3.1C274,200.7,273.6,200.8,273.6,200.8L273.6,200.8z"/>
				<path class="st19" d="M289.4,183.3c1.7-0.5,1.7-0.4,1.7-0.4s0.3,1-1.2,3c-1.5,2.1-8.7,4.3-8.7,4.3c0.5,2.7,1.6,4.5,0.2,8.3
					c-0.3,0.7-0.6,1.3-1.1,1.8c-0.4,0.4-0.6,0.6-0.6,0.6l0,0c0,0,1.3-3.8,1.2-5.5c0-1.7-0.9-6.5-0.9-6.5s5.8-1.5,7.2-2.9
					C288.1,185.2,288.9,184.2,289.4,183.3L289.4,183.3z"/>
				<path class="st12" d="M298.5,193.5c-0.5-1-4.6-8.7-5-10c-0.4-1.3-0.3-1.7-0.7-1.6c-0.4,0.1-1.4,1.2-1.6,3.8
					c-0.1,2.6,2,7.3,3.3,9.2c1.3,1.9,2.6,2.8,3.7,1.9C299.5,195.9,298.5,193.5,298.5,193.5L298.5,193.5z"/>
				<path class="st19" d="M293.5,183.2c-0.3-1.1-0.3-1.4-0.6-1.3c-0.4,0.1-1.4,1.2-1.6,3.8c-0.1,2.6,2,7.3,3.3,9.2
					c1.3,1.9,2.6,2.8,3.7,1.9c0.5-1.5-0.6-2.4-0.9-3.2c-0.3-0.8-1.7-1.8-2.8-2.7c-1.1-0.9-2.2-4.5-2.1-5.7
					C292.7,184.7,293,184,293.5,183.2L293.5,183.2z"/>
				<path class="st27" d="M281,197.5c0,0,1.8,1.4,1.8,1.1c0-0.4,48.1-75.3,48.1-75.3l-0.8-0.5C313.5,147.5,297.5,172.7,281,197.5
					L281,197.5z"/>
				<path class="st12" d="M297.7,194.4c1.4,1.2,0.7,3.5-1.4,3.6c-2.1,0.1-7-5-8.8-6.7c-1.8-1.6,0.4-3.7,1.8-3.1
					C292.2,189.5,296.3,193.2,297.7,194.4L297.7,194.4z"/>
				<path class="st19" d="M298.1,197.1c-0.3,0.5-1,0.9-1.8,1c-2.1,0.1-7-5-8.8-6.7c-1.8-1.6,0.4-3.7,1.8-3.1l0.1,0
					c-0.7,0.2-1.4,0.6-1.4,1.2c0.1,1.1,5.3,6.2,6.3,6.8C295,196.7,297,196.9,298.1,197.1L298.1,197.1z"/>
				<path class="st12" d="M295.5,197.2c1.6,0.9,1.5,3.3-0.6,3.9c-2,0.6-7.8-3.4-9.9-4.7c-2.1-1.2-0.4-3.8,1-3.5
					C289.2,193.6,293.9,196.3,295.5,197.2L295.5,197.2z"/>
				<path class="st19" d="M286.2,195.8c1.6,1,5.7,3.8,8.3,4.5c0.6,0.2,1.1,0.3,1.5,0.2c-0.3,0.3-0.6,0.5-1.1,0.6
					c-0.2,0.1-0.5,0.1-0.9,0c-0.3,0-0.7-0.1-1.2-0.3c-0.3-0.1-0.8-0.3-1.2-0.5c-2.4-1.1-5.3-3.1-6.6-3.9c-0.3-0.2-0.5-0.3-0.6-0.5
					c-0.9-1.2,0.2-2.9,1.3-3c-0.3,0.4-0.6,1-0.5,1.6C285.4,195,285.7,195.5,286.2,195.8L286.2,195.8z"/>
				<path class="st12" d="M293.4,200.3c1.4,0.6,1.5,2.6-0.1,3.3c-1.6,0.7-6.8-2.1-8.6-2.9c-1.8-0.9-0.7-3.1,0.5-3
					C287.8,197.9,292,199.7,293.4,200.3L293.4,200.3z"/>
				<path class="st19" d="M284.6,199.2c0.5,0.9,6.6,3.8,8.2,3.8c0.1,0,0.1,0,0.2,0c0.5,0,0.9-0.1,1.2-0.1c-0.2,0.3-0.5,0.6-0.9,0.7
					c-0.2,0.1-0.6,0.1-1,0.1c-2.2-0.2-6.1-2.3-7.7-3c-1.6-0.8-0.9-2.7,0.1-3C284.5,198.2,284.3,198.7,284.6,199.2L284.6,199.2z"/>
				<path class="st28" d="M185.9,119.5c0,0-2.7,1.1-10.7,2c-8,0.9-10.9,0.2-10.9,0.2c-2.1,8,16.7,14.8,20.4,6
					C185.7,125.1,185.9,119.5,185.9,119.5L185.9,119.5z"/>
				<path class="st29" d="M165.7,126.9c3.1,3.7,10.2,6.1,15,4.5C179.4,127.4,173.6,124.5,165.7,126.9L165.7,126.9z"/>
				<path class="st23" d="M184.2,123.9c0.5-0.5,0.3-2.7,0.1-3.9c-1.6,0.4-4.5,1-9.1,1.5c-5.5,0.7-8.6,0.5-10,0.3
					c-0.1,0.5-0.1,1.2-0.1,1.8c0.1,1.4,1.1,1.3,2.7,1.6C169.4,125.6,183.5,124.6,184.2,123.9L184.2,123.9z"/>
				<path class="st30" d="M157.1,118.5c-10-15.4-11.9-18.5-14.5-29.7c6.1,1.2,31.7-0.8,35.7-3.2c1.8-1.1,2.4-1.8,2.6-2.2
					c-0.7,0.3-1.5,0.7-2.3,1c-0.2,0.1-0.5,0.2-0.7,0.3C165,89,142.2,86,140.1,88.8c-1.1,1.4,0.5,6.4,2.4,11.4
					c0,0,13.5,21.7,13.8,20.9c0.3-0.7,2.3-2.9,5.8-3.7L157.1,118.5z"/>
				<path class="st31" d="M152.6,80.8c12.5-2.3,10.5-0.9,19.4-3.2c8.9-2.3,8.9-6.5,8.9-6.5s-1.7,1.4-7.3,2.8
					c-5.6,1.4-10.4,1.7-8.8,1.6c1.6-0.1,13.8-6.8,12.9-6.4c-0.9,0.3,0.6-0.5-7.9,0.6c-8.5,1.1-16.8,4.6-16.4,4.2
					c0.4-0.4,1.5-5,11.8-8.5c10.3-3.5,18.6-3,21.7,0.9c3,3.8,1.4,8.8-0.9,11.7c-2.4,2.9-12.4,5.5-22.7,6.8
					c-10.3,1.2-17.4,1.1-21.4,2.1c-4,1-10.9,9.5-10.3,8.2C136.5,85.4,140.1,83.1,152.6,80.8L152.6,80.8z"/>
				<path class="st13" d="M168.8,95.8l0.1,0.1l0.2,0.1l0.1,0.1c0.5,0.5,1.1,4.2,1.2,7.6c0.1,2.4-0.1,4.8-0.8,6
					c-0.8,1.4-2.9,2.7-5.5,3.5c-2.4,0.8-5.3,1.1-7.6,0.7c-0.2,0-0.4-0.1-0.6-0.1c-2.3-0.7-4.3-2.9-5.6-5.4c-1.3-2.4-2-5.2-1.8-6.8
					c0-0.1,0.1-0.3,0.1-0.4l0.1-0.1c0.6-1.6,5.1-3.1,9.6-4.1C162.9,96,167.6,95.5,168.8,95.8L168.8,95.8z M168.2,97.2
					c-1.3-0.2-5.4,0.3-9.5,1.2c-4.1,0.9-8.1,2.1-8.5,3.2l0,0c0,0.1-0.1,0.2-0.1,0.2c-0.2,1.3,0.4,3.6,1.6,5.8
					c1.2,2.2,2.8,4.1,4.7,4.6c0.1,0,0.3,0.1,0.4,0.1c2.1,0.3,4.7,0,7-0.7c2.2-0.7,4-1.7,4.6-2.8c0.5-0.9,0.7-3,0.6-5.2
					C168.9,100.9,168.5,98,168.2,97.2L168.2,97.2z"/>
				<path class="st13" d="M172.4,98c0-0.1-0.1-0.3-0.2-0.3c-0.2-0.1-0.5-0.1-0.7-0.1c-0.3,0-0.6,0.1-0.9,0.2
					c-0.4,0.2-0.8,0.5-0.7,0.8l-1.2,0.1c-0.1-1.2,0.4-1.9,1.4-2.4c0.5-0.2,1-0.3,1.4-0.3c0.5,0,1,0.1,1.4,0.3c0.7,0.4,1.1,1,1,1.9
					L172.4,98z"/>
				<path class="st13" d="M137.6,103.5c0.6-0.4,12.5-3.8,12.6-3.8l-0.9,3.7c0,0-10.2,1.5-10.3,1.6L137.6,103.5z"/>
				<path class="st19" d="M137,103.5c3.9,0.2,8,5.1,9.2,10.9c1.2,5.8,1.1,9.1-2.8,8.9c-3.9-0.2-11.8-6.3-12.9-12.1
					C129.3,105.4,133.1,103.3,137,103.5L137,103.5z"/>
				<path class="st32" d="M139.4,106.6c-4.9-2.6-8.6,1.8-5.3,7.4c1.9,3.2,6.9,8,9,6.8c2.1-1.2,1.6-5.3,0.8-6.1
					c-0.8-0.9-2,0.1-2.8-1.9c-0.7-2,1.1-2.2,0.4-3.7C141,107.4,139.4,106.6,139.4,106.6L139.4,106.6z"/>
				<path class="st33" d="M130.1,217c-2.6,4.7-5.2,8.3-8,11h0c4.6,0.1,9.1,3.5,12.8,5c1.6-6.3,3.3-13.3,4.7-19.5
					c2.2-9.6,3.7-17.3,3.7-17.3c4.4-15.6-0.9-27.4-6.8-32.4c0.9,2.8,1.9,7,2.9,12.8c1.2,7.3,0.9,14.8-2,23.9
					C135.7,205.5,133.4,210.9,130.1,217L130.1,217z"/>
				<path class="st34" d="M189.2,244.3c-3.5,1.1-9,2.6-14,2.8c-1,0-2.4,0.1-4.3,0.2c-0.9,0-1.8,0.1-2.8,0.1
					c-6.7,0.4-16.5,0.9-25.6,1.2c-4.6,0.1-9,0.2-12.7,0.1c-0.3,0-0.7,0-1,0c-4.8-0.2-8.4-0.6-9.7-1.4c-5.4-3.4-6.7-8.5-6.7-8.5
					c-1.6,4.1-1.9,8.2-1.5,11.6c0.5,4.5,2.1,7.8,3.6,8.2l28.3-3.5l29.1-3.5c0.5,0.1,0.9,0.1,1,0.2c0,0,10.4-1.4,12.7-3.4
					C186.4,247.4,187.9,245.9,189.2,244.3L189.2,244.3z"/>
				<path class="st34" d="M276.3,205.7c-2.6,0.3-18.1,13.8-29.7,22.3c-4.9,3.6-9.1,6.3-11.3,6.8c-3.6,0.7-7.6-0.7-10.8-2.2
					c-0.2-0.1-0.4-0.2-0.7-0.3c-0.1,0.7-0.1,1.4-0.1,2.1c0.7,7.6,10.7,13.2,13.4,10.8l7.7-7l34.7-31.4c0,0,10.8-1.7,12.8-3.1
					c-0.2,0-0.4-0.1-0.6-0.1c-3.1,0.5-8.9,1.3-12.7,1.8c-0.3,0-0.5,0.1-0.7,0.1C277.5,205.6,276.8,205.6,276.3,205.7L276.3,205.7z"
					/>
			</g>
		</g>
	</g>
</g>
</svg>
