<?xml version="1.0" encoding="utf-8"?>
<!-- Generator: Adobe Illustrator 22.0.1, SVG Export Plug-In . SVG Version: 6.00 Build 0)  -->
<svg version="1.1" id="Capa_1" xmlns="http://www.w3.org/2000/svg" xmlns:xlink="http://www.w3.org/1999/xlink" x="0px" y="0px"
	 viewBox="0 0 900 1080" style="enable-background:new 0 0 900 1080;" xml:space="preserve">
<style type="text/css">
	.st0{clip-path:url(#SVGID_2_);fill-rule:evenodd;clip-rule:evenodd;fill:#FD7169;}
	.st1{clip-path:url(#SVGID_2_);}
	.st2{fill-rule:evenodd;clip-rule:evenodd;fill:#FFFFFF;}
	.st3{opacity:0.74;fill-rule:evenodd;clip-rule:evenodd;fill:#CCCCCC;}
	.st4{fill-rule:evenodd;clip-rule:evenodd;fill:#66A677;}
	.st5{fill-rule:evenodd;clip-rule:evenodd;fill:#4D8354;}
	.st6{fill-rule:evenodd;clip-rule:evenodd;fill:#6DBA86;}
	.st7{fill-rule:evenodd;clip-rule:evenodd;fill:#8ED9F1;}
	.st8{clip-path:url(#SVGID_4_);fill-rule:evenodd;clip-rule:evenodd;fill:#95E8FF;}
	.st9{fill-rule:evenodd;clip-rule:evenodd;fill:#CCCCCC;}
	.st10{fill-rule:evenodd;clip-rule:evenodd;fill:#65D9C8;}
	.st11{fill-rule:evenodd;clip-rule:evenodd;fill:#A7D8D7;}
	.st12{fill-rule:evenodd;clip-rule:evenodd;fill:#FFC193;}
	.st13{fill:#231915;}
	.st14{fill-rule:evenodd;clip-rule:evenodd;fill:#3E3938;}
	.st15{fill-rule:evenodd;clip-rule:evenodd;fill:#231915;stroke:#231915;stroke-width:0.6482;stroke-miterlimit:10;}
	.st16{fill-rule:evenodd;clip-rule:evenodd;fill:#1C2133;}
	.st17{fill-rule:evenodd;clip-rule:evenodd;fill:#4A2325;}
	.st18{fill-rule:evenodd;clip-rule:evenodd;fill:#441E20;}
	.st19{fill-rule:evenodd;clip-rule:evenodd;fill:#FFAC80;}
	.st20{fill-rule:evenodd;clip-rule:evenodd;fill:#EF845C;}
	.st21{fill-rule:evenodd;clip-rule:evenodd;fill:#87ACA2;}
	.st22{fill-rule:evenodd;clip-rule:evenodd;fill:#94BCB2;}
	.st23{fill-rule:evenodd;clip-rule:evenodd;fill:#FEFEFE;}
	.st24{fill-rule:evenodd;clip-rule:evenodd;fill:#0092D3;}
	.st25{fill-rule:evenodd;clip-rule:evenodd;fill:#006BB2;}
	.st26{fill-rule:evenodd;clip-rule:evenodd;fill:#231915;}
	.st27{fill-rule:evenodd;clip-rule:evenodd;fill:#3E3B3A;}
	.st28{fill-rule:evenodd;clip-rule:evenodd;fill:#782C32;}
	.st29{fill-rule:evenodd;clip-rule:evenodd;fill:#E35F50;}
	.st30{fill-rule:evenodd;clip-rule:evenodd;fill:#F7B888;}
	.st31{fill-rule:evenodd;clip-rule:evenodd;fill:#404040;}
	.st32{fill-rule:evenodd;clip-rule:evenodd;fill:#F09A6C;}
	.st33{fill-rule:evenodd;clip-rule:evenodd;fill:#6DC4BD;}
	.st34{fill-rule:evenodd;clip-rule:evenodd;fill:#F2A972;}
	.st35{fill-rule:evenodd;clip-rule:evenodd;fill:#141826;}
</style>
<g>
	<defs>
		<rect id="SVGID_1_" transform="matrix(-1 -1.224647e-16 1.224647e-16 -1 900 1080)" width="900" height="1080"/>
	</defs>
	<clipPath id="SVGID_2_">
		<use xlink:href="#SVGID_1_"  style="overflow:visible;"/>
	</clipPath>
	<rect x="-137.8" y="-71.2" class="st0" width="1166.6" height="1166.6"/>
	<g class="st1">
		<path class="st2" d="M166.3,824.9c-72.8,0-132.3-59.5-132.3-132.3l0,0c0-72.8,59.5-132.3,132.3-132.3l0,0
			c30.8,0,55.9-25.2,55.9-55.9l0,0c0-30.8-25.2-56-55.9-56h-6.7c-32,0-58.2-26.2-58.2-58.2l0,0c0-32,26.2-58.2,58.2-58.2H180
			c12.5,0,22.6-10.2,22.6-22.6l0,0c0-12.5-10.2-22.6-22.6-22.6h-15c-8.6,0-15.6-7-15.6-15.6l0,0c0-8.6,7-15.6,15.6-15.6h100.9
			c13.5,0,24.6-11.1,24.6-24.6l0,0c0-13.5-11.1-24.6-24.6-24.6h-30.2c-8.6,0-15.6-7-15.6-15.6v0c0-8.6,7-15.6,15.6-15.6h429.4
			c11.2,0,20.4,9.2,20.4,20.4v0c0,11.2-9.2,20.4-20.4,20.4h-31.5c-17.6,0-32,14.4-32,32v0c0,17.6,14.4,32,32,32h132.7
			c11.2,0,20.4,9.2,20.4,20.4l0,0c0,11.2-9.2,20.4-20.4,20.4h-19.6c-16.3,0-29.6,13.3-29.6,29.6l0,0c0,16.3,13.3,29.6,29.6,29.6
			h26.7c41.7,0,75.9,34.2,75.9,75.9l0,0c0,41.7-34.2,75.9-75.9,75.9h-8.7c-40.2,0-73,32.9-73,73l0,0c0,40.2,32.9,73,73,73h18.8
			c40.5,0,73.6,33.1,73.6,73.6l0,0c0,40.5-33.1,73.6-73.6,73.6C574.1,824.9,375.7,824.9,166.3,824.9L166.3,824.9z M717.4,215.9
			c11.3,0,20.4-9.1,20.4-20.4c0-11.3-9.1-20.4-20.4-20.4c-11.3,0-20.4,9.1-20.4,20.4C697,206.7,706.1,215.9,717.4,215.9L717.4,215.9
			z M121.2,286.7c8.6,0,15.6-7,15.6-15.6c0-8.6-7-15.6-15.6-15.6c-8.6,0-15.6,7-15.6,15.6C105.5,279.7,112.5,286.7,121.2,286.7z"/>
	</g>
	<g class="st1">
		<g>
			<path class="st3" d="M1161.3,1046.9c31.1-31.7-17.3-101.9-67-89c-37.7,9.8-64.2,27.7-83.1,49.1c0.7-34-9.4-71-40.4-107.6
				c-33.2-39.2-113.2-9.7-106.1,34.1c1.6,10.1,4.4,20.3,8.5,31.9c-10.3-5.3-21.8-9.8-34.7-13.3c-49.4-13.8-99.1,55.5-68.6,87.8
				c24.4,25.8,59.9,45.1,145.6,94.7c8.9,5.2,26.3,15.5,38.4,22.6c-0.1,0.3-0.2,0.6-0.3,0.9h-74.2v177c0,9.4,3.7,18.3,10.3,25
				c6.6,6.6,15.6,10.3,25,10.3c28.7,0,69,0,97.7,0c9.4,0,18.3-3.7,25-10.3c6.6-6.6,10.3-15.6,10.3-25c0-60.4,0-177,0-177H980
				c11.7-6.6,26.1-14.8,34-19.2C1100.6,1090.8,1136.4,1072.2,1161.3,1046.9z"/>
			<g>
				<path class="st4" d="M912.9,1147.6c11.2-25.3,106.2-138.5,13.2-248.2c-33.2-39.2-113.2-9.7-106.1,34.1
					c5.7,35.1,24.3,71,67.3,160.1C894.6,1108.7,912.9,1147.6,912.9,1147.6z"/>
				<path class="st5" d="M881,914.6l-0.2,1.1c27.9,41.7,37.6,93.6,38.5,143.8c0.7,35.2-1.4,71.2-12.1,104.5
					c-0.7,2.1-1.4,4.2-2.3,6.3l0.9,2.3l2.3-0.9c0.2-0.4,0.2-0.4,0.3-0.8c6.4-16.1,8.8-33.7,10.9-51.3c6.4-53.8,3.6-109.9-14.7-160.3
					c-5.7-15.6-13.1-30.7-22.4-44.5C881.7,914.8,881.4,914.7,881,914.6z"/>
				<path class="st5" d="M925.2,936c1.2,13.6-7.8,27-16.3,38.4l-0.2,0.3c-17.2-15.4-35.7-30.4-58-37.4l-0.7,0.4c0,0,0.5,0.8,1.4,1.1
					c21.1,7.5,39.2,22.4,55.4,37.1c2.9,2.6,2.9,0.9,2.9,0.9c9.1-12.4,18.1-26.5,16.7-40.5C926.4,936.2,926.3,934.7,925.2,936z"/>
				<path class="st5" d="M942.7,988.4c-2.5,15.7-12.6,29.2-23.1,40.7c0,0-3.1-3.7-6.6-7.4c-9-9.5-19.5-17.8-31.4-23.3l-0.8,0.3
					l0.3,0.8c14.5,7,26.6,18.9,37,31.1c0.2,0.2,0.3,0.4,0.5,0.5c0.5,0.5-0.4,0.6,1.1,0.6c0.6,0,0.9-0.6,1.3-1
					c10.9-12.1,20.8-25.7,22.8-41.9C943.8,988.8,944,987.4,942.7,988.4z"/>
				<path class="st5" d="M940.4,1056.4c-0.1,4.3-2.9,8.5-5.4,12.5c-4.4,7.1-9.6,13.8-14.7,20.4c0,0-1.7-3.1-3.4-5.5
					c-6-8.6-14.2-15.6-23.5-20.6l-0.8,0.2c0,0,4.5,3.2,8.4,6.2c7.5,5.7,13.4,13.2,18,21.6c1.7,2.9,1.8,0.8,2.9-0.6
					c7.7-9.8,16.8-19.6,19.4-31.8c0.2-0.8,0.3-1.6,0.2-2.4C941.6,1056.4,941.5,1055.2,940.4,1056.4z"/>
				<g>
					<path class="st6" d="M922.2,1164.9c-4.9-27.3,10.2-174.2-128.4-212.8c-49.4-13.8-99.1,55.5-68.6,87.8
						c24.4,25.8,59.9,45.1,145.6,94.7C885.3,1142.9,922.2,1164.9,922.2,1164.9z"/>
					<path class="st5" d="M765.1,990l0.4,1c46.5,18.8,83.6,56.4,112.6,97.4c20.3,28.8,38.7,59.7,48.6,93.3c0.6,2.1,1.2,4.3,1.6,6.5
						l2,1.4l1.4-2c-0.1-0.4-0.1-0.4-0.2-0.8c-3.8-16.9-11.7-32.9-19.8-48.5c-24.9-48.1-58.7-93-102.2-124.4
						c-13.5-9.7-28.1-18.1-43.5-24.2C765.8,989.7,765.4,989.8,765.1,990z"/>
					<path class="st5" d="M813.6,982.8c8.7,10.6,8.7,26.7,8.1,40.9l0,0.4c-22.9-3.1-46.6-5.1-69,1.6l-0.4,0.7c0,0,0.8,0.4,1.8,0.1
						c21.7-5.7,45.1-3.4,66.7-0.4c3.9,0.5,2.9-0.8,2.9-0.8c0.6-15.3,0.1-32.1-9-42.9C814.8,982.4,813.8,981.2,813.6,982.8z"/>
					<path class="st5" d="M857.5,1016.4c6.7,14.4,5.9,31.2,3.8,46.7c0,0-4.6-1.4-9.6-2.4c-12.8-2.8-26.1-3.8-39.1-1.6l-0.5,0.7
						l0.7,0.5c15.9-2.3,32.6,0.6,48.1,5c0.2,0.1,0.5,0.1,0.7,0.2c0.7,0.2,0,0.7,1.2-0.1c0.5-0.3,0.5-1,0.5-1.5
						c2.3-16.1,2.8-32.9-4.6-47.5C858.7,1016.1,858.1,1014.8,857.5,1016.4z"/>
					<path class="st5" d="M893.8,1073.9c2.4,3.6,2.4,8.6,2.6,13.3c0.3,8.4-0.2,16.8-0.7,25.1c0,0-3.1-1.6-5.9-2.6
						c-9.8-3.8-20.5-5-31-3.9l-0.5,0.6c0,0,5.5,0.1,10.4,0.4c9.4,0.6,18.5,3.5,27,7.8c3,1.5,1.9-0.4,2.1-2.2
						c0.9-12.5,2.9-25.6-1.8-37.2c-0.3-0.7-0.7-1.5-1.1-2.1C894.8,1073.3,894.1,1072.4,893.8,1073.9z"/>
				</g>
				<g>
					<defs>
						<path id="SVGID_3_" d="M1003.1,1158.1H834.8v177c0,9.4,3.7,18.3,10.3,25c6.6,6.6,15.6,10.3,25,10.3c28.7,0,69,0,97.7,0
							c9.4,0,18.3-3.7,25-10.3c6.6-6.6,10.3-15.6,10.3-25C1003.1,1274.7,1003.1,1158.1,1003.1,1158.1z"/>
					</defs>
					<clipPath id="SVGID_4_">
						<use xlink:href="#SVGID_3_"  style="overflow:visible;"/>
					</clipPath>
					<ellipse class="st8" cx="849.6" cy="1206.9" rx="139.5" ry="127.9"/>
				</g>
			</g>
		</g>
		<path class="st9" d="M808.5,590c-0.6-2.1-0.8-3.3-1.1-4c42-97.9,74.7-174.7,74.7-174.7l-2.3-1.4c-47.8,108-47.8,108-79.8,178.6
			c-0.7,0.2-1.7,0.4-3.2,0.8c0,0,0,0,0,0c-1,0.3-2.1,0.6-3.4,0.9c-8.1,2.3-26.4,6.9-28.6,8.4c-2.3,1.5-11.1,35.5-12.9,40.2l0,0
			c-15.5,6.9-60.6,27.5-95.5,47.8c-5.9-6.5-10.9-11.3-10.9-11.3c-0.9,0.4-1.8,0.9-2.6,1.3c-6.2-17.2-17.7-46.9-37.5-90.6
			c1.4-3.5,2.4-5.9,2.8-6.9l0.2-0.5c0,0,0,0,0,0c0,0,0,0,0,0l0.1-0.2l0,0c0,0,0,0,0,0l-10.2-7.4l-0.1,0
			c-17.1-33.9-27.8-40.7-35.5-40.4c-6.3-4.3-34.4-13.5-62.7-18.5L483,500.5c-0.9-2-1.7-4-2.5-5.9l12.3,6.2l1.9-8.5c0,0,6,8.5,6,11
			c0,2.7,10.5-20.6,10.5-20.6s3.7,6.2,4,9.4s0.8,0.3,3.6-6.6c2.9-6.9,11-18,11-18s0.5,7.2-0.6,9.1c-0.8,1.6,39.4-61.7-13.3-83.4
			c0,0,0,0,0,0c-2.4-5.5-4.7-11.3-6.6-17.2c0.7-0.3,1.5-0.6,2.2-0.9c0.5-0.2,1-0.5,1.4-0.8c5.4-3.5,8.7-10.9,10.2-18.3
			c1.5-7.4,1.1-15-0.8-18.9c-0.2-0.4-0.4-0.7-0.6-1c-0.1-0.2-0.2-0.2-0.2-0.3c-1.9-2.4-7.8-3.4-15-3.6c-0.2-4.6-0.8-9.3-2.2-13.7
			c-2.1-7.2-4.7-12.7-7.3-16.9c23.1-14.2,25.8-34.9,12.1-50.2c-37.2-41.6-152.8-0.5-160.3,44.5c-1.8-0.1-10.2,7.6-19.8,14.9
			c-9.7,7.3,4.7,47.1,15.6,69.3c0.2,0.3,0.4,0.7,0.5,1c0.1,1.1,0.2,2.3,0.5,3.6c3.3,16.4,25.6,33.7,36.7,34.3c0.2,0,0.4,0,0.6,0
			c1.2,2.2,2.4,4.4,3.7,6.6c2,9.2,4.1,17.1,6.3,21.9c6.4,14.1,12.5,20.2,15.2,22.5c0.5,7.9,0.7,16.6,0.5,26.1l-5.4-3.7l-16.3,22.5
			l1.2,1.2c-2,0.4-4,0.8-6.1,1.2c0,0,0,0,0,0.1c-12.5,2.6-25.6,5.8-40.4,9.9c-16.2,4.3-57.2,130-64.7,198.3
			c-12.4,5.4-20.9,12.1-21.5,17.5c-1.9,16,30.3,69.8,44.7,59.9l80.2-9.8c0.1,5.6,0.1,11.4,0.2,17.3c0,0,0,0,0,0
			c0.1,28.8-0.4,62-1.4,102.7l0,0c-5,9.8-8.9,19-8.5,19.5c0.5,1-2.7,179.4-2.7,179.4l12.1,473h5.2l0,0c-4.2,14.7-13,45.7-14.9,57
			c-2.7,15.1,49.7,11,62.2,5.9c12.6-5.1,3.1-18.1,0.5-25.6c-1.9-5.4-6-21.6-10.5-37.6l1.8-0.1c0,0,0-0.1,0-0.2c0-0.1,0-0.2,0-0.4
			c1.5-19.4,35.4-470.4,45.1-563.1c-0.7,15.3,0.9,34.8,0.7,50.1c-5.9,148-23.8,492.1-24.9,513.8c0,0.1,0,0.2,0,0.2
			c0,0.5,0,0.9,0,0.9l3.9,0.3c-1.5,9.9-5.1,37.6,1.1,39.5c7.7,2.2,31.4,0.2,37.5,0.9c6,0.6,24.3,7.8,49.1,7
			c24.9-0.8,27.8-3,29.1-6.3c1.2-3.4-62.3-30-74.6-38.2c0,0,96.3-654.7,93.8-667.6c-1-5.4-3.7-13.5-6.4-21.1
			c6.9-70.3,10.2-130.9,10.4-182.1c3.2,6.6,6.1,12.6,8.6,17.7c0.1,31.3,27.1,47.6,54.9,32.8c8.6-4.6,14.2-13.5,17.7-23.1l0.1-0.1
			l72.4-65.6l26.1-23.6c0.5-0.1,17.4-2.7,28.1-5.7c0,0,0.1,0,0.1,0c0.3-0.1,0.7-0.2,1-0.3c0.2-0.1,0.4-0.1,0.7-0.2
			c0.1,0,0.3-0.1,0.4-0.1c2.7-0.8,4.8-1.6,5.9-2.4c0.2,0,0.4,0,0.6,0c0,0,0.1,0,0.1,0c0.4,0,0.7,0,1.1-0.1c0.4-0.1,0.7-0.1,1-0.3
			c1-0.4,1.8-1.1,2.3-1.8c1.1-1.5,1.2-3.4,0.5-5c0.1,0,0.2,0,0.3,0c0.6,0,1.1,0,1.6-0.2c1.3-0.4,2.3-1,3.1-1.8c0,0-0.1,0-0.1,0
			c1.9-1.9,2.2-4.8,1-7c0.5,0,0.9-0.1,1.3-0.2c0.1,0,0.2-0.1,0.3-0.1c0.4-0.1,0.8-0.3,1.2-0.5c0.1-0.1,0.2-0.1,0.3-0.2
			c0.2-0.1,0.4-0.3,0.6-0.5c0.2-0.2,0.4-0.4,0.6-0.6c0.1-0.1,0.2-0.3,0.4-0.4c0.1-0.1,0.1-0.2,0.2-0.3c0,0,0,0,0,0
			c0.1-0.1,0.1-0.2,0.2-0.3c0.2-0.1,0.4-0.2,0.6-0.3c3.3-2.6,0.5-9.5,0.5-9.5C821.2,615.5,809.5,593.7,808.5,590z M804.6,608.3
			c-2.9-2-5.7-3.8-8.3-4.9c1.9-3,3.9-6.1,6-9.4c-0.1,0.7-0.2,1.5-0.2,2.4C801.9,599.6,803,604,804.6,608.3z M789.5,604.5
			c-1-0.2-2.1-0.3-3.1-0.3c0,0-0.1,0-0.1,0c1.7-0.7,3.4-1.5,5-2.4C790.7,602.7,790.1,603.6,789.5,604.5z M370.5,678.4
			c0.2-1.1,0.5-2.1,0.7-3.2c2.7,18.3,4.7,35.7,6.2,53.9c0.3,3.9,0.6,7.9,0.8,11.9c-4.9-0.7-9.7-1.3-14.5-1.9c0.5-4,0.7-6.8,0.7-6.8
			c-2-0.3-4.2-1-6.5-1.9c0.7-2.7,1.4-5.4,2.1-8.1C363.6,707.9,367.3,692.5,370.5,678.4z M506.4,336.2c3.2,0,5.9,0.2,8,0.5
			c-2.3,0.7-5.1,1.6-8.1,2.5C506.3,338.2,506.4,337.2,506.4,336.2z M518.7,355.1c-1.2,6.4-3.9,12.8-8.3,15.6
			c-0.3,0.2-0.6,0.4-0.9,0.6c-0.5,0.2-1,0.4-1.5,0.6c-1.1-4.1-2-8.4-2.5-12.6c0,0-0.3-2.3-0.9-6.2c0.3-1.7,0.6-3.6,0.9-5.6
			c5.4-0.8,11-1.7,14-2.2C519.7,348.2,519.4,351.6,518.7,355.1z M471.7,1004.2c-0.2,0.7-0.4,1.5-0.6,2.3
			C471.3,1004.8,471.5,1004,471.7,1004.2z"/>
		<g>
			<path class="st10" d="M517.4,527.7c9.4-0.7,21-24.3,55.3,51c34.3,75.4,43.8,109.3,43.8,109.3c-19.6-11.5-43.4,44-42.7,57.5
				c0,0-75.5-149.4-70.9-168.4C509.9,547.1,508.1,528.5,517.4,527.7L517.4,527.7z"/>
			<path class="st11" d="M642.8,709.8c4.1-8.7-29.7-41.5-29.7-41.5c-21.9,10.2-45.6,32.8-47.6,55.1c-2.9,34.5,25.5,53.4,54.7,37.8
				C638,751.8,643.3,723.5,642.8,709.8L642.8,709.8z"/>
			<path class="st12" d="M616.1,757.8c-8.9,8.1-48-16.3-35.7-43.7c12.3-27.3,144.6-84.7,144.6-84.7l12.1,19L616.1,757.8z"/>
			<path class="st13" d="M456.3,338c1.6-1.1,30.8-10,30.9-10l2.1,9.8c-0.1,0-29,4.4-29.3,4.6L456.3,338z"/>
			<path class="st14" d="M455.6,283.9c0,0,10.2,6.9,16.2,27.3c6,20.4-2.1,45.9-2.1,45.9l-26.4-66.5L455.6,283.9z"/>
			<path class="st16" d="M338,925.4c0.5,1-2.7,179.4-2.7,179.4l12.1,473l44.4-0.5c0,0,45.5-606.9,47.6-579.4
				c2.1,27.5-26.8,580.7-26.8,580.7l46.1,3.1c0,0,96.3-654.7,93.8-667.6c-2.5-13-14.4-41.8-14.4-41.8
				c-104.5-64.2-156.9-17.1-180.8,15.2C348.5,899.7,337.4,924.5,338,925.4L338,925.4z"/>
			<path class="st17" d="M431.6,501.8c37.4-0.8,97.3,18,99.9,23.1c25.1,49.5,34.2,171.2,14.8,368.1l-199.7,12.9
				c4.4-187.7,0.2-217.2-37.4-385.9C354.4,507.4,382.7,502.8,431.6,501.8L431.6,501.8z"/>
			<path class="st18" d="M552.9,617.1L552.9,617.1l-29.6,139.5l-33.3,7.4c0,0-20.8,15.5-64,28.8c-21.2,6.5-52.1,9.3-78.1,10.3
				c-0.2-33.5-1.1-61-3.4-87.4c11.1,1.9,28.7,4.9,30.9,5.6c3.1,1,46.4-90.1,46.4-90.1L552.9,617.1z"/>
			<path class="st10" d="M431.6,501.8c16.8-0.3,38.2,3.2,56.9,7.8c8.1,12.7,17.5,31.9,12.7,47.3c-7.9,25.2-68,25.7-107.8-1.5
				c-24.6-16.8-37.6-34.4-43.9-45.5C375.2,504.8,398.7,502.5,431.6,501.8L431.6,501.8z"/>
			<path class="st19" d="M367.7,422.4c6.8,17.7,10.6,45.4,7.3,86.2c-3.5,44.5,53.8,36.6,88.3,55.6c6-14.8,8.6-18.9,4.8-36.9
				c-36.5-61.3-29.6-89.6-29.8-89.7L367.7,422.4z"/>
			<path class="st10" d="M349.4,618.8c17.7-62.9-19.8-104.2-40.3-98.8c-20.5,5.4-80.4,204.3-62.6,237.1
				c17.7,32.9,48.7,37.4,62.8,14.3C323.3,748.3,349.4,618.8,349.4,618.8L349.4,618.8z"/>
			<path class="st11" d="M326.2,755.3c4.2-8.7,5.8-30.1,5.8-30.1c-11.3-1.5-26.8-16-42.7-16.1c-31.9-0.5-65.1,16-66.4,26.7
				c-1.9,16,30.3,69.8,44.7,59.9L326.2,755.3z"/>
			<path class="st12" d="M473.3,352c4.2,36.8,35.5,68.8,25.2,89.7c-10.5,21-92.1,56.9-130.8-1.6c-38.7-58.5-64.3-128.9-34.5-153.5
				c29.8-24.6,85.3-23.8,109.9-5.2C467.5,299.9,473.3,352,473.3,352L473.3,352z"/>
			<path class="st13" d="M432.6,331c0.2-0.1,0.3-0.2,0.4-0.2c3-1.9,15.5-4.3,27.7-5.3c12.6-1,25.2-0.7,28.2,3.1
				c0.1,0.1,0.2,0.2,0.2,0.3l0,0c0.2,0.2,0.4,0.6,0.6,1c1.9,4,2.3,11.5,0.8,18.9c-1.5,7.4-4.8,14.8-10.2,18.3
				c-0.4,0.3-0.9,0.6-1.4,0.8c-5.8,2.8-13.5,4.3-20.4,4.3c-7.2-0.1-13.7-1.6-16.9-4.7c-2.7-2.5-5.1-8.5-6.8-14.9
				c-2.5-8.9-3.8-18.9-2.9-20.7l0.2-0.5L432.6,331z M461.1,329.7c-11,0.9-22,2.8-25.2,4.4c-0.2,2.3,1.1,9.9,3.1,17.3
				c1.6,5.8,3.6,11.1,5.6,13.1c2.4,2.3,7.9,3.5,14,3.5c6.4,0,13.3-1.3,18.5-3.8c0.2-0.2,0.6-0.3,0.9-0.6c4.4-2.7,7.1-9.1,8.3-15.6
				c1.3-6.6,1.1-13.1-0.5-16.3c-0.1-0.2-0.2-0.3-0.2-0.6l0,0C483.7,328.6,472.5,328.6,461.1,329.7L461.1,329.7z"/>
			<path class="st20" d="M422.2,343.2c12.5,25,41,24.3,53,28.3c12,4-19.6,34-34,23.1C426.8,383.6,422.2,343.2,422.2,343.2
				L422.2,343.2z"/>
			<path class="st14" d="M347.8,377.6l12.4-1.4c0,0-26-54.3-19.7-62.3c6.3-8.1,73.5,1,109.5-12.6c36.1-13.5,42.9-39.1,26.7-57.2
				c-37.2-41.6-152.8-0.5-160.3,44.5c-1.8-0.1-10.2,7.6-19.8,14.9s4.7,47.1,15.6,69.3c11,22.3,33.1,37.5,34.8,36.6
				C348.7,408.6,347.8,377.6,347.8,377.6L347.8,377.6z"/>
			<path class="st17" d="M403.4,343.8c3.9,0.2,6.9,3.7,6.9,7.9c0,4.1-3.1,7.3-6.9,7.2c-3.8-0.2-6.9-3.8-6.9-7.9
				C396.5,346.8,399.6,343.5,403.4,343.8L403.4,343.8z"/>
			<path class="st17" d="M452.5,338.5c3.4,0.2,6,3.3,6,6.9s-2.7,6.4-6,6.3c-3.3-0.2-6-3.2-6-6.9
				C446.5,341.2,449.2,338.4,452.5,338.5L452.5,338.5z"/>
			<path class="st14" d="M343.8,352.3l3.4-6.1c0,0,38.2,61.7,39.3,59.3c1-2.3,8.6-10.5,21.9-11.1c13.4-0.6,20.2,6.8,41.9,4.8
				c21.7-2,33.2-13.3,33.2-13.3c52.7,21.8,12.5,85,13.3,83.4c1-1.9,0.6-9.1,0.6-9.1s-8.1,11-11,18c-2.8,6.9-3.4,9.8-3.6,6.6
				s-3.9-9.4-3.9-9.4s-10.5,23.3-10.5,20.6c0-2.6-6-11-6-11l-1.9,8.5l-21.3-10.8l0.5,10.2c0,0-13.9-7.3-35.1-16.8
				c-21.2-9.4-28.8-19.3-28.8-19.3l1.4,6.9c0,0-8.1-4.6-16.8-23.6C351.8,421.2,343.8,352.3,343.8,352.3L343.8,352.3z"/>
			<path class="st21" d="M431.3,533.6c2.4-0.6,11.8,2.8,11.8,2.8l20.3,27.7L417,547.8L431.3,533.6z"/>
			<polygon class="st22" points="480.9,539.5 463.4,564.2 450.6,493.3 			"/>
			<path class="st21" d="M498.8,554.9c-1.5-1.4-17.9-15.4-17.9-15.4l-30.3-46.2l16.9,11.8L498.8,554.9z"/>
			<path class="st12" d="M267.5,795.7c-7.2-2.2-16.2-29.3-5.9-56.3c10.2-26.9,163.6,9.7,163.6,9.7l5,26.7L267.5,795.7z"/>
			<path class="st23" d="M428.7,576.3c0.6-2.7-0.8-21.8-0.8-21.8l16.4-8.1l82.8,43l38.7-25.2l10.2,7.4l-77.8,153.4l-54.1,6.4
				l-53.3-33.9L428.7,576.3z"/>
			<polygon class="st24" points="427.9,554.4 528.2,600.4 465.1,752.7 364.8,706.7 			"/>
			<path class="st25" d="M528.2,600.4c0,0,49.8-31.8,47.7-28.7c-2.1,3-63.3,165.7-63.3,165.7l-47.6,15.4L528.2,600.4z"/>
			<path class="st12" d="M433.1,776.3c-2.1-0.6-14.3-0.5-13.1-11.4c1.3-10.9,11.4-27.6,11.4-27.6l16.3,7.5c0,0,20.3-21.9,25.6-23.4
				c5.3-1.5,3.9,7,3.9,7s8.9-5.9,10.2-1.9c1.3,4-1,11-1,11s2.8-2.1,2.7,2.7c-0.2,4.8-13.4,20.7-19.9,26.4
				C462.7,772.3,433.1,776.3,433.1,776.3L433.1,776.3z"/>
			<path class="st22" d="M444.5,536.1c-1.9,2-32,29.7-32,29.7l-58-58.2l16.3-22.5L444.5,536.1z"/>
			<path class="st26" d="M410.1,330.2c-9.8,0.6-26.9,3.2-35.5,8.4c0.1-2.6-0.5-4.1,1.7-5.7c6.6-5.1,31-9.5,33.5-9.8
				C412,323.1,411.8,329,410.1,330.2L410.1,330.2z"/>
			<path class="st26" d="M431.8,325.8c9-2.9,24.9-6.2,33-4.1c-0.1-2.6,0.4-4.3-1.6-5.2c-6.1-2.7-28.8,1.5-31,2.1
				C430,319.4,430.2,325.3,431.8,325.8L431.8,325.8z"/>
			<path class="st12" d="M733.5,602.4c2.2-0.8,6.3-6.3,20.6-5.4c14.3,0.9,30.6,11.5,31.8,13.7c1.2,2.2-8.3,25.2-12.9,29.2
				c-4.5,4-36.4,9-36.4,9l-17.1-17.1L733.5,602.4z"/>
			<path class="st12" d="M719.4,631.8c1.8-4.8,10.6-38.7,12.9-40.2c2.3-1.5,20.5-6,28.6-8.4c8.2-2.3,8.3-2.1,8.3-2.1s1,2.7-3.5,8.5
				c-4.4,5.9-24.8,12.2-24.8,12.2c1.5,7.7,4.7,12.7,0.5,23.5c-2.8,7.3-10,11.6-15.5,8.9C720.6,631.5,719.4,631.8,719.4,631.8
				L719.4,631.8z"/>
			<path class="st19" d="M764.4,582.2c4.8-1.3,4.8-1.1,4.8-1.1s1,2.7-3.5,8.5c-4.4,5.9-24.8,12.2-24.8,12.2
				c1.5,7.7,4.7,12.7,0.5,23.5c-0.7,1.9-1.8,3.6-3,5.1c-1,1-1.8,1.7-1.8,1.7l0,0c0,0,3.6-10.8,3.5-15.6c-0.1-4.8-2.6-18.5-2.6-18.5
				s16.5-4.3,20.6-8.2C760.6,587.6,762.9,584.6,764.4,582.2L764.4,582.2z"/>
			<path class="st12" d="M790.2,611.1c-1.4-2.8-13.1-24.6-14.1-28.3c-1-3.7-0.9-4.9-1.9-4.5c-1.1,0.4-4.1,3.5-4.4,10.9
				c-0.3,7.3,5.6,20.7,9.4,26c3.8,5.3,7.3,8,10.6,5.4C793,618,790.2,611.1,790.2,611.1L790.2,611.1z"/>
			<path class="st19" d="M775.9,582c-0.8-3.1-0.7-4-1.7-3.7c-1.1,0.4-4.1,3.5-4.4,10.9c-0.3,7.3,5.6,20.7,9.4,26
				c3.8,5.3,7.3,8,10.6,5.4c1.4-4.3-1.6-6.9-2.5-9.2c-0.9-2.3-4.8-5.2-7.8-7.7c-3-2.5-6.2-12.9-5.9-16.2
				C773.7,586.3,774.7,584.2,775.9,582L775.9,582z"/>
			<path class="st27" d="M740.6,622.4c0,0,5.2,4,5.1,3c-0.1-1.1,136.5-213.9,136.5-213.9l-2.3-1.4
				C832.9,480.5,787.5,552,740.6,622.4L740.6,622.4z"/>
			<path class="st12" d="M787.8,613.7c3.9,3.5,2.1,9.9-3.9,10.3c-6,0.4-19.9-14.3-24.9-19c-5-4.7,1.2-10.6,5-8.9
				C772.2,599.9,783.9,610.3,787.8,613.7L787.8,613.7z"/>
			<path class="st19" d="M789,621.2c-1,1.5-2.7,2.7-5.2,2.8c-6,0.4-19.9-14.3-24.9-19c-5-4.7,1.2-10.6,5-8.9l0.2,0.1
				c-2.1,0.6-4,1.6-3.9,3.3c0.2,3.2,15,17.7,17.9,19.3C780.3,620.1,786,620.8,789,621.2L789,621.2z"/>
			<path class="st12" d="M781.8,621.7c4.5,2.6,4.2,9.3-1.6,11c-5.7,1.8-22.2-9.8-28.1-13.3c-5.9-3.5-1.2-10.7,2.9-9.8
				C763.7,611.5,777.2,619.1,781.8,621.7L781.8,621.7z"/>
			<path class="st19" d="M755.3,617.6c4.7,2.8,16.2,10.7,23.5,12.9c1.7,0.6,3.2,0.7,4.4,0.5c-0.7,0.8-1.8,1.4-3.1,1.8
				c-0.6,0.2-1.5,0.2-2.5,0.1c-1-0.1-2.1-0.4-3.3-0.9c-1-0.4-2.2-0.9-3.5-1.5c-6.9-3.1-15.1-8.7-18.9-11c-0.7-0.5-1.4-1-1.8-1.5
				c-2.7-3.5,0.5-8.2,3.7-8.4c-1,1.2-1.6,2.9-1.3,4.5C752.9,615.4,753.7,616.6,755.3,617.6L755.3,617.6z"/>
			<path class="st12" d="M775.7,630.4c4,1.7,4.4,7.3-0.2,9.4c-4.5,2-19.3-5.9-24.5-8.3c-5.2-2.4-2-8.9,1.4-8.5
				C759.8,623.7,771.7,628.7,775.7,630.4L775.7,630.4z"/>
			<path class="st19" d="M750.7,627.4c1.4,2.6,18.6,10.9,23.2,10.7c0.2,0,0.4,0,0.6,0c1.4-0.1,2.5-0.2,3.4-0.4
				c-0.5,0.9-1.4,1.6-2.5,2.1c-0.6,0.3-1.6,0.4-2.7,0.3c-6.1-0.6-17.4-6.6-21.8-8.6c-4.7-2.2-2.6-7.6,0.4-8.5
				C750.6,624.3,750,625.9,750.7,627.4L750.7,627.4z"/>
			<path class="st28" d="M470.5,401.1c0,0-7.6,3.1-30.4,5.7c-22.8,2.7-31,0.6-31,0.6c-6,22.6,47.3,42.1,57.8,16.9
				C470,417,470.5,401.1,470.5,401.1L470.5,401.1z"/>
			<path class="st29" d="M413.1,422c8.9,10.6,29,17.3,42.5,12.7C452,423.3,435.5,415.2,413.1,422L413.1,422z"/>
			<path class="st23" d="M465.7,413.7c1.3-1.3,0.7-7.7,0.3-11.2c-4.5,1.1-12.7,2.8-25.9,4.4c-15.7,1.9-24.5,1.5-28.5,1
				c-0.2,1.5-0.2,3.5-0.2,5.2c0.2,3.9,3.1,3.6,7.6,4.4C423.7,418.3,463.8,415.5,465.7,413.7L465.7,413.7z"/>
			<path class="st30" d="M388.8,398.3c-28.4-43.7-33.7-52.6-41-84.3c17.4,3.3,90.1-2.2,101.2-9.1c5-3.1,6.9-5.1,7.5-6.2
				c-2.1,1-4.2,1.9-6.5,2.7c-0.6,0.2-1.4,0.5-2.1,0.7c-36.5,12.5-101.3,4-107.5,11.8c-3,3.9,1.4,18.2,6.8,32.2
				c0,0,38.2,61.7,39.3,59.3c0.9-1.9,6.5-8.2,16.4-10.4L388.8,398.3z"/>
			<path class="st31" d="M376.1,291.1c35.5-6.6,29.8-2.4,55.1-8.9c25.4-6.5,25.4-18.5,25.4-18.5s-4.8,4-20.7,7.9
				c-15.9,3.9-29.6,4.9-25.1,4.7c4.6-0.3,39.3-19.2,36.5-18.3c-2.7,1,1.6-1.5-22.3,1.8c-24,3.1-47.7,13.1-46.6,11.9
				c1.2-1.1,4.3-14.1,33.5-24.1c29.2-10,52.9-8.4,61.6,2.6c8.6,10.9,4.1,25-2.6,33.1c-6.7,8.1-35.3,15.7-64.5,19.2
				c-29.2,3.5-49.5,3.1-60.7,5.9c-11.3,2.7-30.9,26.8-29.2,23.4C330.4,304.1,340.5,297.7,376.1,291.1L376.1,291.1z"/>
			<path class="st13" d="M422.1,333.9l0.4,0.2l0.5,0.2l0.3,0.4c1.5,1.5,3.2,11.8,3.5,21.5c0.2,6.9-0.3,13.7-2.2,17
				c-2.3,4-8.3,7.7-15.6,9.8c-6.9,2.2-15,3.1-21.6,2c-0.6-0.1-1.1-0.2-1.6-0.3c-6.4-1.9-12.1-8.2-15.8-15.2
				c-3.7-6.9-5.7-14.7-5-19.2c0.1-0.4,0.2-0.8,0.2-1.1l0.2-0.4c1.8-4.6,14.3-8.9,27.2-11.7C405.3,334.3,418.5,332.8,422.1,333.9
				L422.1,333.9z M420.4,337.8c-3.7-0.6-15.4,0.9-26.8,3.4c-11.8,2.6-23.1,6-24.2,9l0,0c-0.1,0.2-0.2,0.5-0.2,0.6
				c-0.6,3.7,1.2,10.3,4.5,16.5c3.3,6.1,8,11.7,13.2,13.1c0.4,0.1,0.8,0.2,1.1,0.2c6,1,13.4,0.1,19.7-1.9c6.2-1.9,11.4-4.8,13.1-7.9
				c1.5-2.6,1.9-8.5,1.6-14.8C422.3,348.2,421.3,340,420.4,337.8L420.4,337.8z"/>
			<path class="st13" d="M432.3,340.1c0.1-0.4-0.2-0.8-0.6-1c-0.6-0.2-1.3-0.4-2.1-0.4c-0.9,0-1.8,0.2-2.6,0.6
				c-1.1,0.5-2.2,1.3-2.1,2.3l-3.4,0.4c-0.4-3.3,1.1-5.5,3.9-6.7c1.3-0.6,2.7-0.8,4.1-0.9c1.5,0,2.9,0.3,4.1,0.9
				c2,1,3.2,2.8,2.8,5.5L432.3,340.1z"/>
			<path class="st13" d="M333.3,355.5c1.6-1.1,35.5-10.7,35.6-10.7l-2.7,10.5c-0.1,0-29,4.4-29.3,4.6L333.3,355.5z"/>
			<path class="st19" d="M331.7,355.7c11,0.6,22.7,14.4,26,30.9c3.4,16.5,3.1,25.8-7.9,25.2c-11-0.6-33.4-17.9-36.7-34.3
				C309.8,360.9,320.7,355.1,331.7,355.7L331.7,355.7z"/>
			<path class="st32" d="M338.6,364.3c-14-7.3-24.3,5.2-14.9,21c5.3,8.9,19.6,22.7,25.6,19.2c6-3.5,4.5-15.1,2.3-17.4
				c-2.3-2.4-5.7,0.2-7.9-5.4c-2.1-5.6,3-6.4,1.2-10.6C343.2,366.8,338.6,364.3,338.6,364.3L338.6,364.3z"/>
			<path class="st33" d="M312,677.7c-7.3,13.4-14.8,23.5-22.8,31.4h0.1c13.1,0.2,25.7,9.8,36.2,14.2c4.7-17.8,9.4-37.6,13.4-55.3
				c6.1-27.3,10.6-49.2,10.6-49.2c12.5-44.2-2.4-77.8-19.4-92c2.4,7.9,5.5,20,8.2,36.3c3.4,20.7,2.6,42.1-5.6,68
				C328.2,645.1,321.5,660.5,312,677.7L312,677.7z"/>
			<path class="st34" d="M479.9,755.2c-10,3.2-25.5,7.5-39.7,7.8c-2.7,0.1-6.9,0.2-12.2,0.6c-2.4,0.1-5,0.2-7.8,0.4
				c-19.1,1-46.9,2.7-72.8,3.5c-13,0.3-25.5,0.5-36.1,0.2c-1-0.1-1.9-0.1-2.9-0.1c-13.6-0.5-23.9-1.7-27.6-4
				c-15.2-9.6-19.1-24.2-19.1-24.2c-4.4,11.6-5.3,23.2-4.3,32.9c1.4,12.8,6,22.2,10.2,23.4l80.2-9.8l82.5-10.1
				c1.4,0.2,2.4,0.3,2.9,0.5c0,0,29.6-4,36.1-9.6C472.1,764.2,476.2,759.7,479.9,755.2L479.9,755.2z"/>
			<path class="st34" d="M727.3,645.7c-7.3,0.7-51.3,39.2-84.3,63.4c-13.9,10.3-25.9,18-32.2,19.2c-10.2,1.9-21.5-1.9-30.6-6.3
				c-0.6-0.2-1.2-0.6-1.9-0.9c-0.2,2-0.3,4-0.2,6c1.9,21.4,30.5,37.5,38,30.6L638,738l98.5-89.2c0,0,30.7-4.8,36.2-8.8
				c-0.6-0.1-1.1-0.2-1.8-0.3c-8.8,1.3-25.4,3.6-36.1,5.1c-0.7,0.1-1.5,0.2-2.1,0.2C730.6,645.3,728.6,645.6,727.3,645.7
				L727.3,645.7z"/>
			<path class="st35" d="M345,1481.6l2.4,96.2h5.2l37.3-0.4l1.9-0.1c0,0,33.6-448.1,44.4-556.8c-9.6,66.6-38.5,263.4-60.4,366.9
				C367.1,1429,356.1,1459.5,345,1481.6L345,1481.6z"/>
			<path class="st35" d="M437.7,1063.6c-6.1,152.9-25,514.9-25,514.9l3.9,0.2l26,1.8c-6.7-111.6,34.9-588.5,21-619.7
				c0,0-23.7,34.3-24.3,36.1C434.7,1011.5,438,1041.9,437.7,1063.6L437.7,1063.6z"/>
		</g>
	</g>
</g>
</svg>
