<?xml version="1.0" encoding="utf-8"?>
<!-- Generator: Adobe Illustrator 22.0.1, SVG Export Plug-In . SVG Version: 6.00 Build 0)  -->
<svg version="1.1" id="Capa_1" xmlns="http://www.w3.org/2000/svg" xmlns:xlink="http://www.w3.org/1999/xlink" x="0px" y="0px"
	 viewBox="0 0 350 280" style="enable-background:new 0 0 350 280;" xml:space="preserve">
<style type="text/css">
	.st0{clip-path:url(#SVGID_2_);fill-rule:evenodd;clip-rule:evenodd;fill:#E3FFFF;}
	.st1{clip-path:url(#SVGID_2_);}
	.st2{fill:#84EEF4;}
	.st3{fill:#F24646;}
	.st4{fill-rule:evenodd;clip-rule:evenodd;fill:#FFFFFF;}
	.st5{fill:#C0FFFD;}
	.st6{fill:#F75F46;}
	.st7{fill:#E8A787;}
	.st8{fill:#FFC8A9;}
	.st9{fill:none;}
	.st10{fill:#FF795A;}
	.st11{fill:#C99077;}
	.st12{fill:#D8A387;}
	.st13{fill:#266DAE;}
	.st14{fill:#BF3636;}
	.st15{fill:#D34444;}
	.st16{fill:#FFFFFF;}
	.st17{fill:#1E669B;}
	.st18{fill:#687272;}
	.st19{fill:#566363;}
	.st20{fill:#959E9E;}
	.st21{fill:#F4D345;}
	.st22{fill:#EDA574;}
	.st23{fill:#F9BB91;}
	.st24{fill:#D5E1E2;}
	.st25{fill:#FFE669;}
	.st26{fill:#424051;}
	.st27{fill:#E5EAEA;}
	.st28{fill:#78777F;}
</style>
<g>
	<defs>
		<rect id="SVGID_1_" transform="matrix(-1 -1.224647e-16 1.224647e-16 -1 350 280)" width="350" height="280"/>
	</defs>
	<clipPath id="SVGID_2_">
		<use xlink:href="#SVGID_1_"  style="overflow:visible;"/>
	</clipPath>
	<rect x="-56.4" y="-60.9" class="st0" width="461.7" height="461.7"/>
	<g class="st1">
		<g id="XMLID_1_">
			<path id="XMLID_748_" class="st2" d="M178.9,163.4c0,0,7.5-24,25.6-19.8c18.1,4.2,6.3,56.4-24.8,70.2c0,0-44-26-34.6-56.9
				C151.1,137.1,177,150.7,178.9,163.4z"/>
			<path id="XMLID_286_" class="st3" d="M178.9,167.6c0,0,6.1-19.6,20.8-16.2c14.7,3.4,5.2,45.9-20.2,57.2c0,0-35.9-21.2-28.2-46.4
				C156.2,146.2,177.3,157.2,178.9,167.6z"/>
		</g>
		<g>
			<path class="st4" d="M58.3,293.8c-28.8,0-52.4-23.6-52.4-52.4l0,0c0-28.8,23.6-52.4,52.4-52.4l0,0c12.2,0,22.1-10,22.1-22.1l0,0
				c0-12.2-10-22.1-22.1-22.1h-2.6c-12.7,0-23-10.4-23-23l0,0c0-12.7,10.4-23,23-23h8.1c4.9,0,9-4,9-9l0,0c0-4.9-4-9-9-9h-5.9
				c-3.4,0-6.2-2.8-6.2-6.2l0,0c0-3.4,2.8-6.2,6.2-6.2h39.9c5.3,0,9.7-4.4,9.7-9.7l0,0c0-5.3-4.4-9.7-9.7-9.7H85.8
				c-3.4,0-6.2-2.8-6.2-6.2v0c0-3.4,2.8-6.2,6.2-6.2h170c4.4,0,8.1,3.6,8.1,8.1v0c0,4.4-3.6,8.1-8.1,8.1h-12.5
				c-7,0-12.7,5.7-12.7,12.7v0c0,7,5.7,12.7,12.7,12.7h52.5c4.4,0,8.1,3.6,8.1,8.1l0,0c0,4.4-3.6,8.1-8.1,8.1H288
				c-6.4,0-11.7,5.3-11.7,11.7l0,0c0,6.4,5.3,11.7,11.7,11.7h10.5c16.5,0,30,13.5,30,30l0,0c0,16.5-13.5,30-30,30h-3.4
				c-15.9,0-28.9,13-28.9,28.9l0,0c0,15.9,13,28.9,28.9,28.9h7.4c16,0,29.1,13.1,29.1,29.1l0,0c0,16-13.1,29.1-29.1,29.1
				C219.7,293.8,141.2,293.8,58.3,293.8L58.3,293.8z M276.4,52.7c4.5,0,8.1-3.6,8.1-8.1c0-4.5-3.6-8.1-8.1-8.1
				c-4.5,0-8.1,3.6-8.1,8.1C268.3,49.1,271.9,52.7,276.4,52.7L276.4,52.7z M40.4,80.7c3.4,0,6.2-2.8,6.2-6.2c0-3.4-2.8-6.2-6.2-6.2
				c-3.4,0-6.2,2.8-6.2,6.2C34.2,78,37,80.7,40.4,80.7z"/>
		</g>
		<g>
			<g id="XMLID_343_">
				<g id="XMLID_814_">
					<path id="XMLID_844_" class="st5" d="M89.4,28.6c0,0,0.1,2.7-0.5,5.8c0,0-6.1,12.6-9.6,19c-3.5,6.3-11.6,16.1-11.6,16.1
						s-2.8,2.4-4.3,3.5c0,0-1.5-14.5,4.1-26.5C73,34.6,89.4,28.6,89.4,28.6z"/>
					<g id="XMLID_834_">
						<path id="XMLID_843_" class="st5" d="M129.8,87.5c-1-0.3-5.5-2.1-7.3-2.8c-1.8-0.7-8.3-2.6-8.3-2.6s2.6,2,4.3,3
							c1.6,1,9.6,5.4,9.6,5.4s5-0.6,6.7-2c1.7-1.4,2.9-8.9,2.9-8.9s-3.4,5.3-4.1,6.1C132.8,86.7,130.8,87.8,129.8,87.5z"/>
						<path id="XMLID_842_" class="st5" d="M119.2,97.1c-1.9-0.3-8.9-2.8-8.9-2.8c-2-0.5-8.3-2.1-8.3-2.1s3.2,2.3,5,3.4
							c1.8,1.1,9.8,4.7,9.8,4.7s4.8-0.8,7.1-2.3c2.2-1.5,4.2-7.5,4.2-7.5C124.8,94,121.1,97.4,119.2,97.1z"/>
						<path id="XMLID_841_" class="st5" d="M105.5,105.8c4.8,2.8,6.8,1.6,8.3,1c0.2-0.1,0.4-0.3,0.6-0.6c-2.1-0.5-4.6-1.1-6-1.7
							c-2.6-1.1-18-12.1-21.7-14.7c-3.7-2.7-9.2-15.2-10.6-18C74.8,69,69,61.5,66.4,58.2c-1.8-2.4-9.4-9.4-14.4-14
							c-3.5,7.9-4.1,14.7-4.1,14.7s16.9,8.7,20.6,11c3.7,2.4,10,16.6,12.2,19.9S100.7,103,105.5,105.8z"/>
						<path id="XMLID_840_" class="st5" d="M142.3,74.9c-1.2,0.8-4.2,1.6-6.4,1c-2.2-0.6-11-3.7-11-3.7s3.1,2.9,4.4,3.5
							c1.4,0.6,8.3,4,8.3,4s6.3-1.4,8-4c1.6-2.5,1.9-6.4,1.7-8.1C146.2,71.6,143.5,74.1,142.3,74.9z"/>
						<path id="XMLID_839_" class="st5" d="M114.3,43.4c0,0,6.5,3.1,9.3,5.1c2.7,2.1,11.8,8.2,11.8,8.2s-0.2-3.6-0.7-7.3
							c-3.3-1.9-7.3-4-8.5-4.4C123.9,44.4,114.3,43.4,114.3,43.4z"/>
						<g id="XMLID_835_">
							<path id="XMLID_838_" class="st5" d="M74.2,27.2c0.1-0.1,1.1-0.9,2.6-1.9c-3.2-2.5-5.6-4.5-5.6-4.5s-9.2,6.8-15.8,17.1
								c-1.4,2.1-2.5,4.3-3.4,6.3c2.5,2.2,5.6,5.1,8.4,7.7C66.8,40.2,74,27.5,74.2,27.2z"/>
							<path id="XMLID_837_" class="st5" d="M70.7,63.8c2.3,3.1,4.7,6.3,5.5,8c1.4,2.8,6.8,15.4,10.6,18
								c3.7,2.7,19.1,13.6,21.7,14.7c1.4,0.6,3.9,1.2,6,1.7c1.2-1.6,2.3-5.8,2.3-5.8s-7.9-3.6-9.8-4.7c-1.8-1.1-5-3.4-5-3.4
								s6.3,1.6,8.3,2.1c0,0,7.1,2.5,8.9,2.8c1.9,0.3,5.6-3.2,8.8-6.5c0,0-8-4.5-9.6-5.4c-1.6-1-4.3-3-4.3-3s6.5,1.9,8.3,2.6
								c1.8,0.7,6.3,2.5,7.3,2.8c1,0.3,3-0.9,3.7-1.7c0.8-0.8,4.1-6.1,4.1-6.1s-7-3.3-8.3-4c-1.4-0.6-4.4-3.5-4.4-3.5
								s8.8,3.1,11,3.7c2.2,0.6,5.2-0.2,6.4-1c1.2-0.8,3.9-3.3,5.1-7.4c0-0.1,0-0.2,0-0.3c-0.3-1.6-11.9-10.6-11.9-10.6
								s-9.1-6.1-11.8-8.2c-2.7-2.1-9.3-5.1-9.3-5.1s9.5,1.1,11.9,1.7c1.3,0.4,5.2,2.5,8.5,4.4c-0.3-2.6-0.8-5.3-1.5-6.9
								c-1.6-3.9-16.4-7.7-21.2-8.9c-4.7-1.2-18.1,3.1-20.7,2.3c-0.4-0.1-1.3-0.6-2.4-1.4c-4.1,4.8-11,13.2-13.8,17.6
								C73.5,54.5,72,59.1,70.7,63.8z"/>
							<path id="XMLID_836_" class="st5" d="M60.3,51.9c2.8,2.6,5.2,5,6.1,6.2c1.1,1.4,2.7,3.5,4.4,5.7c1.3-4.7,2.8-9.3,4.4-11.7
								c2.8-4.4,9.7-12.8,13.8-17.6c-3.1-2.1-8.2-6.1-12.1-9.2c-1.5,1-2.5,1.8-2.6,1.9C74,27.5,66.8,40.2,60.3,51.9z"/>
						</g>
					</g>
					<g id="XMLID_815_">
						<g id="XMLID_820_">
							<path id="XMLID_833_" class="st5" d="M64.7,21.4l-1.5,2.4c0,0,1,0.5,2.4,1.2c0.7-0.7,1.3-1.5,1.9-2.1
								C65.8,22,64.7,21.4,64.7,21.4z"/>
							<path id="XMLID_832_" class="st5" d="M55,31.5l-1.6,2.5c0,0,1.4,0.6,3.2,1.5c0.6-0.8,1.2-1.5,1.9-2.4
								C56.5,32.2,55,31.5,55,31.5z"/>
							<path id="XMLID_831_" class="st5" d="M49.1,41.9l-1.2,3.4c0,0,0.9,0.6,2.3,1.5c0.4-1.1,0.9-2.3,1.4-3.3
								C50.1,42.6,49.1,41.9,49.1,41.9z"/>
							<path id="XMLID_830_" class="st5" d="M44.5,52.3l-0.3,2.8c0,0,1,0.8,2.5,1.8c0.2-0.8,0.5-1.6,0.8-2.5
								C45.8,53.2,44.5,52.3,44.5,52.3z"/>
							<path id="XMLID_829_" class="st5" d="M77.5,28.5c1.3,1,4.3,3.8,6.4,5.7c3-3.3,5.4-5.6,5.4-5.6s-4.4-4.1-6.6-6.1
								c-2.2-2-9.9-5.6-9.9-5.6s-2.3,2.5-5.4,5.9C70.7,24.6,76.1,27.5,77.5,28.5z"/>
							<path id="XMLID_828_" class="st5" d="M52.6,68.3c3.1,1.3,10.8,4.8,10.8,4.8s0.7-2.7,1.8-6.5c-3.5-1-8.4-2.6-10.1-3.7
								c-1.8-1.2-5.7-4-8.3-5.9c-1,3.5-1.7,6.1-1.7,6.1S49.5,67,52.6,68.3z"/>
							<path id="XMLID_827_" class="st5" d="M59.1,52.6c1.6,0.8,6.1,2.2,9.9,3.3c0.4-1,0.9-2.1,1.3-3c-3.2-1.1-7.9-2.7-9.6-3.5
								c-1.8-0.8-6.4-3.8-9.3-5.8c-0.5,1-0.9,2.2-1.4,3.3C52.8,48.7,57.2,51.6,59.1,52.6z"/>
							<path id="XMLID_826_" class="st5" d="M56.5,60c2.2,1,6.5,2.6,9.6,3.7c0.8-2.5,1.8-5.2,2.9-7.9c-3.8-1.1-8.3-2.6-9.9-3.3
								c-1.9-0.9-6.3-3.8-9-5.7c-1,2.5-1.8,5.1-2.6,7.5C50.3,56.4,54.3,59,56.5,60z"/>
							<path id="XMLID_825_" class="st5" d="M81.8,36.7c0.8-0.9,1.5-1.7,2.2-2.4c-2.1-2-5.1-4.8-6.4-5.7c-1.5-1.1-6.8-3.9-10.1-5.7
								c-0.6,0.7-1.2,1.4-1.9,2.1c2.9,1.5,7.5,3.9,8.9,4.8C75.8,30.7,79.4,34.2,81.8,36.7z"/>
							<path id="XMLID_824_" class="st5" d="M65.2,66.6c0.3-0.9,0.6-1.8,0.9-2.8C63,62.6,58.6,61,56.5,60c-2.2-1-6.2-3.7-9-5.6
								c-0.3,0.9-0.5,1.7-0.8,2.5c2.6,1.9,6.5,4.7,8.3,5.9C56.8,64,61.7,65.5,65.2,66.6z"/>
							<path id="XMLID_823_" class="st5" d="M75.9,43.9c1.9-2.5,3.9-4.9,5.9-7.2c-2.5-2.5-6-6-7.3-6.9c-1.5-1-6.1-3.4-8.9-4.8
								c-2.3,2.6-4.8,5.5-7,8.2c3.8,1.8,9.5,4.4,10.9,5.3C70.7,39.3,73.8,42,75.9,43.9z"/>
							<path id="XMLID_822_" class="st5" d="M60.7,49.4c1.7,0.7,6.4,2.3,9.6,3.5c0.5-1.1,1.1-2.2,1.7-3.2c0.6-1.1,1.4-2.3,2.3-3.5
								c-2.5-2.3-6-5.4-7.5-6.1c-1.6-0.7-6.7-3-10.1-4.5c-1.1,1.4-2.1,2.8-2.9,3.9c-0.8,1.2-1.5,2.6-2.2,4.2
								C54.3,45.5,58.9,48.6,60.7,49.4z"/>
							<path id="XMLID_821_" class="st5" d="M74.3,46.1c0.5-0.7,1.1-1.5,1.7-2.3c-2.1-1.8-5.2-4.6-6.5-5.4
								c-1.4-0.9-7.1-3.5-10.9-5.3c-0.7,0.8-1.3,1.6-1.9,2.4c3.4,1.5,8.6,3.9,10.1,4.5C68.2,40.7,71.8,43.8,74.3,46.1z"/>
						</g>
						<path id="XMLID_819_" class="st5" d="M38.7,41.4c-2.5,5.3-5.5,19.4-7,27.8c0.2,0,0.3,0,0.5-0.1c5.6-1.6,13-6.1,13-6.1
							s4.1-16.9,8.6-23.7C58.2,32.6,72.8,17,72.8,17s0.5-7.7-0.3-10.9c-3.3,1.1-6.8,2.6-9.6,4.6C55.8,15.9,42.4,33.7,38.7,41.4z"/>
						<g id="XMLID_816_">
							<path id="XMLID_818_" class="st5" d="M13.1,44.9c6.8,3.1,16.2,6.3,21.9,8.2c1.2-4.8,2.4-9.2,3.6-11.7
								c3.7-7.7,17.1-25.5,24.3-30.7c2.7-2,6.2-3.5,9.6-4.6c0-0.1,0-0.1,0-0.2c-0.9-3.1-34.7-26.2-41.9-30.6
								C23.5-29-0.2-45.6-8.9-53.1c0,0-23.4,30.5-29,40.4c-1.4,2.5-2.5,5.6-3.2,8.7c5,7.5,12,17.7,16,21.4
								C-18.5,23.5,2.7,40.1,13.1,44.9z"/>
							<path id="XMLID_817_" class="st5" d="M-14.1,43.7c7.1,5.2,39,25.9,45.8,25.5c0.8-4.5,2.1-10.6,3.4-16.1
								c-5.7-1.8-15.2-5-21.9-8.2C2.7,40.1-18.5,23.5-25.1,17.4c-4-3.7-11-13.9-16-21.4c-2.2,9.4-2,19.9-2,19.9
								S-21.5,38.4-14.1,43.7z"/>
						</g>
					</g>
				</g>
				<g id="XMLID_783_">
					<g id="XMLID_805_">
						<path id="XMLID_813_" class="st5" d="M238.7,98c1-0.3,5.4-1.9,7.2-2.5c1.8-0.6,8.1-2.3,8.1-2.3s-2.7,1.8-4.3,2.6
							c-1.6,0.8-9.7,4.8-9.7,4.8s-4.6-0.4-6-1.6c-1.4-1.2-1.5-7.5-1.5-7.5s2.4,4.4,3,5.1C236,97.3,237.7,98.3,238.7,98z"/>
						<path id="XMLID_812_" class="st5" d="M247.3,106c1.8-0.3,8.7-2.5,8.7-2.5c1.9-0.4,8-1.9,8-1.9s-3.2,2-5.1,3
							c-1.9,1-9.7,4.2-9.7,4.2s-4.4-0.6-6.3-1.8c-1.9-1.2-2.9-6.3-2.9-6.3C242.5,103.4,245.5,106.2,247.3,106z"/>
						<g id="XMLID_809_">
							<polygon id="XMLID_811_" class="st5" points="299.5,73.9 299.5,73.9 299.5,73.9 							"/>
							<path id="XMLID_810_" class="st5" d="M251,114.1c1.3,0.5,3,1.5,7.8-1c4.8-2.5,22.8-11.3,25.3-14c2.5-2.8,10.2-15,14-17.1
								c1.5-0.8,5-2.5,8.7-4.3c5.7-2.7,11.9-5.5,11.9-5.5c6.4-2.9,78.4-32.6,78.4-32.6s-0.8-3.5-2.1-8.2
								c-18.1,6.1-45.5,15.6-55.3,21c-6.4,3.5-14.5,7.9-21.8,11.8c-2.5,1.3-4.8,2.6-7,3.7c-6.7,3.5-11.4,6-11.4,6l0,0
								c-3.2,3.2-7.6,7.8-8.9,9.7c-1.6,2.4-8.4,13.2-12.2,15.5c-3.8,2.3-19.6,11.9-22.1,12.9c-1.4,0.5-3.8,1.1-5.8,1.5
								C250.7,113.8,250.8,114,251,114.1z"/>
						</g>
						<path id="XMLID_808_" class="st5" d="M228.7,87.5c1,0.7,3.7,1.3,5.8,0.8c2.2-0.6,10.7-3.3,10.7-3.3s-3.2,2.5-4.6,3.1
							c-1.4,0.6-8.3,3.5-8.3,3.5s-5.7-1.1-6.9-3.3c-1.2-2.1-0.9-5.4-0.5-6.9C225.6,84.7,227.7,86.8,228.7,87.5z"/>
						<path id="XMLID_807_" class="st5" d="M258.8,60.2c0,0-6.5,2.7-9.3,4.5c-2.8,1.8-12,7.2-12,7.2s0.6-3,1.6-6.2
							c3.3-1.6,7.3-3.6,8.5-3.9C249.8,61.2,258.8,60.2,258.8,60.2z"/>
						<path id="XMLID_806_" class="st5" d="M290.6,83.6c-1.6,2.4-8.4,13.2-12.2,15.5c-3.8,2.3-19.6,11.9-22.1,12.9
							c-1.4,0.5-3.8,1.1-5.8,1.5c-0.9-1.4-1.4-4.9-1.4-4.9s7.9-3.2,9.7-4.2c1.9-1,5.1-3,5.1-3s-6.1,1.5-8,1.9c0,0-6.9,2.3-8.7,2.5
							c-1.8,0.3-4.8-2.6-7.4-5.4c0,0,8-4,9.7-4.8c1.6-0.8,4.3-2.6,4.3-2.6s-6.3,1.7-8.1,2.3c-1.8,0.6-6.2,2.3-7.2,2.5
							c-1,0.3-2.7-0.7-3.3-1.4c-0.6-0.7-3-5.1-3-5.1s6.9-3,8.3-3.5c1.4-0.6,4.6-3.1,4.6-3.1s-8.5,2.8-10.7,3.3
							c-2.2,0.6-4.8-0.1-5.8-0.8c-1-0.7-3.2-2.8-3.7-6.2c0-0.1,0-0.2,0.1-0.2c0.5-1.4,12.5-9.2,12.5-9.2s9.2-5.4,12-7.2
							c2.8-1.8,9.3-4.5,9.3-4.5s-9,1.1-11.2,1.7c-1.2,0.3-5.2,2.2-8.5,3.9c0.7-2.2,1.5-4.5,2.3-5.9c2-3.3,16.3-6.8,20.9-8
							c4.6-1.1,16.4,2.3,19,1.6c0.4-0.1,1.3-0.6,2.4-1.2c3.2-1.8,8.4-5.3,12.5-8c3.3-2.2,5.8-4,5.8-4c31.5-20.8,70.3-48.7,70.3-48.7
							s13.3,14.8,17.2,23.2c2.1,4.5,4.1,11.3,5.6,16.6c-18.1,6.1-45.5,15.6-55.3,21c-6.4,3.5-14.5,7.9-21.8,11.8
							c-2.5,1.3-4.8,2.6-7,3.7c-6.6,3.5-11.4,6-11.4,6c-0.9,0.9-1.8,1.8-2.8,2.8C294.1,79.4,291.5,82.2,290.6,83.6z"/>
					</g>
					<g id="XMLID_784_">
						<g id="XMLID_798_">
							<path id="XMLID_802_" class="st5" d="M301.3,59.7c2.3,4.4,8.7,13.7,11.6,17.8c0.2-0.1,0.4-0.2,0.6-0.3c1.3-0.7,3.8-4,3.8-4
								s-6.6-13.9-8.7-17.7c-2.1-3.8-8.6-14.5-8.6-14.5s-3.4,0.3-4.4,0.8c-0.3,0.1-1,0.7-1.6,1C295.7,47.2,299.1,55.4,301.3,59.7z"
								/>
							<path id="XMLID_799_" class="st5" d="M298,61.4c2.2,4.1,10.4,17.3,10.4,17.3s3-0.5,4.5-1.2c-2.9-4.1-9.3-13.4-11.6-17.8
								c-2.2-4.3-5.6-12.5-7.3-16.9c-1.4,0.9-2.9,3.2-2.9,3.2S295.8,57.3,298,61.4z"/>
						</g>
						<g id="XMLID_785_">
							<path id="XMLID_797_" class="st5" d="M300,47.7l0.1-1.4c0,0-1.7,0.2-2.7,0.7c-1,0.5-2.1,1.6-2.1,1.6l1.4,1.1L300,47.7z"/>
							<g id="XMLID_786_">
								<path id="XMLID_796_" class="st5" d="M305.7,46.7c1.4,0.3,4.8,2.1,6.6,3.6c1.9,1.6,3.7,6.8,3.8,9.2c0.1,2.4-4.6,8-6.8,9.5
									c-2.2,1.5-8.6,0.4-11.4-1.4c-2.8-1.8-6-9.4-6.1-11.9c-0.1-2.5,4.7-6.7,5.7-7.4C298.5,47.5,304.3,46.3,305.7,46.7z"/>
								<g id="XMLID_793_">
									<path id="XMLID_795_" class="st5" d="M306.4,52.7c1.8,1.4,3.6,6.7,3.5,8.5c0,0.5-0.4,1.1-0.9,1.7c0.4-0.3,0.8-0.6,1-0.8
										c0.6-0.7,1.7-4.4,1.6-5.2c-0.1-0.8-1.1-4.8-2.5-5.5c-1.3-0.6-5.3-1-7.6-0.5C303.2,51.1,305.3,51.9,306.4,52.7z"/>
									<path id="XMLID_794_" class="st5" d="M296.1,57.4c0.2,1.7,2,6.1,3.4,6.8c1.4,0.7,5,1.2,6.4,0.6c1-0.4,2.2-1.2,3.1-1.9
										c0.5-0.6,0.8-1.2,0.9-1.7c0.1-1.7-1.7-7.1-3.5-8.5c-1.1-0.9-3.2-1.6-5-1.8c-0.4,0.1-0.8,0.2-1.1,0.4
										C298.4,52.3,295.9,55.7,296.1,57.4z"/>
								</g>
								<path id="XMLID_790_" class="st5" d="M303.4,56.8c0.6,0,1.1,0.1,1.3,0.7c0.2,0.6,0,1.4-0.5,1.7c-0.5,0.3-1.6-0.2-1.8-0.5
									c-0.2-0.3-0.3-1.2,0-1.5C302.7,56.9,303.1,56.8,303.4,56.8z"/>
								<path id="XMLID_787_" class="st5" d="M303.9,57.5l2.3-1.7c0,0,0.8,0.1,1,0.3c0.2,0.2,0,1.1,0,1.1l-3.1,1l-0.6,5.5
									c0,0-0.6,0.3-1,0.3c-0.4,0.1-1-0.5-1-0.5l2.1-5.8L303.9,57.5z"/>
							</g>
						</g>
					</g>
				</g>
				<g id="XMLID_746_">
					<path id="XMLID_782_" class="st5" d="M312.8,221.3c0,0-1.4-21.5,24.1-43.5l14.1,13L312.8,221.3z"/>
					<g id="XMLID_750_">
						<g id="XMLID_768_">
							<path id="XMLID_781_" class="st5" d="M222.8,140c1,0.3,5.4,2,7.1,2.6c1.8,0.6,8,2.5,8,2.5s-2.7-1.8-4.3-2.7
								c-1.6-0.9-9.6-4.9-9.6-4.9s-4.6,0.4-6,1.5c-1.5,1.1-1.7,7.5-1.7,7.5s2.5-4.4,3.1-5.1C220.2,140.7,221.8,139.8,222.8,140z"/>
							<path id="XMLID_780_" class="st5" d="M231.5,132.2c1.8,0.3,8.6,2.7,8.6,2.7c1.9,0.5,7.9,2,7.9,2s-3.2-2.1-5.1-3.1
								c-1.8-1-9.7-4.3-9.7-4.3s-4.4,0.5-6.3,1.7c-1.9,1.2-3,6.3-3,6.3C226.7,134.7,229.8,131.9,231.5,132.2z"/>
							<g id="XMLID_774_">
								<polygon id="XMLID_779_" class="st5" points="283.3,165 283.3,165 283.3,165 								"/>
								<path id="XMLID_778_" class="st5" d="M302.4,167c0,0,0.1,3.4-0.9,8c7.2,4,15.3,8.5,21.6,12.1c9.7,5.6,36.9,15.5,55,21.8
									c1.3-4.6,2.2-8.1,2.2-8.1S308.8,170.1,302.4,167z"/>
								<path id="XMLID_777_" class="st5" d="M282,157c-3.7-2.1-11.3-14.5-13.7-17.3c-2.4-2.8-20.3-11.9-25.1-14.4
									c-4.8-2.5-6.5-1.6-7.8-1.1c-0.2,0.1-0.4,0.2-0.5,0.5c2,0.5,4.4,1.1,5.8,1.6c2.5,1,18.2,10.8,21.9,13.2
									c3.8,2.4,10.3,13.2,11.9,15.7c1.3,2,5.6,6.6,8.7,9.8l7.4-3.6C286.9,159.6,283.4,157.8,282,157z"/>
								<path id="XMLID_776_" class="st5" d="M302.4,167c0,0-6.1-2.9-11.8-5.6l-7.4,3.6l0,0c0,0,4.7,2.6,11.3,6.2L302.4,167z"/>
								<path id="XMLID_775_" class="st5" d="M301.6,175c1-4.6,0.9-8,0.9-8l-7.8,4.2C296.8,172.4,299.1,173.7,301.6,175z"/>
							</g>
							<path id="XMLID_773_" class="st5" d="M212.7,150.4c1-0.7,3.7-1.3,5.8-0.7c2.2,0.6,10.7,3.5,10.7,3.5s-3.2-2.5-4.5-3.1
								c-1.3-0.6-8.2-3.6-8.2-3.6s-5.7,1-7,3.2c-1.2,2.1-1,5.4-0.6,6.9C209.5,153.1,211.7,151.1,212.7,150.4z"/>
							<path id="XMLID_772_" class="st5" d="M242.4,178.2c0,0-6.4-2.8-9.2-4.7c-2.8-1.9-11.9-7.4-11.9-7.4s0.6,3,1.5,6.2
								c3.3,1.7,7.2,3.7,8.5,4C233.4,177,242.4,178.2,242.4,178.2z"/>
							<g id="XMLID_769_">
								<path id="XMLID_771_" class="st5" d="M212.7,150.4c-1,0.7-3.2,2.7-3.8,6.1c0,0.1,0,0.2,0.1,0.2c0.5,1.4,12.3,9.4,12.3,9.4
									s9.1,5.5,11.9,7.4c2.8,1.9,9.2,4.7,9.2,4.7s-9-1.2-11.2-1.8c-1.2-0.3-5.2-2.3-8.5-4c0.6,2.2,1.4,4.6,2.2,6
									c2,3.4,16.2,7.1,20.7,8.3c4.5,1.2,16.4-2,19-1.3c0.4,0.1,1.3,0.6,2.4,1.3c3.1,1.9,8.3,5.4,12.4,8.2c3.3,2.3,5.8,4,5.8,4
									c7.9,5.4,16.3,11.3,24.4,17c3.6-4.5,12.1-15.6,17.5-26.6c-1.5-0.7-2.9-1.4-4-2.1c-6.3-3.6-14.4-8.1-21.6-12.1
									c-2.5-1.3-4.8-2.6-7-3.8c-6.6-3.6-11.3-6.2-11.3-6.2c-0.9-0.9-1.8-1.9-2.7-2.9c-2.5-2.7-5.1-5.5-6-7
									c-1.6-2.4-8.2-13.3-11.9-15.7c-3.8-2.4-19.4-12.2-21.9-13.2c-1.4-0.5-3.8-1.2-5.8-1.6c-1,1.3-1.4,4.9-1.4,4.9
									s7.8,3.3,9.7,4.3c1.8,1,5.1,3.1,5.1,3.1s-6-1.6-7.9-2c0,0-6.9-2.4-8.6-2.7c-1.8-0.3-4.9,2.5-7.4,5.3c0,0,8,4.1,9.6,4.9
									c1.6,0.9,4.3,2.7,4.3,2.7s-6.3-1.8-8-2.5c-1.8-0.6-6.1-2.4-7.1-2.6c-1-0.3-2.7,0.7-3.3,1.4c-0.6,0.7-3.1,5.1-3.1,5.1
									s6.9,3.1,8.2,3.6c1.3,0.6,4.5,3.1,4.5,3.1s-8.5-2.9-10.7-3.5C216.4,149.1,213.8,149.7,212.7,150.4z"/>
								<path id="XMLID_770_" class="st5" d="M309.6,215.8c23.8,16.9,45.2,32.7,45.2,32.7s13.5-14.6,17.6-23
									c2.2-4.5,4.3-11.2,5.8-16.5c-16-5.6-39.2-14.1-51-19.8C321.7,200.2,313.3,211.2,309.6,215.8z"/>
							</g>
						</g>
						<g id="XMLID_755_">
							<path id="XMLID_767_" class="st5" d="M292.7,175.3c-0.9,0-1.8,0.3-1.8,0.3s-0.1-0.6-0.2-1.3c-0.3,1-0.7,1.9-1.2,2.6
								c-2.7,4.6-11.8,16.5-11.8,16.5s10.5-7.9,13.3-13.2C291.7,179,292.3,177.2,292.7,175.3z"/>
							<g id="XMLID_762_">
								<path id="XMLID_766_" class="st5" d="M278.1,166.5l-1.3,2.4c0,0,0.5,0.1,1.2,0.2c0.4-0.8,0.8-1.7,1.2-2.6
									C278.6,166.5,278.1,166.5,278.1,166.5z"/>
								<path id="XMLID_765_" class="st5" d="M275.1,172.3l-2.3,3.6c0,0,0.2,0.7,0.4,1.5c0.8-1.2,1.6-2.3,2.2-3.3
									C275.2,173.1,275.1,172.3,275.1,172.3z"/>
								<path id="XMLID_764_" class="st5" d="M271.6,177.3l-2.1,3.2c0,0,0.2,0.6,0.6,1.2c0.7-0.9,1.4-1.9,2.1-2.9
									C271.8,178,271.6,177.3,271.6,177.3z"/>
								<path id="XMLID_763_" class="st5" d="M276.7,171.8c0.2-0.4,0.4-0.9,0.7-1.4c-0.5-0.1-0.8-0.2-0.8-0.2l-0.7,1.4
									c0,0,0.1,0.5,0.3,1.2C276.4,172.5,276.6,172.1,276.7,171.8z"/>
							</g>
							<g id="XMLID_760_">
								<path id="XMLID_761_" class="st5" d="M282.2,159.5c-0.3-0.1-0.4-0.1-0.4-0.1l-0.8,1.2l-0.5,1.4c0.2,0,0.4,0.1,0.6,0.1
									C281.5,161.1,281.9,160.2,282.2,159.5z"/>
							</g>
							<path id="XMLID_759_" class="st5" d="M290.7,174.3c-0.2-1.1-0.7-2.4-1.5-2.8c-0.7-0.3-1.3-0.5-1.8-0.5
								c-0.3,1.4-0.7,2.8-1.3,4c-1.6,4-11.8,16.1-11.8,16.1s1,1.3,1.6,1.7c0.6,0.5,1.8,0.6,1.8,0.6s9.1-11.9,11.8-16.5
								C289.9,176.2,290.3,175.3,290.7,174.3z"/>
							<path id="XMLID_758_" class="st5" d="M290.7,174.3c1.7-5,2.2-11.9,2.2-11.9s-1.6-1.5-2.3-1.9c-0.7-0.4-1.9-0.2-1.9-0.2
								s0,5.2-1.3,10.6c0.5,0.1,1.1,0.2,1.8,0.5C289.9,171.9,290.4,173.2,290.7,174.3z"/>
							<path id="XMLID_757_" class="st5" d="M295.9,163.4c-0.7-0.3-1.6-0.2-1.6-0.2s-0.3,6.6-1.6,12.2c0.3,0,0.6,0,0.9,0.1
								c0.5,0.2,1.1,1.4,1.5,2.5c1.1-5.2,2.6-13.1,2.6-13.1S296.6,163.6,295.9,163.4z"/>
							<path id="XMLID_756_" class="st5" d="M293.6,175.4c-0.3-0.1-0.6-0.1-0.9-0.1c-0.4,1.9-1,3.7-1.8,5
								c-2.9,5.3-13.3,13.2-13.3,13.2s0.8,1.3,1.2,1.6c0.4,0.2,2,0.6,2,0.6s12.4-10.6,13.5-14.5c0.2-0.8,0.5-1.9,0.8-3.3
								C294.7,176.8,294.2,175.6,293.6,175.4z"/>
						</g>
						<path id="XMLID_754_" class="st5" d="M233.6,142.4c0,0,2.2-3.9,3.4-5c1.2-1.1,6.1-3.6,6.1-3.6s-0.8-0.7-1.1-0.9
							c-0.4-0.2-1-0.1-1-0.1s-4.3,2.2-5.4,3c-1.1,0.8-3.7,5.7-3.7,5.7S232.6,142.2,233.6,142.4z"/>
						<g id="XMLID_751_">
							<path id="XMLID_753_" class="st5" d="M233.4,136.8c0.1-0.1,0.4-0.2,0.4-0.2s0.8,0.5,1.6,0.6c0,0,0.6-0.3,0.7-0.4
								c0,0-0.6-0.4-0.8-0.5c-0.2-0.1-0.5-0.5-0.5-0.5s0.2-0.3,0.3-0.4c0.1-0.1,0.5-0.2,0.5-0.2s0.2,0.4,0.3,0.6
								c0.1,0.2,0.3,0.9,0.3,0.9s0.3-0.4,0.4-0.6c0.1-0.2,0.3-0.4,0.3-0.4s0-0.9,0-1.2c0,0,0.1-0.2,0.2-0.3c0-0.1,0.2-0.2,0.2-0.2
								l-1-0.4c0,0-1.7,0.3-2.2,0.9c-0.5,0.6-1.1,1.6-1.1,1.6c0,0.4,0.1,1.2,0.1,1.2S233.3,136.9,233.4,136.8z"/>
							<path id="XMLID_752_" class="st5" d="M236.6,136.7c0.1-0.2,0.5-0.8,0.5-0.8c0.2-1.2,0.2-2.1,0.2-2.1s-0.2,0.2-0.2,0.2
								c0,0.1-0.2,0.3-0.2,0.3c0,0.3,0,1.2,0,1.2s-0.1,0.2-0.3,0.4c-0.1,0.2-0.4,0.6-0.4,0.6s-0.2-0.7-0.3-0.9
								c-0.1-0.2-0.3-0.6-0.3-0.6s-0.4,0.2-0.5,0.2c-0.1,0.1-0.3,0.4-0.3,0.4s0.3,0.3,0.5,0.5c0.2,0.1,0.8,0.5,0.8,0.5
								c-0.2,0.1-0.7,0.4-0.7,0.4c-0.8-0.1-1.6-0.6-1.6-0.6s-0.3,0.2-0.4,0.2c-0.1,0.1-0.2,0.4-0.2,0.4c0.9,0.3,2.7,0.2,2.7,0.2
								S236.5,136.9,236.6,136.7z"/>
						</g>
					</g>
					<path id="XMLID_747_" class="st5" d="M414,209.9l-77.1-32c-1.9,17.2-24.1,43.5-24.1,43.5l35.3,30.5l31.7,17.4L414,209.9z"/>
				</g>
				<g id="XMLID_719_">
					<path id="XMLID_745_" class="st5" d="M14.1,217.4c0,0,15.2-22.8-17.8-49.3L-14,192.3L14.1,217.4z"/>
					<g id="XMLID_721_">
						<g id="XMLID_730_">
							<path id="XMLID_744_" class="st5" d="M136.8,142.8c-1,0.1-5.6,1-7.5,1.4c-1.9,0.3-8.3,1.1-8.3,1.1s2.9-1.3,4.7-1.9
								c1.7-0.6,10.3-3.3,10.3-3.3s4.4,1.1,5.7,2.5c1.2,1.4,0.4,7.6,0.4,7.6s-1.7-4.7-2.2-5.5C139.3,143.9,137.8,142.7,136.8,142.8z
								"/>
							<path id="XMLID_743_" class="st5" d="M129.5,133.6c-1.8,0-9,1.2-9,1.2c-2,0.1-8.2,0.7-8.2,0.7s3.5-1.5,5.5-2.2
								c2-0.7,10.2-2.6,10.2-2.6s4.3,1.2,5.9,2.7c1.7,1.5,1.9,6.7,1.9,6.7C133.9,136.9,131.3,133.6,129.5,133.6z"/>
							<g id="XMLID_737_">
								<polygon id="XMLID_742_" class="st5" points="73,157.3 73,157.3 73,157.3 								"/>
								<path id="XMLID_741_" class="st5" d="M53.8,156.1c0,0-0.7,3.3-0.5,8c-7.8,2.7-16.5,5.8-23.3,8.3c-10.5,3.9-39,9.1-57.9,12.3
									c-0.5-4.8-0.8-8.4-0.8-8.4S47,158,53.8,156.1z"/>
								<path id="XMLID_740_" class="st5" d="M75.6,149.6c4-1.5,13.5-12.4,16.4-14.8c2.9-2.4,22-8.3,27.1-10
									c5.1-1.7,6.7-0.5,7.9,0.2c0.2,0.1,0.3,0.3,0.4,0.6c-2,0.1-4.5,0.3-6,0.6c-2.7,0.6-19.7,7.6-23.8,9.4s-12.4,11.3-14.4,13.5
									c-1.6,1.7-6.6,5.5-10.3,8.2l-6.7-4.8C70.3,151.3,74.1,150.2,75.6,149.6z"/>
								<path id="XMLID_739_" class="st5" d="M53.8,156.1c0,0,6.5-1.8,12.6-3.6l6.7,4.8l0,0c0,0-5.1,1.7-12.2,4.2L53.8,156.1z"/>
								<path id="XMLID_738_" class="st5" d="M53.3,164.1c-0.2-4.7,0.5-8,0.5-8l7,5.4C58.5,162.3,56,163.2,53.3,164.1z"/>
							</g>
							<path id="XMLID_736_" class="st5" d="M145,154.7c-0.9-0.8-3.4-1.9-5.6-1.6c-2.2,0.2-11.1,1.7-11.1,1.7s3.6-2,5-2.3
								c1.4-0.3,8.7-2.2,8.7-2.2s5.5,2,6.3,4.3c0.8,2.2,0.1,5.4-0.6,6.9C147.7,158,146,155.6,145,154.7z"/>
							<path id="XMLID_735_" class="st5" d="M111.1,177.1c0,0,6.8-1.7,9.9-3.1c3.1-1.4,13-5.3,13-5.3s-1.1,2.9-2.5,5.9
								c-3.5,1.1-7.7,2.4-9,2.5C120.2,177.4,111.1,177.1,111.1,177.1z"/>
							<g id="XMLID_731_">
								<path id="XMLID_733_" class="st5" d="M18.6,212.6c14.2-7,31.3-15.2,46.8-22.3c0,0,2.8-1.3,6.4-3c4.5-2.1,10.2-4.7,13.6-6
									c1.2-0.5,2.2-0.8,2.6-0.8c2.6-0.3,13.8,4.9,18.5,4.5c4.7-0.4,19.3-1.7,21.8-4.7c1-1.2,2.2-3.4,3.2-5.5
									c-3.5,1.1-7.7,2.4-9,2.5c-2.3,0.2-11.4-0.1-11.4-0.1s6.8-1.7,9.9-3.1c3.1-1.4,13-5.3,13-5.3s13-5.9,13.7-7.2
									c0-0.1,0.1-0.1,0.1-0.2c0-3.4-1.8-5.8-2.8-6.7c-0.9-0.8-3.4-1.9-5.6-1.6c-2.2,0.2-11.1,1.7-11.1,1.7s3.6-2,5-2.3
									c1.4-0.3,8.7-2.2,8.7-2.2s-1.7-4.7-2.2-5.5c-0.5-0.8-2-2-3-1.9c-1,0.1-5.6,1-7.5,1.4c-1.9,0.3-8.3,1.1-8.3,1.1
									s2.9-1.3,4.7-1.9c1.7-0.6,10.3-3.3,10.3-3.3c-2.1-3.2-4.6-6.5-6.4-6.5c-1.8,0-9,1.2-9,1.2c-2,0.1-8.2,0.7-8.2,0.7
									s3.5-1.5,5.5-2.2c2-0.7,10.2-2.6,10.2-2.6s0.1-3.6-0.6-5.1c-2,0.1-4.5,0.3-6,0.6c-2.7,0.6-19.7,7.6-23.8,9.4
									c-4.1,1.7-12.4,11.3-14.4,13.5c-1.2,1.3-4.2,3.6-7.1,5.8c-1.1,0.8-2.2,1.6-3.2,2.4c0,0-5.1,1.7-12.2,4.2
									c-2.3,0.8-4.9,1.7-7.5,2.6c-7.8,2.7-16.5,5.8-23.3,8.3c-5.6,2-16.2,4.5-27.8,6.8C4.4,195.4,14.6,208.2,18.6,212.6z"/>
								<path id="XMLID_732_" class="st5" d="M-25.4,200.1l2.8,7.8c4.1,8.9,11.1,19.6,11.1,19.6s12.8-6.5,30.1-15
									c-4-4.4-14.2-17.2-16.5-33.4c-10.2,2.1-21.2,4-30.1,5.5C-27.4,189.5-26.6,195.5-25.4,200.1z"/>
							</g>
						</g>
						<g id="XMLID_722_">
							<path id="XMLID_729_" class="st5" d="M83.4,174.3c0,0,1,3,1.2,3.8c0.3,0.9,0.7,3,0.7,3s0.5,0.1,0.8,0
								c0.3-0.1,0.6-0.5,0.6-0.5s-0.5-2.2-0.7-3c-0.2-0.9-1.2-3.9-1.2-3.9L83.4,174.3z"/>
							<path id="XMLID_728_" class="st5" d="M76.8,155.4l1.5-0.2c0,0-0.8-1.7-1.4-3.2c-0.3-0.7-1.5-2.3-1.5-2.3s-0.5,0-0.7,0
								c-0.2,0-0.6,0.4-0.6,0.4s1,1.6,1.5,2.3C75.8,153.2,76.8,155.4,76.8,155.4z"/>
							<g id="XMLID_725_">
								<path id="XMLID_727_" class="st5" d="M75.5,156.4c0,0,1.5,5.4,3,9c1.3,3.2,3.8,8.3,4.5,9.8c0.4,0,0.8-0.1,1.2-0.2
									c0.9-0.3,2.2-1.2,2.2-1.2s-1-6.3-2.6-10.4c-1.1-2.8-3-6.2-4.2-8c-0.9,0-2.1,0.1-2.5,0.2C76.6,155.7,75.5,156.4,75.5,156.4z"
									/>
								<path id="XMLID_726_" class="st5" d="M76.6,154.1c-1,0.2-2.6,1.4-2.6,1.4s2.6,7.3,3.7,9.9c1.1,2.6,4.3,9.9,4.3,9.9
									s0.5,0,1.1,0c-0.7-1.4-3.2-6.6-4.5-9.8c-1.5-3.7-3-9-3-9s1-0.7,1.7-0.9c0.4-0.1,1.5-0.2,2.5-0.2c-0.5-0.9-0.9-1.4-0.9-1.4
									S77.5,153.8,76.6,154.1z"/>
							</g>
							<path id="XMLID_724_" class="st5" d="M83.2,173.7c0.2,0.3,0.7,0.4,1,0.2c0.3-0.2,0.6-0.7,0.4-1.1c-0.1-0.5-0.7-0.5-1.1-0.5
								S82.9,173.2,83.2,173.7z"/>
							<path id="XMLID_723_" class="st5" d="M77.4,155c-0.4,0-0.8,0.3-0.8,0.7c0,0.4,0.2,0.8,0.7,1c0.5,0.1,0.9-0.3,1-0.6
								C78.5,155.8,78,155,77.4,155z"/>
						</g>
					</g>
					<path id="XMLID_720_" class="st5" d="M14.1,217.4c0,0-22.8-22.2-17.8-49.3l-16.1,0.2l-21.3,8.5l20.2,56.1l21.9-8.1L14.1,217.4z
						"/>
				</g>
				<g id="XMLID_344_">
					<path id="XMLID_718_" class="st5" d="M192.8,252c0,0-15.9-19.4-48.7-1.6l24.6,19.2L192.8,252z"/>
					<path id="XMLID_717_" class="st5" d="M189.7,237.8c0,0-14.4-23.6-41.8-1.4l16,20.3L189.7,237.8z"/>
					<g id="XMLID_690_">
						<g id="XMLID_700_">
							<path id="XMLID_716_" class="st5" d="M174.6,168.6c-0.4,1-1.6,5.8-2.1,7.7c-0.5,1.9-2.8,8.3-2.8,8.3s0.1-3.4,0.3-5.3
								c0.2-1.9,1.6-11.2,1.6-11.2s3.1-3.7,4.9-4.2c1.9-0.5,7.4,3.1,7.4,3.1s-5.2-0.5-6.2-0.4C176.8,166.7,175,167.6,174.6,168.6z"
								/>
							<path id="XMLID_715_" class="st5" d="M162.7,171.2c-0.8,1.7-3,9-3,9c-0.8,1.9-3.1,8-3.1,8s0.2-4,0.5-6.2
								c0.3-2.2,2.2-10.8,2.2-10.8s3.1-3.4,5.3-4.3c2.2-0.9,7.2,1.3,7.2,1.3C167.8,168.6,163.5,169.5,162.7,171.2z"/>
							<g id="XMLID_709_">
								<polygon id="XMLID_714_" class="st5" points="159.2,235.2 159.2,235.2 159.2,235.2 								"/>
								<path id="XMLID_713_" class="st5" d="M149.3,252.7c0,0,2.8,2.2,7.3,4.1c-1,8.6-2.1,18.1-2.9,25.8
									c-1.2,11.7-9.2,40.9-14.8,60.1c-4.7-1.7-8.3-3.1-8.3-3.1S148,260,149.3,252.7z"/>
								<path id="XMLID_712_" class="st5" d="M153.1,229.2c0.4-4.4-5.5-18.4-6.4-22.2c-0.9-3.8,2.2-24.5,3-30.1
									c0.7-5.6,2.6-6.5,3.8-7.3c0.2-0.1,0.4-0.2,0.7-0.2c-0.8,2-1.7,4.4-2.1,5.9c-0.7,2.8-1.8,22-2.1,26.7
									c-0.3,4.7,5,16.9,6.1,19.7c0.9,2.3,2.2,8.8,3.1,13.4l-7.6,4.1C152.3,235,153,231,153.1,229.2z"/>
								<path id="XMLID_711_" class="st5" d="M149.3,252.7c0,0,1.3-7,2.3-13.5l7.6-4.1l0,0c0,0-0.7,5.6-1.6,13.4L149.3,252.7z"/>
								<path id="XMLID_710_" class="st5" d="M156.6,256.8c-4.5-1.9-7.3-4.1-7.3-4.1l8.3-4.1C157.3,251.1,156.9,253.9,156.6,256.8z"
									/>
							</g>
							<path id="XMLID_708_" class="st5" d="M189.6,166.2c-1.2,0.5-3.3,2.4-4.1,4.5C184.7,173,182,182,182,182s-0.2-4.3,0.1-5.8
								c0.3-1.5,1.9-9.2,1.9-9.2s4.3-4.3,7-4c2.5,0.2,5.2,2.4,6.2,3.7C193.9,165.2,190.8,165.8,189.6,166.2z"/>
							<path id="XMLID_707_" class="st5" d="M195.2,208.4c0,0,1.5-7.2,1.6-10.7c0.1-3.5,1-14.6,1-14.6s2.2,2.3,4.4,5
								c-0.6,3.8-1.3,8.4-1.7,9.6C199.6,200,195.2,208.4,195.2,208.4z"/>
							<g id="XMLID_701_">
								<g id="XMLID_703_">
									<path id="XMLID_705_" class="st5" d="M187.4,233.8c0.1-1,0.2-1.8,0.3-2.1c0.9-2.6,10.9-10.8,12.7-15.4
										c1.7-4.6,7.2-18.9,5.6-22.7c-0.7-1.5-2.2-3.6-3.7-5.5c-0.6,3.8-1.3,8.4-1.7,9.6c-0.8,2.3-5.3,10.6-5.3,10.6
										s1.5-7.2,1.6-10.7c0.1-3.5,1-14.6,1-14.6s0.4-14.9-0.5-16.2c0-0.1-0.1-0.1-0.2-0.2c-3.3-1.5-6.3-0.9-7.5-0.4
										c-1.2,0.5-3.3,2.4-4.1,4.5C184.7,173,182,182,182,182s-0.2-4.3,0.1-5.8c0.3-1.5,1.9-9.2,1.9-9.2s-5.2-0.5-6.2-0.4
										c-1,0.1-2.8,1-3.1,2c-0.4,1-1.6,5.8-2.1,7.7c-0.5,1.9-2.8,8.3-2.8,8.3s0.1-3.4,0.3-5.3c0.2-1.9,1.6-11.2,1.6-11.2
										c-3.9,0.5-8.2,1.4-9,3.1c-0.8,1.7-3,9-3,9c-0.8,1.9-3.1,8-3.1,8s0.2-4,0.5-6.2c0.3-2.2,2.2-10.8,2.2-10.8s-3.3-1.8-5-1.7
										c-0.8,2-1.7,4.4-2.1,5.9c-0.7,2.8-1.8,22-2.1,26.7c-0.3,4.7,5,16.9,6.1,19.7c0.6,1.7,1.5,5.6,2.3,9.3
										c0.3,1.4,0.5,2.7,0.8,4C172.2,237.6,182.9,235.2,187.4,233.8z"/>
									<path id="XMLID_704_" class="st5" d="M157.6,248.6c-0.3,2.6-0.6,5.3-1,8.3c-1,8.6-2.1,18.1-2.9,25.8
										c-0.6,6.2-3.2,17.3-6.3,29.3c16.3,5.3,33,1.5,39-0.2c-0.1-16.5-0.1-36.4,0.3-54.2c0,0,0-3.2,0.1-7.4
										c0.1-5.1,0.2-11.7,0.5-15.5c0-0.3,0-0.5,0.1-0.7c-4.5,1.4-15.2,3.9-28.2,1.3c0,0,0,0.1,0,0.1
										C159.2,235.2,158.5,240.8,157.6,248.6z"/>
								</g>
							</g>
						</g>
					</g>
					<g id="XMLID_347_">
						<path id="XMLID_688_" class="st5" d="M190.2,248.9l-0.4-11.1c0,0-19.3,8.1-41.8-1.4l-1.9,10.7
							C166.1,254.9,183.8,250.9,190.2,248.9z"/>
						<path id="XMLID_687_" class="st5" d="M189,356.5l1.8-93.1l-0.6-14.5c-6.4,2-24,6-44.2-1.8l-17.9,99.7L189,356.5z"/>
					</g>
					<path id="XMLID_346_" class="st5" d="M192.8,252c0,0-22.5,9.4-48.7-1.6l-23,128.6l70.8,11.2l2.1-108.4L192.8,252z"/>
				</g>
			</g>
			<g id="XMLID_317_">
				<g id="XMLID_234_">
					<path id="XMLID_264_" class="st6" d="M79.9,34.5c0,0,0.3,2.6-0.1,5.9c0,0-5.3,13-8.3,19.6C68.5,66.4,61,76.7,61,76.7
						s-2.6,2.6-4.1,3.8c0,0-2.4-14.4,2.3-26.7C64,41.4,79.9,34.5,79.9,34.5z"/>
					<g id="XMLID_254_">
						<path id="XMLID_263_" class="st7" d="M124.1,90.7c-1-0.2-5.6-1.7-7.5-2.3c-1.9-0.6-8.5-2-8.5-2s2.7,1.9,4.4,2.7
							c1.7,0.9,10,4.8,10,4.8s4.9-0.9,6.6-2.5c1.6-1.5,2.3-9,2.3-9s-3,5.5-3.7,6.4C127,89.6,125.1,90.9,124.1,90.7z"/>
						<path id="XMLID_262_" class="st7" d="M114.1,100.9c-1.9-0.2-9.1-2.2-9.1-2.2c-2-0.3-8.4-1.5-8.4-1.5s3.3,2.1,5.2,3.1
							c1.9,1,10.1,4.1,10.1,4.1s4.8-1.1,6.9-2.7c2.1-1.6,3.7-7.8,3.7-7.8C119.5,97.4,116,101.1,114.1,100.9z"/>
						<path id="XMLID_261_" class="st7" d="M101,110.4c5,2.5,6.9,1.2,8.3,0.5c0.2-0.1,0.4-0.3,0.6-0.6c-2.1-0.3-4.7-0.8-6.1-1.3
							c-2.7-0.9-18.7-10.9-22.6-13.3c-3.9-2.4-10.2-14.6-11.7-17.3c-1.5-2.7-7.8-9.8-10.7-13c-2-2.2-10-8.8-15.3-13
							c-3,8.1-3.2,14.9-3.2,14.9s17.5,7.6,21.3,9.7c3.8,2.1,11.1,16,13.5,19C77.5,99.2,96.1,107.9,101,110.4z"/>
						<path id="XMLID_260_" class="st7" d="M135.7,77.3c-1.2,0.9-4,1.9-6.3,1.4c-2.3-0.5-11.2-3-11.2-3s3.3,2.7,4.7,3.2
							c1.4,0.5,8.6,3.4,8.6,3.4s6.2-1.8,7.7-4.5c1.4-2.6,1.5-6.5,1.1-8.2C139.4,73.7,136.9,76.3,135.7,77.3z"/>
						<path id="XMLID_259_" class="st7" d="M105.8,47.6c0,0,6.7,2.6,9.6,4.5c2.9,1.9,12.3,7.4,12.3,7.4s-0.4-3.5-1.1-7.2
							c-3.4-1.7-7.5-3.6-8.8-3.8C115.4,48,105.8,47.6,105.8,47.6z"/>
						<g id="XMLID_255_">
							<path id="XMLID_258_" class="st8" d="M64.7,34c0.1-0.1,1.1-1,2.5-2.1c-3.4-2.3-5.9-4.2-5.9-4.2s-8.8,7.4-14.7,18.1
								c-1.2,2.2-2.2,4.4-3,6.5c2.6,2.1,5.9,4.7,8.8,7.2C58.2,47.5,64.5,34.3,64.7,34z"/>
							<path id="XMLID_257_" class="st8" d="M63.6,70.8c2.5,2.9,5.1,6,6,7.6c1.5,2.7,7.8,14.9,11.7,17.3c3.9,2.4,20,12.4,22.6,13.3
								c1.4,0.5,4,1,6.1,1.3c1.1-1.7,1.9-6,1.9-6s-8.2-3.1-10.1-4.1c-1.9-1-5.2-3.1-5.2-3.1s6.4,1.2,8.4,1.5c0,0,7.2,2,9.1,2.2
								c1.9,0.2,5.4-3.5,8.4-7.1c0,0-8.3-4-10-4.8c-1.7-0.9-4.4-2.7-4.4-2.7s6.6,1.5,8.5,2c1.9,0.6,6.4,2.1,7.5,2.3
								c1,0.2,2.9-1.1,3.6-2c0.7-0.9,3.7-6.4,3.7-6.4s-7.2-2.9-8.6-3.4c-1.4-0.5-4.7-3.2-4.7-3.2s8.9,2.5,11.2,3
								c2.3,0.5,5.1-0.5,6.3-1.4c1.2-0.9,3.7-3.6,4.6-7.7c0-0.1,0-0.2-0.1-0.3c-0.4-1.6-12.6-9.8-12.6-9.8s-9.4-5.5-12.3-7.4
								c-2.9-1.9-9.6-4.5-9.6-4.5s9.6,0.4,11.9,0.9c1.3,0.3,5.4,2.2,8.8,3.8c-0.5-2.6-1.2-5.3-1.9-6.8c-1.9-3.8-16.9-6.6-21.7-7.5
								c-4.8-0.9-17.9,4.2-20.5,3.6c-0.4-0.1-1.3-0.6-2.5-1.2c-3.8,5.1-10.1,13.9-12.6,18.5C65.8,61.3,64.6,66,63.6,70.8z"/>
							<path id="XMLID_256_" class="st7" d="M52.4,59.6c2.9,2.5,5.5,4.7,6.5,5.8c1.2,1.3,2.9,3.3,4.7,5.4c1-4.8,2.2-9.4,3.6-12
								c2.6-4.6,8.9-13.4,12.6-18.5c-3.2-1.9-8.6-5.5-12.7-8.4c-1.4,1.1-2.4,1.9-2.5,2.1C64.5,34.3,58.2,47.5,52.4,59.6z"/>
						</g>
					</g>
					<g id="XMLID_235_">
						<g id="XMLID_240_">
							<path id="XMLID_253_" class="st9" d="M54.8,28.9l-1.4,2.4c0,0,1,0.4,2.4,1.1c0.6-0.8,1.2-1.5,1.8-2.2
								C56,29.4,54.8,28.9,54.8,28.9z"/>
							<path id="XMLID_252_" class="st9" d="M45.8,39.6l-1.4,2.6c0,0,1.4,0.5,3.3,1.2c0.5-0.8,1.1-1.6,1.7-2.5
								C47.3,40.2,45.8,39.6,45.8,39.6z"/>
							<path id="XMLID_251_" class="st9" d="M40.6,50.3l-1,3.5c0,0,1,0.6,2.3,1.4c0.4-1.2,0.8-2.3,1.2-3.4
								C41.6,51,40.6,50.3,40.6,50.3z"/>
							<path id="XMLID_250_" class="st9" d="M36.7,61l-0.1,2.8c0,0,1.1,0.7,2.6,1.7c0.2-0.8,0.4-1.7,0.6-2.6
								C38,61.8,36.7,61,36.7,61z"/>
							<path id="XMLID_249_" class="st10" d="M68.1,35.1c1.4,0.9,4.6,3.5,6.8,5.3c2.8-3.5,5-6,5-6s-4.6-3.8-7-5.7
								c-2.4-1.9-10.3-4.9-10.3-4.9s-2.2,2.6-5,6.2C61.1,31.7,66.6,34.2,68.1,35.1z"/>
							<path id="XMLID_248_" class="st10" d="M45.8,76.4c3.2,1.1,11.1,4.1,11.1,4.1s0.5-2.7,1.4-6.6c-3.6-0.8-8.5-2-10.3-3
								c-1.9-1.1-6-3.6-8.7-5.3c-0.8,3.6-1.3,6.2-1.3,6.2S42.6,75.3,45.8,76.4z"/>
							<path id="XMLID_247_" class="st6" d="M51.3,60.3c1.6,0.7,6.2,1.8,10.1,2.7c0.4-1.1,0.7-2.1,1.1-3.1c-3.3-0.9-8-2.2-9.8-2.8
								c-1.9-0.7-6.7-3.4-9.6-5.2c-0.4,1.1-0.8,2.2-1.2,3.4C44.8,56.9,49.3,59.5,51.3,60.3z"/>
							<path id="XMLID_246_" class="st10" d="M49.1,67.9c2.2,0.9,6.7,2.2,9.8,3.1c0.7-2.5,1.4-5.3,2.4-8c-3.8-0.9-8.5-2-10.1-2.7
								c-1.9-0.8-6.5-3.4-9.3-5.1c-0.8,2.6-1.5,5.2-2.1,7.7C42.7,64.6,46.9,67,49.1,67.9z"/>
							<path id="XMLID_245_" class="st6" d="M72.9,43c0.7-0.9,1.4-1.8,2-2.6c-2.2-1.9-5.4-4.4-6.8-5.3c-1.5-1-7-3.5-10.5-5
								c-0.6,0.7-1.2,1.5-1.8,2.2c2.9,1.3,7.7,3.4,9.2,4.2C66.6,37.4,70.3,40.7,72.9,43z"/>
							<path id="XMLID_244_" class="st6" d="M58.3,73.9C58.5,73,58.7,72,59,71c-3.1-0.9-7.6-2.2-9.8-3.1c-2.2-0.9-6.4-3.3-9.3-5
								c-0.2,0.9-0.4,1.7-0.6,2.6c2.7,1.7,6.8,4.3,8.7,5.3C49.8,71.8,54.7,73.1,58.3,73.9z"/>
							<path id="XMLID_243_" class="st10" d="M67.5,50.5c1.7-2.6,3.6-5.2,5.4-7.5c-2.6-2.3-6.3-5.6-7.8-6.4c-1.5-0.9-6.3-3-9.2-4.2
								c-2.1,2.7-4.5,5.8-6.5,8.6c3.9,1.5,9.8,3.8,11.2,4.6C62,46.3,65.3,48.8,67.5,50.5z"/>
							<path id="XMLID_242_" class="st10" d="M52.7,57c1.8,0.6,6.5,1.9,9.8,2.8c0.5-1.2,0.9-2.3,1.5-3.3c0.6-1.2,1.3-2.4,2-3.6
								c-2.6-2.1-6.4-5-7.9-5.6c-1.6-0.6-6.9-2.5-10.4-3.9c-1,1.5-1.9,2.9-2.6,4c-0.7,1.2-1.3,2.7-2,4.4
								C46.1,53.6,50.8,56.4,52.7,57z"/>
							<path id="XMLID_241_" class="st6" d="M66,52.9c0.5-0.8,1-1.6,1.5-2.4c-2.2-1.7-5.5-4.2-6.9-5c-1.4-0.8-7.3-3.1-11.2-4.6
								c-0.6,0.9-1.2,1.7-1.7,2.5c3.5,1.3,8.8,3.3,10.4,3.9C59.6,47.9,63.3,50.7,66,52.9z"/>
						</g>
						<path id="XMLID_239_" class="st6" d="M30.2,50.5C28,55.9,26,70.2,25,78.6c0.2,0,0.3,0,0.5-0.1c5.5-2,12.6-6.9,12.6-6.9
							s3-17.2,7.1-24.2c4-7,17.6-23.6,17.6-23.6s0.1-7.7-1-10.9c-3.2,1.3-6.7,3-9.2,5.2C45.7,23.9,33.4,42.5,30.2,50.5z"/>
						<g id="XMLID_236_">
							<path id="XMLID_238_" class="st10" d="M4.9,55.6c7,2.7,16.6,5.3,22.4,6.7c0.9-4.9,1.8-9.3,2.9-11.9
								c3.2-8,15.5-26.5,22.3-32.2c2.6-2.2,6-3.9,9.2-5.2c0,0,0-0.1,0-0.2c-1.1-3-36.3-23.9-43.7-27.8c-7.4-3.9-32.1-19-41.3-25.9
								c0,0-21.4,32-26.3,42.2c-1.3,2.6-2.1,5.7-2.6,8.9c5.4,7.2,13.1,16.9,17.3,20.3C-28.1,36.3-5.8,51.5,4.9,55.6z"/>
							<path id="XMLID_237_" class="st6" d="M-22.4,56.2c7.5,4.7,40.6,23.4,47.3,22.5c0.6-4.5,1.4-10.7,2.4-16.3
								c-5.8-1.5-15.4-4.1-22.4-6.7c-10.7-4.1-33-19.3-40-25c-4.2-3.4-11.9-13.1-17.3-20.3c-1.6,9.6-0.7,20-0.7,20
								S-30,51.3-22.4,56.2z"/>
						</g>
					</g>
				</g>
				<g id="XMLID_205_">
					<g id="XMLID_277_">
						<path id="XMLID_292_" class="st11" d="M233.8,93.6c1-0.3,5.3-2.2,7-3c1.7-0.7,7.9-2.9,7.9-2.9s-2.6,1.9-4.2,2.9
							c-1.6,0.9-9.3,5.4-9.3,5.4s-4.6-0.1-6.1-1.2c-1.5-1.1-2-7.4-2-7.4s2.7,4.2,3.4,4.9C231.1,93.1,232.9,93.9,233.8,93.6z"/>
						<path id="XMLID_291_" class="st11" d="M242.9,101c1.8-0.4,8.5-3.1,8.5-3.1c1.9-0.5,7.8-2.4,7.8-2.4s-3.1,2.2-4.9,3.3
							c-1.8,1.1-9.4,4.8-9.4,4.8s-4.4-0.3-6.4-1.4c-2-1.1-3.3-6.1-3.3-6.1C237.9,98.8,241.2,101.4,242.9,101z"/>
						<g id="XMLID_284_">
							<polygon id="XMLID_290_" class="st11" points="292.9,65.7 292.9,65.7 292.9,65.7 							"/>
							<path id="XMLID_223_" class="st11" d="M247.2,108.9c1.4,0.4,3.1,1.3,7.8-1.5c4.7-2.8,22-12.7,24.3-15.6
								c2.3-2.9,9.3-15.7,12.8-18c1.4-0.9,4.8-2.8,8.4-4.8c5.5-3,11.5-6.2,11.5-6.2c6.2-3.3,76.1-37.6,76.1-37.6s-1-3.5-2.6-8
								c-17.7,7.2-44.4,18.5-53.8,24.5c-6.2,3.9-14,8.8-21,13.1c-2.4,1.5-4.7,2.9-6.8,4.2c-6.4,3.9-11,6.7-11,6.7l0,0
								c-3,3.4-7.1,8.2-8.3,10.3c-1.5,2.5-7.5,13.7-11.1,16.3c-3.7,2.6-18.8,13.2-21.3,14.3c-1.3,0.6-3.7,1.3-5.7,1.9
								C246.8,108.6,247,108.8,247.2,108.9z"/>
						</g>
						<path id="XMLID_283_" class="st11" d="M223.2,83.8c1.1,0.6,3.7,1.1,5.8,0.4c2.1-0.7,10.5-4,10.5-4s-3.1,2.7-4.4,3.3
							c-1.3,0.6-8,4-8,4s-5.8-0.7-7.1-2.8c-1.3-2-1.3-5.3-0.9-6.8C219.9,81.2,222.1,83.2,223.2,83.8z"/>
						<path id="XMLID_280_" class="st11" d="M251.5,54.6c0,0-6.3,3.1-9,5.1c-2.7,2-11.6,8-11.6,8s0.4-3.1,1.2-6.3
							c3.2-1.9,7-4,8.2-4.4C242.6,56.2,251.5,54.6,251.5,54.6z"/>
						<path id="XMLID_279_" class="st12" d="M284.7,76c-1.5,2.5-7.5,13.7-11.1,16.3c-3.7,2.6-18.8,13.2-21.3,14.3
							c-1.3,0.6-3.7,1.3-5.7,1.9c-1-1.3-1.7-4.8-1.7-4.8s7.6-3.7,9.4-4.8c1.8-1.1,4.9-3.3,4.9-3.3s-6,1.9-7.8,2.4
							c0,0-6.7,2.7-8.5,3.1c-1.8,0.4-5-2.3-7.7-4.9c0,0,7.8-4.5,9.3-5.4c1.6-0.9,4.2-2.9,4.2-2.9s-6.2,2.1-7.9,2.9
							c-1.7,0.7-6,2.7-7,3c-1,0.3-2.7-0.5-3.3-1.2c-0.6-0.7-3.4-4.9-3.4-4.9s6.7-3.4,8-4c1.3-0.6,4.4-3.3,4.4-3.3s-8.4,3.3-10.5,4
							c-2.1,0.7-4.8,0.2-5.8-0.4c-1.1-0.6-3.3-2.6-4.1-5.9c0-0.1,0-0.2,0.1-0.2c0.4-1.4,11.8-10,11.8-10s8.9-6,11.6-8
							c2.7-2,9-5.1,9-5.1s-8.9,1.6-11.1,2.4c-1.2,0.4-5,2.6-8.2,4.4c0.5-2.3,1.2-4.6,1.9-6.1c1.8-3.5,15.8-7.9,20.3-9.3
							c4.5-1.4,16.5,1.2,19,0.4c0.4-0.1,1.3-0.6,2.4-1.4c3-2,8.1-5.8,11.9-8.8c3.2-2.4,5.6-4.3,5.6-4.3c30.1-22.8,67-53.1,67-53.1
							s14.2,13.9,18.7,22.1c2.4,4.4,4.8,11,6.6,16.2c-17.7,7.2-44.4,18.5-53.8,24.5c-6.2,3.9-14,8.8-21,13.1
							c-2.4,1.5-4.7,2.9-6.8,4.2c-6.4,3.9-11,6.7-11,6.7c-0.8,0.9-1.7,2-2.6,3C288,71.5,285.6,74.5,284.7,76z"/>
					</g>
					<g id="XMLID_152_">
						<g id="XMLID_294_">
							<path id="XMLID_300_" class="st13" d="M293.9,51.4c2.6,4.3,9.6,13.1,12.7,17c0.2-0.1,0.4-0.2,0.6-0.3
								c1.2-0.8,3.5-4.3,3.5-4.3s-7.4-13.5-9.8-17.1c-2.4-3.7-9.5-13.9-9.5-13.9s-3.4,0.6-4.3,1.1c-0.3,0.2-1,0.7-1.5,1.1
								C287.5,39.2,291.4,47.2,293.9,51.4z"/>
							<path id="XMLID_295_" class="st13" d="M290.7,53.3c2.5,4,11.5,16.6,11.5,16.6s2.9-0.7,4.4-1.5c-3.1-3.9-10.1-12.8-12.7-17
								c-2.5-4.1-6.4-12.2-8.4-16.4c-1.4,1-2.7,3.4-2.7,3.4S288.2,49.3,290.7,53.3z"/>
						</g>
						<g id="XMLID_265_">
							<path id="XMLID_293_" class="st14" d="M291.7,39.5l0-1.4c0,0-1.7,0.3-2.7,0.9c-0.9,0.5-2,1.8-2,1.8l1.4,1L291.7,39.5z"/>
							<g id="XMLID_266_">
								<path id="XMLID_276_" class="st15" d="M297.4,38.1c1.4,0.2,4.9,1.8,6.8,3.2c2,1.4,4.1,6.6,4.4,9c0.2,2.4-4.1,8.3-6.2,10
									c-2.1,1.6-8.5,1-11.5-0.7c-2.9-1.6-6.6-9-6.8-11.5c-0.2-2.5,4.3-7,5.2-7.8C290.3,39.4,296,37.9,297.4,38.1z"/>
								<g id="XMLID_273_">
									<path id="XMLID_275_" class="st14" d="M298.5,44.1c1.9,1.3,4,6.5,4,8.2c0,0.5-0.3,1.2-0.7,1.8c0.4-0.3,0.7-0.7,0.9-0.9
										c0.6-0.8,1.4-4.5,1.2-5.3c-0.2-0.8-1.4-4.7-2.9-5.3c-1.3-0.5-5.3-0.7-7.6,0C295.2,42.7,297.3,43.3,298.5,44.1z"/>
									<path id="XMLID_274_" class="st16" d="M288.5,49.4c0.3,1.7,2.4,6,3.8,6.6c1.4,0.6,5,0.9,6.5,0.2c1-0.5,2.2-1.3,3-2.1
										c0.4-0.6,0.7-1.3,0.7-1.8c0-1.7-2.1-7-4-8.2c-1.2-0.8-3.3-1.4-5.1-1.5c-0.4,0.1-0.8,0.3-1,0.4
										C290.5,44.2,288.2,47.7,288.5,49.4z"/>
								</g>
								<path id="XMLID_270_" class="st13" d="M295.7,48.3c0.6-0.1,1.1,0.1,1.4,0.6c0.3,0.5,0.1,1.4-0.4,1.7
									c-0.5,0.3-1.6-0.1-1.8-0.4c-0.3-0.3-0.4-1.2-0.1-1.5C295,48.5,295.5,48.3,295.7,48.3z"/>
								<path id="XMLID_267_" class="st13" d="M296.3,49l2.2-1.9c0,0,0.8,0,1,0.2c0.2,0.2,0,1.1,0,1.1l-3,1.2l-0.3,5.5
									c0,0-0.6,0.3-0.9,0.4c-0.4,0.1-1-0.4-1-0.4l1.7-5.9L296.3,49z"/>
							</g>
						</g>
					</g>
				</g>
				<g id="XMLID_201_">
					<path id="XMLID_268_" class="st17" d="M315.3,212.4c0,0-2.8-21.4,21.3-44.9l14.9,12L315.3,212.4z"/>
					<g id="XMLID_190_">
						<g id="XMLID_222_">
							<path id="XMLID_233_" class="st7" d="M220.3,137.1c1,0.2,5.5,1.6,7.3,2.2c1.8,0.5,8.2,1.9,8.2,1.9s-2.8-1.6-4.5-2.4
								c-1.7-0.8-9.9-4.3-9.9-4.3s-4.5,0.7-5.9,1.9c-1.4,1.2-1.2,7.6-1.2,7.6s2.2-4.5,2.8-5.3C217.7,137.9,219.3,136.9,220.3,137.1z
								"/>
							<path id="XMLID_232_" class="st7" d="M228.5,128.7c1.8,0.2,8.8,2.1,8.8,2.1c1.9,0.3,8.1,1.5,8.1,1.5s-3.3-1.9-5.2-2.7
								c-1.9-0.9-9.9-3.7-9.9-3.7s-4.4,0.8-6.2,2.1c-1.8,1.3-2.6,6.5-2.6,6.5C223.8,131.5,226.7,128.5,228.5,128.7z"/>
							<path class="st7" d="M301.5,158.9c0,0-6.3-2.5-12.1-4.9c-3.8-1.6-7.4-3.1-8.9-3.8c-3.8-1.9-12.2-13.7-14.8-16.4
								c-2.6-2.7-21-10.5-25.9-12.8c-4.9-2.2-6.6-1.2-7.9-0.6c-0.2,0.1-0.4,0.3-0.5,0.5c2,0.3,4.5,0.8,5.9,1.3
								c2.6,0.8,18.8,9.7,22.7,11.8c3.9,2.1,11.2,12.6,12.9,14.9c1.4,1.9,6,6.2,9.4,9.2l0,0l0,0c0,0,4.9,2.3,11.7,5.4
								c2.2,1,4.7,2.2,7.2,3.4c7.5,3.5,15.8,7.5,22.4,10.7c10.1,4.9,37.9,13.1,56.3,18.3c1-4.7,1.6-8.3,1.6-8.3
								S308,161.5,301.5,158.9z"/>
							<path id="XMLID_225_" class="st7" d="M210.9,148.1c1-0.7,3.6-1.5,5.8-1c2.2,0.5,10.9,2.8,10.9,2.8s-3.4-2.3-4.7-2.8
								c-1.4-0.5-8.4-3.1-8.4-3.1s-5.7,1.4-6.8,3.6c-1.1,2.1-0.7,5.4-0.1,6.9C207.8,151,209.9,148.8,210.9,148.1z"/>
							<path id="XMLID_224_" class="st7" d="M242.3,173.9c0,0-6.6-2.4-9.5-4.1c-2.9-1.7-12.4-6.6-12.4-6.6s0.8,3,1.9,6.1
								c3.4,1.5,7.5,3.2,8.7,3.4C233.2,173.2,242.3,173.9,242.3,173.9z"/>
							<g id="XMLID_271_">
								<path id="XMLID_299_" class="st8" d="M210.9,148.1c-1,0.7-3,2.9-3.4,6.3c0,0.1,0.1,0.2,0.1,0.2c0.6,1.4,12.9,8.6,12.9,8.6
									s9.5,4.9,12.4,6.6c2.9,1.7,9.5,4.1,9.5,4.1s-9.1-0.6-11.3-1.1c-1.2-0.3-5.3-2-8.7-3.4c0.8,2.2,1.7,4.5,2.6,5.8
									c2.2,3.2,16.6,6,21.2,6.9c4.6,0.9,16.3-3.1,18.9-2.5c0.4,0.1,1.3,0.5,2.5,1.1c3.2,1.7,8.7,4.9,12.9,7.4c3.4,2.1,6,3.7,6,3.7
									c8.2,4.9,17,10.2,25.4,15.4c3.3-4.8,11.1-16.3,15.8-27.7c-1.6-0.6-2.9-1.2-4.1-1.8c-6.6-3.2-14.9-7.2-22.4-10.7
									c-2.5-1.2-5-2.3-7.2-3.4c-6.8-3.2-11.7-5.4-11.7-5.4c-0.9-0.8-1.9-1.8-2.9-2.7c-2.7-2.5-5.4-5.2-6.4-6.5
									c-1.8-2.3-9-12.8-12.9-14.9c-3.9-2.1-20.1-10.9-22.7-11.8c-1.4-0.4-3.8-0.9-5.9-1.3c-0.9,1.4-1.1,5-1.1,5s8,2.8,9.9,3.7
									c1.9,0.9,5.2,2.7,5.2,2.7s-6.1-1.2-8.1-1.5c0,0-7-1.9-8.8-2.1c-1.8-0.2-4.7,2.8-7.1,5.8c0,0,8.2,3.6,9.9,4.3
									c1.7,0.8,4.5,2.4,4.5,2.4s-6.4-1.4-8.2-1.9c-1.8-0.5-6.3-2-7.3-2.2c-1-0.2-2.6,0.8-3.2,1.6c-0.6,0.7-2.8,5.3-2.8,5.3
									s7,2.6,8.4,3.1c1.4,0.5,4.7,2.8,4.7,2.8s-8.7-2.3-10.9-2.8C214.4,146.6,211.9,147.3,210.9,148.1z"/>
								<path id="XMLID_301_" class="st7" d="M311.8,207.1c24.8,15.3,47.2,29.7,47.2,29.7s12.5-15.4,16-24.1
									c1.9-4.6,3.6-11.5,4.7-16.9c-16.3-4.6-40-11.5-52.2-16.5C322.8,190.8,315.1,202.3,311.8,207.1z"/>
							</g>
						</g>
						<g id="XMLID_195_">
							<path id="XMLID_221_" class="st9" d="M292.3,167.8c-0.9,0.1-1.8,0.5-1.8,0.5s-0.1-0.6-0.3-1.3c-0.3,1-0.6,1.9-1,2.7
								c-2.4,4.8-10.8,17.2-10.8,17.2s9.9-8.5,12.4-14C291.5,171.5,292,169.7,292.3,167.8z"/>
							<g id="XMLID_207_">
								<path id="XMLID_220_" class="st9" d="M277.2,159.9l-1.2,2.5c0,0,0.5,0.1,1.2,0.2c0.3-0.8,0.7-1.8,1-2.7
									C277.6,159.9,277.2,159.9,277.2,159.9z"/>
								<path id="XMLID_219_" class="st9" d="M274.5,165.9l-2.1,3.8c0,0,0.2,0.7,0.5,1.5c0.7-1.2,1.4-2.4,2-3.4
									C274.7,166.7,274.5,165.9,274.5,165.9z"/>
								<path id="XMLID_218_" class="st9" d="M271.4,171.1l-1.9,3.3c0,0,0.3,0.5,0.7,1.2c0.6-1,1.3-2,1.9-3
									C271.6,171.8,271.4,171.1,271.4,171.1z"/>
								<path id="XMLID_217_" class="st9" d="M276.1,165.3c0.2-0.4,0.4-0.9,0.6-1.5c-0.5-0.1-0.9-0.2-0.9-0.2l-0.6,1.5
									c0,0,0.2,0.5,0.4,1.2C275.9,166,276,165.6,276.1,165.3z"/>
							</g>
							<g id="XMLID_200_">
								<path id="XMLID_206_" class="st9" d="M280.8,152.7c-0.3,0-0.4-0.1-0.4-0.1l-0.7,1.2l-0.4,1.4c0.2,0,0.4,0.1,0.6,0.1
									C280.2,154.3,280.6,153.4,280.8,152.7z"/>
							</g>
							<path id="XMLID_199_" class="st18" d="M290.2,166.9c-0.3-1-0.9-2.4-1.7-2.7c-0.7-0.3-1.3-0.4-1.8-0.4c-0.2,1.4-0.6,2.8-1,4.1
								c-1.4,4.1-10.8,16.9-10.8,16.9s1.1,1.2,1.7,1.6c0.7,0.4,1.8,0.5,1.8,0.5s8.3-12.5,10.8-17.2
								C289.6,168.8,289.9,167.9,290.2,166.9z"/>
							<path id="XMLID_198_" class="st19" d="M290.2,166.9c1.4-5.1,1.4-12,1.4-12s-1.7-1.4-2.4-1.7c-0.7-0.3-1.9-0.1-1.9-0.1
								s0.3,5.2-0.6,10.6c0.5,0,1.2,0.1,1.8,0.4C289.3,164.5,289.9,165.9,290.2,166.9z"/>
							<path id="XMLID_197_" class="st19" d="M294.7,155.7c-0.7-0.2-1.6-0.1-1.6-0.1s0.2,6.6-0.8,12.2c0.3,0,0.6,0,0.9,0
								c0.5,0.1,1.2,1.3,1.7,2.4c0.8-5.3,1.7-13.3,1.7-13.3S295.4,155.9,294.7,155.7z"/>
							<path id="XMLID_196_" class="st18" d="M293.2,167.8c-0.3-0.1-0.6-0.1-0.9,0c-0.3,1.9-0.8,3.7-1.4,5.1
								c-2.5,5.5-12.4,14-12.4,14s0.9,1.3,1.3,1.5c0.5,0.2,2,0.5,2,0.5s11.7-11.4,12.6-15.4c0.2-0.8,0.4-2,0.6-3.3
								C294.4,169.1,293.8,167.9,293.2,167.8z"/>
						</g>
						<path id="XMLID_194_" class="st18" d="M231.2,138.7c0,0,2-4,3-5.2c1.1-1.2,5.8-4,5.8-4s-0.8-0.6-1.2-0.8c-0.4-0.2-1-0.1-1-0.1
							s-4.1,2.4-5.2,3.3c-1,0.9-3.4,5.9-3.4,5.9S230.1,138.6,231.2,138.7z"/>
						<g id="XMLID_191_">
							<path id="XMLID_193_" class="st16" d="M230.6,133.1c0.1-0.1,0.3-0.3,0.3-0.3s0.9,0.4,1.7,0.5c0,0,0.5-0.3,0.7-0.5
								c0,0-0.7-0.4-0.8-0.5c-0.2-0.1-0.5-0.4-0.5-0.4s0.2-0.3,0.3-0.4c0.1-0.1,0.5-0.3,0.5-0.3s0.3,0.4,0.4,0.5
								c0.1,0.2,0.4,0.9,0.4,0.9s0.3-0.4,0.4-0.6c0.1-0.2,0.2-0.4,0.2-0.4s0-0.9-0.1-1.2c0,0,0.1-0.2,0.2-0.3c0-0.1,0.2-0.2,0.2-0.2
								l-1-0.4c0,0-1.7,0.4-2.2,1c-0.5,0.6-1,1.7-1,1.7c0,0.4,0.2,1.2,0.2,1.2S230.6,133.2,230.6,133.1z"/>
							<path id="XMLID_192_" class="st20" d="M233.9,132.9c0.1-0.2,0.5-0.8,0.5-0.8c0.2-1.2,0.1-2.1,0.1-2.1s-0.2,0.2-0.2,0.2
								c0,0.1-0.2,0.3-0.2,0.3c0.1,0.3,0.1,1.2,0.1,1.2s-0.1,0.2-0.2,0.4c-0.1,0.2-0.4,0.6-0.4,0.6s-0.3-0.7-0.4-0.9
								c-0.1-0.2-0.4-0.5-0.4-0.5s-0.4,0.2-0.5,0.3c-0.1,0.1-0.3,0.4-0.3,0.4s0.3,0.3,0.5,0.4c0.2,0.1,0.8,0.5,0.8,0.5
								c-0.1,0.1-0.7,0.5-0.7,0.5c-0.8-0.1-1.7-0.5-1.7-0.5s-0.3,0.2-0.3,0.3c-0.1,0.1-0.2,0.4-0.2,0.4c0.9,0.2,2.7,0,2.7,0
								S233.7,133.1,233.9,132.9z"/>
						</g>
					</g>
					<path id="XMLID_269_" class="st13" d="M415.6,194.5l-79-27c-0.7,17.3-21.3,44.9-21.3,44.9l37.2,28.1l32.8,15.3L415.6,194.5z"/>
				</g>
				<g id="XMLID_179_">
					<path id="XMLID_202_" class="st21" d="M16.9,227.7c0,0,13.7-23.7-20.9-48l-8.7,24.8L16.9,227.7z"/>
					<g id="XMLID_153_">
						<g id="XMLID_177_">
							<path id="XMLID_189_" class="st22" d="M134.6,145.4c-1,0.2-5.5,1.4-7.4,1.9c-1.8,0.5-8.3,1.6-8.3,1.6s2.9-1.5,4.6-2.2
								c1.7-0.7,10.1-3.9,10.1-3.9s4.5,0.8,5.8,2.1c1.3,1.3,0.9,7.6,0.9,7.6s-2-4.6-2.6-5.4C137.2,146.3,135.6,145.2,134.6,145.4z"
								/>
							<path id="XMLID_188_" class="st22" d="M126.8,136.7c-1.8,0.1-8.9,1.8-8.9,1.8c-1.9,0.3-8.1,1.2-8.1,1.2s3.4-1.7,5.3-2.5
								c1.9-0.8,10-3.3,10-3.3s4.3,1,6.1,2.3c1.8,1.4,2.3,6.6,2.3,6.6C131.3,139.7,128.6,136.6,126.8,136.7z"/>
							<path class="st22" d="M123.8,128.3c-1.3-0.6-2.9-1.8-7.9,0.3c-5,2-23.7,9.2-26.4,11.7c-2.7,2.5-11.5,14.1-15.4,15.8
								c-1.5,0.7-5.2,2.1-9.1,3.5c-5.9,2.2-12.3,4.4-12.3,4.4c-6.7,2.4-81,25.5-81,25.5s0.5,3.6,1.3,8.3c18.6-4.4,46.7-11.5,57-16
								c6.7-2.9,15.2-6.6,22.8-9.8c2.6-1.1,5.1-2.1,7.3-3.1c6.9-2.9,11.9-5,11.9-5l0,0v0c3.4-2.9,8.2-7,9.7-8.9
								c1.8-2.3,9.5-12.4,13.5-14.4c4-2,20.6-10.1,23.2-10.9c1.4-0.4,3.9-0.8,5.9-1C124.1,128.6,124,128.4,123.8,128.3z"/>
							<path id="XMLID_181_" class="st22" d="M143.6,156.7c-1-0.8-3.5-1.6-5.7-1.3c-2.2,0.4-11,2.4-11,2.4s3.4-2.2,4.8-2.6
								c1.4-0.4,8.5-2.8,8.5-2.8s5.6,1.6,6.6,3.9c1,2.2,0.5,5.4-0.1,6.9C146.5,159.8,144.6,157.5,143.6,156.7z"/>
							<path id="XMLID_180_" class="st22" d="M111.2,181.3c0,0,6.7-2.1,9.6-3.7c3-1.6,12.6-6.1,12.6-6.1s-0.9,3-2.1,6
								c-3.4,1.3-7.6,2.9-8.8,3.1C120.3,181,111.2,181.3,111.2,181.3z"/>
							<g id="XMLID_204_">
								<path id="XMLID_211_" class="st23" d="M21.2,222.6c13.7-7.9,30.3-17.2,45.3-25.3c0,0,2.7-1.5,6.2-3.4
									c4.3-2.4,9.9-5.3,13.2-6.9c1.2-0.6,2.1-0.9,2.5-1c2.6-0.4,14.1,4,18.7,3.3c4.6-0.7,19.2-2.9,21.5-6.1c1-1.3,2-3.5,2.8-5.7
									c-3.4,1.3-7.6,2.9-8.8,3.1c-2.3,0.4-11.3,0.6-11.3,0.6s6.7-2.1,9.6-3.7c3-1.6,12.6-6.1,12.6-6.1s12.6-6.7,13.2-8
									c0-0.1,0.1-0.2,0.1-0.2c-0.3-3.4-2.2-5.7-3.2-6.5c-1-0.8-3.5-1.6-5.7-1.3c-2.2,0.4-11,2.4-11,2.4s3.4-2.2,4.8-2.6
									c1.4-0.4,8.5-2.8,8.5-2.8s-2-4.6-2.6-5.4c-0.5-0.8-2.1-1.9-3.1-1.7c-1,0.2-5.5,1.4-7.4,1.9c-1.8,0.5-8.3,1.6-8.3,1.6
									s2.9-1.5,4.6-2.2c1.7-0.7,10.1-3.9,10.1-3.9c-2.3-3-5-6.2-6.8-6c-1.8,0.1-8.9,1.8-8.9,1.8c-1.9,0.3-8.1,1.2-8.1,1.2
									s3.4-1.7,5.3-2.5c1.9-0.8,10-3.3,10-3.3s-0.1-3.6-0.9-5c-2,0.3-4.5,0.6-5.9,1c-2.6,0.7-19.2,8.9-23.2,10.9
									c-4,2-11.7,12.1-13.5,14.4c-1.1,1.3-3.9,3.9-6.7,6.3c-1,0.9-2.1,1.8-3,2.6c0,0-5,2.1-11.9,5c-2.3,1-4.7,2-7.3,3.1
									c-7.6,3.2-16.1,6.8-22.8,9.8c-5.4,2.4-15.9,5.5-27.3,8.6C5.9,206.4,16.9,218.4,21.2,222.6z"/>
								<path id="XMLID_212_" class="st22" d="M-23.6,213l3.3,7.6c4.7,8.6,12.3,18.8,12.3,18.8s12.4-7.3,29.1-16.9
									c-4.3-4.2-15.3-16.3-18.6-32.3c-10.1,2.7-20.9,5.4-29.7,7.5C-26.2,202.5-25,208.5-23.6,213z"/>
							</g>
						</g>
						<g id="XMLID_154_">
							<path id="XMLID_176_" class="st18" d="M83.3,180.3c0,0,1.1,2.9,1.5,3.8c0.3,0.9,0.9,3,0.9,3s0.5,0.1,0.8-0.1
								c0.3-0.1,0.5-0.5,0.5-0.5s-0.6-2.1-0.9-3c-0.3-0.9-1.4-3.8-1.4-3.8L83.3,180.3z"/>
							<path id="XMLID_173_" class="st18" d="M75.5,161.8l1.5-0.3c0,0-0.9-1.7-1.6-3.1c-0.3-0.6-1.7-2.2-1.7-2.2s-0.5,0-0.7,0.1
								c-0.2,0.1-0.6,0.5-0.6,0.5s1.1,1.5,1.6,2.2C74.4,159.6,75.5,161.8,75.5,161.8z"/>
							<g id="XMLID_170_">
								<path id="XMLID_172_" class="st16" d="M74.4,162.9c0,0,1.9,5.3,3.6,8.8c1.5,3.1,4.3,8.1,5.1,9.4c0.4-0.1,0.8-0.1,1.2-0.3
									c0.9-0.4,2.1-1.3,2.1-1.3s-1.4-6.3-3.3-10.2c-1.3-2.7-3.4-6-4.7-7.7c-0.9,0.1-2.1,0.2-2.5,0.3
									C75.3,162.1,74.4,162.9,74.4,162.9z"/>
								<path id="XMLID_171_" class="st24" d="M75.3,160.5c-0.9,0.3-2.5,1.5-2.5,1.5s3.1,7.2,4.4,9.7c1.3,2.5,4.9,9.6,4.9,9.6
									s0.5,0,1.1-0.1c-0.8-1.4-3.6-6.4-5.1-9.4c-1.7-3.6-3.6-8.8-3.6-8.8s1-0.7,1.6-1c0.4-0.1,1.5-0.3,2.5-0.3
									c-0.6-0.8-1-1.3-1-1.3S76.2,160.2,75.3,160.5z"/>
							</g>
							<path id="XMLID_156_" class="st18" d="M83.1,179.6c0.2,0.3,0.7,0.4,1,0.2c0.3-0.2,0.5-0.7,0.4-1.1c-0.2-0.5-0.8-0.5-1.1-0.4
								C83,178.3,82.8,179.2,83.1,179.6z"/>
							<path id="XMLID_155_" class="st18" d="M76.2,161.3c-0.4,0-0.7,0.4-0.7,0.8c0,0.4,0.3,0.8,0.7,0.9c0.5,0.1,0.8-0.4,1-0.7
								C77.3,162,76.7,161.3,76.2,161.3z"/>
						</g>
					</g>
					<path id="XMLID_203_" class="st25" d="M16.9,227.7c0,0-24.2-20.7-20.9-48l-16.1,1.2l-20.7,9.8l23.8,54.7l21.4-9.5L16.9,227.7z"
						/>
				</g>
				<g id="XMLID_157_">
					<path id="XMLID_208_" class="st26" d="M197.6,250.7c0,0-17.1-18.4-48.7,1.5l25.8,17.5L197.6,250.7z"/>
					<path id="XMLID_168_" class="st27" d="M193.6,236.8c0,0-15.9-22.6-41.8,1.3l17.3,19.2L193.6,236.8z"/>
					<g id="XMLID_214_">
						<g id="XMLID_319_">
							<path id="XMLID_333_" class="st7" d="M174,168.6c-0.3,1-1.2,5.9-1.6,7.8c-0.4,1.9-2.2,8.5-2.2,8.5s-0.1-3.4,0-5.3
								c0.1-1.9,0.9-11.3,0.9-11.3s2.8-3.9,4.7-4.5c1.8-0.7,7.5,2.6,7.5,2.6s-5.3-0.2-6.2,0C176.1,166.6,174.4,167.6,174,168.6z"/>
							<path id="XMLID_332_" class="st7" d="M162.3,172.1c-0.7,1.8-2.4,9.1-2.4,9.1c-0.6,1.9-2.6,8.2-2.6,8.2s-0.1-4,0.1-6.2
								c0.1-2.2,1.5-11,1.5-11s2.9-3.6,5-4.7c2.1-1,7.2,0.8,7.2,0.8C167.2,169.1,163,170.3,162.3,172.1z"/>
							<path class="st7" d="M162.9,236.1c-1.2-4.6-2.9-11-3.9-13.2c-1.3-2.8-7.3-14.6-7.4-19.3c0-4.7-0.2-24,0.3-26.8
								c0.3-1.5,1.1-4,1.7-6c-0.3,0-0.5,0.1-0.7,0.2c-1.2,0.9-3,1.9-3.3,7.6c-0.4,5.7-2.2,26.5-1,30.2c1.2,3.7,8,17.3,7.8,21.7
								c-0.1,1.8-0.4,5.8-0.9,10.1c-0.7,6.5-1.5,13.6-1.5,13.6c-0.8,7.3-13,87.9-13,87.9s3.6,1.2,8.4,2.6
								c4.3-19.5,10.5-49.2,10.9-60.9c0.3-7.6,0.7-17.3,1.2-25.9c0.2-2.9,0.3-5.7,0.4-8.3C162.6,241.7,162.9,236.1,162.9,236.1
								L162.9,236.1L162.9,236.1z"/>
							<path id="XMLID_325_" class="st7" d="M188.8,165.4c-1.2,0.6-3.2,2.6-3.8,4.8c-0.7,2.2-2.8,11.4-2.8,11.4s-0.5-4.2-0.3-5.8
								c0.2-1.5,1.3-9.3,1.3-9.3s4.1-4.5,6.7-4.4c2.5,0.1,5.3,2,6.4,3.3C193,164,190,164.8,188.8,165.4z"/>
							<path id="XMLID_324_" class="st7" d="M197.1,207.1c0,0,1-7.2,0.9-10.8c-0.1-3.5,0-14.7,0-14.7s2.4,2.2,4.7,4.7
								c-0.3,3.9-0.7,8.4-1.1,9.7C201,198.4,197.1,207.1,197.1,207.1z"/>
							<g id="XMLID_320_">
								<g id="XMLID_169_">
									<path id="XMLID_215_" class="st8" d="M191,232.9c0-1,0.1-1.8,0.2-2.1c0.8-2.6,10.2-11.4,11.6-16.1c1.4-4.7,6-19.4,4.1-23
										c-0.8-1.5-2.4-3.5-4.1-5.2c-0.3,3.9-0.7,8.4-1.1,9.7c-0.7,2.3-4.6,11-4.6,11s1-7.2,0.9-10.8c-0.1-3.5,0-14.7,0-14.7
										s-0.6-14.9-1.5-16.1c0-0.1-0.1-0.1-0.2-0.2c-3.4-1.3-6.4-0.5-7.5,0c-1.2,0.6-3.2,2.6-3.8,4.8c-0.7,2.2-2.8,11.4-2.8,11.4
										s-0.5-4.2-0.3-5.8c0.2-1.5,1.3-9.3,1.3-9.3s-5.3-0.2-6.2,0c-1,0.2-2.7,1.1-3,2.2c-0.3,1-1.2,5.9-1.6,7.8
										c-0.4,1.9-2.2,8.5-2.2,8.5s-0.1-3.4,0-5.3c0.1-1.9,0.9-11.3,0.9-11.3c-3.9,0.7-8.1,1.9-8.8,3.7c-0.7,1.8-2.4,9.1-2.4,9.1
										c-0.6,1.9-2.6,8.2-2.6,8.2s-0.1-4,0.1-6.2c0.1-2.2,1.5-11,1.5-11s-3.4-1.5-5.1-1.4c-0.7,2-1.5,4.5-1.7,6
										c-0.5,2.8-0.4,22.1-0.3,26.8c0,4.7,6.1,16.5,7.4,19.3c0.8,1.6,1.9,5.5,2.9,9.2c0.4,1.4,0.7,2.7,1,3.9
										C176,237.7,186.6,234.6,191,232.9z"/>
									<path id="XMLID_216_" class="st7" d="M162.1,249.6c-0.1,2.6-0.3,5.4-0.4,8.3c-0.4,8.6-0.9,18.2-1.2,25.9
										c-0.2,6.2-2.1,17.5-4.4,29.6c16.6,4.2,33-0.6,38.9-2.8c-1.1-16.5-2.4-36.4-3.2-54.1c0,0-0.2-3.2-0.4-7.4
										c-0.3-5.1-0.5-11.7-0.5-15.5c0-0.3,0-0.5,0-0.7c-4.4,1.7-14.9,4.9-28.1,3.1c0,0,0,0.1,0,0.1
										C162.9,236.1,162.6,241.7,162.1,249.6z"/>
								</g>
							</g>
						</g>
					</g>
					<g id="XMLID_213_">
						<path id="XMLID_296_" class="st16" d="M194.7,247.8l-1.2-11c0,0-18.7,9.3-41.8,1.3l-1.2,10.8
							C171.1,255.4,188.4,250.2,194.7,247.8z"/>
						<path id="XMLID_302_" class="st27" d="M200.4,355.3l-4.2-93l-1.5-14.4c-6.3,2.4-23.6,7.6-44.2,1.1l-11.4,100.7L200.4,355.3z"
							/>
					</g>
					<path id="XMLID_209_" class="st28" d="M197.6,250.7c0,0-21.8,10.9-48.7,1.5L134.2,382l71.4,6.6l-4.9-108.3L197.6,250.7z"/>
				</g>
			</g>
		</g>
	</g>
</g>
</svg>
