<svg xmlns="http://www.w3.org/2000/svg" viewBox="0 0 712.93 119.4"><defs><style>.cls-1{fill:#fff;}</style></defs><title>1</title><g id="Capa_2" data-name="Capa 2"><g id="Layer_1" data-name="Layer 1"><path class="cls-1" d="M27.23,11.42V43.86a.77.77,0,0,0,.79.79H38a1.63,1.63,0,0,1,1.64,1.63V48.7A1.63,1.63,0,0,1,38,50.33H23.16a1.63,1.63,0,0,1-1.64-1.63V11.42a1.63,1.63,0,0,1,1.64-1.63h2.43A1.63,1.63,0,0,1,27.23,11.42Z"/><path class="cls-1" d="M47.14,50.22H44.25a1.23,1.23,0,0,1-1-.45A1.42,1.42,0,0,1,43,48.7l7-37.62a1.6,1.6,0,0,1,1.59-1.29h6.39a1.7,1.7,0,0,1,1.64,1.29L66.87,48.7a1.38,1.38,0,0,1-.28,1.07,1.23,1.23,0,0,1-1,.45H62.74a1.7,1.7,0,0,1-1.64-1.3l-.62-3.2a.78.78,0,0,0-.79-.68H50.08a.78.78,0,0,0-.79.68l-.57,3.2A1.59,1.59,0,0,1,47.14,50.22Zm7.91-32.34a.36.36,0,0,0-.34-.28.27.27,0,0,0-.28.28l-3.9,21.2c0,.12,0,.23.06.28a.41.41,0,0,0,.28.12h8a.41.41,0,0,0,.28-.12c.06,0,.06-.16.06-.28l-4.13-21.2Z"/><path class="cls-1" d="M103.8,40.15A10.83,10.83,0,0,1,93,50.33h-.34A10.84,10.84,0,0,1,81.81,40c-.17-3.32-.23-6.69-.23-10s.06-6.63.23-10A10.78,10.78,0,0,1,92.61,9.84H93A10.83,10.83,0,0,1,103.8,20c.17,3.32.29,6.69.29,10s-.12,6.69-.29,10ZM92.66,15.52a5.15,5.15,0,0,0-5.14,4.95c-.17,3.21-.23,6.47-.23,9.67s.06,6.47.23,9.67a5.15,5.15,0,0,0,5.14,4.95H93a5.2,5.2,0,0,0,5.21-4.89c.17-3.2.28-6.47.28-9.73s-.11-6.52-.28-9.72A5.21,5.21,0,0,0,93,15.52Z"/><path class="cls-1" d="M114,37.85a.76.76,0,0,0-.79.78v10a1.64,1.64,0,0,1-1.64,1.63h-2.43a1.63,1.63,0,0,1-1.64-1.63V11.36a1.63,1.63,0,0,1,1.64-1.63h12.21A7.56,7.56,0,0,1,129,16.59c.17,2.08.28,4.22.28,6.3A75.6,75.6,0,0,1,129,31a7.53,7.53,0,0,1-3.68,5.79.77.77,0,0,0-.39.9l3.9,10.4a1.8,1.8,0,0,1-.17,1.52,1.56,1.56,0,0,1-1.3.73h-2.6a1.61,1.61,0,0,1-1.53-1l-4.13-10.91a.77.77,0,0,0-.73-.56H114Zm-.79-6.47a.77.77,0,0,0,.79.79h7.35a2,2,0,0,0,2-1.75q.34-3.71.34-7.42c0-2-.11-3.93-.28-5.9a2,2,0,0,0-2-1.75H114.1a.79.79,0,0,0-.85.85Z"/><path class="cls-1" d="M153.8,49.88a1.59,1.59,0,0,1-1.13.45h-9a10.78,10.78,0,0,1-10.8-10.23c-.17-3.32-.28-6.7-.28-10s.11-6.69.28-10a10.78,10.78,0,0,1,10.8-10.24h9a1.65,1.65,0,0,1,1.64,1.63v2.42a1.55,1.55,0,0,1-.46,1.13,1.57,1.57,0,0,1-1.13.45h-9a5.19,5.19,0,0,0-5.21,4.89c-.17,3.2-.28,6.47-.28,9.67s.11,6.47.28,9.67a5.19,5.19,0,0,0,5.21,4.89h4.18a.76.76,0,0,0,.79-.78V33.63a.77.77,0,0,0-.79-.79h-2.37a1.63,1.63,0,0,1-1.64-1.63V28.79a1.63,1.63,0,0,1,1.64-1.63h7.23a1.63,1.63,0,0,1,1.64,1.63V48.64a1.59,1.59,0,0,1-.45,1.13Z"/><path class="cls-1" d="M161.94,50.22h-2.88a1.2,1.2,0,0,1-1-.45,1.38,1.38,0,0,1-.28-1.07l7-37.62a1.58,1.58,0,0,1,1.58-1.29h6.39a1.69,1.69,0,0,1,1.64,1.29l7.3,37.62a1.42,1.42,0,0,1-.28,1.07,1.23,1.23,0,0,1-1,.45h-2.89a1.7,1.7,0,0,1-1.64-1.3l-.62-3.2a.8.8,0,0,0-.79-.68h-9.62a.8.8,0,0,0-.79.68l-.56,3.2A1.6,1.6,0,0,1,161.94,50.22Zm7.92-32.34a.37.37,0,0,0-.34-.28.27.27,0,0,0-.28.28l-3.9,21.2c0,.12,0,.23,0,.28a.43.43,0,0,0,.29.12h8a.43.43,0,0,0,.28-.12s0-.16,0-.28l-4.12-21.2Z"/><path class="cls-1" d="M200,33.12a.28.28,0,0,0,.39.17.36.36,0,0,0,.29-.34V11.31a1.63,1.63,0,0,1,1.64-1.63h2.43a1.54,1.54,0,0,1,1.13.45,1.56,1.56,0,0,1,.45,1.12V48.53a1.63,1.63,0,0,1-1.64,1.63h-2.77a1.53,1.53,0,0,1-1.47-1l-8.93-22a.29.29,0,0,0-.4-.17.35.35,0,0,0-.28.34V48.59a1.64,1.64,0,0,1-1.64,1.63h-2.44a1.63,1.63,0,0,1-1.63-1.63V11.36a1.63,1.63,0,0,1,1.63-1.63h2.61a1.54,1.54,0,0,1,1.47,1l9,22.38Z"/><path class="cls-1" d="M211.15,50.22a1.63,1.63,0,0,1-1.64-1.63V11.36a1.63,1.63,0,0,1,1.64-1.63h2.43a1.64,1.64,0,0,1,1.64,1.63V48.59a1.64,1.64,0,0,1-1.64,1.63Z"/><path class="cls-1" d="M237.84,9.84a1.59,1.59,0,0,1,1.13.45,1.6,1.6,0,0,1,.45,1.13v2.25a3.28,3.28,0,0,1-.28,1.29L225.57,44.14a.34.34,0,0,0,0,.34.31.31,0,0,0,.28.17h12a1.64,1.64,0,0,1,1.64,1.63V48.7a1.64,1.64,0,0,1-1.64,1.63H220.25a1.64,1.64,0,0,1-1.64-1.63V46.45a3.28,3.28,0,0,1,.28-1.29L232.47,16a.38.38,0,0,0,0-.33.31.31,0,0,0-.29-.17h-12a1.64,1.64,0,0,1-1.64-1.63V11.42a1.64,1.64,0,0,1,1.64-1.63h17.59Z"/><path class="cls-1" d="M246.89,50.22H244a1.23,1.23,0,0,1-1-.45,1.42,1.42,0,0,1-.28-1.07l7-37.62a1.58,1.58,0,0,1,1.58-1.29h6.39a1.7,1.7,0,0,1,1.64,1.29l7.3,37.62a1.43,1.43,0,0,1-.29,1.07,1.2,1.2,0,0,1-1,.45H262.5a1.7,1.7,0,0,1-1.64-1.3l-.63-3.2a.78.78,0,0,0-.79-.68h-9.61a.78.78,0,0,0-.79.68l-.57,3.2A1.59,1.59,0,0,1,246.89,50.22Zm7.92-32.34a.37.37,0,0,0-.34-.28.28.28,0,0,0-.29.28l-3.9,21.2c0,.12,0,.23.06.28a.43.43,0,0,0,.28.12h8a.41.41,0,0,0,.28-.12c.06,0,.06-.16.06-.28l-4.13-21.2Z"/><path class="cls-1" d="M286.59,49.88a1.59,1.59,0,0,1-1.13.45h-5.94a10.85,10.85,0,0,1-10.8-9.84c-.28-3.43-.45-6.92-.45-10.4s.17-7,.45-10.41a10.85,10.85,0,0,1,10.8-9.84h5.94a1.65,1.65,0,0,1,1.64,1.63v2.42a1.64,1.64,0,0,1-1.64,1.63h-5.94a5.17,5.17,0,0,0-5.2,4.67c-.28,3.26-.4,6.58-.4,9.84s.12,6.58.4,9.84a5.17,5.17,0,0,0,5.2,4.67h5.94a1.64,1.64,0,0,1,1.64,1.63v2.42a1.56,1.56,0,0,1-.45,1.12Z"/><path class="cls-1" d="M292.13,50.22a1.64,1.64,0,0,1-1.64-1.63V11.36a1.64,1.64,0,0,1,1.64-1.63h2.43a1.64,1.64,0,0,1,1.65,1.63V48.59a1.64,1.64,0,0,1-1.65,1.63Z"/><path class="cls-1" d="M321.76,20.08c.17,3.32.29,6.69.29,10s-.12,6.69-.29,10a10.81,10.81,0,0,1-10.85,10.12h-.34A10.78,10.78,0,0,1,299.77,40c-.17-3.31-.23-6.69-.23-10s.06-6.63.23-9.95a10.78,10.78,0,0,1,10.8-10.23h.34A10.81,10.81,0,0,1,321.76,20Zm-5.65,19.68c.17-3.21.28-6.47.28-9.67s-.11-6.47-.28-9.67a5.2,5.2,0,0,0-5.2-4.9h-.34a5.17,5.17,0,0,0-5.15,4.95c-.17,3.21-.22,6.47-.22,9.67s.05,6.47.22,9.67a5.16,5.16,0,0,0,5.15,4.95h.34a5.19,5.19,0,0,0,5.2-4.89ZM307.46,7.09a1.42,1.42,0,0,1,.17-2L313.17.34a1.45,1.45,0,0,1,2,.17,1.43,1.43,0,0,1-.17,2l-5.55,4.73A1.44,1.44,0,0,1,307.46,7.09Z"/><path class="cls-1" d="M340.32,33.12a.28.28,0,0,0,.39.17A.35.35,0,0,0,341,33V11.31a1.64,1.64,0,0,1,1.64-1.63h2.44a1.54,1.54,0,0,1,1.58,1.57V48.53A1.64,1.64,0,0,1,345,50.16h-2.77a1.52,1.52,0,0,1-1.47-1l-8.94-22a.28.28,0,0,0-.39-.17.35.35,0,0,0-.28.34V48.59a1.64,1.64,0,0,1-1.65,1.63h-2.43a1.64,1.64,0,0,1-1.64-1.63V11.36a1.64,1.64,0,0,1,1.64-1.63h2.6a1.55,1.55,0,0,1,1.48,1l9,22.38Z"/><path class="cls-1" d="M363.05,50.27a1.64,1.64,0,0,1-1.64-1.63V11.36a1.64,1.64,0,0,1,1.64-1.63h15a1.57,1.57,0,0,1,1.13.45,1.55,1.55,0,0,1,.46,1.13v2.41A1.64,1.64,0,0,1,378,15.35H367.86a.79.79,0,0,0-.85.85V26.38a.76.76,0,0,0,.79.78h7.92a1.54,1.54,0,0,1,1.58,1.58v2.41a1.64,1.64,0,0,1-1.64,1.64h-7.91a.86.86,0,0,0-.63.22.83.83,0,0,0-.22.62V43.81a.76.76,0,0,0,.79.78h10.18a1.54,1.54,0,0,1,1.58,1.58v2.42a1.63,1.63,0,0,1-1.64,1.63h-15Z"/><path class="cls-1" d="M404.73,40.49A10.77,10.77,0,0,1,394,50.16h-9.5a1.63,1.63,0,0,1-1.64-1.63V11.31a1.54,1.54,0,0,1,1.58-1.58h9.5a10.77,10.77,0,0,1,10.74,9.67,101,101,0,0,1,0,21.15ZM388.5,43.86a.77.77,0,0,0,.79.79H394A5.19,5.19,0,0,0,399.13,40a97.9,97.9,0,0,0,0-20A5.2,5.2,0,0,0,394,15.35h-4.7a.77.77,0,0,0-.79.79Z"/><path class="cls-1" d="M429.61,39.42A10.62,10.62,0,0,1,419.44,50.1a10.49,10.49,0,0,1-10.86-10.4V11.31a1.63,1.63,0,0,1,1.64-1.63h2.43a1.64,1.64,0,0,1,1.64,1.63V39.53a4.93,4.93,0,0,0,4.52,5,4.7,4.7,0,0,0,3.62-1.24A4.88,4.88,0,0,0,424,39.76V11.36a1.64,1.64,0,0,1,1.64-1.63H428a1.63,1.63,0,0,1,1.64,1.63V39.53Z"/><path class="cls-1" d="M451.33,49.88a1.59,1.59,0,0,1-1.13.45h-5.94a10.85,10.85,0,0,1-10.8-9.84c-.28-3.43-.45-6.92-.45-10.4s.17-7,.45-10.41a10.86,10.86,0,0,1,10.8-9.84h5.94a1.64,1.64,0,0,1,1.64,1.63v2.42a1.63,1.63,0,0,1-1.64,1.63h-5.94a5.18,5.18,0,0,0-5.2,4.67c-.28,3.26-.39,6.58-.39,9.84s.11,6.58.39,9.84a5.18,5.18,0,0,0,5.2,4.67h5.94a1.63,1.63,0,0,1,1.64,1.63v2.42a1.56,1.56,0,0,1-.45,1.12Z"/><path class="cls-1" d="M459.36,50.22h-2.88a1.21,1.21,0,0,1-1-.45,1.38,1.38,0,0,1-.28-1.07l6.95-37.62a1.58,1.58,0,0,1,1.59-1.29h6.39a1.7,1.7,0,0,1,1.64,1.29L479.1,48.7a1.42,1.42,0,0,1-.28,1.07,1.23,1.23,0,0,1-1,.45H475a1.7,1.7,0,0,1-1.64-1.3l-.62-3.2a.8.8,0,0,0-.79-.68H462.3a.8.8,0,0,0-.79.68l-.56,3.2A1.6,1.6,0,0,1,459.36,50.22Zm7.92-32.34a.37.37,0,0,0-.34-.28.27.27,0,0,0-.28.28l-3.9,21.2c0,.12,0,.23.05.28a.43.43,0,0,0,.29.12h8a.43.43,0,0,0,.28-.12c.06,0,.06-.16.06-.28l-4.13-21.2Z"/><path class="cls-1" d="M479.1,15.41a1.64,1.64,0,0,1-1.64-1.63V11.36a1.64,1.64,0,0,1,1.64-1.63h19.4a1.54,1.54,0,0,1,1.58,1.58v2.41a1.63,1.63,0,0,1-1.64,1.63h-6.05a.86.86,0,0,0-.62.23.84.84,0,0,0-.23.62V48.64a1.63,1.63,0,0,1-1.64,1.63h-2.43a1.64,1.64,0,0,1-1.64-1.63V16.2a.77.77,0,0,0-.79-.79H479.1Z"/><path class="cls-1" d="M505.06,50.22a1.64,1.64,0,0,1-1.64-1.63V11.36a1.64,1.64,0,0,1,1.64-1.63h2.43a1.63,1.63,0,0,1,1.64,1.63V48.59a1.63,1.63,0,0,1-1.64,1.63Z"/><path class="cls-1" d="M530.68,11a1.58,1.58,0,0,1,1.58-1.3h2.89a1.23,1.23,0,0,1,1,.45,1.42,1.42,0,0,1,.28,1.07l-7,37.62a1.58,1.58,0,0,1-1.58,1.29h-6.39a1.7,1.7,0,0,1-1.64-1.29l-7.35-37.62a1.42,1.42,0,0,1,.28-1.07,1.23,1.23,0,0,1,1-.45h2.89a1.69,1.69,0,0,1,1.64,1.3l6,31.09a.35.35,0,0,0,.34.28.26.26,0,0,0,.28-.28l5.71-31Z"/><path class="cls-1" d="M536.5,50.22h-2.88a1.23,1.23,0,0,1-1-.45,1.38,1.38,0,0,1-.28-1.07l7-37.62a1.59,1.59,0,0,1,1.59-1.29h6.39A1.7,1.7,0,0,1,549,11.08l7.29,37.62a1.42,1.42,0,0,1-.28,1.07,1.23,1.23,0,0,1-1,.45h-2.89a1.7,1.7,0,0,1-1.64-1.3l-.62-3.2a.79.79,0,0,0-.79-.68h-9.61a.8.8,0,0,0-.8.68l-.56,3.2A1.59,1.59,0,0,1,536.5,50.22Zm7.92-32.34a.36.36,0,0,0-.34-.28.27.27,0,0,0-.28.28l-3.9,21.2c0,.12,0,.23.06.28a.39.39,0,0,0,.28.12h8a.43.43,0,0,0,.28-.12c.06,0,.06-.16.06-.28l-4.13-21.2Z"/><path class="cls-1" d="M572.64,15.41A1.64,1.64,0,0,1,571,13.78V11.36a1.64,1.64,0,0,1,1.64-1.63H592a1.54,1.54,0,0,1,1.58,1.58v2.41A1.63,1.63,0,0,1,592,15.35h-6.05a.86.86,0,0,0-.62.23.84.84,0,0,0-.23.62V48.64a1.63,1.63,0,0,1-1.64,1.63H581a1.64,1.64,0,0,1-1.64-1.63V16.2a.77.77,0,0,0-.79-.79h-5.94Z"/><path class="cls-1" d="M603.52,37.85a.76.76,0,0,0-.79.78v10a1.63,1.63,0,0,1-1.64,1.63h-2.43A1.63,1.63,0,0,1,597,48.59V11.36a1.63,1.63,0,0,1,1.64-1.63h12.21a7.56,7.56,0,0,1,7.58,6.86c.17,2.08.28,4.22.28,6.3a75.6,75.6,0,0,1-.28,8.1,7.51,7.51,0,0,1-3.67,5.79.76.76,0,0,0-.4.9l3.9,10.4a1.77,1.77,0,0,1-.17,1.52,1.56,1.56,0,0,1-1.3.73h-2.6a1.61,1.61,0,0,1-1.53-1l-4.12-10.91a.79.79,0,0,0-.74-.56h-4.3Zm-.79-6.47a.77.77,0,0,0,.79.79h7.35a2,2,0,0,0,2-1.75q.35-3.71.34-7.42c0-2-.11-3.93-.28-5.9a2,2,0,0,0-2-1.75h-7.35a.79.79,0,0,0-.85.85Z"/><path class="cls-1" d="M623.77,50.22a1.64,1.64,0,0,1-1.64-1.63V11.36a1.64,1.64,0,0,1,1.64-1.63h2.43a1.63,1.63,0,0,1,1.64,1.63V48.59a1.63,1.63,0,0,1-1.64,1.63Z"/><path class="cls-1" d="M636.89,11.42V43.86a.77.77,0,0,0,.79.79h10a1.64,1.64,0,0,1,1.64,1.63V48.7a1.64,1.64,0,0,1-1.64,1.63H632.82a1.63,1.63,0,0,1-1.64-1.63V11.42a1.63,1.63,0,0,1,1.64-1.63h2.43A1.64,1.64,0,0,1,636.89,11.42Z"/><path class="cls-1" d="M669.24,49.88a1.6,1.6,0,0,1-1.13.45h-5.94a10.85,10.85,0,0,1-10.8-9.84c-.29-3.43-.45-6.92-.45-10.4s.16-7,.45-10.41a10.85,10.85,0,0,1,10.8-9.84h5.94a1.65,1.65,0,0,1,1.64,1.63v2.42a1.64,1.64,0,0,1-1.64,1.63h-5.94a5.16,5.16,0,0,0-5.2,4.67c-.29,3.26-.4,6.58-.4,9.84s.11,6.58.4,9.84a5.16,5.16,0,0,0,5.2,4.67h5.94a1.64,1.64,0,0,1,1.64,1.63v2.42a1.53,1.53,0,0,1-.46,1.12Z"/><path class="cls-1" d="M675,50.27a1.63,1.63,0,0,1-1.64-1.63V11.36A1.63,1.63,0,0,1,675,9.73h15a1.54,1.54,0,0,1,1.58,1.58v2.41A1.63,1.63,0,0,1,690,15.35H679.81a.86.86,0,0,0-.62.23.83.83,0,0,0-.22.62V26.38a.76.76,0,0,0,.79.78h7.91a1.61,1.61,0,0,1,1.14.45,1.59,1.59,0,0,1,.45,1.13v2.41a1.65,1.65,0,0,1-1.64,1.64H679.7a.78.78,0,0,0-.85.84V43.81a.76.76,0,0,0,.79.78h10.18A1.61,1.61,0,0,1,691,45a1.59,1.59,0,0,1,.45,1.13v2.42a1.64,1.64,0,0,1-1.64,1.63h-15Z"/><path class="cls-1" d="M1.64,83.41A1.64,1.64,0,0,1,0,81.78V79.36a1.64,1.64,0,0,1,1.64-1.63H21a1.6,1.6,0,0,1,1.13.45,1.59,1.59,0,0,1,.45,1.13v2.41A1.65,1.65,0,0,1,21,83.36H14.93a.83.83,0,0,0-.62.22.84.84,0,0,0-.23.62v32.44a1.63,1.63,0,0,1-1.64,1.63H10a1.63,1.63,0,0,1-1.64-1.63V84.2a.77.77,0,0,0-.79-.79H1.64Z"/><path class="cls-1" d="M27.6,118.22A1.64,1.64,0,0,1,26,116.59V79.36a1.63,1.63,0,0,1,1.64-1.63H30a1.64,1.64,0,0,1,1.64,1.63v37.23A1.65,1.65,0,0,1,30,118.22Z"/><path class="cls-1" d="M36.87,118.27a1.64,1.64,0,0,1-1.64-1.63V79.36a1.64,1.64,0,0,1,1.64-1.63H51.92a1.6,1.6,0,0,1,1.13.45,1.59,1.59,0,0,1,.45,1.13v2.41a1.65,1.65,0,0,1-1.64,1.64H41.68a.83.83,0,0,0-.62.22.84.84,0,0,0-.23.62V94.38a.76.76,0,0,0,.79.78h7.92a1.54,1.54,0,0,1,1.58,1.58v2.41a1.64,1.64,0,0,1-1.64,1.64H41.57a.86.86,0,0,0-.63.22.88.88,0,0,0-.22.62v10.18a.76.76,0,0,0,.79.78H51.69a1.54,1.54,0,0,1,1.58,1.58v2.42a1.64,1.64,0,0,1-1.64,1.63h-15Z"/><path class="cls-1" d="M71.48,101.12a.29.29,0,0,0,.4.17.36.36,0,0,0,.28-.34V79.31a1.64,1.64,0,0,1,1.64-1.63h2.43a1.55,1.55,0,0,1,1.59,1.57v37.28a1.64,1.64,0,0,1-1.64,1.63H73.41a1.52,1.52,0,0,1-1.47-1L63,95.11a.29.29,0,0,0-.4-.17.36.36,0,0,0-.28.34v21.31a1.64,1.64,0,0,1-1.64,1.63H58.25a1.65,1.65,0,0,1-1.64-1.63V79.36a1.64,1.64,0,0,1,1.64-1.63h2.6a1.53,1.53,0,0,1,1.47,1l9.05,22.38Z"/><path class="cls-1" d="M82.91,118.27a1.63,1.63,0,0,1-1.64-1.63V79.36a1.63,1.63,0,0,1,1.64-1.63H98a1.54,1.54,0,0,1,1.58,1.58v2.41a1.64,1.64,0,0,1-1.64,1.64H87.71a.85.85,0,0,0-.62.22.83.83,0,0,0-.22.62V94.38a.76.76,0,0,0,.79.78h7.92a1.6,1.6,0,0,1,1.13.45,1.59,1.59,0,0,1,.45,1.13v2.41a1.65,1.65,0,0,1-1.64,1.64H87.6a.78.78,0,0,0-.85.84v10.18a.76.76,0,0,0,.79.78H97.72a1.61,1.61,0,0,1,1.14.45,1.59,1.59,0,0,1,.45,1.13v2.42a1.65,1.65,0,0,1-1.64,1.63h-15Z"/><path class="cls-1" d="M115.82,118.27a1.64,1.64,0,0,1-1.64-1.63V79.36a1.64,1.64,0,0,1,1.64-1.63h15.05a1.6,1.6,0,0,1,1.13.45,1.59,1.59,0,0,1,.45,1.13v2.41a1.65,1.65,0,0,1-1.64,1.64H120.63a.83.83,0,0,0-.62.22.84.84,0,0,0-.23.62V94.38a.76.76,0,0,0,.79.78h7.92a1.54,1.54,0,0,1,1.58,1.58v2.41a1.64,1.64,0,0,1-1.64,1.64h-7.91a.86.86,0,0,0-.63.22.88.88,0,0,0-.22.62v10.18a.76.76,0,0,0,.79.78h10.18a1.54,1.54,0,0,1,1.58,1.58v2.42a1.64,1.64,0,0,1-1.64,1.63h-15Z"/><path class="cls-1" d="M141.27,79.42v32.44a.77.77,0,0,0,.79.79h10a1.63,1.63,0,0,1,1.64,1.63v2.42a1.63,1.63,0,0,1-1.64,1.63H137.2a1.64,1.64,0,0,1-1.64-1.63V79.42a1.64,1.64,0,0,1,1.64-1.63h2.43A1.63,1.63,0,0,1,141.27,79.42Z"/><path class="cls-1" d="M172.49,118.22h-2.88a1.23,1.23,0,0,1-1-.45,1.43,1.43,0,0,1-.28-1.07l7-37.62a1.58,1.58,0,0,1,1.58-1.29h6.39a1.7,1.7,0,0,1,1.64,1.29l7.3,37.62a1.44,1.44,0,0,1-.29,1.07,1.2,1.2,0,0,1-1,.45H188.1a1.7,1.7,0,0,1-1.64-1.3l-.63-3.2A.78.78,0,0,0,185,113h-9.61a.79.79,0,0,0-.79.68l-.57,3.2A1.59,1.59,0,0,1,172.49,118.22Zm7.92-32.33a.37.37,0,0,0-.34-.29.28.28,0,0,0-.29.29l-3.9,21.19c0,.12,0,.23.06.28a.43.43,0,0,0,.28.12h8a.39.39,0,0,0,.28-.12c.06,0,.06-.16.06-.28l-4.13-21.19Z"/><path class="cls-1" d="M215.07,117.88a1.57,1.57,0,0,1-1.13.45h-9a10.8,10.8,0,0,1-10.81-10.23c-.17-3.32-.28-6.7-.28-10s.11-6.69.28-10A10.8,10.8,0,0,1,204.9,77.84h9a1.63,1.63,0,0,1,1.64,1.64v2.41A1.54,1.54,0,0,1,214,83.47H205a5.19,5.19,0,0,0-5.2,4.89c-.17,3.2-.28,6.47-.28,9.67s.11,6.47.28,9.67a5.19,5.19,0,0,0,5.2,4.89h4.19a.76.76,0,0,0,.79-.78V101.63a.77.77,0,0,0-.79-.79h-2.38a1.64,1.64,0,0,1-1.64-1.63V96.79a1.64,1.64,0,0,1,1.64-1.63H214a1.64,1.64,0,0,1,1.64,1.63v19.85a1.6,1.6,0,0,1-.45,1.13Z"/><path class="cls-1" d="M225.65,105.85a.76.76,0,0,0-.79.78v10a1.64,1.64,0,0,1-1.64,1.63h-2.43a1.64,1.64,0,0,1-1.64-1.63V79.36a1.63,1.63,0,0,1,1.64-1.63H233a7.56,7.56,0,0,1,7.58,6.86c.17,2.08.28,4.22.28,6.3a75.6,75.6,0,0,1-.28,8.1,7.54,7.54,0,0,1-3.67,5.79.76.76,0,0,0-.4.9l3.9,10.4a1.8,1.8,0,0,1-.17,1.52,1.56,1.56,0,0,1-1.3.73h-2.6a1.61,1.61,0,0,1-1.53-1l-4.13-10.91a.77.77,0,0,0-.73-.56h-4.3Zm-.79-6.47a.77.77,0,0,0,.79.79H233a2,2,0,0,0,2-1.75q.35-3.7.34-7.42c0-2-.11-3.93-.28-5.9a2,2,0,0,0-2-1.74h-7.35a.83.83,0,0,0-.62.22.84.84,0,0,0-.23.62Z"/><path class="cls-1" d="M248.39,118.22H245.5a1.23,1.23,0,0,1-1-.45,1.43,1.43,0,0,1-.28-1.07l7-37.62a1.6,1.6,0,0,1,1.59-1.29h6.39a1.7,1.7,0,0,1,1.64,1.29l7.29,37.62a1.39,1.39,0,0,1-.28,1.07,1.23,1.23,0,0,1-1,.45H264a1.7,1.7,0,0,1-1.64-1.3l-.62-3.2a.78.78,0,0,0-.79-.68h-9.61a.78.78,0,0,0-.79.68l-.57,3.2A1.59,1.59,0,0,1,248.39,118.22Zm7.91-32.33a.36.36,0,0,0-.34-.29.27.27,0,0,0-.28.29l-3.9,21.19c0,.12,0,.23.06.28a.41.41,0,0,0,.28.12h8a.41.41,0,0,0,.28-.12c.06,0,.06-.16.06-.28l-4.13-21.19Z"/><path class="cls-1" d="M293.46,108.49a10.78,10.78,0,0,1-10.75,9.67h-9.5a1.64,1.64,0,0,1-1.64-1.63V79.31a1.55,1.55,0,0,1,.46-1.13,1.59,1.59,0,0,1,1.13-.45h9.5A10.77,10.77,0,0,1,293.4,87.4a101,101,0,0,1,0,21.15Zm-16.23,3.37a.77.77,0,0,0,.79.79h4.69a5.19,5.19,0,0,0,5.15-4.67,97.9,97.9,0,0,0,0-20,5.19,5.19,0,0,0-5.15-4.66H278a.76.76,0,0,0-.79.78Z"/><path class="cls-1" d="M319.59,108.15a10.83,10.83,0,0,1-10.86,10.18h-.34A10.84,10.84,0,0,1,297.59,108c-.17-3.32-.23-6.69-.23-10s.06-6.63.23-10a10.78,10.78,0,0,1,10.8-10.24h.34A10.84,10.84,0,0,1,319.59,88c.17,3.32.28,6.69.28,10s-.11,6.69-.28,10ZM308.45,83.52a5.16,5.16,0,0,0-5.15,5c-.17,3.21-.22,6.47-.22,9.67s.05,6.47.22,9.67a5.16,5.16,0,0,0,5.15,5h.34a5.19,5.19,0,0,0,5.2-4.89c.17-3.2.28-6.47.28-9.73s-.11-6.52-.28-9.72a5.2,5.2,0,0,0-5.2-4.9Z"/><path class="cls-1" d="M356.52,108.49a10.78,10.78,0,0,1-10.75,9.67h-9.5a1.64,1.64,0,0,1-1.64-1.63V79.31a1.59,1.59,0,0,1,.45-1.13,1.61,1.61,0,0,1,1.14-.45h9.5a10.77,10.77,0,0,1,10.74,9.67,101,101,0,0,1,0,21.15Zm-16.23,3.37a.77.77,0,0,0,.79.79h4.69a5.19,5.19,0,0,0,5.15-4.67,97.9,97.9,0,0,0,0-20,5.19,5.19,0,0,0-5.15-4.66h-4.69a.76.76,0,0,0-.79.78Z"/><path class="cls-1" d="M362.29,118.27a1.63,1.63,0,0,1-1.64-1.63V79.36a1.63,1.63,0,0,1,1.64-1.63h15a1.54,1.54,0,0,1,1.58,1.58v2.41a1.64,1.64,0,0,1-1.64,1.64H367.09a.85.85,0,0,0-.62.22.83.83,0,0,0-.22.62V94.38a.76.76,0,0,0,.79.78H375a1.57,1.57,0,0,1,1.13.45,1.55,1.55,0,0,1,.46,1.13v2.41a1.65,1.65,0,0,1-1.64,1.64H367a.83.83,0,0,0-.62.22.84.84,0,0,0-.23.62v10.18a.76.76,0,0,0,.79.78H377.1a1.57,1.57,0,0,1,1.13.45,1.55,1.55,0,0,1,.46,1.13v2.42a1.65,1.65,0,0,1-1.64,1.63H362Z"/><path class="cls-1" d="M395,118.22a1.64,1.64,0,0,1-1.64-1.63V79.36A1.63,1.63,0,0,1,395,77.73h2.43a1.64,1.64,0,0,1,1.64,1.63v37.23a1.65,1.65,0,0,1-1.64,1.63Z"/><path class="cls-1" d="M417.26,101.12a.28.28,0,0,0,.39.17.36.36,0,0,0,.28-.34V79.31a1.64,1.64,0,0,1,1.65-1.63H422a1.54,1.54,0,0,1,1.58,1.57v37.28a1.64,1.64,0,0,1-1.64,1.63h-2.77a1.52,1.52,0,0,1-1.47-1l-8.94-22a.28.28,0,0,0-.39-.17.35.35,0,0,0-.28.34v21.31a1.65,1.65,0,0,1-1.64,1.63H404a1.65,1.65,0,0,1-1.64-1.63V79.36A1.64,1.64,0,0,1,404,77.73h2.61a1.55,1.55,0,0,1,1.47,1l9,22.38Z"/><path class="cls-1" d="M445,79a1.6,1.6,0,0,1,1.59-1.3h2.88a1.2,1.2,0,0,1,1,.45,1.43,1.43,0,0,1,.29,1.07l-7,37.62a1.58,1.58,0,0,1-1.58,1.29h-6.39a1.7,1.7,0,0,1-1.64-1.29l-7.35-37.62a1.38,1.38,0,0,1,.28-1.07,1.2,1.2,0,0,1,1-.45h2.88a1.69,1.69,0,0,1,1.64,1.3l6.05,31.09a.36.36,0,0,0,.34.28.27.27,0,0,0,.29-.28l5.71-31Z"/><path class="cls-1" d="M455.71,118.22a1.64,1.64,0,0,1-1.63-1.63V79.36a1.63,1.63,0,0,1,1.63-1.63h2.44a1.64,1.64,0,0,1,1.64,1.63v37.23a1.65,1.65,0,0,1-1.64,1.63Z"/><path class="cls-1" d="M464.82,83.41a1.64,1.64,0,0,1-1.64-1.63V79.36a1.64,1.64,0,0,1,1.64-1.63h19.4a1.54,1.54,0,0,1,1.58,1.58v2.41a1.64,1.64,0,0,1-1.64,1.64h-6.05a.83.83,0,0,0-.62.22.84.84,0,0,0-.23.62v32.44a1.63,1.63,0,0,1-1.64,1.63h-2.43a1.64,1.64,0,0,1-1.64-1.63V84.2a.77.77,0,0,0-.79-.79h-5.94Z"/><path class="cls-1" d="M488.18,118.22h-2.89a1.23,1.23,0,0,1-1-.45,1.43,1.43,0,0,1-.28-1.07L491,79.08a1.6,1.6,0,0,1,1.59-1.29H499a1.7,1.7,0,0,1,1.64,1.29l7.29,37.62a1.39,1.39,0,0,1-.28,1.07,1.23,1.23,0,0,1-1,.45h-2.89a1.7,1.7,0,0,1-1.64-1.3l-.62-3.2a.78.78,0,0,0-.79-.68h-9.61a.78.78,0,0,0-.79.68l-.57,3.2A1.59,1.59,0,0,1,488.18,118.22Zm7.91-32.33a.36.36,0,0,0-.34-.29.27.27,0,0,0-.28.29l-3.9,21.19c0,.12,0,.23.06.28a.41.41,0,0,0,.28.12h8a.41.41,0,0,0,.28-.12c.06,0,.06-.16.06-.28l-4.13-21.19Z"/><path class="cls-1" d="M517.87,105.85a.76.76,0,0,0-.79.78v10a1.65,1.65,0,0,1-1.64,1.63H513a1.64,1.64,0,0,1-1.63-1.63V79.36A1.63,1.63,0,0,1,513,77.73h12.22a7.56,7.56,0,0,1,7.58,6.86c.17,2.08.28,4.22.28,6.3a78.3,78.3,0,0,1-.28,8.1,7.55,7.55,0,0,1-3.68,5.79.75.75,0,0,0-.39.9l3.9,10.4a1.8,1.8,0,0,1-.17,1.52,1.56,1.56,0,0,1-1.3.73h-2.6a1.61,1.61,0,0,1-1.53-1l-4.13-10.91a.77.77,0,0,0-.73-.56h-4.3Zm-.79-6.47a.77.77,0,0,0,.79.79h7.35a2,2,0,0,0,2-1.75c.22-2.47.34-4.94.34-7.42,0-2-.12-3.93-.28-5.9a2,2,0,0,0-2-1.74h-7.36a.85.85,0,0,0-.62.22.83.83,0,0,0-.22.62Z"/><path class="cls-1" d="M538.17,83.41a1.64,1.64,0,0,1-1.64-1.63V79.36a1.64,1.64,0,0,1,1.64-1.63h19.4a1.54,1.54,0,0,1,1.58,1.58v2.41a1.64,1.64,0,0,1-1.64,1.64h-6a.78.78,0,0,0-.85.84v32.44a1.63,1.63,0,0,1-1.64,1.63h-2.43a1.64,1.64,0,0,1-1.64-1.63V84.2a.77.77,0,0,0-.79-.79h-5.94Z"/><path class="cls-1" d="M564.36,118.27a1.63,1.63,0,0,1-1.64-1.63V79.36a1.63,1.63,0,0,1,1.64-1.63h15A1.54,1.54,0,0,1,581,79.31v2.41a1.64,1.64,0,0,1-1.64,1.64H569.16a.85.85,0,0,0-.62.22.83.83,0,0,0-.22.62V94.38a.76.76,0,0,0,.79.78H577a1.57,1.57,0,0,1,1.13.45,1.55,1.55,0,0,1,.46,1.13v2.41a1.65,1.65,0,0,1-1.64,1.64h-7.92a.83.83,0,0,0-.62.22.84.84,0,0,0-.23.62v10.18a.76.76,0,0,0,.79.78h10.18a1.57,1.57,0,0,1,1.13.45,1.55,1.55,0,0,1,.46,1.13v2.42a1.65,1.65,0,0,1-1.64,1.63h-15Z"/><path class="cls-1" d="M599.53,118.22h-2.88a1.2,1.2,0,0,1-1-.45,1.39,1.39,0,0,1-.28-1.07l7-37.62a1.58,1.58,0,0,1,1.58-1.29h6.39A1.69,1.69,0,0,1,612,79.08l7.3,37.62a1.43,1.43,0,0,1-.28,1.07,1.23,1.23,0,0,1-1,.45h-2.89a1.7,1.7,0,0,1-1.64-1.3l-.62-3.2a.8.8,0,0,0-.79-.68h-9.62a.8.8,0,0,0-.79.68l-.56,3.2A1.6,1.6,0,0,1,599.53,118.22Zm7.92-32.33a.37.37,0,0,0-.34-.29.27.27,0,0,0-.28.29l-3.9,21.19c0,.12,0,.23.05.28a.43.43,0,0,0,.29.12h8a.43.43,0,0,0,.28-.12s0-.16,0-.28l-4.12-21.19Z"/><path class="cls-1" d="M639.69,79.42v32.44a.77.77,0,0,0,.79.79h10a1.64,1.64,0,0,1,1.64,1.63v2.42a1.64,1.64,0,0,1-1.64,1.63H635.62A1.63,1.63,0,0,1,634,116.7V79.42a1.63,1.63,0,0,1,1.64-1.63h2.43A1.64,1.64,0,0,1,639.69,79.42Z"/><path class="cls-1" d="M659.59,118.22h-2.88a1.2,1.2,0,0,1-1-.45,1.39,1.39,0,0,1-.28-1.07l6.95-37.62A1.58,1.58,0,0,1,664,77.79h6.39A1.7,1.7,0,0,1,672,79.08l7.29,37.62a1.43,1.43,0,0,1-.28,1.07,1.23,1.23,0,0,1-1,.45H675.2a1.7,1.7,0,0,1-1.64-1.3l-.62-3.2a.8.8,0,0,0-.79-.68h-9.62a.8.8,0,0,0-.79.68l-.56,3.2A1.6,1.6,0,0,1,659.59,118.22Zm7.92-32.33a.37.37,0,0,0-.34-.29.27.27,0,0,0-.28.29L663,107.08c0,.12,0,.23,0,.28a.43.43,0,0,0,.29.12h8a.43.43,0,0,0,.28-.12c.06,0,.06-.16.06-.28l-4.13-21.19Z"/><path class="cls-1" d="M682.73,115.52a3.9,3.9,0,1,1,3.9,3.88A3.89,3.89,0,0,1,682.73,115.52Z"/><path class="cls-1" d="M693.92,115.52a3.91,3.91,0,1,1,3.91,3.88A3.9,3.9,0,0,1,693.92,115.52Z"/><path class="cls-1" d="M705.12,115.52a3.91,3.91,0,1,1,3.9,3.88A3.9,3.9,0,0,1,705.12,115.52Z"/></g></g></svg>