<svg xmlns="http://www.w3.org/2000/svg" viewBox="0 0 448.48 439.89"><defs><style>.cls-1{fill:#f3de48;}.cls-2{fill:none;stroke:#f3de48;stroke-miterlimit:10;}</style></defs><title>5</title><g id="Capa_2" data-name="Capa 2"><g id="Layer_1" data-name="Layer 1"><path class="cls-1" d="M160.07,232.45V248l-3.34-.2c-1.46-.09-2.74-.13-3.83-.1s-2.44.12-4.06.28-3.34.44-5.18.79a22,22,0,0,0-10.89,5.27q-4.43,4-4.42,11.17a21.29,21.29,0,0,1,6-4.2,35.89,35.89,0,0,1,8.78-2.76,23.93,23.93,0,0,1,11.27.38,15.84,15.84,0,0,1,8.49,5.81q3.21,4.29,3.21,11a24.57,24.57,0,0,1-4.13,14,32.23,32.23,0,0,1-10.78,10,45.82,45.82,0,0,1-14.28,5.31q-9.45,1.81-16.87-1a22,22,0,0,1-11.46-9.65q-4-6.84-4-16.5A45.71,45.71,0,0,1,109.08,257a39.25,39.25,0,0,1,12.53-14.78A46.35,46.35,0,0,1,140,234.54,98.75,98.75,0,0,1,160.07,232.45ZM144.4,279.67q0-4-2.17-6c-1.44-1.32-3.43-1.74-5.95-1.26a9,9,0,0,0-5.9,3.61,12.37,12.37,0,0,0-2,7.3,7.8,7.8,0,0,0,2.1,5.81q2.1,2.07,5.84,1.35a9.19,9.19,0,0,0,5.9-3.75A11.69,11.69,0,0,0,144.4,279.67Z"/><path class="cls-1" d="M174.83,264.62V246.09l20.56-4v18.53Zm0,31.74V277.83l20.57-3.95v18.53Z"/><path class="cls-1" d="M204.75,257a47.28,47.28,0,0,1,2.15-14.35,40.66,40.66,0,0,1,6.31-12.33A36.38,36.38,0,0,1,223.52,221a42.42,42.42,0,0,1,14.1-5.26,34.64,34.64,0,0,1,13.58-.18,21.79,21.79,0,0,1,10.33,5.09,24.27,24.27,0,0,1,6.5,9.81,39.35,39.35,0,0,1,2.24,13.88,47.39,47.39,0,0,1-3.73,19.09,35.9,35.9,0,0,1-11.13,14.3,41.36,41.36,0,0,1-17.77,7.71q-10.33,2-17.78-.95a21.22,21.22,0,0,1-11.27-10.13Q204.75,267.18,204.75,257Zm24.76-4.77q0,5,.19,8.18a25.32,25.32,0,0,0,.9,5.62,6.73,6.73,0,0,0,2.45,3.73,5.71,5.71,0,0,0,4.58.71,7.61,7.61,0,0,0,5.4-3.68,16.85,16.85,0,0,0,2.14-6.94q.39-4,.39-10.7c0-4.67-.13-8.28-.39-10.85a11.45,11.45,0,0,0-2.13-6c-1.15-1.46-3-1.95-5.41-1.48a7.89,7.89,0,0,0-5.56,3.61,16,16,0,0,0-2.17,6.86Q229.51,245.2,229.51,252.19Z"/><path class="cls-1" d="M274.65,243.52a47.33,47.33,0,0,1,2.15-14.35,40.49,40.49,0,0,1,6.31-12.32,36.51,36.51,0,0,1,10.3-9.27,42.33,42.33,0,0,1,14.11-5.25,34.46,34.46,0,0,1,13.58-.19,21.88,21.88,0,0,1,10.33,5.09,24.46,24.46,0,0,1,6.51,9.82,39.53,39.53,0,0,1,2.23,13.87A47.19,47.19,0,0,1,336.44,250a35.9,35.9,0,0,1-11.13,14.3A41.36,41.36,0,0,1,307.54,272q-10.34,2-17.78-.95a21.22,21.22,0,0,1-11.27-10.13Q274.65,253.74,274.65,243.52Zm24.76-4.76c0,3.36.07,6.09.19,8.18a25.33,25.33,0,0,0,.9,5.61,6.75,6.75,0,0,0,2.45,3.74,5.71,5.71,0,0,0,4.58.7,7.61,7.61,0,0,0,5.4-3.68,16.65,16.65,0,0,0,2.14-6.94c.26-2.65.39-6.21.39-10.7q0-7-.39-10.85a11.45,11.45,0,0,0-2.13-6c-1.15-1.46-3-1.95-5.41-1.48a7.92,7.92,0,0,0-5.56,3.61,15.81,15.81,0,0,0-2.16,6.86Q299.41,231.76,299.41,238.76Z"/><path class="cls-2" d="M61.88,104.53V68l34-6.54,0,105.81-34,6.54v-38.1L34.53,141v38.11l-34,6.54L.5,79.84l34-6.54v36.49Z"/><path class="cls-2" d="M219.53,91.23q0,17.35-7.16,31a59.37,59.37,0,0,1-20.73,22.38q-13.57,8.76-32.39,12.38t-32.32,0q-13.5-3.6-20.45-14.39t-7-28.31a69.62,69.62,0,0,1,4-24.1A57.37,57.37,0,0,1,115.15,71,65.85,65.85,0,0,1,134,56.93a94.4,94.4,0,0,1,25.25-8.41q18.75-3.6,32.36,0T212.36,63Q219.53,73.86,219.53,91.23Zm-82.88,16.22q0,10.18,4.53,16.86T159,128.43q10.28-2,15.38-6.91t6.36-10.28a74.71,74.71,0,0,0,1.7-12.6q-.43-10.1-4.85-16.83t-18.6-4Q136.64,82.11,136.65,107.45Z"/><path class="cls-2" d="M224.53,142.59l0-105.81,68-13.08q12.58-1.24,20.7,2.76a24.53,24.53,0,0,1,11.87,12.66q2.89,13.52.3,21.64a35.22,35.22,0,0,1-9.12,14.5q-6.51,6.39-18.67,11.65l7.82,8.61,55.87-10.74v31.51L295.46,129l-33.15-28.58v34.95Zm37.77-86.7V75.38l26.35-5.06a10.6,10.6,0,0,0,4.56-2.45c1.64-1.37,2.5-4.18,2.6-8.46q-.36-6-2.93-7.46a6.65,6.65,0,0,0-4.31-1.11Z"/><path class="cls-2" d="M325.12,48.94V17.44L412.84.57l35,99.09-39.52,7.6-6.59-17.79-31,6-6.58,20.32L326.59,123,350.67,44ZM387,29,372,73.78l28.81-5.54Z"/><path class="cls-1" d="M44.9,439.89v-25l-7.3,1.41V405.7l28.05-5.39a21.61,21.61,0,0,1,7.42-.3,13.4,13.4,0,0,1,5.43,2,11.11,11.11,0,0,1,3.69,4.49,18.8,18.8,0,0,1,1.48,8.24,29.77,29.77,0,0,1-1.61,8.57,17.75,17.75,0,0,1-3.55,6.06,20.41,20.41,0,0,1-5.42,4.1,26.87,26.87,0,0,1-8,2.52Zm11.73-29v17.9l6.7-1.29A7.54,7.54,0,0,0,67,425.8a10.13,10.13,0,0,0,2.26-2.93,15.07,15.07,0,0,0,1.12-5.67,11.1,11.1,0,0,0-1-5.13A5.54,5.54,0,0,0,67,409.84a6,6,0,0,0-3.74-.26Z"/><path class="cls-1" d="M85.37,432.11v-25l-7.3,1.41v-10.6l37.45-7.2v10.6l-18.69,3.59V409l12.07-2.33v6.22l-12.08,2.32v4.09l21.67-4.17v10.61Z"/><path class="cls-1" d="M141.61,421.3v-25l-7.31,1.41v-10.6l18.75-3.61v25l19-3.66v10.6Z"/><path class="cls-1" d="M169.66,390.91v-10.6l29.51-5.67L210.94,408l-13.3,2.56-2.22-6-10.44,2-2.22,6.84-12.61,2.42,8.1-26.55Zm20.81-6.71-5,15.06,9.69-1.86Z"/><path class="cls-1" d="M262,362.56v10.6l-11.15,2.14v25l-11.45,2.2v-25l-11.15,2.14V369Z"/><path class="cls-1" d="M255.73,374.36v-10.6l29.51-5.67L297,391.42,283.72,394l-2.22-6-10.45,2-2.21,6.84-12.62,2.43,8.11-26.56Zm20.82-6.71-5,15.07,9.69-1.86Z"/><path class="cls-1" d="M296.52,391.52v-35.6l22.89-4.4a12.79,12.79,0,0,1,7,.93,8.23,8.23,0,0,1,4,4.26,14.57,14.57,0,0,1,.1,7.28,11.71,11.71,0,0,1-3.07,4.88,20.63,20.63,0,0,1-6.28,3.92l2.63,2.9,18.8-3.62v10.6l-22.16,4.26-11.15-9.61v11.76Zm12.71-29.17v6.56l8.86-1.7a3.62,3.62,0,0,0,1.54-.83c.55-.46.84-1.4.87-2.84s-.41-2.19-1-2.51a2.19,2.19,0,0,0-1.44-.37Z"/><path class="cls-1" d="M334.26,384.26v-25l-7.31,1.4v-10.6L355,344.68a21.41,21.41,0,0,1,7.43-.29,13.3,13.3,0,0,1,5.43,2,11.18,11.18,0,0,1,3.69,4.49,19,19,0,0,1,1.47,8.25,29.45,29.45,0,0,1-1.6,8.56,17.91,17.91,0,0,1-3.55,6.06,20.2,20.2,0,0,1-5.42,4.1,27,27,0,0,1-8,2.53Zm11.73-29v17.89l6.69-1.28a7.49,7.49,0,0,0,3.66-1.68,10.26,10.26,0,0,0,2.26-2.92,15.18,15.18,0,0,0,1.12-5.68,11,11,0,0,0-1-5.12,5.55,5.55,0,0,0-2.35-2.24,6,6,0,0,0-3.75-.25Z"/><path class="cls-1" d="M374.73,376.49v-25l-7.31,1.4v-10.6l37.45-7.2v10.6l-18.7,3.6v4.09l12.08-2.32v6.21l-12.08,2.32v4.09l21.67-4.16v10.6Z"/><path class="cls-1" d="M163,336.91,88.56,350.37C81.09,351.72,75,347.6,75,341.16V225.63c0-6.44,6.06-12.75,13.53-14.1l97.93-17.75-.47-7.57L80,206.5C72.08,208,65.69,215,65.69,222.18V350.63c0,7.16,6.39,11.74,14.27,10.24l83.91-16Z"/><path class="cls-1" d="M379.73,162.34c0-7.16-6.39-11.74-14.27-10.24L183.33,186.72l.45,7.55L359.11,162.6c7.47-1.35,13.53,2.77,13.53,9.21V287.34c0,6.44-6.05,12.75-13.52,14.1l-86,15.55,0,7.08,92.34-17.6c7.89-1.5,14.28-8.52,14.28-15.68Z"/><path class="cls-1" d="M219.75,309.61c11.07-1.65,22,6.16,23.6,16.89,1.84,12.12-5.8,22.77-17.61,24.55a20.94,20.94,0,0,1-6-41.44Zm.19,2.06a18.87,18.87,0,1,0,21.48,15.88A18.88,18.88,0,0,0,219.94,311.67Z"/><path class="cls-1" d="M223.83,336.2l1.54-.53-.33,1.26,1.67.22-1.43.79.57,1.1c-1.48.16-1.48,1.42,0,5.95a8.27,8.27,0,0,0,4.17-4.13,12.49,12.49,0,0,0-.59-11.68,2.94,2.94,0,0,1-.11-3.2c1.87-3.49,1.64-7.07-.11-10.66,4.52,2.37,6.25,7.44,5.63,16.27,1.74-1.45,2.52-4.32,2.25-8.92a17,17,0,0,1,.18,13.37l1.35-1.2c-1.12,6.22-6.31,11-13.09,12.09-7,1.13-13.52-1.77-16.61-7.53l1.59.86c-2.8-4-4.27-7.88-3.67-12.34a11.76,11.76,0,0,0,4.65,7.37c-2.82-6-3.66-11.82.49-17.65a26.24,26.24,0,0,0,0,4.27,16.4,16.4,0,0,0,1.4,4,41.9,41.9,0,0,1,2.27,8.53c.07,5,2.94,9.28,7.13,10.58a13,13,0,0,0,1.45.28l-.94-6.17-1.24,1,.52-1.73-1.86-.19,1.68-.75-.53-1.23c1.52.61,1.32-.33,1.19-1.17q-.6-4-1.22-8l.52-.1Z"/></g></g></svg>