<svg xmlns="http://www.w3.org/2000/svg" viewBox="0 0 399.3 395.69"><defs><style>.cls-1{fill:#f8e12e;}</style></defs><title>8</title><g id="Capa_2" data-name="Capa 2"><g id="Layer_1" data-name="Layer 1"><path class="cls-1" d="M.84,338.58c-.61,0-.84-.28-.84-.94v-30c0-.65.23-.94.84-.94H16.78c.61,0,.89.24.89.89v2.11c0,.66-.28.89-.89.89H4.52v9.47H15.94c.66,0,.94.23.94.89v2c0,.61-.28.89-.94.89H4.52v10.83H17.29c.61,0,.89.19.89.84v2.16c0,.65-.28.89-.89.89Z"/><path class="cls-1" d="M38,320.72c0-1.68-1.54-2.48-4.43-2.48s-4.34.8-4.34,2.48v.8c0,1.22,1.12,1.88,2,2.16l7,2.43c2.57.89,4.2,2.39,4.2,4.6v2.62c0,2.91-2.56,5.62-8.86,5.62s-8.81-2.71-8.81-5.62v-1.17c0-.56.24-.85.8-.85H28c.6,0,.79.29.79.85v1c0,1.69,1.77,2.49,4.75,2.49s4.76-.8,4.76-2.49v-1.26c0-1.13-.93-1.74-2.47-2.25l-7-2.44a5.34,5.34,0,0,1-3.64-4.73v-1.74c0-2.9,2.14-5.76,8.44-5.76S42,317.82,42,320.72v1.13c0,.61-.18.84-.83.84H38.78c-.56,0-.79-.23-.79-.84Z"/><path class="cls-1" d="M51.64,315.43v-3.61c0-3.84,2.66-6.42,9.28-6.42h.33c.6,0,.88.24.88.89v2c0,.66-.28.94-.88.94h-.33c-3.54,0-4.8,1.12-4.8,3.09v3.14h4.57c.6,0,.88.23.88.84v1.88c0,.65-.28.93-.88.93H56.12v18.56c0,.66-.23.94-.89.94h-2.7c-.61,0-.89-.28-.89-.94V319.08H48.89c-.6,0-.84-.28-.84-.93v-1.64c0-.61.24-.85.84-.89l2.47-.19Z"/><path class="cls-1" d="M67.26,321.38c0-3.84,2.75-6.42,9.32-6.42s9.32,2.58,9.32,6.42v11.15c0,3.85-2.75,6.42-9.32,6.42s-9.32-2.57-9.32-6.42Zm14.21.38c0-2-1.39-3.14-4.89-3.14s-4.89,1.12-4.89,3.14v10.4c0,2,1.39,3.14,4.89,3.14s4.89-1.13,4.89-3.14Z"/><path class="cls-1" d="M106.83,315.85V318c0,.65-.33.89-.93.93a12.86,12.86,0,0,0-7.23,3v15.7c0,.66-.23.94-.84.94h-2.7c-.65,0-.89-.28-.89-.94V316.23c0-.61.24-.89.89-.89H97.6c.65,0,.84.28.89.89l.14,2A10.63,10.63,0,0,1,105.9,315C106.5,315,106.83,315.24,106.83,315.85Z"/><path class="cls-1" d="M127.15,315.34c.65,0,.89.23.89.89v1.87a1.21,1.21,0,0,1-.19.7l-10.91,16.12h11c.6,0,.88.19.88.85v1.92c0,.65-.28.89-.88.89H112.42c-.6,0-.88-.24-.88-.89v-1.92a1.13,1.13,0,0,1,.18-.66L122.54,319h-9.47c-.6,0-.88-.28-.88-.89v-1.92c0-.66.28-.89.88-.89Z"/><path class="cls-1" d="M135.45,321.29c0-3.75,2.42-6.33,8.81-6.33,6.57,0,8.81,2.58,8.81,6.33v16.35c0,.66-.24.94-.84.94H149.8c-.65,0-.84-.28-.88-.94l-.09-1.36a11.7,11.7,0,0,1-7.37,2.67c-4.33,0-6.57-2.62-6.57-5.67V331c0-3,2.14-5.67,6.48-5.67h7.36v-3.6c0-1.93-1-3.19-4.52-3.19s-4.61,1.12-4.61,3.05V322c0,.66-.24.94-.89.94h-2.42c-.61,0-.84-.28-.84-.94Zm13.28,11.57v-4H142.3c-2.33,0-3.08,1-3.08,2.86v.94c0,1.82,1,2.62,3.36,2.62A10.17,10.17,0,0,0,148.73,332.86Zm-2.47-21.32a1.29,1.29,0,0,1-1.12.56H143c-.56,0-.79-.23-.47-.84l2.75-5a1.31,1.31,0,0,1,1.21-.85h2.89c.66,0,.8.38.42.89Z"/><path class="cls-1" d="M165.09,315.34c.65,0,.84.28.89.89l.09,1.5a11.68,11.68,0,0,1,7.74-2.77c4.33,0,6.57,2.53,6.57,6v16.68c0,.66-.23.94-.84.94h-2.7c-.61,0-.89-.28-.89-.94V322c0-1.92-.88-3.1-3.45-3.1a10.69,10.69,0,0,0-6.34,2.39v16.31c0,.66-.23.94-.84.94h-2.7c-.65,0-.89-.28-.89-.94V316.23c0-.61.24-.89.89-.89Z"/><path class="cls-1" d="M203,336.24a12.35,12.35,0,0,1-7.74,2.71c-4.52,0-6.57-2.53-6.57-6.37V321.33c0-3.84,2.05-6.37,6.57-6.37a12.42,12.42,0,0,1,7.65,2.67V306.76c0-.66.19-.94.84-.94h2.7c.65,0,.89.28.89.94v30.88c0,.66-.24.94-.89.94H204c-.65,0-.84-.28-.88-.94Zm-9.88-4.36c0,1.64.79,3,3.45,3a11.08,11.08,0,0,0,6.34-2.39v-11.1A10.73,10.73,0,0,0,196.6,319c-2.66,0-3.45,1.41-3.45,3.05Z"/><path class="cls-1" d="M215.71,321.38c0-3.84,2.75-6.42,9.32-6.42s9.32,2.58,9.32,6.42v11.15c0,3.85-2.75,6.42-9.32,6.42s-9.32-2.57-9.32-6.42Zm14.22.38c0-2-1.4-3.14-4.9-3.14s-4.89,1.12-4.89,3.14v10.4c0,2,1.4,3.14,4.89,3.14s4.9-1.13,4.9-3.14Z"/><path class="cls-1" d="M246.05,315.34c.65,0,.84.28.89.89l.09,1.5a11.68,11.68,0,0,1,7.74-2.77c4.33,0,6.57,2.53,6.57,6v16.68c0,.66-.23.94-.84.94h-2.7c-.61,0-.89-.28-.89-.94V322c0-1.92-.88-3.1-3.45-3.1a10.69,10.69,0,0,0-6.34,2.39v16.31c0,.66-.23.94-.84.94h-2.7c-.65,0-.88-.28-.88-.94V316.23c0-.61.23-.89.88-.89Z"/><path class="cls-1" d="M269.59,321.38c0-3.84,2.75-6.42,9.32-6.42s9.33,2.58,9.33,6.42v11.15c0,3.85-2.76,6.42-9.33,6.42s-9.32-2.57-9.32-6.42Zm14.22.38c0-2-1.4-3.14-4.9-3.14s-4.89,1.12-4.89,3.14v10.4c0,2,1.4,3.14,4.89,3.14s4.9-1.13,4.9-3.14Z"/><path class="cls-1" d="M308.74,320.72c0-1.68-1.54-2.48-4.43-2.48s-4.33.8-4.33,2.48v.8c0,1.22,1.12,1.88,2,2.16l7,2.43c2.56.89,4.19,2.39,4.19,4.6v2.62c0,2.91-2.56,5.62-8.85,5.62s-8.81-2.71-8.81-5.62v-1.17c0-.56.23-.85.79-.85h2.47c.61,0,.79.29.79.85v1c0,1.69,1.77,2.49,4.76,2.49s4.75-.8,4.75-2.49v-1.26c0-1.13-.93-1.74-2.47-2.25l-7-2.44a5.34,5.34,0,0,1-3.64-4.73v-1.74c0-2.9,2.15-5.76,8.44-5.76s8.44,2.86,8.44,5.76v1.13c0,.61-.19.84-.84.84h-2.42c-.56,0-.8-.23-.8-.84Z"/><path class="cls-1" d="M336.43,315.34c.65,0,.84.28.88.93l.1,1.46a12,12,0,0,1,7.73-2.77c4.53,0,6.58,2.53,6.58,6.37v11.25c0,3.84-2.05,6.37-6.58,6.37a12.3,12.3,0,0,1-7.64-2.62v10.92c0,.61-.23.89-.84.89H334c-.66,0-.89-.28-.89-.89v-31c0-.65.23-.93.89-.93Zm10.86,6.7c0-1.64-.79-3.05-3.45-3.05a10.45,10.45,0,0,0-6.34,2.44v11.1a10.78,10.78,0,0,0,6.34,2.39c2.66,0,3.45-1.4,3.45-3Z"/><path class="cls-1" d="M359.73,321.38c0-3.84,2.75-6.42,9.32-6.42s9.33,2.58,9.33,6.42v11.15c0,3.85-2.75,6.42-9.33,6.42s-9.32-2.57-9.32-6.42Zm14.22.38c0-2-1.4-3.14-4.9-3.14s-4.89,1.12-4.89,3.14v10.4c0,2,1.4,3.14,4.89,3.14s4.9-1.13,4.9-3.14Z"/><path class="cls-1" d="M399.3,315.85V318c0,.65-.32.89-.93.93a12.82,12.82,0,0,0-7.22,3v15.7c0,.66-.24.94-.84.94H387.6c-.65,0-.88-.28-.88-.94V316.23c0-.61.23-.89.88-.89h2.47c.66,0,.84.28.89.89l.14,2a10.66,10.66,0,0,1,7.27-3.28C399,315,399.3,315.24,399.3,315.85Z"/><path class="cls-1" d="M17.2,385.2c0,.65-.23.93-.84.93h-2.7c-.66,0-.89-.28-.89-.93V354.32c0-.66.23-.94.89-.94h2.7c.61,0,.84.28.84.94Z"/><path class="cls-1" d="M25.54,368.94c0-3.85,2.75-6.42,9.33-6.42s9.32,2.57,9.32,6.42v11.15c0,3.84-2.75,6.42-9.32,6.42s-9.33-2.58-9.33-6.42Zm14.22.37c0-2-1.4-3.14-4.89-3.14S30,367.3,30,369.31v10.4c0,2,1.4,3.14,4.9,3.14s4.89-1.12,4.89-3.14Z"/><path class="cls-1" d="M52.2,380.14V368.89c0-3.84,2-6.37,6.57-6.37a11.91,11.91,0,0,1,7.74,2.81l.1-1.5c0-.66.23-.94.88-.94H70c.66,0,.89.28.89.94v25.44c0,3.85-2.66,6.42-9.23,6.42H55.19c-.66,0-.94-.23-.94-.89v-2c0-.6.28-.89.94-.89h6.43c3.49,0,4.8-1.17,4.8-3.14v-4.92a12.37,12.37,0,0,1-7.65,2.63C54.25,386.51,52.2,384,52.2,380.14Zm4.43-.71c0,1.64.79,3.05,3.45,3.05a11.08,11.08,0,0,0,6.34-2.39V369a10.8,10.8,0,0,0-6.34-2.43c-2.66,0-3.45,1.4-3.45,3Z"/><path class="cls-1" d="M92.19,363.41v2.15c0,.66-.32.89-.93.94a12.75,12.75,0,0,0-7.22,3v15.7c0,.65-.24.93-.84.93H80.49c-.65,0-.88-.28-.88-.93V363.78c0-.61.23-.89.88-.89H83c.66,0,.84.28.89.89l.14,2a10.61,10.61,0,0,1,7.27-3.28C91.87,362.52,92.19,362.8,92.19,363.41Z"/><path class="cls-1" d="M97.6,368.84c0-3.75,2.42-6.32,8.81-6.32,6.57,0,8.81,2.57,8.81,6.32V385.2c0,.65-.23.93-.84.93H112c-.66,0-.84-.28-.89-.93l-.09-1.36a11.65,11.65,0,0,1-7.37,2.67c-4.33,0-6.57-2.63-6.57-5.67v-2.25c0-3,2.14-5.67,6.48-5.67h7.37v-3.61c0-1.92-1-3.19-4.53-3.19s-4.61,1.13-4.61,3.05v.38c0,.65-.23.93-.89.93H98.44c-.61,0-.84-.28-.84-.93Zm13.29,11.58v-4h-6.44c-2.33,0-3.07,1-3.07,2.86v.93c0,1.83,1,2.63,3.35,2.63A10.26,10.26,0,0,0,110.89,380.42Z"/><path class="cls-1" d="M136.47,363.41v2.15c0,.66-.32.89-.93.94a12.75,12.75,0,0,0-7.22,3v15.7c0,.65-.24.93-.84.93h-2.71c-.65,0-.88-.28-.88-.93V363.78c0-.61.23-.89.88-.89h2.48c.65,0,.83.28.88.89l.14,2a10.61,10.61,0,0,1,7.27-3.28C136.15,362.52,136.47,362.8,136.47,363.41Z"/><path class="cls-1" d="M164.91,363c.6,0,.88.23.88.84v1.87c0,.66-.28.94-.88.94H160.1v12.61c0,2.2,1.17,3.09,4.67,3.09h.93c.6,0,.88.28.88.94v2c0,.66-.28.89-.88.89h-1.54c-6.57,0-8.53-2.29-8.53-6.42V366.64h-2.56c-.66,0-.89-.28-.89-.94v-1.64c0-.61.23-.84.89-.89l2.28-.18h.28v-4.74c0-.65.28-.93.88-.93h2.76c.6,0,.83.28.83.93V363Z"/><path class="cls-1" d="M187,383.84a11.07,11.07,0,0,1-7.46,2.67c-4.28,0-6.57-2.48-6.57-5.95V363.83c0-.66.23-.94.84-.94h2.7c.61,0,.89.28.89.94v15.6c0,2,.89,3.1,3.45,3.1a9.67,9.67,0,0,0,6.06-2.35V363.83c0-.66.23-.94.84-.94h2.75c.6,0,.84.28.84.94v21.41c0,.66-.24.89-.84.89h-2.52c-.65,0-.84-.23-.88-.89Z"/><path class="cls-1" d="M212.21,368.28c0-1.69-1.53-2.48-4.42-2.48s-4.34.79-4.34,2.48v.8c0,1.21,1.12,1.87,2,2.15l7,2.44c2.57.89,4.2,2.39,4.2,4.59v2.63c0,2.9-2.57,5.62-8.86,5.62s-8.81-2.72-8.81-5.62v-1.18c0-.56.23-.84.79-.84h2.47c.61,0,.8.28.8.84v1c0,1.68,1.77,2.48,4.75,2.48s4.76-.8,4.76-2.48v-1.27c0-1.12-.94-1.73-2.48-2.25l-7-2.43A5.35,5.35,0,0,1,199.4,370v-1.73c0-2.91,2.14-5.76,8.43-5.76s8.44,2.85,8.44,5.76v1.13c0,.6-.19.84-.84.84H213c-.56,0-.8-.24-.8-.84Z"/><path class="cls-1" d="M248.71,368.28c0-1.69-1.54-2.48-4.43-2.48s-4.33.79-4.33,2.48v.8c0,1.21,1.12,1.87,2,2.15l7,2.44c2.56.89,4.19,2.39,4.19,4.59v2.63c0,2.9-2.56,5.62-8.85,5.62s-8.82-2.72-8.82-5.62v-1.18c0-.56.24-.84.8-.84h2.47c.6,0,.79.28.79.84v1c0,1.68,1.77,2.48,4.76,2.48s4.75-.8,4.75-2.48v-1.27c0-1.12-.93-1.73-2.47-2.25l-7-2.43a5.34,5.34,0,0,1-3.64-4.74v-1.73c0-2.91,2.15-5.76,8.44-5.76s8.44,2.85,8.44,5.76v1.13c0,.6-.19.84-.84.84H249.5c-.56,0-.79-.24-.79-.84Z"/><path class="cls-1" d="M274.81,383.84a11.1,11.1,0,0,1-7.46,2.67c-4.29,0-6.57-2.48-6.57-5.95V363.83c0-.66.23-.94.84-.94h2.7c.61,0,.89.28.89.94v15.6c0,2,.88,3.1,3.45,3.1a9.69,9.69,0,0,0,6.06-2.35V363.83c0-.66.23-.94.84-.94h2.75c.6,0,.84.28.84.94v21.41c0,.66-.24.89-.84.89h-2.52c-.65,0-.84-.23-.89-.89Z"/><path class="cls-1" d="M305.34,374.65c0,.57-.23.85-.79.85H291.87v4.31c0,1.92.93,3.14,4.66,3.14s4.66-1.22,4.66-3.14v-.52c0-.61.24-.89.89-.89h2.38c.6,0,.88.28.88.89v.8c0,3.84-2.28,6.42-8.9,6.42s-8.91-2.58-8.91-6.42V368.94c0-3.85,2.38-6.42,9-6.42s8.81,2.57,8.81,6.42Zm-13.47-2.48h9.32v-2.95c0-1.88-1.16-3.14-4.66-3.14s-4.66,1.26-4.66,3.14Z"/><path class="cls-1" d="M316.81,362.89c.65,0,.83.28.88.89l.09,1.5a11.73,11.73,0,0,1,7.74-2.76c4.34,0,6.57,2.53,6.57,6V385.2c0,.65-.23.93-.83.93h-2.71c-.6,0-.88-.28-.88-.93V369.59c0-1.92-.89-3.09-3.45-3.09a10.57,10.57,0,0,0-6.34,2.39V385.2c0,.65-.24.93-.84.93h-2.71c-.65,0-.88-.28-.88-.93V363.78c0-.61.23-.89.88-.89Zm6.38-4.36-2-1.21a5.49,5.49,0,0,0-1.87-.9c-.84,0-.88.47-.88,1.79v.32c0,.66-.33.8-.94.8H316c-.6,0-.74-.37-.74-1l0-1.5a3.58,3.58,0,0,1,3.73-3.75,5.47,5.47,0,0,1,2.75.75l2,1.22a5.6,5.6,0,0,0,1.86.89c.8,0,.89-.47.89-1.78v-.33c0-.61.42-.8,1-.8H329c.61,0,.75.43.75,1l-.05,1.49a3.6,3.6,0,0,1-3.77,3.75A5.74,5.74,0,0,1,323.19,358.53Z"/><path class="cls-1" d="M340.34,368.94c0-3.85,2.75-6.42,9.33-6.42s9.32,2.57,9.32,6.42v11.15c0,3.84-2.75,6.42-9.32,6.42s-9.33-2.58-9.33-6.42Zm14.22.37c0-2-1.4-3.14-4.89-3.14s-4.9,1.13-4.9,3.14v10.4c0,2,1.4,3.14,4.9,3.14s4.89-1.12,4.89-3.14Z"/><path class="cls-1" d="M379.5,368.28c0-1.69-1.54-2.48-4.43-2.48s-4.34.79-4.34,2.48v.8c0,1.21,1.12,1.87,2,2.15l7,2.44c2.57.89,4.2,2.39,4.2,4.59v2.63c0,2.9-2.57,5.62-8.86,5.62s-8.81-2.72-8.81-5.62v-1.18c0-.56.23-.84.79-.84h2.47c.61,0,.8.28.8.84v1c0,1.68,1.77,2.48,4.75,2.48s4.76-.8,4.76-2.48v-1.27c0-1.12-.94-1.73-2.48-2.25l-7-2.43a5.35,5.35,0,0,1-3.63-4.74v-1.73c0-2.91,2.14-5.76,8.43-5.76s8.44,2.85,8.44,5.76v1.13c0,.6-.19.84-.84.84h-2.42c-.56,0-.79-.24-.79-.84Z"/><path class="cls-1" d="M142.68,166.78H32.8V134l115-134h38.91V129.15h28.16v37.63H186.69v95.93h-44Zm0-37.63V63.52L87,129.15Z"/><path class="cls-1" d="M358.64,63.91a104.53,104.53,0,0,0-18.38-33.57A86.57,86.57,0,0,0,237.64,8.21a86.39,86.39,0,0,0-28.72,22.57A104.81,104.81,0,0,0,190.4,64.5a128.88,128.88,0,0,0-6.55,41.62v.59a131.37,131.37,0,0,0,6.41,41.63,102.09,102.09,0,0,0,18.22,33.56A87,87,0,0,0,311.4,204a86.29,86.29,0,0,0,28.72-22.58,104.65,104.65,0,0,0,18.52-33.71,128.85,128.85,0,0,0,6.56-41.63v-.58A128.94,128.94,0,0,0,358.64,63.91Zm-39.51,42.8a103.74,103.74,0,0,1-3.06,25.94,66,66,0,0,1-8.89,20.53,44,44,0,0,1-14,13.48,37.05,37.05,0,0,1-36.88-.15,44.62,44.62,0,0,1-14.14-13.63,67.71,67.71,0,0,1-9-20.67,100.8,100.8,0,0,1-3.21-26.09v-.58a99.28,99.28,0,0,1,3.21-25.95A70.53,70.53,0,0,1,242,59.07a42.44,42.44,0,0,1,13.85-13.48,35.28,35.28,0,0,1,18.37-4.84,34.81,34.81,0,0,1,18.22,5,45.86,45.86,0,0,1,14.29,13.78,68.58,68.58,0,0,1,9.19,20.67,99.63,99.63,0,0,1,3.2,25.94Z"/><path class="cls-1" d="M235.48,232.16c0-3.24,2.17-5.24,7.31-5.24,5.32,0,7.28,2,7.28,5.24v12.23c0,.65-.22.94-.87.94h-2.68c-.65,0-.8-.29-.87-.94l-.07-.77a8.3,8.3,0,0,1-5.36,2c-3.55,0-5.25-2.15-5.25-4.55v-1.64c0-2.44,1.89-4.59,5.47-4.59h5v-2.32c0-1.32-.65-2-2.71-2s-2.79.58-2.79,1.89v.25c0,.66-.25.91-.9.91h-2.65c-.65,0-.9-.25-.9-.91Zm10,8.12V238.2h-4.09c-1.37,0-1.73.69-1.73,1.64v.58c0,1.09.76,1.42,1.84,1.42A7,7,0,0,0,245.43,240.28Z"/><path class="cls-1" d="M259.66,227.21c.65,0,.87.26.9.87l.08.88a8.76,8.76,0,0,1,5.79-2c3.33,0,5.21,2,5.21,4.88v12.59c0,.65-.26.94-.87.94h-3c-.61,0-.9-.29-.9-.94V233c0-1.31-.44-1.93-2-1.93a7.34,7.34,0,0,0-4.2,1.64v11.68c0,.65-.21.94-.86.94h-3c-.61,0-.87-.29-.87-.94V228.08c0-.61.26-.87.87-.87Zm4.74-3-1.56-.69a5.25,5.25,0,0,0-1.37-.55c-.47,0-.73.26-.73.88v.22c0,.61-.36.8-.94.8h-1.59c-.62,0-.8-.44-.72-1.06l.14-1.53a3,3,0,0,1,3.15-2.8,4.89,4.89,0,0,1,2.14.47l1.52.73a3.83,3.83,0,0,0,1.37.55c.47,0,.69-.26.69-.88v-.18c0-.62.4-.8,1-.8H269c.65,0,.8.4.76,1.06l-.11,1.42a2.84,2.84,0,0,1-3,2.83A5.5,5.5,0,0,1,264.4,224.19Z"/><path class="cls-1" d="M277.21,232.27c0-3.24,2.5-5.35,7.82-5.35s7.82,2.11,7.82,5.35v8c0,3.28-2.5,5.39-7.82,5.39s-7.82-2.11-7.82-5.39Zm10.9.4c0-1.35-1.05-2-3.08-2s-3.08.61-3.08,2v7.17c0,1.38,1.05,2,3.08,2s3.08-.62,3.08-2Z"/><path class="cls-1" d="M307.69,231.76c0-1.13-1.09-1.49-2.64-1.49s-2.61.36-2.61,1.49v.47a1.48,1.48,0,0,0,1.12,1.31l5.21,1.71c2.25.73,3.48,2,3.48,3.75v1.93c0,2.33-2.06,4.7-7.31,4.7s-7.24-2.37-7.24-4.7v-.84c0-.58.22-.83.83-.83h2.68c.62,0,.83.25.83.83v.62c0,1.13,1.27,1.53,2.9,1.53s2.93-.4,2.93-1.53v-.65c0-.66-.47-1-1.63-1.39L301,236.89a4.44,4.44,0,0,1-2.86-3.86v-1.27c0-2.33,1.7-4.84,6.95-4.84s6.92,2.51,6.92,4.84v.69c0,.62-.18.84-.84.84h-2.67c-.58,0-.8-.22-.8-.84Z"/></g></g></svg>