<svg xmlns="http://www.w3.org/2000/svg" viewBox="0 0 287.88 390.02"><defs><style>.cls-1{fill:#fff;}</style></defs><title>nave</title><g id="Capa_2" data-name="Capa 2"><g id="Layer_1" data-name="Layer 1"><path class="cls-1" d="M203.83,323.68H168.05V276.13H131.94v47.73H102.78c-6.76,0-6.76,0-9-6.28-12.58-35.34-25.07-70.7-37.86-106-1.48-4.07-4.58-7.55-6.82-11.12-4.3,8.89-8.39,17.43-12.62,25.9a3.48,3.48,0,0,1-2.61,1.41c-6.5.12-13,.18-19.49,0a4.65,4.65,0,0,1-3.28-2.11C7.46,218.84,4,211.91.59,205A6.6,6.6,0,0,1,0,202.1Q0,174,0,145.86a16.9,16.9,0,0,1,.19-1.71H29l.28-.71c-4.68-3.15-9.25-6.47-14.07-9.38-2.58-1.57-3.14-3.46-3.38-6.32-.47-5.57.86-9.87,6.42-11.78,7.89-2.7,7.3-9.84,8.61-15.93C34.75,63.37,55.32,36,87.38,17A119.53,119.53,0,0,1,164,.92c35.77,4.24,64.5,21.3,86.43,49.77,13.23,17.17,21,36.66,24.1,58.08.22,1.5,1.53,2.94,2.59,4.18a13.77,13.77,0,0,0,3,2.16c7.91,5.14,8,5.14,7.52,14.4a4.73,4.73,0,0,1-1.94,3.49c-7.95,3.89-11.6,9.77-13.08,18.88-3.17,19.51-11.88,37-24.46,52.29-4.78,5.82-6.25,13-8.72,19.68-8,21.88-15.76,43.88-23.6,65.83C211.86,301.05,207.83,312.42,203.83,323.68ZM116.14,84c22.58-15.92,44.89-15.86,67.56.07l21.74-58c-.78-.48-1.19-.75-1.62-1-13.84-7.4-28.64-11.21-44.23-12.7-22.1-2.1-42.94,1.53-62.49,12.22-2.28,1.25-2.58,2.31-1.61,4.65,2.75,6.69,5.21,13.5,7.76,20.27C107.54,61,111.8,72.42,116.14,84Zm-8.31,42.13c-.13,21.92,18.66,41.19,39.7,42,24.13.92,45.66-18.41,44.43-44.41-1-21-18.08-39.32-40.65-39.77C126.66,83.47,108,101.9,107.83,126.14ZM261,149.68a32.19,32.19,0,0,0-3.52,2.39c-3.56,3.19-7.63,4-12.38,3.9-15.87-.27-31.74-.14-47.61,0a6.57,6.57,0,0,0-4.07,1.69c-3.69,3.51-7,7.44-10.79,10.84-1.91,1.7-2.9,3.19-2.88,5.86.13,17.62.06,35.24.06,52.86v8.51C221.6,225.74,254.6,187.77,261,149.68ZM120,180a30.54,30.54,0,0,1,0-3.52c.56-3.92-.76-6.62-4.08-9.1a50.25,50.25,0,0,1-9.06-9.36,5.18,5.18,0,0,0-4.65-2.22q-42.91.06-85.82,0H11.81c0,15.14,0,29.74,0,44.34a7.47,7.47,0,0,0,1,3.14c1.71,3.47,3.53,6.89,5.29,10.34,1.24,2.42,9.49,3.82,10.67,1.46,2.85-5.7,7.42-10.73,7.23-17.72-.15-5.7,0-11.4,0-17.39ZM84.47,33.39c-18.31,7.79-47.33,51.76-45.21,68.4a32.45,32.45,0,0,0,3.48-2.24C46.16,96.65,50,95.91,54.48,96c15.73.23,31.48.1,47.22.08,5.24,0,6-1.11,4.15-6.1C102.36,80.62,98.74,71.34,95.21,62Q89.81,47.73,84.47,33.39Zm176.87,68.38c-6.48-29-22.55-51.14-45.7-68.85a8.59,8.59,0,0,0-.88,1.3q-10.48,28.17-20.92,56.37c-1.56,4.24-.62,5.45,3.86,5.45,14,0,28,.27,41.92-.09,7.55-.2,14.63.19,20.5,5.61C260.26,101.7,260.56,101.65,261.34,101.77ZM155.88,216.18v47.46c3.25,1.08,4.79-.06,6.41-2.77a40.44,40.44,0,0,0,5.84-22.66c-.52-18.1-.15-36.23-.15-54.35v-3.79H131.83v4.6c0,17.74.35,35.49-.17,53.22a41.84,41.84,0,0,0,5.9,23.06c1.63,2.8,3.24,3.69,6.55,2.59V216.18ZM24.27,125.91c9,6.06,17.39,11.72,25.83,17.24A7.47,7.47,0,0,0,54,144c8.24.08,16.47,0,24.7.05H99.48c-4.6-12.18-4.3-24-.3-35.82a10.09,10.09,0,0,0-1.49-.31q-22.26,0-44.54,0a4.66,4.66,0,0,0-2.45.59C42.06,114.15,33.46,119.85,24.27,125.91ZM200.4,144.05c11.54,0,22.3-.53,33,.16,10.31.65,19.36-1.16,27.22-8.22,2.66-2.39,6-4,9-6.05,1.81-1.22,3.57-2.52,5.74-4-8.51-5.68-16.43-11.09-24.5-16.25A11.68,11.68,0,0,0,245,108c-13.61-.14-27.23-.07-40.84,0-1.07,0-2.14.11-3.68.2C204.71,120.09,204.91,131.83,200.4,144.05ZM73.73,226c.51,1.82.68,2.63,1,3.4,2.54,7.15,5.11,14.28,7.66,21.43q10.35,29,20.73,58c.44,1.21,1.58,3,2.49,3.05,4.68.31,9.39.14,14.25.14V248.26A129.45,129.45,0,0,1,73.73,226Zm106.1,86c4.32,0,8.08-.27,11.78.07,3.24.3,4.51-1,5.52-3.91,7.89-22.43,16-44.79,23.94-67.19,1.64-4.62,3.16-9.29,4.89-14.39a13.66,13.66,0,0,0-1.62.73,123.92,123.92,0,0,1-42.22,20.15c-2.4.62-2.32,2.09-2.31,3.9q0,24.9,0,49.8Zm-123-120c16.19,22.41,37,36.63,62.82,44V192Z"/><path class="cls-1" d="M144.3,324.18h11.3V349H144.3Z"/><path class="cls-1" d="M144.3,365.24h11.3V390H144.3Z"/><path class="cls-1" d="M179.79,47.94v11.7H168V48l-.12.13,12,0Z"/><path class="cls-1" d="M143.89,48.06l11.94-.1-.13-.11V59.62H144V47.94Z"/><path class="cls-1" d="M119.89,48.06l12-.09-.13-.11V59.64H120V47.94Z"/><path class="cls-1" d="M179.91,48.06V36.3h11.64V47.94H179.79Z"/><path class="cls-1" d="M168,48l-12.29-.1.13.11c0-3.82,0-7.64,0-11.68h12.05v11.8Z"/><path class="cls-1" d="M144,47.94l-12.3-.08.13.11V36.28h12V48.06Z"/><path class="cls-1" d="M120,47.94H108.23V36.32h11.66V48.06Z"/><path class="cls-1" d="M149.89,120.06A17.9,17.9,0,1,1,132,138,18.25,18.25,0,0,1,149.89,120.06Zm-6.09,18.1a5.91,5.91,0,0,0,6.36,5.87,6.07,6.07,0,0,0,5.8-6.12,5.84,5.84,0,0,0-6.16-6A6.16,6.16,0,0,0,143.8,138.16Z"/><path class="cls-1" d="M155.53,203.68H144.21v-11.4h11.32Z"/></g></g></svg>