<svg width="61" height="59" viewBox="0 0 61 59" fill="none" xmlns="http://www.w3.org/2000/svg">
<g clip-path="url(#clip0_808_940)">
<path d="M55.8387 44.5575C45.7615 49.5115 30.2032 45.7184 26.3949 44.4023C26.315 44.4771 26.2351 44.6322 26.1552 44.7127C28.2163 46.0288 36.0782 50.3621 40.9941 51.523C44.2485 52.2989 48.9302 52.9138 52.2646 50.1322C53.7719 48.661 55.1992 46.9598 56.3925 45.1035C56.3126 45.0288 56.1527 44.8736 56.0728 44.7931C55.9929 44.7184 55.9129 44.638 55.833 44.5633L55.8387 44.5575Z" fill="#FF4E0E"/>
<path d="M14.171 45.5631C10.1229 42.2355 6.62875 40.4539 2.9804 41.4596C2.9804 41.4596 2.82053 41.5343 2.7406 41.6148C5.12145 48.5803 16.312 59.8734 31.3907 58.9481C31.3907 58.793 31.5506 58.3274 31.5506 58.2527C30.9968 58.0976 30.4373 57.8677 29.8834 57.5573C22.8208 54.4654 17.0257 47.9654 14.171 45.5631Z" fill="#FF4E0E"/>
<path d="M44.5682 53.9944C43.2208 53.7645 41.7877 53.4542 40.4402 53.0634C37.9795 52.368 35.6785 51.5174 33.3776 50.4312C32.1843 49.891 23.8542 45.0921 21.7931 43.8565C16.4776 40.6841 12.4296 40.299 9.2551 39.9082C9.2551 40.0634 9.17517 40.1381 9.17517 40.2185C14.9703 42.8507 18.1448 47.1036 22.4269 50.3565C25.8411 52.9887 29.4895 55.3105 33.3776 56.7013C33.9314 56.9312 34.411 57.0864 34.9649 57.2415C37.8196 58.0174 41.5536 56.8565 42.0275 56.7013C43.4548 56.1611 44.8822 55.4657 46.2354 54.6151L45.9956 54.1496C45.6758 54.1496 44.5682 53.9944 44.5682 53.9944Z" fill="#FF4E0E"/>
<path d="M58.1396 17.1669C56.2326 13.2186 53.5377 9.74162 50.1235 6.95427C46.7092 4.16691 42.7411 2.15542 38.459 0.994496C34.1712 -0.0859638 29.6493 -0.321596 25.2815 0.454266C20.8396 1.14967 16.7116 2.85082 13.0576 5.32783C9.40921 7.80484 6.30897 11.052 4.08799 14.7646C1.87271 18.483 0.519565 22.6612 0.125611 26.9945C-0.274052 31.3278 0.285476 35.6612 1.71284 39.7589C9.64901 36.1209 20.1259 40.3795 25.2815 42.4658C25.9952 42.7761 26.629 43.0864 27.1885 43.2416L25.7611 39.914L24.6478 37.3623C24.6478 37.052 24.7277 36.8221 24.7277 36.5117C24.8876 35.506 25.4414 34.6554 26.235 34.0347C27.2684 37.9025 28.5359 40.1497 29.1697 41.1554C29.2496 41.3106 29.4095 41.5405 29.5694 41.6956L30.1232 41.8508C30.0432 41.6209 29.8834 41.3106 29.8034 41.075C29.3296 39.914 28.456 37.3623 28.0563 33.2589C28.3761 33.1841 28.77 33.1841 29.0898 33.1841C31.7903 33.3393 35.5986 35.3508 41.0739 38.6784C44.5681 40.7646 48.7703 41.1554 50.5174 38.6037H52.7384L51.311 42.937C51.0712 43.4772 50.7572 44.0175 50.3575 44.4083C54.7253 43.3278 58.2138 41.0807 59.9609 37.4428C60.4348 36.2818 60.9943 32.414 60.9943 29.7071C60.9943 25.3738 60.0408 21.1209 58.1396 17.1727V17.1669ZM22.6609 17.4025C22.6609 17.4025 20.28 17.7129 19.5664 17.8681C18.6928 18.0979 18.139 18.6439 18.0591 19.8796C17.8193 21.9658 17.5052 25.4485 17.5052 25.4485H16.8715C16.8715 25.4485 16.4718 21.9658 16.3177 19.8796C16.1578 18.6439 15.6839 18.0979 14.8903 17.9428C14.0967 17.7129 11.7958 17.4025 11.7958 17.4025V16.7819C11.7958 16.7819 14.1766 16.4715 14.9702 16.2416C15.3642 16.1669 15.6839 15.9313 15.9237 15.7014C16.2435 15.4715 16.3976 15.1612 16.4775 14.7704C16.6374 13.6899 16.8772 12.6037 16.9514 11.5232H17.5052C17.5052 11.5232 17.745 14.0002 17.9791 14.7704C18.0591 15.1554 18.2989 15.4658 18.5329 15.7014C18.7727 16.0117 19.0868 16.1669 19.4864 16.2416C20.5198 16.4715 21.5476 16.7071 22.6609 16.7819V17.4025ZM37.9794 13.2244C39.0928 13.2244 40.2004 13.5347 41.0739 14.0002L40.5201 16.2416C38.9329 14.9255 37.0259 14.2301 34.9648 14.075L34.8849 13.7646C35.8384 13.3796 36.946 13.1439 37.9794 13.2244ZM48.9302 38.5979L48.6904 38.6727C46.7834 36.5864 44.4026 35.0347 41.7876 34.029C40.3603 30.391 40.2803 26.3681 41.5478 22.6554C39.7208 21.8796 37.7396 21.4198 35.7527 21.2646L35.6728 21.4945C37.26 21.7244 38.9272 22.2704 40.3546 23.0405C38.6075 27.0635 38.5275 31.6267 40.0348 35.7301C40.0348 35.8853 40.1148 35.96 40.1148 36.0405C35.747 32.9485 31.7047 31.2416 28.7643 31.2416C27.7309 31.2416 26.7774 31.4715 25.9096 32.0175L26.1494 33.6439C25.1959 32.0175 24.6421 30.1612 24.722 28.3048C24.722 26.4485 25.3558 24.5922 26.3892 23.0462C27.3427 22.506 28.3761 22.1152 29.4837 21.8106C29.8834 20.8796 30.2773 19.9543 30.7512 19.1037C33.606 17.5577 36.7804 16.7818 40.0348 16.8623C43.2093 16.937 46.3838 17.7933 49.1643 19.414C47.971 21.5807 47.1774 23.8221 46.7834 26.2244C46.1497 30.4773 46.8634 34.8106 48.9245 38.6037L48.9302 38.5979Z" fill="#FF4E0E"/>
</g>
<defs>
<clipPath id="clip0_808_940">
<rect width="61" height="59" fill="white"/>
</clipPath>
</defs>
</svg>
