<svg width="58" height="58" viewBox="0 0 58 58" fill="none" xmlns="http://www.w3.org/2000/svg">
<g clip-path="url(#clip0_803_924)">
<path d="M26.3388 20.9921H27.7963C27.6719 19.6291 26.5179 18.5547 25.1201 18.5547C23.7224 18.5547 22.5733 19.6291 22.444 20.9921H23.9164C24.0656 20.425 24.568 19.9972 25.1201 19.9972C25.722 19.9972 26.2244 20.425 26.3388 20.9921Z" fill="#FF4E0E"/>
<path d="M34.1484 20.9921H35.6059C35.4815 19.6291 34.3275 18.5547 32.9297 18.5547C31.5319 18.5547 30.3829 19.6291 30.2535 20.9921H31.721C31.8652 20.4051 32.3427 19.9972 32.9247 19.9972C33.5067 19.9972 34.029 20.425 34.1434 20.9921H34.1484Z" fill="#FF4E0E"/>
<path d="M52.1801 43.6741C52.1801 35.7501 45.7334 29.2985 37.8045 29.2985H36.0883L36.6007 28.8607C36.9439 28.5672 37.2772 28.234 37.5707 27.8907L37.6453 27.8062H38.8043C41.3561 27.8062 43.4304 25.7319 43.4304 23.1801V21.3048L43.5398 21.2302C44.6839 20.4642 45.3703 19.1858 45.3703 17.8079C45.3703 16.43 44.669 15.1218 43.5448 14.3856L43.4353 14.311V14.1816C43.2762 6.27753 36.9638 0.0497427 29.0497 0C29.0199 0 28.9901 0 28.9602 0C21.2202 0 14.8233 6.3422 14.6741 14.1816V14.311L14.5647 14.3856C13.4355 15.1367 12.7341 16.4201 12.6844 17.8178C12.6844 20.0861 14.5348 21.9365 16.813 21.9365H17.6686L17.7034 22.1455C18.1312 24.7022 19.4593 27.07 21.454 28.816L21.9515 29.2537H20.2453C12.3163 29.2537 5.86964 35.7003 5.86964 43.6293V56.5624H0V58.005H58V56.5624H52.1304L52.1801 43.6791V43.6741ZM36.6156 30.741L32.4372 39.048H30.1391L34.3175 30.741H36.6156ZM29.0497 38.1576L25.5429 31.2036L26.0751 31.3429C27.0451 31.5966 28.0698 31.7309 29.0448 31.7309C30.0197 31.7309 30.9698 31.6015 32.0194 31.3429L32.5467 31.2086L29.0448 38.1527L29.0497 38.1576ZM41.9828 23.1801C41.9828 24.7768 40.8238 26.0901 39.2321 26.3089L38.7247 26.3786L38.9834 25.9358C39.6449 24.7967 40.0926 23.5532 40.3463 22.1355L40.3811 21.9316H41.2367C41.3014 21.9316 41.376 21.9216 41.4506 21.9117C41.5501 21.8967 41.6496 21.8818 41.7341 21.8818H41.9828V23.1751V23.1801ZM43.9228 17.8079C43.9228 19.2902 42.719 20.494 41.2367 20.494H40.4906V15.1218H41.2367C42.719 15.1218 43.9228 16.3256 43.9228 17.8079ZM17.6089 20.494H16.8628C15.3804 20.494 14.1767 19.2902 14.1767 17.8079C14.1767 16.3256 15.3804 15.1218 16.8628 15.1218H17.6089V20.494ZM17.7184 13.6792H16.8628C16.8031 13.6792 16.7384 13.6892 16.6787 13.6991C16.5892 13.7141 16.5046 13.729 16.4151 13.729H16.1465L16.1664 13.4604C16.6738 6.75009 22.3345 1.49228 29.0497 1.49228C35.765 1.49228 41.4208 6.75009 41.9331 13.4604L41.953 13.729H41.6844C41.5949 13.729 41.5103 13.7141 41.4208 13.6991C41.3611 13.6892 41.2964 13.6792 41.2367 13.6792H40.3811L40.3463 13.4703C39.4012 7.93894 34.6508 3.92967 29.0497 3.92967C23.4487 3.92967 18.7033 7.94391 17.7532 13.4703L17.7184 13.6792ZM19.0515 14.2961C19.6235 9.20738 23.9014 5.37221 29 5.37221C34.5413 5.37221 39.048 9.859 39.048 15.3705V15.6292L38.7894 15.6192C31.323 15.3556 26.8611 12.3014 26.8611 9.50086C26.8611 9.08799 26.5278 8.75472 26.1149 8.75472C25.7021 8.75472 25.3688 9.08799 25.3688 9.50086C25.3688 12.0278 22.7722 14.2065 19.325 14.5746L19.0166 14.6094L19.0515 14.301V14.2961ZM19.0515 20.2453V16.0371L19.2803 16.0172C22.1405 15.7834 24.7221 14.3756 26.0055 12.3511L26.1945 12.0477L26.4134 12.3312C28.4479 15.0124 33.3177 16.8678 38.8093 17.0568L39.048 17.0667V20.2403C39.048 22.419 38.3417 24.4983 37.0086 26.2592L36.934 26.3587H29.2487V27.8012H35.5859L34.9691 28.2489C34.4916 28.5971 33.8499 29.0398 33.1386 29.3681C31.8353 29.9551 30.4326 30.2485 29.0249 30.2485C27.6172 30.2485 26.1995 29.9551 24.8763 29.3681C21.3396 27.7316 19.0564 24.1501 19.0564 20.2353L19.0515 20.2453ZM23.7322 30.741L27.8609 39.048H25.5628L21.4341 30.741H23.7322ZM10.7444 43.6741V56.6072H7.31218V43.6741C7.31218 36.7549 12.7242 31.0991 19.6384 30.7907H19.7976L23.9312 39.048H15.3705C12.8187 39.048 10.7444 41.1223 10.7444 43.6741ZM45.813 56.6072H12.187V43.6741C12.187 41.9182 13.6146 40.4906 15.3705 40.4906H42.6295C44.3854 40.4906 45.813 41.9182 45.813 43.6741V56.6072ZM50.7376 56.6072H47.3053V43.6741C47.3053 41.1223 45.231 39.048 42.6792 39.048H34.1185L38.2521 30.7858H38.4113C45.3206 31.0991 50.7376 36.7599 50.7376 43.6741V56.6072Z" fill="#FF4E0E"/>
<path d="M52.1801 11.9883H50.7375V13.4308H52.1801V11.9883Z" fill="#FF4E0E"/>
<path d="M52.1801 15.918H50.7375V17.3605H52.1801V15.918Z" fill="#FF4E0E"/>
<path d="M52.1801 19.7969H50.7375V21.2394H52.1801V19.7969Z" fill="#FF4E0E"/>
<path d="M7.31217 20.4941H5.86963V21.9367H7.31217V20.4941Z" fill="#FF4E0E"/>
<path d="M7.31217 24.373H5.86963V25.8156H7.31217V24.373Z" fill="#FF4E0E"/>
<path d="M7.31217 28.3027H5.86963V29.7453H7.31217V28.3027Z" fill="#FF4E0E"/>
<path d="M26.4631 45.9619V47.3049H27.3585V46.9567H28.7513V51.1848H28.3534V52.0802H30.2933V51.1848H29.8456V46.9567H31.1887V47.3049H32.0841V45.9121L26.4631 45.9619Z" fill="#FF4E0E"/>
</g>
<defs>
<clipPath id="clip0_803_924">
<rect width="58" height="58" fill="white"/>
</clipPath>
</defs>
</svg>
