<svg width="36" height="36" viewBox="0 0 36 36" fill="none" xmlns="http://www.w3.org/2000/svg">
<path d="M6.68031 35.9988C6.12361 35.9988 5.5669 35.8151 5.19577 35.6314C4.26794 35.0804 3.8968 34.162 3.8968 33.2437V29.0192C0.927729 25.162 -0.37124 20.3865 0.185462 15.611C1.29886 7.71305 7.79371 1.28448 15.5875 0.36611C21.1545 -0.368584 26.7215 1.46815 30.6185 5.32529C34.5154 9.18244 36.5566 14.509 35.8143 20.0192C34.8865 28.1008 28.3916 34.5294 20.2267 35.6314C17.0721 35.9988 13.7319 35.6314 10.7628 34.3457L7.79371 35.8151C7.60814 35.8151 7.23701 35.9988 6.68031 35.9988ZM15.9587 2.75387C9.27825 3.48856 3.52567 8.99877 2.7834 15.7947C2.2267 20.2028 3.3401 24.4273 6.12361 27.7335C6.30917 27.9171 6.49474 28.2845 6.49474 28.4682V33.06C6.49474 33.2437 6.49474 33.2437 6.68031 33.4273C6.68031 33.4273 6.86587 33.4273 7.05144 33.4273L10.3916 31.7743C10.7628 31.5906 11.1339 31.5906 11.505 31.7743C14.2886 33.06 17.2576 33.4273 20.0411 33.06C26.9071 32.1416 32.6597 26.4477 33.402 19.6518C33.9587 14.8763 32.2886 10.2845 28.9483 6.97836C25.4226 3.67223 20.7834 2.01917 15.9587 2.75387Z" fill="white"/>
<path d="M9.09286 21.8555L15.031 13.5902C15.2166 13.2229 15.7733 13.0392 16.33 13.4065L20.2269 16.3453C20.4124 16.529 20.7836 16.529 21.1547 16.3453L25.9795 12.8555C26.7217 12.4882 27.464 13.2229 27.0929 13.9576L22.2681 22.2229C22.0825 22.5902 21.5258 22.7739 21.1547 22.5902L15.7733 19.4678C15.5877 19.2841 15.2166 19.2841 15.031 19.4678L10.2063 23.1412C9.46399 23.3249 8.72172 22.5902 9.09286 21.8555Z" fill="white"/>
</svg>
