<svg width="164" height="53" viewBox="0 0 164 53" fill="none" xmlns="http://www.w3.org/2000/svg">
<g clip-path="url(#clip0_965_252)">
<path d="M103.468 11.546H103.18V35.2867H103.468V11.546Z" fill="#FF4E0E"/>
<path d="M159.574 16.9349C156.636 13.981 153.053 12.4841 148.914 12.4841C145.669 12.4841 142.761 13.4122 140.25 15.2384L143.842 1.62662H163.057V0H142.661L137.907 17.7532L139.237 18.1024H139.525V17.9527C142.116 15.408 145.272 14.1207 148.924 14.1207C152.576 14.1207 155.832 15.4579 158.452 18.0825C161.072 20.717 162.392 23.9403 162.392 27.6626C162.392 31.3849 161.062 34.6082 158.452 37.2427C155.832 39.8772 152.636 41.2045 148.924 41.2045C145.212 41.2045 142.026 39.8673 139.416 37.2128C138.9 36.7238 138.433 36.1949 138.046 35.646L137.937 35.4864L136.637 36.4643L136.746 36.614C137.183 37.2227 137.689 37.8115 138.255 38.3803C141.193 41.3342 144.775 42.8311 148.914 42.8311C153.053 42.8311 156.636 41.3342 159.574 38.3803C162.511 35.4265 164 31.824 164 27.6626C164 23.5012 162.511 19.8987 159.574 16.9448V16.9349Z" fill="#FF4E0E"/>
<path d="M134.979 25.4672V2.33521H133.679V25.4672H120.41L128.806 2.33521H127.446L119.05 25.4672H118.961V26.7745H133.679V33.251H134.979V26.7745H140.508V25.4672H134.979Z" fill="#FF4E0E"/>
<path d="M141.768 51.9422H137.868L137.461 52.8304H136.875L139.595 46.9725H140.051L142.78 52.8304H142.185L141.778 51.9422H141.768ZM141.52 51.4133L139.823 47.7509L138.116 51.4133H141.52Z" fill="#FF4E0E"/>
<path d="M143.525 46.9725H143.922L147.584 51.7825V46.9725H148.11V52.8303H147.703L144.041 48.0303V52.8303H143.515V46.9725H143.525ZM147.147 45.5854V46.1342C146.899 46.224 146.671 46.2739 146.453 46.2739C146.254 46.2739 146.046 46.234 145.837 46.1642C145.629 46.0943 145.411 46.0544 145.202 46.0544C145.004 46.0544 144.775 46.1043 144.507 46.2041V45.6552C144.756 45.5654 144.984 45.5155 145.202 45.5155C145.42 45.5155 145.659 45.5554 145.867 45.6253C146.076 45.6951 146.274 45.735 146.463 45.735C146.651 45.735 146.889 45.6852 147.157 45.5854H147.147Z" fill="#FF4E0E"/>
<path d="M155.365 49.8964C155.365 50.7546 155.068 51.4931 154.462 52.1018C153.857 52.7106 153.132 53.0099 152.279 53.0099C151.425 53.0099 150.691 52.7106 150.085 52.1018C149.48 51.4931 149.182 50.7646 149.182 49.8964C149.182 49.0282 149.48 48.3097 150.085 47.701C150.691 47.0922 151.415 46.7928 152.279 46.7928C153.142 46.7928 153.857 47.0922 154.462 47.701C155.068 48.3097 155.365 49.0382 155.365 49.8964ZM152.279 47.3217C151.564 47.3217 150.959 47.5712 150.462 48.0702C149.966 48.5692 149.718 49.1779 149.718 49.8864C149.718 50.595 149.966 51.2137 150.462 51.7126C150.959 52.2116 151.564 52.4611 152.279 52.4611C152.993 52.4611 153.589 52.2116 154.085 51.7126C154.581 51.2137 154.829 50.6049 154.829 49.8864C154.829 49.1679 154.581 48.5692 154.085 48.0702C153.589 47.5712 152.983 47.3217 152.279 47.3217Z" fill="#FF4E0E"/>
<path d="M159.693 47.9604C159.534 47.7808 159.325 47.6311 159.048 47.5114C158.77 47.3816 158.482 47.3217 158.174 47.3217C157.757 47.3217 157.42 47.4215 157.172 47.6311C156.924 47.8407 156.795 48.0802 156.795 48.3596C156.795 48.6191 156.884 48.8386 157.063 49.0282C157.241 49.2178 157.469 49.3575 157.747 49.4473L159.206 49.8565C159.554 49.9563 159.842 50.1459 160.06 50.4053C160.278 50.6648 160.387 50.9941 160.387 51.3833C160.387 51.8224 160.199 52.2016 159.832 52.5309C159.464 52.8503 158.948 53.0099 158.303 53.0099C157.777 53.0099 157.321 52.8902 156.933 52.6607C156.536 52.4311 156.239 52.1318 156.02 51.7625L156.477 51.4731C156.675 51.7925 156.943 52.042 157.281 52.2216C157.618 52.4012 157.956 52.481 158.293 52.481C158.809 52.481 159.196 52.3713 159.464 52.1417C159.722 51.9122 159.851 51.6528 159.851 51.3634C159.851 51.1239 159.772 50.9143 159.623 50.7247C159.474 50.5451 159.256 50.4153 158.988 50.3455L157.628 49.9563C157.231 49.8266 156.904 49.627 156.656 49.3575C156.398 49.0781 156.278 48.7588 156.278 48.3696C156.278 47.9405 156.457 47.5712 156.804 47.2619C157.152 46.9525 157.618 46.7928 158.184 46.7928C158.621 46.7928 159.008 46.8727 159.345 47.0423C159.683 47.212 159.961 47.4116 160.169 47.661L159.693 47.9704V47.9604Z" fill="#FF4E0E"/>
<path d="M40.2556 11.3565C38.7073 11.3565 37.4469 10.0891 37.4469 8.53234C37.4469 6.97557 38.7073 5.7082 40.2556 5.7082C41.8039 5.7082 43.0644 6.97557 43.0644 8.53234C43.0644 10.0891 41.8039 11.3565 40.2556 11.3565ZM51.5999 27.8922C51.1929 27.8922 50.8555 27.5529 50.8555 27.1437V3.41296H46.0518V28.1816C46.0518 30.1575 47.6497 31.7641 49.6149 31.7641H53.0787V27.8822H51.5999V27.8922ZM0 5.27909V11.3964H3.86081V9.63006H9.73638V28.0219H7.97967V31.9038H16.2869V28.0219H14.5301V9.64004H20.4057V11.4064H24.2665V5.28907H0V5.27909ZM20.4156 14.1108V27.8822H18.6589V31.7641H30.3902V27.8822H25.2193V17.9827H30.3902V14.1008H20.4156V14.1108ZM32.673 14.1108V17.9927H37.8439V27.8922H32.673V31.7741H44.4043V27.8922H42.6475V14.1207H32.673V14.1108ZM63.0334 27.8822C61.4851 27.7824 58.1602 27.0739 58.1602 22.8925C58.1602 18.7112 61.6836 17.8031 63.0334 17.8031C64.3832 17.8031 64.7107 17.8829 65.3856 18.0226V21.1961H69.2464V15.2185C69.2464 15.2185 67.7974 14.5898 66.6362 14.3303C65.7131 14.1307 64.7405 13.9012 63.0433 13.9012C60.9392 13.9012 53.6047 14.6696 53.6047 22.9324C53.6047 31.1953 60.9392 31.7641 63.0433 31.7641H68.0157V27.8822H63.0433H63.0334ZM88.0542 22.9324C88.0542 23.5711 88.0046 24.1599 87.9252 24.7187H75.5488C75.7969 27.0439 78.7843 27.8822 80.154 27.8822H85.3745V31.7641H80.4021C78.298 31.7641 70.9634 31.2053 70.9634 22.9324C70.9634 15.5877 76.9482 13.9411 79.5188 13.9411C82.4962 13.9411 88.0542 16.0168 88.0542 22.9324ZM83.5483 21.1961V21.0364C83.5185 19.2501 81.732 17.7133 79.5386 17.7133C77.3452 17.7133 75.6083 19.28 75.5388 21.0364V21.1961H83.5483ZM10.848 40.5958C10.6098 40.5958 10.5105 40.6956 10.4411 40.9251L8.00944 49.148C7.93997 49.3576 8.01937 49.4774 8.24764 49.4774H9.30961C9.54781 49.4774 9.61728 49.3576 9.68676 49.148L10.1433 47.5514H12.5551L13.0215 49.148C13.091 49.3576 13.1605 49.4774 13.3987 49.4774H14.5698C14.7882 49.4774 14.8676 49.3576 14.808 49.148L12.3963 40.9251C12.3268 40.7056 12.2176 40.5958 11.9794 40.5958H10.848ZM12.1878 46.1543H10.5403L10.9869 44.6873C11.1656 44.0985 11.3145 42.9808 11.3939 42.3122C11.4633 42.9808 11.5924 44.0885 11.771 44.6973L12.1978 46.1443L12.1878 46.1543ZM22.3808 46.6333C22.3808 46.3938 22.3014 46.3039 22.083 46.3039H21.0012C20.763 46.3039 20.6737 46.3938 20.6737 46.6333V47.1322C20.6737 47.7809 20.2171 48.1102 19.3437 48.1102C18.4703 48.1102 18.0336 47.7809 18.0336 47.1322V42.9309C18.0336 42.2823 18.4803 41.953 19.3437 41.953C20.2072 41.953 20.6737 42.2823 20.6737 42.9309V43.2403C20.6737 43.4798 20.763 43.5696 21.0012 43.5696H22.083C22.3014 43.5696 22.3808 43.4798 22.3808 43.2403V42.6116C22.3808 41.5139 21.6761 40.486 19.3239 40.486C16.9717 40.486 16.267 41.5139 16.267 42.6116V47.4416C16.267 48.5393 16.9717 49.5672 19.3239 49.5672C21.6761 49.5672 22.3808 48.5393 22.3808 47.4416V46.6333ZM26.579 40.5858C26.3408 40.5858 26.2416 40.6856 26.1721 40.9151L23.7405 49.1381C23.671 49.3476 23.7504 49.4674 23.9787 49.4674H25.0407C25.2789 49.4674 25.3483 49.3476 25.4178 49.1381L25.8744 47.5414H28.2861L28.7526 49.1381C28.8221 49.3476 28.8916 49.4674 29.1297 49.4674H30.3009C30.5192 49.4674 30.5986 49.3476 30.5391 49.1381L28.1273 40.9151C28.0579 40.6956 27.9487 40.5858 27.7105 40.5858H26.579ZM27.9189 46.1443H26.2714L26.7081 44.6773C26.8867 44.0885 27.0356 42.9709 27.115 42.3022C27.1845 42.9709 27.3135 44.0786 27.4921 44.6873L27.9189 46.1343V46.1443ZM35.442 49.4574C37.7942 49.4574 38.6081 48.4295 38.6081 47.3318V42.7114C38.6081 41.6137 37.7942 40.5858 35.442 40.5858H32.6134C32.3752 40.5858 32.3057 40.6856 32.3057 40.9251V49.1281C32.3057 49.3476 32.3752 49.4674 32.5737 49.4674H35.442V49.4574ZM35.442 42.0428C36.3253 42.0428 36.8613 42.3721 36.8613 43.0208V47.0125C36.8613 47.6611 36.3253 47.9904 35.442 47.9904H34.0525V42.0328H35.442V42.0428ZM45.8037 49.4574C46.0419 49.4574 46.1312 49.3676 46.1312 49.1281V48.3098C46.1312 48.0703 46.0419 48.0004 45.8037 48.0004H42.6773V45.5755H45.4563C45.6945 45.5755 45.7938 45.4856 45.7938 45.2661V44.4777C45.7938 44.2382 45.6945 44.1684 45.4563 44.1684H42.6773V42.0528H45.6747C45.893 42.0528 46.0022 41.963 46.0022 41.7234V40.9051C46.0022 40.6656 45.9029 40.5958 45.6747 40.5958H41.2283C40.9901 40.5958 40.9206 40.6956 40.9206 40.9351V49.1381C40.9206 49.3776 41 49.4774 41.2283 49.4774H45.8037V49.4574ZM56.0959 40.9051C56.0959 40.6856 56.0165 40.5758 55.7882 40.5758H54.7064C54.5476 40.5758 54.4483 40.6257 54.4086 40.7355L52.4832 45.336C52.3839 45.5755 52.245 45.9247 52.1457 46.2341C52.0266 45.8948 51.9274 45.5555 51.8182 45.306L49.8332 40.7654C49.7836 40.6457 49.7141 40.5858 49.5454 40.5858H48.5231C48.2849 40.5858 48.2154 40.6856 48.2154 40.9151V49.1381C48.2154 49.3576 48.2948 49.4674 48.5231 49.4674H49.5454C49.7836 49.4674 49.8531 49.3676 49.8531 49.1381V44.1883C49.9424 44.5975 50.0714 44.9767 50.1508 45.1663L51.2525 47.7809C51.3418 47.9904 51.451 48.1202 51.6693 48.1202H52.6023C52.8107 48.1202 52.9298 48.0004 53.0191 47.7809L54.0017 45.3659C54.1009 45.1164 54.2498 44.6374 54.3788 44.1684V49.148C54.3788 49.3676 54.4582 49.4774 54.6865 49.4774H55.7683C56.0065 49.4774 56.076 49.3776 56.076 49.148V40.9251L56.0959 40.9051ZM60.304 40.9151C60.304 40.6756 60.2246 40.5758 59.9964 40.5758H58.8649C58.6267 40.5758 58.5572 40.6756 58.5572 40.9151V49.1181C58.5572 49.3576 58.6367 49.4574 58.8649 49.4574H59.9964C60.2346 49.4574 60.304 49.3576 60.304 49.1181V40.9151ZM64.8894 40.5758C64.6512 40.5758 64.5519 40.6756 64.4824 40.9051L62.0508 49.1281C61.9814 49.3376 62.0608 49.4574 62.289 49.4574H63.351C63.5892 49.4574 63.6587 49.3376 63.7281 49.1281L64.1847 47.5314H66.5965L67.0629 49.1281C67.1324 49.3376 67.2019 49.4574 67.4401 49.4574H68.6112C68.8296 49.4574 68.909 49.3376 68.8494 49.1281L66.4377 40.9051C66.3682 40.6856 66.259 40.5758 66.0208 40.5758H64.8894ZM66.2292 46.1343H64.5817L65.0283 44.6673C65.207 44.0786 65.3558 42.9609 65.4352 42.2923C65.5047 42.9609 65.6337 44.0686 65.8124 44.6773L66.2392 46.1243L66.2292 46.1343Z" fill="#FF4E0E"/>
</g>
<defs>
<clipPath id="clip0_965_252">
<rect width="164" height="53" fill="white"/>
</clipPath>
</defs>
</svg>
