<svg width="35" height="34" viewBox="0 0 35 34" fill="none" xmlns="http://www.w3.org/2000/svg">
<g clip-path="url(#clip0)">
<path d="M19.524 24.0987C19.5413 24.1071 19.5538 24.1134 19.5626 24.1179L20.2343 24.7705L20.9311 24.0936L23.3009 21.7915C23.8464 21.2616 24.509 21.0117 25.1562 21.0117C25.7977 21.0117 26.4543 21.2572 26.997 21.7775L30.9914 26.0105L31.0063 26.0263L31.0219 26.0415C31.5668 26.5708 31.8125 27.2012 31.8125 27.8034C31.8125 28.4056 31.5668 29.036 31.0219 29.5653L30.9045 29.6793L30.8296 29.8249C30.8301 29.8238 30.8303 29.8237 30.8296 29.8249C30.8261 29.8306 30.801 29.8656 30.6915 29.9568C30.6694 29.9752 30.6385 29.9998 30.6014 30.0295C30.4757 30.1299 30.2784 30.2875 30.1105 30.4507C30.0163 30.5421 29.9295 30.6145 29.816 30.7092C29.733 30.7783 29.6358 30.8594 29.511 30.9685C29.2734 31.1763 28.9903 31.4442 28.7463 31.7852C27.8807 32.7433 26.7298 33.1784 25.3385 33.1784H25.3374H25.3364H25.3353H25.3342H25.3332H25.3321H25.331H25.33H25.3289H25.3278H25.3268H25.3257H25.3246H25.3236H25.3225H25.3214H25.3203H25.3193H25.3182H25.3171H25.3161H25.315H25.3139H25.3129H25.3118H25.3107H25.3097H25.3086H25.3075H25.3065H25.3054H25.3043H25.3033H25.3022H25.3011H25.3001H25.299H25.2979H25.2969H25.2958H25.2947H25.2936H25.2926H25.2915H25.2904H25.2894H25.2883H25.2872H25.2862H25.2851H25.284H25.283H25.2819H25.2808H25.2798H25.2787H25.2776H25.2766H25.2755H25.2744H25.2734H25.2723H25.2712H25.2701H25.2691H25.268H25.2669H25.2659H25.2648H25.2637H25.2627H25.2616H25.2605H25.2595H25.2584H25.2573H25.2563H25.2552H25.2541H25.2531H25.252H25.2509H25.2499H25.2488H25.2477H25.2466H25.2456H25.2445H25.2434H25.2424H25.2413H25.2402H25.2392H25.2381H25.237H25.236H25.2349H25.2338H25.2328H25.2317H25.2306H25.2296H25.2285H25.2274H25.2264H25.2253H25.2242H25.2232H25.2221H25.221H25.2199H25.2189H25.2178H25.2167H25.2157H25.2146H25.2135H25.2125H25.2114H25.2103H25.2093H25.2082H25.2071H25.2061H25.205H25.2039H25.2029H25.2018H25.2007H25.1997H25.1986H25.1975H25.1964H25.1954H25.1943H25.1932H25.1922H25.1911H25.19H25.189H25.1879H25.1868H25.1858H25.1847H25.1836H25.1826H25.1815H25.1804H25.1794H25.1783H25.1772H25.1762H25.1751H25.174H25.1729H25.1719H25.1708H25.1697H25.1687H25.1676H25.1665H25.1655H25.1644H25.1633H25.1623H25.1612H25.1601H25.1591H25.158H25.1569H25.1559H25.1548H25.1537H25.1527H25.1516H25.1505H25.1495H25.1484H25.1473H25.1462H25.1452H25.1441H25.143H25.142H25.1409H25.1398H25.1388H25.1377H25.1366H25.1356H25.1345H25.1334H25.1324H25.1313H25.1302H25.1292H25.1281H25.127H25.126H25.1249H25.1238H25.1227H25.1217H25.1206H25.1195H25.1185H25.1174H25.1163H25.1153H25.1142H25.1131H25.1121H25.111H25.1099H25.1089H25.1078H25.1067H25.1057H25.1046H25.1035H25.1025H25.1014H25.1003H25.0992H25.0982H25.0971H25.096H25.095H25.0939H25.0928H25.0918H25.0907H25.0896H25.0886H25.0875H25.0864H25.0854H25.0843H25.0832H25.0822H25.0811H25.08H25.079H25.0779H25.0768H25.0758H25.0747H25.0736H25.0725H25.0715H25.0704H25.0693H25.0683H25.0672H25.0661H25.0651H25.064H25.0629H25.0619H25.0608H25.0597H25.0587H25.0576H25.0565H25.0555H25.0544H25.0533H25.0523H25.0512H25.0501H25.049H25.048H25.0469H25.0458H25.0448H25.0437H25.0426H25.0416H25.0405H25.0394H25.0384H25.0373H25.0362H25.0352H25.0341H25.033H25.032H25.0309H25.0298H25.0288H25.0277H25.0266H25.0255H25.0245H25.0234H25.0223H25.0213H25.0202H25.0191H25.0181H25.017H25.0159H25.0149H25.0138H25.0127H25.0117H25.0106H25.0095H25.0085H25.0074H25.0063H25.0053H25.0042H25.0031H25.0021H25.001H24.9999H24.9988H24.9978H24.9967H24.9956H24.9946H24.9935H24.9924H24.9914H24.9903H24.9892H24.9882H24.9871H24.986H24.985H24.9839H24.9828H24.9818H24.9807H24.9796H24.9786H24.9775H24.9764H24.9753H24.9743H24.9732H24.9721H24.9711H24.97H24.9689H24.9679H24.9668H24.9657H24.9647H24.9636H24.9625H24.9615H24.9604H24.9593H24.9583H24.9572H24.9561H24.9551H24.954H24.9529H24.9519H24.9508H24.9497H24.9486H24.9476H24.9465H24.9454H24.9444H24.9433H24.9422H24.9412H24.9401H24.939H24.938H24.9369H24.9358H24.9348H24.9337H24.9326H24.9316H24.9305H24.9294H24.9284H24.9273H24.9262H24.9251H24.9241H24.923H24.9219H24.9209H24.9198H24.9187H24.9177H24.9166H24.9155H24.9145H24.9134H24.9123H24.9113H24.9102H24.9091H24.9081H24.907H24.9059H24.9049H24.9038H24.9027H24.9016H24.9006H24.8995H24.8984H24.8974H24.8963H24.8952H24.8942H24.8931H24.892H24.891H24.8899H24.8888H24.8878H24.8867H24.8856H24.8846H24.8835H24.8824H24.8814H24.8803H24.8792H24.8782H24.8771H24.876H24.8749H24.8739H24.8728H24.8717H24.8707H24.8696H24.8685H24.8675H24.8664H24.8653H24.8643H24.8632H24.8621H24.8611H24.86H24.8589H24.8579H24.8568H24.8557H24.8547H24.8536H24.8525H24.8514H24.8504H24.8493H24.8482H24.8472H24.8461H24.845H24.844H24.8429H24.8418H24.8408H24.8397H24.8386H24.8376H24.8365H24.8354H24.8344H24.8333H24.8322H24.8312H24.8301H24.829H24.8279H24.8271C22.5608 33.0135 20.427 32.0911 18.7835 31.3806C18.7348 31.3596 18.6866 31.3387 18.6388 31.3181C14.2278 29.259 10.5135 26.3415 7.31696 22.72C4.6695 19.6328 3.08941 16.9064 1.85712 13.8395C1.80849 13.6754 1.75623 13.5055 1.70229 13.3301C1.32337 12.0979 0.861647 10.5964 0.993774 8.97128C1.1546 7.91722 1.61882 6.9062 2.33738 6.20816L4.88946 3.729C5.4349 3.19914 6.09752 2.94922 6.74476 2.94922C7.33703 2.94922 7.82814 3.15622 8.41776 3.729L9.8761 5.14566L9.87814 5.14765C10.0572 5.32159 10.2908 5.54854 10.6908 5.76894L12.5799 7.77095L12.615 7.80811L12.6537 7.84151C13.2976 8.39754 13.5377 8.97782 13.5377 9.4974C13.5377 10.0266 13.2881 10.6663 12.6133 11.323C12.6125 11.3235 12.5991 11.335 12.565 11.359C12.5219 11.3896 12.471 11.4226 12.3991 11.4692L12.3925 11.4735C12.3285 11.5149 12.2457 11.5686 12.1663 11.6247C12.0859 11.6815 11.9809 11.7602 11.8813 11.8569L11.8781 11.8601L11.8749 11.8632L11.8717 11.8663L11.8685 11.8694L11.8653 11.8725L11.8621 11.8756L11.8589 11.8787L11.8557 11.8818L11.8525 11.885L11.8493 11.8881L11.8461 11.8912L11.8429 11.8943L11.8396 11.8974L11.8364 11.9005L11.8332 11.9036L11.83 11.9067L11.8268 11.9099L11.8236 11.913L11.8204 11.9161L11.8172 11.9192L11.814 11.9223L11.8108 11.9254L11.8076 11.9285L11.8044 11.9316L11.8012 11.9348L11.798 11.9379L11.7948 11.941L11.7916 11.9441L11.7884 11.9472L11.7852 11.9503L11.782 11.9534L11.7788 11.9565L11.7756 11.9597L11.7724 11.9628L11.7692 11.9659L11.7659 11.969L11.7627 11.9721L11.7595 11.9752L11.7563 11.9783L11.7531 11.9815L11.7499 11.9846L11.7467 11.9877L11.7435 11.9908L11.7403 11.9939L11.7371 11.997L11.7339 12.0001L11.7307 12.0032L11.7275 12.0064L11.7243 12.0095L11.7211 12.0126L11.7179 12.0157L11.7147 12.0188L11.7115 12.0219L11.7083 12.025L11.7051 12.0281L11.7019 12.0313L11.6987 12.0344L11.6955 12.0375L11.6922 12.0406L11.689 12.0437L11.6858 12.0468L11.6826 12.0499L11.6794 12.053L11.6762 12.0562L11.673 12.0593L11.6698 12.0624L11.6666 12.0655L11.6634 12.0686L11.6602 12.0717L11.657 12.0748L11.6538 12.0779L11.6506 12.0811L11.6474 12.0842L11.6442 12.0873L11.641 12.0904L11.6378 12.0935L11.6346 12.0966L11.6314 12.0997L11.6282 12.1028L11.625 12.106L11.6218 12.1091L11.6185 12.1122L11.6153 12.1153L11.6121 12.1184L11.6089 12.1215L11.6057 12.1246L11.6025 12.1278L11.5993 12.1309L11.5961 12.134L11.5929 12.1371L11.5897 12.1402L11.5865 12.1433L11.5833 12.1464L11.5801 12.1495L11.5769 12.1527L11.5737 12.1558L11.5705 12.1589L11.5673 12.162L11.5641 12.1651L11.5609 12.1682L11.5577 12.1713L11.5545 12.1744L11.5513 12.1776L11.5481 12.1807L11.5448 12.1838L11.5416 12.1869L11.5384 12.19L11.5352 12.1931L11.532 12.1962L11.5288 12.1993L11.5256 12.2025L11.5224 12.2056L11.5192 12.2087L11.516 12.2118L11.5128 12.2149L11.5096 12.218L11.5064 12.2211L11.5032 12.2242L11.5 12.2274L11.4968 12.2305L11.4936 12.2336L11.4904 12.2367L11.4872 12.2398L11.484 12.2429L11.4808 12.246L11.4776 12.2492L11.4744 12.2523L11.4711 12.2554L11.4679 12.2585L11.4647 12.2616L11.4615 12.2647L11.4583 12.2678L11.4551 12.2709L11.4519 12.2741L11.4487 12.2772L11.4455 12.2803L11.4423 12.2834L11.4391 12.2865L11.4359 12.2896L11.4327 12.2927L11.4295 12.2958L11.4263 12.299L11.4231 12.3021L11.4199 12.3052L11.4167 12.3083L11.4135 12.3114L11.4103 12.3145L11.4071 12.3176L11.4039 12.3207L11.4007 12.3239L11.3974 12.327L11.3942 12.3301L11.391 12.3332L11.3878 12.3363L11.3846 12.3394L11.3814 12.3425L11.3782 12.3456L11.375 12.3488L11.3718 12.3519L11.3686 12.355L11.3654 12.3581L11.3622 12.3612L11.359 12.3643L11.3558 12.3674L11.3526 12.3706L11.3494 12.3737L11.3462 12.3768L11.343 12.3799L11.3398 12.383L11.3366 12.3861L11.3334 12.3892L11.3302 12.3923L11.327 12.3955L11.3237 12.3986L11.3205 12.4017L11.3173 12.4048L11.3141 12.4079L11.3109 12.411L11.3077 12.4141L11.3045 12.4172L11.3013 12.4204L11.2981 12.4235L11.2949 12.4266L11.2917 12.4297L11.2885 12.4328L11.2853 12.4359L11.2821 12.439L11.2789 12.4421L11.2757 12.4453L11.2725 12.4484L11.2693 12.4515L11.2661 12.4546L11.2629 12.4577L11.2597 12.4608L11.2565 12.4639L11.2533 12.467L11.25 12.4702L11.2468 12.4733L11.2436 12.4764L11.2404 12.4795L11.2372 12.4826L11.234 12.4857L11.2308 12.4888L11.2276 12.4919L11.2244 12.4951L11.2212 12.4982L11.218 12.5013L11.2148 12.5044L11.2116 12.5075L11.2084 12.5106L11.2052 12.5137L11.202 12.5169L11.1988 12.52L11.1956 12.5231L11.1924 12.5262L11.1892 12.5293L11.186 12.5324L11.1828 12.5355L11.1796 12.5386L11.1763 12.5418L11.1731 12.5449L11.1699 12.548L11.1667 12.5511L11.1635 12.5542L11.1603 12.5573L11.1571 12.5604L11.1539 12.5635L11.1507 12.5667L11.1475 12.5698L11.1443 12.5729L11.1411 12.576L11.1379 12.5791L11.1347 12.5822L11.1315 12.5853L11.1283 12.5884L11.1251 12.5916L11.1219 12.5947L11.1187 12.5978L11.1155 12.6009L11.1123 12.604L11.1091 12.6071L11.1059 12.6102L11.1026 12.6133L11.0994 12.6165L11.0962 12.6196L11.093 12.6227L11.0898 12.6258L11.0866 12.6289L11.0834 12.632L11.0802 12.6351L11.077 12.6383L11.0738 12.6414L11.0706 12.6445L11.0674 12.6476L11.0642 12.6507L11.061 12.6538L11.0578 12.6569L11.0546 12.66L11.0514 12.6632L11.0482 12.6663L11.045 12.6694L11.0418 12.6725L11.0386 12.6756L11.0354 12.6787L11.0322 12.6818L11.0289 12.6849L11.0257 12.6881L11.0225 12.6912L11.0193 12.6943L11.0161 12.6974L11.0129 12.7005L11.0097 12.7036L11.0065 12.7067L11.0033 12.7098L11.0001 12.713L10.9969 12.7161L10.9937 12.7192L10.9905 12.7223L10.9873 12.7254L10.9841 12.7285L10.9809 12.7316L10.9777 12.7347L10.9745 12.7379L10.9713 12.741L10.9681 12.7441L10.9649 12.7472L10.9617 12.7503L10.9585 12.7534L10.9552 12.7565L10.952 12.7596L10.9488 12.7628L10.9456 12.7659L10.9424 12.769L10.9392 12.7721L10.936 12.7752L10.9328 12.7783L10.9296 12.7814L10.9264 12.7846L10.9232 12.7877L10.92 12.7908L10.9168 12.7939L10.9136 12.797L10.9104 12.8001L10.9072 12.8032L10.904 12.8063L10.9008 12.8095L10.8976 12.8126L10.8944 12.8157L10.8912 12.8188L10.888 12.8219L10.8848 12.825L10.8815 12.8281L10.8783 12.8312L10.8751 12.8344L10.8719 12.8375L10.8687 12.8406L10.8655 12.8437L10.8623 12.8468L10.8591 12.8499L10.8559 12.853L10.8527 12.8561L10.8495 12.8593L10.8463 12.8624L10.8431 12.8655L10.8399 12.8686L10.8367 12.8717L10.8335 12.8748L10.8303 12.8779L10.8271 12.881L10.8239 12.8842L10.8207 12.8873L10.8175 12.8904L10.8143 12.8935L10.8111 12.8966L10.8078 12.8997L10.8046 12.9028L10.8014 12.906L10.7982 12.9091L10.795 12.9122L10.7918 12.9153L10.7886 12.9184L10.7854 12.9215L10.7822 12.9246L10.779 12.9277L10.7758 12.9309L10.7726 12.934L10.7694 12.9371L10.7662 12.9402L10.763 12.9433L10.7598 12.9464L10.7566 12.9495L10.7534 12.9526L10.7502 12.9558L10.747 12.9589L10.7438 12.962L10.7406 12.9651L10.7374 12.9682L10.7341 12.9713L10.7309 12.9744L10.7277 12.9775L10.7245 12.9807L10.7213 12.9838L10.7181 12.9869L10.7149 12.99L10.7117 12.9931L10.7085 12.9962L10.7053 12.9993L10.7021 13.0024L10.6989 13.0056L10.6957 13.0087L10.6925 13.0118L10.6893 13.0149L10.6861 13.018L10.6829 13.0211L10.6797 13.0242L10.6765 13.0273L10.6733 13.0305L10.6701 13.0336L10.6669 13.0367L10.6637 13.0398L10.6604 13.0429L10.6572 13.046L10.654 13.0491L10.6508 13.0523L10.6476 13.0554L10.6444 13.0585L10.6412 13.0616L10.638 13.0647L10.6348 13.0678L10.6316 13.0709L10.6284 13.074L10.6252 13.0772L10.622 13.0803L10.6188 13.0834L10.6156 13.0865L10.6124 13.0896L10.6092 13.0927L10.606 13.0958L10.6028 13.0989L10.5996 13.1021L10.5964 13.1052L10.5932 13.1083L10.59 13.1114L10.5867 13.1145L10.5835 13.1176L10.5803 13.1207L10.5771 13.1238L10.5739 13.127L10.5707 13.1301L10.5675 13.1332L10.5643 13.1363L10.5611 13.1394L10.5579 13.1425L10.5547 13.1456L10.5515 13.1487L10.5483 13.1519L10.5451 13.155L10.5419 13.1581L10.5387 13.1612L10.5355 13.1643L10.5323 13.1674L10.5291 13.1705L10.5259 13.1737L10.5227 13.1768L10.5195 13.1799L10.5163 13.183L10.513 13.1861L10.5098 13.1892L10.5066 13.1923L10.5034 13.1954L10.5002 13.1986L10.497 13.2017L10.4938 13.2048L10.4906 13.2079L10.4874 13.211L10.4842 13.2141L10.481 13.2172L10.4778 13.2203L10.4746 13.2235L10.4714 13.2266L10.4682 13.2297L10.465 13.2328L10.4618 13.2359L10.4586 13.239L10.4554 13.2421L10.4522 13.2452L10.449 13.2484L10.4458 13.2515L10.4426 13.2546L10.4393 13.2577L10.4361 13.2608L10.4329 13.2639L10.4297 13.267L10.4265 13.2701L10.4233 13.2733L10.4201 13.2764L10.4169 13.2795L10.4137 13.2826L10.4105 13.2857L10.4073 13.2888L10.4041 13.2919L10.4009 13.295L10.3977 13.2982L10.3945 13.3013L10.3913 13.3044L10.3881 13.3075L10.3849 13.3106L10.3817 13.3137L10.3785 13.3168L10.3753 13.32L10.3721 13.3231L10.3689 13.3262L10.3656 13.3293L10.3624 13.3324L10.3592 13.3355L10.356 13.3386L10.3528 13.3417L10.3496 13.3449L10.3464 13.348L10.3432 13.3511L10.34 13.3542L10.3368 13.3573L10.3336 13.3604L10.3304 13.3635L10.3272 13.3666L10.324 13.3698L10.3208 13.3729L10.3176 13.376L10.3144 13.3791L10.3112 13.3822L10.308 13.3853L10.3048 13.3884L10.3016 13.3915L10.2984 13.3947L10.2952 13.3978L10.2919 13.4009L10.2887 13.404L10.2855 13.4071L10.2823 13.4102L10.2791 13.4133L10.2759 13.4164L10.2727 13.4196L10.2695 13.4227L10.2663 13.4258L10.2631 13.4289L10.2599 13.432L10.2567 13.4351L10.2535 13.4382L10.2503 13.4414L10.2471 13.4445L10.2439 13.4476L10.2407 13.4507L9.78575 13.8926L9.9916 14.4925C10.3598 15.5655 11.0501 16.4899 11.7792 17.4662C11.8978 17.6251 12.0175 17.7853 12.137 17.9479L12.1592 17.9781L12.1837 18.0066C14.0484 20.1803 16.1058 22.0036 18.3569 23.4697C18.4895 23.577 18.6216 23.6446 18.7196 23.6879C18.8307 23.737 18.9425 23.7731 19.0039 23.7929L19.0148 23.7964C19.0407 23.8048 19.0594 23.8109 19.0753 23.8162C19.2547 23.9687 19.4261 24.0515 19.5107 24.0923C19.5154 24.0946 19.5199 24.0967 19.524 24.0987Z" stroke="white" stroke-width="2"/>
<path d="M18.9583 8.14583C20.9635 8.5 22.6042 9.38542 24.0625 10.8021C25.5208 12.2187 26.4323 13.8125 26.7969 15.7604C26.7969 16.2917 27.3438 16.6458 27.7083 16.6458H27.8906C28.4375 16.6458 28.8021 16.1146 28.6198 15.5833C28.2552 13.2812 27.1615 11.1562 25.3385 9.5625C23.6979 7.96875 21.5104 6.90625 19.1406 6.375C18.5938 6.375 18.0469 6.72917 18.0469 7.08333C18.0469 7.4375 18.4115 7.96875 18.9583 8.14583Z" fill="white"/>
<path d="M35.0009 15.0521C34.2717 11.3334 32.4488 7.96877 29.7144 5.13543C26.9801 2.47918 23.3342 0.708351 19.5061 1.77771e-05C18.9592 -0.177066 18.4124 0.354184 18.4124 0.708351C18.4124 1.2396 18.5946 1.77085 19.1415 1.77085C22.6051 2.3021 25.704 3.89585 28.2561 6.37502C30.8082 8.85418 32.4488 11.8646 32.9957 15.2292C32.9957 15.7604 33.5426 16.1146 33.9071 16.1146H34.0894C34.6363 16.1146 35.0009 15.5834 35.0009 15.0521Z" fill="white"/>
</g>
<defs>
<clipPath id="clip0">
<rect width="35" height="34" fill="white"/>
</clipPath>
</defs>
</svg>
