<?xml version="1.0" encoding="utf-8"?>
<!-- Generator: Adobe Illustrator 24.1.1, SVG Export Plug-In . SVG Version: 6.00 Build 0)  -->
<svg version="1.1" id="Capa_1" xmlns="http://www.w3.org/2000/svg" xmlns:xlink="http://www.w3.org/1999/xlink" x="0px" y="0px"
	 viewBox="0 0 27.7 27.7" style="enable-background:new 0 0 27.7 27.7;" xml:space="preserve">
<g id="Capa_2_1_">
	<g id="Capa_1-2">
		<path d="M4.5,0.5C5,0.2,5.5,0,6.1,0c0.6,0,1.1,0.2,1.6,0.5l0.1,0.1l0.1,0.1L12,5.1l0.1,0.1L12,5.2c0.5,0.4,0.7,1,0.7,1.6
			c0,0.6-0.2,1.2-0.7,1.6L10,10.5c0.7,1.6,1.7,3.1,3,4.4c1.3,1.2,2.7,2.2,4.3,2.9l2.1-2.1l0.1-0.1c0.5-0.4,1.1-0.6,1.7-0.6
			c0.6,0,1.2,0.2,1.7,0.6l0.1,0.1l4.3,4.2c0.9,0.9,0.9,2.4,0,3.3l-3.3,3.3h-0.1c-1,0.9-2.4,1.2-3.7,0.8c-4.5-1.7-8.6-4.3-12.1-7.7
			c-3.4-3.4-6.1-7.5-7.7-12.1C-0.3,6.4,0.1,5,1.1,4.1V4.1l3.3-3.4L4.5,0.5L4.5,0.5z M6.3,2.3C6.3,2.2,6.2,2.1,6.1,2.1
			C6,2.1,6,2.1,5.9,2.3L2.6,5.5v0.1C2.2,5.9,2,6.5,2.2,7c1.5,4.3,4,8.1,7.2,11.3c3.2,3.1,7,5.6,11.2,7.2c0.6,0.2,1.2,0.1,1.7-0.3
			l3.3-3.2c0.1-0.1,0.1-0.2,0-0.3c0,0,0,0,0,0l-4.4-4.3c-0.1-0.1-0.2-0.1-0.3,0l-2.6,2.6l-0.5,0.5L17.1,20c-2-0.8-3.8-2-5.4-3.5
			l-0.2-0.2c-0.8-0.7-1.5-1.5-2.1-2.4c-0.5-0.8-0.9-1.6-1.3-2.4l-0.4-0.9L7.5,10l0.5-0.5l2.7-2.7c0.1-0.1,0.2-0.2,0.1-0.3h-0.1
			l-0.1-0.1L6.3,2.3z"/>
	</g>
</g>
</svg>
