<svg width="30" height="29" viewBox="0 0 30 29" fill="none" xmlns="http://www.w3.org/2000/svg">
<path fill-rule="evenodd" clip-rule="evenodd" d="M0.769531 0.0500488H29.6996V28.97H0.769531V0.0500488Z" fill="#016FD0"/>
<path fill-rule="evenodd" clip-rule="evenodd" d="M11.25 24.39V14.03L29.7 14.05V16.91L27.56 19.19L29.7 21.49V24.41H26.29L24.48 22.42L22.69 24.42L11.25 24.39Z" fill="white"/>
<path fill-rule="evenodd" clip-rule="evenodd" d="M12.4805 23.26V15.17H19.3405V17.03H14.7005V18.3H19.2305V20.1301H14.7005V21.37H19.3405V23.26H12.4805Z" fill="#016FD0"/>
<path fill-rule="evenodd" clip-rule="evenodd" d="M19.2988 23.26L23.0988 19.2101L19.2988 15.17H22.2388L24.5588 17.73L26.8788 15.17H29.6989V15.23L25.9789 19.2101L29.6989 23.14V23.26H26.8588L24.4988 20.67L22.1588 23.26H19.2988Z" fill="#016FD0"/>
<path fill-rule="evenodd" clip-rule="evenodd" d="M12.109 4.83008H16.5591L18.119 8.38008V4.83008H23.609L24.549 7.49008L25.4991 4.83008H29.6991V15.2001H7.53906L12.109 4.83008Z" fill="white"/>
<path fill-rule="evenodd" clip-rule="evenodd" d="M12.9494 5.96008L9.35938 14.0401H11.8194L12.4994 12.4201H16.1694L16.8494 14.0401H19.3694L15.7994 5.96008H12.9594H12.9494ZM13.2594 10.6101L14.3394 8.04007L15.4194 10.6101H13.2694H13.2594Z" fill="#016FD0"/>
<path fill-rule="evenodd" clip-rule="evenodd" d="M19.3301 14.0401V5.96008L22.7901 5.97008L24.5701 10.9401L26.3701 5.96008H29.7001V14.0401L27.5501 14.0601V8.50008L25.5301 14.0401H23.5701L21.5101 8.49008V14.0401H19.3301Z" fill="#016FD0"/>
</svg>
