<svg width="81" height="24" viewBox="0 0 81 24" fill="none" xmlns="http://www.w3.org/2000/svg">
<g clip-path="url(#clip0_1043_571)">
<path d="M58.3782 3.27983L51.4364 16.2979C51.3241 16.6203 50.8844 16.6203 50.6692 16.2979L43.7275 3.27983C43.6152 3.16927 43.5029 3.05872 43.4 3.05872H39.9853C39.7607 3.05872 39.6578 3.27983 39.7607 3.49173L50.7722 23.6683C50.8844 23.9908 51.3241 23.9908 51.5393 23.6683L62.5601 3.50094C62.6724 3.27983 62.5601 3.06793 62.3356 3.06793H58.9208C58.5934 3.06793 58.4811 3.06793 58.3688 3.28904L58.3782 3.27983Z" fill="#0074BC"/>
<path d="M62.3451 20.6372L69.2869 7.61918C69.3991 7.29672 69.8389 7.29672 70.054 7.61918L76.9958 20.6372C77.1081 20.7478 77.2204 20.8583 77.3233 20.8583H80.738C80.9626 20.8583 81.0655 20.6372 80.9626 20.4253L69.9418 0.239523C69.8295 -0.0829335 69.3898 -0.0829335 69.1746 0.239523L58.1632 20.4161C58.0509 20.6372 58.1632 20.8491 58.3877 20.8491H61.8025C62.1299 20.8491 62.2422 20.7386 62.3545 20.628L62.3451 20.6372Z" fill="#0074BC"/>
<path d="M14.763 12.6127C16.1944 11.8572 17.0738 10.3371 17.0738 8.49448C17.0738 5.24227 14.5385 3.06799 10.9085 3.06799H0.439709C0.215177 3.06799 0 3.28911 0 3.50101V23.567C0 23.7881 0.224532 24 0.439709 24H10.4595C15.4179 24 18.0561 21.9363 18.0561 17.7075C18.0561 13.4787 14.7536 12.6127 14.7536 12.6127H14.763ZM3.96674 6.09909H10.132C12.4428 6.09909 13.5468 7.07567 13.5468 8.80773C13.5468 10.5398 12.3306 11.5164 10.132 11.5164H3.96674C3.7422 11.5164 3.52703 11.2952 3.52703 11.0833V6.43076C3.52703 6.20964 3.75156 6.1083 3.96674 6.1083V6.09909ZM10.2443 20.8492H3.96674C3.7422 20.8492 3.52703 20.6281 3.52703 20.4162V14.8883C3.52703 14.6672 3.75156 14.4553 3.96674 14.4553H10.2443C13.2193 14.4553 14.5385 15.3214 14.5385 17.597C14.5385 20.0937 13.3222 20.8492 10.2443 20.8492Z" fill="#0074BC"/>
<path d="M36.1312 12.6127C37.5626 11.8572 38.442 10.3371 38.442 8.49448C38.442 5.24227 35.9067 3.06799 32.2767 3.06799H21.9202C21.6956 3.06799 21.4805 3.28911 21.4805 3.50101V23.567C21.4805 23.7881 21.705 24 21.9202 24H31.837C36.7954 24 39.4337 21.9363 39.4337 17.7075C39.546 13.5893 36.1312 12.6127 36.1312 12.6127ZM25.4472 6.1083H31.6125C33.9233 6.1083 35.0272 7.08488 35.0272 8.81694C35.0272 10.549 33.811 11.5256 31.6125 11.5256H25.4472C25.2227 11.5256 25.0075 11.3045 25.0075 11.0926V6.43076C25.0075 6.20964 25.1198 6.1083 25.4472 6.1083ZM31.6125 20.8584H25.3349C25.1104 20.8584 24.8952 20.6373 24.8952 20.4254V14.8976C24.8952 14.6764 25.1198 14.4645 25.3349 14.4645H31.6125C34.5875 14.4645 35.9067 15.3306 35.9067 17.6062C36.0189 20.1029 34.6905 20.8584 31.6125 20.8584Z" fill="#0074BC"/>
</g>
<defs>
<clipPath id="clip0_1043_571">
<rect width="81" height="24" fill="white"/>
</clipPath>
</defs>
</svg>
