<svg width="90" height="23" viewBox="0 0 90 23" fill="none" xmlns="http://www.w3.org/2000/svg">
<g clip-path="url(#clip0_1043_563)">
<path d="M42.4014 2.3939C45.2801 0.0180157 49.4533 -0.478842 53.029 0.415502C54.3235 0.812988 55.9077 1.30985 56.306 2.79139C56.306 3.88447 55.8081 4.96853 55.609 6.06161C54.0157 4.57104 51.4358 4.28196 49.0549 4.57104C46.5746 4.96853 44.8817 6.94692 43.9946 8.73561C42.8992 11.1115 42.5009 13.5958 43.4967 15.9717C43.9946 17.2635 45.09 18.3476 46.5746 18.6457C48.9554 19.1425 51.4448 18.4469 53.2282 17.0557C52.8298 18.5463 52.7303 19.7297 52.332 21.2203C51.9336 22.3134 50.5486 22.7109 49.2541 22.8102C45.9771 23.3071 42.4014 22.8102 40.0205 20.6331C37.8389 18.456 37.341 15.5832 37.5402 12.9002C37.5402 8.93436 39.0338 4.96853 42.4104 2.3939" fill="#00298B"/>
<path d="M23.6354 12.7015C23.2371 14.192 22.9384 15.5742 22.5401 17.0648C22.3409 17.5616 22.0422 18.3566 22.5401 18.8444C24.1333 18.8444 26.0163 19.0432 27.6004 18.1488C29.3838 17.2545 29.9813 14.8786 28.4966 13.4874C27.2021 12.4937 25.2196 12.6924 23.6264 12.6924M25.4097 4.07421C25.0114 5.56479 24.7127 7.1457 24.5135 8.63627C24.5135 9.03376 25.0114 9.13313 25.4097 9.13313C27.003 9.13313 28.8859 8.93439 29.9813 8.04004C31.0766 7.1457 31.2758 5.1673 29.5829 4.4717C28.2884 3.67673 26.9034 4.07421 25.4097 4.07421ZM21.146 0.81302C23.5268 0.415534 25.8171 0.316162 28.1979 0.316162C30.3796 0.514905 32.7694 0.81302 34.3536 2.29456C36.3361 3.8845 36.3361 6.85662 34.7519 8.63627C33.8557 9.72936 32.3711 10.6147 30.977 10.8134C32.2715 11.2109 33.3578 11.9065 34.0549 12.9906C35.5485 15.4658 34.7519 18.736 32.2715 20.5247C30.289 22.0153 27.7 22.5031 25.2196 22.7019C23.4363 22.7019 21.4447 22.7019 19.6614 22.205C18.7652 22.0063 18.0682 21.3107 17.6789 20.4254C17.181 19.1335 17.2806 17.9501 17.6789 16.6583C18.7743 11.4096 19.8606 6.15198 21.1551 0.803986" fill="#00298B"/>
<path d="M64.6441 4.18261C64.1462 6.35975 63.7479 8.34718 63.1504 10.5243C62.9513 10.9218 63.3496 11.4187 63.6483 11.6174C64.9428 11.8162 66.3278 11.6174 67.4232 11.1206C69.6049 10.0275 70.501 7.55221 69.4057 5.57381C68.6091 3.89353 66.3278 4.08324 64.635 4.18261M59.7648 1.01175C61.358 0.614264 63.2409 0.514893 64.8251 0.514893C67.2059 0.514893 69.6954 0.514893 71.877 1.60798C73.4703 2.30358 74.3574 3.98386 74.5566 5.57381C75.0545 9.04278 73.0629 12.8099 69.4962 14.3908C67.1154 15.4839 64.2367 15.6826 61.7473 15.4839C61.349 17.2635 61.0502 18.9528 60.4528 20.7325C60.2536 21.6268 59.5566 22.5121 58.4703 22.9096C57.1758 23.1084 55.9899 22.9096 54.8945 22.9096C56.6779 15.3755 58.1715 8.14844 59.7648 1.01175Z" fill="#00298B"/>
<path d="M77.1543 5.86289C77.8513 4.18261 78.9376 2.59267 80.73 2.09581C81.6262 1.69832 82.7125 2.29455 83.2104 2.79141C84.3058 5.16729 84.1066 7.84129 83.2104 10.3256C81.7168 8.34718 79.5351 6.95598 77.1543 5.86289Z" fill="#00298B"/>
<path d="M83.3099 2.79138C85.4916 3.68573 86.8857 5.46538 88.3703 7.1547C89.4656 8.44653 90.1536 9.8287 89.9635 11.518C89.7644 12.8098 89.0673 13.9933 88.1802 15.0864C86.3968 17.2635 84.2061 18.8534 81.6262 20.5337C80.5308 21.0306 79.4445 21.6268 78.15 21.2293C76.5568 20.8318 75.4704 19.6394 74.6738 18.1578C78.2496 16.3782 81.5266 13.7945 83.2103 10.4249C84.2061 7.8503 84.4053 5.1763 83.3099 2.79138Z" fill="#FF7800"/>
<path d="M2.48047 5.86289C3.17751 4.18261 4.26381 2.59267 6.05621 2.09581C6.95241 1.69832 8.03871 2.29455 8.53659 2.79141C9.63195 5.16729 9.43279 7.84129 8.53659 10.3256C6.85283 8.34718 4.86128 6.95598 2.48047 5.86289Z" fill="#00298B"/>
<path d="M8.63609 2.79138C10.8177 3.68573 12.2118 5.46538 13.6964 7.1547C14.7918 8.44653 15.4798 9.8287 15.2897 11.518C15.0905 12.8098 14.3935 13.9933 13.5063 15.0864C11.723 17.2635 9.53229 18.8534 6.95232 20.5337C5.85697 21.0306 4.77067 21.6268 3.47616 21.2293C1.88292 20.8318 0.79662 19.6394 0 18.1578C3.57574 16.3782 6.85275 13.7945 8.53651 10.4249C9.33313 7.8503 9.73144 5.1763 8.63609 2.79138Z" fill="#FF7800"/>
</g>
<defs>
<clipPath id="clip0_1043_563">
<rect width="90" height="23" fill="white"/>
</clipPath>
</defs>
</svg>
