<svg width="62" height="63" viewBox="0 0 62 63" fill="none" xmlns="http://www.w3.org/2000/svg">
<path d="M42.9207 22.68L42.7507 22.51C41.9707 21.73 40.7007 21.73 39.9207 22.51L26.7407 35.6901C26.6507 35.7801 26.4907 35.7801 26.4007 35.6901L21.7607 31.0501C20.9807 30.2701 19.7107 30.2701 18.9307 31.0501C18.1507 31.8301 18.1507 33.1001 18.9307 33.8801L25.1707 40.12L25.7807 40.71C26.0007 40.92 26.2807 41.02 26.5607 41.02C26.8407 41.02 27.1207 40.91 27.3407 40.71L42.9007 25.1701C43.6107 24.4801 43.6107 23.37 42.9207 22.68Z" fill="#14C8BE"/>
<path d="M30.899 61.09C47.2522 61.09 60.5091 47.8331 60.5091 31.48C60.5091 15.1268 47.2522 1.87 30.899 1.87C14.5459 1.87 1.28906 15.1268 1.28906 31.48C1.28906 47.8331 14.5459 61.09 30.899 61.09Z" stroke="#14C8BE" stroke-width="2.1848" stroke-miterlimit="10"/>
</svg>
