<svg width="41" height="30" viewBox="0 0 41 30" fill="none" xmlns="http://www.w3.org/2000/svg">
<path d="M21.8802 16.96C26.4602 16.98 30.6403 13.2199 30.6403 8.64995C30.6403 3.64995 26.4602 0.199951 21.8802 0.199951H17.9402C13.3102 0.199951 9.49023 3.64995 9.49023 8.64995C9.49023 13.2199 13.3102 16.98 17.9402 16.96H21.8802Z" fill="#0079BE"/>
<path d="M17.961 0.899902C13.731 0.899902 10.291 4.32992 10.291 8.56992C10.291 12.8099 13.721 16.2399 17.961 16.2399C22.201 16.2399 25.631 12.8099 25.631 8.56992C25.631 4.32992 22.201 0.899902 17.961 0.899902ZM13.101 8.56992C13.101 6.49992 14.401 4.72991 16.221 4.02991V13.0999C14.401 12.3999 13.101 10.6299 13.101 8.55991V8.56992ZM19.701 13.1099V4.02991C21.521 4.72991 22.821 6.49992 22.821 8.56992C22.821 10.6399 21.521 12.4099 19.701 13.1099Z" fill="white"/>
<path d="M21.8802 16.96C26.4602 16.98 30.6403 13.2199 30.6403 8.64995C30.6403 3.64995 26.4602 0.199951 21.8802 0.199951H17.9402C13.3102 0.199951 9.49023 3.64995 9.49023 8.64995C9.49023 13.2199 13.3102 16.98 17.9402 16.96H21.8802Z" fill="#0079BE"/>
<path d="M17.961 0.899902C13.731 0.899902 10.291 4.32992 10.291 8.56992C10.291 12.8099 13.721 16.2399 17.961 16.2399C22.201 16.2399 25.631 12.8099 25.631 8.56992C25.631 4.32992 22.201 0.899902 17.961 0.899902ZM13.101 8.56992C13.101 6.49992 14.401 4.72991 16.221 4.02991V13.0999C14.401 12.3999 13.101 10.6299 13.101 8.55991V8.56992ZM19.701 13.1099V4.02991C21.521 4.72991 22.821 6.49992 22.821 8.56992C22.821 10.6399 21.521 12.4099 19.701 13.1099Z" fill="white"/>
<path d="M0.80954 19.47C0.80954 18.71 0.409541 18.76 0.029541 18.75V18.53C0.359541 18.55 0.699541 18.55 1.02954 18.55C1.38954 18.55 1.86954 18.53 2.49954 18.53C4.69954 18.53 5.88956 20 5.88956 21.5C5.88956 22.34 5.39956 24.45 2.38956 24.45C1.95956 24.45 1.55955 24.4299 1.15955 24.4299C0.759546 24.4299 0.399531 24.43 0.0195312 24.45V24.2299C0.529531 24.1799 0.77953 24.16 0.79953 23.59V19.47H0.80954ZM1.63956 23.45C1.63956 24.1 2.10953 24.1799 2.51953 24.1799C4.34953 24.1799 4.94955 22.8 4.94955 21.53C4.94955 19.94 3.92953 18.8 2.29953 18.8C1.94953 18.8 1.78956 18.82 1.63956 18.83V23.45ZM6.18954 24.2299H6.34955C6.58955 24.2299 6.75955 24.23 6.75955 23.95V21.6499C6.75955 21.2799 6.62955 21.23 6.31955 21.06V20.92C6.71955 20.8 7.19955 20.64 7.22955 20.61C7.28955 20.58 7.33955 20.57 7.37955 20.57C7.41955 20.57 7.43954 20.62 7.43954 20.69V23.95C7.43954 24.23 7.62953 24.2299 7.85953 24.2299H7.99954V24.45C7.70954 24.45 7.40953 24.4299 7.10953 24.4299C6.80953 24.4299 6.49954 24.43 6.17953 24.45V24.2299H6.18954ZM7.09955 19.2599C6.87955 19.2599 6.67953 19.06 6.67953 18.84C6.67953 18.62 6.87955 18.4299 7.09955 18.4299C7.31955 18.4299 7.51953 18.61 7.51953 18.84C7.51953 19.07 7.32955 19.2599 7.09955 19.2599ZM8.81955 21.69C8.81955 21.38 8.72953 21.29 8.32953 21.13V20.97C8.68953 20.85 9.03955 20.74 9.44955 20.56C9.47955 20.56 9.49954 20.58 9.49954 20.64V21.19C9.98954 20.84 10.3995 20.55 10.9695 20.55C11.6895 20.55 11.9496 21.08 11.9496 21.74V23.9299C11.9496 24.2099 12.1395 24.21 12.3695 24.21H12.5195V24.4299C12.2195 24.4299 11.9295 24.41 11.6195 24.41C11.3095 24.41 11.0096 24.4099 10.6996 24.4299V24.21H10.8495C11.0895 24.21 11.2596 24.2099 11.2596 23.9299V21.74C11.2596 21.25 10.9696 21.02 10.4796 21.02C10.2096 21.02 9.77954 21.2399 9.49954 21.4299V23.94C9.49954 24.22 9.68956 24.22 9.91956 24.22H10.0695V24.44C9.76955 24.44 9.47956 24.42 9.16956 24.42C8.85956 24.42 8.55954 24.42 8.24954 24.44V24.22H8.39954C8.63954 24.22 8.80954 24.22 8.80954 23.94V21.69H8.81955ZM13.1595 22.1C13.1395 22.18 13.1395 22.3 13.1595 22.59C13.2095 23.4 13.7295 24.06 14.4095 24.06C14.8795 24.06 15.2395 23.81 15.5595 23.49L15.6795 23.61C15.2895 24.13 14.7995 24.57 14.1095 24.57C12.7595 24.57 12.4895 23.26 12.4895 22.72C12.4895 21.06 13.6096 20.56 14.1996 20.56C14.8896 20.56 15.6295 20.99 15.6295 21.89C15.6295 21.94 15.6295 21.9899 15.6295 22.0399L15.5495 22.09H13.1696L13.1595 22.1ZM14.6595 21.83C14.8695 21.83 14.8995 21.7199 14.8995 21.6199C14.8995 21.1899 14.6395 20.84 14.1595 20.84C13.6395 20.84 13.2895 21.22 13.1795 21.83H14.6595ZM15.8195 24.2299H16.0495C16.2895 24.2299 16.4595 24.23 16.4595 23.95V21.57C16.4595 21.31 16.1495 21.26 16.0195 21.19V21.06C16.6395 20.8 16.9795 20.57 17.0595 20.57C17.1095 20.57 17.1295 20.5999 17.1295 20.6799V21.44H17.1495C17.3595 21.11 17.7196 20.56 18.2296 20.56C18.4396 20.56 18.7095 20.6999 18.7095 21.0099C18.7095 21.2399 18.5495 21.44 18.3095 21.44C18.0395 21.44 18.0395 21.24 17.7495 21.24C17.6095 21.24 17.1295 21.44 17.1295 21.95V23.94C17.1295 24.22 17.2996 24.22 17.5396 24.22H18.0096V24.44C17.5396 24.44 17.1896 24.42 16.8195 24.42C16.4495 24.42 16.1095 24.42 15.8095 24.44V24.22L15.8195 24.2299ZM19.0895 23.27C19.1995 23.83 19.5395 24.3 20.1595 24.3C20.6595 24.3 20.8495 23.99 20.8495 23.7C20.8495 22.7 18.9995 23.02 18.9995 21.66C18.9995 21.19 19.3795 20.57 20.3195 20.57C20.5896 20.57 20.9596 20.65 21.2896 20.82L21.3495 21.6799H21.1495C21.0695 21.1499 20.7695 20.84 20.2195 20.84C19.8795 20.84 19.5595 21.0399 19.5595 21.3999C19.5595 22.3899 21.5295 22.09 21.5295 23.42C21.5295 23.98 21.0795 24.57 20.0695 24.57C19.7295 24.57 19.3296 24.45 19.0396 24.28L18.9496 23.3L19.0995 23.2599L19.0895 23.27ZM29.1795 20.06H28.9695C28.8095 19.07 28.1095 18.67 27.1595 18.67C26.2095 18.67 24.7695 19.32 24.7695 21.36C24.7695 23.08 25.9895 24.3 27.2995 24.3C28.1395 24.3 28.8396 23.72 29.0096 22.83L29.1996 22.88L29.0096 24.1199C28.6496 24.3399 27.6895 24.57 27.1295 24.57C25.1495 24.57 23.8896 23.29 23.8896 21.38C23.8896 19.64 25.4395 18.39 27.0995 18.39C27.7895 18.39 28.4495 18.61 29.0995 18.84L29.1795 20.05V20.06ZM29.4895 24.2299H29.6495C29.8895 24.2299 30.0595 24.23 30.0595 23.95V19.22C30.0595 18.67 29.9295 18.65 29.6095 18.56V18.42C29.9495 18.31 30.2995 18.16 30.4895 18.05C30.5795 18 30.6495 17.96 30.6795 17.96C30.7295 17.96 30.7495 18.01 30.7495 18.08V23.94C30.7495 24.22 30.9396 24.22 31.1696 24.22H31.3095V24.44C31.0195 24.44 30.7296 24.42 30.4196 24.42C30.1096 24.42 29.8095 24.42 29.4895 24.44V24.22V24.2299ZM34.9395 23.9799C34.9395 24.13 35.0295 24.14 35.1795 24.14C35.2795 24.14 35.4095 24.14 35.5195 24.14V24.32C35.1495 24.35 34.4595 24.53 34.2995 24.58L34.2596 24.55V23.86C33.7496 24.28 33.3596 24.57 32.7596 24.57C32.2996 24.57 31.8295 24.27 31.8295 23.56V21.39C31.8295 21.17 31.7995 20.96 31.3195 20.92V20.7599C31.6295 20.7599 32.2995 20.7 32.4095 20.7C32.4995 20.7 32.4995 20.76 32.4995 20.95V23.14C32.4995 23.39 32.4995 24.1199 33.2395 24.1199C33.5295 24.1199 33.9095 23.9 34.2695 23.6V21.32C34.2695 21.15 33.8595 21.06 33.5595 20.97V20.82C34.3195 20.77 34.7995 20.7 34.8795 20.7C34.9495 20.7 34.9496 20.76 34.9496 20.85V23.9799H34.9395ZM36.6295 21.1799C36.9695 20.8899 37.4295 20.57 37.8995 20.57C38.8795 20.57 39.4796 21.43 39.4796 22.35C39.4796 23.46 38.6696 24.57 37.4496 24.57C36.8196 24.57 36.4895 24.37 36.2695 24.27L36.0195 24.46L35.8395 24.3699C35.9095 23.8699 35.9595 23.38 35.9595 22.86V19.21C35.9595 18.66 35.8296 18.64 35.5096 18.55V18.41C35.8496 18.3 36.1996 18.1499 36.3896 18.0399C36.4796 17.9899 36.5495 17.95 36.5795 17.95C36.6295 17.95 36.6495 18 36.6495 18.07V21.17L36.6295 21.1799ZM36.6295 23.49C36.6295 23.81 36.9395 24.36 37.4995 24.36C38.4095 24.36 38.7896 23.47 38.7896 22.71C38.7896 21.79 38.0995 21.03 37.4295 21.03C37.1095 21.03 36.8495 21.2299 36.6195 21.4299V23.49H36.6295Z" fill="#211E1F"/>
<path d="M1.42999 29.9399C1.20999 29.9399 0.930012 29.9199 0.700012 29.9199C0.470012 29.9199 0.199989 29.9399 0.019989 29.9399H0V29.7599H0.0799866C0.249987 29.7599 0.399994 29.7399 0.399994 29.5199V27.0999C0.399994 26.8699 0.249987 26.8599 0.0799866 26.8599H0V26.6799H0.019989C0.199989 26.6799 0.480012 26.6999 0.700012 26.6999C0.920012 26.6999 1.21001 26.6799 1.42001 26.6799H1.44V26.8599H1.35999C1.18999 26.8599 1.04001 26.8799 1.04001 27.0999V29.5199C1.04001 29.7499 1.18999 29.7599 1.35999 29.7599H1.44V29.9399H1.42001H1.42999ZM4.60001 29.0099V27.2699C4.60001 26.8899 4.34001 26.8399 4.20001 26.8399H4.10001V26.6999C4.32001 26.6999 4.53 26.7199 4.75 26.7199C4.94 26.7199 5.13001 26.6999 5.32001 26.6999V26.8399H5.25C5.06 26.8399 4.84 26.8799 4.84 27.4299V29.5299C4.84 29.6899 4.83999 29.8499 4.87 29.9999H4.69L2.31 27.3499V29.2499C2.31 29.6499 2.38999 29.7899 2.73999 29.7899H2.82001V29.9299C2.62001 29.9299 2.42001 29.9099 2.23001 29.9099C2.04001 29.9099 1.81001 29.9299 1.60001 29.9299V29.7899H1.66C1.98 29.7899 2.07999 29.5699 2.07999 29.1999V27.2599C2.07999 26.9999 1.87 26.8499 1.66 26.8499H1.60001V26.7099C1.78001 26.7099 1.96 26.7299 2.13 26.7299C2.27 26.7299 2.40001 26.7099 2.54001 26.7099L4.59 29.0199L4.60001 29.0099Z" fill="#211E1F"/>
<path d="M11.2693 29.9399C10.9693 29.9399 10.4393 29.9199 10.0293 29.9199C9.6193 29.9199 9.05929 29.9399 8.79929 29.9399H8.7793V29.7599H8.85928C9.02928 29.7599 9.17929 29.7399 9.17929 29.5199V27.0999C9.17929 26.8699 9.02928 26.8599 8.85928 26.8599H8.7793V26.6799H8.79929C9.07929 26.6799 9.55931 26.6999 9.94931 26.6999C10.3393 26.6999 10.8193 26.6799 11.1293 26.6799H11.1493V26.6999C11.1493 26.7699 11.1493 26.8499 11.1493 26.9399C11.1493 27.0999 11.1493 27.2699 11.1593 27.4099V27.4299H11.1393L10.9793 27.4799V27.4599C10.9493 27.1599 10.9093 26.9399 10.4393 26.9399H9.81931V28.1099H10.3493C10.6193 28.1099 10.6593 27.9699 10.6893 27.7199V27.6999H10.8693V27.7199C10.8693 27.8999 10.8493 28.0799 10.8493 28.2599C10.8493 28.4399 10.8493 28.6099 10.8693 28.7899V28.8099H10.8493L10.6893 28.8399V28.8199C10.6593 28.5399 10.6493 28.3899 10.3493 28.3799H9.81931V29.4399C9.81931 29.7199 10.0593 29.7199 10.3593 29.7199C10.9193 29.7199 11.1393 29.6899 11.2793 29.1699V29.1499H11.2993L11.4493 29.1899V29.2099C11.3893 29.4499 11.3293 29.6999 11.2893 29.9399V29.9599H11.2693V29.9399ZM12.0493 27.1899C12.0493 26.8499 11.8593 26.8399 11.7193 26.8399H11.6393V26.6999C11.7893 26.6999 12.0693 26.7199 12.3593 26.7199C12.6493 26.7199 12.8593 26.6999 13.0993 26.6999C13.6793 26.6999 14.1993 26.8599 14.1993 27.5099C14.1993 27.9199 13.9193 28.1799 13.5593 28.3199L14.3493 29.4999C14.4793 29.6999 14.5693 29.7499 14.7993 29.7799V29.9199C14.6493 29.9199 14.4993 29.8999 14.3493 29.8999C14.2093 29.8999 14.0593 29.9199 13.9193 29.9199C13.5593 29.4499 13.2593 28.9499 12.9593 28.4199H12.6493V29.4099C12.6493 29.7699 12.8093 29.7799 13.0293 29.7799H13.1093V29.9199C12.8493 29.9199 12.5793 29.8999 12.3193 29.8999C12.0993 29.8999 11.8793 29.9199 11.6493 29.9199V29.7799H11.7293C11.8993 29.7799 12.0593 29.6999 12.0593 29.5299V27.1799L12.0493 27.1899ZM12.6393 28.2599H12.8693C13.3293 28.2599 13.5793 28.0799 13.5793 27.5399C13.5793 27.1299 13.3193 26.8699 12.9093 26.8699C12.7693 26.8699 12.7093 26.8799 12.6493 26.8899V28.2699L12.6393 28.2599Z" fill="#211E1F"/>
<path d="M18.2002 30.01H18.0102L15.6702 27.39V29.24C15.6702 29.64 15.7401 29.75 16.0801 29.76H16.1801V29.94H16.1602C15.9602 29.94 15.7602 29.92 15.5602 29.92C15.3602 29.92 15.1401 29.94 14.9301 29.94H14.9102V29.76H14.9901C15.3001 29.76 15.3802 29.56 15.3902 29.19V27.25C15.3902 27 15.1901 26.85 14.9901 26.85H14.9102V26.67H14.9301C15.1101 26.67 15.2901 26.69 15.4601 26.69C15.6001 26.69 15.7302 26.67 15.8802 26.68L17.9102 28.97V27.27C17.9102 26.9 17.6602 26.86 17.5302 26.86H17.4102V26.68H17.4301C17.6501 26.68 17.8601 26.7 18.0801 26.7C18.2701 26.7 18.4601 26.68 18.6501 26.68H18.6702V26.86H18.5801C18.3901 26.86 18.1902 26.88 18.1902 27.43V29.53C18.1902 29.69 18.1902 29.85 18.2202 29.99V30.01H18.2002ZM19.3902 29.27C19.3402 29.43 19.2902 29.55 19.2902 29.63C19.2902 29.77 19.4802 29.79 19.6302 29.79H19.6801V29.93C19.4901 29.92 19.3101 29.91 19.1201 29.91C18.9501 29.91 18.7901 29.91 18.6201 29.93V29.79H18.6501C18.8301 29.79 18.9801 29.68 19.0501 29.49L19.7902 27.37C19.8502 27.2 19.9301 26.97 19.9601 26.8C20.1101 26.75 20.2902 26.66 20.3802 26.6C20.3902 26.6 20.4002 26.59 20.4202 26.59C20.4302 26.59 20.4402 26.59 20.4502 26.6C20.4602 26.64 20.4801 26.68 20.4901 26.71L21.3401 29.13C21.4001 29.29 21.4502 29.46 21.5102 29.6C21.5702 29.73 21.6602 29.78 21.8202 29.78H21.8502V29.92C21.6402 29.91 21.4301 29.9 21.2101 29.9C20.9901 29.9 20.7501 29.9 20.5201 29.92V29.78H20.5702C20.6802 29.78 20.8601 29.76 20.8601 29.65C20.8601 29.59 20.8201 29.46 20.7701 29.32L20.5901 28.78H19.5402L19.4001 29.26L19.3902 29.27ZM20.0602 27.22H20.0501L19.6201 28.53H20.4802L20.0602 27.22Z" fill="#211E1F"/>
<path d="M22.0602 26.9299C21.7102 26.9299 21.7002 27.0099 21.6302 27.3499H21.4902C21.5102 27.2199 21.5302 27.0899 21.5502 26.9599C21.5702 26.8299 21.5802 26.6999 21.5802 26.5699H21.6902C21.7302 26.7099 21.8402 26.6999 21.9702 26.6999H24.3503C24.4703 26.6999 24.5903 26.6999 24.6003 26.5599L24.7102 26.5799C24.6902 26.6999 24.6702 26.8299 24.6602 26.9499C24.6502 27.0699 24.6502 27.1999 24.6502 27.3199L24.5103 27.3699C24.5103 27.1999 24.4803 26.9299 24.1703 26.9299H23.4102V29.3899C23.4102 29.7499 23.5703 29.7899 23.7903 29.7899H23.8802V29.9299C23.7002 29.9299 23.3802 29.9099 23.1302 29.9099C22.8502 29.9099 22.5303 29.9299 22.3503 29.9299V29.7899H22.4402C22.6902 29.7899 22.8203 29.7699 22.8203 29.3999V26.9299H22.0602Z" fill="#211E1F"/>
<path d="M26.2796 29.94C26.0596 29.94 25.7796 29.92 25.5496 29.92C25.3196 29.92 25.0496 29.94 24.8696 29.94H24.8496V29.76H24.9296C25.0996 29.76 25.2496 29.74 25.2496 29.52V27.1C25.2496 26.87 25.0996 26.86 24.9296 26.86H24.8496V26.68H24.8696C25.0496 26.68 25.3296 26.7 25.5496 26.7C25.7696 26.7 26.0596 26.68 26.2796 26.68H26.2996V26.86H26.2196C26.0496 26.86 25.8996 26.88 25.8996 27.1V29.52C25.8996 29.75 26.0496 29.76 26.2196 29.76H26.2996V29.94H26.2796ZM28.1196 26.63C29.0996 26.63 29.8896 27.24 29.8896 28.22C29.8896 29.28 29.1296 29.99 28.1396 29.99C27.1496 29.99 26.4096 29.32 26.4096 28.33C26.4096 27.34 27.1496 26.62 28.1096 26.62L28.1196 26.63ZM28.1896 29.79C29.0896 29.79 29.2396 29 29.2396 28.33C29.2396 27.66 28.8796 26.84 28.1096 26.84C27.2996 26.84 27.0596 27.56 27.0596 28.18C27.0596 29 27.4396 29.8 28.1796 29.8L28.1896 29.79Z" fill="#211E1F"/>
<path d="M33.2704 30.01H33.0804L30.7404 27.39V29.24C30.7404 29.64 30.8105 29.75 31.1505 29.76H31.2505V29.94H31.2305C31.0305 29.94 30.8305 29.92 30.6305 29.92C30.4305 29.92 30.2105 29.94 30.0005 29.94H29.9805V29.76H30.0605C30.3705 29.76 30.4504 29.56 30.4604 29.2V27.26C30.4604 27.01 30.2605 26.86 30.0605 26.86H29.9805V26.68H30.0005C30.1805 26.68 30.3605 26.7 30.5305 26.7C30.6705 26.7 30.8004 26.68 30.9604 26.69L32.9904 28.97V27.27C32.9904 26.9 32.7404 26.86 32.6104 26.86H32.4904V26.68H32.5105C32.7305 26.68 32.9405 26.7 33.1505 26.7C33.3405 26.7 33.5305 26.68 33.7205 26.68H33.7404V26.86H33.6505C33.4605 26.86 33.2605 26.88 33.2605 27.43V29.53C33.2605 29.69 33.2605 29.85 33.2905 29.99V30.01H33.2704ZM34.4604 29.27C34.4104 29.43 34.3604 29.55 34.3604 29.63C34.3604 29.77 34.5505 29.79 34.7005 29.79H34.7505V29.93C34.5605 29.92 34.3805 29.91 34.1905 29.91C34.0205 29.91 33.8605 29.91 33.6905 29.93V29.79H33.7205C33.9005 29.79 34.0505 29.68 34.1205 29.49L34.8604 27.37C34.9204 27.2 35.0005 26.97 35.0305 26.8C35.1805 26.75 35.3605 26.66 35.4505 26.6C35.4605 26.6 35.4704 26.59 35.4904 26.59C35.5004 26.59 35.5104 26.59 35.5204 26.6C35.5304 26.64 35.5505 26.68 35.5605 26.71L36.4105 29.13C36.4705 29.29 36.5204 29.46 36.5804 29.6C36.6404 29.73 36.7305 29.78 36.8905 29.78H36.9205V29.92C36.7105 29.91 36.5005 29.9 36.2805 29.9C36.0605 29.9 35.8205 29.9 35.5905 29.92V29.78H35.6405C35.7505 29.78 35.9305 29.76 35.9305 29.65C35.9305 29.59 35.8905 29.46 35.8405 29.32L35.6605 28.78H34.6104L34.4604 29.26V29.27ZM35.1405 27.22L34.7104 28.53H35.5705L35.1405 27.22Z" fill="#211E1F"/>
<path d="M39.5094 29.8999C39.5594 29.6499 39.6194 29.3999 39.6694 29.1499H39.5694C39.5394 29.2499 39.4994 29.3799 39.4294 29.4799C39.3494 29.5999 39.1694 29.7099 38.9694 29.7399C38.8494 29.7499 38.7294 29.7599 38.6194 29.7599C38.5294 29.7599 38.4394 29.7599 38.3594 29.7499C38.2094 29.7299 38.0594 29.6699 38.0694 29.4699V27.0899C38.0694 26.8299 38.2294 26.8199 38.3994 26.8199H38.4994V26.7199C38.2694 26.7199 38.0494 26.7399 37.8194 26.7399C37.5894 26.7399 37.3494 26.7199 37.1094 26.7199V26.8199H37.1594C37.3194 26.8199 37.5294 26.8499 37.5294 27.0999V29.4699C37.5294 29.7699 37.3294 29.7999 37.1594 29.7999H37.1094V29.8999C37.5094 29.8999 37.9094 29.8799 38.3094 29.8799C38.7094 29.8799 39.1094 29.8999 39.5094 29.8999ZM39.6394 26.5699C39.9194 26.5699 40.1294 26.7799 40.1294 27.0599C40.1294 27.3399 39.9194 27.5499 39.6394 27.5499C39.3594 27.5499 39.1494 27.3399 39.1494 27.0599C39.1494 26.7799 39.3594 26.5699 39.6394 26.5699ZM39.6394 27.4499C39.8594 27.4499 40.0194 27.2599 40.0194 27.0499C40.0194 26.8399 39.8594 26.6499 39.6394 26.6499C39.4194 26.6499 39.2594 26.8399 39.2594 27.0499C39.2594 27.2599 39.4294 27.4499 39.6394 27.4499ZM39.3994 27.3099V27.2899C39.4594 27.2899 39.4694 27.2899 39.4694 27.2499V26.8899C39.4694 26.8399 39.4694 26.8199 39.3994 26.8199V26.7999H39.6494C39.7294 26.7999 39.8094 26.8399 39.8094 26.9299C39.8094 26.9999 39.7594 27.0499 39.6994 27.0799L39.7794 27.1899C39.8194 27.2399 39.8594 27.2899 39.8894 27.2999V27.3199H39.7894C39.7894 27.3199 39.7094 27.2199 39.6094 27.0999H39.5594V27.2599C39.5594 27.2599 39.5694 27.2899 39.6294 27.2999V27.3199H39.3894L39.3994 27.3099ZM39.5594 27.0599H39.6194C39.6794 27.0599 39.7094 27.0099 39.7094 26.9399C39.7094 26.8699 39.6594 26.8399 39.6094 26.8399H39.5594V27.0699V27.0599Z" fill="#211E1F"/>
<path d="M6.00946 26.9299C5.65946 26.9299 5.64944 27.0099 5.57944 27.3499H5.43945C5.45945 27.2199 5.47945 27.0899 5.49945 26.9599C5.51945 26.8299 5.52945 26.6999 5.52945 26.5699H5.63947C5.67947 26.7099 5.78946 26.6999 5.91946 26.6999H8.29944C8.41944 26.6999 8.53944 26.6999 8.54944 26.5599L8.65945 26.5799C8.63945 26.6999 8.61944 26.8299 8.60944 26.9499C8.60944 27.0699 8.60944 27.1999 8.60944 27.3199L8.46945 27.3699C8.45945 27.1999 8.43946 26.9299 8.12946 26.9299H7.36945V29.3899C7.36945 29.7499 7.52945 29.7899 7.74945 29.7899H7.83945V29.9299C7.65945 29.9299 7.33945 29.9099 7.08945 29.9099C6.80945 29.9099 6.48945 29.9299 6.30945 29.9299V29.7899H6.39944C6.64944 29.7899 6.77945 29.7699 6.77945 29.3999V26.9299H6.01944H6.00946Z" fill="#211E1F"/>
</svg>
