<svg width="17" height="17" viewBox="0 0 17 17" fill="none" xmlns="http://www.w3.org/2000/svg">
<g clip-path="url(#clip0_1149_1285)">
<path d="M1.7075 16.3045L16.3163 1.69563C16.7069 1.30511 16.7084 0.673526 16.3199 0.284954C15.9313 -0.103618 15.2997 -0.102035 14.9092 0.28849L0.300362 14.8973C-0.0901616 15.2878 -0.091745 15.9194 0.296827 16.308C0.685398 16.6966 1.31698 16.695 1.7075 16.3045Z" fill="black"/>
<path d="M16.3042 14.9024L1.69539 0.293533C1.30486 -0.0969918 0.673281 -0.0985744 0.28471 0.289997C-0.103862 0.678569 -0.102279 1.31015 0.288245 1.70068L14.8971 16.3095C15.2876 16.7 15.9192 16.7016 16.3077 16.313C16.6963 15.9245 16.6947 15.2929 16.3042 14.9024Z" fill="black"/>
</g>
<defs>
<clipPath id="clip0_1149_1285">
<rect width="16.61" height="16.61" fill="white"/>
</clipPath>
</defs>
</svg>
