<svg width="39" height="25" viewBox="0 0 39 25" fill="none" xmlns="http://www.w3.org/2000/svg">
<path d="M24.7095 3.3501H14.5195V21.6601H24.7095V3.3501Z" fill="#FF5F00"/>
<path d="M15.1704 12.51C15.1704 8.94004 16.8103 5.56005 19.6203 3.35005C14.5603 -0.619946 7.24033 0.250046 3.27033 5.31005C-0.69967 10.37 0.170352 17.6901 5.23035 21.6601C9.45035 24.9801 15.4003 24.9801 19.6203 21.6601C16.8103 19.4501 15.1704 16.08 15.1704 12.5V12.51Z" fill="#EB001B"/>
<path d="M38.4594 12.51C38.4594 18.94 33.2494 24.1601 26.8094 24.1601C24.1994 24.1601 21.6594 23.28 19.6094 21.67C24.6694 17.69 25.5394 10.37 21.5694 5.31005C20.9994 4.58005 20.3394 3.93005 19.6094 3.35005C24.6694 -0.619946 31.9894 0.250046 35.9594 5.31005C37.5694 7.36005 38.4494 9.90004 38.4494 12.51H38.4594Z" fill="#F79E1B"/>
<path d="M37.3494 19.73V19.36H37.4994V19.28H37.1094V19.36H37.2594V19.73H37.3394H37.3494ZM38.0994 19.73V19.28H37.9794L37.8394 19.59L37.6994 19.28H37.5794V19.73H37.6594V19.39L37.7894 19.68H37.8794L38.0094 19.39V19.73H38.0894H38.0994Z" fill="#F79E1B"/>
</svg>
