<svg width="146" height="36" viewBox="0 0 146 36" fill="none" xmlns="http://www.w3.org/2000/svg">
<g clip-path="url(#clip0_1100_2)">
<path d="M41.0572 16.5066C41.0572 13.4935 40.0088 11.5939 37.5713 11.5939C36.1822 11.5939 34.9373 12.4454 34.0199 13.3494V20.0175C35.1994 21.131 36.1822 21.6812 37.6368 21.6812C39.904 21.6812 41.0572 19.7817 41.0572 16.5066ZM28.5684 32.6856V7.48038H33.6137L34.0199 10.2184C35.1994 8.59391 36.903 7.10046 39.5763 7.10046C43.6781 7.10046 46.5088 10.2446 46.5088 16.4673C46.5088 22.69 43.6257 25.7686 39.4977 25.7686C37.0602 25.7686 35.3697 24.8909 34.0199 23.3712V31.8603L28.5684 32.6725V32.6856Z" fill="#004480"/>
<path d="M60.8462 14.7511C60.571 12.2096 59.4309 10.9913 57.3997 10.9913C55.7092 10.9913 54.2546 12.1048 53.8483 14.7511H60.8593H60.8462ZM48.3574 16.5066C48.3574 9.49784 53.7042 7.10046 57.4259 7.10046C61.1477 7.10046 65.7212 8.96073 65.7212 17.1485V17.9607H53.7697C54.0449 20.9345 55.6961 22.0874 57.9632 22.0874C60.0993 22.0874 62.1567 21.1441 63.3755 20.0568L65.4067 23.1747C63.3099 24.9695 60.7021 25.8865 57.557 25.8865C52.8523 25.8865 48.3574 23.4891 48.3574 16.5197" fill="#004480"/>
<path d="M68.5639 25.5065V7.48034H73.6092L74.0155 10.3231C75.1032 8.90829 77.0951 7.11353 80.2402 7.11353C83.3854 7.11353 85.4821 8.63318 85.4821 12.3537V25.5196H80.0699V14.083C80.0699 12.4585 79.467 11.607 77.9338 11.607C76.4005 11.607 75.2211 12.3537 74.0024 13.4017V25.5196H68.5508L68.5639 25.5065Z" fill="#004480"/>
<path d="M101.6 16.5066C101.6 13.4935 100.552 11.5939 98.1143 11.5939C96.7252 11.5939 95.4802 12.4454 94.5629 13.3494V20.0175C95.7423 21.131 96.7252 21.6812 98.1798 21.6812C100.447 21.6812 101.6 19.7817 101.6 16.5066ZM89.1113 32.6856V7.48038H94.1567L94.5629 10.2184C95.7423 8.59391 97.4459 7.10046 100.119 7.10046C104.208 7.10046 107.052 10.2446 107.052 16.4673C107.052 22.69 104.169 25.7686 100.041 25.7686C97.6032 25.7686 95.9127 24.8909 94.5629 23.3712V31.8603L89.1113 32.6725V32.6856Z" fill="#14C8BE"/>
<path d="M120.145 20.1354V16.7817C115.847 17.2271 114.025 18.3013 114.025 19.9651C114.025 21.1179 114.838 21.6944 116.017 21.6944C117.917 21.6944 119.228 21.0524 120.145 20.1354ZM108.705 20.9083C108.705 16.7424 112.23 14.4498 120.145 13.8079V13.3625C120.145 12.0393 119.398 11.2009 117.432 11.2009C115.467 11.2009 113.671 12.1441 112.19 13.3363L109.242 10.3887C111.037 8.72492 113.737 7.10046 118.205 7.10046C123.356 7.10046 125.452 9.53714 125.452 14.1747V25.5066H120.538L120.132 22.8734C118.468 24.7337 116.515 25.7817 113.842 25.7817C111.168 25.7817 108.691 23.9869 108.691 20.9083" fill="#14C8BE"/>
<path d="M128.532 32.1354L128.126 27.6026C128.978 27.8384 130.092 28.048 131.337 28.048C132.516 28.048 133.198 27.6026 133.643 26.4891L133.984 25.6113L127.248 7.88645L132.595 7.07422L136.657 19.1921H136.723L140.72 7.48033H146.001L138.413 27.4061C137.195 30.524 135.53 32.4105 131.913 32.4105C130.629 32.4105 129.476 32.345 128.532 32.1354Z" fill="#14C8BE"/>
<path d="M12.9999 0C5.81851 0 0 5.81659 0 12.9956C0 20.1747 5.81851 25.9913 12.9999 25.9913C20.1813 25.9913 25.9998 20.1747 25.9998 12.9956C25.9998 5.81659 20.1682 0 12.9999 0ZM12.764 20.7118C8.43946 20.7118 4.92739 17.2009 4.92739 12.8777C4.92739 8.55459 8.43946 5.04367 12.764 5.04367H20.5876V12.8777C20.5876 17.2009 17.0886 20.7118 12.764 20.7118Z" fill="#004480"/>
<path d="M20.5873 12.8908C20.5873 17.214 17.0753 20.7249 12.7507 20.7249C8.42613 20.7249 4.91406 17.214 4.91406 12.8908C4.91406 8.56768 8.42613 5.05676 12.7507 5.05676H20.5742V12.8908H20.5873Z" fill="#14C8BE"/>
<path d="M120.878 28.8996L118.886 32.6987C118.847 32.7773 118.716 32.7773 118.677 32.6987L116.685 28.8996C116.685 28.8996 116.619 28.8341 116.58 28.8341H115.61C115.545 28.8341 115.505 28.8996 115.532 28.9651L118.677 34.8472C118.716 34.9258 118.834 34.9258 118.886 34.8472L122.032 28.9651C122.032 28.9651 122.032 28.8341 121.953 28.8341H120.983C120.983 28.8341 120.905 28.8603 120.878 28.8996Z" fill="#004480"/>
<path d="M122.005 33.9694L123.997 30.1703C124.036 30.0917 124.167 30.0917 124.206 30.1703L126.198 33.9694C126.198 33.9694 126.264 34.0349 126.303 34.0349H127.273C127.338 34.0349 127.378 33.9694 127.352 33.9039L124.206 28.0218C124.167 27.9432 124.049 27.9432 123.997 28.0218L120.852 33.9039C120.852 33.9039 120.852 34.0349 120.93 34.0349H121.9C121.9 34.0349 121.979 34.0087 122.005 33.9694Z" fill="#004480"/>
<path d="M107.079 34.035H105.284C105.284 34.035 105.166 33.9826 105.166 33.9171V32.3057C105.166 32.3057 105.218 32.1878 105.284 32.1878H107.079C107.931 32.1878 108.324 32.4367 108.324 33.1048C108.324 33.773 107.944 34.0219 107.079 34.0219M105.284 29.7118H107.053C107.708 29.7118 108.036 29.9869 108.036 30.511C108.036 31.035 107.708 31.3101 107.053 31.3101H105.284C105.284 31.3101 105.166 31.2577 105.166 31.1922V29.8297C105.166 29.8297 105.218 29.7118 105.284 29.7118ZM108.377 31.6376C108.796 31.428 109.058 30.9826 109.058 30.4193C109.058 29.476 108.324 28.8341 107.276 28.8341H104.288C104.288 28.8341 104.17 28.8865 104.17 28.952V34.7948C104.17 34.7948 104.222 34.9127 104.288 34.9127H107.145C108.573 34.9127 109.333 34.297 109.333 33.0917C109.333 31.8865 108.377 31.6376 108.377 31.6376Z" fill="#004480"/>
<path d="M113.226 34.035H111.43C111.43 34.035 111.312 33.9826 111.312 33.9171V32.3057C111.312 32.3057 111.365 32.1878 111.43 32.1878H113.226C114.077 32.1878 114.471 32.4367 114.471 33.1048C114.471 33.773 114.091 34.0219 113.226 34.0219M111.43 29.7118H113.199C113.855 29.7118 114.182 29.9869 114.182 30.511C114.182 31.035 113.855 31.3101 113.199 31.3101H111.43C111.43 31.3101 111.312 31.2577 111.312 31.1922V29.8297C111.312 29.8297 111.365 29.7118 111.43 29.7118ZM114.523 31.6376C114.942 31.428 115.204 30.9826 115.204 30.4193C115.204 29.476 114.471 28.8341 113.422 28.8341H110.434C110.434 28.8341 110.316 28.8865 110.316 28.952V34.7948C110.316 34.7948 110.369 34.9127 110.434 34.9127H113.291C114.72 34.9127 115.48 34.297 115.48 33.0917C115.48 31.8865 114.523 31.6376 114.523 31.6376Z" fill="#004480"/>
<path d="M98.4823 33.4847C98.4823 32.6987 98.0892 32.3188 97.6174 32.3188C97.2636 32.3188 97.0146 32.5022 96.7263 32.7904V34.1921C97.0146 34.4934 97.2898 34.6507 97.6305 34.6507C98.1154 34.6507 98.4955 34.2969 98.4955 33.4847M96.7394 34.5196V34.9127H96.3594V30.917L96.7394 30.8646V32.4629C96.9622 32.2009 97.2636 31.9913 97.6961 31.9913C98.3513 31.9913 98.8755 32.476 98.8755 33.4716C98.8755 34.4672 98.3513 34.952 97.683 34.952C97.2898 34.952 96.9884 34.7686 96.7394 34.5065" fill="#004480"/>
<path d="M99.1512 35.9607L99.125 35.6332C99.2167 35.6594 99.3478 35.6856 99.5444 35.6856C99.8589 35.6856 100.016 35.5415 100.134 35.2402L100.252 34.9258L99.1643 32.083L99.5444 32.0175L100.449 34.4672L101.34 32.0568H101.733L100.501 35.2402C100.304 35.7511 100.095 36 99.5444 36C99.3871 36 99.2692 36 99.1643 35.9607" fill="#004480"/>
</g>
<defs>
<clipPath id="clip0_1100_2">
<rect width="146" height="36" fill="white"/>
</clipPath>
</defs>
</svg>
