<svg width="159" height="23" viewBox="0 0 159 23" fill="none" xmlns="http://www.w3.org/2000/svg">
<g clip-path="url(#clip0_1043_576)">
<path d="M38.7269 6.94629C34.3261 6.94629 30.8242 10.476 30.8242 14.9118C30.8242 19.3476 34.4385 22.8773 38.7269 22.8773C43.0154 22.8773 46.6297 19.3476 46.6297 14.9118C46.6297 10.476 43.1277 6.94629 38.7269 6.94629ZM38.7269 18.4416C36.8074 18.4416 35.3374 16.8466 35.3374 14.9118C35.3374 12.9771 36.9198 11.4953 38.8393 11.4953C40.7588 11.4953 42.2288 13.0903 42.2288 15.0251C42.2288 15.9405 41.8824 16.8466 41.2082 17.5261C40.6464 17.9791 39.7475 18.4416 38.7269 18.4416Z" fill="#FF031D"/>
<path d="M56.6866 7.38979H54.533V2.73694H49.9075V7.40867H47.7539V11.7312H49.9075V22.5469H54.5424V11.7312H56.696V7.38979H56.6866Z" fill="#FF031D"/>
<path d="M58.8301 7.38977H63.465V22.4148H58.8301V7.38977Z" fill="#FF031D"/>
<path d="M61.0865 0C59.9536 0 59.0453 0.679524 58.7176 1.59499C58.3712 2.62372 58.6052 3.7657 59.2794 4.55847C60.0659 5.35125 61.1989 5.5872 62.2195 5.12474C63.2401 4.77554 63.8019 3.7657 63.8019 2.73697C63.8019 1.26467 62.566 0 61.0865 0Z" fill="#FF031D"/>
<path d="M128.391 11.382C129.974 11.382 131.219 12.6373 131.219 14.2323V22.4337H135.854V13.5527C135.854 9.56997 133.597 6.95569 129.983 6.95569C128.522 6.95569 126.94 7.63521 125.582 9.69266V7.29545H120.947V22.3205H125.582V14.119C125.582 13.3262 125.929 12.6467 126.49 12.0616C126.94 11.6085 127.726 11.382 128.401 11.382H128.391Z" fill="#FF031D"/>
<path d="M153.018 22.4243L147.259 14.9118L152.681 7.39925H147.259L142.971 13.5433V0.453003H138.336V22.4243H142.971V16.2802L147.709 22.4243H153.018Z" fill="#FF031D"/>
<path d="M14.7942 18.3282C15.1406 17.4127 15.356 16.5067 15.356 15.5912C15.356 14.2322 14.9065 12.8543 14.0077 11.7123C12.987 10.5703 11.2923 9.65485 8.92333 8.97532C8.47388 8.86207 8.01508 8.62612 7.575 8.52231C7.22855 8.40905 6.89147 8.06929 6.55438 7.84278C6.20794 7.49358 6.09558 7.05 6.09558 6.58755C6.09558 5.90803 6.44202 5.33232 7.00383 4.99256C8.1368 4.42629 9.59749 4.42629 10.7305 4.99256C11.2923 5.10581 11.7511 5.44557 12.1912 5.67208L14.2324 1.70819C13.3241 1.14192 12.3129 0.679468 11.2923 0.45296C10.2717 0.226452 9.13868 0.10376 8.1368 0.10376C7.13492 0.10376 6.09558 0.217014 5.19669 0.556776C4.28844 0.905976 3.61427 1.47225 2.94011 2.02908C2.26594 2.73692 1.80714 3.52969 1.35769 4.43572C1.01125 5.35119 0.898887 6.25723 0.898887 7.1727C1.01125 8.645 1.57305 10.1362 2.70602 11.1555C3.72664 12.0709 4.96261 12.7505 6.20794 13.0902C6.8821 13.3167 7.55627 13.5432 7.90271 13.7697C8.35216 13.883 8.81097 14.1189 9.14805 14.4493C9.49449 14.6758 9.70985 14.9023 9.82221 15.242C9.93457 15.5912 9.93457 15.9216 9.93457 16.1575C9.82221 16.6105 9.58813 17.073 9.26041 17.5166C8.58624 17.9696 7.91208 18.1961 7.10683 18.1961C6.19858 18.1961 5.29969 17.9696 4.51316 17.5166C3.839 17.1674 3.16483 16.837 2.35958 16.3746L0 20.5839C1.9195 22.1789 4.17608 22.9716 6.65738 22.9716C7.79035 22.9716 9.02632 22.8584 10.1593 22.4054C11.1799 22.0562 12.0788 21.4899 12.753 20.9331C13.8859 20.0365 14.4477 19.2342 14.7942 18.3282Z" fill="#FF031D"/>
<path d="M156.284 17.1863C155.151 17.1863 154.243 17.8658 153.915 18.7813C153.568 19.81 153.803 20.952 154.477 21.7448C155.151 22.5375 156.396 22.7735 157.417 22.311C158.437 21.9618 158.999 20.952 158.999 19.9233C158.887 18.3283 157.754 17.1863 156.284 17.1863ZM156.284 21.858C155.376 21.858 154.701 21.405 154.364 20.499C154.018 19.7062 154.252 18.7907 154.814 18.2244C155.488 17.5449 156.274 17.4317 157.07 17.7714C157.857 18.1206 158.419 18.9134 158.419 19.7062C158.419 20.2725 158.194 20.8482 157.745 21.1785C157.314 21.7353 156.733 21.8486 156.293 21.8486L156.284 21.858Z" fill="#FF031D"/>
<path d="M156.285 20.263H155.939V21.2917H155.377V18.3282H156.51C157.072 18.3282 157.418 18.6774 157.418 19.2437C157.418 19.5929 157.193 19.9232 156.856 20.1592L157.531 21.3012H156.856L156.285 20.2724V20.263ZM155.826 19.6873H156.501C156.725 19.6873 156.95 19.4608 156.95 19.2343C156.95 19.0078 156.725 18.7813 156.501 18.7813H155.826V19.6779V19.6873Z" fill="#FF031D"/>
<path d="M27.6695 17.073C26.5365 18.5453 24.28 18.7813 22.8193 17.6393C21.3586 16.4973 21.1245 14.2228 22.2575 12.7505C23.3904 11.2782 25.647 11.0423 27.1077 12.1842C27.3324 12.2975 27.4542 12.5334 27.6695 12.7505L30.825 9.56997C29.3643 7.97497 27.2107 6.95569 25.0665 6.95569C20.6657 6.84243 16.9297 10.023 16.9297 14.808C16.9297 19.5929 20.778 22.7735 25.0665 22.7735C27.2201 22.7735 29.3549 21.858 30.9373 20.1592L27.6695 17.0825V17.073Z" fill="#FF031D"/>
<path d="M81.864 22.4242V7.38977H77.2291V8.98477L76.7796 8.63557C75.6467 7.61628 74.2983 7.05945 72.8283 7.05945C68.7646 7.05945 65.375 10.7025 65.375 15.025C65.375 19.3475 68.7646 22.9905 72.8283 22.9905C74.289 22.9905 75.7684 22.4242 76.7796 21.3955L77.2291 21.0463V22.6413H81.864V22.4148V22.4242ZM73.6242 18.4415C71.7047 18.4415 70.1222 16.8465 70.1222 14.7985C70.1222 12.8637 71.7047 11.2687 73.7365 11.2687C75.656 11.2687 77.2384 12.8637 77.2384 14.9117C77.2384 15.8272 76.892 16.8465 76.2178 17.4128C75.4313 18.0923 74.6354 18.4415 73.6242 18.4415Z" fill="#FF031D"/>
<path d="M118.673 22.4243V7.38985H114.038V8.98484L113.588 8.63564C112.455 7.60692 111.107 7.04065 109.637 7.04065C105.573 7.04065 102.184 10.6837 102.184 15.0062C102.184 19.3287 105.573 22.9717 109.637 22.9717C111.098 22.9717 112.577 22.4054 113.588 21.3767L114.038 21.0275V22.6225H118.673V22.4054V22.4243ZM110.433 18.4416C108.513 18.4416 106.818 16.8466 106.818 14.9118C106.818 12.977 108.401 11.2688 110.32 11.2688C112.24 11.2688 113.822 12.8638 113.822 14.7985C114.047 16.856 112.362 18.4416 110.433 18.4416Z" fill="#FF031D"/>
<path d="M88.8673 22.4243V20.8293L89.2138 21.1785C90.3467 22.2073 91.6951 22.7735 93.1651 22.7735C97.2288 22.7735 100.618 19.1305 100.618 14.808C100.618 10.4855 97.2288 6.84247 93.1651 6.84247C91.7044 6.84247 90.225 7.40874 89.2138 8.43747L88.8673 8.78667V0.349243H84.2324V22.4338H88.8673V22.4243ZM88.8673 14.9024C88.8673 13.5433 89.7756 12.1654 91.0209 11.6086C92.3692 11.0423 93.961 11.3821 94.8693 12.4014C95.8899 13.4301 96.2176 15.0156 95.6558 16.2803C95.094 17.6394 93.7363 18.451 92.3879 18.451C90.5714 18.4416 88.8767 16.8466 88.8767 14.9118L88.8673 14.9024Z" fill="#FF031D"/>
</g>
<defs>
<clipPath id="clip0_1043_576">
<rect width="159" height="23" fill="white"/>
</clipPath>
</defs>
</svg>
