<svg width="12" height="7" viewBox="0 0 12 7" fill="none" xmlns="http://www.w3.org/2000/svg">
<path d="M11.4198 0.191256C11.3038 0.0765019 11.1491 -8.79187e-07 10.9557 -8.62258e-07C10.7623 -8.45329e-07 10.6076 0.076502 10.4915 0.191256L6.00484 4.62842L1.51813 0.191257C1.40209 0.0765028 1.24738 -1.24261e-08 1.05399 4.50277e-09C0.860595 2.14317e-08 0.705882 0.0765028 0.589847 0.191257L0.203062 0.573771C-0.0676876 0.84153 -0.0676875 1.22404 0.203063 1.4918L5.50201 6.80874C5.61805 6.9235 5.77276 7 5.96616 7C6.15955 7 6.31426 6.9235 6.4303 6.80874L11.8066 1.4918C11.9226 1.37705 12 1.18579 12 1.03279C12 0.841529 11.9226 0.688524 11.8066 0.57377L11.4198 0.191256Z" fill="black"/>
</svg>
