<svg width="48" height="15" viewBox="0 0 48 15" fill="none" xmlns="http://www.w3.org/2000/svg">
<path d="M16.9805 14.52L19.3604 0.530029H23.1705L20.7905 14.52H16.9805Z" fill="#005098"/>
<path d="M34.6097 0.880051C33.8497 0.600051 32.6697 0.290039 31.1897 0.290039C27.4197 0.290039 24.7697 2.19004 24.7497 4.90004C24.7297 6.91004 26.6397 8.03004 28.0897 8.70004C29.5697 9.39004 30.0697 9.82004 30.0697 10.43C30.0697 11.37 28.8897 11.8 27.7897 11.8C26.2597 11.8 25.4497 11.5901 24.1997 11.0701L23.7097 10.8501L23.1797 13.98C24.0697 14.37 25.7197 14.71 27.4297 14.73C31.4397 14.73 34.0397 12.86 34.0697 9.95004C34.0797 8.36004 33.0697 7.15004 30.8697 6.15004C29.5397 5.50004 28.7197 5.07004 28.7297 4.42004C28.7297 3.84004 29.4197 3.22005 30.9097 3.22005C32.1597 3.20005 33.0597 3.47004 33.7597 3.76004L34.0997 3.92004L34.6197 0.890045" fill="#005098"/>
<path d="M44.3815 0.550049H41.4315C40.5215 0.550049 39.8315 0.800052 39.4315 1.71005L33.7715 14.53H37.7715C37.7715 14.53 38.4215 12.81 38.5715 12.43C39.0115 12.43 42.9015 12.43 43.4515 12.43C43.5615 12.92 43.9115 14.53 43.9115 14.53H47.4515L44.3715 0.560043M39.6715 9.57005C39.9915 8.76005 41.1915 5.66005 41.1915 5.66005C41.1715 5.70005 41.5015 4.85005 41.7015 4.33005L41.9615 5.54004C41.9615 5.54004 42.6915 8.88005 42.8415 9.58005H39.6815L39.6715 9.57005Z" fill="#005098"/>
<path d="M13.7811 0.550049L10.0511 10.09L9.65109 8.15004C8.96109 5.92004 6.79109 3.50004 4.37109 2.28004L7.7811 14.51H11.8111L17.8111 0.550049H13.7711" fill="#005098"/>
<path d="M6.59062 0.540039H0.440628L0.390625 0.830048C5.17063 1.99005 8.34062 4.78004 9.65062 8.15004L8.31062 1.72005C8.08062 0.830047 7.41061 0.570039 6.58061 0.540039" fill="#F6A500"/>
</svg>
