<svg width="30" height="31" viewBox="0 0 30 31" fill="none" xmlns="http://www.w3.org/2000/svg">
<path d="M15.0781 0C19.1927 0 22.7083 1.45833 25.625 4.375C28.5417 7.29167 30 10.8073 30 14.9219C30 19.0365 28.5417 22.5521 25.625 25.4688C22.7083 28.3854 19.1927 29.8438 15.0781 29.8438C12.526 29.8438 10.1302 29.2448 7.89062 28.0469L0 30.1562L2.10938 22.4219C0.807292 20.0781 0.15625 17.5781 0.15625 14.9219C0.15625 10.8073 1.61458 7.29167 4.53125 4.375C7.44792 1.45833 10.9635 0 15.0781 0ZM15.0781 27.3438C18.5156 27.3438 21.4323 26.1458 23.8281 23.75C26.276 21.3021 27.5 18.3594 27.5 14.9219C27.5 11.4844 26.276 8.56771 23.8281 6.17188C21.4323 3.72396 18.5156 2.5 15.0781 2.5C11.6406 2.5 8.69792 3.72396 6.25 6.17188C3.85417 8.56771 2.65625 11.4844 2.65625 14.9219C2.65625 17.3177 3.28125 19.5312 4.53125 21.5625L4.84375 22.0312L3.59375 26.5625L8.28125 25.3906L8.75 25.625C10.6771 26.7708 12.7865 27.3438 15.0781 27.3438ZM21.875 18.0469C22.2917 18.2552 22.526 18.4115 22.5781 18.5156C22.7344 18.776 22.6562 19.349 22.3438 20.2344C22.2396 20.651 21.901 21.0417 21.3281 21.4062C20.7552 21.7708 20.2604 21.9792 19.8438 22.0312C19.0104 22.1875 18.2292 22.1354 17.5 21.875C16.7188 21.6667 16.0156 21.4062 15.3906 21.0938C13.2552 20.2083 11.1198 18.3333 8.98438 15.4688C7.99479 14.1146 7.5 12.8385 7.5 11.6406C7.5 10.4948 7.91667 9.45312 8.75 8.51562C9.0625 8.20312 9.40104 8.04688 9.76562 8.04688C10.0781 8.04688 10.3125 8.04688 10.4688 8.04688C10.8854 8.04688 11.1719 8.25521 11.3281 8.67188C11.3802 8.82812 11.5104 9.16667 11.7188 9.6875C11.9271 10.1562 12.0833 10.5729 12.1875 10.9375C12.3438 11.25 12.4479 11.4323 12.5 11.4844C12.6042 11.6927 12.6042 11.901 12.5 12.1094C12.3438 12.4219 12.2135 12.6302 12.1094 12.7344C11.7448 13.151 11.5625 13.3594 11.5625 13.3594C11.3021 13.6198 11.25 13.8802 11.4062 14.1406C11.9792 15.1823 12.6823 16.0417 13.5156 16.7188C14.0885 17.2917 15.0781 17.9167 16.4844 18.5938C16.849 18.75 17.1094 18.724 17.2656 18.5156C17.8906 17.8385 18.3073 17.3438 18.5156 17.0312C18.6719 16.7708 18.9323 16.7188 19.2969 16.875C19.6094 16.9792 20.4688 17.3698 21.875 18.0469Z" fill="white"/>
</svg>
