<svg width="61" height="60" viewBox="0 0 61 60" fill="none" xmlns="http://www.w3.org/2000/svg">
<path d="M43.6539 28.9317C41.7423 27.3577 39.9706 27.7281 38.3388 28.191C38.3388 28.0984 38.2456 28.0058 38.1523 27.9132C38.4321 28.4688 38.8051 29.1169 39.178 29.6724L39.2713 29.8576C39.2713 29.8576 35.4016 29.6724 32.1846 27.0337L30.9724 25.83C30.5994 25.9226 30.2264 26.2004 29.8534 26.293C29.8534 26.293 29.7602 26.8485 29.8534 27.6818L29.5737 27.9595C28.4547 25.6911 27.1959 21.6636 29.7602 18.1915H33.1637C33.5366 17.4508 34.0961 16.7101 34.7488 16.1083H43.7471C42.6282 17.312 41.0896 19.8581 40.9963 22.1265C40.9031 25.7374 42.7214 28.1447 43.6539 28.9317ZM43.6539 28.9317C43.7471 29.1169 43.9336 29.2095 44.0268 29.302C44.0268 29.302 43.8404 29.2095 43.6539 28.9317ZM30.9257 7.3125C18.7105 7.3125 8.54663 17.3582 8.54663 29.6261C8.54663 31.6167 8.82637 33.4685 9.2926 35.2739C12.2299 34.7184 12.8826 33.6074 15.2604 33.0981C16.4726 32.913 17.8246 33.3759 17.1719 34.3018C17.1719 34.3018 16.8922 34.487 16.8922 34.5795C16.7057 34.7647 16.6124 35.1351 16.8922 35.2277C16.8922 35.3202 17.2652 35.598 17.7314 35.598C22.1606 35.1351 22.6268 33.7 25.4708 33.1444C26.683 32.9593 28.0351 33.4222 27.2891 34.3481C27.2891 34.3481 27.0094 34.5332 27.0094 34.6258C26.8229 34.811 26.8229 35.1814 27.0094 35.2739C27.1026 35.3665 27.4756 35.6443 27.8486 35.6443C32.2778 35.1814 32.744 33.7463 35.4948 33.1907C36.8003 33.0056 38.0591 33.4685 37.4064 34.3944C37.4064 34.3944 37.1266 34.5795 37.1266 34.6721C36.9401 34.8573 36.9401 35.2277 37.1266 35.3202C37.1266 35.4128 37.4996 35.6906 37.9658 35.6906C42.395 35.2277 42.8613 33.7925 45.612 33.237C46.9175 33.0518 48.1763 33.5148 47.5236 34.4407C47.5236 34.4407 47.2438 34.6258 47.2438 34.7184C47.0574 34.9036 46.9641 35.2739 47.2438 35.3665C47.3371 35.4591 47.6168 35.7369 48.0831 35.7369C49.9014 35.5517 51.4866 34.9962 52.419 34.5332C52.792 32.9593 52.9785 31.339 52.9785 29.5798C53.0251 17.2657 43.1876 7.3125 30.9257 7.3125ZM23.6992 19.0711L20.4822 19.3489C20.4822 19.3489 21.4146 20.3673 21.8809 20.8303C22.0673 21.0155 21.8809 21.2932 21.6011 21.108L20.2024 19.7192C20.2024 19.7192 19.9227 28.8391 19.8294 29.8576C19.8294 30.2279 19.5497 30.2279 19.5497 29.8576L19.27 19.7192C18.8037 20.0896 18.3375 20.7377 17.8713 21.108C17.5915 21.2932 17.405 21.108 17.5915 20.8303L18.897 19.3489C17.778 19.2563 16.7989 19.1637 15.68 19.0711C15.2137 19.0711 15.2137 18.7008 15.68 18.6082L18.897 18.3304C18.897 18.3304 17.9645 17.312 17.4983 16.849C17.3118 16.5713 17.4983 16.3861 17.6848 16.4787L19.27 17.9601V17.8675C19.27 16.7564 19.3632 15.7843 19.4564 14.6732C19.4564 14.3029 19.9227 14.2103 19.9227 14.6732L20.2024 17.9601C20.2024 17.9601 21.2281 16.9416 21.7876 16.4787C22.0673 16.2935 22.2538 16.5713 21.9741 16.849L20.4822 18.3304C20.4822 18.3304 22.6734 18.5156 23.6992 18.6082C24.1188 18.6082 24.212 18.9785 23.6992 19.0711ZM37.4996 14.0714C37.3131 14.3492 37.2199 15.1824 37.5929 15.6454C37.1266 15.3676 35.9144 14.6269 34.9353 14.4417C35.9144 14.2566 37.4996 14.0714 37.4996 14.0714Z" stroke="#FF4F00" stroke-miterlimit="10"/>
<path d="M39.1314 35.3667L39.5976 35.2741L36.3806 30.9688L39.1314 35.3667ZM40.5301 35.0889L40.9963 34.9963L37.9658 30.9688L40.5301 35.0889ZM42.0686 34.5334L42.3484 34.3482L39.7841 30.9688L42.0686 34.5334ZM43.3741 33.8853L43.6538 33.7927L41.5558 30.9688L43.3741 33.8853ZM43.0944 30.9688L44.6795 33.4223L44.866 33.2371L43.0944 30.9688Z" fill="#FF4F00"/>
<path d="M50.1812 26.3849L49.0622 25.5516H48.8757C47.6635 26.0145 45.4723 26.0145 45.4723 26.0145H45.379V26.1071C44.9128 26.7552 44.0736 27.7737 43.3276 28.5607C42.4884 27.4496 41.0431 25.459 41.0431 22.3573V22.0795C41.1363 19.7185 42.8147 17.1261 43.7938 16.1539L43.7006 15.9688H34.7023C34.0496 16.6169 33.4901 17.3576 33.1171 17.9594H29.7136C27.8021 20.6907 27.7088 23.885 29.3406 27.82C29.1542 28.0977 28.8744 28.3755 28.5014 28.931V29.0236L28.7812 29.5791C29.6204 31.292 30.0866 32.2179 31.6252 34.44L31.8117 34.6251L32.4644 34.2548L32.5576 34.1622C33.3036 33.7919 34.1428 33.4215 35.4017 33.1437C36.2409 33.0512 37.0801 33.1437 37.3132 33.5141V33.7919C37.3132 33.8845 37.3132 34.0696 37.1267 34.2548L36.9402 34.44H36.847C36.7537 34.5326 36.7537 34.7177 36.7537 34.9029V34.9955C36.7537 35.0881 36.847 35.1807 36.9402 35.2733C37.1267 35.3659 37.4065 35.551 37.7794 35.551C40.5302 35.3659 41.7424 34.7177 42.9546 34.1622C43.7006 33.7919 44.4465 33.4215 45.5189 33.1437C46.3581 33.0512 47.1973 33.1437 47.4304 33.5141C47.5237 33.6993 47.5237 33.8844 47.4304 34.0696L47.5237 34.1622C49.2021 32.6808 50.4609 30.505 51.4866 27.4959V27.4033L50.1812 26.3849ZM45.4723 26.1997C45.752 26.1997 47.4771 26.1071 48.6893 25.7367C48.4095 26.1997 47.5703 27.1256 46.498 27.9125C45.752 28.4681 44.9128 28.931 44.1202 29.2088C44.0269 29.1162 43.8404 29.0236 43.7472 28.931C43.654 28.8384 43.654 28.7458 43.4675 28.6533C44.2134 27.8663 45.006 26.8478 45.4723 26.1997ZM43.9337 29.3014C43.4675 29.394 43.0945 29.4865 42.6282 29.5791L43.3742 28.8384C43.4675 28.931 43.5607 28.931 43.654 29.1162C43.7472 29.1162 43.8404 29.2088 43.9337 29.3014ZM42.3485 29.6717C42.162 29.6717 41.8823 29.7643 41.6958 29.7643C40.9498 29.8569 40.1106 29.8569 39.318 29.7643L39.2248 29.6717C38.945 29.1162 38.6653 28.6533 38.3855 28.1903C39.9707 27.82 41.5093 27.4496 43.281 28.7458C42.7215 29.2088 42.4418 29.5791 42.3485 29.6717ZM34.7956 16.1539H43.5141C42.4884 17.3576 40.9498 19.7185 40.9498 22.0795V22.3573C40.9498 25.2738 42.162 27.3107 43.0479 28.3755C41.3694 27.357 39.8309 27.6348 38.3389 28.0977C38.2457 28.0051 38.1524 27.9125 38.1524 27.82C36.2409 23.9776 36.3807 21.3388 37.5929 18.052L37.4997 17.9594H33.3502C33.7232 17.3576 34.1428 16.7095 34.7956 16.1539ZM28.3616 22.7276C28.3616 21.0611 28.8278 19.5334 29.8535 18.1446H37.4997C37.4065 18.3297 37.3132 18.5149 37.22 18.8853C36.847 20.1815 36.6605 21.3388 36.6605 22.5425C36.6605 23.4683 36.7537 24.4405 37.0335 25.459C37.3132 26.2923 37.5929 27.1256 38.0592 27.9125C38.4322 28.4681 38.7119 29.1162 39.0849 29.718H39.1781C38.3389 29.6254 35.0287 29.1625 32.2779 26.8941L31.0191 25.7367V25.6442H30.9258C30.8326 25.7367 30.7393 25.8293 30.6461 25.8293C30.5529 25.8293 30.4596 25.9219 30.3664 26.0145L29.8069 26.1997L29.7136 26.2923C29.7136 26.2923 29.6204 26.7552 29.7136 27.4959H29.6204C29.6204 27.5885 29.5271 27.6811 29.5271 27.6811C28.7345 25.9219 28.3616 24.3016 28.3616 22.7276ZM31.8583 34.44C30.2731 32.3568 29.8535 31.3383 29.0143 29.4865C29.0143 29.4865 28.8278 29.1162 28.7345 29.0236C29.1075 28.3755 29.4805 28.0051 29.7603 27.6348C29.7603 27.82 29.7603 27.9125 29.8535 28.0977C29.9467 29.3014 30.3197 31.0142 31.3454 32.7734C31.6252 33.3289 31.9982 33.7919 32.3712 34.3474C32.138 34.3474 31.9515 34.44 31.8583 34.44ZM30.413 30.1347V30.0421C30.413 29.9495 30.3197 29.8569 30.3197 29.7643C30.3197 29.6717 30.2265 29.5791 30.2265 29.4865V29.394C30.04 28.7458 29.9467 28.0977 29.9467 27.5885V26.3849L30.5062 26.1071C30.5995 26.0145 30.786 25.9219 30.8792 25.9219C30.5995 29.2088 31.1123 30.6902 32.4178 34.0696C31.3921 32.7734 30.786 31.4309 30.413 30.1347ZM32.6043 34.1622C31.2988 30.6902 30.786 29.2088 31.0191 25.9219C31.2056 26.1997 31.7651 26.7552 31.9515 26.9404C31.8583 30.0421 32.138 32.1253 32.9773 33.8844V33.977C32.7908 33.977 32.6975 34.0696 32.6043 34.1622ZM47.8034 33.8844V33.7919C47.8034 33.6067 47.7102 33.5141 47.6169 33.4215C47.3372 33.0512 46.498 32.866 45.6121 32.9586C44.4932 33.2363 43.7006 33.6067 42.9546 33.977C41.7424 34.6251 40.5768 35.1807 37.8727 35.4584C37.5929 35.4584 37.22 35.2733 37.1267 35.1807C37.0335 35.0881 37.0335 34.9955 37.0335 34.9955V34.9029C37.0335 34.7177 37.0335 34.6252 37.1267 34.5326L37.4065 34.3474C37.4997 34.0696 37.5929 33.977 37.5929 33.7919C37.5929 33.6067 37.4997 33.5141 37.4997 33.4215C37.22 33.0512 36.2875 32.866 35.4017 32.9586C34.4692 33.1437 33.7232 33.5141 33.1171 33.8844C32.3712 32.1716 32.0914 30.1347 32.1847 27.1256C32.2779 27.1256 32.2779 27.1256 32.2779 27.2181C32.3712 27.2181 32.3712 27.2181 32.4644 27.3107C34.9354 29.2088 38.5254 30.3198 41.7424 29.9495C42.0221 29.9495 42.3019 29.8569 42.5816 29.7643C44.8662 29.5791 46.6378 28.1903 47.8034 27.1256C48.1764 26.6626 48.6426 26.1997 49.0156 25.7367C49.1089 25.8293 50.1346 26.57 50.1346 26.57C50.1346 26.57 51.3468 27.4033 51.44 27.4959C50.4609 30.3198 49.2487 32.403 47.8034 33.8844Z" fill="#FF4F00"/>
<path d="M40.5303 46.3827C40.3438 46.3827 40.1573 46.3827 39.8775 46.4753C37.593 47.1234 36.6605 48.4659 32.2313 48.8363C30.7394 48.8363 29.8536 47.5401 30.413 46.3827C30.1333 46.3827 29.9468 46.3827 29.7603 46.4753C27.4758 47.1234 26.5433 48.4659 22.1141 48.8363C20.6222 48.8363 19.8296 47.5401 20.2958 46.3827C20.1093 46.3827 19.9228 46.3827 19.6431 46.4753C18.8039 46.6605 18.1511 47.0308 17.4518 47.4012C21.0418 50.1325 25.5642 51.7991 30.5063 51.6139C34.6557 51.5213 38.4322 50.5029 41.556 48.6974C40.6235 48.3271 40.1573 47.3086 40.5303 46.3827ZM48.1765 36.4296C46.6845 36.4296 45.8919 35.0407 46.3581 33.976H45.7987C43.5141 34.6241 42.4884 36.0592 38.0592 36.4296C36.5673 36.4296 35.7747 35.0407 36.2409 33.976H35.6814C33.3969 34.6241 32.3712 36.0592 27.942 36.4296C26.5433 36.4296 25.7507 35.0407 26.1237 33.976H25.5642C23.2797 34.6241 22.254 36.0592 17.8248 36.4296C16.7991 36.4296 16.0531 35.7814 15.9132 35.0407C15.9132 34.9482 15.82 34.8556 15.82 34.763C15.82 34.4852 15.82 34.2075 16.0065 33.9297H15.3538C13.3956 34.5315 12.3699 35.6889 9.43262 36.1518C10.0853 37.911 10.8313 39.6238 11.8104 41.1978C13.4422 40.5497 14.2814 39.809 16.0531 39.4849C17.3586 39.2072 18.6174 39.6701 17.9647 40.6886C17.9647 40.6886 17.7782 40.7812 17.6849 40.8738C17.4984 41.0589 17.4984 41.4293 17.6849 41.6145C17.7782 41.6145 18.1511 41.8922 18.6174 41.8922C23.0466 41.5219 23.5128 40.0868 26.2636 39.5312C27.569 39.2535 28.8278 39.7164 28.1751 40.7349C28.1751 40.7349 27.8954 40.8275 27.8954 40.92C27.7089 41.1052 27.7089 41.4756 27.8954 41.6607C27.8954 41.6607 28.2684 41.9385 28.7346 41.9385C33.1638 41.5682 33.63 40.1331 36.3808 39.5775C37.593 39.2998 38.9451 39.7627 38.1991 40.7812C38.1991 40.7812 38.0126 40.8738 38.0126 40.9663C37.8261 41.1515 37.7329 41.5219 38.0126 41.707C38.0126 41.707 38.3856 41.9848 38.8518 41.9848C43.281 41.6145 43.7472 40.1793 46.498 39.6238C47.8035 39.3461 49.0623 39.809 48.4096 40.8275C48.4096 40.8275 48.1298 40.92 48.1298 41.0126C47.9433 41.1978 47.9433 41.5682 48.1298 41.7533C48.1298 41.7533 48.5028 42.0311 48.969 42.0311H49.0623C50.2745 40.1331 51.2536 38.0961 51.8131 35.8277C50.9272 35.874 49.2488 36.337 48.1765 36.4296ZM47.1507 40.4571C46.871 40.4571 46.6845 40.4571 46.498 40.5497C44.2135 41.1052 43.281 42.4477 38.8518 42.9107C37.3599 42.9107 36.474 41.5219 37.0335 40.4571C36.7538 40.4571 36.5673 40.4571 36.3808 40.5497C34.0963 41.1052 33.1638 42.4477 28.7346 42.9107C27.2427 42.9107 26.4501 41.5219 26.9163 40.4571C26.7298 40.4571 26.4501 40.4571 26.2636 40.5497C23.979 41.1052 23.0466 42.4477 18.6174 42.9107C17.0322 42.9107 16.2396 41.5219 16.7058 40.4571C16.5193 40.4571 16.3328 40.4571 16.0531 40.5497C14.6544 40.8275 13.8618 41.5682 12.3699 42.1237C13.5821 43.7903 14.9341 45.318 16.5193 46.7068C17.545 46.2438 18.3376 45.6883 19.6431 45.4105C20.9485 45.2254 22.2074 45.5957 21.5546 46.6142L21.2749 46.7994C21.0884 46.9845 21.0884 47.3549 21.2749 47.5401C21.3681 47.5401 21.7411 47.8178 22.1141 47.8178C26.5433 47.4475 27.0095 46.0124 29.7603 45.4568C31.0658 45.2717 32.3246 45.642 31.6719 46.6605L31.3921 46.8457C31.2056 47.0308 31.2056 47.4012 31.3921 47.5864C31.3921 47.5864 31.7651 47.8641 32.2313 47.8641C36.6605 47.4938 37.1268 46.0587 39.8775 45.5031C41.183 45.318 42.4418 45.6883 41.7891 46.7068L41.5093 46.8919C41.3228 47.0771 41.3228 47.4475 41.5093 47.6326C41.6026 47.6326 41.8823 47.9104 42.3486 47.9104C42.6283 47.9104 42.908 47.9104 43.281 47.8178C45.1926 46.5216 46.9642 44.8087 48.3629 42.957C47.3372 42.4477 46.6845 41.383 47.1507 40.4571Z" fill="#FF4F00"/>
<path d="M2.06597 27.0328L6.9614 27.5884L7.05465 26.6625L2.15922 26.107L2.25246 24.8107L1.32 24.7181L0.947014 28.2828L1.87948 28.3753L2.06597 27.0328ZM8.68646 20.3665L7.75399 20.0888L7.19452 21.8016L2.5322 20.2739L2.25246 21.1072L7.75399 23.0053L8.68646 20.3665ZM10.4115 16.2464L11.344 15.9686L10.3183 13.6076L12.7893 14.0706L12.8825 13.1447L10.0385 12.5892L8.91957 9.95042L7.98711 10.2282L9.01282 12.4966L6.63504 12.0336L6.54179 12.9595L9.29256 13.4225L10.4115 16.2464ZM15.6799 11.2004L11.9967 6.70985L11.2507 7.26538L15.0272 11.7559L15.6799 11.2004ZM17.1252 10.2282L14.7475 6.57097V6.47839L18.9902 9.11713L19.6429 8.37643L16.7056 3.56188L15.9597 4.02482L18.2442 7.77461L13.9082 5.13587L13.3488 5.87657L16.3327 10.6911L17.1252 10.2282ZM21.6477 2.54341L23.0464 7.31167L23.9788 7.03391L22.5802 2.26565L23.7924 1.8953L23.6059 0.969426L20.1091 2.08048L20.3889 2.91376L21.6477 2.54341ZM29.8534 1.71013L32.0447 6.20062L32.9771 5.92286L33.1636 0.275019H32.2311L32.1379 4.67293L29.9466 0.0898438L29.1074 0.367606L29.0141 6.01545L29.8534 6.10804V1.71013ZM38.7584 7.49685C39.5976 7.8672 40.4368 7.49685 40.6699 6.57097C40.9497 5.83027 40.7632 5.18216 40.297 4.9044C40.7632 4.99698 41.3227 4.62663 41.5092 3.88593C41.8821 3.05265 41.5092 2.26565 40.5767 1.98789L39.1314 1.43236L37.0333 6.89503L38.7584 7.49685ZM39.5976 2.54341L40.1571 2.72859C40.7166 2.91376 40.903 3.28411 40.7166 3.74705C40.5301 4.30258 40.0638 4.39517 39.5976 4.30258L39.1314 4.1174L39.5976 2.54341ZM39.2246 4.99698C39.8773 5.18216 40.0638 5.6451 39.8773 6.20062C39.6908 6.66356 39.3179 6.84874 38.7584 6.66356L38.1989 6.47839L38.7584 4.81181L39.2246 4.99698ZM41.4159 8.65419L42.6281 6.61727L42.9078 6.70985C43.0011 6.80244 43.0011 6.89503 43.0943 7.0802V9.76524L44.12 9.67266L44.0268 7.1265C44.5863 7.1265 45.239 6.84874 45.612 6.20062C45.985 5.36733 45.985 4.48775 44.9593 3.93223L43.5606 3.19153L40.7166 8.28384L41.4159 8.65419ZM43.9336 4.34887L44.3998 4.62663C44.7728 4.81181 44.9593 5.27475 44.6795 5.73769C44.3065 6.3858 43.8403 6.29321 43.5606 6.20062L43.0943 5.92286L43.9336 4.34887ZM44.9126 10.8763L48.3161 6.20062L47.5702 5.6451L44.1667 10.3208L44.9126 10.8763ZM47.9898 11.3855C47.71 11.7559 47.2438 11.7559 46.8708 11.4781C46.6843 11.2929 46.4978 10.9226 46.4978 10.5522L45.6586 10.9226C45.7519 11.4781 46.0316 11.8485 46.3113 12.2188C47.0573 12.8669 48.0364 12.6818 48.6891 11.9411C49.9946 10.5522 48.2229 9.48748 48.9689 8.65419C49.3418 8.28384 49.8081 8.28384 50.0878 8.56161C50.3675 8.83937 50.4608 9.20972 50.554 9.48748L51.3933 9.20972C51.3 8.65419 51.0203 8.19126 50.6473 7.91349C49.9013 7.26538 48.9689 7.35797 48.3628 8.00608C46.9641 9.48748 48.7824 10.5059 47.9898 11.3855ZM50.8338 17.3574L51.673 16.8019L50.554 15.2279L54.6103 12.404L54.0508 11.6633L49.1553 15.0427L50.8338 17.3574ZM55.9623 20.5517C54.1906 20.922 53.2116 22.172 53.4913 23.6534C53.5845 24.2089 53.9575 24.6718 54.4238 25.0422L55.0765 24.5793C54.7967 24.3015 54.6103 24.0237 54.4238 23.4682C54.2373 22.5423 55.1697 21.709 56.2421 21.4776C57.361 21.2924 58.3401 21.6627 58.6198 22.6812C58.6198 23.0516 58.5266 23.6071 58.3401 23.8848L59.0861 24.1626C59.4591 23.6071 59.6456 23.0516 59.4591 22.4497C59.1793 21.0146 57.734 20.2739 55.9623 20.5517ZM59.4591 28.9309L59.3658 30.3197L54.3771 30.0419V30.9678L59.3658 31.153L59.2726 32.5418L60.205 32.6344L60.3915 28.9772L59.4591 28.9309ZM30.6926 52.9573C19.3632 52.9573 9.9919 44.9948 7.70737 34.3935H1.18013C3.65116 48.4668 15.913 59.0681 30.7392 59.0681C45.4721 59.0681 57.7806 48.4668 60.205 34.3935H53.771C51.3933 45.0411 41.9754 52.9573 30.6926 52.9573ZM20.995 56.9849L20.249 56.6146L20.8085 53.5129L19.0834 54.4387L18.6172 52.5407L16.5191 54.9017L15.8664 54.5313L19.0834 50.5964L19.6429 53.2351L22.0207 51.9389L20.995 56.9849ZM23.4194 57.5404C22.5802 57.3553 22.1139 56.059 22.4869 54.8091C22.8599 53.4203 23.7924 52.6333 24.6782 52.8185C25.2377 53.0036 25.6107 53.5592 25.7039 54.3925L24.8647 54.1147C24.7714 53.8369 24.5849 53.6517 24.3985 53.6517C24.0255 53.5592 23.466 54.1147 23.1863 55.0406C22.9998 55.9664 23.093 56.7071 23.5592 56.846C23.7457 56.846 23.9322 56.7534 24.1187 56.5683L24.9579 56.7534C24.5849 57.3553 23.9322 57.7256 23.4194 57.5404ZM30.5993 58.5589L29.9466 55.4572L28.5479 56.9386L27.5222 55.3183L26.4033 58.3274L25.564 58.2348L27.1958 53.374L28.5945 55.6424L30.4128 53.6517L31.3453 58.6978L30.5993 58.5589ZM35.4481 58.1885L34.0494 56.522L33.117 58.42L32.371 58.5126L33.5832 55.8739L31.7649 53.6055L32.6041 53.5129L34.0028 55.272L34.9353 53.2814L35.7745 53.1888L34.4691 55.8276L36.2874 58.096L35.4481 58.1885ZM39.7841 57.0775L36.3806 53.0499L37.1266 52.7722L39.0381 55.0406L39.3179 52.0315L40.0638 51.8463L39.7841 57.0775ZM43.0943 55.8276L40.9963 51.4296L41.7423 51.0593L43.8403 55.4572L43.0943 55.8276ZM44.9126 54.9017L42.5349 50.5964L43.1876 50.226L45.6586 54.5313L44.9126 54.9017ZM6.72828 29.116L5.84244 29.2086L6.02894 31.0141L4.44375 31.153L4.3505 29.8567H3.41804L3.51129 31.2456L1.9261 31.3381L1.73961 29.4401L0.900391 29.5327L0.993637 32.264L6.86815 31.8937L6.72828 29.116ZM28.4547 6.01545L28.2682 5.08957L26.4499 5.36733L26.1701 3.88593L27.4756 3.74705L27.3823 2.82118L25.9836 3.00635L25.7972 1.43236L27.5222 1.1546L27.429 0.228725L24.7714 0.691663L25.7039 6.43209L28.4547 6.01545ZM36.6603 5.83027L34.842 5.45992L35.1218 3.97852L36.4272 4.1637L36.6137 3.23782L35.3083 3.05265L35.6813 1.47866L37.4063 1.8953L37.5928 0.969426L34.9353 0.4139L33.7231 6.15433L36.4739 6.70985L36.6603 5.83027ZM54.4238 28.5605L55.3562 28.4679L55.1697 26.6625L56.7549 26.4773L56.8482 27.8661L57.7806 27.7735L57.6874 26.4773L59.1793 26.2921L59.3658 28.0976L60.2983 28.005L60.1118 25.3662L54.2373 25.8292L54.4238 28.5605ZM9.71216 18.4222C10.1784 17.4037 10.0852 16.6167 8.7797 15.876L5.56271 14.0706L4.90998 14.6724L8.40672 16.663C9.05944 17.0334 9.15269 17.4037 8.87295 17.9592C8.59321 18.5148 8.22022 18.5148 7.47425 18.237L3.97752 16.4315L3.79103 17.3574L7.10127 18.9777C8.31347 19.6258 9.15269 19.4406 9.71216 18.4222ZM51.9061 19.4406C52.3723 20.4591 53.2116 20.922 54.5636 20.2739L57.8739 18.6999L57.7806 17.7741L54.0974 19.4869C53.4447 19.7647 52.8852 19.5795 52.6055 19.024C52.419 18.4685 52.6055 18.0981 53.2582 17.7278L56.7549 15.8297L56.1022 15.1816L52.792 16.8945C51.6264 17.6352 51.3933 18.4222 51.9061 19.4406Z" fill="#FF4F00"/>
</svg>
