<svg width="50" height="60" viewBox="0 0 50 60" fill="none" xmlns="http://www.w3.org/2000/svg">
<path d="M24.5368 1.70703H25.4755C33.0319 1.70703 38.5702 6.5017 41.9025 10.6912C45.2348 14.8342 48.0978 22.1426 48.0978 29.4975V30.8009C48.0978 44.0677 38.6171 58.4052 25.2878 58.4052H24.5368C16.9804 58.4052 11.3483 53.4708 7.96904 49.2813C4.54283 44.9522 1.86758 37.5972 1.82065 30.0561C1.77371 22.6546 4.58977 15.0669 7.9221 10.8774C11.3483 6.5948 16.7927 1.70703 24.5368 1.70703Z" stroke="#FF4F00" stroke-width="0.3979" stroke-miterlimit="10"/>
<path d="M0.506592 29.2631C0.506592 21.9548 3.65119 13.5757 7.12432 9.61895C9.51797 6.91904 10.926 5.28979 14.1645 3.33468C16.6989 1.84507 20.4537 0.355469 24.5369 0.355469H25.4287C39.509 0.355469 49.506 15.2515 49.506 29.0769V30.8458C49.506 44.8109 39.509 59.6139 25.2409 59.6139H24.7716C10.4097 59.6139 0.506592 44.7643 0.506592 30.6596V29.2631V29.2631Z" stroke="#FF4F00" stroke-width="0.5299" stroke-miterlimit="10"/>
<path d="M7.26514 29.3089C7.26514 23.6298 9.51798 17.1593 12.0524 14.1336C13.789 12.0388 14.8216 10.782 17.1683 9.29235C18.9987 8.1286 21.7209 6.96484 24.6777 6.96484H25.3348C35.5196 6.96484 42.7474 18.4627 42.7474 29.1693V30.5658C42.7474 41.3654 35.5196 52.7702 25.194 52.7702H24.8186C14.4461 52.7702 7.26514 41.3189 7.26514 30.4261C7.26514 30.4261 7.26514 29.3089 7.26514 29.3089Z" stroke="#FF4F00" stroke-width="0.2649" stroke-miterlimit="10"/>
<path d="M39.0867 48.6298C38.9451 48.7702 39.2755 48.4425 39.0867 48.6298V48.6298Z" fill="#FF4F00"/>
<path d="M4.02678 40.3409L3.97984 40.2012V40.1547V40.1081C3.97984 40.1081 3.97984 40.1081 3.97984 40.0616C3.97984 40.0616 3.97984 40.0616 3.97984 40.015L3.93291 39.8754L5.52867 39.5495C5.71641 39.503 5.85721 39.4564 5.99801 39.4099C6.13882 39.3633 6.18575 39.2702 6.27962 39.1771C6.32655 39.084 6.37349 38.9909 6.37349 38.8978C6.37349 38.8047 6.37349 38.7116 6.37349 38.6185C6.32655 38.4789 6.27962 38.3858 6.23269 38.2927C6.18575 38.1995 6.09188 38.153 5.99801 38.1065C5.90415 38.0599 5.81028 38.0599 5.66947 38.0133C5.52867 38.0133 5.38787 38.0133 5.24707 38.0599L3.55743 38.3858V38.1996L3.5105 38.0599L5.10626 37.734C5.294 37.6875 5.48174 37.6875 5.62254 37.6875C5.76334 37.6875 5.90415 37.734 6.04495 37.7806C6.18575 37.8271 6.27962 37.9202 6.37349 38.0599C6.46736 38.1995 6.51429 38.3392 6.56123 38.572L6.60816 38.7116C6.65509 38.8978 6.65509 39.084 6.65509 39.2702C6.60816 39.4099 6.56123 39.5495 6.46736 39.6426C6.37349 39.7357 6.27962 39.8288 6.13882 39.8754C5.99801 39.9219 5.90415 39.9685 5.76334 40.015L4.02678 40.3409Z" fill="#FF4F00"/>
<path d="M3.27563 36.712V36.5723V36.3861L5.01219 34.5241L3.08789 34.7103V34.5706C3.08789 34.5706 3.08789 34.5706 3.08789 34.5241C3.08789 34.5241 3.08789 34.5241 3.08789 34.4775V34.3379L5.85701 34.0586V34.1982V34.3379L4.02658 36.2465L5.99781 36.0137V36.1534V36.293L3.27563 36.712Z" fill="#FF4F00"/>
<path d="M2.99414 32.7559C2.99414 32.7093 2.99414 32.7093 2.99414 32.7559C2.99414 32.7093 2.99414 32.7093 2.99414 32.7559C2.99414 32.7093 2.99414 32.7093 2.99414 32.7559V32.6628V32.6162V32.4766L5.76326 32.6628V32.8024C5.76326 32.8024 5.76326 32.8024 5.76326 32.849V32.8955V32.9421V32.9886V33.1283L2.99414 32.9421V32.7559Z" fill="#FF4F00"/>
<path d="M2.9002 31.3122V31.2191V31.1726V31.0329L5.10611 30.5209C5.05917 30.5209 5.05917 30.4743 5.01224 30.4743C4.96531 30.4743 4.96531 30.4278 4.91837 30.3812C4.8245 30.3347 4.77757 30.2881 4.6837 30.2416C4.58983 30.195 4.49596 30.1485 4.4021 30.1019C4.35516 30.1019 4.35516 30.0554 4.30823 30.0554C4.26129 30.0554 4.26129 30.0088 4.21436 30.0088C4.21436 30.0088 4.16742 30.0088 4.16742 29.9623C4.16742 29.9623 4.12049 29.9623 4.12049 29.9157C4.12049 29.9157 4.07356 29.9157 4.07356 29.8692C4.07356 29.8692 4.02662 29.8692 4.02662 29.8226C3.93275 29.7761 3.88582 29.7295 3.79195 29.683C3.69808 29.6364 3.65115 29.5899 3.55728 29.5433C3.46341 29.4968 3.41648 29.4502 3.32261 29.4502C3.22874 29.4037 3.1818 29.4037 3.13487 29.3571V29.2175C3.13487 29.2175 3.13487 29.2174 3.13487 29.1709V29.0312L5.66932 30.5674L5.62239 30.7071V30.5674L5.57545 30.7071L2.66553 31.4519L2.71246 31.3122C2.85326 31.3588 2.85326 31.3122 2.9002 31.3122Z" fill="#FF4F00"/>
<path d="M3.08789 28.2393V28.0996L3.22869 26.7031H3.27563C3.27563 26.7031 3.27563 26.7031 3.32256 26.7031H3.3695C3.3695 26.7031 3.3695 26.7031 3.41643 26.7031V26.8428C3.41643 26.8893 3.41643 26.9359 3.3695 26.9359C3.3695 26.9824 3.3695 27.029 3.32256 27.0755C3.32256 27.1221 3.32256 27.1686 3.32256 27.2152C3.32256 27.2617 3.32256 27.3083 3.32256 27.3548C3.32256 27.3548 3.32256 27.3548 3.32256 27.4014C3.32256 27.4014 3.32256 27.4014 3.32256 27.4479C3.32256 27.4479 3.32256 27.4479 3.32256 27.4945C3.32256 27.4945 3.32256 27.4945 3.32256 27.541C3.32256 27.541 3.32256 27.541 3.32256 27.5876C3.32256 27.5876 3.32256 27.5876 3.32256 27.6341C3.32256 27.6341 3.32256 27.6341 3.32256 27.6807C3.32256 27.6807 3.32256 27.6807 3.32256 27.7272V27.7738V27.8203L4.30818 27.9134L4.35512 27.4945V27.1221V26.9824H4.40205C4.40205 26.9824 4.40205 26.9824 4.44898 26.9824C4.44898 26.9824 4.44898 26.9824 4.49592 26.9824C4.49592 26.9824 4.49592 26.9824 4.54285 26.9824C4.54285 26.9824 4.54285 26.9824 4.58979 26.9824H4.63672V27.1221L4.54285 27.5876L4.49592 27.9134L5.62234 28.0531V28.0065V27.96V27.9134V27.8669V27.8203C5.62234 27.8203 5.62234 27.8203 5.62234 27.7738C5.62234 27.7738 5.62234 27.7738 5.62234 27.7272C5.62234 27.7272 5.62234 27.7272 5.62234 27.6807C5.62234 27.6341 5.62234 27.5876 5.62234 27.541C5.62234 27.4945 5.62234 27.4479 5.62234 27.4014C5.62234 27.3548 5.62234 27.3083 5.62234 27.2617C5.62234 27.2152 5.62234 27.1686 5.62234 27.1686V27.029H5.66927C5.66927 27.029 5.66927 27.029 5.71621 27.029C5.71621 27.029 5.71621 27.029 5.76314 27.029C5.76314 27.029 5.76314 27.029 5.81008 27.029C5.81008 27.029 5.81008 27.029 5.85701 27.029C5.85701 27.029 5.85701 27.029 5.90395 27.029C5.90395 27.029 5.90395 27.029 5.95088 27.029V27.1686L5.81008 28.5651L3.08789 28.2393Z" fill="#FF4F00"/>
<path d="M4.77766 25.4473C4.77766 25.3076 4.82459 25.2611 4.82459 25.168C4.82459 25.0749 4.82459 25.0283 4.77766 24.9818C4.77766 24.9352 4.73072 24.8421 4.68379 24.7956C4.63685 24.749 4.63685 24.7025 4.58992 24.7025C4.54299 24.7025 4.54299 24.6559 4.49605 24.6559C4.44912 24.6559 4.44912 24.6094 4.40218 24.6094C4.35525 24.6094 4.35525 24.6094 4.30831 24.6094H4.26138H4.21445H4.16751H4.12058C4.12058 24.6094 4.07364 24.6094 4.02671 24.6094C3.97977 24.6094 3.93284 24.6559 3.93284 24.6559C3.88591 24.7025 3.83897 24.7025 3.83897 24.749C3.79204 24.7956 3.79204 24.8421 3.7451 24.8887C3.69817 24.9352 3.69817 25.0283 3.69817 25.0749L3.65123 25.2611L4.77766 25.4473ZM3.36963 25.68L3.41656 25.5404L3.6043 24.6094C3.65123 24.5163 3.65123 24.4232 3.69817 24.3301C3.7451 24.237 3.79204 24.1904 3.88591 24.1439C3.97977 24.0973 4.02671 24.0508 4.12058 24.0508C4.21445 24.0508 4.30831 24.0508 4.40218 24.0508C4.49605 24.0508 4.58992 24.0973 4.63685 24.1439C4.68379 24.1904 4.77766 24.237 4.82459 24.2835C4.87153 24.3301 4.91846 24.4232 4.91846 24.4697C4.96539 24.5163 4.96539 24.6094 4.96539 24.6559C4.96539 24.7025 4.96539 24.7025 4.96539 24.749C4.96539 24.7956 4.96539 24.7956 4.96539 24.8421C4.96539 24.8887 4.96539 24.8887 4.96539 24.9352C4.96539 24.9818 4.96539 24.9818 4.96539 25.0283L6.46729 24.2835L6.42036 24.4232C6.42036 24.4232 6.42036 24.4232 6.42036 24.4697C6.42036 24.4697 6.42036 24.4697 6.42036 24.5163C6.42036 24.5163 6.42036 24.5163 6.42036 24.5628V24.6094V24.6559L6.37342 24.7956L4.96539 25.4938L6.23262 25.7266L6.18568 25.8662V25.9128L6.13875 26.0524L3.36963 25.68Z" fill="#FF4F00"/>
<path d="M4.3081 22.9792C4.26116 22.9326 4.1673 22.8395 4.1673 22.7464C4.12036 22.6533 4.12036 22.5602 4.12036 22.5137C4.12036 22.4206 4.12036 22.3275 4.12036 22.2809L4.1673 22.1413C4.1673 22.0947 4.21423 22.0016 4.21423 21.9551C4.26116 21.9085 4.26116 21.862 4.3081 21.8154C4.35503 21.7689 4.35503 21.7223 4.40197 21.7223C4.4489 21.6758 4.49584 21.6758 4.49584 21.6758L4.54277 21.7223L4.5897 21.7689L4.63664 21.8154C4.68357 21.8154 4.68357 21.862 4.73051 21.862L4.68357 22.0016V22.0482C4.68357 22.0482 4.68357 22.0482 4.63664 22.0482C4.63664 22.0482 4.63664 22.0482 4.5897 22.0482H4.54277H4.49584C4.4489 22.0482 4.4489 22.0947 4.40197 22.0947C4.35503 22.0947 4.35503 22.1413 4.3081 22.1878L4.26116 22.2344C4.26116 22.2809 4.21423 22.2809 4.21423 22.3275C4.21423 22.374 4.21423 22.4206 4.21423 22.4671C4.21423 22.5137 4.26116 22.5602 4.26116 22.6068C4.3081 22.6533 4.35503 22.6999 4.40197 22.7464C4.4489 22.793 4.49584 22.793 4.54277 22.8395C4.5897 22.8395 4.63664 22.8395 4.63664 22.8395C4.68357 22.8395 4.73051 22.8395 4.77744 22.793C4.82438 22.793 4.87131 22.7464 4.91824 22.6999C4.96518 22.6533 5.01211 22.6533 5.05905 22.5602L5.34065 22.1878C5.38759 22.1413 5.43452 22.0482 5.52839 22.0482C5.57532 22.0016 5.66919 21.9551 5.71613 21.9551C5.76306 21.9551 5.85693 21.9085 5.90386 21.9085C5.9508 21.9085 6.04467 21.9085 6.0916 21.9551C6.18547 22.0016 6.27934 22.0482 6.37321 22.0947C6.46707 22.1878 6.51401 22.2344 6.60788 22.374C6.65481 22.4671 6.70175 22.6068 6.74868 22.6999C6.74868 22.793 6.74868 22.9326 6.70175 23.0723H6.84255C6.84255 23.1188 6.79561 23.1654 6.79561 23.2119C6.74868 23.2585 6.74868 23.305 6.70175 23.3516C6.65481 23.3981 6.65481 23.4447 6.60788 23.4447C6.56094 23.4912 6.56094 23.4912 6.51401 23.5378L6.46707 23.4912L6.42014 23.4447C6.42014 23.4447 6.42014 23.4447 6.37321 23.4447C6.37321 23.4447 6.37321 23.4447 6.32627 23.4447C6.32627 23.4447 6.32627 23.4447 6.27934 23.4447C6.27934 23.4447 6.27934 23.4447 6.2324 23.4447C6.2324 23.4447 6.2324 23.4447 6.18547 23.4447V23.3981L6.2324 23.2585C6.37321 23.2119 6.46707 23.1654 6.51401 23.1654C6.60788 23.1188 6.65481 23.0723 6.65481 23.0257C6.65481 22.9792 6.70175 22.9792 6.70175 22.9326C6.70175 22.8861 6.74868 22.8861 6.74868 22.8395C6.74868 22.793 6.74868 22.6999 6.74868 22.6533C6.74868 22.6068 6.70175 22.5602 6.65481 22.5137C6.60788 22.4671 6.56094 22.4206 6.51401 22.374C6.46707 22.3275 6.42014 22.3275 6.32627 22.2809C6.27934 22.2809 6.2324 22.2809 6.18547 22.2809C6.13853 22.2809 6.0916 22.2809 6.04467 22.3275C5.99773 22.3275 5.9508 22.374 5.90386 22.374C5.85693 22.4206 5.80999 22.4671 5.76306 22.5137L5.48145 22.8395C5.38759 22.9326 5.34065 23.0257 5.24678 23.0723C5.15291 23.1188 5.10598 23.1654 5.01211 23.1654C4.96518 23.1654 4.87131 23.1654 4.82438 23.1654C4.77744 23.1654 4.68357 23.1654 4.63664 23.1188C4.4489 23.0723 4.35503 23.0257 4.3081 22.9792Z" fill="#FF4F00"/>
<path d="M4.73059 20.2324C4.77752 20.1859 4.77752 20.1859 4.73059 20.2324C4.77752 20.1859 4.77752 20.1859 4.73059 20.2324C4.77752 20.1859 4.77752 20.1859 4.73059 20.2324L4.77752 20.1393V20.0928L4.82446 19.9531L7.45277 20.791L7.40584 20.9307C7.40584 20.9307 7.40584 20.9307 7.40584 20.9772V21.0238V21.0703C7.40584 21.0703 7.40584 21.0703 7.40584 21.1169L7.31197 21.2565L4.63672 20.4186L4.73059 20.2324Z" fill="#FF4F00"/>
<path d="M5.52862 18.4183L7.73453 19.3028C7.73453 19.2562 7.78146 19.2562 7.78146 19.2097C7.78146 19.1631 7.8284 19.1631 7.8284 19.1166C7.92226 18.9304 7.92227 18.7442 7.9692 18.6045C8.01613 18.4649 7.9692 18.3252 7.92226 18.1856C7.87533 18.0459 7.78146 17.9528 7.64066 17.8132C7.49986 17.7201 7.35905 17.5804 7.12438 17.4873C7.12438 17.4873 7.12438 17.4873 7.07745 17.4873C7.07745 17.4873 7.07745 17.4873 7.03051 17.4873C6.84278 17.4408 6.70197 17.3942 6.56117 17.3942C6.42037 17.3942 6.3265 17.3942 6.23263 17.4873C6.13876 17.5339 6.04489 17.627 5.95102 17.6735C5.85716 17.7666 5.81022 17.8132 5.76329 17.9063C5.76329 17.9063 5.76329 17.9063 5.76329 17.9528C5.76329 17.9528 5.76329 17.9528 5.76329 17.9994V18.0459C5.76329 18.0459 5.76329 18.0459 5.76329 18.0925C5.76329 18.0925 5.76329 18.0925 5.76329 18.139C5.76329 18.1856 5.76329 18.1856 5.71635 18.2321C5.71635 18.2787 5.71635 18.2787 5.71635 18.3252V18.3718V18.4183C5.57555 18.3718 5.57555 18.3718 5.52862 18.4183C5.57555 18.4183 5.57555 18.4183 5.52862 18.4183ZM5.71635 17.5339C5.81022 17.3477 5.90409 17.1615 6.04489 17.0684C6.1857 16.9287 6.27957 16.8822 6.4673 16.8356C6.6081 16.7891 6.79584 16.7891 6.93664 16.7891C7.07745 16.7891 7.26518 16.8356 7.40599 16.9287C7.45292 16.9287 7.49986 16.9753 7.54679 16.9753C7.59372 16.9753 7.64066 17.0218 7.68759 17.0218C7.73453 17.0684 7.78146 17.0684 7.8284 17.1149C7.87533 17.1615 7.92227 17.1615 7.9692 17.208C8.06307 17.3011 8.11 17.3477 8.20387 17.4873C8.2508 17.5804 8.34467 17.6735 8.39161 17.8132C8.43854 17.9528 8.48548 18.0459 8.43854 18.1856C8.43854 18.3252 8.39161 18.4649 8.34467 18.6511L8.29774 18.7907L7.87533 19.8148L5.29395 18.7907L5.34088 18.6511L5.71635 17.5339Z" fill="#FF4F00"/>
<path d="M8.53217 15.0658L7.68735 14.9727L8.20363 15.6244L8.53217 15.0658ZM7.03027 14.6468L7.12414 14.5072L7.17108 14.4141L10.2218 14.7399L10.1279 14.8796C10.1279 14.8796 10.1279 14.8796 10.1279 14.9261C10.1279 14.9261 10.1279 14.9261 10.1279 14.9727C10.1279 14.9727 10.1279 14.9727 10.1279 15.0192L10.0341 15.1589L8.71991 15.0658L8.34443 15.764L9.14232 16.6485L9.04845 16.7881L8.95458 17.0209L7.03027 14.6468Z" fill="#FF4F00"/>
<path d="M8.86094 12.2722L10.7383 13.7618L10.7852 13.7152L10.8322 13.6687C10.973 13.4825 11.0669 13.3428 11.1138 13.2032C11.1607 13.0635 11.2077 12.9239 11.1607 12.7842C11.1607 12.6446 11.1138 12.5049 11.0199 12.3653C10.9261 12.2256 10.7852 12.086 10.5975 11.8998C10.4567 11.8067 10.3159 11.7136 10.1751 11.667C10.0812 11.4343 9.94043 11.4343 9.84656 11.4343C9.7527 11.4808 9.61189 11.4808 9.51802 11.5274C9.42416 11.5739 9.33029 11.6205 9.23642 11.7136C9.23642 11.7136 9.23642 11.7136 9.18948 11.7601C9.18948 11.7601 9.18948 11.7601 9.14255 11.8067C9.14255 11.8067 9.14255 11.8067 9.09562 11.8532C9.09562 11.8532 9.09562 11.8532 9.04868 11.8998L9.00175 11.9463L8.95481 11.9929C8.95481 11.9929 8.95481 12.0394 8.90788 12.0394C8.90788 12.0394 8.90788 12.086 8.86094 12.086C8.90788 12.2256 8.86094 12.2256 8.86094 12.2722C8.86094 12.2256 8.86094 12.2256 8.86094 12.2722ZM9.23642 11.4343C9.37722 11.2481 9.51802 11.155 9.65883 11.0619C9.79963 10.9688 9.94043 10.9688 10.1282 10.9688C10.269 10.9688 10.4098 11.0153 10.5975 11.0619C10.7383 11.1084 10.8791 11.2015 11.0199 11.2946C11.0669 11.3412 11.0669 11.3412 11.1138 11.3877C11.1607 11.4343 11.1607 11.4343 11.2077 11.4808C11.2546 11.5274 11.2546 11.5739 11.3015 11.5739C11.3485 11.6205 11.3485 11.667 11.3954 11.7136C11.4423 11.8067 11.4893 11.8998 11.5362 12.0394C11.5831 12.1325 11.5831 12.2722 11.6301 12.4118C11.6301 12.5515 11.6301 12.6911 11.5831 12.8308C11.5362 12.9704 11.4423 13.1101 11.3485 13.2497L11.2546 13.3894L10.5506 14.2738L8.3916 12.5515L8.48547 12.4118L9.23642 11.4343Z" fill="#FF4F00"/>
<path d="M12.7563 7.52541L12.8972 7.43231L13.038 7.33921L15.6663 7.89781L14.446 6.31511L14.5868 6.22201C14.5868 6.22201 14.5868 6.22201 14.6337 6.22201C14.6337 6.22201 14.6337 6.22201 14.6807 6.22201L14.8215 6.12891L16.558 8.40986L16.4172 8.50296L16.2295 8.45641L13.5542 7.89781L14.8215 9.52707L14.6807 9.62017L14.5399 9.71327L12.7563 7.52541Z" fill="#FF4F00"/>
<path d="M17.8722 6.03322L17.2151 5.47462L17.3089 6.35908L17.8722 6.03322ZM16.8396 4.77637L16.9804 4.68327L17.0743 4.63672L19.4679 6.68493L19.3271 6.77803C19.3271 6.77803 19.3271 6.77803 19.2802 6.77803C19.2802 6.77803 19.2802 6.77803 19.2332 6.77803C19.2332 6.77803 19.2332 6.77803 19.1863 6.77803L19.0455 6.87113L18.1538 6.03322L17.4028 6.40563L17.5436 7.61593L17.4028 7.70903L17.262 7.80213L16.8396 4.77637Z" fill="#FF4F00"/>
<path d="M19.374 4.68199C19.374 4.49579 19.4679 4.30958 19.5148 4.16993C19.6087 3.98373 19.7026 3.84408 19.8903 3.75098C20.078 3.61133 20.2658 3.51823 20.4535 3.42513L20.5943 3.37858H20.6412H20.6882H20.7351H20.7821C20.829 3.37858 20.829 3.37858 20.8759 3.37858C20.9229 3.37858 20.9229 3.37858 20.9698 3.37858C21.0167 3.37858 21.0637 3.37858 21.1575 3.33203C21.2045 3.33203 21.2514 3.33203 21.3453 3.33203C21.3922 3.33203 21.4391 3.33203 21.4861 3.33203C21.533 3.33203 21.5799 3.33203 21.6269 3.37858V3.70443L21.4861 3.75098H21.4391C21.3922 3.70443 21.3453 3.70443 21.2514 3.65788C21.2045 3.65788 21.1575 3.61133 21.0637 3.61133C21.0167 3.61133 20.9698 3.61133 20.8759 3.61133C20.829 3.61133 20.7821 3.61133 20.6882 3.61133H20.6412H20.5943C20.5004 3.65788 20.3596 3.70443 20.2658 3.79753C20.1719 3.89063 20.078 3.98373 20.0311 4.07683C19.9372 4.21648 19.9372 4.35614 19.8903 4.49579C19.8903 4.63544 19.8903 4.82164 19.9372 5.00784V5.05439V5.10094C19.9842 5.33369 20.078 5.51989 20.1719 5.65954C20.2658 5.79919 20.4066 5.89229 20.5004 5.98539C20.6413 6.03194 20.7351 6.07849 20.8759 6.07849C21.0167 6.07849 21.1106 6.07849 21.2514 6.07849C21.2983 6.03194 21.3922 6.03194 21.4391 5.98539C21.4861 5.93884 21.5799 5.89229 21.6269 5.89229C21.6738 5.84574 21.7207 5.79919 21.7677 5.75264C21.8146 5.70609 21.8615 5.65954 21.9085 5.61299L22.0493 5.56644L22.0962 5.79919L22.0493 5.84574L22.0023 5.89229L21.9554 5.93884L21.9085 5.98539C21.8615 5.98539 21.8615 6.03194 21.8146 6.03194C21.7677 6.03194 21.7677 6.07849 21.7207 6.07849C21.7207 6.07849 21.7207 6.07849 21.6738 6.07849C21.6269 6.07849 21.5799 6.12504 21.5799 6.12504C21.533 6.12504 21.533 6.17159 21.4861 6.17159C21.4391 6.17159 21.4391 6.21814 21.3922 6.21814C21.3453 6.21814 21.3453 6.21814 21.2983 6.26469L21.2514 6.31124C21.0637 6.35779 20.8759 6.35779 20.6882 6.35779C20.5004 6.35779 20.3127 6.26469 20.1719 6.21814C19.9842 6.12504 19.8434 5.98539 19.7495 5.84574C19.6556 5.70609 19.5618 5.51989 19.4679 5.28714C19.374 5.05439 19.374 4.86819 19.374 4.68199Z" fill="#FF4F00"/>
<path d="M22.894 3.00781C22.941 3.00781 22.941 3.00781 22.894 3.00781H22.9879H23.0348H23.1756L23.5042 5.84737H23.3634C23.3634 5.84737 23.3634 5.84737 23.3164 5.84737H23.2695H23.2226H23.1756H23.0348L22.7063 3.00781H22.894C22.8471 3.00781 22.8471 3.00781 22.894 3.00781Z" fill="#FF4F00"/>
<path d="M24.8655 4.31382C24.8655 4.54658 24.8655 4.73278 24.9124 4.87243C24.9593 5.05863 25.0063 5.19828 25.1471 5.29138C25.2409 5.38448 25.3348 5.47758 25.4756 5.57068C25.6164 5.61723 25.7103 5.66378 25.8511 5.71033C25.9919 5.71033 26.1327 5.66378 26.2266 5.61723C26.3204 5.57068 26.4612 5.47758 26.5551 5.38448C26.649 5.29138 26.7428 5.15173 26.8367 4.96553C26.8836 4.82588 26.9306 4.63968 26.9775 4.40692C26.9775 4.22072 26.9775 4.08107 26.9306 3.89487C26.8836 3.75522 26.8367 3.61557 26.6959 3.47592C26.602 3.38282 26.5082 3.28972 26.3674 3.19662C26.2266 3.10352 26.0388 3.05697 25.898 3.01042C25.7572 3.01042 25.7103 3.05697 25.5695 3.05697C25.4756 3.10352 25.3817 3.15007 25.2879 3.24317C25.194 3.33627 25.1471 3.42937 25.0532 3.52247C25.0063 3.61557 24.9593 3.75522 24.9124 3.84832C24.9124 3.89487 24.9124 3.89487 24.8655 3.94142C24.8655 3.98797 24.8655 3.98797 24.8185 4.03452C24.8185 4.08107 24.8185 4.08107 24.8185 4.12762C24.8655 4.22072 24.8655 4.26727 24.8655 4.31382ZM24.3022 4.22072C24.3022 4.17417 24.3022 4.17417 24.3022 4.12762V4.08107C24.3492 3.89487 24.3961 3.75522 24.443 3.61557C24.5369 3.47592 24.6308 3.33627 24.7716 3.19662C24.9124 3.05697 25.0532 2.96387 25.2409 2.91732C25.4287 2.87077 25.6633 2.82422 25.898 2.82422H26.0388C26.2735 2.82422 26.5082 2.87077 26.649 2.96387C26.8836 3.05697 27.0244 3.15007 27.1183 3.24317C27.2122 3.33627 27.306 3.47592 27.353 3.61557C27.3999 3.75522 27.4468 3.89487 27.4938 3.98797V4.03452V4.08107V4.12762V4.17417C27.4938 4.22072 27.4938 4.22072 27.4938 4.26727C27.4938 4.31382 27.4938 4.31382 27.4938 4.36037C27.4938 4.59313 27.4468 4.77933 27.353 4.96553C27.2591 5.15173 27.1652 5.29138 26.9775 5.43103C26.8367 5.57068 26.649 5.66378 26.4612 5.71033C26.2735 5.75688 26.0857 5.80343 25.898 5.75688H25.7572C25.7103 5.75688 25.7103 5.75688 25.6633 5.75688C25.6164 5.75688 25.6164 5.75688 25.5695 5.75688C25.5225 5.75688 25.5225 5.75688 25.4756 5.75688C25.4287 5.75688 25.4287 5.75688 25.3817 5.71033C25.2409 5.66378 25.1471 5.61723 25.0063 5.52413C24.8655 5.43103 24.7716 5.33793 24.6777 5.24483C24.5839 5.10518 24.49 4.96553 24.443 4.82588C24.3022 4.68623 24.3022 4.50003 24.3022 4.22072C24.3022 4.26727 24.3022 4.22072 24.3022 4.22072Z" fill="#FF4F00"/>
<path d="M28.8546 3.24219L28.9955 3.28874L29.1832 3.33529L30.2627 5.7559L30.8728 3.84734L31.0136 3.89389C31.0136 3.89389 31.0136 3.89389 31.0606 3.89389L31.2952 3.98699L30.4504 6.73345L30.3096 6.6869L30.1688 6.64035L29.0424 4.17319L28.4322 6.1283L28.2914 6.08175L28.1506 6.0352L28.8546 3.24219Z" fill="#FF4F00"/>
<path d="M33.079 6.59084L33.1729 5.70639L32.4689 6.26499L33.079 6.59084ZM33.5014 5.05469L33.6422 5.14779L33.7361 5.19434L33.3606 8.3132L33.2198 8.17355C33.2198 8.17355 33.2198 8.17355 33.1729 8.17355C33.1729 8.17355 33.1729 8.17355 33.126 8.17355C33.126 8.17355 33.126 8.17355 33.079 8.17355L32.9382 8.08045L33.126 6.87014L32.422 6.45119L31.4833 7.24255L31.3425 7.14945L31.2017 7.05635L33.5014 5.05469Z" fill="#FF4F00"/>
<path d="M35.6603 6.40625L35.8011 6.49935V6.5459C35.8011 6.5459 35.8011 6.5459 35.848 6.59245H35.8949C35.8949 6.59245 35.8949 6.59245 35.9419 6.59245L36.0827 6.68555L34.44 8.73376L34.4869 8.78031L34.5338 8.82686L34.5808 8.87341L34.6277 8.91996C34.6277 8.91996 34.6277 8.91996 34.6746 8.91996C34.7216 8.91996 34.6746 8.91996 34.7216 8.91996C34.7216 8.91996 34.7216 8.91996 34.7685 8.91996C34.7685 8.91996 34.7685 8.91996 34.8155 8.91996C34.8624 8.96651 34.9093 8.96651 34.9563 9.01306C35.0032 9.05961 35.0501 9.05961 35.0971 9.10616C35.144 9.15271 35.1909 9.15271 35.1909 9.19926C35.2379 9.19926 35.2379 9.24581 35.2848 9.24581L35.4256 9.33891C35.4256 9.33891 35.4256 9.33891 35.3787 9.33891L35.0032 9.57166L33.8298 8.64066L35.6603 6.40625Z" fill="#FF4F00"/>
<path d="M39.0398 9.94565L37.2093 11.4818C37.2093 11.5284 37.2563 11.5284 37.2563 11.5749C37.2563 11.6215 37.3032 11.6215 37.3032 11.668C37.444 11.8077 37.5848 11.9473 37.7256 12.0404C37.8664 12.1335 38.0072 12.1801 38.148 12.1801C38.2888 12.1801 38.4296 12.1801 38.6174 12.1335C38.8051 12.087 38.9459 11.9939 39.1336 11.8542C39.2744 11.7611 39.3683 11.6215 39.4622 11.5284C39.5091 11.4353 39.556 11.2956 39.556 11.2025C39.556 11.1094 39.556 10.9697 39.5091 10.8766C39.4622 10.7835 39.4152 10.6904 39.3683 10.5973C39.3683 10.5973 39.3683 10.5973 39.3683 10.5508C39.3683 10.5508 39.3683 10.5508 39.3683 10.5042V10.4577C39.3683 10.4577 39.3683 10.4577 39.3683 10.4111L39.3214 10.3646L39.2744 10.318C39.2744 10.318 39.2275 10.318 39.2275 10.2715C39.2275 10.2715 39.2275 10.2715 39.1806 10.2249C39.0867 9.9922 39.0867 9.9922 39.0398 9.94565ZM39.7438 10.5042C39.8846 10.6904 39.9785 10.8301 40.0254 11.0163C40.0723 11.156 40.0723 11.3422 40.0254 11.4818C39.9785 11.6215 39.9315 11.7611 39.8377 11.9008C39.7438 12.0404 39.6499 12.1335 39.5091 12.2732C39.4622 12.3197 39.4622 12.3197 39.4152 12.3663C39.3683 12.4128 39.3214 12.4128 39.2744 12.4594C39.2275 12.5059 39.1806 12.5059 39.1336 12.5525C39.0867 12.5525 39.0398 12.599 38.9928 12.599C38.899 12.6456 38.7582 12.6456 38.6643 12.6921C38.5235 12.6921 38.4296 12.6921 38.2888 12.6921C38.148 12.6921 38.0541 12.6456 37.9133 12.5525C37.7725 12.4594 37.6787 12.3663 37.5379 12.2266L37.444 12.087L36.74 11.2025L38.899 9.43359L38.9928 9.57324L39.7438 10.5042Z" fill="#FF4F00"/>
<path d="M41.0107 12.1328L41.1046 12.2725L41.8555 13.4362H41.8086C41.8086 13.4362 41.8086 13.4362 41.7617 13.4362C41.7617 13.4362 41.7617 13.4362 41.7147 13.4362H41.527C41.527 13.3897 41.4801 13.3431 41.4801 13.3431C41.4801 13.2966 41.4331 13.25 41.4331 13.25C41.4331 13.2035 41.3862 13.1569 41.3862 13.1569C41.3862 13.1104 41.3393 13.0638 41.3393 13.0638C41.3393 13.0638 41.3393 13.0638 41.3393 13.0173C41.3393 13.0173 41.3393 13.0173 41.3393 12.9707C41.3393 12.9707 41.3393 12.9707 41.3393 12.9242C41.3393 12.9242 41.3393 12.9242 41.3393 12.8776C41.3393 12.8776 41.3393 12.8776 41.3393 12.8311C41.3393 12.8311 41.3393 12.8311 41.3393 12.7845L41.2923 12.738L41.2454 12.6914L40.4475 13.2035L40.6822 13.5759L40.9169 13.8552L41.0107 13.9948C41.0107 13.9948 41.0107 13.9948 40.9638 13.9948C40.9638 13.9948 40.9638 13.9948 40.9169 13.9948C40.9169 13.9948 40.9169 13.9948 40.8699 13.9948C40.8699 13.9948 40.8699 13.9948 40.823 13.9948C40.823 13.9948 40.823 13.9948 40.823 14.0414C40.823 14.0414 40.823 14.0414 40.776 14.0879L40.6822 13.9483L40.4475 13.5293L40.119 13.3431L39.1803 13.9483V13.9948C39.1803 13.9948 39.1803 14.0414 39.2272 14.0414C39.2272 14.0414 39.2272 14.0879 39.2742 14.0879C39.2742 14.0879 39.2742 14.1345 39.3211 14.1345C39.3211 14.1345 39.3211 14.1345 39.3211 14.181C39.3211 14.181 39.3211 14.181 39.3211 14.2276C39.3211 14.2276 39.3211 14.2276 39.3211 14.2741C39.368 14.3207 39.368 14.3672 39.415 14.4138C39.4619 14.4603 39.4619 14.5069 39.5088 14.5534C39.5558 14.6 39.5558 14.6 39.6027 14.6465C39.6496 14.6465 39.6496 14.6931 39.6966 14.6931L39.7904 14.8327H39.7435H39.6966C39.6966 14.8327 39.6966 14.8327 39.6496 14.8327C39.6496 14.8327 39.6496 14.8327 39.6027 14.8327C39.6027 14.8327 39.6027 14.8327 39.5558 14.8327C39.5558 14.8327 39.5558 14.8327 39.5088 14.8327L39.415 14.6931L38.7109 13.669L41.0107 12.1328Z" fill="#FF4F00"/>
<path d="M43.0291 15.5299C43.0291 15.5765 43.076 15.5765 43.0291 15.5299C43.076 15.5765 43.076 15.5765 43.0291 15.5299C43.0291 15.5765 43.0291 15.5765 43.0291 15.5299C43.0291 15.5765 43.0291 15.6231 43.076 15.6231C43.076 15.6231 43.076 15.623 43.123 15.6696L43.2168 15.8093L40.7293 17.0661L40.6354 16.9265C40.6354 16.9265 40.6354 16.9265 40.6354 16.8799V16.8334C40.6354 16.8334 40.6354 16.7868 40.5885 16.7868C40.5885 16.7868 40.5885 16.7868 40.5885 16.7403L40.4946 16.6006L42.9821 15.3438L43.0291 15.5299Z" fill="#FF4F00"/>
<path d="M43.7331 16.8789L43.7801 17.0186L43.8739 17.2048L42.7475 19.4857L44.531 18.7409L44.5779 18.8806C44.5779 18.8806 44.5779 18.8806 44.5779 18.9271C44.5779 18.9271 44.5779 18.9271 44.5779 18.9737L44.6249 19.1133L42.0435 20.184L41.9966 20.0443V19.8581L43.1699 17.5306L41.3395 18.2754L41.2925 18.1358L41.2456 17.9961L43.7331 16.8789Z" fill="#FF4F00"/>
<path d="M44.2494 20.4648C44.4371 20.4648 44.5779 20.5114 44.6718 20.5579C44.8126 20.6045 44.9065 20.6976 45.0003 20.7441C45.0942 20.8372 45.1881 20.8838 45.235 20.9769C45.2819 21.0234 45.2819 21.07 45.3289 21.1165C45.3758 21.1631 45.3758 21.2096 45.4227 21.2562C45.4227 21.3027 45.4697 21.3493 45.4697 21.3958C45.4697 21.4424 45.5166 21.4889 45.5166 21.5355L45.5636 21.6751C45.5636 21.7682 45.6105 21.8148 45.6105 21.9079C45.6105 22.001 45.6574 22.0941 45.6574 22.1407C45.6574 22.2338 45.6574 22.3269 45.6574 22.42C45.6574 22.5131 45.6574 22.6062 45.6105 22.6993L45.235 22.6527L45.1881 22.5131V22.4665C45.1881 22.4665 45.1881 22.42 45.235 22.42C45.235 22.42 45.235 22.3734 45.2819 22.3734C45.2819 22.3734 45.2819 22.3269 45.3289 22.3269C45.3289 22.2803 45.3758 22.2337 45.3758 22.1872C45.3758 22.1406 45.3758 22.0941 45.4227 22.001C45.4227 21.9544 45.4227 21.9079 45.4227 21.8613C45.4227 21.8148 45.4227 21.7682 45.3758 21.6751V21.6286V21.582C45.3758 21.5355 45.3758 21.5355 45.3289 21.4889C45.3289 21.4424 45.2819 21.4424 45.2819 21.3958C45.235 21.3027 45.1411 21.2562 45.0942 21.1631C45.0003 21.1165 44.9065 21.0234 44.8126 20.9769C44.7187 20.9303 44.5779 20.8838 44.4371 20.8838C44.2963 20.8838 44.1555 20.8838 43.9678 20.9303C43.78 20.9769 43.5923 21.07 43.4515 21.1631C43.3107 21.2562 43.2168 21.3493 43.123 21.4889C43.0291 21.6286 42.9822 21.7217 42.9822 21.8613C42.9822 22.001 42.9822 22.1406 42.9822 22.2803C42.9822 22.3269 43.0291 22.3734 43.0291 22.42C43.0291 22.4665 43.076 22.5131 43.076 22.5596C43.123 22.6062 43.123 22.6527 43.1699 22.6993C43.2168 22.7458 43.2168 22.7458 43.2638 22.7924L44.2963 22.5131L44.3433 22.6527V22.6993V22.7458V23.0717L43.2168 23.3975C43.2168 23.3975 43.2168 23.3975 43.1699 23.351C43.1699 23.351 43.1699 23.3044 43.123 23.3044L43.076 23.2579C43.076 23.2579 43.076 23.2113 43.0291 23.2113C43.0291 23.1648 42.9822 23.1182 42.9822 23.0717C42.9822 23.0251 42.9352 22.9786 42.9352 22.932C42.9352 22.8855 42.8883 22.8389 42.8883 22.7924C42.8883 22.7458 42.8414 22.6993 42.8414 22.6527C42.8414 22.6062 42.7944 22.5596 42.7944 22.5596C42.7944 22.5131 42.7944 22.5131 42.7475 22.4665L42.7006 22.3269C42.6536 22.1407 42.6067 21.9079 42.6067 21.7217C42.6067 21.5355 42.6536 21.3493 42.7475 21.2096C42.8414 21.07 42.9352 20.9303 43.123 20.7907C43.2638 20.6976 43.4515 20.6045 43.6392 20.5579C43.8739 20.5114 44.0617 20.4648 44.2494 20.4648Z" fill="#FF4F00"/>
<path d="M45.9859 23.7734L46.0329 23.9131L46.3145 25.263H46.2675C46.2675 25.263 46.2675 25.263 46.2206 25.263H46.1737C46.1737 25.263 46.1737 25.263 46.1267 25.263L46.0798 25.1234C46.0798 25.0768 46.0798 25.0303 46.0798 25.0303C46.0798 24.9837 46.0798 24.9372 46.0798 24.8906C46.0798 24.8441 46.0798 24.7975 46.0798 24.751C46.0798 24.7044 46.0798 24.6579 46.0798 24.6113C46.0798 24.6113 46.0798 24.6113 46.0798 24.5648C46.0798 24.5648 46.0798 24.5648 46.0798 24.5182C46.0798 24.5182 46.0798 24.5182 46.0798 24.4717C46.0798 24.4717 46.0798 24.4717 46.0798 24.4251C46.0798 24.4251 46.0798 24.4251 46.0798 24.3786V24.332C46.0798 24.332 46.0798 24.332 46.0798 24.2855C46.0798 24.2855 46.0798 24.2855 46.0798 24.2389V24.1924V24.1458L45.1411 24.332L45.235 24.751L45.3288 25.0768L45.3758 25.2165H45.3288C45.3288 25.2165 45.3288 25.2165 45.2819 25.2165C45.2819 25.2165 45.2819 25.2165 45.235 25.2165C45.235 25.2165 45.235 25.2165 45.188 25.2165C45.188 25.2165 45.188 25.2165 45.1411 25.2165C45.1411 25.2165 45.1411 25.2165 45.0942 25.2165L45.0472 25.0768L45.0003 24.6113L44.9534 24.2855L43.827 24.5182V24.5648V24.6113V24.6579V24.7044V24.751C43.827 24.751 43.827 24.751 43.827 24.7975C43.827 24.7975 43.827 24.7975 43.827 24.8441C43.827 24.8441 43.827 24.8441 43.827 24.8906C43.827 24.9372 43.8739 24.9837 43.8739 25.0303C43.8739 25.0768 43.9208 25.1234 43.9208 25.1699C43.9208 25.2165 43.9678 25.263 43.9678 25.3096C43.9678 25.3561 43.9678 25.4027 44.0147 25.4027L44.0616 25.5423H44.0147H43.9678C43.9678 25.5423 43.9678 25.5423 43.9208 25.5423C43.9208 25.5423 43.9208 25.5423 43.8739 25.5423C43.8739 25.5423 43.8739 25.5423 43.827 25.5423C43.827 25.5423 43.827 25.5423 43.78 25.5423C43.78 25.5423 43.78 25.5423 43.7331 25.5423L43.6861 25.4027L43.4045 24.0062L45.9859 23.7734Z" fill="#FF4F00"/>
<path d="M46.5022 26.2812V26.4209V26.6071L44.7187 28.4691L46.643 28.2829V28.4226C46.643 28.4226 46.643 28.4226 46.643 28.4691V28.6088L43.8739 28.8881V28.7484V28.6088L45.7513 26.7468L43.78 26.933V26.7933V26.6537L46.5022 26.2812Z" fill="#FF4F00"/>
<path d="M46.7838 30.1003C46.7368 30.1003 46.7368 30.1003 46.7838 30.1003C46.7368 30.1003 46.7368 30.1003 46.7838 30.1003C46.7838 30.1468 46.7838 30.1468 46.7838 30.1003V30.1934V30.2399V30.3796L44.0146 30.4261V30.2865C44.0146 30.2865 44.0146 30.2865 44.0146 30.2399V30.1934V30.1468V30.1003V29.9606L46.7838 29.9141V30.1003C46.7838 30.0537 46.7838 30.0537 46.7838 30.1003Z" fill="#FF4F00"/>
<path d="M46.7367 31.4525V31.5921V32.9886H46.6898C46.6898 32.9886 46.6898 32.9886 46.6428 32.9886H46.5959C46.5959 32.9886 46.5959 32.9886 46.549 32.9886V32.849C46.549 32.8024 46.549 32.7559 46.549 32.7559C46.549 32.7093 46.549 32.6628 46.549 32.6162C46.549 32.5697 46.549 32.5231 46.549 32.4766C46.549 32.43 46.549 32.3835 46.549 32.3369C46.549 32.3369 46.549 32.3369 46.549 32.2904C46.549 32.2904 46.549 32.2904 46.549 32.2438C46.549 32.2438 46.549 32.2438 46.549 32.1973C46.549 32.1973 46.549 32.1973 46.549 32.1507C46.549 32.1507 46.549 32.1507 46.549 32.1042V32.0576C46.549 32.0576 46.549 32.0576 46.549 32.0111C46.549 31.9645 46.549 32.0111 46.549 31.9645V31.918V31.8714H45.5634V32.2904L45.6103 32.6628V32.8024H45.5634C45.5634 32.8024 45.5634 32.8024 45.5164 32.8024C45.5164 32.8024 45.5164 32.8024 45.4695 32.8024C45.4695 32.8024 45.4695 32.8024 45.4226 32.8024C45.4226 32.8024 45.4226 32.8024 45.3756 32.8024H45.3287V32.6628L45.3756 32.1973V31.8714H44.2492V31.918V31.9645V32.0111V32.0576V32.1042C44.2492 32.1042 44.2492 32.1042 44.2492 32.1507C44.2492 32.1507 44.2492 32.1507 44.2492 32.1973C44.2492 32.1973 44.2492 32.1973 44.2492 32.2438C44.2492 32.2904 44.2492 32.3369 44.2492 32.3835C44.2492 32.43 44.2492 32.4766 44.2492 32.5231C44.2492 32.5697 44.2492 32.6162 44.2492 32.6628C44.2492 32.7093 44.2492 32.7559 44.2492 32.7559V32.8955H44.2023H44.1553C44.1553 32.8955 44.1553 32.8955 44.1084 32.8955C44.0615 32.8955 44.1084 32.8955 44.0615 32.8955C44.0145 32.8955 44.0615 32.8955 44.0145 32.8955C43.9676 32.8955 44.0145 32.8955 43.9676 32.8955C43.9676 32.8955 43.9676 32.8955 43.9207 32.8955V32.7559V31.3594L46.7367 31.4525Z" fill="#FF4F00"/>
<path d="M45.3756 34.3831C45.3756 34.4297 45.3756 34.4297 45.3756 34.3831C45.3756 34.5228 45.3756 34.5693 45.3756 34.6625C45.3756 34.7556 45.4225 34.8021 45.4225 34.8487C45.4695 34.8952 45.4695 34.9418 45.5164 34.9883C45.5633 35.0349 45.6103 35.0814 45.6103 35.0814C45.6572 35.0814 45.6572 35.128 45.7042 35.128C45.7511 35.128 45.7511 35.128 45.798 35.1745C45.845 35.1745 45.845 35.1745 45.8919 35.1745H45.9388H45.9858H46.0327H46.0796C46.0796 35.1745 46.1266 35.1745 46.1735 35.128C46.2204 35.128 46.2674 35.0814 46.2674 35.0814C46.2674 35.0814 46.3143 35.0349 46.3612 34.9883C46.4082 34.9418 46.4082 34.8952 46.4551 34.8487C46.4551 34.8021 46.502 34.709 46.502 34.6159V34.4297L45.3756 34.3831C45.4225 34.3831 45.4225 34.3831 45.3756 34.3831ZM46.7367 33.9642V34.1038L46.6428 35.0349C46.6428 35.1745 46.5959 35.2676 46.549 35.3607C46.502 35.4538 46.4551 35.5469 46.4082 35.5935C46.3612 35.64 46.2674 35.6866 46.1735 35.7331C46.0796 35.7331 45.9858 35.7797 45.8919 35.7331C45.798 35.7331 45.7042 35.6866 45.6572 35.6866C45.5633 35.64 45.5164 35.5935 45.4695 35.5469C45.4225 35.5004 45.3756 35.4538 45.3287 35.3607C45.2817 35.3142 45.2817 35.2211 45.2348 35.1745C45.2348 35.128 45.2348 35.128 45.1879 35.0814C45.1879 35.0349 45.1879 35.0349 45.1879 34.9883C45.1879 34.9418 45.1879 34.9418 45.1879 34.8952C45.1879 34.8487 45.1879 34.8486 45.1879 34.8021L43.7329 35.7331V35.5935C43.7329 35.5935 43.7329 35.5935 43.7329 35.5469C43.7329 35.5004 43.7329 35.5469 43.7329 35.5004C43.7329 35.5004 43.7329 35.5004 43.7329 35.4538C43.7329 35.4538 43.7329 35.4538 43.7329 35.4073V35.3607V35.3142V35.1745L45.094 34.3366L43.8268 34.2435V34.1038V34.0573V34.0107V33.8711L46.7367 33.9642Z" fill="#FF4F00"/>
<path d="M46.3614 37.1286C46.3614 37.1751 46.3614 37.1751 46.3614 37.1286C46.3614 37.1751 46.3614 37.1751 46.3614 37.1286V37.2217V37.2682V37.4079L43.5923 36.9889L43.6392 36.8493C43.6392 36.8493 43.6392 36.8493 43.6392 36.8027V36.7562V36.7096V36.6631L43.6862 36.5234L46.4553 36.9424L46.3614 37.1286C46.4083 37.1286 46.4083 37.1286 46.3614 37.1286Z" fill="#FF4F00"/>
<path d="M44.437 39.4574L45.2818 39.3177L44.5778 38.8522L44.437 39.4574ZM45.9858 39.4574L45.9389 39.597V39.6901L42.9351 40.2022L42.982 40.0625C42.982 40.0625 42.982 40.0625 42.982 40.016C42.982 40.016 42.982 40.016 42.982 39.9694C42.982 39.9694 42.982 39.9694 42.982 39.9229C42.982 39.9229 42.982 39.9229 42.982 39.8763L43.0289 39.7367L44.2023 39.5505L44.39 38.8057L43.4044 38.1074L43.4513 37.9678L43.4983 37.8281L45.9858 39.4574Z" fill="#FF4F00"/>
<path d="M10.363 44.8086L10.4568 44.9482V44.9948V45.0413C10.4568 45.0413 10.4568 45.0413 10.5038 45.0879L10.5976 45.2275L8.34478 46.4378V46.4844C8.34478 46.4844 8.34478 46.5309 8.39171 46.5309C8.39171 46.5309 8.39171 46.5775 8.43865 46.5775C8.43865 46.5775 8.43865 46.624 8.48558 46.624C8.48558 46.624 8.48558 46.624 8.48558 46.6706C8.48558 46.6706 8.48558 46.6706 8.48558 46.7171C8.48558 46.7171 8.48558 46.7171 8.48558 46.7637C8.48558 46.7637 8.48558 46.7637 8.48558 46.8102C8.53252 46.8568 8.53252 46.9033 8.57945 46.9499C8.62638 46.9964 8.62638 47.043 8.67332 47.0895C8.72025 47.1361 8.72025 47.1826 8.76719 47.1826C8.76719 47.2292 8.81412 47.2292 8.81412 47.2757L8.90799 47.4154C8.90799 47.4154 8.90799 47.4154 8.86106 47.4154L8.76719 47.2757L8.11011 46.112L10.363 44.8086Z" fill="#FF4F00"/>
<path d="M11.6299 46.9518C11.6299 46.9984 11.6299 46.9984 11.6299 46.9518C11.6299 46.9984 11.6299 46.9984 11.6299 46.9518C11.6299 46.9984 11.6299 46.9984 11.6769 47.0449C11.6769 47.0449 11.6769 47.0449 11.7238 47.0915L11.8177 47.2311L9.51787 48.7673L9.42401 48.6276C9.42401 48.6276 9.42401 48.6276 9.42401 48.5811V48.5345C9.42401 48.5345 9.42401 48.5345 9.37707 48.488C9.37707 48.488 9.37707 48.488 9.37707 48.4414L9.2832 48.3018L11.536 46.7656L11.6299 46.9518C11.583 46.9053 11.583 46.9518 11.6299 46.9518Z" fill="#FF4F00"/>
<path d="M12.3338 48.0234L12.4746 48.1631L12.5685 48.2562L11.7237 50.2578L13.8357 49.6992L13.9296 49.7923L14.0235 49.8854L12.0992 51.9337L12.0053 51.8406C12.0053 51.8406 12.0053 51.8406 11.9584 51.794V51.7475C11.9584 51.7475 11.9114 51.7475 11.9114 51.7009L11.8645 51.6544L11.7706 51.5613L13.0379 50.2578L11.1605 50.7699L11.0666 50.6768L11.0197 50.6302L11.7706 48.9079L10.3157 49.932L10.2218 49.8389C10.2218 49.8389 10.2218 49.8389 10.2218 49.7923L10.1279 49.6992L12.3338 48.0234Z" fill="#FF4F00"/>
<path d="M14.7277 52.4434L14.9623 51.652L14.2114 52.071L14.7277 52.4434ZM15.3847 51.0469L15.5255 51.14L15.5725 51.1865L14.7277 54.0726L14.5868 53.9795C14.5868 53.9795 14.5869 53.9795 14.5399 53.9795L14.3991 53.8864L14.7746 52.7692L14.1644 52.3037L13.1788 52.9554L13.038 52.8623L12.8972 52.7692L15.3847 51.0469Z" fill="#FF4F00"/>
<path d="M19.6089 53.7959C19.7028 53.7959 19.7497 53.7494 19.8436 53.7494C19.9375 53.7494 19.9844 53.7494 20.0313 53.7028C20.0783 53.7028 20.1721 53.6562 20.2191 53.6562L20.3599 53.7028L20.4537 53.7494L19.6559 56.3562L19.5151 56.3096H19.4681C19.4681 56.3096 19.4681 56.3096 19.4212 56.3096H19.3743H19.3273L19.1865 56.2631L19.8905 54.0287L19.6089 54.1218L19.4681 54.0752C19.4681 54.0752 19.4681 54.0752 19.4681 54.0287C19.4681 53.7959 19.5151 53.7959 19.6089 53.7959Z" fill="#FF4F00"/>
<path d="M22.3779 54.8672C22.3779 54.9603 22.3779 55.0068 22.3779 55.0534C22.3779 55.0999 22.4249 55.1465 22.4249 55.193C22.4718 55.2396 22.4718 55.2861 22.5188 55.2861C22.5657 55.3327 22.6126 55.3327 22.6596 55.3327C22.7065 55.3327 22.7534 55.3327 22.8004 55.2861C22.8473 55.2861 22.8942 55.2396 22.8942 55.193C22.9412 55.1465 22.9412 55.0999 22.9881 55.0534C22.9881 55.0068 23.035 54.9603 23.035 54.8672C23.035 54.8206 23.035 54.7275 23.035 54.681C23.035 54.6344 22.9881 54.5413 22.9881 54.4948C22.9881 54.4482 22.9412 54.4017 22.8942 54.4017C22.8473 54.3551 22.8004 54.3551 22.7534 54.3551C22.7065 54.3551 22.6596 54.3551 22.6126 54.4017C22.5657 54.4017 22.5188 54.4482 22.5188 54.4948C22.4718 54.5413 22.4718 54.5879 22.4249 54.6344C22.4249 54.7275 22.3779 54.7741 22.3779 54.8672ZM22.0963 56.1241C22.0963 56.2172 22.0963 56.3103 22.0963 56.4034C22.0963 56.4965 22.1433 56.543 22.1433 56.5896C22.1902 56.6361 22.1902 56.6827 22.2371 56.7292C22.2841 56.7758 22.331 56.7758 22.4249 56.8223C22.4718 56.8223 22.5188 56.8223 22.5657 56.7758C22.6126 56.7758 22.6596 56.7292 22.7065 56.6827C22.7534 56.6361 22.8004 56.5896 22.8004 56.543C22.8473 56.4965 22.8473 56.4499 22.8942 56.3568C22.8942 56.3568 22.8942 56.3568 22.8942 56.3103C22.8942 56.3103 22.8942 56.3103 22.8942 56.2637C22.8942 56.2172 22.8942 56.1241 22.8942 56.0775C22.8942 56.031 22.8473 55.9379 22.8473 55.8913C22.8004 55.8448 22.8004 55.7982 22.7534 55.7516C22.7065 55.7051 22.6596 55.7051 22.6126 55.6586C22.5657 55.6586 22.5188 55.6586 22.4718 55.6586C22.4249 55.6586 22.3779 55.7051 22.331 55.7516C22.2841 55.7982 22.2371 55.8448 22.2371 55.8913C22.2371 55.9379 22.1902 55.9844 22.1433 56.031L22.0963 56.1241C22.0963 56.0775 22.0963 56.0775 22.0963 56.1241ZM22.0963 55.2861C22.0494 55.2396 22.0025 55.193 22.0025 55.1465C22.0025 55.0999 21.9555 55.0068 21.9555 54.9603C21.9555 54.9137 21.9555 54.8206 21.9555 54.7741C21.9555 54.681 22.0025 54.6344 22.0494 54.5879C22.0963 54.5413 22.1433 54.4482 22.1902 54.4017C22.2371 54.3551 22.331 54.3086 22.4249 54.3086C22.5188 54.3086 22.6126 54.3086 22.7534 54.3086H22.8942C23.035 54.3086 23.1289 54.3551 23.1758 54.4017C23.2697 54.4482 23.3166 54.4948 23.3636 54.5879C23.4105 54.681 23.4574 54.7275 23.4574 54.8206C23.4574 54.9137 23.5044 54.9603 23.4574 55.0534C23.4574 55.0999 23.4105 55.193 23.4105 55.2396C23.3636 55.2861 23.3636 55.3327 23.3166 55.3792C23.2697 55.4258 23.2228 55.4723 23.1758 55.5189C23.1289 55.5654 23.035 55.5655 22.9881 55.5655C23.082 55.612 23.1758 55.612 23.2228 55.6586C23.2697 55.7051 23.3636 55.7517 23.3636 55.8448C23.4105 55.9379 23.4105 55.9844 23.4574 56.0775C23.4574 56.1706 23.4574 56.2172 23.4574 56.3103C23.4574 56.4034 23.4105 56.4965 23.3636 56.5896C23.3166 56.6827 23.2697 56.7292 23.1758 56.8223C23.082 56.9154 22.9881 56.962 22.8942 56.962C22.8004 57.0085 22.6596 57.0085 22.5657 56.962H22.4249C22.2841 56.962 22.1433 56.9154 22.0494 56.8689C21.9555 56.8223 21.8617 56.7292 21.8147 56.6827C21.7678 56.5896 21.7209 56.4965 21.6739 56.4034C21.6739 56.3103 21.627 56.2172 21.6739 56.1241C21.6739 56.031 21.7209 55.9844 21.7678 55.8913C21.8147 55.7982 21.8617 55.7517 21.9086 55.6586C21.9555 55.5655 22.0494 55.5189 22.0963 55.5189C22.1902 55.4723 22.2371 55.4723 22.331 55.4723C22.1902 55.3327 22.1433 55.3327 22.0963 55.2861Z" fill="#FF4F00"/>
<path d="M26.3675 54.402V54.5417C26.3206 54.6348 26.2737 54.7279 26.2267 54.821C26.1798 54.9141 26.1329 55.0072 26.039 55.1468C25.9921 55.1934 25.9921 55.2399 25.9451 55.2865C25.8982 55.333 25.8982 55.3796 25.8513 55.4261C25.8043 55.4727 25.8043 55.5192 25.7574 55.5658C25.7105 55.6123 25.7105 55.6589 25.6635 55.7054C25.6166 55.7985 25.5697 55.8916 25.5227 56.0313C25.4758 56.1244 25.4289 56.2175 25.3819 56.3571C25.335 56.4037 25.335 56.4502 25.2881 56.4968C25.2411 56.5433 25.2411 56.5899 25.1942 56.6364C25.1473 56.683 25.1473 56.7295 25.1003 56.7761C25.0534 56.8226 25.0534 56.8692 25.0065 56.9157H24.8656H24.8187H24.7718C24.7718 56.9157 24.7718 56.9157 24.7248 56.9157C24.7248 56.9157 24.7248 56.9157 24.6779 56.9157C24.6779 56.9157 24.6779 56.9157 24.631 56.9157C24.631 56.9157 24.631 56.9157 24.584 56.9157H24.5371L25.8513 54.5417L24.6779 54.6348H24.5371C24.5371 54.6348 24.5371 54.6348 24.5371 54.5882C24.5371 54.5882 24.5371 54.5882 24.5371 54.5417V54.4951V54.4486V54.402V54.3555H24.6779L26.3675 54.402Z" fill="#FF4F00"/>
<path d="M28.01 56.0762C28.01 56.0762 28.01 56.1228 28.01 56.0762C28.01 56.1228 28.01 56.1228 28.01 56.0762C28.01 56.1228 28.01 56.1227 28.01 56.1693C28.01 56.1693 28.01 56.1693 28.01 56.2158V56.2624V56.309C28.01 56.3555 28.057 56.4486 28.1039 56.4952C28.1508 56.5417 28.1978 56.5882 28.2447 56.6348C28.2917 56.6813 28.3386 56.6814 28.3855 56.7279C28.4325 56.7279 28.4794 56.7745 28.5263 56.7745C28.5733 56.7745 28.6202 56.7279 28.6671 56.6813C28.7141 56.6348 28.7141 56.5883 28.761 56.5417C28.8079 56.4952 28.8079 56.4486 28.8079 56.3555C28.8079 56.3089 28.8549 56.2158 28.8549 56.1693C28.8549 56.1693 28.8549 56.1693 28.8549 56.1227C28.8549 56.1227 28.8549 56.1228 28.8549 56.0762C28.8549 56.0762 28.8549 56.0762 28.8549 56.0297C28.8549 56.0297 28.8549 56.0296 28.8549 55.9831V55.9365V55.89C28.8549 55.7969 28.8079 55.7038 28.761 55.6572C28.7141 55.5641 28.6671 55.5176 28.6202 55.471C28.5733 55.4245 28.5263 55.4245 28.4794 55.3779C28.4325 55.3779 28.3855 55.3314 28.3386 55.3314C28.2917 55.3314 28.2447 55.3779 28.1978 55.4245C28.1509 55.471 28.1039 55.5176 28.1039 55.5641C28.057 55.6107 28.057 55.7038 28.01 55.7503C27.9631 55.9365 27.9631 55.9831 28.01 56.0762ZM27.3999 55.1452C27.4468 54.959 27.4938 54.7728 27.5876 54.6331C27.6815 54.4935 27.7754 54.4004 27.8692 54.3073C27.9631 54.2142 28.1039 54.1676 28.2447 54.1676L28.3855 54.1211C28.3855 54.1211 28.3855 54.1211 28.4325 54.1211C28.4325 54.1211 28.4325 54.1211 28.4794 54.1211C28.4794 54.1211 28.4794 54.1211 28.5263 54.1211C28.5733 54.1211 28.5263 54.1211 28.5733 54.1211C28.5733 54.1211 28.5733 54.1211 28.6202 54.1211C28.6671 54.1211 28.6202 54.1211 28.6671 54.1211L28.7141 54.2607L28.5733 54.3073H28.5263H28.4794C28.3855 54.3538 28.2917 54.4004 28.2447 54.4469C28.1978 54.54 28.1039 54.5866 28.057 54.7262C28.01 54.8193 27.9631 54.959 27.9631 55.0521C27.9631 55.1917 27.9631 55.3314 27.9631 55.471C27.9631 55.471 27.9631 55.471 28.01 55.471C28.057 55.4245 28.1039 55.4245 28.1509 55.3779C28.1978 55.3314 28.2447 55.3314 28.3386 55.3314L28.4794 55.2848C28.5733 55.2848 28.6671 55.2848 28.761 55.2848C28.8549 55.2848 28.9487 55.3314 29.0426 55.3779C29.1365 55.4245 29.1834 55.5176 29.2303 55.5641C29.2773 55.6572 29.3242 55.7503 29.3242 55.89C29.3242 55.9831 29.3242 56.1227 29.3242 56.2158C29.3242 56.3089 29.2773 56.4021 29.2303 56.4952C29.1834 56.5883 29.0895 56.6814 28.9957 56.7279C28.9018 56.7745 28.8079 56.821 28.6671 56.8676L28.5263 56.9141C28.4325 56.9141 28.2917 56.9141 28.1978 56.9141C28.1039 56.8675 28.01 56.821 27.9162 56.7745C27.8223 56.6814 27.7284 56.5883 27.6815 56.4952C27.6346 56.3555 27.5876 56.2159 27.5407 56.0297V55.9831C27.3999 55.6107 27.3999 55.3779 27.3999 55.1452Z" fill="#FF4F00"/>
<path d="M35.4257 52.3529C35.5195 52.3063 35.5665 52.2598 35.6134 52.1667C35.6603 52.1201 35.6603 52.027 35.6603 51.9339C35.6603 51.8408 35.6603 51.7943 35.6603 51.7012C35.6603 51.6081 35.6134 51.5615 35.5665 51.515C35.5195 51.4684 35.4726 51.4219 35.4257 51.3753C35.3787 51.3288 35.3318 51.3288 35.2379 51.2822C35.191 51.2822 35.0971 51.2822 35.0502 51.2822C35.0033 51.2822 34.9094 51.3288 34.8625 51.3753L35.0033 51.2822L34.8625 51.3753L34.6278 51.515L35.3318 52.446L35.4257 52.3529ZM34.9094 51.0495C35.0033 50.9564 35.0971 50.9098 35.191 50.9098C35.2849 50.8633 35.3787 50.8633 35.4726 50.8633C35.5665 50.8633 35.6134 50.9098 35.7073 50.9564C35.8011 51.0029 35.8481 51.0495 35.895 51.1426C35.9889 51.2357 36.0358 51.3288 36.0358 51.4219C36.0828 51.515 36.0828 51.6081 36.0358 51.7012C36.0358 51.7943 35.9889 51.8874 35.9419 51.9339C35.895 52.027 35.8481 52.0736 35.8011 52.1667C35.8011 52.2132 35.7542 52.2132 35.7542 52.2598L35.7073 52.3063L35.6603 52.3529L35.6134 52.3994L35.4726 52.4925L35.4257 52.5391C35.4257 52.5391 35.3787 52.5391 35.3787 52.5856L36.1297 53.5632L35.9889 53.6563C35.9889 53.6563 35.9419 53.6563 35.9419 53.7028C35.9419 53.7028 35.9419 53.7028 35.895 53.7028C35.895 53.7028 35.895 53.7028 35.8481 53.7494C35.8481 53.7494 35.8011 53.7494 35.8011 53.7959L35.6603 53.889L33.9707 51.7012L34.1115 51.6081L34.9094 51.0495Z" fill="#FF4F00"/>
<path d="M35.9888 50.2113L36.0826 50.1182L37.0683 49.1406C37.0683 49.1406 37.0683 49.1406 37.0683 49.1872C37.0683 49.1872 37.0683 49.1872 37.0683 49.2337C37.0683 49.2337 37.0683 49.2337 37.1152 49.2803C37.1152 49.2803 37.1152 49.2803 37.1621 49.2803L37.0683 49.3734C37.0213 49.3734 37.0213 49.4199 36.9744 49.4199C36.9275 49.4199 36.9275 49.4665 36.8805 49.513C36.8336 49.5596 36.8336 49.5596 36.7867 49.6061C36.7397 49.6527 36.7397 49.6527 36.6928 49.6992C36.6928 49.6992 36.6928 49.6992 36.6459 49.7458C36.6459 49.7458 36.6459 49.7458 36.6459 49.7923C36.6459 49.8389 36.6459 49.7923 36.6459 49.7923L36.5989 49.8389L36.552 49.8854L37.256 50.5837L37.5376 50.3044L37.7723 50.0251L37.8661 49.932C37.8661 49.932 37.8661 49.932 37.8661 49.9785C37.8661 49.9785 37.8661 49.9785 37.8661 50.0251C37.8661 50.0251 37.8661 50.0251 37.8661 50.0716C37.8661 50.0716 37.8661 50.0716 37.9131 50.0716C37.9131 50.0716 37.9131 50.0716 37.96 50.0716L37.8661 50.1647L37.5376 50.444L37.3029 50.6768L38.1008 51.4681C38.1008 51.4681 38.1477 51.4681 38.1477 51.4216L38.1947 51.375L38.2416 51.3285L38.2885 51.2819C38.2885 51.2819 38.2885 51.2819 38.3355 51.2819C38.3355 51.2819 38.3355 51.2819 38.3355 51.2354C38.3824 51.1888 38.3824 51.1423 38.4294 51.1423C38.4763 51.0957 38.4763 51.0492 38.5232 51.0492C38.5702 51.0026 38.5702 51.0026 38.6171 50.9561C38.664 50.9095 38.664 50.9095 38.664 50.863L38.7579 50.7699C38.7579 50.7699 38.7579 50.7699 38.7579 50.8164C38.7579 50.8164 38.7579 50.8164 38.7579 50.863C38.7579 50.863 38.7579 50.863 38.7579 50.9095C38.7579 50.9095 38.7579 50.9095 38.8048 50.9095C38.8048 50.9095 38.8048 50.9095 38.8518 50.9095L38.7579 51.0026L37.7723 51.9802L35.9888 50.2113Z" fill="#FF4F00"/>
<path d="M38.8518 49.0007C38.8987 49.0007 38.8987 48.9541 38.8518 49.0007C38.9456 48.9076 38.9926 48.8145 38.9926 48.7679C39.0395 48.7214 39.0395 48.6283 39.0395 48.5817C39.0395 48.5352 39.0395 48.4421 39.0395 48.3955C39.0395 48.349 39.0395 48.3024 38.9926 48.2559C38.9926 48.2093 38.9456 48.2093 38.9456 48.1628C38.9456 48.1162 38.8987 48.1162 38.8987 48.1162L38.8518 48.0697L38.8048 48.0231C38.8048 48.0231 38.8048 48.0231 38.7579 47.9766C38.711 47.93 38.711 47.9766 38.711 47.93C38.711 47.93 38.664 47.93 38.664 47.8835C38.664 47.8835 38.6171 47.8835 38.5702 47.8835C38.5232 47.8835 38.4763 47.8835 38.4294 47.8835C38.3824 47.8835 38.3355 47.8835 38.2885 47.93C38.2416 47.93 38.1947 47.9766 38.1477 48.0231C38.1008 48.0697 38.0539 48.1162 38.0069 48.1628L37.9131 48.3024L38.8518 49.0007ZM37.5376 48.5817L37.6315 48.4421L38.1947 47.7438C38.2885 47.6507 38.3824 47.5576 38.4294 47.5111C38.5232 47.4645 38.6171 47.418 38.664 47.418C38.7579 47.418 38.8518 47.418 38.8987 47.4645C38.9926 47.5111 39.0395 47.5111 39.1334 47.6042C39.2272 47.6507 39.2742 47.6973 39.3211 47.7904C39.368 47.8369 39.368 47.93 39.415 47.9766C39.415 48.0697 39.415 48.1162 39.415 48.1628C39.415 48.2093 39.415 48.3024 39.368 48.349C39.368 48.3955 39.368 48.3955 39.3211 48.4421C39.3211 48.4886 39.3211 48.4886 39.2742 48.5352C39.2742 48.5817 39.2742 48.5817 39.2272 48.6283L39.1803 48.6748L40.8699 48.7214L40.7761 48.861C40.7761 48.861 40.7761 48.9076 40.7291 48.9076C40.7291 48.9076 40.7291 48.9541 40.6822 48.9541L40.5883 49.0938L38.9926 49.0472L40.0251 49.8386L39.9312 49.9782V50.0248C39.9312 50.0248 39.9312 50.0713 39.8843 50.0713L39.7904 50.211L37.5376 48.5817Z" fill="#FF4F00"/>
<path d="M39.1333 46.5326L39.2272 46.3929C39.2272 46.3929 39.2741 46.3929 39.2741 46.3464C39.2741 46.3464 39.2741 46.3464 39.321 46.2998C39.321 46.2998 39.321 46.2998 39.321 46.2533C39.321 46.2533 39.321 46.2533 39.321 46.2067L39.4149 46.0671L40.8229 46.905C40.9637 46.9981 41.1045 47.0446 41.2453 47.0912C41.3861 47.1377 41.48 47.1377 41.6208 47.0912C41.7147 47.0912 41.8086 47.0446 41.8555 46.9981C41.9494 46.9515 41.9963 46.8584 42.0432 46.8119C42.0902 46.7188 42.1371 46.5791 42.1371 46.486C42.1371 46.3929 42.1371 46.2998 42.0902 46.2067C42.0432 46.1136 41.9963 46.0205 41.9024 45.9274C41.8086 45.8343 41.7147 45.7412 41.5739 45.6481L40.1189 44.7637L40.2128 44.624L40.3067 44.4844L41.6677 45.3223C41.8086 45.4154 41.9494 45.5085 42.0432 45.6481C42.1371 45.7412 42.231 45.8809 42.2779 46.0205C42.3248 46.1602 42.3718 46.2998 42.3248 46.4395C42.2779 46.5791 42.231 46.7653 42.1371 46.905L42.0432 47.0446C41.9494 47.2308 41.8085 47.3705 41.7147 47.4636C41.5739 47.5567 41.48 47.6032 41.3392 47.6032C41.1984 47.6032 41.0576 47.6032 40.9168 47.5567C40.776 47.5101 40.6352 47.4636 40.5413 47.3705L39.1333 46.5326Z" fill="#FF4F00"/>
<path d="M9.37719 24.7481C9.33026 24.7015 9.28332 24.655 9.23639 24.6084C9.18945 24.5619 9.18945 24.5153 9.18945 24.4688C9.18945 24.4222 9.18945 24.3757 9.18945 24.3291V24.236C9.18945 24.1895 9.18945 24.1429 9.23639 24.1429C9.23639 24.0964 9.28332 24.0964 9.28332 24.0498C9.28332 24.0033 9.33026 24.0033 9.33026 23.9567C9.33026 23.9567 9.37719 23.9102 9.42412 23.9102C9.42412 23.9102 9.42412 23.9102 9.47106 23.9567C9.47106 23.9567 9.47106 23.9567 9.51799 24.0033H9.56493C9.56493 24.0033 9.61186 24.0033 9.61186 24.0498V24.1429V24.1895C9.61186 24.1895 9.61186 24.1895 9.56493 24.1895C9.56493 24.1895 9.56493 24.1895 9.51799 24.1895C9.51799 24.1895 9.47106 24.1895 9.47106 24.236L9.42412 24.2826L9.37719 24.3291C9.37719 24.3291 9.37719 24.3757 9.33026 24.3757C9.33026 24.4222 9.33026 24.4222 9.33026 24.4688C9.33026 24.5153 9.37719 24.5153 9.37719 24.5619C9.42413 24.6084 9.42412 24.6084 9.47106 24.655C9.51799 24.655 9.56493 24.7015 9.61186 24.7015C9.6588 24.7015 9.6588 24.7015 9.70573 24.7015C9.75266 24.7015 9.75266 24.7015 9.7996 24.655C9.84653 24.655 9.84653 24.6084 9.89347 24.6084C9.9404 24.6084 9.9404 24.5619 9.98734 24.5153L10.1751 24.2826C10.222 24.236 10.2689 24.1895 10.2689 24.1895C10.3159 24.1429 10.3628 24.1429 10.4097 24.1429C10.4567 24.1429 10.5036 24.1429 10.5505 24.1429C10.5975 24.1429 10.6444 24.1429 10.6913 24.1429C10.7852 24.1429 10.8322 24.1895 10.8791 24.236C10.926 24.2826 10.973 24.3291 11.0668 24.3757C11.1138 24.4222 11.1607 24.5153 11.1607 24.5619C11.1607 24.6084 11.1607 24.7015 11.1607 24.7946V24.8877C11.1607 24.9343 11.1138 24.9343 11.1138 24.9808C11.1138 25.0274 11.0668 25.0274 11.0668 25.0739C11.0668 25.1205 11.0199 25.1205 11.0199 25.1205L10.973 25.167C10.973 25.167 10.926 25.167 10.926 25.1205H10.8791V25.0739V24.9808C10.973 24.9343 11.0199 24.9343 11.0668 24.8877C11.1138 24.8412 11.1607 24.8412 11.1607 24.7946C11.1607 24.7946 11.1607 24.7481 11.2076 24.7481V24.7015C11.2076 24.655 11.2076 24.6084 11.2076 24.6084C11.2076 24.5619 11.1607 24.5619 11.1607 24.5153C11.1138 24.4688 11.0668 24.4688 11.0668 24.4222C11.0199 24.4222 10.973 24.3757 10.926 24.3757C10.8791 24.3757 10.8322 24.3757 10.8322 24.3757C10.7852 24.3757 10.7383 24.3757 10.7383 24.3757C10.6913 24.3757 10.6913 24.4222 10.6444 24.4222C10.5975 24.4222 10.5975 24.4688 10.5505 24.5153L10.3628 24.7015C10.3159 24.7481 10.2689 24.7946 10.222 24.8412C10.1751 24.8877 10.1281 24.8877 10.0812 24.8877C10.0343 24.8877 9.98734 24.8877 9.9404 24.8877C9.89347 24.8877 9.84653 24.8877 9.7996 24.8877C9.51799 24.7946 9.47106 24.7946 9.37719 24.7481Z" fill="#FF4F00"/>
<path d="M10.0341 23.1185C9.94024 23.0254 9.84637 22.9323 9.79944 22.8392C9.7525 22.7461 9.70557 22.6065 9.70557 22.5134C9.70557 22.4203 9.70557 22.2806 9.7525 22.141L9.79944 22.0479V22.0013V21.9548C9.79944 21.9082 9.84637 21.9082 9.84637 21.8617C9.84637 21.8151 9.8933 21.8151 9.8933 21.7686C9.8933 21.722 9.94024 21.722 9.94024 21.6755C9.94024 21.6755 9.98717 21.6289 10.0341 21.6289L10.2218 21.7686L10.1749 21.8617C10.128 21.8617 10.081 21.9082 10.081 21.9082C10.0341 21.9082 10.0341 21.9548 9.98717 21.9548C9.94024 21.9548 9.94024 22.0013 9.8933 22.0479C9.8933 22.0944 9.84637 22.0944 9.84637 22.141C9.84637 22.141 9.84637 22.141 9.84637 22.1875C9.84637 22.2341 9.84637 22.3272 9.84637 22.4203C9.84637 22.5134 9.8933 22.5599 9.94024 22.653C9.98717 22.7461 10.0341 22.7927 10.128 22.8858C10.2218 22.9323 10.3157 23.0254 10.4565 23.072C10.5973 23.1185 10.7381 23.1651 10.8789 23.1651C11.0197 23.1651 11.1136 23.1651 11.2075 23.1185C11.3013 23.072 11.3483 23.0254 11.3952 22.9789C11.4421 22.9323 11.4891 22.8858 11.536 22.7927C11.536 22.7461 11.536 22.6996 11.5829 22.653C11.5829 22.6065 11.5829 22.5599 11.5829 22.5134C11.5829 22.4668 11.5829 22.4203 11.5829 22.3737C11.5829 22.3272 11.536 22.2806 11.536 22.2341L11.5829 22.141L11.7237 22.2341V22.2806V22.3272V22.3737V22.4203V22.4668V22.5134C11.7237 22.5599 11.7237 22.5599 11.7237 22.5599V22.6065V22.653V22.6996L11.6768 22.7927C11.6299 22.8858 11.5829 22.9789 11.4891 23.072C11.3952 23.1651 11.3013 23.2116 11.2075 23.2582C11.1136 23.3047 10.9728 23.3047 10.832 23.3047C10.6912 23.3047 10.5504 23.2582 10.4096 23.2116C10.2218 23.2582 10.128 23.1651 10.0341 23.1185Z" fill="#FF4F00"/>
<path d="M10.4097 20.6045C10.4566 20.6045 10.4566 20.5579 10.4097 20.6045C10.4566 20.5579 10.4566 20.5579 10.4097 20.6045C10.4566 20.5579 10.4566 20.5579 10.4097 20.6045C10.4566 20.5579 10.4566 20.5579 10.4097 20.6045C10.4566 20.5579 10.4566 20.5579 10.4097 20.6045L10.5035 20.4648L12.287 21.2562L12.2401 21.3493C12.2401 21.3493 12.2401 21.3493 12.2401 21.3959L12.1932 21.489L10.4097 20.6976V20.6045Z" fill="#FF4F00"/>
<path d="M10.926 19.5801L10.973 19.487L11.3484 18.7422L11.3015 18.8353L11.2546 18.8818L11.2076 18.9284L11.1607 18.9749L11.1138 19.0215V19.068C11.1138 19.068 11.1138 19.068 11.1138 19.1146L11.7239 19.4404L11.8647 19.2077L11.9586 19.0215L12.0055 18.9284C12.0055 18.9284 12.0055 18.9284 12.0524 18.9284C12.0524 18.9284 12.0524 18.9284 12.0994 18.9284L12.1933 19.3473L12.0055 19.5801L11.9116 19.7663L12.6157 20.1387C12.6157 20.1387 12.6157 20.1387 12.6157 20.0921C12.6157 20.0921 12.6157 20.0921 12.6157 20.0456C12.6157 20.0456 12.6157 20.0456 12.6157 19.999C12.6157 19.999 12.6157 19.999 12.6157 19.9525C12.6157 19.9059 12.6626 19.9059 12.6626 19.8594C12.6626 19.8128 12.6626 19.8128 12.7095 19.7663C12.7095 19.7197 12.7095 19.7197 12.7565 19.6732V19.6266L12.8034 19.5335L12.7565 19.6266L12.381 20.3714L10.926 19.5801Z" fill="#FF4F00"/>
<path d="M11.8176 17.7181L11.8646 17.625L11.9115 17.5319L13.6011 17.3923L12.4747 16.694L12.5216 16.6009L12.5686 16.5078L14.2113 17.5319L14.1643 17.625L14.1174 17.7181L12.3808 17.8578L13.5542 18.6026L13.5073 18.6957L13.4603 18.7888L11.8176 17.7181Z" fill="#FF4F00"/>
<path d="M13.5544 15.39C13.5544 15.4365 13.5074 15.4365 13.5074 15.4831L13.4605 15.5296V15.5762V15.6227C13.4605 15.6227 13.4605 15.6227 13.4605 15.6693C13.4605 15.6693 13.4605 15.6693 13.4605 15.7158L13.4136 15.8089L14.1645 14.8314L14.2115 14.7383C14.2115 14.7383 14.2115 14.7383 14.2584 14.7383L14.2115 14.8314C14.1645 14.8779 14.1176 14.9245 14.0707 14.9245C14.0237 14.971 13.9768 15.0176 13.9768 15.0176L13.9299 15.0641L13.8829 15.1107L15.3379 16.2279L15.2909 16.321C15.2909 16.321 15.2909 16.321 15.2909 16.3675L15.244 16.4606L13.5544 15.39Z" fill="#FF4F00"/>
<path d="M14.5869 13.9482C14.6338 13.9482 14.6338 13.9482 14.5869 13.9482C14.6338 13.9482 14.6338 13.9482 14.5869 13.9482C14.6338 13.9482 14.6338 13.9482 14.5869 13.9482C14.6338 13.9482 14.6338 13.9482 14.5869 13.9482C14.6338 13.9017 14.6338 13.9017 14.5869 13.9482L14.6808 13.8086L16.1357 15.112L16.0888 15.1585L16.0419 15.2051L14.5869 13.9482Z" fill="#FF4F00"/>
<path d="M16.6521 13.39L16.1358 13.1572L16.4174 13.6693L16.6521 13.39ZM15.7134 12.8314L15.8072 12.7383L17.7785 13.5296L17.7316 13.5762L17.5438 13.7624L16.7929 13.4365L16.4643 13.7624L16.8867 14.4606L16.8398 14.5072L16.699 14.6468L15.7134 12.8314Z" fill="#FF4F00"/>
<path d="M33.0318 11.8086L33.1257 11.8551L33.7828 12.3672L33.6889 12.3206L33.642 12.2741L33.595 12.2275L33.5481 12.181L33.5012 12.1344C33.5012 12.1344 33.5012 12.1344 33.4542 12.0879C33.4542 12.0879 33.4542 12.0879 33.4073 12.0413L32.9849 12.5534L33.1726 12.693L33.3604 12.8327L33.4542 12.8792C33.4542 12.8792 33.4542 12.8792 33.4542 12.9258L33.3604 12.8792L33.1726 12.693L33.0318 12.5534L32.1401 13.3448C32.1401 13.3448 32.1401 13.3448 32.1401 13.3913C32.1401 13.3913 32.1401 13.3913 32.187 13.4378C32.187 13.4378 32.187 13.4379 32.2339 13.4844C32.2339 13.4844 32.2339 13.4844 32.2809 13.531C32.3278 13.531 32.3278 13.5775 32.3747 13.5775C32.4217 13.5775 32.4217 13.6241 32.4686 13.6241C32.5155 13.6241 32.5155 13.6706 32.5155 13.6706L32.5625 13.7172L32.6563 13.7637L32.5625 13.7172L31.8115 13.2982L33.0318 11.8086Z" fill="#FF4F00"/>
<path d="M34.8156 13.3425C34.8156 13.2959 34.8156 13.2959 34.8156 13.3425C34.7686 13.2959 34.7686 13.2959 34.7217 13.2959L34.6748 13.2493C34.6748 13.2493 34.6278 13.2493 34.6278 13.2028H34.5809C34.5809 13.2028 34.5809 13.2028 34.534 13.2028C34.534 13.2028 34.534 13.2028 34.487 13.2028L34.4401 13.1562L35.3318 14.0407L35.3788 14.0873L35.3318 14.0407C35.2849 13.9942 35.2849 13.9476 35.238 13.9011C35.191 13.8545 35.191 13.808 35.1441 13.7614L35.0972 13.7149L35.0502 13.6683L33.7361 14.9252L33.6891 14.8786L33.5483 14.5993L34.8156 13.3425Z" fill="#FF4F00"/>
<path d="M36.7398 15.2969L36.7867 15.39C36.7867 15.39 36.7867 15.39 36.7867 15.4365C36.7867 15.4365 36.7867 15.4365 36.7867 15.4831L36.8337 15.5762L35.4256 16.5537C35.4256 16.5537 35.4256 16.5537 35.4256 16.6003C35.4256 16.6003 35.4256 16.6003 35.4256 16.6468C35.4256 16.6468 35.4256 16.6468 35.4256 16.6934C35.4256 16.6934 35.4256 16.6934 35.4256 16.7399C35.4256 16.7865 35.4726 16.7865 35.4726 16.833C35.4726 16.833 35.5195 16.8796 35.5195 16.9261L35.5665 16.9727L35.6134 17.0192L35.6603 17.1123L35.6134 17.0192L35.144 16.321L36.7398 15.2969Z" fill="#FF4F00"/>
<path d="M37.3029 17.9518L37.6784 17.4863L37.1152 17.626L37.3029 17.9518ZM38.1008 17.207L38.1478 17.3001L38.1947 17.3467L36.9275 19.0225L36.8336 18.9294L36.7867 18.8363L37.3029 18.1846L37.0683 17.7656L36.2704 17.9984L36.2234 17.9053L36.1765 17.8122L38.1008 17.207Z" fill="#FF4F00"/>
<path d="M38.2888 19.4408C38.3358 19.4873 38.3358 19.5339 38.3827 19.5804C38.4296 19.627 38.4766 19.6735 38.5235 19.6735C38.5705 19.6735 38.6174 19.7201 38.6643 19.7201C38.7113 19.7201 38.7582 19.7201 38.8521 19.6735C38.899 19.6735 38.9459 19.627 38.9929 19.5804C39.0398 19.5339 39.0398 19.4873 39.0398 19.4408C39.0398 19.3942 39.0398 19.3477 39.0398 19.3011C39.0398 19.2546 39.0398 19.208 38.9929 19.1615L38.9459 19.0218L38.2888 19.4408ZM37.3971 19.9063C37.3971 19.9528 37.444 19.9994 37.491 20.0459C37.5379 20.0925 37.5379 20.0925 37.5848 20.139C37.6318 20.139 37.6787 20.1856 37.7256 20.1856C37.7726 20.1856 37.8195 20.1856 37.8664 20.1856C37.9603 20.139 38.0072 20.0925 38.0542 20.0459C38.1011 19.9994 38.148 19.9528 38.148 19.9063C38.148 19.8597 38.148 19.8132 38.148 19.7201C38.148 19.6735 38.1011 19.5804 38.1011 19.4873L37.3032 19.8132L37.3971 19.9063ZM38.899 18.7891L38.9459 18.8822L39.1806 19.3477C39.1806 19.3942 39.2275 19.4408 39.2275 19.4873C39.2275 19.5339 39.2275 19.5804 39.2275 19.627C39.2275 19.6735 39.1806 19.7201 39.1806 19.7666C39.1337 19.8132 39.0867 19.8597 39.0398 19.8597C38.9929 19.8597 38.9459 19.9063 38.899 19.9063C38.8521 19.9063 38.8051 19.9063 38.7582 19.9063C38.7113 19.9063 38.6643 19.8597 38.6174 19.8597C38.5705 19.8132 38.5235 19.8132 38.5235 19.7666C38.5235 19.8132 38.5235 19.8597 38.5235 19.9063C38.5235 19.9528 38.5235 19.9994 38.5235 20.0459C38.5235 20.0925 38.4766 20.139 38.4296 20.1856C38.3827 20.2321 38.3358 20.2787 38.2419 20.2787C38.148 20.3252 38.0542 20.3252 38.0072 20.3252C37.9134 20.3252 37.8664 20.3252 37.8195 20.2787C37.7726 20.2321 37.7256 20.2321 37.6787 20.1856C37.6318 20.139 37.5848 20.0925 37.5848 20.0459L37.5379 19.9528L37.3502 19.5339L38.899 18.7891Z" fill="#FF4F00"/>
<path d="M38.9927 21.2083C38.8519 21.2549 38.7111 21.3014 38.6172 21.348C38.5234 21.3945 38.4295 21.4876 38.3826 21.5807C38.3356 21.6738 38.2887 21.7204 38.2887 21.8135C38.2887 21.9066 38.2887 21.9531 38.2887 22.0462C38.3356 22.1393 38.3826 22.1859 38.4295 22.2324C38.4764 22.279 38.5703 22.3255 38.6642 22.3721C38.758 22.4186 38.8519 22.4186 38.9927 22.4186C39.1335 22.4186 39.2274 22.4186 39.3682 22.3721C39.462 22.3255 39.6029 22.279 39.6967 22.2324C39.7906 22.1859 39.8375 22.0928 39.9314 21.9997C39.9783 21.9066 40.0253 21.86 40.0253 21.7669C40.0253 21.6738 40.0253 21.5807 40.0253 21.5342C39.9783 21.4411 39.9783 21.3945 39.8845 21.348C39.8375 21.3014 39.7906 21.2549 39.6967 21.2549C39.6029 21.2549 39.5559 21.2083 39.462 21.2083C39.3682 21.2083 39.3212 21.2083 39.2274 21.2083C39.1804 21.2083 39.1804 21.2083 39.1335 21.2083H39.0866H38.9927ZM38.8988 20.8825C38.8988 20.8825 38.9458 20.8825 38.8988 20.8825C38.9458 20.8825 38.9458 20.8825 38.8988 20.8825C38.9458 20.8825 38.9458 20.8825 38.9927 20.8825C39.0866 20.8359 39.2274 20.8359 39.3212 20.8359C39.4151 20.8359 39.5559 20.8825 39.6498 20.929C39.7437 20.9756 39.8375 21.0221 39.9314 21.1152C40.0253 21.2083 40.0722 21.3014 40.1191 21.4411L40.1661 21.5342C40.213 21.6738 40.213 21.8135 40.213 21.9066C40.213 21.9997 40.1661 22.0928 40.1191 22.1859C40.0722 22.279 40.0253 22.3255 39.9314 22.4186C39.8845 22.4652 39.7906 22.5117 39.6967 22.5583C39.6967 22.5583 39.6967 22.5583 39.6498 22.5583C39.6498 22.5583 39.6498 22.5583 39.6028 22.5583C39.6028 22.5583 39.6029 22.5583 39.5559 22.5583C39.5559 22.5583 39.5559 22.5583 39.509 22.5583C39.509 22.5583 39.462 22.5583 39.462 22.6048H39.4151C39.2743 22.6514 39.1335 22.6979 38.9927 22.6514C38.8519 22.6514 38.758 22.6048 38.6172 22.5583C38.5234 22.5117 38.4295 22.4186 38.3356 22.3255C38.2887 22.3255 38.2418 22.2324 38.2418 22.1393L38.1948 22.0462V21.9997V21.9531V21.9066V21.86C38.1948 21.7669 38.1948 21.7204 38.2418 21.6273C38.2887 21.5342 38.2887 21.4411 38.3826 21.3945C38.4295 21.3014 38.5234 21.2549 38.6172 21.1618C38.6172 20.9756 38.758 20.929 38.8988 20.8825Z" fill="#FF4F00"/>
<path d="M39.8374 23.8167C39.8374 23.9098 39.8843 23.9564 39.8843 24.0029C39.8843 24.0495 39.9312 24.096 39.9782 24.096C40.0251 24.1426 40.0251 24.1426 40.072 24.1891C40.119 24.1891 40.119 24.2357 40.1659 24.2357H40.2128H40.2598H40.3067H40.3536C40.3536 24.2357 40.3536 24.2357 40.4006 24.2357C40.4006 24.2357 40.4006 24.2357 40.4475 24.2357H40.4944C40.4944 24.2357 40.5414 24.2357 40.5414 24.1891L40.5883 24.1426C40.5883 24.096 40.6353 24.096 40.6353 24.0495C40.6353 24.0029 40.6353 24.0029 40.6822 23.9564C40.6822 23.9098 40.6822 23.8633 40.6822 23.8167V23.7236L39.8374 23.8167ZM40.6822 23.3047V23.3978L40.823 23.9564C40.823 24.0495 40.823 24.096 40.823 24.1426C40.823 24.1891 40.7761 24.2357 40.7761 24.2822C40.7291 24.3288 40.6822 24.3753 40.6353 24.3753C40.5883 24.4219 40.5414 24.4219 40.4475 24.4219C40.4006 24.4219 40.3067 24.4219 40.2598 24.4219C40.2128 24.4219 40.1659 24.4219 40.119 24.3753C40.072 24.3753 40.0251 24.3288 40.0251 24.2822C39.9782 24.2357 39.9782 24.2357 39.9312 24.1891C39.9312 24.1891 39.9312 24.1426 39.8843 24.1426C39.8843 24.1426 39.8843 24.096 39.8374 24.096V24.0495V24.0029L39.0395 24.7943V24.7012C39.0395 24.7012 39.0395 24.7012 39.0395 24.6546C39.0395 24.6546 39.0395 24.6546 39.0395 24.6081V24.515L39.7904 23.7702L38.8987 23.9564V23.8633C38.8987 23.8633 38.8987 23.8633 38.8987 23.8167C38.8987 23.8167 38.8987 23.8167 38.8987 23.7702V23.6771L40.6822 23.3047Z" fill="#FF4F00"/>
<path d="M38.993 46.1611C38.8042 46.3483 39.1818 46.0207 38.993 46.1611V46.1611Z" fill="#FF4F00"/>
<path d="M38.0069 29.6827C38.0069 29.543 38.4293 29.4034 38.5702 29.3103C38.711 29.4965 38.8518 29.543 38.8518 29.7758C38.8518 29.8689 38.3824 30.1482 38.3824 30.1482C38.2885 30.1482 38.0069 29.7292 38.0069 29.6827ZM30.2159 35.9669L29.9342 35.5014L37.256 30.2413L37.5376 30.7068L30.2159 35.9669ZM33.4074 42.1581C33.0319 43.8805 31.1545 45.789 31.1545 45.789L28.2915 42.2978L27.7753 42.7167V41.7392L33.1258 41.6461L30.7791 38.853L27.5875 38.8996L27.3059 31.7309L22.6594 31.7774L22.7533 38.9927L19.5148 39.0392L17.262 41.9719L22.8941 41.8788L22.8472 42.8098L22.284 42.4374L19.6087 46.0218C19.6087 46.0218 19.6556 46.2545 18.2945 44.6253C16.9335 42.996 16.4172 40.3426 16.558 38.5272C16.6988 36.7117 17.8721 34.7566 17.8721 34.7566L20.1719 36.3859L20.6882 35.5945L18.3415 33.9653C18.3415 33.9653 19.9842 31.9636 22.0024 31.3119C22.8002 31.0792 25.0061 30.2878 27.7753 31.2188C30.5444 32.1498 31.6708 33.8722 31.6708 33.8722L29.6057 35.3618L30.1689 36.1531L32.281 34.617C32.281 34.617 33.3604 36.06 33.5951 37.7358C33.9706 40.2495 33.7829 40.4357 33.4074 42.1581ZM30.4036 46.3942L28.6201 44.2063L29.0425 43.8805L30.8729 46.0218L30.4036 46.3942ZM28.714 47.4183C27.963 47.6976 27.2121 47.9303 27.2121 47.9303L27.0713 43.3684H27.5875L30.1689 46.6269C30.122 46.6269 29.418 47.0924 28.714 47.4183ZM26.2264 48.1165L26.1795 45.2304H26.7427L26.8366 48.0234L26.2264 48.1165ZM25.4286 41.8788H27.3059V42.9029H25.4286V41.8788ZM25.0061 48.1631V47.6976H25.9448V48.07L25.0061 48.1631ZM24.1144 48.07L24.0675 45.3235L24.6307 45.277L24.6776 48.1631L24.1144 48.07ZM25.7102 45.2304H25.1V43.415H25.7102V45.2304ZM24.8184 38.5272H23.6451V37.3169H24.8184V38.5272ZM25.147 33.8722C25.147 33.8722 25.9448 33.9653 25.8979 34.5704C25.851 35.2221 25.147 35.2687 25.147 35.2687V33.8722ZM25.1939 35.3618V36.6186H23.5981L23.5043 32.6619H25.147L25.1939 33.7791C25.1939 33.7791 24.396 33.9187 24.4429 34.5239C24.4429 35.1756 25.1939 35.3618 25.1939 35.3618ZM18.3415 41.5064L19.8434 39.5978L25.3347 39.4582L25.2408 36.6652L26.8835 36.5721L26.7896 32.6153H25.1939V32.1964H27.0243L27.3059 39.4582L25.3816 39.5047V41.4599L18.3415 41.5064ZM21.9554 47.5114C21.2045 47.2321 20.6882 46.8597 20.6882 46.8597L23.1757 43.4615H23.692L23.7389 48.0234C23.7389 48.0234 22.7064 47.8372 21.9554 47.5114ZM20.3597 46.6735L19.8903 46.3476L21.6269 43.9736L22.1432 44.2994L20.3597 46.6735ZM12.4747 30.7068L12.8032 30.2413L20.5005 35.6876L20.125 36.1531L12.4747 30.7068ZM11.6299 30.1482C11.6299 30.1482 11.2075 29.9154 11.1136 29.8689L11.4421 29.3103L12.0054 29.6361C11.9584 29.7758 11.7707 30.1482 11.6299 30.1482ZM38.5702 30.4275C38.5702 30.2878 39.1334 29.962 39.2272 29.7758L38.6171 28.9379L37.7723 29.4034C37.1621 29.031 34.8623 26.6103 33.8298 27.0758C34.2053 27.5879 36.9275 29.4034 36.9275 30.0085C36.9275 30.5671 33.689 31.824 33.0788 32.2429L32.1402 31.405L33.1258 29.6361C32.985 29.4965 32.1402 28.7982 31.9524 28.7982C31.7177 28.7982 30.6852 30.0551 30.4975 30.2878L29.2772 29.6827L29.6526 27.5879C29.2772 27.4948 28.6201 27.2155 28.2915 27.2155C28.1038 27.2155 27.3529 28.7982 27.2121 29.0775L25.9918 28.8448C25.8979 28.4724 25.851 26.75 25.4286 26.75H24.1613L23.8328 28.8448L22.5186 29.031C22.4717 28.7982 21.7208 27.2155 21.5799 27.2155C21.2514 27.2155 20.5943 27.4948 20.2189 27.5879L20.5943 29.7292L19.374 30.2878C19.2332 30.0551 18.0599 28.7982 17.8252 28.7982C17.8252 28.7982 16.7457 29.4965 16.7457 29.6361C16.7457 29.7758 17.5905 31.1723 17.6844 31.405L16.7457 32.336C16.0886 32.0102 12.991 30.6602 12.991 30.0085C12.991 29.8223 15.6193 27.4483 16.0417 27.3552C15.7601 26.2845 12.0523 29.4965 12.0054 29.4965C11.8646 29.4965 11.583 29.1241 11.3483 29.1241C11.2075 29.1241 10.7381 29.7292 10.6912 29.8689C10.8789 30.1016 11.3483 30.3809 11.3483 30.5206C11.3483 30.7068 10.0811 32.755 10.0811 34.0118V34.6635H10.3627C10.4565 33.7325 11.7238 31.6378 12.1931 30.9861C12.6624 31.3119 14.1174 32.0102 14.0235 32.5688L15.5254 33.9187L14.9622 35.0825L12.8502 34.6635C12.7563 35.0359 12.4747 35.6411 12.4747 35.9669C12.4747 36.1531 14.1643 36.8514 14.399 36.991L14.1643 38.2013L11.9584 38.4806V39.6444C11.9584 40.0633 13.7419 40.1564 14.1643 40.203L14.3051 41.4133C14.0705 41.553 12.4278 42.2512 12.4278 42.4374C12.4278 42.7633 12.7094 43.3684 12.8032 43.7408L15.0092 43.3684C15.103 43.7408 15.4785 44.2529 15.4785 44.4856C15.4785 44.5787 14.2113 45.6959 14.0235 45.9752L14.8214 47.0924L16.6988 46.1149L17.6375 46.9528C17.5436 47.139 16.6988 48.6751 16.6988 48.7682C16.6988 48.9079 17.6844 49.513 17.8721 49.6061L19.374 48.1165L20.5474 48.7217L20.1719 50.8164L21.6269 51.2354L22.5186 49.3734L23.8328 49.5596L24.1613 51.5612H25.7102L26.0387 49.513L27.3529 49.3268L28.1977 51.1888L29.6526 50.7699L29.2772 48.6751L30.4505 48.1165L31.9524 49.6061C32.1402 49.4665 33.1258 48.8613 33.1258 48.7682C33.1258 48.4889 32.1871 47.1855 32.1871 46.9062C32.1871 46.8131 32.985 46.0683 33.0319 46.0683C33.4543 46.0683 34.5338 46.8597 35.0501 46.9993L35.848 45.8821L34.3461 44.4391L34.9562 43.3684L37.1152 43.6477L37.5376 42.3443L35.5664 41.4133L35.7541 40.203C36.1765 40.1099 37.96 40.1099 37.96 39.6444V38.4341L35.7541 38.1548L35.5664 36.8514C35.801 36.8048 37.4907 36.1066 37.4907 35.9204C37.4907 35.5945 37.2091 34.9894 37.1152 34.617L34.9093 34.9894L34.2991 33.7791C35.3317 33.1274 36.6458 31.1723 37.8661 30.9395L39.7904 34.6635L39.8843 34.617V33.9653C39.8374 32.5222 38.5702 30.7068 38.5702 30.4275Z" fill="#FF4F00"/>
<path d="M26.555 37.9688C26.4142 37.9688 26.3203 38.0619 26.3203 38.2015C26.3203 38.3412 26.4142 38.4343 26.555 38.4343C26.6958 38.4343 26.7897 38.3412 26.7897 38.2015C26.7897 38.0619 26.6958 37.9688 26.555 37.9688Z" fill="#FF4F00"/>
<path d="M26.5083 37.6882C26.6491 37.6882 26.743 37.5951 26.743 37.4554C26.743 37.3158 26.6491 37.2227 26.5083 37.2227C26.3675 37.2227 26.2736 37.3158 26.2736 37.4554C26.2267 37.5951 26.3675 37.6882 26.5083 37.6882Z" fill="#FF4F00"/>
<path d="M25.898 38.0156C25.7572 38.0156 25.6633 38.1087 25.6633 38.2484C25.6633 38.388 25.7572 38.4811 25.898 38.4811C26.0388 38.4811 26.1327 38.388 26.1327 38.2484C26.1327 38.1087 26.0388 38.0156 25.898 38.0156Z" fill="#FF4F00"/>
<path d="M25.8511 37.6882C25.9919 37.6882 26.0858 37.5951 26.0858 37.4554C26.0858 37.3158 25.9919 37.2227 25.8511 37.2227C25.7103 37.2227 25.6165 37.3158 25.6165 37.4554C25.6165 37.5951 25.7573 37.6882 25.8511 37.6882Z" fill="#FF4F00"/>
<path d="M30.0283 24.6082C30.0283 24.6082 26.9776 23.7703 24.6778 23.7238C21.1577 23.6772 19.6089 24.5151 19.6089 24.5151C19.6089 24.5151 20.0782 22.6997 20.6884 21.3963C21.3455 20.0463 21.9556 19.1619 21.9556 19.1619L22.0964 19.1153L22.3311 18.836C22.3311 18.836 21.5332 18.7429 21.0169 18.6033C20.5006 18.4636 20.266 18.3705 20.266 18.3705C20.266 18.3705 21.1108 16.974 20.7353 16.462C20.4537 16.0896 16.9806 11.1552 23.2228 8.92082C24.4431 8.50187 25.945 9.24667 25.945 9.24667C25.945 9.24667 23.0351 8.82772 22.2841 11.2949C21.6271 13.3896 22.5657 15.2051 22.5657 15.2051L23.6452 14.5068C23.6452 14.5068 23.129 12.1793 23.4575 11.388C24.537 8.68807 27.4938 9.85183 28.3387 10.5966C29.0427 11.2018 30.216 12.6914 30.216 12.6914C30.216 12.6914 29.559 12.6448 28.7611 12.6914C28.0571 12.7379 27.1653 12.9241 26.5082 13.2965C25.1002 14.1344 25.241 14.3672 25.241 14.3672C25.241 14.3672 25.2879 15.5775 25.6634 16.462C26.0389 17.3464 26.4144 17.8119 26.4144 17.8119C26.4144 17.8119 25.1941 18.6498 24.2084 18.7429C23.5514 18.836 22.6596 18.836 22.6596 18.836L22.3311 19.4412C22.3311 19.4412 24.1615 21.3497 25.6634 22.2807C27.1653 23.2117 26.8368 22.979 26.8368 22.979C26.8368 22.979 26.2736 21.5359 26.4613 20.3722C26.649 19.2084 27.0245 18.5102 27.0245 18.5102C27.0245 18.5102 29.1835 19.255 29.0896 18.1843C29.0427 17.7188 28.9019 17.905 29.0427 17.6257C29.1835 17.393 29.0896 17.2533 28.9957 17.2068L28.8549 17.1602L28.808 17.0671C28.808 17.0671 29.0896 17.1137 29.1835 17.0206C29.2773 16.9275 29.2773 16.6482 29.2304 16.462C29.1835 16.2758 29.1835 16.1827 29.4181 16.1827C29.6528 16.1827 30.3568 16.2758 30.0283 15.7171C29.6998 15.1585 29.559 15.1585 29.4181 14.8327C29.3243 14.5534 29.1835 14.693 29.1835 14.3672C29.1835 14.3672 29.2304 13.9482 29.1365 13.762C29.0427 13.5758 28.4795 12.6448 28.4795 12.6448L28.7141 12.5983C28.7141 12.5983 29.0896 13.2034 29.2773 13.5293C29.6528 14.181 29.3243 14.2741 29.4181 14.3672C29.512 14.4603 30.0283 15.2051 30.1691 15.4844C30.263 15.7637 30.5446 16.0896 30.263 16.1827C30.0283 16.2292 29.5589 16.1827 29.512 16.3223C29.4651 16.5085 29.6059 16.6482 29.559 16.8809C29.4651 17.1137 29.4181 17.1602 29.4181 17.2533C29.4181 17.3464 29.2773 17.5792 29.2773 17.8585C29.2773 18.1378 29.4181 18.6498 28.9019 18.836C28.6672 18.9291 28.104 18.836 27.7285 18.836C27.353 18.836 27.0714 18.6964 27.0714 18.8826C27.0245 19.0688 26.6021 19.9532 26.649 20.698C26.649 21.4428 27.0245 22.7928 27.1653 22.979C27.4 23.3514 30.0283 24.6082 30.0283 24.6082Z" fill="#FF4F00"/>
<path d="M27.2122 14.3193C27.2122 14.3193 27.4938 14.3659 27.7754 14.1331C28.1039 13.9004 28.4794 13.9469 28.6202 14.04C28.761 14.1331 28.9487 14.1331 29.0426 14.0866C29.0895 14.04 29.0426 13.6211 28.4794 13.6211C27.8692 13.6211 27.9162 13.8073 27.6346 13.9935C27.353 14.1797 27.2122 14.3193 27.2122 14.3193Z" fill="#FF4F00"/>
<path d="M28.714 14.1351C28.761 14.042 28.9018 14.1351 28.8548 14.2748C28.8079 14.4144 28.6671 14.461 28.6671 14.5075C28.6671 14.5541 28.8079 14.7868 28.6671 14.8334C28.5263 14.9265 28.3855 14.8334 28.3855 14.6937C28.3855 14.5541 28.1978 14.6006 28.1508 14.6937C28.1039 14.7868 28.057 14.8799 28.01 14.8799C27.9161 14.8799 27.9631 14.461 28.1039 14.4144C28.2916 14.4144 28.5732 14.3213 28.714 14.1351Z" fill="#FF4F00"/>
</svg>
