<?xml version="1.0" encoding="utf-8"?>
<!-- Generator: Adobe Illustrator 21.1.0, SVG Export Plug-In . SVG Version: 6.00 Build 0)  -->
<svg version="1.1" id="Capa_1" xmlns="http://www.w3.org/2000/svg" xmlns:xlink="http://www.w3.org/1999/xlink" x="0px" y="0px"
	 viewBox="0 0 123.3 159.8" style="enable-background:new 0 0 123.3 159.8;" xml:space="preserve">
<style type="text/css">
	.st0{fill:#53565A;}
	.st1{fill:#FFFFFF;}
	.st2{fill:#53565A;stroke:#53565A;stroke-miterlimit:10;}
</style>
<title>ico-nosotros-02</title>
<path class="st0" d="M19.6,146.1c-1.1,0-2.2,0-3.2-0.2c-7.2-1.4-12.3-7.9-11.7-14.7c0.8-7.9,6.5-13.2,14.3-13.3c2.9,0,92.1,0,95.1,0
	h9.1V0H16.7c-0.6,0-1.3,0.1-1.9,0.2C6.1,2.2,0,10,0.1,19c0.1,34.5,0,69,0,103.5c0,4-0.3,8.1,0.2,12c1.4,9.7,9.1,16.2,19,16.2h104
	v-4.6C122.6,146.1,28.3,146.1,19.6,146.1z M4.6,19.3C4.4,11.2,10.9,4.4,19,4.3c0.2,0,0.3,0,0.5,0c32.2,0.2,64.4,0.1,96.6,0.1h2.7
	v90.3c0,5.8,0,11.5,0,17.3c0,1.2-0.6,1.5-1.5,1.5h-3.2l0,0c-3.4,0-83.8-0.1-95.4,0V9.3h-4.4v104.6c-3.3,0.8-6.3,2.5-8.6,5
	c-0.2,0.2-0.5,0.4-1,0.8c0-0.8,0-1.3,0-1.9c0-16.5,0-33,0-49.5C4.6,51.9,4.7,35.6,4.6,19.3z"/>
<polygon class="st0" points="13.9,129.9 13.9,125.6 114.9,125.6 114.9,130 "/>
<path class="st0" d="M114.9,135.1v4.3H13.9v-4.3H114.9z"/>
<path class="st1" d="M66.4,57.8c-0.2,0-0.4,0-0.7-0.1c-0.7-0.2-1.2-0.9-1.3-1.6c-0.3-2.4-3.2-4.8-6.5-7.6
	c-4.4-3.7-9.8-8.3-12.3-15.4c-1.9-3.9-1-8.6,2.1-11.7c2.8-3.1,7.2-4.3,11.2-3.1c4.1,1,7.2,4.4,8,8.5l0.1,0.4c0,0.2,0.1,0.4,0.1,0.5
	l0,0c0,0,0-0.1,0.1-0.1c0.1-0.2,0.1-0.4,0.2-0.6c0-0.2,0-0.5,0.1-0.8c0.7-5.6,5.5-9.9,11.2-9.9c0.5,0,0.9,0,1.4,0.1
	c3.9,0.6,7.3,3,9.1,6.6c1.3,2.8,2.1,7.6-2,14.1C83.3,43,72.4,53,68.8,56.3l-1,0.9C67.4,57.6,66.9,57.8,66.4,57.8z"/>
<path class="st0" d="M78.6,18.2c0.4,0,0.8,0,1.2,0.1c5.1,0.6,12.6,6.8,5.7,17.6c-4.3,6.8-18.3,19.1-19,19.9
	c-0.9-6.9-14.7-11.3-18.9-23.5c-1.6-3.2-0.9-7,1.6-9.5c1.7-1.9,4.1-3,6.7-3c0.9,0,1.8,0.1,2.6,0.4c3.4,0.8,6,3.6,6.6,7
	c0.1,0.6,0.3,1.2,0.6,1.7c0.5,0.6,1.1,0.9,1.8,1.1h0.1c0.6-0.1,1.2-0.9,1.6-1.5c0.2-0.7,0.4-1.4,0.3-2.1
	C70,21.7,73.9,18.2,78.6,18.2 M78.6,14.1c-5,0-9.5,2.8-11.8,7.2c-1.8-2.5-4.4-4.3-7.3-5.1c-1.2-0.3-2.5-0.5-3.7-0.5
	c-3.6,0-7,1.5-9.5,4.2c-3.7,3.6-4.7,9.2-2.5,13.8c2.7,7.5,8.3,12.3,12.9,16.1c2.8,2.3,5.6,4.8,5.8,6.4c0.2,1.5,1.2,2.8,2.7,3.3
	c0.4,0.1,0.8,0.2,1.3,0.2c1.1,0,2.1-0.4,2.8-1.2l0.9-0.8c3.6-3.3,14.7-13.4,18.7-19.8c4.6-7.3,3.7-12.7,2.1-16
	c-2.1-4.2-6.1-7.1-10.7-7.8C79.7,14.2,79.2,14.2,78.6,14.1L78.6,14.1z"/>
<path class="st2" d="M98.7,155.8l-42.2-4.9c0-0.4,0-0.9,0.1-1.3c0.5-4,0.9-8,1.4-12c0.2-1.2-0.2-2.5-1-3.4
	c-9.4-11.9-18.8-23.9-28.2-35.8c-1.5-1.5-1.4-3.9,0.1-5.4c0.2-0.2,0.4-0.4,0.7-0.5l1.6-1.2c4.8-3.3,10.3-2.6,14,1.8l8.9,10.7
	c0.3,0.3,0.6,0.6,0.8,0.9c2.2-0.9,3.7-2.9,3.9-5.3c1.8-16.1,3.7-32.1,5.6-48.2c0.6-4.8,3.6-7.7,8.4-7.6c1.5,0,3,0.8,4.6,1.3
	c0.3-2.3,1.7-4.3,3.6-5.5c1.5-1,3.2-1.5,5-1.4c3.6,0.2,5.9,2.4,7.6,7.5c3.5-1.3,6.7-0.8,9.3,2s2.1,6.3,1.5,9.8
	c0.5-0.1,0.8-0.1,1-0.2c4.1-1.2,8.5,1.1,9.7,5.3c0.3,1.1,0.4,2.2,0.3,3.3c-0.9,8.2-1.9,16.4-2.8,24.6c-0.8,6.9-1.6,13.7-2.4,20.6
	c-1.4,10.2-4.4,20-9.1,29.1c-0.4,0.7-0.6,1.6-0.7,2.4c-0.5,4-1,8-1.4,12.1C98.9,154.8,98.8,155.2,98.7,155.8z M85.3,85.2
	c0.1-0.6,0.1-1.1,0.2-1.7c1.4-12.2,2.8-24.4,4.3-36.7c0.3-2.7-1.2-4.9-3.4-5.1c-2.5-0.3-4.7,1.5-5,4c0,0.1,0,0.1,0,0.2
	c-1.4,12.3-2.9,24.6-4.3,37c-0.1,0.4-0.1,0.9-0.2,1.4L73,83.8l0.2-1.6c1.1-9.7,2.3-19.5,3.4-29.2c0.1-0.6,0.1-1.2,0-1.8
	c-0.3-2.1-2.1-3.7-4.2-3.8c-2.1,0.2-3.8,1.9-4,4c-2,16.5-4,33.1-5.9,49.7c-0.1,0.7-0.2,1.4-0.5,2.1c-0.6,1.9-2,3-3.5,4.2
	c-3,2.3-4.9,2.1-7.3-0.8c-2.9-3.6-5.9-7.2-8.8-10.7c-2.7-3.3-7.1-3.4-10.5,0.3c0.2,0.3,0.5,0.7,0.7,1c9.1,11.5,18.2,22.9,27.2,34.4
	c1.5,1.8,2.2,4.2,1.9,6.6c-0.3,2.7-0.6,5.4-1,8c0,0.5-0.1,1-0.1,1.5l34.5,4c0.1-0.5,0.1-1,0.2-1.4c0.3-3.1,0.7-6.1,1.1-9.1
	c0.1-0.8,0.4-1.6,0.7-2.4c4.8-9.2,8-19.2,9.3-29.6c1.8-14.2,3.3-28.5,5-42.8c0.1-0.5,0.1-1.1,0.1-1.6c-0.1-2.2-1.9-4-4.1-4
	c-2.1,0.1-3.8,1.8-3.9,3.9c-0.8,7.1-1.7,14.1-2.5,21.2c-0.1,0.5-0.2,1-0.2,1.4l-3.7-0.4l0.2-1.6c1.2-10.1,2.4-20.2,3.5-30.3
	c0.1-0.9,0.2-1.8,0.1-2.6c-0.2-2.2-2.1-3.9-4.3-3.7c-0.8,0.1-1.5,0.3-2.1,0.8c-1.1,0.8-1.8,2.1-1.8,3.5L89.2,84
	c-0.1,0.5-0.2,1-0.3,1.6L85.3,85.2z"/>
<path class="st1" d="M85.3,85.2l3.7,0.4c0.1-0.6,0.2-1.1,0.3-1.6l3.6-31.2c0-1.4,0.7-2.7,1.8-3.6c1.8-1.3,4.3-1,5.6,0.8
	c0.5,0.6,0.7,1.3,0.8,2.1c0.1,0.9,0,1.8-0.1,2.7c-1.2,10.1-2.3,20.3-3.5,30.4l-0.2,1.6l3.7,0.4c0.1-0.5,0.2-1,0.2-1.4
	c0.8-7.1,1.7-14.1,2.5-21.2c0.1-2.1,1.8-3.8,3.9-3.9c2.2,0,4,1.8,4.1,4c0,0.5,0,1.1-0.1,1.6c-1.7,14.3-3.3,28.5-5,42.8
	c-1.3,10.3-4.4,20.3-9.2,29.5c-0.4,0.7-0.6,1.6-0.7,2.4c-0.4,3-0.7,6.1-1.1,9.1c-0.1,0.5-1.3,9.1-1.4,9.6l-34.5-4
	c0-0.5,1.3-9.2,1.3-9.7c0.3-2.7,0.6-5.4,1-8c0.3-2.4-0.4-4.8-1.9-6.6c-9.1-11.5-18.2-23-27.3-34.4c-0.3-0.3-0.5-0.7-0.7-1
	c3.3-3.8,7.7-3.6,10.5-0.3c3,3.6,5.9,7.2,8.8,10.7c2.4,2.9,4.3,3.1,7.3,0.8c1.5-1.2,2.9-2.3,3.5-4.2c0.2-0.7,0.4-1.4,0.5-2.1
	c1.9-16.6,3.9-33.1,5.8-49.7c0.2-2.1,1.9-3.8,4-4c2.1,0,4,1.6,4.3,3.8c0.1,0.6,0.1,1.2,0,1.8c-1.1,9.7-2.3,19.5-3.4,29.2L73,83.7
	l3.9,0.5c0-0.5,0.1-0.9,0.2-1.4c1.4-12.3,2.9-24.6,4.3-36.9c0.2-2.5,2.3-4.4,4.8-4.2c0.1,0,0.1,0,0.2,0c2.2,0.2,3.7,2.5,3.4,5.1
	c-1.4,12.2-2.8,24.4-4.3,36.6C85.4,84.1,85.4,84.6,85.3,85.2z"/>
</svg>
