<svg width="51" height="61" viewBox="0 0 51 61" fill="none" xmlns="http://www.w3.org/2000/svg">
<path d="M25.0302 2.34961H25.9689C33.5253 2.34961 39.0636 7.14428 42.3959 11.3338C45.7282 15.4768 48.5912 22.7851 48.5912 30.1401V31.4435C48.5912 44.7103 39.1105 59.0477 25.7812 59.0477H25.0302C17.4738 59.0477 11.8417 54.1134 8.46244 49.9239C5.03624 45.5947 2.36099 38.2398 2.31405 30.6987C2.26712 23.2972 5.08318 15.7095 8.41551 11.52C11.8417 7.23738 17.2861 2.34961 25.0302 2.34961Z" stroke="#FF4E0E" stroke-width="0.3979" stroke-miterlimit="10"/>
<path d="M1 29.9077C1 22.5993 4.1446 14.2203 7.61773 10.2635C10.0114 7.56358 11.4194 5.93432 14.6579 3.97921C17.1923 2.48961 20.9471 1 25.0303 1H25.9221C40.0024 1 49.9994 15.8961 49.9994 29.7215V31.4904C49.9994 45.4554 40.0024 60.2584 25.7344 60.2584H25.265C10.9031 60.2584 1 45.4089 1 31.3042V29.9077V29.9077Z" stroke="#FF4E0E" stroke-width="0.5299" stroke-miterlimit="10"/>
<path d="M7.75854 29.9535C7.75854 24.2743 10.0114 17.8039 12.5458 14.7781C14.2824 12.6833 15.315 11.4265 17.6617 9.93688C19.4921 8.77313 22.2143 7.60938 25.1712 7.60938H25.8282C36.013 7.60938 43.2409 19.1073 43.2409 29.8138V31.2103C43.2409 42.01 36.013 53.4148 25.6874 53.4148H25.312C14.9395 53.4148 7.75854 41.9634 7.75854 31.0707C7.75854 31.0707 7.75854 29.9535 7.75854 29.9535Z" stroke="#FF4E0E" stroke-width="0.2649" stroke-miterlimit="10"/>
<path d="M39.5801 49.2723C39.4385 49.4128 39.7689 49.0851 39.5801 49.2723V49.2723Z" fill="#FF4E0E"/>
<path d="M4.52018 40.9873L4.47325 40.8477V40.8011V40.7546C4.47325 40.7546 4.47325 40.7546 4.47325 40.708C4.47325 40.708 4.47325 40.708 4.47325 40.6615L4.42631 40.5218L6.02208 40.196C6.20982 40.1494 6.35062 40.1029 6.49142 40.0563C6.63223 40.0098 6.67916 39.9167 6.77303 39.8236C6.81996 39.7305 6.8669 39.6374 6.8669 39.5443C6.8669 39.4512 6.8669 39.3581 6.8669 39.265C6.81996 39.1253 6.77303 39.0322 6.72609 38.9391C6.67916 38.846 6.58529 38.7995 6.49142 38.7529C6.39755 38.7064 6.30369 38.7064 6.16288 38.6598C6.02208 38.6598 5.88128 38.6598 5.74047 38.7064L4.05084 39.0322V38.846L4.00391 38.7064L5.59967 38.3805C5.78741 38.334 5.97515 38.334 6.11595 38.334C6.25675 38.334 6.39755 38.3805 6.53836 38.4271C6.67916 38.4736 6.77303 38.5667 6.8669 38.7064C6.96076 38.846 7.0077 38.9857 7.05463 39.2184L7.10157 39.3581C7.1485 39.5443 7.1485 39.7305 7.1485 39.9167C7.10157 40.0563 7.05463 40.196 6.96076 40.2891C6.8669 40.3822 6.77303 40.4753 6.63223 40.5218C6.49142 40.5684 6.39755 40.6149 6.25675 40.6615L4.52018 40.9873Z" fill="#FF4E0E"/>
<path d="M3.76916 37.3545V37.2149V37.0287L5.50573 35.1667L3.58142 35.3529V35.2132C3.58142 35.2132 3.58142 35.2132 3.58142 35.1667C3.58142 35.1667 3.58142 35.1667 3.58142 35.1201V34.9805L6.35054 34.7012V34.8408V34.9805L4.52011 36.889L6.49134 36.6563V36.7959V36.9356L3.76916 37.3545Z" fill="#FF4E0E"/>
<path d="M3.48743 33.3984C3.48743 33.3519 3.48743 33.3519 3.48743 33.3984C3.48743 33.3519 3.48743 33.3519 3.48743 33.3984C3.48743 33.3519 3.48743 33.3519 3.48743 33.3984V33.3053V33.2588V33.1191L6.25655 33.3053V33.445C6.25655 33.445 6.25655 33.445 6.25655 33.4915V33.5381V33.5846V33.6312V33.7708L3.48743 33.5846V33.3984Z" fill="#FF4E0E"/>
<path d="M3.39361 31.9567V31.8636V31.8171V31.6774L5.59952 31.1654C5.55258 31.1654 5.55258 31.1188 5.50565 31.1188C5.45871 31.1188 5.45871 31.0723 5.41178 31.0257C5.31791 30.9792 5.27098 30.9326 5.17711 30.8861C5.08324 30.8395 4.98937 30.793 4.8955 30.7464C4.84857 30.7464 4.84857 30.6999 4.80163 30.6999C4.7547 30.6999 4.7547 30.6533 4.70777 30.6533C4.70777 30.6533 4.66083 30.6533 4.66083 30.6068C4.66083 30.6068 4.6139 30.6068 4.6139 30.5602C4.6139 30.5602 4.56696 30.5602 4.56696 30.5137C4.56696 30.5137 4.52003 30.5137 4.52003 30.4671C4.42616 30.4206 4.37923 30.374 4.28536 30.3275C4.19149 30.2809 4.14456 30.2344 4.05069 30.1878C3.95682 30.1413 3.90988 30.0947 3.81602 30.0947C3.72215 30.0482 3.67521 30.0482 3.62828 30.0016V29.862C3.62828 29.862 3.62828 29.862 3.62828 29.8154V29.6758L6.16273 31.2119L6.11579 31.3516V31.2119L6.06886 31.3516L3.15894 32.0964L3.20587 31.9567C3.34667 32.0033 3.34667 31.9567 3.39361 31.9567Z" fill="#FF4E0E"/>
<path d="M3.58142 28.8838V28.7442L3.72222 27.3477H3.76916C3.76916 27.3477 3.76916 27.3477 3.81609 27.3477H3.86303C3.86303 27.3477 3.86303 27.3477 3.90996 27.3477V27.4873C3.90996 27.5339 3.90996 27.5804 3.86303 27.5804C3.86303 27.627 3.86303 27.6735 3.81609 27.7201C3.81609 27.7666 3.81609 27.8132 3.81609 27.8597C3.81609 27.9063 3.81609 27.9528 3.81609 27.9994C3.81609 27.9994 3.81609 27.9994 3.81609 28.0459C3.81609 28.0459 3.81609 28.0459 3.81609 28.0925C3.81609 28.0925 3.81609 28.0925 3.81609 28.139C3.81609 28.139 3.81609 28.139 3.81609 28.1856C3.81609 28.1856 3.81609 28.1856 3.81609 28.2321C3.81609 28.2321 3.81609 28.2321 3.81609 28.2787C3.81609 28.2787 3.81609 28.2787 3.81609 28.3252C3.81609 28.3252 3.81609 28.3252 3.81609 28.3718V28.4183V28.4649L4.80171 28.558L4.84865 28.139V27.7666V27.627H4.89558C4.89558 27.627 4.89558 27.627 4.94251 27.627C4.94251 27.627 4.94251 27.627 4.98945 27.627C4.98945 27.627 4.98945 27.627 5.03638 27.627C5.03638 27.627 5.03638 27.627 5.08332 27.627H5.13025V27.7666L5.03638 28.2321L4.98945 28.558L6.11587 28.6976V28.6511V28.6045V28.558V28.5114V28.4649C6.11587 28.4649 6.11587 28.4649 6.11587 28.4183C6.11587 28.4183 6.11587 28.4183 6.11587 28.3718C6.11587 28.3718 6.11587 28.3718 6.11587 28.3252C6.11587 28.2787 6.11587 28.2321 6.11587 28.1856C6.11587 28.139 6.11587 28.0925 6.11587 28.0459C6.11587 27.9994 6.11587 27.9528 6.11587 27.9063C6.11587 27.8597 6.11587 27.8132 6.11587 27.8132V27.6735H6.1628C6.1628 27.6735 6.1628 27.6735 6.20974 27.6735C6.20974 27.6735 6.20974 27.6735 6.25667 27.6735C6.25667 27.6735 6.25667 27.6735 6.30361 27.6735C6.30361 27.6735 6.30361 27.6735 6.35054 27.6735C6.35054 27.6735 6.35054 27.6735 6.39748 27.6735C6.39748 27.6735 6.39748 27.6735 6.44441 27.6735V27.8132L6.30361 29.2097L3.58142 28.8838Z" fill="#FF4E0E"/>
<path d="M5.27094 26.0899C5.27094 25.9502 5.31788 25.9037 5.31788 25.8106C5.31788 25.7175 5.31788 25.6709 5.27094 25.6244C5.27094 25.5778 5.22401 25.4847 5.17707 25.4382C5.13014 25.3916 5.13014 25.3451 5.08321 25.3451C5.03627 25.3451 5.03627 25.2985 4.98934 25.2985C4.9424 25.2985 4.9424 25.252 4.89547 25.252C4.84853 25.252 4.84853 25.252 4.8016 25.252H4.75467H4.70773H4.6608H4.61386C4.61386 25.252 4.56693 25.252 4.51999 25.252C4.47306 25.252 4.42613 25.2985 4.42613 25.2985C4.37919 25.3451 4.33226 25.3451 4.33226 25.3916C4.28532 25.4382 4.28532 25.4847 4.23839 25.5313C4.19145 25.5778 4.19145 25.6709 4.19145 25.7175L4.14452 25.9037L5.27094 26.0899ZM3.86292 26.3226L3.90985 26.183L4.09759 25.252C4.14452 25.1589 4.14452 25.0658 4.19145 24.9727C4.23839 24.8796 4.28532 24.833 4.37919 24.7865C4.47306 24.7399 4.51999 24.6934 4.61386 24.6934C4.70773 24.6934 4.8016 24.6934 4.89547 24.6934C4.98934 24.6934 5.08321 24.7399 5.13014 24.7865C5.17707 24.833 5.27094 24.8796 5.31788 24.9261C5.36481 24.9727 5.41175 25.0658 5.41175 25.1123C5.45868 25.1589 5.45868 25.252 5.45868 25.2985C5.45868 25.3451 5.45868 25.3451 5.45868 25.3916C5.45868 25.4382 5.45868 25.4382 5.45868 25.4847C5.45868 25.5313 5.45868 25.5313 5.45868 25.5778C5.45868 25.6244 5.45868 25.6244 5.45868 25.6709L6.96058 24.9261L6.91364 25.0658C6.91364 25.0658 6.91364 25.0658 6.91364 25.1123C6.91364 25.1123 6.91364 25.1123 6.91364 25.1589C6.91364 25.1589 6.91364 25.1589 6.91364 25.2054V25.252V25.2985L6.86671 25.4382L5.45868 26.1364L6.72591 26.3692L6.67897 26.5088V26.5554L6.63204 26.695L3.86292 26.3226Z" fill="#FF4E0E"/>
<path d="M4.80163 23.6237C4.75469 23.5772 4.66083 23.4841 4.66083 23.391C4.61389 23.2979 4.61389 23.2048 4.61389 23.1582C4.61389 23.0651 4.61389 22.972 4.61389 22.9255L4.66083 22.7858C4.66083 22.7393 4.70776 22.6462 4.70776 22.5996C4.75469 22.5531 4.75469 22.5065 4.80163 22.46C4.84856 22.4134 4.84856 22.3669 4.8955 22.3669C4.94243 22.3203 4.98937 22.3203 4.98937 22.3203L5.0363 22.3669L5.08323 22.4134L5.13017 22.46C5.1771 22.46 5.1771 22.5065 5.22404 22.5065L5.1771 22.6462V22.6927C5.1771 22.6927 5.1771 22.6927 5.13017 22.6927C5.13017 22.6927 5.13017 22.6927 5.08323 22.6927H5.0363H4.98937C4.94243 22.6927 4.94243 22.7393 4.8955 22.7393C4.84856 22.7393 4.84856 22.7858 4.80163 22.8324L4.75469 22.8789C4.75469 22.9255 4.70776 22.9255 4.70776 22.972C4.70776 23.0186 4.70776 23.0651 4.70776 23.1117C4.70776 23.1582 4.75469 23.2048 4.75469 23.2513C4.80163 23.2979 4.84856 23.3444 4.8955 23.391C4.94243 23.4375 4.98937 23.4375 5.0363 23.4841C5.08323 23.4841 5.13017 23.4841 5.13017 23.4841C5.1771 23.4841 5.22404 23.4841 5.27097 23.4375C5.31791 23.4375 5.36484 23.391 5.41177 23.3444C5.45871 23.2979 5.50564 23.2979 5.55258 23.2048L5.83418 22.8324C5.88112 22.7858 5.92805 22.6927 6.02192 22.6927C6.06885 22.6462 6.16272 22.5996 6.20966 22.5996C6.25659 22.5996 6.35046 22.5531 6.39739 22.5531C6.44433 22.5531 6.5382 22.5531 6.58513 22.5996C6.679 22.6462 6.77287 22.6927 6.86674 22.7393C6.9606 22.8324 7.00754 22.8789 7.10141 23.0186C7.14834 23.1117 7.19528 23.2513 7.24221 23.3444C7.24221 23.4375 7.24221 23.5772 7.19528 23.7168H7.33608C7.33608 23.7634 7.28914 23.8099 7.28914 23.8565C7.24221 23.903 7.24221 23.9496 7.19528 23.9961C7.14834 24.0427 7.14834 24.0892 7.10141 24.0892C7.05447 24.1358 7.05447 24.1358 7.00754 24.1823L6.9606 24.1358L6.91367 24.0892C6.91367 24.0892 6.91367 24.0892 6.86674 24.0892C6.86674 24.0892 6.86674 24.0892 6.8198 24.0892C6.8198 24.0892 6.8198 24.0892 6.77287 24.0892C6.77287 24.0892 6.77287 24.0892 6.72593 24.0892C6.72593 24.0892 6.72593 24.0892 6.679 24.0892V24.0427L6.72593 23.903C6.86674 23.8565 6.9606 23.8099 7.00754 23.8099C7.10141 23.7634 7.14834 23.7168 7.14834 23.6703C7.14834 23.6237 7.19528 23.6237 7.19528 23.5772C7.19528 23.5306 7.24221 23.5306 7.24221 23.4841C7.24221 23.4375 7.24221 23.3444 7.24221 23.2979C7.24221 23.2513 7.19528 23.2048 7.14834 23.1582C7.10141 23.1117 7.05447 23.0651 7.00754 23.0186C6.9606 22.972 6.91367 22.972 6.8198 22.9255C6.77287 22.9255 6.72593 22.9255 6.679 22.9255C6.63206 22.9255 6.58513 22.9255 6.5382 22.972C6.49126 22.972 6.44433 23.0186 6.39739 23.0186C6.35046 23.0651 6.30353 23.1117 6.25659 23.1582L5.97499 23.4841C5.88112 23.5772 5.83418 23.6703 5.74031 23.7168C5.64645 23.7634 5.59951 23.8099 5.50564 23.8099C5.45871 23.8099 5.36484 23.8099 5.31791 23.8099C5.27097 23.8099 5.1771 23.8099 5.13017 23.7634C4.94243 23.7168 4.84856 23.6703 4.80163 23.6237Z" fill="#FF4E0E"/>
<path d="M5.224 20.877C5.27093 20.8304 5.27093 20.8304 5.224 20.877C5.27093 20.8304 5.27093 20.8304 5.224 20.877C5.27093 20.8304 5.27093 20.8304 5.224 20.877L5.27093 20.7839V20.7373L5.31786 20.5977L7.94618 21.4356L7.89925 21.5752C7.89925 21.5752 7.89925 21.5752 7.89925 21.6218V21.6683V21.7149C7.89925 21.7149 7.89925 21.7149 7.89925 21.7614L7.80538 21.9011L5.13013 21.0632L5.224 20.877Z" fill="#FF4E0E"/>
<path d="M6.02202 19.0609L8.22794 19.9454C8.22794 19.8988 8.27487 19.8988 8.27487 19.8523C8.27487 19.8057 8.3218 19.8057 8.3218 19.7592C8.41567 19.5729 8.41567 19.3867 8.46261 19.2471C8.50954 19.1074 8.46261 18.9678 8.41567 18.8281C8.36874 18.6885 8.27487 18.5954 8.13407 18.4557C7.99326 18.3626 7.85246 18.223 7.61779 18.1299C7.61779 18.1299 7.61779 18.1299 7.57086 18.1299C7.57086 18.1299 7.57086 18.1299 7.52392 18.1299C7.33618 18.0833 7.19538 18.0368 7.05458 18.0368C6.91378 18.0368 6.81991 18.0368 6.72604 18.1299C6.63217 18.1764 6.5383 18.2695 6.44443 18.3161C6.35056 18.4092 6.30363 18.4557 6.2567 18.5488C6.2567 18.5488 6.2567 18.5488 6.2567 18.5954C6.2567 18.5954 6.2567 18.5954 6.2567 18.6419V18.6885C6.2567 18.6885 6.2567 18.6885 6.2567 18.735C6.2567 18.735 6.2567 18.735 6.2567 18.7816C6.2567 18.8281 6.2567 18.8281 6.20976 18.8747C6.20976 18.9212 6.20976 18.9212 6.20976 18.9678V19.0143V19.0609C6.06896 19.0143 6.06896 19.0143 6.02202 19.0609C6.06896 19.0609 6.06896 19.0609 6.02202 19.0609ZM6.20976 18.1764C6.30363 17.9902 6.3975 17.804 6.5383 17.7109C6.6791 17.5713 6.77297 17.5247 6.96071 17.4782C7.10151 17.4316 7.28925 17.4316 7.43005 17.4316C7.57086 17.4316 7.75859 17.4782 7.8994 17.5713C7.94633 17.5713 7.99326 17.6178 8.0402 17.6178C8.08713 17.6178 8.13407 17.6644 8.181 17.6644C8.22794 17.7109 8.27487 17.7109 8.3218 17.7575C8.36874 17.804 8.41567 17.804 8.46261 17.8506C8.55648 17.9437 8.60341 17.9902 8.69728 18.1299C8.74421 18.223 8.83808 18.3161 8.88502 18.4557C8.93195 18.5954 8.97888 18.6885 8.93195 18.8281C8.93195 18.9678 8.88502 19.1074 8.83808 19.2936L8.79115 19.4333L8.36874 20.4574L5.78735 19.4333L5.83429 19.2936L6.20976 18.1764Z" fill="#FF4E0E"/>
<path d="M9.0257 15.7103L8.18088 15.6172L8.69716 16.2689L9.0257 15.7103ZM7.5238 15.2913L7.61767 15.1517L7.66461 15.0586L10.7153 15.3844L10.6215 15.5241C10.6215 15.5241 10.6215 15.5241 10.6215 15.5706C10.6215 15.5706 10.6215 15.5706 10.6215 15.6172C10.6215 15.6172 10.6215 15.6172 10.6215 15.6637L10.5276 15.8034L9.21344 15.7103L8.83796 16.4085L9.63585 17.293L9.54198 17.4327L9.44811 17.6654L7.5238 15.2913Z" fill="#FF4E0E"/>
<path d="M9.35435 12.9147L11.2317 14.4043L11.2787 14.3578L11.3256 14.3112C11.4664 14.125 11.5603 13.9854 11.6072 13.8457C11.6541 13.7061 11.7011 13.5664 11.6541 13.4268C11.6541 13.2871 11.6072 13.1475 11.5133 13.0078C11.4195 12.8682 11.2787 12.7285 11.0909 12.5423C10.9501 12.4492 10.8093 12.3561 10.6685 12.3096C10.5746 12.0768 10.4338 12.0768 10.34 12.0768C10.2461 12.1234 10.1053 12.1234 10.0114 12.1699C9.91756 12.2165 9.82369 12.263 9.72983 12.3561C9.72983 12.3561 9.72983 12.3561 9.68289 12.4027C9.68289 12.4027 9.68289 12.4027 9.63596 12.4492C9.63596 12.4492 9.63596 12.4492 9.58902 12.4958C9.58902 12.4958 9.58902 12.4958 9.54209 12.5423L9.49515 12.5889L9.44822 12.6354C9.44822 12.6354 9.44822 12.682 9.40129 12.682C9.40129 12.682 9.40129 12.7285 9.35435 12.7285C9.40129 12.8682 9.35435 12.8682 9.35435 12.9147C9.35435 12.8682 9.35435 12.8682 9.35435 12.9147ZM9.72983 12.0768C9.87063 11.8906 10.0114 11.7975 10.1522 11.7044C10.293 11.6113 10.4338 11.6113 10.6216 11.6113C10.7624 11.6113 10.9032 11.6579 11.0909 11.7044C11.2317 11.751 11.3725 11.8441 11.5133 11.9372C11.5603 11.9837 11.5603 11.9837 11.6072 12.0303C11.6541 12.0768 11.6541 12.0768 11.7011 12.1234C11.748 12.1699 11.748 12.2165 11.7949 12.2165C11.8419 12.263 11.8419 12.3096 11.8888 12.3561C11.9357 12.4492 11.9827 12.5423 12.0296 12.682C12.0765 12.7751 12.0765 12.9147 12.1235 13.0544C12.1235 13.194 12.1235 13.3337 12.0765 13.4733C12.0296 13.613 11.9357 13.7526 11.8419 13.8923L11.748 14.0319L11.044 14.9164L8.88501 13.194L8.97888 13.0544L9.72983 12.0768Z" fill="#FF4E0E"/>
<path d="M13.2499 8.16799L13.3907 8.07489L13.5315 7.98179L16.1598 8.54039L14.9395 6.95768L15.0803 6.86458C15.0803 6.86458 15.0803 6.86458 15.1272 6.86458C15.1272 6.86458 15.1272 6.86458 15.1742 6.86458L15.315 6.77148L17.0516 9.05244L16.9108 9.14554L16.723 9.09899L14.0478 8.54039L15.315 10.1696L15.1742 10.2627L15.0334 10.3558L13.2499 8.16799Z" fill="#FF4E0E"/>
<path d="M18.3656 6.67971L17.7085 6.12111L17.8024 7.00556L18.3656 6.67971ZM17.333 5.42285L17.4738 5.32975L17.5677 5.2832L19.9613 7.33141L19.8205 7.42451C19.8205 7.42451 19.8205 7.42451 19.7736 7.42451C19.7736 7.42451 19.7736 7.42451 19.7267 7.42451C19.7267 7.42451 19.7267 7.42451 19.6797 7.42451L19.5389 7.51761L18.6472 6.67971L17.8962 7.05211L18.037 8.26241L17.8962 8.35552L17.7554 8.44862L17.333 5.42285Z" fill="#FF4E0E"/>
<path d="M19.8674 5.32847C19.8674 5.14227 19.9613 4.95607 20.0082 4.81642C20.1021 4.63022 20.196 4.49057 20.3837 4.39747C20.5714 4.25782 20.7592 4.16472 20.9469 4.07162L21.0877 4.02507H21.1347H21.1816H21.2285H21.2755C21.3224 4.02507 21.3224 4.02507 21.3693 4.02507C21.4163 4.02507 21.4163 4.02507 21.4632 4.02507C21.5101 4.02507 21.5571 4.02507 21.6509 3.97852C21.6979 3.97852 21.7448 3.97852 21.8387 3.97852C21.8856 3.97852 21.9325 3.97852 21.9795 3.97852C22.0264 3.97852 22.0733 3.97852 22.1203 4.02507V4.35092L21.9795 4.39747H21.9325C21.8856 4.35092 21.8387 4.35092 21.7448 4.30437C21.6979 4.30437 21.6509 4.25782 21.5571 4.25782C21.5101 4.25782 21.4632 4.25782 21.3693 4.25782C21.3224 4.25782 21.2755 4.25782 21.1816 4.25782H21.1347H21.0877C20.9939 4.30437 20.8531 4.35092 20.7592 4.44402C20.6653 4.53712 20.5714 4.63022 20.5245 4.72332C20.4306 4.86297 20.4306 5.00262 20.3837 5.14227C20.3837 5.28192 20.3837 5.46812 20.4306 5.65432V5.70087V5.74742C20.4776 5.98017 20.5714 6.16637 20.6653 6.30603C20.7592 6.44568 20.9 6.53878 20.9939 6.63188C21.1347 6.67843 21.2285 6.72498 21.3693 6.72498C21.5101 6.72498 21.604 6.72498 21.7448 6.72498C21.7917 6.67843 21.8856 6.67843 21.9325 6.63188C21.9795 6.58533 22.0733 6.53878 22.1203 6.53878C22.1672 6.49223 22.2141 6.44568 22.2611 6.39913C22.308 6.35258 22.3549 6.30602 22.4019 6.25947L22.5427 6.21292L22.5896 6.44568L22.5427 6.49223L22.4958 6.53878L22.4488 6.58533L22.4019 6.63188C22.3549 6.63188 22.3549 6.67843 22.308 6.67843C22.2611 6.67843 22.2611 6.72498 22.2141 6.72498C22.2141 6.72498 22.2141 6.72498 22.1672 6.72498C22.1203 6.72498 22.0733 6.77153 22.0733 6.77153C22.0264 6.77153 22.0264 6.81808 21.9795 6.81808C21.9325 6.81808 21.9325 6.86463 21.8856 6.86463C21.8387 6.86463 21.8387 6.86463 21.7917 6.91118L21.7448 6.95773C21.5571 7.00428 21.3693 7.00428 21.1816 7.00428C20.9939 7.00428 20.8061 6.91118 20.6653 6.86463C20.4776 6.77153 20.3368 6.63188 20.2429 6.49223C20.149 6.35257 20.0552 6.16637 19.9613 5.93362C19.8674 5.70087 19.8674 5.51467 19.8674 5.32847Z" fill="#FF4E0E"/>
<path d="M23.3876 3.6543C23.4345 3.6543 23.4345 3.6543 23.3876 3.6543H23.4814H23.5284H23.6692L23.9977 6.49386H23.8569C23.8569 6.49386 23.8569 6.49386 23.81 6.49386H23.763H23.7161H23.6692H23.5284L23.1998 3.6543H23.3876C23.3406 3.6543 23.3406 3.6543 23.3876 3.6543Z" fill="#FF4E0E"/>
<path d="M25.359 4.9564C25.359 5.18915 25.359 5.37535 25.4059 5.515C25.4529 5.70121 25.4998 5.84086 25.6406 5.93396C25.7345 6.02706 25.8283 6.12016 25.9691 6.21326C26.1099 6.25981 26.2038 6.30636 26.3446 6.35291C26.4854 6.35291 26.6262 6.30636 26.7201 6.25981C26.814 6.21326 26.9548 6.12016 27.0486 6.02706C27.1425 5.93396 27.2364 5.79431 27.3302 5.60811C27.3772 5.46845 27.4241 5.28225 27.471 5.0495C27.471 4.8633 27.471 4.72365 27.4241 4.53745C27.3772 4.3978 27.3302 4.25815 27.1894 4.1185C27.0956 4.0254 27.0017 3.9323 26.8609 3.8392C26.7201 3.7461 26.5323 3.69955 26.3915 3.653C26.2507 3.653 26.2038 3.69955 26.063 3.69955C25.9691 3.7461 25.8753 3.79265 25.7814 3.88575C25.6875 3.97885 25.6406 4.07195 25.5467 4.16505C25.4998 4.25815 25.4529 4.3978 25.4059 4.4909C25.4059 4.53745 25.4059 4.53745 25.359 4.584C25.359 4.63055 25.359 4.63055 25.3121 4.6771C25.3121 4.72365 25.3121 4.72365 25.3121 4.7702C25.359 4.8633 25.359 4.90985 25.359 4.9564ZM24.7958 4.8633C24.7958 4.81675 24.7958 4.81675 24.7958 4.7702V4.72365C24.8427 4.53745 24.8896 4.3978 24.9366 4.25815C25.0304 4.1185 25.1243 3.97885 25.2651 3.8392C25.4059 3.69955 25.5467 3.60645 25.7345 3.5599C25.9222 3.51335 26.1569 3.4668 26.3915 3.4668H26.5323C26.767 3.4668 27.0017 3.51335 27.1425 3.60645C27.3772 3.69955 27.518 3.79265 27.6118 3.88575C27.7057 3.97885 27.7996 4.1185 27.8465 4.25815C27.8934 4.3978 27.9404 4.53745 27.9873 4.63055V4.6771V4.72365V4.7702V4.81675C27.9873 4.8633 27.9873 4.8633 27.9873 4.90985C27.9873 4.9564 27.9873 4.9564 27.9873 5.00295C27.9873 5.2357 27.9404 5.4219 27.8465 5.60811C27.7526 5.79431 27.6588 5.93396 27.471 6.07361C27.3302 6.21326 27.1425 6.30636 26.9548 6.35291C26.767 6.39946 26.5793 6.44601 26.3915 6.39946H26.2507C26.2038 6.39946 26.2038 6.39946 26.1569 6.39946C26.1099 6.39946 26.1099 6.39946 26.063 6.39946C26.0161 6.39946 26.0161 6.39946 25.9691 6.39946C25.9222 6.39946 25.9222 6.39946 25.8753 6.35291C25.7345 6.30636 25.6406 6.25981 25.4998 6.16671C25.359 6.07361 25.2651 5.98051 25.1713 5.88741C25.0774 5.74776 24.9835 5.60811 24.9366 5.46845C24.7958 5.3288 24.7958 5.1426 24.7958 4.8633C24.7958 4.90985 24.7958 4.8633 24.7958 4.8633Z" fill="#FF4E0E"/>
<path d="M29.3482 3.88672L29.489 3.93327L29.6767 3.97982L30.7562 6.40043L31.3663 4.49187L31.5072 4.53842C31.5072 4.53842 31.5072 4.53842 31.5541 4.53842L31.7888 4.63152L30.9439 7.37798L30.8031 7.33143L30.6623 7.28488L29.5359 4.81772L28.9258 6.77283L28.785 6.72628L28.6442 6.67973L29.3482 3.88672Z" fill="#FF4E0E"/>
<path d="M33.5724 7.23733L33.6663 6.35287L32.9623 6.91148L33.5724 7.23733ZM33.9948 5.70117L34.1357 5.79427L34.2295 5.84082L33.854 8.95968L33.7132 8.82003C33.7132 8.82003 33.7132 8.82003 33.6663 8.82003C33.6663 8.82003 33.6663 8.82003 33.6194 8.82003C33.6194 8.82003 33.6194 8.82003 33.5724 8.82003L33.4316 8.72693L33.6194 7.51663L32.9154 7.09768L31.9767 7.88903L31.8359 7.79593L31.6951 7.70283L33.9948 5.70117Z" fill="#FF4E0E"/>
<path d="M36.1537 7.05078L36.2945 7.14388V7.19043C36.2945 7.19043 36.2945 7.19043 36.3414 7.23698H36.3883C36.3883 7.23698 36.3884 7.23698 36.4353 7.23698L36.5761 7.33008L34.9334 9.37829L34.9803 9.42484L35.0273 9.47139L35.0742 9.51794L35.1211 9.56449C35.1211 9.56449 35.1211 9.56449 35.1681 9.56449C35.215 9.56449 35.1681 9.56449 35.215 9.56449C35.215 9.56449 35.215 9.56449 35.2619 9.56449C35.2619 9.56449 35.2619 9.56449 35.3089 9.56449C35.3558 9.61104 35.4027 9.61104 35.4497 9.65759C35.4966 9.70414 35.5435 9.70414 35.5905 9.75069C35.6374 9.79724 35.6843 9.79724 35.6843 9.84379C35.7313 9.84379 35.7313 9.89034 35.7782 9.89034L35.919 9.98344C35.919 9.98344 35.919 9.98344 35.8721 9.98344L35.4966 10.2162L34.3232 9.28519L36.1537 7.05078Z" fill="#FF4E0E"/>
<path d="M39.5332 10.5902L37.7027 12.1263C37.7027 12.1729 37.7497 12.1729 37.7497 12.2194C37.7497 12.266 37.7966 12.266 37.7966 12.3125C37.9374 12.4522 38.0782 12.5918 38.219 12.6849C38.3598 12.778 38.5006 12.8246 38.6414 12.8246C38.7822 12.8246 38.923 12.8246 39.1108 12.778C39.2985 12.7315 39.4393 12.6384 39.627 12.4987C39.7678 12.4056 39.8617 12.266 39.9556 12.1729C40.0025 12.0798 40.0495 11.9401 40.0495 11.847C40.0495 11.7539 40.0495 11.6143 40.0025 11.5212C39.9556 11.4281 39.9087 11.335 39.8617 11.2419C39.8617 11.2419 39.8617 11.2419 39.8617 11.1953C39.8617 11.1953 39.8617 11.1953 39.8617 11.1488V11.1022C39.8617 11.1022 39.8617 11.1022 39.8617 11.0557L39.8148 11.0091L39.7678 10.9626C39.7678 10.9626 39.7209 10.9626 39.7209 10.916C39.7209 10.916 39.7209 10.916 39.674 10.8695C39.5801 10.6367 39.5801 10.6367 39.5332 10.5902ZM40.2372 11.1488C40.378 11.335 40.4719 11.4746 40.5188 11.6608C40.5657 11.8005 40.5657 11.9867 40.5188 12.1263C40.4719 12.266 40.4249 12.4056 40.3311 12.5453C40.2372 12.6849 40.1433 12.778 40.0025 12.9177C39.9556 12.9642 39.9556 12.9642 39.9087 13.0108C39.8617 13.0573 39.8148 13.0573 39.7678 13.1039C39.7209 13.1504 39.674 13.1504 39.627 13.197C39.5801 13.197 39.5332 13.2435 39.4862 13.2435C39.3924 13.2901 39.2516 13.2901 39.1577 13.3366C39.0169 13.3366 38.923 13.3366 38.7822 13.3366C38.6414 13.3366 38.5476 13.2901 38.4068 13.197C38.266 13.1039 38.1721 13.0108 38.0313 12.8711L37.9374 12.7315L37.2334 11.847L39.3924 10.0781L39.4862 10.2178L40.2372 11.1488Z" fill="#FF4E0E"/>
<path d="M41.5041 12.7773L41.598 12.917L42.3489 14.0807H42.302C42.302 14.0807 42.302 14.0807 42.2551 14.0807C42.2551 14.0807 42.2551 14.0807 42.2081 14.0807H42.0204C42.0204 14.0342 41.9735 13.9876 41.9735 13.9876C41.9735 13.9411 41.9265 13.8945 41.9265 13.8945C41.9265 13.848 41.8796 13.8014 41.8796 13.8014C41.8796 13.7549 41.8327 13.7083 41.8327 13.7083C41.8327 13.7083 41.8327 13.7083 41.8327 13.6618C41.8327 13.6618 41.8327 13.6618 41.8327 13.6152C41.8327 13.6152 41.8327 13.6152 41.8327 13.5687C41.8327 13.5687 41.8327 13.5687 41.8327 13.5221C41.8327 13.5221 41.8327 13.5221 41.8327 13.4756C41.8327 13.4756 41.8327 13.4756 41.8327 13.429L41.7857 13.3825L41.7388 13.3359L40.9409 13.848L41.1756 14.2204L41.4103 14.4997L41.5041 14.6394C41.5041 14.6394 41.5041 14.6394 41.4572 14.6394C41.4572 14.6394 41.4572 14.6394 41.4103 14.6394C41.4103 14.6394 41.4103 14.6394 41.3633 14.6394C41.3633 14.6394 41.3633 14.6394 41.3164 14.6394C41.3164 14.6394 41.3164 14.6394 41.3164 14.6859C41.3164 14.6859 41.3164 14.6859 41.2695 14.7325L41.1756 14.5928L40.9409 14.1739L40.6124 13.9876L39.6737 14.5928V14.6394C39.6737 14.6394 39.6737 14.6859 39.7206 14.6859C39.7206 14.6859 39.7206 14.7325 39.7676 14.7325C39.7676 14.7325 39.7676 14.779 39.8145 14.779C39.8145 14.779 39.8145 14.779 39.8145 14.8256C39.8145 14.8256 39.8145 14.8256 39.8145 14.8721C39.8145 14.8721 39.8145 14.8721 39.8145 14.9187C39.8614 14.9652 39.8614 15.0118 39.9084 15.0583C39.9553 15.1049 39.9553 15.1514 40.0022 15.198C40.0492 15.2445 40.0492 15.2445 40.0961 15.2911C40.143 15.2911 40.143 15.3376 40.19 15.3376L40.2838 15.4773H40.2369H40.19C40.19 15.4773 40.19 15.4773 40.143 15.4773C40.143 15.4773 40.143 15.4773 40.0961 15.4773C40.0961 15.4773 40.0961 15.4773 40.0492 15.4773C40.0492 15.4773 40.0492 15.4773 40.0022 15.4773L39.9084 15.3376L39.2043 14.3135L41.5041 12.7773Z" fill="#FF4E0E"/>
<path d="M43.5225 16.1745C43.5225 16.221 43.5694 16.221 43.5225 16.1745C43.5694 16.221 43.5694 16.221 43.5225 16.1745C43.5225 16.221 43.5225 16.221 43.5225 16.1745C43.5225 16.221 43.5225 16.2676 43.5694 16.2676C43.5694 16.2676 43.5694 16.2676 43.6164 16.3141L43.7102 16.4538L41.2227 17.7106L41.1288 17.571C41.1288 17.571 41.1288 17.571 41.1288 17.5244V17.4779C41.1288 17.4779 41.1288 17.4313 41.0819 17.4313C41.0819 17.4313 41.0819 17.4313 41.0819 17.3848L40.988 17.2451L43.4756 15.9883L43.5225 16.1745Z" fill="#FF4E0E"/>
<path d="M44.2265 17.5254L44.2735 17.665L44.3673 17.8512L43.2409 20.1322L45.0244 19.3874L45.0713 19.527C45.0713 19.527 45.0713 19.527 45.0713 19.5736C45.0713 19.5736 45.0713 19.5736 45.0713 19.6202L45.1183 19.7598L42.5369 20.8305L42.49 20.6908V20.5046L43.6633 18.1771L41.8329 18.9219L41.7859 18.7822L41.739 18.6426L44.2265 17.5254Z" fill="#FF4E0E"/>
<path d="M44.7429 21.1094C44.9307 21.1094 45.0715 21.1559 45.1653 21.2025C45.3061 21.249 45.4 21.3421 45.4939 21.3887C45.5877 21.4818 45.6816 21.5283 45.7285 21.6214C45.7755 21.668 45.7755 21.7145 45.8224 21.7611C45.8693 21.8076 45.8693 21.8542 45.9163 21.9007C45.9163 21.9473 45.9632 21.9938 45.9632 22.0404C45.9632 22.0869 46.0101 22.1335 46.0101 22.18L46.0571 22.3197C46.0571 22.4128 46.104 22.4593 46.104 22.5524C46.104 22.6455 46.1509 22.7386 46.1509 22.7852C46.1509 22.8783 46.1509 22.9714 46.1509 23.0645C46.1509 23.1576 46.1509 23.2507 46.104 23.3438L45.7285 23.2972L45.6816 23.1576V23.111C45.6816 23.111 45.6816 23.0645 45.7285 23.0645C45.7285 23.0645 45.7285 23.0179 45.7755 23.0179C45.7755 23.0179 45.7755 22.9714 45.8224 22.9714C45.8224 22.9248 45.8693 22.8783 45.8693 22.8317C45.8693 22.7852 45.8693 22.7386 45.9163 22.6455C45.9163 22.599 45.9163 22.5524 45.9163 22.5059C45.9163 22.4593 45.9163 22.4128 45.8693 22.3197V22.2731V22.2266C45.8693 22.18 45.8693 22.18 45.8224 22.1335C45.8224 22.0869 45.7755 22.0869 45.7755 22.0404C45.7285 21.9473 45.6347 21.9007 45.5877 21.8076C45.4939 21.7611 45.4 21.668 45.3061 21.6214C45.2123 21.5749 45.0715 21.5283 44.9307 21.5283C44.7899 21.5283 44.6491 21.5283 44.4613 21.5749C44.2736 21.6214 44.0858 21.7145 43.945 21.8076C43.8042 21.9007 43.7104 21.9938 43.6165 22.1335C43.5226 22.2731 43.4757 22.3662 43.4757 22.5059C43.4757 22.6455 43.4757 22.7852 43.4757 22.9248C43.4757 22.9714 43.5226 23.0179 43.5226 23.0645C43.5226 23.111 43.5696 23.1576 43.5696 23.2041C43.6165 23.2507 43.6165 23.2972 43.6634 23.3438C43.7104 23.3903 43.7104 23.3903 43.7573 23.4369L44.7899 23.1576L44.8368 23.2972V23.3438V23.3903V23.7162L43.7104 24.042C43.7104 24.042 43.7104 24.042 43.6634 23.9955C43.6634 23.9955 43.6634 23.9489 43.6165 23.9489L43.5696 23.9024C43.5696 23.9024 43.5696 23.8558 43.5226 23.8558C43.5226 23.8093 43.4757 23.7627 43.4757 23.7162C43.4757 23.6696 43.4288 23.6231 43.4288 23.5765C43.4288 23.53 43.3818 23.4834 43.3818 23.4369C43.3818 23.3903 43.3349 23.3438 43.3349 23.2972C43.3349 23.2507 43.288 23.2041 43.288 23.2041C43.288 23.1576 43.288 23.1576 43.241 23.111L43.1941 22.9714C43.1472 22.7852 43.1002 22.5524 43.1002 22.3662C43.1002 22.18 43.1472 21.9938 43.241 21.8542C43.3349 21.7145 43.4288 21.5749 43.6165 21.4352C43.7573 21.3421 43.945 21.249 44.1328 21.2025C44.3674 21.1559 44.5552 21.1094 44.7429 21.1094Z" fill="#FF4E0E"/>
<path d="M46.4793 24.416L46.5263 24.5557L46.8079 25.9056H46.7609C46.7609 25.9056 46.7609 25.9056 46.714 25.9056H46.6671C46.6671 25.9056 46.6671 25.9056 46.6201 25.9056L46.5732 25.766C46.5732 25.7194 46.5732 25.6729 46.5732 25.6729C46.5732 25.6263 46.5732 25.5798 46.5732 25.5332C46.5732 25.4867 46.5732 25.4401 46.5732 25.3936C46.5732 25.347 46.5732 25.3005 46.5732 25.2539C46.5732 25.2539 46.5732 25.2539 46.5732 25.2074C46.5732 25.2074 46.5732 25.2074 46.5732 25.1608C46.5732 25.1608 46.5732 25.1608 46.5732 25.1143C46.5732 25.1143 46.5732 25.1143 46.5732 25.0677C46.5732 25.0677 46.5732 25.0677 46.5732 25.0212V24.9746C46.5732 24.9746 46.5732 24.9746 46.5732 24.9281C46.5732 24.9281 46.5732 24.9281 46.5732 24.8815V24.835V24.7884L45.6345 24.9746L45.7284 25.3936L45.8223 25.7194L45.8692 25.8591H45.8223C45.8223 25.8591 45.8223 25.8591 45.7753 25.8591C45.7753 25.8591 45.7753 25.8591 45.7284 25.8591C45.7284 25.8591 45.7284 25.8591 45.6815 25.8591C45.6815 25.8591 45.6815 25.8591 45.6345 25.8591C45.6345 25.8591 45.6345 25.8591 45.5876 25.8591L45.5406 25.7194L45.4937 25.2539L45.4468 24.9281L44.3204 25.1608V25.2074V25.2539V25.3005V25.347V25.3936C44.3204 25.3936 44.3204 25.3936 44.3204 25.4401C44.3204 25.4401 44.3204 25.4401 44.3204 25.4867C44.3204 25.4867 44.3204 25.4867 44.3204 25.5332C44.3204 25.5798 44.3673 25.6263 44.3673 25.6729C44.3673 25.7194 44.4142 25.766 44.4142 25.8125C44.4142 25.8591 44.4612 25.9056 44.4612 25.9522C44.4612 25.9987 44.4612 26.0453 44.5081 26.0453L44.555 26.1849H44.5081H44.4612C44.4612 26.1849 44.4612 26.1849 44.4142 26.1849C44.4142 26.1849 44.4142 26.1849 44.3673 26.1849C44.3673 26.1849 44.3673 26.1849 44.3204 26.1849C44.3204 26.1849 44.3204 26.1849 44.2734 26.1849C44.2734 26.1849 44.2734 26.1849 44.2265 26.1849L44.1796 26.0453L43.8979 24.6488L46.4793 24.416Z" fill="#FF4E0E"/>
<path d="M46.9956 26.9277V27.0674V27.2536L45.2121 29.1156L47.1364 28.9294V29.069C47.1364 29.069 47.1364 29.069 47.1364 29.1156V29.2552L44.3673 29.5345V29.3949V29.2552L46.2447 27.3932L44.2734 27.5794V27.4398V27.3001L46.9956 26.9277Z" fill="#FF4E0E"/>
<path d="M47.2773 30.7448C47.2304 30.7448 47.2304 30.7448 47.2773 30.7448C47.2304 30.7448 47.2304 30.7448 47.2773 30.7448C47.2773 30.7913 47.2773 30.7913 47.2773 30.7448V30.8379V30.8844V31.0241L44.5082 31.0706V30.931C44.5082 30.931 44.5082 30.931 44.5082 30.8844V30.8379V30.7913V30.7448V30.6051L47.2773 30.5586V30.7448C47.2773 30.6982 47.2773 30.6982 47.2773 30.7448Z" fill="#FF4E0E"/>
<path d="M47.2302 32.0951V32.2347V33.6312H47.1833C47.1833 33.6312 47.1833 33.6312 47.1364 33.6312H47.0894C47.0894 33.6312 47.0894 33.6312 47.0425 33.6312V33.4916C47.0425 33.445 47.0425 33.3985 47.0425 33.3985C47.0425 33.3519 47.0425 33.3054 47.0425 33.2588C47.0425 33.2123 47.0425 33.1657 47.0425 33.1192C47.0425 33.0726 47.0425 33.0261 47.0425 32.9795C47.0425 32.9795 47.0425 32.9795 47.0425 32.933C47.0425 32.933 47.0425 32.933 47.0425 32.8864C47.0425 32.8864 47.0425 32.8864 47.0425 32.8399C47.0425 32.8399 47.0425 32.8399 47.0425 32.7933C47.0425 32.7933 47.0425 32.7933 47.0425 32.7468V32.7002C47.0425 32.7002 47.0425 32.7002 47.0425 32.6537C47.0425 32.6071 47.0425 32.6537 47.0425 32.6071V32.5606V32.514H46.0569V32.933L46.1038 33.3054V33.445H46.0569C46.0569 33.445 46.0569 33.445 46.0099 33.445C46.0099 33.445 46.0099 33.445 45.963 33.445C45.963 33.445 45.963 33.445 45.9161 33.445C45.9161 33.445 45.9161 33.445 45.8691 33.445H45.8222V33.3054L45.8691 32.8399V32.514H44.7427V32.5606V32.6071V32.6537V32.7002V32.7468C44.7427 32.7468 44.7427 32.7468 44.7427 32.7933C44.7427 32.7933 44.7427 32.7933 44.7427 32.8399C44.7427 32.8399 44.7427 32.8399 44.7427 32.8864C44.7427 32.933 44.7427 32.9795 44.7427 33.0261C44.7427 33.0726 44.7427 33.1192 44.7427 33.1657C44.7427 33.2123 44.7427 33.2588 44.7427 33.3054C44.7427 33.3519 44.7427 33.3985 44.7427 33.3985V33.5381H44.6958H44.6489C44.6489 33.5381 44.6489 33.5381 44.6019 33.5381C44.555 33.5381 44.6019 33.5381 44.555 33.5381C44.5081 33.5381 44.555 33.5381 44.5081 33.5381C44.4611 33.5381 44.5081 33.5381 44.4611 33.5381C44.4611 33.5381 44.4611 33.5381 44.4142 33.5381V33.3985V32.002L47.2302 32.0951Z" fill="#FF4E0E"/>
<path d="M45.8691 35.0296C45.8691 35.0762 45.8691 35.0762 45.8691 35.0296C45.8691 35.1693 45.8691 35.2158 45.8691 35.3089C45.8691 35.402 45.9161 35.4486 45.9161 35.4951C45.963 35.5417 45.963 35.5882 46.0099 35.6348C46.0569 35.6813 46.1038 35.7279 46.1038 35.7279C46.1507 35.7279 46.1507 35.7744 46.1977 35.7744C46.2446 35.7744 46.2446 35.7744 46.2916 35.821C46.3385 35.821 46.3385 35.821 46.3854 35.821H46.4324H46.4793H46.5262H46.5732C46.5732 35.821 46.6201 35.821 46.667 35.7744C46.714 35.7744 46.7609 35.7279 46.7609 35.7279C46.7609 35.7279 46.8078 35.6813 46.8548 35.6348C46.9017 35.5882 46.9017 35.5417 46.9486 35.4951C46.9486 35.4486 46.9956 35.3555 46.9956 35.2624V35.0762L45.8691 35.0296C45.9161 35.0296 45.9161 35.0296 45.8691 35.0296ZM47.2302 34.6107V34.7503L47.1364 35.6813C47.1364 35.821 47.0894 35.9141 47.0425 36.0072C46.9956 36.1003 46.9486 36.1934 46.9017 36.2399C46.8548 36.2865 46.7609 36.333 46.667 36.3796C46.5732 36.3796 46.4793 36.4261 46.3854 36.3796C46.2916 36.3796 46.1977 36.333 46.1507 36.333C46.0569 36.2865 46.0099 36.2399 45.963 36.1934C45.9161 36.1468 45.8691 36.1003 45.8222 36.0072C45.7753 35.9606 45.7753 35.8675 45.7283 35.821C45.7283 35.7744 45.7283 35.7744 45.6814 35.7279C45.6814 35.6813 45.6814 35.6813 45.6814 35.6348C45.6814 35.5882 45.6814 35.5882 45.6814 35.5417C45.6814 35.4951 45.6814 35.4951 45.6814 35.4486L44.2264 36.3796V36.2399C44.2264 36.2399 44.2264 36.2399 44.2264 36.1934C44.2264 36.1468 44.2264 36.1934 44.2264 36.1468C44.2264 36.1468 44.2264 36.1468 44.2264 36.1003C44.2264 36.1003 44.2264 36.1003 44.2264 36.0537V36.0072V35.9606V35.821L45.5875 34.9831L44.3203 34.89V34.7503V34.7038V34.6572V34.5176L47.2302 34.6107Z" fill="#FF4E0E"/>
<path d="M46.8548 37.7751C46.8548 37.8216 46.8548 37.8216 46.8548 37.7751C46.8548 37.8216 46.8548 37.8216 46.8548 37.7751V37.8682V37.9147V38.0544L44.0857 37.6354L44.1326 37.4958C44.1326 37.4958 44.1326 37.4958 44.1326 37.4492V37.4027V37.3561V37.3096L44.1796 37.1699L46.9487 37.5889L46.8548 37.7751C46.9018 37.7751 46.9018 37.7751 46.8548 37.7751Z" fill="#FF4E0E"/>
<path d="M44.9304 40.1019L45.7752 39.9623L45.0712 39.4968L44.9304 40.1019ZM46.4792 40.1019L46.4323 40.2416V40.3347L43.4285 40.8467L43.4754 40.7071C43.4754 40.7071 43.4754 40.7071 43.4754 40.6605C43.4754 40.6605 43.4754 40.6605 43.4754 40.614C43.4754 40.614 43.4754 40.614 43.4754 40.5674C43.4754 40.5674 43.4754 40.5674 43.4754 40.5209L43.5223 40.3812L44.6957 40.195L44.8834 39.4502L43.8978 38.752L43.9447 38.6123L43.9917 38.4727L46.4792 40.1019Z" fill="#FF4E0E"/>
<path d="M10.8564 45.4551L10.9502 45.5947V45.6413V45.6878C10.9502 45.6878 10.9502 45.6878 10.9972 45.7344L11.091 45.874L8.83819 47.0843V47.1309C8.83819 47.1309 8.83819 47.1774 8.88512 47.1774C8.88512 47.1774 8.88512 47.224 8.93206 47.224C8.93206 47.224 8.93206 47.2705 8.97899 47.2705C8.97899 47.2705 8.97899 47.2705 8.97899 47.3171C8.97899 47.3171 8.97899 47.3171 8.97899 47.3636C8.97899 47.3636 8.97899 47.3636 8.97899 47.4102C8.97899 47.4102 8.97899 47.4102 8.97899 47.4567C9.02592 47.5033 9.02592 47.5498 9.07286 47.5964C9.11979 47.6429 9.11979 47.6895 9.16673 47.736C9.21366 47.7826 9.21366 47.8291 9.26059 47.8291C9.26059 47.8757 9.30753 47.8757 9.30753 47.9222L9.4014 48.0619C9.4014 48.0619 9.4014 48.0619 9.35446 48.0619L9.26059 47.9222L8.60352 46.7585L10.8564 45.4551Z" fill="#FF4E0E"/>
<path d="M12.1234 47.5964C12.1234 47.6429 12.1234 47.6429 12.1234 47.5964C12.1234 47.6429 12.1234 47.6429 12.1234 47.5964C12.1234 47.6429 12.1234 47.6429 12.1704 47.6895C12.1704 47.6895 12.1704 47.6895 12.2173 47.736L12.3112 47.8757L10.0114 49.4118L9.91754 49.2722C9.91754 49.2722 9.91754 49.2722 9.91754 49.2256V49.1791C9.91754 49.1791 9.91754 49.1791 9.8706 49.1325C9.8706 49.1325 9.8706 49.1325 9.8706 49.086L9.77673 48.9463L12.0296 47.4102L12.1234 47.5964C12.0765 47.5964 12.0765 47.5498 12.1234 47.5964Z" fill="#FF4E0E"/>
<path d="M12.8274 48.668L12.9682 48.8076L13.062 48.9007L12.2172 50.9024L14.3293 50.3438L14.4231 50.4369L14.517 50.53L12.5927 52.5782L12.4988 52.4851C12.4988 52.4851 12.4988 52.4851 12.4519 52.4385V52.392C12.4519 52.392 12.405 52.392 12.405 52.3454L12.358 52.2989L12.2642 52.2058L13.5314 50.9024L11.654 51.4144L11.5601 51.3213L11.5132 51.2748L12.2642 49.5524L10.8092 50.5765L10.7153 50.4834C10.7153 50.4834 10.7153 50.4834 10.7153 50.4369L10.6215 50.3438L12.8274 48.668Z" fill="#FF4E0E"/>
<path d="M15.2211 53.0879L15.4557 52.2966L14.7048 52.7155L15.2211 53.0879ZM15.8781 51.6914L16.0189 51.7845L16.0659 51.8311L15.2211 54.7172L15.0803 54.6241C15.0803 54.6241 15.0803 54.6241 15.0333 54.6241L14.8925 54.531L15.268 53.4138L14.6578 52.9483L13.6722 53.6L13.5314 53.5069L13.3906 53.4138L15.8781 51.6914Z" fill="#FF4E0E"/>
<path d="M20.1023 54.4404C20.1962 54.4404 20.2431 54.3939 20.337 54.3939C20.4309 54.3939 20.4778 54.3939 20.5247 54.3473C20.5717 54.3473 20.6656 54.3008 20.7125 54.3008L20.8533 54.3473L20.9472 54.3939L20.1493 57.0007L20.0085 56.9541H19.9615C19.9615 56.9541 19.9615 56.9541 19.9146 56.9541H19.8677H19.8207L19.6799 56.9076L20.3839 54.6732L20.1023 54.7663L19.9615 54.7197C19.9615 54.7197 19.9615 54.7197 19.9615 54.6732C19.9615 54.4404 20.0085 54.4404 20.1023 54.4404Z" fill="#FF4E0E"/>
<path d="M22.8715 55.5098C22.8715 55.6029 22.8715 55.6494 22.8715 55.696C22.8715 55.7425 22.9184 55.7891 22.9184 55.8356C22.9653 55.8822 22.9653 55.9287 23.0123 55.9287C23.0592 55.9753 23.1061 55.9753 23.1531 55.9753C23.2 55.9753 23.247 55.9753 23.2939 55.9287C23.3408 55.9287 23.3878 55.8822 23.3878 55.8356C23.4347 55.7891 23.4347 55.7425 23.4816 55.696C23.4816 55.6494 23.5286 55.6029 23.5286 55.5098C23.5286 55.4632 23.5286 55.3701 23.5286 55.3236C23.5286 55.277 23.4816 55.1839 23.4816 55.1374C23.4816 55.0908 23.4347 55.0443 23.3878 55.0443C23.3408 54.9977 23.2939 54.9977 23.247 54.9977C23.2 54.9977 23.1531 54.9977 23.1062 55.0443C23.0592 55.0443 23.0123 55.0908 23.0123 55.1374C22.9653 55.1839 22.9653 55.2305 22.9184 55.277C22.9184 55.3701 22.8715 55.4167 22.8715 55.5098ZM22.5899 56.7666C22.5899 56.8597 22.5899 56.9528 22.5899 57.0459C22.5899 57.139 22.6368 57.1856 22.6368 57.2321C22.6837 57.2787 22.6837 57.3252 22.7307 57.3718C22.7776 57.4183 22.8245 57.4183 22.9184 57.4649C22.9653 57.4649 23.0123 57.4649 23.0592 57.4183C23.1061 57.4183 23.1531 57.3718 23.2 57.3252C23.247 57.2787 23.2939 57.2321 23.2939 57.1856C23.3408 57.139 23.3408 57.0925 23.3878 56.9994C23.3878 56.9994 23.3878 56.9994 23.3878 56.9528C23.3878 56.9528 23.3878 56.9528 23.3878 56.9063C23.3878 56.8597 23.3878 56.7666 23.3878 56.7201C23.3878 56.6735 23.3408 56.5804 23.3408 56.5339C23.2939 56.4873 23.2939 56.4408 23.247 56.3942C23.2 56.3477 23.1531 56.3477 23.1062 56.3011C23.0592 56.3011 23.0123 56.3011 22.9653 56.3011C22.9184 56.3011 22.8715 56.3477 22.8245 56.3942C22.7776 56.4408 22.7307 56.4873 22.7307 56.5339C22.7307 56.5804 22.6837 56.627 22.6368 56.6735L22.5899 56.7666C22.5899 56.7201 22.5899 56.7201 22.5899 56.7666ZM22.5899 55.9287C22.5429 55.8822 22.496 55.8356 22.496 55.7891C22.496 55.7425 22.4491 55.6494 22.4491 55.6029C22.4491 55.5563 22.4491 55.4632 22.4491 55.4167C22.4491 55.3236 22.496 55.277 22.5429 55.2305C22.5899 55.1839 22.6368 55.0908 22.6837 55.0443C22.7307 54.9977 22.8245 54.9512 22.9184 54.9512C23.0123 54.9512 23.1062 54.9512 23.247 54.9512H23.3878C23.5286 54.9512 23.6224 54.9977 23.6694 55.0443C23.7632 55.0908 23.8102 55.1374 23.8571 55.2305C23.904 55.3236 23.951 55.3701 23.951 55.4632C23.951 55.5563 23.9979 55.6029 23.951 55.696C23.951 55.7425 23.904 55.8356 23.904 55.8822C23.8571 55.9287 23.8571 55.9753 23.8102 56.0218C23.7632 56.0684 23.7163 56.1149 23.6694 56.1615C23.6224 56.208 23.5286 56.208 23.4816 56.208C23.5755 56.2546 23.6694 56.2546 23.7163 56.3011C23.7632 56.3477 23.8571 56.3942 23.8571 56.4873C23.904 56.5804 23.904 56.627 23.951 56.7201C23.951 56.8132 23.951 56.8597 23.951 56.9528C23.951 57.0459 23.904 57.139 23.8571 57.2321C23.8102 57.3252 23.7632 57.3718 23.6694 57.4649C23.5755 57.558 23.4816 57.6045 23.3878 57.6045C23.2939 57.6511 23.1531 57.6511 23.0592 57.6045H22.9184C22.7776 57.6045 22.6368 57.558 22.5429 57.5114C22.4491 57.4649 22.3552 57.3718 22.3083 57.3252C22.2613 57.2321 22.2144 57.139 22.1675 57.0459C22.1675 56.9528 22.1205 56.8597 22.1675 56.7666C22.1675 56.6735 22.2144 56.627 22.2613 56.5339C22.3083 56.4408 22.3552 56.3942 22.4021 56.3011C22.4491 56.208 22.5429 56.1615 22.5899 56.1615C22.6837 56.1149 22.7307 56.1149 22.8245 56.1149C22.6837 55.9753 22.6368 55.9753 22.5899 55.9287Z" fill="#FF4E0E"/>
<path d="M26.861 55.0446V55.1842C26.814 55.2773 26.7671 55.3704 26.7202 55.4635C26.6732 55.5566 26.6263 55.6498 26.5324 55.7894C26.4855 55.836 26.4855 55.8825 26.4385 55.9291C26.3916 55.9756 26.3916 56.0222 26.3447 56.0687C26.2977 56.1153 26.2977 56.1618 26.2508 56.2084C26.2039 56.2549 26.2039 56.3015 26.1569 56.348C26.11 56.4411 26.0631 56.5342 26.0161 56.6739C25.9692 56.767 25.9223 56.8601 25.8753 56.9997C25.8284 57.0463 25.8284 57.0928 25.7815 57.1394C25.7345 57.1859 25.7345 57.2325 25.6876 57.279C25.6407 57.3256 25.6407 57.3721 25.5937 57.4187C25.5468 57.4652 25.5468 57.5118 25.4999 57.5583H25.3591H25.3121H25.2652C25.2652 57.5583 25.2652 57.5583 25.2183 57.5583C25.2183 57.5583 25.2183 57.5583 25.1713 57.5583C25.1713 57.5583 25.1713 57.5583 25.1244 57.5583C25.1244 57.5583 25.1244 57.5583 25.0775 57.5583H25.0305L26.3447 55.1842L25.1713 55.2774H25.0305C25.0305 55.2774 25.0305 55.2773 25.0305 55.2308C25.0305 55.2308 25.0305 55.2308 25.0305 55.1842V55.1377V55.0911V55.0446V54.998H25.1713L26.861 55.0446Z" fill="#FF4E0E"/>
<path d="M28.5036 56.7207C28.5036 56.7207 28.5036 56.7673 28.5036 56.7207C28.5036 56.7673 28.5036 56.7673 28.5036 56.7207C28.5036 56.7673 28.5036 56.7673 28.5036 56.8138C28.5036 56.8138 28.5036 56.8138 28.5036 56.8604V56.9069V56.9535C28.5036 57 28.5505 57.0931 28.5974 57.1397C28.6444 57.1862 28.6913 57.2328 28.7383 57.2793C28.7852 57.3259 28.8321 57.3259 28.8791 57.3724C28.926 57.3724 28.9729 57.419 29.0199 57.419C29.0668 57.419 29.1137 57.3724 29.1607 57.3259C29.2076 57.2793 29.2076 57.2328 29.2545 57.1862C29.3015 57.1397 29.3015 57.0931 29.3015 57C29.3015 56.9535 29.3484 56.8604 29.3484 56.8138C29.3484 56.8138 29.3484 56.8138 29.3484 56.7673C29.3484 56.7673 29.3484 56.7673 29.3484 56.7207C29.3484 56.7207 29.3484 56.7207 29.3484 56.6742C29.3484 56.6742 29.3484 56.6742 29.3484 56.6276V56.5811V56.5345C29.3484 56.4414 29.3015 56.3483 29.2545 56.3018C29.2076 56.2087 29.1607 56.1621 29.1137 56.1156C29.0668 56.069 29.0199 56.069 28.9729 56.0225C28.926 56.0225 28.8791 55.9759 28.8321 55.9759C28.7852 55.9759 28.7382 56.0225 28.6913 56.069C28.6444 56.1156 28.5974 56.1621 28.5974 56.2087C28.5505 56.2552 28.5505 56.3483 28.5036 56.3949C28.4566 56.5811 28.4566 56.6276 28.5036 56.7207ZM27.8934 55.7897C27.9404 55.6035 27.9873 55.4173 28.0812 55.2777C28.175 55.138 28.2689 55.0449 28.3628 54.9518C28.4566 54.8587 28.5974 54.8122 28.7383 54.8122L28.8791 54.7656C28.8791 54.7656 28.8791 54.7656 28.926 54.7656C28.926 54.7656 28.926 54.7656 28.9729 54.7656C28.9729 54.7656 28.9729 54.7656 29.0199 54.7656C29.0668 54.7656 29.0199 54.7656 29.0668 54.7656C29.0668 54.7656 29.0668 54.7656 29.1137 54.7656C29.1607 54.7656 29.1137 54.7656 29.1607 54.7656L29.2076 54.9053L29.0668 54.9518H29.0199H28.9729C28.8791 54.9984 28.7852 55.0449 28.7383 55.0915C28.6913 55.1846 28.5974 55.2311 28.5505 55.3708C28.5036 55.4639 28.4566 55.6035 28.4566 55.6966C28.4566 55.8363 28.4566 55.9759 28.4566 56.1156C28.4566 56.1156 28.4566 56.1156 28.5036 56.1156C28.5505 56.069 28.5974 56.069 28.6444 56.0225C28.6913 55.9759 28.7382 55.9759 28.8321 55.9759L28.9729 55.9294C29.0668 55.9294 29.1607 55.9294 29.2545 55.9294C29.3484 55.9294 29.4423 55.9759 29.5361 56.0225C29.63 56.069 29.6769 56.1621 29.7239 56.2087C29.7708 56.3018 29.8177 56.3949 29.8177 56.5345C29.8177 56.6276 29.8177 56.7673 29.8177 56.8604C29.8177 56.9535 29.7708 57.0466 29.7239 57.1397C29.6769 57.2328 29.5831 57.3259 29.4892 57.3724C29.3953 57.419 29.3015 57.4655 29.1607 57.5121L29.0199 57.5586C28.926 57.5586 28.7852 57.5586 28.6913 57.5586C28.5974 57.5121 28.5036 57.4655 28.4097 57.419C28.3158 57.3259 28.222 57.2328 28.175 57.1397C28.1281 57 28.0812 56.8604 28.0342 56.6742V56.6276C27.8934 56.2552 27.8934 56.0225 27.8934 55.7897Z" fill="#FF4E0E"/>
<path d="M35.9192 52.9974C36.0131 52.9509 36.06 52.9043 36.1069 52.8112C36.1539 52.7647 36.1539 52.6716 36.1539 52.5785C36.1539 52.4854 36.1539 52.4388 36.1539 52.3457C36.1539 52.2526 36.1069 52.2061 36.06 52.1595C36.0131 52.113 35.9661 52.0664 35.9192 52.0199C35.8723 51.9733 35.8253 51.9733 35.7315 51.9268C35.6845 51.9268 35.5907 51.9268 35.5437 51.9268C35.4968 51.9268 35.4029 51.9733 35.356 52.0199L35.4968 51.9268L35.356 52.0199L35.1213 52.1595L35.8253 53.0905L35.9192 52.9974ZM35.4029 51.694C35.4968 51.6009 35.5907 51.5544 35.6845 51.5544C35.7784 51.5078 35.8723 51.5078 35.9661 51.5078C36.06 51.5078 36.1069 51.5544 36.2008 51.6009C36.2947 51.6475 36.3416 51.694 36.3885 51.7871C36.4824 51.8802 36.5293 51.9733 36.5293 52.0664C36.5763 52.1595 36.5763 52.2526 36.5293 52.3457C36.5293 52.4388 36.4824 52.5319 36.4355 52.5785C36.3885 52.6716 36.3416 52.7181 36.2947 52.8112C36.2947 52.8578 36.2477 52.8578 36.2477 52.9043L36.2008 52.9509L36.1539 52.9974L36.1069 53.044L35.9661 53.1371L35.9192 53.1836C35.9192 53.1836 35.8723 53.1836 35.8723 53.2302L36.6232 54.2077L36.4824 54.3008C36.4824 54.3008 36.4355 54.3008 36.4355 54.3474C36.4355 54.3474 36.4355 54.3474 36.3885 54.3474C36.3885 54.3474 36.3885 54.3474 36.3416 54.3939C36.3416 54.3939 36.2947 54.3939 36.2947 54.4405L36.1539 54.5336L34.4642 52.3457L34.605 52.2526L35.4029 51.694Z" fill="#FF4E0E"/>
<path d="M36.4822 50.8558L36.576 50.7627L37.5617 49.7852C37.5617 49.7852 37.5617 49.7852 37.5617 49.8317C37.5617 49.8317 37.5617 49.8317 37.5617 49.8783C37.5617 49.8783 37.5617 49.8783 37.6086 49.9248C37.6086 49.9248 37.6086 49.9248 37.6555 49.9248L37.5617 50.0179C37.5147 50.0179 37.5147 50.0645 37.4678 50.0645C37.4209 50.0645 37.4209 50.111 37.3739 50.1576C37.327 50.2041 37.327 50.2041 37.2801 50.2507C37.2331 50.2972 37.2331 50.2972 37.1862 50.3438C37.1862 50.3438 37.1862 50.3438 37.1393 50.3903C37.1393 50.3903 37.1393 50.3903 37.1393 50.4369C37.1393 50.4369 37.1393 50.4834 37.1393 50.4369L37.0923 50.4834L37.0454 50.53L37.7494 51.2282L38.031 50.9489L38.2657 50.6696L38.3595 50.5765C38.3595 50.5765 38.3595 50.5765 38.3595 50.6231C38.3595 50.6231 38.3595 50.6231 38.3595 50.6696C38.3595 50.6696 38.3595 50.6696 38.3595 50.7162C38.3595 50.7162 38.3595 50.7162 38.4065 50.7162C38.4065 50.7162 38.4065 50.7162 38.4534 50.7162L38.3595 50.8093L38.031 51.0886L37.7963 51.3213L38.5942 52.1127C38.5942 52.1127 38.6412 52.1127 38.6412 52.0661L38.6881 52.0196L38.735 51.973L38.782 51.9265C38.782 51.9265 38.782 51.9265 38.8289 51.9265C38.8289 51.9265 38.8289 51.9265 38.8289 51.8799C38.8758 51.8334 38.8758 51.7868 38.9228 51.7868C38.9697 51.7403 38.9697 51.6937 39.0166 51.6937C39.0636 51.6472 39.0636 51.6472 39.1105 51.6006C39.1574 51.5541 39.1574 51.5541 39.1574 51.5075L39.2513 51.4144C39.2513 51.4144 39.2513 51.4144 39.2513 51.461C39.2513 51.461 39.2513 51.461 39.2513 51.5075C39.2513 51.5075 39.2513 51.5075 39.2513 51.5541C39.2513 51.5541 39.2513 51.5541 39.2982 51.5541C39.2982 51.5541 39.2982 51.5541 39.3452 51.5541L39.2513 51.6472L38.2657 52.6247L36.4822 50.8558Z" fill="#FF4E0E"/>
<path d="M39.3453 49.6452C39.3922 49.5987 39.3922 49.6452 39.3453 49.6452C39.4392 49.5521 39.4861 49.459 39.4861 49.4125C39.533 49.3659 39.533 49.2728 39.533 49.2263C39.533 49.1797 39.533 49.0866 39.533 49.0401C39.533 48.9935 39.533 48.947 39.4861 48.9004C39.4861 48.8539 39.4392 48.8539 39.4392 48.8073C39.4392 48.7608 39.3922 48.7608 39.3922 48.7608L39.3453 48.7142L39.2984 48.6677C39.2984 48.6677 39.2984 48.6677 39.2514 48.6211C39.2045 48.5746 39.2045 48.6211 39.2045 48.5746C39.2045 48.5746 39.1576 48.5746 39.1576 48.528C39.1576 48.528 39.1106 48.528 39.0637 48.528C39.0168 48.528 38.9698 48.528 38.9229 48.528C38.8759 48.528 38.829 48.528 38.7821 48.5746C38.7351 48.5746 38.6882 48.6211 38.6413 48.6677C38.5943 48.7142 38.5474 48.7608 38.5005 48.8073L38.4066 48.947L39.3453 49.6452ZM38.0311 49.2263L38.125 49.0866L38.6882 48.3884C38.7821 48.2952 38.8759 48.2021 38.9229 48.1556C39.0167 48.109 39.1106 48.0625 39.1576 48.0625C39.2514 48.0625 39.3453 48.0625 39.3922 48.109C39.4861 48.1556 39.533 48.1556 39.6269 48.2487C39.7208 48.2952 39.7677 48.3418 39.8146 48.4349C39.8616 48.4814 39.8616 48.5746 39.9085 48.6211C39.9085 48.7142 39.9085 48.7608 39.9085 48.8073C39.9085 48.8539 39.9085 48.947 39.8616 48.9935C39.8616 49.0401 39.8616 49.0401 39.8146 49.0866C39.8146 49.1332 39.8146 49.1332 39.7677 49.1797C39.7677 49.2263 39.7677 49.2263 39.7208 49.2728L39.6738 49.3194L41.3635 49.3659L41.2696 49.5056C41.2696 49.5056 41.2696 49.5521 41.2227 49.5521C41.2227 49.5521 41.2227 49.5987 41.1757 49.5987L41.0819 49.7383L39.4861 49.6918L40.5186 50.4831L40.4248 50.6228V50.6693C40.4248 50.6693 40.4248 50.7159 40.3778 50.7159L40.284 50.8555L38.0311 49.2263Z" fill="#FF4E0E"/>
<path d="M39.6268 47.1771L39.7207 47.0375C39.7207 47.0375 39.7676 47.0375 39.7676 46.9909C39.7676 46.9909 39.7676 46.9909 39.8146 46.9444C39.8146 46.9444 39.8146 46.9444 39.8146 46.8978C39.8146 46.8978 39.8146 46.8978 39.8146 46.8513L39.9084 46.7116L41.3165 47.5495C41.4573 47.6426 41.5981 47.6892 41.7389 47.7357C41.8797 47.7823 41.9735 47.7823 42.1143 47.7357C42.2082 47.7357 42.3021 47.6892 42.349 47.6426C42.4429 47.5961 42.4898 47.503 42.5368 47.4564C42.5837 47.3633 42.6306 47.2237 42.6306 47.1306C42.6306 47.0375 42.6306 46.9444 42.5837 46.8513C42.5368 46.7582 42.4898 46.6651 42.3959 46.572C42.3021 46.4789 42.2082 46.3858 42.0674 46.2927L40.6124 45.4082L40.7063 45.2686L40.8002 45.1289L42.1613 45.9668C42.3021 46.0599 42.4429 46.153 42.5368 46.2927C42.6306 46.3858 42.7245 46.5254 42.7714 46.6651C42.8184 46.8047 42.8653 46.9444 42.8184 47.084C42.7714 47.2237 42.7245 47.4099 42.6306 47.5495L42.5368 47.6892C42.4429 47.8754 42.3021 48.015 42.2082 48.1081C42.0674 48.2012 41.9735 48.2478 41.8327 48.2478C41.6919 48.2478 41.5511 48.2478 41.4103 48.2012C41.2695 48.1547 41.1287 48.1081 41.0349 48.015L39.6268 47.1771Z" fill="#FF4E0E"/>
<path d="M9.87072 25.3926C9.82379 25.346 9.77685 25.2995 9.72992 25.2529C9.68298 25.2064 9.68298 25.1598 9.68298 25.1133C9.68298 25.0667 9.68298 25.0202 9.68298 24.9736V24.8805C9.68298 24.834 9.68298 24.7874 9.72992 24.7874C9.72992 24.7409 9.77685 24.7409 9.77685 24.6943C9.77685 24.6478 9.82379 24.6478 9.82379 24.6012C9.82379 24.6012 9.87072 24.5547 9.91765 24.5547C9.91765 24.5547 9.91765 24.5547 9.96459 24.6012C9.96459 24.6012 9.96459 24.6012 10.0115 24.6478H10.0585C10.0585 24.6478 10.1054 24.6478 10.1054 24.6943V24.7874V24.834C10.1054 24.834 10.1054 24.834 10.0585 24.834C10.0585 24.834 10.0585 24.834 10.0115 24.834C10.0115 24.834 9.96459 24.834 9.96459 24.8805L9.91765 24.9271L9.87072 24.9736C9.87072 24.9736 9.87072 25.0202 9.82379 25.0202C9.82379 25.0667 9.82379 25.0667 9.82379 25.1133C9.82379 25.1598 9.87072 25.1598 9.87072 25.2064C9.91766 25.2529 9.91765 25.2529 9.96459 25.2995C10.0115 25.2995 10.0585 25.346 10.1054 25.346C10.1523 25.346 10.1523 25.346 10.1993 25.346C10.2462 25.346 10.2462 25.346 10.2931 25.2995C10.3401 25.2995 10.3401 25.2529 10.387 25.2529C10.4339 25.2529 10.4339 25.2064 10.4809 25.1598L10.6686 24.9271C10.7155 24.8805 10.7625 24.834 10.7625 24.834C10.8094 24.7874 10.8563 24.7874 10.9033 24.7874C10.9502 24.7874 10.9971 24.7874 11.0441 24.7874C11.091 24.7874 11.1379 24.7874 11.1849 24.7874C11.2787 24.7874 11.3257 24.834 11.3726 24.8805C11.4196 24.9271 11.4665 24.9736 11.5604 25.0202C11.6073 25.0667 11.6542 25.1598 11.6542 25.2064C11.6542 25.2529 11.6542 25.346 11.6542 25.4391V25.5322C11.6542 25.5788 11.6073 25.5788 11.6073 25.6253C11.6073 25.6719 11.5604 25.6719 11.5604 25.7184C11.5604 25.765 11.5134 25.765 11.5134 25.765L11.4665 25.8115C11.4665 25.8115 11.4196 25.8115 11.4196 25.765H11.3726V25.7184V25.6253C11.4665 25.5788 11.5134 25.5788 11.5604 25.5322C11.6073 25.4857 11.6542 25.4857 11.6542 25.4391C11.6542 25.4391 11.6542 25.3926 11.7012 25.3926V25.346C11.7012 25.2995 11.7012 25.2529 11.7012 25.2529C11.7012 25.2064 11.6542 25.2064 11.6542 25.1598C11.6073 25.1133 11.5604 25.1133 11.5604 25.0667C11.5134 25.0667 11.4665 25.0202 11.4196 25.0202C11.3726 25.0202 11.3257 25.0202 11.3257 25.0202C11.2787 25.0202 11.2318 25.0202 11.2318 25.0202C11.1849 25.0202 11.1849 25.0667 11.1379 25.0667C11.091 25.0667 11.091 25.1133 11.0441 25.1598L10.8563 25.346C10.8094 25.3926 10.7625 25.4391 10.7155 25.4857C10.6686 25.5322 10.6217 25.5322 10.5747 25.5322C10.5278 25.5322 10.4809 25.5322 10.4339 25.5322C10.387 25.5322 10.3401 25.5322 10.2931 25.5322C10.0115 25.4391 9.96459 25.4391 9.87072 25.3926Z" fill="#FF4E0E"/>
<path d="M10.5275 23.763C10.4336 23.6699 10.3398 23.5768 10.2928 23.4837C10.2459 23.3906 10.199 23.251 10.199 23.1579C10.199 23.0648 10.199 22.9251 10.2459 22.7855L10.2928 22.6924V22.6458V22.5993C10.2928 22.5527 10.3398 22.5527 10.3398 22.5062C10.3398 22.4596 10.3867 22.4596 10.3867 22.4131C10.3867 22.3665 10.4336 22.3665 10.4336 22.32C10.4336 22.32 10.4806 22.2734 10.5275 22.2734L10.7153 22.4131L10.6683 22.5062C10.6214 22.5062 10.5744 22.5527 10.5744 22.5527C10.5275 22.5527 10.5275 22.5993 10.4806 22.5993C10.4336 22.5993 10.4336 22.6458 10.3867 22.6924C10.3867 22.7389 10.3398 22.7389 10.3398 22.7855C10.3398 22.7855 10.3398 22.7855 10.3398 22.832C10.3398 22.8786 10.3398 22.9717 10.3398 23.0648C10.3398 23.1579 10.3867 23.2044 10.4336 23.2975C10.4806 23.3906 10.5275 23.4372 10.6214 23.5303C10.7153 23.5768 10.8091 23.6699 10.9499 23.7165C11.0907 23.763 11.2315 23.8096 11.3723 23.8096C11.5131 23.8096 11.607 23.8096 11.7009 23.763C11.7947 23.7165 11.8417 23.6699 11.8886 23.6234C11.9355 23.5768 11.9825 23.5303 12.0294 23.4372C12.0294 23.3906 12.0294 23.3441 12.0763 23.2975C12.0763 23.251 12.0763 23.2044 12.0763 23.1579C12.0763 23.1113 12.0763 23.0648 12.0763 23.0182C12.0763 22.9717 12.0294 22.9251 12.0294 22.8786L12.0763 22.7855L12.2171 22.8786V22.9251V22.9717V23.0182V23.0648V23.1113V23.1579C12.2171 23.2044 12.2171 23.2044 12.2171 23.2044V23.251V23.2975V23.3441L12.1702 23.4372C12.1233 23.5303 12.0763 23.6234 11.9825 23.7165C11.8886 23.8096 11.7947 23.8561 11.7009 23.9027C11.607 23.9492 11.4662 23.9492 11.3254 23.9492C11.1846 23.9492 11.0438 23.9027 10.903 23.8561C10.7153 23.9027 10.6214 23.8096 10.5275 23.763Z" fill="#FF4E0E"/>
<path d="M10.9032 21.249C10.9501 21.2025 10.9501 21.249 10.9032 21.249C10.9501 21.2025 10.9501 21.2025 10.9032 21.249C10.9501 21.2025 10.9501 21.2025 10.9032 21.249C10.9501 21.2025 10.9501 21.2025 10.9032 21.249C10.9501 21.2025 10.9501 21.2025 10.9032 21.249L10.9971 21.1094L12.7806 21.9007L12.7336 21.9938C12.7336 21.9938 12.7336 21.9938 12.7336 22.0404L12.6867 22.1335L10.9032 21.3421V21.249Z" fill="#FF4E0E"/>
<path d="M11.4194 20.2246L11.4664 20.1315L11.8418 19.3867L11.7949 19.4798L11.748 19.5264L11.701 19.5729L11.6541 19.6195L11.6072 19.666V19.7126C11.6072 19.7126 11.6072 19.7126 11.6072 19.7591L12.2173 20.085L12.3581 19.8522L12.452 19.666L12.4989 19.5729C12.4989 19.5729 12.4989 19.5729 12.5459 19.5729C12.5459 19.5729 12.5459 19.5729 12.5928 19.5729L12.6867 19.9919L12.4989 20.2246L12.4051 20.4108L13.1091 20.7832C13.1091 20.7832 13.1091 20.7832 13.1091 20.7367C13.1091 20.7367 13.1091 20.7367 13.1091 20.6901C13.1091 20.6901 13.1091 20.6901 13.1091 20.6436C13.1091 20.6436 13.1091 20.6436 13.1091 20.597C13.1091 20.5505 13.156 20.5505 13.156 20.5039C13.156 20.4574 13.156 20.4574 13.2029 20.4108C13.2029 20.3643 13.2029 20.3643 13.2499 20.3177V20.2712L13.2968 20.1781L13.2499 20.2712L12.8744 21.016L11.4194 20.2246Z" fill="#FF4E0E"/>
<path d="M12.3112 18.3626L12.3581 18.2695L12.405 18.1764L14.0947 18.0368L12.9682 17.3385L13.0152 17.2454L13.0621 17.1523L14.7048 18.1764L14.6579 18.2695L14.6109 18.3626L12.8744 18.5023L14.0477 19.2471L14.0008 19.3402L13.9539 19.4333L12.3112 18.3626Z" fill="#FF4E0E"/>
<path d="M14.0479 16.0365C14.0479 16.083 14.001 16.083 14.001 16.1296L13.954 16.1761V16.2227V16.2692C13.954 16.2692 13.954 16.2692 13.954 16.3158C13.954 16.3158 13.954 16.3158 13.954 16.3623L13.9071 16.4554L14.6581 15.4779L14.705 15.3848C14.705 15.3848 14.705 15.3848 14.7519 15.3848L14.705 15.4779C14.6581 15.5244 14.6111 15.571 14.5642 15.571C14.5173 15.6175 14.4703 15.6641 14.4703 15.6641L14.4234 15.7106L14.3764 15.7572L15.8314 16.8744L15.7845 16.9675C15.7845 16.9675 15.7845 16.9675 15.7845 17.014L15.7375 17.1071L14.0479 16.0365Z" fill="#FF4E0E"/>
<path d="M15.0803 14.5908C15.1273 14.5908 15.1273 14.5908 15.0803 14.5908C15.1273 14.5908 15.1273 14.5908 15.0803 14.5908C15.1273 14.5908 15.1273 14.5908 15.0803 14.5908C15.1273 14.5908 15.1273 14.5908 15.0803 14.5908C15.1273 14.5443 15.1273 14.5443 15.0803 14.5908L15.1742 14.4512L16.6292 15.7546L16.5822 15.8011L16.5353 15.8477L15.0803 14.5908Z" fill="#FF4E0E"/>
<path d="M17.1455 14.0345L16.6292 13.8018L16.9108 14.3138L17.1455 14.0345ZM16.2068 13.4759L16.3007 13.3828L18.2719 14.1742L18.225 14.2207L18.0372 14.4069L17.2863 14.0811L16.9577 14.4069L17.3801 15.1052L17.3332 15.1517L17.1924 15.2914L16.2068 13.4759Z" fill="#FF4E0E"/>
<path d="M33.5253 12.4512L33.6192 12.4977L34.2763 13.0098L34.1824 12.9632L34.1355 12.9167L34.0886 12.8701L34.0416 12.8236L33.9947 12.777C33.9947 12.777 33.9947 12.777 33.9478 12.7305C33.9478 12.7305 33.9478 12.7305 33.9008 12.6839L33.4784 13.196L33.6661 13.3356L33.8539 13.4753L33.9478 13.5218C33.9478 13.5218 33.9478 13.5218 33.9478 13.5684L33.8539 13.5218L33.6661 13.3356L33.5253 13.196L32.6336 13.9873C32.6336 13.9873 32.6336 13.9873 32.6336 14.0339C32.6336 14.0339 32.6336 14.0339 32.6805 14.0804C32.6805 14.0804 32.6805 14.0804 32.7275 14.127C32.7275 14.127 32.7275 14.127 32.7744 14.1735C32.8213 14.1735 32.8213 14.2201 32.8683 14.2201C32.9152 14.2201 32.9152 14.2666 32.9621 14.2666C33.0091 14.2666 33.0091 14.3132 33.0091 14.3132L33.056 14.3597L33.1499 14.4063L33.056 14.3597L32.3051 13.9408L33.5253 12.4512Z" fill="#FF4E0E"/>
<path d="M35.309 13.987C35.309 13.9404 35.309 13.9404 35.309 13.987C35.262 13.9404 35.262 13.9404 35.2151 13.9404L35.1682 13.8939C35.1682 13.8939 35.1212 13.8939 35.1212 13.8473H35.0743C35.0743 13.8473 35.0743 13.8473 35.0274 13.8473C35.0274 13.8473 35.0274 13.8473 34.9804 13.8473L34.9335 13.8008L35.8253 14.6852L35.8722 14.7318L35.8253 14.6852C35.7783 14.6387 35.7783 14.5921 35.7314 14.5456C35.6845 14.499 35.6844 14.4525 35.6375 14.4059L35.5906 14.3594L35.5436 14.3128L34.2295 15.5697L34.1826 15.5231L34.0417 15.2438L35.309 13.987Z" fill="#FF4E0E"/>
<path d="M37.2332 15.9434L37.2801 16.0365C37.2801 16.0365 37.2801 16.0365 37.2801 16.083C37.2801 16.083 37.2801 16.083 37.2801 16.1296L37.3271 16.2227L35.9191 17.2002C35.9191 17.2002 35.9191 17.2002 35.9191 17.2468C35.9191 17.2468 35.9191 17.2468 35.9191 17.2933C35.9191 17.2933 35.9191 17.2933 35.9191 17.3399C35.9191 17.3399 35.9191 17.3399 35.9191 17.3864C35.9191 17.433 35.966 17.433 35.966 17.4795C35.966 17.4795 36.0129 17.5261 36.0129 17.5726L36.0599 17.6192L36.1068 17.6657L36.1537 17.7588L36.1068 17.6657L35.6375 16.9675L37.2332 15.9434Z" fill="#FF4E0E"/>
<path d="M37.7963 18.5964L38.1718 18.1309L37.6086 18.2705L37.7963 18.5964ZM38.5942 17.8516L38.6412 17.9447L38.6881 17.9912L37.4209 19.667L37.327 19.5739L37.2801 19.4808L37.7963 18.8291L37.5617 18.4102L36.7638 18.6429L36.7169 18.5498L36.6699 18.4567L38.5942 17.8516Z" fill="#FF4E0E"/>
<path d="M38.7823 20.0853C38.8292 20.1318 38.8292 20.1784 38.8761 20.2249C38.9231 20.2715 38.97 20.318 39.0169 20.318C39.0639 20.318 39.1108 20.3646 39.1577 20.3646C39.2047 20.3646 39.2516 20.3646 39.3455 20.318C39.3924 20.318 39.4393 20.2715 39.4863 20.2249C39.5332 20.1784 39.5332 20.1318 39.5332 20.0853C39.5332 20.0387 39.5332 19.9922 39.5332 19.9456C39.5332 19.8991 39.5332 19.8525 39.4863 19.806L39.4393 19.6663L38.7823 20.0853ZM37.8905 20.5508C37.8905 20.5973 37.9374 20.6439 37.9844 20.6904C38.0313 20.737 38.0313 20.737 38.0782 20.7835C38.1252 20.7835 38.1721 20.8301 38.219 20.8301C38.266 20.8301 38.3129 20.8301 38.3598 20.8301C38.4537 20.7835 38.5006 20.737 38.5476 20.6904C38.5945 20.6439 38.6415 20.5973 38.6415 20.5508C38.6415 20.5042 38.6415 20.4577 38.6415 20.3646C38.6415 20.318 38.5945 20.2249 38.5945 20.1318L37.7966 20.4577L37.8905 20.5508ZM39.3924 19.4336L39.4393 19.5267L39.674 19.9922C39.674 20.0387 39.7209 20.0853 39.7209 20.1318C39.7209 20.1784 39.7209 20.2249 39.7209 20.2715C39.7209 20.318 39.674 20.3646 39.674 20.4111C39.6271 20.4577 39.5801 20.5042 39.5332 20.5042C39.4863 20.5042 39.4393 20.5508 39.3924 20.5508C39.3455 20.5508 39.2985 20.5508 39.2516 20.5508C39.2047 20.5508 39.1577 20.5042 39.1108 20.5042C39.0639 20.4577 39.0169 20.4577 39.0169 20.4111C39.0169 20.4577 39.0169 20.5042 39.0169 20.5508C39.0169 20.5973 39.0169 20.6439 39.0169 20.6904C39.0169 20.737 38.97 20.7835 38.9231 20.8301C38.8761 20.8766 38.8292 20.9232 38.7353 20.9232C38.6414 20.9698 38.5476 20.9697 38.5006 20.9697C38.4068 20.9697 38.3598 20.9698 38.3129 20.9232C38.266 20.8766 38.219 20.8766 38.1721 20.8301C38.1252 20.7835 38.0782 20.737 38.0782 20.6904L38.0313 20.5973L37.8436 20.1784L39.3924 19.4336Z" fill="#FF4E0E"/>
<path d="M39.4862 21.8548C39.3454 21.9014 39.2046 21.9479 39.1108 21.9945C39.0169 22.041 38.923 22.1341 38.8761 22.2272C38.8292 22.3203 38.7822 22.3669 38.7822 22.46C38.7822 22.5531 38.7822 22.5996 38.7822 22.6927C38.8292 22.7858 38.8761 22.8324 38.923 22.8789C38.97 22.9255 39.0638 22.972 39.1577 23.0186C39.2516 23.0651 39.3454 23.0651 39.4862 23.0651C39.627 23.0651 39.7209 23.0651 39.8617 23.0186C39.9556 22.972 40.0964 22.9255 40.1903 22.8789C40.2841 22.8324 40.3311 22.7393 40.4249 22.6462C40.4719 22.5531 40.5188 22.5065 40.5188 22.4134C40.5188 22.3203 40.5188 22.2272 40.5188 22.1807C40.4719 22.0876 40.4719 22.041 40.378 21.9945C40.3311 21.9479 40.2841 21.9014 40.1903 21.9014C40.0964 21.9014 40.0494 21.8548 39.9556 21.8548C39.8617 21.8548 39.8148 21.8548 39.7209 21.8548C39.674 21.8548 39.674 21.8548 39.627 21.8548H39.5801H39.4862ZM39.3924 21.529C39.3924 21.529 39.4393 21.529 39.3924 21.529C39.4393 21.529 39.4393 21.529 39.3924 21.529C39.4393 21.529 39.4393 21.529 39.4862 21.529C39.5801 21.4824 39.7209 21.4824 39.8148 21.4824C39.9086 21.4824 40.0494 21.529 40.1433 21.5755C40.2372 21.6221 40.3311 21.6686 40.4249 21.7617C40.5188 21.8548 40.5657 21.9479 40.6127 22.0876L40.6596 22.1807C40.7065 22.3203 40.7065 22.46 40.7065 22.5531C40.7065 22.6462 40.6596 22.7393 40.6127 22.8324C40.5657 22.9255 40.5188 22.972 40.4249 23.0651C40.378 23.1117 40.2841 23.1582 40.1903 23.2048C40.1903 23.2048 40.1902 23.2048 40.1433 23.2048C40.1433 23.2048 40.1433 23.2048 40.0964 23.2048C40.0964 23.2048 40.0964 23.2048 40.0494 23.2048C40.0494 23.2048 40.0494 23.2048 40.0025 23.2048C40.0025 23.2048 39.9556 23.2048 39.9556 23.2513H39.9086C39.7678 23.2979 39.627 23.3444 39.4862 23.2979C39.3454 23.2979 39.2516 23.2513 39.1108 23.2048C39.0169 23.1582 38.923 23.0651 38.8292 22.972C38.7822 22.972 38.7353 22.8789 38.7353 22.7858L38.6884 22.6927V22.6462V22.5996V22.5531V22.5065C38.6884 22.4134 38.6884 22.3669 38.7353 22.2738C38.7822 22.1807 38.7822 22.0876 38.8761 22.041C38.923 21.9479 39.0169 21.9014 39.1108 21.8083C39.1108 21.6221 39.2516 21.5755 39.3924 21.529Z" fill="#FF4E0E"/>
<path d="M40.3308 24.4613C40.3308 24.5544 40.3777 24.6009 40.3777 24.6475C40.3777 24.694 40.4246 24.7406 40.4716 24.7406C40.5185 24.7871 40.5185 24.7871 40.5654 24.8337C40.6124 24.8337 40.6124 24.8802 40.6593 24.8802H40.7063H40.7532H40.8001H40.8471C40.8471 24.8802 40.8471 24.8802 40.894 24.8802C40.894 24.8802 40.894 24.8802 40.9409 24.8802H40.9879C40.9879 24.8802 41.0348 24.8802 41.0348 24.8337L41.0817 24.7871C41.0817 24.7406 41.1287 24.7406 41.1287 24.694C41.1287 24.6475 41.1287 24.6475 41.1756 24.6009C41.1756 24.5544 41.1756 24.5078 41.1756 24.4613V24.3682L40.3308 24.4613ZM41.1756 23.9492V24.0423L41.3164 24.6009C41.3164 24.694 41.3164 24.7406 41.3164 24.7871C41.3164 24.8337 41.2695 24.8802 41.2695 24.9268C41.2225 24.9733 41.1756 25.0199 41.1287 25.0199C41.0817 25.0664 41.0348 25.0664 40.9409 25.0664C40.894 25.0664 40.8001 25.0664 40.7532 25.0664C40.7063 25.0664 40.6593 25.0664 40.6124 25.0199C40.5654 25.0199 40.5185 24.9733 40.5185 24.9268C40.4716 24.8802 40.4716 24.8802 40.4246 24.8337C40.4246 24.8337 40.4246 24.7871 40.3777 24.7871C40.3777 24.7871 40.3777 24.7406 40.3308 24.7406V24.694V24.6475L39.5329 25.4388V25.3457C39.5329 25.3457 39.5329 25.3457 39.5329 25.2992C39.5329 25.2992 39.5329 25.2992 39.5329 25.2526V25.1595L40.2838 24.4147L39.3921 24.6009V24.5078C39.3921 24.5078 39.3921 24.5078 39.3921 24.4613C39.3921 24.4613 39.3921 24.4613 39.3921 24.4147V24.3216L41.1756 23.9492Z" fill="#FF4E0E"/>
<path d="M39.4865 46.8037C39.2977 46.9909 39.6753 46.6633 39.4865 46.8037V46.8037Z" fill="#FF4E0E"/>
<path d="M38.5003 30.3272C38.5003 30.1875 38.9228 30.0479 39.0636 29.9548C39.2044 30.141 39.3452 30.1875 39.3452 30.4203C39.3452 30.5134 38.8758 30.7927 38.8758 30.7927C38.782 30.7927 38.5003 30.3737 38.5003 30.3272ZM30.7093 36.6115L30.4277 36.146L37.7494 30.8858L38.031 31.3513L30.7093 36.6115ZM33.9008 42.8026C33.5253 44.525 31.6479 46.4335 31.6479 46.4335L28.785 42.9423L28.2687 43.3612V42.3837L33.6192 42.2906L31.2725 39.4976L28.0809 39.5441L27.7993 32.3754L23.1528 32.4219L23.2467 39.6372L20.0082 39.6838L17.7554 42.6164L23.3875 42.5233L23.3406 43.4543L22.7774 43.0819L20.1021 46.6663C20.1021 46.6663 20.1491 46.899 18.788 45.2698C17.4269 43.6405 16.9106 40.9872 17.0514 39.1717C17.1922 37.3563 18.3655 35.4012 18.3655 35.4012L20.6653 37.0304L21.1816 36.2391L18.8349 34.6098C18.8349 34.6098 20.4776 32.6081 22.4958 31.9564C23.2936 31.7237 25.4996 30.9323 28.2687 31.8633C31.0378 32.7943 32.1642 34.5167 32.1642 34.5167L30.0991 36.0063L30.6623 36.7977L32.7744 35.2615C32.7744 35.2615 33.8539 36.7046 34.0885 38.3804C34.464 40.8941 34.2763 41.0803 33.9008 42.8026ZM30.897 47.0387L29.1135 44.8508L29.5359 44.525L31.3663 46.6663L30.897 47.0387ZM29.2074 48.0628C28.4564 48.3421 27.7055 48.5749 27.7055 48.5749L27.5647 44.0129H28.0809L30.6623 47.2715C30.6154 47.2715 29.9114 47.737 29.2074 48.0628ZM26.7198 48.7611L26.6729 45.8749H27.2361L27.33 48.668L26.7198 48.7611ZM25.922 42.5233H27.7993V43.5474H25.922V42.5233ZM25.4996 48.8076V48.3421H26.4382V48.7145L25.4996 48.8076ZM24.6078 48.7145L24.5609 45.968L25.1241 45.9215L25.171 48.8076L24.6078 48.7145ZM26.2036 45.8749H25.5934V44.0595H26.2036V45.8749ZM25.3118 39.1717H24.1385V37.9614H25.3118V39.1717ZM25.6404 34.5167C25.6404 34.5167 26.4382 34.6098 26.3913 35.215C26.3444 35.8667 25.6404 35.9132 25.6404 35.9132V34.5167ZM25.6873 36.0063V37.2632H24.0915L23.9977 33.3064H25.6404L25.6873 34.4236C25.6873 34.4236 24.8894 34.5633 24.9363 35.1684C24.9363 35.8201 25.6873 36.0063 25.6873 36.0063ZM18.8349 42.1509L20.3368 40.2424L25.8281 40.1027L25.7342 37.3097L27.3769 37.2166L27.2831 33.2599H25.6873V32.8409H27.5177L27.7993 40.1027L25.875 40.1493V42.1044L18.8349 42.1509ZM22.4488 48.1559C21.6979 47.8766 21.1816 47.5042 21.1816 47.5042L23.6691 44.106H24.1854L24.2323 48.668C24.2323 48.668 23.1998 48.4818 22.4488 48.1559ZM20.8531 47.318L20.3837 46.9921L22.1203 44.6181L22.6366 44.9439L20.8531 47.318ZM12.9681 31.3513L13.2966 30.8858L20.9939 36.3322L20.6184 36.7977L12.9681 31.3513ZM12.1233 30.7927C12.1233 30.7927 11.7009 30.5599 11.607 30.5134L11.9356 29.9548L12.4988 30.2806C12.4518 30.4203 12.2641 30.7927 12.1233 30.7927ZM39.0636 31.072C39.0636 30.9323 39.6268 30.6065 39.7206 30.4203L39.1105 29.5824L38.2657 30.0479C37.6555 29.6755 35.3558 27.2549 34.3232 27.7204C34.6987 28.2324 37.4209 30.0479 37.4209 30.653C37.4209 31.2116 34.1824 32.4685 33.5722 32.8874L32.6336 32.0495L33.6192 30.2806C33.4784 30.141 32.6336 29.4427 32.4458 29.4427C32.2112 29.4427 31.1786 30.6996 30.9909 30.9323L29.7706 30.3272L30.146 28.2324C29.7706 28.1393 29.1135 27.86 28.785 27.86C28.5972 27.86 27.8463 29.4427 27.7055 29.722L26.4852 29.4893C26.3913 29.1169 26.3444 27.3945 25.922 27.3945H24.6547L24.3262 29.4893L23.012 29.6755C22.9651 29.4427 22.2142 27.86 22.0734 27.86C21.7448 27.86 21.0877 28.1393 20.7123 28.2324L21.0877 30.3737L19.8674 30.9323C19.7266 30.6996 18.5533 29.4427 18.3186 29.4427C18.3186 29.4427 17.2391 30.141 17.2391 30.2806C17.2391 30.4203 18.0839 31.8168 18.1778 32.0495L17.2391 32.9806C16.582 32.6547 13.4844 31.3047 13.4844 30.653C13.4844 30.4668 16.1127 28.0928 16.5351 27.9997C16.2535 26.929 12.5457 30.141 12.4988 30.141C12.358 30.141 12.0764 29.7686 11.8417 29.7686C11.7009 29.7686 11.2315 30.3737 11.1846 30.5134C11.3723 30.7461 11.8417 31.0254 11.8417 31.1651C11.8417 31.3513 10.5745 33.3995 10.5745 34.6564V35.3081H10.8561C10.9499 34.3771 12.2172 32.2823 12.6865 31.6306C13.1558 31.9564 14.6108 32.6547 14.5169 33.2133L16.0188 34.5633L15.4556 35.727L13.3436 35.3081C13.2497 35.6805 12.9681 36.2856 12.9681 36.6115C12.9681 36.7977 14.6577 37.4959 14.8924 37.6356L14.6577 38.8459L12.4518 39.1252V40.2889C12.4518 40.7079 14.2353 40.801 14.6577 40.8475L14.7985 42.0578C14.5639 42.1975 12.9212 42.8957 12.9212 43.0819C12.9212 43.4078 13.2028 44.0129 13.2966 44.3853L15.5026 44.0129C15.5964 44.3853 15.9719 44.8974 15.9719 45.1301C15.9719 45.2232 14.7047 46.3404 14.5169 46.6197L15.3148 47.737L17.1922 46.7594L18.1309 47.5973C18.037 47.7835 17.1922 49.3197 17.1922 49.4128C17.1922 49.5524 18.1778 50.1576 18.3655 50.2507L19.8674 48.7611L21.0408 49.3662L20.6653 51.461L22.1203 51.8799L23.012 50.0179L24.3262 50.2041L24.6547 52.2058H26.2036L26.5321 50.1576L27.8463 49.9714L28.6911 51.8334L30.146 51.4144L29.7706 49.3197L30.9439 48.7611L32.4458 50.2507C32.6336 50.111 33.6192 49.5059 33.6192 49.4128C33.6192 49.1335 32.6805 47.8301 32.6805 47.5508C32.6805 47.4576 33.4784 46.7128 33.5253 46.7128C33.9477 46.7128 35.0272 47.5042 35.5435 47.6439L36.3414 46.5266L34.8395 45.0836L35.4496 44.0129L37.6086 44.2922L38.031 42.9888L36.0598 42.0578L36.2475 40.8475C36.6699 40.7544 38.4534 40.7544 38.4534 40.2889V39.0786L36.2475 38.7993L36.0598 37.4959C36.2944 37.4494 37.9841 36.7511 37.9841 36.5649C37.9841 36.2391 37.7025 35.6339 37.6086 35.2615L35.4027 35.6339L34.7925 34.4236C35.8251 33.7719 37.1393 31.8168 38.3595 31.584L40.2838 35.3081L40.3777 35.2615V34.6098C40.3308 33.1668 39.0636 31.3513 39.0636 31.072Z" fill="#FF4E0E"/>
<path d="M27.0484 38.6133C26.9076 38.6133 26.8137 38.7064 26.8137 38.846C26.8137 38.9857 26.9076 39.0788 27.0484 39.0788C27.1892 39.0788 27.2831 38.9857 27.2831 38.846C27.2831 38.7064 27.1892 38.6133 27.0484 38.6133Z" fill="#FF4E0E"/>
<path d="M27.0017 38.3327C27.1425 38.3327 27.2364 38.2396 27.2364 38.0999C27.2364 37.9603 27.1425 37.8672 27.0017 37.8672C26.8609 37.8672 26.767 37.9603 26.767 38.0999C26.7201 38.2396 26.8609 38.3327 27.0017 38.3327Z" fill="#FF4E0E"/>
<path d="M26.3914 38.6602C26.2506 38.6602 26.1567 38.7533 26.1567 38.8929C26.1567 39.0326 26.2506 39.1257 26.3914 39.1257C26.5322 39.1257 26.6261 39.0326 26.6261 38.8929C26.6261 38.7533 26.5322 38.6602 26.3914 38.6602Z" fill="#FF4E0E"/>
<path d="M26.3447 38.3327C26.4855 38.3327 26.5793 38.2396 26.5793 38.0999C26.5793 37.9603 26.4855 37.8672 26.3447 37.8672C26.2039 37.8672 26.11 37.9603 26.11 38.0999C26.11 38.2396 26.2508 38.3327 26.3447 38.3327Z" fill="#FF4E0E"/>
<path d="M30.5217 25.2547C30.5217 25.2547 27.471 24.4168 25.1712 24.3703C21.6511 24.3237 20.1023 25.1616 20.1023 25.1616C20.1023 25.1616 20.5716 23.3462 21.1818 22.0428C21.8389 20.6928 22.449 19.8083 22.449 19.8083L22.5898 19.7618L22.8245 19.4825C22.8245 19.4825 22.0266 19.3894 21.5103 19.2497C20.994 19.1101 20.7594 19.017 20.7594 19.017C20.7594 19.017 21.6042 17.6205 21.2287 17.1084C20.9471 16.736 17.474 11.8017 23.7162 9.56731C24.9365 9.14836 26.4384 9.89316 26.4384 9.89316C26.4384 9.89316 23.5285 9.47421 22.7775 11.9414C22.1205 14.0361 23.0592 15.8516 23.0592 15.8516L24.1386 15.1533C24.1386 15.1533 23.6224 12.8258 23.9509 12.0345C25.0304 9.33456 27.9873 10.4983 28.8321 11.2431C29.5361 11.8483 30.7094 13.3379 30.7094 13.3379C30.7094 13.3379 30.0524 13.2913 29.2545 13.3379C28.5505 13.3844 27.6587 13.5706 27.0016 13.943C25.5936 14.7809 25.7344 15.0137 25.7344 15.0137C25.7344 15.0137 25.7813 16.224 26.1568 17.1084C26.5323 17.9929 26.9078 18.4584 26.9078 18.4584C26.9078 18.4584 25.6875 19.2963 24.7019 19.3894C24.0448 19.4825 23.153 19.4825 23.153 19.4825L22.8245 20.0876C22.8245 20.0876 24.6549 21.9962 26.1568 22.9272C27.6587 23.8582 27.3302 23.6255 27.3302 23.6255C27.3302 23.6255 26.767 22.1824 26.9547 21.0187C27.1424 19.8549 27.5179 19.1566 27.5179 19.1566C27.5179 19.1566 29.6769 19.9014 29.583 18.8308C29.5361 18.3653 29.3953 18.5515 29.5361 18.2722C29.6769 18.0394 29.583 17.8998 29.4891 17.8532L29.3483 17.8067L29.3014 17.7136C29.3014 17.7136 29.583 17.7601 29.6769 17.667C29.7708 17.5739 29.7708 17.2946 29.7238 17.1084C29.6769 16.9222 29.6769 16.8291 29.9116 16.8291C30.1462 16.8291 30.8502 16.9222 30.5217 16.3636C30.1932 15.805 30.0524 15.805 29.9116 15.4792C29.8177 15.1999 29.6769 15.3395 29.6769 15.0137C29.6769 15.0137 29.7238 14.5947 29.6299 14.4085C29.5361 14.2223 28.9729 13.2913 28.9729 13.2913L29.2075 13.2448C29.2075 13.2448 29.583 13.8499 29.7708 14.1758C30.1462 14.8275 29.8177 14.9206 29.9116 15.0137C30.0054 15.1068 30.5217 15.8516 30.6625 16.1309C30.7564 16.4102 31.038 16.736 30.7564 16.8291C30.5217 16.8757 30.0524 16.8291 30.0054 16.9688C29.9585 17.155 30.0993 17.2946 30.0524 17.5274C29.9585 17.7601 29.9116 17.8067 29.9116 17.8998C29.9116 17.9929 29.7708 18.2256 29.7708 18.5049C29.7708 18.7842 29.9116 19.2963 29.3953 19.4825C29.1606 19.5756 28.5974 19.4825 28.2219 19.4825C27.8464 19.4825 27.5648 19.3428 27.5648 19.529C27.5179 19.7152 27.0955 20.5997 27.1424 21.3445C27.1424 22.0893 27.5179 23.4393 27.6587 23.6255C27.8934 23.9979 30.5217 25.2547 30.5217 25.2547Z" fill="#FF4E0E"/>
<path d="M27.7057 14.9658C27.7057 14.9658 27.9873 15.0124 28.2689 14.7796C28.5974 14.5469 28.9729 14.5934 29.1137 14.6865C29.2545 14.7796 29.4423 14.7796 29.5361 14.7331C29.5831 14.6865 29.5361 14.2676 28.9729 14.2676C28.3628 14.2676 28.4097 14.4538 28.1281 14.64C27.8465 14.8262 27.7057 14.9658 27.7057 14.9658Z" fill="#FF4E0E"/>
<path d="M29.2074 14.7797C29.2544 14.6866 29.3952 14.7797 29.3482 14.9193C29.3013 15.059 29.1605 15.1055 29.1605 15.1521C29.1605 15.1986 29.3013 15.4314 29.1605 15.4779C29.0197 15.571 28.8789 15.4779 28.8789 15.3383C28.8789 15.1986 28.6912 15.2452 28.6442 15.3383C28.5973 15.4314 28.5504 15.5245 28.5034 15.5245C28.4096 15.5245 28.4565 15.1055 28.5973 15.059C28.785 15.059 29.0666 14.9659 29.2074 14.7797Z" fill="#FF4E0E"/>
</svg>
