<?xml version="1.0" encoding="utf-8"?>
<!-- Generator: Adobe Illustrator 18.0.0, SVG Export Plug-In . SVG Version: 6.00 Build 0)  -->
<!DOCTYPE svg PUBLIC "-//W3C//DTD SVG 1.1//EN" "http://www.w3.org/Graphics/SVG/1.1/DTD/svg11.dtd">
<svg version="1.1" id="Capa_1" xmlns="http://www.w3.org/2000/svg" xmlns:xlink="http://www.w3.org/1999/xlink" x="0px" y="0px"
	 viewBox="0 0 38 38" enable-background="new 0 0 38 38" xml:space="preserve">
<g>
	<path fill="#53565A" d="M23.4,21.4c-0.1-0.2,0-0.3,0.1-0.4l3.1-2.3c0.5-0.4,0.7-1,0.5-1.6c-0.2-0.6-0.7-1-1.3-1l-3.9,0
		c-0.2,0-0.3-0.1-0.4-0.3l-1.2-3.7c-0.2-0.6-0.7-1-1.3-1c-0.6,0-1.1,0.4-1.3,1l-0.5,1.7c-0.1,0.3,0.1,0.5,0.3,0.6
		c0.3,0.1,0.5-0.1,0.6-0.3l0.5-1.7c0.1-0.3,0.3-0.3,0.4-0.3c0.1,0,0.3,0,0.4,0.3l1.2,3.7c0.2,0.6,0.7,1,1.3,1l3.9,0
		c0.3,0,0.4,0.2,0.4,0.3c0,0.1,0.1,0.3-0.1,0.5l-3.1,2.3c-0.5,0.4-0.7,1-0.5,1.6l1.2,3.7c0.1,0.3-0.1,0.4-0.1,0.5
		c-0.1,0-0.3,0.2-0.5,0l-3.2-2.3c-0.5-0.4-1.2-0.4-1.6,0L15,25.8c-0.2,0.2-0.4,0-0.5,0c-0.1,0-0.2-0.2-0.1-0.4l1.2-3.7
		c0.2-0.6,0-1.2-0.5-1.6l-3.1-2.3c-0.2-0.2-0.2-0.4-0.1-0.5c0-0.1,0.1-0.3,0.4-0.3l3.9,0c0.3,0,0.5-0.2,0.5-0.5
		c0-0.3-0.2-0.5-0.5-0.5h0l-3.9,0c-0.6,0-1.1,0.4-1.3,1c-0.2,0.6,0,1.2,0.5,1.6l3.1,2.3c0.1,0.1,0.2,0.3,0.1,0.4l-1.2,3.7
		c-0.2,0.6,0,1.2,0.5,1.6c0.3,0.2,0.5,0.3,0.8,0.3c0.3,0,0.6-0.1,0.8-0.3l3.2-2.3c0.1-0.1,0.3-0.1,0.5,0l3.2,2.3
		c0.5,0.4,1.2,0.4,1.7,0c0.5-0.4,0.7-1,0.5-1.6L23.4,21.4z M23.4,21.4"/>
	<path fill="#53565A" d="M19,6.6C12.2,6.6,6.6,12.2,6.6,19c0,6.8,5.5,12.4,12.4,12.4c0.3,0,0.5-0.2,0.5-0.5c0-0.3-0.2-0.5-0.5-0.5
		c-6.3,0-11.3-5.1-11.3-11.3c0-6.3,5.1-11.3,11.3-11.3c6.3,0,11.3,5.1,11.3,11.3c0,3.9-2,7.5-5.3,9.6c-0.2,0.2-0.3,0.5-0.2,0.7
		c0.1,0.2,0.5,0.3,0.7,0.2c3.6-2.3,5.7-6.2,5.7-10.4C31.4,12.2,25.8,6.6,19,6.6L19,6.6z M19,6.6"/>
</g>
</svg>
