<?xml version="1.0" encoding="utf-8"?>
<!-- Generator: Adobe Illustrator 18.0.0, SVG Export Plug-In . SVG Version: 6.00 Build 0)  -->
<!DOCTYPE svg PUBLIC "-//W3C//DTD SVG 1.1//EN" "http://www.w3.org/Graphics/SVG/1.1/DTD/svg11.dtd">
<svg version="1.1" id="Capa_1" xmlns="http://www.w3.org/2000/svg" xmlns:xlink="http://www.w3.org/1999/xlink" x="0px" y="0px"
	 viewBox="0 0 38 38" enable-background="new 0 0 38 38" xml:space="preserve">
<g>
	<g>
		<g>
			<path fill="#51555A" d="M23.9,13.5C23.9,13.5,23.9,13.5,23.9,13.5l-9.8-0.7c-0.2,0-0.4-0.2-0.4-0.4v-2.2c0-0.2,0.2-0.4,0.4-0.4
				L23.9,9c0.1,0,0.2,0,0.3,0.1l1.9,1.9c0.2,0.2,0.1,0.4,0,0.5l-1.9,1.8C24.1,13.5,24,13.5,23.9,13.5z M14.6,12l9.2,0.7l1.5-1.4
				l-1.5-1.5l-9.2,0.7V12z"/>
		</g>
		<g>
			<path fill="#51555A" d="M23.9,22.1C23.9,22.1,23.9,22.1,23.9,22.1l-9.8-0.7c-0.2,0-0.4-0.2-0.4-0.4v-2.2c0-0.2,0.2-0.4,0.4-0.4
				l9.8-0.7c0.1,0,0.2,0,0.3,0.1l1.9,1.9c0.2,0.2,0.1,0.4,0,0.5L24.2,22C24.1,22.1,24,22.1,23.9,22.1z M14.6,20.6l9.2,0.7l1.5-1.4
				l-1.5-1.5l-9.2,0.7V20.6z"/>
		</g>
		<g>
			<path fill="#51555A" d="M14,17.6c-0.1,0-0.2,0-0.3-0.1l-1.8-1.8c-0.2-0.2-0.2-0.4,0-0.6l1.9-1.9c0.1-0.1,0.2-0.1,0.3-0.1l9.8,1
				c0.2,0,0.4,0.2,0.3,0.4l-0.1,2.2c0,0.2-0.2,0.4-0.4,0.4L14,17.6C14.1,17.6,14,17.6,14,17.6z M12.8,15.4l1.4,1.4l9.2-0.5l0.1-1.5
				l-9.2-0.9L12.8,15.4z"/>
		</g>
	</g>
	<g>
		<g>
			<polygon fill="#51555A" points="20.3,16.9 18.9,17 18.9,18.4 20.3,18.3 			"/>
		</g>
		<g>
			<path fill="#51555A" d="M20.3,8.7C20.3,8.3,20,8,19.6,8c-0.4,0-0.7,0.3-0.7,0.7v1.1l1.5-0.1V8.7z"/>
		</g>
		<g>
			<polygon fill="#51555A" points="20.3,12.8 18.9,12.7 18.9,14 20.3,14.1 			"/>
		</g>
		<g>
			<path fill="#51555A" d="M18.9,29.3c0,0.4,0.3,0.7,0.7,0.7c0.4,0,0.7-0.3,0.7-0.7v-7.9l-1.5-0.1V29.3z"/>
		</g>
	</g>
</g>
</svg>
