<?xml version="1.0" encoding="utf-8"?>
<!-- Generator: Adobe Illustrator 18.0.0, SVG Export Plug-In . SVG Version: 6.00 Build 0)  -->
<!DOCTYPE svg PUBLIC "-//W3C//DTD SVG 1.1//EN" "http://www.w3.org/Graphics/SVG/1.1/DTD/svg11.dtd">
<svg version="1.1" id="Capa_1" xmlns="http://www.w3.org/2000/svg" xmlns:xlink="http://www.w3.org/1999/xlink" x="0px" y="0px"
	 viewBox="0 0 38 38" enable-background="new 0 0 38 38" xml:space="preserve">
<g>
	<path fill="#51555A" d="M18,27.2l-4.3-1.5c-0.1,0-0.2-0.1-0.3-0.1c-0.4,0-0.8,0.3-0.9,0.7c-0.2,0.5,0.1,1.1,0.6,1.2l4.3,1.5
		c0.1,0,0.2,0.1,0.3,0.1c0.4,0,0.8-0.3,0.9-0.7C18.8,27.9,18.5,27.3,18,27.2z M18,28.2c-0.1,0.2-0.2,0.2-0.4,0.2l-4.3-1.5
		c-0.2-0.1-0.3-0.2-0.2-0.4c0-0.1,0.2-0.2,0.3-0.2c0,0,0.1,0,0.1,0l4.3,1.5C18,27.9,18,28,18,28.2z"/>
	<path fill="#51555A" d="M12.3,27.7c-0.3,0.8,0.1,1.7,0.8,2.2c0,0.7,0.4,1.3,1,1.5c0.2,0.1,0.3,0.1,0.5,0.1c0.5,0,0.9-0.2,1.2-0.6
		c0.9,0.1,1.7-0.4,2-1.2l0.1-0.3l-5.6-1.9L12.3,27.7z M15.8,30.1l-0.1,0l-2-0.7l-0.1-0.1c-0.5-0.2-0.7-0.7-0.7-1.1l4.2,1.5
		C16.8,30.1,16.2,30.3,15.8,30.1z M13.8,30l1.5,0.5c-0.2,0.2-0.6,0.3-0.9,0.2C14,30.6,13.8,30.3,13.8,30z"/>
	<path fill="#51555A" d="M24.8,14.8c-0.8-1.6-2.1-2.8-3.7-3.3c-0.7-0.2-1.4-0.4-2.2-0.4c-2.8,0-5.3,1.8-6.2,4.4
		c-0.5,1.4-0.5,2.9,0,4.3c0.4,1.1,0.7,2.2,0.9,3.3l-0.8,2.2l6,2.1l0.7-2.1c0.9-0.7,2-1.5,2.8-2.1c1.3-0.8,2.2-2,2.7-3.4
		C25.7,18.2,25.6,16.4,24.8,14.8z M16.3,20.5l0.9-0.2L17,22l1.3-1.5l0,1.1l0.9-0.1l-2.6,4.3l-1-0.3L16.3,20.5z M17.2,26.1l2.8-4.6h0
		v0l0.7-1.1L20.2,20l-0.6,1L18.9,21v-2l-1.2,1.3l0.1-0.9l-1.4,0.4l0.1-1.2l-0.7-0.1l-0.8,6.6l-1.2-0.4l0.6-1.7l0-0.1
		c-0.2-1.2-0.6-2.4-0.9-3.5c-0.4-1.3-0.4-2.6,0-3.8c0.8-2.4,3.1-3.9,5.6-3.9c0.7,0,1.3,0.1,1.9,0.3c1.5,0.5,2.7,1.6,3.4,3
		c0.7,1.4,0.8,3,0.3,4.5c-0.4,1.3-1.3,2.3-2.4,3c-0.9,0.6-2,1.4-3,2.2L19,24.8l-0.6,1.7L17.2,26.1z"/>
	<path fill="#51555A" d="M21.7,10.5C21.7,10.5,21.7,10.5,21.7,10.5c0.2,0,0.3-0.1,0.4-0.2L23,7.6c0-0.1,0-0.2,0-0.2
		c0-0.1-0.1-0.1-0.2-0.2c-0.2-0.1-0.3,0-0.4,0.2l-0.9,2.7C21.4,10.3,21.5,10.5,21.7,10.5z"/>
	<path fill="#51555A" d="M25.4,13c0,0,0.1,0,0.1,0c0.1,0,0.1,0,0.2-0.1l2.2-1.8c0.1-0.1,0.1-0.3,0-0.4c-0.1-0.1-0.3-0.1-0.4,0
		l-2.2,1.8c-0.1,0.1-0.2,0.3,0,0.4C25.3,12.9,25.4,13,25.4,13z"/>
	<path fill="#51555A" d="M29.8,16.1l-2.9,0.4c-0.2,0-0.3,0.2-0.3,0.3c0,0.1,0.1,0.2,0.2,0.2c0,0,0.1,0,0.1,0l2.9-0.4
		c0.1,0,0.2-0.1,0.2-0.1c0.1-0.1,0.1-0.1,0.1-0.2C30.1,16.2,29.9,16.1,29.8,16.1z M27,17L27,17L27,17L27,17z"/>
	<path fill="#51555A" d="M26.6,20.5c-0.2-0.1-0.3,0-0.4,0.2c-0.1,0.2,0,0.3,0.2,0.4l2.6,1.1l0,0c0,0,0.1,0,0.1,0
		c0.1,0,0.2-0.1,0.3-0.2c0-0.1,0-0.2,0-0.2c0-0.1-0.1-0.1-0.2-0.2L26.6,20.5z"/>
	<path fill="#51555A" d="M24,24.2c-0.1-0.1-0.3-0.2-0.4-0.1c-0.1,0.1-0.2,0.3-0.1,0.4l1.7,2.3c0,0.1,0.1,0.1,0.2,0.1
		c0,0,0.1,0,0.1,0c0.1,0,0.1,0,0.2-0.1c0.1,0,0.1-0.1,0.1-0.2c0-0.1,0-0.2-0.1-0.2L24,24.2z"/>
	<path fill="#51555A" d="M16.8,9.9c0,0,0.1,0,0.1,0l0.1,0c0.2,0,0.3-0.2,0.2-0.4l-0.6-2.8c0-0.1-0.2-0.2-0.3-0.2l-0.1,0
		c-0.2,0-0.3,0.2-0.2,0.4l0.6,2.8C16.6,9.8,16.7,9.9,16.8,9.9z M16.9,9.8L16.9,9.8L16.9,9.8L16.9,9.8z"/>
	<path fill="#51555A" d="M13,12.2c0,0,0.1,0.1,0.1,0.1c0,0,0.1,0,0.1,0c0.1,0,0.2,0,0.2-0.1c0.1-0.1,0.1-0.1,0.1-0.2
		c0-0.1,0-0.2-0.1-0.2l-1.9-2.1c-0.1-0.1-0.3-0.1-0.4,0c-0.1,0.1-0.1,0.3,0,0.4L13,12.2z"/>
	<path fill="#51555A" d="M11.2,15.1l-2.7-0.8c-0.2,0-0.3,0.1-0.4,0.2c0,0.2,0,0.3,0.2,0.4l2.7,0.8c0,0,0.1,0,0.1,0
		c0.1,0,0.3-0.1,0.3-0.2C11.5,15.3,11.4,15.2,11.2,15.1z"/>
	<path fill="#51555A" d="M10.9,19.6l-2.7,0.8c-0.2,0-0.3,0.2-0.2,0.4c0,0.1,0.1,0.2,0.2,0.2c0,0,0.1,0,0.1,0c0,0,0.1,0,0.1,0
		l2.7-0.8c0.2,0,0.3-0.2,0.2-0.4C11.2,19.6,11,19.5,10.9,19.6z"/>
</g>
</svg>
