<?xml version="1.0" encoding="utf-8"?>
<!-- Generator: Adobe Illustrator 18.0.0, SVG Export Plug-In . SVG Version: 6.00 Build 0)  -->
<!DOCTYPE svg PUBLIC "-//W3C//DTD SVG 1.1//EN" "http://www.w3.org/Graphics/SVG/1.1/DTD/svg11.dtd">
<svg version="1.1" id="Capa_1" xmlns="http://www.w3.org/2000/svg" xmlns:xlink="http://www.w3.org/1999/xlink" x="0px" y="0px"
	 viewBox="0 0 157.3 215.3" enable-background="new 0 0 157.3 215.3" xml:space="preserve">
<g>
	<g>
		<g>
			<path fill="#009EE2" d="M9,164.8c-2.3-1.8-4.1-4.3-5.3-7.6c-1.2-3.3-1.9-7.2-1.9-11.7c0-5.3,0.6-10.2,1.9-14.9l10.3,2.5
				c-0.3,1.5-0.6,3.1-0.8,4.9c-0.2,1.8-0.4,4-0.6,6.7l-0.1,1.4c0,7.8,1.6,11.7,4.8,11.7c3.2,0,4.7-3.8,4.7-11.5c0-1.3-0.2-3.3-0.6-6
				c-0.4-2.7-0.9-5.2-1.6-7.6l10.1-2.9c1.7,4.7,2.5,10.2,2.5,16.5c0,4.3-0.6,8-1.9,11.1c-1.2,3.2-3,5.6-5.3,7.3
				c-2.3,1.7-5,2.6-8,2.6C14.1,167.4,11.4,166.6,9,164.8z M12.1,130.5l4.3-6.1l7.4,2.2l-5.1,4.6L12.1,130.5z"/>
			<path fill="#009EE2" d="M52.7,139.7l0.1,27.1l-9.5,0.4L43.3,140l-9.9,0.2l-0.7-9.5l30-0.7l0.8,9.5L52.7,139.7z"/>
			<path fill="#009EE2" d="M64.9,130.7h9.3L73.9,167h-9.3L64.9,130.7z"/>
			<path fill="#009EE2" d="M98.4,157.5v9.5H76v-36.4h9.5v26.8H98.4z"/>
			<path fill="#009EE2" d="M125.7,156.8v9.5l-25.2,0.6l-1.2-36.3l25.2-0.8l0.7,9.5l-16.1,0.2l0.2,3.8l13.4-0.3l0.5,9.5l-13.3,0.3
				l0.2,4.5L125.7,156.8z"/>
			<path fill="#009EE2" d="M132.9,165.6c-2.6-1.1-4.7-2.6-6.3-4.5l6.4-7.1c1,1.1,2.2,2,3.6,2.7c1.4,0.7,2.8,1,4.2,1
				c1.3,0,2.3-0.2,3.1-0.7c0.8-0.5,1.2-1,1.2-1.7c0-0.6-0.4-1.1-1.1-1.4c-0.8-0.3-1.8-0.4-3-0.4c-2.4,0-4.5-0.5-6.5-1.5
				c-2-1-3.6-2.3-4.8-4.1c-1.2-1.7-1.8-3.7-1.8-5.8c0-2.2,0.6-4.2,1.9-6c1.2-1.8,2.9-3.2,5-4.2s4.4-1.5,6.9-1.5c2.5,0,5,0.5,7.4,1.5
				c2.4,1,4.5,2.4,6.3,4.2l-5.4,7.3c-3-2.2-5.8-3.3-8.5-3.3c-1.2,0-2.2,0.2-3.1,0.6c-0.9,0.4-1.3,0.9-1.3,1.5c0,0.6,0.5,1.1,1.5,1.4
				c1,0.3,2.2,0.5,3.6,0.5c2.5,0,4.8,0.4,6.8,1.2c2,0.8,3.6,2,4.7,3.5c1.1,1.6,1.7,3.5,1.7,5.7c0,2.4-0.7,4.6-2,6.6
				c-1.4,2-3.2,3.6-5.4,4.7c-2.3,1.1-4.7,1.7-7.4,1.7C138.1,167.3,135.5,166.8,132.9,165.6z"/>
			<path fill="#FF5920" d="M48.6,209l-27.2,0l-0.8-8.2c2.2-1,4.6-2.4,7.1-4.2c2.5-1.8,4.6-3.8,6.3-5.8c1.7-2,2.6-3.9,2.6-5.4
				c0-1-0.3-1.8-0.9-2.6c-0.6-0.8-1.3-1.1-2.1-1.1c-1.1,0-2,0.5-2.8,1.6c-0.8,1-1.3,2.2-1.4,3.5l-8.7-1.5c0.1-2.4,0.8-4.6,1.9-6.5
				c1.2-1.9,2.7-3.4,4.7-4.6c2-1.1,4.2-1.7,6.7-1.7c2.5,0,4.6,0.5,6.4,1.6c1.8,1.1,3.3,2.6,4.3,4.5c1,1.9,1.5,4.1,1.5,6.6
				c0,4.9-2.6,10-7.9,15.4l9.2-0.1L48.6,209z"/>
			<path fill="#FF5920" d="M55,206.7c-2.5-1.7-4.6-4-6.1-6.8c-1.5-2.8-2.3-5.9-2.3-9.1c0-3.2,0.8-6.1,2.3-9c1.5-2.8,3.6-5.1,6.1-6.9
				c2.5-1.7,5.2-2.6,8.1-2.6c2.8,0,5.4,0.8,7.9,2.5c2.4,1.7,4.4,3.9,5.8,6.8c1.4,2.8,2.1,5.9,2.1,9.1c0,3.4-0.7,6.5-2.1,9.3
				c-1.4,2.8-3.3,5.1-5.8,6.7c-2.4,1.6-5.1,2.5-7.9,2.5S57.5,208.4,55,206.7z M67.1,196.6c1-1.4,1.5-3.3,1.5-5.8
				c0-2.7-0.5-4.8-1.5-6.4c-1-1.6-2.3-2.3-4-2.3c-1.2,0-2.3,0.4-3.2,1.1c-1,0.7-1.7,1.8-2.2,3.1c-0.5,1.3-0.8,2.8-0.8,4.5
				c0,2.4,0.6,4.3,1.7,5.8c1.1,1.4,2.6,2.1,4.6,2.1C64.7,198.7,66.1,198,67.1,196.6z"/>
			<path fill="#FF5920" d="M106.7,209l-27.2,0l-0.8-8.2c2.2-1,4.6-2.4,7.1-4.2c2.5-1.8,4.6-3.8,6.3-5.8c1.7-2,2.6-3.9,2.6-5.4
				c0-1-0.3-1.8-0.9-2.6c-0.6-0.8-1.3-1.1-2.1-1.1c-1.1,0-2,0.5-2.8,1.6c-0.8,1-1.3,2.2-1.4,3.5l-8.7-1.5c0.1-2.4,0.8-4.6,1.9-6.5
				c1.2-1.9,2.7-3.4,4.7-4.6c2-1.1,4.2-1.7,6.7-1.7c2.5,0,4.6,0.5,6.4,1.6c1.8,1.1,3.3,2.6,4.3,4.5c1,1.9,1.5,4.1,1.5,6.6
				c0,4.9-2.6,10-7.9,15.4l9.2-0.1L106.7,209z"/>
			<path fill="#FF5920" d="M113,206.7c-2.5-1.7-4.6-4-6.1-6.8c-1.5-2.8-2.3-5.9-2.3-9.1c0-3.2,0.8-6.1,2.3-9
				c1.5-2.8,3.6-5.1,6.1-6.9c2.5-1.7,5.2-2.6,8.1-2.6c2.8,0,5.4,0.8,7.9,2.5c2.4,1.7,4.4,3.9,5.8,6.8c1.4,2.8,2.1,5.9,2.1,9.1
				c0,3.4-0.7,6.5-2.1,9.3c-1.4,2.8-3.3,5.1-5.8,6.7c-2.4,1.6-5.1,2.5-7.9,2.5S115.5,208.4,113,206.7z M125.1,196.6
				c1-1.4,1.5-3.3,1.5-5.8c0-2.7-0.5-4.8-1.5-6.4c-1-1.6-2.3-2.3-4-2.3c-1.2,0-2.3,0.4-3.2,1.1c-1,0.7-1.7,1.8-2.2,3.1
				c-0.5,1.3-0.8,2.8-0.8,4.5c0,2.4,0.6,4.3,1.7,5.8c1.1,1.4,2.6,2.1,4.6,2.1C122.8,198.7,124.1,198,125.1,196.6z"/>
		</g>
	</g>
	<g>
		<g>
			<path fill="#009EE2" d="M20.3,116l4.1-11.1c0.3-0.3,0.6-0.5,0.9-0.5h0c0.6,0,0.9,0.4,1.1,1.1l-5.1,13.6c-0.2,0.7-0.5,1-1.1,1h0
				c-0.6,0-1.1-0.6-1.4-1.8c-3.2-8.4-4.8-12.7-4.8-12.9v-0.1c0-0.6,0.4-1,1.1-1.1c0.6,0,1.1,0.6,1.4,1.9L20.3,116z"/>
			<path fill="#009EE2" d="M31.7,104.6c0.7,0,1.1,0.6,1.4,1.7c3.2,8.3,4.8,12.6,4.8,12.8v0.1c0,0.6-0.3,0.9-1,1h-0.1
				c-0.6,0-1.1-0.5-1.3-1.6l-1.7-4.4h-4.2l-2.1,5.6c-0.3,0.2-0.6,0.4-0.8,0.4h-0.1c-0.7-0.1-1-0.5-1-1.1v-0.1l1.4-3.7
				c2.4-6.1,3.6-9.5,3.8-10.2C31,104.8,31.4,104.6,31.7,104.6z M33,112.1l-1.3-3.3l-1.2,3.3H33z"/>
			<path fill="#009EE2" d="M46.9,104.5c1.6,0,3.2,0.5,4.6,1.5c0.2,0.3,0.2,0.5,0.2,0.7v0.1c0,0.6-0.4,1-1.1,1.1h-0.1l-1.4-0.7
				c-0.9-0.3-1.6-0.4-2.2-0.4c-1.8,0-3.3,0.8-4.6,2.5c-0.7,1.1-1,2.2-1,3.2c0,2.1,1,3.8,2.9,5c0.9,0.4,1.7,0.7,2.6,0.7H47
				c1.1,0,2.3-0.4,3.4-1.1h0.4c0.7,0.1,1,0.5,1,1v0.1c0,0.7-1,1.4-2.9,1.9c-0.6,0.2-1.2,0.3-1.8,0.3h-0.2c-2.6,0-4.8-1.2-6.5-3.6
				c-0.8-1.4-1.2-2.8-1.2-4.3c0-2.7,1.2-5,3.7-6.7C44.2,104.9,45.5,104.5,46.9,104.5z"/>
			<path fill="#009EE2" d="M60,104.6c0.7,0,1.1,0.6,1.4,1.7c3.2,8.3,4.8,12.6,4.8,12.8v0.1c0,0.6-0.3,0.9-1,1h-0.1
				c-0.6,0-1.1-0.5-1.3-1.6l-1.7-4.4H58l-2.1,5.6c-0.3,0.2-0.6,0.4-0.8,0.4h-0.1c-0.7-0.1-1-0.5-1-1.1v-0.1l1.4-3.7
				c2.4-6.1,3.6-9.5,3.8-10.2C59.4,104.8,59.7,104.6,60,104.6z M61.3,112.1l-1.3-3.3l-1.2,3.3H61.3z"/>
			<path fill="#009EE2" d="M75.3,104.5c1.6,0,3.2,0.5,4.6,1.5c0.2,0.3,0.2,0.5,0.2,0.7v0.1c0,0.6-0.4,1-1.1,1.1h-0.1l-1.4-0.7
				c-0.9-0.3-1.6-0.4-2.2-0.4c-1.8,0-3.3,0.8-4.6,2.5c-0.7,1.1-1,2.2-1,3.2c0,2.1,1,3.8,2.9,5c0.9,0.4,1.7,0.7,2.6,0.7h0.1
				c1.1,0,2.3-0.4,3.4-1.1h0.4c0.7,0.1,1,0.5,1,1v0.1c0,0.7-1,1.4-2.9,1.9c-0.6,0.2-1.2,0.3-1.8,0.3h-0.2c-2.6,0-4.8-1.2-6.5-3.6
				c-0.8-1.4-1.2-2.8-1.2-4.3c0-2.7,1.2-5,3.7-6.7C72.5,104.9,73.9,104.5,75.3,104.5z"/>
			<path fill="#009EE2" d="M83.9,104.4l0.2,0h1.4l0.2,0c0.7,0.2,1.1,0.5,1.1,1.2c-0.1,0.7-0.5,1.1-1.1,1.1H86v11.4h-0.1
				c0.5,0,0.9,0.4,1,1.1v0.1c-0.1,0.7-0.5,1-1.1,1h-1.9c-0.7-0.1-1-0.5-1-1.1v-0.1c0.1-0.7,0.5-1.1,1-1.1h-0.1v-11.4H84
				c-0.6,0-1-0.4-1.1-1.1v-0.1C82.9,104.9,83.2,104.6,83.9,104.4z"/>
			<path fill="#009EE2" d="M96.9,104.5c2.7,0,4.9,1.2,6.7,3.7c0.8,1.4,1.2,2.8,1.2,4.2c0,2.6-1.2,4.8-3.6,6.5
				c-1.3,0.9-2.8,1.3-4.2,1.3h-0.2c-2.7,0-4.9-1.3-6.6-3.8c-0.8-1.3-1.2-2.7-1.2-4.1c0-2.5,1.1-4.6,3.3-6.3
				C93.7,105,95.3,104.5,96.9,104.5z M91.2,112.5c0,1.8,0.8,3.4,2.4,4.6c1,0.7,2.1,1,3.2,1H97c1.8,0,3.3-0.8,4.5-2.4
				c0.7-1,1.1-2.1,1.1-3.3c0-2.1-0.9-3.7-2.8-4.9c-0.9-0.5-1.9-0.8-2.9-0.8c-1.9,0-3.4,0.8-4.7,2.5
				C91.5,110.1,91.2,111.2,91.2,112.5z"/>
			<path fill="#009EE2" d="M116.8,116v-10.4c0.1-0.7,0.5-1,1-1h0.1c0.6,0,0.9,0.3,1,1v13.6c0,0.6-0.4,1-1.1,1.1
				c-0.4,0-1-0.5-1.7-1.5l-7.7-9.9v10.3c0,0.6-0.4,0.9-1.1,1h-0.1c-0.6,0-0.9-0.4-1.1-1.1v-13.4c0.1-0.8,0.4-1.2,1-1.2h0.2
				c0.5,0,0.8,0.3,1.1,0.9C108.9,105.9,111.6,109.4,116.8,116z"/>
			<path fill="#009EE2" d="M121.6,104.4l0.5,0.1h7.8l0.2,0c0.7,0,1.1,0.4,1.2,1.2c-0.1,0.7-0.5,1-1.2,1h-7v4.8h4.5l0.6,0
				c0.5,0,0.9,0.4,1,1.1c0,0.5-0.3,0.9-0.9,1.1l-0.9,0H123v4.5h7.2c0.6,0,0.9,0.4,1,1.2c-0.2,0.7-0.6,1-1,1h-8.3
				c-0.7-0.1-1-0.5-1-1.1v-13.6c0.1-0.7,0.4-1.1,0.8-1.1V104.4z"/>
			<path fill="#009EE2" d="M137.5,104.5c1.4,0,2.6,0.6,3.5,1.9l0.1,0.3v0.3c0,0.5-0.4,0.8-1.1,1c-0.3,0-0.8-0.3-1.3-0.9
				c-0.4-0.2-0.8-0.4-1.1-0.4h-0.2c-0.8,0-1.3,0.4-1.7,1.2c-0.1,0.2-0.1,0.4-0.1,0.5v0.3c0,0.9,0.5,1.5,1.6,1.9c0.9,0,1.9,0.4,3,1.3
				c1.1,1.1,1.6,2.3,1.6,3.5c0,1.6-0.7,2.9-2,3.9c-0.8,0.6-1.7,0.9-2.7,0.9c-1.6,0-3-0.7-4.1-2.1l-0.1-0.5c0.1-0.7,0.5-1.1,1.1-1.1
				c0.4,0,0.8,0.3,1.3,0.9c0.6,0.4,1.1,0.6,1.6,0.6h0.4c0.9,0,1.7-0.5,2.3-1.6c0.1-0.3,0.1-0.6,0.1-0.8v-0.4c0-0.9-0.5-1.7-1.6-2.3
				l-2.1-0.6c-1.7-1-2.5-2.2-2.5-3.7v-0.3c0-1.5,0.8-2.7,2.4-3.6C136.4,104.6,137,104.5,137.5,104.5z"/>
		</g>
	</g>
	<g>
		<g>
			<g>
				<g>
					<path fill="#FFE817" d="M109.9,47.6c0,17.2-14,31.2-31.2,31.2s-31.2-14-31.2-31.2s14-31.2,31.2-31.2S109.9,30.3,109.9,47.6
						L109.9,47.6z M109.9,47.6"/>
				</g>
			</g>
			<g>
				<rect x="77.2" y="3" fill="#FFE817" width="3" height="8.9"/>
			</g>
			<g>
				<rect x="77.2" y="83.2" fill="#FFE817" width="3" height="8.9"/>
			</g>
			<g>
				<g>
					<path fill="#FFE817" d="M46.1,17.1l2.1-2.1l6.3,6.3l-2.1,2.1L46.1,17.1z M46.1,17.1"/>
				</g>
			</g>
			<g>
				<g>
					<path fill="#FFE817" d="M102.8,73.8l2.1-2.1l6.3,6.3l-2.1,2.1L102.8,73.8z M102.8,73.8"/>
				</g>
			</g>
			<g>
				<rect x="34.1" y="46.1" fill="#FFE817" width="8.9" height="3"/>
			</g>
			<g>
				<rect x="114.3" y="46.1" fill="#FFE817" width="8.9" height="3"/>
			</g>
			<g>
				<g>
					<path fill="#FFE817" d="M46.1,78l6.3-6.3l2.1,2.1l-6.3,6.3L46.1,78z M46.1,78"/>
				</g>
			</g>
			<g>
				<g>
					<path fill="#FFE817" d="M102.8,21.3l6.3-6.3l2.1,2.1l-6.3,6.3L102.8,21.3z M102.8,21.3"/>
				</g>
			</g>
		</g>
	</g>
	<path fill="#FF5920" d="M78.7,62.4c-2.5,0-4.9-0.8-6.8-2.3l1.8-2.4c3,2.2,7.1,2.2,10.1,0l1.8,2.4C83.5,61.6,81.1,62.4,78.7,62.4
		L78.7,62.4z M78.7,62.4"/>
	<path fill="#FF5920" d="M109.3,41.6c-0.2-1-0.4-2-0.7-3h-9.7c-1.1-1-2.5-1.5-3.9-1.5H62.3c-1.4,0-2.8,0.5-3.9,1.5h-9.7
		c-0.3,1-0.5,2-0.7,3h8.5c-0.1,0.5-0.2,1-0.2,1.5v3c0,4.9,4,8.9,8.9,8.9h1.5c4.9,0,8.9-4,8.9-8.9h5.9c0,4.9,4,8.9,8.9,8.9H92
		c4.9,0,8.9-4,8.9-8.9v-3c0-0.5-0.1-1-0.2-1.5H109.3z M75.7,43.1v-3h5.9v3H75.7z M75.7,43.1"/>
</g>
</svg>
