<?xml version="1.0" encoding="utf-8"?>
<!-- Generator: Adobe Illustrator 18.0.0, SVG Export Plug-In . SVG Version: 6.00 Build 0)  -->
<!DOCTYPE svg PUBLIC "-//W3C//DTD SVG 1.1//EN" "http://www.w3.org/Graphics/SVG/1.1/DTD/svg11.dtd">
<svg version="1.1" id="Capa_1" xmlns="http://www.w3.org/2000/svg" xmlns:xlink="http://www.w3.org/1999/xlink" x="0px" y="0px"
	 viewBox="0 0 38 38" enable-background="new 0 0 38 38" xml:space="preserve">
<path fill="#51555A" d="M19.4,8.9c0,0-0.1,0-0.1,0c0,0-0.1,0-0.1,0l-8.7,5.6c-0.1,0-0.1,0.1-0.1,0.2l0,9.3c0,0.1,0,0.2,0.1,0.2
	l8.7,5.4c0.1,0,0.2,0,0.2,0l8.7-5.4c0.1,0,0.1-0.1,0.1-0.2l0-9.3c0-0.1,0-0.2-0.1-0.2L19.4,8.9z M19.2,9.6L23,12l-3.7,2.4L15.5,12
	L19.2,9.6z M14.6,26.1l-3.7-2.3v-4l3.7,2.2V26.1z M14.6,21.4l-3.7-2.3v-4l3.7,2.4V21.4z M11.3,14.6l3.6-2.3l3.6,2.3l-3.6,2.3
	L11.3,14.6z M18.9,15.1v4l-3.7,2.3v-3.9L18.9,15.1z M18.9,28.7l-0.4-0.3l-3.3-2v-4l0,0v0l0.2,0.1l2.7,1.7l0,0l0.8,0.5l0,0.2V28.7z
	 M19.2,24.3l-3.7-2.3l3.7-2.3l3.7,2.3L19.2,24.3z M23.2,26.5l-3.7,2.3v-3.9l0.8-0.5l0,0l0.2-0.1l2.7-1.7V26.5z M23.2,21.4l-3.7-2.3
	v-4l3.7,2.4V21.4z M20,14.6l3.6-2.3l3.6,2.3l-3.6,2.3L20,14.6z M27.6,23.8l-3.7,2.3v-3.9l3.7-2.3V23.8z M27.6,19.1l-3.7,2.3v-3.9
	l3.7-2.4V19.1z"/>
</svg>
