<svg version="1.1" id="Capa_1" xmlns="http://www.w3.org/2000/svg" xmlns:xlink="http://www.w3.org/1999/xlink" x="0px" y="0px"
	 viewBox="0 0 514.6 708" enable-background="new 0 0 514.6 708" xml:space="preserve">
<g>
	
		<radialGradient id="SVGID_1_" cx="-322.7987" cy="573.2399" r="268.1039" gradientTransform="matrix(-0.8826 0.1733 0.2256 1.1484 -156.9281 -273.5213)" gradientUnits="userSpaceOnUse">
		<stop  offset="0.2258" style="stop-color:#B40446"/>
		<stop  offset="0.2977" style="stop-color:#B50B4A;stop-opacity:0.9071"/>
		<stop  offset="0.396" style="stop-color:#BB1C57;stop-opacity:0.7801"/>
		<stop  offset="0.5096" style="stop-color:#C3396D;stop-opacity:0.6334"/>
		<stop  offset="0.6347" style="stop-color:#D0618A;stop-opacity:0.4718"/>
		<stop  offset="0.7691" style="stop-color:#DF95B1;stop-opacity:0.2982"/>
		<stop  offset="0.9093" style="stop-color:#F2D3DE;stop-opacity:0.1172"/>
		<stop  offset="1" style="stop-color:#FFFFFF;stop-opacity:0"/>
	</radialGradient>
	<path opacity="0.38" fill="url(#SVGID_1_)" d="M20.7,375.3c33.4,170,166.4,287.1,297.1,261.4c130.7-25.7,209.6-184.3,176.2-354.4
		C460.5,112.3,327.5-4.7,196.8,21C66.1,46.6-12.7,205.3,20.7,375.3z"/>
	
		<radialGradient id="SVGID_2_" cx="-140.4722" cy="818.2655" r="62.5842" gradientTransform="matrix(-0.9596 0.1885 0.2256 1.1484 -41.9095 -295.5229)" gradientUnits="userSpaceOnUse">
		<stop  offset="0.2258" style="stop-color:#B40446"/>
		<stop  offset="0.2977" style="stop-color:#B50B4A;stop-opacity:0.9071"/>
		<stop  offset="0.396" style="stop-color:#BB1C57;stop-opacity:0.7801"/>
		<stop  offset="0.5096" style="stop-color:#C3396D;stop-opacity:0.6334"/>
		<stop  offset="0.6347" style="stop-color:#D0618A;stop-opacity:0.4718"/>
		<stop  offset="0.7691" style="stop-color:#DF95B1;stop-opacity:0.2982"/>
		<stop  offset="0.9093" style="stop-color:#F2D3DE;stop-opacity:0.1172"/>
		<stop  offset="1" style="stop-color:#FFFFFF;stop-opacity:0"/>
	</radialGradient>
	<path opacity="0.38" fill="url(#SVGID_2_)" d="M217.4,629.5c7.8,39.7,41,66.6,74.2,60.1c33.2-6.5,53.7-44,45.9-83.7
		c-7.8-39.7-41-66.6-74.2-60.1C230.2,552.3,209.6,589.8,217.4,629.5z"/>
	<g>
		<g>
			<line fill="none" stroke="#FFFFFF" stroke-miterlimit="10" x1="340.3" y1="436.1" x2="312.8" y2="586.2"/>
			<line fill="none" stroke="#FFFFFF" stroke-miterlimit="10" x1="377.2" y1="411.2" x2="320.9" y2="586.2"/>
		</g>
		<g>
			<line fill="none" stroke="#FFFFFF" stroke-miterlimit="10" x1="237.9" y1="436.1" x2="265.4" y2="586.2"/>
			<line fill="none" stroke="#FFFFFF" stroke-miterlimit="10" x1="201" y1="411.2" x2="257.3" y2="586.2"/>
		</g>
	</g>
	<g>
		
			<linearGradient id="SVGID_3_" gradientUnits="userSpaceOnUse" x1="-420.3319" y1="285.5934" x2="-312.322" y2="303.3832" gradientTransform="matrix(-1 0 0 1 55.4242 0)">
			<stop  offset="0" style="stop-color:#FF74A8"/>
			<stop  offset="0.215" style="stop-color:#F55D8F"/>
			<stop  offset="0.5384" style="stop-color:#E94170"/>
			<stop  offset="0.8116" style="stop-color:#E22F5D"/>
			<stop  offset="1" style="stop-color:#DF2956"/>
		</linearGradient>
		<path fill="url(#SVGID_3_)" d="M289.2,177.7c22.5-26.8,53.8-42.1,86-42.1c62,0,112.5,50.4,112.6,112.4c0.4,2.8,2.9,28.6-20.4,70.2
			c-30.4,54.2-89.1,109.6-174.5,164.8c-1.1,0.7-2.5,1.1-3.8,1.1V177.8C289.2,177.8,289.2,177.8,289.2,177.7z"/>
		
			<linearGradient id="SVGID_4_" gradientUnits="userSpaceOnUse" x1="-50.3141" y1="261.1996" x2="-195.1743" y2="308.851" gradientTransform="matrix(-1 0 0 1 55.4242 0)">
			<stop  offset="0" style="stop-color:#FF74A8"/>
			<stop  offset="0.215" style="stop-color:#F55D8F"/>
			<stop  offset="0.5384" style="stop-color:#E94170"/>
			<stop  offset="0.8116" style="stop-color:#E22F5D"/>
			<stop  offset="1" style="stop-color:#DF2956"/>
		</linearGradient>
		<path fill="url(#SVGID_4_)" d="M90.3,248C90.4,186,141,135.6,203,135.6c32.2,0,63.5,15.4,86,42.1c0,0,0.1,0.1,0.1,0.1c0,0,0,0,0,0
			l0,306.3c0,0,0,0,0,0c-1.4,0-2.7-0.4-3.8-1.1c-85.5-55.2-144.2-110.7-174.6-164.8C87.4,276.5,89.9,250.8,90.3,248z"/>
		<g opacity="0.41">
			<path opacity="0" fill="#B40446" d="M111,253.6c0.1-60.5,45.4-109.8,100.9-109.8c28.8,0,56.9,15,77.1,41.1c0,0,0.1,0.1,0.1,0.1
				c0,0,0,0,0,0l0,299.1c0,0,0,0,0,0c-1.2,0-2.4-0.4-3.4-1.1C209.1,429.1,156.5,375,129.3,322.1C108.4,281.5,110.6,256.3,111,253.6z
				"/>
			<path opacity="4.761905e-002" fill="#B40446" d="M113.1,253.6c0.1-60.5,44.8-109.8,99.7-109.8c28.5,0,56.5,14.8,76.2,41.1
				c0,0,0.1,0.1,0.1,0.1c0,0,0,0,0,0l0,299.1c0,0,0,0,0,0c-1.2,0-2.4-0.4-3.4-1.1C210.1,429.1,158,375,131.2,322.1
				C110.5,281.5,112.7,256.3,113.1,253.6z"/>
			<path opacity="9.523810e-002" fill="#B40446" d="M115.2,253.6c0.1-60.5,44.3-109.8,98.6-109.8c28.2,0,55.8,14.8,75.3,41.1
				c0,0,0.1,0.1,0.1,0.1c0,0,0,0,0,0l0,299.1c0,0,0,0,0,0c-1.2,0-2.3-0.4-3.3-1.1C211,429.1,159.6,375,133,322.1
				C112.6,281.5,114.8,256.3,115.2,253.6z"/>
			<path opacity="0.1429" fill="#B40446" d="M117.3,253.6c0.1-60.5,43.8-109.8,97.4-109.8c27.8,0,55.2,14.8,74.4,41.1
				c0,0,0.1,0.1,0.1,0.1c0,0,0,0,0,0l0,299.1c0,0,0,0,0,0c-1.2,0-2.3-0.4-3.3-1.1C211.9,429.1,161.2,375,134.9,322.1
				C114.7,281.5,116.9,256.3,117.3,253.6z"/>
			<path opacity="0.1905" fill="#B40446" d="M119.3,253.6c0.1-60.5,43.2-109.8,96.2-109.8c27.5,0,54.5,14.8,73.5,41.1
				c0,0,0.1,0.1,0.1,0.1c0,0,0,0,0,0l0,299.1c0,0,0,0,0,0c-1.2,0-2.3-0.4-3.3-1.1c-73-53.9-123.1-108.1-149.1-160.9
				C116.9,281.5,119,256.3,119.3,253.6z"/>
			<path opacity="0.2381" fill="#B40446" d="M121.4,253.6c0.1-60.5,42.7-109.8,95-109.8c27.1,0,53.8,14.8,72.6,41.1
				c0,0,0.1,0.1,0.1,0.1c0,0,0,0,0,0l0,299.1c0,0,0,0,0,0c-1.1,0-2.3-0.4-3.2-1.1C213.8,429.1,164.3,375,138.7,322.1
				C119,281.5,121.1,256.3,121.4,253.6z"/>
			<path opacity="0.2857" fill="#B40446" d="M123.5,253.6c0.1-60.5,42.2-109.8,93.8-109.8c26.8,0,53.2,14.8,71.7,41.1
				c0,0,0.1,0.1,0.1,0.1c0,0,0,0,0,0l0,299.1c0,0,0,0,0,0c-1.1,0-2.2-0.4-3.2-1.1C214.7,429.1,165.8,375,140.5,322.1
				C121.1,281.5,123.2,256.3,123.5,253.6z"/>
			<path opacity="0.3333" fill="#B40446" d="M125.6,253.6c0.1-60.5,41.6-109.8,92.6-109.8c26.5,0,52.5,14.8,70.8,41.1
				c0,0,0.1,0.1,0.1,0.1c0,0,0,0,0,0l0,299.1c0,0,0,0,0,0c-1.1,0-2.2-0.4-3.1-1.1C215.7,429.1,167.4,375,142.4,322.1
				C123.2,281.5,125.3,256.3,125.6,253.6z"/>
			<path opacity="0.381" fill="#B40446" d="M127.7,253.6c0.1-60.5,41.1-109.8,91.5-109.8c26.1,0,51.8,14.8,69.8,41.1
				c0,0,0.1,0.1,0.1,0.1c0,0,0,0,0,0l0,299.1c0,0,0,0,0,0c-1.1,0-2.2-0.4-3.1-1.1C216.6,429.1,168.9,375,144.3,322.1
				C125.3,281.5,127.4,256.3,127.7,253.6z"/>
			<path opacity="0.4286" fill="#B40446" d="M129.8,253.6c0.1-60.5,40.6-109.8,90.3-109.8c25.8,0,51.2,14.8,68.9,41.1
				c0,0,0.1,0.1,0.1,0.1c0,0,0,0,0,0l0,299.1c0,0,0,0,0,0c-1.1,0-2.1-0.4-3.1-1.1C217.6,429.1,170.5,375,146.2,322.1
				C127.5,281.5,129.5,256.3,129.8,253.6z"/>
			<path opacity="0.4762" fill="#B40446" d="M131.9,253.6c0.1-60.5,40-109.8,89.1-109.8c25.5,0,50.5,14.8,68,41.1
				c0,0,0.1,0.1,0.1,0.1c0,0,0,0,0,0l0,299.1c0,0,0,0,0,0c-1.1,0-2.1-0.4-3-1.1c-67.6-53.9-114-108.1-138-160.9
				C129.6,281.5,131.6,256.3,131.9,253.6z"/>
			<path opacity="0.5238" fill="#B40446" d="M134,253.6c0.1-60.5,39.5-109.8,87.9-109.8c25.1,0,49.8,14.8,67.1,41.1
				c0,0,0.1,0.1,0.1,0.1c0,0,0,0,0,0l0,299.1c0,0,0,0,0,0c-1.1,0-2.1-0.4-3-1.1C219.4,429.1,173.6,375,149.9,322.1
				C131.7,281.5,133.7,256.3,134,253.6z"/>
			<path opacity="0.5714" fill="#B40446" d="M136.1,253.6c0.1-60.5,39-109.8,86.7-109.8c24.8,0,49.2,14.8,66.2,41.1
				c0,0,0.1,0.1,0.1,0.1c0,0,0,0,0,0l0,299.1c0,0,0,0,0,0c-1,0-2.1-0.4-2.9-1.1c-65.8-53.9-111-108.1-134.4-160.9
				C133.8,281.5,135.8,256.3,136.1,253.6z"/>
			<path opacity="0.619" fill="#B40446" d="M138.2,253.6c0.1-60.5,38.4-109.8,85.5-109.8c24.4,0,48.5,14.8,65.3,41.1
				c0,0,0.1,0.1,0.1,0.1c0,0,0,0,0,0l0,299.1c0,0,0,0,0,0c-1,0-2-0.4-2.9-1.1C221.3,429.1,176.7,375,153.7,322.1
				C136,281.5,137.9,256.3,138.2,253.6z"/>
			<path opacity="0.6667" fill="#B40446" d="M140.3,253.6c0.1-60.5,37.9-109.8,84.3-109.8c24.1,0,47.8,14.8,64.4,41.1
				c0,0,0.1,0.1,0.1,0.1c0,0,0,0,0,0l0,299.1c0,0,0,0,0,0c-1,0-2-0.4-2.9-1.1c-64-53.9-108-108.1-130.7-160.9
				C138.1,281.5,140,256.3,140.3,253.6z"/>
			<path opacity="0.7143" fill="#B40446" d="M142.4,253.6c0.1-60.5,37.4-109.8,83.2-109.8c23.8,0,47.2,14.8,63.5,41.1
				c0,0,0.1,0.1,0.1,0.1c0,0,0,0,0,0l0,299.1c0,0,0,0,0,0c-1,0-2-0.4-2.8-1.1C223.2,429.1,179.8,375,157.4,322.1
				C140.2,281.5,142.1,256.3,142.4,253.6z"/>
			<path opacity="0.7619" fill="#B40446" d="M144.4,253.6c0.1-60.5,36.9-109.8,82-109.8c23.4,0,46.5,14.8,62.6,41.1
				c0,0,0,0.1,0.1,0.1c0,0,0,0,0,0l0,299.1c0,0,0,0,0,0c-1,0-1.9-0.4-2.8-1.1c-62.2-53.9-104.9-108.1-127-160.9
				C142.3,281.5,144.2,256.3,144.4,253.6z"/>
			<path opacity="0.8095" fill="#B40446" d="M146.5,253.6c0.1-60.5,36.3-109.8,80.8-109.8c23.1,0,45.8,14.8,61.7,41.1
				c0,0,0,0.1,0.1,0.1c0,0,0,0,0,0l0,299.1c0,0,0,0,0,0c-1,0-1.9-0.4-2.7-1.1C225.1,429.1,183,375,161.2,322.1
				C144.4,281.5,146.3,256.3,146.5,253.6z"/>
			<path opacity="0.8571" fill="#B40446" d="M148.6,253.6c0.1-60.5,35.8-109.8,79.6-109.8c22.7,0,45.2,14.8,60.8,41.1
				c0,0,0,0.1,0.1,0.1c0,0,0,0,0,0l0,299.1c0,0,0,0,0,0c-1,0-1.9-0.4-2.7-1.1C226,429.1,184.5,375,163.1,322.1
				C146.6,281.5,148.4,256.3,148.6,253.6z"/>
			<path opacity="0.9048" fill="#B40446" d="M150.7,253.6c0.1-60.5,35.3-109.8,78.4-109.8c22.4,0,44.5,14.8,59.9,41.1
				c0,0,0,0.1,0.1,0.1c0,0,0,0,0,0l0,299.1c0,0,0,0,0,0c-0.9,0-1.9-0.4-2.7-1.1C227,429.1,186.1,375,164.9,322.1
				C148.7,281.5,150.5,256.3,150.7,253.6z"/>
			<path opacity="0.9524" fill="#B40446" d="M152.8,253.6c0.1-60.5,34.7-109.8,77.2-109.8c22.1,0,43.8,14.8,59,41.1
				c0,0,0,0.1,0.1,0.1c0,0,0,0,0,0l0,299.1c0,0,0,0,0,0c-0.9,0-1.8-0.4-2.6-1.1c-58.6-53.9-98.9-108.1-119.7-160.9
				C150.8,281.5,152.6,256.3,152.8,253.6z"/>
			<path fill="#B40446" d="M154.9,253.6c0.1-60.5,34.2-109.8,76-109.8c21.7,0,42.9,15,58.1,41.1c0,0,0,0.1,0.1,0.1l0,0l0,299.1l0,0
				c-0.9,0-1.8-0.4-2.6-1.1c-57.7-53.9-97.3-108.1-117.8-160.9C152.9,281.5,154.7,256.3,154.9,253.6z"/>
		</g>
		<g opacity="0.41">
			<path opacity="0" fill="#B40446" d="M467.3,253.6c-0.1-60.5-45.4-109.8-100.9-109.8c-28.8,0-56.9,15-77.1,41.1
				c0,0-0.1,0.1-0.1,0.1c0,0,0,0,0,0l0,299.1c0,0,0,0,0,0c1.2,0,2.4-0.4,3.4-1.1C369.1,429.1,421.7,375,449,322.1
				C469.9,281.5,467.6,256.3,467.3,253.6z"/>
			<path opacity="4.761905e-002" fill="#B40446" d="M465.2,253.6c-0.1-60.5-44.8-109.8-99.7-109.8c-28.5,0-56.5,14.8-76.2,41.1
				c0,0-0.1,0.1-0.1,0.1c0,0,0,0,0,0l0,299.1c0,0,0,0,0,0c1.2,0,2.4-0.4,3.4-1.1c75.7-53.9,127.7-108.1,154.6-160.9
				C467.7,281.5,465.5,256.3,465.2,253.6z"/>
			<path opacity="9.523810e-002" fill="#B40446" d="M463.1,253.6c-0.1-60.5-44.3-109.8-98.6-109.8c-28.2,0-55.8,14.8-75.3,41.1
				c0,0-0.1,0.1-0.1,0.1c0,0,0,0,0,0l0,299.1c0,0,0,0,0,0c1.2,0,2.3-0.4,3.3-1.1c74.8-53.9,126.2-108.1,152.7-160.9
				C465.6,281.5,463.4,256.3,463.1,253.6z"/>
			<path opacity="0.1429" fill="#B40446" d="M461,253.6c-0.1-60.5-43.8-109.8-97.4-109.8c-27.8,0-55.2,14.8-74.4,41.1
				c0,0-0.1,0.1-0.1,0.1c0,0,0,0,0,0l0,299.1c0,0,0,0,0,0c1.2,0,2.3-0.4,3.3-1.1c73.9-53.9,124.6-108.1,150.9-160.9
				C463.5,281.5,461.3,256.3,461,253.6z"/>
			<path opacity="0.1905" fill="#B40446" d="M458.9,253.6c-0.1-60.5-43.2-109.8-96.2-109.8c-27.5,0-54.5,14.8-73.5,41.1
				c0,0-0.1,0.1-0.1,0.1c0,0,0,0,0,0l0,299.1c0,0,0,0,0,0c1.2,0,2.3-0.4,3.3-1.1c73-53.9,123.1-108.1,149.1-160.9
				C461.4,281.5,459.2,256.3,458.9,253.6z"/>
			<path opacity="0.2381" fill="#B40446" d="M456.8,253.6c-0.1-60.5-42.7-109.8-95-109.8c-27.1,0-53.8,14.8-72.6,41.1
				c0,0-0.1,0.1-0.1,0.1c0,0,0,0,0,0l0,299.1c0,0,0,0,0,0c1.1,0,2.3-0.4,3.2-1.1C364.4,429.1,414,375,439.6,322.1
				C459.3,281.5,457.1,256.3,456.8,253.6z"/>
			<path opacity="0.2857" fill="#B40446" d="M454.7,253.6c-0.1-60.5-42.2-109.8-93.8-109.8c-26.8,0-53.1,14.8-71.7,41.1
				c0,0-0.1,0.1-0.1,0.1c0,0,0,0,0,0l0,299.1c0,0,0,0,0,0c1.1,0,2.2-0.4,3.2-1.1c71.2-53.9,120.1-108.1,145.4-160.9
				C457.1,281.5,455,256.3,454.7,253.6z"/>
			<path opacity="0.3333" fill="#B40446" d="M452.6,253.6c-0.1-60.5-41.6-109.8-92.6-109.8c-26.5,0-52.5,14.8-70.8,41.1
				c0,0-0.1,0.1-0.1,0.1c0,0,0,0,0,0l0,299.1c0,0,0,0,0,0c1.1,0,2.2-0.4,3.1-1.1c70.3-53.9,118.6-108.1,143.6-160.9
				C455,281.5,452.9,256.3,452.6,253.6z"/>
			<path opacity="0.381" fill="#B40446" d="M450.5,253.6c-0.1-60.5-41.1-109.8-91.5-109.8c-26.1,0-51.8,14.8-69.8,41.1
				c0,0-0.1,0.1-0.1,0.1c0,0,0,0,0,0l0,299.1c0,0,0,0,0,0c1.1,0,2.2-0.4,3.1-1.1c69.4-53.9,117.1-108.1,141.7-160.9
				C452.9,281.5,450.8,256.3,450.5,253.6z"/>
			<path opacity="0.4286" fill="#B40446" d="M448.4,253.6c-0.1-60.5-40.6-109.8-90.3-109.8c-25.8,0-51.1,14.8-68.9,41.1
				c0,0-0.1,0.1-0.1,0.1c0,0,0,0,0,0l0,299.1c0,0,0,0,0,0c1.1,0,2.1-0.4,3.1-1.1c68.5-53.9,115.5-108.1,139.9-160.9
				C450.8,281.5,448.7,256.3,448.4,253.6z"/>
			<path opacity="0.4762" fill="#B40446" d="M446.3,253.6c-0.1-60.5-40-109.8-89.1-109.8c-25.5,0-50.5,14.8-68,41.1
				c0,0-0.1,0.1-0.1,0.1c0,0,0,0,0,0l0,299.1c0,0,0,0,0,0c1.1,0,2.1-0.4,3-1.1c67.6-53.9,114-108.1,138-160.9
				C448.6,281.5,446.6,256.3,446.3,253.6z"/>
			<path opacity="0.5238" fill="#B40446" d="M444.2,253.6c-0.1-60.5-39.5-109.8-87.9-109.8c-25.1,0-49.8,14.8-67.1,41.1
				c0,0-0.1,0.1-0.1,0.1c0,0,0,0,0,0l0,299.1c0,0,0,0,0,0c1.1,0,2.1-0.4,3-1.1c66.7-53.9,112.5-108.1,136.2-160.9
				C446.5,281.5,444.5,256.3,444.2,253.6z"/>
			<path opacity="0.5714" fill="#B40446" d="M442.2,253.6c-0.1-60.5-39-109.8-86.7-109.8c-24.8,0-49.1,14.8-66.2,41.1
				c0,0-0.1,0.1-0.1,0.1c0,0,0,0,0,0l0,299.1c0,0,0,0,0,0c1,0,2.1-0.4,2.9-1.1c65.8-53.9,111-108.1,134.4-160.9
				C444.4,281.5,442.4,256.3,442.2,253.6z"/>
			<path opacity="0.619" fill="#B40446" d="M440.1,253.6c-0.1-60.5-38.4-109.8-85.5-109.8c-24.4,0-48.5,14.9-65.3,41.1
				c0,0-0.1,0.1-0.1,0.1c0,0,0,0,0,0l0,299.1c0,0,0,0,0,0c1,0,2-0.4,2.9-1.1c64.9-53.9,109.5-108.1,132.5-160.9
				C442.3,281.5,440.3,256.3,440.1,253.6z"/>
			<path opacity="0.6667" fill="#B40446" d="M438,253.6c-0.1-60.5-37.9-109.8-84.3-109.8c-24.1,0-47.8,14.9-64.4,41.1
				c0,0-0.1,0.1-0.1,0.1c0,0,0,0,0,0l0,299.1c0,0,0,0,0,0c1,0,2-0.4,2.9-1.1c64-53.9,108-108.1,130.7-160.9
				C440.2,281.5,438.2,256.3,438,253.6z"/>
			<path opacity="0.7143" fill="#B40446" d="M435.9,253.6c-0.1-60.5-37.4-109.8-83.2-109.8c-23.8,0-47.1,14.9-63.5,41.1
				c0,0-0.1,0.1-0.1,0.1c0,0,0,0,0,0l0,299.1c0,0,0,0,0,0c1,0,2-0.4,2.8-1.1C355,429.1,398.4,375,420.8,322.1
				C438,281.5,436.2,256.3,435.9,253.6z"/>
			<path opacity="0.7619" fill="#B40446" d="M433.8,253.6c-0.1-60.5-36.9-109.8-82-109.8c-23.4,0-46.5,14.9-62.6,41.1
				c0,0,0,0.1-0.1,0.1c0,0,0,0,0,0l0,299.1c0,0,0,0,0,0c1,0,1.9-0.4,2.8-1.1c62.2-53.9,104.9-108.1,127-160.9
				C435.9,281.5,434.1,256.3,433.8,253.6z"/>
			<path opacity="0.8095" fill="#B40446" d="M431.7,253.6c-0.1-60.5-36.3-109.8-80.8-109.8c-23.1,0-45.8,14.9-61.7,41.1
				c0,0,0,0.1-0.1,0.1c0,0,0,0,0,0l0,299.1c0,0,0,0,0,0c1,0,1.9-0.4,2.7-1.1C353.1,429.1,395.3,375,417,322.1
				C433.8,281.5,432,256.3,431.7,253.6z"/>
			<path opacity="0.8571" fill="#B40446" d="M429.6,253.6c-0.1-60.5-35.8-109.8-79.6-109.8c-22.7,0-45.1,14.9-60.8,41.1
				c0,0,0,0.1-0.1,0.1c0,0,0,0,0,0l0,299.1c0,0,0,0,0,0c1,0,1.9-0.4,2.7-1.1c60.4-53.9,101.9-108.1,123.4-160.9
				C431.7,281.5,429.9,256.3,429.6,253.6z"/>
			<path opacity="0.9048" fill="#B40446" d="M427.5,253.6c-0.1-60.5-35.3-109.8-78.4-109.8c-22.4,0-44.4,14.9-59.9,41.1
				c0,0,0,0.1-0.1,0.1c0,0,0,0,0,0l0,299.1c0,0,0,0,0,0c0.9,0,1.9-0.4,2.7-1.1c59.5-53.9,100.4-108.1,121.5-160.9
				C429.5,281.5,427.8,256.3,427.5,253.6z"/>
			<path opacity="0.9524" fill="#B40446" d="M425.4,253.6c-0.1-60.5-34.7-109.8-77.2-109.8c-22.1,0-43.8,14.9-59,41.1
				c0,0,0,0.1-0.1,0.1c0,0,0,0,0,0l0,299.1c0,0,0,0,0,0c0.9,0,1.8-0.4,2.6-1.1c58.6-53.9,98.9-108.1,119.7-160.9
				C427.4,281.5,425.7,256.3,425.4,253.6z"/>
			<path fill="#B40446" d="M423.3,253.6c-0.1-60.5-34.2-109.8-76-109.8c-21.7,0-42.9,15-58.1,41.1c0,0,0,0.1-0.1,0.1l0,0l0,299.1
				l0,0c0.9,0,1.8-0.4,2.6-1.1C349.4,429.1,389,375,409.5,322.1C425.3,281.5,423.6,256.3,423.3,253.6z"/>
		</g>
		<g>
			
				<linearGradient id="SVGID_5_" gradientUnits="userSpaceOnUse" x1="-340.8178" y1="267.7508" x2="-256.9513" y2="309.6841" gradientTransform="matrix(-1 0 0 1 55.4242 0)">
				<stop  offset="0" style="stop-color:#FF74A8"/>
				<stop  offset="0.215" style="stop-color:#F55D8F"/>
				<stop  offset="0.5384" style="stop-color:#E94170"/>
				<stop  offset="0.8116" style="stop-color:#E22F5D"/>
				<stop  offset="1" style="stop-color:#DF2956"/>
			</linearGradient>
			<path fill="url(#SVGID_5_)" d="M289.2,177.7c14.5-26.8,34.6-42.1,55.3-42.1c39.9,0,72.4,50.4,72.4,112.4
				c0.2,2.8,1.9,28.6-13.1,70.2c-19.5,54.2-57.3,109.6-112.3,164.8c-0.7,0.7-1.6,1.1-2.5,1.1L289.2,177.7
				C289.2,177.8,289.2,177.8,289.2,177.7z"/>
			
				<linearGradient id="SVGID_6_" gradientUnits="userSpaceOnUse" x1="-125.3024" y1="205.3836" x2="-220.6051" y2="315.9348" gradientTransform="matrix(-1 0 0 1 55.4242 0)">
				<stop  offset="0" style="stop-color:#FFA1D3"/>
				<stop  offset="1.062179e-002" style="stop-color:#FFA0D1"/>
				<stop  offset="0.3226" style="stop-color:#F577A6"/>
				<stop  offset="0.6025" style="stop-color:#EF5A86"/>
				<stop  offset="0.8378" style="stop-color:#EB4773"/>
				<stop  offset="1" style="stop-color:#E9416C"/>
			</linearGradient>
			<path fill="url(#SVGID_6_)" d="M161.2,248c0.1-62,32.6-112.4,72.5-112.4c20.7,0,40.9,15.4,55.3,42.1c0,0,0,0.1,0.1,0.1l0,0
				l0,306.3l0,0c-0.9,0-1.7-0.4-2.5-1.1c-55-55.2-92.7-110.7-112.3-164.8C159.4,276.5,161,250.8,161.2,248z"/>
		</g>
	</g>
	
		<linearGradient id="SVGID_7_" gradientUnits="userSpaceOnUse" x1="-275.2862" y1="542.5513" x2="-202.5076" y2="669.3941" gradientTransform="matrix(-1 0 0 1 55.4242 0)">
		<stop  offset="0" style="stop-color:#FFADBE"/>
		<stop  offset="0" style="stop-color:#627032"/>
		<stop  offset="0.2737" style="stop-color:#448854"/>
		<stop  offset="0.7593" style="stop-color:#13B18B"/>
		<stop  offset="0.9948" style="stop-color:#00C0A0"/>
	</linearGradient>
	<path fill="url(#SVGID_7_)" d="M261.4,649.6h56.5c9.5,0,17.3-7.7,17.3-17.3v-41h-91v41C244.1,641.9,251.8,649.6,261.4,649.6z"/>
	<rect x="235.1" y="574.4" fill="#05E2B7" width="109.1" height="21"/>
	<path fill="#EE6C4C" d="M290,640.2c-0.1,0.1-0.2,0.1-0.4,0.1l0,0c-0.1,0-0.3,0-0.4-0.1c-8.2-5.3-13.8-10.6-16.7-15.8
		c-2.2-4-2-6.5-2-6.7c0-5.9,4.9-10.8,10.8-10.8c3.1,0,6.1,1.5,8.2,4c0,0,0,0,0,0l0,0c0,0,0,0,0,0c2.2-2.6,5.2-4,8.2-4
		c5.9,0,10.8,4.8,10.8,10.8c0,0.3,0.3,2.7-2,6.7C303.8,629.6,298.2,634.9,290,640.2z"/>
</g>
</svg>
