<svg version="1.1" id="Capa_1" xmlns="http://www.w3.org/2000/svg" xmlns:xlink="http://www.w3.org/1999/xlink" x="0px" y="0px"
	 viewBox="0 0 862.3 323" enable-background="new 0 0 862.3 323" xml:space="preserve">
<g>
	<g>
		
			<radialGradient id="SVGID_1_" cx="-284.2539" cy="510.7394" r="108.2213" gradientTransform="matrix(-1.2489 0.2453 0.2256 1.1484 249.9081 -327.2672)" gradientUnits="userSpaceOnUse">
			<stop  offset="0.2258" style="stop-color:#B40446"/>
			<stop  offset="0.2977" style="stop-color:#B50B4A;stop-opacity:0.9071"/>
			<stop  offset="0.396" style="stop-color:#BB1C57;stop-opacity:0.7801"/>
			<stop  offset="0.5096" style="stop-color:#C3396D;stop-opacity:0.6334"/>
			<stop  offset="0.6347" style="stop-color:#D0618A;stop-opacity:0.4718"/>
			<stop  offset="0.7691" style="stop-color:#DF95B1;stop-opacity:0.2982"/>
			<stop  offset="0.9093" style="stop-color:#F2D3DE;stop-opacity:0.1172"/>
			<stop  offset="1" style="stop-color:#FFFFFF;stop-opacity:0"/>
		</radialGradient>
		<path opacity="0.38" fill="url(#SVGID_1_)" d="M585,216.1c13.5,68.6,84.9,112.4,159.6,97.7c74.6-14.7,124.2-82.2,110.7-150.8
			c-13.5-68.6-84.9-112.4-159.6-97.7C621.1,79.9,571.5,147.4,585,216.1z"/>
		<path fill="#FFFFFF" d="M602.2,191.3c0-12.8,10.4-23.3,23.3-23.3c4.9,0,9.4,1.5,13.2,4.1c5.2-10.4,16-17.6,28.4-17.6
			c1.1,0,2.2,0.1,3.3,0.2c2.8-11.5,12-20.5,23.7-22.8c6.8-15.5,22.3-26.3,40.3-26.3c24.3,0,44.1,19.7,44.1,44.1c0,0.8,0,1.7-0.1,2.5
			c0.8,0,1.7-0.1,2.5-0.1c24.3,0,44.1,19.7,44.1,44.1H602.8C602.4,194.6,602.2,193,602.2,191.3z"/>
	</g>
	<g>
		
			<radialGradient id="SVGID_2_" cx="127.0667" cy="225.9178" r="79.3085" gradientTransform="matrix(-1.2706 7.400000e-002 4.870000e-002 0.835 283.572 -125.2098)" gradientUnits="userSpaceOnUse">
			<stop  offset="0.2258" style="stop-color:#B40446"/>
			<stop  offset="0.2977" style="stop-color:#B50B4A;stop-opacity:0.9071"/>
			<stop  offset="0.396" style="stop-color:#BB1C57;stop-opacity:0.7801"/>
			<stop  offset="0.5096" style="stop-color:#C3396D;stop-opacity:0.6334"/>
			<stop  offset="0.6347" style="stop-color:#D0618A;stop-opacity:0.4718"/>
			<stop  offset="0.7691" style="stop-color:#DF95B1;stop-opacity:0.2982"/>
			<stop  offset="0.9093" style="stop-color:#F2D3DE;stop-opacity:0.1172"/>
			<stop  offset="1" style="stop-color:#FFFFFF;stop-opacity:0"/>
		</radialGradient>
		<path opacity="0.38" fill="url(#SVGID_2_)" d="M32.4,78.7c2.1,36.6,49,63.6,104.6,60.4c55.7-3.2,99-35.5,96.9-72.1
			c-2.1-36.6-49-63.6-104.6-60.4C73.6,9.9,30.2,42.1,32.4,78.7z"/>
		<path fill="#FFFFFF" d="M4.8,94c0-12.8,10.4-23.3,23.3-23.3c4.9,0,9.4,1.5,13.2,4.1c5.2-10.4,16-17.6,28.4-17.6
			c1.1,0,2.2,0.1,3.3,0.2c2.8-11.5,12-20.5,23.7-22.8C103.5,19.1,119,8.3,137,8.3c24.3,0,44.1,19.7,44.1,44.1c0,0.8,0,1.7-0.1,2.5
			c0.8,0,1.7-0.1,2.5-0.1c24.3,0,44.1,19.7,44.1,44.1H5.4C5,97.3,4.8,95.6,4.8,94z"/>
	</g>
</g>
</svg>
