<svg version="1.1" id="Capa_1" xmlns="http://www.w3.org/2000/svg" xmlns:xlink="http://www.w3.org/1999/xlink" x="0px" y="0px"
	 viewBox="0 0 312 315.5" enable-background="new 0 0 312 315.5" xml:space="preserve">
<g>
	
		<radialGradient id="SVGID_1_" cx="-129.8003" cy="412.6741" r="155.0579" gradientTransform="matrix(-0.9538 0.1873 0.1871 0.9525 -45.0238 -211.0029)" gradientUnits="userSpaceOnUse">
		<stop  offset="0.2258" style="stop-color:#B40446"/>
		<stop  offset="0.2977" style="stop-color:#B50B4A;stop-opacity:0.9071"/>
		<stop  offset="0.396" style="stop-color:#BB1C57;stop-opacity:0.7801"/>
		<stop  offset="0.5096" style="stop-color:#C3396D;stop-opacity:0.6334"/>
		<stop  offset="0.6347" style="stop-color:#D0618A;stop-opacity:0.4718"/>
		<stop  offset="0.7691" style="stop-color:#DF95B1;stop-opacity:0.2982"/>
		<stop  offset="0.9093" style="stop-color:#F2D3DE;stop-opacity:0.1172"/>
		<stop  offset="1" style="stop-color:#FFFFFF;stop-opacity:0"/>
	</radialGradient>
	<path opacity="0.38" fill="url(#SVGID_1_)" d="M8.1,186.8c16,81.6,95.2,134.7,176.9,118.6c81.7-16,134.9-95.2,118.9-176.7
		C287.9,47.1,208.7-6,127,10.1C45.3,26.1-7.9,105.2,8.1,186.8z"/>
	<g>
		
			<linearGradient id="SVGID_2_" gradientUnits="userSpaceOnUse" x1="-243.5684" y1="136.9187" x2="-124.4578" y2="136.9187" gradientTransform="matrix(-1 0 0 1 51.6487 0)">
			<stop  offset="0" style="stop-color:#FFE392"/>
			<stop  offset="0.5371" style="stop-color:#FFC57C"/>
			<stop  offset="1" style="stop-color:#FFB06C"/>
		</linearGradient>
		<path fill="url(#SVGID_2_)" d="M295.2,136.9c0,65.8-53.3,119.1-119.1,119.1V17.8C241.9,17.8,295.2,71.1,295.2,136.9z"/>
		
			<linearGradient id="SVGID_3_" gradientUnits="userSpaceOnUse" x1="-66.8464" y1="61.9089" x2="-63.8963" y2="265.4663" gradientTransform="matrix(-1 0 0 1 51.6487 0)">
			<stop  offset="0" style="stop-color:#FFE392"/>
			<stop  offset="0.5371" style="stop-color:#FFC57C"/>
			<stop  offset="1" style="stop-color:#FFB06C"/>
		</linearGradient>
		<path fill="url(#SVGID_3_)" d="M176.1,17.8V256C110.3,256,57,202.7,57,136.9C57,71.1,110.3,17.8,176.1,17.8z"/>
	</g>
</g>
</svg>
