<svg version="1.1" id="Capa_1" xmlns="http://www.w3.org/2000/svg" xmlns:xlink="http://www.w3.org/1999/xlink" x="0px" y="0px"
	 viewBox="0 0 617.7 354.3" enable-background="new 0 0 617.7 354.3" xml:space="preserve">
<g>
	<g>
		<g>
			<path fill="none" stroke="#800F26" stroke-width="1.5" stroke-miterlimit="10" d="M101.4,85.1c-1.5-3-3.5-5.6-5.8-7.8
				c-2.4-2.2-5.1-3.8-8.2-5c-3.1-1.2-6.4-1.7-9.8-1.7c-7.5,0-13.9,1.6-19.2,4.9C53,78.7,48.8,82.9,45.6,88c-3.2,5.1-5.2,10.8-6,16.9
				c-0.9,6.2-0.5,12.2,1.1,17.9c-4.3-1.4-7.7-3.3-10.3-5.7c-2.5-2.4-4.5-4.9-5.8-7.7c-1.4-2.7-2.3-5.5-2.7-8.2
				c-0.4-2.7-0.6-5.1-0.6-7.1c0-7.8,1.5-14,4.5-18.8s6.8-8.4,11.2-11c4.5-2.6,9.2-4.3,14.2-5.2c5-0.9,9.6-1.3,13.6-1.3
				c2,0,3.7-0.3,5-0.9c1.3-0.6,1.9-1.7,1.9-3.2c-0.1-1.2-0.8-1.9-1.9-2.2c-1.2-0.3-2.3-0.5-3.5-0.6c-1.2-0.3-2.1-0.9-2.7-1.8
				c-0.6-0.9-1.2-1.9-1.6-3c-0.4-1.1-0.7-2.2-0.9-3.2c-0.1-1.1-0.2-1.8-0.2-2.3c0-3,0.9-5.8,2.6-8.3c1.7-2.5,3.8-4.6,6.3-6.4
				c2.4-1.7,5.1-3.1,7.9-4.1c2.8-1,5.3-1.5,7.4-1.5c1.6,0,2.8,0.1,3.8,0.4c0.9,0.3,1.4,1,1.4,2.2c0,0.9-1,1.9-2.9,3.2
				s-4.1,2.8-6.5,4.4c-2.4,1.7-4.5,3.5-6.5,5.4c-1.9,1.9-2.9,3.9-2.9,5.9c0,2.6,0.6,4.9,1.9,7c1.3,2.1,2.7,3.9,4.3,5.4
				c1.6,1.5,3.1,2.7,4.4,3.5c1.4,0.8,2.2,1.2,2.5,1.2c0.1,0,0.3-0.1,0.4-0.2c0-0.3,0.7-1.2,2.2-2.8c1.4-1.6,3.1-3.3,4.9-5.2
				c1.8-1.9,3.5-3.6,5.2-5.2c1.7-1.6,2.8-2.4,3.3-2.6c0.4-0.1,0.6-0.4,0.6-0.6c0-0.4-0.3-0.6-0.9-0.6c-0.3,0-0.9,0.3-1.9,0.8
				c-1,0.5-2.2,1.2-3.5,1.9c-1.3,0.8-2.6,1.7-4,2.7c-1.4,1-2.6,1.9-3.6,2.8c1.2-1.9,2.7-3.8,4.7-5.7c2-1.9,4.7-3.8,8-5.5
				c0.6-0.4,1.2-0.9,1.7-1.5c0.4-0.6,0.9-1.3,1.3-2.2c0.4-0.9,0.6-1.9,0.6-3.2c0-3.6-0.9-6.8-2.6-9.7c-1.7-2.9-4-5.2-6.7-7
				c-2.7-1.8-5.8-3.1-9.2-4c-3.4-0.9-6.7-1.2-9.8-1.1c-3.5,0.1-7,0.9-10.7,2.2c-3.7,1.3-7,3.1-9.9,5.4c-3,2.3-5.4,5-7.3,8.2
				c-1.9,3.2-2.9,6.7-2.9,10.6c0,3.3,0.5,6.3,1.6,8.9c1.1,2.6,2.6,4.5,4.6,5.8c-1.2-0.1-3-0.1-5.5,0.1c-2.5,0.2-5.3,0.8-8.4,1.8
				c-3.1,1-6.4,2.4-9.8,4.2c-3.5,1.8-6.7,4.2-9.8,7.1c-3.1,3-5.8,6.6-8.2,11c-2.4,4.4-4.1,9.5-5.1,15.4c-0.7,6.9-0.2,13.1,1.6,18.6
				c1.8,5.5,4.6,10.1,8.3,14c3.7,3.9,8.2,6.9,13.5,9.2c5.3,2.2,11,3.6,17.2,4c0.9,1.6,2.2,2.9,4,4c1.8,1.1,4.1,1.6,7,1.6
				c1.9,0,3.9-0.3,6.2-0.9c2.2-0.6,4.7-1.7,7.4-3.2c-0.4,0-0.9-0.1-1.3-0.2c-0.9-0.3-1.8-0.8-2.8-1.5c6.2,0,11.7-1.4,16.6-4.1
				c4.9-2.7,9-6.2,12.3-10.3c3.3-4.1,5.8-8.6,7.4-13.4c1.7-4.8,2.4-9.2,2.3-13.3C103.8,91.5,102.9,88.1,101.4,85.1z M96.4,104.4
				c-1.4,3.2-3.4,6.3-6.2,9.2c-2.7,2.9-6.2,5.5-10.4,7.8c-4.2,2.3-9.1,3.9-14.7,4.7c-2,0.3-3.4,0.5-4.1,0.5
				c-0.7,0.1-1.1,0.5-1.1,1.4c0,0.7,0.1,1.4,0.4,2.1c0.3,0.6,0.6,1.3,0.9,1.8c0.4,0.6,0.9,1.2,1.3,1.9c-0.6-0.4-1.1-1-1.6-1.8
				c-0.5-0.8-1-1.6-1.4-2.5c-0.6-1-1.1-2.1-1.5-3.2c-1.4-3.9-2.2-7.7-2.2-11.4c0-3.7,0.3-7.5,0.9-11.2c1.6-6,4.5-11.3,8.7-15.8
				c4.2-4.5,9.6-6.7,16.1-6.7c3.7,0,6.7,0.6,9,1.8c2.2,1.2,3.9,2.6,5.1,4.2c1.1,1.6,1.9,3.1,2.3,4.6c0.4,1.5,0.5,2.6,0.5,3.3
				C98.5,98.1,97.8,101.2,96.4,104.4z"/>
			<path fill="none" stroke="#800F26" stroke-width="1.5" stroke-miterlimit="10" d="M162.3,119.2c-0.8-1.7-1.2-3.8-1.2-6.3
				c0-2.4,0.3-5.2,0.9-8.2c0.6-3,1.3-6.2,2.2-9.5c0.9-3.3,1.7-6.7,2.6-10c0.9-3.4,1.6-6.7,2.2-9.8c0.3-0.7,0.4-1.4,0.4-2.2
				c0-0.7,0-1.4,0-2.2c0-2.9-0.7-5.1-2.2-6.8c-1.4-1.7-3.3-2.5-5.6-2.5c-1.3,0-3,0.4-5.1,1.3c-2.1,0.9-4.3,2.1-6.6,3.6
				c-2.3,1.5-4.6,3.3-6.9,5.4c-2.3,2.1-4.4,4.4-6.3,6.8c0-1.2,0.1-2.3,0.4-3.5c0.3-1.2,0.4-2.2,0.4-3c0-3-0.5-5.4-1.6-7.1
				c-1.1-1.7-2.4-3-4.1-3.9c-1.7-0.9-3.5-1.4-5.6-1.5c-2.1-0.1-4.1-0.2-6.2-0.2c-1.7,0-3.2,0.1-4.3,0.4c-0.6,0.1-1.1,0.2-1.5,0.2
				c0,0.3,0.2,0.4,0.8,0.4c0.5,0,1,0.1,1.5,0.3c0.5,0.2,1,0.6,1.5,1.3c0.5,0.6,0.8,1.6,0.8,2.9c0,2.6-1,7.4-2.9,14.4
				c-1.9,7-4.1,15.9-6.4,26.7c0,0.3-0.1,0.8-0.2,1.5c-0.1,0.7-0.2,1.4-0.2,1.9c0,1.4,0.2,2.8,0.5,4.2c0.4,1.4,1,2.6,1.9,3.7
				c0.9,1.1,2.3,2,4,2.7c1.7,0.7,3.9,1.1,6.5,1.1c1.3,0,2.9-0.2,5-0.6c2-0.4,3-0.8,3-1.1c-2.2-1.2-3.7-2.4-4.5-3.9
				c-0.9-1.4-1.3-2.9-1.3-4.3c0-3,0.9-6.6,2.8-10.7c1.9-4.1,4.1-8.1,6.8-11.9c2.7-3.8,5.5-7.1,8.6-9.7c3.1-2.7,5.9-4,8.3-4
				c0.7,0,1.1,0.7,1.1,2.2c-0.1,3.3-0.7,6.5-1.7,9.5c-1,3-2.1,6-3.1,9.1c-1.1,3-2.1,6.1-3,9.3c-0.9,3.2-1.4,6.6-1.4,10.1
				c0,3.9,1.2,6.5,3.6,7.9c2.4,1.4,5.1,2.1,8.1,2.1c3.2,0,6-0.4,8.5-1.2c2.5-0.8,3.8-1.3,3.8-1.6C164.5,122,163.1,120.9,162.3,119.2
				z"/>
			<path fill="none" stroke="#800F26" stroke-width="1.5" stroke-miterlimit="10" d="M230.8,54.9c0,0.7,0.4,1.4,1.3,1.9
				c0.9,0.6,2.3,0.9,4.3,0.9c3.6,0,6.3-0.7,8-2.2c1.7-1.4,2.7-2.5,3-3.2c0.9-2.4,1.8-4.9,2.7-7.4c0.9-2.5,1.4-4.7,1.4-6.6
				c0-2.2-0.8-3.6-2.4-4.2c-1.6-0.6-3.2-1-4.7-1c-2.9,0-5.6,0.4-8.1,1.1c-2.5,0.7-3.8,1.2-3.8,1.5c0,0.3,0.4,0.4,1.3,0.4
				s1.3,0.6,1.3,1.9c0,1.4-0.5,3.6-1.6,6.4C232.5,47.2,231.6,50.7,230.8,54.9z"/>
			<path fill="none" stroke="#800F26" stroke-width="1.5" stroke-miterlimit="10" d="M308.1,97.8c-0.9,0.1-1.5,1.2-2.1,3
				c-0.5,1.9-1.3,3.9-2.3,6.2c-1,2.2-2.4,4.3-4.3,6.2c-1.9,1.9-4.5,2.8-8,2.8c-1,0-1.5-0.6-1.5-1.7c0-0.4,0.5-1.9,1.5-4.3
				c1-2.4,2.1-5.1,3.3-7.9c1.2-2.8,2.8-6.6,4.6-11.3c0.4-0.9,0.6-1.6,0.6-2.2c0-1.4-0.6-2.8-1.8-4.1c-1.2-1.3-2.7-2.4-4.3-3.3
				c-1.7-0.9-3.4-1.7-5.2-2.2c-1.8-0.5-3.3-0.8-4.4-0.8c-0.9,0-1.3,0.1-1.3,0.4c0,0.1,0.1,0.4,0.3,0.6c0.2,0.3,0.3,0.8,0.3,1.5
				c0,2.2-0.4,5.1-1.2,8.7c-0.8,3.7-2.1,7.3-3.9,10.8c-1.8,3.5-4.1,6.6-6.8,9.2c-2.7,2.6-6,3.9-9.9,3.9c-1.4,0-2.9-0.6-4.3-1.8
				c-1.4-1.2-2.2-3.9-2.2-8.1c0-5.2,1.2-9.5,3.6-13.1c2.4-3.5,5.1-6.4,8.2-8.5c3.1-2.2,6.2-3.7,9.3-4.6c3.1-0.9,5.4-1.5,6.8-1.6
				c5.2,0,8.8,0.4,10.9,1.1c2.1,0.7,3.1,1.2,3.1,1.5c0.9-1.9,1.3-3.8,1.3-5.8c0-3.7-1.5-6.9-4.5-9.4c-3-2.5-7.1-3.8-12.1-3.8
				c-5.5,0-10.6,1.3-15.3,3.8c-4.8,2.5-9,5.8-12.6,9.8c-3.7,4-6.5,8.6-8.6,13.6c-2.1,5-3.1,10.1-3.1,15.3c0,2.4,0.3,4.7,0.8,6.9
				c-0.8,1.5-1.8,2.9-2.9,4.2c-1.5,1.8-3.5,2.7-5.9,2.7c-1.3,0-2.3-0.4-3.1-1.1c-0.8-0.7-1.2-1.7-1.2-2.8c0-0.7,0.2-1.4,0.6-2.2
				c0.9-3.5,2-6.8,3.3-10.1c1.4-3.3,2.8-6.5,4.2-9.7c1.4-3.2,2.7-6.2,3.7-9c1-2.8,1.5-5.4,1.5-7.7c0-2.3-0.5-4.2-1.5-5.8
				c-1-1.6-2.3-2.9-4-3.9c-1.7-1-3.5-1.7-5.5-2.2c-2-0.4-4.1-0.6-6.3-0.6c-3.9,0-5.8,0.3-5.8,0.9c0,0.3,0.3,0.4,0.8,0.4
				c0.5,0,1,0.1,1.5,0.3c0.5,0.2,1,0.6,1.5,1.2c0.5,0.6,0.8,1.5,0.8,2.8c0,3.6-0.5,7.3-1.6,11c-1.1,3.7-2.3,7.5-3.6,11.3
				c-0.1,0.4-0.2,0.7-0.4,1.1c-0.6-0.1-1.3-0.2-1.9-0.3c-1.1-0.3-2.3-0.8-3.6-1.5c1.2-4.5,1.8-8.6,2.1-12.4c0.2-3.8,0.3-6.6,0.3-8.3
				c0-1.6-0.1-3.3-0.4-5.2c-0.3-1.9-0.8-3.6-1.4-5.1c-0.6-1.5-1.6-2.8-2.8-3.8c-1.2-1-2.7-1.5-4.4-1.5c-1.6,0-3.1,0.6-4.4,1.7
				c-1.4,1.2-2.6,2.6-3.6,4.4c-1,1.8-1.8,3.8-2.4,6c-0.6,2.2-0.9,4.5-0.9,6.8c0,3.9,0.8,7.9,2.4,12c1.6,4.1,4.2,7.3,8,9.6
				c-2.4,7.2-5.8,12.8-10,16.7c-4.2,4-8.1,5.9-11.6,5.9c-0.7,0-1.3-0.2-1.6-0.5c-0.4-0.4-0.5-1.3-0.5-2.9c0-1.9,0.3-3.8,1-5.9
				c0.6-2.1,1.4-4.2,2.3-6.3c0.9-2.1,1.7-4.1,2.6-5.9c0.9-1.9,1.6-3.6,2.2-5.2c1-2.9,1.8-5.5,2.5-7.8c0.6-2.3,1-4.6,1-6.9
				c0-2.6-0.5-4.7-1.5-6.4c-1-1.7-2.3-3-3.9-4c-1.6-1-3.5-1.7-5.6-2.1c-2.2-0.4-4.4-0.5-6.7-0.5c-1.2,0-2.3,0-3.3,0.1
				c-1.1,0.1-1.6,0.3-1.6,0.5c0,0.1,0.2,0.3,0.6,0.4c0.4,0.1,0.9,0.4,1.5,0.9c0.6,0.4,1.1,1.1,1.5,2.1c0.4,0.9,0.6,2.3,0.6,4
				c0,1.2-0.1,2.4-0.4,3.8c-0.3,1.4-0.6,3.1-1.1,5.1c-0.4,1.7-1.1,4.2-1.9,7.6c-0.9,3.3-1.7,6.8-2.6,10.4c-0.9,3.6-1.7,6.8-2.4,9.7
				c-0.7,2.9-1.2,4.7-1.3,5.6c-0.1,0.6-0.2,1.1-0.2,1.6c0,0.5,0,1,0,1.4c0,4.3,1.4,7,4.3,8.2c2.9,1.2,6.2,1.7,9.9,1.7
				c4.6,0,8.6-1.1,12.1-3.2s6-4.2,7.6-6c1.7-1.7,3.2-3.3,4.3-4.9c1.2-1.5,2.2-3,3.1-4.4c0.9-1.4,1.8-3,2.5-4.7
				c0.7-1.7,1.4-3.7,2.2-5.8c0.7,0.6,1.8,1,3.1,1.2c0.8,0.1,1.7,0.2,2.6,0.3c-0.4,1.4-0.9,2.8-1.3,4.2c-1.1,3.7-1.6,7.3-1.6,10.8
				c0,1.4,0.2,2.9,0.5,4.4c0.4,1.5,1,2.9,1.8,4.1c0.9,1.2,2.1,2.2,3.8,3c1.7,0.8,3.8,1.2,6.4,1.2c5.3,0,9.5-1.2,12.6-3.6
				c2.3-1.7,4.2-3.6,5.7-5.6c0.4,0.7,0.7,1.3,1.1,1.9c2.7,4.1,6.8,6.2,12.3,6.2c0.9,0,1.9-0.1,3.2-0.3s2.8-0.7,4.4-1.5
				c1.7-0.8,3.3-1.9,5.1-3.2c1.7-1.4,3.5-3.2,5.2-5.5l0.4-0.9c0,0.4,0.1,1.3,0.3,2.6c0.2,1.3,0.7,2.6,1.4,4c0.7,1.4,1.8,2.6,3.2,3.7
				c1.4,1.1,3.5,1.6,6,1.6c3.9,0,7.5-1.2,10.8-3.7c3.3-2.4,5.8-5.3,7.6-8.4c0-0.1,0.2-0.6,0.5-1.4c0.4-0.8,0.8-1.7,1.2-2.7
				c0.4-1,0.8-2.1,1.2-3.2c0.4-1.2,0.5-2.2,0.5-3C309.8,98.6,309.3,97.8,308.1,97.8z M208.5,77.6c-0.2,2.6-0.5,4.4-0.8,5.4
				c-0.4-0.9-0.7-2.4-0.8-4.7c-0.1-2.3-0.1-4.2-0.1-5.8c0-1.9,0.4-2.8,1.1-2.8c0.3,0,0.5,0.1,0.6,0.4c0.1,0.3,0.2,1,0.2,2.2
				C208.8,73.2,208.7,75,208.5,77.6z"/>
		</g>
	</g>
	<g>
		<path fill="none" stroke="#800F26" stroke-width="1.5" stroke-miterlimit="10" d="M158,270c-2.7-3.6-7-5.4-12.9-5.4
			c-0.3,0-1.2,0.1-2.6,0.3s-3,0.5-4.7,1c-1.6,0.4-3.1,1-4.3,1.6c-1.3,0.6-1.9,1.4-1.9,2.2v0.2c0.8,0.6,1.6,1.9,2.2,4
			c0.6,2.1,1.2,4.4,1.7,6.8c0.5,2.4,1,4.6,1.4,6.5c0.4,1.9,0.8,2.9,1.3,2.9c0.6,0,0.8-1.2,0.8-3.6c0-0.7,0-1.7-0.1-3
			c-0.1-1.3-0.2-2.6-0.3-3.9c-0.1-1.3-0.4-2.5-0.6-3.6c-0.1-0.3-0.2-0.6-0.3-0.8c0.9,1.7,1.5,3.5,2,5.6c0.6,2.7,0.8,5.4,0.8,8.3
			c0,7.2-1.1,13.6-3.3,19.2c-2.2,5.6-5.1,10.3-8.6,14.2c-3.5,3.9-7.6,7-12.1,9.2c-4.5,2.3-9.1,3.7-13.8,4.2
			c-4.2-0.1-7.8-1.2-10.8-3.2c-3-2-5.4-4.4-7.3-7.4c-1.9-3-3.3-6.2-4.2-9.9c-0.9-3.6-1.4-7-1.4-10.3c0-6.6,1.4-13.1,4.2-19.4
			c2.8-6.3,6.6-11.9,11.4-16.7c4.8-4.9,10.4-8.8,16.7-11.8c6.4-3,13.1-4.4,20.3-4.4c4,0,7.1,0.4,9.5,1.2c2.4,0.8,4.2,1.7,5.5,2.6
			c1.3,1,2.2,2,2.8,3c0.6,1,1.1,1.8,1.5,2.3c2.7-3,4.5-5.6,5.5-7.9c1-2.3,1.5-4.4,1.5-6.2c0-4.5-2.3-8.2-6.8-11.1
			c-4.5-2.9-10.7-4.3-18.4-4.3c-2.5,0-6.1,0.5-10.6,1.4c-4.5,0.9-9.4,2.5-14.7,4.7c-5.3,2.2-10.7,5.1-16.1,8.7
			c-5.4,3.6-10.3,8-14.7,13.2c-4.4,5.2-8,11.4-10.8,18.5c-2.8,7.1-4.2,15.4-4.2,24.7c0,5.7,0.8,11.2,2.3,16.5
			c1.6,5.4,3.8,10.2,6.9,14.4c3,4.2,6.8,7.7,11.3,10.3c4.5,2.6,9.7,3.9,15.5,3.9c4,0,7.8-0.7,11.5-2.1c3.7-1.4,7.2-3.3,10.5-5.5
			c3.2-2.3,6.2-4.9,9-7.8c2.8-3,5-6.1,6.9-9.3c-0.3,1.3-0.6,2.9-1.1,4.8s-0.6,3.7-0.6,5.4c0,1.8,0.4,3.3,1.2,4.4
			c0.8,1.1,1.8,2,3.1,2.6c1.3,0.6,2.7,1.1,4.3,1.3c1.6,0.2,3.3,0.3,5,0.3c1.7,0,3.3-0.1,4.9-0.3c1.6-0.2,2.3-0.5,2.3-1
			c-0.3,0.1-1-0.6-2.2-2.2c-1.2-1.6-1.8-4-1.8-7.1c0-3.5,0.6-7.3,1.8-11.3c1.2-4,2.5-8.2,3.9-12.4c1.4-4.2,2.7-8.5,3.9-12.7
			c1.2-4.2,1.8-8.4,1.8-12.5C162.1,277.9,160.7,273.6,158,270z"/>
		<path fill="none" stroke="#800F26" stroke-width="1.5" stroke-miterlimit="10" d="M251.6,337.6c-0.8-0.4-1.6-0.9-2.5-1.7
			c-0.9-0.8-1.8-1.9-2.5-3.5c-0.8-1.6-1.2-3.7-1.2-6.6c0-2.3,0.5-5.3,1.4-9.2c0.9-3.9,1.9-7.8,3-11.7c1.1-3.9,2-7.5,3-10.8
			c0.9-3.3,1.4-5.5,1.4-6.7c0-3-0.5-5.5-1.6-7.5c-1.1-2-2.9-3.1-5.6-3.1c-2.3,0-4.8,0.6-7.5,1.8c-2.8,1.2-5.5,2.9-8.3,5
			s-5.4,4.6-8,7.5c-2.6,2.9-5,6-7.1,9.2c0.7-2.8,1.6-5.7,2.8-8.6c1.1-2.9,1.7-5.9,1.7-9c0-2.8-0.6-5.3-1.9-7.3
			c-1.3-2-3.1-3.1-5.5-3.1c-2,0-4.1,0.5-6.2,1.6c-2.2,1.1-4.4,2.5-6.8,4.3c-2.3,1.8-4.6,4-6.8,6.5c-2.2,2.5-4.2,5.1-6,7.7
			c0.3-1.6,0.5-2.9,0.7-4c0.2-1.1,0.3-2.3,0.3-3.4c0-2.7-0.5-4.8-1.5-6.4c-1-1.6-2.3-2.8-3.8-3.6c-1.6-0.8-3.3-1.4-5.2-1.6
			c-1.9-0.2-3.8-0.3-5.8-0.3c-1.3,0-2.3,0-3,0.1c-0.7,0.1-1.2,0.2-1.5,0.3c-0.4,0.1-0.6,0.3-0.4,0.4c0,0.3,0.2,0.4,0.5,0.4
			c0.4,0,0.8,0.1,1.3,0.3c0.5,0.2,0.9,0.6,1.3,1.2c0.4,0.6,0.5,1.5,0.5,2.8c0,3.4-0.5,7-1.5,10.9c-1,3.9-2.1,7.8-3.3,11.9
			c-1.2,4-2.3,8-3.3,12c-1,4-1.5,7.6-1.5,11c0,2.7,0.8,5.2,2.4,7.5c1.6,2.3,5,3.5,10.1,3.5c1.3,0,2.9-0.2,5-0.6
			c2-0.4,3.1-0.8,3.1-1.1c-1.4-0.8-2.5-2-3.4-3.4c-0.8-1.4-1.3-3.2-1.3-5.5c0-1.7,0.8-4.7,2.4-9c1.6-4.3,3.7-8.7,6.1-13.2
			c2.5-4.5,5.2-8.5,8.3-12c3-3.5,6-5.2,8.8-5.2c0.6,0,0.8,0.7,0.8,2.1c0,3.5-0.5,6.9-1.4,10.2c-0.9,3.3-1.9,6.6-3,10s-2,6.9-3,10.5
			c-0.9,3.6-1.4,7.4-1.4,11.3c0,4.2,1.3,7,3.8,8.2c2.5,1.2,5.5,1.8,8.9,1.8c3.5,0,6.2-0.5,8.2-1.5c1.9-1,2.9-1.6,2.9-1.9
			c-4-1.6-5.9-5.2-5.9-11c0-3.1,0.4-7,1.3-11.7c0.7-2.7,1.9-5.4,3.6-8c1.7-2.7,3.6-5.2,5.6-7.4c2-2.3,4.1-4.1,6.2-5.5
			c2.1-1.4,4-2.1,5.7-2.1c1.1,0,1.7,0.5,1.7,1.5c0,1.6-0.4,4-1.3,7.4c-0.8,3.4-1.8,7.1-2.9,11c-1.1,4-2,7.8-3,11.5
			c-0.9,3.7-1.4,6.7-1.6,8.8c-0.1,0.7-0.2,1.3-0.3,1.9c-0.1,0.6-0.1,1.1-0.1,1.7c0,0.7,0.1,1.6,0.4,2.8c0.7,2,2,3.4,3.8,4.2
			c1.8,0.8,4,1.3,6.4,1.3c3.5,0,6.8-0.5,10-1.6c3.1-1.1,4.7-1.9,4.7-2.6C252.7,338.2,252.3,337.9,251.6,337.6z"/>
		<path fill="none" stroke="#800F26" stroke-width="1.5" stroke-miterlimit="10" d="M491.2,311.4c-1,0.1-1.8,1.2-2.3,3.2
			c-0.6,2-1.4,4.1-2.4,6.5c-1.1,2.3-2.5,4.4-4.2,6.4c-1.8,1.9-4.3,2.9-7.7,2.9c-1.4,0-2.3-0.7-2.5-2c-0.3-1.3-0.3-2.9-0.1-4.7
			c0.2-1.8,0.5-3.5,1-5.2c0.4-1.7,0.7-2.9,0.8-3.6c1.4-5.5,3.3-11.3,5.7-17.5c2.4-6.1,4.8-12.2,7.1-18.2c2.3-6,4.3-11.7,6-17.1
			c1.7-5.4,2.5-9.9,2.5-13.6c0-2.5-0.6-4.7-1.8-6.4c-1.2-1.7-2.7-3-4.4-3.9c-1.8-0.9-3.7-1.6-5.7-1.9c-2-0.4-4-0.5-5.8-0.5
			c-2.5,0-4.7,0.2-6.5,0.7c-1.8,0.5-2.6,1-2.6,1.4c0,0.1,0.3,0.5,0.8,1.1c0.6,0.6,1.2,1.5,1.9,2.8c0.7,1.3,1.3,2.9,1.9,4.9
			c0.6,2,0.8,4.3,0.8,7c0,2.8-0.3,5.9-1,9.2c-0.6,3.3-1.8,7.7-3.5,13.2c-3.5-1.8-7.6-2.7-12.1-2.5c-4.5,0.1-9.3,1.6-14.2,4.4
			c-2.4,1.3-4.8,3.1-7.3,5.4c-2.5,2.3-4.7,5.1-6.8,8.2c-2,3.1-3.7,6.6-5.1,10.4c-1.3,3.8-2,7.8-2,12.1c0,1.9,0.1,3.7,0.4,5.4
			c-0.1,0.3-0.2,0.6-0.4,0.9c-1,2.2-2.4,4.2-4.2,6c-1.8,1.8-4.4,2.8-7.8,2.8c-1,0-1.5-0.6-1.5-1.7c0-0.4,0.5-1.8,1.5-4.2
			c1-2.4,2.1-5,3.3-7.7c1.2-2.8,2.7-6.5,4.6-11.1c0.4-0.8,0.6-1.6,0.6-2.1c0-1.4-0.6-2.8-1.8-4c-1.2-1.3-2.6-2.4-4.2-3.3
			c-1.6-0.9-3.3-1.6-5.1-2.1c-1.8-0.5-3.2-0.7-4.3-0.7c-0.8,0-1.3,0.1-1.3,0.4c0,0.1,0.1,0.4,0.3,0.6c0.2,0.3,0.3,0.8,0.3,1.5
			c0,2.1-0.4,5-1.2,8.6c-0.8,3.6-2,7.1-3.8,10.6c-1.8,3.5-4,6.5-6.7,9c-2.7,2.5-5.9,3.8-9.7,3.8c-1.4,0-2.8-0.6-4.2-1.8
			c-1.4-1.2-2.1-3.8-2.1-7.9c0-5.1,1.2-9.4,3.5-12.8c2.3-3.5,5-6.2,8-8.4c3-2.1,6.1-3.6,9.1-4.6c3-0.9,5.3-1.4,6.7-1.6
			c5.1,0,8.6,0.4,10.7,1.1c2,0.7,3.1,1.2,3.1,1.5c0.8-1.8,1.3-3.7,1.3-5.7c0-3.7-1.5-6.7-4.4-9.2c-3-2.5-6.9-3.7-11.9-3.7
			c-5.4,0-10.4,1.2-15,3.7c-4.7,2.5-8.8,5.7-12.4,9.6c-3.6,4-6.4,8.4-8.5,13.3c-2,4.9-3.1,10-3.1,15c0,3.5,0.6,6.7,1.7,9.6
			c-0.6,0.8-1.3,1.5-2,2.2c-2,2-4.8,3-8.2,3c-1.6,0-2.6-0.7-3.1-2c-0.5-1.3-0.7-2.5-0.7-3.5c0-3.4,0.9-7.4,2.6-12.1
			c1.8-4.7,3.9-9.5,6.4-14.5c2.5-5,4.9-10,7.3-14.8c2.4-4.9,4.2-9.2,5.5-13c0.3-1.1,0.4-1.8,0.4-2.1c0-1.1-1-1.9-3-2.3
			c-1.8-0.4-3.5-0.6-5.1-0.6c0.7-0.1,1.6-0.3,2.8-0.5c2.4-0.5,5.3-1,8.6-1.6c3.3-0.6,6.9-1.1,10.7-1.7c3.8-0.6,7.4-1,10.8-1.2
			s6.3-0.2,8.7,0.1c2.4,0.3,3.9,0.9,4.4,1.9l0.4,0.4c0.7,0,1.1-1,1.1-3c0-3-0.9-5.2-2.8-6.8c-1.8-1.6-4.2-2.7-7.1-3.4
			c-2.9-0.7-6-1.1-9.4-1.3c-3.4-0.1-6.6-0.2-9.7-0.2c-2,0-3.8,0-5.4,0.1c-1.6,0.1-3,0.2-4.1,0.3c0-1.3-0.6-2.4-1.7-3.4
			c-1.1-1-2.5-1.8-4-2.5c-1.6-0.7-3.3-1.2-5.1-1.6c-1.8-0.4-3.5-0.5-4.9-0.5c-2.4,0-4.5,0.2-6.2,0.5c-1.8,0.4-2.6,0.7-2.6,1.2
			c0,0.1,0.2,0.3,0.6,0.4c0.4,0.1,0.8,0.6,1.1,1.3c0.3,0.7,0.5,1.5,0.7,2.3c0.2,0.8,0.4,1.6,0.5,2.3c0.1,0.7,0.2,1.2,0.2,1.5
			c-4.7,0-8.2-0.3-10.5-1s-4-1.4-5-2.2c-1-0.8-1.6-1.9-1.7-3.2c-1,0-1.7,0.8-2.2,2.4c-0.5,1.6-0.7,3-0.7,4.1c0,4.1,1.5,7.6,4.6,10.4
			c3,2.8,7.7,4.4,14.1,4.9c-0.8,4.5-2.1,9.3-3.7,14.4c-1.6,5.1-3.3,10.2-5,15.3c-1.7,5.1-3.1,10.1-4.3,14.9
			c-0.8,3.3-1.3,6.5-1.6,9.5c-1.4,0.4-3.3,1-5.9,1.6c1.7-3.8,2.5-7.7,2.5-11.7c0-4-0.5-7.3-1.6-10c-1.1-2.7-2.6-5.1-4.8-7.3
			c-2.1-2.2-4.8-4.3-7.9-6.4c-3.2-2-6.8-4.4-10.9-7.1c0.7-0.7,1.2-1.8,1.5-3.2c0.3-1.4,0.4-2.9,0.4-4.4c0-3.1-0.6-6.1-1.8-9.1
			c-1.2-3-3-4.4-5.4-4.4c-3.7,0-6.7,1.4-9,4.1s-3.5,6.3-3.5,10.7c0,4.1,0.8,7.7,2.4,10.7c1.6,3,3.7,5.7,6.2,7.9
			c-0.4,1.6-1,3.2-1.6,5c-0.6,1.8-1.3,3.4-1.9,4.9c-0.6,1.5-1.3,2.7-2,3.7c-0.7,1-1.3,1.5-1.9,1.5c-3.5,0.3-6.1,1.5-7.6,3.5
			c-1.6,2-2.3,4.4-2.3,7.1c0,0.5,0,0.9,0.1,1.3c-0.3,0.8-0.7,1.6-1.1,2.5c-1,2.1-2.2,4.1-3.7,5.8c-1.5,1.8-3.4,2.6-5.8,2.6
			c-1.3,0-2.3-0.4-3.1-1.1c-0.8-0.7-1.2-1.6-1.2-2.8c0-0.7,0.2-1.4,0.6-2.1c0.8-3.4,1.9-6.7,3.3-10c1.3-3.2,2.7-6.4,4.1-9.5
			c1.4-3.1,2.6-6,3.6-8.8c1-2.8,1.5-5.3,1.5-7.5c0-2.3-0.5-4.2-1.5-5.7c-1-1.6-2.3-2.8-3.9-3.8c-1.6-1-3.4-1.7-5.4-2.1
			c-2-0.4-4-0.6-6.1-0.6c-3.8,0-5.7,0.3-5.7,0.8c0,0.3,0.2,0.4,0.7,0.4c0.5,0,1,0.1,1.5,0.3c0.5,0.2,1,0.6,1.5,1.2
			c0.5,0.6,0.7,1.5,0.7,2.8c0,3.5-0.5,7.1-1.6,10.8c-1.1,3.7-2.2,7.4-3.5,11.1c-1.3,3.7-2.4,7.5-3.5,11.1c-1.1,3.7-1.6,7.2-1.6,10.6
			c0,1.4,0.2,2.9,0.5,4.3c0.4,1.5,1,2.8,1.8,4c0.8,1.2,2.1,2.2,3.7,3c1.6,0.8,3.7,1.2,6.2,1.2c5.2,0,9.4-1.2,12.4-3.5
			c3-2.3,5.4-4.9,7-7.6c0-0.1,0.1-0.2,0.1-0.2c1.1,2.4,2.8,4.5,4.9,6.2c4.4,3.5,10,5.2,16.6,5.2c4.5,0,8.8-0.9,12.7-2.8
			c4-1.8,7.2-4.2,9.7-7.2c3.7-0.4,6.5-0.9,8.5-1.4c0.2-0.1,0.4-0.1,0.7-0.2c0.1,1.2,0.2,2.3,0.5,3.5c0.4,1.6,1,2.9,1.9,4.1
			c0.9,1.2,2.2,2.2,3.9,3c1.7,0.8,3.9,1.2,6.6,1.2c5.5,0,9.9-1.2,13.2-3.5c1.8-1.2,3.3-2.6,4.7-4c0,0.1,0.1,0.1,0.1,0.2
			c2.7,4,6.7,6,12.1,6c0.8,0,1.9-0.1,3.2-0.3c1.3-0.2,2.7-0.7,4.3-1.5c1.6-0.8,3.3-1.8,5-3.2c1.7-1.3,3.4-3.1,5.1-5.4l0.4-0.8
			c0,0.4,0.1,1.3,0.3,2.5c0.2,1.3,0.7,2.6,1.4,3.9c0.7,1.3,1.8,2.5,3.2,3.6c1.4,1.1,3.4,1.6,5.9,1.6c3.8,0,7.3-1.2,10.6-3.6
			c2.8-2.1,5.1-4.4,6.7-7.1c0.6,1.5,1.4,3,2.3,4.2c2.8,3.7,6.1,6.1,10,7c3.9,0.9,7.9,0.4,12-1.6c4.1-2,7.5-5.6,10.2-10.8
			c0.1,0,0.2,0.7,0.3,2.2c0.1,1.5,0.5,3.1,1.3,4.8c0.8,1.7,2,3.3,3.8,4.8c1.8,1.5,4.5,2.2,8.2,2.2c2.1,0,4.1-0.4,5.8-1.3
			c1.8-0.8,3.4-1.8,4.9-3s2.7-2.3,3.7-3.4c1-1.1,1.7-2,2.1-2.8c2.4-3.8,3.7-6.8,4-8.9c0.3-2.1,0.6-3.6,0.8-4.4
			c-0.1-0.1-0.2-0.6-0.3-1.4C492.5,311.8,492.1,311.4,491.2,311.4z M299.4,266.9c0.1-0.6,0.2-1.1,0.5-1.5c0.3,0.3,0.5,0.8,0.6,1.6
			c0.1,0.8,0.2,1.5,0.2,2.2c0,0.7,0,1.5-0.1,2.3c-0.1,0.8-0.2,1.4-0.5,1.7c-0.6-0.8-0.9-1.7-1-2.4c-0.1-0.8-0.1-1.6-0.1-2.4
			C299.3,268,299.4,267.5,299.4,266.9z M307.1,327.2c-2,1.1-4.2,1.6-6.5,1.6c-3.3,0-6-0.7-8.2-2c-2.2-1.3-3.3-3.8-3.3-7.3
			c0-1.7,0.6-3,1.8-3.8c1.2-0.8,2.6-1.3,4.1-1.3c1.7,0,3.2,0.2,4.7,0.7c1.4,0.5,2.8,1.1,4,1.9c1.3,0.8,2.6,1.7,4,2.6
			c1.4,1,3,2,4.9,3C311,324.6,309.1,326.1,307.1,327.2z M315.4,318c-1.7-0.8-3.1-1.7-4.2-2.5c-1.1-0.8-2.3-1.7-3.4-2.5
			c-1.1-0.8-2.5-1.8-4.1-2.8c-1.6-1-3.8-2-6.7-3.2c1.3-2,2.3-3.8,3.1-5.4c0.8-1.6,1.7-3.9,2.9-6.9c0.1,0.1,0.9,0.5,2.3,1.2
			c1.4,0.6,3,1.7,4.7,3.1c1.7,1.4,3.2,3.2,4.6,5.3c1.3,2.1,2,4.7,2,7.6C316.5,313.5,316.1,315.6,315.4,318z M463,299
			c-0.9,3.7-1.7,7.5-2.4,11.1c-0.6,1.8-1.5,3.8-2.8,5.8c-1.3,2-2.8,3.9-4.4,5.6c-1.7,1.7-3.5,3.1-5.3,4.1c-1.8,1.1-3.6,1.6-5.3,1.6
			c-1.6,0-3.1-0.8-4.6-2.3c-1.5-1.6-2.2-4.8-2.2-9.7c0-4.1,0.8-7.9,2.5-11.4c1.7-3.5,4-6.6,6.8-9.1c2.8-2.5,6-4.4,9.6-5.6
			c3.6-1.2,7.2-1.6,10.9-1.2C464.8,291.6,463.9,295.3,463,299z"/>
	</g>
	<g>
		<path fill="none" stroke="#800F26" stroke-miterlimit="10" d="M205.9,203.3c-0.7-0.3-1.5-0.8-2.3-1.6c-0.8-0.7-1.6-1.8-2.3-3.2
			c-0.7-1.4-1.1-3.4-1.1-6c0-2.1,0.4-4.9,1.3-8.5c0.8-3.6,1.8-7.1,2.7-10.7c1-3.6,1.9-6.9,2.7-9.9c0.8-3,1.3-5.1,1.3-6.1
			c0-2.7-0.5-5-1.5-6.9c-1-1.9-2.7-2.8-5.2-2.8c-2.1,0-4.4,0.6-6.9,1.7c-2.5,1.1-5.1,2.6-7.6,4.6c-2.5,1.9-5,4.3-7.4,6.9
			c-2.4,2.7-4.6,5.5-6.5,8.5c0.6-2.6,1.5-5.2,2.5-7.9c1-2.7,1.6-5.4,1.6-8.3c0-2.6-0.6-4.8-1.8-6.7c-1.2-1.9-2.9-2.8-5.1-2.8
			c-1.8,0-3.7,0.5-5.7,1.5c-2,1-4.1,2.3-6.2,4c-2.1,1.7-4.2,3.7-6.2,5.9c-2,2.3-3.9,4.6-5.5,7.1c0.3-1.4,0.5-2.7,0.7-3.7
			c0.2-1,0.3-2.1,0.3-3.1c0-2.5-0.5-4.4-1.4-5.8c-0.9-1.4-2.1-2.5-3.5-3.3c-1.4-0.8-3-1.3-4.8-1.5c-1.8-0.2-3.5-0.3-5.4-0.3
			c-1.2,0-2.1,0-2.7,0.1c-0.7,0.1-1.1,0.2-1.4,0.3c-0.4,0.1-0.5,0.3-0.4,0.4c0,0.3,0.2,0.4,0.5,0.4c0.3,0,0.7,0.1,1.2,0.3
			c0.5,0.2,0.8,0.6,1.2,1.1c0.3,0.5,0.5,1.4,0.5,2.5c0,3.1-0.5,6.5-1.4,10c-0.9,3.6-1.9,7.2-3,10.9c-1.1,3.7-2.1,7.4-3,11
			c-0.9,3.6-1.4,7-1.4,10.1c0,2.5,0.7,4.8,2.2,6.9c1.5,2.1,4.6,3.2,9.2,3.2c1.2,0,2.7-0.2,4.6-0.6c1.9-0.4,2.8-0.7,2.8-1
			c-1.3-0.8-2.3-1.8-3.1-3.1c-0.8-1.3-1.2-3-1.2-5.1c0-1.6,0.7-4.3,2.2-8.3c1.5-4,3.4-8,5.6-12.2c2.3-4.2,4.8-7.8,7.6-11
			c2.8-3.2,5.5-4.8,8.1-4.8c0.5,0,0.8,0.7,0.8,1.9c0,3.2-0.4,6.4-1.3,9.3c-0.8,3-1.8,6-2.7,9.1c-1,3.1-1.9,6.3-2.7,9.6
			c-0.8,3.3-1.3,6.8-1.3,10.4c0,3.9,1.2,6.4,3.5,7.5c2.3,1.1,5.1,1.7,8.2,1.7c3.2,0,5.7-0.5,7.5-1.4c1.8-0.9,2.6-1.5,2.6-1.8
			c-3.6-1.4-5.5-4.8-5.5-10.1c0-2.9,0.4-6.4,1.2-10.7c0.6-2.5,1.8-4.9,3.3-7.4c1.6-2.5,3.3-4.7,5.2-6.8c1.9-2.1,3.8-3.8,5.7-5.1
			c1.9-1.3,3.7-1.9,5.3-1.9c1,0,1.6,0.5,1.6,1.4c0,1.4-0.4,3.7-1.2,6.8c-0.8,3.1-1.7,6.5-2.6,10.1c-1,3.6-1.9,7.2-2.7,10.6
			c-0.8,3.4-1.3,6.1-1.5,8.1c-0.1,0.7-0.2,1.2-0.3,1.8c-0.1,0.5-0.1,1-0.1,1.6c0,0.6,0.1,1.5,0.4,2.5c0.6,1.8,1.8,3.1,3.5,3.9
			c1.7,0.8,3.6,1.2,5.8,1.2c3.2,0,6.3-0.5,9.1-1.5c2.9-1,4.3-1.8,4.3-2.4C207,203.9,206.6,203.7,205.9,203.3z"/>
		<path fill="none" stroke="#800F26" stroke-miterlimit="10" d="M300.1,198.4c-0.7-1.6-1.1-3.4-1.1-5.6c0-2.2,0.3-4.7,0.8-7.4
			c0.5-2.7,1.2-5.6,1.9-8.6c0.8-3,1.6-6,2.3-9.1c0.8-3,1.4-6,1.9-8.9c0.3-0.6,0.4-1.3,0.4-1.9c0-0.6,0-1.3,0-1.9
			c0-2.6-0.7-4.6-1.9-6.1c-1.3-1.5-3-2.2-5.1-2.2c-1.2,0-2.7,0.4-4.6,1.2c-1.9,0.8-3.9,1.8-5.9,3.2c-2.1,1.4-4.2,3-6.2,4.9
			c-2.1,1.9-4,3.9-5.6,6.1c0-1,0.1-2.1,0.4-3.1c0.3-1,0.4-1.9,0.4-2.7c0-2.7-0.5-4.9-1.5-6.4s-2.2-2.7-3.7-3.5
			c-1.5-0.8-3.2-1.2-5.1-1.4c-1.9-0.1-3.7-0.2-5.5-0.2c-1.6,0-2.9,0.1-3.9,0.4c-0.5,0.1-1,0.2-1.4,0.2c0,0.3,0.2,0.4,0.7,0.4
			c0.5,0,0.9,0.1,1.4,0.3c0.5,0.2,0.9,0.6,1.4,1.2c0.5,0.6,0.7,1.5,0.7,2.6c0,2.3-0.9,6.7-2.6,12.9c-1.2,4.2-2.4,9.2-3.7,14.9
			c-1.6,2.7-3.7,5.4-6.4,8.2c-2.7,2.8-5.7,5.2-9.1,7.3c-3.4,2.1-7.1,3.1-11,3.1c-3.2,0-5.5-1-6.9-3c-1.4-2-2-4.3-2-6.9
			c0-1,0.1-2.1,0.4-3.2c0.3-1.1,0.6-2.2,1-3.2c2.3,0.8,4.9,1.2,7.6,1.2c3.1,0,6.2-0.5,9.1-1.5c3-1,5.7-2.4,8.1-4.3
			c2.4-1.9,4.3-4.2,5.8-6.9c1.5-2.7,2.2-5.8,2.2-9.1c0-4.7-1.5-8.4-4.6-11.3c-3.1-2.9-6.5-4.3-10.4-4.3c-2.6,0-5.7,0.7-9.3,2.2
			c-3.6,1.5-7.1,3.8-10.4,7c-3.3,3.2-6.1,7.2-8.4,12.1c-2.3,4.9-3.4,10.7-3.4,17.4c0,1.3,0.2,3,0.5,5.2c0.3,2.1,1,4.3,2,6.4
			c1,2.1,2.5,4.1,4.5,5.7c1.9,1.7,4.6,2.6,8,2.7c4.4,0,8.7-0.7,12.7-2.1c4.1-1.4,7.8-3.4,11.2-6c2.4-1.9,4.7-4,6.7-6.4
			c0,0.1,0,0.1,0,0.2c-0.1,0.7-0.2,1.2-0.2,1.8c0,1.3,0.2,2.6,0.5,3.8c0.3,1.2,0.9,2.3,1.8,3.3c0.8,1,2,1.8,3.6,2.4
			c1.6,0.6,3.5,1,5.8,1c1.2,0,2.7-0.2,4.5-0.6c1.8-0.4,2.7-0.7,2.7-1c-1.9-1-3.3-2.2-4.1-3.5c-0.8-1.3-1.2-2.6-1.2-3.9
			c0-2.7,0.8-5.9,2.5-9.6c1.7-3.7,3.7-7.3,6.1-10.7c2.4-3.4,5-6.4,7.8-8.8c2.8-2.4,5.3-3.6,7.5-3.6c0.6,0,1,0.7,1,1.9
			c-0.1,3-0.7,5.8-1.6,8.6c-0.9,2.7-1.8,5.5-2.8,8.2c-1,2.7-1.9,5.5-2.7,8.4c-0.8,2.9-1.3,5.9-1.3,9.1c0,3.5,1.1,5.9,3.2,7.1
			c2.1,1.2,4.6,1.8,7.3,1.8c2.9,0,5.4-0.4,7.7-1.1c2.3-0.7,3.4-1.2,3.4-1.5C302.1,200.9,300.9,199.9,300.1,198.4z M223.6,171.1
			c0.9-1.8,2-3.6,3.4-5.5c1.4-1.8,2.8-3.4,4.3-4.8c1.5-1.4,2.8-2.1,4-2.2c1.8-0.6,3.4-0.6,4.7,0.2c1.3,0.8,1.9,2.2,1.9,4.3
			c0,2.7-0.6,4.9-1.8,6.6c-1.2,1.7-2.6,3-4.2,4c-1.6,1-3.3,1.7-5.2,2c-1.8,0.4-3.4,0.6-4.7,0.6c-1,0-1.9-0.1-2.7-0.3
			c-0.8-0.2-1.2-0.4-1.2-0.7C222.2,174.4,222.6,173,223.6,171.1z"/>
		<path fill="none" stroke="#800F26" stroke-miterlimit="10" d="M487.3,171.4c-0.4-0.2-0.8-0.4-1.2-0.5c-0.4,0-0.7,0.1-1,0.4
			l-0.2,0.2c-0.3,1.3-1.2,3.3-2.8,6c-1.6,2.7-3.8,5.5-6.4,8.3c-2.7,2.8-5.7,5.2-9.1,7.3c-3.4,2.1-7.1,3.1-11,3.1c-3.2,0-5.5-1-6.9-3
			c-1.4-2-2-4.3-2-6.9c0-1,0.1-2.1,0.4-3.2c0.3-1.1,0.6-2.2,1-3.2c2.3,0.8,4.9,1.2,7.6,1.2c3.1,0,6.2-0.5,9.1-1.5
			c3-1,5.7-2.4,8.1-4.3c2.4-1.9,4.3-4.2,5.8-6.9c1.5-2.7,2.2-5.8,2.2-9.1c0-4.7-1.5-8.4-4.6-11.3c-3-2.9-6.5-4.3-10.4-4.3
			c-2.6,0-5.7,0.7-9.3,2.2c-3.6,1.5-7.1,3.8-10.4,7c-3.3,3.2-6.1,7.2-8.4,12.1c-2.3,4.9-3.4,10.7-3.4,17.4c0,1.2,0.2,2.8,0.4,4.8
			c-0.8,2-1.9,3.9-3.2,5.5c-1.3,1.7-3.1,2.5-5.4,2.5c-1.7,0-2.7-0.5-3.1-1.4c-0.4-0.9-0.6-1.8-0.6-2.7c0.5-2.9,1.3-5.9,2.4-9.1
			c1.1-3.2,2.2-6.3,3.4-9.2c1.2-3,2.2-5.8,3.1-8.6c0.9-2.7,1.4-5.1,1.4-7.2c0-2.1-0.4-3.8-1.3-5.3c-0.8-1.4-2-2.6-3.4-3.5
			c-1.4-0.9-3-1.6-4.8-1.9c-1.8-0.4-3.6-0.6-5.5-0.6c-1.8,0-3.3,0.1-4.6,0.3c-1.2,0.2-1.8,0.4-1.8,0.5c0,0.3,0.2,0.4,0.7,0.4
			c0.5,0,0.9,0.1,1.5,0.2c0.5,0.1,1,0.5,1.5,1.1c0.5,0.6,0.7,1.5,0.7,2.8c0,1-0.1,2.4-0.3,4c-0.2,1.6-0.6,3.5-1.3,5.7
			c-0.3,1-0.7,2.8-1.3,5.3c-0.6,2.5-1.2,5.2-1.8,8.3c-0.6,3.1-1.4,6.3-2.1,9.6c-0.3,1.2-0.5,2.3-0.8,3.4c0,0,0,0,0,0
			c-0.9,2-2.2,3.9-3.9,5.5c-1.7,1.7-4.1,2.5-7.2,2.5c-0.9,0-1.4-0.5-1.4-1.6c0-0.4,0.5-1.7,1.4-3.9c0.9-2.2,1.9-4.6,3-7.1
			c1.1-2.5,2.5-5.9,4.2-10.2c0.4-0.8,0.6-1.4,0.6-1.9c0-1.3-0.6-2.5-1.7-3.7c-1.1-1.2-2.4-2.2-3.9-3c-1.5-0.8-3-1.5-4.7-1.9
			c-1.6-0.5-3-0.7-4-0.7c-0.8,0-1.2,0.1-1.2,0.4c0,0.1,0.1,0.3,0.3,0.6c0.2,0.3,0.3,0.7,0.3,1.4c0,1.9-0.4,4.6-1.1,7.9
			c-0.7,3.3-1.9,6.6-3.5,9.7c-1.6,3.2-3.7,5.9-6.1,8.3c-2.5,2.3-5.5,3.5-9,3.5c-1.3,0-2.6-0.6-3.9-1.7c-1.3-1.1-1.9-3.5-1.9-7.3
			c0-4.7,1.1-8.6,3.2-11.8c2.1-3.2,4.6-5.7,7.4-7.7c2.8-1.9,5.6-3.3,8.4-4.2c2.8-0.8,4.8-1.3,6.1-1.5c4.7,0,7.9,0.3,9.8,1
			c1.9,0.7,2.8,1.1,2.8,1.4c0.8-1.7,1.2-3.4,1.2-5.3c0-3.4-1.4-6.2-4.1-8.5c-2.7-2.3-6.4-3.4-10.9-3.4c-4.9,0-9.5,1.1-13.8,3.4
			c-4.3,2.3-8.1,5.2-11.4,8.9c-3.3,3.6-5.9,7.7-7.8,12.3c-1.9,4.5-2.8,9.1-2.8,13.8c0,1.3,0.1,2.6,0.3,3.9c-1.2,0.4-3,0.8-5.1,1.4
			c1.6-3.5,2.3-7.1,2.3-10.7c0-3.6-0.5-6.7-1.5-9.1c-1-2.5-2.4-4.7-4.4-6.7c-1.9-2-4.4-4-7.3-5.8c-2.9-1.9-6.3-4.1-10-6.5
			c0.6-0.6,1.1-1.6,1.4-2.9c0.3-1.3,0.4-2.7,0.4-4.1c0-2.9-0.6-5.6-1.7-8.4c-1.1-2.7-2.8-4.1-5-4.1c-3.4,0-6.1,1.3-8.3,3.8
			c-2.1,2.5-3.2,5.8-3.2,9.8c0,3.8,0.7,7,2.2,9.8c1.5,2.8,3.4,5.2,5.7,7.3c-0.4,1.4-0.9,3-1.5,4.6c-0.6,1.6-1.2,3.1-1.8,4.5
			c-0.6,1.4-1.2,2.5-1.8,3.4c-0.7,0.9-1.2,1.4-1.8,1.4c-3.2,0.3-5.6,1.3-7,3.2c-1.4,1.9-2.1,4.1-2.1,6.5c0,5.8,2,10.4,6.1,13.5
			c4.1,3.2,9.2,4.8,15.3,4.8c4.2,0,8-0.8,11.7-2.5c3.6-1.7,6.6-3.9,9-6.6c3.4-0.4,6-0.8,7.8-1.3c0.6-0.2,1.2-0.3,1.7-0.5
			c0.6,1.5,1.3,3,2.2,4.4c2.5,3.7,6.2,5.5,11.1,5.5c0.8,0,1.8-0.1,2.9-0.3s2.5-0.7,4-1.4c1.5-0.7,3-1.7,4.6-2.9
			c1.6-1.2,3.1-2.9,4.7-5l0.4-0.8c0,0.4,0.1,1.2,0.3,2.3c0.2,1.2,0.6,2.4,1.3,3.6c0.6,1.2,1.6,2.3,2.9,3.3c1.3,1,3.1,1.5,5.5,1.5
			c3.5,0,6.7-1.1,9.7-3.3c1-0.7,1.8-1.5,2.7-2.2c-0.4,1.7-0.7,3.2-1,4.5c-0.5,1.9-0.7,2.9-0.7,3c-1.4-0.4-2.9-0.7-4.5-1
			c-1.6-0.3-3.2-0.4-5.1-0.4c-2.9,0-5.7,0.4-8.6,1.1c-2.9,0.7-5.4,1.8-7.7,3.3c-2.3,1.5-4.1,3.4-5.5,5.8c-1.4,2.4-2.1,5.3-2.1,8.7
			c0,4.2,1.6,7.6,4.9,10.2c3.2,2.7,7.1,4,11.7,4c4,0,7.6-0.8,10.8-2.3c3.2-1.6,5.9-3.3,8.1-5.4c2.2-2,4-4,5.4-6
			c1.4-2,2.2-3.5,2.6-4.4c2.3,1.7,5,3.4,8,5.2c3,1.8,6.5,2.8,10.5,3.2c4.4,0,7.5-1.2,9.3-3.7c1.8-2.5,2.7-5,2.7-7.6
			c0-1.2-0.2-2.1-0.5-2.9c-0.3-0.8-0.8-1.2-1.5-1.2c-0.3,0-1.1,0.5-2.6,1.5c-1.5,1-3.9,1.5-7.3,1.5c-4,0-7-0.5-9.1-1.4
			c-2-0.9-4.3-1.9-6.7-2.9c0-0.1,0.1-0.6,0.3-1.4s0.4-1.6,0.7-2.3c0.3-0.8,0.5-1.5,0.9-2c0.3-0.6,0.6-0.8,0.9-0.7
			c4.5,0,8.1-1.1,10.8-3.3c2.3-1.9,4.1-3.9,5.5-6.1c0.2,0.4,0.3,0.7,0.5,1.1c1,2.1,2.5,4.1,4.5,5.7c1.9,1.7,4.6,2.6,8,2.7
			c4.4,0,8.7-0.7,12.7-2.1c4.1-1.4,7.8-3.4,11.2-6c3.4-2.6,6.3-5.7,8.9-9.2c2.5-3.6,4.5-7.4,5.9-11.6v-0.6
			C487.9,172.1,487.7,171.6,487.3,171.4z M451.1,171.1c0.9-1.8,2-3.6,3.4-5.5c1.4-1.8,2.8-3.4,4.3-4.8c1.5-1.4,2.8-2.1,4-2.2
			c1.8-0.6,3.4-0.6,4.7,0.2c1.3,0.8,1.9,2.2,1.9,4.3c0,2.7-0.6,4.9-1.8,6.6c-1.2,1.7-2.6,3-4.2,4c-1.6,1-3.3,1.7-5.2,2
			c-1.8,0.4-3.4,0.6-4.7,0.6c-1,0-1.9-0.1-2.7-0.3s-1.2-0.4-1.2-0.7C449.7,174.4,450.2,173,451.1,171.1z M320.8,138.4
			c0.1-0.5,0.2-1,0.5-1.4c0.3,0.3,0.5,0.7,0.6,1.5c0.1,0.7,0.2,1.4,0.2,2c0,0.7,0,1.4-0.1,2.1c-0.1,0.8-0.2,1.3-0.5,1.6
			c-0.5-0.8-0.8-1.5-0.9-2.2c-0.1-0.7-0.1-1.5-0.1-2.2C320.6,139.4,320.7,139,320.8,138.4z M327.8,193.8c-1.9,1-3.9,1.5-5.9,1.5
			c-3,0-5.5-0.6-7.5-1.8c-2-1.2-3-3.5-3-6.7c0-1.6,0.5-2.7,1.7-3.5c1.1-0.8,2.4-1.2,3.8-1.2c1.6,0,3,0.2,4.3,0.7
			c1.3,0.5,2.5,1,3.7,1.8c1.2,0.7,2.4,1.5,3.7,2.4c1.3,0.9,2.8,1.8,4.5,2.7C331.4,191.4,329.7,192.8,327.8,193.8z M335.5,185.3
			c-1.6-0.8-2.9-1.6-3.9-2.3c-1-0.8-2.1-1.6-3.1-2.3c-1-0.8-2.3-1.6-3.8-2.5c-1.5-0.9-3.5-1.9-6.1-2.9c1.2-1.8,2.1-3.5,2.8-5
			c0.7-1.5,1.6-3.6,2.6-6.3c0.1,0.1,0.8,0.5,2.1,1.1c1.3,0.6,2.7,1.5,4.3,2.8c1.6,1.3,3,2.9,4.2,4.9c1.2,1.9,1.8,4.3,1.8,7
			C336.4,181.3,336.1,183.1,335.5,185.3z M405.9,212c-0.5-0.1-1.1-0.3-1.8-0.4c-0.6-0.1-1.4-0.2-2.3-0.2c-0.6,0-1.2,0.7-1.7,2.1
			c-0.5,1.4-1,2.8-1.7,4.1c-1.8,3.2-3.6,5.3-5.4,6.1c-1.8,0.8-3.5,1.3-5.2,1.3c-1.8,0-3.3-0.2-4.5-0.6c-1.2-0.4-2-0.9-2.6-1.5
			c-0.6-0.6-1-1.2-1.2-1.8c-0.2-0.7-0.3-1.2-0.3-1.6c0-0.1,0.1-0.8,0.2-1.9c0.1-1.2,0.6-2.4,1.5-3.7c0.8-1.3,2.1-2.5,3.9-3.5
			c1.8-1,4.3-1.6,7.7-1.6c1.4,0,3.6,0.2,6.4,0.5c2.9,0.3,5.6,1.4,8.2,3.2C406.9,212.5,406.4,212.3,405.9,212z"/>
		<g>
			<g>
				<path fill="none" stroke="#800F26" stroke-miterlimit="10" d="M440,124c0,2.1-0.3,4.1-1,6c-0.7,1.9-1.6,3.6-2.8,5.2
					c-1.2,1.5-2.6,2.7-4.1,3.6c-1.5,0.9-3.1,1.3-4.8,1.3c-2.3,0-4.3-0.8-5.9-2.3c-1.7-1.6-2.5-3.7-2.5-6.6c0-2,0.4-3.9,1.1-5.8
					c0.7-1.9,1.7-3.6,2.9-5.1c1.2-1.5,2.6-2.7,4.1-3.6c1.6-0.9,3.2-1.3,5-1.3c2.3,0,4.2,0.8,5.7,2.3C439.3,119.3,440,121.4,440,124z
					"/>
			</g>
			<g>
				<path fill="#FFFFFF" d="M443.2,122.3c0,2.1-0.3,4.1-1,6c-0.7,1.9-1.6,3.6-2.8,5.2c-1.2,1.5-2.6,2.7-4.1,3.6
					c-1.5,0.9-3.1,1.3-4.8,1.3c-2.3,0-4.3-0.8-5.9-2.3c-1.7-1.6-2.5-3.7-2.5-6.6c0-2,0.4-3.9,1.1-5.8c0.7-1.9,1.7-3.6,2.9-5.1
					c1.2-1.5,2.6-2.7,4.1-3.6c1.6-0.9,3.2-1.3,5-1.3c2.3,0,4.2,0.8,5.7,2.3C442.4,117.6,443.2,119.7,443.2,122.3z"/>
			</g>
		</g>
	</g>
	<path fill="none" stroke="#800F26" stroke-miterlimit="10" d="M398,89.8c-0.7-0.8-1.6-1.2-2.7-1.2c-0.6,0-1.5,0.2-2.5,0.6
		c-1,0.4-2.1,1-3.2,1.7c-1.1,0.7-2.3,1.6-3.4,2.6c-1.1,1-2.1,2.1-3.1,3.3c0-0.6,0.1-1.1,0.2-1.7c0.1-0.6,0.2-1.1,0.2-1.5
		c0-1.5-0.3-2.6-0.8-3.5s-1.2-1.5-2-1.9c-0.8-0.4-1.7-0.7-2.7-0.7c-1-0.1-2-0.1-3-0.1c-0.8,0-1.5,0.1-2.1,0.2
		c-0.3,0.1-0.5,0.1-0.7,0.1c0,0.1,0.1,0.2,0.4,0.2c0.2,0,0.5,0.1,0.7,0.2c0.2,0.1,0.5,0.3,0.7,0.6c0.2,0.3,0.4,0.8,0.4,1.4
		c0,1.3-0.5,3.6-1.4,7c-0.7,2.4-1.4,5.3-2.2,8.7c-0.2,0.2-0.4,0.6-0.5,1.1c-0.3,0.9-0.6,1.9-1.1,3.1c-0.4,1.1-1,2.1-1.6,3.1
		c-0.7,0.9-1.6,1.4-2.8,1.4c-0.5,0-0.9-0.1-1.1-0.4c-0.2-0.2-0.4-0.5-0.5-0.9c-0.1-0.4-0.2-0.7-0.2-1.1c0-0.4-0.1-0.7-0.1-0.9
		c0.3-1.7,0.7-3.3,1.3-4.8c0.6-1.5,1.2-2.9,1.7-4.2c0.5-1.3,1-2.5,1.4-3.7s0.6-2.3,0.6-3.3c0-2.3-0.8-3.8-2.5-4.7
		c-1.7-0.9-3.6-1.4-5.7-1.4c-1,0-1.8,0.1-2.5,0.2c-0.4,0.1-0.6,0.1-0.8,0.2c0,0.1,0.1,0.2,0.4,0.2c0.2,0,0.5,0,0.8,0.1
		c0.3,0.1,0.5,0.3,0.8,0.6c0.2,0.3,0.4,0.9,0.4,1.6c0,1.2-0.3,3-1,5.5c-0.7,2.5-1.5,5.9-2.4,10.2c-0.2,0.6-0.5,1.4-0.9,2.2
		c-0.4,0.8-0.9,1.6-1.4,2.3c-0.6,0.7-1.2,1.4-2,1.8c-0.8,0.5-1.6,0.7-2.5,0.7c-0.8,0-1.3-0.2-1.5-0.6c-0.2-0.4-0.4-0.8-0.4-1.2
		c0-0.4,0-0.7,0.1-0.8c0-0.1,0-0.2,0.1-0.3c0.4-1.6,0.8-3.3,1.4-5c0.6-1.7,1.2-3.4,1.8-5.1c0.6-1.7,1.1-3.2,1.5-4.7s0.6-2.8,0.6-3.9
		c0-1.1-0.2-2.1-0.7-2.9c-0.5-0.8-1.1-1.4-1.8-1.9c-0.8-0.5-1.6-0.8-2.6-1c-0.9-0.2-2-0.3-3-0.3c-1.1,0-1.9,0.1-2.5,0.2
		c-0.6,0.1-1,0.2-1,0.3c0,0.1,0.1,0.2,0.4,0.2c0.2,0,0.5,0.1,0.8,0.2c0.3,0.1,0.5,0.3,0.8,0.6c0.2,0.3,0.4,0.8,0.4,1.5
		c0,1.7-0.2,3.4-0.6,5.3c-0.4,1.8-0.9,3.7-1.4,5.5c-0.5,1.9-0.9,3.7-1.4,5.5c-0.4,1.8-0.6,3.5-0.6,5.1c0,0.8,0.1,1.7,0.2,2.6
		c0.1,0.9,0.4,1.7,0.8,2.3c0.5,0.7,1.1,1.2,2,1.7c0.8,0.5,2,0.7,3.5,0.7c1.1,0,2.1-0.2,3.1-0.5c1-0.4,2-0.8,2.8-1.3
		c0.9-0.5,1.6-1.1,2.3-1.6c0.6-0.6,1.1-1,1.3-1.4c0.1,0,0.1,0,0.1-0.1c0.2,1.3,0.8,2.3,1.6,3.2c0.9,0.9,2.4,1.3,4.6,1.3
		c1.1,0,2-0.2,3-0.5c0.9-0.4,1.7-0.8,2.5-1.3c0.7-0.5,1.4-1.1,1.9-1.6c0.5-0.6,0.9-1,1.1-1.4c0.1-0.1,0.1-0.2,0.2-0.3
		c0,0.3,0.1,0.6,0.2,0.9c0.2,0.7,0.5,1.3,0.9,1.8c0.5,0.5,1.1,1,2,1.3c0.8,0.4,1.9,0.5,3.2,0.5c0.6,0,1.4-0.1,2.4-0.3
		c1-0.2,1.5-0.4,1.5-0.5c-1.1-0.6-1.8-1.2-2.2-1.9c-0.4-0.7-0.6-1.4-0.6-2.1c0-1.5,0.5-3.2,1.4-5.2c0.9-2,2-3.9,3.3-5.8
		c1.3-1.9,2.7-3.4,4.2-4.7c1.5-1.3,2.9-2,4.1-2c0.4,0,0.5,0.4,0.5,1.1c-0.1,1.6-0.4,3.2-0.8,4.6c-0.5,1.5-1,3-1.5,4.4
		c-0.5,1.5-1,3-1.5,4.5c-0.5,1.5-0.7,3.2-0.7,5c0,1.9,0.6,3.2,1.7,3.9c1.2,0.7,2.5,1,4,1c1.5,0,2.9-0.2,4.2-0.6
		c1.2-0.4,1.8-0.7,1.8-0.8c-1-0.2-1.7-0.7-2.1-1.6c-0.4-0.8-0.6-1.9-0.6-3.1c0-1.2,0.1-2.5,0.4-4c0.3-1.5,0.6-3,1.1-4.6
		c0.4-1.6,0.8-3.3,1.3-4.9c0.4-1.7,0.8-3.3,1.1-4.8c0.1-0.4,0.2-0.7,0.2-1.1c0-0.4,0-0.7,0-1.1C399.1,91.7,398.7,90.6,398,89.8z"/>
	<path fill="none" stroke="#800F26" stroke-miterlimit="10" d="M247.8,243.8c-0.2-0.1-0.3-0.1-0.5-0.2c-0.2,0-0.3,0.1-0.4,0.2
		l-0.1,0.1c-0.1,0.5-0.5,1.4-1.2,2.5c-0.7,1.1-1.6,2.3-2.7,3.5c-1.1,1.2-2.4,2.2-3.8,3c-1.4,0.9-3,1.3-4.6,1.3
		c-1.4,0-2.3-0.4-2.9-1.3c-0.6-0.8-0.9-1.8-0.9-2.9c0-0.4,0.1-0.9,0.2-1.3c0.1-0.5,0.2-0.9,0.4-1.3c1,0.3,2,0.5,3.2,0.5
		c1.3,0,2.6-0.2,3.8-0.6c1.2-0.4,2.4-1,3.4-1.8c1-0.8,1.8-1.7,2.4-2.9c0.6-1.1,0.9-2.4,0.9-3.8c0-1.9-0.6-3.5-1.9-4.7
		c-1.3-1.2-2.7-1.8-4.3-1.8c-1.1,0-2.4,0.3-3.9,0.9c-1.5,0.6-3,1.6-4.3,2.9c-1.4,1.3-2.5,3-3.5,5c-0.9,2-1.4,4.5-1.4,7.3
		c0,0.4,0,0.9,0.1,1.5c-0.1,0.3-0.2,0.6-0.4,0.9c-0.4,0.9-0.9,1.7-1.6,2.4c-0.7,0.7-1.7,1.1-3,1.1c-0.5,0-0.9-0.3-1-0.8
		c-0.1-0.5-0.1-1.1,0-1.8c0.1-0.7,0.2-1.3,0.4-2c0.2-0.6,0.3-1.1,0.3-1.4c0.5-2.1,1.3-4.3,2.2-6.7c0.9-2.4,1.8-4.7,2.7-7
		c0.9-2.3,1.7-4.5,2.3-6.5c0.6-2.1,1-3.8,1-5.2c0-1-0.2-1.8-0.7-2.4c-0.5-0.6-1-1.1-1.7-1.5c-0.7-0.4-1.4-0.6-2.2-0.7
		c-0.8-0.1-1.5-0.2-2.2-0.2c-1,0-1.8,0.1-2.5,0.3c-0.7,0.2-1,0.4-1,0.5c0,0.1,0.1,0.2,0.3,0.4c0.2,0.2,0.5,0.6,0.7,1.1
		c0.3,0.5,0.5,1.1,0.7,1.9c0.2,0.8,0.3,1.7,0.3,2.7c0,1.1-0.1,2.3-0.4,3.5c-0.2,1.3-0.7,3-1.3,5.1c-1.4-0.7-2.9-1-4.6-1
		c-1.7,0.1-3.5,0.6-5.4,1.7c-0.9,0.5-1.9,1.2-2.8,2.1c-0.9,0.9-1.8,1.9-2.6,3.1c-0.8,1.2-1.4,2.5-1.9,4c-0.5,1.5-0.8,3-0.8,4.6
		c0,2.4,0.5,4.4,1.6,5.8c1.1,1.4,2.3,2.3,3.8,2.7c1.5,0.4,3,0.1,4.6-0.6c1.6-0.8,2.9-2.1,3.9-4.1c0.1,0,0.1,0.3,0.1,0.9
		c0,0.6,0.2,1.2,0.5,1.8c0.3,0.6,0.8,1.3,1.5,1.8c0.7,0.6,1.7,0.9,3.1,0.9c0.8,0,1.6-0.2,2.2-0.5c0.7-0.3,1.3-0.7,1.9-1.1
		c0.6-0.4,1-0.9,1.4-1.3c0.4-0.4,0.6-0.8,0.8-1.1c0.2-0.3,0.3-0.5,0.4-0.7c0.1,0.3,0.2,0.5,0.3,0.8c0.4,0.9,1.1,1.7,1.9,2.4
		c0.8,0.7,1.9,1.1,3.3,1.1c1.8,0,3.6-0.3,5.3-0.9c1.7-0.6,3.3-1.4,4.7-2.5c1.4-1.1,2.6-2.4,3.7-3.9c1.1-1.5,1.9-3.1,2.5-4.8v-0.2
		C248.1,244,248,243.8,247.8,243.8z M232.7,243.6c0.4-0.8,0.9-1.5,1.4-2.3c0.6-0.8,1.2-1.4,1.8-2c0.6-0.6,1.2-0.9,1.7-0.9
		c0.8-0.3,1.4-0.2,1.9,0.1c0.5,0.3,0.8,0.9,0.8,1.8c0,1.1-0.2,2.1-0.7,2.8c-0.5,0.7-1.1,1.3-1.7,1.7c-0.7,0.4-1.4,0.7-2.2,0.9
		c-0.8,0.2-1.4,0.2-1.9,0.2c-0.4,0-0.8,0-1.1-0.1c-0.3-0.1-0.5-0.2-0.5-0.3C232.2,245,232.4,244.4,232.7,243.6z M216.5,242.3
		c-0.4,1.4-0.7,2.9-0.9,4.3c-0.2,0.7-0.6,1.4-1.1,2.2c-0.5,0.8-1.1,1.5-1.7,2.2c-0.6,0.6-1.3,1.2-2,1.6c-0.7,0.4-1.4,0.6-2,0.6
		c-0.6,0-1.2-0.3-1.7-0.9c-0.6-0.6-0.9-1.8-0.9-3.7c0-1.6,0.3-3,1-4.4c0.6-1.4,1.5-2.5,2.6-3.5c1.1-1,2.3-1.7,3.7-2.2
		c1.4-0.5,2.8-0.6,4.2-0.4C217.2,239.4,216.8,240.9,216.5,242.3z"/>
	<g>
		<g>
			<path fill="#FFFFFF" d="M47.1,133.1c-6.2-0.4-11.9-1.8-17.2-4c-5.3-2.2-9.8-5.3-13.5-9.2c-3.7-3.9-6.5-8.6-8.3-14
				c-1.8-5.5-2.3-11.7-1.6-18.6c1-5.9,2.7-11,5.1-15.4c2.4-4.4,5.1-8.1,8.2-11c3.1-2.9,6.4-5.3,9.8-7.1c3.5-1.8,6.7-3.2,9.8-4.2
				c3.1-1,5.9-1.6,8.4-1.8c2.5-0.2,4.4-0.2,5.5-0.1c-2-1.3-3.6-3.2-4.6-5.8c-1.1-2.6-1.6-5.5-1.6-8.9c0-3.9,1-7.4,2.9-10.6
				c1.9-3.2,4.4-5.9,7.3-8.2c2.9-2.3,6.3-4.1,9.9-5.4c3.7-1.3,7.2-2,10.7-2.2c3.2-0.1,6.4,0.2,9.8,1.1c3.4,0.9,6.4,2.2,9.2,4
				c2.7,1.8,5,4.1,6.7,7c1.7,2.9,2.6,6.1,2.6,9.7c0,1.3-0.2,2.4-0.6,3.2c-0.4,0.9-0.9,1.6-1.3,2.2c-0.6,0.6-1.2,1.1-1.7,1.5
				c-3.3,1.7-6,3.6-8,5.5c-2,1.9-3.6,3.9-4.7,5.7c1-0.9,2.2-1.8,3.6-2.8c1.4-1,2.7-1.9,4-2.7c1.3-0.8,2.4-1.4,3.5-1.9
				c1-0.5,1.7-0.8,1.9-0.8c0.6,0,0.9,0.2,0.9,0.6c0,0.3-0.2,0.5-0.6,0.6c-0.6,0.1-1.7,1-3.3,2.6c-1.7,1.6-3.4,3.3-5.2,5.2
				c-1.8,1.9-3.4,3.6-4.9,5.2c-1.4,1.6-2.2,2.5-2.2,2.8h-0.2h0.2c-0.1,0.1-0.3,0.2-0.4,0.2c-0.3,0-1.1-0.4-2.5-1.2
				c-1.4-0.8-2.8-1.9-4.4-3.5c-1.6-1.5-3-3.3-4.3-5.4c-1.3-2.1-1.9-4.4-1.9-7c0-2,1-4,2.9-5.9c1.9-1.9,4.1-3.7,6.5-5.4
				c2.4-1.7,4.5-3.1,6.5-4.4s2.9-2.4,2.9-3.2c0-1.2-0.5-1.9-1.4-2.2c-0.9-0.3-2.2-0.4-3.8-0.4c-2.2,0-4.6,0.5-7.4,1.5
				c-2.8,1-5.4,2.4-7.9,4.1c-2.4,1.7-4.5,3.9-6.3,6.4c-1.7,2.5-2.6,5.3-2.6,8.3c0,0.4,0.1,1.2,0.2,2.3c0.1,1.1,0.4,2.2,0.9,3.2
				c0.4,1.1,1,2.1,1.6,3c0.6,0.9,1.5,1.5,2.7,1.8c1.1,0.1,2.3,0.4,3.5,0.6c1.2,0.3,1.8,1,1.9,2.2c0,1.6-0.6,2.7-1.9,3.2
				c-1.3,0.6-3,0.9-5,0.9c-4,0-8.6,0.4-13.6,1.3c-5,0.9-9.8,2.6-14.2,5.2c-4.5,2.6-8.2,6.3-11.2,11s-4.5,11-4.5,18.8
				c0,2,0.2,4.4,0.6,7.1c0.4,2.7,1.3,5.5,2.7,8.2c1.4,2.7,3.3,5.3,5.8,7.7c2.5,2.4,5.9,4.3,10.3,5.7c-1.6-5.8-1.9-11.7-1.1-17.9
				c0.9-6.2,2.9-11.8,6-16.9c3.2-5.1,7.4-9.3,12.7-12.5c5.3-3.2,11.7-4.9,19.2-4.9c3.5,0,6.7,0.6,9.8,1.7c3.1,1.2,5.8,2.8,8.2,5
				c2.4,2.2,4.3,4.7,5.8,7.8s2.3,6.4,2.5,10.1c0.1,4-0.6,8.5-2.3,13.3c-1.7,4.8-4.1,9.3-7.4,13.4c-3.3,4.1-7.4,7.5-12.3,10.3
				c-4.9,2.7-10.4,4.1-16.6,4.1c1,0.7,1.9,1.2,2.8,1.5c0.4,0.1,0.9,0.2,1.3,0.2c-2.7,1.6-5.2,2.7-7.4,3.2c-2.2,0.6-4.3,0.9-6.2,0.9
				c-2.9,0-5.2-0.5-7-1.6C49.3,136,48,134.7,47.1,133.1z M59.2,100.3c-0.6,3.7-0.9,7.5-0.9,11.2c0,3.7,0.7,7.6,2.2,11.4
				c0.4,1.2,0.9,2.2,1.5,3.2c0.4,0.9,0.9,1.7,1.4,2.5c0.5,0.8,1,1.4,1.6,1.8c-0.4-0.7-0.9-1.4-1.3-1.9c-0.3-0.6-0.6-1.2-0.9-1.8
				c-0.3-0.6-0.4-1.3-0.4-2.1c0-0.9,0.4-1.3,1.1-1.4c0.7-0.1,2.1-0.3,4.1-0.5c5.6-0.9,10.5-2.4,14.7-4.7c4.2-2.3,7.6-4.9,10.4-7.8
				c2.7-2.9,4.8-5.9,6.2-9.2c1.4-3.2,2.1-6.3,2.1-9.2c0-0.7-0.2-1.8-0.5-3.3c-0.4-1.5-1.1-3.1-2.3-4.6c-1.2-1.6-2.8-3-5.1-4.2
				c-2.2-1.2-5.2-1.8-9-1.8c-6.5,0-11.8,2.2-16.1,6.7C63.7,89,60.8,94.2,59.2,100.3z"/>
			<path fill="#FFFFFF" d="M171.3,72c-0.6,3.2-1.3,6.4-2.2,9.8c-0.9,3.4-1.7,6.7-2.6,10c-0.9,3.3-1.6,6.5-2.2,9.5
				c-0.6,3-0.9,5.8-0.9,8.2c0,2.4,0.4,4.5,1.2,6.3c0.8,1.7,2.2,2.8,4.2,3.2c0,0.3-1.3,0.8-3.8,1.6c-2.5,0.8-5.4,1.2-8.5,1.2
				c-3,0-5.7-0.7-8.1-2.1c-2.4-1.4-3.6-4-3.6-7.9c0-3.6,0.5-7,1.4-10.1c0.9-3.2,1.9-6.3,3-9.3c1.1-3,2.1-6,3.1-9.1
				c1-3,1.6-6.2,1.7-9.5c0-1.4-0.4-2.2-1.1-2.2c-2.4,0-5.2,1.3-8.3,4c-3.1,2.7-6,5.9-8.6,9.7c-2.7,3.8-4.9,7.8-6.8,11.9
				c-1.9,4.1-2.8,7.7-2.8,10.7c0,1.4,0.4,2.9,1.3,4.3c0.9,1.4,2.4,2.7,4.5,3.9c0,0.3-1,0.6-3,1.1c-2,0.4-3.7,0.6-5,0.6
				c-2.6,0-4.7-0.4-6.5-1.1c-1.7-0.7-3.1-1.6-4-2.7c-0.9-1.1-1.6-2.3-1.9-3.7c-0.4-1.4-0.5-2.8-0.5-4.2c0-0.6,0.1-1.2,0.2-1.9
				c0.1-0.7,0.2-1.2,0.2-1.5c2.3-10.8,4.4-19.7,6.4-26.7c1.9-7,2.9-11.8,2.9-14.4c0-1.3-0.3-2.3-0.8-2.9c-0.5-0.6-1-1.1-1.5-1.3
				c-0.5-0.2-1-0.3-1.5-0.3c-0.5,0-0.8-0.1-0.8-0.4c0.4,0,0.9-0.1,1.5-0.2c1.2-0.3,2.6-0.4,4.3-0.4c2,0,4.1,0.1,6.2,0.2
				c2.1,0.1,4,0.6,5.6,1.5c1.7,0.9,3,2.2,4.1,3.9c1.1,1.7,1.6,4.1,1.6,7.1c0,0.9-0.1,1.9-0.4,3c-0.3,1.2-0.4,2.3-0.4,3.5
				c1.9-2.4,4-4.7,6.3-6.8c2.3-2.1,4.6-3.9,6.9-5.4c2.3-1.5,4.5-2.7,6.6-3.6c2.1-0.9,3.8-1.3,5.1-1.3c2.3,0,4.2,0.8,5.6,2.5
				c1.4,1.7,2.2,3.9,2.2,6.8c0,0.7,0,1.4,0,2.2C171.7,70.5,171.5,71.3,171.3,72z"/>
			<path fill="#FFFFFF" d="M201.9,110.6c-1.6,1.9-4.1,3.9-7.6,6s-7.5,3.2-12.1,3.2c-3.7,0-7-0.6-9.9-1.7c-2.9-1.2-4.3-3.9-4.3-8.2
				c0-0.4,0-0.9,0-1.4c0-0.5,0.1-1,0.2-1.6c0.1-0.9,0.6-2.7,1.3-5.6c0.7-2.9,1.5-6.1,2.4-9.7c0.9-3.6,1.7-7.1,2.6-10.4
				c0.9-3.3,1.5-5.8,1.9-7.6c0.4-2,0.8-3.7,1.1-5.1c0.3-1.4,0.4-2.6,0.4-3.8c0-1.7-0.2-3.1-0.6-4c-0.4-0.9-0.9-1.6-1.5-2.1
				c-0.6-0.4-1.1-0.7-1.5-0.9c-0.4-0.1-0.6-0.3-0.6-0.4c0-0.3,0.5-0.5,1.6-0.5c1.1-0.1,2.2-0.1,3.3-0.1c2.3,0,4.5,0.2,6.7,0.5
				c2.2,0.4,4,1,5.6,2.1c1.6,1,2.9,2.3,3.9,4c1,1.7,1.5,3.8,1.5,6.4c0,2.3-0.3,4.6-1,6.9c-0.6,2.3-1.5,4.9-2.5,7.8
				c-0.6,1.6-1.3,3.3-2.2,5.2c-0.9,1.9-1.7,3.9-2.6,5.9c-0.9,2.1-1.6,4.2-2.3,6.3c-0.6,2.1-1,4.1-1,5.9c0,1.6,0.2,2.6,0.5,2.9
				c0.4,0.4,0.9,0.5,1.6,0.5c3.5,0,7.3-2,11.6-5.9c4.2-4,7.6-9.5,10-16.7c-3.7-2.3-6.4-5.5-8-9.6c-1.6-4.1-2.4-8.1-2.4-12
				c0-2.3,0.3-4.6,0.9-6.8c0.6-2.2,1.4-4.2,2.4-6c1-1.8,2.2-3.3,3.6-4.4c1.4-1.2,2.8-1.7,4.4-1.7c1.7,0,3.2,0.5,4.4,1.5
				c1.2,1,2.2,2.3,2.8,3.8c0.6,1.5,1.1,3.2,1.4,5.1c0.3,1.9,0.4,3.6,0.4,5.2c0,1.7-0.1,4.5-0.3,8.3c-0.2,3.8-0.9,8-2.1,12.4
				c1.3,0.7,2.5,1.2,3.6,1.5c1.1,0.3,2.2,0.4,3.3,0.4c1.6,0,2.9-0.2,4.1-0.6c1.2-0.4,2.1-0.6,2.8-0.6c0.7,0,1.3,0.3,1.6,1
				c0.4,0.6,0.5,1.3,0.5,2.1c0,1.6-1.1,2.7-3.3,3.3c-2.2,0.6-4.6,1-7.2,1c-1.6,0-3.1-0.1-4.4-0.3c-1.4-0.2-2.4-0.6-3.1-1.2
				c-0.7,2.2-1.4,4.1-2.2,5.8c-0.7,1.7-1.5,3.3-2.5,4.7c-0.9,1.4-2,2.9-3.1,4.4C205.1,107.3,203.6,108.9,201.9,110.6z M210.3,66.1
				c-0.7,0-1.1,0.9-1.1,2.8c0,1.6,0,3.5,0.1,5.8c0.1,2.3,0.3,3.9,0.8,4.7c0.3-1,0.5-2.8,0.8-5.4c0.2-2.6,0.3-4.4,0.3-5.4
				c0-1.2-0.1-1.9-0.2-2.2C210.8,66.3,210.6,66.1,210.3,66.1z"/>
			<path fill="#FFFFFF" d="M229.3,119.9c-2.6,0-4.7-0.4-6.4-1.2c-1.7-0.8-2.9-1.8-3.8-3c-0.9-1.2-1.5-2.6-1.8-4.1
				c-0.4-1.5-0.5-3-0.5-4.4c0-3.5,0.5-7.1,1.6-10.8c1.1-3.7,2.3-7.5,3.6-11.3c1.3-3.8,2.5-7.6,3.6-11.3c1.1-3.7,1.6-7.4,1.6-11
				c0-1.3-0.3-2.2-0.8-2.8c-0.5-0.6-1-1-1.5-1.2c-0.5-0.2-1-0.3-1.5-0.3c-0.5,0-0.8-0.1-0.8-0.4c0-0.6,1.9-0.9,5.8-0.9
				c2.2,0,4.2,0.2,6.3,0.6c2,0.4,3.8,1.2,5.5,2.2c1.7,1,3,2.3,4,3.9c1,1.6,1.5,3.5,1.5,5.8c0,2.3-0.5,4.9-1.5,7.7
				c-1,2.8-2.2,5.8-3.7,9c-1.4,3.2-2.8,6.4-4.2,9.7c-1.4,3.3-2.5,6.7-3.3,10.1c-0.4,0.7-0.6,1.4-0.6,2.2c0,1.2,0.4,2.1,1.2,2.8
				c0.8,0.7,1.8,1.1,3.1,1.1c2.4,0,4.4-0.9,5.9-2.7c1.5-1.8,2.8-3.8,3.8-5.9c1-2.2,1.8-4.1,2.5-5.9c0.6-1.8,1.4-2.7,2.3-2.7
				c1,0,1.5,0.3,1.6,1c0.1,0.6,0.1,1.1,0.1,1.4c-0.9,4.7-2.1,8.5-3.8,11.3c-1.7,2.8-4,5.4-7.1,7.8
				C238.9,118.7,234.7,119.9,229.3,119.9z M246.8,29.7c1.6,0,3.2,0.3,4.8,1c1.6,0.6,2.4,2.1,2.4,4.2c0,1.9-0.5,4.1-1.4,6.6
				c-0.9,2.5-1.8,5-2.7,7.4c-0.3,0.7-1.3,1.8-3,3.2c-1.7,1.4-4.4,2.2-8,2.2c-2,0-3.5-0.3-4.3-0.9c-0.9-0.6-1.3-1.2-1.3-1.9
				c0.7-4.2,1.6-7.7,2.7-10.5c1.1-2.8,1.6-4.9,1.6-6.4c0-1.3-0.4-1.9-1.3-1.9s-1.3-0.1-1.3-0.4c0-0.3,1.3-0.8,3.8-1.5
				C241.2,30,243.9,29.7,246.8,29.7z"/>
			<path fill="#FFFFFF" d="M308.8,107.2c-1.7,3.2-4.2,6-7.6,8.4c-3.3,2.4-6.9,3.7-10.8,3.7c-2.6,0-4.6-0.5-6-1.6
				c-1.4-1.1-2.5-2.3-3.2-3.7c-0.7-1.4-1.2-2.7-1.4-4c-0.2-1.3-0.3-2.2-0.3-2.6l-0.4,0.9c-1.7,2.3-3.5,4.1-5.2,5.5
				c-1.7,1.4-3.4,2.4-5.1,3.2c-1.7,0.8-3.1,1.3-4.4,1.5s-2.4,0.3-3.2,0.3c-5.5,0-9.6-2.1-12.3-6.2c-2.7-4.1-4.1-8.9-4.1-14.4
				c0-5.2,1-10.3,3.1-15.3c2.1-5,5-9.6,8.6-13.6c3.7-4,7.9-7.3,12.6-9.8c4.7-2.5,9.9-3.8,15.3-3.8c5,0,9.1,1.3,12.1,3.8
				c3,2.5,4.5,5.7,4.5,9.4c0,2-0.4,4-1.3,5.8c0-0.3-1-0.8-3.1-1.5c-2.1-0.7-5.7-1.1-10.9-1.1c-1.4,0.1-3.7,0.7-6.8,1.6
				c-3.1,0.9-6.2,2.5-9.3,4.6c-3.1,2.2-5.8,5-8.2,8.5c-2.4,3.5-3.6,7.9-3.6,13.1c0,4.2,0.7,6.9,2.2,8.1c1.4,1.2,2.9,1.8,4.3,1.8
				c3.9,0,7.2-1.3,9.9-3.9c2.7-2.6,5-5.6,6.8-9.2c1.8-3.5,3.1-7.1,3.9-10.8c0.8-3.7,1.2-6.6,1.2-8.7c0-0.7-0.1-1.2-0.3-1.5
				c-0.2-0.3-0.3-0.5-0.3-0.6c0-0.3,0.4-0.4,1.3-0.4c1.2,0,2.6,0.3,4.4,0.8c1.8,0.5,3.5,1.2,5.2,2.2c1.7,0.9,3.1,2.1,4.3,3.3
				c1.2,1.3,1.8,2.7,1.8,4.1c0,0.6-0.2,1.3-0.6,2.2c-1.9,4.7-3.4,8.5-4.6,11.3c-1.2,2.8-2.3,5.4-3.3,7.9c-1,2.4-1.5,3.9-1.5,4.3
				c0,1.2,0.5,1.7,1.5,1.7c3.5,0,6.1-0.9,8-2.8c1.9-1.9,3.3-3.9,4.3-6.2c1-2.2,1.8-4.3,2.3-6.2c0.5-1.9,1.2-2.9,2.1-3
				c1.2,0,1.7,0.8,1.7,2.4c0,0.9-0.2,1.9-0.5,3c-0.4,1.2-0.8,2.2-1.2,3.2c-0.4,1-0.8,1.9-1.2,2.7C309,106.6,308.8,107,308.8,107.2z"
				/>
		</g>
	</g>
	<g>
		<g>
			<path fill="#FFFFFF" d="M355.9,112.2c-0.2,0.4-0.6,0.8-1.3,1.4c-0.6,0.6-1.4,1.1-2.3,1.6c-0.9,0.5-1.8,1-2.8,1.3
				c-1,0.4-2.1,0.5-3.1,0.5c-1.5,0-2.6-0.2-3.5-0.7c-0.8-0.5-1.5-1-2-1.7c-0.5-0.7-0.7-1.4-0.8-2.3c-0.1-0.9-0.2-1.7-0.2-2.6
				c0-1.5,0.2-3.2,0.6-5.1c0.4-1.8,0.9-3.7,1.4-5.5c0.5-1.9,1-3.7,1.4-5.5c0.4-1.8,0.6-3.6,0.6-5.3c0-0.7-0.1-1.2-0.4-1.5
				c-0.2-0.3-0.5-0.5-0.8-0.6c-0.3-0.1-0.5-0.2-0.8-0.2c-0.2,0-0.4-0.1-0.4-0.2c0-0.1,0.3-0.2,1-0.3c0.6-0.1,1.5-0.2,2.5-0.2
				c1.1,0,2.1,0.1,3,0.3c1,0.2,1.8,0.5,2.6,1c0.8,0.5,1.4,1.1,1.8,1.9c0.5,0.8,0.7,1.8,0.7,2.9c0,1.1-0.2,2.4-0.6,3.9
				s-0.9,3-1.5,4.7c-0.6,1.7-1.2,3.3-1.8,5.1c-0.6,1.7-1.1,3.4-1.4,5c-0.1,0.1-0.1,0.2-0.1,0.3c-0.1,0.1-0.1,0.4-0.1,0.8
				c0,0.4,0.1,0.8,0.4,1.2c0.2,0.4,0.8,0.6,1.5,0.6c0.9,0,1.8-0.2,2.5-0.7c0.8-0.5,1.4-1.1,2-1.8c0.6-0.7,1-1.5,1.4-2.3
				c0.4-0.8,0.7-1.5,0.9-2.2c0.9-4.3,1.7-7.7,2.4-10.2c0.7-2.5,1-4.3,1-5.5c0-0.8-0.1-1.3-0.4-1.6c-0.2-0.3-0.5-0.5-0.8-0.6
				c-0.3-0.1-0.5-0.1-0.8-0.1c-0.2,0-0.4,0-0.4-0.2c0.2-0.1,0.5-0.1,0.8-0.2c0.7-0.1,1.5-0.2,2.5-0.2c2.1,0,4,0.5,5.7,1.4
				c1.7,0.9,2.5,2.5,2.5,4.7c0,1.1-0.2,2.2-0.6,3.3s-0.9,2.4-1.4,3.7c-0.5,1.3-1.1,2.7-1.7,4.2c-0.6,1.5-1,3.1-1.3,4.8
				c0,0.2,0,0.5,0.1,0.9c0,0.4,0.1,0.8,0.2,1.1c0.1,0.4,0.3,0.7,0.5,0.9c0.2,0.2,0.6,0.4,1.1,0.4c1.2,0,2.1-0.5,2.8-1.4
				c0.7-0.9,1.2-1.9,1.6-3.1c0.4-1.1,0.8-2.1,1.1-3.1c0.3-0.9,0.7-1.4,1.2-1.4c0.3,0,0.5,0.1,0.5,0.4c0.1,0.3,0.1,0.5,0.1,0.6
				c0,0.4-0.1,1.1-0.3,2.2c-0.2,1.1-0.9,2.6-2.2,4.5c-0.2,0.4-0.6,0.8-1.1,1.4c-0.5,0.6-1.2,1.1-1.9,1.6c-0.7,0.5-1.6,1-2.5,1.3
				c-0.9,0.4-1.9,0.5-3,0.5c-2.2,0-3.7-0.4-4.6-1.3c-0.9-0.9-1.4-2-1.6-3.2C356,112.2,356,112.2,355.9,112.2z"/>
			<path fill="#FFFFFF" d="M400,93.6c-0.3,1.5-0.6,3.1-1.1,4.8c-0.4,1.7-0.8,3.3-1.3,4.9c-0.4,1.6-0.8,3.2-1.1,4.6
				c-0.3,1.5-0.4,2.8-0.4,4c0,1.2,0.2,2.2,0.6,3.1c0.4,0.8,1.1,1.4,2.1,1.6c0,0.1-0.6,0.4-1.8,0.8c-1.2,0.4-2.6,0.6-4.2,0.6
				c-1.5,0-2.8-0.3-4-1c-1.2-0.7-1.7-2-1.7-3.9c0-1.8,0.2-3.4,0.7-5c0.5-1.5,0.9-3.1,1.5-4.5c0.5-1.5,1-3,1.5-4.4
				c0.5-1.5,0.8-3,0.8-4.6c0-0.7-0.2-1.1-0.5-1.1c-1.2,0-2.6,0.7-4.1,2c-1.5,1.3-2.9,2.9-4.2,4.7c-1.3,1.9-2.4,3.8-3.3,5.8
				c-0.9,2-1.4,3.7-1.4,5.2c0,0.7,0.2,1.4,0.6,2.1c0.4,0.7,1.2,1.3,2.2,1.9c0,0.1-0.5,0.3-1.5,0.5c-1,0.2-1.8,0.3-2.4,0.3
				c-1.3,0-2.3-0.2-3.2-0.5c-0.8-0.4-1.5-0.8-2-1.3c-0.5-0.5-0.8-1.1-0.9-1.8c-0.2-0.7-0.3-1.4-0.3-2.1c0-0.3,0-0.6,0.1-0.9
				c0.1-0.4,0.1-0.6,0.1-0.7c1.1-5.3,2.2-9.6,3.1-13c1-3.4,1.4-5.8,1.4-7c0-0.6-0.1-1.1-0.4-1.4c-0.2-0.3-0.5-0.5-0.7-0.6
				c-0.2-0.1-0.5-0.2-0.7-0.2c-0.2,0-0.4-0.1-0.4-0.2c0.2,0,0.5,0,0.7-0.1c0.6-0.1,1.3-0.2,2.1-0.2c1,0,2,0,3,0.1
				c1,0.1,1.9,0.3,2.7,0.7c0.8,0.4,1.5,1.1,2,1.9s0.8,2,0.8,3.5c0,0.4-0.1,0.9-0.2,1.5c-0.1,0.6-0.2,1.1-0.2,1.7
				c0.9-1.2,1.9-2.3,3.1-3.3c1.1-1,2.3-1.9,3.4-2.6c1.1-0.7,2.2-1.3,3.2-1.7c1-0.4,1.8-0.6,2.5-0.6c1.1,0,2,0.4,2.7,1.2
				c0.7,0.8,1.1,1.9,1.1,3.3c0,0.4,0,0.7,0,1.1C400.2,92.9,400.2,93.2,400,93.6z"/>
		</g>
	</g>
	<g>
		<g>
			<path fill="#FFFFFF" d="M186.4,199c-0.3-1-0.4-1.9-0.4-2.5c0-0.5,0-1,0.1-1.6c0.1-0.5,0.2-1.1,0.3-1.8c0.1-1.9,0.6-4.6,1.5-8.1
				c0.8-3.4,1.8-7,2.7-10.6c1-3.6,1.8-7,2.6-10.1c0.8-3.1,1.2-5.4,1.2-6.8c0-0.9-0.5-1.4-1.6-1.4c-1.6,0-3.3,0.7-5.3,1.9
				c-1.9,1.3-3.9,3-5.7,5.1c-1.9,2.1-3.6,4.3-5.2,6.8c-1.6,2.5-2.7,4.9-3.3,7.4c-0.8,4.3-1.2,7.9-1.2,10.7c0,5.3,1.8,8.7,5.5,10.1
				c0,0.3-0.9,0.8-2.6,1.8c-1.8,0.9-4.3,1.4-7.5,1.4c-3.1,0-5.8-0.6-8.2-1.7c-2.3-1.1-3.5-3.6-3.5-7.5c0-3.6,0.4-7.1,1.3-10.4
				c0.8-3.3,1.8-6.5,2.7-9.6c1-3.1,1.9-6.2,2.7-9.1c0.8-3,1.3-6.1,1.3-9.3c0-1.3-0.3-1.9-0.8-1.9c-2.6,0-5.3,1.6-8.1,4.8
				c-2.8,3.2-5.3,6.8-7.6,11c-2.3,4.2-4.2,8.2-5.6,12.2c-1.5,4-2.2,6.7-2.2,8.3c0,2.1,0.4,3.8,1.2,5.1c0.8,1.3,1.8,2.3,3.1,3.1
				c0,0.3-0.9,0.6-2.8,1c-1.9,0.4-3.4,0.6-4.6,0.6c-4.7,0-7.8-1.1-9.2-3.2c-1.5-2.1-2.2-4.4-2.2-6.9c0-3.1,0.5-6.5,1.4-10.1
				c0.9-3.6,1.9-7.3,3-11c1.1-3.7,2.1-7.3,3-10.9c0.9-3.6,1.4-6.9,1.4-10c0-1.2-0.2-2-0.5-2.5c-0.3-0.5-0.7-0.9-1.2-1.1
				c-0.5-0.2-0.8-0.3-1.2-0.3c-0.3,0-0.5-0.1-0.5-0.4c-0.1-0.1,0-0.3,0.4-0.4c0.3-0.1,0.7-0.2,1.4-0.3c0.6-0.1,1.6-0.1,2.7-0.1
				c1.8,0,3.6,0.1,5.4,0.3c1.8,0.2,3.3,0.7,4.8,1.5c1.4,0.8,2.6,1.9,3.5,3.3c0.9,1.4,1.4,3.4,1.4,5.8c0,1-0.1,2.1-0.3,3.1
				c-0.2,1-0.4,2.3-0.7,3.7c1.7-2.5,3.5-4.8,5.5-7.1c2-2.3,4.1-4.2,6.2-5.9c2.1-1.7,4.2-3,6.2-4c2-1,3.9-1.5,5.7-1.5
				c2.2,0,3.9,0.9,5.1,2.8c1.2,1.9,1.8,4.1,1.8,6.7c0,2.9-0.5,5.6-1.6,8.3c-1,2.7-1.9,5.3-2.5,7.9c1.9-3,4.1-5.8,6.5-8.5
				c2.4-2.7,4.9-5,7.4-6.9c2.5-1.9,5.1-3.5,7.6-4.6c2.5-1.1,4.8-1.7,6.9-1.7c2.5,0,4.2,0.9,5.2,2.8c1,1.9,1.5,4.2,1.5,6.9
				c0,1-0.4,3.1-1.3,6.1c-0.8,3.1-1.8,6.4-2.7,9.9c-1,3.6-1.9,7.1-2.7,10.7c-0.8,3.6-1.3,6.4-1.3,8.5c0,2.6,0.4,4.6,1.1,6
				c0.7,1.4,1.5,2.5,2.3,3.2c0.8,0.7,1.6,1.2,2.3,1.6c0.7,0.3,1.1,0.6,1.1,0.7c0,0.6-1.4,1.5-4.3,2.4c-2.9,1-5.9,1.5-9.1,1.5
				c-2.2,0-4.2-0.4-5.8-1.2C188.2,202.1,187,200.8,186.4,199z"/>
			<path fill="#FFFFFF" d="M223.9,198.6c-3.4-0.1-6-1-8-2.7c-1.9-1.7-3.4-3.6-4.5-5.7c-1-2.1-1.7-4.3-2-6.4
				c-0.3-2.1-0.5-3.9-0.5-5.2c0-6.7,1.1-12.6,3.4-17.4c2.3-4.9,5.1-8.9,8.4-12.1c3.3-3.2,6.8-5.5,10.4-7c3.6-1.5,6.7-2.2,9.3-2.2
				c3.9,0,7.4,1.4,10.4,4.3c3,2.9,4.6,6.6,4.6,11.3c0,3.4-0.7,6.4-2.2,9.1c-1.5,2.7-3.4,5-5.8,6.9c-2.4,1.9-5.1,3.3-8.1,4.3
				c-3,1-6,1.5-9.1,1.5c-2.7,0-5.3-0.4-7.6-1.2c-0.4,1-0.7,2.1-1,3.2c-0.3,1.1-0.4,2.2-0.4,3.2c0,2.6,0.7,4.9,2,6.9
				c1.4,2,3.7,3,6.9,3c3.9,0,7.6-1,11-3.1c3.4-2.1,6.5-4.5,9.1-7.3c2.7-2.8,4.8-5.5,6.4-8.3c1.6-2.7,2.6-4.7,2.8-6l0.2-0.2
				c0.3-0.3,0.6-0.4,1-0.4c0.4,0.1,0.8,0.3,1.2,0.5c0.4,0.2,0.6,0.7,0.8,1.5v0.6c-1.4,4.2-3.4,8-5.9,11.6c-2.5,3.6-5.5,6.7-8.9,9.2
				c-3.4,2.6-7.1,4.6-11.2,6C232.6,197.9,228.4,198.6,223.9,198.6z M237.4,154.8c-1.2,0.1-2.5,0.9-4,2.2c-1.5,1.4-2.9,3-4.3,4.8
				c-1.4,1.8-2.5,3.6-3.4,5.5c-0.9,1.8-1.4,3.2-1.4,4.3c0,0.3,0.4,0.5,1.2,0.7c0.8,0.2,1.7,0.3,2.7,0.3c1.3,0,2.9-0.2,4.7-0.6
				c1.8-0.4,3.5-1.1,5.2-2c1.6-1,3-2.3,4.2-4c1.2-1.7,1.8-3.9,1.8-6.6c0-2.1-0.7-3.5-1.9-4.3C240.7,154.2,239.2,154.2,237.4,154.8z"
				/>
			<path fill="#FFFFFF" d="M308.2,155c-0.5,2.9-1.2,5.8-1.9,8.9c-0.8,3.1-1.6,6.1-2.3,9.1c-0.8,3-1.4,5.8-1.9,8.6
				c-0.5,2.7-0.8,5.2-0.8,7.4c0,2.2,0.4,4.1,1.1,5.6c0.7,1.6,2,2.5,3.8,2.9c0,0.3-1.1,0.7-3.4,1.5c-2.3,0.7-4.8,1.1-7.7,1.1
				c-2.7,0-5.2-0.6-7.3-1.8c-2.1-1.2-3.2-3.6-3.2-7.1c0-3.2,0.4-6.3,1.3-9.1c0.8-2.9,1.8-5.6,2.7-8.4s1.9-5.5,2.8-8.2
				c0.9-2.7,1.4-5.6,1.6-8.6c0-1.3-0.3-1.9-1-1.9c-2.2,0-4.7,1.2-7.5,3.6c-2.8,2.4-5.4,5.3-7.8,8.8c-2.4,3.4-4.4,7-6.1,10.7
				c-1.7,3.7-2.5,6.9-2.5,9.6c0,1.3,0.4,2.6,1.2,3.9c0.8,1.3,2.1,2.5,4.1,3.5c0,0.3-0.9,0.6-2.7,1c-1.8,0.4-3.3,0.6-4.5,0.6
				c-2.3,0-4.3-0.3-5.8-1s-2.8-1.5-3.6-2.4c-0.8-1-1.4-2.1-1.8-3.3c-0.3-1.2-0.5-2.5-0.5-3.8c0-0.5,0.1-1.1,0.2-1.8
				c0.1-0.6,0.2-1.1,0.2-1.4c2.1-9.7,4-17.7,5.7-24c1.8-6.3,2.6-10.6,2.6-12.9c0-1.2-0.2-2-0.7-2.6c-0.5-0.6-0.9-1-1.4-1.2
				c-0.5-0.2-0.9-0.3-1.4-0.3c-0.5,0-0.7-0.1-0.7-0.4c0.4,0,0.8-0.1,1.4-0.2c1-0.3,2.3-0.4,3.9-0.4c1.8,0,3.7,0.1,5.5,0.2
				c1.9,0.1,3.6,0.6,5.1,1.4c1.5,0.8,2.7,1.9,3.7,3.5c1,1.6,1.5,3.7,1.5,6.4c0,0.8-0.1,1.7-0.4,2.7c-0.3,1-0.4,2.1-0.4,3.1
				c1.7-2.2,3.6-4.2,5.6-6.1c2.1-1.9,4.2-3.5,6.2-4.9c2.1-1.4,4.1-2.4,5.9-3.2c1.9-0.8,3.4-1.2,4.6-1.2c2.1,0,3.8,0.7,5.1,2.2
				c1.3,1.5,1.9,3.5,1.9,6.1c0,0.7,0,1.3,0,1.9C308.6,153.7,308.5,154.4,308.2,155z"/>
			<path fill="#FFFFFF" d="M358.4,181.3c0.1-0.1,0.3-0.2,0.6-0.2c0.6,0,1,0.6,1,1.8c0,0.5-0.1,1.1-0.2,1.7c-0.1,0.6-0.6,1.2-1.4,1.8
				s-2.1,1.1-3.9,1.6c-1.8,0.5-4.4,0.9-7.8,1.3c-2.3,2.7-5.3,4.9-9,6.6c-3.6,1.7-7.5,2.5-11.7,2.5c-6.1,0-11.2-1.6-15.3-4.8
				c-4.1-3.2-6.1-7.7-6.1-13.5c0-2.5,0.7-4.6,2.1-6.5c1.4-1.9,3.8-3,7-3.2c0.5,0,1.1-0.5,1.8-1.4c0.6-0.9,1.3-2,1.8-3.4
				c0.6-1.4,1.2-2.9,1.8-4.5c0.6-1.6,1.1-3.1,1.5-4.6c-2.3-2.1-4.3-4.5-5.7-7.3c-1.5-2.8-2.2-6.1-2.2-9.8c0-4,1.1-7.3,3.2-9.8
				c2.1-2.5,4.9-3.8,8.3-3.8c2.2,0,3.9,1.4,5,4.1c1.1,2.7,1.7,5.5,1.7,8.4c0,1.4-0.1,2.8-0.4,4.1c-0.3,1.3-0.7,2.3-1.4,2.9
				c3.8,2.5,7.1,4.6,10,6.5c2.9,1.9,5.4,3.8,7.3,5.8c1.9,2,3.4,4.3,4.4,6.7c1,2.5,1.5,5.5,1.5,9.1c0,3.6-0.8,7.2-2.3,10.7
				c3.2-0.8,5.5-1.4,6.6-1.8C357.7,181.7,358.3,181.4,358.4,181.3z M313.5,182.9c0,3.2,1,5.5,3,6.7c2,1.2,4.5,1.8,7.5,1.8
				c2.1,0,4.1-0.5,5.9-1.5c1.9-1,3.6-2.4,5.2-4.2c-1.7-0.9-3.2-1.8-4.5-2.7c-1.3-0.9-2.5-1.7-3.7-2.4c-1.2-0.7-2.4-1.3-3.7-1.8
				c-1.3-0.5-2.7-0.7-4.3-0.7c-1.4,0-2.7,0.4-3.8,1.2C314,180.1,313.5,181.3,313.5,182.9z M326.1,160.1c-1,2.7-1.9,4.8-2.6,6.3
				c-0.7,1.5-1.7,3.1-2.8,5c2.6,1,4.6,2,6.1,2.9c1.5,0.9,2.8,1.8,3.8,2.5c1,0.8,2.1,1.6,3.1,2.3c1,0.8,2.3,1.6,3.9,2.3
				c0.6-2.2,1-4.1,1-5.6c0-2.7-0.6-5.1-1.8-7c-1.2-1.9-2.6-3.6-4.2-4.9c-1.6-1.3-3-2.2-4.3-2.8C327,160.6,326.3,160.2,326.1,160.1z
				 M322.6,136c0,0.8,0,1.5,0.1,2.2c0.1,0.7,0.4,1.5,0.9,2.2c0.3-0.3,0.4-0.8,0.5-1.6c0.1-0.8,0.1-1.5,0.1-2.1c0-0.6-0.1-1.3-0.2-2
				c-0.1-0.7-0.3-1.2-0.6-1.5c-0.3,0.4-0.4,0.8-0.5,1.4C322.9,135.1,322.8,135.6,322.6,136z"/>
			<path fill="#FFFFFF" d="M412.6,186.8c-1.6,2.9-3.8,5.4-6.8,7.6c-3,2.2-6.2,3.3-9.7,3.3c-2.3,0-4.2-0.5-5.5-1.5
				c-1.3-1-2.3-2.1-2.9-3.3c-0.7-1.2-1.1-2.4-1.3-3.6c-0.2-1.2-0.3-1.9-0.3-2.3l-0.4,0.8c-1.6,2.1-3.1,3.7-4.7,5
				c-1.6,1.2-3.1,2.2-4.6,2.9c-1.5,0.7-2.8,1.2-4,1.4s-2.1,0.3-2.9,0.3c-4.9,0-8.6-1.8-11.1-5.5c-2.5-3.7-3.7-8-3.7-12.9
				c0-4.7,0.9-9.3,2.8-13.8c1.9-4.5,4.5-8.6,7.8-12.3c3.3-3.6,7.1-6.6,11.4-8.9c4.3-2.3,8.9-3.4,13.8-3.4c4.5,0,8.2,1.1,10.9,3.4
				c2.7,2.3,4.1,5.1,4.1,8.5c0,1.8-0.4,3.6-1.2,5.3c0-0.3-0.9-0.7-2.8-1.4c-1.9-0.6-5.2-1-9.8-1c-1.3,0.1-3.3,0.6-6.1,1.5
				c-2.8,0.8-5.6,2.2-8.4,4.2c-2.8,1.9-5.3,4.5-7.4,7.7c-2.1,3.2-3.2,7.1-3.2,11.8c0,3.8,0.6,6.2,1.9,7.3c1.3,1.1,2.6,1.7,3.9,1.7
				c3.5,0,6.5-1.2,9-3.5c2.5-2.3,4.5-5.1,6.1-8.3c1.6-3.2,2.8-6.4,3.5-9.7c0.7-3.3,1.1-5.9,1.1-7.9c0-0.6-0.1-1.1-0.3-1.4
				c-0.2-0.3-0.3-0.5-0.3-0.6c0-0.3,0.4-0.4,1.2-0.4c1,0,2.4,0.2,4,0.7c1.6,0.5,3.2,1.1,4.7,1.9c1.5,0.8,2.8,1.8,3.9,3
				c1.1,1.2,1.7,2.4,1.7,3.7c0,0.5-0.2,1.2-0.6,1.9c-1.7,4.3-3.1,7.7-4.2,10.2c-1.1,2.5-2.1,4.9-3,7.1c-0.9,2.2-1.4,3.5-1.4,3.9
				c0,1,0.5,1.6,1.4,1.6c3.1,0,5.5-0.8,7.2-2.5c1.7-1.7,3-3.5,3.9-5.5c0.9-2,1.6-3.9,2-5.5c0.5-1.7,1.1-2.6,1.8-2.7
				c1,0,1.6,0.7,1.6,2.1c0,0.8-0.2,1.7-0.5,2.7c-0.3,1-0.7,2-1.1,2.9c-0.4,0.9-0.7,1.7-1.1,2.4C412.7,186.2,412.6,186.6,412.6,186.8
				z"/>
			<path fill="#FFFFFF" d="M435.1,221.6c-4-0.4-7.5-1.5-10.5-3.2c-3-1.8-5.6-3.5-8-5.2c-0.4,0.9-1.3,2.4-2.6,4.4c-1.4,2-3.1,4-5.4,6
				c-2.2,2-4.9,3.8-8.1,5.4c-3.2,1.6-6.8,2.3-10.8,2.3c-4.5,0-8.4-1.3-11.7-4c-3.2-2.7-4.9-6.1-4.9-10.2c0-3.4,0.7-6.3,2.1-8.7
				c1.4-2.4,3.3-4.3,5.5-5.8c2.3-1.5,4.8-2.6,7.7-3.3c2.9-0.7,5.7-1.1,8.6-1.1c1.8,0,3.5,0.1,5.1,0.4c1.6,0.3,3,0.6,4.5,1
				c0-0.1,0.2-1.1,0.7-3c0.5-1.9,1-4.2,1.6-7.1c0.6-2.9,1.3-6,2-9.3c0.8-3.4,1.5-6.6,2.1-9.6c0.7-3,1.3-5.8,1.8-8.3
				c0.6-2.5,1-4.2,1.3-5.3c0.6-2.2,1.1-4.1,1.3-5.7c0.2-1.6,0.3-3,0.3-4c0-1.3-0.2-2.2-0.7-2.8c-0.5-0.6-0.9-0.9-1.5-1.1
				c-0.5-0.1-1-0.2-1.5-0.2c-0.5,0-0.7-0.1-0.7-0.4c0-0.1,0.6-0.3,1.8-0.5c1.2-0.2,2.8-0.3,4.6-0.3c1.9,0,3.8,0.2,5.5,0.6
				c1.8,0.4,3.3,1,4.8,1.9c1.4,0.9,2.6,2.1,3.4,3.5c0.8,1.4,1.3,3.2,1.3,5.3c0,2.1-0.5,4.5-1.4,7.2c-0.9,2.7-1.9,5.6-3.1,8.6
				c-1.2,3-2.3,6.1-3.4,9.2c-1.1,3.2-1.9,6.2-2.4,9.1c0,0.9,0.2,1.8,0.6,2.7c0.4,0.9,1.4,1.4,3.1,1.4c2.3,0,4.2-0.8,5.4-2.5
				c1.3-1.7,2.4-3.6,3.2-5.6c0.8-2.1,1.6-4,2.1-5.6c0.6-1.7,1.3-2.5,2.2-2.5c0.6,0,1,0.4,1.1,1.1c0.1,0.7,0.2,1.1,0.3,1.1
				c-0.7,4-1.8,7.6-3.5,10.7c-1.4,2.6-3.5,5-6.1,7.2c-2.7,2.2-6.3,3.3-10.8,3.3c-0.3-0.1-0.6,0.1-0.9,0.7c-0.3,0.6-0.6,1.3-0.9,2
				c-0.3,0.8-0.5,1.6-0.7,2.3s-0.3,1.2-0.3,1.4c2.5,1,4.7,2,6.7,2.9c2,0.9,5,1.4,9.1,1.4c3.4,0,5.8-0.5,7.3-1.5
				c1.5-1,2.4-1.5,2.6-1.5c0.6,0,1.1,0.4,1.5,1.2c0.3,0.8,0.5,1.8,0.5,2.9c0,2.6-0.9,5.1-2.7,7.6
				C442.7,220.4,439.5,221.6,435.1,221.6z M404,207.6c0.9,0,1.7,0.1,2.3,0.2c0.7,0.1,1.2,0.3,1.8,0.4c0.5,0.3,1,0.5,1.4,0.6
				c-2.6-1.8-5.3-2.9-8.2-3.2c-2.9-0.3-5-0.5-6.4-0.5c-3.4,0-5.9,0.5-7.7,1.6c-1.8,1-3,2.2-3.9,3.5c-0.8,1.3-1.3,2.5-1.5,3.7
				c-0.1,1.2-0.2,1.8-0.2,1.9c0,0.4,0.1,0.9,0.3,1.6c0.2,0.6,0.6,1.3,1.2,1.8c0.6,0.6,1.5,1.1,2.6,1.5c1.2,0.4,2.7,0.6,4.5,0.6
				c1.7,0,3.4-0.4,5.2-1.3c1.8-0.8,3.5-2.9,5.4-6.1c0.7-1.3,1.2-2.7,1.7-4.1C402.8,208.3,403.3,207.6,404,207.6z"/>
			<path fill="#FFFFFF" d="M451.5,198.6c-3.4-0.1-6-1-8-2.7c-1.9-1.7-3.4-3.6-4.5-5.7c-1-2.1-1.7-4.3-2-6.4
				c-0.3-2.1-0.5-3.9-0.5-5.2c0-6.7,1.1-12.6,3.4-17.4c2.3-4.9,5.1-8.9,8.4-12.1c3.3-3.2,6.8-5.5,10.4-7c3.6-1.5,6.7-2.2,9.3-2.2
				c3.9,0,7.4,1.4,10.4,4.3c3,2.9,4.6,6.6,4.6,11.3c0,3.4-0.7,6.4-2.2,9.1c-1.5,2.7-3.4,5-5.8,6.9c-2.4,1.9-5.1,3.3-8.1,4.3
				c-3,1-6,1.5-9.1,1.5c-2.7,0-5.3-0.4-7.6-1.2c-0.4,1-0.7,2.1-1,3.2c-0.3,1.1-0.4,2.2-0.4,3.2c0,2.6,0.7,4.9,2,6.9
				c1.4,2,3.7,3,6.9,3c3.9,0,7.6-1,11-3.1c3.4-2.1,6.5-4.5,9.1-7.3c2.7-2.8,4.8-5.5,6.4-8.3c1.6-2.7,2.6-4.7,2.8-6l0.2-0.2
				c0.3-0.3,0.6-0.4,1-0.4c0.4,0.1,0.8,0.3,1.2,0.5c0.4,0.2,0.6,0.7,0.8,1.5v0.6c-1.4,4.2-3.4,8-5.9,11.6c-2.5,3.6-5.5,6.7-8.9,9.2
				c-3.4,2.6-7.1,4.6-11.2,6C460.1,197.9,455.9,198.6,451.5,198.6z M464.9,154.8c-1.2,0.1-2.5,0.9-4,2.2c-1.5,1.4-2.9,3-4.3,4.8
				c-1.4,1.8-2.5,3.6-3.4,5.5c-0.9,1.8-1.4,3.2-1.4,4.3c0,0.3,0.4,0.5,1.2,0.7s1.7,0.3,2.7,0.3c1.3,0,2.9-0.2,4.7-0.6
				c1.8-0.4,3.5-1.1,5.2-2c1.6-1,3-2.3,4.2-4c1.2-1.7,1.8-3.9,1.8-6.6c0-2.1-0.7-3.5-1.9-4.3C468.3,154.2,466.7,154.2,464.9,154.8z"
				/>
		</g>
	</g>
	<g>
		<g>
			<path fill="#FFFFFF" d="M137.9,320.3c-1.8,3.3-4.1,6.4-6.9,9.3s-5.8,5.6-9,7.8c-3.3,2.3-6.7,4.1-10.5,5.5
				c-3.7,1.4-7.6,2.1-11.5,2.1c-5.8,0-10.9-1.3-15.5-3.9c-4.5-2.6-8.3-6-11.3-10.3c-3-4.2-5.3-9-6.9-14.4
				c-1.6-5.4-2.3-10.9-2.3-16.5c0-9.3,1.4-17.5,4.2-24.7c2.8-7.1,6.4-13.3,10.8-18.5c4.4-5.2,9.3-9.6,14.7-13.2
				c5.4-3.6,10.8-6.5,16.1-8.7c5.3-2.2,10.2-3.7,14.7-4.7c4.5-0.9,8-1.4,10.6-1.4c7.8,0,13.9,1.4,18.4,4.3c4.5,2.9,6.8,6.6,6.8,11.1
				c0,1.8-0.5,3.9-1.5,6.2c-1,2.3-2.8,5-5.5,7.9c-0.4-0.6-0.9-1.3-1.5-2.3c-0.6-1-1.5-2-2.8-3c-1.3-1-3.1-1.9-5.5-2.6
				c-2.4-0.8-5.6-1.2-9.5-1.2c-7.2,0-14,1.5-20.3,4.4c-6.4,3-11.9,6.9-16.7,11.8c-4.8,4.9-8.6,10.5-11.4,16.7
				c-2.8,6.3-4.2,12.7-4.2,19.4c0,3.3,0.5,6.7,1.4,10.3c0.9,3.6,2.3,6.9,4.2,9.9c1.9,3,4.3,5.4,7.3,7.4c3,2,6.6,3,10.8,3.2
				c4.7-0.6,9.2-2,13.8-4.2c4.5-2.3,8.5-5.3,12.1-9.2c3.5-3.9,6.4-8.6,8.6-14.2c2.2-5.6,3.3-12,3.3-19.2c0-2.8-0.3-5.6-0.8-8.3
				c-0.6-2.7-1.5-5-2.8-7c0.4,0.4,0.8,1.2,1.1,2.2c0.3,1.1,0.5,2.3,0.6,3.6c0.1,1.3,0.2,2.6,0.3,3.9c0.1,1.3,0.1,2.3,0.1,3
				c0,2.4-0.3,3.6-0.8,3.6c-0.4,0-0.8-1-1.3-2.9c-0.4-1.9-0.9-4.1-1.4-6.5c-0.5-2.4-1.1-4.7-1.7-6.8c-0.6-2.1-1.4-3.5-2.2-4v-0.2
				c0-0.8,0.6-1.6,1.9-2.2c1.3-0.6,2.7-1.2,4.3-1.6c1.6-0.4,3.2-0.7,4.7-1s2.4-0.3,2.6-0.3c5.9,0,10.2,1.8,12.9,5.4
				c2.7,3.6,4,7.9,4,13c0,4.1-0.6,8.3-1.8,12.5c-1.2,4.2-2.5,8.5-3.9,12.7c-1.4,4.2-2.7,8.4-3.9,12.4c-1.2,4-1.8,7.8-1.8,11.3
				c0,3.1,0.6,5.5,1.8,7.1c1.2,1.6,1.9,2.4,2.2,2.2c0,0.4-0.8,0.7-2.3,1c-1.6,0.2-3.2,0.3-4.9,0.3c-1.7,0-3.4-0.1-5-0.3
				c-1.6-0.2-3.1-0.6-4.3-1.3c-1.3-0.6-2.3-1.5-3.1-2.6c-0.8-1.1-1.2-2.6-1.2-4.4c0-1.7,0.2-3.5,0.6-5.4S137.6,321.6,137.9,320.3z"
				/>
			<path fill="#FFFFFF" d="M230.3,333.7c-0.3-1.1-0.4-2-0.4-2.8c0-0.6,0-1.1,0.1-1.7c0.1-0.6,0.2-1.2,0.3-1.9c0.1-2.1,0.7-5,1.6-8.8
				c0.9-3.7,1.9-7.6,3-11.5c1.1-4,2-7.6,2.9-11c0.8-3.4,1.3-5.9,1.3-7.4c0-1-0.6-1.5-1.7-1.5c-1.7,0-3.6,0.7-5.7,2.1
				c-2.1,1.4-4.2,3.3-6.2,5.5c-2,2.3-3.9,4.7-5.6,7.4c-1.7,2.7-2.9,5.4-3.6,8c-0.8,4.7-1.3,8.5-1.3,11.7c0,5.8,2,9.5,5.9,11
				c0,0.3-1,0.9-2.9,1.9c-1.9,1-4.6,1.5-8.2,1.5c-3.4,0-6.4-0.6-8.9-1.8c-2.5-1.2-3.8-3.9-3.8-8.2c0-4,0.5-7.7,1.4-11.3
				c0.9-3.6,1.9-7.1,3-10.5s2-6.7,3-10c0.9-3.2,1.4-6.6,1.4-10.2c0-1.4-0.3-2.1-0.8-2.1c-2.8,0-5.8,1.7-8.8,5.2
				c-3,3.5-5.8,7.5-8.3,12c-2.5,4.5-4.5,8.9-6.1,13.2c-1.6,4.3-2.4,7.3-2.4,9c0,2.3,0.4,4.1,1.3,5.5c0.8,1.4,2,2.5,3.4,3.4
				c0,0.3-1,0.6-3.1,1.1c-2,0.4-3.7,0.6-5,0.6c-5.1,0-8.4-1.2-10.1-3.5c-1.6-2.3-2.4-4.8-2.4-7.5c0-3.4,0.5-7.1,1.5-11
				c1-4,2.1-7.9,3.3-12c1.2-4,2.3-8,3.3-11.9c1-3.9,1.5-7.5,1.5-10.9c0-1.3-0.2-2.2-0.5-2.8c-0.4-0.6-0.8-1-1.3-1.2
				c-0.5-0.2-0.9-0.3-1.3-0.3c-0.4,0-0.5-0.1-0.5-0.4c-0.1-0.1,0-0.3,0.4-0.4c0.3-0.1,0.8-0.2,1.5-0.3c0.7-0.1,1.7-0.1,3-0.1
				c2,0,3.9,0.1,5.8,0.3c1.9,0.2,3.6,0.7,5.2,1.6c1.6,0.8,2.8,2,3.8,3.6c1,1.6,1.5,3.7,1.5,6.4c0,1.1-0.1,2.3-0.3,3.4
				c-0.2,1.1-0.5,2.5-0.7,4c1.8-2.7,3.8-5.3,6-7.7c2.2-2.5,4.4-4.6,6.8-6.5c2.3-1.8,4.6-3.3,6.8-4.3c2.2-1.1,4.3-1.6,6.2-1.6
				c2.4,0,4.2,1,5.5,3.1c1.3,2,1.9,4.5,1.9,7.3c0,3.1-0.6,6.1-1.7,9c-1.1,2.9-2,5.8-2.8,8.6c2.1-3.2,4.5-6.3,7.1-9.2
				c2.6-2.9,5.3-5.4,8-7.5s5.5-3.8,8.3-5c2.8-1.2,5.3-1.8,7.5-1.8c2.7,0,4.6,1,5.6,3.1c1.1,2,1.6,4.6,1.6,7.5c0,1.1-0.5,3.4-1.4,6.7
				c-0.9,3.3-1.9,6.9-3,10.8c-1.1,3.9-2,7.8-3,11.7c-0.9,3.9-1.4,7-1.4,9.2c0,2.8,0.4,5,1.2,6.6c0.8,1.6,1.6,2.7,2.5,3.5
				c0.9,0.8,1.8,1.3,2.5,1.7c0.8,0.4,1.2,0.6,1.2,0.7c0,0.7-1.6,1.6-4.7,2.6c-3.1,1.1-6.4,1.6-10,1.6c-2.4,0-4.5-0.4-6.4-1.3
				C232.3,337.1,231,335.6,230.3,333.7z"/>
			<path fill="#FFFFFF" d="M264.2,332.8c-2.5,0-4.6-0.4-6.2-1.2c-1.6-0.8-2.9-1.8-3.7-3c-0.8-1.2-1.4-2.5-1.8-4
				c-0.4-1.5-0.5-2.9-0.5-4.3c0-3.4,0.5-6.9,1.6-10.6c1.1-3.7,2.2-7.4,3.5-11.1c1.3-3.7,2.4-7.4,3.5-11.1c1.1-3.7,1.6-7.3,1.6-10.8
				c0-1.3-0.2-2.2-0.7-2.8c-0.5-0.6-1-1-1.5-1.2c-0.5-0.2-1-0.3-1.5-0.3c-0.5,0-0.7-0.1-0.7-0.4c0-0.6,1.9-0.8,5.7-0.8
				c2.1,0,4.2,0.2,6.1,0.6c2,0.4,3.8,1.1,5.4,2.1c1.6,1,2.9,2.3,3.9,3.8c1,1.6,1.5,3.5,1.5,5.7c0,2.3-0.5,4.8-1.5,7.5
				c-1,2.8-2.2,5.7-3.6,8.8c-1.4,3.1-2.8,6.3-4.1,9.5c-1.3,3.3-2.4,6.6-3.3,10c-0.4,0.7-0.6,1.4-0.6,2.1c0,1.1,0.4,2,1.2,2.8
				c0.8,0.7,1.8,1.1,3.1,1.1c2.4,0,4.3-0.9,5.8-2.6c1.5-1.8,2.7-3.7,3.7-5.8c1-2.1,1.8-4.1,2.4-5.8c0.6-1.8,1.4-2.6,2.2-2.6
				c1,0,1.5,0.3,1.6,1c0.1,0.6,0.1,1.1,0.1,1.4c-0.8,4.7-2.1,8.4-3.7,11.1c-1.6,2.8-4,5.3-7,7.6
				C273.5,331.7,269.4,332.8,264.2,332.8z"/>
			<path fill="#FFFFFF" d="M340.4,314.4c0.1-0.1,0.4-0.2,0.6-0.2c0.7,0,1.1,0.6,1.1,1.9c0,0.6-0.1,1.2-0.2,1.8
				c-0.1,0.6-0.6,1.3-1.5,1.9s-2.3,1.2-4.2,1.7c-2,0.5-4.8,1-8.5,1.4c-2.5,3-5.8,5.4-9.7,7.2c-4,1.8-8.2,2.8-12.7,2.8
				c-6.6,0-12.2-1.7-16.6-5.2c-4.4-3.5-6.7-8.4-6.7-14.7c0-2.7,0.8-5,2.3-7.1c1.6-2,4.1-3.2,7.6-3.5c0.6,0,1.2-0.5,1.9-1.5
				c0.7-1,1.4-2.2,2-3.7c0.6-1.5,1.3-3.1,1.9-4.9c0.6-1.8,1.2-3.4,1.6-5c-2.5-2.3-4.6-4.9-6.2-7.9c-1.6-3-2.4-6.6-2.4-10.7
				c0-4.4,1.2-7.9,3.5-10.7s5.3-4.1,9-4.1c2.4,0,4.2,1.5,5.4,4.4c1.2,3,1.8,6,1.8,9.1c0,1.6-0.1,3-0.4,4.4c-0.3,1.4-0.8,2.5-1.5,3.2
				c4.1,2.7,7.7,5.1,10.9,7.1c3.2,2,5.8,4.2,7.9,6.4c2.1,2.2,3.7,4.6,4.8,7.3c1.1,2.7,1.6,6,1.6,10c0,4-0.8,7.8-2.5,11.7
				c3.5-0.8,5.9-1.5,7.2-2C339.6,314.9,340.3,314.5,340.4,314.4z M291.5,316.1c0,3.5,1.1,6,3.3,7.3c2.2,1.3,4.9,2,8.2,2
				c2.3,0,4.4-0.5,6.5-1.6c2-1.1,3.9-2.6,5.6-4.6c-1.8-1-3.5-2-4.9-3c-1.4-1-2.8-1.9-4-2.6c-1.3-0.8-2.6-1.4-4-1.9
				c-1.4-0.5-3-0.7-4.7-0.7c-1.6,0-2.9,0.4-4.1,1.3C292.1,313.1,291.5,314.4,291.5,316.1z M305.3,291.3c-1.1,3-2.1,5.3-2.9,6.9
				c-0.8,1.6-1.8,3.4-3.1,5.4c2.8,1.1,5,2.2,6.7,3.2c1.6,1,3,1.9,4.1,2.8c1.1,0.8,2.3,1.7,3.4,2.5c1.1,0.8,2.5,1.7,4.2,2.5
				c0.7-2.4,1.1-4.4,1.1-6.1c0-3-0.7-5.5-2-7.6c-1.3-2.1-2.9-3.9-4.6-5.3c-1.7-1.4-3.3-2.4-4.7-3.1
				C306.2,291.8,305.4,291.4,305.3,291.3z M301.4,265c0,0.8,0,1.7,0.1,2.4c0.1,0.8,0.4,1.6,1,2.4c0.3-0.3,0.5-0.8,0.5-1.7
				c0.1-0.8,0.1-1.6,0.1-2.3c0-0.7-0.1-1.4-0.2-2.2c-0.1-0.8-0.4-1.3-0.6-1.6c-0.3,0.4-0.5,0.9-0.5,1.5
				C301.7,264.1,301.6,264.6,301.4,265z"/>
			<path fill="#FFFFFF" d="M350.6,238.8c-0.4-0.1-0.6-0.3-0.6-0.4c0-0.4,0.9-0.8,2.6-1.2c1.8-0.4,3.8-0.5,6.2-0.5
				c1.4,0,3,0.2,4.9,0.5c1.8,0.4,3.5,0.9,5.1,1.6c1.6,0.7,2.9,1.6,4,2.5c1.1,1,1.7,2.1,1.7,3.4c1.1-0.1,2.5-0.2,4.1-0.3
				c1.6-0.1,3.4-0.1,5.4-0.1c3.1,0,6.4,0.1,9.7,0.2c3.4,0.1,6.5,0.6,9.4,1.3c2.9,0.7,5.3,1.8,7.1,3.4c1.8,1.6,2.8,3.8,2.8,6.8
				c0,2-0.4,3-1.1,3l-0.4-0.4c-0.6-1-2-1.6-4.4-1.9c-2.4-0.3-5.3-0.3-8.7-0.1s-7,0.6-10.8,1.2c-3.8,0.6-7.4,1.1-10.7,1.7
				c-3.3,0.6-6.2,1.1-8.6,1.6c-2.4,0.5-3.8,0.7-4.2,0.7c0.1,0,0.2,0,0.3-0.1c0.1-0.1,0.2-0.1,0.5-0.1c1.8,0,3.7,0.2,5.7,0.6
				c2,0.4,3,1.2,3,2.3c0,0.3-0.1,1-0.4,2.1c-1.3,3.8-3.1,8.2-5.5,13c-2.4,4.9-4.8,9.8-7.3,14.8c-2.5,5-4.6,9.9-6.4,14.5
				c-1.8,4.7-2.6,8.7-2.6,12.1c0,1,0.2,2.2,0.7,3.5c0.5,1.3,1.5,2,3.1,2c3.4,0,6.1-1,8.2-3c2-2,3.7-4.1,5-6.5
				c1.3-2.3,2.3-4.5,3.1-6.5c0.8-2,1.6-3,2.4-3c0.7,0,1.1,0.3,1.3,0.8c0.1,0.6,0.2,1,0.2,1.3c0,0.3-0.3,1.6-1,4
				c-0.6,2.4-1.9,5.1-3.7,7.9c-1.8,2.9-4.4,5.5-7.7,7.8c-3.3,2.3-7.7,3.5-13.2,3.5c-2.7,0-4.9-0.4-6.6-1.2c-1.7-0.8-3-1.8-3.9-3
				c-0.9-1.2-1.6-2.6-1.9-4.1c-0.4-1.6-0.5-3.1-0.5-4.7c0-4.4,0.6-9,1.8-13.9c1.2-4.9,2.6-9.9,4.3-14.9c1.7-5.1,3.4-10.2,5-15.3
				c1.6-5.1,2.9-9.9,3.7-14.4c-6.4-0.4-11-2-14.1-4.9c-3-2.8-4.6-6.3-4.6-10.4c0-1.1,0.2-2.5,0.7-4.1c0.5-1.6,1.2-2.4,2.2-2.4
				c0.1,1.3,0.7,2.3,1.7,3.2c1,0.8,2.6,1.6,5,2.2s5.8,1,10.5,1c0-0.3-0.1-0.8-0.2-1.5c-0.1-0.7-0.3-1.5-0.5-2.3
				c-0.2-0.8-0.5-1.6-0.7-2.3C351.4,239.3,351,238.9,350.6,238.8z"/>
			<path fill="#FFFFFF" d="M426.6,320.3c-1.7,3.1-4.2,5.9-7.4,8.3c-3.3,2.4-6.8,3.6-10.6,3.6c-2.5,0-4.5-0.5-5.9-1.6
				c-1.4-1.1-2.5-2.3-3.2-3.6c-0.7-1.3-1.2-2.6-1.4-3.9c-0.2-1.3-0.3-2.1-0.3-2.5l-0.4,0.8c-1.7,2.3-3.4,4.1-5.1,5.4
				c-1.7,1.3-3.4,2.4-5,3.2c-1.6,0.8-3.1,1.3-4.3,1.5c-1.3,0.2-2.3,0.3-3.2,0.3c-5.4,0-9.4-2-12.1-6c-2.7-4-4-8.7-4-14.1
				c0-5.1,1-10.1,3.1-15c2-4.9,4.9-9.4,8.5-13.3c3.6-4,7.7-7.2,12.4-9.6c4.7-2.5,9.7-3.7,15-3.7c4.9,0,8.9,1.2,11.9,3.7
				c3,2.5,4.4,5.5,4.4,9.2c0,2-0.4,3.9-1.3,5.7c0-0.3-1-0.8-3.1-1.5c-2-0.7-5.6-1.1-10.7-1.1c-1.4,0.1-3.6,0.7-6.7,1.6
				c-3,0.9-6.1,2.4-9.1,4.6c-3,2.1-5.7,4.9-8,8.4c-2.3,3.5-3.5,7.7-3.5,12.8c0,4.1,0.7,6.7,2.1,7.9c1.4,1.2,2.8,1.8,4.2,1.8
				c3.8,0,7.1-1.3,9.7-3.8c2.7-2.5,4.9-5.5,6.7-9c1.8-3.5,3-7,3.8-10.6c0.8-3.6,1.2-6.5,1.2-8.6c0-0.7-0.1-1.2-0.3-1.5
				c-0.2-0.3-0.3-0.5-0.3-0.6c0-0.3,0.4-0.4,1.3-0.4c1.1,0,2.6,0.2,4.3,0.7c1.8,0.5,3.5,1.2,5.1,2.1c1.6,0.9,3,2,4.2,3.3
				c1.2,1.3,1.8,2.6,1.8,4c0,0.6-0.2,1.3-0.6,2.1c-1.8,4.7-3.4,8.4-4.6,11.1c-1.2,2.8-2.3,5.3-3.3,7.7c-1,2.4-1.5,3.8-1.5,4.2
				c0,1.1,0.5,1.7,1.5,1.7c3.4,0,6-0.9,7.8-2.8c1.8-1.8,3.2-3.8,4.2-6c1-2.2,1.7-4.2,2.2-6c0.5-1.8,1.2-2.8,2-3
				c1.1,0,1.7,0.8,1.7,2.3c0,0.8-0.2,1.8-0.5,3c-0.4,1.1-0.7,2.2-1.2,3.2c-0.4,1-0.8,1.9-1.2,2.6
				C426.8,319.7,426.6,320.2,426.6,320.3z"/>
			<path fill="#FFFFFF" d="M490.4,323.9c-0.4,0.7-1.1,1.6-2.1,2.8c-1,1.1-2.2,2.3-3.7,3.4s-3.1,2.1-4.9,3c-1.8,0.8-3.7,1.3-5.8,1.3
				c-3.7,0-6.4-0.7-8.2-2.2c-1.8-1.5-3-3.1-3.8-4.8c-0.8-1.7-1.2-3.3-1.3-4.8c-0.1-1.5-0.2-2.2-0.3-2.2c-2.7,5.2-6.1,8.8-10.2,10.8
				c-4.1,2-8.1,2.5-12,1.6c-3.9-0.9-7.2-3.2-10-7c-2.8-3.7-4.1-8.8-4.1-15.1c0-4.2,0.7-8.3,2-12.1c1.3-3.8,3-7.3,5.1-10.4
				c2-3.1,4.3-5.8,6.8-8.2c2.5-2.3,4.9-4.1,7.3-5.4c4.9-2.8,9.7-4.3,14.2-4.4c4.5-0.1,8.5,0.7,12.1,2.5c1.7-5.5,2.9-9.9,3.5-13.2
				c0.6-3.3,1-6.4,1-9.2c0-2.7-0.3-5-0.8-7c-0.6-2-1.2-3.6-1.9-4.9c-0.7-1.3-1.3-2.2-1.9-2.8c-0.6-0.6-0.8-0.9-0.8-1.1
				c0-0.4,0.9-0.9,2.6-1.4c1.8-0.5,3.9-0.7,6.5-0.7c1.8,0,3.8,0.2,5.8,0.5c2,0.4,4,1,5.7,1.9c1.8,0.9,3.2,2.2,4.4,3.9
				c1.2,1.7,1.8,3.8,1.8,6.4c0,3.7-0.8,8.2-2.5,13.6c-1.7,5.4-3.7,11.1-6,17.1c-2.3,6-4.7,12.1-7.1,18.2c-2.4,6.1-4.3,12-5.7,17.5
				c-0.1,0.7-0.4,1.9-0.8,3.6c-0.4,1.7-0.7,3.4-1,5.2c-0.2,1.8-0.2,3.3,0.1,4.7c0.3,1.3,1.1,2,2.5,2c3.4,0,6-1,7.7-2.9
				c1.8-1.9,3.2-4,4.2-6.4c1.1-2.3,1.9-4.5,2.4-6.5c0.6-2,1.3-3,2.3-3.2c0.8,0,1.3,0.4,1.4,1.2c0.1,0.8,0.2,1.2,0.3,1.4
				c-0.3,0.8-0.6,2.3-0.8,4.4C494.1,317.2,492.8,320.1,490.4,323.9z M462.9,306.8c0.7-3.7,1.5-7.4,2.4-11.1
				c0.9-3.7,1.9-7.4,2.9-11.1c-3.7-0.4-7.3,0-10.9,1.2c-3.6,1.2-6.8,3.1-9.6,5.6c-2.8,2.5-5.1,5.6-6.8,9.1
				c-1.7,3.5-2.5,7.3-2.5,11.4c0,4.9,0.7,8.2,2.2,9.7c1.5,1.6,3,2.3,4.6,2.3c1.7,0,3.5-0.5,5.3-1.6c1.8-1.1,3.6-2.4,5.3-4.1
				c1.7-1.7,3.2-3.6,4.4-5.6C461.4,310.6,462.3,308.6,462.9,306.8z"/>
			<g>
				<g>
					<path fill="none" stroke="#800F26" stroke-miterlimit="10" d="M282.2,252.8c0,2.1-0.3,4.1-1,6c-0.7,1.9-1.6,3.6-2.8,5.2
						c-1.2,1.5-2.6,2.7-4.1,3.6c-1.5,0.9-3.1,1.3-4.8,1.3c-2.3,0-4.3-0.8-5.9-2.3c-1.7-1.6-2.5-3.7-2.5-6.6c0-2,0.4-3.9,1.1-5.8
						c0.7-1.9,1.7-3.6,2.9-5.1c1.2-1.5,2.6-2.7,4.1-3.6c1.6-0.9,3.2-1.3,5-1.3c2.3,0,4.2,0.8,5.7,2.3
						C281.4,248.1,282.2,250.2,282.2,252.8z"/>
				</g>
				<g>
					<path fill="#FFFFFF" d="M285.3,251.2c0,2.1-0.3,4.1-1,6c-0.7,1.9-1.6,3.6-2.8,5.2c-1.2,1.5-2.6,2.7-4.1,3.6
						c-1.5,0.9-3.1,1.3-4.8,1.3c-2.3,0-4.3-0.8-5.9-2.3c-1.7-1.6-2.5-3.7-2.5-6.6c0-2,0.4-3.9,1.1-5.8c0.7-1.9,1.7-3.6,2.9-5.1
						c1.2-1.5,2.6-2.7,4.1-3.6c1.6-0.9,3.2-1.3,5-1.3c2.3,0,4.2,0.8,5.7,2.3C284.6,246.5,285.3,248.5,285.3,251.2z"/>
				</g>
			</g>
		</g>
	</g>
	<g>
		<g>
			<path fill="#FFFFFF" d="M227,251.9c-0.2,0.3-0.4,0.6-0.8,1.1c-0.4,0.4-0.9,0.9-1.4,1.3c-0.6,0.4-1.2,0.8-1.9,1.1
				c-0.7,0.3-1.4,0.5-2.2,0.5c-1.4,0-2.5-0.3-3.1-0.9c-0.7-0.6-1.2-1.2-1.5-1.8c-0.3-0.6-0.5-1.3-0.5-1.8c0-0.6-0.1-0.9-0.1-0.9
				c-1,2-2.3,3.4-3.9,4.1c-1.6,0.8-3.1,1-4.6,0.6c-1.5-0.4-2.8-1.2-3.8-2.7c-1.1-1.4-1.6-3.4-1.6-5.8c0-1.6,0.3-3.2,0.8-4.6
				c0.5-1.5,1.2-2.8,1.9-4s1.7-2.2,2.6-3.1c0.9-0.9,1.9-1.6,2.8-2.1c1.9-1.1,3.7-1.7,5.4-1.7c1.7-0.1,3.3,0.3,4.6,1
				c0.6-2.1,1.1-3.8,1.3-5.1c0.2-1.3,0.4-2.4,0.4-3.5c0-1-0.1-1.9-0.3-2.7c-0.2-0.8-0.5-1.4-0.7-1.9c-0.3-0.5-0.5-0.8-0.7-1.1
				c-0.2-0.2-0.3-0.4-0.3-0.4c0-0.2,0.3-0.3,1-0.5c0.7-0.2,1.5-0.3,2.5-0.3c0.7,0,1.4,0.1,2.2,0.2c0.8,0.1,1.5,0.4,2.2,0.7
				c0.7,0.4,1.2,0.9,1.7,1.5c0.5,0.6,0.7,1.5,0.7,2.4c0,1.4-0.3,3.1-1,5.2c-0.6,2.1-1.4,4.2-2.3,6.5c-0.9,2.3-1.8,4.6-2.7,7
				c-0.9,2.4-1.7,4.6-2.2,6.7c-0.1,0.3-0.2,0.7-0.3,1.4c-0.2,0.6-0.3,1.3-0.4,2c-0.1,0.7-0.1,1.3,0,1.8c0.1,0.5,0.4,0.8,1,0.8
				c1.3,0,2.3-0.4,3-1.1c0.7-0.7,1.2-1.5,1.6-2.4c0.4-0.9,0.7-1.7,0.9-2.5c0.2-0.8,0.5-1.2,0.9-1.2c0.3,0,0.5,0.1,0.5,0.4
				c0,0.3,0.1,0.5,0.1,0.5c-0.1,0.3-0.2,0.9-0.3,1.7C228.4,249.3,227.9,250.4,227,251.9z M216.4,245.3c0.3-1.4,0.6-2.8,0.9-4.3
				c0.4-1.4,0.7-2.9,1.1-4.3c-1.4-0.2-2.8,0-4.2,0.4c-1.4,0.5-2.6,1.2-3.7,2.2c-1.1,1-1.9,2.1-2.6,3.5c-0.6,1.4-1,2.8-1,4.4
				c0,1.9,0.3,3.1,0.9,3.7c0.6,0.6,1.1,0.9,1.7,0.9c0.6,0,1.3-0.2,2-0.6c0.7-0.4,1.4-0.9,2-1.6c0.6-0.6,1.2-1.4,1.7-2.2
				C215.8,246.7,216.2,246,216.4,245.3z"/>
			<path fill="#FFFFFF" d="M232.9,255.4c-1.4-0.1-2.5-0.4-3.3-1.1c-0.8-0.7-1.4-1.5-1.9-2.4c-0.4-0.9-0.7-1.8-0.9-2.7
				c-0.1-0.9-0.2-1.6-0.2-2.2c0-2.8,0.5-5.2,1.4-7.3c0.9-2,2.1-3.7,3.5-5c1.4-1.3,2.8-2.3,4.3-2.9c1.5-0.6,2.8-0.9,3.9-0.9
				c1.6,0,3.1,0.6,4.3,1.8c1.3,1.2,1.9,2.8,1.9,4.7c0,1.4-0.3,2.7-0.9,3.8c-0.6,1.1-1.4,2.1-2.4,2.9c-1,0.8-2.1,1.4-3.4,1.8
				c-1.2,0.4-2.5,0.6-3.8,0.6c-1.1,0-2.2-0.2-3.2-0.5c-0.2,0.4-0.3,0.9-0.4,1.3c-0.1,0.5-0.2,0.9-0.2,1.3c0,1.1,0.3,2,0.9,2.9
				c0.6,0.8,1.5,1.3,2.9,1.3c1.6,0,3.2-0.4,4.6-1.3c1.4-0.9,2.7-1.9,3.8-3c1.1-1.2,2-2.3,2.7-3.5c0.7-1.1,1.1-2,1.2-2.5l0.1-0.1
				c0.1-0.1,0.2-0.2,0.4-0.2c0.2,0.1,0.3,0.1,0.5,0.2c0.2,0.1,0.3,0.3,0.3,0.6v0.2c-0.6,1.7-1.4,3.3-2.5,4.8
				c-1.1,1.5-2.3,2.8-3.7,3.9c-1.4,1.1-3,1.9-4.7,2.5C236.5,255.1,234.7,255.4,232.9,255.4z M238.5,237.2c-0.5,0.1-1,0.4-1.7,0.9
				c-0.6,0.6-1.2,1.2-1.8,2c-0.6,0.8-1,1.5-1.4,2.3c-0.4,0.8-0.6,1.4-0.6,1.8c0,0.1,0.2,0.2,0.5,0.3c0.3,0.1,0.7,0.1,1.1,0.1
				c0.5,0,1.2-0.1,1.9-0.2c0.8-0.2,1.5-0.4,2.2-0.9c0.7-0.4,1.3-1,1.7-1.7c0.5-0.7,0.7-1.6,0.7-2.8c0-0.9-0.3-1.5-0.8-1.8
				C239.9,236.9,239.3,236.9,238.5,237.2z"/>
		</g>
	</g>
	<g>
		<path fill="none" stroke="#800F26" stroke-miterlimit="10" d="M508.8,158.4c22.3-8.7,81.2-31.7,99.5-38.6c2.4-0.9,4.8,1.2,4.3,3.7
			c-3.5,16.5-13.7,64.7-17.8,84c-0.8,3.8-5.3,5.4-8.3,3.1c-6.3-4.8-16.2-12.4-24.4-18.7l-14.3,11.4c-1.7,1.3-4.1,0.6-4.8-1.5
			l-8.8-28.6l-25.2-8.5C506,163.8,505.9,159.6,508.8,158.4z"/>
		<g>
			<g>
				<path fill="#A9D1DB" d="M531.1,170.1l8.8,28.6c0.6,2,3.1,2.8,4.8,1.5l28.2-22.5c0,0-29.3-12-29.3-11.4
					C543.5,167,531.1,170.1,531.1,170.1z"/>
				<path fill="#FFFFFF" d="M605.3,116.7c-18.3,6.9-77.2,29.9-99.5,38.6c-2.9,1.2-2.8,5.3,0.2,6.4l25.2,8.5l8.8,28.5
					c0.4,1.1,1.3,1.9,2.3,2.1c0.8,0.2,2.5-22.9,2.5-22.9s26.3,20.2,38.7,29.7c3.1,2.3,7.5,0.7,8.3-3.1c4.1-19.3,14.3-67.6,17.8-84
					C610.1,117.9,607.6,115.8,605.3,116.7z"/>
				<path fill="#D1E2EA" d="M542.2,200.8c0.8,0.2,2.5-22.9,2.5-22.9l44.4-40.3c0.3-0.3,0-0.7-0.4-0.5l-57.6,33.1l8.8,28.5
					C540.2,199.8,541.2,200.5,542.2,200.8z"/>
			</g>
		</g>
	</g>
	<path fill="none" stroke="#FFFFFF" stroke-miterlimit="10" stroke-dasharray="5" d="M500.3,300.4c13.8-14.4,24.1-41.2,12.3-60.1
		c-4.8-7.6-12.8-12.7-22.2-12.2c-11.8,0.7-13.2,12.7-3.5,18.8c15.9,10,41.4,3.3,53.4-8.9c6.9-7,10-17,5.5-26.3"/>
</g>
</svg>
