<svg width="20" height="20" viewBox="0 0 20 20" fill="none" xmlns="http://www.w3.org/2000/svg">
<path d="M4.49219 0.25C4.89844 0.25 5.26562 0.382812 5.59375 0.648438L5.66406 0.695312L8.73438 3.85938L8.71094 3.88281C9.03906 4.19531 9.20312 4.57812 9.20312 5.03125C9.20312 5.48438 9.04688 5.86719 8.73438 6.17969L7.23438 7.67969C7.76562 8.89844 8.46094 9.91406 9.32031 10.7266C10.2109 11.5703 11.2344 12.2734 12.3906 12.8359L13.8906 11.3359C14.2031 11.0234 14.5938 10.8672 15.0625 10.8672C15.5312 10.8672 15.9219 11.0234 16.2344 11.3359L16.2578 11.3828L19.3047 14.4297C19.6172 14.7422 19.7734 15.1328 19.7734 15.6016C19.7734 16.0547 19.6172 16.4375 19.3047 16.75L16.9375 19.1172C16.5781 19.4297 16.1641 19.6328 15.6953 19.7266C15.2422 19.8203 14.7891 19.7891 14.3359 19.6328H14.3125C10.9531 18.3203 8.11719 16.5078 5.80469 14.1953C4.39844 12.7891 3.17188 11.2031 2.125 9.4375C1.375 8.15625 0.789062 6.90625 0.367188 5.6875V5.66406C0.210938 5.22656 0.1875 4.78125 0.296875 4.32812C0.40625 3.85938 0.640625 3.46094 1 3.13281L0.976562 3.10938L3.34375 0.671875L3.39062 0.648438C3.71875 0.382812 4.08594 0.25 4.49219 0.25ZM4.49219 1.75C4.44531 1.75 4.39062 1.77344 4.32812 1.82031L2.00781 4.1875C1.88281 4.29687 1.79688 4.45313 1.75 4.65625C1.70312 4.84375 1.71094 5.01563 1.77344 5.17188C2.16406 6.28125 2.71094 7.44531 3.41406 8.66406C4.39844 10.3359 5.54688 11.8281 6.85938 13.1406C8.98438 15.2656 11.6328 16.9531 14.8047 18.2031C15.2422 18.3438 15.625 18.2734 15.9531 17.9922L18.2969 15.6484C18.3281 15.6172 18.3438 15.6016 18.3438 15.6016C18.3438 15.5859 18.3281 15.5625 18.2969 15.5312L15.1562 12.3906C15.1094 12.3438 15.0781 12.3203 15.0625 12.3203C15.0469 12.3203 15.0156 12.3438 14.9688 12.3906L12.7188 14.6406L11.6641 14.1484C11.1641 13.8984 10.6797 13.6172 10.2109 13.3047C9.55469 12.8828 8.96875 12.4375 8.45312 11.9688L8.28906 11.8281C7.75781 11.3125 7.25781 10.7109 6.78906 10.0234C6.46094 9.52344 6.16406 9 5.89844 8.45312L5.61719 7.79688L5.45312 7.32812L5.80469 7L7.67969 5.125C7.72656 5.07812 7.74219 5.02344 7.72656 4.96094L4.65625 1.82031C4.59375 1.77344 4.53906 1.75 4.49219 1.75Z" fill="white"/>
</svg>
