<svg width="24" height="24" viewBox="0 0 24 24" fill="none" xmlns="http://www.w3.org/2000/svg">
<path d="M19.9688 3.78125C18.9141 2.72656 17.7031 1.91602 16.3359 1.34961C14.9688 0.783203 13.543 0.5 12.0586 0.5C10.0273 0.5 8.14258 1.00781 6.4043 2.02344C4.70508 3.01953 3.36719 4.35742 2.39062 6.03711C1.35547 7.79492 0.837891 9.67969 0.837891 11.6914C0.837891 13.7031 1.33594 15.5684 2.33203 17.2871L0.75 23.0879L6.69727 21.5352C8.35742 22.4531 10.1348 22.9121 12.0293 22.9121H12.0586C14.0703 22.9121 15.9453 22.4043 17.6836 21.3887C19.3828 20.3926 20.7305 19.0449 21.7266 17.3457C22.7422 15.6074 23.25 13.7324 23.25 11.7207C23.25 10.2168 22.9668 8.78125 22.4004 7.41406C21.834 6.04688 21.0234 4.83594 19.9688 3.78125ZM12.0586 21.0078C10.3398 21.0078 8.75781 20.5781 7.3125 19.7188L6.96094 19.5137L3.44531 20.4512L4.38281 16.9941L4.14844 16.6426C3.21094 15.1387 2.74219 13.4883 2.74219 11.6914C2.74219 10.0117 3.16211 8.44922 4.00195 7.00391C4.82227 5.59766 5.93555 4.48438 7.3418 3.66406C8.80664 2.82422 10.3789 2.4043 12.0586 2.4043C13.2891 2.4043 14.4707 2.63867 15.6035 3.10742C16.7363 3.57617 17.7422 4.25 18.6211 5.12891C19.5 6.00781 20.1738 7.01367 20.6426 8.14648C21.1113 9.2793 21.3457 10.4609 21.3457 11.6914C21.3457 13.3906 20.9258 14.9629 20.0859 16.4082C19.2656 17.8145 18.1523 18.9277 16.7461 19.748C15.3008 20.5879 13.7383 21.0078 12.0586 21.0078ZM17.1562 14.0352C16.1016 13.5078 15.4668 13.2051 15.252 13.127C15.0957 13.0684 14.9688 13.0488 14.8711 13.0684C14.7734 13.0684 14.6855 13.1367 14.6074 13.2734C14.4512 13.5273 14.1582 13.8887 13.7285 14.3574C13.6504 14.4551 13.5625 14.5137 13.4648 14.5332C13.3672 14.5332 13.25 14.5039 13.1133 14.4453L12.9375 14.3574C12.1563 14.0254 11.4629 13.5957 10.8574 13.0684C10.2715 12.5215 9.75391 11.8672 9.30469 11.1055C9.24609 10.9883 9.22656 10.8906 9.24609 10.8125C9.28516 10.7344 9.34375 10.6465 9.42188 10.5488C9.48047 10.4902 9.58789 10.373 9.74414 10.1973L9.86133 10.0508C9.93945 9.95312 10.0176 9.82617 10.0957 9.66992L10.125 9.58203C10.2031 9.44531 10.2031 9.2793 10.125 9.08398L9.24609 7.00391C9.16797 6.80859 9.07031 6.67187 8.95312 6.59375C8.89453 6.55469 8.80664 6.53516 8.68945 6.53516H8.07422C7.80078 6.53516 7.55664 6.65234 7.3418 6.88672L7.2832 6.94531C7.0293 7.19922 6.83398 7.45313 6.69727 7.70703C6.46289 8.15625 6.3457 8.66406 6.3457 9.23047C6.3457 9.79688 6.52148 10.4219 6.87305 11.1055C7.04883 11.457 7.25391 11.7891 7.48828 12.1016L7.54688 12.1895C8.01562 12.8535 8.52344 13.459 9.07031 14.0059C10.1055 15.0801 11.1797 15.8516 12.293 16.3203C12.7812 16.5352 13.2988 16.7305 13.8457 16.9062C14.3926 17.082 14.9883 17.1211 15.6328 17.0234C15.9453 16.9844 16.2969 16.8379 16.6875 16.584C17.1367 16.291 17.4102 15.998 17.5078 15.7051C17.625 15.4121 17.6934 15.1387 17.7129 14.8848C17.7324 14.6113 17.7227 14.4453 17.6836 14.3867C17.6445 14.3086 17.5176 14.2207 17.3027 14.123L17.1562 14.0352Z" fill="white"/>
</svg>
