<?xml version="1.0" encoding="utf-8"?>
<!-- Generator: Adobe Illustrator 24.1.1, SVG Export Plug-In . SVG Version: 6.00 Build 0)  -->
<svg version="1.1" id="Capa_1" xmlns="http://www.w3.org/2000/svg" xmlns:xlink="http://www.w3.org/1999/xlink" x="0px" y="0px"
	 viewBox="0 0 60 60" style="enable-background:new 0 0 60 60;" xml:space="preserve">
<style type="text/css">
	.st0{fill:#FF5023;}
</style>
<path class="st0" d="M14.2,2.9l-1.4,1.4L4,13.1l-1.4,1.4L17,28.9l-10,10L4.7,50.5L4,53.4l3-0.6l11.6-2.3l10-10l14.3,14.3l1.4-1.4
	l8.8-8.8l1.4-1.4L40.2,28.9l9.9-9.9c1-1,1.8-2.3,2.1-3.7c0.4-1.4,0.4-2.8,0-4.3c-0.4-1.4-1.1-2.6-2.1-3.7c-0.8-0.8-1.7-1.4-2.7-1.8
	s-2-0.6-3.1-0.6s-2.1,0.2-3.1,0.6s-1.9,1-2.7,1.8l-9.9,9.9L14.2,2.9z M14.2,8.6l3.9,3.9l-2.9,2.9l2.9,2.9l2.9-2.9l4.8,4.8l-5.9,5.9
	L8.2,14.5L14.2,8.6z M44.3,8.8c1.1,0,2.1,0.5,3,1.4s1.4,1.9,1.4,3c0,1-0.5,2-1.4,2.9L46,17.4l-6-5.9l1.3-1.3
	C42.3,9.3,43.3,8.8,44.3,8.8z M37.2,14.3l5.9,5.9L19,44.4c-1.3-2.6-3.3-4.6-5.9-5.9L37.2,14.3z M37.4,31.7l4.8,4.8l-3,3l2.9,2.9l3-3
	l3.8,3.8l-6,6L31.4,37.7L37.4,31.7z M10.5,41.7c1.2,0.5,2.3,1.2,3.2,2.1c0.9,0.9,1.6,2,2.1,3.2l-6.6,1.3L10.5,41.7z"/>
</svg>
