<?xml version="1.0" encoding="utf-8"?>
<!-- Generator: Adobe Illustrator 24.1.1, SVG Export Plug-In . SVG Version: 6.00 Build 0)  -->
<svg version="1.1" id="Capa_1" xmlns="http://www.w3.org/2000/svg" xmlns:xlink="http://www.w3.org/1999/xlink" x="0px" y="0px"
	 viewBox="0 0 182 58" style="enable-background:new 0 0 182 58;" xml:space="preserve">
<style type="text/css">
	.st0{clip-path:url(#SVGID_2_);}
	.st1{fill:#FF4E0E;}
</style>
<g>
	<g>
		<defs>
			<rect id="SVGID_1_" width="182" height="58"/>
		</defs>
		<clipPath id="SVGID_2_">
			<use xlink:href="#SVGID_1_"  style="overflow:visible;"/>
		</clipPath>
		<g class="st0">
			<path class="st1" d="M44.4,12.6c4,0.1,4-6.2,0-6.1C40.4,6.4,40.4,12.6,44.4,12.6z"/>
			<path class="st1" d="M56.7,30.5c-0.4,0-0.8-0.4-0.8-0.8V3.9h-5v27c-0.1,4.2,4.7,4.1,7.8,3.9v-4.2L56.7,30.5L56.7,30.5z"/>
			<path class="st1" d="M0,5.8v6.6h4.3v-1.7h6.5v19.9h-2v4.2H18v-4.2h-1.9v-20h6.5v1.7h4.3V5.8H0z"/>
			<path class="st1" d="M46.9,30.6v-15H36.1v4.3h5.8v10.7h-5.8v4.2H49v-4.2C49,30.6,46.9,30.6,46.9,30.6z"/>
			<path class="st1" d="M22.6,15.5v15h-2v4.2h13v-4.2h-5.9V19.8h5.9v-4.3C31.4,15.5,24.7,15.6,22.6,15.5z"/>
			<path class="st1" d="M83.4,23.2c0.3-5.1,9.6-5.7,9.3,0H83.4z M96.4,19.4c-2.8-5.2-11-5.2-15-1.7c-4,4.4-4.7,11.4,1.3,15.6
				c1.2,1.5,10.9,1.5,12.1,1.2v-4.1c-2.9,0.2-10.4,0.5-10.9-3.7h13.3C97.5,24.9,97.3,21.2,96.4,19.4z"/>
			<path class="st1" d="M76.5,23.3c-0.2-7.2,1.6-7.3-6.8-8C56.9,14.2,55,35.2,68.9,34.7h6.2v-4.2h-4.8c-9.9-0.1-6.5-13.5,2-10.7v3.4
				L76.5,23.3L76.5,23.3z"/>
			<path class="st1" d="M15.5,51.8c0.5,3-7.2,3-6.7,0c0.5-2.7-1.8-7.7,3.3-7.5c3,0.1,3.4,1.3,3.3,3c0,0.3-0.1,0.4-0.3,0.4
				c-0.3-0.1-1.6,0.3-1.6-0.4c0.5-1.7-3-1.9-2.9-0.3v4.5c-0.2,1.4,3.1,1.4,2.9,0c0.1-0.3-0.2-1,0.4-0.9
				C15.2,50.6,15.7,50.3,15.5,51.8z"/>
			<path class="st1" d="M22.6,46.9c0.2-1.4-3.2-1.4-3.1,0v4.5c-0.2,1.4,3.2,1.4,3.1,0V46.9z M17.7,46.6c-0.5-3,7.4-3,7,0v5.2
				c0.5,3-7.4,3-7,0V46.6z"/>
			<path class="st1" d="M29.1,52.4c0.3,0.2,3.7-0.4,3.6,0.3c-0.1,0.3,0.2,1.3-0.4,1.2c-0.2-0.2-5.4,0.4-5.1-0.4v-8.9
				c-0.1-0.6,1.3-0.3,1.6-0.4c0.3,0,0.3,0.1,0.3,0.4L29.1,52.4L29.1,52.4z"/>
			<path class="st1" d="M35,54c-0.3,0-0.3-0.1-0.3-0.4v-8.9c0-0.3,0.1-0.4,0.3-0.4c0.2,0.2,5.5-0.4,5.2,0.3
				c-0.1,0.3,0.2,1.3-0.4,1.2h-3.3v2.3c0.3,0.2,3.6-0.4,3.4,0.3c-0.1,0.3,0.2,1.3-0.4,1.2h-3.1v2.6c0.3,0.2,4-0.4,3.8,0.3
				c0.1,0.5,0.4,1.5-0.2,1.4L35,54"/>
			<path class="st1" d="M48.9,49c0.7-0.2,0.2,2.6,0.4,2.8c0.5,3-7.2,3-6.7,0v-5.2c-0.3-3.7,8.7-2.6,6.4,0.9c-2.9,0.4-0.4-1.6-3-1.7
				c-2.5-0.4-1.1,4.4-1.5,5.6c-0.2,1.4,3.1,1.4,2.9,0v-1c-1.2-0.1-2,0.5-1.8-1.2C45.4,48.6,48.5,49.1,48.9,49z"/>
			<path class="st1" d="M53.6,53.6c0.1,0.6-1.3,0.3-1.6,0.4c-0.3,0-0.3-0.1-0.3-0.4v-8.9c-0.1-0.6,1.3-0.3,1.6-0.4
				c0.3,0,0.3,0.1,0.3,0.4V53.6z"/>
			<path class="st1" d="M61.2,46.9c0.2-1.4-3.2-1.4-3.1,0v4.5c-0.2,1.4,3.2,1.4,3.1,0V46.9z M56.1,46.6c-0.5-3,7.4-3,7,0v5.2
				c0.5,3-7.4,3-7,0V46.6z"/>
			<path class="st1" d="M114.8,12.6h-0.3v26h0.3V12.6z"/>
			<path class="st1" d="M177.1,18.5c-3.3-3.2-7.2-4.9-11.9-4.9c-3.6,0-6.8,1-9.6,3l4-14.9H181V0h-22.6l-5.3,19.4l1.5,0.4h0.3v-0.2
				c2.9-2.8,6.4-4.2,10.5-4.2s7.6,1.4,10.6,4.3c2.9,2.9,4.4,6.4,4.4,10.5s-1.5,7.6-4.4,10.5c-2.9,2.9-6.5,4.3-10.6,4.3
				s-7.7-1.4-10.6-4.4c-0.6-0.5-1.1-1.1-1.5-1.7l-0.1-0.2l-1.5,1.1l0.1,0.2c0.5,0.6,1,1.3,1.7,1.9c3.2,3.2,7.2,4.9,11.9,4.9
				c4.6,0,8.6-1.7,11.9-4.9c3.2-3.2,4.9-7.2,4.9-11.7C182,25.7,180.3,21.7,177.1,18.5z"/>
			<path class="st1" d="M149.8,27.9V2.6h-1.4v25.3h-14.8l9.3-25.3h-1.5l-9.3,25.3H132v1.4h16.4v7.1h1.4v-7.1h6.1v-1.4
				C155.9,27.9,149.8,27.9,149.8,27.9z"/>
			<path class="st1" d="M157.3,56.8H153l-0.4,1H152l3-6.4h0.5l3,6.4h-0.6L157.3,56.8z M157.1,56.2l-1.9-4l-1.9,4H157.1z"/>
			<path class="st1" d="M159.3,51.4h0.4l4.1,5.2v-5.2h0.6v6.4H164l-4-5.2v5.2h-0.6L159.3,51.4L159.3,51.4z M163.3,49.9v0.6
				c-0.3,0.1-0.5,0.2-0.8,0.2c-0.2,0-0.4-0.1-0.7-0.1c-0.2-0.1-0.5-0.1-0.7-0.1s-0.5,0.1-0.8,0.2V50c0.3-0.1,0.5-0.2,0.8-0.2
				s0.5,0.1,0.8,0.1c0.2,0.1,0.4,0.1,0.6,0.1C162.8,50,163,50,163.3,49.9z"/>
			<path class="st1" d="M172.4,54.6c0,1-0.3,1.8-1,2.4c-0.6,0.6-1.5,1-2.4,1c-1,0-1.8-0.3-2.4-1c-0.6-0.6-1-1.4-1-2.4s0.3-1.8,1-2.4
				c0.6-0.6,1.5-1,2.4-1c1,0,1.8,0.3,2.4,1C172.1,52.9,172.4,53.7,172.4,54.6z M169,51.8c-0.8,0-1.5,0.3-2,0.8s-0.8,1.2-0.8,2
				s0.3,1.4,0.8,2c0.5,0.5,1.2,0.8,2,0.8s1.5-0.3,2-0.8s0.8-1.2,0.8-2s-0.3-1.4-0.8-2C170.4,52.1,169.8,51.8,169,51.8z"/>
			<path class="st1" d="M177.2,52.5c-0.2-0.2-0.4-0.4-0.7-0.5c-0.3-0.2-0.6-0.2-1-0.2c-0.5,0-0.9,0.1-1.1,0.3s-0.4,0.5-0.4,0.8
				s0.1,0.5,0.3,0.7s0.4,0.4,0.8,0.5l1.6,0.4c0.4,0.1,0.7,0.3,1,0.6s0.4,0.6,0.4,1.1s-0.2,0.9-0.6,1.2c-0.4,0.4-1,0.5-1.7,0.5
				c-0.6,0-1.1-0.1-1.5-0.4c-0.4-0.3-0.8-0.6-1-1l0.5-0.3c0.2,0.4,0.5,0.6,0.9,0.8s0.8,0.3,1.1,0.3c0.6,0,1-0.1,1.3-0.4
				c0.3-0.3,0.4-0.5,0.4-0.9c0-0.3-0.1-0.5-0.3-0.7s-0.4-0.3-0.7-0.4l-1.5-0.4c-0.4-0.2-0.8-0.4-1.1-0.6c-0.3-0.3-0.4-0.6-0.4-1.1
				s0.2-0.9,0.6-1.2c0.4-0.3,0.9-0.5,1.6-0.5c0.5,0,0.9,0.1,1.3,0.3c0.4,0.2,0.7,0.4,0.9,0.7L177.2,52.5z"/>
		</g>
	</g>
</g>
</svg>
