<svg width="99" height="51" viewBox="0 0 99 51" fill="none" xmlns="http://www.w3.org/2000/svg">
<path d="M45.1598 8.79855C46.9172 8.79855 48.3018 7.37603 48.3018 5.69007C48.3018 3.95144 46.8639 2.5816 45.1598 2.5816C43.4024 2.5816 42.0178 4.00412 42.0178 5.69007C42.0178 7.37603 43.4024 8.79855 45.1598 8.79855Z" fill="white"/>
<path d="M57.7278 27.0806C57.2485 27.0806 56.8757 26.7118 56.8757 26.2376V0H51.7633V27.3967C51.7633 29.6095 53.574 31.3481 55.7574 31.3481H59.645V27.0806H57.7278Z" fill="white"/>
<path d="M0 1.8967V8.53513H4.31361V6.84918H10.9704V27.0806H8.94674V31.3481H18.3728V27.0806H16.3491V6.84918H23.0059V8.53513H27.2663V1.8967H0Z" fill="white"/>
<path d="M47.7692 27.0806V11.8543H36.7456V16.1746H42.6036V27.0806H36.7456V31.3481H49.8462V27.0806H47.7692Z" fill="white"/>
<path d="M23.0059 11.8543V27.0806H20.929V31.3481H34.1893V27.0806H28.1183V16.1746H34.1893V11.8543H26.0947H23.0059Z" fill="white"/>
<path d="M84.8343 19.6519C84.8876 19.0196 85.0473 18.4401 85.3669 17.9132C85.6864 17.3864 86.0592 16.9649 86.5385 16.5961C87.0177 16.2273 87.5503 15.9638 88.1361 15.8058C88.7219 15.6477 89.3609 15.5424 90 15.5424C91.4379 15.5424 92.5029 15.9112 93.1952 16.6488C93.8876 17.3864 94.2603 18.3874 94.2603 19.6519H84.8343ZM98.0414 15.7531C97.5089 14.6994 96.7633 13.9091 95.9112 13.2769C95.0592 12.6446 94.1006 12.2231 93.0355 11.9597C92.0237 11.6963 91.0118 11.5909 90.0532 11.5909C88.6154 11.5909 87.2308 11.8017 86.0059 12.2231C84.7811 12.6446 83.6627 13.2769 82.7574 14.1198C81.8521 14.9628 81.1065 16.0165 80.574 17.2283C80.0414 18.4928 79.7751 19.9153 79.7751 21.6012C79.7751 22.1808 79.8284 22.7076 79.8817 23.2345C79.9882 24.1302 80.2012 24.9731 80.5207 25.8161C80.6272 26.1322 81.5858 28.5031 84.142 29.9783C85.8461 30.9793 88.2426 31.4008 91.4911 31.4008C94.7396 31.4008 96.3905 31.2428 96.3905 31.2428V27.0806V27.0279C96.3905 27.0279 94.1006 27.0806 91.2781 27.0806C87.1775 27.0806 85.7396 24.6043 85.4734 23.8667C85.3669 23.656 85.3136 23.4453 85.2603 23.2345H98.787C99.1597 21.3378 99 17.5971 98.0414 15.7531Z" fill="white"/>
<path d="M77.858 19.7045V13.4349V13.3822C77.858 13.1715 77.7515 13.0134 77.5385 12.9081C76.8994 12.6446 76.0474 12.3812 74.9823 12.0651C73.7042 11.749 72.3728 11.5909 70.9349 11.5909C69.3905 11.5909 68.0059 11.8017 66.6746 12.2758C65.3965 12.6973 64.2249 13.3822 63.2663 14.2252C62.3077 15.0682 61.5621 16.1219 61.0296 17.3864C60.497 18.5981 60.2308 20.0207 60.2308 21.6539C60.2308 23.1291 60.4438 24.499 60.9231 25.7634C61.4024 27.0279 61.9349 27.9236 62.787 28.8192C64.1716 30.2944 66.9408 31.3481 70.0829 31.4535H76.4201V27.186H71.5207C69.4438 27.186 67.4734 26.2376 66.9408 25.7634C66.4083 25.2366 66.0355 24.657 65.7692 23.9721C65.503 23.2872 65.3432 22.5496 65.3432 21.7593C65.3432 20.7583 65.503 19.9153 65.8757 19.2304C66.1953 18.5455 66.6746 17.9132 67.2071 17.4917C67.7397 17.0176 68.3787 16.7014 69.071 16.4907C69.7633 16.28 70.4556 16.1746 71.2012 16.1746C72 16.1746 72.7988 16.28 73.5976 16.438V19.9153H77.858V19.7045Z" fill="white"/>
<path d="M15.8166 48.6818C15.8166 49.8936 15.0178 51 12.4083 51C9.79882 51 9 49.8409 9 48.6818V43.3605C9 42.1488 9.79882 41.0424 12.4083 41.0424C15.0178 41.0424 15.8166 42.2015 15.8166 43.3605V44.0455C15.8166 44.3089 15.7101 44.4143 15.497 44.4143H14.2722C14.0059 44.4143 13.8994 44.3089 13.8994 44.0455V43.6767C13.8994 42.9391 13.3669 42.6229 12.4083 42.6229C11.4497 42.6229 10.9704 42.9917 10.9704 43.6767V48.313C10.9704 49.0506 11.4497 49.3667 12.4083 49.3667C13.3669 49.3667 13.8994 48.9979 13.8994 48.313V47.7862C13.8994 47.5227 14.0059 47.4174 14.2722 47.4174H15.4438C15.7101 47.4174 15.7633 47.5227 15.7633 47.7862V48.6818H15.8166Z" fill="white"/>
<path d="M23.0592 43.6767C23.0592 42.9391 22.4734 42.6229 21.5148 42.6229C20.5562 42.6229 19.9704 42.9917 19.9704 43.6767V48.313C19.9704 49.0506 20.5562 49.3667 21.5148 49.3667C22.4734 49.3667 23.0592 48.9979 23.0592 48.313V43.6767ZM17.9467 43.3605C17.9467 42.1488 18.8521 41.0424 21.4615 41.0424C24.071 41.0424 24.9763 42.2015 24.9763 43.3605V48.6818C24.9763 49.8936 24.071 51 21.4615 51C18.8521 51 17.9467 49.8409 17.9467 48.6818V43.3605Z" fill="white"/>
<path d="M29.5562 49.2614H32.8047C33.071 49.2614 33.1775 49.3667 33.1775 49.6302V50.5258C33.1775 50.7893 33.071 50.8946 32.8047 50.8946H27.9053C27.6923 50.8946 27.5858 50.7893 27.5858 50.5258V41.5165C27.5858 41.2531 27.6923 41.1477 27.9586 41.1477H29.2367C29.503 41.1477 29.6095 41.2531 29.6095 41.5165V49.2614H29.5562Z" fill="white"/>
<path d="M35.6272 50.8946C35.3609 50.8946 35.2544 50.7893 35.2544 50.5258V41.5165C35.2544 41.2531 35.3609 41.1477 35.6272 41.1477H40.5799C40.8461 41.1477 40.9527 41.2531 40.9527 41.5165V42.4122C40.9527 42.6756 40.8461 42.781 40.5799 42.781H37.2248V45.0992H40.3136C40.5799 45.0992 40.6864 45.2046 40.6864 45.468V46.311C40.6864 46.5744 40.5799 46.6798 40.3136 46.6798H37.2248V49.3667H40.7396C41.0059 49.3667 41.1124 49.4721 41.1124 49.7355V50.6312C41.1124 50.8946 41.0059 51 40.7396 51H35.6272V50.8946Z" fill="white"/>
<path d="M49.7397 45.7841C50.0059 45.7841 50.1124 45.8895 50.1124 46.1529V48.6818C50.1124 49.8936 49.3136 51 46.7041 51C44.0947 51 43.2959 49.8409 43.2959 48.6818V43.3605C43.2959 42.1488 44.0947 41.0424 46.7041 41.0424C49.3136 41.0424 50.1124 42.2015 50.1124 43.3605V43.9401C50.1124 44.2035 50.0059 44.3089 49.7929 44.3089H48.5681C48.3018 44.3089 48.1953 44.2035 48.1953 43.9401V43.7293C48.1953 42.9917 47.6627 42.6756 46.7041 42.6756C45.7456 42.6756 45.213 43.0444 45.213 43.7293V48.3657C45.213 49.1033 45.6923 49.4194 46.7041 49.4194C47.6627 49.4194 48.1953 49.0506 48.1953 48.3657V47.4174H46.7574C46.4911 47.4174 46.3846 47.312 46.3846 47.0486V46.1529C46.3846 45.8895 46.4911 45.7841 46.7574 45.7841H49.7397Z" fill="white"/>
<path d="M54.5325 50.5258C54.5325 50.7893 54.426 50.8946 54.1598 50.8946H52.8817C52.6154 50.8946 52.5089 50.7893 52.5089 50.5258V41.5165C52.5089 41.2531 52.6154 41.1477 52.8817 41.1477H54.1598C54.426 41.1477 54.5325 41.2531 54.5325 41.5165V50.5258Z" fill="white"/>
<path d="M62.2012 43.6767C62.2012 42.9391 61.6154 42.6229 60.6568 42.6229C59.6982 42.6229 59.1124 42.9917 59.1124 43.6767V48.313C59.1124 49.0506 59.6982 49.3667 60.6568 49.3667C61.6154 49.3667 62.2012 48.9979 62.2012 48.313V43.6767ZM57.142 43.3605C57.142 42.1488 58.0474 41.0424 60.6568 41.0424C63.2663 41.0424 64.1716 42.2015 64.1716 43.3605V48.6818C64.1716 49.8936 63.2663 51 60.6568 51C58.0474 51 57.142 49.8409 57.142 48.6818V43.3605Z" fill="white"/>
</svg>
