<svg width="57" height="43" viewBox="0 0 57 43" fill="none" xmlns="http://www.w3.org/2000/svg">
<path d="M34.7617 0.03125L38.1992 0.09375C38.9076 0.09375 39.6367 0.21875 40.3867 0.46875C40.8034 0.635417 41.4284 0.927083 42.2617 1.34375C43.1367 1.71875 43.8242 2.01042 44.3242 2.21875C47.5326 3.46875 50.8034 4.09375 54.1367 4.09375H56.1367V23.5312L54.7617 23.9688L49.0117 25.9062L41.3242 29.7812C40.9492 31.1979 40.3659 32.3021 39.5742 33.0938L39.4492 33.2188L34.8867 36.3438C31.7201 38.5104 29.5117 39.9688 28.2617 40.7188C26.8451 41.5938 25.2409 42.0729 23.4492 42.1562C21.1992 42.2812 19.4284 41.6979 18.1367 40.4062L4.94922 25.7188L0.136719 23.3438V4.09375H2.13672C5.55339 4.09375 8.82422 3.48958 11.9492 2.28125C12.4492 2.07292 13.1159 1.78125 13.9492 1.40625C14.8242 0.989583 15.4909 0.697917 15.9492 0.53125C16.6576 0.28125 17.3659 0.15625 18.0742 0.15625H19.1992C21.0326 0.0729167 22.4284 0.09375 23.3867 0.21875C24.5117 0.34375 25.9909 0.947917 27.8242 2.03125C28.9492 1.28125 30.1367 0.739583 31.3867 0.40625C32.2617 0.15625 33.3867 0.03125 34.7617 0.03125ZM34.8242 4.03125C33.8242 4.03125 33.0326 4.11458 32.4492 4.28125C31.6576 4.48958 30.8451 4.86458 30.0117 5.40625C29.0534 6.07292 27.9284 7.03125 26.6367 8.28125L17.3867 15.9688L17.6367 16.1562C17.8034 16.2812 17.9701 16.3854 18.1367 16.4688C19.0117 16.8854 19.7617 17.0938 20.3867 17.0938C21.2201 17.1354 22.0534 16.8646 22.8867 16.2812L29.8242 10.6562L39.5742 22.6562L39.6992 22.8438C40.3242 23.5104 40.8242 24.3438 41.1992 25.3438L47.3867 22.2188H47.5117L52.1367 20.6562V7.90625C48.6784 7.65625 45.5951 7.01042 42.8867 5.96875L40.1992 4.90625C38.8659 4.36458 38.1576 4.09375 38.0742 4.09375L36.6992 4.03125C35.8242 4.03125 35.1992 4.03125 34.8242 4.03125ZM20.8867 4.09375L18.1992 4.15625C18.1159 4.15625 17.5326 4.38542 16.4492 4.84375L13.3867 6.03125C10.7201 7.03125 7.63672 7.65625 4.13672 7.90625V20.8438L7.38672 22.4688L7.63672 22.7812L21.0742 37.6562C21.5326 38.0312 22.2617 38.1979 23.2617 38.1562C23.7617 38.1146 24.2826 38.0104 24.8242 37.8438C25.4076 37.6771 25.8659 37.4896 26.1992 37.2812L27.0742 36.7188L24.5117 33.2812L27.7617 30.9062L30.4492 34.5312L33.0742 32.7188L30.5117 29.2812L33.7617 26.9062L36.3867 30.4688L36.6992 30.2812V30.2188C37.3659 29.5521 37.6992 28.7812 37.6992 27.9062C37.6992 26.9896 37.3659 26.1979 36.6992 25.5312L36.5742 25.3438L29.1992 16.2812L25.1992 19.5938C23.7826 20.5938 22.1992 21.0729 20.4492 21.0312C19.0742 21.0312 17.7201 20.7188 16.3867 20.0938C15.7201 19.7604 15.0742 19.3854 14.4492 18.9688C13.9909 18.6354 13.5534 18.2812 13.1367 17.9062L11.1992 15.9062L24.5117 4.84375C24.3867 4.80208 24.1784 4.69792 23.8867 4.53125C23.4284 4.32292 23.0951 4.19792 22.8867 4.15625C22.3867 4.11458 21.7201 4.09375 20.8867 4.09375Z" fill="#333333"/>
</svg>
