<?xml version="1.0" encoding="utf-8"?>
<!-- Generator: Adobe Illustrator 24.1.1, SVG Export Plug-In . SVG Version: 6.00 Build 0)  -->
<svg version="1.1" id="Capa_1" xmlns="http://www.w3.org/2000/svg" xmlns:xlink="http://www.w3.org/1999/xlink" x="0px" y="0px"
	 viewBox="0 0 53 52" style="enable-background:new 0 0 53 52;" xml:space="preserve">
<style type="text/css">
	.st0{fill:#FFFFFF;}
</style>
<path class="st0" d="M23.1,0.1c1,0,1.9,0.2,2.7,0.6c0.9,0.4,1.6,0.9,2.3,1.6c0.7-0.7,1.4-1.2,2.3-1.6c0.9-0.4,1.8-0.6,2.8-0.6
	c1.3,0,2.4,0.3,3.5,0.9c1.1,0.6,1.9,1.5,2.6,2.6s0.9,2.3,0.9,3.5c0,1.6-0.6,3.3-1.9,5c-1,1.4-2.4,2.8-4.1,4.1
	c-1.3,1-2.6,1.9-4.1,2.8l-1.9,1.1L26.3,19c-1.5-0.9-2.9-1.8-4.1-2.8c-1.8-1.4-3.1-2.8-4.1-4.1c-1.3-1.8-1.9-3.4-1.9-5
	c0-1.3,0.3-2.4,0.9-3.5s1.5-1.9,2.6-2.6C20.7,0.4,21.9,0.1,23.1,0.1z M23.1,4.1c-0.8,0-1.5,0.3-2.1,0.9c-0.6,0.6-0.9,1.3-0.9,2.1
	c0,1.2,0.9,2.6,2.6,4.3c1.5,1.5,3.3,2.8,5.4,4.1c2.1-1.3,3.9-2.7,5.4-4.1c1.7-1.7,2.6-3.1,2.6-4.3c0-0.8-0.3-1.5-0.9-2.1
	c-0.6-0.6-1.3-0.9-2.1-0.9c-0.8,0-1.5,0.3-2.1,0.9l-1.1,1.1h-3.6L25.3,5C24.7,4.4,24,4.1,23.1,4.1z M32.6,22l7.6,10.8l-12.5,8.7
	l-14.2-7.4L25.6,28c0.2-0.1,0.4-0.3,0.4-0.5c0.1-0.2,0.1-0.4,0-0.7c-0.1-0.3-0.3-0.4-0.5-0.6c-0.2-0.1-0.4-0.1-0.7-0.1l-13.6,3.8
	l-6.6,4.6l2.1,8.4l7.6-2.8L28,47.3l21.8-15.1l2.3,3.3L28.3,51.9L14,44.5L3.9,48.2L0.1,32.7l9.4-6.4l14.2-4c1.3-0.4,2.5-0.2,3.8,0.4
	c1.3,0.7,2.1,1.7,2.4,3c0.3,1.1,0.3,2.2-0.2,3.3c-0.4,1-1.1,1.9-2.1,2.4l-5.4,2.8l5.1,2.6l7.2-5l-5.2-7.4L32.6,22z"/>
</svg>
