<?xml version="1.0" encoding="utf-8"?>
<!-- Generator: Adobe Illustrator 24.1.1, SVG Export Plug-In . SVG Version: 6.00 Build 0)  -->
<svg version="1.1" id="Capa_1" xmlns="http://www.w3.org/2000/svg" xmlns:xlink="http://www.w3.org/1999/xlink" x="0px" y="0px"
	 viewBox="0 0 53 41" style="enable-background:new 0 0 53 41;" xml:space="preserve">
<style type="text/css">
	.st0{fill:#FFFFFF;}
</style>
<path class="st0" d="M0.1,0.1h48v36h4v4h-36v-4h28v-32h-44V0.1z M8.1,6.1c1.5,0,2.8,0.4,4,1.1c1.2,0.7,2.2,1.7,2.9,2.9
	c0.8,1.2,1.1,2.5,1.1,4c0,1.5-0.4,2.8-1.1,4c-0.7,1.2-1.7,2.2-2.9,2.9c-1.2,0.7-2.5,1.1-4,1.1s-2.8-0.4-4-1.1
	c-1.2-0.8-2.2-1.7-2.9-2.9c-0.7-1.2-1.1-2.5-1.1-4c0-1.5,0.4-2.8,1.1-4c0.8-1.2,1.7-2.2,2.9-2.9C5.3,6.5,6.7,6.1,8.1,6.1z M20.1,8.1
	h10v4h-10V8.1z M34.1,8.1h6v4h-6V8.1z M8.1,10.1c-1.1,0-2.1,0.4-2.9,1.2C4.5,12,4.1,13,4.1,14.1s0.4,2.1,1.1,2.9
	c0.8,0.8,1.8,1.1,2.9,1.1s2.1-0.4,2.8-1.1c0.8-0.8,1.2-1.8,1.2-2.9s-0.4-2.1-1.2-2.8C10.2,10.5,9.3,10.1,8.1,10.1z M20.1,16.1h20v4
	h-20V16.1z M0.1,24.1h11c1,0,1.9,0.2,2.8,0.7l6.2,3.3l7.1-3.7l1.9,3.5L22,31.6c-0.6,0.3-1.2,0.4-1.9,0.4c-0.7,0-1.3-0.1-1.9-0.4
	l-4.1-2.2v10.7h-4v-12h-6v12h-4V24.1z"/>
</svg>
