<svg width="95" height="95" viewBox="0 0 95 95" fill="none" xmlns="http://www.w3.org/2000/svg">
<g clip-path="url(#clip0)">
<path d="M47.5213 94.9996C73.7199 94.9996 94.9581 73.7614 94.9581 47.5628C94.9581 21.3642 73.7199 0.125977 47.5213 0.125977C21.3227 0.125977 0.0844727 21.3642 0.0844727 47.5628C0.0844727 73.7614 21.3227 94.9996 47.5213 94.9996Z" fill="#F3744A"/>
<path d="M72.8957 38.5723H23.3296V68.9744H72.8957V38.5723Z" fill="#FDBF5E"/>
<path d="M72.8957 69.8024H23.3295C22.8564 69.8024 22.5015 69.5067 22.5015 68.9744V38.5722C22.5015 38.099 22.7972 37.7441 23.3295 37.7441H72.8957C73.3689 37.7441 73.7237 38.0399 73.7237 38.5722V68.9744C73.7237 69.4476 73.3689 69.8024 72.8957 69.8024ZM24.0985 68.2054H72.0676V39.4003H24.0985V68.2054Z" fill="black"/>
<path d="M51.7208 35.3193C49.7098 35.3193 48.1128 37.7444 48.1128 39.6963V68.9746C48.1128 66.9636 49.7098 64.5977 51.7208 64.5977H69.0512V35.3193H51.7208Z" fill="white"/>
<path d="M48.1127 69.8027C47.6396 69.8027 47.2847 69.5069 47.2847 68.9746V39.6962C47.2847 37.2712 49.1774 34.4912 51.6616 34.4912H68.992C69.4652 34.4912 69.8201 34.787 69.8201 35.3193V64.5976C69.8201 65.0708 69.5244 65.4257 68.992 65.4257H51.7208C50.1829 65.4257 48.9408 67.4367 48.9408 69.0337C48.8817 69.4478 48.5859 69.8027 48.1127 69.8027ZM51.7208 36.0882C50.1829 36.0882 48.9408 38.0992 48.9408 39.6962V65.1299C49.6506 64.3019 50.7153 63.7695 51.7208 63.7695H68.2823V36.0882H51.7208Z" fill="black"/>
<path d="M51.3066 38.9267C51.3066 38.6901 51.4841 38.5127 51.7207 38.5127H65.8571V61.403H51.7207C51.5432 61.403 51.4841 61.403 51.3066 61.403V38.9267Z" fill="#E1E6E9"/>
<path d="M44.5047 35.3193C46.5158 35.3193 48.1128 37.7444 48.1128 39.6963V68.9746C48.1128 66.9636 46.5158 64.5977 44.5047 64.5977H27.1743V35.3193H44.5047Z" fill="white"/>
<path d="M48.1127 69.8027C47.6395 69.8027 47.2846 69.5069 47.2846 68.9746C47.2846 67.3776 45.9242 65.3665 44.5047 65.3665H27.1743C26.7011 65.3665 26.3462 65.0708 26.3462 64.5385V35.3193C26.3462 34.8461 26.6419 34.4912 27.1743 34.4912H44.5047C46.9889 34.4912 48.8816 37.2712 48.8816 39.6962V68.9746C48.8816 69.4478 48.5859 69.8027 48.1127 69.8027ZM27.9432 63.7695H44.5047C45.5693 63.7695 46.5749 64.3019 47.2846 65.1299V39.6962C47.2846 38.0992 45.9242 36.0882 44.5047 36.0882H27.9432V63.7695Z" fill="black"/>
<path d="M44.9186 61.403C44.7412 61.403 44.682 61.403 44.5046 61.403H30.3682V38.5127H44.5046C44.7412 38.5127 44.9186 38.6901 44.9186 38.9267V61.403Z" fill="#E1E6E9"/>
<path d="M34.0946 55.7842H32.4976V57.3812H34.0946V55.7842Z" fill="black"/>
<path d="M38.4124 55.7842H36.8154V57.3812H38.4124V55.7842Z" fill="black"/>
<path d="M42.7303 55.7842H41.1333V57.3812H42.7303V55.7842Z" fill="black"/>
<path d="M32.8525 45.1377L36.7563 51.9989C36.9338 52.2355 37.2295 52.2355 37.4069 51.9989L41.3107 45.1377V24.6133H32.8525V45.1377Z" fill="white"/>
<path d="M37.052 53.0048C36.638 53.0048 36.2239 52.7682 35.9873 52.4724L32.0244 45.3747V23.8447H42.0796V45.3747L38.0575 52.4133C37.8801 52.7682 37.466 53.0048 37.052 53.0048ZM33.6214 44.9015L37.052 50.8754L40.4826 44.9015V25.3826H33.6214V44.9015Z" fill="black"/>
<path d="M38.5306 25.3232H35.6323V45.1379H38.5306V25.3232Z" fill="#2EA2DB"/>
<path d="M32.8525 45.1377L36.7563 51.9397C36.9338 52.1763 37.2295 52.1763 37.4069 51.9397L41.3107 45.1377" fill="#FDBF5E"/>
<path d="M37.0519 53.0042C36.6379 53.0042 36.2239 52.7676 35.9873 52.4719L32.0835 45.6699L33.4439 44.8418L36.9928 50.9932L40.5417 44.8418L41.9021 45.6699L37.9392 52.4127C37.88 52.7676 37.466 53.0042 37.0519 53.0042Z" fill="black"/>
<path d="M39.6546 18.5801H34.5087C33.5623 18.5801 32.8525 19.2899 32.8525 20.2362V24.554H41.3107V20.2362C41.3107 19.2899 40.4826 18.5801 39.6546 18.5801Z" fill="#F3744A"/>
<path d="M42.0796 25.3821H32.0244V20.2362C32.0244 18.8758 33.1482 17.752 34.5086 17.752H39.5362C40.1869 17.752 40.8375 17.9885 41.3107 18.4617C41.7839 18.9349 42.0205 19.5855 42.0205 20.2362L42.0796 25.3821ZM33.6214 23.7851H40.4826V20.2362C40.4826 19.763 40.0686 19.349 39.5954 19.349H34.4495C33.9763 19.349 33.5623 19.763 33.5623 20.2362V23.7851H33.6214Z" fill="black"/>
<path d="M35.396 49.6924L36.7564 51.9991C36.9338 52.2357 37.2296 52.2357 37.407 51.9991L38.7674 49.6924H35.396Z" fill="black"/>
<path d="M37.0518 53.0041C36.6377 53.0041 36.2237 52.7675 35.9871 52.4717L33.9761 48.9229H40.0683L38.0573 52.4717C37.8799 52.7675 37.4658 53.0041 37.0518 53.0041ZM36.8152 50.5199L37.0518 50.993L37.2884 50.5199H36.8152Z" fill="black"/>
<path d="M63.3138 41.0566H53.8501V42.6536H63.3138V41.0566Z" fill="black"/>
<path d="M63.3138 44.9014H53.8501V46.4984H63.3138V44.9014Z" fill="black"/>
<path d="M63.3138 48.7451H53.8501V50.3421H63.3138V48.7451Z" fill="black"/>
<path d="M63.3138 52.5898H53.8501V54.1868H63.3138V52.5898Z" fill="black"/>
<path d="M63.3138 56.4346H53.8501V58.0316H63.3138V56.4346Z" fill="black"/>
</g>
<defs>
<clipPath id="clip0">
<rect width="94.8736" height="94.8736" fill="white" transform="translate(0.0844727 0.125977)"/>
</clipPath>
</defs>
</svg>
