<svg width="95" height="95" viewBox="0 0 95 95" fill="none" xmlns="http://www.w3.org/2000/svg">
<g clip-path="url(#clip0)">
<path d="M47.4368 94.9996C73.6354 94.9996 94.8736 73.7614 94.8736 47.5628C94.8736 21.3642 73.6354 0.125977 47.4368 0.125977C21.2382 0.125977 0 21.3642 0 47.5628C0 73.7614 21.2382 94.9996 47.4368 94.9996Z" fill="#4783CE"/>
<path d="M48.8566 76.1897H45.0119C44.4204 76.1897 43.9473 75.7165 43.9473 75.125V56.7891H49.9804V75.125C49.9804 75.7165 49.5072 76.1897 48.8566 76.1897Z" fill="#E29E7A"/>
<path d="M49.9804 56.7891H43.9473V65.4838H49.9804V56.7891Z" fill="#CE8A6B"/>
<path d="M40.5758 20.886L32.1176 77.4316C31.9994 78.2005 32.5908 78.8511 33.3598 78.8511H36.4946C37.0861 78.8511 37.6184 78.3779 37.7367 77.7865L46.1949 21.2408C46.3132 20.4719 45.7217 19.8213 44.9528 19.8213H41.8179C41.1673 19.8213 40.635 20.2945 40.5758 20.886Z" fill="#E29E7A"/>
<path d="M53.1153 19.8213H49.9805C49.2116 19.8213 48.6792 20.4719 48.7384 21.2408L57.1965 77.7865C57.3148 78.3779 57.788 78.8511 58.4387 78.8511H61.5735C62.3424 78.8511 62.8748 78.2005 62.8156 77.4316L54.2983 20.886C54.2391 20.2945 53.7068 19.8213 53.1153 19.8213Z" fill="#E29E7A"/>
<path d="M55.4223 65.4841H60.9822L59.3261 54.3643H53.707L55.4223 65.4841Z" fill="#CE8A6B"/>
<path d="M33.833 65.4841H39.4521L41.1082 54.3643H35.5483L33.833 65.4841Z" fill="#CE8A6B"/>
<path d="M68.4345 59.6285H26.3801C24.31 59.6285 22.6538 57.9723 22.6538 55.9021V28.8123C22.6538 26.7421 24.31 25.0859 26.3801 25.0859H68.4345C70.5046 25.0859 72.1608 26.7421 72.1608 28.8123V55.9021C72.1608 57.9723 70.5046 59.6285 68.4345 59.6285Z" fill="#E29E7A"/>
<path d="M37.7957 32.7756C40.2208 29.5816 43.1191 27.0382 46.3131 25.1455H26.3801C24.31 25.1455 22.6538 26.8017 22.6538 28.8718V55.9617C22.6538 58.0319 24.31 59.688 26.3801 59.688H32.9456C30.1656 50.9341 31.6443 40.8789 37.7957 32.7756Z" fill="#CE8A6B"/>
<path d="M26.3801 56.4935C26.0252 56.4935 25.7886 56.1978 25.7886 55.902V28.8122C25.7886 28.4573 26.0843 28.2207 26.3801 28.2207H68.4344C68.7893 28.2207 69.0259 28.5164 69.0259 28.8122V55.902C69.0259 56.2569 68.7301 56.4935 68.4344 56.4935H26.3801Z" fill="#5EE2C5"/>
<path d="M37.7956 32.7751C39.0969 31.0598 40.5165 29.522 42.1135 28.2207H26.3801C26.0252 28.2207 25.7886 28.5164 25.7886 28.8122V55.902C25.7886 56.2569 26.0843 56.4935 26.3801 56.4935H32.1174C30.5796 48.6268 32.354 39.932 37.7956 32.7751Z" fill="#0BDDAB"/>
<path d="M56.9597 60.9888H37.914C37.2042 60.9888 36.6719 60.4565 36.6719 59.7467V55.1923C36.6719 54.5417 37.2634 53.9502 37.914 53.9502H56.9005C57.6103 53.9502 58.1427 54.4825 58.1427 55.1923V59.7467C58.1427 60.4565 57.6103 60.9888 56.9597 60.9888Z" fill="#E29E7A"/>
<path d="M42.1135 59.8055V55.2511C42.1135 54.5413 42.6458 54.009 43.3556 54.009H37.9731C37.2634 53.9498 36.6719 54.5413 36.6719 55.1919V59.7463C36.6719 60.4561 37.2042 60.9884 37.914 60.9884H43.2965C42.6458 60.9884 42.1135 60.4561 42.1135 59.8055Z" fill="#CE8A6B"/>
<path d="M68.4345 24.2579H64.5307C64.0575 24.2579 63.6435 24.6719 63.6435 25.1451C63.6435 25.6183 64.0575 26.0323 64.5307 26.0323H68.4345C69.9723 26.0323 71.2145 27.2745 71.2145 28.8123V55.9022C71.2145 57.44 69.9723 58.6821 68.4345 58.6821H59.0299V57.3809H68.4345C69.2626 57.3809 69.9132 56.7302 69.9132 55.9022V28.8123C69.9132 27.9842 69.2626 27.3336 68.4345 27.3336H26.3802C25.5521 27.3336 24.9015 27.9842 24.9015 28.8123V55.9022C24.9015 56.7302 25.5521 57.3809 26.3802 57.3809H35.7847V58.6821H26.3802C24.8423 58.6821 23.6002 57.44 23.6002 55.9022V28.8123C23.6002 27.2745 24.8423 26.0323 26.3802 26.0323H60.6861C61.1593 26.0323 61.5733 25.6183 61.5733 25.1451C61.5733 24.6719 61.1593 24.2579 60.6861 24.2579H55.7176L55.1853 20.7682C55.0079 19.7035 54.1206 18.9346 53.1151 18.9346H49.9803C49.3888 18.9346 48.7973 19.2303 48.3833 19.6443C47.9692 20.1175 47.7918 20.709 47.9101 21.3596L48.3241 24.1988H46.5497L46.9637 21.3596C47.082 20.7682 46.9046 20.1175 46.4905 19.6443C46.0765 19.1712 45.485 18.9346 44.8935 18.9346H41.7587C40.694 18.9346 39.8068 19.7035 39.6885 20.7682L39.1562 24.2579H26.3802C23.8368 24.2579 21.7666 26.3281 21.7666 28.8715V55.9613C21.7666 58.5047 23.8368 60.5749 26.3802 60.5749H33.7145L32.3541 69.3288C32.295 69.802 32.5907 70.2751 33.123 70.3343C33.1822 70.3343 34.0103 70.5117 34.1286 69.5654L35.489 60.4566H35.903C36.1988 61.2846 36.9677 61.8761 37.914 61.8761H39.097L36.7311 77.6095C36.7311 77.787 36.5536 77.9053 36.3762 77.9053H33.2413C32.8865 77.9053 32.8865 77.6687 32.8865 77.4912L33.4779 73.5283C33.5371 73.0551 33.2413 72.5819 32.709 72.5228C32.2358 72.4636 31.7626 72.7594 31.7035 73.2917L31.112 77.2546C30.9937 77.8461 31.1712 78.4967 31.5852 78.9699C31.9992 79.4431 32.5907 79.6797 33.1822 79.6797H36.317C37.3817 79.6797 38.2689 78.9108 38.3872 77.8461L40.8123 61.817H43.0008V75.0661C43.0008 76.1308 43.888 77.018 44.9527 77.018H48.7973C49.862 77.018 50.7492 76.1308 50.7492 75.0661V61.817H53.884L56.3091 77.8461C56.4866 78.9108 57.3738 79.6797 58.3793 79.6797H61.5142C62.1056 79.6797 62.6971 79.384 63.1112 78.9699C63.5252 78.4967 63.7026 77.9053 63.5843 77.2546L61.041 60.4566H68.3162C70.8596 60.4566 72.9298 58.3864 72.9298 55.843V28.8123C73.048 26.2689 70.9779 24.2579 68.4345 24.2579ZM49.6254 21.1231C49.6254 21.0048 49.5662 20.7682 49.9803 20.709H53.1151C53.2926 20.709 53.4109 20.8273 53.47 21.0048L53.9432 24.2579H50.1577L49.6254 21.1231ZM41.4038 21.0048C41.4038 20.8273 41.5812 20.709 41.7587 20.709H44.8935C45.2484 20.709 45.2484 20.9456 45.2484 21.1231L44.7752 24.2579H40.9898L41.4038 21.0048ZM37.6183 59.8059V55.2515C37.6183 55.0741 37.7957 54.8966 37.9732 54.8966H49.9803C50.4535 54.8966 50.8675 54.4826 50.8675 54.0094C50.8675 53.5362 50.4535 53.1222 49.9803 53.1222H37.914C36.7311 53.1222 35.7847 54.0686 35.7847 55.2515V55.6656H26.6759V29.108H68.1979V55.6656H59.0299V55.2515C59.0299 54.0686 58.0836 53.1222 56.9006 53.1222H53.7066C53.2334 53.1222 52.8194 53.5362 52.8194 54.0094C52.8194 54.4826 53.2334 54.8966 53.7066 54.8966H56.9006C57.078 54.8966 57.2555 55.0741 57.2555 55.2515V59.8059C57.2555 59.9834 57.078 60.1608 56.9006 60.1608H37.914C37.7366 60.1017 37.6183 59.9834 37.6183 59.8059ZM49.093 75.1253C49.093 75.2436 49.0339 75.3027 48.9156 75.3027H45.071C44.9527 75.3027 44.8935 75.2436 44.8935 75.1253V61.8761H49.093V75.1253ZM61.9282 77.5504C61.9282 77.6687 61.9282 77.9644 61.5733 77.9644H58.4385C58.261 77.9644 58.1427 77.8461 58.0836 77.6687L55.7176 61.9353H56.9006C57.847 61.9353 58.6159 61.3438 58.9116 60.5157H59.3257L61.9282 77.5504Z" fill="black"/>
<path d="M59.5032 39.3996H58.616C57.7879 39.3996 57.1373 40.0502 57.1373 40.8783C57.1373 41.7064 57.7879 42.357 58.616 42.357H60.5087C60.8045 42.357 61.1002 42.1204 61.1002 41.7655C61.1002 41.4698 60.8636 41.174 60.5087 41.174H58.616C58.3794 41.174 58.2611 40.9966 58.2611 40.8191C58.2611 40.5825 58.4385 40.4642 58.616 40.4642H59.5032C60.3313 40.4642 60.9819 39.8136 60.9819 38.9855C60.9819 38.1575 60.3313 37.5068 59.5032 37.5068H57.6696C57.3739 37.5068 57.0781 37.7434 57.0781 38.0983C57.0781 38.3941 57.3147 38.6898 57.6696 38.6898H59.5032C59.7398 38.6898 59.8581 38.8672 59.8581 39.0447C59.9172 39.2221 59.7398 39.3996 59.5032 39.3996Z" fill="black"/>
<path d="M35.6075 39.8138H38.2692C38.5649 39.8138 38.8607 39.5772 38.8607 39.2223C38.8607 38.9266 38.6241 38.6309 38.2692 38.6309H35.6075C34.602 38.6309 33.7739 39.4589 33.7739 40.4644V40.5827C33.7739 41.0559 33.9514 41.5291 34.3063 41.884C34.0105 42.2389 33.7739 42.6529 33.7739 43.1853V43.3036C33.7739 44.3091 34.602 45.1371 35.6075 45.1371H38.2692C38.5649 45.1371 38.8607 44.9006 38.8607 44.5457C38.8607 44.2499 38.6241 43.9542 38.2692 43.9542H35.6075C35.1935 43.9542 34.8977 43.6584 34.8977 43.2444V43.1261C34.8977 42.7121 35.1935 42.4163 35.6075 42.4163H37.0862C37.382 42.4163 37.6777 42.1797 37.6777 41.8249C37.6777 41.5291 37.4411 41.2334 37.0862 41.2334H35.6075C35.1935 41.2334 34.8977 40.9376 34.8977 40.5236V40.4053C34.8977 40.1687 35.2526 39.8138 35.6075 39.8138Z" fill="black"/>
<path d="M50.572 44.4276C50.8678 44.4276 51.1635 44.191 51.1635 43.8361V41.1744C51.1635 40.1689 50.3354 39.3408 49.3299 39.3408H49.2116C48.7384 39.3408 48.2653 39.5183 47.9104 39.8731C47.5555 39.5774 47.1414 39.3408 46.6091 39.3408H46.4908C45.4853 39.3408 44.6572 40.1689 44.6572 41.1744V43.8952C44.6572 44.191 44.8938 44.4867 45.2487 44.4867C45.6036 44.4867 45.8402 44.2501 45.8402 43.8952V41.2336C45.8402 40.8195 46.1359 40.5238 46.55 40.5238H46.6683C47.0823 40.5238 47.378 40.8195 47.378 41.2336V42.7123C47.378 43.008 47.6146 43.3037 47.9695 43.3037C48.3244 43.3037 48.561 43.0672 48.561 42.7123V41.2336C48.561 40.8195 48.8567 40.5238 49.2708 40.5238H49.3891C49.8031 40.5238 50.0988 40.8195 50.0988 41.2336V43.8952C50.0397 44.191 50.2763 44.4276 50.572 44.4276Z" fill="black"/>
<path d="M43.0603 40.4053H40.3395C40.0438 40.4053 39.748 40.6419 39.748 40.9968C39.748 41.2925 39.9846 41.5882 40.3395 41.5882H43.0603C43.3561 41.5882 43.6518 41.3516 43.6518 40.9968C43.5927 40.701 43.3561 40.4053 43.0603 40.4053Z" fill="black"/>
<path d="M54.5351 40.5238H55.2448C55.5406 40.5238 55.8363 40.2872 55.8363 39.9323C55.8363 39.6366 55.5997 39.3408 55.2448 39.3408H54.5351C53.1155 39.3408 51.9917 40.4646 51.9917 41.8842C51.9917 43.2446 53.1155 44.4276 54.5351 44.4276H55.2448C55.5406 44.4276 55.8363 44.191 55.8363 43.8361C55.8363 43.5403 55.5997 43.2446 55.2448 43.2446H54.5351C53.7661 43.2446 53.1155 42.594 53.1155 41.825C53.1747 41.1744 53.7661 40.5238 54.5351 40.5238Z" fill="black"/>
</g>
<defs>
<clipPath id="clip0">
<rect width="94.8736" height="94.8736" fill="white" transform="translate(0 0.125977)"/>
</clipPath>
</defs>
</svg>
