<svg width="95" height="95" viewBox="0 0 95 95" fill="none" xmlns="http://www.w3.org/2000/svg">
<g clip-path="url(#clip0)">
<path d="M47.0845 95C73.0419 95 94.0845 73.7335 94.0845 47.5C94.0845 21.2665 73.0419 0 47.0845 0C21.1271 0 0.0844727 21.2665 0.0844727 47.5C0.0844727 73.7335 21.1271 95 47.0845 95Z" fill="#FCEE21"/>
<path d="M59.5084 25.29C52.769 25.29 47.3774 28.9029 47.3774 35.7732C47.3774 42.6435 52.8276 48.2701 59.5084 48.2701C66.2478 48.2701 71.6393 42.6435 71.6393 35.7732C71.6979 28.8437 66.2478 25.29 59.5084 25.29Z" fill="#FBC4AC"/>
<path d="M49.7802 35.7733C49.7802 29.2583 54.5857 23.9279 60.739 23.3356C60.3288 23.2764 59.9186 23.2764 59.567 23.2764C52.8276 23.2764 47.436 28.9029 47.436 35.7733C47.436 42.6436 52.8862 48.2701 59.567 48.2701C59.9772 48.2701 60.3874 48.2701 60.739 48.2109C54.5857 47.6186 49.7802 42.2882 49.7802 35.7733Z" fill="#E3B098"/>
<path d="M66.892 40.2743H65.1339C64.7237 40.2743 64.3721 39.9189 64.3721 39.5043C64.3721 39.0897 64.7237 38.7344 65.1339 38.7344H66.8334C67.2436 38.7344 67.5953 39.0897 67.5953 39.5043C67.5953 39.9189 67.3023 40.2743 66.892 40.2743Z" fill="#F98084"/>
<path d="M53.8823 40.2743H52.1827C51.7725 40.2743 51.4209 39.9189 51.4209 39.5043C51.4209 39.0897 51.7725 38.7344 52.1827 38.7344H53.8823C54.2925 38.7344 54.6441 39.0897 54.6441 39.5043C54.6441 39.9189 54.3511 40.2743 53.8823 40.2743Z" fill="#F98084"/>
<path d="M71.1118 31.9231C70.2914 21.6769 66.1891 23.2168 59.567 23.2168C54.5271 23.2168 52.1243 22.6837 51.1281 22.3876C50.7178 22.2691 50.249 22.4468 50.0732 22.8614C49.2527 24.4605 47.436 28.9026 47.436 35.7729C47.436 35.7729 50.3662 30.5017 59.567 30.5017C63.845 30.5017 63.4934 31.9231 71.1118 31.9231Z" fill="#C86D5C"/>
<path d="M52.4173 22.8614C52.4173 22.8022 52.4759 22.8022 52.4759 22.743C51.8313 22.6245 51.3625 22.506 51.0695 22.3876C50.6592 22.2691 50.1904 22.4468 50.0146 22.8614C49.1941 24.4605 47.3774 28.9026 47.3774 35.7729C47.3774 35.7729 48.0807 34.5291 49.8388 33.2261C50.249 27.7772 51.7141 24.2828 52.4173 22.8614Z" fill="#AD4F3D"/>
<path d="M22.4121 59.582V67.6369C22.4121 69.6506 23.9358 71.3682 25.8697 71.5459L31.6129 72.1974L22.4121 59.582Z" fill="#3A484A"/>
<path d="M46.7325 59.582V67.6369C46.7325 69.6506 45.2088 71.3682 43.2749 71.5459L37.5317 72.1974L46.7325 59.582Z" fill="#3A484A"/>
<path d="M46.7326 59.5818L34.3086 50.1055L22.4121 59.5818C22.4121 59.7595 22.4121 59.8779 22.4121 60.0556C22.4121 66.9851 27.8622 72.5525 34.543 72.5525C41.2238 72.5525 46.674 66.9259 46.674 60.0556C46.7326 59.9371 46.7326 59.7595 46.7326 59.5818Z" fill="#FBC4AC"/>
<path d="M24.4632 59.2266C23.8186 59.4042 23.1153 59.5227 22.4707 59.6411C22.4707 59.8188 22.4707 59.9373 22.4707 60.115C22.4707 67.0445 27.9208 72.6118 34.6016 72.6118C34.9532 72.6118 35.3049 72.6118 35.6565 72.5526C29.5617 72.0196 24.7562 66.2746 24.4632 59.2266Z" fill="#E3B098"/>
<path d="M28.976 64.5575H27.2765C26.8663 64.5575 26.5146 64.2021 26.5146 63.7875C26.5146 63.3729 26.8663 63.0176 27.2765 63.0176H28.976C29.3862 63.0176 29.7378 63.3729 29.7378 63.7875C29.7378 64.2613 29.3862 64.5575 28.976 64.5575Z" fill="#F98084"/>
<path d="M41.9272 64.5575H40.2277C39.8174 64.5575 39.4658 64.2021 39.4658 63.7875C39.4658 63.3729 39.8174 63.0176 40.2277 63.0176H41.9272C42.3374 63.0176 42.689 63.3729 42.689 63.7875C42.689 64.2613 42.3374 64.5575 41.9272 64.5575Z" fill="#F98084"/>
<path d="M22.4121 59.5826C28.9171 58.8719 34.543 52.4754 34.543 52.4754C34.543 52.4754 40.169 58.8127 46.674 59.5826C46.4395 52.89 41.1066 47.5596 34.543 47.5596C28.038 47.5596 22.7051 52.89 22.4121 59.5826Z" fill="#3A484A"/>
<path d="M35.6565 47.6188C35.3049 47.5596 34.9532 47.5596 34.6016 47.5596C28.038 47.5596 22.7051 52.89 22.4707 59.5826C23.1739 59.5234 23.76 59.405 24.4632 59.168C24.8734 53.0677 29.6789 48.1518 35.6565 47.6188Z" fill="#323E40"/>
<path d="M42.1029 39.4451V31.8641C42.1029 29.1396 39.9346 26.9482 37.2388 26.9482H27.2762C24.5804 26.9482 22.4121 29.1396 22.4121 31.8641V38.7936C22.4121 41.5181 24.5804 43.7095 27.2762 43.7095H44.447L42.1029 39.4451Z" fill="#5EE2C5"/>
<path d="M52.0072 64.202V56.6209C52.0072 53.8965 54.1756 51.7051 56.8713 51.7051H66.8339C69.5297 51.7051 71.698 53.8965 71.698 56.6209V63.5505C71.698 66.2749 69.5297 68.4663 66.8339 68.4663H49.6631L52.0072 64.202Z" fill="#FADC60"/>
<path d="M66.0133 38.3794C66.4235 38.3794 66.7752 38.024 66.7752 37.6094V36.3657C66.7752 35.9511 66.4235 35.5957 66.0133 35.5957C65.6031 35.5957 65.2515 35.9511 65.2515 36.3657V37.6094C65.2515 38.0832 65.6031 38.3794 66.0133 38.3794Z" fill="black"/>
<path d="M53.0617 38.3794C53.4719 38.3794 53.8235 38.024 53.8235 37.6094V36.3657C53.8235 35.9511 53.4719 35.5957 53.0617 35.5957C52.6514 35.5957 52.2998 35.9511 52.2998 36.3657V37.6094C52.2998 38.0832 52.6514 38.3794 53.0617 38.3794Z" fill="black"/>
<path d="M61.2079 38.3793C60.9148 38.0831 60.446 38.1424 60.153 38.4385C60.0358 38.6162 59.8014 38.6754 59.567 38.6754C59.3325 38.6754 59.0981 38.5569 58.9809 38.4385C58.6879 38.1424 58.2191 38.0831 57.9261 38.3793C57.633 38.6754 57.5744 39.1492 57.8674 39.4453C58.2777 39.9192 58.9223 40.2153 59.567 40.2153C60.2116 40.2153 60.8562 39.9192 61.2665 39.4453C61.5009 39.09 61.5009 38.6162 61.2079 38.3793Z" fill="black"/>
<path d="M28.0968 62.7212C28.507 62.7212 28.8587 62.3658 28.8587 61.9512V60.7075C28.8587 60.2929 28.507 59.9375 28.0968 59.9375C27.6866 59.9375 27.335 60.2929 27.335 60.7075V61.9512C27.335 62.3658 27.6866 62.7212 28.0968 62.7212Z" fill="black"/>
<path d="M41.048 62.7212C41.4582 62.7212 41.8098 62.3658 41.8098 61.9512V60.7075C41.8098 60.2929 41.4582 59.9375 41.048 59.9375C40.6378 59.9375 40.2861 60.2929 40.2861 60.7075V61.9512C40.2861 62.3658 40.6378 62.7212 41.048 62.7212Z" fill="black"/>
<path d="M34.0156 62.7217C33.7226 62.4256 33.2537 62.3663 32.9607 62.6625C32.6677 62.9586 32.6091 63.4324 32.9021 63.7285C33.3123 64.2024 33.957 64.4985 34.6016 64.4985C35.2463 64.4985 35.8909 64.2024 36.3011 63.7285C36.5941 63.4324 36.5355 62.9586 36.2425 62.6625C35.9495 62.3663 35.4807 62.4256 35.1877 62.7217C35.0704 62.8994 34.836 62.9586 34.6016 62.9586C34.3672 63.0178 34.1328 62.8994 34.0156 62.7217Z" fill="black"/>
<path d="M27.2764 44.4792H44.4472C45.0332 44.4792 45.3848 43.8277 45.0918 43.3539L42.8649 39.2672V31.8639C42.8649 28.7248 40.3449 26.2373 37.2976 26.2373H27.335C24.229 26.2373 21.7676 28.7841 21.7676 31.8639V38.7934C21.709 41.9324 24.1704 44.4792 27.2764 44.4792ZM23.1741 31.8639C23.1741 29.554 24.9908 27.718 27.2764 27.718H37.239C39.5245 27.718 41.3412 29.554 41.3412 31.8639V39.4449C41.3412 39.5634 41.3998 39.6818 41.4584 39.8003L43.1579 42.9393H27.2764C24.9908 42.9393 23.1741 41.1033 23.1741 38.7934V31.8639Z" fill="black"/>
<path d="M27.0421 32.6337H37.5321C37.9424 32.6337 38.294 32.2783 38.294 31.8637C38.294 31.4491 37.9424 31.0938 37.5321 31.0938H27.0421C26.6319 31.0938 26.2803 31.4491 26.2803 31.8637C26.2803 32.2783 26.6319 32.6337 27.0421 32.6337Z" fill="black"/>
<path d="M27.0421 36.1278H37.5321C37.9424 36.1278 38.294 35.7724 38.294 35.3578C38.294 34.9433 37.9424 34.5879 37.5321 34.5879H27.0421C26.6319 34.5879 26.2803 34.9433 26.2803 35.3578C26.2803 35.7724 26.6319 36.1278 27.0421 36.1278Z" fill="black"/>
<path d="M27.0421 39.5633H33.5471C33.9573 39.5633 34.309 39.208 34.309 38.7934C34.309 38.3788 33.9573 38.0234 33.5471 38.0234H27.0421C26.6319 38.0234 26.2803 38.3788 26.2803 38.7934C26.2803 39.208 26.6319 39.5633 27.0421 39.5633Z" fill="black"/>
<path d="M49.6629 69.1768H66.8338C69.9397 69.1768 72.4011 66.6301 72.4011 63.5503V56.6207C72.4011 53.4817 69.8811 50.9941 66.8338 50.9941H56.8712C53.7652 50.9941 51.3038 53.5409 51.3038 56.6207V64.0241L49.0769 68.1107C48.7253 68.5845 49.1355 69.1768 49.6629 69.1768ZM52.6517 64.5571C52.7103 64.4387 52.7689 64.3202 52.7689 64.2018V56.6207C52.7689 54.3108 54.5856 52.4748 56.8712 52.4748H66.8338C69.1193 52.4748 70.936 54.3108 70.936 56.6207V63.5503C70.936 65.8601 69.1193 67.6961 66.8338 67.6961H50.9522L52.6517 64.5571Z" fill="black"/>
<path d="M56.6368 57.3905H67.1269C67.5371 57.3905 67.8887 57.0351 67.8887 56.6205C67.8887 56.2059 67.5371 55.8506 67.1269 55.8506H56.6368C56.2266 55.8506 55.875 56.2059 55.875 56.6205C55.875 57.0351 56.168 57.3905 56.6368 57.3905Z" fill="black"/>
<path d="M67.8301 60.0561C67.8301 59.6415 67.4785 59.2861 67.0683 59.2861H56.6368C56.2266 59.2861 55.875 59.6415 55.875 60.0561C55.875 60.4707 56.2266 60.826 56.6368 60.826H67.1269C67.4785 60.826 67.8301 60.5299 67.8301 60.0561Z" fill="black"/>
<path d="M67.83 63.5502C67.83 63.1356 67.4783 62.7803 67.0681 62.7803H60.5631C60.1529 62.7803 59.8013 63.1356 59.8013 63.5502C59.8013 63.9648 60.1529 64.3202 60.5631 64.3202H67.0681C67.4783 64.3202 67.83 63.9648 67.83 63.5502Z" fill="black"/>
<path d="M59.5085 49.0398C66.5995 49.0398 72.4013 43.0579 72.4013 35.773C72.4013 34.4107 72.2255 33.1077 71.8152 31.8048C71.4636 27.3627 70.4674 24.816 68.592 23.513C66.8339 22.2692 64.4898 22.3877 61.8526 22.4469C61.0908 22.4469 60.329 22.5061 59.5085 22.5061C54.5272 22.5061 52.2417 22.0323 51.304 21.7362C50.5422 21.4993 49.7217 21.8546 49.3701 22.5654C48.9013 23.4538 48.2566 24.9344 47.7292 27.0074C47.612 27.422 47.8464 27.8366 48.2566 27.955C48.6669 28.0735 49.0771 27.8366 49.1943 27.422C49.7217 25.4675 50.3078 24.046 50.718 23.2761C50.718 23.2168 50.8352 23.2169 50.8938 23.2169C52.1245 23.6314 54.6444 24.1053 59.5671 24.1053C60.3876 24.1053 61.208 24.1053 61.9112 24.046C64.4312 23.9868 66.4237 23.9276 67.7716 24.8752C69.1195 25.8228 69.9399 27.8366 70.2915 31.2717C69.1781 31.2717 68.006 31.2125 66.8925 31.094C65.7791 30.9756 64.7242 30.7387 63.6694 30.4425C62.5559 30.1464 61.4424 29.8503 59.5085 29.8503C57.7504 29.8503 56.0509 30.0279 54.3514 30.4425C52.8863 30.7979 51.5384 31.3902 50.2491 32.1601C49.4873 32.6339 48.7841 33.1077 48.198 33.7C48.2566 32.5747 48.3738 31.4494 48.5496 30.3241C48.6082 29.9095 48.3152 29.4949 47.905 29.4357C47.4948 29.3765 47.0846 29.6726 47.026 30.0872C46.7329 31.9232 46.5571 33.8777 46.5571 35.8322C46.6157 43.1171 52.4175 49.0398 59.5085 49.0398ZM59.5085 47.5591C53.2965 47.5591 48.198 42.4064 48.0808 36.0099C48.0808 36.0099 48.0808 36.0099 48.0808 35.9506C48.7841 34.9438 49.7803 34.1146 50.8352 33.4039C53.7654 31.5678 57.5746 30.9164 61.0322 31.2717C62.7317 31.4494 64.314 32.1009 66.0135 32.3378C67.4786 32.5747 68.9437 32.6339 70.4088 32.6339C70.4674 32.6339 70.4674 32.6339 70.526 32.6339C70.7604 33.6408 70.9362 34.6476 70.9362 35.7137C70.9362 42.2879 65.8377 47.5591 59.5085 47.5591Z" fill="black"/>
<path d="M21.709 67.6962C21.709 70.1245 23.4671 72.079 25.8698 72.3751L31.5544 73.0266C32.5506 73.2635 33.5469 73.382 34.6018 73.382C35.6566 73.382 36.6529 73.2635 37.6491 73.0266L43.3337 72.3751C45.6778 72.1382 47.4945 70.1245 47.4945 67.6962V60.5889C47.4945 60.2336 47.4945 59.9374 47.4945 59.5821C47.3773 56.1469 45.9708 52.9487 43.5681 50.5204C41.1067 48.1513 37.9422 46.7891 34.6018 46.7891C30.5581 46.7891 26.8075 48.6843 24.3461 52.001C24.1117 52.3564 24.1703 52.8302 24.522 53.0671C24.8736 53.304 25.3424 53.2448 25.5768 52.8894C27.7451 49.9873 31.0269 48.2697 34.6018 48.2697C37.5905 48.2697 40.4035 49.4543 42.5132 51.5864C44.4471 53.4817 45.6192 55.9692 45.9122 58.6937C45.7364 58.6344 45.5606 58.6344 45.3848 58.5752C43.2165 58.0422 41.1653 56.9169 39.3486 55.6139C38.1766 54.7847 37.0631 53.8371 36.0668 52.8894C35.8324 52.6525 35.598 52.4156 35.3636 52.1787C35.2464 52.001 35.0706 51.8826 34.8948 51.8234C34.719 51.7641 34.6018 51.7641 34.4259 51.8234C34.1915 51.8826 34.0743 52.1195 33.8985 52.2972C33.4297 52.771 32.9609 53.2448 32.4334 53.6594C31.613 54.3701 30.7925 55.0808 29.9135 55.6731C27.921 57.0945 25.694 58.2791 23.3499 58.7529C23.4671 57.6276 23.7601 56.5023 24.2289 55.4362C24.4047 55.0808 24.2289 54.607 23.8187 54.4293C23.4671 54.2517 22.9983 54.4293 22.8224 54.8439C22.1778 56.3838 21.8262 57.983 21.7676 59.6413C21.7676 59.9967 21.7676 60.2928 21.7676 60.6482V67.6962H21.709ZM27.2177 70.9537L25.987 70.8352C24.4047 70.6575 23.1741 69.2953 23.1741 67.6369V66.334C23.5843 67.1039 24.0531 67.8146 24.5806 68.5253C25.2838 69.4137 26.1042 70.1837 26.9833 70.8944C27.0419 70.8944 27.1591 70.9537 27.2177 70.9537ZM45.9708 67.6962C45.9708 69.2953 44.7402 70.6575 43.1579 70.8944L41.9272 71.0129C41.9272 71.0129 42.0444 70.8944 42.103 70.8944C42.982 70.2429 43.8025 69.4137 44.5057 68.5253C45.0332 67.8146 45.502 67.1039 45.9122 66.334V67.6962H45.9708ZM34.719 53.7778C37.1217 56.1469 39.9347 58.2199 43.0993 59.4636C44.0369 59.819 44.9746 60.1151 45.9708 60.2928C45.9708 60.352 45.9708 60.4705 45.9708 60.5297C45.8536 63.9649 44.2713 67.1039 41.81 69.1768C39.7589 70.8944 37.2389 71.8421 34.5431 71.8421C31.906 71.8421 29.3274 70.8944 27.2763 69.1176C24.815 67.0447 23.2327 63.9056 23.1155 60.4705C23.1155 60.4113 23.1155 60.2928 23.1155 60.2336C23.1741 60.2336 23.2327 60.2336 23.3499 60.1743C24.0531 60.0559 24.7564 59.819 25.4596 59.6413C27.2763 59.049 29.0344 58.0422 30.6167 56.9169C32.0232 55.91 33.3711 54.7847 34.5431 53.6002C34.6604 53.6594 34.6604 53.7186 34.719 53.7778Z" fill="black"/>
</g>
<defs>
<clipPath id="clip0">
<rect width="94" height="95" fill="white" transform="translate(0.0844727)"/>
</clipPath>
</defs>
</svg>
