<svg width="97" height="95" viewBox="0 0 97 95" fill="none" xmlns="http://www.w3.org/2000/svg">
<g clip-path="url(#clip0)">
<path d="M48.0845 95C74.5941 95 96.0845 73.7335 96.0845 47.5C96.0845 21.2665 74.5941 0 48.0845 0C21.5748 0 0.0844727 21.2665 0.0844727 47.5C0.0844727 73.7335 21.5748 95 48.0845 95Z" fill="#5EE2C5"/>
<path d="M55.6855 47.4404C55.6855 51.6455 52.274 55.0215 48.0246 55.0215C43.7752 55.0215 40.3638 51.6455 40.3638 47.4404C40.3638 43.2353 43.7752 39.8594 48.0246 39.8594C52.274 39.8594 55.6855 43.2353 55.6855 47.4404Z" fill="#D9D7D8"/>
<path d="M43.7154 47.4404C43.7154 43.8276 46.289 40.807 49.7004 40.0371C49.1618 39.9186 48.6231 39.8594 48.0246 39.8594C43.7752 39.8594 40.3638 43.2353 40.3638 47.4404C40.3638 51.6455 43.7752 55.0215 48.0246 55.0215C48.5633 55.0215 49.1618 54.9622 49.7004 54.8438C46.289 54.1331 43.7154 51.0533 43.7154 47.4404Z" fill="#BAB8B9"/>
<path d="M44.7925 25.6447C44.7925 27.7768 43.0569 29.4944 40.9023 29.4944C38.7477 29.4944 36.9521 27.7768 36.9521 25.6447C36.9521 23.5125 38.6878 21.7949 40.9023 21.7949C43.0569 21.7949 44.7925 23.5125 44.7925 25.6447Z" fill="#F3744A"/>
<path d="M39.1666 25.6453C39.1666 23.8685 40.3636 22.3878 41.9796 21.914C41.6205 21.7956 41.2614 21.7363 40.9023 21.7363C38.7477 21.7363 36.9521 23.4539 36.9521 25.5861C36.9521 27.7182 38.6878 29.4358 40.9023 29.4358C41.2614 29.4358 41.6803 29.3766 41.9796 29.2581C40.3636 28.9028 39.1666 27.4221 39.1666 25.6453Z" fill="#CD5E3A"/>
<path d="M70.7078 63.1359C70.7078 65.2681 68.9721 67.0449 66.8175 67.0449C64.6629 67.0449 62.9272 65.3273 62.9272 63.1359C62.9272 61.0037 64.6629 59.2861 66.8175 59.2861C68.9721 59.2861 70.7078 61.0037 70.7078 63.1359Z" fill="#FCEE21"/>
<path d="M65.0819 63.1355C65.0819 61.3587 66.2789 59.8781 67.8948 59.4042C67.5357 59.2858 67.1766 59.2266 66.8175 59.2266C64.6629 59.2266 62.9272 60.9441 62.9272 63.0763C62.9272 65.2085 64.6629 66.9853 66.8175 66.9853C67.1766 66.9853 67.5956 66.9261 67.8948 66.8076C66.2789 66.393 65.0819 64.9124 65.0819 63.1355Z" fill="#E2CC03"/>
<path d="M35.2766 63.4318C35.2766 65.564 33.541 67.2815 31.3864 67.2815C29.2318 67.2815 27.4961 65.564 27.4961 63.4318C27.4961 61.2996 29.2318 59.582 31.3864 59.582C33.541 59.582 35.2766 61.2996 35.2766 63.4318Z" fill="#58B78C"/>
<path d="M29.6507 63.4314C29.6507 61.6546 30.8477 60.174 32.4637 59.7001C32.1046 59.5817 31.7455 59.5225 31.3864 59.5225C29.2318 59.5225 27.4961 61.24 27.4961 63.3722C27.4961 65.5044 29.2318 67.222 31.3864 67.222C31.7455 67.222 32.1644 67.1627 32.4637 67.0443C30.8477 66.6889 29.6507 65.2082 29.6507 63.4314Z" fill="#46926F"/>
<path d="M55.7455 48.1516C55.3266 48.0331 54.8478 48.3292 54.7879 48.8031C54.1296 51.9421 51.3166 54.1927 48.0847 54.1927C44.3141 54.1927 41.2617 51.1721 41.2617 47.4408C41.2617 43.7095 44.3141 40.689 48.0847 40.689C51.3166 40.689 54.1296 42.9396 54.7879 46.0786C54.9076 46.4932 55.3266 46.7893 55.7455 46.7301C56.1645 46.6117 56.4637 46.1971 56.4039 45.7825C55.6258 41.8735 52.0947 39.0898 48.0847 39.0898C43.4164 39.0898 39.5859 42.8804 39.5859 47.5001C39.5859 52.1198 43.4164 55.9103 48.0847 55.9103C52.0947 55.9103 55.6258 53.0674 56.4039 49.2176C56.4637 48.6846 56.1645 48.27 55.7455 48.1516Z" fill="black"/>
<path d="M69.5707 47.4405C69.6306 47.322 69.7503 47.2628 69.8101 47.1443C73.6406 42.5839 74.8974 38.3195 73.3413 35.1805C72.0246 32.5153 68.9722 30.9754 64.4835 30.62C64.0047 30.5608 63.6456 30.9161 63.5857 31.39C63.5259 31.8638 63.885 32.2191 64.3638 32.2784C67.057 32.456 70.5284 33.2852 71.8451 35.8912C73.1019 38.438 71.9049 42.1693 68.5533 46.0782C68.4934 46.1375 68.4934 46.1375 68.4336 46.1967C66.279 43.9461 63.5857 41.7547 60.4735 39.741C60.1144 37.135 59.6356 34.7067 58.9772 32.3968C59.8151 32.2784 60.5932 32.2191 61.3712 32.1599C61.85 32.1599 62.1493 31.7453 62.1493 31.3307C62.1493 30.8569 61.7303 30.5608 61.3114 30.5608C60.4136 30.62 59.456 30.6792 58.4984 30.7977C58.1393 29.7908 57.7802 28.8432 57.3613 27.8956C54.9074 22.4467 51.6156 19.4854 48.0246 19.4854C46.3488 19.4854 44.7328 20.1368 43.1767 21.4398C42.5184 21.0845 41.6805 20.8476 40.8426 20.8476C38.2092 20.8476 36.1144 22.9797 36.1144 25.5265C36.1144 27.0664 36.8924 28.4878 38.0895 29.317C37.9099 29.7908 37.7303 30.2647 37.5508 30.7385C36.4735 30.62 35.456 30.5016 34.4386 30.4423C28.4535 30.2054 24.264 31.8638 22.7079 35.0028C21.1518 38.2011 22.4087 42.4654 26.2391 46.9667C26.2989 47.0851 26.4186 47.1443 26.4785 47.2628C26.4186 47.3812 26.2989 47.4405 26.2391 47.5589C22.4087 52.1194 21.1518 56.3837 22.7079 59.5228C23.4261 61.0034 24.7428 62.188 26.5982 62.9579C26.5982 63.0764 26.5982 63.1356 26.5982 63.2541C26.5982 65.86 28.7528 67.933 31.3264 67.933C33.6605 67.933 35.6356 66.2154 35.9947 64.024C36.4735 63.9648 37.0121 63.9056 37.5508 63.8463C37.9099 64.8532 38.269 65.8008 38.688 66.7484C41.1418 72.1973 44.4336 75.1587 48.0246 75.1587C51.6156 75.1587 54.9074 72.1973 57.3613 66.7484C57.7802 65.86 58.1393 64.8532 58.4984 63.8463C59.7553 64.024 61.0121 64.1425 62.2092 64.1425C62.7478 66.1562 64.6032 67.6368 66.8176 67.6368C69.451 67.6368 71.5458 65.5047 71.5458 62.9579C71.5458 62.5433 71.486 62.188 71.4261 61.8326C72.264 61.1811 72.9224 60.4112 73.3413 59.5228C74.8974 56.3245 73.6406 52.0602 69.8101 47.5589C69.7503 47.6181 69.6306 47.5589 69.5707 47.4405ZM60.7129 41.9324C63.2266 43.7092 65.5009 45.5452 67.2964 47.4997C65.4411 49.4542 63.2266 51.2902 60.7129 53.067C60.8924 51.231 60.9523 49.395 60.9523 47.4997C61.0121 45.5452 60.8924 43.7092 60.7129 41.9324ZM58.678 38.6156C57.1219 37.668 55.4461 36.7796 53.7702 35.9504C52.6331 35.4174 51.5558 34.8844 50.4186 34.4105C52.8126 33.6406 55.1468 33.0483 57.3613 32.6337C57.8999 34.529 58.3189 36.5427 58.678 38.6156ZM44.4934 22.6244C45.6306 21.736 46.8276 21.2622 48.0246 21.2622C50.8974 21.2622 53.7104 23.9866 55.865 28.7248C56.2241 29.4947 56.5234 30.3239 56.8226 31.2123C54.0097 31.6861 51.0171 32.5153 48.0246 33.6406C45.0321 32.5153 42.0396 31.7453 39.2266 31.2123C39.3463 30.9162 39.466 30.5608 39.5857 30.2647C40.0047 30.3831 40.4236 30.4423 40.8426 30.4423C43.476 30.4423 45.5707 28.3102 45.5707 25.7634C45.6306 24.4604 45.2116 23.3943 44.4934 22.6244ZM37.7902 25.645C37.7902 23.9274 39.1668 22.5652 40.9024 22.5652C42.6381 22.5652 44.0146 23.9274 44.0146 25.645C44.0146 27.3625 42.6381 28.7248 40.9024 28.7248C39.1668 28.7248 37.7902 27.3625 37.7902 25.645ZM38.7478 32.693C40.9623 33.0483 43.2964 33.6406 45.6904 34.4698C44.5533 34.9436 43.4161 35.4174 42.3388 36.0097C40.6032 36.8388 38.9872 37.7272 37.4311 38.6749C37.7304 36.5427 38.2092 34.529 38.7478 32.693ZM24.264 35.8912C25.5209 33.3445 29.2316 32.0415 34.4386 32.2191C35.2765 32.2784 36.1742 32.3376 37.1318 32.456C36.4735 34.7067 35.9348 37.1942 35.6356 39.8002C32.5832 41.8139 29.89 44.0053 27.6755 46.2559C27.6156 46.1967 27.6156 46.1375 27.5558 46.1375C24.2042 42.1693 23.0072 38.438 24.264 35.8912ZM35.3363 53.0078C32.8226 51.231 30.5483 49.395 28.7528 47.4405C30.6082 45.486 32.8226 43.6499 35.3363 41.8731C35.1568 43.7092 35.0969 45.5452 35.0969 47.4405C35.0969 49.3357 35.2166 51.1718 35.3363 53.0078ZM31.3862 66.5115C29.6505 66.5115 28.274 65.1493 28.274 63.4317C28.274 61.7142 29.6505 60.3519 31.3862 60.3519C33.1219 60.3519 34.4984 61.7142 34.4984 63.4317C34.4984 65.1493 33.062 66.5115 31.3862 66.5115ZM36.0545 62.5433C35.6356 60.3519 33.7204 58.6936 31.3862 58.6936C29.471 58.6936 27.7952 59.8189 27.077 61.4772C25.7603 60.885 24.8027 59.9966 24.264 58.9305C23.0072 56.3837 24.2042 52.6524 27.5558 48.7435C27.6156 48.6842 27.6156 48.6842 27.6755 48.625C29.8301 50.8756 32.5234 53.067 35.6356 55.0807C35.9947 57.6867 36.4735 60.115 37.1318 62.4249C36.7727 62.4841 36.4136 62.5433 36.0545 62.5433ZM37.4311 56.2653C38.9872 57.2129 40.663 58.1013 42.3388 58.9305C43.476 59.4635 44.5533 59.9966 45.6904 60.4704C43.2964 61.2403 40.9623 61.8326 38.7478 62.2472C38.2092 60.3519 37.7304 58.3974 37.4311 56.2653ZM55.865 66.2746C53.7702 71.0128 50.8974 73.7372 48.0246 73.7372C45.1518 73.7372 42.3388 71.0128 40.1842 66.2746C39.8251 65.5047 39.5259 64.6755 39.2266 63.7871C42.0396 63.3133 45.0321 62.4841 48.0246 61.3588C51.0171 62.4841 54.0097 63.2541 56.8226 63.7871C56.5234 64.6163 56.2241 65.4455 55.865 66.2746ZM57.3613 62.188C55.1468 61.8326 52.8126 61.2403 50.4186 60.4112C51.5558 59.9373 52.6331 59.4635 53.7702 58.9305C55.5059 58.1013 57.1219 57.2129 58.678 56.2653C58.3189 58.3974 57.8999 60.3519 57.3613 62.188ZM52.9922 57.509C51.3164 58.3382 49.7004 59.0489 48.0246 59.6412C46.3488 58.9897 44.673 58.279 43.057 57.509C40.9623 56.5022 38.9872 55.3769 37.1318 54.1923C36.8924 52.0009 36.7727 49.7503 36.7727 47.4405C36.7727 45.1306 36.8924 42.88 37.1318 40.6886C38.9872 39.5041 40.9623 38.3787 43.057 37.3719C44.7328 36.5427 46.3488 35.832 48.0246 35.2397C49.7004 35.8912 51.3164 36.6019 52.9922 37.3719C55.087 38.3787 57.062 39.5041 58.9174 40.6886C59.1568 42.88 59.2765 45.1306 59.2765 47.4405C59.2765 49.7503 59.1568 52.0009 58.9174 54.1923C57.1219 55.3769 55.087 56.443 52.9922 57.509ZM66.8176 66.2154C65.082 66.2154 63.7054 64.8532 63.7054 63.1356C63.7054 61.418 65.082 60.0558 66.8176 60.0558C68.5533 60.0558 69.9298 61.418 69.9298 63.1356C69.87 64.8532 68.4934 66.2154 66.8176 66.2154ZM71.8451 58.9897C71.5458 59.5228 71.1867 59.9966 70.7079 60.4704C69.87 59.2266 68.4336 58.4567 66.8176 58.4567C64.3638 58.4567 62.3288 60.2927 62.0894 62.721C61.072 62.721 60.0545 62.6026 58.9772 62.4841C59.6356 60.2335 60.1742 57.7459 60.4735 55.14C63.5259 53.1263 66.2191 50.9349 68.4336 48.6842C68.4934 48.7435 68.4934 48.7435 68.5533 48.8027C71.9049 52.7709 73.1019 56.5022 71.8451 58.9897Z" fill="black"/>
</g>
<defs>
<clipPath id="clip0">
<rect width="96" height="95" fill="white" transform="translate(0.0844727)"/>
</clipPath>
</defs>
</svg>
