<svg width="19" height="30" viewBox="0 0 19 30" fill="none" xmlns="http://www.w3.org/2000/svg">
<path d="M17.6252 27.6927C17.9059 27.4113 18.0931 27.0361 18.0931 26.5671C18.0931 26.0982 17.9059 25.723 17.6252 25.4416L6.77044 14.5614L17.6252 3.68114C17.9059 3.39976 18.0931 3.02458 18.0931 2.5556C18.0931 2.08663 17.9059 1.71145 17.6252 1.43006L16.6894 0.492111C16.0344 -0.164454 15.0987 -0.164454 14.4436 0.492111L1.43663 13.342C1.1559 13.6234 0.968749 13.9986 0.968749 14.4676C0.968749 14.9366 1.1559 15.3117 1.43663 15.5931L14.4436 28.6306C14.7244 28.912 15.1922 29.0996 15.5665 29.0996C16.0344 29.0996 16.4087 28.912 16.6895 28.6306L17.6252 27.6927Z" fill="#FF5023"/>
</svg>
