<svg width="44" height="30" viewBox="0 0 44 30" fill="none" xmlns="http://www.w3.org/2000/svg">
<path d="M22 0.203125L22.6445 0.546875L41.207 10.1719L43.5703 11.375L35.75 15.3711V22.375C35.75 22.9479 35.5495 23.4492 35.1484 23.8789C34.9193 24.1081 34.5469 24.3659 34.0312 24.6523C33.2865 25.0247 32.2982 25.3542 31.0664 25.6406C28.4883 26.2135 25.4661 26.5 22 26.5C18.5339 26.5 15.5117 26.2135 12.9336 25.6406C11.7018 25.3542 10.7135 25.0247 9.96875 24.6523C9.45312 24.3659 9.08073 24.1081 8.85156 23.8789C8.45052 23.4492 8.25 22.9479 8.25 22.375V15.3711L5.5 13.9531V24.1367C5.92969 24.3945 6.25911 24.7383 6.48828 25.168C6.74609 25.569 6.875 26.013 6.875 26.5C6.875 27.2734 6.60286 27.9323 6.05859 28.4766C5.54297 28.9922 4.89844 29.25 4.125 29.25C3.35156 29.25 2.69271 28.9922 2.14844 28.4766C1.63281 27.9323 1.375 27.2734 1.375 26.5C1.375 26.013 1.48958 25.569 1.71875 25.168C1.97656 24.7383 2.32031 24.3945 2.75 24.1367V12.5352L0.429688 11.375L2.79297 10.1719L21.3555 0.546875L22 0.203125ZM22 3.29688L6.44531 11.375L8.89453 12.6211C9.15234 12.3346 9.51042 12.0768 9.96875 11.8477C10.6849 11.4753 11.6732 11.1458 12.9336 10.8594C15.4831 10.2865 18.5052 10 22 10C25.4948 10 28.5169 10.2865 31.0664 10.8594C32.3268 11.1458 33.3151 11.4753 34.0312 11.8477C34.4896 12.0768 34.8477 12.3346 35.1055 12.6211L37.5547 11.375L22 3.29688ZM22 12.75C18.6484 12.75 15.8268 13.0078 13.5352 13.5234C12.4753 13.7526 11.7018 13.9961 11.2148 14.2539C11.1576 14.2826 11.1003 14.3255 11.043 14.3828L11 14.4258V19.668C11.6016 19.4388 12.2461 19.2526 12.9336 19.1094C15.5117 18.5365 18.5339 18.25 22 18.25C25.4661 18.25 28.4883 18.5365 31.0664 19.1094C31.7539 19.2526 32.3984 19.4388 33 19.668V14.4258L32.957 14.3828C32.8997 14.3255 32.8424 14.2826 32.7852 14.2539C32.2982 13.9961 31.5247 13.7526 30.4648 13.5234C28.1732 13.0078 25.3516 12.75 22 12.75ZM22 21C18.6771 21 15.8555 21.2578 13.5352 21.7734C12.8477 21.9167 12.2174 22.1172 11.6445 22.375C12.2174 22.6328 12.8477 22.8333 13.5352 22.9766C15.8555 23.4922 18.6771 23.75 22 23.75C25.3229 23.75 28.1445 23.4922 30.4648 22.9766C31.1523 22.8333 31.7826 22.6328 32.3555 22.375C31.7826 22.1172 31.1523 21.9167 30.4648 21.7734C28.1445 21.2578 25.3229 21 22 21Z" fill="#F22E19"/>
</svg>
