<svg width="36" height="37" viewBox="0 0 36 37" fill="none" xmlns="http://www.w3.org/2000/svg">
<path d="M8.11719 0.625L18 10.5078L24.7891 3.71875C25.3333 3.17448 25.9492 2.75911 26.6367 2.47266C27.3242 2.1862 28.0404 2.04297 28.7852 2.04297C29.5299 2.04297 30.2461 2.1862 30.9336 2.47266C31.6211 2.75911 32.237 3.17448 32.7812 3.71875C33.4974 4.4349 33.9844 5.27995 34.2422 6.25391C34.5 7.22786 34.5 8.20182 34.2422 9.17578C33.9844 10.1497 33.4974 10.9948 32.7812 11.7109L25.9922 18.5L35.832 28.3398L34.8438 29.2852L28.7852 35.3438L27.8398 36.332L18 26.4922L11.125 33.3672L3.13281 34.957L1.11328 35.3867L1.54297 33.3672L3.13281 25.375L10.0078 18.5L0.125 8.61719L1.11328 7.67188L7.17188 1.61328L8.11719 0.625ZM8.11719 4.53516L3.99219 8.61719L11.9414 16.5664L16.0234 12.4844L12.7578 9.21875L10.7383 11.2383L8.76172 9.26172L10.7812 7.24219L8.11719 4.53516ZM28.7852 4.70703C28.069 4.70703 27.3958 5.02214 26.7656 5.65234L25.8633 6.55469L29.9453 10.6367L30.8477 9.73438C31.4779 9.10417 31.793 8.43099 31.793 7.71484C31.793 6.97005 31.4779 6.28255 30.8477 5.65234C30.2174 5.02214 29.5299 4.70703 28.7852 4.70703ZM23.9297 8.48828L7.30078 25.1172C9.10547 26.0339 10.4661 27.3945 11.3828 29.1992L28.0117 12.5703L23.9297 8.48828ZM24.0586 20.4336L19.9336 24.5586L27.7969 32.4219L31.9219 28.2969L29.3008 25.6758L27.2383 27.7383L25.2617 25.7617L27.3242 23.6992L24.0586 20.4336ZM5.53906 27.3086L4.63672 31.8633L9.19141 30.9609C8.84766 30.1302 8.36068 29.3997 7.73047 28.7695C7.10026 28.1393 6.36979 27.6523 5.53906 27.3086Z" fill="#FF9406"/>
</svg>
