<svg width="238" height="162" viewBox="0 0 238 162" fill="none" xmlns="http://www.w3.org/2000/svg">
<g clip-path="url(#clip0)">
<path d="M13.1664 63.2963L22.2813 86.8674C22.737 88.0865 23.4966 89.6613 23.6992 91.6933H23.8004C23.9017 90.3725 24.1043 89.3057 25.5728 85.3942L33.8268 63.2963H46.6889V68.4779H42.9923V93.6745H46.537V98.8561H32.9153V93.6745H35.903V73.2023H35.8017C35.5485 75.1834 34.7383 77.063 34.0294 78.9426L26.4336 98.8561H19.3443L11.2928 77.9266C10.6851 76.301 9.8749 74.6246 9.72298 72.8467H9.62171V93.6745H13.3183V98.8561H0.760003V93.6745H3.84894V68.4779H0.152344V63.2963H13.1664Z" fill="#FEFEFE"/>
<path d="M73.122 93.6745H76.1097V98.8561H67.1974C67.1974 96.2145 67.1974 94.8937 67.5518 93.5729H67.4505C65.6782 97.6369 63.2476 99.4657 58.7914 99.4657C53.3225 99.4657 49.9297 96.3669 49.9297 91.7441C49.9297 89.2041 51.145 86.715 53.5756 85.2418C56.1076 83.7178 60.2093 83.3114 63.602 83.2606L66.691 83.2098V82.2954C66.691 77.825 65.1212 76.8598 61.7284 76.8598C60.665 76.8598 58.4876 77.1646 57.2722 77.6218V81.1778H51.1956V74.4215C54.2339 72.7451 58.3863 71.6783 61.7791 71.6783C69.628 71.6783 73.3752 74.6755 73.3752 82.1938C73.3752 86.4102 73.274 89.8137 73.122 93.6745ZM66.5897 87.5786H64.4122C59.7029 87.5786 57.0191 88.493 57.0191 91.0837C57.0191 92.6585 58.0825 94.2841 60.9182 94.2841C64.3616 94.2841 66.5897 91.7949 66.5897 87.5786Z" fill="#FEFEFE"/>
<path d="M88.8712 72.2878H95.9606V77.4694H88.8712V89.5089C88.8712 92.6077 89.6308 93.9793 92.7197 93.9793C93.7831 93.9793 94.9984 93.6237 96.2138 93.1665L95.9606 98.1956C93.3274 99.1608 91.555 99.4656 89.7827 99.4656C84.3644 99.4656 81.7818 96.8241 81.7818 92.5061V77.4694H78.1865V72.2878H81.7818V66.8015L88.8712 66.3951V72.2878Z" fill="#FEFEFE"/>
<path d="M116.925 78.333C116.115 78.1806 115.304 78.079 114.646 78.079C110.646 78.079 108.063 80.873 108.063 84.937V93.6745H111.405V98.8561H98.0873V93.6745H100.974V77.4694H97.5303V72.2879H107.81C107.81 74.1675 107.709 75.9455 107.354 78.3838H107.455C108.519 73.9135 111.051 71.6783 115.051 71.6783C115.912 71.6783 116.57 71.8307 117.38 71.9831L116.925 78.333Z" fill="#FEFEFE"/>
<path d="M129.787 72.2879V93.6745H132.825V98.8561H119.811V93.6745H122.697V77.4694H119.254V72.2879H129.787ZM132.622 57.048L136.218 60.6039L125.432 68.9859L121.634 65.9379L132.622 57.048Z" fill="#FEFEFE"/>
<path d="M158.499 80.7206H152.422V77.1646C151.257 76.9106 150.802 76.8598 149.991 76.8598C145.839 76.8598 143.307 80.4158 143.307 84.8354C143.307 90.1693 146.396 93.6745 151.713 93.6745C153.992 93.6745 156.169 93.2173 158.347 92.2013L157.942 98.1957C155.106 99.1609 153.992 99.4657 150.093 99.4657C141.383 99.4657 136.218 93.7761 136.218 85.5974C136.218 77.063 141.687 71.6783 150.194 71.6783C153.384 71.6783 156.017 72.1863 158.499 72.9483V80.7206Z" fill="#FEFEFE"/>
<path d="M171.766 72.2878V87.4769C171.766 92.3029 173.184 93.6745 176.425 93.6745C179.514 93.6745 181.944 91.1853 181.944 87.1721V77.4694H178.602V72.2878H189.034V93.6745H192.122V98.856H182.197C182.197 95.8081 182.451 94.0301 182.856 93.3697H182.754C181.083 97.6369 178.197 99.4656 173.589 99.4656C167.411 99.4656 164.677 95.5033 164.677 90.3725V77.4694H161.132V72.2878H171.766Z" fill="#FEFEFE"/>
<path d="M205.288 59.7911V93.6745H208.326V98.8561H195.312V93.6745H198.199V64.9727H194.147V59.7911H205.288Z" fill="#FEFEFE"/>
<path d="M235.013 93.6745H238V98.8561H229.088C229.088 96.2145 229.088 94.8937 229.442 93.5729H229.341C227.569 97.6369 225.138 99.4657 220.682 99.4657C215.213 99.4657 211.82 96.3669 211.82 91.7441C211.82 89.2041 213.036 86.715 215.466 85.2418C217.998 83.7178 222.1 83.3114 225.493 83.2606L228.582 83.2098V82.2954C228.582 77.825 227.012 76.8598 223.619 76.8598C222.556 76.8598 220.378 77.1646 219.163 77.6218V81.1778H213.086V74.4215C216.125 72.7451 220.277 71.6783 223.67 71.6783C231.519 71.6783 235.266 74.6755 235.266 82.1938C235.266 86.4102 235.165 89.8137 235.013 93.6745ZM228.48 87.5786H226.303C221.593 87.5786 218.91 88.493 218.91 91.0837C218.91 92.6585 219.973 94.2841 222.809 94.2841C226.252 94.2841 228.48 91.7949 228.48 87.5786Z" fill="#FEFEFE"/>
<path d="M15.0904 152.805V152.958C18.0274 152.602 19.0402 152.5 20.0023 152.5H38.8398V160.73H0.759766V153.821C16.6602 142.29 26.7879 131.012 26.7879 124.154C26.7879 119.735 23.547 117.246 19.7491 117.246C14.584 117.246 11.647 120.903 11.1406 125.78H1.0636C1.56998 115.315 9.06445 109.067 20.1036 109.067C30.0287 109.067 37.27 114.401 37.27 123.697C37.3206 131.774 31.4972 140.004 15.0904 152.805Z" fill="#FEFEFE"/>
<path d="M62.2348 162C50.2335 162 43.7012 153.618 43.7012 136.905C43.7012 118.871 51.1956 109.067 63.8552 109.067C75.2995 109.067 82.1356 118.719 82.1356 135.533C82.085 151.942 73.9829 162 62.2348 162ZM71.1471 135.533C71.1471 123.697 68.7671 117.296 63.045 117.296C57.8799 117.296 54.639 123.087 54.639 136.041C54.639 148.64 56.9178 153.77 62.9944 153.77C68.362 153.77 71.1471 147.42 71.1471 135.533Z" fill="#FEFEFE"/>
<path d="M100.214 152.805V152.958C103.151 152.602 104.163 152.5 105.126 152.5H123.963V160.73H85.9336V153.821C101.834 142.29 111.962 131.012 111.962 124.154C111.962 119.735 108.721 117.246 104.923 117.246C99.7578 117.246 96.8208 120.903 96.3144 125.78H86.2374C86.7438 115.315 94.2383 109.067 105.277 109.067C115.203 109.067 122.444 114.401 122.444 123.697C122.444 131.774 116.62 140.004 100.214 152.805Z" fill="#FEFEFE"/>
<path d="M142.801 152.805V152.958C145.738 152.602 146.75 152.5 147.712 152.5H166.55V160.73H128.521V153.821C144.421 142.29 154.549 131.012 154.549 124.154C154.549 119.735 151.308 117.246 147.51 117.246C142.345 117.246 139.408 120.903 138.901 125.78H128.824C129.331 115.315 136.825 109.067 147.864 109.067C157.789 109.067 165.031 114.401 165.031 123.697C165.031 131.774 159.207 140.004 142.801 152.805Z" fill="#FEFEFE"/>
<path d="M39.5485 0L40.3587 0.304798L72.0077 10.9219L79.1477 13.3095L72.0077 15.6971L64.8677 18.0847V31.0894C64.8677 33.0198 63.9055 34.6961 62.0319 36.1693C60.766 37.1345 58.943 37.9981 56.5123 38.8617C51.7523 40.4365 46.1315 41.2493 39.5991 41.2493C33.0668 41.2493 27.3953 40.4365 22.686 38.8617C20.2553 37.9981 18.4323 37.1345 17.1664 36.1693C15.2421 34.6961 14.3306 32.969 14.3306 31.0894V18.0847L9.26681 16.5099V36.8297C10.9379 37.8965 11.7987 39.3697 11.7987 41.3001C11.7987 42.6717 11.2923 43.8909 10.2796 44.8561C9.26681 45.8721 8.10213 46.3801 6.73489 46.3801C5.36766 46.3801 4.15234 45.8721 3.19021 44.8561C2.17745 43.8401 1.67106 42.6717 1.67106 41.3001C1.67106 39.3697 2.53192 37.8965 4.20298 36.8297V14.6303L0 13.3603L7.14 10.9727L38.7889 0.304798L39.5485 0ZM39.5485 5.38476L15.8498 13.3603L39.5991 21.285L63.2979 13.3603L39.5485 5.38476ZM19.2932 19.8627V31.1402C19.2932 31.3434 19.5464 31.6482 20.1034 32.1054C21.1668 32.969 22.534 33.6294 24.2051 34.1881C28.3068 35.5597 33.4213 36.2709 39.5485 36.2709C45.6757 36.2709 50.7902 35.5597 54.8919 34.1881C56.563 33.6802 57.9302 32.969 58.9936 32.1054C59.5 31.699 59.8038 31.3434 59.8038 31.1402V19.8627L40.3587 26.365L39.5485 26.6698L38.7383 26.365L19.2932 19.8627Z" fill="white"/>
</g>
<defs>
<clipPath id="clip0">
<rect width="238" height="162" fill="white"/>
</clipPath>
</defs>
</svg>
