<svg width="302" height="126" viewBox="0 0 302 126" fill="none" xmlns="http://www.w3.org/2000/svg">
<g clip-path="url(#clip0)">
<path d="M291.2 67.9L269.4 84.9L271.6 90.1L301.8 80.3L291.2 67.9Z" fill="white"/>
<path d="M297.3 94.6L270.2 93.6L269.2 98.7L294.9 107.6" fill="white"/>
<path d="M10.6 107.6L32.4 90.6L30.2 85.4L0 95.2L10.6 107.6Z" fill="white"/>
<path d="M4.5 80.9L31.6 81.8L32.6 76.8L6.9 67.9" fill="white"/>
<path d="M75.6998 12.1L74.1998 43.1L64.5998 43.7L64.4998 27.3L60.2998 40.5L56.5998 40.6L52.9998 28.9L53.0998 42.6L43.2998 43V13.8L54.1998 13.2L58.6998 27.1L64.1998 12.2L75.6998 12.1Z" fill="white"/>
<path d="M104 40.8L93.4996 42.3L92.1996 37.5L87.3996 37.6L86.3996 42.4L75.5996 41.5L83.5996 13.2L95.2996 12.4L104 40.8ZM91.2996 31L89.5996 23.7L88.0996 31.1L91.2996 31Z" fill="white"/>
<path d="M123.9 12.1L123.8 21.1L117.5 21.4L116.2 41.5L107.3 42.1L107 22L100.7 22.4L100.8 12.4L123.9 12.1Z" fill="white"/>
<path d="M149.9 21.6C149.9 22.7 149.8 23.7 149.7 24.6C149.5 25.5 149.2 26.3 148.8 27.1C148.4 27.9 147.9 28.6 147.2 29.2C146.6 29.8 145.8 30.5 144.9 31L150.1 39.9L140.6 41.9L137.2 32.9L134.6 33L134.3 41.8L125.2 41.9C125.2 38.7 125.2 35.5 125.3 32.3C125.3 29.1 125.4 25.9 125.4 22.7C125.4 21.1 125.4 19.5 125.4 17.9C125.4 16.3 125.4 14.7 125.5 13.1C126.5 12.7 127.4 12.4 128.4 12.2C129.4 11.9 130.3 11.7 131.3 11.6C132.3 11.5 133.2 11.3 134.2 11.3C135.2 11.2 136.2 11.2 137.3 11.2C138.9 11.2 140.5 11.4 142 11.8C143.5 12.2 144.8 12.9 146 13.7C147.2 14.6 148.1 15.7 148.8 17C149.5 18.3 149.9 19.8 149.9 21.6ZM140.5 22.4C140.5 21.8 140.4 21.3 140.2 20.8C140 20.3 139.8 19.9 139.5 19.5C139.2 19.1 138.8 18.9 138.3 18.7C137.8 18.5 137.3 18.4 136.6 18.4C136.3 18.4 136 18.4 135.8 18.5C135.5 18.5 135.3 18.6 135 18.7L134.8 26.6H135.3C135.9 26.6 136.5 26.5 137.1 26.3C137.7 26.1 138.3 25.9 138.8 25.6C139.3 25.3 139.7 24.8 140 24.3C140.3 23.8 140.5 23.1 140.5 22.4Z" fill="white"/>
<path d="M162.7 12L160.8 40.8L151.9 41.4L151.5 12.7L162.7 12ZM167.9 5C166.2 5.9 164.6 6.9 163 7.8C161.4 8.8 159.8 9.8 158.3 10.9L155.6 8C155.9 7.7 156.2 7.3 156.6 6.9C157 6.5 157.4 6 157.8 5.6C158.2 5.2 158.7 4.7 159.2 4.3C159.7 3.8 160.1 3.4 160.6 3C161.7 2 162.8 1 163.9 0L167.9 5Z" fill="white"/>
<path d="M184.8 11.8L183.7 20.7C183.3 20.6 182.9 20.5 182.5 20.5C182.1 20.5 181.7 20.4 181.3 20.5C180.3 20.5 179.3 20.7 178.3 21C177.4 21.3 176.5 21.7 175.8 22.3C175.1 22.9 174.5 23.6 174.1 24.4C173.7 25.3 173.5 26.2 173.5 27.4C173.5 28.1 173.6 28.8 173.9 29.3C174.1 29.8 174.5 30.3 174.9 30.6C175.3 30.9 175.8 31.2 176.4 31.4C177 31.6 177.6 31.6 178.3 31.6C178.8 31.6 179.4 31.5 179.9 31.4C180.5 31.3 181 31.1 181.6 30.9C182.1 30.7 182.7 30.5 183.2 30.2C183.7 30 184.2 29.7 184.6 29.4L183.9 39.3C183.4 39.6 182.8 39.8 182.1 40.1C181.5 40.3 180.8 40.5 180.1 40.7C179.4 40.9 178.8 41 178.1 41.1C177.4 41.2 176.8 41.2 176.2 41.3C174.4 41.3 172.7 41 171.2 40.4C169.6 39.8 168.3 38.9 167.1 37.7C165.9 36.6 165 35.2 164.3 33.6C163.6 32 163.3 30.3 163.2 28.5C163.2 26.1 163.5 23.8 164.1 21.7C164.8 19.6 165.8 17.7 167.1 16C168.4 14.4 170.1 13.1 172 12.1C174 11.1 176.2 10.6 178.8 10.6C179.8 10.6 180.8 10.7 181.8 10.8C183 11.1 183.9 11.4 184.8 11.8Z" fill="white"/>
<path d="M211.5 17.6C211.5 18.6 211.5 19.8 211.4 21C211.3 22.3 211.2 23.6 211 24.9C210.8 26.2 210.5 27.6 210.2 29C209.9 30.4 209.4 31.7 208.9 33C208.4 34.3 207.8 35.5 207.1 36.6C206.4 37.7 205.6 38.7 204.7 39.5C203.8 40.3 202.8 41 201.6 41.5C200.5 42 199.2 42.2 197.8 42.3C196.2 42.3 194.7 42.1 193.5 41.6C192.3 41.1 191.2 40.4 190.4 39.5C189.5 38.6 188.8 37.6 188.2 36.4C187.6 35.2 187.2 34 186.9 32.6C186.6 31.3 186.3 29.9 186.2 28.5C186.1 27.1 186 25.8 186 24.5C186 22.5 186 20.6 186.2 18.6C186.4 16.6 186.6 14.7 187 12.7L196.9 12.9C196.5 15.1 196.3 17.3 196 19.6C195.8 21.8 195.6 24.1 195.7 26.3C195.7 26.5 195.7 26.9 195.7 27.4C195.7 27.9 195.8 28.4 195.8 29C195.9 29.6 196 30.2 196.1 30.8C196.2 31.4 196.4 32 196.6 32.5C196.8 33 197 33.4 197.3 33.7C197.6 34 197.9 34.2 198.2 34.2C198.6 34.2 199 34 199.3 33.6C199.6 33.2 199.9 32.7 200.1 32C200.3 31.3 200.5 30.6 200.7 29.8C200.9 29 201 28.1 201.1 27.2C201.2 26.3 201.3 25.4 201.4 24.4C201.5 23.5 201.5 22.6 201.6 21.8C201.6 21 201.7 20.3 201.7 19.7C201.7 19.1 201.7 18.6 201.7 18.3C201.7 17.2 201.7 16.1 201.6 15C201.5 13.9 201.5 12.8 201.4 11.7L211.3 11.6C211.4 13.6 211.5 15.6 211.5 17.6Z" fill="white"/>
<path d="M231.9 28.8L231.1 38.2L213.3 39.8C213.3 34.9 213.3 30 213.4 25.1C213.4 20.2 213.5 15.3 213.6 10.4L224.6 10.3C224.3 13.4 224.1 16.5 223.8 19.6C223.5 22.7 223.4 25.8 223.3 28.9C224 28.9 224.6 28.9 225.3 28.9C225.9 28.9 226.6 28.9 227.3 28.9C228.1 28.9 228.9 28.9 229.6 28.8C230.4 28.8 231.1 28.8 231.9 28.8Z" fill="white"/>
<path d="M259.7 38.6L249.2 40.1L247.9 35.3L243.1 35.4L242.1 40.2L231.3 39.3L239.3 11L251 10.2L259.7 38.6ZM247.1 28.9L245.4 21.6L243.9 29L247.1 28.9Z" fill="white"/>
<path d="M89.0999 77.2C89.0999 79.9 88.5999 82.5 87.5999 85C86.5999 87.5 85.2999 89.8 83.6999 92C82.0999 94.2 80.1999 96.2 78.1999 98C76.0999 99.8 73.9999 101.5 71.8999 103H88.0999L86.8999 124.3L38.8999 122.7V104C40.6999 103.4 42.5999 102.6 44.5999 101.8C46.5999 100.9 48.5999 99.9 50.4999 98.8C52.3999 97.7 54.2999 96.4 55.9999 95C57.6999 93.6 59.1999 92.1 60.5999 90.4C61.8999 88.7 62.9999 86.9 63.6999 85C64.4999 83.1 64.8999 80.9 64.8999 78.7C64.8999 77.4 64.6999 76.3 64.1999 75.3C63.6999 74.3 63.0999 73.5 62.2999 72.8C61.4999 72.1 60.4999 71.6 59.4999 71.3C58.3999 71 57.2999 70.8 55.9999 70.8C54.9999 70.8 53.8999 70.9 52.8999 71.1C51.7999 71.3 50.7999 71.6 49.7999 72C48.7999 72.4 47.7999 72.9 46.8999 73.5C45.9999 74.1 45.1999 74.8 44.4999 75.5L39.9999 55.4C41.2999 54.1 42.6999 53.1 44.3999 52.2C45.9999 51.3 47.7999 50.7 49.5999 50.1C51.3999 49.6 53.2999 49.2 55.0999 48.9C56.8999 48.6 58.7999 48.5 60.5999 48.5C64.5999 48.5 68.3999 49.2 71.8999 50.7C75.3999 52.2 78.3999 54.2 80.9999 56.7C83.5999 59.2 85.5999 62.3 87.0999 65.8C88.2999 69.4 89.0999 73.1 89.0999 77.2Z" fill="white"/>
<path d="M155.9 88.8C155.9 91.8 155.6 94.8 154.9 97.8C154.2 100.8 153.3 103.6 152 106.4C150.7 109.1 149.2 111.7 147.4 114C145.6 116.4 143.5 118.4 141.1 120.2C138.7 121.9 136.1 123.3 133.3 124.3C130.5 125.3 127.4 125.8 124.2 125.8C120.9 125.8 117.9 125.3 115 124.3C112.2 123.3 109.6 121.9 107.2 120.2C104.9 118.5 102.8 116.4 100.9 114C99.0998 111.6 97.4998 109.1 96.1998 106.4C94.8998 103.7 93.9998 100.8 93.2998 97.8C92.5998 94.8 92.2998 91.8 92.2998 88.8C92.2998 85.8 92.5998 82.8 93.2998 79.8C93.9998 76.8 94.8998 73.9 96.1998 71.2C97.4998 68.5 98.9998 65.9 100.9 63.5C102.7 61.1 104.8 59.1 107.2 57.3C109.5 55.6 112.1 54.2 115 53.2C117.9 52.2 120.9 51.7 124.2 51.7C127.5 51.7 130.5 52.2 133.3 53.2C136.1 54.2 138.7 55.6 141.1 57.3C143.5 59 145.6 61.1 147.4 63.5C149.2 65.9 150.8 68.4 152 71.2C153.2 74 154.2 76.8 154.9 79.8C155.6 82.8 155.9 85.8 155.9 88.8ZM134.2 90.3C134.2 88.8 134 87.1 133.6 85.3C133.2 83.5 132.6 81.7 131.7 80.1C130.8 78.5 129.7 77.1 128.4 76C127.1 74.9 125.5 74.4 123.6 74.4C121.7 74.4 120.1 74.9 118.8 76C117.5 77.1 116.4 78.4 115.5 80.1C114.6 81.8 114 83.4 113.6 85.3C113.2 87.1 113 88.8 113 90.3C113 91.8 113.2 93.5 113.6 95.3C114 97.1 114.7 98.9 115.5 100.5C116.4 102.1 117.5 103.5 118.8 104.6C120.1 105.7 121.7 106.2 123.6 106.2C125.4 106.2 127 105.7 128.4 104.6C129.7 103.5 130.8 102.2 131.7 100.5C132.6 98.9 133.2 97.2 133.6 95.3C134 93.5 134.2 91.8 134.2 90.3Z" fill="white"/>
<path d="M209.1 77.2C209.1 79.9 208.6 82.5 207.6 85C206.6 87.5 205.3 89.8 203.7 92C202.1 94.2 200.2 96.2 198.2 98C196.1 99.8 194 101.5 191.9 103H208.1L206.9 124.3L158.9 122.7V104C160.7 103.4 162.6 102.6 164.6 101.8C166.6 100.9 168.6 99.9 170.5 98.8C172.4 97.7 174.3 96.4 176 95C177.7 93.6 179.2 92.1 180.6 90.4C181.9 88.7 183 86.9 183.7 85C184.4 83.1 184.9 80.9 184.9 78.7C184.9 77.4 184.7 76.3 184.2 75.3C183.7 74.3 183.1 73.5 182.3 72.8C181.5 72.1 180.5 71.6 179.5 71.3C178.4 71 177.3 70.8 176 70.8C175 70.8 173.9 70.9 172.9 71.1C171.8 71.3 170.8 71.6 169.8 72C168.8 72.4 167.8 72.9 166.9 73.5C166 74.1 165.2 74.8 164.5 75.5L160 55.4C161.3 54.1 162.7 53.1 164.4 52.2C166 51.3 167.8 50.7 169.6 50.1C171.4 49.6 173.3 49.2 175.1 48.9C176.9 48.6 178.8 48.5 180.6 48.5C184.6 48.5 188.4 49.2 191.9 50.7C195.4 52.2 198.4 54.2 201 56.7C203.6 59.2 205.6 62.3 207.1 65.8C208.3 69.4 209.1 73.1 209.1 77.2Z" fill="white"/>
<path d="M262.6 77.2C262.6 79.9 262.1 82.5 261.1 85C260.1 87.5 258.8 89.8 257.2 92C255.6 94.2 253.7 96.2 251.7 98C249.6 99.8 247.5 101.5 245.4 103H261.6L260.4 124.3L212.4 122.7V104C214.2 103.4 216.1 102.6 218.1 101.8C220.1 100.9 222.1 99.9 224 98.8C225.9 97.7 227.8 96.4 229.5 95C231.2 93.6 232.7 92.1 234.1 90.4C235.4 88.7 236.5 86.9 237.2 85C237.9 83.1 238.4 80.9 238.4 78.7C238.4 77.4 238.2 76.3 237.7 75.3C237.2 74.3 236.6 73.5 235.8 72.8C235 72.1 234 71.6 233 71.3C231.9 71 230.8 70.8 229.5 70.8C228.5 70.8 227.4 70.9 226.4 71.1C225.3 71.3 224.3 71.6 223.3 72C222.3 72.4 221.3 72.9 220.4 73.5C219.5 74.1 218.7 74.8 218 75.5L213.5 55.4C214.8 54.1 216.2 53.1 217.9 52.2C219.5 51.3 221.3 50.7 223.1 50.1C224.9 49.6 226.8 49.2 228.6 48.9C230.4 48.6 232.3 48.5 234.1 48.5C238.1 48.5 241.9 49.2 245.4 50.7C248.9 52.2 251.9 54.2 254.5 56.7C257.1 59.2 259.1 62.3 260.6 65.8C261.9 69.4 262.6 73.1 262.6 77.2Z" fill="white"/>
</g>
<defs>
<clipPath id="clip0">
<rect width="301.8" height="125.7" fill="white"/>
</clipPath>
</defs>
</svg>
