<svg width="299" height="165" viewBox="0 0 299 165" fill="none" xmlns="http://www.w3.org/2000/svg">
<g clip-path="url(#clip0)">
<path d="M288.498 67.2076L266.9 84.0342L269.08 89.1812L299 79.4811L288.498 67.2076Z" fill="white"/>
<path d="M294.542 93.6352L267.693 92.6454L266.703 97.6934L292.164 106.503" fill="white"/>
<path d="M10.5017 106.503L32.0994 89.6761L29.9198 84.5291L0 94.2291L10.5017 106.503Z" fill="white"/>
<path d="M4.45801 80.075L31.3066 80.9658L32.2973 76.0168L6.83574 67.2076" fill="white"/>
<path d="M270.17 151.242C270.071 152.627 269.972 154.112 269.873 155.498C269.774 156.785 269.576 158.071 269.278 159.358C268.981 160.447 268.288 161.338 267.495 162.229C266.702 163.218 262.343 164.703 261.154 164.901C259.47 165.099 204.386 164.901 143.159 165C104.719 165.099 71.9264 164.208 70.8366 164.307C65.1895 164.703 59.5424 164.406 53.8953 164.406C49.9324 164.406 45.5732 164.307 41.7094 162.921C40.1242 163.02 38.44 162.427 37.1521 161.338C35.2697 159.853 34.1799 157.675 33.3873 155.399C33.0901 154.409 32.7929 153.32 32.4957 152.331C32.3966 152.034 32.2975 151.737 32.2975 151.44C32.0003 150.153 31.7031 148.866 31.505 147.579C31.0096 144.808 30.5142 142.037 30.217 139.265C30.0189 137.78 29.8207 136.296 29.7217 134.811C28.2356 132.436 28.3346 129.169 30.0189 126.992C30.3161 126.596 31.0096 126.596 31.3068 127.091C33.1892 131.05 37.053 133.524 41.115 134.811C46.0686 136.296 51.4185 135.9 56.4712 135.801C58.7498 135.702 97.388 133.722 141.376 133.722C203.593 133.722 254.616 136.89 257.885 137.286C260.263 137.582 262.839 137.978 265.117 138.968C266.207 139.364 267.099 139.958 267.891 140.849C268.783 141.74 269.278 142.828 269.675 143.917C270.467 146.095 270.269 148.767 270.17 151.242Z" fill="white"/>
<path d="M74.9978 11.9766L73.5118 42.6605L64.0008 43.2543L63.9018 27.0216L59.7407 40.087L56.075 40.186L52.5084 28.6053L52.6075 42.1656L42.8984 42.5615V13.6593L53.6973 13.0654L58.1556 26.8236L63.6045 12.0756L74.9978 11.9766Z" fill="white"/>
<path d="M103.035 40.3839L92.6329 41.8686L91.3449 37.1176L86.5895 37.2166L85.5987 41.9676L74.8989 41.0768L82.8247 13.0654L94.4162 12.2736L103.035 40.3839ZM90.4533 30.6839L88.769 23.4583L87.283 30.7829L90.4533 30.6839Z" fill="white"/>
<path d="M122.751 11.9766L122.652 20.8848L116.41 21.1818L115.122 41.0768L106.305 41.6707L106.008 21.7756L99.7661 22.1716L99.8652 12.2735L122.751 11.9766Z" fill="white"/>
<path d="M148.509 21.3797C148.509 22.4685 148.41 23.4583 148.311 24.3491C148.113 25.24 147.816 26.0318 147.42 26.8236C147.023 27.6155 146.528 28.3083 145.834 28.9022C145.24 29.4961 144.447 30.189 143.556 30.6839L148.708 39.4931L139.296 41.4727L135.927 32.5645L133.351 32.6635L133.054 41.3737L124.039 41.4727C124.039 38.3053 124.039 35.138 124.138 31.9706C124.138 28.8032 124.237 25.6359 124.237 22.4685C124.237 20.8848 124.237 19.3011 124.237 17.7175C124.237 16.1338 124.237 14.5501 124.336 12.9664C125.327 12.5705 126.218 12.2735 127.209 12.0756C128.2 11.7786 129.091 11.5807 130.082 11.4817C131.073 11.3827 131.964 11.1848 132.955 11.1848C133.946 11.0858 134.937 11.0858 136.026 11.0858C137.611 11.0858 139.197 11.2837 140.683 11.6797C142.169 12.0756 143.457 12.7684 144.646 13.5603C145.834 14.4511 146.726 15.5399 147.42 16.8266C148.113 18.1134 148.509 19.5981 148.509 21.3797ZM139.197 22.1716C139.197 21.5777 139.098 21.0828 138.899 20.5879C138.701 20.093 138.503 19.6971 138.206 19.3011C137.909 18.9052 137.512 18.7073 137.017 18.5093C136.522 18.3113 136.026 18.2124 135.333 18.2124C135.036 18.2124 134.738 18.2124 134.54 18.3113C134.243 18.3113 134.045 18.4103 133.748 18.5093L133.55 26.3287H134.045C134.639 26.3287 135.234 26.2298 135.828 26.0318C136.423 25.8338 137.017 25.6359 137.512 25.3389C138.008 25.042 138.404 24.5471 138.701 24.0522C138.998 23.5573 139.197 22.8644 139.197 22.1716Z" fill="white"/>
<path d="M161.191 11.8776L159.308 40.3839L150.491 40.9778L150.095 12.5705L161.191 11.8776ZM166.343 4.94901C164.658 5.83983 163.073 6.82963 161.488 7.72046C159.903 8.71026 158.318 9.70006 156.832 10.7888L154.157 7.91842C154.454 7.62148 154.751 7.22556 155.147 6.82963C155.544 6.43371 155.94 5.93881 156.336 5.54289C156.733 5.14697 157.228 4.65207 157.723 4.25615C158.219 3.76125 158.615 3.36533 159.11 2.96941C160.2 1.9796 161.29 0.989802 162.38 0L166.343 4.94901Z" fill="white"/>
<path d="M183.086 11.6797L181.996 20.4889C181.6 20.3899 181.203 20.291 180.807 20.291C180.411 20.291 180.014 20.192 179.618 20.291C178.627 20.291 177.637 20.4889 176.646 20.7859C175.754 21.0828 174.863 21.4787 174.169 22.0726C173.476 22.6665 172.881 23.3593 172.485 24.1512C172.089 25.042 171.89 25.9328 171.89 27.1206C171.89 27.8134 171.99 28.5063 172.287 29.0012C172.485 29.4961 172.881 29.991 173.277 30.288C173.674 30.5849 174.169 30.8818 174.764 31.0798C175.358 31.2778 175.952 31.2778 176.646 31.2778C177.141 31.2778 177.736 31.1788 178.231 31.0798C178.826 30.9808 179.321 30.7829 179.915 30.5849C180.411 30.3869 181.005 30.189 181.501 29.892C181.996 29.6941 182.491 29.3971 182.888 29.1002L182.194 38.8992C181.699 39.1962 181.104 39.3941 180.411 39.6911C179.816 39.889 179.123 40.087 178.429 40.285C177.736 40.4829 177.141 40.5819 176.448 40.6809C175.754 40.7799 175.16 40.7799 174.565 40.8788C172.782 40.8788 171.098 40.5819 169.612 39.988C168.027 39.3941 166.739 38.5033 165.55 37.3155C164.361 36.2268 163.469 34.841 162.776 33.2574C162.082 31.6737 161.785 29.991 161.686 28.2094C161.686 25.8338 161.983 23.5573 162.578 21.4787C163.271 19.4001 164.262 17.5195 165.55 15.8368C166.838 14.2532 168.522 12.9664 170.404 11.9766C172.386 10.9868 174.565 10.4919 177.141 10.4919C178.132 10.4919 179.123 10.5909 180.113 10.6899C181.302 10.9868 182.194 11.2838 183.086 11.6797Z" fill="white"/>
<path d="M209.538 17.4205C209.538 18.4103 209.538 19.5981 209.439 20.7858C209.34 22.0726 209.241 23.3593 209.042 24.6461C208.844 25.9328 208.547 27.3185 208.25 28.7042C207.953 30.09 207.457 31.3767 206.962 32.6635C206.467 33.9502 205.872 35.138 205.179 36.2267C204.485 37.3155 203.693 38.3053 202.801 39.0972C201.909 39.889 200.919 40.5819 199.73 41.0768C198.64 41.5717 197.352 41.7696 195.965 41.8686C194.38 41.8686 192.894 41.6707 191.705 41.1758C190.516 40.6809 189.426 39.988 188.634 39.0972C187.742 38.2063 187.048 37.2165 186.454 36.0288C185.86 34.841 185.463 33.6533 185.166 32.2675C184.869 30.9808 184.572 29.5951 184.473 28.2093C184.373 26.8236 184.274 25.5369 184.274 24.2501C184.274 22.2705 184.274 20.3899 184.473 18.4103C184.671 16.4307 184.869 14.5501 185.265 12.5705L195.073 12.7684C194.677 14.946 194.479 17.1236 194.182 19.4001C193.983 21.5777 193.785 23.8542 193.884 26.0318C193.884 26.2297 193.884 26.6257 193.884 27.1206C193.884 27.6155 193.983 28.1104 193.983 28.7042C194.083 29.2981 194.182 29.892 194.281 30.4859C194.38 31.0798 194.578 31.6737 194.776 32.1686C194.974 32.6635 195.172 33.0594 195.47 33.3563C195.767 33.6533 196.064 33.8512 196.361 33.8512C196.758 33.8512 197.154 33.6533 197.451 33.2573C197.748 32.8614 198.045 32.3665 198.244 31.6737C198.442 30.9808 198.64 30.2879 198.838 29.4961C199.036 28.7042 199.135 27.8134 199.234 26.9226C199.333 26.0318 199.432 25.141 199.532 24.1512C199.631 23.2603 199.631 22.3695 199.73 21.5777C199.73 20.7858 199.829 20.093 199.829 19.4991C199.829 18.9052 199.829 18.4103 199.829 18.1134C199.829 17.0246 199.829 15.9358 199.73 14.847C199.631 13.7582 199.631 12.6695 199.532 11.5807L209.34 11.4817C209.439 13.4613 209.538 15.4409 209.538 17.4205Z" fill="white"/>
<path d="M229.749 28.5063L228.956 37.8104L211.321 39.3941C211.321 34.5441 211.321 29.694 211.42 24.844C211.42 19.994 211.519 15.144 211.619 10.2939L222.516 10.1949C222.219 13.2633 222.021 16.3317 221.724 19.4001C221.427 22.4685 221.328 25.5369 221.229 28.6053C221.922 28.6053 222.516 28.6053 223.21 28.6053C223.804 28.6053 224.498 28.6053 225.191 28.6053C225.984 28.6053 226.777 28.6053 227.47 28.5063C228.263 28.5063 228.956 28.5063 229.749 28.5063Z" fill="white"/>
<path d="M257.291 38.2064L246.888 39.6911L245.6 34.94L240.845 35.039L239.854 39.79L229.154 38.8992L237.08 10.8878L248.672 10.096L257.291 38.2064ZM244.808 28.6053L243.123 21.3797L241.637 28.7043L244.808 28.6053Z" fill="white"/>
<path d="M88.2733 76.4127C88.2733 79.0852 87.778 81.6587 86.7872 84.1332C85.7965 86.6077 84.5086 88.8842 82.9234 91.0618C81.3383 93.2394 79.4559 95.219 77.4744 97.0006C75.3939 98.7822 73.3134 100.465 71.2329 101.95H87.2826L86.0937 123.032L38.5391 121.449V102.939C40.3224 102.346 42.2047 101.554 44.1862 100.762C46.1676 99.871 48.1491 98.8812 50.0314 97.7924C51.9138 96.7037 53.7962 95.4169 55.4804 94.0312C57.1646 92.6455 58.6507 91.1608 60.0377 89.4781C61.3257 87.7954 62.4155 86.0138 63.109 84.1332C63.9016 82.2526 64.2978 80.075 64.2978 77.8974C64.2978 76.6107 64.0997 75.5219 63.6043 74.5321C63.109 73.5423 62.5145 72.7505 61.722 72.0576C60.9294 71.3647 59.9387 70.8698 58.9479 70.5729C57.8581 70.2759 56.7684 70.078 55.4804 70.078C54.4897 70.078 53.3999 70.177 52.4092 70.3749C51.3194 70.5729 50.3287 70.8698 49.3379 71.2657C48.3472 71.6617 47.3565 72.1566 46.4648 72.7505C45.5732 73.3443 44.7806 74.0372 44.0871 74.7301L39.6289 54.835C40.9168 53.5483 42.3038 52.5585 43.988 51.6677C45.5732 50.7768 47.3565 50.183 49.1398 49.5891C50.9231 49.0942 52.8055 48.6983 54.5888 48.4013C56.3721 48.1044 58.2544 48.0054 60.0377 48.0054C64.0006 48.0054 67.7654 48.6983 71.2329 50.183C74.7004 51.6677 77.6726 53.6473 80.2485 56.1218C82.8243 58.5963 84.8058 61.6647 86.2919 65.129C87.4807 68.6923 88.2733 72.3545 88.2733 76.4127Z" fill="white"/>
<path d="M154.454 87.8944C154.454 90.8638 154.157 93.8332 153.463 96.8026C152.77 99.772 151.878 102.543 150.59 105.315C149.302 107.987 147.816 110.561 146.033 112.837C144.249 115.213 142.169 117.193 139.791 118.974C137.413 120.657 134.837 122.043 132.063 123.032C129.289 124.022 126.218 124.517 123.048 124.517C119.779 124.517 116.806 124.022 113.933 123.032C111.159 122.043 108.583 120.657 106.206 118.974C103.927 117.292 101.846 115.213 99.9641 112.837C98.1808 110.462 96.5956 107.987 95.3077 105.315C94.0197 102.642 93.1281 99.772 92.4346 96.8026C91.7411 93.8332 91.4438 90.8638 91.4438 87.8944C91.4438 84.925 91.7411 81.9556 92.4346 78.9862C93.1281 76.0168 94.0197 73.1464 95.3077 70.4739C96.5956 67.8014 98.0817 65.2279 99.9641 62.8524C101.747 60.4769 103.828 58.4973 106.206 56.7157C108.484 55.033 111.06 53.6473 113.933 52.6575C116.806 51.6677 119.779 51.1728 123.048 51.1728C126.317 51.1728 129.289 51.6677 132.063 52.6575C134.837 53.6473 137.413 55.033 139.791 56.7157C142.169 58.3983 144.249 60.4769 146.033 62.8524C147.816 65.2279 149.401 67.7025 150.59 70.4739C151.779 73.2453 152.77 76.0168 153.463 78.9862C154.157 81.9556 154.454 84.925 154.454 87.8944ZM132.955 89.3791C132.955 87.8944 132.757 86.2118 132.361 84.4301C131.964 82.6485 131.37 80.8668 130.478 79.2831C129.587 77.6995 128.497 76.3137 127.209 75.2249C125.921 74.1362 124.336 73.6413 122.453 73.6413C120.571 73.6413 118.986 74.1362 117.698 75.2249C116.41 76.3137 115.32 77.6005 114.429 79.2831C113.537 80.9658 112.943 82.5495 112.546 84.4301C112.15 86.2118 111.952 87.8944 111.952 89.3791C111.952 90.8638 112.15 92.5465 112.546 94.3281C112.943 96.1098 113.636 97.8914 114.429 99.4751C115.32 101.059 116.41 102.445 117.698 103.533C118.986 104.622 120.571 105.117 122.453 105.117C124.237 105.117 125.822 104.622 127.209 103.533C128.497 102.445 129.587 101.158 130.478 99.4751C131.37 97.8914 131.964 96.2088 132.361 94.3281C132.757 92.5465 132.955 90.8638 132.955 89.3791Z" fill="white"/>
<path d="M207.16 76.4127C207.16 79.0852 206.665 81.6587 205.674 84.1332C204.683 86.6077 203.395 88.8842 201.81 91.0618C200.225 93.2394 198.343 95.219 196.361 97.0006C194.281 98.7822 192.2 100.465 190.12 101.95H206.169L204.98 123.032L157.426 121.449V102.939C159.209 102.346 161.091 101.554 163.073 100.762C165.054 99.871 167.036 98.8812 168.918 97.7924C170.801 96.7037 172.683 95.4169 174.367 94.0312C176.051 92.6455 177.537 91.1608 178.924 89.4781C180.212 87.7954 181.302 86.0138 181.996 84.1332C182.689 82.2526 183.185 80.075 183.185 77.8974C183.185 76.6107 182.986 75.5219 182.491 74.5321C181.996 73.5423 181.401 72.7505 180.609 72.0576C179.816 71.3647 178.825 70.8698 177.835 70.5729C176.745 70.2759 175.655 70.078 174.367 70.078C173.376 70.078 172.287 70.177 171.296 70.3749C170.206 70.5729 169.215 70.8698 168.225 71.2657C167.234 71.6617 166.243 72.1566 165.352 72.7505C164.46 73.3443 163.667 74.0372 162.974 74.7301L158.516 54.835C159.804 53.5483 161.191 52.5585 162.875 51.6677C164.46 50.7768 166.243 50.183 168.027 49.5891C169.81 49.0942 171.692 48.6983 173.475 48.4013C175.259 48.1044 177.141 48.0054 178.924 48.0054C182.887 48.0054 186.652 48.6983 190.12 50.183C193.587 51.6677 196.559 53.6473 199.135 56.1218C201.711 58.5963 203.693 61.6647 205.179 65.129C206.367 68.6923 207.16 72.3545 207.16 76.4127Z" fill="white"/>
<path d="M260.163 76.4127C260.163 79.0852 259.668 81.6587 258.677 84.1332C257.687 86.6077 256.399 88.8842 254.814 91.0618C253.228 93.2394 251.346 95.219 249.365 97.0006C247.284 98.7822 245.204 100.465 243.123 101.95H259.173L257.984 123.032L210.429 121.449V102.939C212.212 102.346 214.095 101.554 216.076 100.762C218.058 99.871 220.039 98.8812 221.922 97.7924C223.804 96.7037 225.686 95.4169 227.371 94.0312C229.055 92.6455 230.541 91.1608 231.928 89.4781C233.216 87.7954 234.306 86.0138 234.999 84.1332C235.693 82.2526 236.188 80.075 236.188 77.8974C236.188 76.6107 235.99 75.5219 235.494 74.5321C234.999 73.5423 234.405 72.7505 233.612 72.0576C232.82 71.3647 231.829 70.8698 230.838 70.5729C229.748 70.2759 228.658 70.078 227.371 70.078C226.38 70.078 225.29 70.177 224.299 70.3749C223.21 70.5729 222.219 70.8698 221.228 71.2657C220.237 71.6617 219.247 72.1566 218.355 72.7505C217.463 73.3443 216.671 74.0372 215.977 74.7301L211.519 54.835C212.807 53.5483 214.194 52.5585 215.878 51.6677C217.463 50.7768 219.247 50.183 221.03 49.5891C222.813 49.0942 224.696 48.6983 226.479 48.4013C228.262 48.1044 230.145 48.0054 231.928 48.0054C235.891 48.0054 239.655 48.6983 243.123 50.183C246.591 51.6677 249.563 53.6473 252.139 56.1218C254.714 58.5963 256.696 61.6647 258.182 65.129C259.47 68.6923 260.163 72.3545 260.163 76.4127Z" fill="white"/>
<path d="M52.6074 143.323L57.561 142.63C57.1647 146.689 56.9666 150.351 56.9666 153.716L62.2174 153.122L62.7128 157.181C60.0378 157.379 56.6694 157.873 52.6074 158.665V143.323V143.323Z" fill="#FF4729"/>
<path d="M64.8926 143.323L67.4685 143.026L70.0443 142.63C69.648 145.501 69.4499 148.272 69.3508 150.846C69.2518 153.32 69.3508 155.696 69.549 157.774L67.2703 158.368L64.8926 158.764V143.323Z" fill="#FF4729"/>
<path d="M84.9049 145.402C85.004 145.897 85.103 146.491 85.2021 147.085C84.7068 147.283 84.0133 147.481 83.0225 147.777L80.8429 148.371C80.7439 147.678 80.3476 147.382 79.8522 147.382C79.0596 147.382 78.3661 147.678 77.7717 148.272C77.3754 148.767 77.2763 149.163 77.3754 149.559C77.5736 149.856 77.9699 149.955 78.6634 149.955C79.0596 149.955 79.555 149.955 80.1494 149.856C81.0411 149.757 81.7346 149.658 82.4281 149.658C84.1123 149.658 85.2021 150.054 85.6975 150.945C85.8956 151.242 85.9947 151.539 85.9947 151.737C86.1928 152.627 85.9947 153.716 85.2021 154.706C84.3105 156.092 82.8244 157.28 80.7439 158.269C79.7532 158.764 78.5643 158.962 77.4745 158.962C76.4838 158.962 75.394 158.764 74.2051 158.368C74.5023 157.478 74.9977 156.191 75.6912 154.508C76.3847 154.904 77.1773 155.003 77.8708 155.003C78.168 155.003 78.4652 155.003 78.7624 154.904C79.3569 154.805 79.9513 154.607 80.4467 154.409C81.1402 154.112 81.5364 153.815 81.4374 153.419C81.3383 153.023 80.942 152.825 80.0504 152.825C79.4559 152.825 78.6634 152.924 77.6726 153.023C76.6819 153.221 75.8893 153.32 75.2949 153.32C74.6014 153.32 74.007 153.221 73.5116 153.023C72.6199 152.627 72.1246 152.034 72.1246 151.242C72.0255 149.658 72.9172 147.777 74.9977 145.699C77.1773 143.521 79.1587 142.334 81.1402 142.235C83.1216 142.235 84.3105 143.323 84.9049 145.402Z" fill="#FF4729"/>
<path d="M100.856 146.59C98.6762 146.689 97.1901 146.788 96.2984 146.887C96.1003 148.668 96.2984 152.43 96.9919 158.368L91.642 159.358V147.283C91.3448 147.283 90.7504 147.382 89.7597 147.481C88.868 147.579 88.1745 147.678 87.5801 147.678L87.8773 143.521L99.9641 142.531L100.856 146.59Z" fill="#FF4729"/>
<path d="M101.846 158.071C103.53 153.122 104.917 148.074 105.809 143.125L112.348 142.235C113.14 146.689 114.527 151.836 116.509 157.675L111.555 158.665L110.862 155.894L107.592 156.191L106.998 158.962L101.846 158.071ZM110.267 153.122L109.078 147.382L108.088 153.221L110.267 153.122Z" fill="#FF4729"/>
<path d="M125.327 143.224C127.506 142.828 129.488 142.729 131.073 142.828C132.955 143.026 134.441 143.422 135.432 144.214C137.017 145.303 138.008 146.59 138.305 147.975C138.404 148.47 138.503 149.064 138.404 149.658C138.305 150.846 138.008 151.935 137.413 153.023C136.72 154.211 135.729 155.201 134.441 156.092C133.649 156.587 132.856 157.082 131.964 157.478C130.082 158.269 127.903 158.764 125.525 158.764H125.426L125.327 145.897C125.327 144.313 125.327 143.422 125.327 143.224ZM129.983 150.846C129.983 152.034 129.983 153.023 130.082 154.013C131.37 153.617 132.262 152.924 132.955 152.034C133.649 151.143 133.847 150.252 133.748 149.361C133.55 148.569 133.153 147.975 132.46 147.579C131.865 147.184 131.073 147.085 130.181 147.085C130.082 148.569 129.983 149.856 129.983 150.846Z" fill="#FF4729"/>
<path d="M148.212 146.59C147.32 146.689 146.429 146.788 145.636 146.887C145.537 147.382 145.537 147.777 145.438 147.975L145.339 149.064L147.419 148.767L149.401 148.47L149.599 149.955L149.797 151.44C148.509 151.638 147.617 151.737 147.221 151.836C146.528 151.935 145.834 152.034 145.339 152.133L145.24 154.211L148.014 153.815L150.788 153.419L151.085 155.498L151.382 157.478C149.995 157.576 148.41 157.675 146.528 157.972C144.744 158.269 142.763 158.566 140.583 158.962C140.583 158.071 140.583 156.785 140.484 155.102L140.385 151.143C140.385 147.678 140.286 145.105 140.286 143.323L145.141 142.828L150.094 142.235L150.391 144.214L150.689 146.293C150.094 146.392 149.104 146.491 148.212 146.59Z" fill="#FF4729"/>
<path d="M168.522 146.59C167.63 146.689 166.739 146.788 165.946 146.887C165.847 147.382 165.847 147.777 165.748 147.975L165.649 149.064L167.729 148.767L169.711 148.47L169.909 149.955L170.107 151.44C168.819 151.638 167.928 151.737 167.531 151.836C166.838 151.935 166.144 152.034 165.649 152.133L165.55 154.211L168.324 153.815L171.098 153.419L171.395 155.498L171.692 157.478C170.305 157.576 168.72 157.675 166.838 157.972C165.054 158.269 163.073 158.566 160.893 158.962C160.893 158.071 160.893 156.785 160.794 155.102L160.695 151.143C160.695 147.678 160.596 145.105 160.596 143.323L165.451 142.828L170.404 142.235L170.702 144.214L170.999 146.293C170.305 146.392 169.414 146.491 168.522 146.59Z" fill="#FF4729"/>
<path d="M186.157 145.402C186.256 145.897 186.355 146.491 186.454 147.085C185.959 147.283 185.265 147.481 184.274 147.777L182.095 148.371C181.996 147.678 181.6 147.382 181.104 147.382C180.312 147.382 179.618 147.678 179.024 148.272C178.627 148.767 178.528 149.163 178.627 149.559C178.826 149.856 179.222 149.955 179.915 149.955C180.312 149.955 180.807 149.955 181.401 149.856C182.293 149.757 182.987 149.658 183.68 149.658C185.364 149.658 186.454 150.054 186.949 150.945C187.148 151.242 187.247 151.539 187.247 151.737C187.445 152.627 187.247 153.716 186.454 154.706C185.562 156.092 184.076 157.28 181.996 158.269C181.005 158.764 179.816 158.962 178.726 158.962C177.736 158.962 176.646 158.764 175.457 158.368C175.754 157.478 176.25 156.191 176.943 154.508C177.637 154.904 178.429 155.003 179.123 155.003C179.42 155.003 179.717 155.003 180.014 154.904C180.609 154.805 181.203 154.607 181.699 154.409C182.392 154.112 182.788 153.815 182.689 153.419C182.59 153.023 182.194 152.825 181.302 152.825C180.708 152.825 179.915 152.924 178.925 153.023C177.934 153.221 177.141 153.32 176.547 153.32C175.853 153.32 175.259 153.221 174.764 153.023C173.872 152.627 173.377 152.034 173.377 151.242C173.277 149.658 174.169 147.777 176.25 145.699C178.429 143.521 180.411 142.334 182.392 142.235C184.473 142.235 185.662 143.323 186.157 145.402Z" fill="#FF4729"/>
<path d="M189.624 151.242C189.723 146.788 189.624 144.115 189.327 143.224C192.2 142.63 194.578 142.334 196.262 142.433C197.946 142.531 199.333 142.927 200.225 143.719C201.117 144.511 201.612 145.699 201.612 147.283C201.612 148.569 201.315 149.658 200.621 150.648C200.027 151.44 199.234 152.133 198.244 152.726C197.055 153.419 195.569 153.914 193.884 154.112C193.785 155.201 193.884 156.686 194.083 158.566L189.228 159.061C189.525 157.576 189.624 155.003 189.624 151.242ZM193.983 150.252C195.073 150.252 195.965 149.955 196.658 149.361C197.154 148.965 197.451 148.371 197.55 147.777C197.649 146.887 197.352 146.392 196.658 146.095C195.965 145.897 195.073 145.897 193.884 146.293L193.983 150.252Z" fill="#FF4729"/>
<path d="M211.52 146.59C210.628 146.689 209.736 146.788 208.944 146.887C208.845 147.382 208.845 147.777 208.746 147.975L208.646 149.064L210.727 148.767L212.708 148.47L212.907 149.955L213.105 151.44C211.817 151.638 210.925 151.737 210.529 151.836C209.835 151.935 209.142 152.034 208.646 152.133L208.547 154.211L211.321 153.815L214.095 153.419L214.393 155.498L214.69 157.478C213.303 157.576 211.718 157.675 209.835 157.972C208.052 158.269 206.071 158.566 203.891 158.962C203.891 158.071 203.891 156.785 203.792 155.102L203.693 151.143C203.693 147.678 203.594 145.105 203.594 143.323L208.448 142.828L213.402 142.235L213.699 144.214L213.996 146.293C213.303 146.392 212.312 146.491 211.52 146.59Z" fill="#FF4729"/>
<path d="M224.399 142.235C227.173 142.235 228.758 143.224 229.154 145.105C229.352 147.382 228.262 149.262 225.687 150.747C226.083 151.242 227.569 152.924 230.145 155.696C229.055 156.488 227.767 157.576 226.083 158.863L221.327 152.726C221.327 154.706 221.327 156.488 221.526 158.071L217.067 159.061C217.365 151.242 217.365 145.996 216.968 143.323C219.841 142.63 222.318 142.235 224.399 142.235ZM221.327 147.678L221.228 149.262C221.922 148.965 222.516 148.668 223.111 148.272C224.101 147.579 224.498 147.085 224.399 146.491C224.3 146.095 224.002 145.897 223.408 145.897C222.913 145.897 222.318 145.996 221.427 146.194C221.327 146.689 221.327 147.184 221.327 147.678Z" fill="#FF4729"/>
<path d="M230.938 158.071C232.622 153.122 234.009 148.074 234.9 143.125L241.439 142.235C242.232 146.689 243.619 151.836 245.6 157.675L240.647 158.665L239.953 155.894L236.684 156.191L236.089 158.962L230.938 158.071ZM239.26 153.122L238.071 147.382L237.08 153.221L239.26 153.122Z" fill="#FF4729"/>
</g>
<defs>
<clipPath id="clip0">
<rect width="299" height="165" fill="white"/>
</clipPath>
</defs>
</svg>
