<?xml version="1.0" encoding="utf-8"?>
<!-- Generator: Adobe Illustrator 22.0.1, SVG Export Plug-In . SVG Version: 6.00 Build 0)  -->
<svg version="1.1" id="Capa_1" xmlns="http://www.w3.org/2000/svg" xmlns:xlink="http://www.w3.org/1999/xlink" x="0px" y="0px"
	 viewBox="0 0 900 1080" style="enable-background:new 0 0 900 1080;" xml:space="preserve">
<style type="text/css">
	.st0{clip-path:url(#SVGID_2_);}
	.st1{fill:#FFE000;}
	.st2{fill:#FF6347;}
	.st3{fill:#C7724E;}
	.st4{fill:#FC5EB1;}
	.st5{fill:#F55637;}
	.st6{fill:#100E1C;}
	.st7{fill:#FFFDFA;}
	.st8{fill:none;stroke:#100E1C;stroke-width:2.3812;stroke-linecap:round;stroke-linejoin:round;stroke-miterlimit:10;}
	.st9{fill:#FF9F9F;}
	.st10{fill:#FFB600;}
	.st11{fill:#FFCA9B;}
	.st12{fill:#7CA9F7;}
	.st13{fill:#663B54;}
	.st14{fill:#E5D85E;}
	.st15{fill:#E59F03;}
	.st16{fill:#F9B4B4;}
	.st17{fill:#FFDA00;}
	.st18{fill:#3C498C;}
	.st19{fill:#FF99D3;}
	.st20{clip-path:url(#SVGID_4_);}
	.st21{fill:#FFCDBB;}
	.st22{fill:#FFB5AB;}
	.st23{clip-path:url(#SVGID_6_);}
	.st24{fill:#101014;}
	.st25{clip-path:url(#SVGID_8_);fill:#FC5EB1;}
</style>
<g>
	<defs>
		<rect id="SVGID_1_" x="0" y="0" width="900" height="1080"/>
	</defs>
	<clipPath id="SVGID_2_">
		<use xlink:href="#SVGID_1_"  style="overflow:visible;"/>
	</clipPath>
	<g class="st0">
		<g>
			<g>
				<path class="st1" d="M790.6,600l-2.8,10.3c-0.7,2.6-3.1,4.6-6.1,5.1l-11.1,2c-2.2,0.4-2.2,3.5-0.1,3.9l10.2,2.1
					c3.5,0.7,6.3,3.2,7,6.3l2.3,9.7c0.5,2.1,3.5,2.2,4.1,0.1l2.6-9.6c0.8-3.1,3.6-5.4,7.2-6l10.3-1.8c2.2-0.4,2.2-3.5,0.1-3.9
					l-11.1-2.3c-3-0.6-5.3-2.7-5.9-5.3l-2.5-10.5C794.2,597.9,791.1,597.8,790.6,600z"/>
				<path class="st1" d="M829.4,632.2l-1.7,6c-0.4,1.5-1.8,2.7-3.6,3l-6.5,1.1c-1.3,0.2-1.3,2,0,2.3l5.9,1.2
					c2.1,0.4,3.7,1.9,4.1,3.7l1.3,5.6c0.3,1.2,2.1,1.3,2.4,0l1.5-5.6c0.5-1.8,2.1-3.1,4.2-3.5l6-1c1.3-0.2,1.3-2,0-2.3l-6.5-1.4
					c-1.7-0.4-3.1-1.6-3.4-3.1l-1.5-6.1C831.5,631,829.7,631,829.4,632.2z"/>
			</g>
			<g>
				<path class="st1" d="M785.8,480.2l-2.8-10.3c-0.7-2.6-3.1-4.6-6.1-5.1l-11.1-2c-2.2-0.4-2.2-3.5-0.1-3.9l10.2-2.1
					c3.5-0.7,6.3-3.2,7-6.3l2.3-9.7c0.5-2.1,3.5-2.2,4.1-0.1l2.6,9.6c0.8,3.1,3.6,5.4,7.2,6l10.3,1.8c2.2,0.4,2.2,3.5,0.1,3.9
					l-11.1,2.3c-3,0.6-5.3,2.7-5.9,5.3l-2.5,10.5C789.4,482.3,786.4,482.3,785.8,480.2z"/>
				<path class="st1" d="M824.6,447.9l-1.7-6c-0.4-1.5-1.8-2.7-3.6-3l-6.5-1.1c-1.3-0.2-1.3-2,0-2.3l5.9-1.2
					c2.1-0.4,3.7-1.9,4.1-3.7l1.3-5.6c0.3-1.2,2.1-1.3,2.4,0l1.5,5.6c0.5,1.8,2.1,3.1,4.2,3.5l6,1c1.3,0.2,1.3,2,0,2.3l-6.5,1.4
					c-1.7,0.4-3.1,1.6-3.4,3.1l-1.5,6.1C826.7,449.1,825,449.2,824.6,447.9z"/>
			</g>
		</g>
		
			<rect x="-8.4" y="-30.9" transform="matrix(-1.836970e-16 1 -1 -1.836970e-16 1102.4718 -22.4709)" class="st2" width="1141.8" height="1141.8"/>
		<g>
			<g>
				<g>
					<path class="st3" d="M692.5,856.8c0,0-1.7-74.8-7.6-119.7l0,0c0,0-21.5-131.6-33-191.5c-3.8-19.6-6.8-29.5-16.1-28.9
						c-5.8,0.4-15.2,1.2-13.2,21.9c3.9,39.8,3.8,104.8,4.1,128.6l0,0c-6.7-42.2-23.1-125.4-29.5-164.9
						c-2.5-15.2-13.1-17.1-16.7-16.6c-12.8,1.8-17.6,8.7-14.7,34c5.4,46.8,11.3,128.7,13.1,158.4c-3.3-30.9-20.4-111.6-30.4-160.3
						c-6.7-32.7-12.8-37.9-27.8-33.1c-10.9,3.5-12.5,12.9-7.8,42c8,49.3,17.7,130.3,22,159.4c-5.1-23.3-20.6-107.2-34.2-151.3
						c-9.1-29.6-16.3-28.4-23.3-27.3c-8.9,1.5-21.1,11.8-14.6,44.3c12.7,64,31.2,178.9,31.2,178.9s-58.8-94.5-86.2-75.5
						c-36.2,25.1,114.2,229.5,114.2,229.5s26.8,145.1,54.3,304.4l200.1-0.3C739,1038.9,696.2,867.7,692.5,856.8z"/>
					<path class="st4" d="M566.6,1189.4c-1.7-9.6-10.2-17.3-12.1-26.3c-4.3-20.1-5-50.7-9.6-67.7c-9.9-36.5-15.1-50.6-19-73
						c-5.5-32,8.2-29.5,8.2-29.5s22.1-16.3,57.8-18.9c80.2-5.9,132.8-12.2,132.8-12.2c2,5.2,15.1,11.2,29.6,61.5
						c8.6,29.8,18.5,71.9,29.4,111.6c4.8,17.6,1.7,35.5,6.8,54.4H566.6z"/>
					<path class="st5" d="M706,923.7c2.5-0.2,4.6-0.4,6.2-0.4c0,0,3.2-21.8-10.9-46.6c0,0-3.9,0.5-10.6,1.3
						C697.5,893,702.6,908.1,706,923.7z"/>
					<path class="st4" d="M706,923.7c-3.4-15.5-8.6-30.7-15.3-45.7c-1.8,0.2-3.9,0.5-6.1,0.8c4.7,15.3,9.1,30.4,12.3,46
						C700.3,924.3,703.4,923.9,706,923.7z"/>
					<path class="st5" d="M679.5,927.2c6.4-1,12.3-1.8,17.4-2.5c-3.2-15.7-7.6-30.7-12.3-46c-4.6,0.6-10,1.3-16,2.1
						C673.2,896.3,677,911.7,679.5,927.2z"/>
					<path class="st5" d="M671,928.6c-2.6-15.7-4.5-31.5-8.7-47c-27.5,3.7-64.4,8.9-93.5,14.3c5.1,16,5.5,33.1,7.3,49.3
						C604.2,940,641.8,933.2,671,928.6z"/>
					<path class="st5" d="M553.3,949.5c4.1-0.8,8.8-1.7,14.1-2.6c-1.7-16.7-5.3-32.8-9.3-48.9c-4.2,0.8-8.2,1.7-11.8,2.5
						C548.9,916.6,551.3,933.2,553.3,949.5z"/>
					<path class="st4" d="M553.3,949.5c-2-16.3-4.4-32.9-7-49c-3.3,0.8-6.4,1.5-9.1,2.3c3.7,16,6.7,32,9.5,48
						C548.6,950.4,550.9,949.9,553.3,949.5z"/>
					<path class="st5" d="M537.2,902.7c-4.1,1.1-7.5,2.2-10,3.3c0,0-4.1,24.1,9.6,46.6c0,0,3.7-0.7,9.9-1.9
						C543.9,934.7,540.9,918.7,537.2,902.7z"/>
					<path class="st4" d="M568.8,895.9c-3.7,0.7-7.3,1.4-10.7,2.1c4,16.1,7.6,32.2,9.3,48.9c2.8-0.5,5.7-1.1,8.8-1.6
						C574.4,928.9,573.9,911.9,568.8,895.9z"/>
					<path class="st4" d="M679.5,927.2c-2.5-15.5-6.3-31-10.8-46.5c-2,0.3-4.2,0.5-6.3,0.8c4.2,15.5,6.1,31.3,8.7,47
						C673.9,928.1,676.8,927.6,679.5,927.2z"/>
					<path class="st6" d="M612.9,951.3c-22.8,0-38.7-17.2-38.7-40s18.5-43,41.3-43c22.8,0,41.3,20.2,41.3,43
						S635.7,951.3,612.9,951.3z"/>
					<path class="st7" d="M615.4,945.2c-18.7,0-35.4-14-35.4-32.7c0-18.7,16.7-36.8,35.4-36.8c18.7,0,33.8,17,33.8,35.7
						S634.1,945.2,615.4,945.2z"/>
					<line class="st8" x1="609.5" y1="879.4" x2="610.8" y2="887.2"/>
					<line class="st8" x1="617.1" y1="933.7" x2="618.4" y2="941.5"/>
					<line class="st8" x1="644.7" y1="904.2" x2="637" y2="905.9"/>
					<line class="st8" x1="590.9" y1="915" x2="583.2" y2="916.7"/>
					<line class="st8" x1="627.2" y1="882.1" x2="624" y2="889.2"/>
					<line class="st8" x1="603.9" y1="931.6" x2="600.7" y2="938.8"/>
					<line class="st8" x1="643.1" y1="922.1" x2="635.7" y2="919.3"/>
					<line class="st8" x1="592.2" y1="901.6" x2="584.8" y2="898.8"/>
					<line class="st8" x1="639" y1="891.6" x2="632.8" y2="896.5"/>
					<line class="st8" x1="595.1" y1="924.4" x2="588.9" y2="929.3"/>
					<line class="st8" x1="634.2" y1="934.4" x2="629" y2="928.5"/>
					<line class="st8" x1="598.9" y1="892.4" x2="593.7" y2="886.5"/>
					<path class="st6" d="M614.7,913.5c-1.7,0-3.2-1.3-3.2-2.9c0-1.7,1.5-3.3,3.2-3.3c1.7,0,3,1.5,3,3.2
						C617.8,912.2,616.4,913.5,614.7,913.5z"/>
					<path class="st6" d="M613.8,909.4c0,0-2.9-7.2-3-9.2c0,0-1.8,1.1-2.3,0.8c-0.6-0.3,1.6-5.3,3.1-5.4c1.6-0.1,4.9,1.6,4.9,2.4
						c0,0.8-2.9,1.1-2.9,1.1s2.1,8.5,1.8,9.8C615.2,910.3,613.8,909.4,613.8,909.4z"/>
					<path class="st6" d="M614.1,910c0,0,12.3-3.8,14.2-3.8c0,0-1-1.9-0.6-2.4c0.3-0.5,5.2,1.9,5.1,3.5c0,1.6-1.9,4.8-2.8,4.8
						c-0.8-0.1-0.9-3-0.9-3s-13.5,3-14.8,2.6C613,911.3,614.1,910,614.1,910z"/>
				</g>
				<path class="st5" d="M395,672.9c0,0,12.9-11.5,20-12.6c7.1-1,15.4,19.8,18.9,29.6c3.5,9.9-13.4,17.3-19.8,15.7
					C407.7,704,395,672.9,395,672.9z"/>
				<path class="st5" d="M470.5,547.6c4.1,5,18.1,9.5,23.8-1.8c3.2-6.4-2.8-31.9-5.6-34.2c-2.8-2.3-23-0.9-23.3,6.2
					C465,524.9,468.1,544.8,470.5,547.6z"/>
				<path class="st5" d="M519,524.3c4.1,5,18.1,9.5,23.8-1.8c3.2-6.4-2.8-31.9-5.6-34.2c-2.8-2.3-23-0.9-23.3,6.2
					C513.6,501.6,516.7,521.4,519,524.3z"/>
				<path class="st5" d="M574.6,522.6c3.6,4.4,15.7,8.2,20.7-1.6c2.8-5.5-2.4-27.7-4.9-29.7c-2.4-2-20-0.8-20.3,5.4
					C569.9,502.9,572.6,520.2,574.6,522.6z"/>
				<path class="st5" d="M629.5,548c3.1,3.8,13.6,7.1,17.8-1.4c2.4-4.8-2.1-23.9-4.2-25.6c-2.1-1.7-17.2-0.7-17.5,4.7
					C625.4,531,627.7,545.9,629.5,548z"/>
			</g>
			<g>
				<g>
					<path class="st9" d="M706.3,604.4c-3.7-4.5-9.8-11.7-25.4,2c-30.1,26.4-83,64.1-102.1,78.3l0,0c30.4-30.1,88.5-91.8,116.8-120
						c10.9-10.9,6.3-20.7,3.8-23.3c-8.9-9.4-17.3-9.3-36.2,7.8c-34.9,31.6-98.1,84.1-121.1,102.9c23.2-20.7,78.8-81.6,112.6-118.1
						c22.7-24.5,23.3-32.5,10.7-41.9c-9.2-6.9-17.8-2.7-38.7,18.1c-35.4,35.2-95.6,90.2-116.8,110.7c16-17.7,75.1-79.1,103.1-115.9
						c18.7-24.7,13.7-29.8,8.6-34.8c-6.4-6.3-21.9-10.3-44.5,13.9c-44.6,47.6-127.2,129.6-127.2,129.6s42.6-102.9,11.2-114
						c-41.5-14.8-120,226.5-120,226.5S142,933.9-9.4,1080.9l183.3,108.4c0,0,277-324,289-340.8c0,0,59.8-45,92.9-75.9l0,0
						c0,0,94.4-94.1,136.5-138.4C706,619.8,712.2,611.6,706.3,604.4z"/>
					<path class="st10" d="M442.5,873.4L303.4,753.1c0,0-17.3,14.5-45,39.2c51,45.9,99.8,94.4,149.1,142.4
						C424.4,910.5,436.8,889.4,442.5,873.4z"/>
					<path class="st6" d="M407.5,934.7c-49.2-48-98.1-96.4-149.1-142.4c-17.6,15.7-39.5,35.5-63.8,58.3
						c53.7,52.4,104.9,104.7,159.6,153.1C374.4,979.2,392.7,955.8,407.5,934.7z"/>
					<path class="st10" d="M354.2,1003.7C299.6,955.3,248.3,903,194.6,850.6c-23.1,21.7-48.4,46.1-74.4,72.2
						c58.4,49.8,112.1,104.8,168.1,157.3C311.3,1054.5,333.8,1028.6,354.2,1003.7z"/>
					<line class="st10" x1="126.8" y1="1189.4" x2="186.9" y2="1189.4"/>
					<path class="st10" d="M186.9,1189.4c13.3-13.9,27.3-28.7,41.7-44.1c-57.7-51.7-113-106-169.1-159.2
						c-23.3,25.3-46.3,51.3-67.7,77.5c47,39.7,90.3,82.8,135,125.9"/>
					<path class="st6" d="M126.8,1189.4c-44.7-43.1-88-86.1-135-125.9l-0.2,125.9H126.8z"/>
					<path class="st6" d="M288.3,1080.1c-56-52.4-109.7-107.4-168.1-157.3c-20.1,20.2-40.5,41.4-60.7,63.2
						c56,53.2,111.3,107.5,169.1,159.2C248.2,1124.4,268.4,1102.3,288.3,1080.1z"/>
				</g>
				<g>
					<path class="st5" d="M439.2,499.6c0,0,16.9,3.8,21.9,9c5,5.2-7.1,24.1-13.1,32.7c-6,8.6-21.9-0.8-24.3-7
						C421.3,528.1,439.2,499.6,439.2,499.6z"/>
					<path class="st5" d="M585,488c-1.7,6.3,2.9,20.2,15.4,18.3c7-1.1,24.3-20.8,24.5-24.5c0.2-3.6-12.6-19.2-18.6-15.3
						C600.3,470.3,585.9,484.4,585,488z"/>
					<path class="st5" d="M632.2,513.9c-1.7,6.3,2.9,20.2,15.4,18.3c7-1.1,24.3-20.8,24.5-24.5c0.2-3.6-12.6-19.2-18.6-15.3
						C647.5,496.2,633.2,510.3,632.2,513.9z"/>
					<path class="st5" d="M666,558.1c-1.4,5.5,2.5,17.6,13.3,15.9c6.1-1,21.1-18.1,21.3-21.2c0.2-3.1-11-16.7-16.2-13.3
						C679.2,542.8,666.8,555,666,558.1z"/>
					<path class="st5" d="M677.3,617.5c-1.2,4.7,2.1,15.2,11.5,13.7c5.3-0.8,18.2-15.6,18.4-18.3c0.2-2.7-9.5-14.4-14-11.5
						C688.7,604.3,678,614.8,677.3,617.5z"/>
				</g>
				<path class="st7" d="M560.6,639.3c0,0,19.3,29.4,31.7,34.5c0,0,5.9-2.3,7.3-7.6c0,0-26.5-27.3-30.8-35
					C568.8,631.3,562.4,631.2,560.6,639.3z"/>
			</g>
			<g>
				<g>
					<path class="st11" d="M670.6,543.9c-3.1-12.5-10.4-16.7-35.3-11.2c-46,10.1-126.9,24.2-156.3,29.1
						c30.4-6.4,109-31.6,156.4-46.5c31.9-10,36.4-16.6,30.1-31c-4.6-10.5-14.1-11.1-42.6-3.5c-48.2,13-127.8,30.7-156.4,38
						c22.7-7.4,104.5-31.3,147.1-49.3c28.5-12.1,26.7-19,24.8-26c-2.4-8.7-13.9-19.8-45.6-10.1c-62.4,19.2-174.8,49.2-174.8,49.2
						s88.1-68.1,66.4-93.4C455.9,355.7,267.7,526,267.7,526S195,550.9-9.4,603.1l1,205.9c0,0,302.3-107.6,321.1-116.2
						c0,0,74.3-9.3,118.3-19.7l0,0c0,0,128.7-34.7,187.2-52.2c19.1-5.7,28.6-9.8,27.1-19c-1-5.8-2.7-15-23.1-10.9
						c-39.2,8-103.9,14.4-127.5,17.1c41.4-11,122.4-35.6,161-46.1C670.6,558.2,671.4,547.4,670.6,543.9z"/>
					<path class="st12" d="M127.8,558.2c-2.6-2.9-63.7,14.8-136.1,33v242.8c73.7-24.6,148.8-58.4,198.4-90.1
						C190,743.8,132.5,575.4,127.8,558.2z"/>
				</g>
				<path class="st13" d="M465.6,378.3c0,0,12.8,11.7,14.5,18.6c1.7,7-18.1,17.4-27.6,21.8c-9.5,4.5-18.6-11.5-17.6-18.1
					C435.9,394.1,465.6,378.3,465.6,378.3z"/>
				<path class="st13" d="M597.9,440.7c-4.6,4.6-7.6,19,4.2,23.5c6.7,2.5,31.5-6,33.5-9c2-3-1.4-22.9-8.6-22.6
					C619.9,433,600.5,438.1,597.9,440.7z"/>
				<path class="st13" d="M626,486.7c-4.6,4.6-7.6,19,4.2,23.5c6.7,2.5,31.5-6,33.5-9c2-3-1.4-22.9-8.5-22.6
					C648,478.9,628.6,484,626,486.7z"/>
				<path class="st13" d="M633.3,541.8c-4,4-6.6,16.5,3.7,20.4c5.8,2.2,27.3-5.2,29.1-7.8c1.7-2.6-1.2-19.9-7.4-19.6
					C652.4,535.1,635.5,539.5,633.3,541.8z"/>
				<path class="st13" d="M613.6,598.9c-3.4,3.5-5.7,14.2,3.2,17.6c5,1.9,23.6-4.5,25-6.8c1.5-2.3-1.1-17.2-6.4-16.9
					S615.5,597,613.6,598.9z"/>
				<path class="st14" d="M127.8,558.2c0,0,40.5-31.3,62.3-19.4c0,0,50.7,157.1,61.2,182.9c0,0-30.1,21.6-61.2,22.1
					C190,743.8,133.4,602.3,127.8,558.2z"/>
			</g>
			<g>
				<g>
					<path class="st15" d="M674.7,256.1c0,0-83.7-10.3-194.2-55.4c0,0,4.4-7,7.9-13.6c0,0,71.5,32.5,186.7,52.7
						C675.2,239.8,677.4,252,674.7,256.1z"/>
					<path class="st15" d="M677,220.9c0,0-84.3-4.1-197.7-41c0,0,3.8-7.3,6.9-14.1c0,0,73.7,27.2,190.1,38.8
						C676.3,204.6,679.4,216.6,677,220.9z"/>
					<path class="st16" d="M716.8-1.2H524.3c-17.3,106.1-31.3,193-31.9,201.1c0,0-28,69.4-40.3,112.9l0,0c0,0-32.3,129.3-45.4,189
						c-4.3,19.5-5.4,29.8,3.4,32.9c5.5,2,14.5,4.9,20.7-14.9c12.1-38.1,38-97.7,47.1-119.8l0,0c-10.5,41.5-28.4,124.3-38.1,163.1
						c-3.7,14.9,5.3,20.9,8.8,21.9c12.4,3.4,19.6-1,27-25.4c13.6-45.1,40.6-122.7,50.6-150.7c-9.2,29.7-25.4,110.6-35.5,159.3
						c-6.8,32.7-3.2,39.9,12.4,41.4c11.4,1.1,16.6-6.9,23.7-35.5c12.1-48.4,35.3-126.7,42.9-155.1c-4.5,23.4-23.5,106.6-28.4,152.5
						c-3.3,30.8,3.7,32.6,10.6,34.3c8.7,2.2,24-2.5,31-34.9c13.6-63.8,42.1-176.6,42.1-176.6s16.7,110.1,49.3,103.4
						c43.1-8.8-14.1-255.9-14.1-255.9S685.1,132,716.8-1.2z"/>
					<path class="st17" d="M483.3,164.5c0,0,86.8,3,199.8,41.4c0,0,1.1,8.3-6.1,15c0,0-81.5-27.8-197.7-41
						C479.3,180,476.2,172.3,483.3,164.5z"/>
					<path class="st17" d="M485.7,185.6c0,0,86.4,9.4,196.2,55.9c0,0,0.5,8.3-7.2,14.5c0,0-79.2-33.7-194.2-55.4
						C480.5,200.7,478,192.9,485.7,185.6z"/>
					<path class="st18" d="M500.2-1.2c-7.4,58.4-10,91.6-7.3,137.8l191.6,51.7c10.6-2.4,33.7-72.2,61.8-189.5L500.2-1.2z"/>
				</g>
				<path class="st19" d="M692.9,486.5c0,0-16.4,5.5-23.3,3.6c-6.9-1.9-6.4-24.3-5.7-34.7c0.7-10.4,19.1-10.6,24.4-6.6
					C693.5,452.9,692.9,486.5,692.9,486.5z"/>
				<path class="st19" d="M574,571.7c-1.8-6.2-12.9-15.9-22.6-7.7c-5.5,4.6-10.1,30.4-8.4,33.6c1.7,3.2,20.7,9.9,23.9,3.5
					C570.1,594.7,575.1,575.3,574,571.7z"/>
				<path class="st19" d="M520.2,573.9c-1.8-6.2-12.9-15.9-22.6-7.7c-5.5,4.6-10.1,30.4-8.4,33.6c1.7,3.2,20.7,9.9,23.9,3.5
					C516.3,596.9,521.2,577.5,520.2,573.9z"/>
				<path class="st19" d="M468.5,553.4c-1.6-5.4-11.2-13.8-19.6-6.7c-4.7,4-8.8,26.4-7.3,29.2c1.5,2.8,18,8.6,20.8,3.1
					C465.1,573.4,469.4,556.5,468.5,553.4z"/>
				<path class="st19" d="M428.1,508.5c-1.4-4.7-9.7-11.9-16.9-5.8c-4.1,3.4-7.5,22.8-6.3,25.2c1.3,2.4,15.5,7.4,17.9,2.6
					C425.2,525.7,428.9,511.1,428.1,508.5z"/>
				<g>
					<defs>
						<path id="SVGID_3_" d="M500.2-1.2c-7.4,58.4-10,91.6-7.3,137.8l191.6,51.7c10.6-2.4,33.7-72.2,61.8-189.5L500.2-1.2z"/>
					</defs>
					<clipPath id="SVGID_4_">
						<use xlink:href="#SVGID_3_"  style="overflow:visible;"/>
					</clipPath>
					<g class="st20">
						<path class="st7" d="M627.2,52c-1.9,0.5-4,0.3-5.9-0.8l-43.2-25.1c-3.7-2.1-4.9-6.9-2.8-10.5c2.1-3.7,6.9-4.9,10.5-2.8
							l43.2,25.1c3.7,2.1,4.9,6.9,2.8,10.5C630.8,50.3,629.1,51.5,627.2,52z"/>
						<path class="st7" d="M546.9,141.1c0.6-1.9,1.8-3.6,3.7-4.6l43.8-24.1c3.7-2.1,8.4-0.7,10.5,3c2.1,3.7,0.7,8.4-3,10.5
							L558,150.1c-3.7,2.1-8.4,0.7-10.5-3C546.5,145.1,546.3,143,546.9,141.1z"/>
						<path class="st7" d="M671.3,41.9c0.6-1.9,1.8-3.6,3.7-4.6l43.8-24.1c3.7-2.1,8.4-0.7,10.5,3c2.1,3.7,0.7,8.4-3,10.5
							l-43.8,24.1c-3.7,2.1-8.4,0.7-10.5-3C670.9,45.9,670.8,43.8,671.3,41.9z"/>
						<path class="st7" d="M475.3,101.7c0.6-1.9,1.8-3.6,3.7-4.6L522.8,73c3.7-2.1,8.4-0.7,10.5,3c2.1,3.7,0.7,8.4-3,10.5
							l-43.8,24.1c-3.7,2.1-8.4,0.7-10.5-3C474.9,105.7,474.8,103.5,475.3,101.7z"/>
						<path class="st7" d="M535.8-38.7c1.3,1.5,2.1,3.4,2,5.6l-2.6,49.9c-0.2,4.3-3.8,7.5-8.1,7.3c-4.3-0.2-7.5-3.8-7.3-8.1
							l2.6-49.9c0.2-4.3,3.8-7.5,8.1-7.3C532.6-41.1,534.5-40.1,535.8-38.7z"/>
						<path class="st7" d="M682.6,104.9c0.8,1.8,0.9,3.9,0.1,5.9l-18.1,46.6c-1.5,4-6,5.9-10,4.4c-4-1.5-5.9-6-4.4-10l18.1-46.6
							c1.5-4,6-5.9,10-4.4C680.3,101.6,681.8,103.1,682.6,104.9z"/>
					</g>
				</g>
			</g>
			<g>
				<path class="st21" d="M565.1,447.7c-52.4-38.9-143.2-111.7-143.2-111.7s107,30.6,114.6-1.9c10-42.9-238.7-93.5-238.7-93.5
					S154.2,132.5-9.1-1.2v244.8c0,0,181,122.2,199.1,132.3c0,0,51.5,54.3,86,83.6l0,0c0,0,104.2,83.1,153,119.8
					c15.9,12,24.9,17.3,31.3,10.6c4.1-4.2,10.5-11.1-4.9-25.1c-29.6-26.9-73.1-75.1-89.4-92.6l0,0c33.3,26.8,101.2,77.5,132.5,102.4
					c12,9.6,21.2,3.9,23.6,1.1c8.3-9.9,7.3-18.3-11.9-35.1c-35.4-31.1-94.7-87.9-116-108.6c23.2,20.7,90.1,69,130.1,98.4
					c26.9,19.8,34.9,19.5,42.8,5.9c5.8-9.9,0.6-18-22.4-36.3c-39-31.1-100.5-84.7-123.3-103.5c19.4,13.9,87.2,65.6,126.9,89.2
					c26.6,15.8,31.1,10.2,35.6,4.6C589.6,483.4,591.7,467.5,565.1,447.7z"/>
				<path class="st22" d="M534,312.6c0,0-1.8,17.2-6.4,22.7c-4.6,5.5-24.7-4.3-33.9-9.3c-9.2-5-1.7-21.8,4.1-24.9
					C503.7,298,534,312.6,534,312.6z"/>
				<path class="st22" d="M562.2,456.1c-6.4-0.9-19.8,5.1-16.4,17.3c1.9,6.9,23.5,21.8,27.1,21.6c3.6-0.2,17.6-14.7,13.1-20.3
					C581.4,469.2,565.8,456.6,562.2,456.1z"/>
				<path class="st22" d="M541.8,505.9c-6.4-0.9-19.8,5.1-16.4,17.3c1.9,6.9,23.5,21.8,27.1,21.6c3.6-0.2,17.6-14.7,13.1-20.3
					C561.1,519.1,545.4,506.5,541.8,505.9z"/>
				<path class="st22" d="M501.7,544.5c-5.6-0.8-17.2,4.5-14.3,15.1c1.6,6,20.4,18.9,23.5,18.8c3.2-0.2,15.3-12.8,11.4-17.6
					C518.4,555.9,504.8,544.9,501.7,544.5z"/>
				<path class="st22" d="M444,562.5c-4.8-0.7-14.8,3.8-12.3,13c1.4,5.1,17.6,16.3,20.3,16.2c2.7-0.1,13.2-11,9.8-15.2
					C458.4,572.3,446.7,562.9,444,562.5z"/>
				<g>
					<defs>
						<path id="SVGID_5_" d="M460.3,589.8c4.1-4.2,10.5-11.1-4.9-25.1c-29.6-26.9-73.1-75.1-89.4-92.6l0,0
							c33.3,26.8,101.2,77.5,132.6,102.4c12,9.6,21.2,3.9,23.6,1.1c8.3-9.9,7.3-18.3-11.9-35.1c-35.4-31.1-94.7-87.9-116-108.6
							c23.2,20.7,90.1,69,130.1,98.4c26.9,19.8,34.9,19.5,42.8,5.9c5.8-9.9,0.6-18-22.4-36.3c-39-31.1-100.5-84.7-123.3-103.5
							c19.4,13.9,87.2,65.6,126.9,89.2c26.6,15.8,31.1,10.2,35.6,4.6c5.6-7,7.7-22.9-18.9-42.7c-52.4-38.9-143.2-111.7-143.2-111.7
							s107,30.6,114.6-1.9c10-42.9-238.7-93.5-238.7-93.5S154.9,132.5-8.4-1.2l-0.7,244.8c0,0,181,122.2,199.1,132.3
							c0,0,51.5,54.3,86,83.6l0,0c0,0,104.2,83.1,153,119.8C444.9,591.3,453.8,596.5,460.3,589.8z"/>
					</defs>
					<clipPath id="SVGID_6_">
						<use xlink:href="#SVGID_5_"  style="overflow:visible;"/>
					</clipPath>
					<g class="st23">
						<g>
							<g>
								<path class="st6" d="M-59-70c12.4,8.4,23.2-13.3,26.3-21.9c2.3-6.4,3.7-13,6.1-19.3c4.4-11.4,3.9-20.5-8.8-25.3
									c-2.3-0.9-0.7-4.4,1.6-3.5c23.8,9,10.2,32.4,4.7,49.7C-32.9-78.8-46.5-56.9-61.4-67C-63.5-68.4-61-71.3-59-70L-59-70z"/>
							</g>
							<g>
								<path class="st6" d="M-56.6-118.9c1.5,3.2-2.4,9.1-3.8,11.6c-3.3,6.3-8.8,13-15.4,16.1c-17.1,7.8-28.6-2.3-27.6-20
									c1.1,0.5,2.3,1,3.4,1.5c-13.3,17.4-40.4-1.6-28.7-19.3c0.9,0.9,1.7,1.9,2.6,2.8c-26.9,17.7-45.8-28.3-16.9-37.7
									c2.3-0.8,3.7,2.8,1.3,3.6c-23.6,7.6-8.6,45.4,13.3,30.9c1.9-1.3,3.8,1,2.6,2.8c-5,7.6,0.9,16.3,7.9,20
									c5.4,2.8,11.7-1.4,14.9-5.5c1.3-1.7,3.5-0.3,3.4,1.5c-0.4,6.6,0.2,13.6,6.7,17.4c7.9,4.6,18.2-2.5,23.4-7.9
									c2-2.1,10.9-13.1,9.3-16.6C-61.3-119.8-57.7-121.1-56.6-118.9L-56.6-118.9z"/>
							</g>
							<g>
								<path class="st6" d="M-124.3-109c-6.1,8.4-16,11.2-25,5.8c0.9-0.8,1.7-1.6,2.6-2.4c2.5,6.6-1.6,15.3-8.1,18
									c-10.8,4.4-22.9-1.2-27.8-11.6c-13.8-29.7-0.7-68.6,32.2-77.1c2.4-0.6,3.7,3,1.3,3.6c-21.6,5.6-33.3,23.5-35,45.2
									c-1,12.8,2.2,29.3,14.2,36.1c8.3,4.7,23.7-1.7,19.5-12.8c-0.5-1.4,1.1-3.3,2.6-2.4c7.7,4.6,15.4,2.3,20.5-4.7
									C-125.8-113.5-122.8-111-124.3-109L-124.3-109z"/>
							</g>
							<g>
								<path class="st6" d="M-75.5-91.6c-16.5,37.1-69.4,41.6-89.2,4.8c-1.2-2.2,2-4.4,3.1-2.2C-143.2-55-94.3-58.7-79-93.2
									C-78-95.5-74.4-93.9-75.5-91.6L-75.5-91.6z"/>
							</g>
							<g>
								<path class="st6" d="M-94.9-91.2c-3.7,2-6.4,5-8.6,8.6c-0.8,1.2-2.3,1.6-3.3,0.3c-5.9-7.6-15.2-6.4-22.3-1.2
									c-1.2,0.9-2.8,0-3-1.4c-1.3-7.1-9-10.2-15.2-11.4c-2.4-0.5-1.8-4.3,0.6-3.8c8.1,1.6,16.8,5.8,18.4,14.8c-1-0.5-2-0.9-3-1.4
									c8.9-6.5,20.4-7.3,27.7,2.1c-1.1,0.1-2.2,0.2-3.3,0.3c2.5-4.1,5.5-7.9,9.9-10.2C-95-95.5-92.7-92.4-94.9-91.2L-94.9-91.2z"
									/>
							</g>
							<g>
								<path class="st6" d="M-97.3-70.1c5.8,5.5,11.9,10.8,20,12.2C-67-56.2-63.6-67.8-59-74.3c3.9-5.5,8.8-9.6,13.9-14
									c13.6-11.9-2.5-21.5-14.6-23.6c-2.4-0.4-1.8-4.2,0.6-3.8c9.9,1.7,21.2,6.4,24,17.2c2.1,8.4-12.1,17-16.7,21.4
									c-7.1,6.9-9.7,21.8-21.6,22.9c-10.6,1-19.1-6-26.3-12.9C-101.5-68.8-99.1-71.8-97.3-70.1L-97.3-70.1z"/>
							</g>
							<g>
								<path class="st6" d="M-66-58.8c0.1,9.1-4.3,17.2-10.8,23.4c-9.3,8.8-19.8,9-30.2,3.1c-13.3-7.5-21.8,4.1-34.6,2.4
									c-9.7-1.3-17.6-9.2-17.6-19.3c0-2.5,3.8-2.9,3.8-0.4c-0.1,13.2,12.6,17.7,23.3,14c6.9-2.4,12.9-4.7,20.2-3
									c9.3,2.1,13.3,9.1,23.9,5.5c10.2-3.4,18.1-14.6,18-25.3C-69.8-60.9-66-61.3-66-58.8L-66-58.8z"/>
							</g>
							<g>
								<path class="st6" d="M-137.2-65.2c-8.2,20.6-35.6,24.8-42.8,1c-2-6.5-2.1-9.7-8.4-13.2c-5-2.8-10.6-6.7-13.2-12
									c-6.5-13.5,2.2-29.6,14.6-36.3c2.2-1.2,4.4,2,2.2,3.1c-14.4,7.7-21,26.7-7.3,38.2c4.3,3.6,11.5,4.8,13.7,10.4
									c4.4,11.2,4.7,23.5,21.1,22.7c7.9-0.4,14-8.8,16.6-15.5C-139.8-69.1-136.3-67.5-137.2-65.2L-137.2-65.2z"/>
							</g>
							<g>
								<path class="st6" d="M-143.9-54.6c-11.8,6.8-20.5-0.6-25.9-11.2c-2.6-5-5.1-10-8.5-14.5c-4-5.4-10.4-8.5-14.6-13.7
									c-4.6-5.6-7.9-11.8-6.8-19.2c0.4-2.5,4.2-1.8,3.8,0.6c-2.4,15.4,16.7,23.6,23.9,34.8c5.9,9.2,11.3,28.5,25.8,20.1
									C-144-59-141.8-55.9-143.9-54.6L-143.9-54.6z"/>
							</g>
							<g>
								<path class="st6" d="M-175.9-57.4c-11.2-0.1-20.3-3.7-27.7-11.9c-5.2-5.7-8.9-13.2-10.7-20.6c-1.6-6.3,0.7-12.5-0.4-18.9
									c-2.4-13.6-4.2-28,8.3-37.6c7.4-5.7,17.3-7.7,25.8-3.1c2.2,1.2,0.7,4.5-1.6,3.5c-11.8-5.1-17.4-17.5-17.8-29.7
									c-0.5-14.9,10.5-23.7,24-26.3c2.4-0.5,2.8,3.4,0.4,3.8c-15,2.8-21.8,13.1-20.1,27.9c1,8.7,7,17.2,15.1,20.8
									c-0.5,1.2-1,2.3-1.6,3.5c-8.1-4.3-17.2-1.8-23.7,4.3c-10.9,10.3-6.2,23.8-4.5,36.4c0.4,3.2-0.1,6-0.7,9.1
									c-1.4,6.7,4,15.3,7.4,20.5c6.3,9.6,16.6,14.3,27.4,14.4C-173.8-61.2-173.4-57.3-175.9-57.4L-175.9-57.4z"/>
							</g>
							<g>
								<path class="st6" d="M-185-135.7c-2.8,0.2-5.4,0.1-8.1,0.7c-2.9,0.6-5.7,1.6-8.5,2.3c-0.5,0.1-0.8-0.6-0.3-0.8
									c5-2,11.5-4.3,16.9-2.9C-184.6-136.3-184.6-135.7-185-135.7L-185-135.7z"/>
							</g>
							<g>
								<path class="st6" d="M-186.2-128.2c-1.2,0.9-2.7,1.3-4.1,2c-2.3,1.1-4.3,2.4-6.1,4.1c-0.5,0.5-1.2-0.1-0.8-0.7
									c1.2-1.6,2.9-2.6,4.6-3.5c1.9-1,4.1-1.4,6-2.5C-186.3-128.9-185.9-128.4-186.2-128.2L-186.2-128.2z"/>
							</g>
							<g>
								<path class="st6" d="M-158.5-168.4c-15.7,12.7-13.8,35.1-3.9,50.3c0.4,0.7-0.5,1.3-1,0.7c-6.1-8-9.1-17.6-8.5-27.7
									c0.5-7.9,6.1-19.6,13.1-23.8C-158.5-169-158.2-168.6-158.5-168.4L-158.5-168.4z"/>
							</g>
							<g>
								<path class="st6" d="M-156.5-165.3c-2.7,2.5-4.2,7.1-5.1,10.6c-1,3.8-1.2,7.6-0.3,11.3c0.2,0.7-0.8,1.1-1,0.4
									c-1.7-4.1-0.8-8.9,0.4-13c1-3.4,2.6-7.9,5.6-10C-156.6-166.4-156.1-165.7-156.5-165.3L-156.5-165.3z"/>
							</g>
							<g>
								<path class="st6" d="M-92-154.6c0.1,3.9-3,7.9-4.6,11.4c-2.7,5.6-6.4,10.8-10.6,15.3c-0.5,0.5-1.2-0.1-0.8-0.6
									c3-4.5,6.5-8.6,9.3-13.4c2.1-3.7,5.3-8.5,6-12.7C-92.7-155-92-155-92-154.6L-92-154.6z"/>
							</g>
							<g>
								<path class="st6" d="M-103.5-154.1c-2.2,4.6-5.3,8.4-8.9,12c-0.4,0.4-1-0.1-0.6-0.5c3.2-3.8,6.5-7.4,8.9-11.8
									C-104-154.8-103.3-154.5-103.5-154.1L-103.5-154.1z"/>
							</g>
							<g>
								<path class="st6" d="M-79.9-150.4c-0.8,15.1-1.7,28.5-10.5,41.6c-0.3,0.5-1.1,0-0.9-0.5c3.4-7.1,7-14,8.9-21.6
									c1.6-6.5,1.2-13,1.7-19.5C-80.7-151-79.9-150.9-79.9-150.4L-79.9-150.4z"/>
							</g>
							<g>
								<path class="st6" d="M-119.7-63.9c1-2.5,1.2-4.8,1.1-7.5c-0.1-2.1-0.7-4.5-0.2-6.5c0.1-0.3,0.5-0.4,0.6-0.1
									c0.7,2.4,0.6,5.4,0.6,7.9c0,2.3-0.3,4.7-1.5,6.6C-119.3-63.1-119.9-63.5-119.7-63.9L-119.7-63.9z"/>
							</g>
							<g>
								<path class="st6" d="M-126.6-63.4c-6.7-1.3-13.4-10.4-14-16.8c0-0.5,0.7-0.6,0.8-0.2c2.2,7.3,6.8,12.7,13.3,16.6
									C-126.2-63.7-126.3-63.3-126.6-63.4L-126.6-63.4z"/>
							</g>
							<g>
								<path class="st6" d="M-108.6-66.7c0.3-1.8,0.7-3.7,0.9-5.5c0.2-2.1,0.1-4.1,0.2-6.2c0-0.3,0.6-0.4,0.7-0.1
									c1,3.8-0.1,8.2-1.1,11.9C-108-66.2-108.7-66.3-108.6-66.7L-108.6-66.7z"/>
							</g>
							<g>
								<path class="st6" d="M-76.5-91.9c4.3,0.7,9.5,4.6,11.2,8.6c0.2,0.4-0.4,0.9-0.7,0.5c-3.2-3.4-5.9-6.8-10.7-8.1
									C-77.2-91-77.1-92-76.5-91.9L-76.5-91.9z"/>
							</g>
							<g>
								<path class="st6" d="M-84.5-78.3c2.6,5.4,5.9,9.9,11,13.2c0.6,0.4,0,1.2-0.6,1c-5.5-2.5-9-8.6-11.2-13.9
									C-85.6-78.6-84.8-78.8-84.5-78.3L-84.5-78.3z"/>
							</g>
							<g>
								<path class="st6" d="M-81.9-82.3c0.6,1.6,1.8,2.5,3.2,3.6c1.2,0.9,3.1,1.7,4,2.9c0.2,0.3-0.1,0.7-0.5,0.6
									c-1.8-0.6-3.7-2.4-5.1-3.7c-0.8-0.7-2.5-2.2-1.9-3.4C-82.2-82.4-82-82.4-81.9-82.3L-81.9-82.3z"/>
							</g>
							<g>
								<path class="st6" d="M-66.8-98.4c2.9,0.4,6.1,1.4,8,3.7c0.3,0.4-0.3,1-0.7,0.6c-1.1-1.1-2.3-1.9-3.7-2.5
									c-1.2-0.5-2.6-0.7-3.8-1.2C-67.4-97.9-67.2-98.4-66.8-98.4L-66.8-98.4z"/>
							</g>
							<g>
								<path class="st6" d="M-104.3-65c-0.5,4.8,0.4,9.2,2.2,13.7c1.5,3.7,4.1,6.9,5.6,10.5c0.2,0.5-0.4,0.7-0.7,0.4
									c-5.4-6.1-9.7-16.5-7.9-24.7C-105-65.7-104.3-65.6-104.3-65L-104.3-65z"/>
							</g>
							<g>
								<path class="st6" d="M-110-63.2c-1.5,6.3-1.1,12,1.3,18.1c0.2,0.5-0.5,0.8-0.7,0.4c-3.1-4.5-3.7-13.8-0.9-18.6
									C-110.3-63.5-109.9-63.4-110-63.2L-110-63.2z"/>
							</g>
							<g>
								<path class="st6" d="M-135.1-63.8c4.2,3.1,5.7,9.7,6.5,14.6c0.1,0.6-0.9,0.8-1.1,0.2c-1.6-4.9-2.1-10.6-5.9-14.3
									C-135.8-63.5-135.4-64-135.1-63.8L-135.1-63.8z"/>
							</g>
							<g>
								<path class="st6" d="M-138.1-63.9c1.7,4.2,4.2,9.3,3.9,13.9c0,0.5-0.9,0.5-0.9,0c-0.1-3.1-1-5.9-2-8.8
									c-0.4-1.3-2.1-3.7-1.4-5.1C-138.4-64.1-138.2-64-138.1-63.9L-138.1-63.9z"/>
							</g>
							<g>
								<path class="st6" d="M-163.9-85.6c-0.2,0.4-0.5,0.6-0.9,0.9c-0.9,0.7-1.4,1.8-1.8,2.8c-0.7,1.8-0.8,3.7-1.2,5.6
									c-0.1,0.7-1.1,0.6-1.2,0c-0.3-2.2,0.5-4.7,1.3-6.6c0.5-1.1,2.1-3.8,3.6-2.9C-163.9-85.9-163.9-85.7-163.9-85.6L-163.9-85.6z
									"/>
							</g>
							<g>
								<path class="st6" d="M-161.9-83.6c0.3,0.3,0.4-0.4,0.3,0.3c0,0.2-0.1,0.4-0.1,0.6c-0.2,0.9-0.3,1.8-0.4,2.7
									c0,1.6,0.4,3.2,0.3,4.8c0,0.4-0.7,0.5-0.8,0.1c-0.7-1.9-0.8-4.2-0.5-6.1c0.1-0.6,0.5-3.3,1.4-3.2c0.4,0,0.4,0.6,0.1,0.7
									C-161.7-83.6-161.8-83.6-161.9-83.6C-161.9-83.6-161.9-83.6-161.9-83.6L-161.9-83.6z"/>
							</g>
							<g>
								<path class="st6" d="M-158.7-57.7c1.9-3.4,2.5-6.8,3.3-10.6c0.1-0.5,0.9-0.5,1,0c0.2,3.8-1.4,7.9-3.5,11
									C-158.3-56.9-158.9-57.3-158.7-57.7L-158.7-57.7z"/>
							</g>
							<g>
								<path class="st6" d="M-191.1-96.4c0-1.2,1.5-2.2,2.3-2.8c1.2-0.8,2.6-1.5,4.1-1.7c0.8-0.1,0.9,1.1,0.1,1.2
									c-1.1,0.1-2.2,0.7-3.2,1.2c-1.1,0.6-1.8,1.4-2.6,2.2C-190.6-96-191.1-96-191.1-96.4L-191.1-96.4z"/>
							</g>
							<g>
								<path class="st6" d="M-166-169.6c-6.2-7.1-12.8-11-22.2-12.4c-0.6-0.1-0.5-0.9,0-1c8.1-0.9,19.6,5.5,22.9,13
									C-165.1-169.5-165.7-169.3-166-169.6L-166-169.6z"/>
							</g>
							<g>
								<path class="st6" d="M-169.2-165.6c-3.4-3.4-7.3-4.2-11.8-5.7c-0.4-0.1-0.3-0.9,0.1-0.9c4.1,0,10,2.5,12.2,6
									C-168.3-165.8-168.8-165.3-169.2-165.6L-169.2-165.6z"/>
							</g>
							<g>
								<path class="st6" d="M-38.9-98.6c1-5.5,0.3-11.6-2.5-16.5c-2.6-4.7-12.5-11.2-18.4-10.9c-2.5,0.1-2.9-3.7-0.4-3.8
									c6.4-0.3,15.8,5.2,19.8,9.8c5.2,6,6.6,14.4,5.3,22.1C-35.5-95.6-39.3-96.2-38.9-98.6L-38.9-98.6z"/>
							</g>
						</g>
						<g>
							<path class="st6" d="M56.3-62.7C56-32.7,23-12.2-4.2-12.3c-27.7-0.2-59.6-22.8-51.9-53.4c0.6-2.4,4.4-1.8,3.8,0.6
								c-7.5,29.8,24.3,48.8,50.2,49C22.1-16,52.2-36.2,52.4-62.3C52.5-64.8,56.3-65.2,56.3-62.7L56.3-62.7z"/>
						</g>
						<g>
							<path class="st6" d="M-57-58.3C-40.8-79-14-62.1-1.7-45.5c1.5,2-1.6,4.1-3.1,2.2C-15.3-55.6,7.1-69.7,16.8-71
								c13.9-1.8,33.3,17.1,32.1,30.9c-0.2,2.5-4,1.8-3.8-0.6c1-11.1-14.2-24-24-26.3c-8.6-2-31.7,11.2-22.9,21.4
								c-1,0.7-2.1,1.5-3.1,2.2C-15.5-57.7-39.8-74-54-55.9C-55.5-54-58.5-56.4-57-58.3L-57-58.3z"/>
						</g>
						<g>
							<path class="st6" d="M13.3-68.2c-4.2-9.9-1-21,7.2-27.6c1.9-1.6,4.1,1.6,2.2,3.1c-6.9,5.6-9.3,14.9-5.8,23.2
								C17.9-67.2,14.3-65.9,13.3-68.2L13.3-68.2z"/>
						</g>
						<g>
							<path class="st6" d="M-22.6-63.2c4.2-5.4,0.6-14.8-1.6-20.1c-0.7-1.6,1.1-3,2.6-2.4c2.8,1.2,5.7,1.9,8.7,2.3
								c3.4,0.5,7.1,0,8.9-3.2c1.1-2.1,0.9-3,2.5-4.9c1-1.2,2.7-0.8,3.3,0.5c2.2,4.9,6.3,11,12.4,10.5c2.5-0.2,2.9,3.6,0.4,3.8
								C6.4-76.1,1-83.1-2-89.7c1.1,0.2,2.2,0.4,3.3,0.5c-1.6,1.9-1.9,4.4-3.5,6.4c-1.7,2.2-4.8,2.9-7.4,3.2
								c-4.5,0.5-9.6-0.9-13.7-2.7c0.9-0.8,1.7-1.6,2.6-2.4c2.8,6.7,6.1,17.2,1,23.9C-21.2-58.8-24.2-61.3-22.6-63.2L-22.6-63.2z"/>
						</g>
						<g>
							<path class="st6" d="M-87-29.9c-2.9,9.1-2.2,19,2,27.5c-1-0.3-1.9-0.6-2.9-0.9c3.8-2.7,7.5-5.4,11.3-8.1
								c0.9-0.7,2.6-0.3,2.9,0.9C-72-4.1-69.7,2-67.2,8.1c1.3,3.1,15.6,29.3,19.2,26.2c15.1-12.8,27.6-32.2,24.4-52.6
								c-0.4-2.5,3.5-2.8,3.8-0.4c3.4,22-10.2,43.3-26.8,56.7c-0.5,0.4-1.3,0.5-1.9,0.2c-16.3-9-24.5-30.2-28.9-47.4
								c1,0.3,1.9,0.6,2.9,0.9c-3.8,2.7-7.5,5.4-11.3,8.1C-86.7,0.6-88,0-88.5-1.1c-4.7-9.4-5.1-20.4-2-30.4
								C-89.7-33.8-86.2-32.3-87-29.9L-87-29.9z"/>
						</g>
						<g>
							<path class="st6" d="M-49.5,36.7c-1.6-34.2-2.9-70.1-11.3-103.5c-0.6-2.4,3-3.7,3.6-1.3c8.4,33.7,9.8,69.8,11.5,104.4
								C-45.6,38.8-49.4,39.1-49.5,36.7L-49.5,36.7z"/>
						</g>
						<g>
							<path class="st6" d="M-63,8.3c-0.7-1.3-1.6-3-1.5-4.6c0.1-0.5,0.8-0.5,0.9-0.1c0.3,0.7,0.4,1.5,0.7,2.3
								c0.2,0.7,0.5,1.4,0.7,2.1C-62.1,8.4-62.8,8.6-63,8.3L-63,8.3z"/>
						</g>
						<g>
							<path class="st6" d="M-65.7-0.3c-0.5-1.2-0.7-2.8-0.9-4.2c-0.1-0.5,0.7-0.7,0.9-0.2c0.4,1.3,0.9,3,0.7,4.3
								C-65.1,0-65.6,0-65.7-0.3L-65.7-0.3z"/>
						</g>
						<g>
							<path class="st6" d="M-61.2-0.7c-0.5-0.7-0.5-1.8-0.6-2.6c0-0.6,0.8-0.7,0.9-0.1c0.1,0.8,0.3,1.6,0.4,2.4
								C-60.4-0.5-60.9-0.4-61.2-0.7L-61.2-0.7z"/>
						</g>
						<g>
							<path class="st6" d="M-20.6-121.9c2.6,3.8,4.6,7.6,6.1,12c1.5,4.3,3.7,8.5,3.7,13.2c0,0.7-1.1,0.8-1.1,0.1
								c-0.8-8.4-5-17.7-9.2-24.9C-21.5-121.8-20.9-122.3-20.6-121.9L-20.6-121.9z"/>
						</g>
						<g>
							<path class="st6" d="M-22.4-111.3c-0.7,2.3,0.2,5.1,0.7,7.3c0.5,2.1,0.8,4.3,1.3,6.4c0.6,2.1,1.6,4.1,2.2,6.2
								c0.1,0.5-0.5,0.8-0.8,0.4c-2.7-3.4-3.4-8.7-4-12.9c-0.3-2.1-1.6-6,0-7.8C-22.8-112-22.3-111.6-22.4-111.3L-22.4-111.3z"/>
						</g>
						<g>
							<path class="st6" d="M-4.3-111.6c0.9,4.7,4.2,8.9,3.8,13.8c-0.1,0.7-1.2,0.7-1.2,0c-0.2-4.9-2.8-8.9-3.5-13.7
								C-5.3-112.1-4.4-112.1-4.3-111.6L-4.3-111.6z"/>
						</g>
						<g>
							<path class="st6" d="M-37-25.6c1.7-7.7,7-15.5,13.9-19.4c0.6-0.3,1.2,0.4,0.6,0.9c-6.4,5.3-10.9,10.8-13.8,18.7
								C-36.4-24.9-37-25.1-37-25.6L-37-25.6z"/>
						</g>
						<g>
							<path class="st6" d="M-28.8-21.5c2-3.8,4.6-8,7.7-11c0.5-0.5,1.2,0.1,0.8,0.7c-2.7,3.5-5,7.5-8,10.7
								C-28.6-20.9-29-21.2-28.8-21.5L-28.8-21.5z"/>
						</g>
						<g>
							<path class="st6" d="M23.1-22.3c0-4.8,0.4-9.3-0.4-14.2c-1-6.2-3.7-11.5-7.3-16.6c-0.4-0.6,0.4-1.3,0.9-0.8
								c4.5,4,6.5,10,7.7,15.7c1,4.5,2.1,11.9-0.7,16C23.3-22.2,23.1-22.2,23.1-22.3L23.1-22.3z"/>
						</g>
						<g>
							<path class="st6" d="M3.9-16c2.3-7.1,2.6-13.4,0-20.5c-0.3-0.7,0.8-1.1,1.1-0.4c2.8,5.8,3.8,15.9-0.5,21.3
								C4.2-15.4,3.8-15.7,3.9-16L3.9-16z"/>
						</g>
						<g>
							<path class="st6" d="M51.4-60.2c-4-6.6-11.7-11-18.4-14.2c-0.6-0.3-0.2-1.2,0.4-1c5.4,2.1,10,5.3,14.2,9.2
								c1.3,1.3,4.3,3.7,4.5,5.7C52.1-60.1,51.6-59.9,51.4-60.2L51.4-60.2z"/>
						</g>
					</g>
					<g class="st23">
						<g>
							<path class="st24" d="M-71.6,246.6c-2.1-4.3,7.8-14.6,10.5-16.8c4.7-3.9,12.9-5.5,17.2-0.2c2.3,2.9,2.4,7.2,2.3,10.7
								c0,1.3,1.9,1.9,2.6,0.8c3.5-4.9,8.8-6.7,14.2-3.1c4.5,3,6.4,9,3.6,13.7c-0.8,1.3,1,2.7,2.2,1.8
								c16.4-11.8,29.1,16.7,11.2,23.2c-1.8,0.7-0.8,3.4,1,2.8c21.9-8,6.1-42.8-13.9-28.4c0.7,0.6,1.4,1.2,2.2,1.8
								c8.3-13.7-13.1-27.3-22.7-13.8c0.9,0.3,1.7,0.6,2.6,0.8c0.3-11.6-6-18.7-17.7-15.9c-5.9,1.4-11,6.9-13.9,11.9
								c-1.3,2.3-5.4,8.5-4,11.5C-73.5,249.2-70.8,248.3-71.6,246.6L-71.6,246.6z"/>
						</g>
						<g>
							<path class="st24" d="M-20.5,239.9c3.7-5.5,9.4-7.6,15.5-4.3c1.1,0.6,2.5-0.7,2-1.8c-3-7,4.8-11.8,10.7-11.4
								c8.6,0.6,12.6,9.6,14.5,16.8c4.4,16.7-1.8,34.7-16.2,44.3c-1.6,1,0.1,3.5,1.7,2.4c18.6-12.3,24.6-39,13-58.3
								c-4.1-6.8-12.6-9.8-19.9-7c-5.2,2-8.8,9-6.5,14.3c0.7-0.6,1.3-1.2,2-1.8c-7.1-3.8-14.6-1.6-19,5.1
								C-23.8,239.6-21.6,241.5-20.5,239.9L-20.5,239.9z"/>
						</g>
						<g>
							<path class="st24" d="M-58,227.4c10.8-27,48.2-31.2,63.1-5.7c1,1.6,3.4,0,2.4-1.7c-16.1-27.5-56.5-22.9-68.2,6.1
								C-61.4,227.9-58.7,229.1-58,227.4L-58,227.4z"/>
						</g>
						<g>
							<path class="st24" d="M-44.1,227.7c3.3-1.9,5.5-4.8,7.3-8.1c-0.8,0.1-1.7,0.1-2.5,0.2c5.8,6.9,14.6,6.2,21.2,0.9
								c-0.7-0.2-1.5-0.5-2.2-0.7c1.5,6.6,8.4,9.6,14.4,10.5c1.9,0.3,2.4-2.6,0.5-2.9c-5.1-0.7-10.9-3-12.1-8.6
								c-0.2-0.9-1.5-1.3-2.2-0.7c-5.2,4.2-12.4,5.5-17.1-0.1c-0.7-0.9-2-0.8-2.5,0.2c-1.6,2.8-3.5,5.3-6.3,6.9
								C-47.4,226.2-45.7,228.6-44.1,227.7L-44.1,227.7z"/>
						</g>
						<g>
							<path class="st24" d="M-86.2,223.8c5.5,2.2,13.5,1,16.3-4.8c2.2-4.5,1.7-9.1,2.3-13.9c1.6-12.3,19.5,1.1,22.9,4.1
								c1.4,1.3,3.3-1,1.9-2.2c-5.4-4.8-16.2-13.6-24-8c-3.2,2.2-3.7,5.1-3.9,8.8c-0.5,8-4.4,17.3-14.2,13.4
								C-86.7,220.5-87.9,223.1-86.2,223.8L-86.2,223.8z"/>
						</g>
						<g>
							<path class="st24" d="M-89.6,217.8c8.7-1.8,15.6-7.4,21.6-13.8c0.8-0.8,2.1-1.9,2-3.1c-0.2-4.8,1.8-9.5,4.5-13.3
								c4.6-6.4,12.7-9.6,19.9-6.2c3,1.4,5.9,3.2,9.2,3.4c4.5,0.2,8.2-1.1,12.3-2.8c8.1-3.4,18.9-1.7,19.3,9.5
								c0.1,1.9,3,1.7,2.9-0.2c-0.4-9.7-9.4-15.6-18.4-13.8c-7.3,1.5-12.3,6.3-20.1,3.2c-4.1-1.6-7.2-3.8-11.7-4
								c-10.4-0.3-18.6,10.9-20.4,20c-0.3,1.3-0.3,2.6-0.3,3.9c0,0.6,0.1,0.5,0.2-0.4c-0.5,0.6-1,1.2-1.6,1.8
								c-5.2,5.8-11.8,11.2-19.6,12.8C-91.7,215.3-91.5,218.2-89.6,217.8L-89.6,217.8z"/>
						</g>
						<g>
							<path class="st24" d="M-11.5,205.3c2.1-6,6.4-11.4,13.1-12.5c13.1-2.3,12.7,11.3,17,18.6c0.7,1.1,2.4,1.7,3.5,2.2
								c4,2,7.6,4.2,10.6,7.7c6.9,8.2-0.9,20.9-8.6,25.4c-1.6,1,0,3.4,1.7,2.4c6.7-3.9,12.5-12,12.2-20.1c-0.2-5.4-2.2-9.2-6.1-12.8
								c-3.7-3.5-10.6-4.4-12-9.6c-2.7-9.7-7.3-16.7-18.4-16.7c-7.4,0-13.3,7.9-15.5,14.2C-14.8,205.9-12.1,207.1-11.5,205.3
								L-11.5,205.3z"/>
						</g>
						<g>
							<path class="st24" d="M-7.6,198.2c9.8-6.2,15.2,5.6,19.2,12.7c5.5,9.5,21.9,15.3,20.5,27.7c-0.2,1.9,2.7,2.4,2.9,0.5
								c0.6-5.5-1.8-9.9-5.3-14.1c-2.4-2.9-5.7-5.1-8.7-7.4c-4.2-3.2-6.7-7.8-9.2-12.3c-4.6-8.3-11.3-15.8-21.1-9.6
								C-10.9,196.8-9.2,199.3-7.6,198.2L-7.6,198.2z"/>
						</g>
						<g>
							<path class="st24" d="M15.5,199.9c7.1-0.2,13.7,1.9,18.7,6.9c3.8,3.7,6.5,8.7,8.3,13.7c1.3,3.6,0.1,7,0.3,10.6
								c0.4,8.6,4.7,15.5,1.3,24.2c-3.2,8.3-13.2,13.3-21.4,9.3c-0.4,0.9-0.8,1.8-1.3,2.7c7.2,2.8,11.3,9.8,12.5,17.1
								c1.9,10.8-5,18.2-15.1,20.4c-1.9,0.4-0.9,3.2,1,2.8c11.1-2.5,17.5-9.9,17.3-21.4c-0.2-8.9-5.9-18.2-14.4-21.5
								c-1.7-0.7-3,1.8-1.3,2.7c6.6,3.2,14,1.5,19.5-2.9c9.5-7.7,7.9-19.1,5.4-29.5c-1.1-4.7,0.6-9.2-0.7-13.8
								c-1.5-5.6-4.4-10.4-8.1-14.9c-5.6-6.9-13.6-9.5-22.3-9.3C13.4,197.1,13.6,200,15.5,199.9L15.5,199.9z"/>
						</g>
						<g>
							<path class="st24" d="M34.7,294.6c17.9,2.7,38.1,1.1,53.9-8.2c0.9-0.5,0.8-1.7,0.1-2.3c-2.2-2.1-4.4-4.2-6.6-6.3
								c-0.3,0.9-0.6,1.7-0.8,2.6c13.7-0.8,24-13.6,29.9-24.6c0.3-0.5,0.1-1.4-0.4-1.8c-18-11.6-43.7-21.2-64.6-12.4
								c-1.7,0.7-0.8,3.5,1,2.8c17.8-7.5,38-0.6,54.3,7.7c2,1,4,2.2,6,3.3c0.5,0.3,1.1,0.6,1.6,1c-1.7-1-6.6,7.9-8.1,9.5
								c-4.6,5.6-12.3,11.1-19.9,11.6c-1.4,0.1-1.7,1.7-0.8,2.6c2.2,2.1,4.4,4.2,6.6,6.3c0-0.8,0.1-1.6,0.1-2.3
								c-15.1,8.8-34.7,10.3-51.7,7.7C33.4,291.5,32.8,294.4,34.7,294.6L34.7,294.6z"/>
						</g>
						<g>
							<path class="st24" d="M25.3,268.5c26.9,9.8,60.7-0.6,85-11.9c1.7-0.8,0.8-3.6-1-2.8c-23.6,11-56.7,21.6-82.8,12.1
								C24.8,265.2,23.5,267.9,25.3,268.5L25.3,268.5z"/>
						</g>
						<g>
							<path class="st24" d="M38.3,345.8c4.1,1.6,8.9,1.5,13.3,1.2c5.8-0.4,11.4-2.1,16.8-4.1c1.9-0.7,5.6-1.2,6.2-3.6
								c3.5-16-9.1-34.4-18-46.1c-1.1-1.5-3.6,0.1-2.4,1.7c8.8,11.6,19.4,27.4,17.7,42.9c-0.4,3.5-15.4,5.7-18.7,6.2
								c-4.2,0.6-9.4,0.9-13.5-0.7C37.8,342.5,36.6,345.1,38.3,345.8L38.3,345.8z"/>
						</g>
						<g>
							<path class="st24" d="M27.5,303.2c11,16.2,27.1,29.3,44.6,37.8c1.7,0.8,3-1.8,1.3-2.7c-17.1-8.3-32.7-21-43.5-36.8
								C28.8,300,26.4,301.6,27.5,303.2L27.5,303.2z"/>
						</g>
						<g>
							<path class="st24" d="M24.5,257.2c4.2,0.9,9.1-1,12.9-2.7c0.4-0.2,0.2-0.8-0.2-0.6c-2,0.6-3.9,1.3-5.9,1.9
								c-2.3,0.6-4.5,0.7-6.8,0.9C24.2,256.7,24.2,257.2,24.5,257.2L24.5,257.2z"/>
						</g>
						<g>
							<path class="st24" d="M25.5,251.3c2.7-1.7,5.9-2.1,7.9-4.9c0.3-0.4-0.3-0.9-0.6-0.5c-1.1,1.2-2.3,2-3.6,2.9
								c-1.3,0.8-2.8,1.2-4,2.1C24.9,251.1,25.2,251.5,25.5,251.3L25.5,251.3z"/>
						</g>
						<g>
							<path class="st24" d="M5.4,282.9c5.6-3.7,8.5-12.2,9.3-18.6c0.9-7.3-2.7-15.5-7.3-21c-0.4-0.5-1.1,0-0.8,0.5
								c8.1,11.4,10.3,28.4-1.5,38.6C4.9,282.7,5.1,283,5.4,282.9L5.4,282.9z"/>
						</g>
						<g>
							<path class="st24" d="M3.9,280.8c2.2-1.7,3.2-5.1,3.9-7.7c0.9-3.1,1.4-7.1,0-10.1c-0.2-0.5-1-0.3-0.8,0.3
								c0.9,3,0.7,5.9,0.1,8.9c-0.5,2.6-1.7,6.2-3.6,8.1C3.2,280.5,3.6,281,3.9,280.8L3.9,280.8z"/>
						</g>
						<g>
							<path class="st24" d="M-45.6,273.9c0.5-3.4,2.9-7,4.3-10.1c1.8-3.7,4.5-6.9,6.7-10.4c0.2-0.4-0.4-0.7-0.7-0.4
								c-2.7,3.1-5,6.7-6.9,10.4c-1.5,2.9-4.2,7.2-4,10.5C-46.2,274.2-45.7,274.2-45.6,273.9L-45.6,273.9z"/>
						</g>
						<g>
							<path class="st24" d="M-36.9,273.4c1.6-3.5,4.1-6.3,6.4-9.3c0.3-0.3-0.2-0.7-0.5-0.4c-2.6,2.8-4.9,5.9-6.5,9.5
								C-37.5,273.5-37,273.8-36.9,273.4L-36.9,273.4z"/>
						</g>
						<g>
							<path class="st24" d="M-54.9,271.1c0.3-5.2-0.1-10.3,0.9-15.5c1-5.7,3.9-11,6.1-16.3c0.2-0.4-0.4-0.8-0.7-0.4
								c-2.9,4.4-4.7,9.8-6,14.9c-1.6,5.9-0.7,11.4-0.8,17.3C-55.5,271.4-55,271.5-54.9,271.1L-54.9,271.1z"/>
						</g>
						<g>
							<path class="st24" d="M-28.2,203.4c-0.9,1.5-1,3.4-0.9,5.1c0.1,1.8,0.1,4.2,0.7,6c0.1,0.2,0.4,0.2,0.5,0
								c0.3-1.4-0.2-3.1-0.3-4.5c-0.2-2.1-0.2-4.2,0.6-6.2C-27.5,203.3-28,203.1-28.2,203.4L-28.2,203.4z"/>
						</g>
						<g>
							<path class="st24" d="M-22.5,203.4c5.1,2.7,8.8,6.7,10.7,12.3c0.1,0.3,0.7,0.2,0.6-0.1c-0.7-4.9-6.1-11.7-11.2-12.5
								C-22.6,203.1-22.7,203.3-22.5,203.4L-22.5,203.4z"/>
						</g>
						<g>
							<path class="st24" d="M-36.6,206.1c-0.6,2.8-1.4,6.3-0.5,9.2c0.1,0.3,0.5,0.2,0.5-0.1c0.1-1.4-0.1-2.7-0.1-4.1
								c0.1-1.6,0.3-3.3,0.6-4.9C-36,205.8-36.5,205.7-36.6,206.1L-36.6,206.1z"/>
						</g>
						<g>
							<path class="st24" d="M-59.8,225.6c-3.7-0.9-5.8-3.4-8.4-5.9c-0.2-0.2-0.7,0.1-0.6,0.4c1.4,3,5.6,5.9,8.8,6.3
								C-59.4,226.4-59.3,225.7-59.8,225.6L-59.8,225.6z"/>
						</g>
						<g>
							<path class="st24" d="M-53.5,215.5c-1.9-4-4.7-8.6-9-10.3c-0.5-0.2-0.9,0.5-0.4,0.8c4,2.4,6.6,5.8,8.8,9.8
								C-53.9,216.2-53.3,215.9-53.5,215.5L-53.5,215.5z"/>
						</g>
						<g>
							<path class="st24" d="M-55.7,218.8c0.4-1-1-2-1.6-2.6c-1.1-0.9-2.7-2.3-4.1-2.7c-0.3-0.1-0.5,0.3-0.3,0.5
								c0.6,0.8,2,1.3,2.8,1.9c1.2,0.8,2.3,1.5,2.8,2.8C-56,218.9-55.8,219-55.7,218.8L-55.7,218.8z"/>
						</g>
						<g>
							<path class="st24" d="M-67,231.2c-0.8-0.4-1.7-0.5-2.5-0.7c-1.3-0.4-2.4-1.1-3.4-2c-0.3-0.3-0.8,0.2-0.5,0.5
								c1.5,1.7,4.1,2.5,6.2,2.6C-66.8,231.6-66.7,231.3-67,231.2L-67,231.2z"/>
						</g>
						<g>
							<path class="st24" d="M-38.7,205.1c1.2-6.5-2.5-14-6.8-18.8c-0.2-0.2-0.7,0.1-0.5,0.4c3,6.2,7.2,10.9,6.7,18.3
								C-39.4,205.3-38.8,205.5-38.7,205.1L-38.7,205.1z"/>
						</g>
						<g>
							<path class="st24" d="M-34.8,203.5c1.9-3.9,1.3-10.7-1.2-14.2c-0.2-0.3-0.7-0.1-0.6,0.3c2,4.5,2.5,9,1.5,13.8
								C-35.1,203.6-34.9,203.7-34.8,203.5L-34.8,203.5z"/>
						</g>
						<g>
							<path class="st24" d="M-15.5,202.7c-3-2.8-3.6-7.1-4.9-10.8c-0.2-0.5-0.9-0.2-0.8,0.3c0.8,3.7,2.1,8.6,5.4,10.9
								C-15.6,203.3-15.3,202.9-15.5,202.7L-15.5,202.7z"/>
						</g>
						<g>
							<path class="st24" d="M-13.2,203.1c0.3-1.1-0.6-2.4-1-3.3c-1-2.3-1.7-4.7-2-7.2c0-0.5-0.7-0.4-0.7,0.1
								c-0.1,3.6,2.1,7.2,3.4,10.5C-13.5,203.2-13.3,203.3-13.2,203.1L-13.2,203.1z"/>
						</g>
						<g>
							<path class="st24" d="M6.9,219.2c1.1,0.8,2.2-1.4,2.6-2.1c0.7-1.5,1.3-3.6,0.9-5.3c-0.1-0.5-0.8-0.6-0.9-0.1
								c-0.2,1.3-0.2,2.5-0.6,3.8c-0.2,0.8-0.5,1.7-1.1,2.3c-0.3,0.4-0.9,0.6-1.1,1.1C6.8,219.1,6.8,219.1,6.9,219.2L6.9,219.2z"/>
						</g>
						<g>
							<path class="st24" d="M5.2,217.5c0,0-0.1,0-0.1,0c-0.3,0.1-0.2,0.6,0.1,0.6c0.6,0,0.9-1.9,0.9-2.2c0.3-1.6,0.1-3.5-0.5-4.9
								c-0.2-0.4-0.6-0.2-0.6,0.1c0,1.2,0.3,2.3,0.4,3.5c0.1,0.7-0.1,1.5-0.2,2.2c0,0.1-0.1,0.3-0.1,0.4
								C4.9,217.8,5,217.3,5.2,217.5C5.2,217.5,5.2,217.5,5.2,217.5L5.2,217.5z"/>
						</g>
						<g>
							<path class="st24" d="M1.5,197.4c-1.6,2.4-2.7,5.6-2.4,8.5c0,0.4,0.7,0.5,0.7,0c0.5-2.9,0.8-5.5,2.2-8.2
								C2.2,197.5,1.7,197.1,1.5,197.4L1.5,197.4z"/>
						</g>
						<g>
							<path class="st24" d="M27.4,226.3c-0.6,0.6-1.1,1.2-1.8,1.7c-0.8,0.5-1.7,1-2.6,1.1c-0.6,0.1-0.5,1.1,0.1,0.9
								c1.1-0.2,2.1-0.7,3-1.4c0.7-0.5,1.9-1.3,1.8-2.2C27.9,226.2,27.6,226.1,27.4,226.3L27.4,226.3z"/>
						</g>
						<g>
							<path class="st24" d="M10.4,283.5c2.7,5.6,11.8,10.3,17.9,9.3c0.4-0.1,0.5-0.7,0-0.8c-7.3-0.8-12.4-3.6-17.4-8.9
								C10.7,282.9,10.2,283.2,10.4,283.5L10.4,283.5z"/>
						</g>
						<g>
							<path class="st24" d="M12.8,280.5c1.7,2.6,6.5,4.5,9.5,4.2c0.4,0,0.4-0.6,0-0.7c-1.7-0.5-3.4-0.7-5-1.3
								c-1.6-0.6-2.8-1.5-4.1-2.6C13,279.8,12.6,280.2,12.8,280.5L12.8,280.5z"/>
						</g>
						<g>
							<path class="st24" d="M55.7,289.4c0.8,0.3,1.8,0.1,2.6,0c0.9-0.1,1.9-0.1,2.7-0.5c0.3-0.1,0.2-0.6-0.1-0.6
								c-0.9-0.1-1.8,0.2-2.7,0.3c-0.8,0.1-1.8,0.1-2.6,0.3C55.5,289.1,55.5,289.4,55.7,289.4L55.7,289.4z"/>
						</g>
						<g>
							<path class="st24" d="M65.3,288c0.9,0.3,2.4,0.1,3.2-0.3c0.3-0.1,0.3-0.6,0-0.6c-0.5,0-1,0.1-1.5,0.2
								c-0.5,0.1-1.1,0.1-1.6,0.2C65.2,287.5,65,287.9,65.3,288L65.3,288z"/>
						</g>
						<g>
							<path class="st24" d="M59,286.3c0.7,0,1.5-0.2,2.2-0.4c0.7-0.2,1.5-0.3,2.2-0.5c0.4-0.1,0.3-0.8-0.2-0.8
								c-0.7,0-1.4,0.2-2.1,0.4c-0.8,0.2-1.6,0.4-2.3,0.7C58.6,285.9,58.7,286.3,59,286.3L59,286.3z"/>
						</g>
						<g>
							<path class="st24" d="M64.9,321.1c0.2-0.7,0-1.4-0.2-2c-0.2-0.7-0.5-1.7-1.1-2.1c-0.2-0.2-0.5,0-0.4,0.3
								c0.1,0.6,0.6,1.2,0.8,1.8c0.3,0.7,0.4,1.3,0.3,2C64.4,321.4,64.9,321.3,64.9,321.1L64.9,321.1z"/>
						</g>
						<g>
							<path class="st24" d="M61.5,313.2c-0.9-1-1.9-1.9-2.7-3c-0.3-0.4-0.9,0-0.6,0.4c0.8,1.2,1.9,2.1,2.9,3.1
								C61.3,314.1,61.8,313.5,61.5,313.2L61.5,313.2z"/>
						</g>
						<g>
							<path class="st24" d="M60.7,319.5c-1-1.6-2.1-3.1-3.3-4.5c-0.3-0.4-1,0.2-0.7,0.6c1.1,1.4,2.3,2.9,3.3,4.4
								C60.3,320.5,61,320,60.7,319.5L60.7,319.5z"/>
						</g>
					</g>
				</g>
				<path class="st10" d="M468.2,372.9c0,0-26.6,22.9-30.1,35.9c0,0,3.1,5.6,8.5,6.3c0,0,23.7-29.8,30.7-35
					C477.2,380,476.5,373.6,468.2,372.9z"/>
				<path class="st6" d="M417,454.5c0,0-26.6,22.9-30.1,35.9c0,0,3.1,5.6,8.5,6.3c0,0,23.7-29.8,30.7-35
					C426.1,461.6,425.3,455.2,417,454.5z"/>
			</g>
		</g>
		<g>
			<defs>
				<path id="SVGID_7_" d="M133.6,549.9c-2.7-3-66.4,15.4-142,34.4v253.2c76.9-25.6,155.2-60.9,206.9-94
					C198.6,743.4,138.6,567.8,133.6,549.9z"/>
			</defs>
			<clipPath id="SVGID_8_">
				<use xlink:href="#SVGID_7_"  style="overflow:visible;"/>
			</clipPath>
			<polygon class="st25" points="137.6,684.2 133.8,742.3 188.4,720 156.9,756.9 208.4,778 150.8,791.6 190,836 134.8,813.6 
				133.4,869.6 108.5,822.1 78.1,871.8 81.9,813.7 27.3,835.9 72.4,789.3 6.3,772.8 64.9,764.4 25.8,723.3 81,745.6 75.5,684.2 
				108.5,731.8 			"/>
			<polygon class="st25" points="125.4,471.7 121.6,529.8 176.2,507.5 144.6,544.3 196.2,565.4 138.5,579.1 177.8,623.4 
				122.5,601.1 121.2,657.1 96.2,609.5 65.9,659.2 69.7,601.1 15.1,623.4 60.1,576.8 -5.9,560.2 52.7,551.8 13.6,510.7 68.8,533 
				63.2,471.7 96.3,519.2 			"/>
			<polygon class="st25" points="-34.8,585.9 -38.6,644 16,621.8 -15.5,658.6 36,679.7 -21.6,693.3 17.6,737.7 -37.6,715.4 
				-39,771.3 -63.9,723.8 -94.3,773.5 -90.5,715.4 -145.1,737.7 -100,691 -166.1,674.5 -107.5,666.1 -146.6,625 -91.4,647.3 
				-96.9,585.9 -63.9,633.5 			"/>
		</g>
		<g>
			<g>
				<g>
					<path class="st7" d="M759.5,338.8c-0.6,1.6-2.3,2.6-4.1,2.3c-1.8-0.3-3-1.9-3-3.7l-1-41.2c0-2.2,1.9-4,4.2-3.7
						c1.9,0.2,3.2,2,3.2,3.9l1,41.1C759.7,337.9,759.6,338.3,759.5,338.8z"/>
				</g>
				<g>
					<path class="st7" d="M806.4,295.7l-18.1,46c-0.7,1.9-2.9,2.8-4.8,2.1c-1.9-0.7-2.8-2.9-2.1-4.8l18.1-46
						c0.7-1.9,2.9-2.8,4.8-2.1C806.3,291.7,807.2,293.8,806.4,295.7z"/>
				</g>
				<g>
					<path class="st7" d="M835.6,322.5c-0.1,0.3-0.3,0.6-0.5,0.9l-23.9,32.2c-1.2,1.6-3.5,2-5.2,0.8c-1.6-1.2-2-3.5-0.8-5.2
						l23.9-32.2c1.2-1.6,3.5-2,5.2-0.8C835.8,319.2,836.2,321,835.6,322.5z"/>
				</g>
			</g>
			<g>
				<g>
					<path class="st7" d="M796.8,720.2c-0.7-1.5-0.2-3.4,1.3-4.5c1.5-1,3.5-0.7,4.8,0.5l29.9,28.5c1.6,1.5,1.5,4.2-0.3,5.6
						c-1.5,1.2-3.7,0.8-5-0.5l-29.8-28.4C797.3,721,797,720.6,796.8,720.2z"/>
				</g>
				<g>
					<path class="st7" d="M794,783.9l-19.8-45.3c-0.8-1.9,0-4,1.9-4.9c1.9-0.8,4,0,4.9,1.9l19.8,45.3c0.8,1.9,0,4-1.9,4.9
						C797,786.6,794.8,785.7,794,783.9z"/>
				</g>
				<g>
					<path class="st7" d="M754.5,785.6c-0.1-0.3-0.2-0.6-0.3-0.9l-5.9-39.7c-0.3-2,1.1-3.9,3.1-4.2c2-0.3,3.9,1.1,4.2,3.1l5.9,39.7
						c0.3,2-1.1,3.9-3.1,4.2C756.7,788,755.1,787.1,754.5,785.6z"/>
				</g>
			</g>
		</g>
	</g>
</g>
<g>
	<g>
		<path class="st24" d="M181.8,380.2c-0.1,3.8-0.2,7.5-0.3,11.3c-0.1,4.5,5.7,6.7,8.8,3.7c47.8-47,86.4-103.1,112.9-164.7
			c1.7-3.8-1.1-9.1-5.8-7.6c-2.7,0.8-5.4,1.7-8.1,2.5c-6.3,1.9-3.6,11.9,2.7,10c2.7-0.8,5.4-1.7,8.1-2.5c-1.9-2.5-3.9-5.1-5.8-7.6
			c-26.2,60.8-64,116.2-111.3,162.6c2.9,1.2,5.9,2.4,8.8,3.7c0.1-3.8,0.2-7.5,0.3-11.3C192.2,373.5,181.9,373.5,181.8,380.2
			L181.8,380.2z"/>
	</g>
</g>
</svg>
