<?xml version="1.0" encoding="utf-8"?>
<!-- Generator: Adobe Illustrator 22.0.1, SVG Export Plug-In . SVG Version: 6.00 Build 0)  -->
<svg version="1.1" id="Capa_1" xmlns="http://www.w3.org/2000/svg" xmlns:xlink="http://www.w3.org/1999/xlink" x="0px" y="0px"
	 viewBox="0 0 465.3 456.7" style="enable-background:new 0 0 465.3 456.7;" xml:space="preserve">
<style type="text/css">
	.st0{fill:#B576A3;}
	.st1{fill:#FF7F7F;}
</style>
<g>
	<g>
		<g>
			<path class="st0" d="M22.3,23.8h2.8v6.4c-1.7,1.4-4,2-6.3,2c-5,0-8.7-3.5-8.7-8.3c0-4.8,3.7-8.3,8.7-8.3c2.7,0,4.9,0.9,6.5,2.6
				l-1.9,1.8c-1.3-1.3-2.7-1.8-4.4-1.8c-3.4,0-5.8,2.3-5.8,5.7c0,3.3,2.4,5.7,5.8,5.7c1.1,0,2.3-0.2,3.3-0.8V23.8z"/>
			<path class="st0" d="M35.7,19.6v2.7c-0.3,0-0.5-0.1-0.7-0.1c-2.2,0-3.6,1.3-3.6,3.8v6h-2.9V19.7h2.7v1.8
				C32.1,20.2,33.6,19.6,35.7,19.6z"/>
			<path class="st0" d="M48.1,24.8V32h-2.7v-1.5c-0.7,1.1-2,1.7-3.9,1.7c-2.8,0-4.6-1.5-4.6-3.7c0-2,1.4-3.7,5.1-3.7h3.2v-0.2
				c0-1.7-1-2.7-3.1-2.7c-1.4,0-2.8,0.5-3.7,1.2l-1.1-2.1c1.3-1,3.2-1.5,5.2-1.5C46,19.6,48.1,21.3,48.1,24.8z M45.2,28.2v-1.4h-3
				c-2,0-2.5,0.7-2.5,1.6c0,1,0.9,1.7,2.3,1.7C43.5,30.1,44.7,29.4,45.2,28.2z"/>
			<path class="st0" d="M50.6,25.9c0-3.7,2.8-6.3,6.6-6.3c2.4,0,4.3,1,5.2,2.9l-2.2,1.3c-0.7-1.2-1.8-1.7-3.1-1.7
				c-2.1,0-3.7,1.5-3.7,3.8c0,2.4,1.6,3.8,3.7,3.8c1.2,0,2.3-0.5,3.1-1.7l2.2,1.3c-0.9,1.8-2.9,2.9-5.2,2.9
				C53.4,32.2,50.6,29.6,50.6,25.9z"/>
			<path class="st0" d="M64.4,16c0-1,0.8-1.7,1.8-1.7s1.8,0.7,1.8,1.7c0,1-0.8,1.8-1.8,1.8C65.2,17.7,64.4,17,64.4,16z M64.8,19.7
				h2.9V32h-2.9V19.7z"/>
			<path class="st0" d="M81.5,24.8V32h-2.7v-1.5c-0.7,1.1-2,1.7-3.9,1.7c-2.8,0-4.6-1.5-4.6-3.7c0-2,1.4-3.7,5.1-3.7h3.2v-0.2
				c0-1.7-1-2.7-3.1-2.7c-1.4,0-2.8,0.5-3.7,1.2l-1.1-2.1c1.3-1,3.2-1.5,5.2-1.5C79.4,19.6,81.5,21.3,81.5,24.8z M78.6,28.2v-1.4h-3
				c-2,0-2.5,0.7-2.5,1.6c0,1,0.9,1.7,2.3,1.7C76.9,30.1,78.1,29.4,78.6,28.2z"/>
			<path class="st0" d="M83.5,30.8l1.1-2.2c1.1,0.7,2.7,1.2,4.3,1.2c1.8,0,2.6-0.5,2.6-1.4c0-2.3-7.6-0.1-7.6-5
				c0-2.3,2.1-3.8,5.4-3.8c1.6,0,3.5,0.4,4.6,1.1l-1.1,2.2c-1.2-0.7-2.3-0.9-3.5-0.9c-1.7,0-2.6,0.6-2.6,1.4c0,2.5,7.6,0.3,7.6,5.1
				c0,2.3-2.1,3.8-5.6,3.8C86.7,32.2,84.6,31.6,83.5,30.8z"/>
			<path class="st0" d="M113.4,24.8V32h-2.7v-1.5c-0.7,1.1-2,1.7-3.9,1.7c-2.8,0-4.6-1.5-4.6-3.7c0-2,1.4-3.7,5.1-3.7h3.2v-0.2
				c0-1.7-1-2.7-3.1-2.7c-1.4,0-2.8,0.5-3.7,1.2l-1.1-2.1c1.3-1,3.2-1.5,5.2-1.5C111.3,19.6,113.4,21.3,113.4,24.8z M110.5,28.2
				v-1.4h-3c-2,0-2.5,0.7-2.5,1.6c0,1,0.9,1.7,2.3,1.7C108.8,30.1,110,29.4,110.5,28.2z"/>
			<path class="st0" d="M130.7,31.3c-0.7,0.6-1.7,0.8-2.8,0.8c-2.7,0-4.2-1.4-4.2-4.1v-5.9h-2v-2.3h2V17h2.9v2.8h3.3v2.3h-3.3V28
				c0,1.2,0.6,1.8,1.7,1.8c0.6,0,1.2-0.2,1.6-0.5L130.7,31.3z"/>
			<path class="st0" d="M132.5,16c0-1,0.8-1.7,1.8-1.7s1.8,0.7,1.8,1.7c0,1-0.8,1.8-1.8,1.8C133.3,17.7,132.5,17,132.5,16z
				 M132.9,19.7h2.9V32h-2.9V19.7z"/>
			<path class="st0" d="M157.8,19.7v16.7h-2.9v-6c-1,1.1-2.4,1.7-3.9,1.7c-3.6,0-6.2-2.5-6.2-6.3c0-3.8,2.6-6.3,6.2-6.3
				c1.7,0,3.1,0.6,4.1,1.7v-1.6H157.8z M155,25.9c0-2.3-1.6-3.8-3.7-3.8c-2.1,0-3.6,1.5-3.6,3.8s1.6,3.8,3.6,3.8
				C153.4,29.7,155,28.2,155,25.9z"/>
			<path class="st0" d="M173.2,19.7V32h-2.7v-1.6c-0.9,1.1-2.4,1.7-4,1.7c-3.1,0-5.3-1.7-5.3-5.4v-7h2.9v6.6c0,2.2,1.1,3.3,2.9,3.3
				c2,0,3.4-1.2,3.4-3.7v-6.2H173.2z"/>
			<path class="st0" d="M188.3,26.8h-9.6c0.3,1.8,1.8,2.9,4,2.9c1.4,0,2.5-0.4,3.3-1.3l1.5,1.8c-1.1,1.3-2.8,2-4.9,2
				c-4.1,0-6.8-2.6-6.8-6.3s2.7-6.3,6.3-6.3c3.6,0,6.2,2.5,6.2,6.3C188.3,26.2,188.3,26.5,188.3,26.8z M178.6,24.9h7
				c-0.2-1.8-1.6-3-3.5-3C180.3,21.9,178.9,23.1,178.6,24.9z"/>
			<path class="st0" d="M208.9,26.8h-9.6c0.3,1.8,1.8,2.9,4,2.9c1.4,0,2.5-0.4,3.3-1.3l1.5,1.8c-1.1,1.3-2.8,2-4.9,2
				c-4.1,0-6.8-2.6-6.8-6.3s2.7-6.3,6.3-6.3c3.6,0,6.2,2.5,6.2,6.3C208.9,26.2,208.9,26.5,208.9,26.8z M199.2,24.9h7
				c-0.2-1.8-1.6-3-3.5-3C200.9,21.9,199.5,23.1,199.2,24.9z"/>
			<path class="st0" d="M218.6,19.6v2.7c-0.3,0-0.5-0.1-0.7-0.1c-2.2,0-3.6,1.3-3.6,3.8v6h-2.9V19.7h2.7v1.8
				C215,20.2,216.5,19.6,218.6,19.6z"/>
			<path class="st0" d="M232.2,26.8h-9.6c0.3,1.8,1.8,2.9,4,2.9c1.4,0,2.5-0.4,3.3-1.3l1.5,1.8c-1.1,1.3-2.8,2-4.9,2
				c-4.1,0-6.8-2.6-6.8-6.3s2.7-6.3,6.3-6.3c3.6,0,6.2,2.5,6.2,6.3C232.2,26.2,232.2,26.5,232.2,26.8z M222.5,24.9h7
				c-0.2-1.8-1.6-3-3.5-3C224.1,21.9,222.8,23.1,222.5,24.9z"/>
			<path class="st0" d="M233.3,30.8l1.1-2.2c1.1,0.7,2.7,1.2,4.3,1.2c1.8,0,2.6-0.5,2.6-1.4c0-2.3-7.6-0.1-7.6-5
				c0-2.3,2.1-3.8,5.4-3.8c1.6,0,3.5,0.4,4.6,1.1l-1.1,2.2c-1.2-0.7-2.3-0.9-3.5-0.9c-1.7,0-2.6,0.6-2.6,1.4c0,2.5,7.6,0.3,7.6,5.1
				c0,2.3-2.1,3.8-5.6,3.8C236.5,32.2,234.5,31.6,233.3,30.8z"/>
			<path class="st0" d="M256.1,19.1v0.7h3.4v2.3h-3.3V32h-2.9v-9.9h-2v-2.3h2V19c0-2.6,1.5-4.3,4.4-4.3c1,0,2,0.2,2.6,0.7l-0.8,2.2
				c-0.4-0.3-1-0.5-1.6-0.5C256.7,17.1,256.1,17.8,256.1,19.1z"/>
			<path class="st0" d="M273,19.7V32h-2.7v-1.6c-0.9,1.1-2.4,1.7-4,1.7c-3.1,0-5.3-1.7-5.3-5.4v-7h2.9v6.6c0,2.2,1.1,3.3,2.9,3.3
				c2,0,3.4-1.2,3.4-3.7v-6.2H273z"/>
			<path class="st0" d="M288.1,26.8h-9.6c0.3,1.8,1.8,2.9,4,2.9c1.4,0,2.5-0.4,3.3-1.3l1.5,1.8c-1.1,1.3-2.8,2-4.9,2
				c-4.1,0-6.8-2.6-6.8-6.3s2.7-6.3,6.3-6.3c3.6,0,6.2,2.5,6.2,6.3C288.1,26.2,288.1,26.5,288.1,26.8z M278.4,24.9h7
				c-0.2-1.8-1.6-3-3.5-3C280.1,21.9,278.7,23.1,278.4,24.9z"/>
			<path class="st0" d="M302.8,25v7h-2.9v-6.7c0-2.2-1.1-3.2-2.9-3.2c-2,0-3.4,1.2-3.4,3.7V32h-2.9V19.7h2.7v1.6
				c0.9-1.1,2.4-1.7,4.2-1.7C300.6,19.6,302.8,21.3,302.8,25z"/>
			<path class="st0" d="M313.6,31.3c-0.7,0.6-1.7,0.8-2.8,0.8c-2.7,0-4.2-1.4-4.2-4.1v-5.9h-2v-2.3h2V17h2.9v2.8h3.3v2.3h-3.3V28
				c0,1.2,0.6,1.8,1.7,1.8c0.6,0,1.2-0.2,1.6-0.5L313.6,31.3z"/>
			<path class="st0" d="M326.8,26.8h-9.6c0.3,1.8,1.8,2.9,4,2.9c1.4,0,2.5-0.4,3.3-1.3l1.5,1.8c-1.1,1.3-2.8,2-4.9,2
				c-4.1,0-6.8-2.6-6.8-6.3s2.7-6.3,6.3-6.3c3.6,0,6.2,2.5,6.2,6.3C326.8,26.2,326.8,26.5,326.8,26.8z M317.1,24.9h7
				c-0.2-1.8-1.6-3-3.5-3C318.8,21.9,317.4,23.1,317.1,24.9z"/>
			<path class="st0" d="M347.9,15V32h-2.8v-1.6c-1,1.2-2.4,1.7-4.1,1.7c-3.6,0-6.2-2.5-6.2-6.3s2.6-6.3,6.2-6.3c1.6,0,3,0.5,4,1.7
				V15H347.9z M345.1,25.9c0-2.3-1.6-3.8-3.7-3.8c-2.1,0-3.7,1.5-3.7,3.8s1.6,3.8,3.7,3.8C343.5,29.7,345.1,28.2,345.1,25.9z"/>
			<path class="st0" d="M363,26.8h-9.6c0.3,1.8,1.8,2.9,4,2.9c1.4,0,2.5-0.4,3.3-1.3l1.5,1.8c-1.1,1.3-2.8,2-4.9,2
				c-4.1,0-6.8-2.6-6.8-6.3s2.7-6.3,6.3-6.3c3.6,0,6.2,2.5,6.2,6.3C363,26.2,363,26.5,363,26.8z M353.3,24.9h7c-0.2-1.8-1.6-3-3.5-3
				C354.9,21.9,353.6,23.1,353.3,24.9z"/>
			<path class="st0" d="M382.4,24.8V32h-2.7v-1.5c-0.7,1.1-2,1.7-3.9,1.7c-2.8,0-4.6-1.5-4.6-3.7c0-2,1.4-3.7,5.1-3.7h3.2v-0.2
				c0-1.7-1-2.7-3.1-2.7c-1.4,0-2.8,0.5-3.7,1.2l-1.1-2.1c1.3-1,3.2-1.5,5.2-1.5C380.3,19.6,382.4,21.3,382.4,24.8z M379.5,28.2
				v-1.4h-3c-2,0-2.5,0.7-2.5,1.6c0,1,0.9,1.7,2.3,1.7C377.8,30.1,379,29.4,379.5,28.2z"/>
			<path class="st0" d="M385.8,15h2.9V32h-2.9V15z"/>
			<path class="st0" d="M403.7,26.8h-9.6c0.3,1.8,1.8,2.9,4,2.9c1.4,0,2.5-0.4,3.3-1.3l1.5,1.8c-1.1,1.3-2.8,2-4.9,2
				c-4.1,0-6.8-2.6-6.8-6.3s2.7-6.3,6.3-6.3c3.6,0,6.2,2.5,6.2,6.3C403.8,26.2,403.7,26.5,403.7,26.8z M394.1,24.9h7
				c-0.2-1.8-1.6-3-3.5-3C395.7,21.9,394.3,23.1,394.1,24.9z"/>
			<path class="st0" d="M418.5,19.7v10.4c0,4.5-2.3,6.5-6.6,6.5c-2.3,0-4.6-0.6-6-1.7l1.3-2.2c1.1,0.9,2.8,1.5,4.5,1.5
				c2.7,0,3.9-1.2,3.9-3.7v-0.6c-1,1.1-2.5,1.6-4.1,1.6c-3.5,0-6.2-2.4-6.2-6s2.7-5.9,6.2-5.9c1.7,0,3.2,0.6,4.3,1.8v-1.6H418.5z
				 M415.7,25.5c0-2.1-1.6-3.5-3.7-3.5c-2.2,0-3.7,1.4-3.7,3.5c0,2.1,1.6,3.5,3.7,3.5C414.1,29,415.7,27.6,415.7,25.5z"/>
			<path class="st0" d="M429.1,19.6v2.7c-0.3,0-0.5-0.1-0.7-0.1c-2.2,0-3.6,1.3-3.6,3.8v6H422V19.7h2.7v1.8
				C425.6,20.2,427.1,19.6,429.1,19.6z"/>
			<path class="st0" d="M434,14.9h3.4l-4,3.2h-2.5L434,14.9z M431.3,19.7h2.9V32h-2.9V19.7z"/>
			<path class="st0" d="M448,24.8V32h-2.7v-1.5c-0.7,1.1-2,1.7-3.9,1.7c-2.8,0-4.6-1.5-4.6-3.7c0-2,1.4-3.7,5.1-3.7h3.2v-0.2
				c0-1.7-1-2.7-3.1-2.7c-1.4,0-2.8,0.5-3.7,1.2l-1.1-2.1c1.3-1,3.2-1.5,5.2-1.5C446,19.6,448,21.3,448,24.8z M445.2,28.2v-1.4h-3
				c-2,0-2.5,0.7-2.5,1.6c0,1,0.9,1.7,2.3,1.7C443.5,30.1,444.7,29.4,445.2,28.2z"/>
			<path class="st0" d="M454.3,30.3c0,0.5-0.1,0.9-0.5,2l-1.2,3.2h-1.9l0.9-3.5c-0.6-0.3-1.1-0.9-1.1-1.7c0-1.1,0.8-1.9,1.9-1.9
				C453.5,28.4,454.3,29.1,454.3,30.3z"/>
			<path class="st0" d="M23,55.7v16.7h-2.9v-6c-1,1.1-2.4,1.7-3.9,1.7c-3.6,0-6.2-2.5-6.2-6.3c0-3.8,2.6-6.3,6.2-6.3
				c1.7,0,3.1,0.6,4.1,1.7v-1.6H23z M20.2,61.9c0-2.3-1.6-3.8-3.7-3.8c-2.1,0-3.6,1.5-3.6,3.8c0,2.3,1.6,3.8,3.6,3.8
				C18.6,65.7,20.2,64.2,20.2,61.9z"/>
			<path class="st0" d="M38.5,55.7V68h-2.7v-1.6c-0.9,1.1-2.4,1.7-4,1.7c-3.1,0-5.3-1.7-5.3-5.4v-7h2.9v6.6c0,2.2,1.1,3.3,2.9,3.3
				c2,0,3.4-1.2,3.4-3.7v-6.2H38.5z"/>
			<path class="st0" d="M53.5,62.8h-9.6c0.3,1.8,1.8,2.9,4,2.9c1.4,0,2.5-0.4,3.3-1.3l1.5,1.8c-1.1,1.3-2.8,2-4.9,2
				c-4.1,0-6.8-2.6-6.8-6.3c0-3.7,2.7-6.3,6.3-6.3c3.6,0,6.2,2.5,6.2,6.3C53.6,62.2,53.5,62.5,53.5,62.8z M43.9,60.9h7
				c-0.2-1.8-1.6-3-3.5-3C45.5,57.9,44.1,59.1,43.9,60.9z"/>
			<path class="st0" d="M62.2,52c0-1,0.8-1.7,1.8-1.7c1.1,0,1.8,0.7,1.8,1.7c0,1-0.8,1.8-1.8,1.8C63,53.7,62.2,53,62.2,52z
				 M62.6,55.7h2.9V68h-2.9V55.7z"/>
			<path class="st0" d="M81.1,61v7h-2.9v-6.7c0-2.2-1.1-3.2-2.9-3.2c-2,0-3.4,1.2-3.4,3.7V68H69V55.7h2.7v1.6
				c0.9-1.1,2.4-1.7,4.2-1.7C78.9,55.6,81.1,57.3,81.1,61z"/>
			<path class="st0" d="M83.1,66.8l1.1-2.2c1.1,0.7,2.7,1.2,4.3,1.2c1.8,0,2.6-0.5,2.6-1.4c0-2.3-7.6-0.1-7.6-5
				c0-2.3,2.1-3.8,5.4-3.8c1.6,0,3.5,0.4,4.6,1.1l-1.1,2.2c-1.2-0.7-2.3-0.9-3.5-0.9c-1.7,0-2.6,0.6-2.6,1.4c0,2.5,7.6,0.3,7.6,5.1
				c0,2.3-2.1,3.8-5.6,3.8C86.3,68.2,84.2,67.6,83.1,66.8z"/>
			<path class="st0" d="M109.2,61.9c0,3.8-2.6,6.3-6.2,6.3c-1.6,0-2.9-0.5-3.9-1.7v6h-2.9V55.7h2.7v1.6c1-1.2,2.4-1.7,4.1-1.7
				C106.5,55.6,109.2,58.1,109.2,61.9z M106.3,61.9c0-2.3-1.6-3.8-3.6-3.8S99,59.5,99,61.9c0,2.3,1.6,3.8,3.7,3.8
				S106.3,64.2,106.3,61.9z"/>
			<path class="st0" d="M111.3,52c0-1,0.8-1.7,1.8-1.7s1.8,0.7,1.8,1.7c0,1-0.8,1.8-1.8,1.8C112.1,53.7,111.3,53,111.3,52z
				 M111.7,55.7h2.9V68h-2.9V55.7z"/>
			<path class="st0" d="M125.2,55.6v2.7c-0.3,0-0.5-0.1-0.7-0.1c-2.2,0-3.6,1.3-3.6,3.8v6h-2.9V55.7h2.7v1.8
				C121.7,56.2,123.2,55.6,125.2,55.6z"/>
			<path class="st0" d="M137.6,60.8V68h-2.7v-1.5c-0.7,1.1-2,1.7-3.9,1.7c-2.8,0-4.6-1.5-4.6-3.7c0-2,1.4-3.7,5.1-3.7h3.2v-0.2
				c0-1.7-1-2.7-3.1-2.7c-1.4,0-2.8,0.5-3.7,1.2l-1.1-2.1c1.3-1,3.2-1.5,5.2-1.5C135.6,55.6,137.6,57.3,137.6,60.8z M134.8,64.2
				v-1.4h-3c-2,0-2.5,0.7-2.5,1.6c0,1,0.9,1.7,2.3,1.7C133.1,66.1,134.3,65.4,134.8,64.2z"/>
			<path class="st0" d="M139.7,66.8l1.1-2.2c1.1,0.7,2.7,1.2,4.3,1.2c1.8,0,2.6-0.5,2.6-1.4c0-2.3-7.6-0.1-7.6-5
				c0-2.3,2.1-3.8,5.4-3.8c1.6,0,3.5,0.4,4.6,1.1l-1.1,2.2c-1.2-0.7-2.3-0.9-3.5-0.9c-1.7,0-2.6,0.6-2.6,1.4c0,2.5,7.6,0.3,7.6,5.1
				c0,2.3-2.1,3.8-5.6,3.8C142.8,68.2,140.8,67.6,139.7,66.8z"/>
			<path class="st0" d="M155.5,66.3c0,0.5-0.1,0.9-0.5,2l-1.2,3.2h-1.9l0.9-3.5c-0.6-0.3-1.1-0.9-1.1-1.7c0-1.1,0.8-1.9,1.9-1.9
				C154.7,64.4,155.5,65.1,155.5,66.3z"/>
			<path class="st0" d="M176.6,55.7v16.7h-2.9v-6c-1,1.1-2.4,1.7-3.9,1.7c-3.6,0-6.2-2.5-6.2-6.3c0-3.8,2.6-6.3,6.2-6.3
				c1.7,0,3.1,0.6,4.1,1.7v-1.6H176.6z M173.8,61.9c0-2.3-1.6-3.8-3.7-3.8c-2.1,0-3.6,1.5-3.6,3.8c0,2.3,1.6,3.8,3.6,3.8
				C172.2,65.7,173.8,64.2,173.8,61.9z"/>
			<path class="st0" d="M192,55.7V68h-2.7v-1.6c-0.9,1.1-2.4,1.7-4,1.7c-3.1,0-5.3-1.7-5.3-5.4v-7h2.9v6.6c0,2.2,1.1,3.3,2.9,3.3
				c2,0,3.4-1.2,3.4-3.7v-6.2H192z"/>
			<path class="st0" d="M207.1,62.8h-9.6c0.3,1.8,1.8,2.9,4,2.9c1.4,0,2.5-0.4,3.3-1.3l1.5,1.8c-1.1,1.3-2.8,2-4.9,2
				c-4.1,0-6.8-2.6-6.8-6.3c0-3.7,2.7-6.3,6.3-6.3c3.6,0,6.2,2.5,6.2,6.3C207.1,62.2,207.1,62.5,207.1,62.8z M197.4,60.9h7
				c-0.2-1.8-1.6-3-3.5-3C199,57.9,197.7,59.1,197.4,60.9z"/>
			<path class="st0" d="M214.7,66.8l1.1-2.2c1.1,0.7,2.7,1.2,4.3,1.2c1.8,0,2.6-0.5,2.6-1.4c0-2.3-7.6-0.1-7.6-5
				c0-2.3,2.1-3.8,5.4-3.8c1.6,0,3.5,0.4,4.6,1.1l-1.1,2.2c-1.2-0.7-2.3-0.9-3.5-0.9c-1.7,0-2.6,0.6-2.6,1.4c0,2.5,7.6,0.3,7.6,5.1
				c0,2.3-2.1,3.8-5.6,3.8C217.9,68.2,215.8,67.6,214.7,66.8z"/>
			<path class="st0" d="M239.6,55.7V68h-2.7v-1.6c-0.9,1.1-2.4,1.7-4,1.7c-3.1,0-5.3-1.7-5.3-5.4v-7h2.9v6.6c0,2.2,1.1,3.3,2.9,3.3
				c2,0,3.4-1.2,3.4-3.7v-6.2H239.6z"/>
			<path class="st0" d="M254.7,62.8h-9.6c0.3,1.8,1.8,2.9,4,2.9c1.4,0,2.5-0.4,3.3-1.3l1.5,1.8c-1.1,1.3-2.8,2-4.9,2
				c-4.1,0-6.8-2.6-6.8-6.3c0-3.7,2.7-6.3,6.3-6.3c3.6,0,6.2,2.5,6.2,6.3C254.7,62.2,254.7,62.5,254.7,62.8z M245,60.9h7
				c-0.2-1.8-1.6-3-3.5-3C246.7,57.9,245.3,59.1,245,60.9z"/>
			<path class="st0" d="M269.4,61v7h-2.9v-6.7c0-2.2-1.1-3.2-2.9-3.2c-2,0-3.4,1.2-3.4,3.7V68h-2.9V55.7h2.7v1.6
				c0.9-1.1,2.4-1.7,4.2-1.7C267.2,55.6,269.4,57.3,269.4,61z M260.7,53.9h-1.5c0-1.9,1-3.1,2.5-3.1c1.5,0,2.3,1.5,3.1,1.5
				c0.6,0,1.1-0.5,1.1-1.3h1.5c0,1.8-1,3-2.5,3c-1.5,0-2.3-1.5-3.1-1.5C261.2,52.5,260.8,53,260.7,53.9z"/>
			<path class="st0" d="M283.1,60.8V68h-2.7v-1.5c-0.7,1.1-2,1.7-3.9,1.7c-2.8,0-4.6-1.5-4.6-3.7c0-2,1.4-3.7,5.1-3.7h3.2v-0.2
				c0-1.7-1-2.7-3.1-2.7c-1.4,0-2.8,0.5-3.7,1.2l-1.1-2.1c1.3-1,3.2-1.5,5.2-1.5C281,55.6,283.1,57.3,283.1,60.8z M280.2,64.2v-1.4
				h-3c-2,0-2.5,0.7-2.5,1.6c0,1,0.9,1.7,2.3,1.7C278.5,66.1,279.7,65.4,280.2,64.2z"/>
			<path class="st0" d="M285.1,66.8l1.1-2.2c1.1,0.7,2.7,1.2,4.3,1.2c1.8,0,2.6-0.5,2.6-1.4c0-2.3-7.6-0.1-7.6-5
				c0-2.3,2.1-3.8,5.4-3.8c1.6,0,3.5,0.4,4.6,1.1l-1.1,2.2c-1.2-0.7-2.3-0.9-3.5-0.9c-1.7,0-2.6,0.6-2.6,1.4c0,2.5,7.6,0.3,7.6,5.1
				c0,2.3-2.1,3.8-5.6,3.8C288.3,68.2,286.2,67.6,285.1,66.8z"/>
			<path class="st0" d="M300.9,66.3c0,0.5-0.1,0.9-0.5,2l-1.2,3.2h-1.9l0.9-3.5c-0.6-0.3-1.1-0.9-1.1-1.7c0-1.1,0.8-1.9,1.9-1.9
				C300.2,64.4,300.9,65.1,300.9,66.3z"/>
			<path class="st0" d="M322,55.7v16.7h-2.9v-6c-1,1.1-2.4,1.7-3.9,1.7c-3.6,0-6.2-2.5-6.2-6.3c0-3.8,2.6-6.3,6.2-6.3
				c1.7,0,3.1,0.6,4.1,1.7v-1.6H322z M319.2,61.9c0-2.3-1.6-3.8-3.7-3.8c-2.1,0-3.6,1.5-3.6,3.8c0,2.3,1.6,3.8,3.6,3.8
				C317.6,65.7,319.2,64.2,319.2,61.9z"/>
			<path class="st0" d="M337.5,55.7V68h-2.7v-1.6c-0.9,1.1-2.4,1.7-4,1.7c-3.1,0-5.3-1.7-5.3-5.4v-7h2.9v6.6c0,2.2,1.1,3.3,2.9,3.3
				c2,0,3.4-1.2,3.4-3.7v-6.2H337.5z"/>
			<path class="st0" d="M352.5,62.8h-9.6c0.3,1.8,1.8,2.9,4,2.9c1.4,0,2.5-0.4,3.3-1.3l1.5,1.8c-1.1,1.3-2.8,2-4.9,2
				c-4.1,0-6.8-2.6-6.8-6.3c0-3.7,2.7-6.3,6.3-6.3c3.6,0,6.2,2.5,6.2,6.3C352.5,62.2,352.5,62.5,352.5,62.8z M342.8,60.9h7
				c-0.2-1.8-1.6-3-3.5-3C344.5,57.9,343.1,59.1,342.8,60.9z"/>
			<path class="st0" d="M361.6,51h2.9V68h-2.9V51z"/>
			<path class="st0" d="M379.9,55.7V68h-2.7v-1.6c-0.9,1.1-2.4,1.7-4,1.7c-3.1,0-5.3-1.7-5.3-5.4v-7h2.9v6.6c0,2.2,1.1,3.3,2.9,3.3
				c2,0,3.4-1.2,3.4-3.7v-6.2H379.9z"/>
			<path class="st0" d="M382.4,61.9c0-3.7,2.8-6.3,6.6-6.3c2.4,0,4.3,1,5.2,2.9l-2.2,1.3c-0.7-1.2-1.8-1.7-3.1-1.7
				c-2.1,0-3.7,1.5-3.7,3.8c0,2.4,1.6,3.8,3.7,3.8c1.2,0,2.3-0.5,3.1-1.7l2.2,1.3c-0.9,1.8-2.9,2.9-5.2,2.9
				C385.2,68.2,382.4,65.6,382.4,61.9z"/>
			<path class="st0" d="M408.5,61v7h-2.9v-6.7c0-2.2-1.1-3.2-2.9-3.2c-2,0-3.4,1.2-3.4,3.7V68h-2.9V51h2.9v6.2
				c0.9-1,2.4-1.6,4.1-1.6C406.4,55.6,408.5,57.3,408.5,61z"/>
			<path class="st0" d="M422.2,60.8V68h-2.7v-1.5c-0.7,1.1-2,1.7-3.9,1.7c-2.8,0-4.6-1.5-4.6-3.7c0-2,1.4-3.7,5.1-3.7h3.2v-0.2
				c0-1.7-1-2.7-3.1-2.7c-1.4,0-2.8,0.5-3.7,1.2l-1.1-2.1c1.3-1,3.2-1.5,5.2-1.5C420.2,55.6,422.2,57.3,422.2,60.8z M419.4,64.2
				v-1.4h-3c-2,0-2.5,0.7-2.5,1.6c0,1,0.9,1.7,2.3,1.7C417.7,66.1,418.9,65.4,419.4,64.2z"/>
			<path class="st0" d="M424.3,66.8l1.1-2.2c1.1,0.7,2.7,1.2,4.3,1.2c1.8,0,2.6-0.5,2.6-1.4c0-2.3-7.6-0.1-7.6-5
				c0-2.3,2.1-3.8,5.4-3.8c1.6,0,3.5,0.4,4.6,1.1l-1.1,2.2c-1.2-0.7-2.3-0.9-3.5-0.9c-1.7,0-2.6,0.6-2.6,1.4c0,2.5,7.6,0.3,7.6,5.1
				c0,2.3-2.1,3.8-5.6,3.8C427.4,68.2,425.4,67.6,424.3,66.8z"/>
			<path class="st0" d="M455.3,55.7L449.6,69c-1.1,2.8-2.7,3.6-4.7,3.6c-1.2,0-2.5-0.4-3.3-1.1l1.1-2.1c0.6,0.5,1.3,0.9,2.1,0.9
				c1,0,1.6-0.5,2.2-1.7l0.2-0.5l-5.4-12.3h3l3.9,9.1l3.9-9.1H455.3z"/>
			<path class="st0" d="M23,91.7v16.7h-2.9v-6c-1,1.1-2.4,1.7-3.9,1.7c-3.6,0-6.2-2.5-6.2-6.3c0-3.8,2.6-6.3,6.2-6.3
				c1.7,0,3.1,0.6,4.1,1.7v-1.6H23z M20.2,97.9c0-2.3-1.6-3.8-3.7-3.8c-2.1,0-3.6,1.5-3.6,3.8s1.6,3.8,3.6,3.8
				C18.6,101.7,20.2,100.2,20.2,97.9z"/>
			<path class="st0" d="M38.5,91.7V104h-2.7v-1.6c-0.9,1.1-2.4,1.7-4,1.7c-3.1,0-5.3-1.7-5.3-5.4v-7h2.9v6.6c0,2.2,1.1,3.3,2.9,3.3
				c2,0,3.4-1.2,3.4-3.7v-6.2H38.5z"/>
			<path class="st0" d="M53.5,98.8h-9.6c0.3,1.8,1.8,2.9,4,2.9c1.4,0,2.5-0.4,3.3-1.3l1.5,1.8c-1.1,1.3-2.8,2-4.9,2
				c-4.1,0-6.8-2.6-6.8-6.3s2.7-6.3,6.3-6.3c3.6,0,6.2,2.5,6.2,6.3C53.6,98.2,53.5,98.5,53.5,98.8z M43.9,96.9h7
				c-0.2-1.8-1.6-3-3.5-3C45.5,93.9,44.1,95.1,43.9,96.9z"/>
			<path class="st0" d="M70.1,103.3c-0.7,0.6-1.7,0.8-2.8,0.8c-2.7,0-4.2-1.4-4.2-4.1v-5.9h-2v-2.3h2V89H66v2.8h3.3v2.3H66v5.8
				c0,1.2,0.6,1.8,1.7,1.8c0.6,0,1.2-0.2,1.6-0.5L70.1,103.3z"/>
			<path class="st0" d="M79.4,91.6v2.7c-0.3,0-0.5-0.1-0.7-0.1c-2.2,0-3.6,1.3-3.6,3.8v6h-2.9V91.7H75v1.8
				C75.8,92.2,77.3,91.6,79.4,91.6z"/>
			<path class="st0" d="M91.8,96.8v7.2h-2.7v-1.5c-0.7,1.1-2,1.7-3.9,1.7c-2.8,0-4.6-1.5-4.6-3.7c0-2,1.4-3.7,5.1-3.7h3.2v-0.2
				c0-1.7-1-2.7-3.1-2.7c-1.4,0-2.8,0.5-3.7,1.2L81,93.1c1.3-1,3.2-1.5,5.2-1.5C89.8,91.6,91.8,93.3,91.8,96.8z M88.9,100.2v-1.4h-3
				c-2,0-2.5,0.7-2.5,1.6c0,1,0.9,1.7,2.3,1.7C87.2,102.1,88.4,101.4,88.9,100.2z"/>
			<path class="st0" d="M108.3,97.9c0,3.8-2.6,6.3-6.2,6.3c-1.7,0-3.1-0.6-4.1-1.7v1.6h-2.7V87h2.9v6.3c1-1.1,2.4-1.6,3.9-1.6
				C105.6,91.6,108.3,94.1,108.3,97.9z M105.4,97.9c0-2.3-1.6-3.8-3.6-3.8s-3.7,1.5-3.7,3.8s1.6,3.8,3.7,3.8S105.4,100.2,105.4,97.9
				z"/>
			<path class="st0" d="M120.9,96.8v7.2h-2.7v-1.5c-0.7,1.1-2,1.7-3.9,1.7c-2.8,0-4.6-1.5-4.6-3.7c0-2,1.4-3.7,5.1-3.7h3.2v-0.2
				c0-1.7-1-2.7-3.1-2.7c-1.4,0-2.8,0.5-3.7,1.2l-1.1-2.1c1.3-1,3.2-1.5,5.2-1.5C118.9,91.6,120.9,93.3,120.9,96.8z M118,100.2v-1.4
				h-3c-2,0-2.5,0.7-2.5,1.6c0,1,0.9,1.7,2.3,1.7C116.3,102.1,117.6,101.4,118,100.2z"/>
			<path class="st0" d="M120.3,107.9l0.8-2.1c0.4,0.3,1,0.5,1.7,0.5c1.1,0,1.7-0.6,1.7-2V91.7h2.9v12.5c0,2.7-1.5,4.4-4.3,4.4
				C122.1,108.6,121,108.4,120.3,107.9z M124.1,88c0-1,0.8-1.7,1.8-1.7s1.8,0.7,1.8,1.7c0,1-0.8,1.8-1.8,1.8
				C124.9,89.7,124.1,89,124.1,88z"/>
			<path class="st0" d="M141.2,96.8v7.2h-2.7v-1.5c-0.7,1.1-2,1.7-3.9,1.7c-2.8,0-4.6-1.5-4.6-3.7c0-2,1.4-3.7,5.1-3.7h3.2v-0.2
				c0-1.7-1-2.7-3.1-2.7c-1.4,0-2.8,0.5-3.7,1.2l-1.1-2.1c1.3-1,3.2-1.5,5.2-1.5C139.2,91.6,141.2,93.3,141.2,96.8z M138.3,100.2
				v-1.4h-3c-2,0-2.5,0.7-2.5,1.6c0,1,0.9,1.7,2.3,1.7C136.6,102.1,137.8,101.4,138.3,100.2z"/>
			<path class="st0" d="M143.3,102.8l1.1-2.2c1.1,0.7,2.7,1.2,4.3,1.2c1.8,0,2.6-0.5,2.6-1.4c0-2.3-7.6-0.1-7.6-5
				c0-2.3,2.1-3.8,5.4-3.8c1.6,0,3.5,0.4,4.6,1.1l-1.1,2.2c-1.2-0.7-2.3-0.9-3.5-0.9c-1.7,0-2.6,0.6-2.6,1.4c0,2.5,7.6,0.3,7.6,5.1
				c0,2.3-2.1,3.8-5.6,3.8C146.4,104.2,144.4,103.6,143.3,102.8z"/>
			<path class="st0" d="M175,87V104h-2.8v-1.6c-1,1.2-2.4,1.7-4.1,1.7c-3.6,0-6.2-2.5-6.2-6.3s2.6-6.3,6.2-6.3c1.6,0,3,0.5,4,1.7V87
				H175z M172.1,97.9c0-2.3-1.6-3.8-3.7-3.8c-2.1,0-3.7,1.5-3.7,3.8s1.6,3.8,3.7,3.8C170.5,101.7,172.1,100.2,172.1,97.9z"/>
			<path class="st0" d="M181.1,86.9h3.4l-4,3.2H178L181.1,86.9z M178.5,91.7h2.9V104h-2.9V91.7z"/>
			<path class="st0" d="M195.2,96.8v7.2h-2.7v-1.5c-0.7,1.1-2,1.7-3.9,1.7c-2.8,0-4.6-1.5-4.6-3.7c0-2,1.4-3.7,5.1-3.7h3.2v-0.2
				c0-1.7-1-2.7-3.1-2.7c-1.4,0-2.8,0.5-3.7,1.2l-1.1-2.1c1.3-1,3.2-1.5,5.2-1.5C193.2,91.6,195.2,93.3,195.2,96.8z M192.3,100.2
				v-1.4h-3c-2,0-2.5,0.7-2.5,1.6c0,1,0.9,1.7,2.3,1.7C190.6,102.1,191.8,101.4,192.3,100.2z"/>
			<path class="st0" d="M215.6,96.8v7.2h-2.7v-1.5c-0.7,1.1-2,1.7-3.9,1.7c-2.8,0-4.6-1.5-4.6-3.7c0-2,1.4-3.7,5.1-3.7h3.2v-0.2
				c0-1.7-1-2.7-3.1-2.7c-1.4,0-2.8,0.5-3.7,1.2l-1.1-2.1c1.3-1,3.2-1.5,5.2-1.5C213.5,91.6,215.6,93.3,215.6,96.8z M212.7,100.2
				v-1.4h-3c-2,0-2.5,0.7-2.5,1.6c0,1,0.9,1.7,2.3,1.7C211,102.1,212.2,101.4,212.7,100.2z"/>
			<path class="st0" d="M237.7,87V104H235v-1.6c-1,1.2-2.4,1.7-4.1,1.7c-3.6,0-6.2-2.5-6.2-6.3s2.6-6.3,6.2-6.3c1.6,0,3,0.5,4,1.7
				V87H237.7z M234.9,97.9c0-2.3-1.6-3.8-3.7-3.8c-2.1,0-3.7,1.5-3.7,3.8s1.6,3.8,3.7,3.8C233.3,101.7,234.9,100.2,234.9,97.9z"/>
			<path class="st0" d="M243.9,86.9h3.4l-4,3.2h-2.5L243.9,86.9z M241.3,91.7h2.9V104h-2.9V91.7z"/>
			<path class="st0" d="M258,96.8v7.2h-2.7v-1.5c-0.7,1.1-2,1.7-3.9,1.7c-2.8,0-4.6-1.5-4.6-3.7c0-2,1.4-3.7,5.1-3.7h3.2v-0.2
				c0-1.7-1-2.7-3.1-2.7c-1.4,0-2.8,0.5-3.7,1.2l-1.1-2.1c1.3-1,3.2-1.5,5.2-1.5C255.9,91.6,258,93.3,258,96.8z M255.1,100.2v-1.4
				h-3c-2,0-2.5,0.7-2.5,1.6c0,1,0.9,1.7,2.3,1.7C253.4,102.1,254.6,101.4,255.1,100.2z"/>
			<path class="st0" d="M281.1,97.9c0,3.8-2.6,6.3-6.2,6.3c-1.6,0-2.9-0.5-3.9-1.7v6h-2.9V91.7h2.7v1.6c1-1.2,2.4-1.7,4.1-1.7
				C278.5,91.6,281.1,94.1,281.1,97.9z M278.2,97.9c0-2.3-1.6-3.8-3.6-3.8s-3.7,1.5-3.7,3.8s1.6,3.8,3.7,3.8S278.2,100.2,278.2,97.9
				z"/>
			<path class="st0" d="M282.6,97.9c0-3.7,2.8-6.3,6.5-6.3c3.8,0,6.6,2.6,6.6,6.3c0,3.7-2.7,6.3-6.6,6.3
				C285.4,104.2,282.6,101.6,282.6,97.9z M292.8,97.9c0-2.3-1.6-3.8-3.7-3.8c-2.1,0-3.6,1.5-3.6,3.8s1.6,3.8,3.6,3.8
				C291.2,101.7,292.8,100.2,292.8,97.9z"/>
			<path class="st0" d="M305.3,91.6v2.7c-0.3,0-0.5-0.1-0.7-0.1c-2.2,0-3.6,1.3-3.6,3.8v6h-2.9V91.7h2.7v1.8
				C301.8,92.2,303.3,91.6,305.3,91.6z"/>
			<path class="st0" d="M313.3,97.9c0-3.7,2.8-6.3,6.6-6.3c2.4,0,4.3,1,5.2,2.9l-2.2,1.3c-0.7-1.2-1.8-1.7-3.1-1.7
				c-2.1,0-3.7,1.5-3.7,3.8c0,2.4,1.6,3.8,3.7,3.8c1.2,0,2.3-0.5,3.1-1.7l2.2,1.3c-0.9,1.8-2.9,2.9-5.2,2.9
				C316.1,104.2,313.3,101.6,313.3,97.9z"/>
			<path class="st0" d="M326.3,97.9c0-3.7,2.8-6.3,6.5-6.3c3.8,0,6.6,2.6,6.6,6.3c0,3.7-2.7,6.3-6.6,6.3
				C329,104.2,326.3,101.6,326.3,97.9z M336.5,97.9c0-2.3-1.6-3.8-3.7-3.8c-2.1,0-3.6,1.5-3.6,3.8s1.6,3.8,3.6,3.8
				C334.9,101.7,336.5,100.2,336.5,97.9z"/>
			<path class="st0" d="M354,97v7h-2.9v-6.7c0-2.2-1.1-3.2-2.9-3.2c-2,0-3.4,1.2-3.4,3.7v6.2h-2.9V91.7h2.7v1.6
				c0.9-1.1,2.4-1.7,4.2-1.7C351.8,91.6,354,93.3,354,97z"/>
			<path class="st0" d="M356,102.8l1.1-2.2c1.1,0.7,2.7,1.2,4.3,1.2c1.8,0,2.6-0.5,2.6-1.4c0-2.3-7.6-0.1-7.6-5
				c0-2.3,2.1-3.8,5.4-3.8c1.6,0,3.5,0.4,4.6,1.1l-1.1,2.2c-1.2-0.7-2.3-0.9-3.5-0.9c-1.7,0-2.6,0.6-2.6,1.4c0,2.5,7.6,0.3,7.6,5.1
				c0,2.3-2.1,3.8-5.6,3.8C359.2,104.2,357.1,103.6,356,102.8z"/>
			<path class="st0" d="M376.4,103.3c-0.7,0.6-1.7,0.8-2.8,0.8c-2.7,0-4.2-1.4-4.2-4.1v-5.9h-2v-2.3h2V89h2.9v2.8h3.3v2.3h-3.3v5.8
				c0,1.2,0.6,1.8,1.7,1.8c0.6,0,1.2-0.2,1.6-0.5L376.4,103.3z"/>
			<path class="st0" d="M385.7,91.6v2.7c-0.3,0-0.5-0.1-0.7-0.1c-2.2,0-3.6,1.3-3.6,3.8v6h-2.9V91.7h2.7v1.8
				C382.1,92.2,383.6,91.6,385.7,91.6z"/>
			<path class="st0" d="M399.9,91.7V104h-2.7v-1.6c-0.9,1.1-2.4,1.7-4,1.7c-3.1,0-5.3-1.7-5.3-5.4v-7h2.9v6.6c0,2.2,1.1,3.3,2.9,3.3
				c2,0,3.4-1.2,3.4-3.7v-6.2H399.9z"/>
			<path class="st0" d="M403,88c0-1,0.8-1.7,1.8-1.7s1.8,0.7,1.8,1.7c0,1-0.8,1.8-1.8,1.8C403.8,89.7,403,89,403,88z M403.4,91.7
				h2.9V104h-2.9V91.7z"/>
			<path class="st0" d="M416.9,91.6v2.7c-0.3,0-0.5-0.1-0.7-0.1c-2.2,0-3.6,1.3-3.6,3.8v6h-2.9V91.7h2.7v1.8
				C413.4,92.2,414.9,91.6,416.9,91.6z"/>
			<path class="st0" d="M437.8,91.7V104h-2.7v-1.6c-0.9,1.1-2.4,1.7-4,1.7c-3.1,0-5.3-1.7-5.3-5.4v-7h2.9v6.6c0,2.2,1.1,3.3,2.9,3.3
				c2,0,3.4-1.2,3.4-3.7v-6.2H437.8z"/>
			<path class="st0" d="M453.4,97v7h-2.9v-6.7c0-2.2-1.1-3.2-2.9-3.2c-2,0-3.4,1.2-3.4,3.7v6.2h-2.9V91.7h2.7v1.6
				c0.9-1.1,2.4-1.7,4.2-1.7C451.3,91.6,453.4,93.3,453.4,97z"/>
			<path class="st0" d="M31.6,133v7h-2.9v-6.7c0-2.2-1-3.2-2.8-3.2c-1.9,0-3.2,1.2-3.2,3.7v6.2h-2.9v-6.7c0-2.2-1-3.2-2.8-3.2
				c-1.9,0-3.2,1.2-3.2,3.7v6.2H11v-12.3h2.7v1.6c0.9-1.1,2.3-1.7,4-1.7c1.8,0,3.3,0.7,4.1,2c1-1.3,2.6-2,4.6-2
				C29.5,127.6,31.6,129.3,31.6,133z"/>
			<path class="st0" d="M46.9,127.7V140h-2.7v-1.6c-0.9,1.1-2.4,1.7-4,1.7c-3.1,0-5.3-1.7-5.3-5.4v-7h2.9v6.6c0,2.2,1.1,3.3,2.9,3.3
				c2,0,3.4-1.2,3.4-3.7v-6.2H46.9z"/>
			<path class="st0" d="M62.6,133v7h-2.9v-6.7c0-2.2-1.1-3.2-2.9-3.2c-2,0-3.4,1.2-3.4,3.7v6.2h-2.9v-12.3h2.7v1.6
				c0.9-1.1,2.4-1.7,4.2-1.7C60.4,127.6,62.6,129.3,62.6,133z"/>
			<path class="st0" d="M78.1,123V140h-2.8v-1.6c-1,1.2-2.4,1.7-4.1,1.7c-3.6,0-6.2-2.5-6.2-6.3s2.6-6.3,6.2-6.3c1.6,0,3,0.5,4,1.7
				V123H78.1z M75.3,133.9c0-2.3-1.6-3.8-3.7-3.8c-2.1,0-3.7,1.5-3.7,3.8s1.6,3.8,3.7,3.8C73.7,137.7,75.3,136.2,75.3,133.9z"/>
			<path class="st0" d="M80.7,133.9c0-3.7,2.8-6.3,6.5-6.3c3.8,0,6.6,2.6,6.6,6.3c0,3.7-2.7,6.3-6.6,6.3
				C83.4,140.2,80.7,137.6,80.7,133.9z M90.8,133.9c0-2.3-1.6-3.8-3.7-3.8c-2.1,0-3.6,1.5-3.6,3.8s1.6,3.8,3.6,3.8
				C89.3,137.7,90.8,136.2,90.8,133.9z"/>
			<path class="st0" d="M122.9,133v7h-2.9v-6.7c0-2.2-1-3.2-2.8-3.2c-1.9,0-3.2,1.2-3.2,3.7v6.2h-2.9v-6.7c0-2.2-1-3.2-2.8-3.2
				c-1.9,0-3.2,1.2-3.2,3.7v6.2h-2.9v-12.3h2.7v1.6c0.9-1.1,2.3-1.7,4-1.7c1.8,0,3.3,0.7,4.1,2c1-1.3,2.6-2,4.6-2
				C120.9,127.6,122.9,129.3,122.9,133z"/>
			<path class="st0" d="M138,134.8h-9.6c0.3,1.8,1.8,2.9,4,2.9c1.4,0,2.5-0.4,3.3-1.3l1.5,1.8c-1.1,1.3-2.8,2-4.9,2
				c-4.1,0-6.8-2.6-6.8-6.3s2.7-6.3,6.3-6.3c3.6,0,6.2,2.5,6.2,6.3C138,134.2,138,134.5,138,134.8z M128.3,132.9h7
				c-0.2-1.8-1.6-3-3.5-3C130,129.9,128.6,131.1,128.3,132.9z"/>
			<path class="st0" d="M136.5,143.9l0.8-2.1c0.4,0.3,1,0.5,1.7,0.5c1.1,0,1.7-0.6,1.7-2v-12.6h2.9v12.5c0,2.7-1.5,4.4-4.3,4.4
				C138.2,144.6,137.2,144.4,136.5,143.9z M140.3,124c0-1,0.8-1.7,1.8-1.7s1.8,0.7,1.8,1.7c0,1-0.8,1.8-1.8,1.8
				C141.1,125.7,140.3,125,140.3,124z"/>
			<path class="st0" d="M146.1,133.9c0-3.7,2.8-6.3,6.5-6.3c3.8,0,6.6,2.6,6.6,6.3c0,3.7-2.7,6.3-6.6,6.3
				C148.9,140.2,146.1,137.6,146.1,133.9z M156.3,133.9c0-2.3-1.6-3.8-3.7-3.8c-2.1,0-3.6,1.5-3.6,3.8s1.6,3.8,3.6,3.8
				C154.7,137.7,156.3,136.2,156.3,133.9z"/>
			<path class="st0" d="M168.8,127.6v2.7c-0.3,0-0.5-0.1-0.7-0.1c-2.2,0-3.6,1.3-3.6,3.8v6h-2.9v-12.3h2.7v1.8
				C165.3,128.2,166.8,127.6,168.8,127.6z"/>
			<path class="st0" d="M170,138.3c0-1.1,0.9-1.9,1.9-1.9c1,0,1.9,0.8,1.9,1.9c0,1.1-0.9,1.9-1.9,1.9
				C170.8,140.2,170,139.4,170,138.3z"/>
			<path class="st0" d="M50.1,237.8c0,1.3-1.1,2.4-2.6,2.4c-1.5,0-2.6-1-2.6-2.4s1.1-2.4,2.6-2.4C49.1,235.3,50.1,236.4,50.1,237.8z
				 M50.1,251.6h-5.2l0.9-10.1h3.5L50.1,251.6z"/>
			<path class="st0" d="M66.9,237.9c0,3.7-2.8,5.9-7.2,5.9h-2.8v4.2h-4.6v-16.1h7.4C64.1,231.9,66.9,234.2,66.9,237.9z M62.3,237.9
				c0-1.5-0.9-2.4-2.8-2.4h-2.5v4.7h2.5C61.3,240.2,62.3,239.3,62.3,237.9z"/>
			<path class="st0" d="M67.8,241.8c0-3.7,3-6.4,7-6.4c4.1,0,7,2.7,7,6.4c0,3.8-2.9,6.5-7,6.5C70.8,248.2,67.8,245.5,67.8,241.8z
				 M77.5,241.8c0-1.9-1.1-2.9-2.6-2.9c-1.5,0-2.6,1.1-2.6,2.9c0,1.9,1.1,3,2.6,3C76.4,244.7,77.5,243.7,77.5,241.8z"/>
			<path class="st0" d="M92.1,235.3v3.9c-0.4,0-0.7-0.1-1-0.1c-1.8,0-3,0.9-3,3.1v5.7h-4.4v-12.5h4.2v1.5
				C88.8,235.9,90.2,235.3,92.1,235.3z"/>
			<path class="st0" d="M108.7,247.5c-0.8,0.5-1.9,0.7-3,0.7c-3.2,0-5.1-1.6-5.1-4.8v-4.2h-1.8V236h1.8v-3.2h4.4v3.2h2.9v3.3H105
				v4.1c0,0.9,0.5,1.4,1.3,1.4c0.5,0,1-0.1,1.3-0.4L108.7,247.5z"/>
			<path class="st0" d="M109,241.8c0-3.7,3-6.4,7-6.4c4.1,0,7,2.7,7,6.4c0,3.8-2.9,6.5-7,6.5C112,248.2,109,245.5,109,241.8z
				 M118.7,241.8c0-1.9-1.1-2.9-2.6-2.9c-1.5,0-2.6,1.1-2.6,2.9c0,1.9,1.1,3,2.6,3C117.6,244.7,118.7,243.7,118.7,241.8z"/>
			<path class="st0" d="M138.1,231V248H134v-1.2c-0.8,1-2,1.4-3.7,1.4c-3.4,0-6.1-2.5-6.1-6.5c0-4,2.7-6.4,6.1-6.4
				c1.4,0,2.6,0.4,3.4,1.3V231H138.1z M133.8,241.8c0-1.9-1.1-2.9-2.6-2.9c-1.5,0-2.6,1.1-2.6,2.9c0,1.9,1.1,3,2.6,3
				C132.7,244.7,133.8,243.7,133.8,241.8z"/>
			<path class="st0" d="M139.9,241.8c0-3.7,3-6.4,7-6.4c4.1,0,7,2.7,7,6.4c0,3.8-2.9,6.5-7,6.5C142.9,248.2,139.9,245.5,139.9,241.8
				z M149.6,241.8c0-1.9-1.1-2.9-2.6-2.9c-1.5,0-2.6,1.1-2.6,2.9c0,1.9,1.1,3,2.6,3C148.5,244.7,149.6,243.7,149.6,241.8z"/>
			<path class="st0" d="M174.9,242.9h-9.1c0.4,1.3,1.4,2,3.1,2c1.2,0,2-0.3,2.9-1.1l2.3,2.4c-1.2,1.3-2.9,2-5.3,2
				c-4.4,0-7.3-2.7-7.3-6.5c0-3.7,2.9-6.4,6.9-6.4c3.7,0,6.7,2.3,6.7,6.5C175,242.1,175,242.5,174.9,242.9z M165.8,240.6h5.1
				c-0.2-1.3-1.2-2.1-2.6-2.1C167,238.4,166.1,239.3,165.8,240.6z"/>
			<path class="st0" d="M175.8,246.9l1.3-3c1.1,0.7,2.8,1.2,4.3,1.2c1.5,0,2-0.3,2-0.9c0-1.7-7.4,0.2-7.4-4.8c0-2.3,2.2-4.1,6.1-4.1
				c1.7,0,3.7,0.4,4.9,1.1l-1.3,3c-1.2-0.7-2.5-0.9-3.6-0.9c-1.5,0-2,0.4-2,0.9c0,1.7,7.3-0.1,7.3,4.8c0,2.3-2.1,4.1-6.2,4.1
				C179.2,248.2,177,247.7,175.8,246.9z"/>
			<path class="st0" d="M197.8,247.5c-0.8,0.5-1.9,0.7-3,0.7c-3.2,0-5.1-1.6-5.1-4.8v-4.2h-1.8V236h1.8v-3.2h4.4v3.2h2.9v3.3H194
				v4.1c0,0.9,0.5,1.4,1.3,1.4c0.5,0,1-0.1,1.3-0.4L197.8,247.5z"/>
			<path class="st0" d="M198.1,241.8c0-3.7,3-6.4,7-6.4c4.1,0,7,2.7,7,6.4c0,3.8-2.9,6.5-7,6.5C201,248.2,198.1,245.5,198.1,241.8z
				 M207.7,241.8c0-1.9-1.1-2.9-2.6-2.9c-1.5,0-2.6,1.1-2.6,2.9c0,1.9,1.1,3,2.6,3C206.6,244.7,207.7,243.7,207.7,241.8z"/>
			<path class="st0" d="M233.5,235.6l-5.4,13c-1.3,3.2-3.2,4.2-5.6,4.2c-1.3,0-2.8-0.4-3.6-1.1l1.5-3.1c0.5,0.5,1.2,0.7,1.9,0.7
				c0.9,0,1.3-0.3,1.7-1.1l-5.3-12.6h4.5l3.1,7.6l3.1-7.6H233.5z"/>
			<path class="st0" d="M262.2,240.9v7.1h-4.4v-6.4c0-1.8-0.7-2.6-1.9-2.6c-1.3,0-2.2,0.9-2.2,2.8v6.2h-4.4v-6.4
				c0-1.8-0.7-2.6-1.9-2.6c-1.3,0-2.2,0.9-2.2,2.8v6.2h-4.4v-12.5h4.2v1.3c0.9-1,2.3-1.5,3.7-1.5c1.7,0,3.2,0.6,4,2
				c1-1.2,2.5-2,4.3-2C260,235.3,262.2,237,262.2,240.9z"/>
			<path class="st0" d="M277.8,235.6V248h-4.2v-1.3c-0.9,1-2.3,1.5-3.7,1.5c-3.1,0-5.3-1.7-5.3-5.7v-7h4.4v6.3
				c0,1.9,0.8,2.7,2.1,2.7c1.3,0,2.3-0.9,2.3-2.9v-6H277.8z"/>
			<path class="st0" d="M279.6,241.8c0-3.7,3-6.4,7.2-6.4c2.8,0,5,1.3,5.8,3.4l-3.4,1.7c-0.6-1.2-1.5-1.7-2.5-1.7
				c-1.5,0-2.7,1.1-2.7,2.9c0,1.9,1.2,3,2.7,3c1,0,1.9-0.5,2.5-1.7l3.4,1.7c-0.9,2.2-3,3.4-5.8,3.4
				C282.6,248.2,279.6,245.6,279.6,241.8z"/>
			<path class="st0" d="M307.2,240.9v7.1h-4.4v-6.4c0-1.8-0.8-2.6-2-2.6c-1.4,0-2.5,0.9-2.5,2.9v6H294V231h4.4v5.7
				c1-0.9,2.3-1.4,3.7-1.4C305,235.3,307.2,237,307.2,240.9z"/>
			<path class="st0" d="M309.2,241.8c0-3.7,3-6.4,7-6.4c4.1,0,7,2.7,7,6.4c0,3.8-2.9,6.5-7,6.5C312.1,248.2,309.2,245.5,309.2,241.8
				z M318.8,241.8c0-1.9-1.1-2.9-2.6-2.9c-1.5,0-2.6,1.1-2.6,2.9c0,1.9,1.1,3,2.6,3C317.7,244.7,318.8,243.7,318.8,241.8z"/>
			<path class="st0" d="M352.8,240.9v7.1h-4.4v-6.4c0-1.8-0.7-2.6-1.9-2.6c-1.3,0-2.2,0.9-2.2,2.8v6.2h-4.4v-6.4
				c0-1.8-0.7-2.6-1.9-2.6c-1.3,0-2.2,0.9-2.2,2.8v6.2h-4.4v-12.5h4.2v1.3c0.9-1,2.3-1.5,3.7-1.5c1.7,0,3.2,0.6,4,2
				c1-1.2,2.5-2,4.3-2C350.6,235.3,352.8,237,352.8,240.9z"/>
			<path class="st0" d="M367,241.1v6.9h-4.1v-1.6c-0.6,1.2-1.9,1.8-3.7,1.8c-3,0-4.6-1.7-4.6-3.8c0-2.3,1.7-3.7,5.5-3.7h2.5
				c-0.1-1.3-0.9-2-2.6-2c-1.2,0-2.5,0.4-3.4,1.1l-1.5-3c1.4-0.9,3.5-1.4,5.5-1.4C364.7,235.3,367,237.1,367,241.1z M362.6,244v-1.1
				h-1.9c-1.4,0-1.9,0.5-1.9,1.3c0,0.7,0.6,1.3,1.6,1.3C361.4,245.5,362.3,245,362.6,244z M362,234.1h-3.1l3.1-3.5h4.4L362,234.1z"
				/>
			<path class="st0" d="M368.5,246.9l1.3-3c1.1,0.7,2.8,1.2,4.3,1.2c1.5,0,2-0.3,2-0.9c0-1.7-7.4,0.2-7.4-4.8c0-2.3,2.2-4.1,6.1-4.1
				c1.7,0,3.7,0.4,4.9,1.1l-1.3,3c-1.2-0.7-2.5-0.9-3.6-0.9c-1.5,0-2,0.4-2,0.9c0,1.7,7.3-0.1,7.3,4.8c0,2.3-2.1,4.1-6.2,4.1
				C371.9,248.2,369.7,247.7,368.5,246.9z"/>
			<path class="st0" d="M386.3,245.6c0,0.6-0.1,1.1-0.8,2.6l-1.4,3.4h-2.7l1.1-3.7c-0.8-0.4-1.4-1.2-1.4-2.3c0-1.6,1.1-2.6,2.6-2.6
				C385.2,243,386.3,244.1,386.3,245.6z"/>
			<path class="st0" d="M393.6,246.9l1.3-3c1.1,0.7,2.8,1.2,4.3,1.2c1.5,0,2-0.3,2-0.9c0-1.7-7.4,0.2-7.4-4.8c0-2.3,2.2-4.1,6.1-4.1
				c1.7,0,3.7,0.4,4.9,1.1l-1.3,3c-1.2-0.7-2.5-0.9-3.6-0.9c-1.5,0-2,0.4-2,0.9c0,1.7,7.3-0.1,7.3,4.8c0,2.3-2.1,4.1-6.2,4.1
				C397,248.2,394.8,247.7,393.6,246.9z"/>
			<path class="st0" d="M419.6,242.9h-9.1c0.4,1.3,1.4,2,3.1,2c1.2,0,2-0.3,2.9-1.1l2.3,2.4c-1.2,1.3-2.9,2-5.3,2
				c-4.4,0-7.3-2.7-7.3-6.5c0-3.7,2.9-6.4,6.9-6.4c3.7,0,6.7,2.3,6.7,6.5C419.7,242.1,419.6,242.5,419.6,242.9z M410.5,240.6h5.1
				c-0.2-1.3-1.2-2.1-2.6-2.1C411.7,238.4,410.7,239.3,410.5,240.6z M413.8,234.1h-3.1l3.1-3.5h4.4L413.8,234.1z"/>
			<path class="st0" d="M121.9,272h3v3.3h-2.9v8.7h-4.4v-8.7h-1.8V272h1.8v-0.3c0-3,1.9-4.9,5.2-4.9c1.1,0,2.2,0.2,2.9,0.6l-1.1,3.1
				c-0.4-0.2-0.9-0.4-1.3-0.4c-0.9,0-1.4,0.5-1.4,1.6V272z"/>
			<path class="st0" d="M138.8,278.9h-9.1c0.4,1.3,1.4,2,3.1,2c1.2,0,2-0.3,2.9-1.1l2.3,2.4c-1.2,1.3-2.9,2-5.3,2
				c-4.4,0-7.3-2.7-7.3-6.5c0-3.7,2.9-6.4,6.9-6.4c3.7,0,6.7,2.3,6.7,6.5C138.9,278.1,138.8,278.5,138.8,278.9z M129.7,276.6h5.1
				c-0.2-1.3-1.2-2.1-2.6-2.1C130.9,274.5,129.9,275.3,129.7,276.6z"/>
			<path class="st0" d="M140.7,267h4.4V284h-4.4V267z"/>
			<path class="st0" d="M147.2,267.9c0-1.3,1.1-2.3,2.7-2.3c1.6,0,2.7,0.9,2.7,2.3c0,1.4-1.1,2.4-2.7,2.4
				C148.2,270.2,147.2,269.2,147.2,267.9z M147.7,271.6h4.4V284h-4.4V271.6z"/>
			<path class="st0" d="M165.5,280.7v3.3H154v-2.6l5.8-6.6h-5.6v-3.2h11.1v2.6l-5.8,6.6H165.5z"/>
			<path class="st0" d="M186.9,276.9v7.1h-4.4v-6.4c0-1.8-0.8-2.6-2-2.6c-1.4,0-2.5,0.9-2.5,2.9v6h-4.4V267h4.4v5.7
				c1-0.9,2.3-1.4,3.7-1.4C184.7,271.3,186.9,273,186.9,276.9z"/>
			<path class="st0" d="M188.8,277.8c0-3.7,3-6.4,7-6.4c4.1,0,7,2.7,7,6.4c0,3.8-2.9,6.5-7,6.5C191.8,284.2,188.8,281.5,188.8,277.8
				z M198.5,277.8c0-1.9-1.1-2.9-2.6-2.9c-1.5,0-2.6,1.1-2.6,2.9c0,1.9,1.1,3,2.6,3C197.4,280.7,198.5,279.7,198.5,277.8z"/>
			<path class="st0" d="M217.5,271.6l-5.4,13c-1.3,3.2-3.2,4.2-5.6,4.2c-1.3,0-2.8-0.4-3.6-1.1l1.5-3.1c0.5,0.5,1.2,0.7,1.9,0.7
				c0.9,0,1.3-0.3,1.7-1.1l-5.3-12.6h4.5l3.1,7.6l3.1-7.6H217.5z"/>
			<path class="st0" d="M238,271.6l-5.4,13c-1.3,3.2-3.2,4.2-5.6,4.2c-1.3,0-2.8-0.4-3.6-1.1l1.5-3.1c0.5,0.5,1.2,0.7,1.9,0.7
				c0.9,0,1.3-0.3,1.7-1.1l-5.3-12.6h4.5l3.1,7.6l3.1-7.6H238z"/>
			<path class="st0" d="M244.3,282.9l1.3-3c1.1,0.7,2.8,1.2,4.3,1.2c1.5,0,2-0.3,2-0.9c0-1.7-7.4,0.2-7.4-4.8c0-2.3,2.2-4.1,6.1-4.1
				c1.7,0,3.7,0.4,4.9,1.1l-1.3,3c-1.2-0.7-2.5-0.9-3.6-0.9c-1.5,0-2,0.4-2,0.9c0,1.7,7.3-0.1,7.3,4.8c0,2.3-2.1,4.1-6.2,4.1
				C247.7,284.2,245.6,283.7,244.3,282.9z"/>
			<path class="st0" d="M257.2,267.9c0-1.3,1.1-2.3,2.7-2.3c1.6,0,2.7,0.9,2.7,2.3c0,1.4-1.1,2.4-2.7,2.4
				C258.3,270.2,257.2,269.2,257.2,267.9z M257.7,271.6h4.4V284h-4.4V271.6z"/>
			<path class="st0" d="M277.3,278.9h-9.1c0.4,1.3,1.4,2,3.1,2c1.2,0,2-0.3,2.9-1.1l2.3,2.4c-1.2,1.3-2.9,2-5.3,2
				c-4.4,0-7.3-2.7-7.3-6.5c0-3.7,2.9-6.4,6.9-6.4c3.7,0,6.7,2.3,6.7,6.5C277.4,278.1,277.3,278.5,277.3,278.9z M268.2,276.6h5.1
				c-0.2-1.3-1.2-2.1-2.6-2.1C269.4,274.5,268.4,275.3,268.2,276.6z"/>
			<path class="st0" d="M300.5,276.9v7.1h-4.4v-6.4c0-1.8-0.7-2.6-1.9-2.6c-1.3,0-2.2,0.9-2.2,2.8v6.2h-4.4v-6.4
				c0-1.8-0.7-2.6-1.9-2.6c-1.3,0-2.2,0.9-2.2,2.8v6.2h-4.4v-12.5h4.2v1.3c0.9-1,2.3-1.5,3.7-1.5c1.7,0,3.2,0.6,4,2
				c1-1.2,2.5-2,4.3-2C298.3,271.3,300.5,273,300.5,276.9z"/>
			<path class="st0" d="M316.9,277.8c0,4-2.7,6.4-6.1,6.4c-1.4,0-2.6-0.4-3.5-1.3v5.6H303v-16.9h4.2v1.2c0.8-1,2-1.4,3.7-1.4
				C314.2,271.3,316.9,273.8,316.9,277.8z M312.5,277.8c0-1.9-1.1-3-2.6-3s-2.6,1.1-2.6,3s1.1,3,2.6,3S312.5,279.7,312.5,277.8z"/>
			<path class="st0" d="M327.1,271.3v3.9c-0.4,0-0.7-0.1-1-0.1c-1.8,0-3,0.9-3,3.1v5.7h-4.4v-12.5h4.2v1.5
				C323.8,271.9,325.3,271.3,327.1,271.3z"/>
			<path class="st0" d="M341.2,278.9h-9.1c0.4,1.3,1.4,2,3.1,2c1.2,0,2-0.3,2.9-1.1l2.3,2.4c-1.2,1.3-2.9,2-5.3,2
				c-4.4,0-7.3-2.7-7.3-6.5c0-3.7,2.9-6.4,6.9-6.4c3.7,0,6.7,2.3,6.7,6.5C341.3,278.1,341.2,278.5,341.2,278.9z M332.1,276.6h5.1
				c-0.2-1.3-1.2-2.1-2.6-2.1C333.3,274.5,332.3,275.3,332.1,276.6z"/>
			<path class="st0" d="M342.5,281.8c0-1.4,1.1-2.4,2.6-2.4c1.5,0,2.6,1,2.6,2.4c0,1.3-1.1,2.4-2.6,2.4
				C343.6,284.2,342.5,283.1,342.5,281.8z M342.5,267.9h5.2l-0.9,10.2h-3.5L342.5,267.9z"/>
		</g>
	</g>
	<g>
		<path class="st1" d="M225.3,406.3c2.8,0,5-2.2,5-5c0-2.8-2.2-5-5-5c-2.8,0-5,2.2-5,5C220.3,404,222.6,406.3,225.3,406.3"/>
		<path class="st1" d="M245.2,435.5c-0.7,0-1.3-0.6-1.3-1.3v-42h-8.1v43.8c0,3.5,2.8,6.3,6.3,6.3h6.2v-6.9H245.2z"/>
		<polygon class="st1" points="153.8,395.3 153.8,405.9 160.7,405.9 160.7,403.1 171.2,403.1 171.2,435.5 168,435.5 168,442.4 
			182.9,442.4 182.9,435.5 179.7,435.5 179.7,403.1 190.2,403.1 190.2,405.9 197,405.9 197,395.3 		"/>
		<polygon class="st1" points="229.4,435.5 229.4,411.2 212,411.2 212,418.1 221.3,418.1 221.3,435.5 212,435.5 212,442.4 
			232.7,442.4 232.7,435.5 		"/>
		<polygon class="st1" points="190.2,411.2 190.2,435.5 186.9,435.5 186.9,442.4 207.9,442.4 207.9,435.5 198.3,435.5 198.3,418.1 
			207.9,418.1 207.9,411.2 195.2,411.2 		"/>
		<path class="st1" d="M288.2,423.6c0.1-1,0.4-2,0.8-2.8s1.1-1.5,1.8-2.1c0.7-0.6,1.6-1,2.5-1.3c0.9-0.3,1.9-0.4,3-0.4
			c2.3,0,3.9,0.6,5.1,1.8c1.1,1.2,1.7,2.8,1.7,4.8H288.2z M309.1,417.5c-0.9-1.7-2-3-3.4-4c-1.4-1-2.9-1.7-4.5-2.1
			c-1.6-0.4-3.2-0.6-4.8-0.6c-2.3,0-4.4,0.3-6.4,1c-2,0.7-3.7,1.7-5.2,3c-1.5,1.3-2.6,3-3.5,5c-0.8,2-1.3,4.3-1.3,7
			c0,0.9,0.1,1.8,0.1,2.6c0.2,1.5,0.5,2.8,1,4.1c0.2,0.5,1.7,4.3,5.8,6.7c2.7,1.6,6.5,2.2,11.7,2.2c5.2,0,7.8-0.2,7.8-0.2v-6.6v0
			c0,0-3.6,0-8.1,0c-6.5,0-8.7-4-9.2-5.1c-0.1-0.3-0.3-0.7-0.3-1h21.4C310.8,426.4,310.6,420.4,309.1,417.5"/>
		<path class="st1" d="M277.1,423.8v-10v-0.1c0-0.3-0.2-0.6-0.5-0.7c-1-0.4-2.4-0.9-4.1-1.3c-2-0.5-4.1-0.8-6.4-0.8
			c-2.4,0-4.7,0.4-6.7,1.1c-2.1,0.7-3.8,1.7-5.4,3.1c-1.5,1.4-2.7,3.1-3.5,5c-0.8,2-1.3,4.2-1.3,6.8c0,2.4,0.4,4.6,1.1,6.5
			c0.7,2,1.6,3.4,3,4.9c2.2,2.3,6.5,4,11.6,4.2l10,0v-6.9h-7.7c-3.3,0-6.4-1.5-7.3-2.3c-0.8-0.8-1.4-1.8-1.9-2.9
			c-0.4-1.1-0.7-2.3-0.7-3.6c0-1.6,0.3-2.9,0.8-4.1c0.5-1.1,1.3-2.1,2.1-2.8c0.9-0.7,1.9-1.3,3-1.6c1.1-0.3,2.2-0.5,3.4-0.5
			c1.3,0,2.5,0.1,3.8,0.4v5.6H277.1z"/>
	</g>
</g>
</svg>
