<?xml version="1.0" encoding="utf-8"?>
<!-- Generator: Adobe Illustrator 18.0.0, SVG Export Plug-In . SVG Version: 6.00 Build 0)  -->
<!DOCTYPE svg PUBLIC "-//W3C//DTD SVG 1.1//EN" "http://www.w3.org/Graphics/SVG/1.1/DTD/svg11.dtd">
<svg version="1.1" id="Capa_1" xmlns="http://www.w3.org/2000/svg" xmlns:xlink="http://www.w3.org/1999/xlink" x="0px" y="0px"
	 viewBox="0 0 123 68.3" enable-background="new 0 0 123 68.3" xml:space="preserve">
<g>
	<path fill="#FF5920" d="M55.6,13.4c2.1,0,3.7-1.7,3.7-3.7c0-2.1-1.7-3.7-3.7-3.7c-2.1,0-3.7,1.7-3.7,3.7
		C51.9,11.8,53.6,13.4,55.6,13.4"/>
	<path fill="#FF5920" d="M70.5,35.3c-0.5,0-1-0.4-1-1V2.9h-6.1v32.8c0,2.6,2.1,4.7,4.7,4.7h4.6v-5.1H70.5z"/>
	<polygon fill="#FF5920" points="2.2,5.2 2.2,13.2 7.3,13.2 7.3,11.1 15.2,11.1 15.2,35.3 12.8,35.3 12.8,40.4 23.9,40.4 23.9,35.3 
		21.6,35.3 21.6,11.1 29.4,11.1 29.4,13.2 34.5,13.2 34.5,5.2 	"/>
	<polygon fill="#FF5920" points="58.7,35.3 58.7,17.1 45.7,17.1 45.7,22.3 52.6,22.3 52.6,35.3 45.7,35.3 45.7,40.4 61.2,40.4 
		61.2,35.3 	"/>
	<polygon fill="#FF5920" points="29.4,17.1 29.4,35.3 27,35.3 27,40.4 42.6,40.4 42.6,35.3 35.5,35.3 35.5,22.3 42.6,22.3 
		42.6,17.1 33.1,17.1 	"/>
	<path fill="#FF5920" d="M102.6,26.4c0.1-0.8,0.3-1.5,0.6-2.1c0.4-0.6,0.8-1.1,1.4-1.5s1.2-0.7,1.9-0.9c0.7-0.2,1.4-0.3,2.2-0.3
		c1.7,0,2.9,0.4,3.8,1.3c0.8,0.9,1.2,2.1,1.2,3.6H102.6z M118.2,21.8c-0.6-1.2-1.5-2.2-2.5-3c-1-0.7-2.1-1.3-3.4-1.6
		c-1.2-0.3-2.4-0.5-3.6-0.5c-1.7,0-3.3,0.2-4.8,0.7c-1.5,0.5-2.8,1.2-3.9,2.2c-1.1,1-2,2.2-2.6,3.7c-0.6,1.5-0.9,3.2-0.9,5.2
		c0,0.7,0,1.3,0.1,1.9c0.1,1.1,0.4,2.1,0.7,3.1c0.1,0.4,1.3,3.2,4.3,5c2,1.2,4.8,1.7,8.7,1.7c3.9,0,5.8-0.2,5.8-0.2v-5v0
		c0,0-2.7,0-6,0c-4.9,0-6.5-3-6.9-3.8c-0.1-0.3-0.2-0.5-0.3-0.8h16C119.5,28.5,119.3,24,118.2,21.8"/>
	<path fill="#FF5920" d="M94.3,26.5V19v-0.1c0-0.2-0.1-0.5-0.4-0.5c-0.8-0.3-1.8-0.6-3-1c-1.5-0.4-3.1-0.6-4.8-0.6
		c-1.8,0-3.5,0.3-5,0.8c-1.5,0.5-2.9,1.3-4,2.3c-1.1,1-2,2.3-2.7,3.8c-0.6,1.5-1,3.2-1,5.1c0,1.8,0.3,3.4,0.8,4.9
		c0.5,1.5,1.2,2.6,2.2,3.6c1.7,1.7,4.9,3,8.6,3.1l7.5,0v-5.1h-5.8c-2.4,0-4.8-1.1-5.4-1.7c-0.6-0.6-1.1-1.3-1.4-2.1
		c-0.3-0.8-0.5-1.7-0.5-2.7c0-1.2,0.2-2.2,0.6-3c0.4-0.8,0.9-1.5,1.6-2.1c0.6-0.6,1.4-1,2.2-1.2c0.8-0.3,1.7-0.4,2.5-0.4
		c0.9,0,1.9,0.1,2.8,0.3v4.2H94.3z"/>
	<path fill="#FF5920" d="M20.9,61.1c0,1.4-0.9,2.8-4,2.8c-3.1,0-4-1.4-4-2.8v-6.4c0-1.4,0.9-2.8,4-2.8c3.1,0,4,1.4,4,2.8v0.8
		c0,0.3-0.1,0.4-0.4,0.4h-1.4c-0.3,0-0.4-0.1-0.4-0.4v-0.4c0-0.9-0.6-1.3-1.8-1.3c-1.1,0-1.7,0.4-1.7,1.3v5.5c0,0.9,0.6,1.3,1.7,1.3
		c1.1,0,1.8-0.4,1.8-1.3v-0.7c0-0.3,0.1-0.4,0.4-0.4h1.4c0.3,0,0.4,0.1,0.4,0.4V61.1z"/>
	<path fill="#FF5920" d="M29.5,55.2c0-0.9-0.7-1.3-1.9-1.3s-1.8,0.4-1.8,1.3v5.5c0,0.9,0.7,1.3,1.8,1.3s1.9-0.4,1.9-1.3V55.2z
		 M23.5,54.8c0-1.4,1.1-2.8,4.2-2.8c3.1,0,4.2,1.4,4.2,2.8v6.4c0,1.4-1.1,2.8-4.2,2.8c-3.1,0-4.2-1.4-4.2-2.8V54.8z"/>
	<path fill="#FF5920" d="M37.2,61.9H41c0.3,0,0.4,0.1,0.4,0.4v1.1c0,0.3-0.1,0.4-0.4,0.4h-5.8c-0.3,0-0.4-0.2-0.4-0.4V52.6
		c0-0.3,0.1-0.4,0.4-0.4h1.5c0.3,0,0.4,0.1,0.4,0.4V61.9z"/>
	<path fill="#FF5920" d="M44.3,63.8c-0.3,0-0.4-0.1-0.4-0.4V52.6c0-0.3,0.1-0.4,0.4-0.4h5.9c0.3,0,0.4,0.1,0.4,0.4v1.1
		c0,0.3-0.1,0.4-0.4,0.4h-4v2.8h3.7c0.3,0,0.4,0.1,0.4,0.4v1c0,0.3-0.1,0.4-0.4,0.4h-3.7v3.2h4.1c0.3,0,0.4,0.1,0.4,0.4v1.1
		c0,0.3-0.1,0.4-0.4,0.4H44.3z"/>
	<path fill="#FF5920" d="M61,57.7c0.3,0,0.4,0.1,0.4,0.4v3.1c0,1.4-0.9,2.8-4,2.8c-3.1,0-4-1.4-4-2.8v-6.3c0-1.4,0.9-2.8,4-2.8
		c3.1,0,4,1.4,4,2.8v0.7c0,0.3-0.1,0.4-0.4,0.4h-1.4c-0.3,0-0.4-0.1-0.4-0.4v-0.3c0-0.9-0.6-1.3-1.8-1.3c-1.2,0-1.7,0.4-1.7,1.3v5.5
		c0,0.9,0.6,1.3,1.7,1.3c1.1,0,1.8-0.4,1.8-1.3v-1.2h-1.7c-0.3,0-0.4-0.1-0.4-0.4v-1.1c0-0.3,0.1-0.4,0.4-0.4H61z"/>
	<path fill="#FF5920" d="M66.7,63.3c0,0.3-0.1,0.4-0.4,0.4h-1.5c-0.3,0-0.4-0.1-0.4-0.4V52.6c0-0.3,0.1-0.4,0.4-0.4h1.5
		c0.3,0,0.4,0.1,0.4,0.4V63.3z"/>
	<path fill="#FF5920" d="M75.8,55.2c0-0.9-0.7-1.3-1.9-1.3s-1.8,0.4-1.8,1.3v5.5c0,0.9,0.7,1.3,1.8,1.3s1.9-0.4,1.9-1.3V55.2z
		 M69.8,54.8c0-1.4,1.1-2.8,4.2-2.8c3.1,0,4.2,1.4,4.2,2.8v6.4c0,1.4-1.1,2.8-4.2,2.8c-3.1,0-4.2-1.4-4.2-2.8V54.8z"/>
</g>
</svg>
