<svg width="151" height="151" viewBox="0 0 151 151" fill="none" xmlns="http://www.w3.org/2000/svg">
<g clip-path="url(#clip0)">
<path d="M75.6288 150.285C117.129 150.285 150.771 116.642 150.771 75.1423C150.771 33.6424 117.129 0 75.6288 0C34.1288 0 0.48645 33.6424 0.48645 75.1423C0.48645 116.642 34.1288 150.285 75.6288 150.285Z" fill="#FC5A36"/>
<path d="M115.823 60.9009H37.3081V109.059H115.823V60.9009Z" fill="#FDBF5E"/>
<path d="M115.823 110.371H37.308C36.5585 110.371 35.9963 109.903 35.9963 109.059V60.9009C35.9963 60.1513 36.4648 59.5892 37.308 59.5892H115.823C116.573 59.5892 117.135 60.0576 117.135 60.9009V109.059C117.135 109.809 116.573 110.371 115.823 110.371ZM38.5261 107.841H114.512V62.2126H38.5261V107.841Z" fill="black"/>
<path d="M82.281 55.7477C79.0954 55.7477 76.5657 59.5892 76.5657 62.6811V109.059C76.5657 105.874 79.0954 102.126 82.281 102.126H109.733V55.7477H82.281Z" fill="white"/>
<path d="M76.5657 110.371C75.8162 110.371 75.254 109.903 75.254 109.059V62.6811C75.254 58.8396 78.2522 54.436 82.1874 54.436H109.64C110.389 54.436 110.951 54.9045 110.951 55.7477V102.126C110.951 102.876 110.483 103.438 109.64 103.438H82.2811C79.845 103.438 77.8774 106.623 77.8774 109.153C77.7838 109.809 77.3153 110.371 76.5657 110.371ZM82.2811 56.9658C79.845 56.9658 77.8774 60.1514 77.8774 62.6811V102.969C79.0018 101.658 80.6883 100.814 82.2811 100.814H108.515V56.9658H82.2811Z" fill="black"/>
<path d="M81.6251 61.463C81.6251 61.0883 81.9062 60.8072 82.281 60.8072H104.674V97.0666H82.281C81.9999 97.0666 81.9062 97.0666 81.6251 97.0666V61.463Z" fill="#E1E6E9"/>
<path d="M70.8504 55.7477C74.036 55.7477 76.5658 59.5892 76.5658 62.6811V109.059C76.5658 105.874 74.036 102.126 70.8504 102.126H43.3982V55.7477H70.8504Z" fill="white"/>
<path d="M76.5657 110.371C75.8161 110.371 75.254 109.903 75.254 109.059C75.254 106.53 73.099 103.344 70.8504 103.344H43.3981C42.6486 103.344 42.0864 102.876 42.0864 102.032V55.7477C42.0864 54.9982 42.5549 54.436 43.3981 54.436H70.8504C74.7855 54.436 77.7837 58.8396 77.7837 62.6811V109.059C77.7837 109.809 77.3152 110.371 76.5657 110.371ZM44.6162 100.814H70.8504C72.5369 100.814 74.1297 101.658 75.254 102.969V62.6811C75.254 60.1514 73.099 56.9658 70.8504 56.9658H44.6162V100.814V100.814Z" fill="black"/>
<path d="M71.5063 97.0666C71.2252 97.0666 71.1315 97.0666 70.8504 97.0666H48.4576V60.8072H70.8504C71.2252 60.8072 71.5063 61.0883 71.5063 61.463V97.0666Z" fill="#E1E6E9"/>
<path d="M54.3603 88.1658H51.8306V90.6955H54.3603V88.1658Z" fill="black"/>
<path d="M61.1999 88.1658H58.6702V90.6955H61.1999V88.1658Z" fill="black"/>
<path d="M68.0396 88.1658H65.5099V90.6955H68.0396V88.1658Z" fill="black"/>
<path d="M52.3927 71.3009L58.5765 82.1694C58.8576 82.5441 59.326 82.5441 59.6071 82.1694L65.7909 71.3009V38.7892H52.3927V71.3009Z" fill="white"/>
<path d="M59.045 83.7622C58.3892 83.7622 57.7333 83.3874 57.3585 82.9189L51.0811 71.6757V37.5712H67.009V71.6757L60.6378 82.8252C60.3567 83.3874 59.7009 83.7622 59.045 83.7622ZM53.6108 70.9261L59.045 80.3892L64.4793 70.9261V40.0072H53.6108V70.9261Z" fill="black"/>
<path d="M61.3874 39.9135H56.7964V71.3009H61.3874V39.9135Z" fill="#2EA2DB"/>
<path d="M52.3927 71.3009L58.5765 82.0757C58.8576 82.4505 59.326 82.4505 59.6071 82.0757L65.7909 71.3009" fill="#FDBF5E"/>
<path d="M59.045 83.7622C58.3891 83.7622 57.7332 83.3874 57.3585 82.9189L51.1747 72.1441L53.3296 70.8324L58.9513 80.5766L64.5729 70.8324L66.7278 72.1441L60.4504 82.8252C60.3567 83.3874 59.7008 83.7622 59.045 83.7622Z" fill="black"/>
<path d="M63.1675 29.2324H55.0161C53.517 29.2324 52.3927 30.3567 52.3927 31.8558V38.6955H65.7909V31.8558C65.7909 30.3567 64.4792 29.2324 63.1675 29.2324Z" fill="#FC5A36"/>
<path d="M67.009 40.0072H51.0811V31.8559C51.0811 29.7009 52.8612 27.9207 55.0162 27.9207H62.9802C64.0108 27.9207 65.0414 28.2955 65.791 29.045C66.5405 29.7946 66.9153 30.8252 66.9153 31.8559L67.009 40.0072ZM53.6108 37.4775H64.4793V31.8559C64.4793 31.1063 63.8234 30.4504 63.0739 30.4504H54.9225C54.1729 30.4504 53.5171 31.1063 53.5171 31.8559V37.4775H53.6108Z" fill="black"/>
<path d="M56.4216 78.5153L58.5766 82.1694C58.8577 82.5441 59.3261 82.5441 59.6072 82.1694L61.7622 78.5153H56.4216Z" fill="black"/>
<path d="M59.045 83.7622C58.3892 83.7622 57.7333 83.3874 57.3586 82.9189L54.173 77.2973H63.8234L60.6378 82.9189C60.3568 83.3874 59.7009 83.7622 59.045 83.7622ZM58.6703 79.827L59.045 80.5766L59.4198 79.827H58.6703Z" fill="black"/>
<path d="M100.645 64.836H85.6541V67.3658H100.645V64.836Z" fill="black"/>
<path d="M100.645 70.9261H85.6541V73.4558H100.645V70.9261Z" fill="black"/>
<path d="M100.645 77.0162H85.6541V79.5459H100.645V77.0162Z" fill="black"/>
<path d="M100.645 83.1063H85.6541V85.636H100.645V83.1063Z" fill="black"/>
<path d="M100.645 89.1964H85.6541V91.7261H100.645V89.1964Z" fill="black"/>
</g>
<defs>
<clipPath id="clip0">
<rect width="150.285" height="150.285" fill="white" transform="translate(0.48645)"/>
</clipPath>
</defs>
</svg>
