<svg width="151" height="151" viewBox="0 0 151 151" fill="none" xmlns="http://www.w3.org/2000/svg">
<g clip-path="url(#clip0)">
<path d="M75.7999 150.285C117.3 150.285 150.942 116.642 150.942 75.1423C150.942 33.6424 117.3 0 75.7999 0C34.3 0 0.657593 33.6424 0.657593 75.1423C0.657593 116.642 34.3 150.285 75.7999 150.285Z" fill="#5EE2C5"/>
<path d="M87.6991 75.0486C87.6991 81.7009 82.3585 87.0414 75.7063 87.0414C69.054 87.0414 63.7135 81.7009 63.7135 75.0486C63.7135 68.3964 69.054 63.0558 75.7063 63.0558C82.3585 63.0558 87.6991 68.3964 87.6991 75.0486Z" fill="#D9D7D8"/>
<path d="M68.9603 75.0486C68.9603 69.3333 72.9892 64.5549 78.3297 63.3369C77.4865 63.1495 76.6432 63.0558 75.7063 63.0558C69.054 63.0558 63.7135 68.3964 63.7135 75.0486C63.7135 81.7009 69.054 87.0414 75.7063 87.0414C76.5495 87.0414 77.4865 86.9477 78.3297 86.7603C72.9892 85.636 68.9603 80.764 68.9603 75.0486Z" fill="#BAB8B9"/>
<path d="M70.6468 40.5694C70.6468 43.9423 67.9297 46.6595 64.5567 46.6595C61.1837 46.6595 58.3729 43.9423 58.3729 40.5694C58.3729 37.1964 61.09 34.4793 64.5567 34.4793C67.9297 34.4793 70.6468 37.1964 70.6468 40.5694Z" fill="#FF4343"/>
<path d="M61.8396 40.5694C61.8396 37.7586 63.7135 35.4162 66.2432 34.6667C65.681 34.4793 65.1189 34.3856 64.5567 34.3856C61.1837 34.3856 58.3729 37.1027 58.3729 40.4757C58.3729 43.8487 61.09 46.5658 64.5567 46.5658C65.1189 46.5658 65.7747 46.4721 66.2432 46.2847C63.7135 45.7225 61.8396 43.3802 61.8396 40.5694Z" fill="#E82D2D"/>
<path d="M111.216 99.8775C111.216 103.25 108.499 106.061 105.126 106.061C101.753 106.061 99.036 103.344 99.036 99.8775C99.036 96.5045 101.753 93.7874 105.126 93.7874C108.499 93.7874 111.216 96.5045 111.216 99.8775Z" fill="#FCEE21"/>
<path d="M102.409 99.8775C102.409 97.0667 104.283 94.7243 106.813 93.9748C106.25 93.7874 105.688 93.6937 105.126 93.6937C101.753 93.6937 99.036 96.4108 99.036 99.7838C99.036 103.157 101.753 105.968 105.126 105.968C105.688 105.968 106.344 105.874 106.813 105.686C104.283 105.031 102.409 102.688 102.409 99.8775Z" fill="#E2CC03"/>
<path d="M55.7495 100.346C55.7495 103.719 53.0324 106.436 49.6594 106.436C46.2865 106.436 43.5693 103.719 43.5693 100.346C43.5693 96.973 46.2865 94.2559 49.6594 94.2559C53.0324 94.2559 55.7495 96.973 55.7495 100.346Z" fill="#58B78C"/>
<path d="M46.9423 100.346C46.9423 97.5351 48.8162 95.1928 51.3459 94.4433C50.7838 94.2559 50.2216 94.1622 49.6594 94.1622C46.2865 94.1622 43.5693 96.8793 43.5693 100.252C43.5693 103.625 46.2865 106.342 49.6594 106.342C50.2216 106.342 50.8774 106.249 51.3459 106.061C48.8162 105.499 46.9423 103.157 46.9423 100.346Z" fill="#46926F"/>
<path d="M87.7928 76.173C87.1369 75.9856 86.3874 76.454 86.2937 77.2036C85.2631 82.1694 80.8594 85.7297 75.8 85.7297C69.8973 85.7297 65.1189 80.9513 65.1189 75.0486C65.1189 69.1459 69.8973 64.3676 75.8 64.3676C80.8594 64.3676 85.2631 67.9279 86.2937 72.8937C86.4811 73.5495 87.1369 74.018 87.7928 73.9243C88.4486 73.7369 88.9171 73.0811 88.8234 72.4252C87.6054 66.2414 82.0775 61.8378 75.8 61.8378C68.4919 61.8378 62.4955 67.8342 62.4955 75.1423C62.4955 82.4504 68.4919 88.4468 75.8 88.4468C82.0775 88.4468 87.6054 83.9495 88.8234 77.8594C88.9171 77.0162 88.4486 76.3604 87.7928 76.173Z" fill="black"/>
<path d="M109.436 75.0486C109.53 74.8613 109.717 74.7676 109.811 74.5802C115.807 67.3658 117.775 60.6198 115.339 55.6541C113.277 51.4378 108.499 49.0018 101.472 48.4396C100.722 48.3459 100.16 48.9081 100.067 49.6577C99.9729 50.4072 100.535 50.9694 101.285 51.0631C105.501 51.3441 110.935 52.6559 112.996 56.7784C114.964 60.8072 113.09 66.7099 107.843 72.8937C107.749 72.9874 107.749 72.9874 107.656 73.0811C104.283 69.5207 100.067 66.0541 95.1945 62.8685C94.6324 58.7459 93.8828 54.9045 92.8522 51.2505C94.1639 51.0631 95.3819 50.9694 96.5999 50.8757C97.3495 50.8757 97.818 50.2198 97.818 49.564C97.818 48.8144 97.1621 48.3459 96.5063 48.3459C95.1008 48.4396 93.6017 48.5333 92.1026 48.7207C91.5405 47.1279 90.9783 45.6288 90.3225 44.1297C86.481 35.5099 81.3279 30.8252 75.7063 30.8252C73.0828 30.8252 70.5531 31.8559 68.1171 33.9171C67.0864 33.355 65.7747 32.9802 64.463 32.9802C60.3405 32.9802 57.0612 36.3532 57.0612 40.382C57.0612 42.818 58.2792 45.0667 60.1531 46.3784C59.872 47.1279 59.5909 47.8775 59.3099 48.627C57.6234 48.4396 56.0306 48.2523 54.4378 48.1586C45.0684 47.7838 38.5099 50.4072 36.0738 55.373C33.6378 60.4324 35.6054 67.1784 41.6018 74.2991C41.6954 74.4865 41.8828 74.5802 41.9765 74.7676C41.8828 74.955 41.6954 75.0487 41.6018 75.236C35.6054 82.4505 33.6378 89.1964 36.0738 94.1622C37.1981 96.5045 39.2594 98.3784 42.1639 99.5964C42.1639 99.7838 42.1639 99.8775 42.1639 100.065C42.1639 104.187 45.5369 107.467 49.5657 107.467C53.2198 107.467 56.3117 104.75 56.8738 101.283C57.6234 101.189 58.4666 101.096 59.3099 101.002C59.872 102.595 60.4342 104.094 61.09 105.593C64.9315 114.213 70.0846 118.897 75.7063 118.897C81.3279 118.897 86.481 114.213 90.3225 105.593C90.9783 104.187 91.5405 102.595 92.1026 101.002C94.0702 101.283 96.0378 101.47 97.9117 101.47C98.7549 104.656 101.659 106.998 105.126 106.998C109.249 106.998 112.528 103.625 112.528 99.5964C112.528 98.9405 112.434 98.3784 112.34 97.8162C113.652 96.7856 114.683 95.5676 115.339 94.1622C117.775 89.1027 115.807 82.3568 109.811 75.236C109.717 75.3297 109.53 75.236 109.436 75.0486ZM95.5693 66.3351C99.5044 69.1459 103.065 72.0504 105.876 75.1423C102.971 78.2342 99.5044 81.1387 95.5693 83.9495C95.8504 81.045 95.9441 78.1405 95.9441 75.1423C96.0378 72.0504 95.8504 69.1459 95.5693 66.3351ZM92.3837 61.0883C89.9477 59.5892 87.3243 58.1838 84.7008 56.8721C82.9207 56.0288 81.2342 55.1856 79.454 54.436C83.2017 53.218 86.8558 52.2811 90.3225 51.6252C91.1657 54.6234 91.8216 57.809 92.3837 61.0883ZM70.1783 35.791C71.9585 34.3856 73.8324 33.636 75.7063 33.636C80.2035 33.636 84.6072 37.9459 87.9801 45.4414C88.5423 46.6595 89.0108 47.9712 89.4792 49.3766C85.0756 50.1261 80.3909 51.4378 75.7063 53.218C71.0216 51.4378 66.3369 50.2198 61.9333 49.3766C62.1207 48.9081 62.3081 48.3459 62.4954 47.8775C63.1513 48.0649 63.8072 48.1586 64.463 48.1586C68.5855 48.1586 71.8648 44.7856 71.8648 40.7568C71.9585 38.6955 71.3026 37.009 70.1783 35.791ZM59.6846 40.5694C59.6846 37.8523 61.8396 35.6973 64.5567 35.6973C67.2738 35.6973 69.4288 37.8523 69.4288 40.5694C69.4288 43.2865 67.2738 45.4414 64.5567 45.4414C61.8396 45.4414 59.6846 43.2865 59.6846 40.5694ZM61.1837 51.7189C64.6504 52.2811 68.3044 53.218 72.0522 54.5297C70.272 55.2793 68.4918 56.0288 66.8054 56.9658C64.0882 58.2775 61.5585 59.6829 59.1225 61.182C59.5909 57.809 60.3405 54.6234 61.1837 51.7189ZM38.5099 56.7784C40.4774 52.7495 46.2864 50.6883 54.4378 50.9694C55.7495 51.0631 57.1549 51.1568 58.654 51.3441C57.6234 54.9045 56.7801 58.8396 56.3117 62.9622C51.5333 66.1477 47.3171 69.6144 43.8504 73.1748C43.7567 73.0811 43.7567 72.9874 43.663 72.9874C38.4162 66.7099 36.5423 60.8072 38.5099 56.7784ZM55.8432 83.8559C51.9081 81.045 48.3477 78.1405 45.5369 75.0486C48.4414 71.9568 51.9081 69.0523 55.8432 66.2414C55.5621 69.1459 55.4684 72.0504 55.4684 75.0486C55.4684 78.0468 55.6558 80.9514 55.8432 83.8559ZM49.6594 105.218C46.9423 105.218 44.7873 103.063 44.7873 100.346C44.7873 97.6288 46.9423 95.4739 49.6594 95.4739C52.3765 95.4739 54.5315 97.6288 54.5315 100.346C54.5315 103.063 52.2828 105.218 49.6594 105.218ZM56.9675 98.9405C56.3117 95.4739 53.3135 92.8505 49.6594 92.8505C46.6612 92.8505 44.0378 94.6306 42.9135 97.2541C40.8522 96.3171 39.3531 94.9117 38.5099 93.2252C36.5423 89.1964 38.4162 83.2937 43.663 77.1099C43.7567 77.0162 43.7567 77.0162 43.8504 76.9225C47.2234 80.4829 51.4396 83.9496 56.3117 87.1351C56.8738 91.2577 57.6234 95.0991 58.654 98.7532C58.0918 98.8469 57.5297 98.9405 56.9675 98.9405ZM59.1225 89.009C61.5585 90.5081 64.1819 91.9135 66.8054 93.2252C68.5855 94.0685 70.272 94.9117 72.0522 95.6613C68.3044 96.8793 64.6504 97.8162 61.1837 98.4721C60.3405 95.4739 59.5909 92.382 59.1225 89.009ZM87.9801 104.843C84.7008 112.339 80.2035 116.649 75.7063 116.649C71.209 116.649 66.8054 112.339 63.4324 104.843C62.8702 103.625 62.4018 102.314 61.9333 100.908C66.3369 100.159 71.0216 98.8468 75.7063 97.0667C80.3909 98.8468 85.0756 100.065 89.4792 100.908C89.0108 102.22 88.5423 103.532 87.9801 104.843ZM90.3225 98.3784C86.8558 97.8162 83.2017 96.8793 79.454 95.5676C81.2342 94.818 82.9207 94.0685 84.7008 93.2252C87.418 91.9135 89.9477 90.5081 92.3837 89.009C91.8216 92.382 91.1657 95.4739 90.3225 98.3784ZM83.4828 90.9766C80.8594 92.2883 78.3297 93.4126 75.7063 94.3495C73.0828 93.3189 70.4594 92.1946 67.9297 90.9766C64.6504 89.3838 61.5585 87.6036 58.654 85.7297C58.2792 82.2631 58.0918 78.7027 58.0918 75.0486C58.0918 71.3946 58.2792 67.8342 58.654 64.3676C61.5585 62.4937 64.6504 60.7135 67.9297 59.1207C70.5531 57.809 73.0828 56.6847 75.7063 55.7477C78.3297 56.7784 80.8594 57.9027 83.4828 59.1207C86.7621 60.7135 89.854 62.4937 92.7585 64.3676C93.1333 67.8342 93.3207 71.3946 93.3207 75.0486C93.3207 78.7027 93.1333 82.2631 92.7585 85.7297C89.9477 87.6036 86.7621 89.2901 83.4828 90.9766ZM105.126 104.75C102.409 104.75 100.254 102.595 100.254 99.8775C100.254 97.1604 102.409 95.0054 105.126 95.0054C107.843 95.0054 109.998 97.1604 109.998 99.8775C109.904 102.595 107.749 104.75 105.126 104.75ZM112.996 93.3189C112.528 94.1622 111.966 94.9117 111.216 95.6613C109.904 93.6937 107.656 92.4757 105.126 92.4757C101.285 92.4757 98.099 95.3802 97.7243 99.2216C96.1315 99.2216 94.5387 99.0342 92.8522 98.8468C93.8828 95.2865 94.7261 91.3514 95.1945 87.2288C99.9729 84.0432 104.189 80.5766 107.656 77.0162C107.749 77.1099 107.749 77.1099 107.843 77.2036C113.09 83.4811 114.964 89.3838 112.996 93.3189Z" fill="black"/>
</g>
<defs>
<clipPath id="clip0">
<rect width="150.285" height="150.285" fill="white" transform="translate(0.657593)"/>
</clipPath>
</defs>
</svg>
