<svg width="152" height="151" viewBox="0 0 152 151" fill="none" xmlns="http://www.w3.org/2000/svg">
<g clip-path="url(#clip0)">
<path d="M75.9711 150.285C117.471 150.285 151.113 116.642 151.113 75.1423C151.113 33.6424 117.471 0 75.9711 0C34.4711 0 0.828735 33.6424 0.828735 75.1423C0.828735 116.642 34.4711 150.285 75.9711 150.285Z" fill="#FCEE21"/>
<path d="M95.8342 40.0072C85.0594 40.0072 76.4396 45.7225 76.4396 56.591C76.4396 67.4595 85.1531 76.3604 95.8342 76.3604C106.609 76.3604 115.229 67.4595 115.229 56.591C115.322 45.6288 106.609 40.0072 95.8342 40.0072Z" fill="#FBC4AC"/>
<path d="M80.2811 56.591C80.2811 46.2847 87.964 37.8523 97.8018 36.9153C97.1459 36.8216 96.4901 36.8216 95.9279 36.8216C85.1531 36.8216 76.5333 45.7225 76.5333 56.591C76.5333 67.4595 85.2468 76.3604 95.9279 76.3604C96.5838 76.3604 97.2396 76.3604 97.8018 76.2667C87.964 75.3297 80.2811 66.8973 80.2811 56.591Z" fill="#E3B098"/>
<path d="M107.64 63.7117H104.829C104.173 63.7117 103.611 63.1495 103.611 62.4937C103.611 61.8378 104.173 61.2757 104.829 61.2757H107.546C108.202 61.2757 108.764 61.8378 108.764 62.4937C108.764 63.1495 108.295 63.7117 107.64 63.7117Z" fill="#F98084"/>
<path d="M86.8396 63.7117H84.1224C83.4666 63.7117 82.9044 63.1495 82.9044 62.4937C82.9044 61.8378 83.4666 61.2757 84.1224 61.2757H86.8396C87.4954 61.2757 88.0576 61.8378 88.0576 62.4937C88.0576 63.1495 87.5891 63.7117 86.8396 63.7117Z" fill="#F98084"/>
<path d="M114.386 50.5009C113.074 34.2919 106.515 36.7279 95.9279 36.7279C87.8703 36.7279 84.0288 35.8847 82.436 35.4162C81.7802 35.2288 81.0306 35.5099 80.7495 36.1658C79.4378 38.6955 76.5333 45.7225 76.5333 56.591C76.5333 56.591 81.218 48.2523 95.9279 48.2523C102.768 48.2523 102.205 50.5009 114.386 50.5009Z" fill="#C86D5C"/>
<path d="M84.4972 36.1658C84.4972 36.0721 84.5909 36.0721 84.5909 35.9784C83.5603 35.791 82.8107 35.6036 82.3423 35.4162C81.6864 35.2288 80.9369 35.5099 80.6558 36.1658C79.3441 38.6955 76.4396 45.7225 76.4396 56.591C76.4396 56.591 77.5639 54.6234 80.3747 52.5622C81.0306 43.9423 83.3729 38.4144 84.4972 36.1658Z" fill="#AD4F3D"/>
<path d="M36.526 94.2559V106.998C36.526 110.184 38.962 112.901 42.0539 113.182L51.2359 114.213L36.526 94.2559Z" fill="#3A484A"/>
<path d="M75.4089 94.2559V106.998C75.4089 110.184 72.9728 112.901 69.881 113.182L60.699 114.213L75.4089 94.2559Z" fill="#3A484A"/>
<path d="M75.4089 94.2558L55.5458 79.2649L36.526 94.2558C36.526 94.5369 36.526 94.7243 36.526 95.0054C36.526 105.968 45.2395 114.775 55.9206 114.775C66.6017 114.775 75.3152 105.874 75.3152 95.0054C75.4089 94.818 75.4089 94.5369 75.4089 94.2558Z" fill="#FBC4AC"/>
<path d="M39.8053 93.6937C38.7747 93.9748 37.6504 94.1622 36.6198 94.3495C36.6198 94.6306 36.6198 94.818 36.6198 95.0991C36.6198 106.061 45.3333 114.868 56.0143 114.868C56.5765 114.868 57.1387 114.868 57.7008 114.775C47.9567 113.932 40.2738 104.843 39.8053 93.6937Z" fill="#E3B098"/>
<path d="M47.0197 102.126H44.3026C43.6468 102.126 43.0846 101.564 43.0846 100.908C43.0846 100.252 43.6468 99.6901 44.3026 99.6901H47.0197C47.6756 99.6901 48.2377 100.252 48.2377 100.908C48.2377 101.658 47.6756 102.126 47.0197 102.126Z" fill="#F98084"/>
<path d="M67.726 102.126H65.0089C64.3531 102.126 63.7909 101.564 63.7909 100.908C63.7909 100.252 64.3531 99.6901 65.0089 99.6901H67.726C68.3819 99.6901 68.944 100.252 68.944 100.908C68.944 101.658 68.3819 102.126 67.726 102.126Z" fill="#F98084"/>
<path d="M36.526 94.2559C46.926 93.1315 55.9206 83.0126 55.9206 83.0126C55.9206 83.0126 64.9152 93.0378 75.3152 94.2559C74.9404 83.6685 66.4143 75.2361 55.9206 75.2361C45.5206 75.2361 36.9945 83.6685 36.526 94.2559Z" fill="#3A484A"/>
<path d="M57.7008 75.3297C57.1387 75.2361 56.5765 75.2361 56.0143 75.2361C45.5207 75.2361 36.9945 83.6685 36.6198 94.2559C37.7441 94.1622 38.681 93.9748 39.8053 93.6C40.4612 83.9496 48.1441 76.173 57.7008 75.3297Z" fill="#323E40"/>
<path d="M68.0071 62.4V50.4072C68.0071 46.0973 64.5404 42.6306 60.2305 42.6306H44.3026C39.9927 42.6306 36.526 46.0973 36.526 50.4072V61.3694C36.526 65.6793 39.9927 69.1459 44.3026 69.1459H71.7548L68.0071 62.4Z" fill="#5EE2C5"/>
<path d="M83.8414 101.564V89.5712C83.8414 85.2613 87.308 81.7946 91.618 81.7946H107.546C111.856 81.7946 115.322 85.2613 115.322 89.5712V100.533C115.322 104.843 111.856 108.31 107.546 108.31H80.0936L83.8414 101.564Z" fill="#FADC60"/>
<path d="M106.234 60.7135C106.89 60.7135 107.452 60.1513 107.452 59.4955V57.5279C107.452 56.8721 106.89 56.3099 106.234 56.3099C105.578 56.3099 105.016 56.8721 105.016 57.5279V59.4955C105.016 60.245 105.578 60.7135 106.234 60.7135Z" fill="black"/>
<path d="M85.5278 60.7135C86.1837 60.7135 86.7459 60.1513 86.7459 59.4955V57.5279C86.7459 56.8721 86.1837 56.3099 85.5278 56.3099C84.872 56.3099 84.3098 56.8721 84.3098 57.5279V59.4955C84.3098 60.245 84.872 60.7135 85.5278 60.7135Z" fill="black"/>
<path d="M98.5513 60.7135C98.0828 60.245 97.3332 60.3387 96.8648 60.8072C96.6774 61.0883 96.3026 61.182 95.9278 61.182C95.5531 61.182 95.1783 60.9946 94.9909 60.8072C94.5224 60.3387 93.7729 60.245 93.3044 60.7135C92.8359 61.182 92.7422 61.9315 93.2107 62.4C93.8666 63.1495 94.8972 63.618 95.9278 63.618C96.9585 63.618 97.9891 63.1495 98.6449 62.4C99.0197 61.8378 99.0197 61.0883 98.5513 60.7135Z" fill="black"/>
<path d="M45.6144 99.2216C46.2702 99.2216 46.8324 98.6595 46.8324 98.0036V96.036C46.8324 95.3802 46.2702 94.818 45.6144 94.818C44.9585 94.818 44.3964 95.3802 44.3964 96.036V98.0036C44.3964 98.6595 44.9585 99.2216 45.6144 99.2216Z" fill="black"/>
<path d="M66.3207 99.2216C66.9765 99.2216 67.5387 98.6595 67.5387 98.0036V96.036C67.5387 95.3802 66.9765 94.818 66.3207 94.818C65.6648 94.818 65.1027 95.3802 65.1027 96.036V98.0036C65.1027 98.6595 65.6648 99.2216 66.3207 99.2216Z" fill="black"/>
<path d="M55.0774 99.2216C54.609 98.7532 53.8594 98.6595 53.3909 99.1279C52.9225 99.5964 52.8288 100.346 53.2973 100.814C53.9531 101.564 54.9837 102.032 56.0144 102.032C57.045 102.032 58.0756 101.564 58.7315 100.814C59.2 100.346 59.1063 99.5964 58.6378 99.1279C58.1693 98.6595 57.4198 98.7532 56.9513 99.2216C56.7639 99.5027 56.3891 99.5964 56.0144 99.5964C55.6396 99.6901 55.2648 99.5027 55.0774 99.2216Z" fill="black"/>
<path d="M44.3026 70.364H71.7549C72.6918 70.364 73.254 69.3333 72.7855 68.5838L69.2252 62.1189V50.4072C69.2252 45.4415 65.1963 41.5063 60.3242 41.5063H44.3963C39.4305 41.5063 35.4954 45.5351 35.4954 50.4072V61.3694C35.4017 66.3351 39.3369 70.364 44.3026 70.364ZM37.7441 50.4072C37.7441 46.7532 40.6486 43.8487 44.3026 43.8487H60.2306C63.8846 43.8487 66.7891 46.7532 66.7891 50.4072V62.4C66.7891 62.5874 66.8828 62.7748 66.9765 62.9622L69.6936 67.9279H44.3026C40.6486 67.9279 37.7441 65.0234 37.7441 61.3694V50.4072Z" fill="black"/>
<path d="M43.9279 51.6252H60.699C61.3549 51.6252 61.917 51.0631 61.917 50.4072C61.917 49.7513 61.3549 49.1892 60.699 49.1892H43.9279C43.272 49.1892 42.7098 49.7513 42.7098 50.4072C42.7098 51.0631 43.272 51.6252 43.9279 51.6252Z" fill="black"/>
<path d="M43.9279 57.1531H60.699C61.3549 57.1531 61.917 56.591 61.917 55.9351C61.917 55.2793 61.3549 54.7171 60.699 54.7171H43.9279C43.272 54.7171 42.7098 55.2793 42.7098 55.9351C42.7098 56.591 43.272 57.1531 43.9279 57.1531Z" fill="black"/>
<path d="M43.9279 62.5874H54.3279C54.9837 62.5874 55.5459 62.0252 55.5459 61.3694C55.5459 60.7135 54.9837 60.1514 54.3279 60.1514H43.9279C43.272 60.1514 42.7098 60.7135 42.7098 61.3694C42.7098 62.0252 43.272 62.5874 43.9279 62.5874Z" fill="black"/>
<path d="M80.0937 109.434H107.546C112.512 109.434 116.447 105.405 116.447 100.533V89.5712C116.447 84.6054 112.418 80.6703 107.546 80.6703H91.618C86.6522 80.6703 82.7171 84.6991 82.7171 89.5712V101.283L79.1567 107.748C78.5946 108.497 79.2504 109.434 80.0937 109.434ZM84.872 102.126C84.9657 101.939 85.0594 101.751 85.0594 101.564V89.5712C85.0594 85.9171 87.9639 83.0126 91.618 83.0126H107.546C111.2 83.0126 114.104 85.9171 114.104 89.5712V100.533C114.104 104.187 111.2 107.092 107.546 107.092H82.1549L84.872 102.126Z" fill="black"/>
<path d="M91.2432 90.7892H108.014C108.67 90.7892 109.232 90.227 109.232 89.5712C109.232 88.9153 108.67 88.3531 108.014 88.3531H91.2432C90.5873 88.3531 90.0251 88.9153 90.0251 89.5712C90.0251 90.227 90.4936 90.7892 91.2432 90.7892Z" fill="black"/>
<path d="M109.139 95.0054C109.139 94.3495 108.577 93.7874 107.921 93.7874H91.2432C90.5873 93.7874 90.0251 94.3495 90.0251 95.0054C90.0251 95.6613 90.5873 96.2234 91.2432 96.2234H108.014C108.577 96.2234 109.139 95.755 109.139 95.0054Z" fill="black"/>
<path d="M109.139 100.533C109.139 99.8775 108.576 99.3153 107.921 99.3153H97.5206C96.8648 99.3153 96.3026 99.8775 96.3026 100.533C96.3026 101.189 96.8648 101.751 97.5206 101.751H107.921C108.576 101.751 109.139 101.189 109.139 100.533Z" fill="black"/>
<path d="M95.8341 77.5784C107.171 77.5784 116.447 68.1153 116.447 56.591C116.447 54.436 116.166 52.3748 115.51 50.3135C114.948 43.2865 113.355 39.2577 110.357 37.1964C107.546 35.2288 103.798 35.4162 99.5819 35.5099C98.3638 35.5099 97.1458 35.6036 95.8341 35.6036C87.8702 35.6036 84.2161 34.8541 82.717 34.3856C81.499 34.0108 80.1873 34.573 79.6251 35.6973C78.8756 37.1027 77.8449 39.445 77.0017 42.7243C76.8143 43.3802 77.1891 44.036 77.8449 44.2234C78.5008 44.4108 79.1566 44.036 79.344 43.3802C80.1873 40.2883 81.1242 38.0396 81.7801 36.8216C81.7801 36.7279 81.9674 36.7279 82.0611 36.7279C84.0287 37.3838 88.0575 38.1333 95.9278 38.1333C97.2395 38.1333 98.5512 38.1333 99.6756 38.0396C103.704 37.9459 106.89 37.8523 109.045 39.3513C111.2 40.8504 112.512 44.036 113.074 49.4703C111.294 49.4703 109.42 49.3766 107.64 49.1892C105.859 49.0018 104.173 48.627 102.486 48.1586C100.706 47.6901 98.926 47.2216 95.8341 47.2216C93.0233 47.2216 90.3062 47.5027 87.5891 48.1586C85.2467 48.7207 83.0918 49.6577 81.0305 50.8757C79.8125 51.6252 78.6882 52.3748 77.7512 53.3117C77.8449 51.5315 78.0323 49.7513 78.3134 47.9712C78.4071 47.3153 77.9386 46.6595 77.2828 46.5658C76.6269 46.4721 75.971 46.9405 75.8774 47.5964C75.4089 50.5009 75.1278 53.5928 75.1278 56.6847C75.2215 68.209 84.4972 77.5784 95.8341 77.5784ZM95.8341 75.236C85.9026 75.236 77.7512 67.0847 77.5638 56.9658C77.5638 56.9658 77.5638 56.9658 77.5638 56.8721C78.6882 55.2793 80.281 53.9676 81.9674 52.8432C86.6521 49.9387 92.7422 48.9081 98.2702 49.4703C100.987 49.7513 103.517 50.782 106.234 51.1568C108.576 51.5315 110.919 51.6252 113.261 51.6252C113.355 51.6252 113.355 51.6252 113.449 51.6252C113.823 53.218 114.104 54.8108 114.104 56.4973C114.104 66.8973 105.953 75.236 95.8341 75.236Z" fill="black"/>
<path d="M35.4017 107.092C35.4017 110.933 38.2125 114.025 42.054 114.494L51.1423 115.524C52.7351 115.899 54.3279 116.086 56.0143 116.086C57.7008 116.086 59.2936 115.899 60.8864 115.524L69.9747 114.494C73.7225 114.119 76.627 110.933 76.627 107.092V95.8486C76.627 95.2865 76.627 94.818 76.627 94.2558C76.4396 88.8216 74.1909 83.7622 70.3495 79.9207C66.4143 76.173 61.3549 74.018 56.0143 74.018C49.5495 74.018 43.5531 77.0162 39.6179 82.2631C39.2432 82.8252 39.3369 83.5748 39.899 83.9495C40.4612 84.3243 41.2107 84.2306 41.5855 83.6685C45.0522 79.0775 50.299 76.3603 56.0143 76.3603C60.7927 76.3603 65.29 78.2342 68.663 81.6072C71.7549 84.6054 73.6288 88.5405 74.0972 92.8504C73.8161 92.7567 73.5351 92.7567 73.254 92.6631C69.7873 91.8198 66.508 90.0396 63.6035 87.9784C61.7297 86.6667 59.9495 85.1676 58.3567 83.6685C57.9819 83.2937 57.6071 82.9189 57.2324 82.5441C57.045 82.263 56.7639 82.0757 56.4828 81.982C56.2017 81.8883 56.0143 81.8883 55.7333 81.982C55.3585 82.0757 55.1711 82.4504 54.89 82.7315C54.1405 83.4811 53.3909 84.2306 52.5477 84.8865C51.236 86.0108 49.9243 87.1351 48.5189 88.0721C45.3333 90.3207 41.7729 92.1946 38.0252 92.9441C38.2125 91.164 38.681 89.3838 39.4306 87.6973C39.7116 87.1351 39.4306 86.3856 38.7747 86.1045C38.2125 85.8234 37.463 86.1045 37.1819 86.7603C36.1513 89.1964 35.5891 91.7261 35.4954 94.3495C35.4954 94.9117 35.4954 95.3802 35.4954 95.9423V107.092H35.4017ZM44.2089 112.245L42.2414 112.058C39.7116 111.777 37.7441 109.622 37.7441 106.998V104.937C38.3999 106.155 39.1495 107.279 39.9927 108.404C41.117 109.809 42.4288 111.027 43.8342 112.151C43.9279 112.151 44.1152 112.245 44.2089 112.245ZM74.1909 107.092C74.1909 109.622 72.2234 111.777 69.6936 112.151L67.7261 112.339C67.7261 112.339 67.9134 112.151 68.0071 112.151C69.4125 111.121 70.7243 109.809 71.8486 108.404C72.6918 107.279 73.4414 106.155 74.0972 104.937V107.092H74.1909ZM56.2017 85.0739C60.0432 88.8216 64.5405 92.1009 69.5999 94.0685C71.099 94.6306 72.5981 95.0991 74.1909 95.3802C74.1909 95.4739 74.1909 95.6612 74.1909 95.7549C74.0035 101.189 71.4738 106.155 67.5387 109.434C64.2594 112.151 60.2306 113.65 55.9207 113.65C51.7044 113.65 47.5819 112.151 44.3026 109.341C40.3675 106.061 37.8378 101.095 37.6504 95.6612C37.6504 95.5676 37.6504 95.3802 37.6504 95.2865C37.7441 95.2865 37.8378 95.2865 38.0252 95.1928C39.1495 95.0054 40.2738 94.6306 41.3981 94.3495C44.3026 93.4126 47.1134 91.8198 49.6432 90.0396C51.8918 88.4468 54.0468 86.6667 55.9207 84.7928C56.108 84.8865 56.108 84.9802 56.2017 85.0739Z" fill="black"/>
</g>
<defs>
<clipPath id="clip0">
<rect width="150.285" height="150.285" fill="white" transform="translate(0.828735)"/>
</clipPath>
</defs>
</svg>
