<svg width="116" height="115" viewBox="0 0 116 115" fill="none" xmlns="http://www.w3.org/2000/svg">
<g opacity="0.4">
<path d="M83.3637 56.2363C79.6365 53.1672 76.1819 53.8893 73.0001 54.792C73.0001 54.6115 72.8183 54.4309 72.6365 54.2504C73.1819 55.3336 73.9092 56.5973 74.6365 57.6805L74.8183 58.0416C74.8183 58.0416 67.2728 57.6805 61.0001 52.5353L58.6365 50.1884C57.9092 50.3689 57.1819 50.9105 56.4546 51.0911C56.4546 51.0911 56.2728 52.1743 56.4546 53.7991L55.9092 54.3407C53.7274 49.9176 51.2728 42.0644 56.2728 35.2943H62.9092C63.6364 33.8501 64.7274 32.4058 66.0001 31.2323H83.5455C81.3637 33.5793 78.3637 38.544 78.1819 42.967C78.0001 50.0078 81.5455 54.7017 83.3637 56.2363ZM83.3637 56.2363C83.5455 56.5973 83.9092 56.7779 84.091 56.9584C84.091 56.9584 83.7274 56.7779 83.3637 56.2363ZM58.5455 14.0816C34.7274 14.0816 14.9092 33.6695 14.9092 57.5903C14.9092 61.4717 15.4546 65.0824 16.3637 68.6028C22.091 67.5196 23.3637 65.3532 28.0001 64.3603C30.3637 63.9992 33.0001 64.9019 31.7274 66.7072C31.7274 66.7072 31.1819 67.0683 31.1819 67.2488C30.8183 67.6099 30.6365 68.332 31.1819 68.5126C31.1819 68.6931 31.9092 69.2347 32.8183 69.2347C41.4546 68.332 42.3637 65.5338 47.9092 64.4506C50.2728 64.0895 52.9092 64.9922 51.4546 66.7975C51.4546 66.7975 50.9092 67.1586 50.9092 67.3391C50.5455 67.7002 50.5455 68.4223 50.9092 68.6028C51.091 68.7834 51.8183 69.325 52.5455 69.325C61.1819 68.4223 62.091 65.624 67.4546 64.5408C70.0001 64.1797 72.4546 65.0824 71.1819 66.8878C71.1819 66.8878 70.6364 67.2488 70.6364 67.4294C70.2728 67.7904 70.2728 68.5126 70.6364 68.6931C70.6364 68.8736 71.3637 69.4152 72.2728 69.4152C80.9092 68.5126 81.8183 65.7143 87.1819 64.6311C89.7274 64.27 92.1819 65.1727 90.9092 66.978C90.9092 66.978 90.3637 67.3391 90.3637 67.5196C90.0001 67.8807 89.8183 68.6028 90.3637 68.7834C90.5455 68.9639 91.091 69.5055 92.0001 69.5055C95.5455 69.1444 98.6365 68.0612 100.455 67.1586C101.182 64.0895 101.546 60.9301 101.546 57.5C101.636 33.489 82.4546 14.0816 58.5455 14.0816ZM44.4546 37.0094L38.1819 37.551C38.1819 37.551 40.0001 39.5369 40.9092 40.4396C41.2728 40.8006 40.9092 41.3422 40.3637 40.9812L37.6365 38.2732C37.6365 38.2732 37.091 56.0557 36.9092 58.0416C36.9092 58.7637 36.3637 58.7637 36.3637 58.0416L35.8183 38.2732C34.9092 38.9953 34.0001 40.259 33.091 40.9812C32.5455 41.3422 32.1819 40.9812 32.5455 40.4396L35.091 37.551C32.9092 37.3705 31.0001 37.19 28.8183 37.0094C27.9092 37.0094 27.9092 36.2873 28.8183 36.1068L35.091 35.5652C35.091 35.5652 33.2728 33.5793 32.3637 32.6766C32.0001 32.135 32.3637 31.7739 32.7274 31.9545L35.8183 34.843V34.6625C35.8183 32.4961 36.0001 30.6005 36.1819 28.4341C36.1819 27.7119 37.091 27.5314 37.091 28.4341L37.6365 34.843C37.6365 34.843 39.6365 32.8571 40.7274 31.9545C41.2728 31.5934 41.6365 32.135 41.091 32.6766L38.1819 35.5652C38.1819 35.5652 42.4546 35.9262 44.4546 36.1068C45.2728 36.1068 45.4546 36.8289 44.4546 37.0094ZM71.3637 27.2606C71.0001 27.8022 70.8183 29.427 71.5455 30.3297C70.6364 29.7881 68.2728 28.3438 66.3637 27.9827C68.2728 27.6217 71.3637 27.2606 71.3637 27.2606Z" stroke="#53565A" stroke-miterlimit="10"/>
<path d="M74.5455 68.7834L75.4546 68.6028L69.1819 60.208L74.5455 68.7834ZM77.2728 68.2418L78.1819 68.0612L72.2728 60.208L77.2728 68.2418ZM80.2728 67.1586L80.8183 66.7975L75.8183 60.208L80.2728 67.1586ZM82.8183 65.8948L83.3637 65.7143L79.2728 60.208L82.8183 65.8948ZM82.2728 60.208L85.3637 64.9922L85.7273 64.6311L82.2728 60.208Z" fill="#53565A"/>
<path d="M96.0909 51.2716L93.9091 49.6468H93.5455C91.1818 50.5494 86.9091 50.5494 86.9091 50.5494H86.7273V50.73C85.8182 51.9937 84.1818 53.9796 82.7273 55.5141C81.0909 53.3477 78.2727 49.4662 78.2727 43.4183V42.8767C78.4546 38.2731 81.7273 33.2182 83.6364 31.3226L83.4546 30.9615H65.9091C64.6364 32.2253 63.5455 33.6695 62.8182 34.843H56.1818C52.4546 40.1687 52.2727 46.3972 55.4546 54.0698C55.0909 54.6114 54.5455 55.153 53.8182 56.2362V56.4168L54.3636 57.5C56 60.8399 56.9091 62.6452 59.9091 66.978L60.2727 67.3391L61.5455 66.6169L61.7273 66.4364C63.1818 65.7143 64.8182 64.9921 67.2727 64.4505C68.9091 64.27 70.5455 64.4505 71 65.1727V65.7143C71 65.8948 71 66.2559 70.6364 66.6169L70.2727 66.978H70.0909C69.9091 67.1585 69.9091 67.5196 69.9091 67.8807V68.0612C69.9091 68.2417 70.0909 68.4223 70.2727 68.6028C70.6364 68.7833 71.1818 69.1444 71.9091 69.1444C77.2727 68.7833 79.6364 67.5196 82 66.4364C83.4546 65.7143 84.9091 64.9921 87 64.4505C88.6364 64.27 90.2727 64.4505 90.7273 65.1727C90.9091 65.5337 90.9091 65.8948 90.7273 66.2559L90.9091 66.4364C94.1818 63.5479 96.6364 59.3053 98.6364 53.438V53.2574L96.0909 51.2716ZM86.9091 50.9105C87.4546 50.9105 90.8182 50.73 93.1818 50.0078C92.6364 50.9105 91 52.7158 88.9091 54.2504C87.4546 55.3336 85.8182 56.2363 84.2727 56.7779C84.0909 56.5973 83.7273 56.4168 83.5455 56.2362C83.3637 56.0557 83.3637 55.8752 83 55.6946C84.4546 54.1601 86 52.1742 86.9091 50.9105ZM83.9091 56.9584C83 57.1389 82.2727 57.3195 81.3637 57.5L82.8182 56.0557C83 56.2362 83.1818 56.2363 83.3636 56.5973C83.5455 56.5973 83.7273 56.7779 83.9091 56.9584ZM80.8182 57.6805C80.4546 57.6805 79.9091 57.8611 79.5455 57.8611C78.0909 58.0416 76.4546 58.0416 74.9091 57.8611L74.7273 57.6805C74.1818 56.5973 73.6364 55.6946 73.0909 54.792C76.1818 54.0698 79.1818 53.3477 82.6364 55.8752C81.5455 56.7779 81 57.5 80.8182 57.6805ZM66.0909 31.3226H83.0909C81.0909 33.6695 78.0909 38.2731 78.0909 42.8767V43.4183C78.0909 49.1052 80.4546 53.0769 82.1818 55.153C78.9091 53.1672 75.9091 53.7088 73 54.6114C72.8182 54.4309 72.6364 54.2504 72.6364 54.0698C68.9091 46.5777 69.1818 41.4325 71.5455 35.0235L71.3637 34.843H63.2727C64 33.6695 64.8182 32.4058 66.0909 31.3226ZM53.5455 44.1405C53.5455 40.8909 54.4546 37.9121 56.4546 35.2041H71.3637C71.1818 35.5651 71 35.9262 70.8182 36.6483C70.0909 39.1758 69.7273 41.4325 69.7273 43.7794C69.7273 45.5848 69.9091 47.4804 70.4546 49.4662C71 51.091 71.5455 52.7158 72.4546 54.2504C73.1818 55.3336 73.7273 56.5973 74.4546 57.7708H74.6364C73 57.5903 66.5455 56.6876 61.1818 52.2645L58.7273 50.0078V49.8273H58.5455C58.3637 50.0078 58.1818 50.1884 58 50.1884C57.8182 50.1884 57.6364 50.3689 57.4546 50.5494L56.3636 50.9105L56.1818 51.091C56.1818 51.091 56 51.9937 56.1818 53.438H56C56 53.6185 55.8182 53.799 55.8182 53.799C54.2727 50.3689 53.5455 47.2096 53.5455 44.1405ZM60.3637 66.978C57.2727 62.916 56.4546 60.9301 54.8182 57.3195C54.8182 57.3195 54.4546 56.5973 54.2727 56.4168C55 55.153 55.7273 54.4309 56.2727 53.7088C56.2727 54.0698 56.2727 54.2504 56.4546 54.6114C56.6364 56.9584 57.3637 60.2983 59.3637 63.7284C59.9091 64.8116 60.6364 65.7143 61.3637 66.7975C60.9091 66.7975 60.5455 66.978 60.3637 66.978ZM57.5455 58.5832V58.4027C57.5455 58.2221 57.3636 58.0416 57.3636 57.8611C57.3636 57.6805 57.1818 57.5 57.1818 57.3195V57.1389C56.8182 55.8752 56.6364 54.6114 56.6364 53.6185V51.2716L57.7273 50.73C57.9091 50.5494 58.2727 50.3689 58.4546 50.3689C57.9091 56.7779 58.9091 59.6664 61.4546 66.2559C59.4546 63.7284 58.2727 61.1107 57.5455 58.5832ZM61.8182 66.4364C59.2727 59.6664 58.2727 56.7779 58.7273 50.3689C59.0909 50.9105 60.1818 51.9937 60.5455 52.3548C60.3636 58.4027 60.9091 62.4647 62.5455 65.8948V66.0753C62.1818 66.0753 62 66.2559 61.8182 66.4364ZM91.4546 65.8948V65.7143C91.4546 65.3532 91.2727 65.1727 91.0909 64.9921C90.5455 64.27 88.9091 63.9089 87.1818 64.0895C85 64.6311 83.4546 65.3532 82 66.0753C79.6364 67.3391 77.3637 68.4223 72.0909 68.9639C71.5455 68.9639 70.8182 68.6028 70.6364 68.4223C70.4546 68.2418 70.4546 68.0612 70.4546 68.0612V67.8807C70.4546 67.5196 70.4546 67.3391 70.6364 67.1585L71.1818 66.7975C71.3637 66.2559 71.5455 66.0753 71.5455 65.7143C71.5455 65.3532 71.3637 65.1727 71.3637 64.9921C70.8182 64.27 69 63.9089 67.2727 64.0895C65.4546 64.4505 64 65.1727 62.8182 65.8948C61.3636 62.5549 60.8182 58.5832 61 52.7158C61.1818 52.7158 61.1818 52.7158 61.1818 52.8964C61.3637 52.8964 61.3636 52.8964 61.5455 53.0769C66.3636 56.7779 73.3636 58.9443 79.6364 58.2221C80.1818 58.2221 80.7273 58.0416 81.2727 57.8611C85.7273 57.5 89.1818 54.792 91.4546 52.7158C92.1818 51.8132 93.0909 50.9105 93.8182 50.0078C94 50.1884 96 51.6326 96 51.6326C96 51.6326 98.3637 53.2574 98.5455 53.438C96.6364 58.9443 94.2727 63.0063 91.4546 65.8948Z" fill="#53565A"/>
<path d="M77.2728 90.2669C76.9092 90.2669 76.5456 90.2669 76.0001 90.4474C71.5456 91.7111 69.7274 94.3289 61.091 95.051C58.1819 95.051 56.4547 92.5235 57.5456 90.2669C57.0001 90.2669 56.6365 90.2669 56.2728 90.4474C51.8183 91.7111 50.0001 94.3289 41.3637 95.051C38.4547 95.051 36.9092 92.5235 37.8183 90.2669C37.4547 90.2669 37.091 90.2669 36.5456 90.4474C34.9092 90.8085 33.6365 91.5306 32.2728 92.2527C39.2728 97.5785 48.091 100.828 57.7274 100.467C65.8183 100.286 73.1819 98.3006 79.2728 94.7802C77.4546 94.0581 76.5456 92.0722 77.2728 90.2669ZM92.1819 70.8595C89.2728 70.8595 87.7274 68.1515 88.6365 66.0753H87.5456C83.091 67.3391 81.091 70.1374 72.4547 70.8595C69.5456 70.8595 68.0001 68.1515 68.9092 66.0753H67.8183C63.3637 67.3391 61.3637 70.1374 52.7274 70.8595C50.0001 70.8595 48.4547 68.1515 49.1819 66.0753H48.091C43.6365 67.3391 41.6365 70.1374 33.0001 70.8595C31.0001 70.8595 29.5456 69.5958 29.2728 68.1515C29.2728 67.9709 29.091 67.7904 29.091 67.6099C29.091 67.0683 29.091 66.5267 29.4547 65.9851H28.1819C24.3637 67.1585 22.3637 69.4152 16.6365 70.3179C17.9092 73.748 19.3637 77.0879 21.2728 80.157C24.4547 78.8932 26.091 77.449 29.5456 76.8171C32.091 76.2755 34.5456 77.1782 33.2728 79.164C33.2728 79.164 32.9092 79.3446 32.7274 79.5251C32.3637 79.8862 32.3637 80.6083 32.7274 80.9694C32.9092 80.9694 33.6365 81.511 34.5456 81.511C43.1819 80.7888 44.091 77.9906 49.4547 76.9074C52.0001 76.3658 54.4547 77.2684 53.1819 79.2543C53.1819 79.2543 52.6365 79.4348 52.6365 79.6154C52.2728 79.9764 52.2728 80.6986 52.6365 81.0596C52.6365 81.0596 53.3637 81.6012 54.2728 81.6012C62.9092 80.8791 63.8183 78.0808 69.1819 76.9976C71.5456 76.456 74.1819 77.3587 72.7274 79.3446C72.7274 79.3446 72.3637 79.5251 72.3637 79.7056C72.0001 80.0667 71.8183 80.7888 72.3637 81.1499C72.3637 81.1499 73.091 81.6915 74.0001 81.6915C82.6365 80.9694 83.5456 78.1711 88.9092 77.0879C91.4547 76.5463 93.9092 77.449 92.6365 79.4348C92.6365 79.4348 92.091 79.6154 92.091 79.7959C91.7274 80.157 91.7274 80.8791 92.091 81.2402C92.091 81.2402 92.8183 81.7818 93.7274 81.7818H93.9092C96.2728 78.0808 98.1819 74.1091 99.2728 69.686C97.5456 69.7763 94.2728 70.679 92.1819 70.8595ZM90.1819 78.7127C89.6365 78.7127 89.2728 78.7127 88.9092 78.8932C84.4547 79.9764 82.6365 82.5942 74.0001 83.4968C71.091 83.4968 69.3637 80.7888 70.4547 78.7127C69.9092 78.7127 69.5456 78.7127 69.1819 78.8932C64.7274 79.9764 62.9092 82.5942 54.2728 83.4968C51.3637 83.4968 49.8183 80.7888 50.7274 78.7127C50.3637 78.7127 49.8183 78.7127 49.4547 78.8932C45.0001 79.9764 43.1819 82.5942 34.5456 83.4968C31.4547 83.4968 29.9092 80.7888 30.8183 78.7127C30.4547 78.7127 30.091 78.7127 29.5456 78.8932C26.8183 79.4348 25.2728 80.8791 22.3637 81.9623C24.7274 85.2119 27.3637 88.1907 30.4547 90.8987C32.4547 89.9961 34.0001 88.9129 36.5456 88.3713C39.091 88.0102 41.5456 88.7323 40.2728 90.7182L39.7274 91.0793C39.3637 91.4403 39.3637 92.1625 39.7274 92.5235C39.9092 92.5235 40.6365 93.0651 41.3637 93.0651C50.0001 92.343 50.9092 89.5447 56.2728 88.4615C58.8183 88.1005 61.2728 88.8226 60.0001 90.8085L59.4547 91.1695C59.091 91.5306 59.091 92.2527 59.4547 92.6138C59.4547 92.6138 60.1819 93.1554 61.091 93.1554C69.7274 92.4333 70.6365 89.635 76.0001 88.5518C78.5456 88.1907 81.0001 88.9129 79.7274 90.8987L79.1819 91.2598C78.8183 91.6209 78.8183 92.343 79.1819 92.7041C79.3637 92.7041 79.9092 93.2457 80.8183 93.2457C81.3638 93.2457 81.9092 93.2457 82.6365 93.0651C86.3637 90.5377 89.8183 87.1978 92.5456 83.5871C90.5456 82.5942 89.2728 80.518 90.1819 78.7127Z" fill="#53565A"/>
<path d="M2.27273 52.5353L11.8182 53.6185L12 51.8132L2.45455 50.73L2.63636 48.2025L0.818182 48.022L0.0909091 54.9725L1.90909 55.1531L2.27273 52.5353ZM15.1818 39.5369L13.3636 38.9953L12.2727 42.3352L3.18182 39.3564L2.63636 40.9812L13.3636 44.6821L15.1818 39.5369ZM18.5455 31.5031L20.3636 30.9615L18.3636 26.3579L23.1818 27.2606L23.3636 25.4553L17.8182 24.3721L15.6364 19.2268L13.8182 19.7684L15.8182 24.1915L11.1818 23.2889L11 25.0942L16.3636 25.9969L18.5455 31.5031ZM28.8182 21.6641L21.6364 12.9082L20.1818 13.9914L27.5455 22.7473L28.8182 21.6641ZM31.6364 19.7684L27 12.6374V12.4568L35.2727 17.602L36.5455 16.1578L30.8182 6.77002L29.3636 7.67268L33.8182 14.9843L25.3636 9.83909L24.2727 11.2834L30.0909 20.6711L31.6364 19.7684ZM40.4545 4.78414L43.1818 14.0816L45 13.54L42.2727 4.24254L44.6364 3.52041L44.2727 1.71507L37.4545 3.88148L38 5.50628L40.4545 4.78414ZM56.4545 3.15934L60.7273 11.9152L62.5455 11.3736L62.9091 0.361068H61.0909L60.9091 8.93642L56.6364 0L55 0.541601L54.8182 11.5542L56.4545 11.7347V3.15934ZM73.8182 14.4427C75.4545 15.1648 77.0909 14.4427 77.5455 12.6374C78.0909 11.1931 77.7273 9.92936 76.8182 9.38775C77.7273 9.56829 78.8182 8.84615 79.1818 7.40188C79.9091 5.77708 79.1818 4.24254 77.3636 3.70094L74.5455 2.61774L70.4545 13.2692L73.8182 14.4427ZM75.4545 4.78414L76.5455 5.14521C77.6364 5.50628 78 6.22841 77.6364 7.13108C77.2727 8.21429 76.3636 8.39482 75.4545 8.21429L74.5455 7.85322L75.4545 4.78414ZM74.7273 9.56829C76 9.92936 76.3636 10.832 76 11.9152C75.6364 12.8179 74.9091 13.179 73.8182 12.8179L72.7273 12.4568L73.8182 9.20722L74.7273 9.56829ZM79 16.6994L81.3636 12.7276L81.9091 12.9082C82.0909 13.0887 82.0909 13.2692 82.2727 13.6303V18.8658L84.2727 18.6852L84.0909 13.7206C85.1818 13.7206 86.4546 13.179 87.1818 11.9152C87.9091 10.2904 87.9091 8.57535 85.9091 7.49215L83.1818 6.04788L77.6364 15.9772L79 16.6994ZM83.9091 8.30455L84.8182 8.84615C85.5455 9.20722 85.9091 10.1099 85.3636 11.0126C84.6364 12.2763 83.7273 12.0958 83.1818 11.9152L82.2727 11.3736L83.9091 8.30455ZM85.8182 21.0322L92.4545 11.9152L91 10.832L84.3636 19.949L85.8182 21.0322ZM91.8182 22.0251C91.2727 22.7473 90.3636 22.7473 89.6364 22.2057C89.2727 21.8446 88.9091 21.1224 88.9091 20.4003L87.2727 21.1224C87.4546 22.2057 88 22.9278 88.5455 23.6499C90 24.9137 91.9091 24.5526 93.1818 23.1083C95.7273 20.4003 92.2727 18.3242 93.7273 16.6994C94.4545 15.9772 95.3636 15.9772 95.9091 16.5188C96.4546 17.0604 96.6364 17.7826 96.8182 18.3242L98.4546 17.7826C98.2727 16.6994 97.7273 15.7967 97 15.2551C95.5455 13.9914 93.7273 14.1719 92.5455 15.4356C89.8182 18.3242 93.3636 20.31 91.8182 22.0251ZM97.3636 33.6695L99 32.5863L96.8182 29.5173L104.727 24.011L103.636 22.5667L94.0909 29.1562L97.3636 33.6695ZM107.364 39.898C103.909 40.6201 102 43.0573 102.545 45.9458C102.727 47.029 103.455 47.9317 104.364 48.6538L105.636 47.7512C105.091 47.2096 104.727 46.668 104.364 45.5848C104 43.7794 105.818 42.1546 107.909 41.7033C110.091 41.3422 112 42.0644 112.545 44.0502C112.545 44.7724 112.364 45.8556 112 46.3972L113.455 46.9388C114.182 45.8556 114.545 44.7724 114.182 43.5989C113.636 40.8006 110.818 39.3564 107.364 39.898ZM114.182 56.2363L114 58.9443L104.273 58.4027V60.208L114 60.5691L113.818 63.2771L115.636 63.4576L116 56.3265L114.182 56.2363ZM58.0909 103.085C36 103.085 17.7273 87.5589 13.2727 66.8878H0.545455C5.36364 94.3289 29.2727 115 58.1818 115C86.9091 115 110.909 94.3289 115.636 66.8878H103.091C98.4546 87.6491 80.0909 103.085 58.0909 103.085ZM39.1818 110.938L37.7273 110.216L38.8182 104.168L35.4545 105.973L34.5455 102.272L30.4545 106.876L29.1818 106.154L35.4545 98.4812L36.5455 103.626L41.1818 101.099L39.1818 110.938ZM43.9091 112.021C42.2727 111.66 41.3636 109.133 42.0909 106.695C42.8182 103.987 44.6364 102.453 46.3636 102.814C47.4545 103.175 48.1818 104.258 48.3636 105.883L46.7273 105.341C46.5455 104.8 46.1818 104.439 45.8182 104.439C45.0909 104.258 44 105.341 43.4545 107.147C43.0909 108.952 43.2727 110.396 44.1818 110.667C44.5455 110.667 44.9091 110.487 45.2727 110.126L46.9091 110.487C46.1818 111.66 44.9091 112.382 43.9091 112.021ZM57.9091 114.007L56.6364 107.959L53.9091 110.848L51.9091 107.688L49.7273 113.556L48.0909 113.375L51.2727 103.897L54 108.32L57.5455 104.439L59.3636 114.278L57.9091 114.007ZM67.3636 113.285L64.6364 110.035L62.8182 113.736L61.3636 113.917L63.7273 108.772L60.1818 104.349L61.8182 104.168L64.5455 107.598L66.3636 103.717L68 103.536L65.4545 108.681L69 113.104L67.3636 113.285ZM75.8182 111.119L69.1818 103.265L70.6364 102.724L74.3636 107.147L74.9091 101.279L76.3636 100.918L75.8182 111.119ZM82.2727 108.681L78.1818 100.106L79.6364 99.3838L83.7273 107.959L82.2727 108.681ZM85.8182 106.876L81.1818 98.4812L82.4545 97.759L87.2727 106.154L85.8182 106.876ZM11.3636 56.5973L9.63636 56.7779L10 60.2983L6.90909 60.5691L6.72727 58.0416H4.90909L5.09091 60.7496L2 60.9301L1.63636 57.2292L0 57.4097L0.181818 62.7355L11.6364 62.0133L11.3636 56.5973ZM53.7273 11.5542L53.3636 9.74882L49.8182 10.2904L49.2727 7.40188L51.8182 7.13108L51.6364 5.32575L48.9091 5.68681L48.5455 2.61774L51.9091 2.07614L51.7273 0.270801L46.5455 1.17347L48.3636 12.3666L53.7273 11.5542ZM69.7273 11.1931L66.1818 10.471L66.7273 7.58242L69.2727 7.94349L69.6364 6.13815L67.0909 5.77708L67.8182 2.70801L71.1818 3.52041L71.5455 1.71507L66.3636 0.631868L64 11.825L69.3636 12.9082L69.7273 11.1931ZM104.364 55.5141L106.182 55.3336L105.818 51.8132L108.909 51.4521L109.091 54.1601L110.909 53.9796L110.727 51.4521L113.636 51.0911L114 54.6115L115.818 54.4309L115.455 49.2857L104 50.1884L104.364 55.5141ZM17.1818 35.7457C18.0909 33.7598 17.9091 32.2253 15.3636 30.781L9.09091 27.2606L7.81818 28.4341L14.6364 32.3155C15.9091 33.0377 16.0909 33.7598 15.5455 34.843C15 35.9262 14.2727 35.9262 12.8182 35.3846L6 31.8642L5.63636 33.6695L12.0909 36.8289C14.4545 38.0926 16.0909 37.7316 17.1818 35.7457ZM99.4546 37.7316C100.364 39.7174 102 40.6201 104.636 39.3564L111.091 36.2873L110.909 34.4819L103.727 37.8218C102.455 38.3634 101.364 38.0024 100.818 36.9192C100.455 35.836 100.818 35.1138 102.091 34.3917L108.909 30.6907L107.636 29.427L101.182 32.7669C98.9091 34.2111 98.4546 35.7457 99.4546 37.7316Z" fill="#53565A"/>
</g>
</svg>
