<svg width="113" height="116" viewBox="0 0 113 116" fill="none" xmlns="http://www.w3.org/2000/svg">
<g opacity="0.4">
<path d="M51.3231 41.6035H54.1793C53.9115 38.8783 51.6801 36.7891 49.0024 36.7891C46.3247 36.7891 44.004 38.8783 43.8254 41.6035H46.6817C46.9495 40.5134 47.9313 39.605 49.0024 39.605C50.0735 39.605 51.0553 40.5134 51.3231 41.6035Z" fill="#53565A"/>
<path d="M66.4969 41.6035H69.3531C69.0854 38.8783 66.8539 36.7891 64.1762 36.7891C61.4985 36.7891 59.1778 38.8783 58.9993 41.6035H61.8555C62.1233 40.4226 63.1051 39.605 64.1762 39.605C65.3366 39.605 66.3184 40.5134 66.4969 41.6035Z" fill="#53565A"/>
<path d="M101.664 86.5679C101.664 70.8531 89.079 58.045 73.6374 58.045H70.3349L71.3167 57.1367C71.9416 56.5916 72.6556 55.8649 73.1912 55.2291L73.3697 55.0474H75.6011C80.5995 55.0474 84.6161 50.9597 84.6161 45.8728V42.1485L84.7946 41.9668C87.0261 40.4226 88.3649 37.8791 88.3649 35.154C88.3649 32.4289 87.0261 29.7946 84.7946 28.3412L84.6161 28.1596V27.887C84.2591 12.4447 72.0308 0.0908373 56.5893 0C56.5 0 56.5 0 56.4107 0C41.3262 0 28.8302 12.5355 28.5624 28.0687V28.3412L28.3839 28.5229C26.1524 29.9763 24.8136 32.5197 24.7243 35.3357C24.7243 39.7867 28.2946 43.5111 32.7575 43.5111H34.4534L34.5427 43.9652C35.346 49.0521 37.9344 53.7757 41.8618 57.2275L42.8436 58.1359H39.5411C24.0995 58.1359 11.5142 70.9439 11.5142 86.6588V112.275H0V115.091H113V112.275H101.575L101.664 86.5679ZM71.3167 60.9518L63.1943 77.3934H58.7314L66.8539 60.9518H71.3167ZM56.5893 75.6675L49.8057 61.8602L50.8768 62.1327C52.7512 62.6777 54.8041 62.9502 56.6785 62.9502C58.5529 62.9502 60.4273 62.6777 62.4803 62.1327L63.5513 61.8602L56.5893 75.6675ZM81.7599 45.9637C81.7599 49.143 79.5284 51.7773 76.4044 52.1406L75.4226 52.3223L75.9581 51.4139C77.2077 49.143 78.1003 46.6904 78.6359 43.8744L78.7251 43.5111H80.3317C80.421 43.5111 80.5995 43.5111 80.778 43.5111C80.9566 43.5111 81.1351 43.4202 81.3136 43.4202H81.7599V45.9637ZM85.5087 35.3357C85.5087 38.2425 83.188 40.6951 80.2425 40.6951H78.8144V29.9763H80.3317C83.188 29.9763 85.5087 32.3381 85.5087 35.3357ZM34.2749 40.6043H32.8468C29.9905 40.6043 27.5806 38.2425 27.5806 35.2449C27.5806 32.3381 29.9013 29.8855 32.8468 29.8855H34.2749V40.6043ZM34.5427 27.1603H32.8468C32.7575 27.1603 32.579 27.1603 32.4897 27.1603C32.3112 27.1603 32.1327 27.2512 31.9542 27.2512H31.4186V26.7062C32.4897 13.3531 43.4684 2.99763 56.5893 2.99763C69.6209 2.99763 80.6888 13.4439 81.6706 26.7062V27.2512H81.2243C81.0458 27.2512 80.8673 27.2512 80.6888 27.1603C80.5995 27.1603 80.421 27.1603 80.3317 27.1603H78.6359L78.5466 26.7062C76.7615 15.7148 67.4787 7.81201 56.5893 7.81201C45.6998 7.81201 36.4171 15.8057 34.6319 26.7062L34.5427 27.1603ZM37.1311 28.3412C38.2022 18.2583 46.5924 10.628 56.5 10.628C67.3002 10.628 76.0474 19.53 76.0474 30.4305V30.9755H75.5118C60.9629 30.4305 52.3049 24.4352 52.3049 18.8033C52.3049 17.9858 51.6801 17.3499 50.8768 17.3499C50.0735 17.3499 49.4487 17.9858 49.4487 18.8033C49.4487 23.7994 44.361 28.1596 37.6667 28.8863L37.0419 28.9771L37.1311 28.3412ZM37.1311 40.1501V31.793H37.5774C43.1114 31.3389 48.1991 28.5229 50.6983 24.5261L51.0553 23.8902L51.5016 24.4352C55.4289 29.7946 64.9795 33.4281 75.6011 33.7915H76.0474V40.0592C76.0474 44.3286 74.7085 48.5071 72.0308 51.9589L71.8523 52.1406H56.9463V54.9566H69.2638L68.0142 55.8649C67.1216 56.5916 65.872 57.4092 64.4439 58.045C61.9447 59.2259 59.1777 59.7709 56.4107 59.7709C53.6438 59.7709 50.8768 59.2259 48.2883 58.045C41.594 54.9566 37.1311 47.8713 37.1311 40.1501ZM46.2354 60.9518L54.2686 77.3934H49.8057L41.7725 60.9518H46.2354ZM20.8863 86.5679V112.184H14.2812V86.5679C14.2812 72.8515 24.8136 61.6785 38.2915 61.0427H38.6485L46.6817 77.3934H29.9013C24.9921 77.3934 20.8863 81.481 20.8863 86.5679ZM89.2575 112.184H23.7425V86.5679C23.7425 83.1161 26.5095 80.3002 29.9013 80.3002H83.0095C86.4013 80.3002 89.1682 83.1161 89.1682 86.5679V112.184H89.2575ZM98.8081 112.184H92.1137V86.5679C92.1137 81.481 88.0972 77.3934 83.0987 77.3934H66.4968L74.53 61.0427H74.887C88.3649 61.6785 98.8973 72.8515 98.8973 86.5679V112.184H98.8081Z" fill="#53565A"/>
<path d="M101.575 23.7994H98.8081V26.6153H101.575V23.7994Z" fill="#53565A"/>
<path d="M101.575 31.5205H98.8081V34.3365H101.575V31.5205Z" fill="#53565A"/>
<path d="M101.575 39.2417H98.8081V42.0577H101.575V39.2417Z" fill="#53565A"/>
<path d="M14.1919 40.6043H11.4249V43.4202H14.1919V40.6043Z" fill="#53565A"/>
<path d="M14.1919 48.3254H11.4249V51.1414H14.1919V48.3254Z" fill="#53565A"/>
<path d="M14.1919 56.1375H11.4249V58.9534H14.1919V56.1375Z" fill="#53565A"/>
<path d="M51.5016 92.0181V94.6524H53.2867V94.0165H55.9645V102.374H55.2504V104.099H58.9992V102.374H58.1066V94.0165H60.7844V94.6524H62.4803V91.9273L51.5016 92.0181Z" fill="#53565A"/>
</g>
</svg>
