<svg width="116" height="116" viewBox="0 0 116 116" fill="none" xmlns="http://www.w3.org/2000/svg">
<path d="M58 116C90.0325 116 116 90.0325 116 58C116 25.9675 90.0325 0 58 0C25.9675 0 0 25.9675 0 58C0 90.0325 25.9675 116 58 116Z" fill="#FC5A36"/>
<path d="M80.5 48.8V54.7001C80.5 56.7001 79.4 58.6 77.5 59.5C76.8 59.9 76 60 75.1 60H65.1L62 65.1L56.9 63.1L51.8 65.1L49 60.6L44.9 61.4001C42.8 61.8001 40.9 63 39.5 64.7C38.2 66.3 37.5 68.3001 37.5 70.4001V83.5C37.5 86.3 39.8 88.6 42.6 88.6H47.7V69.2C47.7 68.6 48.2 68.2 48.7 68.2H75.5C79.3 68.2 82.9 66.6 85.4 63.7001C86.4 62.5001 87.3 61.1 87.8 59.7001C88.4 58.2001 88.6 56.7 88.6 55.1V48.8H80.5Z" fill="#5EE2C5"/>
<path d="M57 63.1L51.9 65.1L49 60.6L51.8 60L57 63.1Z" fill="#0BDDAB"/>
<path d="M65.2 60L62.1 65.1L57 63.1L62.1 60H65.2Z" fill="#0BDDAB"/>
<path d="M72.3001 84.6V87.7C72.3001 88.3 71.8001 88.7 71.3001 88.7H47.8V84.6H72.3001Z" fill="#E6E9ED"/>
<path d="M72.3001 68.2V84.6H47.8V69.2C47.8 68.6 48.3 68.2 48.8 68.2H72.3001Z" fill="#FCEE21"/>
<path d="M62.0999 76.4C62.0999 77.5 61.1999 78.4 60.0999 78.4C58.9999 78.4 58.0999 77.5 58.0999 76.4C58.0999 75.3 58.9999 74.4 60.0999 74.4C61.1999 74.4 62.0999 75.3 62.0999 76.4Z" fill="#FDBF5E"/>
<path d="M80.4999 40.6L80.9999 37.7C81.1999 36.8 81.5999 36 82.2999 35.4C82.9999 34.8 83.8999 34.5 84.7999 34.5C86.8999 34.5 88.6999 36.2 88.6999 38.4V48.8H80.4999L79.5999 48C78.7999 47.2 78.3999 46.2 78.3999 45.1V42.7C78.3999 41.5 79.3999 40.6 80.4999 40.6Z" fill="#FBC4AC"/>
<path d="M61.4 36.5C58.9 36.4 56.5 35.9 54.2 35L53.7999 34.8C53.1999 34.6 52.5 34.4001 51.9 34.4001C49.1 34.4001 46.7999 36.7 46.7999 39.5V42.5H45.7999C44.9999 42.5 44.2 42.8 43.7 43.3L43 40.9001C42.8 40.0001 42.7 39.1 42.7 38.2001C42.7 35.2001 43.9 32.5 45.9 30.5C47.9 28.5 50.5999 27.3 53.5999 27.3H65.6999C68.7999 27.3 71.3 29.8001 71.3 32.9001C71.3 34.5001 70.6999 35.9001 69.6999 36.9001C68.9999 37.6001 68.2 38.1 67.3 38.3C66.8 38.4 66.3 38.5 65.8 38.5H64.8C63.2 38.6 62 37.7 61.4 36.5Z" fill="#3A484A"/>
<path d="M68.2 42.7C69.9 42.7 71.3 44.1 71.3 45.8C71.3 46.6 71 47.4 70.4 48C69.8 48.6 69.1 48.9 68.2 48.9H66.7C67 47.9 67.2 46.9 67.2 45.8V42.7H68.2Z" fill="#FBC4AC"/>
<path d="M47.1999 48.8H45.6999C44.8999 48.8 44.0999 48.5 43.4999 47.9C42.8999 47.3 42.5999 46.6 42.5999 45.7C42.5999 44.8 42.9999 44 43.5999 43.5C44.0999 43 44.8999 42.7 45.6999 42.7H46.6999V45.8C46.7999 46.8 46.8999 47.8 47.1999 48.8Z" fill="#FBC4AC"/>
<path d="M61.0999 55.1L62.0999 60.1L56.9999 63.1L51.8999 60L52.8999 55C54.1999 55.6 55.5999 55.9 56.9999 55.9C58.3999 56 59.7999 55.6 61.0999 55.1Z" fill="#FBC4AC"/>
<path d="M67.2 42.7V45.8C67.2 46.9 67 47.9 66.7 48.9C65.8 51.7 63.7 54 61.1 55.2C59.8 55.6 58.4 56 57 56C55.5 56 54.1001 55.7 52.9001 55.1C51.7001 54.6 50.7 53.9 49.8 53C48.7 51.9 47.8 50.4 47.3 48.8C47 47.8 46.8 46.8 46.8 45.7V39.6C46.8 36.8 49.1001 34.5 51.9001 34.5C52.6001 34.5 53.2 34.6 53.8 34.9L54.2001 35.1C56.5001 36 58.9001 36.5 61.4001 36.6C62.0001 37.8 63.2 38.7 64.6 38.7H65.6C66.1 38.7 66.6 38.6 67.1 38.5V42.7H67.2Z" fill="#FBC4AC"/>
<path d="M53.8 48.2H60.2001C60.2001 50 58.8 51.4 57 51.4C56.1 51.4 55.3001 51 54.7001 50.5C54.2001 49.9 53.8 49.1 53.8 48.2Z" fill="#F98084"/>
<path d="M36.5 57.2L35.7 61.3C35.6 61.8 35.2 62.1 34.7 62.1H32.3C31.8 62.1 31.4 61.8 31.3 61.3L30.5 57.2C31.4 57.7 32.4 58 33.5 58C34.6 58 35.6 57.7 36.5 57.2Z" fill="#E1E6E9"/>
<path d="M33.4999 58C32.3999 58 31.3999 57.7001 30.4999 57.2001C28.5999 56.1 27.3999 54.1001 27.3999 51.9001C27.3999 48.5001 30.1999 45.8 33.4999 45.8C36.7999 45.8 39.5999 48.6001 39.5999 51.9001C39.5999 54.2001 38.2999 56.2001 36.4999 57.2001C35.5999 57.7001 34.5999 58 33.4999 58Z" fill="#FCEE21"/>
<path d="M35.5 51.9C35.5 53 34.6 53.9 33.5 53.9C32.4 53.9 31.5 53 31.5 51.9C31.5 50.8 32.4 49.9 33.5 49.9C34.6 49.8 35.5 50.7 35.5 51.9Z" fill="#FDBF5E"/>
<path d="M52.9 43.7C53.5 43.7 53.9 44.2 53.9 44.7H55.9C55.9 43 54.4999 41.6 52.7999 41.6C51.0999 41.6 49.7 43 49.7 44.7H51.7C51.9 44.1 52.3 43.7 52.9 43.7Z" fill="black"/>
<path d="M61.1 43.7C61.7 43.7 62.1 44.2 62.1 44.7H64.1C64.1 43 62.7 41.6 61 41.6C59.3 41.6 58 43 58 44.7H60C60 44.1 60.5 43.7 61.1 43.7Z" fill="black"/>
<path d="M60.7 48.3V47.6H53.2V48.3C53.2 50.4 54.9 52 56.9 52C59 52.1 60.7 50.4 60.7 48.3ZM54.9 49.1H59.0999C58.7999 50 58 50.6 57 50.6C56 50.6 55.2 49.9 54.9 49.1Z" fill="black"/>
<path d="M84.8 33.5C82.4 33.5 80.4 35.2 80 37.6L79.6 39.8C78.3 40.2 77.4 41.3 77.4 42.7V45.1C77.4 46.5 77.9 47.7 78.9 48.7L79.4 49.2V54.7C79.4 56.4 78.5 57.8 77 58.6C76.4 58.9 75.7 59.1 75.1 59.1H62.9L62.2 55.7C64.6 54.4 66.4 52.4 67.4 49.9H68.2C70.5 49.9 72.3 48.1 72.3 45.8C72.3 43.5 70.5 41.7 68.2 41.7V39.1C70.6 38.1 72.3 35.7 72.3 33C72.3 29.3 69.3 26.4 65.7 26.4H53.6C47 26.4 41.7 31.8 41.7 38.3C41.7 39.3 41.8 40.3 42.1 41.2L42.6 43.3C42.1 44 41.7 44.9 41.7 45.8C41.7 48.1 43.5 49.9 45.8 49.9H46.6C47.6 52.4 49.4 54.5 51.8 55.7L51 59.2L44.7 60.5C42.4 61 40.2 62.3 38.7 64.1C37.3 65.9 36.5 68.2 36.5 70.5V83.6C36.5 87 39.3 89.7 42.6 89.7H71.2C72.3 89.7 73.2 88.8 73.2 87.7V69.2H75.4C79.5 69.2 83.3 67.4 86 64.4C88.3 61.8 89.5 58.5 89.5 55.1V38.4C89.7 35.7 87.5 33.5 84.8 33.5ZM79.5 42.7C79.5 42.1 80 41.7 80.5 41.7H82.5C83.1 41.7 83.5 42.2 83.5 42.7C83.5 43.2 83 43.7 82.5 43.7H81.5V45.7H82.5C84.2 45.7 85.6 44.3 85.6 42.6C85.6 40.9 84.2 39.5 82.5 39.5H81.7L82 37.8C82.2 36.4 83.4 35.4 84.8 35.4C86.4 35.4 87.7 36.7 87.7 38.3V47.7H81L80.5 47.2C79.9 46.6 79.6 45.9 79.6 45V42.7H79.5ZM63.4 61.1L61.7 63.9L59.3 62.9L62.4 61H63.4V61.1ZM70.3 45.7C70.3 46.8 69.4 47.7 68.3 47.7H68C68.1 47 68.2 46.4 68.2 45.7V43.7C69.4 43.7 70.3 44.6 70.3 45.7ZM45.7 47.8C44.6 47.8 43.7 46.9 43.7 45.8C43.7 44.7 44.6 43.8 45.7 43.8V45.8C45.7 46.5 45.8 47.2 45.9 47.8H45.7ZM45.7 39.6V41.6C45.2 41.6 44.7 41.7 44.3 41.9L44 40.7C43.8 39.9 43.7 39.1 43.7 38.3C43.7 32.8 48.1 28.4 53.6 28.4H65.7C68.2 28.4 70.3 30.5 70.3 33C70.3 35.5 68.2 37.6 65.7 37.6H64.7C63.3 37.6 62.2 36.5 62.2 35.1C62.2 34 62.9 33 63.9 32.7L64.5 32.5L63.9 30.6L63.3 30.8C61.3 31.3 60 33 60 35C60 35.1 60 35.3 60 35.4C58.1 35.2 56.3 34.8 54.5 34.1L54.1 33.9C53.4 33.6 52.6 33.5 51.8 33.5C48.5 33.5 45.7 36.2 45.7 39.6ZM47.8 45.7V39.6C47.8 37.3 49.6 35.5 51.9 35.5C52.4 35.5 52.9 35.6 53.4 35.8L53.8 36C56 36.9 58.4 37.4 60.8 37.5C61.6 38.8 63 39.6 64.6 39.6H65.6C65.8 39.6 65.9 39.6 66.1 39.6V45.8C66.1 50.9 62 55 56.9 55C51.8 55 47.8 50.8 47.8 45.7ZM57 57C58.2 57 59.3 56.8 60.4 56.5L61 59.6L57 62L53 59.6L53.6 56.5C54.7 56.8 55.8 57 57 57ZM51.7 61.1L54.7 62.9L52.3 63.9L50.7 61.3L51.7 61.1ZM48.8 87.6V85.6H71.3V87.6H48.8ZM71.3 83.6H48.8V69.2H71.3V83.6ZM84.7 63.1C82.4 65.7 79.1 67.2 75.6 67.2H48.8C47.7 67.2 46.8 68.1 46.8 69.2V81.5H42.7V83.5H46.8V87.6H42.7C40.4 87.6 38.6 85.8 38.6 83.5V70.4C38.6 68.6 39.2 66.8 40.4 65.3C41.6 63.8 43.3 62.8 45.2 62.4L48.6 61.7L51.5 66.4L56.9 64.2L57 64.3L57.1 64.2L62.5 66.4L65.7 61H75.1C76.1 61 77.1 60.8 78 60.3C80.2 59.2 81.5 57 81.5 54.6V49.7H87.6V55C87.6 58 86.6 60.9 84.7 63.1Z" fill="black"/>
<path d="M60 79.5C61.7 79.5 63.1 78.1 63.1 76.4C63.1 74.7 61.7 73.3 60 73.3C58.3 73.3 57 74.7 57 76.4C57 78.1 58.4 79.5 60 79.5ZM60 75.4C60.6 75.4 61 75.9 61 76.4C61 76.9 60.5 77.4 60 77.4C59.5 77.4 59 76.9 59 76.4C59 75.9 59.5 75.4 60 75.4Z" fill="black"/>
<path d="M37.4 57.8C39.3 56.5 40.5999 54.3 40.5999 51.8C40.5999 47.9 37.4 44.6 33.4 44.6C29.4 44.6 26.2 47.8 26.2 51.8C26.2 54.3 27.5 56.5 29.4 57.8L30.1 61.4C30.3 62.4 31.0999 63 32.0999 63H34.5C35.5 63 36.3 62.3 36.5 61.4L37.4 57.8ZM28.4 51.9C28.4 49.1 30.7 46.8 33.5 46.8C36.3 46.8 38.5999 49.1 38.5999 51.9C38.5999 54.4 36.8 56.4 34.5 56.9V54.8C35.7 54.4 36.5 53.3 36.5 51.9C36.5 50.2 35.1 48.8 33.4 48.8C31.7 48.8 30.2999 50.2 30.2999 51.9C30.2999 53.2 31.1999 54.4 32.2999 54.8V56.9C30.0999 56.4 28.4 54.3 28.4 51.9ZM32.4 51.9C32.4 51.3 32.9 50.9 33.4 50.9C34 50.9 34.4 51.4 34.4 51.9C34.4 52.5 33.9 52.9 33.4 52.9C32.9 52.9 32.4 52.4 32.4 51.9ZM32.2999 61.1L31.9 58.9C32.4 59 32.9999 59.1 33.5999 59.1C34.1999 59.1 34.6999 59 35.2999 58.9L34.9 61.1H32.2999Z" fill="black"/>
<path d="M34.3999 38.6H32.3999V42.7H34.3999V38.6Z" fill="black"/>
<path d="M27.3999 40L29.2999 39.2L30.8999 43L28.9999 43.8L27.3999 40Z" fill="black"/>
<path d="M36 43L37.6 39.2L39.5 40L37.9 43.8L36 43Z" fill="black"/>
</svg>
