<?xml version="1.0" encoding="utf-8"?>
<!-- Generator: Adobe Illustrator 24.0.2, SVG Export Plug-In . SVG Version: 6.00 Build 0)  -->
<svg version="1.1" id="Capa_1" xmlns="http://www.w3.org/2000/svg" xmlns:xlink="http://www.w3.org/1999/xlink" x="0px" y="0px"
	 viewBox="0 0 119.7 119.4" style="enable-background:new 0 0 119.7 119.4;" xml:space="preserve">
<style type="text/css">
	.st0{fill:#53565A;stroke:#FFFFFF;stroke-miterlimit:10;}
	.st1{fill:#53565A;}
</style>
<g>
	<g>
		<path class="st0" d="M52,42c1.1,0,2,0.9,2,2l3.9,0c0-3.2-2.6-5.9-5.9-5.9c-3.2,0-5.9,2.6-5.9,5.9l3.9,0C50.1,42.9,51,42,52,42z"/>
		<path class="st0" d="M67.7,42c1.1,0,2,0.9,2,2l3.9,0c0-3.2-2.6-5.9-5.9-5.9c-3.2,0-5.9,2.6-5.9,5.9l3.9,0
			C65.8,42.9,66.6,42,67.7,42z"/>
		<path class="st0" d="M106.9,89.1c0-16.2-13.2-29.4-29.4-29.4l-2.1,0c0.7-0.6,1.4-1.3,2-2l2.1,0c5.4,0,9.8-4.4,9.8-9.8l0-3.5
			c2.4-1.6,3.9-4.3,3.9-7.3c0-3.1-1.6-5.8-3.9-7.3C89,13.8,76,0.9,59.9,0.8S30.8,13.8,30.5,29.8c-2.4,1.6-3.9,4.3-4,7.3
			c0,4.9,4,8.8,8.8,8.8l1.3,0c0.9,5.4,3.7,10.2,7.7,13.7l-2.1,0c-16.2,0-29.4,13.2-29.4,29.4l0,25.5l-11.8,0l0,3.9l13.7,0l9.8,0
			l70.6,0l9.8,0l13.7,0l0-3.9l-11.8,0L106.9,89.1z M59.9,65.6c2.1,0,4.1-0.3,6.1-0.8l-6.1,12.1l-6.1-12.1
			C55.7,65.3,57.8,65.6,59.9,65.6z M74.3,63.6l-7.9,15.7l-3.5,0l7.9-15.7L74.3,63.6z M85.4,47.9c0,3-2.2,5.4-5.1,5.8
			c1.4-2.4,2.3-5,2.8-7.8l1.3,0c0.3,0,0.7-0.1,1-0.1L85.4,47.9z M84.4,42l-1,0l0-9.8l1,0c2.7,0,4.9,2.2,4.9,4.9
			C89.3,39.8,87.1,42,84.4,42z M59.9,4.8c13.4,0,24.4,10.5,25.4,23.6c-0.3,0-0.6-0.1-0.9-0.1l-1.3,0C81.2,17.2,71.5,8.7,59.9,8.7
			s-21.3,8.5-23.2,19.6l-1.3,0c-0.3,0-0.6,0.1-0.9,0.1C35.5,15.2,46.5,4.8,59.9,4.8z M79.5,32.2C65.3,31.7,56,25.9,56,20.4
			c0-1.1-0.9-2-2-2s-2,0.9-2,2c0,4.9-5.1,9-11.7,9.7c1.1-9.8,9.4-17.5,19.5-17.5C70.7,12.6,79.5,21.4,79.5,32.2z M35.4,42
			c-2.7,0-4.9-2.2-4.9-4.9s2.2-4.9,4.9-4.9l1,0l0,9.8L35.4,42z M40.3,42l0-8c6.1-0.5,11.3-3.5,13.9-7.6c4.1,5.4,13.7,9.3,25.3,9.7
			l0,5.9c0,4.4-1.5,8.5-4,11.8l-15.7,0l0,3.9l11.7,0c-1.1,0.8-2.3,1.6-3.6,2.2c-5.1,2.3-11,2.3-16.2,0C45,56.8,40.3,49.9,40.3,42z
			 M56.7,79.3l-3.5,0l-7.8-15.7l3.5,0L56.7,79.3z M16.7,89.1c0-13.7,10.8-24.8,24.3-25.4l7.8,15.6l-16.4,0c-5.4,0-9.8,4.4-9.8,9.8
			l0,25.5l-5.9,0L16.7,89.1z M26.5,114.6l0-25.5c0-3.2,2.6-5.9,5.9-5.9l19.6,0l7.8,0l7.8,0l19.6,0c3.2,0,5.9,2.6,5.9,5.9l0,25.5
			L26.5,114.6z M97.1,114.6l0-25.5c0-5.4-4.4-9.8-9.8-9.8l-16.4,0l7.8-15.6C92.2,64.3,103,75.5,103,89.1l0,25.5L97.1,114.6z"/>
		<rect x="103" y="24.9" class="st0" width="3.9" height="3.9"/>
		<rect x="103" y="32.8" class="st0" width="3.9" height="3.9"/>
		<rect x="103" y="40.6" class="st0" width="3.9" height="3.9"/>
		<rect x="12.8" y="42" class="st0" width="3.9" height="3.9"/>
		<rect x="12.8" y="49.8" class="st0" width="3.9" height="3.9"/>
		<rect x="12.8" y="57.7" class="st0" width="3.9" height="3.9"/>
		<polygon class="st1" points="54.7,93.7 54.7,96.4 56.5,96.4 56.5,95.7 59.3,95.7 59.3,104.2 58.5,104.2 58.5,106 62.4,106 
			62.4,104.2 61.5,104.2 61.5,95.7 64.2,95.7 64.2,96.4 66,96.4 66,93.6 		"/>
	</g>
</g>
</svg>
