<svg width="97" height="117" viewBox="0 0 97 117" fill="none" xmlns="http://www.w3.org/2000/svg">
<path d="M47.1304 3.63223H48.9608C63.6948 3.63223 74.4936 12.9812 80.9913 21.1502C87.4889 29.2285 93.0713 43.4789 93.0713 57.82V60.3615C93.0713 86.23 74.5852 114.186 48.5947 114.186H47.1304C32.3964 114.186 21.4145 104.565 14.8254 96.3959C8.14473 87.9546 2.92834 73.6135 2.83682 58.9092C2.74531 44.4773 8.23625 29.6823 14.7339 21.5133C21.4145 13.1627 32.0303 3.63223 47.1304 3.63223Z" stroke="#53565A" stroke-width="0.3979" stroke-miterlimit="10"/>
<path d="M0.274414 57.3662C0.274414 43.1158 6.40597 26.7778 13.1781 19.0626C17.8454 13.7981 20.5909 10.6213 26.9055 6.80908C31.8473 3.90454 39.1686 1 47.1305 1H48.8693C76.324 1 95.8168 30.0454 95.8168 57.0031V60.4523C95.8168 87.6823 76.324 116.546 48.5032 116.546H47.588C19.5842 116.546 0.274414 87.5915 0.274414 60.0892V57.3662V57.3662Z" stroke="#53565A" stroke-width="0.5299" stroke-miterlimit="10"/>
<path d="M13.4526 57.457C13.4526 46.3834 17.8454 33.7668 22.7872 27.867C26.1733 23.7825 28.1867 21.3318 32.7625 18.4272C36.3316 16.1581 41.6395 13.8889 47.405 13.8889H48.6862C68.5451 13.8889 82.6385 36.3083 82.6385 57.1847V59.9077C82.6385 80.9656 68.5451 103.203 48.4116 103.203H47.6795C27.4545 103.203 13.4526 80.8748 13.4526 59.6354C13.4526 59.6354 13.4526 57.457 13.4526 57.457Z" stroke="#53565A" stroke-width="0.2649" stroke-miterlimit="10"/>
<path d="M75.5003 95.1252C75.2257 95.3975 75.8663 94.7621 75.5003 95.1252V95.1252Z" fill="#53565A"/>
<path d="M7.13802 78.9687L7.0465 78.6964V78.6056V78.5149C7.0465 78.5149 7.0465 78.5149 7.0465 78.4241C7.0465 78.4241 7.0465 78.4241 7.0465 78.3333L6.95499 78.061L10.0665 77.4257C10.4326 77.3349 10.7071 77.2441 10.9817 77.1534C11.2562 77.0626 11.3477 76.8811 11.5308 76.6995C11.6223 76.518 11.7138 76.3365 11.7138 76.1549C11.7138 75.9734 11.7138 75.7919 11.7138 75.6103C11.6223 75.338 11.5308 75.1565 11.4393 74.9749C11.3477 74.7934 11.1647 74.7027 10.9817 74.6119C10.7986 74.5211 10.6156 74.5211 10.3411 74.4303C10.0665 74.4303 9.79198 74.4303 9.51743 74.5211L6.22286 75.1565V74.7934L6.13135 74.5211L9.24288 73.8857C9.60895 73.795 9.97501 73.795 10.2496 73.795C10.5241 73.795 10.7986 73.8857 11.0732 73.9765C11.3477 74.0673 11.5308 74.2488 11.7138 74.5211C11.8968 74.7934 11.9884 75.0657 12.0799 75.5196L12.1714 75.7919C12.2629 76.1549 12.2629 76.518 12.2629 76.8811C12.1714 77.1534 12.0799 77.4257 11.8968 77.6072C11.7138 77.7887 11.5308 77.9703 11.2562 78.061C10.9817 78.1518 10.7986 78.2426 10.5241 78.3333L7.13802 78.9687Z" fill="#53565A"/>
<path d="M5.67392 71.8889V71.6166V71.2535L9.06001 67.6229L5.30786 67.9859V67.7136C5.30786 67.7136 5.30786 67.7136 5.30786 67.6229C5.30786 67.6229 5.30786 67.6229 5.30786 67.5321V67.2598L10.7073 66.7152V66.9875V67.2598L7.13818 70.9812L10.9818 70.5274V70.7997V71.072L5.67392 71.8889Z" fill="#53565A"/>
<path d="M5.12476 64.1737C5.12476 64.0829 5.12476 64.0829 5.12476 64.1737C5.12476 64.0829 5.12476 64.0829 5.12476 64.1737C5.12476 64.0829 5.12476 64.0829 5.12476 64.1737V63.9922V63.9014V63.6291L10.5242 63.9922V64.2645C10.5242 64.2645 10.5242 64.2645 10.5242 64.3552V64.446V64.5368V64.6275V64.8998L5.12476 64.5368V64.1737Z" fill="#53565A"/>
<path d="M4.94171 61.3599V61.1784V61.0876V60.8153L9.24295 59.8169C9.15143 59.8169 9.15143 59.7261 9.05992 59.7261C8.9684 59.7261 8.9684 59.6353 8.87688 59.5446C8.69385 59.4538 8.60234 59.3631 8.41931 59.2723C8.23628 59.1815 8.05324 59.0908 7.87021 59C7.7787 59 7.7787 58.9092 7.68718 58.9092C7.59566 58.9092 7.59566 58.8185 7.50415 58.8185C7.50415 58.8185 7.41263 58.8185 7.41263 58.7277C7.41263 58.7277 7.32112 58.7277 7.32112 58.6369C7.32112 58.6369 7.2296 58.6369 7.2296 58.5462C7.2296 58.5462 7.13809 58.5462 7.13809 58.4554C6.95506 58.3646 6.86354 58.2739 6.68051 58.1831C6.49748 58.0923 6.40596 58.0016 6.22293 57.9108C6.0399 57.82 5.94838 57.7293 5.76535 57.7293C5.58232 57.6385 5.4908 57.6385 5.39929 57.5477V57.2754C5.39929 57.2754 5.39929 57.2754 5.39929 57.1847V56.9124L10.3411 59.9077L10.2496 60.18V59.9077L10.1581 60.18L4.48413 61.6322L4.57565 61.3599C4.85019 61.4507 4.85019 61.3599 4.94171 61.3599Z" fill="#53565A"/>
<path d="M5.30786 55.3693V55.097L5.58241 52.374H5.67392C5.67392 52.374 5.67392 52.374 5.76544 52.374H5.85696C5.85696 52.374 5.85696 52.374 5.94847 52.374V52.6463C5.94847 52.7371 5.94847 52.8279 5.85696 52.8279C5.85696 52.9186 5.85696 53.0094 5.76544 53.1002C5.76544 53.1909 5.76544 53.2817 5.76544 53.3725C5.76544 53.4632 5.76544 53.554 5.76544 53.6448C5.76544 53.6448 5.76544 53.6448 5.76544 53.7355C5.76544 53.7355 5.76544 53.7355 5.76544 53.8263C5.76544 53.8263 5.76544 53.8263 5.76544 53.9171C5.76544 53.9171 5.76544 53.9171 5.76544 54.0078C5.76544 54.0078 5.76544 54.0078 5.76544 54.0986C5.76544 54.0986 5.76544 54.0986 5.76544 54.1894C5.76544 54.1894 5.76544 54.1894 5.76544 54.2801C5.76544 54.2801 5.76544 54.2801 5.76544 54.3709V54.4617V54.5524L7.68727 54.734L7.77879 53.9171V53.1909V52.9186H7.8703C7.8703 52.9186 7.8703 52.9186 7.96182 52.9186C7.96182 52.9186 7.96182 52.9186 8.05333 52.9186C8.05333 52.9186 8.05333 52.9186 8.14485 52.9186C8.14485 52.9186 8.14485 52.9186 8.23636 52.9186H8.32788V53.1909L8.14485 54.0986L8.05333 54.734L10.2497 55.0063V54.9155V54.8247V54.734V54.6432V54.5524C10.2497 54.5524 10.2497 54.5524 10.2497 54.4617C10.2497 54.4617 10.2497 54.4617 10.2497 54.3709C10.2497 54.3709 10.2497 54.3709 10.2497 54.2801C10.2497 54.1894 10.2497 54.0986 10.2497 54.0078C10.2497 53.9171 10.2497 53.8263 10.2497 53.7355C10.2497 53.6448 10.2497 53.554 10.2497 53.4632C10.2497 53.3725 10.2497 53.2817 10.2497 53.2817V53.0094H10.3412C10.3412 53.0094 10.3412 53.0094 10.4327 53.0094C10.4327 53.0094 10.4327 53.0094 10.5243 53.0094C10.5243 53.0094 10.5243 53.0094 10.6158 53.0094C10.6158 53.0094 10.6158 53.0094 10.7073 53.0094C10.7073 53.0094 10.7073 53.0094 10.7988 53.0094C10.7988 53.0094 10.7988 53.0094 10.8903 53.0094V53.2817L10.6158 56.0047L5.30786 55.3693Z" fill="#53565A"/>
<path d="M8.60241 49.9233C8.60241 49.651 8.69392 49.5603 8.69392 49.3787C8.69392 49.1972 8.69392 49.1064 8.60241 49.0157C8.60241 48.9249 8.51089 48.7434 8.41937 48.6526C8.32786 48.5618 8.32786 48.4711 8.23634 48.4711C8.14483 48.4711 8.14483 48.3803 8.05331 48.3803C7.9618 48.3803 7.9618 48.2895 7.87028 48.2895C7.77876 48.2895 7.77876 48.2895 7.68725 48.2895H7.59573H7.50422H7.4127H7.32119C7.32119 48.2895 7.22967 48.2895 7.13815 48.2895C7.04664 48.2895 6.95512 48.3803 6.95512 48.3803C6.86361 48.4711 6.77209 48.4711 6.77209 48.5618C6.68058 48.6526 6.68057 48.7434 6.58906 48.8341C6.49754 48.9249 6.49754 49.1064 6.49754 49.1972L6.40603 49.5603L8.60241 49.9233ZM5.85693 50.3772L5.94845 50.1049L6.31451 48.2895C6.40603 48.108 6.40603 47.9265 6.49754 47.7449C6.58906 47.5634 6.68058 47.4726 6.86361 47.3819C7.04664 47.2911 7.13815 47.2003 7.32119 47.2003C7.50422 47.2003 7.68725 47.2003 7.87028 47.2003C8.05331 47.2003 8.23634 47.2911 8.32786 47.3819C8.41937 47.4726 8.60241 47.5634 8.69392 47.6542C8.78544 47.7449 8.87695 47.9265 8.87695 48.0172C8.96847 48.108 8.96847 48.2895 8.96847 48.3803C8.96847 48.4711 8.96847 48.4711 8.96847 48.5618C8.96847 48.6526 8.96847 48.6526 8.96847 48.7434C8.96847 48.8341 8.96847 48.8341 8.96847 48.9249C8.96847 49.0157 8.96847 49.0157 8.96847 49.1064L11.897 47.6542L11.8055 47.9265C11.8055 47.9265 11.8055 47.9265 11.8055 48.0172C11.8055 48.0172 11.8055 48.0172 11.8055 48.108C11.8055 48.108 11.8055 48.108 11.8055 48.1988V48.2895V48.3803L11.7139 48.6526L8.96847 50.0141L11.4394 50.4679L11.3479 50.7402V50.831L11.2564 51.1033L5.85693 50.3772Z" fill="#53565A"/>
<path d="M7.68711 45.1127C7.59559 45.0219 7.41256 44.8404 7.41256 44.6588C7.32105 44.4773 7.32104 44.2958 7.32104 44.205C7.32104 44.0235 7.32104 43.8419 7.32104 43.7512L7.41256 43.4789C7.41256 43.3881 7.50408 43.2066 7.50408 43.1158C7.59559 43.025 7.59559 42.9343 7.68711 42.8435C7.77862 42.7527 7.77862 42.662 7.87014 42.662C7.96166 42.5712 8.05317 42.5712 8.05317 42.5712L8.14469 42.662L8.2362 42.7527L8.32772 42.8435C8.41923 42.8435 8.41923 42.9343 8.51075 42.9343L8.41923 43.2066V43.2973C8.41923 43.2973 8.41923 43.2973 8.32772 43.2973C8.32772 43.2973 8.32772 43.2973 8.2362 43.2973H8.14469H8.05317C7.96166 43.2973 7.96166 43.3881 7.87014 43.3881C7.77862 43.3881 7.77862 43.4789 7.68711 43.5696L7.59559 43.6604C7.59559 43.7512 7.50408 43.7512 7.50408 43.8419C7.50408 43.9327 7.50408 44.0235 7.50408 44.1142C7.50408 44.205 7.59559 44.2958 7.59559 44.3865C7.68711 44.4773 7.77862 44.5681 7.87014 44.6588C7.96166 44.7496 8.05317 44.7496 8.14469 44.8404C8.2362 44.8404 8.32772 44.8404 8.32772 44.8404C8.41923 44.8404 8.51075 44.8404 8.60226 44.7496C8.69378 44.7496 8.7853 44.6588 8.87681 44.5681C8.96833 44.4773 9.05984 44.4773 9.15136 44.2958L9.70045 43.5696C9.79197 43.4789 9.88349 43.2973 10.0665 43.2973C10.158 43.2066 10.3411 43.1158 10.4326 43.1158C10.5241 43.1158 10.7071 43.025 10.7986 43.025C10.8902 43.025 11.0732 43.025 11.1647 43.1158C11.3477 43.2066 11.5308 43.2973 11.7138 43.3881C11.8968 43.5696 11.9883 43.6604 12.1714 43.9327C12.2629 44.1142 12.3544 44.3865 12.4459 44.5681C12.4459 44.7496 12.4459 45.0219 12.3544 45.2942H12.629C12.629 45.385 12.5374 45.4757 12.5374 45.5665C12.4459 45.6573 12.4459 45.748 12.3544 45.8388C12.2629 45.9296 12.2629 46.0203 12.1714 46.0203C12.0799 46.1111 12.0799 46.1111 11.9883 46.2019L11.8968 46.1111L11.8053 46.0203C11.8053 46.0203 11.8053 46.0203 11.7138 46.0203C11.7138 46.0203 11.7138 46.0203 11.6223 46.0203C11.6223 46.0203 11.6223 46.0203 11.5308 46.0203C11.5308 46.0203 11.5308 46.0203 11.4393 46.0203C11.4393 46.0203 11.4393 46.0203 11.3477 46.0203V45.9296L11.4393 45.6573C11.7138 45.5665 11.8968 45.4757 11.9883 45.4757C12.1714 45.385 12.2629 45.2942 12.2629 45.2034C12.2629 45.1127 12.3544 45.1127 12.3544 45.0219C12.3544 44.9311 12.4459 44.9311 12.4459 44.8404C12.4459 44.7496 12.4459 44.5681 12.4459 44.4773C12.4459 44.3865 12.3544 44.2958 12.2629 44.205C12.1714 44.1142 12.0799 44.0235 11.9883 43.9327C11.8968 43.8419 11.8053 43.8419 11.6223 43.7512C11.5308 43.7512 11.4393 43.7512 11.3477 43.7512C11.2562 43.7512 11.1647 43.7512 11.0732 43.8419C10.9817 43.8419 10.8902 43.9327 10.7986 43.9327C10.7071 44.0235 10.6156 44.1142 10.5241 44.205L9.975 44.8404C9.79197 45.0219 9.70045 45.2034 9.51742 45.2942C9.33439 45.385 9.24287 45.4757 9.05984 45.4757C8.96833 45.4757 8.7853 45.4757 8.69378 45.4757C8.60227 45.4757 8.41923 45.4757 8.32772 45.385C7.96166 45.2942 7.77862 45.2034 7.68711 45.1127Z" fill="#53565A"/>
<path d="M8.51091 39.7574C8.60243 39.6667 8.60243 39.6667 8.51091 39.7574C8.60243 39.6667 8.60243 39.6667 8.51091 39.7574C8.60243 39.6667 8.60243 39.6667 8.51091 39.7574L8.60243 39.5759V39.4851L8.69394 39.2128L13.8188 40.8466L13.7273 41.1189C13.7273 41.1189 13.7273 41.1189 13.7273 41.2097V41.3005V41.3912C13.7273 41.3912 13.7273 41.3912 13.7273 41.482L13.5443 41.7543L8.32788 40.1205L8.51091 39.7574Z" fill="#53565A"/>
<path d="M10.0667 36.2175L14.3679 37.9421C14.3679 37.8513 14.4595 37.8513 14.4595 37.7606C14.4595 37.6698 14.551 37.6698 14.551 37.579C14.734 37.216 14.734 36.8529 14.8255 36.5806C14.917 36.3083 14.8255 36.036 14.734 35.7637C14.6425 35.4914 14.4595 35.3099 14.1849 35.0376C13.9104 34.856 13.6358 34.5837 13.1782 34.4022C13.1782 34.4022 13.1782 34.4022 13.0867 34.4022C13.0867 34.4022 13.0867 34.4022 12.9952 34.4022C12.6292 34.3114 12.3546 34.2206 12.0801 34.2206C11.8055 34.2206 11.6225 34.2206 11.4394 34.4022C11.2564 34.4929 11.0734 34.6745 10.8904 34.7653C10.7073 34.9468 10.6158 35.0376 10.5243 35.2191C10.5243 35.2191 10.5243 35.2191 10.5243 35.3099C10.5243 35.3099 10.5243 35.3098 10.5243 35.4006V35.4914C10.5243 35.4914 10.5243 35.4914 10.5243 35.5822C10.5243 35.5822 10.5243 35.5822 10.5243 35.6729C10.5243 35.7637 10.5243 35.7637 10.4328 35.8545C10.4328 35.9452 10.4328 35.9452 10.4328 36.036V36.1268V36.2175C10.1582 36.1268 10.1582 36.1268 10.0667 36.2175C10.1582 36.2175 10.1582 36.2175 10.0667 36.2175ZM10.4328 34.4929C10.6158 34.1299 10.7988 33.7668 11.0734 33.5853C11.3479 33.313 11.531 33.2222 11.897 33.1314C12.1716 33.0407 12.5376 33.0407 12.8122 33.0407C13.0867 33.0407 13.4528 33.1314 13.7273 33.313C13.8189 33.313 13.9104 33.4037 14.0019 33.4037C14.0934 33.4037 14.1849 33.4945 14.2764 33.4945C14.3679 33.5853 14.4595 33.5853 14.551 33.676C14.6425 33.7668 14.734 33.7668 14.8255 33.8576C15.0086 34.0391 15.1001 34.1299 15.2831 34.4022C15.3746 34.5837 15.5577 34.7653 15.6492 35.0376C15.7407 35.3099 15.8322 35.4914 15.7407 35.7637C15.7407 36.036 15.6492 36.3083 15.5577 36.6714L15.4661 36.9437L14.6425 38.9405L9.60913 36.9437L9.70065 36.6714L10.4328 34.4929Z" fill="#53565A"/>
<path d="M15.9236 29.6823L14.2763 29.5008L15.283 30.7715L15.9236 29.6823ZM12.9951 28.8654L13.1781 28.5931L13.2697 28.4116L19.2182 29.047L19.0352 29.3193C19.0352 29.3193 19.0352 29.3193 19.0352 29.41C19.0352 29.41 19.0352 29.41 19.0352 29.5008C19.0352 29.5008 19.0352 29.5008 19.0352 29.5916L18.8521 29.8639L16.2897 29.6823L15.5576 31.0438L17.1133 32.7684L16.9303 33.0407L16.7473 33.4945L12.9951 28.8654Z" fill="#53565A"/>
<path d="M16.5643 24.2363L20.225 27.1408L20.3165 27.0501L20.408 26.9593C20.6825 26.5962 20.8656 26.3239 20.9571 26.0516C21.0486 25.7793 21.1401 25.507 21.0486 25.2347C21.0486 24.9624 20.9571 24.6901 20.7741 24.4178C20.591 24.1455 20.3165 23.8732 19.9504 23.5102C19.6759 23.3286 19.4013 23.1471 19.1268 23.0563C18.9437 22.6025 18.6692 22.6025 18.4862 22.6025C18.3031 22.6933 18.0286 22.6933 17.8455 22.784C17.6625 22.8748 17.4795 22.9656 17.2965 23.1471C17.2965 23.1471 17.2965 23.1471 17.2049 23.2379C17.2049 23.2379 17.2049 23.2379 17.1134 23.3286C17.1134 23.3286 17.1134 23.3286 17.0219 23.4194C17.0219 23.4194 17.0219 23.4194 16.9304 23.5102L16.8389 23.6009L16.7474 23.6917C16.7474 23.6917 16.7474 23.7825 16.6558 23.7825C16.6558 23.7825 16.6558 23.8732 16.5643 23.8732C16.6558 24.1455 16.5643 24.1455 16.5643 24.2363C16.5643 24.1455 16.5643 24.1455 16.5643 24.2363ZM17.2965 22.6025C17.571 22.2394 17.8455 22.0579 18.1201 21.8764C18.3946 21.6948 18.6692 21.6948 19.0353 21.6948C19.3098 21.6948 19.5843 21.7856 19.9504 21.8764C20.225 21.9671 20.4995 22.1487 20.7741 22.3302C20.8656 22.421 20.8656 22.421 20.9571 22.5117C21.0486 22.6025 21.0486 22.6025 21.1401 22.6933C21.2316 22.784 21.2316 22.8748 21.3231 22.8748C21.4147 22.9656 21.4147 23.0563 21.5062 23.1471C21.5977 23.3286 21.6892 23.5102 21.7807 23.7825C21.8722 23.964 21.8722 24.2363 21.9638 24.5086C21.9638 24.7809 21.9638 25.0532 21.8722 25.3255C21.7807 25.5978 21.5977 25.8701 21.4147 26.1424L21.2316 26.4147L19.8589 28.1393L15.6492 24.7809L15.8322 24.5086L17.2965 22.6025Z" fill="#53565A"/>
<path d="M24.1599 14.9781L24.4345 14.7966L24.709 14.615L29.8339 15.7042L27.4545 12.6182L27.729 12.4366C27.729 12.4366 27.729 12.4366 27.8205 12.4366C27.8205 12.4366 27.8205 12.4366 27.9121 12.4366L28.1866 12.2551L31.5727 16.7027L31.2981 16.8842L30.9321 16.7934L25.7157 15.7042L28.1866 18.8811L27.9121 19.0626L27.6375 19.2441L24.1599 14.9781Z" fill="#53565A"/>
<path d="M34.1352 12.0736L32.854 10.9844L33.037 12.7089L34.1352 12.0736ZM32.1218 9.62286L32.3964 9.44132L32.5794 9.35056L37.2467 13.3443L36.9722 13.5258C36.9722 13.5258 36.9722 13.5258 36.8806 13.5258C36.8806 13.5258 36.8806 13.5258 36.7891 13.5258C36.7891 13.5258 36.7891 13.5258 36.6976 13.5258L36.4231 13.7074L34.6843 12.0736L33.22 12.7997L33.4946 15.1596L33.22 15.3412L32.9455 15.5227L32.1218 9.62286Z" fill="#53565A"/>
<path d="M37.0637 9.44132C37.0637 9.07825 37.2468 8.71518 37.3383 8.44288C37.5213 8.07982 37.7043 7.80752 38.0704 7.62598C38.4365 7.35368 38.8025 7.17215 39.1686 6.99062L39.4431 6.89985H39.5346H39.6262H39.7177H39.8092C39.9007 6.89985 39.9007 6.89985 39.9922 6.89985C40.0837 6.89985 40.0837 6.89985 40.1753 6.89985C40.2668 6.89985 40.3583 6.89985 40.5413 6.80908C40.6328 6.80908 40.7244 6.80908 40.9074 6.80908C40.9989 6.80908 41.0904 6.80908 41.1819 6.80908C41.2734 6.80908 41.365 6.80908 41.4565 6.89985V7.53522L41.1819 7.62598H41.0904C40.9989 7.53522 40.9074 7.53522 40.7244 7.44445C40.6328 7.44445 40.5413 7.35368 40.3583 7.35368C40.2668 7.35368 40.1753 7.35368 39.9922 7.35368C39.9007 7.35368 39.8092 7.35368 39.6262 7.35368H39.5346H39.4431C39.2601 7.44445 38.9856 7.53522 38.8025 7.71675C38.6195 7.89828 38.4365 8.07982 38.3449 8.26135C38.1619 8.53365 38.1619 8.80595 38.0704 9.07825C38.0704 9.35055 38.0704 9.71362 38.1619 10.0767V10.1675V10.2582C38.2534 10.7121 38.4365 11.0751 38.6195 11.3474C38.8025 11.6197 39.0771 11.8013 39.2601 11.9828C39.5346 12.0736 39.7177 12.1643 39.9922 12.1643C40.2668 12.1643 40.4498 12.1643 40.7244 12.1643C40.8159 12.0736 40.9989 12.0736 41.0904 11.9828C41.1819 11.892 41.365 11.8013 41.4565 11.8013C41.548 11.7105 41.6395 11.6197 41.731 11.529C41.8225 11.4382 41.9141 11.3474 42.0056 11.2567L42.2801 11.1659L42.3716 11.6197L42.2801 11.7105L42.1886 11.8013L42.0971 11.892L42.0056 11.9828C41.9141 11.9828 41.9141 12.0736 41.8225 12.0736C41.731 12.0736 41.731 12.1643 41.6395 12.1643C41.6395 12.1643 41.6395 12.1643 41.548 12.1643C41.4565 12.1643 41.365 12.2551 41.365 12.2551C41.2734 12.2551 41.2734 12.3459 41.1819 12.3459C41.0904 12.3459 41.0904 12.4366 40.9989 12.4366C40.9074 12.4366 40.9074 12.4366 40.8159 12.5274L40.7244 12.6182C40.3583 12.7089 39.9922 12.7089 39.6262 12.7089C39.2601 12.7089 38.894 12.5274 38.6195 12.4366C38.2534 12.2551 37.9789 11.9828 37.7958 11.7105C37.6128 11.4382 37.4298 11.0751 37.2468 10.6213C37.0637 10.1675 37.0637 9.80439 37.0637 9.44132Z" fill="#53565A"/>
<path d="M43.9273 6.17371C44.0189 6.17371 44.0189 6.17371 43.9273 6.17371H44.1104H44.2019H44.4764L45.117 11.7105H44.8425C44.8425 11.7105 44.8425 11.7105 44.751 11.7105H44.6595H44.568H44.4764H44.2019L43.5613 6.17371H43.9273C43.8358 6.17371 43.8358 6.17371 43.9273 6.17371Z" fill="#53565A"/>
<path d="M47.771 8.71518C47.771 9.16901 47.771 9.53208 47.8626 9.80438C47.9541 10.1674 48.0456 10.4397 48.3201 10.6213C48.5032 10.8028 48.6862 10.9843 48.9607 11.1659C49.2353 11.2566 49.4183 11.3474 49.6929 11.4382C49.9674 11.4382 50.242 11.3474 50.425 11.2566C50.608 11.1659 50.8826 10.9843 51.0656 10.8028C51.2486 10.6213 51.4317 10.349 51.6147 9.98591C51.7062 9.71361 51.7977 9.35054 51.8893 8.89671C51.8893 8.53364 51.8892 8.26134 51.7977 7.89828C51.7062 7.62597 51.6147 7.35367 51.3402 7.08137C51.1571 6.89984 50.9741 6.71831 50.6995 6.53677C50.425 6.35524 50.0589 6.26447 49.7844 6.17371C49.5098 6.17371 49.4183 6.26447 49.1438 6.26447C48.9607 6.35524 48.7777 6.44601 48.5947 6.62754C48.4116 6.80907 48.3201 6.99061 48.1371 7.17214C48.0456 7.35367 47.9541 7.62597 47.8626 7.80751C47.8626 7.89828 47.8626 7.89828 47.771 7.98904C47.771 8.07981 47.771 8.07981 47.6795 8.17058C47.6795 8.26134 47.6795 8.26134 47.6795 8.35211C47.771 8.53364 47.771 8.62441 47.771 8.71518ZM46.6729 8.53364C46.6729 8.44288 46.6729 8.44288 46.6729 8.35211V8.26134C46.7644 7.89828 46.8559 7.62597 46.9474 7.35367C47.1304 7.08137 47.3135 6.80907 47.588 6.53677C47.8626 6.26447 48.1371 6.08294 48.5032 5.99217C48.8692 5.90141 49.3268 5.81064 49.7844 5.81064H50.0589C50.5165 5.81064 50.9741 5.90141 51.2486 6.08294C51.7062 6.26447 51.9808 6.44601 52.1638 6.62754C52.3468 6.80907 52.5299 7.08137 52.6214 7.35367C52.7129 7.62597 52.8044 7.89828 52.8959 8.07981V8.17058V8.26134V8.35211V8.44288C52.8959 8.53364 52.8959 8.53364 52.8959 8.62441C52.8959 8.71518 52.8959 8.71518 52.8959 8.80594C52.8959 9.25978 52.8044 9.62285 52.6214 9.98591C52.4383 10.349 52.2553 10.6213 51.8893 10.8936C51.6147 11.1659 51.2486 11.3474 50.8826 11.4382C50.5165 11.5289 50.1505 11.6197 49.7844 11.5289H49.5098C49.4183 11.5289 49.4183 11.5289 49.3268 11.5289C49.2353 11.5289 49.2353 11.5289 49.1438 11.5289C49.0523 11.5289 49.0523 11.5289 48.9607 11.5289C48.8692 11.5289 48.8692 11.5289 48.7777 11.4382C48.5032 11.3474 48.3201 11.2566 48.0456 11.0751C47.771 10.8936 47.588 10.712 47.405 10.5305C47.2219 10.2582 47.0389 9.98591 46.9474 9.71361C46.6729 9.44131 46.6729 9.07824 46.6729 8.53364C46.6729 8.62441 46.6729 8.53364 46.6729 8.53364Z" fill="#53565A"/>
<path d="M55.55 6.62753L55.8245 6.7183L56.1906 6.80907L58.2955 11.5289L59.4852 7.8075L59.7597 7.89827C59.7597 7.89827 59.7597 7.89827 59.8512 7.89827L60.3088 8.0798L58.6615 13.435L58.387 13.3443L58.1124 13.2535L55.916 8.44287L54.7263 12.2551L54.4518 12.1643L54.1772 12.0735L55.55 6.62753Z" fill="#53565A"/>
<path d="M63.7864 13.1628L63.9694 11.4382L62.5967 12.5274L63.7864 13.1628ZM64.61 10.1674L64.8846 10.349L65.0676 10.4398L64.3355 16.5211L64.0609 16.2488C64.0609 16.2488 64.0609 16.2488 63.9694 16.2488C63.9694 16.2488 63.9694 16.2488 63.8779 16.2488C63.8779 16.2488 63.8779 16.2488 63.7864 16.2488L63.5118 16.0673L63.8779 13.7074L62.5051 12.8905L60.6748 14.4335L60.4003 14.252L60.1257 14.0704L64.61 10.1674Z" fill="#53565A"/>
<path d="M68.8196 12.7997L69.0941 12.9812V13.072C69.0941 13.072 69.0941 13.072 69.1857 13.1628H69.2772C69.2772 13.1628 69.2772 13.1628 69.3687 13.1628L69.6432 13.3443L66.4402 17.338L66.5317 17.4288L66.6232 17.5196L66.7147 17.6103L66.8063 17.7011C66.8063 17.7011 66.8063 17.7011 66.8978 17.7011C66.9893 17.7011 66.8978 17.7011 66.9893 17.7011C66.9893 17.7011 66.9893 17.7011 67.0808 17.7011C67.0808 17.7011 67.0808 17.7011 67.1723 17.7011C67.2638 17.7919 67.3553 17.7919 67.4469 17.8826C67.5384 17.9734 67.6299 17.9734 67.7214 18.0642C67.8129 18.1549 67.9044 18.1549 67.9044 18.2457C67.996 18.2457 67.996 18.3365 68.0875 18.3365L68.362 18.518C68.362 18.518 68.362 18.518 68.2705 18.518L67.5384 18.9718L65.2505 17.1565L68.8196 12.7997Z" fill="#53565A"/>
<path d="M75.4088 19.698L71.8397 22.6933C71.8397 22.784 71.9312 22.784 71.9312 22.8748C71.9312 22.9656 72.0227 22.9656 72.0227 23.0563C72.2973 23.3286 72.5718 23.6009 72.8464 23.7825C73.1209 23.964 73.3955 24.0548 73.67 24.0548C73.9446 24.0548 74.2191 24.0548 74.5852 23.964C74.9513 23.8732 75.2258 23.6917 75.5919 23.4194C75.8664 23.2379 76.0494 22.9656 76.2325 22.784C76.324 22.6025 76.4155 22.3302 76.4155 22.1487C76.4155 21.9671 76.4155 21.6948 76.324 21.5133C76.2325 21.3318 76.141 21.1502 76.0494 20.9687C76.0494 20.9687 76.0494 20.9687 76.0494 20.8779C76.0494 20.8779 76.0494 20.8779 76.0494 20.7872V20.6964C76.0494 20.6964 76.0494 20.6964 76.0494 20.6056L75.9579 20.5149L75.8664 20.4241C75.8664 20.4241 75.7749 20.4241 75.7749 20.3333C75.7749 20.3333 75.7749 20.3333 75.6834 20.2426C75.5003 19.7887 75.5003 19.7887 75.4088 19.698ZM76.7816 20.7872C77.0561 21.1502 77.2391 21.4225 77.3307 21.7856C77.4222 22.0579 77.4222 22.421 77.3307 22.6933C77.2391 22.9656 77.1476 23.2379 76.9646 23.5102C76.7816 23.7825 76.5985 23.964 76.324 24.2363C76.2325 24.3271 76.2325 24.3271 76.141 24.4178C76.0494 24.5086 75.9579 24.5086 75.8664 24.5994C75.7749 24.6901 75.6834 24.6901 75.5919 24.7809C75.5003 24.7809 75.4088 24.8717 75.3173 24.8717C75.1343 24.9624 74.8597 24.9624 74.6767 25.0532C74.4022 25.0532 74.2191 25.0532 73.9446 25.0532C73.67 25.0532 73.487 24.9624 73.2125 24.7809C72.9379 24.5994 72.7549 24.4178 72.4803 24.1455L72.2973 23.8732L70.9246 22.1487L75.1343 18.6995L75.3173 18.9718L76.7816 20.7872Z" fill="#53565A"/>
<path d="M79.2526 23.964L79.4356 24.2363L80.8999 26.5055H80.8084C80.8084 26.5055 80.8084 26.5055 80.7168 26.5055C80.7168 26.5055 80.7168 26.5055 80.6253 26.5055H80.2593C80.2593 26.4147 80.1677 26.3239 80.1677 26.3239C80.1677 26.2332 80.0762 26.1424 80.0762 26.1424C80.0762 26.0516 79.9847 25.9609 79.9847 25.9609C79.9847 25.8701 79.8932 25.7793 79.8932 25.7793C79.8932 25.7793 79.8932 25.7793 79.8932 25.6886C79.8932 25.6886 79.8932 25.6886 79.8932 25.5978C79.8932 25.5978 79.8932 25.5978 79.8932 25.507C79.8932 25.507 79.8932 25.507 79.8932 25.4163C79.8932 25.4163 79.8932 25.4163 79.8932 25.3255C79.8932 25.3255 79.8932 25.3255 79.8932 25.2347L79.8017 25.144L79.7102 25.0532L78.1544 26.0516L78.612 26.7778L79.0696 27.3224L79.2526 27.5947C79.2526 27.5947 79.2526 27.5947 79.1611 27.5947C79.1611 27.5947 79.1611 27.5947 79.0696 27.5947C79.0696 27.5947 79.0696 27.5947 78.978 27.5947C78.978 27.5947 78.978 27.5947 78.8865 27.5947C78.8865 27.5947 78.8865 27.5947 78.8865 27.6854C78.8865 27.6854 78.8865 27.6854 78.795 27.7762L78.612 27.5039L78.1544 26.687L77.5138 26.3239L75.6835 27.5039V27.5947C75.6835 27.5947 75.6835 27.6854 75.775 27.6854C75.775 27.6854 75.775 27.7762 75.8665 27.7762C75.8665 27.7762 75.8665 27.867 75.958 27.867C75.958 27.867 75.958 27.867 75.958 27.9577C75.958 27.9577 75.958 27.9577 75.958 28.0485C75.958 28.0485 75.958 28.0485 75.958 28.1393C76.0495 28.23 76.0495 28.3208 76.141 28.4116C76.2326 28.5023 76.2326 28.5931 76.3241 28.6839C76.4156 28.7746 76.4156 28.7746 76.5071 28.8654C76.5986 28.8654 76.5986 28.9562 76.6901 28.9562L76.8732 29.2285H76.7817H76.6901C76.6901 29.2285 76.6901 29.2285 76.5986 29.2285C76.5986 29.2285 76.5986 29.2285 76.5071 29.2285C76.5071 29.2285 76.5071 29.2285 76.4156 29.2285C76.4156 29.2285 76.4156 29.2285 76.3241 29.2285L76.141 28.9562L74.7683 26.9593L79.2526 23.964Z" fill="#53565A"/>
<path d="M83.1877 30.59C83.1877 30.6808 83.2792 30.6808 83.1877 30.59C83.2792 30.6808 83.2792 30.6808 83.1877 30.59C83.1877 30.6808 83.1877 30.6808 83.1877 30.59C83.1877 30.6808 83.1877 30.7715 83.2792 30.7715C83.2792 30.7715 83.2792 30.7715 83.3707 30.8623L83.5538 31.1346L78.7034 33.5853L78.5204 33.313C78.5204 33.313 78.5204 33.313 78.5204 33.2222V33.1315C78.5204 33.1315 78.5204 33.0407 78.4289 33.0407C78.4289 33.0407 78.4289 33.0407 78.4289 32.9499L78.2458 32.6776L83.0962 30.2269L83.1877 30.59Z" fill="#53565A"/>
<path d="M84.5603 33.2222L84.6518 33.4945L84.8348 33.8576L82.6385 38.3052L86.1161 36.8529L86.2076 37.1252C86.2076 37.1252 86.2076 37.1252 86.2076 37.216C86.2076 37.216 86.2076 37.216 86.2076 37.3067L86.2991 37.579L81.2657 39.6667L81.1742 39.3944V39.0313L83.4621 34.493L79.893 35.9452L79.8015 35.6729L79.71 35.4006L84.5603 33.2222Z" fill="#53565A"/>
<path d="M85.5671 40.2113C85.9331 40.2113 86.2077 40.302 86.3907 40.3928C86.6653 40.4836 86.8483 40.6651 87.0313 40.7559C87.2143 40.9374 87.3974 41.0282 87.4889 41.2097C87.5804 41.3005 87.5804 41.3912 87.6719 41.482C87.7634 41.5728 87.7634 41.6635 87.855 41.7543C87.855 41.8451 87.9465 41.9358 87.9465 42.0266C87.9465 42.1174 88.038 42.2081 88.038 42.2989L88.1295 42.5712C88.1295 42.7527 88.221 42.8435 88.221 43.025C88.221 43.2066 88.3125 43.3881 88.3125 43.4789C88.3125 43.6604 88.3125 43.8419 88.3125 44.0235C88.3125 44.205 88.3125 44.3865 88.221 44.5681L87.4889 44.4773L87.3974 44.205V44.1142C87.3974 44.1142 87.3974 44.0235 87.4889 44.0235C87.4889 44.0235 87.4889 43.9327 87.5804 43.9327C87.5804 43.9327 87.5804 43.8419 87.6719 43.8419C87.6719 43.7512 87.7634 43.6604 87.7634 43.5696C87.7634 43.4789 87.7634 43.3881 87.855 43.2066C87.855 43.1158 87.855 43.025 87.855 42.9343C87.855 42.8435 87.855 42.7527 87.7634 42.5712V42.4804V42.3897C87.7634 42.2989 87.7634 42.2989 87.6719 42.2081C87.6719 42.1174 87.5804 42.1174 87.5804 42.0266C87.4889 41.8451 87.3059 41.7543 87.2144 41.5728C87.0313 41.482 86.8483 41.3005 86.6653 41.2097C86.4822 41.1189 86.2077 41.0282 85.9331 41.0282C85.6586 41.0282 85.384 41.0282 85.018 41.1189C84.6519 41.2097 84.2858 41.3912 84.0113 41.5728C83.7368 41.7543 83.5537 41.9358 83.3707 42.2081C83.1877 42.4804 83.0961 42.662 83.0961 42.9343C83.0961 43.2066 83.0961 43.4789 83.0961 43.7512C83.0961 43.8419 83.1877 43.9327 83.1877 44.0235C83.1877 44.1142 83.2792 44.205 83.2792 44.2958C83.3707 44.3865 83.3707 44.4773 83.4622 44.5681C83.5537 44.6588 83.5537 44.6588 83.6452 44.7496L85.6586 44.205L85.7501 44.4773V44.5681V44.6588V45.2942L83.5537 45.9296C83.5537 45.9296 83.5537 45.9296 83.4622 45.8388C83.4622 45.8388 83.4622 45.7481 83.3707 45.7481L83.2792 45.6573C83.2792 45.6573 83.2792 45.5665 83.1877 45.5665C83.1877 45.4757 83.0961 45.385 83.0961 45.2942C83.0961 45.2034 83.0046 45.1127 83.0046 45.0219C83.0046 44.9311 82.9131 44.8404 82.9131 44.7496C82.9131 44.6588 82.8216 44.5681 82.8216 44.4773C82.8216 44.3865 82.7301 44.2958 82.7301 44.2958C82.7301 44.205 82.7301 44.205 82.6386 44.1142L82.547 43.8419C82.4555 43.4789 82.364 43.025 82.364 42.662C82.364 42.2989 82.4555 41.9358 82.6386 41.6635C82.8216 41.3912 83.0046 41.1189 83.3707 40.8466C83.6452 40.6651 84.0113 40.4836 84.3774 40.3928C84.8349 40.302 85.201 40.2113 85.5671 40.2113Z" fill="#53565A"/>
<path d="M88.953 46.6557L89.0446 46.928L89.5937 49.5602H89.5021C89.5021 49.5602 89.5021 49.5602 89.4106 49.5602H89.3191C89.3191 49.5602 89.3191 49.5602 89.2276 49.5602L89.1361 49.2879C89.1361 49.1972 89.1361 49.1064 89.1361 49.1064C89.1361 49.0156 89.1361 48.9249 89.1361 48.8341C89.1361 48.7433 89.1361 48.6526 89.1361 48.5618C89.1361 48.471 89.1361 48.3803 89.1361 48.2895C89.1361 48.2895 89.1361 48.2895 89.1361 48.1987C89.1361 48.1987 89.1361 48.1987 89.1361 48.108C89.1361 48.108 89.1361 48.108 89.1361 48.0172C89.1361 48.0172 89.1361 48.0172 89.1361 47.9264C89.1361 47.9264 89.1361 47.9264 89.1361 47.8357V47.7449C89.1361 47.7449 89.1361 47.7449 89.1361 47.6541C89.1361 47.6541 89.1361 47.6541 89.1361 47.5634V47.4726V47.3818L87.3058 47.7449L87.4888 48.5618L87.6718 49.1972L87.7633 49.4695H87.6718C87.6718 49.4695 87.6718 49.4695 87.5803 49.4695C87.5803 49.4695 87.5803 49.4695 87.4888 49.4695C87.4888 49.4695 87.4888 49.4695 87.3973 49.4695C87.3973 49.4695 87.3973 49.4695 87.3058 49.4695C87.3058 49.4695 87.3058 49.4695 87.2143 49.4695L87.1227 49.1972L87.0312 48.2895L86.9397 47.6541L84.7433 48.108V48.1987V48.2895V48.3803V48.471V48.5618C84.7433 48.5618 84.7433 48.5618 84.7433 48.6526C84.7433 48.6526 84.7433 48.6526 84.7433 48.7433C84.7433 48.7433 84.7433 48.7433 84.7433 48.8341C84.7433 48.9249 84.8348 49.0156 84.8348 49.1064C84.8348 49.1972 84.9264 49.2879 84.9264 49.3787C84.9264 49.4695 85.0179 49.5602 85.0179 49.651C85.0179 49.7418 85.0179 49.8325 85.1094 49.8325L85.2009 50.1048H85.1094H85.0179C85.0179 50.1048 85.0179 50.1048 84.9264 50.1048C84.9264 50.1048 84.9264 50.1048 84.8348 50.1048C84.8348 50.1048 84.8348 50.1048 84.7433 50.1048C84.7433 50.1048 84.7433 50.1048 84.6518 50.1048C84.6518 50.1048 84.6518 50.1048 84.5603 50.1048L84.4688 49.8325L83.9197 47.1095L88.953 46.6557Z" fill="#53565A"/>
<path d="M89.9598 51.5571V51.8294V52.1925L86.4822 55.8232L90.2343 55.4601V55.7324C90.2343 55.7324 90.2343 55.7324 90.2343 55.8232V56.0955L84.8349 56.6401V56.3678V56.0955L88.4955 52.4648L84.6519 52.8279V52.5556V52.2833L89.9598 51.5571Z" fill="#53565A"/>
<path d="M90.5088 59C90.4173 59 90.4173 59 90.5088 59C90.4173 59 90.4173 59 90.5088 59C90.5088 59.0908 90.5088 59.0908 90.5088 59V59.1815V59.2723V59.5446L85.1094 59.6354V59.3631C85.1094 59.3631 85.1094 59.3631 85.1094 59.2723V59.1815V59.0908V59V58.7277L90.5088 58.6369V59C90.5088 58.9092 90.5088 58.9092 90.5088 59Z" fill="#53565A"/>
<path d="M90.4175 61.6322V61.9045V64.6275H90.3259C90.3259 64.6275 90.3259 64.6275 90.2344 64.6275H90.1429C90.1429 64.6275 90.1429 64.6275 90.0514 64.6275V64.3552C90.0514 64.2645 90.0514 64.1737 90.0514 64.1737C90.0514 64.0829 90.0514 63.9922 90.0514 63.9014C90.0514 63.8106 90.0514 63.7199 90.0514 63.6291C90.0514 63.5383 90.0514 63.4476 90.0514 63.3568C90.0514 63.3568 90.0514 63.3568 90.0514 63.266C90.0514 63.266 90.0514 63.266 90.0514 63.1753C90.0514 63.1753 90.0514 63.1753 90.0514 63.0845C90.0514 63.0845 90.0514 63.0845 90.0514 62.9937C90.0514 62.9937 90.0514 62.9937 90.0514 62.903V62.8122C90.0514 62.8122 90.0514 62.8122 90.0514 62.7214C90.0514 62.6307 90.0514 62.7214 90.0514 62.6307V62.5399V62.4491H88.1296V63.266L88.2211 63.9922V64.2645H88.1296C88.1296 64.2645 88.1296 64.2645 88.038 64.2645C88.038 64.2645 88.038 64.2645 87.9465 64.2645C87.9465 64.2645 87.9465 64.2645 87.855 64.2645C87.855 64.2645 87.855 64.2645 87.7635 64.2645H87.672V63.9922L87.7635 63.0845V62.4491H85.5671V62.5399V62.6307V62.7214V62.8122V62.903C85.5671 62.903 85.5671 62.903 85.5671 62.9937C85.5671 62.9937 85.5671 62.9937 85.5671 63.0845C85.5671 63.0845 85.5671 63.0845 85.5671 63.1753C85.5671 63.266 85.5671 63.3568 85.5671 63.4476C85.5671 63.5383 85.5671 63.6291 85.5671 63.7199C85.5671 63.8106 85.5671 63.9014 85.5671 63.9922C85.5671 64.0829 85.5671 64.1737 85.5671 64.1737V64.446H85.4756H85.3841C85.3841 64.446 85.3841 64.446 85.2926 64.446C85.2011 64.446 85.2926 64.446 85.2011 64.446C85.1095 64.446 85.2011 64.446 85.1095 64.446C85.018 64.446 85.1095 64.446 85.018 64.446C85.018 64.446 85.018 64.446 84.9265 64.446V64.1737V61.4507L90.4175 61.6322Z" fill="#53565A"/>
<path d="M87.7634 67.3506C87.7634 67.4413 87.7634 67.4413 87.7634 67.3506C87.7634 67.6229 87.7634 67.7136 87.7634 67.8952C87.7634 68.0767 87.8549 68.1675 87.8549 68.2582C87.9464 68.349 87.9464 68.4398 88.0379 68.5305C88.1294 68.6213 88.2209 68.7121 88.2209 68.7121C88.3125 68.7121 88.3125 68.8028 88.404 68.8028C88.4955 68.8028 88.4955 68.8028 88.587 68.8936C88.6785 68.8936 88.6785 68.8936 88.77 68.8936H88.8615H88.9531H89.0446H89.1361C89.1361 68.8936 89.2276 68.8936 89.3191 68.8028C89.4106 68.8028 89.5022 68.7121 89.5022 68.7121C89.5022 68.7121 89.5937 68.6213 89.6852 68.5305C89.7767 68.4398 89.7767 68.349 89.8682 68.2582C89.8682 68.1675 89.9597 67.9859 89.9597 67.8044V67.4413L87.7634 67.3506C87.8549 67.3506 87.8549 67.3506 87.7634 67.3506ZM90.4173 66.5336V66.8059L90.2343 68.6213C90.2343 68.8936 90.1428 69.0751 90.0513 69.2567C89.9597 69.4382 89.8682 69.6197 89.7767 69.7105C89.6852 69.8013 89.5022 69.892 89.3191 69.9828C89.1361 69.9828 88.9531 70.0736 88.77 69.9828C88.587 69.9828 88.404 69.892 88.3125 69.892C88.1294 69.8013 88.0379 69.7105 87.9464 69.6197C87.8549 69.529 87.7634 69.4382 87.6718 69.2567C87.5803 69.1659 87.5803 68.9844 87.4888 68.8936C87.4888 68.8028 87.4888 68.8028 87.3973 68.7121C87.3973 68.6213 87.3973 68.6213 87.3973 68.5305C87.3973 68.4398 87.3973 68.4398 87.3973 68.349C87.3973 68.2582 87.3973 68.2582 87.3973 68.1675L84.5603 69.9828V69.7105C84.5603 69.7105 84.5603 69.7105 84.5603 69.6197C84.5603 69.529 84.5603 69.6197 84.5603 69.529C84.5603 69.529 84.5603 69.529 84.5603 69.4382C84.5603 69.4382 84.5603 69.4382 84.5603 69.3474V69.2567V69.1659V68.8936L87.2143 67.2598L84.7433 67.0783V66.8059V66.7152V66.6244V66.3521L90.4173 66.5336Z" fill="#53565A"/>
<path d="M89.6853 72.7058C89.6853 72.7965 89.6853 72.7965 89.6853 72.7058C89.6853 72.7965 89.6853 72.7965 89.6853 72.7058V72.8873V72.9781V73.2504L84.2859 72.4335L84.3774 72.1612C84.3774 72.1612 84.3774 72.1612 84.3774 72.0704V71.9797V71.8889V71.7981L84.4689 71.5258L89.8683 72.3427L89.6853 72.7058C89.7768 72.7058 89.7768 72.7058 89.6853 72.7058Z" fill="#53565A"/>
<path d="M85.9332 77.2441L87.5804 76.9718L86.2077 76.0642L85.9332 77.2441ZM88.9532 77.2441L88.8617 77.5164V77.698L83.0046 78.6964L83.0962 78.4241C83.0962 78.4241 83.0962 78.4241 83.0962 78.3333C83.0962 78.3333 83.0962 78.3333 83.0962 78.2426C83.0962 78.2426 83.0962 78.2426 83.0962 78.1518C83.0962 78.1518 83.0962 78.1518 83.0962 78.061L83.1877 77.7887L85.4756 77.4257L85.8416 75.9734L83.9198 74.6119L84.0113 74.3396L84.1028 74.0673L88.9532 77.2441Z" fill="#53565A"/>
<path d="M19.4926 87.6823L19.6756 87.9546V88.0454V88.1361C19.6756 88.1361 19.6756 88.1361 19.7672 88.2269L19.9502 88.4992L15.5574 90.8591V90.9499C15.5574 90.9499 15.5574 91.0407 15.6489 91.0407C15.6489 91.0407 15.6489 91.1314 15.7405 91.1314C15.7405 91.1314 15.7405 91.2222 15.832 91.2222C15.832 91.2222 15.832 91.2222 15.832 91.313C15.832 91.313 15.832 91.313 15.832 91.4037C15.832 91.4037 15.832 91.4037 15.832 91.4945C15.832 91.4945 15.832 91.4945 15.832 91.5853C15.9235 91.676 15.9235 91.7668 16.015 91.8576C16.1065 91.9483 16.1065 92.0391 16.198 92.1299C16.2896 92.2206 16.2896 92.3114 16.3811 92.3114C16.3811 92.4022 16.4726 92.4022 16.4726 92.4929L16.6556 92.7652C16.6556 92.7652 16.6556 92.7652 16.5641 92.7652L16.3811 92.4929L15.0999 90.2238L19.4926 87.6823Z" fill="#53565A"/>
<path d="M21.9637 91.8576C21.9637 91.9483 21.9637 91.9483 21.9637 91.8576C21.9637 91.9483 21.9637 91.9483 21.9637 91.8576C21.9637 91.9483 21.9637 91.9483 22.0552 92.0391C22.0552 92.0391 22.0552 92.0391 22.1468 92.1299L22.3298 92.4022L17.8455 95.3975L17.6625 95.1252C17.6625 95.1252 17.6625 95.1252 17.6625 95.0344V94.9436C17.6625 94.9436 17.6625 94.9437 17.571 94.8529C17.571 94.8529 17.571 94.8529 17.571 94.7621L17.3879 94.4898L21.7807 91.4945L21.9637 91.8576C21.8722 91.7668 21.8722 91.8576 21.9637 91.8576Z" fill="#53565A"/>
<path d="M23.3364 93.9452L23.6109 94.2175L23.794 94.3991L22.1467 98.302L26.2649 97.2128L26.4479 97.3944L26.631 97.5759L22.8788 101.57L22.6958 101.388C22.6958 101.388 22.6958 101.388 22.6043 101.297V101.207C22.6043 101.207 22.5128 101.207 22.5128 101.116L22.4212 101.025L22.2382 100.843L24.7091 98.302L21.0485 99.3005L20.8655 99.1189L20.774 99.0282L22.2382 95.6698L19.4012 97.6667L19.2182 97.4851C19.2182 97.4851 19.2182 97.4851 19.2182 97.3944L19.0352 97.2128L23.3364 93.9452Z" fill="#53565A"/>
<path d="M28.0037 102.568L28.4613 101.025L26.997 101.842L28.0037 102.568ZM29.2849 99.8451L29.5594 100.027L29.651 100.117L28.0037 105.745L27.7291 105.563C27.7291 105.563 27.7291 105.563 27.6376 105.563L27.3631 105.382L28.0952 103.203L26.9055 102.296L24.9837 103.566L24.7091 103.385L24.4346 103.203L29.2849 99.8451Z" fill="#53565A"/>
<path d="M37.5214 105.2C37.7044 105.2 37.7959 105.11 37.979 105.11C38.162 105.11 38.2535 105.11 38.345 105.019C38.4366 105.019 38.6196 104.928 38.7111 104.928L38.9856 105.019L39.1687 105.11L37.6129 110.193L37.3384 110.102H37.2469C37.2469 110.102 37.2468 110.102 37.1553 110.102H37.0638H36.9723L36.6978 110.011L38.0705 105.654L37.5214 105.836L37.2469 105.745C37.2469 105.745 37.2469 105.745 37.2469 105.654C37.2469 105.2 37.3384 105.2 37.5214 105.2Z" fill="#53565A"/>
<path d="M42.9207 107.288C42.9207 107.469 42.9207 107.56 42.9207 107.651C42.9207 107.742 43.0122 107.833 43.0122 107.923C43.1038 108.014 43.1038 108.105 43.1953 108.105C43.2868 108.196 43.3783 108.196 43.4698 108.196C43.5613 108.196 43.6529 108.196 43.7444 108.105C43.8359 108.105 43.9274 108.014 43.9274 107.923C44.0189 107.833 44.0189 107.742 44.1104 107.651C44.1104 107.56 44.2019 107.469 44.2019 107.288C44.2019 107.197 44.2019 107.016 44.2019 106.925C44.2019 106.834 44.1104 106.653 44.1104 106.562C44.1104 106.471 44.0189 106.38 43.9274 106.38C43.8359 106.29 43.7444 106.289 43.6529 106.289C43.5613 106.289 43.4698 106.29 43.3783 106.38C43.2868 106.38 43.1953 106.471 43.1953 106.562C43.1038 106.653 43.1038 106.743 43.0122 106.834C43.0122 107.016 42.9207 107.106 42.9207 107.288ZM42.3716 109.739C42.3716 109.92 42.3716 110.102 42.3716 110.283C42.3716 110.465 42.4632 110.556 42.4632 110.646C42.5547 110.737 42.5547 110.828 42.6462 110.919C42.7377 111.009 42.8292 111.009 43.0122 111.1C43.1038 111.1 43.1953 111.1 43.2868 111.009C43.3783 111.009 43.4698 110.919 43.5613 110.828C43.6529 110.737 43.7444 110.646 43.7444 110.556C43.8359 110.465 43.8359 110.374 43.9274 110.192C43.9274 110.192 43.9274 110.192 43.9274 110.102C43.9274 110.102 43.9274 110.102 43.9274 110.011C43.9274 109.92 43.9274 109.739 43.9274 109.648C43.9274 109.557 43.8359 109.376 43.8359 109.285C43.7444 109.194 43.7444 109.103 43.6529 109.013C43.5613 108.922 43.4698 108.922 43.3783 108.831C43.2868 108.831 43.1953 108.831 43.1038 108.831C43.0122 108.831 42.9207 108.922 42.8292 109.013C42.7377 109.103 42.6462 109.194 42.6462 109.285C42.6462 109.376 42.5547 109.466 42.4632 109.557L42.3716 109.739C42.3716 109.648 42.3716 109.648 42.3716 109.739ZM42.3716 108.105C42.2801 108.014 42.1886 107.923 42.1886 107.833C42.1886 107.742 42.0971 107.56 42.0971 107.469C42.0971 107.379 42.0971 107.197 42.0971 107.106C42.0971 106.925 42.1886 106.834 42.2801 106.743C42.3716 106.653 42.4632 106.471 42.5547 106.38C42.6462 106.29 42.8292 106.199 43.0122 106.199C43.1953 106.199 43.3783 106.199 43.6529 106.199H43.9274C44.202 106.199 44.385 106.29 44.4765 106.38C44.6595 106.471 44.751 106.562 44.8426 106.743C44.9341 106.925 45.0256 107.016 45.0256 107.197C45.0256 107.379 45.1171 107.469 45.0256 107.651C45.0256 107.742 44.9341 107.923 44.9341 108.014C44.8426 108.105 44.8426 108.196 44.751 108.286C44.6595 108.377 44.568 108.468 44.4765 108.559C44.385 108.649 44.202 108.649 44.1104 108.649C44.2935 108.74 44.4765 108.74 44.568 108.831C44.6595 108.922 44.8426 109.013 44.8426 109.194C44.9341 109.376 44.9341 109.466 45.0256 109.648C45.0256 109.829 45.0256 109.92 45.0256 110.102C45.0256 110.283 44.9341 110.465 44.8426 110.646C44.751 110.828 44.6595 110.919 44.4765 111.1C44.2935 111.282 44.1104 111.372 43.9274 111.372C43.7444 111.463 43.4698 111.463 43.2868 111.372H43.0122C42.7377 111.372 42.4632 111.282 42.2801 111.191C42.0971 111.1 41.9141 110.919 41.8225 110.828C41.731 110.646 41.6395 110.465 41.548 110.283C41.548 110.102 41.4565 109.92 41.548 109.739C41.548 109.557 41.6395 109.466 41.731 109.285C41.8225 109.103 41.9141 109.013 42.0056 108.831C42.0971 108.649 42.2801 108.559 42.3716 108.559C42.5547 108.468 42.6462 108.468 42.8292 108.468C42.5547 108.196 42.4632 108.196 42.3716 108.105Z" fill="#53565A"/>
<path d="M50.6995 106.38V106.653C50.608 106.834 50.5165 107.016 50.4249 107.197C50.3334 107.379 50.2419 107.56 50.0589 107.833C49.9674 107.923 49.9674 108.014 49.8758 108.105C49.7843 108.196 49.7843 108.286 49.6928 108.377C49.6013 108.468 49.6013 108.559 49.5098 108.649C49.4183 108.74 49.4183 108.831 49.3268 108.922C49.2352 109.103 49.1437 109.285 49.0522 109.557C48.9607 109.739 48.8692 109.92 48.7777 110.192C48.6861 110.283 48.6861 110.374 48.5946 110.465C48.5031 110.556 48.5031 110.646 48.4116 110.737C48.3201 110.828 48.3201 110.919 48.2286 111.009C48.137 111.1 48.137 111.191 48.0455 111.282H47.771H47.6795H47.588C47.588 111.282 47.588 111.282 47.4964 111.282C47.4964 111.282 47.4964 111.282 47.4049 111.282C47.4049 111.282 47.4049 111.282 47.3134 111.282C47.3134 111.282 47.3134 111.282 47.2219 111.282H47.1304L49.6928 106.653L47.4049 106.834H47.1304C47.1304 106.834 47.1304 106.834 47.1304 106.743C47.1304 106.743 47.1304 106.743 47.1304 106.653V106.562V106.471V106.38V106.289H47.4049L50.6995 106.38Z" fill="#53565A"/>
<path d="M53.9026 109.648C53.9026 109.648 53.9026 109.739 53.9026 109.648C53.9026 109.739 53.9026 109.739 53.9026 109.648C53.9026 109.739 53.9026 109.739 53.9026 109.829C53.9026 109.829 53.9026 109.829 53.9026 109.92V110.011V110.102C53.9026 110.192 53.9941 110.374 54.0856 110.465C54.1771 110.556 54.2687 110.646 54.3602 110.737C54.4517 110.828 54.5432 110.828 54.6347 110.919C54.7262 110.919 54.8178 111.009 54.9093 111.009C55.0008 111.009 55.0923 110.919 55.1838 110.828C55.2753 110.737 55.2753 110.646 55.3668 110.556C55.4584 110.465 55.4584 110.374 55.4584 110.192C55.4584 110.102 55.5499 109.92 55.5499 109.829C55.5499 109.829 55.5499 109.829 55.5499 109.739C55.5499 109.739 55.5499 109.739 55.5499 109.648C55.5499 109.648 55.5499 109.648 55.5499 109.557C55.5499 109.557 55.5499 109.557 55.5499 109.466V109.376V109.285C55.5499 109.103 55.4584 108.922 55.3668 108.831C55.2753 108.649 55.1838 108.559 55.0923 108.468C55.0008 108.377 54.9093 108.377 54.8178 108.286C54.7262 108.286 54.6347 108.196 54.5432 108.196C54.4517 108.196 54.3602 108.286 54.2687 108.377C54.1771 108.468 54.0856 108.559 54.0856 108.649C53.9941 108.74 53.9941 108.922 53.9026 109.013C53.8111 109.376 53.8111 109.466 53.9026 109.648ZM52.7129 107.833C52.8044 107.469 52.8959 107.106 53.079 106.834C53.262 106.562 53.445 106.38 53.628 106.199C53.8111 106.017 54.0856 105.926 54.3602 105.926L54.6347 105.836C54.6347 105.836 54.6347 105.836 54.7262 105.836C54.7262 105.836 54.7262 105.836 54.8178 105.836C54.8178 105.836 54.8178 105.836 54.9093 105.836C55.0008 105.836 54.9093 105.836 55.0008 105.836C55.0008 105.836 55.0008 105.836 55.0923 105.836C55.1838 105.836 55.0923 105.836 55.1838 105.836L55.2753 106.108L55.0008 106.199H54.9093H54.8178C54.6347 106.29 54.4517 106.38 54.3602 106.471C54.2687 106.653 54.0856 106.743 53.9941 107.016C53.9026 107.197 53.8111 107.469 53.8111 107.651C53.8111 107.923 53.8111 108.196 53.8111 108.468C53.8111 108.468 53.8111 108.468 53.9026 108.468C53.9941 108.377 54.0856 108.377 54.1771 108.286C54.2687 108.196 54.3602 108.196 54.5432 108.196L54.8178 108.105C55.0008 108.105 55.1838 108.105 55.3668 108.105C55.5499 108.105 55.7329 108.196 55.9159 108.286C56.099 108.377 56.1905 108.559 56.282 108.649C56.3735 108.831 56.465 109.013 56.465 109.285C56.465 109.466 56.465 109.739 56.465 109.92C56.465 110.102 56.3735 110.283 56.282 110.465C56.1905 110.646 56.0075 110.828 55.8244 110.919C55.6414 111.009 55.4584 111.1 55.1838 111.191L54.9093 111.282C54.7262 111.282 54.4517 111.282 54.2687 111.282C54.0856 111.191 53.9026 111.1 53.7196 111.009C53.5365 110.828 53.3535 110.646 53.262 110.465C53.1705 110.192 53.079 109.92 52.9874 109.557V109.466C52.7129 108.74 52.7129 108.286 52.7129 107.833Z" fill="#53565A"/>
<path d="M68.3621 102.387C68.5452 102.296 68.6367 102.205 68.7282 102.023C68.8197 101.933 68.8197 101.751 68.8197 101.57C68.8197 101.388 68.8197 101.297 68.8197 101.116C68.8197 100.934 68.7282 100.843 68.6367 100.753C68.5452 100.662 68.4537 100.571 68.3621 100.48C68.2706 100.39 68.1791 100.39 67.9961 100.299C67.9046 100.299 67.7215 100.299 67.63 100.299C67.5385 100.299 67.3555 100.39 67.264 100.48L67.5385 100.299L67.264 100.48L66.8064 100.753L68.1791 102.568L68.3621 102.387ZM67.3555 99.8451C67.5385 99.6635 67.7215 99.5728 67.9046 99.5728C68.0876 99.482 68.2706 99.482 68.4537 99.482C68.6367 99.482 68.7282 99.5728 68.9112 99.6635C69.0943 99.7543 69.1858 99.8451 69.2773 100.027C69.4603 100.208 69.5518 100.39 69.5518 100.571C69.6434 100.753 69.6434 100.934 69.5518 101.116C69.5518 101.297 69.4603 101.479 69.3688 101.57C69.2773 101.751 69.1858 101.842 69.0943 102.023C69.0943 102.114 69.0028 102.114 69.0028 102.205L68.9112 102.296L68.8197 102.387L68.7282 102.477L68.4537 102.659L68.3621 102.75C68.3621 102.75 68.2706 102.75 68.2706 102.84L69.7349 104.746L69.4603 104.928C69.4603 104.928 69.3688 104.928 69.3688 105.019C69.3688 105.019 69.3688 105.019 69.2773 105.019C69.2773 105.019 69.2773 105.019 69.1858 105.11C69.1858 105.11 69.0943 105.11 69.0943 105.2L68.8197 105.382L65.5251 101.116L65.7997 100.934L67.3555 99.8451Z" fill="#53565A"/>
<path d="M69.4602 98.2113L69.6432 98.0297L71.5651 96.1236C71.5651 96.1236 71.5651 96.1236 71.5651 96.2144C71.5651 96.2144 71.5651 96.2144 71.5651 96.3052C71.5651 96.3052 71.5651 96.3052 71.6566 96.3959C71.6566 96.3959 71.6566 96.3959 71.7481 96.3959L71.5651 96.5775C71.4735 96.5775 71.4735 96.6682 71.382 96.6682C71.2905 96.6682 71.2905 96.759 71.199 96.8498C71.1075 96.9405 71.1075 96.9405 71.016 97.0313C70.9245 97.1221 70.9245 97.1221 70.8329 97.2128C70.8329 97.2128 70.8329 97.2128 70.7414 97.3036C70.7414 97.3036 70.7414 97.3036 70.7414 97.3944C70.7414 97.4851 70.7414 97.3944 70.7414 97.3944L70.6499 97.4851L70.5584 97.5759L71.9311 98.9374L72.4802 98.3928L72.9378 97.8482L73.1208 97.6667C73.1208 97.6667 73.1208 97.6667 73.1208 97.7574C73.1208 97.7574 73.1208 97.7574 73.1208 97.8482C73.1208 97.8482 73.1208 97.8482 73.1208 97.939C73.1208 97.939 73.1208 97.939 73.2123 97.939C73.2123 97.939 73.2123 97.939 73.3039 97.939L73.1208 98.1205L72.4802 98.6651L72.0226 99.1189L73.5784 100.662C73.5784 100.662 73.6699 100.662 73.6699 100.571L73.7614 100.48L73.853 100.39L73.9445 100.299C73.9445 100.299 73.9445 100.299 74.036 100.299C74.036 100.299 74.036 100.299 74.036 100.208C74.1275 100.117 74.1275 100.027 74.219 100.027C74.3105 99.9358 74.3105 99.8451 74.4021 99.8451C74.4936 99.7543 74.4936 99.7543 74.5851 99.6635C74.6766 99.5728 74.6766 99.5728 74.6766 99.482L74.8596 99.3005C74.8596 99.3005 74.8596 99.3005 74.8596 99.3912C74.8596 99.3912 74.8596 99.3912 74.8596 99.482C74.8596 99.482 74.8596 99.482 74.8596 99.5728C74.8596 99.5728 74.8596 99.5728 74.9511 99.5728C74.9511 99.5728 74.9511 99.5728 75.0427 99.5728L74.8596 99.7543L72.9378 101.66L69.4602 98.2113Z" fill="#53565A"/>
<path d="M75.0427 95.8513C75.1342 95.8513 75.1342 95.7606 75.0427 95.8513C75.2257 95.6698 75.3172 95.4883 75.3172 95.3975C75.4087 95.3067 75.4087 95.1252 75.4087 95.0344C75.4087 94.9437 75.4087 94.7621 75.4087 94.6714C75.4087 94.5806 75.4087 94.4898 75.3172 94.3991C75.3172 94.3083 75.2257 94.3083 75.2257 94.2175C75.2257 94.1268 75.1342 94.1268 75.1342 94.1268L75.0427 94.036L74.9512 93.9452C74.9512 93.9452 74.9512 93.9452 74.8596 93.8545C74.7681 93.7637 74.7681 93.8545 74.7681 93.7637C74.7681 93.7637 74.6766 93.7637 74.6766 93.6729C74.6766 93.6729 74.5851 93.6729 74.4936 93.6729C74.4021 93.6729 74.3105 93.6729 74.219 93.6729C74.1275 93.6729 74.036 93.6729 73.9445 93.7637C73.853 93.7637 73.7614 93.8545 73.6699 93.9452C73.5784 94.036 73.4869 94.1268 73.3954 94.2175L73.2124 94.4898L75.0427 95.8513ZM72.4802 95.0344L72.6633 94.7621L73.7614 93.4006C73.9445 93.2191 74.1275 93.0376 74.219 92.9468C74.4021 92.856 74.5851 92.7653 74.6766 92.7653C74.8596 92.7653 75.0427 92.7653 75.1342 92.856C75.3172 92.9468 75.4087 92.9468 75.5918 93.1283C75.7748 93.2191 75.8663 93.3099 75.9578 93.4914C76.0493 93.5822 76.0493 93.7637 76.1409 93.8545C76.1409 94.036 76.1409 94.1268 76.1409 94.2175C76.1409 94.3083 76.1409 94.4898 76.0493 94.5806C76.0493 94.6714 76.0493 94.6714 75.9578 94.7621C75.9578 94.8529 75.9578 94.8529 75.8663 94.9437C75.8663 95.0344 75.8663 95.0344 75.7748 95.1252L75.6833 95.216L78.9779 95.3067L78.7948 95.579C78.7948 95.579 78.7948 95.6698 78.7033 95.6698C78.7033 95.6698 78.7033 95.7606 78.6118 95.7606L78.4288 96.0329L75.3172 95.9421L77.3306 97.4851L77.1475 97.7574V97.8482C77.1475 97.8482 77.1475 97.939 77.056 97.939L76.873 98.2113L72.4802 95.0344Z" fill="#53565A"/>
<path d="M75.5918 91.0407L75.7748 90.7684C75.7748 90.7684 75.8663 90.7684 75.8663 90.6776C75.8663 90.6776 75.8663 90.6776 75.9579 90.5868C75.9579 90.5868 75.9579 90.5868 75.9579 90.4961C75.9579 90.4961 75.9579 90.4961 75.9579 90.4053L76.1409 90.133L78.8864 91.7668C79.1609 91.9483 79.4355 92.0391 79.71 92.1299C79.9845 92.2206 80.1676 92.2206 80.4421 92.1299C80.6252 92.1299 80.8082 92.0391 80.8997 91.9483C81.0827 91.8576 81.1743 91.676 81.2658 91.5853C81.3573 91.4037 81.4488 91.1314 81.4488 90.9499C81.4488 90.7684 81.4488 90.5868 81.3573 90.4053C81.2658 90.2238 81.1743 90.0422 80.9912 89.8607C80.8082 89.6792 80.6252 89.4976 80.3506 89.3161L77.5136 87.5915L77.6967 87.3192L77.8797 87.0469L80.5336 88.6807C80.8082 88.8623 81.0827 89.0438 81.2658 89.3161C81.4488 89.4976 81.6318 89.7699 81.7233 90.0422C81.8149 90.3145 81.9064 90.5868 81.8149 90.8591C81.7233 91.1314 81.6318 91.4945 81.4488 91.7668L81.2658 92.0391C81.0827 92.4022 80.8082 92.6745 80.6252 92.856C80.3506 93.0375 80.1676 93.1283 79.893 93.1283C79.6185 93.1283 79.3439 93.1283 79.0694 93.0375C78.7948 92.9468 78.5203 92.856 78.3373 92.6745L75.5918 91.0407Z" fill="#53565A"/>
<path d="M17.5709 48.5618C17.4794 48.4711 17.3879 48.3803 17.2964 48.2895C17.2048 48.1987 17.2048 48.108 17.2048 48.0172C17.2048 47.9264 17.2048 47.8357 17.2048 47.7449V47.5634C17.2048 47.4726 17.2048 47.3818 17.2964 47.3818C17.2964 47.2911 17.3879 47.2911 17.3879 47.2003C17.3879 47.1095 17.4794 47.1095 17.4794 47.0188C17.4794 47.0188 17.5709 46.928 17.6624 46.928C17.6624 46.928 17.6624 46.928 17.7539 47.0188C17.7539 47.0188 17.7539 47.0188 17.8454 47.1095H17.937C17.937 47.1095 18.0285 47.1095 18.0285 47.2003V47.3818V47.4726C18.0285 47.4726 18.0285 47.4726 17.937 47.4726C17.937 47.4726 17.937 47.4726 17.8454 47.4726C17.8454 47.4726 17.7539 47.4726 17.7539 47.5634L17.6624 47.6541L17.5709 47.7449C17.5709 47.7449 17.5709 47.8357 17.4794 47.8357C17.4794 47.9264 17.4794 47.9264 17.4794 48.0172C17.4794 48.108 17.5709 48.108 17.5709 48.1988C17.6624 48.2895 17.6624 48.2895 17.7539 48.3803C17.8454 48.3803 17.937 48.4711 18.0285 48.4711C18.12 48.4711 18.12 48.4711 18.2115 48.4711C18.303 48.4711 18.303 48.4711 18.3945 48.3803C18.4861 48.3803 18.4861 48.2895 18.5776 48.2895C18.6691 48.2895 18.6691 48.1987 18.7606 48.108L19.1267 47.6541C19.2182 47.5634 19.3097 47.4726 19.3097 47.4726C19.4012 47.3818 19.4927 47.3818 19.5842 47.3818C19.6758 47.3818 19.7673 47.3818 19.8588 47.3818C19.9503 47.3818 20.0418 47.3818 20.1333 47.3818C20.3164 47.3818 20.4079 47.4726 20.4994 47.5634C20.5909 47.6541 20.6824 47.7449 20.8655 47.8357C20.957 47.9264 21.0485 48.108 21.0485 48.1988C21.0485 48.2895 21.0485 48.4711 21.0485 48.6526V48.8341C21.0485 48.9249 20.957 48.9249 20.957 49.0157C20.957 49.1064 20.8655 49.1064 20.8655 49.1972C20.8655 49.288 20.7739 49.288 20.7739 49.288L20.6824 49.3787C20.6824 49.3787 20.5909 49.3787 20.5909 49.288H20.4994V49.1972V49.0157C20.6824 48.9249 20.7739 48.9249 20.8655 48.8341C20.957 48.7434 21.0485 48.7434 21.0485 48.6526C21.0485 48.6526 21.0485 48.5618 21.14 48.5618V48.4711C21.14 48.3803 21.14 48.2895 21.14 48.2895C21.14 48.1987 21.0485 48.1987 21.0485 48.108C20.957 48.0172 20.8655 48.0172 20.8655 47.9264C20.7739 47.9264 20.6824 47.8357 20.5909 47.8357C20.4994 47.8357 20.4079 47.8357 20.4079 47.8357C20.3164 47.8357 20.2249 47.8357 20.2249 47.8357C20.1333 47.8357 20.1333 47.9264 20.0418 47.9264C19.9503 47.9264 19.9503 48.0172 19.8588 48.108L19.4927 48.4711C19.4012 48.5618 19.3097 48.6526 19.2182 48.7434C19.1267 48.8341 19.0351 48.8341 18.9436 48.8341C18.8521 48.8341 18.7606 48.8341 18.6691 48.8341C18.5776 48.8341 18.4861 48.8341 18.3945 48.8341C17.8454 48.6526 17.7539 48.6526 17.5709 48.5618Z" fill="#53565A"/>
<path d="M18.852 45.385C18.669 45.2034 18.486 45.0219 18.3945 44.8404C18.3029 44.6588 18.2114 44.3865 18.2114 44.205C18.2114 44.0235 18.2114 43.7512 18.3029 43.4789L18.3945 43.2973V43.2066V43.1158C18.3945 43.025 18.486 43.025 18.486 42.9343C18.486 42.8435 18.5775 42.8435 18.5775 42.7527C18.5775 42.662 18.669 42.662 18.669 42.5712C18.669 42.5712 18.7605 42.4804 18.852 42.4804L19.2181 42.7527L19.1266 42.9343C19.0351 42.9343 18.9436 43.025 18.9436 43.025C18.852 43.025 18.852 43.1158 18.7605 43.1158C18.669 43.1158 18.669 43.2066 18.5775 43.2973C18.5775 43.3881 18.486 43.3881 18.486 43.4789C18.486 43.4789 18.486 43.4789 18.486 43.5696C18.486 43.6604 18.486 43.8419 18.486 44.0235C18.486 44.205 18.5775 44.2958 18.669 44.4773C18.7605 44.6588 18.852 44.7496 19.0351 44.9311C19.2181 45.0219 19.4011 45.2034 19.6757 45.2942C19.9502 45.385 20.2248 45.4757 20.4993 45.4757C20.7739 45.4757 20.9569 45.4757 21.1399 45.385C21.323 45.2942 21.4145 45.2034 21.506 45.1127C21.5975 45.0219 21.689 44.9311 21.7805 44.7496C21.7805 44.6588 21.7805 44.5681 21.8721 44.4773C21.8721 44.3865 21.8721 44.2958 21.8721 44.205C21.8721 44.1142 21.8721 44.0235 21.8721 43.9327C21.8721 43.8419 21.7805 43.7512 21.7805 43.6604L21.8721 43.4789L22.1466 43.6604V43.7512V43.8419V43.9327V44.0235V44.1142V44.205C22.1466 44.2958 22.1466 44.2958 22.1466 44.2958V44.3865V44.4773V44.5681L22.0551 44.7496C21.9636 44.9311 21.8721 45.1127 21.689 45.2942C21.506 45.4757 21.323 45.5665 21.1399 45.6573C20.9569 45.748 20.6823 45.748 20.4078 45.748C20.1333 45.748 19.8587 45.6573 19.5842 45.5665C19.2181 45.6573 19.0351 45.4757 18.852 45.385Z" fill="#53565A"/>
<path d="M19.5842 40.4836C19.6757 40.4836 19.6757 40.3928 19.5842 40.4836C19.6757 40.3928 19.6757 40.3928 19.5842 40.4836C19.6757 40.3928 19.6757 40.3928 19.5842 40.4836C19.6757 40.3928 19.6757 40.3928 19.5842 40.4836C19.6757 40.3928 19.6757 40.3928 19.5842 40.4836L19.7673 40.2113L23.2449 41.7543L23.1533 41.9358C23.1533 41.9358 23.1533 41.9359 23.1533 42.0266L23.0618 42.2081L19.5842 40.6651V40.4836Z" fill="#53565A"/>
<path d="M20.5908 38.4867L20.6823 38.3052L21.4145 36.8529L21.3229 37.0344L21.2314 37.1252L21.1399 37.216L21.0484 37.3067L20.9569 37.3975V37.4883C20.9569 37.4883 20.9569 37.4883 20.9569 37.579L22.1466 38.2144L22.4211 37.7606L22.6042 37.3975L22.6957 37.216C22.6957 37.216 22.6957 37.216 22.7872 37.216C22.7872 37.216 22.7872 37.216 22.8787 37.216L23.0617 38.0329L22.6957 38.4867L22.5127 38.8498L23.8854 39.5759C23.8854 39.5759 23.8854 39.5759 23.8854 39.4851C23.8854 39.4851 23.8854 39.4851 23.8854 39.3944C23.8854 39.3944 23.8854 39.3944 23.8854 39.3036C23.8854 39.3036 23.8854 39.3036 23.8854 39.2128C23.8854 39.1221 23.9769 39.1221 23.9769 39.0313C23.9769 38.9405 23.9769 38.9405 24.0684 38.8498C24.0684 38.759 24.0684 38.759 24.1599 38.6682V38.5775L24.2514 38.3959L24.1599 38.5775L23.4278 40.0297L20.5908 38.4867Z" fill="#53565A"/>
<path d="M22.3296 34.856L22.4211 34.6745L22.5126 34.493L25.8072 34.2207L23.6108 32.8592L23.7023 32.6776L23.7938 32.4961L26.9969 34.493L26.9054 34.6745L26.8139 34.856L23.4278 35.1283L25.7157 36.5806L25.6242 36.7621L25.5326 36.9437L22.3296 34.856Z" fill="#53565A"/>
<path d="M25.7157 30.3177C25.7157 30.4085 25.6242 30.4085 25.6242 30.4992L25.5327 30.59V30.6808V30.7715C25.5327 30.7715 25.5327 30.7715 25.5327 30.8623C25.5327 30.8623 25.5327 30.8623 25.5327 30.9531L25.4412 31.1346L26.9054 29.2285L26.9969 29.047C26.9969 29.047 26.9969 29.047 27.0884 29.047L26.9969 29.2285C26.9054 29.3193 26.8139 29.41 26.7224 29.41C26.6309 29.5008 26.5394 29.5916 26.5394 29.5916L26.4478 29.6823L26.3563 29.7731L29.1933 31.9515L29.1018 32.133C29.1018 32.133 29.1018 32.133 29.1018 32.2238L29.0103 32.4053L25.7157 30.3177Z" fill="#53565A"/>
<path d="M27.7292 27.5039C27.8208 27.5039 27.8208 27.5039 27.7292 27.5039C27.8208 27.5039 27.8208 27.5039 27.7292 27.5039C27.8208 27.5039 27.8208 27.5039 27.7292 27.5039C27.8208 27.5039 27.8208 27.5039 27.7292 27.5039C27.8208 27.4132 27.8208 27.4132 27.7292 27.5039L27.9123 27.2316L30.7493 29.7731L30.6578 29.8639L30.5662 29.9546L27.7292 27.5039Z" fill="#53565A"/>
<path d="M31.7559 26.4147L30.7492 25.9609L31.2983 26.9593L31.7559 26.4147ZM29.9255 25.3255L30.1086 25.144L33.9522 26.687L33.8607 26.7778L33.4946 27.1409L32.0304 26.5055L31.3898 27.1409L32.2134 28.5024L32.1219 28.5931L31.8474 28.8654L29.9255 25.3255Z" fill="#53565A"/>
<path d="M63.6948 23.3286L63.8779 23.4194L65.1591 24.4178L64.9761 24.3271L64.8845 24.2363L64.793 24.1455L64.7015 24.0548L64.61 23.964C64.61 23.964 64.61 23.964 64.5185 23.8732C64.5185 23.8732 64.5185 23.8732 64.427 23.7825L63.6033 24.7809L63.9694 25.0532L64.3354 25.3255L64.5185 25.4163C64.5185 25.4163 64.5185 25.4163 64.5185 25.507L64.3354 25.4163L63.9694 25.0532L63.6948 24.7809L61.956 26.3239C61.956 26.3239 61.956 26.3239 61.956 26.4147C61.956 26.4147 61.956 26.4147 62.0476 26.5055C62.0476 26.5055 62.0476 26.5055 62.1391 26.5962C62.1391 26.5962 62.1391 26.5962 62.2306 26.687C62.3221 26.687 62.3221 26.7778 62.4136 26.7778C62.5051 26.7778 62.5051 26.8686 62.5967 26.8686C62.6882 26.8686 62.6882 26.9593 62.6882 26.9593L62.7797 27.0501L62.9627 27.1409L62.7797 27.0501L61.3154 26.2332L63.6948 23.3286Z" fill="#53565A"/>
<path d="M67.1723 26.3239C67.1723 26.2332 67.1723 26.2332 67.1723 26.3239C67.0808 26.2332 67.0808 26.2332 66.9893 26.2332L66.8978 26.1424C66.8978 26.1424 66.8063 26.1424 66.8063 26.0516H66.7148C66.7148 26.0516 66.7148 26.0516 66.6233 26.0516C66.6233 26.0516 66.6232 26.0516 66.5317 26.0516L66.4402 25.9609L68.179 27.6854L68.2705 27.7762L68.179 27.6854C68.0875 27.5947 68.0875 27.5039 67.996 27.4131C67.9045 27.3224 67.9045 27.2316 67.813 27.1408L67.7214 27.0501L67.6299 26.9593L65.0675 29.41L64.976 29.3192L64.7014 28.7746L67.1723 26.3239Z" fill="#53565A"/>
<path d="M70.9245 30.1361L71.016 30.3177C71.016 30.3177 71.016 30.3177 71.016 30.4084C71.016 30.4084 71.016 30.4084 71.016 30.4992L71.1075 30.6807L68.3621 32.5868C68.3621 32.5868 68.3621 32.5868 68.3621 32.6776C68.3621 32.6776 68.3621 32.6776 68.3621 32.7684C68.3621 32.7684 68.3621 32.7684 68.3621 32.8591C68.3621 32.8591 68.3621 32.8591 68.3621 32.9499C68.3621 33.0407 68.4536 33.0407 68.4536 33.1314C68.4536 33.1314 68.5451 33.2222 68.5451 33.313L68.6366 33.4037L68.7281 33.4945L68.8197 33.676L68.7281 33.4945L67.813 32.133L70.9245 30.1361Z" fill="#53565A"/>
<path d="M72.0228 35.3099L72.7549 34.4022L71.6567 34.6745L72.0228 35.3099ZM73.5786 33.8576L73.6701 34.0391L73.7616 34.1299L71.2907 37.3975L71.1076 37.216L71.0161 37.0344L72.0228 35.7637L71.5652 34.9468L70.0094 35.4006L69.9179 35.2191L69.8264 35.0376L73.5786 33.8576Z" fill="#53565A"/>
<path d="M73.9445 38.2144C74.0361 38.3052 74.0361 38.3959 74.1276 38.4867C74.2191 38.5775 74.3106 38.6682 74.4021 38.6682C74.4936 38.6682 74.5852 38.759 74.6767 38.759C74.7682 38.759 74.8597 38.759 75.0427 38.6682C75.1342 38.6682 75.2258 38.5775 75.3173 38.4867C75.4088 38.3959 75.4088 38.3052 75.4088 38.2144C75.4088 38.1236 75.4088 38.0329 75.4088 37.9421C75.4088 37.8513 75.4088 37.7606 75.3173 37.6698L75.2258 37.3975L73.9445 38.2144ZM72.2057 39.1221C72.2057 39.2128 72.2973 39.3036 72.3888 39.3944C72.4803 39.4851 72.4803 39.4851 72.5718 39.5759C72.6633 39.5759 72.7548 39.6667 72.8463 39.6667C72.9379 39.6667 73.0294 39.6667 73.1209 39.6667C73.3039 39.5759 73.3954 39.4851 73.487 39.3944C73.5785 39.3036 73.67 39.2128 73.67 39.1221C73.67 39.0313 73.67 38.9405 73.67 38.759C73.67 38.6682 73.5785 38.4867 73.5785 38.3052L72.0227 38.9405L72.2057 39.1221ZM75.1342 36.9437L75.2258 37.1252L75.6833 38.0329C75.6833 38.1236 75.7749 38.2144 75.7749 38.3052C75.7749 38.3959 75.7749 38.4867 75.7749 38.5775C75.7749 38.6682 75.6833 38.759 75.6833 38.8498C75.5918 38.9405 75.5003 39.0313 75.4088 39.0313C75.3173 39.0313 75.2258 39.1221 75.1342 39.1221C75.0427 39.1221 74.9512 39.1221 74.8597 39.1221C74.7682 39.1221 74.6767 39.0313 74.5852 39.0313C74.4936 38.9405 74.4021 38.9405 74.4021 38.8498C74.4021 38.9405 74.4021 39.0313 74.4021 39.1221C74.4021 39.2128 74.4021 39.3036 74.4021 39.3944C74.4021 39.4851 74.3106 39.5759 74.2191 39.6667C74.1276 39.7574 74.0361 39.8482 73.853 39.8482C73.67 39.939 73.487 39.939 73.3954 39.939C73.2124 39.939 73.1209 39.939 73.0294 39.8482C72.9379 39.7574 72.8464 39.7574 72.7548 39.6667C72.6633 39.5759 72.5718 39.4851 72.5718 39.3944L72.4803 39.2128L72.1142 38.3959L75.1342 36.9437Z" fill="#53565A"/>
<path d="M75.3172 41.6635C75.0427 41.7543 74.7681 41.8451 74.5851 41.9358C74.4021 42.0266 74.2191 42.2081 74.1275 42.3897C74.036 42.5712 73.9445 42.662 73.9445 42.8435C73.9445 43.025 73.9445 43.1158 73.9445 43.2973C74.036 43.4789 74.1275 43.5696 74.2191 43.6604C74.3106 43.7512 74.4936 43.8419 74.6766 43.9327C74.8597 44.0235 75.0427 44.0235 75.3172 44.0235C75.5918 44.0235 75.7748 44.0235 76.0494 43.9327C76.2324 43.8419 76.5069 43.7512 76.69 43.6604C76.873 43.5696 76.9645 43.3881 77.1476 43.2066C77.2391 43.025 77.3306 42.9343 77.3306 42.7527C77.3306 42.5712 77.3306 42.3897 77.3306 42.2989C77.2391 42.1174 77.2391 42.0266 77.056 41.9358C76.9645 41.8451 76.873 41.7543 76.69 41.7543C76.5069 41.7543 76.4154 41.6635 76.2324 41.6635C76.0494 41.6635 75.9579 41.6635 75.7748 41.6635C75.6833 41.6635 75.6833 41.6635 75.5918 41.6635H75.5003H75.3172ZM75.1342 41.0282C75.1342 41.0282 75.2257 41.0282 75.1342 41.0282C75.2257 41.0282 75.2257 41.0282 75.1342 41.0282C75.2257 41.0282 75.2257 41.0282 75.3172 41.0282C75.5003 40.9374 75.7748 40.9374 75.9579 40.9374C76.1409 40.9374 76.4154 41.0282 76.5985 41.1189C76.7815 41.2097 76.9645 41.3005 77.1476 41.482C77.3306 41.6635 77.4221 41.8451 77.5136 42.1174L77.6051 42.2989C77.6966 42.5712 77.6966 42.8435 77.6966 43.025C77.6966 43.2066 77.6051 43.3881 77.5136 43.5696C77.4221 43.7512 77.3306 43.8419 77.1476 44.0235C77.056 44.1142 76.873 44.205 76.69 44.2958C76.69 44.2958 76.69 44.2958 76.5985 44.2958C76.5985 44.2958 76.5985 44.2958 76.5069 44.2958C76.5069 44.2958 76.5069 44.2958 76.4154 44.2958C76.4154 44.2958 76.4154 44.2958 76.3239 44.2958C76.3239 44.2958 76.2324 44.2958 76.2324 44.3865H76.1409C75.8663 44.4773 75.5918 44.5681 75.3172 44.4773C75.0427 44.4773 74.8597 44.3865 74.5851 44.2958C74.4021 44.205 74.2191 44.0235 74.036 43.8419C73.9445 43.8419 73.853 43.6604 73.853 43.4789L73.7615 43.2973V43.2066V43.1158V43.025V42.9343C73.7615 42.7527 73.7615 42.662 73.853 42.4804C73.9445 42.2989 73.9445 42.1174 74.1275 42.0266C74.2191 41.8451 74.4021 41.7543 74.5851 41.5728C74.5851 41.2097 74.8597 41.1189 75.1342 41.0282Z" fill="#53565A"/>
<path d="M76.9646 46.7465C76.9646 46.928 77.0561 47.0188 77.0561 47.1095C77.0561 47.2003 77.1476 47.2911 77.2391 47.2911C77.3307 47.3818 77.3307 47.3819 77.4222 47.4726C77.5137 47.4726 77.5137 47.5634 77.6052 47.5634H77.6967H77.7882H77.8797H77.9713C77.9713 47.5634 77.9713 47.5634 78.0628 47.5634C78.0628 47.5634 78.0628 47.5634 78.1543 47.5634H78.2458C78.2458 47.5634 78.3373 47.5634 78.3373 47.4726L78.4288 47.3818C78.4288 47.2911 78.5204 47.2911 78.5204 47.2003C78.5204 47.1095 78.5204 47.1095 78.6119 47.0188C78.6119 46.928 78.6119 46.8372 78.6119 46.7465V46.5649L76.9646 46.7465ZM78.6119 45.748V45.9296L78.8864 47.0188C78.8864 47.2003 78.8864 47.2911 78.8864 47.3818C78.8864 47.4726 78.7949 47.5634 78.7949 47.6541C78.7034 47.7449 78.6119 47.8357 78.5204 47.8357C78.4288 47.9264 78.3373 47.9265 78.1543 47.9265C78.0628 47.9265 77.8798 47.9265 77.7882 47.9265C77.6967 47.9265 77.6052 47.9264 77.5137 47.8357C77.4222 47.8357 77.3307 47.7449 77.3307 47.6541C77.2391 47.5634 77.2391 47.5634 77.1476 47.4726C77.1476 47.4726 77.1476 47.3818 77.0561 47.3818C77.0561 47.3818 77.0561 47.2911 76.9646 47.2911V47.2003V47.1095L75.4088 48.6526V48.471C75.4088 48.471 75.4088 48.4711 75.4088 48.3803C75.4088 48.3803 75.4088 48.3803 75.4088 48.2895V48.108L76.8731 46.6557L75.1343 47.0188V46.8372C75.1343 46.8372 75.1343 46.8372 75.1343 46.7465C75.1343 46.7465 75.1343 46.7465 75.1343 46.6557V46.4742L78.6119 45.748Z" fill="#53565A"/>
<path d="M75.3173 90.3146C74.9513 90.6776 75.6834 90.0423 75.3173 90.3146V90.3146Z" fill="#53565A"/>
<path d="M73.3955 58.1831C73.3955 57.9108 74.2191 57.6385 74.4936 57.457C74.7682 57.82 75.0427 57.9108 75.0427 58.3646C75.0427 58.5462 74.1276 59.0908 74.1276 59.0908C73.9445 59.0908 73.3955 58.2739 73.3955 58.1831ZM58.2038 70.4366L57.6548 69.5289L71.9312 59.2723L72.4803 60.18L58.2038 70.4366ZM64.4269 82.5086C63.6948 85.867 60.0342 89.5884 60.0342 89.5884L54.4517 82.7809L53.445 83.5978V81.6917L63.8778 81.5102L59.302 76.0641L53.079 76.1549L52.5299 62.1768L43.4698 62.2676L43.6528 76.3364L37.3383 76.4272L32.9455 82.1455L43.9274 81.964L43.8359 83.7793L42.7377 83.0532L37.5213 90.0422C37.5213 90.0422 37.6128 90.4961 34.9589 87.3192C32.3049 84.1424 31.2982 78.9687 31.5728 75.4288C31.8473 71.8889 34.1352 68.0767 34.1352 68.0767L38.6195 71.2535L39.6262 69.7105L35.0504 66.5336C35.0504 66.5336 38.2534 62.6307 42.1886 61.3599C43.7444 60.9061 48.0456 59.3631 53.445 61.1784C58.8445 62.9937 61.0408 66.3521 61.0408 66.3521L57.0141 69.2566L58.1123 70.7997L62.2305 67.8044C62.2305 67.8044 64.3354 70.6181 64.793 73.8857C65.5251 78.7871 65.159 79.1502 64.4269 82.5086ZM58.5699 90.7684L55.0923 86.5023L55.916 85.867L59.4851 90.0422L58.5699 90.7684ZM55.2753 92.7652C53.8111 93.3098 52.3468 93.7637 52.3468 93.7637L52.0723 84.8685H53.079L58.1123 91.2222C58.0208 91.2222 56.6481 92.1299 55.2753 92.7652ZM50.425 94.1267L50.3335 88.4992H51.4317L51.6147 93.9452L50.425 94.1267ZM48.8692 81.964H52.5299V83.9609H48.8692V81.964ZM48.0456 94.2175V93.3098H49.8759V94.036L48.0456 94.2175ZM46.3068 94.036L46.2153 88.6807L47.3135 88.59L47.405 94.2175L46.3068 94.036ZM49.4183 88.4992H48.2286V84.9593H49.4183V88.4992ZM47.6795 75.4288H45.3916V73.0688H47.6795V75.4288ZM48.3201 66.3521C48.3201 66.3521 49.8759 66.5336 49.7844 67.7136C49.6929 68.9843 48.3201 69.0751 48.3201 69.0751V66.3521ZM48.4117 69.2566V71.7073H45.3001L45.1171 63.9922H48.3201L48.4117 66.1706C48.4117 66.1706 46.8559 66.4429 46.9474 67.6228C46.9474 68.8936 48.4117 69.2566 48.4117 69.2566ZM35.0504 81.2379L37.9789 77.5164L48.6862 77.2441L48.5032 71.7981L51.7062 71.6166L51.5232 63.9014H48.4117V63.0845H51.9808L52.5299 77.2441L48.7777 77.3349V81.1471L35.0504 81.2379ZM42.0971 92.9468C40.6328 92.4022 39.6262 91.676 39.6262 91.676L44.4765 85.0501H45.4832L45.5747 93.9452C45.5747 93.9452 43.5613 93.5821 42.0971 92.9468ZM38.9855 91.313L38.0704 90.6776L41.4565 86.0485L42.4631 86.6839L38.9855 91.313ZM23.6109 60.18L24.2515 59.2723L39.2601 69.892L38.528 70.7997L23.6109 60.18ZM21.9636 59.0908C21.9636 59.0908 21.14 58.6369 20.9569 58.5462L21.5976 57.457L22.6957 58.0923C22.6042 58.3646 22.2382 59.0908 21.9636 59.0908ZM74.4936 59.6354C74.4936 59.3631 75.5918 58.7277 75.7749 58.3646L74.5852 56.7308L72.9379 57.6385C71.7482 56.9124 67.2639 52.1925 65.2506 53.1001C65.9827 54.0986 71.2906 57.6385 71.2906 58.8185C71.2906 59.9077 64.976 62.3584 63.7863 63.1753L61.956 61.5415L63.8778 58.0923C63.6033 57.82 61.956 56.4585 61.5899 56.4585C61.1324 56.4585 59.119 58.9092 58.7529 59.3631L56.3735 58.1831L57.1057 54.0986C56.3735 53.9171 55.0923 53.3725 54.4517 53.3725C54.0856 53.3725 52.6214 56.4585 52.3468 57.0031L49.9674 56.5493C49.7844 55.8232 49.6929 52.4648 48.8692 52.4648H46.3983L45.7577 56.5493L43.1953 56.9124C43.1038 56.4585 41.6395 53.3725 41.365 53.3725C40.7243 53.3725 39.4431 53.9171 38.711 54.0986L39.4431 58.2739L37.0637 59.3631C36.7892 58.9092 34.5013 56.4585 34.0437 56.4585C34.0437 56.4585 31.9388 57.82 31.9388 58.0923C31.9388 58.3646 33.5861 61.0876 33.7692 61.5415L31.9388 63.3568C30.6576 62.7214 24.6176 60.0892 24.6176 58.8185C24.6176 58.4554 29.7425 53.8263 30.5661 53.6448C30.017 51.5571 22.7873 57.82 22.6957 57.82C22.4212 57.82 21.8721 57.0939 21.4145 57.0939C21.14 57.0939 20.2248 58.2739 20.1333 58.5462C20.4994 59 21.4145 59.5446 21.4145 59.8169C21.4145 60.18 18.9436 64.1737 18.9436 66.6244V67.8951H19.4927C19.6757 66.0798 22.1467 61.9953 23.0618 60.7246C23.977 61.3599 26.814 62.7214 26.6309 63.8106L29.5594 66.4429L28.4612 68.712L24.343 67.8951C24.16 68.6213 23.6109 69.8012 23.6109 70.4366C23.6109 70.7997 26.9055 72.1612 27.363 72.4335L26.9055 74.7934L22.6042 75.338V77.6072C22.6042 78.4241 26.0818 78.6056 26.9055 78.6964L27.18 81.0563C26.7224 81.3286 23.5194 82.6901 23.5194 83.0532C23.5194 83.6886 24.0685 84.8685 24.2515 85.5947L28.5528 84.8685C28.7358 85.5947 29.4679 86.5931 29.4679 87.0469C29.4679 87.2285 26.997 89.4069 26.6309 89.9515L28.1867 92.1299L31.8473 90.2238L33.6776 91.8576C33.4946 92.2206 31.8473 95.2159 31.8473 95.3975C31.8473 95.6698 33.7691 96.8497 34.1352 97.0313L37.0637 94.1267L39.3516 95.3067L38.6195 99.3912L41.4565 100.208L43.1953 96.5774L45.7577 96.9405L46.3983 100.843H49.4183L50.0589 96.8497L52.6214 96.4867L54.2687 100.117L57.1057 99.3004L56.3735 95.2159L58.6614 94.1267L61.5899 97.0313C61.956 96.759 63.8778 95.579 63.8778 95.3975C63.8778 94.8529 62.0475 92.3114 62.0475 91.7668C62.0475 91.5853 63.6033 90.133 63.6948 90.133C64.5184 90.133 66.6233 91.676 67.63 91.9483L69.1857 89.7699L66.2572 86.9562L67.4469 84.8685L71.6567 85.4131L72.4803 82.8717L68.6366 81.0563L69.0027 78.6964C69.8263 78.5149 73.3039 78.5148 73.3039 77.6072V75.2472L69.0027 74.7026L68.6366 72.1612C69.0942 72.0704 72.3888 70.7089 72.3888 70.3458C72.3888 69.7105 71.8397 68.5305 71.6567 67.8044L67.3554 68.5305L66.1657 66.1706C68.1791 64.8998 70.7415 61.0876 73.1209 60.6338L76.8731 67.8951L77.0561 67.8044V66.5336C76.9646 63.7199 74.4936 60.18 74.4936 59.6354Z" fill="#53565A"/>
<path d="M51.0657 74.3396C50.7912 74.3396 50.6082 74.5211 50.6082 74.7934C50.6082 75.0657 50.7912 75.2473 51.0657 75.2473C51.3403 75.2473 51.5233 75.0657 51.5233 74.7934C51.5233 74.5211 51.3403 74.3396 51.0657 74.3396Z" fill="#53565A"/>
<path d="M50.9741 73.795C51.2486 73.795 51.4316 73.6135 51.4316 73.3412C51.4316 73.0689 51.2486 72.8873 50.9741 72.8873C50.6995 72.8873 50.5165 73.0689 50.5165 73.3412C50.425 73.6135 50.6995 73.795 50.9741 73.795Z" fill="#53565A"/>
<path d="M49.7845 74.4304C49.5099 74.4304 49.3269 74.6119 49.3269 74.8842C49.3269 75.1565 49.5099 75.338 49.7845 75.338C50.059 75.338 50.2421 75.1565 50.2421 74.8842C50.2421 74.6119 50.059 74.4304 49.7845 74.4304Z" fill="#53565A"/>
<path d="M49.6929 73.795C49.9675 73.795 50.1505 73.6135 50.1505 73.3412C50.1505 73.0689 49.9675 72.8873 49.6929 72.8873C49.4184 72.8873 49.2354 73.0689 49.2354 73.3412C49.2354 73.6135 49.5099 73.795 49.6929 73.795Z" fill="#53565A"/>
<path d="M57.8379 48.2895C57.8379 48.2895 51.8894 46.6557 47.4051 46.565C40.5414 46.4742 37.5214 48.108 37.5214 48.108C37.5214 48.108 38.4365 44.5681 39.6262 42.0266C40.9075 39.3944 42.0972 37.6698 42.0972 37.6698L42.3717 37.579L42.8293 37.0344C42.8293 37.0344 41.2735 36.8529 40.2669 36.5806C39.2602 36.3083 38.8026 36.1268 38.8026 36.1268C38.8026 36.1268 40.4499 33.4038 39.7178 32.4053C39.1687 31.6792 32.3965 22.0579 44.5681 17.7011C46.9475 16.8842 49.876 18.3365 49.876 18.3365C49.876 18.3365 44.202 17.5196 42.7378 22.3302C41.4566 26.4147 43.2869 29.9546 43.2869 29.9546L45.3917 28.5931C45.3917 28.5931 44.3851 24.0548 45.0257 22.5118C47.1305 17.2473 52.896 19.5164 54.5433 20.9687C55.916 22.1487 58.2039 25.0532 58.2039 25.0532C58.2039 25.0532 56.9227 24.9625 55.367 25.0532C53.9942 25.144 52.2554 25.5071 50.9742 26.2332C48.2287 27.867 48.5033 28.3208 48.5033 28.3208C48.5033 28.3208 48.5948 30.6808 49.3269 32.4053C50.059 34.1299 50.7912 35.0376 50.7912 35.0376C50.7912 35.0376 48.4118 36.6714 46.4899 36.8529C45.2087 37.0344 43.4699 37.0344 43.4699 37.0344L42.8293 38.2144C42.8293 38.2144 46.3984 41.9359 49.3269 43.7512C52.2554 45.5665 51.6148 45.1127 51.6148 45.1127C51.6148 45.1127 50.5166 42.2989 50.8827 40.0297C51.2487 37.7606 51.9809 36.3991 51.9809 36.3991C51.9809 36.3991 56.1906 37.8513 56.0076 35.7637C55.916 34.856 55.6415 35.2191 55.916 34.6745C56.1906 34.2207 56.0076 33.9484 55.8245 33.8576L55.55 33.7668L55.4585 33.5853C55.4585 33.5853 56.0076 33.6761 56.1906 33.4945C56.3736 33.313 56.3736 32.7684 56.2821 32.4053C56.1906 32.0423 56.1906 31.8607 56.6482 31.8607C57.1058 31.8607 58.4785 32.0423 57.8379 30.9531C57.1973 29.8639 56.9227 29.8639 56.6482 29.2285C56.4651 28.6839 56.1906 28.9562 56.1906 28.3208C56.1906 28.3208 56.2821 27.5039 56.0991 27.1409C55.916 26.7778 54.8179 24.9625 54.8179 24.9625L55.2754 24.8717C55.2754 24.8717 56.0076 26.0517 56.3736 26.687C57.1058 27.9578 56.4651 28.1393 56.6482 28.3208C56.8312 28.5024 57.8379 29.9546 58.1124 30.4992C58.2955 31.0438 58.8446 31.6792 58.2955 31.8607C57.8379 31.9515 56.9227 31.8607 56.8312 32.133C56.7397 32.4961 57.0142 32.7684 56.9227 33.2222C56.7397 33.6761 56.6482 33.7668 56.6482 33.9484C56.6482 34.1299 56.3736 34.5837 56.3736 35.1283C56.3736 35.6729 56.6482 36.6714 55.6415 37.0344C55.1839 37.216 54.0857 37.0344 53.3536 37.0344C52.6215 37.0344 52.0724 36.7621 52.0724 37.1252C51.9809 37.4883 51.1572 39.2128 51.2487 40.6651C51.2487 42.1174 51.9809 44.7496 52.2554 45.1127C52.713 45.8388 57.8379 48.2895 57.8379 48.2895Z" fill="#53565A"/>
<path d="M52.3469 28.23C52.3469 28.23 52.896 28.3208 53.4451 27.867C54.0857 27.4131 54.8178 27.5039 55.0924 27.6854C55.3669 27.867 55.733 27.867 55.916 27.7762C56.0075 27.6854 55.916 26.8685 54.8178 26.8685C53.6281 26.8685 53.7197 27.2316 53.1706 27.5947C52.6215 27.9577 52.3469 28.23 52.3469 28.23Z" fill="#53565A"/>
<path d="M55.2753 27.867C55.3668 27.6855 55.6414 27.867 55.5499 28.1393C55.4584 28.4116 55.1838 28.5024 55.1838 28.5931C55.1838 28.6839 55.4584 29.1377 55.1838 29.2285C54.9093 29.41 54.6347 29.2285 54.6347 28.9562C54.6347 28.6839 54.2687 28.7747 54.1771 28.9562C54.0856 29.1377 53.9941 29.3193 53.9026 29.3193C53.7196 29.3193 53.8111 28.5024 54.0856 28.4116C54.4517 28.4116 55.0008 28.2301 55.2753 27.867Z" fill="#53565A"/>
</svg>
