<svg width="59" height="60" viewBox="0 0 59 60" fill="none" xmlns="http://www.w3.org/2000/svg">
<path d="M27.156 22.2972H28.6208C28.4835 20.8996 27.3391 19.8281 25.9658 19.8281C24.5925 19.8281 23.4023 20.8996 23.3108 22.2972H24.7756C24.913 21.7382 25.4165 21.2723 25.9658 21.2723C26.5151 21.2723 27.0187 21.7382 27.156 22.2972Z" fill="#FF4F00"/>
<path d="M34.9377 22.2972H36.4026C36.2652 20.8996 35.1208 19.8281 33.7475 19.8281C32.3743 19.8281 31.1841 20.8996 31.0925 22.2972H32.5574C32.6947 21.6916 33.1982 21.2723 33.7475 21.2723C34.3426 21.2723 34.8462 21.7382 34.9377 22.2972Z" fill="#FF4F00"/>
<path d="M52.9737 45.3577C52.9737 37.2983 46.5193 30.7296 38.6 30.7296H36.9063L37.4098 30.2637C37.7303 29.9842 38.0965 29.6115 38.3711 29.2854L38.4627 29.1922H39.6071C42.1706 29.1922 44.2305 27.0959 44.2305 24.487V22.577L44.322 22.4838C45.4664 21.6919 46.1531 20.3874 46.1531 18.9898C46.1531 17.5923 45.4664 16.2413 44.322 15.4959L44.2305 15.4027V15.2629C44.0474 7.34326 37.776 1.00752 29.8568 0.960938C29.811 0.960938 29.811 0.960938 29.7652 0.960938C22.0291 0.960938 15.6204 7.38985 15.4831 15.3561V15.4959L15.3915 15.589C14.2471 16.3344 13.5605 17.6388 13.5147 19.083C13.5147 21.3657 15.3457 23.2758 17.6346 23.2758H18.5043L18.5501 23.5087C18.9621 26.1176 20.2896 28.54 22.3037 30.3103L22.8073 30.7762H21.1135C13.1943 30.7762 6.73984 37.3449 6.73984 45.4043V58.5416H0.834717V59.9858H58.7873V58.5416H52.9279L52.9737 45.3577ZM37.4098 32.2204L33.2442 40.6525H30.9554L35.121 32.2204H37.4098ZM29.8568 39.7673L26.3778 32.6862L26.9271 32.826C27.8884 33.1055 28.9413 33.2453 29.9026 33.2453C30.8639 33.2453 31.8252 33.1055 32.878 32.826L33.4273 32.6862L29.8568 39.7673ZM42.7656 24.5336C42.7656 26.1641 41.6212 27.5151 40.0191 27.7015L39.5155 27.7947L39.7902 27.3288C40.4311 26.1641 40.8888 24.9063 41.1635 23.4621L41.2093 23.2758H42.0332C42.079 23.2758 42.1706 23.2758 42.2621 23.2758C42.3537 23.2758 42.4452 23.2292 42.5368 23.2292H42.7656V24.5336ZM44.6882 19.083C44.6882 20.5738 43.4981 21.8316 41.9875 21.8316H41.255V16.3344H42.0332C43.4981 16.3344 44.6882 17.5457 44.6882 19.083ZM18.4127 21.785H17.6803C16.2155 21.785 14.9795 20.5738 14.9795 19.0364C14.9795 17.5457 16.1697 16.2878 17.6803 16.2878H18.4127V21.785ZM18.5501 14.8902H17.6803C17.6346 14.8902 17.543 14.8902 17.4972 14.8902C17.4057 14.8902 17.3141 14.9368 17.2226 14.9368H16.9479V14.6573C17.4972 7.80913 23.1277 2.49829 29.8568 2.49829C36.5401 2.49829 42.2163 7.85571 42.7199 14.6573V14.9368H42.491C42.3994 14.9368 42.3079 14.9368 42.2163 14.8902C42.1706 14.8902 42.079 14.8902 42.0332 14.8902H41.1635L41.1177 14.6573C40.2022 9.02037 35.4415 4.96736 29.8568 4.96736C24.2721 4.96736 19.5114 9.06696 18.5959 14.6573L18.5501 14.8902ZM19.8776 15.4959C20.4269 10.3248 24.7299 6.41154 29.811 6.41154C35.3499 6.41154 39.836 10.977 39.836 16.5674V16.8469H39.5613C32.0998 16.5674 27.6595 13.4927 27.6595 10.6043C27.6595 10.185 27.3391 9.85892 26.9271 9.85892C26.5151 9.85892 26.1947 10.185 26.1947 10.6043C26.1947 13.1666 23.5855 15.4027 20.1522 15.7754L19.8318 15.822L19.8776 15.4959ZM19.8776 21.5521V17.2661H20.1065C22.9446 17.0332 25.5538 15.589 26.8356 13.5392L27.0187 13.2131L27.2475 13.4927C29.2617 16.2413 34.1597 18.1047 39.6071 18.291H39.836V21.5055C39.836 23.6951 39.1493 25.838 37.776 27.6083L37.6845 27.7015H30.0399V29.1457H36.357L35.7161 29.6115C35.2584 29.9842 34.6175 30.4035 33.8851 30.7296C32.6033 31.3352 31.1843 31.6147 29.7652 31.6147C28.3462 31.6147 26.9271 31.3352 25.5996 30.7296C22.1664 29.1457 19.8776 25.5119 19.8776 21.5521ZM24.5467 32.2204L28.6666 40.6525H26.3778L22.2579 32.2204H24.5467ZM11.5463 45.3577V58.495H8.1589V45.3577C8.1589 38.3232 13.5605 32.593 20.4727 32.2669H20.6558L24.7756 40.6525H16.1697C13.652 40.6525 11.5463 42.7489 11.5463 45.3577ZM46.6108 58.495H13.0112V45.3577C13.0112 43.5874 14.4302 42.1432 16.1697 42.1432H43.4065C45.146 42.1432 46.5651 43.5874 46.5651 45.3577V58.495H46.6108ZM51.5089 58.495H48.0757V45.3577C48.0757 42.7489 46.0158 40.6525 43.4523 40.6525H34.9379L39.0578 32.2669H39.2409C46.1531 32.593 51.5547 38.3232 51.5547 45.3577V58.495H51.5089Z" fill="#FF4F00"/>
<path d="M52.9279 13.166H51.5088V14.6102H52.9279V13.166Z" fill="#FF4F00"/>
<path d="M52.9279 17.127H51.5088V18.5711H52.9279V17.127Z" fill="#FF4F00"/>
<path d="M52.9279 21.0879H51.5088V22.5321H52.9279V21.0879Z" fill="#FF4F00"/>
<path d="M8.11291 21.7852H6.69385V23.2293H8.11291V21.7852Z" fill="#FF4F00"/>
<path d="M8.11291 25.7461H6.69385V27.1903H8.11291V25.7461Z" fill="#FF4F00"/>
<path d="M8.11291 29.752H6.69385V31.1961H8.11291V29.752Z" fill="#FF4F00"/>
<path d="M27.2476 48.154V49.505H28.1631V49.1789H29.5364V53.4648H29.1702V54.35H31.0927V53.4648H30.635V49.1789H32.0083V49.505H32.878V48.1074L27.2476 48.154Z" fill="#FF4F00"/>
</svg>
