<svg width="36" height="36" viewBox="0 0 36 36" fill="none" xmlns="http://www.w3.org/2000/svg">
<path d="M30.6735 5.32653C27.3673 1.83673 22.7755 0 18 0C13.2245 0 8.63265 1.83673 5.32653 5.14286C1.83673 8.63265 0 13.0408 0 17.8163C0 20.7551 0.734694 23.6939 2.20408 26.2653L0 36L9.91837 33.7959C12.4898 35.0816 15.2449 35.6327 18 35.6327C22.7755 35.6327 27.3673 33.7959 30.6735 30.4898C34.1633 27.1837 36 22.5918 36 17.8163C36 13.2245 34.1633 8.63265 30.6735 5.32653ZM18 32.8775C15.4286 32.8775 13.0408 32.3265 10.8367 31.0408L10.2857 30.8571L3.67347 32.3265L5.14286 25.898L4.95918 25.3469C3.67347 22.9592 2.93878 20.3878 2.93878 17.8163C2.93878 9.55102 9.73469 2.7551 18.1837 2.7551C22.2245 2.7551 26.0816 4.40816 28.8367 7.16327C31.7755 10.102 33.2449 13.7755 33.2449 17.8163C33.2449 26.2653 26.449 32.8775 18 32.8775Z" fill="white"/>
<path d="M13.041 9.91797H12.3063C12.1226 9.91797 11.5716 10.1016 11.2043 10.469C10.8369 10.8363 9.73486 11.9384 9.73486 13.9588C9.73486 15.9792 11.2043 17.9996 11.3879 18.1833C11.5716 18.3669 14.3267 22.7751 18.3675 24.4282C21.8573 25.7139 22.592 25.5302 23.3267 25.5302C24.0614 25.5302 25.7145 24.6118 26.0818 23.5098C26.4492 22.5914 26.4492 21.6731 26.2655 21.4894C26.0818 21.3057 25.8981 21.3057 25.5308 20.9384C25.1634 20.7547 23.143 19.6527 22.7757 19.6527C22.4083 19.469 22.041 19.469 21.8573 19.8363C21.6736 20.2037 20.7553 21.1221 20.5716 21.4894C20.3879 21.6731 20.0206 21.8567 19.6532 21.6731C19.2859 21.4894 18.0002 20.9384 16.3471 19.6527C15.0614 18.5506 14.3267 17.2649 13.9594 16.7139C13.7757 16.3465 13.9594 16.1629 14.143 15.7955C14.5104 15.6118 14.694 15.4282 14.8777 15.2445C15.0614 14.8772 15.2451 14.6935 15.2451 14.5098C15.4287 14.3261 15.2451 13.9588 15.2451 13.7751C15.2451 13.5914 14.3267 11.571 13.9594 10.6527C13.7757 10.1016 13.4083 9.91797 13.041 9.91797Z" fill="white"/>
</svg>
