<?xml version="1.0" encoding="utf-8"?>
<!-- Generator: Adobe Illustrator 22.0.1, SVG Export Plug-In . SVG Version: 6.00 Build 0)  -->
<svg version="1.1" id="Capa_1" xmlns="http://www.w3.org/2000/svg" xmlns:xlink="http://www.w3.org/1999/xlink" x="0px" y="0px"
	 viewBox="0 0 576.9 640.5" style="enable-background:new 0 0 576.9 640.5;" xml:space="preserve">
<style type="text/css">
	.st0{fill:#8624AA;}
	.st1{fill:#F7B1A4;}
	.st2{fill:#C8E7FA;}
	.st3{fill:#E44C3A;}
	.st4{fill:#B7402D;}
	.st5{fill:#EE9D88;}
	.st6{fill:#3F1023;}
	.st7{fill:#1D1D1B;}
	.st8{fill:#EDA198;}
	.st9{fill:#0071AC;}
	.st10{fill:#0081C7;}
	.st11{fill:#C8DDEA;}
	.st12{fill:#2D2D2B;}
	.st13{fill:#3F3F3E;}
	.st14{fill:#E08323;}
	.st15{fill:#ED7379;}
	.st16{fill:#3A0C00;}
	.st17{fill:#FFFFFF;}
	.st18{fill:#CAC9C9;}
	.st19{fill:#008DB5;}
	.st20{fill:#00668D;}
	.st21{fill:#004B72;}
	.st22{fill:#F1AE9D;}
	.st23{fill:#C7DFED;}
	.st24{fill:#005884;}
	.st25{fill:#522119;}
	.st26{fill:#90482A;}
	.st27{fill:#00B1E9;}
	.st28{fill:#39A4CE;}
	.st29{fill:#0095C9;}
	.st30{fill:#82CAF1;}
</style>
<g>
	<path class="st0" d="M365.2,614.7c0,12.1-47.8,21.9-106.9,21.9s-106.9-9.8-106.9-21.9s47.8-21.9,106.9-21.9
		S365.2,602.6,365.2,614.7z"/>
	<path class="st0" d="M510.5,614.7c0,12.1-30,21.9-67,21.9s-67-9.8-67-21.9s30-21.9,67-21.9S510.5,602.6,510.5,614.7z"/>
	<path class="st0" d="M364.9,525.9c0,0-353.3-67.5-361.9-298C-5.6-2.5,219.3,67,280.1,186.7c0,0,35.8-233.7,216.1-138.1
		C697.7,155.5,455.7,443.8,364.9,525.9z"/>
	<path class="st1" d="M393.6,448.8c0,0-64.8-12.9-188.3,30.9c-17.3,6.1-7.4,20.7-7.4,20.7s158.6-6.7,177.1-10.6
		C393.7,485.7,393.6,448.8,393.6,448.8z"/>
	<path class="st2" d="M193,474.6c-2.6-0.1-5.2-0.2-7.7-0.3c-3-0.7-12.3,64.2,5.9,81.5c0,0.1,4.9,7.1,10.9-0.3
		C201.3,552.8,187.4,476.9,193,474.6z"/>
	<path class="st3" d="M213.1,477c-7.5-1.1-15-2-22.7-2.5c-2.1-1-14.2,56.6,5.6,80.6c0.6,0.3,8.8,10.7,8.7-19.3
		c2.4-30,9.3-35.5,8.6-35.5C213.3,500.6,202.2,486.8,213.1,477z"/>
	<path class="st4" d="M201.3,482.5c1.3-3.3,7.4-5.8,11.3-5c-5.4,7.1-4.1,13.3-3.1,16C204.5,493.2,199.1,488.1,201.3,482.5z"/>
	<path class="st4" d="M204.5,541.2c-0.4,23.3-8.1,14.1-8.4,13.9c-3.4-4.9-6.2-11.2-8.1-18.2C193.9,535.9,199.6,537.1,204.5,541.2z"
		/>
	<path class="st1" d="M399.9,231.7c0,0-5.7-17.1,17.5-26.8c0,0,2.9,3.2-3.3,11.4c-4.4,5.8-8.3,10.6-11.2,13.3
		C401.7,230.6,400.7,231.3,399.9,231.7z"/>
	<path class="st1" d="M409.6,243.8c5.7-1.7,11.4-4.5,16.2-8c6.2-4.6,14.8-11.3,13.9-19.9c-0.3-3-1.2-5.7-2.7-8.3
		c-1.6-2.7-4.3-5.2-7.4-4.3c-4.8,1.5-8.5,5.1-12.2,8.4c-3.6,3.2-8.1,5.1-11.8,8.2c-3.8,3.3-6.4,12.1-5.7,13.4
		C400.4,234.6,409.6,243.8,409.6,243.8z"/>
	<path class="st5" d="M315.7,297.2c3.2-0.9,4.3-0.7,9.4-7.8c4-5.6,3.7-10.8,1.2-14.4c-40.5-45.3-81.9-76.7-94.8-71.2
		c-21.1,8.9-3.1,30.5-3.1,30.5s33.6,30,62.4,51.3c8.3,6.2,13.2,8.7,21.4,14.4L315.7,297.2z"/>
	<path class="st1" d="M403.4,228c5.1,3.1,8.7,8.4,13,12.9c-14.4,15.8-32.4,28.5-50.7,39.4c-13.9,8.2-27.9,15.8-42.8,21.9
		c-1.4,0.6-2.9,1.2-4.4,0.9c-1.1-0.2-2-0.8-2.8-1.4c-2.1-1.6-4.1-3.6-5.5-5.9c-1.6-2.6-1.2-5.7-0.9-8.7c0.3-3.1,1.1-8.8,4.5-10.1
		C345,265.6,382.4,244.2,403.4,228z"/>
	<path class="st2" d="M320.6,298.4c0.9-3.6,1.6-7.3,2.4-10.5c1.4-5.6,2.7-13.1,0.6-18.7c-3-7.9-12.5-14.6-18.1-20.9
		c-7.7-8.6-16.5-15-25.9-21.6c-8.1-5.7-39.7-35.5-46.4-33.6c-14.6,4.1-17,30.9-11.7,39.6c9,14.8,20.2,29.5,34.4,40.7
		c13.5,10.6,27.9,19.8,40.7,31.3c6.1,5.4,15.7,16,20.7,4.4C318.7,305.9,319.7,302.2,320.6,298.4z"/>
	<path class="st2" d="M303,284.6c4.6-9.1,12.8-17.2,19.5-20.3c12.2-5.8,24.5-11.4,36.7-17.1c6.4-3,12.6-6.4,18.9-9.6
		c2.7-1.4,21.2-10.9,18.8-5.4c-0.1,0.3-7.5,8-6.5,37.2c0.2,7.4,0.4,14.9-1.3,22.1c-1.4,5.7-8.3,8.3-13.2,10.4
		c-11.8,5.1-24.3,8.4-37.1,10.4c-9,1.4-25.8,5.7-33.5-1.1C297.3,304.1,298.3,293.9,303,284.6z"/>
	<path class="st6" d="M198.5,182.3c0,0.3,0,0.7-0.1,1c-0.4,8.1,3.3,14.8,5,22.5c2.5,11,4.8,24,4.8,35.2c-0.1,31.9-15.1,85.9-52.4,92
		c-12.8,2.1-31,1.2-42.4-5.2c-11.1-6.3-11.8-14.2-12.2-25.8c-0.3-11-3-18.2-11.4-25.6c-11.5-10.1-19.9-19-25.5-33.7
		c-6.9-18.2-0.1-36,10.6-51.2c5.9-8.4,12-16.6,18.1-24.9c2.6-3.5,5.2-7,7.6-10.6c5.7-8.3,9-20.6,11.9-30.3
		c3.6-12.3-0.2-27.7,0.4-40.4C114,64.1,123.6,46,136,29.1c13.8-18.9,20.9-25.1,45.7-25.2c11.8-0.1,25.3,0.5,36.5,4.4
		C231,12.8,236,31.6,239.6,43c4.9,15.8,3.7,33.4-2.6,48.7c-3.7,8.9-7.7,17.7-12,26.4C214.8,138.6,200.1,158.7,198.5,182.3z"/>
	<path class="st7" d="M110.3,458.8c-0.3,0-0.5,0-0.8-0.1c-1.7-0.4-2.8-2.2-2.3-3.9c2.6-10.1,64.4-246.4,114.2-268.1
		c5.6-2.5,11.1-2.3,16.1,0.4c1.6,0.8,2.1,2.8,1.3,4.3c-0.8,1.6-2.8,2.1-4.4,1.3c-3.3-1.8-6.7-1.8-10.5-0.2
		C177,213.1,114.1,454,113.4,456.4C113.1,457.9,111.8,458.8,110.3,458.8z"/>
	<path class="st1" d="M242.7,331c6.9-54.5,2.7-126.6-8.4-134.6c-12.2-8.9-12.8-5.9-31.1-6.2c-17.6-0.3-22.9,5.3-40.4,11.4
		c-10.7,3.7-4.9,83.4-2,141.5L242.7,331z"/>
	<path class="st8" d="M189.7,137.5c10.6-6.5,30.1,4,30.1,4l0.4,52.8c0,0-37.5,7.1-37.1-0.5C184.1,176.4,182.5,141.9,189.7,137.5z"/>
	<path class="st8" d="M204.5,178.1c6.5,3.2,12,8.4,15.7,14.3l0.1,0.1l-0.4-51c0,0-19.6-10.4-30.1-4c-3.6,2.2-6.1,21.5-6.2,39.7
		C190.3,176.4,197.9,174.9,204.5,178.1z"/>
	<path class="st5" d="M397.4,403c0,0-85.2-22.3-181.1-17.9l-1.7,54.8c0,0,47.2,6.6,103.8,10.2c52.4,3.3,67.6,3.7,88.4,2.8
		C406.8,452.8,421.6,426.2,397.4,403z"/>
	<path class="st9" d="M249.8,452c5-1.3,11.1-0.4,15.9-1.3c16.5-3,32.6-8.4,48.2-14.4c5.6-2.2,11.2-6,16.9-7.5
		c7.3-2,16.7-1.2,24.3-1.4c15.4-0.4,21.3-8.9,35.8,4.5c26.6,24.5-2.8,58.9-28,68.8c-7.7,3-14.4,6.6-21.8,10.4
		c-14.4,7.4-31.1,11.3-46.3,16.7c-11.2,4-23,6.7-34.5,8.8c-4.6,0.8-7.3,1.6-10.1-2.6c-3.1-4.6-4.9-12.3-4.9-17.7
		c-0.1-7.3-1.5-14.1-2-21.5c-0.5-8.9-0.2-17.9,0.3-26.8c0.3-5.9-2.2-11.8,3.5-14.8C248,452.6,248.9,452.3,249.8,452z"/>
	<path class="st9" d="M415,411c-7.8-9.8-20.8-15.5-31.9-20.3c-21.8-9.4-43.4-11.9-67-14.1c-34.8-3.3-70-5-105-2.9l-0.9,81
		c0,0,19.8,1.4,76.4,5c32,2,64.1,1.7,96.2,1.1c8.6-0.2,26.8,3.7,33.4-3.1c8.5-8.8,7-33.6,1.1-43.4C416.6,413.1,415.8,412.1,415,411z
		"/>
	<path class="st10" d="M235,368.5c-7.8-2.6-7.9,2.2-15.3,2.4c-19.2,0.3-35.4-7.2-54.5-5.2c-11.7,1.2-12.2,6.1-15.1,16.1
		c-9.3,31.8-9.6,69.3,22.2,88.1c8.8,5.2,19.9,10.3,30,12.5c23.1,5,49.8-15.1,67.5-27.7c0.6-1.2-1-0.1-1.8,0.3
		c19.6-6.5,30.6-57.9,9.9-59.2c-25.2-1.6-38.4-18.3-47.6-22.5C229.8,373.1,235.4,368.6,235,368.5z"/>
	<path class="st11" d="M151,276.1c-0.5-12.9-0.5-25.9,0.1-38.8c0.3-6.7-0.5-15.6,2.7-21.6c3-5.6,3.8-2.1,4.4-8.9
		c-1.7,0.5,5.8-10.1,4.4-8.8c5.4-2.4,14.7-5.9,20.5-5.6c6.2,18.5,22.2,40.4,40.2,48.3c4.3,1.9-6.4-34.5-2.9-46.1
		c0.3-0.8,0.4-1.3,0.6-1.5c-0.1-0.3-0.1-0.7-0.2-1.3c-0.3-2.2,16.8-0.1,18.5,4.8c7.3,21.5,19.2,43.4,20.4,66.5
		c0.6,11.7-5.6,22.5-6.3,33.9c-0.8,13.6-2.8,27.5-2.4,41.1c0.3,9.9,3.8,21.8-3.4,30.2c-5.7,6.6-23.5,4.8-31.8,5.2
		c-12,0.6-24.2,0-36.3,0c-5.7,0-19.2,3.5-23.6-0.7c-4.2-4.1-2.3-15.5-2.2-20.7c0.1-8.7,1.5-16.9,0.8-25.7
		c-1.1-13.2-2.2-26.4-2.9-39.7C151.3,283.2,151.1,279.6,151,276.1z"/>
	<path class="st1" d="M395.4,417.3c0,0-61,25.5-139.1,130.6c-10.9,14.7,5.4,21.3,5.4,21.3s140-101.4,153.2-115
		C428.2,440.5,395.4,417.3,395.4,417.3z"/>
	<path class="st5" d="M383.5,411.2c0,0-136.8-32.7-213.2-4.2l49.2,58.3c0,0-19.9,4.7,38.8,6.4c54.4,1.6,112.5-7.2,134.1-8.9
		C392.4,462.8,408.3,434.6,383.5,411.2z"/>
	<path class="st10" d="M278.3,492.4c7.1-7.7,15.2-14.6,20.7-18.6c18.9-13.7,30.9-34.3,50.8-46.6c12.7-7.9,25-19.7,38.6-8.8
		c11.8,9.5,31.1,34.7,21.4,49.2c-13.8,20.7-39.2,38.9-59.1,53.3c-10.8,7.8-21,18.1-28.6,29.1c-4.1,6-9.2,19.6-17.5,20.9
		c-9.4,1.5-20.3-13.8-25.9-19.9c-8.4-9.2-17.1-19.4-22.2-30.9C263.4,510.2,270.2,501.1,278.3,492.4z"/>
	<path class="st10" d="M403.6,407c0,0-173.2-25.9-255.8-9.2l43.9,81.4c0,0,24.1,4.3,64.4,3c54.4-1.8,126.1-5,147.8-6.7
		C403.8,475.5,448.5,423.1,403.6,407z"/>
	<path class="st7" d="M140.3,481c-0.7,0-1.3-0.2-1.9-0.6c-1.4-1.1-1.7-3.1-0.6-4.5c140.2-187.3,97.5-281.5,97.1-282.4
		c-0.8-1.6-0.1-3.5,1.5-4.3c1.6-0.8,3.5-0.1,4.3,1.5c1.9,3.9,45.2,98.1-97.7,289.1C142.2,480.6,141.3,481,140.3,481z"/>
	<path class="st12" d="M142.6,477.1c0,0-2.4,25.7-11.4,64.2c0,0-2,10.8-16.5,3.6c-14.4-7.2-17.3-11.6-17.3-11.6s-11.6-8-4.4-31.7
		c3.3-10.8,15.3-49.8,15.3-49.8L142.6,477.1z"/>
	<path class="st13" d="M130.5,490c-1.4,4.2-4.7,16.7-12.6,13.5c-3.9-1.6-7.1-3.8-10.5-6.1c-3.9-2.6-7.5-5.3-10.4-8.6
		c4.7-15.5,11.3-37,11.3-37l34.2,25.2C135.4,475.8,133.1,482.1,130.5,490z"/>
	<path class="st14" d="M102.8,497.1c0,1.9,1.5,3.5,3.3,3.5s3.3-1.6,3.3-3.5c0-1.9-1.5-3.5-3.3-3.5S102.8,495.2,102.8,497.1z"/>
	<path class="st1" d="M234.7,35c-1.1-0.8-2.4-1.5-3.9-2.1c-8.1-3.3-16.1-5.8-25-5c-5.9,0.6-12.1,2.8-17.2,5.6
		c-16.3,8.9-28,24.9-35.4,41.6c-3.6,8.2-2.1,13-0.6,21.3c1.5,8.4,2.4,17,5.7,24.9c2.5,6.2,6.7,11.5,9.6,17.6
		c3.3,6.8,4.5,13.3,10.9,17.9c5.7,4.1,12.9,5.9,19.6,7.5c10.9,2.5,36.7,0.6,40.5-10.7c5-15,5.6-21.9,8-25.7
		c2.2-3.5,9.9-4.3,11.4-7.6c0.5-1.1-7.1-11.7-7.2-17.6c-0.1-4.2,1.7-19.5,1.9-23.4C253.8,66,250.7,55.6,243,45
		C240.1,41,238.2,37.5,234.7,35z"/>
	<path class="st6" d="M134.3,43.5c4.4-9.6,11.6-17.9,22.2-23.8c14.9-8.3,30.9-11.1,47.6-13.1c13.7-1.6,26.3,4.2,38.6,9.5
		c10.4,4.5,15.4,15,13.9,26c-5.8,41.6-65.9,34.6-78.9,71.6c0.2-0.5-2.2-9.6-2.5-10.8c-0.9-3.3-0.7-4.6-4.6-4.1
		c-10.4,1.5-2.5,13.4-0.1,17.9c6.4,12,1.9,25.8-5.6,34.4c-19.6-6-25.8-28.6-29.6-39.6C127.7,89.7,125,63.7,134.3,43.5z"/>
	<path class="st8" d="M158,112.5c1.7,9.1,14.6,21.5,18.1,13.8c2.1-4.7,2.1-10.3,0.4-19.4c-1.7-9.1,1.9-15.2-6.4-13.7
		C161.8,94.7,156.4,103.4,158,112.5z"/>
	<path class="st15" d="M171.3,101.6c0.1,0,0.3,0,0.4,0l0.1,0.2c2.8,3.2,1.1,9.8,1.1,13.5c0,1.6,0.1,3.2,0.3,4.8
		c-4,0-7.7-3.2-8.5-7.8C163.9,107.2,166.8,102.4,171.3,101.6z"/>
	<path class="st15" d="M237.6,121c-1.5,5-8.5,7.3-15.7,5.2c-7.2-2.1-11.8-7.9-10.3-13c1.5-5,8.5-7.3,15.7-5.2
		C234.5,110.1,239.1,115.9,237.6,121z"/>
	<path class="st16" d="M241.2,97.6c0,4-2.1,7.3-4.7,7.3c-2.6,0-4.7-3.3-4.7-7.3c0-4,2.1-7.3,4.7-7.3
		C239.1,90.3,241.2,93.6,241.2,97.6z"/>
	<path class="st17" d="M228.3,130.9c-0.9,13.2,12.1,19.1,12.1,19.1l4.2-15.5L228.3,130.9z"/>
	<path class="st6" d="M241.5,78.4c0,0-0.4,0-1.3,0c-0.9,0-2,0.1-3.4,0.3c-1.3,0.3-2.9,0.5-4.4,1.2c-0.8,0.3-1.6,0.6-2.4,0.9
		c-0.8,0.4-1.5,0.8-2.3,1.2c-0.8,0.4-1.6,0.8-2.3,1.2c-0.7,0.5-1.4,1-2,1.4c-0.7,0.5-1.3,0.9-1.9,1.3c-0.6,0.5-1.1,1-1.5,1.4
		c-1.9,1.7-3.1,2.9-3.1,2.9c-0.3,0.3-0.3,0.7,0,1c0.2,0.3,0.6,0.3,0.9,0.1l0.1-0.1c0,0,1.3-1,3.3-2.5c0.5-0.4,1-0.8,1.6-1.2
		c0.6-0.3,1.3-0.7,1.9-1.1c0.7-0.4,1.3-0.7,2-1.1c0.7-0.4,1.5-0.6,2.2-0.9c0.7-0.3,1.5-0.6,2.2-0.9c0.7-0.2,1.5-0.4,2.2-0.6
		c1.4-0.4,2.8-0.4,3.9-0.6c1.1,0,2.1,0,2.7,0c0.6,0,1,0.1,1,0.1c1.2,0.2,2.3-0.5,2.5-1.7c0.2-1.2-0.5-2.3-1.7-2.5l-0.2,0L241.5,78.4
		z"/>
	<path class="st18" d="M274.5,276.1c0,0,14.7,2.7,4.5,39.6c0,0-6.9,13.5-13.8,18.1c-7.5,5-16.4,4.8-24.5-1.8
		C227.4,321.1,255.2,271.3,274.5,276.1z"/>
	<path class="st2" d="M241.3,553.5c-2.2,1.4-4.3,2.8-6.5,4.2c-2.9,1.2,27.2,59.4,52,63c0.1,0.1,8.1,2.9,8.7-6.5
		C293.3,612.4,238,558.6,241.3,553.5z"/>
	<path class="st3" d="M259.1,543.8c-6.7,3.4-13.4,7.1-19.9,11.1c-2.3,0.4,21.2,54.3,51.3,62.5c0.6-0.1,13.4,3.7-4.1-20.7
		c-15.4-25.8-13-34.3-13.6-34C272.9,562.9,255.9,558,259.1,543.8z"/>
	<path class="st4" d="M252.6,555.1c-0.9-3.4,2.7-9,6.3-10.6c-0.3,8.9,4.4,13.2,6.8,14.8C261.4,562,254.1,560.9,252.6,555.1z"/>
	<path class="st4" d="M289.2,601.1c13.2,19.2,1.6,16.2,1.2,16.2c-5.6-2-11.6-5.6-17.2-10.2C277.6,602.9,282.9,600.6,289.2,601.1z"/>
	<path class="st1" d="M434.7,498.5c0,0-3.5,4.7,11.1,93.4c2,12.1,14.4,3,14.4,3s7-80.5,5.5-93.2C464.4,489,434.7,498.5,434.7,498.5z
		"/>
	<path class="st2" d="M460.3,607l-0.1,5.2c0,0-34.5,5.5-47.4,0.1c0,0-5.2-1.6-2.3-7C412.6,601.1,460.3,607,460.3,607z"/>
	<path class="st19" d="M460.3,593.3v15.4c0,0-30.9,5.8-48.2,0.3c0,0-8.9-3.8,10.1-9.2c18.9-5.3,22.9-8.3,22.9-8.3
		S453.5,599.3,460.3,593.3z"/>
	<path class="st20" d="M456.1,600.7c2-0.6,4-4.3,3.8-7c-4.9,2.8-8.7,1.6-10.4,0.8C449.5,597.8,452.6,601.6,456.1,600.7z"/>
	<path class="st20" d="M418.7,600.9c-14.4,4.8-6.7,8.1-6.7,8.1c3.6,1.1,7.7,1.8,12,2.1C423.7,607,422.2,603.4,418.7,600.9z"/>
	<path class="st21" d="M441.3,584.4c-13.3-81.7-10-84.5-10-84.5s37.4-13.4,38.8-0.7c1.1,9.9-3.1,63.6-4.9,85.6L441.3,584.4z"/>
	<path class="st21" d="M431.3,501.6c0,0-9.1-82.2-7.9-109.1l65.8,0.4c0,0,2.7,23.8-5,44.6c-7.1,19.2-15,60.8-14.4,74.1
		C469.7,511.5,444.4,520.3,431.3,501.6z"/>
	<path class="st22" d="M325.9,288.1c0,0,5.3-12.6-11.6-21.4c0,0-2.4,2.3,1.8,8.8c3,4.7,5.7,8.5,7.7,10.7
		C324.6,287.2,325.3,287.8,325.9,288.1z"/>
	<path class="st1" d="M317.8,296.7c-4.2-1.6-8.3-4.1-11.7-7c-4.4-3.8-10.6-9.5-9.3-15.9c0.4-2.2,1.2-4.3,2.6-6.1
		c1.4-1.9,3.6-3.7,5.8-2.8c3.6,1.4,6.2,4.4,8.7,7.1c2.5,2.6,5.9,4.3,8.5,6.9c2.7,2.7,4.1,9.5,3.6,10.5
		C325.3,290.3,317.8,296.7,317.8,296.7z"/>
	<path class="st1" d="M385.9,342c-2.5-0.1-3.3,0.2-8.3-4.1c-3.9-3.4-4.6-7.3-3.4-10.5c22.2-40.5,48.6-69.2,59.1-67.3
		c17.2,3,6.3,20.4,6.3,20.4s-19.7,28-37.4,48.7c-5.1,6-8.2,8.7-13.3,14.3L385.9,342z"/>
	<path class="st22" d="M323.4,285.1c-4,2-7.1,5.9-10.6,9c10,12.9,22.8,23.5,36,32.9c10,7.1,20.2,13.6,31.1,19.2c1,0.5,2.1,1,3.3,0.9
		c0.8-0.1,1.5-0.5,2.2-0.9c1.7-1.1,3.3-2.5,4.5-4.1c1.4-1.9,1.3-4.3,1.2-6.5c-0.1-2.4-0.3-6.8-2.8-7.9
		C365.4,317.1,338.4,298.6,323.4,285.1z"/>
	<path class="st23" d="M437.4,253.8c-10-0.9-38.5,24.7-56.5,58.9c3.9,8.7,19.2,18.6,29.4,19.8c16-22.7,33.7-52.6,33.7-52.6
		S456.4,255.6,437.4,253.8z"/>
	<path class="st1" d="M426.4,502.1c0,0-3.6,4.7,11.1,93.4c2,12.1,14.4,3,14.4,3s7-80.5,5.5-93.2C456,492.6,426.4,502.1,426.4,502.1z
		"/>
	<path class="st22" d="M430.2,508.5c0,0-5.3-83.6-4.1-110.5l46.9,3.5c0,0,1.2,14.8-1.3,36.7c-3.2,27.6-10.2,64.7-9.7,78
		C461.9,516.2,443.3,527.2,430.2,508.5z"/>
	<path class="st24" d="M433.5,589.2c-13.3-81.7-10-84.5-10-84.5s37.4-13.4,38.8-0.7c1.1,9.9-3.1,63.6-4.9,85.6L433.5,589.2z"/>
	<path class="st24" d="M423.5,506.3c0,0-9.1-82.2-7.9-109.1l70.4-3.3c0,0,1.4,20.9-6.2,41.6c-7.1,19.2-18.3,67.4-17.8,80.7
		C461.9,516.2,436.6,525,423.5,506.3z"/>
	<path class="st22" d="M461.3,209.7c-8.2-5.3-23.3,3.3-23.3,3.3l-0.3,43.6c0,0,29,5.9,28.7-0.5C465.7,241.9,466.9,213.4,461.3,209.7
		z"/>
	<path class="st8" d="M449.8,243.3c-5.1,2.6-9.3,6.9-12.1,11.8l-0.1,0.1L438,213c0,0,15.1-8.6,23.3-3.3c2.8,1.8,4.7,17.8,4.8,32.8
		C460.8,241.9,455,240.6,449.8,243.3z"/>
	<path class="st22" d="M422.4,134.7c3.2-6-1.2-6.4,5.9-8.4c7.2-2.1,15-2.9,22.7-2.6c7.7-0.3,10.3,8.1,17.5,10.2
		c3.8,1.1,7.2,2.4,10.1,4.8c3.5,2.9,3,5.7,4.2,9.5c0.7,2.4,2,4.6,2.8,7c1.6,4.2,3.4,8.7,3.9,13.1c1.2,9,0.6,18-0.8,27
		c-1.5,9.1,1.1,17.5-5.5,25.2c-8.8,10.1-15.5,17.5-36.7,17.4c-8.8,0-23.9-0.2-26.9-9c-3.9-11.8-4.4-17.2-6.2-20.2
		c-1.7-2.7-7.8-3.4-9-6c-0.4-0.9,5.6-9.2,5.7-13.8c0.1-3.3-1.4-15.3-1.5-18.4C407.6,149.5,416.2,146.2,422.4,134.7z"/>
	<path class="st25" d="M500.3,143c-8.1-16.9-13.9-11-15.5-15.2c-0.9-2.4-1.3,22.7-2,20.3c-1.2-3.8-0.7-6.6-4.2-9.5
		c-2.9-2.4-6.3-3.7-10.1-4.8c-7.2-2.1-9.8-10.4-17.5-10.2c-2.3-0.1-4.5,0-6.8,0.1c-1,5.5-0.6,11.2,0.6,17.2c0.3,1.5-1.4,2.7-1.4,4.4
		c0,2.3,1.2,5.3,1.9,7.5c1.5,5,3.7,9.7,6.7,13.9c2,2.8,4.5,5.2,6.2,8.1c2,3.4,4.4,6.9,5.7,10.7c0.4,1.4,0.2,2.9,1.7,3.3
		c1.4,0.4,3.1-1.3,4.3-1.9c1.2-0.7,4.2-3.7,5.2-3.9c2-0.3,2.9,3,3.1,4.5c0.5,4.4-2.6,8.6-4.5,12.3c-5,9.5-1.5,20.2,4.4,27
		c15.4-4.7,20.3-22.5,23.3-31.1C508.9,173.8,508.6,160.5,500.3,143z"/>
	<path class="st22" d="M485.1,191c-1.5,8.3-13.3,19.6-16.5,12.6c-1.9-4.3-1.9-9.4-0.4-17.7c1.5-8.3-1.7-13.8,5.9-12.5
		C481.7,174.8,486.6,182.6,485.1,191z"/>
	<path class="st15" d="M473,181c-0.1,0-0.3,0-0.4,0l-0.1,0.2c-2.5,2.9-1,8.9-1,12.3c0,1.5-0.1,2.9-0.3,4.4c3.7,0,7-2.9,7.8-7.1
		C479.7,186.2,477.1,181.8,473,181z"/>
	<path class="st2" d="M492.5,296.5c0-14.7-14.5-41.7-26.1-46.4c-6.7,9.7-18,8.1-27.4,4c-0.8-0.3-1.1-0.9-1.1-1.6
		c-12.1,6.7-21.7,19-24,33.3c-1.7,10.4-3.3,28.7-5,56.2c-0.2,2.6-0.2,61.9,1.7,62.5c0,0,14.7,6.4,39.6,6.7s41.6-2.1,41.6-2.1
		C493.6,380.2,492.5,314.3,492.5,296.5z"/>
	<path class="st15" d="M420.8,203.1c1.2,3.9,6.7,5.8,12.3,4.1c5.6-1.7,9.2-6.2,8.1-10.2c-1.2-3.9-6.7-5.8-12.3-4.1
		C423.3,194.6,419.7,199.2,420.8,203.1z"/>
	<path class="st16" d="M438,173c0.8-0.1,1.5-0.6,1.9-1.3c0.5-1.1,0-2.5-1.1-3c-12.8-5.9-20.9-3.3-21.2-3.1c-1.2,0.4-1.8,1.7-1.4,2.9
		c0.4,1.2,1.7,1.8,2.9,1.4c0.2,0,6.9-2,17.9,3C437.2,173,437.6,173,438,173z"/>
	<path class="st16" d="M418,184.8c0,3.2,1.7,5.8,3.7,5.8c2.1,0,3.7-2.6,3.7-5.8c0-3.2-1.7-5.7-3.7-5.7
		C419.6,179.1,418,181.6,418,184.8z"/>
	<path class="st26" d="M410.4,128.7L410.4,128.7L410.4,128.7z"/>
	<path class="st16" d="M396.9,133.4c-2.5-1.5-5-3-6.1-6c-2.1-5.7,1.4-7.6,6.3-6.3c5.8-1,10.2-1.1,13.9-5.7c4.3-5.2,10-5.9,16.4-4.2
		c2.7,0.7,5.1,1.7,7.8,2.2c7.2,1.3,12.7-0.8,19.7-1.6c4.7-0.5,10.1,1.6,14.6,2.8c7.4,2,15,5.3,20,11.4c3.7,4.6,10.7,11.6,11.2,17.7
		c0.3,4.4-8.2,4.3-10.8,2.9c-5.2,1.6-10.2,3.5-15.4,4.9c-5.7,1.6-7.9,5.8-15.7,3.9c-6.1-1.5-9-6.2-16.4-4.6
		c-5.6,1.2-9.7,5.9-16.2,6.7c-7,0.9-17.2,0.5-22.4-5.1c-3.8-4.2,0.1-7.6-0.7-12.3C402.5,136.6,399.7,135,396.9,133.4z"/>
	<path class="st17" d="M428.1,210.9c0.7,10.4-9.5,15-9.5,15l-3.3-12.2L428.1,210.9z"/>
	<path class="st2" d="M452.8,611.2l-0.1,5.2c0,0-34.5,5.5-47.4,0.1c0,0-5.2-1.6-2.3-7C405.1,605.3,452.8,611.2,452.8,611.2z"/>
	<path class="st19" d="M452.8,597.5v15.4c0,0-30.9,5.8-48.2,0.3c0,0-8.9-3.8,10.1-9.2c18.9-5.3,23-8.3,23-8.3S446,603.5,452.8,597.5
		z"/>
	<path class="st20" d="M448.6,604.8c2-0.6,4-4.3,3.8-7c-4.9,2.8-8.7,1.6-10.4,0.8C442,602,445.1,605.8,448.6,604.8z"/>
	<path class="st20" d="M411.2,605c-14.4,4.8-6.7,8.1-6.7,8.1c3.6,1.1,7.7,1.8,12.1,2.1C416.2,611.2,414.7,607.6,411.2,605z"/>
	<path class="st27" d="M471.9,254.1c0,0,12,4.8,22.5,13.6c12.5,10.5,24.8,26.2,37.5,41.6c23.3,28.3,3.4,115.2,1.7,132.2
		c-2.8,28.4-45.6,28.4-57.2,2.2c-2-4.6,3-19.5,3.9-26.7C487.5,358.2,510.2,339,471.9,254.1z"/>
	<path class="st28" d="M480.3,417c-0.9,7.1-5.9,22.1-3.9,26.7c4.1,9.2,11.9,15.1,20.6,17.8c9.6-15.3,14.7-41.7,16.5-50.9
		c7.9-40.6,8.8-85.2-1.7-125.4c-5.8-6.6-11.5-12.6-17.4-17.5c-10.5-8.8-22.5-13.6-22.5-13.6C510.2,339,487.5,358.2,480.3,417z"/>
	<path class="st22" d="M487.6,365.1c2.6,1,3.2,1.7,10.2,0c5.5-1.4,8.6-4.8,8.8-8.2c-2.9-46.2-21.8-91.6-33.1-94.5
		c-18.5-4.9-8.8,15.4-8.8,15.4s8.7,56.3,15.8,82.9C481.9,365.5,487.1,359.6,487.6,365.1L487.6,365.1z"/>
	<path class="st11" d="M475,258.4c9.7,2.6,27.3,39.6,32.4,77.9c-6.6,6.8-24.4,10.8-34.4,8.5c-7.2-26.8-13.5-61-13.5-61
		S456.5,253.5,475,258.4z"/>
	<path class="st29" d="M499.7,426.3c-0.6,0-1.3-0.1-1.9-0.4c-2-0.9-48.9-22.1-53.4-103c-1.8-32.8,3.7-53.5,16.4-61.7
		c12.2-7.8,25.6-0.9,26.2-0.6c2.3,1.2,3.3,4.2,2,6.5c-1.2,2.3-4.1,3.2-6.5,2c-0.2-0.1-9.2-4.6-16.6,0.2c-6.6,4.3-14,16.9-11.9,53
		c4.2,75,47.2,94.5,47.6,94.7c2.4,1.1,3.6,3.9,2.5,6.3C503.3,425.2,501.6,426.3,499.7,426.3z"/>
	<path class="st22" d="M506.8,357.3c-3.5-4.2-5.2-2.4-13.7-3.2c-7.1-0.7-12.8,0.3-12.8,0.3c-5.2,22.6-14.3,52.4-24.6,65.2
		c-11.6,14.3,10,7.5,10,7.5C480.8,409.3,495.4,386.8,506.8,357.3z"/>
	<path class="st22" d="M462.6,411c0,0-13.6-3.7-19.2,13.3c0,0,2.7,2,8.5-2.6c4.1-3.3,7.5-6.3,9.3-8.4
		C462,412.4,462.4,411.6,462.6,411z"/>
	<path class="st22" d="M469.1,421.9c-1.5,4-3.8,7.8-6.5,11c-3.6,4.2-8.8,9.9-14.8,8.8c-2.1-0.4-4-1.1-5.7-2.3
		c-1.8-1.3-3.5-3.3-2.7-5.5c1.3-3.3,4.1-5.8,6.6-8.2c2.5-2.3,4-5.5,6.4-8c2.5-2.6,8.9-3.9,9.8-3.4
		C463.1,414.9,469.1,421.9,469.1,421.9z"/>
	<path class="st24" d="M437.8,420.1c11.1,15.1,12.7,15.9,26,22.3c2.7,11.5-23.5,18-29.8,9.4c-4.2-5.8-4.2-26.2,2.7-29.5"/>
	<path class="st30" d="M517.5,393.7c0,0-10,47.2-17.8,62.7c0,0,18.3,11.1,32.8-10c14.4-21.1,8.3-47.7,8.3-47.7L517.5,393.7z"/>
	<path class="st1" d="M291.9,277c0,0-2.8-17.8,21.6-23.6c0,0,2.3,3.6-5.1,10.7c-5.3,5-9.9,9.1-13.2,11.3
		C293.8,276.2,292.7,276.8,291.9,277z"/>
	<path class="st1" d="M299.5,290.5c5.9-0.7,11.9-2.6,17.2-5.3c6.9-3.5,16.5-8.8,16.9-17.4c0.1-3-0.2-5.9-1.3-8.6
		c-1.2-2.9-3.4-5.9-6.6-5.4c-5,0.7-9.3,3.7-13.4,6.3c-4,2.6-8.8,3.7-13,6.2c-4.3,2.6-8.2,10.9-7.9,12.3
		C291.9,280,299.5,290.5,299.5,290.5z"/>
	<path class="st5" d="M198.1,326.9c3.3,0.7,4.1,1.4,11.9-2.7c6.1-3.1,8.2-7.9,7.6-12.3c-15.5-58.8-38.2-105.5-52.1-106.5
		c-22.9-1.6-16.6,25.8-16.6,25.8s16.4,42,32.3,74.1c4.6,9.3,7.8,13.8,12.5,22.5L198.1,326.9z"/>
	<path class="st1" d="M296,274c4.5,3.9,7.2,9.8,10.7,14.8c-16.8,13.3-36.6,22.8-56.4,30.6c-15,5.9-30.1,11-45.8,14.6
		c-1.5,0.3-3,0.7-4.5,0.2c-1-0.4-1.8-1.1-2.6-1.8c-1.9-1.9-3.4-4.2-4.5-6.7c-1.2-2.8-0.3-5.8,0.5-8.7c0.8-3,2.5-8.5,6.1-9.2
		C232.2,301.5,272.6,286.5,296,274z"/>
	<path class="st2" d="M202,330.2c2.4-2.8,4.8-5.8,6.9-8.3c3.8-4.4,8.3-10.5,9-16.4c0.9-8.4-4.5-18.7-6.6-26.9
		c-2.9-11.2-7.9-20.8-13.3-31c-4.6-8.7-19.3-49.7-26.1-51c-14.9-2.9-29.1,19.9-28.4,30c1.3,17.2,4.6,35.5,12.2,51.9
		c7.2,15.6,15.8,30.3,22.1,46.3c2.9,7.6,6.7,21.4,16.4,13.3C196.9,335.9,199.5,333.1,202,330.2z"/>
	<path class="st2" d="M187.7,313.4c6-8.2,15.4-14.9,22.5-16.9c13-3.7,26-7.3,39-10.9c6.8-1.9,13.4-4.3,20.2-6.4
		c2.9-0.9,22.7-7.3,19.4-2.3c-0.2,0.3-8.7,6.7-12.5,35.6c-1,7.3-6.6,19.5-1.4,24.8c0.6,0.6-13.1,3.7-18.2,4.9
		c-12.5,3.1-25.4,4.3-38.3,4.3c-9.1,0-26.3,1.5-32.9-6.5C178.9,331.8,181.6,321.8,187.7,313.4z"/>
	<path class="st6" d="M126.5,185.5c-5.3-17.1-1.1-34.7,5.8-50.6c6.2-14.2,27.8-16.5,39.2-6.8c2.6,2.2,4.3,7.3,5.6,10.4
		c2.3,5.6,4.9,10.9,8.3,16.1c7.1,10.9,16.1,18.4,20.6,31c5.2,14.8,3.8,32.7,0.2,47c3.5,10.7,6.2,22.8,15,30.4
		c-2.5,3.1-11.7,2.1-15.1,0.6c-5.7-2.6-11.8-8.5-15.5-13.5c-9.2-12.3-12.3-31.3-25.1-40.5c-6-4.3-12.2-3.6-19.2-4.9
		C135.8,202.7,129.6,195.6,126.5,185.5z"/>
</g>
</svg>
