<?xml version="1.0" encoding="utf-8"?>
<!-- Generator: Adobe Illustrator 22.0.1, SVG Export Plug-In . SVG Version: 6.00 Build 0)  -->
<svg version="1.1" id="Capa_1" xmlns="http://www.w3.org/2000/svg" xmlns:xlink="http://www.w3.org/1999/xlink" x="0px" y="0px"
	 viewBox="0 0 172.6 32.1" style="enable-background:new 0 0 172.6 32.1;" xml:space="preserve">
<style type="text/css">
	.st0{fill:none;stroke:#FFFFFF;stroke-miterlimit:10;}
	.st1{fill:#FFFFFF;}
</style>
<g>
	<g>
		<g>
			<path class="st0" d="M18.4,13.9l-0.6,4.2h3.6v4.4h-4.2L16,31h-4.7l1.2-8.5H9.2L7.9,31H3.3l1.2-8.5H0.9v-4.4h4.2l0.6-4.2H2.1V9.5
				h4.2L7.5,1h4.7L11,9.5h3.3L15.5,1h4.7L19,9.5h3.6v4.4H18.4z M10.4,13.9l-0.6,4.2h3.3l0.6-4.2H10.4z"/>
		</g>
	</g>
	<g>
		<g>
			<path class="st1" d="M33.3,25.3v4.5h-2.6v-4.5l-4-6.1h3.1l2.3,3.9l2.3-3.9h3L33.3,25.3z"/>
			<path class="st1" d="M45.9,26c0,0.6-0.1,1.2-0.3,1.7s-0.5,0.9-0.9,1.3c-0.4,0.3-0.8,0.6-1.3,0.8s-1,0.3-1.6,0.3
				c-0.6,0-1.1-0.1-1.6-0.3s-0.9-0.5-1.3-0.8c-0.4-0.3-0.7-0.8-0.9-1.3c-0.2-0.5-0.3-1.1-0.3-1.7s0.1-1.2,0.3-1.7
				c0.2-0.5,0.5-0.9,0.9-1.3c0.4-0.3,0.8-0.6,1.3-0.8s1-0.3,1.6-0.3c0.6,0,1.1,0.1,1.6,0.3s0.9,0.4,1.3,0.8c0.4,0.3,0.7,0.8,0.9,1.3
				S45.9,25.4,45.9,26z M43.6,26c0-0.2,0-0.5-0.1-0.7c-0.1-0.2-0.2-0.4-0.3-0.6s-0.3-0.3-0.6-0.4c-0.2-0.1-0.5-0.2-0.8-0.2
				c-0.3,0-0.5,0.1-0.8,0.2c-0.2,0.1-0.4,0.3-0.5,0.4s-0.3,0.4-0.3,0.6C40.1,25.6,40,25.8,40,26s0,0.5,0.1,0.7
				c0.1,0.2,0.2,0.4,0.3,0.6s0.3,0.3,0.6,0.4c0.2,0.1,0.5,0.2,0.8,0.2s0.5-0.1,0.8-0.2c0.2-0.1,0.4-0.3,0.6-0.4
				c0.2-0.2,0.3-0.4,0.3-0.6C43.5,26.5,43.6,26.3,43.6,26z"/>
			<path class="st1" d="M57.2,29.8l0.1-7.5h0l-2.8,7.5h-1.8L50,22.3h0l0.1,7.5h-2.4V19.1h3.7l2.4,6.8h0.1l2.3-6.8h3.7v10.7H57.2z"/>
			<path class="st1" d="M69.2,26.1c0,0.1,0,0.2,0,0.3s0,0.2,0,0.3h-5.4c0,0.2,0.1,0.4,0.2,0.6s0.2,0.3,0.4,0.4
				c0.2,0.1,0.4,0.2,0.6,0.3c0.2,0.1,0.4,0.1,0.6,0.1c0.4,0,0.7-0.1,1-0.2c0.3-0.1,0.5-0.3,0.7-0.6l1.7,1.1
				c-0.4,0.5-0.8,0.9-1.4,1.2c-0.6,0.3-1.2,0.4-2,0.4c-0.6,0-1.1-0.1-1.6-0.3S63,29.4,62.6,29c-0.4-0.3-0.7-0.8-0.9-1.2
				s-0.3-1.1-0.3-1.7c0-0.6,0.1-1.2,0.3-1.7s0.5-0.9,0.9-1.3c0.4-0.3,0.8-0.6,1.3-0.8c0.5-0.2,1-0.3,1.6-0.3c0.6,0,1.1,0.1,1.5,0.3
				s0.9,0.5,1.2,0.8c0.3,0.4,0.6,0.8,0.8,1.3S69.2,25.5,69.2,26.1z M66.9,25.2c0-0.4-0.1-0.7-0.4-1s-0.6-0.4-1.1-0.4
				c-0.2,0-0.5,0-0.7,0.1c-0.2,0.1-0.4,0.2-0.5,0.3s-0.3,0.3-0.4,0.5c-0.1,0.2-0.1,0.4-0.2,0.5H66.9z"/>
			<path class="st1" d="M75.9,29.8c-0.8,0-1.6-0.1-2.3-0.4c-0.7-0.2-1.3-0.6-1.8-1.1s-0.9-1-1.2-1.7s-0.4-1.5-0.4-2.3
				c0-0.8,0.1-1.6,0.4-2.2s0.7-1.3,1.2-1.7c0.5-0.5,1.1-0.9,1.8-1.1c0.7-0.3,1.5-0.4,2.3-0.4s1.6,0.1,2.3,0.4
				c0.7,0.3,1.3,0.6,1.8,1.1c0.5,0.5,0.9,1,1.2,1.7c0.3,0.7,0.4,1.4,0.4,2.2c0,0.4,0,0.8-0.1,1.2c-0.1,0.4-0.2,0.7-0.4,1
				s-0.3,0.5-0.5,0.8c-0.2,0.2-0.4,0.4-0.6,0.6v0l2.2,0v2H75.9z M79,24.4c0-0.5-0.1-0.9-0.2-1.3s-0.4-0.7-0.6-1
				c-0.3-0.3-0.6-0.5-1-0.7s-0.8-0.2-1.2-0.2c-0.4,0-0.8,0.1-1.2,0.2s-0.7,0.4-1,0.7c-0.3,0.3-0.5,0.6-0.6,1S73,23.9,73,24.4
				c0,0.5,0.1,0.9,0.2,1.3s0.4,0.7,0.6,1c0.3,0.3,0.6,0.5,0.9,0.7c0.4,0.2,0.8,0.2,1.2,0.2c0.4,0,0.8-0.1,1.2-0.2
				c0.4-0.2,0.7-0.4,1-0.7c0.3-0.3,0.5-0.6,0.6-1S79,24.9,79,24.4z"/>
			<path class="st1" d="M88.4,29.8v-1h0c-0.1,0.2-0.2,0.3-0.4,0.5c-0.1,0.2-0.3,0.3-0.5,0.4c-0.2,0.1-0.4,0.2-0.6,0.3
				C86.6,30,86.4,30,86.1,30c-0.5,0-0.9-0.1-1.3-0.3S84.2,29.3,84,29s-0.4-0.6-0.5-1c-0.1-0.4-0.1-0.7-0.1-1.1v-4.6h2.5v4.1
				c0,0.2,0,0.4,0,0.6s0.1,0.4,0.2,0.5s0.2,0.3,0.3,0.4c0.1,0.1,0.3,0.1,0.6,0.1c0.4,0,0.8-0.2,1-0.5c0.2-0.3,0.3-0.7,0.3-1.1v-4.1
				h2.5v7.5H88.4z"/>
			<path class="st1" d="M100.1,26.1c0,0.1,0,0.2,0,0.3s0,0.2,0,0.3h-5.4c0,0.2,0.1,0.4,0.2,0.6s0.2,0.3,0.4,0.4
				c0.2,0.1,0.4,0.2,0.6,0.3c0.2,0.1,0.4,0.1,0.6,0.1c0.4,0,0.7-0.1,1-0.2c0.3-0.1,0.5-0.3,0.7-0.6l1.7,1.1
				c-0.4,0.5-0.8,0.9-1.4,1.2c-0.6,0.3-1.2,0.4-2,0.4c-0.6,0-1.1-0.1-1.6-0.3s-0.9-0.4-1.3-0.8c-0.4-0.3-0.7-0.8-0.9-1.2
				s-0.3-1.1-0.3-1.7c0-0.6,0.1-1.2,0.3-1.7s0.5-0.9,0.9-1.3c0.4-0.3,0.8-0.6,1.3-0.8c0.5-0.2,1-0.3,1.6-0.3c0.6,0,1.1,0.1,1.5,0.3
				s0.9,0.5,1.2,0.8c0.3,0.4,0.6,0.8,0.8,1.3S100.1,25.5,100.1,26.1z M97.8,25.2c0-0.4-0.1-0.7-0.4-1s-0.6-0.4-1.1-0.4
				c-0.2,0-0.5,0-0.7,0.1c-0.2,0.1-0.4,0.2-0.5,0.3s-0.3,0.3-0.4,0.5c-0.1,0.2-0.1,0.4-0.2,0.5H97.8z"/>
			<path class="st1" d="M107.2,29.8v-1h0c-0.2,0.4-0.6,0.7-1,0.9c-0.4,0.2-0.9,0.3-1.4,0.3c-0.6,0-1.1-0.1-1.5-0.3s-0.8-0.5-1.1-0.9
				c-0.3-0.4-0.5-0.8-0.7-1.3c-0.2-0.5-0.2-1-0.2-1.5c0-0.5,0.1-1,0.2-1.5s0.4-0.9,0.7-1.3c0.3-0.4,0.7-0.6,1.1-0.9s0.9-0.3,1.5-0.3
				c0.6,0,1,0.1,1.4,0.3c0.4,0.2,0.7,0.4,0.9,0.7h0v-4.7h2.5v11.4H107.2z M107.1,26c0-0.2,0-0.5-0.1-0.7c-0.1-0.2-0.2-0.4-0.4-0.6
				c-0.2-0.2-0.3-0.3-0.6-0.4c-0.2-0.1-0.5-0.2-0.8-0.2c-0.3,0-0.5,0.1-0.8,0.2c-0.2,0.1-0.4,0.3-0.6,0.4c-0.2,0.2-0.3,0.4-0.3,0.6
				c-0.1,0.2-0.1,0.5-0.1,0.7s0,0.5,0.1,0.7c0.1,0.2,0.2,0.4,0.3,0.6c0.2,0.2,0.3,0.3,0.6,0.4s0.5,0.2,0.8,0.2
				c0.3,0,0.5-0.1,0.8-0.2s0.4-0.3,0.6-0.4s0.3-0.4,0.4-0.6C107.1,26.5,107.1,26.3,107.1,26z"/>
			<path class="st1" d="M119.3,26c0,0.6-0.1,1.2-0.3,1.7s-0.5,0.9-0.9,1.3c-0.4,0.3-0.8,0.6-1.3,0.8s-1,0.3-1.6,0.3
				c-0.6,0-1.1-0.1-1.6-0.3s-0.9-0.5-1.3-0.8c-0.4-0.3-0.7-0.8-0.9-1.3c-0.2-0.5-0.3-1.1-0.3-1.7s0.1-1.2,0.3-1.7
				c0.2-0.5,0.5-0.9,0.9-1.3c0.4-0.3,0.8-0.6,1.3-0.8s1-0.3,1.6-0.3c0.6,0,1.1,0.1,1.6,0.3s0.9,0.4,1.3,0.8c0.4,0.3,0.7,0.8,0.9,1.3
				S119.3,25.4,119.3,26z M117,26c0-0.2,0-0.5-0.1-0.7c-0.1-0.2-0.2-0.4-0.3-0.6s-0.3-0.3-0.6-0.4c-0.2-0.1-0.5-0.2-0.8-0.2
				c-0.3,0-0.5,0.1-0.8,0.2c-0.2,0.1-0.4,0.3-0.5,0.4s-0.3,0.4-0.3,0.6c-0.1,0.2-0.1,0.5-0.1,0.7s0,0.5,0.1,0.7
				c0.1,0.2,0.2,0.4,0.3,0.6s0.3,0.3,0.6,0.4c0.2,0.1,0.5,0.2,0.8,0.2s0.5-0.1,0.8-0.2c0.2-0.1,0.4-0.3,0.6-0.4
				c0.2-0.2,0.3-0.4,0.3-0.6C116.9,26.5,117,26.3,117,26z"/>
			<path class="st1" d="M121,29.8V19.1h7.2v2.2h-4.7v2h4.4v2.1h-4.4v2.2h5v2.2H121z"/>
			<path class="st1" d="M134.8,29.8v-4.1c0-0.2,0-0.4-0.1-0.6c0-0.2-0.1-0.4-0.2-0.5c-0.1-0.1-0.2-0.3-0.3-0.3
				c-0.1-0.1-0.3-0.1-0.5-0.1c-0.2,0-0.4,0-0.6,0.1c-0.2,0.1-0.3,0.2-0.4,0.4c-0.1,0.2-0.2,0.3-0.2,0.5c-0.1,0.2-0.1,0.4-0.1,0.6
				v4.1h-2.5v-7.5h2.4v1h0c0.1-0.2,0.2-0.3,0.4-0.5c0.1-0.2,0.3-0.3,0.5-0.4c0.2-0.1,0.4-0.2,0.6-0.3c0.2-0.1,0.5-0.1,0.7-0.1
				c0.5,0,0.9,0.1,1.3,0.3s0.6,0.4,0.9,0.7s0.4,0.6,0.5,1c0.1,0.4,0.1,0.7,0.1,1.1v4.6H134.8z"/>
			<path class="st1" d="M146.9,29.6c-0.7,0.3-1.5,0.5-2.4,0.5c-0.8,0-1.6-0.1-2.3-0.4c-0.7-0.3-1.3-0.7-1.8-1.2
				c-0.5-0.5-0.9-1.1-1.2-1.8c-0.3-0.7-0.4-1.5-0.4-2.3c0-0.9,0.1-1.6,0.4-2.3c0.3-0.7,0.7-1.3,1.2-1.8c0.5-0.5,1.1-0.9,1.8-1.1
				c0.7-0.3,1.5-0.4,2.3-0.4c0.8,0,1.5,0.1,2.2,0.4c0.7,0.3,1.3,0.7,1.8,1.2l-1.7,1.7c-0.2-0.3-0.6-0.6-0.9-0.7
				c-0.4-0.2-0.8-0.2-1.2-0.2c-0.5,0-0.9,0.1-1.2,0.2c-0.4,0.2-0.7,0.4-1,0.7c-0.3,0.3-0.5,0.6-0.6,1c-0.2,0.4-0.2,0.8-0.2,1.3
				c0,0.5,0.1,0.9,0.2,1.3c0.2,0.4,0.4,0.7,0.6,1c0.3,0.3,0.6,0.5,1,0.7c0.4,0.2,0.8,0.2,1.2,0.2c0.5,0,1-0.1,1.3-0.3
				c0.4-0.2,0.7-0.5,0.9-0.8l1.8,1.7C148.1,28.9,147.6,29.3,146.9,29.6z"/>
			<path class="st1" d="M149.4,23.3c0.4-0.4,1-0.7,1.5-0.9c0.6-0.2,1.2-0.3,1.8-0.3c0.6,0,1.2,0.1,1.6,0.2c0.4,0.2,0.8,0.4,1.1,0.7
				c0.3,0.3,0.5,0.7,0.6,1.2c0.1,0.5,0.2,1.1,0.2,1.8v3.8h-2.3V29h0c-0.2,0.3-0.5,0.6-0.9,0.7s-0.8,0.3-1.3,0.3
				c-0.3,0-0.6,0-0.9-0.1s-0.6-0.2-0.9-0.4c-0.3-0.2-0.5-0.4-0.7-0.7c-0.2-0.3-0.3-0.7-0.3-1.1c0-0.5,0.1-1,0.4-1.3
				c0.3-0.3,0.7-0.6,1.1-0.8s1-0.3,1.6-0.4s1.1-0.1,1.7-0.1V25c0-0.4-0.1-0.6-0.4-0.8c-0.3-0.2-0.6-0.3-1-0.3c-0.4,0-0.7,0.1-1,0.2
				s-0.6,0.3-0.8,0.5L149.4,23.3z M153.9,26.5h-0.3c-0.3,0-0.5,0-0.8,0c-0.3,0-0.5,0.1-0.7,0.1s-0.4,0.2-0.5,0.3s-0.2,0.3-0.2,0.5
				c0,0.1,0,0.3,0.1,0.4c0.1,0.1,0.1,0.2,0.2,0.2s0.2,0.1,0.3,0.1c0.1,0,0.3,0,0.4,0c0.5,0,0.9-0.1,1.2-0.4c0.3-0.3,0.4-0.7,0.4-1.1
				V26.5z"/>
			<path class="st1" d="M162.4,24.5c-0.2-0.2-0.4-0.4-0.7-0.5c-0.3-0.1-0.6-0.2-0.9-0.2c-0.2,0-0.4,0-0.6,0.1
				c-0.2,0.1-0.3,0.2-0.3,0.5c0,0.2,0.1,0.4,0.3,0.5c0.2,0.1,0.6,0.2,1,0.3c0.3,0.1,0.6,0.1,0.9,0.3s0.5,0.3,0.8,0.4
				c0.2,0.2,0.4,0.4,0.6,0.7s0.2,0.6,0.2,0.9c0,0.5-0.1,0.9-0.3,1.2c-0.2,0.3-0.4,0.6-0.7,0.8c-0.3,0.2-0.7,0.3-1,0.4
				c-0.4,0.1-0.8,0.1-1.1,0.1c-0.6,0-1.2-0.1-1.8-0.3c-0.6-0.2-1.1-0.5-1.5-0.9l1.4-1.5c0.2,0.2,0.5,0.4,0.8,0.6
				c0.3,0.2,0.7,0.2,1,0.2c0.2,0,0.4,0,0.6-0.1c0.2-0.1,0.3-0.3,0.3-0.5c0-0.2-0.1-0.4-0.4-0.5c-0.2-0.1-0.6-0.2-1.1-0.3
				c-0.3-0.1-0.5-0.1-0.8-0.2s-0.5-0.2-0.7-0.4s-0.4-0.4-0.5-0.6c-0.1-0.3-0.2-0.6-0.2-0.9c0-0.5,0.1-0.8,0.3-1.2
				c0.2-0.3,0.4-0.6,0.7-0.8c0.3-0.2,0.6-0.3,1-0.4s0.7-0.1,1.1-0.1c0.6,0,1.1,0.1,1.6,0.3s1,0.4,1.4,0.8L162.4,24.5z"/>
			<path class="st1" d="M164.9,23.3c0.4-0.4,1-0.7,1.5-0.9c0.6-0.2,1.2-0.3,1.8-0.3c0.6,0,1.2,0.1,1.6,0.2c0.4,0.2,0.8,0.4,1.1,0.7
				c0.3,0.3,0.5,0.7,0.6,1.2c0.1,0.5,0.2,1.1,0.2,1.8v3.8h-2.3V29h0c-0.2,0.3-0.5,0.6-0.9,0.7s-0.8,0.3-1.3,0.3
				c-0.3,0-0.6,0-0.9-0.1s-0.6-0.2-0.9-0.4c-0.3-0.2-0.5-0.4-0.7-0.7c-0.2-0.3-0.3-0.7-0.3-1.1c0-0.5,0.1-1,0.4-1.3
				c0.3-0.3,0.7-0.6,1.1-0.8s1-0.3,1.6-0.4s1.1-0.1,1.7-0.1V25c0-0.4-0.1-0.6-0.4-0.8c-0.3-0.2-0.6-0.3-1-0.3c-0.4,0-0.7,0.1-1,0.2
				s-0.6,0.3-0.8,0.5L164.9,23.3z M169.4,26.5h-0.3c-0.3,0-0.5,0-0.8,0c-0.3,0-0.5,0.1-0.7,0.1s-0.4,0.2-0.5,0.3s-0.2,0.3-0.2,0.5
				c0,0.1,0,0.3,0.1,0.4c0.1,0.1,0.1,0.2,0.2,0.2s0.2,0.1,0.3,0.1c0.1,0,0.3,0,0.4,0c0.5,0,0.9-0.1,1.2-0.4c0.3-0.3,0.4-0.7,0.4-1.1
				V26.5z"/>
		</g>
	</g>
	<g>
		<g>
			<path class="st1" d="M33.9,5.8c-0.2-0.3-0.5-0.5-0.9-0.7c-0.4-0.2-0.7-0.2-1-0.2c-0.2,0-0.3,0-0.5,0S31.2,5,31,5.1
				s-0.3,0.2-0.4,0.3c-0.1,0.1-0.1,0.3-0.1,0.5c0,0.2,0,0.3,0.1,0.5s0.2,0.2,0.3,0.3c0.1,0.1,0.3,0.2,0.5,0.2
				c0.2,0.1,0.4,0.2,0.7,0.2c0.4,0.1,0.7,0.3,1.1,0.4s0.7,0.3,1.1,0.6C34.7,8.4,35,8.7,35.2,9c0.2,0.4,0.3,0.8,0.3,1.3
				c0,0.6-0.1,1.1-0.3,1.6c-0.2,0.4-0.5,0.8-0.9,1.1c-0.4,0.3-0.8,0.5-1.3,0.6c-0.5,0.1-1,0.2-1.5,0.2c-0.8,0-1.5-0.1-2.2-0.4
				s-1.3-0.6-1.8-1.1l1.7-1.7c0.3,0.3,0.6,0.6,1,0.8s0.9,0.3,1.3,0.3c0.2,0,0.4,0,0.6-0.1c0.2,0,0.3-0.1,0.5-0.2
				c0.1-0.1,0.2-0.2,0.3-0.4s0.1-0.3,0.1-0.5c0-0.2,0-0.4-0.2-0.5c-0.1-0.1-0.2-0.3-0.4-0.4c-0.2-0.1-0.4-0.2-0.7-0.3
				c-0.3-0.1-0.6-0.2-0.9-0.3c-0.3-0.1-0.7-0.2-1-0.4s-0.6-0.3-0.9-0.6c-0.3-0.2-0.5-0.5-0.6-0.9C28,7,27.9,6.5,27.9,6.1
				c0-0.6,0.1-1.1,0.4-1.5s0.6-0.8,0.9-1c0.4-0.3,0.8-0.5,1.3-0.6c0.5-0.1,1-0.2,1.5-0.2c0.6,0,1.2,0.1,1.8,0.3
				c0.6,0.2,1.2,0.5,1.6,1L33.9,5.8z"/>
			<path class="st1" d="M44.4,10c0,0.1,0,0.2,0,0.3s0,0.2,0,0.3H39c0,0.2,0.1,0.4,0.2,0.6s0.2,0.3,0.4,0.4c0.2,0.1,0.4,0.2,0.6,0.3
				c0.2,0.1,0.4,0.1,0.6,0.1c0.4,0,0.7-0.1,1-0.2c0.3-0.1,0.5-0.3,0.7-0.6l1.7,1.1c-0.4,0.5-0.8,0.9-1.4,1.2c-0.6,0.3-1.2,0.4-2,0.4
				c-0.6,0-1.1-0.1-1.6-0.3s-0.9-0.4-1.3-0.8c-0.4-0.3-0.7-0.8-0.9-1.2s-0.3-1.1-0.3-1.7c0-0.6,0.1-1.2,0.3-1.7s0.5-0.9,0.9-1.3
				c0.4-0.3,0.8-0.6,1.3-0.8c0.5-0.2,1-0.3,1.6-0.3c0.6,0,1.1,0.1,1.5,0.3S43,6.6,43.4,7c0.3,0.4,0.6,0.8,0.8,1.3S44.4,9.4,44.4,10z
				 M42.1,9c0-0.4-0.1-0.7-0.4-1c-0.2-0.3-0.6-0.4-1.1-0.4c-0.2,0-0.5,0-0.7,0.1c-0.2,0.1-0.4,0.2-0.5,0.3c-0.2,0.1-0.3,0.3-0.4,0.5
				C39,8.7,39,8.9,39,9H42.1z"/>
			<path class="st1" d="M50.7,8.2c-0.1,0-0.2,0-0.3-0.1c-0.1,0-0.2,0-0.3,0c-0.3,0-0.6,0.1-0.8,0.2c-0.2,0.1-0.4,0.3-0.5,0.4
				c-0.1,0.2-0.2,0.4-0.3,0.6c-0.1,0.2-0.1,0.4-0.1,0.5v3.8h-2.5V6.2h2.4v1.1h0c0.2-0.4,0.5-0.7,0.8-0.9s0.8-0.4,1.2-0.4
				c0.1,0,0.2,0,0.3,0c0.1,0,0.2,0,0.2,0L50.7,8.2z"/>
			<path class="st1" d="M61.6,13.7l0.1-7.5h0l-2.8,7.5H57l-2.7-7.5h0l0.1,7.5h-2.4V3h3.7L58,9.8h0.1L60.4,3h3.7v10.7H61.6z"/>
			<path class="st1" d="M73.5,10c0,0.1,0,0.2,0,0.3s0,0.2,0,0.3h-5.4c0,0.2,0.1,0.4,0.2,0.6s0.2,0.3,0.4,0.4
				c0.2,0.1,0.4,0.2,0.6,0.3c0.2,0.1,0.4,0.1,0.6,0.1c0.4,0,0.7-0.1,1-0.2c0.3-0.1,0.5-0.3,0.7-0.6l1.7,1.1
				c-0.4,0.5-0.8,0.9-1.4,1.2c-0.6,0.3-1.2,0.4-2,0.4c-0.6,0-1.1-0.1-1.6-0.3s-0.9-0.4-1.3-0.8c-0.4-0.3-0.7-0.8-0.9-1.2
				s-0.3-1.1-0.3-1.7c0-0.6,0.1-1.2,0.3-1.7s0.5-0.9,0.9-1.3c0.4-0.3,0.8-0.6,1.3-0.8c0.5-0.2,1-0.3,1.6-0.3c0.6,0,1.1,0.1,1.5,0.3
				s0.9,0.5,1.2,0.8c0.3,0.4,0.6,0.8,0.8,1.3S73.5,9.4,73.5,10z M71.2,9c0-0.4-0.1-0.7-0.4-1c-0.2-0.3-0.6-0.4-1.1-0.4
				c-0.2,0-0.5,0-0.7,0.1c-0.2,0.1-0.4,0.2-0.5,0.3c-0.2,0.1-0.3,0.3-0.4,0.5c-0.1,0.2-0.1,0.4-0.2,0.5H71.2z"/>
			<path class="st1" d="M77.5,13.8c0,0.5,0,0.9-0.1,1.3c-0.1,0.4-0.2,0.8-0.5,1.1c-0.2,0.3-0.5,0.6-0.9,0.7s-0.9,0.3-1.5,0.3
				c-0.2,0-0.4,0-0.6,0c-0.2,0-0.4,0-0.5-0.1l0.2-2.1c0.1,0,0.2,0,0.3,0.1c0.1,0,0.2,0,0.2,0c0.4,0,0.6-0.1,0.7-0.4s0.2-0.6,0.2-0.9
				V6.2h2.5V13.8z M77.7,3.8c0,0.2,0,0.4-0.1,0.5c-0.1,0.2-0.2,0.3-0.3,0.4C77.2,4.8,77,4.9,76.8,5c-0.2,0.1-0.4,0.1-0.5,0.1
				c-0.4,0-0.7-0.1-1-0.4c-0.3-0.3-0.4-0.6-0.4-1c0-0.2,0-0.4,0.1-0.5s0.2-0.3,0.3-0.4c0.1-0.1,0.3-0.2,0.5-0.3s0.4-0.1,0.6-0.1
				c0.2,0,0.4,0,0.5,0.1c0.2,0.1,0.3,0.2,0.5,0.3c0.1,0.1,0.2,0.3,0.3,0.4C77.7,3.4,77.7,3.6,77.7,3.8z"/>
			<path class="st1" d="M87.4,9.9c0,0.6-0.1,1.2-0.3,1.7s-0.5,0.9-0.9,1.3c-0.4,0.3-0.8,0.6-1.3,0.8s-1,0.3-1.6,0.3
				c-0.6,0-1.1-0.1-1.6-0.3s-0.9-0.5-1.3-0.8c-0.4-0.3-0.7-0.8-0.9-1.3C79.1,11,79,10.5,79,9.9s0.1-1.2,0.3-1.7
				c0.2-0.5,0.5-0.9,0.9-1.2c0.4-0.3,0.8-0.6,1.3-0.8s1-0.3,1.6-0.3c0.6,0,1.1,0.1,1.6,0.3s0.9,0.4,1.3,0.8c0.4,0.3,0.7,0.8,0.9,1.2
				S87.4,9.3,87.4,9.9z M85,9.9c0-0.2,0-0.5-0.1-0.7c-0.1-0.2-0.2-0.4-0.3-0.6S84.2,8.2,84,8.1C83.7,8,83.5,8,83.2,8
				c-0.3,0-0.5,0.1-0.8,0.2c-0.2,0.1-0.4,0.3-0.5,0.4s-0.3,0.4-0.3,0.6c-0.1,0.2-0.1,0.5-0.1,0.7s0,0.5,0.1,0.7
				c0.1,0.2,0.2,0.4,0.3,0.6s0.3,0.3,0.6,0.4c0.2,0.1,0.5,0.2,0.8,0.2s0.5-0.1,0.8-0.2c0.2-0.1,0.4-0.3,0.6-0.4
				c0.2-0.2,0.3-0.4,0.3-0.6C84.9,10.3,85,10.1,85,9.9z"/>
			<path class="st1" d="M93.7,8.2c-0.1,0-0.2,0-0.3-0.1c-0.1,0-0.2,0-0.3,0c-0.3,0-0.6,0.1-0.8,0.2c-0.2,0.1-0.4,0.3-0.5,0.4
				c-0.1,0.2-0.2,0.4-0.3,0.6c-0.1,0.2-0.1,0.4-0.1,0.5v3.8h-2.5V6.2h2.4v1.1h0c0.2-0.4,0.5-0.7,0.8-0.9s0.8-0.4,1.2-0.4
				c0.1,0,0.2,0,0.3,0c0.1,0,0.2,0,0.2,0L93.7,8.2z"/>
			<path class="st1" d="M102.2,10c0,0.1,0,0.2,0,0.3s0,0.2,0,0.3h-5.4c0,0.2,0.1,0.4,0.2,0.6s0.2,0.3,0.4,0.4
				c0.2,0.1,0.4,0.2,0.6,0.3c0.2,0.1,0.4,0.1,0.6,0.1c0.4,0,0.7-0.1,1-0.2c0.3-0.1,0.5-0.3,0.7-0.6l1.7,1.1
				c-0.4,0.5-0.8,0.9-1.4,1.2c-0.6,0.3-1.2,0.4-2,0.4c-0.6,0-1.1-0.1-1.6-0.3s-0.9-0.4-1.3-0.8c-0.4-0.3-0.7-0.8-0.9-1.2
				s-0.3-1.1-0.3-1.7c0-0.6,0.1-1.2,0.3-1.7s0.5-0.9,0.9-1.3c0.4-0.3,0.8-0.6,1.3-0.8c0.5-0.2,1-0.3,1.6-0.3c0.6,0,1.1,0.1,1.5,0.3
				s0.9,0.5,1.2,0.8c0.3,0.4,0.6,0.8,0.8,1.3S102.2,9.4,102.2,10z M99.9,9c0-0.4-0.1-0.7-0.4-1c-0.2-0.3-0.6-0.4-1.1-0.4
				c-0.2,0-0.5,0-0.7,0.1c-0.2,0.1-0.4,0.2-0.5,0.3c-0.2,0.1-0.3,0.3-0.4,0.5c-0.1,0.2-0.1,0.4-0.2,0.5H99.9z"/>
			<path class="st1" d="M108,8.4c-0.2-0.2-0.4-0.4-0.7-0.5c-0.3-0.1-0.6-0.2-0.9-0.2c-0.2,0-0.4,0-0.6,0.1c-0.2,0.1-0.3,0.2-0.3,0.5
				c0,0.2,0.1,0.4,0.3,0.5c0.2,0.1,0.6,0.2,1,0.3c0.3,0.1,0.6,0.1,0.9,0.3s0.5,0.3,0.8,0.4c0.2,0.2,0.4,0.4,0.6,0.7s0.2,0.6,0.2,0.9
				c0,0.5-0.1,0.9-0.3,1.2c-0.2,0.3-0.4,0.6-0.7,0.8c-0.3,0.2-0.7,0.3-1,0.4c-0.4,0.1-0.8,0.1-1.1,0.1c-0.6,0-1.2-0.1-1.8-0.3
				c-0.6-0.2-1.1-0.5-1.5-0.9l1.4-1.5c0.2,0.2,0.5,0.4,0.8,0.6c0.3,0.2,0.7,0.2,1,0.2c0.2,0,0.4,0,0.6-0.1c0.2-0.1,0.3-0.3,0.3-0.5
				c0-0.2-0.1-0.4-0.4-0.5c-0.2-0.1-0.6-0.2-1.1-0.3c-0.3-0.1-0.5-0.1-0.8-0.2s-0.5-0.2-0.7-0.4s-0.4-0.4-0.5-0.6
				c-0.1-0.3-0.2-0.6-0.2-0.9c0-0.5,0.1-0.8,0.3-1.2c0.2-0.3,0.4-0.6,0.7-0.8c0.3-0.2,0.6-0.3,1-0.4s0.7-0.1,1.1-0.1
				c0.6,0,1.1,0.1,1.6,0.3s1,0.4,1.4,0.8L108,8.4z"/>
			<path class="st1" d="M116.5,11.3c-0.1,0.5-0.3,0.9-0.5,1.3c-0.3,0.4-0.6,0.7-1.1,1c-0.5,0.3-1,0.4-1.8,0.4
				c-0.9,0-1.7-0.2-2.3-0.7c-0.6-0.5-1-1.1-1.2-1.8l2.3-0.8c0.1,0.3,0.2,0.5,0.4,0.7c0.2,0.2,0.4,0.3,0.7,0.3c0.4,0,0.7-0.1,0.8-0.4
				c0.1-0.3,0.2-0.7,0.2-1.1V3h2.6v7C116.6,10.4,116.6,10.9,116.5,11.3z"/>
			<path class="st1" d="M123.5,13.7v-1h0c-0.1,0.2-0.2,0.3-0.4,0.5c-0.1,0.2-0.3,0.3-0.5,0.4c-0.2,0.1-0.4,0.2-0.6,0.3
				c-0.2,0.1-0.5,0.1-0.7,0.1c-0.5,0-0.9-0.1-1.3-0.3s-0.6-0.4-0.8-0.7s-0.4-0.6-0.5-1c-0.1-0.4-0.1-0.7-0.1-1.1V6.2h2.5v4.1
				c0,0.2,0,0.4,0,0.6s0.1,0.4,0.2,0.5s0.2,0.3,0.3,0.4c0.1,0.1,0.3,0.1,0.6,0.1c0.4,0,0.8-0.2,1-0.5c0.2-0.3,0.3-0.7,0.3-1.1V6.2
				h2.5v7.5H123.5z"/>
			<path class="st1" d="M132.7,13.7V9.6c0-0.2,0-0.4-0.1-0.6c0-0.2-0.1-0.4-0.2-0.5c-0.1-0.1-0.2-0.3-0.3-0.3
				C131.9,8,131.8,8,131.5,8c-0.2,0-0.4,0-0.6,0.1c-0.2,0.1-0.3,0.2-0.4,0.4c-0.1,0.2-0.2,0.3-0.2,0.5c-0.1,0.2-0.1,0.4-0.1,0.6v4.1
				h-2.5V6.2h2.4v1h0c0.1-0.2,0.2-0.3,0.4-0.5c0.1-0.2,0.3-0.3,0.5-0.4c0.2-0.1,0.4-0.2,0.6-0.3c0.2-0.1,0.5-0.1,0.7-0.1
				c0.5,0,0.9,0.1,1.3,0.3s0.6,0.4,0.9,0.7s0.4,0.6,0.5,1c0.1,0.4,0.1,0.7,0.1,1.1v4.6H132.7z"/>
			<path class="st1" d="M139.6,8v2.9c0,0.4,0.1,0.6,0.2,0.8c0.1,0.2,0.4,0.3,0.7,0.3c0.1,0,0.2,0,0.4,0c0.1,0,0.2-0.1,0.3-0.1l0,1.8
				c-0.2,0.1-0.4,0.1-0.6,0.2c-0.3,0-0.5,0.1-0.8,0.1c-0.5,0-0.9-0.1-1.3-0.2c-0.3-0.1-0.6-0.3-0.8-0.5c-0.2-0.2-0.4-0.5-0.4-0.8
				c-0.1-0.3-0.1-0.7-0.1-1.1V8H136V6.2h1.2v-2h2.4v2h1.8V8H139.6z"/>
			<path class="st1" d="M150.4,9.9c0,0.6-0.1,1.2-0.3,1.7s-0.5,0.9-0.9,1.3c-0.4,0.3-0.8,0.6-1.3,0.8s-1,0.3-1.6,0.3
				c-0.6,0-1.1-0.1-1.6-0.3s-0.9-0.5-1.3-0.8c-0.4-0.3-0.7-0.8-0.9-1.3c-0.2-0.5-0.3-1.1-0.3-1.7s0.1-1.2,0.3-1.7
				c0.2-0.5,0.5-0.9,0.9-1.2c0.4-0.3,0.8-0.6,1.3-0.8s1-0.3,1.6-0.3c0.6,0,1.1,0.1,1.6,0.3s0.9,0.4,1.3,0.8c0.4,0.3,0.7,0.8,0.9,1.2
				S150.4,9.3,150.4,9.9z M148,9.9c0-0.2,0-0.5-0.1-0.7c-0.1-0.2-0.2-0.4-0.3-0.6s-0.3-0.3-0.6-0.4C146.8,8,146.5,8,146.2,8
				c-0.3,0-0.5,0.1-0.8,0.2c-0.2,0.1-0.4,0.3-0.5,0.4s-0.3,0.4-0.3,0.6c-0.1,0.2-0.1,0.5-0.1,0.7s0,0.5,0.1,0.7
				c0.1,0.2,0.2,0.4,0.3,0.6s0.3,0.3,0.6,0.4c0.2,0.1,0.5,0.2,0.8,0.2s0.5-0.1,0.8-0.2c0.2-0.1,0.4-0.3,0.6-0.4
				c0.2-0.2,0.3-0.4,0.3-0.6C148,10.3,148,10.1,148,9.9z"/>
			<path class="st1" d="M156.3,8.4c-0.2-0.2-0.4-0.4-0.7-0.5c-0.3-0.1-0.6-0.2-0.9-0.2c-0.2,0-0.4,0-0.6,0.1
				c-0.2,0.1-0.3,0.2-0.3,0.5c0,0.2,0.1,0.4,0.3,0.5c0.2,0.1,0.6,0.2,1,0.3c0.3,0.1,0.6,0.1,0.9,0.3s0.5,0.3,0.8,0.4
				c0.2,0.2,0.4,0.4,0.6,0.7s0.2,0.6,0.2,0.9c0,0.5-0.1,0.9-0.3,1.2c-0.2,0.3-0.4,0.6-0.7,0.8c-0.3,0.2-0.7,0.3-1,0.4
				c-0.4,0.1-0.8,0.1-1.1,0.1c-0.6,0-1.2-0.1-1.8-0.3c-0.6-0.2-1.1-0.5-1.5-0.9l1.4-1.5c0.2,0.2,0.5,0.4,0.8,0.6
				c0.3,0.2,0.7,0.2,1,0.2c0.2,0,0.4,0,0.6-0.1c0.2-0.1,0.3-0.3,0.3-0.5c0-0.2-0.1-0.4-0.4-0.5c-0.2-0.1-0.6-0.2-1.1-0.3
				c-0.3-0.1-0.5-0.1-0.8-0.2s-0.5-0.2-0.7-0.4s-0.4-0.4-0.5-0.6c-0.1-0.3-0.2-0.6-0.2-0.9c0-0.5,0.1-0.8,0.3-1.2
				c0.2-0.3,0.4-0.6,0.7-0.8c0.3-0.2,0.6-0.3,1-0.4s0.7-0.1,1.1-0.1c0.6,0,1.1,0.1,1.6,0.3s1,0.4,1.4,0.8L156.3,8.4z"/>
		</g>
	</g>
</g>
</svg>
