<svg width="472" height="569" viewBox="0 0 472 569" fill="none" xmlns="http://www.w3.org/2000/svg">
<mask id="mask0_4332_61" style="mask-type:alpha" maskUnits="userSpaceOnUse" x="0" y="0" width="471" height="569">
<rect width="470.759" height="569" fill="#D9D9D9"/>
</mask>
<g mask="url(#mask0_4332_61)">
</g>
<g clip-path="url(#clip0_4332_61)">
<path d="M462.835 269.74C463.419 238.089 452.909 207.037 437.7 179.28C420.103 147.165 395.831 118.417 365.649 97.6821C321.192 67.1437 265.091 55.2791 211.485 61.2756C154.672 67.6286 99.5474 94.3024 62.6696 137.989C35.3393 170.367 18.7115 217.74 38.498 255.209C46.1132 269.633 58.3772 281.148 66.3988 295.351C81.9071 322.817 79.7752 356.293 81.08 387.808C82.3848 419.323 90.0071 454.553 116.66 471.423C137.937 484.892 165.053 482.646 190.237 482.618C228.848 482.568 267.914 488.792 305.798 481.341C385.293 465.719 461.423 346.646 462.842 269.747L462.835 269.74Z" fill="#DADADA"/>
<path d="M115.055 106.653C114.756 106.354 114.435 106.097 114.093 105.876C113.073 105.213 111.896 104.871 110.727 104.714C108.025 104.35 104.973 104.771 102.684 106.603C102.698 106.525 102.698 106.439 102.713 106.361C102.805 105.37 102.492 104.357 102 103.53C101.9 103.366 101.793 103.202 101.686 103.045C101.65 102.996 101.615 102.946 101.579 102.896C101.5 102.789 101.429 102.689 101.351 102.589C101.308 102.532 101.258 102.475 101.208 102.418C101.137 102.332 101.058 102.24 100.987 102.154C100.937 102.097 100.88 102.04 100.83 101.983C100.752 101.905 100.68 101.826 100.602 101.748C100.545 101.691 100.488 101.634 100.431 101.584C100.352 101.513 100.274 101.441 100.188 101.37C100.131 101.32 100.074 101.263 100.01 101.213C99.9104 101.135 99.8177 101.056 99.7179 100.978C99.5967 100.885 99.4755 100.799 99.3542 100.714C99.2901 100.671 99.233 100.628 99.1688 100.586C99.0762 100.521 98.9835 100.464 98.8836 100.407C98.8266 100.372 98.7767 100.336 98.7196 100.308C98.6198 100.243 98.52 100.186 98.413 100.129C98.3631 100.101 98.3204 100.079 98.2704 100.051C98.1564 99.9938 98.0494 99.9368 97.9353 99.8797C97.8997 99.8655 97.864 99.8441 97.8355 99.8298C96.7018 99.2879 95.4896 98.9457 94.3274 98.8102C91.3469 98.4751 88.3594 99.2095 85.4288 99.9439C85.5714 95.9082 82.7407 92.3217 79.4537 91.1595C76.1666 89.9973 72.5872 90.8316 69.3929 92.3146C69.3358 92.0722 69.2716 91.8298 69.2075 91.5873C69.1861 91.5232 69.1718 91.459 69.1504 91.3948C69.0934 91.2023 69.0292 91.0027 68.965 90.8102C68.9508 90.7602 68.9365 90.7175 68.9223 90.6676C68.8438 90.4323 68.7511 90.197 68.6584 89.9617C68.6442 89.926 68.6299 89.8832 68.6085 89.8476C68.5301 89.6479 68.4445 89.4483 68.3518 89.2487C68.3304 89.2059 68.3091 89.1631 68.2948 89.1132C68.0809 88.6426 67.8385 88.1791 67.5818 87.7371C67.5675 87.7157 67.5604 87.6943 67.5461 87.6729C65.243 83.6943 61.4141 80.6568 57.2999 79.2094C53.9487 78.0329 50.4121 77.9046 47.3532 79.188C43.8808 80.6426 41.0144 84.0579 39.7095 88.0651C39.7095 88.0651 39.6882 88.1292 39.681 88.1577C39.6097 88.3716 39.5456 88.5856 39.4885 88.8066C39.4671 88.885 39.4457 88.9563 39.4243 89.0348C39.3958 89.1346 39.3744 89.2344 39.353 89.3342C39.3316 89.4198 39.3174 89.4982 39.296 89.5838C39.2746 89.6765 39.2532 89.7763 39.2318 89.869C39.2033 90.0258 39.1676 90.1898 39.1463 90.3467C39.132 90.4323 39.1177 90.5178 39.1035 90.6034C39.0892 90.7032 39.075 90.803 39.0607 90.9028C39.0464 90.9884 39.0393 91.074 39.0322 91.1595C39.0179 91.2736 39.0108 91.3948 38.9965 91.5089C38.9965 91.5731 38.9823 91.6444 38.9751 91.7086C38.9609 91.8868 38.9537 92.0579 38.9466 92.2362C38.9466 92.3075 38.9466 92.3717 38.9466 92.443C38.9466 92.5713 38.9466 92.6925 38.9466 92.8209C38.9466 92.885 38.9466 92.9563 38.9466 93.0205C38.9466 93.1774 38.9537 93.3342 38.9609 93.4982C38.9609 93.5267 38.9609 93.5553 38.9609 93.5909C38.968 93.7763 38.9894 93.9617 39.0036 94.1542C39.0036 94.2112 39.0179 94.2683 39.025 94.3182C39.0393 94.4608 39.0607 94.5963 39.075 94.7389C39.0821 94.7959 39.0892 94.853 39.0963 94.91C39.1249 95.1025 39.1605 95.2879 39.1962 95.4733C39.1819 95.3877 39.1534 95.3093 39.132 95.2237C38.0981 91.8726 30.0694 90.2041 27.7521 90.3467C25.4348 90.4893 23.1958 91.5873 21.3634 93.2914C20.8714 93.7478 20.4079 94.2469 19.9801 94.7888C19.8731 94.9243 19.7733 95.0597 19.6735 95.1952C19.6236 95.2665 19.5665 95.3378 19.5166 95.4091C19.4311 95.5303 19.3526 95.6444 19.2742 95.7656C19.2029 95.8654 19.1387 95.9724 19.0745 96.0793C19.0104 96.1863 18.9462 96.2861 18.882 96.3931C18.8036 96.5285 18.7252 96.664 18.6539 96.8066C18.6111 96.8922 18.5612 96.9777 18.5184 97.0633C18.3972 97.2915 18.2831 97.5268 18.1833 97.7621C16.9212 97.5482 15.7091 97.0776 14.504 96.5784C13.299 96.0722 12.1011 95.5374 10.8605 95.1738C8.38628 94.4537 5.42722 94.6177 3.72308 96.8423C2.09025 98.9742 2.8318 103.209 5.12775 103.701C4.22933 103.58 3.30953 103.502 2.46103 103.858C1.5127 104.258 0.706979 105.377 0.885236 106.546C1.07062 107.759 2.15442 108.436 3.1384 108.864C8.18663 111.06 13.6841 111.245 19.0603 111.316C24.1798 111.388 29.3065 111.381 34.426 111.366C40.829 111.359 47.2248 111.345 53.6278 111.338C52.8292 111.431 52.0093 111.53 51.2748 111.858C51.0253 111.965 50.79 112.101 50.5689 112.272C49.7846 112.864 49.2285 114.005 49.3924 115.046C49.4138 115.195 49.4566 115.338 49.5065 115.488C49.9201 116.564 50.9896 116.956 52.0164 117.135C52.1661 117.163 52.3087 117.185 52.4513 117.199C66.4195 119.038 80.5303 117.948 94.5556 116.857C99.6109 116.464 104.666 116.072 109.722 115.673C110.577 115.609 111.49 115.488 112.367 115.252C114.299 114.746 116.053 113.705 116.56 111.573C116.98 109.798 116.26 107.837 115.062 106.639" fill="#DADADA"/>
<path d="M115.055 106.653C114.756 106.354 114.435 106.097 114.093 105.876C113.073 105.213 111.896 104.871 110.727 104.714C108.025 104.35 104.973 104.771 102.684 106.603C102.698 106.525 102.698 106.439 102.713 106.361C102.805 105.37 102.492 104.357 102 103.53C101.9 103.366 101.793 103.202 101.686 103.045C101.65 102.996 101.615 102.946 101.579 102.896C101.5 102.789 101.429 102.689 101.351 102.589C101.308 102.532 101.258 102.475 101.208 102.418C101.137 102.332 101.058 102.24 100.987 102.154C100.937 102.097 100.88 102.04 100.83 101.983C100.752 101.905 100.68 101.826 100.602 101.748C100.545 101.691 100.488 101.634 100.431 101.584C100.352 101.513 100.274 101.441 100.188 101.37C100.131 101.32 100.074 101.263 100.01 101.213C99.9104 101.135 99.8177 101.056 99.7179 100.978C99.5967 100.885 99.4755 100.799 99.3542 100.714C99.2901 100.671 99.233 100.628 99.1688 100.586C99.0762 100.521 98.9835 100.464 98.8836 100.407C98.8266 100.372 98.7767 100.336 98.7196 100.308C98.6198 100.243 98.52 100.186 98.413 100.129C98.3631 100.101 98.3204 100.079 98.2704 100.051C98.1564 99.9938 98.0494 99.9368 97.9353 99.8797C97.8997 99.8655 97.864 99.8441 97.8355 99.8298C96.7018 99.2879 95.4896 98.9457 94.3274 98.8102C91.3469 98.4751 88.3594 99.2095 85.4288 99.9439C85.5714 95.9082 82.7407 92.3217 79.4537 91.1595C76.1666 89.9973 72.5872 90.8316 69.3929 92.3146C69.3358 92.0722 69.2716 91.8298 69.2075 91.5873C69.1861 91.5232 69.1718 91.459 69.1504 91.3948C69.0934 91.2023 69.0292 91.0027 68.965 90.8102C68.9508 90.7602 68.9365 90.7175 68.9223 90.6676C68.8438 90.4323 68.7511 90.197 68.6584 89.9617C68.6442 89.926 68.6299 89.8832 68.6085 89.8476C68.5301 89.6479 68.4445 89.4483 68.3518 89.2487C68.3304 89.2059 68.3091 89.1631 68.2948 89.1132C68.0809 88.6426 67.8385 88.1791 67.5818 87.7371C67.5675 87.7157 67.5604 87.6943 67.5461 87.6729C65.243 83.6943 61.4141 80.6568 57.2999 79.2094C53.9487 78.0329 50.4121 77.9046 47.3532 79.188C43.8808 80.6426 41.0144 84.0579 39.7095 88.0651C39.7095 88.0651 39.6882 88.1292 39.681 88.1577C39.6097 88.3716 39.5456 88.5856 39.4885 88.8066C39.4671 88.885 39.4457 88.9563 39.4243 89.0348C39.3958 89.1346 39.3744 89.2344 39.353 89.3342C39.3316 89.4198 39.3174 89.4982 39.296 89.5838C39.2746 89.6765 39.2532 89.7763 39.2318 89.869C39.2033 90.0258 39.1676 90.1898 39.1463 90.3467C39.132 90.4323 39.1177 90.5178 39.1035 90.6034C39.0892 90.7032 39.075 90.803 39.0607 90.9028C39.0464 90.9884 39.0393 91.074 39.0322 91.1595C39.0179 91.2736 39.0108 91.3948 38.9965 91.5089C38.9965 91.5731 38.9823 91.6444 38.9751 91.7086C38.9609 91.8868 38.9537 92.0579 38.9466 92.2362C38.9466 92.3075 38.9466 92.3717 38.9466 92.443C38.9466 92.5713 38.9466 92.6925 38.9466 92.8209C38.9466 92.885 38.9466 92.9563 38.9466 93.0205C38.9466 93.1774 38.9537 93.3342 38.9609 93.4982C38.9609 93.5267 38.9609 93.5553 38.9609 93.5909C38.968 93.7763 38.9894 93.9617 39.0036 94.1542C39.0036 94.2112 39.0179 94.2683 39.025 94.3182C39.0393 94.4608 39.0607 94.5963 39.075 94.7389C39.0821 94.7959 39.0892 94.853 39.0963 94.91C39.1249 95.1025 39.1605 95.2879 39.1962 95.4733C39.1819 95.3877 39.1534 95.3093 39.132 95.2237C38.0981 91.8726 30.0694 90.2041 27.7521 90.3467C25.4348 90.4893 23.1958 91.5873 21.3634 93.2914C20.8714 93.7478 20.4079 94.2469 19.9801 94.7888C19.8731 94.9243 19.7733 95.0597 19.6735 95.1952C19.6236 95.2665 19.5665 95.3378 19.5166 95.4091C19.4311 95.5303 19.3526 95.6444 19.2742 95.7656C19.2029 95.8654 19.1387 95.9724 19.0745 96.0793C19.0104 96.1863 18.9462 96.2861 18.882 96.3931C18.8036 96.5285 18.7252 96.664 18.6539 96.8066C18.6111 96.8922 18.5612 96.9777 18.5184 97.0633C18.3972 97.2915 18.2831 97.5268 18.1833 97.7621C16.9212 97.5482 15.7091 97.0776 14.504 96.5784C13.299 96.0722 12.1011 95.5374 10.8605 95.1738C8.38628 94.4537 5.42722 94.6177 3.72308 96.8423C2.09025 98.9742 2.8318 103.209 5.12775 103.701C4.22933 103.58 3.30953 103.502 2.46103 103.858C1.5127 104.258 0.706979 105.377 0.885236 106.546C1.07062 107.759 2.15442 108.436 3.1384 108.864C8.18663 111.06 13.6841 111.245 19.0603 111.316C24.1798 111.388 29.3065 111.381 34.426 111.366C40.829 111.359 47.2248 111.345 53.6278 111.338C52.8292 111.431 52.0093 111.53 51.2748 111.858C51.0253 111.965 50.79 112.101 50.5689 112.272C49.7846 112.864 49.2285 114.005 49.3924 115.046C49.4138 115.195 49.4566 115.338 49.5065 115.488C49.9201 116.564 50.9896 116.956 52.0164 117.135C52.1661 117.163 52.3087 117.185 52.4513 117.199C66.4195 119.038 80.5303 117.948 94.5556 116.857C99.6109 116.464 104.666 116.072 109.722 115.673C110.577 115.609 111.49 115.488 112.367 115.252C114.299 114.746 116.053 113.705 116.56 111.573C116.98 109.798 116.26 107.837 115.062 106.639L115.055 106.653Z" stroke="black" stroke-width="1.03" stroke-miterlimit="10"/>
<path d="M452.787 31.2088C452.467 30.8808 452.11 30.6028 451.746 30.3603C450.641 29.6402 449.358 29.2623 448.089 29.0912C445.151 28.6919 441.835 29.1554 439.34 31.1447C439.354 31.0591 439.361 30.9664 439.368 30.8808C439.468 29.8042 439.126 28.699 438.591 27.8078C438.484 27.6295 438.37 27.4512 438.249 27.2801C438.213 27.2231 438.17 27.1732 438.128 27.1161C438.049 27.002 437.964 26.8951 437.878 26.781C437.828 26.7168 437.778 26.6527 437.728 26.5956C437.65 26.5029 437.564 26.4031 437.486 26.3104C437.429 26.2462 437.372 26.1821 437.315 26.125C437.236 26.0395 437.151 25.9539 437.065 25.8683C437.001 25.8042 436.944 25.7471 436.88 25.6901C436.794 25.6117 436.709 25.5332 436.616 25.4548C436.552 25.3978 436.488 25.3407 436.423 25.2837C436.317 25.1981 436.21 25.1126 436.103 25.027C435.974 24.9272 435.846 24.8345 435.71 24.7347C435.646 24.6847 435.575 24.6348 435.511 24.5921C435.411 24.5208 435.304 24.4566 435.204 24.3924C435.147 24.3568 435.083 24.314 435.026 24.2783C434.919 24.2142 434.805 24.15 434.691 24.0858C434.641 24.0573 434.584 24.0288 434.534 24.0003C434.413 23.9361 434.292 23.8719 434.17 23.8149C434.135 23.7935 434.099 23.7792 434.056 23.765C432.823 23.1732 431.511 22.8024 430.242 22.6598C426.997 22.289 423.753 23.0947 420.566 23.8933C420.723 19.5083 417.642 15.6081 414.07 14.346C410.498 13.084 406.605 13.9895 403.139 15.6009C403.075 15.3371 403.011 15.0733 402.94 14.8166C402.918 14.7453 402.897 14.674 402.876 14.6027C402.811 14.3888 402.747 14.182 402.676 13.9681C402.662 13.9182 402.64 13.8683 402.626 13.8184C402.54 13.5617 402.441 13.305 402.341 13.0555C402.327 13.0127 402.305 12.9699 402.291 12.9343C402.205 12.7132 402.105 12.4993 402.013 12.2783C401.991 12.2284 401.97 12.1785 401.949 12.1357C401.713 11.6223 401.457 11.1232 401.171 10.6383C401.157 10.617 401.143 10.5956 401.136 10.5742C398.626 6.2533 394.469 2.95204 389.998 1.37628C386.355 0.0928536 382.512 -0.0426193 379.189 1.35489C375.41 2.93778 372.301 6.64546 370.875 11.002C370.875 11.002 370.854 11.0733 370.846 11.1018C370.775 11.3371 370.704 11.5724 370.64 11.8077C370.618 11.8933 370.597 11.9717 370.575 12.0572C370.547 12.1642 370.518 12.2712 370.497 12.3781C370.476 12.4708 370.454 12.5564 370.433 12.649C370.411 12.7489 370.39 12.8558 370.369 12.9556C370.333 13.1268 370.304 13.305 370.276 13.4761C370.262 13.5688 370.247 13.6615 370.233 13.7614C370.219 13.8683 370.205 13.9753 370.19 14.0893C370.176 14.182 370.169 14.2747 370.155 14.3674C370.141 14.4958 370.126 14.617 370.119 14.7453C370.119 14.8166 370.105 14.895 370.098 14.9663C370.083 15.1589 370.076 15.3442 370.069 15.5368C370.069 15.6081 370.069 15.6865 370.069 15.7578C370.069 15.8933 370.069 16.0287 370.069 16.1713C370.069 16.2426 370.069 16.3211 370.069 16.3924C370.069 16.5635 370.076 16.7346 370.083 16.9057C370.083 16.9414 370.083 16.9699 370.083 17.0056C370.098 17.2052 370.112 17.412 370.133 17.6116C370.133 17.6687 370.148 17.7328 370.155 17.7899C370.169 17.9396 370.19 18.0965 370.212 18.2462C370.219 18.3104 370.226 18.3674 370.24 18.4316C370.269 18.6384 370.304 18.8452 370.347 19.0448C370.326 18.9521 370.304 18.8665 370.276 18.7738C369.149 15.1303 360.429 13.3193 357.905 13.4761C355.388 13.633 352.957 14.8237 350.967 16.6776C350.432 17.1767 349.926 17.7186 349.463 18.3033C349.349 18.4459 349.235 18.5956 349.128 18.7453C349.071 18.8238 349.014 18.9022 348.956 18.9806C348.864 19.109 348.778 19.2373 348.693 19.3657C348.621 19.4797 348.55 19.5938 348.479 19.7008C348.407 19.8149 348.336 19.9289 348.272 20.043C348.186 20.1928 348.101 20.3425 348.022 20.4922C347.972 20.5849 347.923 20.6776 347.873 20.7703C347.744 21.0198 347.623 21.2694 347.502 21.5332C346.133 21.2979 344.814 20.7917 343.502 20.2427C342.19 19.6936 340.892 19.109 339.545 18.7168C336.856 17.9325 333.641 18.1107 331.787 20.535C330.011 22.8523 330.824 27.4584 333.313 27.9931C332.336 27.8577 331.338 27.7792 330.418 28.1643C329.391 28.5992 328.507 29.8185 328.699 31.0876C328.899 32.4067 330.083 33.1411 331.145 33.6046C336.628 35.9932 342.603 36.1928 348.457 36.2712C354.026 36.3497 359.595 36.3354 365.156 36.3283C372.116 36.314 379.068 36.3069 386.027 36.2926C385.164 36.3925 384.273 36.4994 383.467 36.863C383.196 36.9843 382.939 37.1269 382.697 37.3122C381.841 37.954 381.235 39.1946 381.413 40.3283C381.442 40.4923 381.478 40.6492 381.542 40.806C381.991 41.9825 383.153 42.396 384.273 42.5957C384.43 42.6242 384.594 42.6456 384.743 42.667C399.924 44.6634 415.268 43.4798 430.505 42.2962C436.003 41.8684 441.493 41.4406 446.991 41.0128C447.917 40.9415 448.916 40.806 449.871 40.5565C451.975 40.0003 453.871 38.8737 454.427 36.5564C454.884 34.6242 454.099 32.4923 452.802 31.1946" fill="#DADADA"/>
<path d="M452.787 31.2088C452.467 30.8808 452.11 30.6028 451.746 30.3603C450.641 29.6402 449.358 29.2623 448.089 29.0912C445.151 28.6919 441.835 29.1554 439.34 31.1447C439.354 31.0591 439.361 30.9664 439.368 30.8808C439.468 29.8042 439.126 28.699 438.591 27.8078C438.484 27.6295 438.37 27.4512 438.249 27.2801C438.213 27.2231 438.17 27.1732 438.128 27.1161C438.049 27.002 437.964 26.8951 437.878 26.781C437.828 26.7168 437.778 26.6527 437.728 26.5956C437.65 26.5029 437.564 26.4031 437.486 26.3104C437.429 26.2462 437.372 26.1821 437.315 26.125C437.236 26.0395 437.151 25.9539 437.065 25.8683C437.001 25.8042 436.944 25.7471 436.88 25.6901C436.794 25.6117 436.709 25.5332 436.616 25.4548C436.552 25.3978 436.488 25.3407 436.423 25.2837C436.317 25.1981 436.21 25.1126 436.103 25.027C435.974 24.9272 435.846 24.8345 435.71 24.7347C435.646 24.6847 435.575 24.6348 435.511 24.5921C435.411 24.5208 435.304 24.4566 435.204 24.3924C435.147 24.3568 435.083 24.314 435.026 24.2783C434.919 24.2142 434.805 24.15 434.691 24.0858C434.641 24.0573 434.584 24.0288 434.534 24.0003C434.413 23.9361 434.292 23.8719 434.17 23.8149C434.135 23.7935 434.099 23.7792 434.056 23.765C432.823 23.1732 431.511 22.8024 430.242 22.6598C426.997 22.289 423.753 23.0947 420.566 23.8933C420.723 19.5083 417.642 15.6081 414.07 14.346C410.498 13.084 406.605 13.9895 403.139 15.6009C403.075 15.3371 403.011 15.0733 402.94 14.8166C402.918 14.7453 402.897 14.674 402.876 14.6027C402.811 14.3888 402.747 14.182 402.676 13.9681C402.662 13.9182 402.64 13.8683 402.626 13.8184C402.54 13.5617 402.441 13.305 402.341 13.0555C402.327 13.0127 402.305 12.9699 402.291 12.9343C402.205 12.7132 402.105 12.4993 402.013 12.2783C401.991 12.2284 401.97 12.1785 401.949 12.1357C401.713 11.6223 401.457 11.1232 401.171 10.6383C401.157 10.617 401.143 10.5956 401.136 10.5742C398.626 6.2533 394.469 2.95204 389.998 1.37628C386.355 0.0928536 382.512 -0.0426193 379.189 1.35489C375.41 2.93778 372.301 6.64546 370.875 11.002C370.875 11.002 370.854 11.0733 370.846 11.1018C370.775 11.3371 370.704 11.5724 370.64 11.8077C370.618 11.8933 370.597 11.9717 370.575 12.0572C370.547 12.1642 370.518 12.2712 370.497 12.3781C370.476 12.4708 370.454 12.5564 370.433 12.649C370.411 12.7489 370.39 12.8558 370.369 12.9556C370.333 13.1268 370.304 13.305 370.276 13.4761C370.262 13.5688 370.247 13.6615 370.233 13.7614C370.219 13.8683 370.205 13.9753 370.19 14.0893C370.176 14.182 370.169 14.2747 370.155 14.3674C370.141 14.4958 370.126 14.617 370.119 14.7453C370.119 14.8166 370.105 14.895 370.098 14.9663C370.083 15.1589 370.076 15.3442 370.069 15.5368C370.069 15.6081 370.069 15.6865 370.069 15.7578C370.069 15.8933 370.069 16.0287 370.069 16.1713C370.069 16.2426 370.069 16.3211 370.069 16.3924C370.069 16.5635 370.076 16.7346 370.083 16.9057C370.083 16.9414 370.083 16.9699 370.083 17.0056C370.098 17.2052 370.112 17.412 370.133 17.6116C370.133 17.6687 370.148 17.7328 370.155 17.7899C370.169 17.9396 370.19 18.0965 370.212 18.2462C370.219 18.3104 370.226 18.3674 370.24 18.4316C370.269 18.6384 370.304 18.8452 370.347 19.0448C370.326 18.9521 370.304 18.8665 370.276 18.7738C369.149 15.1303 360.429 13.3193 357.905 13.4761C355.388 13.633 352.957 14.8237 350.967 16.6776C350.432 17.1767 349.926 17.7186 349.463 18.3033C349.349 18.4459 349.235 18.5956 349.128 18.7453C349.071 18.8238 349.014 18.9022 348.956 18.9806C348.864 19.109 348.778 19.2373 348.693 19.3657C348.621 19.4797 348.55 19.5938 348.479 19.7008C348.407 19.8149 348.336 19.9289 348.272 20.043C348.186 20.1928 348.101 20.3425 348.022 20.4922C347.972 20.5849 347.923 20.6776 347.873 20.7703C347.744 21.0198 347.623 21.2694 347.502 21.5332C346.133 21.2979 344.814 20.7917 343.502 20.2427C342.19 19.6936 340.892 19.109 339.545 18.7168C336.856 17.9325 333.641 18.1107 331.787 20.535C330.011 22.8523 330.824 27.4584 333.313 27.9931C332.336 27.8577 331.338 27.7792 330.418 28.1643C329.391 28.5992 328.507 29.8185 328.699 31.0876C328.899 32.4067 330.083 33.1411 331.145 33.6046C336.628 35.9932 342.603 36.1928 348.457 36.2712C354.026 36.3497 359.595 36.3354 365.156 36.3283C372.116 36.314 379.068 36.3069 386.027 36.2926C385.164 36.3925 384.273 36.4994 383.467 36.863C383.196 36.9843 382.939 37.1269 382.697 37.3122C381.841 37.954 381.235 39.1946 381.413 40.3283C381.442 40.4923 381.478 40.6492 381.542 40.806C381.991 41.9825 383.153 42.396 384.273 42.5957C384.43 42.6242 384.594 42.6456 384.743 42.667C399.924 44.6634 415.268 43.4798 430.505 42.2962C436.003 41.8684 441.493 41.4406 446.991 41.0128C447.917 40.9415 448.916 40.806 449.871 40.5565C451.975 40.0003 453.871 38.8737 454.427 36.5564C454.884 34.6242 454.099 32.4923 452.802 31.1946L452.787 31.2088Z" stroke="black" stroke-width="1.03" stroke-miterlimit="10"/>
<path d="M433.051 161.312C433.051 166.445 432.709 171.508 432.032 176.463C429.415 195.971 421.793 213.889 410.498 228.891C389.97 256.207 357.292 273.868 320.479 273.868C293.583 273.868 268.884 264.435 249.532 248.685C244.798 244.841 240.391 240.628 236.349 236.071C222.509 220.528 212.933 201.134 209.418 179.7C208.676 175.173 208.198 170.531 208.02 165.847C207.942 164.342 207.913 162.823 207.913 161.319C207.913 160.677 207.92 160.028 207.927 159.387C207.934 158.93 207.942 158.481 207.963 158.025C207.97 157.668 207.977 157.312 207.999 156.955C208.063 155.158 208.17 153.383 208.32 151.615C208.369 151.016 208.434 150.424 208.491 149.825C208.555 149.198 208.619 148.57 208.697 147.943C208.769 147.315 208.847 146.688 208.933 146.067C209.097 144.82 209.289 143.586 209.496 142.346C209.603 141.725 209.717 141.119 209.824 140.499C210.387 137.433 211.086 134.417 211.906 131.444C211.977 131.18 212.049 130.923 212.113 130.659H212.12V130.645C212.27 130.11 212.427 129.583 212.583 129.062C213.539 125.839 214.651 122.673 215.892 119.579C215.892 119.572 215.899 119.55 215.899 119.543C216.141 118.93 216.398 118.331 216.641 117.732C216.904 117.112 217.161 116.506 217.432 115.893C217.703 115.294 217.974 114.681 218.252 114.082C224.976 99.5646 234.694 86.7304 246.616 76.3631C247.201 75.8569 247.793 75.3506 248.384 74.8587C248.919 74.4166 249.447 73.9816 249.989 73.5396C250.566 73.0761 251.137 72.6269 251.721 72.1777C252.299 71.7214 252.884 71.2865 253.475 70.8444C254.652 69.9674 255.843 69.1118 257.062 68.2918C258.274 67.4576 259.501 66.6447 260.748 65.8675C261.176 65.5966 261.611 65.3256 262.046 65.069C262.196 64.9763 262.353 64.8836 262.502 64.798C262.709 64.6697 262.93 64.5342 263.137 64.413C273.098 58.5021 284.043 54.0957 295.672 51.4932C296.172 51.3791 296.678 51.2721 297.177 51.1723C297.541 51.0939 297.911 51.0154 298.275 50.9441C298.624 50.8728 298.974 50.8015 299.323 50.7445C299.402 50.7302 299.48 50.7088 299.551 50.7017C299.943 50.6233 300.336 50.552 300.721 50.4807C301.034 50.4308 301.341 50.3737 301.648 50.3309C301.961 50.281 302.261 50.224 302.575 50.1741C308.407 49.2258 314.375 48.748 320.464 48.748C330.133 48.748 339.531 49.9673 348.479 52.2703C350.162 52.6981 351.83 53.1687 353.477 53.675C354.233 53.9103 354.996 54.1456 355.745 54.3951C356.494 54.6447 357.242 54.9014 357.984 55.1652C359.474 55.6857 360.943 56.2347 362.405 56.8265C362.733 56.9548 363.068 57.0903 363.396 57.2258C363.467 57.2543 363.524 57.2757 363.595 57.3114C363.988 57.4682 364.38 57.6322 364.772 57.8105C364.893 57.8532 365.014 57.9032 365.128 57.9673C365.364 58.06 365.606 58.167 365.841 58.2739C369.292 59.7927 372.644 61.5039 375.909 63.3577C375.981 63.4005 376.045 63.4362 376.116 63.4789C383.938 67.9353 391.189 73.29 397.699 79.422C397.892 79.6145 398.084 79.7999 398.277 79.9781C398.327 80.0209 398.37 80.0708 398.427 80.1207C398.691 80.3703 398.947 80.6269 399.211 80.8765L399.496 81.1617C399.824 81.4826 400.159 81.8177 400.48 82.1457C411.004 92.7767 419.425 105.504 425.051 119.636C425.372 120.449 425.686 121.255 425.992 122.075C426.021 122.153 426.042 122.239 426.078 122.317C426.691 123.957 427.262 125.618 427.789 127.294C427.818 127.386 427.853 127.479 427.875 127.565C428.124 128.363 428.374 129.176 428.595 129.989C428.638 130.117 428.673 130.26 428.716 130.388C428.909 131.051 429.094 131.722 429.265 132.392C429.344 132.698 429.429 133.005 429.5 133.319C429.693 134.053 429.878 134.795 430.049 135.529C432.01 143.807 433.03 152.442 433.03 161.312H433.051Z" fill="#009EE2" stroke="black" stroke-width="0.39" stroke-miterlimit="10"/>
<path d="M378.262 181.582C378.227 183.914 378.17 186.303 377.35 188.477C375.61 193.062 370.897 195.821 368.415 200.042C363.874 207.757 367.874 217.818 365.435 226.438C364.308 230.417 361.856 233.868 359.453 237.233C357.77 239.6 356.044 241.996 354.162 244.214C352.201 246.531 350.055 248.67 347.559 250.396C346.198 251.337 344.165 252.071 343.067 250.838C342.461 250.16 342.447 249.155 342.468 248.235C342.511 246.317 342.561 244.392 342.604 242.474C342.618 241.64 342.618 240.727 342.091 240.085C341.698 239.593 341.099 239.351 340.572 239.016C336.693 236.506 338.39 230.103 335.559 226.452C334.839 225.518 333.862 224.827 332.992 224.028C329.662 220.962 328.008 216.178 328.743 211.707C328.871 210.916 329.064 210.11 328.871 209.347C328.75 208.841 328.465 208.392 328.151 207.978C327.088 206.609 325.641 205.547 324.008 204.962C318.703 203.066 311.987 206.132 307.573 202.624C305.434 200.919 304.55 198.132 303.772 195.508C302.838 192.342 301.89 189.119 301.919 185.825C301.954 179.165 305.897 173.055 306.268 166.409C306.368 164.627 306.24 162.695 307.245 161.219C307.773 160.442 308.564 159.885 309.348 159.365C313.42 156.684 317.912 154.652 322.604 153.361C325.491 152.57 328.7 151.999 331.602 153.055C334.119 153.967 334.796 156.791 336.828 157.675C341.242 159.593 343.474 150.509 347.103 154.823C347.517 155.315 347.952 155.985 348.408 156.862C350.027 159.999 352.686 162.267 355.809 163.885C356.608 164.299 357.435 164.67 358.283 164.998C361.214 166.139 364.415 166.823 367.496 167.194C369.656 167.45 371.909 167.636 373.777 168.755C377.849 171.215 378.319 176.841 378.255 181.597L378.262 181.582Z" fill="#00953F" stroke="black" stroke-width="0.39" stroke-miterlimit="10"/>
<path d="M431.626 176.735C429.066 195.801 421.729 213.341 410.848 228.129C410.606 228.471 410.349 228.813 410.092 229.156C405.843 227.68 401.386 226.603 398.684 223.145C396.288 220.086 396.003 215.508 398.042 212.172C398.591 211.273 399.283 210.46 399.661 209.476C400.659 206.831 399.133 203.551 400.652 201.163C400.958 200.692 401.358 200.3 401.793 199.95C402.99 198.988 404.488 198.296 405.187 196.949C405.593 196.193 405.686 195.323 405.771 194.474C405.843 193.776 405.921 193.07 405.992 192.378C406.342 189.056 406.691 185.733 407.04 182.41C407.212 180.72 407.397 179.023 407.568 177.334C407.711 176.007 407.839 174.674 407.725 173.326C407.518 170.981 406.541 168.585 407.247 166.339C415.896 165.334 424.93 168.87 430.613 175.465C430.948 175.865 431.29 176.285 431.618 176.735H431.626Z" fill="#00953F" stroke="black" stroke-width="0.39" stroke-miterlimit="10"/>
<path d="M301.669 50.3316C301.363 50.3743 301.056 50.4243 300.742 50.4813C300.357 50.5526 299.965 50.6239 299.573 50.7023C299.502 50.7095 299.423 50.7308 299.345 50.7451C298.996 50.8093 298.646 50.8734 298.297 50.9448C297.933 51.0161 297.562 51.0945 297.199 51.1729C296.692 51.2799 296.186 51.3797 295.694 51.4938C284.065 54.0963 273.12 58.5098 263.159 64.4136C262.952 64.5348 262.731 64.6632 262.524 64.7986C262.375 64.8842 262.218 64.9698 262.068 65.0696C261.633 65.3334 261.198 65.6043 260.77 65.8682C259.522 66.6453 258.296 67.4511 257.084 68.2924C255.865 69.1124 254.674 69.968 253.497 70.845C252.906 71.2871 252.321 71.722 251.743 72.1783C251.159 72.6204 250.581 73.0767 250.011 73.5402C249.469 73.9751 248.941 74.4101 248.406 74.8593C247.815 75.3584 247.223 75.8646 246.638 76.3637C246.588 76.4065 246.538 76.4493 246.488 76.4921C248.028 78.4101 250.61 79.2586 252.963 80.1213C255.501 81.0483 258.225 82.3531 259.159 84.8771C260.506 88.4707 257.483 92.3068 257.754 96.1428C257.811 97.0554 258.061 97.9752 257.854 98.8665C257.612 99.8148 256.884 100.556 256.164 101.227C255.08 102.218 253.925 103.209 253.276 104.549C252.627 105.875 252.656 107.665 253.768 108.635C254.802 109.54 256.428 109.419 257.669 108.799C258.902 108.178 259.879 107.145 260.92 106.246C262.874 104.606 265.184 103.423 267.658 102.788C271.744 101.74 276.806 101.875 279.181 98.3674C279.751 97.5332 280.093 96.5421 280.721 95.7292C281.79 94.3388 283.53 93.6829 285.084 92.8772C289.534 90.5955 293.263 86.2319 293.341 81.2336C293.405 78.1178 292.079 75.0019 292.771 71.9716C293.698 67.9074 297.798 65.4974 300.272 62.1462C302.746 58.7737 303.438 54.2246 302.261 50.2246C302.062 50.2603 301.869 50.2888 301.669 50.3244V50.3316Z" fill="#00953F" stroke="black" stroke-width="0.39" stroke-miterlimit="10"/>
<path d="M421.664 149.39C422.178 148.948 422.634 148.442 423.033 147.9C423.789 146.901 424.388 145.761 424.987 144.648C426.598 141.582 428.21 138.516 429.814 135.443C429.643 134.702 429.451 133.96 429.265 133.226C429.194 132.919 429.101 132.605 429.023 132.299C428.852 131.629 428.666 130.958 428.474 130.295C428.431 130.167 428.395 130.024 428.352 129.896C428.124 129.083 427.882 128.277 427.632 127.472C427.604 127.379 427.575 127.301 427.547 127.201C427.012 125.525 426.449 123.864 425.835 122.224C425.8 122.146 425.778 122.06 425.75 121.982C425.443 121.162 425.13 120.349 424.809 119.543C424.117 117.832 423.397 116.149 422.641 114.488C422.099 113.304 421.536 112.128 420.951 110.965C418.955 106.973 416.737 103.129 414.306 99.436C413.757 98.6089 413.208 97.7961 412.637 96.9904C408.915 91.657 404.751 86.6659 400.195 82.067C400.216 82.0527 400.224 82.0527 400.238 82.0456C400.281 82.0313 400.323 82.0099 400.366 81.9957C400.088 81.7105 399.803 81.4253 399.518 81.1472L399.404 81.0331C399.354 81.0402 399.304 81.0474 399.254 81.0545C399.232 81.0545 399.225 81.0688 399.211 81.0688C399.111 80.9689 399.033 80.8762 398.94 80.7907C398.94 80.7764 398.961 80.7764 398.969 80.7693C399.004 80.7479 399.04 80.7265 399.076 80.7051C398.869 80.5055 398.655 80.2987 398.448 80.0991C398.405 80.0634 398.37 80.0278 398.334 79.9921C398.284 79.9992 398.241 80.0135 398.191 80.0206H398.163L398.027 79.8852H398.042C398.042 79.8852 398.106 79.8281 398.134 79.7996C397.999 79.6712 397.863 79.5358 397.728 79.4003C397.678 79.3504 397.621 79.3005 397.571 79.2506C397.535 79.272 397.507 79.2934 397.471 79.3147C397.471 79.3147 397.464 79.3195 397.45 79.329C396.865 78.78 396.281 78.231 395.682 77.7033C392.887 75.165 389.949 72.7693 386.897 70.5375C384.173 68.5197 381.357 66.6373 378.455 64.8833C374.854 62.7086 371.132 60.7264 367.282 58.9582C366.726 58.7015 366.155 58.4448 365.592 58.1952L365.613 58.1738C365.613 58.1738 365.62 58.1596 365.627 58.1525C365.471 58.0812 365.314 58.017 365.157 57.9528C365.078 57.91 365 57.8744 364.922 57.8459C364.914 57.853 364.9 57.8601 364.893 57.8744C364.779 57.8316 364.665 57.7746 364.544 57.7246V57.7104C364.544 57.7104 364.544 57.6961 364.544 57.689C364.237 57.5535 363.93 57.4252 363.624 57.304C363.553 57.2683 363.496 57.2398 363.424 57.2184C363.403 57.2113 363.389 57.2041 363.367 57.197C363.367 57.2041 363.367 57.2184 363.367 57.2255C363.296 57.197 363.225 57.1685 363.168 57.14C363.168 57.14 363.168 57.1186 363.168 57.1115C362.925 57.0116 362.683 56.9118 362.44 56.8191C362.355 56.7835 362.269 56.7478 362.176 56.7122C362.176 56.7122 362.176 56.7264 362.176 56.7336C360.708 56.156 359.253 55.607 357.756 55.0651C357.128 54.8441 356.501 54.6302 355.873 54.4234C355.759 54.3806 355.638 54.3378 355.517 54.3022C355.217 54.1952 354.911 54.1025 354.604 54.0027C354.24 53.8886 353.877 53.7745 353.506 53.6605C353.42 53.6319 353.328 53.6106 353.242 53.582C353.207 54.1311 353.192 54.6943 353.207 55.279C353.249 57.4323 353.627 59.7211 353.584 61.3254C353.563 62.1881 353.535 63.0723 353.114 63.8209C352.722 64.5126 352.059 64.9903 351.666 65.6819C350.747 67.2577 351.567 69.2256 352.387 70.8513C344.215 68.812 335.63 73.7176 330.611 80.4698C329.399 82.1026 328.301 83.8566 326.675 85.0759C324.878 86.4164 322.204 87.6071 322.504 89.8246C322.561 90.395 322.853 90.9226 323.217 91.3647C325.099 93.6178 328.571 93.7319 331.345 92.805C334.119 91.8781 336.586 90.1383 339.352 89.2399C340.75 88.7978 342.725 88.8691 343.067 90.288C343.196 90.7943 343.039 91.3219 342.896 91.8282C342.568 92.9262 342.24 94.0171 341.912 95.0938C340.721 99.0296 339.495 103.022 337.099 106.338C336.279 107.479 335.302 108.555 334.889 109.882C334.304 111.686 334.803 113.618 335.231 115.465C335.958 118.695 336.479 121.982 336.75 125.283C336.793 125.932 336.835 126.63 336.536 127.222C336.108 128.078 335.131 128.47 334.254 128.855C330.696 130.409 327.623 133.033 325.498 136.299C324.479 137.896 323.644 139.75 323.858 141.639C324.136 144.121 326.197 146.124 328.5 147.08C329.912 147.664 331.424 147.921 332.957 148.049C333.926 148.142 334.91 148.171 335.88 148.206C337.891 148.263 339.987 148.313 341.82 147.529C343.666 146.716 345.178 144.798 344.836 142.816C344.422 140.356 341.513 138.98 340.921 136.548C340.237 133.675 343.06 131.272 345.556 129.661C350.739 126.31 356.13 122.873 362.226 121.889C364.387 121.539 367.303 122.06 367.581 124.22C367.838 126.359 365.285 127.579 363.246 128.256C361.784 128.748 360.13 129.761 359.602 131.03C359.388 131.536 359.36 132.085 359.588 132.648C359.945 133.518 360.822 134.046 361.435 134.745C362.84 136.42 362.569 138.909 363.168 141.012C364.544 145.967 370.234 148.106 375.168 149.518C376.765 149.989 378.441 150.459 380.066 150.081C381.606 149.711 382.876 148.648 384.28 147.9C386.234 146.844 388.901 145.953 389.043 143.736C389.129 142.566 388.509 141.711 387.582 141.005C386.419 140.121 384.794 139.465 383.517 138.723C381.87 137.768 380.601 136.292 379.018 135.215C377.464 134.146 375.31 133.518 373.67 134.481C373.407 132.62 373.471 130.702 373.842 128.841C373.949 128.777 374.055 128.72 374.162 128.684C375.831 128.056 377.35 130.566 379.04 131.622C380.43 132.449 382.227 132.278 383.66 133.026C384.573 133.511 385.25 134.324 385.899 135.115C388.195 137.903 390.512 140.698 392.801 143.479C393.464 144.292 394.163 145.162 394.263 146.21C394.391 147.536 393.493 148.805 393.628 150.146C393.885 152.869 397.6 153.397 400.309 153.155C401.029 153.098 401.757 153.04 402.47 152.969C405.906 152.67 409.329 152.377 412.751 152.092C415.896 151.807 419.261 151.45 421.679 149.397L421.664 149.39Z" fill="#00953F" stroke="black" stroke-width="0.39" stroke-miterlimit="10"/>
<path d="M247.957 124.727C247.878 124.335 247.693 123.978 247.436 123.679C246.959 123.109 246.231 122.724 245.483 122.574C244.349 122.346 243.187 122.538 242.024 122.652C238.887 122.959 235.5 122.624 232.912 120.798C229.988 118.745 228.284 114.98 224.89 113.832C222.708 113.084 220.462 113.64 218.188 114.267C217.938 114.809 217.696 115.351 217.453 115.893C217.183 116.506 216.919 117.112 216.662 117.732C216.42 118.331 216.163 118.937 215.92 119.544C215.92 119.551 215.913 119.572 215.913 119.579C214.666 122.674 213.56 125.832 212.605 129.062C212.448 129.583 212.291 130.118 212.141 130.645V130.659H212.134C212.063 130.923 211.992 131.18 211.928 131.444C211.108 134.417 210.409 137.433 209.845 140.499C209.731 141.119 209.617 141.725 209.517 142.346C209.311 143.586 209.118 144.82 208.954 146.068C208.869 146.688 208.79 147.315 208.719 147.943C208.64 148.57 208.569 149.198 208.512 149.825C208.448 150.417 208.391 151.009 208.341 151.615C208.191 153.383 208.077 155.159 208.02 156.955C208.006 157.312 207.992 157.668 207.984 158.025C207.97 158.481 207.956 158.93 207.949 159.387C207.942 160.029 207.935 160.677 207.935 161.319C207.935 162.824 207.963 164.342 208.042 165.847C208.042 165.911 208.042 165.968 208.049 166.032C212.826 165.013 218.117 160.706 221.147 157.825C223.949 155.173 226.566 151.914 230.309 151.009C232.177 150.553 234.309 150.681 235.814 149.476C236.684 148.784 237.19 147.743 237.682 146.752C238.466 145.141 239.244 143.508 239.564 141.74C239.857 140.2 239.764 138.588 240.156 137.062C241.147 133.191 244.919 130.766 247.144 127.458C247.7 126.638 248.171 125.675 247.978 124.72L247.957 124.727Z" fill="#00953F" stroke="black" stroke-width="0.39" stroke-miterlimit="10"/>
<path d="M258.909 225.449C260.741 224.122 262.203 222.383 263.793 220.793C266.488 218.147 269.576 215.908 272.934 214.19C275.922 212.65 279.223 211.473 281.619 209.156C281.804 208.985 281.983 208.807 282.154 208.614C283.066 207.616 283.779 206.404 283.936 205.071C284.15 203.252 283.266 201.498 283.052 199.68C282.674 196.593 284.072 192.999 282.082 190.611C280.949 189.249 279.066 188.828 277.334 188.443C272.121 187.267 266.988 185.705 262.003 183.773C261.319 183.509 260.642 183.231 260.057 182.775C259.394 182.261 258.923 181.541 258.431 180.842C256.264 177.783 253.376 174.988 249.739 174.054C247.857 173.562 245.889 173.605 243.957 173.641C239.95 173.726 235.928 173.805 231.921 173.89C230.245 173.919 228.534 173.969 226.951 174.496C225.34 175.024 223.921 176.037 222.452 176.864C219.094 178.753 215.243 179.751 211.407 179.723C210.751 179.723 210.074 179.694 209.446 179.837C212.983 201.213 222.552 220.557 236.356 236.065C236.399 236.115 236.449 236.165 236.491 236.215C236.955 236.101 237.411 235.944 237.868 235.744C243.237 233.342 248.449 230.504 253.846 228.115C255.593 227.345 257.369 226.568 258.916 225.441L258.909 225.449Z" fill="#00953F" stroke="black" stroke-width="0.39" stroke-miterlimit="10"/>
<path d="M136.611 240.606C136.275 241.098 132.083 247.138 126.108 246.874C120.197 246.603 116.582 240.35 116.182 239.658C111.305 231.323 115.812 217.662 126.685 204.92C137.709 218.581 141.901 232.763 136.611 240.606Z" fill="#00953F"/>
<path d="M136.611 240.606C136.275 241.098 132.083 247.138 126.108 246.874C120.197 246.603 116.582 240.35 116.182 239.658C111.305 231.323 115.812 217.662 126.685 204.92C137.709 218.581 141.901 232.763 136.611 240.606Z" stroke="black" stroke-width="1.03" stroke-miterlimit="10"/>
<path d="M126.75 204.92L126.187 246.874" stroke="black" stroke-width="1.03" stroke-miterlimit="10"/>
<path d="M126.393 229.91L136.432 220.484" stroke="black" stroke-width="1.03" stroke-miterlimit="10"/>
<path d="M126.371 240.228L138.521 228.648" stroke="black" stroke-width="1.03" stroke-miterlimit="10"/>
<path d="M126.564 217.64L132.069 212.514" stroke="black" stroke-width="1.03" stroke-miterlimit="10"/>
<path d="M126.357 229.91L116.503 221.055" stroke="black" stroke-width="1.03" stroke-miterlimit="10"/>
<path d="M126.372 240.229L114.414 228.842" stroke="black" stroke-width="1.03" stroke-miterlimit="10"/>
<path d="M126.75 217.447L120.867 212.705" stroke="black" stroke-width="1.03" stroke-miterlimit="10"/>
<path d="M240.812 424.394C240.491 424.066 240.134 423.788 239.771 423.546C238.666 422.826 237.382 422.448 236.113 422.277C233.175 421.877 229.86 422.341 227.364 424.33C227.378 424.245 227.386 424.152 227.393 424.066C227.493 422.99 227.15 421.885 226.615 420.993C226.509 420.815 226.394 420.637 226.273 420.466C226.238 420.409 226.195 420.359 226.152 420.302C226.074 420.188 225.988 420.081 225.902 419.967C225.853 419.902 225.803 419.838 225.753 419.781C225.674 419.688 225.589 419.589 225.51 419.496C225.453 419.432 225.396 419.368 225.339 419.311C225.261 419.225 225.175 419.139 225.09 419.054C225.025 418.99 224.968 418.933 224.904 418.876C224.819 418.797 224.733 418.719 224.64 418.64C224.576 418.583 224.512 418.526 224.448 418.469C224.341 418.384 224.234 418.298 224.127 418.213C223.999 418.113 223.87 418.02 223.735 417.92C223.671 417.87 223.599 417.82 223.535 417.778C223.435 417.706 223.328 417.642 223.229 417.578C223.172 417.542 223.107 417.5 223.05 417.464C222.943 417.4 222.829 417.335 222.715 417.271C222.665 417.243 222.608 417.214 222.558 417.186C222.437 417.122 222.316 417.057 222.195 417C222.159 416.979 222.123 416.965 222.081 416.951C220.847 416.359 219.535 415.988 218.266 415.845C215.022 415.475 211.777 416.28 208.59 417.079C208.747 412.694 205.667 408.794 202.094 407.532C198.522 406.27 194.629 407.175 191.164 408.786C191.1 408.523 191.035 408.259 190.964 408.002C190.943 407.931 190.921 407.86 190.9 407.788C190.836 407.574 190.772 407.368 190.7 407.154C190.686 407.104 190.665 407.054 190.65 407.004C190.565 406.747 190.465 406.491 190.365 406.241C190.351 406.198 190.33 406.155 190.315 406.12C190.23 405.899 190.13 405.685 190.037 405.464C190.016 405.414 189.994 405.364 189.973 405.321C189.738 404.808 189.481 404.309 189.196 403.824C189.182 403.802 189.167 403.781 189.16 403.76C186.65 399.439 182.493 396.138 178.023 394.562C174.379 393.278 170.536 393.143 167.213 394.54C163.434 396.123 160.325 399.831 158.899 404.188C158.899 404.188 158.878 404.259 158.871 404.287C158.8 404.523 158.728 404.758 158.664 404.993C158.643 405.079 158.621 405.157 158.6 405.243C158.571 405.35 158.543 405.457 158.521 405.564C158.5 405.656 158.479 405.742 158.457 405.835C158.436 405.934 158.414 406.041 158.393 406.141C158.357 406.312 158.329 406.491 158.3 406.662C158.286 406.754 158.272 406.847 158.258 406.947C158.243 407.054 158.229 407.161 158.215 407.275C158.201 407.368 158.193 407.46 158.179 407.553C158.165 407.681 158.151 407.803 158.144 407.931C158.144 408.002 158.129 408.081 158.122 408.152C158.108 408.344 158.101 408.53 158.094 408.722C158.094 408.794 158.094 408.872 158.094 408.943C158.094 409.079 158.094 409.214 158.094 409.357C158.094 409.428 158.094 409.507 158.094 409.578C158.094 409.749 158.101 409.92 158.108 410.091C158.108 410.127 158.108 410.155 158.108 410.191C158.122 410.391 158.136 410.598 158.158 410.797C158.158 410.854 158.172 410.918 158.179 410.975C158.193 411.125 158.215 411.282 158.236 411.432C158.243 411.496 158.25 411.553 158.265 411.617C158.293 411.824 158.329 412.031 158.372 412.23C158.35 412.138 158.329 412.052 158.3 411.959C157.174 408.316 148.453 406.505 145.929 406.662C143.412 406.819 140.981 408.009 138.992 409.863C138.457 410.362 137.951 410.904 137.487 411.489C137.373 411.631 137.259 411.781 137.152 411.931C137.095 412.009 137.038 412.088 136.981 412.166C136.888 412.295 136.803 412.423 136.717 412.551C136.646 412.665 136.574 412.779 136.503 412.886C136.432 413 136.361 413.114 136.296 413.229C136.211 413.378 136.125 413.528 136.047 413.678C135.997 413.77 135.947 413.863 135.897 413.956C135.769 414.205 135.648 414.455 135.526 414.719C134.157 414.483 132.838 413.977 131.526 413.428C130.214 412.879 128.917 412.295 127.569 411.902C124.881 411.118 121.665 411.296 119.811 413.721C118.036 416.038 118.849 420.644 121.337 421.179C120.36 421.043 119.362 420.965 118.442 421.35C117.415 421.785 116.531 423.004 116.724 424.273C116.923 425.592 118.107 426.327 119.169 426.79C124.653 429.179 130.628 429.378 136.482 429.457C142.05 429.535 147.619 429.521 153.181 429.514C160.14 429.5 167.092 429.492 174.051 429.478C173.188 429.578 172.297 429.685 171.491 430.049C171.22 430.17 170.964 430.312 170.721 430.498C169.866 431.14 169.26 432.38 169.438 433.514C169.466 433.678 169.502 433.835 169.566 433.992C170.015 435.168 171.178 435.582 172.297 435.781C172.454 435.81 172.618 435.831 172.768 435.853C187.948 437.849 203.292 436.665 218.53 435.482C224.027 435.054 229.518 434.626 235.015 434.198C235.942 434.127 236.94 433.992 237.896 433.742C239.999 433.186 241.896 432.059 242.452 429.742C242.908 427.81 242.124 425.678 240.826 424.38" fill="#DADADA"/>
<path d="M240.812 424.394C240.491 424.066 240.134 423.788 239.771 423.546C238.666 422.826 237.382 422.448 236.113 422.277C233.175 421.877 229.86 422.341 227.364 424.33C227.378 424.245 227.386 424.152 227.393 424.066C227.493 422.99 227.15 421.885 226.615 420.993C226.509 420.815 226.394 420.637 226.273 420.466C226.238 420.409 226.195 420.359 226.152 420.302C226.074 420.188 225.988 420.081 225.902 419.967C225.853 419.902 225.803 419.838 225.753 419.781C225.674 419.688 225.589 419.589 225.51 419.496C225.453 419.432 225.396 419.368 225.339 419.311C225.261 419.225 225.175 419.139 225.09 419.054C225.025 418.99 224.968 418.933 224.904 418.876C224.819 418.797 224.733 418.719 224.64 418.64C224.576 418.583 224.512 418.526 224.448 418.469C224.341 418.384 224.234 418.298 224.127 418.213C223.999 418.113 223.87 418.02 223.735 417.92C223.671 417.87 223.599 417.82 223.535 417.778C223.435 417.706 223.328 417.642 223.229 417.578C223.172 417.542 223.107 417.5 223.05 417.464C222.943 417.4 222.829 417.335 222.715 417.271C222.665 417.243 222.608 417.214 222.558 417.186C222.437 417.122 222.316 417.057 222.195 417C222.159 416.979 222.123 416.965 222.081 416.951C220.847 416.359 219.535 415.988 218.266 415.845C215.022 415.475 211.777 416.28 208.59 417.079C208.747 412.694 205.667 408.794 202.094 407.532C198.522 406.27 194.629 407.175 191.164 408.786C191.1 408.523 191.035 408.259 190.964 408.002C190.943 407.931 190.921 407.86 190.9 407.788C190.836 407.574 190.772 407.368 190.7 407.154C190.686 407.104 190.665 407.054 190.65 407.004C190.565 406.747 190.465 406.491 190.365 406.241C190.351 406.198 190.33 406.155 190.315 406.12C190.23 405.899 190.13 405.685 190.037 405.464C190.016 405.414 189.994 405.364 189.973 405.321C189.738 404.808 189.481 404.309 189.196 403.824C189.182 403.802 189.167 403.781 189.16 403.76C186.65 399.439 182.493 396.138 178.023 394.562C174.379 393.278 170.536 393.143 167.213 394.54C163.434 396.123 160.325 399.831 158.899 404.188C158.899 404.188 158.878 404.259 158.871 404.287C158.8 404.523 158.728 404.758 158.664 404.993C158.643 405.079 158.621 405.157 158.6 405.243C158.571 405.35 158.543 405.457 158.521 405.564C158.5 405.656 158.479 405.742 158.457 405.835C158.436 405.934 158.414 406.041 158.393 406.141C158.357 406.312 158.329 406.491 158.3 406.662C158.286 406.754 158.272 406.847 158.258 406.947C158.243 407.054 158.229 407.161 158.215 407.275C158.201 407.368 158.193 407.46 158.179 407.553C158.165 407.681 158.151 407.803 158.144 407.931C158.144 408.002 158.129 408.081 158.122 408.152C158.108 408.344 158.101 408.53 158.094 408.722C158.094 408.794 158.094 408.872 158.094 408.943C158.094 409.079 158.094 409.214 158.094 409.357C158.094 409.428 158.094 409.507 158.094 409.578C158.094 409.749 158.101 409.92 158.108 410.091C158.108 410.127 158.108 410.155 158.108 410.191C158.122 410.391 158.136 410.598 158.158 410.797C158.158 410.854 158.172 410.918 158.179 410.975C158.193 411.125 158.215 411.282 158.236 411.432C158.243 411.496 158.25 411.553 158.265 411.617C158.293 411.824 158.329 412.031 158.372 412.23C158.35 412.138 158.329 412.052 158.3 411.959C157.174 408.316 148.453 406.505 145.929 406.662C143.412 406.819 140.981 408.009 138.992 409.863C138.457 410.362 137.951 410.904 137.487 411.489C137.373 411.631 137.259 411.781 137.152 411.931C137.095 412.009 137.038 412.088 136.981 412.166C136.888 412.295 136.803 412.423 136.717 412.551C136.646 412.665 136.574 412.779 136.503 412.886C136.432 413 136.361 413.114 136.296 413.229C136.211 413.378 136.125 413.528 136.047 413.678C135.997 413.77 135.947 413.863 135.897 413.956C135.769 414.205 135.648 414.455 135.526 414.719C134.157 414.483 132.838 413.977 131.526 413.428C130.214 412.879 128.917 412.295 127.569 411.902C124.881 411.118 121.665 411.296 119.811 413.721C118.036 416.038 118.849 420.644 121.337 421.179C120.36 421.043 119.362 420.965 118.442 421.35C117.415 421.785 116.531 423.004 116.724 424.273C116.923 425.592 118.107 426.327 119.169 426.79C124.653 429.179 130.628 429.378 136.482 429.457C142.05 429.535 147.619 429.521 153.181 429.514C160.14 429.5 167.092 429.492 174.051 429.478C173.188 429.578 172.297 429.685 171.491 430.049C171.22 430.17 170.964 430.312 170.721 430.498C169.866 431.14 169.26 432.38 169.438 433.514C169.466 433.678 169.502 433.835 169.566 433.992C170.015 435.168 171.178 435.582 172.297 435.781C172.454 435.81 172.618 435.831 172.768 435.853C187.948 437.849 203.292 436.665 218.53 435.482C224.027 435.054 229.518 434.626 235.015 434.198C235.942 434.127 236.94 433.992 237.896 433.742C239.999 433.186 241.896 432.059 242.452 429.742C242.908 427.81 242.124 425.678 240.826 424.38L240.812 424.394Z" stroke="black" stroke-width="1.03" stroke-miterlimit="10"/>
<path d="M165.552 43.7573C159.17 44.4132 158.743 44.948 158.215 52.9266C157.687 44.948 157.26 44.4132 150.878 43.7573C157.26 43.1013 157.687 42.5665 158.215 34.5879C158.743 42.5665 159.17 43.1013 165.552 43.7573Z" fill="#DADADA"/>
<path d="M165.552 43.7573C159.17 44.4132 158.743 44.948 158.215 52.9266C157.687 44.948 157.26 44.4132 150.878 43.7573C157.26 43.1013 157.687 42.5665 158.215 34.5879C158.743 42.5665 159.17 43.1013 165.552 43.7573Z" stroke="black" stroke-width="1.03" stroke-miterlimit="10"/>
<path d="M189.31 159.822C172.212 161.584 171.064 163.017 169.652 184.393C168.241 163.017 167.1 161.584 149.994 159.822C167.093 158.061 168.241 156.628 169.652 135.252C171.064 156.628 172.205 158.061 189.31 159.822Z" fill="#DADADA"/>
<path d="M189.31 159.822C172.212 161.584 171.064 163.017 169.652 184.393C168.241 163.017 167.1 161.584 149.994 159.822C167.093 158.061 168.241 156.628 169.652 135.252C171.064 156.628 172.205 158.061 189.31 159.822Z" stroke="black" stroke-width="1.03" stroke-miterlimit="10"/>
<path d="M468.88 258.147C456.41 259.43 455.575 260.478 454.549 276.065C453.522 260.478 452.688 259.43 440.217 258.147C452.688 256.863 453.522 255.815 454.549 240.229C455.575 255.815 456.41 256.863 468.88 258.147Z" fill="#DADADA"/>
<path d="M468.88 258.147C456.41 259.43 455.575 260.478 454.549 276.065C453.522 260.478 452.688 259.43 440.217 258.147C452.688 256.863 453.522 255.815 454.549 240.229C455.575 255.815 456.41 256.863 468.88 258.147Z" stroke="black" stroke-width="0.75" stroke-miterlimit="10"/>
<path d="M452.032 78.5888C442.677 79.5513 442.05 80.3357 441.28 92.0291C440.51 80.3357 439.882 79.5513 430.527 78.5888C439.882 77.6262 440.51 76.8419 441.28 65.1484C442.05 76.8419 442.677 77.6262 452.032 78.5888Z" fill="#DADADA"/>
<path d="M452.032 78.5888C442.677 79.5513 442.05 80.3357 441.28 92.0291C440.51 80.3357 439.882 79.5513 430.527 78.5888C439.882 77.6262 440.51 76.8419 441.28 65.1484C442.05 76.8419 442.677 77.6262 452.032 78.5888Z" stroke="black" stroke-miterlimit="10"/>
</g>
<defs>
<clipPath id="clip0_4332_61">
<rect width="471.004" height="485" fill="white" transform="translate(0.486328)"/>
</clipPath>
</defs>
</svg>
